<?xml version="1.0" encoding="UTF-8" standalone="no"?>
<svg xmlns:ffdec="https://www.free-decompiler.com/flash" xmlns:xlink="http://www.w3.org/1999/xlink" ffdec:objectType="shape" height="1074.9px" width="2233.75px" xmlns="http://www.w3.org/2000/svg">
  <g transform="matrix(1.0, 0.0, 0.0, 1.0, -66.25, -125.05)">
    <path d="M1719.85 1004.15 L76.95 1004.15 76.95 770.65 2111.4 770.65 2111.4 902.1 2223.85 902.1 2223.85 960.1 2300.0 960.1 2300.0 1199.95 2019.95 1199.95 2019.95 1128.8 1719.8 1128.8 1719.85 1004.15" fill="#875c43" fill-rule="evenodd" stroke="none"/>
    <path d="M79.9 140.3 Q83.3 140.3 86.75 142.85 L90.85 146.3 Q96.2 132.95 99.15 129.2 107.1 119.15 114.85 133.4 116.35 144.75 117.8 149.2 120.45 157.15 127.9 166.75 129.55 168.85 130.85 173.9 L133.1 183.2 Q136.55 195.05 144.9 197.2 151.2 198.8 154.1 204.1 155.4 206.5 157.4 214.3 158.15 217.5 158.55 223.7 L158.8 231.55 Q158.8 240.3 149.8 260.3 140.65 280.7 135.95 280.7 132.6 280.7 129.75 278.1 L124.9 272.95 Q125.7 276.25 122.95 282.15 119.4 289.9 111.95 289.9 110.0 289.9 108.1 289.1 L104.2 287.05 Q103.05 290.2 103.5 295.05 L104.3 303.3 Q104.6 313.4 94.3 319.55 91.55 321.2 90.75 326.25 90.3 329.2 90.0 336.0 89.4 341.9 87.2 344.75 84.2 348.55 77.6 348.55 69.45 348.55 67.05 341.55 66.25 339.15 66.25 333.2 66.25 330.65 66.85 326.05 67.55 320.8 68.55 317.25 L68.55 149.75 Q69.55 146.65 72.35 143.85 75.85 140.3 79.9 140.3" fill="#875c43" fill-rule="evenodd" stroke="none"/>
    <path d="M325.75 907.95 L325.7 908.95 325.65 908.8 325.75 907.95" fill="#6d4219" fill-rule="evenodd" stroke="none"/>
  </g>
</svg>
