<?xml version="1.0" encoding="UTF-8" standalone="no"?>
<svg xmlns:ffdec="https://www.free-decompiler.com/flash" xmlns:xlink="http://www.w3.org/1999/xlink" ffdec:objectType="shape" height="63.9px" width="362.35px" xmlns="http://www.w3.org/2000/svg">
  <g transform="matrix(1.0, 0.0, 0.0, 1.0, -1640.45, -926.15)">
    <path d="M1824.45 938.25 Q1825.95 938.25 1827.6 940.2 L1828.85 939.6 Q1832.75 937.95 1834.5 938.7 L1836.6 940.0 1837.15 940.15 1837.35 940.25 1837.9 940.4 Q1841.25 941.6 1842.15 943.45 L1845.45 945.75 Q1849.75 949.1 1857.6 953.65 L1858.85 954.5 Q1860.1 954.25 1862.9 955.2 L1872.5 958.5 1872.95 958.25 1873.15 958.35 1873.25 958.25 1873.95 958.35 1874.05 958.3 1874.15 958.8 Q1874.15 959.4 1873.05 959.85 L1870.4 961.05 1870.3 961.05 Q1867.2 963.05 1862.8 965.1 1855.65 968.4 1852.35 968.4 L1851.65 968.35 1851.6 968.35 1848.95 968.75 1845.9 968.7 1845.6 968.6 Q1845.45 968.5 1845.45 968.05 1845.45 967.5 1846.55 966.8 L1847.5 966.25 Q1845.85 965.7 1844.15 964.95 1840.55 963.35 1839.45 961.95 L1838.45 962.1 Q1837.65 962.1 1836.8 961.55 L1835.4 961.8 Q1832.9 961.8 1830.3 959.1 L1829.85 959.3 1827.15 960.35 Q1825.25 960.35 1824.45 959.2 L1823.55 957.6 Q1823.35 957.75 1822.3 960.3 1821.6 962.1 1819.65 962.1 1817.95 962.1 1816.35 959.8 1814.7 957.45 1812.4 957.45 L1810.95 957.55 1809.3 957.45 1807.7 960.05 Q1806.05 962.4 1804.5 962.4 1802.6 962.4 1801.7 960.75 L1800.6 959.1 Q1799.15 959.1 1798.4 960.45 1797.65 961.8 1795.95 961.8 L1794.1 961.5 1792.5 961.2 1791.2 960.75 1790.1 960.3 1786.65 960.5 1785.1 960.85 1783.55 961.2 Q1781.6 961.2 1780.9 960.6 L1779.15 958.55 1777.65 960.15 Q1776.95 960.95 1776.0 960.95 L1772.1 960.65 Q1767.25 959.9 1765.1 958.05 L1763.2 960.65 Q1761.35 963.0 1759.8 963.0 1758.5 963.0 1757.15 961.55 L1755.8 959.85 Q1754.85 960.65 1753.65 960.65 1752.9 960.65 1751.75 959.8 1750.6 958.95 1749.95 958.95 L1748.75 960.0 Q1747.35 961.05 1744.8 961.05 1742.85 962.1 1742.25 962.1 1740.3 962.1 1737.45 959.2 1734.55 956.3 1732.35 956.3 L1732.2 956.3 1731.95 956.75 Q1731.25 958.05 1729.5 958.05 1728.2 958.05 1727.3 957.25 L1725.95 955.65 1726.1 956.15 1726.2 956.95 Q1726.2 957.9 1725.5 958.8 1724.65 959.85 1723.35 959.85 L1722.4 959.5 Q1721.85 959.1 1721.45 959.1 L1720.35 959.5 1719.25 959.85 Q1717.85 959.85 1714.85 958.15 L1711.35 955.95 Q1711.1 958.95 1708.3 958.95 1704.85 958.95 1697.55 954.35 1696.8 954.9 1695.8 954.9 L1691.65 953.7 1689.4 953.05 1689.3 953.15 Q1688.45 954.3 1686.65 954.3 L1684.8 953.85 1684.25 954.3 Q1682.3 956.05 1680.95 956.1 1679.75 956.1 1678.15 958.1 1676.55 960.05 1674.65 960.05 1673.0 960.05 1672.25 958.7 1671.8 957.9 1671.8 957.15 1671.8 955.4 1673.85 954.15 1667.75 948.9 1662.3 944.85 1651.7 936.9 1646.75 936.9 1646.45 936.9 1645.65 938.15 1644.9 939.35 1643.3 939.35 1641.65 939.35 1640.9 938.0 1640.45 937.2 1640.45 936.45 1640.45 930.9 1645.55 931.1 L1650.9 931.8 1657.35 932.45 Q1660.6 932.45 1664.45 933.75 1662.95 931.75 1662.95 929.7 1662.95 924.75 1666.95 926.7 L1670.8 928.75 Q1673.2 930.0 1674.8 930.0 L1676.3 929.8 1678.95 929.55 Q1678.85 928.7 1679.7 927.9 1680.6 927.0 1681.8 927.0 1683.3 927.0 1686.7 929.35 L1690.1 931.85 Q1690.2 929.75 1691.4 929.0 1692.7 928.2 1696.1 928.2 1697.25 928.2 1700.55 929.85 L1704.0 931.5 1704.95 931.15 Q1705.65 930.75 1706.25 930.75 1707.7 930.75 1713.0 935.75 L1713.0 935.2 Q1713.0 933.15 1713.2 932.55 1713.75 930.75 1716.0 930.75 1717.5 930.75 1720.95 933.8 1723.3 930.8 1724.85 929.95 1728.05 928.15 1730.15 932.45 1731.85 930.75 1733.1 930.75 1734.95 930.75 1735.85 931.85 L1736.85 933.5 1737.35 932.2 Q1738.1 931.05 1739.85 931.05 1741.05 931.05 1742.35 932.55 1743.65 934.05 1744.35 934.05 L1745.65 933.6 1748.55 933.15 1749.5 932.4 Q1750.5 931.65 1751.25 931.65 1752.4 931.65 1753.45 932.65 1754.3 933.5 1754.45 934.25 L1755.4 933.85 1756.5 933.6 Q1757.2 933.6 1758.3 934.45 L1759.3 935.25 Q1759.95 935.25 1761.15 934.45 1762.35 933.6 1763.25 933.6 L1764.4 934.15 1765.8 934.8 1766.65 933.85 Q1767.6 933.0 1768.5 933.0 1769.9 933.0 1771.75 935.25 L1773.3 937.65 Q1773.45 937.15 1774.0 936.55 1774.9 935.6 1776.15 935.6 1777.05 935.6 1778.6 936.75 L1780.25 938.25 1781.1 936.8 Q1782.0 935.6 1783.25 935.6 1784.1 935.6 1785.1 936.25 1786.15 936.9 1786.2 937.65 L1788.2 936.8 Q1790.05 935.9 1790.55 935.9 1790.95 935.9 1791.55 936.25 L1792.5 936.6 1797.4 934.8 Q1799.55 934.8 1800.65 936.5 L1801.8 938.85 Q1801.8 938.3 1802.55 937.3 1803.65 935.9 1805.25 935.9 1806.9 935.9 1808.6 938.05 L1810.05 940.35 1810.2 940.35 1810.1 939.6 Q1810.1 938.3 1810.6 937.25 1811.45 935.6 1813.35 935.6 1815.05 935.6 1816.35 937.2 1817.7 938.75 1818.0 938.75 L1818.9 938.35 1820.1 937.95 Q1820.55 937.95 1822.5 938.9 L1823.5 938.6 1824.45 938.25 M1848.25 966.45 L1847.4 967.15 1849.0 966.65 1848.25 966.45 M1846.5 968.0 L1848.8 967.6 1847.0 967.4 1846.95 967.4 Q1846.5 967.7 1846.5 968.0 M1863.15 958.7 L1863.25 958.7 1863.35 958.7 1863.15 958.7 M1866.45 960.4 L1866.35 960.4 1866.25 960.5 1866.45 960.4 M1868.5 960.15 L1868.5 960.2 1868.6 960.15 1868.5 960.15 M1956.0 987.75 Q1956.0 987.05 1960.2 986.0 L1961.85 985.65 1961.9 985.6 Q1964.0 984.9 1966.05 984.95 L1966.05 984.9 1969.95 984.1 1973.3 983.7 1978.65 983.0 1983.8 983.3 1989.95 984.3 1990.25 984.9 Q1992.1 985.4 1994.85 986.5 L2002.7 989.7 2002.65 989.85 Q2003.1 990.05 2002.35 990.05 1999.95 990.05 1994.75 987.8 L1990.3 985.9 1989.85 985.9 1988.4 985.95 1989.6 986.45 1988.65 986.9 1987.2 987.2 1983.35 987.25 Q1982.55 987.15 1979.85 985.8 L1973.5 985.9 1967.0 986.1 1966.95 986.1 1960.7 987.35 1956.35 987.95 Q1956.0 988.5 1956.0 987.75 M1985.75 985.85 L1982.7 985.55 1985.45 986.4 1987.35 986.4 Q1986.45 986.35 1985.75 985.85" fill="#875c43" fill-rule="evenodd" stroke="none"/>
  </g>
</svg>
