<?xml version="1.0" encoding="UTF-8" standalone="no"?>
<svg xmlns:ffdec="https://www.free-decompiler.com/flash" xmlns:xlink="http://www.w3.org/1999/xlink" ffdec:objectType="shape" height="1258.8px" width="1231.3px" xmlns="http://www.w3.org/2000/svg">
  <g transform="matrix(1.0, 0.0, 0.0, 1.0, 187.45, 132.4)">
    <path d="M290.1 848.4 Q290.6 847.25 291.45 846.9 L291.95 847.75 292.0 848.4 292.75 848.5 292.75 850.05 293.05 850.9 293.5 853.4 Q293.5 855.7 292.75 861.05 L292.75 864.55 Q286.75 892.75 286.15 931.35 L286.2 931.5 Q286.65 932.2 286.65 933.45 L286.65 933.9 286.65 935.05 Q286.65 937.55 286.05 942.3 L285.7 953.5 Q285.05 963.25 283.45 971.7 L283.5 972.25 283.55 976.5 283.1 983.6 282.55 989.6 282.8 989.6 Q282.8 991.55 284.35 1004.15 L284.8 1007.9 Q286.65 1016.95 287.05 1021.5 287.4 1025.1 287.4 1045.4 287.4 1068.8 285.6 1081.75 L278.4 1126.2 277.5 1125.45 277.5 1125.8 277.65 1126.1 Q277.7 1126.4 276.55 1126.4 275.0 1126.4 273.85 1124.4 L277.55 1101.9 Q281.5 1077.75 281.5 1074.55 281.5 1072.55 281.2 1071.5 L281.3 1071.35 281.5 1062.75 281.5 1061.85 282.05 1061.6 282.25 1055.5 282.15 1052.35 Q282.0 1051.25 281.5 1050.4 282.45 1040.65 282.45 1035.15 L282.3 1026.45 281.15 1017.55 Q279.7 1007.0 279.5 1000.0 L279.45 999.75 277.1 986.4 277.15 984.25 277.1 982.75 277.15 980.6 277.1 980.05 277.2 979.05 277.3 977.4 277.4 977.4 278.8 967.4 279.5 961.4 Q280.9 950.35 282.3 942.8 L283.2 933.65 282.8 933.65 Q283.05 931.55 282.8 927.85 L282.45 923.25 Q282.45 911.15 286.35 882.9 L286.85 879.35 287.25 875.5 287.75 859.65 Q287.9 855.75 288.6 853.1 288.65 848.95 289.5 848.3 L290.1 848.4" fill="#6d4219" fill-rule="evenodd" stroke="none"/>
    <path d="M46.35 -37.7 L33.35 -39.95 -5.6 -40.25 -9.9 -41.1 -83.35 -41.4 Q-86.9 -41.3 -90.3 -43.7 -93.3 -45.8 -93.7 -47.7 L-158.8 -48.3 Q-176.9 -47.1 -183.7 -52.65 -187.45 -55.75 -187.45 -60.95 -187.45 -66.65 -182.85 -69.7 -173.05 -76.1 -145.15 -71.85 -135.1 -84.45 -132.9 -87.75 -127.05 -96.5 -124.3 -106.35 -121.65 -115.7 -111.5 -123.15 -98.0 -133.05 -77.6 -132.35 L-41.1 -132.35 Q-36.3 -131.25 -34.5 -130.2 L265.2 -130.05 Q276.6 -127.5 286.75 -126.15 L306.0 -123.3 387.55 -123.05 Q405.5 -114.65 410.2 -105.7 412.1 -102.05 412.55 -97.2 L412.7 -87.95 Q412.7 -78.75 412.15 -75.8 411.55 -72.9 411.55 -64.25 411.55 -59.3 407.55 -56.25 399.5 -50.2 377.75 -52.3 L378.3 -50.15 378.35 -47.15 Q378.35 -42.2 376.7 -39.35 374.05 -34.75 366.95 -33.35 L324.55 -33.35 320.25 -34.2 66.25 -34.5 46.35 -37.7 M959.5 485.6 L958.15 484.75 961.0 484.65 Q961.0 484.95 961.55 485.65 L961.0 486.2 959.5 485.6 M1015.3 467.95 L1014.4 465.3 1015.25 465.15 1013.45 463.65 1013.45 463.1 Q1015.2 463.1 1016.35 463.7 1017.3 464.2 1018.1 465.25 L1018.9 465.7 1025.0 468.9 1025.1 469.2 1025.25 469.45 1026.05 469.9 1026.15 470.35 1026.1 470.45 1027.25 471.65 1027.7 472.2 Q1029.9 474.65 1031.85 478.65 L1035.9 486.85 1037.45 488.85 1037.3 489.45 1037.45 489.7 1036.45 490.1 1036.3 489.75 1036.2 489.8 1036.05 489.6 1036.0 489.85 1035.5 490.25 Q1033.45 488.0 1031.0 482.8 L1027.2 474.5 1027.3 474.4 1025.9 472.85 Q1025.0 471.6 1024.4 470.35 L1024.15 470.25 1024.2 470.3 Q1024.2 470.9 1023.05 472.85 1024.1 474.3 1025.0 477.15 L1026.25 480.95 Q1026.1 480.0 1025.35 478.15 1026.75 477.85 1027.2 479.15 1027.4 479.8 1027.4 481.6 L1027.35 482.65 1027.2 483.05 1027.65 484.7 1027.85 485.2 1027.85 485.7 1027.95 486.15 1028.8 490.35 Q1029.75 494.75 1033.0 496.8 L1037.0 499.1 1036.15 499.4 1037.0 500.25 1036.45 500.95 1033.85 500.3 1036.1 502.55 1036.2 503.05 Q1036.2 503.25 1035.5 503.25 L1033.7 502.9 1032.2 502.1 1032.0 503.05 1031.65 504.05 1030.55 502.95 1030.75 503.25 1031.5 504.0 1030.95 504.65 1029.1 502.55 1028.9 502.7 1028.0 501.25 1027.9 501.1 1027.85 501.05 1027.85 501.85 1028.8 503.25 Q1029.0 503.6 1027.9 503.6 L1027.25 503.15 1026.95 503.1 1026.65 503.0 Q1024.75 503.55 1024.05 504.2 L1023.85 504.45 1026.05 508.55 1025.45 509.15 Q1024.45 508.05 1022.95 505.5 L1022.5 505.9 Q1021.1 505.85 1020.9 505.25 L1020.45 504.2 1018.6 505.0 1017.45 503.7 1017.35 504.65 Q1017.8 505.0 1016.7 505.0 1016.0 505.0 1016.0 504.6 L1016.0 504.0 Q1015.5 504.75 1015.35 505.7 1015.2 506.35 1014.5 506.8 1013.9 506.35 1013.85 505.4 L1013.9 504.0 1013.75 503.1 1012.65 505.9 Q1012.25 505.25 1012.15 504.0 L1011.75 504.2 1011.55 504.2 1010.85 505.0 1010.25 504.75 1010.45 504.2 1009.6 504.2 1009.5 504.15 Q1009.35 504.05 1009.35 503.35 1009.35 501.95 1010.3 501.65 1010.75 501.5 1011.2 501.9 L1012.35 498.1 Q1013.4 494.6 1013.4 491.6 L1013.0 490.0 1012.55 488.35 Q1012.55 487.5 1013.25 486.1 L1013.9 484.05 Q1013.9 483.5 1013.45 483.45 1013.0 483.4 1013.0 482.85 1013.0 482.05 1013.85 481.0 1014.6 480.0 1014.95 480.0 L1015.65 480.05 1014.85 478.85 1016.0 479.3 Q1014.35 478.15 1013.9 476.9 L1014.35 476.7 Q1013.7 476.35 1013.0 476.1 1013.75 473.55 1015.15 473.6 L1012.1 471.6 Q1012.1 470.55 1012.95 470.45 L1013.6 470.85 Q1013.6 470.55 1014.2 470.5 L1015.75 470.1 1015.3 467.95 M1019.25 476.9 L1018.9 476.55 1019.55 477.5 1019.45 476.9 1019.25 476.9 M1043.85 499.55 Q1043.4 500.15 1042.05 500.4 L1041.85 500.25 1041.8 499.55 Q1041.8 498.85 1042.1 498.6 L1042.4 498.4 1043.75 499.25 1043.85 499.55 M1023.45 495.15 L1023.55 495.25 1023.6 494.45 1023.4 495.0 1023.45 495.15 M1025.35 497.95 L1025.3 498.0 1025.4 498.15 1025.35 497.95 M1027.65 508.3 L1029.7 508.55 1029.7 509.25 Q1030.2 509.6 1029.05 509.6 1027.65 509.6 1027.65 508.3" fill="#7a5100" fill-rule="evenodd" stroke="none"/>
  </g>
</svg>
