<?xml version="1.0" encoding="UTF-8" standalone="no"?>
<svg xmlns:ffdec="https://www.free-decompiler.com/flash" xmlns:xlink="http://www.w3.org/1999/xlink" ffdec:objectType="shape" height="649.15px" width="2080.25px" xmlns="http://www.w3.org/2000/svg">
  <g transform="matrix(1.0, 0.0, 0.0, 1.0, -71.0, -45.25)">
    <path d="M289.05 536.9 L269.2 536.9 269.2 46.95 1118.95 46.95 1118.95 45.25 1968.85 45.25 1968.85 535.2 1928.6 535.2 1920.0 531.3 300.0 531.3 289.05 536.9" fill="#896835" fill-rule="evenodd" stroke="none"/>
    <path d="M1928.6 535.2 L2151.25 636.45 2151.25 692.55 1111.4 692.55 1111.4 694.4 90.0 694.4 90.0 686.95 71.0 686.95 71.0 630.8 90.0 630.8 90.0 638.3 289.05 536.9 300.0 531.3 1920.0 531.3 1928.6 535.2" fill="#797160" fill-rule="evenodd" stroke="none"/>
  </g>
</svg>
