<?xml version="1.0" encoding="UTF-8" standalone="no"?>
<svg xmlns:ffdec="https://www.free-decompiler.com/flash" xmlns:xlink="http://www.w3.org/1999/xlink" ffdec:objectType="shape" height="1345.0px" width="3165.0px" xmlns="http://www.w3.org/2000/svg">
  <g transform="matrix(1.0, 0.0, 0.0, 1.0, -17.5, 702.5)">
    <path d="M20.0 -240.0 L20.0 0.0 20.0 160.0 20.0 640.0 M20.0 -240.0 L20.0 -700.0 M3180.0 -40.0 L3180.0 -320.0 3180.0 -660.0 M3180.0 640.0 L3180.0 160.0 3180.0 -40.0" fill="none" stroke="#ffff00" stroke-linecap="round" stroke-linejoin="round" stroke-width="5.0"/>
    <path d="M260.0 -700.0 L260.0 -240.0 20.0 -240.0 M20.0 0.0 L500.0 0.0 1240.0 -20.0 M1540.0 -20.0 L1840.0 -20.0 M3180.0 -320.0 L2960.0 -320.0 2960.0 -680.0 M3180.0 -40.0 L1960.0 -20.0" fill="none" stroke="#00ffff" stroke-linecap="round" stroke-linejoin="round" stroke-width="5.0"/>
    <path d="M3180.0 160.0 L20.0 160.0" fill="none" stroke="#00ff00" stroke-linecap="round" stroke-linejoin="round" stroke-width="5.0"/>
  </g>
</svg>
