<?xml version="1.0" encoding="UTF-8" standalone="no"?>
<svg xmlns:ffdec="https://www.free-decompiler.com/flash" xmlns:xlink="http://www.w3.org/1999/xlink" ffdec:objectType="shape" height="1361.4px" width="2919.5px" xmlns="http://www.w3.org/2000/svg">
  <g transform="matrix(1.0, 0.0, 0.0, 1.0, -71.0, -144.45)">
    <path d="M2389.3 941.1 L2970.65 941.1 2970.65 1430.75 2406.15 1430.75 2379.8 1430.75 2379.8 1432.2 2372.8 1428.9 Q2375.4 1420.8 2379.65 1412.65 L2387.25 1397.65 Q2390.75 1389.7 2390.75 1383.0 2390.75 1375.95 2388.75 1366.9 2386.75 1357.9 2386.75 1356.75 2386.75 1353.45 2387.95 1351.85 2390.7 1348.3 2399.5 1347.5 L2434.5 1347.0 2451.15 1345.25 2475.5 1343.0 Q2479.2 1337.85 2479.25 1329.2 2478.7 1319.3 2479.0 1314.5 L2444.7 1316.6 2419.75 1317.5 Q2415.45 1316.8 2403.0 1318.8 L2391.0 1321.0 Q2387.15 1321.0 2379.15 1314.5 2369.45 1306.6 2366.75 1297.0 2365.9 1293.95 2364.65 1284.55 2363.65 1276.6 2361.75 1272.25 2360.45 1269.3 2354.95 1266.75 2352.25 1265.5 2343.7 1262.65 2336.2 1260.1 2333.0 1258.25 2328.1 1255.5 2327.75 1252.0 2327.15 1246.65 2321.05 1243.85 2317.0 1242.05 2308.1 1240.75 2298.1 1239.25 2295.45 1238.4 2289.75 1236.6 2289.75 1232.75 2289.75 1229.55 2294.95 1211.05 2299.65 1194.3 2301.0 1190.75 2301.6 1189.25 2301.95 1185.1 2302.25 1181.15 2303.15 1179.1 2306.25 1172.25 2320.75 1171.25 2334.2 1170.25 2339.95 1167.8 2343.65 1166.25 2345.3 1163.15 2346.95 1159.95 2349.05 1159.0 2352.9 1157.25 2363.5 1157.25 2375.15 1157.25 2383.1 1161.0 L2388.45 1163.6 Q2391.35 1164.75 2394.35 1164.75 2400.45 1164.75 2407.85 1162.9 2415.2 1161.0 2433.5 1161.0 L2453.5 1160.5 2456.45 1160.25 Q2457.5 1160.05 2457.5 1158.5 2457.5 1149.4 2437.65 1144.5 L2423.05 1141.4 Q2415.8 1139.9 2414.5 1138.5 2410.5 1134.25 2409.05 1129.85 L2407.7 1123.85 Q2407.05 1121.3 2404.65 1120.35 2401.75 1119.25 2394.0 1119.25 2381.3 1119.25 2379.55 1111.0 2378.95 1108.4 2379.55 1105.1 L2380.25 1102.0 2378.25 1084.0 Q2376.25 1064.4 2376.25 1055.5 2376.25 1047.65 2379.75 1013.5 L2383.25 979.0 Q2382.4 961.45 2389.2 941.35 L2389.3 941.1" fill="#874723" fill-rule="evenodd" stroke="none"/>
    <path d="M1516.95 556.4 L1600.45 597.3 1600.45 597.25 1608.15 601.05 1884.75 736.45 1883.35 751.2 Q1880.1 786.3 1880.1 796.6 1880.1 798.15 1880.5 799.15 L1881.1 800.35 1881.1 843.85 Q1883.15 848.5 1883.3 856.3 1883.45 865.9 1883.85 867.85 L1881.35 868.6 Q1865.05 869.7 1863.55 873.45 1863.1 874.55 1863.75 876.95 1864.45 879.4 1864.1 880.6 L1862.2 887.25 Q1861.35 891.05 1861.35 894.5 1861.35 904.0 1870.2 908.9 1876.55 912.45 1889.6 914.25 L1909.0 916.85 Q1917.85 918.7 1917.85 923.1 1917.85 925.25 1916.2 930.0 1915.25 934.3 1918.1 936.8 1926.4 944.0 1974.0 944.0 1993.4 944.0 2001.9 942.5 2004.0 944.4 2005.65 946.65 2010.5 953.4 2010.5 965.1 2010.5 968.8 2005.75 973.75 1999.25 980.5 1988.75 980.5 L1976.55 980.1 Q1966.3 979.9 1964.75 981.0 1963.15 982.15 1962.65 983.8 L1962.0 986.3 Q1960.8 988.85 1951.5 989.25 L1940.2 989.9 Q1931.35 991.1 1926.5 994.75 1923.75 996.85 1922.0 999.55 1920.25 1002.2 1920.0 1004.5 1918.95 1012.55 1918.3 1027.05 1917.85 1037.35 1917.85 1042.0 1917.85 1043.75 1918.55 1047.55 1919.2 1050.95 1920.0 1054.0 1920.7 1056.65 1924.95 1057.5 L1936.25 1058.3 Q1959.0 1058.95 1975.75 1063.5 1983.7 1065.65 1987.3 1068.2 1986.85 1073.35 1986.85 1076.0 1986.85 1076.8 1987.4 1081.05 1987.85 1084.8 1987.6 1086.5 L1986.4 1092.2 Q1985.6 1095.65 1985.6 1097.0 L1986.6 1102.65 Q1988.55 1108.0 1993.5 1108.0 L1999.15 1107.0 2004.75 1106.0 Q2010.45 1106.0 2013.95 1110.15 2015.75 1112.25 2016.85 1112.95 2018.85 1114.25 2022.0 1114.25 L2039.6 1114.15 2041.1 1119.0 Q2044.0 1127.8 2044.0 1131.5 2044.0 1133.6 2032.0 1136.9 2019.3 1140.45 2006.75 1141.25 2000.95 1141.6 1999.65 1143.8 1999.05 1144.75 1999.35 1148.3 1999.6 1151.3 1997.75 1152.6 1995.05 1154.5 1986.75 1154.5 L1982.1 1154.3 Q1981.45 1154.25 1981.4 1154.65 1981.05 1157.2 1974.75 1162.25 1965.2 1157.45 1939.25 1155.5 L1914.85 1154.5 Q1901.25 1154.5 1897.65 1168.25 1896.45 1172.7 1896.4 1178.5 L1896.6 1184.75 1898.45 1205.2 1550.9 1041.3 1403.5 971.75 1404.15 971.75 1404.65 966.9 Q1405.85 955.1 1405.25 949.25 1403.55 933.65 1416.0 927.1 1416.95 926.6 1417.95 926.2 1425.7 928.15 1439.0 927.25 1439.4 927.65 1443.15 928.3 L1448.75 929.0 Q1478.2 929.0 1482.5 922.75 L1483.65 920.45 Q1484.3 919.1 1485.05 918.45 1487.35 916.5 1494.75 916.5 L1511.1 918.9 Q1525.4 921.25 1530.25 921.25 1548.5 921.25 1555.0 918.75 1559.25 917.1 1559.25 913.5 1559.25 908.2 1559.75 895.95 L1560.25 883.5 Q1560.25 880.45 1558.4 878.8 1556.05 876.7 1549.65 875.3 1541.8 873.6 1522.75 872.2 L1523.05 870.3 Q1524.35 862.0 1524.35 860.1 1524.35 856.9 1522.25 850.45 1520.1 843.95 1520.1 835.6 L1507.5 830.5 Q1501.9 828.1 1498.0 828.1 L1489.15 829.35 1480.25 830.6 Q1471.25 830.6 1468.75 822.65 1467.95 820.1 1467.9 817.05 L1468.0 814.35 Q1468.0 801.05 1471.5 792.6 L1470.45 787.5 Q1469.6 784.1 1470.25 782.05 1472.35 775.75 1490.5 773.85 1503.75 772.55 1509.9 765.45 1513.6 761.2 1515.0 753.6 1515.75 749.45 1521.05 743.3 1525.85 737.6 1525.85 733.6 L1525.0 727.6 Q1524.1 722.85 1524.1 721.6 1524.1 718.2 1519.4 716.6 1517.5 715.95 1509.2 714.55 1502.2 713.4 1499.15 711.6 1494.65 709.0 1495.0 703.85 1495.35 698.5 1492.7 696.15 1490.85 694.55 1486.55 693.85 1481.45 693.0 1480.2 692.4 1477.25 691.0 1477.25 687.35 L1478.25 644.6 Q1478.25 630.45 1479.0 622.5 1480.2 609.25 1483.95 598.5 1492.65 573.45 1516.95 556.4" fill="#905b27" fill-rule="evenodd" stroke="none"/>
    <path d="M1065.0 335.2 L1516.95 556.4 Q1492.65 573.45 1483.95 598.5 1480.2 609.25 1479.0 622.5 1478.25 630.45 1478.25 644.6 L1477.25 687.35 Q1477.25 691.0 1480.2 692.4 1481.45 693.0 1486.55 693.85 1490.85 694.55 1492.7 696.15 1495.35 698.5 1495.0 703.85 1494.65 709.0 1499.15 711.6 1502.2 713.4 1509.2 714.55 1517.5 715.95 1519.4 716.6 1524.1 718.2 1524.1 721.6 1524.1 722.85 1525.0 727.6 L1525.85 733.6 Q1525.85 737.6 1521.05 743.3 1515.75 749.45 1515.0 753.6 1513.6 761.2 1509.9 765.45 1503.75 772.55 1490.5 773.85 1472.35 775.75 1470.25 782.05 1469.6 784.1 1470.45 787.5 L1471.5 792.6 Q1468.0 801.05 1468.0 814.35 L1467.9 817.05 Q1467.95 820.1 1468.75 822.65 1471.25 830.6 1480.25 830.6 L1489.15 829.35 1498.0 828.1 Q1501.9 828.1 1507.5 830.5 L1520.1 835.6 Q1520.1 843.95 1522.25 850.45 1524.35 856.9 1524.35 860.1 1524.35 862.0 1523.05 870.3 L1522.75 872.2 Q1541.8 873.6 1549.65 875.3 1556.05 876.7 1558.4 878.8 1560.25 880.45 1560.25 883.5 L1559.75 895.95 Q1559.25 908.2 1559.25 913.5 1559.25 917.1 1555.0 918.75 1548.5 921.25 1530.25 921.25 1525.4 921.25 1511.1 918.9 L1494.75 916.5 Q1487.35 916.5 1485.05 918.45 1484.3 919.1 1483.65 920.45 L1482.5 922.75 Q1478.2 929.0 1448.75 929.0 L1443.15 928.3 Q1439.4 927.65 1439.0 927.25 1425.7 928.15 1417.95 926.2 1416.95 926.6 1416.0 927.1 1403.55 933.65 1405.25 949.25 1405.85 955.1 1404.65 966.9 L1404.15 971.75 1403.5 971.75 1134.1 844.7 1012.2 787.25 1012.65 783.85 Q1016.15 758.9 1017.75 752.35 1018.2 742.0 1024.45 738.1 1028.3 735.7 1037.55 734.95 1046.8 734.25 1049.7 732.45 1054.75 729.3 1053.5 720.1 L1053.75 702.3 1054.0 686.35 1054.2 684.9 Q1054.9 683.3 1057.25 682.85 L1065.9 681.65 1071.75 680.85 Q1080.6 680.85 1093.25 685.35 1105.9 689.85 1112.25 689.85 1129.75 689.85 1134.0 685.1 1135.35 683.5 1135.35 681.35 L1135.0 678.75 1130.4 665.35 Q1125.75 652.15 1125.75 646.85 L1115.75 645.15 Q1107.7 643.6 1099.75 643.6 1098.0 643.6 1092.65 646.25 1087.35 648.85 1085.25 648.85 1082.95 648.85 1080.4 637.9 1077.3 624.45 1076.5 622.85 L1056.95 622.05 1050.0 621.6 Q1048.75 621.6 1044.4 622.85 L1038.75 624.1 Q1025.9 624.1 1019.5 618.6 1015.25 614.95 1015.25 611.25 1015.25 602.65 1015.6 599.5 1016.4 592.2 1019.25 590.1 L1035.05 588.55 1048.85 587.35 Q1050.7 587.35 1052.0 583.7 1053.0 580.95 1053.0 579.75 1053.0 573.85 1051.0 560.9 1049.0 548.0 1049.0 542.5 1049.0 540.85 1049.45 540.2 1050.4 538.95 1053.8 538.3 1062.7 536.5 1092.0 538.0 1090.6 534.5 1090.8 527.95 1090.95 521.1 1090.05 518.3 1086.6 507.7 1060.25 503.75 1043.55 501.25 1042.35 496.3 1042.05 495.0 1042.75 491.5 1043.45 488.1 1042.75 486.0 L1039.05 476.7 Q1036.55 470.45 1036.5 466.5 L1036.55 466.25 1034.75 466.0 Q1030.4 466.0 1026.75 467.75 1023.05 469.5 1021.75 469.5 1017.45 469.5 1014.8 456.65 L1013.0 443.5 Q1015.25 435.35 1015.25 433.0 1015.25 431.75 1014.25 426.65 1013.25 421.5 1013.25 420.25 1013.25 413.3 1017.55 402.65 1023.5 388.05 1024.5 384.25 1026.95 374.95 1031.3 367.9 1036.95 358.75 1048.0 349.0 1058.15 340.15 1065.0 335.2" fill="#8d622d" fill-rule="evenodd" stroke="none"/>
    <path d="M1884.75 736.45 L2380.0 978.85 2380.0 941.1 2389.3 941.1 2389.2 941.35 Q2382.4 961.45 2383.25 979.0 L2379.75 1013.5 Q2376.25 1047.65 2376.25 1055.5 2376.25 1064.4 2378.25 1084.0 L2380.25 1102.0 2379.55 1105.1 Q2378.95 1108.4 2379.55 1111.0 2381.3 1119.25 2394.0 1119.25 2401.75 1119.25 2404.65 1120.35 2407.05 1121.3 2407.7 1123.85 L2409.05 1129.85 Q2410.5 1134.25 2414.5 1138.5 2415.8 1139.9 2423.05 1141.4 L2437.65 1144.5 Q2457.5 1149.4 2457.5 1158.5 2457.5 1160.05 2456.45 1160.25 L2453.5 1160.5 2433.5 1161.0 Q2415.2 1161.0 2407.85 1162.9 2400.45 1164.75 2394.35 1164.75 2391.35 1164.75 2388.45 1163.6 L2383.1 1161.0 Q2375.15 1157.25 2363.5 1157.25 2352.9 1157.25 2349.05 1159.0 2346.95 1159.95 2345.3 1163.15 2343.65 1166.25 2339.95 1167.8 2334.2 1170.25 2320.75 1171.25 2306.25 1172.25 2303.15 1179.1 2302.25 1181.15 2301.95 1185.1 2301.6 1189.25 2301.0 1190.75 2299.65 1194.3 2294.95 1211.05 2289.75 1229.55 2289.75 1232.75 2289.75 1236.6 2295.45 1238.4 2298.1 1239.25 2308.1 1240.75 2317.0 1242.05 2321.05 1243.85 2327.15 1246.65 2327.75 1252.0 2328.1 1255.5 2333.0 1258.25 2336.2 1260.1 2343.7 1262.65 2352.25 1265.5 2354.95 1266.75 2360.45 1269.3 2361.75 1272.25 2363.65 1276.6 2364.65 1284.55 2365.9 1293.95 2366.75 1297.0 2369.45 1306.6 2379.15 1314.5 2387.15 1321.0 2391.0 1321.0 L2403.0 1318.8 Q2415.45 1316.8 2419.75 1317.5 L2444.7 1316.6 2479.0 1314.5 Q2478.7 1319.3 2479.25 1329.2 2479.2 1337.85 2475.5 1343.0 L2451.15 1345.25 2434.5 1347.0 2399.5 1347.5 Q2390.7 1348.3 2387.95 1351.85 2386.75 1353.45 2386.75 1356.75 2386.75 1357.9 2388.75 1366.9 2390.75 1375.95 2390.75 1383.0 2390.75 1389.7 2387.25 1397.65 L2379.65 1412.65 Q2375.4 1420.8 2372.8 1428.9 L1988.55 1247.7 1988.4 1247.6 1977.4 1242.4 1898.45 1205.2 1896.6 1184.75 1896.4 1178.5 Q1896.45 1172.7 1897.65 1168.25 1901.25 1154.5 1914.85 1154.5 L1939.25 1155.5 Q1965.2 1157.45 1974.75 1162.25 1981.05 1157.2 1981.4 1154.65 1981.45 1154.25 1982.1 1154.3 L1986.75 1154.5 Q1995.05 1154.5 1997.75 1152.6 1999.6 1151.3 1999.35 1148.3 1999.05 1144.75 1999.65 1143.8 2000.95 1141.6 2006.75 1141.25 2019.3 1140.45 2032.0 1136.9 2044.0 1133.6 2044.0 1131.5 2044.0 1127.8 2041.1 1119.0 L2039.6 1114.15 2022.0 1114.25 Q2018.85 1114.25 2016.85 1112.95 2015.75 1112.25 2013.95 1110.15 2010.45 1106.0 2004.75 1106.0 L1999.15 1107.0 1993.5 1108.0 Q1988.55 1108.0 1986.6 1102.65 L1985.6 1097.0 Q1985.6 1095.65 1986.4 1092.2 L1987.6 1086.5 Q1987.85 1084.8 1987.4 1081.05 1986.85 1076.8 1986.85 1076.0 1986.85 1073.35 1987.3 1068.2 1983.7 1065.65 1975.75 1063.5 1959.0 1058.95 1936.25 1058.3 L1924.95 1057.5 Q1920.7 1056.65 1920.0 1054.0 1919.2 1050.95 1918.55 1047.55 1917.85 1043.75 1917.85 1042.0 1917.85 1037.35 1918.3 1027.05 1918.95 1012.55 1920.0 1004.5 1920.25 1002.2 1922.0 999.55 1923.75 996.85 1926.5 994.75 1931.35 991.1 1940.2 989.9 L1951.5 989.25 Q1960.8 988.85 1962.0 986.3 L1962.65 983.8 Q1963.15 982.15 1964.75 981.0 1966.3 979.9 1976.55 980.1 L1988.75 980.5 Q1999.25 980.5 2005.75 973.75 2010.5 968.8 2010.5 965.1 2010.5 953.4 2005.65 946.65 2004.0 944.4 2001.9 942.5 1993.4 944.0 1974.0 944.0 1926.4 944.0 1918.1 936.8 1915.25 934.3 1916.2 930.0 1917.85 925.25 1917.85 923.1 1917.85 918.7 1909.0 916.85 L1889.6 914.25 Q1876.55 912.45 1870.2 908.9 1861.35 904.0 1861.35 894.5 1861.35 891.05 1862.2 887.25 L1864.1 880.6 Q1864.45 879.4 1863.75 876.95 1863.1 874.55 1863.55 873.45 1865.05 869.7 1881.35 868.6 L1883.85 867.85 Q1883.45 865.9 1883.3 856.3 1883.15 848.5 1881.1 843.85 L1881.1 800.35 1880.5 799.15 Q1880.1 798.15 1880.1 796.6 1880.1 786.3 1883.35 751.2 L1884.75 736.45" fill="#8c522b" fill-rule="evenodd" stroke="none"/>
    <path d="M752.95 182.45 L1065.0 335.2 Q1058.15 340.15 1048.0 349.0 1036.95 358.75 1031.3 367.9 1026.95 374.95 1024.5 384.25 1023.5 388.05 1017.55 402.65 1013.25 413.3 1013.25 420.25 1013.25 421.5 1014.25 426.65 1015.25 431.75 1015.25 433.0 1015.25 435.35 1013.0 443.5 L1014.8 456.65 Q1017.45 469.5 1021.75 469.5 1023.05 469.5 1026.75 467.75 1030.4 466.0 1034.75 466.0 L1036.55 466.25 1036.5 466.5 Q1036.55 470.45 1039.05 476.7 L1042.75 486.0 Q1043.45 488.1 1042.75 491.5 1042.05 495.0 1042.35 496.3 1043.55 501.25 1060.25 503.75 1086.6 507.7 1090.05 518.3 1090.95 521.1 1090.8 527.95 1090.6 534.5 1092.0 538.0 1062.7 536.5 1053.8 538.3 1050.4 538.95 1049.45 540.2 1049.0 540.85 1049.0 542.5 1049.0 548.0 1051.0 560.9 1053.0 573.85 1053.0 579.75 1053.0 580.95 1052.0 583.7 1050.7 587.35 1048.85 587.35 L1035.05 588.55 1019.25 590.1 Q1016.4 592.2 1015.6 599.5 1015.25 602.65 1015.25 611.25 1015.25 614.95 1019.5 618.6 1025.9 624.1 1038.75 624.1 L1044.4 622.85 Q1048.75 621.6 1050.0 621.6 L1056.95 622.05 1076.5 622.85 Q1077.3 624.45 1080.4 637.9 1082.95 648.85 1085.25 648.85 1087.35 648.85 1092.65 646.25 1098.0 643.6 1099.75 643.6 1107.7 643.6 1115.75 645.15 L1125.75 646.85 Q1125.75 652.15 1130.4 665.35 L1135.0 678.75 1135.35 681.35 Q1135.35 683.5 1134.0 685.1 1129.75 689.85 1112.25 689.85 1105.9 689.85 1093.25 685.35 1080.6 680.85 1071.75 680.85 L1065.9 681.65 1057.25 682.85 Q1054.9 683.3 1054.2 684.9 L1054.0 686.35 1053.75 702.3 1053.5 720.1 Q1054.75 729.3 1049.7 732.45 1046.8 734.25 1037.55 734.95 1028.3 735.7 1024.45 738.1 1018.2 742.0 1017.75 752.35 1016.15 758.9 1012.65 783.85 L1012.2 787.25 705.8 642.75 700.0 640.0 697.7 640.5 698.6 617.0 Q698.6 612.4 708.7 606.65 714.25 603.55 724.6 598.1 L726.15 587.5 Q727.3 580.5 728.6 577.0 725.65 576.35 723.5 574.85 L719.65 572.15 Q713.45 568.8 694.1 568.5 691.5 567.35 690.85 565.4 690.6 564.6 690.6 562.0 690.6 545.3 693.85 536.7 698.4 524.65 710.85 520.25 717.25 518.0 718.05 512.0 717.85 504.55 718.4 500.75 719.3 493.9 725.75 490.25 734.25 485.5 754.1 484.5 L791.35 484.25 Q800.05 485.55 804.2 478.85 806.85 474.6 806.85 470.0 806.85 466.85 802.4 465.45 L792.65 463.65 Q785.9 462.5 782.7 460.55 778.1 457.75 777.85 452.25 777.75 449.15 776.75 442.15 775.85 435.7 775.85 432.25 745.4 431.8 731.8 423.95 722.1 418.35 722.1 409.85 722.1 405.0 725.5 401.6 732.0 395.1 748.85 396.5 747.6 390.55 745.3 374.7 743.1 359.2 743.1 356.75 743.1 350.45 739.05 347.15 736.2 344.9 730.1 343.5 L721.15 341.15 Q717.1 339.35 717.1 335.5 717.1 334.25 718.1 332.15 719.1 330.0 719.1 328.75 719.1 326.65 714.6 325.0 708.45 322.75 696.1 322.75 695.55 322.75 691.45 324.5 687.35 326.25 686.1 326.25 682.6 326.25 682.9 319.6 L683.85 312.6 Q683.85 309.2 681.85 303.3 679.85 297.4 679.85 293.5 679.8 285.4 677.3 280.4 674.85 276.85 674.85 275.85 674.85 273.95 679.05 262.5 683.8 249.7 684.6 246.25 685.15 243.9 685.5 239.75 685.9 234.65 686.2 232.8 687.5 224.2 693.1 217.75 697.85 212.3 709.7 205.25 717.2 200.85 739.1 188.5 744.8 185.2 752.95 182.45" fill="#866532" fill-rule="evenodd" stroke="none"/>
    <path d="M91.55 626.8 L91.55 144.45 679.9 144.45 679.95 150.6 680.0 146.75 752.95 182.45 Q744.8 185.2 739.1 188.5 717.2 200.85 709.7 205.25 697.85 212.3 693.1 217.75 687.5 224.2 686.2 232.8 685.9 234.65 685.5 239.75 685.15 243.9 684.6 246.25 683.8 249.7 679.05 262.5 674.85 273.95 674.85 275.85 674.85 276.85 677.3 280.4 679.8 285.4 679.85 293.5 679.85 297.4 681.85 303.3 683.85 309.2 683.85 312.6 L682.9 319.6 Q682.6 326.25 686.1 326.25 687.35 326.25 691.45 324.5 695.55 322.75 696.1 322.75 708.45 322.75 714.6 325.0 719.1 326.65 719.1 328.75 719.1 330.0 718.1 332.15 717.1 334.25 717.1 335.5 717.1 339.35 721.15 341.15 L730.1 343.5 Q736.2 344.9 739.05 347.15 743.1 350.45 743.1 356.75 743.1 359.2 745.3 374.7 747.6 390.55 748.85 396.5 732.0 395.1 725.5 401.6 722.1 405.0 722.1 409.85 722.1 418.35 731.8 423.95 745.4 431.8 775.85 432.25 775.85 435.7 776.75 442.15 777.75 449.15 777.85 452.25 778.1 457.75 782.7 460.55 785.9 462.5 792.65 463.65 L802.4 465.45 Q806.85 466.85 806.85 470.0 806.85 474.6 804.2 478.85 800.05 485.55 791.35 484.25 L754.1 484.5 Q734.25 485.5 725.75 490.25 719.3 493.9 718.4 500.75 717.85 504.55 718.05 512.0 717.25 518.0 710.85 520.25 698.4 524.65 693.85 536.7 690.6 545.3 690.6 562.0 690.6 564.6 690.85 565.4 691.5 567.35 694.1 568.5 713.45 568.8 719.65 572.15 L723.5 574.85 Q725.65 576.35 728.6 577.0 727.3 580.5 726.15 587.5 L724.6 598.1 Q714.25 603.55 708.7 606.65 698.6 612.4 698.6 617.0 L697.7 640.5 690.75 642.0 680.0 636.7 680.0 634.4 96.2 634.4 96.2 626.85 91.55 626.8" fill="#896835" fill-rule="evenodd" stroke="none"/>
    <path d="M2970.65 1430.75 L2990.5 1430.75 2990.5 1490.75 2395.65 1490.75 2397.95 1477.6 2398.5 1474.25 2400.05 1465.35 2402.3 1452.85 2406.0 1431.5 2406.1 1431.05 2406.15 1430.75 2970.65 1430.75" fill="#674736" fill-rule="evenodd" stroke="none"/>
    <path d="M1531.8 1104.05 L1125.5 914.2 1125.1 912.8 1124.5 910.75 Q1124.5 908.8 1127.4 888.6 1130.2 869.15 1131.75 860.1 L1131.95 857.95 Q1132.6 850.45 1133.35 844.4 L1134.1 844.7 1403.5 971.75 1550.9 1041.3 1544.7 1059.95 1542.85 1065.5 Q1538.35 1079.35 1532.0 1100.4 L1531.0 1103.65 1531.8 1104.05" fill="#786d5b" fill-rule="evenodd" stroke="none"/>
    <path d="M1962.35 1305.2 L1531.8 1104.05 1531.0 1103.65 1532.0 1100.4 Q1538.35 1079.35 1542.85 1065.5 L1544.7 1059.95 1550.9 1041.3 1898.45 1205.2 1977.4 1242.4 1973.75 1255.25 1970.4 1268.3 1968.5 1276.75 1963.6 1299.35 1962.35 1305.2" fill="#7f6552" fill-rule="evenodd" stroke="none"/>
    <path d="M2395.65 1490.75 L2391.9 1490.75 2391.9 1505.85 1962.35 1305.2 1963.6 1299.35 1968.5 1276.75 1970.4 1268.3 1973.75 1255.25 1977.4 1242.4 1988.4 1247.6 1988.55 1247.7 2372.8 1428.9 2379.8 1432.2 2379.8 1430.75 2406.15 1430.75 2406.1 1431.05 2406.0 1431.5 2402.3 1452.85 2400.05 1465.35 2398.5 1474.25 2397.95 1477.6 2395.65 1490.75" fill="#7f5840" fill-rule="evenodd" stroke="none"/>
    <path d="M674.15 704.2 L96.2 694.85 96.2 686.85 71.0 686.4 71.0 626.4 91.55 626.8 96.2 626.85 96.2 634.4 96.2 634.85 679.85 644.3 690.75 642.0 697.7 640.5 700.0 640.0 705.8 642.75 702.75 647.85 700.55 651.75 Q690.9 669.0 677.35 696.6 L674.15 704.2" fill="#797160" fill-rule="evenodd" stroke="none"/>
    <path d="M1125.5 914.2 L1071.9 888.7 1054.25 880.5 936.45 825.85 759.4 743.7 679.85 705.95 679.85 704.3 674.15 704.2 677.35 696.6 Q690.9 669.0 700.55 651.75 L702.75 647.85 705.8 642.75 1012.2 787.25 1134.1 844.7 1133.35 844.4 Q1132.6 850.45 1131.95 857.95 L1131.75 860.1 Q1130.2 869.15 1127.4 888.6 1124.5 908.8 1124.5 910.75 L1125.1 912.8 1125.5 914.2" fill="#766e5d" fill-rule="evenodd" stroke="none"/>
  </g>
</svg>
