<?xml version="1.0" encoding="UTF-8" standalone="no"?>
<svg xmlns:ffdec="https://www.free-decompiler.com/flash" xmlns:xlink="http://www.w3.org/1999/xlink" ffdec:objectType="shape" height="1272.8px" width="2194.7px" xmlns="http://www.w3.org/2000/svg">
  <g transform="matrix(1.0, 0.0, 0.0, 1.0, -85.2, 1180.0)">
    <path d="M2253.65 -1177.95 Q2266.8 -1178.25 2274.15 -1176.15 2273.0 -1145.4 2272.6 -1087.5 L2272.4 -1028.3 2273.0 -897.7 2273.0 -142.55 Q2278.3 -119.9 2279.55 -85.2 2279.9 -73.1 2279.9 -25.4 2279.9 -3.6 2274.7 34.1 2268.6 78.4 2260.85 92.8 L473.1 92.8 Q219.4 92.35 216.45 90.45 L156.9 88.5 Q129.95 83.85 116.1 70.45 105.05 59.75 100.7 41.05 99.15 34.25 97.95 24.2 L96.05 7.05 Q93.5 -13.45 87.5 -24.4 L87.5 -170.35 Q85.2 -184.65 85.2 -214.85 85.2 -235.45 88.45 -276.55 89.75 -292.6 95.6 -358.4 106.05 -474.7 106.05 -526.35 106.05 -570.4 102.4 -625.35 100.25 -658.5 94.45 -724.45 L94.45 -888.15 Q92.1 -908.2 92.1 -954.15 92.1 -972.95 94.1 -986.2 94.9 -992.05 98.25 -1006.75 101.05 -1019.2 102.25 -1031.1 103.95 -1048.45 103.7 -1074.7 103.7 -1095.1 105.55 -1105.35 108.6 -1123.05 118.15 -1133.15 131.0 -1146.3 133.9 -1160.8 L135.8 -1170.35 Q137.15 -1175.0 140.75 -1178.1 L279.15 -1178.1 350.85 -1180.0 1729.1 -1179.1 2221.55 -1177.15 Q2235.4 -1177.15 2253.65 -1177.95" fill="#2c2b18" fill-rule="evenodd" stroke="none"/>
  </g>
</svg>
