<?xml version="1.0" encoding="UTF-8" standalone="no"?>
<svg xmlns:ffdec="https://www.free-decompiler.com/flash" xmlns:xlink="http://www.w3.org/1999/xlink" ffdec:objectType="shape" height="831.2px" width="2477.15px" xmlns="http://www.w3.org/2000/svg">
  <g transform="matrix(1.0, 0.0, 0.0, 1.0, 332.15, 738.4)">
    <path d="M2138.5 -735.9 Q2137.2 -715.8 2136.75 -678.0 L2136.5 -639.35 2137.15 -554.05 2137.15 -60.9 Q2143.1 -46.1 2144.55 -23.45 2145.0 -15.55 2145.0 15.6 2145.0 29.85 2139.1 54.45 L2137.9 59.25 2046.05 59.25 2046.05 41.25 1020.0 41.25 1020.0 59.25 274.0 59.25 274.05 92.8 105.7 92.8 Q-180.75 92.5 -184.0 91.25 L-251.2 90.0 Q-281.65 86.95 -297.25 78.2 -309.75 71.2 -314.65 59.0 -316.45 54.55 -317.75 48.0 L-319.9 36.8 Q-322.75 23.4 -329.55 16.25 L-329.55 -79.05 Q-332.15 -88.4 -332.15 -108.1 -332.15 -121.55 -328.5 -148.4 L-320.4 -201.85 Q-308.65 -277.8 -308.65 -311.55 -308.65 -340.3 -312.75 -376.2 -315.2 -397.85 -321.7 -440.9 L-321.7 -547.8 Q-324.3 -560.9 -324.3 -590.9 -324.3 -603.2 -322.15 -611.85 -321.2 -615.65 -317.45 -625.25 -314.25 -633.4 -312.9 -641.15 -310.95 -652.5 -311.25 -669.65 -311.25 -682.95 -309.25 -689.65 -305.75 -701.2 -295.0 -707.8 -280.45 -716.4 -277.2 -725.85 L-275.1 -732.1 Q-273.5 -735.15 -269.5 -737.15 L-113.2 -737.15 -32.3 -738.4 1523.3 -737.8 2079.05 -736.55 Q2094.7 -736.55 2115.35 -737.05 L2138.5 -735.9" fill="#2c2b18" fill-rule="evenodd" stroke="none"/>
  </g>
</svg>
