<?xml version="1.0" encoding="UTF-8" standalone="no"?>
<svg xmlns:ffdec="https://www.free-decompiler.com/flash" xmlns:xlink="http://www.w3.org/1999/xlink" ffdec:objectType="shape" height="985.0px" width="1725.0px" xmlns="http://www.w3.org/2000/svg">
  <g transform="matrix(1.0, 0.0, 0.0, 1.0, -237.5, 742.5)">
    <path d="M240.0 240.0 L1580.0 240.0 1960.0 140.0" fill="none" stroke="#000066" stroke-linecap="round" stroke-linejoin="round" stroke-width="5.0"/>
    <path d="M240.0 240.0 L240.0 -720.0" fill="none" stroke="#ffff99" stroke-linecap="round" stroke-linejoin="round" stroke-width="5.0"/>
    <path d="M1500.0 -60.0 L1420.0 -60.0 1400.0 -100.0 1340.0 -80.0 M1200.0 -120.0 L1240.0 -120.0 M1040.0 20.0 L1100.0 -20.0 1140.0 -120.0 M940.0 60.0 L900.0 40.0 860.0 20.0 820.0 0.0 M920.0 80.0 L860.0 80.0 800.0 100.0" fill="none" stroke="#ff0000" stroke-linecap="round" stroke-linejoin="round" stroke-width="5.0"/>
    <path d="M1960.0 60.0 L1540.0 140.0 1340.0 200.0 1140.0 200.0 M260.0 -740.0 L260.0 160.0" fill="none" stroke="#00ffff" stroke-linecap="round" stroke-linejoin="round" stroke-width="5.0"/>
  </g>
</svg>
