<?xml version="1.0" encoding="UTF-8" standalone="no"?>
<svg xmlns:ffdec="https://www.free-decompiler.com/flash" xmlns:xlink="http://www.w3.org/1999/xlink" ffdec:objectType="shape" height="602.75px" width="1095.35px" xmlns="http://www.w3.org/2000/svg">
  <g transform="matrix(1.0, 0.0, 0.0, 1.0, -776.25, -352.65)">
    <path d="M1838.8 363.05 Q1843.6 355.75 1849.25 353.5 1854.75 351.3 1858.45 354.95 1862.4 358.85 1862.4 368.0 1862.4 373.4 1858.55 382.05 1854.65 390.7 1854.65 392.15 1854.65 407.45 1857.3 422.85 1858.95 432.5 1863.15 448.85 1867.45 465.85 1868.95 474.0 1871.6 488.45 1871.6 502.1 1871.6 519.85 1868.15 535.45 1861.6 565.05 1845.3 565.05 1830.65 565.05 1828.05 554.55 L1828.05 582.6 Q1825.2 592.65 1816.7 592.65 1811.4 592.65 1807.95 588.75 1805.2 585.65 1805.2 582.9 L1805.2 521.5 1806.05 517.2 Q1793.0 517.45 1787.35 511.15 1783.5 506.9 1783.5 500.5 1783.5 498.65 1788.15 484.95 L1795.25 464.3 Q1796.0 462.1 1796.55 456.0 1797.15 449.85 1798.25 446.65 1801.95 435.65 1817.55 433.25 1816.05 424.8 1822.2 408.7 L1827.35 395.6 Q1830.2 388.05 1831.2 382.95 1833.5 371.2 1838.8 363.05 M1828.05 542.0 L1828.5 538.0 Q1829.4 530.6 1828.5 527.55 L1828.05 528.25 1828.05 542.0" fill="#337164" fill-rule="evenodd" stroke="none"/>
    <path d="M803.95 955.05 Q803.65 955.4 802.85 955.4 L789.8 952.05 782.3 949.95 781.6 949.85 Q777.2 949.25 776.35 948.3 L776.25 947.5 Q776.55 947.2 777.4 947.05 778.35 946.5 780.9 946.55 784.65 946.65 790.0 947.9 803.15 950.9 804.2 954.65 L803.95 955.05" fill="#638879" fill-rule="evenodd" stroke="none"/>
  </g>
</svg>
