<?xml version="1.0" encoding="UTF-8" standalone="no"?>
<svg xmlns:ffdec="https://www.free-decompiler.com/flash" xmlns:xlink="http://www.w3.org/1999/xlink" ffdec:objectType="shape" height="187.3px" width="251.7px" xmlns="http://www.w3.org/2000/svg">
  <g transform="matrix(1.0, 0.0, 0.0, 1.0, 395.45, 69.7)">
    <path d="M-266.2 26.85 L-266.35 26.75 -264.05 22.85 Q-261.9 19.1 -261.9 18.5 -261.9 18.0 -262.45 16.85 -264.5 16.35 -266.7 14.9 -270.3 12.5 -274.15 7.55 L-275.5 5.75 Q-280.95 -1.6 -283.25 -9.1 -285.75 -17.15 -286.25 -21.65 -286.45 -23.85 -286.45 -32.1 -286.45 -33.3 -285.6 -35.95 L-284.75 -38.65 Q-284.75 -39.7 -284.95 -39.8 -287.95 -37.15 -290.3 -34.3 L-291.45 -32.25 -292.9 -29.6 -293.55 -28.4 -293.8 -27.95 -297.85 -17.1 -297.95 -16.0 -298.0 -15.45 -298.4 -12.8 -298.8 -10.2 -299.1 -6.95 -299.5 -3.75 -299.1 3.05 -298.35 6.35 -296.45 12.2 -294.0 17.75 Q-290.15 25.3 -285.05 28.55 L-284.35 28.95 Q-282.05 30.3 -279.5 30.7 L-277.0 30.9 -276.35 30.9 -275.0 30.8 -277.1 32.1 -277.35 32.3 Q-278.0 32.95 -279.65 32.95 -281.35 32.95 -281.95 33.3 L-283.55 33.55 Q-289.4 33.55 -295.7 21.8 -298.15 17.25 -299.6 13.2 -301.75 7.2 -301.75 2.2 L-301.5 -0.15 -301.5 -0.3 -301.95 -3.8 Q-301.95 -13.75 -296.45 -26.55 L-293.7 -32.35 Q-289.1 -41.2 -283.55 -45.8 L-283.25 -45.65 -283.3 -45.5 Q-280.95 -47.2 -280.95 -44.0 L-282.45 -37.3 Q-284.0 -30.15 -284.0 -24.8 -284.0 -22.6 -282.15 -15.15 -280.4 -7.8 -279.5 -6.15 -276.15 -0.05 -272.05 4.7 -269.0 8.2 -265.5 11.0 L-263.05 12.85 -262.0 13.5 -261.85 13.5 -261.75 13.5 -261.15 13.5 Q-259.55 13.85 -259.15 15.15 L-258.65 15.35 Q-258.8 16.2 -259.1 16.65 -259.35 19.0 -261.45 22.05 -263.55 25.15 -266.05 27.05 L-266.2 26.85 M-154.65 -46.7 L-157.35 -51.7 -158.9 -54.35 Q-161.95 -58.05 -165.8 -61.5 -166.1 -61.4 -166.1 -60.0 L-165.0 -56.5 Q-163.85 -53.05 -163.85 -51.5 -163.85 -40.75 -164.15 -37.9 -164.45 -35.4 -165.15 -32.05 L-165.95 -28.8 -168.05 -21.6 Q-171.45 -10.6 -179.9 0.1 -184.9 6.5 -189.6 9.65 -192.4 11.5 -195.1 12.2 L-195.8 14.3 Q-195.8 15.1 -193.0 20.0 L-190.05 25.05 -190.2 25.2 -190.4 25.45 Q-193.65 23.0 -196.4 18.95 -199.1 15.0 -199.45 11.95 -199.85 11.35 -200.05 10.25 L-199.4 9.95 Q-198.9 8.25 -196.8 7.85 L-196.0 7.8 -195.85 7.8 -195.65 7.8 -194.3 6.95 -191.1 4.55 Q-180.55 -3.9 -172.95 -17.75 -171.75 -19.85 -169.45 -29.45 L-168.05 -35.6 -167.35 -39.25 -167.1 -42.0 Q-167.1 -48.95 -169.1 -58.25 L-171.05 -66.95 Q-171.05 -71.1 -167.95 -68.95 L-168.05 -69.1 -167.65 -69.3 Q-158.25 -61.5 -150.9 -44.3 -143.75 -27.6 -143.75 -14.65 -143.75 -13.95 -144.3 -10.15 L-144.3 -9.9 -144.0 -6.85 Q-144.0 3.0 -150.45 15.9 L-151.55 18.05 -151.85 18.6 Q-160.05 33.9 -167.65 33.9 L-169.75 33.55 Q-170.5 33.1 -172.75 33.1 -174.9 33.1 -175.7 32.3 L-176.05 32.0 Q-177.25 30.9 -178.8 30.3 L-177.0 30.45 -176.15 30.45 -172.95 30.2 Q-169.6 29.65 -166.6 27.9 L-165.7 27.4 Q-159.1 23.2 -154.05 13.35 L-153.4 12.05 -152.3 9.75 Q-150.0 4.5 -148.4 -1.45 L-147.45 -5.8 -146.9 -14.6 -147.4 -18.8 -147.8 -23.0 Q-147.8 -23.7 -148.35 -26.4 L-148.85 -29.8 -148.9 -30.55 -149.05 -32.0 -154.35 -46.1 -154.65 -46.7 M-351.9 112.45 L-352.0 112.7 Q-352.15 113.5 -353.35 114.3 L-354.8 115.65 -355.85 116.6 Q-359.8 119.25 -368.9 114.75 L-370.35 114.0 Q-380.2 108.75 -384.25 102.7 L-385.2 100.85 -385.25 100.75 -387.25 98.45 Q-392.05 91.2 -394.3 79.3 -396.6 66.9 -394.2 59.05 L-393.95 59.0 -393.9 59.2 Q-393.05 56.8 -391.5 59.1 L-389.35 64.7 Q-387.0 70.6 -384.4 74.5 -383.5 75.85 -379.8 79.3 L-378.4 80.6 Q-373.6 85.1 -372.15 85.85 -362.75 90.75 -353.7 91.5 L-351.0 91.7 -349.95 91.7 -349.85 91.6 -349.75 91.55 -349.35 91.25 Q-347.95 90.75 -347.1 91.45 L-346.6 91.35 Q-346.3 92.1 -346.3 92.5 -345.35 94.35 -345.4 97.6 -345.4 100.85 -346.35 103.45 L-346.55 103.35 -346.7 103.4 -346.9 99.4 Q-347.15 95.7 -347.4 95.25 -347.65 94.9 -348.6 94.3 L-352.65 94.95 Q-356.4 94.95 -361.6 93.2 -370.3 90.4 -376.25 85.55 L-378.45 83.75 Q-382.5 80.3 -384.55 77.9 L-389.75 70.4 -390.95 67.2 -391.65 64.85 -392.35 64.1 Q-393.25 67.5 -393.55 70.65 L-393.4 72.7 -393.1 76.55 -393.05 76.95 -390.75 86.8 -390.25 87.65 -390.05 88.1 -389.05 90.2 -388.1 92.25 -386.75 94.75 -385.5 97.25 -381.9 102.0 -379.75 104.05 Q-375.55 107.75 -371.1 110.2 L-370.15 110.75 Q-364.25 113.85 -359.35 113.7 L-358.65 113.7 Q-356.35 113.5 -354.3 112.6 L-352.35 111.55 -351.9 111.2 -350.95 110.45 Q-351.6 111.35 -351.9 112.45" fill="#5b712d" fill-rule="evenodd" stroke="none"/>
    <path d="M-293.55 -28.4 L-292.9 -29.6 -291.45 -32.25 -290.3 -34.3 Q-287.95 -37.15 -284.95 -39.8 -284.75 -39.7 -284.75 -38.65 L-285.6 -35.95 Q-286.45 -33.3 -286.45 -32.1 -286.45 -23.85 -286.25 -21.65 -285.75 -17.15 -283.25 -9.1 -280.95 -1.6 -275.5 5.75 L-274.15 7.55 Q-270.3 12.5 -266.7 14.9 -264.5 16.35 -262.45 16.85 -261.9 18.0 -261.9 18.5 -261.9 19.1 -264.05 22.85 L-266.35 26.75 -266.2 26.85 -268.05 28.5 -269.85 26.15 -276.75 17.55 -279.75 13.15 -282.75 8.0 Q-287.8 -1.45 -289.2 -10.9 L-289.75 -11.05 -290.25 -10.95 -290.45 -10.2 -289.6 -6.2 Q-288.7 -3.2 -288.7 -2.5 -288.7 -1.5 -286.95 5.35 L-286.0 9.0 Q-284.8 13.3 -284.05 14.7 L-284.1 14.85 -288.05 9.6 Q-290.05 6.45 -291.3 3.3 -293.2 -1.7 -293.2 -7.1 L-293.85 -12.4 Q-294.55 -18.05 -294.55 -20.45 -294.55 -24.05 -293.55 -28.4 M-261.75 13.5 L-261.85 13.5 -262.0 13.5 -263.05 12.85 Q-262.25 12.8 -261.75 13.5 M-291.85 -25.05 L-292.0 -24.75 -292.15 -23.85 -292.05 -22.85 -291.9 -22.15 -291.15 -21.75 -289.7 -21.9 -289.55 -22.25 Q-289.4 -22.5 -289.4 -23.1 -289.4 -23.95 -290.2 -24.55 L-291.45 -25.0 -291.85 -25.05 M-190.2 25.2 L-190.05 25.05 -193.0 20.0 Q-195.8 15.1 -195.8 14.3 L-195.1 12.2 Q-192.4 11.5 -189.6 9.65 -184.9 6.5 -179.9 0.1 -171.45 -10.6 -168.05 -21.6 L-165.95 -28.8 -165.15 -32.05 Q-164.45 -35.4 -164.15 -37.9 -163.85 -40.75 -163.85 -51.5 -163.85 -53.05 -165.0 -56.5 L-166.1 -60.0 Q-166.1 -61.4 -165.8 -61.5 -161.95 -58.05 -158.9 -54.35 L-157.35 -51.7 -154.65 -46.7 Q-153.35 -41.05 -153.35 -36.35 -153.35 -33.2 -154.25 -25.85 L-155.1 -18.95 Q-155.1 -12.45 -157.25 -6.35 L-157.6 -5.45 -158.25 -3.8 Q-161.2 2.9 -166.95 9.55 L-167.0 9.4 Q-165.7 6.9 -163.2 -2.75 -161.2 -10.6 -160.95 -12.55 L-160.95 -13.0 -160.25 -16.1 -159.8 -17.8 Q-158.7 -21.75 -158.7 -23.0 -158.7 -23.9 -158.95 -24.0 L-159.6 -24.1 -160.3 -23.9 -161.2 -19.1 -162.0 -15.9 Q-165.95 -1.45 -176.5 13.1 L-185.45 24.3 -187.8 27.3 -190.2 25.2 M-194.3 6.95 L-195.65 7.8 -195.85 7.8 -196.0 7.8 Q-195.35 6.9 -194.3 6.95 M-186.55 11.0 L-186.4 11.95 Q-186.2 11.9 -186.2 12.05 L-184.75 12.15 -183.65 10.1 -183.15 8.65 Q-184.4 8.7 -185.45 9.35 -186.55 10.05 -186.55 11.0 M-160.05 -39.8 L-159.85 -38.65 -159.65 -38.25 -157.8 -38.0 -156.8 -38.55 -156.6 -39.45 Q-156.45 -39.95 -156.45 -40.75 L-156.65 -41.95 -156.85 -42.35 Q-158.1 -42.2 -159.0 -41.65 -160.05 -40.9 -160.05 -39.8 M-174.8 -3.65 L-177.05 -2.3 Q-178.3 -1.1 -178.3 0.1 -178.3 0.95 -177.9 1.2 L-176.9 1.45 Q-175.75 1.35 -175.1 0.8 L-174.6 -0.5 Q-174.2 -1.45 -174.2 -2.25 -174.2 -3.05 -174.5 -3.3 L-174.8 -3.65 M-278.05 4.7 L-278.3 4.95 -278.5 5.75 -278.35 6.65 -278.2 7.1 -277.8 8.1 -276.45 8.6 -275.65 8.4 Q-275.35 8.2 -275.35 7.55 -275.35 6.75 -276.1 5.95 L-276.35 5.7 -278.05 4.7 M-269.0 15.95 Q-269.0 15.2 -269.85 14.65 -270.65 14.15 -271.65 14.15 L-271.25 15.25 -270.4 16.85 -269.3 16.75 -269.15 16.65 Q-269.0 16.6 -269.0 15.95 M-393.1 76.55 L-393.4 72.7 -393.55 70.65 Q-393.25 67.5 -392.35 64.1 L-391.65 64.85 -390.95 67.2 -389.75 70.4 -384.55 77.9 Q-382.5 80.3 -378.45 83.75 L-376.25 85.55 Q-370.3 90.4 -361.6 93.2 -356.4 94.95 -352.65 94.95 L-348.6 94.3 Q-347.65 94.9 -347.4 95.25 -347.15 95.7 -346.9 99.4 L-346.7 103.4 -346.55 103.35 -347.1 105.45 -349.5 104.6 -358.7 101.7 Q-368.65 98.0 -375.75 92.45 -378.9 89.95 -381.45 87.15 L-381.9 87.25 -382.25 87.6 -382.05 88.25 -379.45 90.7 Q-377.35 92.45 -377.05 92.95 L-374.95 95.1 -372.0 97.8 -365.35 103.2 -365.3 103.3 Q-369.85 102.05 -373.4 100.1 L-376.1 98.45 Q-379.9 95.7 -382.5 91.8 L-385.55 88.3 -389.95 82.75 Q-391.7 80.15 -393.1 76.55 M-349.75 91.55 L-349.85 91.6 -349.95 91.7 -351.0 91.7 Q-350.45 91.25 -349.75 91.55 M-388.15 80.15 L-387.15 79.35 -387.25 79.05 Q-387.2 78.8 -387.5 78.4 -387.9 77.75 -388.8 77.7 L-390.25 78.1 -390.2 78.45 -389.85 79.15 -389.3 79.8 -388.9 80.25 -388.15 80.15 M-365.65 94.0 L-364.8 94.85 -364.0 95.35 -362.75 95.05 -362.3 94.6 Q-362.2 94.3 -362.5 93.8 -362.95 93.15 -364.1 92.9 L-365.85 93.05 -365.85 93.3 Q-365.95 93.55 -365.65 94.0 M-354.4 98.15 L-353.65 97.55 -353.6 97.4 -353.8 96.8 Q-354.15 96.25 -355.1 96.25 -355.85 96.3 -356.6 96.8 L-355.8 97.4 -354.4 98.15" fill="#93a055" fill-rule="evenodd" stroke="none"/>
    <path d="M-277.1 32.1 L-275.0 30.8 -276.35 30.9 -277.0 30.9 -279.5 30.7 Q-282.05 30.3 -284.35 28.95 L-285.05 28.55 Q-290.15 25.3 -294.0 17.75 L-296.45 12.2 -298.35 6.35 -299.1 3.05 -299.5 -3.75 -299.1 -6.95 -298.8 -10.2 -298.4 -12.8 -298.0 -15.45 -297.95 -16.0 -297.85 -17.1 -293.8 -27.95 -293.55 -28.4 Q-294.55 -24.05 -294.55 -20.45 -294.55 -18.05 -293.85 -12.4 L-293.2 -7.1 Q-293.2 -1.7 -291.3 3.3 -290.05 6.45 -288.05 9.6 L-284.1 14.85 -284.05 14.7 Q-284.8 13.3 -286.0 9.0 L-286.95 5.35 Q-288.7 -1.5 -288.7 -2.5 -288.7 -3.2 -289.6 -6.2 L-290.45 -10.2 -290.25 -10.95 -289.75 -11.05 -289.2 -10.9 Q-287.8 -1.45 -282.75 8.0 L-279.75 13.15 -276.75 17.55 -269.85 26.15 -268.05 28.5 Q-270.75 30.55 -274.1 31.5 L-277.1 32.1 M-291.85 -25.05 L-291.45 -25.0 -290.2 -24.55 Q-289.4 -23.95 -289.4 -23.1 -289.4 -22.5 -289.55 -22.25 L-289.7 -21.9 -291.15 -21.75 -291.9 -22.15 -292.05 -22.85 -292.15 -23.85 -292.0 -24.75 -291.85 -25.05 M-187.8 27.3 L-185.45 24.3 -176.5 13.1 Q-165.95 -1.45 -162.0 -15.9 L-161.2 -19.1 -160.3 -23.9 -159.6 -24.1 -158.95 -24.0 Q-158.7 -23.9 -158.7 -23.0 -158.7 -21.75 -159.8 -17.8 L-160.25 -16.1 -160.95 -13.0 -160.95 -12.55 Q-161.2 -10.6 -163.2 -2.75 -165.7 6.9 -167.0 9.4 L-166.95 9.55 Q-161.2 2.9 -158.25 -3.8 L-157.6 -5.45 -157.25 -6.35 Q-155.1 -12.45 -155.1 -18.95 L-154.25 -25.85 Q-153.35 -33.2 -153.35 -36.35 -153.35 -41.05 -154.65 -46.7 L-154.35 -46.1 -149.05 -32.0 -148.9 -30.55 -148.85 -29.8 -148.35 -26.4 Q-147.8 -23.7 -147.8 -23.0 L-147.4 -18.8 -146.9 -14.6 -147.45 -5.8 -148.4 -1.45 Q-150.0 4.5 -152.3 9.75 L-153.4 12.05 -154.05 13.35 Q-159.1 23.2 -165.7 27.4 L-166.6 27.9 Q-169.6 29.65 -172.95 30.2 L-176.15 30.45 -177.0 30.45 -178.8 30.3 Q-177.25 30.9 -176.05 32.0 -182.8 31.1 -187.8 27.3 M-174.8 -3.65 L-174.5 -3.3 Q-174.2 -3.05 -174.2 -2.25 -174.2 -1.45 -174.6 -0.5 L-175.1 0.8 Q-175.75 1.35 -176.9 1.45 L-177.9 1.2 Q-178.3 0.95 -178.3 0.1 -178.3 -1.1 -177.05 -2.3 L-174.8 -3.65 M-160.05 -39.8 Q-160.05 -40.9 -159.0 -41.65 -158.1 -42.2 -156.85 -42.35 L-156.65 -41.95 -156.45 -40.75 Q-156.45 -39.95 -156.6 -39.45 L-156.8 -38.55 -157.8 -38.0 -159.65 -38.25 -159.85 -38.65 -160.05 -39.8 M-186.55 11.0 Q-186.55 10.05 -185.45 9.35 -184.4 8.7 -183.15 8.65 L-183.65 10.1 -184.75 12.15 -186.2 12.05 Q-186.2 11.9 -186.4 11.95 L-186.55 11.0 M-269.0 15.95 Q-269.0 16.6 -269.15 16.65 L-269.3 16.75 -270.4 16.85 -271.25 15.25 -271.65 14.15 Q-270.65 14.15 -269.85 14.65 -269.0 15.2 -269.0 15.95 M-278.05 4.7 L-276.35 5.7 -276.1 5.95 Q-275.35 6.75 -275.35 7.55 -275.35 8.2 -275.65 8.4 L-276.45 8.6 -277.8 8.1 -278.2 7.1 -278.35 6.65 -278.5 5.75 -278.3 4.95 -278.05 4.7 M-351.9 112.45 Q-351.6 111.35 -350.95 110.45 L-351.9 111.2 -352.35 111.55 -354.3 112.6 Q-356.35 113.5 -358.65 113.7 L-359.35 113.7 Q-364.25 113.85 -370.15 110.75 L-371.1 110.2 Q-375.55 107.75 -379.75 104.05 L-381.9 102.0 -385.5 97.25 -386.75 94.75 -388.1 92.25 -389.05 90.2 -390.05 88.1 -390.25 87.65 -390.75 86.8 -393.05 76.95 -393.1 76.55 Q-391.7 80.15 -389.95 82.75 L-385.55 88.3 -382.5 91.8 Q-379.9 95.7 -376.1 98.45 L-373.4 100.1 Q-369.85 102.05 -365.3 103.3 L-365.35 103.2 -372.0 97.8 -374.95 95.1 -377.05 92.95 Q-377.35 92.45 -379.45 90.7 L-382.05 88.25 -382.25 87.6 -381.9 87.25 -381.45 87.15 Q-378.9 89.95 -375.75 92.45 -368.65 98.0 -358.7 101.7 L-349.5 104.6 -347.1 105.45 Q-348.45 109.4 -351.9 112.45 M-388.15 80.15 L-388.9 80.25 -389.3 79.8 -389.85 79.15 -390.2 78.45 -390.25 78.1 -388.8 77.7 Q-387.9 77.75 -387.5 78.4 -387.2 78.8 -387.25 79.05 L-387.15 79.35 -388.15 80.15 M-354.4 98.15 L-355.8 97.4 -356.6 96.8 Q-355.85 96.3 -355.1 96.25 -354.15 96.25 -353.8 96.8 L-353.6 97.4 -353.65 97.55 -354.4 98.15 M-365.65 94.0 Q-365.95 93.55 -365.85 93.3 L-365.85 93.05 -364.1 92.9 Q-362.95 93.15 -362.5 93.8 -362.2 94.3 -362.3 94.6 L-362.75 95.05 -364.0 95.35 -364.8 94.85 -365.65 94.0" fill="#788347" fill-rule="evenodd" stroke="none"/>
  </g>
</svg>
