<?xml version="1.0" encoding="UTF-8" standalone="no"?>
<svg xmlns:ffdec="https://www.free-decompiler.com/flash" xmlns:xlink="http://www.w3.org/1999/xlink" ffdec:objectType="shape" height="428.9px" width="2286.95px" xmlns="http://www.w3.org/2000/svg">
  <g transform="matrix(1.0, 0.0, 0.0, 1.0, -307.95, -951.1)">
    <path d="M2594.9 1345.85 L2384.6 1345.85 2384.6 1380.0 311.35 1380.0 311.35 1040.0 315.45 1040.0 Q307.95 989.15 307.95 977.1 307.95 970.2 309.95 964.05 312.4 956.5 317.05 953.3 329.5 944.7 353.05 969.6 L410.55 970.75 448.8 982.35 Q467.35 988.1 476.85 992.35 481.75 994.55 485.6 996.9 513.2 1002.65 528.45 1002.95 547.1 1004.6 554.5 1010.25 558.9 1013.55 562.15 1022.5 563.6 1026.5 565.45 1029.7 L583.05 1032.0 636.95 1039.05 642.15 1040.0 2594.85 1040.0 2594.9 1345.85" fill="#875c43" fill-rule="evenodd" stroke="none"/>
  </g>
</svg>
