<?xml version="1.0" encoding="UTF-8" standalone="no"?>
<svg xmlns:ffdec="https://www.free-decompiler.com/flash" xmlns:xlink="http://www.w3.org/1999/xlink" ffdec:objectType="shape" height="52.9px" width="45.4px" xmlns="http://www.w3.org/2000/svg">
  <g transform="matrix(1.0, 0.0, 0.0, 1.0, 23.85, 106.95)">
    <path d="M15.8 -106.95 Q20.25 -104.15 21.25 -96.55 21.55 -94.35 21.55 -83.35 21.55 -75.15 20.35 -69.55 18.0 -58.25 11.2 -54.05 6.95 -58.8 6.0 -63.85 5.75 -65.2 5.75 -70.7 L5.75 -71.85 Q-7.0 -69.95 -9.4 -69.0 -11.75 -67.55 -18.1 -65.55 -21.45 -66.3 -22.7 -67.6 -23.15 -68.15 -23.85 -70.15 L-23.85 -99.45 Q-23.55 -99.45 -22.9 -100.9 -21.6 -102.35 -18.1 -102.35 -11.45 -102.35 -11.25 -93.2 -11.15 -90.45 -11.75 -86.1 L-12.35 -81.05 Q2.2 -80.75 7.6 -84.35 11.6 -87.05 11.1 -92.7 L9.9 -101.7 Q10.15 -106.1 15.8 -106.95" fill="#99ff33" fill-rule="evenodd" stroke="none"/>
  </g>
</svg>
