<?xml version="1.0" encoding="UTF-8" standalone="no"?>
<svg xmlns:ffdec="https://www.free-decompiler.com/flash" xmlns:xlink="http://www.w3.org/1999/xlink" ffdec:objectType="shape" height="1303.9px" width="2765.7px" xmlns="http://www.w3.org/2000/svg">
  <g transform="matrix(1.0, 0.0, 0.0, 1.0, 351.15, 153.05)">
    <path d="M661.6 1135.95 L475.25 1135.95 475.25 868.95 489.0 868.95 489.0 847.55 723.5 847.55 723.5 899.55 711.4 899.55 711.4 1077.7 718.95 1077.7 718.95 1010.05 831.9 1010.05 831.9 1060.7 850.15 1060.7 850.15 999.45 1656.45 999.45 1656.45 850.55 865.25 850.55 865.25 829.1 699.05 829.1 699.05 707.8 665.7 707.8 665.7 631.15 697.7 631.15 697.7 617.35 761.7 617.35 761.7 595.7 827.3 595.7 827.3 568.1 860.7 568.1 860.7 540.5 912.6 540.5 912.6 525.3 1008.6 525.3 1008.6 563.5 1005.6 563.5 1005.6 629.55 1330.25 629.55 1330.25 204.4 1278.35 204.4 1278.35 -142.25 1424.65 -142.25 1424.65 -153.05 1846.9 -153.05 1846.9 170.8 1708.1 170.8 1708.1 610.4 Q1704.4 614.6 1700.65 620.1 L1699.7 619.65 Q1695.65 618.0 1688.55 621.0 1673.1 627.55 1654.8 648.85 L1651.0 653.4 1652.1 652.45 1686.3 652.45 1690.6 653.3 1782.35 653.6 Q1788.35 652.0 1794.0 652.7 1787.55 639.7 1780.1 629.55 L1952.05 629.55 1952.05 632.55 1993.2 632.55 1993.2 634.15 2014.45 634.15 2014.45 631.15 2227.95 631.15 2227.95 724.6 2265.9 724.6 2265.9 738.65 2262.9 739.55 2258.3 740.8 2254.4 740.95 2251.8 740.9 2250.95 740.65 Q2250.75 740.6 2250.7 741.2 2247.15 745.7 2239.6 751.55 2231.2 758.1 2227.8 758.1 L2216.95 755.95 Q2204.75 753.75 2196.9 753.75 L2194.75 753.85 2193.95 753.95 2193.95 755.1 2213.5 758.3 2229.75 760.55 2229.0 761.5 2229.05 761.95 Q2229.05 764.55 2219.45 786.05 2211.7 803.35 2207.15 811.8 2211.9 805.0 2222.05 784.25 L2230.35 766.4 Q2232.35 762.45 2232.8 760.7 2234.7 760.4 2241.0 755.45 2246.55 751.1 2249.7 746.9 2248.6 749.0 2247.55 751.65 L2243.35 762.8 2237.35 774.15 Q2232.35 783.35 2232.35 784.4 2232.35 785.5 2232.6 784.9 L2233.15 784.9 2243.55 765.2 Q2251.55 749.45 2252.9 744.4 L2253.2 743.55 2254.9 743.45 2264.45 743.45 Q2263.1 745.05 2261.8 746.95 L2260.2 749.35 Q2258.75 751.6 2257.95 753.4 2255.6 755.8 2252.9 759.5 L2251.9 760.85 Q2248.4 765.75 2246.7 769.45 2243.25 773.85 2242.45 775.65 L2243.2 775.95 2229.15 797.4 Q2219.55 811.95 2212.75 821.25 2208.15 827.45 2199.95 858.25 2192.9 884.7 2191.55 899.95 L2193.15 898.5 Q2194.2 897.75 2195.55 897.05 2204.2 892.6 2224.8 891.95 L2370.0 891.95 Q2384.1 888.95 2389.2 906.15 2391.7 914.65 2391.7 928.15 L2391.45 937.7 Q2391.0 941.0 2389.85 943.15 L2393.05 944.45 Q2404.05 949.15 2404.05 956.2 2404.05 957.1 2405.7 959.95 L2409.3 966.15 Q2414.55 975.75 2414.55 982.95 L2414.55 991.6 Q2414.3 996.8 2412.85 1000.65 2409.15 1010.65 2395.75 1017.3 L2394.95 1018.9 2395.65 1020.65 Q2396.3 1022.55 2396.3 1024.35 2396.3 1028.6 2393.45 1031.8 2391.35 1034.15 2388.25 1035.1 L2388.2 1036.6 Q2387.8 1038.8 2385.95 1040.35 2380.55 1044.9 2362.5 1044.9 2335.0 1044.9 2326.25 1043.25 2323.7 1042.75 2321.75 1041.9 L2320.75 1041.45 2245.4 1041.45 2245.4 1075.5 Q2241.3 1087.9 2238.9 1100.1 2236.15 1113.8 2236.15 1124.3 L2236.3 1127.75 Q2236.75 1131.6 2238.1 1134.8 L2238.65 1135.95 2238.5 1135.95 2238.5 1137.55 676.45 1137.55 676.45 1135.95 671.15 1135.95 671.25 1135.2 671.6 1134.7 Q672.15 1134.0 672.15 1132.65 672.15 1124.7 672.6 1117.95 L673.05 1107.1 673.05 1103.8 673.0 1100.45 673.05 1098.2 672.95 1095.65 Q672.85 1094.7 672.4 1093.7 L670.9 1094.15 670.6 1093.7 669.65 1094.75 669.6 1094.7 668.0 1094.85 667.85 1097.3 Q666.55 1100.2 666.6 1105.4 L666.75 1108.25 665.15 1118.25 661.6 1135.95 M2254.5 733.05 Q2255.4 732.75 2255.7 731.7 2255.3 731.25 2253.95 731.0 L2252.7 730.8 Q2252.4 730.6 2252.15 730.55 2251.55 730.4 2251.55 731.8 2251.55 733.2 2252.1 733.2 L2254.5 733.05 M2255.85 735.6 L2254.5 735.6 2254.45 735.45 2254.35 736.95 Q2254.35 738.35 2254.6 738.55 L2254.8 738.45 2260.45 738.45 2261.25 737.65 2261.25 736.3 2255.85 735.6 M2221.3 766.15 Q2222.6 765.4 2222.75 764.85 L2222.1 764.1 2219.9 764.15 Q2218.7 764.45 2218.7 765.9 2218.7 767.3 2218.95 767.25 L2219.15 766.9 Q2220.0 766.9 2221.3 766.15 M2212.3 748.8 Q2212.3 750.6 2212.75 751.25 L2215.3 750.95 2217.15 750.6 2217.25 749.25 2213.5 748.55 Q2212.7 748.5 2212.3 748.8 M2223.6 750.7 Q2222.55 751.9 2221.4 752.6 L2222.75 754.05 2228.05 754.2 Q2229.4 754.2 2229.65 753.55 L2230.05 752.4 2229.45 751.4 Q2228.95 750.75 2228.95 750.35 L2223.6 750.7 M2233.55 772.65 L2234.4 772.2 Q2234.8 771.95 2235.35 771.95 2235.6 771.85 2235.6 769.6 L2235.5 768.15 Q2235.25 768.2 2234.9 767.8 2233.35 768.45 2232.3 769.75 2231.55 770.7 2231.55 771.05 2231.55 772.5 2231.95 772.6 L2233.55 772.65 M2214.55 777.0 Q2215.35 777.0 2216.3 776.25 2217.15 775.55 2217.25 775.0 L2216.7 774.3 2215.05 774.2 2214.3 774.3 2214.1 775.65 Q2214.1 776.35 2214.55 777.0 M1655.5 829.5 Q1655.7 828.5 1656.5 827.4 L1623.55 827.4 1622.65 829.55 1623.2 829.95 1627.1 832.75 Q1643.35 844.3 1645.6 844.3 1653.8 844.3 1655.2 838.05 1655.6 836.15 1655.5 833.1 1655.35 830.05 1655.5 829.5 M1822.75 828.75 L1823.3 827.4 1670.9 827.4 Q1680.9 832.05 1690.95 835.35 1722.95 846.0 1760.7 846.0 1766.9 846.0 1792.6 839.45 1797.25 838.15 1800.7 834.55 L1803.3 831.9 Q1806.35 833.6 1811.7 833.6 1820.15 833.6 1822.75 828.75 M2225.55 795.25 L2223.4 794.8 Q2222.3 794.7 2222.3 796.25 2222.3 797.65 2222.55 797.6 L2222.75 797.25 2224.8 797.25 Q2225.55 796.6 2225.55 795.25 M2189.7 861.9 L2189.9 861.75 Q2199.0 855.25 2199.0 845.65 L2198.9 843.25 2198.35 841.5 Q2192.85 843.8 2190.9 848.95 2189.45 852.75 2189.45 860.4 2189.45 861.8 2189.7 861.9 M2198.35 819.45 Q2199.0 818.65 2199.0 817.3 L2198.35 816.6 2196.0 816.85 2195.95 816.4 Q2195.85 816.25 2195.85 817.65 2195.85 818.95 2196.15 819.1 L2196.45 819.45 2198.35 819.45 M2158.75 822.15 L2160.45 821.9 2161.55 819.1 2160.9 818.55 2158.6 819.6 Q2158.3 819.85 2158.3 820.45 L2158.35 821.9 2158.75 822.15 M2112.85 882.2 Q2113.75 881.75 2113.95 881.1 2113.45 879.25 2112.4 878.4 L2110.8 878.5 Q2110.8 880.1 2111.2 880.65 L2112.85 882.2 M2173.55 858.4 Q2176.2 856.9 2176.2 855.2 2176.2 849.4 2169.55 854.55 2167.25 856.3 2165.0 858.75 2162.9 861.05 2162.9 861.5 2162.9 862.9 2163.5 862.9 L2164.05 862.65 2173.55 858.4 M2177.75 846.3 Q2178.5 846.1 2178.9 844.95 2176.5 843.9 2175.75 844.65 2175.75 846.05 2177.75 846.3 M2183.7 859.95 Q2184.2 859.4 2184.3 858.9 L2184.4 857.8 Q2183.7 857.35 2182.9 857.3 L2182.05 857.35 Q2182.05 859.15 2182.5 859.95 L2183.7 859.95 M2175.1 860.85 Q2173.95 861.05 2173.95 862.5 2173.95 863.9 2174.2 863.85 L2174.4 863.55 Q2177.3 863.55 2178.0 862.85 L2178.0 862.2 2177.65 861.25 2177.3 860.85 Q2175.8 860.7 2175.1 860.85 M2174.4 893.7 Q2171.15 892.75 2170.2 893.25 2170.2 895.8 2173.05 895.8 L2174.55 895.5 2174.4 895.15 2174.4 893.7 M2179.05 902.85 L2178.9 903.3 2184.6 907.55 2188.2 909.7 Q2188.2 908.65 2188.35 907.7 L2182.85 903.75 Q2177.25 899.7 2175.8 899.15 L2175.65 899.55 2179.05 902.85 M2184.95 895.8 L2183.25 894.6 2182.65 894.8 Q2182.05 895.15 2182.05 896.5 L2182.45 897.0 2185.05 898.75 Q2186.2 898.2 2186.2 896.95 L2184.95 895.8 M2178.05 890.3 L2176.85 890.1 Q2176.6 889.9 2176.3 889.85 2175.75 889.7 2175.75 891.1 2175.75 892.5 2176.3 892.5 L2178.65 892.35 Q2179.4 892.1 2179.8 891.0 2179.35 890.55 2178.05 890.3 M2175.05 914.85 L2169.45 914.45 2164.7 914.25 2164.7 915.4 Q2167.55 916.7 2173.4 920.8 2176.05 922.7 2181.8 922.7 L2183.85 922.5 2184.4 922.25 2184.4 920.9 2180.75 917.5 Q2177.4 914.85 2175.05 914.85 M2150.3 933.3 L2149.85 933.7 Q2149.3 934.05 2149.2 934.5 2149.45 935.35 2151.45 937.2 2153.1 937.0 2153.25 936.3 L2152.95 934.35 2152.65 933.3 2150.3 933.3 M2152.1 928.2 Q2152.05 928.4 2151.95 928.2 L2151.9 929.45 Q2151.9 930.15 2153.05 931.1 L2154.9 932.6 2156.95 931.5 2156.85 929.95 2156.7 929.45 Q2154.15 927.8 2152.1 928.2 M2146.85 904.2 L2155.4 911.25 Q2160.9 915.9 2164.95 918.7 2174.0 924.95 2184.8 928.55 L2185.3 926.55 Q2173.1 923.35 2163.95 916.75 2152.9 907.1 2146.85 904.2 M2162.0 937.1 Q2162.0 938.5 2162.55 938.5 L2164.95 938.35 2166.15 937.6 Q2166.75 937.2 2167.05 937.2 L2167.05 935.2 2165.7 934.45 2164.95 934.2 2162.0 937.1 M2177.55 937.65 Q2177.55 938.35 2178.0 939.15 2179.5 939.15 2180.5 938.6 2181.5 938.0 2181.6 937.0 2180.3 936.4 2179.25 936.3 L2177.75 936.3 2177.55 937.65 M2137.5 894.9 L2138.45 895.0 Q2138.7 895.05 2138.7 893.7 2138.7 892.4 2138.2 891.4 L2137.7 890.3 Q2134.95 890.3 2134.55 891.0 L2135.45 893.0 Q2136.15 894.1 2137.5 894.9 M2138.4 920.0 L2138.35 920.0 2138.25 921.7 Q2138.25 923.2 2138.7 923.4 L2140.3 923.6 Q2141.2 923.15 2141.4 922.5 2140.95 920.9 2139.85 919.8 L2138.4 920.0 M2123.55 920.0 L2123.55 921.8 Q2124.6 923.5 2128.15 925.25 2132.15 927.3 2135.7 927.3 2137.05 927.3 2137.0 926.9 2136.7 926.3 2136.8 925.95 2134.4 923.05 2129.85 921.35 2126.25 920.0 2123.55 920.0 M2126.8 914.25 L2127.9 914.25 Q2128.6 913.5 2128.6 912.15 2127.9 911.7 2127.1 911.65 L2126.35 911.7 Q2126.35 913.5 2126.8 914.25 M2210.25 937.05 L2209.8 938.9 2210.3 937.35 2210.25 937.05 M2071.9 897.9 Q2070.55 899.5 2070.55 903.35 2070.55 904.3 2071.05 904.95 L2072.8 906.85 2078.55 906.85 2079.1 906.35 2079.2 904.7 Q2079.2 902.1 2077.85 899.85 2076.6 897.8 2074.9 897.15 2073.1 896.5 2071.9 897.9 M2097.55 903.9 L2096.85 903.15 2095.25 903.05 2094.5 903.15 2094.3 904.6 Q2094.3 905.25 2094.75 905.95 2095.55 905.95 2096.5 905.15 L2097.55 903.9 M276.9 1126.75 L51.7 1126.75 51.7 1123.95 -234.55 1123.95 -234.55 960.55 -351.15 960.55 -351.15 621.0 -234.55 621.0 -234.55 602.6 106.05 602.6 106.05 825.9 272.55 825.9 273.9 831.35 275.65 842.75 Q275.05 844.3 275.05 847.65 L275.25 848.8 Q274.15 850.4 273.15 852.3 270.35 857.7 270.35 861.55 L270.4 864.5 268.1 862.5 267.45 863.3 267.35 865.5 Q267.35 879.95 271.3 931.65 275.7 988.5 278.8 999.75 L280.9 998.85 281.3 998.65 281.35 999.65 Q281.05 1001.65 281.05 1003.65 281.05 1005.4 282.4 1024.65 L282.55 1039.5 Q282.55 1046.8 281.2 1073.6 L279.3 1085.3 278.9 1087.05 Q273.55 1111.55 273.55 1120.5 273.55 1123.35 275.85 1125.8 L276.9 1126.75" fill="#875c43" fill-rule="evenodd" stroke="none"/>
    <path d="M2255.85 735.6 L2261.25 736.3 2261.25 737.65 2260.45 738.45 2254.8 738.45 2254.6 738.55 Q2254.35 738.35 2254.35 736.95 L2254.45 735.45 2254.5 735.6 2255.85 735.6 M2254.5 733.05 L2252.1 733.2 Q2251.55 733.2 2251.55 731.8 2251.55 730.4 2252.15 730.55 2252.4 730.6 2252.7 730.8 L2253.95 731.0 Q2255.3 731.25 2255.7 731.7 2255.4 732.75 2254.5 733.05 M2214.55 777.0 Q2214.1 776.35 2214.1 775.65 L2214.3 774.3 2215.05 774.2 2216.7 774.3 2217.25 775.0 Q2217.15 775.55 2216.3 776.25 2215.35 777.0 2214.55 777.0 M2233.55 772.65 L2231.95 772.6 Q2231.55 772.5 2231.55 771.05 2231.55 770.7 2232.3 769.75 2233.35 768.45 2234.9 767.8 2235.25 768.2 2235.5 768.15 L2235.6 769.6 Q2235.6 771.85 2235.35 771.95 2234.8 771.95 2234.4 772.2 L2233.55 772.65 M2198.35 819.45 L2196.45 819.45 2196.15 819.1 Q2195.85 818.95 2195.85 817.65 2195.85 816.25 2195.95 816.4 L2196.0 816.85 2198.35 816.6 2199.0 817.3 Q2199.0 818.65 2198.35 819.45 M2189.7 861.9 Q2189.45 861.8 2189.45 860.4 2189.45 852.75 2190.9 848.95 2192.85 843.8 2198.35 841.5 L2198.9 843.25 2199.0 845.65 Q2199.0 855.25 2189.9 861.75 L2189.7 861.9 M2112.85 882.2 L2111.2 880.65 Q2110.8 880.1 2110.8 878.5 L2112.4 878.4 Q2113.45 879.25 2113.95 881.1 2113.75 881.75 2112.85 882.2 M2175.1 860.85 Q2175.8 860.7 2177.3 860.85 L2177.65 861.25 2178.0 862.2 2178.0 862.85 Q2177.3 863.55 2174.4 863.55 L2174.2 863.85 Q2173.95 863.9 2173.95 862.5 2173.95 861.05 2175.1 860.85 M2183.7 859.95 L2182.5 859.95 Q2182.05 859.15 2182.05 857.35 L2182.9 857.3 Q2183.7 857.35 2184.4 857.8 L2184.3 858.9 Q2184.2 859.4 2183.7 859.95 M2175.05 914.85 Q2177.4 914.85 2180.75 917.5 L2184.4 920.9 2184.4 922.25 2183.85 922.5 2181.8 922.7 Q2176.05 922.7 2173.4 920.8 2167.55 916.7 2164.7 915.4 L2164.7 914.25 2169.45 914.45 2175.05 914.85 M2162.0 937.1 L2164.95 934.2 2165.7 934.45 2167.05 935.2 2167.05 937.2 Q2166.75 937.2 2166.15 937.6 L2164.95 938.35 2162.55 938.5 Q2162.0 938.5 2162.0 937.1 M2137.5 894.9 Q2136.15 894.1 2135.45 893.0 L2134.55 891.0 Q2134.95 890.3 2137.7 890.3 L2138.2 891.4 Q2138.7 892.4 2138.7 893.7 2138.7 895.05 2138.45 895.0 L2137.5 894.9 M2097.55 903.9 L2096.5 905.15 Q2095.55 905.95 2094.75 905.95 2094.3 905.25 2094.3 904.6 L2094.5 903.15 2095.25 903.05 2096.85 903.15 2097.55 903.9 M2071.9 897.9 Q2073.1 896.5 2074.9 897.15 2076.6 897.8 2077.85 899.85 2079.2 902.1 2079.2 904.7 L2079.1 906.35 2078.55 906.85 2072.8 906.85 2071.05 904.95 Q2070.55 904.3 2070.55 903.35 2070.55 899.5 2071.9 897.9" fill="#ae9881" fill-rule="evenodd" stroke="none"/>
    <path d="M2265.9 738.65 L2270.7 737.0 2270.85 736.9 2271.0 737.6 2271.35 737.45 2273.25 736.5 2273.85 737.25 2273.95 739.2 Q2273.95 740.5 2267.25 748.3 L2262.05 754.0 2258.55 758.4 2258.45 758.55 Q2250.2 769.95 2243.8 781.85 2239.4 790.0 2229.85 802.55 2217.6 818.65 2214.55 823.25 2210.75 828.85 2202.85 858.85 L2202.8 858.8 2199.1 877.75 Q2196.85 889.05 2195.55 897.05 2194.2 897.75 2193.15 898.5 L2191.55 899.95 Q2192.9 884.7 2199.95 858.25 2208.15 827.45 2212.75 821.25 2219.55 811.95 2229.15 797.4 L2243.2 775.95 2242.45 775.65 Q2243.25 773.85 2246.7 769.45 2248.4 765.75 2251.9 760.85 L2252.9 759.5 Q2255.6 755.8 2257.95 753.4 2258.75 751.6 2260.2 749.35 L2261.8 746.95 Q2263.1 745.05 2264.45 743.45 L2254.9 743.45 2253.2 743.55 2252.9 744.4 Q2251.55 749.45 2243.55 765.2 L2233.15 784.9 2232.6 784.9 Q2232.35 785.5 2232.35 784.4 2232.35 783.35 2237.35 774.15 L2243.35 762.8 2247.55 751.65 Q2248.6 749.0 2249.7 746.9 2246.55 751.1 2241.0 755.45 2234.7 760.4 2232.8 760.7 2232.35 762.45 2230.35 766.4 L2222.05 784.25 Q2211.9 805.0 2207.15 811.8 2211.7 803.35 2219.45 786.05 2229.05 764.55 2229.05 761.95 L2229.0 761.5 2229.75 760.55 2213.5 758.3 2193.95 755.1 2193.95 753.95 2194.75 753.85 2196.9 753.75 Q2204.75 753.75 2216.95 755.95 L2227.8 758.1 Q2231.2 758.1 2239.6 751.55 2247.15 745.7 2250.7 741.2 2250.75 740.6 2250.95 740.65 L2251.8 740.9 2254.4 740.95 2258.3 740.8 2262.9 739.55 2265.9 738.65 M671.15 1135.95 L670.8 1138.35 Q670.35 1141.1 670.35 1143.0 L669.9 1143.25 669.15 1143.65 Q668.1 1143.25 667.4 1142.75 L666.45 1144.65 664.85 1144.35 664.65 1144.65 Q664.4 1144.7 664.4 1143.3 L664.6 1140.1 Q663.5 1142.25 661.95 1143.45 L660.7 1143.0 661.3 1140.5 660.7 1140.3 661.6 1135.95 665.15 1118.25 666.75 1108.25 666.6 1105.4 Q666.55 1100.2 667.85 1097.3 L668.0 1094.85 669.6 1094.7 669.65 1094.75 670.6 1093.7 670.9 1094.15 672.4 1093.7 Q672.85 1094.7 672.95 1095.65 L673.05 1098.2 673.0 1100.45 673.05 1103.8 673.05 1107.1 672.6 1117.95 Q672.15 1124.7 672.15 1132.65 672.15 1134.0 671.6 1134.7 L671.25 1135.2 671.15 1135.95 M2223.6 750.7 L2228.95 750.35 Q2228.95 750.75 2229.45 751.4 L2230.05 752.4 2229.65 753.55 Q2229.4 754.2 2228.05 754.2 L2222.75 754.05 2221.4 752.6 Q2222.55 751.9 2223.6 750.7 M2212.3 748.8 Q2212.7 748.5 2213.5 748.55 L2217.25 749.25 2217.15 750.6 2215.3 750.95 2212.75 751.25 Q2212.3 750.6 2212.3 748.8 M2221.3 766.15 Q2220.0 766.9 2219.15 766.9 L2218.95 767.25 Q2218.7 767.3 2218.7 765.9 2218.7 764.45 2219.9 764.15 L2222.1 764.1 2222.75 764.85 Q2222.6 765.4 2221.3 766.15 M2225.55 795.25 Q2225.55 796.6 2224.8 797.25 L2222.75 797.25 2222.55 797.6 Q2222.3 797.65 2222.3 796.25 2222.3 794.7 2223.4 794.8 L2225.55 795.25 M2158.75 822.15 L2158.35 821.9 2158.3 820.45 Q2158.3 819.85 2158.6 819.6 L2160.9 818.55 2161.55 819.1 2160.45 821.9 2158.75 822.15 M2177.75 846.3 Q2175.75 846.05 2175.75 844.65 2176.5 843.9 2178.9 844.95 2178.5 846.1 2177.75 846.3 M2173.55 858.4 L2164.05 862.65 2163.5 862.9 Q2162.9 862.9 2162.9 861.5 2162.9 861.05 2165.0 858.75 2167.25 856.3 2169.55 854.55 2176.2 849.4 2176.2 855.2 2176.2 856.9 2173.55 858.4 M2178.05 890.3 Q2179.35 890.55 2179.8 891.0 2179.4 892.1 2178.65 892.35 L2176.3 892.5 Q2175.75 892.5 2175.75 891.1 2175.75 889.7 2176.3 889.85 2176.6 889.9 2176.85 890.1 L2178.05 890.3 M2184.95 895.8 L2186.2 896.95 Q2186.2 898.2 2185.05 898.75 L2182.45 897.0 2182.05 896.5 Q2182.05 895.15 2182.65 894.8 L2183.25 894.6 2184.95 895.8 M2179.05 902.85 L2175.65 899.55 2175.8 899.15 Q2177.25 899.7 2182.85 903.75 L2188.35 907.7 Q2188.2 908.65 2188.2 909.7 L2184.6 907.55 2178.9 903.3 2179.05 902.85 M2174.4 893.7 L2174.4 895.15 2174.55 895.5 2173.05 895.8 Q2170.2 895.8 2170.2 893.25 2171.15 892.75 2174.4 893.7 M2146.85 904.2 Q2152.9 907.1 2163.95 916.75 2173.1 923.35 2185.3 926.55 L2184.8 928.55 Q2174.0 924.95 2164.95 918.7 2160.9 915.9 2155.4 911.25 L2146.85 904.2 M2152.1 928.2 Q2154.15 927.8 2156.7 929.45 L2156.85 929.95 2156.95 931.5 2154.9 932.6 2153.05 931.1 Q2151.9 930.15 2151.9 929.45 L2151.95 928.2 Q2152.05 928.4 2152.1 928.2 M2150.3 933.3 L2152.65 933.3 2152.95 934.35 2153.25 936.3 Q2153.1 937.0 2151.45 937.2 2149.45 935.35 2149.2 934.5 2149.3 934.05 2149.85 933.7 L2150.3 933.3 M2177.55 937.65 L2177.75 936.3 2179.25 936.3 Q2180.3 936.4 2181.6 937.0 2181.5 938.0 2180.5 938.6 2179.5 939.15 2178.0 939.15 2177.55 938.35 2177.55 937.65 M2126.8 914.25 Q2126.35 913.5 2126.35 911.7 L2127.1 911.65 Q2127.9 911.7 2128.6 912.15 2128.6 913.5 2127.9 914.25 L2126.8 914.25 M2123.55 920.0 Q2126.25 920.0 2129.85 921.35 2134.4 923.05 2136.8 925.95 2136.7 926.3 2137.0 926.9 2137.05 927.3 2135.7 927.3 2132.15 927.3 2128.15 925.25 2124.6 923.5 2123.55 921.8 L2123.55 920.0 M2138.4 920.0 L2139.85 919.8 Q2140.95 920.9 2141.4 922.5 2141.2 923.15 2140.3 923.6 L2138.7 923.4 Q2138.25 923.2 2138.25 921.7 L2138.35 920.0 2138.4 920.0" fill="#6d4219" fill-rule="evenodd" stroke="none"/>
    <path d="M310.55 635.2 L306.05 620.4 306.45 619.85 Q307.3 621.55 309.7 624.45 309.15 621.55 309.15 620.8 309.15 619.65 309.65 619.6 L310.1 619.65 313.25 628.95 314.7 631.2 315.45 631.0 313.3 621.95 Q311.4 614.2 311.4 612.55 L311.4 611.4 311.65 611.1 Q312.05 610.8 312.8 610.65 315.4 615.3 317.6 623.05 L320.8 635.4 321.15 635.6 Q320.75 631.75 319.0 626.25 317.5 621.5 317.5 617.6 L317.6 615.85 318.45 615.05 Q319.9 616.05 320.85 618.7 L322.1 622.3 Q321.4 618.3 317.45 605.8 313.75 594.15 313.75 593.4 L313.85 592.2 314.05 592.2 Q318.85 598.4 322.35 611.15 L327.8 631.4 329.4 643.05 330.2 645.75 331.15 651.35 331.6 661.4 Q332.4 668.9 332.4 671.6 332.4 687.8 327.5 709.4 L325.45 717.95 Q323.65 725.95 321.65 731.8 L321.75 732.05 321.45 732.4 320.65 734.5 316.55 746.4 315.65 746.4 315.4 746.0 316.85 736.8 Q318.4 725.8 319.25 715.65 L319.45 711.4 319.8 707.95 320.25 701.5 320.15 696.7 320.25 694.2 320.25 693.05 320.2 688.85 Q320.0 673.5 318.2 662.5 316.35 651.15 312.75 642.95 L310.55 635.2 M353.4 642.55 L352.55 641.7 354.95 638.8 359.15 643.6 Q370.05 655.95 371.75 656.15 L371.45 656.65 371.3 657.0 370.75 657.75 370.15 658.55 370.25 658.85 369.6 660.1 369.3 660.05 368.95 660.0 368.25 660.7 368.5 661.3 368.75 661.85 Q367.65 664.2 367.65 665.25 L367.7 665.55 367.2 664.7 362.95 656.4 Q358.75 647.9 353.4 642.55 M363.9 624.5 L363.35 623.4 Q359.45 615.65 357.9 613.75 362.8 611.5 372.45 620.25 L377.35 625.25 Q381.5 630.15 381.9 633.9 L382.15 634.25 381.9 634.8 381.6 635.4 379.55 639.6 378.95 640.85 377.05 644.9 Q374.2 639.85 363.9 624.5 M382.85 624.45 Q381.55 620.6 381.55 619.0 L381.75 616.2 Q384.85 615.45 386.7 618.8 387.95 621.1 388.0 623.15 386.9 624.25 385.8 625.9 L384.25 628.4 383.2 625.5 382.85 624.45 M323.25 626.25 L325.1 637.1 Q325.55 637.3 326.05 636.9 325.35 634.85 324.45 630.8 L323.25 625.95 323.25 626.25 M317.5 698.2 L317.95 699.65 317.45 699.9 317.5 698.2 M368.8 603.75 Q370.4 604.0 371.15 604.95 371.85 605.9 372.05 607.75 L372.2 608.05 370.95 608.3 Q368.95 608.3 368.6 607.1 L368.6 605.7 368.65 604.2 368.8 603.75 M369.0 625.8 Q368.6 624.05 368.6 622.55 368.6 621.95 366.5 620.75 363.65 619.1 365.3 620.25 L367.1 623.65 368.5 626.3 369.0 625.8 M356.05 663.9 Q356.05 665.25 354.35 668.85 352.6 672.65 351.25 673.55 350.95 673.5 348.35 670.65 345.75 667.75 345.75 667.3 345.75 666.35 346.6 661.15 L347.4 655.0 345.85 649.45 Q344.25 644.45 344.25 642.25 347.7 642.4 352.0 651.15 356.05 659.35 356.05 663.9 M344.05 676.5 L345.15 675.75 Q346.6 676.8 347.2 677.9 347.6 678.55 347.6 679.0 L347.45 681.35 Q347.05 682.9 345.35 683.5 343.5 680.65 343.5 678.35 343.5 677.15 344.05 676.5 M334.5 748.2 L333.55 748.5 331.65 748.75 330.9 747.15 Q330.45 746.15 330.45 745.0 330.45 743.4 331.9 742.5 332.9 741.95 334.1 741.8 L334.6 742.85 334.65 744.75 334.5 748.2" fill="#825b00" fill-rule="evenodd" stroke="none"/>
    <path d="M354.95 638.8 L344.25 625.95 344.25 624.8 345.85 624.95 347.25 625.5 Q345.9 623.3 340.4 616.2 340.4 615.05 340.75 614.5 343.8 616.1 347.4 620.2 352.25 625.7 353.5 626.8 L355.65 626.4 Q353.0 621.9 349.0 613.95 L342.75 601.65 Q342.75 601.3 343.7 601.15 L344.8 601.1 Q342.9 598.9 341.4 596.0 L338.9 590.7 339.4 590.1 339.8 589.75 Q349.65 603.3 363.4 623.75 L363.9 624.5 Q374.2 639.85 377.05 644.9 L375.5 648.15 375.45 648.3 Q373.45 652.4 371.8 656.1 L371.75 656.15 Q370.05 655.95 359.15 643.6 L354.95 638.8 M344.7 739.15 L346.75 734.1 346.7 734.6 346.6 739.75 344.65 744.8 345.9 742.95 346.55 743.25 346.55 744.9 Q346.55 752.5 343.65 767.7 340.75 782.95 340.75 789.15 340.75 802.8 340.25 815.75 339.05 821.65 337.7 825.85 336.0 831.25 336.0 845.3 336.0 846.6 336.75 848.2 L337.9 850.6 337.85 851.15 337.55 852.0 337.1 852.5 335.6 852.75 Q334.4 852.75 333.45 851.4 334.65 856.8 336.15 861.55 336.0 862.1 334.65 862.3 331.25 853.65 329.2 837.65 327.45 823.9 327.45 811.65 327.45 788.8 334.1 767.5 336.75 758.9 341.85 746.15 L344.7 739.15 M327.1 922.05 L326.05 929.7 325.05 927.65 324.95 927.45 323.5 924.3 Q317.9 912.25 314.3 905.8 L314.3 905.3 Q314.3 893.0 313.55 889.7 L313.55 889.55 Q313.55 884.55 311.55 876.2 L311.05 872.7 Q309.3 861.1 306.85 850.8 305.55 839.7 304.75 835.65 303.4 823.55 302.25 817.5 300.25 806.95 293.5 799.4 286.1 786.4 280.2 777.55 L276.3 772.0 276.0 770.45 275.65 767.5 Q271.7 738.55 259.85 720.0 258.55 721.0 258.15 722.1 L257.95 721.9 257.9 720.45 Q257.9 718.5 258.05 717.25 L258.35 717.35 Q260.85 718.0 262.65 720.5 L262.2 718.4 Q261.75 716.25 261.75 715.3 L261.75 714.6 261.75 714.15 Q261.75 707.25 264.45 713.25 263.25 708.6 263.25 707.6 263.25 704.6 263.5 704.05 264.25 702.45 267.45 703.5 L267.4 705.9 Q267.05 707.65 267.05 708.35 267.05 712.4 283.45 762.25 L287.6 774.95 294.85 784.85 Q306.1 799.9 310.65 808.75 312.6 812.5 313.8 817.55 315.65 821.4 316.55 824.7 318.3 830.9 320.75 855.85 319.85 849.85 317.35 844.3 315.75 840.8 314.75 842.0 313.55 843.35 313.55 851.05 L314.3 858.5 Q315.7 865.75 318.8 865.75 L320.45 865.5 321.0 865.2 321.15 862.0 321.1 859.75 322.45 875.1 Q324.7 901.8 325.45 915.0 L327.1 922.05 M324.95 1016.05 L324.95 1022.25 324.4 1019.85 324.2 1014.05 324.95 1016.05 M328.7 1117.8 Q328.6 1118.5 328.15 1118.9 L327.6 1119.3 325.45 1119.85 325.65 1119.1 326.85 1118.4 Q328.25 1117.6 328.65 1116.7 L328.75 1117.2 328.7 1117.8 M316.15 1127.6 L314.7 1128.15 310.15 1128.15 316.15 1127.6 M285.05 647.45 L288.75 638.05 290.05 638.1 Q290.5 638.2 290.5 639.35 290.5 640.05 288.3 646.1 294.55 644.15 302.85 646.15 L302.8 644.4 Q302.8 640.95 304.55 638.65 L304.55 638.6 304.6 638.6 Q305.3 637.65 306.35 636.9 L306.85 636.6 306.8 634.5 Q306.8 633.6 306.05 631.5 305.3 629.4 305.3 628.3 L306.75 628.3 309.6 635.4 312.15 641.6 312.75 642.95 Q316.35 651.15 318.2 662.5 320.0 673.5 320.2 688.85 L320.25 693.05 320.25 694.2 320.15 696.7 320.25 701.5 319.8 707.95 319.45 711.4 319.25 715.65 Q318.4 725.8 316.85 736.8 L315.4 746.0 Q311.65 767.2 306.25 776.6 305.4 773.95 301.7 757.9 L301.35 756.3 Q294.65 737.55 282.15 722.3 274.0 713.05 271.15 709.4 266.5 703.45 266.5 699.0 266.5 696.6 275.05 673.55 L285.05 647.45 M304.0 656.15 L305.2 654.65 Q305.7 653.8 305.7 652.55 L305.45 651.1 305.15 650.5 303.25 650.3 Q302.7 650.6 302.5 651.25 L302.3 653.3 Q302.3 654.25 302.45 654.75 302.8 655.75 304.0 656.15 M302.85 678.85 L302.7 678.55 302.7 672.25 Q302.4 671.3 301.3 670.5 299.9 671.25 299.1 673.1 298.5 674.4 298.5 675.15 298.5 675.9 299.25 677.25 300.25 679.1 301.75 679.1 L302.85 678.85 M309.0 664.4 L307.85 664.4 307.65 676.55 306.8 680.3 Q305.3 686.8 305.3 690.05 305.3 701.7 305.65 705.35 306.5 714.25 309.75 718.85 311.9 715.9 312.4 708.5 L312.55 697.5 Q312.55 686.2 312.35 683.35 312.0 678.75 311.0 675.4 L310.95 673.9 Q310.55 668.4 309.0 664.4 M317.5 698.2 L317.45 699.9 317.95 699.65 317.5 698.2 M296.0 707.25 Q295.5 709.05 295.5 710.5 295.5 711.05 297.0 713.6 298.7 716.5 299.7 716.5 L301.1 716.25 301.1 710.25 299.55 707.25 Q298.3 705.1 297.15 704.8 296.5 705.35 296.0 707.25 M290.5 697.55 Q290.5 695.2 289.7 694.35 288.95 693.6 287.05 693.75 L287.05 697.0 287.55 697.8 Q287.85 698.15 289.0 698.15 L290.45 697.85 290.5 697.55 M259.75 742.3 L260.25 744.0 258.9 746.85 257.15 742.75 259.75 742.3 M270.85 782.05 L271.4 781.95 273.8 789.8 273.95 792.05 270.85 782.05 M280.3 817.25 L280.4 817.5 Q281.7 816.8 282.25 815.9 L281.35 811.65 283.15 814.35 Q283.0 815.95 283.0 817.65 L284.4 828.8 Q285.75 839.4 285.75 842.05 L285.75 842.15 285.7 842.1 Q284.8 841.55 283.7 841.65 L283.3 839.65 281.5 830.5 281.95 830.1 282.3 829.85 280.3 817.25 M348.55 608.25 L348.8 608.25 Q346.85 604.75 346.1 604.1 L348.55 608.25 M292.95 813.3 Q292.2 811.6 292.2 810.55 L292.3 808.85 292.4 808.55 Q295.3 806.95 296.85 809.8 L298.3 814.3 297.7 815.35 Q297.25 815.9 296.05 815.9 294.1 815.9 292.95 813.3 M279.1 797.35 L281.7 802.5 281.5 802.5 280.15 800.7 279.45 799.95 279.1 797.35 M313.1 835.1 Q314.25 835.1 314.65 834.65 314.9 834.15 315.05 834.15 L315.05 828.9 Q312.75 826.45 309.0 827.8 309.0 829.6 309.8 831.85 310.95 835.1 313.1 835.1 M301.3 878.6 Q301.3 877.55 302.05 876.85 303.25 875.8 305.5 876.9 305.9 878.05 305.9 880.95 L305.5 881.45 Q305.15 881.9 304.0 881.9 303.0 881.9 302.05 880.3 301.3 879.0 301.3 878.6 M297.55 887.05 L297.35 891.05 297.15 891.45 295.65 891.8 Q293.1 891.8 292.4 888.0 L292.2 884.5 Q292.2 879.55 294.9 880.35 297.55 881.1 297.55 887.05 M306.2 907.7 L305.15 907.95 Q302.55 907.95 301.3 901.4 L300.55 894.65 Q300.55 890.25 302.5 888.8 304.2 889.75 305.75 893.15 305.15 894.25 305.15 896.7 305.15 899.65 306.2 907.7 M317.1 956.1 L316.75 955.85 316.55 952.65 Q316.55 949.1 318.85 949.35 321.15 949.55 321.15 952.65 321.15 954.95 320.8 955.55 320.4 956.3 318.8 956.3 L317.1 956.1" fill="#7a5100" fill-rule="evenodd" stroke="none"/>
    <path d="M330.2 645.75 L330.25 644.3 Q330.25 641.6 329.3 638.65 L329.05 637.95 Q332.1 638.15 333.85 638.7 L341.25 639.55 Q343.15 639.55 347.65 641.05 351.45 642.3 353.4 642.55 358.75 647.9 362.95 656.4 L367.2 664.7 366.05 667.85 Q364.15 673.1 361.65 681.3 357.9 690.7 354.25 701.65 352.05 708.2 350.35 714.15 347.6 719.95 347.8 723.35 L347.75 723.7 Q345.65 732.2 344.7 739.15 L341.85 746.15 Q336.75 758.9 334.1 767.5 327.45 788.8 327.45 811.65 327.45 823.9 329.2 837.65 331.25 853.65 334.65 862.3 336.0 862.1 336.15 861.55 334.65 856.8 333.45 851.4 334.4 852.75 335.6 852.75 L337.1 852.5 337.55 852.0 337.85 851.15 Q336.5 864.35 334.55 876.7 L327.35 920.4 327.1 922.05 325.45 915.0 Q324.7 901.8 322.45 875.1 L321.1 859.75 320.75 855.85 Q318.3 830.9 316.55 824.7 315.65 821.4 313.8 817.55 312.6 812.5 310.65 808.75 306.1 799.9 294.85 784.85 L287.6 774.95 283.45 762.25 Q267.05 712.4 267.05 708.35 267.05 707.65 267.4 705.9 L267.45 703.5 Q264.25 702.45 263.5 704.05 263.25 704.6 263.25 707.6 263.25 708.6 264.45 713.25 261.75 707.25 261.75 714.15 L261.75 714.6 261.75 715.3 Q261.75 716.25 262.2 718.4 L262.65 720.5 Q260.85 718.0 258.35 717.35 L258.55 705.35 Q261.65 699.4 265.4 691.0 272.9 674.05 276.15 660.15 278.25 651.1 285.05 647.45 L275.05 673.55 Q266.5 696.6 266.5 699.0 266.5 703.45 271.15 709.4 274.0 713.05 282.15 722.3 294.65 737.55 301.35 756.3 L301.7 757.9 Q305.4 773.95 306.25 776.6 311.65 767.2 315.4 746.0 L315.65 746.4 316.55 746.4 320.65 734.5 321.45 732.4 321.75 732.05 321.65 731.8 Q323.65 725.95 325.45 717.95 L327.5 709.4 Q332.4 687.8 332.4 671.6 332.4 668.9 331.6 661.4 L331.15 651.35 330.2 645.75 M377.35 625.25 Q380.55 624.05 382.85 624.45 L383.2 625.5 384.25 628.4 Q382.85 630.8 382.85 631.95 L383.1 632.4 382.15 634.25 381.9 633.9 Q381.5 630.15 377.35 625.25 M370.75 657.75 L370.4 658.6 370.25 658.85 370.15 658.55 370.75 657.75 M369.6 660.1 L369.0 661.3 368.5 661.3 368.25 660.7 368.95 660.0 369.3 660.05 369.6 660.1 M340.25 815.75 Q339.55 833.8 337.9 850.6 L336.75 848.2 Q336.0 846.6 336.0 845.3 336.0 831.25 337.7 825.85 339.05 821.65 340.25 815.75 M329.2 1059.4 L330.05 1059.75 331.75 1059.15 329.65 1072.6 329.2 1059.4 M329.55 1094.0 L330.55 1097.2 334.1 1108.5 Q334.1 1113.45 331.5 1116.0 330.35 1117.1 328.7 1117.8 L328.75 1117.2 328.65 1116.7 328.75 1116.05 Q328.75 1114.25 327.25 1112.55 L328.3 1106.3 Q329.2 1099.8 329.55 1094.0 M327.6 1119.3 L326.95 1121.3 325.75 1123.0 Q325.75 1122.5 324.8 1121.7 L325.45 1119.85 327.6 1119.3 M272.55 825.9 L269.9 815.15 Q267.2 804.3 267.0 799.1 266.7 790.65 264.6 786.35 263.15 783.4 260.15 781.4 256.8 779.1 255.95 777.85 254.05 775.1 254.05 769.3 254.05 762.25 256.3 744.25 L257.4 734.15 259.75 742.3 257.15 742.75 258.9 746.85 257.9 748.95 Q257.9 750.15 262.85 765.65 268.1 782.15 269.7 782.15 L270.85 782.05 273.95 792.05 274.1 794.1 Q275.75 808.2 280.3 817.25 L282.3 829.85 281.95 830.1 281.5 830.5 283.3 839.65 283.7 841.65 Q281.95 841.8 279.8 843.65 L279.45 843.2 Q277.55 840.7 276.35 841.6 275.9 841.95 275.65 842.75 L273.9 831.35 272.55 825.9 M309.6 635.4 L310.55 635.2 312.75 642.95 312.15 641.6 309.6 635.4 M270.65 759.1 L270.8 760.5 270.75 761.85 270.45 762.55 268.55 762.9 266.5 762.55 Q266.3 762.45 266.3 760.55 266.3 757.8 270.45 758.7 L270.65 759.1 M344.05 676.5 Q343.5 677.15 343.5 678.35 343.5 680.65 345.35 683.5 347.05 682.9 347.45 681.35 L347.6 679.0 Q347.6 678.55 347.2 677.9 346.6 676.8 345.15 675.75 L344.05 676.5 M356.05 663.9 Q356.05 659.35 352.0 651.15 347.7 642.4 344.25 642.25 344.25 644.45 345.85 649.45 L347.4 655.0 346.6 661.15 Q345.75 666.35 345.75 667.3 345.75 667.75 348.35 670.65 350.95 673.5 351.25 673.55 352.6 672.65 354.35 668.85 356.05 665.25 356.05 663.9 M334.5 748.2 L334.65 744.75 334.6 742.85 334.1 741.8 Q332.9 741.95 331.9 742.5 330.45 743.4 330.45 745.0 330.45 746.15 330.9 747.15 L331.65 748.75 333.55 748.5 334.5 748.2 M317.3 802.1 L315.85 797.55 Q314.35 794.75 311.4 796.3 L311.35 796.5 311.25 798.05 Q311.25 798.6 312.85 801.0 314.6 803.6 315.45 803.6 316.6 803.6 316.95 803.05 L317.3 802.1 M293.7 837.35 L291.95 837.2 291.65 837.0 Q291.45 836.9 291.45 835.0 291.45 832.85 293.05 832.9 294.65 832.9 295.95 835.5 L295.65 836.6 295.2 837.15 293.7 837.35 M305.75 893.15 L306.1 892.6 Q307.0 891.7 308.2 893.1 311.25 896.65 311.25 906.05 L311.65 914.9 312.0 921.25 311.8 925.0 311.1 925.2 310.1 925.55 Q308.15 922.2 306.45 909.8 L306.2 907.7 Q305.15 899.65 305.15 896.7 305.15 894.25 305.75 893.15 M304.85 934.55 L304.0 933.8 303.85 933.35 303.65 931.85 303.75 930.15 303.8 929.8 Q305.7 929.8 306.95 930.95 308.0 931.9 308.25 933.25 L307.8 934.2 Q307.45 934.75 306.25 934.75 L304.85 934.55" fill="#896100" fill-rule="evenodd" stroke="none"/>
    <path d="M309.0 664.4 Q310.55 668.4 310.95 673.9 L311.0 675.4 Q312.0 678.75 312.35 683.35 312.55 686.2 312.55 697.5 L312.4 708.5 Q311.9 715.9 309.75 718.85 306.5 714.25 305.65 705.35 305.3 701.7 305.3 690.05 305.3 686.8 306.8 680.3 L307.65 676.55 307.85 664.4 309.0 664.4 M302.85 678.85 L301.75 679.1 Q300.25 679.1 299.25 677.25 298.5 675.9 298.5 675.15 298.5 674.4 299.1 673.1 299.9 671.25 301.3 670.5 302.4 671.3 302.7 672.25 L302.7 678.55 302.85 678.85" fill="#8f6e00" fill-rule="evenodd" stroke="none"/>
    <path d="M304.0 656.15 Q302.8 655.75 302.45 654.75 302.3 654.25 302.3 653.3 L302.5 651.25 Q302.7 650.6 303.25 650.3 L305.15 650.5 305.45 651.1 305.7 652.55 Q305.7 653.8 305.2 654.65 L304.0 656.15 M290.5 697.55 L290.45 697.85 289.0 698.15 Q287.85 698.15 287.55 697.8 L287.05 697.0 287.05 693.75 Q288.95 693.6 289.7 694.35 290.5 695.2 290.5 697.55 M296.0 707.25 Q296.5 705.35 297.15 704.8 298.3 705.1 299.55 707.25 L301.1 710.25 301.1 716.25 299.7 716.5 Q298.7 716.5 297.0 713.6 295.5 711.05 295.5 710.5 295.5 709.05 296.0 707.25" fill="#5b4511" fill-rule="evenodd" stroke="none"/>
    <path d="M326.05 929.7 Q323.5 949.5 323.5 964.05 323.5 975.4 324.35 982.55 L324.3 982.45 Q318.6 967.65 309.85 952.8 304.8 944.3 300.6 938.75 297.95 929.0 295.7 918.65 291.95 901.2 290.25 885.9 288.75 873.25 288.75 852.35 288.6 843.95 285.75 842.15 L285.75 842.05 Q285.75 839.4 284.4 828.8 L283.0 817.65 Q283.0 815.95 283.15 814.35 L281.35 811.65 282.25 815.9 Q281.7 816.8 280.4 817.5 L280.3 817.25 Q275.75 808.2 274.1 794.1 L273.95 792.05 273.8 789.8 271.4 781.95 270.85 782.05 269.7 782.15 Q268.1 782.15 262.85 765.65 257.9 750.15 257.9 748.95 L258.9 746.85 260.25 744.0 259.75 742.3 257.4 734.15 253.3 720.15 Q253.3 718.5 253.55 717.25 255.85 719.3 257.95 721.9 L258.15 722.1 Q258.55 721.0 259.85 720.0 271.7 738.55 275.65 767.5 L276.0 770.45 276.3 772.0 280.2 777.55 Q286.1 786.4 293.5 799.4 300.25 806.95 302.25 817.5 303.4 823.55 304.75 835.65 305.55 839.7 306.85 850.8 309.3 861.1 311.05 872.7 L311.55 876.2 Q313.55 884.55 313.55 889.55 L313.55 889.7 Q314.3 893.0 314.3 905.3 L314.3 905.8 Q317.9 912.25 323.5 924.3 L324.95 927.45 325.05 927.65 326.05 929.7 M325.75 1123.0 Q325.75 1123.8 324.45 1125.4 L322.4 1127.3 321.55 1128.15 320.95 1127.35 320.1 1127.35 321.55 1127.25 Q323.3 1125.4 324.8 1121.7 325.75 1122.5 325.75 1123.0 M320.75 855.85 L321.1 859.75 321.15 862.0 321.0 865.2 320.45 865.5 318.8 865.75 Q315.7 865.75 314.3 858.5 L313.55 851.05 Q313.55 843.35 314.75 842.0 315.75 840.8 317.35 844.3 319.85 849.85 320.75 855.85 M270.65 759.1 L270.45 758.7 Q266.3 757.8 266.3 760.55 266.3 762.45 266.5 762.55 L268.55 762.9 270.45 762.55 270.75 761.85 270.8 760.5 270.65 759.1 M324.2 1014.05 L324.4 1019.85 320.65 1005.3 324.2 1014.05 M327.25 1112.55 Q328.75 1114.25 328.75 1116.05 L328.65 1116.7 Q328.25 1117.6 326.85 1118.4 L325.65 1119.1 Q326.55 1116.25 327.25 1112.55 M317.3 802.1 L316.95 803.05 Q316.6 803.6 315.45 803.6 314.6 803.6 312.85 801.0 311.25 798.6 311.25 798.05 L311.35 796.5 311.4 796.3 Q314.35 794.75 315.85 797.55 L317.3 802.1 M292.95 813.3 Q294.1 815.9 296.05 815.9 297.25 815.9 297.7 815.35 L298.3 814.3 296.85 809.8 Q295.3 806.95 292.4 808.55 L292.3 808.85 292.2 810.55 Q292.2 811.6 292.95 813.3 M293.7 837.35 L295.2 837.15 295.65 836.6 295.95 835.5 Q294.65 832.9 293.05 832.9 291.45 832.85 291.45 835.0 291.45 836.9 291.65 837.0 L291.95 837.2 293.7 837.35 M313.1 835.1 Q310.95 835.1 309.8 831.85 309.0 829.6 309.0 827.8 312.75 826.45 315.05 828.9 L315.05 834.15 Q314.9 834.15 314.65 834.65 314.25 835.1 313.1 835.1 M279.1 797.35 L279.45 799.95 280.15 800.7 281.5 802.5 281.7 802.5 279.1 797.35 M281.2 1073.6 L281.05 1076.8 279.3 1085.3 281.2 1073.6 M297.55 887.05 Q297.55 881.1 294.9 880.35 292.2 879.55 292.2 884.5 L292.4 888.0 Q293.1 891.8 295.65 891.8 L297.15 891.45 297.35 891.05 297.55 887.05 M301.3 878.6 Q301.3 879.0 302.05 880.3 303.0 881.9 304.0 881.9 305.15 881.9 305.5 881.45 L305.9 880.95 Q305.9 878.05 305.5 876.9 303.25 875.8 302.05 876.85 301.3 877.55 301.3 878.6 M306.2 907.7 L306.45 909.8 Q308.15 922.2 310.1 925.55 L311.1 925.2 311.8 925.0 312.0 921.25 311.65 914.9 311.25 906.05 Q311.25 896.65 308.2 893.1 307.0 891.7 306.1 892.6 L305.75 893.15 Q304.2 889.75 302.5 888.8 300.55 890.25 300.55 894.65 L301.3 901.4 Q302.55 907.95 305.15 907.95 L306.2 907.7 M304.85 934.55 L306.25 934.75 Q307.45 934.75 307.8 934.2 L308.25 933.25 Q308.0 931.9 306.95 930.95 305.7 929.8 303.8 929.8 L303.75 930.15 303.65 931.85 303.85 933.35 304.0 933.8 304.85 934.55 M317.1 956.1 L318.8 956.3 Q320.4 956.3 320.8 955.55 321.15 954.95 321.15 952.65 321.15 949.55 318.85 949.35 316.55 949.1 316.55 952.65 L316.75 955.85 317.1 956.1" fill="#553900" fill-rule="evenodd" stroke="none"/>
    <path d="M324.35 982.55 L324.95 986.7 324.95 1016.05 324.2 1014.05 320.65 1005.3 324.4 1019.85 324.95 1022.25 324.95 1050.3 Q326.2 1051.3 326.35 1052.7 L326.2 1055.2 Q326.0 1057.9 329.2 1059.4 L329.65 1072.6 329.8 1086.55 329.55 1094.0 Q329.2 1099.8 328.3 1106.3 L327.25 1112.55 Q326.55 1116.25 325.65 1119.1 L325.45 1119.85 324.8 1121.7 Q323.3 1125.4 321.55 1127.25 L320.1 1127.35 316.15 1127.6 310.15 1128.15 302.05 1129.05 290.25 1130.25 Q281.2 1130.25 276.9 1126.75 L275.85 1125.8 Q273.55 1123.35 273.55 1120.5 273.55 1111.55 278.9 1087.05 L279.3 1085.3 281.05 1076.8 281.2 1073.6 Q282.55 1046.8 282.55 1039.5 L282.4 1024.65 Q281.05 1005.4 281.05 1003.65 281.05 1001.65 281.35 999.65 L281.3 998.65 280.9 998.85 278.8 999.75 Q275.7 988.5 271.3 931.65 267.35 879.95 267.35 865.5 L267.45 863.3 268.1 862.5 270.4 864.5 270.35 861.55 Q270.35 857.7 273.15 852.3 274.15 850.4 275.25 848.8 L275.05 847.65 Q275.05 844.3 275.65 842.75 275.9 841.95 276.35 841.6 277.55 840.7 279.45 843.2 L279.8 843.65 Q281.95 841.8 283.7 841.65 284.8 841.55 285.7 842.1 L285.75 842.15 Q288.6 843.95 288.75 852.35 288.75 873.25 290.25 885.9 291.95 901.2 295.7 918.65 297.95 929.0 300.6 938.75 304.8 944.3 309.85 952.8 318.6 967.65 324.3 982.45 L324.35 982.55" fill="#372500" fill-rule="evenodd" stroke="none"/>
    <path d="M490.55 860.6 Q491.85 859.45 493.7 860.35 495.55 861.25 496.75 863.0 498.65 861.5 501.2 861.75 503.9 862.05 505.4 864.1 506.25 865.3 506.5 866.85 L506.7 865.45 Q509.5 867.3 510.8 870.95 L511.5 870.95 Q512.2 878.5 512.2 894.7 L512.15 899.85 513.1 923.15 513.05 928.4 512.6 931.0 515.1 952.55 Q517.5 974.3 517.5 986.5 L517.55 994.05 Q517.1 998.05 515.55 999.7 L515.55 999.9 515.55 1007.95 Q514.85 1014.6 511.05 1014.6 L510.5 1014.45 511.05 1016.65 Q511.85 1019.9 513.95 1032.6 L514.6 1036.4 514.85 1037.7 515.65 1042.75 515.9 1044.3 517.25 1053.9 Q518.75 1054.85 519.25 1057.3 519.65 1059.35 519.3 1061.65 L518.95 1072.9 Q518.4 1085.1 517.15 1095.2 513.35 1126.9 504.65 1126.9 501.9 1126.9 500.55 1125.35 499.85 1124.6 499.35 1122.95 498.85 1124.25 497.95 1129.1 496.4 1133.3 492.3 1133.3 489.6 1133.3 487.25 1126.05 485.4 1120.35 485.4 1118.35 485.4 1113.75 489.35 1081.15 L492.8 1052.15 492.6 1048.5 493.0 1033.5 492.5 1030.55 492.05 1027.4 Q490.0 1023.3 488.7 1014.75 L487.2 998.85 487.2 998.35 487.2 997.85 Q487.2 997.1 487.35 996.45 L486.3 990.0 Q486.3 988.3 486.6 986.95 L486.3 985.15 486.35 984.3 Q485.05 980.75 484.65 972.9 484.6 948.2 482.7 930.35 L479.35 901.7 Q477.2 883.3 477.2 872.65 477.2 868.85 477.45 868.2 478.5 865.45 483.15 865.45 484.85 865.45 486.4 867.9 L486.6 868.0 487.75 868.1 489.35 868.6 489.15 865.2 Q489.15 861.9 490.55 860.6 M678.15 1081.25 L678.8 1080.9 678.15 1082.55 Q676.75 1086.2 675.75 1090.4 677.1 1090.6 678.15 1091.1 680.75 1092.35 681.7 1095.7 682.2 1097.5 682.2 1105.2 L682.05 1108.9 Q681.35 1111.65 678.95 1112.55 L678.65 1118.85 678.95 1121.4 679.5 1128.0 679.3 1134.85 Q678.3 1140.95 674.2 1140.95 L672.35 1140.85 672.15 1140.75 671.9 1139.45 671.9 1139.4 671.4 1138.95 670.35 1138.95 670.4 1137.95 670.35 1137.85 670.35 1137.8 Q669.9 1137.15 669.9 1136.35 L670.05 1134.05 669.9 1131.95 Q669.9 1122.75 670.95 1111.5 L671.05 1109.6 673.05 1093.75 673.5 1090.35 674.0 1090.35 674.1 1089.95 Q675.85 1082.75 678.15 1081.25 M276.75 852.0 L277.9 850.2 Q278.65 848.75 279.05 848.5 279.95 849.1 280.65 850.5 281.4 852.05 281.9 852.45 L282.25 852.9 Q284.8 850.35 285.6 849.95 L287.25 849.8 288.7 849.85 288.75 849.25 289.85 849.25 290.15 849.95 290.6 850.0 Q292.0 855.05 292.0 857.15 292.0 859.45 289.4 873.45 L288.8 881.5 Q286.85 909.3 285.15 920.05 281.8 941.35 282.8 953.4 283.6 961.5 281.65 971.7 280.85 975.85 279.85 979.3 L281.3 999.25 281.3 1000.2 281.3 1000.55 281.3 1000.85 281.25 1001.1 280.75 1002.0 280.35 1001.35 Q279.8 1002.4 279.8 1006.55 279.55 1007.05 278.3 1007.3 L276.95 1001.0 276.9 1001.15 276.0 1001.15 276.05 998.8 276.0 998.8 274.5 991.6 274.3 994.65 273.45 995.05 Q273.0 993.7 272.75 991.5 L272.55 991.65 272.4 997.3 271.4 997.3 270.95 991.7 Q270.7 991.55 270.6 991.4 270.25 991.05 270.25 989.9 L270.65 986.8 270.6 986.25 Q270.25 980.2 270.25 978.55 270.25 969.0 271.1 955.75 L270.05 953.8 Q269.85 961.75 268.2 971.6 L267.35 972.0 266.5 971.8 266.4 970.5 266.8 956.55 265.85 959.7 265.4 959.95 Q264.9 959.95 264.9 958.75 264.9 951.9 266.55 934.5 L267.3 927.55 267.4 917.4 Q267.25 912.55 267.25 904.75 L267.25 898.05 267.0 897.05 Q265.65 891.95 265.65 889.55 265.65 883.15 266.6 871.2 267.55 859.3 267.55 853.1 270.2 854.6 270.7 857.7 L270.9 857.85 Q270.85 852.55 273.0 849.25 L274.6 849.9 Q276.2 850.75 276.75 852.0 M243.8 849.65 L243.05 850.0 Q242.25 849.5 241.05 847.5 239.8 845.45 239.8 844.5 L240.55 844.3 240.55 841.55 Q242.55 841.85 244.1 844.7 L246.25 849.05 Q245.95 850.0 245.3 850.2 L244.0 848.6 244.0 849.5 243.8 849.65 M281.7 910.75 L281.7 910.85 281.7 910.75 M273.05 896.35 L273.1 896.3 273.1 895.6 273.05 896.35 M270.0 937.25 L269.9 939.25 Q269.9 943.65 270.05 945.15 L270.75 930.5 270.0 937.25 M281.55 1023.25 Q284.65 1030.75 284.7 1040.8 284.75 1045.15 284.4 1052.1 L284.4 1053.65 283.95 1063.8 283.8 1067.6 284.35 1069.85 284.6 1070.8 Q283.95 1073.15 283.55 1076.35 283.0 1080.7 283.0 1088.6 L282.9 1089.1 Q281.3 1097.1 279.6 1101.8 276.5 1117.3 275.25 1125.45 275.05 1126.0 273.75 1126.2 L273.4 1125.25 273.35 1123.3 Q273.35 1115.5 274.8 1098.65 276.4 1080.25 276.55 1075.0 L277.65 1074.8 Q278.0 1076.85 278.15 1080.15 279.05 1076.0 280.1 1072.8 L280.2 1067.3 280.3 1065.95 Q279.45 1061.95 279.45 1060.2 279.45 1058.1 280.35 1053.7 280.8 1051.55 281.3 1050.1 L281.55 1045.15 Q280.8 1041.55 279.45 1038.75 281.25 1038.05 281.6 1037.35 L281.7 1036.8 281.65 1034.15 281.2 1030.45 278.6 1017.8 280.2 1020.4 280.75 1020.35 281.55 1023.25" fill="#875c43" fill-rule="evenodd" stroke="none"/>
    <path d="M641.1 1143.2 L626.9 1142.15 629.0 1129.45 Q635.6 1089.05 636.6 1076.1 643.65 1062.45 650.7 1046.95 666.0 1013.4 666.0 1001.55 L665.85 1000.5 666.0 991.0 Q666.0 983.85 664.9 970.3 L663.3 949.15 663.25 948.1 667.55 937.65 673.0 918.1 671.25 884.8 Q671.25 881.9 672.6 880.4 673.3 879.65 674.15 879.5 675.1 876.6 676.5 877.85 678.15 879.25 679.0 883.2 L679.2 883.6 Q680.35 886.2 679.95 889.85 L680.05 894.4 680.45 901.8 Q678.4 908.85 678.6 919.0 678.65 921.1 675.4 934.5 672.15 947.95 672.15 951.5 672.15 959.75 673.5 976.35 674.85 992.9 674.85 1000.9 674.85 1006.95 661.05 1038.8 654.35 1054.15 645.85 1072.35 643.55 1076.9 642.15 1105.35 641.15 1126.2 641.1 1143.2 M671.7 1139.55 Q671.35 1140.3 670.35 1140.85 L670.35 1140.4 670.55 1139.95 671.7 1139.55 M657.45 1142.9 L656.4 1142.95 656.45 1142.75 656.7 1141.7 657.45 1142.9 M650.3 1143.15 L647.1 1143.2 Q648.15 1140.15 648.8 1136.65 649.25 1141.0 650.3 1143.15 M670.15 876.25 Q669.1 877.6 668.7 879.75 L667.6 884.15 Q667.95 877.9 670.15 876.25 M659.15 958.85 L659.75 965.75 658.8 959.7 659.15 958.85 M658.65 993.25 L658.65 993.0 658.65 992.85 658.85 993.3 658.65 993.25 M655.6 1069.05 L655.25 1070.35 655.05 1070.4 655.6 1069.05 M650.85 1090.8 L650.9 1090.8 650.8 1091.5 650.85 1090.8" fill="#6f441a" fill-rule="evenodd" stroke="none"/>
    <path d="M681.85 898.05 Q682.25 897.0 682.75 896.1 684.5 892.85 685.85 893.15 687.25 893.5 687.25 897.6 L686.4 908.55 686.4 908.8 686.4 908.95 686.7 909.85 Q689.0 916.25 690.85 923.85 689.6 922.35 688.05 923.3 685.65 924.75 684.05 931.0 682.2 938.05 682.2 948.35 682.2 956.9 684.85 977.75 687.45 998.6 687.45 1006.05 687.45 1008.05 678.9 1024.5 670.35 1040.9 670.35 1041.3 L669.8 1049.25 Q664.05 1061.7 662.05 1081.8 L658.85 1103.95 Q655.65 1126.55 655.65 1131.05 L655.45 1133.4 Q655.3 1136.05 655.65 1138.2 656.0 1140.25 656.7 1141.7 L656.45 1142.75 656.4 1142.95 Q655.4 1145.1 652.7 1145.1 651.25 1145.1 650.3 1143.15 649.25 1141.0 648.8 1136.65 648.15 1140.15 647.1 1143.2 646.05 1146.25 644.5 1148.85 L641.25 1147.6 Q641.1 1146.7 641.1 1144.45 L641.1 1143.2 Q641.15 1126.2 642.15 1105.35 643.55 1076.9 645.85 1072.35 654.35 1054.15 661.05 1038.8 674.85 1006.95 674.85 1000.9 674.85 992.9 673.5 976.35 672.15 959.75 672.15 951.5 672.15 947.95 675.4 934.5 678.65 921.1 678.6 919.0 678.4 908.85 680.45 901.8 681.05 899.8 681.85 898.05 M696.8 1014.3 Q694.4 1021.85 690.55 1031.9 L680.95 1056.7 678.15 1063.8 678.15 1066.95 678.15 1081.25 Q675.85 1082.75 674.1 1089.95 673.5 1088.95 673.5 1087.65 673.5 1079.95 674.5 1072.25 677.4 1058.05 679.15 1050.6 680.3 1046.65 681.75 1042.75 684.65 1034.85 688.6 1026.9 691.05 1021.85 698.4 1008.95 L696.8 1014.3 M678.15 1082.55 L678.15 1091.1 Q677.1 1090.6 675.75 1090.4 676.75 1086.2 678.15 1082.55 M665.45 1145.1 L664.05 1144.75 664.7 1144.35 665.6 1143.55 665.7 1143.95 665.45 1145.1 M695.4 947.9 Q693.9 940.25 693.9 939.6 L693.9 938.2 695.25 946.65 695.4 947.9 M655.6 1069.05 L655.05 1070.4 655.25 1070.35 655.6 1069.05 M650.85 1090.8 L650.8 1091.5 650.9 1090.8 650.85 1090.8 M670.55 1139.95 L670.35 1140.4 670.35 1140.0 670.55 1139.95" fill="#5e3915" fill-rule="evenodd" stroke="none"/>
    <path d="M680.05 894.4 L681.85 898.05 Q681.05 899.8 680.45 901.8 L680.05 894.4 M686.4 908.8 Q689.35 916.55 691.65 925.05 L690.85 923.85 Q689.0 916.25 686.7 909.85 L686.4 908.95 686.4 908.8 M693.6 932.8 L694.1 935.1 Q697.8 948.65 699.85 964.55 701.2 974.85 701.65 984.55 699.5 972.3 699.15 968.5 698.9 965.25 696.35 952.65 L695.4 947.9 695.25 946.65 693.9 938.2 693.6 932.8 M700.9 1004.45 Q700.15 1007.85 698.9 1010.35 L696.8 1014.3 698.4 1008.95 698.95 1008.0 700.9 1004.45 M680.95 1056.7 L678.15 1066.95 678.15 1063.8 680.95 1056.7 M682.65 841.45 Q684.45 841.55 684.45 846.9 L682.7 853.25 Q681.85 857.55 680.1 862.05 L677.4 870.15 677.0 869.9 Q677.9 866.05 677.9 864.2 L677.75 862.25 677.9 861.15 677.8 859.45 Q677.3 858.0 675.55 857.55 674.4 858.3 673.7 859.9 L672.6 862.4 Q671.2 860.25 669.2 862.05 671.7 856.2 674.65 850.95 L675.55 849.4 Q675.9 845.45 675.9 840.8 675.8 832.75 679.65 836.75 681.15 838.3 682.35 840.8 L682.65 841.45" fill="#533313" fill-rule="evenodd" stroke="none"/>
    <path d="M691.65 925.05 L692.05 925.95 Q693.15 928.55 693.6 932.8 L693.9 938.2 693.9 939.6 Q693.9 940.25 695.4 947.9 L696.35 952.65 Q698.9 965.25 699.15 968.5 699.5 972.3 701.65 984.55 L701.65 984.6 Q703.65 995.95 703.65 997.2 703.65 999.1 700.9 1004.45 L698.95 1008.0 698.4 1008.95 Q691.05 1021.85 688.6 1026.9 684.65 1034.85 681.75 1042.75 680.3 1046.65 679.15 1050.6 677.4 1058.05 674.5 1072.25 673.5 1079.95 673.5 1087.65 673.5 1088.95 674.1 1089.95 L674.0 1090.35 673.5 1090.35 673.05 1093.75 673.05 1093.25 Q673.05 1091.85 672.75 1091.75 L672.4 1091.9 672.15 1092.05 672.15 1091.9 670.05 1091.7 Q666.45 1095.0 665.55 1112.2 665.3 1117.2 665.3 1138.5 665.3 1141.6 665.6 1143.55 L664.7 1144.35 664.05 1144.75 662.4 1145.1 Q659.2 1145.1 657.45 1142.9 L656.7 1141.7 Q656.0 1140.25 655.65 1138.2 655.3 1136.05 655.45 1133.4 L655.65 1131.05 Q655.65 1126.55 658.85 1103.95 L662.05 1081.8 Q664.05 1061.7 669.8 1049.25 L670.35 1041.3 Q670.35 1040.9 678.9 1024.5 687.45 1008.05 687.45 1006.05 687.45 998.6 684.85 977.75 682.2 956.9 682.2 948.35 682.2 938.05 684.05 931.0 685.65 924.75 688.05 923.3 689.6 922.35 690.85 923.85 L691.65 925.05 M671.9 1139.45 L671.7 1139.55 670.55 1139.95 670.35 1140.0 670.35 1138.95 670.35 1138.7 670.35 1137.8 670.35 1137.85 670.4 1137.95 670.35 1138.95 671.4 1138.95 671.9 1139.4 671.9 1139.45" fill="#503112" fill-rule="evenodd" stroke="none"/>
    <path d="M670.35 1140.85 L670.25 1143.25 Q670.05 1144.2 669.45 1145.35 L669.15 1150.65 667.55 1150.85 667.3 1148.25 665.75 1148.05 Q665.3 1147.85 665.3 1146.35 L665.45 1145.1 665.7 1143.95 665.6 1143.55 Q665.3 1141.6 665.3 1138.5 665.3 1117.2 665.55 1112.2 666.45 1095.0 670.05 1091.7 L672.15 1091.9 672.15 1092.05 672.4 1091.9 672.75 1091.75 Q673.05 1091.85 673.05 1093.25 L673.05 1093.75 671.05 1109.6 670.95 1111.5 Q669.9 1122.75 669.9 1131.95 L670.05 1134.05 669.9 1136.35 Q669.9 1137.15 670.35 1137.8 L670.35 1138.7 670.35 1138.95 670.35 1140.0 670.35 1140.4 670.35 1140.85" fill="#6d4219" fill-rule="evenodd" stroke="none"/>
  </g>
</svg>
