<?xml version="1.0" encoding="UTF-8" standalone="no"?>
<svg xmlns:ffdec="https://www.free-decompiler.com/flash" xmlns:xlink="http://www.w3.org/1999/xlink" ffdec:objectType="shape" height="29.55px" width="164.6px" xmlns="http://www.w3.org/2000/svg">
  <g transform="matrix(1.0, 0.0, 0.0, 1.0, 4.5, -3.0)">
    <path d="M-0.9 10.7 L-1.15 12.0 -1.4 13.4 -1.45 14.55 -1.45 17.15 -1.3 20.65 -0.5 24.3 -0.2 24.5 2.0 25.5 5.3 26.25 5.55 26.45 6.15 26.55 150.4 26.55 151.5 26.05 154.4 24.35 155.5 22.55 156.0 21.95 156.65 15.7 Q156.65 10.8 153.9 7.6 L152.65 6.5 150.8 5.75 150.7 5.7 150.55 5.6 150.15 5.55 150.05 5.55 149.15 5.25 149.0 5.2 144.85 5.0 128.3 5.0 128.3 4.95 73.75 4.95 41.15 4.95 28.15 4.95 25.15 4.95 25.15 5.0 22.2 5.0 6.85 5.0 Q6.0 4.95 5.75 5.3 L5.75 5.45 5.35 5.4 4.45 5.5 4.05 5.6 3.8 5.7 Q2.7 5.9 2.4 6.4 L2.2 6.5 1.9 6.65 1.6 6.75 1.5 6.85 Q0.0 7.65 -0.05 8.6 L-0.4 8.85 -0.7 9.25 -0.45 9.4 Q-0.9 9.85 -0.9 10.5 L-0.9 10.7 M150.4 3.2 L151.5 3.3 Q151.95 2.75 153.0 3.6 L153.4 3.7 Q158.25 4.95 158.25 7.7 L158.1 8.25 Q159.7 10.45 159.7 12.5 159.7 13.05 159.2 13.05 L159.15 13.05 Q158.9 12.9 158.55 11.95 L158.85 14.35 158.9 15.15 159.15 17.8 Q160.1 17.25 160.1 19.25 159.0 25.4 158.1 26.5 L157.6 27.1 157.4 27.25 157.3 27.4 157.4 27.55 157.45 27.6 156.95 28.35 156.45 28.7 156.5 28.95 156.5 29.3 Q156.5 29.8 156.15 29.9 L155.9 29.55 155.85 29.45 155.75 29.1 155.2 29.65 153.8 30.9 153.25 31.25 Q151.15 32.55 149.85 32.55 L149.0 31.95 148.5 31.6 148.8 31.35 Q148.85 31.1 149.2 31.0 L138.25 32.0 135.05 32.0 134.45 31.9 134.1 31.75 129.75 31.3 128.3 31.3 128.1 31.3 126.15 31.25 118.4 31.25 118.4 31.8 118.0 31.85 117.45 31.9 116.35 32.0 113.9 32.0 112.9 31.95 112.55 31.95 73.75 31.95 73.75 31.85 54.2 31.85 41.15 31.85 41.15 31.8 28.15 31.8 19.2 31.5 16.6 31.3 14.75 31.4 13.5 31.2 13.5 31.4 Q13.45 31.7 12.95 31.7 L11.45 31.55 11.5 31.75 11.45 32.0 11.1 32.2 10.4 32.0 10.05 31.7 9.85 31.4 9.2 31.4 9.1 31.4 8.35 31.9 Q2.6 31.9 -1.4 28.0 L-2.9 26.4 Q-4.5 24.4 -4.5 22.8 L-4.25 21.4 -4.4 20.15 Q-4.4 19.45 -3.75 19.15 L-3.4 19.1 -2.95 19.3 -2.95 19.2 -3.05 15.25 -2.9 13.05 -3.05 12.65 -3.2 12.1 -3.2 10.6 -3.3 10.6 Q-4.3 10.55 -4.3 9.6 -4.3 7.6 -2.15 6.1 L-0.5 5.1 -0.25 5.0 Q0.95 4.45 2.5 4.0 5.15 3.2 7.15 3.3 L8.05 3.45 8.25 3.45 8.45 3.35 41.15 3.4 41.15 3.45 128.3 3.45 128.3 3.5 148.9 3.5 Q149.35 3.15 150.4 3.2 M156.6 24.65 L156.35 23.85 Q155.6 24.15 155.1 25.3 L154.95 25.7 153.95 26.55 Q152.8 27.65 151.5 27.8 L148.1 28.8 147.2 29.1 144.0 29.4 128.3 29.4 128.3 29.35 126.35 29.35 125.95 29.3 121.45 29.25 118.4 29.4 118.4 29.45 114.9 29.5 Q113.2 29.65 112.9 30.05 L114.9 30.5 121.15 30.5 121.25 30.45 125.95 30.5 125.95 30.55 127.55 30.5 128.5 30.6 128.7 30.5 144.35 30.5 145.2 30.4 146.5 30.6 Q150.0 30.6 153.2 28.8 155.2 27.65 155.85 26.7 L156.0 26.65 Q156.6 25.3 156.6 24.65 M11.65 28.6 L11.75 28.55 11.6 28.55 11.65 28.6" fill="#30313a" fill-rule="evenodd" stroke="none"/>
    <path d="M150.8 5.75 L150.8 5.8 151.4 6.05 Q153.6 7.05 154.0 7.9 154.2 8.25 153.55 8.25 153.25 8.25 151.85 7.55 150.35 6.85 149.3 6.75 L149.2 6.6 41.15 6.6 41.15 6.55 28.1 6.55 Q27.8 5.7 25.15 5.85 L25.15 5.75 23.15 5.75 Q21.1 5.85 20.3 6.5 L20.2 6.5 15.05 6.5 14.5 6.0 9.25 5.75 Q4.7 5.85 3.65 6.8 L1.7 7.4 Q0.2 8.1 0.2 8.75 L0.25 8.9 0.0 9.0 0.0 8.9 -0.05 9.05 -0.35 9.25 -0.45 9.4 -0.7 9.25 -0.4 8.85 -0.05 8.6 Q0.0 7.65 1.5 6.85 L1.9 6.65 2.2 6.5 2.4 6.4 Q2.7 5.9 3.8 5.7 L4.05 5.6 4.45 5.5 5.35 5.4 5.75 5.45 5.75 5.3 Q6.0 4.95 6.85 5.0 L22.2 5.0 25.15 5.0 25.15 4.95 28.15 4.95 41.15 4.95 73.75 4.95 128.3 4.95 128.3 5.0 144.85 5.0 149.0 5.2 149.15 5.25 150.05 5.55 150.15 5.55 150.55 5.6 150.7 5.7 150.8 5.75" fill="#636476" fill-rule="evenodd" stroke="none"/>
    <path d="M150.8 5.75 L152.65 6.5 153.9 7.6 Q156.65 10.8 156.65 15.7 L156.0 21.95 155.5 22.55 154.4 24.35 151.5 26.05 150.4 26.55 6.15 26.55 5.55 26.45 5.3 26.25 2.0 25.5 -0.2 24.5 -0.5 24.3 -1.3 20.65 -1.45 17.15 -1.45 14.55 -1.4 13.4 -1.15 12.0 -0.9 10.7 -0.85 11.05 -0.65 11.25 -0.4 11.25 0.15 10.3 1.3 9.5 11.25 7.55 14.8 7.55 15.15 7.45 15.3 6.95 15.05 6.5 20.2 6.5 19.75 6.8 19.7 6.8 19.75 6.85 20.25 7.3 20.6 7.5 25.15 7.5 25.15 7.45 26.55 7.55 Q28.15 7.55 28.15 6.85 L28.15 6.8 28.1 6.55 41.15 6.55 41.15 6.6 149.2 6.6 149.3 6.75 Q150.35 6.85 151.85 7.55 153.25 8.25 153.55 8.25 154.2 8.25 154.0 7.9 153.6 7.05 151.4 6.05 L150.8 5.8 150.8 5.75 M1.5 6.85 L1.6 6.75 1.9 6.65 1.5 6.85 M159.15 13.05 L159.15 13.35 Q159.15 14.1 158.85 14.35 L158.55 11.95 Q158.9 12.9 159.15 13.05 M157.6 27.1 L157.4 27.55 157.3 27.4 157.4 27.25 157.6 27.1 M156.95 28.35 L156.5 28.95 156.45 28.7 156.95 28.35 M155.9 29.55 L153.8 30.9 155.2 29.65 155.75 29.1 155.85 29.45 155.9 29.55 M149.0 31.95 L147.65 32.0 138.25 32.0 149.2 31.0 Q148.85 31.1 148.8 31.35 L148.5 31.6 149.0 31.95 M135.05 32.0 L116.35 32.0 117.45 31.9 118.0 31.85 118.4 31.8 118.4 31.25 126.15 31.25 128.1 31.3 128.3 31.3 129.75 31.3 134.1 31.75 134.45 31.9 135.05 32.0 M113.9 32.0 L11.45 32.0 11.5 31.75 11.45 31.55 12.95 31.7 Q13.45 31.7 13.5 31.4 L13.5 31.2 14.75 31.4 16.6 31.3 19.2 31.5 28.15 31.8 41.15 31.8 41.15 31.85 54.2 31.85 73.75 31.85 73.75 31.95 112.55 31.95 112.9 31.95 113.9 32.0 M10.4 32.0 L7.3 32.0 Q-1.1 32.0 -2.9 26.4 L-1.4 28.0 Q2.6 31.9 8.35 31.9 L9.1 31.4 9.2 31.4 9.85 31.4 10.05 31.7 10.4 32.0 M-3.4 19.1 L-3.4 12.2 -3.3 10.6 -3.2 10.6 -3.2 12.1 -3.05 12.65 -2.9 13.05 -3.05 15.25 -2.95 19.2 -2.95 19.3 -3.4 19.1 M-0.5 5.1 Q2.15 3.0 7.3 3.0 L147.65 3.0 150.4 3.2 Q149.35 3.15 148.9 3.5 L128.3 3.5 128.3 3.45 41.15 3.45 41.15 3.4 8.45 3.35 8.25 3.45 8.05 3.45 7.15 3.3 Q5.15 3.2 2.5 4.0 0.95 4.45 -0.25 5.0 L-0.5 5.1 M156.6 24.65 Q156.6 25.3 156.0 26.65 L155.85 26.7 Q155.2 27.65 153.2 28.8 150.0 30.6 146.5 30.6 L145.2 30.4 144.35 30.5 128.7 30.5 128.5 30.6 127.55 30.5 125.95 30.55 125.95 30.5 121.25 30.45 121.15 30.5 114.9 30.5 112.9 30.05 Q113.2 29.65 114.9 29.5 L118.4 29.45 118.4 29.4 121.45 29.25 125.95 29.3 126.35 29.35 128.3 29.35 128.3 29.4 144.0 29.4 147.2 29.1 148.1 28.8 151.5 27.8 Q152.8 27.65 153.95 26.55 L154.95 25.7 155.1 25.3 Q155.6 24.15 156.35 23.85 L156.6 24.65 M0.0 9.0 L-0.05 9.05 0.0 8.9 0.0 9.0 M11.65 28.6 L11.6 28.55 11.75 28.55 11.65 28.6" fill="#40414d" fill-rule="evenodd" stroke="none"/>
    <path d="M28.1 6.55 L28.15 6.8 28.15 6.85 Q28.15 7.55 26.55 7.55 L25.15 7.45 25.15 7.5 20.6 7.5 20.25 7.3 19.75 6.85 19.7 6.8 19.75 6.8 20.2 6.5 20.3 6.5 Q21.1 5.85 23.15 5.75 L25.15 5.75 25.15 5.85 Q27.8 5.7 28.1 6.55 M15.05 6.5 L15.3 6.95 15.15 7.45 14.8 7.55 11.25 7.55 1.3 9.5 0.15 10.3 -0.4 11.25 -0.65 11.25 -0.85 11.05 -0.9 10.7 -0.9 10.5 Q-0.9 9.85 -0.45 9.4 L-0.35 9.25 -0.05 9.05 0.0 9.0 0.25 8.9 0.2 8.75 Q0.2 8.1 1.7 7.4 L3.65 6.8 Q4.7 5.85 9.25 5.75 L14.5 6.0 15.05 6.5" fill="#9697a7" fill-rule="evenodd" stroke="none"/>
  </g>
</svg>
