<?xml version="1.0" encoding="UTF-8" standalone="no"?>
<svg xmlns:ffdec="https://www.free-decompiler.com/flash" xmlns:xlink="http://www.w3.org/1999/xlink" ffdec:objectType="shape" height="13.35px" width="20.8px" xmlns="http://www.w3.org/2000/svg">
  <g transform="matrix(1.0, 0.0, 0.0, 1.0, 12.25, 12.6)">
    <path d="M3.0 -5.4 L2.65 -5.15 Q2.4 -5.0 2.3 -4.95 L2.25 -4.95 2.2 -5.0 2.2 -5.05 Q2.4 -5.25 2.55 -5.35 2.7 -5.45 2.9 -5.5 L3.0 -5.5 3.0 -5.4 M8.25 -2.15 Q8.3 -2.25 8.35 -2.25 L8.4 -2.25 8.4 -2.2 Q8.55 -2.0 8.55 -1.7 L8.55 -1.5 8.5 -1.45 8.4 -1.45 8.35 -1.5 8.25 -2.1 8.25 -2.15 M4.55 0.3 L4.6 0.35 4.6 0.5 4.55 0.55 3.7 0.6 2.85 0.75 Q2.3 0.75 2.3 0.6 L2.3 0.55 2.35 0.55 4.5 0.3 4.55 0.3 M-12.1 -1.95 L-11.8 -1.55 -11.8 -1.5 -11.85 -1.45 -11.9 -1.45 Q-12.0 -1.5 -12.1 -1.65 -12.25 -1.8 -12.25 -1.9 L-12.25 -1.95 -12.1 -1.95 M-6.45 -12.6 L-6.4 -12.6 Q-6.15 -12.6 -6.15 -12.55 L-6.15 -12.45 -6.3 -12.4 -6.3 -12.35 -6.4 -12.35 -6.45 -12.3 -6.55 -12.3 -6.6 -12.35 -6.6 -12.4 -6.45 -12.6 M-8.35 -11.2 L-8.35 -11.15 -8.4 -11.15 -8.45 -11.1 Q-8.85 -11.1 -8.95 -11.25 L-8.95 -11.35 -8.9 -11.4 -8.85 -11.4 -8.4 -11.25 -8.35 -11.2 M-11.0 -9.5 L-10.95 -9.55 Q-10.7 -9.5 -10.7 -9.45 L-10.7 -9.35 -10.75 -9.35 -11.2 -9.2 -11.35 -9.25 -11.4 -9.25 -11.4 -9.35 -11.35 -9.35 -11.2 -9.45 -11.15 -9.45 -11.0 -9.5 M-10.5 -7.65 L-10.55 -6.9 -10.55 -6.85 -10.7 -6.85 -10.75 -6.9 -10.75 -7.55 -10.65 -7.65 Q-10.65 -7.75 -10.55 -7.75 L-10.5 -7.75 -10.5 -7.65 M-7.65 -6.75 L-7.75 -6.65 Q-8.0 -6.75 -8.2 -6.9 L-8.2 -6.95 Q-8.25 -7.0 -8.15 -7.05 L-8.1 -7.05 -7.7 -6.8 -7.65 -6.75" fill="#ff9a2b" fill-rule="evenodd" stroke="none"/>
  </g>
</svg>
