<?xml version="1.0" encoding="UTF-8" standalone="no"?>
<svg xmlns:ffdec="https://www.free-decompiler.com/flash" xmlns:xlink="http://www.w3.org/1999/xlink" ffdec:objectType="shape" height="22.5px" width="24.8px" xmlns="http://www.w3.org/2000/svg">
  <g transform="matrix(1.0, 0.0, 0.0, 1.0, 12.55, 22.2)">
    <path d="M11.65 -15.1 L11.7 -15.05 11.75 -14.9 11.75 -14.85 11.7 -14.8 11.65 -14.85 11.65 -14.9 Q11.55 -14.8 11.5 -14.55 L11.55 -14.25 11.55 -14.15 11.5 -14.1 11.5 -14.15 11.45 -14.2 Q11.35 -14.15 11.2 -13.95 L11.1 -13.7 Q11.0 -13.6 11.0 -13.45 11.0 -13.4 11.05 -13.3 11.1 -13.25 11.2 -13.25 L11.2 -13.05 Q11.2 -13.0 11.05 -13.0 10.95 -12.95 10.85 -12.9 L10.55 -12.85 10.35 -12.8 10.65 -13.1 Q10.95 -13.5 10.95 -13.7 L10.9 -13.9 10.8 -14.05 10.6 -14.0 10.55 -13.95 10.45 -13.9 Q10.35 -14.0 10.35 -14.05 10.35 -14.2 10.55 -14.4 L10.6 -14.55 10.6 -14.6 10.55 -14.7 10.35 -14.85 10.15 -14.9 10.05 -14.85 10.05 -14.9 9.7 -14.9 Q9.45 -14.95 9.35 -15.1 L9.4 -15.15 Q9.4 -15.35 8.8 -15.45 8.3 -15.5 8.2 -15.3 L7.95 -15.15 Q7.7 -15.0 7.45 -15.0 L7.1 -15.0 7.05 -15.05 6.85 -15.05 6.85 -15.1 Q7.4 -15.2 7.55 -15.3 7.65 -15.4 7.65 -15.6 7.65 -15.7 8.05 -15.9 L8.2 -15.9 8.2 -15.95 8.8 -15.95 8.85 -15.9 9.15 -15.7 9.25 -15.7 9.25 -15.65 Q9.55 -15.6 10.05 -15.5 L10.1 -15.5 Q10.1 -15.45 10.05 -15.45 L10.8 -15.45 10.8 -15.5 Q10.8 -15.55 10.75 -15.55 L10.7 -15.55 10.65 -15.6 Q10.65 -15.65 10.7 -15.65 11.0 -15.65 11.35 -15.45 L11.5 -15.3 11.55 -15.35 11.6 -15.25 11.65 -15.2 11.6 -15.2 11.65 -15.1 M0.6 -22.15 L0.65 -21.9 Q0.65 -21.85 0.55 -21.8 0.4 -21.75 0.3 -21.7 L0.25 -21.7 0.35 -21.85 0.4 -21.9 Q0.4 -22.0 0.3 -22.1 L0.05 -22.2 0.25 -22.15 0.6 -22.15 M1.65 -21.35 Q1.85 -21.15 2.05 -21.15 2.25 -21.15 2.35 -21.3 2.45 -21.45 2.7 -21.45 L2.7 -21.25 Q2.75 -21.15 2.8 -21.05 L2.65 -20.85 Q2.6 -20.9 2.6 -21.05 L2.45 -21.2 Q2.25 -21.2 2.2 -21.05 2.2 -20.95 2.15 -20.9 L2.0 -20.9 1.9 -21.05 Q1.75 -21.1 1.6 -21.1 L1.55 -21.35 Q1.5 -21.5 1.45 -21.6 L1.65 -21.35 M3.0 -21.0 L3.0 -21.05 Q3.15 -21.0 3.2 -20.8 3.2 -20.55 3.25 -20.55 L3.2 -20.35 Q3.1 -20.25 3.1 -20.15 3.15 -20.1 3.05 -20.1 2.85 -20.1 2.75 -20.3 2.8 -20.5 2.95 -20.65 3.05 -20.7 3.05 -20.9 L3.0 -21.0 M3.45 -19.6 L3.5 -19.55 3.5 -19.45 Q3.5 -19.3 3.25 -19.05 L3.2 -19.15 3.1 -19.3 3.15 -19.35 3.2 -19.3 Q3.2 -19.25 3.25 -19.25 3.4 -19.25 3.4 -19.4 L3.45 -19.55 3.45 -19.6 M3.35 -18.3 L3.3 -18.2 3.2 -18.05 3.15 -18.05 3.25 -18.2 Q3.3 -18.3 3.35 -18.3 M4.05 -14.85 L4.2 -14.75 Q4.25 -14.5 4.9 -14.5 5.15 -14.5 5.4 -14.65 L5.4 -14.7 5.45 -14.7 5.9 -15.1 Q5.8 -15.1 5.75 -15.15 L5.75 -15.25 Q5.95 -15.65 6.15 -15.45 L6.1 -15.4 6.05 -15.3 Q6.05 -15.15 6.15 -15.1 L6.35 -14.95 6.7 -14.9 6.85 -14.9 6.85 -14.85 Q6.25 -14.85 6.0 -14.6 5.9 -14.55 5.85 -14.45 L5.85 -14.3 6.1 -14.3 6.1 -14.25 5.85 -14.1 Q5.6 -14.0 5.5 -14.0 L5.35 -14.0 5.2 -14.1 Q5.2 -14.15 5.2 -14.2 4.75 -14.15 4.45 -13.95 4.25 -13.85 4.05 -13.65 4.15 -13.5 4.3 -13.45 4.3 -13.4 4.2 -13.4 3.75 -13.4 3.6 -13.6 3.55 -13.7 3.55 -13.9 3.55 -14.05 3.75 -14.05 3.95 -14.05 4.0 -14.2 L4.1 -14.35 Q4.1 -14.55 3.95 -14.65 L3.9 -14.75 3.9 -14.9 Q3.95 -14.95 4.05 -14.95 4.15 -15.0 4.15 -14.95 L4.1 -14.85 4.05 -14.85 M9.45 -15.2 L9.4 -15.2 9.4 -15.15 9.45 -15.2 M10.1 -12.65 L9.85 -12.45 9.85 -12.55 9.9 -12.6 Q9.95 -12.65 10.05 -12.7 L10.1 -12.65 M9.95 -12.0 L9.7 -11.75 9.4 -11.5 9.35 -11.5 9.55 -11.8 Q9.7 -11.9 9.7 -12.0 9.7 -12.1 9.55 -12.2 9.65 -12.35 9.8 -12.25 9.95 -12.2 9.95 -12.0 M9.45 -12.15 L9.4 -12.2 9.5 -12.2 Q9.5 -12.15 9.45 -12.15 M9.55 -11.7 L9.55 -11.65 Q9.65 -11.75 9.7 -11.8 L9.65 -11.8 9.55 -11.7 M9.25 -11.45 L9.25 -11.4 9.15 -11.35 Q9.1 -11.3 9.0 -11.25 L9.05 -11.4 Q9.1 -11.4 9.2 -11.45 L9.25 -11.45 M11.25 -10.35 L11.1 -10.35 10.9 -10.15 10.85 -10.15 10.85 -10.2 Q10.85 -10.25 10.9 -10.35 L10.95 -10.4 11.05 -10.45 11.25 -10.4 11.25 -10.35 M1.4 -0.6 L1.5 -0.5 1.55 -0.5 1.6 -0.45 1.2 -0.45 Q0.9 -0.4 0.8 -0.2 L0.75 -0.2 0.75 -0.3 Q0.75 -0.35 0.85 -0.5 1.05 -0.65 1.3 -0.55 1.35 -0.6 1.4 -0.6 M0.7 -0.05 Q0.8 -0.05 0.85 0.0 L0.95 0.05 0.75 0.3 0.6 0.25 0.8 0.15 0.7 0.0 0.7 -0.05 M2.8 -0.6 L2.8 -0.7 Q3.05 -0.65 3.1 -0.55 3.1 -0.5 3.0 -0.5 3.05 -0.35 3.3 -0.15 L3.3 -0.1 3.25 -0.1 Q3.05 -0.15 2.9 -0.3 2.75 -0.4 2.7 -0.55 L2.8 -0.6 M4.1 -0.95 Q4.05 -0.9 4.0 -0.8 L3.95 -0.7 3.9 -0.7 3.9 -0.9 Q3.95 -1.0 4.1 -0.95 M3.4 -0.15 Q3.5 -0.25 3.6 -0.2 L3.6 -0.15 3.55 -0.1 Q3.45 -0.1 3.4 -0.15 M5.6 -1.15 L5.75 -1.2 5.7 -1.05 Q5.6 -1.0 5.5 -1.0 5.4 -1.0 5.35 -1.05 L5.3 -1.15 5.3 -1.2 5.6 -1.25 Q5.6 -1.2 5.6 -1.15 M12.1 -13.8 L12.05 -13.55 12.0 -13.55 12.0 -13.65 Q12.0 -13.75 11.9 -13.85 L11.8 -13.95 Q11.8 -14.05 11.9 -14.1 L12.05 -13.95 12.1 -13.8 M12.25 -12.55 L12.25 -12.45 Q12.25 -12.35 12.2 -12.25 L12.15 -12.25 12.1 -12.6 12.1 -12.65 12.15 -12.65 Q12.25 -12.6 12.25 -12.55 M12.05 -12.05 L12.05 -12.15 12.1 -12.15 12.05 -12.05 M11.85 -11.35 L11.9 -11.4 Q12.1 -11.35 12.1 -11.25 L12.0 -11.05 11.9 -10.8 11.85 -10.8 Q11.8 -10.8 11.8 -10.85 L11.9 -10.95 11.95 -11.05 11.75 -11.25 11.85 -11.35 M11.75 -10.65 L11.7 -10.7 11.8 -10.65 11.75 -10.65 M-1.4 -21.35 Q-1.5 -21.35 -1.5 -21.4 -1.45 -21.45 -1.25 -21.45 -1.2 -21.5 -1.2 -21.6 L-1.1 -21.5 Q-1.05 -21.5 -0.9 -21.6 L-0.85 -21.55 -0.8 -21.45 Q-0.8 -21.4 -0.85 -21.35 L-0.95 -21.3 -1.0 -21.4 -1.35 -21.35 -1.4 -21.35 M-12.0 -10.0 Q-12.0 -10.1 -11.65 -10.6 L-11.25 -11.15 Q-10.95 -11.15 -10.95 -11.2 -10.9 -11.25 -10.95 -11.3 L-10.85 -11.4 -10.6 -11.45 -10.65 -11.35 -10.45 -11.3 Q-11.0 -11.1 -11.4 -10.65 -11.75 -10.3 -11.95 -9.95 L-12.0 -9.95 -12.0 -10.0 M-12.25 -9.1 L-12.3 -9.4 Q-12.3 -9.5 -12.25 -9.55 -12.15 -9.65 -12.0 -9.7 L-12.2 -9.1 -12.25 -9.1 M-12.4 -8.15 L-12.4 -8.05 -12.45 -8.0 -12.35 -7.7 -12.4 -7.65 -12.5 -7.85 -12.55 -8.05 -12.5 -8.15 -12.4 -8.15 M-12.1 -6.45 L-12.15 -6.45 Q-12.25 -6.55 -12.25 -6.65 L-12.25 -6.75 -12.2 -6.75 -12.1 -6.45 M-5.85 -0.8 L-5.85 -0.85 -5.8 -0.8 -5.7 -0.6 Q-5.65 -0.4 -5.55 -0.35 L-5.6 -0.3 Q-5.65 -0.3 -5.75 -0.4 -5.85 -0.45 -6.05 -0.5 L-6.05 -0.6 -5.95 -0.9 -5.85 -0.85 -5.85 -0.8 M-4.7 -1.6 L-4.7 -1.4 -4.75 -1.45 -4.9 -1.45 Q-5.1 -1.45 -5.4 -1.25 L-5.65 -0.95 -5.65 -1.1 Q-5.65 -1.35 -5.5 -1.45 -5.25 -1.6 -5.25 -1.75 L-5.05 -1.8 -5.0 -1.65 Q-4.8 -1.75 -4.7 -1.6 M-4.4 -0.9 L-4.4 -0.8 -4.3 -0.8 Q-4.25 -0.8 -4.2 -0.65 -4.1 -0.55 -4.1 -0.5 L-4.15 -0.45 -4.3 -0.6 Q-4.4 -0.7 -4.65 -0.7 -4.8 -0.7 -4.95 -0.55 L-5.0 -0.55 -5.0 -0.65 Q-5.0 -0.75 -4.6 -0.9 L-4.4 -0.9 M-3.0 -1.05 L-2.95 -1.15 Q-2.6 -1.1 -2.55 -1.05 L-2.55 -1.0 -3.15 -0.85 -3.3 -0.7 -3.4 -0.85 Q-3.4 -1.0 -3.25 -1.0 L-3.1 -1.0 Q-3.05 -1.0 -3.0 -1.05 M-4.0 -0.3 L-4.0 -0.2 -3.75 -0.2 -3.65 -0.3 -3.65 -0.2 Q-3.65 -0.05 -3.75 0.0 L-3.95 -0.05 -4.05 -0.3 -4.0 -0.3 M-2.3 -1.0 L-2.35 -1.0 -2.45 -1.05 -2.3 -1.05 -2.3 -1.0 M-1.25 -0.3 L-0.95 -0.3 -0.95 -0.25 -1.05 -0.05 -1.0 0.05 Q-0.9 0.15 -0.8 0.15 L-0.8 0.25 Q-1.35 0.15 -1.35 -0.15 -1.35 -0.25 -1.25 -0.3 M-0.85 -0.4 L-1.1 -0.65 -0.85 -0.9 -0.7 -0.65 Q-0.7 -0.55 -0.8 -0.4 L-0.85 -0.4 M-0.7 0.3 L-0.7 0.25 Q-0.65 0.2 -0.55 0.2 L-0.5 0.2 -0.6 0.3 -0.7 0.3" fill="#ffd327" fill-rule="evenodd" stroke="none"/>
  </g>
</svg>
