<?xml version="1.0" encoding="UTF-8" standalone="no"?>
<svg xmlns:ffdec="https://www.free-decompiler.com/flash" xmlns:xlink="http://www.w3.org/1999/xlink" ffdec:objectType="shape" height="22.3px" width="23.9px" xmlns="http://www.w3.org/2000/svg">
  <g transform="matrix(1.0, 0.0, 0.0, 1.0, 12.25, 22.3)">
    <path d="M11.65 -15.1 L11.45 -15.1 11.35 -15.0 11.35 -15.2 Q11.3 -15.25 11.25 -15.3 L11.45 -15.25 Q11.6 -15.15 11.65 -15.1 M0.55 -21.95 L0.5 -21.95 0.45 -22.0 0.55 -22.1 0.3 -22.25 0.3 -22.3 0.6 -22.25 0.65 -22.15 Q0.65 -22.05 0.55 -21.95 M1.55 -21.5 L1.75 -21.3 1.75 -21.25 Q1.75 -21.2 1.65 -21.2 L1.6 -21.25 1.55 -21.25 1.55 -21.45 1.5 -21.5 1.55 -21.5 M2.55 -21.5 L2.5 -21.55 Q2.45 -21.55 2.3 -21.3 2.15 -21.05 2.05 -21.05 1.9 -21.05 1.9 -21.1 L1.85 -21.15 2.1 -21.15 Q2.3 -21.35 2.3 -21.45 L2.3 -21.55 2.25 -21.6 2.3 -21.65 2.5 -21.6 2.55 -21.5 M2.95 -20.6 Q2.8 -20.45 2.9 -20.35 2.85 -20.3 2.8 -20.3 L2.7 -20.55 Q2.7 -20.65 2.85 -20.7 3.0 -20.75 2.95 -20.9 L3.0 -20.9 3.1 -20.8 2.95 -20.6 M3.85 -14.2 L3.8 -14.15 4.05 -14.2 4.05 -14.15 Q4.05 -14.05 3.9 -14.05 3.75 -14.0 3.7 -13.95 L3.65 -13.75 Q3.65 -13.65 3.75 -13.55 L3.7 -13.5 Q3.55 -13.6 3.55 -13.75 L3.5 -14.05 3.65 -14.15 3.85 -14.25 3.85 -14.2 M4.05 -14.9 L4.15 -14.65 Q4.2 -14.55 4.25 -14.55 4.45 -14.4 4.5 -14.4 L4.4 -14.4 Q4.25 -14.4 4.1 -14.55 3.95 -14.65 3.95 -14.7 3.95 -14.8 4.0 -14.8 L4.0 -14.9 4.05 -14.9 M5.65 -15.35 Q5.75 -15.4 5.85 -15.4 L5.75 -15.3 Q5.7 -15.25 5.7 -15.2 5.7 -15.15 5.75 -15.15 L5.85 -15.05 5.8 -15.0 5.65 -15.1 5.55 -15.2 Q5.55 -15.3 5.65 -15.35 M5.0 -14.35 L5.3 -14.55 Q5.15 -14.35 5.15 -14.3 5.15 -14.2 5.2 -14.15 5.3 -14.0 5.5 -14.05 L5.4 -13.95 5.1 -14.0 4.95 -14.1 Q4.95 -14.15 5.0 -14.2 L5.05 -14.3 5.05 -14.35 5.0 -14.35 M5.55 -14.5 L5.5 -14.5 5.65 -14.6 Q5.8 -14.65 5.8 -14.7 L5.7 -14.8 Q5.9 -14.85 6.0 -14.65 L5.85 -14.55 5.6 -14.5 5.55 -14.5 M7.0 -15.15 L7.25 -15.2 Q7.4 -15.25 7.5 -15.35 7.3 -15.4 7.3 -15.5 7.3 -15.65 7.45 -15.75 L7.85 -15.9 Q7.85 -15.95 7.85 -15.85 L7.7 -15.7 Q7.55 -15.6 7.55 -15.5 L7.55 -15.4 7.6 -15.3 Q7.25 -15.1 7.2 -15.1 L7.0 -15.15 M6.2 -14.9 L6.4 -14.85 6.35 -14.8 6.3 -14.85 6.2 -14.85 6.2 -14.9 M8.5 -15.65 L8.35 -15.6 8.3 -15.65 8.25 -15.65 8.55 -15.85 8.5 -15.85 8.45 -15.9 8.7 -15.9 Q8.8 -15.85 8.8 -15.8 L8.8 -15.65 Q8.9 -15.45 9.4 -15.4 L9.4 -15.35 9.35 -15.35 Q8.85 -15.4 8.7 -15.5 8.55 -15.55 8.65 -15.65 L8.5 -15.65 M9.9 -15.1 Q9.95 -15.1 10.15 -15.25 10.25 -15.35 10.6 -15.2 10.35 -15.1 10.0 -15.05 L9.9 -15.1 M9.35 -15.2 L9.7 -15.05 9.25 -15.0 9.15 -15.05 9.05 -15.15 Q9.15 -15.25 9.35 -15.2 M10.95 -15.4 L10.3 -15.4 Q10.2 -15.4 10.2 -15.45 L10.35 -15.5 10.3 -15.55 Q10.3 -15.6 10.4 -15.6 L10.5 -15.6 10.35 -15.7 Q10.5 -15.8 10.6 -15.65 10.75 -15.5 10.9 -15.45 L10.95 -15.45 10.95 -15.4 M10.6 -14.65 L10.6 -14.6 Q10.65 -14.55 10.75 -14.55 10.95 -14.55 10.95 -14.9 10.95 -15.1 10.85 -15.15 11.1 -15.1 11.1 -14.9 L11.05 -14.7 11.05 -14.55 Q11.05 -14.5 11.15 -14.35 L11.25 -14.2 11.15 -14.05 11.05 -13.8 11.0 -13.8 Q11.0 -13.9 11.0 -14.1 L11.0 -14.2 10.9 -14.3 10.8 -14.35 10.65 -14.35 10.5 -14.25 10.45 -14.25 10.45 -14.2 10.4 -14.15 10.45 -14.25 10.45 -14.35 Q10.45 -14.4 10.5 -14.55 L10.6 -14.65 M10.55 -14.5 L10.55 -14.5 M11.15 -13.45 L11.3 -13.3 Q11.2 -13.2 11.05 -13.1 L11.0 -13.1 Q10.95 -13.1 10.95 -13.15 L11.05 -13.25 10.95 -13.45 11.15 -13.45 M9.95 -12.0 L9.9 -12.0 Q9.85 -12.0 9.85 -12.05 9.85 -12.1 9.9 -12.1 L9.95 -12.2 9.85 -12.25 9.8 -12.3 9.8 -12.35 10.0 -12.4 Q10.0 -12.45 10.0 -12.35 10.0 -12.15 9.95 -12.0 M3.9 -13.45 L3.85 -13.45 4.0 -13.55 4.05 -13.5 4.05 -13.45 Q4.0 -13.45 3.95 -13.4 L3.9 -13.45 M1.35 -0.55 Q1.25 -0.6 1.25 -0.65 1.35 -0.65 1.4 -0.6 L1.35 -0.55 M0.85 -0.5 L0.85 -0.6 Q0.85 -0.65 0.95 -0.65 L1.05 -0.7 1.1 -0.65 0.9 -0.55 0.85 -0.5 M2.9 -0.55 L2.9 -0.7 3.0 -0.7 3.0 -0.5 Q3.0 -0.45 2.95 -0.45 L2.9 -0.55 M3.2 -0.3 Q3.15 -0.25 3.05 -0.25 L3.0 -0.35 3.05 -0.4 3.1 -0.4 3.2 -0.3 M-0.9 -21.5 L-0.95 -21.45 -1.05 -21.55 Q-0.95 -21.55 -0.9 -21.5 M-12.2 -10.1 L-12.25 -10.0 -12.2 -10.15 -12.15 -10.2 -12.2 -10.1 M-10.55 -11.5 L-10.5 -11.45 Q-10.55 -11.35 -10.65 -11.35 L-10.7 -11.35 -10.7 -11.45 -10.65 -11.5 -10.55 -11.5 M-11.05 -11.3 L-11.1 -11.25 Q-11.3 -11.2 -11.5 -11.05 L-11.7 -10.85 Q-11.75 -10.9 -11.55 -11.1 L-11.25 -11.3 -11.05 -11.3 M-5.95 -0.65 L-5.9 -0.45 -5.9 -0.4 Q-6.05 -0.45 -6.1 -0.5 L-6.1 -0.65 Q-6.1 -0.75 -6.05 -0.8 -5.95 -0.75 -5.95 -0.65 M-5.05 -1.85 L-5.05 -1.8 -5.1 -1.85 -5.2 -1.85 -5.15 -1.9 -5.05 -1.85 M-4.8 -1.65 Q-4.9 -1.7 -4.9 -1.75 L-4.85 -1.75 -4.8 -1.7 -4.8 -1.65 M-4.45 -0.95 L-4.45 -0.9 -4.5 -0.9 -4.65 -0.95 -4.7 -0.95 -4.5 -1.0 -4.45 -0.95 M-5.4 -1.7 L-5.4 -1.6 Q-5.4 -1.5 -5.55 -1.45 L-5.6 -1.5 -5.55 -1.6 Q-5.5 -1.7 -5.4 -1.7 M-3.05 -1.25 Q-2.9 -1.25 -2.8 -1.15 L-2.8 -1.1 -2.9 -1.1 -3.05 -1.25 M-3.35 -1.0 L-3.35 -1.05 Q-3.35 -1.15 -3.2 -1.15 L-3.2 -1.05 Q-3.25 -1.0 -3.3 -1.0 L-3.35 -1.0 M-4.15 -0.7 L-4.2 -0.65 Q-4.3 -0.75 -4.3 -0.8 L-4.25 -0.8 -4.15 -0.7 M-0.9 -1.0 Q-0.8 -1.0 -0.75 -0.85 L-0.85 -0.8 Q-0.95 -0.8 -0.9 -0.85 L-0.95 -0.9 -0.95 -0.95 Q-0.95 -1.0 -0.9 -1.0 M-1.2 -0.15 L-1.25 -0.15 -1.25 -0.3 -1.2 -0.3 -1.05 -0.2 Q-1.1 -0.2 -1.15 -0.2 L-1.2 -0.15 M-1.15 -0.1 L-1.1 0.0 -1.15 0.0 Q-1.2 0.0 -1.2 -0.1 L-1.15 -0.1" fill="#ffd327" fill-rule="evenodd" stroke="none"/>
  </g>
</svg>
