<?xml version="1.0" encoding="UTF-8" standalone="no"?>
<svg xmlns:ffdec="https://www.free-decompiler.com/flash" xmlns:xlink="http://www.w3.org/1999/xlink" ffdec:objectType="shape" height="14.85px" width="26.6px" xmlns="http://www.w3.org/2000/svg">
  <g transform="matrix(1.0, 0.0, 0.0, 1.0, 15.65, 14.55)">
    <path d="M4.45 -3.3 L4.45 -3.25 4.5 -3.2 4.45 -3.15 3.95 -2.6 3.85 -2.6 3.8 -2.65 3.8 -2.75 4.05 -3.05 4.4 -3.3 4.45 -3.3 M4.1 -0.75 L4.05 -0.8 4.1 -0.85 4.15 -0.85 4.4 -1.0 Q4.7 -1.2 4.8 -1.15 L4.9 -1.15 4.9 -1.1 Q4.9 -1.0 4.7 -0.85 L4.4 -0.7 4.15 -0.7 Q4.1 -0.7 4.1 -0.75 M9.65 -0.15 L9.75 -0.15 10.25 0.2 10.25 0.3 10.2 0.3 Q10.0 0.35 9.85 0.2 L9.6 -0.05 9.6 -0.1 9.65 -0.1 9.65 -0.15 M10.4 -0.15 L10.35 -0.15 10.35 -0.25 Q10.4 -0.35 10.6 -0.45 10.75 -0.55 10.85 -0.6 L10.9 -0.6 10.95 -0.55 10.95 -0.5 Q10.8 -0.25 10.45 -0.15 L10.4 -0.15 M-5.5 -14.55 Q-5.3 -14.55 -5.3 -14.45 L-5.25 -14.4 -5.3 -14.4 -5.45 -14.25 -5.55 -14.2 -5.6 -14.15 -5.7 -14.15 -5.7 -14.2 Q-5.7 -14.35 -5.55 -14.55 L-5.5 -14.55 M-13.5 -6.3 Q-13.35 -6.2 -13.35 -6.15 L-13.35 -6.05 -13.4 -6.05 Q-13.7 -6.1 -13.75 -6.25 L-13.75 -6.35 -13.6 -6.35 -13.5 -6.3 M-11.85 -5.0 L-12.0 -5.15 Q-12.0 -5.2 -11.9 -5.25 L-11.85 -5.25 Q-11.7 -5.2 -11.6 -5.05 L-11.6 -5.0 -11.65 -5.0 -11.65 -4.95 Q-11.75 -4.95 -11.85 -5.0 M-15.35 -6.7 L-15.35 -6.65 -15.4 -6.6 -15.45 -6.6 Q-15.65 -6.75 -15.65 -6.85 L-15.55 -6.95 -15.5 -6.9 Q-15.3 -6.75 -15.35 -6.7 M-10.05 -13.6 L-10.15 -13.55 -10.2 -13.55 Q-10.3 -13.5 -10.3 -13.6 L-10.35 -13.7 Q-10.35 -13.85 -10.15 -13.85 L-9.95 -13.8 -9.9 -13.75 -9.9 -13.7 Q-9.9 -13.65 -10.05 -13.6 M-7.8 -10.1 L-7.8 -10.05 -8.1 -10.05 -8.1 -10.1 Q-8.1 -10.15 -8.05 -10.2 L-8.0 -10.2 Q-7.8 -10.2 -7.8 -10.15 L-7.8 -10.1 M-6.3 -1.55 L-6.35 -1.6 -6.25 -1.7 -5.95 -1.7 Q-5.65 -1.65 -5.6 -1.6 L-5.6 -1.55 -5.65 -1.55 -5.7 -1.5 -6.25 -1.5 Q-6.3 -1.5 -6.3 -1.55" fill="#ff9a2b" fill-rule="evenodd" stroke="none"/>
  </g>
</svg>
