<?xml version="1.0" encoding="UTF-8" standalone="no"?>
<svg xmlns:ffdec="https://www.free-decompiler.com/flash" xmlns:xlink="http://www.w3.org/1999/xlink" ffdec:objectType="shape" height="15.65px" width="27.3px" xmlns="http://www.w3.org/2000/svg">
  <g transform="matrix(1.0, 0.0, 0.0, 1.0, 15.75, 15.15)">
    <path d="M5.45 -3.3 L5.45 -3.2 5.4 -3.15 5.35 -3.2 Q5.0 -3.35 4.85 -3.35 L4.8 -3.35 4.75 -3.4 Q4.75 -3.5 4.85 -3.5 L4.85 -3.55 5.15 -3.5 5.2 -3.5 5.45 -3.35 5.45 -3.3 M4.85 -2.15 L4.85 -2.2 4.9 -2.25 5.0 -2.25 Q5.25 -2.1 5.25 -1.9 L5.25 -1.75 5.2 -1.7 5.05 -1.7 5.05 -1.75 5.0 -1.95 4.9 -2.15 4.85 -2.15 M11.4 -1.5 L11.4 -1.35 Q11.4 -1.25 11.35 -1.1 L11.3 -1.0 11.25 -0.95 11.15 -0.95 11.1 -1.0 11.1 -1.05 11.2 -1.45 11.25 -1.5 11.4 -1.5 M11.5 0.15 L11.55 0.15 11.55 0.25 11.3 0.5 10.75 0.5 10.7 0.45 10.7 0.3 10.75 0.25 10.8 0.25 10.85 0.3 11.3 0.2 11.5 0.15 M-9.6 -14.2 L-9.55 -14.2 -9.5 -14.15 Q-9.5 -14.1 -9.55 -14.0 -9.55 -13.9 -9.7 -13.85 L-9.75 -13.85 -9.8 -13.9 -9.8 -13.95 -9.75 -14.0 -9.75 -14.05 -9.65 -14.2 -9.6 -14.2 M-4.6 -15.1 Q-4.5 -15.2 -4.45 -15.15 L-4.4 -15.15 -4.35 -15.1 Q-4.4 -15.0 -4.5 -14.95 L-4.5 -14.9 -4.65 -14.8 -4.65 -14.75 -4.8 -14.75 -4.8 -14.8 -4.85 -14.85 -4.85 -14.9 -4.65 -15.1 -4.6 -15.1 M-15.5 -7.5 L-15.5 -7.45 -15.6 -7.25 -15.75 -7.25 -15.75 -7.4 Q-15.75 -7.6 -15.65 -7.6 L-15.6 -7.55 -15.55 -7.55 -15.5 -7.5 M-14.05 -7.55 L-14.05 -7.5 -14.0 -7.4 Q-14.05 -7.25 -14.05 -7.0 L-14.1 -6.95 -14.1 -6.9 -14.2 -6.9 -14.25 -6.95 -14.25 -7.0 -14.3 -7.0 -14.3 -7.05 -14.35 -7.05 -14.35 -7.4 -14.3 -7.45 -14.2 -7.45 Q-14.2 -7.55 -14.1 -7.55 L-14.05 -7.55 M-11.6 -4.75 L-11.5 -4.85 -11.45 -4.85 -11.4 -4.8 -11.4 -4.75 Q-11.4 -4.65 -11.4 -4.5 L-11.4 -4.45 -11.55 -4.45 -11.6 -4.5 -11.6 -4.75 M-6.9 -10.0 L-7.35 -10.05 -7.4 -10.05 -7.45 -10.15 Q-7.5 -10.2 -7.4 -10.25 L-7.35 -10.25 Q-7.1 -10.2 -6.9 -10.1 L-6.85 -10.05 -6.85 -10.0 -6.9 -10.0 M-4.55 -1.45 Q-4.5 -1.4 -4.55 -1.4 L-4.55 -1.35 -5.15 -1.35 -5.2 -1.4 -5.2 -1.5 -5.15 -1.55 -5.0 -1.55 -4.8 -1.5 Q-4.55 -1.5 -4.55 -1.45" fill="#ff9a2b" fill-rule="evenodd" stroke="none"/>
  </g>
</svg>
