<?xml version="1.0" encoding="UTF-8" standalone="no"?>
<svg xmlns:ffdec="https://www.free-decompiler.com/flash" xmlns:xlink="http://www.w3.org/1999/xlink" ffdec:objectType="shape" height="8.65px" width="26.0px" xmlns="http://www.w3.org/2000/svg">
  <g transform="matrix(1.0, 0.0, 0.0, 1.0, 13.15, 9.55)">
    <path d="M2.9 -2.4 Q3.05 -2.55 3.15 -2.6 L3.2 -2.6 3.2 -2.55 3.25 -2.5 Q3.25 -2.45 3.05 -2.3 L2.8 -2.15 2.7 -2.15 2.7 -2.25 2.9 -2.4 M4.6 -2.75 L4.6 -2.7 Q4.8 -2.6 4.9 -2.55 L4.95 -2.5 4.95 -2.45 4.9 -2.4 Q4.6 -2.3 4.55 -2.45 L4.5 -2.6 4.45 -2.6 Q4.45 -2.7 4.55 -2.7 L4.6 -2.75 M10.7 -1.75 L10.7 -1.6 10.35 -1.35 10.25 -1.35 10.25 -1.45 10.4 -1.6 Q10.55 -1.75 10.65 -1.75 L10.7 -1.75 M12.7 -2.05 L12.8 -1.9 Q12.9 -1.75 12.85 -1.65 L12.8 -1.6 Q12.8 -1.55 12.75 -1.55 L12.7 -1.6 12.6 -1.8 Q12.5 -1.95 12.55 -2.0 L12.55 -2.05 12.6 -2.1 12.65 -2.1 12.7 -2.05 M-13.1 -8.6 L-13.15 -8.65 -13.1 -8.7 Q-13.1 -8.75 -12.95 -8.8 L-12.75 -8.75 -12.7 -8.75 -12.65 -8.7 -12.65 -8.6 -13.1 -8.6 M-12.25 -4.7 L-12.1 -4.7 -12.1 -4.65 -12.05 -4.5 -12.05 -4.4 -12.0 -4.35 -12.05 -4.3 -12.05 -4.25 -12.15 -4.25 -12.2 -4.3 Q-12.25 -4.4 -12.25 -4.65 L-12.25 -4.7 M-5.15 -9.4 L-5.15 -9.45 -5.1 -9.45 -4.85 -9.5 -4.7 -9.55 -4.6 -9.55 -4.6 -9.45 -4.85 -9.2 -4.9 -9.2 -5.15 -9.25 Q-5.2 -9.3 -5.2 -9.4 L-5.15 -9.4 M-0.6 -1.15 L-0.85 -0.95 -0.9 -0.9 Q-1.0 -0.85 -1.05 -0.95 L-1.05 -1.1 Q-0.75 -1.3 -0.65 -1.3 L-0.6 -1.25 -0.6 -1.15" fill="#ff9a2b" fill-rule="evenodd" stroke="none"/>
  </g>
</svg>
