<?xml version="1.0" encoding="UTF-8" standalone="no"?>
<svg xmlns:ffdec="https://www.free-decompiler.com/flash" xmlns:xlink="http://www.w3.org/1999/xlink" ffdec:objectType="shape" height="10.0px" width="24.1px" xmlns="http://www.w3.org/2000/svg">
  <g transform="matrix(1.0, 0.0, 0.0, 1.0, 11.7, 10.6)">
    <path d="M5.1 -3.75 L5.15 -3.7 5.15 -3.65 Q5.1 -3.45 5.0 -3.35 L4.8 -3.35 4.75 -3.4 4.75 -3.45 Q4.9 -3.65 5.05 -3.75 L5.1 -3.75 M0.5 -2.0 L0.55 -2.05 0.6 -2.05 0.65 -2.0 1.0 -1.7 1.0 -1.65 0.95 -1.65 0.65 -1.7 Q0.45 -1.8 0.45 -1.95 L0.5 -2.0 M11.3 -0.6 L10.95 -0.6 10.95 -0.65 10.85 -0.75 10.95 -0.85 11.05 -0.8 11.25 -0.85 11.35 -0.85 11.4 -0.8 11.4 -0.75 11.3 -0.6 M12.15 -2.85 L12.4 -2.6 12.4 -2.55 12.35 -2.5 12.3 -2.5 Q12.1 -2.6 12.0 -2.75 L12.1 -2.85 12.15 -2.85 M-11.6 -6.75 L-11.5 -6.75 -11.45 -6.7 -11.45 -6.45 -11.5 -6.35 -11.55 -6.35 -11.6 -6.3 -11.65 -6.3 -11.7 -6.35 -11.7 -6.4 -11.65 -6.55 -11.65 -6.7 -11.6 -6.75 M-4.25 -10.45 L-4.25 -10.4 -4.3 -10.4 -4.35 -10.35 -4.4 -10.4 -4.55 -10.45 -4.6 -10.45 -4.6 -10.5 -4.55 -10.6 -4.5 -10.6 Q-4.25 -10.6 -4.25 -10.5 L-4.25 -10.45" fill="#ff9a2b" fill-rule="evenodd" stroke="none"/>
  </g>
</svg>
