<?xml version="1.0" encoding="UTF-8" standalone="no"?>
<svg xmlns:ffdec="https://www.free-decompiler.com/flash" xmlns:xlink="http://www.w3.org/1999/xlink" ffdec:objectType="shape" height="10.5px" width="24.0px" xmlns="http://www.w3.org/2000/svg">
  <g transform="matrix(1.0, 0.0, 0.0, 1.0, 11.65, 11.25)">
    <path d="M5.05 -4.05 L5.1 -4.1 5.15 -4.1 5.2 -4.05 5.25 -4.05 5.3 -4.0 5.3 -3.7 5.1 -3.7 5.1 -3.75 5.05 -4.0 5.05 -4.05 M0.4 -3.05 L0.45 -3.05 0.5 -3.0 0.5 -2.95 Q0.4 -2.7 0.4 -2.5 L0.35 -2.45 0.2 -2.45 Q0.15 -2.55 0.2 -2.75 0.3 -3.0 0.4 -3.05 M11.65 -4.05 L11.75 -3.95 Q11.75 -3.85 11.85 -3.5 L11.85 -3.45 11.8 -3.4 11.7 -3.4 11.7 -3.45 Q11.55 -3.7 11.55 -3.95 L11.65 -4.05 M12.35 -1.1 L12.35 -1.0 12.15 -0.85 12.1 -0.8 Q12.0 -0.75 12.0 -0.8 11.95 -0.85 11.95 -0.9 11.95 -1.1 12.3 -1.1 L12.35 -1.1 M-11.65 -7.6 L-11.6 -7.6 -11.55 -7.65 -11.5 -7.6 -11.4 -7.55 -11.4 -7.25 -11.55 -7.25 -11.6 -7.3 Q-11.6 -7.4 -11.65 -7.55 L-11.65 -7.6 M-5.05 -11.25 L-5.05 -11.2 -5.0 -11.2 -4.9 -11.0 -4.7 -10.8 -4.7 -10.75 -4.75 -10.7 -4.8 -10.7 Q-4.9 -10.75 -5.05 -10.9 -5.2 -11.05 -5.2 -11.15 L-5.1 -11.25 -5.05 -11.25" fill="#ff9a2b" fill-rule="evenodd" stroke="none"/>
  </g>
</svg>
