<?xml version="1.0" encoding="UTF-8" standalone="no"?>
<svg xmlns:ffdec="https://www.free-decompiler.com/flash" xmlns:xlink="http://www.w3.org/1999/xlink" ffdec:objectType="shape" height="19.25px" width="8.3px" xmlns="http://www.w3.org/2000/svg">
  <g transform="matrix(1.0, 0.0, 0.0, 1.0, -1.4, 21.95)">
    <path d="M7.1 -21.25 Q8.05 -20.8 8.25 -20.45 L8.25 -20.35 8.2 -20.3 8.15 -20.3 8.15 -20.35 7.6 -20.7 Q7.25 -20.95 7.05 -21.1 L7.0 -21.1 7.0 -21.15 Q6.95 -21.2 7.05 -21.25 L7.1 -21.25 M1.4 -21.75 L1.4 -21.8 Q1.4 -21.9 1.45 -21.9 L1.5 -21.95 Q2.35 -21.9 2.95 -21.75 3.25 -21.65 3.65 -21.5 L3.7 -21.45 3.7 -21.4 3.65 -21.35 3.6 -21.35 3.05 -21.55 Q2.65 -21.65 1.45 -21.75 L1.4 -21.75 M9.4 -14.9 L9.45 -14.85 9.65 -13.9 9.7 -13.3 Q9.7 -12.6 9.6 -12.25 L9.55 -12.25 9.55 -12.2 9.4 -12.2 9.4 -12.55 Q9.4 -13.8 9.25 -14.8 L9.35 -14.9 9.4 -14.9 M7.8 -13.1 L7.85 -13.1 7.85 -12.2 Q7.85 -11.95 7.7 -11.7 L7.65 -11.65 7.5 -11.65 7.5 -11.7 Q7.6 -12.0 7.65 -12.35 L7.65 -13.05 7.7 -13.05 7.7 -13.1 7.8 -13.1 M7.65 -2.8 L7.65 -2.75 7.6 -2.7 Q7.55 -2.7 7.05 -2.7 L7.0 -2.75 7.0 -2.8 Q7.0 -2.85 7.05 -2.9 L7.1 -2.9 Q7.6 -2.9 7.65 -2.8" fill="#ff9a2b" fill-rule="evenodd" stroke="none"/>
  </g>
</svg>
