<?xml version="1.0" encoding="UTF-8" standalone="no"?>
<svg xmlns:ffdec="https://www.free-decompiler.com/flash" xmlns:xlink="http://www.w3.org/1999/xlink" ffdec:objectType="shape" height="21.9px" width="19.3px" xmlns="http://www.w3.org/2000/svg">
  <g transform="matrix(1.0, 0.0, 0.0, 1.0, 9.35, 21.25)">
    <path d="M4.25 -21.2 Q4.8 -20.9 4.95 -20.75 L4.95 -20.65 4.9 -20.6 4.8 -20.6 4.5 -20.85 4.2 -21.0 4.15 -21.05 4.15 -21.2 4.2 -21.25 4.25 -21.2 M9.4 -18.5 L9.4 -18.45 9.45 -18.45 9.9 -17.4 9.95 -17.35 9.9 -17.3 9.9 -17.25 9.75 -17.25 9.75 -17.3 Q9.7 -17.5 9.55 -17.85 L9.3 -18.4 9.25 -18.45 9.3 -18.45 9.35 -18.5 9.4 -18.5 M9.5 -11.6 L9.3 -10.3 Q9.1 -9.5 8.85 -9.0 L8.8 -8.95 8.75 -9.0 8.7 -9.0 8.7 -9.05 Q8.85 -9.5 9.05 -10.4 9.2 -11.3 9.4 -11.65 L9.4 -11.7 9.45 -11.7 Q9.5 -11.7 9.5 -11.65 L9.5 -11.6 M6.9 -9.45 Q6.8 -9.35 6.75 -9.0 6.7 -8.75 6.6 -8.55 L6.55 -8.55 6.5 -8.5 6.45 -8.55 Q6.4 -8.55 6.4 -8.6 L6.4 -8.65 Q6.4 -8.9 6.45 -9.05 6.55 -9.45 6.8 -9.55 L6.85 -9.55 6.9 -9.5 6.9 -9.45 M8.4 -2.45 L8.75 -2.1 Q8.75 -2.0 8.6 -1.95 L8.25 -2.3 8.25 -2.35 Q8.25 -2.4 8.3 -2.45 L8.4 -2.45 M-3.65 -11.7 L-3.6 -11.75 -3.5 -11.75 -3.45 -11.7 Q-3.15 -10.8 -3.15 -10.5 L-3.15 -10.35 -3.2 -10.35 -3.25 -10.3 -3.3 -10.3 -3.35 -10.35 -3.35 -10.4 Q-3.35 -10.85 -3.65 -11.65 L-3.65 -11.7 M-5.55 -9.45 L-5.25 -9.25 -4.9 -9.0 -4.9 -8.85 -5.0 -8.85 -5.3 -9.0 Q-5.6 -9.2 -5.7 -9.3 L-5.7 -9.4 -5.65 -9.45 -5.55 -9.45 M-5.1 -8.6 L-5.15 -8.6 Q-5.6 -8.7 -6.95 -9.15 L-7.0 -9.2 -7.0 -9.25 -6.95 -9.35 -6.9 -9.35 -5.1 -8.8 -5.05 -8.75 -5.05 -8.65 -5.1 -8.6 M-5.85 -2.9 L-5.85 -2.95 -5.7 -2.95 -5.7 -2.9 -5.25 -2.05 Q-4.95 -1.6 -4.65 -1.3 L-4.65 -1.2 -4.7 -1.2 Q-4.7 -1.15 -4.75 -1.15 L-4.8 -1.15 Q-5.15 -1.45 -5.5 -2.0 -5.75 -2.45 -5.85 -2.85 L-5.85 -2.9 M-8.3 -1.5 L-8.35 -1.55 -8.3 -1.6 -8.15 -1.6 Q-8.05 -1.3 -7.4 -0.8 -6.75 -0.35 -6.2 -0.15 L-6.15 -0.15 -6.15 -0.05 -6.2 0.0 -6.25 0.0 Q-7.05 -0.25 -7.6 -0.7 -8.1 -1.1 -8.3 -1.5 M-8.55 0.65 L-8.65 0.65 Q-9.2 0.5 -9.3 0.4 L-9.35 0.4 -9.35 0.3 -9.3 0.25 Q-9.15 0.25 -8.9 0.35 -8.65 0.45 -8.55 0.5 L-8.55 0.65" fill="#ff9a2b" fill-rule="evenodd" stroke="none"/>
  </g>
</svg>
