<?xml version="1.0" encoding="UTF-8" standalone="no"?>
<svg xmlns:ffdec="https://www.free-decompiler.com/flash" xmlns:xlink="http://www.w3.org/1999/xlink" ffdec:objectType="shape" height="19.65px" width="20.4px" xmlns="http://www.w3.org/2000/svg">
  <g transform="matrix(1.0, 0.0, 0.0, 1.0, 10.15, 19.45)">
    <path d="M6.7 -18.75 Q6.4 -19.1 6.2 -19.35 L6.2 -19.4 6.25 -19.45 6.3 -19.45 Q6.55 -19.3 7.35 -18.3 L7.35 -18.25 Q7.35 -18.2 7.25 -18.15 L7.15 -18.15 6.7 -18.75 M10.05 -15.65 L10.15 -15.75 10.2 -15.75 10.25 -15.7 10.25 -15.25 Q10.25 -14.9 10.2 -14.6 L10.15 -14.55 10.05 -14.55 10.05 -14.6 Q10.0 -14.6 10.0 -14.75 L10.05 -15.15 10.05 -15.65 M6.25 -7.55 L6.05 -7.25 Q5.85 -7.05 5.7 -7.0 L5.65 -7.0 5.65 -7.05 5.6 -7.1 5.65 -7.1 6.15 -7.7 Q6.15 -7.75 6.2 -7.75 L6.25 -7.75 6.25 -7.55 M8.35 -7.9 L8.4 -7.9 8.45 -7.85 8.15 -6.6 Q7.95 -5.8 7.95 -5.3 7.95 -5.25 7.9 -5.2 L7.85 -5.15 Q7.8 -5.15 7.8 -5.2 L7.75 -5.2 Q7.7 -5.45 7.7 -5.7 7.7 -6.3 8.3 -7.85 L8.35 -7.9 M8.35 -0.85 L8.3 -0.85 8.3 -0.9 8.35 -0.95 Q8.5 -1.05 8.65 -1.3 L8.8 -1.6 8.85 -1.6 8.9 -1.65 8.9 -1.6 8.95 -1.55 8.95 -1.45 Q8.95 -1.3 8.8 -1.15 8.65 -0.95 8.4 -0.85 L8.35 -0.85 M-4.2 -12.55 Q-4.2 -12.65 -4.15 -12.65 L-4.05 -12.65 Q-3.75 -12.45 -3.75 -12.3 -3.75 -12.2 -3.8 -12.15 L-3.9 -12.15 -4.2 -12.5 -4.2 -12.55 M-6.3 -9.85 Q-6.5 -9.85 -6.65 -9.95 L-6.8 -10.1 -6.85 -10.1 -6.85 -10.15 -6.75 -10.25 -6.7 -10.25 -6.3 -10.0 -6.25 -9.95 -6.25 -9.85 -6.3 -9.85 M-8.55 -9.8 Q-7.7 -9.65 -7.6 -9.55 L-7.55 -9.5 -7.55 -9.45 -7.6 -9.4 -7.65 -9.4 -8.0 -9.5 -8.6 -9.65 -8.65 -9.65 -8.65 -9.7 Q-8.65 -9.75 -8.6 -9.8 L-8.55 -9.8 M-6.3 -4.6 Q-6.2 -4.4 -6.2 -4.25 L-6.2 -4.2 -6.25 -4.15 -6.35 -4.15 -6.4 -4.2 Q-6.4 -4.35 -6.5 -4.5 L-6.65 -4.8 -6.65 -4.9 -6.6 -4.9 -6.6 -4.95 -6.55 -4.95 -6.5 -4.9 -6.3 -4.6 M-9.4 -3.15 L-9.35 -3.15 Q-9.0 -2.5 -8.55 -2.0 L-8.55 -1.9 -8.6 -1.85 -8.65 -1.85 Q-8.9 -2.05 -9.15 -2.45 -9.4 -2.75 -9.5 -3.05 L-9.55 -3.1 -9.5 -3.15 -9.4 -3.15 M-9.9 -0.05 L-9.65 0.05 -9.6 0.1 -9.6 0.15 -9.65 0.2 Q-9.95 0.25 -10.0 0.15 L-10.15 0.0 -10.15 -0.05 Q-10.15 -0.1 -10.1 -0.15 L-10.0 -0.15 -9.9 -0.05" fill="#ff9a2b" fill-rule="evenodd" stroke="none"/>
  </g>
</svg>
