<?xml version="1.0" encoding="UTF-8" standalone="no"?>
<svg xmlns:ffdec="https://www.free-decompiler.com/flash" xmlns:xlink="http://www.w3.org/1999/xlink" ffdec:objectType="shape" height="3.05px" width="4.2px" xmlns="http://www.w3.org/2000/svg">
  <g transform="matrix(1.0, 0.0, 0.0, 1.0, -8.8, 4.95)">
    <path d="M10.1 -3.6 L10.1 -3.6 10.15 -3.7 Q10.3 -3.85 10.6 -3.75 L10.6 -3.7 10.25 -3.6 Q10.15 -3.55 10.05 -3.4 L10.0 -3.4 10.1 -3.55 10.1 -3.6 M11.25 -4.7 Q11.35 -4.75 11.45 -4.85 11.55 -4.95 11.8 -4.95 L12.2 -4.9 12.2 -4.8 12.25 -4.75 Q12.5 -4.75 12.6 -4.6 L12.75 -4.35 12.75 -4.3 12.6 -4.45 Q12.4 -4.6 12.15 -4.6 L11.8 -4.6 11.4 -4.55 Q11.3 -4.5 11.3 -4.45 11.3 -4.35 11.5 -4.3 L11.5 -4.25 11.4 -4.25 Q11.3 -4.25 11.15 -4.35 11.0 -4.45 11.0 -4.55 11.0 -4.65 11.25 -4.75 L11.25 -4.7 M11.4 -3.6 L11.2 -3.55 Q11.2 -3.6 11.3 -3.6 L11.4 -3.6 Q11.55 -3.7 11.75 -3.7 L11.75 -3.75 11.7 -3.85 11.7 -4.1 11.75 -4.1 11.85 -3.95 11.9 -3.8 11.75 -3.65 11.7 -3.7 11.7 -3.6 Q11.7 -3.55 11.65 -3.55 L11.4 -3.55 11.4 -3.6 M10.15 -2.25 L9.9 -2.05 9.85 -2.05 10.1 -2.35 Q10.15 -2.4 10.15 -2.55 L10.15 -2.65 Q10.25 -2.7 10.3 -2.65 L10.35 -2.55 Q10.35 -2.45 10.15 -2.25 M10.05 -3.05 L10.1 -3.1 10.05 -2.9 10.0 -2.9 10.0 -2.95 10.05 -3.05 M9.15 -2.05 Q9.0 -2.0 8.95 -2.1 L8.8 -2.25 8.85 -2.25 Q8.95 -2.15 9.15 -2.05 M12.8 -4.15 L12.9 -3.65 12.95 -3.55 12.95 -3.6 13.0 -3.5 Q12.9 -3.55 12.85 -3.6 12.8 -3.7 12.75 -3.8 L12.75 -3.85 12.65 -4.0 Q12.65 -4.15 12.75 -4.2 L12.8 -4.2 12.8 -4.15 M12.95 -2.95 L13.0 -2.85 Q13.0 -2.75 12.95 -2.65 L12.9 -2.85 12.85 -2.85 12.75 -2.9 12.7 -2.95 12.8 -3.1 12.95 -3.25 12.9 -3.05 12.95 -2.95 M12.2 -1.9 L12.3 -2.0 12.3 -2.1 Q12.3 -2.15 12.4 -2.15 L12.6 -2.2 12.4 -2.05 12.25 -1.9 12.2 -1.9" fill="#ffd327" fill-rule="evenodd" stroke="none"/>
  </g>
</svg>
