<?xml version="1.0" encoding="UTF-8" standalone="no"?>
<svg xmlns:ffdec="https://www.free-decompiler.com/flash" xmlns:xlink="http://www.w3.org/1999/xlink" ffdec:objectType="shape" height="9.4px" width="22.75px" xmlns="http://www.w3.org/2000/svg">
  <g transform="matrix(1.0, 0.0, 0.0, 1.0, 12.25, 10.25)">
    <path d="M2.1 -1.5 L2.0 -1.45 1.65 -1.45 Q1.6 -1.45 1.6 -1.5 L1.55 -1.55 1.55 -1.6 1.65 -1.7 1.95 -1.7 Q2.15 -1.7 2.15 -1.6 L2.15 -1.55 2.1 -1.5 M4.7 -3.25 L4.6 -2.9 4.55 -2.85 4.5 -2.85 Q4.4 -2.85 4.4 -2.9 L4.4 -3.0 Q4.4 -3.1 4.5 -3.2 4.55 -3.3 4.6 -3.35 L4.65 -3.35 4.7 -3.3 4.7 -3.25 M10.5 -0.95 L10.5 -0.85 10.4 -0.85 10.25 -0.95 Q10.1 -1.05 10.15 -1.1 10.15 -1.2 10.2 -1.2 10.25 -1.25 10.3 -1.15 10.4 -1.1 10.5 -0.95 M-11.8 -8.4 L-11.8 -8.35 -11.85 -8.35 -11.85 -8.3 -11.9 -8.3 -11.95 -8.35 -12.25 -8.55 -12.25 -8.65 -12.2 -8.7 -12.2 -8.75 -12.05 -8.75 -12.05 -8.7 -11.8 -8.45 -11.8 -8.4 M-12.0 -5.7 L-11.95 -5.7 -11.9 -5.65 -11.9 -5.6 -11.95 -5.45 -12.05 -5.3 -12.2 -5.3 -12.2 -5.4 -12.15 -5.55 -12.0 -5.7 M-4.25 -10.25 L-4.15 -10.25 -4.15 -10.1 Q-4.15 -9.95 -4.15 -9.9 L-4.2 -9.9 -4.2 -9.85 -4.25 -9.8 -4.35 -9.8 -4.35 -9.85 -4.4 -9.85 Q-4.4 -10.05 -4.25 -10.25 M-0.35 -1.4 L-0.45 -1.3 -0.5 -1.3 Q-0.5 -1.25 -0.55 -1.25 L-0.6 -1.3 -0.6 -1.4 Q-0.6 -1.65 -0.45 -1.65 L-0.4 -1.6 -0.35 -1.6 -0.35 -1.4" fill="#ff9a2b" fill-rule="evenodd" stroke="none"/>
  </g>
</svg>
