<?xml version="1.0" encoding="UTF-8" standalone="no"?>
<svg xmlns:ffdec="https://www.free-decompiler.com/flash" xmlns:xlink="http://www.w3.org/1999/xlink" ffdec:objectType="shape" height="4.4px" width="12.3px" xmlns="http://www.w3.org/2000/svg">
  <g transform="matrix(1.0, 0.0, 0.0, 1.0, 12.6, 6.6)">
    <path d="M-5.25 -4.55 L-5.25 -4.6 -5.2 -4.6 -5.15 -4.65 -5.0 -4.7 Q-4.7 -4.85 -4.5 -4.85 L-4.1 -4.8 Q-4.3 -4.8 -4.35 -4.7 -4.35 -4.65 -4.4 -4.65 L-4.5 -4.6 Q-4.5 -4.55 -4.6 -4.5 L-4.45 -4.45 Q-4.3 -4.4 -4.3 -4.35 L-4.3 -4.15 -4.05 -4.05 Q-4.05 -4.0 -4.3 -4.0 -4.6 -3.95 -4.6 -4.0 L-4.6 -4.05 -4.55 -4.1 Q-4.55 -4.15 -4.6 -4.15 L-4.85 -4.2 Q-5.0 -4.25 -4.95 -4.3 -4.9 -4.4 -5.05 -4.5 -5.15 -4.55 -5.25 -4.55 M-1.5 -5.2 L-1.6 -5.25 -1.55 -5.3 -1.2 -5.3 -1.2 -5.25 -1.25 -5.25 -1.5 -5.2 M-2.4 -5.45 L-2.35 -5.45 -1.85 -5.4 -1.75 -5.4 Q-1.7 -5.4 -1.7 -5.35 -1.7 -5.3 -2.2 -5.25 L-2.95 -5.15 Q-3.2 -5.05 -3.3 -5.0 -3.35 -5.0 -3.45 -4.95 L-3.7 -4.9 -3.6 -5.05 Q-3.5 -5.15 -3.5 -5.2 L-3.7 -5.3 -3.4 -5.45 -2.85 -5.45 -2.5 -5.4 -2.4 -5.45 M-6.95 -6.25 L-6.8 -6.25 -6.55 -6.3 -6.35 -6.35 -6.1 -6.35 Q-6.1 -6.25 -5.9 -6.2 L-5.75 -6.25 Q-5.7 -6.3 -5.6 -6.3 L-5.55 -6.35 -5.2 -6.4 -4.7 -6.5 -4.2 -6.4 -4.15 -6.4 Q-3.8 -6.35 -3.65 -6.25 -3.55 -6.25 -3.4 -6.15 L-3.45 -6.15 -3.55 -6.1 -3.75 -6.15 -4.05 -6.15 -4.25 -6.2 -4.7 -6.2 Q-5.35 -6.2 -5.6 -6.1 L-5.8 -6.0 Q-5.95 -5.9 -6.35 -5.9 -6.7 -5.85 -6.9 -5.8 -7.0 -5.7 -7.05 -5.65 -7.05 -5.55 -7.05 -5.5 -7.1 -5.4 -7.2 -5.35 -7.3 -5.3 -7.3 -5.2 L-7.4 -5.1 -7.5 -4.95 Q-7.5 -4.9 -7.55 -4.85 -7.65 -4.8 -7.7 -4.8 -8.0 -4.8 -8.0 -4.85 -7.95 -4.9 -8.05 -4.95 L-8.4 -4.6 Q-8.4 -4.45 -8.3 -4.35 -8.15 -4.15 -7.85 -4.1 -7.65 -4.0 -7.3 -3.8 -7.2 -3.75 -7.15 -3.65 L-7.1 -3.55 Q-7.1 -3.5 -7.25 -3.45 -7.4 -3.4 -7.4 -3.35 -7.4 -3.3 -6.95 -3.25 L-6.4 -3.15 -6.15 -3.15 -5.9 -3.05 -5.7 -2.95 -5.3 -2.9 -4.8 -2.8 -4.45 -2.85 Q-4.15 -2.9 -4.1 -2.95 L-4.0 -3.05 Q-3.95 -3.1 -3.8 -3.15 L-3.65 -3.15 -3.3 -3.05 -2.9 -3.0 Q-2.9 -2.95 -2.5 -2.95 -2.45 -2.95 -2.3 -3.05 L-2.1 -3.15 Q-2.15 -3.2 -2.05 -3.25 -1.95 -3.35 -1.8 -3.35 L-1.65 -3.35 Q-1.45 -3.45 -1.2 -3.6 L-1.15 -3.65 -1.2 -3.65 -1.25 -3.7 -1.2 -3.8 -1.05 -3.8 -1.0 -3.85 Q-0.8 -3.85 -0.7 -3.85 L-0.65 -3.85 -0.45 -3.75 Q-0.3 -3.65 -0.3 -3.6 L-0.4 -3.5 Q-0.65 -3.4 -0.9 -3.3 -1.05 -3.25 -1.2 -3.1 -2.1 -2.5 -3.2 -2.6 L-3.45 -2.6 Q-4.65 -2.35 -5.9 -2.35 L-6.05 -2.4 Q-6.75 -2.6 -7.5 -2.65 -7.6 -2.65 -7.65 -2.6 -7.85 -2.6 -8.05 -2.4 -8.3 -2.2 -8.6 -2.2 -8.95 -2.2 -9.15 -2.3 -9.25 -2.4 -9.35 -2.4 -10.05 -2.45 -10.6 -2.55 -11.1 -2.65 -11.1 -2.75 L-11.15 -2.8 Q-11.15 -2.85 -11.1 -2.85 L-11.0 -2.9 -11.1 -3.0 -11.2 -3.05 Q-11.2 -3.1 -11.05 -3.2 L-10.95 -3.25 Q-10.95 -3.3 -11.2 -3.4 L-11.6 -3.5 Q-11.9 -3.65 -11.9 -3.75 -11.9 -3.8 -11.75 -3.8 L-11.3 -3.9 -11.5 -4.0 -11.5 -4.1 -11.6 -4.1 -12.05 -4.15 -12.4 -4.25 Q-12.4 -4.3 -12.5 -4.35 -12.6 -4.35 -12.6 -4.4 -12.65 -4.45 -12.55 -4.5 -12.45 -4.6 -12.1 -4.6 L-11.45 -4.6 -11.35 -4.55 -11.25 -4.55 -10.95 -4.4 -10.9 -4.35 -10.75 -4.35 -10.65 -4.4 -10.6 -4.45 -10.55 -4.55 Q-10.55 -4.65 -11.0 -4.7 -11.4 -4.8 -11.4 -4.9 -11.4 -4.95 -11.25 -5.0 L-11.05 -5.05 -10.95 -5.2 Q-10.85 -5.3 -10.85 -5.35 L-10.45 -5.55 Q-10.0 -5.7 -9.85 -5.7 L-9.45 -5.7 -9.3 -5.65 -8.95 -5.6 -8.95 -5.65 Q-8.95 -5.7 -8.85 -5.7 L-8.8 -5.75 -8.65 -5.8 Q-8.65 -5.9 -8.95 -6.05 L-9.25 -6.2 Q-9.25 -6.3 -9.0 -6.4 -8.55 -6.6 -7.9 -6.6 L-7.4 -6.55 Q-7.05 -6.5 -7.05 -6.35 L-7.05 -6.3 -6.95 -6.25" fill="#c5edfe" fill-rule="evenodd" stroke="none"/>
  </g>
</svg>
