<?xml version="1.0" encoding="UTF-8" standalone="no"?>
<svg xmlns:ffdec="https://www.free-decompiler.com/flash" xmlns:xlink="http://www.w3.org/1999/xlink" ffdec:objectType="shape" height="5.0px" width="12.55px" xmlns="http://www.w3.org/2000/svg">
  <g transform="matrix(1.0, 0.0, 0.0, 1.0, 13.85, 6.7)">
    <path d="M-5.85 -4.15 L-5.85 -4.25 -5.95 -4.35 -5.95 -4.45 -5.9 -4.5 Q-5.85 -4.55 -5.7 -4.6 -5.55 -4.65 -5.45 -4.65 L-5.35 -4.65 -5.3 -4.6 Q-5.35 -4.6 -5.55 -4.5 -5.55 -4.45 -5.35 -4.25 L-4.95 -4.15 Q-4.7 -4.1 -4.6 -4.05 L-4.65 -4.0 -4.5 -4.0 -4.5 -3.95 -4.7 -3.9 -4.95 -3.9 -5.05 -4.0 Q-5.05 -4.05 -5.1 -4.1 L-5.65 -4.1 -5.85 -4.15 M-4.7 -6.3 L-5.05 -6.3 -5.35 -6.25 Q-5.4 -6.15 -5.8 -6.1 -6.15 -6.1 -6.15 -6.2 -6.15 -6.25 -6.0 -6.3 L-5.7 -6.4 -5.55 -6.4 -5.2 -6.45 Q-4.7 -6.45 -4.7 -6.35 L-4.7 -6.3 M-1.35 -5.35 L-1.3 -5.3 Q-1.3 -5.25 -1.45 -5.25 L-1.65 -5.3 -1.6 -5.3 -1.5 -5.35 -1.35 -5.35 M-2.95 -5.5 L-3.0 -5.5 -3.45 -5.55 -3.45 -5.5 -2.95 -5.5 M-2.05 -5.5 L-2.05 -5.45 -2.0 -5.45 -2.2 -5.4 -2.45 -5.4 -2.6 -5.35 -2.95 -5.4 -3.4 -5.4 -3.7 -5.45 -3.9 -5.45 -3.95 -5.35 -3.7 -5.35 -3.6 -5.25 Q-3.6 -5.2 -3.75 -5.1 -3.85 -5.0 -3.95 -4.95 -4.1 -5.0 -4.0 -5.05 L-3.9 -5.2 -4.0 -5.2 -4.35 -5.25 Q-4.45 -5.25 -4.45 -5.3 L-4.35 -5.4 -4.25 -5.45 -4.2 -5.55 Q-4.2 -5.6 -3.9 -5.6 L-3.3 -5.55 -2.3 -5.55 -2.15 -5.5 -2.05 -5.5 M-13.85 -4.2 Q-13.85 -4.3 -13.8 -4.4 L-13.65 -4.55 -13.45 -4.7 Q-13.35 -4.8 -13.0 -4.85 L-12.8 -4.85 -12.45 -4.7 Q-12.15 -4.6 -12.0 -4.6 L-11.85 -4.65 -11.6 -4.65 -11.6 -4.75 -12.3 -4.75 -12.35 -4.8 -12.35 -4.85 -12.05 -5.05 Q-11.75 -5.25 -11.75 -5.3 L-11.85 -5.35 -11.9 -5.35 -11.85 -5.45 -11.75 -5.55 -11.45 -5.6 -11.1 -5.65 -10.9 -5.65 Q-10.8 -5.65 -10.8 -5.6 -10.8 -5.5 -10.75 -5.45 L-10.15 -5.4 -9.85 -5.55 -9.95 -5.65 -9.75 -5.75 -9.65 -5.85 -9.8 -5.9 -9.7 -5.9 -9.8 -5.95 Q-10.1 -6.05 -10.55 -6.05 L-10.65 -6.1 -10.7 -6.2 Q-10.7 -6.25 -10.65 -6.3 -10.55 -6.35 -10.55 -6.4 L-10.5 -6.45 -10.45 -6.55 -10.25 -6.6 -9.9 -6.7 -9.3 -6.65 -9.3 -6.6 -9.2 -6.6 -9.1 -6.65 -8.7 -6.65 -8.3 -6.55 -8.45 -6.5 -8.6 -6.5 -9.05 -6.45 Q-9.2 -6.45 -9.2 -6.35 -9.2 -6.3 -8.95 -6.25 L-8.65 -6.2 -8.5 -6.25 -8.3 -6.25 -8.3 -6.2 -8.25 -6.2 -8.0 -6.25 -7.6 -6.2 -7.45 -6.15 -6.5 -6.15 -6.35 -6.1 Q-6.45 -6.05 -6.75 -6.0 L-7.3 -6.05 -7.4 -5.95 -7.85 -5.95 -8.05 -6.0 -8.15 -6.0 Q-8.3 -6.0 -8.45 -5.9 -8.6 -5.8 -8.6 -5.75 -8.6 -5.6 -8.65 -5.55 -8.65 -5.5 -8.9 -5.35 -9.05 -5.3 -9.5 -5.15 -9.85 -5.05 -9.85 -5.0 -9.85 -4.9 -9.75 -4.85 L-9.65 -4.75 -9.7 -4.65 -9.7 -4.55 -9.65 -4.45 -9.65 -4.35 Q-9.65 -4.25 -10.15 -4.15 -10.65 -4.05 -10.65 -4.0 -10.65 -3.95 -10.45 -3.8 L-10.25 -3.65 -10.1 -3.5 Q-10.0 -3.4 -10.0 -3.3 -10.0 -3.25 -10.1 -3.2 L-10.2 -3.1 Q-10.2 -3.05 -9.9 -2.95 -9.4 -2.8 -8.7 -2.8 L-8.6 -2.85 -8.55 -2.85 -8.75 -3.0 -8.95 -3.1 -8.95 -3.15 -8.7 -3.15 Q-8.45 -3.05 -7.65 -2.85 L-6.75 -2.65 Q-6.5 -2.6 -6.35 -2.55 L-6.1 -2.45 Q-5.75 -2.3 -4.9 -2.2 L-4.8 -2.2 Q-4.75 -2.25 -4.45 -2.4 -4.25 -2.45 -4.2 -2.5 -4.2 -2.55 -3.95 -2.65 L-3.7 -2.75 -3.4 -2.8 -2.85 -2.8 Q-2.3 -2.9 -2.15 -2.95 -2.05 -3.0 -2.0 -3.05 L-1.85 -3.05 -1.7 -3.1 -2.0 -2.85 Q-2.1 -2.75 -2.2 -2.7 L-2.45 -2.6 Q-2.9 -2.4 -3.4 -2.4 -3.55 -2.45 -3.7 -2.35 -4.45 -1.9 -5.3 -1.95 -5.5 -1.95 -5.65 -2.0 -6.3 -2.2 -7.0 -2.25 -7.3 -2.25 -7.55 -2.35 -7.8 -2.45 -8.0 -2.35 L-8.35 -2.35 -8.8 -2.2 -9.05 -2.1 -9.25 -2.05 -9.25 -2.0 -9.15 -2.0 -8.8 -1.9 -8.65 -1.85 Q-8.65 -1.8 -8.85 -1.75 L-9.45 -1.7 Q-10.05 -1.7 -10.2 -1.85 -10.35 -1.95 -10.45 -2.0 L-11.15 -2.05 -11.75 -2.1 Q-11.85 -2.15 -12.05 -2.2 L-12.2 -2.3 -12.3 -2.4 -12.35 -2.5 Q-12.35 -2.65 -12.05 -2.75 -11.75 -2.85 -11.75 -3.0 -11.75 -3.1 -12.0 -3.15 L-12.6 -3.2 -13.15 -3.25 Q-13.4 -3.3 -13.4 -3.4 -13.4 -3.5 -13.25 -3.55 -13.15 -3.6 -12.8 -3.7 -13.0 -3.85 -13.5 -4.0 -13.85 -4.1 -13.85 -4.2" fill="#c5edfe" fill-rule="evenodd" stroke="none"/>
  </g>
</svg>
