<?xml version="1.0" encoding="UTF-8" standalone="no"?>
<svg xmlns:ffdec="https://www.free-decompiler.com/flash" xmlns:xlink="http://www.w3.org/1999/xlink" ffdec:objectType="shape" height="2.6px" width="5.3px" xmlns="http://www.w3.org/2000/svg">
  <g transform="matrix(1.0, 0.0, 0.0, 1.0, -0.85, 18.15)">
    <path d="M4.3 -17.7 Q4.55 -18.15 4.85 -18.15 L4.95 -18.15 5.0 -18.1 5.0 -18.0 5.05 -17.9 Q5.05 -17.65 5.15 -17.5 L5.2 -17.35 5.35 -17.3 5.45 -17.45 5.5 -17.45 Q5.65 -17.75 5.7 -17.75 L5.8 -17.8 6.0 -17.8 6.1 -17.7 6.15 -17.45 6.05 -16.85 6.1 -16.7 6.05 -16.65 6.05 -16.5 6.0 -16.4 Q5.9 -16.25 5.65 -16.25 L5.45 -16.25 Q5.3 -16.25 5.1 -16.35 L4.8 -16.45 4.1 -16.65 4.05 -16.65 Q3.9 -16.6 3.9 -16.9 L3.9 -17.0 4.1 -17.35 4.1 -17.4 4.2 -17.5 4.3 -17.7 M2.9 -17.4 Q3.15 -17.65 3.25 -17.6 L3.3 -17.55 3.55 -17.25 Q3.8 -16.95 3.75 -16.85 L3.7 -16.65 3.6 -16.55 3.3 -16.55 2.7 -16.4 2.7 -16.35 Q2.4 -16.3 2.2 -16.2 L2.15 -16.15 2.0 -16.1 1.95 -16.1 1.75 -15.95 1.75 -15.75 Q1.6 -15.6 1.4 -15.6 L1.35 -15.6 1.05 -15.55 1.0 -15.55 1.0 -15.6 0.95 -15.65 0.85 -15.85 0.85 -16.0 1.1 -16.3 1.15 -16.35 Q1.2 -16.4 1.25 -16.4 L1.3 -16.4 1.5 -16.6 1.6 -17.05 1.65 -17.15 1.7 -17.5 1.8 -17.55 1.85 -17.55 Q2.0 -17.55 2.2 -17.35 L2.3 -17.25 2.35 -17.25 Q2.45 -17.15 2.5 -17.15 L2.55 -17.15 2.85 -17.4 2.9 -17.4 M1.55 -17.35 L1.55 -17.35" fill="#333333" fill-opacity="0.4" fill-rule="evenodd" stroke="none"/>
    <path d="M1.7 -17.3 L1.7 -17.3 M2.25 -17.15 Q2.35 -17.05 2.45 -17.0 L2.6 -17.0 3.0 -17.3 Q3.15 -17.45 3.2 -17.45 L3.45 -17.2 Q3.6 -16.95 3.6 -16.85 L3.6 -16.7 3.25 -16.7 3.3 -16.65 3.1 -16.65 2.65 -16.5 Q2.35 -16.45 2.1 -16.3 L1.9 -16.2 1.4 -15.9 1.35 -15.85 1.6 -15.85 Q1.55 -15.75 1.35 -15.75 L1.3 -15.75 1.3 -15.7 1.05 -15.7 1.0 -15.9 1.2 -16.2 1.25 -16.25 Q1.25 -16.2 1.3 -16.2 L1.65 -16.55 1.65 -16.6 1.75 -17.0 1.8 -17.4 1.85 -17.4 Q1.95 -17.4 2.05 -17.25 2.15 -17.15 2.25 -17.15 M4.9 -18.0 L4.9 -17.85 Q4.95 -17.6 5.0 -17.45 L5.1 -17.3 5.1 -17.25 Q5.2 -17.2 5.35 -17.15 5.45 -17.2 5.6 -17.35 L5.6 -17.4 5.8 -17.65 5.95 -17.65 6.0 -17.45 5.95 -16.85 5.95 -16.7 5.9 -16.7 5.9 -16.5 Q5.8 -16.35 5.65 -16.35 L5.45 -16.4 5.1 -16.5 4.85 -16.55 4.1 -16.8 4.05 -16.75 Q4.05 -16.8 4.05 -16.9 L4.05 -16.95 4.2 -17.3 4.25 -17.3 4.25 -17.4 4.3 -17.4 4.4 -17.65 Q4.65 -18.0 4.9 -18.0" fill="#333333" fill-rule="evenodd" stroke="none"/>
  </g>
</svg>
