<?xml version="1.0" encoding="UTF-8" standalone="no"?>
<svg xmlns:ffdec="https://www.free-decompiler.com/flash" xmlns:xlink="http://www.w3.org/1999/xlink" ffdec:objectType="shape" height="17.1px" width="22.95px" xmlns="http://www.w3.org/2000/svg">
  <g transform="matrix(1.0, 0.0, 0.0, 1.0, 7.7, 16.5)">
    <path d="M1.45 -15.0 L1.5 -15.1 Q1.65 -15.4 1.85 -15.65 L2.1 -15.9 2.2 -15.95 Q2.25 -16.2 3.05 -16.4 3.75 -16.6 4.05 -16.4 L5.25 -16.15 Q5.7 -16.05 5.8 -15.9 6.05 -15.7 6.05 -15.3 L6.15 -15.2 Q6.3 -14.8 6.3 -14.2 6.3 -13.85 6.2 -13.45 6.1 -13.15 6.0 -13.0 5.9 -12.75 5.75 -12.45 5.6 -12.15 5.2 -11.65 L4.9 -11.3 5.15 -11.15 Q5.5 -10.85 5.5 -10.5 5.5 -10.4 5.45 -10.3 L5.45 -9.95 Q5.45 -9.35 5.05 -9.05 4.65 -8.75 4.65 -8.25 4.65 -7.6 5.2 -6.95 5.5 -6.65 5.75 -6.4 L6.0 -6.4 Q6.2 -6.25 6.4 -5.8 L6.45 -5.7 6.65 -5.75 Q6.8 -5.6 7.15 -5.55 L7.2 -5.55 7.5 -5.6 Q7.55 -5.8 7.85 -6.05 L7.75 -6.15 7.85 -6.15 7.85 -6.2 Q7.85 -6.25 7.9 -6.3 8.1 -6.3 8.25 -6.4 8.55 -6.6 8.85 -6.7 8.95 -6.75 9.05 -6.8 L9.2 -6.9 Q9.5 -7.05 10.3 -7.1 L10.85 -7.1 11.7 -7.0 13.05 -6.85 13.8 -6.6 Q14.0 -6.5 14.35 -6.2 L14.75 -5.85 Q15.0 -5.7 15.0 -5.55 L14.95 -5.45 15.0 -5.4 Q15.05 -5.35 15.15 -5.25 L15.25 -4.75 Q15.25 -4.55 15.2 -4.25 15.1 -3.8 15.0 -3.65 14.75 -3.35 14.5 -3.2 14.15 -2.9 13.7 -2.8 12.9 -2.3 11.45 -2.3 L11.15 -2.3 Q11.1 -2.3 11.0 -2.4 10.85 -2.35 10.75 -2.3 L10.25 -2.4 10.2 -2.4 Q9.0 -2.5 8.4 -2.8 8.1 -2.9 7.95 -3.1 L7.75 -3.3 7.75 -3.5 Q7.8 -3.55 8.05 -3.65 L7.9 -3.75 7.5 -4.1 7.3 -4.2 Q6.9 -4.25 6.65 -4.1 L6.3 -4.25 6.2 -4.3 6.15 -4.3 5.75 -4.1 Q5.35 -3.95 5.3 -3.9 L5.2 -3.8 5.2 -2.85 Q5.25 -2.65 5.45 -2.25 5.5 -2.1 5.95 -1.8 L6.2 -1.65 6.35 -1.65 Q7.1 -1.65 7.3 -1.35 7.45 -1.25 7.45 -1.05 7.45 -0.7 7.15 -0.55 6.8 -0.35 6.05 -0.35 4.5 -0.35 3.95 -0.7 3.6 -0.85 3.6 -1.2 3.6 -1.6 3.7 -1.9 L3.7 -2.0 3.4 -1.85 Q3.3 -1.65 2.8 -1.45 2.4 -1.3 1.95 -1.25 1.6 -1.1 1.3 -1.1 L0.9 -1.15 Q0.35 -1.15 -0.1 -1.4 L-0.95 -1.75 -2.15 -2.4 Q-2.4 -2.4 -2.5 -2.1 -2.6 -1.85 -2.55 -1.7 L-2.65 -1.6 -2.6 -1.4 -2.55 -0.7 Q-2.55 -0.15 -2.7 0.05 -3.05 0.6 -4.2 0.6 -5.25 0.6 -5.25 -0.3 -5.25 -0.6 -5.15 -0.7 L-4.55 -1.2 Q-4.2 -1.55 -4.05 -1.8 -3.95 -1.95 -3.85 -2.25 -3.75 -2.55 -3.65 -3.3 L-3.6 -3.5 -3.65 -3.6 Q-3.65 -3.85 -3.55 -4.05 L-5.3 -3.95 Q-7.05 -3.95 -7.5 -4.25 -7.65 -4.35 -7.7 -4.45 L-7.65 -4.55 Q-7.65 -4.75 -7.6 -4.8 -7.5 -4.95 -7.15 -5.0 -6.9 -5.25 -6.25 -5.35 L-4.7 -5.55 -2.8 -5.7 -2.55 -6.0 -2.3 -6.35 -2.05 -6.65 Q-2.55 -6.45 -2.8 -6.45 -3.8 -6.45 -4.15 -6.8 -4.35 -6.95 -4.35 -7.25 -4.35 -7.5 -3.5 -8.3 L-2.4 -9.3 Q-2.3 -9.45 -1.8 -9.65 -1.1 -9.95 -0.85 -10.1 -0.4 -10.4 -0.1 -10.5 L0.15 -10.55 0.2 -10.8 0.15 -11.25 0.1 -11.6 Q0.1 -11.85 0.3 -12.05 0.45 -12.2 0.95 -12.2 L1.1 -12.2 1.05 -12.55 Q1.05 -12.8 1.05 -13.05 1.05 -14.2 1.45 -15.0" fill="#333333" fill-rule="evenodd" stroke="none"/>
  </g>
</svg>
