<?xml version="1.0" encoding="UTF-8" standalone="no"?>
<svg xmlns:ffdec="https://www.free-decompiler.com/flash" xmlns:xlink="http://www.w3.org/1999/xlink" ffdec:objectType="shape" height="24.1px" width="44.55px" xmlns="http://www.w3.org/2000/svg">
  <g transform="matrix(1.0, 0.0, 0.0, 1.0, 17.7, 26.45)">
    <path d="M12.2 -23.85 Q12.0 -23.8 9.95 -23.05 L8.75 -22.55 Q8.65 -22.25 8.55 -22.2 5.35 -22.15 5.0 -21.6 4.95 -21.55 4.9 -21.2 4.85 -21.0 4.55 -20.95 4.35 -21.0 4.3 -21.2 4.25 -21.3 4.25 -21.55 4.25 -22.25 4.6 -23.0 4.8 -23.45 5.0 -23.7 L4.8 -23.75 4.8 -23.45 4.7 -23.4 4.6 -23.3 4.6 -23.15 Q4.6 -23.1 4.5 -23.15 L4.35 -23.25 Q3.15 -21.4 2.9 -20.15 2.8 -19.6 2.8 -17.35 2.8 -15.4 2.85 -14.9 2.9 -14.25 3.2 -12.9 L3.5 -12.2 4.05 -13.15 Q4.1 -13.6 4.75 -14.45 L4.75 -14.55 4.8 -14.55 5.35 -15.2 7.0 -17.0 Q7.65 -17.85 9.45 -18.9 L12.15 -21.15 Q12.3 -21.35 12.3 -21.6 L12.25 -22.1 12.2 -22.25 Q12.15 -23.1 12.3 -23.8 L12.2 -23.85 M12.85 -23.2 L13.0 -22.1 Q13.2 -21.05 13.65 -20.3 14.05 -19.9 14.5 -19.65 15.9 -18.7 18.0 -18.3 17.65 -18.7 17.5 -19.1 L16.9 -19.3 17.25 -19.35 17.7 -19.3 Q18.1 -18.95 18.2 -18.8 L18.2 -18.75 18.6 -18.5 Q18.95 -18.3 20.0 -17.75 L20.0 -17.55 20.05 -17.5 20.05 -17.45 Q20.2 -17.2 20.0 -16.4 19.85 -15.75 20.3 -15.45 20.95 -15.0 23.1 -14.8 L22.8 -14.5 22.7 -14.45 Q22.65 -13.8 22.4 -13.0 L22.2 -12.3 22.05 -11.5 21.75 -10.3 21.6 -10.3 21.55 -10.35 Q21.35 -10.15 21.15 -10.05 20.6 -9.8 18.7 -9.45 L18.25 -9.45 17.9 -9.15 Q17.75 -8.85 17.8 -8.6 17.8 -8.3 17.8 -8.1 L17.75 -7.85 Q17.5 -6.55 15.75 -5.2 13.9 -3.85 11.55 -3.3 L11.2 -3.35 11.65 -3.6 Q11.65 -3.65 11.65 -3.75 L11.65 -3.9 11.6 -3.9 Q11.4 -3.7 10.1 -3.4 L7.6 -2.95 5.35 -2.6 2.25 -2.65 -0.6 -2.8 -2.3 -3.0 Q-3.6 -3.0 -4.4 -2.95 L-5.05 -2.85 -5.4 -2.7 -5.5 -2.65 Q-5.35 -2.55 -5.35 -2.5 L-5.35 -2.45 -5.05 -2.4 -5.1 -2.35 -5.75 -2.35 Q-8.65 -2.7 -10.95 -3.4 L-10.65 -3.25 -11.8 -3.4 Q-12.35 -3.7 -12.8 -3.75 L-13.5 -4.2 Q-16.15 -5.9 -16.8 -7.15 L-16.75 -7.45 -16.65 -7.45 Q-16.8 -7.6 -16.8 -7.7 -16.8 -7.85 -16.7 -8.3 -16.55 -8.75 -16.55 -8.95 -16.55 -9.2 -17.1 -9.85 -17.7 -10.5 -17.7 -10.55 -17.7 -11.05 -16.2 -12.45 -15.25 -13.4 -14.8 -13.9 -14.95 -14.1 -15.05 -14.4 -15.15 -14.75 -15.15 -15.3 -15.15 -15.75 -14.9 -16.45 L-14.95 -16.55 Q-14.95 -16.7 -14.4 -17.85 L-13.55 -19.55 -13.0 -20.6 Q-12.7 -21.2 -12.4 -21.55 -11.55 -22.4 -10.1 -21.9 -10.05 -21.75 -10.1 -21.5 L-10.1 -21.05 Q-10.1 -20.8 -9.7 -20.5 -9.35 -20.45 -9.35 -20.35 L-9.4 -20.35 -9.6 -20.3 -9.5 -20.3 -8.05 -20.4 -7.85 -20.7 Q-7.65 -20.65 -7.55 -20.55 -7.35 -20.65 -7.25 -20.75 -7.15 -20.85 -7.1 -20.95 L-7.25 -21.1 Q-7.45 -21.3 -7.45 -21.45 -7.45 -21.75 -6.2 -22.65 -4.9 -23.55 -3.2 -24.45 1.35 -26.85 3.6 -26.4 L3.6 -26.2 Q3.6 -26.1 3.5 -26.0 L3.9 -25.9 Q4.05 -25.25 4.15 -24.9 4.4 -24.3 4.75 -24.2 L4.95 -24.15 Q5.1 -24.15 5.55 -24.95 6.05 -25.8 6.5 -25.9 L6.2 -25.1 6.2 -25.05 6.1 -24.6 Q6.1 -23.95 6.25 -23.8 6.45 -23.45 7.4 -23.3 L7.45 -23.1 7.6 -22.95 Q7.65 -22.85 7.85 -22.85 8.15 -22.85 8.75 -23.15 9.55 -23.55 9.8 -23.65 10.25 -23.8 11.05 -24.15 11.85 -24.4 12.6 -24.25 12.75 -23.85 12.85 -23.2 M13.25 -18.7 Q9.85 -17.7 7.5 -15.95 5.45 -14.4 4.0 -12.05 L3.9 -12.05 3.85 -12.15 3.7 -11.7 3.75 -11.55 3.7 -11.5 Q2.65 -12.1 1.8 -15.65 1.1 -18.65 1.1 -20.7 1.1 -21.0 1.5 -21.9 L2.1 -23.1 Q2.2 -23.3 2.45 -23.65 2.7 -24.05 2.9 -24.3 3.2 -24.6 3.55 -24.45 3.85 -24.25 4.05 -24.55 L4.05 -24.6 Q3.7 -25.25 3.7 -25.6 L3.2 -25.7 Q3.1 -25.8 3.1 -26.0 L2.0 -26.0 Q1.25 -26.0 -1.05 -24.95 -2.3 -24.4 -3.95 -23.6 -5.1 -23.15 -5.95 -22.45 -7.0 -21.6 -6.8 -21.0 L-6.85 -20.95 -6.85 -20.9 Q-6.9 -20.75 -6.95 -20.65 L-7.0 -20.5 -7.15 -19.9 -7.3 -19.1 Q-7.3 -18.85 -6.8 -18.35 -6.0 -17.65 -5.75 -17.35 -5.6 -17.15 -5.45 -16.75 L-5.15 -16.2 Q-4.8 -15.6 -4.05 -15.55 -3.7 -15.05 -3.4 -13.15 -3.15 -11.7 -3.15 -11.25 -3.15 -10.65 -3.2 -10.0 -3.0 -9.8 -2.65 -9.65 -1.7 -9.2 0.4 -9.1 L0.45 -9.05 1.55 -9.2 2.85 -9.25 3.0 -9.2 3.05 -9.15 4.45 -9.15 5.25 -8.65 Q8.3 -9.65 11.95 -10.45 L14.65 -11.0 Q16.75 -12.65 17.9 -13.95 19.4 -15.7 19.35 -17.05 16.0 -17.8 14.3 -19.05 14.05 -19.25 13.8 -19.45 L13.7 -19.25 Q13.4 -18.8 13.25 -18.7 M19.8 -15.05 Q19.6 -14.5 18.6 -13.65 L17.2 -12.6 Q17.4 -12.05 17.65 -11.8 L17.55 -11.5 15.0 -10.8 11.95 -10.0 8.7 -9.25 Q6.75 -8.8 5.55 -8.4 L5.35 -8.45 5.2 -8.5 4.9 -8.5 Q4.65 -8.85 4.35 -9.0 L2.35 -8.8 2.15 -8.8 1.4 -8.7 0.9 -8.6 0.8 -8.55 Q0.7 -8.45 0.5 -8.45 L0.15 -8.45 Q-1.0 -8.2 -1.95 -7.9 L-3.5 -7.25 Q-3.9 -6.9 -4.65 -6.8 L-5.5 -6.5 -4.9 -6.75 -6.0 -6.6 -7.3 -6.85 -9.05 -7.1 Q-8.95 -7.15 -8.75 -7.3 L-8.5 -7.35 -4.95 -7.6 Q-3.5 -7.8 -2.4 -8.15 -1.75 -8.4 -0.75 -8.55 -1.8 -8.75 -2.6 -9.3 L-2.7 -9.3 Q-2.85 -9.3 -3.05 -9.5 L-3.25 -9.7 -3.25 -9.65 Q-3.5 -9.85 -3.9 -10.45 -4.35 -11.1 -4.6 -11.4 -5.7 -12.55 -7.5 -12.75 L-7.5 -12.85 -7.9 -12.95 -7.85 -13.15 Q-7.95 -13.7 -7.95 -14.6 L-7.95 -16.25 Q-7.95 -17.35 -8.5 -17.85 L-8.9 -18.2 Q-9.1 -18.45 -9.1 -18.9 -9.1 -19.3 -8.65 -19.75 L-8.45 -19.95 -10.15 -20.1 Q-10.35 -20.15 -10.55 -20.4 L-10.85 -20.75 -11.25 -20.65 -11.35 -20.7 -11.4 -20.7 Q-12.15 -20.4 -12.65 -19.9 -13.15 -19.45 -13.7 -18.65 L-14.05 -18.0 Q-14.4 -17.0 -14.7 -16.45 -14.8 -16.0 -14.8 -15.8 -14.8 -15.45 -14.55 -14.8 L-14.45 -14.45 -14.35 -14.45 -14.3 -14.1 -14.35 -14.0 -14.3 -13.7 -14.4 -13.6 -14.55 -13.7 -14.75 -13.3 Q-14.85 -13.05 -14.95 -12.85 L-15.0 -12.85 -15.25 -12.5 Q-15.45 -12.2 -15.45 -12.1 -15.45 -11.8 -14.5 -11.25 -13.2 -10.5 -12.6 -9.95 -12.95 -10.05 -13.45 -10.4 L-14.45 -11.05 -14.55 -11.05 Q-15.7 -11.1 -16.1 -11.3 -16.45 -11.5 -16.25 -11.8 -17.05 -11.0 -17.25 -10.6 -16.6 -10.0 -16.35 -9.6 L-16.2 -9.35 -16.2 -9.3 -16.1 -9.3 Q-15.85 -8.7 -14.65 -8.7 L-14.4 -8.6 -15.75 -8.55 -16.2 -8.0 -16.3 -7.9 -16.25 -7.9 Q-16.45 -7.7 -16.45 -7.4 L-16.45 -7.25 -16.65 -7.4 Q-16.35 -6.4 -14.05 -5.05 L-12.3 -4.1 Q-12.3 -4.25 -12.25 -4.1 L-12.05 -4.0 -11.65 -3.85 Q-11.2 -3.75 -10.5 -3.65 L-10.1 -3.7 -9.4 -4.2 Q-8.85 -4.05 -7.65 -3.55 L-6.7 -3.1 -6.15 -3.45 Q-5.4 -3.95 -4.5 -4.3 -2.4 -5.05 3.1 -5.65 L3.4 -5.7 5.5 -5.7 5.6 -5.6 7.4 -5.45 8.3 -5.3 8.45 -5.3 8.45 -5.35 8.7 -5.35 10.8 -5.0 Q12.5 -4.45 14.8 -5.45 15.65 -5.85 16.25 -6.35 L17.55 -8.25 Q17.1 -8.6 17.1 -8.75 17.1 -9.15 17.5 -9.4 L17.7 -9.55 17.6 -9.6 Q19.4 -9.75 20.6 -10.2 21.05 -10.4 21.5 -10.6 L21.5 -11.0 Q21.5 -11.15 21.75 -12.1 L22.0 -13.2 Q22.2 -14.0 22.45 -14.4 L21.85 -14.35 Q20.5 -14.35 19.85 -15.0 L19.8 -15.05 M11.25 -4.25 Q10.6 -4.7 8.6 -4.95 L6.5 -5.15 Q5.45 -5.25 5.35 -5.35 -0.95 -4.95 -4.0 -4.05 -4.85 -3.8 -5.55 -3.5 L-5.7 -3.3 -5.25 -3.3 Q-3.95 -3.25 -3.3 -3.35 L-3.25 -3.3 -3.0 -3.3 -0.25 -3.05 7.1 -3.35 Q7.65 -3.4 8.35 -3.6 L9.75 -3.9 11.1 -4.25 11.25 -4.25 M-15.6 -12.4 L-15.5 -12.45 -15.5 -12.55 -15.55 -12.5 -15.6 -12.4 M-15.2 -12.85 L-15.2 -12.85 M-16.0 -11.8 Q-15.95 -11.75 -15.85 -11.7 L-16.0 -11.8 M-6.45 -3.05 L-6.45 -3.05 M-6.9 -2.75 L-6.85 -2.75 -6.9 -2.8 -6.9 -2.75" fill="#ffdc45" fill-rule="evenodd" stroke="none"/>
    <path d="M12.2 -23.85 L12.3 -23.8 Q12.15 -23.1 12.2 -22.25 L12.25 -22.1 12.3 -21.6 Q12.3 -21.35 12.15 -21.15 L9.45 -18.9 Q7.65 -17.85 7.0 -17.0 L5.35 -15.2 4.8 -14.55 4.75 -14.55 4.75 -14.45 Q4.1 -13.6 4.05 -13.15 L3.5 -12.2 3.2 -12.9 Q2.9 -14.25 2.85 -14.9 2.8 -15.4 2.8 -17.35 2.8 -19.6 2.9 -20.15 3.15 -21.4 4.35 -23.25 L4.5 -23.15 Q4.6 -23.1 4.6 -23.15 L4.6 -23.3 4.7 -23.4 4.8 -23.45 4.8 -23.75 5.0 -23.7 Q4.8 -23.45 4.6 -23.0 4.25 -22.25 4.25 -21.55 4.25 -21.3 4.3 -21.2 4.35 -21.0 4.55 -20.95 4.85 -21.0 4.9 -21.2 4.95 -21.55 5.0 -21.6 5.35 -22.15 8.55 -22.2 8.65 -22.25 8.75 -22.55 L9.95 -23.05 Q12.0 -23.8 12.2 -23.85 M11.25 -4.25 L11.1 -4.25 9.75 -3.9 8.35 -3.6 Q7.65 -3.4 7.1 -3.35 L-0.25 -3.05 -3.0 -3.3 -3.25 -3.3 -3.3 -3.35 Q-3.95 -3.25 -5.25 -3.3 L-5.7 -3.3 -5.55 -3.5 Q-4.85 -3.8 -4.0 -4.05 -0.95 -4.95 5.35 -5.35 5.45 -5.25 6.5 -5.15 L8.6 -4.95 Q10.6 -4.7 11.25 -4.25 M19.8 -15.05 L19.85 -15.0 Q20.5 -14.35 21.85 -14.35 L22.45 -14.4 Q22.2 -14.0 22.0 -13.2 L21.75 -12.1 Q21.5 -11.15 21.5 -11.0 L21.5 -10.6 Q21.05 -10.4 20.6 -10.2 19.4 -9.75 17.6 -9.6 L17.7 -9.55 17.5 -9.4 Q17.1 -9.15 17.1 -8.75 17.1 -8.6 17.55 -8.25 L16.25 -6.35 Q15.65 -5.85 14.8 -5.45 12.5 -4.45 10.8 -5.0 L8.7 -5.35 8.45 -5.35 8.45 -5.3 8.3 -5.3 7.4 -5.45 5.6 -5.6 5.5 -5.7 3.4 -5.7 3.1 -5.65 Q-2.4 -5.05 -4.5 -4.3 -5.4 -3.95 -6.15 -3.45 L-6.7 -3.1 -7.65 -3.55 Q-8.85 -4.05 -9.4 -4.2 L-10.1 -3.7 -10.5 -3.65 Q-11.2 -3.75 -11.65 -3.85 L-12.05 -4.0 -12.25 -4.1 Q-12.3 -4.25 -12.3 -4.1 L-14.05 -5.05 Q-16.35 -6.4 -16.65 -7.4 L-16.45 -7.25 -16.45 -7.4 Q-16.45 -7.7 -16.25 -7.9 L-16.3 -7.9 -16.2 -8.0 -15.75 -8.55 -14.4 -8.6 -14.65 -8.7 Q-15.85 -8.7 -16.1 -9.3 L-16.2 -9.3 -16.2 -9.35 -16.35 -9.6 Q-16.6 -10.0 -17.25 -10.6 -17.05 -11.0 -16.25 -11.8 -16.45 -11.5 -16.1 -11.3 -15.7 -11.1 -14.55 -11.05 L-14.45 -11.05 -13.45 -10.4 Q-12.95 -10.05 -12.6 -9.95 -13.2 -10.5 -14.5 -11.25 -15.45 -11.8 -15.45 -12.1 -15.45 -12.2 -15.25 -12.5 L-15.0 -12.85 -14.95 -12.85 Q-14.85 -13.05 -14.75 -13.3 L-14.55 -13.7 -14.4 -13.6 -14.3 -13.7 -14.35 -14.0 -14.3 -14.1 -14.35 -14.45 -14.45 -14.45 -14.55 -14.8 Q-14.8 -15.45 -14.8 -15.8 -14.8 -16.0 -14.7 -16.45 -14.4 -17.0 -14.05 -18.0 L-13.7 -18.65 Q-13.15 -19.45 -12.65 -19.9 -12.15 -20.4 -11.4 -20.7 L-11.35 -20.7 -11.25 -20.65 -10.85 -20.75 -10.55 -20.4 Q-10.35 -20.15 -10.15 -20.1 L-8.45 -19.95 -8.65 -19.75 Q-9.1 -19.3 -9.1 -18.9 -9.1 -18.45 -8.9 -18.2 L-8.5 -17.85 Q-7.95 -17.35 -7.95 -16.25 L-7.95 -14.6 Q-7.95 -13.7 -7.85 -13.15 L-7.9 -12.95 -7.5 -12.85 -7.5 -12.75 Q-5.7 -12.55 -4.6 -11.4 -4.35 -11.1 -3.9 -10.45 -3.5 -9.85 -3.25 -9.65 L-3.25 -9.7 -3.05 -9.5 Q-2.85 -9.3 -2.7 -9.3 L-2.6 -9.3 Q-1.8 -8.75 -0.75 -8.55 -1.75 -8.4 -2.4 -8.15 -3.5 -7.8 -4.95 -7.6 L-8.5 -7.35 -8.75 -7.3 Q-8.95 -7.15 -9.05 -7.1 L-7.3 -6.85 -6.0 -6.6 -4.9 -6.75 -5.5 -6.5 -4.65 -6.8 Q-3.9 -6.9 -3.5 -7.25 L-1.95 -7.9 Q-1.0 -8.2 0.15 -8.45 L0.5 -8.45 Q0.7 -8.45 0.8 -8.55 L0.9 -8.6 1.4 -8.7 2.15 -8.8 2.35 -8.8 4.35 -9.0 Q4.65 -8.85 4.9 -8.5 L5.2 -8.5 5.35 -8.45 5.55 -8.4 Q6.75 -8.8 8.7 -9.25 L11.95 -10.0 15.0 -10.8 17.55 -11.5 17.65 -11.8 Q17.4 -12.05 17.2 -12.6 L18.6 -13.65 Q19.6 -14.5 19.8 -15.05 M13.25 -18.7 Q13.4 -18.8 13.7 -19.25 L13.8 -19.45 Q14.05 -19.25 14.3 -19.05 16.0 -17.8 19.35 -17.05 19.4 -15.7 17.9 -13.95 16.75 -12.65 14.65 -11.0 L11.95 -10.45 Q8.3 -9.65 5.25 -8.65 L4.45 -9.15 3.05 -9.15 3.0 -9.2 2.85 -9.25 1.55 -9.2 0.45 -9.05 0.4 -9.1 Q-1.7 -9.2 -2.65 -9.65 -3.0 -9.8 -3.2 -10.0 -3.15 -10.65 -3.15 -11.25 -3.15 -11.7 -3.4 -13.15 -3.7 -15.05 -4.05 -15.55 -4.8 -15.6 -5.15 -16.2 L-5.45 -16.75 Q-5.6 -17.15 -5.75 -17.35 -6.0 -17.65 -6.8 -18.35 -7.3 -18.85 -7.3 -19.1 L-7.15 -19.9 -7.0 -20.5 -6.95 -20.65 Q-6.9 -20.75 -6.85 -20.9 L-6.85 -20.95 -6.8 -21.0 Q-7.0 -21.6 -5.95 -22.45 -5.1 -23.15 -3.95 -23.6 -2.3 -24.4 -1.05 -24.95 1.25 -26.0 2.0 -26.0 L3.1 -26.0 Q3.1 -25.8 3.2 -25.7 L3.7 -25.6 Q3.7 -25.25 4.05 -24.6 L4.05 -24.55 Q3.85 -24.25 3.55 -24.45 3.2 -24.6 2.9 -24.3 2.7 -24.05 2.45 -23.65 2.2 -23.3 2.1 -23.1 L1.5 -21.9 Q1.1 -21.0 1.1 -20.7 1.1 -18.65 1.8 -15.65 2.65 -12.1 3.7 -11.5 L3.75 -11.55 3.7 -11.7 3.85 -12.15 3.9 -12.05 4.0 -12.05 Q5.45 -14.4 7.5 -15.95 9.85 -17.7 13.25 -18.7" fill="#ffffff" fill-rule="evenodd" stroke="none"/>
    <path d="M19.6 -23.55 L20.1 -23.55 21.25 -23.6 24.8 -23.75 24.85 -23.75 26.75 -23.9 Q26.75 -23.8 26.7 -23.75 25.75 -23.4 24.95 -23.15 L23.75 -22.8 23.75 -22.75 Q23.7 -22.75 23.7 -22.85 23.7 -23.1 24.7 -23.35 L25.8 -23.65 26.05 -23.75 Q21.65 -23.1 14.95 -20.85 L12.7 -20.05 Q10.5 -19.25 8.55 -18.45 L8.2 -18.3 7.15 -17.75 5.4 -16.8 5.45 -16.8 5.85 -17.0 Q5.1 -16.35 3.65 -15.6 L1.3 -14.35 -0.85 -13.05 -1.75 -12.6 -2.55 -12.1 -2.75 -12.0 -3.0 -12.0 -3.05 -12.1 -3.05 -12.15 Q-2.65 -12.65 -0.85 -13.9 L-0.7 -14.0 0.1 -14.55 0.05 -14.5 Q0.9 -15.15 3.1 -16.65 L4.3 -17.55 5.8 -18.7 Q7.1 -19.65 7.45 -20.3 L7.85 -20.45 Q7.85 -20.5 8.35 -20.5 L8.55 -20.5 8.85 -20.55 9.25 -20.65 Q10.1 -20.85 11.1 -21.15 L12.45 -21.55 12.7 -21.65 13.5 -21.85 15.15 -22.4 Q17.75 -23.3 19.2 -24.05 18.85 -23.75 18.35 -23.45 L18.9 -23.7 Q18.65 -23.55 18.35 -23.4 L18.95 -23.5 19.6 -23.55 M17.6 -23.05 Q16.65 -22.55 15.25 -22.1 12.6 -21.15 11.15 -21.05 L10.95 -21.0 Q10.1 -20.7 9.15 -20.5 L8.55 -20.35 8.4 -20.3 7.6 -20.05 7.5 -20.0 Q7.35 -19.85 7.2 -19.65 7.1 -19.45 6.8 -19.2 6.55 -18.95 6.3 -18.8 L6.25 -18.8 5.6 -18.3 4.35 -17.35 4.25 -17.25 2.95 -16.35 Q2.0 -15.75 1.75 -15.55 L1.6 -15.4 Q1.2 -15.1 0.65 -14.7 L-0.6 -13.95 -0.7 -13.85 Q-2.2 -12.8 -2.95 -12.15 -2.0 -12.65 1.25 -14.6 3.15 -15.7 4.55 -16.4 L4.55 -16.55 Q3.05 -15.75 1.85 -14.95 L1.75 -14.9 1.6 -14.9 1.7 -15.0 Q3.1 -15.8 4.55 -16.6 L5.05 -16.95 5.25 -17.05 Q5.85 -17.4 7.1 -18.0 9.35 -19.05 10.55 -19.4 11.6 -19.85 12.7 -20.25 14.3 -20.9 16.0 -21.45 17.4 -21.95 18.75 -22.25 L20.8 -22.75 Q22.1 -23.15 23.05 -23.35 L24.45 -23.65 18.25 -23.2 18.0 -23.2 17.6 -23.05 M16.25 -18.8 L16.3 -18.85 Q16.6 -18.95 17.7 -19.35 19.0 -19.9 19.0 -20.2 19.0 -20.35 19.3 -20.45 L20.25 -20.7 Q22.0 -21.1 23.8 -21.75 L24.05 -21.9 24.2 -21.9 24.55 -22.05 24.35 -21.95 24.55 -21.95 24.35 -21.75 24.0 -21.55 Q22.8 -20.9 21.0 -20.2 L17.85 -19.0 17.7 -18.95 Q17.2 -18.65 16.6 -18.45 L16.4 -18.45 Q16.3 -18.6 16.25 -18.7 L16.15 -18.75 16.25 -18.8 M16.5 -18.65 Q16.7 -18.65 17.45 -19.0 L18.4 -19.4 18.25 -19.25 19.3 -19.7 21.05 -20.35 22.8 -21.05 Q23.55 -21.4 23.85 -21.6 L23.75 -21.65 Q23.1 -21.35 22.25 -21.05 20.85 -20.5 20.25 -20.45 19.65 -20.35 19.25 -20.1 L18.35 -19.5 Q17.9 -19.3 17.3 -19.1 16.75 -18.9 16.4 -18.7 L16.5 -18.65 M0.65 -25.45 L1.05 -25.45 Q0.0 -25.35 -2.0 -24.55 -4.3 -23.55 -5.3 -23.15 -6.55 -22.6 -8.0 -21.8 -9.35 -21.1 -10.15 -20.45 -11.65 -19.35 -13.35 -17.8 L-15.75 -15.55 -15.95 -15.15 -16.0 -15.15 -15.9 -15.4 -16.15 -15.15 -16.2 -15.15 -15.75 -15.7 Q-15.25 -16.55 -14.3 -17.6 L-11.9 -20.0 Q-11.45 -20.45 -10.3 -21.2 L-8.6 -22.3 Q-7.8 -22.9 -6.95 -23.35 -5.9 -23.9 -5.75 -23.65 -4.9 -23.85 -3.9 -24.3 L-2.45 -24.9 -0.65 -25.65 Q-0.25 -25.8 0.65 -25.95 1.8 -26.1 2.35 -25.95 2.35 -25.85 2.25 -25.8 L1.15 -25.65 1.15 -25.6 1.05 -25.6 0.65 -25.45 M1.2 -25.8 Q-0.3 -25.65 -1.15 -25.3 -2.1 -24.85 -2.8 -24.6 -3.35 -24.3 -3.95 -24.05 -5.05 -23.55 -5.4 -23.55 -5.8 -23.55 -5.85 -23.6 L-5.9 -23.7 Q-6.2 -23.7 -7.45 -22.9 L-8.85 -22.0 -10.5 -20.9 Q-11.65 -20.1 -12.05 -19.75 -13.45 -18.45 -14.3 -17.5 -15.05 -16.65 -15.5 -15.95 -13.45 -18.15 -10.2 -20.7 -9.45 -21.3 -8.05 -22.0 -6.75 -22.7 -5.2 -23.35 L-1.8 -24.75 Q-0.85 -25.15 -0.15 -25.3 L-0.15 -25.35 Q-0.15 -25.45 0.75 -25.7 L1.2 -25.8 M3.6 -18.2 L4.15 -18.6 4.65 -18.95 4.85 -18.9 5.65 -19.35 3.65 -18.1 3.25 -17.7 Q2.95 -17.4 2.75 -17.3 2.05 -17.0 1.3 -16.45 L0.25 -15.65 -2.25 -13.95 Q-3.35 -13.25 -4.0 -12.9 L-4.25 -12.75 -4.3 -12.7 -4.4 -12.65 -4.8 -12.5 -6.05 -12.05 Q-7.2 -11.55 -8.05 -11.15 L-8.85 -10.7 -9.85 -10.15 -10.3 -9.85 Q-10.95 -9.45 -11.35 -9.15 -11.8 -8.8 -12.95 -8.2 L-14.25 -7.2 -14.6 -6.95 -14.95 -6.55 Q-15.25 -6.25 -15.7 -6.0 L-16.9 -4.8 -17.0 -4.85 -17.0 -5.0 Q-17.05 -5.15 -17.05 -5.4 L-17.25 -5.4 -17.25 -5.5 Q-17.25 -5.75 -15.8 -6.95 L-14.25 -8.2 -14.2 -8.25 -12.45 -9.6 -11.7 -10.15 -10.55 -10.9 -10.15 -11.15 -8.5 -12.15 Q-7.1 -12.95 -6.0 -13.5 -4.9 -14.05 -3.7 -14.6 L-3.8 -14.55 -1.85 -15.4 -0.7 -15.9 Q0.8 -16.6 1.5 -17.0 L2.0 -17.25 3.25 -18.0 3.55 -18.15 3.6 -18.2 M5.05 -17.95 L5.35 -18.2 5.1 -18.0 5.05 -17.95 M2.7 -17.5 Q2.85 -17.6 3.05 -17.7 L2.55 -17.4 2.7 -17.5 M1.8 -17.0 L1.45 -16.8 Q0.3 -16.2 -0.7 -15.7 L-1.4 -15.4 Q-2.25 -15.05 -3.0 -14.8 -4.5 -14.15 -6.0 -13.35 -7.1 -12.75 -8.15 -12.15 L-10.15 -10.9 -11.3 -10.15 Q-12.8 -9.1 -14.25 -7.95 -15.6 -6.9 -16.9 -5.7 L-16.95 -5.7 -16.65 -5.75 -16.6 -5.75 -16.6 -5.65 Q-16.6 -5.55 -16.75 -5.35 L-16.9 -5.0 -16.95 -5.0 -16.95 -4.95 -16.45 -5.45 Q-16.2 -5.8 -15.75 -6.2 -14.85 -6.95 -14.55 -7.25 -14.15 -7.6 -13.1 -8.2 -11.9 -8.95 -11.45 -9.3 -10.3 -10.2 -8.15 -11.25 L-7.95 -11.3 -6.75 -11.95 -6.3 -12.15 -6.0 -12.25 -5.15 -12.6 -4.65 -12.8 -4.6 -12.9 Q-3.85 -13.2 -2.3 -14.25 L-0.25 -15.6 0.2 -15.9 0.55 -16.1 1.25 -16.6 1.75 -16.95 1.8 -17.0 M7.25 -5.1 L8.0 -5.15 Q10.95 -6.05 14.85 -7.4 L16.1 -7.85 Q18.0 -8.55 19.55 -9.15 L20.55 -9.5 21.1 -9.75 21.5 -9.9 23.1 -10.55 22.45 -10.25 23.15 -10.55 23.65 -10.7 Q24.25 -11.0 24.65 -11.25 25.3 -11.6 26.0 -12.25 L26.8 -13.1 26.85 -13.0 Q25.6 -11.15 22.9 -9.5 L22.3 -9.15 Q21.95 -8.95 21.8 -8.85 21.4 -8.65 20.6 -8.35 L19.1 -7.75 Q18.55 -7.5 18.05 -7.05 L18.15 -7.0 18.2 -7.0 18.2 -6.95 18.3 -6.85 18.25 -6.85 Q18.25 -6.75 18.05 -6.65 L17.85 -6.5 17.7 -6.55 17.6 -6.55 17.55 -6.6 14.85 -6.0 13.5 -5.75 Q9.55 -5.0 8.1 -5.0 L7.65 -5.0 7.45 -4.95 7.55 -5.05 Q7.25 -5.05 7.25 -5.1 M19.75 -8.15 Q20.25 -8.3 20.95 -8.65 L21.9 -9.1 22.0 -9.15 Q23.4 -9.75 25.65 -11.7 L25.65 -11.75 Q24.85 -11.15 23.4 -10.5 22.15 -9.9 20.95 -9.55 L20.25 -9.3 19.8 -9.15 Q17.95 -8.35 15.8 -7.55 L14.85 -7.2 Q11.1 -5.9 8.45 -5.2 11.3 -5.55 13.3 -5.9 L14.85 -6.2 17.65 -6.75 17.8 -6.75 17.9 -6.85 Q17.95 -6.85 18.0 -6.9 L18.05 -6.9 18.0 -6.95 18.0 -7.05 Q18.0 -7.3 18.75 -7.7 19.4 -8.05 19.75 -8.15 M-2.9 -12.15 L-2.9 -12.15 M-3.65 -12.15 L-3.65 -12.1 Q-4.05 -11.45 -5.35 -11.3 L-6.0 -11.1 -6.3 -11.0 Q-7.15 -10.7 -7.25 -10.7 L-7.35 -10.75 -7.45 -10.75 -7.4 -10.8 -7.45 -10.85 Q-7.15 -11.0 -7.25 -10.85 -6.9 -11.1 -6.0 -11.45 L-5.75 -11.55 Q-4.6 -12.0 -4.2 -12.1 L-4.2 -12.15 Q-4.2 -12.25 -4.15 -12.25 L-4.15 -12.2 Q-3.7 -12.2 -3.65 -12.15 M-3.9 -12.0 L-4.15 -12.05 Q-4.3 -11.9 -4.65 -11.75 L-5.95 -11.4 -6.0 -11.4 Q-6.2 -11.35 -6.7 -11.1 L-7.1 -10.85 -6.0 -11.2 -5.6 -11.35 Q-4.3 -11.75 -3.95 -11.95 L-3.9 -12.0" fill="#ffdc45" fill-rule="evenodd" stroke="none"/>
    <path d="M17.6 -23.05 L18.0 -23.2 18.25 -23.2 24.45 -23.65 23.05 -23.35 Q22.1 -23.15 20.8 -22.75 L18.75 -22.25 Q17.4 -21.95 16.0 -21.45 14.3 -20.9 12.7 -20.25 11.6 -19.85 10.55 -19.4 9.35 -19.05 7.1 -18.0 5.85 -17.4 5.25 -17.05 L5.05 -16.95 4.55 -16.6 Q3.1 -15.8 1.7 -15.0 L1.6 -14.9 1.75 -14.9 1.85 -14.95 Q3.05 -15.75 4.55 -16.55 L4.55 -16.4 Q3.15 -15.7 1.25 -14.6 -2.0 -12.65 -2.95 -12.15 -2.2 -12.8 -0.7 -13.85 L-0.6 -13.95 0.65 -14.7 Q1.2 -15.1 1.6 -15.4 L1.75 -15.55 Q2.0 -15.75 2.95 -16.35 L4.25 -17.25 4.35 -17.35 5.6 -18.3 6.25 -18.8 6.3 -18.8 Q6.55 -18.95 6.8 -19.2 7.1 -19.45 7.2 -19.65 7.35 -19.85 7.5 -20.0 L7.6 -20.05 8.4 -20.3 8.55 -20.35 9.15 -20.5 Q10.1 -20.7 10.95 -21.0 L11.15 -21.05 Q12.6 -21.15 15.25 -22.1 16.65 -22.55 17.6 -23.05 M16.5 -18.65 L16.4 -18.7 Q16.75 -18.9 17.3 -19.1 17.9 -19.3 18.35 -19.5 L19.25 -20.1 Q19.65 -20.35 20.25 -20.45 20.85 -20.5 22.25 -21.05 23.1 -21.35 23.75 -21.65 L23.85 -21.6 Q23.55 -21.4 22.8 -21.05 L21.05 -20.35 19.3 -19.7 18.25 -19.25 18.4 -19.4 17.45 -19.0 Q16.7 -18.65 16.5 -18.65 M1.2 -25.8 L0.75 -25.7 Q-0.15 -25.45 -0.15 -25.35 L-0.15 -25.3 Q-0.85 -25.15 -1.8 -24.75 L-5.2 -23.35 Q-6.75 -22.7 -8.05 -22.0 -9.45 -21.3 -10.2 -20.7 -13.45 -18.15 -15.5 -15.95 -15.05 -16.65 -14.3 -17.5 -13.45 -18.45 -12.05 -19.75 -11.65 -20.1 -10.5 -20.9 L-8.85 -22.0 -7.45 -22.9 Q-6.2 -23.7 -5.9 -23.7 L-5.85 -23.6 Q-5.8 -23.55 -5.4 -23.55 -5.05 -23.55 -3.95 -24.05 -3.35 -24.3 -2.8 -24.6 -2.1 -24.85 -1.15 -25.3 -0.3 -25.65 1.2 -25.8 M1.8 -17.0 L1.75 -16.95 1.25 -16.6 0.55 -16.1 0.2 -15.9 -0.25 -15.6 -2.3 -14.25 Q-3.85 -13.2 -4.6 -12.9 L-4.65 -12.8 -5.15 -12.6 -6.0 -12.25 -6.3 -12.15 -6.75 -11.95 -7.95 -11.3 -8.15 -11.25 Q-10.3 -10.2 -11.45 -9.3 -11.9 -8.95 -13.1 -8.2 -14.15 -7.6 -14.55 -7.25 -14.85 -6.95 -15.75 -6.2 -16.2 -5.8 -16.45 -5.45 L-16.95 -4.95 -16.95 -5.0 -16.9 -5.0 -16.75 -5.35 Q-16.6 -5.55 -16.6 -5.65 L-16.6 -5.75 -16.65 -5.75 -16.95 -5.7 -16.9 -5.7 Q-15.6 -6.9 -14.25 -7.95 -12.8 -9.1 -11.3 -10.15 L-10.15 -10.9 -8.15 -12.15 Q-7.1 -12.75 -6.0 -13.35 -4.5 -14.15 -3.0 -14.8 -2.25 -15.05 -1.4 -15.4 L-0.7 -15.7 Q0.3 -16.2 1.45 -16.8 L1.8 -17.0 M-2.9 -12.15 L-2.9 -12.15 M19.75 -8.15 Q19.4 -8.05 18.75 -7.7 18.0 -7.3 18.0 -7.05 L18.0 -6.95 18.05 -6.9 18.0 -6.9 Q17.95 -6.85 17.9 -6.85 L17.8 -6.75 17.65 -6.75 14.85 -6.2 13.3 -5.9 Q11.3 -5.55 8.45 -5.2 11.1 -5.9 14.85 -7.2 L15.8 -7.55 Q17.95 -8.35 19.8 -9.15 L20.25 -9.3 20.95 -9.55 Q22.15 -9.9 23.4 -10.5 24.85 -11.15 25.65 -11.75 L25.65 -11.7 Q23.4 -9.75 22.0 -9.15 L21.9 -9.1 20.95 -8.65 Q20.25 -8.3 19.75 -8.15 M-3.9 -12.0 L-3.95 -11.95 Q-4.3 -11.75 -5.6 -11.35 L-6.0 -11.2 -7.1 -10.85 -6.7 -11.1 Q-6.2 -11.35 -6.0 -11.4 L-5.95 -11.4 -4.65 -11.75 Q-4.3 -11.9 -4.15 -12.05 L-3.9 -12.0" fill="#ffffff" fill-rule="evenodd" stroke="none"/>
  </g>
</svg>
