<?xml version="1.0" encoding="UTF-8" standalone="no"?>
<svg xmlns:ffdec="https://www.free-decompiler.com/flash" xmlns:xlink="http://www.w3.org/1999/xlink" ffdec:objectType="shape" height="27.25px" width="36.65px" xmlns="http://www.w3.org/2000/svg">
  <g transform="matrix(1.0, 0.0, 0.0, 1.0, 17.35, 18.45)">
    <path d="M11.75 -13.75 Q11.85 -13.6 11.95 -13.55 13.2 -13.2 13.6 -12.95 14.1 -12.7 14.2 -12.2 14.25 -12.05 14.5 -11.4 14.75 -10.9 14.75 -10.65 14.75 -10.5 14.7 -10.1 L14.65 -9.45 Q14.6 -9.05 14.4 -8.85 14.3 -8.75 14.3 -8.7 14.25 -8.6 14.25 -8.4 14.25 -8.3 14.35 -8.25 14.45 -8.2 14.45 -8.05 14.45 -7.95 14.4 -7.85 14.3 -7.7 14.15 -7.6 14.15 -7.55 14.25 -7.55 L14.5 -7.55 Q15.4 -7.55 15.85 -7.45 16.25 -7.35 16.45 -7.1 16.55 -6.95 16.65 -6.5 16.75 -6.05 16.9 -5.7 L17.2 -5.7 Q17.25 -5.7 17.3 -5.75 L17.55 -5.7 18.35 -5.15 18.7 -4.9 Q18.9 -4.7 18.9 -4.6 L18.9 -4.4 Q19.0 -4.05 19.1 -3.6 19.3 -2.85 19.3 -2.25 19.3 -2.15 19.1 -1.9 L18.95 -1.9 Q19.0 -2.0 19.05 -2.1 18.95 -1.95 18.8 -1.8 L18.4 -1.4 18.1 -1.4 Q18.05 -1.5 18.1 -1.6 L18.0 -1.8 Q17.8 -1.7 17.65 -1.45 L17.3 -1.05 Q17.15 -1.05 17.1 -1.1 17.05 -1.15 16.9 -1.15 16.7 -1.15 16.55 -0.85 L16.4 -0.45 Q16.2 -0.05 16.2 0.05 16.25 0.2 16.25 0.4 16.25 0.5 16.25 0.65 16.2 0.75 16.2 0.85 L16.1 0.95 Q16.0 0.9 15.85 0.8 L15.65 0.7 15.35 1.3 Q15.15 1.75 15.15 1.95 15.15 2.0 15.2 2.05 L15.4 2.25 Q15.65 2.6 15.8 3.15 15.9 3.5 16.0 3.8 16.05 4.2 16.05 4.35 16.05 4.7 15.85 5.15 15.6 5.6 15.25 5.9 L15.05 6.15 Q14.8 6.45 14.6 6.65 L14.55 6.8 14.35 6.9 14.25 7.0 14.15 6.95 14.05 7.05 13.95 7.05 13.75 7.15 13.75 7.0 Q13.65 6.95 13.6 6.75 L13.5 6.55 Q13.45 6.4 13.35 6.35 13.0 6.35 12.8 6.25 12.65 6.15 12.55 6.15 12.5 6.15 12.15 6.3 L11.75 6.45 11.45 6.4 Q11.4 6.35 11.3 6.15 L11.25 5.95 Q11.15 5.65 10.8 5.7 10.55 6.25 10.2 6.55 L9.85 6.55 Q9.65 6.8 9.55 6.9 L8.9 6.9 Q8.5 6.9 8.15 7.05 L8.15 7.7 Q8.15 7.8 8.0 7.95 7.8 7.95 7.75 8.0 7.7 8.0 7.7 8.1 7.65 8.2 6.6 8.2 6.55 8.3 6.35 8.55 L5.95 8.55 5.75 8.4 Q5.65 8.3 5.65 8.25 5.5 8.2 5.35 8.15 L5.3 8.1 5.05 8.3 Q4.9 8.4 4.85 8.45 L4.75 8.45 4.75 8.5 4.65 8.6 Q4.65 8.5 4.65 8.45 L4.35 8.45 4.3 8.4 3.65 8.6 Q2.75 8.8 2.45 8.8 L1.5 8.75 0.5 8.65 0.25 8.5 Q0.0 8.4 -0.05 8.4 L-0.35 8.55 -0.8 8.8 -1.4 8.8 Q-1.45 8.65 -1.75 8.5 -2.05 8.55 -2.2 8.6 -2.3 8.65 -2.35 8.7 L-2.45 8.7 Q-2.4 8.75 -2.6 8.75 L-3.15 8.55 -3.75 8.35 -4.1 8.15 Q-4.4 7.95 -4.45 7.95 -4.6 7.95 -4.7 8.1 -4.85 8.2 -5.05 8.3 L-5.9 8.1 Q-6.6 7.9 -6.65 7.9 L-6.75 7.95 -6.65 8.0 -6.7 8.15 Q-6.75 8.2 -6.9 8.2 L-6.95 8.2 -6.95 8.25 -7.0 8.2 Q-7.1 8.2 -7.2 8.15 -7.35 8.05 -7.5 8.05 -7.7 8.05 -7.9 8.0 -8.05 7.9 -8.15 7.9 -8.3 7.9 -8.7 8.15 -9.15 8.4 -9.2 8.4 -9.3 8.4 -9.7 8.35 L-10.25 8.2 Q-10.45 8.15 -10.5 8.05 L-10.6 7.85 Q-10.65 7.5 -11.1 7.4 -11.2 7.35 -11.3 7.05 -11.4 6.7 -11.45 6.55 L-11.85 6.05 Q-12.1 5.75 -12.25 5.75 L-12.5 5.9 Q-12.7 6.05 -12.8 6.1 L-13.15 6.05 Q-13.2 6.0 -13.25 5.9 -13.3 5.8 -13.3 5.75 L-13.4 5.8 -13.7 5.85 Q-13.8 5.95 -13.9 6.2 -14.0 6.45 -14.15 6.55 -14.4 6.5 -14.45 6.45 L-14.55 6.5 -14.5 6.75 -14.5 6.85 -14.3 6.9 Q-14.45 7.1 -14.45 7.3 L-14.45 7.35 Q-15.4 7.1 -16.1 6.35 -16.55 5.9 -16.75 5.3 -16.95 4.95 -17.0 4.65 L-17.1 4.65 Q-17.25 4.65 -17.3 4.5 -17.35 4.4 -17.35 4.15 -17.35 3.55 -17.1 3.15 -16.95 2.85 -16.6 2.6 -16.25 2.4 -16.1 2.3 -15.9 2.1 -15.9 1.85 -15.9 1.8 -16.1 1.45 -16.3 1.15 -16.3 1.1 -16.3 0.95 -16.2 0.6 -16.1 0.3 -16.1 0.15 -16.1 -0.05 -16.5 -0.75 -16.9 -1.45 -16.9 -1.75 -16.9 -2.1 -16.5 -2.85 -16.0 -3.7 -15.75 -3.7 L-15.25 -3.7 Q-15.1 -3.85 -15.0 -4.0 L-14.8 -4.3 Q-14.55 -4.65 -14.15 -4.85 L-14.0 -4.75 Q-13.9 -4.65 -13.8 -4.5 -13.75 -4.55 -13.6 -4.9 -13.45 -5.25 -13.45 -5.3 -13.45 -5.45 -13.5 -5.55 L-13.6 -5.65 -14.15 -5.65 Q-14.25 -5.85 -14.25 -6.1 -14.3 -6.4 -14.35 -6.45 -14.6 -7.05 -14.6 -7.15 -14.6 -7.3 -14.45 -7.4 L-14.3 -7.55 -14.9 -8.5 Q-15.15 -8.9 -15.15 -8.95 -15.15 -9.1 -15.0 -9.45 -14.9 -9.7 -14.75 -9.85 -14.65 -10.05 -14.6 -10.25 L-14.4 -10.85 Q-14.1 -11.6 -13.45 -12.1 -13.0 -12.1 -12.35 -12.45 L-11.9 -12.75 Q-11.65 -12.85 -11.6 -12.85 -11.45 -12.85 -11.35 -12.95 -11.3 -13.0 -11.2 -13.1 L-11.0 -13.1 Q-10.8 -13.05 -10.55 -13.15 -10.3 -13.25 -10.05 -13.45 L-9.65 -13.8 Q-9.2 -13.75 -8.95 -13.9 L-8.7 -13.9 -8.5 -13.65 -8.3 -13.5 Q-8.05 -13.5 -7.95 -13.65 L-7.85 -14.05 Q-7.85 -14.2 -7.65 -14.4 L-7.4 -14.7 Q-7.0 -15.2 -5.85 -15.9 -5.65 -15.9 -5.65 -15.8 -5.6 -15.8 -5.6 -15.65 -5.55 -15.7 -5.45 -15.8 -5.35 -15.9 -5.25 -15.95 -4.95 -16.15 -4.1 -16.2 -4.0 -16.25 -3.9 -16.45 -3.75 -16.7 -3.7 -16.8 -3.4 -17.1 -2.7 -16.85 -2.25 -16.8 -1.95 -16.95 L-1.95 -17.0 Q-1.95 -17.1 -1.95 -17.25 -1.95 -17.6 -0.95 -18.05 -0.45 -18.25 0.2 -18.45 0.5 -18.45 0.7 -18.35 L1.05 -18.2 Q1.1 -18.2 1.15 -18.25 1.2 -18.35 1.35 -18.35 L2.05 -18.25 Q2.6 -18.15 2.8 -18.1 L3.35 -17.55 Q3.65 -17.2 3.8 -17.05 L4.45 -16.95 Q4.8 -16.85 5.1 -16.9 5.55 -16.55 5.65 -16.2 5.75 -15.85 5.55 -15.5 L5.65 -15.4 6.2 -15.4 6.35 -15.65 Q6.4 -15.8 6.55 -15.8 L6.65 -15.7 Q6.75 -15.85 6.95 -15.8 7.2 -15.8 7.5 -15.6 7.85 -15.35 8.0 -15.05 8.1 -14.8 8.05 -14.55 L8.1 -14.5 8.05 -14.4 8.05 -14.45 7.95 -14.3 Q8.0 -14.25 8.05 -14.2 8.3 -14.15 8.55 -14.05 8.75 -13.95 8.9 -13.95 9.05 -13.95 9.1 -14.05 L9.2 -14.2 9.8 -14.25 10.0 -14.4 Q11.2 -14.4 11.55 -14.05 11.65 -13.95 11.75 -13.75 M7.9 -14.75 L7.9 -14.75 M5.3 -12.4 Q5.2 -12.45 5.2 -12.5 L4.55 -12.5 Q4.5 -12.15 4.35 -12.0 L4.3 -11.95 Q4.25 -11.9 4.25 -11.85 4.25 -11.75 4.4 -11.5 4.55 -11.2 4.65 -11.1 L5.1 -11.05 Q5.45 -10.55 5.35 -10.35 L5.25 -10.2 Q5.2 -10.1 5.2 -9.9 5.2 -9.8 5.45 -9.6 5.7 -9.4 5.7 -9.3 5.7 -9.2 5.6 -8.9 5.5 -8.65 5.5 -8.5 5.5 -8.35 5.55 -8.3 5.6 -8.25 5.6 -8.2 L5.6 -8.15 Q5.6 -8.1 5.75 -8.1 6.4 -8.1 6.6 -8.25 6.65 -8.25 6.7 -8.35 6.75 -8.4 6.8 -8.4 L7.25 -8.4 Q7.3 -8.3 7.4 -8.2 L7.55 -7.95 Q7.8 -7.65 7.7 -7.4 8.05 -7.25 8.2 -7.45 L8.3 -7.6 Q8.4 -7.7 8.45 -7.7 8.7 -7.7 8.85 -7.45 9.0 -7.2 9.25 -7.1 9.4 -7.25 9.55 -7.4 L9.65 -7.55 Q9.65 -7.65 9.45 -7.9 9.25 -8.1 9.25 -8.15 9.25 -8.3 9.35 -8.45 9.45 -8.65 9.45 -8.75 9.45 -8.95 9.4 -9.0 9.3 -9.05 9.25 -9.15 L8.8 -9.2 8.45 -9.5 Q8.2 -9.7 8.1 -9.85 L7.85 -9.9 Q7.7 -10.0 7.65 -10.15 7.65 -10.2 7.65 -10.35 7.65 -10.55 7.7 -10.65 7.7 -10.75 7.85 -10.9 7.85 -10.95 7.75 -11.05 7.7 -11.15 7.6 -11.2 7.4 -11.2 7.25 -11.1 7.15 -11.05 7.0 -11.05 6.75 -11.05 6.65 -11.25 6.55 -11.4 6.55 -11.6 L6.05 -11.65 6.05 -11.85 5.85 -11.95 Q5.8 -12.0 5.75 -12.1 L5.65 -12.3 Q5.45 -12.35 5.3 -12.4 M4.2 -5.75 L4.0 -5.35 3.95 -5.35 Q3.85 -5.3 3.75 -5.25 L3.65 -5.35 3.6 -5.3 3.6 -5.5 Q3.55 -5.65 3.6 -5.85 L3.65 -6.15 Q3.65 -6.3 3.65 -6.4 L3.5 -6.65 Q3.4 -6.8 3.4 -6.95 3.4 -7.0 3.45 -7.15 3.5 -7.35 3.5 -7.5 L3.45 -7.55 Q3.35 -7.7 3.25 -7.75 3.0 -8.0 2.7 -7.9 L2.4 -7.9 2.3 -8.05 Q2.15 -8.2 1.8 -8.2 1.9 -8.6 1.6 -8.95 L1.35 -9.25 Q1.2 -9.45 1.15 -9.6 L0.65 -9.55 Q0.55 -9.45 0.45 -9.3 0.4 -9.15 0.4 -9.05 -0.4 -8.75 -0.85 -9.25 -0.95 -9.35 -1.15 -9.6 -1.3 -9.8 -1.45 -9.8 -1.75 -9.8 -2.5 -9.35 -3.15 -8.95 -3.45 -8.7 -3.6 -8.6 -3.55 -8.1 -3.5 -7.65 -3.5 -7.5 -3.5 -7.2 -4.0 -6.65 L-4.3 -6.3 -4.45 -6.1 Q-4.45 -5.95 -4.35 -5.95 -4.25 -5.95 -4.25 -5.8 -4.25 -5.65 -4.35 -5.55 -4.4 -5.45 -4.55 -5.35 -4.85 -5.15 -4.85 -4.9 -4.85 -4.8 -4.75 -4.7 -4.6 -4.6 -4.55 -4.4 L-4.55 -3.9 -4.65 -3.85 -4.75 -4.1 Q-4.8 -4.15 -4.9 -4.25 -5.05 -4.4 -5.45 -4.45 -5.7 -4.6 -5.7 -4.95 -5.7 -5.2 -5.55 -5.45 L-5.65 -5.55 Q-5.7 -5.6 -5.75 -5.6 L-6.25 -5.55 Q-6.3 -5.25 -6.75 -5.1 L-7.1 -4.95 Q-7.3 -4.9 -7.35 -4.8 L-7.8 -4.35 Q-8.2 -3.95 -8.45 -3.8 -9.1 -3.45 -9.1 -2.85 -9.1 -2.65 -9.05 -2.3 -8.95 -1.95 -8.95 -1.8 -8.95 -1.7 -9.05 -1.45 -9.2 -1.3 -9.2 -1.15 -9.2 -0.7 -8.9 0.0 -8.5 0.95 -7.9 1.15 -7.8 1.3 -7.75 1.35 -7.7 1.5 -7.7 1.7 -7.7 1.75 -7.55 2.05 -7.4 2.4 -7.4 2.5 -7.4 2.65 -7.5 2.8 -7.6 3.0 -7.6 3.05 -7.6 3.15 -7.5 3.2 -7.45 3.3 -7.45 3.45 L-7.45 3.5 -7.55 3.5 -7.6 3.55 Q-7.65 3.6 -7.8 3.65 -8.05 3.7 -8.05 4.0 -8.05 4.15 -8.0 4.3 -7.95 4.5 -7.95 4.6 L-7.7 4.65 Q-7.3 4.9 -7.3 5.35 L-7.3 5.7 Q-7.3 5.9 -7.2 6.05 -7.1 6.2 -6.5 6.35 -6.0 6.5 -5.65 6.55 L-5.05 6.6 Q-4.65 6.6 -4.1 6.5 L-3.45 6.5 Q-3.25 6.7 -2.65 6.75 L-2.1 6.85 -1.8 6.55 -1.9 6.45 Q-1.95 6.35 -1.95 6.2 -1.95 6.0 -1.95 5.95 -1.9 5.85 -1.85 5.8 L-1.6 5.7 -1.3 5.65 Q-1.25 5.55 -1.0 5.4 -0.7 5.2 -0.55 5.0 L-0.5 4.8 -0.55 4.75 Q-0.7 4.65 -0.9 4.65 L-0.95 4.6 -0.95 4.45 Q-0.95 3.9 -0.75 3.65 -0.65 3.45 -0.3 3.3 0.0 3.1 0.1 3.0 0.3 2.8 0.3 2.4 0.3 2.1 0.55 1.95 0.7 1.9 1.15 1.85 1.6 1.75 1.8 1.65 2.15 1.45 2.3 1.05 2.35 1.0 2.5 0.85 L2.7 0.6 Q2.6 0.35 2.7 0.2 L2.85 -0.15 Q3.0 -0.5 3.2 -0.55 L3.8 -0.5 4.0 -0.4 4.45 -0.45 4.55 -0.55 Q4.65 -0.65 4.65 -0.8 4.65 -0.9 5.15 -1.25 5.8 -1.6 5.95 -1.85 6.1 -2.1 6.1 -2.35 L6.05 -2.8 Q6.05 -2.95 6.25 -3.4 6.45 -3.85 6.45 -4.1 6.45 -4.55 6.45 -4.65 6.4 -4.85 6.1 -5.35 6.05 -5.45 6.0 -5.7 L5.95 -6.0 Q5.9 -6.4 5.3 -6.45 L5.2 -6.15 Q5.05 -5.95 4.75 -5.95 L4.35 -6.25 Q4.3 -6.05 4.2 -5.75 M10.55 -3.15 Q10.55 -3.05 10.6 -2.9 10.7 -2.7 10.85 -2.55 L11.2 -2.5 Q11.25 -2.35 11.25 -2.15 L11.15 -1.8 Q11.1 -1.6 11.2 -1.55 11.25 -1.45 11.55 -1.5 L11.8 -1.45 Q11.85 -1.45 11.9 -1.3 11.95 -1.2 12.0 -1.2 L12.45 -1.85 Q12.75 -2.2 12.75 -2.4 12.75 -2.6 12.55 -3.1 12.3 -3.65 12.25 -3.8 L12.15 -3.75 11.95 -3.55 11.55 -3.6 11.15 -3.9 10.75 -3.5 Q10.55 -3.25 10.55 -3.15 M8.5 3.9 Q8.55 3.85 8.55 3.75 8.55 3.6 8.45 3.4 L8.3 3.1 Q8.25 2.9 8.2 2.8 8.1 2.65 7.65 2.8 L7.45 2.6 7.1 2.85 Q6.75 3.1 6.6 3.15 6.25 3.15 5.95 3.0 5.65 2.9 5.55 2.9 5.5 2.9 5.0 3.15 L4.5 3.45 Q4.4 3.45 4.15 3.3 3.85 3.15 3.75 3.15 3.7 3.15 3.35 3.45 L3.0 3.75 Q3.0 3.9 3.1 4.05 3.2 4.2 3.2 4.35 3.2 4.45 3.15 4.55 3.1 4.55 2.95 4.6 2.65 4.75 2.45 5.1 2.4 5.2 2.5 5.45 2.6 5.7 2.6 5.8 2.6 6.05 2.5 6.15 2.45 6.2 2.25 6.25 2.1 6.3 2.05 6.4 1.95 6.55 1.95 6.8 1.95 6.85 2.0 6.9 2.1 7.0 2.35 7.1 2.45 7.1 2.45 7.15 2.45 7.2 2.6 7.2 2.85 7.2 2.9 6.9 2.9 6.75 2.95 6.65 2.95 6.5 3.05 6.4 L3.35 6.3 Q3.55 6.2 3.7 6.15 L3.95 6.2 4.15 6.35 4.95 6.25 5.55 6.2 Q5.65 6.15 5.8 5.95 L6.0 5.65 6.35 5.65 Q6.7 5.65 6.75 5.7 L7.55 5.65 Q7.85 5.55 7.95 5.25 L8.05 5.0 Q8.15 4.8 8.3 4.65 8.3 4.15 8.4 4.0 L8.5 3.9 M-8.05 -10.55 Q-8.2 -10.55 -8.3 -10.3 L-8.5 -10.05 Q-8.5 -10.0 -8.9 -9.85 -9.3 -9.7 -9.35 -9.6 -9.4 -9.45 -9.4 -9.1 L-9.4 -8.6 Q-9.4 -8.5 -9.5 -8.4 L-9.7 -8.15 Q-10.0 -7.85 -10.0 -7.55 -10.0 -7.4 -9.95 -7.2 L-9.9 -6.9 Q-9.85 -6.65 -9.7 -6.6 L-9.55 -6.5 Q-9.45 -6.5 -9.4 -6.4 -9.15 -6.55 -8.8 -7.05 -8.45 -7.5 -8.15 -7.65 -8.15 -7.6 -8.1 -7.6 -8.0 -7.55 -7.85 -7.55 L-7.5 -7.55 -7.3 -7.6 Q-7.1 -7.65 -7.05 -7.8 -7.0 -7.9 -7.0 -8.05 L-7.0 -8.35 Q-7.0 -8.55 -6.9 -8.65 -6.7 -8.85 -6.4 -9.1 -6.2 -9.3 -6.3 -9.65 -5.5 -9.65 -5.2 -9.75 -4.8 -9.85 -4.7 -10.1 L-4.75 -10.3 Q-4.85 -10.35 -4.9 -10.4 -4.95 -10.5 -4.95 -10.6 L-5.1 -10.85 -5.05 -10.85 -4.9 -10.75 Q-4.85 -10.9 -4.75 -11.05 -4.95 -11.1 -5.25 -11.35 -5.55 -11.5 -5.75 -11.25 -6.3 -11.55 -6.65 -11.15 -6.75 -11.0 -6.95 -10.7 -7.1 -10.45 -7.2 -10.3 -7.5 -10.35 -7.75 -10.45 -7.95 -10.55 -8.05 -10.55 M-12.7 -1.15 Q-12.7 -1.1 -12.55 -0.85 -12.4 -0.65 -12.4 -0.6 -12.4 -0.3 -12.65 -0.05 -12.9 0.2 -12.9 0.35 -12.9 0.65 -12.8 0.8 -12.75 0.9 -12.6 1.1 -12.25 1.5 -12.05 2.1 -11.35 2.25 -11.05 2.45 -10.7 2.6 -10.65 2.9 L-10.15 3.0 Q-10.0 2.8 -9.9 2.75 -9.85 2.65 -9.8 2.7 L-9.6 2.75 Q-9.45 2.8 -9.25 2.8 -9.2 2.8 -9.05 2.6 -8.95 2.4 -8.8 2.3 -9.25 1.9 -9.45 1.25 -9.55 0.9 -9.65 0.25 -9.65 0.1 -9.9 -0.15 -10.15 -0.4 -10.45 -0.6 -10.55 -0.7 -10.7 -1.05 -10.9 -1.4 -11.05 -1.5 L-11.2 -1.5 -11.45 -1.45 -11.7 -1.45 Q-11.75 -1.55 -11.8 -1.65 -11.85 -1.75 -11.85 -1.85 L-12.1 -1.65 Q-12.35 -1.5 -12.55 -1.5 -12.5 -1.5 -12.6 -1.4 -12.7 -1.3 -12.7 -1.15 M-2.65 4.7 Q-2.55 4.1 -2.15 3.9 L-1.6 3.95 Q-1.55 4.0 -1.4 4.2 -1.25 4.4 -1.25 4.5 -1.25 4.65 -1.3 4.65 L-1.35 4.6 -1.4 4.6 -1.3 4.75 Q-1.35 4.8 -1.55 4.9 L-1.7 4.95 -1.8 5.1 -2.2 5.45 Q-2.85 5.45 -3.0 5.6 L-3.1 5.75 Q-3.15 5.8 -3.25 5.75 L-3.3 5.75 -3.35 5.6 Q-3.35 5.3 -3.05 5.05 -2.75 4.85 -2.65 4.7 M-1.6 4.7 L-1.5 4.65 -1.6 4.65 -1.6 4.7 M-7.4 1.45 L-7.35 1.2 Q-6.65 1.4 -6.45 1.65 -6.4 1.8 -6.4 1.95 -6.35 2.05 -6.35 2.35 -6.35 2.5 -6.4 2.6 -6.45 2.75 -6.45 2.85 L-6.6 2.95 Q-6.85 2.85 -6.9 2.65 -6.9 2.4 -6.95 2.3 -6.95 2.2 -7.2 2.05 -7.4 1.9 -7.4 1.75 L-7.4 1.45" fill="#ffffff" fill-rule="evenodd" stroke="none"/>
  </g>
</svg>
