<?xml version="1.0" encoding="UTF-8" standalone="no"?>
<svg xmlns:ffdec="https://www.free-decompiler.com/flash" xmlns:xlink="http://www.w3.org/1999/xlink" ffdec:objectType="shape" height="2.3px" width="2.5px" xmlns="http://www.w3.org/2000/svg">
  <g transform="matrix(1.0, 0.0, 0.0, 1.0, 1.25, 2.3)">
    <path d="M-1.0 -1.25 L-0.9 -1.25 -1.0 -1.2 -1.0 -1.25 M0.4 -2.1 Q0.45 -2.15 0.45 -2.1 L0.4 -2.1 M-0.5 -0.6 L-0.5 -0.5 -0.55 -0.45 -0.55 -0.5 -0.5 -0.6" fill="#b5fffe" fill-rule="evenodd" stroke="none"/>
    <path d="M-0.3 -1.65 L-0.25 -1.6 -0.3 -1.6 -0.3 -1.65" fill="#bfdbff" fill-rule="evenodd" stroke="none"/>
    <path d="M0.25 -2.15 L-0.2 -2.15 Q-0.25 -2.1 -0.3 -2.1 -0.35 -2.05 -0.4 -2.05 -0.6 -1.95 -0.8 -1.85 -0.85 -1.55 -0.95 -1.35 -0.95 -1.3 -1.0 -1.25 L-1.0 -1.2 -0.9 -1.25 Q-0.8 -1.35 -0.7 -1.4 L-0.35 -1.55 Q-0.4 -1.6 -0.4 -1.65 -0.45 -1.75 -0.45 -1.8 -0.45 -1.85 -0.4 -1.95 -0.35 -2.0 -0.35 -2.05 L-0.3 -2.1 -0.3 -2.0 Q-0.3 -1.95 -0.3 -1.8 -0.3 -1.75 -0.3 -1.7 L-0.3 -1.65 -0.3 -1.6 -0.25 -1.6 Q-0.1 -1.65 0.0 -1.7 0.0 -1.75 0.1 -1.85 0.2 -2.05 0.3 -2.1 L0.25 -2.15 M0.45 -2.1 Q0.6 -2.0 0.75 -1.85 1.05 -1.6 1.15 -1.5 L1.2 -1.5 1.25 -1.45 1.2 -1.35 Q1.15 -1.05 1.1 -0.9 L1.1 -0.85 1.05 -0.8 Q1.05 -0.75 1.0 -0.75 0.95 -0.7 0.85 -0.6 L0.7 -0.5 Q0.7 -0.35 0.65 -0.25 0.55 0.0 0.3 0.0 0.25 0.0 0.25 -0.05 L0.15 0.0 Q0.0 0.0 -0.5 0.0 -0.6 0.0 -0.65 -0.2 -0.65 -0.25 -0.65 -0.3 L-0.65 -0.45 Q-0.75 -0.5 -0.9 -0.65 -1.1 -0.75 -1.15 -0.9 L-1.2 -0.8 -1.25 -0.8 -1.25 -0.85 -1.2 -0.95 -1.25 -1.0 -1.2 -1.0 Q-1.2 -1.1 -1.1 -1.4 -0.95 -1.75 -0.85 -1.85 L-0.9 -1.9 -0.8 -2.0 Q-0.7 -2.05 -0.65 -2.1 -0.45 -2.2 -0.3 -2.25 L-0.2 -2.25 0.05 -2.3 Q0.25 -2.3 0.35 -2.25 L0.3 -2.2 0.4 -2.1 0.45 -2.1 M0.25 -1.9 Q0.2 -1.7 0.2 -1.65 L0.3 -1.55 0.5 -1.3 Q0.85 -0.95 0.85 -0.8 L0.9 -0.85 0.9 -0.95 1.0 -1.2 1.05 -1.3 Q0.95 -1.4 0.6 -1.75 0.5 -1.9 0.35 -2.05 L0.25 -1.9 M0.0 -1.55 Q-0.05 -1.55 -0.1 -1.55 -0.25 -1.45 -0.4 -1.35 -0.25 -1.35 0.05 -1.25 0.2 -1.2 0.4 -1.1 L0.3 -1.2 Q0.15 -1.35 0.05 -1.5 L0.0 -1.55 M0.75 -0.8 Q0.7 -0.8 0.65 -0.85 L0.6 -0.85 Q0.55 -0.85 0.45 -0.95 L0.2 -1.05 Q-0.1 -1.25 -0.3 -1.25 -0.35 -1.25 -0.45 -1.2 L-0.55 -1.15 -0.7 -1.15 -0.7 -1.2 Q-0.9 -1.05 -1.0 -1.05 L-1.05 -1.05 -1.1 -0.95 Q-1.0 -0.85 -0.85 -0.8 L-0.8 -0.75 -0.75 -0.7 -0.65 -0.6 -0.65 -0.65 Q-0.65 -0.7 -0.6 -0.7 L-0.55 -0.75 Q-0.4 -0.9 -0.15 -0.9 -0.1 -0.9 -0.05 -0.9 0.15 -0.9 0.3 -0.8 0.45 -0.7 0.55 -0.6 0.6 -0.65 0.75 -0.75 L0.8 -0.75 0.75 -0.8 M0.35 -0.2 Q0.45 -0.25 0.5 -0.35 L0.5 -0.4 0.2 -0.6 Q0.0 -0.7 -0.1 -0.75 -0.1 -0.7 -0.15 -0.55 -0.2 -0.4 -0.25 -0.3 L-0.2 -0.25 0.05 -0.25 0.1 -0.2 0.35 -0.2 M-0.55 -0.45 L-0.55 -0.3 -0.45 -0.35 Q-0.4 -0.4 -0.35 -0.4 -0.3 -0.5 -0.25 -0.65 -0.25 -0.75 -0.2 -0.8 -0.3 -0.8 -0.45 -0.65 L-0.5 -0.6 -0.55 -0.5 -0.55 -0.45 M-0.25 -0.2 Q-0.3 -0.2 -0.35 -0.25 L-0.4 -0.2 -0.25 -0.2" fill="#ccfffe" fill-rule="evenodd" stroke="none"/>
    <path d="M-1.0 -1.25 Q-0.95 -1.3 -0.95 -1.35 -0.85 -1.55 -0.8 -1.85 -0.6 -1.95 -0.4 -2.05 -0.35 -2.05 -0.3 -2.1 -0.25 -2.1 -0.2 -2.15 L0.25 -2.15 0.3 -2.1 Q0.2 -2.05 0.1 -1.85 0.0 -1.75 0.0 -1.7 -0.1 -1.65 -0.25 -1.6 L-0.3 -1.65 -0.3 -1.7 Q-0.3 -1.75 -0.3 -1.8 -0.3 -1.95 -0.3 -2.0 L-0.3 -2.1 -0.35 -2.05 Q-0.35 -2.0 -0.4 -1.95 -0.45 -1.85 -0.45 -1.8 -0.45 -1.75 -0.4 -1.65 -0.4 -1.6 -0.35 -1.55 L-0.7 -1.4 Q-0.8 -1.35 -0.9 -1.25 L-1.0 -1.25 M-0.8 -0.75 L-0.85 -0.8 Q-1.0 -0.85 -1.1 -0.95 L-1.05 -1.05 -1.0 -1.05 Q-0.9 -1.05 -0.7 -1.2 L-0.7 -1.15 -0.55 -1.15 -0.45 -1.2 Q-0.35 -1.25 -0.3 -1.25 -0.1 -1.25 0.2 -1.05 L0.45 -0.95 Q0.55 -0.85 0.6 -0.85 L0.65 -0.85 Q0.7 -0.8 0.75 -0.8 L0.75 -0.75 Q0.6 -0.65 0.55 -0.6 0.45 -0.7 0.3 -0.8 0.15 -0.9 -0.05 -0.9 -0.1 -0.9 -0.15 -0.9 -0.4 -0.9 -0.55 -0.75 L-0.6 -0.7 Q-0.65 -0.7 -0.65 -0.65 L-0.65 -0.6 -0.75 -0.7 -0.8 -0.7 -0.8 -0.75 M0.0 -1.55 L0.05 -1.5 Q0.15 -1.35 0.3 -1.2 L0.4 -1.1 Q0.2 -1.2 0.05 -1.25 -0.25 -1.35 -0.4 -1.35 -0.25 -1.45 -0.1 -1.55 -0.05 -1.55 0.0 -1.55 M0.25 -1.9 L0.35 -2.05 Q0.5 -1.9 0.6 -1.75 0.95 -1.4 1.05 -1.3 L1.0 -1.2 0.9 -0.95 0.9 -0.85 0.85 -0.8 Q0.85 -0.95 0.5 -1.3 L0.3 -1.55 0.2 -1.65 Q0.2 -1.7 0.25 -1.9 M0.35 -0.2 L0.1 -0.2 0.05 -0.25 -0.2 -0.25 -0.25 -0.3 Q-0.2 -0.4 -0.15 -0.55 -0.1 -0.7 -0.1 -0.75 0.0 -0.7 0.2 -0.6 L0.5 -0.4 0.5 -0.35 Q0.45 -0.25 0.35 -0.2 M-0.5 -0.6 L-0.45 -0.65 Q-0.3 -0.8 -0.2 -0.8 -0.25 -0.75 -0.25 -0.65 -0.3 -0.5 -0.35 -0.4 -0.4 -0.4 -0.45 -0.35 L-0.55 -0.3 -0.55 -0.45 -0.5 -0.5 -0.5 -0.6 M-0.25 -0.2 L-0.4 -0.2 -0.35 -0.25 Q-0.3 -0.2 -0.25 -0.2" fill="#ccfffe" fill-opacity="0.7529412" fill-rule="evenodd" stroke="none"/>
  </g>
</svg>
