<?xml version="1.0" encoding="UTF-8" standalone="no"?>
<svg xmlns:ffdec="https://www.free-decompiler.com/flash" xmlns:xlink="http://www.w3.org/1999/xlink" ffdec:objectType="shape" height="1.4px" width="1.25px" xmlns="http://www.w3.org/2000/svg">
  <g transform="matrix(1.0, 0.0, 0.0, 1.0, 0.6, 1.4)">
    <path d="M0.2 -1.2 L0.25 -1.2 Q0.3 -1.15 0.3 -1.05 L0.35 -1.05 Q0.4 -1.0 0.4 -0.95 L0.45 -0.95 0.5 -0.9 0.55 -0.9 0.55 -0.8 Q0.5 -0.8 0.5 -0.75 L0.5 -0.5 Q0.5 -0.45 0.45 -0.45 0.4 -0.45 0.35 -0.45 L0.3 -0.45 0.3 -0.4 0.35 -0.45 Q0.4 -0.45 0.4 -0.4 L0.4 -0.35 Q0.35 -0.3 0.35 -0.2 L0.35 -0.1 Q0.3 -0.15 0.25 -0.1 L0.2 -0.1 0.25 -0.05 Q0.2 0.0 0.15 0.0 0.1 0.0 0.05 -0.05 0.05 0.0 0.0 0.0 -0.1 0.0 -0.15 -0.05 -0.2 -0.1 -0.2 -0.15 L-0.3 -0.15 -0.3 -0.2 Q-0.35 -0.2 -0.35 -0.25 -0.5 -0.25 -0.55 -0.25 -0.6 -0.25 -0.6 -0.3 -0.6 -0.35 -0.55 -0.45 L-0.5 -0.5 -0.5 -0.55 -0.45 -0.65 Q-0.45 -0.75 -0.4 -0.8 L-0.4 -0.9 Q-0.4 -0.95 -0.4 -1.0 -0.35 -1.0 -0.3 -1.05 L-0.25 -1.05 Q-0.15 -1.1 -0.15 -1.2 -0.1 -1.2 -0.05 -1.2 0.0 -1.25 0.05 -1.25 0.05 -1.3 0.1 -1.3 0.15 -1.3 0.2 -1.2" fill="#ccfffe" fill-opacity="0.7529412" fill-rule="evenodd" stroke="none"/>
    <path d="M0.15 -1.35 Q0.2 -1.35 0.2 -1.3 L0.25 -1.25 Q0.3 -1.2 0.3 -1.15 0.3 -1.1 0.35 -1.1 0.4 -1.05 0.45 -1.0 L0.65 -1.0 0.65 -0.9 Q0.6 -0.85 0.6 -0.65 L0.55 -0.5 0.5 -0.5 Q0.5 -0.45 0.45 -0.45 L0.45 -0.4 0.4 -0.35 0.45 -0.3 Q0.45 -0.2 0.45 -0.15 L0.45 -0.1 0.4 -0.1 Q0.35 -0.05 0.25 0.0 0.2 0.0 0.15 0.0 L-0.05 0.0 -0.15 -0.05 -0.35 -0.1 -0.5 -0.2 -0.55 -0.2 -0.6 -0.25 -0.6 -0.35 -0.55 -0.6 Q-0.45 -0.85 -0.4 -0.95 L-0.45 -1.0 -0.4 -1.0 Q-0.25 -1.15 -0.15 -1.2 0.0 -1.3 0.15 -1.4 L0.15 -1.35 M0.1 -1.25 Q0.05 -1.25 -0.05 -1.15 L-0.1 -1.15 Q-0.15 -1.1 -0.2 -1.1 L-0.25 -1.05 -0.4 -1.0 -0.4 -0.9 -0.35 -0.95 Q-0.25 -0.95 -0.25 -0.9 -0.25 -0.85 -0.2 -0.8 L-0.2 -0.65 Q-0.15 -0.7 -0.05 -0.75 0.1 -0.8 0.15 -0.85 0.15 -0.9 0.15 -0.95 0.1 -1.1 0.1 -1.15 L0.1 -1.2 Q0.1 -1.25 0.15 -1.25 L0.1 -1.25 M0.25 -1.15 Q0.25 -1.1 0.2 -1.05 L0.2 -0.8 0.3 -0.7 Q0.45 -0.65 0.45 -0.6 0.5 -0.7 0.5 -0.75 L0.55 -0.8 0.55 -0.9 Q0.4 -0.9 0.3 -1.05 0.25 -1.1 0.25 -1.15 M0.1 -0.7 Q0.05 -0.7 -0.05 -0.65 L-0.1 -0.6 Q-0.05 -0.6 0.05 -0.5 0.05 -0.4 0.1 -0.35 0.15 -0.35 0.2 -0.4 L0.3 -0.45 Q0.35 -0.45 0.4 -0.5 0.45 -0.5 0.45 -0.55 0.4 -0.55 0.3 -0.6 L0.3 -0.65 0.15 -0.75 Q0.15 -0.7 0.1 -0.7 M0.35 -0.3 L0.35 -0.35 Q0.35 -0.3 0.3 -0.3 L0.2 -0.3 0.15 -0.2 0.1 -0.2 0.05 -0.2 0.05 -0.25 Q-0.1 -0.45 -0.15 -0.55 -0.15 -0.5 -0.2 -0.4 -0.25 -0.3 -0.25 -0.2 -0.15 -0.1 0.0 -0.05 L0.2 -0.1 Q0.3 -0.15 0.35 -0.1 L0.35 -0.15 Q0.35 -0.2 0.4 -0.25 L0.35 -0.3 M-0.4 -0.8 Q-0.45 -0.7 -0.45 -0.6 -0.5 -0.5 -0.55 -0.4 L-0.55 -0.3 -0.4 -0.25 -0.35 -0.25 Q-0.3 -0.35 -0.3 -0.45 -0.25 -0.5 -0.2 -0.6 -0.3 -0.6 -0.3 -0.7 -0.3 -0.75 -0.3 -0.8 L-0.3 -0.85 -0.35 -0.85 -0.4 -0.8 M-0.6 -0.3 L-0.6 -0.3" fill="#ccfffe" fill-rule="evenodd" stroke="none"/>
  </g>
</svg>
