<?xml version="1.0" encoding="UTF-8" standalone="no"?>
<svg xmlns:ffdec="https://www.free-decompiler.com/flash" xmlns:xlink="http://www.w3.org/1999/xlink" ffdec:objectType="shape" height="3.5px" width="6.6px" xmlns="http://www.w3.org/2000/svg">
  <g transform="matrix(1.0, 0.0, 0.0, 1.0, 6.25, 2.5)">
    <path d="M-4.9 -0.35 L-0.5 0.7 -0.55 0.75 -0.75 0.9 -4.9 -0.35" fill="#ebf7fc" fill-rule="evenodd" stroke="none"/>
    <path d="M0.3 -0.25 Q-0.15 0.45 -0.8 0.95 L-1.8 1.0 -2.6 0.95 -3.25 0.9 -4.5 0.85 Q-5.0 0.85 -5.05 0.65 -5.1 0.55 -5.15 0.5 -5.25 0.4 -5.55 0.4 -5.75 0.35 -6.0 0.15 -6.25 -0.05 -6.25 -0.15 -6.25 -0.3 -6.05 -0.4 L-5.65 -0.65 -5.6 -0.75 -5.6 -0.95 Q-5.5 -1.15 -5.05 -1.15 -4.75 -1.15 -4.7 -1.05 L-4.65 -0.9 Q-4.65 -0.8 -4.5 -0.7 -4.25 -0.6 -3.95 -0.6 -3.35 -0.6 -2.95 -0.8 -2.75 -0.95 -2.65 -1.05 L-2.5 -1.05 -2.3 -0.9 Q-2.1 -0.75 -1.85 -0.75 -1.6 -0.75 -1.4 -1.0 -1.25 -1.1 -1.15 -1.25 -1.1 -1.4 -0.85 -1.55 -0.55 -1.75 -0.55 -1.45 L-0.55 -1.4 Q-0.6 -1.4 -0.6 -1.35 L-0.55 -1.15 Q-0.4 -0.8 0.0 -0.8 L0.3 -0.8 0.35 -0.85 Q0.3 -0.5 0.3 -0.25 M-2.5 -2.3 Q-2.3 -2.55 -2.15 -2.5 -2.05 -2.45 -2.05 -2.35 L-2.0 -2.15 -2.0 -1.95 Q-1.95 -1.85 -1.95 -1.8 -1.95 -1.7 -2.0 -1.6 -2.05 -1.5 -2.15 -1.5 L-2.3 -1.5 Q-2.35 -1.5 -2.55 -1.75 -2.7 -1.95 -2.7 -2.0 -2.7 -2.1 -2.5 -2.3" fill="#ebf7fc" fill-rule="evenodd" stroke="none"/>
  </g>
</svg>
