<?xml version="1.0" encoding="UTF-8" standalone="no"?>
<svg xmlns:ffdec="https://www.free-decompiler.com/flash" xmlns:xlink="http://www.w3.org/1999/xlink" ffdec:objectType="shape" height="29.0px" width="25.3px" xmlns="http://www.w3.org/2000/svg">
  <g transform="matrix(1.0, 0.0, 0.0, 1.0, -12.5, 19.4)">
    <path d="M12.6 -7.3 L12.8 -7.3 Q12.95 -7.2 13.05 -7.0 12.9 -6.8 12.75 -6.75 L12.55 -6.8 Q12.5 -6.8 12.5 -7.05 12.5 -7.25 12.6 -7.3 M20.35 -10.95 Q20.35 -11.2 20.45 -11.3 20.55 -11.35 20.8 -11.35 21.25 -11.35 21.25 -10.9 L21.2 -10.6 21.15 -10.4 20.85 -10.35 Q20.5 -10.45 20.4 -10.6 20.35 -10.7 20.35 -10.95 M25.15 -10.25 Q25.6 -10.2 25.6 -9.75 25.6 -9.1 25.15 -9.1 24.75 -9.1 24.7 -9.35 24.65 -9.5 24.7 -9.7 24.7 -10.3 25.15 -10.25 M23.4 -9.35 Q23.4 -9.55 23.55 -9.6 23.7 -9.7 24.05 -9.6 L24.1 -9.3 24.05 -9.0 23.9 -8.95 Q23.8 -8.9 23.75 -8.9 L23.5 -9.15 Q23.4 -9.25 23.4 -9.35 M18.1 -9.7 L17.8 -9.7 17.75 -9.75 Q17.7 -9.75 17.7 -9.95 17.7 -10.15 17.9 -10.3 L18.1 -10.4 Q18.3 -10.35 18.4 -10.15 18.35 -10.0 18.1 -9.7 M14.25 -3.25 Q14.0 -3.3 13.95 -3.4 L13.95 -3.55 14.1 -3.55 14.4 -3.45 Q14.35 -3.3 14.25 -3.25 M23.5 -5.65 Q23.4 -5.4 23.1 -5.4 22.7 -5.4 22.6 -5.8 L22.55 -6.05 Q22.55 -6.55 23.1 -6.5 23.6 -6.45 23.6 -6.05 23.6 -5.8 23.5 -5.65 M19.95 -6.25 Q20.15 -6.45 20.55 -6.25 L20.65 -6.05 20.15 -5.55 19.9 -5.6 Q19.85 -5.7 19.85 -5.9 19.85 -6.1 19.95 -6.25 M19.3 -0.3 L19.5 -0.25 Q19.45 -0.15 19.35 -0.1 L19.25 -0.15 Q19.15 -0.2 19.15 -0.3 L19.3 -0.3 M30.45 -17.8 Q30.75 -17.55 30.75 -17.25 30.75 -16.9 30.55 -16.55 30.35 -16.1 29.95 -16.1 29.65 -16.1 29.25 -16.6 L28.95 -17.1 Q28.95 -18.25 29.85 -18.1 30.2 -18.05 30.45 -17.8 M34.65 -18.55 Q34.65 -18.15 34.55 -17.95 34.35 -17.7 33.9 -17.7 33.4 -17.7 33.25 -18.1 33.2 -18.25 33.2 -18.6 33.2 -19.45 33.95 -19.4 34.2 -19.35 34.45 -19.15 34.65 -18.9 34.65 -18.55 M34.8 -17.65 Q35.5 -17.2 35.5 -16.5 35.5 -16.1 35.45 -15.95 35.3 -15.65 34.85 -15.65 34.3 -15.65 34.15 -16.5 34.05 -16.95 34.05 -17.25 34.05 -17.65 34.3 -17.75 34.5 -17.8 34.8 -17.65 M36.15 -12.7 L36.1 -12.5 36.1 -12.45 35.85 -12.4 35.65 -12.45 35.65 -12.5 35.6 -12.45 Q35.55 -12.45 35.55 -12.65 35.55 -12.95 35.6 -12.85 L36.0 -12.9 36.15 -12.7 M35.35 -12.75 Q35.0 -12.45 34.65 -12.45 34.35 -12.45 34.15 -12.75 34.0 -12.9 34.0 -13.05 34.0 -13.95 34.9 -14.1 35.25 -14.1 35.5 -13.95 35.75 -13.75 35.75 -13.45 35.75 -13.1 35.35 -12.75 M31.8 -10.5 L31.65 -10.4 31.55 -10.45 31.5 -10.5 31.55 -10.75 31.7 -10.75 31.8 -10.65 31.8 -10.5 M34.35 -8.8 L34.05 -8.95 Q34.2 -9.1 34.3 -9.2 L34.5 -9.25 34.6 -9.05 Q34.55 -8.85 34.35 -8.8 M32.1 -11.15 Q31.95 -10.9 31.65 -10.9 31.3 -10.9 30.95 -11.5 30.65 -12.05 30.65 -12.2 L30.65 -12.45 30.7 -12.55 Q31.4 -12.75 31.85 -12.35 32.2 -11.95 32.2 -11.5 32.2 -11.35 32.1 -11.15 M37.8 -8.5 Q37.8 -7.5 37.0 -7.5 36.55 -7.5 36.4 -7.9 36.35 -8.1 36.35 -8.35 36.35 -8.9 37.1 -9.0 37.8 -9.05 37.8 -8.5 M28.55 -11.8 L28.5 -11.55 28.2 -11.4 27.9 -11.65 Q27.8 -11.75 27.8 -11.85 27.8 -12.05 28.0 -12.15 L28.45 -12.15 28.5 -12.05 28.55 -11.8 M28.85 -4.4 Q28.85 -4.05 28.8 -3.9 28.65 -3.6 28.2 -3.6 27.7 -3.6 27.55 -4.15 27.5 -4.45 27.5 -4.7 27.5 -4.95 27.7 -5.05 27.85 -5.15 28.1 -5.15 28.6 -5.15 28.75 -4.8 L28.85 -4.4 M28.3 -6.45 L28.1 -6.55 Q28.0 -6.55 28.0 -6.8 28.0 -7.0 28.1 -7.05 L28.3 -7.05 Q28.45 -7.0 28.6 -6.8 L28.5 -6.55 28.3 -6.45 M26.4 -0.2 Q26.35 0.0 26.15 0.05 26.0 0.0 25.9 -0.1 26.0 -0.3 26.15 -0.35 L26.35 -0.4 26.4 -0.2 M30.55 -0.1 L30.8 0.15 30.9 0.35 30.8 0.5 30.55 0.65 30.35 0.55 Q30.25 0.5 30.25 0.3 30.25 0.1 30.35 0.0 L30.55 -0.1 M36.3 -3.2 L36.25 -2.85 36.15 -2.85 35.95 -2.8 Q35.55 -3.1 35.55 -3.2 35.55 -3.45 35.7 -3.55 35.9 -3.7 36.25 -3.6 L36.3 -3.2 M36.4 -1.55 Q37.15 -1.9 37.15 -1.15 37.15 -0.65 36.75 -0.6 36.45 -0.7 36.4 -0.85 L36.35 -1.1 36.4 -1.55 M35.85 1.35 Q35.85 1.05 36.0 0.95 36.15 0.85 36.35 1.0 36.9 1.35 36.9 2.0 36.9 2.3 36.8 2.45 L36.75 2.5 36.9 2.7 Q36.85 2.9 36.6 3.0 L36.4 2.95 Q36.35 2.9 36.35 2.7 L36.35 2.55 Q36.1 2.5 35.95 1.9 35.85 1.6 35.85 1.35 M33.1 7.2 L33.15 8.2 33.1 8.3 Q33.05 8.35 32.85 8.35 32.55 8.35 32.35 8.15 32.2 7.95 32.2 7.8 32.2 7.5 32.45 7.3 32.8 7.05 33.1 7.2 M34.05 4.25 Q33.95 4.4 33.8 4.45 33.65 4.35 33.55 4.25 33.65 4.1 33.75 4.05 L33.95 4.05 34.05 4.25 M28.7 2.7 L28.4 2.45 28.3 2.35 Q28.3 1.9 28.65 1.9 28.95 1.85 29.1 2.3 L29.05 2.6 28.9 2.65 28.7 2.7 M27.85 9.0 Q27.95 9.15 27.95 9.3 27.85 9.5 27.65 9.6 L27.4 9.5 Q27.3 9.45 27.3 9.2 27.3 9.0 27.4 8.9 L27.65 8.85 Q27.75 8.9 27.85 9.0 M21.7 2.0 Q21.7 1.6 22.05 1.65 22.45 1.7 22.65 2.1 22.45 2.3 22.15 2.5 L21.8 2.2 Q21.7 2.1 21.7 2.0 M20.8 5.05 Q20.55 5.0 20.5 4.9 L20.5 4.75 20.65 4.75 Q20.75 4.75 20.95 4.85 20.9 5.0 20.8 5.05 M17.25 1.2 Q17.35 1.1 17.65 1.1 17.8 1.2 17.8 1.4 17.75 1.4 17.65 1.45 L17.45 1.55 Q17.25 1.45 17.25 1.2" fill="#a3cbcc" fill-opacity="0.6" fill-rule="evenodd" stroke="none"/>
    <path d="M20.55 -10.65 L20.5 -11.2 Q20.75 -11.2 21.0 -11.0 21.2 -10.85 21.3 -10.65 L21.25 -10.6 20.95 -10.55 20.6 -10.6 Q20.6 -10.65 20.55 -10.65 M24.95 -9.65 Q25.1 -9.8 25.25 -9.85 25.35 -9.9 25.5 -9.8 25.45 -9.6 25.15 -9.25 25.05 -9.3 25.0 -9.45 24.95 -9.6 24.95 -9.65 M29.65 -16.85 Q29.5 -17.0 29.5 -17.2 29.5 -17.45 29.6 -17.5 L29.85 -17.6 Q29.95 -17.6 30.25 -17.25 L30.55 -16.85 Q30.5 -16.75 30.5 -16.7 30.45 -16.65 30.15 -16.65 29.8 -16.65 29.65 -16.85 M34.5 -18.5 L34.45 -18.15 34.4 -18.05 Q34.35 -18.0 34.1 -18.0 34.0 -18.0 33.75 -18.15 L33.45 -18.4 Q33.65 -18.7 33.85 -18.8 L34.4 -18.85 34.45 -18.75 34.5 -18.5 M34.6 -16.95 Q34.6 -17.35 34.65 -17.3 L34.75 -17.3 35.1 -16.8 Q35.35 -16.45 35.45 -16.15 L35.35 -15.95 35.1 -15.9 Q34.95 -16.0 34.75 -16.45 34.6 -16.85 34.6 -16.95 M35.05 -12.9 L34.35 -12.9 34.35 -13.05 34.3 -13.2 34.35 -13.55 34.85 -13.5 35.55 -13.4 Q35.35 -13.15 35.05 -12.9 M31.95 -11.65 L31.8 -11.5 Q31.55 -11.65 31.4 -11.9 L31.25 -12.25 31.5 -12.2 Q31.8 -12.1 32.0 -11.85 L31.95 -11.65 M37.65 -8.15 Q37.65 -8.05 37.55 -7.95 L37.1 -8.0 37.05 -8.15 37.05 -8.45 37.2 -8.5 37.6 -8.4 37.65 -8.15 M28.65 -5.3 Q28.7 -5.25 28.7 -5.0 28.7 -4.95 28.6 -4.7 28.45 -4.45 28.3 -4.3 L28.1 -4.35 Q28.0 -4.45 28.0 -4.7 28.0 -4.85 28.25 -5.05 L28.55 -5.25 28.65 -5.3 M36.7 -1.15 Q36.7 -1.0 36.65 -0.9 L36.5 -0.9 Q36.5 -1.0 36.5 -1.35 L36.65 -1.35 Q36.7 -1.3 36.7 -1.15 M32.95 7.55 L33.2 7.55 33.25 7.8 33.15 7.95 33.0 8.05 32.8 8.05 Q32.7 8.05 32.7 7.8 32.7 7.55 32.75 7.5 L32.75 7.55 32.95 7.55" fill="#ffffff" fill-opacity="0.7529412" fill-rule="evenodd" stroke="none"/>
  </g>
</svg>
