<?xml version="1.0" encoding="UTF-8" standalone="no"?>
<svg xmlns:ffdec="https://www.free-decompiler.com/flash" xmlns:xlink="http://www.w3.org/1999/xlink" ffdec:objectType="shape" height="18.35px" width="18.5px" xmlns="http://www.w3.org/2000/svg">
  <g transform="matrix(1.0, 0.0, 0.0, 1.0, 6.05, 11.8)">
    <path d="M2.95 -10.6 Q2.85 -10.5 2.75 -10.45 L2.6 -10.55 2.65 -10.65 2.75 -10.75 Q2.85 -10.7 2.95 -10.6 M4.85 -11.55 L4.85 -11.45 Q4.75 -11.35 4.65 -11.3 L4.45 -11.45 4.4 -11.5 4.55 -11.6 Q4.65 -11.7 4.65 -11.8 L4.85 -11.55 M6.45 -9.45 L6.4 -9.4 Q6.35 -9.35 6.25 -9.35 L6.1 -9.4 6.1 -9.45 Q6.2 -9.65 6.35 -9.65 6.45 -9.55 6.45 -9.45 M7.4 -7.5 Q7.4 -7.7 7.6 -7.7 L7.65 -7.6 Q7.6 -7.5 7.45 -7.45 L7.4 -7.5 M1.15 -6.9 Q1.1 -6.8 0.95 -6.8 L0.95 -6.95 1.1 -6.95 1.15 -6.9 M6.75 -3.0 L6.8 -3.1 6.9 -3.05 7.05 -3.0 7.05 -2.95 7.1 -2.9 Q7.05 -2.85 6.95 -2.85 L6.8 -2.9 Q6.75 -2.9 6.7 -2.95 L6.75 -3.0 M10.3 -8.05 L10.15 -8.0 10.0 -8.15 Q9.95 -8.2 9.95 -8.25 L9.95 -8.4 Q10.05 -8.55 10.35 -8.45 10.35 -8.35 10.4 -8.3 L10.35 -8.05 10.3 -8.05 M12.45 -6.35 L12.45 -6.25 12.4 -6.25 12.25 -6.15 12.1 -6.25 12.1 -6.3 Q12.05 -6.35 12.05 -6.4 12.05 -6.55 12.25 -6.65 12.45 -6.7 12.45 -6.4 L12.45 -6.35 M12.15 -4.5 L12.2 -4.35 12.15 -4.2 Q12.05 -4.15 11.95 -4.15 L11.75 -4.2 11.7 -4.2 Q11.7 -4.25 11.7 -4.35 11.7 -4.45 11.8 -4.5 11.9 -4.6 12.15 -4.55 L12.15 -4.5 M11.0 -3.9 Q11.0 -3.85 10.9 -3.8 L10.75 -3.7 10.7 -3.75 10.6 -3.8 Q10.65 -3.95 10.75 -4.0 10.8 -4.05 10.95 -4.0 L11.0 -3.9 M10.85 -2.2 L10.9 -2.1 Q10.85 -1.95 10.65 -1.95 L10.5 -2.05 Q10.45 -2.1 10.45 -2.15 10.7 -2.3 10.85 -2.2 M10.55 1.4 Q10.5 1.5 10.4 1.55 L10.3 1.5 Q10.25 1.5 10.25 1.4 L10.3 1.3 10.35 1.25 10.5 1.3 10.55 1.4 M8.4 1.65 L8.25 1.7 8.1 1.65 8.05 1.6 8.05 1.4 8.45 1.4 8.45 1.65 8.4 1.65 M9.95 3.1 Q10.1 3.2 10.1 3.35 10.0 3.45 9.95 3.45 L9.85 3.45 Q9.8 3.4 9.8 3.3 9.8 3.2 9.85 3.1 9.9 3.1 9.95 3.1 M9.15 6.1 L9.1 6.3 8.9 6.3 8.75 6.2 Q8.7 6.15 8.7 6.05 8.7 5.95 8.75 5.9 L9.1 5.9 Q9.1 5.95 9.15 6.1 M5.1 2.5 L5.1 2.7 Q5.05 2.75 5.0 2.75 L4.85 2.65 Q4.85 2.55 4.95 2.55 L5.1 2.5 M7.75 3.5 Q7.7 3.55 7.55 3.6 L7.45 3.6 Q7.4 3.6 7.4 3.5 L7.45 3.35 7.5 3.35 7.65 3.4 7.7 3.4 7.75 3.5 M2.8 3.1 Q2.65 3.15 2.55 3.15 L2.4 3.1 2.35 2.95 Q2.35 2.75 2.7 2.85 2.95 2.95 3.0 3.0 2.95 3.0 2.8 3.1 M4.05 5.95 L3.95 6.0 3.8 6.0 3.8 5.75 3.9 5.75 Q4.05 5.8 4.1 5.95 L4.05 5.95 M2.85 5.3 Q2.85 5.35 2.8 5.45 2.75 5.55 2.6 5.55 L2.5 5.55 Q2.5 5.5 2.5 5.4 L2.6 5.35 Q2.65 5.3 2.65 5.15 2.85 5.25 2.85 5.3 M8.1 6.35 L8.1 6.45 7.9 6.55 7.75 6.45 Q7.8 6.35 7.85 6.3 L8.05 6.3 8.1 6.35 M4.95 6.0 Q5.0 6.05 5.1 6.15 L5.0 6.25 Q4.9 6.3 4.85 6.3 L4.7 6.2 Q4.85 6.0 4.95 6.0 M-1.75 -9.6 Q-1.65 -9.55 -1.6 -9.45 -1.55 -9.4 -1.55 -9.25 L-1.55 -9.15 -1.6 -9.2 -1.65 -9.1 -1.85 -9.3 -1.9 -9.45 Q-1.9 -9.55 -1.8 -9.6 L-1.75 -9.6 M-3.5 -7.65 Q-3.4 -7.65 -3.35 -7.6 -3.4 -7.5 -3.55 -7.4 L-3.65 -7.4 Q-3.7 -7.45 -3.7 -7.55 -3.7 -7.7 -3.65 -7.65 L-3.5 -7.65 M-4.15 -6.45 L-4.35 -6.35 -4.45 -6.4 Q-4.5 -6.4 -4.5 -6.55 L-4.5 -6.65 Q-4.35 -6.7 -4.15 -6.6 L-4.15 -6.45 M-5.65 -3.8 Q-5.7 -3.75 -5.8 -3.75 -5.9 -3.75 -6.05 -4.0 L-6.0 -4.15 -5.75 -4.15 Q-5.65 -4.1 -5.65 -3.95 L-5.65 -3.8 M-4.75 -3.35 L-4.75 -3.25 -4.8 -3.15 -5.05 -3.15 -5.05 -3.25 Q-5.05 -3.35 -5.0 -3.4 L-4.95 -3.4 -4.75 -3.35 M-3.15 -1.2 Q-3.25 -1.1 -3.35 -1.05 L-3.45 -1.1 -3.45 -1.2 Q-3.45 -1.35 -3.35 -1.35 L-3.25 -1.3 -3.15 -1.2 M-3.0 0.05 L-3.0 0.15 Q-3.0 0.35 -3.05 0.3 L-3.1 0.35 -3.2 0.4 -3.35 0.25 -3.35 0.15 Q-3.35 -0.1 -3.05 0.0 L-3.0 0.05" fill="#ccfeff" fill-opacity="0.6" fill-rule="evenodd" stroke="none"/>
    <path d="M2.85 -10.5 Q2.85 -10.45 2.75 -10.45 L2.75 -10.4 Q2.75 -10.45 2.75 -10.5 L2.75 -10.6 2.8 -10.6 Q2.85 -10.55 2.85 -10.5 M4.8 -11.65 L4.75 -11.6 4.65 -11.55 Q4.55 -11.55 4.5 -11.6 L4.55 -11.7 Q4.65 -11.75 4.8 -11.7 L4.8 -11.65 M10.45 -8.3 Q10.4 -8.25 10.35 -8.25 L10.25 -8.25 10.2 -8.3 10.2 -8.35 Q10.2 -8.4 10.25 -8.45 L10.35 -8.45 Q10.45 -8.4 10.45 -8.35 L10.45 -8.3 M12.35 -6.3 L12.3 -6.25 12.15 -6.35 Q12.15 -6.45 12.25 -6.45 L12.35 -6.3 M9.85 -0.5 L9.95 -0.45 Q9.9 -0.35 9.85 -0.3 L9.8 -0.3 Q9.75 -0.35 9.75 -0.4 9.75 -0.45 9.8 -0.5 L9.85 -0.5 M10.85 -2.1 L10.9 -2.05 Q10.95 -2.0 10.85 -2.0 L10.75 -2.05 10.85 -2.1 M10.7 1.4 L10.65 1.45 10.6 1.4 10.65 1.35 10.7 1.4 M9.0 6.05 Q8.9 6.05 8.9 6.0 L9.0 5.95 9.15 5.95 9.0 6.05 M7.55 3.4 L7.35 3.4 7.3 3.35 Q7.25 3.4 7.25 3.3 7.25 3.25 7.4 3.25 7.5 3.25 7.6 3.3 L7.55 3.4 M0.6 2.35 L0.35 2.35 Q0.3 2.35 0.3 2.3 L0.3 2.2 0.35 2.25 Q0.5 2.2 0.6 2.3 L0.6 2.35 M8.15 6.2 L8.1 6.3 Q8.1 6.35 7.95 6.35 7.85 6.35 7.75 6.25 7.7 6.2 7.7 6.15 L8.1 6.15 8.15 6.2 M5.05 5.95 L5.1 6.05 Q5.0 6.15 4.85 6.2 L4.75 6.15 4.75 6.05 Q4.75 6.0 4.8 6.0 L5.05 5.95 M-3.4 -7.5 L-3.45 -7.45 -3.55 -7.45 -3.55 -7.4 -3.6 -7.5 Q-3.6 -7.55 -3.5 -7.55 L-3.4 -7.55 -3.4 -7.5 M-5.4 -3.8 L-5.45 -3.75 Q-5.5 -3.8 -5.6 -3.9 L-5.65 -4.05 -5.6 -4.1 -5.6 -4.15 -5.4 -3.8 M-3.15 0.3 L-3.2 0.3 Q-3.35 0.3 -3.45 0.1 L-3.25 0.15 -3.15 0.25 -3.15 0.3" fill="#ffffff" fill-opacity="0.7529412" fill-rule="evenodd" stroke="none"/>
  </g>
</svg>
