<?xml version="1.0" encoding="UTF-8" standalone="no"?>
<svg xmlns:ffdec="https://www.free-decompiler.com/flash" xmlns:xlink="http://www.w3.org/1999/xlink" ffdec:objectType="shape" height="18.95px" width="19.05px" xmlns="http://www.w3.org/2000/svg">
  <g transform="matrix(1.0, 0.0, 0.0, 1.0, 6.1, 12.15)">
    <path d="M4.55 -11.75 L4.5 -11.8 Q4.5 -11.85 4.5 -11.95 L4.5 -12.1 4.85 -12.1 Q5.0 -12.05 5.0 -11.9 L5.0 -11.75 4.95 -11.7 Q4.9 -11.65 4.8 -11.65 L4.65 -11.65 4.55 -11.75 M7.45 -2.85 L7.5 -2.8 Q7.45 -2.8 7.35 -2.8 L7.2 -2.8 7.2 -2.95 7.4 -2.95 7.45 -2.85 M12.95 -6.7 L12.95 -6.45 Q12.95 -6.4 12.8 -6.4 12.7 -6.4 12.7 -6.45 L12.65 -6.5 Q12.65 -6.6 12.7 -6.65 12.75 -6.75 12.8 -6.75 L12.95 -6.7 M10.85 -8.4 L10.8 -8.25 10.7 -8.25 Q10.55 -8.25 10.55 -8.3 L10.5 -8.3 10.5 -8.4 Q10.5 -8.55 10.55 -8.55 L10.7 -8.55 Q10.75 -8.55 10.85 -8.4 M12.35 -4.1 L12.25 -4.15 Q12.2 -4.15 12.2 -4.3 12.2 -4.45 12.2 -4.35 12.4 -4.4 12.6 -4.3 12.5 -4.15 12.35 -4.1 M11.05 -2.1 Q11.2 -2.05 11.25 -2.0 L11.15 -1.9 Q11.1 -1.85 11.05 -1.85 10.95 -1.9 10.9 -1.95 10.9 -2.0 10.95 -2.05 L11.05 -2.1 M9.55 6.4 L9.5 6.5 9.2 6.55 9.15 6.5 9.15 6.35 Q9.2 6.25 9.5 6.3 L9.55 6.4 M5.2 2.55 L5.2 2.6 Q5.25 2.65 5.25 2.75 L5.25 2.85 Q5.1 2.9 4.9 2.9 L4.85 2.85 Q4.85 2.8 4.85 2.7 4.85 2.6 5.0 2.55 L5.2 2.55 M7.9 3.6 L7.95 3.7 7.9 3.8 7.65 3.8 Q7.6 3.8 7.6 3.7 L7.6 3.6 7.9 3.6 M2.6 3.25 L2.6 3.3 Q2.5 3.35 2.4 3.4 2.35 3.35 2.25 3.3 L2.3 3.2 2.4 3.1 Q2.6 3.15 2.6 3.25 M2.8 5.6 Q2.7 5.7 2.55 5.7 L2.5 5.7 Q2.45 5.7 2.45 5.6 L2.45 5.5 2.6 5.5 Q2.7 5.5 2.8 5.55 L2.8 5.6 M8.3 6.6 L8.2 6.75 8.1 6.8 8.0 6.75 Q7.95 6.75 7.95 6.6 7.95 6.5 8.0 6.45 L8.1 6.45 Q8.2 6.5 8.3 6.6 M4.85 6.3 L5.1 6.3 5.15 6.4 5.1 6.5 4.75 6.55 4.75 6.5 Q4.7 6.5 4.7 6.4 L4.75 6.3 4.85 6.3 M-5.8 -4.0 Q-5.85 -3.8 -5.95 -3.75 L-6.1 -3.8 -6.1 -4.0 Q-6.1 -4.1 -6.05 -4.15 L-5.95 -4.15 Q-5.85 -4.05 -5.8 -4.0 M-3.55 0.4 Q-3.65 0.35 -3.7 0.3 L-3.7 0.2 -3.6 0.2 Q-3.55 0.2 -3.45 0.25 -3.45 0.35 -3.55 0.4" fill="#ccfeff" fill-opacity="0.6" fill-rule="evenodd" stroke="none"/>
  </g>
</svg>
