<?xml version="1.0" encoding="UTF-8" standalone="no"?>
<svg xmlns:ffdec="https://www.free-decompiler.com/flash" xmlns:xlink="http://www.w3.org/1999/xlink" ffdec:objectType="shape" height="19.55px" width="15.9px" xmlns="http://www.w3.org/2000/svg">
  <g transform="matrix(1.0, 0.0, 0.0, 1.0, -24.45, 21.75)">
    <path d="M24.55 -8.0 Q24.7 -8.05 24.85 -8.05 L25.0 -7.85 Q24.9 -7.75 24.75 -7.7 24.55 -7.75 24.45 -7.85 24.45 -7.9 24.55 -8.0 M31.1 -19.7 Q31.1 -20.05 31.15 -19.95 L31.6 -19.95 31.75 -19.7 Q31.7 -19.55 31.65 -19.5 31.6 -19.45 31.4 -19.35 L31.2 -19.45 Q31.1 -19.5 31.1 -19.7 M36.15 -21.0 Q35.75 -21.3 35.75 -21.35 L35.8 -21.6 Q35.85 -21.8 36.15 -21.75 L36.5 -21.35 Q36.3 -21.1 36.15 -21.0 M37.5 -18.2 L36.9 -18.15 36.85 -18.2 Q36.8 -18.25 36.8 -18.45 36.8 -18.7 36.95 -18.8 37.1 -18.85 37.45 -18.8 37.45 -18.75 37.55 -18.5 L37.5 -18.2 M37.55 -15.8 Q37.6 -15.7 37.6 -15.5 37.6 -15.3 37.6 -15.25 L37.55 -15.25 37.45 -15.2 37.15 -15.15 36.85 -15.2 36.8 -15.2 36.75 -15.3 Q36.7 -15.35 36.7 -15.55 36.7 -15.65 36.85 -15.7 37.05 -15.85 37.5 -15.9 L37.55 -15.8 M30.1 -6.3 Q29.95 -6.3 29.9 -6.4 L29.95 -6.6 30.15 -6.5 30.3 -6.4 Q30.25 -6.3 30.1 -6.3 M38.5 -4.45 L38.7 -4.55 Q38.8 -4.6 38.9 -4.5 L38.85 -4.4 Q38.85 -4.35 38.75 -4.3 L38.65 -4.35 Q38.55 -4.4 38.5 -4.45 M39.25 -2.5 Q39.35 -2.6 39.5 -2.6 L39.6 -2.35 Q39.55 -2.25 39.3 -2.2 L39.25 -2.25 Q39.15 -2.3 39.1 -2.35 39.15 -2.45 39.25 -2.5 M40.3 -9.55 Q40.25 -9.55 40.25 -9.45 L39.9 -9.35 Q39.65 -9.45 39.6 -9.45 39.55 -9.5 39.55 -9.75 39.55 -9.95 39.75 -10.0 L40.25 -10.0 Q40.35 -9.95 40.35 -9.75 L40.3 -9.55" fill="#a3cbcc" fill-opacity="0.6" fill-rule="evenodd" stroke="none"/>
  </g>
</svg>
