<?xml version="1.0" encoding="UTF-8" standalone="no"?>
<svg xmlns:ffdec="https://www.free-decompiler.com/flash" xmlns:xlink="http://www.w3.org/1999/xlink" ffdec:objectType="shape" height="37.55px" width="33.0px" xmlns="http://www.w3.org/2000/svg">
  <g transform="matrix(1.0, 0.0, 0.0, 1.0, 18.2, 44.1)">
    <path d="M1.1 -36.7 Q1.8 -36.0 2.15 -35.8 3.15 -35.05 3.8 -33.8 L3.9 -33.65 4.15 -33.4 Q4.35 -33.1 4.4 -32.6 L4.4 -32.3 4.5 -31.75 4.45 -31.15 Q4.4 -30.9 4.15 -30.75 L3.9 -30.5 3.25 -30.5 2.75 -30.95 Q2.55 -31.1 2.25 -31.4 1.35 -32.2 -0.35 -31.8 L-0.55 -31.85 Q-1.15 -31.5 -1.95 -30.9 L-3.2 -29.9 -3.3 -29.4 Q-3.3 -28.9 -3.25 -28.8 -3.1 -28.5 -2.5 -28.2 L-2.2 -28.25 Q-1.75 -28.45 -1.6 -28.45 -1.4 -28.45 -0.75 -28.2 L-0.1 -28.15 1.3 -28.05 Q1.8 -28.25 3.4 -28.7 L4.25 -29.3 Q4.95 -29.85 5.35 -29.85 L5.55 -29.85 5.7 -29.9 6.2 -29.9 Q7.05 -29.3 7.5 -28.85 8.05 -28.25 8.3 -27.55 8.4 -27.1 8.4 -26.4 L8.45 -26.0 8.45 -24.6 Q8.5 -23.1 8.9 -21.75 9.25 -20.5 9.25 -19.45 9.25 -19.25 9.05 -18.75 L9.05 -18.7 Q9.0 -18.25 8.75 -17.85 8.65 -17.65 8.35 -17.35 L8.2 -17.1 Q7.85 -16.55 7.5 -16.3 L6.75 -15.9 6.45 -15.65 Q5.85 -15.15 4.75 -14.7 L3.3 -14.15 Q2.9 -13.8 2.3 -13.45 1.2 -12.85 0.25 -12.85 -0.2 -12.7 -0.6 -12.7 -1.55 -12.7 -2.7 -13.35 -3.5 -13.75 -4.1 -14.35 -4.5 -14.7 -4.6 -14.95 L-4.7 -15.2 -4.8 -15.3 -4.85 -15.45 Q-5.25 -15.8 -5.45 -16.4 -5.6 -16.95 -5.6 -18.1 L-5.6 -18.9 Q-5.5 -19.25 -5.0 -19.3 L-4.95 -19.35 -4.95 -19.3 -4.8 -19.35 Q-4.25 -19.35 -4.0 -19.05 L-3.65 -18.4 Q-3.2 -17.45 -1.35 -17.45 -0.15 -17.45 0.4 -17.8 0.7 -18.0 0.85 -18.4 0.9 -18.6 0.9 -18.85 L0.9 -19.2 0.7 -19.6 Q0.4 -20.05 0.4 -20.2 L0.05 -20.35 Q-0.8 -20.2 -1.55 -19.65 L-1.75 -19.5 Q-1.85 -19.4 -1.95 -19.35 L-2.0 -19.35 Q-2.4 -19.1 -2.6 -19.1 -2.75 -19.1 -3.0 -19.35 L-3.55 -19.35 Q-4.1 -19.75 -5.05 -19.85 -5.55 -19.85 -6.65 -19.85 -7.6 -19.85 -8.15 -20.1 -8.85 -20.5 -9.2 -21.45 L-9.3 -21.7 Q-9.45 -22.15 -9.5 -22.6 L-9.5 -22.7 Q-9.6 -23.45 -9.55 -24.1 -9.3 -25.75 -10.25 -27.2 L-10.5 -27.6 Q-11.0 -27.7 -11.15 -28.1 -11.2 -28.25 -11.2 -28.8 L-11.2 -28.95 Q-11.25 -29.15 -11.25 -29.35 -11.25 -30.3 -10.3 -31.3 L-9.4 -32.2 Q-8.9 -32.8 -8.6 -33.45 -8.2 -34.2 -7.3 -34.7 -6.7 -35.0 -5.55 -35.3 L-4.05 -35.7 Q-3.0 -36.3 -2.4 -37.1 -2.2 -37.35 -2.0 -37.4 L-1.65 -37.5 Q-0.75 -38.15 0.1 -37.6 0.45 -37.4 1.1 -36.7" fill="#e5eeff" fill-opacity="0.7529412" fill-rule="evenodd" stroke="none"/>
    <path d="M3.95 -39.2 Q4.2 -38.05 4.6 -37.55 L6.05 -35.85 Q6.85 -34.85 6.85 -34.3 6.85 -34.15 6.45 -33.65 6.0 -33.1 5.7 -32.9 L5.45 -32.95 Q5.15 -33.05 5.1 -33.1 L5.3 -33.3 Q4.9 -33.65 3.95 -34.25 2.5 -35.2 2.15 -35.65 2.1 -35.8 1.8 -36.45 1.6 -37.0 1.25 -37.3 0.25 -38.25 -2.7 -38.25 -4.65 -38.25 -5.05 -36.8 -5.15 -36.45 -5.25 -35.5 -5.35 -34.7 -5.5 -34.3 -5.85 -33.4 -7.45 -32.25 -8.1 -31.7 -8.35 -31.4 -8.75 -30.95 -8.75 -30.45 -8.75 -29.75 -8.6 -29.1 -8.35 -28.3 -8.2 -27.65 -7.7 -25.7 -7.25 -25.55 L-6.7 -25.6 -5.95 -25.7 Q-5.25 -25.7 -4.8 -25.55 -4.6 -25.5 -4.2 -25.2 -3.65 -24.85 -2.4 -25.1 L-2.15 -25.05 -1.45 -25.2 Q-1.3 -25.25 -0.85 -25.45 -0.35 -25.9 0.85 -26.7 2.45 -27.8 2.85 -28.25 3.0 -28.45 3.2 -29.2 3.35 -29.8 3.7 -29.95 4.1 -30.1 4.7 -30.65 5.2 -31.1 5.7 -31.1 5.9 -31.1 6.25 -30.9 6.65 -30.7 6.85 -30.7 8.1 -30.7 8.75 -31.45 9.1 -31.85 9.3 -31.95 9.65 -32.2 10.25 -32.2 12.45 -32.2 13.3 -30.3 13.75 -29.3 13.75 -27.9 13.75 -27.35 14.3 -26.3 14.8 -25.25 14.8 -24.55 14.8 -24.4 14.55 -23.25 L14.2 -22.0 Q14.05 -21.15 13.85 -20.75 13.6 -20.15 12.85 -19.7 11.5 -18.9 10.85 -17.3 10.6 -16.8 10.4 -16.0 L10.0 -14.8 Q9.8 -14.2 9.3 -13.25 8.4 -11.7 7.25 -10.45 3.7 -6.55 -1.25 -6.55 -3.3 -6.55 -5.35 -7.35 -7.35 -8.15 -8.4 -9.3 -9.0 -9.9 -10.0 -10.8 -10.7 -11.55 -10.7 -12.45 L-10.7 -12.75 -10.65 -12.9 -10.55 -12.95 -10.15 -13.0 -9.2 -12.85 -7.65 -12.65 -6.3 -11.65 Q-5.15 -10.9 -4.35 -10.9 -3.3 -10.9 -2.7 -11.3 -2.0 -11.7 -1.0 -11.75 -0.55 -12.15 0.0 -12.75 0.7 -13.5 0.8 -13.8 1.1 -14.45 1.8 -14.85 L3.2 -15.55 Q3.6 -15.8 4.65 -17.25 5.8 -18.9 5.8 -19.65 5.8 -20.25 5.4 -20.6 5.15 -20.8 4.1 -21.45 2.85 -21.1 2.4 -20.35 2.15 -20.0 2.05 -19.0 1.9 -18.15 1.55 -17.8 1.0 -17.3 -0.45 -17.3 -1.8 -17.3 -2.6 -18.4 L-3.25 -19.3 -3.4 -19.5 -3.55 -19.45 Q-4.7 -19.05 -5.0 -18.7 L-6.05 -17.75 Q-6.55 -17.45 -7.55 -17.45 -8.55 -17.45 -9.65 -18.0 L-11.2 -18.7 Q-11.8 -18.55 -12.45 -18.25 -12.95 -18.05 -13.1 -18.05 -15.0 -18.05 -16.25 -20.2 -16.7 -21.05 -16.95 -22.0 -17.2 -22.8 -17.2 -23.3 -17.2 -23.95 -16.95 -24.6 -16.65 -25.25 -16.65 -25.6 L-17.45 -27.2 Q-18.2 -29.0 -18.2 -29.8 -18.2 -31.95 -16.0 -33.7 L-14.3 -34.95 Q-13.4 -35.65 -13.1 -36.25 -12.95 -36.5 -12.85 -37.0 L-12.6 -37.9 Q-12.3 -39.05 -11.65 -39.55 -10.0 -41.0 -8.65 -41.3 L-7.2 -41.4 -5.15 -41.5 Q-4.3 -41.55 -3.7 -42.0 -3.45 -42.2 -2.85 -42.9 -2.3 -43.5 -1.85 -43.75 -1.15 -44.1 -0.1 -44.1 1.8 -43.7 2.6 -42.6 2.9 -42.25 3.1 -41.7 L3.45 -40.9 Q3.75 -40.45 3.95 -39.2" fill="#d9e7ff" fill-opacity="0.7529412" fill-rule="evenodd" stroke="none"/>
  </g>
</svg>
