<?xml version="1.0" encoding="UTF-8" standalone="no"?>
<svg xmlns:ffdec="https://www.free-decompiler.com/flash" xmlns:xlink="http://www.w3.org/1999/xlink" ffdec:objectType="shape" height="25.15px" width="20.5px" xmlns="http://www.w3.org/2000/svg">
  <g transform="matrix(1.0, 0.0, 0.0, 1.0, 11.25, 37.85)">
    <path d="M0.8 -28.7 Q0.95 -28.5 1.3 -28.5 L1.4 -28.5 1.7 -28.75 2.15 -28.65 2.45 -28.6 2.55 -28.55 Q3.1 -28.35 3.4 -28.15 3.75 -27.85 3.8 -27.45 3.75 -26.95 3.8 -26.7 3.85 -26.3 4.25 -25.95 5.2 -25.15 5.4 -24.4 5.45 -24.2 5.45 -22.85 5.45 -21.1 4.0 -19.5 2.7 -18.05 1.55 -18.05 1.1 -18.05 0.7 -18.15 L0.65 -18.1 Q0.8 -18.05 0.9 -17.9 L0.9 -17.65 Q0.9 -17.05 0.1 -16.55 -0.7 -16.1 -1.5 -16.1 -2.75 -16.1 -3.75 -17.05 -4.15 -17.4 -4.35 -17.65 -4.55 -17.8 -4.65 -17.95 -4.8 -18.1 -4.8 -18.4 L-5.15 -18.85 -5.1 -19.0 -4.9 -19.05 Q-4.75 -19.05 -4.75 -18.85 L-4.7 -18.75 Q-4.4 -18.85 -3.55 -18.75 L-3.25 -19.15 Q-3.15 -19.35 -3.15 -19.6 -3.95 -19.4 -4.2 -19.4 -5.85 -19.4 -6.55 -20.9 -6.9 -21.7 -6.9 -22.65 -6.9 -23.6 -6.4 -24.55 L-6.4 -24.65 Q-6.35 -25.2 -6.1 -25.6 L-6.05 -25.7 -5.95 -26.05 -6.25 -26.7 Q-6.6 -27.5 -6.6 -27.7 -6.6 -28.5 -5.75 -28.95 -5.55 -29.05 -3.5 -29.8 -3.25 -29.9 -2.5 -30.45 L-2.2 -30.75 -2.2 -30.9 Q-2.2 -31.25 -1.75 -31.45 -1.45 -31.55 -0.95 -31.6 L-0.35 -31.65 -0.25 -31.65 Q1.2 -31.65 2.6 -30.75 3.9 -29.95 3.9 -29.35 3.9 -29.2 3.8 -29.05 3.7 -28.9 3.75 -28.8 3.6 -28.85 3.45 -28.95 L3.4 -28.95 1.85 -29.3 1.7 -29.35 1.35 -29.1 0.8 -28.7 M-4.35 -28.1 L-4.35 -28.1" fill="#e5eeff" fill-opacity="0.7529412" fill-rule="evenodd" stroke="none"/>
    <path d="M1.1 -36.7 Q1.8 -36.0 2.15 -35.8 3.15 -35.05 3.8 -33.8 L3.9 -33.65 4.15 -33.4 Q4.35 -33.1 4.4 -32.6 L4.4 -32.3 4.5 -31.75 4.45 -31.15 Q4.4 -30.9 4.15 -30.75 L3.9 -30.5 3.25 -30.5 2.75 -30.95 Q2.55 -31.1 2.25 -31.4 1.35 -32.2 -0.35 -31.8 L-0.55 -31.85 Q-1.15 -31.5 -1.95 -30.9 L-3.2 -29.9 -3.3 -29.4 Q-3.3 -28.9 -3.25 -28.8 -3.1 -28.5 -2.5 -28.2 L-2.2 -28.25 Q-1.75 -28.45 -1.6 -28.45 -1.4 -28.45 -0.75 -28.2 L-0.1 -28.15 1.3 -28.05 Q1.8 -28.25 3.4 -28.7 L4.25 -29.3 Q4.95 -29.85 5.35 -29.85 L5.55 -29.85 5.7 -29.9 6.2 -29.9 Q7.05 -29.3 7.5 -28.85 8.05 -28.25 8.3 -27.55 8.4 -27.1 8.4 -26.4 L8.45 -26.0 8.45 -24.6 Q8.5 -23.1 8.9 -21.75 9.25 -20.5 9.25 -19.45 9.25 -19.25 9.05 -18.75 L9.05 -18.7 Q9.0 -18.25 8.75 -17.85 8.65 -17.65 8.35 -17.35 L8.2 -17.1 Q7.85 -16.55 7.5 -16.3 L6.75 -15.9 6.45 -15.65 Q5.85 -15.15 4.75 -14.7 L3.3 -14.15 Q2.9 -13.8 2.3 -13.45 1.2 -12.85 0.25 -12.85 -0.2 -12.7 -0.6 -12.7 -1.55 -12.7 -2.7 -13.35 -3.5 -13.75 -4.1 -14.35 -4.5 -14.7 -4.6 -14.95 L-4.7 -15.2 -4.8 -15.3 -4.85 -15.45 Q-5.25 -15.8 -5.45 -16.4 -5.6 -16.95 -5.6 -18.1 L-5.6 -18.9 Q-5.5 -19.25 -5.0 -19.3 L-4.95 -19.35 -4.95 -19.3 -4.8 -19.35 Q-4.25 -19.35 -4.0 -19.05 L-3.65 -18.4 Q-3.2 -17.45 -1.35 -17.45 -0.15 -17.45 0.4 -17.8 0.7 -18.0 0.85 -18.4 0.9 -18.6 0.9 -18.85 L0.9 -19.2 0.7 -19.6 Q0.4 -20.05 0.4 -20.2 L0.05 -20.35 Q-0.8 -20.2 -1.55 -19.65 L-1.75 -19.5 Q-1.85 -19.4 -1.95 -19.35 L-2.0 -19.35 Q-2.4 -19.1 -2.6 -19.1 -2.75 -19.1 -3.0 -19.35 L-3.55 -19.35 Q-4.1 -19.75 -5.05 -19.85 -5.55 -19.85 -6.65 -19.85 -7.6 -19.85 -8.15 -20.1 -8.85 -20.5 -9.2 -21.45 L-9.3 -21.7 Q-9.45 -22.15 -9.5 -22.6 L-9.5 -22.7 Q-9.6 -23.45 -9.55 -24.1 -9.3 -25.75 -10.25 -27.2 L-10.5 -27.6 Q-11.0 -27.7 -11.15 -28.1 -11.2 -28.25 -11.2 -28.8 L-11.2 -28.95 Q-11.25 -29.15 -11.25 -29.35 -11.25 -30.3 -10.3 -31.3 L-9.4 -32.2 Q-8.9 -32.8 -8.6 -33.45 -8.2 -34.2 -7.3 -34.7 -6.7 -35.0 -5.55 -35.3 L-4.05 -35.7 Q-3.0 -36.3 -2.4 -37.1 -2.2 -37.35 -2.0 -37.4 L-1.65 -37.5 Q-0.75 -38.15 0.1 -37.6 0.45 -37.4 1.1 -36.7" fill="#e5eeff" fill-opacity="0.7529412" fill-rule="evenodd" stroke="none"/>
  </g>
</svg>
