<?xml version="1.0" encoding="UTF-8" standalone="no"?>
<svg xmlns:ffdec="https://www.free-decompiler.com/flash" xmlns:xlink="http://www.w3.org/1999/xlink" ffdec:objectType="shape" height="15.3px" width="29.15px" xmlns="http://www.w3.org/2000/svg">
  <g transform="matrix(1.0, 0.0, 0.0, 1.0, 15.6, 17.6)">
    <path d="M0.85 -14.4 Q1.35 -14.4 1.4 -14.35 L0.8 -14.25 Q0.6 -14.1 0.2 -13.65 -0.2 -13.15 -0.35 -13.05 L-0.65 -13.05 -0.7 -13.1 -0.7 -13.3 Q-0.7 -13.75 -0.4 -14.0 0.0 -14.4 0.85 -14.35 L0.85 -14.4 M5.0 -17.2 L5.3 -16.75 Q5.45 -16.55 5.45 -16.4 5.45 -16.25 4.7 -16.1 3.7 -15.95 3.4 -15.8 L3.3 -15.85 Q3.4 -16.0 3.75 -16.35 L4.15 -16.7 Q4.15 -16.75 4.3 -16.95 L4.6 -17.25 5.0 -17.2 M8.55 -17.6 L9.1 -17.6 9.25 -17.55 Q9.3 -17.5 9.3 -17.3 9.3 -17.15 9.2 -16.9 9.05 -16.65 8.95 -16.55 L8.35 -16.65 Q8.1 -16.75 8.1 -17.1 L8.25 -17.3 Q8.4 -17.5 8.55 -17.6 M13.15 -13.65 L13.2 -13.4 Q13.2 -13.2 13.1 -13.15 13.1 -13.1 12.9 -13.0 L12.55 -13.0 12.35 -13.1 Q12.3 -13.15 12.3 -13.35 L12.3 -13.55 12.35 -13.6 Q12.6 -13.7 12.75 -13.75 L13.15 -13.7 13.15 -13.65 M12.85 -11.4 Q12.85 -11.6 13.05 -11.75 L13.3 -11.95 13.45 -11.75 Q13.55 -11.6 13.55 -11.45 13.55 -11.35 13.4 -11.1 13.2 -10.85 13.2 -10.6 L13.1 -10.6 12.95 -11.0 Q12.85 -11.25 12.85 -11.4 M-6.45 -14.3 Q-5.95 -14.0 -5.8 -13.85 -5.55 -13.85 -5.25 -13.95 -5.05 -14.0 -4.95 -14.1 L-4.55 -14.05 Q-4.35 -13.85 -4.35 -13.8 L-4.45 -13.7 -4.45 -13.8 Q-4.5 -13.85 -4.65 -13.85 L-5.05 -13.8 -5.55 -13.55 Q-5.85 -13.6 -6.25 -13.75 -6.6 -13.85 -7.55 -13.85 -8.35 -13.85 -8.75 -13.7 -8.9 -13.65 -9.5 -13.2 L-10.2 -13.2 -10.25 -13.4 Q-10.15 -14.25 -8.9 -14.75 -7.8 -15.2 -7.35 -15.0 -6.85 -14.55 -6.45 -14.3 M-11.65 -10.1 L-11.9 -10.0 Q-12.25 -9.85 -12.75 -9.75 L-12.8 -8.8 Q-12.9 -8.2 -12.95 -7.85 -13.0 -7.5 -13.7 -6.8 -14.4 -6.15 -14.4 -6.05 -14.4 -5.75 -14.05 -4.75 -13.75 -3.7 -13.75 -3.6 -13.75 -3.25 -14.1 -3.1 L-14.5 -3.05 Q-15.0 -3.4 -15.3 -4.0 -15.6 -4.55 -15.6 -5.1 -15.6 -5.4 -14.95 -6.65 -14.3 -7.9 -14.0 -8.2 L-13.4 -8.25 Q-13.2 -8.35 -13.15 -8.45 -13.1 -8.5 -13.1 -8.75 -13.1 -8.9 -13.2 -9.1 -13.35 -9.25 -13.35 -9.4 -13.35 -10.1 -12.8 -10.15 L-11.95 -10.25 Q-11.65 -10.15 -11.65 -10.1 M-13.2 -9.3 Q-13.1 -9.15 -13.0 -9.15 L-13.05 -9.8 -13.05 -9.75 Q-13.2 -9.5 -13.2 -9.3 M-4.15 -10.85 L-4.15 -10.6 Q-4.15 -10.25 -4.7 -9.95 -5.25 -9.6 -5.25 -9.55 L-5.25 -9.5 -5.35 -9.5 -5.7 -9.55 -5.8 -9.55 -5.95 -9.6 Q-5.7 -9.75 -5.25 -10.6 -4.75 -11.3 -4.2 -10.95 L-4.15 -10.85 M-8.25 -3.8 Q-8.05 -3.35 -8.05 -3.25 -8.05 -2.9 -8.4 -2.3 L-9.0 -2.3 -9.1 -2.45 Q-9.15 -2.6 -9.15 -2.75 L-9.2 -3.4 Q-9.15 -4.1 -8.8 -4.35 L-8.5 -4.3 -8.25 -3.8 M-8.5 -6.05 Q-8.4 -5.7 -8.4 -5.5 L-8.4 -5.1 Q-8.5 -4.9 -8.75 -4.7 L-9.15 -4.7 Q-9.55 -5.05 -9.6 -5.85 -9.6 -6.2 -9.5 -6.45 -9.4 -6.75 -9.05 -6.8 L-8.85 -6.8 Q-8.65 -6.75 -8.7 -6.7 -8.55 -6.4 -8.5 -6.05" fill="#e5eeff" fill-opacity="0.7529412" fill-rule="evenodd" stroke="none"/>
  </g>
</svg>
