<?xml version="1.0" encoding="UTF-8" standalone="no"?>
<svg xmlns:ffdec="https://www.free-decompiler.com/flash" xmlns:xlink="http://www.w3.org/1999/xlink" ffdec:objectType="shape" height="43.05px" width="40.25px" xmlns="http://www.w3.org/2000/svg">
  <g transform="matrix(1.0, 0.0, 0.0, 1.0, 13.8, 42.2)">
    <path d="M5.25 -40.45 Q5.35 -40.2 5.4 -39.55 5.45 -39.0 5.85 -38.75 6.25 -38.55 6.25 -38.15 6.25 -37.9 5.95 -36.85 5.6 -35.65 5.35 -35.45 5.2 -35.7 5.15 -36.8 5.0 -37.75 4.15 -37.75 L3.45 -37.5 Q2.85 -37.25 2.55 -37.25 L2.3 -37.3 2.25 -37.35 2.2 -38.0 Q2.2 -38.15 3.1 -39.35 4.1 -40.7 4.8 -40.9 5.1 -40.95 5.25 -40.45 M8.6 -40.4 Q8.95 -40.4 9.0 -40.15 9.25 -40.1 9.55 -39.8 9.7 -39.95 10.15 -40.3 10.75 -40.9 10.95 -41.0 L11.65 -41.1 Q12.0 -41.15 12.35 -41.55 13.1 -42.5 13.85 -42.05 14.15 -41.9 14.35 -41.6 14.5 -41.3 14.5 -41.1 L14.35 -40.3 Q14.2 -39.6 14.2 -39.5 14.2 -38.65 15.0 -38.2 15.45 -37.9 15.55 -37.8 15.8 -37.55 15.8 -37.2 15.8 -36.4 14.95 -35.85 14.5 -35.55 14.35 -35.4 14.1 -35.15 14.1 -34.8 14.1 -34.55 14.35 -34.05 14.55 -33.55 14.55 -33.35 14.55 -32.3 14.05 -31.8 L12.25 -30.3 12.2 -30.25 12.2 -30.45 Q12.2 -30.9 12.75 -31.85 13.3 -32.85 13.3 -33.0 13.3 -33.15 12.9 -33.6 12.55 -34.1 12.55 -34.45 12.55 -34.7 13.0 -35.5 13.4 -36.3 13.4 -36.5 13.4 -36.75 12.95 -38.1 12.5 -39.5 12.3 -39.5 12.1 -39.5 11.85 -39.05 L11.35 -38.1 Q10.6 -36.7 9.55 -36.7 9.0 -36.7 9.05 -37.4 L9.1 -38.0 Q9.1 -38.4 9.0 -38.6 8.55 -38.3 8.2 -37.5 7.85 -36.75 7.5 -36.55 L7.3 -36.75 Q7.25 -36.85 7.25 -36.95 7.25 -37.5 7.5 -38.2 7.8 -38.85 7.8 -39.2 7.8 -39.45 8.0 -39.85 8.25 -40.4 8.6 -40.4 M19.2 -30.05 Q19.1 -30.05 18.35 -29.65 17.6 -29.25 17.2 -29.25 16.65 -29.25 16.25 -29.65 L16.1 -29.85 15.95 -29.55 Q15.6 -29.0 15.2 -28.9 15.2 -29.25 15.7 -30.0 L15.9 -30.25 Q15.95 -30.5 16.15 -30.85 16.45 -31.4 16.75 -31.4 L17.05 -31.05 Q17.25 -30.7 17.5 -30.7 17.65 -30.7 19.2 -31.5 20.7 -32.35 21.0 -32.35 21.35 -32.35 21.65 -31.85 21.9 -31.45 21.9 -31.2 21.9 -31.1 21.7 -30.95 21.4 -30.85 21.2 -30.25 21.75 -29.75 21.7 -29.45 21.5 -29.1 21.5 -28.75 21.5 -28.45 22.15 -28.2 22.75 -27.95 22.75 -27.65 22.75 -27.3 21.55 -26.45 20.4 -25.65 20.4 -25.15 20.4 -24.75 20.85 -24.25 21.3 -23.8 21.3 -23.65 21.3 -22.75 19.95 -21.75 19.3 -21.25 17.55 -20.25 L17.4 -20.15 17.3 -20.15 17.2 -20.2 Q17.15 -20.2 17.15 -20.4 17.15 -20.8 17.6 -20.95 L18.2 -21.65 Q18.95 -22.4 19.05 -22.7 L18.6 -23.3 Q18.5 -23.4 18.5 -23.5 18.5 -23.95 18.75 -24.3 19.2 -24.95 19.4 -25.4 19.55 -25.65 19.55 -26.0 L19.5 -26.4 Q19.5 -26.8 20.3 -26.85 L20.35 -26.85 20.4 -27.05 Q20.4 -27.2 20.1 -27.65 19.8 -28.15 19.65 -28.15 19.1 -28.15 17.35 -26.85 L16.15 -25.85 Q15.95 -25.6 15.65 -25.45 L15.3 -25.1 15.45 -25.35 15.3 -25.25 15.45 -25.4 15.05 -25.35 Q14.65 -25.35 14.55 -25.7 14.5 -25.85 14.55 -26.05 14.55 -26.25 14.65 -26.4 L14.9 -27.05 14.8 -27.2 14.7 -27.4 13.85 -27.45 Q13.6 -27.45 13.3 -27.2 12.95 -26.9 12.9 -26.9 13.2 -27.45 13.75 -27.6 14.25 -27.75 14.75 -27.6 15.3 -27.4 15.5 -27.05 15.7 -26.6 15.45 -26.1 L15.55 -25.95 Q15.6 -25.85 15.7 -25.85 L15.75 -25.85 Q16.65 -27.25 18.05 -28.35 L19.1 -29.1 Q19.5 -29.4 19.5 -29.6 19.5 -29.85 19.35 -29.95 L19.2 -30.05 M17.15 -27.0 L18.2 -27.8 18.15 -27.9 17.6 -27.4 17.15 -27.0 M10.2 -34.9 L10.2 -34.9 M11.15 -36.1 Q10.95 -35.9 10.8 -35.85 L10.75 -35.95 10.85 -36.1 Q10.95 -36.2 11.05 -36.2 L11.15 -36.1 M10.55 -35.3 Q10.85 -35.15 10.85 -34.7 L10.85 -34.25 10.9 -34.15 Q10.9 -34.1 10.75 -34.1 L10.7 -34.1 Q10.65 -34.05 10.55 -34.0 L10.45 -34.05 10.45 -33.95 10.4 -33.75 10.4 -33.7 9.8 -33.65 9.4 -33.05 Q9.05 -32.45 8.6 -32.1 L8.3 -31.85 8.25 -31.85 8.2 -31.8 8.15 -31.65 8.0 -31.75 7.6 -31.75 Q7.5 -31.8 7.35 -32.05 7.2 -32.1 7.1 -32.15 L6.35 -32.6 Q6.15 -32.45 6.05 -31.95 L5.8 -31.35 5.8 -30.7 Q6.45 -30.95 6.75 -30.6 7.0 -30.3 7.0 -29.95 7.0 -29.45 6.9 -29.25 6.85 -29.0 6.65 -28.75 L6.3 -28.1 6.25 -28.1 6.35 -28.45 6.25 -28.45 6.5 -29.0 6.6 -29.3 6.65 -29.6 Q6.65 -29.8 6.6 -29.9 L6.45 -30.1 Q5.7 -29.8 5.3 -30.6 5.0 -31.15 5.0 -31.55 5.0 -31.95 5.25 -32.3 5.35 -32.55 5.5 -32.75 5.95 -33.4 6.75 -33.45 L7.35 -33.6 Q7.55 -33.6 7.85 -33.1 8.1 -32.6 8.3 -32.6 L8.45 -32.6 8.7 -33.05 9.05 -33.7 Q9.35 -34.2 9.8 -34.4 L10.05 -34.75 10.25 -35.1 Q10.3 -35.45 10.55 -35.3 M3.25 -34.9 L3.2 -34.7 Q3.2 -34.6 3.05 -34.6 2.95 -34.6 2.85 -34.85 2.8 -35.05 2.65 -35.05 L2.25 -34.95 Q1.9 -34.8 1.8 -34.8 1.6 -34.8 1.5 -34.0 L1.3 -32.8 Q1.25 -32.75 1.05 -32.75 1.0 -32.85 1.05 -33.0 1.15 -33.25 1.15 -33.4 1.15 -33.6 1.0 -34.0 0.85 -34.4 0.85 -34.5 0.85 -34.8 1.15 -35.45 1.45 -36.1 1.6 -36.1 1.9 -36.1 2.0 -35.9 L2.1 -35.6 2.65 -36.25 Q3.05 -36.05 3.1 -35.6 3.2 -35.0 3.25 -34.9 M0.0 -36.9 Q-0.2 -36.6 -0.65 -36.6 -1.05 -36.6 -1.25 -36.85 -1.35 -37.0 -1.4 -37.45 -1.5 -37.9 -1.6 -38.05 -1.8 -38.35 -2.3 -38.35 -2.65 -38.35 -3.3 -37.95 L-3.35 -37.9 -3.9 -37.45 Q-5.0 -36.55 -5.25 -36.55 -5.7 -36.55 -5.8 -36.95 L-5.8 -37.55 Q-5.8 -38.4 -5.4 -39.05 -4.9 -39.9 -4.0 -39.9 -3.2 -39.9 -2.9 -40.2 -2.7 -40.4 -2.55 -40.95 -2.4 -41.45 -2.15 -41.65 -1.8 -42.0 -0.9 -41.95 -0.75 -41.6 -0.25 -39.5 L0.15 -37.45 Q0.15 -37.1 0.0 -36.9 M0.2 -30.8 Q0.05 -30.65 -0.05 -30.25 -0.2 -29.85 -0.1 -29.4 L0.0 -29.55 Q0.0 -29.35 -0.15 -28.65 -0.35 -27.95 -0.35 -27.65 -0.35 -27.45 -0.45 -27.0 L-0.65 -26.3 -0.65 -25.65 Q-0.65 -25.2 -1.0 -25.2 -1.3 -25.2 -1.35 -25.75 -1.4 -26.05 -1.35 -26.35 -1.35 -27.0 -1.15 -27.25 -0.75 -27.7 -0.35 -28.7 -0.25 -28.95 -0.2 -29.9 -0.1 -30.7 0.2 -30.85 L0.2 -30.8 M2.45 -24.8 Q2.75 -25.25 3.25 -25.15 3.75 -25.05 3.75 -24.45 3.75 -24.05 3.55 -23.85 3.45 -23.75 3.15 -23.6 2.5 -23.3 2.35 -22.4 2.25 -21.95 1.95 -21.15 L1.6 -20.0 1.5 -20.0 1.9 -21.65 Q2.1 -22.6 2.2 -23.15 2.2 -23.35 2.2 -23.9 2.2 -24.4 2.45 -24.8 M2.85 -24.3 L3.1 -24.35 Q3.3 -24.35 3.35 -24.4 3.15 -24.55 2.95 -24.4 L2.85 -24.3 M11.25 -25.25 Q10.45 -25.1 9.8 -24.2 9.1 -23.05 8.7 -22.6 8.85 -22.4 9.05 -22.3 L9.35 -22.25 Q9.4 -21.95 9.35 -21.45 L9.3 -20.8 9.55 -20.25 Q9.75 -19.8 9.75 -19.65 9.75 -19.45 9.6 -19.25 L9.75 -19.1 10.75 -19.0 Q11.45 -19.0 11.7 -18.55 11.9 -18.25 12.0 -17.65 12.1 -16.85 12.25 -16.45 12.3 -16.35 12.45 -14.55 12.6 -12.75 12.6 -12.25 L12.6 -11.75 13.05 -11.85 13.5 -11.85 Q13.95 -12.0 14.35 -12.65 L14.95 -13.65 Q15.3 -14.1 15.6 -14.0 16.0 -13.9 16.55 -13.0 L16.5 -12.8 Q16.45 -12.7 16.3 -12.7 16.2 -12.7 16.1 -12.85 15.95 -13.0 15.85 -13.0 15.35 -13.0 15.05 -12.1 14.6 -11.0 14.55 -10.95 14.4 -10.8 13.85 -10.65 L13.05 -10.5 Q12.6 -10.35 12.3 -10.0 L12.0 -9.65 Q11.65 -8.9 10.85 -8.0 10.65 -7.55 10.15 -6.95 9.6 -6.4 9.6 -6.1 9.6 -5.9 9.75 -5.1 9.9 -4.3 9.95 -4.2 10.0 -4.1 10.7 -3.7 11.15 -3.4 11.1 -2.75 L11.25 -2.7 Q12.55 -2.7 13.1 -3.15 L13.4 -3.5 Q13.55 -3.65 13.65 -3.7 13.35 -3.8 13.15 -4.3 12.95 -4.75 12.95 -5.15 12.95 -5.95 13.65 -6.55 14.65 -7.5 16.5 -6.9 L16.65 -6.7 Q16.55 -6.6 16.55 -6.55 L16.55 -6.45 15.75 -6.35 15.5 -6.3 Q15.8 -6.35 15.95 -6.2 L16.3 -5.75 16.5 -5.75 16.4 -5.9 Q16.4 -5.95 16.5 -5.95 L16.7 -5.9 Q16.95 -5.9 17.45 -6.25 18.2 -6.75 19.45 -7.9 19.4 -8.0 18.95 -8.1 L18.4 -8.25 18.5 -8.35 18.2 -8.4 18.15 -8.35 Q17.8 -8.7 17.8 -8.8 17.8 -9.0 18.15 -9.25 18.55 -9.5 18.85 -9.35 L18.65 -9.25 18.7 -9.15 18.8 -9.25 Q19.2 -9.6 19.35 -9.65 20.45 -9.45 21.0 -9.15 21.35 -9.0 21.95 -9.0 22.55 -9.0 22.55 -8.4 L22.5 -7.9 Q22.45 -7.6 22.5 -7.5 22.95 -6.75 23.75 -6.55 L25.15 -6.4 Q25.45 -6.15 25.45 -5.85 25.45 -5.15 22.85 -4.35 20.4 -3.55 19.05 -3.6 L18.7 -3.6 18.6 -3.75 Q18.65 -4.0 19.1 -4.4 19.5 -4.8 19.5 -5.05 19.5 -5.8 19.05 -5.75 L17.85 -5.55 17.6 -5.5 17.2 -5.55 17.1 -5.45 Q16.9 -5.3 16.75 -5.3 16.2 -5.3 15.7 -5.6 15.2 -5.9 14.95 -5.9 14.65 -5.9 14.15 -5.55 13.6 -5.15 13.55 -5.15 13.5 -4.75 13.9 -4.45 14.35 -4.15 14.35 -3.8 14.35 -3.5 14.15 -3.25 14.4 -3.15 14.4 -2.65 14.4 -2.05 13.65 -1.7 13.0 -1.4 12.15 -1.4 L11.05 -1.1 Q9.75 -0.8 9.0 -0.8 8.75 -0.8 8.25 -1.45 7.8 -2.05 7.8 -2.35 7.8 -2.55 8.0 -2.95 L8.2 -3.3 8.15 -3.35 8.1 -3.5 Q7.95 -3.6 7.9 -3.85 7.85 -4.05 7.9 -4.25 L7.9 -4.75 Q7.9 -5.1 7.95 -5.25 8.0 -5.55 8.3 -5.6 8.65 -6.35 9.25 -7.3 L10.15 -8.5 Q10.35 -8.95 10.55 -9.6 10.95 -11.0 10.95 -11.75 10.95 -12.7 10.1 -15.7 9.25 -18.75 8.9 -18.75 L6.4 -18.5 5.0 -18.25 3.6 -16.65 Q3.35 -16.3 2.25 -15.45 1.15 -14.5 0.8 -14.15 -0.05 -13.25 -0.7 -12.15 L-0.1 -12.7 Q-0.55 -12.25 -1.05 -11.45 L-1.25 -11.2 Q-1.75 -10.2 -2.1 -9.0 L-2.1 -8.95 Q-2.1 -8.6 -2.35 -7.5 -2.6 -6.45 -2.6 -6.15 -2.6 -5.85 -2.15 -5.05 -1.7 -4.3 -1.7 -4.05 -1.7 -3.4 -1.2 -2.75 -0.7 -2.2 -0.7 -1.95 -0.7 -0.7 -1.95 0.15 -2.95 0.85 -3.7 0.85 -4.05 0.85 -4.4 0.6 -4.75 0.4 -5.2 0.4 L-5.95 0.55 -6.75 0.7 Q-7.9 0.7 -8.1 -0.55 -8.2 -1.2 -8.1 -2.15 -8.1 -2.25 -8.2 -2.65 -8.35 -3.05 -8.35 -3.2 L-8.35 -3.7 -8.25 -3.8 Q-8.2 -3.9 -8.05 -3.9 -8.0 -3.9 -7.75 -3.6 L-7.55 -3.35 Q-6.95 -3.35 -6.45 -3.85 -6.4 -4.0 -6.4 -4.15 -6.4 -4.55 -6.65 -4.9 L-6.85 -5.2 Q-7.1 -5.25 -7.3 -5.45 L-8.1 -6.2 -8.6 -6.4 Q-9.0 -6.45 -9.15 -6.65 -9.35 -6.85 -9.4 -7.1 L-9.45 -7.45 Q-9.45 -7.7 -9.25 -7.95 -9.05 -8.2 -9.05 -8.35 L-9.05 -8.4 -9.35 -8.9 Q-9.65 -9.15 -9.65 -9.5 L-9.6 -9.9 -9.6 -10.15 Q-9.3 -10.15 -9.0 -9.95 -8.75 -9.8 -8.7 -9.65 -8.6 -9.5 -8.65 -9.15 L-8.65 -8.75 Q-8.5 -8.5 -8.5 -8.25 -8.5 -8.15 -8.55 -7.95 L-8.4 -7.6 Q-8.25 -7.25 -8.2 -7.05 L-8.05 -7.0 -7.5 -6.75 -7.4 -6.85 Q-7.25 -6.75 -7.05 -6.45 -6.85 -6.2 -6.65 -6.15 L-6.25 -5.95 Q-6.1 -5.8 -6.1 -5.65 -6.1 -5.55 -6.15 -5.45 L-6.15 -5.4 Q-5.9 -6.0 -5.7 -7.65 -5.5 -9.15 -5.05 -9.95 -3.55 -12.55 -3.5 -12.7 -3.5 -12.85 -3.55 -13.25 -3.65 -13.85 -3.65 -14.55 -3.65 -15.8 -3.4 -16.65 -3.45 -16.6 -3.5 -16.6 L-3.8 -16.65 -3.85 -16.7 Q-3.85 -16.75 -3.85 -16.95 -3.45 -18.1 -3.45 -18.15 -3.45 -18.35 -3.65 -18.8 L-3.95 -19.4 Q-3.4 -19.25 -3.15 -18.65 -3.0 -18.2 -3.0 -17.6 L-3.0 -17.4 -2.75 -17.55 -2.75 -17.8 Q-2.75 -18.3 -2.25 -18.75 -1.75 -19.1 -1.4 -19.05 L-2.0 -18.15 Q-2.2 -17.85 -2.25 -17.45 L-2.15 -17.35 Q-1.9 -16.9 -1.9 -16.05 L-1.65 -15.75 Q-1.35 -15.3 -1.25 -14.9 -1.15 -14.9 -0.95 -15.05 -0.75 -15.2 -0.65 -15.2 -0.5 -15.2 -0.4 -15.1 L-0.25 -14.9 Q-0.3 -14.65 -0.4 -14.4 0.2 -14.5 1.4 -16.65 L2.25 -18.2 Q2.7 -18.95 2.95 -18.95 3.05 -18.95 3.15 -18.75 3.3 -18.55 3.35 -18.55 3.45 -18.55 3.7 -18.85 L4.15 -19.5 Q4.85 -20.35 5.45 -19.85 L5.65 -19.65 5.75 -19.7 Q6.25 -19.95 6.6 -19.95 6.75 -19.95 6.9 -19.8 L6.95 -19.75 7.55 -19.75 7.65 -19.8 Q7.85 -20.0 8.15 -20.0 8.2 -20.55 9.1 -20.9 9.15 -21.05 9.15 -21.35 L8.5 -21.35 Q8.15 -21.65 8.05 -21.85 8.0 -22.0 8.0 -22.35 8.0 -22.85 8.15 -22.95 L8.7 -23.0 Q8.9 -23.0 9.15 -23.3 L9.55 -24.05 Q10.2 -25.15 11.0 -25.3 L11.0 -25.35 Q11.2 -25.35 11.25 -25.25 M5.0 -19.35 Q4.6 -19.3 4.2 -19.0 3.95 -18.8 3.55 -18.25 L3.65 -17.55 4.3 -18.35 4.3 -18.45 Q4.3 -18.9 4.85 -19.25 L5.0 -19.35 M2.85 -19.55 Q2.85 -19.2 2.65 -19.05 L2.45 -18.9 2.25 -18.95 2.25 -19.1 Q2.25 -19.25 2.3 -19.45 2.45 -19.7 2.75 -19.9 L2.8 -19.8 2.85 -19.55 M22.55 -17.55 Q22.65 -17.4 22.55 -17.05 22.55 -16.95 22.85 -16.85 L23.35 -16.75 23.95 -16.9 24.55 -17.0 Q25.4 -17.0 26.0 -16.4 26.45 -15.9 26.45 -15.7 26.45 -15.3 25.6 -15.05 24.7 -14.75 24.7 -14.35 L24.85 -14.0 24.95 -13.7 Q24.95 -13.35 24.1 -12.75 23.85 -12.6 22.3 -11.75 L22.15 -11.75 Q22.1 -11.75 22.1 -11.95 L22.6 -12.7 Q23.05 -13.4 23.1 -14.0 22.8 -12.95 21.85 -12.95 21.15 -12.95 20.95 -14.05 20.7 -14.25 20.45 -14.75 L20.2 -15.25 Q18.95 -15.25 18.5 -14.65 L18.4 -14.55 Q17.95 -13.55 17.8 -13.45 17.8 -13.55 18.1 -14.05 18.3 -14.5 18.25 -14.6 L18.2 -14.6 Q19.2 -16.4 19.95 -16.2 20.4 -16.05 20.9 -15.05 21.5 -14.65 21.55 -14.45 L21.9 -13.95 Q22.15 -13.6 22.4 -13.6 22.6 -13.6 22.85 -13.95 L23.05 -14.35 22.9 -15.3 Q22.55 -16.45 21.95 -15.9 21.7 -16.2 21.7 -16.65 21.7 -16.8 21.8 -17.35 L21.8 -17.45 21.45 -17.1 Q21.2 -16.9 21.0 -16.9 20.85 -16.9 20.8 -17.0 L20.7 -17.2 Q20.75 -17.85 21.0 -18.35 21.3 -18.85 21.65 -18.95 22.0 -19.1 22.2 -18.8 22.45 -18.45 22.45 -17.75 L22.55 -17.55 M21.95 -16.35 L22.6 -16.35 22.8 -16.25 22.95 -16.5 22.45 -16.75 22.4 -16.9 22.55 -17.35 Q22.5 -17.4 22.45 -17.35 22.45 -17.0 22.4 -16.8 22.3 -16.45 21.95 -16.6 L21.95 -16.35 M18.8 -15.1 Q19.2 -15.45 19.95 -15.5 19.8 -15.6 19.65 -15.6 19.2 -15.6 18.8 -15.1 M23.0 -12.55 L23.0 -12.45 Q23.3 -12.45 23.75 -12.8 24.2 -13.1 24.3 -13.3 L24.1 -13.75 Q24.0 -13.95 24.0 -14.05 L23.35 -14.05 Q23.35 -13.6 23.3 -13.35 23.25 -13.0 23.0 -12.55 M-2.15 -37.5 Q-1.9 -37.35 -1.9 -36.95 -1.9 -35.85 -2.75 -35.85 L-3.25 -35.9 Q-3.55 -36.0 -3.6 -36.2 L-3.6 -36.4 Q-3.6 -37.05 -3.1 -37.4 L-2.75 -37.55 -2.15 -37.5 M-3.0 -34.35 Q-3.0 -34.05 -3.25 -33.45 L-3.6 -32.8 -3.65 -32.8 -3.6 -32.95 -3.65 -32.95 -3.65 -33.25 -3.5 -33.25 -3.3 -33.7 Q-3.05 -34.25 -3.1 -34.55 L-3.0 -34.55 -3.0 -34.35 M-4.25 -32.75 L-4.0 -33.55 Q-3.8 -34.0 -3.55 -34.25 -3.65 -33.75 -3.75 -33.3 -4.0 -32.3 -4.35 -31.65 -4.7 -31.05 -5.4 -30.55 L-5.65 -30.35 Q-6.2 -29.35 -6.7 -27.9 -6.65 -27.65 -6.45 -27.4 L-6.35 -27.25 -6.0 -27.05 Q-5.85 -27.1 -5.65 -27.45 -5.45 -27.85 -5.35 -27.85 -4.95 -27.85 -4.85 -27.2 L-4.8 -26.5 Q-4.8 -26.15 -5.0 -25.3 -5.2 -24.4 -5.2 -24.0 -5.2 -23.85 -5.05 -23.6 -4.9 -23.3 -4.85 -23.1 L-4.8 -22.65 Q-4.8 -22.4 -4.7 -22.25 L-4.7 -21.95 -4.85 -21.9 -5.1 -21.85 Q-5.75 -21.85 -6.05 -23.75 -6.1 -24.3 -6.15 -24.8 L-6.2 -24.75 Q-6.3 -25.0 -6.35 -25.15 L-6.35 -25.5 Q-6.35 -25.6 -6.45 -25.8 -6.55 -26.0 -6.65 -26.0 -6.9 -26.0 -7.0 -25.85 L-7.15 -25.5 Q-7.4 -25.05 -8.15 -25.05 -8.5 -25.05 -8.65 -25.8 -8.7 -26.2 -8.7 -26.65 L-8.6 -27.55 Q-8.55 -28.3 -8.55 -28.45 -8.55 -28.85 -8.05 -29.6 -7.5 -30.45 -7.05 -30.7 L-7.0 -30.75 Q-6.9 -30.8 -6.8 -30.95 -6.65 -31.25 -6.45 -31.9 -6.15 -32.8 -5.8 -32.8 -5.45 -32.8 -5.15 -32.55 -4.8 -32.3 -4.7 -32.3 -4.55 -32.3 -4.35 -32.55 L-4.25 -32.75 M-6.15 -26.0 L-6.15 -26.0 M-10.35 -23.55 Q-10.35 -23.5 -10.4 -23.5 -10.4 -23.45 -10.45 -23.5 L-10.55 -23.5 Q-10.0 -23.3 -9.8 -22.5 -9.65 -22.0 -9.65 -21.3 -9.65 -21.15 -9.8 -20.7 -10.0 -20.15 -10.2 -20.15 -10.25 -20.15 -10.8 -20.55 -11.35 -20.95 -11.6 -20.95 -12.5 -20.95 -12.65 -19.55 -12.75 -18.8 -12.8 -18.65 -12.95 -18.2 -13.3 -18.2 -13.6 -18.2 -13.7 -18.6 -13.8 -18.85 -13.8 -19.05 -13.8 -20.4 -13.75 -20.85 -13.5 -22.25 -12.65 -22.25 L-12.6 -22.25 -12.4 -22.7 -12.35 -22.7 -12.3 -22.95 Q-12.1 -23.8 -12.0 -23.95 -11.7 -24.35 -11.2 -24.2 -10.7 -24.05 -10.35 -23.55 M-11.65 -23.55 L-11.8 -23.45 -11.6 -23.55 -11.65 -23.55 M-10.35 -20.45 L-10.3 -20.5 -10.55 -20.7 -10.35 -20.45 M-11.55 -21.55 L-11.25 -21.45 Q-11.4 -21.55 -11.45 -21.55 L-11.55 -21.55 M-0.9 -21.9 L-0.9 -20.55 -0.95 -20.5 -1.0 -20.65 Q-1.05 -20.75 -1.05 -20.95 L-1.0 -21.45 -0.95 -22.0 -0.9 -22.0 -0.9 -21.9 M-12.3 -22.8 L-12.1 -23.1 -12.1 -23.3 -12.3 -22.8 M-12.25 -18.3 Q-12.2 -18.85 -12.1 -19.05 -11.85 -19.45 -11.55 -19.25 -11.3 -18.9 -11.2 -18.9 L-11.15 -18.75 Q-11.1 -18.65 -11.1 -18.45 -11.1 -17.65 -11.15 -17.35 -11.25 -16.5 -11.6 -16.5 -12.05 -16.5 -12.2 -17.0 -12.35 -17.25 -12.35 -17.5 -12.35 -17.8 -12.25 -18.3 M-13.55 -18.85 L-13.55 -19.0 Q-13.55 -19.3 -13.4 -20.0 -13.6 -19.35 -13.6 -19.05 L-13.55 -18.85 M-13.5 -18.7 L-13.5 -18.7 M-1.35 -19.2 L-1.4 -19.2 -1.25 -19.55 -1.1 -19.8 Q-1.2 -19.5 -1.35 -19.2 M-0.5 -14.1 L-0.55 -14.1 Q-0.75 -13.75 -0.95 -13.75 L-0.8 -13.55 Q-0.45 -14.05 0.0 -14.5 L-0.45 -14.15 -0.5 -14.1 M-6.55 -9.9 L-6.5 -10.0 -6.5 -9.15 Q-6.6 -9.4 -6.6 -9.5 L-6.55 -9.9 M-8.7 -8.8 L-8.65 -9.1 Q-8.65 -9.4 -8.8 -9.55 -8.95 -9.65 -9.05 -9.65 -9.05 -9.8 -9.05 -9.45 L-8.85 -9.3 Q-8.75 -9.25 -8.8 -8.95 L-8.8 -8.9 -8.7 -8.8" fill="#ccfeff" fill-opacity="0.6" fill-rule="evenodd" stroke="none"/>
    <path d="M9.65 -2.2 Q9.5 -2.0 9.3 -2.0 8.85 -2.0 8.75 -2.55 8.7 -2.8 8.7 -3.0 8.7 -3.4 8.85 -3.6 9.05 -3.8 9.25 -3.75 9.75 -3.65 9.75 -2.6 9.75 -2.35 9.65 -2.2 M23.35 -15.5 Q23.35 -16.15 23.85 -16.05 24.35 -15.9 24.35 -15.4 24.35 -14.85 23.8 -14.85 23.45 -14.85 23.35 -15.15 23.35 -15.2 23.35 -15.5 M-2.9 -11.75 Q-2.55 -11.95 -2.55 -10.95 -2.55 -10.3 -3.3 -8.35 -4.05 -6.4 -4.05 -5.3 -4.05 -4.95 -3.75 -4.4 -3.45 -3.75 -3.4 -3.6 -3.3 -3.15 -2.85 -2.7 -2.45 -2.35 -2.45 -1.95 -2.45 -1.5 -3.45 -0.8 -4.55 -0.05 -5.45 -0.05 -5.8 -0.05 -6.05 -0.7 -6.25 -1.2 -6.25 -1.45 -6.25 -2.25 -6.0 -2.6 -5.9 -2.8 -5.5 -3.0 -5.1 -3.2 -4.95 -3.6 -4.7 -4.1 -4.7 -5.25 -4.7 -7.8 -3.65 -10.5 -3.2 -11.55 -2.9 -11.75" fill="#ffffff" fill-opacity="0.7529412" fill-rule="evenodd" stroke="none"/>
  </g>
</svg>
