<?xml version="1.0" encoding="UTF-8" standalone="no"?>
<svg xmlns:ffdec="https://www.free-decompiler.com/flash" xmlns:xlink="http://www.w3.org/1999/xlink" ffdec:objectType="shape" height="10.7px" width="90.5px" xmlns="http://www.w3.org/2000/svg">
  <g transform="matrix(1.0, 0.0, 0.0, 1.0, 40.65, 9.45)">
    <path d="M11.0 -8.3 L11.75 -8.45 12.55 -8.55 13.45 -8.55 14.3 -8.5 15.6 -8.4 15.9 -8.35 16.0 -8.35 Q16.15 -8.35 16.2 -8.25 16.25 -8.15 16.25 -8.0 L16.25 -7.8 Q16.2 -7.7 16.15 -7.7 L17.15 -7.7 18.9 -7.6 Q19.0 -7.6 19.05 -7.55 L19.05 -7.5 Q19.15 -7.45 19.1 -7.3 L19.55 -7.2 19.6 -7.2 Q19.8 -7.15 19.85 -7.0 L20.05 -7.0 20.2 -7.15 20.3 -7.2 20.4 -7.2 Q22.1 -7.15 22.65 -7.4 L22.65 -7.45 Q23.4 -7.85 24.95 -7.95 L25.0 -8.0 25.15 -8.0 Q26.1 -8.0 26.15 -7.8 L26.2 -7.7 26.15 -7.6 Q26.5 -7.55 26.6 -7.5 L27.0 -7.5 27.3 -7.85 27.35 -7.9 27.4 -7.9 28.1 -8.0 30.0 -8.15 30.05 -8.15 30.05 -8.2 30.15 -8.2 Q31.05 -8.2 31.1 -8.0 L31.15 -7.9 31.15 -7.85 31.05 -7.75 31.1 -7.75 30.75 -7.5 30.85 -7.45 31.75 -7.5 32.05 -7.55 32.15 -7.6 33.55 -7.65 33.65 -7.7 34.2 -7.8 34.5 -7.9 34.55 -7.9 35.4 -8.0 35.9 -8.0 Q38.6 -7.9 38.7 -7.7 L38.75 -7.7 38.75 -7.6 38.65 -7.4 38.6 -7.4 38.3 -7.3 38.6 -7.15 38.65 -7.15 39.05 -7.1 40.7 -7.15 41.55 -7.15 41.65 -7.1 41.8 -7.0 Q41.85 -6.95 41.95 -6.95 L42.0 -6.95 42.1 -6.85 42.45 -6.3 42.7 -6.25 42.75 -6.25 43.75 -6.2 43.8 -6.2 44.15 -6.15 44.6 -6.05 45.55 -6.0 45.65 -6.0 45.75 -5.9 45.8 -5.7 45.85 -5.35 45.8 -5.2 45.95 -5.1 46.25 -5.0 Q46.4 -4.95 46.5 -4.9 L46.5 -4.95 46.65 -4.85 46.85 -4.65 46.9 -4.55 46.9 -4.45 46.8 -4.25 46.7 -4.2 46.65 -4.2 46.45 -4.25 46.1 -4.35 45.5 -4.5 44.65 -4.5 Q44.55 -4.4 44.5 -4.4 L44.15 -4.45 43.85 -4.5 42.45 -4.55 41.75 -4.55 40.65 -4.65 Q40.2 -4.65 40.0 -4.55 L39.9 -4.5 39.85 -4.45 39.6 -4.45 38.55 -4.5 Q38.5 -4.5 38.45 -4.6 38.3 -4.65 38.3 -4.9 L38.3 -5.05 38.25 -5.15 37.85 -5.15 36.1 -5.05 36.05 -5.05 35.55 -5.1 35.5 -5.1 35.25 -5.2 34.55 -5.3 Q34.1 -5.25 33.65 -5.05 L33.05 -4.75 32.05 -4.75 31.2 -4.8 31.15 -4.8 30.5 -4.9 Q30.25 -4.95 30.15 -5.0 L29.3 -5.05 29.2 -5.05 29.05 -5.1 Q28.75 -5.2 28.75 -5.35 L28.7 -5.45 28.75 -5.55 28.9 -5.7 29.2 -5.75 28.9 -5.8 28.25 -5.9 27.85 -5.55 Q27.45 -5.2 27.2 -5.2 L26.5 -5.2 25.9 -5.25 25.9 -5.3 Q25.2 -5.45 24.75 -5.65 L24.1 -6.0 24.0 -6.1 24.0 -6.15 Q23.95 -6.2 24.0 -6.25 L24.0 -6.3 23.45 -6.25 Q23.25 -6.2 23.15 -6.1 22.9 -5.85 22.65 -5.85 L21.8 -5.9 21.15 -5.95 21.1 -5.95 19.9 -6.0 19.8 -6.0 19.8 -5.85 19.75 -5.65 19.65 -5.55 19.55 -5.5 18.55 -5.5 18.5 -5.55 Q18.25 -5.65 17.55 -5.8 L16.6 -5.95 Q16.05 -6.0 15.65 -6.15 L15.5 -6.25 15.2 -6.25 14.55 -6.1 Q13.9 -5.9 13.25 -6.0 13.05 -6.0 12.5 -5.85 L11.85 -5.7 Q11.6 -5.7 10.4 -5.95 L8.85 -6.3 Q8.8 -6.3 8.75 -6.35 L8.75 -6.3 8.45 -6.25 8.3 -6.0 8.0 -5.65 Q7.9 -5.6 7.85 -5.6 L6.1 -5.6 Q6.0 -5.6 5.95 -5.65 L4.0 -5.7 3.95 -5.7 3.7 -5.75 3.6 -5.8 3.5 -6.0 3.5 -6.1 3.15 -6.15 2.8 -6.25 2.55 -6.25 2.6 -6.2 Q2.7 -5.95 2.25 -5.75 2.15 -5.65 1.35 -5.6 L0.2 -5.55 -0.15 -5.45 -0.65 -5.4 -1.4 -5.45 -2.05 -5.6 -3.75 -5.55 -3.85 -5.55 -3.85 -5.5 Q-3.9 -5.4 -3.95 -5.4 L-4.0 -5.35 -4.3 -5.35 -4.5 -5.4 -4.55 -5.4 -4.65 -5.35 -4.7 -5.35 Q-4.8 -5.35 -4.85 -5.4 L-5.75 -5.35 -6.35 -5.3 -6.45 -5.25 -7.85 -5.2 -7.9 -5.15 -8.0 -5.15 Q-8.2 -5.15 -9.15 -5.55 -9.95 -5.85 -10.15 -5.85 L-11.7 -5.85 -11.75 -5.8 -11.95 -5.65 -12.05 -5.65 -12.1 -5.7 Q-12.6 -5.45 -13.1 -5.3 L-15.95 -4.65 -16.0 -4.65 -18.3 -4.75 Q-18.35 -4.75 -18.4 -4.75 L-20.1 -4.75 Q-20.5 -4.8 -20.55 -4.9 L-20.6 -5.05 -20.5 -5.25 -20.45 -5.3 -20.8 -5.25 -20.85 -5.3 -20.9 -5.25 -22.05 -4.95 -22.95 -4.75 Q-23.55 -4.75 -23.7 -4.8 L-24.7 -4.85 -25.0 -4.8 Q-26.8 -4.5 -28.3 -4.5 -29.65 -4.5 -30.15 -4.9 -30.45 -5.15 -30.4 -5.45 -30.4 -6.05 -28.95 -6.55 L-27.35 -7.05 -27.25 -7.05 -26.95 -7.0 -26.7 -7.0 -26.2 -6.95 -24.2 -7.1 -24.15 -7.1 Q-23.85 -7.35 -23.4 -7.5 -22.85 -7.65 -20.6 -8.05 L-19.1 -8.5 Q-17.85 -8.9 -16.25 -9.05 -16.2 -9.15 -16.1 -9.15 L-11.6 -9.1 -11.55 -9.1 -10.7 -9.0 Q-9.75 -8.85 -9.4 -8.5 -9.35 -8.45 -9.35 -8.35 L-9.35 -8.25 -9.4 -8.1 -9.45 -8.1 -9.55 -8.05 -9.55 -8.0 -9.6 -8.0 -9.05 -7.9 -9.0 -7.95 -8.85 -8.0 -8.15 -7.9 -7.15 -7.8 -6.55 -7.85 -5.95 -7.85 -5.95 -7.95 Q-6.0 -8.0 -6.0 -8.1 -6.0 -8.15 -5.95 -8.25 L-5.9 -8.3 -5.85 -8.3 Q-5.8 -8.35 -5.7 -8.35 L-4.25 -8.35 -2.8 -8.3 -1.2 -8.2 -0.65 -8.1 Q1.6 -8.1 1.85 -7.85 L3.05 -7.85 Q3.9 -7.9 4.85 -8.05 L6.55 -8.45 6.6 -8.45 Q6.95 -8.55 7.6 -8.25 8.15 -8.0 8.5 -8.0 L9.6 -8.15 11.0 -8.3 M16.15 -7.7 L16.1 -7.7 16.0 -7.65 Q16.1 -7.65 16.15 -7.7 M16.05 -7.7 L16.1 -7.7 16.05 -7.75 16.05 -7.7 M15.95 -7.65 L16.0 -7.65 15.95 -7.7 15.95 -7.65 M38.45 -4.55 L38.45 -4.55 M49.85 -3.7 Q49.85 -3.45 49.8 -3.35 49.75 -3.3 49.7 -3.25 L49.55 -3.25 Q49.4 -3.3 49.05 -3.5 L48.8 -3.7 47.8 -3.75 47.7 -3.75 47.65 -3.8 47.6 -3.8 47.6 -3.85 Q47.45 -3.9 47.4 -4.0 47.35 -4.1 47.4 -4.15 47.4 -4.25 47.45 -4.25 L47.45 -4.3 47.55 -4.5 Q47.65 -4.85 47.7 -4.9 L47.8 -4.95 48.5 -4.95 48.6 -4.9 Q49.4 -4.35 49.8 -3.85 L49.85 -3.7 M-35.45 -9.4 L-35.3 -9.45 Q-34.4 -9.35 -34.0 -9.05 -33.6 -8.75 -33.6 -8.4 L-33.6 -8.2 -33.65 -8.1 -33.65 -8.05 -33.7 -8.0 Q-33.8 -7.85 -34.1 -7.95 L-34.25 -8.05 -34.55 -8.0 Q-34.6 -7.85 -34.7 -7.6 L-34.7 -7.55 Q-34.9 -7.2 -35.15 -7.15 L-35.15 -7.1 -35.25 -7.1 -35.8 -7.15 Q-35.85 -7.15 -35.9 -7.2 -36.5 -7.65 -36.6 -7.9 -36.7 -8.0 -36.7 -8.5 -36.7 -8.8 -36.65 -9.0 L-36.65 -8.95 -36.55 -9.1 -36.4 -9.15 -36.3 -9.1 -36.05 -8.85 Q-35.65 -9.35 -35.45 -9.4 M-31.9 -7.35 L-31.85 -7.35 -31.4 -7.4 -31.35 -7.4 -31.2 -7.45 Q-30.75 -7.4 -30.75 -7.2 -30.75 -7.15 -30.75 -7.05 L-30.8 -6.95 Q-30.65 -6.85 -30.6 -6.8 L-30.55 -6.7 -30.55 -6.65 -30.6 -6.55 Q-30.7 -6.4 -30.85 -6.3 L-30.95 -6.25 -31.25 -6.25 -31.6 -6.3 -31.7 -6.35 -31.75 -6.4 Q-31.8 -6.5 -31.8 -6.65 -31.95 -6.6 -32.05 -6.65 -32.2 -6.7 -32.2 -6.85 L-32.2 -6.95 -32.15 -7.0 -32.1 -7.1 Q-32.0 -7.3 -31.9 -7.35 M-27.6 -6.5 L-27.55 -6.5 -27.55 -6.55 -27.6 -6.5 M-39.8 1.25 L-39.85 1.25 -39.8 1.0 Q-39.8 1.05 -39.8 1.1 L-39.8 1.25" fill="#cdffb4" fill-opacity="0.5019608" fill-rule="evenodd" stroke="none"/>
    <path d="M11.05 -8.1 L11.8 -8.25 12.55 -8.35 13.45 -8.35 14.25 -8.25 15.55 -8.2 15.9 -8.15 16.0 -8.15 Q16.05 -8.15 16.05 -8.0 L16.05 -7.85 15.95 -7.85 15.95 -7.95 15.9 -7.9 Q15.9 -7.85 15.75 -7.7 15.8 -7.7 15.95 -7.5 16.3 -7.4 17.1 -7.5 L18.85 -7.4 Q18.95 -7.3 18.8 -7.15 L19.5 -7.0 Q19.6 -6.95 19.65 -6.9 L19.4 -6.85 19.3 -6.85 19.5 -6.75 19.8 -6.75 20.15 -6.8 20.25 -6.8 20.25 -6.85 20.35 -7.0 Q22.15 -6.9 22.75 -7.25 23.5 -7.65 25.1 -7.75 L25.1 -7.8 Q25.9 -7.8 25.95 -7.7 L25.9 -7.65 Q25.7 -7.55 25.65 -7.55 L25.45 -7.5 25.55 -7.45 Q26.4 -7.4 26.45 -7.3 L26.25 -7.3 25.95 -7.25 27.1 -7.3 Q27.15 -7.4 27.45 -7.7 L28.15 -7.8 30.15 -7.95 30.15 -8.0 Q30.9 -7.95 30.9 -7.9 30.85 -7.8 30.55 -7.65 L30.4 -7.6 30.35 -7.45 30.4 -7.35 30.7 -7.3 30.75 -7.25 31.75 -7.3 Q32.1 -7.35 32.15 -7.4 L33.7 -7.5 34.25 -7.6 34.55 -7.7 35.45 -7.75 35.9 -7.8 38.55 -7.6 Q38.2 -7.45 37.95 -7.3 L37.85 -7.3 Q38.0 -7.2 38.55 -6.95 L38.6 -6.9 39.0 -6.85 40.7 -6.9 41.55 -6.9 41.7 -6.8 Q41.75 -6.75 41.95 -6.75 L42.35 -6.1 42.65 -6.05 42.7 -6.0 43.7 -6.0 44.15 -5.9 44.55 -5.85 45.55 -5.8 Q45.65 -5.6 45.6 -5.4 L45.6 -5.1 Q45.65 -5.05 45.85 -4.9 L45.85 -4.85 45.9 -4.85 46.2 -4.8 46.5 -4.7 46.7 -4.5 46.65 -4.4 46.45 -4.4 Q46.35 -4.45 46.3 -4.45 L46.25 -4.45 46.25 -4.3 46.1 -4.35 45.5 -4.5 44.65 -4.5 Q44.55 -4.4 44.5 -4.4 L44.15 -4.45 43.85 -4.5 42.45 -4.55 41.45 -4.55 41.15 -4.65 40.55 -4.8 40.15 -4.7 39.6 -4.65 38.6 -4.7 38.55 -4.75 Q38.55 -4.8 38.55 -4.9 L38.55 -5.05 38.5 -5.15 38.35 -5.35 37.8 -5.35 36.05 -5.25 35.6 -5.35 Q35.35 -5.4 35.3 -5.4 L34.95 -5.45 34.55 -5.5 Q34.1 -5.45 33.55 -5.25 33.15 -5.1 32.9 -4.95 L32.05 -4.95 31.2 -5.0 30.55 -5.1 Q30.25 -5.15 30.25 -5.2 L29.35 -5.25 29.1 -5.35 28.95 -5.4 28.95 -5.5 29.85 -5.6 30.75 -5.8 30.85 -5.85 30.15 -6.0 30.05 -6.0 29.95 -5.9 28.95 -6.0 28.15 -6.15 27.7 -5.7 Q27.4 -5.4 27.2 -5.4 L26.5 -5.45 25.95 -5.5 Q25.25 -5.65 24.85 -5.85 24.45 -6.05 24.2 -6.2 24.25 -6.25 25.2 -6.35 L25.45 -6.4 25.4 -6.5 24.3 -6.5 23.4 -6.45 Q23.15 -6.4 23.0 -6.25 22.8 -6.1 22.65 -6.1 L21.8 -6.1 21.15 -6.15 19.95 -6.2 19.7 -6.3 19.35 -6.25 19.4 -6.15 19.6 -5.95 19.5 -5.75 18.55 -5.75 Q18.35 -5.85 17.6 -6.0 L16.6 -6.15 Q16.1 -6.2 15.75 -6.35 L15.55 -6.45 15.15 -6.45 14.45 -6.3 Q13.9 -6.15 13.25 -6.2 13.05 -6.25 12.45 -6.05 L11.9 -5.9 Q11.65 -5.9 10.45 -6.2 L8.9 -6.5 8.85 -6.55 8.7 -6.55 8.35 -6.45 7.85 -5.85 6.05 -5.85 4.0 -5.9 3.75 -5.95 3.7 -6.05 Q3.8 -6.2 3.9 -6.3 L3.2 -6.35 Q2.9 -6.4 2.85 -6.45 L2.5 -6.45 Q2.3 -6.25 2.35 -6.15 2.4 -6.05 2.15 -5.9 L1.35 -5.85 0.2 -5.75 -0.2 -5.65 -0.65 -5.6 -1.4 -5.7 Q-1.95 -5.75 -2.0 -5.8 L-3.75 -5.8 -4.4 -5.7 -4.25 -5.65 -4.05 -5.6 -4.1 -5.55 -4.25 -5.6 Q-4.45 -5.6 -4.5 -5.65 L-4.55 -5.65 -4.65 -5.6 -4.7 -5.6 -4.7 -5.65 -5.8 -5.55 -6.5 -5.45 -8.0 -5.35 Q-8.2 -5.35 -9.05 -5.75 -9.9 -6.1 -10.15 -6.1 L-11.85 -6.05 -11.95 -6.0 -11.95 -5.95 Q-11.9 -5.9 -12.0 -5.85 L-12.05 -5.9 -12.0 -5.95 -12.15 -5.9 Q-12.65 -5.65 -13.15 -5.55 L-16.0 -4.85 -18.4 -5.0 -18.45 -5.0 -18.45 -4.95 -20.1 -4.95 Q-20.35 -5.0 -20.4 -5.05 L-20.35 -5.1 -19.75 -5.2 -19.1 -5.35 -18.9 -5.45 -19.1 -5.55 -19.4 -5.6 -19.85 -5.6 -20.45 -5.5 -21.0 -5.45 -22.1 -5.15 -22.95 -4.95 -23.65 -5.0 -24.75 -5.1 -25.0 -5.05 Q-26.8 -4.7 -28.3 -4.7 -29.6 -4.7 -30.0 -5.05 -30.25 -5.2 -30.2 -5.4 -30.2 -5.9 -28.9 -6.35 L-27.25 -6.85 -27.0 -6.8 -26.8 -6.75 -26.7 -6.8 -26.25 -6.75 -24.2 -6.9 -24.05 -6.9 Q-23.8 -7.15 -23.35 -7.3 -22.8 -7.45 -20.55 -7.8 -20.45 -7.85 -19.0 -8.3 -17.75 -8.7 -16.1 -8.85 L-16.1 -8.9 -11.6 -8.9 -10.7 -8.8 Q-9.85 -8.65 -9.55 -8.35 L-9.55 -8.3 -9.6 -8.25 -9.75 -8.2 -9.9 -8.1 -10.05 -8.05 -10.3 -8.0 -9.7 -7.8 -9.0 -7.7 -8.85 -7.8 -8.2 -7.7 -7.2 -7.6 -6.55 -7.6 -5.8 -7.7 -5.35 -7.7 -4.85 -7.8 -4.7 -7.8 -4.9 -7.9 -5.55 -7.9 -5.75 -7.95 -5.75 -8.0 -5.8 -8.1 -5.75 -8.1 -5.7 -8.15 -4.25 -8.15 -2.8 -8.1 -1.2 -8.0 Q-0.75 -7.95 -0.7 -7.9 L1.65 -7.8 1.3 -7.75 1.0 -7.75 1.35 -7.65 3.05 -7.65 Q3.9 -7.65 4.9 -7.85 L6.65 -8.25 Q6.95 -8.3 7.5 -8.05 8.1 -7.8 8.5 -7.8 L9.6 -7.9 11.05 -8.1 M-36.45 -8.5 L-36.45 -8.9 -36.2 -8.7 -36.05 -8.5 Q-35.55 -9.1 -35.35 -9.25 -34.5 -9.15 -34.1 -8.85 -33.8 -8.65 -33.8 -8.4 L-33.8 -8.2 -33.85 -8.15 -34.0 -8.15 -34.2 -8.25 -34.75 -8.25 -34.75 -8.1 Q-34.75 -7.95 -34.9 -7.7 -35.05 -7.4 -35.25 -7.3 L-35.75 -7.35 Q-36.35 -7.85 -36.45 -8.0 -36.45 -8.1 -36.45 -8.5 M-31.25 -7.2 L-31.25 -7.25 Q-31.0 -7.2 -30.95 -7.15 -31.0 -7.0 -31.15 -6.9 L-30.95 -6.8 -30.75 -6.65 Q-30.85 -6.55 -30.95 -6.5 L-31.55 -6.5 -31.6 -6.9 -31.85 -6.85 Q-31.95 -6.85 -32.0 -6.9 L-31.9 -7.0 -31.8 -7.15 -31.25 -7.2 M-31.3 -6.7 L-31.4 -6.9 -31.45 -6.8 -31.45 -6.65 -31.3 -6.7 M-4.7 -8.0 L-4.8 -8.0 -4.7 -7.9 -4.7 -8.0 M-16.75 -5.05 L-16.75 -5.1 Q-16.8 -5.1 -16.85 -5.05 L-16.75 -5.05 M-27.6 -6.5 L-27.55 -6.5 -27.55 -6.55 -27.6 -6.5 M-40.65 0.4 L-40.4 0.55 Q-40.55 0.65 -40.65 0.7 -40.65 0.55 -40.65 0.4" fill="#ffffff" fill-opacity="0.6" fill-rule="evenodd" stroke="none"/>
  </g>
</svg>
