<?xml version="1.0" encoding="UTF-8" standalone="no"?>
<svg xmlns:ffdec="https://www.free-decompiler.com/flash" xmlns:xlink="http://www.w3.org/1999/xlink" ffdec:objectType="shape" height="3.1px" width="7.45px" xmlns="http://www.w3.org/2000/svg">
  <g transform="matrix(1.0, 0.0, 0.0, 1.0, 8.0, 1.7)">
    <path d="M-0.55 0.35 Q-0.55 0.4 -0.55 0.55 -0.55 0.6 -0.65 0.7 -0.8 0.8 -1.1 0.8 -1.35 0.8 -1.45 0.7 -1.55 0.65 -1.55 0.5 L-1.4 0.4 -1.3 0.3 Q-1.3 0.25 -1.2 0.25 L-1.05 0.25 Q-0.95 0.2 -0.75 0.2 -0.6 0.3 -0.55 0.35 M-2.9 -1.7 Q-2.75 -1.7 -2.6 -1.55 -2.5 -1.4 -2.5 -1.3 L-2.65 -1.25 -2.95 -1.45 Q-3.05 -1.5 -3.05 -1.6 L-3.05 -1.65 -3.0 -1.7 -2.9 -1.7 M-7.35 -1.6 Q-7.3 -1.6 -7.25 -1.65 -7.15 -1.7 -7.0 -1.65 L-6.9 -1.65 Q-6.85 -1.55 -6.75 -1.45 L-6.45 -1.3 -6.15 -0.9 -6.1 -0.9 Q-6.0 -0.85 -5.95 -0.8 L-5.95 -0.5 Q-6.0 -0.45 -6.1 -0.4 L-6.2 -0.4 -6.25 -0.5 -6.3 -0.65 -6.4 -0.55 Q-6.5 -0.5 -6.75 -0.5 L-6.75 -0.55 Q-6.75 -0.95 -7.1 -1.0 -7.25 -1.0 -7.35 -0.9 -7.45 -0.8 -7.45 -0.7 -7.45 -0.55 -7.4 -0.4 -7.3 -0.2 -7.1 -0.2 L-7.05 -0.2 -6.85 -0.05 Q-6.5 0.2 -5.95 0.25 L-5.95 0.3 Q-5.95 0.4 -5.95 0.35 L-6.3 0.35 -6.3 0.4 -6.2 0.4 -5.85 0.5 -5.7 0.5 Q-5.6 0.6 -5.2 0.6 L-4.7 0.65 -4.25 0.6 -4.25 0.7 Q-4.35 0.75 -4.55 0.85 L-4.5 0.85 -4.45 0.9 -4.05 0.95 -3.45 1.0 -3.05 1.0 Q-3.0 1.0 -3.0 1.05 L-3.1 1.15 -3.5 1.2 Q-4.05 1.2 -4.55 1.4 L-4.8 1.4 Q-5.85 1.3 -6.0 1.2 L-6.15 0.95 Q-6.25 0.85 -6.45 0.85 L-6.75 0.9 -6.9 0.95 -7.1 1.0 Q-7.25 1.0 -7.35 0.9 -7.45 0.8 -7.45 0.7 L-7.4 0.5 Q-7.35 0.4 -7.35 0.25 -7.35 -0.05 -7.65 -0.3 -8.0 -0.6 -8.0 -0.8 -8.0 -1.0 -7.7 -1.15 -7.4 -1.3 -7.35 -1.6" fill="#c9e9f6" fill-opacity="0.8" fill-rule="evenodd" stroke="none"/>
  </g>
</svg>
