<?xml version="1.0" encoding="UTF-8" standalone="no"?>
<svg xmlns:ffdec="https://www.free-decompiler.com/flash" xmlns:xlink="http://www.w3.org/1999/xlink" ffdec:objectType="shape" height="2.05px" width="2.75px" xmlns="http://www.w3.org/2000/svg">
  <g transform="matrix(1.0, 0.0, 0.0, 1.0, 6.6, 0.65)">
    <path d="M-4.85 -0.15 L-4.85 -0.1 -4.75 -0.1 -4.85 -0.15 M-6.0 -0.65 Q-5.85 -0.65 -5.85 -0.6 -5.85 -0.55 -5.9 -0.5 -5.95 -0.5 -5.95 -0.45 -5.95 -0.35 -5.75 -0.3 -5.55 -0.2 -5.25 -0.2 L-5.2 -0.2 -4.75 -0.15 -4.7 -0.1 -4.7 -0.05 -5.1 -0.05 Q-5.6 -0.05 -5.75 0.05 L-5.85 0.2 -5.85 0.25 Q-5.9 0.3 -5.95 0.3 -6.4 0.25 -6.4 0.05 L-6.3 -0.1 -6.4 -0.3 -6.35 -0.35 Q-6.25 -0.35 -6.25 -0.4 L-6.25 -0.5 -6.2 -0.6 Q-6.15 -0.65 -6.0 -0.65 M-4.2 1.3 Q-4.1 1.2 -3.95 1.2 -3.9 1.2 -3.85 1.25 L-4.2 1.3 M-4.65 0.95 L-4.6 0.95 -4.5 0.9 -4.65 0.95 M-5.2 0.4 L-5.2 0.45 Q-5.25 0.45 -5.3 0.5 L-5.65 0.5 -5.85 0.55 -5.95 0.65 -6.0 0.6 -6.1 0.6 Q-6.05 0.65 -6.05 0.7 L-6.05 0.75 -6.1 0.8 -6.05 0.8 Q-5.9 0.9 -5.7 0.9 L-5.65 0.95 -5.7 1.0 -5.75 1.0 -6.0 0.95 -6.05 0.95 -6.15 1.0 -6.15 0.95 -6.1 0.95 -6.25 0.9 -6.3 0.85 -6.3 0.75 -6.25 0.7 -6.5 0.7 Q-6.6 0.65 -6.6 0.55 L-6.5 0.45 Q-6.4 0.4 -6.25 0.4 L-6.15 0.45 -6.1 0.5 -5.45 0.35 Q-5.45 0.4 -5.4 0.4 L-5.3 0.4 -5.25 0.45 -5.25 0.4 -5.2 0.4 M-4.2 1.1 L-4.15 1.15 Q-4.15 1.2 -4.25 1.3 L-4.45 1.4 -4.3 1.25 -4.3 1.1 -4.35 1.1 -4.4 1.05 -4.45 1.05 -4.5 1.0 -5.35 1.0 -5.35 0.9 -5.15 0.95 -4.85 0.95 -4.75 0.9 -4.75 0.95 -4.65 0.85 Q-4.55 0.8 -4.5 0.8 L-4.35 0.85 Q-4.25 0.9 -4.2 1.0 L-4.2 1.1" fill="#c9e9f6" fill-opacity="0.8" fill-rule="evenodd" stroke="none"/>
  </g>
</svg>
