<?xml version="1.0" encoding="UTF-8" standalone="no"?>
<svg xmlns:ffdec="https://www.free-decompiler.com/flash" xmlns:xlink="http://www.w3.org/1999/xlink" ffdec:objectType="shape" height="3.05px" width="7.75px" xmlns="http://www.w3.org/2000/svg">
  <g transform="matrix(1.0, 0.0, 0.0, 1.0, 8.35, 1.6)">
    <path d="M-1.2 0.7 L-1.2 0.7 M-0.8 0.5 Q-0.6 0.5 -0.6 0.6 -0.6 0.7 -0.7 0.8 -0.8 0.9 -1.1 0.9 L-1.4 0.8 -1.45 0.7 -1.4 0.65 -1.4 0.6 -0.8 0.5 M-2.7 -1.5 Q-2.65 -1.4 -2.65 -1.3 L-2.65 -1.25 -2.7 -1.2 -2.8 -1.2 Q-2.85 -1.2 -2.95 -1.3 -3.1 -1.45 -3.1 -1.5 L-3.05 -1.6 Q-2.85 -1.65 -2.7 -1.5 M-7.4 -1.6 L-7.15 -1.35 -6.9 -1.35 -6.75 -1.3 -6.6 -1.05 Q-6.55 -1.0 -6.45 -0.95 -6.3 -0.9 -6.25 -0.85 -6.4 -0.8 -6.45 -0.75 -6.6 -0.7 -6.8 -0.7 -6.85 -0.7 -6.95 -0.8 -7.0 -0.85 -7.25 -0.85 -7.3 -0.85 -7.5 -0.75 -7.65 -0.65 -7.65 -0.55 -7.65 -0.35 -7.2 0.15 -6.75 0.65 -6.4 0.6 L-6.25 0.55 -6.1 0.6 Q-6.1 0.65 -6.15 0.75 L-5.9 0.9 Q-5.7 0.95 -5.25 1.0 L-4.6 1.1 -4.05 1.2 -4.05 1.3 -4.1 1.35 -4.4 1.45 -5.25 1.45 -6.25 1.25 Q-6.45 1.2 -6.45 1.05 L-6.35 0.95 -6.55 0.9 Q-6.65 0.9 -6.8 1.0 -6.95 1.1 -7.1 1.1 -7.7 1.1 -7.7 0.65 -7.7 0.55 -7.6 0.5 L-7.4 0.4 Q-7.4 0.25 -7.55 0.1 -7.65 0.05 -7.9 -0.1 -8.35 -0.35 -8.35 -0.7 -8.35 -0.85 -8.35 -0.9 -8.25 -1.05 -8.0 -1.15 L-7.8 -1.4 Q-7.7 -1.55 -7.4 -1.6" fill="#c9e9f6" fill-opacity="0.69803923" fill-rule="evenodd" stroke="none"/>
  </g>
</svg>
