<?xml version="1.0" encoding="UTF-8" standalone="no"?>
<svg xmlns:ffdec="https://www.free-decompiler.com/flash" xmlns:xlink="http://www.w3.org/1999/xlink" ffdec:objectType="shape" height="2.7px" width="3.9px" xmlns="http://www.w3.org/2000/svg">
  <g transform="matrix(1.0, 0.0, 0.0, 1.0, 7.15, 0.7)">
    <path d="M-6.05 0.45 L-6.05 0.5 -6.0 0.55 -6.05 0.55 -6.4 0.5 Q-6.5 0.5 -6.55 0.45 -6.75 0.4 -6.8 0.35 L-6.85 0.35 -6.9 0.4 -6.85 0.5 Q-6.75 0.55 -6.75 0.6 L-6.8 0.7 -6.85 0.75 -6.85 0.8 -6.5 0.9 -6.4 1.0 -6.0 1.0 -5.95 1.05 -6.05 1.15 Q-6.2 1.25 -6.35 1.25 -6.6 1.25 -6.6 1.2 L-6.7 1.05 -6.95 0.95 Q-7.1 0.9 -7.1 0.8 L-7.0 0.6 -7.1 0.5 Q-7.15 0.45 -7.15 0.4 -7.15 0.3 -7.05 0.2 -6.9 0.05 -6.75 0.15 L-6.55 0.35 Q-6.45 0.45 -6.05 0.45 M-3.55 1.85 Q-3.35 1.85 -3.25 1.9 L-3.3 1.95 -3.55 2.0 -3.75 2.0 Q-4.1 2.0 -4.25 1.9 L-4.4 1.75 -4.55 1.75 -4.55 1.8 -4.9 1.8 Q-5.05 1.7 -5.05 1.6 -5.05 1.5 -4.85 1.4 L-4.5 1.3 -4.6 1.2 -4.65 1.1 -4.65 1.0 -4.55 0.95 -4.5 0.95 Q-4.45 0.95 -4.4 1.0 L-4.4 1.05 -4.35 1.2 Q-4.35 1.25 -4.35 1.3 L-4.4 1.3 -4.45 1.35 Q-4.5 1.45 -4.7 1.45 L-4.8 1.55 -4.75 1.65 -4.6 1.65 -4.5 1.6 Q-4.45 1.55 -4.45 1.5 L-4.4 1.45 -4.25 1.45 Q-4.1 1.45 -4.1 1.5 L-4.1 1.55 Q-4.1 1.65 -4.05 1.7 L-3.85 1.8 -3.55 1.85 M-6.8 -0.5 Q-6.8 -0.55 -6.75 -0.6 -6.65 -0.7 -6.5 -0.7 -6.35 -0.55 -6.35 -0.45 -6.35 -0.35 -6.25 -0.25 -6.15 -0.1 -6.0 -0.1 L-5.85 -0.1 -5.8 -0.2 -5.6 -0.2 -5.5 -0.15 -5.4 0.0 -5.55 0.0 -5.65 -0.05 Q-5.8 -0.05 -5.9 0.05 L-5.95 0.05 Q-6.0 0.1 -6.1 0.15 L-6.3 0.15 Q-6.5 0.15 -6.55 0.05 L-6.55 -0.15 Q-6.6 -0.2 -6.75 -0.3 -6.8 -0.35 -6.8 -0.45 L-6.8 -0.5" fill="#c9e9f6" fill-opacity="0.8" fill-rule="evenodd" stroke="none"/>
  </g>
</svg>
