<?xml version="1.0" encoding="UTF-8" standalone="no"?>
<svg xmlns:ffdec="https://www.free-decompiler.com/flash" xmlns:xlink="http://www.w3.org/1999/xlink" ffdec:objectType="shape" height="2.5px" width="5.2px" xmlns="http://www.w3.org/2000/svg">
  <g transform="matrix(1.0, 0.0, 0.0, 1.0, 7.6, 0.15)">
    <path d="M-6.05 -0.15 L-6.0 -0.05 Q-6.0 0.15 -5.95 0.3 L-6.25 0.35 -6.4 0.45 Q-6.45 0.5 -6.45 0.55 L-6.75 0.6 -6.95 0.6 Q-7.05 0.6 -7.05 0.45 -7.05 0.3 -6.75 0.15 -6.7 0.15 -6.7 0.2 L-6.65 0.25 -6.55 0.25 Q-6.45 0.2 -6.4 0.0 -6.35 -0.15 -6.2 -0.15 L-6.05 -0.15 M-3.75 1.55 L-3.75 1.65 Q-3.75 1.7 -3.75 1.9 L-3.85 2.1 -3.65 2.1 Q-3.4 2.1 -3.05 2.0 L-2.65 1.85 -2.4 1.9 -2.45 1.9 Q-2.8 2.0 -3.05 2.1 -3.4 2.3 -3.75 2.35 L-4.15 2.35 Q-4.2 2.35 -4.2 2.25 L-4.15 2.2 Q-4.15 2.15 -4.0 2.1 -4.1 2.1 -4.15 2.0 -4.25 1.95 -4.4 1.9 L-5.35 1.9 -5.65 1.95 -5.65 2.0 -5.8 2.0 -5.85 1.95 -5.9 1.95 -5.9 1.75 -5.85 1.75 -5.6 1.6 Q-5.5 1.6 -5.45 1.65 L-5.6 1.8 -5.5 1.85 -5.2 1.8 -4.35 1.7 -4.3 1.6 -4.15 1.5 -4.0 1.45 -3.9 1.45 Q-3.8 1.45 -3.75 1.55 M-3.95 1.6 L-3.95 1.6 M-4.2 1.85 L-4.25 1.85 -4.05 1.9 -4.15 1.85 -4.2 1.85 M-3.85 1.9 L-3.95 1.95 -3.9 2.0 -3.85 1.95 -3.85 1.9 M-4.0 2.2 L-4.05 2.25 -4.0 2.25 -4.0 2.2 M-6.05 0.8 L-6.0 0.8 -6.05 0.85 -6.05 0.9 -6.0 0.9 -5.9 0.95 Q-6.0 1.0 -6.2 1.05 L-6.6 1.15 -7.0 1.35 -7.05 1.35 -6.75 1.4 -6.75 1.45 Q-6.75 1.3 -6.65 1.25 -6.55 1.15 -6.4 1.35 -6.3 1.45 -6.35 1.6 L-6.4 1.8 -6.25 1.8 Q-6.2 1.8 -6.2 1.85 -6.2 1.95 -6.25 1.9 L-6.4 1.9 -6.15 1.95 -6.2 2.0 -6.55 1.9 -6.65 1.9 -6.85 1.85 -6.9 1.7 -6.65 1.6 -6.7 1.55 -6.7 1.5 -7.45 1.45 Q-7.5 1.35 -7.55 1.25 -7.6 1.15 -7.6 1.05 L-7.6 1.0 -7.5 0.9 -7.4 0.85 Q-7.3 0.85 -7.25 0.9 -7.25 1.0 -7.25 1.1 L-7.1 1.15 -6.35 0.9 -6.35 0.85 -6.4 0.7 -6.4 0.65 -6.15 0.65 -6.05 0.8 M-7.45 1.0 L-7.55 1.1 -7.3 1.0 -7.3 0.95 -7.45 1.0 M-6.7 1.7 L-6.8 1.75 -6.75 1.8 -6.7 1.7" fill="#c9e9f6" fill-opacity="0.8" fill-rule="evenodd" stroke="none"/>
  </g>
</svg>
