<?xml version="1.0" encoding="UTF-8" standalone="no"?>
<svg xmlns:ffdec="https://www.free-decompiler.com/flash" xmlns:xlink="http://www.w3.org/1999/xlink" ffdec:objectType="shape" height="2.7px" width="9.15px" xmlns="http://www.w3.org/2000/svg">
  <g transform="matrix(1.0, 0.0, 0.0, 1.0, 10.95, 0.35)">
    <path d="M-3.85 1.75 L-4.0 2.0 Q-4.15 2.1 -4.2 2.2 L-4.25 2.25 -4.1 2.25 -3.65 2.15 Q-3.3 2.05 -3.15 2.05 L-2.75 1.95 -2.45 1.9 Q-2.8 2.0 -3.05 2.1 L-3.05 2.15 -3.2 2.15 -3.55 2.25 -4.05 2.3 -4.1 2.35 -4.15 2.35 -4.3 2.3 -4.4 2.3 -4.45 2.25 -4.4 2.2 -4.35 1.8 -4.35 1.7 -3.85 1.75 M-6.05 1.8 L-7.8 1.1 -7.75 1.05 -7.7 1.05 -7.3 1.1 Q-7.3 1.2 -7.2 1.2 L-6.75 1.15 -6.4 1.2 -6.55 1.4 -6.05 1.8 M-4.35 2.25 L-4.35 2.2 -4.4 2.25 -4.35 2.25" fill="#ebf7fc" fill-rule="evenodd" stroke="none"/>
    <path d="M-9.7 -0.2 Q-9.5 -0.25 -9.4 -0.35 L-9.1 -0.25 Q-9.15 -0.15 -9.2 0.15 L-9.15 0.15 Q-8.85 0.15 -8.65 0.3 -8.5 0.45 -8.5 0.55 L-8.5 0.6 -8.65 0.75 Q-8.55 0.9 -8.4 0.95 L-7.55 1.1 -7.25 1.1 -7.0 1.15 -6.8 1.15 -5.1 1.35 -4.9 1.4 -4.85 1.5 -4.7 1.65 -4.25 1.7 Q-4.05 1.75 -3.8 1.7 L-2.95 1.7 Q-2.85 1.6 -2.65 1.55 L-2.35 1.4 -2.1 1.25 -1.9 1.3 -1.85 1.35 Q-1.8 1.35 -1.8 1.45 -1.8 1.5 -2.0 1.7 L-2.15 1.85 -2.45 1.9 -2.7 1.95 -3.1 2.05 -3.75 2.15 -4.35 2.25 -5.75 2.25 -5.55 2.3 -5.9 2.3 -6.85 2.25 Q-7.45 2.25 -7.8 2.15 L-8.6 2.15 -9.1 2.2 -9.6 2.15 Q-9.7 2.1 -9.7 2.0 -9.7 1.85 -9.8 1.8 -10.1 1.5 -10.4 1.45 -10.7 1.35 -10.85 1.1 -10.95 0.9 -10.95 0.75 -10.95 0.15 -10.25 -0.05 L-9.7 -0.2" fill="#ebf7fc" fill-rule="evenodd" stroke="none"/>
  </g>
</svg>
