<?xml version="1.0" encoding="UTF-8" standalone="no"?>
<svg xmlns:ffdec="https://www.free-decompiler.com/flash" xmlns:xlink="http://www.w3.org/1999/xlink" ffdec:objectType="shape" height="3.9px" width="11.85px" xmlns="http://www.w3.org/2000/svg">
  <g transform="matrix(1.0, 0.0, 0.0, 1.0, 9.45, 2.05)">
    <path d="M-5.75 -0.1 L-5.55 0.1 -5.3 0.15 -5.15 0.15 Q-5.0 0.0 -5.0 -0.1 L-4.95 -0.25 -4.7 -0.25 -4.65 -0.1 -4.6 0.0 -4.55 0.0 -4.7 0.2 Q-4.8 0.15 -4.85 0.1 -4.9 0.05 -4.95 0.05 L-5.15 0.2 -5.25 0.2 -5.35 0.25 Q-5.65 0.25 -5.7 0.15 L-5.75 0.15 -5.75 0.35 -5.85 0.45 -5.8 0.55 Q-5.6 0.65 -5.6 0.7 L-1.35 0.9 Q-1.4 1.05 -1.4 1.2 L-1.4 1.2 -1.4 1.3 -1.65 1.35 Q-1.75 1.4 -2.0 1.45 L-2.0 1.55 Q-1.7 1.65 -1.6 1.65 L-1.7 1.7 -1.95 1.7 Q-2.1 1.65 -2.15 1.65 L-2.15 1.6 -2.2 1.6 -2.25 1.5 -6.25 0.5 -5.9 -0.1 -5.75 -0.1 M-2.1 1.4 L-2.2 1.45 -2.2 1.55 Q-2.15 1.45 -2.1 1.45 L-2.1 1.4 M-2.1 1.6 L-2.1 1.6 M-5.5 0.15 L-5.5 0.15 M-5.75 0.1 L-5.75 0.1" fill="#ebf7fc" fill-rule="evenodd" stroke="none"/>
    <path d="M-7.9 -1.1 Q-7.45 -1.2 -7.25 -0.9 -7.2 -0.85 -7.15 -0.75 L-7.1 -0.5 Q-6.95 -0.35 -6.45 -0.35 -6.35 -0.4 -6.25 -0.45 -6.15 -0.55 -6.0 -0.65 L-5.85 -0.85 -5.65 -0.85 -5.55 -0.7 Q-5.5 -0.65 -5.5 -0.6 -5.5 -0.55 -5.7 -0.15 L-5.95 0.3 -5.9 0.4 Q-5.8 0.5 -5.75 0.65 -5.1 0.55 -4.8 0.25 -4.5 -0.15 -4.3 -0.25 -4.1 -0.25 -4.05 -0.1 L-3.95 0.15 -3.55 0.35 Q-3.35 0.45 -2.95 0.45 -2.55 0.45 -2.25 0.15 L-2.05 -0.2 -1.8 -0.45 -1.4 -0.5 -1.25 -0.45 Q-1.35 -0.25 -1.25 -0.05 L-1.25 0.4 Q-1.2 0.55 -1.2 0.75 -1.35 0.9 -1.4 1.1 L-1.65 1.35 Q-1.9 1.5 -2.75 1.5 L-3.25 1.5 -3.75 1.45 -4.8 1.45 Q-4.9 1.5 -4.9 1.6 -4.9 1.65 -5.0 1.7 -5.2 1.85 -5.55 1.85 L-6.0 1.8 -6.7 1.7 -6.95 1.6 -7.95 1.5 Q-8.35 1.45 -8.85 1.35 L-9.2 1.3 -9.35 1.1 Q-9.45 0.95 -9.45 0.85 -9.45 0.65 -9.15 0.5 -8.7 0.25 -8.5 0.05 L-8.55 -0.3 Q-8.55 -0.6 -8.5 -0.7 -8.3 -1.05 -7.9 -1.1 M-4.3 -2.0 Q-4.1 -1.95 -4.05 -1.8 -3.95 -1.65 -3.9 -1.55 L-3.45 -1.55 -3.35 -1.45 -3.35 -1.4 Q-3.35 -1.25 -3.45 -1.1 L-3.55 -1.05 Q-3.6 -1.0 -3.65 -1.0 -4.05 -1.0 -4.4 -1.3 -4.7 -1.55 -4.7 -1.8 -4.7 -2.1 -4.3 -2.0" fill="#ebf7fc" fill-rule="evenodd" stroke="none"/>
  </g>
</svg>
