<?xml version="1.0" encoding="UTF-8" standalone="no"?>
<svg xmlns:ffdec="https://www.free-decompiler.com/flash" xmlns:xlink="http://www.w3.org/1999/xlink" ffdec:objectType="shape" height="2.75px" width="6.6px" xmlns="http://www.w3.org/2000/svg">
  <g transform="matrix(1.0, 0.0, 0.0, 1.0, 11.15, 0.45)">
    <path d="M-10.05 -0.45 Q-9.65 -0.35 -9.3 -0.15 L-9.55 -0.05 Q-9.75 0.05 -9.8 0.15 L-9.75 0.25 -9.45 0.35 -9.3 0.5 Q-9.25 0.55 -9.25 0.6 L-9.3 0.8 -9.4 1.0 Q-9.3 1.1 -8.9 1.2 -8.55 1.35 -8.5 1.4 L-6.85 1.4 -6.5 1.45 Q-6.45 1.55 -6.5 1.65 L-5.9 1.75 -4.55 1.85 Q-4.75 2.0 -5.0 2.05 L-5.15 2.05 Q-5.65 2.15 -6.1 2.3 L-8.5 2.3 -8.65 2.25 -9.1 2.2 -10.05 2.0 -10.1 1.7 -10.1 1.45 Q-10.75 1.25 -10.95 1.1 -11.15 1.0 -11.15 0.75 -11.15 0.45 -11.0 0.15 -10.85 -0.2 -10.6 -0.3 -10.25 -0.45 -10.05 -0.45" fill="#c9e9f6" fill-opacity="0.69803923" fill-rule="evenodd" stroke="none"/>
  </g>
</svg>
