<?xml version="1.0" encoding="UTF-8" standalone="no"?>
<svg xmlns:ffdec="https://www.free-decompiler.com/flash" xmlns:xlink="http://www.w3.org/1999/xlink" ffdec:objectType="shape" height="6.5px" width="29.65px" xmlns="http://www.w3.org/2000/svg">
  <g transform="matrix(1.0, 0.0, 0.0, 1.0, 15.9, 2.9)">
    <path d="M4.2 -2.2 L4.2 -2.1 Q4.2 -2.05 4.1 -1.95 L3.95 -1.9 3.85 -1.9 3.75 -1.95 Q3.75 -2.05 4.0 -2.25 L4.15 -2.2 4.2 -2.2 M10.25 -1.95 Q10.2 -2.0 10.2 -2.05 10.2 -2.2 10.3 -2.25 L11.5 -2.35 Q11.65 -2.35 11.85 -2.65 12.15 -2.9 13.1 -2.65 13.45 -2.6 13.6 -2.35 13.75 -2.15 13.75 -1.95 13.75 -1.85 13.6 -1.6 L13.4 -1.3 13.4 -1.0 Q13.4 -0.8 13.2 -0.7 L13.1 -0.8 13.1 -0.9 13.05 -1.0 13.0 -1.4 Q12.95 -1.6 12.7 -1.8 12.45 -2.0 12.25 -2.0 L11.85 -2.0 11.4 -1.9 11.15 -1.9 10.75 -1.95 Q10.6 -1.95 10.45 -1.75 L10.25 -1.5 10.15 -1.5 Q10.1 -1.55 10.1 -1.6 10.1 -1.7 10.2 -1.75 L10.25 -1.85 10.25 -1.95 M12.4 -1.1 Q12.4 -1.05 12.3 -1.05 L12.2 -1.05 12.05 -1.1 12.0 -1.15 Q11.95 -1.15 11.95 -1.25 11.95 -1.5 12.05 -1.5 12.2 -1.6 12.4 -1.2 L12.4 -1.1 M12.8 -0.3 L12.8 -0.2 Q12.8 -0.1 12.55 0.15 12.3 0.4 12.3 0.5 12.3 0.65 12.45 0.75 12.65 0.9 13.15 1.0 13.2 1.1 13.2 1.3 13.2 1.8 12.55 2.0 11.9 2.15 11.85 2.55 L11.2 2.6 10.75 2.5 Q10.4 2.85 10.0 2.95 9.6 3.1 8.85 3.1 L7.9 3.05 7.75 3.0 Q7.7 3.05 7.7 2.95 L7.7 2.85 7.75 2.85 Q7.9 2.75 8.5 2.65 L9.5 2.4 9.55 2.2 9.55 2.05 10.35 2.1 10.7 2.05 Q11.0 2.0 11.15 1.95 L11.2 1.9 Q11.2 1.8 11.05 1.75 L10.9 1.7 Q11.0 1.55 11.5 1.45 12.05 1.3 12.15 1.15 12.1 1.1 12.0 0.95 L11.9 0.7 Q11.9 0.45 12.2 0.15 L12.7 -0.35 12.8 -0.3 M6.95 2.3 Q7.45 2.45 7.45 2.65 L7.45 2.8 Q7.4 2.9 7.25 2.9 6.5 2.9 6.5 2.5 6.5 2.1 6.95 2.3 M0.0 1.5 Q0.0 1.4 0.05 1.4 L0.1 1.3 0.4 1.3 0.7 1.35 Q0.85 1.4 1.05 1.5 1.2 1.6 1.3 1.7 L1.3 1.85 1.05 1.9 Q0.55 1.9 0.25 1.7 0.0 1.6 0.0 1.5 M-15.85 -0.2 L-15.8 -0.3 -15.7 -0.6 Q-15.55 -0.9 -15.35 -1.0 L-14.9 -1.05 -14.35 -1.0 Q-13.65 -0.95 -13.5 -1.6 -13.6 -1.95 -13.45 -2.35 -13.3 -2.85 -12.95 -2.9 -12.4 -2.85 -12.35 -2.6 -12.25 -2.15 -12.1 -2.05 L-12.05 -2.05 -11.95 -2.1 -11.95 -2.05 -11.9 -2.05 -11.7 -2.2 -11.65 -2.15 Q-11.8 -1.95 -11.9 -1.95 L-12.0 -1.95 Q-12.05 -1.85 -12.15 -1.75 L-12.8 -1.75 -13.05 -1.7 Q-13.3 -1.45 -13.3 -1.35 L-13.3 -1.0 Q-13.3 -0.75 -13.6 -0.55 -14.1 -0.2 -15.15 -0.25 L-15.35 0.0 -15.45 0.15 -15.35 0.35 Q-15.3 0.45 -15.3 0.5 L-15.3 0.55 -15.35 0.6 -15.6 0.6 -15.85 0.3 -15.9 0.0 -15.85 -0.2 M-6.7 -1.1 L-6.2 -0.9 Q-5.9 -0.75 -5.9 -0.5 -5.9 -0.45 -5.95 -0.4 L-6.05 -0.35 -6.25 -0.35 -6.55 -0.65 Q-6.75 -0.85 -6.75 -0.95 -6.75 -1.1 -6.7 -1.1 M-1.15 -1.95 Q-0.75 -1.85 -0.6 -1.8 L-0.75 -1.75 -1.05 -1.6 -1.2 -1.6 -1.35 -1.8 Q-1.3 -1.9 -1.15 -1.95 M-8.25 2.8 L-6.75 2.95 -6.7 2.95 -6.7 3.05 Q-6.7 3.15 -6.75 3.2 L-6.85 3.25 -7.4 3.35 -7.75 3.4 -8.25 3.35 -8.6 3.25 -10.1 3.35 -10.8 3.4 -11.75 3.3 Q-12.1 3.25 -12.4 3.4 L-12.55 3.4 -12.45 3.3 -12.65 3.35 -13.7 3.6 Q-14.45 3.55 -14.65 3.2 -14.75 3.0 -14.8 2.7 -14.9 2.65 -15.25 2.45 -15.6 2.3 -15.65 2.2 -15.75 2.1 -15.75 1.75 -15.75 1.55 -15.65 1.4 L-15.35 0.9 -15.2 0.45 Q-15.1 0.3 -15.0 0.25 L-14.9 0.05 Q-14.65 -0.3 -14.15 -0.15 L-14.0 0.0 Q-14.0 0.1 -14.2 0.25 -14.45 0.35 -14.45 0.55 -14.45 0.65 -14.35 0.75 L-14.25 0.9 -13.85 0.95 -13.55 1.0 Q-13.15 1.25 -13.1 1.6 -13.1 1.8 -13.1 2.15 -12.85 2.3 -12.35 2.4 -11.95 2.45 -11.75 2.6 -11.35 2.85 -11.2 2.9 L-10.35 2.95 -8.85 2.95 -8.55 2.9 -8.25 2.8 M-10.25 1.9 Q-10.1 2.0 -9.6 2.05 -9.55 2.05 -9.55 2.1 -9.5 2.1 -9.5 2.2 L-9.5 2.3 -9.7 2.4 -9.75 2.45 -9.9 2.45 -10.7 2.4 -10.8 2.3 Q-10.85 2.25 -10.85 2.15 -10.85 2.05 -10.7 1.95 -10.5 1.9 -10.25 1.9 M-9.9 2.25 L-9.8 2.2 Q-9.8 2.15 -9.95 2.15 L-10.0 2.25 -9.9 2.25 M-13.45 0.65 L-13.35 0.6 Q-13.3 0.6 -13.3 0.5 L-13.05 0.7 Q-13.1 0.8 -13.15 0.8 L-13.35 0.8 -13.4 0.75 -13.45 0.65" fill="#c9e9f6" fill-opacity="0.6" fill-rule="evenodd" stroke="none"/>
  </g>
</svg>
