<?xml version="1.0" encoding="UTF-8" standalone="no"?>
<svg xmlns:ffdec="https://www.free-decompiler.com/flash" xmlns:xlink="http://www.w3.org/1999/xlink" ffdec:objectType="shape" height="4.65px" width="22.55px" xmlns="http://www.w3.org/2000/svg">
  <g transform="matrix(1.0, 0.0, 0.0, 1.0, 11.35, 0.9)">
    <path d="M8.9 -0.05 L9.05 0.05 9.25 0.1 Q9.5 0.1 9.65 -0.15 9.8 -0.3 9.8 -0.5 9.8 -0.7 10.1 -0.9 10.4 -0.9 10.55 -0.75 10.65 -0.7 10.65 -0.6 L10.65 -0.45 Q10.65 -0.35 10.5 -0.25 10.3 -0.05 10.2 0.05 L10.2 0.3 Q10.1 0.5 9.75 0.5 L9.4 0.5 Q9.3 0.45 9.2 0.35 L9.1 0.3 Q8.9 0.2 8.7 0.2 L8.5 0.25 8.35 0.3 8.25 0.25 Q8.25 0.3 8.25 0.25 8.25 0.2 8.4 0.0 L8.55 -0.05 8.75 -0.1 Q8.8 -0.1 8.9 -0.05 M10.6 0.9 Q10.55 0.95 10.2 1.05 10.1 1.15 9.95 1.15 L9.35 1.2 9.3 1.2 9.4 1.15 9.35 1.05 Q10.0 1.05 10.25 0.9 L10.5 0.55 Q10.8 0.4 11.05 0.6 11.2 0.8 11.2 0.95 11.2 1.05 11.1 1.15 11.0 1.25 11.0 1.3 L11.1 1.6 Q11.1 1.8 10.85 1.9 10.55 2.0 10.5 2.0 L10.3 2.3 Q10.25 2.4 9.9 2.4 9.6 2.4 9.4 2.25 L9.15 2.05 9.2 1.95 9.65 2.0 9.95 1.95 10.15 1.8 10.65 1.65 10.7 1.6 10.7 1.55 Q10.7 1.5 10.6 1.45 10.55 1.35 10.55 1.3 10.55 1.2 10.65 1.1 L10.8 0.95 10.7 0.9 10.6 0.9 M6.95 2.1 L6.85 2.3 6.75 2.45 Q6.8 2.5 7.25 2.7 7.6 2.8 7.6 3.0 7.6 3.2 7.4 3.3 L6.5 3.3 6.25 3.5 Q6.0 3.7 5.4 3.7 L5.1 3.65 4.65 3.55 4.6 3.5 Q4.75 3.4 5.1 3.4 L5.6 3.35 Q5.6 3.3 5.75 3.25 L5.9 3.15 Q6.05 3.05 6.0 2.9 6.0 2.85 6.0 2.8 6.05 2.7 6.25 2.7 6.5 2.7 6.55 2.75 L6.65 2.85 Q6.6 2.9 6.7 2.95 L6.85 3.1 7.15 3.05 7.2 2.95 7.15 2.85 7.05 2.75 Q6.75 2.75 6.6 2.6 L6.55 2.5 6.45 2.45 6.4 2.35 6.5 2.1 6.55 2.0 Q6.6 1.9 6.7 1.9 L6.75 1.9 6.9 2.0 6.95 2.05 6.95 2.1 M1.1 3.65 L1.1 3.6 Q1.1 3.55 1.25 3.5 L1.6 3.55 Q1.65 3.55 1.85 3.65 L2.1 3.65 2.05 3.75 1.85 3.7 1.55 3.7 1.1 3.65 M-9.75 -0.5 Q-9.6 -0.55 -9.4 -0.4 -9.2 -0.25 -9.2 -0.2 L-9.2 -0.05 -9.25 0.1 -9.0 0.3 -8.25 0.35 -7.7 0.45 -7.65 0.5 -7.7 0.55 -7.65 0.55 Q-7.75 0.65 -8.1 0.75 L-8.25 0.8 -8.2 0.75 -8.45 0.8 -9.15 0.8 Q-9.7 0.8 -9.85 0.65 -9.95 0.6 -9.95 0.45 L-9.9 0.35 -9.8 0.1 -9.8 0.05 -9.85 0.05 -9.9 -0.1 -9.95 -0.1 -9.95 -0.25 -9.9 -0.35 -9.75 -0.5 M-5.75 3.55 L-6.55 3.55 -6.6 3.45 Q-6.65 3.4 -6.65 3.3 -6.65 3.25 -6.6 3.2 L-6.4 3.0 -6.65 3.05 -6.85 3.1 -7.25 3.1 -7.3 3.05 -7.7 3.05 -7.9 3.0 -8.0 2.95 -8.2 2.9 -8.2 2.85 -7.95 2.8 -7.8 2.8 -7.4 2.9 -7.05 3.0 -6.8 2.95 -6.75 2.95 -6.65 2.9 -6.5 2.8 Q-6.4 2.65 -6.05 2.65 L-6.0 2.75 Q-6.0 2.8 -6.0 2.85 L-6.0 2.9 -6.05 2.95 Q-6.1 3.0 -6.15 3.0 L-6.2 3.05 -6.25 3.15 -6.45 3.35 -6.35 3.4 -6.15 3.4 -6.15 3.45 -5.75 3.4 -5.35 3.4 -5.05 3.35 -4.9 3.4 Q-4.6 3.1 -4.35 2.95 L-4.4 2.95 -4.4 2.9 Q-4.35 2.75 -3.85 2.75 L-3.1 2.8 -3.05 2.8 -3.05 2.85 -3.65 2.85 Q-3.7 2.95 -4.25 3.05 L-4.4 3.15 -4.65 3.25 -4.75 3.4 -4.9 3.55 -4.95 3.55 -5.05 3.45 -5.15 3.45 -5.35 3.5 -5.75 3.55 M-4.2 2.85 L-4.2 2.85 M-7.85 2.9 L-7.85 2.9 M-6.8 3.0 L-6.8 3.0 M-6.4 2.95 L-6.25 2.8 -6.35 2.8 -6.45 2.95 -6.4 2.95 M-9.75 0.1 L-9.8 0.2 -9.8 0.25 -9.75 0.15 -9.75 0.1 M-9.65 1.75 L-9.3 1.65 -9.0 1.6 -8.9 1.6 -9.0 1.7 -9.3 1.85 -9.55 1.95 -9.85 2.0 -10.0 1.9 -10.3 1.85 -10.35 1.8 -10.5 1.75 -10.75 1.85 -10.95 2.0 -11.15 2.0 -11.35 1.85 -11.35 1.75 Q-11.35 1.65 -11.25 1.55 L-11.05 1.4 -10.85 1.2 Q-10.75 1.05 -10.5 1.05 -10.4 1.1 -10.4 1.2 L-10.45 1.4 -10.4 1.6 Q-10.35 1.6 -10.15 1.7 L-9.9 1.75 -9.65 1.75" fill="#c9e9f6" fill-opacity="0.8" fill-rule="evenodd" stroke="none"/>
  </g>
</svg>
