<?xml version="1.0" encoding="UTF-8" standalone="no"?>
<svg xmlns:ffdec="https://www.free-decompiler.com/flash" xmlns:xlink="http://www.w3.org/1999/xlink" ffdec:objectType="shape" height="10.45px" width="17.8px" xmlns="http://www.w3.org/2000/svg">
  <g transform="matrix(1.0, 0.0, 0.0, 1.0, 14.4, 13.35)">
    <path d="M0.25 -12.3 L0.25 -12.35 0.3 -12.35 0.35 -12.4 0.5 -12.4 0.65 -12.45 0.7 -12.4 0.75 -12.4 0.85 -12.3 0.85 -12.2 0.9 -12.15 0.95 -12.15 1.15 -11.95 1.35 -11.85 1.4 -11.85 1.45 -11.9 1.45 -12.0 1.5 -12.0 1.5 -12.05 1.55 -12.1 1.6 -12.1 1.65 -12.15 1.8 -12.15 1.9 -12.1 1.95 -12.1 1.95 -12.05 2.05 -12.05 2.2 -11.9 2.25 -11.9 2.35 -11.8 2.4 -11.8 2.4 -11.7 2.5 -11.65 2.55 -11.55 2.55 -11.35 2.6 -11.35 2.6 -11.3 2.8 -11.3 3.05 -11.25 3.1 -11.25 3.15 -11.2 3.15 -11.15 3.2 -11.15 3.2 -10.85 3.25 -10.85 3.25 -10.75 3.3 -10.7 3.3 -10.35 3.35 -10.3 3.35 -10.05 3.4 -10.0 3.4 -9.6 3.35 -9.6 3.35 -9.55 3.3 -9.55 3.3 -9.5 3.2 -9.5 3.2 -9.45 3.1 -9.45 3.05 -9.4 3.0 -9.4 3.0 -9.35 2.75 -9.35 2.75 -9.4 2.65 -9.4 2.65 -9.45 2.6 -9.45 2.6 -9.5 2.55 -9.5 2.5 -9.55 2.5 -9.6 2.45 -9.6 2.4 -9.65 2.3 -9.65 2.25 -9.7 2.2 -9.7 2.1 -9.8 2.05 -9.8 2.05 -9.9 2.0 -9.9 2.0 -9.95 1.8 -9.95 1.75 -9.9 1.75 -9.85 1.8 -9.85 1.8 -9.7 1.75 -9.6 1.65 -9.5 1.65 -9.45 1.6 -9.45 1.6 -9.4 1.55 -9.4 1.55 -9.35 1.35 -9.35 1.3 -9.4 1.2 -9.4 1.15 -9.35 0.9 -9.35 0.8 -9.4 0.5 -9.4 0.45 -9.35 0.4 -9.35 0.35 -9.4 0.25 -9.4 0.25 -9.5 0.2 -9.5 0.2 -9.6 0.15 -9.6 0.15 -9.75 0.1 -9.75 0.1 -9.5 0.05 -9.5 0.05 -9.45 0.0 -9.4 -0.15 -9.4 -0.15 -9.35 -0.2 -9.35 -0.2 -9.3 -0.25 -9.3 -0.3 -9.25 -0.6 -9.25 -0.65 -9.3 -0.75 -9.3 -0.8 -9.35 -0.9 -9.35 -0.9 -9.45 -0.95 -9.5 -0.95 -9.55 -1.0 -9.55 -1.05 -9.5 -1.05 -9.3 -1.0 -9.3 -1.0 -9.25 -1.1 -9.15 -1.15 -9.15 -1.2 -9.1 -1.25 -9.1 -1.3 -9.05 -1.4 -9.05 -1.4 -9.0 -1.45 -9.0 -1.45 -8.9 -1.5 -8.9 -1.5 -8.85 -1.55 -8.85 -1.6 -8.8 -1.65 -8.8 -1.7 -8.75 -1.75 -8.75 -1.8 -8.7 -1.85 -8.7 -1.9 -8.65 -1.8 -8.65 -1.8 -8.6 -1.65 -8.45 -1.55 -8.45 -1.45 -8.4 -1.4 -8.4 -1.4 -8.35 -1.35 -8.35 -1.35 -8.3 -0.85 -8.3 -0.75 -8.2 -0.75 -8.15 -0.7 -8.15 -0.65 -8.2 -0.55 -8.2 -0.55 -8.25 -0.5 -8.25 -0.5 -8.3 -0.45 -8.3 -0.4 -8.35 -0.3 -8.35 -0.2 -8.25 -0.2 -8.2 -0.15 -8.2 -0.15 -8.1 -0.1 -8.1 -0.1 -8.05 -0.05 -8.05 -0.05 -7.95 0.0 -7.95 0.05 -7.9 0.05 -7.8 0.1 -7.8 0.1 -7.5 0.05 -7.5 0.05 -7.45 0.0 -7.4 0.0 -7.35 -0.05 -7.35 -0.05 -7.25 -0.1 -7.25 -0.1 -7.1 -0.05 -7.05 -0.05 -7.0 0.0 -7.0 0.05 -6.95 0.1 -6.95 0.1 -6.85 0.15 -6.75 0.15 -6.6 0.1 -6.55 0.1 -6.25 0.05 -6.2 0.05 -6.0 Q0.05 -5.95 0.0 -5.95 L-0.05 -5.85 -0.1 -5.85 -0.1 -5.8 -0.05 -5.8 -0.05 -5.7 0.0 -5.65 0.0 -5.5 0.05 -5.45 0.05 -5.4 0.1 -5.4 0.1 -5.05 0.15 -5.05 0.2 -5.1 0.25 -5.1 0.25 -5.25 0.3 -5.25 0.3 -5.3 0.6 -5.3 0.6 -5.25 0.7 -5.25 0.7 -5.2 0.75 -5.2 0.75 -5.15 0.8 -5.15 0.8 -5.1 0.85 -5.1 0.85 -4.85 1.05 -4.65 1.05 -4.6 1.1 -4.6 1.1 -4.55 1.15 -4.55 1.15 -4.25 1.0 -4.1 0.65 -4.1 0.6 -4.05 0.65 -4.0 0.65 -3.7 0.6 -3.7 0.6 -3.6 0.55 -3.6 0.55 -3.55 0.5 -3.5 0.4 -3.5 0.4 -3.45 0.35 -3.45 0.2 -3.3 0.15 -3.3 0.15 -3.25 0.05 -3.25 0.05 -3.2 0.0 -3.2 -0.1 -3.1 -0.15 -3.1 -0.15 -3.05 -0.2 -3.05 -0.2 -2.95 -0.25 -2.95 -0.25 -2.9 -0.3 -2.9 -0.3 -3.15 -0.25 -3.2 -0.25 -3.25 -0.2 -3.3 -0.15 -3.3 -0.1 -3.35 -0.1 -3.4 -0.05 -3.45 0.0 -3.45 0.0 -3.5 0.1 -3.6 0.1 -3.65 0.15 -3.7 0.15 -3.85 0.1 -3.85 0.1 -4.0 0.05 -4.05 0.05 -4.1 0.0 -4.1 0.0 -4.15 -0.05 -4.2 -0.05 -4.3 0.0 -4.35 0.05 -4.35 0.05 -4.4 0.1 -4.4 0.1 -4.45 0.2 -4.45 0.3 -4.5 0.4 -4.5 0.4 -4.45 0.5 -4.45 0.65 -4.5 0.6 -4.5 0.6 -4.6 0.55 -4.6 0.55 -4.75 0.5 -4.75 0.45 -4.7 0.35 -4.65 0.3 -4.6 0.25 -4.6 0.15 -4.55 -0.35 -4.55 -0.35 -4.6 -0.4 -4.6 -0.4 -5.05 -0.35 -5.05 -0.35 -5.2 -0.4 -5.25 -0.5 -5.2 -0.6 -5.2 -0.7 -5.25 -0.8 -5.25 Q-0.85 -5.3 -0.9 -5.3 L-0.95 -5.35 -1.0 -5.35 -1.25 -5.6 -1.25 -5.65 -1.3 -5.65 -1.3 -5.35 Q-1.3 -5.3 -1.25 -5.3 -1.2 -5.25 -1.15 -5.2 L-1.1 -5.1 -1.1 -4.95 -1.15 -4.9 Q-1.15 -4.85 -1.2 -4.85 L-1.25 -4.75 -1.3 -4.75 -1.55 -4.7 -1.4 -4.7 -1.3 -4.6 -1.3 -4.55 -1.25 -4.55 -1.25 -4.5 -1.15 -4.4 -1.1 -4.4 -1.05 -4.35 -1.05 -4.2 -1.0 -4.15 -1.0 -4.1 -1.05 -4.1 -1.05 -3.85 -1.1 -3.85 -1.1 -3.65 -1.15 -3.65 -1.15 -3.5 -1.2 -3.5 -1.2 -3.4 -1.25 -3.4 -1.25 -3.25 -1.3 -3.2 -1.35 -3.2 -1.35 -3.25 -1.4 -3.25 -1.4 -3.35 -1.45 -3.35 -1.45 -3.5 -1.5 -3.5 -1.5 -3.6 -1.55 -3.65 -1.55 -3.9 -1.5 -3.95 -1.5 -4.2 -1.55 -4.2 -1.55 -4.25 -1.6 -4.25 -1.65 -4.3 -1.7 -4.3 -1.7 -4.35 -1.8 -4.35 -1.85 -4.4 -1.9 -4.35 -2.0 -4.35 -2.0 -4.4 -2.05 -4.45 -2.1 -4.45 -2.1 -4.65 -2.05 -4.7 -2.05 -4.8 -2.0 -4.8 -2.0 -4.95 -1.9 -5.05 -1.6 -5.05 Q-1.6 -5.1 -1.65 -5.15 -1.75 -5.2 -1.75 -5.25 L-1.8 -5.3 -1.8 -5.45 -1.75 -5.45 -1.7 -5.55 -1.65 -5.55 -1.65 -5.7 -1.6 -5.75 -1.6 -5.8 Q-1.6 -5.85 -1.55 -5.9 -1.5 -5.95 -1.45 -6.0 L-1.4 -6.05 -1.25 -6.05 -1.25 -6.0 -1.1 -6.0 Q-1.0 -5.95 -1.0 -5.85 -0.9 -5.75 -0.85 -5.7 L-0.8 -5.7 -0.85 -5.75 -0.85 -5.85 -0.8 -5.85 -0.8 -5.95 -0.85 -6.0 -0.85 -6.1 -0.8 -6.1 -0.8 -6.2 -0.75 -6.2 -0.75 -6.25 -0.7 -6.25 -0.7 -6.3 -0.4 -6.3 -0.4 -6.65 -0.45 -6.65 -0.45 -6.75 -0.5 -6.8 -0.7 -6.8 -0.7 -6.85 -0.8 -6.95 -0.8 -7.1 -0.85 -7.1 -0.85 -7.25 Q-0.8 -7.3 -0.75 -7.35 -0.7 -7.4 -0.6 -7.45 L-0.55 -7.45 -0.55 -7.6 -0.75 -7.6 -0.75 -7.65 -0.8 -7.65 -0.8 -7.75 -0.75 -7.75 -0.75 -7.8 -0.95 -7.8 -1.0 -7.75 -1.2 -7.75 -1.2 -7.85 -1.25 -7.85 Q-1.25 -7.9 -1.3 -7.9 L-1.45 -7.85 -1.6 -7.85 -1.7 -7.95 -1.75 -7.95 -1.75 -8.05 -1.8 -8.05 -1.8 -8.1 -1.95 -8.1 -2.0 -8.15 -2.05 -8.15 -2.05 -8.25 -2.25 -8.3 -2.4 -8.3 -2.45 -8.35 -2.45 -8.45 -2.5 -8.45 -2.5 -8.65 -2.4 -8.75 -2.4 -8.85 -2.35 -8.85 -2.35 -8.95 -2.3 -8.95 -2.1 -9.0 -2.05 -9.05 -2.0 -9.05 -1.85 -9.2 -1.85 -9.25 -1.8 -9.25 -1.7 -9.35 -1.65 -9.35 -1.65 -9.4 -1.6 -9.4 -1.6 -9.45 -1.55 -9.5 -1.6 -9.55 -1.6 -9.75 -1.55 -9.75 -1.55 -9.85 -1.5 -9.85 -1.45 -9.9 -1.4 -9.9 -1.4 -9.95 -1.35 -9.95 -1.25 -10.05 -1.2 -10.05 -1.1 -10.1 -0.95 -10.1 -0.9 -10.05 -0.85 -10.05 -0.85 -10.0 -0.8 -10.0 -0.8 -9.85 -0.75 -9.85 -0.75 -9.8 -0.7 -9.75 -0.5 -9.75 -0.45 -9.8 -0.45 -10.0 -0.3 -10.15 -0.15 -10.15 -0.15 -10.2 0.4 -10.2 0.4 -10.15 0.45 -10.15 0.45 -10.1 0.5 -10.1 0.5 -10.0 0.55 -10.0 0.55 -9.85 0.6 -9.85 0.6 -9.8 0.7 -9.8 1.05 -9.9 1.15 -9.85 Q1.3 -9.85 1.35 -9.9 L1.35 -9.95 1.3 -9.95 Q1.3 -10.0 1.25 -10.0 L1.25 -10.3 1.3 -10.3 1.3 -10.35 1.7 -10.35 1.7 -10.4 1.75 -10.45 1.75 -10.5 1.8 -10.5 1.8 -10.55 1.85 -10.6 2.05 -10.6 2.1 -10.55 2.15 -10.55 2.15 -10.5 2.2 -10.45 2.2 -10.4 2.25 -10.4 2.25 -10.35 2.3 -10.35 2.3 -10.3 2.4 -10.25 2.45 -10.15 2.55 -10.05 2.65 -10.05 2.65 -10.0 2.7 -10.0 2.8 -9.95 2.85 -9.95 2.85 -9.9 2.9 -9.85 2.95 -9.85 2.95 -9.95 2.9 -9.95 2.9 -10.0 2.85 -10.05 2.85 -10.1 2.8 -10.1 2.8 -10.2 Q2.8 -10.25 2.8 -10.3 L2.8 -10.45 2.75 -10.5 2.75 -10.6 2.45 -10.6 2.25 -10.8 2.25 -11.0 2.2 -11.0 2.2 -11.05 2.15 -11.1 2.1 -11.1 2.1 -11.15 2.05 -11.15 2.05 -11.25 2.0 -11.25 2.0 -11.3 1.95 -11.3 1.95 -11.35 1.75 -11.35 1.75 -11.3 1.5 -11.3 1.5 -11.25 1.25 -11.25 1.25 -11.3 1.15 -11.3 1.1 -11.35 1.0 -11.35 1.0 -11.4 0.95 -11.4 0.85 -11.5 0.8 -11.5 0.75 -11.55 0.65 -11.6 0.6 -11.65 0.6 -11.75 0.55 -11.8 0.55 -11.85 0.5 -11.85 0.5 -11.95 0.45 -11.95 0.45 -11.9 0.4 -11.9 0.4 -11.85 0.35 -11.85 0.25 -11.8 0.15 -11.8 0.15 -11.85 0.0 -11.85 0.0 -11.9 -0.05 -11.9 -0.05 -11.95 -0.15 -11.95 -0.15 -12.0 -0.2 -12.0 -0.2 -12.05 -0.3 -12.1 -0.3 -12.15 -0.35 -12.2 -0.35 -12.45 -0.5 -12.45 -0.5 -12.5 -0.55 -12.5 -0.55 -12.55 -0.6 -12.6 -0.7 -12.6 -0.75 -12.65 -0.8 -12.65 -0.8 -12.7 -0.95 -12.7 -1.0 -12.65 -1.15 -12.65 -1.15 -12.6 -1.5 -12.6 -1.55 -12.55 -1.7 -12.55 -1.75 -12.5 -1.85 -12.5 -1.85 -12.45 -1.9 -12.45 -1.95 -12.4 -1.95 -12.35 -2.0 -12.3 -2.0 -12.25 -2.1 -12.15 -2.15 -12.15 -2.15 -12.1 -2.25 -12.0 -2.3 -12.0 -2.3 -11.95 -2.35 -11.95 -2.35 -11.9 -2.5 -11.9 -2.5 -11.85 -2.55 -11.85 -2.6 -11.8 -2.7 -11.75 -2.75 -11.75 -2.8 -11.7 -2.95 -11.85 -2.95 -11.9 -3.15 -11.9 -3.2 -11.85 -3.25 -11.85 -3.25 -11.8 -3.3 -11.8 -3.35 -11.75 -3.4 -11.75 -3.45 -11.7 -3.5 -11.7 -3.55 -11.65 -3.65 -11.6 -3.7 -11.55 -3.9 -11.55 -3.95 -11.5 -4.3 -11.5 -4.35 -11.55 -4.35 -11.7 -4.3 -11.7 -4.4 -11.75 -4.55 -11.75 -4.6 -11.8 -4.65 -11.75 -4.9 -11.75 -4.95 -11.7 -4.95 -11.5 -4.9 -11.5 -4.9 -11.35 -4.85 -11.3 -4.85 -11.25 -4.8 -11.15 -4.8 -11.1 -4.75 -11.1 -4.8 -11.05 -4.8 -10.75 -4.85 -10.7 -4.85 -10.55 -4.9 -10.55 -4.9 -10.25 -4.95 -10.2 -4.95 -10.0 -5.0 -10.0 -5.0 -9.85 -5.05 -9.85 -5.05 -9.75 -5.1 -9.75 -5.1 -9.7 -5.15 -9.7 -5.15 -9.5 -5.2 -9.5 -5.2 -9.1 -5.25 -9.1 -5.25 -9.0 -5.3 -9.0 -5.3 -8.7 -5.35 -8.7 -5.35 -8.45 -5.4 -8.45 -5.4 -8.35 -5.45 -8.35 -5.45 -8.3 -5.55 -8.3 -5.55 -8.25 -5.7 -8.25 -5.7 -8.3 -5.75 -8.3 -5.8 -8.25 -5.85 -8.25 -5.85 -8.05 -5.8 -8.0 -5.8 -7.9 -5.75 -7.9 -5.75 -7.8 -5.7 -7.8 -5.7 -7.75 -5.6 -7.7 -5.4 -7.7 -5.35 -7.65 -5.35 -7.55 -5.3 -7.55 -5.3 -7.45 -5.35 -7.4 -5.35 -7.2 -5.4 -7.2 -5.4 -6.85 -5.45 -6.85 -5.45 -6.8 -5.5 -6.75 -5.5 -6.7 Q-5.55 -6.6 -5.6 -6.6 L-5.65 -6.5 -5.65 -6.45 -5.7 -6.4 -5.7 -6.35 -5.75 -6.35 -5.75 -6.3 -5.85 -6.3 -5.9 -6.25 -6.1 -6.25 -6.1 -6.3 -6.15 -6.3 -6.15 -6.35 -6.2 -6.35 -6.2 -6.4 -6.25 -6.45 -6.3 -6.45 Q-6.35 -6.45 -6.4 -6.5 L-6.5 -6.5 -6.55 -6.45 -6.6 -6.45 -6.6 -6.4 -6.7 -6.4 -6.75 -6.35 -6.8 -6.35 -6.85 -6.3 -6.9 -6.3 -6.95 -6.25 -7.0 -6.25 -7.1 -6.2 -7.15 -6.2 -7.15 -6.25 -7.2 -6.2 -7.2 -6.15 Q-7.25 -6.1 -7.25 -6.05 L-7.3 -6.05 -7.3 -6.0 -7.35 -6.0 -7.4 -5.95 -7.75 -5.95 -7.75 -5.9 -8.25 -5.9 -8.25 -5.95 -8.3 -6.0 -8.3 -6.05 -8.25 -6.1 -8.3 -6.15 -8.35 -6.15 -8.4 -6.2 -8.55 -6.05 -8.6 -5.95 -8.8 -5.95 -8.8 -6.0 -9.1 -6.0 -9.1 -5.8 -9.15 -5.75 Q-9.1 -5.75 -9.15 -5.7 -9.15 -5.65 -9.2 -5.6 L-9.25 -5.55 -9.35 -5.55 -9.6 -5.5 -9.6 -5.45 -10.1 -5.45 -10.1 -5.5 -10.15 -5.5 -10.15 -5.55 -10.2 -5.55 -10.2 -5.6 -10.25 -5.6 -10.25 -5.8 -10.3 -5.8 Q-10.45 -5.75 -10.6 -5.75 L-10.75 -5.75 -10.85 -5.85 -10.85 -5.95 -10.9 -5.95 -10.9 -6.4 Q-10.85 -6.45 -10.9 -6.5 L-10.9 -6.65 -10.85 -6.65 -10.85 -6.75 -10.9 -6.75 -10.9 -7.0 -10.8 -7.1 -10.8 -7.25 -10.85 -7.25 -10.9 -7.3 -10.95 -7.3 -10.95 -7.35 -11.0 -7.35 -11.0 -7.5 -10.95 -7.55 -10.95 -7.6 -10.85 -7.7 -10.9 -7.75 -10.9 -7.85 -10.95 -7.9 -11.0 -7.9 -11.05 -7.95 -11.1 -7.95 -11.1 -8.15 -11.0 -8.15 -11.0 -8.5 -10.95 -8.5 -10.95 -8.55 -10.9 -8.55 -10.9 -8.6 -10.85 -8.6 -10.8 -8.65 -10.45 -8.65 -10.35 -8.6 -10.3 -8.65 -10.25 -8.65 -10.25 -8.7 -10.15 -8.7 -10.15 -8.75 -10.2 -8.75 -10.2 -8.85 -10.1 -8.95 -10.05 -8.95 -10.05 -9.0 -10.0 -9.05 -10.0 -9.1 -9.9 -9.2 -9.8 -9.2 Q-9.95 -9.25 -10.1 -9.25 L-10.15 -9.3 -10.2 -9.3 -10.2 -9.35 -10.25 -9.35 -10.25 -9.3 -10.35 -9.3 -10.4 -9.25 -10.55 -9.25 -10.6 -9.2 -10.65 -9.2 -10.7 -9.15 -10.85 -9.15 -10.9 -9.2 -10.95 -9.2 -10.95 -9.25 -11.0 -9.25 -11.0 -9.3 -11.1 -9.4 Q-11.15 -9.45 -11.2 -9.5 L-11.3 -9.6 -11.35 -9.6 -11.35 -9.75 -11.4 -9.75 -11.4 -9.8 -11.45 -9.8 -11.45 -9.85 -11.65 -9.9 -11.65 -9.95 -11.75 -9.85 -11.8 -9.85 -11.8 -9.75 -11.85 -9.75 -11.9 -9.7 -11.95 -9.7 -11.95 -9.65 -12.15 -9.65 -12.15 -9.7 -12.4 -9.7 -12.4 -9.75 -12.45 -9.75 -12.6 -9.75 Q-12.65 -9.7 -12.7 -9.65 L-12.8 -9.6 -12.8 -9.55 -12.9 -9.55 -12.9 -9.5 -13.0 -9.5 -13.0 -9.4 -12.95 -9.4 -12.95 -9.3 -13.0 -9.3 -13.0 -9.05 Q-13.05 -9.0 -13.1 -8.95 L-13.2 -8.85 -13.4 -8.85 -13.45 -8.9 -13.6 -8.9 -13.65 -8.95 -13.7 -8.9 -13.7 -8.85 -13.75 -8.85 -13.8 -8.75 -13.8 -8.7 -13.85 -8.7 -13.9 -8.65 -13.9 -8.6 -13.95 -8.6 -14.05 -8.5 -14.1 -8.5 -14.25 -8.45 -14.3 -8.45 -14.35 -8.5 -14.35 -8.55 -14.4 -8.55 -14.4 -8.7 -14.35 -8.7 -14.35 -8.8 -14.3 -8.8 -14.3 -8.9 -14.25 -8.9 -14.25 -8.95 -14.15 -9.05 -14.1 -9.05 -14.1 -9.1 -14.05 -9.1 -14.05 -9.15 -14.0 -9.2 -14.0 -9.25 -13.95 -9.3 -13.95 -9.35 -13.9 -9.4 -13.75 -9.4 -13.75 -9.45 -13.7 -9.45 -13.65 -9.4 -13.55 -9.4 -13.55 -9.35 -13.3 -9.35 -13.3 -9.45 -13.35 -9.5 -13.35 -9.55 -13.4 -9.55 -13.4 -9.9 -13.35 -9.9 -13.35 -9.95 -13.3 -9.95 -13.3 -10.0 -13.25 -10.0 -13.25 -9.95 -13.2 -9.95 -13.2 -10.0 -13.15 -10.0 -13.15 -10.05 -13.1 -10.1 -13.1 -10.15 -12.95 -10.15 -12.95 -10.1 -12.9 -10.1 -12.8 -10.15 -12.55 -10.15 -12.55 -10.2 -12.45 -10.2 -12.4 -10.15 -12.15 -10.15 -12.15 -10.3 -12.1 -10.35 -12.1 -10.45 -12.05 -10.45 -12.05 -10.5 -11.9 -10.5 -11.75 -10.45 -11.5 -10.45 -11.5 -10.5 -11.45 -10.5 -11.4 -10.45 -11.35 -10.45 -11.35 -10.4 -11.3 -10.35 -11.3 -10.25 -11.2 -10.15 -11.15 -10.15 -11.15 -10.1 -11.1 -10.05 -11.05 -10.05 -11.05 -10.0 Q-11.0 -9.95 -10.95 -9.9 L-10.9 -9.8 -10.9 -9.7 -10.7 -9.7 -10.65 -9.65 -10.5 -9.65 -10.5 -9.7 -10.45 -9.7 -10.45 -9.75 -10.4 -9.75 -10.4 -9.8 -10.3 -9.8 -10.25 -9.75 Q-10.15 -9.75 -10.1 -9.7 L-10.05 -9.65 -9.9 -9.65 -9.85 -9.6 -9.8 -9.6 -9.75 -9.55 -9.7 -9.55 -9.7 -9.5 -9.6 -9.5 -9.6 -9.45 -9.5 -9.35 -9.45 -9.35 -9.45 -9.3 -9.4 -9.3 -9.4 -9.25 -9.35 -9.25 -9.35 -9.15 -9.4 -9.15 -9.4 -8.95 -9.45 -8.95 -9.45 -8.9 -9.5 -8.85 -9.5 -8.8 -9.75 -8.8 -9.75 -8.55 -9.8 -8.55 -9.8 -8.4 -9.85 -8.4 -9.85 -8.35 -9.9 -8.35 -9.9 -8.3 -9.95 -8.25 -10.0 -8.25 -10.5 -8.2 -10.5 -8.05 -10.45 -8.0 -10.45 -7.65 -10.5 -7.6 -10.55 -7.6 -10.55 -7.55 -10.5 -7.55 -10.5 -7.1 -10.45 -7.1 -10.45 -6.7 -10.4 -6.7 -10.4 -6.4 -10.2 -6.4 -10.05 -6.25 -10.0 -6.25 -10.0 -6.15 -9.95 -6.15 -9.95 -6.05 -9.9 -6.0 -9.55 -6.0 -9.55 -6.05 -9.5 -6.1 -9.5 -6.2 -9.55 -6.2 -9.55 -6.3 -9.6 -6.3 -9.6 -6.6 -9.55 -6.65 -9.55 -6.7 -9.5 -6.75 -9.25 -6.75 -9.25 -6.7 -9.15 -6.7 -9.1 -6.65 -9.1 -6.6 -9.05 -6.55 -9.05 -6.5 -9.0 -6.5 -8.95 -6.45 -8.8 -6.45 -8.8 -6.6 -8.75 -6.6 -8.75 -6.65 -8.7 -6.7 -8.6 -6.7 -8.6 -6.75 -8.3 -6.75 -8.2 -6.8 -8.15 -6.75 -7.95 -6.75 -7.85 -6.7 -7.8 -6.7 -7.8 -6.65 -7.75 -6.65 -7.75 -6.5 -7.8 -6.5 -7.8 -6.45 -7.65 -6.45 -7.55 -6.4 -7.5 -6.4 -7.5 -6.45 -7.45 -6.45 -7.5 -6.5 -7.5 -6.7 -7.45 -6.7 -7.45 -6.75 -7.4 -6.8 -7.35 -6.8 -7.25 -6.85 -7.15 -6.85 -7.15 -6.9 -7.05 -6.9 -7.0 -6.95 -6.9 -6.95 -6.9 -7.0 -6.8 -7.0 -6.8 -7.05 -6.75 -7.05 -6.6 -7.1 Q-6.55 -7.1 -6.5 -7.1 L-6.25 -7.1 -6.15 -7.0 -6.05 -7.0 -6.0 -6.95 -5.95 -6.95 -5.9 -7.0 -5.9 -7.05 -5.8 -7.15 -5.8 -7.3 -5.75 -7.3 -5.75 -7.35 -5.85 -7.35 Q-5.95 -7.35 -6.1 -7.4 L-6.15 -7.4 -6.15 -7.6 -6.2 -7.6 -6.2 -7.65 -6.25 -7.7 -6.25 -8.85 -6.2 -8.85 -6.2 -9.1 -6.15 -9.1 -6.15 -9.15 -6.0 -9.15 -6.0 -9.1 -5.9 -9.1 -5.85 -9.05 -5.8 -9.05 -5.8 -9.0 -5.7 -9.0 -5.7 -9.15 -5.65 -9.15 -5.65 -9.2 -5.55 -9.3 -5.55 -9.35 -5.5 -9.35 -5.5 -9.4 -5.55 -9.4 -5.55 -9.45 -5.6 -9.5 -5.6 -9.75 -5.55 -9.75 -5.55 -9.9 -5.5 -9.9 -5.5 -10.05 -5.45 -10.05 -5.45 -10.1 -5.4 -10.15 -5.4 -10.25 -5.35 -10.25 -5.35 -10.35 -5.3 -10.4 -5.3 -10.45 -5.25 -10.45 -5.25 -10.6 -5.2 -10.65 -5.2 -11.0 -5.25 -11.05 -5.25 -11.1 -5.3 -11.1 -5.3 -11.4 -5.35 -11.45 -5.4 -11.45 -5.4 -11.7 -5.35 -11.75 -5.35 -11.95 -5.3 -12.05 -5.25 -12.1 -5.25 -12.15 -5.15 -12.25 -5.1 -12.25 -4.6 -12.35 -4.3 -12.35 -4.25 -12.3 -4.2 -12.3 -4.2 -12.25 -4.1 -12.25 -4.05 -12.2 -4.0 -12.2 Q-3.95 -12.15 -3.9 -12.15 L-3.8 -12.05 -3.75 -12.05 -3.65 -12.15 -3.6 -12.15 -3.6 -12.2 -3.55 -12.2 -3.55 -12.25 -3.5 -12.25 -3.5 -12.3 -3.45 -12.3 -3.45 -12.35 -3.4 -12.35 -3.35 -12.4 -3.05 -12.4 -3.05 -12.45 -3.0 -12.45 -3.0 -12.5 -2.95 -12.5 -2.95 -12.45 -2.9 -12.45 -2.9 -12.4 -2.85 -12.4 -2.85 -12.35 -2.8 -12.35 -2.8 -12.4 -2.75 -12.4 -2.75 -12.45 -2.7 -12.5 -2.65 -12.5 Q-2.6 -12.55 -2.55 -12.6 L-2.45 -12.8 -2.35 -12.95 -2.3 -13.0 -1.85 -13.0 -1.55 -13.05 -1.3 -13.1 -1.25 -13.15 -1.2 -13.25 -1.15 -13.3 -1.05 -13.3 -1.05 -13.35 -1.0 -13.35 -0.95 -13.3 -0.8 -13.3 -0.8 -13.35 -0.7 -13.25 -0.7 -13.2 -0.65 -13.2 -0.65 -13.15 -0.6 -13.1 -0.6 -13.05 -0.55 -13.05 -0.55 -13.0 -0.45 -13.0 -0.45 -12.95 -0.4 -12.95 Q-0.4 -12.9 -0.35 -12.9 L-0.3 -12.9 -0.2 -12.8 -0.1 -12.65 -0.05 -12.6 -0.05 -12.5 0.0 -12.45 0.0 -12.35 0.05 -12.35 0.05 -12.3 0.1 -12.3 0.15 -12.25 0.2 -12.3 0.25 -12.3 M0.05 -12.1 Q0.05 -12.05 0.1 -12.05 L0.2 -12.0 0.25 -12.0 0.35 -12.1 0.6 -12.1 0.6 -12.05 0.65 -12.05 0.65 -12.0 0.7 -11.95 0.7 -11.85 0.75 -11.8 Q0.8 -11.75 0.85 -11.7 L0.9 -11.65 0.95 -11.65 1.0 -11.6 1.05 -11.6 1.05 -11.55 1.15 -11.55 1.25 -11.5 1.3 -11.45 1.65 -11.5 1.65 -11.6 1.7 -11.6 1.7 -11.65 1.95 -11.65 2.0 -11.6 2.05 -11.6 2.1 -11.45 2.15 -11.4 2.15 -11.35 2.25 -11.3 2.25 -11.25 2.3 -11.25 2.35 -11.2 2.35 -11.15 2.4 -11.15 2.4 -11.1 2.45 -11.1 2.45 -10.95 2.5 -10.95 2.5 -10.85 2.6 -10.85 2.65 -10.9 2.85 -10.9 2.9 -10.85 2.95 -10.85 2.95 -10.7 3.0 -10.7 3.0 -10.6 3.05 -10.55 3.05 -10.5 3.1 -10.45 3.1 -10.05 3.15 -10.05 3.15 -9.75 3.1 -9.7 3.05 -9.7 3.05 -9.6 3.0 -9.6 3.05 -9.65 3.1 -9.65 3.1 -9.7 3.2 -9.7 3.2 -9.75 3.25 -9.8 3.2 -9.85 3.2 -10.2 3.15 -10.2 3.15 -10.45 3.1 -10.45 3.1 -10.7 3.05 -10.7 3.05 -10.8 Q3.0 -10.8 3.0 -10.85 L3.0 -11.05 2.95 -11.05 2.9 -11.0 2.85 -11.0 2.85 -10.95 2.65 -10.95 Q2.6 -11.0 2.55 -11.05 2.5 -11.15 2.45 -11.2 L2.4 -11.25 2.4 -11.35 2.35 -11.35 2.35 -11.45 2.3 -11.5 2.2 -11.55 2.2 -11.6 2.05 -11.75 2.0 -11.75 2.0 -11.8 1.9 -11.8 1.9 -11.85 1.85 -11.9 1.8 -11.9 1.75 -11.85 1.7 -11.85 1.7 -11.8 1.65 -11.75 1.65 -11.65 1.6 -11.6 1.55 -11.6 1.55 -11.55 1.3 -11.55 1.25 -11.6 1.2 -11.6 1.15 -11.65 1.1 -11.65 1.0 -11.75 0.95 -11.75 0.95 -11.8 0.9 -11.8 0.85 -11.85 0.85 -11.9 0.8 -11.9 0.75 -11.95 0.75 -12.0 0.7 -12.0 0.7 -12.2 0.65 -12.2 0.65 -12.25 0.6 -12.25 0.5 -12.2 0.4 -12.2 0.3 -12.1 0.25 -12.1 0.2 -12.05 0.1 -12.1 0.05 -12.1 M1.6 -10.15 L1.4 -10.15 1.5 -10.05 1.55 -10.1 1.55 -10.15 1.6 -10.15 M1.9 -10.15 L2.05 -10.15 2.2 -10.0 2.2 -9.95 2.25 -9.9 2.3 -9.9 2.3 -9.85 2.35 -9.85 2.45 -9.8 2.5 -9.8 2.55 -9.75 2.6 -9.75 2.65 -9.65 2.7 -9.65 2.8 -9.55 2.85 -9.55 2.9 -9.55 3.0 -9.6 2.75 -9.6 2.75 -9.75 2.7 -9.8 2.65 -9.8 2.6 -9.85 2.55 -9.85 2.45 -9.9 2.25 -10.1 2.25 -10.15 2.2 -10.15 2.1 -10.25 2.1 -10.3 2.05 -10.3 2.05 -10.25 2.0 -10.25 1.95 -10.2 1.85 -10.2 1.9 -10.15 M1.5 -9.9 L1.5 -9.75 1.45 -9.75 1.45 -9.7 1.4 -9.7 1.35 -9.65 1.3 -9.65 1.25 -9.7 1.2 -9.65 1.15 -9.65 1.1 -9.7 1.05 -9.7 0.85 -9.65 Q0.75 -9.65 0.65 -9.6 L0.45 -9.6 0.45 -9.65 0.4 -9.7 0.4 -9.9 0.35 -9.9 0.35 -9.85 0.3 -9.85 0.3 -9.75 0.35 -9.7 0.35 -9.65 0.4 -9.6 0.4 -9.55 0.5 -9.55 0.65 -9.6 1.0 -9.6 1.0 -9.55 1.15 -9.55 1.15 -9.6 1.3 -9.6 1.35 -9.55 1.45 -9.55 1.5 -9.6 1.5 -9.65 1.55 -9.7 1.55 -9.85 1.5 -9.9 M0.4 -5.05 L0.25 -4.9 0.2 -4.9 0.1 -4.8 -0.05 -4.8 -0.05 -4.85 -0.1 -4.85 -0.1 -5.2 -0.05 -5.2 -0.05 -5.3 -0.1 -5.35 -0.15 -5.35 -0.15 -5.55 -0.2 -5.6 -0.2 -5.65 -0.45 -5.65 -0.45 -5.7 -0.5 -5.7 -0.5 -6.0 -0.45 -6.05 -0.45 -6.1 -0.6 -6.1 -0.65 -6.05 -0.65 -6.0 -0.6 -5.95 -0.6 -5.85 -0.65 -5.8 -0.65 -5.4 -0.6 -5.4 -0.6 -5.45 -0.3 -5.45 -0.3 -5.4 -0.25 -5.35 -0.25 -5.3 -0.2 -5.3 -0.2 -4.95 -0.25 -4.95 -0.25 -4.75 0.2 -4.75 0.25 -4.8 0.3 -4.8 0.35 -4.85 0.35 -4.9 0.4 -4.9 0.4 -4.95 0.45 -4.95 0.45 -5.0 0.55 -5.0 0.6 -4.95 0.65 -4.95 0.65 -4.9 0.7 -4.9 0.7 -4.95 0.6 -5.05 0.55 -5.05 0.55 -5.1 0.45 -5.1 0.45 -5.15 0.4 -5.05 M0.75 -4.65 L0.8 -4.6 0.8 -4.55 0.85 -4.55 0.85 -4.3 0.95 -4.3 0.95 -4.35 1.0 -4.35 1.0 -4.4 0.95 -4.4 Q0.95 -4.45 0.9 -4.5 L0.85 -4.55 0.8 -4.65 0.75 -4.65 M0.2 -4.25 L0.2 -4.1 0.25 -4.1 0.25 -4.0 0.3 -4.0 0.3 -3.65 0.35 -3.65 0.45 -3.75 0.45 -3.9 0.35 -4.0 0.35 -4.15 0.4 -4.15 0.5 -4.25 0.6 -4.25 0.65 -4.3 0.55 -4.25 0.35 -4.25 0.35 -4.3 0.25 -4.3 0.2 -4.25 M-13.85 -9.25 L-13.85 -9.2 -13.9 -9.2 -13.9 -9.1 -13.95 -9.05 -13.95 -9.0 -14.0 -9.0 -14.05 -8.95 -14.05 -8.9 -14.1 -8.9 -14.1 -8.85 -14.15 -8.8 -14.2 -8.8 -14.2 -8.7 -14.25 -8.65 -14.2 -8.65 -14.1 -8.7 Q-14.1 -8.75 -14.1 -8.8 L-14.0 -8.9 -13.95 -8.9 -13.95 -8.95 -13.9 -8.95 Q-13.9 -9.0 -13.8 -9.05 L-13.75 -9.1 -13.65 -9.15 -13.55 -9.15 -13.55 -9.1 -13.5 -9.1 -13.5 -9.05 -13.35 -9.05 -13.35 -9.1 -13.25 -9.1 -13.25 -9.15 -13.6 -9.15 -13.7 -9.2 -13.75 -9.2 -13.75 -9.25 -13.85 -9.25 M-12.3 -9.9 L-12.15 -9.85 -11.95 -9.85 -11.95 -9.95 -11.9 -9.95 -11.9 -10.0 -11.7 -10.1 -11.65 -10.1 -11.65 -10.15 -11.6 -10.15 -11.6 -10.1 -11.55 -10.1 -11.55 -10.05 -11.4 -10.05 -11.35 -10.0 -11.3 -10.0 -11.3 -9.9 -11.25 -9.9 -11.25 -9.85 -11.2 -9.85 -11.2 -9.75 -11.15 -9.7 -11.15 -9.75 -11.2 -9.8 -11.2 -9.85 -11.25 -9.85 -11.25 -9.9 -11.35 -10.0 -11.35 -10.05 -11.4 -10.05 -11.45 -10.1 -11.45 -10.15 -11.5 -10.15 -11.5 -10.25 -11.95 -10.25 -11.95 -10.2 -12.0 -10.2 -12.0 -10.05 -12.05 -10.05 -12.05 -10.0 -12.1 -10.0 -12.4 -9.95 -12.45 -10.0 -12.6 -10.0 -12.65 -9.95 -13.0 -9.95 -13.05 -9.9 -13.05 -9.8 Q-12.9 -9.85 -12.75 -9.9 -12.65 -9.9 -12.6 -9.95 L-12.55 -10.0 -12.5 -9.95 -12.35 -9.95 -12.3 -9.9 M-13.15 -9.75 L-13.25 -9.75 -13.25 -9.65 -13.2 -9.65 -13.2 -9.55 -13.15 -9.6 -13.15 -9.75 M-2.85 -12.2 L-2.95 -12.2 -3.0 -12.15 -3.15 -12.15 -3.25 -12.1 -3.3 -12.1 -3.35 -12.05 -3.45 -12.05 -3.5 -12.0 -3.6 -12.0 -3.65 -11.95 -3.7 -11.95 -3.7 -11.9 -3.85 -11.9 -3.85 -11.85 -3.95 -11.85 -4.0 -11.9 -4.0 -11.95 -4.05 -11.95 -4.05 -12.0 -4.15 -12.05 -4.35 -12.05 -4.4 -12.1 -4.45 -12.05 -4.65 -12.05 -4.65 -12.15 -4.7 -12.15 -4.8 -12.1 -5.05 -12.1 -5.05 -12.05 -5.1 -12.05 -5.1 -12.0 -5.15 -11.95 -5.15 -11.9 -5.2 -11.85 -5.2 -11.6 -5.2 -11.55 -5.15 -11.5 -5.15 -11.25 -5.1 -11.2 -5.1 -11.15 -5.05 -11.1 -5.05 -11.0 -5.0 -11.0 -5.0 -10.7 -5.05 -10.65 -5.05 -10.55 -5.1 -10.5 -5.1 -10.35 -5.15 -10.35 -5.15 -10.25 -5.2 -10.25 -5.2 -10.15 -5.25 -10.15 -5.25 -10.05 -5.3 -10.0 -5.3 -9.9 -5.35 -9.9 -5.35 -9.8 -5.4 -9.75 -5.4 -9.55 -5.35 -9.5 -5.35 -9.55 -5.3 -9.6 -5.3 -9.7 -5.2 -9.8 -5.2 -9.9 -5.15 -9.95 -5.15 -10.05 -5.1 -10.05 -5.1 -10.3 -5.05 -10.3 -5.05 -10.5 -5.0 -10.55 -5.0 -10.75 -4.95 -10.8 -4.95 -11.15 -5.0 -11.15 -5.05 -11.2 -5.05 -11.4 -5.1 -11.45 -5.1 -11.8 -5.05 -11.8 -5.05 -11.9 -5.0 -11.9 -5.0 -12.0 -4.85 -12.0 -4.75 -11.95 -4.5 -11.95 -4.45 -12.0 -4.3 -12.0 -4.25 -11.95 -4.2 -11.95 -4.2 -11.9 -4.1 -11.8 -4.1 -11.65 -4.0 -11.7 -3.95 -11.7 -3.9 -11.75 -3.7 -11.75 -3.7 -11.8 -3.6 -11.8 Q-3.55 -11.85 -3.5 -11.85 L-3.5 -11.9 -3.45 -11.9 -3.4 -11.95 -3.3 -12.0 -3.25 -12.05 -3.2 -12.05 -3.05 -12.1 -2.95 -12.1 -2.85 -12.05 -2.8 -12.0 -2.75 -12.0 -2.75 -11.95 -2.7 -12.0 -2.65 -12.0 -2.65 -12.05 -2.55 -12.1 Q-2.55 -12.15 -2.45 -12.15 L-2.45 -12.2 Q-2.4 -12.2 -2.35 -12.25 L-2.25 -12.3 Q-2.25 -12.35 -2.2 -12.35 -2.15 -12.4 -2.1 -12.5 L-2.1 -12.55 -2.05 -12.6 -2.0 -12.6 -2.0 -12.65 -1.8 -12.65 -1.75 -12.7 -1.65 -12.7 -1.6 -12.75 -1.55 -12.75 -1.3 -12.8 -1.2 -12.8 -1.2 -12.85 -0.7 -12.85 -0.7 -12.8 -0.65 -12.8 -0.65 -12.85 -0.75 -12.9 -0.8 -12.95 -0.8 -13.05 -0.95 -13.05 -0.95 -13.1 -1.0 -13.1 -1.0 -13.0 -1.05 -13.0 -1.1 -12.95 -1.15 -12.95 -1.15 -12.9 -1.25 -12.9 -1.25 -12.85 -1.6 -12.85 -1.65 -12.8 -1.7 -12.8 -1.7 -12.75 -1.8 -12.75 -1.8 -12.7 -1.9 -12.7 -1.95 -12.65 -2.05 -12.65 -2.1 -12.6 -2.15 -12.6 -2.2 -12.55 -2.25 -12.55 -2.25 -12.5 -2.3 -12.5 -2.4 -12.4 -2.45 -12.4 -2.5 -12.35 -2.55 -12.35 -2.55 -12.2 -2.6 -12.15 -2.6 -12.1 -2.85 -12.1 -2.85 -12.2 M-0.3 -12.65 L-0.3 -12.65 M-0.15 -12.3 L-0.15 -12.25 -0.1 -12.2 -0.1 -12.25 -0.15 -12.25 -0.15 -12.3 M-0.05 -12.15 L-0.05 -12.15 M-5.5 -9.05 L-5.55 -9.05 -5.55 -8.9 -5.6 -8.85 -5.6 -8.8 -5.7 -8.8 -5.75 -8.75 -5.8 -8.8 -5.85 -8.8 -5.85 -8.85 -5.9 -8.85 -5.9 -8.9 -6.05 -8.9 -6.05 -8.65 -6.1 -8.6 -6.1 -8.05 -6.05 -8.05 -6.05 -7.7 -6.0 -7.7 -6.0 -7.6 -5.95 -7.6 -5.95 -7.55 -5.75 -7.55 -5.9 -7.7 -5.9 -7.75 -5.95 -7.8 -5.95 -7.9 -6.0 -7.9 -6.0 -8.45 -5.95 -8.45 -5.95 -8.65 -5.8 -8.65 -5.7 -8.55 -5.55 -8.55 -5.5 -8.6 -5.5 -9.05 -5.45 -9.05 -5.45 -9.1 -5.4 -9.1 Q-5.4 -9.15 -5.4 -9.2 L-5.4 -9.15 -5.45 -9.15 -5.45 -9.1 -5.5 -9.1 -5.5 -9.05 M-1.55 -9.15 L-1.6 -9.15 -1.6 -9.1 -1.55 -9.15 M-1.55 -9.2 L-1.45 -9.2 -1.45 -9.25 -1.4 -9.25 -1.4 -9.3 -1.35 -9.35 -1.35 -9.4 -1.3 -9.4 -1.3 -9.45 -1.25 -9.5 -1.25 -9.6 -1.1 -9.75 -0.95 -9.75 -0.95 -9.9 -1.05 -9.9 -1.1 -9.85 -1.15 -9.85 -1.2 -9.8 -1.25 -9.8 -1.25 -9.65 -1.35 -9.65 -1.35 -9.7 -1.4 -9.7 -1.45 -9.65 -1.4 -9.65 -1.4 -9.4 -1.5 -9.3 -1.5 -9.2 -1.55 -9.2 M-2.3 -8.55 L-2.3 -8.5 -2.25 -8.5 -2.25 -8.55 -2.15 -8.65 -2.15 -8.7 -2.1 -8.75 -2.1 -8.8 -2.2 -8.8 -2.2 -8.65 -2.25 -8.65 -2.25 -8.6 -2.3 -8.6 -2.3 -8.55 M-1.9 -8.35 L-1.9 -8.3 -1.8 -8.3 -1.75 -8.25 -1.65 -8.2 Q-1.6 -8.2 -1.6 -8.15 L-1.55 -8.1 -1.55 -8.05 Q-1.45 -8.05 -1.3 -8.1 L-1.15 -8.05 -1.1 -8.0 -1.1 -7.95 -0.8 -7.95 -0.9 -8.05 -0.9 -8.1 -1.4 -8.1 -1.5 -8.2 -1.65 -8.25 -1.7 -8.25 -1.7 -8.3 -1.8 -8.3 -1.85 -8.35 -1.85 -8.4 -1.9 -8.45 -2.0 -8.45 -1.9 -8.35 M-0.2 -9.65 L-0.1 -9.65 -0.1 -9.75 -0.2 -9.75 -0.2 -9.65 M-0.3 -9.55 L-0.3 -9.6 -0.4 -9.6 Q-0.45 -9.6 -0.5 -9.55 L-0.65 -9.55 -0.75 -9.6 -0.8 -9.6 -0.75 -9.55 -0.75 -9.5 -0.6 -9.5 -0.6 -9.45 -0.35 -9.45 -0.35 -9.5 -0.3 -9.5 -0.3 -9.55 M-0.4 -8.05 L-0.55 -8.0 -0.65 -8.0 -0.7 -7.95 -0.5 -7.95 -0.45 -7.9 -0.4 -7.9 -0.35 -7.85 -0.25 -7.85 -0.25 -7.7 -0.3 -7.65 -0.3 -7.55 -0.35 -7.55 -0.35 -7.35 -0.4 -7.35 -0.4 -7.3 -0.5 -7.25 Q-0.6 -7.25 -0.6 -7.2 L-0.65 -7.2 -0.65 -7.1 -0.6 -7.1 -0.6 -7.0 -0.4 -6.95 -0.35 -6.9 -0.3 -6.9 -0.3 -6.8 -0.25 -6.75 -0.25 -6.5 -0.2 -6.5 -0.2 -6.35 -0.15 -6.3 -0.15 -6.2 -0.2 -6.15 -0.2 -6.1 -0.25 -6.05 Q-0.25 -6.0 -0.3 -6.0 L-0.15 -6.0 -0.15 -6.25 -0.1 -6.3 -0.1 -6.4 -0.05 -6.4 -0.05 -6.8 -0.1 -6.85 -0.15 -6.85 -0.15 -6.9 -0.2 -6.9 -0.2 -6.95 -0.3 -6.95 -0.3 -7.0 -0.35 -7.0 -0.35 -7.25 -0.3 -7.3 -0.3 -7.35 -0.25 -7.35 -0.25 -7.4 -0.2 -7.45 -0.2 -7.6 -0.15 -7.6 -0.15 -7.7 -0.2 -7.7 -0.2 -7.8 -0.25 -7.8 -0.25 -7.85 -0.3 -7.9 -0.3 -7.95 -0.35 -7.95 -0.35 -8.0 -0.4 -8.05 M-10.85 -9.55 L-10.85 -9.5 -10.9 -9.5 -10.85 -9.45 -10.7 -9.45 -10.7 -9.5 -10.75 -9.5 -10.8 -9.55 -10.85 -9.55 M-10.75 -8.3 L-10.75 -8.35 -10.8 -8.35 -10.8 -8.3 -10.85 -8.3 -10.85 -8.2 -10.8 -8.15 -10.8 -8.1 -10.75 -8.1 -10.75 -8.05 -10.7 -8.0 -10.65 -8.0 -10.65 -8.05 -10.7 -8.05 -10.7 -8.1 -10.75 -8.1 -10.75 -8.3 M-9.85 -9.45 L-9.95 -9.45 -10.1 -9.5 -10.15 -9.55 -10.2 -9.55 -10.25 -9.6 -10.35 -9.6 -10.35 -9.55 -10.4 -9.55 -10.4 -9.5 -10.45 -9.5 -10.5 -9.45 -10.45 -9.45 -10.4 -9.5 -10.1 -9.5 -10.1 -9.45 -9.85 -9.45 M-9.55 -9.15 L-9.6 -9.15 -9.6 -9.05 -9.65 -9.05 -9.7 -9.0 -9.8 -9.0 -9.8 -8.95 -9.6 -9.0 -9.6 -9.1 -9.55 -9.1 -9.55 -9.2 -9.6 -9.2 -9.6 -9.15 -9.55 -9.15 M-9.95 -8.7 L-9.95 -8.7 M-9.95 -8.55 L-9.95 -8.55 M-10.0 -8.5 L-10.0 -8.5 M-7.1 -6.7 L-7.1 -6.65 -7.15 -6.65 -7.2 -6.6 -7.2 -6.55 -7.25 -6.5 -7.25 -6.4 -7.2 -6.45 -7.2 -6.5 -7.1 -6.5 -7.05 -6.55 -6.9 -6.55 -6.8 -6.65 -6.75 -6.65 -6.7 -6.7 -6.4 -6.7 -6.4 -6.75 -6.15 -6.75 -6.0 -6.6 -5.95 -6.6 -5.95 -6.55 -5.9 -6.55 -5.9 -6.5 -5.85 -6.5 -5.85 -6.55 -5.8 -6.55 -5.8 -6.65 -5.75 -6.65 Q-5.7 -6.7 -5.7 -6.8 L-5.6 -6.9 -5.6 -6.95 -5.55 -7.0 -5.55 -7.4 -5.5 -7.45 -5.5 -7.55 -5.55 -7.5 -5.6 -7.5 -5.6 -7.2 -5.65 -7.2 -5.65 -7.05 -5.75 -6.95 -5.75 -6.9 -5.8 -6.85 -5.8 -6.7 -5.9 -6.7 -5.95 -6.75 -6.2 -6.75 -6.2 -6.8 -6.25 -6.8 -6.25 -6.85 -6.35 -6.85 -6.4 -6.9 Q-6.5 -6.85 -6.65 -6.8 L-6.75 -6.8 -6.8 -6.75 -7.0 -6.75 -7.0 -6.7 -7.1 -6.7 M-7.5 -6.2 L-7.6 -6.2 -7.65 -6.25 -7.7 -6.25 -7.8 -6.3 -7.8 -6.25 -7.85 -6.25 -7.85 -6.3 -7.9 -6.3 -7.9 -6.35 -7.95 -6.35 -7.95 -6.4 -8.0 -6.45 -8.6 -6.45 -8.6 -6.3 -8.7 -6.3 -8.75 -6.25 -8.85 -6.25 -8.85 -6.2 -8.7 -6.2 -8.7 -6.15 -8.55 -6.3 -8.55 -6.35 -8.3 -6.35 -8.25 -6.3 -8.05 -6.3 -8.05 -6.1 -7.9 -6.15 -7.4 -6.15 -7.4 -6.2 -7.35 -6.25 -7.45 -6.2 -7.5 -6.2 M-9.1 -6.3 L-9.15 -6.35 -9.35 -6.3 -9.35 -6.25 -9.3 -6.2 -9.3 -6.1 -9.25 -6.15 -9.2 -6.15 -9.2 -6.2 -9.15 -6.25 -9.0 -6.25 -9.0 -6.3 -9.1 -6.3 M-10.65 -7.9 L-10.6 -7.9 -10.65 -7.9 M-10.6 -6.55 L-10.6 -6.45 -10.65 -6.45 -10.65 -6.3 -10.7 -6.25 -10.7 -6.2 -10.65 -6.1 -10.65 -6.05 -10.5 -6.05 -10.45 -6.1 -10.2 -6.1 -10.15 -6.05 -10.15 -6.0 -10.1 -6.0 -10.1 -5.9 -10.05 -5.85 -10.05 -5.8 -10.0 -5.8 -10.0 -5.65 -9.7 -5.65 -9.55 -5.7 -9.5 -5.75 -9.5 -5.8 -9.45 -5.8 -9.4 -5.85 -9.4 -5.9 -9.35 -5.9 -9.35 -5.95 -9.5 -5.8 -9.95 -5.8 -10.1 -5.95 -10.1 -6.0 -10.15 -6.05 -10.15 -6.1 -10.25 -6.2 -10.5 -6.2 -10.6 -6.3 -10.6 -6.55 M-10.7 -7.45 L-10.7 -7.4 -10.65 -7.4 -10.65 -7.45 -10.7 -7.45 M-1.6 -5.35 L-1.5 -5.35 -1.5 -5.45 -1.45 -5.5 -1.45 -5.55 -1.5 -5.5 -1.55 -5.4 -1.6 -5.35 M-1.65 -4.55 L-1.55 -4.45 -1.45 -4.45 -1.45 -4.4 -1.45 -4.5 -1.6 -4.5 -1.6 -4.55 -1.65 -4.55 M-1.0 -5.6 L-1.0 -5.6 M-1.35 -5.1 L-1.3 -5.05 -1.3 -5.1 -1.35 -5.1 M-1.3 -4.3 L-1.35 -4.3 -1.35 -4.2 -1.3 -4.2 -1.3 -4.0 -1.35 -3.95 -1.35 -3.65 -1.3 -3.65 -1.3 -3.7 -1.25 -3.75 -1.25 -3.95 -1.2 -4.0 -1.2 -4.25 -1.3 -4.25 -1.3 -4.3" fill="#ff8c00" fill-opacity="0.7529412" fill-rule="evenodd" stroke="none"/>
  </g>
</svg>
