<?xml version="1.0" encoding="UTF-8" standalone="no"?>
<svg xmlns:ffdec="https://www.free-decompiler.com/flash" xmlns:xlink="http://www.w3.org/1999/xlink" ffdec:objectType="shape" height="25.95px" width="19.5px" xmlns="http://www.w3.org/2000/svg">
  <g transform="matrix(1.0, 0.0, 0.0, 1.0, 9.4, 13.75)">
    <path d="M10.05 -9.95 Q10.15 -9.65 10.05 -9.1 L9.9 -9.05 9.85 -9.05 Q9.6 -9.1 9.55 -9.45 L9.55 -9.8 9.5 -10.1 9.65 -10.2 9.7 -10.2 Q9.95 -10.1 10.05 -9.95 M1.45 -12.45 L1.55 -12.3 1.4 -12.3 1.4 -12.4 1.45 -12.45 M0.85 -11.9 L0.75 -12.0 0.7 -12.1 0.85 -12.15 0.9 -12.15 1.0 -12.1 Q1.05 -12.05 1.05 -12.0 L0.9 -11.9 0.85 -11.9 M0.1 -10.1 L0.15 -10.1 0.15 -10.15 0.1 -10.15 0.1 -10.1 M1.1 -9.95 L0.5 -9.9 0.25 -9.85 0.0 -9.85 Q-0.15 -9.9 -0.25 -10.0 -0.35 -10.1 -0.3 -10.2 -0.25 -10.35 0.6 -10.35 L1.2 -10.4 1.4 -10.35 1.65 -10.2 Q1.7 -10.15 1.6 -10.05 1.55 -10.0 1.4 -9.95 L1.1 -9.95 M3.95 -9.95 L4.05 -9.95 Q4.25 -9.85 4.25 -9.75 4.3 -9.6 4.1 -9.55 L4.0 -9.55 3.85 -9.75 3.9 -9.9 3.95 -9.95 M4.4 -13.3 L4.4 -13.45 Q4.45 -13.65 4.75 -13.6 L5.0 -13.55 5.2 -13.5 5.1 -13.6 5.55 -13.6 5.8 -13.5 5.8 -13.45 Q5.5 -13.15 5.25 -13.1 5.05 -13.05 4.75 -13.15 L4.55 -13.25 4.4 -13.3 M7.65 -4.35 L7.65 -4.4 7.7 -4.5 7.75 -4.5 7.8 -4.4 7.8 -4.3 7.7 -4.3 7.65 -4.35 M9.85 -9.25 L9.9 -9.3 9.85 -9.3 9.85 -9.25 M8.45 -7.7 Q8.6 -7.65 8.75 -7.5 8.85 -7.35 8.7 -7.2 L8.65 -7.15 8.55 -7.15 Q8.45 -7.2 8.4 -7.35 L8.35 -7.55 8.45 -7.7 M8.5 -5.4 L8.55 -5.5 8.6 -5.55 8.75 -5.55 8.9 -5.4 Q8.95 -5.35 8.9 -5.25 L8.8 -5.15 Q8.75 -5.15 8.65 -5.15 L8.5 -5.2 8.5 -5.4 M2.75 6.05 L2.8 5.95 2.95 5.95 Q3.05 6.0 3.05 6.05 L2.95 6.2 2.85 6.2 2.8 6.1 2.75 6.05 M2.0 7.85 L2.05 7.85 2.2 7.9 2.4 8.0 2.2 8.2 2.05 8.4 2.0 8.35 2.05 8.2 2.0 8.1 1.95 7.95 2.0 7.85 M1.9 11.75 L1.75 11.85 Q1.65 11.9 1.5 11.85 L1.4 11.8 1.4 11.75 1.35 11.75 1.35 11.65 1.45 11.5 1.55 11.4 Q1.55 11.35 1.65 11.3 L1.85 11.25 Q2.05 11.55 1.9 11.75 M-4.25 -11.4 L-4.05 -11.4 -3.9 -11.25 -3.9 -11.0 Q-3.95 -10.85 -4.05 -10.8 L-4.25 -10.8 Q-4.4 -10.85 -4.45 -10.9 L-4.4 -11.1 Q-4.35 -11.35 -4.25 -11.4 M-4.7 -9.9 L-4.7 -9.85 Q-4.75 -9.8 -4.85 -9.8 L-4.95 -9.85 -4.95 -9.95 -4.9 -10.0 -4.8 -10.0 Q-4.7 -10.0 -4.7 -9.9 M-0.2 -12.5 L-0.15 -12.5 -0.05 -12.45 Q0.0 -12.35 -0.05 -12.2 L-0.2 -12.25 -0.25 -12.25 Q-0.3 -12.25 -0.35 -12.3 L-0.35 -12.45 -0.2 -12.5 M-1.75 -10.25 L-1.85 -10.25 -1.85 -10.4 Q-1.8 -10.55 -1.55 -10.5 L-1.3 -10.45 -1.15 -10.4 -1.1 -10.4 -1.35 -10.15 -1.65 -10.2 -1.75 -10.25 M-8.8 -3.15 L-8.9 -3.25 Q-8.95 -3.3 -8.9 -3.45 -8.8 -3.65 -8.55 -3.75 L-8.25 -3.7 Q-7.9 -3.6 -8.25 -3.35 L-8.55 -3.15 -8.8 -3.15 M-0.45 -9.15 Q-0.5 -9.05 -0.7 -8.95 L-1.0 -8.75 -1.35 -8.4 -1.45 -8.2 -1.7 -8.1 -2.15 -8.0 Q-2.9 -7.8 -2.95 -7.65 L-3.05 -7.25 -3.05 -7.2 -2.95 -7.1 -3.05 -6.85 -3.25 -6.45 -3.55 -6.4 -3.75 -6.4 -3.95 -6.65 Q-4.1 -6.9 -4.05 -7.05 -3.9 -7.35 -3.5 -7.65 L-3.25 -7.85 Q-3.1 -7.9 -3.1 -7.95 L-3.15 -8.2 -3.2 -8.4 Q-3.05 -8.75 -2.65 -8.9 L-2.1 -9.1 -1.55 -9.2 -0.95 -9.35 -0.45 -9.15 M-3.95 -5.25 Q-4.1 -5.2 -4.2 -5.1 L-4.3 -4.85 -4.2 -4.55 -4.35 -4.05 -4.5 -3.7 Q-4.65 -3.35 -4.5 -2.95 -4.4 -2.8 -4.55 -2.6 -4.65 -2.45 -4.8 -2.4 L-5.15 -2.2 -5.2 -2.1 Q-5.25 -2.0 -5.4 -1.95 L-5.65 -2.0 -5.75 -2.05 -5.8 -2.1 -5.8 -2.2 -5.55 -2.45 -5.35 -2.6 Q-5.25 -2.8 -5.4 -3.1 L-5.5 -3.45 -5.1 -4.6 Q-4.75 -5.35 -4.45 -5.6 -4.25 -5.75 -4.05 -5.65 L-3.85 -5.55 Q-3.8 -5.5 -3.8 -5.4 -3.85 -5.3 -3.95 -5.25 M-4.55 -7.45 Q-4.5 -7.35 -4.6 -7.15 L-4.8 -7.05 -4.95 -7.05 Q-5.05 -7.1 -5.1 -7.15 L-5.1 -7.25 Q-5.05 -7.4 -4.85 -7.45 L-4.65 -7.55 Q-4.55 -7.5 -4.55 -7.45 M-7.4 -6.35 L-7.3 -6.35 Q-7.05 -6.25 -7.1 -6.1 -7.15 -6.05 -7.2 -6.05 -7.2 -6.0 -7.25 -6.0 -7.25 -5.95 -7.35 -5.8 L-7.5 -5.6 Q-7.55 -5.65 -7.55 -5.8 L-7.55 -6.0 -7.45 -6.1 -7.5 -6.1 Q-7.6 -6.2 -7.55 -6.3 L-7.4 -6.35 M-4.25 -5.35 L-4.25 -5.35 M-6.3 -1.25 Q-6.25 -1.4 -6.0 -1.4 L-5.75 -1.3 -5.65 -1.2 Q-5.6 -1.15 -5.65 -0.85 L-5.45 -0.55 -5.3 -0.25 Q-5.1 0.1 -5.3 0.35 L-5.9 1.05 -6.45 1.6 Q-6.75 1.5 -6.85 1.35 -7.0 1.1 -6.85 0.7 -6.7 0.2 -6.5 0.15 L-6.4 0.1 Q-6.35 0.1 -6.3 0.05 -6.25 -0.25 -6.3 -0.65 -6.35 -1.1 -6.3 -1.25 M-6.25 2.25 Q-6.1 2.3 -5.95 3.2 -5.85 4.0 -5.9 4.15 L-6.1 4.2 Q-6.25 4.2 -6.2 4.3 L-6.3 4.3 -6.55 3.5 -6.75 2.6 -6.65 2.3 Q-6.6 2.2 -6.45 2.25 L-6.25 2.25 M-5.4 6.95 Q-5.05 7.2 -4.95 7.5 -4.8 7.8 -5.3 7.6 L-5.65 7.45 Q-5.9 7.25 -6.05 7.05 -6.6 6.45 -6.4 5.85 L-6.35 5.75 -6.05 5.85 Q-5.85 5.9 -5.7 6.35 L-5.4 6.95 M-4.85 8.3 L-4.95 8.4 -5.1 8.45 -5.25 8.3 -5.05 8.2 -5.0 8.2 -4.9 8.25 -4.85 8.3 M-4.8 8.85 L-4.95 8.85 -5.0 8.7 -4.75 8.6 Q-4.65 8.65 -4.65 8.75 -4.65 8.85 -4.7 8.9 L-4.8 8.85 M-2.5 8.95 Q-2.35 9.0 -2.4 9.1 -2.45 9.15 -2.55 9.15 L-2.8 9.15 -3.0 8.95 -3.05 8.75 Q-3.0 8.7 -2.9 8.7 L-2.8 8.75 Q-2.55 8.85 -2.5 8.95 M-8.85 1.1 Q-8.75 1.15 -8.7 1.25 -8.65 1.3 -8.65 1.4 -8.65 1.45 -8.7 1.5 L-8.95 1.5 -9.1 1.35 -9.1 1.2 Q-9.05 1.1 -8.95 1.1 L-8.85 1.1 M-8.4 2.45 L-8.25 2.5 -8.25 2.65 -8.4 2.75 -8.5 2.65 -8.6 2.5 -8.45 2.45 -8.4 2.45 M-9.25 4.45 Q-9.15 4.2 -9.05 4.1 L-8.85 3.9 -8.75 3.9 Q-8.5 4.0 -8.7 4.5 L-8.9 4.9 -9.0 5.2 -9.2 4.85 Q-9.3 4.6 -9.25 4.45 M-9.15 5.4 L-9.1 5.35 -8.95 5.35 Q-8.85 5.4 -8.8 5.5 -8.7 5.65 -8.8 5.8 L-8.95 5.8 -9.05 5.65 -9.15 5.4 M-0.6 11.9 Q-0.55 11.95 -0.5 12.0 L-0.5 12.1 Q-0.6 12.25 -0.8 12.15 L-0.95 12.05 -1.05 11.9 -0.6 11.9 M-3.9 11.35 Q-4.15 11.1 -4.1 10.95 L-4.05 10.85 -4.0 10.85 -3.85 10.9 -3.6 11.1 -3.3 11.4 Q-3.2 11.55 -3.25 11.65 -3.25 11.7 -3.55 11.65 L-3.9 11.35" fill="#59a5ff" fill-opacity="0.5019608" fill-rule="evenodd" stroke="none"/>
    <path d="M0.95 -10.35 L1.1 -10.25 1.25 -10.1 0.7 -10.0 0.15 -9.95 Q0.0 -10.05 -0.1 -10.1 -0.2 -10.15 -0.15 -10.25 -0.05 -10.5 0.45 -10.45 L0.95 -10.35 M5.0 -13.6 L5.25 -13.55 5.4 -13.45 Q5.45 -13.35 5.4 -13.3 5.3 -13.1 4.9 -13.25 4.8 -13.3 4.75 -13.35 4.65 -13.4 4.65 -13.5 4.7 -13.65 5.0 -13.6 M9.95 -9.8 Q10.2 -9.7 10.0 -9.5 L9.8 -9.5 Q9.75 -9.55 9.7 -9.55 L9.7 -9.7 9.85 -9.8 9.95 -9.8 M-4.35 -11.0 L-4.55 -11.1 -4.55 -11.25 Q-4.5 -11.4 -4.4 -11.4 L-4.3 -11.4 Q-4.0 -11.3 -4.1 -11.1 -4.15 -11.05 -4.25 -11.0 -4.3 -10.95 -4.35 -11.0 M-1.8 -10.6 L-1.6 -10.6 -1.5 -10.5 -1.5 -10.45 Q-1.55 -10.35 -1.6 -10.3 L-1.7 -10.3 -1.8 -10.35 -1.85 -10.5 -1.8 -10.6 M-8.8 -3.55 Q-8.9 -3.6 -8.9 -3.7 -8.8 -3.9 -8.5 -3.8 -8.25 -3.7 -8.35 -3.55 L-8.5 -3.45 -8.65 -3.45 -8.8 -3.55 M-1.0 -8.8 Q-1.1 -8.7 -1.4 -8.55 L-2.05 -8.4 -2.5 -8.4 -2.65 -8.45 Q-2.75 -8.55 -2.7 -8.65 -2.6 -8.85 -1.9 -8.95 L-1.25 -9.05 Q-0.9 -8.95 -1.0 -8.8 M-3.4 -7.5 Q-3.25 -7.45 -3.25 -7.35 -3.25 -7.2 -3.3 -7.1 L-3.45 -6.9 Q-3.6 -6.85 -3.7 -6.9 -3.8 -6.9 -3.85 -7.05 -3.9 -7.2 -3.85 -7.3 -3.8 -7.45 -3.6 -7.5 L-3.4 -7.5 M-5.0 -7.55 L-4.9 -7.55 Q-4.7 -7.45 -4.75 -7.3 L-4.85 -7.2 -5.0 -7.25 Q-5.15 -7.25 -5.2 -7.35 L-5.2 -7.45 Q-5.2 -7.55 -5.0 -7.55 M-4.65 -5.1 L-4.75 -5.05 -4.75 -5.15 -4.7 -5.15 -4.65 -5.1 M-4.65 -4.75 L-4.6 -4.55 -4.85 -3.7 Q-4.9 -3.45 -4.85 -3.25 -4.7 -2.95 -4.9 -2.75 -5.05 -2.55 -5.25 -2.65 -5.45 -2.75 -5.4 -2.9 L-5.3 -3.05 -5.3 -3.6 Q-5.3 -4.15 -5.2 -4.4 -5.05 -4.8 -4.9 -4.8 L-4.75 -4.8 -4.65 -4.75 M-6.1 -1.0 L-5.95 -0.95 -5.8 -0.85 Q-5.7 -0.7 -5.75 -0.55 -5.8 -0.4 -5.95 -0.4 L-6.05 -0.4 Q-6.2 -0.45 -6.2 -0.6 -6.25 -0.75 -6.25 -0.8 -6.15 -1.0 -6.1 -1.0 M-5.8 0.5 Q-5.9 0.65 -6.1 0.7 L-6.4 0.75 Q-6.6 0.7 -6.65 0.6 -6.65 0.55 -6.6 0.35 -6.5 0.1 -6.25 0.05 L-5.95 0.05 Q-5.75 0.1 -5.7 0.25 -5.7 0.4 -5.8 0.5 M-6.45 2.6 Q-6.35 2.65 -6.2 2.9 -6.1 3.1 -6.1 3.35 -6.05 3.65 -6.1 3.8 -6.2 3.95 -6.4 3.9 L-6.6 3.3 -6.7 2.7 Q-6.65 2.6 -6.55 2.6 L-6.45 2.6 M-5.85 6.55 Q-5.8 6.7 -5.85 6.75 L-6.1 6.75 Q-6.3 6.7 -6.4 6.5 -6.55 6.3 -6.5 6.2 -6.45 6.05 -6.35 6.05 L-6.25 6.05 Q-6.15 6.1 -6.05 6.25 -5.9 6.4 -5.85 6.55 M-5.9 7.15 Q-5.85 6.95 -5.65 7.05 -5.5 7.1 -5.4 7.2 L-5.3 7.4 Q-5.25 7.5 -5.35 7.55 L-5.6 7.5 -5.8 7.35 Q-5.9 7.2 -5.9 7.15 M-9.2 4.25 L-9.05 4.25 Q-8.95 4.3 -8.9 4.45 -8.85 4.55 -8.9 4.65 -8.9 4.8 -9.0 4.85 L-9.2 4.85 -9.35 4.7 Q-9.4 4.6 -9.35 4.45 -9.3 4.3 -9.2 4.25 M-3.9 11.45 Q-4.0 11.4 -4.05 11.3 L-4.0 11.2 -3.85 11.2 Q-3.75 11.25 -3.65 11.35 L-3.5 11.5 -3.55 11.55 -3.7 11.55 -3.9 11.45 M1.65 11.5 L1.8 11.55 Q2.05 11.65 1.95 11.75 L1.8 11.85 Q1.7 11.9 1.65 11.85 L1.5 11.75 1.5 11.6 1.55 11.55 1.65 11.5" fill="#8cc1ff" fill-opacity="0.7529412" fill-rule="evenodd" stroke="none"/>
    <path d="M0.45 -10.3 L0.45 -10.4 0.5 -10.5 0.65 -10.45 Q0.8 -10.4 0.8 -10.25 L0.7 -10.2 0.55 -10.25 0.45 -10.3 M5.2 -13.65 L5.2 -13.55 5.1 -13.4 4.95 -13.4 4.9 -13.5 Q4.85 -13.55 4.85 -13.6 L4.95 -13.7 5.05 -13.7 5.15 -13.65 5.2 -13.65 M-1.55 -9.0 Q-1.4 -8.95 -1.4 -8.85 -1.4 -8.8 -1.45 -8.75 -1.55 -8.7 -1.7 -8.65 L-1.95 -8.7 -2.15 -8.8 -1.85 -8.95 -1.55 -9.0 M-4.65 -4.0 Q-4.7 -3.9 -4.75 -3.9 L-4.95 -3.9 Q-5.1 -3.95 -5.15 -4.2 L-5.0 -4.3 -4.85 -4.25 -4.65 -4.15 Q-4.65 -4.05 -4.65 -4.0 M-6.5 0.15 Q-6.5 0.05 -6.35 0.05 L-6.25 0.05 Q-6.15 0.1 -6.1 0.2 -6.05 0.25 -6.1 0.35 L-6.2 0.45 Q-6.25 0.5 -6.35 0.45 L-6.5 0.3 -6.5 0.15 M-6.35 3.2 L-6.5 3.2 -6.65 3.1 -6.65 2.95 Q-6.65 2.85 -6.5 2.85 L-6.4 2.85 -6.25 3.0 Q-6.2 3.05 -6.25 3.1 -6.25 3.15 -6.35 3.2 M-5.55 7.35 L-5.65 7.35 -5.65 7.25 -5.55 7.3 -5.55 7.35 M-6.2 6.35 Q-6.1 6.4 -6.05 6.45 -6.0 6.6 -6.1 6.7 L-6.2 6.65 Q-6.35 6.6 -6.4 6.55 L-6.45 6.4 Q-6.4 6.3 -6.2 6.35 M-9.25 4.65 L-9.3 4.55 -9.35 4.5 -9.25 4.4 -9.2 4.45 -9.1 4.5 -9.15 4.65 -9.25 4.65" fill="#bfdcff" fill-opacity="0.7529412" fill-rule="evenodd" stroke="none"/>
    <path d="M0.7 -10.3 L0.65 -10.35 0.75 -10.4 0.85 -10.4 Q0.9 -10.3 0.8 -10.25 L0.7 -10.25 0.7 -10.3 M-8.6 -3.55 L-8.7 -3.65 -8.6 -3.7 -8.55 -3.65 -8.55 -3.55 -8.6 -3.55 M-1.9 -8.8 L-1.8 -8.85 -1.8 -8.9 -1.7 -8.9 Q-1.65 -8.85 -1.65 -8.8 L-1.65 -8.7 Q-1.7 -8.65 -1.8 -8.65 L-1.9 -8.8 M-5.2 -4.1 L-5.05 -4.15 -5.0 -4.15 -5.0 -4.1 Q-5.0 -4.05 -4.85 -4.0 -4.9 -3.9 -5.0 -3.9 L-5.1 -3.95 Q-5.2 -4.0 -5.2 -4.1 M-6.35 0.25 L-6.45 0.2 -6.45 0.15 -6.5 0.1 -6.4 0.05 -6.3 0.15 -6.3 0.25 -6.35 0.25 M-6.35 3.2 L-6.5 3.25 -6.55 3.15 -6.65 3.05 -6.5 3.0 -6.45 3.05 -6.35 3.05 Q-6.3 3.15 -6.35 3.2 M-5.7 7.3 L-5.65 7.35 -5.7 7.45 -5.8 7.35 -5.7 7.3 M-6.25 6.6 L-6.35 6.6 -6.4 6.55 -6.45 6.45 -6.4 6.4 -6.25 6.4 Q-6.15 6.45 -6.2 6.55 L-6.25 6.6 M-9.3 4.65 L-9.4 4.55 -9.4 4.45 -9.35 4.4 -9.25 4.4 -9.15 4.45 Q-9.15 4.55 -9.2 4.65 L-9.3 4.65" fill="#ffffff" fill-rule="evenodd" stroke="none"/>
  </g>
</svg>
