<?xml version="1.0" encoding="UTF-8" standalone="no"?>
<svg xmlns:ffdec="https://www.free-decompiler.com/flash" xmlns:xlink="http://www.w3.org/1999/xlink" ffdec:objectType="shape" height="28.55px" width="28.6px" xmlns="http://www.w3.org/2000/svg">
  <g transform="matrix(1.0, 0.0, 0.0, 1.0, 14.25, 14.3)">
    <path d="M3.3 -4.65 Q3.15 -4.65 3.05 -4.7 3.15 -4.9 3.5 -4.7 3.45 -4.65 3.3 -4.65 M7.6 0.0 Q7.6 -3.15 5.35 -5.35 3.15 -7.55 0.05 -7.55 -3.05 -7.55 -5.3 -5.35 -7.5 -3.15 -7.5 0.0 -7.5 3.1 -5.3 5.3 -3.05 7.5 0.05 7.5 3.15 7.5 5.35 5.3 7.6 3.1 7.6 0.0 M10.15 -10.1 Q14.35 -5.95 14.35 0.0 14.35 5.9 10.15 10.1 5.95 14.25 0.05 14.25 -5.85 14.25 -10.05 10.1 -14.25 5.9 -14.25 0.0 -14.25 -5.95 -10.05 -10.1 -5.85 -14.3 0.05 -14.3 5.95 -14.3 10.15 -10.1 M6.35 3.0 L6.15 3.35 Q6.0 3.55 5.8 3.55 5.8 3.5 5.75 3.55 L5.75 3.3 Q5.75 3.1 5.85 3.0 5.9 2.95 6.15 2.8 6.3 2.9 6.35 3.0 M-5.3 -3.95 L-5.45 -3.95 -5.5 -4.05 -5.55 -4.3 Q-5.55 -4.7 -4.65 -5.45 -3.75 -6.2 -3.45 -6.0 -5.0 -4.45 -5.3 -3.95 M-1.2 6.55 L-0.85 6.65 -0.55 6.75 -0.5 6.85 -0.55 6.95 -1.25 6.95 Q-1.25 6.9 -1.3 6.8 L-1.35 6.65 -1.3 6.6 -1.2 6.55" fill="url(#gradient0)" fill-rule="evenodd" stroke="none"/>
  </g>
  <defs>
    <linearGradient gradientTransform="matrix(0.0, -0.0174, 0.0174, 0.0, 0.05, 0.0)" gradientUnits="userSpaceOnUse" id="gradient0" spreadMethod="pad" x1="-819.2" x2="819.2">
      <stop offset="0.0" stop-color="#009ec6" stop-opacity="0.1764706"/>
      <stop offset="1.0" stop-color="#51dcff" stop-opacity="0.1764706"/>
    </linearGradient>
  </defs>
</svg>
