<?xml version="1.0" encoding="UTF-8" standalone="no"?>
<svg xmlns:ffdec="https://www.free-decompiler.com/flash" xmlns:xlink="http://www.w3.org/1999/xlink" ffdec:objectType="shape" height="9.85px" width="4.2px" xmlns="http://www.w3.org/2000/svg">
  <g transform="matrix(1.0, 0.0, 0.0, 1.0, 6.75, -1.05)">
    <path d="M-2.8 1.15 L-2.8 1.1 -2.7 1.05 -2.65 1.05 Q-2.5 1.1 -2.6 1.15 L-2.8 1.2 -2.8 1.15 M-4.55 4.75 L-4.6 4.85 -4.7 4.8 -4.75 4.8 -4.75 4.75 -4.7 4.65 -4.6 4.7 -4.55 4.75 M-6.75 9.75 L-6.7 9.75 -6.6 9.8 -6.6 9.9 -6.7 9.9 -6.75 9.85 -6.75 9.8 -6.7 9.75 -6.75 9.75 M-5.05 8.9 L-5.1 8.85 -5.1 8.75 -4.95 8.75 Q-4.9 8.8 -4.95 8.85 L-5.05 8.9 M-4.6 10.85 L-4.6 10.9 -4.65 10.85 -4.65 10.8 -4.6 10.85" fill="#59a5ff" fill-opacity="0.5019608" fill-rule="evenodd" stroke="none"/>
  </g>
</svg>
