<?xml version="1.0" encoding="UTF-8" standalone="no"?>
<svg xmlns:ffdec="https://www.free-decompiler.com/flash" xmlns:xlink="http://www.w3.org/1999/xlink" ffdec:objectType="shape" height="5.7px" width="13.8px" xmlns="http://www.w3.org/2000/svg">
  <g transform="matrix(1.0, 0.0, 0.0, 1.0, 6.75, -0.55)">
    <path d="M7.05 0.95 L7.0 1.05 Q6.95 1.05 6.9 1.05 L6.9 1.0 6.85 1.0 Q6.85 0.95 6.85 0.9 6.85 0.7 6.95 0.65 7.05 0.6 7.05 0.8 L7.05 0.95 M6.65 1.15 Q6.75 1.15 6.75 1.35 6.7 1.6 6.65 1.7 L6.55 1.7 6.5 1.6 Q6.5 1.55 6.5 1.5 6.5 1.4 6.55 1.3 L6.65 1.15 M5.55 1.9 L5.6 1.9 5.6 2.05 5.4 2.05 5.4 2.0 Q5.4 1.95 5.4 1.9 L5.55 1.9 M6.25 1.15 L6.25 1.25 Q6.25 1.35 6.15 1.35 L6.05 1.35 Q6.05 1.3 6.0 1.25 L6.05 1.2 Q6.1 1.2 6.1 1.15 L6.1 1.1 6.25 1.1 6.25 1.15 M5.85 1.4 Q5.9 1.5 5.85 1.6 5.8 1.7 5.75 1.75 5.65 1.7 5.65 1.65 5.65 1.6 5.7 1.5 5.75 1.45 5.8 1.4 L5.85 1.4 M3.65 3.25 L3.75 3.3 3.75 3.35 Q3.75 3.4 3.65 3.45 L3.6 3.35 3.55 3.3 3.55 3.25 3.65 3.25 M3.8 3.55 L3.8 3.55 M3.8 3.45 Q3.9 3.3 4.1 3.3 L4.25 3.3 4.25 3.45 4.2 3.45 4.2 3.5 Q4.2 3.55 3.9 3.65 3.8 3.65 3.7 3.6 3.75 3.55 3.8 3.45 M5.5 3.8 L5.5 3.85 Q5.55 3.85 5.65 3.7 5.8 3.55 5.8 3.5 5.8 3.45 5.85 3.3 5.9 3.2 5.95 3.2 6.0 3.25 6.0 3.4 6.0 3.55 5.95 3.8 5.85 4.05 5.75 4.2 5.7 4.2 5.7 4.15 5.6 4.2 5.55 4.35 5.5 4.4 5.5 4.55 L5.5 4.6 Q5.45 4.5 5.4 4.3 L5.4 4.05 Q5.4 3.85 5.45 3.8 L5.5 3.8 M1.15 2.85 L1.1 2.85 1.1 2.8 Q1.15 2.75 1.2 2.7 1.3 2.6 1.45 2.65 L1.55 2.75 1.55 2.9 1.5 2.95 1.25 2.95 Q1.2 2.9 1.2 2.85 L1.15 2.85 M0.1 3.3 L0.05 3.2 Q-0.05 3.15 0.0 3.1 0.05 3.05 0.15 3.05 0.25 3.05 0.3 3.1 L0.3 3.25 0.25 3.3 0.1 3.3 M0.3 3.8 Q0.3 3.75 0.4 3.7 L0.45 3.7 0.45 3.85 0.4 3.9 0.3 3.85 0.3 3.8 M1.9 3.65 L1.95 3.65 1.95 3.7 Q1.95 3.8 1.8 3.9 1.75 3.85 1.7 3.8 L1.7 3.75 Q1.7 3.7 1.7 3.65 1.75 3.6 1.85 3.6 L1.9 3.65 M2.55 4.2 Q2.55 4.25 2.5 4.25 L2.45 4.3 2.35 4.3 2.35 4.2 Q2.35 4.15 2.4 4.1 L2.5 4.1 2.5 4.15 Q2.55 4.15 2.55 4.2 M1.7 5.05 L1.65 5.1 1.55 5.05 1.5 5.05 Q1.5 5.1 1.45 5.1 L1.4 5.05 Q1.35 5.05 1.35 5.0 L1.35 4.95 Q1.35 4.85 1.4 4.75 L1.5 4.7 Q1.6 4.7 1.65 4.8 1.7 4.9 1.7 4.95 L1.7 5.05 M1.85 5.3 Q1.9 5.4 1.9 5.45 1.9 5.5 1.9 5.55 L1.8 5.65 Q1.7 5.6 1.65 5.55 L1.65 5.4 Q1.65 5.25 1.8 5.15 1.85 5.2 1.85 5.3 M2.25 5.8 L2.25 5.8 M2.3 5.8 L2.05 6.05 Q1.9 6.2 1.85 6.25 L1.8 6.25 1.75 6.15 Q1.75 6.1 1.75 6.05 1.75 6.0 1.75 5.95 L1.8 5.85 1.85 5.85 2.15 5.75 2.25 5.65 Q2.3 5.55 2.35 5.5 L2.5 5.35 2.7 5.35 2.7 5.3 2.75 5.35 Q2.7 5.4 2.65 5.45 L2.6 5.6 2.5 5.6 2.5 5.65 Q2.5 5.7 2.45 5.75 2.4 5.8 2.35 5.85 L2.3 5.85 2.3 5.8 M3.05 5.0 L3.1 4.9 Q3.1 4.8 3.15 4.8 L3.2 4.8 Q3.25 4.8 3.25 4.85 3.25 4.95 3.15 5.05 3.05 5.05 3.05 5.0 M1.45 4.35 L1.35 4.45 1.25 4.45 1.25 4.3 Q1.25 4.05 1.4 4.0 1.45 4.0 1.5 4.05 1.55 4.05 1.55 4.15 1.55 4.25 1.45 4.3 L1.45 4.35 M0.95 4.0 L1.05 4.1 Q1.0 4.1 1.0 4.15 1.0 4.2 0.9 4.2 0.85 4.2 0.8 4.15 L0.8 4.1 Q0.8 4.05 0.85 3.95 L0.9 4.0 0.95 4.0 M0.2 4.2 L0.2 4.3 Q0.15 4.35 0.15 4.4 0.1 4.35 0.05 4.35 0.05 4.3 0.05 4.25 L0.05 4.2 Q0.05 4.15 0.1 4.15 L0.15 4.15 0.2 4.2 M0.45 5.35 L0.35 5.35 0.25 5.3 0.2 5.25 Q0.15 5.2 0.15 5.15 0.15 4.95 0.3 5.05 0.5 5.1 0.5 5.25 0.5 5.3 0.45 5.35 M0.4 5.35 Q0.45 5.45 0.6 5.45 0.7 5.45 0.75 5.45 L0.8 5.4 Q0.85 5.35 0.85 5.3 L0.9 5.3 0.95 5.5 0.95 5.75 0.85 5.85 0.75 5.85 0.75 5.8 0.5 5.6 Q0.35 5.5 0.35 5.4 L0.4 5.35 M5.45 4.3 L5.45 4.35 5.5 4.35 5.45 4.3 M4.95 5.0 Q4.95 5.2 4.75 5.55 L4.45 6.05 4.45 5.95 4.4 5.95 4.3 5.9 Q4.3 5.8 4.3 5.55 4.3 5.5 4.25 5.4 L4.25 5.1 Q4.3 5.15 4.3 5.25 4.3 5.3 4.35 5.3 L4.55 5.4 Q4.6 5.25 4.7 5.05 L4.85 4.8 Q4.95 4.85 4.95 4.9 L4.95 5.0 M4.35 4.3 L4.4 4.3 Q4.45 4.3 4.5 4.4 4.6 4.5 4.6 4.55 L4.6 4.85 4.55 4.9 4.5 4.9 Q4.5 4.95 4.45 4.95 L4.35 4.95 4.3 4.8 Q4.3 4.75 4.3 4.7 L4.3 4.55 4.35 4.55 Q4.35 4.45 4.4 4.4 L4.35 4.4 Q4.35 4.45 4.35 4.35 L4.35 4.3 M4.1 4.55 Q4.2 4.6 4.2 4.65 L4.2 4.7 Q4.2 4.75 4.2 4.8 4.15 4.85 4.05 4.9 4.0 4.9 3.95 4.8 3.9 4.75 3.9 4.7 3.9 4.65 3.95 4.6 L4.05 4.55 4.1 4.55 M4.35 4.8 L4.35 4.8 M3.8 5.0 Q3.8 5.1 3.7 5.25 L3.5 5.45 3.45 5.4 3.35 5.4 3.35 5.0 Q3.35 4.95 3.4 4.8 3.45 4.8 3.5 4.9 L3.55 5.0 3.8 5.0 M4.35 5.45 L4.35 5.45 M-2.55 3.2 L-2.6 3.1 -2.65 3.1 Q-2.65 3.0 -2.55 2.95 L-2.45 2.95 Q-2.35 3.0 -2.35 3.05 L-2.35 3.1 -2.4 3.15 Q-2.4 3.2 -2.45 3.2 L-2.55 3.2 M-1.8 3.35 L-1.8 3.5 Q-1.85 3.55 -1.9 3.55 -2.0 3.55 -2.05 3.45 -2.05 3.4 -2.05 3.3 L-2.05 3.25 -1.9 3.25 Q-1.85 3.3 -1.8 3.35 M-0.9 3.65 L-0.85 3.65 -0.85 3.7 Q-0.85 3.75 -0.9 3.8 L-0.95 3.8 -0.95 3.85 -1.0 3.85 -1.05 3.8 -1.15 3.8 Q-1.1 3.8 -1.15 3.75 L-1.15 3.7 -1.05 3.6 -0.95 3.6 -0.9 3.65 M-6.3 0.6 L-6.3 0.65 -6.4 0.75 -6.4 0.6 -6.35 0.55 -6.3 0.6 M-6.3 1.95 L-6.2 1.95 -6.2 2.0 Q-6.2 2.05 -6.3 2.25 -6.4 2.45 -6.4 2.5 -6.5 2.5 -6.55 2.45 L-6.55 2.35 -6.6 2.5 Q-6.65 2.65 -6.7 2.65 -6.75 2.65 -6.75 2.55 L-6.75 2.15 -6.7 1.85 -6.7 1.8 Q-6.65 1.7 -6.6 1.7 L-6.6 2.05 Q-6.55 2.05 -6.5 2.05 -6.45 2.05 -6.4 2.05 L-6.3 1.95 M-6.05 2.9 L-5.95 3.05 Q-5.85 3.15 -5.85 3.2 -5.75 3.3 -5.85 3.35 L-5.8 3.4 -5.7 3.4 -5.65 3.3 -5.55 3.25 -5.5 3.25 -5.5 3.3 Q-5.5 3.4 -5.65 3.65 -5.7 3.65 -5.7 3.75 -5.75 3.9 -5.75 3.95 -5.9 3.85 -5.95 3.65 L-6.0 3.3 -6.05 3.05 Q-6.15 2.85 -6.15 2.75 L-6.1 2.75 Q-6.05 2.75 -6.05 2.9 M-5.85 2.7 L-5.85 2.65 -5.7 2.65 -5.65 2.75 -5.65 2.8 Q-5.65 2.85 -5.65 2.95 L-5.7 3.05 -5.75 3.05 Q-5.85 3.05 -5.85 2.8 L-5.85 2.7 M-5.05 3.3 L-5.2 3.3 -5.25 3.25 -5.25 3.2 Q-5.25 3.05 -5.25 3.0 -5.1 2.9 -5.05 2.95 -4.95 3.0 -4.95 3.1 L-5.05 3.3 M-4.2 2.4 Q-4.2 2.45 -4.2 2.5 L-4.25 2.6 -4.3 2.6 Q-4.35 2.5 -4.35 2.45 -4.35 2.35 -4.25 2.3 L-4.2 2.3 Q-4.2 2.35 -4.2 2.4 M-4.1 2.85 Q-3.95 2.95 -3.9 3.05 L-3.9 3.2 Q-3.9 3.3 -3.9 3.35 L-3.9 3.4 -4.0 3.35 -4.15 3.2 Q-4.15 3.1 -4.15 3.0 L-4.15 2.9 -4.1 2.85 M-3.8 3.2 Q-3.7 3.25 -3.7 3.3 L-3.7 3.35 -3.75 3.4 Q-3.8 3.35 -3.85 3.35 L-3.85 3.2 -3.8 3.2 M-3.25 3.6 L-3.2 3.65 Q-3.2 3.7 -3.2 3.75 L-3.25 3.8 -3.4 3.8 -3.4 3.75 Q-3.45 3.75 -3.5 3.7 L-3.55 3.65 Q-3.55 3.6 -3.5 3.55 L-3.4 3.5 -3.3 3.5 -3.25 3.6 M-4.1 4.5 L-4.15 4.6 Q-4.25 4.6 -4.35 4.45 -4.4 4.3 -4.4 4.25 -4.4 4.15 -4.35 4.1 -4.3 4.1 -4.2 4.2 -4.05 4.35 -4.05 4.45 L-4.1 4.5 M-3.45 5.1 Q-3.45 5.2 -3.5 5.3 L-3.55 5.3 -3.65 5.15 Q-3.7 5.05 -3.7 5.0 -3.7 4.85 -3.6 4.9 -3.45 4.9 -3.45 5.1 M-3.5 5.35 L-3.35 5.55 Q-3.3 5.6 -3.25 5.65 L-3.15 5.75 -3.1 5.75 -3.1 5.65 -3.05 5.6 -3.0 5.6 Q-2.95 5.55 -2.9 5.45 -2.85 5.3 -2.8 5.25 -2.8 5.3 -2.75 5.3 L-2.75 5.8 Q-2.75 5.85 -2.75 5.95 L-2.8 6.0 -2.8 6.05 Q-2.85 6.2 -2.9 6.2 -3.0 6.2 -3.1 6.05 L-3.15 6.05 Q-3.3 5.9 -3.4 5.7 L-3.55 5.35 -3.5 5.35 M-0.85 4.95 Q-0.7 5.0 -0.7 5.15 L-0.7 5.2 -0.75 5.25 Q-0.85 5.25 -0.9 5.2 -0.95 5.15 -0.95 5.1 -0.95 4.95 -0.85 4.95 M-0.2 5.2 L-0.2 5.45 -0.3 5.45 -0.35 5.5 Q-0.4 5.6 -0.45 5.65 L-0.55 5.65 Q-0.55 5.6 -0.6 5.45 -0.65 5.35 -0.65 5.3 L-0.35 5.3 -0.25 5.2 -0.2 5.2 M-2.25 4.35 Q-2.25 4.4 -2.3 4.45 L-2.4 4.5 -2.5 4.5 -2.55 4.45 Q-2.6 4.4 -2.6 4.35 -2.6 3.95 -2.4 4.05 -2.35 4.1 -2.3 4.2 -2.25 4.3 -2.25 4.35 M-2.15 4.55 L-1.65 4.55 -1.65 4.6 -1.75 4.75 Q-1.8 4.85 -1.9 4.9 L-1.95 4.9 Q-2.0 4.85 -2.1 4.75 -2.15 4.65 -2.15 4.6 L-2.15 4.55 M-6.45 1.75 L-6.45 1.95 -6.55 1.95 -6.55 1.85 Q-6.55 1.75 -6.5 1.75 L-6.45 1.75" fill="#ffffff" fill-rule="evenodd" stroke="none"/>
  </g>
</svg>
