<?xml version="1.0" encoding="UTF-8" standalone="no"?>
<svg xmlns:ffdec="https://www.free-decompiler.com/flash" xmlns:xlink="http://www.w3.org/1999/xlink" ffdec:objectType="shape" height="5.3px" width="14.4px" xmlns="http://www.w3.org/2000/svg">
  <g transform="matrix(1.0, 0.0, 0.0, 1.0, 7.05, -1.5)">
    <path d="M7.35 1.5 L7.35 1.6 Q7.2 1.6 7.15 1.65 L7.15 1.6 Q7.25 1.5 7.35 1.5 M6.75 2.0 Q6.8 2.0 6.8 2.05 L6.7 2.1 6.65 2.1 Q6.65 2.05 6.7 2.05 L6.7 2.0 6.75 2.0 M0.85 6.15 L0.85 6.2 0.8 6.25 0.75 6.25 0.7 6.2 Q0.75 6.2 0.8 6.15 L0.85 6.15 M2.05 6.75 L2.0 6.8 1.95 6.75 1.95 6.7 2.0 6.65 2.05 6.7 2.05 6.75 M5.7 5.0 L5.7 5.05 5.65 5.15 5.6 5.2 5.55 5.2 Q5.55 5.15 5.55 5.1 5.55 5.05 5.6 5.0 L5.7 5.0 M4.2 4.05 L4.2 4.1 4.05 4.1 4.05 4.05 4.1 4.0 4.2 3.95 Q4.2 4.0 4.2 4.05 M4.5 6.55 L4.5 6.65 4.45 6.7 Q4.4 6.65 4.4 6.6 4.4 6.55 4.45 6.55 L4.5 6.55 M4.7 6.65 L4.7 6.6 Q4.7 6.55 4.85 6.5 L4.9 6.5 4.9 6.55 4.8 6.75 4.75 6.75 Q4.75 6.7 4.7 6.7 L4.75 6.7 4.7 6.65 M3.55 6.0 L3.45 6.1 3.45 6.0 Q3.45 5.95 3.5 5.95 L3.55 5.95 3.55 6.0 M-5.05 3.6 Q-5.1 3.55 -5.1 3.5 L-5.05 3.5 Q-5.05 3.55 -5.05 3.6 M-4.15 3.65 L-4.15 3.7 -4.2 3.7 Q-4.25 3.7 -4.25 3.65 L-4.3 3.65 -4.3 3.6 -4.25 3.55 -4.15 3.6 -4.15 3.65 M-5.85 4.35 L-5.8 4.35 -5.8 4.4 Q-5.8 4.45 -5.85 4.45 L-5.9 4.5 -5.95 4.5 -6.0 4.45 Q-6.0 4.35 -5.9 4.35 L-5.85 4.35 M-6.3 4.0 L-6.3 4.05 -6.4 4.0 Q-6.4 3.95 -6.4 3.9 L-6.35 3.9 Q-6.3 3.95 -6.3 4.0 M-3.3 6.4 Q-3.3 6.45 -3.3 6.5 L-3.3 6.55 -3.4 6.55 -3.4 6.5 Q-3.4 6.45 -3.35 6.4 L-3.3 6.4 M-2.9 6.55 L-2.85 6.6 -2.9 6.65 -2.9 6.7 -3.0 6.7 -3.0 6.55 -2.9 6.55 M-0.4 6.0 L-0.35 6.05 -0.45 6.05 Q-0.45 6.0 -0.4 6.0 M-6.95 2.95 L-7.05 2.9 -7.05 2.75 Q-7.0 2.75 -6.95 2.75 -6.9 2.8 -6.9 2.9 L-6.95 2.95" fill="#ffffff" fill-rule="evenodd" stroke="none"/>
  </g>
</svg>
