<?xml version="1.0" encoding="UTF-8" standalone="no"?>
<svg xmlns:ffdec="https://www.free-decompiler.com/flash" xmlns:xlink="http://www.w3.org/1999/xlink" ffdec:objectType="shape" height="7.65px" width="9.05px" xmlns="http://www.w3.org/2000/svg">
  <g transform="matrix(1.0, 0.0, 0.0, 1.0, 6.1, 1.85)">
    <path d="M1.2 -1.0 L1.2 -0.9 1.15 -0.85 Q1.1 -0.9 1.1 -0.95 1.1 -1.0 1.2 -1.05 L1.2 -1.0 M1.25 -0.35 L1.25 -0.4 Q1.25 -0.45 1.25 -0.55 L1.35 -0.65 1.35 -0.6 1.4 -0.65 1.4 -0.6 1.5 -0.5 1.45 -0.3 1.45 -0.15 Q1.45 -0.05 1.5 0.05 1.55 0.15 1.55 0.4 1.55 0.55 1.5 0.55 L1.35 0.6 1.25 0.65 Q1.2 0.7 1.15 0.7 1.1 0.7 1.05 0.65 1.0 0.55 1.05 0.45 L1.05 0.35 0.85 0.45 Q0.75 0.5 0.75 0.4 0.75 0.35 0.9 0.3 1.05 0.2 1.1 0.2 1.15 0.2 1.15 0.25 L1.2 0.3 1.2 0.4 1.35 0.4 1.35 0.3 1.3 0.1 1.25 -0.15 1.25 -0.35 M1.45 -0.1 Q1.45 0.1 1.45 0.15 L1.45 -0.1 M2.6 1.25 L2.6 1.35 Q2.6 1.4 2.5 1.5 2.4 1.6 2.35 1.6 2.2 1.6 2.25 1.4 2.25 1.2 2.4 1.2 L2.45 1.0 2.45 0.85 2.5 0.85 2.55 0.8 Q2.7 0.8 2.7 1.1 2.7 1.15 2.6 1.25 M2.25 1.8 L2.25 2.25 2.3 2.3 2.35 2.4 2.35 2.8 2.4 2.8 2.4 2.9 2.35 2.95 2.35 3.15 Q2.45 3.25 2.55 3.25 2.65 3.25 2.7 3.2 2.75 3.1 2.75 2.95 2.75 2.9 2.75 2.85 L2.75 2.8 2.85 2.9 2.9 3.0 2.9 3.05 2.95 3.15 Q2.95 3.2 2.9 3.2 L2.9 3.3 Q2.95 3.35 2.95 3.65 2.95 3.8 2.9 3.85 2.85 3.95 2.75 3.95 L2.65 4.0 2.55 4.0 2.35 4.1 Q2.3 4.1 2.25 4.05 L2.15 4.0 Q2.1 3.75 2.0 3.6 L1.95 3.55 1.95 3.6 1.85 3.55 1.8 3.55 1.75 3.6 Q1.7 3.6 1.65 3.65 L1.55 3.65 1.45 3.6 1.3 3.8 1.35 4.1 Q1.45 4.15 1.55 4.15 1.6 4.15 1.6 4.2 1.65 4.25 1.65 4.3 1.65 4.35 1.55 4.5 L1.45 4.65 1.25 4.75 Q1.2 4.75 1.2 4.7 L1.15 4.7 Q1.1 4.7 0.85 4.85 L0.55 5.0 0.5 5.0 0.45 4.95 Q0.45 4.8 0.45 4.7 L0.45 4.6 0.3 4.6 Q0.3 4.65 0.3 4.7 L0.25 4.8 Q0.25 4.9 0.4 5.05 L0.55 5.25 0.55 5.35 Q0.5 5.55 0.4 5.6 L0.15 5.7 -0.25 5.8 Q-0.4 5.8 -0.55 5.6 -0.7 5.35 -0.95 5.25 -1.05 5.45 -1.15 5.5 -1.2 5.55 -1.35 5.55 -1.45 5.55 -1.5 5.4 -1.55 5.35 -1.6 5.1 -1.65 4.9 -1.7 4.8 -1.75 4.65 -1.85 4.65 -2.0 4.65 -2.15 4.85 -2.3 5.0 -2.5 5.0 L-2.65 4.95 -2.75 4.9 Q-2.8 4.9 -2.9 4.85 L-3.0 4.65 Q-3.05 4.6 -3.1 4.35 -3.1 4.05 -3.15 3.95 -3.2 3.9 -3.4 3.85 -3.55 3.75 -3.55 3.4 -3.55 3.2 -3.5 3.05 -3.45 2.95 -3.4 2.95 L-3.3 3.05 Q-3.2 3.2 -3.2 3.25 L-3.15 3.3 -3.0 3.2 -2.9 3.05 -2.8 3.0 Q-2.75 2.9 -2.7 2.8 -2.7 2.45 -2.9 2.1 -3.05 1.8 -3.25 1.7 L-3.5 1.55 Q-3.7 1.45 -3.75 1.45 L-3.9 1.35 -4.1 1.25 -4.3 1.25 -4.6 1.35 Q-4.65 1.35 -4.8 1.45 -4.9 1.5 -4.9 1.55 -4.95 1.6 -4.9 1.75 L-4.9 1.85 -5.0 1.95 Q-5.05 2.0 -5.1 2.0 -5.15 2.0 -5.25 1.95 -5.35 1.85 -5.4 1.85 L-5.45 1.9 Q-5.5 2.25 -5.5 2.3 -5.5 2.45 -5.4 2.65 -5.3 2.8 -5.35 2.9 -5.4 2.9 -5.4 2.95 L-5.4 3.0 -5.35 3.1 -5.1 3.05 Q-5.05 3.05 -5.05 3.1 -5.05 3.15 -4.95 3.15 -4.9 3.15 -4.85 3.25 L-4.8 3.3 -4.8 3.45 Q-4.8 3.5 -4.9 3.55 L-4.9 3.6 Q-4.9 3.7 -5.05 3.75 -5.15 3.8 -5.2 3.8 L-5.25 3.8 -5.3 3.75 -5.35 3.75 Q-5.5 3.75 -5.6 3.45 -5.7 3.2 -5.7 3.05 L-5.65 2.65 -5.65 2.1 -5.85 2.05 Q-6.0 2.0 -6.05 2.0 -6.15 2.0 -6.1 1.8 -6.05 1.7 -6.0 1.6 L-5.9 1.45 Q-5.85 1.4 -5.8 1.4 L-5.5 1.25 -5.45 1.25 Q-5.45 1.2 -5.4 1.1 L-5.35 1.05 -5.35 0.95 -5.4 0.85 Q-5.4 0.65 -5.25 0.55 -5.15 0.45 -5.05 0.45 -5.0 0.45 -4.95 0.5 L-4.9 0.55 -4.9 0.65 Q-4.95 0.65 -5.0 0.65 -5.05 0.7 -5.05 0.75 L-4.95 0.9 -4.85 0.9 -4.8 0.95 Q-4.75 1.05 -4.75 1.15 L-4.7 1.15 Q-4.65 1.1 -4.6 1.05 L-4.55 1.0 -4.55 0.9 -4.6 0.75 Q-4.55 0.6 -4.5 0.5 -4.45 0.45 -4.4 0.45 -4.3 0.45 -4.2 0.6 -4.1 0.7 -4.0 0.75 L-4.0 0.1 Q-4.0 -0.2 -3.85 -0.4 -3.75 -0.55 -3.7 -0.55 L-3.5 -0.5 -3.3 -0.4 Q-3.25 -0.4 -3.25 -0.45 L-3.15 -0.55 Q-3.1 -0.6 -3.05 -0.7 L-2.95 -1.2 Q-2.85 -1.35 -2.7 -1.4 L-2.45 -1.45 -2.35 -1.4 -2.35 -1.3 -2.3 -1.3 Q-2.25 -1.3 -2.15 -1.4 L-2.05 -1.55 Q-2.0 -1.85 -1.8 -1.85 L-1.3 -1.75 -1.25 -1.7 Q-1.2 -1.55 -1.1 -1.5 -1.05 -1.5 -1.0 -1.5 L-0.95 -1.5 Q-0.9 -1.45 -0.85 -1.35 -0.8 -1.2 -0.8 -1.15 -0.95 -1.0 -1.0 -1.0 L-1.1 -1.1 Q-1.2 -1.1 -1.35 -0.9 -1.55 -0.7 -1.65 -0.7 -1.8 -0.7 -1.9 -0.55 -2.0 -0.5 -2.15 -0.2 -2.15 -0.1 -2.1 0.1 L-2.2 0.25 Q-2.25 0.4 -2.3 0.4 -2.4 0.55 -2.5 0.55 -2.55 0.55 -2.7 0.7 -2.85 0.85 -2.9 0.85 L-2.9 0.95 Q-2.8 1.4 -2.6 1.6 -2.5 1.65 -2.45 1.7 -2.35 1.8 -2.3 1.95 L-2.05 2.4 Q-1.8 2.85 -1.7 3.0 L-1.7 3.15 -1.9 3.05 -2.05 2.9 -2.1 2.95 -2.1 3.0 Q-2.1 3.4 -1.9 3.65 -1.8 3.85 -1.7 3.85 -1.65 3.85 -1.6 3.75 -1.55 3.7 -1.45 3.7 -1.35 3.7 -1.2 3.75 L-1.0 3.85 Q-0.95 3.85 -0.8 3.95 -0.6 4.05 -0.55 4.05 -0.5 4.05 -0.35 3.8 -0.2 3.5 -0.1 3.5 L0.0 3.5 0.15 3.55 0.3 3.55 0.4 3.5 0.55 3.55 Q0.65 3.6 0.75 3.6 0.85 3.6 1.0 3.45 1.15 3.2 1.25 3.1 1.45 3.0 1.5 2.95 L1.75 2.95 Q1.85 2.95 1.95 2.85 2.1 2.8 2.1 2.7 L2.1 2.65 2.0 2.55 2.0 2.4 2.05 2.3 2.15 2.25 Q2.05 2.1 2.1 1.95 2.15 1.8 2.2 1.7 2.25 1.75 2.25 1.8 M0.05 1.5 L-0.15 1.5 -0.2 1.45 -0.35 1.45 Q-0.4 1.4 -0.4 1.35 -0.4 1.1 -0.45 1.05 -0.45 1.0 -0.5 1.0 L-0.6 1.0 -0.65 0.95 Q-0.7 0.95 -0.65 0.85 -0.65 0.7 -0.6 0.7 L-0.55 0.7 -0.55 0.8 -0.5 0.8 Q-0.4 0.8 -0.35 0.95 L-0.2 1.15 Q0.05 1.3 0.1 1.3 0.2 1.15 0.25 1.15 L0.3 1.15 Q0.3 1.2 0.3 1.25 0.3 1.3 0.25 1.4 L0.05 1.5 M-1.9 2.7 L-2.0 2.55 -1.95 2.7 -1.9 2.7 M-4.45 2.9 Q-4.4 3.0 -4.4 3.15 -4.4 3.3 -4.55 3.25 L-4.55 3.15 Q-4.55 3.05 -4.5 3.0 -4.45 2.95 -4.45 2.9" fill="#c5edfe" fill-rule="evenodd" stroke="none"/>
  </g>
</svg>
