<?xml version="1.0" encoding="UTF-8" standalone="no"?>
<svg xmlns:ffdec="https://www.free-decompiler.com/flash" xmlns:xlink="http://www.w3.org/1999/xlink" ffdec:objectType="shape" height="24.55px" width="24.5px" xmlns="http://www.w3.org/2000/svg">
  <g transform="matrix(1.0, 0.0, 0.0, 1.0, 12.25, 12.15)">
    <path d="M0.0 -12.15 Q5.1 -12.15 8.65 -8.55 12.25 -4.95 12.25 0.1 12.25 5.2 8.65 8.8 5.1 12.4 0.0 12.4 -5.1 12.4 -8.65 8.8 -12.25 5.2 -12.25 0.1 -12.25 -4.95 -8.65 -8.55 -5.1 -12.15 0.0 -12.15 M7.55 -7.4 Q4.4 -10.55 0.0 -10.55 -4.4 -10.55 -7.55 -7.4 -10.65 -4.3 -10.65 0.1 -10.65 4.55 -7.55 7.65 -4.4 10.8 0.0 10.8 4.4 10.8 7.55 7.65 10.65 4.55 10.65 0.1 10.65 -4.3 7.55 -7.4" fill="#adcfdd" fill-opacity="0.40784314" fill-rule="evenodd" stroke="none"/>
    <path d="M0.0 -5.9 Q2.5 -5.9 4.25 -4.15 6.0 -2.35 6.0 0.1 6.0 2.6 4.25 4.4 2.5 6.15 0.0 6.15 -2.5 6.15 -4.25 4.4 -6.0 2.6 -6.0 0.1 -6.0 -2.35 -4.25 -4.15 -2.5 -5.9 0.0 -5.9 M3.35 -3.25 Q1.95 -4.6 0.0 -4.6 -1.95 -4.6 -3.35 -3.25 -4.75 -1.85 -4.75 0.1 -4.75 2.1 -3.35 3.5 -1.95 4.85 0.0 4.85 1.95 4.85 3.35 3.5 4.75 2.1 4.75 0.1 4.75 -1.85 3.35 -3.25" fill="#adcfdd" fill-opacity="0.6901961" fill-rule="evenodd" stroke="none"/>
  </g>
</svg>
