<?xml version="1.0" encoding="UTF-8" standalone="no"?>
<svg xmlns:ffdec="https://www.free-decompiler.com/flash" xmlns:xlink="http://www.w3.org/1999/xlink" ffdec:objectType="shape" height="32.55px" width="31.5px" xmlns="http://www.w3.org/2000/svg">
  <g transform="matrix(1.0, 0.0, 0.0, 1.0, 15.75, 25.95)">
    <path d="M14.85 -24.65 Q15.25 -23.95 15.25 -23.45 15.25 -21.8 14.05 -19.05 12.5 -16.05 11.95 -14.85 12.35 -14.85 12.7 -15.05 L13.35 -15.45 Q13.5 -15.4 13.6 -15.45 13.65 -15.4 13.65 -15.1 13.65 -14.65 12.4 -13.2 L12.0 -12.7 12.15 -12.7 Q13.25 -12.95 14.8 -13.45 15.75 -13.65 15.75 -12.8 15.75 -12.0 15.0 -11.15 L11.5 -7.65 11.0 -7.1 12.65 -7.7 13.1 -7.65 13.2 -7.7 Q13.25 -7.65 13.25 -7.4 13.25 -7.0 12.4 -6.2 L12.45 -6.1 12.15 -5.85 Q12.05 -5.8 11.95 -5.75 L11.85 -5.75 10.7 -4.85 8.7 -3.45 8.8 -3.4 9.35 -3.45 Q10.05 -3.5 10.4 -2.95 9.8 -1.85 8.6 -0.95 8.05 -0.55 7.75 0.1 7.6 0.4 7.3 0.65 L8.25 0.7 Q8.55 0.65 8.55 1.0 7.55 2.05 6.45 2.85 7.4 3.0 8.25 3.5 L8.2 3.65 Q8.15 3.9 7.85 3.95 L7.05 4.0 7.1 4.15 7.1 4.25 Q7.45 4.5 7.6 4.9 L7.05 5.05 Q7.0 5.5 6.2 5.55 L5.75 5.6 5.5 5.75 Q5.15 6.0 4.9 5.75 0.85 7.1 -4.0 6.35 -5.95 6.05 -7.95 6.05 -8.45 6.1 -8.8 5.95 -9.2 5.85 -9.55 5.65 L-9.7 5.5 -9.7 5.25 -9.65 4.9 Q-10.45 4.6 -10.85 3.75 -10.85 3.65 -10.8 3.65 -9.75 3.0 -8.9 3.2 L-9.55 2.8 -10.5 2.3 Q-11.0 2.0 -11.1 1.6 -11.3 1.1 -10.85 1.0 L-10.3 1.0 -10.65 0.7 Q-11.3 0.2 -11.7 -0.4 -13.2 -1.65 -14.35 -3.0 -14.35 -3.05 -14.2 -3.1 -12.8 -2.65 -11.55 -1.7 -11.4 -1.7 -11.2 -1.55 -10.9 -1.3 -10.5 -1.45 L-10.8 -1.8 -11.05 -2.05 Q-11.3 -2.35 -11.55 -2.65 -11.8 -3.0 -11.4 -3.1 -11.15 -3.0 -10.95 -2.9 -10.45 -3.1 -10.2 -3.3 -10.9 -3.6 -11.8 -4.3 -13.25 -5.4 -13.8 -6.3 L-15.05 -8.35 Q-15.75 -9.65 -15.75 -10.35 L-15.75 -10.75 -15.7 -10.9 Q-15.3 -10.75 -14.9 -10.45 L-14.2 -10.05 -13.7 -9.95 Q-13.4 -10.05 -13.35 -10.3 -13.3 -10.35 -13.3 -10.6 -13.3 -11.1 -13.6 -12.3 -13.85 -13.45 -13.85 -14.05 -13.85 -14.65 -14.05 -15.95 L-14.2 -17.35 Q-14.2 -18.4 -14.1 -18.95 -13.5 -18.9 -13.3 -19.45 -13.2 -19.7 -13.2 -20.2 -13.1 -20.75 -13.15 -21.85 L-13.2 -22.15 Q-13.4 -22.75 -13.7 -23.9 L-13.6 -24.3 Q-13.45 -24.8 -13.2 -25.15 -12.4 -26.25 -11.15 -25.8 -9.1 -23.95 -8.6 -23.3 -7.5 -22.05 -7.5 -20.9 -7.5 -20.1 -8.25 -19.95 -8.5 -19.95 -8.65 -20.1 -8.75 -20.2 -9.0 -20.2 L-9.35 -20.2 -9.55 -20.05 -9.55 -17.7 Q-9.3 -17.3 -9.1 -16.25 -8.4 -15.05 -7.0 -14.5 L-6.15 -14.55 Q-5.95 -14.75 -5.9 -14.95 -5.85 -15.1 -5.85 -15.5 -5.85 -15.9 -6.1 -16.85 -6.4 -17.75 -6.4 -18.3 L-6.4 -19.0 Q-6.3 -19.5 -5.8 -19.5 -5.4 -19.5 -5.05 -19.15 -4.75 -18.85 -4.75 -18.7 -4.75 -18.5 -4.35 -18.2 -3.75 -17.65 -3.35 -17.1 L-2.85 -16.4 Q-2.5 -15.95 -2.05 -15.75 -1.9 -16.0 -1.85 -16.35 L-1.8 -16.9 Q-1.65 -17.6 -0.9 -18.05 L-0.3 -18.05 Q0.4 -17.5 0.8 -16.8 1.05 -16.35 1.3 -15.5 1.55 -14.65 1.7 -14.25 2.05 -13.55 2.7 -13.0 L3.3 -12.75 Q4.05 -13.45 4.5 -14.9 4.75 -15.7 5.1 -17.1 5.3 -17.7 5.7 -19.35 6.15 -20.8 7.1 -21.2 L7.5 -21.15 Q7.9 -20.7 7.95 -19.9 7.9 -18.95 7.95 -18.5 L8.65 -18.5 Q9.7 -19.35 11.3 -21.75 12.75 -23.9 14.05 -24.7 L14.85 -24.65 M11.85 -6.6 L11.7 -6.55 11.75 -6.55 11.85 -6.6 M10.8 -5.8 L10.75 -5.75 10.85 -5.8 10.8 -5.8 M-8.1 -21.35 L-8.1 -21.35 M-7.1 5.05 L-7.2 5.0 -7.2 5.05 -7.1 5.05 M-8.55 4.2 L-8.55 4.2" fill="#c7e7fe" fill-rule="evenodd" stroke="none"/>
  </g>
</svg>
