<?xml version="1.0" encoding="UTF-8" standalone="no"?>
<svg xmlns:ffdec="https://www.free-decompiler.com/flash" xmlns:xlink="http://www.w3.org/1999/xlink" ffdec:objectType="shape" height="50.7px" width="59.65px" xmlns="http://www.w3.org/2000/svg">
  <g transform="matrix(1.0, 0.0, 0.0, 1.0, 30.45, 43.0)">
    <path d="M29.2 -36.55 Q29.2 -36.35 28.7 -35.9 28.2 -35.45 27.65 -35.25 L27.35 -35.25 Q27.05 -35.3 27.0 -35.35 22.5 -35.2 21.0 -34.7 L20.15 -34.4 Q19.7 -34.25 18.85 -34.25 17.55 -34.25 17.25 -35.05 17.05 -35.45 17.15 -35.9 17.15 -37.0 18.25 -37.55 20.2 -38.6 25.65 -38.5 L25.65 -38.6 Q27.8 -38.7 28.7 -37.8 29.2 -37.3 29.2 -36.55 M20.5 -28.0 Q20.5 -27.15 20.0 -26.6 19.1 -25.6 16.9 -25.55 L15.4 -24.45 Q14.45 -23.75 13.45 -23.5 L12.55 -23.5 Q11.9 -23.85 11.7 -24.45 11.65 -24.65 11.65 -25.35 11.65 -26.5 11.95 -26.95 12.6 -27.95 14.85 -27.6 15.1 -27.75 15.5 -28.1 L16.35 -28.7 Q17.55 -29.4 19.6 -29.35 20.3 -28.95 20.45 -28.65 L20.5 -28.0 M17.25 -22.05 Q17.15 -21.8 16.4 -21.35 L15.7 -21.35 Q15.05 -21.9 15.05 -22.2 15.05 -22.5 15.1 -22.55 15.2 -22.6 15.8 -22.7 L16.1 -23.05 16.55 -23.5 17.1 -23.5 17.35 -23.25 Q17.4 -23.1 17.4 -22.8 17.4 -22.25 17.25 -22.05 M16.8 -22.8 L16.7 -22.8 Q16.65 -22.6 16.45 -22.4 16.3 -22.2 16.05 -22.05 L15.8 -22.0 Q16.3 -21.95 16.6 -22.35 16.7 -22.55 16.8 -22.8 M19.35 -21.1 L19.45 -21.25 20.05 -21.35 21.05 -21.5 21.25 -21.7 Q21.4 -21.9 21.4 -22.15 21.4 -22.3 21.2 -22.55 20.95 -22.85 20.95 -22.9 20.95 -23.25 21.2 -23.5 21.5 -23.75 21.8 -23.8 L22.3 -23.7 22.8 -23.55 Q23.1 -23.4 23.35 -23.1 23.6 -22.75 23.6 -22.5 23.6 -22.3 23.05 -21.65 L22.4 -20.95 Q21.8 -20.8 21.65 -20.7 L19.95 -20.7 19.35 -21.1 M22.8 -22.35 L22.9 -22.35 23.0 -22.5 Q22.85 -22.9 22.6 -23.0 L22.6 -22.95 Q22.8 -22.55 22.8 -22.35 M26.15 -18.6 Q26.35 -18.7 26.45 -18.7 L26.9 -18.6 27.1 -18.5 Q27.2 -18.45 27.2 -18.15 27.2 -17.55 25.75 -16.2 24.25 -14.85 23.2 -14.75 L22.55 -14.8 22.45 -14.95 22.4 -15.3 Q22.4 -15.55 22.6 -16.1 22.85 -16.8 23.25 -17.3 24.4 -18.75 26.05 -17.9 L26.55 -17.9 26.2 -18.15 Q26.05 -18.25 25.75 -18.3 25.9 -18.5 26.15 -18.6 M0.85 -21.3 L2.2 -21.25 3.1 -20.65 Q3.65 -20.25 3.65 -19.95 3.65 -19.7 3.55 -19.5 L3.45 -19.25 3.3 -19.2 2.85 -19.25 Q2.55 -19.5 1.65 -20.05 0.85 -20.45 0.55 -20.95 0.55 -21.05 0.75 -21.15 L0.85 -21.3 M2.7 -17.3 Q3.2 -17.2 3.45 -16.55 3.55 -16.2 3.55 -15.7 3.55 -15.4 3.45 -15.4 L3.2 -15.3 2.3 -15.3 Q2.15 -15.5 1.45 -15.7 L0.35 -16.0 0.1 -16.4 Q-0.1 -16.65 -0.1 -16.7 -0.1 -17.5 0.3 -17.7 0.9 -17.95 2.7 -17.3 M6.1 -18.15 Q6.0 -18.3 6.0 -18.6 6.0 -19.2 6.45 -19.7 7.15 -20.45 8.45 -20.25 L8.65 -19.9 Q8.75 -19.75 8.75 -19.45 8.75 -19.15 8.25 -18.6 7.8 -18.05 7.3 -17.8 L6.35 -17.85 Q6.15 -18.05 6.1 -18.15 M9.5 -15.5 Q9.8 -14.9 9.8 -13.65 9.8 -12.55 9.65 -12.25 9.05 -11.0 8.75 -10.35 L8.9 -10.35 Q11.55 -10.35 12.85 -11.4 13.5 -11.9 13.8 -12.55 L14.6 -12.35 15.2 -12.4 15.6 -12.35 Q15.75 -11.9 15.75 -11.4 15.75 -11.2 14.85 -9.9 L14.4 -9.2 15.35 -9.2 Q16.4 -9.15 16.4 -9.4 17.95 -9.35 18.4 -8.75 18.6 -8.5 18.65 -8.15 L18.65 -7.6 Q18.65 -6.1 17.75 -5.4 17.25 -5.0 14.1 -3.45 13.55 -3.15 13.5 -2.35 13.35 -1.45 12.85 -1.0 12.1 -0.4 11.15 0.0 11.4 0.25 11.8 0.3 L12.6 0.4 Q13.1 0.45 13.45 0.75 14.1 1.25 15.15 1.55 15.4 1.65 15.5 1.8 15.55 2.0 15.55 2.5 L15.55 3.25 15.1 4.15 Q14.25 4.35 13.85 4.7 13.6 5.1 13.45 5.2 11.15 5.25 9.8 6.25 9.1 6.75 8.7 6.9 8.05 7.2 6.95 7.2 L6.05 7.05 4.7 6.8 3.7 6.65 Q2.85 6.55 2.7 6.4 2.5 6.45 0.9 7.1 -0.5 7.7 -1.4 7.7 -3.35 7.7 -4.2 7.5 -5.3 7.25 -6.3 7.2 -7.35 7.1 -8.4 6.7 -9.4 6.3 -9.8 6.3 -13.25 6.35 -15.2 5.6 -16.7 5.0 -16.7 4.3 -16.7 4.0 -15.95 3.2 -15.15 2.3 -14.5 2.55 L-14.15 2.05 Q-14.0 1.75 -13.8 1.6 L-13.35 1.6 -13.8 0.85 Q-14.4 0.0 -14.85 0.0 L-15.65 0.1 Q-16.35 0.2 -17.3 0.1 L-18.0 0.3 Q-18.4 0.4 -18.65 0.4 -21.0 0.4 -21.8 -0.55 -22.1 -0.9 -22.25 -1.5 L-22.3 -1.8 Q-22.6 -2.1 -22.85 -2.6 L-23.05 -3.0 Q-23.4 -3.3 -23.55 -3.65 -23.7 -4.0 -23.7 -4.8 -23.7 -5.7 -23.45 -6.2 -23.35 -6.45 -23.15 -6.5 L-23.1 -6.85 -23.0 -6.85 -22.95 -6.45 -22.9 -6.45 Q-22.45 -6.85 -21.8 -6.55 -21.15 -6.3 -20.65 -5.45 L-20.3 -5.35 -19.45 -5.25 Q-19.0 -5.25 -18.45 -5.55 L-17.5 -6.15 Q-16.2 -6.95 -15.0 -6.7 -14.2 -7.05 -14.0 -7.75 -13.95 -8.0 -13.95 -8.8 -13.95 -9.2 -14.3 -10.25 -14.65 -11.3 -14.65 -11.6 -14.65 -12.15 -14.6 -12.3 -14.45 -12.65 -13.8 -12.75 L-13.0 -12.7 Q-12.65 -12.4 -12.1 -11.25 -11.6 -10.3 -10.95 -9.9 L-9.75 -8.65 Q-8.7 -7.5 -8.25 -7.5 -7.65 -7.5 -7.25 -7.85 -6.9 -8.35 -6.6 -8.55 -4.6 -9.05 -2.9 -6.3 L-1.8 -4.3 Q-1.2 -3.4 -0.8 -3.4 -0.55 -3.4 0.55 -4.7 L1.85 -6.3 2.65 -7.75 Q3.15 -8.75 3.75 -9.2 L4.8 -9.2 Q5.15 -8.7 5.2 -8.05 L5.25 -6.85 5.25 -6.7 Q6.9 -7.2 7.0 -8.6 L7.0 -9.85 Q6.95 -10.6 7.1 -11.05 7.15 -11.25 7.45 -13.3 7.65 -14.75 8.3 -15.5 L8.7 -15.55 8.9 -15.55 9.5 -15.5 M21.35 -14.1 L20.95 -14.2 Q20.65 -14.3 20.55 -14.45 20.55 -13.85 20.35 -13.45 20.1 -13.15 20.0 -13.05 19.85 -12.9 19.5 -12.9 19.2 -12.9 18.9 -13.3 18.7 -13.6 18.65 -13.9 L18.9 -14.2 19.3 -13.85 19.45 -13.65 Q19.75 -13.8 19.8 -14.1 L19.8 -14.75 Q20.3 -15.15 20.65 -14.9 L21.4 -14.2 21.35 -14.1 M-25.8 -36.0 Q-26.3 -35.75 -27.05 -35.75 -28.05 -35.75 -28.6 -36.15 -29.05 -36.5 -29.05 -36.85 -29.05 -38.45 -28.4 -39.4 -27.4 -40.85 -24.7 -41.15 -20.05 -41.7 -17.15 -40.0 -16.1 -39.35 -15.5 -38.55 -14.95 -37.9 -14.95 -37.45 -14.95 -37.1 -15.05 -36.95 -15.1 -36.8 -15.35 -36.6 L-16.25 -36.6 Q-16.75 -36.8 -17.0 -37.0 L-17.3 -37.2 Q-17.6 -37.4 -19.2 -37.4 -23.4 -37.4 -24.9 -36.55 -25.5 -36.15 -25.8 -36.0 M-27.9 -29.35 Q-27.9 -29.85 -27.85 -29.95 -27.55 -30.35 -26.5 -30.35 L-26.15 -30.1 -25.75 -29.85 Q-25.75 -29.9 -25.85 -30.1 -25.95 -30.3 -25.95 -30.55 -25.95 -31.3 -24.6 -30.95 -24.05 -30.8 -22.45 -30.15 L-22.15 -29.45 Q-21.8 -28.8 -21.8 -28.65 -21.8 -28.1 -22.5 -27.65 -23.35 -27.1 -24.7 -27.1 -26.35 -27.1 -27.25 -28.05 -27.9 -28.75 -27.9 -29.35 M-28.8 -16.8 Q-28.35 -17.0 -28.1 -17.3 -27.05 -18.65 -25.25 -18.85 L-23.7 -18.95 -22.15 -18.9 Q-21.85 -18.75 -21.7 -18.55 -21.6 -18.35 -21.6 -18.15 -21.6 -17.2 -23.2 -16.55 L-24.3 -16.05 Q-24.8 -15.8 -24.85 -15.45 -25.0 -14.55 -25.4 -14.0 -26.2 -12.95 -27.85 -12.95 -29.3 -12.95 -30.05 -13.85 -30.45 -14.45 -30.45 -14.9 -30.45 -16.1 -29.6 -16.5 -29.1 -16.7 -28.8 -16.8 M-5.55 -24.4 Q-5.7 -24.1 -6.25 -24.0 L-6.45 -23.85 -7.15 -24.0 Q-7.45 -24.1 -7.5 -24.15 -8.4 -24.2 -9.6 -23.3 L-10.5 -22.65 Q-10.95 -22.35 -11.25 -22.35 -11.85 -22.35 -12.25 -22.8 -12.55 -23.15 -12.55 -23.55 L-12.45 -24.6 Q-12.35 -25.4 -12.4 -25.45 L-12.4 -25.35 Q-12.45 -25.3 -12.45 -25.6 -12.45 -25.85 -11.6 -26.3 -11.1 -26.55 -10.65 -26.75 -8.2 -26.35 -6.8 -25.8 -5.5 -25.25 -5.5 -24.65 -5.5 -24.55 -5.55 -24.4 M-9.95 -19.0 Q-8.8 -18.85 -7.65 -18.5 L-5.45 -17.9 -5.5 -17.75 -5.6 -17.75 Q-5.65 -17.8 -5.65 -17.85 L-6.2 -17.95 -6.45 -18.0 -7.3 -17.9 Q-5.5 -17.4 -5.5 -16.75 -5.5 -16.55 -5.65 -16.3 -5.9 -15.9 -6.45 -15.85 L-7.2 -15.85 -8.05 -15.95 Q-9.2 -16.05 -9.85 -16.8 -10.3 -17.35 -10.3 -17.85 -10.3 -18.15 -10.15 -18.5 -10.05 -18.85 -9.95 -19.0 M-1.45 -22.4 Q-1.45 -22.05 -1.6 -21.7 -1.8 -21.35 -2.0 -21.35 L-3.0 -21.85 Q-4.0 -22.4 -4.3 -22.45 L-4.3 -22.75 -4.15 -22.65 Q-4.05 -22.55 -3.8 -22.55 -3.7 -22.55 -3.6 -22.7 L-3.3 -22.95 Q-2.8 -23.3 -1.65 -23.0 L-1.45 -22.8 Q-1.45 -22.7 -1.45 -22.4 M-2.25 -17.55 Q-1.65 -17.4 -1.5 -17.25 -1.35 -17.1 -1.35 -16.9 -1.35 -16.6 -1.45 -16.5 L-1.75 -16.35 -2.5 -16.5 -2.55 -16.6 -2.2 -16.8 -1.8 -16.85 -2.25 -17.35 -2.25 -17.55 M-23.8 -20.5 Q-23.8 -21.15 -21.7 -21.3 -19.55 -21.45 -17.9 -20.8 L-17.7 -20.65 Q-17.55 -20.6 -17.5 -20.5 L-17.55 -20.35 Q-17.55 -20.65 -17.8 -20.65 L-18.3 -20.6 Q-18.45 -20.6 -18.5 -20.4 -18.6 -20.2 -18.6 -20.15 -18.85 -19.9 -19.95 -19.6 L-21.3 -19.3 -22.35 -19.55 -23.5 -19.85 -23.7 -20.05 Q-23.8 -20.2 -23.8 -20.5 M-19.55 -13.35 Q-20.1 -12.3 -21.75 -12.75 -21.5 -12.5 -21.3 -12.4 -20.9 -12.25 -20.6 -12.1 L-20.55 -12.0 Q-21.4 -12.15 -22.05 -12.4 -23.4 -12.85 -23.4 -13.4 -23.4 -14.2 -22.75 -14.8 -22.2 -15.3 -21.35 -15.5 -20.55 -15.7 -19.95 -15.45 -19.35 -15.2 -19.35 -14.6 -19.35 -13.8 -19.55 -13.35" fill="#c7e7fe" fill-rule="evenodd" stroke="none"/>
    <path d="M28.55 -37.55 Q28.55 -37.05 27.9 -35.85 27.2 -34.65 27.2 -34.05 27.2 -33.7 26.4 -32.4 L26.25 -32.2 Q26.15 -31.85 25.85 -31.5 L25.65 -31.3 25.5 -31.05 25.4 -31.1 25.2 -31.05 Q24.9 -31.05 24.15 -32.1 23.5 -33.05 23.35 -33.5 L23.45 -33.7 Q23.6 -33.75 23.8 -33.6 L23.55 -33.8 23.45 -33.9 Q23.25 -34.0 23.0 -34.0 L21.9 -33.8 20.75 -33.6 20.0 -33.7 19.25 -33.85 Q19.05 -34.05 18.7 -34.7 18.25 -35.35 17.5 -35.35 17.2 -35.35 15.95 -34.7 14.7 -34.1 14.3 -34.1 L13.6 -34.15 13.3 -34.15 12.8 -34.8 Q12.65 -35.0 12.65 -35.15 12.65 -35.65 13.65 -36.45 14.55 -37.25 15.45 -37.6 15.9 -37.8 16.85 -38.65 17.8 -39.55 18.35 -39.75 L20.1 -39.7 20.3 -39.5 20.35 -39.3 20.5 -39.2 Q20.65 -39.1 20.95 -39.1 22.2 -39.1 23.5 -39.45 24.5 -39.75 25.15 -40.1 L26.9 -40.05 Q27.8 -39.75 28.25 -38.9 28.55 -38.25 28.55 -37.55 M20.25 -28.85 Q20.25 -27.3 18.75 -26.7 L17.5 -26.25 Q16.75 -26.0 16.4 -25.75 13.8 -23.75 13.05 -23.25 12.0 -22.55 10.6 -22.55 9.15 -22.55 8.6 -22.85 8.45 -22.95 7.8 -23.75 7.65 -23.9 7.7 -24.4 7.75 -24.75 7.25 -24.85 7.6 -25.1 8.05 -25.8 8.45 -26.45 8.75 -26.6 L9.3 -26.7 Q9.65 -26.75 9.75 -26.9 L10.55 -27.8 Q10.8 -28.0 11.05 -28.7 11.45 -29.3 12.45 -29.6 L14.25 -30.1 16.4 -30.55 17.85 -30.3 19.2 -30.2 19.6 -30.15 20.15 -29.35 Q20.25 -29.15 20.25 -28.85 M16.9 -24.25 L16.9 -23.95 Q16.9 -23.45 16.5 -22.7 16.0 -21.85 15.5 -21.85 14.95 -21.85 14.65 -22.15 14.45 -22.4 14.45 -22.7 14.45 -23.1 14.8 -23.75 15.25 -24.45 15.7 -24.6 L16.4 -24.6 Q16.8 -24.5 16.9 -24.25 M17.2 -21.55 Q17.1 -21.75 17.1 -22.0 17.1 -22.6 17.8 -23.15 18.45 -23.75 19.1 -23.75 20.6 -23.75 21.25 -23.05 21.7 -22.6 21.7 -21.9 21.7 -21.6 21.6 -21.35 21.55 -21.15 21.35 -20.85 L21.4 -20.7 Q22.35 -20.35 23.35 -20.35 L24.7 -20.45 Q25.3 -20.5 25.5 -20.3 25.75 -20.1 25.75 -19.4 25.75 -18.35 24.7 -16.95 24.25 -16.1 23.95 -15.75 23.5 -15.1 22.35 -14.75 L21.7 -14.8 21.55 -15.1 21.55 -15.6 Q21.55 -16.15 21.95 -16.85 22.2 -17.25 23.0 -18.35 22.6 -18.45 22.5 -18.65 22.4 -18.95 22.3 -19.05 20.95 -19.1 20.4 -19.3 20.0 -19.5 19.6 -20.05 L19.4 -20.8 Q19.15 -21.45 18.95 -21.45 18.7 -21.45 18.3 -21.3 17.95 -21.1 17.7 -21.1 17.35 -21.1 17.2 -21.55 M15.6 -23.2 L15.8 -23.45 15.65 -23.4 15.6 -23.2 M17.45 -17.55 L17.5 -17.3 17.45 -16.05 17.4 -15.65 17.4 -15.5 Q17.4 -15.1 16.35 -14.2 15.75 -13.7 15.5 -13.45 L15.5 -13.35 15.45 -12.9 Q15.5 -12.65 15.6 -12.45 15.95 -12.05 17.55 -11.65 L18.05 -10.9 Q18.15 -10.7 18.15 -10.25 18.15 -10.05 18.0 -9.5 17.85 -8.95 17.85 -8.75 17.85 -8.35 16.8 -6.4 16.5 -6.15 15.35 -6.0 14.15 -5.85 13.85 -5.65 13.15 -5.1 12.65 -4.6 12.1 -4.05 11.8 -3.4 L11.45 -2.25 Q11.1 -1.1 10.15 -0.45 L10.1 -0.4 10.4 -0.35 Q10.85 -0.35 11.5 -0.8 L12.4 -1.4 Q13.2 -1.4 13.35 -1.1 13.45 -1.0 13.45 -0.5 13.45 -0.1 13.1 0.85 12.75 1.85 12.55 2.0 L13.1 2.75 Q13.25 3.0 13.25 3.15 13.25 3.55 12.75 3.95 12.4 4.2 11.65 4.6 10.75 5.05 9.3 5.25 L9.3 5.5 Q9.35 5.75 9.25 5.95 3.4 6.75 -2.45 6.7 L-3.45 6.9 Q-3.65 6.9 -4.15 6.65 L-4.2 6.65 Q-8.4 6.5 -12.55 5.95 -13.25 5.85 -13.65 5.45 L-13.95 5.5 -14.2 5.6 Q-14.55 5.5 -14.75 5.25 L-14.95 4.95 -14.95 4.8 Q-14.9 4.5 -14.6 4.55 -14.15 4.6 -14.05 4.2 L-14.0 4.05 -14.15 3.75 Q-14.25 3.5 -14.25 3.2 L-14.2 2.8 -14.2 2.7 Q-14.2 1.8 -13.7 1.45 -12.85 1.15 -12.3 0.8 -12.1 0.7 -11.95 0.45 L-11.9 0.3 -11.85 -0.25 Q-11.85 -0.8 -13.55 -1.1 L-15.25 -1.3 -16.3 -1.1 Q-17.15 -0.85 -17.35 -0.85 -18.15 -0.85 -18.95 -1.7 -19.4 -2.15 -19.7 -2.65 -19.9 -2.85 -20.35 -3.7 -20.8 -4.6 -20.95 -4.75 -21.25 -5.15 -21.55 -6.95 -21.75 -8.35 -21.75 -8.8 L-21.75 -9.75 -21.55 -9.8 Q-21.4 -9.95 -21.1 -9.95 -20.8 -9.95 -19.95 -9.4 -19.05 -8.9 -18.75 -8.9 L-18.0 -8.9 Q-17.55 -9.25 -16.75 -10.35 -15.9 -11.5 -15.9 -11.85 L-16.1 -13.6 -16.25 -15.4 Q-16.25 -15.8 -16.05 -16.05 -15.6 -16.65 -15.3 -17.3 L-14.4 -17.3 -13.35 -15.6 Q-12.65 -14.5 -12.0 -14.0 L-10.4 -12.6 Q-9.55 -11.9 -8.85 -11.55 L-7.7 -11.55 -7.2 -11.95 Q-6.75 -12.3 -6.6 -12.3 L-5.6 -12.4 -4.9 -12.5 -3.95 -12.45 -1.95 -10.4 Q-0.1 -8.65 0.5 -8.65 0.55 -8.65 1.95 -10.85 L3.85 -13.95 Q4.0 -14.0 4.2 -14.15 L4.55 -14.2 Q5.1 -14.2 5.3 -13.9 5.4 -13.55 5.45 -13.45 6.25 -14.0 6.95 -15.55 7.35 -16.45 8.05 -18.3 8.65 -19.8 9.35 -20.25 10.25 -20.8 11.55 -19.95 L11.6 -19.5 11.65 -19.1 Q11.65 -18.5 11.05 -17.1 10.5 -15.85 10.6 -15.45 L10.55 -15.35 Q12.4 -15.65 13.8 -16.4 15.75 -17.5 16.4 -17.75 L17.35 -17.6 17.45 -17.55 M3.4 -20.05 L3.15 -19.85 2.15 -19.9 Q1.9 -20.05 0.5 -21.25 -0.75 -22.35 -0.85 -22.35 -1.3 -22.35 -1.85 -22.05 L-2.6 -21.6 -3.6 -21.65 Q-4.2 -22.0 -5.0 -22.8 L-6.15 -24.0 -7.5 -24.05 -8.5 -24.15 Q-9.1 -24.15 -10.0 -23.3 L-10.8 -22.4 -11.3 -22.45 Q-11.85 -23.45 -11.9 -23.85 -11.95 -24.0 -11.95 -24.95 -11.95 -25.9 -11.55 -27.0 -11.1 -28.35 -10.45 -28.55 -9.25 -28.4 -8.05 -27.6 L-7.45 -26.95 Q-7.0 -26.45 -6.7 -26.45 -6.45 -26.45 -6.5 -26.65 -6.5 -26.9 -6.3 -26.9 -5.85 -26.9 -4.6 -25.35 -3.4 -23.8 -2.95 -23.8 -2.55 -23.8 -2.35 -24.05 -2.05 -24.4 -1.9 -24.45 -0.7 -24.35 -0.05 -23.9 0.4 -23.6 0.85 -22.95 1.3 -22.2 1.55 -21.95 2.1 -21.5 3.05 -21.3 3.4 -21.15 3.5 -20.9 L3.5 -20.5 Q3.5 -20.2 3.4 -20.05 M3.0 -17.65 Q3.05 -17.75 3.3 -17.75 3.65 -17.75 3.75 -17.4 L3.8 -17.1 Q3.8 -16.7 3.55 -16.35 3.35 -16.0 3.05 -15.85 L0.75 -15.85 Q-0.45 -15.95 -0.45 -18.05 -0.45 -18.3 -0.25 -18.8 0.0 -19.35 0.35 -19.55 1.35 -19.55 1.95 -18.75 2.5 -17.7 2.95 -17.25 L3.0 -17.3 3.0 -17.65 M4.55 -16.45 Q4.9 -16.3 4.95 -16.2 4.95 -16.05 4.8 -16.0 4.1 -16.25 4.05 -16.45 L4.1 -16.45 4.2 -16.5 4.55 -16.45 M5.8 -19.6 Q5.8 -20.5 6.2 -21.1 6.55 -21.55 7.1 -21.7 7.6 -21.8 8.0 -21.55 8.4 -21.3 8.4 -20.8 8.4 -20.35 7.85 -19.6 7.2 -18.8 6.6 -18.8 6.25 -18.8 6.0 -19.0 5.8 -19.25 5.8 -19.6 M20.5 -15.1 Q20.7 -14.75 20.7 -14.55 20.7 -14.15 20.2 -13.7 19.85 -13.4 19.0 -12.9 L18.5 -12.9 Q17.95 -13.4 17.95 -13.45 17.95 -13.7 18.45 -14.55 19.0 -15.45 19.2 -15.5 L20.05 -15.5 Q20.3 -15.45 20.5 -15.1 M5.05 5.1 L4.65 5.15 4.65 5.4 5.55 5.15 Q5.35 5.1 5.05 5.1 M-21.8 -43.0 Q-19.4 -42.85 -17.95 -41.8 -16.5 -40.45 -15.45 -39.8 L-14.1 -38.95 Q-13.35 -38.35 -13.1 -37.85 -12.9 -37.4 -12.3 -36.75 -11.85 -36.3 -11.85 -35.95 -11.85 -35.25 -12.55 -34.75 -12.75 -34.8 -15.1 -35.45 -16.95 -35.95 -17.45 -36.45 -19.15 -36.4 -20.1 -36.15 -20.6 -36.05 -20.75 -35.95 -21.3 -35.75 -21.6 -35.35 -21.8 -35.0 -21.9 -34.9 -22.0 -34.8 -22.25 -35.0 L-22.6 -35.3 -23.65 -35.2 -24.7 -35.3 -25.15 -35.7 -25.15 -35.75 -25.5 -35.75 Q-26.25 -35.75 -26.7 -37.05 -26.95 -37.7 -27.0 -38.4 -27.0 -39.05 -25.75 -40.0 -24.75 -40.75 -24.4 -40.8 -23.6 -40.95 -22.8 -41.85 L-21.8 -43.0 M-22.0 -42.45 Q-21.7 -42.55 -21.55 -42.75 L-21.8 -42.75 -22.05 -42.6 Q-22.05 -42.5 -22.0 -42.45 M-26.7 -15.5 Q-26.7 -15.85 -26.45 -16.15 -26.15 -16.5 -26.15 -17.1 L-26.2 -17.8 Q-26.2 -18.25 -26.15 -18.55 -25.85 -20.55 -24.05 -20.95 L-22.45 -21.05 Q-21.45 -21.1 -20.95 -21.25 -20.85 -22.15 -20.65 -22.45 -20.1 -23.2 -18.7 -22.5 L-17.75 -22.1 Q-17.35 -21.9 -17.1 -21.6 L-16.6 -21.0 Q-16.3 -20.7 -16.3 -20.45 -16.3 -20.2 -16.8 -19.8 L-17.6 -19.35 -17.75 -19.4 -18.2 -19.45 Q-20.3 -19.45 -22.05 -17.8 -22.6 -17.3 -23.05 -16.65 -23.4 -16.2 -23.45 -16.05 -23.45 -15.05 -23.65 -14.25 -24.0 -12.8 -25.15 -12.8 -26.0 -12.8 -26.4 -14.1 -26.65 -14.75 -26.7 -15.5 M-7.2 -20.3 Q-6.45 -19.75 -5.75 -18.85 -5.05 -18.0 -5.05 -17.6 -5.05 -17.05 -5.4 -16.8 -5.7 -16.55 -6.55 -16.55 -7.9 -16.55 -8.7 -17.45 -9.35 -18.15 -9.35 -18.7 -9.35 -20.35 -8.7 -20.7 -8.15 -20.95 -7.2 -20.3 M-1.75 -18.45 Q-1.1 -18.4 -1.1 -17.9 -1.1 -16.8 -1.75 -16.65 L-2.55 -16.7 -2.85 -17.0 -3.05 -17.3 Q-3.05 -17.65 -2.9 -17.9 -2.7 -18.15 -2.25 -18.45 L-1.75 -18.45 M-19.6 -29.05 Q-19.6 -28.35 -20.05 -27.8 -20.55 -27.2 -21.2 -27.2 -23.0 -27.2 -23.95 -28.95 -24.45 -29.8 -24.55 -30.7 -24.55 -31.15 -24.5 -31.3 -24.4 -31.6 -23.9 -31.95 -22.8 -31.95 -21.8 -31.4 L-20.5 -30.65 Q-19.8 -30.25 -19.65 -29.8 -19.6 -29.65 -19.6 -29.05 M-18.4 -16.45 Q-17.75 -16.0 -17.75 -15.25 -17.75 -14.5 -18.3 -13.9 -18.85 -13.25 -20.4 -12.35 L-21.0 -12.4 Q-21.5 -12.9 -21.55 -13.05 -21.65 -13.2 -21.65 -13.55 -21.65 -14.25 -21.35 -14.9 -21.0 -15.5 -20.25 -16.4 L-19.4 -16.5 -18.4 -16.45" fill="#e5eeff" fill-opacity="0.7529412" fill-rule="evenodd" stroke="none"/>
  </g>
</svg>
