<?xml version="1.0" encoding="UTF-8" standalone="no"?>
<svg xmlns:ffdec="https://www.free-decompiler.com/flash" xmlns:xlink="http://www.w3.org/1999/xlink" ffdec:objectType="shape" height="15.2px" width="23.95px" xmlns="http://www.w3.org/2000/svg">
  <g transform="matrix(1.0, 0.0, 0.0, 1.0, 5.5, 22.65)">
    <path d="M11.7 -16.15 L12.15 -15.95 12.2 -15.85 12.25 -15.8 12.6 -15.8 12.95 -15.6 13.0 -15.5 12.95 -15.4 12.9 -15.4 Q13.95 -15.1 14.65 -14.75 15.35 -14.45 15.85 -14.1 L16.1 -13.9 16.3 -13.85 Q16.45 -13.8 16.7 -13.65 L16.75 -13.55 16.75 -13.45 16.65 -13.4 16.6 -13.4 Q16.6 -13.25 16.45 -13.2 L16.35 -13.2 Q16.95 -12.6 16.95 -11.85 L16.95 -11.6 17.35 -11.35 Q17.7 -11.15 17.9 -10.9 L17.95 -10.8 17.95 -10.75 17.9 -10.65 Q17.85 -10.65 17.8 -10.65 17.75 -10.65 17.7 -10.65 17.35 -11.0 16.9 -11.25 L16.85 -11.1 16.85 -11.05 16.8 -11.0 16.65 -11.0 Q16.6 -11.0 16.55 -11.05 16.55 -11.1 16.55 -11.15 L16.6 -11.45 Q15.75 -11.9 14.65 -12.15 13.3 -12.45 12.55 -12.75 11.75 -13.1 11.2 -13.6 L11.15 -13.7 11.15 -13.75 11.2 -13.85 11.4 -13.85 Q12.15 -13.4 12.9 -13.1 13.7 -12.8 14.9 -12.5 L15.9 -12.2 Q16.2 -12.05 16.6 -11.8 16.6 -12.85 15.2 -13.6 L14.6 -13.6 14.9 -13.55 Q15.2 -13.45 15.4 -13.2 L15.55 -12.95 15.6 -12.95 15.6 -13.0 15.7 -13.0 Q15.85 -13.0 15.9 -12.85 L15.95 -12.75 15.95 -12.65 Q15.9 -12.55 15.8 -12.55 15.7 -12.5 15.6 -12.65 L15.55 -12.75 Q15.55 -12.8 15.5 -12.85 L15.55 -12.9 15.45 -12.95 15.2 -13.05 Q14.95 -13.25 14.55 -13.35 L14.1 -13.45 13.6 -13.5 13.2 -13.6 12.2 -13.7 11.95 -13.75 11.2 -14.0 10.8 -14.15 10.7 -14.2 10.65 -14.2 10.65 -14.25 10.45 -14.35 10.2 -14.55 Q10.0 -14.65 9.85 -14.8 L9.85 -14.7 Q9.8 -14.65 9.75 -14.65 L9.65 -14.65 8.5 -14.9 8.35 -14.9 7.75 -15.25 7.6 -15.35 Q7.05 -15.7 6.75 -15.9 6.7 -15.95 6.7 -16.0 L6.6 -16.2 6.4 -16.45 Q6.3 -16.6 6.3 -16.75 6.3 -16.85 6.35 -16.95 L6.4 -17.0 Q6.6 -17.1 6.75 -17.2 L6.8 -17.25 Q6.95 -17.3 7.0 -17.4 L7.0 -17.45 7.1 -17.5 7.15 -17.5 Q8.2 -17.1 9.7 -16.65 L11.65 -16.15 11.7 -16.15 M12.55 -15.05 L13.2 -14.8 13.65 -14.65 14.3 -14.35 14.65 -14.2 15.25 -13.95 15.45 -13.95 Q14.6 -14.45 13.05 -14.95 L13.05 -14.9 12.5 -15.05 12.55 -15.05 M12.15 -15.65 L12.05 -15.65 11.7 -15.75 12.2 -15.6 12.15 -15.6 12.15 -15.65 M13.2 -14.4 Q12.2 -14.75 10.85 -15.05 L10.5 -15.1 10.45 -15.1 10.45 -15.15 10.0 -15.25 9.95 -15.25 10.0 -15.2 10.15 -15.15 10.35 -14.9 10.65 -14.65 Q10.85 -14.5 11.0 -14.45 11.55 -14.2 11.85 -14.15 L12.85 -13.9 13.0 -13.9 Q13.0 -13.95 12.95 -13.95 L12.9 -14.05 Q12.9 -14.2 13.05 -14.2 L13.1 -14.25 14.15 -14.1 14.1 -14.1 Q13.8 -14.15 13.45 -14.3 L13.2 -14.4 M0.5 -21.45 L-0.35 -21.45 -0.2 -21.4 -0.25 -21.45 0.9 -21.2 1.5 -21.05 1.5 -21.1 2.5 -20.75 2.55 -20.75 2.6 -20.7 Q3.15 -20.5 3.75 -20.2 L3.8 -20.1 3.8 -20.05 Q3.8 -20.0 3.75 -19.95 L3.65 -19.95 Q3.55 -19.95 2.8 -20.25 L2.45 -20.35 Q2.0 -20.55 1.6 -20.55 1.5 -20.55 1.55 -20.6 L1.5 -20.55 1.4 -20.5 1.2 -20.5 1.45 -20.35 Q1.65 -20.25 2.0 -20.1 L2.1 -20.0 2.1 -19.85 Q2.5 -19.6 3.15 -19.25 L4.35 -18.7 4.9 -18.45 5.05 -18.4 5.15 -18.3 5.1 -18.05 5.15 -17.75 5.0 -17.6 4.75 -17.6 4.65 -17.65 4.35 -17.75 Q4.0 -17.85 3.75 -17.85 L3.25 -17.8 Q3.1 -17.75 2.9 -18.0 2.55 -18.35 2.45 -18.5 2.3 -18.7 2.05 -18.9 L1.55 -19.25 Q0.7 -19.7 -0.35 -18.45 -0.75 -18.0 -1.05 -17.45 L-1.25 -17.05 -1.25 -17.0 -1.3 -16.95 -1.3 -16.9 -1.35 -16.75 -1.3 -16.55 Q-1.25 -16.5 -1.05 -16.45 L-1.0 -16.45 -0.95 -16.4 -0.85 -16.4 -0.85 -16.35 -0.8 -16.25 Q-0.75 -15.95 -0.65 -15.25 -0.65 -14.95 -0.55 -14.75 L-0.55 -14.65 -0.6 -14.55 -0.85 -14.55 Q-1.9 -14.45 -2.3 -14.3 L-2.5 -14.25 -2.85 -14.2 -4.65 -14.3 -4.6 -14.25 -4.95 -14.35 -5.0 -14.35 -5.1 -14.45 -5.2 -14.6 -5.2 -14.85 -5.25 -14.9 -5.25 -15.35 -5.35 -15.55 Q-5.5 -15.85 -5.5 -15.95 L-5.5 -16.6 Q-5.5 -17.3 -5.35 -18.1 -5.2 -18.9 -4.95 -19.6 -4.85 -19.9 -4.5 -20.4 L-4.05 -21.0 -4.1 -21.1 -4.1 -21.15 -4.05 -21.25 Q-3.2 -21.9 -2.9 -22.05 -2.1 -22.45 -0.6 -22.6 L-0.55 -22.6 -0.5 -22.65 0.75 -22.5 Q1.3 -22.4 1.45 -22.3 L1.5 -22.2 1.5 -22.15 1.55 -22.2 Q1.65 -22.3 1.7 -22.25 1.8 -22.3 1.9 -22.15 L1.9 -22.05 Q1.9 -22.0 1.8 -21.9 1.8 -21.85 1.7 -21.85 L1.6 -21.9 Q1.5 -21.95 1.45 -22.0 L1.45 -22.0 1.35 -22.0 Q1.1 -22.0 0.85 -22.1 0.65 -22.25 0.2 -22.25 L-0.2 -22.2 -0.5 -22.2 -0.55 -22.15 -0.45 -22.15 -0.25 -22.1 Q0.95 -21.95 1.45 -21.75 L2.05 -21.55 Q2.55 -21.4 2.6 -21.35 L2.65 -21.3 2.65 -21.2 2.6 -21.1 Q2.55 -21.05 2.5 -21.05 2.45 -21.05 2.0 -21.2 L1.85 -21.25 1.55 -21.3 1.35 -21.35 0.5 -21.45 M2.9 -21.3 L2.95 -21.25 Q3.1 -21.1 3.05 -21.05 L3.05 -21.0 3.0 -20.95 Q2.95 -20.9 2.85 -20.9 L2.75 -20.9 Q2.65 -20.9 2.65 -21.1 2.65 -21.2 2.7 -21.2 2.75 -21.35 2.85 -21.3 L2.9 -21.3 M4.15 -19.9 L4.15 -19.75 Q4.1 -19.6 3.95 -19.65 L3.85 -19.65 3.75 -19.75 3.75 -19.85 Q3.75 -20.0 3.9 -20.0 L4.05 -20.0 4.15 -19.9 M8.65 -15.3 L8.7 -15.25 9.0 -15.2 9.4 -15.05 9.35 -15.05 9.65 -15.0 9.7 -15.15 9.7 -15.2 9.75 -15.25 8.65 -15.3 M9.8 -15.25 L9.8 -15.25 M9.05 -14.35 L9.1 -14.45 9.15 -14.5 9.25 -14.55 10.25 -14.25 10.3 -14.2 10.35 -14.1 10.3 -14.05 10.3 -14.0 10.15 -14.0 9.3 -14.15 Q9.25 -14.15 9.2 -14.2 L9.05 -14.35 M10.4 -13.45 L10.5 -13.5 10.65 -13.5 Q11.65 -12.6 12.5 -12.25 L13.15 -12.0 14.05 -11.75 14.8 -11.5 15.4 -11.25 15.45 -11.2 15.45 -11.0 15.35 -10.95 Q15.3 -10.95 15.25 -11.0 15.1 -11.1 14.7 -11.2 L14.65 -11.2 Q14.3 -11.4 13.95 -11.45 13.25 -11.65 13.0 -11.7 12.6 -11.8 12.35 -11.95 11.7 -12.3 11.35 -12.5 10.6 -12.9 10.4 -13.3 10.35 -13.35 10.35 -13.4 L10.4 -13.45 M10.0 -13.9 L10.0 -13.7 9.9 -13.6 9.8 -13.65 9.6 -13.7 9.55 -13.75 9.5 -13.75 9.45 -13.85 9.45 -13.95 9.5 -14.0 Q9.5 -14.05 9.55 -14.05 L9.65 -14.05 9.9 -13.95 10.0 -13.9 M18.4 -10.15 L18.45 -9.9 Q18.45 -9.6 18.3 -9.35 L18.25 -9.3 18.25 -9.1 18.2 -9.0 18.05 -8.95 17.95 -9.0 17.9 -9.0 Q17.85 -9.05 17.85 -9.2 17.85 -9.25 17.95 -9.35 L18.0 -9.4 18.0 -9.45 18.05 -9.9 18.0 -10.05 18.05 -10.05 17.95 -10.3 17.95 -10.4 18.0 -10.45 18.2 -10.45 18.25 -10.4 18.4 -10.15 M17.55 -8.35 L17.6 -8.3 17.6 -8.15 17.45 -8.05 17.35 -8.0 17.35 -8.05 Q17.2 -8.0 17.2 -8.25 L17.2 -8.3 Q17.2 -8.35 17.25 -8.4 L17.3 -8.4 17.35 -8.45 17.45 -8.45 17.55 -8.35 M15.9 -13.55 L16.3 -13.25 16.0 -13.55 15.9 -13.55 M15.65 -10.75 L15.6 -10.85 Q15.55 -10.9 15.6 -10.95 L15.7 -11.05 Q15.9 -11.05 16.05 -10.9 L16.1 -10.8 16.1 -10.75 16.05 -10.7 16.0 -10.6 15.9 -10.6 Q15.85 -10.6 15.85 -10.65 L15.65 -10.75 M16.55 -10.85 L16.6 -10.85 Q16.7 -10.8 16.6 -10.55 L16.5 -10.45 Q16.4 -10.45 16.3 -10.5 L16.25 -10.6 16.25 -10.7 Q16.3 -10.85 16.5 -10.85 L16.55 -10.85 M12.8 -7.85 L12.8 -7.95 Q12.85 -8.1 13.0 -8.1 L13.1 -8.05 13.2 -7.95 13.2 -7.75 13.05 -7.65 Q13.0 -7.65 12.95 -7.65 12.85 -7.7 12.8 -7.8 L12.8 -7.85 M14.35 -7.6 L14.3 -7.65 14.3 -7.75 14.35 -7.8 Q14.4 -7.8 14.45 -7.8 L14.65 -7.75 14.7 -7.7 14.7 -7.55 Q14.65 -7.5 14.5 -7.45 14.4 -7.45 14.4 -7.5 L14.35 -7.6 M16.5 -9.35 L16.5 -9.25 Q16.45 -9.2 16.3 -9.15 L16.2 -9.2 Q16.15 -9.2 16.15 -9.25 L16.15 -9.45 16.25 -9.55 Q16.45 -9.55 16.5 -9.4 L16.5 -9.35 M15.5 -9.85 L15.55 -9.9 Q15.65 -10.05 15.75 -10.0 L15.85 -10.0 15.9 -9.95 15.95 -9.85 Q15.95 -9.75 15.85 -9.7 15.8 -9.65 15.75 -9.65 L15.6 -9.65 15.5 -9.85 M15.0 -9.25 L15.25 -9.45 15.4 -9.6 Q15.5 -9.65 15.6 -9.55 L15.65 -9.5 15.65 -9.45 Q15.65 -9.15 15.2 -8.9 L14.6 -8.6 14.5 -8.65 Q14.45 -8.7 14.5 -8.75 L14.55 -8.85 14.7 -9.0 15.0 -9.25 M15.6 -8.65 L15.65 -8.7 15.85 -8.7 15.9 -8.65 15.95 -8.5 15.95 -8.45 15.85 -8.35 15.7 -8.3 Q15.55 -8.3 15.55 -8.5 L15.55 -8.55 Q15.55 -8.65 15.6 -8.65" fill="#437edb" fill-opacity="0.6" fill-rule="evenodd" stroke="none"/>
    <path d="M12.85 -15.5 L12.3 -15.7 12.55 -15.7 12.85 -15.5 M11.65 -15.2 Q11.9 -15.1 12.5 -14.9 L13.15 -14.7 13.6 -14.55 14.25 -14.25 14.55 -14.1 Q14.75 -14.05 15.2 -13.85 L15.1 -13.85 15.2 -13.8 16.0 -13.75 Q15.1 -14.45 13.1 -15.05 12.35 -15.25 12.0 -15.25 L11.9 -15.25 11.65 -15.2 M13.25 -14.55 Q12.25 -14.85 10.85 -15.2 L10.5 -15.25 10.0 -15.4 8.5 -15.45 8.3 -15.35 8.65 -15.1 8.95 -15.05 9.35 -14.9 9.65 -14.85 9.7 -14.8 9.7 -14.75 8.55 -15.05 8.45 -15.05 7.8 -15.35 7.65 -15.45 Q7.15 -15.8 6.8 -16.05 L6.75 -16.25 6.5 -16.55 Q6.45 -16.65 6.45 -16.75 L6.45 -16.9 Q6.65 -16.95 6.85 -17.1 7.1 -17.2 7.1 -17.35 8.15 -16.95 9.65 -16.55 L11.6 -16.0 12.1 -15.8 Q11.1 -16.0 10.15 -16.25 L8.9 -16.5 8.85 -16.5 12.3 -15.4 Q13.7 -15.05 14.6 -14.65 15.3 -14.3 15.75 -14.0 L16.05 -13.75 16.25 -13.7 Q16.4 -13.7 16.6 -13.55 L16.25 -13.65 16.15 -13.7 16.45 -13.4 16.4 -13.35 16.1 -13.7 15.35 -13.75 Q16.8 -12.95 16.8 -11.85 L16.8 -11.5 17.25 -11.25 Q17.6 -11.05 17.8 -10.8 L17.8 -10.75 Q17.35 -11.2 16.8 -11.5 L16.75 -11.15 16.7 -11.15 16.75 -11.55 Q15.85 -12.05 14.65 -12.3 13.35 -12.6 12.6 -12.9 11.85 -13.2 11.3 -13.7 12.1 -13.25 12.85 -12.95 13.65 -12.65 14.85 -12.35 L15.85 -12.05 Q16.2 -11.9 16.65 -11.6 L16.75 -11.55 16.75 -11.8 Q16.75 -12.9 15.25 -13.75 L14.7 -13.75 Q13.75 -13.8 13.05 -14.05 L13.05 -14.1 13.8 -14.0 14.75 -13.85 15.1 -13.8 15.05 -13.85 14.55 -14.1 14.15 -14.25 Q13.85 -14.3 13.5 -14.45 L13.25 -14.55 M0.95 -22.25 Q0.7 -22.4 0.2 -22.4 L-0.2 -22.35 -0.55 -22.3 -1.85 -22.05 -0.9 -22.05 -0.5 -22.0 -0.25 -21.95 Q0.95 -21.85 1.45 -21.6 L2.0 -21.45 Q2.45 -21.3 2.5 -21.25 L2.5 -21.2 2.05 -21.35 1.85 -21.4 1.55 -21.45 1.4 -21.5 0.5 -21.6 -0.45 -21.6 -0.9 -21.5 -0.75 -21.5 -0.75 -21.45 -0.8 -21.4 -0.6 -21.35 -0.25 -21.3 0.85 -21.1 1.45 -20.95 Q1.95 -20.8 2.45 -20.6 L2.5 -20.6 3.7 -20.05 Q3.6 -20.1 2.85 -20.4 L2.5 -20.5 Q2.05 -20.7 1.6 -20.7 L1.4 -20.65 1.05 -20.65 1.0 -20.6 0.9 -20.55 Q0.95 -20.45 1.35 -20.25 L1.95 -19.95 1.7 -19.95 Q2.2 -19.55 3.1 -19.15 3.9 -18.75 4.25 -18.55 L5.0 -18.3 5.0 -17.75 4.75 -17.75 4.4 -17.9 Q4.05 -18.0 3.75 -18.0 L3.25 -17.95 Q3.15 -17.9 3.0 -18.1 L2.55 -18.55 Q2.45 -18.75 2.1 -19.0 L1.65 -19.35 Q0.7 -19.9 -0.45 -18.5 -0.85 -18.05 -1.15 -17.5 L-1.35 -17.1 -1.4 -17.1 -1.45 -16.95 Q-1.5 -16.9 -1.5 -16.75 -1.5 -16.55 -1.4 -16.5 -1.35 -16.35 -1.05 -16.3 L-1.0 -16.3 -0.95 -16.25 Q-0.9 -15.95 -0.8 -15.25 -0.8 -14.9 -0.7 -14.7 L-0.9 -14.65 Q-1.9 -14.6 -2.35 -14.45 L-2.55 -14.4 -2.85 -14.35 -4.6 -14.4 -4.9 -14.45 -4.95 -14.5 -5.05 -14.7 -5.1 -14.75 -5.05 -14.75 -5.1 -15.0 -5.15 -14.95 -5.1 -15.1 -5.1 -15.35 -5.2 -15.6 Q-5.35 -15.85 -5.35 -15.95 L-5.35 -16.6 Q-5.35 -17.3 -5.2 -18.05 -5.05 -18.85 -4.8 -19.55 -4.7 -19.85 -4.4 -20.3 -4.1 -20.75 -3.8 -21.05 L-3.5 -21.4 -3.9 -21.15 -3.95 -21.15 Q-3.15 -21.75 -2.85 -21.9 -2.0 -22.3 -0.5 -22.45 L-0.5 -22.5 0.7 -22.35 Q1.25 -22.3 1.35 -22.2 L1.35 -22.15 Q1.15 -22.1 0.95 -22.25 M1.7 -22.0 L1.65 -22.05 1.6 -22.05 1.7 -22.1 1.75 -22.05 1.7 -22.0 M4.0 -19.8 L3.95 -19.75 3.9 -19.8 3.9 -19.85 Q3.9 -19.9 4.0 -19.85 L4.0 -19.8 M2.8 -21.05 L2.8 -21.1 Q2.8 -21.2 2.8 -21.15 L2.85 -21.15 2.95 -21.05 2.8 -21.05 M9.8 -15.1 L10.45 -14.65 Q10.75 -14.4 11.0 -14.3 11.7 -13.95 13.75 -13.7 14.35 -13.6 14.7 -13.5 15.0 -13.4 15.25 -13.2 14.85 -13.4 14.0 -13.6 L13.85 -13.6 13.7 -13.65 Q13.3 -13.65 13.25 -13.7 L13.1 -13.7 12.95 -13.75 12.85 -13.75 12.7 -13.8 Q12.1 -13.9 11.55 -14.05 11.05 -14.2 10.85 -14.3 10.65 -14.4 10.3 -14.65 9.75 -14.95 9.75 -15.05 L9.8 -15.1 M9.3 -14.3 L9.2 -14.4 10.2 -14.15 10.2 -14.1 9.3 -14.3 M10.5 -13.35 L10.55 -13.35 Q11.6 -12.5 12.45 -12.15 L13.1 -11.9 14.0 -11.65 14.75 -11.35 Q15.2 -11.2 15.3 -11.1 15.15 -11.2 14.75 -11.35 14.3 -11.5 14.0 -11.6 L13.05 -11.85 Q12.65 -11.95 12.4 -12.1 11.8 -12.4 11.4 -12.6 10.7 -13.0 10.5 -13.35 M9.65 -13.85 L9.6 -13.9 9.85 -13.8 9.85 -13.75 9.65 -13.85 M18.3 -9.9 Q18.3 -9.65 18.2 -9.4 L18.15 -9.4 18.2 -9.9 18.15 -10.1 18.1 -10.35 18.25 -10.05 18.3 -9.9 M18.0 -9.1 L18.0 -9.2 18.1 -9.3 18.1 -9.15 18.0 -9.1 M17.5 -8.25 L17.4 -8.15 17.35 -8.2 17.35 -8.3 17.45 -8.3 17.5 -8.25 M15.7 -12.85 L15.8 -12.75 Q15.75 -12.65 15.75 -12.7 L15.65 -12.85 15.7 -12.85 M16.5 -10.75 L16.5 -10.6 16.4 -10.65 Q16.45 -10.7 16.5 -10.75 M15.95 -10.75 L15.7 -10.9 Q15.85 -10.9 15.95 -10.8 L15.95 -10.75 M13.05 -7.85 L13.0 -7.8 12.95 -7.9 Q12.95 -7.95 13.0 -7.95 L13.05 -7.85 M16.25 -9.4 Q16.35 -9.4 16.35 -9.35 16.35 -9.3 16.3 -9.3 L16.25 -9.4 M15.65 -9.8 L15.75 -9.9 15.8 -9.85 15.75 -9.8 15.65 -9.8 M15.1 -9.1 L15.35 -9.4 Q15.45 -9.5 15.5 -9.45 15.5 -9.25 15.1 -9.05 14.8 -8.85 14.65 -8.75 L14.8 -8.9 15.1 -9.1 M15.7 -8.5 L15.7 -8.6 15.75 -8.6 15.8 -8.5 15.75 -8.45 15.7 -8.45 15.7 -8.5 M14.45 -7.6 L14.45 -7.7 14.55 -7.65 Q14.55 -7.6 14.45 -7.6" fill="#ffffff" fill-rule="evenodd" stroke="none"/>
  </g>
</svg>
