<?xml version="1.0" encoding="UTF-8" standalone="no"?>
<svg xmlns:ffdec="https://www.free-decompiler.com/flash" xmlns:xlink="http://www.w3.org/1999/xlink" ffdec:objectType="shape" height="15.4px" width="15.7px" xmlns="http://www.w3.org/2000/svg">
  <g transform="matrix(1.0, 0.0, 0.0, 1.0, 10.55, 3.5)">
    <path d="M2.0 -1.8 Q2.0 -1.4 1.85 -1.4 L1.8 -1.5 Q1.8 -1.55 1.8 -1.65 1.8 -1.85 1.85 -1.9 L1.9 -1.95 2.0 -1.95 2.0 -1.8 M2.3 -0.65 Q2.35 -0.65 2.4 -0.4 L2.4 0.05 Q2.5 0.1 2.55 0.25 2.6 0.45 2.6 0.7 2.6 0.95 2.55 1.05 2.45 1.1 2.45 1.15 2.4 1.15 2.4 1.1 L2.4 1.05 2.35 0.95 Q2.35 0.9 2.4 0.8 L2.45 0.65 Q2.4 0.3 2.3 0.15 L2.2 0.2 Q2.15 0.2 2.15 0.15 L2.15 0.1 Q2.05 -0.1 2.15 -0.4 2.2 -0.65 2.3 -0.65 M4.15 1.7 L4.2 1.75 4.2 2.25 4.1 2.3 Q4.05 2.3 4.05 2.25 L4.05 2.15 Q4.0 1.95 4.05 1.85 4.1 1.75 4.15 1.7 M3.95 2.65 L4.0 2.8 Q3.95 3.05 3.9 3.1 3.85 3.2 3.7 3.2 3.65 3.2 3.65 3.05 3.6 2.85 3.7 2.75 L3.8 2.7 3.95 2.6 3.95 2.65 M3.85 4.1 L3.85 4.15 3.9 4.3 3.9 4.45 Q3.85 4.85 3.65 5.1 3.45 5.35 3.35 5.2 L3.35 4.9 3.5 4.7 Q3.65 4.55 3.6 4.25 3.7 4.1 3.8 4.1 L3.85 4.1 M2.2 1.15 Q2.05 1.2 1.95 1.35 1.9 1.45 1.75 1.45 L1.45 1.35 1.45 0.95 1.3 0.95 Q1.25 0.9 1.25 0.85 L1.25 0.75 1.5 0.7 1.55 0.75 Q1.55 0.95 1.6 1.0 L1.7 1.05 1.85 1.15 2.2 1.15 M0.15 2.6 L0.25 2.5 0.25 2.6 0.3 2.8 Q0.05 3.05 -0.1 3.05 L-0.2 2.9 -0.3 2.8 Q-0.35 2.8 -0.45 2.85 L-0.55 2.9 Q-0.65 2.9 -0.7 2.7 -0.75 2.5 -0.65 2.35 L-0.6 2.2 Q-0.6 2.3 -0.6 2.35 -0.55 2.4 -0.5 2.5 -0.3 2.65 -0.2 2.7 L0.05 2.65 Q0.1 2.65 0.15 2.6 M2.35 6.8 L2.1 6.75 Q2.1 6.35 2.3 6.1 2.45 5.95 2.6 5.95 2.7 5.95 2.8 6.0 2.9 6.1 2.9 6.3 L2.9 6.4 Q2.9 6.45 2.85 6.55 2.7 6.85 2.6 6.8 L2.45 6.75 2.35 6.8 M1.4 6.85 L1.4 6.95 Q1.4 7.05 1.3 7.3 L1.15 7.7 1.1 7.75 1.05 7.9 1.05 7.95 Q1.0 8.1 1.05 8.15 1.1 8.25 1.1 8.4 L1.15 8.5 1.25 8.55 1.4 8.5 Q1.45 8.45 1.5 8.45 L1.7 8.5 1.85 8.55 Q1.95 8.55 2.05 8.45 L2.45 7.95 2.5 7.95 Q2.55 8.0 2.5 8.15 2.5 8.3 2.5 8.5 L2.5 8.6 Q2.45 9.1 2.1 9.55 1.8 9.9 1.6 9.9 1.45 9.9 1.25 9.65 1.1 9.4 1.0 9.4 0.95 9.4 0.8 9.55 0.6 9.65 0.55 9.65 L0.4 9.55 0.25 9.4 0.25 9.2 Q0.3 9.0 0.4 8.9 L0.5 8.75 0.5 8.6 0.3 8.45 0.2 8.6 0.1 8.7 -0.3 8.6 Q-0.35 8.6 -0.5 8.75 -0.65 8.95 -0.6 9.15 L-0.6 9.35 -0.45 9.45 Q-0.3 9.5 -0.25 9.55 L-0.2 10.2 Q-0.1 10.3 -0.05 10.35 L0.1 10.35 0.25 10.3 Q0.3 10.25 0.4 10.2 L0.55 10.15 Q0.6 10.15 0.6 10.2 L0.65 10.25 0.65 10.45 0.6 10.55 Q0.65 10.55 0.65 10.6 0.65 10.95 0.4 11.2 L0.25 11.4 0.1 11.55 Q-0.05 11.65 -0.2 11.8 -0.3 11.9 -0.5 11.9 -0.7 11.9 -0.75 11.7 -0.85 11.5 -1.1 11.5 -1.25 11.5 -1.35 10.8 -1.45 10.05 -1.65 10.05 -1.7 10.05 -2.0 10.25 L-2.15 10.3 -2.2 10.35 Q-2.25 10.35 -2.25 10.3 L-2.35 10.25 -2.25 10.25 -2.3 10.15 -2.3 9.9 -2.25 9.75 -2.0 9.65 -1.8 9.55 Q-1.7 9.55 -1.5 9.45 -1.25 9.3 -1.2 9.2 L-1.2 9.05 -1.5 8.8 Q-1.7 8.6 -1.75 8.6 -1.9 8.6 -2.0 8.45 -2.2 8.1 -2.35 7.9 L-2.4 7.7 -2.1 7.4 -2.0 7.55 -1.85 7.65 -1.6 7.8 Q-1.35 7.9 -1.3 7.9 -1.25 7.9 -1.1 7.65 L-0.85 7.35 Q-0.8 7.3 -0.65 7.15 L-0.45 7.05 Q-0.4 7.05 -0.3 7.15 L-0.2 7.3 0.0 7.35 Q0.15 7.35 0.3 7.25 0.5 7.1 0.6 7.1 0.65 7.1 0.65 7.2 L0.7 7.25 0.75 7.25 0.85 7.3 Q0.95 7.3 1.05 7.05 1.2 6.8 1.25 6.8 L1.35 6.8 1.4 6.85 M5.0 5.6 Q5.05 5.6 5.15 5.85 L5.15 6.0 Q5.05 6.05 5.05 6.3 5.05 6.45 5.0 7.0 L4.85 7.15 Q4.8 7.25 4.75 7.4 4.75 7.6 4.65 7.8 4.6 8.05 4.5 8.05 4.05 8.35 3.95 8.35 3.9 8.35 3.85 8.3 3.85 8.25 3.8 8.25 3.75 8.25 3.7 8.35 3.65 8.4 3.6 8.4 3.5 8.4 3.35 8.3 L3.1 8.1 Q3.05 8.05 3.05 7.9 3.05 7.85 3.1 7.7 3.15 7.6 3.15 7.5 3.15 7.45 3.05 7.35 3.0 7.2 2.9 7.2 L2.9 7.15 3.05 7.15 3.05 6.9 3.1 6.8 3.15 6.75 3.4 6.8 Q3.6 6.85 3.7 6.9 3.75 7.0 3.8 7.1 3.85 7.25 3.9 7.25 L4.05 7.2 4.15 7.1 4.25 7.1 4.35 7.15 Q4.65 6.8 4.7 6.55 L4.8 6.15 Q4.9 5.9 4.85 5.6 L4.85 5.55 4.95 5.5 Q5.0 5.5 5.0 5.55 L5.0 5.6 M4.6 6.35 Q4.55 6.75 4.35 6.8 4.2 6.85 4.1 6.7 L4.05 6.5 Q4.1 6.15 4.25 5.95 4.35 5.8 4.45 5.85 L4.55 5.85 4.6 6.35 M-5.75 -1.3 Q-5.6 -1.1 -5.5 -1.1 L-5.4 -1.3 -5.25 -1.5 Q-5.2 -1.6 -5.1 -1.65 L-5.0 -1.7 Q-5.0 -1.75 -5.1 -1.9 -5.15 -2.0 -5.15 -2.2 -5.15 -2.55 -4.75 -2.75 -4.5 -2.9 -4.35 -2.9 L-4.05 -2.8 Q-4.0 -2.8 -4.0 -2.75 L-4.0 -2.7 -3.85 -2.75 -3.75 -2.8 -3.5 -2.8 -3.4 -3.05 -3.3 -3.35 Q-3.25 -3.5 -3.1 -3.5 L-2.95 -3.4 -2.6 -3.45 -2.4 -3.45 Q-2.3 -3.45 -2.15 -3.35 L-1.8 -3.15 -1.8 -3.1 Q-1.8 -3.05 -1.8 -2.95 -1.8 -2.9 -1.8 -2.8 L-1.85 -2.7 -1.65 -2.6 Q-1.6 -2.6 -1.55 -2.55 L-1.55 -2.5 -1.5 -2.35 -1.5 -2.2 Q-1.5 -2.15 -1.55 -2.1 L-1.6 -2.1 -1.65 -2.05 -1.7 -2.15 -1.75 -2.15 Q-1.85 -2.1 -2.15 -2.1 -2.2 -2.1 -2.3 -2.15 L-2.45 -2.25 -2.35 -2.4 -2.3 -2.45 -2.4 -2.55 -2.5 -2.6 Q-2.65 -2.6 -2.95 -2.3 -3.25 -1.95 -3.3 -1.6 -3.35 -1.45 -3.45 -1.35 -3.6 -1.2 -3.7 -1.2 L-3.8 -1.3 Q-3.85 -1.4 -3.9 -1.4 -3.95 -1.4 -4.15 -1.05 -4.35 -0.7 -4.4 -0.6 -4.45 -0.35 -4.65 -0.1 -4.75 0.05 -4.9 0.15 -5.05 0.25 -5.5 0.45 -5.75 0.65 -5.9 1.05 L-5.85 1.05 -5.85 1.1 -5.8 1.1 -5.75 1.15 -5.75 1.2 -5.8 1.3 -5.85 1.45 -5.8 1.7 Q-5.7 1.75 -5.6 1.75 -5.5 1.85 -5.5 2.15 L-5.45 2.15 Q-5.4 2.1 -5.35 2.1 L-5.2 2.2 -5.1 2.3 -5.1 2.6 -5.05 2.6 -5.05 2.65 -5.2 2.65 -5.6 2.55 -5.8 2.55 -6.0 2.6 Q-6.05 2.6 -6.15 2.5 -6.2 2.4 -6.15 2.2 -6.35 1.95 -6.5 1.95 -6.55 1.95 -6.85 2.15 L-7.35 2.3 Q-7.4 2.4 -7.4 2.25 -7.4 2.15 -7.35 2.1 L-7.3 1.95 -7.35 1.8 -7.35 1.85 -7.45 1.85 -7.6 1.8 -7.8 1.75 -8.0 1.75 -7.95 1.7 Q-7.95 1.65 -7.95 1.55 L-8.0 1.55 -8.1 1.75 Q-8.15 1.75 -8.3 1.6 -8.45 1.5 -8.55 1.5 -8.6 1.5 -8.65 1.45 L-8.75 1.35 Q-8.85 0.8 -8.6 0.5 -8.4 0.25 -8.15 0.25 L-8.05 0.35 -7.95 0.4 Q-8.0 0.55 -8.05 0.6 L-8.1 0.65 -8.05 0.9 -7.85 1.1 Q-7.8 1.2 -7.7 1.2 L-7.5 1.2 -7.45 1.1 -7.45 0.9 -7.4 0.8 -7.35 0.8 Q-7.3 0.8 -7.3 0.85 -7.3 0.95 -7.25 0.95 -7.15 0.95 -7.1 0.85 L-6.9 0.7 -6.75 0.65 -6.55 0.7 Q-6.55 0.65 -6.5 0.65 L-6.5 0.55 -6.55 0.45 -6.55 0.3 Q-6.45 0.05 -6.45 0.0 L-6.45 -0.45 -6.5 -0.9 Q-6.5 -1.25 -5.95 -1.5 -5.9 -1.5 -5.75 -1.3 M-0.8 1.65 L-0.8 1.75 Q-0.8 1.9 -0.85 1.95 L-0.9 1.95 Q-1.0 1.95 -1.05 1.85 -1.1 1.7 -1.15 1.35 -1.15 1.3 -1.1 1.3 L-1.0 1.5 Q-0.9 1.65 -0.8 1.65 M-4.6 2.5 Q-4.5 2.75 -4.5 3.1 -4.55 3.2 -4.55 3.25 -4.6 3.3 -4.65 3.3 -4.7 3.3 -4.85 3.05 -5.0 2.8 -5.0 2.65 -5.0 2.25 -4.8 2.25 -4.7 2.25 -4.6 2.5 M-4.4 3.45 L-4.3 3.5 -4.2 3.65 Q-4.15 3.9 -4.15 4.3 -4.2 4.4 -4.3 4.4 -4.35 4.4 -4.4 4.15 -4.5 3.85 -4.5 3.65 -4.5 3.5 -4.45 3.45 L-4.4 3.45 M-5.0 5.35 L-4.85 5.35 Q-4.75 5.35 -4.65 5.4 -4.5 5.55 -4.45 5.8 L-4.3 5.8 Q-4.2 5.8 -4.15 5.85 L-4.2 5.95 Q-4.25 6.05 -4.35 6.1 L-4.5 6.25 -4.45 6.35 -4.4 6.4 -4.4 6.55 Q-4.5 6.85 -4.75 7.3 -5.0 7.6 -5.0 7.9 -5.0 8.05 -4.95 8.2 L-4.5 8.35 Q-4.25 8.45 -4.05 8.55 L-4.05 8.85 Q-3.85 9.25 -3.55 9.25 -3.2 9.25 -3.1 9.3 L-3.1 9.4 Q-3.1 9.5 -3.1 9.6 -3.1 9.8 -3.4 10.1 -3.7 10.35 -3.85 10.35 -3.95 10.35 -4.15 10.1 -4.35 9.8 -4.4 9.4 L-4.6 9.55 -4.8 9.6 Q-4.9 9.6 -5.0 9.5 L-5.25 9.25 Q-5.3 9.15 -5.35 9.0 -5.4 8.8 -5.5 8.65 L-5.55 8.4 Q-5.65 8.1 -5.65 7.75 L-5.6 7.6 -5.55 7.55 Q-5.85 7.05 -5.95 7.05 L-6.05 7.1 -6.25 7.15 Q-6.3 7.15 -6.35 7.05 L-6.35 6.75 Q-6.35 6.55 -6.35 6.45 -6.4 6.25 -6.4 6.05 -6.3 5.85 -6.1 5.9 -5.85 5.9 -5.8 5.8 -5.7 5.7 -5.65 5.45 L-5.55 5.05 Q-5.5 4.9 -5.4 4.85 -5.3 4.8 -5.25 4.8 -5.1 4.8 -5.1 5.2 -5.05 5.3 -5.0 5.35 M-3.6 6.6 Q-3.45 6.6 -3.3 6.8 -3.2 7.0 -3.0 7.45 L-3.0 7.65 Q-3.0 7.85 -3.05 7.9 L-3.2 7.95 -3.5 7.85 -3.6 7.8 Q-3.65 7.7 -3.7 7.65 L-3.8 7.55 Q-3.8 7.5 -3.8 7.05 -3.8 6.8 -3.75 6.7 -3.7 6.6 -3.6 6.6 M-2.7 9.1 Q-2.65 9.1 -2.55 9.25 -2.45 9.45 -2.4 9.8 -2.45 9.95 -2.55 10.15 -2.65 10.3 -2.7 10.3 -2.75 10.3 -2.9 10.05 -2.95 9.95 -2.95 9.8 -3.0 9.65 -2.95 9.5 -2.9 9.3 -2.85 9.2 -2.75 9.1 -2.7 9.1 M-5.95 1.45 L-5.9 1.5 -5.9 1.45 -5.95 1.4 -5.95 1.45 M-6.95 5.35 L-6.95 5.45 -7.05 5.45 Q-7.1 5.45 -7.1 5.4 L-7.1 5.3 -7.05 5.3 Q-7.0 5.3 -6.95 5.35 M-8.45 2.2 L-8.4 2.25 Q-8.45 2.45 -8.55 2.5 -8.7 2.55 -8.8 2.65 L-8.8 2.9 Q-8.8 3.3 -9.05 3.3 L-9.15 3.25 -9.2 3.2 Q-9.2 3.0 -9.15 2.7 -9.25 2.7 -9.3 2.85 -9.45 2.95 -9.55 3.15 -9.55 3.25 -9.65 3.3 -9.7 3.3 -9.7 3.45 L-9.7 3.6 -9.75 3.8 -9.7 4.3 Q-9.45 4.45 -9.3 4.55 -9.1 4.8 -9.0 5.4 L-9.0 5.5 -9.05 5.5 -9.15 5.45 Q-9.2 5.35 -9.25 5.35 L-9.35 5.5 Q-9.4 5.6 -9.45 5.6 -9.55 5.6 -9.75 5.2 -10.0 4.8 -10.0 4.55 -10.1 3.85 -10.3 3.6 L-10.5 3.25 -10.55 3.0 -10.45 2.9 -10.35 2.9 -10.15 2.85 Q-10.0 2.8 -10.0 2.7 -10.0 2.65 -10.05 2.55 -10.1 2.5 -10.1 2.45 -10.1 2.3 -10.0 2.1 L-9.9 1.9 Q-9.75 1.8 -9.7 1.85 L-9.65 1.9 Q-9.25 1.75 -9.15 1.75 -9.05 1.75 -8.95 2.0 -8.85 2.3 -8.75 2.3 -8.65 2.3 -8.45 2.2" fill="#c5edfe" fill-rule="evenodd" stroke="none"/>
  </g>
</svg>
