<?xml version="1.0" encoding="UTF-8" standalone="no"?>
<svg xmlns:ffdec="https://www.free-decompiler.com/flash" xmlns:xlink="http://www.w3.org/1999/xlink" ffdec:objectType="shape" height="18.0px" width="16.65px" xmlns="http://www.w3.org/2000/svg">
  <g transform="matrix(1.0, 0.0, 0.0, 1.0, 10.9, 4.7)">
    <path d="M2.5 -0.05 Q2.45 0.0 2.4 -0.05 2.4 -0.15 2.45 -0.25 L2.5 -0.25 2.5 -0.05 M5.4 5.85 L5.45 5.9 5.45 6.05 Q5.5 6.1 5.4 6.1 5.3 6.1 5.25 6.05 5.2 5.95 5.25 5.8 L5.3 5.75 Q5.35 5.8 5.4 5.85 M5.45 6.2 L5.5 6.2 5.65 6.55 Q5.75 6.9 5.75 7.05 5.75 7.55 5.6 7.65 5.45 7.7 5.35 7.75 L5.15 8.0 Q5.0 8.15 4.95 8.1 L4.95 8.0 5.0 8.0 5.1 7.7 5.25 7.35 Q5.3 7.25 5.4 7.1 5.5 6.9 5.45 6.35 L5.45 6.2 M4.35 2.2 L4.3 2.15 Q4.3 2.05 4.3 1.95 4.35 1.95 4.4 2.2 L4.35 2.2 M2.65 1.0 L2.6 1.0 2.6 0.8 Q2.65 0.7 2.7 0.65 L2.7 0.75 2.75 0.9 Q2.75 0.95 2.7 1.0 L2.65 1.0 M3.9 3.35 Q3.9 3.15 4.0 3.0 L4.05 3.05 4.05 3.2 Q4.05 3.35 3.9 3.35 M4.1 4.65 L4.15 4.8 Q4.15 4.85 4.15 4.9 L4.05 4.9 4.05 5.05 Q4.05 5.4 3.95 5.45 L3.75 5.5 3.65 5.5 Q3.65 5.3 3.75 5.25 L4.0 4.9 4.05 4.9 4.05 4.85 Q4.05 4.8 4.05 4.7 L4.1 4.65 M1.7 1.6 L1.7 1.7 Q1.7 1.8 1.65 1.85 1.55 1.85 1.5 1.75 L1.6 1.65 1.7 1.6 M2.3 7.45 Q2.4 7.3 2.45 7.3 L2.55 7.45 2.5 7.55 2.45 7.6 Q2.4 7.6 2.35 7.5 L2.3 7.45 M1.25 9.25 Q1.3 9.1 1.35 9.05 1.4 9.1 1.4 9.3 1.4 9.55 1.35 9.7 1.25 9.9 1.15 9.9 1.15 10.05 1.1 10.2 1.0 10.3 0.95 10.3 L0.9 10.2 Q0.85 10.1 0.8 10.1 L0.6 10.25 Q0.4 10.4 0.2 10.4 L0.05 10.1 Q-0.05 9.9 0.05 9.75 L0.2 9.85 0.3 9.95 Q0.4 9.95 0.6 9.8 L0.9 9.8 0.9 9.6 Q0.95 9.55 1.0 9.5 1.1 9.45 1.15 9.4 L1.25 9.25 M0.15 9.05 Q0.15 9.2 0.0 9.25 L-0.25 9.3 -0.4 9.35 -0.4 9.4 Q-0.45 9.55 -0.4 9.65 -0.4 9.9 -0.6 10.05 -0.8 10.15 -0.95 10.15 L-1.25 10.2 -1.5 10.3 Q-1.55 10.3 -1.6 10.1 L-1.65 10.05 Q-1.7 9.9 -1.7 9.45 L-1.7 9.25 -1.65 9.2 -1.6 9.2 -1.5 9.4 Q-1.45 9.6 -1.35 9.6 L-1.1 9.65 Q-1.05 9.65 -0.85 9.55 L-0.65 9.4 -0.7 9.15 Q-0.6 9.05 -0.5 9.0 L-0.35 9.0 Q-0.2 8.95 -0.15 8.75 -0.15 8.6 -0.05 8.6 0.05 8.6 0.1 8.65 0.15 8.75 0.15 9.05 M1.2 10.7 L1.2 10.4 1.25 10.35 1.3 10.4 Q1.35 10.4 1.35 10.5 L1.4 10.55 1.65 10.45 Q1.8 10.35 1.9 10.25 1.85 10.1 1.8 10.05 1.85 9.85 1.95 9.85 2.1 9.8 2.15 9.75 L2.3 9.5 2.35 9.2 Q2.35 9.0 2.4 8.95 L2.5 8.9 Q2.55 8.9 2.65 9.0 L2.7 9.0 Q2.75 9.0 2.8 9.2 2.9 9.4 2.9 9.75 L2.85 9.8 2.85 9.9 2.7 10.15 Q2.6 10.3 2.55 10.35 2.65 11.0 2.4 11.25 2.2 11.4 2.0 11.4 1.9 11.4 1.75 11.25 1.65 11.1 1.6 11.1 L1.5 11.15 Q1.4 11.25 1.35 11.25 L1.25 11.25 1.25 10.95 Q1.2 10.8 1.2 10.75 L1.2 10.7 M4.8 6.35 L4.85 6.3 Q4.9 6.35 4.9 6.7 4.9 6.95 4.75 7.1 4.65 7.25 4.55 7.25 L4.35 7.2 Q4.35 7.15 4.4 7.0 L4.55 6.9 Q4.65 6.85 4.7 6.65 L4.8 6.35 M2.95 6.75 L2.95 6.85 Q2.95 7.0 2.85 7.1 L2.7 7.25 Q2.65 7.2 2.7 7.05 L2.7 6.85 2.8 6.7 Q2.8 6.6 2.85 6.5 L2.95 6.75 M3.0 8.15 Q3.05 8.25 3.2 8.25 3.3 8.25 3.45 8.4 3.55 8.55 3.55 8.65 3.55 8.75 3.5 8.85 L3.4 9.0 3.75 8.95 3.85 9.05 4.0 9.1 4.1 9.15 4.15 9.1 4.2 9.1 4.2 9.2 4.25 9.2 4.25 9.25 4.15 9.45 Q4.05 9.55 3.95 9.6 3.9 9.6 3.75 9.4 3.65 9.2 3.6 9.2 3.4 9.2 3.25 9.3 3.2 9.2 3.25 8.85 L3.2 8.7 3.15 8.65 2.8 8.75 Q2.7 8.75 2.7 8.4 2.75 8.05 2.9 8.05 2.95 8.05 3.0 8.15 M4.85 8.35 Q4.8 8.55 4.75 8.6 4.7 8.6 4.65 8.65 4.6 8.45 4.7 8.35 L4.8 8.3 4.85 8.35 M0.7 11.5 L0.7 11.6 Q0.55 12.1 0.45 12.45 0.4 12.55 0.2 12.55 0.1 12.55 0.05 12.45 L0.05 12.25 0.25 11.95 Q0.35 11.8 0.45 11.6 L0.4 11.6 0.4 11.5 0.45 11.4 0.7 11.45 0.7 11.5 M-8.45 -0.3 Q-8.4 -0.3 -8.3 -0.2 L-8.15 -0.05 -8.15 0.05 Q-8.25 0.15 -8.4 0.15 L-8.45 0.1 Q-8.5 0.05 -8.55 0.05 -8.6 0.05 -8.7 0.15 -8.8 0.25 -8.8 0.2 -8.85 0.2 -8.85 0.05 -8.85 -0.2 -8.65 -0.3 L-8.45 -0.3 M-5.3 -4.7 Q-5.25 -4.7 -5.15 -4.6 L-5.0 -4.4 -5.0 -4.2 Q-4.95 -4.15 -4.85 -4.05 -4.75 -4.0 -4.7 -3.9 L-4.6 -3.95 -4.6 -4.25 -4.5 -4.35 -4.45 -4.35 -4.3 -4.4 Q-4.25 -4.4 -4.1 -4.1 -3.95 -3.8 -4.0 -3.65 -4.0 -3.45 -4.05 -3.4 L-4.2 -3.35 -4.25 -3.5 Q-4.2 -3.6 -4.15 -3.6 L-4.2 -3.8 -4.25 -3.8 -4.35 -3.85 Q-4.4 -3.85 -4.45 -3.6 -4.5 -3.4 -4.6 -3.4 -4.65 -3.4 -4.75 -3.5 -4.85 -3.6 -4.9 -3.7 -4.95 -3.6 -5.05 -3.55 -5.2 -3.45 -5.25 -3.45 -5.3 -3.45 -5.35 -3.95 -5.45 -4.0 -5.45 -3.9 L-5.5 -3.75 -5.5 -3.45 -5.45 -3.2 Q-5.45 -2.9 -5.6 -2.8 -5.7 -2.7 -5.8 -2.7 -5.9 -2.7 -5.9 -2.95 L-5.85 -3.25 Q-5.8 -3.4 -5.85 -3.7 L-5.85 -4.0 Q-5.85 -4.35 -5.6 -4.55 -5.45 -4.7 -5.3 -4.7 M-6.85 -1.75 Q-6.8 -1.85 -6.8 -2.15 -6.8 -2.5 -6.6 -2.65 -6.5 -2.8 -6.35 -2.8 L-6.15 -2.6 Q-5.95 -2.35 -5.85 -2.25 L-5.85 -2.1 -5.9 -2.0 Q-5.9 -1.95 -5.95 -1.95 -6.0 -1.95 -6.15 -2.05 -6.25 -2.15 -6.3 -2.25 L-6.35 -2.15 Q-6.4 -2.1 -6.4 -2.0 -6.35 -1.65 -6.45 -1.5 -6.55 -1.4 -6.75 -1.3 -6.8 -1.3 -6.8 -1.15 -6.8 -1.05 -6.75 -1.0 L-6.65 -0.9 Q-6.7 -0.75 -6.6 -0.75 -6.65 -0.75 -6.65 -0.6 L-6.65 -0.35 Q-6.65 -0.25 -6.55 -0.2 L-6.5 -0.1 -6.45 0.05 Q-6.55 0.2 -6.65 0.2 -6.75 0.2 -6.85 0.1 -7.05 0.0 -7.05 -0.2 L-7.05 -0.35 Q-7.05 -0.4 -7.0 -0.45 -6.95 -0.45 -6.95 -0.65 -6.95 -0.85 -7.1 -1.05 L-7.3 -1.25 -7.3 -1.4 Q-7.2 -1.75 -7.0 -1.7 -6.9 -1.7 -6.85 -1.75 M-5.4 -2.2 Q-5.4 -2.15 -5.4 -2.0 -5.4 -1.85 -5.5 -1.75 -5.6 -1.65 -5.65 -1.65 -5.8 -1.65 -5.7 -1.95 -5.65 -2.3 -5.5 -2.3 L-5.4 -2.2 M-3.4 -3.45 L-3.35 -3.3 Q-3.35 -3.2 -3.6 -2.95 L-3.85 -2.75 Q-4.0 -2.85 -3.8 -3.3 -3.75 -3.35 -3.65 -3.4 L-3.45 -3.5 -3.4 -3.45 M-2.85 -3.0 Q-2.9 -2.8 -2.95 -2.75 -3.0 -2.7 -3.1 -2.7 L-3.1 -3.7 Q-2.9 -3.95 -2.55 -3.95 -2.5 -3.95 -2.45 -3.9 L-2.4 -3.7 -2.35 -3.55 -2.5 -3.55 Q-2.6 -3.55 -2.9 -3.3 L-2.85 -3.0 M-4.35 -3.25 L-4.25 -3.2 -4.2 -3.1 -4.2 -3.0 Q-4.2 -2.75 -4.35 -2.75 -4.55 -2.75 -4.55 -3.0 -4.5 -3.25 -4.35 -3.25 M-2.0 -3.65 L-2.0 -3.6 Q-2.0 -3.55 -1.95 -3.45 L-2.05 -3.35 Q-2.15 -3.35 -2.25 -3.55 -2.15 -3.7 -2.1 -3.7 L-2.0 -3.65 M-2.1 -3.1 L-2.1 -3.0 Q-2.1 -2.95 -2.2 -2.75 -2.25 -2.6 -2.25 -2.4 -2.35 -2.3 -2.45 -2.3 L-2.5 -2.3 Q-2.5 -2.75 -2.45 -2.85 -2.4 -3.1 -2.2 -3.15 L-2.1 -3.1 M-2.05 -2.5 L-2.0 -2.35 -2.05 -2.25 Q-2.05 -2.2 -2.1 -2.2 L-2.2 -2.25 -2.2 -2.5 -2.1 -2.55 -2.05 -2.5 M-1.0 2.1 L-1.05 2.0 Q-1.0 1.95 -0.95 1.95 L-0.9 1.95 Q-0.9 2.05 -0.95 2.1 L-1.0 2.1 M-0.05 3.05 L0.05 3.1 0.0 3.2 Q-0.1 3.2 -0.1 3.15 -0.1 3.05 -0.05 3.05 M-0.85 3.0 Q-0.9 3.0 -0.9 2.9 -0.9 2.85 -0.85 2.85 L-0.75 2.8 -0.75 3.0 -0.85 3.0 M-5.0 2.5 L-5.1 2.6 -5.15 2.6 Q-5.2 2.5 -5.15 2.35 L-5.1 2.35 Q-5.0 2.4 -5.0 2.5 M-5.2 2.95 L-5.1 2.95 Q-5.05 2.95 -5.05 3.0 -4.95 3.1 -4.95 3.3 L-5.0 3.35 -5.05 3.35 -5.2 3.2 -5.2 2.95 M-4.65 3.75 Q-4.6 3.75 -4.6 3.8 -4.55 3.85 -4.55 4.05 -4.55 4.2 -4.6 4.25 L-4.65 4.3 -4.7 4.25 -4.75 3.8 -4.7 3.75 -4.65 3.75 M-3.65 7.95 L-3.55 7.9 -3.45 7.9 -3.3 7.95 Q-3.4 8.15 -3.5 8.15 L-3.6 8.1 -3.65 7.95 M-3.8 7.95 L-3.85 7.95 Q-4.0 7.95 -4.1 7.65 -4.2 7.3 -4.0 7.15 L-3.95 7.25 -3.9 7.3 Q-3.85 7.5 -3.8 7.7 L-3.8 7.95 M-4.85 10.2 L-5.0 10.2 Q-5.05 10.05 -5.05 9.95 -5.05 9.9 -4.95 9.9 -4.85 9.9 -4.85 10.05 L-4.85 10.2 M-4.65 10.7 L-4.65 10.85 Q-4.65 10.95 -4.55 11.05 -4.45 11.15 -4.4 11.15 L-3.75 10.85 Q-3.7 10.85 -3.7 10.9 -3.65 11.0 -3.65 11.1 -3.65 11.35 -3.8 11.4 L-4.0 11.4 -4.15 11.6 Q-4.3 11.85 -4.45 11.85 -4.65 11.85 -4.8 11.7 L-4.85 11.5 Q-4.9 11.4 -4.95 11.35 -5.05 11.45 -5.1 11.45 -5.2 11.45 -5.25 11.3 -5.3 11.1 -5.3 10.9 -5.25 10.4 -4.9 10.4 -4.85 10.4 -4.8 10.5 L-4.65 10.7 M-3.05 10.05 Q-2.95 10.05 -2.95 10.2 L-2.85 10.5 -2.9 10.6 -3.0 10.6 Q-3.15 10.6 -3.15 10.3 L-3.1 10.1 -3.05 10.05 M-2.8 10.5 Q-2.7 10.35 -2.65 10.35 L-2.6 10.4 Q-2.55 10.4 -2.55 10.5 L-2.7 10.55 Q-2.8 10.55 -2.8 10.5 M-2.3 8.05 Q-2.25 8.3 -2.15 8.35 -2.1 8.35 -2.0 8.4 -1.85 8.5 -1.85 8.55 L-1.85 8.7 Q-1.9 8.8 -2.0 8.8 -2.1 8.8 -2.2 8.7 L-2.5 8.7 -2.6 8.4 Q-2.65 8.15 -2.65 8.1 -2.65 7.95 -2.55 7.9 -2.5 7.85 -2.45 7.85 -2.4 7.85 -2.3 8.05 M-2.35 10.55 Q-2.25 10.35 -2.1 10.35 L-2.05 10.4 -2.05 10.45 -2.1 10.55 -2.05 10.65 -1.8 10.65 Q-1.75 10.65 -1.55 11.05 -1.35 11.45 -1.35 11.55 -1.35 11.7 -1.45 11.85 L-1.55 12.0 Q-1.0 12.7 -0.9 12.7 -0.8 12.7 -0.65 12.55 -0.55 12.45 -0.5 12.45 L-0.4 12.45 Q-0.35 12.5 -0.35 12.65 -0.35 12.95 -0.5 13.15 -0.6 13.3 -0.7 13.3 -0.8 13.3 -1.05 13.05 L-1.45 13.25 -1.55 13.1 -1.65 12.9 Q-1.7 12.6 -1.7 12.4 L-1.7 12.2 -1.85 12.2 -1.9 11.8 -1.9 11.05 -1.95 11.0 Q-2.0 11.0 -2.25 11.2 -2.4 11.05 -2.35 10.75 -2.4 10.65 -2.35 10.55 M-1.15 9.7 L-1.15 9.7 M-5.8 1.05 L-6.05 1.2 Q-6.2 1.3 -6.2 1.15 L-6.2 1.05 Q-6.1 0.9 -6.05 0.85 -6.0 0.8 -5.9 0.8 L-5.85 0.8 -5.8 0.85 -5.8 1.05 M-6.0 1.35 L-6.0 1.5 -6.05 1.55 -6.15 1.5 -6.15 1.4 Q-6.1 1.3 -6.05 1.25 L-6.0 1.35 M-5.95 1.65 L-5.85 1.7 -5.9 1.9 Q-5.95 1.95 -6.0 1.95 -6.0 1.85 -5.95 1.65 M-6.2 1.55 L-6.2 1.65 Q-6.2 1.9 -6.25 2.1 -6.3 2.2 -6.35 2.2 L-6.45 2.1 Q-6.5 1.8 -6.4 1.65 -6.35 1.5 -6.3 1.5 L-6.2 1.55 M-6.9 0.2 L-6.85 0.3 Q-6.95 0.4 -7.05 0.4 -7.1 0.4 -7.1 0.25 L-7.05 0.15 -7.0 0.15 Q-6.95 0.15 -6.9 0.2 M-7.1 0.6 Q-7.1 0.8 -7.35 0.8 -7.4 0.65 -7.35 0.55 -7.3 0.45 -7.25 0.45 L-7.15 0.45 -7.15 0.5 -7.1 0.6 M-7.45 0.6 Q-7.45 0.7 -7.6 0.85 -7.75 1.05 -7.75 1.2 -7.75 1.35 -7.65 1.5 -7.6 1.5 -7.6 1.6 L-7.55 1.6 -7.5 1.7 -7.5 2.0 -7.55 2.05 -7.7 2.05 Q-7.75 2.05 -7.75 1.8 L-7.8 1.75 -7.85 1.65 -7.85 1.55 -7.9 1.6 Q-8.15 1.25 -7.9 0.9 -7.75 0.6 -7.5 0.55 -7.45 0.45 -7.45 0.6 M-7.7 2.05 L-7.7 2.05 M-6.65 5.25 L-6.35 5.15 -6.25 5.0 Q-6.2 4.95 -6.1 4.95 -6.05 4.95 -6.0 5.0 -5.9 5.05 -5.9 5.25 -5.9 5.4 -5.95 5.45 -5.95 5.5 -5.95 5.75 -5.95 5.9 -6.1 5.95 -6.15 5.95 -6.15 5.85 L-6.25 5.45 Q-6.3 5.45 -6.45 5.5 -6.65 5.6 -6.65 5.8 -6.65 5.85 -6.6 5.9 -6.55 5.95 -6.55 6.0 -6.55 6.35 -6.7 6.35 -6.8 6.35 -6.8 5.95 -6.9 5.9 -6.9 5.8 -6.95 5.65 -6.85 5.6 L-6.75 5.4 -6.65 5.25 M-8.4 1.35 L-8.4 1.5 Q-8.4 1.55 -8.4 1.65 L-8.45 1.65 Q-8.5 1.65 -8.55 1.6 L-8.55 1.25 -8.5 1.1 -8.4 1.05 -8.4 1.15 Q-8.4 1.25 -8.4 1.35 M-8.85 0.5 Q-8.85 0.6 -8.8 0.95 L-8.9 1.15 -8.95 1.3 Q-9.2 1.05 -9.1 0.75 -9.1 0.6 -8.95 0.35 -8.9 0.45 -8.85 0.5 M-9.5 1.05 L-9.3 1.25 -9.3 1.35 -9.25 1.4 -9.3 1.5 -9.35 1.5 -9.45 1.45 -9.55 1.35 -9.55 1.3 Q-9.65 1.35 -9.8 1.45 -10.0 1.65 -10.15 1.7 L-10.4 1.8 Q-10.6 1.95 -10.5 2.4 L-10.5 2.45 -10.65 2.2 -10.7 2.0 -10.7 1.85 Q-10.55 1.55 -10.45 1.5 L-10.3 1.4 Q-10.25 1.5 -10.2 1.5 -10.1 1.5 -9.9 1.2 L-9.7 0.9 Q-9.6 0.9 -9.5 1.05 M-10.05 2.45 L-9.95 2.35 Q-9.9 2.25 -9.85 2.25 L-9.8 2.25 -9.75 2.3 Q-9.7 2.3 -9.7 2.4 -9.7 2.55 -9.75 2.5 -9.8 2.5 -9.9 2.65 -10.0 2.75 -10.1 2.8 -10.1 2.75 -10.1 2.65 L-10.05 2.45 M-10.15 3.5 L-10.1 3.45 Q-10.05 3.45 -10.05 3.5 L-10.05 3.55 -9.95 3.8 -10.0 3.85 -10.0 3.95 -10.05 4.0 -10.2 3.75 -10.2 3.55 -10.15 3.5 M-10.25 4.35 L-10.25 4.9 -10.2 5.35 Q-10.25 5.5 -10.35 5.5 -10.4 5.5 -10.4 5.3 L-10.45 5.0 -10.45 4.55 Q-10.4 4.35 -10.35 4.3 L-10.25 4.35 M-9.85 5.45 L-9.75 5.55 Q-9.8 5.7 -9.9 5.75 L-10.0 5.7 -10.1 5.6 Q-10.05 5.5 -10.0 5.4 L-9.95 5.35 Q-9.9 5.35 -9.85 5.45 M-5.95 7.95 L-5.85 7.9 Q-5.75 7.9 -5.7 8.05 -5.65 8.2 -5.65 8.65 -5.7 8.75 -5.8 9.0 -5.9 9.25 -5.95 9.45 -5.9 9.45 -5.8 9.55 -5.7 9.65 -5.65 9.85 L-5.55 9.8 -5.5 9.85 -5.45 9.85 -5.45 10.0 Q-5.45 10.2 -5.7 10.2 L-5.9 10.0 Q-6.05 10.0 -6.1 10.1 -6.15 10.25 -6.25 10.25 -6.35 10.25 -6.35 9.9 -6.4 9.55 -6.25 9.25 -6.2 9.15 -6.05 8.85 -5.95 8.5 -5.95 8.4 -5.95 8.35 -6.0 8.25 L-6.0 8.1 Q-6.0 7.95 -5.95 7.95 M-5.3 7.3 L-5.4 7.3 -5.45 7.35 Q-5.5 7.35 -5.5 7.25 L-5.55 7.15 -5.55 7.0 -5.45 6.85 -5.4 6.8 -5.35 6.95 -5.3 7.3 M-6.65 6.8 Q-6.65 6.85 -6.85 7.0 L-7.05 7.2 Q-7.0 7.45 -6.8 7.45 -6.65 7.45 -6.6 7.7 L-6.6 7.85 Q-6.65 7.9 -6.75 7.9 -6.9 7.9 -7.0 8.1 -7.15 8.25 -7.2 8.25 -7.3 8.25 -7.35 8.0 -7.45 7.8 -7.45 7.7 L-7.5 7.5 Q-7.6 7.35 -7.55 7.3 -7.55 7.2 -7.45 7.05 L-7.35 6.9 -6.75 6.55 Q-6.7 6.6 -6.7 6.65 -6.65 6.7 -6.65 6.8 M-5.55 9.1 Q-5.4 9.2 -5.35 9.3 -5.45 9.5 -5.5 9.5 L-5.6 9.5 Q-5.65 9.45 -5.65 9.25 -5.65 9.1 -5.55 9.1 M-0.35 11.85 Q-0.35 11.8 -0.3 11.8 L-0.2 11.85 -0.1 11.85 -0.1 11.9 Q-0.05 11.95 -0.05 12.0 -0.05 12.15 -0.2 12.3 -0.25 12.3 -0.3 12.2 L-0.4 11.9 -0.35 11.85 M-10.55 2.65 L-10.5 2.75 Q-10.5 2.9 -10.6 3.0 L-10.7 3.2 -10.65 3.3 -10.6 3.5 -10.6 3.55 -10.65 3.6 Q-10.75 3.55 -10.85 3.4 -10.95 3.2 -10.9 3.05 -10.85 3.0 -10.7 2.85 L-10.55 2.65" fill="#c5edfe" fill-rule="evenodd" stroke="none"/>
  </g>
</svg>
