<?xml version="1.0" encoding="UTF-8" standalone="no"?>
<svg xmlns:ffdec="https://www.free-decompiler.com/flash" xmlns:xlink="http://www.w3.org/1999/xlink" ffdec:objectType="shape" height="13.65px" width="13.9px" xmlns="http://www.w3.org/2000/svg">
  <g transform="matrix(1.0, 0.0, 0.0, 1.0, 9.35, 3.3)">
    <path d="M1.85 -1.8 L1.85 -1.65 1.8 -1.55 1.75 -1.5 Q1.7 -1.6 1.7 -1.7 1.7 -1.8 1.8 -1.8 L1.85 -1.8 M1.9 -0.6 L1.9 -0.75 Q1.95 -0.8 1.9 -0.95 L2.05 -1.15 2.1 -1.1 2.15 -1.1 2.25 -0.9 2.25 -0.3 Q2.25 -0.1 2.3 0.1 2.4 0.3 2.4 0.7 2.4 1.0 2.3 1.0 L2.1 1.05 1.95 1.15 Q1.8 1.2 1.75 1.2 1.7 1.2 1.65 1.15 1.55 1.0 1.6 0.8 L1.6 0.65 1.3 0.8 Q1.15 0.85 1.1 0.75 1.15 0.65 1.4 0.5 1.6 0.4 1.7 0.4 1.75 0.4 1.8 0.45 L1.85 0.5 1.85 0.7 2.05 0.7 2.05 0.65 2.1 0.5 1.95 0.2 1.95 -0.25 1.9 -0.6 M2.2 -0.2 Q2.2 0.2 2.2 0.25 L2.25 0.25 2.2 -0.2 M4.0 2.25 L4.0 2.4 Q3.95 2.5 3.8 2.7 3.65 2.9 3.6 2.9 3.35 2.9 3.4 2.5 3.45 2.15 3.7 2.1 L3.7 1.8 3.75 1.5 3.8 1.45 3.85 1.45 Q4.1 1.45 4.1 1.95 4.1 2.05 4.0 2.25 M3.45 3.2 L3.45 4.0 3.6 4.3 3.6 4.95 3.65 4.95 3.7 5.0 3.65 5.05 3.6 5.15 3.6 5.55 Q3.75 5.8 3.85 5.8 4.05 5.8 4.1 5.7 4.15 5.55 4.15 5.25 4.15 5.15 4.2 5.1 L4.25 4.95 4.35 5.15 4.45 5.3 4.45 5.6 Q4.45 5.65 4.45 5.7 4.4 5.75 4.4 5.8 L4.4 5.9 4.45 5.9 Q4.5 5.95 4.55 6.5 4.5 6.7 4.4 6.85 4.3 7.0 4.25 7.05 L4.05 7.1 3.9 7.15 Q3.85 7.15 3.75 7.2 L3.55 7.3 Q3.5 7.3 3.4 7.2 L3.25 7.15 Q3.2 6.7 3.05 6.4 L3.0 6.3 2.95 6.4 2.8 6.25 2.75 6.3 2.65 6.35 Q2.6 6.35 2.55 6.45 2.5 6.55 2.45 6.55 2.4 6.55 2.35 6.5 L2.25 6.45 2.0 6.75 Q2.05 7.3 2.1 7.3 2.2 7.4 2.35 7.4 2.4 7.4 2.45 7.45 2.5 7.55 2.5 7.65 2.5 7.7 2.4 8.0 L2.25 8.3 2.05 8.4 1.9 8.45 Q1.85 8.45 1.8 8.35 1.8 8.3 1.75 8.3 1.7 8.3 1.3 8.6 L0.85 8.85 0.7 8.85 Q0.7 8.5 0.7 8.35 L0.7 8.15 0.45 8.15 Q0.45 8.3 0.45 8.4 0.4 8.5 0.4 8.55 0.4 8.7 0.6 9.0 L0.85 9.3 0.85 9.5 Q0.75 9.8 0.6 9.95 L0.25 10.15 -0.05 10.25 -0.4 10.35 Q-0.65 10.35 -0.85 9.95 -1.1 9.5 -1.45 9.3 -1.6 9.65 -1.7 9.75 -1.85 9.9 -2.05 9.9 -2.2 9.9 -2.3 9.65 -2.35 9.5 -2.45 9.1 -2.5 8.7 -2.55 8.55 -2.65 8.3 -2.8 8.3 -3.1 8.3 -3.3 8.6 -3.5 8.85 -3.8 8.85 L-4.0 8.8 -4.25 8.75 -4.4 8.6 -4.6 8.3 Q-4.65 8.15 -4.7 7.7 -4.75 7.2 -4.85 7.05 -4.9 6.9 -5.15 6.8 -5.45 6.65 -5.45 6.05 -5.45 5.7 -5.35 5.45 -5.25 5.25 -5.15 5.25 L-5.05 5.45 Q-4.9 5.65 -4.85 5.8 L-4.85 5.85 -4.8 5.9 -4.6 5.65 -4.45 5.45 -4.3 5.3 Q-4.2 5.2 -4.15 5.0 -4.15 4.35 -4.45 3.7 -4.7 3.15 -4.9 3.05 L-5.35 2.75 Q-5.65 2.55 -5.7 2.55 L-5.95 2.4 -6.3 2.25 -6.6 2.25 -7.0 2.35 Q-7.1 2.4 -7.35 2.6 -7.45 2.7 -7.5 2.75 -7.6 2.9 -7.5 3.1 L-7.5 3.25 -7.65 3.45 Q-7.7 3.55 -7.75 3.55 -7.85 3.55 -8.0 3.45 -8.15 3.3 -8.2 3.3 L-8.3 3.35 -8.35 3.4 Q-8.4 4.0 -8.4 4.1 -8.4 4.35 -8.25 4.7 -8.1 5.0 -8.15 5.15 -8.25 5.15 -8.25 5.25 L-8.25 5.4 -8.2 5.3 -8.15 5.5 -7.8 5.45 Q-7.75 5.45 -7.7 5.5 -7.7 5.6 -7.55 5.65 -7.5 5.65 -7.45 5.75 L-7.3 5.9 -7.3 6.1 Q-7.3 6.2 -7.5 6.35 L-7.45 6.35 -7.45 6.4 Q-7.5 6.55 -7.7 6.65 -7.85 6.8 -7.95 6.8 L-8.0 6.7 -8.05 6.65 -8.2 6.65 Q-8.4 6.65 -8.55 6.1 -8.7 5.65 -8.7 5.45 L-8.6 4.05 -8.6 3.9 -8.65 3.85 -8.65 3.75 -8.9 3.65 Q-9.15 3.55 -9.2 3.55 -9.4 3.55 -9.3 3.2 -9.25 3.0 -9.2 2.85 L-9.0 2.6 Q-8.95 2.5 -8.85 2.45 L-8.4 2.25 -8.3 2.2 Q-8.3 2.1 -8.3 2.0 L-8.15 1.85 -8.2 1.75 -8.2 1.5 Q-8.2 1.15 -8.0 0.95 -7.85 0.85 -7.7 0.85 -7.65 0.85 -7.6 0.9 L-7.5 0.95 -7.5 1.1 Q-7.55 1.15 -7.6 1.15 -7.7 1.25 -7.75 1.35 L-7.55 1.55 -7.4 1.6 -7.3 1.75 Q-7.25 1.9 -7.25 2.0 L-7.2 2.0 Q-7.1 2.0 -7.05 1.9 L-6.95 1.75 -6.95 1.6 -7.0 1.35 Q-6.95 1.05 -6.85 0.9 -6.8 0.85 -6.7 0.85 -6.55 0.85 -6.4 1.05 -6.25 1.25 -6.15 1.3 L-6.15 0.15 Q-6.15 -0.3 -5.9 -0.7 -5.7 -1.0 -5.6 -1.0 L-5.35 -0.85 -5.05 -0.75 Q-5.0 -0.75 -4.95 -0.8 L-4.85 -0.95 Q-4.8 -0.95 -4.8 -1.0 -4.75 -1.05 -4.7 -1.25 L-4.6 -1.75 -4.45 -2.15 Q-4.35 -2.4 -4.1 -2.45 L-3.7 -2.55 -3.6 -2.5 -3.6 -2.35 -3.5 -2.25 Q-3.4 -2.3 -3.3 -2.5 L-3.1 -2.75 Q-3.05 -3.3 -2.75 -3.3 L-1.95 -3.1 -1.9 -3.05 -1.9 -3.0 Q-1.85 -2.8 -1.7 -2.7 -1.6 -2.65 -1.5 -2.65 L-1.45 -2.65 -1.45 -2.6 Q-1.4 -2.6 -1.3 -2.35 -1.25 -2.1 -1.25 -2.05 -1.45 -1.75 -1.5 -1.75 -1.55 -1.75 -1.6 -1.85 L-1.65 -1.95 Q-1.85 -1.95 -2.1 -1.6 -2.35 -1.2 -2.55 -1.2 -2.75 -1.2 -2.9 -1.0 -3.05 -0.85 -3.25 -0.3 -3.25 -0.15 -3.25 0.2 L-3.35 0.45 Q-3.45 0.7 -3.5 0.75 -3.7 1.0 -3.8 1.0 -3.9 1.0 -4.1 1.25 -4.3 1.5 -4.4 1.55 L-4.4 1.6 -4.45 1.65 Q-4.25 2.45 -3.95 2.8 -3.8 2.95 -3.7 3.05 -3.6 3.2 -3.5 3.45 L-3.1 4.3 Q-2.75 5.1 -2.6 5.3 L-2.55 5.5 -2.55 5.55 -2.65 5.55 -2.9 5.4 Q-3.1 5.2 -3.15 5.15 L-3.2 5.25 -3.2 5.3 Q-3.2 6.0 -2.9 6.5 -2.7 6.8 -2.6 6.8 -2.55 6.8 -2.45 6.7 -2.35 6.6 -2.2 6.6 -2.05 6.6 -1.85 6.7 L-1.5 6.85 -1.2 7.05 Q-0.9 7.25 -0.85 7.25 -0.8 7.25 -0.55 6.75 -0.3 6.25 -0.15 6.25 L0.05 6.25 0.25 6.3 0.45 6.3 0.65 6.25 0.85 6.35 Q1.0 6.45 1.15 6.45 1.3 6.45 1.5 6.1 1.75 5.65 1.9 5.55 2.2 5.3 2.3 5.25 L2.7 5.25 Q2.8 5.25 3.0 5.1 3.2 4.95 3.2 4.8 L3.2 4.7 3.15 4.7 3.1 4.55 3.05 4.5 3.05 4.3 Q3.1 4.25 3.1 4.1 L3.25 3.95 Q3.15 3.75 3.2 3.45 3.25 3.15 3.35 3.05 3.4 3.1 3.45 3.2 M0.05 2.65 L-0.1 2.7 -0.2 2.6 -0.3 2.55 -0.5 2.55 Q-0.6 2.45 -0.6 2.4 -0.6 1.95 -0.65 1.85 -0.7 1.8 -0.8 1.8 L-0.9 1.75 Q-0.95 1.7 -1.0 1.7 -1.05 1.7 -1.0 1.45 -1.0 1.25 -0.9 1.25 L-0.85 1.25 -0.8 1.4 -0.75 1.4 Q-0.6 1.45 -0.5 1.7 L-0.3 2.1 Q0.05 2.25 0.15 2.25 0.35 2.1 0.4 2.05 L0.45 2.05 Q0.5 2.1 0.5 2.2 0.5 2.3 0.35 2.45 0.25 2.6 0.2 2.6 L0.05 2.65 M-2.95 4.8 L-2.95 4.8 M-6.75 5.2 Q-6.7 5.3 -6.7 5.55 -6.7 5.85 -6.95 5.75 L-6.95 5.65 Q-6.95 5.45 -6.9 5.3 -6.8 5.2 -6.75 5.2" fill="#c5edfe" fill-rule="evenodd" stroke="none"/>
  </g>
</svg>
