<?xml version="1.0" encoding="UTF-8" standalone="no"?>
<svg xmlns:ffdec="https://www.free-decompiler.com/flash" xmlns:xlink="http://www.w3.org/1999/xlink" ffdec:objectType="shape" height="19.35px" width="17.5px" xmlns="http://www.w3.org/2000/svg">
  <g transform="matrix(1.0, 0.0, 0.0, 1.0, 11.4, 5.25)">
    <path d="M-8.95 -0.35 Q-9.0 -0.25 -9.1 -0.25 -9.1 -0.35 -9.05 -0.5 -8.95 -0.6 -8.9 -0.65 -8.85 -0.6 -8.85 -0.5 L-8.95 -0.35 M-5.45 -5.05 L-5.5 -5.0 Q-5.55 -5.0 -5.55 -5.05 L-5.55 -5.15 Q-5.55 -5.2 -5.5 -5.2 L-5.4 -5.05 -5.45 -5.05 M-5.65 -5.1 Q-5.65 -5.0 -5.75 -4.9 -5.85 -4.75 -6.0 -4.7 -6.0 -4.65 -5.95 -4.65 -6.0 -4.45 -6.05 -4.4 L-6.1 -4.45 Q-6.2 -4.8 -6.0 -5.05 -5.85 -5.25 -5.65 -5.25 L-5.65 -5.1 M-6.25 -3.65 L-6.25 -3.7 -6.1 -3.7 Q-6.1 -3.65 -6.1 -3.45 L-6.1 -3.1 -6.2 -3.1 Q-6.3 -3.15 -6.25 -3.5 L-6.25 -3.65 M-6.3 -2.85 Q-6.35 -2.7 -6.4 -2.6 L-6.45 -2.65 -6.5 -2.65 -6.4 -2.85 -6.3 -2.85 M-7.05 -3.05 L-7.0 -3.0 -6.95 -3.0 -6.95 -2.9 -7.1 -2.7 Q-7.25 -2.55 -7.3 -2.55 L-7.25 -2.2 -7.25 -2.15 Q-7.3 -2.1 -7.35 -2.1 -7.4 -2.1 -7.45 -2.35 -7.5 -2.5 -7.5 -2.65 L-7.25 -2.9 Q-7.15 -3.05 -7.05 -3.05 M-7.35 -1.8 L-7.3 -1.75 Q-7.35 -1.7 -7.4 -1.6 -7.45 -1.45 -7.5 -1.15 L-7.55 -1.15 Q-7.8 -1.45 -7.65 -1.65 -7.55 -1.8 -7.4 -1.8 L-7.35 -1.8 M-7.4 -0.35 Q-7.4 -0.3 -7.4 -0.2 L-7.45 -0.05 Q-7.5 -0.05 -7.55 -0.1 -7.55 -0.3 -7.55 -0.4 -7.55 -0.55 -7.5 -0.6 L-7.4 -0.6 -7.4 -0.35 M-3.1 -4.1 L-3.05 -3.95 Q-3.1 -3.95 -3.15 -3.85 L-3.3 -3.7 -3.3 -4.0 -3.2 -4.1 -3.1 -4.1 M-2.9 -4.25 L-2.8 -4.15 -2.8 -4.05 -2.95 -4.0 Q-3.05 -4.05 -3.0 -4.2 -3.05 -4.3 -2.95 -4.3 L-2.9 -4.25 M-3.85 -3.8 L-3.8 -3.75 -3.85 -3.7 -3.7 -3.75 -3.65 -3.6 -3.9 -3.55 Q-4.0 -3.35 -4.05 -3.35 -4.05 -3.45 -4.0 -3.6 -4.0 -3.8 -3.9 -3.8 L-3.85 -3.8 M-4.35 -4.6 Q-4.5 -4.65 -4.5 -4.9 L-4.4 -4.8 -4.35 -4.65 -4.35 -4.6 M-5.05 -4.55 Q-5.0 -4.7 -4.9 -4.75 L-4.7 -4.75 Q-4.7 -4.6 -4.85 -4.45 -4.9 -4.35 -5.0 -4.35 -5.05 -4.35 -5.05 -4.55 M-4.75 -3.15 Q-4.7 -3.25 -4.65 -3.3 L-4.6 -3.4 Q-4.55 -3.35 -4.55 -3.4 L-4.55 -3.2 -4.6 -3.15 -4.65 -3.05 -4.75 -3.15 M-2.1 -3.95 L-2.1 -3.8 -2.25 -3.8 -2.25 -3.9 Q-2.25 -3.95 -2.15 -4.0 -2.15 -3.95 -2.1 -3.95 M-2.6 -2.95 L-2.7 -2.75 Q-2.75 -2.9 -2.65 -3.05 -2.6 -3.15 -2.5 -3.15 -2.45 -3.15 -2.45 -3.1 L-2.6 -2.95 M-4.2 7.45 L-4.2 7.6 Q-4.2 7.85 -4.2 7.9 -4.3 7.9 -4.35 7.75 L-4.35 7.5 -4.3 7.45 -4.2 7.45 M-2.8 8.4 L-2.75 8.35 Q-2.65 8.35 -2.65 8.5 L-2.6 8.6 -2.6 8.75 -2.65 8.8 Q-2.75 8.8 -2.75 8.75 -2.8 8.65 -2.8 8.4 M-3.4 10.5 L-3.3 10.5 -3.3 10.55 -3.25 10.65 -3.15 10.75 -3.2 10.85 Q-3.2 10.9 -3.25 10.9 L-3.35 10.75 -3.4 10.55 -3.4 10.5 M-2.25 8.6 L-2.2 8.6 -2.0 8.75 -2.0 8.85 -2.05 8.85 -2.15 8.75 Q-2.25 8.7 -2.25 8.6 M-1.9 9.85 L-1.9 9.95 Q-1.85 10.05 -1.85 10.15 L-1.85 10.2 Q-1.85 10.35 -1.8 10.35 -1.75 10.35 -1.7 10.3 L-1.6 10.25 -1.55 10.3 Q-1.55 10.4 -1.65 10.5 -1.75 10.55 -1.85 10.55 -1.9 10.55 -1.95 10.5 L-1.95 10.3 Q-1.95 10.2 -1.9 10.15 L-1.95 10.1 Q-1.95 10.0 -1.95 9.9 L-1.9 9.85 M-0.25 9.45 Q-0.3 9.45 -0.3 9.5 L-0.4 9.6 -0.4 9.35 Q-0.35 9.25 -0.2 9.2 -0.05 9.2 0.05 9.05 L0.1 9.1 0.1 9.25 Q0.0 9.55 -0.05 9.55 -0.15 9.45 -0.25 9.45 M-0.8 10.35 Q-0.8 10.25 -0.9 10.25 -0.75 10.05 -0.5 10.05 -0.45 10.05 -0.45 10.1 L-0.45 10.25 Q-0.65 10.4 -0.75 10.4 -0.8 10.4 -0.8 10.35 M0.0 10.25 L0.0 10.4 0.1 10.4 Q0.15 10.5 0.2 10.65 0.2 10.85 0.05 10.85 -0.1 10.85 -0.1 10.6 -0.1 10.35 0.0 10.25 M-6.35 0.9 L-6.4 0.9 Q-6.35 0.8 -6.3 0.65 -6.25 0.55 -6.2 0.55 L-6.15 0.55 -6.1 0.65 Q-6.3 0.8 -6.35 0.9 M-6.6 1.8 L-6.65 1.9 -6.7 1.95 -6.75 1.8 Q-6.75 1.7 -6.65 1.6 L-6.6 1.6 -6.6 1.8 M-6.7 4.65 Q-6.7 4.6 -6.6 4.55 L-6.45 4.5 Q-6.4 4.55 -6.4 4.65 -6.5 4.9 -6.5 5.05 L-6.55 5.1 -6.6 5.1 -6.65 4.95 -6.75 4.75 -6.7 4.65 M-7.15 5.3 Q-7.1 5.35 -7.1 5.4 -7.15 5.45 -7.2 5.55 -7.25 5.65 -7.3 5.8 L-7.35 5.75 -7.4 5.45 Q-7.35 5.35 -7.25 5.3 L-7.15 5.3 M-5.4 3.0 Q-5.45 3.15 -5.5 3.2 L-5.55 3.15 -5.5 3.0 -5.4 3.0 M-8.1 0.35 L-8.05 0.4 Q-8.1 0.55 -8.2 0.7 L-8.2 0.5 Q-8.15 0.45 -8.1 0.35 M-8.45 1.3 L-8.4 1.25 Q-8.35 1.45 -8.3 1.65 -8.3 1.7 -8.4 1.7 L-8.45 1.6 -8.5 1.45 -8.45 1.35 -8.45 1.3 M-8.1 1.75 L-8.1 1.7 -8.05 1.9 Q-8.1 1.95 -8.15 1.9 L-8.15 1.75 -8.1 1.75 M-9.4 0.95 Q-9.4 1.0 -9.45 1.05 -9.5 1.0 -9.5 0.9 -9.5 0.8 -9.45 0.75 L-9.4 0.85 -9.4 0.95 M-10.35 0.85 L-10.3 0.75 Q-10.25 0.7 -10.2 0.7 L-10.15 0.75 -10.1 0.85 -10.2 1.05 Q-10.3 1.15 -10.35 1.15 -10.35 1.1 -10.35 0.85 M-10.3 2.2 L-10.4 2.35 Q-10.45 2.15 -10.35 2.0 L-10.25 2.05 Q-10.25 2.1 -10.3 2.2 M-8.2 7.7 Q-8.15 7.45 -8.1 7.35 -8.05 7.25 -7.9 7.2 -7.95 7.35 -8.0 7.65 L-7.95 7.8 Q-7.9 8.0 -7.9 8.05 L-7.9 8.15 -8.0 8.15 Q-8.05 8.15 -8.15 8.0 -8.2 7.85 -8.2 7.7 M-6.25 7.9 Q-6.2 8.05 -6.15 8.25 -6.15 8.4 -6.15 8.5 L-6.2 8.55 -6.25 8.5 Q-6.3 8.15 -6.3 8.1 L-6.25 7.9 M-6.95 9.95 L-6.85 9.8 -6.8 9.8 Q-6.75 9.8 -6.75 9.95 L-6.75 10.4 Q-6.8 10.5 -6.85 10.5 L-6.9 10.45 -6.95 10.25 Q-7.0 10.2 -7.0 10.1 L-6.95 9.95 M-6.3 9.8 L-6.3 9.85 Q-6.3 9.9 -6.3 9.95 L-6.2 9.9 -6.15 9.95 -6.1 10.15 -6.15 10.2 Q-6.2 10.25 -6.25 10.25 L-6.3 10.1 Q-6.35 10.0 -6.35 9.9 L-6.35 9.8 -6.3 9.8 M-5.55 11.15 Q-5.55 11.25 -5.5 11.3 -5.45 11.3 -5.45 11.4 -5.45 11.6 -5.55 11.65 L-5.65 11.7 Q-5.75 11.7 -5.7 11.4 -5.7 11.15 -5.6 10.95 L-5.55 10.95 Q-5.5 11.05 -5.55 11.1 L-5.55 11.15 M-1.3 13.05 L-1.25 13.0 -1.2 13.0 Q-1.15 13.0 -1.1 13.3 -1.0 13.4 -0.9 13.4 L-0.75 13.3 -0.7 13.4 -0.8 13.6 -0.6 13.55 Q-0.65 13.7 -0.7 13.75 L-0.8 13.8 -0.85 13.7 Q-0.9 13.65 -0.95 13.65 L-1.05 13.7 Q-1.15 13.7 -1.2 13.4 -1.25 13.2 -1.3 13.05 M-0.25 12.4 L-0.25 12.45 -0.35 12.55 Q-0.35 12.6 -0.4 12.6 -0.45 12.6 -0.45 12.4 -0.5 12.35 -0.4 12.35 L-0.35 12.35 -0.25 12.4 M-1.85 12.15 L-1.85 12.4 -1.9 12.45 -2.0 12.45 Q-2.05 12.45 -2.05 12.2 -2.05 12.0 -2.0 11.9 L-1.95 12.0 -1.85 12.15 M-2.45 11.25 L-2.45 11.3 Q-2.4 11.3 -2.35 11.4 L-2.4 11.45 Q-2.4 11.5 -2.5 11.5 -2.55 11.5 -2.6 11.4 -2.6 11.25 -2.55 11.1 L-2.5 11.05 -2.45 11.1 Q-2.45 11.15 -2.45 11.25 M-2.0 13.25 L-2.0 13.45 Q-2.0 13.55 -1.95 13.6 -1.9 13.65 -1.9 13.7 L-1.85 13.6 -1.8 13.45 -1.75 13.5 -1.7 13.5 -1.7 13.6 Q-1.7 13.7 -1.85 13.9 -1.95 14.05 -2.05 14.1 L-2.1 13.6 Q-2.1 13.5 -2.05 13.25 L-2.0 13.25 M-5.2 11.7 L-5.15 11.5 Q-4.9 11.85 -4.6 12.05 -4.55 12.25 -4.65 12.3 L-4.8 12.35 -4.85 12.25 Q-4.9 12.15 -5.0 12.1 L-5.2 12.0 -5.2 11.7 M-10.95 1.4 Q-10.95 1.35 -10.85 1.35 L-10.85 1.4 -10.95 1.4 M-11.1 1.55 Q-11.15 1.9 -11.2 2.05 L-11.3 2.05 Q-11.4 1.8 -11.4 1.75 -11.4 1.65 -11.2 1.55 L-11.1 1.55 M-10.8 4.5 L-10.8 4.6 Q-10.8 4.65 -10.85 4.8 L-10.9 4.8 Q-10.9 4.7 -10.85 4.5 L-10.8 4.5 M-10.85 5.35 L-10.75 5.35 -10.75 5.4 -10.7 5.5 -10.7 5.6 Q-10.7 5.65 -10.75 5.65 L-10.85 5.6 Q-10.9 5.55 -10.9 5.5 -10.95 5.2 -10.9 5.2 -10.85 5.2 -10.85 5.35 M5.95 7.25 L5.95 7.1 6.0 6.9 6.05 6.9 Q6.1 6.95 6.1 7.0 L6.05 7.35 6.0 7.4 5.95 7.3 5.95 7.25 M5.6 8.1 Q5.55 8.3 5.4 8.3 5.35 8.3 5.35 8.25 L5.35 8.15 Q5.45 8.05 5.55 8.0 L5.6 8.1 M4.2 3.25 L4.2 3.15 Q4.25 3.15 4.25 3.3 L4.2 3.25 M0.2 10.65 Q0.2 10.55 0.35 10.4 L0.4 10.45 0.4 10.5 0.35 10.6 0.2 10.65 M1.0 10.4 L1.05 10.35 Q1.1 10.25 1.15 10.25 L1.15 10.3 Q1.2 10.3 1.2 10.35 1.2 10.55 1.05 10.6 0.95 10.65 0.85 10.55 0.9 10.35 0.95 10.35 L1.0 10.4 M1.55 9.65 L1.55 9.7 1.45 10.0 1.45 9.95 Q1.5 9.7 1.55 9.65 M5.15 6.4 L5.2 6.45 5.2 6.6 5.15 6.75 Q5.1 6.8 5.05 6.75 L5.1 6.5 5.1 6.45 5.15 6.4 M4.2 5.65 Q4.2 5.7 4.15 5.8 4.1 5.9 4.05 5.9 3.95 5.75 4.15 5.5 L4.2 5.5 Q4.2 5.55 4.2 5.65 M4.8 7.25 L4.9 7.2 4.95 7.25 4.85 7.4 4.75 7.35 4.8 7.25 M3.2 6.95 L3.2 7.15 Q3.15 7.25 3.05 7.25 3.05 7.15 3.05 7.1 3.05 7.0 3.1 6.9 L3.15 6.9 3.2 6.95 M3.45 8.7 L3.5 8.75 Q3.15 9.05 3.1 9.05 3.05 9.05 3.0 9.0 2.95 8.9 2.95 8.75 L2.95 8.85 Q2.95 8.9 3.0 8.9 L3.1 8.9 3.1 8.85 Q3.1 8.8 3.1 8.75 L3.25 8.75 Q3.4 8.65 3.45 8.65 L3.45 8.7 M3.95 9.55 L3.95 9.9 4.0 9.9 4.15 9.95 4.25 9.85 4.4 9.75 4.45 9.75 Q4.35 10.15 4.25 10.25 4.2 10.35 4.05 10.35 4.0 10.35 3.95 10.25 3.85 10.1 3.85 10.05 3.8 9.95 3.85 9.5 L3.95 9.55 M3.25 9.65 L3.25 9.75 Q3.25 10.05 3.15 10.35 3.05 10.7 2.95 10.7 L2.85 10.65 2.8 10.65 Q2.75 10.4 2.8 10.35 2.8 10.3 2.9 10.25 3.0 10.15 3.05 9.95 3.1 9.7 3.15 9.65 L3.2 9.6 3.25 9.65 M2.55 11.4 Q2.6 11.4 2.65 11.45 L2.65 11.65 2.45 11.9 Q2.35 12.0 2.2 12.0 L2.05 11.95 Q1.95 11.9 1.9 11.75 1.85 11.6 1.85 11.5 L1.9 11.35 Q1.95 11.4 2.0 11.5 L2.0 11.65 Q2.1 11.55 2.15 11.6 L2.25 11.65 Q2.3 11.65 2.4 11.55 L2.55 11.4 M1.5 11.5 Q1.5 11.75 1.4 11.8 L1.3 11.85 Q1.25 11.85 1.25 11.7 L1.25 11.4 1.5 11.4 1.5 11.5 M0.8 11.55 L0.85 11.55 0.85 11.65 0.8 11.65 0.75 11.6 0.8 11.55 M0.5 12.35 L0.6 12.35 Q0.65 12.4 0.65 12.45 0.65 12.7 0.35 12.9 L0.2 12.85 Q0.15 12.8 0.1 12.7 0.1 12.65 0.15 12.65 L0.2 12.65 Q0.3 12.65 0.4 12.55 0.5 12.5 0.5 12.35" fill="#c5edfe" fill-rule="evenodd" stroke="none"/>
  </g>
</svg>
