<?xml version="1.0" encoding="UTF-8" standalone="no"?>
<svg xmlns:ffdec="https://www.free-decompiler.com/flash" xmlns:xlink="http://www.w3.org/1999/xlink" ffdec:objectType="shape" height="5.55px" width="39.2px" xmlns="http://www.w3.org/2000/svg">
  <g transform="matrix(1.0, 0.0, 0.0, 1.0, 21.05, 11.35)">
    <path d="M6.2 -10.65 L6.85 -10.65 8.45 -10.55 8.55 -10.45 8.6 -10.35 8.6 -10.3 8.55 -10.2 Q8.5 -10.15 8.4 -10.1 5.8 -10.0 3.65 -9.4 L2.25 -9.0 Q1.5 -8.85 0.95 -8.8 0.9 -8.8 0.85 -8.85 0.8 -8.85 0.75 -8.9 0.7 -9.0 0.75 -9.05 0.75 -9.1 0.8 -9.15 1.1 -9.5 2.4 -9.9 3.95 -10.4 5.95 -10.6 L6.2 -10.65 M2.15 -6.5 L6.25 -6.55 Q11.3 -6.75 14.7 -8.15 16.05 -8.75 16.85 -9.35 17.45 -9.9 17.5 -10.3 L17.25 -10.55 Q17.0 -10.85 16.75 -10.95 16.7 -11.0 16.65 -11.05 16.65 -11.15 16.65 -11.2 L16.75 -11.3 16.9 -11.35 Q17.3 -11.35 17.7 -11.0 18.2 -10.65 18.15 -10.25 18.15 -9.6 17.3 -8.85 16.5 -8.1 15.0 -7.45 11.45 -5.9 6.15 -5.8 L2.15 -5.8 1.1 -5.85 Q0.1 -5.95 0.15 -6.25 0.15 -6.3 0.2 -6.35 0.25 -6.45 0.35 -6.45 L2.15 -6.5 M-16.9 -10.75 L-16.8 -10.8 Q-16.1 -10.75 -16.1 -10.55 -16.05 -10.5 -16.1 -10.4 L-16.1 -10.3 -16.15 -10.15 Q-16.2 -10.1 -16.3 -10.1 L-16.95 -10.1 -17.4 -10.05 -18.65 -9.9 -19.25 -9.8 Q-19.3 -9.75 -19.4 -9.75 -19.75 -9.7 -20.1 -9.55 -19.8 -9.35 -19.5 -9.25 L-19.5 -9.2 Q-18.95 -8.95 -17.95 -8.75 L-17.25 -8.7 -15.45 -8.6 -13.4 -8.5 -13.1 -8.55 -12.6 -8.5 -11.8 -8.5 -11.65 -8.45 Q-11.6 -8.4 -11.6 -8.35 L-11.55 -8.2 Q-11.5 -8.1 -11.55 -8.05 -11.6 -7.95 -11.65 -7.95 L-12.7 -7.8 -13.85 -7.7 -14.95 -7.7 -15.85 -7.8 -17.15 -7.95 Q-19.0 -8.15 -19.75 -8.5 L-20.55 -8.6 Q-20.65 -8.65 -20.7 -8.7 L-20.9 -8.9 Q-21.0 -9.1 -21.05 -9.35 L-21.05 -9.45 Q-21.1 -9.5 -21.05 -9.6 L-21.0 -9.6 Q-20.95 -9.9 -20.7 -10.05 -20.55 -10.2 -20.25 -10.3 -19.95 -10.45 -19.6 -10.5 L-19.4 -10.5 -18.9 -10.6 -18.5 -10.6 -18.2 -10.7 -16.95 -10.7 -16.9 -10.75 M-4.95 -7.2 L-5.0 -7.05 Q-5.05 -6.8 -6.5 -6.3 L-6.55 -6.3 Q-7.85 -5.8 -8.05 -5.8 -8.45 -5.8 -8.5 -5.95 -8.6 -6.1 -8.55 -6.2 L-8.55 -6.45 -8.5 -6.55 -8.4 -6.65 -8.25 -6.65 Q-7.9 -6.55 -6.7 -6.95 L-5.2 -7.35 -5.15 -7.35 Q-5.1 -7.35 -5.05 -7.3 L-4.95 -7.2" fill="#9bebeb" fill-opacity="0.49803922" fill-rule="evenodd" stroke="none"/>
    <path d="M8.4 -10.4 L8.45 -10.4 8.45 -10.3 8.4 -10.25 Q5.75 -10.15 3.6 -9.55 L2.2 -9.15 Q1.5 -8.95 0.95 -8.95 L0.9 -8.95 0.9 -9.0 0.85 -9.05 0.9 -9.05 Q1.2 -9.4 2.45 -9.75 3.95 -10.25 5.95 -10.5 L5.95 -10.45 6.2 -10.5 6.85 -10.5 8.4 -10.4 M1.1 -6.0 Q0.25 -6.1 0.3 -6.2 L0.3 -6.25 0.35 -6.3 2.15 -6.35 6.25 -6.45 Q11.3 -6.6 14.75 -8.05 16.15 -8.6 16.95 -9.25 17.65 -9.85 17.65 -10.3 L17.35 -10.65 Q17.05 -10.95 16.85 -11.1 L16.8 -11.1 16.8 -11.15 16.85 -11.2 16.9 -11.2 Q17.25 -11.2 17.6 -10.9 18.0 -10.55 18.0 -10.25 18.0 -9.65 17.25 -8.95 16.4 -8.2 14.95 -7.6 11.4 -6.05 6.15 -5.95 L2.2 -5.95 1.1 -6.0 M-16.8 -10.65 Q-16.25 -10.6 -16.2 -10.5 L-16.2 -10.45 -16.25 -10.4 -16.2 -10.35 -16.2 -10.3 -16.25 -10.3 -16.3 -10.25 -16.95 -10.25 -17.4 -10.2 -18.65 -10.05 -19.35 -9.9 -19.4 -9.9 Q-19.9 -9.85 -20.35 -9.6 -20.0 -9.3 -19.55 -9.1 -19.0 -8.8 -17.95 -8.6 L-17.3 -8.55 -15.45 -8.45 -13.4 -8.35 -13.1 -8.4 -12.6 -8.35 -11.75 -8.35 -11.7 -8.3 -11.7 -8.05 -12.7 -7.95 -13.85 -7.8 -14.95 -7.85 -15.85 -7.95 Q-16.9 -8.0 -17.1 -8.05 -18.95 -8.3 -19.7 -8.6 L-20.55 -8.75 -20.8 -9.0 Q-20.9 -9.15 -20.9 -9.4 L-20.95 -9.45 -20.9 -9.5 -20.9 -9.55 Q-20.85 -9.8 -20.6 -9.95 -20.45 -10.1 -20.15 -10.2 -19.9 -10.3 -19.6 -10.35 L-19.4 -10.35 -18.85 -10.45 -18.9 -10.4 -18.5 -10.45 -18.15 -10.55 -18.1 -10.55 -16.85 -10.6 -16.85 -10.65 -16.8 -10.65 M-5.15 -7.2 L-5.1 -7.15 -5.1 -7.1 Q-5.2 -6.9 -6.55 -6.4 -7.85 -5.95 -8.05 -5.95 -8.35 -5.95 -8.4 -6.05 -8.45 -6.1 -8.4 -6.15 L-8.4 -6.45 -8.35 -6.5 -8.3 -6.5 Q-7.9 -6.4 -6.65 -6.8 L-5.2 -7.25 -5.15 -7.2" fill="#ffffff" fill-opacity="0.8" fill-rule="evenodd" stroke="none"/>
  </g>
</svg>
