<?xml version="1.0" encoding="UTF-8" standalone="no"?>
<svg xmlns:ffdec="https://www.free-decompiler.com/flash" xmlns:xlink="http://www.w3.org/1999/xlink" ffdec:objectType="shape" height="8.35px" width="32.85px" xmlns="http://www.w3.org/2000/svg">
  <g transform="matrix(1.0, 0.0, 0.0, 1.0, 16.6, 6.4)">
    <path d="M4.4 -2.7 L4.75 -2.2 4.8 -2.2 4.9 -2.0 4.85 -2.0 5.0 -1.8 Q5.35 -1.15 5.35 -1.05 5.35 -0.9 5.05 -0.6 4.7 -0.35 4.7 -0.2 4.7 -0.05 4.8 0.2 L4.9 0.6 5.3 0.5 5.8 0.4 6.4 0.4 6.4 0.7 Q9.0 0.45 10.4 -0.15 L11.5 -0.75 Q11.75 -0.8 11.9 -1.05 L12.9 -2.05 12.9 -2.1 13.1 -2.35 13.25 -2.55 13.25 -2.6 12.85 -2.55 12.7 -2.45 12.7 -3.5 12.55 -3.8 12.0 -3.75 11.75 -3.7 Q11.25 -3.7 11.1 -3.8 L10.8 -4.0 10.8 -4.1 11.0 -4.4 10.9 -4.4 10.6 -4.3 10.4 -4.1 10.35 -4.15 10.35 -4.1 10.25 -4.15 10.35 -4.25 10.4 -4.4 9.9 -4.15 9.85 -4.1 9.85 -4.15 10.0 -4.5 10.6 -5.05 Q11.6 -5.85 12.25 -5.85 L13.2 -5.8 Q13.85 -5.2 14.2 -5.25 14.35 -5.25 14.65 -5.35 L14.95 -5.35 15.0 -5.45 Q14.95 -5.95 14.45 -6.4 L14.5 -6.4 Q14.8 -6.3 14.95 -6.1 15.8 -5.25 15.9 -4.95 L15.9 -4.9 16.0 -4.8 Q16.25 -4.4 16.25 -4.1 16.25 -3.6 16.0 -3.35 L15.5 -2.95 Q14.75 -2.5 14.75 -1.4 14.75 -0.9 14.4 -0.5 14.1 -0.2 13.3 0.3 L13.0 0.3 Q12.9 -0.1 13.1 -0.3 L11.75 0.65 11.65 0.7 11.6 0.75 11.6 0.8 11.4 0.8 Q10.3 1.3 8.55 1.55 L6.4 1.75 6.45 1.7 5.25 1.85 4.9 1.75 Q4.75 1.65 4.6 1.65 4.05 1.65 3.7 1.8 L3.4 1.95 2.7 1.85 2.7 1.8 2.3 1.7 2.0 1.65 Q1.8 1.65 1.8 1.55 1.8 1.45 1.85 1.4 L1.55 1.25 1.55 1.3 Q1.3 1.25 1.1 1.05 L1.0 0.95 Q0.6 0.75 0.15 0.85 0.15 0.75 0.15 0.4 L0.25 0.35 0.05 0.35 Q-0.55 0.35 -2.25 0.8 L-2.95 1.0 -3.45 1.25 Q-4.0 1.45 -4.45 1.55 L-4.6 1.55 -4.6 1.45 -3.6 0.7 Q-4.15 0.75 -5.95 1.35 -7.4 1.85 -8.25 1.65 L-8.9 1.65 -9.6 1.6 -9.8 1.55 -10.35 1.5 -10.3 1.45 -10.0 1.45 -10.8 1.25 Q-12.0 0.9 -12.55 0.5 L-12.85 0.55 Q-13.65 0.55 -14.85 -0.8 L-14.8 -0.85 -14.8 -0.9 -15.15 -1.3 Q-15.6 -1.85 -15.75 -2.35 L-16.0 -2.9 -15.95 -3.15 -15.9 -3.15 -15.9 -3.25 -15.8 -3.25 -15.7 -3.05 -15.55 -3.05 -15.55 -2.9 -15.15 -2.55 -15.1 -2.5 -15.1 -2.8 Q-15.1 -3.0 -15.5 -3.3 L-16.0 -3.65 -16.4 -4.0 -16.45 -4.05 -16.35 -4.0 -16.6 -4.3 -16.4 -4.75 Q-16.25 -5.1 -16.25 -5.3 -16.25 -5.4 -16.05 -5.5 L-15.85 -5.65 Q-15.55 -5.55 -15.55 -5.5 L-15.6 -5.45 Q-15.1 -5.7 -14.65 -5.8 L-14.5 -5.7 -14.6 -5.65 -14.75 -5.5 -14.5 -5.45 -14.85 -5.1 Q-15.1 -4.9 -15.1 -4.75 -15.1 -4.35 -14.75 -4.25 -14.15 -4.15 -13.9 -4.0 L-14.2 -3.95 -14.05 -3.8 -14.05 -3.9 Q-14.0 -3.95 -13.85 -3.95 L-13.65 -3.75 -13.7 -3.65 -13.85 -3.65 -13.75 -3.6 -13.2 -3.4 -13.25 -3.45 -13.45 -3.75 -13.4 -3.75 -13.05 -3.4 -12.2 -3.25 Q-12.2 -3.2 -12.05 -3.15 L-11.85 -3.1 -12.35 -3.1 -11.8 -3.05 -11.5 -3.05 -11.5 -3.15 -11.4 -3.1 Q-11.3 -3.1 -11.2 -3.2 L-10.7 -3.15 -10.65 -3.0 -10.55 -3.0 -10.45 -2.8 -10.5 -2.8 -10.15 -2.35 Q-9.95 -2.15 -9.9 -2.0 L-9.8 -2.0 -9.65 -1.75 -9.7 -1.75 Q-9.75 -1.75 -9.75 -1.8 L-9.8 -1.75 -9.65 -1.65 -9.6 -1.5 Q-9.55 -1.4 -9.4 -1.4 L-9.3 -1.3 Q-9.05 -1.0 -9.05 -0.75 -9.05 -0.45 -9.5 -0.15 -9.8 0.05 -10.15 0.2 L-9.95 0.45 -9.15 0.55 Q-7.1 0.55 -5.45 0.0 -5.6 0.0 -5.6 -0.05 L-5.0 -0.15 Q-4.65 -0.3 -4.35 -0.45 -3.95 -0.9 -2.6 -1.6 L-2.45 -1.7 -2.5 -1.7 -1.9 -2.15 -1.7 -2.35 -1.6 -2.35 -1.0 -2.8 -1.35 -2.4 Q-0.7 -2.65 -0.3 -2.35 L0.3 -2.45 Q1.3 -3.1 1.75 -3.1 L2.5 -2.9 3.95 -2.7 4.4 -2.7 M11.2 -3.65 L11.05 -3.65 11.1 -3.7 11.2 -3.65 M-15.2 -5.75 L-15.55 -5.65 -15.5 -5.85 -15.2 -5.75 M-14.8 -0.9 L-14.75 -1.0 -14.85 -1.25 -15.15 -1.55 -15.45 -1.95 Q-15.3 -1.35 -14.8 -0.9" fill="#ffffff" fill-rule="evenodd" stroke="none"/>
  </g>
</svg>
