<?xml version="1.0" encoding="UTF-8" standalone="no"?>
<svg xmlns:ffdec="https://www.free-decompiler.com/flash" xmlns:xlink="http://www.w3.org/1999/xlink" ffdec:objectType="shape" height="6.4px" width="35.5px" xmlns="http://www.w3.org/2000/svg">
  <g transform="matrix(1.0, 0.0, 0.0, 1.0, 15.7, 5.0)">
    <path d="M0.3 -0.9 L0.2 -0.9 Q0.1 -0.9 0.1 -1.0 0.1 -1.1 0.45 -1.35 L0.8 -1.55 Q1.0 -1.85 1.7 -2.1 2.35 -2.35 3.1 -2.55 L3.2 -2.5 3.2 -2.45 Q3.2 -2.3 2.85 -2.05 L2.35 -1.75 2.45 -1.8 3.55 -2.2 4.6 -2.6 4.35 -2.65 4.05 -2.7 Q4.4 -2.95 4.85 -2.9 L5.2 -2.8 5.3 -2.8 Q5.6 -2.8 5.9 -2.6 6.0 -2.7 6.2 -2.8 L6.25 -2.75 6.25 -2.8 6.15 -2.9 6.25 -2.95 6.35 -2.8 6.55 -2.85 6.8 -2.75 6.8 -2.7 7.55 -2.7 7.6 -2.75 7.55 -2.75 7.85 -2.9 7.95 -3.0 8.2 -3.0 8.15 -2.95 Q8.35 -2.95 8.65 -3.05 L8.75 -3.15 9.0 -3.25 9.7 -3.2 9.9 -2.9 10.35 -2.9 10.55 -3.0 10.55 -2.9 11.0 -3.25 11.9 -3.75 12.05 -3.75 11.95 -3.8 12.35 -3.75 12.45 -3.7 13.05 -3.65 13.2 -3.65 13.35 -3.75 13.7 -3.75 13.5 -3.6 13.55 -3.55 Q13.6 -3.6 13.7 -3.65 L14.0 -3.65 14.25 -3.5 14.05 -3.5 14.25 -3.25 14.4 -3.1 14.45 -2.5 14.55 -2.5 14.5 -2.4 14.45 -2.45 14.45 -2.35 14.5 -2.35 14.5 -2.25 14.45 -2.3 14.45 -2.2 Q14.45 -1.9 14.0 -1.65 L13.7 -1.5 14.2 -1.6 14.2 -1.55 14.55 -1.55 Q15.75 -2.05 16.95 -2.65 19.4 -3.9 19.5 -4.45 L19.5 -4.7 Q19.05 -4.6 18.85 -4.7 L19.05 -4.85 19.7 -4.9 19.75 -4.8 19.75 -4.5 Q19.8 -4.6 19.8 -4.3 19.8 -3.1 18.35 -2.3 L16.85 -1.5 Q15.8 -0.95 15.0 -0.3 L14.85 -0.3 16.25 -1.5 16.3 -1.6 14.2 -0.5 Q13.35 -0.05 12.1 0.2 L12.05 0.25 12.0 0.25 12.05 0.2 11.7 0.25 12.1 0.15 11.05 0.3 10.95 0.35 10.35 0.55 9.5 0.8 9.3 0.85 9.25 0.8 10.3 0.2 Q11.0 -0.15 11.15 -0.4 L11.15 -0.45 10.95 -0.5 10.65 -0.45 10.65 -0.5 10.2 -0.4 9.4 -0.4 9.3 -0.45 9.25 -0.5 Q9.5 -0.8 9.5 -0.9 9.5 -1.0 9.4 -1.1 L9.2 -1.25 Q8.8 -1.25 8.6 -1.15 L8.3 -0.85 Q7.9 -0.6 6.5 -0.85 L6.4 -0.8 6.05 -0.9 Q5.75 -0.95 5.35 -0.75 L4.85 -0.5 Q4.8 -0.4 4.8 -0.55 4.8 -0.7 4.9 -0.95 L4.85 -1.1 4.7 -1.25 Q4.5 -1.25 3.95 -0.95 3.45 -0.65 3.05 -0.65 L2.4 -0.7 Q2.45 -0.75 2.3 -0.75 1.8 -0.75 0.7 -0.2 0.15 0.05 -0.4 0.4 L-0.45 0.35 -0.45 0.3 Q-0.45 0.2 0.45 -0.55 L1.65 -1.4 Q1.65 -1.45 1.7 -1.5 L0.9 -1.25 Q0.45 -1.05 0.3 -0.9 M12.8 -3.9 L12.85 -3.9 Q12.95 -3.8 13.05 -3.8 L13.1 -3.8 13.15 -3.75 13.05 -3.75 12.8 -3.9 M18.55 -4.8 Q18.75 -4.95 19.05 -5.0 L18.4 -4.55 18.0 -4.55 Q18.35 -4.6 18.55 -4.8 M14.3 -3.45 L14.3 -3.45 M14.5 -2.9 L14.5 -2.85 14.4 -3.1 14.5 -2.9 M-15.7 -3.7 L-15.55 -3.7 Q-15.05 -3.05 -14.5 -2.7 -13.75 -2.2 -12.5 -1.9 L-12.4 -1.8 Q-12.4 -1.75 -12.7 -1.7 L-13.2 -1.6 -13.3 -1.6 -12.55 -1.35 -13.05 -1.25 Q-13.55 -1.25 -14.05 -1.55 L-14.5 -1.9 -14.95 -2.0 Q-15.15 -2.1 -15.35 -2.45 L-15.7 -3.0 -15.7 -3.7 M-12.3 -2.15 L-12.25 -2.25 -10.85 -2.1 -9.8 -2.1 -9.0 -2.0 -8.75 -2.15 -9.15 -2.25 -9.15 -2.3 -8.25 -2.35 -6.1 -2.15 -4.25 -2.45 -2.9 -2.75 Q-2.7 -2.85 -2.0 -2.9 L-1.1 -2.9 Q-0.9 -2.5 -0.55 -2.15 -0.3 -1.95 -0.3 -1.6 -0.3 -1.4 -0.5 -1.05 L-0.95 -0.3 Q-1.05 -0.35 -1.05 -0.45 -1.15 -0.6 -1.5 -0.6 -1.85 -0.6 -2.4 -0.2 L-2.9 0.15 -2.7 0.15 -3.0 0.4 -2.9 0.4 Q-2.5 0.15 -1.75 0.0 -1.6 0.0 -1.55 0.05 L-1.75 0.25 Q-1.8 0.35 -2.0 0.5 L-2.85 0.8 -3.25 0.9 -3.35 0.95 -3.7 1.05 -5.35 1.3 -5.4 1.35 -5.55 1.35 -6.7 1.4 -6.6 1.3 -5.5 1.15 -5.35 1.05 Q-5.1 0.9 -5.05 0.8 L-5.05 0.7 -5.6 0.5 -5.95 0.45 -6.3 0.35 -7.25 0.2 -7.35 0.3 -8.05 0.3 -8.2 0.25 -9.6 0.4 -9.95 0.35 -8.8 0.75 Q-8.95 0.85 -9.2 0.85 -10.3 0.85 -11.35 0.3 -11.95 0.0 -12.3 -0.35 L-12.25 -0.4 Q-12.15 -0.3 -11.65 -0.15 L-11.8 -0.25 -11.05 -0.1 -10.95 -0.1 -10.5 0.0 -10.25 0.0 -10.8 -0.15 Q-11.1 -0.25 -11.2 -0.3 L-10.75 -0.3 -11.2 -0.45 Q-12.15 -0.75 -12.25 -1.0 L-11.2 -0.8 -9.2 -0.4 -9.2 -0.35 -9.0 -0.5 -8.8 -0.6 -8.75 -0.6 -8.75 -0.65 Q-8.75 -0.75 -8.8 -0.85 L-8.8 -0.9 Q-9.65 -1.0 -10.5 -1.35 -10.4 -1.5 -9.55 -1.35 -10.25 -1.55 -11.55 -1.75 L-11.65 -1.9 -11.75 -1.9 -12.3 -2.15" fill="#ffffff" fill-rule="evenodd" stroke="none"/>
  </g>
</svg>
