<?xml version="1.0" encoding="UTF-8" standalone="no"?>
<svg xmlns:ffdec="https://www.free-decompiler.com/flash" xmlns:xlink="http://www.w3.org/1999/xlink" ffdec:objectType="shape" height="417.5px" width="2268.75px" xmlns="http://www.w3.org/2000/svg">
  <g transform="matrix(1.0, 0.0, 0.0, 1.0, -593.75, 416.25)">
    <path d="M2707.5 -125.0 Q2707.5 -131.25 2708.1 -132.5 L2719.45 -134.7 Q2727.35 -136.4 2731.25 -138.75 L2825.0 -140.0 Q2846.3 -145.05 2855.6 -140.75 2862.5 -137.5 2862.5 -129.05 2862.5 -126.45 2861.5 -125.35 2860.25 -124.0 2855.75 -122.25 L2849.9 -120.25 2850.0 -117.8 Q2850.0 -114.55 2846.45 -113.85 L2844.55 -113.65 2845.0 -110.3 Q2845.0 -104.15 2842.45 -102.6 2840.2 -101.25 2831.25 -101.25 2811.95 -101.25 2804.6 -104.0 2798.6 -102.05 2795.3 -101.3 2790.4 -100.25 2786.75 -101.1 L2784.85 -101.65 2783.75 -101.25 2756.25 -101.25 2756.1 -101.3 2754.85 -98.95 Q2753.1 -96.25 2748.75 -96.25 2727.45 -96.25 2715.6 -109.35 2711.55 -113.75 2709.25 -119.05 2707.5 -123.0 2707.5 -125.0 M1961.7 -34.7 Q1957.15 -32.35 1902.15 -30.0 1892.55 -21.0 1869.9 -17.7 L1855.05 -16.35 1848.4 -16.25 Q1845.15 -16.25 1832.45 -18.5 1818.8 -20.95 1814.65 -21.25 1821.05 -19.1 1824.45 -15.3 1827.15 -12.25 1827.15 -9.35 1827.15 -5.65 1826.75 -4.75 L1825.9 -2.5 Q1821.75 -1.45 1812.6 -0.15 L1798.4 1.25 Q1781.2 1.25 1755.1 -19.55 1737.1 -33.85 1724.65 -48.75 L1724.65 -61.85 Q1724.85 -61.85 1726.65 -62.8 1728.45 -63.75 1732.15 -63.75 1736.45 -63.75 1740.5 -62.5 1744.6 -61.25 1759.65 -61.25 1761.9 -61.25 1775.55 -54.15 1789.0 -47.15 1792.15 -47.5 L1792.8 -55.0 1793.25 -55.6 1798.4 -56.25 Q1808.4 -56.25 1814.15 -54.0 1818.0 -52.5 1821.3 -49.15 1825.05 -45.3 1826.7 -44.35 1830.45 -42.3 1837.15 -42.5 1836.45 -48.4 1838.2 -51.05 1840.0 -53.75 1844.65 -53.75 1847.8 -53.75 1852.15 -50.9 1856.55 -48.1 1859.65 -48.1 1863.1 -48.1 1863.5 -48.9 1864.1 -50.1 1865.9 -50.6 L1869.05 -52.2 Q1872.15 -53.75 1872.15 -55.6 1842.75 -58.0 1831.1 -64.0 1821.65 -68.9 1821.75 -77.65 1821.8 -82.9 1825.1 -94.65 1827.15 -105.65 1822.15 -113.1 L1822.15 -141.25 Q1824.15 -142.25 1828.2 -142.1 1832.45 -141.95 1834.65 -140.6 1842.85 -153.55 1848.4 -160.55 1857.65 -172.15 1865.9 -176.25 L1870.2 -174.65 Q1872.15 -173.35 1872.15 -169.35 1872.15 -165.4 1868.25 -159.75 1866.05 -156.6 1859.65 -149.15 1853.55 -142.1 1851.05 -138.3 1847.15 -132.3 1847.15 -127.8 1847.15 -123.1 1850.9 -115.6 1854.65 -108.1 1854.65 -103.4 1854.65 -100.05 1850.9 -91.3 1847.15 -82.6 1847.15 -75.0 1866.65 -72.0 1882.25 -66.3 L1882.15 -67.5 Q1883.75 -69.05 1889.1 -69.8 L1913.4 -71.25 Q1915.85 -69.8 1917.45 -68.0 1920.65 -68.85 1925.9 -63.2 1931.6 -57.05 1937.25 -46.5 L1955.9 -46.25 Q1959.85 -44.7 1962.15 -41.25 1959.85 -39.55 1961.5 -37.4 1963.0 -35.35 1961.7 -34.7" fill="#796b59" fill-rule="evenodd" stroke="none"/>
    <path d="M1394.35 -103.75 Q1392.1 -99.35 1391.05 -98.1 1389.45 -96.25 1385.6 -96.25 1378.65 -96.25 1375.15 -101.25 1372.5 -106.85 1371.25 -108.1 L1325.6 -108.75 Q1322.85 -109.65 1321.05 -112.2 1319.35 -114.65 1319.35 -117.5 1323.5 -118.15 1322.05 -118.95 1320.2 -119.95 1320.45 -120.05 1322.55 -121.05 1373.1 -121.25 1378.4 -118.1 1383.3 -114.1 1388.4 -109.9 1394.35 -103.75 M1590.4 -114.65 Q1591.8 -116.25 1595.6 -116.25 1598.95 -116.25 1601.95 -113.8 1605.6 -110.85 1608.75 -110.0 L1696.25 -110.0 Q1698.65 -111.25 1701.85 -116.35 1705.85 -122.8 1708.1 -125.15 1717.95 -135.55 1738.4 -130.0 1738.4 -129.6 1739.05 -129.3 1739.65 -128.95 1739.65 -125.3 1739.65 -123.7 1729.1 -115.9 1715.2 -105.6 1695.6 -96.25 L1605.6 -96.25 Q1591.35 -98.05 1589.6 -102.55 1589.1 -104.0 1589.4 -107.3 1589.75 -111.05 1589.35 -113.1 1589.7 -113.1 1590.4 -114.65 M699.65 -251.85 Q693.55 -249.5 678.65 -246.15 L652.5 -240.05 Q619.95 -231.5 614.05 -219.35 L612.65 -217.8 Q611.25 -216.25 607.5 -216.25 597.65 -216.25 594.75 -221.05 593.75 -222.7 593.75 -226.55 593.75 -235.45 599.15 -239.5 L599.5 -239.75 597.95 -240.3 Q596.25 -241.5 596.25 -245.6 596.25 -249.55 598.45 -250.5 L602.5 -251.25 Q623.6 -251.95 636.15 -254.6 643.15 -256.05 652.75 -259.8 661.55 -263.2 669.35 -264.45 681.5 -266.45 702.8 -266.25 704.35 -265.6 707.1 -265.15 709.05 -264.25 709.05 -260.3 709.05 -256.25 706.85 -254.9 706.4 -254.6 702.8 -253.75 L700.2 -253.45 699.65 -251.85" fill="#605446" fill-rule="evenodd" stroke="none"/>
    <path d="M917.55 -404.95 Q925.05 -394.2 928.05 -390.65 938.85 -378.05 955.4 -371.25 L970.3 -371.25 Q980.8 -362.35 996.1 -357.0 1024.2 -347.2 1075.3 -343.75 1076.85 -343.1 1079.6 -342.65 1081.55 -341.75 1081.55 -337.8 1081.55 -334.65 1079.05 -332.3 1076.55 -329.95 1076.55 -326.85 1076.55 -323.15 1076.15 -322.25 L1075.3 -320.0 1067.35 -319.15 1056.55 -318.75 1044.3 -319.85 Q1036.05 -321.2 1029.65 -323.75 1023.5 -318.3 1023.7 -310.3 L1024.25 -302.95 Q1024.6 -298.15 1024.05 -294.35 L1022.2 -292.8 Q1020.3 -291.25 1016.55 -291.25 1011.8 -291.25 1009.95 -292.05 1008.4 -292.7 1007.95 -294.35 L1007.15 -298.1 Q1006.3 -300.75 1004.05 -303.1 998.35 -299.6 995.25 -292.5 993.4 -288.15 991.6 -279.45 989.95 -271.15 988.55 -268.4 986.25 -263.75 981.55 -263.75 961.0 -263.75 951.85 -304.7 950.55 -310.55 949.6 -316.4 945.5 -323.1 940.6 -336.15 L933.45 -355.4 Q931.6 -357.1 931.55 -360.45 926.6 -372.4 922.15 -376.85 922.15 -369.05 915.85 -361.55 909.25 -353.75 901.55 -353.75 897.75 -353.75 895.3 -356.3 893.45 -359.05 892.8 -359.35 L886.45 -353.7 Q883.15 -350.7 880.3 -348.75 876.65 -349.95 875.75 -350.75 874.05 -352.35 874.05 -356.55 L874.1 -358.0 871.95 -357.2 866.55 -355.55 866.55 -354.35 Q865.9 -354.35 864.1 -353.25 861.75 -351.85 860.3 -351.25 857.4 -352.35 855.75 -353.85 851.6 -354.25 849.95 -356.45 848.75 -358.1 848.4 -362.5 845.05 -362.5 839.25 -361.0 834.05 -359.65 829.65 -360.0 L829.35 -361.4 Q829.05 -363.6 829.05 -367.5 829.05 -371.3 831.6 -378.7 L831.55 -378.75 831.55 -384.35 833.85 -384.85 Q836.05 -389.95 837.8 -391.25 842.75 -388.95 843.65 -386.25 L843.8 -384.5 Q848.2 -383.85 850.9 -382.5 L853.55 -389.1 Q855.25 -393.65 856.65 -395.7 860.8 -402.05 866.55 -393.75 L866.55 -386.75 875.3 -391.25 Q888.85 -391.25 898.35 -385.35 L899.05 -386.85 Q898.1 -393.8 899.8 -401.8 902.0 -412.1 907.8 -416.25 911.95 -412.95 917.55 -404.95" fill="#000000" fill-rule="evenodd" stroke="none"/>
  </g>
</svg>
