<?xml version="1.0" encoding="UTF-8" standalone="no"?>
<svg xmlns:ffdec="https://www.free-decompiler.com/flash" xmlns:xlink="http://www.w3.org/1999/xlink" ffdec:objectType="shape" height="763.1px" width="2965.5px" xmlns="http://www.w3.org/2000/svg">
  <g transform="matrix(1.0, 0.0, 0.0, 1.0, -12.9, 843.1)">
    <path d="M2940.2 -398.4 L2939.05 -398.1 2803.75 -396.85 Q2798.15 -395.85 2798.75 -394.45 L2799.45 -393.35 Q2799.75 -392.8 2798.9 -392.4 L2796.45 -391.8 2798.7 -390.55 Q2803.1 -388.15 2805.9 -386.9 2810.0 -385.05 2814.1 -383.75 2824.0 -380.6 2833.75 -380.6 2877.7 -380.6 2888.8 -387.45 2891.6 -389.2 2894.45 -392.2 2897.4 -394.35 2904.05 -394.35 2914.1 -394.35 2917.2 -389.85 2918.4 -388.15 2918.4 -384.65 2918.4 -378.6 2904.8 -371.8 2889.85 -364.35 2866.55 -360.6 L2801.25 -360.6 Q2799.7 -360.4 2798.05 -360.6 2792.95 -361.35 2786.7 -366.25 2783.9 -368.45 2780.85 -371.45 L2777.0 -375.55 2774.7 -378.4 2772.65 -381.35 Q2769.35 -386.45 2769.35 -389.35 L2769.35 -390.15 Q2754.8 -389.7 2733.1 -389.35 L2732.4 -387.65 Q2730.0 -383.4 2722.75 -379.6 2714.05 -375.75 2713.1 -375.0 2711.4 -373.45 2712.3 -370.65 2713.25 -367.6 2712.5 -366.55 2709.95 -362.9 2685.2 -362.05 L2675.6 -361.85 Q2674.3 -357.85 2672.8 -355.8 L2672.3 -355.25 Q2671.05 -353.85 2668.55 -352.85 2661.95 -350.25 2657.5 -344.35 2654.15 -340.0 2639.55 -335.95 2620.35 -330.6 2593.75 -330.6 2566.15 -330.6 2548.95 -340.3 2544.1 -343.05 2539.6 -346.95 2536.1 -350.0 2535.6 -350.0 L2521.0 -348.9 2478.4 -347.15 2476.45 -345.6 Q2471.75 -342.5 2463.1 -341.85 L2464.6 -338.8 Q2465.6 -336.35 2465.6 -332.5 2465.6 -326.7 2462.5 -323.2 2458.05 -318.1 2447.5 -318.1 L2443.0 -318.25 2440.5 -318.55 2440.5 -318.3 2440.6 -316.9 Q2440.7 -314.05 2440.25 -312.45 2438.35 -305.65 2423.75 -303.1 L2377.6 -303.1 2343.75 -303.1 Q2336.15 -305.25 2334.35 -307.5 L2333.4 -309.0 2318.95 -307.7 Q2297.95 -305.6 2273.1 -301.85 2266.95 -300.9 2261.65 -298.8 2256.05 -296.25 2252.55 -295.05 2239.75 -290.6 2210.9 -290.6 L2171.15 -292.1 Q2163.95 -293.1 2161.35 -295.5 2158.55 -298.05 2153.85 -298.9 2145.15 -300.5 2120.9 -300.6 2114.1 -303.45 2112.25 -308.5 2111.55 -310.45 2111.55 -315.9 2111.55 -319.6 2115.05 -323.3 L2112.75 -323.25 Q2114.05 -324.2 2114.05 -326.15 2113.95 -323.9 2106.8 -323.15 L2100.05 -323.1 2103.65 -322.9 Q2100.1 -322.7 2095.4 -322.8 L2081.6 -323.25 Q2074.7 -323.45 2073.4 -323.1 2068.25 -324.55 2064.65 -328.1 2064.25 -329.4 2064.15 -332.35 L2064.05 -339.35 2011.55 -339.35 2012.4 -338.2 Q2012.8 -337.55 2012.8 -333.75 2012.8 -330.35 2011.25 -328.05 2009.05 -324.75 2003.4 -323.1 L1898.4 -323.1 Q1886.0 -328.7 1869.0 -331.7 L1850.35 -334.2 Q1831.45 -330.6 1809.65 -330.6 1781.5 -330.6 1772.7 -332.9 1769.45 -333.75 1768.1 -335.1 L1766.5 -337.4 Q1765.75 -338.4 1763.6 -339.05 L1758.95 -339.25 1734.3 -340.15 1715.8 -339.3 1723.65 -335.1 Q1732.8 -330.05 1732.8 -329.65 1732.8 -323.55 1727.85 -321.95 1723.55 -320.6 1707.15 -320.6 L1683.4 -322.8 1630.6 -326.85 1627.1 -324.5 Q1625.25 -323.55 1623.1 -323.1 L1538.1 -323.1 1517.7 -328.5 Q1503.3 -331.65 1490.0 -331.85 1489.85 -328.45 1486.35 -325.75 1483.35 -323.4 1480.6 -323.1 L1388.1 -323.1 Q1383.0 -323.4 1380.0 -326.4 L1369.65 -327.2 1369.15 -326.85 Q1360.75 -320.95 1346.9 -315.7 1313.85 -303.1 1278.1 -303.1 1251.3 -303.1 1241.8 -306.6 1235.9 -308.8 1234.5 -314.35 1233.75 -317.25 1232.9 -318.5 1231.45 -320.7 1228.05 -322.1 1219.5 -325.6 1194.35 -325.6 1193.4 -325.6 1174.3 -319.4 1155.0 -313.1 1155.0 -312.5 1155.0 -310.0 1152.3 -306.85 1149.25 -303.3 1145.6 -303.1 L1087.8 -303.1 Q1087.0 -303.65 1073.05 -306.8 L1051.55 -311.25 1050.9 -310.0 Q1059.4 -311.35 1062.8 -306.0 1064.65 -303.15 1064.65 -299.65 1064.65 -296.1 1061.05 -293.25 1058.05 -290.9 1055.3 -290.6 L989.65 -289.35 972.8 -285.6 887.15 -284.35 Q884.15 -283.1 871.95 -281.8 L855.3 -280.6 Q827.5 -280.6 814.2 -283.3 803.9 -285.4 798.15 -290.35 792.4 -296.5 787.6 -300.0 779.05 -306.15 762.8 -310.6 L748.1 -315.0 Q746.45 -313.45 745.3 -313.1 L713.35 -313.1 Q712.45 -311.85 711.05 -310.75 708.05 -308.4 705.3 -308.1 L632.8 -308.1 Q626.9 -309.8 621.7 -310.6 611.0 -312.3 592.8 -313.1 592.3 -313.45 591.9 -313.75 588.9 -312.6 583.45 -309.75 575.55 -305.7 563.9 -303.65 546.6 -300.6 516.25 -300.6 458.6 -300.6 440.9 -307.8 435.4 -310.05 431.4 -314.2 427.0 -318.65 424.35 -320.0 L357.5 -320.6 Q355.15 -321.9 351.0 -324.65 L346.85 -327.5 315.4 -328.65 293.75 -329.35 268.15 -326.2 Q245.65 -323.1 242.5 -323.1 238.8 -323.1 233.6 -333.0 L231.55 -337.25 Q229.95 -340.7 228.25 -344.95 L227.3 -347.4 Q224.95 -353.5 222.8 -360.15 220.6 -366.9 220.6 -367.5 220.6 -375.2 230.55 -379.35 L232.35 -380.05 Q240.9 -383.1 250.95 -381.55 262.75 -379.75 267.55 -372.5 273.2 -363.95 266.25 -350.6 L335.5 -347.5 Q351.25 -347.65 354.15 -350.1 354.85 -350.7 355.35 -352.3 355.8 -353.8 356.95 -354.5 360.75 -356.85 378.75 -356.85 393.0 -356.85 398.5 -354.25 400.55 -353.25 402.35 -351.45 L405.6 -348.1 Q441.75 -347.5 444.25 -346.05 444.95 -345.65 444.25 -343.75 443.5 -341.75 445.6 -340.0 L462.1 -339.5 481.85 -338.1 530.0 -338.1 Q552.5 -339.65 574.3 -347.05 585.2 -350.75 592.8 -354.35 L634.25 -354.35 645.3 -354.35 Q658.9 -350.8 661.1 -350.05 667.85 -347.75 671.15 -345.05 672.65 -343.85 673.4 -342.5 L711.25 -342.15 Q713.8 -345.15 717.8 -346.85 L815.9 -347.5 829.3 -348.4 Q845.1 -348.95 885.3 -349.35 890.75 -347.9 893.15 -344.4 894.65 -342.15 894.65 -339.65 894.65 -336.0 890.85 -333.0 886.8 -329.8 880.9 -329.35 882.55 -320.3 884.8 -315.15 888.9 -305.6 897.8 -305.6 L935.6 -311.15 Q982.1 -316.95 1028.4 -318.1 1032.0 -320.8 1045.25 -334.75 1056.4 -346.5 1062.8 -349.35 L1138.1 -349.35 Q1141.25 -348.55 1150.2 -345.35 1158.15 -342.5 1158.75 -342.5 1187.05 -342.5 1192.35 -345.0 L1195.1 -347.2 Q1196.75 -348.6 1200.6 -349.35 L1253.1 -349.35 Q1262.45 -343.45 1266.0 -335.8 1269.4 -328.5 1266.25 -322.5 L1308.1 -323.1 Q1315.9 -330.9 1331.3 -337.05 1328.75 -339.3 1328.75 -341.85 1328.75 -346.85 1330.1 -348.25 1331.95 -350.15 1339.4 -351.35 L1364.45 -354.4 1413.1 -360.6 Q1413.1 -361.25 1416.25 -361.45 1421.4 -361.85 1438.1 -361.85 1443.6 -357.9 1445.8 -354.4 1448.25 -350.55 1446.25 -348.1 L1446.25 -347.5 Q1456.9 -348.4 1461.9 -350.9 1463.95 -351.95 1467.95 -355.7 1471.15 -358.7 1476.1 -360.0 1483.3 -361.85 1498.1 -361.85 1538.45 -361.85 1560.55 -354.6 1574.85 -349.9 1579.35 -343.1 L1618.1 -343.1 Q1619.8 -344.8 1626.1 -345.85 1634.5 -347.25 1653.55 -348.1 1651.25 -350.0 1651.25 -351.85 1651.25 -353.5 1650.4 -356.55 1650.65 -359.1 1656.3 -360.55 L1659.7 -361.25 Q1661.25 -361.85 1663.1 -361.85 L1663.65 -361.8 Q1683.6 -364.35 1738.4 -364.35 1754.05 -364.35 1761.5 -362.6 L1764.75 -361.55 Q1775.25 -360.75 1778.15 -357.75 L1780.1 -355.45 1783.3 -354.85 Q1794.25 -353.1 1815.9 -353.1 1835.75 -353.1 1846.0 -354.7 L1846.1 -354.75 1852.05 -357.45 1856.5 -358.5 Q1857.0 -359.2 1857.0 -359.95 1857.05 -360.85 1856.35 -362.5 1855.7 -364.1 1855.75 -364.7 1855.85 -366.85 1863.4 -366.85 1868.6 -366.85 1870.45 -365.15 1871.7 -364.0 1871.9 -361.15 L1872.05 -359.35 1872.15 -359.35 Q1883.2 -359.35 1886.55 -354.85 L1887.4 -353.1 1910.9 -353.1 Q1912.5 -354.35 1914.05 -356.45 L1916.45 -359.25 Q1919.75 -361.85 1930.9 -361.85 1942.45 -361.85 1945.35 -359.25 1947.1 -357.65 1947.8 -353.1 1958.4 -374.9 1986.9 -370.1 1994.45 -368.8 2008.2 -364.4 2020.0 -360.6 2023.4 -360.6 2066.1 -360.6 2082.35 -365.35 2086.35 -366.5 2090.6 -368.4 2094.0 -369.65 2098.4 -369.35 L2180.9 -369.35 Q2202.45 -364.05 2208.8 -358.1 2211.5 -355.6 2212.3 -352.3 2212.8 -350.3 2212.8 -345.9 2212.8 -340.75 2211.05 -337.5 2208.65 -333.1 2203.4 -333.1 2197.35 -333.1 2195.35 -334.55 2194.1 -335.45 2193.65 -338.3 2193.15 -341.65 2191.8 -343.5 2189.5 -346.8 2183.4 -349.35 L2157.8 -349.35 Q2158.1 -348.55 2161.8 -342.9 L2163.85 -339.25 2165.35 -339.1 Q2175.3 -337.75 2175.3 -331.25 2175.3 -330.35 2172.25 -327.6 L2162.15 -318.1 2161.55 -316.25 Q2165.65 -314.2 2186.25 -312.25 L2210.9 -310.6 Q2233.85 -310.6 2260.4 -316.95 L2268.6 -319.05 2266.8 -320.35 Q2264.05 -322.5 2264.05 -324.35 2264.05 -336.85 2288.75 -336.85 L2294.3 -336.95 2299.05 -337.15 2300.3 -337.2 Q2310.15 -337.4 2317.65 -337.1 2341.0 -336.05 2347.5 -329.35 L2349.5 -325.8 2350.55 -323.0 2351.0 -322.5 Q2381.15 -322.85 2390.0 -323.45 2398.95 -324.05 2398.75 -325.85 2398.6 -326.65 2396.95 -328.8 L2395.25 -330.9 Q2393.1 -335.25 2398.1 -340.0 L2408.6 -349.3 Q2412.6 -352.75 2414.35 -355.6 2416.4 -358.85 2442.9 -368.75 2466.05 -377.45 2473.75 -379.35 L2538.75 -379.35 2539.1 -379.25 Q2544.6 -377.5 2558.6 -375.3 2572.55 -373.1 2577.5 -373.1 L2593.65 -373.9 2616.6 -375.0 2631.85 -375.6 2633.35 -378.1 Q2635.2 -382.0 2636.1 -387.9 2637.9 -399.65 2638.4 -401.25 2640.5 -408.6 2646.0 -412.7 L2646.95 -413.35 Q2653.7 -417.95 2666.25 -419.35 L2704.3 -419.2 Q2742.9 -418.9 2745.6 -418.1 L2751.7 -418.1 2876.55 -418.1 2892.5 -419.7 2924.9 -423.45 2956.3 -426.9 Q2968.45 -427.7 2973.3 -425.7 2978.4 -423.55 2978.4 -417.15 2978.4 -412.05 2975.35 -409.0 2973.8 -407.45 2971.25 -406.2 L2967.05 -404.6 2965.8 -404.25 2961.05 -403.05 2954.55 -401.7 2940.8 -398.55 2940.2 -398.4 M718.05 -192.35 Q728.35 -187.55 730.9 -185.0 818.4 -185.6 822.8 -186.85 L890.3 -186.85 Q894.25 -185.85 905.0 -184.5 L920.6 -183.1 Q925.65 -183.1 924.75 -184.45 L923.7 -185.85 Q923.2 -186.8 923.9 -187.45 928.1 -191.85 985.3 -191.85 L1006.6 -189.8 1030.3 -186.85 1057.6 -185.2 1084.65 -183.1 Q1094.8 -180.7 1099.55 -176.55 1102.5 -174.0 1102.5 -172.15 1102.5 -166.55 1097.5 -164.45 1094.2 -163.1 1087.8 -163.1 1042.45 -163.1 1022.1 -167.45 1012.7 -169.45 1009.65 -172.5 L989.65 -171.85 Q989.5 -169.85 988.6 -167.95 986.85 -164.25 980.3 -163.1 940.7 -163.1 915.95 -164.5 898.15 -165.5 892.8 -166.85 L831.55 -166.85 825.1 -162.35 Q820.6 -159.95 812.8 -158.1 L742.8 -158.1 Q733.65 -162.15 722.7 -167.7 711.75 -173.25 702.15 -177.5 L625.3 -178.1 Q624.35 -178.1 585.9 -186.85 L578.7 -186.6 Q571.6 -186.15 572.15 -185.0 570.2 -182.05 568.8 -180.8 565.85 -178.2 560.8 -176.9 546.75 -173.3 515.0 -179.35 L493.75 -179.35 Q492.05 -178.1 491.5 -176.55 490.95 -174.95 490.5 -174.6 488.5 -173.1 472.5 -173.1 468.05 -173.1 460.3 -174.85 452.85 -176.5 451.85 -177.5 359.5 -178.1 312.45 -198.15 295.85 -205.25 287.2 -213.85 280.6 -220.4 280.6 -225.0 280.6 -230.85 284.35 -232.9 287.65 -234.7 293.2 -233.3 298.3 -232.05 303.55 -228.65 308.8 -225.25 311.85 -221.25 316.2 -218.5 335.5 -214.75 354.35 -214.55 381.25 -210.8 404.9 -207.5 423.8 -203.0 L485.0 -201.85 490.3 -201.05 512.5 -199.35 Q514.8 -200.35 515.4 -202.35 L516.6 -205.65 Q519.45 -209.35 538.75 -209.35 596.7 -209.35 603.6 -207.35 604.95 -207.0 609.8 -203.95 614.6 -200.95 624.65 -198.1 L707.8 -196.85 718.05 -192.35 M1203.35 -276.75 Q1201.9 -275.75 1196.15 -275.05 1173.95 -272.5 1151.85 -265.6 1148.2 -264.45 1145.4 -262.05 1142.6 -259.25 1140.7 -257.95 1133.7 -253.1 1114.05 -253.1 1103.85 -253.1 1101.55 -257.1 1100.85 -258.4 1100.95 -260.1 L1101.25 -261.85 Q1101.25 -263.7 1111.6 -269.5 1122.6 -275.6 1136.7 -281.2 1175.1 -296.35 1195.6 -291.85 1201.1 -290.4 1203.45 -286.9 1205.0 -284.6 1205.0 -282.15 1205.0 -277.95 1203.35 -276.75 M1740.55 -98.4 L1738.6 -100.0 Q1733.6 -104.45 1731.85 -105.55 1722.05 -111.5 1700.9 -105.6 L1580.6 -105.6 Q1575.35 -106.8 1569.15 -109.7 L1558.5 -115.1 Q1545.05 -121.95 1535.0 -122.5 1491.55 -125.3 1485.35 -130.55 1483.25 -132.35 1484.7 -135.25 L1486.85 -140.0 1465.6 -140.6 1458.6 -145.55 Q1456.25 -147.5 1456.25 -149.35 1456.25 -150.95 1458.25 -153.65 1460.95 -157.35 1465.6 -159.35 L1535.6 -159.35 1561.0 -158.2 Q1588.6 -158.1 1600.95 -157.5 1656.35 -154.85 1673.1 -138.1 1726.85 -136.45 1735.95 -133.3 1738.2 -132.55 1739.15 -131.4 1740.65 -130.6 1747.5 -130.6 L1754.05 -131.2 1755.9 -131.85 1842.15 -132.5 1892.8 -141.95 Q1933.1 -149.25 1948.05 -149.35 L1949.15 -151.05 Q1952.7 -155.95 1959.9 -159.4 1980.35 -169.2 2023.4 -164.35 2025.5 -163.0 2028.6 -160.1 2031.6 -157.25 2032.8 -155.6 L2138.4 -154.35 2158.0 -151.2 Q2163.2 -150.75 2168.4 -154.35 L2243.75 -154.35 Q2249.75 -152.95 2251.8 -149.4 2252.8 -147.6 2252.8 -144.65 2252.8 -135.8 2229.5 -127.3 2210.0 -120.15 2190.9 -118.1 L2160.9 -118.1 Q2151.45 -120.45 2151.1 -125.9 2150.95 -128.75 2152.8 -132.5 2145.9 -133.1 2140.9 -134.35 L1996.5 -135.3 Q1997.8 -133.45 1997.8 -132.15 L1997.75 -131.1 Q1997.55 -130.7 1996.4 -130.4 L1983.15 -128.0 Q1939.65 -120.75 1866.55 -105.6 1868.4 -100.6 1867.3 -97.05 1866.4 -94.15 1863.6 -92.45 1861.5 -91.2 1858.4 -90.6 L1838.4 -90.6 Q1834.15 -91.8 1827.8 -95.0 L1745.9 -95.6 Q1743.3 -96.35 1740.55 -98.4 M2378.5 -182.6 Q2375.95 -180.85 2373.75 -180.6 L2303.75 -180.6 Q2282.15 -186.75 2256.2 -189.65 2248.85 -190.5 2246.75 -191.6 2244.05 -192.95 2244.05 -196.85 2244.05 -205.05 2253.6 -206.6 2267.25 -208.85 2304.35 -200.0 L2373.75 -199.35 Q2375.9 -198.75 2377.6 -197.8 2380.0 -196.45 2381.45 -194.4 2383.1 -192.0 2383.1 -189.65 2383.1 -186.15 2379.35 -183.25 L2378.5 -182.6" fill="#605446" fill-rule="evenodd" stroke="none"/>
    <path d="M2798.7 -390.55 L2796.45 -391.8 2798.9 -392.4 Q2799.75 -392.8 2799.45 -393.35 L2798.75 -394.45 Q2798.15 -395.85 2803.75 -396.85 L2939.05 -398.1 2940.2 -398.4 Q2941.75 -396.9 2941.75 -395.0 2941.75 -389.75 2932.0 -388.45 2938.75 -388.25 2938.75 -376.0 2938.75 -372.95 2937.65 -368.7 L2935.75 -361.75 2934.75 -360.25 2944.4 -363.2 2948.5 -364.5 Q2949.0 -360.9 2949.85 -356.2 2951.7 -345.95 2951.7 -340.6 L2950.7 -333.45 2950.4 -331.15 2944.4 -330.05 Q2923.55 -326.05 2904.75 -319.75 L2848.75 -319.75 Q2840.1 -323.5 2829.45 -327.0 2818.9 -330.3 2814.95 -331.75 2808.55 -334.1 2805.9 -336.5 2802.75 -339.3 2802.75 -343.75 2802.75 -346.15 2803.8 -346.95 2804.8 -347.65 2809.0 -348.6 2824.6 -352.15 2840.3 -357.5 L2836.05 -358.1 2803.75 -358.1 2798.05 -360.6 Q2799.7 -360.4 2801.25 -360.6 L2866.55 -360.6 Q2889.85 -364.35 2904.8 -371.8 2918.4 -378.6 2918.4 -384.65 2918.4 -388.15 2917.2 -389.85 2914.1 -394.35 2904.05 -394.35 2897.4 -394.35 2894.45 -392.2 2891.6 -389.2 2888.8 -387.45 2877.7 -380.6 2833.75 -380.6 2824.0 -380.6 2814.1 -383.75 L2831.55 -383.1 Q2850.75 -383.1 2871.35 -387.8 L2885.55 -391.6 2883.9 -392.45 Q2878.65 -391.0 2863.6 -391.0 2851.2 -391.0 2838.0 -393.25 L2822.1 -395.5 Q2819.9 -395.5 2820.15 -394.95 L2820.65 -393.65 Q2819.85 -391.55 2801.1 -390.75 L2798.7 -390.55 M2940.8 -398.55 L2954.55 -401.7 2961.05 -403.05 Q2952.9 -395.9 2944.4 -397.5 2942.6 -397.85 2940.8 -398.55 M2965.8 -404.25 L2967.05 -404.6 2971.25 -406.2 Q2968.75 -404.25 2966.75 -404.25 L2965.8 -404.25 M2892.5 -419.7 L2876.55 -418.1 2751.7 -418.1 2755.0 -419.25 2892.5 -419.7 M2646.95 -413.35 L2646.0 -412.7 Q2640.5 -408.6 2638.4 -401.25 2637.9 -399.65 2636.1 -387.9 2635.2 -382.0 2633.35 -378.1 2622.75 -386.7 2613.55 -388.8 2608.65 -389.55 2607.35 -390.0 2605.5 -390.65 2605.5 -393.5 2605.5 -398.85 2608.05 -401.65 2610.25 -404.05 2615.55 -405.55 L2627.75 -408.25 Q2637.1 -410.25 2644.5 -412.75 L2646.95 -413.35 M2616.6 -375.0 L2593.65 -373.9 2577.5 -373.1 Q2572.55 -373.1 2558.6 -375.3 2544.6 -377.5 2539.1 -379.25 2565.85 -379.15 2575.9 -378.25 L2594.0 -377.25 Q2607.05 -377.25 2616.6 -375.0 M2396.95 -328.8 Q2398.6 -326.65 2398.75 -325.85 2398.95 -324.05 2390.0 -323.45 2381.15 -322.85 2351.0 -322.5 L2350.55 -323.0 2349.5 -325.8 2347.5 -329.35 Q2341.0 -336.05 2317.65 -337.1 2310.15 -337.4 2300.3 -337.2 L2299.05 -337.15 Q2301.8 -338.65 2302.5 -339.75 2302.1 -340.95 2301.25 -342.0 2300.35 -343.1 2300.0 -342.75 2296.15 -339.25 2294.3 -336.95 L2288.75 -336.85 Q2264.05 -336.85 2264.05 -324.35 2264.05 -322.5 2266.8 -320.35 L2268.6 -319.05 2260.4 -316.95 Q2233.85 -310.6 2210.9 -310.6 L2186.25 -312.25 Q2165.65 -314.2 2161.55 -316.25 L2162.15 -318.1 2172.25 -327.6 Q2175.3 -330.35 2175.3 -331.25 2175.3 -337.75 2165.35 -339.1 L2163.85 -339.25 2161.8 -342.9 Q2158.1 -348.55 2157.8 -349.35 L2183.4 -349.35 Q2189.5 -346.8 2191.8 -343.5 2193.15 -341.65 2193.65 -338.3 2194.1 -335.45 2195.35 -334.55 2197.35 -333.1 2203.4 -333.1 2208.65 -333.1 2211.05 -337.5 2212.8 -340.75 2212.8 -345.9 2212.8 -350.3 2212.3 -352.3 2211.5 -355.6 2208.8 -358.1 2202.45 -364.05 2180.9 -369.35 L2098.4 -369.35 Q2094.0 -369.65 2090.6 -368.4 2086.35 -366.5 2082.35 -365.35 2066.1 -360.6 2023.4 -360.6 2020.0 -360.6 2008.2 -364.4 1994.45 -368.8 1986.9 -370.1 1958.4 -374.9 1947.8 -353.1 1947.1 -357.65 1945.35 -359.25 1942.45 -361.85 1930.9 -361.85 1919.75 -361.85 1916.45 -359.25 L1914.05 -356.45 Q1912.5 -354.35 1910.9 -353.1 L1887.4 -353.1 1886.55 -354.85 Q1883.2 -359.35 1872.15 -359.35 L1872.05 -359.35 1871.9 -361.15 Q1871.7 -364.0 1870.45 -365.15 1868.6 -366.85 1863.4 -366.85 1855.85 -366.85 1855.75 -364.7 1855.7 -364.1 1856.35 -362.5 1857.05 -360.85 1857.0 -359.95 1857.0 -359.2 1856.5 -358.5 L1852.05 -357.45 1846.1 -354.75 1846.0 -354.7 Q1835.75 -353.1 1815.9 -353.1 1794.25 -353.1 1783.3 -354.85 L1780.1 -355.45 1778.15 -357.75 Q1775.25 -360.75 1764.75 -361.55 L1761.5 -362.6 Q1754.05 -364.35 1738.4 -364.35 1683.6 -364.35 1663.65 -361.8 L1663.1 -361.85 Q1661.25 -361.85 1659.7 -361.25 L1656.3 -360.55 Q1650.65 -359.1 1650.4 -356.55 1651.25 -353.5 1651.25 -351.85 1651.25 -350.0 1653.55 -348.1 1634.5 -347.25 1626.1 -345.85 1619.8 -344.8 1618.1 -343.1 L1579.35 -343.1 Q1574.85 -349.9 1560.55 -354.6 1538.45 -361.85 1498.1 -361.85 1483.3 -361.85 1476.1 -360.0 1471.15 -358.7 1467.95 -355.7 1463.95 -351.95 1461.9 -350.9 1456.9 -348.4 1446.25 -347.5 L1446.25 -348.1 Q1448.25 -350.55 1445.8 -354.4 1443.6 -357.9 1438.1 -361.85 1421.4 -361.85 1416.25 -361.45 1413.1 -361.25 1413.1 -360.6 L1364.45 -354.4 1339.4 -351.35 Q1331.95 -350.15 1330.1 -348.25 1328.75 -346.85 1328.75 -341.85 1328.75 -339.3 1331.3 -337.05 1315.9 -330.9 1308.1 -323.1 L1266.25 -322.5 Q1269.4 -328.5 1266.0 -335.8 1262.45 -343.45 1253.1 -349.35 L1200.6 -349.35 Q1196.75 -348.6 1195.1 -347.2 L1192.35 -345.0 Q1187.05 -342.5 1158.75 -342.5 1158.15 -342.5 1150.2 -345.35 1141.25 -348.55 1138.1 -349.35 L1062.8 -349.35 Q1056.4 -346.5 1045.25 -334.75 1032.0 -320.8 1028.4 -318.1 982.1 -316.95 935.6 -311.15 L897.8 -305.6 Q888.9 -305.6 884.8 -315.15 882.55 -320.3 880.9 -329.35 886.8 -329.8 890.85 -333.0 894.65 -336.0 894.65 -339.65 894.65 -342.15 893.15 -344.4 890.75 -347.9 885.3 -349.35 845.1 -348.95 829.3 -348.4 L815.9 -347.5 717.8 -346.85 Q713.8 -345.15 711.25 -342.15 L673.4 -342.5 Q672.65 -343.85 671.15 -345.05 L676.35 -345.0 676.55 -345.0 Q709.8 -345.0 720.35 -355.0 724.05 -358.5 724.95 -363.3 725.3 -365.0 725.3 -370.0 725.3 -372.7 724.7 -375.2 L1067.05 -375.2 1070.0 -376.25 1073.8 -378.25 Q1068.1 -378.3 1065.1 -379.6 1058.3 -378.25 1051.5 -376.25 L1035.5 -376.25 1029.9 -380.3 Q1028.0 -381.8 1028.0 -383.25 1028.0 -386.4 1038.15 -390.15 1047.8 -393.65 1060.5 -395.55 1071.65 -397.25 1079.55 -396.7 1085.55 -399.95 1092.1 -402.65 1129.25 -418.15 1165.5 -411.25 1169.7 -410.1 1171.7 -407.3 1172.5 -406.15 1172.8 -405.0 L1174.9 -404.5 Q1181.0 -402.65 1181.0 -397.5 1181.0 -394.4 1177.65 -392.2 1174.55 -390.2 1167.5 -388.25 L1160.95 -388.25 1161.0 -387.5 Q1161.0 -385.25 1137.5 -377.95 L1128.3 -375.2 1223.35 -375.2 Q1225.1 -376.2 1227.15 -376.95 L1237.5 -379.25 1263.2 -379.45 Q1272.2 -381.8 1293.5 -380.75 L1295.25 -379.75 1330.3 -380.05 Q1331.5 -382.05 1338.3 -385.1 1346.5 -388.7 1356.4 -390.95 1354.0 -391.85 1352.55 -392.9 1350.6 -394.4 1350.15 -396.45 L1350.05 -397.45 1345.9 -399.9 Q1338.2 -404.6 1330.5 -410.75 L1354.05 -412.95 Q1352.0 -415.05 1352.0 -416.75 1352.0 -422.65 1367.15 -421.85 1380.5 -421.15 1400.5 -415.8 1408.45 -413.65 1415.5 -411.3 L1417.5 -411.25 1418.95 -410.15 Q1427.05 -407.35 1433.85 -404.25 1446.45 -398.45 1448.6 -394.35 1464.65 -387.7 1474.25 -384.75 L1471.55 -380.55 Q1470.15 -378.75 1466.25 -378.75 1464.25 -378.75 1454.4 -382.8 L1446.1 -385.85 Q1444.0 -384.25 1440.5 -384.25 L1438.3 -384.3 1438.1 -382.6 Q1438.05 -380.8 1436.9 -379.9 1433.55 -377.3 1418.55 -379.15 L1414.95 -375.2 1664.75 -375.2 Q1663.35 -376.05 1662.55 -377.4 1661.75 -378.8 1661.75 -383.5 1661.75 -386.4 1662.05 -388.65 L1659.25 -388.75 Q1657.05 -389.5 1655.65 -391.5 1654.25 -393.45 1654.25 -395.75 L1656.3 -396.4 Q1630.9 -407.25 1628.5 -407.25 L1612.45 -403.75 Q1596.3 -400.25 1593.25 -400.25 1586.3 -400.25 1584.3 -404.2 1583.7 -405.4 1583.65 -406.7 L1583.75 -407.25 Q1583.75 -410.85 1587.8 -414.35 1592.05 -418.05 1599.5 -420.25 1616.55 -425.35 1640.25 -420.5 L1642.9 -417.25 Q1653.0 -405.0 1656.35 -405.0 1661.8 -405.0 1665.35 -409.0 L1665.95 -409.7 1674.05 -405.6 1682.4 -401.3 1687.8 -401.35 Q1698.8 -401.05 1716.05 -396.4 1740.3 -389.9 1749.9 -388.1 1759.8 -386.25 1770.4 -385.15 1784.9 -387.25 1792.75 -389.35 1797.6 -390.6 1803.45 -393.15 1814.75 -398.05 1843.25 -401.75 1874.1 -400.55 1919.45 -392.75 L1965.25 -392.75 Q1969.65 -392.0 1976.2 -388.75 1986.35 -383.6 1989.4 -382.3 1996.8 -379.2 2005.75 -377.25 L2089.05 -377.65 2097.25 -380.75 2150.5 -381.3 Q2159.25 -383.05 2170.0 -383.75 2171.0 -385.3 2172.7 -386.85 2175.65 -389.65 2179.0 -390.75 L2201.0 -390.75 Q2208.0 -389.8 2211.6 -388.4 L2235.35 -388.7 Q2232.55 -387.65 2231.25 -385.55 2229.0 -381.9 2229.0 -371.75 2229.0 -364.55 2233.85 -358.8 2242.95 -348.05 2265.5 -350.75 2269.55 -348.15 2272.45 -343.5 L2278.0 -348.75 Q2281.3 -352.35 2284.7 -359.55 2288.05 -366.7 2289.5 -368.25 2306.85 -387.15 2320.2 -379.4 L2357.0 -378.75 2360.45 -377.85 Q2361.7 -377.3 2361.95 -375.2 L2377.6 -375.2 2377.6 -337.25 Q2387.1 -334.9 2394.45 -330.3 L2396.6 -328.85 2396.95 -328.8 M634.25 -354.35 L592.8 -354.35 Q585.2 -350.75 574.3 -347.05 552.5 -339.65 530.0 -338.1 L481.85 -338.1 462.1 -339.5 445.6 -340.0 Q443.5 -341.75 444.25 -343.75 444.95 -345.65 444.25 -346.05 441.75 -347.5 405.6 -348.1 L402.35 -351.45 Q400.55 -353.25 398.5 -354.25 393.0 -356.85 378.75 -356.85 360.75 -356.85 356.95 -354.5 355.8 -353.8 355.35 -352.3 354.85 -350.7 354.15 -350.1 351.25 -347.65 335.5 -347.5 L266.25 -350.6 Q273.2 -363.95 267.55 -372.5 262.75 -379.75 250.95 -381.55 240.9 -383.1 232.35 -380.05 232.5 -396.35 232.9 -400.95 233.95 -412.8 237.8 -418.4 239.45 -423.15 243.6 -424.55 L246.35 -425.15 Q249.65 -425.45 255.2 -424.15 259.85 -423.8 265.7 -422.45 280.0 -419.1 315.9 -405.9 322.5 -406.65 328.2 -406.0 L328.25 -406.0 340.45 -406.9 Q346.05 -407.55 356.7 -409.5 377.2 -413.25 402.75 -413.25 L409.6 -412.95 Q409.0 -411.5 409.0 -409.75 409.0 -403.05 410.0 -399.25 412.45 -390.0 420.0 -390.0 433.45 -390.0 445.5 -395.5 449.9 -397.55 452.65 -399.55 462.25 -395.3 467.3 -393.95 475.25 -391.8 482.5 -392.65 489.3 -394.75 495.75 -397.25 L508.6 -397.25 Q516.75 -398.6 528.25 -398.7 L527.6 -397.25 Q527.1 -395.75 527.1 -394.0 527.1 -388.05 537.15 -384.0 546.1 -380.35 561.3 -379.35 561.55 -378.4 562.15 -377.5 565.65 -372.0 578.6 -372.0 591.15 -372.0 596.65 -378.25 600.1 -382.25 600.1 -387.6 L600.1 -387.7 Q604.1 -389.0 606.1 -388.75 L606.1 -388.5 Q605.0 -384.5 609.5 -380.75 615.15 -376.1 626.35 -376.75 627.0 -376.3 628.3 -374.3 627.8 -372.25 627.8 -370.0 627.4 -367.85 627.7 -365.4 L627.75 -364.9 Q628.4 -360.5 631.55 -356.9 632.75 -355.55 634.25 -354.35 M227.3 -347.4 L228.25 -344.95 Q229.95 -340.7 231.55 -337.25 L231.3 -337.35 Q227.4 -338.8 226.5 -340.95 226.25 -341.55 226.25 -344.25 226.25 -345.9 227.3 -347.4 M233.6 -333.0 Q238.8 -323.1 242.5 -323.1 245.65 -323.1 268.15 -326.2 L293.75 -329.35 315.4 -328.65 346.85 -327.5 351.0 -324.65 Q355.15 -321.9 357.5 -320.6 L424.35 -320.0 Q427.0 -318.65 431.4 -314.2 435.4 -310.05 440.9 -307.8 458.6 -300.6 516.25 -300.6 546.6 -300.6 563.9 -303.65 575.55 -305.7 583.45 -309.75 588.9 -312.6 591.9 -313.75 592.3 -313.45 592.8 -313.1 611.0 -312.3 621.7 -310.6 626.9 -309.8 632.8 -308.1 L705.3 -308.1 Q708.05 -308.4 711.05 -310.75 712.45 -311.85 713.35 -313.1 L745.3 -313.1 Q746.45 -313.45 748.1 -315.0 L762.8 -310.6 Q779.05 -306.15 787.6 -300.0 792.4 -296.5 798.15 -290.35 803.9 -285.4 814.2 -283.3 827.5 -280.6 855.3 -280.6 L871.95 -281.8 Q884.15 -283.1 887.15 -284.35 L972.8 -285.6 989.65 -289.35 1055.3 -290.6 Q1058.05 -290.9 1061.05 -293.25 1064.65 -296.1 1064.65 -299.65 1064.65 -303.15 1062.8 -306.0 1059.4 -311.35 1050.9 -310.0 L1051.55 -311.25 1073.05 -306.8 Q1087.0 -303.65 1087.8 -303.1 L1145.6 -303.1 Q1149.25 -303.3 1152.3 -306.85 1155.0 -310.0 1155.0 -312.5 1155.0 -313.1 1174.3 -319.4 1193.4 -325.6 1194.35 -325.6 1219.5 -325.6 1228.05 -322.1 1231.45 -320.7 1232.9 -318.5 1233.75 -317.25 1234.5 -314.35 1235.9 -308.8 1241.8 -306.6 1251.3 -303.1 1278.1 -303.1 1313.85 -303.1 1346.9 -315.7 1360.75 -320.95 1369.15 -326.85 L1369.65 -327.2 1380.0 -326.4 Q1383.0 -323.4 1388.1 -323.1 L1480.6 -323.1 Q1483.35 -323.4 1486.35 -325.75 1489.85 -328.45 1490.0 -331.85 1503.3 -331.65 1517.7 -328.5 L1538.1 -323.1 1623.1 -323.1 Q1625.25 -323.55 1627.1 -324.5 L1630.6 -326.85 1683.4 -322.8 1707.15 -320.6 Q1723.55 -320.6 1727.85 -321.95 1732.8 -323.55 1732.8 -329.65 1732.8 -330.05 1723.65 -335.1 L1715.8 -339.3 1734.3 -340.15 1758.95 -339.25 1763.6 -339.05 Q1765.75 -338.4 1766.5 -337.4 L1768.1 -335.1 Q1769.45 -333.75 1772.7 -332.9 1781.5 -330.6 1809.65 -330.6 1831.45 -330.6 1850.35 -334.2 L1869.0 -331.7 Q1886.0 -328.7 1898.4 -323.1 L2003.4 -323.1 Q2009.05 -324.75 2011.25 -328.05 2012.8 -330.35 2012.8 -333.75 2012.8 -337.55 2012.4 -338.2 L2011.55 -339.35 2064.05 -339.35 2064.15 -332.35 Q2064.25 -329.4 2064.65 -328.1 2068.25 -324.55 2073.4 -323.1 2074.7 -323.45 2081.6 -323.25 L2095.4 -322.8 Q2100.1 -322.7 2103.65 -322.9 L2100.05 -323.1 2106.8 -323.15 Q2113.95 -323.9 2114.05 -326.15 2114.05 -324.2 2112.75 -323.25 L2115.05 -323.3 Q2111.55 -319.6 2111.55 -315.9 2111.55 -310.45 2112.25 -308.5 2114.1 -303.45 2120.9 -300.6 2145.15 -300.5 2153.85 -298.9 2158.55 -298.05 2161.35 -295.5 2163.95 -293.1 2171.15 -292.1 L2210.9 -290.6 Q2239.75 -290.6 2252.55 -295.05 2256.05 -296.25 2261.65 -298.8 2266.95 -300.9 2273.1 -301.85 2297.95 -305.6 2318.95 -307.7 L2333.4 -309.0 2334.35 -307.5 Q2336.15 -305.25 2343.75 -303.1 L2377.6 -303.1 2377.6 -197.8 Q2375.9 -198.75 2373.75 -199.35 L2304.35 -200.0 Q2267.25 -208.85 2253.6 -206.6 2244.05 -205.05 2244.05 -196.85 2244.05 -192.95 2246.75 -191.6 2248.85 -190.5 2256.2 -189.65 2282.15 -186.75 2303.75 -180.6 L2373.75 -180.6 Q2375.95 -180.85 2378.5 -182.6 2379.85 -177.4 2380.4 -171.2 2380.8 -166.5 2380.8 -158.0 2380.8 -146.9 2380.05 -141.1 2379.0 -133.2 2376.1 -127.9 2369.7 -116.35 2348.5 -109.9 2327.2 -103.4 2277.85 -98.05 2240.3 -93.95 2144.0 -86.4 L1936.0 -86.4 1885.5 -89.4 Q1876.1 -90.3 1863.95 -92.4 L1863.6 -92.45 Q1866.4 -94.15 1867.3 -97.05 1868.4 -100.6 1866.55 -105.6 1939.65 -120.75 1983.15 -128.0 L1996.4 -130.4 Q1997.55 -130.7 1997.75 -131.1 L1997.8 -132.15 Q1997.8 -133.45 1996.5 -135.3 L2140.9 -134.35 Q2145.9 -133.1 2152.8 -132.5 2150.95 -128.75 2151.1 -125.9 2151.45 -120.45 2160.9 -118.1 L2190.9 -118.1 Q2210.0 -120.15 2229.5 -127.3 2252.8 -135.8 2252.8 -144.65 2252.8 -147.6 2251.8 -149.4 2249.75 -152.95 2243.75 -154.35 L2168.4 -154.35 Q2163.2 -150.75 2158.0 -151.2 L2138.4 -154.35 2032.8 -155.6 Q2031.6 -157.25 2028.6 -160.1 2025.5 -163.0 2023.4 -164.35 1980.35 -169.2 1959.9 -159.4 1952.7 -155.95 1949.15 -151.05 L1948.05 -149.35 Q1933.1 -149.25 1892.8 -141.95 L1842.15 -132.5 1755.9 -131.85 1754.05 -131.2 1747.5 -130.6 Q1740.65 -130.6 1739.15 -131.4 1738.2 -132.55 1735.95 -133.3 1726.85 -136.45 1673.1 -138.1 1656.35 -154.85 1600.95 -157.5 1588.6 -158.1 1561.0 -158.2 L1535.6 -159.35 1465.6 -159.35 Q1460.95 -157.35 1458.25 -153.65 1456.25 -150.95 1456.25 -149.35 1456.25 -147.5 1458.6 -145.55 L1465.6 -140.6 1486.85 -140.0 1484.7 -135.25 Q1483.25 -132.35 1485.35 -130.55 1491.55 -125.3 1535.0 -122.5 1545.05 -121.95 1558.5 -115.1 L1569.15 -109.7 Q1575.35 -106.8 1580.6 -105.6 L1700.9 -105.6 Q1722.05 -111.5 1731.85 -105.55 1733.6 -104.45 1738.6 -100.0 L1740.55 -98.4 1621.6 -98.4 1609.6 -96.0 1279.2 -95.2 1267.2 -92.8 889.6 -92.8 876.8 -95.2 620.0 -95.2 608.0 -92.8 488.8 -92.0 440.35 -90.3 393.25 -86.15 Q327.2 -80.0 270.4 -80.0 253.5 -80.0 243.6 -86.65 236.35 -91.55 232.85 -100.05 228.7 -110.2 230.4 -121.6 L232.0 -155.5 233.15 -181.25 233.2 -181.9 Q233.75 -186.4 233.75 -193.25 L233.55 -198.2 233.6 -198.2 233.6 -203.2 233.6 -333.0 M2440.6 -316.9 L2440.5 -318.3 2440.5 -318.55 2443.0 -318.25 2440.6 -316.9 M2672.8 -355.8 Q2674.3 -357.85 2675.6 -361.85 L2685.2 -362.05 Q2684.25 -360.5 2682.55 -359.3 2679.35 -357.05 2672.8 -355.8 M2732.4 -387.65 L2733.1 -389.35 Q2754.8 -389.7 2769.35 -390.15 L2769.35 -389.35 Q2769.35 -386.45 2772.65 -381.35 L2774.7 -378.4 Q2770.05 -380.25 2764.65 -383.05 2759.85 -385.45 2755.9 -388.0 L2732.4 -387.65 M2777.0 -375.55 L2780.85 -371.45 Q2783.9 -368.45 2786.7 -366.25 2778.1 -371.15 2777.0 -375.55 M2924.0 -385.6 Q2927.15 -387.6 2929.7 -388.2 L2925.55 -388.0 2924.0 -385.6 M14.2 -839.15 Q14.4 -832.05 12.9 -827.2 L13.2 -831.1 14.05 -843.1 14.2 -839.15 M714.7 -404.4 L717.75 -405.25 726.9 -405.25 729.75 -406.75 764.5 -405.25 801.5 -405.25 Q807.1 -403.15 808.55 -399.05 809.0 -397.65 809.0 -393.0 809.0 -386.0 805.5 -381.7 801.05 -376.25 791.5 -376.25 742.85 -376.25 738.3 -377.95 736.75 -378.5 738.15 -380.25 739.65 -382.1 739.0 -383.35 L739.1 -383.4 Q752.75 -385.85 763.1 -386.0 768.7 -386.05 771.3 -389.8 773.1 -392.45 773.1 -396.0 773.65 -398.8 771.55 -401.2 769.05 -404.1 763.2 -405.25 L754.1 -406.0 743.2 -405.25 735.0 -403.75 724.85 -401.5 714.7 -404.4 M718.05 -192.35 L707.8 -196.85 624.65 -198.1 Q614.6 -200.95 609.8 -203.95 604.95 -207.0 603.6 -207.35 596.7 -209.35 538.75 -209.35 519.45 -209.35 516.6 -205.65 L515.4 -202.35 Q514.8 -200.35 512.5 -199.35 L490.3 -201.05 485.0 -201.85 423.8 -203.0 Q404.9 -207.5 381.25 -210.8 354.35 -214.55 335.5 -214.75 316.2 -218.5 311.85 -221.25 308.8 -225.25 303.55 -228.65 298.3 -232.05 293.2 -233.3 287.65 -234.7 284.35 -232.9 280.6 -230.85 280.6 -225.0 280.6 -220.4 287.2 -213.85 295.85 -205.25 312.45 -198.15 359.5 -178.1 451.85 -177.5 452.85 -176.5 460.3 -174.85 468.05 -173.1 472.5 -173.1 488.5 -173.1 490.5 -174.6 490.95 -174.95 491.5 -176.55 492.05 -178.1 493.75 -179.35 L515.0 -179.35 Q546.75 -173.3 560.8 -176.9 565.85 -178.2 568.8 -180.8 570.2 -182.05 572.15 -185.0 571.6 -186.15 578.7 -186.6 L585.9 -186.85 Q624.35 -178.1 625.3 -178.1 L702.15 -177.5 Q711.75 -173.25 722.7 -167.7 733.65 -162.15 742.8 -158.1 L812.8 -158.1 Q820.6 -159.95 825.1 -162.35 L831.55 -166.85 892.8 -166.85 Q898.15 -165.5 915.95 -164.5 940.7 -163.1 980.3 -163.1 986.85 -164.25 988.6 -167.95 989.5 -169.85 989.65 -171.85 L1009.65 -172.5 Q1012.7 -169.45 1022.1 -167.45 1042.45 -163.1 1087.8 -163.1 1094.2 -163.1 1097.5 -164.45 1102.5 -166.55 1102.5 -172.15 1102.5 -174.0 1099.55 -176.55 1094.8 -180.7 1084.65 -183.1 L1057.6 -185.2 1030.3 -186.85 1006.6 -189.8 985.3 -191.85 Q928.1 -191.85 923.9 -187.45 923.2 -186.8 923.7 -185.85 L924.75 -184.45 Q925.65 -183.1 920.6 -183.1 L905.0 -184.5 Q894.25 -185.85 890.3 -186.85 L822.8 -186.85 Q818.4 -185.6 730.9 -185.0 728.35 -187.55 718.05 -192.35 M1203.35 -276.75 Q1205.0 -277.95 1205.0 -282.15 1205.0 -284.6 1203.45 -286.9 1201.1 -290.4 1195.6 -291.85 1175.1 -296.35 1136.7 -281.2 1122.6 -275.6 1111.6 -269.5 1101.25 -263.7 1101.25 -261.85 L1100.95 -260.1 Q1100.85 -258.4 1101.55 -257.1 1103.85 -253.1 1114.05 -253.1 1133.7 -253.1 1140.7 -257.95 1142.6 -259.25 1145.4 -262.05 1148.2 -264.45 1151.85 -265.6 1173.95 -272.5 1196.15 -275.05 1201.9 -275.75 1203.35 -276.75 M446.7 -376.3 Q446.0 -375.65 444.9 -375.2 L454.55 -375.2 447.7 -377.5 446.7 -376.3 M423.2 -378.6 L383.1 -377.9 382.4 -376.05 Q381.0 -373.2 375.75 -372.25 L373.25 -372.2 Q372.05 -370.8 369.9 -370.75 L380.75 -369.75 Q392.55 -369.75 400.85 -375.2 L431.85 -375.2 Q428.85 -376.0 425.75 -377.5 L423.2 -378.6 M2355.0 -339.75 Q2355.0 -345.95 2351.0 -353.2 2344.5 -365.05 2330.7 -365.7 L2331.0 -363.75 Q2331.0 -361.0 2329.5 -358.5 2326.85 -354.05 2320.5 -353.25 2323.0 -347.6 2323.0 -338.25 L2337.9 -338.8 2355.0 -339.75 M1899.25 -379.7 L1900.3 -381.75 1847.75 -381.75 Q1843.0 -380.55 1842.4 -378.65 1841.8 -376.55 1840.0 -375.95 L1836.05 -375.2 1890.45 -375.2 1898.25 -375.75 Q1898.25 -377.25 1899.25 -379.7" fill="#796b59" fill-rule="evenodd" stroke="none"/>
  </g>
</svg>
