<?xml version="1.0" encoding="UTF-8" standalone="no"?>
<svg xmlns:ffdec="https://www.free-decompiler.com/flash" xmlns:xlink="http://www.w3.org/1999/xlink" ffdec:objectType="shape" height="769.35px" width="2943.6px" xmlns="http://www.w3.org/2000/svg">
  <g transform="matrix(1.0, 0.0, 0.0, 1.0, -12.9, 843.1)">
    <path d="M2647.65 -413.55 L2656.2 -415.85 Q2667.3 -418.75 2669.0 -418.75 2698.45 -419.95 2704.1 -415.5 2705.55 -414.35 2705.6 -412.3 2705.6 -410.75 2706.75 -410.75 L2709.1 -410.75 2731.6 -412.05 Q2737.05 -412.8 2740.7 -414.0 L2748.4 -416.25 2749.35 -416.4 Q2751.25 -418.4 2755.0 -419.25 L2904.25 -419.75 Q2910.1 -421.2 2926.75 -422.25 2945.1 -424.05 2956.5 -422.7 L2956.5 -399.75 Q2947.85 -394.75 2938.75 -399.5 2941.75 -397.6 2941.75 -395.0 2941.75 -389.75 2932.0 -388.45 2938.75 -388.25 2938.75 -376.0 2938.75 -372.95 2937.65 -368.7 L2935.75 -361.75 2934.75 -360.25 2956.5 -367.05 2956.5 -332.15 Q2928.9 -327.85 2904.75 -319.75 L2848.75 -319.75 Q2840.1 -323.5 2829.45 -327.0 2818.9 -330.3 2814.95 -331.75 2808.55 -334.1 2805.9 -336.5 2802.75 -339.3 2802.75 -343.75 2802.75 -346.15 2803.8 -346.95 2804.8 -347.65 2809.0 -348.6 2824.6 -352.15 2840.3 -357.5 2816.1 -360.5 2795.05 -370.3 2789.8 -372.75 2785.3 -375.35 2776.85 -376.7 2764.65 -383.05 2759.85 -385.45 2755.9 -388.0 L2715.95 -387.45 2715.0 -389.5 Q2710.1 -398.75 2697.5 -398.75 2694.0 -398.75 2690.1 -397.0 2685.95 -395.1 2684.35 -395.0 L2645.0 -391.85 2610.5 -389.55 2606.85 -395.0 Q2625.9 -398.55 2637.8 -405.4 2644.65 -409.35 2647.65 -413.55 M2394.9 -387.9 Q2386.05 -382.05 2370.0 -380.0 2373.9 -377.95 2391.05 -370.0 L2405.25 -363.15 Q2398.4 -359.65 2396.65 -354.0 2396.0 -351.9 2395.65 -346.95 2395.35 -342.6 2394.35 -340.6 L2389.6 -345.25 Q2384.85 -348.75 2378.75 -348.75 L2301.55 -349.35 Q2299.95 -350.15 2293.75 -351.25 L2210.3 -351.85 Q2205.1 -362.25 2198.5 -369.5 2204.4 -366.0 2213.25 -363.4 2229.15 -358.75 2242.15 -358.75 2245.15 -358.75 2256.2 -365.85 L2257.85 -366.9 2277.75 -365.25 2324.35 -361.85 Q2313.2 -369.35 2280.6 -371.0 L2264.55 -371.5 Q2271.55 -376.45 2279.15 -382.45 2310.0 -406.85 2310.0 -415.3 2310.45 -421.8 2306.6 -427.5 L2304.95 -429.6 2357.55 -425.7 2379.8 -423.35 2389.05 -421.85 Q2399.05 -419.7 2402.3 -415.8 2405.0 -412.6 2405.0 -405.0 2405.0 -396.85 2398.6 -390.85 2396.95 -389.25 2394.9 -387.9 M2469.2 -366.25 Q2466.25 -368.1 2462.05 -369.1 2474.45 -373.3 2488.95 -375.75 L2497.9 -372.55 Q2512.25 -367.1 2523.8 -361.7 L2502.5 -361.85 2483.75 -366.25 2469.2 -366.25 M2380.75 -164.4 L2380.8 -158.0 Q2380.8 -146.9 2380.05 -141.1 2379.0 -133.2 2376.1 -127.9 2369.7 -116.35 2348.5 -109.9 2327.2 -103.4 2277.85 -98.05 L2247.35 -95.0 2247.5 -92.5 Q2247.5 -86.55 2243.8 -81.25 2238.6 -73.75 2228.4 -73.75 2198.65 -81.0 2167.55 -88.25 L2144.0 -86.4 1936.0 -86.4 1885.5 -89.4 Q1876.1 -90.3 1863.95 -92.4 L1845.8 -94.7 Q1838.8 -91.25 1828.4 -91.25 L1823.65 -91.25 Q1830.1 -94.05 1833.3 -98.4 1835.55 -101.45 1837.9 -106.8 1840.2 -110.6 1845.3 -110.6 1850.55 -110.6 1852.45 -109.15 L1855.4 -105.9 1856.4 -105.15 1855.6 -103.9 1854.6 -102.3 1863.25 -102.0 1868.75 -102.0 1885.9 -101.25 Q1905.1 -101.25 1915.5 -106.55 L1921.2 -110.2 Q1923.5 -111.85 1924.65 -111.85 1925.4 -111.85 1926.4 -110.95 1927.8 -109.8 1929.65 -109.05 1936.85 -106.25 1957.15 -106.25 1988.8 -106.25 1996.95 -115.85 1999.6 -118.95 2000.7 -124.45 2002.05 -131.05 2002.8 -132.5 L2032.8 -133.1 2035.1 -130.6 Q2036.75 -128.7 2038.7 -127.5 2044.8 -123.75 2058.4 -123.75 2088.75 -123.75 2110.1 -140.2 2125.5 -152.15 2131.55 -167.5 2131.75 -166.3 2133.6 -163.0 2136.1 -158.6 2139.5 -154.9 2149.75 -143.75 2163.4 -143.75 2168.65 -143.75 2175.2 -146.4 2177.95 -147.5 2187.3 -152.15 L2191.5 -154.15 Q2198.85 -150.45 2203.1 -146.45 2213.75 -136.4 2206.55 -122.5 L2213.85 -119.85 2220.4 -122.75 Q2240.5 -132.4 2240.5 -138.0 2240.5 -142.3 2228.95 -147.2 2217.35 -152.1 2201.4 -154.55 L2194.4 -155.4 Q2206.8 -160.6 2216.55 -160.6 2219.9 -160.6 2222.55 -159.15 L2227.7 -155.9 Q2236.0 -151.25 2253.4 -151.25 2268.25 -151.25 2281.3 -156.0 L2290.8 -159.4 Q2296.1 -161.05 2301.25 -161.25 L2377.05 -164.25 2380.75 -164.4 M1708.35 -98.4 L1621.6 -98.4 1609.6 -96.0 1279.2 -95.2 1267.2 -92.8 889.6 -92.8 876.8 -95.2 620.0 -95.2 608.0 -92.8 488.8 -92.0 440.35 -90.3 393.25 -86.15 Q327.2 -80.0 270.4 -80.0 241.05 -80.0 232.85 -100.05 228.7 -110.2 230.4 -121.6 L232.0 -155.5 233.1 -180.3 252.5 -180.3 257.65 -180.1 Q260.05 -179.05 261.85 -179.05 266.2 -179.05 269.35 -180.25 274.35 -182.15 287.5 -184.05 L317.65 -187.4 Q320.8 -187.7 321.55 -188.35 322.15 -188.9 322.15 -191.05 L322.15 -191.45 Q325.2 -192.2 327.85 -193.35 333.15 -195.65 338.8 -200.75 345.45 -206.75 347.7 -208.15 353.2 -211.5 360.5 -211.5 363.65 -211.5 363.15 -211.0 L362.0 -210.5 Q362.0 -194.3 376.0 -190.0 L498.0 -189.5 Q498.4 -188.35 500.6 -187.8 L506.15 -186.7 Q515.65 -184.35 524.0 -176.0 L531.55 -167.35 Q539.1 -160.0 546.0 -160.0 557.75 -160.0 568.2 -169.1 577.8 -177.5 578.0 -185.0 585.7 -185.95 588.2 -184.25 589.8 -183.15 591.55 -179.6 597.1 -172.0 627.0 -172.0 650.7 -172.0 657.0 -175.1 659.45 -176.3 659.9 -178.2 L660.0 -181.75 659.3 -185.55 Q659.2 -188.6 662.0 -187.5 676.4 -183.65 692.2 -177.0 L704.3 -171.8 696.2 -171.7 Q687.9 -171.4 684.0 -170.1 679.75 -168.65 678.1 -165.15 676.55 -161.85 676.55 -155.0 676.55 -146.65 682.2 -141.9 691.8 -133.75 717.8 -133.75 740.3 -133.75 774.8 -144.85 778.5 -144.0 781.0 -144.0 792.55 -144.0 799.05 -145.7 803.2 -146.8 807.45 -149.5 811.95 -152.35 815.05 -153.3 817.85 -154.15 821.8 -154.55 L822.65 -152.8 Q827.5 -146.25 851.55 -146.25 861.65 -146.25 869.25 -147.85 L875.9 -144.5 Q885.45 -139.55 897.25 -137.3 914.45 -134.0 944.25 -134.0 950.05 -134.0 955.05 -135.55 L980.3 -133.75 Q1009.85 -133.75 1026.6 -141.95 1041.55 -149.25 1041.55 -160.0 L1041.65 -162.75 1061.25 -163.0 Q1110.0 -163.0 1140.3 -161.05 1146.2 -161.0 1146.7 -162.8 1147.05 -164.1 1146.25 -170.0 1146.25 -174.25 1144.85 -175.85 1142.5 -178.6 1134.4 -180.15 1115.65 -183.7 1048.25 -183.0 L1008.15 -179.95 994.25 -178.0 977.7 -175.95 971.5 -174.8 Q969.3 -177.8 967.8 -178.9 959.15 -185.3 931.55 -182.5 927.4 -186.6 911.0 -191.6 895.6 -196.25 889.05 -196.25 882.05 -196.25 877.35 -194.4 875.0 -193.45 870.35 -190.3 866.1 -187.45 862.2 -186.2 856.3 -184.35 847.15 -184.35 840.2 -188.5 829.3 -191.2 807.45 -196.55 786.55 -189.35 772.85 -184.8 753.65 -179.55 L750.2 -178.6 746.35 -179.65 740.95 -181.45 Q732.35 -184.7 719.3 -191.5 703.75 -199.6 692.7 -202.85 675.0 -208.0 651.0 -208.0 629.35 -208.0 621.85 -202.1 617.65 -198.8 618.0 -193.0 L609.0 -193.0 Q605.65 -196.35 605.0 -199.8 L604.05 -203.7 Q602.95 -205.1 597.6 -205.55 592.25 -206.0 577.0 -206.0 523.4 -206.0 519.45 -206.2 L510.35 -207.35 496.0 -210.0 383.0 -210.5 Q382.55 -211.7 382.3 -216.6 382.05 -221.1 380.65 -223.7 376.05 -232.0 355.0 -232.0 345.4 -232.0 338.15 -228.65 333.2 -226.35 327.45 -221.25 320.6 -215.2 318.5 -213.85 314.0 -210.95 308.75 -210.55 307.25 -208.35 302.25 -207.45 290.3 -205.95 280.0 -203.9 L259.45 -201.6 233.6 -198.8 233.6 -203.2 233.6 -209.65 231.85 -209.35 228.35 -209.65 227.15 -210.0 Q225.65 -219.35 220.4 -223.05 L217.05 -225.25 Q215.6 -226.4 215.6 -228.25 215.6 -232.85 219.7 -237.45 224.2 -242.5 230.0 -242.5 230.5 -241.0 230.4 -238.85 230.35 -236.6 229.65 -235.9 L233.6 -236.6 233.6 -324.75 252.5 -323.75 Q275.0 -323.75 290.95 -329.35 L298.75 -328.75 Q329.25 -328.75 343.75 -334.3 348.3 -336.05 351.5 -338.4 L416.0 -350.5 Q469.45 -360.6 475.6 -360.6 477.15 -360.6 478.2 -359.55 479.8 -357.9 481.25 -357.15 488.1 -353.75 511.25 -353.75 528.65 -353.75 536.7 -355.6 542.35 -356.9 544.95 -359.65 548.15 -363.1 549.6 -363.75 553.7 -365.6 564.35 -365.6 L574.7 -364.5 603.75 -362.5 Q608.95 -357.9 626.55 -352.1 642.4 -346.85 646.55 -346.85 664.95 -346.05 685.85 -342.2 704.8 -338.75 715.3 -338.75 740.35 -338.75 751.95 -347.95 761.95 -355.9 759.05 -367.5 L827.8 -368.75 858.5 -375.3 Q879.9 -380.0 887.8 -380.0 900.9 -380.0 906.35 -378.65 908.95 -378.0 912.55 -375.6 915.7 -373.55 921.35 -372.6 929.75 -371.25 947.8 -371.25 976.8 -371.25 985.3 -378.75 988.3 -381.4 988.95 -385.2 L989.05 -390.9 Q988.8 -393.6 988.2 -396.2 L1008.35 -395.85 Q1021.05 -395.6 1028.95 -396.0 1050.8 -397.1 1080.9 -405.6 L1165.0 -405.6 Q1184.4 -399.6 1206.8 -396.85 1232.1 -393.75 1268.1 -393.75 L1317.5 -395.3 Q1322.65 -395.85 1332.8 -398.35 1339.95 -400.1 1355.15 -400.35 1376.3 -400.65 1425.6 -398.75 1431.7 -398.6 1454.65 -407.65 1477.8 -416.85 1486.25 -416.85 1489.75 -416.85 1495.25 -414.75 1502.45 -411.95 1505.6 -411.25 L1655.6 -411.25 Q1687.15 -412.15 1700.85 -418.8 1707.85 -413.75 1721.85 -413.75 L1749.9 -415.45 Q1773.5 -417.25 1776.55 -418.1 L1905.3 -418.1 Q1907.05 -417.25 1913.4 -416.25 L2009.65 -415.6 Q2009.65 -409.25 2009.8 -407.45 2010.1 -402.6 2011.55 -399.35 2013.25 -395.6 2012.0 -390.9 2011.5 -389.1 2011.7 -388.45 2011.9 -387.45 2013.6 -386.9 2016.95 -385.8 2032.15 -385.5 L2083.4 -385.0 2085.1 -381.25 Q2086.35 -379.05 2088.45 -377.6 2094.2 -373.75 2109.65 -373.75 L2132.65 -374.95 2129.55 -372.4 Q2119.65 -363.55 2119.65 -355.0 2119.65 -346.95 2125.15 -342.6 2137.1 -333.2 2172.15 -335.6 2174.15 -326.65 2191.2 -319.65 2202.35 -315.0 2210.9 -313.75 L2290.3 -313.1 Q2291.85 -312.35 2298.75 -311.25 L2367.5 -310.0 Q2369.6 -309.2 2377.6 -303.45 L2377.6 -203.4 Q2322.9 -202.15 2294.0 -196.55 L2273.25 -191.6 Q2264.2 -189.35 2255.9 -189.35 2250.2 -189.35 2246.65 -190.8 L2241.1 -194.05 Q2233.55 -198.75 2217.15 -198.75 2210.5 -198.75 2188.85 -194.65 L2165.9 -190.6 Q2163.15 -195.8 2156.55 -200.2 2147.4 -206.25 2135.9 -206.25 2118.45 -206.25 2108.3 -199.4 2101.75 -195.0 2095.05 -184.35 2087.95 -173.0 2083.35 -169.35 2074.9 -162.5 2060.3 -162.5 2057.45 -162.5 2055.3 -163.85 L2050.5 -166.85 Q2041.2 -171.25 2014.65 -171.25 1976.15 -171.25 1969.25 -162.8 1967.0 -160.05 1966.75 -154.35 1966.4 -147.6 1965.3 -145.0 L1947.8 -144.35 Q1945.95 -148.3 1941.05 -149.8 1936.35 -151.25 1925.9 -151.25 1913.0 -151.25 1905.05 -147.5 1900.95 -145.6 1894.65 -140.0 L1876.55 -139.35 Q1868.9 -143.2 1865.2 -144.5 1853.6 -148.75 1842.15 -148.75 1824.4 -148.75 1817.8 -142.05 1816.05 -140.25 1812.2 -134.5 1808.35 -128.75 1804.65 -125.0 L1777.8 -124.35 Q1774.75 -125.05 1774.0 -126.6 1773.05 -128.6 1772.1 -129.15 1767.05 -132.05 1735.0 -131.85 1706.1 -151.0 1626.45 -153.05 1601.55 -153.7 1574.35 -152.55 L1551.85 -151.25 1528.0 -148.45 1518.0 -147.15 Q1504.25 -156.25 1479.35 -156.25 1459.15 -156.25 1448.0 -151.55 1441.9 -149.0 1439.25 -148.3 1433.4 -146.85 1424.35 -146.85 1387.15 -146.85 1355.65 -151.55 1348.15 -152.65 1318.15 -158.75 1311.35 -160.15 1308.15 -160.15 L1306.2 -160.0 1304.2 -163.3 1298.95 -175.3 Q1295.2 -182.7 1289.5 -186.4 1281.95 -191.25 1269.35 -191.25 1262.55 -191.25 1239.9 -181.15 1216.85 -170.9 1211.85 -170.6 1157.9 -167.5 1142.15 -158.45 1136.15 -155.0 1134.65 -150.15 1134.05 -148.25 1134.05 -141.85 1134.05 -135.9 1136.6 -130.7 1141.3 -121.25 1152.8 -121.25 1202.85 -121.25 1222.25 -131.55 1227.1 -134.1 1233.3 -138.65 1238.75 -141.85 1246.25 -141.85 1246.7 -141.85 1272.15 -129.35 1299.5 -116.85 1309.35 -116.85 L1335.15 -115.9 Q1352.95 -111.85 1379.05 -110.05 L1384.15 -108.35 Q1395.45 -103.85 1397.1 -103.45 1405.8 -101.25 1423.1 -101.25 L1445.3 -103.15 1503.1 -106.25 1508.45 -107.1 Q1511.45 -106.25 1513.1 -106.25 1519.55 -106.25 1524.05 -109.8 1544.05 -113.1 1550.6 -113.1 L1562.4 -111.9 1573.75 -110.0 1606.8 -107.65 1639.35 -106.25 1655.85 -107.15 Q1674.15 -108.1 1701.85 -108.1 1702.35 -107.6 1704.1 -103.55 1705.5 -100.4 1708.35 -98.4 M348.9 -379.15 L347.5 -379.65 328.75 -379.65 324.65 -378.75 297.7 -378.75 Q305.55 -379.05 309.3 -381.0 312.15 -382.5 312.15 -384.8 312.15 -386.0 311.35 -387.15 310.15 -388.95 307.5 -389.65 L263.75 -389.65 Q260.8 -390.2 257.3 -386.7 254.05 -383.4 254.05 -380.9 254.05 -379.3 254.6 -378.05 L232.35 -379.0 Q232.45 -396.2 232.9 -400.95 233.95 -412.8 237.8 -418.4 239.9 -424.6 246.35 -425.15 249.65 -425.45 255.2 -424.15 259.85 -423.8 265.7 -422.45 280.0 -419.1 315.9 -405.9 322.5 -406.65 328.2 -406.0 L328.25 -406.0 340.45 -406.9 Q346.05 -407.55 356.7 -409.5 377.2 -413.25 402.75 -413.25 L409.6 -412.95 Q409.0 -411.5 409.0 -409.75 409.0 -403.05 410.0 -399.25 411.7 -392.85 415.85 -390.85 L406.85 -389.45 Q367.95 -383.3 348.9 -379.15 M444.95 -395.25 L445.5 -395.5 Q449.9 -397.55 452.65 -399.55 L458.4 -397.1 444.95 -395.25 M494.45 -396.75 L495.75 -397.25 508.6 -397.25 524.95 -398.65 523.65 -397.8 Q519.1 -394.25 517.85 -393.7 513.55 -391.85 504.35 -391.85 502.8 -391.85 501.45 -392.95 L498.1 -395.3 494.45 -396.75 M942.8 -410.0 Q943.6 -412.2 944.95 -414.1 L946.6 -416.0 946.55 -415.0 Q946.2 -413.85 946.35 -412.05 L946.75 -410.0 942.8 -410.0 M1704.5 -448.75 L1708.1 -448.75 1705.75 -448.0 1705.7 -447.95 1704.5 -448.75 M2113.5 -438.75 L2118.4 -438.75 Q2127.6 -438.3 2132.95 -431.45 2135.6 -428.05 2136.6 -424.4 2126.05 -425.0 2120.4 -422.55 2122.2 -426.6 2120.4 -430.85 2118.6 -435.05 2113.5 -438.75 M2234.1 -424.75 Q2235.0 -426.75 2236.4 -428.7 2241.15 -435.3 2249.2 -438.6 2262.85 -444.2 2280.6 -438.65 L2277.15 -438.75 Q2267.0 -438.75 2260.5 -436.2 2255.85 -434.35 2251.7 -430.4 L2245.0 -424.25 2244.65 -424.0 2234.1 -424.75 M2886.7 -391.0 L2883.9 -392.45 Q2878.65 -391.0 2863.6 -391.0 2851.2 -391.0 2838.0 -393.25 L2822.1 -395.5 Q2819.9 -395.5 2820.15 -394.95 L2820.65 -393.65 Q2819.85 -391.55 2801.1 -390.75 L2791.55 -389.85 2785.55 -389.25 2799.5 -386.3 Q2819.05 -381.75 2832.05 -379.7 2854.0 -376.25 2874.75 -376.25 2885.5 -376.25 2891.25 -378.6 2895.05 -380.15 2898.3 -383.75 2900.8 -386.6 2902.7 -388.0 L2893.6 -388.0 Q2892.15 -388.05 2886.7 -391.0 M2923.9 -385.55 Q2927.1 -387.6 2929.7 -388.2 L2924.75 -388.0 2922.85 -388.0 2923.2 -387.3 2923.9 -385.55 M14.2 -839.15 Q14.4 -832.05 12.9 -827.2 L13.2 -831.1 14.05 -843.1 14.2 -839.15 M2432.95 -311.1 Q2435.0 -317.25 2435.0 -327.5 L2454.35 -327.8 2453.65 -327.0 Q2450.75 -323.55 2446.15 -320.3 2443.9 -318.75 2441.7 -317.5 2439.35 -314.4 2435.35 -312.25 L2432.95 -311.1 M261.55 -203.4 L261.4 -203.3 261.65 -203.2 261.55 -203.4 M2127.0 -414.4 L2120.9 -413.75 Q2117.15 -413.75 2117.15 -415.25 L2117.4 -416.65 Q2117.55 -417.55 2117.15 -418.1 L2117.55 -418.45 2117.8 -416.85 Q2120.15 -416.0 2127.0 -414.4 M2187.15 -383.1 Q2187.8 -380.05 2189.65 -377.3 2186.6 -379.45 2183.35 -381.05 2180.95 -382.25 2178.5 -383.1 L2187.15 -383.1 M2032.05 -116.8 L2032.2 -117.1 Q2018.2 -119.35 2012.15 -119.35 2009.15 -119.35 2009.05 -116.5 2008.95 -112.1 2008.1 -110.45 2019.8 -111.05 2025.95 -112.95 2030.8 -114.45 2032.05 -116.8 M1575.0 -207.5 Q1574.35 -206.25 1574.35 -200.0 1574.35 -195.7 1576.05 -193.75 1577.3 -192.35 1580.6 -191.25 L1704.35 -190.0 1705.15 -189.35 1710.6 -188.75 Q1714.35 -188.75 1716.05 -190.85 1717.1 -192.15 1719.35 -196.25 1716.95 -199.85 1705.6 -203.75 L1589.35 -204.35 Q1585.2 -208.6 1575.0 -207.5" fill="#796b59" fill-rule="evenodd" stroke="none"/>
    <path d="M2647.65 -413.55 Q2644.65 -409.35 2637.8 -405.4 2625.9 -398.55 2606.85 -395.0 L2610.5 -389.55 2611.65 -387.95 Q2615.0 -383.0 2615.0 -381.85 2615.0 -378.15 2614.6 -377.25 L2613.75 -375.0 2611.25 -374.35 2605.0 -373.75 2582.8 -375.6 2579.95 -375.8 Q2579.8 -371.95 2579.4 -370.65 2578.0 -366.25 2572.5 -366.25 2568.95 -366.25 2564.2 -376.75 2548.15 -377.5 2530.6 -377.5 L2530.3 -378.45 Q2530.0 -380.15 2530.0 -384.05 2530.0 -385.45 2530.3 -386.8 2511.75 -383.7 2496.25 -378.75 L2426.25 -378.75 Q2414.4 -382.95 2400.45 -386.5 L2394.9 -387.9 Q2396.95 -389.25 2398.6 -390.85 2405.0 -396.85 2405.0 -405.0 2405.0 -412.6 2402.3 -415.8 2399.05 -419.7 2389.05 -421.85 L2379.8 -423.35 Q2385.7 -426.25 2395.0 -426.25 2403.95 -426.25 2416.35 -422.55 2425.7 -419.8 2430.0 -417.5 L2435.55 -417.45 2490.35 -416.9 2495.0 -416.85 Q2502.75 -417.2 2520.8 -427.15 L2533.0 -433.7 Q2538.9 -436.55 2541.25 -436.25 L2608.75 -436.25 Q2619.45 -433.8 2624.2 -427.0 2627.05 -422.95 2627.45 -418.1 2638.85 -421.3 2648.75 -425.0 2648.75 -424.6 2649.4 -424.3 2650.0 -423.95 2650.0 -420.3 2650.0 -416.85 2647.65 -413.55 M1440.8 -446.1 Q1439.1 -448.25 1436.85 -455.0 1459.85 -470.1 1469.55 -470.55 L1469.35 -473.1 Q1469.35 -477.45 1475.6 -478.85 1481.3 -480.1 1490.45 -478.6 1499.35 -477.15 1507.85 -473.75 L1508.8 -473.35 Q1508.05 -478.8 1507.7 -479.8 1505.65 -485.4 1498.55 -489.65 L1498.55 -491.15 Q1494.55 -493.6 1493.55 -495.0 L1493.75 -496.4 Q1494.1 -497.15 1495.15 -497.8 L1498.6 -494.55 1500.05 -493.45 1502.0 -493.75 Q1503.35 -493.75 1504.7 -492.65 L1504.75 -493.1 1504.8 -496.25 Q1504.8 -499.95 1494.25 -512.7 L1493.75 -513.3 1486.7 -513.75 Q1483.2 -514.85 1483.3 -516.55 L1483.65 -517.95 Q1483.85 -518.8 1483.55 -519.35 1485.35 -520.1 1487.95 -518.1 L1489.9 -518.0 Q1482.7 -526.8 1482.3 -527.8 1490.45 -530.95 1505.45 -513.45 L1512.15 -504.8 1514.8 -507.6 1515.85 -508.45 1516.05 -508.9 Q1517.3 -511.05 1517.3 -512.65 1517.3 -516.85 1509.8 -533.3 L1501.05 -551.55 1501.7 -552.5 Q1504.0 -552.3 1506.55 -548.85 L1510.45 -543.1 1511.05 -543.1 1511.25 -558.25 Q1511.6 -566.35 1512.65 -571.55 L1515.45 -571.25 Q1515.45 -568.1 1514.85 -560.9 L1514.2 -552.5 Q1514.2 -540.7 1519.2 -531.7 L1522.65 -524.85 Q1524.1 -521.0 1524.2 -516.15 1530.3 -520.65 1531.05 -522.8 1535.0 -533.65 1539.5 -535.0 L1540.0 -535.25 Q1540.45 -535.05 1540.45 -533.1 1540.45 -530.05 1537.9 -523.75 1535.0 -516.7 1532.0 -514.65 L1531.7 -514.35 Q1542.0 -513.75 1542.95 -512.8 L1542.3 -510.9 1530.45 -510.3 Q1530.75 -507.85 1529.95 -506.6 L1528.7 -505.45 Q1529.35 -503.75 1528.65 -503.0 L1526.4 -501.7 Q1525.0 -500.85 1525.0 -499.35 1525.0 -497.2 1530.55 -488.3 1531.9 -490.75 1534.25 -494.0 1540.2 -502.25 1543.25 -502.5 L1544.1 -501.2 1544.2 -498.25 Q1544.2 -496.3 1543.25 -494.15 L1541.4 -490.3 Q1540.45 -489.65 1540.45 -489.35 1545.1 -489.75 1547.75 -491.3 L1552.65 -494.05 1554.3 -493.8 Q1556.1 -493.4 1556.7 -492.8 1555.35 -490.75 1547.75 -487.85 1540.6 -485.15 1539.5 -482.5 L1539.4 -481.2 1540.6 -481.25 Q1545.95 -481.25 1551.7 -475.75 L1553.1 -476.25 Q1557.55 -475.15 1558.1 -474.65 1559.35 -473.6 1559.35 -469.35 1559.35 -467.65 1558.9 -466.55 L1564.35 -457.5 1573.8 -456.75 1593.1 -458.75 Q1594.7 -458.1 1597.4 -457.65 1599.35 -456.75 1599.35 -452.8 L1599.3 -451.7 1656.85 -452.5 1664.2 -453.35 1676.4 -453.65 1681.9 -453.7 1693.1 -453.75 1697.4 -452.65 Q1698.25 -452.25 1698.75 -451.3 1699.35 -450.05 1699.35 -447.8 1699.35 -443.75 1697.15 -442.4 L1693.1 -441.25 Q1673.75 -440.0 1670.6 -438.75 L1639.25 -438.75 Q1638.9 -435.95 1637.15 -434.9 1636.7 -434.6 1633.1 -433.75 L1540.6 -433.75 1532.65 -434.55 1488.3 -436.25 1488.5 -435.6 Q1489.5 -432.25 1488.75 -430.0 L1487.8 -427.4 Q1487.0 -426.25 1483.1 -426.25 1476.2 -426.25 1467.85 -433.55 1464.75 -436.25 1459.35 -442.5 1454.1 -448.05 1450.2 -448.25 1448.0 -448.4 1445.05 -446.25 1442.65 -444.55 1441.4 -445.5 L1440.8 -446.1 M2136.6 -424.4 Q2146.25 -423.9 2160.1 -420.85 L2173.75 -417.65 2186.6 -414.55 Q2200.95 -411.25 2207.5 -411.25 2213.0 -411.25 2213.45 -414.3 L2213.45 -417.3 2213.55 -418.8 2213.95 -420.4 Q2216.15 -425.4 2234.1 -424.75 L2244.65 -424.0 2257.15 -422.5 Q2260.15 -425.4 2263.4 -426.25 L2286.25 -426.25 Q2290.35 -424.4 2292.5 -421.25 2290.85 -419.95 2290.45 -416.95 2290.05 -414.15 2287.7 -412.85 2280.05 -408.5 2236.55 -407.5 L2265.9 -406.25 Q2269.85 -404.7 2272.15 -401.25 2265.7 -393.45 2250.65 -382.7 2234.55 -371.25 2228.4 -371.25 L2222.0 -371.85 2220.3 -372.5 2220.0 -373.45 Q2219.65 -375.15 2219.65 -379.05 2219.65 -382.85 2221.7 -384.9 L2224.65 -387.5 Q2217.15 -395.0 2171.8 -405.0 2140.55 -411.2 2127.0 -414.4 2120.15 -416.0 2117.8 -416.85 L2117.55 -418.45 2117.15 -420.6 Q2118.5 -421.75 2120.4 -422.55 2126.05 -425.0 2136.6 -424.4 M2004.45 -448.95 Q2003.7 -449.9 2004.15 -450.05 L2043.4 -451.25 Q2045.0 -450.6 2047.7 -450.15 2049.65 -449.25 2049.65 -445.3 2049.65 -441.25 2047.45 -439.9 L2043.4 -438.75 2008.4 -438.75 Q2005.65 -439.65 2003.85 -442.2 2002.15 -444.65 2002.15 -447.5 2005.05 -448.1 2004.45 -448.95" fill="#000000" fill-rule="evenodd" stroke="none"/>
    <path d="M2405.25 -363.15 Q2408.8 -365.0 2413.75 -366.25 L2469.2 -366.25 2483.75 -366.25 2502.5 -361.85 2523.8 -361.7 2616.25 -361.25 Q2654.1 -349.0 2668.95 -335.65 2682.5 -323.45 2682.5 -304.65 2682.5 -301.5 2679.4 -296.7 2676.25 -291.85 2676.25 -288.75 2676.25 -285.6 2679.4 -279.35 2682.5 -273.1 2682.5 -270.0 2682.5 -256.9 2677.8 -247.15 2674.4 -240.1 2666.6 -231.75 2655.25 -219.65 2653.35 -217.25 2646.05 -207.85 2642.5 -196.85 2641.85 -194.7 2643.95 -188.65 2645.75 -183.4 2643.55 -180.35 2636.5 -170.7 2580.6 -165.0 2529.0 -159.55 2511.15 -153.0 2504.2 -150.45 2500.0 -149.85 L2473.75 -148.75 Q2462.25 -148.75 2454.35 -151.4 2449.55 -153.0 2442.75 -157.15 2435.85 -161.4 2431.3 -162.95 2423.6 -165.6 2412.5 -165.6 L2380.75 -164.4 2377.05 -164.25 2301.25 -161.25 Q2296.1 -161.05 2290.8 -159.4 L2281.3 -156.0 Q2268.25 -151.25 2253.4 -151.25 2236.0 -151.25 2227.7 -155.9 L2222.55 -159.15 Q2219.9 -160.6 2216.55 -160.6 2206.8 -160.6 2194.4 -155.4 L2191.5 -154.15 2187.3 -152.15 Q2177.95 -147.5 2175.2 -146.4 2168.65 -143.75 2163.4 -143.75 2149.75 -143.75 2139.5 -154.9 2136.1 -158.6 2133.6 -163.0 2131.75 -166.3 2131.55 -167.5 2125.5 -152.15 2110.1 -140.2 2088.75 -123.75 2058.4 -123.75 2044.8 -123.75 2038.7 -127.5 2036.75 -128.7 2035.1 -130.6 L2032.8 -133.1 2002.8 -132.5 Q2002.05 -131.05 2000.7 -124.45 1999.6 -118.95 1996.95 -115.85 1988.8 -106.25 1957.15 -106.25 1936.85 -106.25 1929.65 -109.05 1927.8 -109.8 1926.4 -110.95 1925.4 -111.85 1924.65 -111.85 1923.5 -111.85 1921.2 -110.2 L1915.5 -106.55 Q1905.1 -101.25 1885.9 -101.25 L1868.75 -102.0 Q1859.9 -103.0 1856.4 -105.15 L1855.4 -105.9 1852.45 -109.15 Q1850.55 -110.6 1845.3 -110.6 1840.2 -110.6 1837.9 -106.8 1835.55 -101.45 1833.3 -98.4 1830.1 -94.05 1823.65 -91.25 1811.95 -86.25 1789.65 -86.25 1764.4 -86.25 1759.5 -87.8 1757.55 -88.4 1756.45 -89.9 L1753.75 -93.1 Q1719.1 -91.5 1708.85 -98.05 L1708.35 -98.4 Q1705.5 -100.4 1704.1 -103.55 1702.35 -107.6 1701.85 -108.1 1674.15 -108.1 1655.85 -107.15 L1639.35 -106.25 1606.8 -107.65 1573.75 -110.0 1562.4 -111.9 1550.6 -113.1 Q1544.05 -113.1 1524.05 -109.8 1519.55 -106.25 1513.1 -106.25 1511.45 -106.25 1508.45 -107.1 L1503.1 -106.25 1445.3 -103.15 1423.1 -101.25 Q1405.8 -101.25 1397.1 -103.45 1395.45 -103.85 1384.15 -108.35 L1379.05 -110.05 Q1352.95 -111.85 1335.15 -115.9 L1309.35 -116.85 Q1299.5 -116.85 1272.15 -129.35 1246.7 -141.85 1246.25 -141.85 1238.75 -141.85 1233.3 -138.65 1227.1 -134.1 1222.25 -131.55 1202.85 -121.25 1152.8 -121.25 1141.3 -121.25 1136.6 -130.7 1134.05 -135.9 1134.05 -141.85 1134.05 -148.25 1134.65 -150.15 1136.15 -155.0 1142.15 -158.45 1157.9 -167.5 1211.85 -170.6 1216.85 -170.9 1239.9 -181.15 1262.55 -191.25 1269.35 -191.25 1281.95 -191.25 1289.5 -186.4 1295.2 -182.7 1298.95 -175.3 L1304.2 -163.3 1306.2 -160.0 1308.15 -160.15 Q1311.35 -160.15 1318.15 -158.75 1348.15 -152.65 1355.65 -151.55 1387.15 -146.85 1424.35 -146.85 1433.4 -146.85 1439.25 -148.3 1441.9 -149.0 1448.0 -151.55 1459.15 -156.25 1479.35 -156.25 1504.25 -156.25 1518.0 -147.15 L1528.0 -148.45 1551.85 -151.25 1574.35 -152.55 Q1601.55 -153.7 1626.45 -153.05 1706.1 -151.0 1735.0 -131.85 1767.05 -132.05 1772.1 -129.15 1773.05 -128.6 1774.0 -126.6 1774.75 -125.05 1777.8 -124.35 L1804.65 -125.0 Q1808.35 -128.75 1812.2 -134.5 1816.05 -140.25 1817.8 -142.05 1824.4 -148.75 1842.15 -148.75 1853.6 -148.75 1865.2 -144.5 1868.9 -143.2 1876.55 -139.35 L1894.65 -140.0 Q1900.95 -145.6 1905.05 -147.5 1913.0 -151.25 1925.9 -151.25 1936.35 -151.25 1941.05 -149.8 1945.95 -148.3 1947.8 -144.35 L1965.3 -145.0 Q1966.4 -147.6 1966.75 -154.35 1967.0 -160.05 1969.25 -162.8 1976.15 -171.25 2014.65 -171.25 2041.2 -171.25 2050.5 -166.85 L2055.3 -163.85 Q2057.45 -162.5 2060.3 -162.5 2074.9 -162.5 2083.35 -169.35 2087.95 -173.0 2095.05 -184.35 2101.75 -195.0 2108.3 -199.4 2118.45 -206.25 2135.9 -206.25 2147.4 -206.25 2156.55 -200.2 2163.15 -195.8 2165.9 -190.6 L2188.85 -194.65 Q2210.5 -198.75 2217.15 -198.75 2233.55 -198.75 2241.1 -194.05 L2246.65 -190.8 Q2250.2 -189.35 2255.9 -189.35 2264.2 -189.35 2273.25 -191.6 L2294.0 -196.55 Q2322.9 -202.15 2377.6 -203.4 2393.35 -203.75 2411.25 -203.75 2439.3 -203.75 2456.1 -195.3 L2467.35 -189.5 Q2473.5 -186.85 2480.6 -186.85 2483.1 -186.85 2487.95 -189.5 2496.0 -193.85 2499.7 -195.45 2520.05 -204.25 2552.5 -205.0 2554.6 -207.1 2578.1 -216.8 2600.4 -226.0 2602.5 -230.0 2604.85 -234.35 2614.6 -245.1 2624.0 -255.5 2628.1 -263.75 2623.1 -269.2 2613.5 -277.1 2599.05 -288.9 2597.75 -290.1 2580.0 -305.65 2580.0 -318.1 L2521.4 -315.45 2497.5 -313.75 Q2477.75 -313.75 2472.9 -319.5 2471.35 -321.35 2471.05 -324.3 L2470.6 -328.1 2454.35 -327.8 2435.0 -327.5 Q2435.0 -317.25 2432.95 -311.1 L2432.3 -309.45 Q2425.65 -293.75 2405.0 -293.75 2392.9 -293.75 2380.75 -301.15 L2377.6 -303.45 Q2369.6 -309.2 2367.5 -310.0 L2298.75 -311.25 Q2291.85 -312.35 2290.3 -313.1 L2210.9 -313.75 Q2202.35 -315.0 2191.2 -319.65 2174.15 -326.65 2172.15 -335.6 2137.1 -333.2 2125.15 -342.6 2119.65 -346.95 2119.65 -355.0 2119.65 -363.55 2129.55 -372.4 L2132.65 -374.95 2109.65 -373.75 Q2094.2 -373.75 2088.45 -377.6 2086.35 -379.05 2085.1 -381.25 L2083.4 -385.0 2032.15 -385.5 Q2016.95 -385.8 2013.6 -386.9 2011.9 -387.45 2011.7 -388.45 2011.5 -389.1 2012.0 -390.9 2013.25 -395.6 2011.55 -399.35 2010.1 -402.6 2009.8 -407.45 2009.65 -409.25 2009.65 -415.6 L1913.4 -416.25 Q1907.05 -417.25 1905.3 -418.1 L1776.55 -418.1 Q1773.5 -417.25 1749.9 -415.45 L1721.85 -413.75 Q1707.85 -413.75 1700.85 -418.8 1687.15 -412.15 1655.6 -411.25 L1505.6 -411.25 Q1502.45 -411.95 1495.25 -414.75 1489.75 -416.85 1486.25 -416.85 1477.8 -416.85 1454.65 -407.65 1431.7 -398.6 1425.6 -398.75 1376.3 -400.65 1355.15 -400.35 1339.95 -400.1 1332.8 -398.35 1322.65 -395.85 1317.5 -395.3 L1268.1 -393.75 Q1232.1 -393.75 1206.8 -396.85 1184.4 -399.6 1165.0 -405.6 L1080.9 -405.6 Q1050.8 -397.1 1028.95 -396.0 1021.05 -395.6 1008.35 -395.85 L988.2 -396.2 Q988.8 -393.6 989.05 -390.9 L988.95 -385.2 Q988.3 -381.4 985.3 -378.75 976.8 -371.25 947.8 -371.25 929.75 -371.25 921.35 -372.6 915.7 -373.55 912.55 -375.6 908.95 -378.0 906.35 -378.65 900.9 -380.0 887.8 -380.0 879.9 -380.0 858.5 -375.3 L827.8 -368.75 759.05 -367.5 Q761.95 -355.9 751.95 -347.95 740.35 -338.75 715.3 -338.75 704.8 -338.75 685.85 -342.2 664.95 -346.05 646.55 -346.85 642.4 -346.85 626.55 -352.1 608.95 -357.9 603.75 -362.5 L574.7 -364.5 564.35 -365.6 Q553.7 -365.6 549.6 -363.75 548.15 -363.1 544.95 -359.65 542.35 -356.9 536.7 -355.6 528.65 -353.75 511.25 -353.75 488.1 -353.75 481.25 -357.15 479.8 -357.9 478.2 -359.55 477.15 -360.6 475.6 -360.6 469.45 -360.6 416.0 -350.5 L351.5 -338.4 Q348.3 -336.05 343.75 -334.3 329.25 -328.75 298.75 -328.75 L290.95 -329.35 Q275.0 -323.75 252.5 -323.75 L233.6 -324.75 Q215.15 -326.95 208.75 -334.15 204.05 -339.45 206.25 -345.3 206.25 -358.65 215.65 -361.3 L216.8 -361.55 Q217.15 -363.6 217.85 -365.0 219.5 -368.5 223.65 -370.0 227.45 -371.35 235.2 -371.7 L254.05 -371.85 262.95 -372.55 270.0 -373.75 294.6 -374.2 300.05 -376.3 Q310.65 -379.8 314.35 -376.6 L315.9 -374.65 333.1 -375.0 Q337.45 -376.7 348.9 -379.15 367.95 -383.3 406.85 -389.45 L415.85 -390.85 444.95 -395.25 458.4 -397.1 475.0 -398.75 Q487.7 -398.75 494.45 -396.75 L498.1 -395.3 501.45 -392.95 Q502.8 -391.85 504.35 -391.85 513.55 -391.85 517.85 -393.7 519.1 -394.25 523.65 -397.8 L524.95 -398.65 Q533.3 -403.75 557.5 -403.75 588.2 -403.75 604.95 -402.35 618.95 -401.15 631.65 -398.1 L659.0 -391.1 Q680.35 -385.9 708.4 -381.25 711.25 -389.0 717.65 -395.7 728.25 -406.8 742.8 -406.25 L822.15 -406.85 Q842.55 -412.5 875.9 -414.4 914.7 -416.55 933.4 -410.0 L942.8 -410.0 946.75 -410.0 946.35 -412.05 Q946.2 -413.85 946.55 -415.0 L946.6 -416.0 Q946.8 -425.6 952.1 -428.45 956.55 -430.85 972.35 -431.25 L1012.45 -433.1 Q1043.45 -435.85 1077.8 -443.75 L1170.3 -443.75 1215.9 -435.7 Q1241.0 -431.85 1268.1 -431.85 1292.5 -431.85 1306.4 -432.75 L1326.8 -434.65 Q1353.5 -437.5 1416.85 -437.5 1430.25 -442.55 1440.8 -446.1 L1441.4 -445.5 Q1442.65 -444.55 1445.05 -446.25 1448.0 -448.4 1450.2 -448.25 1454.1 -448.05 1459.35 -442.5 1464.75 -436.25 1467.85 -433.55 1476.2 -426.25 1483.1 -426.25 1487.0 -426.25 1487.8 -427.4 L1488.75 -430.0 Q1489.5 -432.25 1488.5 -435.6 L1488.3 -436.25 1532.65 -434.55 1540.6 -433.75 1633.1 -433.75 Q1636.7 -434.6 1637.15 -434.9 1638.9 -435.95 1639.25 -438.75 L1670.6 -438.75 Q1673.75 -440.0 1693.1 -441.25 L1697.15 -442.4 Q1699.35 -443.75 1699.35 -447.8 1699.35 -450.05 1698.75 -451.3 1702.0 -450.25 1704.5 -448.75 L1705.7 -447.95 1705.75 -448.0 1708.1 -448.75 Q1724.6 -453.55 1773.4 -456.25 L1908.4 -456.25 Q1915.15 -455.1 1916.55 -454.35 L2043.4 -453.75 Q2083.85 -454.65 2107.25 -442.6 2110.85 -440.75 2113.5 -438.75 2118.6 -435.05 2120.4 -430.85 2122.2 -426.6 2120.4 -422.55 2118.5 -421.75 2117.15 -420.6 L2117.55 -418.45 2117.15 -418.1 Q2117.55 -417.55 2117.4 -416.65 L2117.15 -415.25 Q2117.15 -413.75 2120.9 -413.75 L2127.0 -414.4 Q2140.55 -411.2 2171.8 -405.0 2217.15 -395.0 2224.65 -387.5 L2221.7 -384.9 Q2219.65 -382.85 2219.65 -379.05 2219.65 -375.15 2220.0 -373.45 L2220.3 -372.5 2222.0 -371.85 2228.4 -371.25 Q2234.55 -371.25 2250.65 -382.7 2265.7 -393.45 2272.15 -401.25 2269.85 -404.7 2265.9 -406.25 L2236.55 -407.5 Q2280.05 -408.5 2287.7 -412.85 2290.05 -414.15 2290.45 -416.95 2290.85 -419.95 2292.5 -421.25 2290.35 -424.4 2286.25 -426.25 L2263.4 -426.25 Q2260.15 -425.4 2257.15 -422.5 L2244.65 -424.0 2245.0 -424.25 2251.7 -430.4 Q2255.85 -434.35 2260.5 -436.2 2267.0 -438.75 2277.15 -438.75 L2280.6 -438.65 Q2297.5 -437.95 2304.95 -429.6 L2306.6 -427.5 Q2310.45 -421.8 2310.0 -415.3 2310.0 -406.85 2279.15 -382.45 2271.55 -376.45 2264.55 -371.5 L2257.85 -366.9 2256.2 -365.85 Q2245.15 -358.75 2242.15 -358.75 2229.15 -358.75 2213.25 -363.4 2204.4 -366.0 2198.5 -369.5 2205.1 -362.25 2210.3 -351.85 L2293.75 -351.25 Q2299.95 -350.15 2301.55 -349.35 L2378.75 -348.75 Q2384.85 -348.75 2389.6 -345.25 L2394.35 -340.6 Q2395.35 -342.6 2395.65 -346.95 2396.0 -351.9 2396.65 -354.0 2398.4 -359.65 2405.25 -363.15 M233.1 -180.3 L231.25 -180.3 Q227.45 -181.9 224.95 -186.05 222.8 -189.65 222.8 -192.65 222.8 -195.35 223.15 -196.0 223.95 -197.45 227.5 -198.4 L233.6 -198.8 259.45 -201.6 280.0 -203.9 Q290.3 -205.95 302.25 -207.45 307.25 -208.35 308.75 -210.55 314.0 -210.95 318.5 -213.85 320.6 -215.2 327.45 -221.25 333.2 -226.35 338.15 -228.65 345.4 -232.0 355.0 -232.0 376.05 -232.0 380.65 -223.7 382.05 -221.1 382.3 -216.6 382.55 -211.7 383.0 -210.5 L496.0 -210.0 510.35 -207.35 519.45 -206.2 Q523.4 -206.0 577.0 -206.0 592.25 -206.0 597.6 -205.55 602.95 -205.1 604.05 -203.7 L605.0 -199.8 Q605.65 -196.35 609.0 -193.0 L618.0 -193.0 Q617.65 -198.8 621.85 -202.1 629.35 -208.0 651.0 -208.0 675.0 -208.0 692.7 -202.85 703.75 -199.6 719.3 -191.5 732.35 -184.7 740.95 -181.45 L746.35 -179.65 750.2 -178.6 753.65 -179.55 Q772.85 -184.8 786.55 -189.35 807.45 -196.55 829.3 -191.2 840.2 -188.5 847.15 -184.35 856.3 -184.35 862.2 -186.2 866.1 -187.45 870.35 -190.3 875.0 -193.45 877.35 -194.4 882.05 -196.25 889.05 -196.25 895.6 -196.25 911.0 -191.6 927.4 -186.6 931.55 -182.5 959.15 -185.3 967.8 -178.9 969.3 -177.8 971.5 -174.8 L977.7 -175.95 994.25 -178.0 1008.15 -179.95 1048.25 -183.0 Q1115.65 -183.7 1134.4 -180.15 1142.5 -178.6 1144.85 -175.85 1146.25 -174.25 1146.25 -170.0 1147.05 -164.1 1146.7 -162.8 1146.2 -161.0 1140.3 -161.05 1110.0 -163.0 1061.25 -163.0 L1041.65 -162.75 1041.55 -160.0 Q1041.55 -149.25 1026.6 -141.95 1009.85 -133.75 980.3 -133.75 L955.05 -135.55 Q950.05 -134.0 944.25 -134.0 914.45 -134.0 897.25 -137.3 885.45 -139.55 875.9 -144.5 L869.25 -147.85 Q861.65 -146.25 851.55 -146.25 827.5 -146.25 822.65 -152.8 L821.8 -154.55 Q817.85 -154.15 815.05 -153.3 811.95 -152.35 807.45 -149.5 803.2 -146.8 799.05 -145.7 792.55 -144.0 781.0 -144.0 778.5 -144.0 774.8 -144.85 740.3 -133.75 717.8 -133.75 691.8 -133.75 682.2 -141.9 676.55 -146.65 676.55 -155.0 676.55 -161.85 678.1 -165.15 679.75 -168.65 684.0 -170.1 687.9 -171.4 696.2 -171.7 L704.3 -171.8 692.2 -177.0 Q676.4 -183.65 662.0 -187.5 659.2 -188.6 659.3 -185.55 L660.0 -181.75 659.9 -178.2 Q659.45 -176.3 657.0 -175.1 650.7 -172.0 627.0 -172.0 597.1 -172.0 591.55 -179.6 589.8 -183.15 588.2 -184.25 585.7 -185.95 578.0 -185.0 577.8 -177.5 568.2 -169.1 557.75 -160.0 546.0 -160.0 539.1 -160.0 531.55 -167.35 L524.0 -176.0 Q515.65 -184.35 506.15 -186.7 L500.6 -187.8 Q498.4 -188.35 498.0 -189.5 L376.0 -190.0 Q362.0 -194.3 362.0 -210.5 L363.15 -211.0 Q363.65 -211.5 360.5 -211.5 353.2 -211.5 347.7 -208.15 345.45 -206.75 338.8 -200.75 333.15 -195.65 327.85 -193.35 325.2 -192.2 322.15 -191.45 L322.15 -191.05 Q322.15 -188.9 321.55 -188.35 320.8 -187.7 317.65 -187.4 L287.5 -184.05 Q274.35 -182.15 269.35 -180.25 266.2 -179.05 261.85 -179.05 260.05 -179.05 257.65 -180.1 L252.5 -180.3 233.1 -180.3 M1676.4 -453.65 L1679.35 -453.75 1681.9 -453.7 1676.4 -453.65 M2173.75 -417.65 Q2190.55 -417.15 2213.55 -418.8 L2213.45 -417.3 2213.45 -414.3 Q2213.0 -411.25 2207.5 -411.25 2200.95 -411.25 2186.6 -414.55 L2173.75 -417.65 M2435.55 -417.45 Q2437.7 -431.15 2448.7 -432.05 2459.25 -432.9 2482.0 -421.25 2485.6 -419.4 2490.35 -416.9 L2435.55 -417.45 M261.55 -203.4 L261.65 -203.2 261.4 -203.3 261.55 -203.4 M2004.45 -448.95 Q2005.05 -448.1 2002.15 -447.5 2002.15 -444.65 2003.85 -442.2 2005.65 -439.65 2008.4 -438.75 L2043.4 -438.75 2047.45 -439.9 Q2049.65 -441.25 2049.65 -445.3 2049.65 -449.25 2047.7 -450.15 2045.0 -450.6 2043.4 -451.25 L2004.15 -450.05 Q2003.7 -449.9 2004.45 -448.95 M2187.15 -383.1 L2178.5 -383.1 Q2180.95 -382.25 2183.35 -381.05 2186.6 -379.45 2189.65 -377.3 2187.8 -380.05 2187.15 -383.1 M1575.0 -207.5 Q1585.2 -208.6 1589.35 -204.35 L1705.6 -203.75 Q1716.95 -199.85 1719.35 -196.25 1717.1 -192.15 1716.05 -190.85 1714.35 -188.75 1710.6 -188.75 L1705.15 -189.35 1704.35 -190.0 1580.6 -191.25 Q1577.3 -192.35 1576.05 -193.75 1574.35 -195.7 1574.35 -200.0 1574.35 -206.25 1575.0 -207.5" fill="#605446" fill-rule="evenodd" stroke="none"/>
  </g>
</svg>
