<?xml version="1.0" encoding="UTF-8" standalone="no"?>
<svg xmlns:ffdec="https://www.free-decompiler.com/flash" xmlns:xlink="http://www.w3.org/1999/xlink" ffdec:objectType="shape" height="848.0px" width="4311.85px" xmlns="http://www.w3.org/2000/svg">
  <g transform="matrix(1.0, 0.0, 0.0, 1.0, -12.9, 928.0)">
    <path d="M3926.05 -860.9 L3926.35 -860.9 3926.25 -860.8 3926.05 -860.9 M4095.45 -881.9 Q4113.0 -886.15 4131.7 -891.2 L4153.25 -897.2 4157.45 -894.8 Q4157.75 -892.05 4159.15 -889.5 4161.1 -886.0 4164.95 -884.25 L4165.35 -883.5 4165.55 -880.7 Q4159.9 -879.25 4156.95 -876.2 4153.75 -872.8 4153.75 -867.0 4153.75 -863.85 4154.0 -862.1 L4154.25 -861.0 Q4147.6 -862.45 4142.35 -860.6 L4122.7 -861.95 Q4102.35 -863.5 4100.0 -864.5 4100.85 -865.55 4101.05 -868.6 4101.25 -872.05 4100.2 -875.2 4098.75 -879.7 4095.45 -881.9 M4199.4 -658.0 Q4197.5 -651.4 4194.75 -648.75 L4180.8 -634.6 4180.7 -634.45 Q4184.35 -643.7 4182.75 -658.25 4192.0 -657.65 4199.4 -658.0 M4171.35 -622.0 Q4169.7 -619.25 4168.75 -616.75 4176.55 -617.9 4181.25 -612.0 4184.75 -607.6 4184.75 -603.5 4184.75 -596.1 4174.3 -593.5 4168.0 -591.95 4151.4 -591.55 4134.65 -591.1 4128.45 -589.6 4118.0 -587.1 4118.0 -579.75 4118.0 -579.15 4121.5 -574.6 4125.0 -570.05 4125.0 -567.75 4125.0 -562.5 4109.1 -557.35 4111.05 -555.55 4114.05 -554.0 4117.6 -552.1 4127.6 -548.25 L4131.45 -546.75 4113.0 -546.75 Q4111.9 -547.8 4111.15 -550.25 4110.55 -552.3 4108.9 -553.2 4103.75 -555.85 4077.0 -554.75 L4078.4 -559.4 Q4079.35 -563.15 4079.05 -565.9 4078.05 -574.25 4065.5 -574.25 4056.2 -574.25 4043.6 -560.2 4038.65 -554.75 4035.3 -549.25 4032.0 -543.9 4032.0 -541.5 4032.0 -537.5 4032.15 -536.85 4033.1 -532.95 4037.45 -530.45 4048.35 -524.15 4079.05 -527.15 L4093.5 -523.75 Q4096.25 -523.1 4108.75 -517.05 4122.15 -511.25 4131.5 -511.25 4153.55 -511.25 4165.75 -515.15 4165.4 -504.75 4165.65 -492.55 L4166.25 -474.0 Q4165.65 -461.25 4165.35 -450.55 4164.8 -429.9 4166.3 -414.8 4167.2 -405.9 4168.8 -398.65 4179.95 -392.6 4181.9 -379.7 4182.65 -374.35 4182.05 -365.85 L4181.25 -353.0 Q4181.25 -348.7 4185.75 -327.45 4190.25 -306.15 4190.25 -300.1 L4190.15 -297.65 4189.5 -296.0 4131.0 -295.75 4097.15 -298.45 Q4062.85 -301.15 4055.0 -302.5 L3910.6 -302.5 3906.85 -301.75 3875.85 -301.5 3872.85 -300.75 3866.5 -300.85 3866.35 -300.0 3799.1 -299.25 3794.85 -298.1 3789.85 -296.75 3738.8 -296.45 Q3687.65 -296.05 3686.85 -295.75 L3658.85 -295.5 3647.75 -292.95 3638.85 -290.75 3609.6 -290.5 3599.15 -289.05 3589.85 -287.75 3571.85 -287.45 3566.45 -287.3 Q3563.7 -248.95 3382.25 -198.8 3311.35 -179.2 3220.55 -160.05 3144.85 -144.05 3073.5 -132.0 3019.5 -121.65 2952.8 -114.8 2860.5 -106.25 2784.5 -98.0 L2670.5 -96.0 Q2665.85 -91.35 2660.5 -90.0 L2508.5 -90.0 Q2497.75 -93.5 2486.35 -96.25 L2472.2 -99.7 Q2467.65 -100.95 2465.5 -102.4 L2435.2 -102.4 2405.85 -105.65 Q2360.25 -97.6 2296.8 -97.6 2286.45 -97.6 2278.55 -98.1 L2277.85 -98.05 Q2240.3 -93.95 2144.0 -86.4 L1936.0 -86.4 1885.5 -89.4 Q1876.1 -90.3 1863.95 -92.4 1841.05 -96.35 1783.2 -98.4 L1621.6 -98.4 1609.6 -96.0 1279.2 -95.2 1267.2 -92.8 889.6 -92.8 876.8 -95.2 620.0 -95.2 608.0 -92.8 488.8 -92.0 440.35 -90.3 393.25 -86.15 Q327.2 -80.0 270.4 -80.0 241.05 -80.0 232.85 -100.05 228.7 -110.2 230.4 -121.6 L232.0 -155.5 Q233.6 -187.7 233.6 -203.2 L233.6 -357.7 233.65 -358.8 233.7 -366.5 Q236.8 -376.85 236.8 -390.0 L236.8 -391.15 Q270.2 -393.95 335.85 -406.7 417.6 -422.6 439.2 -432.0 444.05 -434.15 448.5 -441.35 453.95 -443.35 460.8 -446.65 490.55 -455.15 509.55 -460.0 565.15 -474.2 634.75 -484.0 656.5 -480.0 665.6 -480.0 680.55 -480.0 707.6 -489.6 L844.8 -489.6 Q866.95 -484.5 907.05 -473.0 L982.6 -451.0 991.1 -448.5 Q1025.5 -457.75 1107.2 -451.2 L1310.4 -451.2 Q1334.45 -455.8 1354.35 -464.35 1370.4 -471.2 1387.1 -482.25 L1415.65 -502.6 Q1433.2 -515.2 1447.0 -522.8 1487.55 -545.15 1546.2 -553.1 1620.8 -563.25 1740.8 -553.6 L1963.2 -553.6 Q2024.3 -554.15 2065.5 -573.75 2081.35 -581.35 2098.7 -593.8 L2128.6 -616.6 Q2147.0 -630.65 2161.75 -639.35 2182.0 -651.25 2204.65 -659.1 2260.05 -678.4 2345.6 -678.4 2362.7 -678.4 2429.2 -672.8 2479.6 -668.55 2501.35 -665.2 L2496.2 -664.6 Q2489.6 -663.45 2477.65 -659.55 L2458.0 -653.25 Q2435.3 -646.75 2414.6 -643.8 L2387.8 -641.2 Q2377.35 -640.35 2374.25 -638.25 2370.5 -635.75 2370.5 -628.0 2370.5 -624.4 2372.1 -621.7 2363.55 -621.5 2362.1 -620.65 2361.0 -618.6 2356.0 -616.75 L2347.0 -616.75 Q2345.95 -629.5 2337.1 -635.55 2329.1 -641.05 2317.2 -639.7 2305.55 -638.4 2295.3 -631.25 2284.4 -623.65 2279.5 -612.25 L2264.95 -598.55 2258.45 -592.0 2257.8 -593.65 Q2255.6 -598.85 2253.0 -600.75 2235.5 -616.1 2227.25 -620.45 2219.4 -624.55 2214.3 -621.4 2212.15 -620.1 2203.8 -610.4 2197.05 -602.5 2189.4 -596.9 L2150.0 -592.25 Q2127.2 -589.4 2118.9 -580.15 L2093.0 -579.75 Q2085.65 -578.3 2083.7 -572.8 2083.0 -570.8 2083.0 -564.5 L2083.2 -561.4 Q2059.3 -559.15 2050.45 -553.0 2045.75 -549.75 2045.1 -545.15 L2045.2 -542.9 2043.35 -539.8 Q2037.25 -528.55 2037.25 -520.25 2037.0 -518.05 2037.1 -516.25 2037.3 -512.8 2039.05 -510.35 2044.45 -502.85 2063.75 -504.75 L2064.85 -502.2 Q2065.5 -500.7 2066.5 -499.95 2069.3 -497.75 2079.0 -497.75 2093.05 -497.75 2096.35 -502.8 2097.2 -504.1 2098.5 -508.2 2099.8 -512.25 2101.5 -514.75 L2121.6 -515.55 2129.95 -515.15 2131.3 -515.15 Q2131.0 -511.8 2131.0 -508.5 L2131.1 -501.95 Q2131.5 -499.35 2133.75 -497.4 2137.2 -494.45 2160.5 -484.25 2157.15 -481.75 2154.9 -478.15 2153.0 -475.2 2153.0 -473.75 2153.0 -470.3 2154.05 -468.45 2156.65 -463.75 2165.0 -463.75 2176.85 -463.75 2180.05 -472.3 2181.05 -475.1 2181.15 -478.75 L2181.0 -482.75 Q2181.0 -492.6 2176.65 -498.0 2173.85 -501.4 2167.0 -504.7 2159.8 -508.15 2157.4 -510.75 2153.0 -515.35 2153.0 -524.0 2153.0 -529.85 2153.55 -533.2 L2160.15 -541.75 2160.3 -541.85 Q2169.35 -546.8 2173.9 -550.0 2184.95 -557.7 2198.0 -570.75 2228.55 -570.5 2242.85 -575.7 L2243.0 -575.35 Q2245.5 -569.8 2249.95 -565.35 2263.7 -551.75 2293.0 -551.75 L2305.6 -552.2 Q2306.2 -550.45 2307.4 -549.15 2313.0 -543.1 2329.5 -543.25 2329.7 -542.8 2329.9 -538.5 2330.1 -534.95 2332.05 -532.7 2338.15 -525.75 2365.0 -525.75 2383.15 -525.75 2396.75 -532.15 2416.85 -533.0 2421.35 -535.8 2422.65 -536.55 2423.35 -538.8 2423.85 -540.4 2427.0 -540.75 L2451.75 -542.1 2457.0 -542.75 2535.5 -543.25 Q2537.05 -543.25 2538.55 -539.75 2540.2 -535.8 2542.5 -534.75 2544.5 -533.9 2547.1 -533.2 2555.5 -523.75 2568.0 -523.75 2578.55 -523.75 2583.4 -525.45 2584.0 -525.65 2590.25 -529.25 L2591.3 -529.8 2675.0 -532.75 2728.5 -532.75 Q2734.15 -531.35 2748.75 -529.5 L2766.75 -527.75 Q2791.2 -527.75 2794.9 -532.95 2797.25 -536.35 2797.85 -536.7 2800.65 -538.5 2808.75 -538.75 2841.0 -539.7 2850.05 -546.2 2854.65 -549.5 2852.75 -552.75 L2852.9 -555.1 Q2852.9 -557.1 2852.45 -558.8 2860.65 -560.75 2867.75 -563.8 2876.05 -567.35 2880.75 -571.7 2883.75 -574.5 2884.75 -577.0 L2900.75 -573.25 2966.75 -573.25 3003.55 -583.8 3028.0 -590.75 Q3029.15 -590.75 3034.1 -587.0 3037.25 -584.6 3040.3 -583.75 3046.05 -579.95 3056.7 -577.15 3064.85 -575.0 3081.8 -572.25 L3110.75 -567.25 3176.75 -567.25 Q3188.35 -570.45 3198.15 -572.65 3201.35 -567.1 3208.75 -567.25 L3360.75 -566.75 Q3362.9 -566.05 3377.5 -564.6 L3395.75 -563.25 Q3405.6 -563.25 3421.25 -578.35 3429.3 -586.1 3437.75 -596.25 L3438.9 -597.45 3460.25 -589.75 Q3461.35 -588.95 3461.9 -584.45 3462.75 -577.25 3463.15 -575.45 3463.8 -572.35 3465.05 -570.0 L3455.45 -561.1 Q3448.3 -554.6 3445.75 -549.75 3442.25 -543.1 3442.25 -532.5 3441.55 -527.8 3442.8 -523.6 3445.2 -515.25 3454.75 -515.25 3457.7 -515.25 3458.75 -514.0 L3460.4 -511.25 Q3463.35 -507.25 3477.5 -507.25 3491.0 -507.25 3500.4 -513.05 3507.55 -517.45 3513.35 -526.2 L3515.45 -529.45 3518.5 -529.25 Q3519.65 -529.25 3550.3 -550.2 3583.65 -573.0 3596.5 -584.25 L3654.5 -585.25 3683.0 -589.95 Q3706.15 -594.05 3720.5 -598.75 L3792.5 -599.25 Q3821.15 -604.85 3840.8 -612.55 3849.35 -615.85 3855.1 -619.25 L3903.15 -619.25 Q3913.2 -615.15 3918.3 -613.3 3930.25 -608.9 3938.5 -607.25 L4020.5 -607.25 4036.3 -609.8 Q4043.8 -611.25 4049.05 -613.25 L4068.5 -613.25 Q4071.5 -613.6 4073.9 -614.85 L4077.2 -614.85 Q4080.45 -611.15 4086.5 -611.25 L4144.5 -611.25 Q4161.75 -614.3 4171.35 -622.0 M2510.65 -663.55 L2515.2 -662.4 2590.4 -662.4 Q2610.55 -677.55 2644.15 -706.7 2670.6 -729.65 2687.4 -740.2 2712.05 -755.7 2746.55 -766.8 2784.95 -779.15 2848.0 -790.4 2915.05 -799.15 2954.6 -794.8 2962.2 -801.4 2979.3 -807.6 L2998.65 -814.2 Q3012.4 -818.85 3021.95 -822.45 3052.55 -834.0 3080.0 -849.6 3086.25 -853.15 3091.45 -858.45 3093.25 -860.3 3100.05 -868.55 3111.45 -882.35 3126.9 -890.2 3178.15 -916.25 3347.2 -924.8 L3347.2 -928.0 3577.6 -928.0 Q3582.6 -926.5 3590.3 -922.35 L3606.45 -913.45 Q3631.7 -899.9 3661.4 -890.8 3747.75 -864.3 3905.3 -861.2 3902.0 -857.7 3902.0 -850.0 3902.0 -849.25 3906.65 -845.15 3894.0 -834.35 3894.0 -831.75 3894.0 -827.85 3895.5 -825.0 3898.0 -820.3 3904.0 -819.25 L3904.0 -818.5 3903.8 -814.7 Q3903.75 -811.0 3904.55 -808.1 3906.9 -799.0 3916.5 -799.0 3920.1 -799.0 3923.65 -801.8 L3927.0 -805.0 Q3928.75 -804.1 3934.5 -798.8 3938.55 -795.0 3943.5 -795.0 3951.7 -795.0 3955.1 -799.0 3956.45 -800.6 3958.35 -805.9 3958.75 -803.65 3959.45 -801.75 3965.45 -784.8 3994.4 -784.8 L3995.65 -785.0 Q4012.65 -776.75 4024.5 -775.0 4065.5 -768.85 4116.75 -762.05 L4129.5 -759.0 Q4132.25 -759.0 4134.5 -759.75 L4158.65 -756.65 4170.55 -755.15 Q4170.7 -755.1 4170.9 -755.0 L4171.95 -754.4 Q4173.4 -753.6 4175.15 -753.05 L4187.95 -746.95 4188.3 -746.25 4188.25 -744.75 4187.95 -739.55 Q4183.3 -738.3 4177.25 -734.35 4168.45 -728.55 4161.1 -720.3 L4159.0 -717.85 Q4149.75 -713.0 4149.75 -707.5 4149.75 -701.65 4152.45 -698.35 4156.35 -693.7 4164.9 -692.45 4167.5 -691.15 4171.05 -690.3 L4149.1 -689.15 Q4147.15 -690.8 4144.25 -691.35 4140.35 -694.5 4133.8 -694.9 4121.15 -695.7 4103.75 -686.5 L4088.4 -684.9 Q4079.6 -683.45 4077.4 -680.45 4076.95 -679.8 4076.65 -678.65 4064.0 -676.15 4064.0 -666.0 4063.8 -664.85 4063.85 -663.6 4064.0 -661.15 4065.5 -659.25 4070.15 -653.25 4086.5 -653.25 L4095.2 -653.8 Q4099.3 -651.25 4106.5 -651.25 4111.15 -651.25 4116.2 -652.3 4123.15 -650.7 4130.1 -648.3 L4130.4 -645.35 4131.5 -641.25 4123.95 -641.0 4048.5 -640.25 4030.7 -638.45 3968.5 -638.75 Q3953.35 -641.75 3942.35 -644.8 L3928.05 -648.45 3926.7 -648.7 3925.45 -652.35 Q3922.4 -658.4 3914.5 -658.25 L3850.5 -658.25 3835.9 -656.0 Q3823.75 -656.35 3818.25 -651.3 L3812.5 -648.75 3732.5 -648.25 Q3719.75 -644.65 3703.15 -641.6 L3680.95 -637.4 Q3671.1 -635.05 3666.9 -631.55 3664.0 -629.15 3662.85 -625.55 3644.5 -623.3 3637.5 -621.75 3634.25 -621.0 3622.75 -619.75 L3600.95 -617.1 Q3571.35 -612.95 3562.5 -605.75 L3537.25 -584.3 Q3519.95 -570.1 3509.0 -566.25 L3509.0 -566.75 Q3515.35 -577.65 3521.5 -584.95 L3529.5 -593.55 Q3532.7 -597.0 3533.75 -600.55 3535.0 -604.8 3535.0 -614.0 3535.0 -617.55 3533.8 -620.65 3539.05 -617.25 3542.5 -617.25 3552.95 -617.25 3554.45 -624.8 3554.8 -626.55 3554.8 -631.05 3554.8 -634.8 3555.5 -636.25 3567.35 -631.3 3573.2 -637.3 3575.95 -640.15 3576.75 -643.8 3582.35 -645.0 3585.8 -647.0 3591.0 -650.0 3591.0 -655.5 3591.0 -661.35 3588.6 -663.75 3586.4 -665.95 3579.95 -667.15 3564.7 -668.85 3549.3 -672.0 3548.4 -674.9 3548.1 -679.05 3547.45 -687.9 3546.5 -690.75 3542.5 -696.75 3540.7 -705.55 L3538.25 -718.55 Q3536.85 -723.3 3533.7 -725.65 3530.6 -735.0 3517.5 -731.75 3510.65 -730.05 3507.8 -726.95 L3506.75 -725.55 Q3499.85 -721.9 3494.9 -712.8 3491.35 -706.25 3488.3 -695.6 3476.25 -684.1 3466.3 -671.4 3460.95 -664.55 3456.75 -658.1 L3455.2 -656.85 Q3452.75 -654.7 3451.55 -652.5 3444.6 -651.05 3439.95 -645.75 L3435.8 -641.15 Q3433.15 -638.65 3429.75 -637.25 3425.1 -635.4 3410.95 -630.85 L3411.25 -633.5 Q3411.25 -640.7 3399.55 -644.5 3388.9 -647.95 3373.75 -647.35 3358.45 -646.7 3347.95 -642.25 3339.8 -638.75 3337.35 -633.95 3316.75 -629.75 3285.75 -621.25 3271.75 -617.4 3260.1 -611.2 3245.4 -603.4 3241.9 -602.05 L3239.1 -601.0 Q3235.55 -602.65 3230.55 -604.25 3214.9 -609.25 3193.75 -611.55 3171.55 -614.0 3156.95 -611.85 3140.25 -609.4 3140.25 -601.5 3140.25 -596.9 3140.85 -595.4 3141.45 -594.0 3142.6 -592.75 3107.55 -593.1 3084.05 -597.75 L3099.3 -604.8 3100.35 -605.3 3100.95 -604.75 Q3105.4 -601.25 3108.75 -601.25 3115.4 -601.25 3128.75 -613.2 3133.75 -617.7 3137.6 -622.05 3141.25 -626.2 3141.25 -627.25 L3141.25 -628.2 Q3145.25 -631.5 3145.25 -633.5 3145.25 -649.35 3094.8 -638.85 L3056.75 -638.25 Q3051.15 -638.75 3047.4 -632.95 3045.2 -629.6 3044.35 -625.65 L3042.8 -625.2 3022.75 -624.75 Q3010.9 -625.7 3006.8 -624.8 3000.25 -623.4 3000.25 -614.0 3000.25 -612.8 3000.55 -611.7 L2994.95 -609.85 Q2962.9 -599.15 2960.75 -598.75 L2948.25 -598.75 2948.25 -599.75 Q2948.7 -603.4 2946.75 -607.35 2944.8 -611.3 2941.15 -613.95 2934.7 -618.6 2927.25 -617.25 L2927.25 -617.5 Q2927.25 -619.25 2926.75 -620.95 L2926.85 -621.2 2928.75 -621.25 Q2938.4 -621.1 2941.65 -632.45 2943.25 -638.1 2943.25 -649.25 L2943.3 -656.95 Q2942.9 -660.95 2941.2 -663.85 2942.95 -667.1 2944.75 -668.75 2966.3 -667.15 2974.65 -673.05 2979.25 -676.3 2979.25 -681.5 2979.25 -687.0 2976.1 -691.55 2972.55 -696.6 2966.1 -698.7 2949.8 -704.05 2922.75 -688.75 2919.8 -687.2 2917.1 -681.3 L2914.25 -674.25 Q2913.3 -672.3 2910.5 -670.5 2904.65 -669.55 2897.75 -667.75 2888.65 -665.4 2881.95 -663.25 2867.7 -662.7 2863.8 -659.7 2861.95 -658.25 2861.65 -655.5 L2861.4 -653.45 2858.9 -651.35 Q2843.6 -652.0 2837.65 -646.5 2836.0 -644.95 2835.15 -642.85 2818.25 -639.55 2818.25 -631.5 2818.25 -627.35 2814.25 -623.05 2810.25 -618.7 2810.25 -614.0 2809.95 -612.85 2810.0 -611.6 2810.1 -609.55 2811.25 -607.9 L2795.3 -604.45 Q2794.9 -606.6 2793.35 -608.25 2787.75 -614.25 2768.0 -614.25 2714.8 -613.7 2708.5 -613.9 2704.85 -614.05 2701.85 -615.0 L2691.0 -618.25 2690.7 -618.25 2692.3 -619.2 Q2695.3 -621.0 2696.6 -622.3 2702.25 -622.35 2704.4 -625.0 2705.6 -626.5 2705.6 -629.5 2705.6 -631.9 2703.45 -634.8 2701.25 -637.75 2698.15 -639.3 2694.6 -641.1 2691.75 -640.35 2687.7 -642.1 2682.1 -642.75 L2671.45 -642.4 Q2666.6 -641.15 2666.6 -638.1 2666.6 -634.8 2669.35 -633.6 L2678.45 -632.7 2684.5 -632.25 Q2682.25 -629.15 2678.55 -627.0 L2677.2 -626.25 2669.25 -623.4 Q2664.05 -622.15 2657.35 -621.6 L2589.6 -621.1 Q2587.75 -620.5 2585.5 -617.35 L2577.05 -619.8 Q2570.75 -621.25 2567.95 -619.15 2564.5 -616.6 2564.5 -608.0 2564.5 -603.35 2567.3 -599.6 2571.65 -593.8 2581.0 -594.75 2580.9 -593.8 2578.2 -588.85 2576.0 -584.8 2577.1 -582.4 2579.45 -577.2 2598.1 -575.55 L2598.45 -575.25 Q2592.5 -574.6 2587.65 -573.35 2577.0 -570.55 2577.0 -565.75 2577.0 -566.05 2576.7 -565.75 L2576.35 -564.8 Q2576.05 -563.0 2578.05 -561.3 2584.65 -555.75 2611.0 -555.75 2636.5 -555.75 2643.0 -559.8 2645.2 -561.2 2645.3 -563.15 L2645.15 -565.15 Q2653.8 -567.35 2667.35 -572.2 2678.8 -576.3 2694.9 -582.55 2694.6 -581.85 2694.6 -581.1 2694.6 -579.4 2695.0 -578.8 2695.7 -577.65 2698.35 -577.15 L2703.2 -576.65 2703.9 -575.7 Q2703.0 -573.75 2703.0 -571.75 2703.0 -569.15 2704.55 -566.45 2707.15 -561.9 2713.0 -561.75 L2768.75 -561.75 Q2774.9 -561.9 2777.4 -566.45 2778.75 -568.95 2778.75 -571.75 2778.75 -573.6 2778.2 -575.25 L2784.75 -575.25 Q2798.0 -575.25 2810.25 -577.2 L2810.5 -576.0 Q2802.25 -571.25 2802.25 -568.0 L2802.35 -565.7 Q2802.65 -563.3 2803.85 -561.35 2804.6 -560.15 2805.6 -559.2 2792.2 -557.85 2787.4 -555.6 2784.9 -554.4 2783.3 -552.05 2781.75 -549.7 2779.75 -548.75 L2751.0 -548.75 Q2746.5 -549.85 2740.5 -551.6 L2733.0 -553.75 2617.7 -553.75 2613.5 -554.25 Q2613.5 -555.15 2613.65 -555.7 2598.9 -555.65 2593.2 -555.25 2587.25 -554.8 2585.55 -553.45 L2584.45 -552.1 2568.3 -550.8 Q2563.85 -550.85 2560.8 -551.8 2559.2 -552.3 2558.0 -553.05 L2557.6 -553.3 2552.05 -558.55 Q2548.1 -562.0 2541.0 -563.75 L2453.0 -563.75 Q2427.75 -558.2 2416.2 -556.15 2411.35 -555.3 2410.0 -554.75 L2408.15 -554.65 Q2405.55 -557.75 2401.0 -557.75 2397.05 -557.75 2394.2 -555.95 L2391.15 -553.65 2381.75 -553.1 2364.0 -552.25 Q2361.35 -552.25 2352.15 -557.45 2338.7 -565.05 2335.05 -566.8 2328.75 -569.8 2324.3 -570.5 L2323.55 -572.3 Q2321.0 -577.75 2315.0 -577.75 2310.85 -577.75 2310.6 -576.9 2311.0 -575.7 2310.5 -575.0 2309.85 -574.1 2306.6 -573.5 L2307.35 -573.95 Q2309.5 -575.3 2309.75 -577.85 2310.1 -580.8 2311.0 -581.75 L2310.5 -584.75 2324.0 -585.25 2341.0 -581.75 2393.0 -581.75 Q2418.3 -587.35 2444.1 -590.8 2450.15 -591.6 2451.55 -592.35 2453.0 -593.15 2453.0 -595.75 2453.0 -596.8 2444.1 -600.95 2437.7 -604.0 2429.8 -607.15 2443.65 -612.8 2470.55 -626.8 2515.5 -650.1 2515.5 -653.5 2515.5 -660.8 2510.65 -663.55 M3414.2 -612.1 Q3412.4 -609.8 3410.6 -605.7 3407.8 -599.35 3405.4 -596.8 3396.4 -587.3 3366.75 -592.25 L3279.45 -592.25 3285.25 -594.75 Q3308.7 -604.95 3331.55 -609.1 3345.35 -611.6 3363.95 -612.35 3379.1 -613.0 3383.0 -614.5 3385.75 -615.55 3387.3 -617.8 3396.15 -619.35 3401.75 -621.85 L3402.15 -622.0 3402.15 -621.6 Q3402.35 -619.15 3403.85 -617.25 3406.8 -613.5 3414.2 -612.1 M2088.25 -536.75 L2088.0 -537.25 Q2085.65 -537.6 2083.8 -539.5 L2089.0 -539.95 2089.0 -539.0 2088.9 -536.75 2088.25 -536.75 M2471.5 -598.85 Q2471.4 -597.25 2472.0 -595.85 2473.1 -593.1 2476.5 -593.1 2488.35 -593.1 2500.9 -599.95 2507.3 -603.4 2513.1 -607.6 L2513.45 -607.6 Q2512.6 -606.65 2512.6 -606.1 2512.6 -604.45 2513.1 -603.45 2514.35 -601.1 2518.1 -601.1 2524.1 -601.1 2534.05 -607.95 L2537.3 -610.25 2537.7 -610.45 Q2539.45 -611.2 2540.15 -612.35 L2540.6 -612.7 Q2543.65 -614.85 2544.6 -614.85 L2546.4 -613.45 Q2548.1 -612.1 2549.6 -612.1 2553.4 -612.1 2554.35 -615.9 L2554.6 -620.75 Q2554.6 -627.25 2552.05 -632.15 2548.4 -639.2 2542.1 -628.6 2541.1 -626.9 2529.4 -619.2 L2526.6 -618.6 Q2507.65 -618.7 2502.75 -615.25 L2499.65 -612.05 Q2497.85 -610.0 2495.1 -608.85 2486.4 -605.25 2475.75 -602.7 2473.1 -602.1 2472.35 -601.45 2471.5 -600.75 2471.5 -598.85" fill="#796b59" fill-rule="evenodd" stroke="none"/>
    <path d="M3926.25 -860.8 L3926.35 -860.9 Q3934.9 -867.1 3938.5 -868.0 L4013.5 -868.8 4031.5 -869.0 4033.65 -870.25 4047.05 -878.25 Q4057.5 -884.2 4064.65 -886.5 4077.75 -890.7 4082.45 -883.7 4085.0 -879.8 4085.0 -872.5 4085.0 -866.0 4077.6 -859.7 L4081.6 -860.0 Q4082.95 -859.45 4084.35 -858.0 4085.6 -856.75 4085.6 -856.2 L4084.4 -852.4 4071.2 -851.2 Q4069.7 -845.1 4061.35 -840.55 4051.6 -835.35 4033.6 -832.8 L3994.5 -832.1 Q3988.55 -830.35 3984.5 -828.4 L3981.4 -826.7 3976.85 -823.2 Q3972.0 -818.5 3972.0 -812.2 3972.0 -807.2 3972.8 -804.9 3973.75 -802.3 3976.45 -800.4 3978.65 -798.85 3984.65 -796.05 L3999.2 -789.2 3997.5 -786.55 Q3996.7 -785.4 3995.65 -785.0 L3994.4 -784.8 Q3965.45 -784.8 3959.45 -801.75 3958.75 -803.65 3958.35 -805.9 3956.45 -800.6 3955.1 -799.0 3951.7 -795.0 3943.5 -795.0 3938.55 -795.0 3934.5 -798.8 3928.75 -804.1 3927.0 -805.0 L3923.65 -801.8 Q3920.1 -799.0 3916.5 -799.0 3906.9 -799.0 3904.55 -808.1 3903.75 -811.0 3903.8 -814.7 L3904.0 -818.5 3904.0 -819.25 Q3898.0 -820.3 3895.5 -825.0 3894.0 -827.85 3894.0 -831.75 3894.0 -834.35 3906.65 -845.15 L3913.25 -850.7 3926.25 -860.8 M4051.45 -846.5 L4049.95 -844.9 4050.9 -845.3 Q4053.15 -846.25 4055.25 -847.75 L4051.45 -846.5 M3926.7 -648.7 L3927.0 -645.5 Q3927.0 -641.55 3923.75 -637.2 3919.8 -631.9 3914.5 -633.25 L3856.5 -632.75 3840.35 -628.65 Q3825.45 -624.9 3816.5 -623.25 L3737.0 -622.25 Q3732.8 -621.2 3726.6 -618.3 3718.2 -614.45 3715.3 -613.35 3699.3 -607.25 3676.5 -607.25 3666.75 -607.25 3663.45 -613.25 3662.0 -615.85 3662.0 -620.0 3662.0 -623.05 3662.85 -625.55 3664.0 -629.15 3666.9 -631.55 3671.1 -635.05 3680.95 -637.4 L3703.15 -641.6 Q3719.75 -644.65 3732.5 -648.25 L3812.5 -648.75 3818.25 -651.3 Q3825.2 -654.1 3832.55 -655.45 L3835.9 -656.0 3850.5 -658.25 3914.5 -658.25 Q3922.4 -658.4 3925.45 -652.35 L3926.7 -648.7 M3533.8 -620.65 L3532.85 -621.3 Q3529.0 -619.25 3524.5 -619.25 3516.35 -619.25 3509.45 -622.6 L3506.35 -624.4 3493.25 -624.75 Q3483.0 -624.75 3476.25 -622.95 3472.3 -621.9 3466.45 -619.0 3460.75 -616.15 3456.45 -615.05 3450.3 -613.45 3441.3 -613.25 3434.35 -611.25 3424.75 -611.25 L3414.2 -612.1 Q3406.8 -613.5 3403.85 -617.25 3402.35 -619.15 3402.15 -621.6 L3402.15 -622.0 3401.75 -621.85 Q3396.15 -619.35 3387.3 -617.8 3372.55 -615.25 3348.75 -615.25 3339.95 -615.25 3337.25 -622.1 3335.9 -625.55 3336.25 -629.5 3336.25 -631.85 3337.35 -633.95 3339.8 -638.75 3347.95 -642.25 3358.45 -646.7 3373.75 -647.35 3388.9 -647.95 3399.55 -644.5 3411.25 -640.7 3411.25 -633.5 L3410.95 -630.85 Q3425.1 -635.4 3429.75 -637.25 3433.15 -638.65 3435.8 -641.15 L3439.95 -645.75 Q3444.6 -651.05 3451.55 -652.5 3452.75 -654.7 3455.2 -656.85 L3456.75 -658.1 Q3459.75 -660.45 3466.45 -664.75 3474.6 -670.05 3478.5 -673.95 3484.5 -679.9 3486.0 -686.75 L3488.3 -695.6 Q3491.35 -706.25 3494.9 -712.8 3499.85 -721.9 3506.75 -725.55 3509.9 -727.25 3513.5 -727.75 3525.85 -729.5 3531.65 -726.85 L3533.7 -725.65 Q3536.85 -723.3 3538.25 -718.55 L3540.7 -705.55 Q3542.5 -696.75 3546.5 -690.75 3547.45 -687.9 3548.1 -679.05 3548.4 -674.9 3549.3 -672.0 3549.95 -669.75 3551.0 -668.25 3557.95 -657.6 3568.8 -653.75 3573.85 -651.95 3574.75 -651.35 3577.0 -649.9 3577.0 -646.75 L3576.75 -643.8 Q3575.95 -640.15 3573.2 -637.3 3567.35 -631.3 3555.5 -636.25 3554.8 -634.8 3554.8 -631.05 3554.8 -626.55 3554.45 -624.8 3552.95 -617.25 3542.5 -617.25 3539.05 -617.25 3533.8 -620.65 M3239.1 -601.0 Q3247.25 -597.3 3247.25 -593.5 3247.25 -586.45 3241.75 -583.8 3236.45 -581.25 3222.75 -581.25 3166.2 -581.25 3148.8 -588.75 3144.7 -590.5 3142.6 -592.75 3141.45 -594.0 3140.85 -595.4 3140.25 -596.9 3140.25 -601.5 3140.25 -609.4 3156.95 -611.85 3171.55 -614.0 3193.75 -611.55 3214.9 -609.25 3230.55 -604.25 3235.55 -602.65 3239.1 -601.0 M3100.35 -605.3 L3096.75 -608.25 Q3085.8 -608.25 3081.05 -606.2 3077.75 -604.8 3076.55 -601.75 3075.1 -598.05 3074.15 -597.3 3071.7 -595.25 3064.75 -595.25 3031.4 -595.25 3014.8 -600.8 3002.3 -604.95 3000.55 -611.7 3000.25 -612.8 3000.25 -614.0 3000.25 -623.4 3006.8 -624.8 3010.9 -625.7 3022.75 -624.75 L3042.8 -625.2 3044.25 -625.25 3044.35 -625.65 Q3045.2 -629.6 3047.4 -632.95 3051.15 -638.75 3056.75 -638.25 L3094.8 -638.85 3116.75 -639.25 Q3131.05 -645.85 3137.35 -638.85 3141.0 -634.85 3141.25 -628.2 L3141.25 -627.25 Q3141.25 -626.2 3137.6 -622.05 3133.75 -617.7 3128.75 -613.2 3115.4 -601.25 3108.75 -601.25 3105.4 -601.25 3100.95 -604.75 L3100.35 -605.3 M2927.25 -617.25 Q2927.15 -611.9 2921.95 -607.8 2915.9 -603.0 2908.75 -606.75 L2858.75 -606.25 Q2856.5 -605.25 2855.6 -604.0 2854.65 -602.65 2854.3 -602.45 2852.15 -601.25 2835.75 -601.25 2816.9 -601.25 2811.75 -607.25 L2811.25 -607.9 Q2810.1 -609.55 2810.0 -611.6 2809.95 -612.85 2810.25 -614.0 2810.25 -618.7 2814.25 -623.05 2818.25 -627.35 2818.25 -631.5 2818.25 -639.55 2835.15 -642.85 2836.0 -644.95 2837.65 -646.5 2843.6 -652.0 2858.9 -651.35 L2860.75 -651.25 2861.4 -653.45 2861.65 -655.5 Q2861.95 -658.25 2863.8 -659.7 2867.7 -662.7 2881.95 -663.25 2888.5 -663.5 2897.25 -663.25 2899.1 -665.3 2906.3 -668.35 2908.75 -669.4 2910.5 -670.5 2913.3 -672.3 2914.25 -674.25 L2917.1 -681.3 Q2919.8 -687.2 2922.75 -688.75 2949.8 -704.05 2966.1 -698.7 2972.55 -696.6 2976.1 -691.55 2979.25 -687.0 2979.25 -681.5 2979.25 -676.3 2974.65 -673.05 2966.3 -667.15 2944.75 -668.75 2942.95 -667.1 2941.2 -663.85 2939.3 -660.4 2937.45 -655.15 2936.2 -651.55 2931.4 -635.15 2928.9 -626.55 2926.85 -621.2 L2926.75 -620.95 Q2927.25 -619.25 2927.25 -617.5 L2927.25 -617.25 M4116.2 -652.3 Q4111.15 -651.25 4106.5 -651.25 4099.3 -651.25 4095.2 -653.8 L4086.5 -653.25 Q4070.15 -653.25 4065.5 -659.25 4064.0 -661.15 4063.85 -663.6 4063.8 -664.85 4064.0 -666.0 4064.0 -676.15 4076.65 -678.65 L4091.5 -679.25 Q4097.9 -683.45 4103.75 -686.5 4121.15 -695.7 4133.8 -694.9 4140.35 -694.5 4144.25 -691.35 4147.15 -690.8 4149.1 -689.15 4152.75 -685.95 4152.75 -678.75 4152.75 -668.3 4135.05 -659.3 4125.0 -654.15 4116.2 -652.3 M4159.0 -717.85 L4161.1 -720.3 Q4168.45 -728.55 4177.25 -734.35 4183.3 -738.3 4187.95 -739.55 4190.95 -740.4 4193.4 -740.1 4198.05 -739.45 4199.8 -734.55 4200.75 -731.75 4200.75 -727.5 4200.75 -719.8 4186.8 -707.25 4181.1 -702.15 4175.65 -698.75 4170.0 -695.25 4167.25 -695.25 4158.6 -695.25 4155.35 -701.25 4153.75 -704.2 4153.75 -708.0 4153.75 -711.4 4159.0 -717.85" fill="#494136" fill-rule="evenodd" stroke="none"/>
    <path d="M3926.05 -860.9 L3926.25 -860.8 3913.25 -850.7 3906.65 -845.15 Q3902.0 -849.25 3902.0 -850.0 3902.0 -857.7 3905.3 -861.2 3910.9 -867.15 3926.05 -860.9 M4013.5 -868.8 L4033.65 -870.25 4031.5 -869.0 4013.5 -868.8 M4082.45 -883.7 L4087.5 -884.0 Q4092.3 -884.0 4095.45 -881.9 4098.75 -879.7 4100.2 -875.2 4101.25 -872.05 4101.05 -868.6 4100.85 -865.55 4100.0 -864.5 4102.35 -863.5 4122.7 -861.95 L4142.35 -860.6 Q4147.6 -862.45 4154.25 -861.0 L4154.0 -862.1 Q4153.75 -863.85 4153.75 -867.0 4153.75 -872.8 4156.95 -876.2 4159.9 -879.25 4165.55 -880.7 4169.85 -881.85 4175.75 -882.0 L4175.75 -882.5 Q4169.45 -882.35 4165.3 -884.1 L4165.35 -883.5 4164.95 -884.25 Q4161.1 -886.0 4159.15 -889.5 4157.75 -892.05 4157.45 -894.8 4172.15 -887.5 4195.25 -887.5 L4204.45 -888.25 4212.3 -882.0 4211.75 -882.0 4212.65 -878.6 4212.75 -873.75 Q4212.75 -867.9 4209.0 -863.8 4206.15 -860.65 4194.75 -852.5 4194.55 -850.75 4195.95 -845.6 4196.95 -841.85 4195.0 -840.05 4192.8 -838.0 4185.05 -836.65 4182.55 -834.15 4175.4 -829.1 4163.6 -820.8 4162.0 -818.0 4157.9 -811.6 4155.65 -807.35 4151.8 -800.05 4150.9 -793.55 4156.6 -786.6 4170.65 -780.1 4183.95 -774.0 4211.75 -764.5 L4248.25 -750.5 4260.75 -749.85 4281.4 -750.55 Q4310.55 -751.1 4317.75 -744.75 4320.7 -742.15 4322.75 -738.85 4324.75 -735.6 4324.75 -733.5 4324.75 -729.2 4321.6 -725.8 4318.1 -721.95 4312.25 -721.25 L4240.25 -720.75 4217.25 -709.25 Q4226.15 -705.35 4228.15 -697.45 4228.9 -694.6 4228.9 -690.5 L4228.75 -683.75 Q4229.25 -679.4 4229.15 -676.45 4229.0 -670.9 4226.0 -667.15 4219.55 -659.0 4199.4 -658.0 4192.0 -657.65 4182.75 -658.25 4184.35 -643.7 4180.7 -634.45 L4179.75 -632.4 Q4176.8 -626.45 4171.35 -622.0 4161.75 -614.3 4144.5 -611.25 L4086.5 -611.25 Q4080.45 -611.15 4077.2 -614.85 L4073.9 -614.85 Q4071.5 -613.6 4068.5 -613.25 L4049.05 -613.25 Q4043.8 -611.25 4036.3 -609.8 L4020.5 -607.25 3938.5 -607.25 Q3930.25 -608.9 3918.3 -613.3 3913.2 -615.15 3903.15 -619.25 L3855.1 -619.25 Q3849.35 -615.85 3840.8 -612.55 3821.15 -604.85 3792.5 -599.25 L3720.5 -598.75 Q3706.15 -594.05 3683.0 -589.95 L3654.5 -585.25 3596.5 -584.25 Q3583.65 -573.0 3550.3 -550.2 3519.65 -529.25 3518.5 -529.25 L3515.45 -529.45 3513.35 -526.2 Q3507.55 -517.45 3500.4 -513.05 3491.0 -507.25 3477.5 -507.25 3463.35 -507.25 3460.4 -511.25 L3458.75 -514.0 Q3457.7 -515.25 3454.75 -515.25 3445.2 -515.25 3442.8 -523.6 3441.55 -527.8 3442.25 -532.5 3442.25 -543.1 3445.75 -549.75 3448.3 -554.6 3455.45 -561.1 L3465.05 -570.0 Q3463.8 -572.35 3463.15 -575.45 3462.75 -577.25 3461.9 -584.45 3461.35 -588.95 3460.25 -589.75 L3438.9 -597.45 3437.75 -596.25 Q3429.3 -586.1 3421.25 -578.35 3405.6 -563.25 3395.75 -563.25 L3377.5 -564.6 Q3362.9 -566.05 3360.75 -566.75 L3208.75 -567.25 Q3201.35 -567.1 3198.15 -572.65 3188.35 -570.45 3176.75 -567.25 L3110.75 -567.25 3081.8 -572.25 Q3064.85 -575.0 3056.7 -577.15 3046.05 -579.95 3040.3 -583.75 3037.25 -584.6 3034.1 -587.0 3029.15 -590.75 3028.0 -590.75 L3003.55 -583.8 2966.75 -573.25 2900.75 -573.25 2884.75 -577.0 Q2883.75 -574.5 2880.75 -571.7 2876.05 -567.35 2867.75 -563.8 2860.65 -560.75 2852.45 -558.8 2852.9 -557.1 2852.9 -555.1 L2852.75 -552.75 Q2854.65 -549.5 2850.05 -546.2 2841.0 -539.7 2808.75 -538.75 2800.65 -538.5 2797.85 -536.7 2797.25 -536.35 2794.9 -532.95 2791.2 -527.75 2766.75 -527.75 L2748.75 -529.5 Q2734.15 -531.35 2728.5 -532.75 L2675.0 -532.75 2591.3 -529.8 2590.25 -529.25 Q2584.0 -525.65 2583.4 -525.45 2578.55 -523.75 2568.0 -523.75 2555.5 -523.75 2547.1 -533.2 2544.5 -533.9 2542.5 -534.75 2540.2 -535.8 2538.55 -539.75 2537.05 -543.25 2535.5 -543.25 L2457.0 -542.75 2451.75 -542.1 2427.0 -540.75 Q2423.85 -540.4 2423.35 -538.8 2422.65 -536.55 2421.35 -535.8 2416.85 -533.0 2396.75 -532.15 2383.15 -525.75 2365.0 -525.75 2338.15 -525.75 2332.05 -532.7 2330.1 -534.95 2329.9 -538.5 2329.7 -542.8 2329.5 -543.25 2313.0 -543.1 2307.4 -549.15 2306.2 -550.45 2305.6 -552.2 L2293.0 -551.75 Q2263.7 -551.75 2249.95 -565.35 2245.5 -569.8 2243.0 -575.35 L2242.85 -575.7 Q2228.55 -570.5 2198.0 -570.75 2184.95 -557.7 2173.9 -550.0 2169.35 -546.8 2160.3 -541.85 L2160.15 -541.75 2153.55 -533.2 Q2153.0 -529.85 2153.0 -524.0 2153.0 -515.35 2157.4 -510.75 2159.8 -508.15 2167.0 -504.7 2173.85 -501.4 2176.65 -498.0 2181.0 -492.6 2181.0 -482.75 L2181.15 -478.75 Q2181.05 -475.1 2180.05 -472.3 2176.85 -463.75 2165.0 -463.75 2156.65 -463.75 2154.05 -468.45 2153.0 -470.3 2153.0 -473.75 2153.0 -475.2 2154.9 -478.15 2157.15 -481.75 2160.5 -484.25 2137.2 -494.45 2133.75 -497.4 2131.5 -499.35 2131.1 -501.95 L2131.0 -508.5 Q2131.0 -511.8 2131.3 -515.15 L2129.95 -515.15 2121.6 -515.55 2101.5 -514.75 Q2099.8 -512.25 2098.5 -508.2 2097.2 -504.1 2096.35 -502.8 2093.05 -497.75 2079.0 -497.75 2069.3 -497.75 2066.5 -499.95 2065.5 -500.7 2064.85 -502.2 L2063.75 -504.75 Q2044.45 -502.85 2039.05 -510.35 2037.3 -512.8 2037.1 -516.25 2037.0 -518.05 2037.25 -520.25 2037.25 -528.55 2043.35 -539.8 L2045.2 -542.9 2045.1 -545.15 Q2045.75 -549.75 2050.45 -553.0 2059.3 -559.15 2083.2 -561.4 L2083.0 -564.5 Q2083.0 -570.8 2083.7 -572.8 2085.65 -578.3 2093.0 -579.75 L2118.9 -580.15 Q2127.2 -589.4 2150.0 -592.25 L2189.4 -596.9 Q2197.05 -602.5 2203.8 -610.4 2212.15 -620.1 2214.3 -621.4 2219.4 -624.55 2227.25 -620.45 2235.5 -616.1 2253.0 -600.75 2255.6 -598.85 2257.8 -593.65 L2258.45 -592.0 2264.95 -598.55 2279.5 -612.25 Q2284.4 -623.65 2295.3 -631.25 2305.55 -638.4 2317.2 -639.7 2329.1 -641.05 2337.1 -635.55 2345.95 -629.5 2347.0 -616.75 L2356.0 -616.75 Q2361.0 -618.6 2362.1 -620.65 2363.55 -621.5 2372.1 -621.7 2370.5 -624.4 2370.5 -628.0 2370.5 -635.75 2374.25 -638.25 2377.35 -640.35 2387.8 -641.2 L2414.6 -643.8 Q2435.3 -646.75 2458.0 -653.25 L2477.65 -659.55 Q2489.6 -663.45 2496.2 -664.6 L2501.35 -665.2 Q2507.2 -665.55 2510.65 -663.55 2515.5 -660.8 2515.5 -653.5 2515.5 -650.1 2470.55 -626.8 2443.65 -612.8 2429.8 -607.15 2437.7 -604.0 2444.1 -600.95 2453.0 -596.8 2453.0 -595.75 2453.0 -593.15 2451.55 -592.35 2450.15 -591.6 2444.1 -590.8 2418.3 -587.35 2393.0 -581.75 L2341.0 -581.75 2324.0 -585.25 2310.5 -584.75 2311.0 -581.75 Q2310.1 -580.8 2309.75 -577.85 2309.5 -575.3 2307.35 -573.95 L2306.6 -573.5 Q2309.85 -574.1 2310.5 -575.0 2311.0 -575.7 2310.6 -576.9 2310.85 -577.75 2315.0 -577.75 2321.0 -577.75 2323.55 -572.3 L2324.3 -570.5 Q2328.75 -569.8 2335.05 -566.8 2338.7 -565.05 2352.15 -557.45 2361.35 -552.25 2364.0 -552.25 L2381.75 -553.1 2391.15 -553.65 2394.2 -555.95 Q2397.05 -557.75 2401.0 -557.75 2405.55 -557.75 2408.15 -554.65 L2410.0 -554.75 Q2411.35 -555.3 2416.2 -556.15 2427.75 -558.2 2453.0 -563.75 L2541.0 -563.75 Q2548.1 -562.0 2552.05 -558.55 L2557.6 -553.3 2558.0 -553.05 Q2559.2 -552.3 2560.8 -551.8 2563.85 -550.85 2568.3 -550.8 L2584.45 -552.1 2585.55 -553.45 Q2587.25 -554.8 2593.2 -555.25 2598.9 -555.65 2613.65 -555.7 2613.5 -555.15 2613.5 -554.25 L2617.7 -553.75 2733.0 -553.75 2740.5 -551.6 Q2746.5 -549.85 2751.0 -548.75 L2779.75 -548.75 Q2781.75 -549.7 2783.3 -552.05 2784.9 -554.4 2787.4 -555.6 2792.2 -557.85 2805.6 -559.2 2804.6 -560.15 2803.85 -561.35 2802.65 -563.3 2802.35 -565.7 L2802.25 -568.0 Q2802.25 -571.25 2810.5 -576.0 L2810.25 -577.2 Q2798.0 -575.25 2784.75 -575.25 L2778.2 -575.25 Q2778.75 -573.6 2778.75 -571.75 2778.75 -568.95 2777.4 -566.45 2774.9 -561.9 2768.75 -561.75 L2713.0 -561.75 Q2707.15 -561.9 2704.55 -566.45 2703.0 -569.15 2703.0 -571.75 2703.0 -573.75 2703.9 -575.7 L2703.2 -576.65 2698.35 -577.15 Q2695.7 -577.65 2695.0 -578.8 2694.6 -579.4 2694.6 -581.1 2694.6 -581.85 2694.9 -582.55 2678.8 -576.3 2667.35 -572.2 2653.8 -567.35 2645.15 -565.15 L2645.3 -563.15 Q2645.2 -561.2 2643.0 -559.8 2636.5 -555.75 2611.0 -555.75 2584.65 -555.75 2578.05 -561.3 2576.05 -563.0 2576.35 -564.8 L2576.7 -565.75 Q2577.0 -566.05 2577.0 -565.75 2577.0 -570.55 2587.65 -573.35 2592.5 -574.6 2598.45 -575.25 L2598.1 -575.55 Q2579.45 -577.2 2577.1 -582.4 2576.0 -584.8 2578.2 -588.85 2580.9 -593.8 2581.0 -594.75 2571.65 -593.8 2567.3 -599.6 2564.5 -603.35 2564.5 -608.0 2564.5 -616.6 2567.95 -619.15 2570.75 -621.25 2577.05 -619.8 L2585.5 -617.35 Q2587.75 -620.5 2589.6 -621.1 L2657.35 -621.6 Q2664.05 -622.15 2669.25 -623.4 L2677.2 -626.25 2678.55 -627.0 Q2682.25 -629.15 2684.5 -632.25 L2678.45 -632.7 2669.35 -633.6 Q2666.6 -634.8 2666.6 -638.1 2666.6 -641.15 2671.45 -642.4 L2682.1 -642.75 Q2687.7 -642.1 2691.75 -640.35 2694.6 -641.1 2698.15 -639.3 2701.25 -637.75 2703.45 -634.8 2705.6 -631.9 2705.6 -629.5 2705.6 -626.5 2704.4 -625.0 2702.25 -622.35 2696.6 -622.3 2695.3 -621.0 2692.3 -619.2 L2690.7 -618.25 2691.0 -618.25 2701.85 -615.0 Q2704.85 -614.05 2708.5 -613.9 2714.8 -613.7 2768.0 -614.25 2787.75 -614.25 2793.35 -608.25 2794.9 -606.6 2795.3 -604.45 L2811.25 -607.9 2811.75 -607.25 Q2816.9 -601.25 2835.75 -601.25 2852.15 -601.25 2854.3 -602.45 2854.65 -602.65 2855.6 -604.0 2856.5 -605.25 2858.75 -606.25 L2908.75 -606.75 Q2915.9 -603.0 2921.95 -607.8 2927.15 -611.9 2927.25 -617.25 2934.7 -618.6 2941.15 -613.95 2944.8 -611.3 2946.75 -607.35 2948.7 -603.4 2948.25 -599.75 L2948.25 -598.75 2960.75 -598.75 Q2962.9 -599.15 2994.95 -609.85 L3000.55 -611.7 Q3002.3 -604.95 3014.8 -600.8 3031.4 -595.25 3064.75 -595.25 3071.7 -595.25 3074.15 -597.3 3075.1 -598.05 3076.55 -601.75 3077.75 -604.8 3081.05 -606.2 3085.8 -608.25 3096.75 -608.25 L3100.35 -605.3 3099.3 -604.8 3084.05 -597.75 Q3107.55 -593.1 3142.6 -592.75 3144.7 -590.5 3148.8 -588.75 3166.2 -581.25 3222.75 -581.25 3236.45 -581.25 3241.75 -583.8 3247.25 -586.45 3247.25 -593.5 3247.25 -597.3 3239.1 -601.0 L3241.9 -602.05 Q3245.4 -603.4 3260.1 -611.2 3271.75 -617.4 3285.75 -621.25 3316.75 -629.75 3337.35 -633.95 3336.25 -631.85 3336.25 -629.5 3335.9 -625.55 3337.25 -622.1 3339.95 -615.25 3348.75 -615.25 3372.55 -615.25 3387.3 -617.8 3385.75 -615.55 3383.0 -614.5 3379.1 -613.0 3363.95 -612.35 3345.35 -611.6 3331.55 -609.1 3308.7 -604.95 3285.25 -594.75 L3279.45 -592.25 3366.75 -592.25 Q3396.4 -587.3 3405.4 -596.8 3407.8 -599.35 3410.6 -605.7 3412.4 -609.8 3414.2 -612.1 L3424.75 -611.25 Q3434.35 -611.25 3441.3 -613.25 3450.3 -613.45 3456.45 -615.05 3460.75 -616.15 3466.45 -619.0 3472.3 -621.9 3476.25 -622.95 3483.0 -624.75 3493.25 -624.75 L3506.35 -624.4 3509.45 -622.6 Q3516.35 -619.25 3524.5 -619.25 3529.0 -619.25 3532.85 -621.3 L3533.8 -620.65 Q3535.0 -617.55 3535.0 -614.0 3535.0 -604.8 3533.75 -600.55 3532.7 -597.0 3529.5 -593.55 L3521.5 -584.95 Q3515.35 -577.65 3509.0 -566.75 L3509.0 -566.25 Q3519.95 -570.1 3537.25 -584.3 L3562.5 -605.75 Q3571.35 -612.95 3600.95 -617.1 L3622.75 -619.75 Q3634.25 -621.0 3637.5 -621.75 3644.5 -623.3 3662.85 -625.55 3662.0 -623.05 3662.0 -620.0 3662.0 -615.85 3663.45 -613.25 3666.75 -607.25 3676.5 -607.25 3699.3 -607.25 3715.3 -613.35 3718.2 -614.45 3726.6 -618.3 3732.8 -621.2 3737.0 -622.25 L3816.5 -623.25 Q3825.45 -624.9 3840.35 -628.65 L3856.5 -632.75 3914.5 -633.25 Q3919.8 -631.9 3923.75 -637.2 3927.0 -641.55 3927.0 -645.5 L3926.7 -648.7 3928.05 -648.45 3942.35 -644.8 Q3953.35 -641.75 3968.5 -638.75 L4030.7 -638.45 4048.5 -640.25 4123.95 -641.0 4131.5 -641.25 4130.4 -645.35 4130.1 -648.3 Q4123.15 -650.7 4116.2 -652.3 4125.0 -654.15 4135.05 -659.3 4152.75 -668.3 4152.75 -678.75 4152.75 -685.95 4149.1 -689.15 L4171.05 -690.3 Q4167.5 -691.15 4164.9 -692.45 4156.35 -693.7 4152.45 -698.35 4149.75 -701.65 4149.75 -707.5 4149.75 -713.0 4159.0 -717.85 4153.75 -711.4 4153.75 -708.0 4153.75 -704.2 4155.35 -701.25 4158.6 -695.25 4167.25 -695.25 4170.0 -695.25 4175.65 -698.75 4181.1 -702.15 4186.8 -707.25 4200.75 -719.8 4200.75 -727.5 4200.75 -731.75 4199.8 -734.55 L4207.75 -736.75 Q4198.3 -741.9 4187.95 -746.95 L4175.15 -753.05 4170.9 -755.0 Q4170.7 -755.1 4170.55 -755.15 L4158.65 -756.65 4134.5 -759.75 Q4132.25 -759.0 4129.5 -759.0 L4116.75 -762.05 Q4065.5 -768.85 4024.5 -775.0 4012.65 -776.75 3995.65 -785.0 3996.7 -785.4 3997.5 -786.55 L3999.2 -789.2 3984.65 -796.05 Q3978.65 -798.85 3976.45 -800.4 3973.75 -802.3 3972.8 -804.9 3972.0 -807.2 3972.0 -812.2 3972.0 -818.5 3976.85 -823.2 L3981.4 -826.7 3984.5 -828.4 Q3988.55 -830.35 3994.5 -832.1 L4033.6 -832.8 Q4051.6 -835.35 4061.35 -840.55 4069.7 -845.1 4071.2 -851.2 L4084.4 -852.4 4085.6 -856.2 Q4085.6 -856.75 4084.35 -858.0 4082.95 -859.45 4081.6 -860.0 L4077.6 -859.7 Q4085.0 -866.0 4085.0 -872.5 4085.0 -879.8 4082.45 -883.7 M4131.45 -546.75 L4138.5 -546.75 Q4141.2 -548.1 4167.25 -549.25 4170.7 -550.95 4173.85 -554.15 4175.8 -556.15 4181.05 -556.95 L4238.9 -559.95 4217.2 -542.45 4206.15 -532.8 4198.25 -532.75 Q4192.55 -531.55 4188.75 -529.15 4184.05 -526.2 4181.8 -525.4 L4179.35 -524.65 Q4176.1 -518.5 4165.75 -515.15 4153.55 -511.25 4131.5 -511.25 4122.15 -511.25 4108.75 -517.05 4096.25 -523.1 4093.5 -523.75 L4079.05 -527.15 Q4048.35 -524.15 4037.45 -530.45 4033.1 -532.95 4032.15 -536.85 4032.0 -537.5 4032.0 -541.5 4032.0 -543.9 4035.3 -549.25 4038.65 -554.75 4043.6 -560.2 4056.2 -574.25 4065.5 -574.25 4078.05 -574.25 4079.05 -565.9 4079.35 -563.15 4078.4 -559.4 L4077.0 -554.75 Q4103.75 -555.85 4108.9 -553.2 4110.55 -552.3 4111.15 -550.25 4111.9 -547.8 4113.0 -546.75 L4131.45 -546.75 M4133.65 -921.75 L4135.0 -920.45 Q4136.55 -919.15 4138.5 -918.0 L4138.5 -917.5 Q4138.5 -914.0 4140.95 -909.55 4144.0 -904.15 4149.6 -899.75 4138.4 -899.5 4133.45 -904.7 4130.0 -908.3 4130.0 -914.5 4130.0 -918.25 4133.65 -921.75 M4051.45 -846.5 L4055.25 -847.75 Q4053.15 -846.25 4050.9 -845.3 L4049.95 -844.9 4051.45 -846.5 M3835.9 -656.0 L3832.55 -655.45 Q3825.2 -654.1 3818.25 -651.3 3823.75 -656.35 3835.9 -656.0 M4076.65 -678.65 Q4076.95 -679.8 4077.4 -680.45 4079.6 -683.45 4088.4 -684.9 L4103.75 -686.5 Q4097.9 -683.45 4091.5 -679.25 L4076.65 -678.65 M3576.75 -643.8 L3577.0 -646.75 Q3577.0 -649.9 3574.75 -651.35 3573.85 -651.95 3568.8 -653.75 3557.95 -657.6 3551.0 -668.25 3549.95 -669.75 3549.3 -672.0 3564.7 -668.85 3579.95 -667.15 3586.4 -665.95 3588.6 -663.75 3591.0 -661.35 3591.0 -655.5 3591.0 -650.0 3585.8 -647.0 3582.35 -645.0 3576.75 -643.8 M3533.7 -725.65 L3531.65 -726.85 Q3525.85 -729.5 3513.5 -727.75 3509.9 -727.25 3506.75 -725.55 L3507.8 -726.95 Q3510.65 -730.05 3517.5 -731.75 3530.6 -735.0 3533.7 -725.65 M3488.3 -695.6 L3486.0 -686.75 Q3484.5 -679.9 3478.5 -673.95 3474.6 -670.05 3466.45 -664.75 3459.75 -660.45 3456.75 -658.1 3460.95 -664.55 3466.3 -671.4 3476.25 -684.1 3488.3 -695.6 M3141.25 -628.2 Q3141.0 -634.85 3137.35 -638.85 3131.05 -645.85 3116.75 -639.25 L3094.8 -638.85 Q3145.25 -649.35 3145.25 -633.5 3145.25 -631.5 3141.25 -628.2 M3044.35 -625.65 L3044.25 -625.25 3042.8 -625.2 3044.35 -625.65 M2941.2 -663.85 Q2942.9 -660.95 2943.3 -656.95 L2943.25 -649.25 Q2943.25 -638.1 2941.65 -632.45 2938.4 -621.1 2928.75 -621.25 L2926.85 -621.2 Q2928.9 -626.55 2931.4 -635.15 2936.2 -651.55 2937.45 -655.15 2939.3 -660.4 2941.2 -663.85 M2858.9 -651.35 L2861.4 -653.45 2860.75 -651.25 2858.9 -651.35 M2881.95 -663.25 Q2888.65 -665.4 2897.75 -667.75 2904.65 -669.55 2910.5 -670.5 2908.75 -669.4 2906.3 -668.35 2899.1 -665.3 2897.25 -663.25 2888.5 -663.5 2881.95 -663.25 M2471.5 -598.85 Q2471.5 -600.75 2472.35 -601.45 2473.1 -602.1 2475.75 -602.7 2486.4 -605.25 2495.1 -608.85 2497.85 -610.0 2499.65 -612.05 L2502.75 -615.25 Q2507.65 -618.7 2526.6 -618.6 L2529.4 -619.2 Q2541.1 -626.9 2542.1 -628.6 2548.4 -639.2 2552.05 -632.15 2554.6 -627.25 2554.6 -620.75 L2554.35 -615.9 Q2553.4 -612.1 2549.6 -612.1 2548.1 -612.1 2546.4 -613.45 L2544.6 -614.85 Q2543.65 -614.85 2540.6 -612.7 L2540.15 -612.35 Q2539.45 -611.2 2537.7 -610.45 L2537.3 -610.25 2534.05 -607.95 Q2524.1 -601.1 2518.1 -601.1 2514.35 -601.1 2513.1 -603.45 2512.6 -604.45 2512.6 -606.1 2512.6 -606.65 2513.45 -607.6 L2513.1 -607.6 Q2507.3 -603.4 2500.9 -599.95 2488.35 -593.1 2476.5 -593.1 2473.1 -593.1 2472.0 -595.85 2471.4 -597.25 2471.5 -598.85 M2088.25 -536.75 L2088.9 -536.75 2089.0 -539.0 2089.0 -539.95 2083.8 -539.5 Q2085.65 -537.6 2088.0 -537.25 L2088.25 -536.75" fill="#635749" fill-rule="evenodd" stroke="none"/>
    <path d="M12.9 -827.2 L13.2 -831.1 14.05 -843.1 14.2 -839.15 Q14.4 -832.05 12.9 -827.2" fill="#666666" fill-rule="evenodd" stroke="none"/>
    <path d="M1325.25 -628.15 Q1325.25 -627.65 1324.75 -627.05 L1324.65 -627.0 1326.65 -626.75 Q1326.75 -627.1 1326.75 -626.5 1326.75 -626.0 1326.35 -625.45 1325.85 -624.75 1325.0 -624.5 L1326.85 -623.35 Q1328.25 -622.35 1328.25 -621.9 1328.25 -621.45 1327.6 -620.75 L1327.5 -620.6 1329.15 -621.1 1329.9 -621.3 1330.65 -621.15 1330.75 -620.75 Q1330.75 -619.85 1326.25 -617.95 1321.6 -616.05 1319.15 -616.05 L1317.6 -616.15 1317.5 -616.75 1320.65 -620.3 1320.9 -620.5 Q1319.85 -620.05 1319.1 -621.55 1318.5 -622.7 1318.5 -623.5 L1318.75 -624.0 1319.15 -624.05 1320.15 -624.1 1321.4 -624.3 1321.75 -624.4 1320.75 -626.4 1321.1 -627.2 1321.55 -627.8 1320.65 -627.8 1320.0 -628.5 1320.25 -629.0 1320.65 -629.05 Q1324.55 -629.55 1325.45 -629.95 L1327.4 -631.05 1331.25 -631.05 1331.85 -630.5 1331.65 -629.85 Q1328.2 -629.55 1325.25 -628.4 L1325.25 -628.15 M1321.2 -618.6 L1320.9 -618.8 1320.0 -617.85 1319.85 -617.75 1321.35 -618.05 1321.85 -618.25 1321.2 -618.6" fill="#92987c" fill-rule="evenodd" stroke="none"/>
  </g>
</svg>
