<?xml version="1.0" encoding="UTF-8" standalone="no"?>
<svg xmlns:ffdec="https://www.free-decompiler.com/flash" xmlns:xlink="http://www.w3.org/1999/xlink" ffdec:objectType="shape" height="519.1px" width="2789.8px" xmlns="http://www.w3.org/2000/svg">
  <g transform="matrix(1.0, 0.0, 0.0, 1.0, -312.5, 291.0)">
    <path d="M2906.25 -204.35 Q2921.3 -205.15 2925.45 -199.45 2926.75 -197.65 2926.85 -195.25 L2926.7 -192.8 Q2926.7 -185.95 2924.75 -183.3 2923.2 -181.25 2919.4 -180.65 L2911.55 -179.4 Q2906.3 -178.0 2902.0 -174.05 L2928.75 -174.95 Q2942.55 -175.05 2947.5 -169.35 L2964.8 -169.35 Q2967.5 -172.05 2976.0 -176.0 2987.2 -181.25 2996.05 -181.25 3000.4 -181.25 3002.1 -178.3 3002.95 -176.8 3002.95 -175.0 L3002.9 -174.3 Q3005.45 -172.6 3005.45 -168.75 3005.45 -164.75 2982.95 -159.35 2959.5 -153.75 2939.2 -153.75 L2918.6 -154.45 2910.6 -152.0 2893.05 -146.3 Q2868.5 -138.75 2853.4 -138.75 2843.15 -138.75 2842.0 -140.3 2841.7 -140.75 2841.9 -141.9 2842.05 -143.1 2841.55 -143.75 L2782.8 -143.75 Q2777.8 -145.15 2776.8 -147.55 L2776.55 -151.85 Q2774.05 -151.0 2765.35 -150.15 L2725.0 -146.85 Q2717.6 -146.25 2712.05 -144.4 2709.75 -143.65 2704.8 -141.35 2703.9 -139.55 2701.6 -138.15 2696.5 -135.0 2685.3 -135.0 2683.35 -135.0 2680.4 -136.25 L2680.3 -136.25 2675.35 -136.5 Q2674.2 -134.75 2673.8 -131.85 L2672.6 -123.75 Q2669.4 -113.75 2648.4 -113.75 2639.35 -113.75 2634.15 -115.0 2624.65 -115.1 2623.25 -116.35 2622.85 -116.7 2622.7 -117.75 2622.6 -118.75 2621.85 -119.35 L2609.05 -119.35 Q2602.5 -119.0 2598.4 -117.3 2595.7 -116.15 2588.45 -115.75 L2583.25 -113.7 Q2583.25 -111.7 2581.75 -109.35 2578.85 -104.75 2571.55 -105.0 L2559.35 -105.0 Q2554.0 -103.75 2549.65 -103.75 L2538.05 -105.0 2536.55 -105.0 2534.0 -105.65 2529.3 -106.55 2526.05 -107.2 Q2524.75 -104.7 2521.75 -101.85 2515.8 -96.25 2507.8 -96.25 2499.6 -96.25 2485.2 -99.65 2470.85 -103.1 2464.5 -103.1 2453.95 -103.1 2441.2 -97.85 2434.8 -95.1 2431.95 -93.9 2427.05 -91.8 2424.05 -91.25 L2403.7 -90.85 2394.65 -89.35 Q2393.25 -88.7 2392.7 -87.95 L2392.05 -86.95 Q2391.1 -86.25 2383.4 -86.25 2374.55 -86.25 2372.2 -89.2 2371.55 -90.0 2371.55 -92.5 2371.55 -94.55 2373.1 -95.8 2374.75 -97.1 2378.0 -97.95 2378.4 -99.4 2379.4 -100.6 2381.65 -103.1 2386.55 -103.75 L2393.45 -103.85 Q2400.0 -107.45 2410.75 -110.1 2422.55 -113.05 2438.4 -114.65 2443.25 -115.1 2461.2 -122.05 2482.4 -128.75 2505.9 -128.75 2507.55 -128.75 2515.05 -124.5 2517.85 -122.95 2520.35 -121.95 L2525.9 -122.5 2530.55 -122.25 Q2532.05 -123.2 2534.05 -123.75 L2565.0 -124.35 Q2571.3 -124.4 2576.1 -125.55 L2579.95 -127.0 2581.45 -127.4 Q2584.4 -128.9 2589.8 -132.85 2595.25 -136.9 2600.45 -138.65 2608.35 -141.25 2620.9 -141.25 2623.2 -141.25 2630.95 -134.3 L2636.5 -129.3 2641.6 -130.15 Q2638.35 -132.75 2637.2 -136.1 2636.55 -138.0 2636.55 -145.45 2636.55 -152.4 2637.25 -154.2 2638.1 -156.35 2641.75 -158.0 L2653.55 -163.05 Q2663.95 -167.85 2676.25 -175.6 2690.9 -184.8 2698.65 -176.65 2703.0 -172.05 2703.85 -165.2 L2708.4 -165.85 2769.05 -168.1 Q2771.7 -178.55 2788.3 -178.55 L2800.95 -177.7 Q2807.85 -177.05 2809.8 -177.5 2799.9 -177.6 2796.75 -181.2 2795.3 -182.85 2795.3 -186.4 2795.3 -191.25 2808.75 -196.55 2821.35 -201.5 2840.4 -204.85 2860.0 -208.35 2877.25 -208.45 2896.4 -208.6 2906.25 -204.35 M2884.2 -171.25 L2892.5 -171.85 2884.2 -172.15 2884.2 -171.25 M2864.8 -190.6 L2866.05 -190.9 Q2857.85 -190.75 2850.65 -189.2 2842.85 -187.55 2832.5 -187.15 L2839.35 -186.35 2848.55 -185.6 Q2851.2 -185.6 2852.8 -186.6 2855.75 -188.4 2864.8 -190.6 M2962.95 -88.75 L2969.4 -93.05 Q2977.1 -97.95 2983.6 -101.0 3004.2 -110.85 3004.2 -98.75 L2988.75 -90.7 2972.95 -82.5 Q2965.7 -82.5 2963.6 -85.45 2962.95 -86.4 2962.95 -88.75 M3071.05 -83.1 Q3071.05 -93.0 3086.7 -82.35 3094.5 -77.05 3102.3 -69.65 3102.3 -66.0 3096.1 -60.0 3090.1 -54.2 3087.3 -54.2 L3084.45 -54.6 3083.9 -55.0 3083.75 -55.45 3083.55 -58.25 Q3083.55 -60.2 3084.95 -60.95 3087.05 -62.1 3087.65 -62.95 L3077.35 -72.9 Q3071.05 -78.8 3071.05 -83.1 M2093.75 -128.8 Q2098.5 -138.45 2104.05 -146.5 2110.45 -155.8 2114.35 -157.55 2119.05 -159.65 2119.05 -150.0 2119.05 -144.8 2115.2 -137.1 L2106.55 -121.85 Q2134.4 -121.35 2135.05 -121.05 2135.35 -120.9 2134.5 -119.75 2133.55 -118.4 2135.0 -116.85 L2209.65 -116.85 2210.8 -119.2 Q2211.55 -120.85 2212.6 -121.85 2215.85 -125.0 2224.65 -125.0 2235.4 -125.0 2260.95 -111.85 2271.85 -106.25 2278.9 -101.25 2286.55 -95.8 2286.55 -93.1 2286.55 -91.05 2285.9 -89.85 L2284.35 -87.8 2284.05 -87.5 2286.8 -86.15 Q2288.2 -85.3 2290.0 -85.3 2292.3 -85.3 2300.45 -87.0 L2308.4 -88.75 Q2326.2 -88.75 2330.65 -84.1 2332.9 -81.75 2331.55 -79.35 L2331.95 -76.3 Q2331.9 -74.2 2329.4 -72.8 2322.1 -68.75 2292.15 -68.75 2284.5 -69.2 2276.85 -70.95 2261.55 -74.4 2261.55 -80.75 2261.55 -85.55 2261.8 -86.4 2262.25 -87.8 2265.6 -92.15 L2265.9 -92.5 Q2257.8 -96.1 2240.65 -104.7 L2225.6 -112.15 Q2223.45 -112.15 2219.8 -108.0 2216.1 -103.85 2212.8 -103.75 L2131.55 -103.75 Q2130.3 -103.4 2127.2 -105.3 2124.6 -106.9 2123.4 -108.1 2098.2 -106.6 2091.15 -111.2 2088.95 -112.6 2088.75 -114.55 2088.7 -115.55 2089.05 -116.4 2089.05 -119.3 2093.75 -128.8 M2316.35 -90.1 L2314.25 -90.85 Q2309.9 -92.6 2307.8 -94.35 L2307.65 -93.9 Q2307.5 -94.2 2307.5 -98.1 2307.5 -104.05 2315.45 -103.6 2323.5 -103.15 2332.5 -96.25 2330.2 -91.85 2329.15 -90.6 L2328.9 -90.3 2316.35 -90.1 M2292.2 -89.7 L2290.95 -89.65 2292.4 -91.55 2292.2 -89.7" fill="#605446" fill-rule="evenodd" stroke="none"/>
    <path d="M1716.6 91.4 Q1711.8 94.55 1698.4 95.6 1705.3 100.2 1712.85 103.1 L1723.55 106.7 Q1728.4 108.3 1730.2 110.3 1732.5 112.75 1732.5 117.8 1732.5 123.7 1727.45 125.7 1724.6 126.85 1718.4 126.85 1712.3 126.85 1691.3 124.1 1667.85 121.0 1645.7 116.85 1583.75 105.3 1583.75 95.6 1583.75 93.9 1585.6 91.3 1588.25 87.65 1593.1 85.6 L1594.35 84.35 Q1587.35 80.55 1579.2 78.85 L1567.1 77.05 Q1561.35 76.25 1559.15 74.4 1556.25 72.0 1556.25 66.25 1556.25 61.05 1565.6 55.6 L1645.6 55.6 Q1677.45 63.25 1688.65 66.75 1720.0 76.5 1720.0 84.65 1720.0 89.2 1716.6 91.4 M2316.3 71.3 Q2313.7 74.4 2308.75 76.9 2294.0 84.35 2263.75 84.35 2259.0 84.35 2246.65 75.65 2234.05 66.7 2234.05 62.5 2234.05 58.3 2235.9 56.45 2238.3 53.95 2245.15 53.25 2259.75 51.75 2308.75 58.1 2314.0 59.55 2316.45 63.05 2318.1 65.45 2318.1 67.8 2318.1 69.15 2316.3 71.3 M2193.45 172.7 Q2189.75 168.6 2187.0 164.1 2184.65 160.25 2184.65 159.05 2184.65 150.0 2190.9 149.3 2196.15 148.75 2204.65 154.0 2212.2 158.65 2218.4 165.25 2224.65 171.9 2224.65 175.3 2224.65 179.3 2221.6 181.85 2218.6 184.35 2214.05 184.35 2203.9 184.35 2193.45 172.7 M2232.65 215.65 L2222.35 219.85 2214.4 223.05 2213.1 224.5 Q2210.7 226.95 2207.8 228.1 2205.5 226.8 2204.9 224.2 2204.65 223.25 2204.65 220.45 2204.65 213.75 2206.5 213.35 2207.6 213.1 2210.1 214.5 2211.4 212.4 2213.85 209.9 L2215.0 208.8 2214.65 208.75 2151.55 208.1 2149.25 207.35 Q2148.4 206.7 2148.4 204.65 2148.4 202.7 2149.5 202.2 L2151.55 201.85 2209.65 201.25 Q2211.05 200.1 2217.55 199.2 L2231.5 198.1 Q2235.15 196.7 2237.95 196.75 2243.4 196.85 2243.4 202.8 2243.4 210.5 2232.65 215.65 M1100.15 -24.25 Q1104.3 -28.75 1115.3 -29.35 L1144.7 -28.4 1191.85 -26.85 Q1216.25 -26.85 1223.05 -15.6 1226.5 -9.95 1225.0 -4.35 1225.0 3.2 1224.1 5.55 1223.15 7.9 1220.05 7.8 L1211.0 6.35 Q1203.0 5.0 1195.0 5.0 L1168.75 12.2 Q1142.8 19.35 1141.55 19.35 1108.05 19.35 1099.15 8.95 1096.05 5.35 1095.7 0.1 1095.5 -2.8 1095.9 -7.5 1095.9 -19.55 1100.15 -24.25" fill="#796b59" fill-rule="evenodd" stroke="none"/>
    <path d="M1354.85 133.15 Q1353.1 136.05 1348.4 138.15 1341.05 141.5 1310.15 147.5 L1273.9 147.5 Q1265.9 145.35 1257.9 143.85 L1248.4 142.1 Q1244.95 141.3 1243.8 140.15 1242.65 138.95 1242.65 136.05 1242.65 135.55 1243.85 133.75 1245.5 131.25 1247.95 129.65 L1237.95 122.15 Q1233.9 119.1 1233.9 117.3 1233.9 112.2 1237.55 111.4 1240.6 110.7 1247.15 112.95 L1251.15 114.45 1253.25 114.35 Q1266.15 114.05 1282.05 116.2 1296.65 118.2 1306.75 121.5 1308.3 120.65 1310.75 120.25 L1324.3 120.85 1345.75 117.5 Q1354.1 117.5 1356.05 121.55 1357.05 123.6 1356.4 125.9 1356.4 130.55 1354.85 133.15 M883.45 -39.65 Q902.8 -32.7 945.0 -7.8 949.5 -5.45 956.8 -3.4 961.0 -2.15 969.6 0.05 984.95 4.3 989.8 10.75 991.05 12.55 991.45 16.3 991.85 20.45 992.65 22.0 994.7 25.95 999.75 28.35 1003.9 30.3 1003.9 32.3 1003.9 36.3 1001.7 37.2 L991.25 37.95 Q961.2 37.95 959.2 40.25 958.9 40.55 959.1 41.05 L959.4 41.8 Q959.4 42.5 955.6 42.5 945.15 37.3 933.6 29.7 910.6 14.55 903.75 2.5 898.35 -6.9 876.35 -19.05 863.35 -26.25 862.3 -26.9 856.25 -30.6 856.25 -32.65 856.25 -49.5 883.45 -39.65 M392.35 -265.9 Q389.0 -269.25 388.75 -272.15 L379.9 -272.6 376.25 -272.8 Q374.65 -272.8 369.35 -271.4 364.05 -270.0 362.5 -270.0 348.95 -270.0 330.65 -275.9 312.5 -281.75 312.5 -285.9 312.5 -292.4 339.1 -290.65 L372.5 -287.5 Q397.25 -287.5 403.45 -279.4 405.45 -276.75 405.45 -273.3 L405.0 -269.5 Q405.0 -267.3 403.8 -265.3 402.1 -262.5 398.75 -262.5 395.75 -262.5 392.35 -265.9" fill="#484035" fill-rule="evenodd" stroke="none"/>
  </g>
</svg>
