<?xml version="1.0" encoding="UTF-8" standalone="no"?>
<svg xmlns:ffdec="https://www.free-decompiler.com/flash" xmlns:xlink="http://www.w3.org/1999/xlink" ffdec:objectType="shape" height="43.15px" width="52.05px" xmlns="http://www.w3.org/2000/svg">
  <g transform="matrix(1.0, 0.0, 0.0, 1.0, -1446.5, -905.4)">
    <path d="M1474.85 905.4 Q1478.75 905.65 1484.5 909.9 1490.15 914.1 1494.15 919.55 1498.55 925.55 1498.55 930.0 1498.55 935.6 1496.8 938.05 1495.35 940.05 1490.7 943.3 1488.15 948.55 1468.9 948.55 1452.55 948.55 1448.0 945.75 1446.6 944.85 1446.5 943.75 L1446.7 942.8 Q1446.7 940.25 1453.65 938.65 L1458.35 937.8 Q1462.0 936.05 1470.45 936.05 1470.45 933.85 1475.45 928.15 L1480.45 922.3 Q1480.45 920.2 1478.9 918.9 L1475.45 917.1 Q1470.45 914.85 1470.45 910.45 1470.45 905.15 1474.85 905.4" fill="#635749" fill-rule="evenodd" stroke="none"/>
  </g>
</svg>
