<?xml version="1.0" encoding="UTF-8" standalone="no"?>
<svg xmlns:ffdec="https://www.free-decompiler.com/flash" xmlns:xlink="http://www.w3.org/1999/xlink" ffdec:objectType="shape" height="294.8px" width="2173.45px" xmlns="http://www.w3.org/2000/svg">
  <g transform="matrix(1.0, 0.0, 0.0, 1.0, 54.05, -693.75)">
    <path d="M1669.9 824.95 L1722.95 824.8 1738.8 823.65 1755.15 822.5 1807.7 822.5 1810.0 820.5 Q1819.8 813.95 1847.65 816.25 L1883.9 816.25 1888.9 817.3 1930.9 817.3 1941.35 815.25 1947.6 814.4 Q1943.0 815.2 1941.3 816.3 1939.1 817.7 1938.95 821.15 L1921.25 825.75 1882.65 826.25 Q1878.1 826.9 1876.85 829.65 1876.4 830.55 1876.4 832.95 1876.4 837.25 1879.85 839.5 1884.45 842.45 1897.65 844.5 1897.65 846.35 1898.55 848.9 L1900.15 853.25 Q1900.15 853.75 1897.0 853.75 1895.4 853.75 1893.6 852.6 L1889.9 850.0 Q1884.0 846.25 1874.5 846.25 1865.2 846.25 1862.05 849.6 1860.15 851.6 1860.15 856.05 1860.15 858.7 1861.4 860.3 L1868.25 868.25 Q1845.95 867.45 1840.15 869.9 1837.8 870.9 1837.55 872.65 1837.4 873.7 1838.3 876.1 1839.15 878.55 1839.1 879.8 1838.95 881.85 1836.75 883.35 1831.15 887.1 1809.8 888.25 L1762.65 888.25 Q1755.2 886.05 1733.35 869.35 L1732.05 868.35 1731.5 867.55 Q1730.65 866.55 1728.5 865.7 1719.05 858.7 1713.95 855.8 L1717.0 854.0 1724.2 849.5 Q1743.1 849.1 1745.1 847.35 1745.7 846.75 1745.2 845.35 1744.65 843.75 1745.15 842.8 L1744.2 839.5 Q1754.4 838.5 1757.55 835.9 1758.9 834.75 1758.9 832.5 1758.9 830.85 1758.05 829.3 1756.5 826.35 1752.65 826.25 L1675.15 825.75 1669.9 824.95 M2119.05 847.75 L2119.05 859.9 2118.7 860.0 2100.3 860.0 Q2089.9 862.05 2084.75 866.8 2083.3 868.15 2082.3 869.65 L2080.9 869.8 Q2070.2 871.15 2050.6 876.3 2036.5 879.95 2023.4 884.05 2012.85 887.45 1996.5 891.15 L1993.75 890.05 Q1983.7 886.6 1969.65 888.55 1969.05 888.05 1967.6 885.05 1966.3 882.35 1963.8 881.0 1955.9 876.75 1929.35 881.05 1923.0 882.0 1920.6 886.45 1919.05 889.4 1919.05 894.65 1919.05 900.3 1927.05 904.05 L1905.45 907.25 Q1903.0 901.25 1893.9 901.25 1879.1 901.25 1869.5 911.85 L1840.9 914.8 1780.15 915.0 1775.45 916.05 1736.45 916.25 Q1723.35 914.5 1715.5 912.25 1700.25 907.9 1700.15 900.55 L1699.5 900.3 Q1681.3 893.05 1665.15 880.5 1651.2 869.6 1642.25 857.65 1633.9 846.55 1633.9 840.15 1633.9 835.15 1637.25 831.5 1638.75 829.85 1640.95 828.6 1640.15 830.2 1640.15 832.5 1640.15 835.55 1649.15 847.05 1656.15 856.0 1658.9 858.75 1664.45 864.05 1679.6 868.6 1681.7 871.6 1685.3 874.95 L1688.45 877.75 1687.65 879.15 Q1686.4 881.1 1686.4 882.65 1686.4 884.75 1687.05 885.85 1688.45 888.35 1692.5 888.7 1692.15 889.65 1692.15 890.15 1692.2 893.2 1702.65 896.25 L1721.4 896.25 Q1722.7 897.5 1724.7 898.6 1730.65 901.95 1743.9 905.0 L1787.3 905.75 1814.0 909.3 Q1839.35 912.5 1848.9 912.5 1863.25 912.5 1871.75 908.25 1878.9 904.7 1878.9 900.15 1878.9 898.3 1878.05 896.75 1876.75 894.45 1873.95 893.95 L1872.05 892.5 Q1867.25 889.3 1866.4 885.75 1890.4 885.95 1900.35 882.35 1909.3 879.1 1910.15 871.25 1928.75 874.25 1936.55 869.7 L1937.0 869.45 1954.05 866.85 Q1976.35 863.4 1983.4 861.7 L2015.15 861.25 2039.65 857.85 Q2061.45 854.75 2077.8 851.55 L2115.55 851.3 Q2116.8 849.15 2119.05 847.75 M1804.35 870.75 Q1802.65 868.4 1802.65 863.9 1802.65 860.6 1804.35 857.65 1806.9 853.4 1812.65 851.25 1811.85 849.9 1811.35 847.95 1807.55 849.4 1802.4 850.55 1793.85 852.45 1777.3 854.4 L1742.3 858.25 Q1747.6 865.1 1758.95 867.6 L1792.3 872.3 1805.9 872.35 1804.35 870.75 M1471.95 821.25 L1459.2 822.3 1454.5 822.35 Q1458.7 821.05 1463.9 821.25 L1471.95 821.25 M1710.25 822.5 L1708.9 822.5 1704.2 823.55 1625.45 823.55 1611.7 822.4 1710.25 822.5" fill="#756756" fill-rule="evenodd" stroke="none"/>
    <path d="M1669.9 824.95 L1675.15 825.75 1752.65 826.25 Q1756.5 826.35 1758.05 829.3 1758.9 830.85 1758.9 832.5 1758.9 834.75 1757.55 835.9 1754.4 838.5 1744.2 839.5 L1745.15 842.8 Q1744.65 843.75 1745.2 845.35 1745.7 846.75 1745.1 847.35 1743.1 849.1 1724.2 849.5 L1717.0 854.0 1713.95 855.8 Q1719.05 858.7 1728.5 865.7 1730.65 866.55 1731.5 867.55 L1732.05 868.35 1733.35 869.35 Q1755.2 886.05 1762.65 888.25 L1809.8 888.25 Q1831.15 887.1 1836.75 883.35 1838.95 881.85 1839.1 879.8 1839.15 878.55 1838.3 876.1 1837.4 873.7 1837.55 872.65 1837.8 870.9 1840.15 869.9 1845.95 867.45 1868.25 868.25 L1861.4 860.3 Q1860.15 858.7 1860.15 856.05 1860.15 851.6 1862.05 849.6 1865.2 846.25 1874.5 846.25 1884.0 846.25 1889.9 850.0 L1893.6 852.6 Q1895.4 853.75 1897.0 853.75 1900.15 853.75 1900.15 853.25 L1898.55 848.9 Q1897.65 846.35 1897.65 844.5 1884.45 842.45 1879.85 839.5 1876.4 837.25 1876.4 832.95 1876.4 830.55 1876.85 829.65 1878.1 826.9 1882.65 826.25 L1921.25 825.75 1938.95 821.15 Q1939.1 817.7 1941.3 816.3 1943.0 815.2 1947.6 814.4 L1950.55 813.9 1969.95 811.45 Q1985.75 809.3 2002.65 805.75 L2002.65 805.0 2095.3 805.0 Q2108.2 813.45 2112.75 817.75 2119.05 823.75 2119.4 829.55 L2119.05 830.3 2119.05 847.75 Q2116.8 849.15 2115.55 851.3 L2077.8 851.55 Q2061.45 854.75 2039.65 857.85 L2015.15 861.25 1983.4 861.7 Q1976.35 863.4 1954.05 866.85 L1937.0 869.45 1936.55 869.7 Q1928.75 874.25 1910.15 871.25 1909.3 879.1 1900.35 882.35 1890.4 885.95 1866.4 885.75 1867.25 889.3 1872.05 892.5 L1873.95 893.95 Q1876.75 894.45 1878.05 896.75 1878.9 898.3 1878.9 900.15 1878.9 904.7 1871.75 908.25 1863.25 912.5 1848.9 912.5 1839.35 912.5 1814.0 909.3 L1787.3 905.75 1743.9 905.0 Q1730.65 901.95 1724.7 898.6 1722.7 897.5 1721.4 896.25 L1702.65 896.25 Q1692.2 893.2 1692.15 890.15 1692.15 889.65 1692.5 888.7 1688.45 888.35 1687.05 885.85 1686.4 884.75 1686.4 882.65 1686.4 881.1 1687.65 879.15 L1688.45 877.75 1685.3 874.95 Q1681.7 871.6 1679.6 868.6 1664.45 864.05 1658.9 858.75 1656.15 856.0 1649.15 847.05 1640.15 835.55 1640.15 832.5 1640.15 830.2 1640.95 828.6 1641.85 826.55 1644.0 825.55 1650.8 822.35 1669.9 824.95 M2118.7 860.0 L2104.3 864.85 Q2093.8 868.15 2082.3 869.65 2083.3 868.15 2084.75 866.8 2089.9 862.05 2100.3 860.0 L2118.7 860.0 M1996.5 891.15 Q1978.4 895.2 1953.25 899.65 L1927.05 904.05 Q1919.05 900.3 1919.05 894.65 1919.05 889.4 1920.6 886.45 1923.0 882.0 1929.35 881.05 1955.9 876.75 1963.8 881.0 1966.3 882.35 1967.6 885.05 1969.05 888.05 1969.65 888.55 1983.7 886.6 1993.75 890.05 L1996.5 891.15 M361.85 886.25 Q367.05 886.25 368.4 890.15 369.1 892.1 368.75 894.35 368.75 899.65 365.25 902.75 361.95 905.65 355.4 907.3 345.6 911.25 325.6 911.25 307.9 911.25 302.1 908.0 287.8 906.6 283.15 903.45 281.15 902.1 280.3 899.8 279.3 897.15 278.75 896.55 263.75 897.65 263.75 890.0 263.75 888.45 265.55 885.4 267.7 881.8 270.65 879.85 279.15 874.15 288.75 886.25 290.5 888.5 290.2 891.3 289.9 893.55 291.05 894.15 292.7 895.05 304.25 895.45 L306.85 895.0 310.5 895.6 329.2 895.75 346.05 895.05 355.6 891.6 356.9 891.15 356.9 891.0 Q356.3 888.65 356.5 887.75 356.8 886.25 361.85 886.25" fill="#635749" fill-rule="evenodd" stroke="none"/>
    <path d="M1473.1 848.05 Q1481.95 846.7 1498.25 851.55 1515.8 857.85 1537.3 871.6 1557.25 884.25 1565.45 893.25 L1583.0 911.25 1595.15 923.7 1589.05 924.4 Q1569.4 920.1 1555.45 927.3 1537.45 937.4 1527.35 942.25 1509.6 950.7 1494.2 952.8 1484.55 954.1 1414.95 965.6 L1313.9 982.0 1263.9 982.5 1250.9 983.95 1238.1 984.8 Q1211.4 984.8 1194.4 982.5 L1181.4 980.0 1128.9 980.0 1123.85 981.3 1120.45 982.3 1086.4 982.5 1066.9 983.95 1047.65 984.8 1030.85 983.95 1013.75 982.5 937.5 982.5 Q917.4 986.05 912.0 986.1 909.45 985.55 905.3 986.05 L863.75 986.25 859.05 987.3 826.25 987.5 821.55 988.55 769.65 988.55 765.0 987.5 730.9 987.3 725.05 986.15 718.75 985.0 671.25 985.0 Q666.75 986.0 663.9 987.95 L617.5 987.5 570.15 982.6 526.85 978.25 523.3 980.3 Q519.55 982.4 517.5 982.5 L427.5 982.5 302.15 974.2 243.75 973.75 Q231.45 968.55 207.7 966.35 L131.85 961.05 Q125.1 960.6 117.25 958.6 L103.3 954.55 Q84.6 949.05 67.5 949.05 54.65 949.05 50.1 950.8 45.5 952.5 30.0 952.5 21.8 952.5 15.15 951.25 L-12.5 951.25 Q-33.1 952.45 -39.55 945.25 -41.8 942.8 -42.35 939.25 L-42.45 936.6 -45.95 934.0 Q-51.35 929.35 -52.5 925.75 L-52.5 848.75 Q-53.3 835.75 -53.6 810.5 L-53.75 785.45 Q-54.8 755.75 -52.2 734.85 -51.45 728.7 -50.35 724.2 -51.3 722.75 -51.45 721.1 L-51.25 718.75 Q-51.25 714.95 -50.0 713.45 -48.1 711.2 -41.75 709.75 -29.2 706.9 22.95 704.05 35.85 703.35 53.4 703.7 74.0 704.1 83.4 705.9 L99.2 705.9 105.8 703.55 Q129.15 695.2 136.25 693.75 L178.75 693.75 210.95 696.4 Q240.3 698.9 248.1 701.85 255.4 704.5 265.85 706.65 280.85 709.65 295.0 709.65 L300.4 709.65 Q304.25 708.75 310.0 708.75 L319.75 708.85 Q331.2 708.0 339.3 706.25 343.8 705.3 349.55 703.45 355.0 701.75 357.5 701.25 L423.75 701.25 470.2 703.25 473.3 702.9 Q476.4 702.95 479.6 704.2 497.7 706.35 507.6 710.0 525.95 716.85 516.55 729.35 L541.9 736.85 543.1 737.2 592.5 737.5 611.1 741.8 614.0 742.45 620.0 742.5 Q622.9 743.55 625.45 744.75 L634.65 745.9 646.85 745.6 Q648.65 744.1 654.2 741.75 660.1 739.3 663.75 738.75 L710.3 738.4 715.0 737.5 758.75 737.5 Q882.75 750.6 936.4 803.5 964.45 831.15 974.45 871.5 982.05 871.25 991.25 871.25 1051.45 871.25 1065.8 876.1 1071.2 877.95 1071.7 880.95 1072.0 882.65 1071.25 886.25 1071.25 888.35 1070.35 890.65 L1068.25 894.8 Q1080.65 893.75 1087.15 900.85 1091.3 905.4 1091.35 909.8 L1103.0 907.4 Q1115.65 905.0 1117.65 905.0 1126.55 905.0 1130.5 911.9 1131.95 914.5 1132.45 917.15 L1142.05 917.3 Q1138.9 914.35 1138.0 911.55 1137.65 910.35 1137.65 906.4 1137.65 899.55 1143.05 894.4 1142.4 890.2 1142.4 885.1 L1142.65 879.5 1142.5 872.7 Q1142.65 867.25 1143.85 863.6 1146.75 855.05 1155.7 855.35 L1155.1 854.65 Q1152.65 851.55 1152.65 847.5 1152.65 843.55 1155.1 840.4 1158.35 836.25 1165.15 835.0 L1184.9 834.8 Q1189.55 833.0 1195.15 831.25 L1285.45 831.25 Q1328.65 827.0 1343.35 830.1 1347.4 830.95 1349.85 832.45 L1363.9 832.5 1368.55 833.4 Q1394.25 813.75 1412.4 828.85 1418.8 834.2 1423.3 843.15 1426.8 850.25 1427.65 855.9 1427.75 860.45 1433.2 865.35 L1436.5 868.05 Q1438.9 866.7 1441.95 865.55 1445.45 864.25 1452.65 862.3 1458.2 860.75 1459.2 860.0 1460.2 859.2 1462.3 855.6 1460.15 852.9 1460.15 851.85 1460.15 843.15 1473.1 848.05 M1459.2 886.2 L1458.5 886.45 1459.45 888.2 1459.7 888.15 1459.2 886.2 M1346.9 915.25 L1332.05 915.25 1332.55 917.1 1344.65 919.35 Q1345.4 916.9 1346.9 915.25 M1452.65 916.25 Q1449.9 916.25 1447.25 915.05 L1412.95 915.1 Q1405.45 916.95 1399.5 919.5 L1398.55 920.45 Q1401.75 922.2 1404.8 924.65 L1406.35 925.9 Q1414.6 927.3 1422.95 927.3 L1426.55 927.2 Q1432.4 923.4 1443.7 919.75 L1450.3 917.7 1453.5 916.25 1452.65 916.25 M361.85 886.25 Q356.8 886.25 356.5 887.75 356.3 888.65 356.9 891.0 L356.9 891.15 355.6 891.6 346.05 895.05 329.2 895.75 310.5 895.6 306.85 895.0 304.25 895.45 Q292.7 895.05 291.05 894.15 289.9 893.55 290.2 891.3 290.5 888.5 288.75 886.25 279.15 874.15 270.65 879.85 267.7 881.8 265.55 885.4 263.75 888.45 263.75 890.0 263.75 897.65 278.75 896.55 279.3 897.15 280.3 899.8 281.15 902.1 283.15 903.45 287.8 906.6 302.1 908.0 307.9 911.25 325.6 911.25 345.6 911.25 355.4 907.3 361.95 905.65 365.25 902.75 368.75 899.65 368.75 894.35 369.1 892.1 368.4 890.15 367.05 886.25 361.85 886.25" fill="#796b59" fill-rule="evenodd" stroke="none"/>
  </g>
</svg>
