<?xml version="1.0" encoding="UTF-8" standalone="no"?>
<svg xmlns:ffdec="https://www.free-decompiler.com/flash" xmlns:xlink="http://www.w3.org/1999/xlink" ffdec:objectType="shape" height="10.2px" width="15.1px" xmlns="http://www.w3.org/2000/svg">
  <g transform="matrix(1.0, 0.0, 0.0, 1.0, 7.45, 5.0)">
    <path d="M3.1 -0.8 Q3.6 -0.6 4.0 -0.15 L4.05 -0.1 Q4.6 0.4 4.9 0.9 L5.9 1.9 6.05 2.0 Q6.5 2.35 6.9 2.7 L7.0 2.8 7.6 3.3 7.65 3.75 7.55 3.8 Q7.45 3.8 7.15 3.6 6.8 3.65 6.55 3.5 6.0 3.5 5.0 2.1 L4.6 1.5 4.4 1.55 4.3 1.7 4.2 1.6 4.1 1.65 3.85 1.65 3.7 1.7 3.65 1.7 Q2.65 1.8 2.2 1.7 L1.0 1.6 -0.6 1.3 -1.2 1.15 -1.65 1.1 -2.85 1.05 -3.8 1.05 -5.25 1.25 -5.15 1.3 -5.15 1.35 -5.25 1.4 -5.4 1.45 Q-5.75 1.5 -5.9 1.1 L-5.95 0.95 -6.1 0.6 -6.05 0.6 -6.15 0.35 -6.25 0.05 -6.35 -0.2 Q-7.0 -1.25 -7.05 -1.55 L-7.05 -1.75 -7.0 -1.75 -7.05 -1.9 -7.15 -1.8 -7.35 -1.95 -7.4 -2.05 -7.45 -2.25 Q-7.5 -2.65 -6.8 -3.35 L-6.35 -4.0 -5.95 -4.3 Q-5.75 -4.5 -5.55 -4.6 L-5.55 -4.7 Q-5.6 -5.05 -5.15 -5.0 L-4.8 -5.0 Q-4.5 -4.95 -3.85 -4.55 L-3.25 -4.15 -1.25 -3.0 -0.35 -2.5 3.25 -0.85 3.2 -0.85 3.1 -0.8 M2.45 -0.75 Q2.1 -0.8 1.7 -0.95 0.6 -1.3 -0.5 -1.8 -1.2 -2.1 -1.8 -2.5 L-1.85 -2.5 -2.15 -2.7 -4.95 -4.4 Q-5.4 -4.2 -5.7 -3.95 -6.05 -3.75 -6.25 -3.4 L-6.85 -2.3 -6.7 -1.85 -6.7 -1.9 Q-6.3 -0.85 -5.85 0.15 L-5.6 0.7 -5.65 0.8 -5.55 0.95 -5.1 1.0 -3.6 0.9 -1.1 1.05 1.8 1.35 4.0 1.55 Q3.85 1.1 3.65 0.7 L2.9 -0.6 2.45 -0.75 M4.35 1.15 L4.4 1.3 4.45 1.4 4.5 1.4 4.6 1.45 4.35 1.15 M0.1 4.8 L-0.6 4.6 Q-1.35 4.35 -2.3 4.0 L-2.95 3.75 Q-2.45 4.3 -2.25 4.8 L-2.3 4.9 Q-2.65 4.75 -3.85 3.85 -5.2 2.8 -5.3 2.4 L-5.3 2.15 -5.15 2.15 -4.6 2.2 -3.85 2.35 -3.3 2.35 -3.0 2.25 Q-2.8 2.15 -2.5 2.1 L-2.4 2.1 -1.9 1.8 Q-1.7 1.65 -1.45 1.7 -1.2 1.8 -0.75 2.1 -0.3 2.25 0.35 2.55 2.35 3.5 4.3 5.05 4.3 5.15 4.1 5.2 L1.1 4.05 0.25 3.75 -1.25 3.45 -1.15 3.5 Q0.2 4.15 0.55 4.65 L1.6 5.1 Q1.15 5.15 0.1 4.8 M-3.35 3.0 L-3.3 3.05 -3.3 3.0 -3.35 3.0" fill="#c57676" fill-rule="evenodd" stroke="none"/>
  </g>
</svg>
