<?xml version="1.0" encoding="UTF-8" standalone="no"?>
<svg xmlns:ffdec="https://www.free-decompiler.com/flash" xmlns:xlink="http://www.w3.org/1999/xlink" ffdec:objectType="shape" height="6.45px" width="12.05px" xmlns="http://www.w3.org/2000/svg">
  <g transform="matrix(1.0, 0.0, 0.0, 1.0, 7.45, 4.7)">
    <path d="M-5.85 -3.7 L-5.8 -3.85 Q-5.75 -3.95 -5.65 -4.0 -5.55 -4.05 -5.4 -4.1 L-5.05 -4.25 -4.8 -4.05 -4.8 -4.0 -4.85 -3.55 -4.9 -3.2 Q-4.9 -3.1 -5.0 -3.05 -5.1 -2.95 -4.95 -2.75 -5.2 -2.55 -5.3 -2.6 L-5.5 -2.75 Q-5.6 -2.85 -5.65 -3.1 L-5.8 -3.4 -5.85 -3.7 M-4.35 -3.7 Q-4.05 -3.45 -3.65 -3.25 -3.75 -3.25 -3.6 -2.9 -3.75 -2.75 -3.95 -2.75 -4.15 -2.75 -4.2 -3.3 -4.3 -3.6 -4.35 -3.7" fill="#ffffff" fill-rule="evenodd" stroke="none"/>
    <path d="M2.6 -0.85 Q2.8 -0.95 3.2 -0.55 L3.6 -0.05 3.65 0.0 Q4.2 0.75 4.35 1.15 L4.4 1.3 4.45 1.4 4.5 1.4 4.6 1.5 4.4 1.55 4.3 1.7 4.2 1.6 4.1 1.65 3.85 1.65 3.7 1.7 3.65 1.7 Q2.65 1.8 2.2 1.7 L1.0 1.6 -0.6 1.3 -1.2 1.15 -1.65 1.1 -2.85 1.05 -3.8 1.05 -5.25 1.25 -5.15 1.3 -5.15 1.35 -5.25 1.4 -5.4 1.45 Q-5.75 1.5 -5.9 1.1 L-5.95 0.95 -6.1 0.6 -6.05 0.6 -6.15 0.35 -6.25 0.05 -6.35 -0.2 Q-7.0 -1.25 -7.05 -1.55 L-7.05 -1.75 -7.0 -1.75 -7.05 -1.9 -7.15 -1.8 -7.35 -1.95 -7.4 -2.05 -7.45 -2.25 Q-7.5 -2.65 -6.8 -3.35 L-6.35 -4.0 -5.95 -4.3 Q-5.75 -4.5 -5.55 -4.6 -5.15 -4.8 -4.8 -4.6 L-4.5 -4.45 Q-3.95 -4.25 -3.7 -3.95 -2.95 -3.55 -2.0 -2.95 L-0.6 -2.1 0.6 -1.5 1.75 -1.1 2.55 -0.85 2.6 -0.85 M2.55 -0.55 L2.85 -0.45 2.75 -0.55 2.55 -0.55 M-6.15 -3.2 L-6.35 -3.0 Q-6.5 -2.85 -6.5 -2.8 L-6.5 -2.6 -6.65 -2.15 -6.65 -2.1 -6.6 -2.05 Q-6.25 -1.65 -6.0 -0.85 -5.75 -0.2 -5.65 0.35 L-5.55 0.65 -5.45 0.8 -4.4 0.75 -3.9 0.7 -3.85 0.7 -3.7 0.65 -2.4 0.65 -1.05 0.7 0.3 1.0 2.7 1.3 3.95 1.4 3.45 0.45 Q3.15 -0.1 2.85 -0.45 1.05 -0.8 -0.45 -1.45 L-0.55 -1.5 -0.85 -1.6 Q-1.15 -1.7 -1.45 -1.95 L-1.9 -2.2 -2.1 -2.35 -2.25 -2.45 -3.25 -3.2 -3.25 -3.25 Q-3.45 -3.25 -3.65 -3.3 -4.0 -3.5 -4.3 -3.7 L-4.8 -4.0 -4.8 -4.05 -5.05 -4.25 -5.4 -4.1 Q-5.55 -4.05 -5.65 -4.0 -5.75 -3.95 -5.8 -3.85 L-5.85 -3.7 -6.15 -3.2 M-5.55 0.7 L-5.55 0.7" fill="#a04545" fill-rule="evenodd" stroke="none"/>
    <path d="M-3.25 -3.2 L-3.35 -3.1 -3.4 -3.0 -3.4 -2.9 Q-3.4 -2.8 -3.45 -2.7 -3.5 -2.5 -3.75 -2.45 -4.0 -2.4 -4.3 -2.8 L-4.35 -2.95 -4.4 -2.95 Q-4.35 -2.8 -4.45 -2.65 -4.55 -2.45 -4.7 -2.4 -4.8 -2.25 -5.0 -2.25 L-5.3 -2.25 -5.45 -2.3 -5.55 -2.3 Q-5.7 -2.35 -5.85 -2.55 L-6.0 -2.8 -6.1 -3.15 -6.15 -3.2 -5.85 -3.7 -5.8 -3.4 -5.65 -3.1 Q-5.6 -2.85 -5.5 -2.75 L-5.3 -2.6 Q-5.2 -2.55 -4.95 -2.75 -5.1 -2.95 -5.0 -3.05 -4.9 -3.1 -4.9 -3.2 L-4.85 -3.55 -4.8 -4.0 -4.3 -3.7 Q-4.0 -3.5 -3.65 -3.3 -3.45 -3.25 -3.25 -3.25 L-3.25 -3.2 M-4.35 -3.7 Q-4.3 -3.6 -4.2 -3.3 -4.15 -2.75 -3.95 -2.75 -3.75 -2.75 -3.6 -2.9 -3.75 -3.25 -3.65 -3.25 -4.05 -3.45 -4.35 -3.7" fill="#111111" fill-rule="evenodd" stroke="none"/>
  </g>
</svg>
