<?xml version="1.0" encoding="UTF-8" standalone="no"?>
<svg xmlns:ffdec="https://www.free-decompiler.com/flash" xmlns:xlink="http://www.w3.org/1999/xlink" ffdec:objectType="shape" height="45.9px" width="45.8px" xmlns="http://www.w3.org/2000/svg">
  <g transform="matrix(1.0, 0.0, 0.0, 1.0, 1.55, 1.3)">
    <path d="M43.25 21.9 Q43.15 31.0 36.65 37.4 L36.5 37.6 Q33.1 40.85 29.0 42.35 25.3 43.65 21.1 43.6 17.2 43.55 13.85 42.35 11.55 41.5 9.5 40.2 7.45 38.8 5.65 37.0 2.05 33.25 0.55 28.65 L-0.2 25.55 -0.2 25.5 -0.35 24.65 -0.55 21.35 Q-0.45 12.25 6.05 5.95 12.6 -0.45 21.65 -0.3 30.75 -0.2 37.05 6.35 40.0 9.4 41.55 12.95 43.3 17.05 43.25 21.9" fill="#b38a0f" fill-rule="evenodd" stroke="none"/>
    <path d="M43.25 21.9 Q43.3 17.05 41.55 12.95 40.0 9.4 37.05 6.35 30.75 -0.2 21.65 -0.3 12.6 -0.45 6.05 5.95 -0.45 12.25 -0.55 21.35 L-0.35 24.65 -0.2 25.5 -0.2 25.55 0.55 28.65 Q2.05 33.25 5.65 37.0 7.45 38.8 9.5 40.2 11.55 41.5 13.85 42.35 17.2 43.55 21.1 43.6 25.3 43.65 29.0 42.35 33.1 40.85 36.5 37.6 L36.65 37.4 Q43.15 31.0 43.25 21.9 M42.45 12.55 Q44.3 16.85 44.25 21.9 44.15 31.4 37.35 38.1 L37.35 38.15 37.25 38.25 Q33.65 41.7 29.35 43.3 25.5 44.65 21.1 44.6 17.0 44.55 13.5 43.3 11.05 42.4 8.95 41.05 L4.95 37.7 Q1.15 33.75 -0.4 28.95 L-1.2 25.7 -1.35 24.75 -1.55 21.35 Q-1.45 11.85 5.35 5.25 12.2 -1.45 21.65 -1.3 31.15 -1.2 37.75 5.65 40.8 8.8 42.45 12.55" fill="#6d550a" fill-rule="evenodd" stroke="none"/>
  </g>
</svg>
