<?xml version="1.0" encoding="UTF-8" standalone="no"?>
<svg xmlns:ffdec="https://www.free-decompiler.com/flash" xmlns:xlink="http://www.w3.org/1999/xlink" ffdec:objectType="shape" height="33.45px" width="35.2px" xmlns="http://www.w3.org/2000/svg">
  <g transform="matrix(1.0, 0.0, 0.0, 1.0, -6.6, -7.0)">
    <path d="M41.6 10.55 Q41.8 10.85 41.8 12.3 41.8 14.7 39.35 17.0 38.65 17.65 37.65 17.85 L36.1 17.9 34.65 17.85 34.4 17.8 33.2 17.6 32.75 17.3 31.65 16.8 31.5 16.75 30.8 16.05 30.7 15.9 Q30.35 15.35 30.15 14.6 L30.0 14.15 Q29.6 12.95 29.75 12.1 L29.7 11.15 Q30.0 9.95 30.7 9.1 31.4 8.2 32.6 7.7 34.1 7.0 35.9 7.0 L37.3 7.05 Q37.85 7.15 39.0 7.85 L40.4 8.95 41.45 10.25 41.6 10.55 M34.15 7.5 L35.45 7.25 33.9 7.5 34.15 7.5 M30.7 15.0 L30.8 15.25 30.8 15.15 30.7 15.0" fill="url(#gradient0)" fill-rule="evenodd" stroke="none"/>
    <path d="M14.75 36.7 Q14.75 38.3 13.1 39.85 L11.95 40.4 10.9 40.45 9.95 40.4 9.8 40.4 8.95 40.25 Q8.8 40.1 8.65 40.05 L7.95 39.7 7.8 39.7 7.35 39.2 7.3 39.1 Q7.05 38.75 6.95 38.25 L6.85 37.95 Q6.55 37.15 6.65 36.55 L6.6 35.9 Q6.8 35.15 7.3 34.55 7.75 33.95 8.55 33.6 9.55 33.15 10.75 33.15 L11.7 33.2 12.85 33.7 13.8 34.45 14.5 35.35 14.6 35.5 14.75 36.7 M9.6 33.5 L10.5 33.35 9.45 33.5 9.6 33.5 M7.3 38.5 L7.35 38.7 7.35 38.6 7.3 38.5" fill="url(#gradient1)" fill-rule="evenodd" stroke="none"/>
  </g>
  <defs>
    <radialGradient cx="0" cy="0" gradientTransform="matrix(0.0061, -4.0E-4, 4.0E-4, 0.0061, 35.75, 12.45)" gradientUnits="userSpaceOnUse" id="gradient0" r="819.2" spreadMethod="pad">
      <stop offset="0.0" stop-color="#ffffff"/>
      <stop offset="0.6392156862745098" stop-color="#fbefbf"/>
      <stop offset="1.0" stop-color="#f0cb2c" stop-opacity="0.0"/>
    </radialGradient>
    <radialGradient cx="0" cy="0" gradientTransform="matrix(0.0041, -2.0E-4, 2.0E-4, 0.0041, 10.7, 36.8)" gradientUnits="userSpaceOnUse" id="gradient1" r="819.2" spreadMethod="pad">
      <stop offset="0.0" stop-color="#ffffff"/>
      <stop offset="0.6392156862745098" stop-color="#fbefbf"/>
      <stop offset="1.0" stop-color="#f0cb2c" stop-opacity="0.0"/>
    </radialGradient>
  </defs>
</svg>
