<?xml version="1.0" encoding="UTF-8" standalone="no"?>
<svg xmlns:ffdec="https://www.free-decompiler.com/flash" xmlns:xlink="http://www.w3.org/1999/xlink" ffdec:objectType="shape" height="41.55px" width="39.85px" xmlns="http://www.w3.org/2000/svg">
  <g transform="matrix(1.0, 0.0, 0.0, 1.0, -0.9, -1.05)">
    <path d="M32.0 4.65 Q27.2 2.0 24.5 1.25 L24.5 1.05 Q28.6 1.65 32.9 3.8 37.35 6.05 37.85 8.0 34.55 6.05 32.0 4.65 M17.2 3.45 L17.9 3.35 18.0 4.0 16.35 6.3 13.5 9.3 13.05 9.3 12.8 9.3 Q12.65 9.3 12.65 8.7 12.65 7.95 14.5 5.7 16.0 3.85 17.2 3.45 M12.65 10.55 L12.65 10.8 12.25 12.05 11.95 12.8 11.0 15.25 10.25 15.3 Q10.85 11.7 12.3 10.0 L12.65 10.55 M9.75 16.3 L10.9 16.35 11.0 17.05 11.0 17.65 10.35 17.85 9.8 17.75 9.65 17.0 9.75 16.3 M1.3 15.0 Q2.75 10.75 5.35 7.45 8.9 2.95 13.5 1.85 9.15 4.75 6.05 9.3 L1.3 16.3 1.3 15.0 M1.55 17.05 L1.55 17.15 2.2 17.95 2.25 19.05 1.8 25.9 1.9 26.4 1.55 26.65 Q1.05 25.65 0.95 23.8 L0.9 20.85 0.9 20.4 0.9 20.15 1.2 17.35 1.15 17.15 1.25 17.0 1.4 17.05 1.55 17.05 M1.55 21.4 L1.45 21.6 1.45 21.65 1.45 22.6 1.5 21.65 1.55 21.4 M38.15 33.15 L38.15 33.55 38.0 33.75 37.5 34.0 37.3 33.95 37.0 33.85 Q36.85 34.2 36.85 33.55 L37.15 33.05 Q37.45 32.75 37.85 32.6 L38.05 32.75 38.15 33.15" fill="#ffffff" fill-rule="evenodd" stroke="none"/>
    <path d="M33.55 10.45 Q34.8 10.8 34.8 11.65 34.8 12.6 33.5 12.6 L32.4 12.5 32.3 11.45 Q32.3 10.1 33.55 10.45 M37.55 19.55 Q37.55 18.15 37.05 16.65 L36.55 15.05 Q36.55 12.8 37.7 15.1 38.8 17.35 38.8 19.5 38.8 25.1 35.25 30.1 30.6 36.55 21.75 37.9 L20.0 37.9 Q19.5 37.8 19.3 37.4 19.95 37.1 23.0 36.1 25.9 35.1 28.8 33.8 30.35 33.15 31.95 31.8 L34.25 29.3 Q35.85 27.1 36.7 24.45 37.55 21.9 37.55 19.55 M17.2 3.45 Q18.05 2.9 19.05 2.75 L19.5 3.5 Q18.2 5.4 15.7 8.1 13.45 10.6 12.55 12.05 L12.25 12.05 12.65 10.8 12.65 10.55 13.05 9.3 13.5 9.3 16.35 6.3 18.0 4.0 17.9 3.35 17.2 3.45 M9.75 16.3 L9.65 17.0 9.8 17.75 10.35 17.85 11.0 17.65 11.0 17.05 10.9 16.35 9.75 16.3 M9.95 15.85 L10.75 15.8 Q11.5 16.45 11.55 17.0 L11.0 18.0 9.75 18.05 9.55 17.85 Q9.3 17.6 9.3 16.85 9.3 16.05 9.95 15.85 M8.7 23.85 Q8.55 23.7 8.55 22.9 L8.6 22.15 8.8 21.8 9.7 21.7 11.55 21.8 11.8 23.0 11.4 23.75 Q11.05 24.3 10.25 24.3 L9.2 24.2 9.05 24.05 8.7 23.85 M6.7 31.0 Q9.15 34.35 10.9 35.5 L16.65 38.4 Q19.7 39.5 26.9 40.4 L27.0 41.0 Q26.05 42.6 21.6 42.6 13.6 42.6 8.3 37.0 5.95 34.5 3.4 29.35 5.05 28.75 6.7 31.0 M6.4 28.0 Q5.5 26.3 5.5 25.75 5.5 24.65 7.0 24.0 L7.8 25.5 7.55 25.75 Q7.55 27.0 8.55 30.55 7.5 30.05 6.4 28.0 M17.55 40.85 L18.0 40.85 16.25 40.4 16.3 40.5 17.55 40.85 M37.3 33.95 L33.0 36.85 32.8 36.65 Q33.95 35.2 37.2 32.4 L40.75 29.25 Q40.4 31.0 38.15 33.15 L38.05 32.75 37.85 32.6 Q37.45 32.75 37.15 33.05 L36.85 33.55 Q36.85 34.2 37.0 33.85 L37.3 33.95" fill="#ffffff" fill-opacity="0.34901962" fill-rule="evenodd" stroke="none"/>
  </g>
</svg>
