<?xml version="1.0" encoding="UTF-8" standalone="no"?>
<svg xmlns:ffdec="https://www.free-decompiler.com/flash" xmlns:xlink="http://www.w3.org/1999/xlink" ffdec:objectType="shape" height="17.5px" width="42.95px" xmlns="http://www.w3.org/2000/svg">
  <g transform="matrix(1.0, 0.0, 0.0, 1.0, -2.6, -7.0)">
    <path d="M41.4 18.75 L39.85 18.85 38.4 18.75 38.15 18.7 36.95 18.5 36.5 18.15 35.4 17.65 35.25 17.6 34.55 16.8 34.45 16.65 Q34.1 16.05 33.9 15.25 L33.75 14.75 Q33.35 13.45 33.5 12.55 L33.45 11.5 Q33.75 10.2 34.45 9.3 35.15 8.3 36.35 7.75 37.85 7.0 39.65 7.0 L41.05 7.05 Q41.6 7.15 42.75 7.9 L44.15 9.1 Q44.95 9.9 45.2 10.55 L45.35 10.85 Q45.55 11.2 45.55 12.75 45.55 15.35 43.1 17.85 42.4 18.55 41.4 18.75 M37.9 7.55 L39.2 7.3 37.65 7.55 37.9 7.55 M34.55 15.85 L34.45 15.65 34.55 15.95 34.55 15.85" fill="url(#gradient0)" fill-rule="evenodd" stroke="none"/>
    <path d="M9.8 18.0 L10.5 18.95 10.6 19.15 10.75 20.4 Q10.75 22.15 9.1 23.85 L7.95 24.45 6.9 24.5 5.95 24.45 5.8 24.4 4.95 24.3 4.65 24.05 3.95 23.7 3.8 23.7 3.35 23.15 3.3 23.05 2.95 22.1 2.85 21.75 Q2.55 20.9 2.65 20.25 L2.6 19.55 Q2.8 18.7 3.3 18.1 3.75 17.45 4.55 17.05 5.55 16.55 6.75 16.55 L7.7 16.6 8.85 17.2 Q9.25 17.35 9.8 18.0 M3.35 22.55 L3.35 22.5 3.3 22.35 3.35 22.55" fill="url(#gradient1)" fill-rule="evenodd" stroke="none"/>
  </g>
  <defs>
    <radialGradient cx="0" cy="0" gradientTransform="matrix(0.0061, -4.0E-4, 4.0E-4, 0.0066, 39.5, 12.95)" gradientUnits="userSpaceOnUse" id="gradient0" r="819.2" spreadMethod="pad">
      <stop offset="0.0" stop-color="#ffffff"/>
      <stop offset="0.6392156862745098" stop-color="#fbefbf"/>
      <stop offset="1.0" stop-color="#f0cb2c" stop-opacity="0.0"/>
    </radialGradient>
    <radialGradient cx="0" cy="0" gradientTransform="matrix(0.0041, -3.0E-4, 2.0E-4, 0.0044, 6.7, 20.55)" gradientUnits="userSpaceOnUse" id="gradient1" r="819.2" spreadMethod="pad">
      <stop offset="0.0" stop-color="#ffffff"/>
      <stop offset="0.6392156862745098" stop-color="#fbefbf"/>
      <stop offset="1.0" stop-color="#f0cb2c" stop-opacity="0.0"/>
    </radialGradient>
  </defs>
</svg>
