<?xml version="1.0" encoding="UTF-8" standalone="no"?>
<svg xmlns:ffdec="https://www.free-decompiler.com/flash" xmlns:xlink="http://www.w3.org/1999/xlink" ffdec:objectType="shape" height="78.6px" width="31.2px" xmlns="http://www.w3.org/2000/svg">
  <g transform="matrix(1.0, 0.0, 0.0, 1.0, 0.25, 20.85)">
    <path d="M9.75 -1.65 L9.75 -1.85 Q9.75 -2.3 10.15 -2.55 L10.35 -2.9 10.35 -2.95 Q10.4 -3.7 10.95 -3.8 L11.0 -3.8 Q11.45 -4.3 11.55 -3.9 11.85 -4.0 11.85 -3.35 L11.65 -2.7 11.6 -2.55 11.6 -2.0 11.65 -0.9 Q11.65 -0.25 11.95 0.5 L12.2 1.1 Q12.6 1.55 13.15 1.7 L14.5 1.25 Q14.65 0.8 15.1 0.8 L15.25 0.15 Q15.4 -1.45 16.6 -1.45 18.0 -1.45 18.55 0.3 L18.8 2.05 Q18.8 4.15 16.8 6.45 14.95 8.55 13.65 8.55 13.2 8.55 13.1 8.2 L13.1 7.8 13.3 7.2 13.3 6.55 Q10.05 9.3 9.15 10.35 L9.05 10.45 8.7 10.95 8.65 11.1 8.4 11.45 Q7.8 12.7 7.8 14.2 L8.1 15.4 8.6 16.55 8.8 16.45 8.8 16.15 Q8.8 15.7 9.55 15.35 10.25 15.1 10.3 15.65 L10.6 15.6 Q11.45 15.6 12.15 16.1 12.7 16.2 13.05 16.9 L13.2 17.2 Q13.8 18.05 13.8 18.45 L13.1 20.1 Q12.75 20.95 12.25 21.05 11.75 21.45 11.25 21.45 L10.95 21.45 Q10.9 21.8 10.5 21.8 10.0 21.8 9.65 21.3 L9.45 21.0 4.2 27.85 3.7 28.6 3.0 30.3 2.05 32.05 1.6 34.05 1.7 34.5 1.65 35.0 1.9 35.2 2.2 35.6 1.95 36.1 1.5 36.45 1.6 37.55 2.05 38.95 2.35 39.85 3.2 41.4 4.0 42.6 Q4.75 43.35 4.95 44.0 L5.05 44.55 4.8 47.1 Q4.55 49.55 4.1 49.55 L4.0 49.55 3.6 49.7 3.2 49.65 2.95 49.7 Q2.55 49.7 2.25 49.0 L3.2 44.95 Q3.2 44.2 1.95 42.85 0.6 41.4 0.5 40.65 L-0.25 36.3 Q-0.25 32.25 2.25 27.45 4.6 22.9 8.6 18.8 6.95 18.4 6.45 16.65 L6.25 13.9 6.3 11.9 Q6.45 11.05 7.2 9.55 L9.65 7.55 Q11.95 5.7 11.95 5.1 L11.85 4.95 11.75 4.75 Q11.75 4.25 12.15 4.3 12.35 4.05 12.9 4.05 13.9 4.05 14.6 5.2 L14.85 5.65 15.6 4.7 Q17.2 2.8 17.2 1.25 L17.0 0.45 16.65 0.3 16.4 2.25 Q15.95 3.7 13.65 3.7 11.9 3.7 10.95 2.75 10.35 2.35 9.95 1.3 L9.5 -0.35 9.75 -1.65 M25.5 -3.8 Q25.5 -4.8 26.05 -4.4 26.6 -4.05 26.95 -3.05 L27.2 -1.25 Q27.2 0.45 26.25 1.8 24.9 3.75 21.85 4.0 25.45 7.3 25.45 11.55 25.45 13.5 24.8 15.55 23.9 18.35 22.15 18.9 23.35 19.75 25.15 21.8 27.75 24.8 28.75 26.85 30.95 31.25 30.95 35.55 30.4 41.0 29.4 42.3 L27.9 44.1 25.65 46.0 24.6 46.85 24.6 47.05 24.4 48.25 Q24.55 49.4 23.9 49.7 L23.65 50.3 Q23.35 50.3 23.15 50.05 L23.0 49.8 22.5 50.45 Q21.95 50.45 21.95 50.0 L22.05 49.2 22.05 48.65 Q22.05 47.45 22.2 46.65 21.85 46.55 21.85 46.25 L22.35 45.95 Q22.55 45.15 22.95 44.95 L24.9 43.75 24.85 43.5 26.95 41.1 27.8 40.0 28.35 38.1 28.5 38.1 28.6 35.3 28.25 31.4 27.95 30.35 27.2 28.2 26.8 27.45 26.15 26.25 21.65 21.45 19.6 19.7 19.35 19.7 Q18.45 19.7 17.7 18.1 17.1 16.85 17.1 16.3 L17.1 16.0 17.1 15.65 Q17.1 13.85 18.9 13.85 20.15 13.85 20.55 14.95 L20.7 16.15 20.65 16.9 22.05 16.7 22.45 16.5 Q22.95 15.85 23.25 14.7 23.6 13.35 23.6 11.8 L23.4 9.9 22.6 8.65 22.05 7.0 21.75 6.55 Q20.05 4.95 20.05 3.65 20.05 3.0 20.6 1.7 21.3 0.05 22.15 0.05 22.8 0.05 22.8 0.6 L22.5 1.85 Q23.85 1.85 24.9 0.3 25.8 -1.05 25.8 -2.1 L25.6 -3.25 25.6 -3.4 25.5 -3.8 M14.3 7.15 L14.3 7.2 14.35 7.2 14.3 7.15 M19.0 15.85 L18.95 15.6 18.8 15.6 18.65 15.9 18.95 16.7 19.0 16.7 19.0 15.85 M10.35 17.4 L10.15 17.75 Q10.7 17.8 10.95 18.35 L11.25 19.25 11.35 19.35 Q11.75 19.1 11.75 18.5 11.75 18.05 11.4 17.75 11.0 17.35 10.35 17.4 M5.5 47.2 Q5.5 46.3 6.05 44.45 6.1 44.2 8.55 45.5 11.95 46.9 16.05 46.9 L19.95 46.5 20.8 46.1 Q21.45 46.1 21.3 46.7 L20.6 49.3 Q20.3 51.7 19.85 51.7 19.4 51.7 19.35 51.35 L19.35 51.0 19.45 50.15 19.4 49.95 18.95 50.45 Q18.5 50.45 18.45 50.2 L18.45 49.9 18.75 48.6 18.75 48.55 18.25 48.7 15.7 48.75 14.7 48.8 Q11.65 48.8 9.75 48.2 L7.85 47.45 7.6 49.0 Q7.55 50.05 7.05 50.05 6.55 50.05 6.35 49.7 L6.1 49.95 Q5.65 49.95 5.55 49.7 L5.55 49.4 5.5 47.2" fill="#000000" fill-rule="evenodd" stroke="none"/>
    <path d="M12.4 30.3 L13.15 30.4 Q14.6 30.7 15.55 31.8 16.6 33.05 16.6 34.85 16.6 35.25 16.0 35.7 L15.9 35.8 15.45 36.0 12.55 36.35 Q11.15 36.35 10.3 34.9 9.7 33.9 9.7 32.95 9.7 31.45 10.8 30.75 11.35 30.4 12.05 30.35 L12.4 30.3 M13.75 32.1 L13.2 32.15 Q13.8 32.6 13.85 33.05 L13.65 33.2 13.35 33.35 13.15 33.4 12.65 33.3 12.85 33.8 Q13.2 34.4 13.95 34.4 L14.35 34.35 14.6 34.15 14.7 33.95 14.9 33.25 Q14.9 32.2 13.75 32.1 M24.15 29.7 L24.75 29.55 Q25.3 29.5 25.75 29.85 26.5 30.5 26.55 32.2 26.55 32.9 25.95 33.9 L25.15 34.8 Q24.35 35.4 23.1 35.4 22.6 35.4 22.25 34.6 L21.95 33.65 Q21.95 32.35 22.6 31.2 23.25 30.1 24.15 29.7 M24.0 31.85 Q24.05 32.4 23.5 32.4 L22.95 32.35 23.05 32.8 Q23.4 33.3 24.05 33.3 24.6 33.3 24.8 32.75 L24.85 32.1 Q24.85 31.2 23.85 31.2 L23.4 31.3 Q24.0 31.5 24.0 31.85" fill="#ffffff" fill-rule="evenodd" stroke="none"/>
    <path d="M22.3 45.9 L22.3 46.55 21.85 50.65 21.85 50.75 21.9 51.1 22.0 52.0 22.3 52.65 22.75 53.85 22.75 54.4 22.15 54.85 Q21.65 54.85 21.5 54.5 L21.3 54.2 20.95 55.75 Q20.45 57.35 19.55 57.6 L19.4 57.7 18.9 57.75 18.2 57.5 18.05 57.2 18.05 57.1 18.0 57.0 18.4 56.45 18.95 56.0 19.3 55.5 19.5 54.85 19.3 55.05 Q18.35 55.65 18.05 55.65 L16.5 55.35 16.5 55.3 16.15 54.95 Q16.15 54.65 16.3 54.5 16.4 54.3 16.8 54.2 L18.05 53.75 18.6 53.4 Q18.7 52.75 19.05 52.1 L20.05 50.15 20.55 48.3 20.6 48.0 20.65 47.65 20.75 46.85 20.8 46.45 22.3 45.9 M6.1 44.55 L6.05 45.1 6.1 46.55 5.7 50.65 5.65 50.75 5.7 51.1 Q5.7 51.7 5.85 52.0 L6.1 52.65 Q6.6 53.3 6.6 53.85 L6.55 54.4 Q6.45 54.85 6.0 54.85 5.5 54.85 5.3 54.5 L5.15 54.2 4.8 55.75 Q4.3 57.35 3.4 57.6 L3.2 57.7 2.75 57.75 2.0 57.5 1.9 57.2 1.9 57.1 1.85 57.0 Q1.85 56.7 2.2 56.45 L2.75 56.0 3.15 55.5 3.35 54.85 3.1 55.05 Q2.2 55.65 1.9 55.65 L0.35 55.35 0.35 55.3 0.0 54.95 Q0.0 54.65 0.15 54.5 0.2 54.3 0.6 54.2 L1.9 53.75 2.4 53.4 2.9 52.1 3.9 50.15 4.35 48.3 4.45 48.0 4.5 47.65 4.6 46.85 4.85 43.75 4.85 43.6 4.8 43.05 4.9 42.1 4.95 42.0 Q4.95 41.7 5.2 41.55 5.5 41.4 5.9 41.9 L6.0 42.4 6.1 42.95 6.1 44.2 6.1 44.55 M23.5 39.15 Q24.9 38.45 25.2 38.45 L25.5 38.9 25.45 39.05 25.25 39.4 24.9 39.65 24.85 39.65 24.2 40.2 Q23.15 40.9 21.7 41.25 L18.75 41.5 16.45 41.45 15.05 41.25 14.65 41.2 14.2 41.1 13.1 40.7 Q11.9 40.2 11.9 39.65 L11.95 39.3 Q12.0 39.05 12.3 38.95 L13.85 39.4 14.3 39.5 14.85 39.65 15.2 39.75 15.45 39.8 15.65 39.8 17.7 40.0 18.05 40.0 18.45 40.0 19.05 39.9 20.05 39.95 20.5 39.95 23.15 39.3 23.35 39.2 23.5 39.15" fill="#c6004a" fill-rule="evenodd" stroke="none"/>
    <path d="M14.8 -13.15 L15.4 -12.65 15.95 -11.3 Q15.85 -11.0 15.45 -11.0 14.75 -11.0 14.5 -12.0 L14.35 -12.9 Q14.35 -13.45 14.8 -13.15 M4.85 43.6 L3.6 42.3 Q1.4 39.55 1.4 36.0 1.4 31.35 4.65 26.75 L7.4 23.15 9.8 19.7 9.85 19.7 10.0 20.4 10.0 20.5 10.05 20.75 Q10.15 21.3 10.65 21.3 11.95 21.3 12.75 20.1 13.35 19.25 13.35 18.75 13.35 18.0 12.7 17.1 11.65 15.75 9.7 15.75 8.95 15.75 8.95 16.95 L8.9 16.95 8.9 17.0 8.75 17.05 8.7 17.05 Q8.05 17.0 7.8 15.6 L7.7 14.05 Q7.7 11.2 9.65 9.45 L11.5 7.95 Q12.55 7.0 13.25 5.85 L13.45 6.25 13.6 6.75 13.45 7.65 13.2 8.55 Q15.5 7.7 17.15 5.35 18.6 3.25 18.6 1.4 L18.15 -0.15 Q17.45 -1.3 16.35 -1.3 15.55 -1.3 15.4 -0.2 L15.4 -0.05 Q15.4 2.05 14.35 2.0 L14.15 2.15 13.45 2.2 Q11.15 2.2 11.15 -1.0 11.15 -2.6 12.3 -4.2 12.7 -4.75 13.7 -4.8 14.65 -4.85 15.05 -5.45 L15.5 -6.15 Q15.95 -6.6 16.6 -6.6 17.2 -6.6 17.95 -5.85 L18.7 -5.1 Q19.55 -5.1 19.9 -6.25 L20.05 -7.5 Q20.05 -8.3 19.5 -8.55 L18.35 -8.75 Q16.65 -8.85 16.65 -10.3 16.65 -10.7 17.95 -11.05 L19.7 -11.2 20.8 -10.6 21.7 -9.95 Q22.4 -9.55 22.45 -8.5 L22.45 -6.9 Q23.15 -6.95 23.5 -7.55 L24.45 -8.6 24.55 -8.55 24.55 -8.4 24.3 -6.75 Q24.3 -6.2 24.6 -5.45 L24.95 -4.4 25.35 -3.55 Q25.8 -2.65 25.8 -1.55 L25.75 -1.15 25.0 0.65 Q23.9 2.35 22.4 2.35 L21.75 2.3 21.85 2.25 22.05 1.6 22.2 0.85 22.1 0.55 20.85 2.4 Q20.4 3.2 20.4 4.05 20.4 4.7 21.8 6.4 L23.5 8.45 Q23.85 8.95 24.05 10.5 L24.2 12.75 Q24.2 13.9 23.45 15.45 22.45 17.55 20.85 17.55 L20.25 17.45 20.25 16.95 20.5 15.7 Q20.5 14.7 19.4 14.1 17.9 13.95 17.5 14.8 17.35 15.05 17.35 15.85 17.35 16.95 18.3 18.0 L19.45 19.25 Q24.7 23.65 26.65 26.6 28.8 29.9 28.8 34.65 L28.8 34.9 28.8 35.65 Q28.8 38.05 27.95 39.95 L27.9 40.05 Q27.35 42.25 24.7 44.3 L24.55 44.45 22.6 45.7 22.3 45.9 20.8 46.45 20.35 46.55 Q18.75 47.15 16.95 47.15 10.0 47.15 6.1 44.55 L6.1 44.2 Q9.4 46.65 15.0 46.65 L18.3 46.35 20.85 45.8 21.35 45.6 22.2 45.15 25.4 42.85 25.7 42.5 26.8 40.95 Q27.65 39.4 27.85 37.7 L27.95 37.2 28.1 34.15 28.05 33.0 27.65 31.05 27.65 31.0 27.3 29.3 Q26.45 27.15 25.55 25.85 24.7 24.65 21.65 21.85 L19.7 20.05 Q18.1 19.2 17.55 18.4 16.9 17.6 16.9 15.95 L17.0 14.6 Q17.4 13.6 18.85 13.6 20.35 13.6 20.75 14.9 21.05 15.8 20.8 16.4 L20.8 16.95 Q23.05 15.25 23.55 14.0 23.75 13.45 23.75 11.2 23.75 9.05 21.95 7.0 20.1 4.95 20.1 4.15 20.1 2.95 21.3 0.9 22.55 -1.1 22.55 0.85 22.35 1.95 21.95 2.2 24.7 1.45 25.35 -0.6 L25.45 -1.65 Q25.45 -2.65 24.95 -3.65 L24.3 -5.35 Q23.75 -6.7 24.15 -7.95 L24.15 -8.05 23.6 -7.35 Q23.05 -6.7 22.65 -6.7 L22.3 -6.75 22.05 -9.1 Q21.7 -10.15 19.35 -10.8 16.9 -10.8 16.9 -10.0 16.9 -9.7 17.25 -9.35 17.55 -9.05 17.9 -9.05 19.4 -9.05 20.05 -8.35 L20.4 -7.65 20.15 -6.15 Q19.7 -4.9 18.7 -4.9 L16.65 -6.15 Q16.1 -6.15 15.6 -5.55 L15.15 -4.9 Q14.9 -4.55 13.8 -4.3 12.7 -4.05 12.55 -3.8 12.15 -3.2 11.9 -2.4 11.6 -1.6 11.6 -0.95 11.6 0.0 11.95 0.7 12.45 1.85 13.8 1.85 14.5 1.85 14.85 1.45 L15.1 1.0 15.0 1.1 15.1 0.9 15.1 -0.05 15.05 -0.3 Q15.05 -1.7 16.55 -1.7 17.95 -1.7 18.55 -0.2 L18.95 1.4 Q18.95 2.85 17.35 5.6 15.4 9.05 13.1 9.05 L12.85 9.0 12.8 8.85 13.15 8.15 13.35 7.55 13.15 6.65 Q13.05 7.35 11.55 8.5 L9.5 10.2 Q8.5 11.5 8.3 12.3 8.15 12.8 8.15 14.05 L8.2 15.3 8.6 16.2 Q8.7 15.65 9.35 15.4 L11.15 15.45 Q13.75 16.15 13.75 18.4 L13.55 19.2 13.3 19.9 12.5 20.95 Q11.6 21.85 10.7 21.85 L9.95 21.6 9.7 21.25 9.75 20.95 8.7 22.25 5.9 25.45 Q1.85 30.65 1.85 36.05 1.85 39.2 3.95 42.05 L4.8 43.05 4.85 43.6 M15.35 -12.2 L14.7 -12.75 14.8 -12.1 Q15.0 -11.65 15.55 -11.55 L15.35 -12.2 M23.4 -19.6 L24.0 -18.95 24.5 -18.55 Q25.05 -18.55 24.9 -19.15 L24.35 -20.7 24.35 -20.85 Q25.3 -20.5 25.75 -19.7 26.1 -19.05 26.1 -18.2 26.1 -17.2 25.9 -16.75 25.4 -15.75 23.8 -15.75 22.45 -15.75 21.75 -16.5 21.3 -16.95 21.3 -17.3 L21.5 -18.5 Q21.8 -19.3 22.6 -19.6 L23.4 -19.6 M25.2 -19.15 L25.2 -18.5 Q25.05 -18.15 24.3 -18.15 L23.8 -18.65 Q23.4 -19.15 23.0 -19.15 22.3 -19.15 22.0 -18.45 L21.85 -17.75 Q21.85 -16.3 23.75 -16.3 24.8 -16.3 25.35 -16.85 25.8 -17.35 25.8 -18.15 25.8 -19.15 25.15 -19.7 L25.2 -19.15 M24.65 29.05 Q25.55 28.75 26.15 29.3 27.05 30.0 27.15 32.2 27.2 33.3 26.7 34.15 26.15 35.05 25.15 35.45 L23.5 35.7 Q22.85 35.7 22.15 34.65 L21.5 33.6 Q21.45 32.25 22.3 30.95 23.1 29.7 24.2 29.2 L24.65 29.05 M15.6 36.4 L14.55 36.7 Q9.25 36.7 9.25 32.95 9.25 31.1 10.5 30.4 11.2 30.0 12.05 30.05 L12.4 30.1 13.2 30.25 Q14.8 30.75 15.9 32.0 17.1 33.45 17.1 35.25 L16.2 36.05 16.05 36.15 15.6 36.4 M12.4 30.3 L12.05 30.35 Q11.35 30.4 10.8 30.75 9.7 31.45 9.7 32.95 9.7 33.9 10.3 34.9 11.15 36.35 12.55 36.35 L15.45 36.0 15.9 35.8 16.0 35.7 Q16.6 35.25 16.6 34.85 16.6 33.05 15.55 31.8 14.6 30.7 13.15 30.4 L12.4 30.3 M13.75 32.1 Q14.9 32.2 14.9 33.25 L14.7 33.95 14.6 34.15 14.35 34.35 13.95 34.4 Q13.2 34.4 12.85 33.8 L12.65 33.3 13.15 33.4 13.35 33.35 13.65 33.2 13.85 33.05 Q13.8 32.6 13.2 32.15 L13.75 32.1 M27.7 30.3 L27.6 30.15 27.7 30.4 27.7 30.3 M24.15 29.7 Q23.25 30.1 22.6 31.2 21.95 32.35 21.95 33.65 L22.25 34.6 Q22.6 35.4 23.1 35.4 24.35 35.4 25.15 34.8 L25.95 33.9 Q26.55 32.9 26.55 32.2 26.5 30.5 25.75 29.85 25.3 29.5 24.75 29.55 L24.15 29.7 M24.0 31.85 Q24.0 31.5 23.4 31.3 L23.85 31.2 Q24.85 31.2 24.85 32.1 L24.8 32.75 Q24.6 33.3 24.05 33.3 23.4 33.3 23.05 32.8 L22.95 32.35 23.5 32.4 Q24.05 32.4 24.0 31.85" fill="#ff2020" fill-rule="evenodd" stroke="none"/>
    <path d="M4.8 43.05 L3.95 42.05 Q1.85 39.2 1.85 36.05 1.85 30.65 5.9 25.45 L8.7 22.25 9.75 20.95 9.7 21.25 9.95 21.6 10.7 21.85 Q11.6 21.85 12.5 20.95 L13.3 19.9 13.55 19.2 13.75 18.4 Q13.75 16.15 11.15 15.45 L9.35 15.4 Q8.7 15.65 8.6 16.2 L8.2 15.3 8.15 14.05 Q8.15 12.8 8.3 12.3 8.5 11.5 9.5 10.2 L11.55 8.5 Q13.05 7.35 13.15 6.65 L13.35 7.55 13.15 8.15 12.8 8.85 12.85 9.0 13.1 9.05 Q15.4 9.05 17.35 5.6 18.95 2.85 18.95 1.4 L18.55 -0.2 Q17.95 -1.7 16.55 -1.7 15.05 -1.7 15.05 -0.3 L15.1 -0.05 15.1 0.9 15.0 1.1 15.1 1.0 14.85 1.45 Q14.5 1.85 13.8 1.85 12.45 1.85 11.95 0.7 11.6 0.0 11.6 -0.95 11.6 -1.6 11.9 -2.4 12.15 -3.2 12.55 -3.8 12.7 -4.05 13.8 -4.3 14.9 -4.55 15.15 -4.9 L15.6 -5.55 Q16.1 -6.15 16.65 -6.15 L18.7 -4.9 Q19.7 -4.9 20.15 -6.15 L20.4 -7.65 20.05 -8.35 Q19.4 -9.05 17.9 -9.05 17.55 -9.05 17.25 -9.35 16.9 -9.7 16.9 -10.0 16.9 -10.8 19.35 -10.8 21.7 -10.15 22.05 -9.1 L22.3 -6.75 22.65 -6.7 Q23.05 -6.7 23.6 -7.35 L24.15 -8.05 24.15 -7.95 Q23.75 -6.7 24.3 -5.35 L24.95 -3.65 Q25.45 -2.65 25.45 -1.65 L25.35 -0.6 Q24.7 1.45 21.95 2.2 22.35 1.95 22.55 0.85 22.55 -1.1 21.3 0.9 20.1 2.95 20.1 4.15 20.1 4.95 21.95 7.0 23.75 9.05 23.75 11.2 23.75 13.45 23.55 14.0 23.05 15.25 20.8 16.95 L20.8 16.4 Q21.05 15.8 20.75 14.9 20.35 13.6 18.85 13.6 17.4 13.6 17.0 14.6 L16.9 15.95 Q16.9 17.6 17.55 18.4 18.1 19.2 19.7 20.05 L21.65 21.85 Q24.7 24.65 25.55 25.85 26.45 27.15 27.3 29.3 L27.65 31.0 27.65 31.05 28.05 33.0 28.1 34.15 27.95 37.2 27.85 37.7 Q27.65 39.4 26.8 40.95 L25.7 42.5 25.4 42.85 22.2 45.15 21.35 45.6 20.85 45.8 18.3 46.35 15.0 46.65 Q9.4 46.65 6.1 44.2 L6.1 42.95 6.0 42.4 5.9 41.9 Q5.5 41.4 5.2 41.55 4.95 41.7 4.95 42.0 L4.9 42.1 4.8 43.05 M15.35 -12.2 L15.55 -11.55 Q15.0 -11.65 14.8 -12.1 L14.7 -12.75 15.35 -12.2 M13.4 -2.65 L13.2 -1.6 Q13.2 -0.55 13.85 -0.3 L13.9 -0.35 13.8 -0.45 13.7 -0.65 Q13.7 -3.4 17.0 -3.4 18.35 -3.4 19.35 -1.7 L20.05 -0.25 20.05 0.0 20.15 0.0 20.2 0.85 20.3 0.8 20.45 0.0 20.5 0.0 21.15 -0.85 Q21.8 -1.35 22.45 -1.35 23.25 -1.35 23.5 -1.7 L23.65 -2.75 23.25 -3.75 22.15 -4.8 Q21.55 -5.25 21.5 -5.95 L21.4 -6.95 20.9 -4.95 Q20.6 -3.55 19.35 -3.55 L18.55 -3.8 17.85 -4.1 17.6 -4.0 17.55 -3.95 17.3 -4.2 Q14.35 -4.55 13.8 -3.6 L13.4 -2.65 M25.2 -19.15 L25.15 -19.7 Q25.8 -19.15 25.8 -18.15 25.8 -17.35 25.35 -16.85 24.8 -16.3 23.75 -16.3 21.85 -16.3 21.85 -17.75 L22.0 -18.45 Q22.3 -19.15 23.0 -19.15 23.4 -19.15 23.8 -18.65 L24.3 -18.15 Q25.05 -18.15 25.2 -18.5 L25.2 -19.15 M24.65 29.05 Q24.05 27.15 22.95 25.95 L17.95 21.35 16.6 19.95 15.55 15.5 Q15.55 14.55 16.7 13.35 17.9 12.1 19.6 11.25 L20.5 11.25 20.95 11.45 21.4 11.7 Q21.9 11.7 21.85 10.75 L21.35 9.3 20.5 7.95 19.75 6.2 Q19.4 5.4 19.1 6.35 L18.4 7.7 16.8 9.1 Q15.45 10.15 12.9 10.45 10.9 10.7 10.9 11.25 10.9 11.75 13.05 15.0 14.6 17.25 15.1 18.75 L14.85 21.2 Q14.1 24.7 11.6 24.7 L11.1 24.25 10.45 23.8 10.25 23.85 8.6 26.95 7.05 29.15 Q5.4 31.6 5.4 35.05 5.4 37.4 7.2 39.9 9.85 43.6 15.1 43.6 19.0 43.6 21.7 41.25 23.15 40.9 24.2 40.2 L24.85 39.65 24.9 39.65 25.25 39.4 25.45 39.05 25.5 38.9 25.2 38.45 Q24.9 38.45 23.5 39.15 24.95 37.05 25.15 35.45 26.15 35.05 26.7 34.15 27.2 33.3 27.15 32.2 27.05 30.0 26.15 29.3 25.55 28.75 24.65 29.05 M23.4 -16.8 Q23.95 -16.8 23.95 -17.5 23.95 -18.1 23.2 -18.2 22.45 -18.25 22.45 -17.6 22.45 -17.4 22.6 -17.15 22.9 -16.8 23.4 -16.8 M9.45 13.0 L9.55 14.1 10.35 13.95 10.6 13.6 10.45 13.1 10.0 12.45 9.5 12.8 9.45 13.0" fill="#ff335b" fill-rule="evenodd" stroke="none"/>
    <path d="M13.4 -2.65 L13.8 -3.6 Q14.35 -4.55 17.3 -4.2 L17.55 -3.95 17.6 -4.0 17.85 -4.1 18.55 -3.8 19.35 -3.55 Q20.6 -3.55 20.9 -4.95 L21.4 -6.95 21.5 -5.95 Q21.55 -5.25 22.15 -4.8 L23.25 -3.75 23.65 -2.75 23.5 -1.7 Q23.25 -1.35 22.45 -1.35 21.8 -1.35 21.15 -0.85 L20.5 0.0 20.45 0.0 20.3 0.8 20.2 0.85 20.15 0.0 20.05 0.0 20.05 -0.25 19.35 -1.7 Q18.35 -3.4 17.0 -3.4 13.7 -3.4 13.7 -0.65 L13.8 -0.45 13.9 -0.35 13.85 -0.3 Q13.2 -0.55 13.2 -1.6 L13.4 -2.65 M23.4 -16.8 Q22.9 -16.8 22.6 -17.15 22.45 -17.4 22.45 -17.6 22.45 -18.25 23.2 -18.2 23.95 -18.1 23.95 -17.5 23.95 -16.8 23.4 -16.8 M21.7 41.25 Q19.0 43.6 15.1 43.6 9.85 43.6 7.2 39.9 5.4 37.4 5.4 35.05 5.4 31.6 7.05 29.15 L8.6 26.95 10.25 23.85 10.45 23.8 11.1 24.25 11.6 24.7 Q14.1 24.7 14.85 21.2 L15.1 18.75 Q14.6 17.25 13.05 15.0 10.9 11.75 10.9 11.25 10.9 10.7 12.9 10.45 15.45 10.15 16.8 9.1 L18.4 7.7 19.1 6.35 Q19.4 5.4 19.75 6.2 L20.5 7.95 21.35 9.3 21.85 10.75 Q21.9 11.7 21.4 11.7 L20.95 11.45 20.5 11.25 19.6 11.25 Q17.9 12.1 16.7 13.35 15.55 14.55 15.55 15.5 L16.6 19.95 17.95 21.35 22.95 25.95 Q24.05 27.15 24.65 29.05 L24.2 29.2 Q23.1 29.7 22.3 30.95 21.45 32.25 21.5 33.6 L22.15 34.65 Q22.85 35.7 23.5 35.7 L25.15 35.45 Q24.95 37.05 23.5 39.15 L23.35 39.2 23.15 39.3 20.5 39.95 20.05 39.95 19.05 39.9 18.45 40.0 19.3 39.1 Q19.7 38.45 19.7 36.5 L19.55 35.05 19.5 32.95 Q19.75 31.7 21.05 31.4 22.15 31.1 22.15 29.75 22.15 28.5 21.55 27.4 20.95 26.3 19.5 24.95 L17.6 22.65 17.4 22.35 16.45 21.65 16.1 21.35 16.15 21.7 Q15.85 21.95 15.85 22.9 L15.95 23.35 16.15 24.0 16.45 25.05 14.25 26.65 Q12.1 28.3 12.05 30.05 11.2 30.0 10.5 30.4 9.25 31.1 9.25 32.95 9.25 36.7 14.55 36.7 L15.6 36.4 15.8 37.8 Q15.8 38.65 15.0 39.5 L14.85 39.65 14.3 39.5 13.85 39.4 12.3 38.95 Q12.0 39.05 11.95 39.3 L11.9 39.65 Q11.9 40.2 13.1 40.7 L14.2 41.1 14.25 41.3 14.9 41.7 16.0 41.7 16.45 41.45 18.75 41.5 21.7 41.25 M19.35 7.75 L19.35 7.65 19.05 7.25 Q18.45 8.65 16.5 10.8 L15.9 11.45 15.55 11.85 14.75 12.35 14.05 13.15 14.0 13.25 14.0 13.3 13.85 13.7 13.85 13.85 13.7 14.15 Q13.7 14.55 14.05 15.25 L14.65 16.35 14.7 16.2 Q15.35 13.8 17.5 12.0 L18.8 10.65 19.3 9.55 19.6 8.9 19.55 8.2 19.35 7.75 M9.45 13.0 L9.5 12.8 10.0 12.45 10.45 13.1 10.6 13.6 10.35 13.95 9.55 14.1 9.45 13.0" fill="#ff884f" fill-rule="evenodd" stroke="none"/>
    <path d="M19.3 7.8 L19.25 9.05 18.9 9.85 17.45 11.6 15.4 13.7 Q14.45 14.9 14.55 15.75 L14.15 14.9 14.15 14.85 13.95 14.05 Q13.95 13.2 14.9 12.5 L16.4 11.3 Q18.7 9.55 19.05 7.45 L19.3 7.8 M12.4 30.1 Q12.45 28.25 14.55 26.85 L16.0 25.85 16.65 24.95 16.15 22.85 16.35 22.3 Q16.55 22.0 16.9 22.1 L20.2 26.2 Q21.75 28.05 21.75 29.85 21.75 30.65 20.45 31.35 19.15 32.1 19.15 33.85 L19.3 37.8 18.4 39.55 18.05 40.0 17.7 40.0 15.65 39.8 15.45 39.8 15.2 39.75 15.35 39.45 Q16.2 38.1 16.2 37.0 L16.05 36.15 16.2 36.05 17.1 35.25 Q17.1 33.45 15.9 32.0 14.8 30.75 13.2 30.25 L12.4 30.1 M18.6 27.6 L18.4 26.7 18.15 25.8 18.05 25.8 Q17.85 27.5 16.5 28.55 15.3 29.55 15.3 31.35 L16.35 32.55 Q17.35 34.05 17.35 35.95 L17.45 35.95 17.7 33.7 17.4 32.7 Q17.4 31.5 18.6 27.6 M15.05 41.25 L14.95 41.25 14.65 41.2 15.05 41.25" fill="#ffcf40" fill-rule="evenodd" stroke="none"/>
    <path d="M16.45 41.45 L16.0 41.7 14.9 41.7 14.25 41.3 14.2 41.1 14.65 41.2 14.95 41.25 15.05 41.25 16.45 41.45 M14.85 39.65 L15.0 39.5 Q15.8 38.65 15.8 37.8 L15.6 36.4 16.05 36.15 16.2 37.0 Q16.2 38.1 15.35 39.45 L15.2 39.75 14.85 39.65 M12.05 30.05 Q12.1 28.3 14.25 26.65 L16.45 25.05 16.15 24.0 15.95 23.35 15.85 22.9 Q15.85 21.95 16.15 21.7 L16.45 21.65 17.4 22.35 17.6 22.65 19.5 24.95 Q20.95 26.3 21.55 27.4 22.15 28.5 22.15 29.75 22.15 31.1 21.05 31.4 19.75 31.7 19.5 32.95 L19.55 35.05 19.7 36.5 Q19.7 38.45 19.3 39.1 L18.45 40.0 18.05 40.0 18.4 39.55 19.3 37.8 19.15 33.85 Q19.15 32.1 20.45 31.35 21.75 30.65 21.75 29.85 21.75 28.05 20.2 26.2 L16.9 22.1 Q16.55 22.0 16.35 22.3 L16.15 22.85 16.65 24.95 16.0 25.85 14.55 26.85 Q12.45 28.25 12.4 30.1 L12.05 30.05 M19.3 7.8 L19.05 7.45 Q18.7 9.55 16.4 11.3 L14.9 12.5 Q13.95 13.2 13.95 14.05 L14.15 14.85 14.15 14.9 14.55 15.75 Q14.45 14.9 15.4 13.7 L17.45 11.6 18.9 9.85 19.25 9.05 19.3 7.8 M19.35 7.75 L19.55 8.2 19.6 8.9 19.3 9.55 18.8 10.65 17.5 12.0 Q15.35 13.8 14.7 16.2 L14.65 16.35 14.05 15.25 Q13.7 14.55 13.7 14.15 L13.85 13.85 13.85 13.7 14.0 13.3 14.0 13.25 14.05 13.15 14.75 12.35 15.55 11.85 15.9 11.45 16.5 10.8 Q18.45 8.65 19.05 7.25 L19.35 7.65 19.35 7.75" fill="#ffc04a" fill-rule="evenodd" stroke="none"/>
    <path d="M16.15 21.7 L16.1 21.35 16.45 21.65 16.15 21.7" fill="#ff3333" fill-rule="evenodd" stroke="none"/>
    <path d="M18.6 27.6 Q17.4 31.5 17.4 32.7 L17.7 33.7 17.45 35.95 17.35 35.95 Q17.35 34.05 16.35 32.55 L15.3 31.35 Q15.3 29.55 16.5 28.55 17.85 27.5 18.05 25.8 L18.15 25.8 18.4 26.7 18.6 27.6" fill="#fff08a" fill-rule="evenodd" stroke="none"/>
  </g>
</svg>
