<?xml version="1.0" encoding="UTF-8" standalone="no"?>
<svg xmlns:ffdec="https://www.free-decompiler.com/flash" xmlns:xlink="http://www.w3.org/1999/xlink" ffdec:objectType="shape" height="50.55px" width="36.55px" xmlns="http://www.w3.org/2000/svg">
  <g transform="matrix(1.0, 0.0, 0.0, 1.0, 1.9, -3.85)">
    <path d="M22.05 6.25 Q21.9 6.95 20.0 8.0 18.2 9.15 17.2 9.05 L14.95 8.6 12.85 8.3 12.5 8.8 13.2 9.45 13.65 10.3 13.55 10.45 13.2 10.5 Q11.95 10.25 11.55 9.75 L10.4 10.4 9.8 10.75 9.2 10.65 8.7 10.65 8.65 10.9 8.5 11.55 7.95 11.75 7.9 11.85 7.6 11.85 7.2 11.7 7.25 11.55 7.25 10.35 6.8 10.2 5.45 11.25 3.6 13.0 Q0.65 15.8 -1.25 15.4 L-1.9 15.1 -0.85 14.25 0.35 13.5 Q0.5 13.3 1.0 13.0 L1.5 12.3 2.0 11.55 2.85 10.05 3.7 8.3 4.45 6.95 4.7 6.2 4.75 5.95 4.8 5.95 5.15 5.9 5.65 6.15 Q6.2 6.2 7.0 6.85 L7.05 6.9 7.2 6.9 7.7 6.2 Q8.3 5.5 9.1 5.8 9.45 5.65 9.9 6.0 L10.1 6.25 10.5 5.65 11.5 3.85 13.55 5.05 Q15.45 6.15 16.2 6.3 18.85 6.85 21.75 5.8 L22.05 6.25 M12.7 33.6 L16.5 33.15 17.05 33.1 18.5 33.2 20.45 33.45 20.85 32.85 21.05 32.85 Q22.05 31.5 22.4 31.25 L23.65 29.95 23.7 29.9 24.05 29.6 24.1 29.45 24.15 29.35 Q24.85 28.85 25.85 23.8 26.85 18.65 26.3 17.85 L25.7 17.35 24.9 17.25 24.7 17.3 Q24.1 17.4 23.5 17.85 L23.25 18.2 23.05 18.35 22.75 18.9 Q22.05 20.15 20.95 24.25 L20.25 27.65 20.2 27.7 19.75 29.25 19.85 29.3 19.75 29.7 19.85 30.15 19.85 30.3 20.0 30.5 20.05 30.6 19.3 30.55 18.15 29.7 18.05 29.5 Q17.95 29.35 18.25 29.15 L18.35 29.1 18.45 29.25 18.75 29.05 20.1 23.25 20.5 21.6 20.6 21.2 20.6 21.0 21.3 17.9 21.7 17.45 21.8 15.65 21.85 15.25 21.95 15.0 21.95 14.35 21.85 13.85 21.65 13.7 21.65 13.6 21.55 13.6 20.7 13.2 Q20.25 13.05 19.8 13.2 L19.0 13.35 18.45 13.65 18.05 14.2 17.75 14.6 17.6 14.8 17.55 14.95 17.55 15.0 17.4 15.65 17.35 15.9 17.35 16.0 16.4 20.65 15.9 23.0 15.9 23.05 15.75 23.85 14.95 27.95 15.1 28.0 15.2 28.2 15.45 28.45 15.7 28.5 15.85 28.55 16.35 29.05 16.4 29.1 16.3 29.3 16.2 29.35 15.85 29.55 Q13.75 28.4 12.5 28.5 L12.5 28.4 12.55 28.25 13.25 27.95 13.5 27.75 13.65 27.7 Q13.4 26.15 14.7 20.25 L14.75 19.9 14.75 19.45 15.0 17.8 15.0 17.65 14.95 16.75 Q14.8 15.95 14.45 15.45 L14.0 15.0 13.35 14.9 13.15 14.9 13.0 14.95 12.85 15.0 11.95 15.5 Q11.45 15.85 11.0 17.15 L10.7 17.8 10.6 18.35 10.5 18.85 10.15 21.0 10.15 21.25 10.0 23.9 9.85 27.85 9.75 28.85 9.75 28.9 9.75 29.0 9.55 29.1 9.15 28.85 9.1 28.65 6.3 28.6 6.25 28.65 6.2 28.6 6.15 28.65 6.15 28.55 6.1 28.3 6.3 27.95 7.15 27.7 7.85 27.5 7.9 27.55 8.05 27.7 8.5 27.4 8.8 22.95 9.05 18.9 9.25 18.7 9.15 18.6 9.05 18.35 8.4 18.15 7.9 18.2 7.8 18.2 7.75 18.25 7.65 18.25 Q7.25 18.4 6.65 18.85 5.9 19.4 5.3 21.2 4.8 22.65 4.8 23.25 L4.85 25.95 4.95 27.45 5.1 28.2 5.15 28.25 5.1 29.55 4.8 30.35 4.85 30.35 4.45 31.65 3.95 32.9 3.85 33.1 3.45 34.3 Q2.95 36.45 3.75 37.55 L4.75 38.65 5.5 39.2 5.3 39.25 6.7 39.75 6.55 39.55 6.45 39.55 6.7 39.25 6.85 39.2 7.0 39.05 7.1 39.05 8.2 40.35 8.5 40.75 8.8 41.45 9.3 42.4 9.4 42.5 10.0 43.65 10.8 44.4 13.25 45.25 14.75 45.25 16.05 45.25 17.0 45.25 Q17.85 45.15 18.45 44.7 19.35 44.05 19.4 43.6 L21.7 40.25 Q23.75 36.8 25.05 35.85 25.35 35.65 27.5 34.4 L27.65 34.25 30.15 33.6 32.55 32.85 32.75 32.3 32.55 31.5 31.8 30.8 31.25 30.7 31.1 30.6 29.2 30.35 27.35 30.25 26.25 30.5 Q25.4 30.75 25.2 30.95 L25.1 31.0 24.7 31.2 24.45 31.4 24.2 31.45 24.05 31.5 23.1 32.75 22.7 33.3 22.0 34.1 21.5 34.6 21.45 34.65 Q20.5 35.35 19.1 35.3 L16.45 34.95 13.7 34.65 Q12.15 34.75 11.0 35.6 L10.8 35.75 10.35 36.0 10.3 36.05 9.65 36.45 9.5 36.4 10.0 35.8 11.75 34.1 12.4 33.75 12.7 33.6 M4.1 49.35 L4.1 49.45 3.9 49.45 3.6 49.3 3.65 48.95 3.55 49.0 3.4 48.95 3.2 48.75 5.55 41.0 5.6 41.0 3.95 39.85 2.6 38.3 Q1.7 37.05 1.8 34.45 L1.8 33.6 2.1 32.9 3.35 30.4 Q3.95 29.0 3.85 28.1 3.55 25.5 3.55 23.3 L3.6 22.25 3.65 22.1 Q4.7 18.7 6.8 17.2 L8.0 16.9 9.0 16.7 9.05 16.65 9.2 16.65 9.35 16.75 Q10.0 15.2 11.05 14.45 12.4 13.45 14.05 13.55 15.45 13.65 15.95 14.3 L16.1 14.55 16.5 13.5 16.75 13.15 17.3 12.55 Q17.4 12.5 18.2 12.2 L19.15 11.9 21.4 12.15 22.7 12.75 22.8 12.8 23.0 13.1 23.5 14.2 23.55 14.5 23.45 15.45 23.3 16.1 24.6 15.85 Q26.9 15.65 27.55 16.55 28.25 17.45 27.4 22.75 L26.95 25.4 26.5 27.3 26.35 28.25 29.05 28.4 30.6 28.7 Q33.35 29.5 34.25 30.75 L34.6 31.85 34.6 32.45 34.2 33.6 33.8 34.3 Q32.6 35.05 29.9 35.8 L27.45 36.6 26.05 37.35 25.75 37.45 Q25.3 37.8 23.2 41.75 21.1 45.6 19.95 46.4 19.0 47.1 17.75 47.3 L17.25 49.7 16.4 54.3 16.0 54.3 15.85 54.2 15.8 54.15 15.85 54.0 15.75 53.8 15.7 53.75 15.05 53.4 15.35 50.75 Q15.85 47.65 16.1 47.5 L16.2 47.4 16.05 47.4 15.45 47.25 Q11.5 47.2 10.4 45.7 L9.85 45.15 9.65 45.0 9.55 44.9 8.95 44.4 8.3 43.15 7.8 42.1 7.25 41.6 7.05 41.45 6.9 41.4 6.8 41.4 6.65 41.35 6.4 43.7 5.85 45.85 5.75 46.15 5.7 46.4 4.9 48.9 4.5 48.85 4.3 49.0 4.15 48.95 4.0 49.0 3.85 49.15 3.95 49.35 4.1 49.35 M15.45 54.35 L15.35 54.4 15.2 54.3 15.45 54.35 M11.6 4.95 L11.55 4.9 11.55 4.95 11.6 4.95 M5.3 19.1 L5.35 19.0 5.4 18.9 5.3 19.1 M16.45 47.45 L16.4 47.45 16.45 47.45 16.45 47.35 16.45 47.45 M6.5 50.85 L6.45 50.75 6.6 50.85 6.5 50.85" fill="#000000" fill-rule="evenodd" stroke="none"/>
    <path d="M12.7 33.6 Q13.15 33.35 13.75 33.25 L14.95 32.9 Q15.5 32.5 17.5 32.4 L19.85 32.05 20.2 31.65 20.5 31.25 20.7 31.2 20.85 31.05 21.4 30.75 Q23.75 29.05 24.7 23.25 L25.15 19.35 Q25.4 17.55 25.65 17.4 L25.7 17.35 26.3 17.85 Q26.85 18.65 25.85 23.8 24.85 28.85 24.15 29.35 L24.1 29.45 24.05 29.6 23.7 29.9 23.65 29.95 22.4 31.25 Q22.05 31.5 21.05 32.85 L20.85 32.85 20.45 33.45 18.5 33.2 17.05 33.1 16.5 33.15 12.7 33.6 M19.85 30.15 L20.4 30.6 20.4 30.95 20.3 31.25 Q20.0 31.5 18.9 30.9 L17.35 29.95 17.15 29.6 17.15 29.55 17.3 29.4 17.45 29.3 17.9 27.55 19.1 23.15 Q20.75 16.4 19.75 13.25 L20.25 13.25 20.55 13.45 20.7 13.2 21.55 13.6 21.65 13.6 21.65 13.7 21.85 13.85 21.95 14.35 21.95 15.0 21.85 15.25 21.8 15.65 21.7 17.45 21.3 17.9 20.6 21.0 20.6 21.2 20.5 21.6 20.1 23.25 18.75 29.05 18.45 29.25 18.35 29.1 18.25 29.15 Q17.95 29.35 18.05 29.5 L18.15 29.7 19.3 30.55 20.05 30.6 20.0 30.5 19.85 30.3 19.85 30.15 M16.3 29.3 L16.35 29.45 16.25 29.75 14.6 29.55 Q13.2 29.35 12.55 28.85 L11.95 29.25 11.85 29.2 11.65 29.0 Q11.55 28.9 12.2 27.7 L13.0 25.6 13.3 23.8 13.55 22.0 Q13.95 20.55 13.95 17.5 L14.0 15.0 14.45 15.45 Q14.8 15.95 14.95 16.75 L15.0 17.65 15.0 17.8 14.75 19.45 14.75 19.9 14.7 20.25 Q13.4 26.15 13.65 27.7 L13.5 27.75 13.25 27.95 12.55 28.25 12.5 28.4 12.5 28.5 Q13.75 28.4 15.85 29.55 L16.2 29.35 16.3 29.3 M9.75 29.0 L9.6 29.15 8.1 29.1 Q6.65 28.95 6.35 28.6 L6.3 28.6 9.1 28.65 9.15 28.85 9.55 29.1 9.75 29.0 M6.15 28.55 L5.95 28.55 Q6.15 27.8 7.15 26.3 L7.5 25.7 7.95 22.7 8.2 21.45 8.15 21.0 Q8.2 19.5 8.4 18.8 L8.4 18.15 9.05 18.35 9.15 18.6 9.25 18.7 9.05 18.9 8.8 22.95 8.5 27.4 8.05 27.7 7.9 27.55 7.85 27.5 7.15 27.7 6.3 27.95 6.1 28.3 6.15 28.55 M3.85 33.15 L4.0 33.25 4.05 34.95 Q4.25 36.75 4.75 37.5 L6.1 38.6 6.85 39.2 6.7 39.25 6.45 39.55 6.55 39.55 6.7 39.75 5.3 39.25 5.5 39.2 4.75 38.65 3.75 37.55 Q2.95 36.45 3.45 34.3 L3.85 33.1 3.85 33.15 M8.2 40.35 Q8.85 40.6 9.1 41.15 L9.25 41.6 9.35 41.75 Q9.85 42.45 10.85 42.75 L12.05 43.0 13.75 42.9 Q16.35 42.6 17.45 41.8 L20.8 38.5 21.5 37.7 21.6 37.45 21.75 37.35 23.9 35.3 Q24.15 35.1 24.5 34.95 L24.8 34.6 26.95 33.45 29.35 32.25 31.3 31.0 31.8 30.8 32.55 31.5 32.75 32.3 32.55 32.85 30.15 33.6 27.65 34.25 27.5 34.4 Q25.35 35.65 25.05 35.85 23.75 36.8 21.7 40.25 L19.4 43.6 Q19.35 44.05 18.45 44.7 17.85 45.15 17.0 45.25 L16.05 45.25 14.75 45.25 13.25 45.25 10.8 44.4 10.0 43.65 9.4 42.5 9.3 42.4 8.8 41.45 8.5 40.75 8.2 40.35 M16.0 54.3 L16.0 54.35 15.45 54.35 15.2 54.3 Q14.45 54.15 13.15 53.5 10.7 52.5 10.55 52.3 L10.55 52.2 10.6 50.8 10.75 49.5 8.75 48.0 6.55 46.25 6.35 45.95 6.05 46.05 5.85 45.85 6.4 43.7 6.65 41.35 6.8 41.4 6.9 41.4 7.05 41.45 7.25 41.6 7.8 42.1 8.3 43.15 8.95 44.4 9.55 44.9 9.65 45.0 9.85 45.15 10.4 45.7 Q11.5 47.2 15.45 47.25 L16.05 47.4 16.2 47.4 16.1 47.5 Q15.85 47.65 15.35 50.75 L15.05 53.4 15.7 53.75 15.75 53.8 15.85 54.0 15.8 54.15 15.85 54.2 16.0 54.3 M18.7 42.5 L18.85 42.3 18.45 42.6 18.6 42.7 18.7 42.5 M16.45 47.45 L16.4 47.45 16.45 47.45" fill="#e6e65b" fill-rule="evenodd" stroke="none"/>
    <path d="M25.7 17.35 L25.65 17.4 Q25.4 17.55 25.15 19.35 L24.7 23.25 Q23.75 29.05 21.4 30.75 L20.85 31.05 20.7 31.2 20.5 31.25 20.2 31.65 19.85 32.05 17.5 32.4 Q15.5 32.5 14.95 32.9 L13.75 33.25 Q13.15 33.35 12.7 33.6 L12.4 33.75 11.75 34.1 10.0 35.8 9.5 36.4 9.65 36.45 10.3 36.05 10.35 36.0 10.8 35.75 11.0 35.6 Q12.15 34.75 13.7 34.65 L16.45 34.95 19.1 35.3 Q20.5 35.35 21.45 34.65 L21.5 34.6 22.0 34.1 22.05 34.15 Q22.35 34.6 22.95 34.15 L23.3 33.75 23.7 33.25 25.7 31.85 Q26.0 31.6 27.5 31.25 L28.9 30.9 29.2 30.45 29.2 30.35 31.1 30.6 31.25 30.7 31.8 30.8 31.3 31.0 29.35 32.25 26.95 33.45 24.8 34.6 24.5 34.95 Q24.15 35.1 23.9 35.3 L21.75 37.35 21.6 37.45 21.5 37.7 20.8 38.5 17.45 41.8 Q16.35 42.6 13.75 42.9 L12.05 43.0 10.85 42.75 Q9.85 42.45 9.35 41.75 L9.25 41.6 9.1 41.15 Q8.85 40.6 8.2 40.35 L7.1 39.05 7.0 39.05 6.85 39.2 6.1 38.6 4.75 37.5 Q4.25 36.75 4.05 34.95 L4.0 33.25 3.85 33.15 3.95 32.9 4.45 31.65 4.85 30.35 4.8 30.35 5.1 29.55 5.15 28.25 5.1 28.2 4.95 27.45 5.35 27.55 Q5.5 23.2 6.7 20.4 L7.45 18.9 7.75 18.35 7.65 18.25 7.75 18.25 7.8 18.2 7.9 18.2 8.4 18.15 8.4 18.8 Q8.2 19.5 8.15 21.0 L8.2 21.45 7.95 22.7 7.5 25.7 7.15 26.3 Q6.15 27.8 5.95 28.55 L6.15 28.55 6.15 28.65 6.2 28.6 6.25 28.65 6.35 28.6 Q6.65 28.95 8.1 29.1 L9.6 29.15 9.75 29.0 9.75 28.9 9.75 28.85 9.85 27.85 10.0 23.9 10.15 21.25 10.5 21.4 10.75 21.3 11.2 19.6 Q11.5 17.9 11.7 17.75 L12.55 16.95 13.65 15.7 13.6 15.55 13.5 15.4 Q13.25 15.05 12.9 15.05 L13.0 14.95 13.15 14.9 13.35 14.9 14.0 15.0 13.95 17.5 Q13.95 20.55 13.55 22.0 L13.3 23.8 13.0 25.6 12.2 27.7 Q11.55 28.9 11.65 29.0 L11.85 29.2 11.95 29.25 12.55 28.85 Q13.2 29.35 14.6 29.55 L16.25 29.75 16.35 29.45 16.3 29.3 16.4 29.1 16.35 29.05 15.85 28.55 15.7 28.5 15.45 28.45 15.2 28.2 15.1 28.0 14.95 27.95 15.75 23.85 Q15.5 25.4 15.6 25.55 L16.15 25.6 18.05 18.5 Q19.25 13.7 19.05 13.45 L19.0 13.35 19.8 13.2 Q20.25 13.05 20.7 13.2 L20.55 13.45 20.25 13.25 19.75 13.25 Q20.75 16.4 19.1 23.15 L17.9 27.55 17.45 29.3 17.3 29.4 17.15 29.55 17.15 29.6 17.35 29.95 18.9 30.9 Q20.0 31.5 20.3 31.25 L20.4 30.95 20.4 30.6 19.85 30.15 19.75 29.7 19.85 29.3 19.75 29.25 20.2 27.7 20.25 27.65 20.3 27.75 20.35 27.7 20.6 27.5 20.85 26.5 20.95 26.5 21.1 26.45 22.0 22.8 22.3 21.9 23.5 19.85 24.15 18.5 24.65 18.15 25.2 17.6 25.1 17.4 24.7 17.3 24.9 17.25 25.7 17.35 M10.55 52.2 L9.3 51.65 9.35 51.6 9.35 51.5 9.2 51.3 8.5 50.75 7.95 50.4 7.7 50.15 6.75 48.05 6.55 47.4 6.4 46.5 Q6.3 46.3 6.0 46.35 L5.7 46.4 5.75 46.15 5.85 45.85 6.05 46.05 6.35 45.95 6.55 46.25 8.75 48.0 10.75 49.5 10.6 50.8 10.55 52.2 M4.35 49.5 L4.1 49.35 3.95 49.35 3.85 49.15 4.0 49.0 4.15 48.95 4.35 49.5 M11.1 36.45 L11.35 36.7 11.4 37.0 11.45 37.25 Q17.95 37.7 18.4 37.35 L18.6 36.95 18.5 36.4 Q18.0 35.7 15.65 35.45 L12.65 35.6 11.85 36.05 11.25 36.25 11.1 36.45 M13.8 30.65 L13.65 30.45 Q13.25 29.95 10.35 29.7 L7.85 29.65 7.8 29.6 Q6.8 29.65 6.4 30.0 L6.35 30.25 5.85 31.05 Q5.45 31.95 5.85 32.55 6.55 33.5 7.65 32.75 L8.9 31.7 Q10.15 31.15 11.8 31.15 L13.2 31.25 13.7 30.7 13.8 30.65 M7.05 30.85 L7.4 30.8 7.25 30.85 7.05 30.85 M18.7 42.5 L18.6 42.7 18.45 42.6 18.85 42.3 18.7 42.5 M23.1 32.75 L22.75 33.3 22.7 33.3 23.1 32.75" fill="#f0f0a0" fill-rule="evenodd" stroke="none"/>
    <path d="M24.7 17.3 L25.1 17.4 25.2 17.6 24.65 18.15 24.15 18.5 23.5 19.85 22.3 21.9 22.0 22.8 21.1 26.45 20.95 26.5 20.85 26.5 20.6 27.5 20.35 27.7 20.3 27.75 20.25 27.65 20.95 24.25 Q22.05 20.15 22.75 18.9 L23.05 18.35 23.25 18.2 23.5 17.85 Q24.1 17.4 24.7 17.3 M19.0 13.35 L19.05 13.45 Q19.25 13.7 18.05 18.5 L16.15 25.6 15.6 25.55 Q15.5 25.4 15.75 23.85 L15.9 23.05 15.9 23.0 16.4 20.65 17.35 16.0 17.35 15.9 17.4 15.65 17.55 15.0 17.55 14.95 17.6 14.8 17.75 14.6 18.05 14.2 18.45 13.65 19.0 13.35 M12.9 15.05 Q13.25 15.05 13.5 15.4 L13.6 15.55 13.65 15.7 12.55 16.95 11.7 17.75 Q11.5 17.9 11.2 19.6 L10.75 21.3 10.5 21.4 10.15 21.25 10.15 21.0 10.5 18.85 10.6 18.35 10.7 17.8 11.0 17.15 Q11.45 15.85 11.95 15.5 L12.85 15.0 12.9 15.05 M7.65 18.25 L7.75 18.35 7.45 18.9 6.7 20.4 Q5.5 23.2 5.35 27.55 L4.95 27.45 4.85 25.95 4.8 23.25 Q4.8 22.65 5.3 21.2 5.9 19.4 6.65 18.85 7.25 18.4 7.65 18.25 M29.2 30.35 L29.2 30.45 28.9 30.9 27.5 31.25 Q26.0 31.6 25.7 31.85 L23.7 33.25 23.3 33.75 22.95 34.15 Q22.35 34.6 22.05 34.15 L22.0 34.1 22.7 33.3 22.75 33.3 23.1 32.75 24.05 31.5 24.2 31.45 24.45 31.4 24.7 31.2 25.1 31.0 25.2 30.95 Q25.4 30.75 26.25 30.5 L27.35 30.25 29.2 30.35 M9.3 51.65 L9.1 51.9 8.45 51.75 8.05 51.45 8.0 51.5 Q7.6 51.8 7.35 51.5 L7.2 51.0 Q6.85 50.55 5.85 50.3 L5.5 50.1 5.4 50.2 4.95 50.25 4.7 50.05 4.35 49.5 4.15 48.95 4.3 49.0 4.5 48.85 4.9 48.9 5.7 46.4 6.0 46.35 Q6.3 46.3 6.4 46.5 L6.55 47.4 6.75 48.05 7.7 50.15 7.95 50.4 8.5 50.75 9.2 51.3 9.35 51.5 9.35 51.6 9.3 51.65 M13.8 30.65 L13.7 30.7 13.2 31.25 11.8 31.15 Q10.15 31.15 8.9 31.7 L7.65 32.75 Q6.55 33.5 5.85 32.55 5.45 31.95 5.85 31.05 L6.35 30.25 6.4 30.0 Q6.8 29.65 7.8 29.6 L7.85 29.65 10.35 29.7 Q13.25 29.95 13.65 30.45 L13.8 30.65 M11.1 36.45 L11.25 36.25 11.85 36.05 12.65 35.6 15.65 35.45 Q18.0 35.7 18.5 36.4 L18.6 36.95 18.4 37.35 Q17.95 37.7 11.45 37.25 L11.4 37.0 11.35 36.7 11.1 36.45 M7.05 30.85 L7.25 30.85 7.4 30.8 7.05 30.85" fill="#f9f9d7" fill-rule="evenodd" stroke="none"/>
  </g>
</svg>
