<?xml version="1.0" encoding="UTF-8" standalone="no"?>
<svg xmlns:ffdec="https://www.free-decompiler.com/flash" xmlns:xlink="http://www.w3.org/1999/xlink" ffdec:objectType="shape" height="53.95px" width="51.95px" xmlns="http://www.w3.org/2000/svg">
  <g transform="matrix(1.0, 0.0, 0.0, 1.0, 0.0, 0.0)">
    <path d="M26.75 9.15 L29.95 11.2 36.85 15.85 38.95 17.4 40.75 18.85 41.8 19.7 42.5 20.3 42.3 20.75 42.45 22.3 Q42.45 23.75 41.15 26.0 39.65 29.65 35.45 34.2 29.85 40.3 26.6 40.9 23.45 42.95 21.2 42.95 L20.4 42.95 19.7 43.45 18.8 42.3 10.95 30.5 8.2 26.1 8.3 25.95 Q22.05 20.25 26.75 9.15" fill="#fc4203" fill-rule="evenodd" stroke="none"/>
    <path d="M42.5 20.3 L44.25 21.85 Q51.95 28.95 51.95 33.7 51.95 40.4 44.7 47.45 38.0 53.95 33.2 53.95 27.95 53.95 19.7 43.45 L20.4 42.95 21.2 42.95 Q23.45 42.95 26.6 40.9 29.85 40.3 35.45 34.2 39.65 29.65 41.15 26.0 42.45 23.75 42.45 22.3 L42.3 20.75 42.5 20.3" fill="#ffff33" fill-rule="evenodd" stroke="none"/>
    <path d="M8.2 26.1 L3.6 18.35 Q0.35 12.4 0.0 7.7 L0.35 6.0 0.35 5.95 1.8 4.25 3.7 2.25 5.45 1.2 7.95 0.3 8.65 0.05 10.0 0.0 13.75 1.2 21.25 5.6 26.75 9.15 Q22.05 20.25 8.3 25.95 L8.2 26.1 M9.95 0.95 Q9.95 0.25 9.15 0.15 8.35 0.05 7.35 0.65 L7.2 0.75 Q6.5 0.9 5.95 1.2 L5.8 1.3 4.2 2.2 Q0.55 5.0 0.55 6.35 0.55 7.3 1.4 7.3 3.5 7.3 7.15 4.65 9.95 2.55 9.95 0.95" fill="#fffeea" fill-rule="evenodd" stroke="none"/>
    <path d="M9.95 0.95 Q9.95 2.55 7.15 4.65 3.5 7.3 1.4 7.3 0.55 7.3 0.55 6.35 0.55 5.0 4.2 2.2 L5.8 1.3 5.95 1.2 Q6.5 0.9 7.2 0.75 L7.35 0.65 Q8.35 0.05 9.15 0.15 9.95 0.25 9.95 0.95" fill="#f3f3f3" fill-rule="evenodd" stroke="none"/>
  </g>
</svg>
