<?xml version="1.0" encoding="UTF-8" standalone="no"?>
<svg xmlns:ffdec="https://www.free-decompiler.com/flash" xmlns:xlink="http://www.w3.org/1999/xlink" ffdec:objectType="shape" height="37.65px" width="113.45px" xmlns="http://www.w3.org/2000/svg">
  <g transform="matrix(1.0, 0.0, 0.0, 1.0, 55.6, 30.65)">
    <path d="M20.05 -8.25 L20.4 -8.35 21.25 -8.45 Q21.75 -8.65 22.25 -8.75 L22.5 -8.8 Q22.6 -9.05 22.7 -9.3 L22.75 -9.6 22.8 -9.65 22.9 -9.8 22.95 -9.85 22.95 -9.95 23.0 -10.05 Q23.35 -10.5 23.8 -10.75 25.45 -11.65 27.4 -11.25 L27.5 -11.3 27.55 -11.3 27.7 -11.35 27.9 -11.35 27.9 -11.4 29.4 -11.35 Q29.85 -11.3 30.2 -11.0 L30.3 -10.9 30.35 -10.8 30.4 -10.75 30.55 -10.45 30.6 -10.5 Q31.65 -10.8 32.55 -10.3 L32.65 -10.2 32.7 -10.1 32.75 -10.05 32.8 -9.95 32.85 -9.9 33.95 -9.8 34.05 -9.75 34.45 -9.75 35.25 -9.65 Q35.7 -9.55 35.95 -9.2 L36.05 -9.0 Q36.5 -9.25 37.05 -9.35 L38.3 -9.5 Q39.4 -10.05 40.6 -10.0 L40.85 -10.15 40.95 -10.2 41.1 -10.25 41.5 -10.65 Q41.95 -11.5 42.9 -11.6 L44.75 -11.75 44.75 -11.85 44.8 -11.95 45.0 -12.15 45.15 -12.25 45.55 -12.3 45.9 -12.35 46.25 -12.55 46.45 -12.7 46.55 -12.8 46.75 -12.9 46.95 -12.95 47.15 -13.05 47.3 -13.05 47.6 -13.0 47.6 -13.45 47.65 -13.55 47.75 -13.8 47.85 -14.0 47.85 -14.2 48.05 -14.8 48.05 -15.7 Q48.05 -15.85 48.15 -16.0 L48.4 -16.45 Q48.75 -16.75 49.25 -16.95 L49.45 -17.05 49.5 -17.05 49.55 -17.1 49.6 -17.1 49.75 -17.15 50.25 -17.45 50.55 -17.55 50.8 -17.8 50.9 -18.0 51.25 -18.6 Q51.4 -18.85 51.65 -19.15 L51.65 -19.35 51.7 -19.4 51.85 -19.6 51.9 -19.7 52.0 -19.8 52.25 -19.85 52.45 -19.8 52.55 -19.7 52.65 -19.5 52.7 -19.35 52.6 -18.9 52.6 -18.4 52.55 -18.25 Q52.45 -18.1 52.45 -17.95 L52.35 -17.75 52.25 -17.65 Q52.25 -17.5 52.2 -17.35 L52.0 -17.0 51.9 -16.9 51.75 -16.8 Q51.55 -16.45 51.2 -16.2 L50.7 -15.85 50.65 -15.75 50.65 -15.7 50.25 -15.3 50.15 -15.1 50.1 -15.05 49.8 -14.8 49.75 -14.75 49.7 -14.65 49.6 -14.55 Q49.55 -14.35 49.55 -14.15 L49.5 -13.7 49.5 -13.5 49.45 -13.4 49.45 -13.15 49.5 -13.15 49.5 -13.4 49.75 -13.9 49.75 -13.95 50.25 -14.45 50.3 -14.55 50.45 -14.75 50.55 -14.85 50.75 -15.0 50.85 -15.1 51.6 -15.2 51.95 -15.1 52.35 -14.95 52.5 -14.9 Q54.15 -14.95 55.65 -14.4 56.2 -14.2 56.3 -13.65 56.7 -13.4 57.2 -13.25 L57.4 -13.2 Q57.6 -13.1 57.75 -12.9 L57.85 -12.7 57.85 -12.5 57.8 -12.45 57.7 -12.25 57.7 -12.15 57.3 -11.75 57.05 -11.75 Q56.55 -11.7 56.0 -11.75 L55.75 -11.75 55.65 -11.85 55.2 -12.15 55.1 -12.25 54.9 -12.3 Q54.75 -12.35 54.65 -12.4 54.55 -12.4 54.45 -12.45 L54.2 -12.65 54.05 -12.85 Q54.05 -12.95 54.0 -12.95 53.35 -13.2 52.6 -13.25 52.0 -13.3 51.55 -13.05 L51.45 -12.9 51.4 -12.85 51.35 -12.75 51.15 -12.55 50.85 -12.4 50.8 -12.35 50.75 -12.35 50.55 -12.05 Q50.0 -11.6 49.35 -11.35 L48.7 -11.1 48.4 -10.9 Q47.2 -9.8 45.55 -9.95 L45.1 -9.75 Q44.85 -9.65 44.6 -9.65 L44.5 -9.55 44.45 -9.35 44.25 -9.1 44.2 -9.05 44.05 -9.0 44.0 -9.0 Q43.7 -8.4 43.15 -7.95 42.6 -7.45 41.95 -7.05 40.65 -6.55 39.3 -6.35 L39.35 -6.3 39.35 -5.95 41.75 -6.05 43.35 -6.05 43.5 -6.2 43.9 -6.25 44.15 -6.25 44.15 -6.3 44.4 -6.2 44.55 -6.2 46.45 -6.05 Q46.75 -6.0 47.05 -5.85 L47.2 -5.55 47.2 -4.8 47.3 -4.7 Q47.35 -4.65 47.4 -4.6 L47.55 -4.5 Q47.6 -4.5 47.65 -4.45 48.2 -4.25 48.8 -4.2 49.65 -4.15 50.3 -3.6 L50.35 -3.55 50.95 -3.45 51.05 -3.35 51.15 -3.3 51.2 -3.2 51.2 -3.1 51.25 -3.0 51.25 -2.95 51.4 -2.75 51.75 -2.4 51.85 -2.2 51.85 -1.9 51.8 -1.85 51.75 -1.75 51.65 -1.7 51.5 -1.65 51.25 -1.7 51.2 -1.65 51.15 -1.65 50.95 -1.6 50.75 -1.65 50.45 -1.85 50.3 -1.85 50.25 -1.8 50.1 -1.75 Q48.6 -2.25 47.05 -2.4 46.35 -2.3 45.6 -2.45 L45.4 -2.5 45.0 -2.9 44.9 -3.1 44.8 -3.2 44.65 -3.25 44.4 -3.3 44.2 -3.5 Q43.2 -3.55 42.15 -3.45 41.8 -3.25 41.45 -3.2 39.55 -2.9 37.7 -3.3 37.55 -3.35 37.4 -3.45 L37.15 -3.85 Q36.95 -4.1 36.8 -4.4 36.75 -4.55 36.7 -4.75 L36.65 -4.85 Q36.35 -4.85 36.1 -5.1 L36.0 -5.2 35.85 -5.5 35.85 -5.6 Q34.25 -5.25 32.9 -6.1 32.55 -6.3 32.25 -6.55 L32.0 -6.65 31.8 -6.75 Q30.75 -6.8 29.8 -7.3 29.05 -7.15 28.35 -7.3 L28.0 -7.4 27.9 -7.5 27.8 -7.55 27.7 -7.65 27.7 -7.7 27.65 -7.65 Q27.5 -7.55 27.3 -7.5 L26.55 -7.35 Q26.15 -6.7 25.55 -6.2 25.1 -5.75 24.55 -5.45 23.2 -5.4 21.95 -4.95 L21.55 -5.05 21.55 -4.6 21.5 -4.5 21.5 -4.4 21.4 -4.2 21.25 -4.05 21.0 -3.75 20.9 -3.65 20.6 -3.2 Q20.35 -2.85 20.0 -2.5 L19.95 -2.4 19.9 -2.35 19.85 -2.25 19.65 -2.05 19.35 -1.6 19.3 -1.4 19.3 -0.9 19.25 -0.7 19.1 -0.45 18.9 -0.25 18.75 -0.15 18.75 0.1 18.65 0.3 18.65 0.4 18.6 0.5 Q16.95 2.05 14.7 2.5 13.7 2.65 12.75 3.05 L12.1 3.35 Q11.85 3.45 11.65 3.65 L10.8 3.7 Q9.0 5.8 6.25 5.55 L1.9 5.25 1.6 5.25 Q0.5 7.7 -2.25 6.7 -2.75 6.5 -3.2 6.3 -4.65 6.55 -6.0 6.0 L-6.1 5.9 -6.25 5.7 -6.4 5.55 -6.45 5.45 -6.5 5.45 -6.8 5.3 -7.0 5.25 -7.9 5.25 Q-8.25 5.5 -8.65 5.65 -9.3 5.9 -9.95 5.8 -10.85 6.1 -11.75 5.8 -11.95 5.7 -12.1 5.5 L-12.15 5.4 -12.2 5.35 -12.2 4.2 -12.25 4.1 -12.25 4.0 -12.35 3.8 -12.35 3.65 -12.45 3.45 -12.45 2.8 -12.5 2.7 Q-12.8 2.35 -13.25 2.15 -13.7 1.95 -13.9 1.55 L-13.95 1.45 -13.95 1.15 -14.0 1.05 -14.05 0.9 -14.1 0.7 -14.15 0.6 -14.15 0.2 -14.3 -0.05 -14.3 -0.8 Q-14.35 -1.05 -14.65 -1.15 -14.95 -1.2 -15.15 -1.4 L-15.25 -1.5 -15.3 -1.6 -15.35 -1.65 -15.35 -2.25 Q-15.35 -2.4 -15.45 -2.55 L-15.85 -2.95 Q-16.65 -2.9 -17.35 -3.55 L-17.4 -3.65 -17.45 -3.7 -17.5 -3.8 -17.5 -4.55 Q-17.35 -4.85 -17.3 -5.15 -17.2 -5.55 -17.0 -5.95 L-17.05 -5.95 -17.15 -6.0 -17.2 -6.1 -17.3 -6.2 -17.3 -6.3 -17.65 -6.6 -18.15 -7.05 -18.15 -7.15 -18.25 -7.35 -18.25 -8.2 -18.2 -8.3 -18.0 -8.6 -17.8 -8.85 -17.7 -9.05 -17.55 -9.4 Q-17.5 -9.55 -17.5 -9.7 L-17.45 -9.8 -17.35 -9.9 -17.2 -10.1 -17.2 -10.2 -17.25 -10.3 -17.25 -10.65 -17.4 -10.95 -17.4 -11.6 Q-17.4 -11.8 -17.3 -12.0 L-17.1 -12.15 Q-16.8 -12.4 -16.5 -12.55 -16.3 -12.75 -16.2 -13.05 -16.1 -13.35 -15.85 -13.6 L-16.2 -13.95 -16.3 -14.15 -16.35 -14.2 -16.5 -14.4 -16.75 -14.8 -16.8 -15.0 -16.8 -16.3 Q-16.7 -16.6 -16.45 -16.85 -16.15 -17.25 -15.7 -17.55 L-15.7 -17.65 -16.0 -17.9 Q-16.7 -18.2 -17.4 -18.35 L-17.7 -18.4 -17.85 -18.5 -17.95 -18.6 -18.0 -18.7 -18.1 -18.8 -18.1 -18.95 -18.15 -19.0 -18.3 -19.1 -18.4 -19.2 -18.5 -19.25 -18.5 -19.35 -18.55 -19.45 -18.55 -19.5 -21.65 -19.0 Q-21.85 -18.9 -22.0 -18.85 L-22.4 -18.65 -22.5 -18.55 -22.65 -18.25 -22.7 -18.25 -22.7 -18.0 -22.85 -17.7 -23.05 -17.5 -23.2 -17.2 -23.25 -17.15 -23.35 -16.95 -23.65 -16.65 -23.5 -16.45 -23.4 -16.25 -23.3 -16.1 -23.3 -15.35 -23.4 -15.15 -23.4 -15.05 -23.45 -14.95 Q-24.25 -14.3 -25.2 -13.95 L-25.7 -13.8 -25.85 -13.65 -25.9 -13.55 -26.1 -13.4 -26.2 -13.15 -26.55 -12.3 -26.75 -12.1 -26.9 -12.0 -27.05 -11.95 -27.25 -11.9 -29.45 -12.4 Q-29.7 -12.45 -29.95 -12.6 L-30.05 -12.6 -30.2 -12.55 -31.5 -12.6 -31.6 -12.5 Q-32.65 -11.9 -33.8 -12.25 L-33.9 -12.35 -33.95 -12.45 -34.25 -12.55 Q-35.25 -12.35 -36.2 -12.75 L-36.4 -12.95 -36.65 -13.3 -36.75 -13.35 -37.0 -13.3 -37.3 -13.15 Q-38.45 -12.95 -39.65 -13.2 -39.85 -13.3 -40.05 -13.5 -40.2 -13.65 -40.3 -13.9 L-40.35 -14.05 -40.35 -14.55 -40.45 -14.75 -40.45 -14.8 -40.65 -15.0 Q-40.95 -15.4 -41.35 -15.8 -41.65 -16.05 -41.7 -16.45 L-41.7 -16.5 -41.75 -16.6 -41.85 -16.7 -41.75 -16.8 -42.05 -17.0 -42.2 -17.15 -42.25 -17.25 -42.25 -17.55 -42.45 -17.75 -42.45 -17.9 -42.8 -18.25 -42.95 -18.55 -42.9 -18.85 -42.85 -19.3 -42.85 -19.4 -42.65 -19.6 -42.45 -19.9 -42.2 -20.2 -42.3 -20.4 -42.35 -20.45 -42.35 -22.0 -41.8 -22.55 -42.0 -22.55 -42.95 -22.65 -43.1 -22.75 -43.2 -22.85 -43.3 -22.85 Q-43.9 -22.75 -44.45 -23.1 L-44.65 -23.25 -44.75 -23.45 -44.75 -23.7 -44.85 -23.8 -44.9 -23.9 -45.1 -24.1 Q-46.45 -24.05 -47.6 -24.65 -47.85 -24.8 -48.1 -25.05 -48.15 -25.1 -48.2 -25.1 L-48.35 -25.15 Q-49.25 -24.8 -50.25 -25.1 L-50.55 -25.25 -50.6 -25.35 -50.75 -25.55 -51.05 -25.6 Q-51.95 -25.6 -52.9 -25.95 L-53.15 -26.0 -53.4 -26.2 -53.6 -26.4 Q-53.7 -26.55 -53.75 -26.7 L-53.8 -26.8 -53.8 -27.5 -53.85 -27.6 -54.05 -27.8 -54.05 -27.9 -54.1 -28.0 -54.1 -28.35 -54.05 -28.55 -54.05 -28.6 -54.1 -28.65 -54.1 -28.7 -54.4 -28.95 -54.85 -29.3 Q-55.0 -29.4 -55.15 -29.55 L-55.35 -29.6 -55.5 -29.7 -55.6 -29.9 -55.6 -30.2 -55.55 -30.25 -55.45 -30.4 -55.35 -30.45 -55.3 -30.45 -55.15 -30.5 -54.85 -30.5 -54.75 -30.55 -54.5 -30.6 -54.5 -30.65 -53.65 -30.55 -52.75 -30.4 -52.6 -30.3 -52.35 -30.25 -52.3 -30.25 -52.1 -30.3 -52.0 -30.3 -51.75 -30.25 -51.6 -30.15 -51.5 -30.05 -51.2 -29.85 -51.15 -29.8 -51.05 -29.6 -51.05 -28.85 -51.15 -28.65 -51.2 -28.45 -51.25 -28.35 -51.25 -28.1 -50.9 -28.1 -50.65 -28.3 -50.5 -28.4 -50.25 -28.55 -50.15 -28.65 -50.05 -28.65 -49.8 -28.75 Q-49.7 -28.8 -49.6 -28.85 -49.1 -29.35 -48.35 -29.35 -47.7 -29.35 -47.15 -29.0 -46.75 -28.75 -46.6 -28.25 L-46.6 -27.75 Q-45.9 -27.5 -45.05 -27.4 -44.7 -27.35 -44.35 -27.2 L-44.05 -26.9 -43.9 -26.7 -43.85 -26.6 -43.8 -26.55 -43.65 -26.35 -43.65 -26.25 -43.3 -26.2 -43.05 -26.15 -42.75 -25.95 -42.65 -25.85 -42.55 -25.65 -42.55 -25.6 -42.5 -25.5 -42.55 -25.4 -42.55 -25.3 -42.6 -25.2 -42.65 -25.15 Q-40.6 -25.15 -38.6 -24.85 -37.9 -24.75 -37.35 -24.35 -37.2 -24.2 -37.15 -24.0 L-37.1 -23.7 -37.15 -23.6 -37.15 -23.3 Q-37.15 -23.15 -37.2 -23.0 L-37.25 -22.95 -37.4 -22.75 -37.45 -22.7 -37.55 -22.5 Q-37.65 -22.4 -37.75 -22.35 L-38.3 -22.05 -38.4 -22.0 -38.4 -21.3 -38.35 -21.15 -38.35 -20.85 -38.45 -20.55 Q-38.5 -20.35 -38.6 -20.2 L-38.8 -19.8 -38.95 -19.6 Q-39.0 -19.35 -39.0 -19.05 L-39.0 -17.6 Q-38.65 -17.4 -38.3 -17.05 -38.05 -16.85 -38.0 -16.5 -36.65 -16.6 -35.2 -16.2 L-34.75 -16.1 -34.65 -16.0 -34.5 -15.8 -34.4 -15.65 -33.9 -15.4 Q-33.35 -15.2 -32.8 -15.25 L-32.55 -15.3 -32.35 -15.5 -32.2 -15.55 Q-30.3 -16.0 -28.65 -15.1 L-28.5 -14.9 -28.45 -14.85 -28.3 -15.0 -28.1 -15.15 -27.9 -15.25 Q-27.65 -15.4 -27.4 -15.55 L-27.35 -15.65 -27.35 -15.75 -27.4 -15.85 -27.4 -15.95 -27.45 -16.1 -27.55 -16.6 -27.55 -16.95 -27.65 -17.15 -27.65 -17.25 -27.7 -17.35 -27.7 -17.7 -27.65 -17.8 Q-27.4 -18.3 -26.9 -18.5 -26.5 -18.65 -26.1 -18.85 L-25.8 -19.15 -25.55 -19.25 -25.55 -19.55 -25.5 -19.65 -25.5 -20.2 -25.35 -20.5 Q-25.1 -20.8 -24.75 -20.85 L-23.9 -20.95 -23.7 -21.15 Q-23.5 -21.3 -23.25 -21.4 L-23.1 -21.65 -23.05 -21.85 -22.9 -22.0 -22.85 -22.1 -22.7 -22.2 Q-22.3 -22.35 -21.9 -22.6 L-21.75 -22.7 -21.65 -22.7 -21.45 -22.75 -20.45 -22.75 -20.3 -22.85 -20.1 -22.95 -19.8 -23.0 Q-18.95 -22.95 -18.05 -23.0 L-17.8 -23.0 -17.05 -23.05 -16.95 -23.05 -16.85 -23.1 -16.65 -23.1 -15.65 -23.05 Q-15.1 -23.0 -14.75 -22.55 L-14.75 -22.45 -14.6 -22.15 -14.6 -20.85 -14.65 -20.5 -14.2 -20.15 -13.9 -19.8 Q-13.2 -19.3 -12.6 -18.75 -12.25 -18.45 -12.1 -18.0 L-12.1 -16.85 -12.2 -16.65 -12.25 -16.45 -12.6 -16.1 Q-12.8 -15.9 -13.05 -15.8 L-13.1 -15.75 Q-12.9 -15.3 -12.65 -14.9 L-12.45 -14.7 Q-12.35 -14.45 -12.25 -14.2 L-12.05 -13.55 -12.0 -13.45 -12.0 -13.3 Q-12.0 -13.1 -12.05 -12.9 L-12.15 -12.7 -12.35 -12.5 Q-12.4 -12.35 -12.4 -12.15 L-12.35 -11.55 -12.35 -11.4 -12.4 -11.2 -12.65 -10.7 Q-12.8 -10.55 -13.05 -10.5 -13.35 -10.4 -13.55 -10.2 L-13.6 -10.05 -13.6 -9.25 Q-13.65 -9.05 -13.8 -8.8 L-14.2 -8.15 -14.25 -8.05 -14.25 -7.0 -14.15 -6.8 -14.15 -6.7 -14.1 -6.6 -14.1 -6.45 Q-13.65 -6.35 -13.2 -6.1 -12.7 -5.8 -12.5 -5.25 L-12.5 -3.85 -12.65 -3.55 -12.65 -3.45 -12.6 -3.15 -12.6 -2.95 -12.55 -2.85 -12.55 -2.6 -12.5 -2.5 -12.4 -2.4 -12.2 -2.0 Q-12.0 -1.8 -11.85 -1.5 -11.55 -0.95 -11.35 -0.35 L-11.35 -0.05 Q-11.05 0.3 -10.7 0.6 -10.25 0.95 -10.1 1.45 L-10.1 2.5 -10.0 2.45 -9.7 2.45 -9.55 2.5 -9.45 2.55 -9.1 2.45 Q-8.5 2.3 -7.9 2.45 L-7.75 2.55 -6.95 2.6 -6.75 2.55 -5.1 2.35 -4.15 2.35 -3.8 2.45 -3.65 2.55 -3.2 2.75 -3.05 2.8 -2.0 2.9 Q-1.6 2.95 -1.25 3.15 L-1.3 3.05 -1.3 2.8 -1.25 2.6 -1.25 2.5 -1.15 2.3 Q-0.8 1.9 -0.35 1.7 0.3 1.45 0.95 1.35 L2.25 1.35 Q2.7 1.4 3.05 1.6 L3.1 1.6 3.3 1.55 3.45 1.6 3.55 1.6 Q5.3 1.6 7.05 1.65 L7.35 1.45 7.6 1.3 7.7 1.2 7.8 1.0 7.9 0.9 8.0 0.85 8.15 0.75 Q8.9 0.6 9.7 0.6 10.85 -0.1 12.3 -0.35 12.65 -0.45 12.95 -0.55 L13.15 -0.75 Q13.45 -0.95 13.75 -1.15 L13.9 -1.35 14.25 -1.7 14.45 -1.8 14.7 -2.0 14.8 -2.05 Q15.5 -2.2 16.05 -2.65 L16.0 -2.75 16.0 -3.05 16.1 -3.2 Q16.25 -3.5 16.5 -3.7 L16.7 -3.9 Q17.3 -4.15 17.8 -4.5 18.0 -4.65 18.25 -4.7 L18.25 -5.0 Q18.25 -5.3 18.35 -5.55 L18.5 -5.85 18.85 -6.2 Q19.15 -6.5 19.45 -6.7 L19.5 -6.9 19.5 -7.35 19.55 -7.75 20.05 -8.25 M29.05 -9.6 L29.0 -9.7 29.0 -9.75 28.15 -9.75 28.05 -9.65 27.9 -9.55 27.7 -9.45 27.25 -9.4 Q26.95 -9.4 26.7 -9.6 L25.4 -9.6 25.1 -9.5 24.9 -9.45 24.6 -9.35 24.5 -9.25 Q24.25 -9.0 24.1 -8.7 L23.8 -8.05 23.8 -8.0 Q23.65 -7.7 23.45 -7.5 L23.55 -7.4 23.55 -7.35 23.7 -7.45 Q23.9 -7.6 24.15 -7.75 L24.2 -7.8 24.3 -8.0 24.4 -8.1 24.5 -8.3 24.5 -8.4 24.55 -8.5 24.65 -8.6 24.75 -8.65 24.9 -8.85 25.8 -9.05 25.85 -9.1 Q27.5 -9.4 29.1 -9.5 L29.05 -9.6 M31.5 -8.8 L31.05 -8.85 30.9 -8.75 30.85 -8.75 31.7 -8.6 31.5 -8.8 M34.3 -7.35 L34.4 -7.3 35.1 -7.3 35.15 -7.35 35.1 -7.35 35.0 -7.45 Q34.95 -7.55 34.9 -7.65 L34.85 -7.75 34.8 -7.7 34.7 -7.5 34.55 -7.4 34.4 -7.35 34.3 -7.35 M36.15 -7.45 L36.35 -7.45 Q37.8 -8.1 39.55 -8.05 L39.95 -8.25 Q38.1 -8.05 36.3 -7.7 L36.25 -7.65 36.15 -7.45 M37.85 -5.4 L37.8 -5.5 37.7 -5.55 37.9 -5.3 37.9 -5.35 37.85 -5.4 M38.85 -4.75 L38.6 -4.7 38.3 -4.75 38.15 -4.85 38.2 -4.8 Q39.05 -4.55 40.0 -4.6 L38.9 -4.8 38.85 -4.75 M48.6 -13.3 L48.55 -13.1 48.55 -12.75 48.75 -12.85 48.75 -12.95 48.7 -13.2 48.7 -13.3 48.65 -13.4 48.65 -13.45 48.6 -13.3 M9.05 2.45 Q8.85 2.65 8.6 2.75 L8.35 2.8 8.25 2.9 8.2 3.0 8.0 3.2 7.9 3.25 Q6.4 3.55 5.05 3.05 4.7 3.1 4.35 3.05 L4.35 3.1 4.3 3.2 4.3 3.3 4.25 3.4 4.15 3.45 4.05 3.55 3.75 3.7 Q5.3 3.7 6.8 3.8 L7.5 3.7 7.9 3.55 8.15 3.45 8.35 3.4 Q8.6 3.15 8.85 2.95 L9.4 2.5 9.05 2.45 M1.15 3.45 Q1.35 3.5 1.55 3.6 L1.65 3.7 1.85 3.75 3.35 3.7 3.0 3.55 2.8 3.4 2.7 3.3 2.25 3.15 2.1 3.05 2.0 3.05 1.4 3.0 1.3 3.0 0.9 3.15 Q0.55 3.25 0.25 3.4 L0.25 3.55 0.3 3.65 0.35 3.7 0.35 3.8 0.45 3.75 0.6 3.75 0.65 3.7 0.9 3.55 1.15 3.45 M-48.65 -27.6 L-48.75 -27.7 -49.2 -27.45 -48.7 -27.35 -48.4 -27.05 -48.35 -26.95 -48.35 -26.85 -48.3 -26.8 -47.95 -26.85 -47.95 -26.95 -48.0 -26.95 -48.05 -27.05 -48.2 -27.2 -48.35 -27.4 -48.45 -27.5 -48.65 -27.6 M-25.95 -16.8 L-25.95 -16.6 -25.9 -16.45 Q-25.85 -16.2 -25.75 -16.05 -25.65 -15.9 -25.65 -15.75 L-25.65 -15.7 -25.7 -15.6 -25.7 -15.55 -25.1 -15.75 -25.2 -15.95 -25.4 -16.55 -25.4 -17.25 Q-25.65 -17.15 -25.95 -17.0 L-25.95 -16.8 M-39.45 -23.35 L-39.4 -23.3 -39.35 -23.35 -39.45 -23.4 -39.45 -23.35 M-39.95 -21.35 L-40.2 -21.2 -40.15 -21.1 -40.15 -21.0 -40.05 -20.9 -40.05 -20.8 -40.0 -20.9 -40.0 -21.05 -39.95 -21.15 -39.95 -21.25 -39.9 -21.35 -39.95 -21.35 M-46.25 -26.05 L-46.15 -26.05 -46.25 -26.1 -46.25 -26.05 M-40.5 -19.2 L-40.75 -18.75 -40.8 -18.55 -40.5 -18.4 -40.5 -19.2 M-39.25 -16.0 L-39.3 -15.95 -39.25 -15.85 -39.25 -16.0 M-35.75 -14.85 L-35.75 -14.85 M-27.9 -13.9 L-28.15 -13.95 -28.3 -14.05 -28.45 -14.2 -28.5 -14.05 -28.6 -14.0 -28.6 -13.95 -27.95 -13.75 -27.8 -13.8 -27.7 -13.9 -27.9 -13.9 M-18.55 -21.4 L-18.9 -21.25 -19.4 -21.05 Q-18.5 -21.15 -17.65 -21.4 L-18.55 -21.4 M-20.85 -21.1 L-21.25 -21.1 -21.4 -21.0 -22.0 -20.8 -22.05 -20.75 Q-21.35 -21.0 -20.5 -21.0 L-20.85 -21.1 M-14.35 -17.75 L-14.35 -17.3 Q-14.3 -17.15 -14.3 -16.95 L-14.5 -16.55 -14.55 -16.55 Q-14.2 -16.7 -13.95 -17.0 L-13.65 -17.4 Q-13.85 -17.75 -14.25 -18.05 L-14.25 -17.95 -14.35 -17.75 M-14.65 -16.45 L-14.85 -16.35 -14.9 -16.25 -15.1 -16.1 Q-15.2 -15.95 -15.25 -15.8 L-15.25 -15.5 -15.2 -15.4 -15.15 -15.35 -15.05 -15.15 -14.9 -14.95 -14.8 -14.85 -14.7 -14.8 -14.5 -14.75 Q-14.15 -14.5 -13.95 -14.15 -13.75 -13.95 -13.65 -13.65 L-13.65 -13.75 -13.7 -13.85 -13.7 -13.95 -13.8 -14.15 -13.9 -14.2 -14.1 -14.6 Q-14.25 -14.9 -14.45 -15.15 L-14.5 -15.25 -14.6 -15.3 -14.7 -15.4 -14.8 -15.6 -14.9 -15.75 -14.9 -16.05 -14.85 -16.15 -14.85 -16.25 -14.65 -16.45 M-15.85 -7.55 L-15.8 -7.5 -15.8 -7.9 -15.85 -7.8 -15.85 -7.75 -15.9 -7.65 -15.85 -7.55 M-14.4 -4.6 L-14.5 -4.5 -14.7 -4.4 Q-14.6 -4.25 -14.6 -4.1 L-14.55 -3.9 -14.55 -3.8 -14.65 -3.5 Q-14.4 -3.45 -14.2 -3.3 L-14.1 -3.2 -14.05 -3.1 -14.0 -3.05 -14.0 -2.95 -13.95 -2.85 -13.95 -2.8 -13.9 -3.05 -13.85 -3.35 -14.05 -3.8 -14.3 -4.4 -14.4 -4.55 -14.4 -4.6 M-3.8 4.35 Q-4.4 4.45 -5.0 4.35 L-4.9 4.4 -4.75 4.5 -4.65 4.5 Q-3.6 4.25 -2.8 4.8 -2.6 4.9 -2.4 5.1 L-1.2 5.2 -1.15 5.25 -0.8 5.25 -0.5 5.05 -0.4 4.95 Q-1.25 5.1 -2.0 4.75 L-2.1 4.65 -2.2 4.6 -2.25 4.5 -2.4 4.65 -2.8 4.75 -3.15 4.6 -3.8 4.35 M-10.1 3.9 L-10.5 4.0 -10.5 4.15 -9.95 3.95 -10.0 3.95 -10.1 3.9" fill="#8ce6e6" fill-opacity="0.7490196" fill-rule="evenodd" stroke="none"/>
  </g>
</svg>
