<?xml version="1.0" encoding="UTF-8" standalone="no"?>
<svg xmlns:ffdec="https://www.free-decompiler.com/flash" xmlns:xlink="http://www.w3.org/1999/xlink" ffdec:objectType="shape" height="56.9px" width="112.8px" xmlns="http://www.w3.org/2000/svg">
  <g transform="matrix(1.0, 0.0, 0.0, 1.0, 54.8, 37.25)">
    <path d="M28.25 -37.15 L28.3 -37.05 28.3 -36.9 28.1 -36.7 27.95 -36.65 27.0 -35.8 Q26.65 -35.5 26.25 -35.25 L26.25 -34.9 26.15 -34.75 25.95 -34.55 25.85 -34.4 25.65 -34.2 25.65 -34.0 25.55 -33.8 25.5 -33.55 25.45 -33.5 Q25.0 -33.2 24.65 -32.8 24.45 -32.5 24.2 -32.3 L23.95 -31.95 23.8 -31.75 23.75 -31.65 Q23.7 -31.5 23.75 -31.3 L23.75 -30.85 23.65 -30.7 23.55 -30.5 23.4 -30.35 23.3 -30.2 23.25 -30.15 23.25 -30.05 23.2 -30.0 Q23.1 -29.85 23.0 -29.65 L22.9 -29.35 22.8 -29.25 22.7 -29.2 22.65 -29.15 22.6 -29.05 22.6 -29.0 22.15 -28.6 21.95 -28.35 21.9 -28.3 21.85 -28.15 21.8 -28.1 21.7 -28.05 21.55 -27.9 21.55 -27.65 21.5 -27.55 21.5 -27.5 21.15 -27.15 21.1 -27.0 21.0 -26.8 20.95 -26.75 20.95 -26.15 20.9 -25.95 20.85 -25.9 20.7 -25.85 20.35 -25.5 20.35 -25.4 20.2 -25.3 19.85 -25.15 19.6 -24.95 Q19.6 -24.9 19.6 -24.85 L19.6 -24.75 19.55 -24.7 19.5 -24.6 19.2 -24.5 18.95 -24.45 18.9 -24.35 18.7 -24.25 18.65 -24.2 18.45 -24.05 Q17.65 -23.65 16.7 -23.75 L16.65 -23.65 16.5 -23.5 16.4 -23.15 16.25 -22.9 16.2 -22.75 16.1 -22.7 16.05 -22.6 Q16.05 -22.45 15.95 -22.35 15.85 -22.15 15.7 -22.05 L15.65 -21.9 15.55 -21.7 15.55 -21.55 15.45 -21.35 15.45 -21.2 15.4 -21.15 15.3 -21.0 15.3 -20.95 15.25 -20.85 15.25 -20.8 15.2 -20.75 15.1 -20.55 15.2 -20.65 15.3 -20.8 15.4 -20.9 15.45 -20.9 15.55 -20.95 Q15.95 -21.3 16.5 -21.4 L17.25 -21.6 17.25 -21.75 17.3 -21.8 17.35 -21.9 17.55 -22.1 Q17.75 -22.2 17.95 -22.4 L18.2 -22.65 19.4 -22.75 Q20.45 -22.95 21.5 -23.25 L21.5 -23.65 Q21.6 -23.75 21.65 -23.75 L22.95 -23.9 23.1 -23.95 23.15 -24.05 23.15 -24.1 23.25 -24.15 23.3 -24.25 23.4 -24.3 24.25 -24.75 24.6 -24.85 24.6 -24.95 24.65 -25.0 24.7 -25.0 24.8 -25.05 24.95 -25.1 25.05 -25.2 25.45 -25.5 25.45 -25.65 25.5 -25.8 Q25.6 -25.9 25.7 -25.95 L26.0 -26.0 26.0 -26.3 Q26.0 -26.4 26.05 -26.5 26.45 -26.65 26.9 -26.55 L27.35 -26.65 27.5 -26.75 27.5 -26.8 27.6 -26.85 27.7 -26.95 27.95 -26.95 28.0 -27.0 28.05 -27.0 28.15 -27.05 28.45 -27.1 Q28.65 -27.2 28.85 -27.3 L28.95 -27.35 30.0 -27.45 30.05 -27.55 30.2 -27.65 30.25 -27.75 30.35 -27.85 30.35 -27.95 30.6 -28.25 30.9 -28.6 31.0 -28.65 31.0 -28.7 31.05 -28.8 31.15 -28.9 31.2 -28.9 31.3 -28.95 Q31.4 -29.05 31.45 -29.15 31.5 -29.35 31.6 -29.45 L31.65 -29.55 31.55 -29.8 Q31.5 -29.95 31.5 -30.15 L31.5 -30.35 31.55 -30.45 31.6 -30.5 31.65 -30.6 31.75 -30.6 32.05 -30.75 32.1 -30.85 32.15 -30.9 32.15 -30.95 32.25 -31.05 32.35 -31.2 32.45 -31.25 32.5 -31.4 32.6 -31.55 32.7 -31.65 32.75 -31.75 32.8 -31.8 32.85 -31.9 32.9 -31.95 32.9 -32.1 33.0 -32.15 33.05 -32.25 33.05 -32.3 33.1 -32.35 33.3 -32.65 33.35 -32.7 Q33.4 -32.95 33.5 -33.15 L33.7 -33.5 33.8 -33.7 Q34.0 -33.85 34.3 -33.8 L34.6 -33.8 34.75 -33.9 34.95 -34.0 35.0 -34.1 35.05 -34.15 35.05 -34.25 Q36.2 -35.2 37.6 -35.75 L39.25 -36.35 39.35 -36.45 39.4 -36.45 39.5 -36.5 39.8 -36.55 39.8 -36.6 39.9 -36.55 40.0 -36.45 40.0 -36.4 39.8 -36.2 Q39.55 -36.15 39.3 -36.0 L39.1 -35.95 38.95 -35.8 Q37.85 -35.45 36.8 -34.95 L35.75 -34.4 35.5 -34.15 35.45 -34.05 35.4 -34.0 35.4 -33.95 35.15 -33.65 34.75 -33.35 34.3 -33.3 34.15 -33.25 34.05 -33.0 33.9 -32.75 33.9 -32.6 33.85 -32.45 33.7 -32.25 33.65 -32.1 33.65 -32.05 33.6 -32.0 33.6 -31.9 33.55 -31.85 33.35 -31.55 33.2 -31.4 33.2 -31.35 33.15 -31.3 33.15 -31.2 33.05 -31.05 32.95 -30.95 32.85 -30.8 32.8 -30.7 32.7 -30.65 32.45 -30.35 32.05 -30.1 32.1 -30.0 32.1 -29.8 32.15 -29.75 32.2 -29.65 32.2 -29.25 32.0 -29.05 31.95 -28.95 31.9 -28.9 31.9 -28.85 31.3 -28.2 30.9 -27.7 30.8 -27.65 30.8 -27.5 30.75 -27.45 30.7 -27.35 30.6 -27.3 30.55 -27.2 30.45 -27.1 30.4 -27.0 30.3 -26.95 Q29.45 -27.1 28.7 -26.85 L28.55 -26.8 28.4 -26.8 27.9 -26.7 27.85 -26.65 27.75 -26.5 27.7 -26.45 27.3 -26.3 26.9 -26.2 26.4 -26.2 26.45 -26.15 26.6 -26.05 26.6 -25.95 Q26.45 -25.75 26.15 -25.75 25.85 -25.7 25.8 -25.45 L25.8 -25.4 25.75 -25.3 25.75 -25.25 25.55 -25.05 25.4 -24.95 25.2 -24.85 25.1 -24.75 24.95 -24.7 24.7 -24.6 24.6 -24.5 24.6 -24.45 24.5 -24.35 24.35 -24.3 24.2 -24.15 24.0 -24.0 23.75 -23.85 23.7 -23.8 23.65 -23.65 23.6 -23.6 Q23.0 -23.2 22.35 -23.15 L22.35 -23.1 22.3 -22.95 22.25 -22.9 Q21.8 -22.65 21.35 -22.6 21.1 -22.55 20.9 -22.4 20.2 -22.4 19.55 -22.15 L18.5 -22.15 18.35 -22.1 18.35 -22.0 18.3 -21.95 18.2 -21.9 17.95 -21.75 17.75 -21.45 17.7 -21.3 17.6 -21.25 17.45 -21.1 Q16.6 -20.95 15.9 -20.5 L15.45 -20.25 15.35 -20.15 15.35 -20.1 15.3 -20.1 15.15 -20.05 15.1 -20.0 15.0 -20.0 14.95 -19.95 14.95 -19.25 15.0 -19.2 15.0 -19.1 15.05 -19.05 15.05 -18.75 15.0 -18.55 Q14.7 -18.1 14.15 -17.85 13.8 -17.7 13.35 -17.7 L13.35 -17.4 13.3 -17.35 13.3 -17.15 13.2 -17.0 13.2 -16.95 13.15 -16.8 12.85 -16.35 Q12.65 -16.15 12.6 -15.9 12.35 -15.7 12.25 -15.45 L11.95 -14.95 11.95 -14.85 11.85 -14.55 11.7 -14.4 11.7 -14.35 Q11.5 -14.3 11.3 -14.15 11.15 -14.05 10.95 -14.0 L10.65 -13.7 10.65 -13.65 10.6 -13.6 10.55 -13.5 10.45 -13.45 10.55 -13.4 10.6 -13.3 Q10.5 -13.15 10.35 -13.1 L9.95 -12.9 9.6 -12.55 9.25 -12.25 8.8 -11.8 8.75 -11.7 Q8.45 -11.55 8.25 -11.3 8.15 -11.15 8.1 -11.0 L8.1 -10.9 8.05 -10.75 Q8.0 -10.55 7.9 -10.45 L7.85 -10.4 7.85 -9.95 7.8 -9.9 7.8 -9.85 7.75 -9.75 7.55 -9.65 Q7.2 -9.25 6.7 -9.05 6.55 -8.95 6.45 -8.85 6.25 -8.75 6.05 -8.7 L5.75 -8.6 5.15 -8.15 4.85 -7.95 Q4.35 -7.8 3.95 -7.3 3.85 -7.15 3.65 -7.05 L3.6 -6.95 3.4 -6.75 3.3 -6.7 3.25 -6.6 3.2 -6.55 3.15 -6.45 2.95 -6.35 2.85 -6.2 2.7 -6.0 Q0.15 -6.1 -2.2 -7.0 L-2.3 -7.05 -2.5 -7.0 -2.6 -6.95 -2.65 -6.85 -2.65 -6.8 -3.1 -6.65 -3.35 -6.55 Q-4.2 -6.55 -5.05 -6.4 -5.25 -6.25 -5.45 -6.2 L-5.6 -6.1 -6.15 -6.1 -6.3 -6.15 -6.35 -6.2 -8.55 -6.0 Q-8.65 -6.05 -8.7 -6.05 L-8.8 -6.1 -8.8 -6.35 -8.85 -6.4 Q-9.1 -6.5 -9.4 -6.55 -9.5 -6.55 -9.6 -6.6 -9.7 -6.8 -9.7 -7.0 L-9.7 -7.55 -9.85 -7.65 -10.05 -7.75 -10.2 -7.9 -10.3 -8.05 -10.45 -8.25 Q-10.5 -8.4 -10.55 -8.6 L-10.55 -8.65 -10.7 -8.8 -10.85 -8.85 -11.0 -9.0 -11.6 -9.25 Q-11.8 -9.35 -11.95 -9.5 L-12.05 -9.55 -12.1 -9.65 -12.1 -9.75 -12.25 -9.85 -12.5 -9.95 -12.55 -10.05 -12.6 -10.1 Q-12.8 -10.25 -13.0 -10.4 -13.15 -10.45 -13.25 -10.55 L-13.3 -10.6 -13.3 -10.85 -13.4 -11.05 Q-13.45 -11.25 -13.55 -11.4 L-13.6 -11.45 -13.6 -11.6 -13.65 -11.65 -13.7 -11.75 -14.45 -11.15 -14.55 -10.95 -14.6 -10.7 -14.7 -10.5 -14.7 -9.95 -14.8 -9.75 -14.8 -9.1 -14.85 -9.0 -14.9 -8.8 Q-14.95 -8.55 -15.1 -8.35 L-15.25 -8.05 -15.25 -7.95 -15.3 -7.8 -15.2 -7.6 Q-15.15 -7.5 -15.15 -7.4 -15.1 -7.15 -14.95 -6.95 L-14.95 -5.25 -14.55 -5.15 -13.7 -4.95 -13.55 -4.85 -13.4 -4.55 -13.4 -4.2 -13.5 -4.0 -13.5 -3.55 Q-13.5 -3.4 -13.55 -3.25 L-13.45 -3.05 -13.35 -2.95 -13.35 -2.05 -13.3 -1.95 -13.2 -1.85 -12.95 -1.35 Q-12.85 -1.25 -12.8 -1.2 L-12.6 -1.0 -12.5 -0.8 -12.35 -0.55 -12.35 -0.45 -12.3 -0.35 -12.3 -0.15 -12.25 -0.05 -12.15 0.05 -12.1 0.2 -12.05 0.3 -12.05 0.7 -12.0 0.8 -11.85 0.9 -11.55 1.05 -11.45 1.15 -11.45 1.7 -11.25 1.9 -11.1 2.2 -11.1 2.3 Q-11.05 2.25 -11.0 2.25 L-10.9 2.15 -10.75 2.05 -10.65 2.05 -10.45 2.0 -10.2 2.05 -9.95 2.3 -9.8 2.6 -9.8 2.8 Q-10.05 3.1 -10.0 3.6 L-9.0 3.55 -5.55 3.65 -5.4 3.7 -5.3 3.85 -5.2 3.95 -5.15 4.05 -5.1 4.1 Q-4.7 4.2 -4.3 4.0 -3.8 3.8 -3.3 3.9 L-3.05 3.95 Q-2.8 4.15 -2.55 4.25 -2.15 4.45 -1.7 4.4 L-1.3 4.4 -1.0 4.45 Q-0.95 4.4 -0.9 4.4 L-0.9 4.3 -0.8 4.1 -0.6 3.85 -0.5 3.65 Q-0.45 3.45 -0.3 3.3 L-0.2 3.25 0.15 3.0 0.35 2.8 Q1.45 2.4 2.55 2.75 L2.7 2.85 2.8 2.95 Q4.2 3.15 5.75 2.8 7.1 2.45 8.55 2.45 L8.55 1.8 8.6 1.7 8.8 1.5 9.15 1.45 10.0 1.35 10.2 1.25 10.45 1.2 10.65 1.15 Q11.25 0.8 11.9 0.5 L12.3 0.35 Q13.0 0.2 13.7 -0.05 L13.8 -0.2 13.9 -0.25 Q14.35 -0.4 14.7 -0.6 L15.45 -1.1 Q15.9 -1.3 16.25 -1.55 L16.2 -1.65 Q16.15 -1.7 16.15 -1.75 L16.15 -1.95 16.2 -2.05 16.3 -2.2 16.45 -2.35 Q16.8 -2.45 17.15 -2.65 L17.9 -3.1 18.2 -3.3 18.25 -3.45 18.25 -4.3 18.3 -4.5 18.5 -4.65 18.85 -4.85 Q19.05 -5.0 19.3 -5.05 19.35 -5.05 19.45 -5.1 L19.55 -5.2 19.55 -5.85 19.6 -5.95 19.7 -6.05 19.7 -6.3 19.75 -6.4 20.05 -6.7 20.2 -6.8 20.3 -6.95 Q20.85 -7.15 21.4 -7.4 L21.8 -7.6 Q22.45 -7.9 23.15 -8.0 L23.45 -8.3 23.65 -8.55 23.8 -8.75 23.85 -8.85 23.85 -9.3 23.95 -9.5 24.1 -9.6 24.2 -9.7 24.45 -9.7 24.8 -9.8 24.95 -9.9 25.05 -9.95 25.3 -10.05 25.45 -10.15 25.65 -10.25 25.85 -10.25 25.85 -10.3 26.3 -10.25 26.75 -10.1 Q26.8 -10.05 26.9 -10.05 L27.25 -10.05 27.35 -10.15 27.5 -10.25 Q28.6 -10.55 29.6 -10.1 L29.8 -10.0 29.9 -9.9 29.95 -9.8 29.95 -9.7 30.05 -9.55 30.2 -9.5 Q30.3 -9.4 30.45 -9.4 L30.45 -9.65 30.55 -9.8 30.65 -9.9 30.8 -9.95 31.0 -10.0 31.25 -9.95 31.4 -9.8 31.7 -9.4 32.0 -9.05 32.05 -8.95 32.15 -8.85 Q32.45 -8.7 32.75 -8.55 L32.8 -8.5 32.8 -8.55 32.9 -8.65 33.0 -8.8 33.1 -8.85 Q33.75 -9.05 34.4 -8.85 L35.05 -8.7 35.3 -8.45 35.3 -8.35 35.35 -8.15 35.35 -8.0 Q35.7 -8.0 36.05 -8.0 38.65 -8.8 41.5 -8.7 L41.6 -8.8 41.7 -8.95 41.9 -9.15 42.0 -9.35 42.2 -9.55 42.25 -9.55 42.7 -9.85 42.8 -9.95 43.0 -9.95 43.2 -10.05 43.3 -10.15 43.4 -10.2 43.7 -10.4 43.8 -10.5 43.8 -10.6 43.95 -10.7 44.05 -10.8 44.3 -11.0 44.45 -11.05 44.75 -11.2 Q44.95 -11.3 45.25 -11.3 L45.45 -11.45 45.45 -11.85 45.55 -11.9 45.7 -12.0 46.45 -12.05 46.55 -12.25 46.75 -12.35 46.85 -12.35 47.0 -12.4 47.0 -12.45 47.55 -12.4 47.6 -12.5 47.85 -12.75 48.2 -12.9 48.5 -13.05 48.45 -13.1 48.4 -13.2 48.4 -14.65 Q48.5 -14.8 48.55 -14.95 L48.75 -15.2 48.75 -15.35 48.85 -15.55 48.85 -15.7 Q48.95 -15.85 49.1 -16.0 L49.35 -16.25 49.8 -16.45 Q49.95 -16.55 50.2 -16.6 L50.35 -16.75 50.5 -16.75 50.65 -16.8 Q50.9 -16.95 51.15 -17.15 L51.45 -17.35 51.45 -17.4 51.55 -17.6 51.55 -18.15 51.6 -18.3 51.65 -18.4 51.65 -18.65 51.75 -18.75 51.8 -18.85 51.8 -19.1 52.0 -19.5 52.15 -19.55 52.25 -19.65 52.4 -19.7 52.55 -19.7 Q52.6 -19.65 52.6 -19.55 52.55 -19.45 52.5 -19.35 L52.45 -19.25 52.4 -19.2 52.35 -19.1 52.25 -19.0 52.25 -18.75 52.2 -18.45 52.1 -18.2 52.05 -18.1 52.05 -17.75 52.0 -17.3 52.0 -17.2 51.65 -16.85 51.5 -16.8 Q50.9 -16.3 50.2 -15.9 50.05 -15.8 49.8 -15.75 L49.75 -15.65 49.65 -15.55 49.55 -15.5 49.45 -15.3 49.45 -15.2 49.4 -15.1 49.35 -15.05 49.35 -14.85 49.15 -14.55 49.0 -14.3 49.0 -13.6 49.05 -13.4 49.05 -13.35 49.1 -13.25 49.1 -12.95 49.35 -13.0 49.65 -13.05 49.8 -13.15 49.9 -13.2 50.25 -13.55 50.3 -13.65 50.3 -13.95 50.45 -14.05 50.6 -14.2 50.7 -14.2 50.85 -14.25 51.05 -14.2 51.35 -14.15 52.75 -14.1 52.9 -14.0 54.9 -13.95 55.05 -13.9 55.15 -13.85 55.3 -13.8 55.35 -13.7 55.55 -13.5 55.6 -13.4 55.7 -13.25 55.8 -13.05 55.95 -13.0 56.05 -12.8 56.1 -12.75 56.9 -12.75 57.1 -12.65 57.4 -12.75 57.9 -12.85 57.95 -12.85 Q58.1 -12.65 57.85 -12.65 57.5 -12.65 57.25 -12.55 L57.2 -12.55 57.2 -12.5 57.15 -12.4 57.05 -12.35 56.9 -12.35 56.8 -12.3 55.75 -12.4 55.65 -12.45 55.5 -12.55 55.45 -12.65 55.5 -12.7 Q55.55 -12.75 55.6 -12.8 L55.45 -12.85 55.2 -13.1 55.1 -13.3 55.0 -13.35 54.85 -13.4 52.75 -13.5 Q51.95 -13.75 51.05 -13.65 L50.9 -13.55 Q50.9 -13.35 50.75 -13.2 L50.7 -13.1 50.55 -12.9 50.5 -12.85 Q50.25 -12.6 50.0 -12.5 L49.9 -12.5 49.6 -12.45 48.8 -12.25 48.55 -12.25 48.45 -12.3 Q48.35 -12.3 48.3 -12.35 L48.3 -12.4 48.25 -12.4 48.2 -12.3 48.15 -12.25 48.3 -12.15 48.35 -12.1 48.3 -12.05 48.1 -12.0 48.0 -11.95 Q47.95 -11.9 47.85 -11.9 L47.65 -11.85 47.55 -11.85 47.2 -11.8 47.0 -11.7 46.95 -11.55 46.9 -11.5 46.85 -11.5 Q46.2 -11.5 45.95 -11.25 L45.9 -11.15 45.8 -11.05 45.75 -10.95 45.7 -10.95 45.3 -10.75 44.8 -10.55 44.7 -10.4 44.65 -10.3 44.35 -10.0 44.2 -9.8 43.75 -9.35 43.25 -9.15 Q43.0 -9.0 42.8 -8.8 L42.7 -8.6 Q42.15 -7.95 41.4 -7.75 40.5 -7.55 39.55 -7.5 38.05 -7.45 36.6 -7.2 L36.5 -7.05 36.3 -6.95 36.5 -6.85 37.1 -6.7 Q37.6 -6.6 38.05 -6.35 L38.1 -6.25 38.1 -6.1 38.05 -6.0 37.85 -5.9 37.9 -5.8 Q38.05 -5.7 38.2 -5.65 L38.55 -5.55 Q38.75 -5.45 38.95 -5.3 L39.1 -5.3 Q40.15 -5.35 41.2 -5.3 L41.3 -5.35 41.5 -5.55 41.65 -5.6 41.75 -5.55 Q41.9 -5.5 42.0 -5.4 L42.05 -5.35 42.1 -5.25 42.1 -5.2 42.6 -5.2 42.65 -5.25 42.85 -5.3 43.3 -5.3 43.45 -5.25 43.5 -5.2 44.9 -5.15 45.0 -5.2 45.7 -5.2 45.85 -5.1 45.95 -5.05 Q46.05 -4.95 46.0 -4.75 L46.0 -4.5 46.05 -4.35 Q46.2 -4.15 46.45 -4.1 L46.55 -4.05 46.7 -4.0 46.8 -3.9 46.85 -3.8 46.95 -3.75 47.1 -3.45 47.15 -3.45 48.1 -3.35 Q49.05 -3.1 50.0 -2.95 L50.25 -2.9 50.4 -2.75 Q50.6 -2.7 50.75 -2.6 L50.85 -2.45 51.15 -2.3 51.25 -2.1 51.4 -1.95 51.45 -1.85 51.45 -1.75 Q51.4 -1.75 51.4 -1.8 L51.15 -1.95 51.0 -2.0 50.8 -2.2 50.5 -2.25 50.4 -2.3 50.0 -2.25 Q49.6 -2.35 49.2 -2.5 L48.95 -2.6 48.55 -2.6 Q47.7 -2.85 46.85 -2.9 L46.8 -3.0 46.65 -3.15 46.4 -3.25 45.6 -3.45 45.5 -3.5 45.45 -3.6 45.35 -3.7 45.3 -3.8 45.25 -3.85 45.25 -3.95 45.15 -4.15 45.15 -4.55 44.85 -4.5 44.35 -4.3 44.25 -4.25 43.9 -4.25 43.5 -4.45 43.45 -4.45 43.15 -4.6 Q43.0 -4.75 42.7 -4.6 42.6 -4.55 42.5 -4.55 L42.35 -4.45 41.65 -4.45 Q41.15 -4.65 40.65 -4.45 L40.65 -4.35 Q40.6 -4.1 40.35 -4.1 L39.55 -4.05 39.4 -4.0 38.65 -4.0 38.5 -4.05 38.4 -4.15 Q38.35 -4.3 38.35 -4.4 L38.35 -4.75 37.75 -4.9 37.3 -5.0 36.95 -5.35 36.95 -6.1 36.75 -6.15 36.6 -6.2 36.55 -6.25 36.25 -6.35 35.45 -6.6 Q35.35 -6.65 35.25 -6.7 L34.85 -6.7 34.85 -6.65 34.45 -6.6 34.45 -6.65 34.35 -6.85 34.3 -6.9 Q34.05 -6.95 33.85 -7.05 L33.3 -7.35 33.15 -7.25 33.05 -7.2 32.85 -7.15 32.55 -7.2 31.65 -7.8 Q31.45 -7.95 31.3 -7.95 31.25 -7.9 31.2 -7.9 L31.0 -7.85 30.6 -7.95 Q30.4 -8.0 30.25 -8.1 L29.85 -8.2 29.55 -8.4 29.35 -8.55 28.9 -9.0 28.05 -9.05 27.9 -8.95 Q27.35 -8.7 26.7 -8.85 L26.2 -9.05 26.1 -9.05 Q26.0 -9.05 25.95 -9.0 L25.85 -8.95 25.8 -8.9 25.5 -8.8 25.35 -8.7 25.3 -8.65 25.2 -8.6 24.95 -8.55 24.95 -8.3 24.85 -8.1 24.3 -7.55 24.15 -7.45 24.05 -7.25 23.85 -7.05 Q22.95 -6.95 22.05 -6.65 21.85 -6.55 21.7 -6.5 L20.85 -6.05 20.75 -5.95 20.6 -5.85 20.55 -5.75 20.55 -5.65 20.45 -5.55 20.45 -4.7 20.35 -4.55 20.05 -4.25 19.95 -4.2 19.9 -4.15 19.7 -4.1 19.35 -4.05 19.2 -3.95 19.2 -3.6 19.15 -3.4 19.1 -3.05 19.1 -2.95 19.05 -2.85 18.45 -2.4 Q18.1 -2.2 17.7 -2.0 L17.5 -1.9 17.2 -1.7 17.15 -1.55 17.15 -1.25 17.05 -1.05 17.05 -0.95 Q16.2 -0.6 15.45 -0.15 L14.85 0.3 Q14.4 0.7 13.9 1.0 L13.15 1.15 12.25 1.4 12.15 1.5 11.45 1.85 11.3 1.95 11.2 2.05 11.1 2.1 11.05 2.15 10.75 2.3 10.55 2.45 10.35 2.55 10.15 2.55 9.75 2.65 9.75 3.2 9.55 3.6 Q5.85 4.2 2.15 4.25 L2.0 4.15 1.9 4.05 1.9 4.0 1.05 3.95 0.9 4.05 0.7 4.2 Q0.55 4.3 0.45 4.5 L0.25 4.95 0.15 5.15 Q0.0 5.5 -0.3 5.7 -0.95 5.9 -1.55 5.7 L-2.0 5.55 -2.15 5.45 -2.25 5.3 -2.55 5.25 -3.1 5.05 -3.2 4.95 Q-3.25 4.9 -3.35 4.85 L-3.45 4.8 -3.5 4.75 -3.65 4.75 -4.45 4.95 -5.15 4.95 -5.4 4.9 -5.45 4.8 -5.55 4.7 -5.65 4.55 -5.75 4.45 -8.7 4.45 -8.8 4.55 Q-9.75 4.55 -10.7 4.5 -10.9 4.5 -11.05 4.4 L-11.15 4.3 -11.15 3.85 -11.05 3.75 -11.05 3.65 -11.15 3.55 -11.3 3.5 -11.65 3.35 -11.8 3.3 -11.85 3.2 -11.9 3.05 -11.95 2.85 Q-12.05 2.65 -12.05 2.45 L-12.15 2.35 -12.25 2.2 -12.3 2.1 -12.3 1.7 -12.45 1.7 -12.65 1.6 -12.75 1.5 -12.8 1.4 -12.8 0.65 -13.0 0.45 -13.05 0.3 -13.1 0.2 -13.1 -0.1 -13.25 -0.4 -13.3 -0.4 -13.55 -0.5 -13.65 -0.6 -13.8 -0.7 -13.85 -0.8 -13.9 -0.95 -13.9 -1.35 -13.95 -1.45 -14.05 -1.55 -14.05 -2.0 -14.1 -2.3 -14.1 -2.45 -14.15 -2.45 -14.4 -2.5 -14.5 -2.6 -14.6 -2.8 -14.6 -3.05 -14.65 -3.25 -14.65 -3.35 -14.55 -3.55 -14.5 -3.7 Q-14.85 -4.05 -15.4 -4.05 -15.8 -4.05 -16.15 -4.2 L-16.3 -4.3 -16.4 -4.4 -16.45 -4.5 -16.45 -5.05 -16.4 -5.15 -16.2 -5.35 -16.2 -6.65 -16.3 -6.75 -16.4 -6.95 -16.55 -7.2 -16.6 -7.3 -16.6 -8.05 -16.45 -8.35 -16.45 -8.45 -16.4 -8.55 -16.3 -8.65 -16.2 -8.8 -16.2 -8.9 -16.15 -9.0 -16.15 -9.1 -16.05 -9.3 -16.05 -9.95 -15.95 -10.15 -15.9 -10.3 -15.9 -10.7 -15.8 -10.95 -15.7 -11.35 Q-15.6 -11.6 -15.55 -11.9 L-15.45 -12.0 -15.3 -12.1 Q-15.0 -12.3 -14.65 -12.3 -14.6 -12.35 -14.6 -12.4 L-14.75 -12.7 -14.75 -12.9 -14.7 -13.05 -14.6 -13.25 -14.6 -13.35 -14.7 -13.45 -14.75 -13.55 -14.75 -13.65 -14.8 -13.8 -14.8 -14.1 -14.85 -14.2 -15.0 -14.3 -15.05 -14.4 -15.3 -14.45 -15.75 -14.9 -15.9 -15.1 -15.9 -15.85 -15.8 -16.05 Q-15.75 -16.1 -15.75 -16.2 L-15.75 -16.3 -15.7 -16.4 -15.55 -16.6 -14.8 -17.35 -14.85 -17.45 -15.05 -17.55 -15.15 -17.7 -15.65 -18.2 -15.75 -18.4 -15.85 -18.5 Q-16.2 -18.6 -16.5 -18.75 -16.95 -19.05 -17.3 -19.45 L-17.45 -19.75 -17.45 -20.4 -17.4 -20.5 -17.1 -20.8 -17.0 -20.95 -17.05 -21.05 -17.15 -21.15 -17.15 -21.25 -17.2 -21.3 -17.4 -21.2 Q-19.3 -21.05 -21.1 -20.45 L-22.2 -19.7 Q-22.85 -19.25 -23.45 -18.7 L-23.8 -18.6 -23.95 -18.5 -23.95 -18.05 Q-24.0 -17.9 -23.95 -17.75 L-24.05 -17.55 Q-24.2 -17.3 -24.35 -17.1 -24.5 -16.85 -24.8 -16.7 L-25.05 -16.65 -25.05 -15.8 -25.1 -15.7 -25.15 -15.55 -25.2 -15.45 -25.3 -15.35 -25.55 -15.15 -25.75 -14.95 -25.95 -14.8 -26.25 -14.6 -26.3 -14.5 -26.4 -14.4 -26.5 -14.2 -26.6 -13.95 -26.8 -13.75 Q-26.85 -13.7 -26.95 -13.7 L-27.15 -13.65 -27.3 -13.6 -27.4 -13.5 -27.45 -13.4 -27.55 -13.3 -27.6 -13.2 -27.75 -13.05 -28.0 -13.0 Q-29.4 -13.15 -30.65 -13.65 -31.0 -13.8 -31.35 -13.85 L-33.15 -13.8 -33.45 -13.8 -33.65 -13.85 -33.75 -13.95 -33.8 -14.05 Q-35.15 -14.4 -37.0 -14.25 L-37.3 -14.4 -37.5 -14.45 -37.55 -14.55 -37.6 -14.7 -37.65 -14.8 -37.8 -14.95 Q-38.35 -14.75 -38.85 -14.55 L-38.95 -14.55 -39.2 -14.8 -39.65 -15.2 -40.15 -15.35 Q-40.3 -15.4 -40.45 -15.5 -40.55 -15.8 -40.85 -15.85 L-40.9 -15.75 Q-41.0 -15.5 -41.15 -15.25 L-41.05 -14.95 -40.85 -14.55 -40.85 -14.4 -40.8 -14.35 -40.8 -14.25 -40.75 -14.2 -40.75 -14.05 -40.7 -14.0 -40.7 -13.9 -40.65 -13.8 -40.65 -13.65 -40.6 -13.6 -40.55 -13.5 -40.55 -13.3 Q-40.4 -13.05 -40.3 -12.8 L-40.15 -12.3 -40.15 -12.2 -40.1 -12.05 -40.05 -11.85 -40.0 -11.8 -40.0 -11.75 -39.85 -11.75 -39.75 -11.7 -39.55 -11.5 -39.5 -11.4 -39.5 -11.15 -39.4 -11.1 -39.15 -11.0 -39.05 -10.85 -38.9 -10.75 Q-38.65 -10.6 -38.35 -10.55 L-37.9 -10.4 -37.8 -10.35 -37.35 -10.25 -37.3 -10.2 -37.1 -10.25 -37.05 -10.3 -36.7 -10.3 -35.05 -10.25 -34.55 -10.1 -34.5 -10.05 Q-34.45 -9.85 -34.45 -9.7 L-34.45 -9.2 -33.95 -9.05 -33.25 -9.1 -33.1 -9.05 -33.05 -9.0 -33.0 -8.9 -33.0 -8.85 -32.85 -8.8 Q-32.3 -8.9 -31.95 -8.6 L-31.9 -8.45 -31.85 -8.35 -31.7 -8.3 -31.5 -8.1 -31.3 -8.1 -31.15 -8.05 -31.1 -8.0 Q-31.0 -7.75 -30.75 -7.75 -30.65 -7.75 -30.55 -7.7 L-30.5 -7.6 -30.45 -7.55 Q-30.45 -7.5 -30.5 -7.5 L-30.55 -7.4 -30.8 -7.25 Q-29.15 -6.75 -27.45 -6.65 -26.95 -6.6 -26.65 -6.25 -26.6 -6.05 -26.6 -5.85 L-26.6 -5.3 -26.75 -4.95 -26.9 -4.5 -27.05 -4.3 -27.1 -4.15 -27.1 -4.0 -27.2 -3.85 -27.25 -3.7 Q-27.25 -3.55 -27.35 -3.4 L-27.5 -3.0 -27.55 -3.0 -27.6 -2.95 -27.7 -2.9 -27.7 -2.5 -27.8 -2.3 -27.9 -2.15 -27.95 -2.1 -28.05 -2.05 -28.15 -1.9 -28.25 -1.85 Q-28.5 -1.65 -28.8 -1.45 -28.85 -1.4 -28.9 -1.35 -29.1 -1.15 -29.25 -1.0 L-29.4 -0.9 -29.3 -0.85 -29.1 -0.7 -28.95 -0.5 -28.9 -0.3 -28.9 0.1 -28.95 0.2 -29.2 0.45 -29.2 0.55 -29.25 0.6 -29.25 0.8 -29.3 0.9 -29.35 0.95 -29.35 1.3 -29.45 1.6 Q-29.45 1.7 -29.35 1.8 L-29.25 1.95 -29.0 2.2 -28.95 2.3 -28.95 2.9 -28.9 3.0 -28.9 3.25 -28.95 3.45 -28.95 3.55 Q-28.9 3.7 -28.7 3.75 L-28.6 3.8 Q-28.5 3.9 -28.5 4.15 L-28.55 4.4 -28.45 4.7 -28.45 5.3 -28.35 5.45 -28.2 5.6 -28.15 5.75 -28.15 5.85 -28.05 5.9 -28.0 5.95 -27.85 6.0 -27.65 5.9 -27.5 5.75 -27.45 5.6 -27.45 5.2 Q-26.6 4.1 -25.35 3.5 -25.05 3.35 -24.75 3.15 L-24.5 3.05 -24.4 3.0 -24.3 3.0 -24.1 3.1 -24.1 3.2 -24.05 3.25 -24.05 3.45 -24.1 3.55 -24.1 3.6 -24.15 3.7 -24.15 3.9 -23.95 3.95 -23.75 4.1 -23.7 4.15 -23.7 4.45 -23.55 4.45 -23.4 4.35 -22.25 4.25 -21.35 4.25 -21.2 4.3 -21.15 4.35 -21.1 4.45 -20.95 4.45 -20.45 4.55 -20.4 4.6 -20.35 4.7 -20.35 4.75 -20.25 4.9 -20.25 5.05 -20.15 5.15 -20.15 5.3 -20.1 5.4 -20.05 5.45 -20.05 5.75 -20.0 5.8 -20.0 5.85 -19.95 5.95 -19.95 6.55 -19.8 6.7 -19.7 6.85 -19.6 6.9 -19.55 7.0 -19.45 7.15 -19.35 7.35 -19.35 7.4 -19.3 7.55 -19.3 7.7 -19.25 7.75 -19.2 7.85 -19.2 9.5 -19.15 9.55 -19.15 9.65 -19.1 9.7 -19.1 11.1 Q-19.05 11.25 -18.85 11.4 L-18.55 11.55 Q-18.45 11.65 -18.3 11.7 L-18.2 11.75 -18.15 11.85 -18.05 11.9 Q-18.0 11.95 -17.95 12.0 -17.9 12.0 -17.85 12.05 L-17.7 12.2 -17.6 12.4 Q-17.5 12.5 -17.5 12.6 L-17.4 12.95 -17.35 13.05 -17.0 13.25 Q-16.85 13.3 -16.7 13.45 L-16.35 13.8 -16.35 13.95 -16.3 14.0 -16.3 14.35 -16.35 14.45 -16.35 14.5 -16.45 14.4 Q-16.4 14.5 -16.35 14.6 L-16.35 14.65 -16.3 14.75 -16.25 14.8 -16.25 16.0 -16.3 16.05 -16.3 16.4 -16.0 16.45 Q-15.95 16.5 -15.9 16.55 L-15.85 16.6 -15.85 16.75 -15.8 16.85 -15.8 16.95 Q-15.3 17.4 -14.5 17.45 L-13.45 17.55 -13.4 17.5 -13.0 17.55 -12.05 17.6 -12.0 17.65 Q-11.95 17.75 -11.95 17.85 L-11.95 18.15 -10.5 18.45 -10.15 18.45 Q-10.1 18.45 -10.05 18.5 L-9.6 18.5 Q-8.95 18.65 -8.35 18.9 -7.85 19.1 -7.35 19.4 L-7.2 19.5 -7.25 19.55 -7.45 19.65 -7.55 19.65 -7.8 19.6 -7.95 19.55 -8.05 19.5 -8.25 19.35 -10.05 18.9 -11.7 18.85 -11.8 18.95 -11.9 19.0 -12.0 19.0 -12.2 18.95 -12.25 18.85 -12.35 18.75 -12.35 18.5 -12.45 18.4 -12.45 18.25 -12.65 18.25 -13.1 18.2 Q-14.0 18.15 -14.9 17.9 -15.45 17.75 -16.0 17.5 L-16.2 17.35 -16.25 17.3 -16.25 16.9 -16.6 16.85 -16.7 16.8 -16.75 16.75 -16.75 16.6 -16.7 16.55 -16.7 16.05 -16.65 16.0 -16.65 15.9 -16.6 15.85 Q-16.55 15.7 -16.55 15.55 L-16.55 14.95 -16.6 14.85 -16.65 14.8 -16.65 14.65 -16.7 14.5 -16.7 14.45 -16.85 14.3 -16.85 14.15 -16.8 14.1 -16.8 14.05 -16.85 13.95 -16.9 13.9 -17.0 13.75 -17.2 13.7 -17.25 13.65 -17.25 13.75 -17.2 13.8 -17.2 13.85 -17.15 13.9 -17.15 14.1 -17.2 14.2 -17.2 14.25 -17.25 14.3 -17.25 14.75 -17.35 14.9 -17.35 16.05 -17.4 16.15 -17.45 16.3 -17.45 16.65 -17.65 16.85 -17.75 17.0 -17.95 17.4 Q-17.6 17.6 -17.25 17.85 L-17.25 17.8 -17.15 17.8 -17.15 17.75 -17.0 17.8 -16.9 17.85 -16.7 18.05 -16.55 18.15 -16.45 18.2 Q-16.0 18.2 -15.6 18.45 L-15.65 18.55 -15.75 18.6 -15.85 18.6 -16.55 18.55 -16.75 18.45 -16.8 18.35 -16.95 18.35 Q-17.55 17.9 -18.25 17.6 L-18.3 17.55 -18.3 17.45 -18.35 17.35 -18.25 17.1 -18.1 16.85 -18.05 16.75 -17.95 16.7 -17.9 16.65 -17.85 16.55 -17.85 16.5 -17.8 16.4 -17.8 16.1 -17.75 16.0 -17.7 15.95 -17.7 14.75 -17.6 14.55 -17.6 14.2 -17.55 14.1 Q-17.5 13.95 -17.55 13.75 -17.55 13.65 -17.5 13.55 L-17.55 13.5 -17.65 13.45 -17.7 13.35 -17.85 13.25 -17.9 13.15 -17.95 13.1 -17.95 13.0 -18.05 12.9 -18.1 12.75 -18.15 12.65 -18.25 12.55 -18.3 12.45 -18.4 12.4 -18.45 12.3 -18.5 12.25 -18.8 12.15 -18.95 12.05 -19.2 11.85 -19.35 11.8 -19.7 11.45 -19.75 11.35 -19.75 11.25 -19.7 11.15 -19.7 11.1 -19.65 11.0 -19.65 9.9 -19.7 9.85 -19.7 9.75 -19.75 9.7 -19.75 8.1 -19.8 8.0 -19.8 7.95 -19.85 7.85 -19.85 7.65 -19.95 7.55 -19.95 7.45 -20.05 7.4 -20.1 7.3 -20.1 7.25 -20.15 7.2 -20.2 7.1 -20.3 7.05 -20.4 6.9 -20.45 6.85 -20.5 6.7 -20.5 6.35 -20.45 6.15 -20.5 6.05 -20.5 6.0 -20.55 5.9 -20.55 5.7 -20.6 5.65 -20.6 5.55 -20.65 5.5 -20.65 5.35 -20.7 5.3 -20.75 5.2 -20.75 5.05 -20.8 5.0 -20.85 5.0 -21.0 4.95 -21.05 4.9 -21.7 4.75 -22.25 4.75 -22.35 4.8 -23.25 4.85 -23.5 4.95 -23.65 5.0 -24.15 5.0 -24.25 4.95 -24.35 4.85 -24.35 4.6 -24.3 4.5 Q-24.55 4.5 -24.7 4.35 L-24.75 4.2 -24.75 3.9 -24.7 3.85 -24.7 3.8 -24.8 3.85 -24.85 3.95 -24.9 4.0 Q-25.75 4.3 -26.45 4.9 L-26.65 5.15 -26.65 5.2 -26.8 5.35 -26.9 5.4 -26.95 5.55 -26.95 5.95 -27.1 6.1 Q-27.2 6.25 -27.4 6.3 L-27.55 6.45 -28.25 6.45 -28.45 6.4 -28.5 6.35 -28.55 6.15 -28.5 5.9 -28.5 5.85 -28.65 5.7 -28.75 5.55 -28.75 4.85 -28.85 4.75 -28.85 4.1 -29.15 4.05 -29.3 4.0 -29.35 3.95 -29.4 3.65 -29.4 3.3 -29.45 3.2 -29.55 2.95 -29.55 2.6 -29.6 2.45 -29.7 2.25 -29.8 2.2 -29.8 2.1 -29.9 2.0 -29.95 1.9 -30.0 1.65 -30.0 1.2 -29.95 1.15 -29.9 1.05 -29.9 0.75 -29.85 0.65 -29.8 0.6 -29.8 0.4 -29.75 0.3 -29.7 0.25 -29.7 0.1 -29.5 -0.2 -29.5 -0.25 -29.65 -0.35 Q-29.9 -0.5 -30.15 -0.6 L-30.25 -0.65 Q-30.3 -0.75 -30.3 -0.9 L-30.3 -1.1 -30.2 -1.25 -30.05 -1.35 Q-29.8 -1.4 -29.55 -1.55 L-29.45 -1.6 -29.25 -1.8 Q-28.8 -2.1 -28.45 -2.4 L-28.25 -2.6 Q-28.2 -2.65 -28.2 -2.8 L-28.2 -3.0 -28.15 -3.15 -28.05 -3.3 -27.85 -3.4 -27.55 -3.75 -27.65 -3.85 -27.7 -3.95 -27.7 -4.15 -27.65 -4.2 -27.65 -4.35 -27.6 -4.5 Q-27.55 -4.6 -27.45 -4.7 L-27.4 -4.75 -27.4 -4.9 -27.3 -5.05 -27.3 -5.35 -27.25 -5.4 -27.25 -5.8 -30.45 -6.55 -31.2 -6.75 -31.35 -6.9 -31.55 -7.05 -31.75 -7.3 -31.9 -7.55 -31.95 -7.55 -32.1 -7.6 -32.15 -7.7 -32.25 -7.75 -32.3 -7.8 -32.3 -8.05 -32.35 -8.1 Q-33.0 -8.15 -33.5 -8.5 L-33.5 -8.55 -33.75 -8.55 -33.85 -8.45 -34.8 -8.45 -34.85 -8.55 -35.05 -8.75 -35.05 -9.4 -35.1 -9.45 -35.2 -9.75 -35.2 -9.8 Q-36.2 -9.75 -37.1 -10.1 L-37.35 -10.05 -37.65 -9.95 -37.8 -9.95 -37.9 -10.0 -38.4 -10.0 -39.05 -10.15 -39.2 -10.2 -39.5 -10.5 -39.65 -10.6 -39.85 -10.7 -40.0 -10.85 -40.0 -10.9 -40.05 -10.95 -40.05 -11.1 -40.25 -11.15 -40.4 -11.2 -40.5 -11.35 -40.6 -11.55 -40.6 -11.7 -40.65 -11.8 -40.65 -11.85 -40.7 -11.9 -40.7 -12.15 -40.85 -12.55 Q-40.9 -12.8 -41.1 -13.05 L-41.1 -13.4 -41.15 -13.45 -41.15 -13.65 -41.2 -13.75 -41.2 -13.8 -41.25 -13.9 -41.25 -14.0 -41.3 -14.1 -41.35 -14.15 -41.35 -14.35 Q-41.4 -14.5 -41.5 -14.65 L-41.7 -15.0 -41.7 -15.4 -41.6 -15.6 Q-41.5 -15.8 -41.4 -15.9 L-41.35 -16.0 -41.35 -16.4 -41.3 -16.5 -41.1 -16.7 -41.05 -16.9 -40.85 -17.25 Q-40.8 -17.3 -40.8 -17.35 L-40.8 -17.55 Q-40.85 -17.8 -40.95 -18.0 L-41.05 -18.2 -41.05 -18.3 -41.1 -18.55 Q-41.15 -18.7 -41.1 -18.85 L-41.2 -18.95 -41.4 -19.2 -41.45 -19.3 Q-41.45 -19.5 -41.35 -19.7 L-41.05 -20.25 -40.9 -20.45 -40.85 -20.55 Q-40.85 -20.75 -40.75 -20.9 L-40.7 -21.1 -40.6 -21.2 -40.4 -21.45 -40.3 -21.55 -40.45 -21.85 -40.45 -22.7 -40.4 -22.8 -40.25 -23.15 Q-40.2 -23.25 -40.2 -23.3 -41.8 -23.55 -43.3 -23.85 L-43.4 -24.1 -43.45 -24.5 -43.5 -24.7 -43.55 -24.7 -43.75 -24.8 -44.15 -24.8 -44.35 -24.85 Q-44.4 -24.9 -44.45 -24.95 L-44.55 -25.05 -44.6 -25.2 -44.65 -25.3 -45.4 -25.35 -45.55 -25.3 -45.75 -25.35 -45.8 -25.4 -46.15 -25.45 -46.45 -25.55 Q-47.65 -25.5 -48.6 -26.15 L-48.65 -26.25 -48.7 -26.3 -48.7 -26.35 -48.95 -26.45 -49.1 -26.55 -49.2 -26.65 -49.15 -26.25 Q-49.95 -25.9 -50.85 -26.15 -51.05 -26.25 -51.2 -26.3 L-51.25 -26.45 -51.3 -26.55 -51.3 -26.75 -52.0 -26.85 -52.25 -26.95 -52.65 -27.35 -52.7 -27.45 -52.8 -27.7 -52.85 -27.75 Q-53.0 -27.9 -53.0 -28.1 L-53.0 -28.2 -52.95 -28.3 -52.95 -28.4 -53.0 -28.4 -53.3 -28.6 -53.3 -29.1 -53.7 -29.35 -53.85 -29.45 -53.9 -29.45 -54.15 -29.55 -54.2 -29.55 -54.35 -29.5 -54.4 -29.55 -54.45 -29.65 -54.8 -30.0 -54.8 -30.2 -54.7 -30.35 -54.7 -30.4 -54.4 -30.3 -54.3 -30.25 -54.2 -30.15 -54.15 -29.95 -53.8 -29.9 -53.55 -29.8 -53.4 -29.7 -53.0 -29.7 -52.85 -29.6 -52.75 -29.55 -52.7 -29.4 -52.7 -29.05 -52.55 -29.05 -52.3 -29.15 -52.1 -29.05 -51.95 -28.95 -51.85 -28.75 -51.85 -28.55 -51.9 -28.45 -51.95 -28.3 -52.05 -28.1 -51.85 -27.9 -51.8 -27.8 -50.65 -27.6 -50.55 -27.55 -50.45 -27.4 -50.45 -27.3 -50.4 -27.2 -50.4 -27.15 -50.15 -27.2 -49.7 -27.65 -49.45 -27.8 -49.05 -28.0 -48.9 -28.0 -48.7 -28.05 -48.45 -28.0 -48.35 -27.9 -48.25 -27.7 -48.2 -27.55 -48.15 -27.55 -47.9 -27.45 -47.75 -27.35 -47.65 -27.15 -47.6 -26.95 Q-46.95 -26.7 -46.05 -26.6 L-45.9 -26.5 -45.8 -26.4 -45.75 -26.3 -45.7 -26.3 -45.5 -26.2 -45.4 -26.1 -44.3 -26.05 -44.1 -26.0 -44.0 -25.9 -43.9 -25.7 -43.85 -25.5 -43.8 -25.45 -43.4 -25.35 -43.3 -25.25 -43.2 -25.2 -43.15 -25.15 -42.95 -25.05 -42.8 -24.75 -42.8 -24.45 Q-41.35 -24.65 -39.8 -24.25 -39.4 -24.25 -39.05 -24.05 -38.85 -23.95 -38.75 -23.75 L-38.7 -23.65 -38.7 -23.45 -38.75 -23.3 -38.8 -23.2 -38.75 -23.1 -38.7 -23.05 -38.65 -22.9 -38.6 -22.85 -38.55 -22.75 -38.45 -22.7 -38.45 -22.65 -38.15 -22.65 -37.8 -22.75 -37.65 -22.8 -37.15 -22.8 -36.95 -22.65 -36.8 -22.6 -36.7 -22.55 -35.7 -22.45 -35.55 -22.4 -34.75 -22.35 -34.55 -22.25 -34.4 -22.15 -34.4 -22.05 -34.35 -22.0 -34.3 -22.0 -34.15 -21.95 -34.1 -21.85 -34.1 -21.8 Q-33.8 -21.75 -33.55 -21.55 -33.3 -21.45 -33.05 -21.35 L-32.3 -21.25 -32.2 -21.2 -32.05 -21.05 -31.95 -21.0 -30.95 -21.0 -30.95 -21.9 -31.0 -22.05 -31.0 -22.75 -31.05 -23.4 -31.1 -23.45 -31.25 -23.5 -31.55 -23.8 Q-31.6 -23.85 -31.65 -24.0 L-31.65 -24.35 -31.6 -24.4 -31.55 -24.5 -31.55 -25.75 -31.35 -26.05 Q-31.25 -26.15 -31.25 -26.3 -31.25 -26.5 -31.15 -26.65 -31.05 -26.8 -30.95 -27.0 L-30.95 -27.15 -30.9 -27.25 -30.8 -27.5 -30.75 -27.55 -30.75 -27.7 -30.65 -27.9 Q-30.6 -28.0 -30.45 -28.05 L-30.4 -28.15 -30.15 -28.35 -30.15 -28.4 -30.1 -28.5 -30.05 -28.55 -29.95 -28.6 -29.9 -28.75 -29.8 -28.85 -29.7 -28.9 -29.55 -28.9 Q-28.95 -29.1 -28.25 -29.2 L-28.05 -29.2 -27.9 -29.15 -27.85 -29.1 -27.85 -29.05 -27.95 -28.95 -28.05 -28.9 Q-28.75 -28.7 -29.55 -28.6 L-29.7 -28.45 -29.75 -28.45 -29.75 -28.4 -30.0 -28.15 -30.2 -27.9 -30.25 -27.85 -30.25 -27.8 -30.3 -27.75 -30.3 -27.7 -30.35 -27.55 -30.35 -27.45 -30.4 -27.3 -30.55 -27.0 Q-30.5 -26.8 -30.65 -26.65 L-30.8 -26.3 -30.8 -26.2 -30.85 -26.1 -30.85 -26.05 -30.9 -25.95 -30.9 -25.85 -30.95 -25.75 -31.0 -25.6 -31.05 -25.55 -31.1 -24.9 -31.05 -24.3 -31.15 -24.15 Q-31.2 -24.0 -31.1 -23.95 L-30.9 -23.8 Q-30.75 -23.75 -30.65 -23.65 L-30.6 -23.15 -30.45 -23.3 -30.25 -23.4 -30.0 -23.5 -30.0 -23.55 -29.95 -23.6 -29.95 -23.75 Q-29.8 -24.0 -29.55 -24.1 L-29.25 -24.4 -29.0 -24.6 -29.0 -24.65 -28.95 -24.75 -28.85 -24.85 Q-28.8 -24.9 -28.85 -24.95 L-28.85 -25.0 -28.9 -25.1 -28.9 -25.7 -28.85 -25.8 -28.8 -25.85 -28.8 -25.9 -28.5 -26.2 -28.4 -26.35 -28.25 -26.5 -28.15 -26.55 Q-27.95 -26.8 -27.65 -27.0 -27.4 -27.15 -27.2 -27.4 L-27.1 -27.45 -27.05 -27.55 -26.9 -27.6 -26.85 -27.65 -26.8 -27.75 -26.65 -27.9 -26.65 -28.15 -26.6 -28.25 -26.55 -28.3 -26.35 -28.4 Q-24.5 -28.35 -22.7 -28.7 L-22.6 -28.7 Q-23.3 -28.25 -24.15 -28.15 L-26.25 -28.0 -26.25 -27.7 -26.3 -27.65 -26.3 -27.55 -26.35 -27.55 -26.35 -27.5 -26.5 -27.45 -26.7 -27.25 -26.85 -27.15 -26.95 -27.1 -27.0 -27.05 -27.05 -26.95 -27.05 -26.9 -27.15 -26.85 -27.2 -26.8 -27.2 -26.75 -27.35 -26.7 -27.55 -26.55 -27.75 -26.45 -27.9 -26.3 -27.9 -26.2 -28.05 -26.15 -28.2 -25.95 Q-28.25 -25.85 -28.3 -25.8 L-28.5 -25.6 -28.5 -25.4 -28.45 -25.3 -28.45 -25.25 -28.4 -25.2 -28.4 -24.9 -28.35 -24.85 -28.35 -24.75 Q-28.45 -24.6 -28.6 -24.4 -28.7 -24.2 -28.9 -24.05 L-29.1 -23.85 -29.3 -23.7 -29.35 -23.65 -29.4 -23.55 -29.45 -23.5 -29.45 -23.3 -29.5 -23.2 Q-29.55 -23.05 -29.75 -23.0 L-30.05 -22.85 -30.2 -22.8 -30.2 -22.35 -30.25 -22.2 -30.25 -22.1 -30.3 -22.05 -30.3 -22.0 -30.35 -21.9 -30.55 -21.7 -30.55 -20.75 -30.6 -20.65 -30.6 -20.6 Q-31.25 -20.5 -31.95 -20.6 L-32.05 -20.65 -32.15 -20.75 -32.25 -20.8 -32.4 -20.95 -33.15 -21.05 -33.55 -21.25 Q-33.65 -21.3 -33.75 -21.35 L-33.8 -21.45 -34.4 -21.45 -34.45 -21.55 -34.45 -21.6 -34.55 -21.6 -34.7 -21.65 -34.75 -21.75 -34.75 -21.85 -35.6 -22.0 -35.7 -22.05 -36.6 -22.05 -37.05 -22.2 -37.15 -22.25 Q-37.6 -22.35 -38.05 -22.15 L-38.2 -22.1 -38.65 -22.1 -38.8 -22.2 -38.9 -22.3 -38.9 -22.45 -38.95 -22.5 -39.0 -22.6 -39.05 -22.65 -39.05 -22.7 Q-39.15 -22.6 -39.3 -22.45 L-39.2 -22.25 -39.15 -22.05 -39.15 -21.4 -39.25 -21.1 -39.55 -20.65 -39.7 -20.45 -39.7 -20.2 -39.8 -20.0 -39.95 -19.8 -40.1 -19.55 Q-40.0 -19.35 -40.0 -19.15 L-40.05 -18.7 Q-40.1 -18.5 -40.05 -18.3 L-40.1 -18.2 -40.15 -18.05 -40.25 -17.85 -40.25 -17.75 -40.15 -17.65 -40.1 -17.55 -40.1 -17.4 -40.05 -17.3 -40.05 -17.1 -40.15 -16.9 -40.3 -16.7 -40.15 -16.65 -39.85 -16.45 -39.8 -16.4 -39.75 -16.3 Q-39.8 -16.05 -39.45 -16.15 L-39.3 -16.2 -39.05 -16.15 -38.85 -15.95 Q-38.65 -15.8 -38.55 -15.6 L-37.3 -15.6 Q-37.2 -15.55 -37.1 -15.5 L-37.05 -15.45 -36.95 -15.3 -36.95 -15.0 Q-35.2 -14.9 -33.45 -14.95 L-33.25 -14.85 -33.15 -14.75 Q-33.05 -14.35 -32.55 -14.45 L-31.65 -14.65 -31.65 -14.7 -31.55 -14.8 -31.4 -14.9 -31.3 -14.95 -31.0 -14.9 -30.8 -14.8 -30.7 -14.6 -30.7 -14.55 Q-30.0 -14.3 -29.25 -14.2 L-28.4 -14.15 -28.3 -14.25 -28.15 -14.45 Q-28.0 -14.75 -27.65 -14.9 L-27.55 -15.1 -27.45 -15.2 -27.45 -15.3 -27.2 -15.55 Q-26.9 -15.9 -26.45 -16.15 -26.4 -16.2 -26.35 -16.3 L-26.35 -16.4 -26.4 -16.5 -26.6 -16.7 -26.75 -16.95 -26.75 -17.05 -26.8 -17.15 -26.8 -17.45 -26.75 -17.55 -26.65 -17.7 -26.55 -17.8 -26.45 -17.85 -26.15 -17.9 -25.2 -18.05 -25.2 -18.8 Q-25.25 -19.05 -25.2 -19.25 L-25.1 -19.35 -24.85 -19.55 Q-24.55 -19.75 -24.25 -19.8 -23.65 -20.25 -23.05 -20.6 -22.45 -20.95 -22.0 -21.45 L-21.7 -21.5 -21.3 -21.4 -21.1 -21.3 -20.65 -21.3 -20.45 -21.4 -20.3 -21.5 -20.2 -21.7 -20.05 -21.8 -19.8 -22.05 -17.55 -22.35 -17.55 -22.4 -16.85 -22.35 Q-16.4 -22.35 -16.25 -21.95 L-16.25 -21.8 -16.3 -21.7 -16.3 -21.6 -16.2 -21.5 -16.2 -21.4 -16.15 -21.3 -16.15 -20.65 -16.2 -20.55 -16.35 -20.3 -16.45 -20.1 -16.3 -19.9 Q-15.8 -19.5 -15.2 -19.45 L-14.95 -19.2 -14.8 -19.1 -14.7 -19.0 -14.6 -18.8 -14.6 -18.7 -14.5 -18.6 -14.3 -18.45 Q-14.05 -18.35 -13.8 -18.15 L-13.75 -18.0 -13.7 -17.95 -13.65 -17.8 -13.55 -17.6 -13.55 -16.95 -13.7 -16.65 -14.0 -16.4 Q-14.2 -16.25 -14.35 -16.0 -14.45 -15.8 -14.55 -15.7 L-14.55 -15.6 -14.45 -15.45 -14.3 -15.25 -14.15 -15.1 -13.9 -15.0 -13.7 -14.8 -13.7 -14.7 -13.65 -14.55 -13.65 -14.15 -13.7 -14.05 -13.65 -13.95 -13.6 -13.8 -13.55 -13.7 -13.55 -13.65 -13.5 -13.65 -13.4 -13.6 -13.25 -13.5 -13.25 -13.4 -13.3 -13.35 -13.35 -13.2 -13.35 -12.9 -13.3 -12.85 -13.3 -12.6 -13.25 -12.55 -13.15 -12.3 -13.15 -12.0 -12.95 -11.55 Q-12.85 -11.25 -12.75 -10.95 -12.6 -10.75 -12.3 -10.6 -12.2 -10.55 -12.1 -10.4 L-12.1 -10.35 -12.0 -10.35 -11.9 -10.3 -11.55 -10.05 -11.25 -9.8 -10.95 -9.65 -10.65 -9.55 -10.55 -9.5 -10.5 -9.45 -10.45 -9.35 -10.3 -9.3 -10.15 -9.15 -10.0 -8.95 Q-9.9 -8.8 -9.85 -8.6 L-9.85 -8.5 Q-9.7 -8.3 -9.5 -8.2 L-9.2 -8.0 Q-9.1 -7.8 -9.1 -7.55 L-9.15 -7.0 -9.15 -6.95 -8.85 -6.9 -8.75 -6.85 -8.45 -6.65 -8.4 -6.6 Q-7.45 -6.45 -6.45 -6.75 L-6.35 -6.75 -6.2 -6.7 -6.15 -6.65 Q-5.95 -6.4 -5.55 -6.6 -4.65 -7.0 -3.6 -6.9 L-3.05 -7.15 Q-2.95 -7.2 -2.85 -7.35 L-2.35 -7.6 -2.15 -7.55 -1.95 -7.4 Q-1.5 -7.35 -1.1 -7.15 0.7 -6.7 2.45 -6.65 L2.5 -6.7 2.6 -6.75 2.75 -6.9 2.8 -7.0 2.9 -7.1 3.05 -7.2 3.1 -7.25 3.15 -7.35 3.25 -7.45 3.4 -7.55 3.45 -7.6 3.5 -7.7 3.75 -7.95 3.9 -8.05 4.0 -8.1 4.05 -8.15 4.1 -8.25 Q4.4 -8.45 4.75 -8.6 4.95 -8.7 5.15 -8.85 L5.25 -8.95 5.35 -9.1 Q6.45 -9.35 7.2 -10.15 L7.25 -10.2 7.25 -10.5 7.35 -10.7 7.5 -10.95 7.55 -11.05 7.55 -11.3 7.6 -11.4 7.7 -11.55 8.05 -11.9 8.35 -12.15 8.4 -12.25 8.5 -12.35 8.55 -12.35 8.75 -12.5 8.95 -12.7 9.05 -12.7 9.15 -12.75 9.45 -13.0 9.7 -13.25 10.1 -13.45 10.05 -13.5 10.05 -13.65 10.1 -13.7 Q10.35 -14.0 10.65 -14.25 L11.3 -14.7 11.4 -14.75 11.4 -14.9 11.45 -15.0 11.5 -15.05 11.5 -15.2 Q11.7 -15.35 11.8 -15.6 11.9 -15.85 12.15 -16.1 L12.2 -16.15 12.2 -16.25 12.25 -16.3 12.25 -16.35 12.4 -16.6 12.6 -16.85 12.7 -16.95 12.7 -17.15 12.8 -17.2 12.8 -17.4 12.85 -17.5 12.9 -17.55 12.9 -17.85 12.95 -18.0 13.1 -18.15 Q13.85 -18.1 14.4 -18.55 L14.45 -18.65 14.55 -18.75 14.6 -18.85 14.55 -18.9 14.55 -19.0 14.5 -19.05 14.5 -20.25 14.55 -20.3 14.65 -20.35 14.7 -20.6 Q14.75 -20.75 14.85 -20.85 L14.9 -20.95 14.9 -21.1 14.95 -21.15 15.05 -21.3 15.1 -21.35 15.1 -21.5 15.15 -21.55 15.2 -21.65 15.2 -21.85 15.25 -21.9 15.3 -22.0 15.3 -22.2 15.35 -22.25 15.35 -22.35 15.5 -22.55 15.6 -22.75 15.6 -22.8 15.65 -22.9 15.75 -22.95 15.9 -23.25 15.9 -23.4 16.0 -23.5 16.0 -23.75 16.1 -23.85 16.2 -24.0 16.25 -24.1 16.4 -24.2 Q17.4 -24.2 18.4 -24.55 L18.55 -24.7 18.75 -24.8 18.75 -24.85 19.2 -25.0 Q19.5 -25.3 19.9 -25.5 20.05 -25.55 20.1 -25.7 L20.1 -25.85 20.15 -25.9 20.55 -26.05 Q20.6 -26.2 20.6 -26.4 L20.6 -26.9 20.7 -27.05 20.75 -27.1 20.75 -27.2 20.8 -27.25 20.95 -27.45 21.1 -27.6 21.15 -27.8 21.1 -28.0 21.1 -28.1 Q21.15 -28.2 21.3 -28.3 L21.45 -28.45 21.55 -28.6 Q21.6 -28.7 21.7 -28.8 L21.9 -28.95 22.0 -29.05 22.2 -29.2 22.25 -29.3 22.25 -29.35 22.45 -29.55 22.5 -29.65 22.5 -29.75 22.6 -29.95 22.75 -30.2 22.8 -30.25 22.85 -30.4 22.85 -30.45 22.95 -30.55 23.1 -30.65 23.1 -30.75 23.2 -30.9 23.2 -31.85 23.45 -32.15 Q23.55 -32.25 23.6 -32.4 L23.9 -32.75 24.2 -33.05 Q24.35 -33.35 24.6 -33.5 L25.05 -33.9 25.1 -34.0 Q25.2 -34.1 25.2 -34.25 L25.2 -34.3 25.3 -34.45 25.5 -34.65 25.5 -34.7 25.55 -34.8 25.7 -34.95 25.9 -35.05 25.9 -35.35 26.1 -35.55 Q26.65 -35.9 27.15 -36.4 L27.75 -36.95 27.9 -37.05 28.05 -37.2 28.15 -37.25 28.25 -37.15 M45.9 -3.75 Q45.85 -3.75 45.85 -3.8 L45.75 -3.8 Q46.0 -3.7 46.25 -3.65 L45.9 -3.75" fill="#ffffff" fill-rule="evenodd" stroke="none"/>
  </g>
</svg>
