<?xml version="1.0" encoding="UTF-8" standalone="no"?>
<svg xmlns:ffdec="https://www.free-decompiler.com/flash" xmlns:xlink="http://www.w3.org/1999/xlink" ffdec:objectType="shape" height="23.15px" width="17.8px" xmlns="http://www.w3.org/2000/svg">
  <g transform="matrix(1.0, 0.0, 0.0, 1.0, 9.95, 9.05)">
    <path d="M-6.4 -5.9 L-6.2 -5.95 -6.05 -6.0 -5.5 -5.85 -5.35 -5.85 -6.1 -3.65 -6.7 -3.9 -6.4 -5.9" fill="#ffffff" fill-rule="evenodd" stroke="none"/>
    <path d="M7.4 5.3 Q7.6 5.15 7.7 5.25 7.95 5.4 7.7 6.3 L7.65 6.25 7.55 6.25 7.1 6.2 7.1 6.15 7.25 5.7 7.25 5.65 7.3 5.45 7.35 5.35 7.35 5.3 7.4 5.3 M-7.2 -4.2 L-7.5 -4.45 -7.5 -4.8 -7.45 -5.55 Q-7.5 -5.6 -7.45 -5.85 -7.45 -6.1 -7.3 -6.25 L-7.25 -6.35 Q-7.1 -6.45 -6.95 -6.45 -6.65 -6.4 -6.55 -6.15 -6.5 -6.0 -6.5 -5.85 L-6.4 -5.9 -6.7 -3.9 -7.2 -4.2 M-6.05 -6.0 L-5.5 -5.85 -6.05 -6.0 M-5.35 -5.85 L-4.45 -6.05 -6.1 -3.65 -5.35 -5.85" fill="#1a1a1a" fill-rule="evenodd" stroke="none"/>
    <path d="M-4.45 -6.05 L-3.55 -6.65 Q-3.1 -6.95 -1.6 -6.75 1.35 -6.8 1.95 -5.5 2.65 -4.15 3.0 -3.0 3.35 -1.85 3.55 -0.55 3.75 0.7 4.2 1.8 L4.3 2.15 4.8 3.2 5.15 3.8 5.25 3.95 Q6.0 4.5 6.55 4.8 7.1 5.1 7.15 5.05 L7.4 5.3 7.35 5.3 7.35 5.35 7.3 5.45 7.25 5.65 7.25 5.7 7.1 6.15 7.1 6.2 5.45 7.0 Q4.95 7.45 4.25 7.0 L4.0 6.85 3.6 7.25 Q3.35 7.05 3.1 6.8 1.15 4.85 -1.05 3.3 L-3.1 1.5 Q-4.55 4.7 -3.8 9.8 -8.6 9.05 -6.75 1.85 L-7.2 -4.2 -6.7 -3.9 -6.1 -3.65 -4.45 -6.05" fill="#c7a36d" fill-rule="evenodd" stroke="none"/>
    <path d="M1.85 5.2 L1.95 5.65 Q2.2 5.9 2.5 6.0 2.65 6.05 2.65 6.25 L3.05 6.35 3.1 6.5 4.25 6.7 Q5.95 6.35 7.65 6.05 6.85 8.1 5.15 9.95 L4.4 12.75 Q2.6 14.55 0.5 13.75 L-3.3 9.55 -4.3 9.55 Q-6.35 2.15 -3.6 -1.4 -3.4 -0.1 -2.75 1.15 -2.15 2.35 -1.0 3.1 L-0.75 3.35 -0.25 3.4 -0.1 3.65 1.0 4.3 Q1.25 4.45 1.3 4.75 L1.45 4.85 1.85 5.2" fill="#c7a36d" fill-rule="evenodd" stroke="none"/>
    <path d="M-1.1 6.65 L-1.0 6.6 -1.1 6.65 M4.5 7.95 L3.85 8.8 4.05 8.15 Q4.05 7.7 3.75 7.45 3.6 7.35 3.45 7.3 L3.35 7.3 3.35 7.2 3.65 7.15 3.8 7.15 3.9 7.35 4.15 8.0 4.5 7.95 M3.7 8.9 L3.6 9.0 Q3.1 9.85 1.85 9.7 L0.35 9.05 -1.3 7.15 -0.7 8.1 Q-0.55 8.0 -0.55 7.8 -0.45 7.5 -0.2 7.4 L0.2 7.3 0.45 7.5 Q0.65 7.6 0.95 7.7 L1.3 7.9 1.7 7.9 1.9 7.95 2.75 7.95 2.85 7.95 2.85 7.9 2.9 7.9 Q3.0 7.95 3.15 7.85 L3.15 7.8 3.3 7.65 3.4 7.75 Q3.55 7.9 3.5 8.25 3.45 8.7 3.7 8.9 M2.9 7.75 L2.85 7.85 Q2.8 7.8 2.9 7.75 M0.6 7.6 L0.5 7.5 0.5 7.55 0.4 7.6 Q0.2 7.85 0.2 8.25 0.15 8.9 0.55 9.2 L0.65 8.45 Q0.7 8.05 0.65 7.8 L0.6 7.6 M2.2 8.9 L2.15 9.05 Q2.15 9.2 2.2 9.3 L2.25 9.3 2.3 9.35 2.55 9.5 Q2.7 9.3 2.7 9.05 2.7 8.65 2.35 8.55 2.15 8.65 2.2 8.9" fill="#ffffff" fill-rule="evenodd" stroke="none"/>
    <path d="M-1.3 7.15 L-1.1 6.65 -1.0 6.6 -0.2 7.0 0.15 7.25 0.2 7.3 -0.2 7.4 Q-0.45 7.5 -0.55 7.8 -0.55 8.0 -0.7 8.1 L-1.3 7.15 M4.0 6.6 L4.1 6.65 4.25 6.8 4.3 7.0 4.25 7.15 4.3 7.15 Q4.35 7.2 4.35 7.3 L4.35 7.4 4.5 7.95 4.15 8.0 3.9 7.35 3.8 7.15 3.65 7.15 3.35 7.2 Q3.4 7.1 3.45 7.0 3.5 6.9 3.55 6.8 L4.0 6.6 M3.85 8.8 L3.7 8.9 Q3.45 8.7 3.5 8.25 3.55 7.9 3.4 7.75 L3.3 7.65 3.15 7.8 3.15 7.85 Q3.0 7.95 2.9 7.9 L2.85 7.9 2.9 7.85 2.85 7.85 2.9 7.75 2.95 7.8 3.25 7.55 3.3 7.55 3.35 7.5 3.35 7.3 3.45 7.3 Q3.6 7.35 3.75 7.45 4.05 7.7 4.05 8.15 L3.85 8.8 M0.6 7.6 L0.65 7.8 Q0.7 8.05 0.65 8.45 L0.55 9.2 Q0.15 8.9 0.2 8.25 0.2 7.85 0.4 7.6 L0.5 7.55 0.5 7.5 0.6 7.6 M2.2 8.9 Q2.15 8.65 2.35 8.55 2.7 8.65 2.7 9.05 2.7 9.3 2.55 9.5 L2.3 9.35 2.25 9.3 2.2 9.3 Q2.15 9.2 2.15 9.05 L2.2 8.9" fill="#cccccc" fill-rule="evenodd" stroke="none"/>
    <path d="M3.45 6.7 L4.0 6.6 3.55 6.8 Q3.5 6.9 3.45 7.0 3.4 7.1 3.35 7.2 3.25 7.2 3.2 7.15 3.15 6.95 3.3 6.8 L3.45 6.7 M4.1 6.65 L4.3 6.7 4.25 6.8 4.1 6.65" fill="#cacaca" fill-rule="evenodd" stroke="none"/>
    <path d="M0.15 7.25 L-0.1 6.95 3.45 6.7 3.3 6.8 Q3.15 6.95 3.2 7.15 3.25 7.2 3.35 7.2 L3.35 7.3 3.35 7.5 3.3 7.55 3.25 7.55 2.95 7.8 2.9 7.75 Q2.8 7.8 2.85 7.85 L2.9 7.85 2.85 7.9 2.75 7.95 1.9 7.95 1.7 7.9 1.3 7.9 0.95 7.7 Q0.65 7.6 0.45 7.5 L0.2 7.3 0.15 7.25 M4.3 6.7 L4.5 6.65 Q4.6 6.75 4.55 6.95 4.5 7.15 4.35 7.3 4.35 7.2 4.3 7.15 L4.25 7.15 4.3 7.0 4.25 6.8 4.3 6.7" fill="#8c0000" fill-rule="evenodd" stroke="none"/>
    <path d="M-5.55 5.55 Q-6.3 4.1 -6.55 2.4 L-6.0 1.3 -5.85 1.7 -5.75 2.15 Q-5.1 4.4 -3.9 6.55 -2.9 8.4 -1.45 9.95 -0.35 11.05 0.45 12.4 1.3 12.6 2.25 12.45 3.65 12.2 4.4 12.95 1.6 14.05 -0.65 12.75 L-3.55 9.75 -3.75 9.35 Q-5.1 9.8 -5.55 8.1 -5.8 7.05 -5.7 6.35 -5.3 7.1 -4.7 7.7 L-5.55 5.55 M1.0 10.4 L1.9 10.5 Q2.3 10.6 2.25 10.95 1.85 11.15 1.4 11.05 0.95 10.95 0.65 10.65 L0.7 10.55 Q0.7 10.5 0.75 10.45 L0.9 10.4 1.0 10.4" fill="#a9854f" fill-rule="evenodd" stroke="none"/>
    <path d="M-7.0 -5.75 Q-6.5 -5.85 -6.2 -5.95 L-6.55 -2.3 -7.0 -5.75" fill="#003366" fill-rule="evenodd" stroke="none"/>
    <path d="M-1.5 6.45 L-1.45 6.35 -1.3 6.55 -1.25 6.5 Q-1.1 6.45 -0.9 6.45 L-0.8 6.4 -0.05 6.35 0.75 6.45 1.4 6.35 Q2.1 6.3 2.8 6.3 L3.05 6.35 Q4.1 6.45 5.25 6.3 L5.8 6.4 5.85 6.4 Q5.55 6.65 5.1 6.75 4.85 7.65 4.5 8.5 L4.35 8.85 Q4.15 9.3 3.75 9.6 3.5 9.85 3.25 9.7 2.95 9.85 2.55 9.8 1.9 10.15 1.1 9.85 L1.0 9.8 1.05 9.85 Q-0.35 9.1 -1.25 7.75 -1.8 7.0 -1.6 6.35 L-1.55 6.45 -1.5 6.45 M-1.3 6.85 Q-0.8 7.65 -0.05 8.4 L0.5 9.0 0.9 9.25 1.45 9.4 1.45 9.35 2.65 9.35 Q3.0 9.25 3.3 9.3 3.9 8.6 4.2 7.7 4.35 7.2 4.6 6.85 L4.1 6.85 Q2.35 6.8 0.6 6.95 L0.1 6.95 -0.25 7.0 -1.3 6.85 M-6.4 2.5 L-6.15 1.75 Q-5.85 2.9 -5.85 4.2 L-5.8 4.95 -4.25 7.95 -4.3 7.7 -3.3 8.9 -3.3 8.95 Q-2.15 10.4 -0.7 11.7 0.4 12.75 1.55 13.55 L3.1 13.3 Q3.25 13.3 3.35 13.25 L4.35 10.4 Q4.7 9.35 5.5 8.65 L5.6 8.5 5.75 8.35 6.3 7.65 Q6.85 6.9 7.25 6.15 L7.85 6.05 7.65 6.4 7.7 6.35 Q7.25 7.8 6.05 9.35 5.75 9.7 5.5 10.1 L4.95 11.3 4.5 12.35 Q4.4 12.7 4.25 13.05 4.1 13.4 3.85 13.55 L3.8 13.55 Q3.65 13.85 3.4 13.75 L3.45 13.7 3.35 13.75 3.45 13.5 3.4 13.65 Q3.2 13.9 2.9 14.0 1.85 14.2 1.05 14.05 L0.9 13.9 Q0.05 13.85 -0.75 12.95 L-2.35 11.1 -2.95 10.55 -3.0 10.6 -3.35 10.15 Q-3.75 9.7 -3.95 9.25 L-4.25 8.75 Q-5.75 7.55 -6.2 5.65 L-6.35 4.75 Q-6.45 4.0 -6.45 3.2 L-6.4 2.5" fill="#1a1a1a" fill-rule="evenodd" stroke="none"/>
    <path d="M-7.0 -5.75 L-7.75 -2.75 -5.85 1.95 Q-5.7 2.3 -5.45 2.6 -5.7 4.0 -5.5 5.3 -5.0 6.8 -3.9 8.05 L-3.9 8.25 -3.7 9.4 -3.7 9.6 -3.6 9.9 -3.65 9.85 -3.9 9.85 -3.85 9.9 Q-4.65 10.05 -5.4 9.5 L-5.9 9.15 Q-7.9 7.95 -7.9 4.4 -7.9 3.25 -7.45 2.45 L-7.45 2.1 Q-9.65 1.9 -9.9 -0.95 L-9.95 -1.55 Q-10.0 -3.55 -8.45 -4.5 L-7.75 -4.25 -7.55 -4.15 -7.5 -4.8 Q-7.45 -5.3 -7.4 -5.8 L-7.25 -5.75 -7.0 -5.75 M-6.6 2.3 L-6.7 2.8 -6.7 3.1 Q-6.8 4.45 -6.65 5.75 L-6.4 6.95 -6.25 7.35 Q-5.8 8.5 -4.8 9.0 -4.45 9.1 -4.15 9.25 L-4.05 9.3 Q-5.0 7.85 -5.75 6.1 L-5.9 5.75 -6.25 4.6 Q-6.5 3.75 -6.55 2.85 L-6.6 2.3" fill="#1a1a1a" fill-rule="evenodd" stroke="none"/>
    <path d="M-4.1 -8.75 L-4.1 -8.8 -4.0 -8.8 Q-3.6 -9.25 -3.45 -8.85 L-1.15 -8.6 -5.15 1.9 -5.75 2.25 -5.7 2.25 -5.75 2.15 -5.85 1.7 -5.85 1.85 -5.95 1.55 -5.8 1.45 -5.95 1.45 -6.0 1.3 -6.1 1.35 -6.25 1.25 -6.45 1.3 -6.5 1.3 -6.5 1.25 -6.55 1.25 -6.85 1.15 Q-7.05 1.05 -7.25 0.95 L-6.75 0.9 -6.95 0.25 -6.85 0.15 -6.45 0.55 -6.5 0.2 Q-6.45 0.25 -6.35 0.3 -6.4 -0.5 -6.85 -1.25 -7.4 -2.2 -8.25 -2.75 L-7.75 -2.75 Q-7.5 -2.6 -7.2 -2.5 L-6.75 -1.95 -6.7 -1.75 Q-6.6 -1.35 -6.4 -1.15 -6.2 -0.95 -5.95 -0.9 L-5.85 -1.35 -6.1 -2.35 -6.25 -2.7 -6.35 -2.55 -6.4 -2.6 -6.8 -3.1 -6.85 -3.15 -6.9 -3.3 -6.85 -3.45 -6.8 -3.35 Q-6.75 -3.6 -6.7 -3.9 L-6.7 -4.7 -6.65 -4.95 -6.4 -5.9 -6.55 -5.85 -6.2 -5.95 -6.05 -6.1 Q-5.8 -6.3 -5.55 -6.35 L-5.4 -6.65 Q-4.95 -7.75 -4.45 -8.25 L-4.2 -8.6 Q-4.2 -8.7 -4.1 -8.75 M-6.55 2.75 L-6.7 2.85 -6.7 2.8 -6.6 2.3 -6.55 2.75 M-6.9 3.0 L-7.0 3.05 -6.9 3.0 M-8.7 -1.7 L-8.7 -2.15 -8.65 -2.2 -8.6 -1.95 -8.7 -1.7" fill="#c7a36d" fill-rule="evenodd" stroke="none"/>
    <path d="M-6.95 0.25 L-6.75 0.9 -7.25 0.95 -7.5 0.75 -7.4 0.6 Q-7.25 0.55 -7.05 0.4 L-6.95 0.25 M-6.1 1.35 L-6.0 1.3 -5.95 1.45 -6.05 1.4 -6.1 1.35 M-5.95 1.55 L-5.85 1.85 -5.85 1.7 -5.75 2.15 -5.85 1.95 -5.95 1.8 -5.95 1.7 -6.0 1.75 -6.1 1.65 -6.05 1.55 -5.95 1.55 M-8.7 -1.7 L-8.6 -1.95 Q-8.45 -1.7 -8.25 -1.4 -7.85 -0.9 -7.45 -0.55 -7.7 -0.3 -7.8 0.05 -7.85 0.25 -7.8 0.45 -8.2 0.05 -8.4 -0.5 -8.65 -1.1 -8.7 -1.7" fill="#a9854f" fill-rule="evenodd" stroke="none"/>
    <path d="M-4.1 -8.75 L-4.1 -8.8 -4.1 -8.75 M-5.75 2.25 L-6.55 2.75 -6.6 2.3 -6.7 2.8 -6.7 2.85 -6.9 3.0 -7.0 3.05 -7.8 3.55 Q-7.7 2.95 -7.45 2.45 L-7.45 2.1 Q-9.65 1.9 -9.9 -0.95 L-9.95 -1.55 Q-10.0 -3.55 -8.45 -4.5 L-7.75 -4.25 -7.55 -4.15 -7.5 -4.45 -7.5 -4.95 -7.4 -5.55 -7.45 -5.55 -7.4 -5.7 -7.4 -5.8 -7.25 -6.35 -6.95 -6.45 Q-6.5 -6.25 -6.55 -5.85 L-6.4 -5.9 -6.65 -4.95 -6.7 -4.7 -6.7 -3.9 Q-6.75 -3.6 -6.8 -3.35 L-6.85 -3.45 -6.9 -3.3 -6.85 -3.15 -6.8 -3.1 -6.4 -2.6 -6.35 -2.55 -6.25 -2.7 -6.1 -2.35 -5.85 -1.35 -5.95 -0.9 Q-6.2 -0.95 -6.4 -1.15 -6.6 -1.35 -6.7 -1.75 L-6.75 -1.95 -7.2 -2.5 Q-7.5 -2.6 -7.75 -2.75 L-8.25 -2.75 Q-7.4 -2.2 -6.85 -1.25 -6.4 -0.5 -6.35 0.3 -6.45 0.25 -6.5 0.2 L-6.8 0.0 -6.85 0.15 -6.95 0.25 -7.05 0.4 Q-7.25 0.55 -7.4 0.6 L-7.65 0.6 -7.5 0.75 -7.25 0.95 Q-7.05 1.05 -6.85 1.15 L-6.55 1.25 -6.5 1.25 -6.5 1.3 -6.45 1.3 -6.25 1.25 -6.1 1.35 -6.05 1.4 -5.95 1.45 -5.8 1.45 -5.95 1.55 -6.05 1.55 -6.1 1.65 -6.0 1.75 -5.95 1.7 -5.95 1.8 -5.85 1.95 -5.75 2.15 -5.7 2.25 -5.75 2.25 M-8.6 -1.95 L-8.65 -2.2 -8.7 -2.15 -8.7 -1.7 Q-8.65 -1.1 -8.4 -0.5 -8.2 0.05 -7.8 0.45 L-7.75 0.5 Q-7.9 0.15 -7.6 -0.1 -7.45 -0.25 -7.3 -0.35 L-7.45 -0.55 Q-7.85 -0.9 -8.25 -1.4 -8.45 -1.7 -8.6 -1.95" fill="#1a1a1a" fill-rule="evenodd" stroke="none"/>
    <path d="M-6.5 0.2 L-6.45 0.55 -6.85 0.15 -6.8 0.0 -6.5 0.2 M-7.45 -0.55 L-7.3 -0.35 Q-7.45 -0.25 -7.6 -0.1 -7.9 0.15 -7.75 0.5 L-7.8 0.45 Q-7.85 0.25 -7.8 0.05 -7.7 -0.3 -7.45 -0.55 M-7.4 0.6 L-7.5 0.75 -7.65 0.6 -7.4 0.6" fill="#111111" fill-rule="evenodd" stroke="none"/>
  </g>
</svg>
