<?xml version="1.0" encoding="UTF-8" standalone="no"?>
<svg xmlns:ffdec="https://www.free-decompiler.com/flash" xmlns:xlink="http://www.w3.org/1999/xlink" ffdec:objectType="shape" height="134.4px" width="101.2px" xmlns="http://www.w3.org/2000/svg">
  <g transform="matrix(1.0, 0.0, 0.0, 1.0, 12.75, 133.95)">
    <path d="M82.3 -132.95 Q82.3 -133.15 82.5 -133.35 82.65 -133.5 82.9 -133.6 83.6 -133.6 84.25 -133.9 L84.55 -133.9 85.05 -133.4 Q85.9 -132.75 86.05 -132.55 86.1 -132.4 86.1 -131.8 86.1 -131.25 86.1 -131.05 86.0 -130.5 85.6 -130.5 L85.4 -130.5 85.25 -130.6 84.9 -130.75 Q84.85 -131.2 84.6 -131.7 84.4 -132.1 84.15 -132.4 L83.25 -132.45 82.5 -132.5 82.4 -132.55 Q82.3 -132.6 82.3 -132.9 L82.3 -132.95 M83.6 -126.1 Q83.5 -125.85 83.35 -125.6 L83.15 -125.6 83.1 -125.5 83.1 -125.8 Q83.1 -126.15 83.3 -126.5 83.5 -126.75 83.65 -126.8 L83.8 -126.5 Q83.65 -126.35 83.6 -126.1 M75.9 -128.05 Q75.65 -128.15 75.2 -128.65 L74.5 -129.55 73.75 -129.45 Q73.5 -129.4 73.45 -129.3 L73.05 -129.3 Q72.95 -129.3 72.95 -129.65 72.95 -130.0 73.15 -130.25 73.25 -130.35 73.45 -130.45 73.85 -130.65 74.8 -130.6 75.35 -130.25 75.85 -129.45 L76.4 -128.25 Q76.45 -128.15 76.4 -128.1 76.3 -128.0 76.05 -128.0 L75.9 -128.05 M78.65 -118.75 Q78.35 -119.0 78.35 -119.35 78.35 -119.6 78.45 -120.1 78.45 -120.3 78.1 -120.6 77.75 -120.85 77.75 -121.2 77.75 -121.45 77.85 -121.65 L77.85 -121.75 78.05 -122.05 Q78.3 -122.05 78.9 -121.6 79.5 -121.15 79.5 -121.0 79.5 -120.6 79.3 -119.8 79.05 -118.9 78.8 -118.65 L78.65 -118.75 M65.45 -106.5 Q65.45 -106.8 65.75 -106.95 65.95 -107.1 66.2 -107.1 66.35 -107.1 66.8 -106.85 67.3 -106.6 67.55 -106.3 67.85 -106.0 68.65 -105.4 69.75 -105.6 69.95 -106.2 L70.05 -106.65 Q70.15 -106.9 70.35 -107.05 70.6 -107.2 71.25 -106.85 71.9 -106.45 72.1 -106.1 L72.0 -105.8 71.95 -105.65 Q71.65 -105.65 71.4 -105.8 L71.15 -105.9 70.95 -105.95 Q70.65 -105.95 70.15 -105.45 L69.4 -104.75 68.2 -104.8 Q68.0 -105.0 67.7 -105.5 L67.25 -106.15 Q66.7 -106.65 65.85 -105.95 65.6 -106.05 65.55 -106.1 65.45 -106.15 65.45 -106.5 M82.4 -101.8 L82.3 -101.9 Q83.5 -103.55 84.45 -102.8 84.85 -102.5 85.05 -101.95 85.25 -101.45 85.25 -101.05 85.25 -100.75 85.2 -100.6 L85.15 -100.4 85.1 -100.35 Q84.45 -101.05 83.55 -101.3 82.8 -101.5 82.4 -101.8 M85.35 -99.7 L85.45 -99.4 Q85.55 -99.05 85.55 -98.7 85.55 -98.4 85.45 -98.0 L85.3 -97.3 85.2 -97.3 85.15 -97.45 85.05 -98.0 Q85.0 -98.4 85.0 -98.7 L85.05 -99.45 Q85.1 -99.85 85.05 -100.05 L85.15 -100.05 85.35 -99.7 M55.6 -110.3 Q56.1 -111.15 56.7 -110.35 56.95 -110.05 57.15 -109.55 57.3 -109.1 57.3 -108.85 57.3 -108.55 57.15 -108.4 L57.15 -108.35 57.0 -108.2 Q56.4 -109.2 55.4 -109.95 L55.6 -110.3 M55.35 -102.25 Q55.45 -102.25 55.65 -102.1 L56.05 -101.75 Q56.65 -101.3 57.25 -101.7 L57.45 -101.65 57.1 -101.3 56.9 -101.05 56.85 -100.9 56.25 -100.85 Q55.75 -100.85 55.45 -101.3 55.25 -101.6 55.25 -101.8 55.25 -102.1 55.3 -102.2 L55.3 -102.25 55.35 -102.25 M63.95 -98.65 L63.8 -98.6 Q63.55 -98.6 63.3 -98.85 63.1 -99.05 63.0 -99.05 L62.4 -99.15 62.35 -99.2 Q62.3 -99.3 62.25 -99.55 L62.25 -99.6 Q62.25 -100.0 62.6 -100.2 62.9 -100.35 63.3 -100.3 63.7 -100.25 63.95 -100.0 64.25 -99.7 64.2 -99.25 L64.1 -98.75 64.1 -98.7 Q64.05 -98.65 63.95 -98.65 M65.7 -94.2 L65.85 -94.35 Q66.25 -94.75 67.05 -94.55 67.1 -94.5 67.1 -94.0 67.1 -93.75 67.0 -93.45 66.8 -93.15 66.6 -93.15 66.35 -93.15 66.3 -93.25 L66.0 -93.3 65.65 -93.4 65.55 -93.35 Q65.5 -93.35 65.5 -93.65 65.5 -94.0 65.7 -94.2 M57.85 -72.45 L57.35 -72.5 57.35 -72.75 57.3 -72.95 57.3 -73.0 Q57.3 -73.3 57.6 -73.65 57.95 -74.05 58.4 -74.25 L58.95 -74.25 Q59.25 -74.1 59.6 -73.5 59.95 -73.0 60.0 -72.8 L60.0 -71.7 Q59.95 -71.7 59.9 -71.65 L59.85 -71.6 59.8 -71.45 59.75 -71.45 59.25 -71.5 Q59.3 -71.7 59.15 -72.35 58.95 -73.15 58.55 -73.15 58.45 -73.15 58.3 -72.95 L58.25 -72.95 Q58.1 -72.75 58.0 -72.6 L57.95 -72.5 57.9 -72.45 57.85 -72.45 M52.1 -71.15 L52.1 -71.45 Q52.1 -71.8 52.15 -71.9 L52.45 -71.95 52.6 -71.75 52.75 -71.5 52.65 -71.25 52.35 -70.9 Q52.15 -71.0 52.15 -71.05 L52.1 -71.15 M70.1 -81.1 Q70.35 -80.9 70.6 -80.5 L70.6 -79.45 70.4 -79.25 Q70.25 -79.4 69.9 -80.1 69.7 -80.55 69.2 -80.5 69.15 -80.7 69.2 -80.85 69.3 -81.1 69.6 -81.2 69.85 -81.3 70.1 -81.1 M74.1 -77.85 L73.7 -77.7 Q73.9 -78.0 74.8 -78.75 75.7 -79.5 75.8 -79.7 L76.7 -79.65 Q77.5 -79.35 77.9 -78.25 78.2 -77.4 78.2 -76.55 78.2 -76.4 77.8 -75.6 77.2 -74.45 76.95 -73.85 76.7 -73.2 75.8 -72.65 74.8 -72.15 74.4 -71.85 74.0 -71.9 73.8 -72.05 L74.6 -72.55 75.4 -73.05 Q76.1 -73.5 76.5 -73.85 76.85 -74.2 76.85 -74.45 L76.85 -74.6 Q76.85 -76.15 76.55 -76.8 76.0 -77.75 75.45 -78.85 L74.9 -78.5 Q74.65 -78.3 74.3 -77.9 L74.1 -77.85 M72.6 -72.45 L72.75 -72.1 71.85 -71.65 71.0 -71.25 71.45 -71.95 71.55 -72.1 71.95 -72.6 72.5 -72.55 72.6 -72.45 M32.35 -102.25 L32.4 -102.3 Q32.55 -102.6 32.75 -102.75 L33.5 -102.7 Q33.75 -102.45 33.95 -102.2 34.25 -101.85 34.25 -101.65 34.25 -101.05 33.85 -100.35 33.7 -100.1 33.5 -99.9 33.3 -99.65 33.05 -99.55 33.05 -99.85 33.1 -100.55 33.05 -101.2 32.4 -101.65 L32.3 -101.6 Q32.25 -101.65 32.25 -102.0 32.25 -102.05 32.35 -102.25 M20.0 -92.7 L19.85 -92.7 Q19.6 -92.7 19.4 -92.9 L19.05 -93.2 18.35 -93.1 18.0 -92.95 Q17.9 -92.85 17.85 -92.85 17.7 -92.8 17.7 -93.15 17.7 -93.25 17.85 -93.5 L18.05 -93.75 Q18.3 -94.1 18.4 -94.2 L19.25 -94.2 Q19.6 -93.9 19.8 -93.55 L20.15 -92.85 20.15 -92.75 20.0 -92.7 M13.05 -86.05 L13.0 -86.05 12.85 -86.2 Q12.8 -86.25 12.8 -86.6 12.8 -87.7 12.95 -88.35 13.2 -89.45 13.9 -89.6 L13.8 -89.3 Q13.65 -88.85 13.4 -88.35 13.1 -87.9 13.1 -87.4 13.1 -87.15 13.2 -86.95 13.35 -86.65 13.65 -86.25 L13.45 -86.0 13.05 -86.05 M20.85 -86.4 Q21.45 -87.35 22.05 -86.4 22.25 -86.1 22.4 -85.65 22.5 -85.25 22.5 -85.1 L22.5 -84.55 22.45 -84.4 22.35 -84.35 22.3 -84.25 22.25 -84.25 Q21.85 -84.5 21.45 -85.35 21.05 -86.25 20.85 -86.35 L20.85 -86.4 M11.05 -75.85 Q11.0 -76.0 11.0 -76.3 11.0 -76.45 11.3 -76.75 L11.8 -77.1 12.1 -77.1 12.75 -77.0 Q13.0 -76.9 13.15 -76.5 L13.2 -76.2 13.25 -75.95 13.25 -75.9 13.3 -76.0 13.35 -76.0 Q13.45 -75.65 13.75 -75.3 14.0 -74.95 14.0 -74.9 L14.0 -74.4 13.95 -74.35 13.85 -74.3 13.7 -74.2 13.65 -74.2 Q13.3 -74.35 13.25 -74.85 13.2 -75.15 13.2 -75.8 L13.2 -75.85 13.05 -76.0 12.9 -76.2 12.7 -76.3 Q12.5 -76.4 12.45 -76.4 L11.85 -76.3 Q11.45 -75.85 11.45 -75.7 L11.05 -75.75 11.05 -75.85 M1.3 -68.0 L1.0 -67.9 0.9 -67.8 Q0.75 -67.75 0.75 -68.05 0.75 -68.25 1.05 -68.5 1.45 -68.85 2.05 -69.1 L3.25 -69.95 3.8 -70.25 Q4.4 -70.6 4.6 -70.6 5.2 -70.6 5.7 -70.2 6.15 -69.8 6.15 -69.5 6.15 -69.25 6.0 -69.1 L5.9 -69.05 Q5.8 -68.95 5.8 -68.75 5.8 -68.2 6.1 -67.4 L6.15 -67.15 6.5 -66.0 6.5 -65.9 6.3 -65.85 6.2 -65.8 Q5.65 -66.25 5.55 -67.35 5.45 -68.35 5.75 -69.05 5.7 -69.1 4.85 -69.55 L4.15 -69.95 3.95 -70.05 Q3.45 -70.05 3.15 -69.85 3.0 -69.7 2.75 -69.35 L2.7 -69.25 Q2.2 -68.5 1.3 -68.0 M22.1 -79.8 L21.95 -79.7 21.9 -79.8 Q21.85 -79.85 21.85 -80.15 21.85 -80.55 22.2 -80.9 22.45 -81.2 22.9 -81.3 L23.6 -81.25 Q23.95 -81.1 23.95 -80.7 23.95 -80.5 24.6 -79.55 25.25 -78.55 25.3 -78.4 25.35 -77.9 25.65 -77.2 25.9 -76.7 25.9 -76.15 25.9 -75.85 25.8 -75.35 L25.75 -75.15 25.6 -74.65 Q25.3 -75.55 24.8 -77.55 24.3 -79.25 23.8 -80.4 L23.7 -80.65 23.45 -80.6 Q22.9 -80.45 22.55 -80.15 L22.1 -79.8 M36.25 -93.9 L36.25 -93.95 36.3 -94.1 Q36.7 -94.15 37.25 -93.45 37.8 -92.8 37.75 -92.3 L37.75 -92.2 Q36.4 -93.35 36.25 -93.9 M37.6 -91.3 L37.7 -91.35 37.75 -91.15 Q37.55 -90.6 37.55 -90.2 L37.4 -90.25 Q37.35 -90.3 37.35 -90.6 37.35 -91.1 37.55 -91.25 L37.6 -91.3 M36.55 -89.35 Q36.75 -89.45 37.0 -89.55 37.1 -88.85 37.2 -88.55 L37.6 -87.55 37.65 -87.45 Q37.5 -87.3 37.2 -87.1 36.95 -86.9 36.9 -86.9 36.3 -86.9 36.15 -87.45 36.1 -87.75 36.15 -88.1 36.15 -88.8 36.3 -89.1 36.4 -89.25 36.55 -89.35 M43.5 -89.05 L43.5 -89.1 Q43.5 -89.9 44.1 -89.4 44.65 -88.95 44.85 -88.5 L44.8 -87.8 44.7 -87.7 Q44.7 -87.65 44.6 -87.65 L44.4 -87.6 Q44.15 -87.6 43.8 -88.35 43.55 -88.85 43.5 -89.05 M31.3 -90.95 L30.95 -91.4 Q30.7 -91.8 30.7 -92.0 30.7 -92.3 30.75 -92.45 L30.8 -92.5 Q30.85 -92.65 31.05 -92.7 31.25 -92.45 31.45 -92.1 L31.6 -91.7 Q31.6 -91.4 31.55 -91.25 L31.3 -90.95 M25.15 -73.2 L25.35 -73.55 Q25.4 -73.4 25.3 -73.1 L24.7 -71.6 24.55 -71.6 24.5 -71.85 Q24.65 -72.25 25.15 -73.2 M23.9 -67.3 Q23.85 -67.4 23.85 -67.5 23.85 -67.9 24.0 -68.45 24.2 -69.05 24.4 -69.25 L24.4 -69.05 Q24.4 -68.6 24.55 -68.25 L24.6 -68.2 Q24.75 -68.0 24.9 -67.8 25.25 -67.5 26.1 -67.05 26.95 -66.6 27.3 -66.25 27.8 -65.75 27.8 -64.95 27.8 -64.65 27.55 -63.25 27.25 -61.75 27.1 -61.55 L26.95 -61.55 26.85 -61.45 Q26.8 -61.45 26.8 -61.8 L26.85 -62.1 Q26.9 -62.55 27.1 -62.95 27.45 -63.55 27.45 -63.65 27.45 -64.25 26.8 -65.2 26.3 -66.05 26.15 -66.4 L26.1 -66.55 26.05 -66.45 25.95 -66.4 25.7 -66.1 25.05 -66.15 24.55 -66.3 Q24.4 -66.5 24.15 -66.8 23.95 -67.1 23.9 -67.3 M41.6 -62.35 L41.65 -62.35 41.85 -61.75 Q41.95 -61.4 41.95 -61.1 41.95 -60.6 41.45 -59.5 L41.35 -59.5 41.25 -59.55 41.25 -59.75 Q41.35 -60.2 41.2 -61.4 41.15 -62.15 41.6 -62.35 M38.05 -57.05 L38.1 -56.75 Q37.85 -56.7 37.05 -56.1 36.4 -55.6 36.15 -55.3 L36.05 -55.25 Q35.95 -55.25 35.95 -55.5 L35.95 -55.55 Q35.95 -56.15 36.45 -56.65 37.05 -57.2 38.05 -57.05 M45.15 -57.85 L45.15 -57.5 Q45.15 -57.45 44.9 -57.0 L44.55 -56.35 Q44.4 -56.45 44.35 -56.5 44.3 -56.6 44.3 -56.7 L44.25 -57.0 Q44.25 -57.35 44.6 -57.65 44.8 -57.9 45.0 -57.95 L45.15 -57.9 45.15 -57.85 M24.9 -56.9 Q24.5 -55.95 24.3 -55.9 L24.2 -56.0 24.55 -56.65 Q24.75 -57.05 24.75 -57.2 L24.85 -57.2 24.9 -56.9 M25.6 -51.35 L25.35 -51.4 24.8 -51.35 24.5 -51.35 Q24.4 -51.2 24.1 -50.9 23.8 -50.65 23.75 -50.55 L23.35 -50.6 23.25 -51.25 Q24.0 -52.9 24.8 -52.85 25.7 -52.8 26.15 -52.4 26.4 -52.2 26.5 -51.95 26.55 -51.8 26.55 -51.6 L26.55 -51.2 26.4 -51.2 26.05 -51.25 25.65 -51.35 25.6 -51.35 M34.1 -47.65 L33.75 -47.65 Q33.5 -47.65 33.4 -47.85 33.35 -48.0 33.35 -48.5 33.35 -49.45 33.65 -49.8 L33.85 -49.95 Q34.15 -49.6 34.15 -49.0 34.2 -48.4 34.35 -48.1 L34.2 -47.75 34.1 -47.65 M23.4 -41.5 Q23.5 -41.85 23.8 -42.0 L24.4 -41.9 Q24.8 -41.7 25.0 -41.15 25.1 -40.8 25.1 -40.4 L25.1 -40.0 25.0 -39.85 24.7 -39.5 23.9 -40.4 Q23.4 -41.0 23.4 -41.2 L23.4 -41.5 M25.0 -33.3 L24.95 -33.2 Q24.9 -33.05 24.65 -33.05 24.35 -33.05 24.0 -33.95 23.75 -34.65 23.75 -34.9 L23.75 -35.15 Q23.8 -35.4 23.8 -35.3 24.55 -35.3 24.85 -34.55 25.05 -34.1 25.05 -33.7 L25.05 -33.35 25.0 -33.3 M47.05 -46.85 L47.2 -46.7 Q47.5 -46.95 48.1 -47.25 48.95 -47.65 49.2 -47.75 48.95 -47.5 48.35 -47.1 48.2 -47.0 47.45 -46.55 L47.2 -46.6 46.75 -45.8 46.45 -45.3 Q46.1 -45.35 45.95 -45.65 L45.95 -45.7 Q45.85 -45.9 45.85 -46.1 45.85 -46.5 46.15 -46.8 46.55 -47.2 47.05 -46.85 M49.5 -47.95 L49.3 -47.8 49.2 -47.9 Q49.45 -48.0 49.5 -48.25 L49.55 -48.25 Q49.6 -48.45 49.7 -48.55 L49.7 -48.05 49.55 -47.95 49.5 -47.95 M36.0 -45.75 L36.0 -45.8 36.8 -45.6 Q37.45 -45.25 37.7 -44.55 37.95 -43.65 38.1 -43.2 L38.05 -43.0 Q38.0 -42.95 37.95 -42.9 L37.7 -42.85 Q37.65 -42.85 37.05 -43.4 36.4 -43.95 36.3 -44.15 36.2 -44.35 36.05 -44.8 L35.85 -45.5 36.0 -45.75 M17.3 -54.95 L17.2 -55.05 Q17.15 -55.15 17.15 -55.45 17.15 -56.3 17.9 -56.75 18.55 -57.15 19.65 -57.15 20.35 -57.15 20.85 -56.65 21.25 -56.25 21.45 -55.75 L21.4 -55.65 21.35 -55.6 20.7 -55.9 20.05 -56.25 19.65 -56.35 Q19.45 -55.9 18.95 -55.55 L18.05 -54.95 17.3 -54.95 M5.2 -62.15 L5.25 -62.25 Q5.65 -62.25 6.1 -61.9 6.75 -61.35 7.0 -61.2 L6.95 -61.15 6.5 -60.85 Q6.2 -60.65 6.15 -60.65 5.75 -60.65 5.4 -61.2 5.25 -61.5 5.15 -61.8 L5.15 -62.1 5.2 -62.15 M-12.25 -57.45 L-12.35 -57.15 Q-12.55 -57.1 -12.6 -57.05 L-12.75 -57.05 -12.75 -57.4 Q-12.75 -58.25 -12.35 -59.05 -11.9 -60.05 -11.05 -60.35 L-10.65 -60.4 -10.3 -60.35 Q-9.9 -60.4 -9.25 -61.15 L-9.05 -61.4 -8.7 -61.9 Q-8.4 -62.5 -8.3 -62.7 L-8.25 -62.9 -7.2 -65.85 Q-7.05 -66.35 -7.0 -67.5 -6.85 -68.25 -6.4 -68.6 L-6.2 -68.75 -6.15 -68.5 Q-6.55 -66.5 -6.9 -65.3 -7.4 -63.45 -8.0 -62.2 -8.6 -61.0 -8.85 -60.65 -9.4 -59.7 -9.95 -59.45 -10.65 -59.15 -11.1 -59.0 -11.3 -58.95 -11.55 -58.65 L-12.0 -57.85 -12.25 -57.45 M-5.45 -70.35 L-5.85 -70.25 Q-5.85 -70.3 -5.9 -70.35 -5.9 -70.4 -5.9 -70.7 -5.9 -70.95 -5.65 -71.2 -5.25 -71.5 -4.7 -71.35 -4.3 -71.25 -4.0 -70.85 -3.6 -70.3 -3.45 -70.2 -3.05 -69.85 -1.95 -69.1 -1.45 -68.75 -1.0 -68.5 L-0.25 -68.05 Q-0.25 -68.0 -0.65 -67.95 L-1.55 -68.35 Q-2.2 -68.6 -2.7 -68.7 -2.9 -69.35 -3.9 -69.95 -4.8 -70.45 -5.45 -70.35 M6.9 -40.4 Q6.75 -40.2 6.55 -40.15 L6.05 -40.15 6.0 -40.05 6.0 -40.35 Q6.0 -40.7 6.15 -40.95 L6.45 -41.45 Q6.8 -42.05 6.55 -43.2 L6.45 -43.65 6.55 -43.75 6.65 -43.8 6.85 -43.85 Q7.25 -43.05 7.35 -42.75 7.45 -42.4 7.45 -41.7 7.45 -41.25 7.2 -40.8 7.05 -40.55 6.9 -40.4 M-8.25 -43.55 L-8.25 -43.75 -8.1 -43.85 Q-7.95 -44.0 -7.65 -44.0 -7.45 -44.0 -7.05 -43.8 -6.6 -43.6 -6.4 -43.6 -4.45 -43.6 -3.45 -45.3 L-2.8 -46.65 Q-2.45 -47.35 -2.15 -47.55 0.0 -48.85 1.05 -49.15 2.6 -49.55 2.85 -48.4 L2.85 -47.7 Q2.85 -47.55 2.8 -47.5 L2.55 -47.3 Q0.4 -47.35 -0.65 -46.95 L-1.4 -46.4 -2.5 -45.45 -2.65 -45.35 -2.7 -45.2 Q-2.85 -44.85 -2.95 -44.7 -3.55 -43.9 -4.85 -43.1 -5.75 -42.55 -6.5 -42.35 L-7.4 -42.25 Q-7.95 -42.7 -8.1 -42.85 -8.35 -43.2 -8.25 -43.55 M10.95 -41.9 L10.95 -41.85 Q11.05 -41.7 11.05 -41.5 L10.5 -41.4 Q10.0 -41.2 9.8 -40.75 9.7 -40.5 9.45 -40.1 9.1 -39.6 8.8 -39.45 L8.7 -39.65 8.7 -39.85 8.7 -40.1 Q8.7 -40.45 8.85 -40.9 9.0 -41.3 9.2 -41.7 9.5 -41.8 9.65 -41.95 L9.8 -42.1 10.9 -42.05 10.95 -41.9 M7.4 -35.85 Q7.3 -35.9 7.3 -36.2 7.3 -36.45 7.6 -36.7 7.9 -36.95 8.25 -36.95 L8.45 -36.95 Q8.35 -36.75 7.95 -36.35 L7.6 -35.95 7.45 -35.85 7.4 -35.85 M13.4 -31.7 L13.4 -31.95 Q13.4 -32.35 14.25 -33.4 15.05 -34.45 15.05 -35.15 15.05 -35.55 14.6 -36.85 14.1 -38.1 14.1 -38.25 14.1 -38.6 14.15 -38.7 14.2 -38.8 14.4 -38.85 L14.95 -37.9 15.3 -36.95 Q15.65 -35.85 15.65 -35.05 15.65 -33.95 15.3 -33.15 14.8 -31.85 13.6 -31.6 L13.45 -31.6 13.4 -31.7 M12.65 -29.7 L12.55 -29.85 Q12.5 -30.0 12.5 -30.4 12.5 -30.9 12.55 -31.1 12.7 -31.5 13.2 -31.4 L13.35 -31.1 Q13.15 -30.5 13.1 -29.75 L13.0 -29.65 12.85 -29.55 12.65 -29.7 M1.15 -26.5 Q1.05 -26.6 0.95 -26.55 0.9 -26.6 0.9 -26.9 0.9 -26.95 1.25 -27.4 1.65 -27.95 2.1 -28.3 L2.2 -28.15 2.3 -28.05 Q2.35 -27.85 2.35 -27.5 2.35 -27.4 1.65 -26.45 L1.15 -26.5 M6.5 -20.1 L6.4 -20.4 Q6.35 -20.6 6.35 -20.95 6.35 -22.1 7.2 -22.55 8.15 -23.05 9.4 -22.15 L9.45 -22.0 9.3 -21.9 Q8.85 -21.7 8.45 -21.7 L7.55 -21.8 Q7.2 -21.8 7.1 -21.05 L7.1 -20.15 7.0 -20.1 6.9 -20.0 6.5 -20.05 6.5 -20.1 M12.8 -14.8 L12.9 -14.9 13.1 -14.5 Q13.15 -14.3 13.15 -13.9 13.15 -13.55 12.6 -13.0 11.9 -12.45 11.7 -12.2 L11.55 -12.25 Q11.6 -12.7 12.2 -13.75 12.6 -14.55 12.8 -14.8 M6.85 -10.2 L6.85 -10.3 Q6.85 -10.8 7.45 -10.8 8.1 -10.85 9.3 -10.3 9.25 -10.15 9.1 -10.0 8.9 -9.8 8.6 -9.8 L7.4 -9.85 7.05 -9.85 Q7.0 -9.9 6.9 -9.95 6.85 -10.0 6.85 -10.2 M20.35 -14.85 L20.3 -14.85 Q19.95 -15.1 19.95 -15.45 19.95 -15.7 19.35 -16.0 L19.35 -16.4 Q19.55 -16.4 19.8 -16.3 L20.1 -16.1 Q20.55 -15.7 20.7 -15.2 20.6 -14.9 20.35 -14.85 M20.6 -8.2 L20.55 -8.15 Q20.45 -8.0 20.15 -8.0 19.8 -8.0 19.4 -8.5 19.05 -8.9 19.05 -9.05 19.05 -9.45 19.15 -9.8 L19.2 -9.9 19.25 -10.05 Q19.35 -10.2 19.45 -10.25 L19.5 -10.15 Q19.7 -9.9 19.95 -9.35 20.25 -8.75 20.85 -8.55 L20.6 -8.2 M44.6 -25.65 Q44.8 -26.0 45.45 -26.4 46.4 -26.95 46.8 -26.6 46.9 -26.55 46.95 -26.55 L46.95 -26.25 46.95 -26.2 Q46.95 -25.8 46.05 -25.25 45.4 -24.9 44.9 -24.75 L44.6 -24.85 Q44.5 -24.95 44.5 -25.3 44.5 -25.5 44.6 -25.65 M39.3 -28.2 Q39.05 -28.35 39.1 -28.8 L39.15 -29.75 39.05 -30.5 Q38.9 -31.05 38.9 -31.4 L39.05 -31.4 Q39.6 -31.45 39.75 -31.0 39.85 -30.8 39.85 -29.85 39.85 -29.15 39.45 -28.15 L39.3 -28.2 M34.75 -24.15 L34.75 -23.55 34.7 -23.4 Q34.7 -23.3 34.45 -23.3 34.0 -23.3 33.4 -23.95 32.85 -24.55 32.85 -24.7 32.85 -24.9 32.9 -25.05 33.05 -25.45 33.6 -25.4 34.35 -25.3 34.75 -24.75 L34.75 -24.15 M31.45 -31.5 Q31.4 -31.55 31.4 -31.85 31.4 -32.45 31.8 -33.05 32.1 -33.55 32.5 -33.35 L32.75 -33.1 32.4 -32.3 32.1 -31.5 31.5 -31.55 31.45 -31.5 M31.6 -1.85 L31.75 -1.85 Q32.75 -1.9 32.75 -0.8 32.75 -0.5 32.6 -0.25 L32.4 0.0 31.35 -0.15 29.0 0.1 25.05 0.4 24.6 0.35 24.5 0.3 24.25 0.25 Q24.45 0.0 24.85 -0.1 25.5 -0.35 27.4 -0.6 27.65 -0.6 28.3 -1.15 L29.05 -1.65 Q30.25 -1.8 30.95 -1.65 31.25 -1.8 31.6 -1.85 M35.4 -10.0 Q35.4 -10.4 35.4 -10.65 L35.7 -10.6 Q35.95 -10.5 36.25 -10.1 L36.25 -9.9 36.2 -9.8 36.25 -9.7 Q36.2 -9.65 35.95 -9.65 35.65 -9.65 35.55 -9.75 L35.4 -9.95 35.4 -10.0 M62.35 -62.05 Q62.35 -61.75 62.35 -61.8 L62.25 -61.8 60.6 -62.4 60.4 -62.15 60.1 -61.85 58.5 -61.75 57.8 -60.8 Q57.5 -60.35 57.15 -60.15 56.95 -60.4 56.9 -60.55 L56.85 -60.65 Q56.8 -60.85 56.8 -61.15 56.8 -61.95 57.85 -62.7 58.95 -63.55 60.3 -63.55 61.65 -63.55 62.1 -62.95 62.35 -62.65 62.35 -62.05 M52.95 -52.7 L52.65 -53.1 Q52.4 -53.6 52.4 -53.95 L52.4 -54.05 52.55 -54.6 Q52.65 -55.0 52.65 -55.3 52.65 -55.55 52.5 -56.05 52.4 -56.6 52.4 -56.8 L51.5 -57.55 Q51.05 -57.9 51.05 -58.15 51.05 -58.35 51.15 -59.0 L51.2 -59.25 51.2 -59.85 51.2 -59.95 Q52.25 -60.65 53.1 -58.5 53.4 -57.75 53.55 -56.8 53.75 -56.0 53.75 -55.55 53.75 -54.5 53.7 -54.3 53.6 -53.85 53.1 -52.6 L53.1 -52.55 52.95 -52.7 M52.7 -41.15 L52.55 -41.6 53.25 -42.0 Q53.8 -42.35 54.0 -42.65 54.1 -42.9 54.45 -43.1 54.85 -43.35 55.2 -43.35 L55.2 -43.25 55.25 -43.2 55.25 -42.85 Q55.25 -42.4 54.55 -41.7 53.9 -41.05 53.35 -40.8 L52.8 -40.85 Q52.75 -40.95 52.7 -41.15 M61.7 -18.95 Q61.7 -19.2 61.7 -18.95 62.15 -19.0 62.55 -18.4 62.8 -17.95 62.8 -17.65 62.8 -17.55 62.45 -17.05 62.05 -16.5 61.8 -16.35 L61.6 -16.4 61.35 -16.45 Q61.4 -16.85 61.6 -17.05 61.85 -17.3 61.95 -17.6 61.95 -17.75 61.8 -18.1 61.65 -18.5 61.65 -18.75 L61.7 -18.95 M48.3 -20.65 L48.3 -20.75 Q48.35 -20.8 48.35 -20.75 48.8 -20.85 49.0 -20.75 49.2 -20.6 49.2 -20.15 49.2 -19.8 49.1 -19.55 L49.0 -19.25 48.9 -19.05 Q48.75 -19.25 48.5 -19.8 48.3 -20.35 48.3 -20.45 L48.3 -20.65 M56.55 -6.6 Q56.75 -6.65 56.9 -6.45 57.1 -6.15 57.1 -5.65 57.1 -5.25 56.85 -5.0 56.65 -4.8 56.5 -4.8 L56.2 -4.85 56.15 -4.85 56.15 -4.9 56.05 -4.95 Q56.0 -4.95 56.0 -5.3 56.0 -5.55 56.15 -5.95 56.25 -6.35 56.25 -6.5 L56.55 -6.6 M64.45 -14.85 Q65.1 -15.2 65.25 -14.7 65.35 -14.55 65.35 -13.8 L65.3 -12.85 65.25 -12.8 Q65.2 -12.7 64.95 -12.7 L64.9 -12.7 64.55 -12.75 64.5 -12.8 64.55 -13.2 64.6 -13.75 Q64.6 -14.0 64.35 -14.25 64.15 -14.5 64.15 -14.65 L64.45 -14.85 M66.4 -2.65 L66.55 -2.65 66.95 -2.2 Q67.05 -2.1 67.05 -1.9 L67.0 -1.45 66.85 -1.2 65.5 -1.0 Q65.35 -1.05 65.3 -1.1 L65.25 -1.15 Q65.15 -1.3 65.15 -1.65 65.15 -1.85 65.7 -2.65 L66.4 -2.65 M77.55 -9.4 Q77.5 -9.45 77.5 -9.7 77.5 -10.05 77.85 -10.35 78.05 -10.5 78.25 -10.55 78.4 -10.55 78.55 -10.45 L78.75 -10.15 78.35 -9.7 Q78.0 -9.35 77.85 -9.3 L77.6 -9.35 77.55 -9.4 M81.85 -2.05 Q82.0 -1.9 82.15 -1.75 81.6 -1.9 81.3 -1.05 80.9 0.05 80.4 0.3 L80.1 -0.1 80.05 -0.2 Q79.85 -0.55 79.85 -0.85 79.85 -1.15 80.25 -1.65 80.55 -2.05 80.85 -2.2 81.15 -2.4 81.6 -2.15 L81.85 -2.05 M85.7 -0.25 L85.65 -0.3 Q85.8 -0.85 87.95 -2.55 88.2 -2.25 88.35 -1.95 88.45 -1.7 88.45 -1.55 88.45 -1.0 88.05 -0.7 L87.15 0.05 86.1 0.0 85.95 -0.1 Q85.8 -0.2 85.7 -0.25 M-1.2 -37.25 L-1.55 -37.8 Q-1.95 -38.45 -1.95 -38.75 L-1.9 -39.1 -1.9 -39.2 -1.9 -39.25 -1.6 -39.25 -1.15 -38.4 Q-1.05 -38.1 -1.05 -37.7 -1.05 -37.4 -1.05 -37.3 L-1.1 -37.1 -1.2 -37.25 M-2.15 -34.4 Q-2.25 -34.3 -2.35 -34.25 L-2.6 -34.3 Q-2.7 -34.35 -2.7 -34.7 -2.7 -35.05 -2.05 -35.6 L-1.65 -35.9 -1.6 -35.95 -1.15 -36.25 -1.1 -36.2 -1.0 -35.95 -1.55 -35.05 Q-1.8 -34.6 -2.15 -34.4 M-4.4 -29.1 Q-4.65 -28.65 -4.5 -28.15 L-4.6 -28.1 Q-4.65 -28.0 -4.7 -27.9 L-5.05 -28.05 Q-5.15 -28.15 -5.15 -28.5 -5.15 -28.85 -4.95 -29.0 -4.7 -29.2 -4.4 -29.1" fill="#ffffff" fill-rule="evenodd" stroke="none"/>
    <path d="M82.3 -132.95 L82.3 -132.9 Q82.3 -132.6 82.4 -132.55 L82.5 -132.5 83.25 -132.45 84.15 -132.4 Q84.4 -132.1 84.6 -131.7 84.85 -131.2 84.9 -130.75 L85.25 -130.6 85.4 -130.5 Q85.4 -130.0 85.35 -129.75 85.1 -128.7 84.25 -128.7 84.0 -128.7 83.55 -129.55 L83.0 -130.45 Q82.3 -130.75 82.05 -131.35 81.95 -131.6 81.95 -132.05 81.95 -132.65 82.3 -132.95 M83.7 -126.95 Q83.9 -126.8 83.9 -126.45 83.9 -126.0 83.6 -125.65 83.3 -125.35 83.05 -125.35 82.55 -125.35 82.5 -125.75 82.45 -125.95 82.5 -126.2 82.5 -127.0 83.2 -127.1 83.5 -127.1 83.7 -126.95 M73.15 -130.25 Q72.95 -130.0 72.95 -129.65 72.95 -129.3 73.05 -129.3 L73.45 -129.3 Q73.5 -129.4 73.75 -129.45 L74.5 -129.55 75.2 -128.65 Q75.65 -128.15 75.9 -128.05 75.9 -127.9 75.8 -127.7 75.65 -127.4 75.4 -127.4 L75.15 -127.45 74.75 -127.6 Q74.65 -127.75 74.55 -128.05 L74.45 -128.35 73.7 -128.3 Q73.6 -128.1 73.25 -127.85 72.9 -127.55 72.75 -127.55 72.3 -127.55 72.2 -128.05 72.15 -128.25 72.2 -128.4 72.2 -129.6 72.8 -130.05 72.95 -130.2 73.15 -130.25 M83.6 -126.1 Q83.65 -126.35 83.8 -126.5 L83.65 -126.8 Q83.5 -126.75 83.3 -126.5 83.1 -126.15 83.1 -125.8 L83.1 -125.5 83.15 -125.6 83.35 -125.6 Q83.5 -125.85 83.6 -126.1 M77.85 -121.65 Q77.75 -121.45 77.75 -121.2 77.75 -120.85 78.1 -120.6 78.45 -120.3 78.45 -120.1 78.35 -119.6 78.35 -119.35 78.35 -119.0 78.65 -118.75 78.55 -118.5 78.3 -118.4 L77.9 -118.45 Q77.7 -118.6 77.5 -118.9 77.25 -119.25 77.25 -119.5 L77.2 -119.9 Q77.15 -120.25 77.15 -120.5 77.15 -120.95 77.4 -121.3 77.6 -121.55 77.85 -121.65 M65.45 -106.5 Q65.45 -106.15 65.55 -106.1 65.6 -106.05 65.85 -105.95 66.7 -106.65 67.25 -106.15 L67.7 -105.5 Q68.0 -105.0 68.2 -104.8 L69.4 -104.75 70.15 -105.45 Q70.65 -105.95 70.95 -105.95 L71.15 -105.9 71.4 -105.8 Q71.65 -105.65 71.95 -105.65 L72.0 -105.8 Q72.15 -105.65 72.15 -105.45 72.15 -105.3 71.9 -104.95 L71.7 -104.6 71.7 -104.55 71.65 -104.45 Q71.6 -104.45 71.4 -104.2 L71.05 -104.25 70.9 -104.5 70.75 -104.8 Q70.45 -104.45 70.15 -104.25 69.55 -103.85 68.9 -103.85 67.95 -103.85 67.4 -104.2 66.7 -104.6 65.55 -104.7 L65.15 -105.1 Q65.1 -105.15 65.1 -105.3 65.1 -106.2 65.45 -106.5 M85.15 -100.4 Q85.25 -100.1 85.35 -99.7 L85.15 -100.05 85.05 -100.05 Q85.1 -99.85 85.05 -99.45 L85.0 -98.7 Q85.0 -98.4 85.05 -98.0 L85.15 -97.45 85.15 -97.35 Q84.75 -96.7 83.7 -96.55 L83.6 -96.45 Q83.5 -96.4 83.5 -96.7 83.5 -97.0 83.8 -97.55 84.05 -98.05 84.05 -98.2 84.05 -98.7 83.2 -100.15 L82.3 -101.5 Q82.3 -101.7 82.4 -101.8 82.8 -101.5 83.55 -101.3 84.45 -101.05 85.1 -100.35 L85.15 -100.4 M57.15 -108.35 Q57.1 -108.0 57.1 -107.8 56.95 -107.2 56.5 -107.2 55.35 -107.2 55.0 -108.2 54.85 -108.7 54.9 -109.3 54.9 -109.85 55.25 -110.15 L55.6 -110.3 55.4 -109.95 Q56.4 -109.2 57.0 -108.2 L57.15 -108.35 M55.35 -102.25 Q55.35 -102.85 55.7 -103.1 56.05 -103.3 56.55 -103.15 57.05 -103.0 57.45 -102.65 57.8 -102.3 57.8 -102.0 57.8 -101.8 57.6 -101.45 57.3 -101.1 57.0 -101.0 L56.9 -101.05 57.1 -101.3 57.45 -101.65 57.25 -101.7 Q56.65 -101.3 56.05 -101.75 L55.65 -102.1 Q55.45 -102.25 55.35 -102.25 M62.25 -99.55 Q62.3 -99.3 62.35 -99.2 L62.4 -99.15 63.0 -99.05 Q63.1 -99.05 63.3 -98.85 63.55 -98.6 63.8 -98.6 L63.95 -98.65 63.65 -98.15 Q63.2 -97.45 62.7 -97.45 62.1 -97.45 61.9 -98.05 61.8 -98.35 61.8 -98.65 61.8 -99.15 62.1 -99.4 62.15 -99.45 62.25 -99.55 M67.0 -93.45 L67.0 -93.35 Q67.0 -93.0 66.7 -92.45 66.3 -91.65 65.7 -91.65 65.0 -91.65 64.85 -92.15 64.75 -92.4 64.8 -92.7 64.8 -93.2 64.95 -93.5 65.15 -94.0 65.7 -94.2 65.5 -94.0 65.5 -93.65 65.5 -93.35 65.55 -93.35 L65.65 -93.4 66.0 -93.3 66.3 -93.25 Q66.35 -93.15 66.6 -93.15 66.8 -93.15 67.0 -93.45 M57.3 -73.0 L57.3 -72.95 57.35 -72.75 57.35 -72.5 57.85 -72.45 Q57.4 -72.2 57.2 -72.2 L57.0 -72.1 Q56.95 -72.05 56.9 -72.05 56.85 -72.05 56.85 -72.2 56.85 -72.25 56.95 -72.45 L56.95 -72.5 Q56.95 -72.6 57.25 -72.9 L57.3 -73.0 M57.95 -72.5 L58.0 -72.6 Q58.1 -72.75 58.25 -72.95 L58.3 -72.95 Q58.45 -73.15 58.55 -73.15 58.95 -73.15 59.15 -72.35 59.3 -71.7 59.25 -71.5 L59.75 -71.45 59.8 -71.45 59.85 -71.6 59.9 -71.65 59.8 -71.2 59.7 -70.65 59.65 -70.65 59.55 -70.5 Q59.45 -70.6 59.3 -71.0 59.1 -71.3 58.95 -71.7 L58.9 -71.8 58.5 -72.75 58.3 -72.7 Q58.15 -72.65 57.95 -72.5 M52.15 -71.9 Q52.25 -72.3 52.55 -72.3 52.75 -72.3 52.9 -72.1 53.0 -71.85 53.0 -71.5 53.0 -71.15 52.95 -71.05 52.85 -70.75 52.45 -70.65 L52.3 -70.7 Q52.15 -70.85 52.1 -71.0 L52.1 -71.15 52.15 -71.05 Q52.15 -71.0 52.35 -70.9 L52.65 -71.25 52.75 -71.5 52.6 -71.75 52.45 -71.95 52.15 -71.9 M69.2 -80.85 Q69.15 -80.7 69.2 -80.5 69.7 -80.55 69.9 -80.1 70.25 -79.4 70.4 -79.25 L70.6 -79.45 70.6 -80.5 Q70.35 -80.9 70.1 -81.1 L70.25 -81.05 Q70.65 -80.9 70.65 -80.15 70.65 -79.4 70.45 -79.1 L69.45 -78.05 68.9 -78.05 68.3 -78.8 Q68.1 -79.05 68.1 -79.5 68.1 -79.8 68.5 -80.25 68.85 -80.6 69.2 -80.85 M74.1 -77.85 L74.3 -77.9 Q74.65 -78.3 74.9 -78.5 L75.45 -78.85 Q76.0 -77.75 76.55 -76.8 76.85 -76.15 76.85 -74.6 76.7 -74.2 76.5 -73.85 76.1 -73.5 75.4 -73.05 L74.6 -72.55 Q74.45 -72.65 74.4 -72.8 L74.25 -73.1 Q74.25 -73.25 74.8 -74.05 75.35 -74.85 75.35 -75.15 75.35 -75.7 75.15 -76.2 74.85 -76.8 74.5 -76.65 74.5 -76.85 74.3 -77.2 74.1 -77.55 74.1 -77.65 L74.1 -77.85 M71.55 -72.1 L71.45 -71.95 71.0 -71.25 71.85 -71.65 72.75 -72.1 72.6 -72.45 Q72.9 -72.35 73.0 -72.15 L73.0 -71.75 Q73.0 -71.15 72.4 -70.5 71.75 -69.8 71.0 -69.8 70.65 -69.8 70.5 -70.15 70.45 -70.35 70.45 -70.55 70.45 -71.0 70.85 -71.5 71.1 -71.75 71.55 -72.1 M33.5 -99.9 Q33.35 -99.4 33.05 -99.05 L32.5 -99.1 Q31.95 -99.45 31.8 -99.85 31.75 -100.0 31.75 -100.65 31.75 -101.45 32.05 -101.9 32.2 -102.15 32.35 -102.25 32.25 -102.05 32.25 -102.0 32.25 -101.65 32.3 -101.6 L32.4 -101.65 Q33.05 -101.2 33.1 -100.55 33.05 -99.85 33.05 -99.55 33.3 -99.65 33.5 -99.9 M17.85 -93.5 Q17.7 -93.25 17.7 -93.15 17.7 -92.8 17.85 -92.85 17.9 -92.85 18.0 -92.95 L18.35 -93.1 19.05 -93.2 19.4 -92.9 Q19.6 -92.7 19.85 -92.7 L20.0 -92.7 20.05 -92.4 Q20.05 -91.9 20.0 -91.75 19.9 -91.35 19.55 -91.35 18.45 -91.35 17.65 -91.9 16.95 -92.3 16.95 -92.75 16.95 -93.05 17.45 -93.3 17.65 -93.45 17.85 -93.5 M13.8 -89.3 Q13.95 -89.2 14.1 -88.9 14.3 -88.45 14.3 -87.6 14.3 -86.8 14.25 -86.55 14.05 -85.85 13.45 -85.75 L13.05 -86.0 13.05 -86.05 13.45 -86.0 13.65 -86.25 Q13.35 -86.65 13.2 -86.95 13.1 -87.15 13.1 -87.4 13.1 -87.9 13.4 -88.35 13.65 -88.85 13.8 -89.3 M22.25 -84.25 L21.85 -83.75 Q21.3 -83.2 21.05 -83.2 20.4 -83.2 20.1 -84.05 19.95 -84.5 19.95 -84.85 19.95 -85.55 20.35 -86.0 20.6 -86.25 20.85 -86.4 L20.85 -86.35 Q21.05 -86.25 21.45 -85.35 21.85 -84.5 22.25 -84.25 M13.2 -76.2 L13.3 -76.0 13.25 -75.9 13.25 -75.95 13.2 -76.2 M13.7 -74.2 L13.7 -74.05 Q13.6 -73.95 13.45 -73.85 12.8 -74.0 12.35 -74.8 12.2 -75.05 12.1 -75.1 11.9 -75.1 11.6 -74.8 L11.2 -74.85 11.05 -75.0 Q10.95 -75.15 10.95 -75.4 10.95 -75.65 11.05 -75.85 L11.05 -75.75 11.45 -75.7 Q11.45 -75.85 11.85 -76.3 L12.45 -76.4 Q12.5 -76.4 12.7 -76.3 L12.9 -76.2 13.05 -76.0 13.2 -75.85 13.2 -75.8 Q13.2 -75.15 13.25 -74.85 13.3 -74.35 13.65 -74.2 L13.7 -74.2 M5.9 -69.05 L6.15 -68.55 Q6.3 -67.9 6.2 -67.5 6.15 -67.35 6.15 -67.15 L6.1 -67.4 Q5.8 -68.2 5.8 -68.75 5.8 -68.95 5.9 -69.05 M6.3 -65.85 Q6.35 -65.65 6.45 -65.45 L6.4 -65.1 Q6.35 -65.1 6.35 -65.05 6.35 -65.0 6.15 -65.0 5.7 -65.0 4.9 -66.1 4.15 -67.15 3.95 -67.95 2.9 -67.9 2.65 -67.7 2.2 -67.35 1.55 -67.15 1.15 -67.6 1.15 -67.7 1.15 -67.8 1.3 -68.0 2.2 -68.5 2.7 -69.25 L2.8 -69.35 Q2.9 -69.6 3.3 -69.8 3.65 -69.95 4.05 -69.9 L4.15 -69.95 4.85 -69.55 Q5.7 -69.1 5.75 -69.05 5.45 -68.35 5.55 -67.35 5.65 -66.25 6.2 -65.8 L6.3 -65.85 M25.75 -75.15 L25.7 -74.35 25.55 -74.3 Q25.4 -74.2 25.3 -74.15 L24.85 -74.35 Q25.0 -74.85 24.7 -75.75 24.45 -76.5 24.05 -77.2 L23.75 -77.85 Q23.45 -78.35 23.1 -78.5 L22.45 -78.5 Q21.95 -78.6 21.95 -79.1 21.95 -79.5 22.1 -79.8 L22.55 -80.15 Q22.9 -80.45 23.45 -80.6 L23.8 -80.4 Q24.3 -79.25 24.8 -77.55 25.3 -75.55 25.6 -74.65 L25.75 -75.15 M37.55 -91.25 L37.5 -91.25 37.05 -91.15 36.5 -91.2 Q36.35 -91.3 35.95 -92.25 35.55 -93.15 35.55 -93.3 35.55 -93.8 35.9 -93.9 L36.25 -93.9 Q36.4 -93.35 37.75 -92.2 L37.75 -91.9 Q37.75 -91.45 37.6 -91.3 L37.55 -91.25 M37.6 -87.55 L37.2 -88.55 Q37.1 -88.85 37.0 -89.55 36.75 -89.45 36.55 -89.35 36.6 -89.55 36.7 -89.7 36.9 -90.05 37.2 -90.05 37.45 -90.0 37.65 -89.65 37.9 -89.25 37.9 -88.75 37.9 -88.2 37.8 -87.9 37.75 -87.7 37.6 -87.55 M44.6 -87.65 L44.55 -87.4 Q44.5 -87.05 44.3 -86.9 L43.7 -86.9 Q43.2 -87.05 43.1 -87.4 43.05 -87.55 43.05 -88.0 43.05 -88.45 43.3 -88.8 L43.5 -89.05 Q43.55 -88.85 43.8 -88.35 44.15 -87.6 44.4 -87.6 L44.6 -87.65 M31.3 -90.95 L31.2 -90.6 Q31.1 -90.35 30.8 -90.35 30.25 -90.35 30.1 -90.95 30.05 -91.25 30.1 -91.5 30.1 -92.05 30.3 -92.3 30.45 -92.55 30.7 -92.45 L30.75 -92.45 Q30.7 -92.3 30.7 -92.0 30.7 -91.8 30.95 -91.4 L31.3 -90.95 M25.3 -73.1 L25.35 -72.95 25.05 -71.9 24.6 -71.05 Q24.45 -71.1 24.35 -71.35 24.25 -71.6 24.25 -71.9 24.25 -72.15 24.55 -72.65 24.85 -73.15 25.0 -73.3 L25.15 -73.2 Q24.65 -72.25 24.5 -71.85 L24.55 -71.6 24.7 -71.6 25.3 -73.1 M24.55 -68.25 L24.6 -68.25 24.6 -68.2 24.55 -68.25 M26.85 -62.1 L26.6 -62.2 26.45 -62.25 26.3 -61.75 Q26.15 -61.4 25.95 -61.3 L25.8 -61.7 26.1 -62.55 Q26.25 -63.15 26.25 -63.3 26.25 -63.7 25.9 -64.4 L25.35 -65.55 Q24.55 -65.45 24.15 -66.15 23.9 -66.6 23.9 -67.15 L23.9 -67.3 Q23.95 -67.1 24.15 -66.8 24.4 -66.5 24.55 -66.3 L25.05 -66.15 25.7 -66.1 25.95 -66.4 26.05 -66.45 26.15 -66.4 Q26.3 -66.05 26.8 -65.2 27.45 -64.25 27.45 -63.65 27.45 -63.55 27.1 -62.95 26.9 -62.55 26.85 -62.1 M41.35 -59.5 Q41.05 -58.75 40.75 -58.75 L40.55 -58.75 40.6 -60.1 40.55 -60.8 Q40.5 -61.4 40.45 -61.65 40.45 -62.15 40.25 -62.65 40.05 -63.15 40.05 -63.2 40.05 -63.6 40.5 -63.45 40.95 -63.3 41.4 -62.8 L41.6 -62.35 Q41.15 -62.15 41.2 -61.4 41.35 -60.2 41.25 -59.75 L41.25 -59.55 41.35 -59.5 M35.95 -55.5 Q35.95 -55.25 36.05 -55.25 L36.15 -55.3 Q36.4 -55.6 37.05 -56.1 37.85 -56.7 38.1 -56.75 L38.05 -57.05 Q38.4 -57.05 38.4 -56.5 38.4 -55.9 37.75 -55.4 37.6 -55.25 36.95 -54.95 L36.15 -54.6 Q35.95 -54.65 35.9 -54.75 L35.95 -54.95 35.9 -55.1 35.9 -55.35 35.95 -55.5 M44.3 -56.7 Q44.3 -56.6 44.35 -56.5 44.4 -56.45 44.55 -56.35 L44.9 -57.0 Q45.15 -57.45 45.15 -57.5 L45.15 -57.85 Q45.35 -58.0 45.5 -57.95 45.75 -57.9 45.75 -57.5 45.75 -57.2 45.4 -56.45 45.0 -55.65 44.6 -55.65 44.35 -55.65 44.25 -55.9 44.2 -56.05 44.2 -56.25 44.2 -56.5 44.3 -56.7 M25.6 -51.35 L25.65 -51.35 26.05 -51.25 26.4 -51.2 26.55 -51.2 26.55 -51.6 Q26.55 -51.8 26.5 -51.95 27.25 -51.55 27.75 -50.35 L27.7 -49.8 27.5 -49.75 27.15 -49.75 Q26.95 -49.75 26.45 -49.95 25.9 -50.15 25.7 -50.15 25.0 -50.15 24.3 -49.6 23.75 -49.2 23.7 -49.0 23.2 -49.4 23.2 -49.95 23.2 -50.25 23.35 -50.6 L23.75 -50.55 Q23.8 -50.65 24.1 -50.9 24.4 -51.2 24.5 -51.35 L24.8 -51.35 25.35 -51.4 25.6 -51.35 M33.65 -49.8 L33.7 -49.95 Q33.7 -50.05 33.8 -50.2 L34.05 -50.65 34.1 -51.0 Q34.15 -51.25 34.25 -51.35 34.5 -51.55 34.65 -51.4 34.7 -51.25 34.7 -51.05 34.5 -49.55 34.5 -49.3 34.5 -48.8 34.75 -48.2 L35.2 -47.15 35.2 -47.1 35.0 -47.0 Q34.45 -47.3 34.1 -47.65 L34.2 -47.75 34.35 -48.1 Q34.2 -48.4 34.15 -49.0 34.15 -49.6 33.85 -49.95 L33.65 -49.8 M25.1 -40.0 Q25.15 -39.7 25.15 -39.3 L25.15 -39.0 Q25.1 -38.75 24.95 -38.6 L24.75 -38.6 24.0 -39.25 Q23.55 -39.65 23.3 -39.95 L23.05 -40.0 Q22.85 -40.2 22.85 -40.5 22.85 -41.15 23.2 -41.4 L23.4 -41.5 23.4 -41.2 Q23.4 -41.0 23.9 -40.4 L24.7 -39.5 25.0 -39.85 25.1 -40.0 M23.75 -35.15 L23.75 -34.9 Q23.75 -34.65 24.0 -33.95 24.35 -33.05 24.65 -33.05 24.9 -33.05 24.95 -33.2 L25.0 -33.3 25.0 -32.95 Q24.95 -32.75 24.95 -32.6 L24.85 -32.5 24.6 -32.5 Q24.5 -32.7 24.15 -32.95 23.7 -33.3 23.55 -33.5 23.45 -33.65 23.25 -34.0 23.1 -34.4 23.1 -34.6 23.1 -35.15 23.5 -35.15 L23.75 -35.15 M45.95 -45.7 L45.95 -45.65 Q46.1 -45.35 46.45 -45.3 L46.75 -45.8 47.2 -46.6 47.45 -46.55 Q48.2 -47.0 48.35 -47.1 48.95 -47.5 49.2 -47.75 48.95 -47.65 48.1 -47.25 47.5 -46.95 47.2 -46.7 L47.05 -46.85 47.4 -47.0 Q48.0 -47.3 48.55 -47.5 48.8 -47.6 49.1 -47.95 49.4 -48.25 49.45 -48.25 L49.55 -48.25 49.5 -48.25 Q49.45 -48.0 49.2 -47.9 L49.3 -47.8 49.5 -47.95 Q49.4 -47.65 48.9 -47.2 48.15 -46.5 47.95 -46.15 L47.5 -45.8 Q47.1 -45.5 47.0 -45.35 L46.8 -44.85 Q46.55 -44.45 46.35 -44.45 46.0 -44.45 45.95 -44.95 45.9 -45.25 45.95 -45.55 L45.95 -45.7 M37.95 -42.9 L38.0 -42.4 Q38.0 -41.75 37.95 -41.6 37.85 -41.15 37.4 -40.8 37.35 -40.9 37.25 -41.4 37.1 -41.9 37.1 -42.0 37.1 -42.7 36.1 -43.7 35.1 -44.7 35.1 -44.9 35.1 -45.35 35.4 -45.6 35.6 -45.85 36.0 -45.75 L35.85 -45.5 36.05 -44.8 Q36.2 -44.35 36.3 -44.15 36.4 -43.95 37.05 -43.4 37.65 -42.85 37.7 -42.85 L37.95 -42.9 M21.4 -55.65 L21.45 -55.55 21.35 -55.3 Q21.25 -55.15 21.15 -55.1 20.75 -55.25 20.05 -54.8 19.25 -54.35 18.8 -54.25 18.65 -54.15 18.6 -53.95 18.55 -53.8 18.55 -53.5 L18.5 -53.4 Q18.35 -53.3 18.15 -53.3 18.1 -53.3 17.7 -53.95 17.3 -54.6 17.3 -54.7 L17.3 -54.95 18.05 -54.95 18.95 -55.55 Q19.45 -55.9 19.65 -56.35 L20.05 -56.25 20.7 -55.9 21.35 -55.6 21.4 -55.65 M6.95 -61.15 L7.15 -61.0 Q7.45 -60.6 7.45 -60.4 L7.4 -60.15 Q7.3 -60.0 7.15 -59.9 L6.25 -59.9 5.65 -60.4 5.1 -60.8 Q4.35 -61.1 4.25 -61.15 4.15 -61.2 4.15 -61.5 4.15 -61.95 4.5 -62.1 L5.2 -62.15 5.15 -62.1 5.15 -61.8 Q5.25 -61.5 5.4 -61.2 5.75 -60.65 6.15 -60.65 6.2 -60.65 6.5 -60.85 L6.95 -61.15 M-1.0 -68.5 L-0.2 -68.1 Q0.0 -68.0 0.05 -67.8 0.05 -67.7 0.05 -67.2 0.05 -66.7 0.0 -66.5 -0.15 -66.2 -0.55 -66.2 -1.05 -66.2 -1.75 -66.5 -2.5 -66.8 -3.3 -66.8 -5.0 -66.8 -6.25 -64.2 -6.6 -63.4 -7.0 -62.25 -7.3 -61.25 -7.35 -61.05 -7.75 -60.05 -9.55 -58.1 -10.1 -57.55 -10.55 -56.65 -11.15 -55.45 -11.3 -55.3 -12.0 -55.4 -12.2 -56.15 -12.25 -56.35 -12.25 -57.15 L-12.25 -57.45 -12.0 -57.85 -11.55 -58.65 Q-11.3 -58.95 -11.1 -59.0 -10.65 -59.15 -9.95 -59.45 -9.4 -59.7 -8.85 -60.65 -8.6 -61.0 -8.0 -62.2 -7.4 -63.45 -6.9 -65.3 -6.55 -66.5 -6.15 -68.5 L-6.2 -68.75 -6.4 -68.6 Q-6.1 -69.75 -5.45 -70.35 -4.8 -70.45 -3.9 -69.95 -2.9 -69.35 -2.7 -68.7 -2.2 -68.6 -1.55 -68.35 L-0.65 -67.95 Q-0.25 -68.0 -0.25 -68.05 L-1.0 -68.5 M-9.05 -61.4 Q-8.65 -62.1 -8.25 -62.9 L-8.3 -62.7 Q-8.4 -62.5 -8.7 -61.9 L-9.05 -61.4 M6.55 -43.75 L6.45 -43.65 6.55 -43.2 Q6.8 -42.05 6.45 -41.45 L6.15 -40.95 Q6.0 -40.7 6.0 -40.35 L6.0 -40.05 6.05 -40.15 6.55 -40.15 Q6.75 -40.2 6.9 -40.4 L6.6 -39.65 Q6.1 -38.45 5.65 -38.45 5.35 -38.45 5.25 -38.7 5.2 -38.85 5.2 -38.95 5.2 -39.25 5.6 -40.9 5.6 -41.25 5.2 -43.6 5.2 -44.0 5.4 -44.25 5.65 -44.65 6.1 -44.35 L6.55 -43.75 M2.85 -48.4 L3.05 -48.1 Q3.3 -47.7 3.55 -47.2 L3.7 -46.7 Q3.7 -46.65 3.4 -46.4 L2.85 -45.9 2.55 -45.9 Q1.85 -46.1 1.35 -46.35 0.15 -46.3 -0.65 -45.55 -1.45 -44.6 -1.95 -44.15 -2.05 -44.05 -2.35 -43.6 -2.7 -43.1 -2.95 -42.85 -3.95 -41.8 -5.5 -41.8 -7.0 -41.8 -7.85 -42.35 -8.6 -42.8 -8.6 -43.35 L-8.55 -43.55 Q-8.5 -43.65 -8.45 -43.65 -8.35 -43.65 -8.25 -43.55 -8.35 -43.2 -8.1 -42.85 -7.95 -42.7 -7.4 -42.25 L-6.5 -42.35 Q-5.75 -42.55 -4.85 -43.1 -3.55 -43.9 -2.95 -44.7 -2.85 -44.85 -2.7 -45.2 L-2.65 -45.35 -2.5 -45.45 -1.4 -46.4 -0.65 -46.95 Q0.4 -47.35 2.55 -47.3 L2.8 -47.5 Q2.85 -47.55 2.85 -47.7 L2.85 -48.4 M8.7 -39.85 L8.7 -39.65 8.8 -39.45 Q9.1 -39.6 9.45 -40.1 9.7 -40.5 9.8 -40.75 10.0 -41.2 10.5 -41.4 L11.05 -41.5 Q11.05 -41.7 10.95 -41.85 L10.95 -41.9 11.35 -41.8 Q11.65 -41.6 11.85 -41.35 12.05 -41.05 12.05 -40.85 12.05 -40.5 11.4 -40.25 L10.3 -39.9 Q10.1 -39.8 9.65 -39.25 9.3 -38.9 8.85 -38.8 8.75 -38.9 8.7 -39.2 8.6 -39.4 8.6 -39.5 8.6 -39.65 8.7 -39.85 M7.4 -35.85 L7.45 -35.85 7.6 -35.95 7.95 -36.35 Q8.35 -36.75 8.45 -36.95 L8.25 -36.95 8.55 -37.1 Q8.75 -37.05 8.8 -36.9 L8.8 -36.75 Q8.8 -36.25 8.35 -35.55 7.9 -34.7 7.4 -34.9 L7.3 -35.0 Q7.25 -35.05 7.25 -35.15 7.25 -35.5 7.4 -35.85 M14.95 -37.9 L14.4 -38.85 Q14.2 -38.8 14.15 -38.7 14.1 -38.6 14.1 -38.25 14.1 -38.1 14.6 -36.85 15.05 -35.55 15.05 -35.15 15.05 -34.45 14.25 -33.4 13.4 -32.35 13.4 -31.95 L13.4 -31.7 13.2 -31.4 Q12.7 -31.5 12.55 -31.1 12.5 -30.9 12.5 -30.4 12.5 -30.0 12.55 -29.85 L12.65 -29.7 12.65 -29.5 12.6 -29.45 12.45 -29.4 Q12.2 -29.4 12.05 -30.15 11.95 -30.55 11.95 -30.95 11.95 -31.65 12.15 -32.05 12.4 -32.55 13.2 -33.25 13.65 -33.6 13.9 -34.4 L14.05 -34.95 Q14.15 -35.3 14.15 -35.5 L13.85 -36.35 Q13.55 -37.15 13.5 -37.45 L13.3 -38.35 Q13.15 -38.95 13.15 -39.3 13.15 -40.2 14.55 -38.7 14.9 -38.35 14.95 -38.0 L14.95 -37.9 M2.2 -28.15 L2.1 -28.3 Q1.65 -27.95 1.25 -27.4 0.9 -26.95 0.9 -26.9 0.9 -26.6 0.95 -26.55 1.05 -26.6 1.15 -26.5 0.85 -26.3 0.55 -26.3 0.3 -26.3 0.2 -26.5 0.2 -26.65 0.2 -26.75 0.2 -26.95 0.5 -27.4 0.8 -27.85 1.2 -28.15 2.2 -29.05 2.2 -28.15 M9.3 -21.9 L9.35 -21.9 Q9.4 -21.65 9.25 -21.65 9.1 -21.75 8.95 -21.75 7.45 -20.3 6.7 -19.3 6.45 -19.35 6.45 -19.9 L6.5 -20.1 6.5 -20.05 6.9 -20.0 7.0 -20.1 7.1 -20.15 7.1 -21.05 Q7.2 -21.8 7.55 -21.8 L8.45 -21.7 Q8.85 -21.7 9.3 -21.9 M11.7 -12.2 L11.6 -12.15 11.4 -12.15 Q11.15 -12.45 11.15 -12.6 11.15 -12.95 11.25 -13.5 11.4 -14.1 11.55 -14.3 12.15 -15.2 12.55 -15.05 12.7 -14.95 12.8 -14.8 12.6 -14.55 12.2 -13.75 11.6 -12.7 11.55 -12.25 L11.7 -12.2 M6.85 -10.2 Q6.7 -10.35 6.7 -10.55 6.7 -10.9 7.05 -11.2 7.55 -11.6 8.55 -11.35 8.95 -10.95 9.3 -10.7 9.45 -10.6 9.45 -10.25 9.45 -10.05 9.2 -9.9 8.9 -9.75 8.05 -9.75 L7.4 -9.85 8.6 -9.8 Q8.9 -9.8 9.1 -10.0 9.25 -10.15 9.3 -10.3 8.1 -10.85 7.45 -10.8 6.85 -10.8 6.85 -10.3 L6.85 -10.2 M19.8 -16.3 Q19.55 -16.4 19.35 -16.4 L19.35 -16.0 Q19.95 -15.7 19.95 -15.45 19.95 -15.1 20.3 -14.85 L20.35 -14.85 20.3 -14.65 Q20.3 -14.5 20.15 -14.4 L19.8 -14.4 Q19.5 -14.35 19.1 -15.05 18.7 -15.65 18.7 -16.0 18.7 -16.45 18.95 -16.6 19.2 -16.7 19.55 -16.5 L19.8 -16.3 M19.2 -9.9 Q19.15 -10.05 19.15 -10.2 L19.15 -10.3 19.1 -10.6 Q19.1 -11.3 19.35 -11.35 19.4 -11.4 19.5 -11.4 19.7 -11.4 19.75 -11.05 L19.9 -10.6 20.1 -10.15 Q20.2 -9.9 20.45 -9.75 L20.85 -9.5 21.15 -9.2 Q21.35 -8.9 21.35 -8.7 L21.35 -8.5 21.2 -8.35 20.9 -8.3 Q20.8 -8.3 20.7 -8.2 L20.6 -8.2 20.85 -8.55 Q20.25 -8.75 19.95 -9.35 19.7 -9.9 19.5 -10.15 L19.45 -10.25 Q19.35 -10.2 19.25 -10.05 L19.2 -9.9 M46.95 -26.25 Q47.2 -26.1 47.25 -25.65 L47.3 -24.8 47.3 -24.1 Q47.25 -23.55 47.0 -23.55 46.8 -23.55 46.65 -23.8 46.5 -24.1 46.2 -24.1 45.7 -24.1 45.0 -23.6 L44.35 -23.1 Q44.15 -23.1 44.0 -23.35 43.95 -23.5 43.95 -23.65 43.95 -24.25 44.05 -24.75 44.2 -25.6 44.6 -25.65 44.5 -25.5 44.5 -25.3 44.5 -24.95 44.6 -24.85 L44.9 -24.75 Q45.4 -24.9 46.05 -25.25 46.95 -25.8 46.95 -26.2 L46.95 -26.25 M39.05 -31.4 L38.9 -31.4 Q38.9 -31.05 39.05 -30.5 L39.15 -29.75 39.1 -28.8 Q39.05 -28.35 39.3 -28.2 39.15 -27.3 38.85 -27.15 38.65 -27.1 38.65 -27.05 L38.45 -27.05 38.35 -27.2 Q38.35 -27.3 38.35 -27.45 L38.4 -28.1 38.45 -28.8 Q38.45 -29.5 38.4 -30.0 L38.3 -30.6 38.15 -30.9 Q38.05 -31.05 38.05 -31.15 38.05 -31.5 38.2 -31.55 L38.5 -31.7 Q38.7 -31.75 38.95 -31.6 L39.05 -31.4 M32.9 -25.05 Q32.85 -24.9 32.85 -24.7 32.85 -24.55 33.4 -23.95 34.0 -23.3 34.45 -23.3 34.7 -23.3 34.7 -23.4 L34.75 -23.55 34.75 -24.15 34.75 -24.0 34.8 -23.55 Q34.8 -23.35 34.65 -22.95 34.5 -22.5 34.35 -22.35 L33.75 -22.4 Q33.6 -22.55 33.35 -23.05 33.2 -23.5 32.85 -23.7 L32.05 -23.6 Q31.9 -23.65 31.9 -23.75 L31.85 -23.95 Q31.85 -24.1 32.2 -24.45 L32.6 -24.9 Q32.7 -25.05 32.9 -25.05 M32.5 -33.35 Q32.7 -33.65 33.05 -33.6 33.6 -33.6 33.6 -33.1 33.6 -32.9 33.1 -32.5 32.6 -32.05 32.55 -31.85 32.5 -31.45 32.35 -31.15 32.15 -30.7 31.95 -30.7 31.65 -30.7 31.55 -31.15 31.5 -31.3 31.45 -31.5 L31.5 -31.55 32.1 -31.5 32.4 -32.3 32.75 -33.1 32.5 -33.35 M24.6 0.35 L23.95 0.45 23.6 0.45 Q23.5 0.35 23.5 0.1 L23.1 0.15 23.1 0.1 23.05 -0.05 Q23.05 -0.15 24.2 -0.55 L25.6 -1.05 Q25.75 -1.1 26.2 -1.6 26.7 -2.1 27.3 -2.35 28.3 -2.8 28.5 -2.85 29.2 -2.95 30.35 -2.55 31.1 -2.5 31.45 -2.1 L31.6 -1.85 Q31.25 -1.8 30.95 -1.65 30.25 -1.8 29.05 -1.65 L28.3 -1.15 Q27.65 -0.6 27.4 -0.6 25.5 -0.35 24.85 -0.1 24.45 0.0 24.25 0.25 L24.5 0.3 24.6 0.35 M36.25 -9.9 L36.25 -10.1 Q35.95 -10.5 35.7 -10.6 L35.4 -10.65 Q35.4 -10.4 35.4 -10.0 L35.2 -10.2 35.1 -10.5 Q35.1 -11.75 35.75 -11.5 36.0 -11.35 36.2 -11.05 36.4 -10.75 36.4 -10.45 36.4 -10.15 36.4 -10.1 36.35 -9.95 36.25 -9.9 M62.35 -62.05 Q62.45 -61.9 62.45 -61.75 62.45 -61.25 62.4 -61.1 62.25 -60.7 61.85 -60.7 60.95 -60.65 60.35 -60.45 59.6 -60.15 59.2 -60.1 58.8 -60.0 57.75 -59.05 56.8 -58.1 56.7 -58.1 L56.55 -58.1 56.55 -58.15 Q56.5 -58.65 56.5 -59.05 56.5 -59.1 56.55 -59.1 56.6 -59.15 56.5 -59.4 L56.5 -59.75 Q56.5 -59.9 56.65 -60.4 L56.85 -60.65 56.9 -60.55 Q56.95 -60.4 57.15 -60.15 57.5 -60.35 57.8 -60.8 L58.5 -61.75 60.1 -61.85 60.4 -62.15 60.6 -62.4 62.25 -61.8 62.35 -61.8 Q62.35 -61.75 62.35 -62.05 M51.2 -59.85 L51.2 -59.25 51.15 -59.0 Q51.05 -58.35 51.05 -58.15 51.05 -57.9 51.5 -57.55 L52.4 -56.8 Q52.4 -56.6 52.5 -56.05 52.65 -55.55 52.65 -55.3 52.65 -55.0 52.55 -54.6 L52.4 -54.05 52.4 -53.95 Q52.4 -53.6 52.65 -53.1 L52.95 -52.7 52.9 -52.45 Q52.5 -51.4 51.85 -51.4 51.65 -51.4 51.55 -51.6 51.45 -51.75 51.45 -51.85 51.45 -52.4 51.6 -52.75 51.7 -52.95 51.75 -53.2 51.7 -53.35 51.7 -53.55 L51.7 -54.3 51.6 -55.0 Q51.45 -55.65 51.05 -56.5 50.5 -57.65 50.4 -57.9 50.25 -58.3 49.85 -58.55 49.55 -58.75 49.55 -59.1 49.55 -59.35 50.0 -59.55 50.1 -59.75 50.35 -59.8 L50.65 -59.75 51.2 -59.85 M55.25 -43.2 L55.2 -43.25 55.2 -43.35 Q54.85 -43.35 54.45 -43.1 54.1 -42.9 54.0 -42.65 53.8 -42.35 53.25 -42.0 L52.55 -41.6 52.7 -41.15 Q52.0 -41.2 51.7 -41.4 51.55 -41.55 51.55 -41.8 51.55 -42.1 51.8 -42.15 L52.9 -42.6 Q53.2 -42.7 53.45 -43.05 L53.85 -43.55 Q54.1 -43.85 54.45 -44.5 54.7 -44.9 55.0 -44.9 55.25 -44.9 55.25 -44.6 L55.25 -43.2 M61.6 -16.4 L61.35 -16.15 61.05 -16.1 60.5 -16.7 Q60.4 -16.8 60.4 -17.1 60.4 -17.55 60.65 -18.15 61.0 -19.0 61.5 -19.0 L61.7 -18.95 61.65 -18.75 Q61.65 -18.5 61.8 -18.1 61.95 -17.75 61.95 -17.6 61.85 -17.3 61.6 -17.05 61.4 -16.85 61.35 -16.45 L61.6 -16.4 M49.0 -19.25 L48.95 -19.15 Q48.9 -18.8 48.6 -18.55 48.25 -18.5 48.0 -18.8 47.75 -19.1 47.75 -19.35 47.75 -19.8 47.95 -20.2 48.1 -20.5 48.3 -20.65 L48.3 -20.45 Q48.3 -20.35 48.5 -19.8 48.75 -19.25 48.9 -19.05 L49.0 -19.25 M56.2 -4.85 Q56.0 -4.6 55.75 -4.6 55.25 -4.6 55.15 -5.0 55.1 -5.25 55.15 -5.45 55.15 -6.65 55.85 -6.85 56.15 -6.9 56.4 -6.75 L56.55 -6.6 56.25 -6.5 Q56.25 -6.35 56.15 -5.95 56.0 -5.55 56.0 -5.3 56.0 -4.95 56.05 -4.95 L56.15 -4.9 56.15 -4.85 56.2 -4.85 M64.9 -12.7 L64.4 -12.35 64.2 -12.35 Q64.0 -12.45 63.95 -12.75 63.9 -12.9 63.85 -13.15 L63.65 -13.2 Q63.55 -13.3 63.35 -13.7 63.05 -14.2 63.05 -14.3 63.05 -14.65 63.6 -14.9 64.1 -15.15 64.45 -14.85 L64.15 -14.65 Q64.15 -14.5 64.35 -14.25 64.6 -14.0 64.6 -13.75 L64.55 -13.2 64.5 -12.8 64.55 -12.75 64.9 -12.7 M65.3 -1.1 Q64.75 -1.1 64.35 -1.6 64.1 -1.9 64.1 -2.1 64.1 -2.35 64.45 -2.65 64.8 -2.95 65.25 -3.15 66.4 -3.55 66.4 -2.65 L65.7 -2.65 Q65.15 -1.85 65.15 -1.65 65.15 -1.3 65.25 -1.15 L65.3 -1.1 M78.25 -10.55 Q78.05 -10.5 77.85 -10.35 77.5 -10.05 77.5 -9.7 77.5 -9.45 77.55 -9.4 L77.4 -9.4 Q76.9 -9.4 76.75 -9.6 76.7 -9.65 76.7 -9.85 76.7 -10.2 77.05 -10.55 77.4 -10.95 77.9 -11.0 78.2 -10.95 78.25 -10.55 M80.1 -0.1 L79.6 -0.05 Q79.3 -0.05 78.75 -0.2 78.15 -0.45 78.15 -0.65 78.15 -1.3 78.35 -1.7 78.7 -2.25 79.45 -2.65 80.7 -3.2 81.3 -3.1 81.9 -2.95 81.9 -2.2 L81.85 -2.05 81.6 -2.15 Q81.15 -2.4 80.85 -2.2 80.55 -2.05 80.25 -1.65 79.85 -1.15 79.85 -0.85 79.85 -0.55 80.05 -0.2 L80.1 -0.1 M87.95 -2.55 Q85.8 -0.85 85.65 -0.3 L85.7 -0.25 Q85.3 -0.35 85.15 -0.65 85.05 -0.8 85.05 -0.95 L85.1 -1.1 Q85.1 -1.6 85.55 -2.2 86.0 -2.75 86.55 -3.0 87.2 -3.25 87.6 -3.0 87.85 -2.9 87.95 -2.55 M-1.9 -39.2 L-1.9 -39.1 -1.95 -38.75 Q-1.95 -38.45 -1.55 -37.8 L-1.2 -37.25 Q-1.1 -36.75 -1.1 -36.35 L-1.1 -36.2 -1.15 -36.25 -1.6 -35.95 -1.65 -35.9 -2.05 -35.6 Q-2.7 -35.05 -2.7 -34.7 -2.7 -34.35 -2.6 -34.3 L-2.35 -34.25 Q-2.25 -34.3 -2.15 -34.4 -2.6 -33.7 -2.75 -33.1 L-2.8 -33.0 -3.0 -33.0 Q-3.1 -33.25 -3.1 -33.6 -3.1 -34.65 -2.6 -35.6 -2.05 -36.5 -2.05 -37.5 -2.05 -38.25 -2.6 -38.95 -3.1 -39.6 -3.1 -40.1 -3.1 -40.9 -2.25 -39.8 L-1.9 -39.2 M-3.9 -27.85 Q-4.0 -27.6 -4.35 -27.3 -5.0 -27.3 -5.2 -27.65 -5.3 -27.85 -5.3 -28.15 -5.3 -28.7 -5.05 -29.0 -4.85 -29.25 -4.55 -29.25 -4.3 -29.3 -4.05 -29.05 -3.85 -28.8 -3.85 -28.35 -3.85 -28.0 -3.9 -27.85 M-4.4 -29.1 Q-4.7 -29.2 -4.95 -29.0 -5.15 -28.85 -5.15 -28.5 -5.15 -28.15 -5.05 -28.05 L-4.7 -27.9 Q-4.65 -28.0 -4.6 -28.1 L-4.5 -28.15 Q-4.65 -28.65 -4.4 -29.1" fill="#bffff0" fill-opacity="0.7490196" fill-rule="evenodd" stroke="none"/>
  </g>
</svg>
