<?xml version="1.0" encoding="UTF-8" standalone="no"?>
<svg xmlns:ffdec="https://www.free-decompiler.com/flash" xmlns:xlink="http://www.w3.org/1999/xlink" ffdec:objectType="shape" height="0.9px" width="1.0px" xmlns="http://www.w3.org/2000/svg">
  <g transform="matrix(1.0, 0.0, 0.0, 1.0, 0.55, 0.6)">
    <path d="M-0.15 -0.3 L-0.2 -0.3 -0.3 -0.3 Q-0.25 -0.2 -0.15 -0.15 -0.1 -0.1 -0.1 -0.05 L-0.05 -0.05 Q-0.25 -0.1 -0.4 -0.15 -0.5 -0.2 -0.45 -0.25 L-0.4 -0.4 Q-0.3 -0.5 -0.15 -0.5 -0.2 -0.45 -0.15 -0.4 -0.15 -0.35 -0.15 -0.3 M-0.1 -0.2 Q-0.05 -0.2 -0.05 -0.15 L-0.1 -0.2 M-0.1 0.25 Q-0.15 0.25 -0.2 0.2 L-0.25 0.2 Q-0.2 0.15 -0.2 0.05 L-0.1 0.05 Q-0.05 0.05 -0.05 0.1 L-0.05 0.15 -0.1 0.15 -0.1 0.25 M0.3 0.05 L0.3 0.1 0.3 0.05 M0.2 0.2 Q0.15 0.25 0.05 0.2 0.15 0.15 0.1 0.05 0.15 0.05 0.15 0.0 0.15 0.05 0.2 0.05 0.2 0.1 0.2 0.15 0.15 0.2 0.15 0.25 L0.2 0.25 0.2 0.2 M-0.45 0.2 Q-0.5 0.05 -0.45 -0.1 -0.5 0.0 -0.4 0.1 -0.35 0.15 -0.4 0.15 L-0.45 0.2 M-0.25 0.0 L-0.25 0.05 -0.25 0.0" fill="#660066" fill-rule="evenodd" stroke="none"/>
    <path d="M-0.15 -0.5 Q-0.1 -0.5 -0.05 -0.45 0.05 -0.3 0.2 -0.35 L0.15 -0.4 0.2 -0.4 Q0.3 -0.35 0.35 -0.25 0.35 -0.15 0.35 -0.1 0.3 -0.15 0.25 -0.15 L0.15 -0.2 0.1 -0.2 Q0.15 -0.25 0.1 -0.25 L0.05 -0.2 0.0 -0.2 Q0.0 -0.25 -0.05 -0.3 L-0.15 -0.3 Q-0.15 -0.35 -0.15 -0.4 -0.2 -0.45 -0.15 -0.5 M-0.2 -0.3 Q-0.2 -0.25 -0.15 -0.2 L-0.1 -0.2 -0.05 -0.15 -0.05 -0.1 Q0.0 -0.05 -0.05 -0.05 L-0.1 -0.05 Q-0.1 -0.1 -0.15 -0.15 -0.25 -0.2 -0.3 -0.3 L-0.2 -0.3 M0.05 -0.05 L0.05 0.0 Q0.05 0.05 0.05 0.15 0.0 0.2 -0.1 0.2 L-0.1 0.25 -0.1 0.15 -0.05 0.15 -0.05 0.1 Q-0.05 0.05 -0.1 0.05 L-0.2 0.05 -0.2 0.0 Q-0.1 0.0 0.0 0.0 L0.05 -0.05 M0.15 0.0 L0.15 -0.05 0.1 -0.1 Q0.15 -0.1 0.2 -0.1 L0.25 -0.05 Q0.25 0.0 0.3 0.0 L0.3 0.05 0.3 0.1 Q0.3 0.15 0.2 0.2 L0.2 0.25 0.15 0.25 Q0.15 0.2 0.2 0.15 0.2 0.1 0.2 0.05 0.15 0.05 0.15 0.0 M-0.45 -0.1 Q-0.4 -0.05 -0.35 -0.05 L-0.3 0.0 -0.25 0.0 -0.25 0.05 -0.3 0.1 -0.3 0.15 Q-0.35 0.15 -0.45 0.2 L-0.4 0.15 Q-0.35 0.15 -0.4 0.1 -0.5 0.0 -0.45 -0.1" fill="#4a0048" fill-rule="evenodd" stroke="none"/>
    <path d="M-0.15 -0.3 L-0.05 -0.3 Q0.0 -0.25 0.0 -0.2 L0.05 -0.2 0.1 -0.25 Q0.15 -0.25 0.1 -0.2 L0.15 -0.2 0.25 -0.15 Q0.3 -0.15 0.35 -0.1 0.35 -0.15 0.35 -0.25 0.3 -0.35 0.2 -0.4 L0.15 -0.4 0.2 -0.35 Q0.05 -0.3 -0.05 -0.45 -0.1 -0.5 -0.15 -0.5 -0.3 -0.5 -0.4 -0.4 L-0.45 -0.25 Q-0.5 -0.2 -0.4 -0.15 -0.25 -0.1 -0.05 -0.05 0.0 -0.05 -0.05 -0.1 L-0.05 -0.15 Q-0.05 -0.2 -0.1 -0.2 L-0.15 -0.2 Q-0.2 -0.25 -0.2 -0.3 L-0.15 -0.3 M0.1 -0.45 L0.25 -0.45 Q0.45 -0.35 0.45 -0.15 0.45 -0.05 0.35 0.05 0.35 0.1 0.3 0.15 0.2 0.35 0.05 0.2 -0.15 0.4 -0.25 0.2 -0.3 0.25 -0.4 0.3 L-0.45 0.25 Q-0.6 0.1 -0.5 -0.15 L-0.45 -0.15 Q-0.6 -0.35 -0.35 -0.5 -0.25 -0.6 -0.15 -0.6 L0.0 -0.5 0.1 -0.45 M0.05 -0.15 L0.1 -0.1 0.15 -0.1 0.05 -0.15 M-0.1 0.25 L-0.1 0.2 Q0.0 0.2 0.05 0.15 0.05 0.05 0.05 0.0 L0.05 -0.05 0.0 0.0 Q-0.1 0.0 -0.2 0.0 L-0.2 0.05 Q-0.2 0.15 -0.25 0.2 L-0.2 0.2 Q-0.15 0.25 -0.1 0.25 M0.3 0.05 L0.3 0.0 Q0.25 0.0 0.25 -0.05 L0.2 -0.1 Q0.15 -0.1 0.1 -0.1 L0.15 -0.05 0.15 0.0 Q0.15 0.05 0.1 0.05 0.15 0.15 0.05 0.2 0.15 0.25 0.2 0.2 0.3 0.15 0.3 0.1 L0.3 0.05 M0.3 -0.05 L0.35 -0.05 0.35 -0.1 0.3 -0.1 0.3 -0.05 M-0.45 -0.1 Q-0.5 0.05 -0.45 0.2 -0.35 0.15 -0.3 0.15 L-0.3 0.1 -0.25 0.05 -0.25 0.0 -0.3 0.0 -0.35 -0.05 Q-0.4 -0.05 -0.45 -0.1" fill="#1a1a1a" fill-rule="evenodd" stroke="none"/>
    <path d="M0.05 -0.15 L0.15 -0.1 0.1 -0.1 0.05 -0.15 M0.3 -0.05 L0.3 -0.1 0.35 -0.1 0.35 -0.05 0.3 -0.05" fill="#444444" fill-rule="evenodd" stroke="none"/>
  </g>
</svg>
