<?xml version="1.0" encoding="UTF-8" standalone="no"?>
<svg xmlns:ffdec="https://www.free-decompiler.com/flash" xmlns:xlink="http://www.w3.org/1999/xlink" ffdec:objectType="shape" height="134.1px" width="100.35px" xmlns="http://www.w3.org/2000/svg">
  <g transform="matrix(1.0, 0.0, 0.0, 1.0, 11.8, 134.1)">
    <path d="M85.0 -133.9 L85.0 -134.05 Q86.25 -134.3 86.25 -132.75 L86.25 -132.35 86.2 -132.4 86.1 -132.2 86.0 -132.25 Q85.4 -132.45 85.25 -132.95 85.1 -133.2 85.0 -133.9 M75.7 -129.85 L75.65 -129.7 Q74.65 -130.0 74.4 -130.2 74.25 -130.35 74.25 -130.65 L74.25 -130.75 Q74.25 -131.0 74.5 -131.1 L75.0 -131.1 Q75.75 -130.8 75.8 -130.15 L75.7 -129.85 M79.35 -121.65 L79.5 -121.75 79.85 -121.25 Q80.05 -120.85 80.05 -120.75 L80.0 -120.35 Q80.0 -120.3 80.0 -120.15 L79.85 -120.05 79.75 -120.0 79.6 -119.95 79.35 -120.4 Q79.2 -120.65 79.2 -121.0 79.2 -121.35 79.3 -121.55 L79.35 -121.65 M71.4 -106.85 L71.4 -106.7 Q71.4 -106.45 71.2 -106.3 71.0 -106.15 70.4 -106.05 L70.05 -106.15 70.0 -106.1 Q69.95 -106.15 69.95 -106.3 L69.95 -106.45 Q69.95 -106.9 70.3 -107.05 L71.3 -107.15 71.4 -107.05 71.4 -106.85 M84.4 -103.1 L84.55 -103.1 Q85.05 -102.95 85.4 -102.2 L85.35 -102.05 85.2 -101.65 Q84.55 -102.0 84.4 -102.1 84.1 -102.3 83.8 -102.7 84.05 -103.1 84.4 -103.1 M56.95 -109.5 L56.9 -109.5 56.5 -109.9 Q56.35 -110.05 56.35 -110.2 56.35 -110.55 56.45 -110.6 L56.55 -110.65 56.75 -110.75 Q56.8 -110.7 57.0 -110.5 57.25 -110.2 57.3 -110.05 57.15 -109.65 56.95 -109.5 M56.5 -100.9 L56.35 -100.7 55.9 -100.7 55.8 -100.8 Q55.75 -100.9 55.75 -101.0 L55.75 -101.1 55.8 -101.4 Q56.1 -101.5 56.5 -101.15 L56.55 -101.0 56.5 -100.9 M68.1 -105.95 Q67.7 -106.15 67.3 -106.6 L66.6 -107.55 Q67.0 -107.55 67.75 -107.0 68.5 -106.45 68.7 -106.05 L68.6 -105.95 68.4 -105.85 68.1 -105.95 M62.95 -100.55 Q62.95 -101.25 63.55 -100.85 64.05 -100.5 64.3 -100.0 64.3 -99.85 64.25 -99.8 L64.2 -99.75 63.95 -99.7 Q63.7 -99.7 63.6 -99.75 63.55 -99.8 63.6 -99.85 L63.1 -100.0 62.95 -100.1 Q62.95 -100.2 62.95 -100.5 L62.95 -100.55 M67.15 -94.05 L67.1 -93.9 Q67.05 -93.8 67.0 -93.75 66.4 -93.9 66.15 -94.1 66.0 -94.25 65.8 -94.5 L65.85 -94.5 Q66.1 -95.0 66.55 -94.9 67.05 -94.8 67.15 -94.1 L67.15 -94.05 M59.15 -74.1 L59.55 -74.15 Q60.0 -74.05 59.9 -73.3 L59.8 -73.25 Q59.7 -73.15 59.6 -73.1 59.35 -73.25 59.2 -73.5 59.1 -73.65 58.75 -73.8 58.95 -74.0 59.15 -74.1 M85.85 -98.7 L85.85 -98.4 85.8 -98.1 Q85.75 -98.0 85.65 -97.95 L85.35 -97.9 Q85.25 -98.8 85.7 -99.0 L85.85 -98.7 M76.65 -79.45 L76.6 -79.65 Q77.05 -79.65 77.7 -79.15 78.35 -78.6 78.35 -78.25 78.35 -78.0 78.15 -76.9 78.0 -75.85 78.0 -75.55 L78.0 -75.05 77.75 -74.95 Q77.55 -74.8 77.4 -74.8 L77.3 -74.85 77.25 -74.9 Q77.2 -75.0 77.2 -75.3 77.2 -75.55 77.4 -75.8 77.6 -76.05 77.6 -76.3 77.6 -77.1 77.25 -77.75 76.85 -78.5 76.65 -79.45 M34.2 -101.05 L34.2 -101.0 33.8 -101.45 33.4 -102.05 33.45 -102.55 33.45 -102.65 Q33.85 -102.65 34.15 -102.3 34.45 -101.95 34.45 -101.6 L34.35 -101.15 Q34.3 -101.15 34.25 -101.1 L34.2 -101.05 M19.95 -93.35 L19.05 -93.45 18.2 -93.5 18.05 -93.6 Q18.05 -93.65 18.05 -93.8 L18.0 -94.0 Q18.0 -94.2 18.75 -94.65 L19.4 -94.65 Q19.7 -94.5 19.85 -94.2 20.0 -93.9 20.1 -93.75 L19.95 -93.35 M22.5 -85.7 L22.35 -85.55 Q22.1 -85.8 22.0 -86.0 21.75 -86.35 21.75 -86.75 L22.05 -86.7 22.25 -86.6 Q22.45 -86.5 22.65 -86.3 L22.55 -85.7 22.5 -85.7 M5.9 -69.3 Q5.6 -69.55 5.45 -69.8 5.25 -70.2 5.1 -70.4 L5.05 -70.45 4.65 -70.55 Q4.1 -70.55 3.4 -70.2 2.55 -69.8 1.95 -69.2 L1.8 -69.2 1.75 -69.25 Q1.65 -69.3 1.65 -69.6 1.65 -70.0 2.6 -70.65 3.45 -71.25 3.7 -71.25 4.95 -71.25 5.55 -71.05 6.35 -70.8 6.35 -70.25 6.35 -69.9 6.25 -69.65 L6.0 -69.2 5.9 -69.3 M36.85 -93.85 Q36.85 -94.05 36.9 -94.05 L36.95 -94.0 37.2 -94.05 37.5 -93.85 Q37.6 -93.7 37.6 -93.35 L37.6 -93.05 37.55 -93.0 Q37.55 -92.85 37.3 -92.8 L37.2 -92.75 36.95 -93.2 Q36.85 -93.4 36.85 -93.75 L36.85 -93.85 M37.05 -87.1 L37.05 -87.05 36.65 -86.85 Q36.0 -86.85 35.85 -87.25 35.75 -87.45 35.8 -87.7 35.8 -88.05 35.8 -88.1 35.85 -88.15 35.95 -88.25 L36.0 -88.2 Q36.25 -88.1 36.6 -87.8 36.9 -87.45 37.0 -87.2 L37.05 -87.1 M44.7 -88.35 Q44.4 -88.45 44.25 -88.7 L44.05 -89.2 44.25 -89.35 44.35 -89.4 44.85 -89.4 44.9 -89.0 44.85 -88.6 Q44.8 -88.6 44.7 -88.35 M30.75 -92.45 L30.75 -92.5 Q31.45 -92.95 31.75 -92.15 L31.65 -91.85 31.55 -91.7 31.35 -91.75 31.05 -91.75 30.85 -92.05 Q30.75 -92.3 30.75 -92.45 M24.3 -80.1 L24.65 -79.7 24.75 -79.55 Q24.65 -79.6 24.45 -79.7 L23.9 -80.15 23.3 -80.6 23.4 -80.7 23.45 -80.8 23.5 -80.8 24.0 -80.35 24.3 -80.1 M25.85 -77.2 L25.75 -77.05 Q25.5 -77.3 25.35 -77.9 25.25 -78.3 25.25 -78.6 L25.25 -78.75 Q25.25 -79.0 25.3 -78.7 L25.35 -78.6 25.35 -78.65 Q25.65 -78.4 25.85 -78.1 26.0 -77.9 26.0 -77.8 L25.95 -77.35 25.95 -77.3 Q25.9 -77.3 25.85 -77.2 M25.5 -67.5 L25.45 -67.4 Q25.1 -67.45 24.75 -67.7 24.65 -67.8 24.4 -68.05 L24.4 -68.2 24.45 -68.55 Q24.75 -68.45 25.0 -68.25 L25.6 -67.75 25.5 -67.5 M41.95 -61.75 L42.05 -61.8 42.3 -61.6 Q42.4 -61.45 42.4 -61.1 L42.35 -60.6 42.35 -60.5 Q42.3 -60.5 42.15 -60.4 L41.95 -60.25 41.85 -60.25 41.7 -60.25 Q41.6 -60.3 41.6 -60.6 41.6 -60.9 41.65 -61.2 L41.75 -61.75 41.95 -61.75 M36.15 -56.35 L36.15 -56.6 Q36.15 -56.7 36.4 -56.9 36.65 -57.05 36.65 -57.3 36.85 -57.3 36.95 -57.15 L37.05 -57.1 37.15 -56.95 Q37.1 -56.8 36.75 -56.5 36.45 -56.25 36.4 -56.25 L36.2 -56.25 Q36.15 -56.25 36.15 -56.35 M44.25 -56.7 L44.15 -56.8 Q44.1 -56.85 44.1 -57.15 44.1 -57.5 44.25 -57.6 L44.5 -57.65 44.65 -57.7 Q44.85 -57.5 44.85 -57.35 L44.75 -57.05 Q44.6 -56.75 44.25 -56.7 M27.55 -64.3 Q27.35 -64.55 27.35 -65.05 27.35 -65.35 27.4 -65.9 27.4 -66.15 27.15 -66.6 L26.75 -67.25 26.7 -67.25 Q27.5 -67.55 27.85 -66.55 28.05 -65.9 28.05 -64.95 L28.05 -64.6 Q28.05 -64.55 28.05 -64.45 28.0 -64.45 27.9 -64.35 27.75 -64.25 27.65 -64.2 L27.55 -64.3 M24.2 -52.65 L24.65 -52.5 Q25.35 -52.3 25.6 -51.95 25.55 -51.8 25.5 -51.7 25.45 -51.55 25.15 -51.55 24.95 -51.55 24.5 -51.7 L23.85 -51.8 23.8 -52.25 23.85 -52.7 24.2 -52.65 M33.15 -49.0 L33.25 -49.05 Q33.65 -48.45 33.75 -48.0 L33.6 -47.8 Q33.55 -47.75 33.4 -47.7 L33.3 -47.7 33.05 -47.85 Q32.9 -48.0 32.9 -48.35 32.9 -48.85 33.15 -49.0 M24.7 -40.8 L24.65 -40.5 24.65 -40.45 24.6 -40.3 24.3 -40.25 Q23.95 -40.55 23.85 -40.85 23.8 -41.05 23.8 -41.7 L23.95 -41.8 Q24.35 -42.05 24.55 -41.6 24.7 -41.35 24.7 -41.0 L24.7 -40.8 M24.75 -34.25 L24.75 -33.65 24.6 -33.55 24.4 -33.45 24.15 -33.85 Q24.0 -34.15 24.0 -34.5 24.0 -34.85 24.15 -35.05 24.2 -35.25 24.35 -35.3 L24.65 -34.7 24.75 -34.25 M37.75 -44.75 L38.0 -44.35 37.9 -44.1 37.95 -44.0 37.85 -43.95 37.65 -43.95 Q37.45 -43.95 37.2 -44.45 36.95 -44.95 36.95 -45.15 37.3 -45.2 37.65 -44.85 L37.75 -44.75 M20.7 -57.55 L20.8 -57.45 20.85 -57.3 Q20.45 -56.95 18.3 -56.85 L18.2 -57.0 Q18.15 -57.1 18.15 -57.4 18.15 -57.7 18.95 -57.8 L19.6 -57.85 20.1 -57.75 20.25 -57.75 Q20.55 -57.65 20.7 -57.55 M5.6 -62.15 Q5.6 -62.45 5.6 -62.35 5.95 -62.35 6.25 -62.2 6.5 -62.1 6.6 -61.9 6.7 -61.75 6.7 -61.6 L6.4 -61.4 5.85 -61.45 Q5.8 -61.5 5.65 -61.6 5.55 -61.65 5.55 -62.0 L5.6 -62.15 M7.3 -43.05 L7.35 -43.05 7.5 -42.65 7.55 -42.1 Q7.55 -41.45 7.5 -41.3 7.45 -40.95 7.0 -40.75 L6.95 -40.85 Q6.9 -40.9 6.9 -41.2 6.9 -41.65 7.0 -42.2 7.15 -42.9 7.3 -43.05 M-1.6 -48.35 L-1.65 -48.35 -1.6 -48.4 Q-1.35 -48.85 -0.85 -49.2 L0.1 -49.15 Q0.55 -49.0 0.6 -48.85 L0.6 -48.75 0.55 -48.7 -0.75 -48.45 -1.35 -48.3 -1.6 -48.35 M10.3 -41.8 Q9.8 -41.2 9.3 -41.1 9.4 -41.4 9.65 -41.65 9.9 -41.95 10.15 -41.95 L10.3 -41.8 M15.25 -37.45 L15.3 -37.5 15.55 -37.0 Q15.7 -36.75 15.7 -36.45 L15.7 -36.4 Q15.7 -36.05 15.65 -35.95 L15.45 -35.9 Q15.3 -36.15 15.0 -36.55 14.75 -36.95 14.9 -37.45 L15.25 -37.45 M14.85 -32.35 L14.5 -32.4 Q14.65 -32.7 14.9 -33.5 15.2 -34.2 15.75 -34.4 L15.75 -33.95 Q15.75 -33.6 15.55 -33.25 L15.0 -32.35 14.85 -32.35 M2.45 -26.85 L1.95 -26.9 Q1.85 -27.15 1.85 -27.3 L1.95 -27.75 2.15 -27.75 2.55 -27.7 Q2.55 -27.65 2.65 -27.55 L2.65 -27.5 2.85 -27.3 2.55 -26.85 2.45 -26.85 M7.55 -22.65 Q7.85 -22.5 7.95 -22.4 7.85 -22.3 7.4 -22.1 L7.05 -21.75 Q6.85 -21.45 6.85 -21.1 6.7 -21.15 6.6 -21.25 L6.55 -21.4 Q6.5 -21.55 6.5 -21.75 6.5 -21.95 6.7 -22.3 6.95 -22.75 7.35 -22.7 L7.55 -22.65 M8.6 -9.2 L8.25 -8.75 7.75 -8.75 7.7 -8.9 Q7.65 -9.0 7.65 -9.3 7.65 -9.8 7.65 -9.7 L8.15 -9.7 9.0 -9.75 8.6 -9.2 M20.15 -14.9 Q19.9 -15.1 19.65 -15.55 L19.35 -16.15 Q19.9 -16.4 20.1 -15.85 20.15 -15.65 20.2 -15.05 L20.15 -14.9 M18.9 -9.0 L19.1 -9.25 19.9 -8.65 Q20.6 -8.05 20.6 -7.7 20.55 -7.55 20.5 -7.5 20.35 -7.4 20.1 -7.4 19.75 -7.4 19.3 -7.9 18.85 -8.4 18.85 -8.55 18.85 -8.85 18.9 -9.0 M12.7 -13.9 Q12.8 -13.75 12.8 -13.4 12.8 -12.95 12.65 -12.6 12.45 -12.05 12.05 -12.05 L11.75 -12.1 11.7 -12.15 12.05 -13.15 Q12.3 -13.9 12.5 -14.05 12.65 -14.0 12.7 -13.9 M46.0 -26.6 L46.2 -26.5 46.25 -26.2 Q46.2 -26.0 46.05 -25.85 L45.9 -25.75 45.25 -25.75 45.05 -25.95 45.0 -26.05 Q44.85 -26.2 44.85 -26.35 45.1 -26.7 45.2 -26.75 45.45 -26.8 46.0 -26.6 M39.8 -29.1 L39.55 -29.1 39.5 -29.45 39.45 -29.95 Q39.45 -30.7 39.7 -31.05 L39.9 -31.3 40.15 -30.7 Q40.2 -30.4 40.2 -30.0 L40.2 -29.35 40.0 -29.1 39.8 -29.1 M33.7 -25.45 Q34.05 -25.75 34.5 -25.45 35.0 -25.15 35.0 -24.55 L34.95 -24.1 34.95 -24.05 34.9 -23.95 Q34.9 -23.85 34.7 -23.85 L34.6 -23.85 Q34.45 -23.85 34.0 -24.5 33.6 -25.05 33.55 -25.3 L33.7 -25.45 M31.2 -32.45 Q31.15 -32.65 31.15 -32.95 L31.15 -33.35 31.2 -33.65 31.7 -33.65 31.75 -33.6 31.8 -33.35 Q31.8 -33.0 31.7 -32.7 L31.5 -32.25 31.2 -32.25 31.2 -32.45 M32.35 -1.4 L32.4 -1.4 32.65 -1.1 32.9 -0.7 Q32.45 -0.2 31.55 -0.1 L29.95 0.0 Q29.8 -0.05 29.7 -0.15 L29.65 -0.2 30.05 -0.75 Q30.25 -1.0 30.45 -1.15 31.0 -1.55 32.35 -1.4 M58.2 -63.2 Q58.2 -63.35 58.2 -63.45 58.2 -63.85 58.65 -64.15 59.25 -64.55 60.45 -64.4 L60.85 -63.95 Q60.9 -63.85 60.9 -63.7 60.9 -63.2 60.85 -63.05 60.7 -62.85 60.45 -62.75 L60.1 -62.75 Q59.85 -62.75 59.75 -62.95 59.7 -63.0 59.7 -63.2 L59.05 -63.1 58.6 -62.95 58.3 -63.05 Q58.25 -63.1 58.2 -63.2 M53.55 -57.3 L53.7 -56.95 Q53.8 -56.6 53.8 -55.8 53.8 -55.6 53.9 -55.1 54.0 -54.65 54.0 -54.35 L54.0 -53.85 53.9 -53.75 53.7 -53.6 Q53.4 -54.0 53.5 -54.9 53.5 -55.4 53.6 -55.8 53.6 -56.4 52.95 -57.6 52.4 -58.65 51.95 -59.1 L51.95 -59.55 Q53.2 -59.75 53.5 -58.9 53.55 -58.6 53.55 -57.3 M53.35 -40.8 Q53.8 -41.35 54.3 -41.9 54.8 -42.4 55.2 -43.0 L55.3 -43.0 55.45 -42.95 Q55.55 -42.85 55.55 -42.55 55.55 -41.85 55.0 -41.15 54.45 -40.4 53.85 -40.4 53.6 -40.4 53.45 -40.5 L53.25 -40.7 53.35 -40.8 M62.55 -18.5 L62.65 -18.6 Q62.7 -18.55 62.95 -18.1 63.2 -17.65 63.2 -17.5 63.2 -17.2 63.0 -16.95 62.85 -16.75 62.55 -16.65 L62.45 -16.65 62.4 -16.9 Q62.35 -17.05 62.35 -17.15 62.25 -17.45 62.25 -17.8 62.25 -18.15 62.35 -18.35 62.45 -18.45 62.55 -18.5 M56.4 -4.9 L56.4 -4.95 Q56.35 -5.05 56.35 -5.35 L56.65 -5.6 Q56.9 -5.75 56.9 -6.05 L57.05 -6.0 57.2 -6.0 Q57.3 -5.95 57.3 -5.65 57.3 -5.3 57.3 -5.2 L57.1 -4.9 Q57.15 -4.85 57.1 -4.85 L56.8 -4.8 56.45 -4.85 56.4 -4.9 M64.75 -12.65 L64.75 -12.75 Q64.75 -13.15 64.95 -13.6 65.15 -14.05 65.35 -14.2 L65.4 -14.15 Q65.55 -14.05 65.6 -14.0 65.7 -13.85 65.7 -13.5 65.7 -13.05 65.7 -12.95 65.55 -12.5 65.0 -12.5 64.95 -12.45 64.9 -12.45 64.8 -12.45 64.75 -12.65 M66.4 -0.95 L66.1 -1.25 Q66.35 -1.9 66.75 -1.95 L66.8 -1.95 Q67.2 -2.0 67.2 -1.3 67.2 -1.0 67.15 -0.95 L67.1 -0.85 Q67.15 -0.8 67.1 -0.75 67.05 -0.7 66.75 -0.7 66.6 -0.7 66.4 -0.9 L66.4 -0.95 M78.65 -10.15 L78.75 -10.15 78.7 -9.9 78.6 -9.7 78.55 -9.65 Q78.5 -9.5 78.4 -9.45 L78.25 -9.4 Q78.2 -9.35 78.15 -9.35 78.1 -9.35 78.1 -9.7 78.1 -9.85 78.25 -10.0 78.45 -10.15 78.65 -10.15 M80.6 -0.35 Q80.6 -0.45 80.6 -0.55 80.6 -0.9 80.95 -1.35 81.35 -1.8 81.75 -1.9 L81.85 -1.9 81.9 -1.8 Q82.0 -1.7 82.0 -1.4 82.0 -1.2 81.65 -0.75 81.35 -0.4 81.05 -0.15 L80.7 -0.2 Q80.65 -0.2 80.6 -0.35 M87.3 -0.2 L87.2 -0.25 Q87.15 -0.25 87.15 -0.6 87.15 -0.9 87.55 -1.3 87.95 -1.7 88.35 -1.75 L88.5 -1.75 88.5 -1.65 Q88.55 -1.55 88.55 -1.25 88.55 -0.95 88.3 -0.6 87.95 -0.15 87.45 -0.2 L87.3 -0.2 M-7.05 -66.2 L-7.2 -66.2 -7.15 -66.35 -7.05 -67.25 Q-6.85 -68.0 -6.55 -68.15 -6.55 -67.8 -6.7 -67.2 -6.85 -66.45 -7.0 -66.2 L-7.05 -66.2 M-5.15 -71.05 L-5.15 -71.1 -5.1 -71.45 -5.1 -71.4 -4.7 -71.4 -3.6 -71.15 Q-3.3 -71.0 -3.2 -70.7 L-2.95 -70.25 -3.45 -70.4 -5.05 -70.85 -5.1 -70.8 Q-5.15 -70.75 -5.15 -71.05 M-1.6 -67.7 L-1.85 -67.7 -2.2 -67.85 Q-2.35 -68.0 -2.4 -68.25 L-2.5 -68.6 -2.55 -68.75 Q-2.25 -68.7 -1.9 -68.45 -1.7 -68.2 -1.5 -68.0 L-1.5 -67.85 -1.55 -67.75 -1.6 -67.7 M-11.7 -59.1 L-11.75 -59.1 Q-11.85 -59.45 -11.65 -60.0 -11.5 -60.45 -11.15 -60.85 L-10.35 -60.8 -9.85 -60.75 Q-9.3 -60.75 -8.55 -62.25 -7.65 -64.05 -7.4 -64.3 L-7.35 -64.05 Q-8.05 -62.15 -8.85 -61.0 -10.0 -59.4 -10.95 -59.85 -11.1 -59.55 -11.2 -59.35 -11.35 -59.1 -11.7 -59.1 M-2.75 -46.65 L-2.7 -46.7 -2.45 -47.0 Q-2.3 -47.25 -2.15 -47.3 L-2.15 -47.25 Q-2.2 -46.75 -2.35 -46.4 -2.6 -45.85 -2.95 -45.7 L-3.05 -45.75 -3.15 -45.8 Q-3.05 -46.2 -2.75 -46.65 M-4.4 -43.75 Q-4.9 -43.2 -5.2 -43.0 -5.7 -42.65 -6.75 -42.6 -6.95 -42.65 -7.05 -42.8 -7.15 -42.95 -7.2 -43.1 -7.05 -43.25 -6.2 -43.6 L-4.9 -44.1 Q-4.5 -44.05 -4.3 -43.9 L-4.4 -43.75 M-1.75 -35.25 L-2.0 -35.3 -2.05 -35.2 Q-2.1 -35.2 -2.1 -35.55 -2.1 -35.85 -1.85 -35.9 -1.7 -35.95 -1.5 -35.8 L-1.6 -35.5 -1.75 -35.25 M-4.5 -28.7 L-4.5 -28.4 -5.25 -28.35 -5.3 -28.4 Q-5.35 -28.5 -5.35 -28.8 -5.35 -29.35 -5.3 -29.25 -5.15 -29.25 -4.95 -29.15 -4.65 -29.0 -4.5 -28.7" fill="#ffffff" fill-rule="evenodd" stroke="none"/>
    <path d="M86.0 -132.25 L85.95 -132.1 Q85.7 -131.55 85.4 -131.55 L84.85 -131.65 Q84.6 -131.95 84.5 -132.2 84.45 -132.35 84.45 -132.75 84.45 -133.3 84.7 -133.65 84.85 -133.8 85.0 -133.9 85.1 -133.2 85.25 -132.95 85.4 -132.45 86.0 -132.25 M74.25 -130.65 Q74.25 -130.35 74.4 -130.2 74.65 -130.0 75.65 -129.7 L75.7 -129.85 75.6 -129.6 Q75.5 -129.35 75.15 -129.1 74.4 -129.25 74.2 -129.6 74.15 -129.75 74.15 -130.15 74.15 -130.45 74.25 -130.65 M79.75 -120.0 L79.65 -119.75 Q79.5 -119.35 79.35 -119.3 L79.1 -119.3 Q78.8 -119.35 78.75 -119.95 78.7 -120.2 78.7 -120.8 78.7 -122.2 79.25 -121.75 L79.35 -121.65 79.3 -121.55 Q79.2 -121.35 79.2 -121.0 79.2 -120.65 79.35 -120.4 L79.6 -119.95 79.75 -120.0 M69.95 -106.3 Q69.95 -106.15 70.0 -106.1 L70.05 -106.15 70.4 -106.05 Q71.0 -106.15 71.2 -106.3 71.4 -106.45 71.4 -106.7 L71.4 -106.85 Q71.55 -106.7 71.55 -106.5 71.55 -106.25 71.2 -105.75 70.9 -105.2 70.65 -105.1 70.05 -105.2 69.9 -105.45 69.85 -105.55 69.85 -105.8 69.85 -106.1 69.95 -106.3 M85.35 -102.05 L85.35 -101.85 Q85.35 -101.5 85.15 -101.3 84.9 -101.0 84.35 -101.0 83.55 -101.0 83.35 -101.55 83.2 -101.85 83.25 -102.1 83.25 -102.45 83.5 -102.8 83.85 -103.3 84.4 -103.1 84.05 -103.1 83.8 -102.7 84.1 -102.3 84.4 -102.1 84.55 -102.0 85.2 -101.65 L85.35 -102.05 M56.55 -110.65 L56.45 -110.6 Q56.35 -110.55 56.35 -110.2 56.35 -110.05 56.5 -109.9 L56.9 -109.5 56.95 -109.5 Q56.85 -109.35 56.55 -109.3 L56.4 -109.35 56.05 -109.9 Q55.95 -110.0 55.95 -110.25 55.95 -110.5 56.2 -110.7 L56.5 -110.7 56.55 -110.65 M55.75 -101.1 L55.7 -101.2 Q55.45 -101.55 55.45 -101.65 55.45 -101.85 55.55 -101.9 L56.15 -101.95 56.6 -101.6 Q56.75 -101.5 56.75 -101.3 56.75 -101.15 56.7 -101.05 L56.5 -100.9 56.55 -101.0 56.5 -101.15 Q56.1 -101.5 55.8 -101.4 L55.75 -101.1 M68.1 -105.95 L68.05 -105.75 Q67.9 -105.4 67.7 -105.3 L67.3 -105.35 Q66.75 -105.6 66.5 -106.15 66.35 -106.55 66.35 -106.9 66.35 -108.05 67.25 -107.45 67.5 -107.3 67.75 -107.0 67.0 -107.55 66.6 -107.55 L67.3 -106.6 Q67.7 -106.15 68.1 -105.95 M64.2 -99.75 Q64.2 -99.55 64.2 -99.45 64.15 -99.35 63.95 -99.1 L63.6 -99.05 63.3 -99.0 Q63.0 -99.0 62.8 -99.45 62.65 -99.8 62.65 -100.0 62.65 -100.25 62.7 -100.4 62.8 -100.5 62.95 -100.55 L62.95 -100.5 Q62.95 -100.2 62.95 -100.1 L63.1 -100.0 63.6 -99.85 Q63.55 -99.8 63.6 -99.75 63.7 -99.7 63.95 -99.7 L64.2 -99.75 M67.15 -94.05 L67.15 -94.0 Q67.15 -93.75 66.95 -93.45 66.7 -93.0 66.3 -93.0 65.85 -93.0 65.65 -93.4 65.55 -93.6 65.55 -93.85 65.55 -94.3 65.85 -94.5 L65.8 -94.5 Q66.0 -94.25 66.15 -94.1 66.4 -93.9 67.0 -93.75 67.05 -93.8 67.1 -93.9 L67.15 -94.05 M59.6 -73.1 L59.45 -72.85 Q59.25 -72.55 59.15 -72.55 58.8 -72.55 58.65 -73.1 58.55 -73.4 58.55 -73.6 58.55 -74.25 59.15 -74.15 L59.15 -74.1 Q58.95 -74.0 58.75 -73.8 59.1 -73.65 59.2 -73.5 59.35 -73.25 59.6 -73.1 M85.65 -97.95 L85.3 -97.45 85.15 -97.4 Q84.95 -97.55 84.9 -97.8 84.85 -98.0 84.85 -98.1 84.85 -99.05 85.35 -99.25 85.55 -99.3 85.65 -99.15 85.8 -99.0 85.85 -98.7 L85.7 -99.0 Q85.25 -98.8 85.35 -97.9 L85.65 -97.95 M77.3 -74.85 L77.2 -74.75 76.95 -74.8 Q76.6 -75.55 76.45 -76.2 76.25 -76.85 76.25 -77.55 76.25 -78.4 76.45 -79.0 76.5 -79.3 76.65 -79.45 76.85 -78.5 77.25 -77.75 77.6 -77.1 77.6 -76.3 77.6 -76.05 77.4 -75.8 77.2 -75.55 77.2 -75.3 77.2 -75.0 77.25 -74.9 L77.3 -74.85 M33.45 -102.55 L33.4 -102.05 33.8 -101.45 34.2 -101.0 34.2 -101.05 34.2 -101.0 Q34.2 -100.85 34.15 -100.75 34.05 -100.65 33.95 -100.65 L33.55 -100.65 33.4 -100.7 33.0 -101.45 Q32.95 -101.55 32.95 -102.05 32.95 -102.6 33.15 -102.7 33.25 -102.7 33.45 -102.55 M18.05 -93.8 Q18.05 -93.65 18.05 -93.6 L18.2 -93.5 19.05 -93.45 19.95 -93.35 19.95 -93.3 Q19.95 -93.05 19.85 -92.95 L19.5 -92.5 19.0 -92.5 Q18.45 -92.45 18.1 -92.85 17.85 -93.1 17.85 -93.35 17.85 -93.6 18.05 -93.8 M22.25 -86.6 L22.05 -86.7 21.75 -86.75 Q21.75 -86.35 22.0 -86.0 22.1 -85.8 22.35 -85.55 L22.5 -85.7 22.5 -85.6 22.45 -85.35 22.2 -85.0 21.95 -85.05 Q21.8 -85.1 21.55 -85.5 21.3 -85.95 21.3 -86.1 21.3 -86.6 21.5 -86.8 21.65 -87.0 21.9 -86.9 22.15 -86.8 22.25 -86.6 M1.8 -69.2 L1.95 -69.2 Q2.55 -69.8 3.4 -70.2 4.1 -70.55 4.65 -70.55 L5.05 -70.45 5.1 -70.4 Q5.25 -70.2 5.45 -69.8 5.6 -69.55 5.9 -69.3 L5.7 -68.95 5.55 -68.95 5.25 -69.35 Q5.2 -69.35 5.1 -69.45 L4.95 -69.5 4.3 -69.15 Q3.5 -68.8 2.9 -68.8 L2.3 -68.85 Q1.85 -68.95 1.8 -69.2 M37.3 -92.8 L37.3 -92.75 Q37.25 -92.55 36.95 -92.4 L36.75 -92.4 Q36.65 -92.5 36.5 -92.85 36.35 -93.15 36.35 -93.25 36.35 -93.9 36.85 -93.85 L36.85 -93.75 Q36.85 -93.4 36.95 -93.2 L37.2 -92.75 37.3 -92.8 M36.0 -88.2 Q36.0 -88.4 36.05 -88.5 36.15 -88.75 36.55 -88.7 36.8 -88.55 37.0 -88.15 37.2 -87.75 37.2 -87.5 37.2 -87.35 37.05 -87.1 L37.0 -87.2 Q36.9 -87.45 36.6 -87.8 36.25 -88.1 36.0 -88.2 M44.25 -89.35 L44.05 -89.2 44.25 -88.7 Q44.4 -88.45 44.7 -88.35 44.7 -88.25 44.6 -88.15 44.55 -88.0 44.4 -88.0 44.05 -88.0 43.9 -88.45 43.8 -88.65 43.8 -88.85 43.8 -89.6 44.25 -89.35 M31.35 -91.75 L31.4 -91.35 Q31.4 -91.15 31.05 -91.0 L30.8 -91.05 30.55 -91.45 Q30.35 -91.8 30.35 -91.9 30.35 -92.25 30.5 -92.4 30.6 -92.5 30.75 -92.45 30.75 -92.3 30.85 -92.05 L31.05 -91.75 31.35 -91.75 M23.5 -80.8 Q23.65 -80.8 23.85 -80.6 24.15 -80.35 24.3 -80.1 L24.0 -80.35 23.5 -80.8 M24.45 -79.7 L24.45 -79.55 Q24.45 -79.45 24.2 -79.25 L23.8 -79.3 Q23.6 -79.5 23.4 -79.85 23.25 -80.15 23.25 -80.35 23.25 -80.8 23.45 -80.8 L23.4 -80.7 23.3 -80.6 23.9 -80.15 24.45 -79.7 M25.85 -77.2 Q25.9 -76.9 25.85 -76.75 25.8 -76.45 25.55 -76.45 25.15 -76.45 24.95 -77.35 24.85 -77.8 24.8 -78.2 24.8 -78.7 24.95 -78.85 25.05 -78.9 25.25 -78.75 L25.25 -78.6 Q25.25 -78.3 25.35 -77.9 25.5 -77.3 25.75 -77.05 L25.85 -77.2 M25.3 -78.7 L25.35 -78.65 25.35 -78.6 25.3 -78.7 M24.4 -68.2 L24.4 -68.05 Q24.65 -67.8 24.75 -67.7 25.1 -67.45 25.45 -67.4 L25.5 -67.5 25.5 -67.25 Q25.5 -66.9 25.2 -66.7 24.95 -66.65 24.5 -67.1 24.15 -67.5 24.15 -67.65 24.15 -67.9 24.2 -68.05 L24.4 -68.2 M41.85 -60.25 Q41.75 -60.05 41.65 -59.95 L41.45 -60.0 Q41.25 -60.15 41.2 -60.5 41.2 -60.65 41.2 -61.05 41.2 -62.15 41.6 -62.05 41.85 -62.0 41.95 -61.75 L41.75 -61.75 41.65 -61.2 Q41.6 -60.9 41.6 -60.6 41.6 -60.3 41.7 -60.25 L41.85 -60.25 M37.05 -57.1 L37.25 -56.95 37.3 -56.8 Q37.3 -56.65 37.1 -56.25 36.85 -55.85 36.55 -55.75 L36.35 -55.75 36.15 -55.9 Q36.05 -56.0 36.05 -56.05 36.05 -56.2 36.15 -56.35 36.15 -56.25 36.2 -56.25 L36.4 -56.25 Q36.45 -56.25 36.75 -56.5 37.1 -56.8 37.15 -56.95 L37.05 -57.1 M44.5 -57.65 Q44.8 -58.0 45.1 -57.8 L45.15 -57.5 Q45.15 -57.25 45.0 -56.95 44.8 -56.65 44.55 -56.4 L44.4 -56.45 44.25 -56.7 Q44.6 -56.75 44.75 -57.05 L44.85 -57.35 Q44.85 -57.5 44.65 -57.7 L44.5 -57.65 M26.75 -67.25 L27.15 -66.6 Q27.4 -66.15 27.4 -65.9 27.35 -65.35 27.35 -65.05 27.35 -64.55 27.55 -64.3 L27.5 -64.25 27.25 -64.25 Q27.1 -64.5 26.8 -65.4 26.55 -66.35 26.55 -66.65 26.55 -67.2 26.75 -67.25 M23.8 -52.25 L23.85 -51.8 24.5 -51.7 Q24.95 -51.55 25.15 -51.55 25.45 -51.55 25.5 -51.7 25.55 -51.8 25.6 -51.95 25.35 -52.3 24.65 -52.5 L24.2 -52.65 Q24.45 -52.75 24.75 -52.85 25.15 -52.9 25.45 -52.75 25.75 -52.6 25.75 -52.2 25.75 -51.95 25.55 -51.5 25.25 -50.9 24.85 -50.9 L24.2 -50.9 Q24.05 -51.05 23.85 -51.35 23.7 -51.65 23.7 -51.8 23.7 -52.05 23.8 -52.25 M33.4 -47.7 Q33.55 -47.75 33.6 -47.8 L33.75 -48.0 Q33.65 -48.45 33.25 -49.05 L33.15 -49.0 Q33.2 -49.6 33.6 -49.55 34.05 -49.5 34.05 -48.5 34.05 -48.2 34.0 -48.05 33.9 -47.75 33.7 -47.6 L33.45 -47.65 33.4 -47.7 M24.7 -40.8 L24.7 -40.75 24.65 -40.5 24.7 -40.8 M24.6 -40.3 L24.6 -40.25 Q24.45 -39.95 24.3 -39.85 23.85 -39.75 23.6 -40.35 23.45 -40.8 23.45 -41.2 23.45 -41.95 23.95 -41.8 L23.8 -41.7 Q23.8 -41.05 23.85 -40.85 23.95 -40.55 24.3 -40.25 L24.6 -40.3 M24.75 -33.65 L24.75 -33.6 Q24.65 -33.3 24.35 -33.2 L24.15 -33.2 Q23.95 -33.45 23.85 -33.85 23.75 -34.15 23.75 -34.5 23.75 -35.0 23.95 -35.25 24.05 -35.45 24.25 -35.35 L24.35 -35.3 Q24.75 -35.05 24.75 -34.25 L24.65 -34.7 24.35 -35.3 Q24.2 -35.25 24.15 -35.05 24.0 -34.85 24.0 -34.5 24.0 -34.15 24.15 -33.85 L24.4 -33.45 24.6 -33.55 24.75 -33.65 M37.85 -43.95 L37.85 -43.85 Q37.8 -43.6 37.65 -43.55 37.25 -43.45 36.85 -44.0 36.55 -44.4 36.55 -44.6 36.55 -45.1 36.75 -45.25 36.95 -45.4 37.2 -45.3 37.6 -45.15 37.75 -44.75 L37.65 -44.85 Q37.3 -45.2 36.95 -45.15 36.95 -44.95 37.2 -44.45 37.45 -43.95 37.65 -43.95 L37.85 -43.95 M20.7 -57.55 Q21.0 -57.4 21.0 -57.25 21.0 -57.1 20.45 -56.6 19.8 -56.05 19.3 -56.05 L18.85 -56.1 18.3 -56.15 18.2 -56.35 Q18.15 -56.4 18.15 -56.55 18.15 -56.85 18.2 -57.0 L18.3 -56.85 Q20.45 -56.95 20.85 -57.3 L20.8 -57.45 20.7 -57.55 M19.6 -57.85 L19.85 -57.85 20.1 -57.75 19.6 -57.85 M6.6 -61.9 Q6.8 -61.85 6.8 -61.55 6.8 -61.25 6.05 -60.8 5.65 -60.9 5.45 -61.25 5.25 -61.5 5.25 -61.8 5.25 -62.0 5.35 -62.1 5.4 -62.2 5.55 -62.15 L5.6 -62.15 5.55 -62.0 Q5.55 -61.65 5.65 -61.6 5.8 -61.5 5.85 -61.45 L6.4 -61.4 6.7 -61.6 Q6.7 -61.75 6.6 -61.9 M6.95 -40.85 L6.75 -40.6 6.45 -40.6 Q6.4 -40.65 6.35 -40.95 6.25 -41.2 6.25 -41.3 6.25 -42.9 6.85 -43.35 7.05 -43.5 7.2 -43.3 L7.3 -43.05 Q7.15 -42.9 7.0 -42.2 6.9 -41.65 6.9 -41.2 6.9 -40.9 6.95 -40.85 M0.55 -48.7 L0.6 -48.5 Q0.6 -48.2 0.2 -48.05 L-0.25 -48.05 -0.6 -47.95 -1.0 -47.85 Q-1.1 -47.85 -1.25 -47.75 L-1.5 -47.6 -1.7 -47.6 -1.8 -47.7 Q-1.85 -47.8 -1.85 -47.9 -1.85 -48.15 -1.6 -48.35 L-1.35 -48.3 -0.75 -48.45 0.55 -48.7 M10.3 -41.8 L10.15 -41.95 Q9.9 -41.95 9.65 -41.65 9.4 -41.4 9.3 -41.1 9.8 -41.2 10.3 -41.8 M9.9 -42.2 Q10.65 -42.95 10.65 -41.9 10.65 -41.2 9.75 -40.4 L9.35 -40.4 Q9.1 -40.65 9.1 -40.9 9.1 -41.1 9.35 -41.5 9.6 -41.9 9.9 -42.2 M15.7 -36.45 L15.7 -35.8 Q15.65 -35.55 15.45 -35.5 L15.15 -35.55 14.9 -35.6 Q14.7 -35.75 14.55 -36.3 14.4 -36.75 14.4 -37.1 14.4 -37.6 14.6 -37.75 14.8 -37.85 15.05 -37.65 L15.25 -37.45 14.9 -37.45 Q14.75 -36.95 15.0 -36.55 15.3 -36.15 15.45 -35.9 L15.65 -35.95 Q15.7 -36.05 15.7 -36.4 L15.7 -36.45 M15.75 -33.95 L15.75 -34.4 Q15.2 -34.2 14.9 -33.5 14.65 -32.7 14.5 -32.4 L14.85 -32.35 14.7 -32.1 14.35 -32.1 Q14.1 -32.2 14.0 -32.35 14.0 -32.4 14.0 -32.6 14.0 -32.95 14.45 -33.8 14.9 -34.8 15.3 -34.8 15.65 -34.8 15.75 -34.5 L15.8 -34.15 15.75 -33.95 M2.45 -26.85 L2.15 -26.6 Q1.95 -26.6 1.8 -26.65 L1.55 -26.75 Q1.35 -26.95 1.35 -27.25 1.35 -28.2 2.0 -28.2 2.25 -28.15 2.45 -27.95 2.6 -27.8 2.65 -27.55 2.55 -27.65 2.55 -27.7 L2.15 -27.75 1.95 -27.75 1.85 -27.3 Q1.85 -27.15 1.95 -26.9 L2.45 -26.85 M6.55 -21.4 L6.6 -21.25 Q6.7 -21.15 6.85 -21.1 6.85 -21.45 7.05 -21.75 L7.4 -22.1 Q7.85 -22.3 7.95 -22.4 7.85 -22.5 7.55 -22.65 8.1 -23.0 8.1 -22.25 8.1 -21.9 7.75 -21.35 7.35 -20.7 6.9 -20.7 6.6 -20.7 6.55 -20.85 6.5 -20.95 6.5 -21.1 6.5 -21.25 6.55 -21.4 M45.0 -26.05 L45.05 -25.95 45.25 -25.75 45.9 -25.75 46.05 -25.85 Q46.2 -26.0 46.25 -26.2 L46.2 -26.5 46.0 -26.6 46.2 -26.6 Q46.45 -26.55 46.5 -26.4 L46.5 -26.15 Q46.5 -25.8 46.2 -25.45 45.85 -25.1 45.4 -25.1 L44.95 -25.1 44.8 -25.25 Q44.75 -25.35 44.75 -25.5 44.75 -25.7 45.0 -26.05 M39.7 -31.05 Q39.45 -30.7 39.45 -29.95 L39.5 -29.45 39.55 -29.1 39.8 -29.1 39.75 -29.05 39.25 -29.05 Q39.05 -29.25 39.0 -29.55 39.0 -29.65 39.0 -30.0 39.0 -31.3 39.5 -31.2 39.65 -31.15 39.7 -31.05 M34.7 -23.85 L34.65 -23.8 Q34.55 -23.5 34.45 -23.4 L34.0 -23.4 Q33.8 -23.65 33.55 -24.05 33.25 -24.5 33.25 -24.75 33.25 -25.2 33.65 -25.45 L33.7 -25.45 33.55 -25.3 Q33.6 -25.05 34.0 -24.5 34.45 -23.85 34.6 -23.85 L34.7 -23.85 M31.75 -33.6 Q31.9 -33.75 32.05 -33.7 32.2 -33.6 32.2 -33.2 32.2 -33.0 32.05 -32.5 31.85 -31.8 31.55 -31.8 31.3 -31.8 31.2 -32.0 31.15 -32.1 31.15 -32.2 L31.2 -32.45 31.2 -32.25 31.5 -32.25 31.7 -32.7 Q31.8 -33.0 31.8 -33.35 L31.75 -33.6 M29.7 -0.15 L29.0 -0.05 Q28.6 -0.05 28.4 -0.2 28.3 -0.3 28.3 -0.4 28.3 -0.8 28.75 -0.9 L29.3 -1.0 Q29.4 -1.05 29.65 -1.3 29.85 -1.6 30.0 -1.65 31.1 -2.15 31.75 -2.0 32.35 -1.9 32.35 -1.45 L32.35 -1.4 Q31.0 -1.55 30.45 -1.15 30.25 -1.0 30.05 -0.75 L29.65 -0.2 29.7 -0.15 M60.45 -62.75 Q60.3 -62.4 59.85 -62.05 59.3 -61.55 59.0 -61.55 57.9 -61.55 57.9 -62.35 57.9 -62.75 58.1 -63.1 L58.2 -63.2 Q58.25 -63.1 58.3 -63.05 L58.6 -62.95 59.05 -63.1 59.7 -63.2 Q59.7 -63.0 59.75 -62.95 59.85 -62.75 60.1 -62.75 L60.45 -62.75 M55.3 -43.0 L55.2 -43.0 Q54.8 -42.4 54.3 -41.9 53.8 -41.35 53.35 -40.8 L53.3 -40.8 Q53.2 -40.85 53.2 -40.9 53.15 -40.95 53.15 -41.1 53.15 -41.8 53.5 -42.35 54.0 -43.2 55.05 -43.3 55.2 -43.2 55.3 -43.0 M62.55 -16.65 Q62.4 -16.45 62.2 -16.45 L62.05 -16.55 61.95 -16.6 Q61.75 -16.7 61.75 -17.0 61.7 -17.2 61.7 -17.45 61.7 -18.6 62.15 -18.75 62.35 -18.8 62.45 -18.65 L62.55 -18.5 Q62.45 -18.45 62.35 -18.35 62.25 -18.15 62.25 -17.8 62.25 -17.45 62.35 -17.15 62.35 -17.05 62.4 -16.9 L62.45 -16.65 62.55 -16.65 M56.4 -4.9 L56.25 -4.9 Q56.05 -5.0 56.05 -5.2 56.0 -5.25 56.0 -5.45 56.0 -6.25 56.55 -6.4 56.75 -6.45 56.9 -6.3 57.0 -6.2 57.05 -6.0 L56.9 -6.05 Q56.9 -5.75 56.65 -5.6 L56.35 -5.35 Q56.35 -5.05 56.4 -4.95 L56.4 -4.9 M65.4 -14.15 L65.35 -14.2 Q65.15 -14.05 64.95 -13.6 64.75 -13.15 64.75 -12.75 L64.75 -12.65 64.65 -12.65 Q64.4 -12.65 64.35 -12.85 L64.35 -13.15 Q64.35 -14.15 64.9 -14.6 65.1 -14.75 65.25 -14.65 65.4 -14.55 65.4 -14.15 M66.8 -1.95 L66.75 -1.95 Q66.35 -1.9 66.1 -1.25 L66.4 -0.95 66.05 -0.85 65.9 -0.9 Q65.65 -1.15 65.65 -1.45 65.65 -1.55 65.85 -1.95 66.05 -2.4 66.2 -2.5 66.55 -2.6 66.75 -2.15 L66.8 -1.95 M78.4 -9.45 Q78.25 -9.3 78.15 -9.3 77.85 -9.3 77.75 -9.5 77.75 -9.55 77.75 -9.75 77.75 -10.35 78.2 -10.45 78.6 -10.5 78.65 -10.15 78.45 -10.15 78.25 -10.0 78.1 -9.85 78.1 -9.7 78.1 -9.35 78.15 -9.35 78.2 -9.35 78.25 -9.4 L78.4 -9.45 M78.7 -9.9 L78.55 -9.65 78.6 -9.7 78.7 -9.9 M81.75 -1.9 Q81.35 -1.8 80.95 -1.35 80.6 -0.9 80.6 -0.55 80.6 -0.45 80.6 -0.35 L80.45 -0.35 80.3 -0.55 Q80.25 -0.6 80.25 -0.8 80.25 -1.8 81.5 -2.2 81.7 -2.1 81.75 -1.95 L81.75 -1.9 M88.35 -1.75 Q87.95 -1.7 87.55 -1.3 87.15 -0.9 87.15 -0.6 87.15 -0.25 87.2 -0.25 L87.3 -0.2 87.15 -0.05 86.95 -0.05 Q86.65 -0.2 86.65 -0.75 86.65 -1.25 87.5 -1.95 88.35 -2.65 88.35 -1.9 L88.35 -1.75 M-7.15 -66.35 L-7.2 -66.5 -7.05 -67.8 Q-7.05 -68.55 -6.7 -68.45 -6.35 -68.3 -6.35 -67.9 -6.35 -67.75 -6.55 -67.05 -6.75 -66.3 -6.85 -66.2 L-7.05 -66.2 -7.0 -66.2 Q-6.85 -66.45 -6.7 -67.2 -6.55 -67.8 -6.55 -68.15 -6.85 -68.0 -7.05 -67.25 L-7.15 -66.35 M-3.45 -70.4 L-3.45 -70.05 Q-3.5 -69.9 -3.7 -69.8 L-4.1 -69.7 -5.2 -69.9 -5.5 -70.3 Q-5.55 -70.4 -5.55 -70.55 -5.55 -70.9 -5.15 -71.05 -5.15 -70.75 -5.1 -70.8 L-5.05 -70.85 -3.45 -70.4 M-2.5 -68.6 L-2.4 -68.25 Q-2.35 -68.0 -2.2 -67.85 L-1.85 -67.7 -1.6 -67.7 Q-1.6 -67.6 -1.7 -67.5 -1.8 -67.3 -2.0 -67.25 L-2.3 -67.3 Q-2.4 -67.35 -2.6 -67.65 -2.75 -67.95 -2.75 -68.1 -2.75 -68.35 -2.65 -68.5 -2.6 -68.6 -2.5 -68.6 M-7.35 -64.05 L-7.3 -64.05 -7.3 -63.9 Q-7.3 -63.6 -7.7 -62.8 L-8.2 -61.8 -8.65 -60.8 Q-9.0 -60.2 -9.55 -59.75 L-10.25 -59.65 Q-10.25 -59.4 -10.45 -59.1 -10.65 -58.8 -11.0 -58.6 -11.55 -58.7 -11.65 -58.95 L-11.7 -59.1 Q-11.35 -59.1 -11.2 -59.35 -11.1 -59.55 -10.95 -59.85 -10.0 -59.4 -8.85 -61.0 -8.05 -62.15 -7.35 -64.05 M-2.75 -46.65 Q-2.6 -46.85 -2.45 -47.0 L-2.7 -46.7 -2.75 -46.65 M-2.15 -47.25 L-2.05 -47.3 Q-1.95 -47.2 -1.9 -47.05 -1.75 -46.9 -1.75 -46.85 -1.75 -46.7 -2.25 -46.05 L-2.8 -45.4 -2.95 -45.45 Q-3.05 -45.45 -3.05 -45.6 L-3.05 -45.75 -2.95 -45.7 Q-2.6 -45.85 -2.35 -46.4 -2.2 -46.75 -2.15 -47.25 M-7.05 -42.8 Q-6.95 -42.65 -6.75 -42.6 -5.7 -42.65 -5.2 -43.0 -4.9 -43.2 -4.4 -43.75 -4.0 -43.8 -4.0 -43.4 -4.0 -43.2 -4.75 -42.55 -5.55 -41.9 -5.95 -41.9 -6.35 -41.9 -6.75 -42.25 -7.05 -42.55 -7.05 -42.7 L-7.05 -42.8 M-1.55 -36.25 Q-1.4 -36.15 -1.4 -35.85 -1.4 -35.65 -1.55 -35.45 L-2.0 -34.9 -2.2 -35.1 Q-2.3 -35.25 -2.3 -35.35 -2.3 -36.1 -1.85 -36.3 L-1.55 -36.25 M-4.5 -28.7 Q-4.65 -29.0 -4.95 -29.15 -5.15 -29.25 -5.3 -29.25 -5.35 -29.35 -5.35 -28.8 -5.35 -28.5 -5.3 -28.4 L-5.25 -28.35 -4.5 -28.4 -4.5 -28.7 M-1.75 -35.25 L-1.6 -35.5 -1.5 -35.8 Q-1.7 -35.95 -1.85 -35.9 -2.1 -35.85 -2.1 -35.55 -2.1 -35.2 -2.05 -35.2 L-2.0 -35.3 -1.75 -35.25 M-4.35 -28.7 Q-4.35 -28.45 -4.4 -28.2 -4.5 -27.8 -4.8 -27.8 -5.1 -27.8 -5.3 -28.35 -5.4 -28.65 -5.45 -28.95 -5.45 -29.6 -4.9 -29.45 -4.35 -29.25 -4.35 -28.7" fill="#bffff0" fill-opacity="0.7490196" fill-rule="evenodd" stroke="none"/>
  </g>
</svg>
