<?xml version="1.0" encoding="UTF-8" standalone="no"?>
<svg xmlns:ffdec="https://www.free-decompiler.com/flash" xmlns:xlink="http://www.w3.org/1999/xlink" ffdec:objectType="shape" height="133.85px" width="87.7px" xmlns="http://www.w3.org/2000/svg">
  <g transform="matrix(1.0, 0.0, 0.0, 1.0, 1.3, 134.15)">
    <path d="M86.4 -133.6 Q86.3 -133.2 85.95 -133.1 85.8 -133.2 85.65 -133.3 L85.45 -133.55 Q85.45 -133.85 85.5 -134.1 L85.75 -134.15 86.25 -134.05 Q86.25 -133.9 86.4 -133.6 M84.7 -102.25 Q84.65 -102.3 84.65 -102.6 84.65 -102.9 84.95 -103.05 85.25 -103.15 85.8 -103.05 L85.8 -102.95 Q85.85 -102.95 85.85 -102.65 L85.85 -102.25 85.8 -102.25 85.6 -102.2 85.35 -102.1 84.75 -102.2 84.7 -102.25 M78.45 -76.8 L78.4 -76.55 Q78.4 -76.4 78.15 -76.4 77.85 -76.4 77.55 -77.05 77.35 -77.55 77.35 -77.75 77.35 -78.25 77.4 -78.15 78.45 -78.55 78.45 -77.35 L78.45 -76.8 M20.1 -95.15 Q20.1 -95.1 20.1 -94.8 L20.1 -94.5 Q20.1 -94.45 20.1 -94.35 L19.95 -94.25 Q19.85 -94.15 19.75 -94.15 19.25 -94.4 19.1 -94.55 19.05 -94.65 19.05 -94.7 L19.1 -95.1 19.5 -95.15 20.05 -95.1 Q20.05 -95.15 20.1 -95.15 M4.45 -71.1 L4.4 -71.35 Q4.95 -71.65 5.45 -71.4 5.95 -71.15 6.1 -70.5 L6.05 -70.2 Q6.0 -70.1 6.0 -70.05 L5.45 -70.4 Q4.85 -70.75 4.45 -71.1 M38.3 -44.95 L38.25 -44.75 Q38.15 -44.6 37.85 -44.55 37.7 -44.7 37.7 -45.15 37.75 -45.25 37.95 -45.3 38.15 -45.3 38.25 -45.2 L38.3 -44.95 M19.25 -58.4 L19.5 -58.35 Q19.65 -58.3 19.65 -57.95 19.65 -57.65 19.5 -57.5 L19.35 -57.3 19.0 -57.35 18.9 -57.55 Q18.85 -57.7 18.85 -58.0 L18.85 -58.3 Q18.9 -58.3 18.95 -58.35 L19.25 -58.4 M15.8 -37.1 L15.75 -36.8 Q15.7 -36.65 15.4 -36.6 15.25 -36.75 15.05 -37.05 15.1 -37.4 15.55 -37.55 15.8 -37.4 15.8 -37.1 M31.65 -1.1 L31.75 -1.2 32.1 -1.2 Q32.35 -1.15 32.65 -1.0 32.7 -0.85 32.7 -0.55 L32.5 -0.45 32.25 -0.3 31.8 -0.35 Q31.65 -0.45 31.65 -0.8 L31.65 -1.1 M58.85 -64.2 Q58.7 -64.35 58.7 -64.4 58.7 -64.7 58.75 -64.75 L58.75 -64.95 Q59.1 -64.95 59.6 -64.65 60.15 -64.4 60.35 -64.1 L60.35 -63.8 60.4 -63.75 59.7 -63.75 59.25 -63.8 58.85 -64.2 M53.55 -59.6 Q53.85 -59.4 53.95 -58.85 L53.95 -58.55 Q53.9 -58.4 53.6 -58.4 53.35 -58.4 53.05 -58.85 52.8 -59.25 52.8 -59.45 53.25 -59.8 53.55 -59.6 M55.85 -41.9 Q55.95 -41.9 55.95 -41.6 55.95 -41.3 55.75 -41.05 L55.35 -40.65 Q54.9 -40.7 54.75 -40.85 55.0 -41.25 55.3 -41.55 55.6 -41.85 55.8 -41.8 L55.85 -41.9 M82.35 -1.0 Q82.3 -0.55 81.75 -0.5 81.7 -0.45 81.65 -0.45 81.55 -0.45 81.55 -0.8 81.55 -1.1 81.65 -1.2 81.8 -1.4 82.15 -1.3 82.3 -1.15 82.35 -1.0 M-0.5 -49.5 Q-0.3 -49.4 -0.3 -49.3 -0.3 -49.15 -0.55 -49.0 L-1.2 -49.0 -1.25 -48.95 Q-1.3 -48.95 -1.3 -49.3 -1.3 -49.6 -1.2 -49.65 L-1.0 -49.65 Q-0.7 -49.6 -0.5 -49.5" fill="#ffffff" fill-rule="evenodd" stroke="none"/>
  </g>
</svg>
