<?xml version="1.0" encoding="UTF-8" standalone="no"?>
<svg xmlns:ffdec="https://www.free-decompiler.com/flash" xmlns:xlink="http://www.w3.org/1999/xlink" ffdec:objectType="shape" height="12.3px" width="15.4px" xmlns="http://www.w3.org/2000/svg">
  <g transform="matrix(1.0, 0.0, 0.0, 1.0, 8.0, 12.85)">
    <path d="M6.3 -12.05 L6.2 -12.05 Q6.35 -12.25 6.35 -12.05 6.4 -11.7 6.5 -11.7 6.55 -11.7 6.65 -11.8 L6.8 -11.9 Q6.95 -11.9 6.95 -11.7 L6.9 -11.65 7.0 -11.15 7.3 -10.2 7.25 -9.95 Q7.25 -9.9 7.3 -9.75 7.35 -9.65 7.35 -9.55 7.35 -9.45 7.25 -9.3 L7.2 -9.2 7.05 -9.05 Q6.85 -9.0 6.8 -8.9 L6.8 -8.6 Q6.75 -8.6 6.75 -8.9 6.75 -8.95 6.8 -9.1 6.85 -9.25 6.95 -9.25 L7.0 -9.2 Q7.1 -9.2 7.15 -9.45 L7.2 -9.65 7.15 -9.8 7.15 -10.1 Q7.15 -10.2 7.15 -10.25 L7.2 -10.3 7.2 -10.4 7.0 -10.85 Q6.9 -11.15 6.8 -11.4 L6.8 -11.65 6.7 -11.65 Q6.65 -11.6 6.6 -11.55 L6.5 -11.55 Q6.3 -11.55 6.25 -11.75 6.25 -11.85 6.3 -12.05 M5.9 -12.3 Q6.0 -12.4 6.15 -12.35 6.0 -12.35 5.9 -12.15 L5.9 -12.3 M5.8 -11.95 L5.75 -11.85 5.7 -11.85 Q5.6 -11.85 5.55 -11.6 L5.5 -11.25 5.45 -11.25 5.45 -11.2 Q5.4 -11.25 5.4 -11.35 5.4 -11.5 5.45 -11.7 5.55 -12.0 5.65 -12.0 L5.7 -11.95 5.75 -11.95 5.75 -11.9 5.8 -11.95 M6.45 -11.65 L6.45 -11.65 M7.05 -10.95 L7.05 -10.95 M3.8 -12.45 Q3.9 -12.5 3.95 -12.6 4.05 -12.8 4.15 -12.85 4.3 -12.9 4.35 -12.7 4.4 -12.6 4.4 -12.4 L4.35 -12.2 Q4.35 -12.05 4.35 -11.95 L4.35 -11.65 Q4.35 -11.4 4.45 -11.4 L4.6 -11.4 4.65 -11.3 4.65 -11.25 Q4.65 -10.95 4.55 -10.9 4.45 -10.75 4.35 -10.4 L4.35 -10.35 Q4.3 -10.4 4.3 -10.6 4.3 -10.75 4.4 -10.9 4.5 -11.05 4.5 -11.1 L4.35 -11.3 Q4.2 -11.45 4.2 -11.5 L4.2 -11.65 4.25 -11.85 4.25 -12.2 Q4.2 -12.35 4.05 -12.35 L3.95 -12.3 3.9 -12.2 4.0 -12.05 3.9 -11.95 Q3.75 -11.95 3.7 -12.15 3.6 -12.4 3.5 -12.4 3.35 -12.4 3.3 -12.15 3.25 -12.15 3.25 -12.2 L3.35 -12.4 Q3.45 -12.55 3.55 -12.55 3.65 -12.55 3.7 -12.5 3.7 -12.45 3.7 -12.4 L3.8 -12.45 M4.25 -11.5 L4.25 -11.5 M5.45 -10.3 Q5.55 -10.25 5.55 -10.2 L5.6 -9.8 5.65 -9.55 5.65 -9.35 Q5.6 -9.4 5.6 -9.55 L5.55 -9.75 Q5.5 -9.75 5.45 -9.95 L5.4 -10.15 5.4 -10.25 Q5.3 -10.25 5.2 -10.0 5.1 -9.75 4.95 -9.75 4.9 -9.75 4.85 -9.8 L4.8 -9.9 Q4.7 -9.9 4.65 -9.65 4.65 -9.5 4.65 -9.35 L4.6 -9.35 4.55 -9.6 4.6 -9.8 4.65 -9.95 Q4.65 -10.05 4.8 -10.05 L4.95 -10.05 5.0 -10.0 5.1 -10.0 5.15 -10.1 5.2 -10.15 5.2 -10.25 Q5.25 -10.3 5.4 -10.3 5.45 -10.4 5.45 -10.3 M4.0 -9.6 L4.0 -9.65 4.1 -9.65 Q4.15 -9.5 4.15 -9.35 4.15 -9.25 4.1 -9.1 4.05 -8.95 4.0 -8.95 L3.8 -9.05 Q3.75 -9.05 3.75 -8.95 L3.75 -8.6 3.7 -8.6 3.65 -8.75 3.65 -8.85 Q3.65 -9.2 3.75 -9.2 3.85 -9.2 3.9 -9.1 L3.95 -9.05 Q4.0 -9.05 4.1 -9.4 4.1 -9.55 4.0 -9.6 M4.2 -8.1 L4.35 -8.05 4.45 -8.05 Q4.5 -8.05 4.5 -7.85 L4.45 -7.6 4.35 -7.45 Q4.35 -7.4 4.5 -7.1 4.6 -6.8 4.6 -6.7 4.6 -6.6 4.6 -6.5 L4.45 -6.25 Q4.45 -6.2 4.45 -6.05 4.45 -5.95 4.4 -5.9 4.35 -5.95 4.35 -6.25 4.3 -6.55 4.15 -6.55 4.1 -6.55 4.05 -6.45 4.0 -6.4 3.95 -6.4 3.85 -6.4 3.8 -6.5 3.8 -6.6 3.8 -6.65 3.8 -6.75 3.9 -6.95 4.0 -7.15 4.0 -7.35 4.0 -7.5 3.6 -7.6 3.2 -7.75 3.2 -8.15 L3.25 -8.45 3.2 -8.7 3.15 -9.0 Q3.05 -9.3 2.95 -9.3 L2.8 -9.3 2.7 -9.05 Q2.65 -8.9 2.55 -8.9 L2.45 -8.95 2.35 -8.95 Q2.25 -8.95 2.15 -8.8 2.05 -8.6 2.0 -8.6 L2.0 -8.55 1.8 -8.6 1.65 -8.6 Q1.55 -8.55 1.55 -8.45 L1.5 -8.25 1.45 -8.25 1.45 -8.35 Q1.45 -8.45 1.5 -8.65 1.55 -8.85 1.65 -8.85 L1.95 -8.75 Q2.05 -8.8 2.1 -8.9 2.2 -9.0 2.25 -9.2 2.35 -9.35 2.55 -9.5 2.75 -9.65 2.8 -9.7 2.9 -9.85 3.05 -9.75 3.2 -9.8 3.2 -9.55 L3.25 -9.45 Q3.25 -9.35 3.25 -9.3 L3.3 -9.25 Q3.3 -9.15 3.4 -9.1 3.5 -9.05 3.5 -8.9 3.5 -8.75 3.45 -8.55 3.4 -8.35 3.4 -8.25 3.4 -8.15 3.5 -8.05 3.55 -8.0 3.6 -7.95 L3.7 -7.95 Q3.85 -7.95 3.95 -8.1 4.0 -8.2 4.1 -8.2 4.15 -8.2 4.2 -8.15 L4.2 -8.1 M5.45 -8.5 L5.45 -8.55 5.5 -8.55 5.55 -8.4 5.5 -8.3 5.45 -8.3 Q5.45 -8.45 5.45 -8.5 M5.4 -7.75 L5.45 -7.7 Q5.55 -7.7 5.6 -7.95 L5.65 -8.15 5.65 -8.3 Q5.7 -8.35 5.8 -8.35 L5.8 -8.5 Q5.8 -8.65 5.7 -8.85 5.55 -9.1 5.55 -9.2 L5.55 -9.25 Q5.65 -9.3 5.65 -9.1 L5.7 -8.9 Q5.75 -8.8 5.8 -8.85 5.85 -8.9 5.85 -8.8 L5.85 -8.7 5.9 -8.45 Q5.9 -8.3 5.8 -8.25 5.7 -8.2 5.7 -8.15 L5.7 -8.1 5.75 -8.0 Q5.75 -7.95 5.65 -7.8 L5.5 -7.65 5.4 -7.65 5.4 -7.7 Q5.35 -7.75 5.4 -7.75 M7.25 -10.3 L7.25 -10.3 M6.8 -8.9 L6.8 -8.9 M7.25 -9.65 L7.25 -9.65 M7.0 -9.15 L7.0 -9.15 M5.85 -10.35 L5.85 -10.5 5.9 -10.45 Q5.95 -10.4 5.95 -10.35 L5.95 -10.3 5.85 -10.35 M7.05 -8.15 Q7.15 -8.15 7.3 -7.9 L7.35 -7.75 7.4 -7.8 7.4 -7.6 Q7.4 -7.35 7.25 -7.2 7.1 -7.05 7.1 -6.9 7.1 -6.65 6.95 -6.45 L6.6 -6.1 6.6 -6.15 Q6.6 -6.35 6.75 -6.45 6.95 -6.55 7.0 -6.75 7.05 -6.85 7.0 -7.05 L7.0 -7.15 7.05 -7.2 Q7.1 -7.3 7.2 -7.4 L7.25 -7.45 7.3 -7.6 7.2 -7.85 Q7.15 -8.05 7.1 -8.05 6.95 -7.85 6.85 -7.85 6.65 -7.85 6.65 -8.1 6.65 -8.15 6.65 -8.2 6.65 -8.15 6.7 -8.05 6.75 -7.95 6.8 -7.95 6.9 -7.95 6.95 -8.05 7.0 -8.15 7.05 -8.15 M6.55 -7.25 L6.55 -7.1 6.5 -7.1 6.5 -7.2 6.55 -7.25 M7.25 -7.2 L7.25 -7.2 M2.6 -11.9 Q2.6 -12.15 2.8 -12.2 L3.05 -12.15 3.1 -12.15 2.85 -12.05 Q2.75 -12.0 2.75 -11.9 2.75 -11.8 2.7 -11.7 2.7 -11.6 2.7 -11.5 L2.65 -11.5 Q2.6 -11.5 2.6 -11.6 L2.65 -11.7 2.65 -11.8 2.6 -11.9 M0.9 -8.95 L0.95 -9.05 0.95 -9.1 1.35 -9.1 1.45 -9.15 Q1.45 -9.35 1.65 -9.3 L1.8 -9.4 1.85 -9.4 Q1.95 -9.55 2.0 -9.5 L2.05 -9.3 2.05 -9.1 2.0 -9.0 1.95 -9.15 1.8 -9.15 Q1.55 -8.95 1.45 -8.6 L1.3 -8.6 1.2 -8.45 1.2 -8.4 1.15 -8.4 1.2 -8.35 Q1.2 -8.15 1.05 -8.05 L0.9 -7.95 0.8 -7.7 0.7 -7.4 0.55 -7.15 0.6 -7.05 0.55 -6.95 0.45 -7.05 Q0.4 -7.1 0.4 -7.2 L0.55 -7.5 0.5 -7.85 0.45 -7.9 0.4 -8.05 Q0.4 -8.15 0.5 -8.3 L0.6 -8.55 Q0.65 -8.65 0.8 -8.8 L0.9 -8.85 0.95 -8.9 0.9 -8.95 M2.9 -9.7 L2.9 -9.7 M3.2 -9.45 L3.2 -9.45 M3.2 -8.9 L3.2 -8.9 M2.0 -9.25 L2.0 -9.25 M2.15 -8.9 L2.1 -8.9 2.1 -8.8 2.15 -8.85 2.15 -8.9 M2.45 -9.1 L2.4 -9.05 2.45 -9.05 2.45 -9.1 M2.3 -9.15 L2.3 -9.15 M2.4 -8.4 L2.1 -8.25 2.1 -8.3 Q2.2 -8.6 2.3 -8.65 2.4 -8.7 2.75 -8.65 2.9 -8.65 2.95 -8.45 L3.0 -8.2 3.0 -7.85 2.95 -7.85 Q2.95 -7.9 2.95 -8.1 2.9 -8.3 2.7 -8.3 L2.6 -8.3 2.55 -8.25 2.4 -8.4 M2.5 -7.55 L2.55 -7.55 2.55 -7.5 2.6 -7.4 2.6 -7.35 2.3 -7.45 Q2.35 -7.6 2.45 -7.55 L2.5 -7.55 M3.65 -7.7 L3.65 -7.7 M3.05 -5.8 L3.0 -5.8 3.0 -5.85 Q3.0 -6.0 3.15 -5.9 3.3 -5.75 3.3 -5.65 3.3 -5.35 3.2 -5.3 3.25 -5.4 3.2 -5.55 3.15 -5.75 3.05 -5.8 M3.35 -4.85 Q3.45 -4.85 3.45 -4.7 L3.4 -4.5 Q3.35 -4.55 3.35 -4.8 L3.35 -4.85 M3.45 -3.55 L3.45 -3.45 3.25 -3.45 3.25 -3.5 Q3.25 -3.65 3.35 -3.7 3.45 -3.8 3.45 -3.55 M0.1 -0.8 L0.1 -0.75 0.0 -0.75 -0.05 -0.8 Q-0.05 -0.9 0.05 -0.8 L0.1 -0.8 M3.2 -3.3 L3.15 -3.25 3.15 -3.3 Q3.15 -3.4 3.2 -3.4 L3.2 -3.3 M6.75 -6.35 L6.75 -6.35 M5.55 -5.9 L5.5 -5.8 Q5.45 -5.55 5.25 -5.55 L5.15 -5.6 Q5.05 -5.6 5.0 -5.4 L5.0 -5.25 Q4.95 -5.25 4.95 -5.3 4.95 -5.4 5.0 -5.55 5.05 -5.75 5.15 -5.75 L5.25 -5.7 5.25 -5.65 Q5.35 -5.65 5.4 -5.8 L5.5 -6.2 5.55 -6.3 Q5.75 -6.35 5.8 -5.95 5.8 -5.8 5.75 -5.75 5.7 -5.65 5.7 -5.55 L5.7 -5.4 5.65 -5.4 5.65 -5.6 5.7 -5.95 5.7 -6.0 5.6 -6.1 5.55 -5.9 M6.15 -4.85 Q6.15 -4.65 6.05 -4.55 5.9 -4.45 5.9 -4.35 L5.8 -4.1 Q5.75 -3.9 5.65 -3.9 5.55 -3.9 5.5 -4.0 L5.4 -4.15 Q5.35 -4.15 5.35 -4.0 L5.3 -3.8 5.3 -4.1 Q5.35 -4.3 5.45 -4.3 5.55 -4.3 5.6 -4.1 L5.7 -4.15 5.75 -4.25 5.75 -4.5 Q5.8 -4.6 5.95 -4.7 6.0 -4.75 6.0 -4.85 L6.0 -4.95 5.85 -4.95 5.85 -5.1 5.9 -5.1 6.1 -5.05 Q6.15 -5.0 6.15 -4.85 M5.8 -4.15 L5.8 -4.15 M5.4 -5.7 L5.4 -5.7 M-7.35 -5.25 L-7.25 -5.3 -7.25 -5.35 -7.15 -5.35 Q-7.1 -5.35 -7.05 -5.25 L-7.05 -5.2 -7.1 -5.1 -7.1 -5.05 -7.15 -4.85 -7.2 -4.8 -7.2 -5.05 -7.15 -5.15 -7.15 -5.2 -7.2 -5.25 -7.3 -5.15 Q-7.3 -5.1 -7.45 -5.2 L-7.5 -5.1 -7.55 -5.15 -7.5 -5.2 -7.5 -5.25 -7.45 -5.3 Q-7.4 -5.3 -7.35 -5.25 M-7.4 -5.25 L-7.4 -5.25 M-7.8 -4.85 L-7.85 -4.75 -7.95 -4.7 -7.9 -4.65 -7.9 -4.3 Q-7.9 -4.2 -7.85 -4.15 L-7.8 -4.05 -7.85 -4.0 -8.0 -4.15 Q-8.0 -4.2 -8.0 -4.3 L-8.0 -4.4 -7.95 -4.5 -8.0 -4.55 -8.0 -4.65 Q-8.0 -4.9 -7.8 -4.9 L-7.85 -4.85 -7.8 -4.85 M-8.0 -4.35 L-8.0 -4.35 M-4.9 -4.7 L-4.9 -4.65 -4.95 -4.6 -5.05 -4.55 -5.1 -4.55 -5.1 -4.6 Q-5.1 -4.65 -5.0 -4.7 L-4.9 -4.7 M-4.6 -4.85 L-4.55 -4.95 -4.35 -4.95 -4.3 -4.85 -4.25 -4.85 -4.2 -4.8 -4.15 -4.8 Q-4.0 -4.8 -3.95 -4.7 L-3.85 -4.5 Q-3.8 -4.35 -3.8 -4.25 L-3.8 -4.05 -3.85 -3.85 Q-3.9 -3.65 -3.9 -3.6 -3.9 -3.55 -3.95 -3.55 -4.1 -3.3 -4.25 -3.2 L-4.25 -2.95 -4.3 -2.95 Q-4.35 -2.95 -4.4 -3.15 L-4.4 -3.35 Q-4.4 -3.45 -4.35 -3.55 -4.25 -3.65 -4.2 -3.65 L-4.0 -3.85 -3.95 -4.0 Q-3.9 -4.15 -3.9 -4.3 -3.9 -4.4 -4.0 -4.5 -4.1 -4.6 -4.25 -4.6 L-4.35 -4.75 Q-4.4 -4.9 -4.45 -4.9 L-4.55 -4.8 -4.6 -4.8 -4.6 -4.85 M-5.05 -4.5 L-5.1 -4.45 -5.1 -4.55 -5.05 -4.5 M-5.95 -2.55 Q-5.95 -2.6 -5.95 -2.65 -5.85 -2.65 -5.8 -2.55 L-5.9 -2.45 -5.95 -2.3 -5.9 -2.25 -5.85 -2.15 -5.8 -2.1 -5.85 -2.1 Q-5.95 -2.1 -6.0 -2.2 L-6.0 -2.4 -5.95 -2.55 M-6.0 -2.3 L-6.0 -2.3 M-4.4 -2.55 L-4.2 -2.5 -4.05 -2.6 -4.0 -2.65 Q-3.9 -2.7 -3.7 -2.45 L-3.55 -2.2 Q-3.55 -2.15 -3.55 -2.05 L-3.55 -1.65 Q-3.55 -1.35 -3.4 -1.45 L-3.35 -1.4 -3.4 -1.3 Q-3.45 -1.25 -3.5 -1.25 -3.65 -1.25 -3.7 -1.4 L-3.7 -2.05 Q-3.75 -2.15 -3.8 -2.15 -3.85 -2.15 -3.9 -2.1 L-3.9 -2.0 Q-3.9 -1.95 -3.85 -1.85 -3.8 -1.75 -3.8 -1.7 L-3.8 -1.55 -3.85 -1.45 Q-3.9 -1.45 -4.0 -1.6 -4.15 -1.7 -4.2 -1.7 L-4.4 -1.55 Q-4.4 -1.5 -4.1 -1.05 L-4.0 -1.05 -3.95 -1.15 -3.8 -1.15 -3.7 -1.05 -3.65 -0.95 -3.65 -0.9 -3.75 -0.95 -3.8 -1.0 Q-3.9 -1.0 -3.9 -0.8 -3.9 -0.55 -4.0 -0.55 -4.25 -0.55 -4.3 -0.75 L-4.4 -1.05 Q-4.65 -1.35 -5.3 -1.5 -5.4 -1.55 -5.4 -1.65 L-5.4 -2.05 Q-5.35 -2.2 -5.2 -2.2 L-5.15 -2.2 Q-5.05 -2.2 -4.95 -2.1 L-4.9 -2.0 -4.75 -2.0 Q-4.75 -2.05 -4.6 -2.1 -4.45 -2.15 -4.45 -2.2 -4.4 -2.25 -4.45 -2.45 -4.45 -2.55 -4.4 -2.55 M-1.4 -6.75 L-1.4 -6.8 -1.35 -6.85 -1.25 -6.85 Q-1.3 -6.8 -1.4 -6.75 M-1.45 -6.5 L-1.7 -6.3 -1.6 -6.45 Q-1.55 -6.55 -1.45 -6.5 M-2.05 -5.1 L-2.0 -5.05 -2.0 -4.85 Q-2.05 -4.85 -2.05 -4.95 -2.05 -5.05 -2.05 -5.1 M-1.85 -0.8 L-1.85 -0.75 Q-1.95 -0.75 -1.95 -0.8 L-1.95 -0.85 -1.85 -0.8" fill="#443059" fill-rule="evenodd" stroke="none"/>
  </g>
</svg>
