<?xml version="1.0" encoding="UTF-8" standalone="no"?>
<svg xmlns:ffdec="https://www.free-decompiler.com/flash" xmlns:xlink="http://www.w3.org/1999/xlink" ffdec:objectType="shape" height="13.65px" width="21.35px" xmlns="http://www.w3.org/2000/svg">
  <g transform="matrix(1.0, 0.0, 0.0, 1.0, 2.6, 3.55)">
    <path d="M-0.85 1.2 L-0.8 1.2 -0.8 1.15 -0.85 1.2 M17.3 3.85 L17.75 4.75 17.7 4.7 Q17.4 4.4 17.05 4.1 L17.05 4.05 Q16.3 3.4 15.35 2.95 14.6 2.4 13.6 2.0 12.1 1.4 10.95 0.65 L11.3 0.9 11.15 0.75 Q12.45 1.5 14.05 1.95 L13.85 1.85 14.15 1.95 Q15.9 2.65 17.15 3.6 L17.3 3.85 M4.4 -3.2 Q4.4 -3.25 4.45 -3.25 5.7 -3.25 6.85 -2.6 7.45 -2.25 7.95 -1.9 L8.0 -1.85 Q8.15 -1.45 8.45 -1.05 8.8 -0.65 9.2 -0.3 9.4 -0.05 9.7 0.15 9.85 0.3 10.05 0.4 10.95 1.15 12.2 1.6 13.7 2.35 15.15 3.05 L15.6 3.4 Q14.5 3.85 14.55 4.7 14.55 4.8 14.55 4.9 14.55 5.5 14.9 6.0 14.55 5.85 14.2 5.65 13.7 5.4 13.05 5.15 10.6 4.25 10.5 2.45 L10.5 2.65 Q10.4 3.0 10.45 3.35 10.9 5.05 13.45 5.75 14.25 5.95 14.9 6.3 15.2 6.45 15.45 6.65 15.25 6.95 15.0 7.25 14.85 7.4 14.55 7.4 13.7 7.4 13.2 7.6 12.45 7.7 12.0 8.1 L11.1 8.2 11.15 8.15 11.1 8.15 Q10.6 8.05 10.3 7.8 10.15 7.6 10.15 7.35 10.1 6.6 9.8 5.95 9.8 5.85 9.75 5.8 9.7 5.45 9.45 5.05 8.95 4.3 8.0 3.75 8.4 4.25 8.75 4.8 L9.2 5.45 Q9.1 5.45 8.95 5.45 8.45 5.45 8.1 5.7 7.9 5.85 7.8 6.0 7.65 5.65 7.3 5.35 7.2 5.15 7.0 5.0 6.25 4.15 6.05 3.25 L6.0 3.35 6.0 3.1 Q5.9 3.4 5.95 3.7 5.9 4.05 6.2 4.45 6.7 5.05 7.25 5.65 L7.35 5.8 Q7.6 6.05 7.6 6.3 7.55 6.3 7.5 6.35 7.4 6.55 7.1 6.75 L6.15 7.25 5.75 7.4 Q5.3 7.55 5.1 7.85 4.75 8.0 4.3 8.1 3.95 8.2 3.65 8.15 2.1 8.05 1.45 7.35 L1.4 7.2 Q1.45 6.8 1.4 6.35 L1.4 6.2 1.3 5.6 Q1.2 4.65 0.55 3.8 0.55 4.45 0.75 5.1 L0.85 5.55 Q0.8 5.55 0.7 5.55 L0.5 5.55 Q0.35 5.6 0.25 5.65 0.15 5.7 0.1 5.75 0.0 5.8 0.0 5.85 -0.15 5.55 -0.4 5.2 -1.65 3.6 -1.3 1.9 -1.5 2.25 -1.6 2.6 L-1.6 2.55 Q-1.65 2.75 -1.65 3.0 L-1.65 3.15 -1.6 3.6 Q-1.55 3.85 -1.4 4.1 -1.05 4.95 -0.5 5.75 -0.3 6.25 -0.25 6.75 L-0.3 6.85 -0.4 7.15 Q-1.4 7.75 -1.7 8.55 -1.6 7.85 -1.75 7.1 -1.9 6.2 -2.05 5.35 -2.2 4.45 -2.3 3.6 L-2.25 3.25 -2.25 3.35 Q-2.05 1.65 -1.25 0.05 -1.1 -0.35 -0.8 -0.7 -0.45 -1.1 0.0 -1.45 1.1 -2.4 2.65 -2.95 3.05 -3.05 3.5 -3.1 4.0 -3.15 4.35 -3.25 L4.4 -3.2" fill="#262626" fill-rule="evenodd" stroke="none"/>
    <path d="M17.95 5.15 L15.35 3.15 12.1 1.35 Q12.1 1.3 12.0 1.2 11.9 1.15 12.0 1.1 L13.75 1.75 Q15.3 2.25 16.4 3.1 L16.75 3.35 Q17.75 4.1 17.9 5.0 L17.95 5.15 M11.25 6.3 Q11.65 6.9 12.55 7.3 12.8 7.4 13.1 7.3 13.5 7.2 13.6 7.0 L13.65 6.75 Q13.6 6.6 13.35 6.4 13.15 6.15 13.1 5.95 13.0 5.9 12.9 5.85 L12.95 5.85 12.95 5.8 13.85 5.8 14.4 6.0 Q15.3 6.25 15.35 6.95 L15.15 7.3 11.35 8.45 11.1 8.25 Q11.05 8.2 11.05 8.15 10.85 7.95 10.8 7.6 10.8 6.85 10.9 6.1 10.9 5.95 11.0 5.9 11.15 6.0 11.2 6.2 11.25 6.25 11.25 6.3 M13.35 6.0 L13.35 6.0 M3.8 5.75 L3.85 5.75 Q3.95 6.25 4.35 6.75 4.7 7.05 5.45 7.15 5.85 6.75 5.8 6.25 L5.75 6.0 5.6 5.8 Q5.45 5.5 5.5 5.3 L5.4 5.3 Q5.35 5.25 5.4 5.2 5.4 5.15 5.45 5.15 5.45 5.1 5.6 5.05 L5.65 5.0 5.8 5.05 6.1 5.05 Q6.65 5.05 7.1 5.3 L7.4 5.7 Q7.25 5.65 7.1 5.6 7.35 5.8 7.45 6.05 7.95 6.6 7.2 7.05 L5.75 7.45 Q5.65 7.65 5.25 7.65 4.7 8.25 3.9 8.2 3.6 8.25 3.2 8.15 L3.1 8.2 Q2.85 7.5 2.95 6.65 L2.95 6.45 Q3.05 5.8 3.7 5.35 3.75 5.55 3.8 5.75 M-0.85 5.45 Q-0.9 5.2 -0.9 5.0 -0.45 5.65 -0.3 6.4 -0.2 6.95 -0.5 7.4 L-0.65 7.45 Q-0.65 6.75 -0.75 6.1 -0.85 5.75 -0.85 5.45" fill="#363636" fill-rule="evenodd" stroke="none"/>
    <path d="M4.35 -3.25 Q4.0 -3.15 3.5 -3.1 3.05 -3.05 2.65 -2.95 1.1 -2.4 0.0 -1.45 -0.45 -1.1 -0.8 -0.7 -1.1 -0.35 -1.25 0.05 -2.05 1.65 -2.25 3.35 L-2.25 3.25 -2.3 3.6 Q-2.2 4.45 -2.05 5.35 -1.9 6.2 -1.75 7.1 -1.6 7.85 -1.7 8.55 -1.4 7.75 -0.4 7.15 L-0.3 6.85 -0.25 6.75 Q-0.3 6.25 -0.5 5.75 -1.05 4.95 -1.4 4.1 -1.55 3.85 -1.6 3.6 L-1.65 3.15 -1.65 3.0 Q-1.65 2.75 -1.6 2.55 L-1.6 2.6 Q-1.5 2.25 -1.3 1.9 -1.65 3.6 -0.4 5.2 -0.15 5.55 0.0 5.85 0.0 5.8 0.1 5.75 0.15 5.7 0.25 5.65 0.35 5.6 0.5 5.55 L0.7 5.55 Q0.8 5.55 0.85 5.55 L0.75 5.1 Q0.55 4.45 0.55 3.8 1.2 4.65 1.3 5.6 L1.4 6.2 1.4 6.35 Q1.45 6.8 1.4 7.2 L1.45 7.35 Q2.1 8.05 3.65 8.15 3.95 8.2 4.3 8.1 4.75 8.0 5.1 7.85 5.3 7.55 5.75 7.4 L6.15 7.25 7.1 6.75 Q7.4 6.55 7.5 6.35 7.55 6.3 7.6 6.3 7.6 6.05 7.35 5.8 L7.25 5.65 Q6.7 5.05 6.2 4.45 5.9 4.05 5.95 3.7 5.9 3.4 6.0 3.1 L6.0 3.35 6.05 3.25 Q6.25 4.15 7.0 5.0 7.2 5.15 7.3 5.35 7.65 5.65 7.8 6.0 7.9 5.85 8.1 5.7 8.45 5.45 8.95 5.45 9.1 5.45 9.2 5.45 L8.75 4.8 Q8.4 4.25 8.0 3.75 8.95 4.3 9.45 5.05 9.7 5.45 9.75 5.8 9.8 5.85 9.8 5.95 10.1 6.6 10.15 7.35 10.15 7.6 10.3 7.8 10.6 8.05 11.1 8.15 L11.25 8.15 12.05 8.05 Q12.5 7.7 13.2 7.6 13.7 7.4 14.55 7.4 14.85 7.4 15.0 7.25 15.25 6.95 15.45 6.65 15.2 6.45 14.9 6.3 14.25 5.95 13.45 5.75 10.9 5.05 10.45 3.35 10.4 3.0 10.5 2.65 L10.5 2.45 Q10.6 4.25 13.05 5.15 13.7 5.4 14.2 5.65 14.55 5.85 14.9 6.0 14.55 5.5 14.55 4.9 14.55 4.8 14.55 4.7 14.5 3.85 15.6 3.4 L15.15 3.05 Q13.7 2.35 12.2 1.6 10.95 1.15 10.05 0.4 9.85 0.3 9.7 0.15 9.4 -0.05 9.2 -0.3 8.8 -0.65 8.45 -1.05 8.15 -1.45 8.0 -1.85 L7.95 -1.9 Q7.45 -2.25 6.85 -2.6 5.7 -3.25 4.45 -3.25 4.4 -3.25 4.4 -3.2 L4.35 -3.25 M3.5 -3.45 L3.6 -3.4 4.0 -3.45 4.25 -3.45 Q4.5 -3.5 4.65 -3.55 5.9 -3.45 6.9 -2.95 7.35 -2.7 7.7 -2.45 L7.85 -2.35 7.85 -2.4 7.9 -2.3 Q8.4 -1.9 8.75 -1.5 9.0 -1.25 9.2 -1.0 10.15 -0.1 11.45 0.6 L11.5 0.6 11.55 0.65 Q13.55 1.5 15.6 2.3 16.95 2.85 17.5 3.75 17.75 4.1 17.95 4.45 L18.25 4.85 Q18.55 5.35 18.6 5.85 18.75 6.05 18.75 6.25 L18.65 6.2 18.7 6.3 18.55 6.1 18.5 6.05 18.5 6.1 Q18.1 5.65 17.6 5.15 17.45 5.0 17.35 4.85 L16.9 4.45 16.6 4.15 16.35 3.95 Q15.15 3.7 14.95 4.45 14.9 4.5 14.9 4.6 L14.85 5.6 Q14.9 5.8 14.9 6.05 15.2 6.2 15.45 6.4 15.75 6.6 15.75 6.85 L15.6 6.75 15.65 6.75 15.65 6.8 Q15.75 7.55 14.65 7.8 L14.4 7.9 Q14.2 8.0 13.95 7.95 L13.9 7.95 13.2 8.05 13.1 8.05 Q12.85 8.15 12.55 8.2 L12.3 8.4 Q12.05 8.5 11.85 8.5 L11.85 8.55 11.65 8.55 Q9.95 8.55 9.8 7.4 9.75 6.8 9.55 6.15 9.45 6.1 9.4 6.0 9.4 5.9 9.3 5.85 8.9 5.75 8.55 5.85 8.45 5.85 8.4 5.9 L8.35 5.9 8.15 6.0 8.1 6.0 Q8.0 6.15 7.9 6.2 8.0 6.45 7.9 6.7 7.8 6.9 7.55 7.1 7.2 7.4 6.8 7.45 6.5 7.55 6.1 7.55 5.9 7.6 5.75 7.6 5.3 8.4 4.0 8.4 3.2 8.6 2.25 8.2 1.7 8.0 1.55 7.7 L1.5 7.7 Q1.45 7.6 1.35 7.55 L1.35 7.55 1.3 7.45 Q0.95 7.05 1.0 6.45 L1.0 6.2 0.9 6.45 0.95 5.9 0.9 5.8 0.6 5.9 0.4 6.0 Q0.2 6.05 0.05 6.05 0.1 6.35 0.05 6.65 0.1 6.9 -0.05 7.15 -0.1 7.25 -0.15 7.35 L-0.2 7.4 -0.25 7.4 -0.2 7.5 -0.5 7.65 Q-1.1 7.95 -1.35 8.4 L-1.75 9.05 Q-1.8 9.25 -1.85 9.5 L-1.85 9.35 Q-1.9 9.5 -1.95 9.65 -2.0 9.85 -2.1 10.1 -2.2 9.85 -2.1 9.5 -2.1 7.45 -2.35 5.4 L-2.45 4.7 -2.5 4.45 Q-2.6 3.95 -2.6 3.45 -2.65 2.3 -2.15 1.1 -1.95 0.3 -1.4 -0.5 0.0 -2.7 3.45 -3.45 L3.5 -3.45 M17.15 3.6 Q15.9 2.65 14.15 1.95 L13.85 1.85 14.05 1.95 Q12.45 1.5 11.15 0.75 L11.3 0.9 10.95 0.65 Q12.1 1.4 13.6 2.0 14.6 2.4 15.35 2.95 16.3 3.4 17.05 4.05 L17.05 4.1 Q17.4 4.4 17.7 4.7 L17.75 4.75 17.3 3.85 17.15 3.6 M-0.8 1.2 L-0.85 1.2 -0.8 1.15 -0.8 1.2" fill="#111111" fill-rule="evenodd" stroke="none"/>
  </g>
</svg>
