<?xml version="1.0" encoding="UTF-8" standalone="no"?>
<svg xmlns:ffdec="https://www.free-decompiler.com/flash" xmlns:xlink="http://www.w3.org/1999/xlink" ffdec:objectType="shape" height="13.55px" width="20.9px" xmlns="http://www.w3.org/2000/svg">
  <g transform="matrix(1.0, 0.0, 0.0, 1.0, 2.8, 3.65)">
    <path d="M3.3 -3.2 Q3.75 -3.25 3.9 -3.35 5.05 -3.35 6.15 -2.95 7.35 -2.55 8.35 -2.0 L8.55 -1.7 Q9.8 0.2 11.15 2.0 11.7 2.75 12.8 3.0 13.5 3.3 14.4 3.45 L14.5 3.5 14.45 3.5 Q14.4 3.5 14.35 3.55 13.35 4.1 13.7 4.95 13.75 5.1 13.8 5.2 L13.75 5.25 Q13.5 5.2 13.25 5.15 12.05 5.0 11.35 4.55 L11.3 4.5 Q10.65 3.9 10.4 3.2 10.35 3.2 10.35 3.25 L10.35 3.3 Q10.3 3.3 10.35 3.35 L10.35 3.4 Q10.35 3.55 10.4 3.75 10.5 4.15 10.8 4.55 11.3 5.15 12.15 5.2 12.75 5.35 13.4 5.45 13.65 5.5 13.9 5.55 14.05 5.65 14.25 5.65 14.5 5.7 14.75 5.8 15.2 6.0 15.65 6.25 15.4 6.45 15.1 6.6 L15.05 6.65 Q14.8 6.7 14.6 6.8 14.0 7.0 13.45 7.05 12.9 7.0 12.3 7.15 11.9 7.3 11.6 7.3 11.25 7.25 10.95 7.15 10.5 7.0 10.05 6.75 L9.9 6.3 Q9.65 5.75 9.3 5.2 L9.25 5.25 9.0 4.75 9.0 4.8 Q8.9 4.7 8.75 4.55 8.85 4.8 9.0 5.15 9.0 5.4 9.1 5.7 9.3 6.1 9.5 6.45 L9.2 6.25 Q9.05 6.3 9.1 6.35 8.55 6.15 7.85 6.1 7.75 6.1 7.6 6.15 7.35 6.2 7.25 6.35 7.25 5.8 6.85 5.25 6.6 4.95 6.4 4.6 6.0 3.75 6.05 2.8 5.6 3.65 6.1 4.5 6.75 5.65 7.15 6.75 6.95 6.85 6.7 6.9 6.45 6.85 6.15 6.9 L5.9 6.95 Q5.6 7.05 5.35 7.15 5.2 7.25 5.2 7.35 4.55 7.65 3.7 7.65 3.2 7.65 2.8 7.55 L2.45 7.45 Q1.7 7.25 1.3 6.85 1.2 6.6 1.2 6.35 1.25 6.1 1.2 5.8 1.2 5.75 1.2 5.7 L1.15 5.6 Q0.95 4.65 0.45 3.75 0.5 4.35 0.7 5.05 L0.7 5.2 0.75 5.55 0.65 5.55 Q0.4 5.55 0.3 5.65 0.15 5.2 -0.2 4.75 -0.4 4.5 -0.55 4.3 -1.1 3.35 -1.25 2.3 -1.25 2.1 -1.25 1.8 -1.35 2.0 -1.4 2.2 -1.65 3.0 -1.1 3.85 -0.3 5.1 0.15 6.35 L-0.35 7.15 Q-0.75 7.8 -1.3 8.45 -1.4 8.5 -1.5 8.55 -1.2 6.95 -1.85 5.25 -2.1 4.6 -2.2 3.9 -2.4 2.45 -2.0 1.05 -1.75 0.35 -1.35 -0.3 -0.95 -0.75 -0.55 -1.2 L-0.35 -1.4 Q0.0 -1.7 0.45 -2.05 1.6 -2.8 3.3 -3.2" fill="#262626" fill-rule="evenodd" stroke="none"/>
    <path d="M12.45 5.5 Q12.95 5.65 13.5 5.6 14.5 5.6 15.25 6.0 L15.3 6.0 15.3 6.05 Q15.5 6.2 15.6 6.3 L15.35 6.25 Q15.3 6.65 14.35 6.9 12.95 7.25 11.5 7.2 11.6 7.35 11.55 7.5 10.95 7.25 10.7 6.7 10.4 6.0 9.85 5.4 9.3 4.85 9.5 4.3 10.8 5.05 12.45 5.5 M3.05 3.65 Q3.85 4.25 4.5 5.1 5.2 6.0 6.7 6.3 6.7 6.25 6.8 6.2 6.95 6.25 7.0 6.3 L7.05 6.4 Q7.55 6.95 6.3 7.2 5.2 7.4 4.1 7.65 3.6 7.8 3.45 7.6 3.35 7.7 3.15 7.8 3.4 6.7 2.95 5.6 2.6 4.8 2.75 4.05 2.8 3.8 3.05 3.65 M0.1 7.05 Q-0.25 6.4 -0.55 5.6 -0.75 5.05 -0.7 4.55 -0.15 5.25 0.05 6.0 0.25 6.55 0.1 7.05" fill="#363636" fill-rule="evenodd" stroke="none"/>
    <path d="M3.3 -3.2 Q1.6 -2.8 0.45 -2.05 0.0 -1.7 -0.35 -1.4 L-0.55 -1.2 Q-0.95 -0.75 -1.35 -0.3 -1.75 0.35 -2.0 1.05 -2.4 2.45 -2.2 3.9 -2.1 4.6 -1.85 5.25 -1.2 6.95 -1.5 8.55 -1.4 8.5 -1.3 8.45 -0.75 7.8 -0.35 7.15 L0.15 6.35 Q-0.3 5.1 -1.1 3.85 -1.65 3.0 -1.4 2.2 -1.35 2.0 -1.25 1.8 -1.25 2.1 -1.25 2.3 -1.1 3.35 -0.55 4.3 -0.4 4.5 -0.2 4.75 0.15 5.2 0.3 5.65 0.4 5.55 0.65 5.55 L0.75 5.55 0.7 5.2 0.7 5.05 Q0.5 4.35 0.45 3.75 0.95 4.65 1.15 5.6 L1.2 5.7 Q1.2 5.75 1.2 5.8 1.25 6.1 1.2 6.35 1.2 6.6 1.3 6.85 1.7 7.25 2.45 7.45 L2.8 7.55 Q3.2 7.65 3.7 7.65 4.55 7.65 5.2 7.35 5.2 7.25 5.35 7.15 5.6 7.05 5.9 6.95 L6.15 6.9 Q6.45 6.85 6.7 6.9 6.95 6.85 7.15 6.75 6.75 5.65 6.1 4.5 5.6 3.65 6.05 2.8 6.0 3.75 6.4 4.6 6.6 4.95 6.85 5.25 7.25 5.8 7.25 6.35 7.35 6.2 7.6 6.15 7.75 6.1 7.85 6.1 8.55 6.15 9.1 6.35 9.05 6.3 9.2 6.25 L9.5 6.45 Q9.3 6.1 9.1 5.7 9.0 5.4 9.0 5.15 8.85 4.8 8.75 4.55 8.9 4.7 9.0 4.8 L9.0 4.75 9.25 5.25 9.3 5.2 Q9.65 5.75 9.9 6.3 L10.05 6.75 Q10.5 7.0 10.95 7.15 11.25 7.25 11.6 7.3 11.9 7.3 12.3 7.15 12.9 7.0 13.45 7.05 14.0 7.0 14.6 6.8 14.8 6.7 15.05 6.65 L15.1 6.6 Q15.4 6.45 15.65 6.25 15.2 6.0 14.75 5.8 14.5 5.7 14.25 5.65 14.05 5.65 13.9 5.55 13.65 5.5 13.4 5.45 12.75 5.35 12.15 5.2 11.3 5.15 10.8 4.55 10.5 4.15 10.4 3.75 10.35 3.55 10.35 3.4 L10.35 3.35 Q10.3 3.3 10.35 3.3 L10.35 3.25 Q10.35 3.2 10.4 3.2 10.65 3.9 11.3 4.5 L11.35 4.55 Q12.05 5.0 13.25 5.15 13.5 5.2 13.75 5.25 L13.8 5.2 Q13.75 5.1 13.7 4.95 13.35 4.1 14.35 3.55 14.4 3.5 14.45 3.5 L14.5 3.5 14.4 3.45 Q13.5 3.3 12.8 3.0 11.7 2.75 11.15 2.0 9.8 0.2 8.55 -1.7 L8.35 -2.0 Q7.35 -2.55 6.15 -2.95 5.05 -3.35 3.9 -3.35 3.75 -3.25 3.3 -3.2 M4.15 -3.65 Q5.3 -3.7 6.25 -3.35 6.95 -3.15 7.45 -2.8 L7.45 -2.85 7.55 -2.75 Q7.75 -2.65 7.9 -2.55 L7.8 -2.65 8.3 -2.25 Q9.5 -1.45 10.05 -0.35 L10.1 -0.2 Q10.45 0.3 10.8 0.85 11.0 1.25 11.35 1.65 12.45 2.6 14.3 3.15 14.5 3.2 14.75 3.2 15.1 3.1 15.65 3.15 16.45 3.25 17.1 3.5 17.35 3.6 17.5 3.75 17.8 3.85 18.0 4.1 L18.1 4.2 Q17.7 4.1 17.1 3.85 16.85 3.75 16.65 3.7 L16.6 3.7 Q15.75 3.7 14.85 3.55 14.1 4.0 14.1 4.65 14.45 5.1 14.6 5.45 15.35 5.7 15.65 6.15 L15.55 6.1 15.65 6.2 15.65 6.25 Q15.5 6.8 14.6 7.1 14.2 7.25 13.8 7.25 L13.7 7.25 Q13.0 7.45 12.3 7.45 11.7 7.8 11.0 7.6 10.4 7.55 9.9 7.1 8.95 6.35 7.6 6.5 L7.25 6.55 7.25 6.7 7.35 6.7 Q7.35 6.95 7.1 7.1 L7.1 7.15 7.05 7.1 Q6.85 7.2 6.5 7.25 6.05 7.35 5.8 7.25 L5.7 7.25 Q4.8 8.15 3.2 7.9 2.05 7.95 1.35 7.25 1.15 7.1 1.1 6.9 L1.05 6.85 1.0 6.95 1.0 6.75 Q0.75 6.4 0.75 5.9 L0.75 5.85 Q0.55 5.8 0.35 5.85 0.4 6.1 0.4 6.35 L0.4 6.3 Q0.5 7.15 -0.35 7.9 -0.8 8.3 -1.3 8.7 -1.35 8.8 -1.45 8.9 L-1.65 9.1 Q-1.75 9.5 -1.9 9.9 -1.85 8.65 -1.95 7.25 -1.95 7.0 -1.95 6.75 -2.15 5.65 -2.5 4.55 -3.15 2.55 -2.35 0.65 -2.15 0.1 -1.75 -0.5 L-1.6 -0.7 -1.4 -0.95 Q-0.8 -1.75 0.25 -2.35 1.5 -3.1 3.2 -3.4 3.25 -3.5 3.4 -3.55 3.5 -3.6 3.8 -3.65 L4.15 -3.65" fill="#111111" fill-rule="evenodd" stroke="none"/>
  </g>
</svg>
