<?xml version="1.0" encoding="UTF-8" standalone="no"?>
<svg xmlns:ffdec="https://www.free-decompiler.com/flash" xmlns:xlink="http://www.w3.org/1999/xlink" ffdec:objectType="shape" height="38.9px" width="33.15px" xmlns="http://www.w3.org/2000/svg">
  <g transform="matrix(1.0, 0.0, 0.0, 1.0, -24.85, 23.5)">
    <path d="M39.65 -16.7 L38.8 -16.45 Q38.95 -16.65 39.45 -16.8 L39.35 -16.8 Q39.5 -17.15 40.0 -17.3 40.6 -17.5 40.9 -17.0 L40.2 -16.8 39.85 -16.75 39.65 -16.7 M35.2 -16.4 Q35.15 -16.3 34.7 -16.0 34.2 -15.65 34.0 -15.65 34.2 -15.95 34.55 -16.25 34.95 -16.6 35.15 -16.6 L35.2 -16.6 Q35.25 -16.6 35.2 -16.4 M30.2 -14.2 L30.4 -14.1 Q30.45 -14.1 30.4 -13.85 L30.3 -13.6 30.25 -13.55 30.05 -13.5 29.9 -13.6 Q29.85 -13.7 29.9 -13.9 29.95 -14.1 30.0 -14.2 L30.2 -14.2 M35.5 2.45 L35.45 2.5 Q35.05 2.2 34.65 1.6 L34.15 0.7 Q34.15 0.65 34.2 0.65 L34.25 0.6 Q34.45 0.75 34.65 1.0 L34.4 0.55 34.45 0.55 Q34.85 0.95 35.15 1.45 35.45 1.95 35.65 2.4 L35.6 2.45 35.35 2.0 35.5 2.45 M25.2 6.65 L25.2 6.8 25.25 6.8 25.5 9.5 25.35 9.7 25.25 9.8 Q25.2 9.7 25.1 9.15 L25.1 9.6 25.0 9.6 Q24.95 9.25 25.0 8.75 L25.0 8.7 Q24.8 7.65 24.9 7.4 L25.0 6.95 25.1 6.8 25.1 6.65 25.2 6.65 M32.9 12.9 L33.2 13.5 33.15 13.25 Q33.4 13.4 33.65 14.1 L34.0 15.3 33.85 15.15 33.95 15.4 33.75 15.2 33.75 15.25 33.65 15.05 Q33.15 14.45 32.7 13.0 L32.9 12.9" fill="#ffffff" fill-rule="evenodd" stroke="none"/>
    <path d="M45.95 -16.3 Q45.9 -16.3 46.0 -16.55 46.05 -16.85 46.3 -16.85 L46.7 -16.75 46.85 -16.55 46.7 -16.4 46.45 -16.25 46.05 -16.35 45.95 -16.3 M27.55 -23.45 L27.25 -21.1 27.2 -20.95 27.15 -20.85 27.05 -20.85 Q27.15 -22.25 27.2 -22.55 L27.45 -23.5 27.55 -23.45 M27.05 -19.65 L26.95 -18.9 26.9 -18.35 26.75 -17.75 26.7 -17.75 26.7 -18.3 26.75 -18.85 26.95 -19.65 27.05 -19.65 M26.5 -15.35 Q26.45 -15.1 26.45 -14.95 L26.35 -14.95 26.35 -15.45 26.4 -15.6 26.45 -15.7 26.5 -15.7 26.5 -15.35 M55.95 -17.4 Q57.6 -18.15 58.0 -18.1 57.7 -17.75 56.25 -17.2 55.0 -16.65 54.2 -16.5 54.45 -16.7 55.95 -17.4" fill="#ffffff" fill-opacity="0.8" fill-rule="evenodd" stroke="none"/>
  </g>
</svg>
