<?xml version="1.0" encoding="UTF-8" standalone="no"?>
<svg xmlns:ffdec="https://www.free-decompiler.com/flash" xmlns:xlink="http://www.w3.org/1999/xlink" ffdec:objectType="shape" height="55.25px" width="111.6px" xmlns="http://www.w3.org/2000/svg">
  <g transform="matrix(1.0, 0.0, 0.0, 1.0, 54.8, 35.45)">
    <path d="M24.7 -34.45 L24.5 -34.25 24.45 -34.15 24.4 -34.1 24.35 -34.0 24.2 -33.95 24.15 -33.85 24.1 -33.8 24.05 -33.7 23.75 -33.4 23.5 -33.25 23.45 -33.15 23.4 -33.1 23.35 -33.0 22.8 -32.6 Q22.65 -32.5 22.5 -32.4 L22.45 -32.35 22.45 -32.25 22.35 -32.25 22.15 -32.2 Q21.95 -31.95 21.75 -31.8 L21.5 -31.65 20.75 -31.6 Q20.6 -31.5 20.5 -31.35 L20.45 -31.2 20.35 -31.15 20.15 -30.9 20.1 -30.75 20.05 -30.65 20.05 -30.3 Q20.05 -30.15 19.95 -30.05 L19.85 -29.8 19.8 -29.75 Q18.5 -28.45 16.7 -28.1 16.5 -28.05 16.25 -27.95 16.1 -27.75 15.85 -27.65 L15.65 -27.6 Q14.85 -27.15 13.95 -26.75 L13.8 -26.7 13.65 -26.35 Q13.55 -26.25 13.5 -26.05 L13.45 -26.0 13.4 -25.9 13.35 -25.85 13.35 -25.7 13.4 -25.55 13.5 -25.4 13.55 -25.0 13.55 -24.4 13.6 -24.3 13.65 -24.25 13.65 -24.1 14.6 -23.65 14.8 -23.55 Q14.9 -23.45 14.9 -23.3 L14.9 -22.95 14.95 -22.85 15.65 -22.85 15.75 -22.8 15.8 -22.7 16.2 -22.85 16.55 -23.0 16.7 -22.95 16.8 -22.9 16.95 -23.05 17.1 -23.1 17.15 -23.15 17.65 -23.2 17.8 -23.15 17.85 -23.05 17.9 -22.9 17.9 -22.85 Q19.55 -22.1 21.15 -22.45 L21.25 -22.5 Q21.4 -22.55 21.55 -22.7 L21.7 -22.8 21.85 -22.85 23.25 -22.95 23.4 -23.0 23.5 -23.05 24.0 -23.1 24.15 -23.0 24.25 -22.95 24.9 -22.95 25.1 -23.1 25.25 -23.25 25.55 -23.45 25.85 -23.6 26.05 -23.6 26.25 -23.9 26.3 -24.0 Q26.75 -24.2 27.25 -24.35 L27.6 -24.45 Q27.6 -24.6 27.6 -24.75 L27.6 -25.1 27.65 -25.3 27.7 -25.45 27.7 -25.5 27.95 -25.75 28.1 -25.8 28.35 -25.85 28.6 -26.0 28.8 -26.05 28.9 -26.1 29.0 -26.2 29.15 -26.25 29.15 -26.7 29.2 -26.8 29.3 -26.95 29.35 -27.0 29.4 -27.1 29.5 -27.15 29.7 -27.55 29.7 -28.3 30.0 -28.6 30.05 -28.7 30.1 -28.85 30.15 -28.95 30.15 -29.7 30.35 -29.9 Q31.0 -30.2 31.6 -30.65 31.8 -30.85 32.0 -31.05 32.05 -31.25 32.15 -31.4 L32.4 -31.65 32.4 -31.8 32.45 -31.9 Q32.85 -32.2 33.25 -32.45 L33.6 -32.75 Q34.1 -33.2 34.75 -33.3 34.8 -33.3 34.85 -33.35 L34.9 -33.4 34.9 -33.5 34.95 -33.6 35.4 -34.05 Q35.55 -34.25 35.75 -34.3 L35.95 -34.5 Q36.4 -34.75 36.8 -35.05 L37.1 -35.3 37.2 -35.35 37.45 -35.35 37.6 -35.45 37.7 -35.45 37.7 -35.4 Q37.6 -35.35 37.55 -35.3 L37.45 -35.25 37.45 -35.2 37.4 -35.15 37.2 -35.1 37.0 -34.85 36.75 -34.65 Q36.5 -34.55 36.25 -34.35 L36.1 -34.25 35.9 -34.1 Q35.85 -33.9 35.7 -33.75 L35.4 -33.5 35.35 -33.4 35.35 -33.3 35.3 -33.25 35.2 -33.1 35.05 -32.95 34.95 -32.9 Q34.7 -32.95 34.5 -32.85 L34.35 -32.75 Q33.75 -32.3 33.15 -31.9 L32.8 -31.6 Q32.45 -30.85 31.75 -30.3 L30.65 -29.5 Q30.5 -29.45 30.5 -29.25 L30.55 -28.95 30.55 -28.85 30.5 -28.7 30.4 -28.55 30.4 -28.45 30.3 -28.4 30.15 -28.25 Q30.1 -28.1 30.1 -27.95 L30.15 -27.65 30.15 -27.45 30.0 -27.25 29.9 -27.0 29.85 -26.95 29.7 -26.85 29.65 -26.7 29.55 -26.55 29.6 -26.5 Q29.6 -26.35 29.5 -26.25 L29.4 -26.0 29.2 -25.9 29.0 -25.85 28.95 -25.75 28.9 -25.7 28.8 -25.7 28.65 -25.65 28.5 -25.5 28.2 -25.4 28.1 -25.35 28.1 -25.1 28.05 -25.0 28.0 -24.95 Q27.95 -24.85 27.95 -24.7 L27.95 -24.5 28.0 -24.35 27.95 -24.25 27.85 -24.1 27.8 -24.05 Q27.15 -23.95 26.55 -23.7 L26.45 -23.55 26.4 -23.3 26.4 -23.25 26.25 -23.2 25.9 -23.15 25.85 -23.1 25.7 -23.05 25.6 -23.0 25.45 -22.9 25.2 -22.65 25.05 -22.45 24.1 -22.45 Q24.05 -22.45 23.95 -22.5 L23.9 -22.55 Q23.75 -22.75 23.5 -22.6 23.35 -22.5 23.2 -22.45 L21.85 -22.45 21.7 -22.35 21.5 -22.15 21.4 -22.0 21.35 -21.95 19.4 -21.85 18.95 -22.0 18.9 -22.05 Q18.35 -22.15 17.85 -22.35 L17.75 -22.4 17.45 -22.7 17.3 -22.7 17.15 -22.65 17.1 -22.55 17.1 -22.5 16.8 -22.5 16.7 -22.45 16.65 -22.4 16.5 -22.4 16.35 -22.35 16.05 -22.3 Q15.85 -22.15 15.6 -22.0 L15.35 -21.9 15.3 -21.8 15.3 -21.75 15.2 -21.65 Q15.05 -21.55 14.9 -21.55 14.7 -21.5 14.5 -21.35 L14.4 -21.35 13.6 -21.3 13.45 -21.35 13.05 -21.5 12.95 -21.5 12.75 -21.55 12.45 -21.65 12.35 -21.65 12.4 -21.4 12.4 -20.15 12.3 -20.05 12.15 -19.95 12.0 -20.05 11.95 -20.05 11.95 -19.85 11.9 -19.75 11.85 -19.7 11.8 -19.6 11.75 -19.55 11.55 -19.45 11.2 -19.1 11.1 -19.05 11.05 -18.95 10.75 -18.5 10.7 -18.45 10.7 -18.15 10.65 -18.05 10.75 -18.0 Q10.9 -17.95 11.0 -17.8 L11.2 -17.55 11.3 -17.5 11.3 -17.4 11.45 -17.2 11.6 -16.95 11.65 -16.8 11.65 -16.65 11.7 -16.55 11.75 -16.5 11.95 -16.45 12.1 -16.4 12.15 -16.3 12.25 -16.25 12.3 -16.15 12.35 -16.1 12.35 -16.0 12.4 -15.95 12.4 -15.25 12.45 -15.15 12.5 -15.1 12.55 -15.0 12.6 -14.95 12.65 -14.85 12.65 -14.5 12.55 -14.3 12.55 -14.25 12.5 -14.15 12.4 -14.0 12.25 -13.95 12.25 -12.7 11.8 -12.25 11.7 -12.2 11.7 -12.1 11.65 -12.05 11.6 -11.95 11.4 -11.75 Q9.45 -10.85 7.35 -10.7 L5.45 -10.55 5.45 -10.45 5.4 -10.4 5.35 -10.3 5.2 -10.25 5.0 -10.25 3.5 -10.6 1.9 -10.85 0.1 -10.85 0.0 -10.75 Q-0.05 -10.7 -0.1 -10.7 L-2.5 -10.55 -2.65 -10.45 -2.8 -10.4 -2.9 -10.35 -2.95 -10.3 -3.5 -10.25 -3.95 -10.15 -4.0 -10.05 Q-4.05 -9.95 -4.15 -9.85 L-4.35 -9.6 -4.5 -9.45 -4.55 -9.35 -4.7 -8.9 Q-5.4 -8.6 -6.15 -8.95 L-6.25 -9.0 -6.3 -9.0 -7.0 -9.1 -7.05 -9.2 -7.1 -9.25 -7.15 -9.25 -7.75 -9.4 -7.95 -9.35 -8.05 -9.4 -8.2 -9.4 -8.35 -9.55 -8.4 -9.55 -8.55 -9.6 -8.6 -9.7 -8.85 -9.95 -9.0 -10.0 Q-9.05 -10.0 -9.15 -10.05 L-9.2 -10.05 -9.35 -10.15 -9.4 -10.2 -9.45 -10.3 -9.45 -10.35 -9.5 -10.45 -9.6 -10.55 -9.75 -10.5 -9.9 -10.35 -10.0 -10.3 -12.55 -10.2 -12.75 -10.1 -13.2 -10.1 Q-13.25 -10.1 -13.3 -10.15 L-13.4 -10.2 -13.4 -11.05 Q-13.45 -11.25 -13.55 -11.4 L-13.6 -11.45 -13.6 -11.6 -13.65 -11.65 -13.7 -11.75 -14.45 -11.15 -14.55 -10.95 -14.6 -10.7 -14.7 -10.5 -14.7 -9.95 -14.8 -9.75 -14.8 -9.1 -14.85 -9.0 -14.9 -8.8 Q-14.95 -8.55 -15.1 -8.35 L-15.25 -8.05 -15.25 -7.95 -15.3 -7.8 -15.2 -7.6 Q-15.15 -7.5 -15.15 -7.4 -15.1 -7.15 -14.95 -6.95 L-14.95 -5.25 -14.55 -5.15 -13.7 -4.95 -13.55 -4.85 -13.4 -4.55 -13.4 -4.2 -13.5 -4.0 -13.5 -3.55 Q-13.5 -3.4 -13.55 -3.25 L-13.45 -3.05 -13.35 -2.95 -13.35 -2.05 -13.3 -1.95 -13.2 -1.85 -12.95 -1.35 Q-12.85 -1.25 -12.8 -1.2 L-12.6 -1.0 -12.5 -0.8 -12.35 -0.55 -12.35 -0.45 -12.3 -0.35 -12.3 -0.15 -12.25 -0.05 -12.15 0.05 -12.1 0.2 -12.05 0.3 -12.05 0.7 -12.0 0.8 -11.85 0.9 -11.55 1.05 -11.45 1.15 -11.45 1.7 -11.25 1.9 -11.1 2.2 -11.1 2.3 Q-11.05 2.25 -11.0 2.25 L-10.9 2.15 -10.75 2.05 -10.65 2.05 -10.45 2.0 -10.2 2.05 -9.95 2.3 -9.8 2.6 -9.8 2.8 Q-10.05 3.1 -10.0 3.6 L-9.0 3.55 -5.55 3.65 -5.4 3.7 -5.3 3.85 -5.2 3.95 -5.15 4.05 -5.1 4.1 Q-4.7 4.2 -4.3 4.0 -3.8 3.8 -3.3 3.9 L-3.05 3.95 Q-2.8 4.15 -2.55 4.25 -2.15 4.45 -1.7 4.4 L-1.3 4.4 -1.0 4.45 Q-0.95 4.4 -0.9 4.4 L-0.9 4.3 -0.8 4.1 -0.6 3.85 -0.5 3.65 Q-0.45 3.45 -0.3 3.3 L-0.2 3.25 0.15 3.0 0.35 2.8 Q1.45 2.4 2.55 2.75 L2.7 2.85 2.8 2.95 Q4.2 3.15 5.75 2.8 7.1 2.45 8.55 2.45 L8.55 1.8 8.6 1.7 8.8 1.5 9.15 1.45 10.0 1.35 10.2 1.25 10.45 1.2 10.65 1.15 Q11.25 0.8 11.9 0.5 L12.3 0.35 Q13.0 0.2 13.7 -0.05 L13.8 -0.2 13.9 -0.25 Q14.35 -0.4 14.7 -0.6 L15.45 -1.1 Q15.9 -1.3 16.25 -1.55 L16.2 -1.65 Q16.15 -1.7 16.15 -1.75 L16.15 -1.95 16.2 -2.05 16.3 -2.2 16.45 -2.35 Q16.8 -2.45 17.15 -2.65 L17.9 -3.1 18.2 -3.3 18.25 -3.45 18.25 -4.3 18.3 -4.5 18.5 -4.65 18.85 -4.85 Q19.05 -5.0 19.3 -5.05 19.35 -5.05 19.45 -5.1 L19.55 -5.2 19.55 -5.85 19.6 -5.95 19.7 -6.05 19.7 -6.3 19.75 -6.4 20.05 -6.7 20.2 -6.8 20.3 -6.95 Q20.85 -7.15 21.4 -7.4 L21.8 -7.6 Q22.45 -7.9 23.15 -8.0 L23.45 -8.3 23.65 -8.55 23.8 -8.75 23.85 -8.85 23.85 -9.3 23.95 -9.5 24.1 -9.6 24.2 -9.7 24.45 -9.7 24.8 -9.8 24.95 -9.9 25.05 -9.95 25.3 -10.05 25.45 -10.15 25.65 -10.25 25.85 -10.25 25.85 -10.3 26.3 -10.25 26.75 -10.1 Q26.8 -10.05 26.9 -10.05 L27.25 -10.05 27.35 -10.15 27.5 -10.25 Q28.6 -10.55 29.6 -10.1 L29.8 -10.0 29.9 -9.9 29.95 -9.8 29.95 -9.7 30.05 -9.55 30.2 -9.5 Q30.3 -9.4 30.45 -9.4 L30.45 -9.65 30.55 -9.8 30.65 -9.9 30.8 -9.95 31.0 -10.0 31.25 -9.95 31.4 -9.8 31.7 -9.4 32.0 -9.05 32.05 -8.95 32.15 -8.85 Q32.45 -8.7 32.75 -8.55 L32.8 -8.5 32.8 -8.55 32.9 -8.65 33.0 -8.8 33.1 -8.85 Q33.75 -9.05 34.4 -8.85 L35.05 -8.7 35.3 -8.45 35.3 -8.35 35.35 -8.15 35.35 -8.0 Q35.7 -8.0 36.05 -8.0 38.65 -8.8 41.5 -8.7 L41.6 -8.8 41.7 -8.95 41.9 -9.15 42.0 -9.35 42.2 -9.55 42.25 -9.55 42.7 -9.85 42.8 -9.95 43.0 -9.95 43.2 -10.05 43.3 -10.15 43.4 -10.2 43.7 -10.4 43.8 -10.5 43.8 -10.6 43.95 -10.7 44.05 -10.8 44.3 -11.0 44.45 -11.05 44.75 -11.2 Q44.95 -11.3 45.25 -11.3 L45.45 -11.45 45.45 -11.85 45.55 -11.9 45.7 -12.0 46.45 -12.05 46.55 -12.25 46.75 -12.35 46.85 -12.35 47.0 -12.4 47.0 -12.45 47.55 -12.4 47.6 -12.5 47.85 -12.75 48.2 -12.9 48.25 -12.9 Q48.3 -13.05 48.35 -13.2 L48.5 -13.35 48.5 -13.4 48.55 -13.5 49.0 -13.95 Q49.1 -14.05 49.2 -14.1 49.05 -14.6 49.1 -15.1 49.1 -15.7 49.1 -16.25 L49.0 -16.3 48.85 -16.35 48.6 -16.7 48.5 -16.85 48.5 -17.05 48.55 -17.1 48.7 -17.2 48.7 -17.3 48.8 -17.4 48.95 -17.5 Q49.05 -17.55 49.15 -17.65 L49.35 -17.75 49.35 -18.55 49.45 -18.85 49.45 -19.05 Q49.6 -19.25 49.75 -19.3 L49.85 -19.4 Q49.95 -19.45 50.0 -19.6 50.0 -19.75 50.15 -19.75 L50.2 -19.75 Q50.3 -19.65 50.35 -19.5 50.35 -19.35 50.3 -19.2 L50.2 -19.1 50.15 -19.1 50.15 -19.05 50.0 -19.0 49.85 -18.85 49.8 -18.75 49.8 -18.55 49.75 -18.45 49.75 -17.55 49.7 -17.45 49.65 -17.45 49.5 -17.2 49.25 -16.9 49.65 -16.75 49.7 -16.7 49.7 -16.25 Q49.7 -16.0 49.65 -15.8 49.6 -15.75 49.55 -15.75 L49.55 -14.6 49.6 -14.45 49.65 -14.25 49.65 -13.95 49.4 -13.65 Q49.3 -13.55 49.15 -13.45 L49.05 -13.35 49.1 -13.25 49.1 -12.95 49.35 -13.0 49.65 -13.05 49.8 -13.1 49.85 -13.05 51.1 -13.1 51.3 -13.2 51.8 -13.3 52.1 -13.3 52.7 -13.1 Q52.85 -13.05 53.0 -12.9 53.05 -12.75 53.2 -12.75 L53.55 -12.65 53.75 -12.55 53.9 -12.4 54.05 -12.35 54.15 -12.35 54.25 -12.3 54.45 -12.4 54.5 -12.5 Q54.95 -12.55 55.15 -12.7 L55.25 -12.8 55.5 -12.9 55.6 -12.95 55.7 -13.15 55.8 -13.25 55.85 -13.35 56.1 -13.3 56.1 -13.35 56.4 -13.35 56.4 -13.4 56.75 -13.3 56.8 -13.3 Q56.6 -13.15 56.35 -13.15 L56.3 -13.1 56.0 -13.0 56.0 -12.9 55.95 -12.85 55.9 -12.75 55.75 -12.6 55.55 -12.45 55.55 -12.4 Q55.55 -12.2 55.35 -12.2 L54.75 -12.15 54.65 -12.05 54.6 -11.95 54.55 -11.95 54.55 -11.9 Q53.95 -11.85 53.45 -12.1 53.3 -12.15 53.2 -12.25 L52.8 -12.35 Q52.7 -12.4 52.6 -12.45 L52.5 -12.55 Q52.25 -12.7 51.95 -12.8 L51.8 -12.8 51.3 -12.7 51.15 -12.65 50.25 -12.65 50.0 -12.5 49.9 -12.5 49.6 -12.45 48.8 -12.25 48.55 -12.25 48.45 -12.3 Q48.35 -12.3 48.3 -12.35 L48.3 -12.4 48.25 -12.4 48.2 -12.3 48.15 -12.25 48.3 -12.15 48.35 -12.1 48.3 -12.05 48.1 -12.0 48.0 -11.95 Q47.95 -11.9 47.85 -11.9 L47.65 -11.85 47.55 -11.85 47.2 -11.8 47.0 -11.7 46.95 -11.55 46.9 -11.5 46.85 -11.5 Q46.2 -11.5 45.95 -11.25 L45.9 -11.15 45.8 -11.05 45.75 -10.95 45.7 -10.95 45.3 -10.75 44.8 -10.55 44.7 -10.4 44.65 -10.3 44.35 -10.0 44.2 -9.8 43.75 -9.35 43.25 -9.15 Q43.0 -9.0 42.8 -8.8 L42.7 -8.6 Q42.15 -7.95 41.4 -7.75 40.5 -7.55 39.55 -7.5 38.05 -7.45 36.6 -7.2 L36.5 -7.05 36.3 -6.95 36.5 -6.85 37.1 -6.7 Q37.6 -6.6 38.05 -6.35 L38.1 -6.25 38.1 -6.1 38.05 -6.0 37.85 -5.9 37.9 -5.8 Q38.05 -5.7 38.2 -5.65 L38.55 -5.55 Q38.75 -5.45 38.95 -5.3 L39.1 -5.3 Q40.15 -5.35 41.2 -5.3 L41.3 -5.35 41.5 -5.55 41.65 -5.6 41.75 -5.55 Q41.9 -5.5 42.0 -5.4 L42.05 -5.35 42.1 -5.25 42.1 -5.2 42.6 -5.2 42.65 -5.25 42.85 -5.3 43.3 -5.3 43.45 -5.25 43.5 -5.2 44.9 -5.15 45.0 -5.2 45.7 -5.2 45.85 -5.1 45.95 -5.05 Q46.05 -4.95 46.0 -4.75 L46.0 -4.5 46.05 -4.35 Q46.2 -4.15 46.45 -4.1 L46.55 -4.05 46.7 -4.0 46.8 -3.9 46.85 -3.8 46.95 -3.75 47.1 -3.45 47.15 -3.45 48.1 -3.35 Q49.05 -3.1 50.0 -2.95 L50.25 -2.9 50.4 -2.75 Q50.6 -2.7 50.75 -2.6 L50.85 -2.45 51.15 -2.3 51.25 -2.1 51.4 -1.95 51.45 -1.85 51.45 -1.75 Q51.4 -1.75 51.4 -1.8 L51.15 -1.95 51.0 -2.0 50.8 -2.2 50.5 -2.25 50.4 -2.3 50.0 -2.25 Q49.6 -2.35 49.2 -2.5 L48.95 -2.6 48.55 -2.6 Q47.7 -2.85 46.85 -2.9 L46.8 -3.0 46.65 -3.15 46.4 -3.25 45.6 -3.45 45.5 -3.5 45.45 -3.6 45.35 -3.7 45.3 -3.8 45.25 -3.85 45.25 -3.95 45.15 -4.15 45.15 -4.55 44.85 -4.5 44.35 -4.3 44.25 -4.25 43.9 -4.25 43.5 -4.45 43.45 -4.45 43.15 -4.6 Q43.0 -4.75 42.7 -4.6 42.6 -4.55 42.5 -4.55 L42.35 -4.45 41.65 -4.45 Q41.15 -4.65 40.65 -4.45 L40.65 -4.35 Q40.6 -4.1 40.35 -4.1 L39.55 -4.05 39.4 -4.0 38.65 -4.0 38.5 -4.05 38.4 -4.15 Q38.35 -4.3 38.35 -4.4 L38.35 -4.75 37.75 -4.9 37.3 -5.0 36.95 -5.35 36.95 -6.1 36.75 -6.15 36.6 -6.2 36.55 -6.25 36.25 -6.35 35.45 -6.6 Q35.35 -6.65 35.25 -6.7 L34.85 -6.7 34.85 -6.65 34.45 -6.6 34.45 -6.65 34.35 -6.85 34.3 -6.9 Q34.05 -6.95 33.85 -7.05 L33.3 -7.35 33.15 -7.25 33.05 -7.2 32.85 -7.15 32.55 -7.2 31.65 -7.8 Q31.45 -7.95 31.3 -7.95 31.25 -7.9 31.2 -7.9 L31.0 -7.85 30.6 -7.95 Q30.4 -8.0 30.25 -8.1 L29.85 -8.2 29.55 -8.4 29.35 -8.55 28.9 -9.0 28.05 -9.05 27.9 -8.95 Q27.35 -8.7 26.7 -8.85 L26.2 -9.05 26.1 -9.05 Q26.0 -9.05 25.95 -9.0 L25.85 -8.95 25.8 -8.9 25.5 -8.8 25.35 -8.7 25.3 -8.65 25.2 -8.6 24.95 -8.55 24.95 -8.3 24.85 -8.1 24.3 -7.55 24.15 -7.45 24.05 -7.25 23.85 -7.05 Q22.95 -6.95 22.05 -6.65 21.85 -6.55 21.7 -6.5 L20.85 -6.05 20.75 -5.95 20.6 -5.85 20.55 -5.75 20.55 -5.65 20.45 -5.55 20.45 -4.7 20.35 -4.55 20.05 -4.25 19.95 -4.2 19.9 -4.15 19.7 -4.1 19.35 -4.05 19.2 -3.95 19.2 -3.6 19.15 -3.4 19.1 -3.05 19.1 -2.95 19.05 -2.85 18.45 -2.4 Q18.1 -2.2 17.7 -2.0 L17.5 -1.9 17.2 -1.7 17.15 -1.55 17.15 -1.25 17.05 -1.05 17.05 -0.95 Q16.2 -0.6 15.45 -0.15 L14.85 0.3 Q14.4 0.7 13.9 1.0 L13.15 1.15 12.25 1.4 12.15 1.5 11.45 1.85 11.3 1.95 11.2 2.05 11.1 2.1 11.05 2.15 10.75 2.3 10.55 2.45 10.35 2.55 10.15 2.55 9.75 2.65 9.75 3.2 9.55 3.6 Q5.85 4.2 2.15 4.25 L2.0 4.15 1.9 4.05 1.9 4.0 1.05 3.95 0.9 4.05 0.7 4.2 Q0.55 4.3 0.45 4.5 L0.25 4.95 0.15 5.15 Q0.0 5.5 -0.3 5.7 -0.95 5.9 -1.55 5.7 L-2.0 5.55 -2.15 5.45 -2.25 5.3 -2.55 5.25 -3.1 5.05 -3.2 4.95 Q-3.25 4.9 -3.35 4.85 L-3.45 4.8 -3.5 4.75 -3.65 4.75 -4.45 4.95 -5.15 4.95 -5.4 4.9 -5.45 4.8 -5.55 4.7 -5.65 4.55 -5.75 4.45 -8.7 4.45 -8.8 4.55 Q-9.75 4.55 -10.7 4.5 -10.9 4.5 -11.05 4.4 L-11.15 4.3 -11.15 3.85 -11.05 3.75 -11.05 3.65 -11.15 3.55 -11.3 3.5 -11.65 3.35 -11.8 3.3 -11.85 3.2 -11.9 3.05 -11.95 2.85 Q-12.05 2.65 -12.05 2.45 L-12.15 2.35 -12.25 2.2 -12.3 2.1 -12.3 1.7 -12.45 1.7 -12.65 1.6 -12.75 1.5 -12.8 1.4 -12.8 0.65 -13.0 0.45 -13.05 0.3 -13.1 0.2 -13.1 -0.1 -13.25 -0.4 -13.3 -0.4 -13.55 -0.5 -13.65 -0.6 -13.8 -0.7 -13.85 -0.8 -13.9 -0.95 -13.9 -1.35 -13.95 -1.45 -14.05 -1.55 -14.05 -2.0 -14.1 -2.3 -14.1 -2.45 -14.15 -2.45 -14.4 -2.5 -14.5 -2.6 -14.6 -2.8 -14.6 -3.05 -14.65 -3.25 -14.65 -3.35 -14.55 -3.55 -14.5 -3.7 Q-14.85 -4.05 -15.4 -4.05 -15.8 -4.05 -16.15 -4.2 L-16.3 -4.3 -16.4 -4.4 -16.45 -4.5 -16.45 -5.05 -16.4 -5.15 -16.2 -5.35 -16.2 -6.65 -16.3 -6.75 -16.4 -6.95 -16.55 -7.2 -16.6 -7.3 -16.6 -8.05 -16.45 -8.35 -16.45 -8.45 -16.4 -8.55 -16.3 -8.65 -16.2 -8.8 -16.2 -8.9 -16.15 -9.0 -16.15 -9.1 -16.05 -9.3 -16.05 -9.95 -15.95 -10.15 -15.9 -10.3 -15.9 -10.7 -15.8 -10.95 -15.7 -11.35 Q-15.6 -11.6 -15.55 -11.9 L-15.45 -12.0 -15.3 -12.1 Q-15.0 -12.3 -14.65 -12.3 -14.6 -12.35 -14.6 -12.4 L-14.75 -12.7 -14.75 -12.9 -14.7 -13.05 -14.6 -13.25 -14.6 -13.35 -14.7 -13.45 -14.75 -13.55 -14.75 -13.65 -14.8 -13.8 -14.8 -14.1 -14.85 -14.2 -15.0 -14.3 -15.05 -14.4 -15.3 -14.45 -15.75 -14.9 -15.9 -15.1 -15.9 -15.85 -15.8 -16.05 Q-15.75 -16.1 -15.75 -16.2 L-15.75 -16.3 -15.7 -16.4 -15.55 -16.6 -14.8 -17.35 -14.85 -17.45 -15.05 -17.55 -15.15 -17.7 -15.65 -18.2 -15.75 -18.4 -15.85 -18.5 Q-16.2 -18.6 -16.5 -18.75 -16.95 -19.05 -17.3 -19.45 L-17.45 -19.75 -17.45 -20.4 -17.4 -20.5 -17.1 -20.8 -17.0 -20.95 -17.05 -21.05 -17.15 -21.15 -17.15 -21.25 -17.2 -21.3 -17.4 -21.2 Q-19.3 -21.05 -21.1 -20.45 L-22.2 -19.7 Q-22.85 -19.25 -23.45 -18.7 L-23.8 -18.6 -23.95 -18.5 -23.95 -18.05 Q-24.0 -17.9 -23.95 -17.75 L-24.05 -17.55 Q-24.2 -17.3 -24.35 -17.1 -24.5 -16.85 -24.8 -16.7 L-25.05 -16.65 -25.05 -15.8 -25.1 -15.7 -25.15 -15.55 -25.2 -15.45 -25.3 -15.35 -25.55 -15.15 -25.75 -14.95 -25.95 -14.8 -26.25 -14.6 -26.3 -14.5 -26.4 -14.4 -26.5 -14.2 -26.6 -13.95 -26.8 -13.75 Q-26.85 -13.7 -26.95 -13.7 L-27.15 -13.65 -27.3 -13.6 -27.4 -13.5 -27.45 -13.4 -27.55 -13.3 -27.6 -13.2 -27.75 -13.05 -28.0 -13.0 Q-29.4 -13.15 -30.65 -13.65 -31.0 -13.8 -31.35 -13.85 L-33.15 -13.8 -33.45 -13.8 -33.65 -13.85 -33.75 -13.95 -33.8 -14.05 Q-35.15 -14.4 -37.0 -14.25 L-37.3 -14.4 -37.5 -14.45 -37.55 -14.55 -37.6 -14.7 -37.65 -14.8 -37.8 -14.95 Q-38.35 -14.75 -38.85 -14.55 L-38.95 -14.55 -39.2 -14.8 -39.65 -15.2 -40.15 -15.35 Q-40.3 -15.4 -40.45 -15.5 -40.55 -15.8 -40.85 -15.85 L-40.9 -15.75 Q-41.0 -15.5 -41.1 -15.3 -41.15 -15.1 -41.35 -14.95 L-41.65 -14.6 Q-41.6 -14.35 -41.45 -14.1 L-41.25 -13.65 -41.25 -13.45 -41.2 -13.35 -41.2 -13.3 -41.15 -13.2 -41.15 -11.6 Q-41.15 -11.45 -41.25 -11.25 L-41.45 -10.9 -41.45 -9.75 Q-41.4 -9.1 -41.45 -8.45 L-41.45 -8.35 -41.55 -8.2 -41.6 -8.05 -41.65 -8.0 -41.45 -7.9 -40.75 -7.85 -40.65 -7.8 -39.95 -7.75 -39.8 -7.7 -39.7 -7.55 Q-39.45 -7.4 -39.15 -7.6 L-38.9 -7.75 -37.8 -7.75 -37.65 -7.7 Q-37.55 -7.6 -37.4 -7.55 -37.3 -7.5 -37.2 -7.35 -36.55 -6.85 -35.75 -6.6 L-35.45 -6.5 -35.25 -6.5 Q-34.4 -6.2 -33.55 -6.2 L-33.45 -6.1 -33.3 -6.0 -33.1 -5.8 -33.05 -5.7 -33.0 -5.65 -32.95 -5.55 -32.75 -5.35 -32.65 -5.3 -32.45 -5.15 -30.7 -5.15 -30.6 -5.2 -30.5 -5.35 Q-30.15 -5.4 -29.8 -5.55 L-29.7 -5.6 Q-29.2 -6.15 -28.35 -6.1 L-28.3 -6.15 -28.2 -6.2 -27.45 -6.3 Q-27.05 -6.1 -26.6 -6.0 L-26.6 -5.3 -26.75 -4.95 -26.8 -4.75 -26.75 -4.65 -26.7 -4.6 -26.7 -4.45 Q-26.6 -4.35 -26.55 -4.2 L-26.5 -4.1 -26.15 -3.65 -25.8 -3.25 Q-25.5 -3.1 -25.25 -3.05 L-25.1 -3.05 Q-25.0 -2.9 -24.8 -2.85 L-24.5 -2.75 -24.1 -2.35 -23.8 -2.2 -23.65 -2.1 -23.4 -1.9 Q-23.2 -1.8 -23.1 -1.6 -23.05 -1.4 -23.05 -1.2 L-23.05 -0.9 Q-23.05 -0.8 -23.05 -0.7 -22.3 -0.4 -21.55 -0.05 -21.25 0.1 -21.05 0.3 L-20.8 0.4 -20.75 0.45 Q-20.0 0.6 -19.3 0.9 L-19.2 0.95 -19.0 1.1 -18.85 1.25 Q-18.0 1.45 -17.5 2.15 -17.3 2.5 -17.15 2.9 L-17.15 3.65 -16.9 4.0 Q-16.75 4.2 -16.65 4.4 L-16.65 4.5 -16.5 4.55 -16.45 4.65 -16.45 4.8 -16.35 4.9 -16.2 5.1 -15.85 5.6 -15.6 6.0 -15.55 6.1 Q-15.5 6.3 -15.5 6.55 L-15.5 7.3 -15.45 7.4 -15.4 7.45 -15.4 7.7 -15.35 7.75 -15.3 7.85 -15.3 8.4 Q-15.35 8.5 -15.4 8.6 L-15.6 8.85 -15.65 8.9 -15.65 9.7 Q-15.25 10.0 -14.8 10.25 L-14.4 10.45 -14.3 10.6 -14.25 10.8 -14.2 10.85 -14.2 11.15 -14.25 11.25 -14.4 11.4 -14.35 11.45 -14.35 11.7 -14.6 12.0 -14.85 12.25 -15.55 12.55 -15.9 12.65 -16.15 12.85 -16.3 12.95 -16.45 13.0 -16.7 13.05 -16.75 13.3 -16.7 13.5 -16.7 13.65 -16.65 13.7 -16.65 13.65 Q-16.75 13.45 -16.7 13.25 L-16.7 13.2 -16.65 13.15 -16.55 13.1 -16.4 13.15 Q-16.2 13.5 -16.0 13.9 L-15.8 14.35 -15.4 14.6 -15.2 14.75 -15.15 14.75 -15.0 14.7 -14.5 14.7 Q-14.45 14.75 -14.4 14.75 L-14.3 14.85 -14.3 15.25 -14.25 15.3 -13.7 15.3 -13.55 15.4 -13.35 15.5 -13.3 15.55 -13.25 15.65 -13.25 15.7 -12.25 16.1 -12.2 16.1 -12.0 16.15 -11.9 16.2 -11.8 16.2 -11.5 16.5 -11.5 17.65 -11.45 17.65 -11.3 17.85 -11.25 18.0 -11.2 18.05 -11.2 18.2 -10.85 18.55 -10.6 18.7 -10.5 18.75 -10.45 18.9 -10.45 19.15 -10.25 19.35 -9.4 19.4 Q-9.1 19.25 -8.7 19.15 L-8.5 19.15 -8.1 19.0 Q-7.7 19.15 -7.35 19.4 L-7.2 19.5 -7.25 19.55 -7.45 19.65 -7.55 19.65 -7.8 19.6 -7.95 19.55 -8.0 19.5 -8.55 19.55 -9.3 19.8 -10.3 19.8 -10.45 19.75 -10.6 19.6 -10.65 19.5 -10.7 19.45 -10.75 19.35 -10.8 19.3 -10.8 19.0 -10.9 18.95 -10.95 18.95 -11.15 18.85 -11.2 18.8 -11.45 18.7 -11.55 18.65 -11.6 18.55 -11.65 18.5 -11.65 18.4 -11.8 18.25 -12.0 18.1 -12.0 17.9 -11.9 17.7 -11.9 16.85 Q-11.85 16.7 -11.95 16.55 -12.55 16.45 -13.1 16.2 L-13.25 16.15 -13.4 16.05 -13.5 16.0 -14.05 15.85 -14.15 15.75 -14.5 15.75 -14.6 15.65 -14.7 15.6 -14.7 15.3 -14.95 15.2 -15.75 15.2 -15.85 15.15 -15.9 15.1 -15.95 15.0 -15.95 14.85 -16.05 14.7 -16.1 14.65 -16.15 14.55 -16.2 14.5 -16.25 14.4 -16.25 14.35 -16.3 14.25 -16.3 14.1 -16.35 14.0 Q-16.45 13.95 -16.55 13.9 -16.5 14.1 -16.5 14.35 L-16.5 15.05 Q-16.6 15.2 -16.75 15.25 L-16.95 15.3 -16.95 15.55 -17.05 15.85 -17.05 15.9 -17.3 16.15 -17.4 16.3 Q-17.5 16.35 -17.6 16.4 L-17.7 16.5 -17.85 16.55 -17.85 16.6 Q-17.75 16.7 -17.85 16.8 L-17.9 16.8 -17.95 16.85 -17.9 16.85 -17.75 16.95 -17.75 17.0 -17.85 17.2 -17.9 17.25 -17.8 17.35 Q-17.7 17.45 -17.65 17.55 L-17.25 17.85 -17.25 17.8 -17.15 17.8 -17.15 17.75 -17.0 17.8 -16.9 17.85 -16.7 18.05 -16.55 18.15 -16.45 18.2 Q-16.0 18.2 -15.6 18.45 L-15.65 18.55 -15.75 18.6 -15.85 18.6 -16.55 18.55 -16.75 18.45 -16.8 18.35 -16.95 18.35 Q-17.3 18.05 -17.75 17.85 L-18.0 17.85 -18.15 17.65 -18.2 17.65 -18.3 17.55 -18.3 17.5 -18.6 17.35 -18.65 17.25 -18.7 17.2 -18.7 17.1 -18.75 17.1 -18.65 16.95 -18.6 16.8 -18.6 16.55 -18.4 16.3 -18.25 16.15 -17.95 16.05 -17.85 16.0 -17.55 15.7 -17.5 15.6 -17.5 15.45 -17.45 15.35 -17.4 15.3 -17.4 14.9 -17.25 14.8 -17.0 14.75 -17.0 14.15 -17.2 13.95 -17.2 12.95 -17.15 12.8 -17.05 12.65 Q-16.85 12.45 -16.5 12.5 L-16.2 12.2 -15.4 11.9 -15.25 11.85 -15.1 11.7 -14.9 11.6 -14.85 11.45 -14.85 11.2 -14.8 11.15 -14.75 11.05 -14.65 10.9 Q-15.05 10.45 -15.6 10.2 L-16.0 9.9 Q-16.05 9.7 -16.05 9.45 L-16.05 8.85 -15.9 8.6 -15.75 8.4 -15.75 7.9 -15.85 7.85 -15.85 7.6 -15.95 7.55 -15.95 6.3 Q-16.0 6.05 -16.15 5.85 L-16.45 5.45 -16.5 5.3 -16.6 5.25 -16.75 5.1 -16.85 4.95 Q-16.9 4.8 -17.05 4.7 L-17.05 4.6 -17.1 4.55 -17.15 4.45 -17.25 4.4 -17.25 4.3 -17.45 4.1 -17.55 3.95 -17.55 2.95 -17.7 2.7 -17.8 2.45 -17.85 2.4 Q-18.1 2.15 -18.4 1.95 -18.55 1.85 -18.7 1.8 L-19.05 1.7 -19.1 1.65 -19.3 1.5 Q-20.0 1.15 -20.85 0.95 L-21.0 0.9 -21.05 0.8 -21.1 0.75 -21.15 0.75 -21.3 0.7 -21.35 0.6 -21.4 0.55 -21.45 0.55 -21.6 0.5 Q-22.2 0.05 -23.0 -0.1 L-23.15 -0.15 -23.5 -0.5 Q-23.55 -0.7 -23.5 -0.9 L-23.5 -1.2 Q-23.5 -1.35 -23.6 -1.45 L-23.65 -1.45 -23.7 -1.5 -23.85 -1.55 -24.0 -1.7 -24.15 -1.75 -24.6 -2.2 -25.05 -2.4 Q-25.2 -2.4 -25.3 -2.5 -25.5 -2.7 -25.75 -2.85 L-25.95 -2.95 -26.2 -3.2 -26.25 -3.15 Q-26.3 -3.1 -26.35 -3.1 L-26.5 -3.15 -26.55 -3.2 -26.6 -3.35 -26.65 -3.45 -26.65 -3.65 -26.7 -3.7 -26.7 -3.75 -26.8 -4.0 -26.85 -4.05 -26.9 -4.15 -27.0 -4.2 Q-27.0 -4.4 -27.1 -4.5 -27.15 -4.65 -27.15 -4.75 L-27.25 -4.8 -27.4 -4.85 -27.4 -4.9 -27.3 -5.05 -27.3 -5.35 -27.25 -5.4 -27.25 -5.65 Q-27.55 -5.55 -27.9 -5.55 L-28.0 -5.5 -28.05 -5.45 Q-28.65 -5.45 -29.15 -5.25 L-29.4 -5.1 -29.55 -5.0 -29.85 -4.85 -30.1 -4.8 -30.15 -4.7 -30.2 -4.65 Q-30.35 -4.55 -30.55 -4.55 -31.65 -4.55 -32.75 -4.55 L-32.8 -4.65 -33.0 -4.8 -33.15 -4.9 -33.45 -5.2 Q-33.55 -5.3 -33.6 -5.4 -34.35 -5.6 -35.2 -5.75 L-35.3 -5.85 -35.4 -5.9 -35.85 -6.1 -36.0 -6.15 -36.1 -6.2 -36.15 -6.25 Q-36.6 -6.4 -37.0 -6.6 L-37.35 -6.75 -37.55 -7.0 -37.75 -7.2 -38.8 -7.3 Q-39.05 -7.15 -39.3 -7.1 L-39.45 -7.05 -39.85 -7.05 -39.95 -7.1 -40.05 -7.25 Q-40.2 -7.55 -40.65 -7.35 L-40.8 -7.4 -41.45 -7.45 Q-42.0 -7.45 -42.2 -7.75 -42.15 -7.95 -42.05 -8.15 -41.95 -8.3 -41.9 -8.55 -41.95 -9.15 -41.9 -9.75 -41.9 -10.45 -41.9 -11.15 L-41.9 -11.2 -41.75 -11.45 -41.6 -11.65 -41.6 -12.9 -41.65 -12.95 -41.65 -13.05 -41.7 -13.1 -41.7 -13.35 -41.75 -13.45 -41.8 -13.5 -41.8 -13.75 -42.1 -14.35 -42.1 -14.9 -42.0 -15.05 -41.85 -15.2 -41.65 -15.25 -41.65 -15.3 -41.7 -15.3 -41.7 -15.4 -41.6 -15.6 Q-41.5 -15.8 -41.4 -15.9 L-41.35 -16.0 -41.35 -16.4 -41.3 -16.5 -41.1 -16.7 -41.05 -16.9 -40.85 -17.25 Q-40.8 -17.3 -40.8 -17.35 L-40.8 -17.55 Q-40.85 -17.8 -40.95 -18.0 L-41.05 -18.2 -41.05 -18.3 -41.1 -18.55 Q-41.15 -18.7 -41.1 -18.85 L-41.2 -18.95 -41.4 -19.2 -41.45 -19.3 Q-41.45 -19.5 -41.35 -19.7 L-41.05 -20.25 -40.9 -20.45 -40.85 -20.55 Q-40.85 -20.75 -40.75 -20.9 L-40.7 -21.1 -40.6 -21.2 -40.4 -21.45 -40.3 -21.55 -40.45 -21.85 -40.45 -22.7 -40.4 -22.8 -40.25 -23.15 Q-40.2 -23.25 -40.2 -23.3 -41.8 -23.55 -43.3 -23.85 L-43.4 -24.1 -43.45 -24.5 -43.5 -24.7 -43.55 -24.7 -43.75 -24.8 -44.15 -24.8 -44.35 -24.85 Q-44.4 -24.9 -44.45 -24.95 L-44.55 -25.05 -44.6 -25.2 -44.65 -25.3 -45.4 -25.35 -45.55 -25.3 -45.75 -25.35 -45.8 -25.4 -46.15 -25.45 -46.45 -25.55 Q-47.65 -25.5 -48.6 -26.15 L-48.65 -26.25 -48.7 -26.3 -48.7 -26.35 -48.95 -26.45 -49.1 -26.55 -49.2 -26.65 -49.15 -26.25 Q-49.95 -25.9 -50.85 -26.15 -51.05 -26.25 -51.2 -26.3 L-51.25 -26.45 -51.3 -26.55 -51.3 -26.75 -52.0 -26.85 -52.25 -26.95 -52.65 -27.35 -52.7 -27.45 -52.8 -27.7 -52.85 -27.75 Q-53.0 -27.9 -53.0 -28.1 L-53.0 -28.2 -52.95 -28.3 -52.95 -28.4 -53.0 -28.4 -53.3 -28.6 -53.3 -29.1 -53.7 -29.35 -53.85 -29.45 -53.9 -29.45 -54.15 -29.55 -54.2 -29.55 -54.35 -29.5 -54.4 -29.55 -54.45 -29.65 -54.8 -30.0 -54.8 -30.2 -54.7 -30.35 -54.7 -30.4 -54.4 -30.3 -54.3 -30.25 -54.2 -30.15 -54.15 -29.95 -53.8 -29.9 -53.55 -29.8 -53.4 -29.7 -53.0 -29.7 -52.85 -29.6 -52.75 -29.55 -52.7 -29.4 -52.7 -29.05 -52.55 -29.05 -52.3 -29.15 -52.1 -29.05 -51.95 -28.95 -51.85 -28.75 -51.85 -28.55 -51.9 -28.45 -51.95 -28.3 -52.05 -28.1 -51.85 -27.9 -51.8 -27.8 -50.65 -27.6 -50.55 -27.55 -50.45 -27.4 -50.45 -27.3 -50.4 -27.2 -50.4 -27.15 -50.15 -27.2 -49.7 -27.65 -49.45 -27.8 -49.05 -28.0 -48.9 -28.0 -48.7 -28.05 -48.45 -28.0 -48.35 -27.9 -48.25 -27.7 -48.2 -27.55 -48.15 -27.55 -47.9 -27.45 -47.75 -27.35 -47.65 -27.15 -47.6 -26.95 Q-46.95 -26.7 -46.05 -26.6 L-45.9 -26.5 -45.8 -26.4 -45.75 -26.3 -45.7 -26.3 -45.5 -26.2 -45.4 -26.1 -44.3 -26.05 -44.1 -26.0 -44.0 -25.9 -43.9 -25.7 -43.85 -25.5 -43.8 -25.45 -43.4 -25.35 -43.3 -25.25 -43.2 -25.2 -43.15 -25.15 -42.95 -25.05 -42.8 -24.75 -42.8 -24.45 Q-41.35 -24.65 -39.8 -24.25 -39.4 -24.25 -39.05 -24.05 -38.85 -23.95 -38.75 -23.75 L-38.7 -23.65 -38.7 -23.45 -38.75 -23.3 -38.8 -23.2 -38.75 -23.1 -38.7 -23.05 -38.65 -22.9 -38.6 -22.85 -38.55 -22.75 -38.45 -22.7 -38.4 -22.7 -38.3 -22.8 -38.2 -22.85 -38.0 -22.85 -37.6 -22.9 -37.45 -22.85 -36.75 -22.8 -36.65 -22.7 -36.55 -22.65 Q-36.45 -22.55 -36.45 -22.4 L-36.4 -22.25 Q-36.2 -22.05 -35.85 -22.15 L-35.65 -21.95 -35.6 -21.85 -34.9 -21.65 Q-34.35 -21.6 -33.8 -21.65 L-33.7 -21.6 -33.7 -21.7 Q-33.65 -21.8 -33.65 -21.85 L-33.65 -22.1 -33.7 -22.15 -33.7 -22.3 -33.6 -22.45 -33.5 -22.45 -33.4 -22.55 -33.4 -22.85 -33.35 -23.0 -33.3 -23.05 -33.2 -23.05 -33.2 -23.3 -33.15 -23.4 -33.05 -23.55 -33.0 -23.6 -33.0 -24.6 -32.9 -24.65 -32.8 -24.75 -32.8 -24.9 -32.7 -25.0 -32.65 -25.1 -32.7 -25.2 -32.7 -25.5 -32.6 -25.55 -32.5 -25.65 -32.15 -25.65 -32.05 -25.6 -32.0 -25.5 -32.0 -25.55 -31.85 -25.6 -31.7 -25.6 -31.65 -25.65 Q-31.45 -25.85 -31.25 -25.95 L-31.05 -26.05 -30.95 -26.2 -30.9 -26.25 -30.85 -26.35 -30.75 -26.45 -30.3 -26.55 -30.25 -26.6 -29.95 -26.65 -29.8 -26.7 -29.7 -26.7 -29.5 -26.65 -29.5 -26.6 -29.45 -26.6 -29.45 -26.7 -29.4 -26.85 -29.35 -26.95 -29.35 -27.25 -29.3 -27.3 -29.3 -27.45 -29.4 -27.65 -29.5 -27.7 -29.5 -28.1 -29.45 -28.15 -29.35 -28.3 -29.3 -28.4 -29.3 -28.6 -29.25 -28.7 Q-29.1 -28.85 -28.9 -28.9 L-28.6 -29.05 -28.5 -29.15 -28.45 -29.15 -28.35 -29.05 -28.35 -29.0 -28.15 -29.05 -28.1 -29.05 -27.95 -29.15 -27.9 -29.15 -27.85 -29.1 -27.85 -29.05 -27.95 -28.95 -28.05 -28.9 -28.1 -28.85 -28.2 -28.85 -28.35 -28.8 -28.45 -28.65 -28.65 -28.6 -28.8 -28.45 -28.9 -28.3 -28.95 -28.25 Q-28.95 -28.2 -28.95 -28.15 L-29.05 -28.05 -29.05 -27.85 -28.95 -27.7 -28.95 -26.75 -29.1 -26.6 -29.15 -26.5 -29.15 -26.35 -29.3 -26.2 -29.7 -26.15 Q-30.0 -26.1 -30.25 -26.1 L-30.25 -26.05 -30.2 -26.05 Q-30.15 -25.9 -30.35 -25.85 L-30.6 -25.75 -30.6 -25.7 -30.55 -25.65 -30.55 -25.55 Q-29.95 -25.45 -29.45 -25.3 L-27.9 -25.25 -27.8 -25.3 -27.6 -25.35 -27.55 -25.45 -27.5 -25.5 -27.35 -25.55 -27.25 -25.6 Q-27.1 -25.7 -27.0 -25.85 L-26.7 -26.15 -26.45 -26.35 -26.2 -26.5 -26.2 -26.55 -26.15 -26.7 -26.15 -26.9 Q-26.05 -27.1 -25.85 -27.15 -25.75 -27.2 -25.65 -27.25 L-25.6 -27.3 -25.65 -27.4 -25.65 -27.45 Q-25.6 -27.6 -25.4 -27.65 L-25.15 -27.75 -25.0 -27.8 -24.9 -27.75 -24.8 -27.75 -24.5 -28.05 Q-24.3 -28.1 -24.15 -28.25 L-23.85 -28.45 -23.8 -28.5 -23.75 -28.5 -23.75 -28.55 -23.6 -28.55 -23.5 -28.6 -23.4 -28.6 -22.7 -28.7 -22.6 -28.7 Q-23.1 -28.4 -23.65 -28.25 L-23.95 -28.15 -24.0 -28.1 Q-24.1 -28.05 -24.2 -28.0 L-24.35 -28.0 -24.45 -27.9 -24.45 -27.85 -24.5 -27.85 -24.65 -27.8 -24.7 -27.7 -24.9 -27.55 -24.95 -27.45 -25.35 -27.35 -25.45 -27.3 -25.5 -27.2 -25.5 -27.15 -25.55 -27.05 -25.6 -27.0 -25.8 -26.85 -25.9 -26.65 -25.9 -26.4 -25.95 -26.3 Q-26.0 -26.25 -26.05 -26.25 L-26.25 -26.15 -26.25 -26.05 -26.35 -25.95 -26.4 -25.85 -26.45 -25.8 -26.6 -25.7 -26.7 -25.65 -26.75 -25.6 -26.95 -25.3 -27.15 -25.2 -27.3 -25.1 -27.4 -25.05 -27.45 -25.0 -27.9 -24.85 -29.5 -24.85 -29.65 -24.9 -29.7 -24.95 -30.1 -25.05 -30.15 -25.05 -30.5 -25.15 -30.5 -25.1 -30.55 -25.05 -30.75 -24.9 -31.65 -24.9 -31.8 -24.95 -31.95 -24.9 -31.95 -24.8 Q-32.0 -24.65 -32.15 -24.6 -32.3 -24.55 -32.4 -24.5 L-32.45 -24.4 -32.45 -24.35 -32.5 -24.35 -32.55 -24.2 -32.6 -24.15 -32.6 -23.8 -32.5 -23.65 -32.5 -23.6 -32.55 -23.45 -32.6 -23.45 -32.6 -23.3 Q-32.55 -23.05 -32.6 -22.85 -32.65 -22.75 -32.7 -22.75 L-32.8 -22.7 -32.8 -22.65 -32.85 -22.5 Q-32.9 -22.4 -33.0 -22.3 L-33.0 -22.1 Q-33.0 -21.75 -33.0 -21.4 L-33.0 -21.1 Q-32.95 -20.9 -33.05 -20.7 L-33.6 -20.75 -35.0 -20.8 -35.15 -20.95 -35.35 -21.05 -35.35 -21.1 Q-35.9 -21.05 -36.4 -21.3 L-36.45 -21.35 -36.6 -21.4 -36.6 -21.45 -36.55 -21.55 -36.5 -21.6 -36.5 -21.75 -36.55 -21.85 -37.25 -21.95 -37.4 -22.1 -37.5 -22.25 -37.55 -22.3 -37.55 -22.35 -37.7 -22.4 -37.85 -22.4 -38.05 -22.35 -38.1 -22.3 -38.3 -22.2 -38.5 -22.2 -38.5 -22.1 -38.65 -22.1 -38.8 -22.2 -39.1 -22.25 -39.2 -22.5 -39.2 -22.55 -39.3 -22.45 -39.2 -22.25 -39.15 -22.05 -39.15 -21.4 -39.25 -21.1 -39.55 -20.65 -39.7 -20.45 -39.7 -20.2 -39.8 -20.0 -39.95 -19.8 -40.1 -19.55 Q-40.0 -19.35 -40.0 -19.15 L-40.05 -18.7 Q-40.1 -18.5 -40.05 -18.3 L-40.1 -18.2 -40.15 -18.05 -40.25 -17.85 -40.25 -17.75 -40.15 -17.65 -40.1 -17.55 -40.1 -17.4 -40.05 -17.3 -40.05 -17.1 -40.15 -16.9 -40.3 -16.7 -40.15 -16.65 -39.85 -16.45 -39.8 -16.4 -39.75 -16.3 Q-39.8 -16.05 -39.45 -16.15 L-39.3 -16.2 -39.05 -16.15 -38.85 -15.95 Q-38.65 -15.8 -38.55 -15.6 L-37.3 -15.6 Q-37.2 -15.55 -37.1 -15.5 L-37.05 -15.45 -36.95 -15.3 -36.95 -15.0 Q-35.2 -14.9 -33.45 -14.95 L-33.25 -14.85 -33.15 -14.75 Q-33.05 -14.35 -32.55 -14.45 L-31.65 -14.65 -31.65 -14.7 -31.55 -14.8 -31.4 -14.9 -31.3 -14.95 -31.0 -14.9 -30.8 -14.8 -30.7 -14.6 -30.7 -14.55 Q-30.0 -14.3 -29.25 -14.2 L-28.4 -14.15 -28.3 -14.25 -28.15 -14.45 Q-28.0 -14.75 -27.65 -14.9 L-27.55 -15.1 -27.45 -15.2 -27.45 -15.3 -27.2 -15.55 Q-26.9 -15.9 -26.45 -16.15 -26.4 -16.2 -26.35 -16.3 L-26.35 -16.4 -26.4 -16.5 -26.6 -16.7 -26.75 -16.95 -26.75 -17.05 -26.8 -17.15 -26.8 -17.45 -26.75 -17.55 -26.65 -17.7 -26.55 -17.8 -26.45 -17.85 -26.15 -17.9 -25.2 -18.05 -25.2 -18.8 Q-25.25 -19.05 -25.2 -19.25 L-25.1 -19.35 -24.85 -19.55 Q-24.55 -19.75 -24.25 -19.8 -23.65 -20.25 -23.05 -20.6 -22.45 -20.95 -22.0 -21.45 L-21.7 -21.5 -21.3 -21.4 -21.1 -21.3 -20.65 -21.3 -20.45 -21.4 -20.3 -21.5 -20.2 -21.7 -20.05 -21.8 -19.8 -22.05 -17.55 -22.35 -17.55 -22.4 -16.85 -22.35 Q-16.4 -22.35 -16.25 -21.95 L-16.25 -21.8 -16.3 -21.7 -16.3 -21.6 -16.2 -21.5 -16.2 -21.4 -16.15 -21.3 -16.15 -20.65 -16.2 -20.55 -16.35 -20.3 -16.45 -20.1 -16.3 -19.9 Q-15.8 -19.5 -15.2 -19.45 L-14.95 -19.2 -14.8 -19.1 -14.7 -19.0 -14.6 -18.8 -14.6 -18.7 -14.5 -18.6 -14.3 -18.45 Q-14.05 -18.35 -13.8 -18.15 L-13.75 -18.0 -13.7 -17.95 -13.65 -17.8 -13.55 -17.6 -13.55 -16.95 -13.7 -16.65 -14.0 -16.4 Q-14.2 -16.25 -14.35 -16.0 -14.45 -15.8 -14.55 -15.7 L-14.55 -15.6 -14.45 -15.45 -14.3 -15.25 -14.15 -15.1 -13.9 -15.0 -13.7 -14.8 -13.7 -14.7 -13.65 -14.55 -13.65 -14.15 -13.7 -14.05 -13.65 -13.95 -13.6 -13.8 -13.55 -13.7 -13.55 -13.65 -13.5 -13.65 -13.4 -13.6 -13.25 -13.5 -13.25 -13.4 -13.3 -13.35 -13.35 -13.2 -13.35 -12.9 -13.3 -12.85 -13.3 -12.6 -13.25 -12.55 -13.15 -12.3 -13.15 -12.2 -13.05 -12.15 -13.0 -12.1 -13.0 -11.65 -12.95 -11.55 -12.95 -11.5 -13.0 -11.4 -13.0 -11.2 -12.95 -11.1 -12.95 -10.65 -12.9 -10.6 -12.85 -10.7 -12.75 -10.75 -12.65 -10.75 -10.15 -10.8 -10.0 -10.95 -9.8 -11.05 -9.4 -11.05 -9.25 -11.0 -9.2 -10.95 -9.15 -10.85 -9.15 -10.8 -9.1 -10.7 -9.0 -10.55 -8.95 -10.5 -8.8 -10.45 -8.6 -10.35 -8.4 -10.2 -8.3 -10.1 -8.15 -10.05 -7.95 -10.15 -7.85 -10.1 -7.75 -10.1 -7.6 -9.95 -7.5 -9.9 -7.5 -9.85 -7.15 -9.75 Q-6.95 -9.7 -6.8 -9.6 L-6.75 -9.55 -6.15 -9.5 -6.0 -9.45 -5.9 -9.4 -5.85 -9.35 -5.1 -9.35 -5.05 -9.45 -5.05 -9.6 -5.0 -9.7 -4.95 -9.75 -4.95 -9.85 -4.65 -10.0 -4.65 -10.05 -4.6 -10.15 -4.55 -10.2 -4.5 -10.3 -4.45 -10.35 -4.4 -10.45 -4.35 -10.5 -4.05 -10.6 Q-3.55 -10.75 -3.0 -10.8 L-2.85 -10.9 -2.7 -10.95 -2.6 -11.0 -2.55 -11.05 -1.0 -11.1 -0.85 -11.2 -0.75 -11.3 Q0.6 -11.5 2.05 -11.4 L3.7 -11.05 4.85 -10.95 4.95 -11.0 5.0 -11.05 Q7.55 -11.25 10.0 -11.85 L10.75 -12.1 11.15 -12.3 11.15 -12.4 11.2 -12.45 11.25 -12.55 11.35 -12.6 11.4 -12.7 11.5 -12.75 11.65 -12.85 11.65 -13.75 11.6 -13.85 11.55 -13.9 11.55 -14.15 11.6 -14.2 11.65 -14.3 11.7 -14.35 11.85 -14.4 12.05 -14.55 12.05 -14.7 12.0 -14.8 11.85 -14.95 11.9 -15.1 11.9 -15.7 11.95 -15.95 11.95 -16.0 11.9 -16.0 11.65 -16.05 Q11.6 -16.05 11.5 -16.1 L11.35 -16.25 11.35 -16.3 11.3 -16.4 11.25 -16.45 11.25 -16.6 11.2 -16.7 11.15 -16.75 11.15 -16.85 11.1 -16.95 11.1 -17.0 11.05 -17.1 10.95 -17.15 10.95 -17.25 10.8 -17.4 10.7 -17.45 10.6 -17.55 10.45 -17.6 10.4 -17.6 10.25 -17.7 10.15 -17.8 10.15 -18.65 10.3 -18.9 10.6 -19.3 10.65 -19.35 10.65 -19.45 10.75 -19.5 Q10.9 -19.6 11.05 -19.75 L11.3 -19.95 11.35 -20.05 11.35 -20.25 11.45 -20.45 11.45 -20.5 11.5 -20.6 11.55 -20.75 11.6 -20.75 11.9 -20.85 11.9 -21.35 11.95 -21.45 11.9 -21.5 11.8 -21.7 11.75 -21.75 11.7 -21.9 11.75 -22.0 11.75 -22.05 11.8 -22.15 11.95 -22.15 11.95 -22.2 12.35 -22.15 12.8 -22.05 13.5 -21.85 14.0 -21.85 14.45 -22.05 14.5 -22.05 14.5 -22.15 14.45 -22.2 Q14.4 -22.35 14.5 -22.4 L14.6 -22.55 14.6 -22.6 Q14.5 -22.7 14.5 -22.85 L14.5 -23.25 Q14.15 -23.5 13.65 -23.6 13.5 -23.65 13.4 -23.75 L13.3 -23.9 13.3 -24.05 13.2 -24.2 13.15 -24.35 13.15 -24.45 13.2 -24.5 13.25 -24.6 13.25 -25.1 13.15 -25.3 13.05 -25.35 Q13.0 -25.45 13.0 -25.6 L13.0 -25.9 13.15 -26.1 Q13.25 -26.2 13.25 -26.35 L13.3 -26.45 13.35 -26.5 13.4 -26.6 13.45 -26.65 13.45 -26.75 13.6 -26.9 13.7 -26.95 Q15.1 -27.5 16.4 -28.3 L16.9 -28.6 Q18.4 -28.65 19.45 -29.7 L19.5 -29.8 19.65 -30.05 19.8 -30.35 19.8 -30.7 Q19.8 -30.85 19.9 -30.95 L20.05 -31.25 20.3 -31.5 20.3 -31.55 20.35 -31.65 20.55 -31.8 20.65 -31.85 21.45 -31.95 Q21.7 -32.05 21.85 -32.25 L22.1 -32.5 22.25 -32.55 22.4 -32.7 22.45 -32.7 22.65 -32.75 23.0 -33.05 23.2 -33.2 23.25 -33.25 23.3 -33.35 Q23.5 -33.45 23.7 -33.65 L23.95 -33.9 23.95 -33.95 24.0 -34.05 24.1 -34.1 24.2 -34.2 24.4 -34.5 Q24.55 -34.65 24.7 -34.7 L24.75 -34.7 Q24.85 -34.6 24.7 -34.45 M33.8 -33.7 L33.8 -33.7 M15.0 -22.45 L15.05 -22.45 15.0 -22.5 15.0 -22.45 M45.75 -3.8 Q46.0 -3.7 46.25 -3.65 L45.9 -3.75 Q45.85 -3.75 45.85 -3.8 L45.75 -3.8 M-27.2 -26.8 L-27.2 -26.75 -27.4 -26.85 -27.15 -26.8 -27.2 -26.8 M-36.9 -22.3 L-37.1 -22.3 -37.1 -22.25 -36.9 -22.25 -36.9 -22.3 M-30.3 -1.1 L-30.2 -1.2 -30.3 -0.95 -30.3 -1.1" fill="#ffffff" fill-rule="evenodd" stroke="none"/>
  </g>
</svg>
