<?xml version="1.0" encoding="UTF-8" standalone="no"?>
<svg xmlns:ffdec="https://www.free-decompiler.com/flash" xmlns:xlink="http://www.w3.org/1999/xlink" ffdec:objectType="shape" height="54.55px" width="44.7px" xmlns="http://www.w3.org/2000/svg">
  <g transform="matrix(1.0, 0.0, 0.0, 1.0, 64.75, 29.9)">
    <path d="M-39.1 -21.5 L-39.6 -21.6 -40.55 -21.95 Q-40.1 -22.6 -39.3 -22.3 -38.6 -22.05 -38.35 -21.55 L-38.55 -21.5 Q-37.85 -21.25 -37.6 -21.0 L-38.85 -21.4 -39.1 -21.5 M-25.7 -17.0 L-25.4 -16.95 Q-25.3 -16.9 -25.3 -16.55 -25.2 -16.25 -25.3 -16.15 L-25.5 -16.0 -25.8 -16.05 -25.85 -16.15 Q-25.9 -16.25 -25.95 -16.55 -26.0 -16.85 -25.9 -16.9 L-25.7 -17.0 M-31.65 -20.35 Q-31.1 -19.85 -30.95 -19.45 -31.15 -19.45 -31.85 -19.95 -32.5 -20.5 -32.55 -20.6 -32.55 -20.9 -32.5 -20.9 L-32.45 -20.85 Q-32.2 -20.85 -31.65 -20.35 M-31.8 21.2 L-31.7 21.35 Q-32.45 23.3 -33.2 24.15 L-33.35 24.4 -33.35 24.35 -33.7 24.65 -33.5 24.3 -33.75 24.45 -33.15 22.8 Q-32.75 21.8 -32.3 21.65 L-32.4 22.0 -31.95 21.2 Q-31.9 21.15 -31.8 21.2 M-33.45 5.0 Q-34.05 5.8 -34.65 6.2 L-34.7 6.1 Q-34.6 5.85 -34.4 5.45 L-34.8 6.1 -34.85 6.05 Q-34.6 5.4 -34.05 4.75 -33.6 4.05 -33.0 3.5 L-32.95 3.55 -33.35 4.1 Q-33.05 3.8 -32.75 3.6 L-32.7 3.65 -32.6 3.7 Q-33.05 4.5 -33.45 5.0 M-20.35 13.0 L-20.35 13.2 -20.25 13.45 -20.1 14.1 Q-20.0 14.45 -20.35 15.9 -20.35 15.95 -20.4 15.95 L-20.4 17.2 -20.6 17.2 -20.55 16.55 Q-20.75 17.3 -20.85 17.45 L-21.0 17.35 -21.15 17.05 -20.55 13.25 -20.45 13.25 -20.45 13.0 -20.35 13.0" fill="#ffffff" fill-rule="evenodd" stroke="none"/>
    <path d="M-21.0 -29.9 L-20.95 -29.9 Q-20.7 -28.9 -20.65 -28.6 -20.55 -28.1 -20.6 -26.15 L-20.75 -26.2 -20.75 -26.3 -20.85 -26.55 -21.0 -29.9 M-61.9 -23.9 Q-59.8 -22.8 -59.45 -22.4 -60.55 -22.75 -62.35 -23.65 -64.3 -24.55 -64.75 -25.1 -64.1 -25.1 -61.9 -23.9 M-48.45 -21.4 L-48.8 -21.65 -49.05 -21.9 -48.85 -22.1 -48.2 -22.2 Q-47.9 -22.2 -47.8 -21.8 -47.75 -21.4 -47.8 -21.4 L-47.9 -21.5 -48.45 -21.4 M-20.3 -18.8 L-20.2 -18.8 -20.15 -18.65 -20.1 -18.4 Q-20.1 -18.2 -20.1 -18.0 L-20.15 -17.7 -20.3 -17.7 Q-20.25 -17.95 -20.3 -18.3 L-20.3 -18.8 M-20.6 -24.4 L-20.35 -23.25 -20.3 -22.5 -20.35 -21.7 -20.4 -21.75 -20.6 -22.6 -20.65 -23.4 Q-20.65 -24.15 -20.7 -24.4 L-20.6 -24.4" fill="#ffffff" fill-opacity="0.8" fill-rule="evenodd" stroke="none"/>
  </g>
</svg>
