<?xml version="1.0" encoding="UTF-8" standalone="no"?>
<svg xmlns:ffdec="https://www.free-decompiler.com/flash" xmlns:xlink="http://www.w3.org/1999/xlink" ffdec:objectType="shape" height="50.15px" width="21.75px" xmlns="http://www.w3.org/2000/svg">
  <g transform="matrix(1.0, 0.0, 0.0, 1.0, 42.5, 21.85)">
    <path d="M-34.7 28.0 L-34.8 28.05 -35.05 28.3 -34.9 28.0 -34.95 28.0 Q-34.95 27.9 -34.95 27.75 L-35.1 27.95 Q-34.55 26.1 -34.25 25.8 L-34.2 25.75 -34.1 25.6 -33.95 25.55 -34.0 25.7 -33.9 25.75 -34.05 26.15 Q-33.8 26.7 -34.15 27.2 L-34.5 27.7 Q-34.6 27.95 -34.65 28.05 L-34.7 28.0 M-35.85 8.9 Q-36.05 9.35 -36.45 9.75 -36.65 9.75 -36.7 9.6 -36.65 9.2 -36.55 8.9 -36.3 8.3 -35.75 8.35 -35.65 8.5 -35.85 8.9 M-21.05 20.15 L-20.75 20.15 Q-20.8 21.45 -20.85 21.65 -20.9 22.55 -21.15 23.2 L-21.35 23.2 -21.45 23.0 -21.45 23.05 -21.6 23.05 -21.55 22.85 -21.55 22.8 Q-21.5 22.6 -21.35 21.55 -21.25 20.75 -21.05 20.15 M-41.75 -21.5 L-41.4 -21.55 Q-41.3 -21.55 -41.3 -21.35 L-41.45 -21.3 -41.4 -21.3 Q-41.45 -21.15 -41.6 -21.0 -41.85 -20.75 -42.15 -20.7 -42.45 -20.65 -42.45 -20.75 L-42.5 -20.9 -42.4 -21.15 Q-42.35 -21.3 -42.35 -21.4 -42.0 -21.5 -41.75 -21.5 M-27.35 -16.7 L-27.4 -16.5 Q-27.4 -16.4 -27.7 -16.4 L-28.0 -16.4 -28.0 -16.5 Q-28.0 -16.6 -28.1 -16.7 -28.15 -16.85 -28.1 -17.05 -28.0 -17.2 -27.85 -17.3 -27.7 -17.3 -27.55 -17.05 -27.35 -16.9 -27.35 -16.7 M-34.7 -21.65 Q-34.35 -21.9 -34.0 -21.8 -33.95 -21.5 -34.15 -21.3 L-34.0 -21.2 -34.2 -21.2 -34.4 -21.1 Q-34.6 -21.0 -35.15 -20.9 L-35.15 -21.05 Q-35.1 -21.45 -34.7 -21.65" fill="#ffffff" fill-rule="evenodd" stroke="none"/>
  </g>
</svg>
