<?xml version="1.0" encoding="UTF-8" standalone="no"?>
<svg xmlns:ffdec="https://www.free-decompiler.com/flash" xmlns:xlink="http://www.w3.org/1999/xlink" ffdec:objectType="shape" height="51.55px" width="30.05px" xmlns="http://www.w3.org/2000/svg">
  <g transform="matrix(1.0, 0.0, 0.0, 1.0, 43.55, 21.3)">
    <path d="M-17.6 10.25 L-17.5 10.25 -17.3 10.3 -16.5 10.25 -16.4 10.1 -16.35 10.1 -16.45 10.3 -17.25 10.45 -17.6 10.25 M-13.55 -1.1 L-13.5 -0.65 -13.9 2.7 Q-14.15 4.65 -14.6 6.1 L-14.7 6.1 -14.3 4.25 Q-14.1 3.1 -14.05 2.5 -14.05 2.2 -13.7 0.7 -13.5 -0.45 -13.6 -1.1 L-13.55 -1.1 M-20.75 -2.55 L-20.75 -0.1 -20.85 -0.1 -20.8 -5.0 -20.75 -5.0 Q-20.7 -4.15 -20.75 -2.55 M-14.5 -12.0 L-14.6 -12.0 -15.65 -14.9 Q-15.3 -14.5 -15.0 -13.55 L-14.5 -12.0" fill="#ffffff" fill-rule="evenodd" stroke="none"/>
    <path d="M-35.9 29.5 L-35.75 28.95 Q-35.55 28.3 -34.9 28.3 -34.95 28.5 -35.05 29.3 -35.25 30.0 -35.8 30.25 -36.0 30.2 -36.05 30.1 -35.95 29.85 -35.9 29.5 M-36.7 10.75 L-36.55 10.85 Q-36.65 11.2 -36.5 11.85 -36.9 11.95 -37.05 11.8 -37.1 11.75 -37.1 11.8 L-37.15 11.55 Q-37.25 11.05 -37.05 10.8 -36.95 10.65 -36.8 10.7 L-36.7 10.7 -36.7 10.75 M-21.65 23.4 L-21.45 23.3 Q-21.3 23.25 -21.3 23.55 -21.2 23.85 -21.35 24.4 L-21.55 25.3 -21.7 25.25 Q-21.8 25.4 -22.0 25.5 L-21.85 24.95 Q-21.8 24.85 -21.8 24.75 -21.7 24.1 -21.65 23.4 M-43.1 -20.45 L-43.05 -20.45 -43.0 -20.5 Q-42.7 -20.65 -42.4 -20.6 -42.4 -20.35 -42.45 -20.1 -42.6 -19.6 -43.05 -19.55 L-43.4 -19.55 -43.55 -19.75 Q-43.55 -19.95 -43.3 -20.25 -43.2 -20.4 -43.1 -20.45 M-35.05 -21.3 L-35.0 -21.25 -34.95 -21.05 -34.75 -21.15 -34.75 -20.95 -34.95 -20.8 -35.15 -20.5 Q-35.35 -20.2 -35.6 -20.05 L-35.5 -20.4 -35.55 -20.45 Q-35.55 -20.65 -35.4 -21.05 L-35.3 -21.05 -35.25 -21.3 -35.05 -21.3 M-28.65 -15.2 Q-28.45 -15.3 -28.3 -15.3 -28.1 -15.3 -28.05 -15.0 -28.05 -14.8 -28.15 -14.6 -28.25 -14.4 -28.5 -14.2 -28.65 -14.25 -28.75 -14.3 L-28.9 -14.5 Q-28.95 -15.0 -28.65 -15.2" fill="#ffffff" fill-rule="evenodd" stroke="none"/>
  </g>
</svg>
