<?xml version="1.0" encoding="UTF-8" standalone="no"?>
<svg xmlns:ffdec="https://www.free-decompiler.com/flash" xmlns:xlink="http://www.w3.org/1999/xlink" ffdec:objectType="shape" height="89.8px" width="80.65px" xmlns="http://www.w3.org/2000/svg">
  <g transform="matrix(1.0, 0.0, 0.0, 1.0, 30.15, 48.4)">
    <path d="M25.3 -30.2 Q24.85 -29.7 24.1 -29.45 23.7 -29.3 22.95 -28.8 22.5 -28.5 21.6 -28.5 21.4 -28.5 21.4 -28.35 21.4 -28.15 21.25 -28.15 20.7 -28.15 20.65 -28.85 20.65 -29.05 20.75 -29.6 L20.75 -29.7 Q20.3 -29.6 19.75 -29.2 19.2 -28.85 18.85 -28.4 18.8 -28.35 18.75 -28.3 18.65 -28.3 18.65 -28.5 18.65 -28.75 19.75 -29.5 20.8 -30.3 22.15 -30.9 23.6 -31.65 24.55 -31.75 25.65 -31.85 25.65 -31.05 25.65 -30.65 25.3 -30.2 M15.7 -42.55 Q16.65 -43.05 17.25 -43.15 17.95 -43.25 17.95 -42.65 17.95 -42.0 15.1 -40.5 L14.5 -40.6 14.2 -40.6 Q14.05 -40.55 13.3 -40.4 13.4 -40.8 14.1 -41.45 14.8 -42.05 15.7 -42.55 M20.2 -45.9 Q19.35 -45.25 18.5 -45.25 L18.1 -45.3 18.0 -45.35 Q18.0 -45.5 18.05 -45.7 18.1 -45.9 18.2 -46.05 14.8 -46.1 12.75 -45.95 10.85 -45.75 10.25 -45.45 10.15 -45.4 8.95 -45.1 L7.6 -44.8 7.6 -44.75 Q7.55 -44.75 7.55 -44.95 7.55 -45.45 10.25 -46.2 12.7 -46.95 15.6 -47.4 L17.9 -47.7 19.45 -47.85 Q21.1 -48.05 21.1 -47.0 21.1 -46.5 20.2 -45.9 M20.2 -47.0 Q20.15 -47.05 19.85 -47.05 L19.55 -47.0 Q19.6 -46.8 19.6 -46.6 L19.65 -46.55 20.2 -47.0 M5.05 -45.35 Q5.0 -45.5 4.85 -45.5 4.5 -45.5 4.0 -45.25 L3.5 -44.95 Q3.3 -44.95 3.25 -45.0 L3.15 -45.15 Q3.55 -45.55 4.45 -46.25 5.5 -47.05 6.45 -47.6 9.05 -49.15 9.05 -47.75 9.05 -47.4 8.1 -46.05 7.05 -44.6 6.5 -44.6 L6.2 -44.6 5.95 -44.7 Q5.95 -44.95 6.0 -45.1 6.05 -45.35 6.25 -45.55 6.15 -45.55 5.9 -45.35 5.65 -45.15 5.3 -45.15 5.15 -45.15 5.05 -45.35 M9.0 -34.85 Q9.05 -34.7 9.05 -34.5 9.05 -33.95 8.85 -33.7 8.6 -33.4 7.8 -32.9 7.05 -32.5 6.7 -32.1 L6.1 -31.45 4.35 -30.15 Q3.35 -29.45 2.75 -28.8 L2.6 -28.7 Q3.65 -28.9 4.0 -28.4 4.15 -28.15 4.15 -27.6 4.15 -27.15 3.5 -26.65 L2.4 -25.9 Q2.0 -25.65 1.4 -25.0 0.75 -24.3 0.55 -24.2 L0.45 -24.25 Q0.8 -25.0 1.25 -25.7 1.75 -26.5 2.25 -27.05 L2.25 -27.65 1.65 -27.6 1.2 -27.75 Q1.15 -27.8 1.15 -28.0 1.15 -28.3 2.5 -29.1 4.05 -30.05 4.6 -30.75 L5.7 -32.1 Q6.55 -33.2 6.55 -33.75 6.55 -33.95 6.5 -34.05 L6.4 -34.15 Q6.25 -34.15 6.25 -34.1 L6.3 -34.0 Q5.8 -33.85 5.6 -34.15 5.5 -34.3 5.5 -34.5 5.5 -34.85 6.2 -35.15 7.1 -35.45 8.55 -35.25 8.9 -35.0 9.0 -34.85 M10.65 -28.45 Q10.6 -28.6 10.6 -28.8 10.6 -28.95 11.45 -29.7 12.3 -30.35 12.55 -30.5 13.1 -30.85 14.15 -31.0 15.5 -31.25 15.5 -30.6 15.5 -30.2 14.85 -29.7 14.1 -29.15 14.0 -28.7 L13.75 -27.9 Q13.5 -27.3 12.8 -27.05 L12.8 -26.9 13.85 -26.8 Q13.35 -26.35 13.1 -26.35 L12.75 -26.4 12.65 -26.45 12.6 -26.5 Q12.5 -26.55 12.5 -26.75 12.5 -27.05 12.75 -27.6 12.95 -28.05 13.2 -28.45 13.2 -28.5 12.95 -28.55 L12.1 -28.45 Q11.35 -28.35 11.2 -28.25 L10.85 -28.3 10.65 -28.45 M11.85 -15.05 Q11.9 -15.0 11.9 -14.75 11.9 -14.45 11.8 -14.3 11.7 -14.1 11.05 -13.65 L10.75 -13.35 Q10.05 -12.65 9.4 -12.65 8.95 -12.65 8.7 -13.05 8.55 -13.25 8.55 -13.45 8.55 -14.15 9.0 -14.6 9.4 -15.0 10.0 -15.1 L10.55 -15.15 Q10.95 -15.3 11.45 -15.35 11.8 -15.25 11.85 -15.05 M2.6 -13.2 Q2.6 -12.85 2.0 -12.55 1.1 -12.1 0.9 -11.85 L0.25 -11.2 Q-0.25 -10.7 -0.5 -10.7 -0.85 -10.7 -0.85 -10.75 -0.9 -10.9 -0.8 -11.1 -0.75 -11.3 -0.65 -11.5 L-0.7 -11.55 Q-0.75 -11.65 -0.75 -11.7 L-1.3 -11.75 -1.95 -11.6 Q-2.45 -11.45 -2.6 -11.4 L-2.8 -11.45 -3.1 -11.6 -3.15 -11.75 Q-2.7 -12.2 -2.05 -12.4 L-0.7 -12.8 Q-0.4 -12.9 -0.1 -13.05 L0.35 -13.4 Q0.95 -13.85 2.05 -13.9 2.35 -13.65 2.5 -13.45 2.6 -13.3 2.6 -13.2 M9.7 -0.1 Q8.1 0.65 5.85 0.7 5.0 0.6 4.85 0.35 4.75 0.25 4.75 -0.15 4.75 -0.95 5.75 -1.5 6.6 -2.0 7.9 -2.15 9.15 -2.3 10.1 -2.1 11.05 -1.9 11.05 -1.4 11.05 -0.75 9.7 -0.1 M18.9 -7.7 Q18.65 -7.7 18.45 -8.1 18.3 -8.4 18.3 -8.55 18.3 -9.15 20.5 -10.1 22.65 -11.05 23.85 -10.95 24.15 -10.75 24.25 -10.55 24.35 -10.4 24.35 -10.35 24.35 -9.85 23.85 -9.55 L22.55 -8.75 Q22.15 -8.45 20.7 -8.05 19.3 -7.7 18.9 -7.7 M15.3 -8.0 Q14.6 -7.7 13.3 -7.65 12.7 -7.6 12.55 -7.9 L12.5 -8.25 Q12.5 -8.65 13.0 -9.05 13.5 -9.4 14.2 -9.5 14.9 -9.65 15.35 -9.5 15.9 -9.35 15.9 -8.85 15.9 -8.3 15.3 -8.0 M46.9 27.3 Q46.25 27.3 46.1 26.95 L46.1 26.6 Q46.1 25.8 46.95 25.3 47.9 24.7 49.95 24.55 50.3 24.6 50.45 25.0 50.5 25.25 50.5 25.45 50.5 25.95 49.7 26.55 48.6 27.3 46.9 27.3 M26.95 6.5 Q26.4 7.25 26.1 7.5 25.3 7.55 25.1 7.7 24.9 7.9 24.6 8.05 L23.35 8.15 Q23.2 8.15 22.75 8.5 22.35 8.8 22.3 8.9 L22.2 8.8 Q22.15 8.75 22.15 8.55 22.15 7.9 23.4 6.8 L24.85 5.6 25.15 4.85 Q25.5 4.3 26.1 4.3 26.6 4.25 27.05 4.65 27.5 5.05 27.5 5.45 27.5 5.7 26.95 6.5 M22.55 10.5 Q22.3 11.0 21.4 11.0 L19.4 10.95 19.15 10.75 Q19.1 10.65 19.1 10.4 19.1 9.9 19.65 9.45 20.15 9.05 20.85 8.85 L22.05 8.9 Q22.6 9.15 22.6 9.85 22.6 10.35 22.55 10.5 M27.25 26.35 Q26.9 26.15 26.85 25.9 26.8 25.8 26.8 25.4 26.8 24.9 27.05 24.5 27.25 24.15 27.6 24.05 27.9 24.0 28.1 24.25 28.35 24.55 28.35 25.15 L28.3 25.75 Q28.2 26.1 27.75 26.4 L27.25 26.35 M20.8 2.7 L20.8 2.8 Q20.75 2.85 20.55 2.85 L20.25 2.85 20.05 2.75 19.95 2.3 Q20.0 1.75 20.45 1.8 20.85 1.85 20.85 2.3 L20.8 2.7 M12.65 13.0 Q12.95 13.05 12.95 13.55 12.95 13.9 12.6 14.4 12.2 15.0 11.75 15.0 L11.4 14.95 11.3 14.95 11.25 14.9 Q11.2 14.85 11.2 14.65 11.2 14.25 11.5 13.85 11.75 13.45 12.05 13.2 12.45 12.95 12.65 13.0 M1.05 5.9 Q1.0 5.75 1.0 5.5 1.0 5.05 1.65 4.55 2.55 3.85 4.15 3.85 4.35 4.0 4.55 4.2 4.75 4.45 4.75 4.55 4.75 4.8 4.0 5.45 3.2 6.2 2.5 6.2 L1.3 6.15 1.05 5.9 M1.95 7.6 L1.7 8.2 1.15 8.15 0.95 7.9 Q0.95 7.8 0.95 7.55 0.95 7.1 1.5 6.8 2.05 6.5 2.05 7.2 L1.95 7.6 M3.1 12.75 Q3.45 12.45 4.0 12.5 4.55 12.55 4.9 12.85 5.3 13.15 5.3 13.65 5.3 13.95 4.75 14.55 L3.8 14.6 Q3.3 14.6 2.95 14.1 L2.7 13.65 Q2.7 13.05 3.1 12.75 M1.3 14.9 Q1.4 14.95 1.4 15.15 L1.6 15.4 Q1.85 15.65 1.85 15.75 L1.3 16.75 0.9 16.7 Q0.75 16.55 0.7 16.4 0.65 16.25 0.65 15.95 0.65 15.55 0.7 15.4 0.75 15.2 1.1 14.85 L1.3 14.9 M10.45 23.4 Q10.85 23.9 10.85 24.25 10.85 24.65 10.55 25.05 10.35 25.35 9.95 25.6 L10.05 25.6 Q10.55 25.55 10.85 25.8 11.25 26.05 11.25 26.5 11.25 26.8 10.85 27.2 10.45 27.65 10.0 27.65 9.45 27.65 9.15 27.4 8.85 27.15 8.85 26.85 8.85 26.25 9.25 25.9 L9.3 25.85 Q8.65 25.85 8.15 24.95 7.65 24.1 7.65 23.55 7.65 23.15 8.0 22.9 8.3 22.7 8.7 22.7 9.85 22.7 10.45 23.4 M16.2 23.75 Q16.2 23.4 16.65 23.05 17.05 22.75 17.6 22.6 18.15 22.45 18.5 22.65 18.95 22.85 18.95 23.45 18.95 23.95 18.75 24.3 18.45 24.8 17.7 25.1 L16.75 25.05 Q16.6 24.9 16.4 24.35 16.2 23.8 16.2 23.75 M14.8 29.6 L14.3 29.7 14.05 29.8 13.05 29.75 Q12.35 29.7 12.15 29.8 12.25 29.9 12.4 29.9 L12.1 29.9 Q10.8 29.85 10.1 29.1 9.9 28.9 9.75 28.6 L9.65 28.45 Q9.65 27.9 10.15 27.85 L12.4 27.75 Q13.65 28.0 14.1 28.1 15.2 28.5 15.2 29.0 15.2 29.05 14.8 29.6 M0.3 33.1 L-0.6 33.05 -0.8 32.9 Q-0.95 32.75 -0.95 32.55 -0.95 32.4 -0.25 31.9 L0.7 31.15 Q1.0 30.9 1.05 30.9 L2.6 30.8 3.3 31.05 4.15 31.0 Q4.8 31.0 5.05 31.35 5.15 31.45 5.15 31.75 5.15 31.85 4.9 32.1 4.6 32.35 4.45 32.6 L3.35 32.5 Q3.15 32.45 3.05 32.35 2.85 32.55 2.45 32.75 1.6 33.1 0.3 33.1 M10.55 37.4 Q11.0 37.75 11.0 38.6 11.0 38.85 10.75 39.05 10.55 39.25 10.05 39.55 L9.3 39.55 Q8.55 39.05 8.35 38.9 8.1 38.7 8.1 38.35 8.1 38.1 8.55 37.75 9.0 37.4 9.55 37.25 10.15 37.15 10.55 37.4 M38.1 30.7 L37.0 31.45 36.2 31.5 Q35.35 31.5 35.0 31.1 34.75 30.9 34.75 30.6 34.75 30.05 35.35 29.6 35.95 29.2 36.75 29.0 37.55 28.85 38.1 29.05 38.7 29.25 38.7 29.85 38.7 30.3 38.1 30.7 M29.5 32.95 Q29.9 33.2 29.9 33.55 29.9 34.15 29.55 34.5 29.05 34.95 27.75 35.35 27.2 34.9 27.2 34.65 27.2 33.75 27.6 33.25 27.95 32.8 28.55 32.75 29.05 32.7 29.5 32.95 M-19.8 -32.4 Q-19.8 -32.3 -20.15 -31.75 -20.45 -31.2 -20.7 -30.95 -20.85 -30.8 -21.05 -30.35 L-21.3 -29.7 Q-22.05 -29.85 -22.85 -30.5 -22.35 -30.95 -21.65 -32.05 -20.9 -32.95 -19.85 -32.8 -19.8 -32.75 -19.8 -32.4 M-24.5 -27.75 L-24.85 -27.35 -27.3 -27.15 Q-27.1 -27.55 -26.6 -28.1 -26.05 -28.65 -25.5 -28.95 -24.2 -29.75 -24.2 -28.3 -24.2 -28.15 -24.5 -27.75 M-22.6 -16.45 Q-23.65 -14.85 -24.65 -13.2 L-25.1 -12.35 Q-25.45 -11.75 -25.6 -11.55 -26.0 -11.1 -26.5 -10.7 -27.05 -10.25 -27.2 -10.25 -27.75 -10.25 -27.85 -10.6 L-27.85 -11.05 -28.2 -11.15 -28.75 -11.75 Q-29.0 -11.65 -29.25 -11.45 L-29.55 -11.2 Q-30.0 -11.35 -30.1 -11.6 -30.15 -11.7 -30.15 -12.05 -30.15 -12.65 -29.9 -13.1 -29.6 -13.75 -29.0 -13.75 -28.3 -13.75 -27.65 -12.7 -27.1 -11.85 -27.05 -11.3 -25.9 -12.05 -24.7 -13.8 -23.3 -15.8 -22.6 -16.45 M-3.0 -25.75 Q-1.7 -26.1 -1.7 -25.2 -1.7 -24.35 -4.05 -21.35 -5.8 -19.15 -6.55 -18.4 L-6.7 -18.45 Q-6.4 -19.1 -5.6 -20.8 -4.95 -22.15 -4.85 -22.7 L-6.05 -22.6 -6.3 -22.7 -6.85 -22.75 Q-7.2 -22.75 -7.6 -22.4 L-8.25 -21.9 -8.3 -21.9 -8.3 -22.15 Q-8.3 -22.55 -7.05 -23.15 -5.5 -23.85 -4.95 -24.5 -4.2 -25.4 -3.0 -25.75 M-3.0 -24.85 L-2.95 -24.9 -3.2 -24.85 -3.35 -24.75 -3.6 -24.65 -3.4 -24.2 -3.2 -24.55 -3.0 -24.85 M-3.0 -14.6 Q-2.4 -14.3 -2.4 -13.85 -2.4 -13.6 -3.4 -12.85 -4.35 -12.05 -4.55 -12.05 -4.95 -12.05 -5.05 -12.4 -5.15 -12.55 -5.15 -12.75 L-4.95 -13.05 -4.75 -13.45 -4.8 -13.65 -4.85 -13.75 -5.7 -13.45 Q-6.35 -13.2 -6.65 -13.25 L-6.7 -13.3 Q-6.75 -13.3 -6.75 -13.5 -6.75 -13.8 -5.85 -14.25 -5.25 -14.5 -4.65 -14.7 -3.7 -15.05 -3.0 -14.6 M-15.9 -22.35 Q-16.0 -21.95 -16.05 -21.8 -16.15 -21.55 -16.55 -21.55 L-16.9 -21.6 -16.95 -21.7 -16.95 -22.45 Q-17.65 -21.85 -19.3 -20.0 -20.6 -18.5 -21.45 -17.85 L-21.6 -17.85 Q-21.65 -17.85 -21.65 -18.05 -21.65 -18.5 -20.15 -20.4 -19.4 -21.35 -18.55 -22.35 -18.4 -22.55 -17.95 -23.35 -17.55 -24.05 -17.2 -24.4 -16.4 -25.15 -15.95 -24.6 -15.6 -24.15 -15.6 -23.45 -15.6 -23.05 -15.9 -22.35 M-5.85 39.55 Q-5.55 39.2 -5.15 39.05 -4.8 38.95 -4.5 39.15 -4.2 39.3 -4.2 39.7 -4.2 40.05 -4.55 40.7 -4.95 41.4 -5.25 41.4 -5.9 41.4 -6.05 41.05 L-6.15 40.6 Q-6.15 40.0 -5.85 39.55 M-16.2 27.5 Q-16.2 27.55 -16.2 27.75 -16.2 27.95 -16.35 28.2 L-16.8 28.85 -17.2 28.8 -17.3 28.65 Q-17.4 28.5 -17.4 28.3 -17.4 27.95 -17.15 27.6 -16.8 27.1 -16.25 27.45 L-16.2 27.5" fill="#484848" fill-rule="evenodd" stroke="none"/>
  </g>
</svg>
