<?xml version="1.0" encoding="UTF-8" standalone="no"?>
<svg xmlns:ffdec="https://www.free-decompiler.com/flash" xmlns:xlink="http://www.w3.org/1999/xlink" ffdec:objectType="shape" height="29.15px" width="55.7px" xmlns="http://www.w3.org/2000/svg">
  <g transform="matrix(1.0, 0.0, 0.0, 1.0, 9.1, 15.1)">
    <path d="M1.9 -7.4 L1.5 -7.05 Q3.0 -7.35 5.5 -8.2 8.65 -9.3 10.0 -9.7 L15.15 -11.1 Q17.6 -11.75 19.85 -12.5 20.3 -12.45 20.35 -12.35 20.2 -12.05 20.05 -11.9 L20.7 -12.15 21.45 -12.45 21.75 -12.6 Q22.55 -13.0 23.35 -13.25 L23.35 -13.3 28.35 -14.55 Q31.15 -15.25 32.15 -15.05 31.9 -14.8 31.0 -14.1 L29.55 -13.15 29.5 -13.1 29.85 -13.15 30.0 -13.1 30.05 -13.1 30.1 -13.05 30.0 -13.0 30.0 -12.95 28.7 -12.0 27.35 -10.95 24.45 -8.7 24.3 -8.65 Q24.85 -8.7 25.4 -9.05 L25.5 -9.05 Q25.55 -9.05 25.55 -8.9 25.55 -8.6 24.4 -7.9 L23.25 -7.25 23.95 -7.45 Q24.8 -7.65 24.95 -7.55 L24.55 -7.2 Q24.3 -7.0 24.3 -6.9 L24.3 -6.85 Q24.85 -7.15 25.05 -7.2 L25.3 -7.15 25.3 -7.1 25.0 -6.9 25.65 -7.0 25.75 -6.95 26.7 -7.2 Q27.85 -7.55 29.05 -7.7 L29.55 -7.75 30.2 -7.7 29.3 -6.9 Q28.65 -6.35 28.2 -6.05 L28.25 -6.0 28.65 -5.95 31.85 -6.6 32.5 -6.8 Q33.95 -7.2 35.75 -7.4 35.8 -7.45 35.8 -7.3 35.8 -7.2 35.35 -6.95 34.75 -6.5 33.75 -5.75 32.6 -4.9 31.75 -4.3 L31.65 -4.2 Q31.8 -4.2 32.55 -4.4 L33.4 -4.6 Q33.5 -4.6 33.55 -4.5 L33.05 -4.15 32.65 -3.9 32.5 -3.75 36.35 -4.7 Q39.1 -5.4 39.45 -5.4 L40.05 -5.35 Q40.2 -5.5 40.35 -5.5 L40.25 -5.3 40.2 -5.25 Q39.75 -4.6 38.85 -3.95 38.55 -3.75 38.15 -3.45 L36.85 -2.55 36.85 -2.5 Q37.15 -2.45 37.0 -2.3 L37.8 -2.4 38.35 -2.5 39.05 -2.5 Q39.8 -2.45 39.8 -2.35 L39.6 -2.2 Q39.45 -2.1 39.5 -2.1 L40.9 -2.15 41.6 -2.2 Q43.5 -2.2 44.75 -2.0 L45.05 -2.0 45.7 -1.95 46.6 -1.8 46.55 -1.75 45.4 -1.75 44.8 -1.8 44.55 -1.75 41.85 -1.6 40.5 -1.6 39.55 -1.55 37.35 -1.5 37.25 -1.45 33.3 -1.4 33.25 -1.65 33.25 -1.7 Q32.85 -1.65 32.55 -1.45 32.3 -1.3 30.95 -1.3 L29.05 -1.35 26.85 -1.45 26.8 -1.6 26.9 -1.75 27.05 -1.9 25.8 -1.65 24.15 -1.35 23.5 -1.35 22.4 -1.45 22.35 -1.45 21.05 -1.4 21.05 -1.35 Q21.0 -1.35 21.0 -1.5 21.0 -1.65 21.1 -1.7 L21.15 -1.8 21.2 -1.85 20.4 -1.65 19.7 -1.5 19.5 -1.5 19.5 -1.6 19.4 -1.6 Q19.2 -1.7 19.15 -1.8 19.1 -1.85 19.1 -2.05 19.1 -2.35 19.55 -2.6 20.3 -3.0 20.35 -3.0 19.5 -3.0 17.75 -2.65 16.1 -2.35 15.8 -2.35 L15.35 -2.35 15.2 -2.4 Q15.15 -2.45 15.15 -2.6 15.15 -2.85 15.55 -3.1 L16.35 -3.55 16.45 -3.7 16.2 -3.7 Q15.55 -3.7 13.75 -3.25 12.0 -2.8 11.85 -2.75 L11.65 -2.8 11.6 -3.0 11.85 -3.25 Q12.05 -3.45 12.15 -3.5 L11.65 -3.35 Q11.2 -3.15 11.0 -3.15 10.45 -3.15 10.25 -3.25 10.3 -3.75 11.4 -4.4 12.1 -4.85 13.4 -5.45 L13.55 -5.6 Q10.65 -5.2 8.55 -4.45 6.35 -3.7 4.4 -3.4 L4.25 -3.45 Q4.2 -3.45 4.2 -3.65 4.2 -3.8 4.75 -4.45 L5.3 -5.05 5.3 -5.1 Q4.65 -4.95 3.85 -4.8 L2.45 -4.55 1.85 -4.4 0.9 -4.05 -0.55 -3.5 Q-1.6 -3.1 -1.95 -3.1 L-2.2 -3.15 -2.4 -3.25 -2.5 -3.45 -2.55 -3.7 Q-2.75 -3.6 -3.25 -3.35 -3.65 -3.15 -3.75 -3.15 L-4.05 -3.2 Q-4.1 -3.3 -4.2 -3.45 -4.2 -3.6 -3.95 -3.9 L-3.65 -4.2 -3.55 -4.25 -5.55 -3.65 Q-6.95 -3.15 -7.3 -2.9 L-7.4 -2.9 Q-7.5 -2.85 -7.5 -3.0 -7.5 -3.25 -6.85 -3.65 L-5.6 -4.45 -5.55 -4.45 -5.5 -4.4 Q-4.35 -5.05 -2.15 -5.95 L-1.4 -6.25 Q-0.8 -6.55 0.85 -7.5 2.3 -8.25 2.6 -8.05 L2.3 -7.9 2.2 -7.75 1.95 -7.45 1.9 -7.4 M41.45 1.65 L39.85 1.8 39.0 1.9 38.35 2.0 38.3 2.0 38.0 1.95 37.8 1.95 36.95 2.05 37.3 2.2 Q37.8 2.3 37.95 2.4 L37.55 2.7 37.45 2.8 Q37.4 2.95 37.2 3.05 36.75 3.2 34.0 3.3 L34.05 3.3 35.75 3.6 35.75 3.8 35.55 3.8 35.0 3.75 34.1 3.65 33.4 3.6 32.45 3.6 31.45 3.55 30.65 3.55 30.4 3.5 30.15 3.5 Q30.4 3.55 30.9 3.75 31.35 3.9 32.0 4.0 L32.15 4.15 32.1 4.3 31.95 4.4 31.9 4.4 32.15 4.5 32.75 4.65 Q33.5 4.95 33.6 5.1 L33.55 5.15 32.0 5.15 30.1 5.1 29.7 5.05 29.1 5.0 31.15 5.5 Q33.5 6.05 34.85 6.3 L35.0 6.45 35.0 6.55 Q34.1 6.6 34.1 6.7 L33.3 6.8 32.9 6.9 31.6 6.95 27.4 6.95 27.2 7.0 Q26.9 7.15 26.8 7.15 L26.5 7.15 28.2 8.1 28.2 8.15 Q27.95 8.2 27.85 8.15 L25.45 8.2 25.6 8.25 27.6 8.85 Q29.3 9.4 30.35 9.75 L31.4 10.15 34.15 10.85 34.15 10.9 36.75 11.45 36.8 11.45 36.85 11.5 36.05 11.5 Q36.0 11.55 35.9 11.55 L35.85 11.6 33.6 11.7 32.0 11.7 30.35 11.65 29.05 11.55 Q28.6 11.6 27.95 11.4 L27.1 11.2 26.5 11.2 27.1 11.4 Q27.65 11.55 27.75 11.7 L26.95 11.7 Q27.2 11.8 27.5 12.0 L28.1 12.3 Q28.5 12.5 28.65 12.6 28.7 12.65 28.55 12.65 L27.35 12.5 Q28.4 12.95 29.45 13.9 L29.4 14.05 Q27.8 13.85 25.15 12.95 L21.65 11.7 Q19.0 10.75 18.3 10.5 17.15 10.2 15.15 9.7 L15.25 9.8 15.9 10.35 16.0 10.4 16.05 10.55 Q13.95 10.2 11.25 9.1 8.5 7.9 7.6 7.55 L7.35 7.55 7.7 7.9 Q8.0 8.2 8.15 8.45 L8.1 8.5 8.0 8.55 Q6.8 8.1 2.25 6.6 -1.0 5.55 -2.3 4.95 L-2.5 4.85 -2.2 5.05 -1.75 5.5 -1.75 5.6 -1.9 5.65 Q-2.65 5.65 -4.0 4.85 L-4.0 4.8 -4.05 4.8 -4.4 4.65 -4.7 4.55 -6.55 3.8 -7.9 3.2 -7.95 3.2 -8.15 3.1 Q-8.4 2.95 -8.7 2.85 -8.95 2.6 -9.0 2.4 -9.1 2.2 -9.1 1.85 L-9.0 1.8 -6.95 2.6 Q-5.1 3.4 -5.0 3.4 -4.85 3.4 -4.9 3.3 L-4.9 3.15 Q-3.3 3.5 0.7 4.65 3.9 5.55 5.15 5.65 L5.25 5.65 4.45 4.85 Q4.5 4.8 4.7 4.75 L4.9 4.7 Q4.0 3.85 3.35 2.9 L3.45 2.85 Q5.45 3.25 7.6 3.9 L11.4 5.1 11.55 5.1 Q11.2 4.9 10.85 4.55 10.35 4.1 10.35 3.85 L10.4 3.7 11.8 3.85 13.75 4.05 15.0 4.1 15.9 4.15 17.6 4.15 16.25 3.5 Q15.2 3.0 15.2 2.95 L15.2 2.8 15.25 2.75 18.55 3.0 Q20.45 3.25 25.6 4.1 L25.95 4.1 Q25.55 3.95 24.65 3.35 23.55 2.65 23.55 2.4 23.55 2.25 23.65 2.2 23.7 2.15 23.75 2.1 L27.45 2.6 28.2 2.6 Q27.7 2.55 27.55 2.4 27.45 2.3 27.45 2.05 27.45 1.85 27.75 1.75 27.95 1.65 28.55 1.6 L29.65 1.5 29.6 1.4 29.65 1.4 29.65 1.35 29.75 1.35 29.65 1.2 30.35 1.2 31.1 1.25 31.25 1.2 31.4 1.2 31.5 1.25 34.6 1.25 35.2 1.3 36.5 1.35 37.2 1.4 38.7 1.5 39.75 1.45 39.75 1.4 39.7 1.4 42.4 1.35 43.45 1.3 45.15 1.2 45.15 1.15 45.25 1.15 45.4 1.2 45.15 1.35 43.55 1.55 41.45 1.65 M37.4 1.25 L37.4 1.25 M33.3 1.3 L33.3 1.3 M33.05 4.95 L33.05 4.95" fill="#4e4b7e" fill-opacity="0.5019608" fill-rule="evenodd" stroke="none"/>
  </g>
</svg>
