<?xml version="1.0" encoding="UTF-8" standalone="no"?>
<svg xmlns:ffdec="https://www.free-decompiler.com/flash" xmlns:xlink="http://www.w3.org/1999/xlink" ffdec:objectType="shape" height="47.1px" width="52.05px" xmlns="http://www.w3.org/2000/svg">
  <g transform="matrix(1.0, 0.0, 0.0, 1.0, 18.65, 22.05)">
    <path d="M13.65 -15.5 L13.7 -15.4 13.65 -15.25 13.3 -15.2 13.3 -15.25 Q13.25 -15.3 13.25 -15.4 13.25 -15.5 13.4 -15.55 L13.65 -15.5 M14.9 -17.4 L14.85 -17.25 14.8 -17.2 14.65 -17.2 14.6 -17.25 14.6 -17.4 Q14.6 -17.5 14.65 -17.55 L14.85 -17.55 14.9 -17.4 M16.7 -15.25 L16.6 -15.2 16.45 -15.2 16.45 -15.3 Q16.45 -15.5 16.75 -15.4 L16.7 -15.25 M20.85 -18.15 L20.85 -18.35 Q20.85 -18.45 20.9 -18.5 L21.0 -18.5 21.1 -18.45 21.1 -18.15 21.0 -18.1 Q20.9 -18.15 20.85 -18.15 M19.95 -17.35 Q19.85 -17.3 19.8 -17.3 L19.65 -17.3 Q19.6 -17.3 19.6 -17.4 19.6 -17.55 19.65 -17.55 L19.75 -17.6 Q19.95 -17.55 19.95 -17.35 M21.45 -16.0 L21.55 -16.0 21.7 -15.9 Q21.65 -15.75 21.55 -15.7 L21.45 -15.7 21.45 -16.0 M20.55 -14.3 L20.6 -14.15 Q20.6 -14.1 20.55 -14.05 L20.4 -13.95 20.2 -13.95 20.2 -14.15 Q20.2 -14.2 20.25 -14.3 L20.4 -14.45 Q20.5 -14.4 20.55 -14.3 M8.1 -14.3 L7.95 -14.05 Q7.75 -14.2 7.75 -14.25 7.75 -14.35 7.8 -14.4 L7.9 -14.45 Q8.05 -14.4 8.1 -14.3 M10.85 -14.75 L10.95 -14.55 10.9 -14.5 10.75 -14.45 10.6 -14.5 10.5 -14.55 10.7 -14.7 Q10.8 -14.75 10.85 -14.75 M10.0 -10.65 Q10.15 -10.6 10.15 -10.5 L10.1 -10.4 9.95 -10.4 9.85 -10.5 9.9 -10.65 10.0 -10.65 M9.45 -7.4 L9.35 -7.3 9.2 -7.3 Q9.15 -7.3 9.15 -7.4 9.15 -7.6 9.2 -7.55 L9.25 -7.55 9.4 -7.5 9.45 -7.4 M17.95 -11.85 Q18.05 -11.9 18.05 -11.75 L18.0 -11.6 18.0 -11.5 17.95 -11.5 17.95 -11.45 17.75 -11.5 17.7 -11.6 Q17.7 -11.7 17.8 -11.75 L17.95 -11.85 M15.45 -7.6 L15.35 -7.5 15.15 -7.45 15.1 -7.5 15.1 -7.6 Q15.1 -7.75 15.15 -7.75 L15.25 -7.75 Q15.4 -7.7 15.45 -7.6 M16.25 -8.45 L16.2 -8.5 Q16.1 -8.5 16.1 -8.55 16.2 -8.7 16.35 -8.65 L16.25 -8.45 M33.4 -20.1 L33.4 -19.9 Q33.35 -19.85 33.25 -19.85 33.15 -19.85 33.1 -20.0 33.05 -20.1 33.05 -20.2 33.05 -20.35 33.35 -20.35 L33.4 -20.1 M32.65 -20.35 L32.3 -20.35 32.2 -20.45 32.25 -20.55 32.35 -20.6 32.5 -20.6 32.7 -20.5 32.7 -20.45 32.65 -20.35 M30.5 -20.25 Q30.5 -20.45 30.5 -20.4 30.8 -20.4 30.9 -20.25 L30.8 -20.1 30.55 -20.1 30.5 -20.15 30.5 -20.25 M29.8 -19.05 L29.8 -18.95 29.75 -18.9 29.5 -18.9 29.5 -19.0 Q29.5 -19.1 29.6 -19.15 29.7 -19.15 29.8 -19.05 M6.85 13.35 Q6.8 13.5 6.7 13.5 6.65 13.4 6.65 13.3 6.75 13.25 6.85 13.3 L6.85 13.35 M8.6 20.55 L8.55 20.65 8.35 20.65 8.3 20.45 8.35 20.35 8.45 20.35 8.6 20.55 M5.3 15.05 Q5.25 15.15 5.25 14.95 5.25 14.85 5.35 14.8 5.4 14.7 5.55 14.7 5.6 14.7 5.6 14.8 5.6 14.9 5.55 14.95 L5.45 15.05 5.3 15.05 M4.2 17.9 Q4.05 17.85 4.05 17.7 L4.15 17.7 Q4.2 17.7 4.25 17.75 L4.2 17.9 M0.7 23.95 L0.7 24.0 Q0.65 24.15 0.5 24.15 0.45 24.2 0.45 24.0 L0.45 23.9 0.5 23.85 0.6 23.85 0.7 23.95 M15.9 14.75 L15.85 14.9 15.75 14.95 15.65 14.9 Q15.6 14.85 15.6 14.75 15.6 14.65 15.65 14.6 L15.75 14.6 15.85 14.65 Q15.9 14.65 15.9 14.75 M13.35 18.45 L13.45 18.45 13.5 18.6 Q13.5 18.8 13.5 18.75 L13.4 18.85 13.25 18.8 13.25 18.75 Q13.2 18.75 13.2 18.6 13.2 18.5 13.25 18.45 L13.35 18.45 M13.2 20.7 L13.05 20.7 Q13.05 20.65 13.05 20.55 13.05 20.4 13.15 20.35 13.25 20.3 13.35 20.45 13.3 20.65 13.2 20.7 M15.75 19.85 L15.85 19.9 15.9 20.05 Q15.85 20.15 15.75 20.15 L15.6 20.15 Q15.55 20.15 15.55 20.05 15.55 19.9 15.65 19.85 L15.75 19.85 M13.8 22.45 Q13.7 22.4 13.7 22.3 13.8 22.3 13.9 22.35 L13.8 22.45 M11.8 22.0 L11.8 21.9 Q11.8 21.8 11.85 21.75 L11.9 21.7 12.15 21.95 12.1 22.0 Q12.15 22.1 11.95 22.1 L11.85 22.05 11.8 22.0 M17.8 23.6 L17.85 23.55 17.85 23.9 Q17.8 23.9 17.75 24.0 L17.6 24.0 Q17.6 23.75 17.6 23.6 L17.8 23.6 M18.55 24.15 Q18.5 24.2 18.5 24.05 L18.5 23.95 18.55 23.9 18.65 23.9 Q18.8 23.95 18.85 24.0 L18.75 24.15 18.55 24.15 M20.8 24.85 Q20.75 25.05 20.6 25.05 L20.45 25.05 20.45 25.0 20.4 25.0 20.4 24.75 Q20.6 24.75 20.8 24.85 M-10.6 -15.7 L-10.6 -15.85 Q-10.6 -15.95 -10.5 -15.95 L-10.25 -16.0 -10.2 -15.8 -10.25 -15.7 Q-10.3 -15.65 -10.4 -15.65 -10.6 -15.65 -10.55 -15.7 L-10.6 -15.7 M-8.15 -15.45 Q-8.15 -15.35 -8.35 -15.35 L-8.5 -15.35 -8.5 -15.45 Q-8.5 -15.65 -8.5 -15.55 L-8.15 -15.5 -8.15 -15.45 M-18.25 -21.95 L-18.45 -21.65 -18.6 -21.65 -18.65 -21.7 -18.65 -21.85 -18.6 -22.0 -18.5 -22.05 Q-18.3 -22.0 -18.25 -21.95 M-14.05 -19.0 Q-14.05 -19.25 -13.75 -19.2 -13.45 -19.2 -13.45 -18.95 L-13.5 -18.85 -13.5 -18.8 -13.65 -18.8 -13.95 -18.85 -14.0 -18.85 -14.05 -19.0 M-16.8 -19.7 Q-16.65 -19.6 -16.65 -19.45 -16.75 -19.45 -16.75 -19.4 L-16.95 -19.4 Q-17.0 -19.4 -17.0 -19.5 L-16.95 -19.65 -16.95 -19.7 -16.8 -19.7 M-13.4 -16.85 L-13.4 -16.6 -13.45 -16.55 -13.6 -16.55 -13.6 -16.85 -13.4 -16.85 M-12.05 -8.15 Q-12.0 -8.15 -12.0 -8.0 -12.0 -7.9 -12.05 -7.85 L-12.15 -7.8 -12.25 -7.8 -12.3 -7.85 -12.35 -8.0 Q-12.35 -8.1 -12.25 -8.1 L-12.1 -8.15 -12.05 -8.15 M-14.0 -5.4 L-14.0 -5.2 -14.15 -5.15 -14.35 -5.25 -14.05 -5.5 -14.0 -5.4 M-15.95 -2.35 Q-15.95 -2.25 -15.95 -2.2 L-16.0 -2.05 -16.2 -2.1 -16.2 -2.15 -16.25 -2.25 Q-16.25 -2.35 -16.0 -2.5 -15.95 -2.55 -15.95 -2.35 M-5.0 -7.4 L-5.0 -7.35 -5.1 -7.3 Q-5.25 -7.4 -5.25 -7.55 L-5.1 -7.55 -5.0 -7.4 M-7.6 -13.0 L-7.6 -13.1 -7.55 -13.15 -7.45 -13.15 Q-7.35 -13.05 -7.35 -12.95 L-7.4 -12.85 -7.55 -12.9 -7.55 -12.85 Q-7.6 -12.85 -7.6 -13.0 M-10.8 -12.75 L-10.85 -12.9 Q-10.85 -13.0 -10.75 -13.05 L-10.65 -13.1 Q-10.55 -13.05 -10.5 -12.95 L-10.5 -12.75 -10.6 -12.75 -10.75 -12.7 -10.8 -12.75 M-10.55 -10.75 Q-10.6 -10.65 -10.75 -10.5 L-10.8 -10.5 Q-10.9 -10.55 -10.95 -10.6 L-10.95 -10.65 -10.85 -10.8 -10.75 -10.9 Q-10.65 -10.85 -10.55 -10.75 M-5.95 -10.0 L-6.0 -10.05 Q-6.05 -10.1 -6.05 -10.15 L-5.85 -10.1 -5.85 -10.05 -5.95 -10.0 M-7.45 -9.9 L-7.3 -9.8 Q-7.35 -9.65 -7.45 -9.55 L-7.55 -9.6 -7.6 -9.75 Q-7.6 -9.85 -7.5 -9.9 L-7.45 -9.9 M-6.55 -4.55 Q-6.55 -4.5 -6.55 -4.4 -6.55 -4.3 -6.55 -4.25 L-6.65 -4.15 -6.7 -4.15 -6.9 -4.3 -6.9 -4.4 Q-6.85 -4.5 -6.65 -4.55 L-6.55 -4.55 M-0.95 -3.95 Q-1.0 -3.85 -1.1 -3.85 L-1.2 -3.85 -1.2 -4.0 Q-1.2 -4.15 -1.05 -4.2 -0.95 -4.15 -0.95 -3.95 M-4.15 -6.45 L-4.2 -6.4 -4.35 -6.35 -4.35 -6.4 -4.4 -6.55 -4.35 -6.7 -4.25 -6.7 Q-4.15 -6.65 -4.15 -6.45 M-1.0 -0.5 L-1.15 -0.25 -1.3 -0.25 -1.35 -0.3 -1.35 -0.4 Q-1.35 -0.5 -1.25 -0.55 -1.15 -0.6 -1.15 -0.65 -1.0 -0.6 -1.0 -0.5 M-12.9 0.35 L-12.95 0.45 -13.05 0.45 -13.15 0.4 -13.05 0.3 Q-13.0 0.25 -12.9 0.35 M-5.5 15.7 L-5.45 15.75 -5.5 15.8 -5.6 15.85 Q-5.7 15.85 -5.75 15.8 L-5.7 15.7 -5.55 15.65 -5.5 15.7" fill="#e2b4f3" fill-opacity="0.7490196" fill-rule="evenodd" stroke="none"/>
  </g>
</svg>
