<?xml version="1.0" encoding="UTF-8" standalone="no"?>
<svg xmlns:ffdec="https://www.free-decompiler.com/flash" xmlns:xlink="http://www.w3.org/1999/xlink" ffdec:objectType="shape" height="8.8px" width="10.7px" xmlns="http://www.w3.org/2000/svg">
  <g transform="matrix(1.0, 0.0, 0.0, 1.0, 5.4, 4.45)">
    <path d="M5.3 -4.3 Q4.85 -3.75 3.85 -2.95 L2.25 -1.8 2.2 -1.8 Q2.65 -2.15 2.95 -2.6 L3.05 -2.65 3.4 -3.0 Q3.55 -3.15 3.7 -3.25 4.1 -3.6 4.5 -3.8 L5.3 -4.3 M0.3 -0.15 L0.3 -0.05 0.35 0.05 0.75 0.5 1.05 0.85 1.1 0.85 1.2 1.0 1.3 1.1 1.3 1.05 Q2.35 1.65 3.35 2.5 4.25 3.25 4.75 3.85 L4.9 4.1 4.55 3.95 4.1 3.7 3.85 3.5 2.85 2.65 Q2.45 2.3 2.05 1.9 L1.25 1.1 1.15 1.05 1.0 0.95 0.8 0.8 0.55 0.65 0.05 0.3 -0.05 0.25 -0.1 0.2 -0.15 0.2 -0.25 0.25 -0.5 0.45 -0.45 0.4 Q-0.3 0.2 -0.3 0.15 L-0.3 0.1 -0.25 0.1 -0.3 0.05 -0.8 -0.5 -1.1 -0.8 -1.15 -0.9 -1.2 -0.95 Q-1.5 -1.1 -1.85 -1.35 L-1.9 -1.4 -2.2 -1.6 -2.25 -1.65 Q-3.1 -2.2 -3.8 -2.8 -4.85 -3.65 -5.4 -4.45 L-5.35 -4.4 -5.35 -4.45 -5.3 -4.4 -5.2 -4.35 Q-4.6 -4.0 -3.95 -3.45 L-3.55 -3.1 -2.35 -2.2 Q-1.65 -1.55 -1.4 -1.3 L-1.35 -1.2 -1.05 -0.9 -0.95 -0.85 -0.6 -0.65 -0.3 -0.4 Q-0.05 -0.2 0.05 -0.2 L0.1 -0.2 Q0.2 -0.2 0.5 -0.4 L0.75 -0.55 0.8 -0.6 0.3 -0.15 M0.95 -0.75 L1.3 -1.1 1.5 -1.25 1.6 -1.35 1.8 -1.5 1.85 -1.5 1.5 -1.15 1.4 -1.1 0.95 -0.75 M-0.8 0.7 Q-1.0 0.85 -1.3 1.1 L-1.9 1.55 Q-1.85 1.4 -1.4 1.05 L-0.8 0.7 M-5.2 4.35 Q-4.7 3.65 -3.6 2.8 -2.65 2.0 -2.3 1.95 -3.55 3.45 -5.15 4.35 L-5.2 4.35" fill="#31451b" fill-rule="evenodd" stroke="none"/>
    <path d="M2.75 -2.25 L3.55 -2.9 Q4.05 -3.35 4.35 -3.5 L3.65 -2.9 Q3.1 -2.45 2.75 -2.25 M-3.0 -2.4 L-3.25 -2.6 -4.35 -3.55 Q-3.75 -3.15 -3.05 -2.55 L-1.55 -1.3 -1.6 -1.3 -2.15 -1.75 -2.5 -2.0 -2.9 -2.35 -3.0 -2.4 M0.9 0.75 L-0.1 0.0 -0.95 -0.75 Q-0.15 -0.2 0.9 0.75 M2.6 2.1 L3.15 2.6 3.4 2.8 4.4 3.65 3.55 3.0 Q2.5 2.15 1.6 1.35 2.0 1.6 2.6 2.1 M-4.7 4.0 Q-4.4 3.65 -3.75 3.1 L-2.75 2.25 -3.65 3.1 -4.7 4.0" fill="#c8d68b" fill-rule="evenodd" stroke="none"/>
  </g>
</svg>
