<?xml version="1.0" encoding="UTF-8" standalone="no"?>
<svg xmlns:ffdec="https://www.free-decompiler.com/flash" xmlns:xlink="http://www.w3.org/1999/xlink" ffdec:objectType="shape" height="8.6px" width="10.45px" xmlns="http://www.w3.org/2000/svg">
  <g transform="matrix(1.0, 0.0, 0.0, 1.0, 5.2, 4.25)">
    <path d="M5.25 4.35 L5.2 4.35 Q3.6 3.45 2.35 1.95 2.7 2.0 3.7 2.8 4.75 3.65 5.25 4.35 M1.45 1.1 Q1.9 1.4 1.95 1.55 L1.4 1.15 0.9 0.7 1.45 1.1 M-1.75 -1.45 L-1.55 -1.3 -1.45 -1.25 -1.25 -1.05 -0.85 -0.75 -0.85 -0.7 Q-1.05 -0.8 -1.35 -1.05 L-1.75 -1.45 M-5.2 -4.25 L-4.4 -3.8 -3.6 -3.2 -3.35 -3.0 -2.9 -2.55 Q-2.6 -2.15 -2.15 -1.75 L-2.2 -1.75 Q-3.2 -2.45 -3.8 -2.9 -4.8 -3.7 -5.2 -4.25" fill="#31451b" fill-rule="evenodd" stroke="none"/>
    <path d="M4.5 3.8 L3.45 2.9 2.55 2.05 3.55 2.9 Q4.2 3.45 4.5 3.8 M-3.85 -3.1 L-4.55 -3.7 Q-4.25 -3.55 -3.75 -3.15 L-2.95 -2.45 Q-3.3 -2.7 -3.85 -3.1" fill="#c8d68b" fill-rule="evenodd" stroke="none"/>
  </g>
</svg>
