<?xml version="1.0" encoding="UTF-8" standalone="no"?>
<svg xmlns:ffdec="https://www.free-decompiler.com/flash" xmlns:xlink="http://www.w3.org/1999/xlink" ffdec:objectType="shape" height="3.75px" width="5.35px" xmlns="http://www.w3.org/2000/svg">
  <g transform="matrix(1.0, 0.0, 0.0, 1.0, -0.2, 2.55)">
    <path d="M1.55 -1.8 Q1.6 -1.75 1.65 -1.75 L1.75 -1.7 1.8 -1.7 1.95 -1.65 2.05 -1.7 2.2 -1.75 2.2 -1.55 Q2.6 -1.4 3.0 -1.45 3.35 -1.5 3.4 -1.6 L3.4 -1.65 3.3 -1.65 3.3 -1.7 3.6 -1.7 3.65 -1.65 3.6 -1.6 Q3.75 -1.55 3.75 -1.5 L3.75 -1.3 3.55 -1.2 3.55 -1.15 3.7 -1.15 Q3.75 -1.15 3.8 -1.15 L4.5 -1.25 5.55 -1.45 5.55 -1.4 5.0 -1.25 Q4.55 -1.05 4.5 -1.0 L4.5 -0.95 4.55 -0.9 4.2 -0.8 4.05 -0.75 3.85 -0.75 Q3.8 -0.7 3.7 -0.65 L3.55 -0.55 Q3.5 -0.45 3.6 -0.45 L3.65 -0.4 3.65 -0.3 3.6 -0.3 3.55 -0.2 Q3.5 -0.05 3.5 0.0 3.6 0.05 3.55 0.1 3.55 0.15 3.6 0.2 L3.65 0.3 4.25 0.75 4.2 0.75 4.25 0.8 4.4 0.9 4.7 1.2 4.65 1.2 4.3 1.0 Q4.05 0.85 3.95 0.8 3.85 0.75 3.5 0.55 L3.35 0.5 3.15 0.4 3.1 0.45 Q3.05 0.45 3.0 0.45 L3.0 0.5 2.9 0.5 2.9 0.55 2.8 0.6 2.8 0.55 Q2.6 0.45 2.5 0.55 L2.3 0.6 2.25 0.6 2.35 0.55 2.3 0.55 2.2 0.45 1.9 0.45 1.75 0.35 1.75 0.25 1.55 0.2 1.1 0.35 0.85 0.45 0.55 0.55 0.8 0.35 1.3 0.05 1.5 -0.1 1.5 -0.2 1.25 -0.25 Q1.2 -0.25 1.2 -0.2 L1.0 -0.2 0.8 -0.25 0.75 -0.25 0.45 -0.3 0.3 -0.25 0.25 -0.3 0.4 -0.35 0.6 -0.3 0.75 -0.35 0.85 -0.4 1.15 -0.4 Q1.35 -0.4 1.4 -0.5 L1.4 -0.55 1.45 -0.55 1.45 -0.6 1.55 -0.6 1.55 -0.65 1.6 -0.75 Q1.6 -0.85 1.5 -0.9 L1.6 -0.9 1.6 -0.95 Q1.65 -0.95 1.7 -0.95 L1.65 -1.1 1.55 -1.2 1.5 -1.35 Q1.4 -1.45 1.2 -1.5 L1.2 -1.7 0.95 -2.05 0.6 -2.55 0.65 -2.55 0.95 -2.25 Q1.25 -2.0 1.4 -1.95 L1.55 -1.8 M2.2 0.7 L2.1 0.75 2.05 0.7 2.0 0.7 1.95 0.65 1.9 0.65 1.8 0.6 Q1.8 0.55 1.85 0.55 L1.9 0.6 2.1 0.65 2.1 0.7 2.2 0.7 M0.45 0.6 L0.35 0.6 0.35 0.55 0.45 0.6" fill="#31451b" fill-rule="evenodd" stroke="none"/>
  </g>
</svg>
