<?xml version="1.0" encoding="UTF-8" standalone="no"?>
<svg xmlns:ffdec="https://www.free-decompiler.com/flash" xmlns:xlink="http://www.w3.org/1999/xlink" ffdec:objectType="shape" height="9.0px" width="33.1px" xmlns="http://www.w3.org/2000/svg">
  <g transform="matrix(1.0, 0.0, 0.0, 1.0, 16.25, 7.7)">
    <path d="M3.0 -3.9 L3.0 -3.75 2.95 -3.75 Q3.0 -3.7 2.8 -3.7 L2.7 -3.75 2.65 -3.75 2.65 -3.85 Q2.65 -3.95 2.75 -4.0 2.8 -4.1 2.85 -4.05 L2.95 -4.05 Q3.0 -4.0 3.0 -3.9 M5.55 -3.55 Q5.8 -3.55 5.8 -3.5 L5.8 -3.4 5.6 -3.4 Q5.5 -3.4 5.5 -3.3 L5.45 -3.1 Q5.45 -2.9 5.7 -2.65 5.9 -2.4 6.15 -2.4 L6.45 -2.45 Q6.7 -2.65 6.95 -2.75 7.3 -2.8 7.75 -2.4 8.1 -2.0 8.1 -1.8 8.1 -1.7 8.05 -1.7 7.95 -1.75 7.95 -1.65 7.95 -1.45 8.35 -1.25 8.7 -1.0 9.05 -1.0 9.9 -1.0 10.15 -1.2 10.4 -1.35 10.7 -1.3 L10.95 -1.15 11.2 -1.15 11.3 -1.25 Q11.5 -1.25 11.7 -1.5 11.9 -1.75 11.9 -1.95 11.9 -2.1 11.85 -2.2 L11.95 -2.25 12.6 -2.25 Q12.9 -2.05 12.95 -1.85 L12.95 -1.45 Q12.95 -0.9 12.85 -0.55 L12.75 -0.35 Q12.7 -0.15 12.5 0.0 12.25 0.25 11.75 0.2 11.8 0.55 11.5 0.8 10.95 1.3 9.55 1.3 L9.3 1.25 8.7 1.3 Q8.0 1.3 7.75 1.2 7.5 1.05 7.2 1.05 L6.5 1.0 Q6.4 1.0 6.35 1.05 L6.3 1.15 6.0 1.15 5.65 1.05 Q5.4 0.95 5.4 0.8 5.4 0.65 5.4 0.6 L5.2 0.5 Q5.05 0.55 4.9 0.65 L4.9 0.7 4.85 0.75 4.7 0.75 4.65 0.7 4.5 0.7 4.3 0.65 4.0 0.35 3.9 0.2 Q3.65 0.0 3.65 -0.2 3.65 -0.45 3.8 -0.75 4.0 -1.1 4.3 -1.1 L4.65 -1.1 4.8 -0.85 4.75 -0.8 Q4.75 -0.7 4.8 -0.65 L4.9 -0.55 Q5.1 -0.6 5.45 -0.75 L5.7 -0.7 5.85 -0.7 Q5.95 -0.75 5.95 -0.8 L6.0 -0.95 Q6.0 -1.25 5.85 -1.5 5.7 -1.75 5.5 -1.8 L5.3 -1.8 Q5.25 -1.75 5.3 -1.7 L5.3 -1.55 Q4.45 -1.85 4.45 -2.3 4.45 -2.65 4.7 -2.95 4.95 -3.3 5.45 -3.55 L5.55 -3.55 M1.6 -1.9 Q1.6 -1.7 1.4 -1.3 L1.15 -0.75 1.05 -0.85 1.1 -0.9 Q0.3 -0.8 0.15 -0.3 0.1 0.0 0.0 0.1 L-0.25 0.3 Q-0.45 0.45 -0.8 0.65 -1.35 1.0 -1.65 1.0 L-2.2 0.95 -2.65 0.85 -3.3 0.8 Q-3.9 0.8 -4.05 0.9 L-4.15 1.0 -4.65 1.0 -4.75 1.05 -5.25 1.1 -5.45 1.15 -5.8 1.2 Q-6.2 1.2 -6.45 1.1 L-6.7 0.95 Q-8.45 1.1 -9.3 0.2 -9.8 -0.35 -9.8 -0.95 -9.8 -1.15 -9.65 -1.4 -9.45 -1.75 -9.2 -1.85 -9.05 -2.0 -9.05 -2.25 -9.05 -2.4 -9.2 -2.7 -9.35 -3.0 -9.55 -3.0 L-9.8 -2.95 -9.95 -2.85 Q-10.05 -3.05 -10.05 -3.5 -10.05 -3.95 -9.85 -4.3 -9.55 -4.85 -8.85 -5.05 L-8.6 -5.0 -8.4 -4.95 -8.25 -4.8 -8.25 -4.75 -8.45 -4.8 -8.55 -4.8 -8.65 -4.65 -8.7 -4.45 Q-8.7 -4.35 -8.55 -4.1 -8.35 -3.75 -8.25 -3.7 L-8.0 -3.75 -7.85 -3.8 Q-7.45 -3.8 -7.25 -3.6 L-6.95 -3.35 Q-6.55 -3.35 -6.45 -3.5 -6.35 -3.6 -6.4 -3.8 L-6.6 -3.85 Q-6.7 -3.95 -6.75 -4.1 L-6.8 -4.1 Q-6.8 -4.2 -6.7 -4.4 L-6.5 -4.6 -6.25 -4.6 -6.1 -4.55 -6.25 -4.45 Q-6.3 -4.45 -6.3 -4.3 L-6.3 -4.1 Q-6.3 -3.8 -6.0 -3.3 -5.65 -2.8 -5.3 -2.85 L-5.15 -2.9 -5.1 -2.9 Q-4.7 -3.7 -4.1 -3.65 -3.7 -3.65 -2.9 -3.05 L-2.85 -3.0 -2.95 -3.0 Q-3.2 -3.0 -3.25 -2.85 L-3.25 -2.7 Q-3.25 -2.4 -2.9 -1.95 L-2.85 -1.85 Q-2.65 -1.75 -2.45 -1.65 -1.9 -1.45 -0.95 -1.45 L-0.9 -1.4 -0.85 -1.4 -0.55 -1.45 Q-0.1 -1.75 0.1 -1.95 L0.3 -2.2 Q0.45 -2.4 0.45 -2.5 L0.4 -2.75 0.35 -2.7 0.1 -2.7 0.2 -2.8 0.35 -2.9 0.5 -2.95 0.55 -3.0 1.1 -3.05 Q1.45 -2.75 1.55 -2.4 1.6 -2.25 1.6 -1.9 M16.85 0.3 L16.8 0.4 Q16.75 0.45 16.65 0.45 L16.55 0.3 Q16.5 0.2 16.45 0.1 L16.75 0.1 Q16.75 0.2 16.85 0.3 M-13.4 -7.65 L-13.05 -7.3 Q-13.45 -7.35 -13.8 -7.55 L-13.7 -7.6 -13.65 -7.7 -13.4 -7.65 M-16.05 -0.6 L-16.15 -0.6 Q-16.2 -0.65 -16.25 -0.7 -16.15 -0.8 -15.85 -1.05 -15.5 -1.3 -15.35 -1.25 L-15.2 -1.25 -15.1 -1.2 -15.65 -0.85 Q-15.8 -0.75 -15.95 -0.65 L-16.05 -0.6" fill="#ffffff" fill-rule="evenodd" stroke="none"/>
  </g>
</svg>
