<?xml version="1.0" encoding="UTF-8" standalone="no"?>
<svg xmlns:ffdec="https://www.free-decompiler.com/flash" xmlns:xlink="http://www.w3.org/1999/xlink" ffdec:objectType="shape" height="17.75px" width="9.35px" xmlns="http://www.w3.org/2000/svg">
  <g transform="matrix(1.0, 0.0, 0.0, 1.0, -15.7, 16.75)">
    <path d="M20.85 -3.7 L21.4 -3.6 21.85 -3.55 Q21.95 -3.7 22.1 -3.65 L22.25 -3.6 22.35 -3.55 Q22.4 -3.45 22.6 -3.2 L22.7 -3.05 Q22.7 -2.95 22.65 -2.9 L22.55 -2.75 22.5 -2.75 22.7 -2.55 Q23.05 -2.15 23.05 -1.75 23.05 -1.4 22.65 -1.0 22.2 -0.6 21.65 -0.65 L21.55 -0.65 21.5 -0.45 21.4 -0.35 21.25 -0.3 21.0 -0.3 Q20.85 -0.3 20.7 -0.45 20.6 -0.55 20.6 -0.7 L20.6 -0.75 Q20.6 -0.8 20.65 -0.9 L20.8 -1.0 21.05 -1.0 21.3 -1.05 21.35 -1.15 Q21.55 -1.5 21.55 -1.6 21.55 -1.8 21.5 -1.95 21.35 -2.25 21.0 -2.25 L20.9 -2.2 Q20.7 -2.1 20.5 -2.05 L20.45 -2.05 19.95 -2.25 19.55 -2.4 Q19.45 -2.4 19.35 -2.5 L19.35 -2.55 Q19.3 -2.65 19.3 -2.7 19.3 -2.8 19.35 -2.9 19.4 -3.0 19.75 -3.05 L19.85 -3.05 20.3 -2.95 20.3 -3.1 Q20.3 -3.3 20.3 -3.35 20.4 -3.7 20.85 -3.7 M21.8 -6.3 Q22.0 -6.25 22.1 -6.1 L22.15 -6.0 Q22.2 -5.95 22.2 -5.75 22.2 -5.7 22.2 -5.65 22.15 -5.45 21.9 -5.15 21.85 -5.1 21.8 -5.1 L21.7 -5.05 21.5 -5.0 21.35 -5.0 Q21.25 -4.95 21.1 -4.9 20.8 -4.85 20.7 -5.0 L20.6 -5.1 20.6 -5.25 20.65 -5.3 Q20.65 -5.4 20.75 -5.45 20.8 -5.55 20.9 -5.55 L21.1 -5.55 21.2 -5.5 21.2 -5.6 21.15 -5.6 21.05 -5.8 Q20.95 -5.85 20.95 -5.95 20.95 -6.05 21.0 -6.15 L20.95 -6.15 20.95 -6.25 Q20.8 -6.3 20.7 -6.5 20.6 -6.55 20.6 -6.65 20.6 -6.75 20.65 -6.8 20.7 -6.9 20.8 -6.9 L21.0 -6.95 Q21.25 -6.85 21.4 -6.75 L21.7 -6.5 Q21.8 -6.4 21.8 -6.3 M16.75 -0.2 L16.85 -0.3 Q18.05 -0.15 18.3 0.0 18.55 0.1 18.55 0.5 L18.55 0.75 Q18.5 0.95 18.3 1.0 L17.95 1.0 Q17.65 1.0 17.2 0.6 16.7 0.2 16.7 -0.05 16.7 -0.2 16.75 -0.2 M17.1 -2.95 L17.2 -2.95 17.35 -3.2 Q17.45 -3.25 17.55 -3.25 17.7 -3.25 17.75 -3.2 17.85 -3.1 17.85 -3.0 L17.95 -2.65 Q18.0 -2.6 17.95 -2.5 L17.9 -2.35 17.8 -2.3 17.65 -2.15 17.6 -2.0 17.45 -1.9 17.1 -1.9 Q16.9 -2.0 16.55 -2.35 L16.15 -2.7 Q16.05 -2.8 16.05 -2.9 16.05 -3.0 16.1 -3.1 16.15 -3.2 16.25 -3.2 L16.35 -3.25 16.55 -3.2 17.1 -2.95 M15.95 -7.1 L16.1 -7.2 16.2 -7.25 16.8 -7.25 16.9 -7.2 Q17.05 -7.25 17.1 -7.05 L17.1 -6.8 Q17.15 -6.65 17.0 -6.4 L16.95 -6.35 Q17.0 -6.1 16.75 -5.9 16.55 -5.7 16.15 -5.65 L16.05 -5.65 15.95 -5.75 Q15.8 -5.85 15.8 -6.05 L15.9 -6.25 16.1 -6.4 16.1 -6.5 15.95 -6.8 Q15.9 -6.85 15.9 -6.95 15.9 -7.05 15.95 -7.1 M16.6 -11.2 Q16.9 -11.15 17.0 -11.05 17.2 -10.9 17.1 -10.6 L17.15 -10.6 Q17.45 -10.4 17.45 -9.7 17.45 -9.35 17.3 -8.9 17.3 -8.8 17.2 -8.75 L17.2 -8.5 Q17.3 -8.35 16.9 -8.05 16.85 -8.05 16.75 -8.0 L16.6 -8.05 16.5 -8.05 16.4 -8.15 Q16.35 -8.2 16.3 -8.3 16.3 -8.4 16.35 -8.45 16.45 -8.65 16.65 -8.85 L16.7 -8.9 16.7 -9.0 Q16.7 -9.5 16.6 -9.7 L16.65 -9.7 Q16.5 -10.0 16.0 -10.0 L15.8 -10.1 Q15.7 -10.2 15.7 -10.4 15.7 -10.5 15.75 -10.55 L16.0 -10.85 16.0 -10.9 Q16.0 -11.0 16.05 -11.05 16.15 -11.15 16.25 -11.15 L16.55 -11.2 16.6 -11.2 M19.9 -8.3 L20.0 -8.3 20.15 -8.25 Q20.25 -8.1 20.35 -7.9 L20.3 -7.9 Q20.4 -7.75 20.4 -7.55 20.4 -7.45 20.3 -7.35 20.25 -7.25 20.15 -7.25 L19.85 -7.25 Q19.8 -7.3 19.75 -7.35 L19.45 -7.7 19.2 -7.9 Q19.15 -7.95 19.1 -8.05 19.1 -8.15 19.15 -8.25 19.25 -8.35 19.35 -8.35 L19.8 -8.35 19.9 -8.3 M20.55 -12.7 Q20.95 -12.8 21.05 -12.45 L21.05 -12.2 Q21.05 -11.9 21.0 -11.9 L20.9 -11.85 Q20.85 -11.8 20.75 -11.8 20.65 -11.8 20.4 -11.9 L20.15 -12.05 20.0 -12.15 Q19.95 -12.2 19.95 -12.3 19.95 -12.35 20.0 -12.45 L20.05 -12.5 Q20.1 -12.65 20.55 -12.7 M22.25 -12.6 Q22.25 -12.7 22.45 -12.85 L22.7 -13.05 22.85 -13.1 Q22.95 -13.05 23.0 -13.0 L23.2 -12.8 23.3 -12.65 Q23.35 -12.7 23.35 -12.65 L23.4 -12.75 Q23.7 -13.4 23.75 -13.45 23.85 -13.55 23.95 -13.55 L24.25 -13.55 Q24.4 -13.55 24.45 -13.5 24.8 -13.2 24.95 -13.0 25.0 -12.9 24.95 -12.8 L24.95 -12.7 24.9 -12.55 Q25.05 -12.3 25.05 -12.1 25.05 -11.85 24.75 -11.45 L24.75 -11.4 Q24.4 -10.95 23.95 -11.05 23.8 -10.95 23.65 -10.75 L23.65 -10.8 Q23.35 -10.3 23.15 -10.1 23.1 -10.05 23.0 -10.05 L22.8 -10.0 22.65 -10.05 22.5 -10.2 Q22.45 -10.3 22.45 -10.4 22.45 -10.5 22.55 -10.6 22.8 -10.8 22.95 -11.1 23.1 -11.4 23.1 -11.7 L23.1 -11.9 23.05 -11.95 Q22.95 -12.0 22.9 -12.1 L22.85 -12.15 22.8 -12.15 22.7 -12.2 Q22.3 -12.2 22.25 -12.4 L22.25 -12.6 M20.2 -15.15 Q20.15 -15.2 20.2 -15.3 L20.4 -15.5 20.35 -15.55 20.3 -15.55 Q20.15 -15.85 20.15 -15.95 20.15 -16.45 20.75 -16.55 21.05 -16.6 21.2 -16.45 21.4 -16.3 21.4 -16.0 L21.4 -15.7 21.3 -15.4 Q21.2 -15.25 21.1 -15.15 21.0 -14.95 20.85 -14.9 L20.75 -14.9 20.5 -14.85 20.3 -14.95 20.25 -15.0 Q20.2 -15.05 20.2 -15.15 M15.95 -16.0 L16.05 -16.3 Q16.2 -16.65 16.45 -16.75 L16.75 -16.75 16.95 -16.7 17.2 -16.55 Q17.25 -16.45 17.25 -16.25 L17.25 -16.0 Q17.2 -15.9 17.15 -15.8 17.05 -15.75 16.95 -15.75 16.85 -15.75 16.8 -15.8 L16.75 -15.8 Q16.65 -15.75 16.6 -15.6 16.55 -15.55 16.45 -15.5 L16.25 -15.45 16.2 -15.5 Q16.1 -15.5 16.05 -15.55 16.0 -15.6 15.95 -15.7 L15.95 -15.8 Q15.95 -15.9 15.95 -16.0 M20.55 -2.95 L20.65 -3.0 20.6 -3.0 20.45 -2.95 20.55 -2.95" fill="#cdffb4" fill-opacity="0.5019608" fill-rule="evenodd" stroke="none"/>
  </g>
</svg>
