<?xml version="1.0" encoding="UTF-8" standalone="no"?>
<svg xmlns:ffdec="https://www.free-decompiler.com/flash" xmlns:xlink="http://www.w3.org/1999/xlink" ffdec:objectType="shape" height="9.7px" width="35.1px" xmlns="http://www.w3.org/2000/svg">
  <g transform="matrix(1.0, 0.0, 0.0, 1.0, 17.75, 8.1)">
    <path d="M3.9 -3.65 Q3.9 -3.55 3.85 -3.45 3.75 -3.4 3.65 -3.3 L3.4 -3.3 3.25 -3.35 3.15 -3.4 3.1 -3.45 Q3.0 -3.45 3.0 -3.75 3.0 -4.1 3.3 -4.15 3.45 -4.25 3.7 -4.15 L3.85 -4.0 Q3.9 -3.9 3.9 -3.65 M4.25 -3.8 Q4.55 -3.9 4.75 -3.9 L4.8 -3.95 4.95 -3.9 5.1 -3.8 5.15 -3.65 Q5.15 -3.55 5.1 -3.5 L5.05 -3.4 5.05 -3.35 5.2 -3.25 Q5.35 -3.15 5.45 -3.1 L5.8 -3.15 5.95 -3.2 6.1 -3.4 6.1 -3.45 Q6.45 -3.85 6.85 -3.8 8.95 -3.8 8.9 -2.25 L8.9 -2.2 Q8.9 -2.0 8.75 -1.9 8.7 -1.85 8.6 -1.8 8.5 -1.8 8.45 -1.85 8.35 -1.9 8.3 -1.95 8.1 -1.95 8.0 -1.8 L8.0 -1.75 8.1 -1.6 8.05 -1.65 Q8.3 -1.35 8.45 -1.35 9.2 -1.35 9.45 -1.5 L9.45 -1.7 Q9.4 -1.9 10.0 -2.3 10.5 -2.7 10.85 -2.7 L11.65 -2.7 11.8 -2.6 12.05 -2.45 Q12.3 -2.5 12.35 -2.65 L12.35 -2.85 12.3 -2.9 Q12.25 -2.95 12.2 -3.0 12.15 -3.1 12.2 -3.2 12.2 -3.3 12.3 -3.35 L12.35 -3.4 Q12.45 -3.55 12.65 -3.55 L12.7 -3.55 Q13.15 -3.65 13.5 -3.0 13.85 -2.45 13.85 -2.0 L13.8 -1.95 Q13.65 -1.1 13.5 -0.95 L13.15 -0.45 Q12.85 -0.15 12.7 -0.2 12.5 -0.15 12.4 -0.25 L12.2 -0.05 Q11.95 0.15 11.85 0.3 L11.75 0.7 Q11.6 1.2 11.1 1.2 L10.45 1.4 Q9.55 1.6 8.75 1.6 7.85 1.6 7.0 1.4 L6.2 1.2 6.1 1.25 Q5.85 1.35 5.7 1.35 5.3 1.4 4.95 0.8 L4.9 0.8 4.8 0.5 4.7 0.5 Q4.7 0.7 4.65 0.7 4.55 0.9 4.4 0.85 4.3 0.9 4.15 0.75 L3.95 0.65 3.25 0.45 3.15 0.4 Q2.6 0.1 2.5 -0.25 2.45 -0.35 2.45 -0.85 2.45 -1.15 2.6 -1.5 2.85 -2.05 3.4 -2.05 L3.6 -2.05 Q3.9 -1.95 3.8 -1.75 L3.85 -1.7 4.1 -1.75 Q3.75 -2.05 3.65 -2.2 L3.7 -2.1 Q3.6 -2.2 3.6 -2.65 3.6 -2.95 3.6 -3.05 3.65 -3.25 3.9 -3.5 4.0 -3.65 4.25 -3.8 M0.95 -4.0 L1.15 -4.05 1.2 -4.0 1.3 -3.95 Q1.9 -3.75 2.2 -3.25 2.4 -2.85 2.4 -2.4 2.4 -2.05 2.2 -1.65 2.0 -1.2 1.6 -0.95 L1.35 -0.95 Q1.15 -1.1 1.05 -1.2 L1.0 -1.15 Q0.85 -1.1 0.8 -0.9 0.75 -0.35 0.7 -0.15 0.65 0.2 0.05 0.65 -0.25 0.9 -0.55 1.0 L-0.55 1.05 -0.75 1.1 -0.75 1.15 Q-1.25 1.35 -1.65 1.35 L-2.35 1.3 -2.9 1.2 -3.7 1.15 -5.2 1.45 -5.8 1.4 -6.7 1.3 -7.5 1.3 Q-7.55 1.35 -7.65 1.35 L-8.35 1.3 Q-10.85 0.85 -10.85 -1.0 -10.85 -1.7 -10.1 -2.35 -9.6 -2.8 -9.55 -2.95 L-9.6 -3.0 -9.7 -3.2 -9.95 -3.45 -10.05 -3.45 -10.15 -3.35 Q-10.2 -3.3 -10.3 -3.25 L-10.45 -3.3 Q-10.75 -3.4 -10.8 -3.75 L-10.8 -4.15 Q-10.8 -4.65 -10.6 -5.1 -10.3 -5.7 -9.7 -5.8 L-9.6 -5.8 Q-9.05 -5.75 -8.95 -5.65 L-8.85 -5.6 Q-8.75 -5.6 -8.7 -5.55 -8.6 -5.45 -8.6 -5.35 -8.6 -5.3 -8.65 -5.2 -8.7 -5.1 -8.8 -5.05 L-8.9 -5.05 -9.0 -5.0 Q-9.15 -4.75 -9.2 -4.65 -9.15 -4.55 -9.05 -4.4 -8.95 -4.2 -8.8 -4.1 L-8.7 -4.15 Q-8.65 -4.4 -8.5 -4.45 L-8.3 -4.55 Q-8.05 -4.7 -7.95 -4.7 -7.65 -4.7 -7.4 -4.55 L-7.3 -4.55 Q-7.25 -5.0 -7.0 -5.15 L-6.95 -5.2 -6.85 -5.25 -6.7 -5.3 -6.6 -5.3 Q-6.3 -5.25 -6.2 -5.0 -6.2 -4.9 -6.2 -4.8 -6.25 -4.75 -6.3 -4.7 L-6.6 -4.4 -6.6 -4.25 -6.55 -4.15 -6.4 -3.9 -6.4 -3.75 -6.25 -3.65 Q-6.1 -3.45 -5.85 -3.3 -5.85 -3.65 -5.65 -3.85 -5.55 -4.0 -5.15 -4.25 L-5.0 -4.25 -4.15 -4.2 -4.15 -4.25 -3.85 -4.15 -3.8 -4.15 Q-3.55 -4.05 -3.5 -3.95 -3.45 -3.9 -3.45 -3.8 -3.45 -3.7 -3.45 -3.65 L-3.5 -3.6 Q-3.55 -3.5 -3.7 -3.45 L-3.85 -3.4 Q-3.9 -3.35 -3.9 -3.25 L-3.95 -3.0 Q-3.95 -2.7 -3.7 -2.45 -3.35 -2.05 -2.65 -2.0 L-2.5 -1.95 -2.4 -1.85 -2.35 -1.75 Q-2.2 -1.65 -1.95 -1.55 L-1.75 -1.65 -1.7 -1.65 -1.3 -1.95 Q-0.95 -2.3 -0.5 -2.55 -0.25 -2.7 0.3 -2.7 0.6 -2.7 0.8 -2.85 L0.95 -3.1 1.1 -3.25 0.8 -3.4 Q0.7 -3.4 0.6 -3.5 0.55 -3.6 0.6 -3.75 0.6 -3.85 0.7 -3.9 L0.95 -4.0 M4.45 -1.9 L4.45 -1.9 M17.2 0.7 L17.3 0.8 17.3 0.9 Q17.35 1.05 17.3 1.15 17.25 1.3 16.95 1.4 L16.8 1.45 16.6 1.35 16.55 1.35 Q16.45 1.25 16.45 1.0 16.45 0.55 16.75 0.6 L17.05 0.6 Q17.15 0.65 17.2 0.7 M-14.7 -7.85 L-14.65 -8.0 Q-14.6 -8.05 -14.5 -8.1 L-14.2 -8.1 -14.1 -8.05 Q-13.9 -7.9 -13.9 -7.65 -13.9 -7.55 -13.95 -7.45 L-14.05 -7.35 Q-14.1 -7.3 -14.15 -7.3 L-14.35 -7.25 -14.5 -7.3 Q-14.6 -7.3 -14.65 -7.35 L-14.65 -7.45 Q-14.75 -7.55 -14.75 -7.65 L-14.75 -7.7 -14.7 -7.85 M-16.65 -0.55 Q-16.55 -0.55 -16.45 -0.4 L-16.45 -0.15 Q-16.4 -0.05 -16.8 0.45 L-17.15 0.85 -17.3 0.95 -17.45 0.9 Q-17.65 0.85 -17.7 0.75 L-17.7 0.7 Q-17.75 0.65 -17.75 0.4 -17.8 0.2 -17.5 -0.15 -17.25 -0.4 -16.9 -0.5 -16.75 -0.65 -16.65 -0.55" fill="#cdffb4" fill-opacity="0.5019608" fill-rule="evenodd" stroke="none"/>
  </g>
</svg>
