<?xml version="1.0" encoding="UTF-8" standalone="no"?>
<svg xmlns:ffdec="https://www.free-decompiler.com/flash" xmlns:xlink="http://www.w3.org/1999/xlink" ffdec:objectType="shape" height="15.55px" width="10.05px" xmlns="http://www.w3.org/2000/svg">
  <g transform="matrix(1.0, 0.0, 0.0, 1.0, -13.65, 15.55)">
    <path d="M14.6 -8.65 L14.6 -8.65 M17.6 -12.4 L17.6 -12.4 Q17.65 -12.5 18.05 -12.95 18.45 -13.4 18.45 -13.45 L18.35 -13.7 Q18.3 -13.85 18.3 -13.95 18.3 -14.1 18.5 -14.35 18.75 -14.6 18.95 -14.65 18.9 -14.8 19.05 -15.05 L19.35 -15.35 Q19.65 -15.7 19.8 -15.45 19.9 -15.1 20.0 -15.1 20.5 -15.1 20.65 -14.8 20.75 -14.6 20.75 -14.15 20.75 -13.85 20.45 -13.6 20.05 -13.25 19.5 -13.3 19.3 -13.25 19.25 -13.05 L19.15 -12.75 Q19.1 -12.65 18.9 -12.55 L19.0 -12.55 Q19.15 -12.55 19.2 -12.5 19.35 -12.45 19.35 -12.15 L19.35 -12.1 19.85 -12.1 20.05 -12.15 20.25 -12.1 Q20.35 -12.05 20.4 -12.0 20.45 -11.9 20.45 -11.8 L20.5 -11.7 20.55 -11.35 20.5 -11.1 20.45 -10.95 Q20.4 -10.9 20.3 -10.9 L20.15 -10.85 20.1 -10.8 Q19.95 -10.7 19.8 -10.75 19.7 -10.75 19.65 -10.75 L19.55 -10.85 19.55 -10.9 19.05 -10.85 18.95 -10.8 18.95 -10.75 18.85 -10.65 18.7 -10.65 Q18.55 -10.7 18.45 -10.75 18.35 -10.9 18.35 -11.0 L18.35 -11.1 Q18.35 -11.15 18.55 -11.35 L18.55 -11.65 Q18.45 -11.75 18.25 -11.85 L18.15 -11.95 Q18.1 -12.05 18.1 -12.1 L18.1 -12.15 18.15 -12.25 18.15 -12.3 17.85 -12.25 Q17.75 -12.25 17.7 -12.3 L17.6 -12.4 M16.8 -14.9 L17.1 -14.65 Q17.2 -14.55 17.2 -14.3 17.2 -14.1 17.05 -13.75 L16.9 -13.45 Q16.9 -13.4 16.8 -13.3 16.75 -13.25 16.65 -13.25 L16.5 -13.3 16.45 -13.35 16.3 -13.15 Q16.25 -13.05 16.25 -12.85 L16.25 -12.8 16.3 -12.75 16.5 -12.95 16.7 -13.2 Q17.2 -13.25 17.4 -13.0 17.55 -12.85 17.55 -12.7 L17.55 -12.6 Q17.55 -12.4 17.45 -12.2 17.35 -11.85 17.05 -11.85 16.9 -11.7 16.75 -11.7 16.65 -11.7 16.6 -11.8 L16.55 -11.85 16.5 -11.85 16.55 -11.9 Q16.15 -11.75 16.0 -11.8 L16.0 -11.85 15.95 -11.8 Q15.75 -11.6 15.55 -11.5 L15.3 -11.45 15.25 -11.4 15.25 -11.35 Q15.05 -11.0 14.85 -10.9 L14.7 -10.85 14.65 -10.85 14.75 -10.75 14.9 -10.25 14.95 -9.75 Q14.95 -9.55 14.85 -9.45 L15.0 -9.45 15.05 -9.5 15.05 -9.55 15.25 -9.75 15.4 -9.8 15.75 -9.8 15.85 -9.7 16.5 -8.8 Q16.6 -8.65 16.6 -8.0 16.65 -7.85 16.35 -7.4 16.05 -7.0 16.0 -7.0 L15.8 -6.95 Q15.75 -7.0 15.7 -7.05 L15.55 -6.75 Q15.95 -6.65 15.95 -6.4 L15.95 -6.3 Q15.9 -6.25 15.95 -6.15 L15.95 -5.9 15.9 -5.75 Q15.85 -5.7 15.75 -5.7 L15.45 -5.6 15.2 -5.5 15.2 -5.45 Q15.35 -5.45 15.45 -5.3 L15.5 -5.25 15.55 -5.25 15.6 -5.2 15.6 -5.15 15.65 -5.15 15.75 -5.0 Q16.0 -4.9 16.15 -4.95 16.25 -5.0 16.35 -4.85 L16.45 -4.75 Q16.55 -5.0 16.9 -4.8 L17.75 -4.25 17.75 -4.3 Q17.65 -4.55 17.7 -4.7 L17.75 -4.75 17.95 -4.75 18.2 -4.65 Q18.25 -4.8 18.35 -4.95 L18.4 -4.95 18.25 -5.0 Q18.15 -5.05 18.15 -5.15 18.1 -5.25 18.1 -5.35 18.1 -5.4 18.15 -5.45 L18.15 -5.6 18.2 -5.75 Q18.2 -5.85 18.3 -5.9 L18.5 -6.0 18.65 -6.0 18.75 -5.95 18.8 -5.95 18.95 -5.9 19.0 -5.9 19.05 -6.0 19.05 -6.05 19.2 -6.25 19.15 -6.45 18.65 -6.8 18.7 -6.8 Q18.35 -7.0 18.35 -7.2 L18.35 -7.4 18.25 -7.5 Q18.0 -7.7 18.0 -7.95 18.0 -8.15 18.05 -8.15 18.1 -8.3 18.2 -8.35 L18.4 -8.35 Q18.55 -8.4 18.65 -8.55 18.9 -8.85 19.05 -8.9 L18.95 -8.9 Q18.85 -8.95 18.75 -9.0 18.7 -9.05 18.7 -9.15 L18.7 -9.25 18.45 -9.3 Q18.35 -9.3 18.3 -9.35 18.2 -9.4 18.2 -9.5 18.15 -9.6 18.2 -9.65 L18.3 -9.8 18.4 -9.85 Q18.7 -9.9 19.0 -10.0 L18.95 -10.0 19.25 -10.15 19.4 -10.2 19.5 -10.25 19.7 -10.45 19.8 -10.5 20.25 -10.55 Q20.35 -10.55 20.45 -10.5 L20.55 -10.4 20.65 -10.25 20.7 -10.25 20.95 -10.3 21.05 -10.4 21.05 -10.4 Q20.95 -10.45 20.85 -10.55 L20.75 -10.7 20.75 -10.85 20.8 -11.0 20.8 -11.05 Q20.8 -11.3 21.1 -11.5 L21.25 -11.55 21.35 -11.55 21.65 -11.6 Q21.75 -11.65 21.95 -11.45 L22.1 -11.45 22.2 -11.55 22.35 -11.6 23.05 -11.6 23.4 -11.4 Q23.7 -11.25 23.7 -11.0 L23.65 -10.75 23.6 -10.6 Q23.7 -10.4 23.7 -10.2 23.7 -9.75 23.4 -9.45 23.1 -9.1 22.35 -8.95 L22.3 -8.9 Q22.2 -8.85 22.1 -8.85 22.0 -8.85 21.95 -8.95 L21.85 -9.0 21.75 -8.85 21.7 -8.8 21.5 -8.55 Q21.35 -8.35 20.9 -8.3 L20.75 -8.3 Q20.7 -8.3 20.65 -8.35 L20.5 -8.5 20.5 -8.55 20.45 -8.6 20.45 -8.85 Q20.45 -9.0 20.55 -9.1 L20.35 -9.2 20.35 -9.15 20.3 -9.1 20.2 -8.95 Q20.15 -8.9 20.05 -8.9 L19.45 -8.85 Q19.55 -8.8 19.55 -8.65 19.55 -8.55 19.45 -8.45 L19.35 -8.2 19.3 -8.2 19.3 -8.15 19.4 -8.0 Q19.5 -7.95 19.45 -7.8 19.4 -7.35 19.9 -7.0 L20.45 -6.6 Q20.8 -6.25 20.9 -5.9 L20.8 -5.6 Q20.7 -5.55 20.65 -5.55 L20.55 -5.55 20.55 -5.5 Q20.55 -5.05 20.35 -5.1 L20.2 -5.05 19.85 -5.05 Q19.75 -5.05 19.7 -5.1 L19.6 -5.1 Q19.5 -5.1 19.45 -5.2 L19.2 -5.2 19.2 -5.1 Q19.2 -4.9 19.15 -4.85 L19.1 -4.8 Q19.25 -4.8 19.35 -4.7 19.55 -4.55 19.55 -4.25 L19.55 -4.05 19.45 -3.95 19.45 -3.9 19.5 -3.95 19.5 -3.9 19.55 -3.85 Q19.65 -3.75 20.4 -3.35 20.9 -3.1 20.9 -2.85 20.9 -2.7 20.6 -2.55 20.6 -2.45 20.95 -1.95 21.2 -1.6 21.2 -1.35 21.2 -1.15 20.75 -0.85 20.4 -0.6 20.05 -0.45 L19.5 -0.45 Q18.95 -0.45 18.75 -0.7 L18.45 -1.05 Q17.9 -1.55 17.9 -1.8 17.9 -1.9 17.95 -1.95 L18.05 -1.95 18.35 -2.0 18.35 -2.05 Q18.35 -2.3 17.85 -2.65 17.3 -3.05 17.2 -3.2 L16.95 -3.55 16.9 -3.55 16.95 -3.45 16.9 -3.45 16.95 -3.2 16.9 -3.05 16.8 -2.9 Q16.75 -2.9 16.7 -3.0 L16.55 -2.95 Q16.45 -2.95 16.3 -3.15 L16.3 -3.1 16.2 -2.95 16.2 -2.9 16.25 -2.95 16.3 -2.95 16.45 -2.9 16.55 -2.85 16.65 -2.75 Q16.8 -2.5 16.8 -2.0 16.8 -1.9 16.85 -1.85 L17.15 -1.55 Q17.25 -1.5 17.25 -1.35 L17.25 -1.05 Q17.25 -0.95 17.2 -0.85 L17.1 -0.8 Q17.2 -0.6 17.2 -0.45 17.2 -0.15 17.0 -0.1 L16.8 0.0 16.65 0.0 Q16.6 0.0 16.55 -0.05 15.75 -0.65 15.5 -1.75 L15.55 -1.9 Q15.55 -2.0 15.6 -2.05 15.7 -2.1 15.75 -2.1 L15.8 -2.1 Q15.75 -2.3 15.6 -2.5 15.25 -2.9 15.25 -3.4 15.25 -3.6 15.25 -3.7 15.3 -4.0 15.6 -4.1 L15.2 -4.7 15.2 -4.65 15.15 -4.6 15.15 -4.55 Q15.15 -4.15 15.1 -3.95 L15.05 -3.8 Q14.95 -3.75 14.9 -3.75 L14.65 -3.75 Q14.55 -3.8 14.5 -3.85 14.45 -3.9 14.45 -4.0 L14.15 -5.2 Q14.15 -5.35 14.2 -5.4 14.25 -5.65 14.45 -5.6 L14.5 -5.65 Q14.5 -5.7 14.55 -5.75 14.65 -6.05 14.65 -6.2 L14.65 -6.35 Q14.5 -6.5 14.35 -6.8 14.15 -7.2 14.15 -7.3 14.15 -7.4 14.25 -7.8 L14.3 -8.05 14.2 -7.95 Q14.15 -7.9 14.05 -7.9 L14.0 -7.9 Q13.9 -7.9 13.8 -7.95 13.7 -8.05 13.7 -8.1 13.7 -8.2 13.7 -8.35 13.65 -8.4 13.65 -8.6 L13.65 -8.65 Q13.65 -9.15 13.8 -9.8 14.0 -10.85 14.4 -10.9 L14.5 -10.9 Q14.35 -11.05 14.35 -11.25 L14.4 -11.3 14.7 -12.05 Q14.85 -12.45 14.85 -12.6 L14.85 -12.9 15.0 -13.0 15.1 -13.05 Q15.35 -13.05 15.45 -13.2 15.5 -13.4 15.5 -13.65 L15.5 -13.85 Q15.45 -14.1 15.55 -14.25 15.55 -14.4 16.15 -14.9 16.25 -14.95 16.3 -14.95 L16.6 -14.95 Q16.75 -14.95 16.8 -14.9" fill="#cdffb4" fill-opacity="0.5019608" fill-rule="evenodd" stroke="none"/>
  </g>
</svg>
