<?xml version="1.0" encoding="UTF-8" standalone="no"?>
<svg xmlns:ffdec="https://www.free-decompiler.com/flash" xmlns:xlink="http://www.w3.org/1999/xlink" ffdec:objectType="shape" height="16.8px" width="10.8px" xmlns="http://www.w3.org/2000/svg">
  <g transform="matrix(1.0, 0.0, 0.0, 1.0, -13.95, 16.1)">
    <path d="M18.1 -3.75 L18.25 -3.75 Q18.3 -3.75 18.95 -3.4 19.25 -3.25 19.55 -3.15 L19.55 -3.2 19.7 -3.35 19.75 -3.35 Q19.85 -3.45 20.05 -3.45 L20.4 -3.4 20.85 -3.4 Q20.95 -3.35 21.25 -3.2 L21.2 -3.2 Q21.4 -3.1 21.55 -3.1 L21.85 -3.15 22.0 -3.1 22.15 -3.0 22.2 -2.85 22.2 -2.7 22.15 -2.55 22.0 -2.45 21.9 -2.4 22.0 -2.25 Q22.25 -1.95 22.25 -1.65 22.25 -1.5 22.05 -1.05 21.85 -0.65 21.65 -0.45 21.6 -0.4 21.5 -0.4 L20.2 -0.35 Q19.8 -0.35 19.4 -0.85 L19.35 -0.9 19.3 -0.9 Q18.95 -0.9 18.85 -1.15 18.8 -1.25 18.85 -1.35 18.85 -1.45 18.95 -1.5 19.0 -1.6 19.1 -1.6 L19.35 -1.55 19.55 -1.4 19.75 -1.4 Q19.9 -1.4 20.0 -1.5 L20.0 -1.45 Q20.1 -1.55 20.1 -1.7 20.05 -1.75 20.0 -1.8 L19.55 -2.2 19.25 -2.2 Q19.15 -2.25 19.05 -2.3 18.8 -2.6 18.2 -2.9 18.1 -2.95 18.05 -3.0 L17.9 -3.25 Q17.85 -3.35 17.85 -3.45 17.85 -3.55 17.9 -3.6 L17.95 -3.65 Q18.0 -3.7 18.1 -3.75 M20.3 -4.35 Q20.8 -4.2 20.9 -3.8 20.9 -3.75 20.85 -3.65 L20.75 -3.5 Q20.7 -3.45 20.6 -3.45 L20.35 -3.45 20.25 -3.5 Q19.85 -3.65 19.65 -3.7 19.55 -3.75 19.5 -3.8 19.45 -3.9 19.45 -3.95 19.45 -4.05 19.5 -4.1 19.7 -4.5 20.3 -4.35 M16.8 -0.95 L16.85 -1.0 16.8 -1.0 16.7 -1.1 16.55 -1.1 16.75 -0.95 16.8 -0.95 M16.25 -2.4 L16.3 -2.4 16.5 -2.35 Q16.65 -2.25 16.75 -2.0 L16.8 -1.85 17.05 -1.55 17.05 -1.5 Q17.45 -1.45 17.45 -1.15 L17.5 -1.1 Q17.55 -1.05 17.35 -0.85 L17.4 -0.75 17.5 -0.65 17.5 -0.6 Q17.75 -0.55 17.9 -0.55 18.2 -0.6 18.2 -0.1 L18.2 0.4 Q18.15 0.5 18.1 0.6 18.05 0.65 17.9 0.7 L17.65 0.7 17.5 0.65 17.4 0.6 Q17.0 0.55 16.55 -0.05 16.4 -0.3 16.25 -0.6 16.2 -0.75 16.25 -0.85 L16.3 -0.95 16.45 -1.1 16.5 -1.0 16.5 -1.1 16.45 -1.1 Q16.3 -1.2 16.2 -1.4 16.0 -1.8 16.0 -1.95 16.0 -2.4 16.25 -2.4 M15.55 -3.95 L15.6 -4.1 Q15.65 -4.15 15.75 -4.15 16.0 -4.3 16.5 -3.85 L16.8 -3.6 Q16.95 -3.75 17.05 -3.7 17.6 -3.75 17.7 -3.3 L17.7 -3.15 17.65 -3.0 17.65 -2.7 17.5 -2.55 Q17.35 -2.3 17.05 -2.3 16.7 -2.3 16.45 -2.6 L16.25 -2.9 Q15.95 -3.0 15.75 -3.35 L15.55 -3.8 Q15.55 -3.85 15.55 -3.95 M15.6 -7.15 Q15.7 -7.25 15.8 -7.2 L15.85 -7.2 Q15.95 -7.2 16.0 -7.15 L16.1 -7.0 16.25 -7.05 16.4 -7.0 16.45 -7.0 Q16.55 -7.0 16.6 -6.9 16.7 -6.85 16.7 -6.7 L16.7 -6.5 16.75 -6.2 16.7 -5.95 Q16.65 -5.75 16.35 -5.65 L16.3 -5.6 16.0 -5.55 16.0 -5.5 Q16.0 -5.3 15.9 -5.15 L15.75 -5.05 15.65 -4.8 15.55 -4.7 15.4 -4.7 15.15 -4.65 15.05 -4.65 Q15.0 -4.7 14.95 -4.75 L14.9 -4.75 Q14.85 -4.85 14.8 -4.95 14.8 -5.05 14.9 -5.15 15.2 -5.55 15.25 -5.7 L15.25 -5.85 Q15.25 -6.1 15.35 -6.2 L15.4 -6.25 Q15.25 -6.3 15.25 -6.45 15.2 -6.55 15.25 -6.65 L15.25 -6.7 15.3 -6.85 Q15.3 -6.95 15.6 -7.15 M14.85 -11.5 Q15.1 -11.25 15.15 -11.1 15.2 -11.0 15.2 -10.9 L15.15 -10.85 15.1 -10.7 15.15 -10.45 15.1 -10.2 15.3 -10.1 15.3 -10.15 Q15.4 -10.5 15.65 -10.35 16.65 -10.55 17.05 -9.8 17.3 -9.35 17.3 -8.9 17.3 -8.55 17.25 -8.3 17.05 -7.55 16.5 -7.6 L16.4 -7.6 Q16.2 -7.45 15.9 -7.35 L15.8 -7.35 Q15.75 -7.4 15.7 -7.45 L15.55 -7.55 Q15.5 -7.65 15.5 -7.8 15.55 -7.9 15.65 -7.95 15.8 -8.1 15.95 -8.4 L15.95 -8.45 Q16.1 -8.75 16.1 -8.95 L16.1 -9.15 16.0 -9.2 Q15.7 -9.1 15.5 -9.3 15.3 -9.4 15.3 -9.75 L15.1 -9.6 15.0 -9.5 Q15.0 -9.35 14.85 -9.2 L14.7 -9.1 Q14.6 -9.05 14.5 -9.15 14.4 -9.2 14.35 -9.3 14.35 -9.45 14.3 -9.75 L14.25 -10.0 14.2 -10.05 Q14.0 -10.1 13.95 -10.35 13.95 -10.45 13.95 -10.7 13.95 -10.95 13.95 -11.05 14.0 -11.2 14.2 -11.45 L14.4 -11.55 14.6 -11.55 Q14.75 -11.55 14.85 -11.5 M21.25 -9.3 L21.25 -9.3 M19.95 -8.05 Q20.3 -7.85 20.25 -7.55 20.25 -7.35 20.2 -7.2 20.25 -7.15 20.25 -7.0 L20.25 -6.95 20.3 -6.9 Q20.6 -6.8 20.85 -6.7 21.4 -6.4 21.5 -6.0 21.55 -5.9 21.55 -5.85 21.5 -5.75 21.45 -5.7 L21.45 -5.65 Q21.6 -5.4 21.6 -5.25 21.6 -5.05 21.55 -4.95 L21.4 -4.8 21.3 -4.75 21.1 -4.75 20.7 -4.7 20.6 -4.7 20.5 -4.75 20.45 -4.75 20.1 -4.9 19.75 -4.95 Q19.65 -4.95 19.6 -5.05 19.5 -5.1 19.45 -5.2 19.45 -5.25 19.5 -5.35 19.5 -5.55 19.9 -5.6 L20.25 -5.6 20.4 -5.65 20.5 -5.8 20.55 -5.9 20.45 -5.95 20.2 -6.25 20.15 -6.3 Q20.0 -6.4 19.95 -6.5 19.9 -6.55 19.9 -6.65 L19.9 -6.75 19.75 -6.75 19.7 -6.8 Q19.55 -6.8 19.5 -6.85 19.4 -6.95 19.4 -7.05 19.35 -7.2 19.25 -7.4 19.15 -7.65 19.0 -7.75 L18.9 -7.9 18.9 -8.0 Q18.8 -8.1 18.8 -8.2 L18.85 -8.35 19.05 -8.65 19.2 -8.7 19.25 -8.7 19.4 -8.65 19.55 -8.5 Q19.55 -8.4 19.55 -8.35 L19.55 -8.3 19.95 -8.05 M22.75 -12.15 L22.85 -12.05 22.9 -11.95 22.95 -11.95 23.15 -12.25 23.25 -12.35 23.4 -12.4 23.95 -12.4 Q24.3 -12.4 24.55 -11.95 24.75 -11.6 24.75 -11.3 24.75 -11.1 24.6 -10.7 24.4 -10.3 24.15 -10.15 24.0 -10.0 23.6 -10.0 23.5 -10.0 23.4 -9.95 L23.4 -9.9 Q23.45 -9.6 23.1 -9.4 L23.0 -9.4 22.8 -9.35 22.85 -9.4 22.35 -9.3 22.3 -9.1 Q22.15 -8.7 21.8 -8.6 L21.6 -8.6 Q21.5 -8.65 21.45 -8.75 21.4 -8.9 21.4 -9.1 L21.45 -9.3 21.35 -9.35 21.25 -9.45 21.2 -9.25 21.2 -9.15 21.05 -9.05 20.8 -9.05 Q20.7 -8.9 20.65 -8.85 L20.5 -8.8 19.9 -8.8 19.8 -8.9 19.75 -8.9 19.7 -9.05 19.7 -9.2 Q19.65 -9.4 20.05 -9.5 L20.15 -9.7 20.05 -9.75 Q20.0 -9.85 20.0 -9.95 20.0 -10.05 20.1 -10.2 L20.2 -10.3 20.3 -10.3 20.7 -10.35 20.9 -10.25 21.15 -9.9 21.15 -9.85 21.2 -9.9 Q21.3 -9.95 21.35 -10.0 21.75 -10.0 21.9 -10.35 22.0 -10.55 22.0 -10.8 L22.0 -11.0 Q21.75 -11.15 21.8 -11.3 L21.85 -11.5 21.85 -11.65 Q21.9 -11.75 22.0 -11.95 22.2 -12.2 22.4 -12.2 L22.6 -12.2 22.75 -12.15 M20.05 -16.05 L20.2 -15.95 20.35 -15.95 Q20.6 -16.0 20.95 -15.55 21.2 -15.15 21.2 -14.9 21.2 -14.65 21.05 -14.5 L21.0 -14.45 20.9 -14.4 Q20.9 -14.3 20.8 -14.2 20.75 -14.15 20.6 -14.15 L20.4 -14.15 Q20.3 -14.15 20.2 -14.2 20.15 -14.3 20.1 -14.35 L19.75 -14.35 19.55 -14.25 19.2 -14.25 Q19.35 -14.2 19.4 -14.1 19.6 -13.95 19.6 -13.55 19.6 -13.35 19.55 -13.2 L19.45 -13.1 Q19.4 -13.05 19.3 -13.0 L19.15 -12.95 19.15 -12.85 19.4 -12.9 19.6 -12.85 Q19.7 -12.8 19.8 -12.55 L19.85 -12.55 19.95 -12.5 Q20.0 -12.7 20.3 -12.7 20.6 -12.7 20.85 -12.35 L20.85 -12.4 Q21.15 -12.1 21.1 -11.9 21.1 -11.8 21.0 -11.6 20.85 -11.35 20.55 -11.35 L20.5 -11.35 20.1 -11.45 20.15 -11.45 19.5 -11.55 19.45 -11.6 19.25 -11.6 Q19.2 -11.6 19.15 -11.7 19.1 -11.8 19.1 -11.9 19.1 -12.0 19.05 -12.15 L19.0 -12.3 Q18.9 -12.35 18.85 -12.45 L18.8 -12.6 18.6 -12.6 Q18.5 -12.6 18.45 -12.65 L18.35 -12.7 Q18.3 -12.75 18.25 -12.85 18.25 -12.95 18.25 -13.0 18.3 -13.1 18.35 -13.15 L18.6 -13.3 18.8 -13.35 18.6 -13.6 18.65 -13.6 Q18.3 -14.05 18.3 -14.15 18.3 -14.25 18.35 -14.35 18.4 -14.45 18.65 -14.6 L18.9 -14.6 18.9 -14.65 Q18.9 -14.8 19.25 -14.9 L19.3 -15.0 Q19.35 -15.3 19.7 -15.45 L19.7 -15.5 Q19.6 -15.75 19.6 -15.85 19.65 -15.95 19.7 -16.0 19.8 -16.1 19.85 -16.1 L20.05 -16.05 M16.45 -16.1 L16.75 -16.1 Q17.0 -16.1 17.2 -15.75 L17.2 -15.7 Q17.3 -15.55 17.35 -15.35 L17.3 -15.2 17.2 -15.05 17.05 -15.0 Q16.85 -15.0 16.7 -14.75 L16.3 -14.2 16.25 -14.15 16.4 -14.0 16.45 -14.0 Q16.6 -14.0 16.65 -13.9 16.75 -13.85 16.75 -13.7 L16.75 -13.25 16.7 -13.1 Q16.6 -12.85 16.45 -12.75 L16.45 -12.7 16.0 -12.45 Q15.95 -12.45 15.9 -12.45 15.75 -12.35 15.6 -12.5 15.55 -12.5 15.5 -12.65 L15.5 -12.8 Q15.5 -12.85 15.7 -13.2 L15.8 -13.45 15.75 -13.65 15.65 -13.95 Q15.6 -14.05 15.65 -14.15 15.7 -14.25 15.8 -14.3 L15.85 -14.3 Q15.8 -14.4 15.8 -14.45 15.8 -14.6 15.95 -14.9 L16.0 -15.0 Q15.85 -15.1 15.85 -15.3 15.85 -15.55 16.0 -15.7 L16.25 -16.0 Q16.35 -16.1 16.45 -16.1" fill="#cdffb4" fill-opacity="0.5019608" fill-rule="evenodd" stroke="none"/>
  </g>
</svg>
