<?xml version="1.0" encoding="UTF-8" standalone="no"?>
<svg xmlns:ffdec="https://www.free-decompiler.com/flash" xmlns:xlink="http://www.w3.org/1999/xlink" ffdec:objectType="shape" height="8.5px" width="35.3px" xmlns="http://www.w3.org/2000/svg">
  <g transform="matrix(1.0, 0.0, 0.0, 1.0, 20.95, 7.2)">
    <path d="M4.15 -5.35 L4.35 -5.35 4.55 -5.25 Q3.5 -5.05 3.05 -4.6 L3.0 -4.6 3.0 -4.7 Q3.0 -4.95 3.3 -5.15 L3.7 -5.4 4.15 -5.35 M5.35 -3.75 Q5.7 -3.85 6.0 -3.95 6.0 -3.75 6.0 -3.65 L6.5 -3.7 Q6.75 -3.7 7.0 -3.35 7.25 -3.1 7.25 -3.0 L7.15 -2.85 Q7.05 -2.65 7.05 -2.6 7.05 -2.45 7.2 -2.3 L7.3 -2.3 7.55 -2.2 Q7.85 -2.1 8.0 -2.1 8.5 -2.1 8.8 -2.45 9.1 -2.85 9.35 -2.85 L10.2 -2.8 10.25 -2.8 Q10.2 -2.7 10.2 -2.65 10.2 -2.45 10.8 -2.45 11.0 -2.45 11.15 -2.55 L11.25 -2.7 11.4 -2.8 Q11.65 -3.05 11.65 -3.35 11.65 -3.6 11.45 -3.85 L11.4 -3.9 Q11.35 -4.35 10.75 -4.3 10.5 -4.25 10.3 -4.15 10.3 -4.25 10.3 -4.5 10.3 -4.7 10.5 -5.0 10.7 -5.3 11.05 -5.45 12.0 -5.8 13.05 -4.85 L13.15 -4.85 13.25 -4.8 13.5 -4.8 13.65 -5.0 Q14.25 -4.85 14.25 -4.5 L14.25 -4.2 Q14.25 -3.95 14.35 -3.8 L14.3 -3.75 Q14.3 -3.7 14.2 -3.8 L14.05 -3.95 13.95 -4.0 Q13.8 -4.05 13.55 -4.05 L13.0 -4.05 Q12.65 -3.95 12.35 -3.65 11.9 -3.25 11.9 -2.85 11.9 -2.65 12.0 -2.45 12.9 -2.35 12.9 -1.6 L12.9 -1.35 12.85 -1.35 Q12.8 -1.25 12.65 -1.25 12.2 -1.05 12.05 -0.55 11.9 0.1 11.75 0.4 11.65 0.65 10.7 0.9 L9.15 1.3 7.3 1.25 Q5.1 0.65 4.95 0.55 4.8 0.4 4.65 -0.05 4.45 -0.45 4.2 -0.6 L4.15 -0.7 Q4.1 -0.75 4.1 -0.85 4.1 -1.2 4.3 -1.5 4.5 -1.9 4.85 -2.0 L5.25 -1.95 5.45 -1.85 Q5.4 -2.1 5.2 -2.4 L4.85 -2.7 4.6 -2.8 4.3 -2.75 4.1 -2.75 Q4.15 -2.9 4.25 -2.95 L4.3 -2.95 Q4.55 -2.95 4.8 -3.1 5.0 -3.3 5.0 -3.45 L5.0 -3.5 5.2 -3.65 5.35 -3.75 M5.3 -4.75 Q5.3 -5.05 5.5 -5.35 5.65 -5.65 6.0 -5.85 6.9 -5.9 7.05 -6.0 L7.25 -5.9 Q6.6 -5.7 6.1 -5.35 5.65 -5.0 5.45 -4.55 L5.4 -4.55 5.35 -4.6 Q5.3 -4.65 5.3 -4.75 M1.3 -3.95 L1.8 -4.2 1.8 -4.3 1.75 -4.3 1.65 -4.35 Q1.85 -4.55 2.15 -4.6 L2.45 -4.6 2.45 -4.45 Q2.45 -4.25 1.8 -3.85 1.05 -3.45 1.0 -3.2 L0.9 -3.2 0.9 -3.6 Q1.0 -3.75 1.3 -3.95 M2.15 -2.3 Q1.95 -2.55 1.95 -2.75 1.95 -3.05 2.15 -3.4 2.35 -3.75 2.7 -3.9 3.2 -3.95 3.45 -3.75 3.6 -3.6 3.6 -3.45 L3.55 -3.2 Q3.45 -3.05 3.45 -2.95 3.45 -2.8 3.75 -2.65 3.55 -2.7 3.2 -2.65 2.45 -2.55 2.35 -2.15 L2.15 -2.3 M0.95 -2.3 Q1.15 -1.95 1.15 -1.6 1.15 -1.45 1.05 -1.3 0.95 -1.1 0.95 -0.85 L0.8 -0.9 Q0.7 -0.9 0.7 -0.95 0.3 -0.75 0.05 -0.1 -0.1 0.25 -0.25 0.5 L-0.55 0.8 -0.65 0.75 -0.95 0.85 -1.3 0.95 -1.85 0.9 -2.8 0.85 -4.15 1.0 -5.85 1.2 -6.4 1.15 -6.8 1.1 -7.5 1.05 -8.6 0.85 -8.75 0.7 -8.85 0.7 Q-9.35 0.3 -9.35 -0.05 -9.35 -0.75 -9.0 -0.9 L-9.25 -1.6 Q-9.6 -2.3 -10.2 -2.3 L-10.7 -2.25 -10.85 -1.95 Q-11.1 -2.1 -11.25 -2.45 -11.4 -2.75 -11.4 -2.95 -11.4 -3.55 -10.95 -4.05 -10.45 -4.5 -10.0 -4.5 -9.25 -4.5 -9.05 -4.4 L-8.85 -4.15 -8.65 -4.1 Q-8.25 -4.1 -8.0 -4.3 L-7.7 -4.6 -7.65 -4.45 -7.65 -4.4 -7.55 -3.9 Q-7.4 -3.65 -7.0 -3.65 -6.9 -3.65 -6.9 -3.7 L-6.85 -3.85 -6.35 -3.05 Q-6.0 -2.5 -5.75 -2.35 -5.7 -2.3 -5.5 -2.3 L-5.4 -2.3 -5.35 -2.35 -5.2 -2.35 -5.1 -2.5 Q-5.3 -2.8 -5.3 -2.95 -5.3 -3.1 -5.05 -3.35 L-4.7 -3.4 -3.95 -3.35 -3.5 -3.3 -3.2 -3.2 -3.1 -3.05 -3.25 -2.85 Q-3.35 -2.7 -3.35 -2.6 -3.35 -2.5 -3.15 -2.25 -2.9 -2.0 -2.75 -1.95 L-2.25 -1.95 -2.2 -2.0 -2.15 -2.0 -2.0 -2.15 Q-1.8 -2.4 -1.95 -2.6 -1.95 -2.7 -1.8 -2.7 L-1.55 -2.4 Q-1.35 -2.2 -1.3 -2.2 L-0.75 -2.25 -0.8 -2.3 -0.85 -2.45 Q-0.85 -2.65 -0.55 -2.85 -0.15 -3.15 0.4 -3.0 0.75 -2.7 0.95 -2.3 M-17.7 -6.2 L-17.75 -6.35 Q-17.75 -6.45 -17.35 -6.75 -16.95 -7.1 -16.85 -7.1 -16.85 -6.9 -17.2 -6.6 L-17.7 -6.2 M-20.85 -0.35 Q-20.7 -0.35 -20.6 -0.3 L-20.6 -0.25 -20.7 -0.2 -20.9 -0.2 Q-20.95 -0.1 -20.95 -0.3 -20.95 -0.4 -20.9 -0.4 L-20.85 -0.35 M-7.5 -7.2 L-7.35 -6.95 -6.7 -6.95 Q-6.65 -7.0 -6.6 -7.1 -6.05 -7.05 -5.85 -6.9 -5.75 -6.85 -5.6 -6.6 L-5.6 -6.55 -5.65 -6.55 Q-5.75 -6.55 -5.85 -6.7 -6.5 -6.25 -6.75 -5.5 -6.95 -4.6 -7.15 -4.25 -7.25 -4.5 -7.4 -5.2 -7.6 -5.85 -8.05 -6.2 L-8.3 -6.15 -8.35 -6.15 -8.4 -6.25 Q-8.45 -6.55 -8.25 -6.8 -8.15 -6.95 -7.8 -7.2 L-7.5 -7.2 M-9.8 -6.75 L-10.75 -6.65 -11.0 -6.45 -11.35 -6.1 -11.45 -6.1 -11.5 -6.2 Q-11.3 -6.65 -11.2 -6.75 -10.9 -7.1 -10.1 -7.1 L-9.95 -6.9 -9.8 -6.75 M-2.05 -4.55 L-1.2 -4.65 -1.1 -4.55 Q-1.7 -4.45 -1.95 -3.95 -2.25 -3.5 -2.0 -3.2 L-2.05 -3.15 -2.35 -3.35 Q-2.5 -3.5 -2.5 -3.6 -2.5 -3.9 -2.4 -4.05 -2.35 -4.25 -2.05 -4.55" fill="#ffffff" fill-rule="evenodd" stroke="none"/>
  </g>
</svg>
