<?xml version="1.0" encoding="UTF-8" standalone="no"?>
<svg xmlns:ffdec="https://www.free-decompiler.com/flash" xmlns:xlink="http://www.w3.org/1999/xlink" ffdec:objectType="shape" height="3.0px" width="39.55px" xmlns="http://www.w3.org/2000/svg">
  <g transform="matrix(1.0, 0.0, 0.0, 1.0, 18.6, 6.4)">
    <path d="M20.8 -4.0 L20.85 -3.95 Q20.95 -3.95 20.95 -3.8 20.95 -3.55 20.8 -3.45 L20.65 -3.45 20.55 -3.5 20.45 -3.4 20.3 -3.4 20.2 -3.45 Q20.05 -3.6 20.05 -3.7 20.05 -3.75 20.1 -3.8 L20.15 -3.8 20.2 -3.85 20.3 -3.85 20.35 -3.8 20.4 -3.85 20.55 -3.85 20.6 -3.95 Q20.65 -4.05 20.75 -4.0 20.8 -4.05 20.8 -4.0 M-18.0 -6.25 L-18.05 -6.15 -18.2 -5.95 -18.1 -5.75 Q-18.1 -5.7 -18.15 -5.65 -18.15 -5.6 -18.3 -5.6 -18.5 -5.6 -18.6 -5.85 L-18.6 -6.0 Q-18.35 -6.4 -18.2 -6.4 L-18.1 -6.35 -18.0 -6.25" fill="#437edb" fill-opacity="0.6" fill-rule="evenodd" stroke="none"/>
    <path d="M20.5 -3.7 L20.65 -3.7 Q20.75 -3.75 20.75 -3.8 L20.7 -3.8 Q20.7 -3.9 20.75 -3.85 L20.8 -3.85 20.8 -3.8 Q20.8 -3.65 20.7 -3.55 L20.6 -3.65 20.45 -3.6 20.4 -3.55 20.3 -3.55 Q20.2 -3.65 20.2 -3.7 L20.25 -3.7 20.25 -3.65 Q20.25 -3.6 20.35 -3.6 L20.5 -3.7 M-18.35 -5.95 L-18.35 -5.85 -18.25 -5.75 -18.3 -5.75 Q-18.4 -5.75 -18.45 -5.9 -18.25 -6.25 -18.15 -6.25 L-18.35 -5.95" fill="#ffffff" fill-rule="evenodd" stroke="none"/>
  </g>
</svg>
