<?xml version="1.0" encoding="UTF-8" standalone="no"?>
<svg xmlns:ffdec="https://www.free-decompiler.com/flash" xmlns:xlink="http://www.w3.org/1999/xlink" ffdec:objectType="shape" height="22.45px" width="12.75px" xmlns="http://www.w3.org/2000/svg">
  <g transform="matrix(1.0, 0.0, 0.0, 1.0, 6.65, 8.25)">
    <path d="M2.25 -6.3 Q1.8 -6.25 1.3 -6.05 0.8 -5.8 0.35 -5.8 L-0.25 -5.8 -0.5 -5.6 -0.65 -5.4 -0.85 -5.05 -0.85 -4.85 -0.8 -4.65 -0.8 -4.2 -0.75 -4.15 -0.8 -4.05 -0.8 -3.9 -0.85 -2.5 -0.85 -2.45 -1.0 -2.45 -1.0 -2.9 -1.05 -2.95 -1.1 -3.75 -1.1 -3.8 Q-1.15 -3.95 -1.3 -4.1 L-1.4 -4.2 -1.45 -4.15 -1.7 -4.1 -2.05 -4.05 -2.25 -4.0 -2.75 -4.1 Q-3.0 -4.3 -3.1 -4.7 -3.15 -5.15 -3.25 -5.25 L-3.6 -5.9 Q-3.8 -6.25 -3.85 -6.25 L-3.9 -6.3 -4.05 -6.25 Q-4.2 -6.0 -4.85 -5.8 -5.35 -5.6 -5.35 -5.4 -5.35 -5.2 -4.8 -4.45 -4.2 -3.65 -4.25 -3.45 -4.2 -3.3 -4.55 -2.7 -4.8 -2.1 -4.8 -1.9 -4.8 -1.75 -4.45 -1.45 L-4.35 -1.3 -3.6 -1.3 Q-3.35 -1.15 -3.3 -0.6 -3.25 -0.2 -3.0 -0.05 L-2.95 0.0 -3.05 0.1 -3.25 0.1 -3.3 0.05 Q-3.45 -0.1 -3.5 -0.55 -3.55 -0.85 -3.65 -1.05 L-4.35 -1.05 Q-4.55 -1.15 -4.8 -1.45 -5.05 -1.8 -5.05 -1.9 -5.05 -2.1 -4.75 -2.8 -4.45 -3.4 -4.45 -3.55 L-5.05 -4.3 Q-5.65 -5.1 -5.6 -5.4 L-5.6 -5.6 -5.1 -6.2 -4.7 -6.6 -4.75 -6.65 -5.0 -6.65 -5.0 -6.55 -4.95 -6.5 -5.0 -6.45 -5.0 -6.4 Q-5.2 -6.3 -5.55 -6.15 -5.8 -6.05 -5.85 -5.9 -6.1 -5.65 -6.15 -5.4 L-6.15 -5.0 -6.05 -4.75 -5.9 -4.55 -5.9 -4.5 Q-5.5 -4.2 -5.35 -4.0 L-5.35 -3.9 -5.45 -3.8 -5.5 -3.8 -5.6 -3.75 -5.65 -3.45 -5.1 -3.45 -5.1 -3.3 Q-5.3 -3.2 -5.45 -3.2 L-5.75 -3.25 -5.8 -3.3 -5.8 -3.35 -5.85 -3.45 Q-5.85 -3.65 -5.75 -3.85 L-5.7 -3.9 -5.6 -3.95 -5.9 -4.2 -6.25 -4.6 -6.25 -4.7 -6.3 -4.75 -6.6 -5.15 -6.6 -5.2 -6.45 -5.3 -6.55 -5.35 -6.6 -5.35 -6.65 -5.4 -6.65 -5.5 Q-6.65 -5.6 -6.4 -5.9 L-5.85 -6.55 -5.65 -6.95 -5.55 -6.95 Q-5.4 -6.9 -5.3 -6.7 L-5.25 -6.65 -5.15 -6.9 -5.1 -6.95 -5.05 -6.95 -5.05 -6.9 -5.0 -6.9 -4.7 -6.85 -4.6 -6.75 Q-4.45 -7.0 -4.3 -7.0 L-3.5 -7.1 -2.95 -7.3 -2.9 -7.3 -2.9 -7.5 -2.85 -7.5 Q-2.85 -7.65 -2.65 -7.9 L-2.4 -8.25 -2.3 -8.25 Q-1.35 -7.65 -1.3 -6.5 L-1.3 -5.95 Q-1.2 -5.8 -1.25 -5.45 L-1.25 -5.3 -1.2 -5.25 -1.15 -5.4 -1.2 -5.35 -1.2 -5.6 Q-1.2 -5.75 -1.15 -5.8 L-1.05 -5.8 -1.05 -6.0 -1.1 -6.25 -1.1 -7.15 -1.05 -7.2 -0.95 -7.2 -0.9 -7.15 -0.85 -6.0 -0.85 -5.9 -0.7 -6.0 Q-0.45 -6.15 -0.25 -6.2 L-0.1 -6.25 0.4 -6.35 0.9 -6.55 Q1.25 -6.65 1.8 -6.7 L1.85 -6.75 2.55 -6.7 2.6 -6.65 2.6 -6.6 2.55 -6.15 2.55 -5.7 Q2.6 -5.35 2.2 -5.15 1.6 -5.0 1.2 -4.75 L1.1 -4.75 Q0.95 -4.8 0.95 -4.85 L0.95 -4.9 1.0 -4.95 Q1.25 -5.1 2.0 -5.3 2.15 -5.35 2.25 -5.5 L2.35 -5.7 2.35 -6.25 2.25 -6.3 M2.8 -1.75 L3.05 -1.75 Q3.15 -1.8 3.15 -1.65 L3.2 -1.5 3.15 -1.4 3.1 -1.4 2.9 -1.2 2.35 -1.2 2.25 -1.35 2.2 -1.4 2.15 -1.3 2.2 -1.05 2.15 -1.0 2.1 -1.0 2.05 -0.95 1.9 -1.0 Q1.8 -1.0 1.8 -1.2 1.8 -1.25 1.9 -1.45 L2.05 -1.65 2.35 -1.65 2.35 -1.6 2.5 -1.4 2.8 -1.45 2.9 -1.5 2.65 -1.5 2.6 -1.55 2.6 -1.65 2.75 -1.75 2.8 -1.75 M5.0 -2.05 Q5.25 -2.15 5.3 -2.15 5.5 -2.15 5.55 -1.95 L5.65 -1.7 Q5.8 -1.75 5.8 -1.85 5.85 -1.95 5.75 -2.1 L5.75 -2.2 5.9 -2.2 6.05 -2.05 Q6.1 -1.95 6.1 -1.8 6.15 -1.65 5.75 -1.45 L5.7 -1.45 5.55 -1.5 5.5 -1.5 Q5.45 -1.5 5.45 -1.55 L5.4 -1.75 Q5.35 -1.85 5.25 -1.85 L5.2 -1.85 5.15 -1.8 Q5.05 -1.8 5.0 -1.75 L5.2 -1.6 5.25 -1.55 5.25 -1.5 5.2 -1.5 5.15 -1.45 4.9 -1.5 4.85 -1.5 4.7 -1.7 4.7 -1.8 Q4.75 -1.9 5.0 -2.05 M3.2 1.6 Q3.4 1.9 3.4 2.2 3.4 2.35 3.3 2.4 L3.1 2.45 3.05 2.4 3.05 2.3 3.15 2.2 Q3.05 2.05 2.95 1.8 L2.85 1.5 2.75 1.6 2.6 1.6 2.55 1.55 2.55 1.45 Q2.75 1.3 2.9 1.3 3.1 1.35 3.2 1.6 M1.3 2.2 L1.4 2.2 1.45 2.25 Q1.5 2.4 1.5 2.55 L1.4 2.95 1.2 2.95 1.15 2.9 1.15 2.75 Q1.15 2.65 1.2 2.45 L1.25 2.25 1.25 2.2 1.3 2.2 M-2.4 -7.55 L-2.2 -7.55 -2.15 -7.5 -2.1 -7.5 Q-2.0 -7.0 -1.75 -6.4 L-1.55 -6.2 -1.55 -6.4 Q-1.55 -7.4 -2.3 -7.9 -2.45 -7.8 -2.6 -7.45 L-2.45 -7.55 -2.4 -7.55 M-2.25 -7.35 L-2.3 -7.35 -2.25 -7.3 -2.2 -7.35 -2.25 -7.35 M-6.15 -5.9 L-6.2 -5.9 -6.45 -5.55 -6.4 -5.5 -6.4 -5.45 -6.45 -5.45 -6.45 -5.35 -6.35 -5.4 -6.25 -5.4 -6.25 -5.45 -6.3 -5.45 -6.3 -5.4 -6.4 -5.4 -6.4 -5.45 -6.35 -5.45 -6.35 -5.5 -6.05 -6.0 -6.15 -5.9 M-6.35 -5.2 L-6.4 -5.15 -6.4 -5.1 -6.35 -5.1 -6.35 -5.2 M-0.85 -5.45 L-0.75 -5.6 -0.7 -5.6 -0.65 -5.7 -0.85 -5.6 -0.85 -5.45 M-1.7 -6.15 L-1.7 -6.05 -1.6 -6.1 -1.7 -6.15 M-2.75 -4.5 L-2.65 -4.25 Q-2.55 -4.2 -2.45 -4.2 -2.2 -4.2 -2.05 -4.3 -1.9 -4.35 -1.65 -4.35 L-1.4 -4.45 -1.4 -4.55 -1.55 -4.8 -2.1 -5.35 Q-2.75 -6.05 -3.25 -6.4 L-3.65 -6.3 Q-3.5 -6.15 -3.35 -5.9 L-3.05 -5.3 -3.05 -5.35 Q-2.9 -5.05 -2.85 -4.75 L-2.75 -4.5 M-2.65 -3.7 L-2.4 -3.65 -2.35 -3.65 -2.35 -3.6 -2.3 -3.6 Q-2.2 -3.55 -2.2 -3.5 L-2.2 -3.4 -2.3 -3.4 -2.6 -3.45 -2.75 -3.5 Q-2.7 -3.3 -2.8 -3.15 -2.9 -2.9 -3.25 -2.75 L-3.25 -2.55 -3.0 -2.6 -2.95 -2.55 -2.9 -2.55 -2.85 -2.35 Q-2.75 -2.2 -2.75 -2.1 -2.75 -1.95 -2.8 -1.85 L-2.85 -1.75 -2.55 -1.6 -2.55 -1.5 -2.6 -1.5 -2.6 -1.45 -2.65 -1.45 -2.95 -1.5 -3.05 -1.5 -3.05 -1.6 -3.1 -1.75 Q-3.1 -1.9 -3.0 -1.95 -2.95 -2.0 -2.95 -2.05 -2.95 -2.1 -3.05 -2.2 L-3.1 -2.3 -3.4 -2.35 -3.45 -2.35 -3.45 -2.85 -3.4 -3.0 -3.35 -3.0 Q-2.95 -3.15 -2.95 -3.3 -2.95 -3.4 -3.05 -3.6 L-3.05 -3.7 -3.0 -3.75 Q-2.95 -3.8 -2.9 -3.75 L-2.65 -3.7 M-1.1 -4.7 L-1.05 -4.8 -1.15 -4.75 -1.1 -4.7 M-5.65 -6.6 L-5.85 -6.25 -5.6 -6.4 -5.35 -6.5 -5.5 -6.75 -5.65 -6.6 M-1.75 -1.7 L-1.75 -1.55 -1.8 -1.5 -1.9 -1.5 -1.9 -1.65 -1.85 -1.7 -1.75 -1.7 M-1.95 -1.25 L-1.95 -1.3 Q-1.9 -1.4 -1.85 -1.3 L-1.45 -1.3 Q-1.3 -1.2 -1.2 -1.1 L-0.95 -0.9 -0.9 -0.85 -0.9 -0.8 -0.95 -0.75 -1.3 -0.75 -1.3 -0.8 -1.55 -1.1 -1.7 -1.05 -1.55 -0.65 -1.5 -0.55 -1.35 -0.5 -1.25 -0.55 Q-1.05 -0.5 -1.05 -0.45 -0.95 -0.4 -0.95 -0.3 L-0.95 0.0 -1.0 0.05 -1.25 0.05 -1.3 0.0 -1.4 -0.2 -1.45 -0.2 Q-1.65 -0.3 -1.8 -0.7 -1.95 -1.05 -1.95 -1.2 L-1.95 -1.25 M-2.6 -0.55 Q-2.45 -0.5 -2.2 -0.2 L-2.2 -0.15 Q-2.15 -0.1 -2.4 0.15 -2.6 0.35 -2.6 0.4 L-2.6 0.45 -2.55 0.5 -2.55 0.55 -2.6 0.6 -2.75 0.6 -2.8 0.55 -2.8 0.45 Q-2.8 0.2 -2.55 0.0 L-2.35 -0.15 -2.45 -0.25 -2.6 -0.35 -2.65 -0.35 -2.6 -0.2 -2.6 -0.15 -2.65 -0.1 -2.7 -0.1 -2.75 -0.05 -2.8 -0.05 -2.85 -0.1 -2.85 -0.15 Q-2.85 -0.2 -2.8 -0.25 L-2.8 -0.3 Q-2.8 -0.45 -2.75 -0.5 -2.7 -0.6 -2.6 -0.55 M-4.25 7.8 Q-4.3 8.0 -4.55 8.45 L-4.35 8.85 -4.1 9.3 -3.95 9.8 -3.85 10.2 -3.85 10.4 -3.8 10.5 -3.85 10.6 -3.8 10.75 Q-3.7 10.85 -3.35 10.85 L-3.35 10.8 Q-3.35 10.7 -3.25 10.55 L-3.35 10.5 -3.45 10.5 -3.55 10.45 -3.65 10.35 -3.7 10.25 -3.65 10.15 -3.55 10.1 -3.5 10.1 -3.45 10.15 -3.4 10.15 Q-3.3 10.2 -3.25 10.25 L-3.1 10.25 -3.0 10.3 -2.95 10.35 -2.95 10.75 -2.9 10.8 Q-2.9 10.85 -2.9 10.9 L-3.0 11.0 -3.05 11.0 -2.95 11.25 Q-2.9 11.25 -2.85 11.25 -2.8 11.25 -2.75 11.25 -2.65 11.35 -2.65 11.5 L-2.65 11.55 -2.75 11.6 -2.75 11.65 -2.6 11.9 -2.55 11.9 -2.35 11.65 -2.2 11.65 Q-2.0 11.75 -1.75 12.05 -1.5 12.4 -1.5 12.55 L-1.55 12.8 -1.55 13.0 -1.5 13.0 Q-1.4 13.15 -1.45 13.25 -1.4 13.35 -1.4 13.4 L-1.35 13.5 -1.15 13.5 -1.1 13.55 -1.1 13.7 Q-1.1 13.9 -1.15 14.0 L-1.35 14.2 -1.55 14.2 Q-1.65 14.25 -1.7 14.15 L-1.75 14.0 Q-1.75 13.95 -1.7 13.9 L-1.75 13.8 -1.75 13.7 -2.0 13.4 Q-2.3 13.05 -2.5 13.0 L-2.6 13.05 -2.7 13.05 -2.7 13.1 -2.85 13.1 Q-3.05 13.0 -3.05 12.75 L-3.05 12.45 -3.1 12.35 -3.1 12.15 -3.15 11.95 -3.15 11.9 -3.25 11.85 Q-3.3 11.8 -3.35 11.8 L-3.4 11.8 Q-3.6 11.7 -3.9 11.55 L-3.95 11.55 -4.05 11.45 -4.1 11.45 -4.15 11.4 Q-4.25 11.25 -4.25 11.0 L-4.2 10.5 -4.4 10.5 -4.5 10.45 -4.55 10.4 -4.55 10.35 -4.6 10.4 Q-4.65 10.4 -4.7 10.45 L-4.75 10.4 Q-4.85 10.4 -4.9 10.15 L-4.95 9.85 -4.9 9.7 -4.9 9.55 -5.0 9.4 Q-5.2 9.1 -5.2 8.95 -5.2 8.75 -5.0 8.65 L-4.95 8.65 Q-4.9 8.65 -4.85 8.65 -4.8 8.7 -4.8 8.75 L-4.8 8.85 -4.85 8.95 Q-4.85 9.05 -4.75 9.2 -4.55 9.45 -4.55 9.55 L-4.55 9.65 Q-4.55 9.7 -4.6 9.75 L-4.65 9.9 -4.65 10.0 -4.5 10.0 Q-4.4 10.0 -4.4 10.05 L-4.25 10.2 -4.2 10.2 Q-4.2 9.75 -4.5 9.2 -4.85 8.55 -4.85 8.45 L-4.85 8.4 Q-4.85 8.35 -4.75 8.15 L-4.65 8.0 -4.6 7.85 Q-4.5 7.65 -4.45 7.65 L-4.35 7.65 -4.25 7.7 Q-4.2 7.75 -4.25 7.8 M-4.7 9.65 L-4.7 9.65 M-4.8 10.15 L-4.7 10.15 -4.8 10.1 -4.8 10.15 M-3.25 10.9 L-3.2 10.85 -3.25 10.85 -3.25 10.9 M-3.35 11.15 L-3.9 11.1 -3.9 11.15 -3.8 11.15 -3.25 11.35 -3.35 11.15 M-2.75 12.15 L-2.7 12.1 -2.85 12.1 -2.75 12.15 -2.75 12.2 -2.8 12.15 -2.85 12.2 -2.75 12.2 -2.7 12.15 -2.75 12.15 M-2.3 12.1 Q-2.2 12.15 -2.1 12.2 L-2.2 12.05 -2.3 12.1 -2.35 12.1 -2.35 12.2 -2.3 12.1 M-1.9 12.5 L-1.85 12.6 -1.85 12.55 -1.9 12.5 M-2.25 12.55 Q-2.25 12.5 -2.35 12.5 L-2.55 12.4 -2.65 12.45 -2.7 12.45 -2.7 12.65 Q-2.4 12.65 -2.2 12.75 L-2.25 12.55" fill="#00ffff" fill-opacity="0.5019608" fill-rule="evenodd" stroke="none"/>
    <path d="M2.3 -6.4 Q1.8 -6.35 1.25 -6.1 0.75 -5.9 0.35 -5.9 L-0.3 -5.9 -0.55 -5.65 -0.7 -5.45 -0.95 -5.05 -0.95 -4.85 -0.9 -4.65 -0.85 -4.25 -0.85 -4.0 -0.9 -3.95 -0.9 -2.5 -0.95 -2.5 -0.95 -2.95 -1.0 -3.8 -1.05 -3.8 Q-1.1 -4.0 -1.25 -4.15 -1.4 -4.3 -1.45 -4.25 L-1.5 -4.2 Q-1.6 -4.15 -1.7 -4.2 L-2.05 -4.15 -2.25 -4.05 -2.7 -4.15 Q-2.95 -4.35 -3.0 -4.7 -3.1 -5.15 -3.2 -5.3 L-3.55 -5.95 Q-3.75 -6.35 -3.85 -6.35 L-4.1 -6.3 Q-4.25 -6.1 -4.85 -5.85 -5.45 -5.65 -5.45 -5.4 -5.45 -5.15 -4.85 -4.4 -4.3 -3.65 -4.3 -3.45 -4.3 -3.35 -4.6 -2.75 -4.9 -2.15 -4.9 -1.9 -4.9 -1.7 -4.5 -1.4 -4.45 -1.3 -4.4 -1.25 -4.25 -1.15 -3.7 -1.25 L-3.65 -1.2 -3.7 -1.2 -3.65 -1.25 Q-3.4 -1.1 -3.35 -0.6 -3.35 -0.15 -3.05 0.0 L-3.05 0.05 -3.25 0.0 Q-3.4 -0.15 -3.45 -0.55 -3.45 -0.9 -3.6 -1.1 L-4.3 -1.1 Q-4.5 -1.2 -4.75 -1.5 -4.95 -1.8 -4.95 -1.9 -4.95 -2.1 -4.7 -2.75 -4.4 -3.4 -4.4 -3.55 L-4.95 -4.35 Q-5.55 -5.15 -5.55 -5.4 L-5.5 -5.55 -5.55 -5.55 -5.05 -6.15 -4.65 -6.6 -4.7 -6.7 Q-5.0 -6.7 -5.05 -6.8 L-5.1 -6.5 -5.05 -6.5 -5.6 -6.25 Q-5.85 -6.1 -5.95 -5.95 -6.15 -5.65 -6.2 -5.4 L-6.2 -5.0 -6.1 -4.7 -5.95 -4.5 -6.15 -4.65 -5.95 -4.45 Q-5.55 -4.15 -5.45 -3.95 L-5.85 -4.25 -6.2 -4.65 -6.2 -4.75 -6.25 -4.8 -6.5 -5.2 -6.45 -5.25 -6.35 -5.3 Q-6.4 -5.35 -6.55 -5.4 L-6.55 -5.45 -6.6 -5.5 Q-6.6 -5.6 -6.35 -5.85 L-5.8 -6.55 -5.55 -6.9 Q-5.45 -6.85 -5.35 -6.7 -5.3 -6.55 -5.15 -6.5 L-5.15 -6.65 -5.1 -6.85 -5.0 -6.8 -4.7 -6.75 -4.6 -6.65 -4.55 -6.75 Q-4.45 -6.9 -4.3 -6.9 -3.85 -6.95 -3.5 -7.05 -3.25 -7.1 -2.95 -7.25 L-2.85 -7.25 -2.8 -7.3 -2.8 -7.5 -2.6 -7.85 -2.35 -8.2 Q-1.4 -7.6 -1.4 -6.5 L-1.4 -5.95 Q-1.3 -5.75 -1.3 -5.5 L-1.3 -5.3 -1.25 -5.15 -1.2 -5.1 -1.1 -5.35 -1.1 -5.45 -1.15 -5.6 -1.1 -5.7 -1.0 -5.75 -1.0 -6.0 -1.05 -6.25 -1.0 -7.15 -0.95 -6.0 -0.95 -5.75 -0.65 -5.95 Q-0.45 -6.1 -0.2 -6.15 L-0.05 -6.2 0.45 -6.25 0.95 -6.5 Q1.3 -6.6 1.85 -6.65 L2.55 -6.6 2.45 -6.15 2.5 -5.9 2.5 -5.7 Q2.5 -5.4 2.15 -5.25 1.6 -5.05 1.15 -4.85 1.05 -4.85 1.05 -4.9 1.3 -5.05 2.05 -5.25 2.2 -5.3 2.3 -5.45 L2.45 -5.7 2.45 -6.25 2.3 -6.4 M2.8 -1.7 L3.1 -1.7 3.1 -1.5 2.85 -1.25 2.4 -1.25 2.3 -1.4 2.25 -1.5 Q2.1 -1.45 2.1 -1.3 L2.1 -1.05 1.95 -1.05 Q1.85 -1.05 1.85 -1.2 1.85 -1.25 1.95 -1.4 L2.1 -1.6 2.3 -1.6 2.45 -1.35 2.8 -1.35 2.95 -1.45 3.05 -1.55 2.9 -1.55 2.65 -1.6 2.8 -1.7 M5.15 -1.9 Q4.9 -1.85 4.85 -1.75 5.0 -1.65 5.2 -1.55 L4.9 -1.55 4.75 -1.75 5.05 -1.95 5.3 -2.1 Q5.45 -2.1 5.5 -1.9 5.6 -1.65 5.6 -1.6 5.85 -1.7 5.9 -1.85 5.95 -1.95 5.8 -2.15 L5.85 -2.15 6.0 -2.0 Q6.05 -1.9 6.05 -1.8 6.05 -1.7 5.7 -1.55 L5.55 -1.55 5.45 -1.8 Q5.45 -1.95 5.25 -1.95 L5.15 -1.9 M3.05 1.8 L2.9 1.4 2.7 1.55 2.6 1.5 Q2.9 1.2 3.15 1.6 3.3 1.95 3.3 2.2 3.3 2.3 3.25 2.35 L3.1 2.35 3.25 2.2 Q3.15 2.1 3.05 1.8 M1.45 2.55 L1.4 2.75 1.3 2.9 1.2 2.9 1.2 2.75 1.3 2.25 1.35 2.25 Q1.45 2.4 1.45 2.55 M-2.2 -7.45 L-1.8 -6.35 -1.75 -6.3 -1.45 -6.05 -1.45 -6.4 Q-1.5 -7.45 -2.3 -8.0 -2.55 -7.9 -2.7 -7.3 -2.55 -7.4 -2.45 -7.5 L-2.2 -7.45 M-6.35 -5.4 L-6.3 -5.35 -5.95 -6.0 Q-5.85 -6.2 -5.6 -6.3 L-5.15 -6.45 -5.25 -6.5 Q-5.4 -6.65 -5.5 -6.85 L-5.7 -6.65 -5.95 -6.25 Q-6.05 -6.05 -6.25 -5.95 L-6.55 -5.5 Q-6.45 -5.45 -6.35 -5.35 L-6.35 -5.4 M-6.3 -5.2 L-6.45 -5.15 -6.25 -4.95 -6.25 -5.2 -6.3 -5.2 M-1.45 -5.55 L-1.45 -5.55 M-1.0 -5.55 L-1.1 -5.25 -1.1 -5.1 Q-1.05 -5.1 -1.0 -5.25 L-1.0 -5.55 M-0.55 -5.85 Q-0.8 -5.7 -0.95 -5.6 L-0.95 -5.2 -0.9 -5.25 Q-0.8 -5.45 -0.65 -5.55 L-0.45 -5.85 -0.4 -5.95 -0.55 -5.85 M-2.4 -3.6 L-2.35 -3.55 -2.25 -3.5 -2.3 -3.45 -2.6 -3.5 Q-2.75 -3.55 -2.75 -3.6 L-2.85 -3.55 Q-2.75 -3.35 -2.85 -3.15 -3.0 -2.95 -3.3 -2.8 L-3.3 -2.5 -3.0 -2.5 -2.9 -2.35 Q-2.8 -2.2 -2.8 -2.1 -2.8 -2.0 -2.9 -1.85 L-2.95 -1.7 -2.75 -1.6 -2.6 -1.55 -2.95 -1.55 -3.0 -1.6 -3.05 -1.75 Q-3.05 -1.85 -2.95 -1.9 -2.9 -1.95 -2.9 -2.05 -2.9 -2.15 -2.95 -2.25 L-3.05 -2.4 -3.4 -2.4 -3.4 -2.85 -3.3 -2.95 Q-2.85 -3.1 -2.85 -3.3 -2.85 -3.4 -2.95 -3.6 L-2.95 -3.7 -2.7 -3.65 -2.4 -3.6 M-2.45 -4.15 Q-2.2 -4.15 -2.0 -4.25 L-1.65 -4.25 Q-1.5 -4.35 -1.4 -4.35 L-1.35 -4.35 -1.35 -4.55 -1.45 -4.85 -2.05 -5.4 Q-2.75 -6.15 -3.2 -6.5 L-3.8 -6.35 Q-3.55 -6.15 -3.4 -5.85 L-3.15 -5.3 Q-3.0 -5.0 -2.95 -4.75 L-2.85 -4.5 -2.7 -4.2 Q-2.55 -4.15 -2.45 -4.15 M-5.45 -3.95 L-5.45 -3.9 -5.5 -3.85 -5.65 -3.8 -5.7 -3.45 -5.7 -3.35 -5.3 -3.4 -5.15 -3.4 Q-5.3 -3.3 -5.45 -3.3 L-5.7 -3.3 -5.75 -3.35 -5.75 -3.45 Q-5.75 -3.6 -5.7 -3.85 L-5.55 -3.9 -5.45 -3.95 M-1.8 -1.6 L-1.8 -1.6 M-1.85 -1.25 L-1.5 -1.25 -1.25 -1.05 -0.95 -0.85 -1.0 -0.8 -1.25 -0.85 -1.5 -1.15 -1.8 -1.15 -1.6 -0.65 -1.55 -0.5 -1.4 -0.45 -1.3 -0.45 Q-1.1 -0.45 -1.1 -0.4 L-1.15 -0.4 Q-1.05 -0.4 -1.05 -0.25 L-1.0 -0.05 -1.05 0.0 -1.25 -0.05 Q-1.25 -0.1 -1.4 -0.25 L-1.45 -0.25 Q-1.6 -0.35 -1.75 -0.7 -1.9 -1.05 -1.9 -1.2 L-1.9 -1.25 -1.85 -1.25 M-2.8 -0.15 L-2.7 -0.2 -2.7 -0.3 Q-2.7 -0.75 -2.25 -0.15 -2.25 -0.1 -2.45 0.1 -2.7 0.3 -2.7 0.4 L-2.65 0.5 -2.6 0.55 -2.7 0.55 -2.75 0.45 Q-2.75 0.25 -2.5 0.1 -2.3 -0.1 -2.3 -0.15 -2.3 -0.2 -2.4 -0.3 L-2.6 -0.45 Q-2.75 -0.4 -2.7 -0.35 L-2.65 -0.2 Q-2.65 -0.15 -2.7 -0.15 L-2.8 -0.15 M-4.3 7.8 Q-4.35 8.0 -4.6 8.45 -4.6 8.55 -4.4 8.9 L-4.15 9.35 -4.0 9.8 -3.9 10.2 -3.9 10.6 -3.85 10.8 Q-3.7 10.95 -3.25 10.9 L-3.3 10.8 Q-3.3 10.7 -3.2 10.6 L-3.2 10.5 -3.25 10.5 -3.3 10.45 -3.45 10.45 -3.6 10.3 -3.6 10.2 -3.55 10.15 -3.5 10.15 -3.45 10.2 -3.4 10.2 -3.25 10.35 -3.05 10.35 -3.05 10.4 Q-3.0 10.4 -3.0 10.55 L-3.05 10.7 -3.1 10.75 -3.0 10.8 -3.0 10.85 Q-2.95 10.85 -2.95 10.9 L-3.0 10.9 -3.05 10.95 -3.15 10.95 -2.9 11.45 -2.95 11.4 -2.95 11.35 -2.9 11.3 -2.85 11.3 Q-2.8 11.3 -2.8 11.35 -2.7 11.4 -2.7 11.5 L-2.75 11.55 -2.85 11.55 -2.8 11.7 -2.6 12.05 -2.5 11.95 Q-2.4 11.8 -2.3 11.75 L-2.25 11.7 -2.2 11.75 Q-2.05 11.8 -1.8 12.1 -1.55 12.45 -1.55 12.55 L-1.6 12.75 -1.6 12.8 -1.65 12.95 -1.6 13.05 Q-1.5 13.2 -1.5 13.25 -1.45 13.35 -1.45 13.45 L-1.4 13.55 -1.4 13.65 -1.3 13.55 -1.2 13.55 -1.15 13.6 Q-1.15 13.65 -1.15 13.7 -1.15 13.85 -1.2 13.95 L-1.4 14.15 -1.55 14.15 Q-1.65 14.15 -1.65 14.1 L-1.7 14.0 -1.65 13.9 -1.7 13.75 -1.7 13.7 -1.95 13.35 Q-2.3 12.95 -2.5 12.95 L-2.65 13.0 -2.75 13.0 -2.75 13.05 -2.8 13.05 Q-3.0 12.95 -3.0 12.75 L-3.0 12.35 -3.05 12.3 -3.05 11.95 -3.1 11.85 -3.2 11.8 Q-3.3 11.75 -3.35 11.75 L-3.9 11.45 -4.05 11.4 -4.1 11.3 -4.1 11.35 Q-4.2 11.2 -4.2 11.0 L-4.1 10.35 -4.1 10.2 Q-4.15 9.75 -4.45 9.2 -4.8 8.5 -4.8 8.4 -4.8 8.35 -4.7 8.2 L-4.6 8.05 -4.55 7.9 -4.4 7.7 -4.35 7.7 -4.3 7.75 -4.3 7.8 M-4.9 8.75 L-4.9 8.8 -4.95 8.95 Q-4.95 9.05 -4.8 9.25 -4.6 9.5 -4.6 9.55 L-4.6 9.65 -4.65 9.7 Q-4.65 9.75 -4.7 9.85 L-4.7 10.1 -4.45 10.1 -4.35 10.25 -4.3 10.25 -4.2 10.3 -4.15 10.3 -4.15 10.4 -4.2 10.4 -4.2 10.45 -4.4 10.45 -4.55 10.3 -4.6 10.3 -4.65 10.35 -4.75 10.35 Q-4.8 10.35 -4.85 10.15 L-4.9 9.85 -4.85 9.7 -4.85 9.65 -4.8 9.6 -4.8 9.55 -4.95 9.35 Q-5.1 9.1 -5.1 8.95 -5.1 8.8 -5.0 8.7 L-4.9 8.7 -4.9 8.75 M-4.7 9.7 L-4.7 9.7 M-4.0 11.0 L-4.0 11.15 -3.95 11.15 -3.95 11.2 -3.9 11.25 -3.85 11.25 Q-3.4 11.35 -3.15 11.5 L-3.1 11.55 -3.3 11.1 Q-3.85 11.1 -4.0 11.0 M-2.8 12.15 L-2.7 12.15 -2.75 12.1 -2.8 12.15 M-2.6 12.35 L-2.65 12.35 -2.7 12.4 -2.8 12.4 -2.75 12.7 Q-2.3 12.7 -2.1 12.9 L-2.05 12.95 -2.05 12.85 Q-2.05 12.8 -2.1 12.75 L-2.2 12.55 Q-2.2 12.45 -2.3 12.4 L-2.55 12.35 -2.6 12.35 M-2.4 12.15 L-2.4 12.2 Q-2.1 12.15 -2.0 12.4 -1.95 12.5 -1.85 12.85 -1.8 12.6 -1.8 12.55 L-1.95 12.25 Q-2.15 12.0 -2.25 11.95 L-2.4 12.15" fill="#ffffff" fill-rule="evenodd" stroke="none"/>
  </g>
</svg>
