<?xml version="1.0" encoding="UTF-8" standalone="no"?>
<svg xmlns:ffdec="https://www.free-decompiler.com/flash" xmlns:xlink="http://www.w3.org/1999/xlink" ffdec:objectType="shape" height="27.25px" width="9.95px" xmlns="http://www.w3.org/2000/svg">
  <g transform="matrix(1.0, 0.0, 0.0, 1.0, 6.05, 18.25)">
    <path d="M2.15 -16.1 Q2.45 -16.35 2.5 -16.35 2.75 -16.35 2.9 -16.05 3.05 -15.8 3.25 -15.75 L3.4 -15.55 3.4 -15.5 3.45 -15.45 3.5 -15.45 3.55 -15.3 3.6 -15.3 Q3.65 -14.95 3.8 -14.4 L3.9 -14.05 3.9 -13.8 3.85 -13.75 3.8 -13.75 Q3.15 -13.8 2.5 -13.45 L2.2 -13.25 2.15 -13.25 1.6 -13.3 1.45 -13.35 0.85 -13.5 0.1 -13.6 0.05 -13.65 -0.1 -13.85 Q-0.4 -13.95 -0.55 -14.05 -0.65 -14.15 -0.75 -14.55 L-0.85 -14.35 -0.85 -14.3 -0.95 -14.25 -1.0 -14.25 -1.0 -14.3 -1.05 -14.35 -1.05 -14.45 -1.1 -14.7 -1.1 -14.75 -1.2 -14.8 -1.25 -14.85 Q-1.65 -14.85 -1.9 -14.75 L-2.2 -14.55 -2.5 -14.55 -2.5 -14.6 -2.55 -14.65 -2.85 -14.7 Q-3.0 -14.85 -3.15 -15.15 L-3.4 -15.5 Q-4.0 -15.5 -4.15 -15.75 -4.25 -15.85 -4.25 -16.1 L-4.25 -16.2 -4.4 -16.7 -4.55 -17.35 Q-4.55 -17.5 -4.4 -17.8 L-4.15 -18.2 -4.1 -18.25 -4.05 -18.25 -2.9 -17.25 -2.45 -17.1 -2.45 -17.05 -1.8 -16.7 Q-1.1 -16.25 -0.75 -15.75 -0.65 -15.6 -0.6 -15.25 L-0.55 -14.8 -0.3 -14.55 -0.25 -14.55 Q-0.2 -14.45 -0.05 -14.2 L0.5 -14.15 Q1.4 -14.15 1.4 -14.0 L1.45 -14.0 Q1.45 -13.95 1.65 -13.95 2.5 -13.95 2.75 -14.2 2.8 -14.3 2.85 -14.4 L2.85 -14.6 Q2.9 -14.75 3.1 -15.0 3.2 -15.15 3.2 -15.3 L3.2 -15.45 3.1 -15.5 2.95 -15.55 2.9 -15.55 2.7 -15.8 2.55 -16.0 1.75 -15.5 Q1.35 -15.25 1.1 -15.15 1.1 -15.05 1.0 -15.0 L0.85 -15.0 1.0 -14.45 1.0 -14.4 0.95 -14.35 0.85 -14.35 Q0.7 -14.55 0.6 -15.0 L0.35 -15.7 0.3 -15.75 0.35 -15.8 0.45 -15.8 0.5 -15.75 0.7 -15.45 0.75 -15.45 0.85 -15.4 Q0.9 -15.45 0.95 -15.4 L1.0 -15.4 Q1.15 -15.5 1.3 -15.55 L1.8 -15.8 1.85 -15.8 2.15 -16.1 M2.85 -8.55 L2.85 -8.6 Q2.8 -8.75 2.85 -8.9 2.9 -9.0 3.0 -9.1 L2.9 -9.15 2.9 -9.25 Q2.9 -9.3 3.0 -9.5 L3.15 -9.75 3.25 -9.75 3.25 -9.7 Q3.45 -9.5 3.45 -9.25 3.5 -9.15 3.25 -8.95 L3.2 -8.9 3.25 -8.9 3.3 -8.85 3.3 -8.6 3.25 -8.6 Q3.15 -8.5 3.15 -8.55 L2.85 -8.55 M3.25 -9.25 L3.2 -9.35 3.15 -9.2 3.25 -9.25 M3.4 7.4 Q3.6 7.6 3.6 7.7 L3.55 7.9 3.6 7.95 3.65 8.05 3.65 8.25 Q3.7 8.3 3.75 8.35 3.85 8.45 3.85 8.5 3.85 8.65 3.7 8.75 L3.45 9.0 3.3 9.0 Q3.25 9.0 3.25 8.9 3.25 8.8 3.25 8.75 L3.45 8.75 3.55 8.7 3.55 8.65 Q3.65 8.55 3.65 8.5 L3.6 8.45 Q3.5 8.4 3.5 8.25 L3.4 7.95 3.35 7.95 3.4 7.75 3.4 7.65 3.2 7.45 3.05 7.4 2.95 7.45 2.9 7.45 2.85 7.4 2.8 7.4 Q2.75 7.4 2.75 7.25 L2.8 7.2 2.8 7.15 3.15 7.2 3.4 7.4 M-3.45 -17.15 L-3.65 -17.1 -3.85 -16.9 Q-3.95 -16.85 -3.95 -16.65 L-4.0 -16.4 -4.0 -16.1 Q-4.0 -16.0 -3.9 -15.9 -3.7 -15.8 -3.3 -15.75 -3.1 -15.6 -2.95 -15.3 L-2.75 -14.9 -2.45 -14.8 -2.35 -14.75 Q-2.1 -14.8 -1.95 -14.9 L-1.8 -15.0 -1.45 -15.1 -1.2 -15.1 -1.0 -14.9 -0.95 -14.9 -0.9 -14.95 -1.1 -15.25 Q-1.75 -16.1 -2.5 -16.4 L-2.5 -16.45 Q-2.65 -16.65 -3.1 -17.1 L-3.45 -17.15 M-1.2 -9.75 Q-1.0 -9.7 -0.95 -9.65 L-0.95 -9.6 -1.0 -9.55 Q-1.15 -9.5 -1.15 -9.4 L-1.2 -9.2 Q-1.2 -9.1 -1.1 -9.0 L-0.95 -8.85 -0.95 -8.8 -1.0 -8.75 -1.35 -8.75 -1.4 -8.8 -1.4 -9.6 -1.3 -9.7 -1.25 -9.7 -1.25 -9.75 -1.2 -9.75 M-4.65 4.35 Q-4.55 4.55 -4.55 4.65 -4.55 4.7 -4.8 5.25 -5.0 5.75 -5.0 6.05 L-4.8 6.3 Q-4.55 6.25 -4.5 6.2 -4.5 6.0 -4.4 5.95 -4.0 5.55 -3.85 5.55 -3.7 5.55 -3.55 5.75 -3.45 5.95 -3.45 6.0 L-3.45 6.3 -3.3 6.15 -3.1 5.85 -3.05 5.7 -3.0 5.6 -3.0 5.4 Q-3.0 5.3 -2.9 5.3 -2.85 5.3 -2.75 5.35 L-2.7 5.35 Q-2.7 5.4 -2.7 5.5 L-2.7 5.55 -2.75 5.65 -2.85 5.75 -2.95 6.0 -3.35 6.5 -3.35 6.45 -3.4 6.5 Q-3.5 6.65 -3.55 6.65 L-3.6 6.65 -3.65 6.7 -3.65 6.65 -3.75 6.65 -3.8 6.6 -3.8 6.55 -3.75 6.5 -3.7 6.0 -3.8 5.95 -3.85 5.9 Q-3.9 5.9 -4.0 6.0 -4.15 6.1 -4.2 6.2 -4.2 6.4 -4.3 6.45 -4.4 6.55 -4.65 6.6 L-4.95 6.6 -5.15 6.4 Q-5.3 6.2 -5.25 6.15 -5.25 5.8 -5.0 5.2 L-4.8 4.65 Q-4.8 4.45 -5.2 3.95 -5.65 4.1 -5.8 4.35 -5.8 4.5 -5.8 4.9 -5.8 5.05 -5.7 5.1 -5.45 5.25 -5.3 5.4 L-5.3 5.45 -5.35 5.5 -5.4 5.5 Q-5.5 5.5 -5.55 5.4 L-5.55 5.35 -5.8 5.3 -5.9 5.25 -5.9 5.2 -6.0 5.05 -6.05 4.85 -6.05 4.55 -5.95 4.25 Q-5.75 3.95 -5.4 3.8 L-5.2 3.7 Q-5.1 3.65 -5.0 3.8 L-4.8 4.1 -4.65 4.35" fill="#00ffff" fill-opacity="0.5019608" fill-rule="evenodd" stroke="none"/>
    <path d="M2.85 -16.05 Q3.0 -15.75 3.2 -15.7 L3.35 -15.5 3.45 -15.4 3.5 -15.25 Q3.55 -14.9 3.7 -14.4 L3.85 -14.0 3.85 -13.8 Q3.1 -13.9 2.45 -13.5 L2.15 -13.3 1.6 -13.35 1.45 -13.4 1.1 -13.5 0.85 -13.6 0.1 -13.7 -0.05 -13.95 Q-0.35 -14.0 -0.5 -14.1 -0.6 -14.2 -0.7 -14.6 L-0.75 -14.9 -0.75 -14.85 -0.8 -14.6 -0.9 -14.35 -0.95 -14.35 -1.0 -14.5 -1.05 -14.7 -1.0 -14.75 -1.15 -14.85 -1.25 -14.95 Q-1.65 -14.95 -1.9 -14.8 L-2.2 -14.6 -2.45 -14.6 -2.55 -14.75 -2.8 -14.75 -3.1 -15.15 -3.35 -15.55 Q-3.95 -15.6 -4.1 -15.8 -4.2 -15.85 -4.2 -16.1 L-4.2 -16.2 -4.3 -16.75 -4.45 -17.35 Q-4.45 -17.5 -4.3 -17.8 L-4.05 -18.2 -2.9 -17.15 -2.5 -17.0 -1.85 -16.6 Q-1.15 -16.2 -0.8 -15.75 -0.7 -15.6 -0.7 -15.25 L-0.6 -14.8 Q-0.45 -14.6 -0.3 -14.5 -0.25 -14.4 -0.1 -14.15 L-0.1 -14.1 0.5 -14.1 Q1.3 -14.1 1.35 -14.0 1.4 -13.9 1.65 -13.9 2.55 -13.9 2.8 -14.15 2.9 -14.25 2.9 -14.4 L2.95 -14.6 Q2.95 -14.75 3.15 -14.95 3.3 -15.15 3.3 -15.3 3.3 -15.45 3.25 -15.5 L3.15 -15.55 2.95 -15.6 2.75 -15.85 Q2.6 -16.0 2.55 -16.1 2.05 -15.75 1.7 -15.55 1.3 -15.3 1.05 -15.2 1.05 -15.15 0.95 -15.1 L0.85 -15.05 0.8 -15.05 0.95 -14.45 0.95 -14.4 Q0.8 -14.6 0.65 -15.05 L0.4 -15.75 0.45 -15.75 0.65 -15.35 0.75 -15.35 0.85 -15.3 Q0.9 -15.4 0.9 -15.3 L1.0 -15.3 1.05 -15.35 1.35 -15.5 Q1.7 -15.65 1.85 -15.75 L2.2 -16.05 Q2.45 -16.25 2.5 -16.25 2.7 -16.25 2.85 -16.05 M3.2 -9.7 Q3.4 -9.45 3.4 -9.25 3.4 -9.15 3.2 -9.0 L2.95 -8.75 2.95 -8.7 3.1 -8.75 3.2 -8.8 3.25 -8.65 3.2 -8.65 3.15 -8.6 2.9 -8.6 Q2.85 -8.75 2.95 -8.9 3.05 -9.1 3.3 -9.2 L3.2 -9.55 3.05 -9.2 3.0 -9.15 Q2.95 -9.15 2.95 -9.25 2.95 -9.3 3.05 -9.45 L3.2 -9.7 M2.95 7.4 L2.85 7.35 2.85 7.25 3.15 7.25 3.35 7.45 Q3.5 7.6 3.5 7.7 L3.5 7.9 3.55 7.95 3.6 8.05 3.6 8.25 Q3.6 8.35 3.7 8.4 3.75 8.45 3.75 8.5 3.75 8.6 3.65 8.7 L3.45 8.85 3.45 8.9 3.4 8.95 3.3 8.95 3.3 8.8 3.35 8.8 3.45 8.85 3.55 8.75 Q3.75 8.6 3.75 8.5 3.75 8.45 3.65 8.4 3.55 8.35 3.55 8.2 L3.5 8.1 3.45 7.9 3.45 7.6 3.25 7.4 Q3.1 7.35 3.05 7.3 3.0 7.3 3.0 7.35 L2.95 7.4 M-3.45 -17.2 L-3.7 -17.2 -3.95 -16.95 Q-4.0 -16.9 -4.0 -16.7 L-4.1 -16.1 Q-4.1 -15.95 -3.9 -15.85 -3.75 -15.75 -3.35 -15.7 -3.2 -15.55 -3.0 -15.25 -2.85 -15.0 -2.8 -14.85 L-2.45 -14.75 -2.4 -14.7 Q-2.1 -14.7 -1.9 -14.85 L-1.75 -14.95 -1.45 -15.05 -1.2 -15.0 -0.95 -14.8 -0.95 -14.85 -0.8 -14.95 -1.05 -15.3 Q-1.7 -16.15 -2.45 -16.5 -2.6 -16.7 -3.05 -17.15 L-3.45 -17.2 M-0.3 -14.2 L-0.25 -14.15 -0.5 -14.55 Q-0.4 -14.25 -0.3 -14.2 M-1.15 -8.95 L-1.05 -8.85 -1.3 -8.8 -1.3 -9.6 -1.2 -9.7 -1.05 -9.6 Q-1.2 -9.6 -1.25 -9.45 L-1.25 -9.2 Q-1.25 -9.1 -1.15 -8.95 M-4.7 4.4 Q-4.65 4.6 -4.65 4.65 -4.65 4.7 -4.85 5.2 -5.1 5.75 -5.1 6.05 L-4.85 6.4 Q-4.45 6.35 -4.4 6.2 -4.4 6.05 -4.35 6.0 -4.0 5.65 -3.85 5.65 -3.75 5.65 -3.6 5.8 -3.5 5.95 -3.5 6.0 -3.5 6.2 -3.6 6.45 L-3.45 6.35 -3.5 6.4 -3.45 6.4 -3.05 5.9 -2.95 5.75 -2.95 5.45 Q-2.9 5.35 -2.8 5.4 L-2.75 5.4 -2.75 5.5 -2.85 5.6 -2.95 5.75 -3.0 6.0 -3.4 6.45 -3.45 6.45 Q-3.5 6.55 -3.55 6.55 L-3.6 6.55 -3.65 6.6 -3.7 6.55 -3.65 6.5 -3.7 6.5 -3.65 6.0 Q-3.65 5.95 -3.75 5.9 L-3.85 5.8 Q-3.95 5.8 -4.05 5.95 -4.25 6.1 -4.25 6.2 -4.25 6.35 -4.35 6.4 L-4.7 6.5 -4.95 6.5 -5.1 6.35 -5.2 6.15 Q-5.2 5.8 -4.95 5.2 L-4.7 4.65 Q-4.7 4.4 -5.2 3.85 -5.7 4.05 -5.85 4.35 -5.9 4.45 -5.9 4.9 -5.9 5.05 -5.75 5.15 -5.45 5.3 -5.35 5.45 L-5.4 5.45 Q-5.45 5.45 -5.45 5.4 -5.5 5.3 -5.55 5.3 L-5.75 5.25 -5.85 5.2 -5.95 5.05 -6.0 4.85 -5.95 4.55 -5.9 4.3 Q-5.7 4.0 -5.35 3.85 L-5.2 3.75 Q-5.1 3.75 -5.05 3.8 L-4.85 4.1 Q-4.8 4.2 -4.7 4.4" fill="#ffffff" fill-rule="evenodd" stroke="none"/>
  </g>
</svg>
