<?xml version="1.0" encoding="UTF-8" standalone="no"?>
<svg xmlns:ffdec="https://www.free-decompiler.com/flash" xmlns:xlink="http://www.w3.org/1999/xlink" ffdec:objectType="shape" height="29.15px" width="11.45px" xmlns="http://www.w3.org/2000/svg">
  <g transform="matrix(1.0, 0.0, 0.0, 1.0, 5.45, 22.4)">
    <path d="M0.9 -22.15 Q0.9 -22.0 0.75 -21.95 L0.75 -21.9 0.35 -21.75 0.3 -21.75 0.25 -21.8 0.25 -21.85 0.4 -22.1 Q0.45 -22.2 0.6 -22.2 L0.55 -22.2 0.55 -22.25 Q0.55 -22.35 0.6 -22.4 L0.65 -22.4 0.8 -22.35 0.85 -22.35 0.9 -22.3 0.9 -22.15 M5.95 5.65 L5.75 5.85 5.55 6.1 5.5 6.4 Q5.4 6.6 5.25 6.7 L5.15 6.7 5.1 6.65 5.1 6.6 5.15 6.55 5.3 6.3 5.35 6.05 Q5.4 5.75 5.6 5.6 5.7 5.55 5.75 5.5 L5.75 5.25 5.6 5.3 Q5.5 5.35 5.45 5.4 L5.4 5.65 5.4 5.7 5.25 5.7 5.25 5.45 Q5.25 5.35 5.3 5.25 5.4 5.2 5.75 5.0 L5.8 4.95 5.85 5.0 5.95 5.25 6.0 5.6 5.95 5.65 M-5.0 6.05 L-5.15 6.05 -5.25 6.25 -5.15 6.4 -5.0 6.65 Q-4.95 6.65 -4.95 6.7 -4.95 6.75 -5.1 6.75 -5.2 6.8 -5.45 6.25 -5.45 6.1 -5.2 5.9 L-5.15 5.85 -5.05 5.9 -5.0 5.9 -4.95 5.95 -5.0 6.0 -5.0 6.05" fill="#00ffff" fill-opacity="0.5019608" fill-rule="evenodd" stroke="none"/>
    <path d="M0.8 -22.15 Q0.8 -22.05 0.75 -22.0 L0.3 -21.85 0.45 -22.05 Q0.5 -22.15 0.7 -22.1 L0.75 -22.2 Q0.75 -22.25 0.6 -22.25 L0.65 -22.3 0.8 -22.3 0.8 -22.15 M5.9 5.6 L5.7 5.8 5.5 6.05 Q5.45 6.15 5.4 6.35 5.35 6.55 5.2 6.65 L5.2 6.6 5.35 6.3 5.45 6.05 Q5.45 5.8 5.65 5.65 5.75 5.6 5.85 5.55 L5.8 5.15 5.55 5.25 Q5.4 5.3 5.4 5.35 L5.35 5.65 5.3 5.65 5.35 5.45 5.35 5.3 Q5.45 5.25 5.8 5.05 L5.85 5.3 5.9 5.6 M-5.25 6.1 L-5.35 6.25 -5.2 6.45 -5.05 6.7 -5.1 6.7 Q-5.2 6.7 -5.35 6.25 -5.35 6.1 -5.2 5.95 L-5.05 5.95 -5.2 6.0 -5.25 6.1" fill="#ffffff" fill-rule="evenodd" stroke="none"/>
  </g>
</svg>
