<?xml version="1.0" encoding="UTF-8" standalone="no"?>
<svg xmlns:ffdec="https://www.free-decompiler.com/flash" xmlns:xlink="http://www.w3.org/1999/xlink" ffdec:objectType="shape" height="19.0px" width="82.3px" xmlns="http://www.w3.org/2000/svg">
  <g transform="matrix(1.0, 0.0, 0.0, 1.0, 41.15, 9.5)">
    <path d="M29.05 -6.6 Q41.0 -3.85 41.0 0.0 41.0 3.85 29.05 6.6 17.0 9.35 0.0 9.35 -17.0 9.35 -29.05 6.6 -41.0 3.85 -41.0 0.0 -41.0 -3.85 -29.05 -6.6 -17.0 -9.35 0.0 -9.35 17.0 -9.35 29.05 -6.6 M27.9 -6.35 Q16.35 -9.0 0.0 -9.0 -16.35 -9.0 -27.9 -6.35 -39.45 -3.75 -39.45 0.0 -39.45 3.75 -27.9 6.35 -16.35 9.0 0.0 9.0 16.35 9.0 27.9 6.35 39.45 3.75 39.45 0.0 39.45 -3.75 27.9 -6.35" fill="#ffffff" fill-rule="evenodd" stroke="none"/>
    <path d="M27.9 -6.35 Q39.45 -3.75 39.45 0.0 39.45 3.75 27.9 6.35 16.35 9.0 0.0 9.0 -16.35 9.0 -27.9 6.35 -39.45 3.75 -39.45 0.0 -39.45 -3.75 -27.9 -6.35 -16.35 -9.0 0.0 -9.0 16.35 -9.0 27.9 -6.35 Z" fill="none" stroke="#ffffff" stroke-linecap="round" stroke-linejoin="round" stroke-width="0.15000000000000002"/>
  </g>
</svg>
