<?xml version="1.0" encoding="UTF-8" standalone="no"?>
<svg xmlns:ffdec="https://www.free-decompiler.com/flash" xmlns:xlink="http://www.w3.org/1999/xlink" ffdec:objectType="shape" height="19.0px" width="83.5px" xmlns="http://www.w3.org/2000/svg">
  <g transform="matrix(1.0, 0.0, 0.0, 1.0, 42.2, 9.55)">
    <path d="M17.7 -8.55 L17.75 -8.55 17.8 -8.6 Q25.1 -7.8 29.45 -6.6 30.9 -6.2 32.65 -5.6 35.0 -4.75 35.55 -4.6 38.4 -3.65 39.75 -2.6 40.9 -1.65 41.05 -0.55 L41.05 -0.3 40.95 -0.3 40.25 -1.3 Q39.85 -1.95 39.4 -2.35 38.15 -3.55 35.1 -4.45 34.15 -4.75 32.1 -5.45 30.2 -6.1 28.75 -6.55 27.15 -7.0 24.25 -7.55 21.15 -8.1 17.7 -8.55 M12.1 -9.0 L12.0 -8.95 Q11.65 -8.95 11.25 -9.0 L10.4 -9.1 10.2 -9.15 10.8 -9.1 11.55 -9.05 Q12.05 -9.0 12.1 -9.0 M3.45 -9.5 L5.0 -9.45 5.7 -9.4 5.4 -9.35 -6.1 -9.35 -6.05 -9.4 -5.9 -9.45 -3.25 -9.5 1.3 -9.55 3.45 -9.5 M41.3 1.05 Q41.3 1.55 40.2 2.45 L39.95 2.45 Q39.9 2.4 39.9 2.35 39.9 2.3 40.45 1.65 41.0 1.0 41.05 0.85 L41.2 0.85 Q41.3 0.95 41.3 1.05 M35.45 5.2 Q34.0 5.65 30.85 6.55 28.3 7.3 23.75 7.9 18.6 8.6 11.55 9.05 L11.05 9.05 Q11.1 9.0 11.15 9.0 18.2 8.55 23.15 7.85 27.25 7.25 30.3 6.45 32.2 6.0 34.8 5.05 37.4 4.15 38.85 3.8 37.75 4.4 35.45 5.2 M2.25 9.4 L-0.1 9.35 -0.05 9.3 1.3 9.3 2.8 9.35 2.85 9.4 2.25 9.4 M-38.9 -3.5 Q-39.75 -2.9 -40.2 -2.6 -41.0 -2.1 -41.7 -1.8 -39.65 -3.85 -34.8 -5.4 -28.6 -7.4 -17.35 -8.75 L-15.95 -8.75 Q-19.75 -8.5 -23.05 -7.95 -24.2 -7.8 -25.7 -7.5 -27.3 -7.2 -28.15 -7.0 -30.0 -6.7 -31.8 -6.2 -33.3 -5.75 -34.6 -5.25 L-37.0 -4.4 Q-38.3 -3.9 -38.9 -3.5 M-41.8 -0.25 Q-41.9 -0.25 -41.9 -0.2 -41.9 0.25 -41.25 1.0 L-41.45 1.0 Q-41.85 0.85 -42.05 0.6 -42.2 0.4 -42.2 0.15 L-42.2 -0.1 Q-42.1 -0.25 -41.75 -0.3 -41.7 -0.3 -41.8 -0.25 M-10.6 -9.15 L-11.8 -9.05 Q-12.05 -9.05 -12.2 -9.1 L-12.3 -9.15 -11.55 -9.15 Q-10.65 -9.15 -10.6 -9.15 M-30.55 6.65 L-30.75 6.65 Q-33.8 5.95 -35.95 5.0 -37.15 4.5 -39.1 3.35 L-38.95 3.35 Q-37.1 4.3 -35.45 4.95 -33.2 5.9 -30.55 6.6 L-30.55 6.65 M-27.7 7.15 L-27.65 7.15 -26.0 7.45 -23.7 7.8 Q-24.8 7.8 -26.05 7.55 L-27.75 7.2 -27.7 7.15 M-18.8 8.55 Q-19.75 8.45 -20.25 8.4 L-20.25 8.35 Q-17.9 8.7 -11.85 9.05 L-7.8 9.3 Q-5.95 9.4 -5.7 9.45 -9.15 9.35 -12.75 9.15 -16.4 8.9 -17.8 8.65 -18.05 8.65 -18.8 8.55" fill="#ffffff" fill-rule="evenodd" stroke="none"/>
  </g>
</svg>
