<?xml version="1.0" encoding="UTF-8" standalone="no"?>
<svg xmlns:ffdec="https://www.free-decompiler.com/flash" xmlns:xlink="http://www.w3.org/1999/xlink" ffdec:objectType="shape" height="4.45px" width="2.6px" xmlns="http://www.w3.org/2000/svg">
  <g transform="matrix(1.0, 0.0, 0.0, 1.0, 3.85, -1.25)">
    <path d="M-3.35 1.75 L-3.6 2.15 Q-3.7 2.3 -3.75 2.6 -3.8 2.9 -3.85 3.05 L-3.85 3.1 Q-3.9 3.2 -3.6 3.4 L-3.4 3.9 -3.3 4.3 -3.3 5.25 -3.25 5.4 -3.25 5.45 -3.2 5.5 -3.2 5.6 -3.15 5.7 -2.95 5.7 -2.9 5.6 -2.8 5.2 -2.75 4.8 Q-2.7 4.65 -2.85 4.3 L-2.95 4.15 -2.95 3.7 Q-2.95 3.65 -2.95 3.6 -3.15 3.25 -3.2 3.0 L-3.15 2.95 -3.15 2.9 -2.9 2.65 -2.75 2.65 -2.7 2.7 -2.7 2.85 -2.65 2.9 -2.55 2.95 -2.45 3.1 -2.1 3.45 -2.0 3.4 -1.95 3.35 -1.95 3.25 Q-2.0 3.1 -2.2 2.8 L-2.25 2.75 Q-2.15 2.5 -1.95 2.45 L-1.85 2.4 -1.45 2.4 -1.35 2.35 -1.25 2.25 Q-1.25 2.15 -1.35 2.05 L-1.4 2.05 -1.5 1.95 -1.85 2.05 -1.85 2.0 -2.0 1.85 -2.3 1.65 -2.6 1.3 Q-2.65 1.25 -2.7 1.25 L-3.05 1.25 -3.1 1.3 -3.15 1.4 Q-3.2 1.5 -3.35 1.75 M-2.75 1.7 L-2.75 1.75 -2.85 1.75 -3.0 1.8 -2.9 1.65 -2.75 1.7 M-3.1 1.85 L-3.05 1.85 -3.05 1.8 -3.0 1.8 -3.0 1.9 -3.05 1.95 -3.15 1.85 Q-3.1 1.8 -3.05 1.8 L-3.1 1.85 M-2.6 2.3 Q-2.5 2.3 -2.45 2.35 L-2.5 2.4 Q-2.55 2.35 -2.65 2.3 L-2.6 2.3 M-1.75 3.85 L-1.8 3.8 -1.9 3.75 -2.0 3.85 -2.0 3.95 Q-1.9 4.25 -1.85 4.7 -1.75 5.05 -1.8 5.4 L-1.8 5.45 -1.7 5.55 -1.6 5.6 Q-1.55 5.6 -1.5 5.55 L-1.5 5.45 -1.45 5.1 Q-1.45 4.7 -1.55 4.4 -1.6 4.2 -1.75 3.85 M-3.05 5.2 L-3.0 5.15 -2.95 5.15 -3.0 5.2 -3.05 5.2" fill="#00ffff" fill-opacity="0.5019608" fill-rule="evenodd" stroke="none"/>
    <path d="M-3.0 1.4 Q-3.05 1.55 -3.2 1.85 L-3.5 2.2 Q-3.55 2.35 -3.6 2.65 -3.65 2.95 -3.7 3.1 L-3.5 3.3 -3.25 3.85 Q-3.15 4.1 -3.15 4.3 L-3.15 5.2 -3.1 5.4 -3.1 5.5 -3.05 5.6 -3.0 5.35 -2.95 5.2 Q-2.85 4.9 -2.85 4.8 -2.85 4.7 -3.0 4.35 L-3.1 4.15 -3.1 3.7 Q-3.35 3.25 -3.35 2.95 L-3.3 2.9 -3.25 2.8 -2.95 2.5 -2.65 2.55 -2.6 2.65 -2.6 2.7 -2.55 2.7 -2.6 2.75 -2.55 2.8 -2.55 2.75 -2.5 2.75 -2.35 3.0 -2.05 3.3 Q-2.1 3.15 -2.35 2.9 L-2.45 2.75 -2.4 2.7 Q-2.25 2.4 -2.0 2.3 L-1.95 2.3 -1.5 2.25 -1.4 2.2 -1.5 2.1 -1.9 2.2 -1.95 2.15 -1.95 2.1 -2.0 2.05 -2.1 2.0 -2.7 1.4 -2.75 1.45 -2.8 1.4 -3.0 1.4 M-3.15 2.2 L-3.25 2.5 -3.35 2.75 -3.45 2.95 Q-3.45 3.05 -3.3 3.4 -3.1 3.8 -3.1 3.9 L-3.1 3.95 -3.2 3.75 Q-3.35 3.4 -3.6 3.15 L-3.65 3.05 Q-3.6 2.6 -3.35 2.2 -3.05 1.65 -3.0 1.45 -2.85 1.5 -2.7 1.6 L-2.5 1.75 -2.45 1.8 -2.5 1.8 -2.8 1.9 -3.05 1.95 -3.1 2.0 -3.15 2.1 -3.15 2.2 M-2.75 2.25 L-2.7 2.15 -2.65 2.15 -2.65 2.1 Q-2.5 2.2 -2.3 2.4 L-2.5 2.65 -2.5 2.55 Q-2.55 2.4 -2.9 2.4 L-2.75 2.25 M-1.7 4.65 Q-1.65 5.05 -1.65 5.4 L-1.6 5.45 -1.6 5.1 Q-1.6 4.7 -1.7 4.45 L-1.85 3.9 Q-1.75 4.25 -1.7 4.65 M-3.05 4.4 Q-2.95 4.75 -2.95 4.8 -2.95 4.9 -3.0 5.15 L-3.05 5.25 -3.1 5.2 -3.1 4.35 -3.05 4.4" fill="#ffffff" fill-rule="evenodd" stroke="none"/>
  </g>
</svg>
