<?xml version="1.0" encoding="UTF-8" standalone="no"?>
<svg xmlns:ffdec="https://www.free-decompiler.com/flash" xmlns:xlink="http://www.w3.org/1999/xlink" ffdec:objectType="shape" height="12.05px" width="51.9px" xmlns="http://www.w3.org/2000/svg">
  <g transform="matrix(1.0, 0.0, 0.0, 1.0, 31.1, 26.6)">
    <path d="M18.1 -26.0 L18.2 -26.0 18.2 -25.95 Q18.25 -25.95 18.25 -25.8 L18.25 -25.6 18.2 -25.6 Q18.15 -25.55 18.05 -25.55 L18.0 -25.55 17.95 -25.6 17.95 -26.0 Q17.95 -26.05 18.0 -26.05 18.05 -26.05 18.1 -26.0 M16.35 -26.6 L16.35 -26.55 16.4 -26.5 16.4 -26.45 16.35 -26.4 16.05 -26.2 16.0 -26.2 15.95 -26.25 Q15.95 -26.55 16.3 -26.6 L16.35 -26.6 M14.85 -20.1 Q14.9 -20.2 14.95 -20.25 L15.0 -20.25 Q15.35 -20.2 15.4 -20.15 L15.4 -20.1 15.35 -20.05 15.05 -20.0 Q15.05 -19.95 15.05 -19.85 L15.0 -19.8 14.9 -19.75 14.85 -19.75 14.85 -19.8 14.8 -19.85 Q14.8 -19.95 14.85 -20.1 M18.8 -14.9 L18.8 -14.75 18.5 -14.55 18.45 -14.55 18.35 -14.65 18.35 -14.75 Q18.45 -14.9 18.5 -14.9 L18.5 -14.95 18.65 -15.0 18.7 -14.95 18.8 -14.9 M20.5 -15.95 L20.7 -15.9 Q20.75 -15.9 20.8 -15.85 L20.8 -15.55 Q20.75 -15.5 20.7 -15.55 L20.65 -15.55 20.6 -15.6 20.6 -15.65 20.4 -15.7 20.35 -15.7 20.25 -15.8 20.25 -15.9 20.3 -15.9 20.5 -15.95 M9.25 -25.1 L9.3 -25.1 Q9.5 -25.1 9.5 -25.0 L9.55 -25.0 9.55 -24.95 9.5 -24.9 Q9.3 -24.8 9.3 -24.75 L9.25 -24.7 9.15 -24.7 9.1 -24.75 Q9.1 -24.85 9.15 -24.95 L9.25 -25.1 M8.9 -24.3 L8.95 -24.3 9.0 -24.25 8.95 -23.9 8.9 -23.85 8.75 -23.85 8.75 -23.9 Q8.75 -24.05 8.8 -24.15 8.85 -24.3 8.9 -24.3 M4.7 -19.5 L4.7 -19.45 Q4.25 -19.05 4.1 -18.95 3.95 -18.85 3.45 -18.85 L2.95 -18.85 2.8 -18.9 2.75 -18.9 2.7 -18.95 2.55 -19.25 Q2.45 -19.4 2.45 -19.55 L2.35 -18.75 2.35 -18.7 2.25 -18.65 2.2 -18.65 2.1 -18.7 2.1 -18.75 2.15 -19.2 1.6 -19.75 0.65 -19.9 -0.1 -20.05 -0.15 -20.0 -0.45 -20.05 -0.6 -20.05 -1.65 -19.95 -2.55 -19.4 Q-3.1 -19.05 -3.4 -19.0 L-3.45 -19.0 -3.45 -19.1 -5.6 -18.85 -6.05 -18.75 Q-6.05 -18.7 -6.05 -18.65 L-6.05 -18.6 -6.1 -18.6 -6.4 -18.5 -6.45 -18.5 -6.5 -18.55 -6.55 -18.55 Q-7.05 -18.35 -7.55 -17.95 -8.2 -17.5 -8.7 -16.95 -9.25 -16.3 -10.1 -15.75 -11.25 -14.95 -12.25 -14.9 L-12.95 -14.95 -13.6 -15.05 -13.65 -15.05 -15.7 -14.65 -15.75 -14.65 -15.8 -14.7 -15.8 -14.75 -16.5 -14.75 -16.9 -14.8 -16.95 -14.85 -16.9 -14.9 Q-16.85 -14.95 -16.3 -15.05 L-16.25 -15.05 Q-16.0 -15.0 -15.8 -15.05 L-15.55 -15.05 -15.5 -15.0 -15.55 -14.9 -13.3 -15.45 -11.3 -15.85 -11.1 -16.05 -11.0 -16.25 -10.85 -16.75 -10.6 -17.3 -10.55 -17.35 -10.5 -17.5 Q-10.4 -17.7 -10.4 -17.8 -10.35 -18.1 -10.5 -19.1 L-10.65 -20.2 Q-10.65 -20.4 -10.55 -20.5 L-10.45 -20.65 -10.4 -20.65 -9.85 -20.75 Q-9.7 -20.95 -9.45 -21.1 L-9.0 -21.4 Q-8.7 -21.55 -7.95 -21.75 -7.25 -21.9 -7.2 -21.95 L-7.15 -21.95 -6.9 -22.0 -6.8 -22.05 -6.75 -22.1 -5.15 -22.35 -4.3 -22.5 -4.25 -22.5 -4.2 -22.45 Q-2.35 -22.3 -1.45 -22.05 -0.85 -21.95 -0.05 -21.55 L1.3 -21.05 Q2.05 -20.75 2.4 -20.5 2.4 -20.9 2.35 -21.1 L2.4 -21.15 2.4 -21.2 2.45 -21.2 Q2.75 -21.05 2.7 -20.55 L2.6 -20.0 Q2.9 -19.8 3.0 -19.2 L4.0 -19.3 4.0 -19.65 4.05 -19.65 4.1 -19.7 4.15 -19.7 Q4.7 -19.65 4.7 -19.5 M1.75 -20.2 Q2.05 -19.9 2.2 -19.7 L2.25 -20.0 2.25 -20.05 2.35 -20.05 Q1.1 -20.95 0.0 -21.3 -1.45 -21.85 -4.3 -22.2 L-4.8 -22.2 -5.1 -22.15 -5.15 -22.1 Q-5.2 -22.05 -5.55 -22.0 L-4.1 -21.8 -2.55 -21.45 -2.45 -21.45 Q-1.85 -21.35 -1.2 -21.2 -0.6 -21.1 0.7 -20.7 L0.7 -20.75 0.75 -20.75 Q1.0 -20.75 1.4 -20.45 L1.75 -20.2 M-30.6 -21.4 L-30.55 -21.35 -30.55 -21.3 Q-30.55 -21.25 -30.4 -21.15 L-30.3 -21.05 Q-30.1 -21.25 -29.8 -21.4 L-29.75 -21.4 -29.3 -21.5 -29.25 -21.5 -29.25 -21.45 -29.2 -21.45 Q-27.55 -21.3 -26.2 -20.85 -25.2 -20.55 -24.5 -20.1 -24.0 -19.8 -22.9 -19.4 -22.0 -19.05 -21.65 -18.7 L-21.65 -18.65 Q-21.25 -18.25 -20.9 -17.55 -20.5 -16.9 -20.25 -16.6 -19.45 -15.75 -18.25 -15.3 L-17.5 -15.05 -17.2 -15.0 -17.15 -14.95 -17.15 -14.9 -17.2 -14.8 Q-17.25 -14.7 -17.35 -14.75 -17.4 -14.75 -17.45 -14.8 -19.35 -15.05 -20.45 -16.4 -20.75 -16.7 -21.25 -17.5 -21.65 -18.2 -21.95 -18.5 -22.3 -18.9 -23.3 -19.2 -24.4 -19.65 -24.7 -19.85 -25.2 -20.25 -26.45 -20.65 -28.1 -21.2 -29.45 -21.1 -29.95 -21.0 -30.25 -20.15 L-30.5 -19.4 Q-30.7 -19.0 -30.9 -18.85 L-30.95 -18.85 -31.05 -19.0 -31.05 -19.05 Q-30.85 -19.5 -30.8 -20.25 L-30.75 -20.25 Q-30.7 -20.55 -30.5 -20.8 L-30.6 -20.95 Q-30.7 -21.05 -30.9 -21.05 L-31.0 -21.0 -31.1 -21.1 -31.05 -21.15 -31.05 -21.2 -30.8 -21.35 Q-30.65 -21.4 -30.6 -21.4 M-8.45 -21.3 Q-9.25 -21.15 -9.6 -20.55 L-9.65 -20.55 -10.3 -20.45 -10.35 -20.4 -10.35 -20.35 Q-10.4 -20.3 -10.4 -20.2 L-10.1 -18.1 -9.9 -18.4 Q-9.35 -19.35 -9.3 -19.55 -9.25 -20.0 -9.2 -20.15 -9.1 -20.5 -8.7 -20.7 -7.85 -20.9 -7.2 -21.15 L-6.1 -21.6 -5.7 -21.65 -6.0 -21.7 -6.05 -21.7 Q-6.1 -21.75 -6.95 -21.7 L-7.0 -21.7 Q-7.3 -21.55 -7.7 -21.45 L-8.45 -21.3 M-6.85 -19.6 L-7.2 -19.55 -7.25 -19.55 -7.7 -19.6 Q-8.15 -19.3 -8.3 -18.6 -8.5 -17.85 -8.8 -17.6 L-8.95 -17.45 Q-8.9 -17.25 -9.25 -16.9 L-9.75 -16.5 -9.75 -16.45 -10.05 -16.1 Q-10.0 -16.1 -9.6 -16.35 L-9.25 -16.6 -9.1 -16.9 -8.9 -17.2 Q-7.75 -18.35 -6.4 -18.95 -4.9 -19.55 -3.2 -19.35 L-3.15 -19.3 Q-2.8 -19.45 -2.45 -19.7 L-1.7 -20.2 -1.65 -20.25 -1.45 -20.25 -2.35 -20.4 -5.1 -20.55 Q-5.55 -20.35 -5.85 -20.2 L-6.3 -19.9 -6.85 -19.6" fill="#00ffff" fill-opacity="0.5019608" fill-rule="evenodd" stroke="none"/>
    <path d="M18.2 -25.65 L18.2 -25.7 Q18.15 -25.6 18.05 -25.6 L18.0 -25.7 18.0 -25.85 Q18.0 -26.05 18.05 -25.95 L18.1 -25.95 18.15 -25.9 18.2 -25.8 18.2 -25.65 M16.3 -26.5 L16.05 -26.25 Q16.05 -26.5 16.3 -26.55 L16.3 -26.5 M15.3 -20.1 L15.05 -20.05 Q14.95 -20.0 14.95 -19.85 L14.9 -19.85 Q14.9 -19.95 14.95 -20.05 L15.0 -20.2 15.3 -20.1 M18.45 -14.6 L18.45 -14.7 Q18.5 -14.85 18.55 -14.85 L18.65 -14.9 18.75 -14.85 Q18.55 -14.7 18.45 -14.6 M20.75 -15.6 L20.7 -15.6 20.7 -15.7 Q20.7 -15.75 20.4 -15.75 L20.3 -15.85 20.45 -15.85 20.7 -15.8 Q20.75 -15.85 20.75 -15.7 L20.75 -15.6 M9.45 -25.0 Q9.25 -24.85 9.2 -24.75 L9.2 -24.95 9.3 -25.05 9.45 -25.0 M8.85 -24.1 L8.95 -24.25 8.85 -23.9 8.8 -23.9 Q8.8 -24.0 8.85 -24.1 M2.95 -18.95 L2.8 -18.95 2.65 -19.25 Q2.5 -19.5 2.5 -19.7 2.5 -19.9 2.55 -19.95 2.85 -19.75 2.95 -19.15 L4.05 -19.25 4.05 -19.6 4.15 -19.65 Q4.6 -19.6 4.65 -19.5 L4.1 -19.05 Q3.9 -18.95 3.45 -18.95 L2.95 -18.95 M-16.5 -14.8 L-16.85 -14.85 Q-16.8 -14.9 -16.3 -14.95 -15.95 -14.95 -15.8 -14.95 L-15.6 -15.0 Q-15.6 -14.95 -15.75 -14.85 L-16.5 -14.8 M-6.4 -18.6 L-6.5 -18.6 Q-6.45 -18.7 -6.15 -18.7 L-6.1 -18.65 -6.4 -18.6 M-6.85 -19.7 L-7.2 -19.65 -7.7 -19.65 Q-8.2 -19.35 -8.4 -18.65 -8.55 -17.9 -8.85 -17.65 L-9.05 -17.5 Q-8.95 -17.3 -9.3 -16.95 L-9.8 -16.55 -9.8 -16.5 -10.1 -16.15 -10.3 -15.8 Q-10.1 -15.95 -10.0 -16.05 L-9.55 -16.3 Q-9.2 -16.5 -9.2 -16.55 L-9.05 -16.85 -8.85 -17.15 Q-7.7 -18.3 -6.35 -18.85 -4.85 -19.45 -3.25 -19.25 L-3.2 -19.25 -3.2 -19.2 Q-2.8 -19.4 -2.4 -19.65 L-1.65 -20.15 -0.9 -20.2 -2.35 -20.5 -5.1 -20.6 Q-5.55 -20.45 -5.9 -20.25 L-6.35 -19.95 Q-6.6 -19.8 -6.85 -19.7 M-6.0 -21.75 Q-6.05 -21.8 -7.0 -21.75 L-7.05 -21.75 Q-7.3 -21.6 -7.75 -21.5 L-8.45 -21.4 Q-9.25 -21.2 -9.65 -20.6 L-10.3 -20.5 -10.4 -20.4 Q-10.45 -20.35 -10.45 -20.2 L-10.3 -19.15 Q-10.15 -18.1 -10.2 -17.85 L-9.85 -18.4 Q-9.25 -19.3 -9.25 -19.5 L-9.15 -20.1 Q-9.05 -20.45 -8.65 -20.65 -7.85 -20.85 -7.15 -21.1 L-6.05 -21.55 -5.1 -21.65 -6.0 -21.75 M-29.75 -21.35 L-29.3 -21.4 -29.3 -21.35 Q-27.6 -21.25 -26.2 -20.8 -25.25 -20.5 -24.5 -20.05 -24.05 -19.75 -22.95 -19.35 -22.05 -19.0 -21.7 -18.65 -21.3 -18.2 -20.95 -17.5 -20.6 -16.85 -20.3 -16.55 -19.5 -15.65 -18.25 -15.2 L-17.5 -15.0 -17.2 -14.95 Q-17.25 -14.8 -17.35 -14.8 -17.4 -14.8 -17.4 -14.85 -19.35 -15.1 -20.4 -16.45 -20.7 -16.75 -21.15 -17.55 -21.6 -18.25 -21.9 -18.55 -22.25 -18.95 -23.3 -19.3 -24.35 -19.7 -24.65 -19.95 -25.15 -20.3 -26.45 -20.75 -28.1 -21.25 -29.45 -21.15 -30.0 -21.1 -30.35 -20.15 -30.5 -19.65 -30.6 -19.45 -30.75 -19.05 -30.9 -18.9 L-31.0 -19.05 Q-30.8 -19.45 -30.7 -20.25 -30.65 -20.55 -30.4 -20.8 L-30.55 -21.0 Q-30.7 -21.1 -30.9 -21.1 L-31.0 -21.1 -30.75 -21.3 -30.6 -21.35 Q-30.65 -21.25 -30.45 -21.1 L-30.3 -20.95 Q-30.1 -21.15 -29.75 -21.35 M1.3 -20.25 L0.9 -20.55 -0.15 -20.8 1.3 -20.25 M2.45 -21.1 Q2.65 -21.0 2.65 -20.55 L2.55 -19.95 2.4 -19.95 2.3 -18.75 2.2 -18.7 2.15 -18.75 Q2.25 -19.6 2.3 -20.0 L2.4 -20.0 2.4 -20.1 Q1.15 -21.0 0.05 -21.4 -1.4 -21.9 -4.3 -22.3 L-4.8 -22.25 -5.1 -22.2 -5.2 -22.15 -6.0 -22.0 -6.4 -21.95 Q-5.35 -21.95 -4.1 -21.7 L-2.55 -21.35 -2.45 -21.35 -1.2 -21.1 Q-0.6 -21.0 0.8 -20.6 L0.75 -20.6 0.75 -20.7 Q1.0 -20.7 1.35 -20.4 L1.7 -20.15 Q2.25 -19.65 2.25 -19.4 L2.2 -19.25 1.65 -19.8 0.65 -20.0 -0.15 -20.15 -0.15 -20.1 -0.45 -20.1 -0.6 -20.15 -1.7 -20.05 -2.55 -19.45 Q-3.15 -19.15 -3.4 -19.05 L-3.4 -19.15 -3.3 -19.15 -5.65 -18.95 Q-6.65 -18.7 -7.6 -18.0 -8.25 -17.55 -8.75 -17.0 -9.3 -16.35 -10.1 -15.8 -11.3 -15.05 -12.3 -14.95 L-12.95 -15.0 -13.6 -15.1 Q-13.55 -15.15 -13.3 -15.2 -15.45 -14.75 -15.7 -14.75 L-15.65 -14.8 -13.3 -15.4 -11.3 -15.8 -11.05 -16.0 -10.95 -16.25 -10.8 -16.75 -10.5 -17.25 -10.5 -17.3 -10.45 -17.45 Q-10.35 -17.7 -10.3 -17.8 -10.3 -18.1 -10.45 -19.1 L-10.6 -20.2 Q-10.55 -20.4 -10.5 -20.45 L-10.4 -20.6 -9.8 -20.7 Q-9.65 -20.9 -9.4 -21.05 L-8.95 -21.35 Q-8.65 -21.5 -7.9 -21.65 -7.25 -21.85 -7.15 -21.9 L-6.85 -21.95 -6.75 -22.0 -5.15 -22.3 -4.3 -22.45 -4.3 -22.4 Q-2.4 -22.25 -1.45 -22.0 -0.85 -21.85 -0.05 -21.5 L1.3 -21.0 Q2.15 -20.6 2.45 -20.4 2.5 -20.85 2.45 -21.1" fill="#ffffff" fill-opacity="0.7019608" fill-rule="evenodd" stroke="none"/>
  </g>
</svg>
