<?xml version="1.0" encoding="UTF-8" standalone="no"?>
<svg xmlns:ffdec="https://www.free-decompiler.com/flash" xmlns:xlink="http://www.w3.org/1999/xlink" ffdec:objectType="shape" height="15.75px" width="63.8px" xmlns="http://www.w3.org/2000/svg">
  <g transform="matrix(1.0, 0.0, 0.0, 1.0, 33.85, 29.6)">
    <path d="M22.2 -23.6 Q22.3 -23.6 22.45 -23.65 L22.5 -23.65 22.5 -23.55 22.55 -23.55 Q23.2 -23.7 24.2 -23.2 L25.4 -22.55 Q25.9 -22.45 26.1 -22.25 L26.4 -21.95 Q26.7 -21.8 27.55 -21.65 L27.55 -21.7 27.6 -21.65 27.65 -21.65 29.05 -21.5 29.1 -21.5 29.15 -21.55 Q29.65 -21.5 29.85 -21.4 L29.95 -21.4 29.95 -21.25 Q29.95 -21.2 29.9 -21.15 L29.85 -21.15 29.6 -21.25 29.6 -21.2 29.25 -21.2 29.25 -21.3 29.2 -21.3 28.2 -21.35 Q28.45 -21.25 28.75 -21.2 L29.9 -20.9 29.9 -20.85 29.95 -20.85 29.95 -20.65 29.9 -20.65 29.85 -20.6 29.8 -20.65 29.8 -20.7 Q28.4 -21.0 28.25 -21.1 L27.85 -21.3 Q27.7 -21.35 27.6 -21.45 L27.55 -21.45 Q26.15 -21.7 23.3 -23.35 L22.55 -23.35 22.5 -23.3 Q21.9 -23.25 21.7 -23.15 21.55 -23.0 21.4 -22.75 L21.4 -22.7 21.35 -22.65 21.35 -22.6 21.25 -22.45 Q21.2 -22.35 21.2 -22.25 L21.15 -22.0 Q21.15 -21.65 21.3 -21.45 L21.35 -21.4 21.4 -21.4 21.4 -21.3 21.55 -20.9 21.6 -20.85 21.65 -20.75 Q21.95 -20.25 22.8 -19.25 L22.85 -19.15 22.9 -19.15 Q23.1 -18.95 23.85 -18.45 L23.85 -18.4 Q24.55 -17.85 24.55 -17.45 L24.5 -17.0 24.45 -16.75 24.5 -16.6 24.5 -16.55 24.45 -16.5 24.1 -16.05 Q23.55 -15.3 23.5 -14.8 L23.5 -14.75 23.2 -14.5 23.2 -14.4 22.4 -14.0 22.45 -13.95 22.45 -13.9 22.4 -13.9 22.35 -13.85 22.05 -13.85 22.0 -13.9 21.75 -14.1 19.7 -14.1 Q18.9 -14.45 18.4 -15.1 18.25 -15.3 18.1 -15.55 L17.9 -16.0 17.4 -16.6 17.15 -17.1 Q16.95 -17.45 16.7 -17.5 16.35 -17.6 15.95 -17.9 15.6 -18.25 15.45 -18.3 14.75 -18.55 14.5 -18.65 14.25 -18.8 14.15 -18.95 L13.95 -19.25 13.65 -19.75 Q13.35 -19.95 13.1 -20.1 L12.25 -20.45 Q11.55 -20.7 10.85 -21.15 L9.65 -21.95 9.6 -21.95 9.6 -22.0 Q8.5 -21.9 7.95 -21.6 L7.4 -21.3 Q7.0 -21.2 6.35 -21.2 L6.15 -21.2 6.0 -21.25 6.0 -21.3 5.95 -21.35 5.95 -21.45 5.4 -21.65 4.8 -21.55 4.7 -21.5 4.65 -21.45 4.6 -21.45 Q4.55 -21.5 4.5 -21.6 L4.45 -21.75 4.45 -21.8 4.55 -21.8 4.55 -21.85 4.8 -21.8 5.1 -21.85 5.3 -21.9 Q5.5 -21.9 5.9 -21.65 L5.95 -21.65 6.3 -21.4 6.75 -21.45 7.0 -21.5 7.05 -21.55 8.55 -22.0 9.65 -22.15 9.7 -22.15 9.7 -22.1 9.75 -22.1 Q10.4 -21.65 11.2 -21.2 11.95 -20.75 12.3 -20.65 13.1 -20.4 13.7 -19.85 14.1 -19.55 14.25 -19.2 L14.3 -19.2 Q14.35 -19.05 14.7 -18.9 15.35 -18.65 15.7 -18.45 L16.2 -18.05 Q16.55 -17.8 16.8 -17.7 17.25 -17.5 17.75 -16.65 L18.25 -15.85 18.2 -15.85 18.4 -15.6 18.45 -15.6 Q18.5 -15.4 18.6 -15.25 19.0 -14.65 19.85 -14.35 L21.8 -14.3 21.85 -14.3 22.2 -14.1 22.25 -14.1 Q22.5 -14.35 22.8 -14.55 L22.85 -14.6 Q23.0 -14.6 23.1 -14.7 23.2 -14.8 23.2 -14.95 L23.15 -15.0 23.15 -15.05 23.2 -15.05 23.45 -15.45 Q23.6 -15.8 23.6 -16.25 23.6 -16.7 23.5 -17.0 L23.45 -17.0 23.45 -17.05 23.05 -17.8 22.7 -18.25 Q22.35 -18.4 22.0 -18.5 L21.95 -18.55 Q21.95 -18.6 22.05 -18.65 L22.1 -18.7 22.15 -18.65 22.2 -18.7 22.3 -18.7 21.9 -19.15 21.65 -19.25 21.65 -19.3 21.45 -19.5 21.45 -19.55 21.55 -19.55 21.45 -19.65 21.4 -19.6 21.3 -19.6 21.3 -19.65 Q21.25 -19.9 21.2 -20.4 L21.1 -20.65 20.95 -21.05 20.7 -21.45 20.7 -21.5 Q20.75 -22.1 20.85 -22.35 L20.9 -22.45 Q20.45 -22.05 20.45 -21.9 20.45 -21.3 20.65 -20.45 L20.95 -18.95 21.65 -18.8 21.7 -18.8 21.75 -18.75 21.65 -18.65 21.1 -18.7 20.75 -18.7 20.75 -18.75 Q20.75 -19.1 20.65 -19.55 L20.45 -20.35 Q20.3 -20.8 20.25 -21.15 20.2 -21.3 20.3 -21.55 L20.25 -21.65 Q20.2 -21.8 20.2 -21.9 20.15 -22.1 21.1 -22.9 L21.1 -22.85 21.15 -22.9 Q21.1 -22.95 21.1 -23.0 21.1 -23.15 21.6 -23.3 L21.75 -23.35 22.05 -23.6 22.15 -23.6 22.2 -23.55 22.2 -23.6 M27.55 -23.2 L27.5 -23.15 27.45 -23.15 27.35 -23.2 27.3 -23.25 27.3 -23.3 27.35 -23.35 27.4 -23.35 27.5 -23.3 27.55 -23.3 27.55 -23.2 M24.0 -17.7 L24.3 -17.2 24.3 -17.4 Q24.3 -17.75 23.65 -18.25 L23.55 -18.3 24.0 -17.7 M-33.8 -28.6 Q-33.9 -28.65 -33.85 -28.8 -33.85 -29.2 -33.5 -29.45 -33.35 -29.6 -33.2 -29.55 -33.05 -29.55 -32.95 -29.35 L-32.9 -29.3 -32.95 -29.25 -33.0 -29.25 Q-33.4 -29.25 -33.5 -29.1 L-33.45 -28.9 Q-33.3 -28.85 -33.05 -28.55 L-32.8 -28.25 -32.75 -28.2 -32.75 -28.15 -32.8 -28.1 -33.0 -28.05 -33.05 -28.05 -33.05 -28.1 Q-33.15 -28.2 -33.25 -28.4 -33.35 -28.5 -33.75 -28.55 L-33.8 -28.6 M-30.4 -28.65 L-30.4 -28.7 -30.35 -28.75 -30.3 -28.75 Q-30.2 -28.7 -30.1 -28.6 -29.95 -28.5 -29.95 -28.25 -29.95 -28.2 -30.3 -27.9 L-30.55 -27.7 -30.55 -27.5 -30.6 -27.45 Q-30.6 -27.4 -30.65 -27.4 -30.7 -27.4 -30.7 -27.45 L-30.8 -27.45 -30.8 -27.5 Q-30.9 -27.55 -30.9 -27.7 L-30.9 -27.75 Q-30.75 -27.95 -30.55 -28.05 L-30.25 -28.3 -30.3 -28.45 -30.4 -28.65" fill="#00ffff" fill-opacity="0.5019608" fill-rule="evenodd" stroke="none"/>
    <path d="M22.1 -23.5 L22.15 -23.5 21.9 -23.35 22.55 -23.5 Q23.2 -23.65 24.15 -23.15 24.7 -22.9 25.35 -22.5 25.85 -22.35 26.05 -22.2 L26.35 -21.9 Q26.65 -21.75 27.55 -21.6 L27.6 -21.6 29.15 -21.4 29.1 -21.4 29.15 -21.45 Q29.65 -21.45 29.8 -21.35 L29.85 -21.35 29.9 -21.3 29.85 -21.25 29.45 -21.35 29.2 -21.35 28.15 -21.45 27.8 -21.45 Q28.2 -21.25 28.7 -21.1 L29.85 -20.8 29.85 -20.75 Q28.4 -21.1 28.3 -21.15 L27.6 -21.5 27.55 -21.5 Q26.2 -21.75 23.3 -23.45 L22.5 -23.4 Q21.85 -23.3 21.65 -23.2 21.5 -23.05 21.35 -22.75 L21.3 -22.7 21.2 -22.65 21.2 -22.6 21.25 -22.6 21.2 -22.5 21.2 -22.45 Q21.1 -22.35 21.1 -22.25 L21.1 -22.0 Q21.1 -21.6 21.25 -21.4 L21.3 -21.35 21.3 -21.3 Q21.45 -20.85 21.95 -20.0 L21.55 -20.75 Q21.9 -20.2 22.75 -19.2 L22.85 -19.1 Q23.05 -18.9 23.8 -18.35 24.45 -17.8 24.45 -17.45 L24.4 -17.0 24.35 -16.75 24.4 -16.55 24.0 -16.1 Q23.45 -15.3 23.45 -14.8 L23.15 -14.55 23.15 -14.5 22.6 -14.15 22.25 -14.0 22.35 -13.95 22.3 -13.9 22.2 -13.9 22.1 -13.95 Q21.85 -14.1 21.8 -14.15 L19.75 -14.2 Q18.95 -14.5 18.45 -15.15 L18.2 -15.6 18.0 -16.0 Q17.8 -16.3 17.45 -16.65 L17.2 -17.15 Q17.0 -17.5 16.7 -17.6 16.4 -17.65 16.0 -18.0 15.6 -18.3 15.45 -18.35 14.8 -18.6 14.55 -18.7 14.3 -18.85 14.2 -18.95 L14.0 -19.3 13.7 -19.8 Q13.4 -20.0 13.1 -20.2 L12.3 -20.5 Q11.6 -20.75 10.85 -21.25 L9.7 -22.0 9.7 -22.05 Q10.35 -21.6 11.2 -21.15 11.95 -20.7 12.3 -20.6 13.05 -20.35 13.65 -19.8 14.05 -19.5 14.2 -19.15 14.3 -19.0 14.65 -18.85 15.3 -18.55 15.65 -18.35 L16.2 -18.0 Q16.55 -17.75 16.8 -17.6 17.2 -17.45 17.7 -16.6 L18.15 -15.8 18.35 -15.6 Q18.45 -15.4 18.55 -15.2 18.95 -14.6 19.8 -14.25 L21.8 -14.25 Q22.05 -14.1 22.2 -14.0 L22.3 -14.05 Q22.55 -14.3 22.85 -14.5 23.05 -14.55 23.15 -14.65 23.25 -14.8 23.25 -14.95 L23.25 -15.0 23.5 -15.45 Q23.7 -15.75 23.7 -16.25 23.7 -16.75 23.55 -17.05 L23.5 -17.05 23.1 -17.85 22.75 -18.3 Q22.4 -18.5 22.05 -18.55 L22.05 -18.6 22.6 -18.45 22.45 -18.6 22.2 -18.65 22.4 -18.6 22.45 -18.6 22.45 -18.65 21.95 -19.25 21.7 -19.35 21.55 -19.5 21.8 -19.4 21.45 -19.8 21.35 -19.7 Q21.3 -19.9 21.25 -20.45 L21.2 -20.7 21.0 -21.1 20.75 -21.5 Q20.85 -22.05 20.95 -22.35 21.0 -22.6 21.15 -22.75 20.35 -22.15 20.35 -21.9 20.35 -21.3 20.55 -20.4 L20.9 -18.9 21.65 -18.75 20.8 -18.75 Q20.8 -19.1 20.7 -19.6 L20.5 -20.35 Q20.4 -20.8 20.3 -21.2 20.3 -21.3 20.35 -21.55 L20.3 -21.7 Q20.25 -21.8 20.25 -21.9 20.25 -22.1 21.15 -22.8 L21.25 -22.9 Q21.2 -22.9 21.2 -23.0 21.2 -23.1 21.65 -23.25 L21.8 -23.3 22.1 -23.5 M22.25 -23.5 L22.25 -23.5 M6.2 -21.3 L6.05 -21.35 5.95 -21.5 5.4 -21.7 4.8 -21.6 Q4.75 -21.6 4.65 -21.55 L4.55 -21.65 Q4.5 -21.7 4.5 -21.75 L4.8 -21.75 5.1 -21.8 5.3 -21.8 Q5.45 -21.8 5.9 -21.6 L6.3 -21.35 6.75 -21.4 7.05 -21.45 8.6 -21.95 9.65 -22.1 9.7 -22.05 Q8.5 -22.0 7.9 -21.65 L7.4 -21.4 Q7.0 -21.25 6.35 -21.25 L6.2 -21.3 M29.55 -21.25 L29.3 -21.25 29.35 -21.3 29.55 -21.25 M27.45 -23.25 L27.45 -23.25 M24.3 -16.95 L24.3 -17.0 24.4 -17.4 Q24.4 -17.8 23.7 -18.3 L23.15 -18.75 Q23.7 -18.05 23.95 -17.7 24.15 -17.3 24.3 -16.95 M-30.25 -28.45 L-30.35 -28.65 Q-30.2 -28.65 -30.15 -28.55 -30.0 -28.45 -30.0 -28.25 L-30.35 -27.95 -30.65 -27.7 -30.65 -27.5 Q-30.65 -27.55 -30.75 -27.55 -30.85 -27.6 -30.8 -27.7 -30.7 -27.9 -30.5 -28.0 L-30.15 -28.25 -30.25 -28.45 M-33.55 -29.1 Q-33.5 -28.9 -33.55 -28.85 -33.4 -28.8 -33.1 -28.5 L-32.8 -28.2 -33.0 -28.15 -33.2 -28.4 Q-33.3 -28.6 -33.75 -28.65 -33.8 -28.7 -33.8 -28.8 -33.8 -29.15 -33.5 -29.4 -33.15 -29.65 -33.0 -29.3 -33.5 -29.3 -33.55 -29.1" fill="#ffffff" fill-opacity="0.7019608" fill-rule="evenodd" stroke="none"/>
  </g>
</svg>
