<?xml version="1.0" encoding="UTF-8" standalone="no"?>
<svg xmlns:ffdec="https://www.free-decompiler.com/flash" xmlns:xlink="http://www.w3.org/1999/xlink" ffdec:objectType="shape" height="17.0px" width="64.35px" xmlns="http://www.w3.org/2000/svg">
  <g transform="matrix(1.0, 0.0, 0.0, 1.0, 34.55, 29.25)">
    <path d="M23.15 -25.05 L23.15 -25.1 23.2 -25.1 Q23.45 -25.05 23.65 -24.9 L24.1 -24.55 24.15 -24.5 24.15 -24.45 24.2 -24.4 24.35 -24.4 24.35 -24.35 24.4 -24.35 24.75 -23.8 Q25.1 -23.1 25.35 -22.8 25.5 -22.6 25.9 -22.3 26.3 -22.05 26.7 -21.85 L27.85 -21.35 27.9 -21.3 27.9 -21.25 27.85 -21.2 27.8 -21.2 Q27.3 -21.3 26.9 -21.5 25.75 -22.0 24.85 -23.1 24.75 -23.25 24.5 -23.7 L24.3 -24.05 Q24.25 -24.05 24.25 -24.1 L24.2 -24.15 23.3 -24.75 Q22.9 -24.7 21.85 -24.3 L20.65 -23.75 Q20.45 -23.55 20.4 -23.2 L20.3 -22.6 20.25 -22.55 Q20.35 -21.95 21.15 -20.85 L21.25 -20.85 21.3 -20.8 21.35 -20.8 21.35 -20.75 21.55 -20.35 22.8 -18.95 23.05 -18.65 23.1 -18.6 23.1 -18.55 23.2 -18.5 23.2 -18.45 23.3 -18.3 23.3 -18.05 23.35 -18.05 Q23.4 -18.0 23.4 -17.85 L23.4 -17.75 24.15 -15.5 24.2 -15.45 24.2 -15.4 24.25 -15.25 24.25 -15.15 24.3 -14.8 Q24.35 -14.45 23.7 -13.85 23.15 -13.3 22.8 -13.15 L22.7 -13.15 21.8 -12.8 20.45 -12.25 20.2 -12.25 Q19.35 -12.7 18.85 -13.0 17.95 -13.5 17.85 -14.0 17.55 -14.2 17.45 -14.65 17.4 -14.95 17.3 -15.5 17.25 -15.75 17.1 -17.05 17.0 -17.8 16.75 -18.3 L16.25 -18.95 Q15.65 -19.7 15.2 -19.85 14.5 -20.1 13.95 -20.5 L13.15 -21.05 13.15 -21.0 Q12.75 -21.3 12.15 -21.3 12.1 -21.3 12.1 -21.35 L12.1 -21.45 12.15 -21.45 12.8 -21.4 13.45 -21.05 13.95 -20.7 15.3 -20.05 Q15.75 -19.8 16.3 -19.25 L16.8 -18.7 16.85 -18.65 Q17.2 -18.1 17.35 -17.1 17.5 -15.75 17.55 -15.55 17.65 -15.05 17.7 -14.8 L17.8 -14.6 17.85 -14.6 Q18.15 -14.25 19.3 -14.15 L20.6 -14.05 20.9 -14.15 21.6 -14.45 22.05 -14.75 Q22.3 -14.9 23.2 -15.0 23.4 -15.15 23.45 -15.5 L23.45 -16.0 23.5 -16.05 23.4 -16.55 23.4 -16.6 22.95 -17.6 Q22.6 -18.2 22.1 -18.65 21.95 -18.8 21.8 -19.15 L21.6 -19.7 21.3 -20.3 21.05 -20.6 Q20.05 -21.95 20.05 -22.65 20.05 -23.05 20.2 -23.6 L20.2 -23.65 20.25 -23.7 20.3 -23.8 20.4 -23.8 Q20.55 -23.95 20.7 -24.0 20.85 -24.1 23.1 -24.95 L23.2 -24.95 23.15 -25.0 23.15 -25.05 M19.75 -23.15 L19.8 -23.1 19.8 -23.05 Q19.75 -22.95 19.65 -22.75 L19.6 -22.6 Q19.6 -22.55 19.9 -22.0 20.25 -21.4 20.3 -20.9 20.4 -20.55 20.8 -20.2 L21.65 -19.4 21.65 -19.3 21.6 -19.3 21.6 -19.25 21.55 -19.25 Q20.45 -19.75 20.15 -20.85 L19.85 -21.7 Q19.65 -22.15 19.3 -22.5 L19.25 -22.55 19.25 -22.6 19.45 -22.9 Q19.65 -23.15 19.7 -23.15 L19.75 -23.15 M12.0 -21.4 L12.0 -21.35 11.95 -21.3 10.95 -21.2 10.4 -21.15 9.9 -21.1 6.5 -21.1 Q5.95 -21.15 5.6 -21.25 L5.2 -21.35 Q5.1 -21.4 4.85 -21.5 L4.6 -21.6 4.55 -21.65 4.55 -21.7 Q4.55 -21.75 4.6 -21.8 L4.65 -21.8 Q4.8 -21.8 5.2 -21.6 5.7 -21.45 6.5 -21.35 L9.85 -21.35 10.4 -21.4 10.9 -21.45 12.0 -21.45 12.0 -21.4 M21.25 -20.6 L21.25 -20.65 21.3 -20.65 21.2 -20.6 21.25 -20.6 M23.15 -18.4 L23.05 -18.4 23.1 -18.35 23.15 -18.4 M21.5 -14.15 L20.9 -13.95 21.5 -13.65 Q21.8 -13.55 22.1 -13.45 L22.2 -13.55 22.2 -13.5 Q22.55 -13.75 23.15 -14.25 L23.2 -14.25 Q23.35 -14.4 23.4 -14.6 L23.45 -14.9 Q23.1 -14.55 22.35 -14.65 22.05 -14.4 21.5 -14.15 M22.15 -13.25 Q21.3 -12.7 20.95 -12.75 L20.5 -12.75 20.15 -12.8 20.1 -12.8 Q19.25 -13.1 18.55 -13.5 18.8 -13.3 19.05 -13.15 L19.75 -12.75 Q20.2 -12.5 20.3 -12.5 20.6 -12.5 21.55 -12.9 L22.2 -13.2 22.15 -13.25 M29.5 -21.3 Q29.8 -21.3 29.8 -21.25 L29.8 -21.15 29.65 -21.05 29.45 -21.05 28.3 -21.1 28.3 -21.15 28.25 -21.2 28.3 -21.25 28.35 -21.25 29.5 -21.3 M-34.55 -28.4 L-34.5 -28.45 Q-34.4 -28.55 -34.15 -28.45 -33.95 -28.35 -33.9 -28.25 L-33.9 -28.15 -33.95 -28.15 -34.3 -28.05 -34.35 -28.1 Q-34.5 -28.25 -34.55 -28.4 M-29.75 -29.25 L-29.45 -29.1 -29.4 -29.1 -29.4 -29.05 -29.45 -28.35 Q-29.45 -28.3 -29.5 -28.3 L-30.05 -28.3 -30.1 -28.35 -30.05 -28.4 -29.85 -28.65 -29.7 -28.85 -29.8 -28.95 Q-29.9 -29.1 -29.85 -29.15 L-29.85 -29.2 -29.8 -29.25 -29.75 -29.25" fill="#00ffff" fill-opacity="0.5019608" fill-rule="evenodd" stroke="none"/>
    <path d="M20.2 -22.65 L20.2 -22.7 Q20.2 -22.0 21.2 -20.75 L21.2 -20.8 21.25 -20.75 21.3 -20.75 21.5 -20.35 22.7 -18.9 23.0 -18.6 23.05 -18.5 23.1 -18.5 23.15 -18.45 23.25 -18.25 23.25 -18.0 23.3 -17.95 23.3 -17.75 23.75 -16.55 24.1 -15.4 24.2 -15.2 24.15 -15.15 24.25 -14.8 Q24.25 -14.5 23.65 -13.9 23.1 -13.4 22.8 -13.25 L22.7 -13.25 21.8 -12.85 Q20.95 -12.5 20.45 -12.3 L20.25 -12.35 Q19.4 -12.75 18.9 -13.05 18.0 -13.55 17.9 -14.0 17.65 -14.25 17.55 -14.65 L17.35 -15.5 Q17.3 -15.75 17.15 -17.05 17.05 -17.8 16.85 -18.35 L16.3 -19.0 Q15.7 -19.75 15.2 -19.95 14.55 -20.2 14.0 -20.55 L13.2 -21.1 Q12.75 -21.35 12.15 -21.4 L12.8 -21.35 13.45 -21.0 Q13.85 -20.7 13.95 -20.65 L15.3 -20.0 Q15.7 -19.75 16.25 -19.2 16.6 -18.85 16.75 -18.6 L16.8 -18.6 Q17.15 -18.1 17.25 -17.1 17.4 -15.75 17.45 -15.55 17.55 -15.05 17.65 -14.8 17.7 -14.6 17.75 -14.5 L17.8 -14.55 Q18.15 -14.15 19.3 -14.05 L20.6 -14.0 20.65 -13.95 20.9 -14.1 21.65 -14.4 22.1 -14.7 Q22.35 -14.85 23.2 -14.95 23.45 -15.05 23.5 -15.5 L23.55 -16.0 23.5 -16.6 23.45 -16.6 23.0 -17.65 Q22.65 -18.25 22.15 -18.7 22.0 -18.85 21.85 -19.2 L21.7 -19.75 21.4 -20.2 21.35 -20.35 21.1 -20.65 Q20.1 -21.95 20.1 -22.65 20.1 -23.05 20.25 -23.6 L20.4 -23.75 20.25 -23.35 Q20.4 -23.75 20.75 -23.95 20.85 -24.05 23.15 -24.9 L23.35 -24.85 Q23.5 -24.7 23.75 -24.55 23.9 -24.5 24.1 -24.4 L24.15 -24.35 24.35 -24.3 24.7 -23.75 Q25.05 -23.05 25.3 -22.75 25.45 -22.55 25.85 -22.25 26.3 -22.0 26.7 -21.8 L27.85 -21.25 Q27.35 -21.4 26.9 -21.6 25.75 -22.1 24.95 -23.15 24.8 -23.3 24.55 -23.75 L24.3 -24.15 24.25 -24.2 Q24.2 -24.25 23.3 -24.8 22.9 -24.8 21.8 -24.35 L20.6 -23.8 Q20.4 -23.6 20.3 -23.2 L20.2 -22.6 20.2 -22.65 M19.5 -22.6 Q19.5 -22.5 19.8 -21.95 20.15 -21.35 20.25 -20.9 20.3 -20.5 20.75 -20.15 L21.6 -19.35 21.55 -19.35 Q20.55 -19.8 20.2 -20.85 L19.95 -21.7 Q19.7 -22.2 19.3 -22.55 L19.5 -22.85 19.7 -23.1 Q19.7 -22.95 19.6 -22.8 19.5 -22.7 19.5 -22.6 M21.25 -20.65 L21.25 -20.65 M21.45 -14.2 L20.7 -13.95 21.45 -13.6 Q21.75 -13.45 22.1 -13.4 L22.25 -13.45 Q22.6 -13.7 23.2 -14.2 23.45 -14.35 23.5 -14.55 L23.5 -15.05 Q23.2 -14.6 22.35 -14.7 22.05 -14.45 21.45 -14.2 M9.85 -21.3 L10.95 -21.4 11.95 -21.4 10.95 -21.25 10.4 -21.25 9.85 -21.2 6.5 -21.2 Q5.95 -21.2 5.6 -21.3 L5.2 -21.45 Q5.1 -21.45 4.85 -21.55 L4.6 -21.7 4.65 -21.75 Q4.75 -21.75 5.15 -21.55 5.65 -21.35 6.5 -21.25 L9.85 -21.3 M22.1 -13.3 Q21.25 -12.8 20.95 -12.8 L20.5 -12.8 20.15 -12.85 Q18.9 -13.3 18.05 -13.9 18.2 -13.75 18.4 -13.55 18.7 -13.25 19.0 -13.1 L19.7 -12.7 Q20.2 -12.4 20.3 -12.4 20.65 -12.4 21.6 -12.85 21.95 -13.05 22.45 -13.25 L22.1 -13.3 M23.2 -25.05 Q23.45 -25.0 23.6 -24.85 L24.05 -24.5 24.1 -24.4 Q23.7 -24.85 23.2 -25.05 M29.65 -21.15 L29.45 -21.1 28.35 -21.2 29.5 -21.25 29.75 -21.2 29.65 -21.15 M-34.45 -28.4 L-34.2 -28.4 -33.95 -28.2 -34.3 -28.15 Q-34.45 -28.3 -34.45 -28.4 M-29.75 -29.0 Q-29.8 -29.1 -29.8 -29.15 L-29.45 -29.05 -29.5 -28.4 -30.0 -28.35 -29.8 -28.6 Q-29.7 -28.7 -29.6 -28.85 L-29.75 -29.0" fill="#ffffff" fill-opacity="0.7019608" fill-rule="evenodd" stroke="none"/>
  </g>
</svg>
