<?xml version="1.0" encoding="UTF-8" standalone="no"?>
<svg xmlns:ffdec="https://www.free-decompiler.com/flash" xmlns:xlink="http://www.w3.org/1999/xlink" ffdec:objectType="shape" height="30.15px" width="1.5px" xmlns="http://www.w3.org/2000/svg">
  <g transform="matrix(1.0, 0.0, 0.0, 1.0, 0.6, 22.45)">
    <path d="M0.05 -21.9 Q0.05 -21.85 0.05 -21.75 L0.05 -21.8 Q0.0 -21.75 -0.05 -21.7 L-0.15 -21.7 Q-0.4 -21.8 -0.5 -21.85 L-0.5 -21.9 Q-0.6 -22.0 -0.6 -22.15 L-0.6 -22.3 -0.55 -22.4 -0.5 -22.45 -0.25 -22.45 Q-0.15 -22.35 -0.15 -22.25 L-0.2 -22.25 -0.05 -22.15 0.05 -21.9 M0.9 7.15 L0.9 7.3 Q0.95 7.45 0.4 7.7 L0.3 7.7 Q0.15 7.7 -0.1 7.45 L-0.1 7.2 -0.05 7.15 0.05 7.1 0.15 7.15 0.2 7.2 0.2 7.3 0.3 7.35 0.45 7.3 0.65 7.15 Q0.7 7.1 0.75 7.1 0.85 7.1 0.9 7.15" fill="#00ffff" fill-opacity="0.5019608" fill-rule="evenodd" stroke="none"/>
    <path d="M-0.45 -22.3 L-0.35 -22.3 -0.3 -22.25 Q-0.4 -22.25 -0.4 -22.2 L-0.4 -22.1 Q-0.25 -22.15 -0.2 -22.05 L-0.1 -21.85 Q-0.35 -21.95 -0.4 -22.0 -0.45 -22.05 -0.45 -22.15 L-0.45 -22.3 M0.8 7.3 Q0.8 7.4 0.3 7.55 0.2 7.55 0.05 7.4 L0.05 7.25 0.1 7.4 0.2 7.45 0.3 7.55 0.55 7.4 0.75 7.25 0.8 7.3" fill="#ffffff" fill-rule="evenodd" stroke="none"/>
  </g>
</svg>
