<?xml version="1.0" encoding="UTF-8" standalone="no"?>
<svg xmlns:ffdec="https://www.free-decompiler.com/flash" xmlns:xlink="http://www.w3.org/1999/xlink" ffdec:objectType="shape" height="11.55px" width="17.4px" xmlns="http://www.w3.org/2000/svg">
  <g transform="matrix(1.0, 0.0, 0.0, 1.0, -2.7, 6.3)">
    <path d="M3.65 -2.5 Q3.75 -2.55 3.8 -2.4 3.85 -2.35 3.85 -2.2 3.85 -2.0 3.8 -1.95 L3.8 -1.9 3.75 -1.8 3.55 -1.8 Q3.5 -1.8 3.45 -1.85 3.4 -1.9 3.4 -1.95 L3.4 -2.05 3.1 -2.05 3.1 -2.0 3.05 -2.0 Q3.0 -1.9 2.95 -1.9 2.9 -1.9 2.85 -1.95 L2.75 -2.05 2.85 -2.2 2.85 -2.4 2.8 -2.3 2.85 -2.35 2.85 -2.4 2.9 -2.5 Q2.95 -2.55 3.05 -2.55 L3.15 -2.55 3.6 -2.5 3.65 -2.5 M2.7 -2.15 L2.7 -2.15 M2.75 -1.8 L2.7 -1.95 3.0 -1.85 2.9 -1.75 2.85 -1.75 2.75 -1.8 M3.2 -0.95 L3.55 -0.9 3.75 -0.75 3.75 -0.8 3.8 -0.95 3.85 -0.9 3.85 -0.85 3.95 -0.8 3.9 -0.75 3.95 -0.65 4.0 -0.6 4.05 -0.65 4.1 -0.65 Q4.15 -0.65 4.1 -0.6 L4.05 -0.6 4.05 -0.55 4.0 -0.55 Q3.9 -0.45 3.45 -0.65 L3.45 -0.55 3.35 -0.55 3.3 -0.5 Q3.3 -0.4 3.25 -0.35 L3.0 -0.4 Q2.95 -0.4 2.95 -0.65 2.95 -0.85 3.05 -0.9 L3.2 -0.95 M4.15 -0.9 L4.0 -1.05 4.1 -1.05 4.1 -0.95 4.15 -0.9 M3.6 -0.55 L3.55 -0.55 3.5 -0.6 3.6 -0.55 M8.0 -3.95 L8.1 -4.1 Q8.15 -4.1 8.2 -4.15 L8.5 -4.0 9.1 -4.05 9.15 -4.1 9.2 -4.25 9.3 -4.3 Q9.35 -4.35 9.4 -4.3 L9.5 -4.3 9.55 -4.25 Q9.65 -4.2 9.65 -3.95 9.65 -3.75 9.55 -3.65 L9.55 -3.6 9.45 -3.6 Q9.4 -3.5 9.35 -3.55 9.05 -3.55 8.7 -3.55 L8.25 -3.5 8.15 -3.5 8.05 -3.55 Q7.95 -3.65 7.95 -3.85 7.95 -3.9 8.0 -3.95 M5.1 -0.85 L5.1 -0.85 5.15 -0.65 5.3 -0.4 Q5.3 -0.3 5.3 -0.25 5.3 -0.15 5.25 -0.1 L5.1 -0.05 Q4.9 -0.1 4.75 -0.45 4.7 -0.7 4.7 -0.9 4.65 -1.15 5.0 -1.45 5.35 -1.75 5.5 -1.7 5.85 -1.6 5.85 -1.15 L5.85 -1.1 5.8 -1.05 6.0 -1.05 6.05 -0.95 6.15 -0.9 6.2 -0.85 6.2 -0.55 6.0 -0.35 Q5.95 -0.3 5.9 -0.3 L5.6 -0.3 Q5.55 -0.3 5.5 -0.35 5.45 -0.4 5.4 -0.45 5.35 -0.75 5.35 -1.1 L5.1 -0.9 5.1 -0.85 M5.75 -0.8 L5.8 -1.05 5.75 -1.0 Q5.7 -1.0 5.7 -0.8 L5.75 -0.8 5.75 -0.75 5.8 -0.7 5.9 -0.8 5.75 -0.8 M8.85 -1.0 Q8.8 -1.05 8.8 -1.2 8.8 -1.5 8.95 -1.55 9.05 -1.7 9.25 -1.55 L9.25 -1.5 9.3 -1.5 9.3 -1.45 Q9.65 -1.2 9.85 -1.1 L9.9 -1.05 9.95 -0.9 9.9 -0.8 Q9.9 -0.75 9.85 -0.75 L9.8 -0.7 9.6 -0.7 Q9.55 -0.75 9.5 -0.8 L9.4 -0.85 9.35 -0.8 9.3 -0.8 9.25 -0.75 9.05 -0.8 Q9.0 -0.8 8.95 -0.8 L8.9 -0.85 8.85 -1.0 M8.8 -0.1 Q9.0 -0.55 9.1 -0.65 9.3 -0.85 9.8 -0.6 10.35 -0.35 10.3 -0.05 10.3 0.15 10.2 0.45 10.15 0.75 10.15 0.9 10.15 1.05 10.2 1.4 L10.2 1.45 10.25 1.75 10.25 1.8 10.1 2.3 10.1 2.25 Q10.0 2.45 10.0 2.7 L9.95 2.75 Q10.1 2.5 10.35 2.1 10.8 1.5 10.85 1.2 10.9 1.0 11.0 0.25 11.0 -0.1 11.1 -0.35 11.15 -0.55 11.2 -0.7 L11.2 -0.75 11.25 -0.8 Q11.3 -0.85 11.35 -0.85 L11.4 -0.85 11.5 -0.8 11.45 -0.85 11.4 -0.95 11.35 -1.1 11.45 -1.1 11.45 -1.25 11.3 -1.3 11.3 -1.2 11.25 -1.3 11.15 -1.35 10.9 -1.85 Q10.85 -1.85 10.75 -1.75 L10.55 -1.6 10.5 -1.5 10.5 -1.7 Q10.5 -2.45 11.05 -2.2 11.4 -2.0 11.7 -1.7 L11.75 -0.85 11.8 -0.05 Q11.85 -0.1 11.95 -0.1 L11.9 0.05 12.05 0.05 Q12.25 0.05 12.3 0.1 12.2 0.3 12.1 0.4 12.0 0.5 11.8 0.65 L11.8 1.25 Q11.8 1.8 11.6 2.05 11.45 2.2 11.1 2.35 10.75 2.55 10.6 2.7 L10.45 2.9 10.45 3.05 10.4 3.15 Q10.35 3.3 10.3 3.55 L10.25 3.3 10.1 3.6 Q10.0 4.0 9.8 4.15 L9.7 4.2 9.6 4.2 9.5 4.15 9.45 4.05 Q9.45 3.95 9.45 3.9 L9.5 3.85 9.45 3.8 Q9.4 3.75 9.4 3.65 L9.4 3.1 9.55 2.45 9.55 1.85 Q9.5 1.6 9.4 1.55 L9.35 1.45 Q9.3 1.35 9.35 1.3 9.45 1.05 9.45 0.9 L9.4 0.7 9.35 0.4 9.05 0.6 9.05 1.0 Q8.85 1.35 8.8 1.9 L8.8 2.15 8.85 2.6 Q8.9 2.75 8.95 2.85 L9.0 2.9 9.05 3.0 9.05 3.05 9.0 3.2 8.9 3.3 8.8 3.3 8.7 3.25 Q8.6 3.05 8.4 2.3 L8.35 1.9 8.35 1.85 8.4 1.6 8.5 0.75 8.5 0.5 8.55 0.4 8.65 0.3 8.8 -0.1 M10.25 -0.9 L10.35 -0.9 Q10.6 -0.7 10.7 -0.45 L10.75 -0.4 10.75 -0.3 10.7 -0.25 10.65 -0.15 10.55 -0.1 Q10.4 -0.1 10.3 -0.4 L10.25 -0.45 Q10.15 -0.45 10.1 -0.5 10.05 -0.55 10.05 -0.65 10.05 -0.8 10.2 -0.85 L10.25 -0.9 M11.55 -0.4 L11.5 -0.05 11.5 0.0 11.55 -0.2 11.55 -0.4 M17.6 -5.2 L17.55 -4.3 17.55 -3.9 Q17.75 -4.45 17.8 -4.6 L17.8 -4.9 17.85 -4.85 17.9 -5.0 17.85 -5.15 Q17.85 -5.3 17.95 -5.3 L18.0 -5.25 18.15 -5.5 18.25 -5.65 18.15 -5.6 Q17.95 -5.5 17.85 -5.4 L17.85 -5.35 17.75 -5.35 17.6 -5.2 M17.65 -5.65 Q17.75 -6.0 18.1 -6.1 L18.7 -6.3 Q18.85 -6.35 19.2 -6.1 L19.45 -6.1 20.0 -6.2 20.1 -6.05 20.1 -5.8 Q20.1 -5.6 19.95 -5.1 L19.85 -4.7 19.95 -4.8 19.95 -4.65 19.9 -4.65 19.8 -4.6 19.8 -4.55 19.65 -4.55 19.65 -4.7 19.6 -4.75 19.6 -4.85 19.65 -4.75 19.6 -4.9 Q19.55 -4.9 19.55 -5.05 19.5 -5.15 19.5 -5.35 L19.4 -5.45 18.9 -5.45 18.6 -5.3 18.4 -5.25 18.2 -4.9 18.25 -4.65 Q18.25 -4.35 17.9 -3.45 17.75 -3.1 17.75 -2.8 L17.7 -2.65 Q17.7 -2.45 17.7 -2.25 L17.6 -2.25 Q17.55 -1.75 17.35 -1.55 16.75 -1.0 16.45 -0.4 16.4 -0.35 16.35 -0.35 16.2 -0.35 16.2 -0.55 16.2 -0.9 16.6 -1.35 16.6 -1.55 16.65 -1.8 L16.65 -2.25 16.6 -2.25 16.6 -2.3 16.5 -2.25 16.45 -2.25 Q16.5 -2.2 16.45 -2.1 L16.4 -2.0 16.25 -2.0 Q16.1 -2.05 16.0 -2.15 15.75 -2.35 15.8 -2.6 L15.85 -3.0 15.85 -3.3 15.7 -3.25 15.45 -3.15 Q15.4 -3.15 15.35 -3.15 L15.25 -3.25 Q15.25 -3.3 15.25 -3.35 15.25 -3.4 15.25 -3.45 15.5 -3.8 15.85 -3.75 16.2 -3.7 16.25 -3.3 L16.2 -2.85 16.2 -2.5 16.25 -2.5 16.3 -2.6 16.3 -2.65 16.4 -2.7 16.35 -2.65 16.55 -2.7 16.7 -2.65 16.85 -2.65 Q16.85 -2.6 16.9 -2.6 L16.9 -2.25 16.95 -2.25 17.1 -2.35 17.1 -2.2 Q17.1 -2.1 17.05 -1.85 17.3 -2.15 17.3 -2.45 L17.25 -2.5 17.25 -2.85 17.2 -3.0 Q17.1 -3.3 17.1 -3.5 17.1 -3.6 17.2 -4.25 17.3 -4.9 17.3 -5.25 17.45 -5.5 17.65 -5.65 M16.6 -2.75 L16.55 -2.7 16.55 -2.75 16.6 -2.75 M16.6 -2.25 L16.65 -2.25 16.65 -2.3 16.6 -2.3 16.6 -2.25 M16.8 -1.55 L16.75 -1.55 16.8 -1.55 M16.95 -1.05 L16.9 -1.05 16.95 -1.1 16.95 -1.05 M16.4 -1.3 L16.4 -1.3 M16.75 -0.8 L16.75 -0.7 16.7 -0.65 16.75 -0.8 M19.65 -5.7 L19.6 -5.7 19.7 -5.5 19.75 -5.7 19.65 -5.7 M19.0 -6.25 L19.0 -6.25 M19.2 -6.2 L19.2 -6.2 M19.4 -6.15 L19.45 -6.1 19.35 -6.15 19.4 -6.15 M19.95 -4.95 L19.95 -4.95 M11.4 0.75 Q11.3 1.25 11.25 1.45 L11.0 1.9 10.75 2.25 10.9 2.2 Q11.45 1.8 11.55 0.7 L11.4 0.7 11.4 0.75 M9.85 0.8 Q9.85 0.65 9.8 0.4 L9.75 0.45 9.85 0.8 M9.35 0.4 Q9.4 0.35 9.5 0.3 L9.25 0.25 9.35 0.35 9.35 0.4 M9.55 0.6 L9.5 0.65 9.55 0.7 9.55 0.6 M10.65 4.9 Q10.7 5.0 10.7 5.05 L10.65 5.2 10.55 5.25 Q10.45 5.25 10.4 5.2 L10.05 4.9 Q10.0 4.85 9.95 4.75 9.95 4.7 9.95 4.65 10.0 4.55 10.05 4.55 L10.1 4.5 10.25 4.5 Q10.3 4.55 10.45 4.7 L10.65 4.9 M8.2 0.75 Q8.3 0.85 8.3 1.3 8.3 1.6 8.25 1.7 L8.15 1.8 7.75 1.85 7.7 1.9 7.4 1.9 Q7.3 1.9 7.3 1.8 7.25 1.75 7.25 1.7 7.2 1.5 7.85 1.35 L7.9 1.25 Q7.9 1.05 7.8 1.0 L7.3 0.55 Q7.25 0.5 7.25 0.4 7.25 0.25 7.35 0.2 L7.4 0.15 Q7.45 0.15 7.55 0.2 L8.15 0.7 8.2 0.75 M7.0 1.85 L6.9 2.1 7.1 2.2 Q7.2 2.3 7.25 2.45 7.35 2.55 7.3 2.65 7.3 2.75 7.2 2.8 L7.05 2.8 Q6.85 2.85 6.65 2.5 6.5 2.2 6.5 2.1 6.5 1.85 6.75 1.7 L6.85 1.65 Q6.9 1.65 6.95 1.75 7.0 1.8 7.0 1.85" fill="#00ffff" fill-opacity="0.5019608" fill-rule="evenodd" stroke="none"/>
    <path d="M3.7 -2.2 L3.65 -2.05 3.65 -2.0 3.55 -2.0 Q3.6 -2.1 3.6 -2.25 L3.05 -2.25 3.05 -2.35 3.1 -2.35 3.65 -2.3 Q3.7 -2.35 3.7 -2.2 M2.85 -2.05 L2.9 -2.15 2.95 -2.2 3.0 -2.3 3.0 -2.25 2.95 -2.2 2.95 -2.1 2.9 -2.05 Q2.9 -1.95 2.95 -1.9 L3.05 -1.85 3.0 -1.8 2.9 -1.95 2.9 -2.0 2.8 -1.95 2.85 -2.05 M3.15 -0.65 L3.25 -0.6 3.15 -0.6 Q3.05 -0.65 3.05 -0.7 L3.1 -0.75 3.3 -0.8 3.6 -0.8 3.9 -0.6 4.0 -0.6 Q4.05 -0.65 4.05 -0.75 4.05 -0.8 4.0 -0.75 3.95 -0.7 3.95 -0.8 3.95 -1.0 3.95 -0.85 L4.1 -0.85 4.1 -0.7 Q4.1 -0.6 4.05 -0.6 L4.0 -0.5 3.85 -0.5 3.55 -0.75 3.3 -0.75 3.15 -0.65 M8.2 -3.65 Q8.15 -3.75 8.15 -3.85 L8.2 -3.95 8.4 -3.8 9.35 -3.85 9.45 -3.95 9.25 -3.95 9.35 -4.15 9.45 -4.1 Q9.5 -4.05 9.5 -3.95 9.5 -3.85 9.45 -3.8 L9.35 -3.75 Q9.05 -3.75 8.7 -3.75 L8.2 -3.65 M5.65 -1.15 L5.6 -0.7 5.65 -0.6 5.9 -0.6 5.9 -0.65 Q5.85 -0.7 5.85 -0.8 5.85 -0.95 5.9 -0.8 L6.0 -0.75 6.05 -0.7 5.9 -0.5 5.6 -0.5 Q5.5 -0.85 5.55 -1.4 L5.55 -1.45 Q5.4 -1.4 5.3 -1.3 5.2 -1.15 5.0 -1.1 L4.95 -1.0 Q4.9 -0.95 4.9 -0.85 4.9 -0.8 5.0 -0.55 L5.15 -0.25 Q5.0 -0.3 4.95 -0.5 4.85 -0.75 4.85 -0.9 4.85 -1.1 5.1 -1.3 5.35 -1.5 5.45 -1.5 5.65 -1.45 5.65 -1.15 M9.05 -1.2 Q9.1 -1.1 9.25 -1.0 L9.05 -1.0 9.0 -1.05 Q9.0 -1.1 9.0 -1.2 9.0 -1.5 9.15 -1.35 L9.2 -1.35 Q9.1 -1.35 9.05 -1.3 L9.05 -1.2 M10.8 -1.95 L11.0 -2.25 Q11.1 -2.05 11.25 -1.7 L11.5 -1.7 11.55 -1.65 11.6 -1.5 11.55 -1.25 Q11.8 -0.75 11.8 -0.4 11.8 -0.3 11.7 0.05 L11.65 0.35 11.65 0.4 11.9 0.4 12.05 0.35 11.95 0.15 11.95 0.1 12.15 0.25 12.1 0.45 Q12.05 0.5 11.9 0.5 L11.6 0.5 Q11.6 0.55 11.65 0.85 L11.7 1.25 11.7 1.6 Q11.7 1.8 11.65 1.9 11.55 2.05 11.2 2.15 10.85 2.25 10.75 2.3 L10.35 2.85 10.25 2.95 10.3 2.95 10.2 3.05 10.1 3.2 9.95 3.5 Q9.85 3.85 9.7 4.0 L9.7 3.95 9.65 4.0 9.6 4.0 9.65 3.85 Q9.6 3.7 9.6 3.6 L9.6 3.65 9.55 3.65 9.55 3.15 9.75 2.5 9.75 2.4 9.7 1.85 Q9.65 1.45 9.5 1.35 9.6 1.05 9.6 0.9 L9.55 0.6 Q9.5 0.45 9.5 0.35 L9.5 0.3 9.4 0.1 8.9 0.45 Q8.9 0.6 8.9 0.7 L8.9 0.9 Q8.7 1.25 8.65 1.9 L8.55 1.6 8.65 0.75 8.65 0.55 8.8 0.4 8.95 0.0 Q9.15 -0.4 9.2 -0.5 9.35 -0.6 9.75 -0.4 10.15 -0.25 10.15 -0.05 10.15 0.1 10.05 0.4 10.0 0.7 10.0 0.85 9.95 1.1 10.05 1.55 L10.05 1.8 9.9 2.2 Q9.85 2.4 9.8 2.65 L9.8 3.05 Q9.8 3.2 9.8 3.35 L10.05 3.0 Q10.15 2.7 10.5 2.25 10.95 1.55 11.05 1.25 L11.15 0.3 Q11.2 -0.3 11.35 -0.6 11.35 -0.7 11.35 -0.5 11.25 1.0 11.1 1.35 11.0 1.6 10.55 2.25 10.3 2.55 10.2 2.8 10.65 2.3 10.8 2.2 11.05 2.0 11.4 2.0 11.6 1.95 11.65 1.65 L11.65 1.25 11.6 0.85 Q11.55 0.55 11.55 0.5 L11.55 0.45 Q11.45 0.4 11.35 0.2 L11.4 0.15 11.55 0.25 11.55 0.3 11.65 0.05 Q11.75 -0.25 11.75 -0.4 11.75 -0.7 11.5 -1.2 L11.45 -1.0 Q11.25 -0.65 11.25 -0.55 L11.2 -0.5 Q11.15 -0.65 11.35 -1.1 L11.45 -1.3 11.25 -1.6 11.1 -1.6 11.1 -1.7 11.2 -1.7 10.95 -2.1 Q10.85 -2.0 10.6 -1.65 L10.6 -1.7 10.8 -1.95 M9.4 -1.1 L9.25 -1.3 Q9.6 -1.0 9.8 -0.9 L9.6 -0.9 9.4 -1.1 M10.25 -0.7 Q10.45 -0.55 10.6 -0.35 L10.55 -0.3 Q10.5 -0.35 10.4 -0.5 10.35 -0.65 10.25 -0.65 L10.25 -0.7 M11.45 -1.35 Q11.5 -1.55 11.5 -1.6 L11.3 -1.6 11.45 -1.35 M18.05 -4.55 Q18.05 -4.35 17.95 -4.15 17.8 -3.95 17.8 -3.65 L17.65 -3.25 Q17.55 -2.95 17.55 -2.8 L17.55 -2.5 Q17.55 -2.05 17.3 -1.7 17.15 -1.5 16.8 -1.2 L16.75 -1.1 Q16.65 -0.9 16.6 -0.8 16.55 -0.55 16.55 -0.25 L16.45 -0.25 Q16.45 -0.6 16.5 -0.8 16.45 -0.8 16.45 -0.9 L16.55 -1.2 16.6 -1.2 16.65 -1.5 Q16.85 -2.0 16.85 -2.2 L16.7 -2.45 16.6 -2.45 16.5 -2.4 16.45 -2.35 16.45 -2.3 Q16.4 -2.3 16.4 -2.4 L16.35 -2.4 16.4 -2.5 16.45 -2.5 16.45 -2.55 16.65 -2.55 16.8 -2.7 Q16.9 -2.6 17.05 -1.95 17.05 -1.85 16.85 -1.5 L16.8 -1.4 Q17.15 -1.65 17.25 -1.75 17.4 -1.9 17.45 -2.2 17.5 -2.4 17.5 -2.6 L17.45 -3.1 17.35 -3.5 17.35 -3.55 Q17.3 -3.55 17.3 -3.7 17.3 -3.75 17.35 -4.0 L17.4 -4.3 Q17.4 -4.45 17.55 -5.0 17.75 -5.65 17.9 -5.85 18.2 -5.85 18.5 -6.05 L18.55 -6.05 18.7 -6.1 Q18.9 -6.25 19.3 -5.95 L19.35 -5.95 19.8 -5.9 19.85 -5.85 Q19.9 -5.85 19.9 -5.75 19.9 -5.5 19.8 -4.85 L19.8 -4.8 19.75 -4.65 19.75 -4.85 Q19.65 -4.9 19.65 -5.0 19.65 -5.25 19.6 -5.35 L19.3 -5.85 19.0 -5.9 Q18.55 -5.9 18.15 -5.3 L18.0 -4.95 18.05 -4.55 M17.95 -4.75 L17.95 -4.9 17.85 -4.7 Q17.45 -3.75 17.45 -3.35 17.45 -3.25 17.5 -2.95 17.5 -3.1 17.6 -3.35 17.7 -3.7 17.7 -3.8 17.7 -3.95 17.9 -4.25 18.05 -4.55 17.95 -4.75 M15.4 -3.35 Q15.55 -3.6 15.8 -3.55 16.05 -3.5 16.1 -3.3 L16.05 -2.85 16.0 -2.5 Q16.0 -2.4 16.1 -2.35 L16.3 -2.2 Q16.2 -2.25 16.1 -2.3 15.95 -2.45 15.95 -2.55 L16.0 -3.0 16.0 -3.3 Q16.0 -3.5 15.9 -3.5 L15.65 -3.45 15.4 -3.35 M16.75 -2.5 Q16.85 -2.4 16.9 -2.3 16.85 -2.45 16.85 -2.5 L16.85 -2.55 16.8 -2.55 16.7 -2.5 16.75 -2.5 M16.95 -2.2 Q16.95 -2.05 16.8 -1.55 L17.0 -2.0 16.95 -2.25 16.9 -2.25 16.95 -2.2 M19.05 -6.05 L18.85 -6.1 18.75 -6.05 19.05 -6.05 M19.2 -6.0 L19.2 -6.0 M9.7 1.5 L9.8 1.8 9.8 2.25 Q9.9 1.8 9.9 1.45 L9.9 1.15 Q9.85 0.9 9.75 0.75 L9.6 0.5 Q9.7 0.7 9.7 0.85 L9.6 1.2 Q9.6 1.3 9.7 1.5 M9.95 1.8 L9.95 1.8 M10.15 4.7 L10.35 4.85 10.5 5.05 10.1 4.7 10.15 4.7 M8.1 1.3 Q8.1 0.95 7.9 0.8 L7.4 0.4 7.45 0.35 8.05 0.9 Q8.15 0.95 8.15 1.3 L8.1 1.6 7.65 1.7 7.4 1.7 7.9 1.55 8.05 1.4 8.1 1.3 M7.05 2.6 Q6.9 2.6 6.8 2.4 6.65 2.2 6.65 2.1 6.65 1.95 6.8 1.85 L6.7 2.15 6.8 2.3 7.0 2.35 Q7.1 2.45 7.1 2.6 7.2 2.6 7.05 2.6 M8.65 2.1 L8.65 2.15 8.7 2.6 Q8.75 2.95 8.9 3.0 L8.9 3.05 8.85 3.1 Q8.75 2.95 8.6 2.25 L8.5 1.9 8.55 1.65 8.65 2.1" fill="#ffffff" fill-rule="evenodd" stroke="none"/>
  </g>
</svg>
