<?xml version="1.0" encoding="UTF-8" standalone="no"?>
<svg xmlns:ffdec="https://www.free-decompiler.com/flash" xmlns:xlink="http://www.w3.org/1999/xlink" ffdec:objectType="shape" height="13.4px" width="19.35px" xmlns="http://www.w3.org/2000/svg">
  <g transform="matrix(1.0, 0.0, 0.0, 1.0, -4.2, 7.95)">
    <path d="M4.3 -0.95 Q4.35 -1.0 4.5 -1.0 4.55 -1.0 4.6 -0.95 L4.65 -0.8 4.65 -0.75 4.75 -0.65 4.8 -0.5 4.75 -0.4 4.65 -0.3 4.45 -0.3 4.4 -0.35 Q4.3 -0.4 4.25 -0.45 4.2 -0.5 4.2 -0.65 4.2 -0.9 4.3 -0.95 M6.05 -2.35 L6.3 -2.45 6.4 -2.45 6.45 -2.4 Q6.55 -2.35 6.6 -2.15 L6.6 -2.05 6.65 -1.9 6.6 -1.8 Q6.55 -1.75 6.5 -1.75 6.45 -1.7 6.4 -1.75 L6.25 -1.85 6.2 -1.85 6.0 -1.8 5.95 -1.8 Q5.9 -1.8 5.9 -1.85 5.7 -2.0 5.8 -2.2 5.85 -2.3 6.05 -2.35 M6.75 -0.85 L6.65 -0.95 Q6.6 -1.0 6.6 -1.05 6.6 -1.45 6.85 -1.45 L6.95 -1.4 7.05 -1.3 Q7.05 -1.2 7.05 -1.15 L7.0 -1.1 6.95 -0.95 6.85 -0.85 6.75 -0.85 M9.05 -2.0 Q9.2 -2.2 9.35 -2.15 L9.45 -2.15 9.5 -2.05 9.5 -1.95 Q9.5 -1.8 9.7 -1.6 10.1 -1.15 10.15 -1.0 10.15 -0.95 10.15 -0.85 L10.05 -0.7 9.95 -0.7 Q9.85 -0.75 9.85 -0.8 L9.5 -1.25 9.45 -1.25 Q9.3 -1.45 9.2 -1.6 L9.1 -1.5 9.15 -1.5 8.75 -1.2 8.4 -0.95 8.1 -0.75 8.3 -0.6 Q8.55 -0.35 8.65 -0.05 8.65 0.0 8.65 0.1 L8.45 0.2 8.35 0.2 Q8.3 0.2 8.25 0.15 8.2 0.1 8.2 0.0 L8.15 -0.05 7.55 -0.7 Q7.55 -0.75 7.5 -0.8 7.5 -0.85 7.5 -0.95 L7.6 -1.05 Q7.7 -1.15 8.15 -1.3 8.4 -1.45 8.55 -1.55 L8.55 -1.6 Q8.6 -1.65 9.0 -1.9 L9.05 -2.0 M16.95 -7.4 Q16.9 -7.6 17.15 -7.8 17.35 -7.95 17.75 -7.95 L17.85 -7.9 Q18.3 -7.55 18.4 -7.5 L18.5 -7.4 Q18.55 -7.3 18.5 -7.2 18.45 -7.15 18.4 -7.1 L18.3 -7.1 Q18.1 -7.15 17.9 -7.3 L17.7 -7.45 17.5 -7.45 17.4 -7.4 17.35 -7.35 17.3 -7.2 Q17.2 -7.05 17.1 -7.1 16.95 -7.0 16.95 -7.4 M10.95 -3.35 L11.05 -3.45 11.2 -3.45 11.3 -3.4 11.3 -3.25 11.35 -3.25 Q11.65 -3.25 11.75 -3.05 L11.9 -2.75 11.95 -2.7 11.95 -2.5 11.85 -2.45 11.95 -2.65 11.9 -2.7 11.85 -2.8 11.8 -2.8 Q11.75 -2.75 11.75 -2.8 L11.75 -2.75 Q11.7 -2.9 11.3 -3.2 11.3 -3.15 11.25 -3.1 L11.15 -3.0 11.15 -2.95 Q11.1 -3.15 11.2 -3.2 L11.3 -3.25 11.2 -3.35 11.1 -3.3 11.0 -3.3 10.95 -3.25 10.85 -3.2 10.9 -3.4 10.95 -3.35 M10.6 -3.15 L10.85 -3.3 10.85 -3.2 10.8 -3.15 Q10.75 -3.1 10.7 -3.1 L10.65 -3.1 10.6 -3.15 M17.75 -5.75 L17.8 -5.7 17.85 -5.55 17.9 -5.45 17.8 -5.25 Q17.65 -5.2 17.55 -5.3 L17.4 -5.25 17.35 -5.2 17.15 -5.2 Q17.1 -5.25 17.05 -5.3 16.95 -5.4 16.95 -5.6 16.95 -5.65 16.95 -5.7 L17.05 -5.8 17.2 -5.8 17.25 -5.7 17.35 -5.8 17.65 -5.8 17.75 -5.75 M16.25 -5.5 L16.35 -5.4 Q16.4 -5.1 16.4 -5.0 L16.4 -4.85 16.3 -4.8 16.25 -4.75 16.15 -4.75 16.05 -4.85 Q16.0 -4.9 16.0 -4.95 L16.0 -5.1 15.95 -5.3 Q15.95 -5.4 16.0 -5.45 L16.1 -5.5 16.25 -5.5 M16.4 -3.6 L16.45 -3.6 16.55 -3.55 16.6 -3.45 16.65 -3.25 Q16.65 -3.1 16.55 -3.0 16.55 -2.95 16.45 -2.95 L16.35 -2.95 16.3 -3.05 Q16.25 -3.2 16.25 -3.4 16.25 -3.45 16.3 -3.5 16.35 -3.6 16.4 -3.6 M18.9 -6.95 Q18.9 -7.0 18.95 -7.1 19.0 -7.15 19.1 -7.15 L19.2 -7.1 19.4 -7.05 19.45 -7.05 Q19.8 -6.7 19.75 -6.5 19.75 -6.15 19.6 -6.2 L19.5 -6.15 Q19.45 -6.15 19.4 -6.25 19.25 -6.35 19.4 -6.5 L19.3 -6.5 Q19.2 -6.6 19.05 -6.65 L18.95 -6.7 Q18.9 -6.75 18.9 -6.85 L18.9 -6.95 M20.7 -5.0 L20.95 -4.75 21.35 -4.25 Q20.65 -3.65 20.4 -2.9 L20.55 -2.6 Q20.8 -1.95 20.55 -1.55 L20.55 -1.5 Q20.6 -1.45 20.6 -1.4 L20.8 -1.6 Q20.95 -1.8 21.3 -1.9 21.1 -2.3 21.1 -2.9 21.1 -3.85 22.05 -5.0 L23.0 -5.1 Q23.2 -5.0 23.55 -4.1 23.55 -3.8 23.25 -3.7 L22.9 -3.6 22.8 -3.6 22.1 -3.5 22.05 -3.45 22.15 -3.5 22.1 -3.45 22.05 -3.45 21.85 -2.6 Q21.7 -2.0 21.6 -1.75 21.35 -1.1 20.75 -0.9 L20.7 -0.85 20.6 -0.85 20.6 -0.8 20.4 -0.7 Q20.35 -0.65 20.3 -0.7 L20.25 -0.7 20.25 -0.95 20.3 -1.0 20.3 -1.2 20.2 -1.2 Q20.15 -1.2 20.15 -1.25 20.1 -1.3 20.1 -1.4 20.05 -1.5 20.05 -1.65 L20.05 -1.8 Q20.05 -2.0 20.05 -2.3 L20.05 -2.5 20.1 -2.75 20.05 -2.9 20.0 -2.9 20.05 -2.95 Q19.95 -3.1 19.95 -3.25 L19.95 -3.45 20.0 -3.55 20.1 -3.55 20.25 -3.3 20.25 -3.4 20.3 -3.3 20.45 -3.6 Q20.85 -4.3 20.85 -4.35 20.85 -4.45 20.7 -4.75 L20.5 -5.0 20.4 -5.0 Q20.4 -5.1 20.45 -5.15 20.5 -5.2 20.55 -5.2 L20.7 -5.15 20.75 -5.15 20.75 -5.05 20.7 -5.0 M21.1 -3.85 L21.1 -3.85 M20.55 -2.9 L20.5 -2.8 20.5 -3.05 20.55 -2.9 M20.3 -2.25 L20.35 -1.9 20.35 -2.1 20.3 -2.25 M20.35 -1.5 L20.25 -1.5 20.3 -1.4 20.3 -1.5 20.35 -1.5 M20.6 -0.6 Q20.55 -0.5 20.5 -0.5 L20.4 -0.5 20.6 -0.6 M20.85 -0.85 L20.85 -0.85 M13.4 0.8 L13.6 1.05 13.6 1.3 13.5 1.35 13.35 1.35 Q13.3 1.35 13.25 1.3 L13.2 1.2 Q13.1 1.25 13.05 1.35 L12.8 1.65 12.8 1.7 12.7 1.9 12.65 1.9 12.55 2.05 12.6 2.25 Q12.65 2.45 12.65 2.65 12.65 2.95 12.45 3.45 12.25 4.05 12.05 4.15 11.4 4.65 10.9 5.2 L10.85 5.2 10.85 5.1 10.8 5.15 10.7 5.15 10.85 5.05 10.85 5.1 10.9 5.0 10.85 5.0 10.75 4.95 10.65 5.1 10.55 5.1 10.55 5.05 10.4 5.0 Q10.35 4.95 10.35 4.7 10.35 4.55 10.7 3.7 L10.8 3.25 10.85 3.1 10.85 2.95 Q10.85 2.5 10.55 2.15 10.3 1.9 9.75 1.6 L9.7 1.7 9.7 1.75 9.65 1.85 9.65 1.9 9.6 2.25 9.5 2.25 9.1 2.2 8.7 2.1 Q8.65 1.6 8.4 0.8 L8.45 0.65 8.55 0.65 Q8.65 0.8 8.75 1.3 L8.85 1.85 9.35 1.9 9.4 1.6 9.4 1.25 9.55 1.2 9.6 1.2 9.6 1.15 9.7 1.1 9.6 1.2 10.05 1.25 10.1 1.35 10.15 1.3 Q10.2 1.25 10.25 1.25 L10.35 1.3 10.2 1.3 10.15 1.4 10.4 1.7 10.45 1.65 10.55 1.5 10.8 1.85 10.85 1.9 11.05 2.35 11.05 2.3 11.1 2.35 11.2 2.4 Q11.35 2.55 11.4 2.65 11.5 2.8 11.5 3.15 11.5 3.35 11.35 3.7 L11.6 3.5 11.75 3.25 11.95 2.95 12.0 2.9 12.05 2.8 12.1 2.5 12.1 2.3 Q12.15 2.1 12.2 2.0 12.2 1.8 12.5 1.4 12.85 0.9 13.05 0.75 L13.3 0.75 13.4 0.8 M10.55 4.1 L10.45 4.3 10.45 4.2 Q10.5 4.15 10.5 4.1 L10.55 4.1 M10.35 5.1 L10.35 5.1 M10.75 5.35 L10.7 5.35 10.6 5.45 10.5 5.4 10.5 5.35 10.6 5.35 10.5 5.15 10.8 5.3 10.75 5.3 10.75 5.35 M10.4 5.45 Q10.35 5.4 10.35 5.35 L10.45 5.45 10.4 5.45 M8.35 0.35 L8.3 0.45 8.25 0.5 8.15 0.5 Q8.1 0.5 8.05 0.45 8.0 0.4 8.0 0.3 L7.95 0.4 Q7.95 0.3 8.0 0.25 8.0 0.2 8.1 0.2 L8.2 0.2 8.35 0.3 8.35 0.35" fill="#00ffff" fill-opacity="0.5019608" fill-rule="evenodd" stroke="none"/>
    <path d="M4.45 -0.8 Q4.45 -0.75 4.45 -0.65 L4.45 -0.6 4.5 -0.6 4.6 -0.5 4.45 -0.5 4.4 -0.55 4.4 -0.65 Q4.4 -0.8 4.45 -0.8 L4.45 -0.8 M6.4 -2.1 L6.45 -1.95 6.4 -2.0 6.35 -2.15 Q6.25 -2.15 6.2 -2.05 L6.0 -2.0 Q5.9 -2.1 6.1 -2.15 L6.35 -2.25 6.4 -2.1 M6.85 -1.1 L6.8 -1.05 Q6.8 -1.2 6.85 -1.2 L6.85 -1.1 M9.05 -1.65 L8.65 -1.4 8.3 -1.1 Q8.05 -0.95 7.8 -0.9 7.75 -0.9 7.75 -0.85 L8.15 -0.45 Q8.4 -0.2 8.45 0.0 L8.4 -0.05 Q7.95 -0.6 7.65 -0.85 7.8 -0.95 8.2 -1.1 8.5 -1.25 8.65 -1.45 L9.1 -1.75 9.2 -1.9 Q9.25 -1.95 9.35 -1.95 9.3 -1.75 9.6 -1.45 L10.0 -0.9 9.6 -1.4 Q9.3 -1.7 9.3 -1.9 9.25 -1.9 9.2 -1.85 L9.05 -1.65 M17.15 -7.3 L17.1 -7.3 17.1 -7.4 Q17.1 -7.5 17.25 -7.65 17.4 -7.75 17.75 -7.75 18.2 -7.4 18.35 -7.3 L18.3 -7.3 Q18.15 -7.3 18.0 -7.45 17.85 -7.55 17.75 -7.65 L17.45 -7.65 17.3 -7.6 17.2 -7.45 17.15 -7.3 M11.05 -3.5 L10.95 -3.5 10.85 -3.4 10.75 -3.35 Q10.75 -3.25 10.85 -3.2 10.9 -3.15 10.95 -3.15 11.0 -3.15 11.1 -3.25 L11.15 -3.25 10.95 -3.05 10.7 -3.3 10.7 -3.35 Q10.7 -3.4 10.9 -3.5 L11.25 -3.55 11.7 -3.2 Q11.95 -2.95 11.95 -2.75 L11.9 -2.65 11.8 -2.5 Q11.75 -2.55 11.65 -2.8 11.55 -3.0 11.3 -3.0 11.3 -3.05 11.35 -3.05 11.55 -3.05 11.65 -2.9 L11.8 -2.6 Q11.9 -2.6 11.9 -2.75 11.9 -3.0 11.25 -3.55 L11.05 -3.5 M17.65 -5.6 L17.7 -5.45 17.65 -5.45 Q17.6 -5.5 17.6 -5.55 17.4 -5.5 17.3 -5.4 L17.15 -5.45 Q17.1 -5.5 17.1 -5.6 L17.15 -5.6 17.15 -5.5 Q17.2 -5.5 17.4 -5.6 L17.65 -5.6 M16.15 -5.3 L16.15 -5.35 16.25 -5.0 16.2 -4.95 16.15 -5.15 16.15 -5.3 M16.45 -3.4 L16.45 -3.15 Q16.4 -3.25 16.4 -3.4 L16.45 -3.4 M19.1 -6.85 L19.1 -6.95 19.15 -6.9 19.35 -6.85 Q19.6 -6.65 19.6 -6.5 L19.6 -6.4 19.55 -6.4 19.5 -6.35 19.5 -6.4 19.55 -6.5 19.4 -6.65 Q19.25 -6.8 19.1 -6.85 M21.65 -3.75 L21.6 -3.5 21.7 -3.75 21.65 -3.75 M21.0 -4.0 Q20.6 -3.35 20.35 -2.9 20.5 -2.7 20.5 -2.5 L20.5 -2.25 Q20.45 -2.15 20.35 -2.0 20.25 -1.8 20.25 -1.65 20.25 -1.55 20.3 -1.5 L20.35 -1.45 20.55 -1.45 20.6 -1.3 20.6 -1.05 Q20.75 -1.2 21.15 -1.5 21.25 -1.65 21.3 -1.8 21.35 -2.0 21.3 -2.45 21.3 -2.7 21.35 -3.05 L21.55 -3.7 21.75 -4.3 Q21.9 -4.75 22.1 -4.9 L22.45 -4.9 22.85 -4.85 23.05 -4.8 Q23.2 -4.6 23.3 -4.25 L23.25 -4.2 23.3 -4.2 23.45 -4.0 23.45 -3.95 23.4 -3.9 23.2 -4.05 Q23.15 -4.05 23.1 -3.95 L22.95 -3.8 22.8 -3.8 22.55 -3.65 22.35 -3.7 22.2 -3.7 22.05 -3.65 21.55 -2.95 21.55 -2.75 Q21.55 -2.65 21.6 -2.35 L21.65 -2.0 Q21.65 -1.7 21.25 -1.45 L21.1 -1.3 20.7 -0.95 20.55 -0.7 20.45 -0.7 20.45 -0.9 20.35 -0.9 Q20.25 -0.95 20.15 -1.2 20.05 -1.4 20.05 -1.5 L20.0 -1.85 20.0 -2.1 Q20.0 -2.45 20.25 -2.95 L20.05 -3.15 20.05 -3.6 20.1 -3.6 Q20.1 -3.25 20.25 -3.0 L20.35 -3.15 Q20.65 -3.75 21.05 -4.2 L20.75 -4.65 20.55 -5.0 Q20.55 -5.15 20.6 -5.0 L20.95 -4.6 21.2 -4.15 Q21.15 -4.05 21.0 -4.0 M22.25 -3.75 L22.45 -3.75 Q22.5 -3.75 22.6 -3.8 L22.75 -3.9 22.6 -4.05 22.55 -4.05 22.5 -4.1 22.25 -4.1 21.9 -3.65 21.65 -3.3 21.6 -3.25 21.65 -3.35 22.0 -3.75 22.25 -3.75 M22.8 -3.95 L22.95 -3.9 Q23.0 -3.9 23.05 -3.95 L23.15 -4.1 22.7 -4.45 Q22.2 -4.4 21.85 -3.8 22.0 -4.05 22.25 -4.2 L22.55 -4.2 22.65 -4.0 22.75 -3.9 22.8 -3.95 M20.3 -2.8 Q20.15 -2.5 20.1 -2.35 L20.2 -2.35 20.35 -2.15 Q20.45 -2.2 20.45 -2.45 L20.45 -2.75 20.35 -2.8 20.3 -2.8 M20.25 -2.1 Q20.2 -2.15 20.2 -2.25 20.1 -2.15 20.1 -2.1 L20.05 -2.05 Q20.05 -1.65 20.1 -1.45 20.1 -1.3 20.25 -1.15 20.35 -1.0 20.45 -0.9 L20.45 -1.0 20.5 -1.05 20.5 -1.35 20.25 -1.4 20.25 -1.5 Q20.2 -1.55 20.2 -1.65 20.2 -1.75 20.3 -1.95 L20.3 -2.05 20.25 -2.1 M20.65 -1.05 L20.65 -1.05 M13.3 0.95 L13.45 1.15 13.35 1.15 13.25 1.0 Q13.05 1.0 12.9 1.2 L12.7 1.5 12.55 1.8 12.4 2.05 12.4 2.3 12.45 2.65 Q12.45 2.9 12.3 3.4 12.1 3.9 12.0 4.0 11.25 4.55 10.7 5.1 L10.7 5.1 10.7 5.15 10.65 5.15 10.5 5.3 10.5 5.25 Q10.45 5.25 10.45 5.2 L10.5 5.15 Q10.5 5.05 10.55 4.9 L10.6 4.85 10.6 4.6 Q10.6 4.5 10.6 4.3 L10.6 4.15 Q10.75 3.95 10.85 3.55 L11.0 3.15 11.0 3.1 11.05 3.1 11.05 2.9 Q11.05 2.8 10.9 2.45 L10.65 2.0 10.3 1.55 9.85 1.25 9.8 1.35 9.7 1.75 9.7 1.8 Q9.6 2.1 9.4 2.3 9.0 2.25 8.75 2.0 8.5 1.75 8.5 1.5 8.5 1.3 8.6 1.05 L8.65 0.8 Q8.65 0.7 8.45 0.6 L8.1 0.4 8.45 0.55 Q8.7 0.7 8.7 0.8 L8.6 1.05 Q8.5 1.3 8.5 1.5 8.5 1.7 8.7 1.9 L9.25 2.25 9.3 2.25 9.45 1.95 9.4 1.9 9.35 1.9 9.55 1.65 9.5 1.8 9.35 2.2 9.45 2.15 Q9.55 2.0 9.65 1.75 L9.7 1.6 9.75 1.35 Q9.65 1.45 9.6 1.6 L9.6 1.55 9.75 1.25 9.85 1.25 10.25 1.5 10.25 1.45 10.7 1.8 Q10.95 1.95 11.05 2.2 L11.4 3.05 Q11.4 3.15 11.3 3.35 L11.1 3.65 11.0 3.95 10.95 4.15 10.95 4.2 Q10.9 4.4 10.8 4.7 L10.75 4.8 11.15 4.2 Q11.45 3.8 11.7 3.65 L12.2 2.9 12.25 2.55 12.3 2.3 Q12.3 2.1 12.35 2.05 12.35 1.95 12.65 1.5 12.95 1.05 13.15 0.95 L13.3 0.95 M11.1 2.85 L11.1 2.95 11.05 3.25 11.0 3.65 10.95 3.8 11.1 3.55 11.35 3.1 Q11.35 3.0 11.0 2.2 10.95 2.05 10.65 1.8 L10.45 1.65 10.7 2.0 10.9 2.4 11.1 2.9 11.1 2.85 M10.7 4.95 L10.7 5.05 Q10.95 4.7 11.05 4.65 L11.45 4.1 11.7 3.7 Q11.45 3.9 11.2 4.25 11.0 4.5 10.7 4.95 M8.2 0.3 L8.15 0.3 Q8.15 0.15 8.2 0.1 L8.2 0.3" fill="#ffffff" fill-rule="evenodd" stroke="none"/>
  </g>
</svg>
