<?xml version="1.0" encoding="UTF-8" standalone="no"?>
<svg xmlns:ffdec="https://www.free-decompiler.com/flash" xmlns:xlink="http://www.w3.org/1999/xlink" ffdec:objectType="shape" height="28.5px" width="25.3px" xmlns="http://www.w3.org/2000/svg">
  <g transform="matrix(1.0, 0.0, 0.0, 1.0, 12.15, 19.85)">
    <path d="M13.1 -19.6 Q13.15 -19.5 13.15 -19.25 13.15 -18.9 13.1 -18.85 L12.95 -18.7 12.85 -18.65 12.7 -18.6 12.55 -18.6 12.45 -18.7 Q12.45 -18.75 12.45 -18.8 12.4 -18.9 12.55 -19.05 L12.55 -19.2 12.6 -19.25 12.3 -19.35 Q12.25 -19.35 12.2 -19.4 12.15 -19.45 12.15 -19.55 12.15 -19.7 12.25 -19.75 L12.35 -19.85 12.45 -19.85 12.9 -19.8 Q12.95 -19.8 13.0 -19.75 13.05 -19.7 13.05 -19.6 L13.1 -19.6 M12.4 -18.8 L12.4 -18.7 Q12.3 -18.3 11.8 -18.3 11.7 -18.3 11.65 -18.4 11.6 -18.45 11.55 -18.5 11.55 -18.6 11.6 -18.65 11.75 -18.85 11.9 -18.9 L12.2 -18.95 12.3 -18.9 12.4 -18.8 M11.7 -17.3 L11.55 -17.15 11.4 -17.15 10.9 -17.2 Q10.85 -17.2 10.75 -17.25 10.7 -17.3 10.7 -17.4 L10.75 -17.5 10.7 -17.9 Q10.7 -18.0 10.8 -18.05 10.85 -18.1 10.95 -18.1 L11.05 -18.1 11.15 -18.05 11.25 -17.95 11.3 -17.7 Q11.65 -17.65 11.7 -17.5 11.75 -17.4 11.7 -17.3 M10.85 -17.6 L10.85 -17.6" fill="#00ffff" fill-opacity="0.5019608" fill-rule="evenodd" stroke="none"/>
    <path d="M12.85 -19.6 L12.9 -19.5 12.95 -19.25 Q12.95 -19.0 12.9 -18.95 L12.8 -18.85 12.65 -18.8 12.7 -18.9 Q12.8 -19.0 12.8 -19.2 12.8 -19.4 12.7 -19.45 L12.35 -19.55 12.45 -19.65 12.85 -19.6 M11.8 -18.55 L11.95 -18.7 12.2 -18.75 Q12.1 -18.55 11.8 -18.55 M11.05 -17.7 L11.05 -17.5 Q11.45 -17.45 11.5 -17.4 L11.45 -17.35 10.95 -17.4 10.95 -17.45 11.0 -17.45 Q10.95 -17.65 10.95 -17.9 L11.05 -17.9 11.05 -17.7" fill="#ffffff" fill-rule="evenodd" stroke="none"/>
    <path d="M-6.35 7.35 L-6.3 7.35 -5.8 7.45 -5.4 7.55 Q-5.25 7.55 -5.2 7.6 -4.85 7.7 -4.6 7.8 L-4.6 7.85 -4.65 7.85 -4.85 7.75 -5.3 7.6 -5.35 7.6 -5.5 7.55 -5.55 7.55 Q-5.45 7.6 -5.35 7.65 -5.2 7.7 -5.25 7.8 -5.25 8.1 -5.85 8.25 L-6.3 8.35 -6.55 8.4 Q-6.8 8.5 -7.2 8.55 L-7.85 8.6 Q-8.6 8.65 -9.15 8.65 L-10.4 8.5 -11.15 8.35 Q-11.65 8.15 -11.7 8.0 L-11.65 7.85 -11.4 7.7 -11.9 7.85 -12.15 7.95 -12.15 7.9 Q-11.8 7.7 -11.4 7.6 -11.05 7.45 -10.75 7.45 L-10.6 7.4 -10.5 7.4 -10.4 7.35 -9.9 7.35 -9.7 7.3 -9.45 7.3 -8.7 7.25 -8.65 7.25 Q-8.25 7.2 -7.8 7.25 L-7.1 7.25 -6.8 7.3 -6.65 7.3 -6.6 7.35 -6.35 7.35" fill="#00ffff" fill-rule="evenodd" stroke="none"/>
  </g>
</svg>
