<?xml version="1.0" encoding="UTF-8" standalone="no"?>
<svg xmlns:ffdec="https://www.free-decompiler.com/flash" xmlns:xlink="http://www.w3.org/1999/xlink" ffdec:objectType="shape" height="31.1px" width="26.5px" xmlns="http://www.w3.org/2000/svg">
  <g transform="matrix(1.0, 0.0, 0.0, 1.0, 12.8, 21.65)">
    <path d="M13.0 -21.6 L13.4 -21.65 13.5 -21.6 13.6 -21.45 Q13.7 -21.4 13.7 -21.3 13.7 -21.05 13.55 -20.9 13.5 -20.8 13.45 -20.8 L13.25 -20.75 13.15 -20.75 Q13.1 -20.8 13.05 -20.8 12.8 -21.1 12.75 -21.2 12.75 -21.3 12.75 -21.35 12.8 -21.55 13.0 -21.6 M11.25 -16.85 L11.35 -16.7 11.4 -16.6 11.4 -16.45 11.3 -16.35 11.2 -16.3 10.85 -16.4 10.6 -16.45 10.5 -16.55 Q10.45 -16.6 10.45 -16.7 L10.45 -16.9 Q10.45 -17.0 10.5 -17.05 10.55 -17.1 10.65 -17.1 10.7 -17.1 10.9 -17.0 L11.25 -16.85" fill="#00ffff" fill-opacity="0.5019608" fill-rule="evenodd" stroke="none"/>
    <path d="M13.45 -21.3 Q13.45 -21.1 13.4 -21.0 L13.2 -20.95 Q13.0 -21.2 12.95 -21.3 13.0 -21.35 13.1 -21.4 L13.35 -21.45 13.45 -21.3 M11.2 -16.55 L10.9 -16.6 10.65 -16.7 10.65 -16.9 10.8 -16.85 11.15 -16.65 11.2 -16.55" fill="#ffffff" fill-rule="evenodd" stroke="none"/>
    <path d="M-6.05 7.4 L-7.05 7.3 -7.1 7.3 -6.75 7.35 -6.65 7.4 -6.8 7.4 -7.4 7.35 -7.75 7.35 -8.0 7.3 -8.05 7.3 -7.3 7.4 -6.25 7.6 -5.4 7.8 -5.15 7.8 Q-5.1 7.8 -5.05 7.75 L-5.05 7.8 -5.0 7.75 -5.0 7.65 Q-5.2 7.6 -5.5 7.5 L-6.05 7.4 M-7.2 8.15 Q-7.2 8.05 -7.4 7.9 -7.55 7.8 -7.7 7.7 L-7.95 7.65 -8.25 7.55 -9.25 7.45 -9.45 7.45 -9.5 7.4 -9.7 7.45 -9.95 7.45 -9.65 7.4 -9.65 7.35 -10.05 7.45 -10.25 7.45 -10.65 7.5 Q-11.1 7.6 -11.45 7.75 L-11.7 7.85 Q-11.85 7.9 -11.8 8.05 -11.8 8.2 -11.7 8.25 L-11.65 8.3 -11.5 8.4 Q-11.2 8.55 -10.7 8.6 L-10.15 8.6 Q-10.05 8.6 -9.95 8.55 L-9.9 8.6 Q-9.85 8.7 -9.7 8.7 L-8.4 8.7 -7.5 8.55 Q-7.2 8.45 -7.15 8.25 -7.15 8.2 -7.2 8.15 M-6.0 7.35 L-5.55 7.45 -5.45 7.45 Q-5.1 7.55 -4.8 7.7 L-4.4 7.85 -4.35 7.9 Q-4.1 8.0 -3.95 8.3 L-4.0 8.35 Q-4.05 8.1 -4.3 7.95 -4.25 8.1 -4.25 8.15 L-4.3 8.1 -4.35 7.95 -4.3 8.0 Q-4.3 8.1 -4.3 8.15 L-4.3 8.25 Q-4.35 8.35 -4.55 8.45 L-4.65 8.55 Q-4.8 8.65 -5.05 8.7 L-5.1 8.75 -5.9 9.05 -6.65 9.25 -7.4 9.4 -8.8 9.45 -10.25 9.35 Q-10.75 9.3 -11.55 9.05 -12.45 8.75 -12.6 8.55 L-12.55 8.4 -12.5 8.35 -12.5 8.3 -12.6 8.35 -12.6 8.4 -12.75 8.6 -12.8 8.6 Q-12.6 8.1 -11.85 7.8 L-11.8 7.75 -11.55 7.7 Q-11.5 7.65 -11.45 7.65 L-11.1 7.55 -11.15 7.55 -10.75 7.45 -10.45 7.4 -10.5 7.45 -10.4 7.45 -10.45 7.4 -9.5 7.3 -9.3 7.3 -9.2 7.25 -9.0 7.25 -8.5 7.2 -8.6 7.25 -8.15 7.25 -8.7 7.3 -8.2 7.3 Q-7.65 7.25 -7.1 7.25 L-6.0 7.35 M-9.4 7.3 L-9.4 7.3 M-4.3 8.55 L-4.3 8.55" fill="#70ffff" fill-rule="evenodd" stroke="none"/>
  </g>
</svg>
