<?xml version="1.0" encoding="UTF-8" standalone="no"?>
<svg xmlns:ffdec="https://www.free-decompiler.com/flash" xmlns:xlink="http://www.w3.org/1999/xlink" ffdec:objectType="shape" height="28.0px" width="35.45px" xmlns="http://www.w3.org/2000/svg">
  <g transform="matrix(1.0, 0.0, 0.0, 1.0, 4.25, 27.65)">
    <path d="M21.75 -27.4 L21.85 -26.9 Q21.9 -26.7 21.75 -26.65 21.8 -26.5 21.95 -26.3 22.25 -25.95 22.25 -25.8 22.25 -25.45 21.7 -24.65 L20.6 -23.1 20.4 -22.9 20.3 -22.05 20.1 -20.4 20.1 -19.85 Q20.1 -19.7 20.15 -19.55 L20.15 -19.5 Q20.35 -19.15 21.45 -18.5 L22.3 -18.0 22.9 -17.6 23.25 -17.4 Q23.6 -17.45 23.9 -17.6 L24.55 -17.95 24.6 -17.95 Q24.95 -18.1 25.3 -18.1 L26.0 -18.05 26.75 -17.95 26.8 -17.95 27.55 -17.85 28.3 -17.7 28.65 -17.65 28.65 -17.95 Q28.65 -18.25 28.75 -18.35 L28.9 -18.45 28.8 -18.95 Q28.75 -19.2 28.4 -19.9 28.05 -20.55 28.05 -20.95 28.05 -21.25 28.25 -21.7 28.5 -22.3 28.85 -22.35 L28.85 -22.35 Q29.6 -22.3 29.65 -22.15 29.65 -22.1 29.65 -22.05 L29.55 -22.0 29.0 -21.85 28.7 -21.35 Q28.5 -20.95 28.5 -20.9 28.5 -20.5 28.75 -20.05 L29.35 -18.85 29.35 -18.55 Q29.55 -18.65 29.7 -18.75 L29.85 -19.0 29.95 -19.05 30.75 -19.05 30.85 -19.0 30.9 -18.9 Q30.9 -18.8 31.05 -18.45 31.2 -18.05 31.2 -17.8 31.2 -17.55 31.1 -17.4 L31.05 -17.35 31.0 -17.35 31.0 -17.25 30.65 -17.25 Q30.6 -17.25 30.55 -17.3 30.5 -17.3 30.5 -17.35 L30.5 -17.4 Q30.5 -17.45 30.55 -17.45 L30.7 -17.65 Q30.75 -17.7 30.75 -17.8 30.75 -18.0 30.65 -18.25 L30.65 -18.3 30.5 -18.6 30.15 -18.55 Q30.05 -18.5 29.7 -18.3 L29.35 -18.15 29.35 -17.65 29.4 -17.6 29.4 -17.55 29.45 -17.45 29.45 -17.35 29.35 -17.25 29.35 -17.2 29.4 -17.15 29.4 -16.85 Q29.4 -16.25 29.05 -15.95 28.8 -15.75 28.25 -15.6 27.6 -15.4 27.4 -15.25 27.05 -15.1 26.85 -14.75 L27.15 -14.65 27.3 -14.55 27.55 -14.55 27.6 -14.65 27.6 -14.7 27.9 -15.05 28.0 -15.1 Q28.15 -15.2 28.45 -15.2 28.7 -15.2 28.9 -15.1 L29.15 -14.85 29.15 -14.65 29.1 -14.55 29.05 -14.55 Q28.9 -14.55 28.7 -14.65 L28.45 -14.75 28.15 -14.5 27.7 -14.15 27.6 -14.1 27.0 -14.1 26.95 -14.15 26.85 -14.3 26.5 -14.4 26.4 -14.45 Q26.35 -14.5 26.35 -14.55 26.5 -15.25 27.0 -15.55 27.7 -15.95 27.8 -16.1 27.85 -16.15 27.9 -16.2 L28.6 -16.3 28.7 -16.35 28.75 -16.5 28.8 -16.75 27.7 -16.8 Q27.5 -16.7 27.4 -16.65 27.2 -16.55 26.85 -16.55 L23.3 -16.55 23.25 -16.6 22.85 -16.85 22.15 -16.75 Q21.05 -16.65 19.7 -18.15 19.15 -18.7 18.8 -19.3 18.45 -19.9 18.45 -20.2 18.45 -21.05 20.05 -23.2 L20.05 -24.3 20.0 -25.15 Q19.95 -25.75 20.0 -26.15 19.1 -26.45 18.25 -26.65 17.05 -26.95 16.7 -26.85 L16.6 -26.85 16.5 -26.9 Q15.35 -26.7 14.3 -26.35 L13.9 -26.2 Q13.9 -26.0 13.7 -25.85 L13.65 -25.8 13.65 -25.85 Q12.8 -25.65 12.35 -25.3 L11.95 -25.0 11.95 -24.95 11.9 -24.85 Q11.85 -24.85 11.8 -24.8 11.65 -24.1 10.6 -23.3 L10.5 -23.25 10.4 -23.25 10.35 -23.35 10.35 -23.45 Q10.25 -23.35 10.25 -23.05 10.25 -22.8 10.25 -22.45 L10.25 -22.0 10.3 -22.0 10.3 -21.9 Q10.35 -21.5 10.45 -20.95 L10.65 -20.0 10.65 -19.95 Q10.55 -19.6 10.6 -19.4 L10.6 -19.3 10.5 -19.2 10.4 -19.2 10.35 -19.3 Q10.15 -19.65 10.05 -20.2 10.0 -20.45 9.95 -21.0 9.9 -21.5 9.8 -21.8 9.75 -21.85 9.8 -21.9 L9.9 -22.0 9.95 -22.0 Q10.0 -22.4 9.85 -23.1 L9.85 -23.15 Q9.9 -23.95 10.8 -24.25 L10.9 -24.4 10.95 -24.4 11.15 -24.75 10.75 -24.65 Q10.6 -24.6 10.4 -24.4 L10.2 -24.15 Q9.95 -23.9 9.7 -23.95 9.25 -23.95 9.15 -24.4 9.1 -24.7 9.25 -24.95 L9.2 -24.95 Q8.9 -25.1 8.5 -25.55 8.25 -25.85 8.15 -26.05 L7.85 -26.0 Q7.7 -25.9 7.45 -25.65 7.05 -25.2 6.85 -25.0 5.9 -24.15 4.6 -24.0 4.55 -23.85 4.5 -23.6 4.5 -23.4 4.5 -22.95 4.5 -22.3 4.4 -22.05 L4.45 -22.05 4.4 -22.0 4.35 -21.9 4.35 -21.75 Q4.5 -21.75 4.6 -21.7 L4.65 -21.65 4.65 -21.55 4.6 -21.45 Q4.5 -21.35 4.15 -21.4 L4.05 -21.45 4.0 -21.5 Q3.95 -21.6 3.95 -21.85 3.95 -22.05 4.0 -22.25 L4.05 -22.25 Q4.1 -22.4 4.05 -22.6 L4.05 -23.35 Q4.05 -23.7 4.1 -23.85 4.15 -24.15 4.25 -24.4 L4.25 -24.45 4.35 -24.45 Q5.75 -24.7 6.6 -25.4 L7.1 -26.0 7.65 -26.45 7.7 -26.5 8.35 -26.45 8.4 -26.45 8.45 -26.4 Q8.5 -26.3 9.1 -25.65 L9.15 -25.65 9.25 -25.6 Q9.85 -25.2 9.8 -25.05 9.8 -24.8 9.6 -24.65 L9.5 -24.55 9.55 -24.55 9.7 -24.5 Q9.85 -24.5 10.2 -24.7 L10.9 -25.2 11.35 -25.2 11.35 -25.3 Q11.35 -25.4 11.4 -25.4 11.45 -25.45 11.5 -25.45 L11.7 -25.45 11.7 -25.4 11.95 -25.6 Q12.25 -26.05 14.95 -27.0 L15.0 -27.0 15.45 -27.15 Q16.05 -27.35 16.8 -27.45 19.1 -27.8 21.65 -27.5 L21.75 -27.4 M14.9 -17.85 Q15.5 -17.85 15.8 -18.05 L16.35 -18.05 16.4 -18.0 Q16.7 -17.75 17.2 -17.55 L18.1 -17.15 Q19.2 -16.65 19.35 -15.65 L19.35 -15.35 Q19.4 -15.1 19.5 -14.95 L19.5 -14.9 Q19.65 -14.65 19.9 -14.4 L19.9 -14.35 20.05 -14.2 Q20.55 -13.85 21.0 -13.2 21.85 -12.1 22.0 -11.9 L22.05 -11.8 21.95 -11.6 21.9 -11.55 21.65 -11.55 21.3 -11.05 21.3 -11.0 Q21.05 -10.65 21.05 -10.45 L21.5 -9.45 Q21.85 -8.8 22.0 -8.15 22.35 -7.85 23.3 -7.4 24.25 -6.9 24.5 -6.25 L25.0 -5.1 Q25.35 -4.25 25.35 -4.05 25.4 -3.5 24.3 -2.45 L24.25 -2.45 23.1 -1.4 23.05 -1.35 Q22.75 -1.25 22.0 -1.35 L21.1 -1.45 Q20.95 -1.45 20.85 -1.25 20.65 -1.0 20.6 -0.8 L20.55 -0.7 20.5 -0.7 20.6 -0.65 20.9 -0.35 20.95 -0.4 21.35 -0.35 21.7 -0.3 Q22.35 -0.3 22.7 -0.55 22.9 -0.75 23.05 -1.15 L23.1 -1.2 23.15 -1.2 Q23.3 -1.3 23.45 -1.4 L23.65 -1.6 Q23.7 -1.65 23.75 -1.65 L24.25 -1.65 24.35 -1.7 Q25.35 -1.7 26.2 -1.3 26.6 -1.05 26.8 -0.85 L27.2 -0.85 27.2 -0.65 26.95 -0.35 26.95 -0.25 Q26.9 -0.15 26.8 -0.2 L26.7 -0.1 26.6 -0.1 26.55 -0.15 26.55 -0.2 Q26.5 -0.25 26.5 -0.4 L26.5 -0.45 26.15 -0.8 Q25.4 -1.3 24.35 -1.3 L23.9 -1.3 23.1 -0.45 Q22.6 0.15 22.05 0.15 L21.65 0.1 21.4 0.0 21.05 0.05 21.0 0.0 20.95 0.0 20.9 0.05 Q20.8 0.15 20.7 0.05 L20.65 -0.05 20.55 -0.15 20.5 -0.15 20.15 -0.4 Q20.1 -0.4 20.1 -0.45 L20.1 -0.6 20.2 -0.65 20.2 -0.7 20.25 -0.7 20.2 -0.8 20.2 -0.85 Q20.55 -1.9 20.95 -1.9 L21.4 -1.75 22.05 -1.7 22.45 -1.75 22.5 -1.75 22.85 -1.85 23.95 -2.9 24.0 -2.95 Q24.9 -3.8 24.95 -4.05 24.9 -4.3 24.55 -5.05 L24.1 -6.05 Q23.85 -6.45 23.2 -6.85 22.5 -7.3 21.75 -7.55 L21.55 -7.65 21.5 -7.75 Q21.45 -8.35 21.05 -9.2 20.55 -10.3 20.55 -10.4 20.55 -10.85 20.8 -11.25 21.0 -11.55 21.3 -11.9 L21.15 -12.1 20.9 -12.45 20.55 -13.05 19.95 -13.7 Q19.6 -13.85 19.25 -14.4 18.9 -14.95 18.95 -15.3 L18.95 -15.55 Q18.8 -15.75 18.7 -16.1 18.6 -16.45 18.35 -16.65 L17.3 -17.05 Q16.45 -17.45 16.2 -17.6 L15.85 -17.5 15.6 -17.35 15.55 -17.35 14.8 -17.4 14.7 -17.4 Q14.6 -17.5 14.25 -18.15 14.0 -18.6 13.7 -18.75 13.4 -18.75 13.2 -18.65 12.9 -18.5 12.7 -18.5 L11.95 -18.55 10.9 -18.7 10.85 -18.7 Q10.7 -18.8 10.6 -18.9 10.6 -18.95 10.6 -19.0 10.55 -19.05 10.6 -19.1 10.65 -19.15 10.7 -19.15 L10.8 -19.15 Q11.3 -18.9 13.1 -19.2 L13.75 -19.2 13.8 -19.15 Q14.35 -19.05 14.65 -18.55 L14.9 -17.85 M9.1 -25.5 L9.0 -25.5 9.1 -25.45 9.1 -25.5 M3.4 -18.8 L3.9 -18.8 Q4.6 -18.65 4.55 -18.05 4.55 -17.55 4.85 -17.35 5.6 -16.8 6.0 -16.2 L7.55 -16.2 7.6 -16.1 7.65 -15.9 7.75 -15.85 Q7.95 -15.85 8.2 -16.1 8.5 -16.4 8.85 -16.4 9.5 -16.4 9.75 -15.95 9.95 -15.65 9.95 -15.3 L9.9 -15.2 9.8 -15.15 9.75 -15.15 Q9.7 -15.2 9.65 -15.25 L9.6 -15.3 9.55 -15.4 Q9.5 -15.4 9.5 -15.45 L9.3 -15.7 Q9.15 -15.9 8.9 -15.9 8.75 -15.9 8.4 -15.65 8.0 -15.3 7.7 -15.3 7.3 -15.3 7.25 -15.55 L6.85 -15.6 5.8 -15.65 Q5.7 -15.65 5.7 -15.7 5.3 -16.05 4.25 -16.95 4.05 -17.1 4.05 -17.3 L4.05 -18.1 4.0 -18.15 Q3.9 -18.2 3.85 -18.25 L3.35 -18.2 3.25 -18.15 Q3.25 -18.05 3.2 -18.05 L3.1 -18.05 Q3.05 -18.05 3.0 -18.1 2.95 -18.1 2.95 -18.2 L2.95 -18.35 Q2.95 -18.7 3.2 -18.8 L3.4 -18.8 M0.3 -18.2 L0.4 -18.15 0.65 -17.95 0.7 -17.9 0.7 -17.8 0.6 -17.7 0.35 -17.7 0.25 -17.8 0.15 -17.75 0.1 -17.7 0.05 -17.6 Q0.05 -17.4 0.25 -17.25 0.5 -16.95 0.5 -16.8 0.5 -16.5 0.05 -16.3 -0.5 -16.0 -1.7 -15.95 L-2.05 -15.95 -2.1 -16.0 Q-2.55 -16.2 -2.6 -16.65 -2.65 -17.0 -2.7 -17.15 L-2.95 -17.15 -3.1 -17.2 -3.15 -17.25 -3.55 -17.15 Q-3.7 -17.1 -3.85 -17.0 -3.9 -16.95 -3.95 -16.95 L-4.1 -17.0 Q-4.15 -17.0 -4.2 -17.0 L-4.25 -17.1 -4.25 -17.2 -4.2 -17.25 -3.75 -17.5 Q-3.45 -17.6 -2.9 -17.75 L-2.8 -17.75 -2.75 -17.7 -2.65 -17.55 -2.55 -17.55 -2.45 -17.5 Q-2.3 -17.35 -2.2 -16.8 -2.15 -16.5 -1.9 -16.35 L-0.2 -16.6 0.1 -16.8 -0.15 -17.1 Q-0.4 -17.45 -0.4 -17.65 -0.45 -17.75 -0.1 -18.15 L-0.05 -18.2 0.3 -18.2 M10.7 -14.85 Q10.75 -14.9 10.8 -14.9 L10.9 -14.9 10.95 -14.85 11.0 -14.85 11.05 -14.8 11.0 -14.8 Q11.15 -14.55 11.1 -14.2 11.1 -14.05 11.3 -13.85 L11.65 -13.4 Q11.9 -13.0 12.0 -12.95 L12.05 -12.9 Q12.5 -12.5 12.85 -11.85 13.2 -11.25 13.2 -10.8 13.2 -10.6 13.05 -10.2 L13.05 -10.15 Q12.9 -9.85 12.95 -9.65 L13.05 -8.45 Q13.05 -7.65 13.05 -7.5 L13.0 -7.5 Q12.9 -7.05 12.25 -6.45 12.2 -6.4 12.15 -6.4 12.1 -6.4 12.05 -6.45 L11.95 -6.5 Q11.95 -6.55 11.95 -6.6 11.95 -6.65 11.95 -6.7 12.75 -7.5 12.7 -8.25 L12.6 -8.95 Q12.5 -9.45 12.5 -9.8 12.5 -10.0 12.65 -10.35 12.8 -10.6 12.8 -10.75 12.75 -11.3 11.95 -12.35 11.3 -13.2 10.7 -13.7 L10.65 -13.75 10.65 -14.75 Q10.65 -14.8 10.7 -14.85 M11.0 -5.3 L11.05 -5.35 11.1 -5.45 11.2 -5.45 11.3 -5.35 11.3 -5.25 Q11.25 -4.85 11.05 -4.35 10.7 -3.5 10.1 -2.95 L10.0 -2.95 9.3 -2.75 Q8.8 -2.65 8.55 -2.65 7.75 -2.65 7.45 -2.85 L7.4 -2.85 7.4 -2.9 7.3 -3.05 6.85 -3.0 Q6.45 -2.85 6.45 -2.4 L6.6 -1.4 6.6 -1.3 6.5 -1.25 6.4 -1.25 Q6.15 -1.35 6.1 -1.75 6.05 -1.85 6.05 -2.25 6.05 -2.8 6.3 -3.3 L6.35 -3.35 6.4 -3.35 6.55 -3.4 6.8 -3.5 6.85 -3.5 7.45 -3.45 7.55 -3.4 7.7 -3.25 7.85 -3.15 8.55 -3.15 9.15 -3.3 9.85 -3.4 Q10.35 -4.2 10.55 -4.6 L10.7 -4.9 10.7 -4.85 10.75 -4.9 11.0 -5.3 M8.65 -0.55 Q8.65 -0.65 8.75 -0.7 L8.8 -0.75 8.9 -0.8 9.35 -0.65 Q9.75 -0.55 9.8 -0.45 L9.75 -0.45 9.8 -0.35 9.7 -0.25 9.65 -0.25 9.55 -0.2 9.05 -0.25 Q9.0 -0.25 8.95 -0.3 8.9 -0.35 8.75 -0.4 L8.65 -0.45 8.65 -0.55 M15.35 -0.5 L15.45 -0.5 15.9 -0.45 16.0 -0.45 16.05 -0.35 16.05 -0.15 16.7 -0.15 Q16.95 -0.25 17.1 -0.5 L17.15 -0.5 17.35 -0.95 17.4 -0.95 17.85 -1.4 Q18.3 -1.75 18.4 -1.8 L20.15 -1.9 20.25 -1.9 20.3 -1.8 Q20.35 -1.65 20.3 -1.5 L20.25 -1.4 20.2 -1.4 18.55 -1.3 Q18.15 -1.15 17.8 -0.55 L17.85 -0.55 Q17.45 0.15 16.75 0.35 L16.7 0.35 15.65 0.3 15.55 0.3 15.5 0.2 Q15.5 0.15 15.5 0.1 L15.6 -0.05 15.55 -0.05 Q15.15 -0.2 15.2 -0.35 L15.35 -0.5 M29.15 -17.2 L29.15 -17.3 29.05 -17.2 29.15 -17.2 M23.5 -12.05 L23.6 -12.05 24.65 -11.75 24.7 -11.7 24.75 -11.6 24.8 -10.75 Q24.85 -10.2 24.9 -9.85 L24.9 -9.6 24.85 -9.45 24.85 -9.3 Q24.85 -9.1 24.9 -8.95 25.15 -8.6 26.3 -8.7 L26.4 -8.65 26.45 -8.6 26.55 -8.2 26.55 -8.1 26.5 -8.05 26.45 -8.05 Q26.4 -8.0 26.35 -8.0 26.3 -8.0 26.25 -8.05 L26.1 -8.25 26.1 -8.3 25.85 -8.25 25.25 -8.25 Q24.85 -8.3 24.65 -8.7 24.45 -9.0 24.45 -9.25 L24.35 -9.25 24.25 -9.3 24.2 -9.4 Q24.2 -9.6 24.4 -9.75 L24.5 -9.8 Q24.3 -10.0 24.35 -10.45 L24.35 -11.35 23.95 -11.5 23.45 -11.7 23.35 -11.8 Q23.35 -11.95 23.45 -12.0 L23.5 -12.05" fill="#00ffff" fill-opacity="0.5019608" fill-rule="evenodd" stroke="none"/>
    <path d="M21.55 -26.7 Q21.55 -26.55 21.85 -26.25 22.1 -25.9 22.1 -25.8 22.1 -25.5 21.6 -24.75 L20.45 -23.2 20.3 -22.95 20.2 -22.1 19.95 -20.4 19.95 -19.85 Q19.95 -19.65 20.0 -19.45 20.2 -19.05 21.35 -18.4 L22.2 -17.85 Q22.65 -17.55 22.8 -17.45 23.05 -17.3 23.25 -17.25 23.65 -17.35 24.0 -17.5 L24.65 -17.8 Q24.95 -17.95 25.3 -17.95 L26.0 -17.9 27.5 -17.7 28.25 -17.55 28.6 -17.5 Q29.05 -17.4 29.15 -17.3 L29.1 -17.4 Q28.9 -17.45 28.85 -17.6 28.8 -17.7 28.8 -17.95 28.8 -18.15 28.85 -18.25 L29.0 -18.35 29.05 -18.35 28.95 -19.0 Q28.85 -19.25 28.5 -19.95 28.2 -20.55 28.2 -20.95 28.2 -21.2 28.4 -21.65 28.6 -22.15 28.85 -22.2 29.45 -22.2 29.5 -22.1 29.45 -22.05 28.95 -22.0 28.8 -21.9 28.6 -21.45 28.35 -21.0 28.35 -20.95 28.35 -20.5 28.6 -19.95 L29.2 -18.8 29.2 -18.4 Q29.6 -18.45 29.8 -18.65 29.9 -18.75 30.0 -18.95 L30.75 -18.9 Q30.75 -18.75 30.9 -18.35 31.05 -18.0 31.05 -17.8 31.05 -17.6 31.0 -17.5 L30.9 -17.4 30.65 -17.4 30.8 -17.5 Q30.9 -17.6 30.9 -17.8 30.9 -18.0 30.75 -18.3 30.65 -18.6 30.65 -18.75 L30.05 -18.7 Q30.05 -18.65 29.6 -18.45 L29.2 -18.2 29.2 -17.55 29.3 -17.5 29.3 -17.4 29.2 -17.4 29.2 -17.15 29.25 -17.1 29.25 -16.85 Q29.25 -16.35 28.95 -16.05 28.7 -15.9 28.2 -15.7 27.55 -15.55 27.3 -15.4 26.85 -15.15 26.65 -14.7 26.9 -14.65 27.1 -14.5 27.2 -14.45 27.2 -14.4 L27.6 -14.45 27.75 -14.6 28.0 -14.95 28.1 -15.0 Q28.2 -15.05 28.45 -15.05 28.65 -15.05 28.8 -14.95 L29.0 -14.8 29.05 -14.7 Q28.9 -14.7 28.75 -14.8 28.6 -14.9 28.45 -14.9 L28.1 -14.65 27.6 -14.25 27.05 -14.25 26.9 -14.4 Q26.8 -14.5 26.5 -14.55 26.6 -15.15 27.1 -15.45 27.8 -15.85 27.95 -16.05 L28.65 -16.15 Q28.7 -16.2 28.8 -16.2 28.9 -16.3 28.9 -16.5 28.9 -16.65 28.95 -16.85 28.0 -17.1 27.6 -16.95 L27.35 -16.75 Q27.15 -16.7 26.85 -16.7 L23.3 -16.7 22.85 -17.0 22.15 -16.9 Q21.1 -16.8 19.8 -18.25 19.3 -18.8 18.95 -19.35 18.6 -19.9 18.6 -20.2 18.6 -21.0 20.2 -23.15 L20.2 -24.3 20.1 -25.2 Q20.1 -25.85 20.15 -26.25 19.15 -26.55 18.3 -26.8 17.05 -27.1 16.65 -26.95 L16.65 -27.05 16.7 -27.1 Q15.4 -26.9 14.25 -26.5 L13.35 -26.15 13.75 -26.2 Q13.75 -26.05 13.6 -25.95 12.75 -25.75 12.25 -25.4 L11.7 -25.0 11.8 -24.95 11.65 -24.95 Q11.6 -24.25 10.5 -23.4 10.55 -23.55 10.8 -23.95 L10.75 -23.9 10.35 -23.6 Q10.1 -23.5 10.1 -23.05 10.1 -22.8 10.1 -22.45 L10.1 -21.9 10.2 -21.9 Q10.2 -21.5 10.3 -20.9 L10.5 -19.95 Q10.4 -19.6 10.45 -19.35 10.25 -19.7 10.2 -20.2 10.15 -20.45 10.1 -21.0 10.05 -21.55 9.95 -21.85 L10.0 -21.9 10.05 -21.9 Q10.15 -22.3 10.0 -23.15 10.05 -23.85 10.9 -24.1 L11.05 -24.3 11.35 -24.9 11.4 -24.9 10.7 -24.8 Q10.5 -24.7 10.3 -24.5 L10.1 -24.25 Q9.9 -24.05 9.7 -24.05 9.35 -24.05 9.3 -24.4 9.2 -24.75 9.45 -25.0 L9.35 -25.15 9.3 -25.05 Q8.95 -25.25 8.6 -25.65 8.3 -26.0 8.2 -26.2 L7.8 -26.15 Q7.65 -26.05 7.35 -25.75 6.95 -25.3 6.75 -25.1 5.8 -24.25 4.5 -24.15 4.4 -23.95 4.4 -23.6 4.35 -23.4 4.35 -22.95 4.35 -22.35 4.3 -22.05 L4.2 -21.9 Q4.2 -21.7 4.3 -21.65 L4.5 -21.55 Q4.45 -21.5 4.15 -21.55 L4.1 -21.6 Q4.05 -21.65 4.05 -21.85 4.05 -22.0 4.15 -22.2 4.2 -22.35 4.2 -22.6 L4.2 -23.35 Q4.2 -23.7 4.25 -23.85 4.25 -24.1 4.35 -24.3 5.85 -24.55 6.65 -25.3 L7.25 -25.9 Q7.55 -26.25 7.7 -26.35 L8.3 -26.3 Q8.4 -26.2 9.1 -25.45 L9.15 -25.5 Q9.65 -25.15 9.65 -25.1 9.65 -24.9 9.5 -24.75 9.35 -24.6 9.35 -24.5 L9.45 -24.45 Q9.5 -24.35 9.7 -24.35 9.9 -24.35 10.25 -24.6 L11.0 -25.05 11.45 -25.05 Q11.5 -25.2 11.5 -25.3 L11.6 -25.3 11.65 -25.25 11.65 -25.15 12.1 -25.55 12.05 -25.55 Q12.35 -25.95 15.0 -26.85 L15.5 -27.0 16.8 -27.3 Q19.1 -27.7 21.6 -27.35 21.8 -26.8 21.7 -26.8 L21.6 -26.8 Q21.55 -26.8 21.55 -26.7 M14.8 -17.7 Q15.55 -17.7 15.85 -17.95 L16.3 -17.9 Q16.6 -17.65 17.15 -17.4 L18.05 -17.05 Q19.05 -16.55 19.2 -15.6 L19.25 -15.35 Q19.25 -15.05 19.35 -14.85 19.5 -14.55 19.8 -14.3 L19.95 -14.1 Q20.45 -13.75 20.9 -13.1 21.7 -12.0 21.9 -11.8 L21.8 -11.7 21.6 -11.7 Q21.4 -11.45 21.2 -11.1 20.9 -10.65 20.9 -10.45 L21.4 -9.4 Q21.75 -8.7 21.85 -8.1 22.2 -7.8 23.25 -7.25 24.1 -6.8 24.35 -6.2 L24.85 -5.05 Q25.2 -4.2 25.2 -4.05 25.2 -3.55 24.2 -2.6 L23.0 -1.5 Q22.75 -1.4 22.0 -1.5 L21.05 -1.6 Q20.9 -1.6 20.7 -1.3 20.55 -1.1 20.45 -0.8 L20.35 -0.8 Q20.65 -1.75 20.95 -1.75 L21.4 -1.65 22.05 -1.55 22.5 -1.6 22.95 -1.7 24.05 -2.8 Q25.05 -3.8 25.05 -4.05 25.05 -4.3 24.7 -5.1 L24.2 -6.1 Q23.95 -6.5 23.25 -7.0 22.55 -7.45 21.8 -7.7 L21.65 -7.75 Q21.6 -8.35 21.2 -9.25 20.7 -10.3 20.7 -10.4 20.7 -10.8 20.9 -11.15 21.1 -11.5 21.5 -11.9 L21.3 -12.2 21.05 -12.55 20.65 -13.1 20.05 -13.85 Q19.7 -13.95 19.4 -14.5 19.05 -14.95 19.05 -15.3 L19.1 -15.6 Q18.95 -15.8 18.85 -16.15 18.7 -16.55 18.45 -16.75 L17.35 -17.2 Q16.4 -17.6 16.2 -17.75 15.95 -17.75 15.75 -17.6 L15.55 -17.5 14.8 -17.55 Q14.7 -17.6 14.35 -18.25 14.1 -18.75 13.7 -18.9 13.4 -18.85 13.1 -18.75 12.85 -18.65 12.7 -18.65 L11.95 -18.7 10.95 -18.8 10.7 -19.0 Q11.25 -18.75 13.15 -19.05 L13.75 -19.05 Q14.25 -18.9 14.5 -18.5 L14.8 -17.7 M3.45 -18.7 L3.9 -18.65 Q4.45 -18.55 4.4 -18.05 4.4 -17.45 4.75 -17.2 5.5 -16.7 5.95 -16.05 L7.45 -16.05 7.5 -15.85 Q7.55 -15.7 7.75 -15.7 8.0 -15.7 8.3 -16.0 8.55 -16.25 8.85 -16.25 9.4 -16.25 9.65 -15.85 9.8 -15.6 9.8 -15.3 L9.6 -15.5 Q9.55 -15.65 9.45 -15.8 9.2 -16.05 8.9 -16.05 8.75 -16.05 8.35 -15.75 7.95 -15.45 7.7 -15.45 7.4 -15.45 7.35 -15.6 7.3 -15.75 6.85 -15.75 L5.8 -15.8 4.35 -17.05 Q4.2 -17.15 4.2 -17.3 L4.2 -17.9 4.15 -18.15 4.1 -18.3 4.05 -18.3 Q3.95 -18.35 3.9 -18.4 L3.3 -18.35 Q3.2 -18.35 3.15 -18.25 L3.1 -18.2 Q3.05 -18.15 3.05 -18.35 3.05 -18.6 3.2 -18.65 L3.45 -18.7 M0.3 -18.05 L0.55 -17.85 0.55 -17.8 0.4 -17.85 0.3 -17.95 0.05 -17.9 -0.05 -17.75 -0.1 -17.6 Q-0.1 -17.35 0.15 -17.15 0.35 -16.9 0.35 -16.8 0.35 -16.6 -0.05 -16.4 -0.55 -16.15 -1.7 -16.1 L-2.05 -16.1 Q-2.4 -16.3 -2.45 -16.7 -2.5 -17.2 -2.6 -17.3 -3.05 -17.3 -3.0 -17.35 L-3.0 -17.45 -3.6 -17.3 Q-3.75 -17.25 -3.95 -17.1 L-4.1 -17.1 -3.7 -17.35 Q-3.4 -17.5 -2.85 -17.6 L-2.8 -17.5 -2.85 -17.45 -2.55 -17.4 Q-2.4 -17.25 -2.35 -16.8 -2.3 -16.4 -1.95 -16.2 L-0.1 -16.45 Q0.25 -16.7 0.25 -16.85 L-0.05 -17.2 Q-0.25 -17.5 -0.25 -17.65 -0.25 -17.7 0.0 -18.05 L0.3 -18.05 M10.9 -14.75 Q11.0 -14.55 10.95 -14.25 10.9 -14.0 11.2 -13.75 L11.5 -13.3 Q11.85 -12.9 11.95 -12.8 12.4 -12.45 12.75 -11.8 13.05 -11.2 13.05 -10.8 13.05 -10.65 12.9 -10.2 12.75 -9.85 12.8 -9.6 L12.9 -9.0 12.95 -8.45 Q12.95 -7.65 12.9 -7.5 12.75 -7.15 12.15 -6.55 L12.05 -6.6 Q12.9 -7.45 12.85 -8.25 L12.75 -8.95 Q12.65 -9.45 12.65 -9.8 12.65 -9.95 12.8 -10.25 12.95 -10.55 12.95 -10.75 12.95 -11.35 12.1 -12.45 11.4 -13.3 10.8 -13.8 L10.8 -14.75 10.9 -14.75 M10.7 -4.55 L10.85 -4.8 11.15 -5.25 11.15 -5.3 Q11.1 -4.9 10.9 -4.4 10.55 -3.6 10.0 -3.05 L9.25 -2.9 8.55 -2.8 Q7.8 -2.8 7.5 -2.95 L7.35 -3.2 6.8 -3.15 Q6.3 -2.95 6.3 -2.35 L6.45 -1.4 Q6.3 -1.45 6.25 -1.75 6.2 -1.85 6.2 -2.25 6.2 -2.8 6.45 -3.2 L6.6 -3.25 6.85 -3.35 7.45 -3.3 7.6 -3.15 Q7.7 -3.05 7.8 -3.0 L8.6 -3.0 Q8.65 -3.05 9.15 -3.15 L9.95 -3.3 Q10.45 -4.1 10.7 -4.55 M8.8 -0.55 L8.8 -0.6 8.85 -0.65 9.3 -0.55 Q9.6 -0.45 9.65 -0.4 L9.55 -0.35 9.05 -0.4 Q9.0 -0.45 8.8 -0.55 M15.9 -0.3 L15.95 0.0 16.75 0.0 Q17.05 -0.1 17.25 -0.4 L17.5 -0.9 17.95 -1.25 18.45 -1.65 20.2 -1.75 Q20.2 -1.65 20.2 -1.55 L18.5 -1.45 Q18.05 -1.3 17.7 -0.65 17.35 0.0 16.7 0.2 L15.65 0.2 Q15.8 -0.05 15.8 -0.15 L15.55 -0.2 15.35 -0.3 15.45 -0.35 15.9 -0.3 M20.5 -0.55 L20.7 -0.35 Q20.8 -0.2 20.8 -0.15 20.8 0.0 20.75 -0.1 L20.6 -0.25 20.2 -0.5 20.3 -0.55 20.5 -0.55 M21.0 -0.25 L21.3 -0.25 21.7 -0.15 Q22.45 -0.15 22.8 -0.45 23.0 -0.65 23.2 -1.1 23.4 -1.15 23.55 -1.3 L23.75 -1.5 24.35 -1.55 Q25.35 -1.55 26.1 -1.15 26.65 -0.9 26.75 -0.65 L26.8 -0.65 Q26.9 -0.75 27.1 -0.75 L26.85 -0.4 26.7 -0.25 26.65 -0.3 26.65 -0.4 26.7 -0.5 Q26.5 -0.7 26.2 -0.9 25.45 -1.45 24.35 -1.45 L23.8 -1.45 Q23.7 -1.35 23.0 -0.55 22.5 0.0 22.05 0.0 L21.7 -0.05 Q21.45 -0.1 21.45 -0.15 L21.05 -0.1 21.0 -0.25 M29.05 -18.05 L29.05 -18.15 28.95 -18.05 Q28.95 -17.9 29.1 -17.7 L29.05 -18.05 M29.15 -17.2 L29.15 -17.25 29.1 -17.2 29.15 -17.2 M24.65 -10.75 Q24.7 -10.2 24.8 -9.8 24.45 -9.85 24.45 -10.45 L24.5 -11.45 24.0 -11.65 23.5 -11.8 23.55 -11.9 23.55 -11.95 24.6 -11.6 24.65 -10.75 M24.8 -9.65 L24.7 -9.45 24.7 -9.3 Q24.7 -9.05 24.8 -8.9 25.05 -8.45 26.3 -8.55 L26.4 -8.2 26.35 -8.15 26.2 -8.35 26.2 -8.45 25.85 -8.4 25.25 -8.4 Q24.95 -8.45 24.75 -8.8 24.6 -9.05 24.6 -9.35 L24.55 -9.35 24.35 -9.4 Q24.35 -9.55 24.5 -9.65 24.6 -9.75 24.75 -9.75 L24.8 -9.65" fill="#ffffff" fill-rule="evenodd" stroke="none"/>
  </g>
</svg>
