<?xml version="1.0" encoding="UTF-8" standalone="no"?>
<svg xmlns:ffdec="https://www.free-decompiler.com/flash" xmlns:xlink="http://www.w3.org/1999/xlink" ffdec:objectType="shape" height="29.2px" width="63.55px" xmlns="http://www.w3.org/2000/svg">
  <g transform="matrix(1.0, 0.0, 0.0, 1.0, 31.5, 30.35)">
    <path d="M5.75 -30.2 L5.65 -30.2 5.7 -30.25 5.8 -30.25 5.8 -30.2 5.75 -30.2 M5.7 -30.05 L5.7 -30.05 M5.75 -30.1 L5.8 -30.1 5.75 -30.0 5.75 -30.1 M6.1 -30.35 L6.15 -30.3 6.15 -30.25 6.1 -30.35 M6.05 -30.1 L6.05 -30.0 6.0 -30.15 6.05 -30.1 M13.65 -28.55 L13.65 -28.65 14.0 -29.0 Q14.25 -29.15 14.55 -29.05 L14.6 -29.0 14.65 -28.9 14.6 -28.8 14.25 -28.65 Q14.05 -28.55 13.95 -28.45 13.9 -28.4 13.85 -28.4 13.8 -28.4 13.75 -28.45 L13.65 -28.55 M18.1 -29.5 Q18.3 -29.4 18.35 -29.25 L18.35 -29.15 18.3 -29.05 18.2 -28.95 Q18.05 -28.95 17.85 -29.05 L17.85 -29.1 Q17.65 -29.2 17.55 -29.35 L17.5 -29.4 Q17.45 -29.5 17.6 -29.55 L17.6 -29.6 17.65 -29.65 17.75 -29.65 18.1 -29.5 M16.65 -19.2 L16.75 -19.2 Q17.35 -19.15 17.35 -18.95 L17.35 -18.9 17.25 -18.7 17.1 -18.7 Q17.0 -18.7 16.95 -18.75 L16.6 -18.8 16.55 -18.85 Q16.5 -18.9 16.5 -18.95 16.5 -19.05 16.6 -19.15 L16.65 -19.2 M13.1 -20.0 L13.1 -20.05 Q13.4 -20.35 13.75 -20.2 L14.3 -19.95 14.35 -19.85 14.35 -19.75 14.3 -19.7 14.2 -19.65 14.1 -19.65 13.6 -19.8 13.25 -19.8 13.15 -19.85 13.1 -19.9 13.05 -20.0 13.1 -20.0 M11.8 -14.2 Q11.9 -14.2 12.1 -14.05 12.35 -13.95 12.45 -13.75 L12.5 -13.7 12.5 -13.65 Q12.5 -13.45 12.25 -13.4 L12.15 -13.4 Q12.1 -13.4 12.1 -13.45 L11.9 -13.65 Q11.75 -13.75 11.65 -13.95 L11.65 -14.05 Q11.65 -14.1 11.7 -14.15 L11.8 -14.2 M7.45 -26.95 L7.8 -26.8 8.05 -26.6 8.05 -26.45 8.0 -26.4 Q7.9 -26.35 7.3 -26.55 7.25 -26.55 7.25 -26.6 L7.2 -26.7 Q7.2 -26.8 7.3 -26.85 L7.4 -26.9 7.45 -26.9 7.45 -26.95 M6.05 -26.05 L6.0 -26.0 5.9 -25.95 5.75 -25.95 5.6 -26.05 5.2 -25.95 4.95 -25.85 4.95 -25.8 4.6 -25.8 4.55 -25.85 Q4.5 -25.9 4.5 -25.95 L4.5 -26.05 4.65 -26.25 4.75 -26.3 5.15 -26.4 5.15 -26.45 5.2 -26.5 5.3 -26.5 Q5.85 -26.45 5.95 -26.3 L6.0 -26.25 6.05 -26.15 6.05 -26.05 M4.65 -20.75 L4.7 -20.7 4.75 -20.6 Q4.7 -20.25 4.8 -20.1 4.85 -20.0 4.95 -20.0 5.05 -20.0 5.1 -20.05 5.2 -20.3 5.3 -20.3 L5.4 -20.3 5.45 -20.2 5.5 -19.85 5.5 -19.8 5.4 -19.65 Q5.3 -19.5 5.0 -19.5 4.6 -19.5 4.4 -19.85 4.2 -20.1 4.2 -20.35 4.2 -20.75 4.35 -20.75 4.45 -20.8 4.65 -20.75 M0.0 -19.5 L0.05 -19.5 Q0.15 -19.45 0.15 -19.25 L0.1 -19.0 Q0.0 -18.8 -0.15 -18.7 L-0.3 -18.7 -0.35 -18.8 Q-0.4 -18.95 -0.3 -19.15 -0.45 -19.1 -0.65 -19.0 L-0.8 -18.85 -0.75 -18.7 -0.65 -18.45 -0.65 -18.35 -0.45 -18.4 0.15 -18.4 0.25 -18.35 0.3 -18.3 0.4 -17.95 0.35 -17.85 0.3 -17.8 0.2 -17.75 0.15 -17.75 0.05 -17.8 0.05 -17.9 0.0 -17.95 0.0 -18.0 -0.35 -17.95 -0.4 -17.9 Q-0.45 -17.85 -0.5 -17.85 L-0.7 -17.9 Q-0.75 -17.9 -0.8 -17.95 L-1.0 -18.4 Q-1.2 -18.75 -1.2 -18.85 -1.2 -19.0 -0.85 -19.3 -0.5 -19.6 -0.25 -19.55 L-0.05 -19.55 0.0 -19.5 M9.55 -7.6 Q9.95 -7.6 10.15 -7.35 10.3 -7.25 10.5 -6.9 L10.5 -6.8 10.35 -6.65 10.25 -6.65 9.9 -6.7 Q9.85 -6.7 9.8 -6.75 L9.8 -6.7 Q9.8 -6.75 9.8 -6.8 9.8 -7.0 9.7 -7.15 9.2 -6.95 8.95 -6.8 9.05 -6.8 9.1 -6.75 9.3 -6.8 9.5 -6.45 L9.5 -6.4 Q9.5 -6.2 9.25 -6.1 L9.15 -6.1 9.1 -6.15 9.1 -6.2 8.65 -6.25 8.55 -6.3 8.5 -6.35 8.5 -6.4 8.45 -6.4 Q8.35 -6.5 8.35 -6.75 8.35 -7.05 8.7 -7.35 9.05 -7.6 9.55 -7.6 M23.1 -8.3 L23.15 -8.25 23.15 -8.1 23.05 -8.1 23.0 -8.2 23.0 -8.25 23.05 -8.3 23.1 -8.3 M23.1 -8.1 L23.15 -8.1 23.25 -8.05 23.3 -7.95 23.3 -7.05 24.4 -6.65 Q25.1 -6.4 25.5 -6.25 L25.8 -5.95 Q25.95 -5.75 26.05 -5.7 L26.5 -5.5 26.95 -5.15 27.0 -5.15 Q27.5 -4.4 27.65 -3.95 L27.65 -3.9 27.7 -3.6 27.7 -3.3 27.8 -3.1 Q27.9 -2.85 27.9 -2.75 27.95 -2.65 27.6 -2.3 L27.6 -2.25 27.4 -2.0 27.45 -1.85 27.45 -1.8 27.6 -1.5 27.6 -1.35 Q27.5 -1.25 27.35 -1.15 L27.25 -1.15 27.15 -1.2 Q27.05 -1.35 27.0 -1.55 26.95 -1.7 26.95 -1.8 26.95 -2.15 27.25 -2.5 L27.3 -2.5 27.5 -2.75 Q27.5 -3.1 27.15 -3.9 26.8 -4.65 26.55 -5.05 L25.85 -5.4 25.8 -5.45 Q25.7 -5.5 25.55 -5.7 L25.25 -5.95 Q24.75 -6.2 24.05 -6.45 L23.1 -6.7 Q23.05 -6.7 23.0 -6.75 L22.95 -6.85 22.95 -7.95 Q22.95 -8.0 23.0 -8.05 L23.05 -8.05 23.1 -8.1 M13.4 -11.15 L13.45 -11.05 13.5 -10.85 Q13.6 -10.7 13.65 -10.6 L13.65 -10.55 13.7 -10.5 13.65 -10.45 Q13.6 -10.3 13.4 -10.2 L13.3 -10.25 Q13.15 -10.3 13.15 -10.35 L13.1 -10.35 Q13.05 -10.45 13.05 -10.75 L13.05 -10.95 Q13.05 -11.0 13.1 -11.1 L13.2 -11.2 13.3 -11.2 13.4 -11.15 M18.1 -3.7 Q18.1 -3.75 18.15 -3.8 18.35 -3.95 18.7 -4.4 19.15 -4.75 19.6 -3.95 L19.65 -3.85 19.6 -3.8 Q19.55 -3.7 19.45 -3.75 19.4 -3.75 19.3 -3.85 19.2 -3.95 19.05 -3.95 18.9 -3.95 18.75 -3.8 18.5 -3.6 18.25 -3.55 L18.15 -3.55 18.1 -3.6 Q18.05 -3.65 18.1 -3.7 M28.8 -19.65 Q28.8 -19.7 28.8 -19.75 L28.8 -20.5 Q28.8 -20.55 28.85 -20.6 28.85 -20.65 28.95 -20.65 29.05 -20.65 29.2 -20.55 30.0 -20.5 30.45 -20.8 30.65 -20.95 30.75 -21.15 L30.8 -21.2 31.45 -21.2 31.55 -21.15 32.05 -20.65 32.05 -20.55 Q32.05 -20.25 31.9 -20.2 31.55 -20.15 31.4 -20.0 L31.2 -19.8 30.75 -19.8 30.7 -19.85 Q30.65 -19.9 30.65 -19.95 30.65 -20.05 30.7 -20.05 L30.75 -20.1 30.9 -20.2 31.45 -20.6 31.5 -20.65 31.45 -20.65 31.3 -20.75 30.95 -20.7 30.65 -20.4 Q30.25 -20.1 29.3 -20.05 L29.4 -19.9 29.6 -19.65 29.65 -19.55 Q29.65 -19.3 29.4 -19.25 L29.3 -19.25 29.25 -19.3 29.25 -19.35 29.15 -19.4 Q28.9 -19.55 28.8 -19.65 M24.6 -9.5 L24.6 -9.5 M24.65 -9.35 L24.65 -9.2 24.5 -9.2 24.5 -9.3 24.55 -9.35 24.55 -9.4 24.6 -9.4 24.65 -9.35 M24.6 -9.4 L24.5 -9.4 24.55 -9.45 24.6 -9.45 24.6 -9.4 M24.45 -9.5 L24.5 -9.45 24.45 -9.45 24.45 -9.35 24.5 -9.3 24.5 -9.25 24.45 -9.2 24.35 -9.2 24.35 -9.25 24.3 -9.3 24.3 -9.35 24.25 -9.45 24.25 -9.55 24.4 -9.55 Q24.45 -9.55 24.45 -9.5 M25.2 -8.0 L25.2 -7.9 25.05 -7.9 25.0 -7.95 25.05 -8.0 25.05 -8.05 25.15 -8.05 25.15 -8.0 25.2 -8.0 M25.25 -7.85 Q25.3 -7.9 25.35 -7.9 25.95 -8.05 26.15 -8.3 L26.2 -8.4 26.35 -8.4 26.45 -8.35 26.45 -8.15 Q26.5 -7.95 25.7 -7.55 L25.6 -7.55 25.3 -7.65 25.25 -7.7 Q25.2 -7.75 25.2 -7.8 L25.25 -7.8 25.25 -7.85 M-31.05 -18.75 L-31.0 -18.7 -30.95 -18.7 -30.95 -18.6 Q-30.95 -18.4 -31.05 -18.35 L-31.25 -18.35 -31.35 -18.4 -31.4 -18.5 -31.4 -18.6 -31.35 -18.75 -31.25 -18.8 Q-31.2 -18.85 -31.1 -18.8 L-31.05 -18.8 -31.05 -18.75 M-31.5 -17.75 L-31.45 -17.85 Q-31.35 -18.1 -30.85 -18.2 L-30.5 -18.25 Q-30.25 -18.45 -30.1 -18.5 L-29.55 -18.55 -28.95 -18.65 -28.25 -18.75 -28.1 -18.75 -28.05 -18.7 Q-27.95 -18.75 -27.95 -18.8 L-27.85 -18.9 -27.65 -18.9 -27.5 -18.85 -27.4 -18.85 -27.4 -18.8 Q-27.0 -18.5 -26.75 -18.15 L-26.75 -17.9 -26.7 -17.85 -26.35 -17.6 -26.3 -17.6 -26.25 -17.55 -26.15 -17.5 -26.05 -17.4 Q-25.95 -17.3 -25.75 -17.0 L-25.75 -16.95 -25.7 -16.85 -25.5 -16.6 -25.45 -16.55 -25.45 -16.45 -25.4 -16.25 -25.4 -15.7 -25.3 -15.05 -25.3 -15.0 -25.15 -14.25 Q-25.05 -13.75 -24.95 -13.45 L-24.95 -13.4 -24.8 -12.6 Q-24.65 -12.1 -24.35 -11.8 L-24.3 -11.8 -23.85 -11.35 -23.2 -10.85 -22.2 -10.2 -21.25 -9.6 Q-20.85 -9.45 -20.25 -9.8 -19.8 -10.05 -19.6 -10.25 -19.3 -10.55 -19.0 -10.75 -18.9 -10.95 -18.7 -11.0 -18.35 -11.2 -18.05 -11.3 L-18.0 -11.3 -17.7 -11.45 -17.65 -11.45 -17.25 -11.6 -16.4 -12.1 -14.7 -12.15 -12.55 -11.85 -12.45 -11.8 -11.95 -11.5 -11.55 -11.4 -11.55 -11.45 -11.45 -11.45 -11.35 -11.55 Q-11.05 -11.7 -10.8 -11.65 L-10.75 -11.65 -10.65 -11.55 -10.65 -11.5 -10.55 -11.4 Q-10.55 -11.3 -10.6 -11.25 L-10.6 -11.2 -10.65 -11.15 Q-10.75 -11.05 -11.2 -11.15 L-11.25 -11.15 -11.25 -11.05 -11.3 -11.0 -11.35 -10.9 -11.45 -10.85 -11.55 -10.85 -11.9 -11.0 -12.05 -11.0 -12.2 -11.05 Q-12.45 -11.15 -12.8 -11.35 -13.1 -11.45 -13.45 -11.5 L-14.25 -11.55 -14.3 -11.55 -16.05 -11.7 -16.4 -11.45 Q-16.7 -11.2 -16.85 -11.2 L-17.4 -11.1 Q-17.6 -11.0 -17.7 -10.9 L-17.8 -10.8 -18.0 -10.8 -18.25 -10.7 Q-18.25 -10.65 -18.3 -10.6 -18.35 -10.55 -18.45 -10.5 -18.6 -10.5 -18.75 -10.2 -19.0 -9.75 -19.4 -9.7 -19.55 -9.5 -19.85 -9.35 L-19.85 -9.3 -19.9 -9.3 Q-20.75 -8.85 -21.8 -9.25 -21.95 -9.3 -22.15 -9.55 L-22.15 -9.6 Q-22.2 -9.65 -22.3 -9.65 L-22.3 -9.7 -22.35 -9.7 Q-23.65 -10.45 -24.15 -10.9 -24.5 -11.15 -24.95 -11.7 -25.05 -11.85 -25.2 -12.2 L-25.3 -12.65 -25.35 -12.95 -25.45 -13.35 -25.5 -13.4 -25.75 -14.9 -25.85 -15.55 -25.9 -15.65 -25.9 -15.7 -26.0 -16.05 Q-26.1 -16.2 -26.25 -16.5 L-26.25 -16.55 -26.35 -16.75 Q-26.65 -17.0 -27.5 -17.4 L-28.85 -17.9 -28.9 -17.9 Q-28.95 -17.85 -29.0 -17.9 L-29.5 -18.05 -29.65 -18.0 -29.7 -18.0 -30.35 -17.65 -30.4 -17.65 -30.95 -17.35 -31.1 -17.3 Q-31.15 -17.3 -31.2 -17.35 L-31.3 -17.5 Q-31.35 -17.55 -31.4 -17.6 L-31.45 -17.65 -31.5 -17.75 M-27.6 -18.4 L-27.6 -18.4" fill="#00ffff" fill-opacity="0.5019608" fill-rule="evenodd" stroke="none"/>
    <path d="M6.0 -30.3 L6.0 -30.15 5.95 -30.1 5.85 -30.1 5.8 -30.15 5.8 -30.2 Q5.85 -30.35 5.9 -30.35 L6.0 -30.35 6.0 -30.3 M13.85 -28.55 L13.8 -28.6 14.1 -28.85 Q14.25 -29.0 14.5 -28.95 L14.2 -28.75 Q14.0 -28.65 13.85 -28.55 M18.2 -29.2 L18.2 -29.1 Q18.1 -29.1 17.9 -29.2 17.75 -29.3 17.65 -29.45 L17.7 -29.45 17.7 -29.5 18.0 -29.4 Q18.2 -29.3 18.2 -29.2 M17.15 -18.85 Q17.05 -18.85 17.05 -18.9 L16.65 -18.95 16.7 -19.05 Q17.2 -19.05 17.2 -18.95 L17.2 -18.8 17.15 -18.85 M14.15 -19.8 L13.65 -19.95 13.2 -19.95 Q13.45 -20.15 13.7 -20.1 L14.2 -19.8 14.15 -19.8 M5.9 -26.1 L5.75 -26.1 Q5.65 -26.15 5.65 -26.2 L5.15 -26.05 Q4.9 -26.0 4.85 -25.95 L4.65 -25.95 4.8 -26.2 Q5.3 -26.3 5.3 -26.35 5.75 -26.3 5.85 -26.2 L5.9 -26.1 M7.95 -26.55 Q7.85 -26.5 7.35 -26.7 L7.45 -26.8 7.75 -26.65 Q7.9 -26.6 7.95 -26.55 M4.6 -20.6 Q4.5 -19.85 4.95 -19.85 5.2 -19.85 5.25 -20.0 L5.3 -20.2 5.35 -19.85 5.3 -19.7 Q5.2 -19.65 5.0 -19.65 4.7 -19.65 4.5 -19.9 4.35 -20.15 4.35 -20.35 4.35 -20.6 4.4 -20.6 L4.6 -20.6 M0.25 -17.95 L0.2 -17.9 0.1 -18.1 -0.35 -18.1 -0.5 -18.0 -0.7 -18.05 -0.9 -18.45 -1.05 -18.85 Q-1.05 -18.95 -0.75 -19.2 -0.45 -19.45 -0.3 -19.45 L-0.1 -19.4 -0.05 -19.4 Q0.0 -19.35 0.0 -19.25 0.0 -19.2 -0.05 -19.05 -0.1 -18.9 -0.2 -18.85 -0.25 -18.95 -0.1 -19.15 L-0.15 -19.25 Q-0.15 -19.3 -0.3 -19.3 -0.45 -19.3 -0.7 -19.1 L-0.95 -18.9 -0.9 -18.65 -0.8 -18.4 Q-0.75 -18.1 -0.65 -18.15 -0.55 -18.25 -0.45 -18.25 L0.15 -18.25 0.25 -17.95 M10.05 -7.25 Q10.2 -7.15 10.35 -6.8 L9.95 -6.8 Q9.95 -7.1 9.8 -7.3 8.85 -7.0 8.7 -6.8 8.9 -6.65 9.1 -6.65 9.2 -6.6 9.35 -6.4 9.35 -6.3 9.2 -6.25 9.2 -6.35 8.65 -6.4 L8.55 -6.5 Q8.5 -6.55 8.5 -6.75 8.5 -7.0 8.8 -7.2 9.1 -7.45 9.55 -7.45 9.85 -7.45 10.05 -7.25 M12.0 -13.75 Q11.85 -13.85 11.8 -14.0 L11.8 -14.05 Q11.9 -14.05 12.05 -13.95 12.25 -13.85 12.35 -13.7 12.35 -13.55 12.2 -13.55 L12.0 -13.75 M13.3 -11.05 L13.4 -10.8 Q13.45 -10.65 13.55 -10.5 13.5 -10.4 13.35 -10.35 L13.25 -10.45 Q13.2 -10.5 13.2 -10.75 L13.2 -11.05 13.3 -11.05 M19.05 -4.05 Q18.85 -4.05 18.7 -3.95 18.45 -3.75 18.2 -3.7 18.45 -3.85 18.8 -4.3 19.15 -4.5 19.5 -3.9 19.5 -3.85 19.4 -3.95 19.3 -4.05 19.05 -4.05 M23.1 -7.95 L23.15 -7.95 23.2 -6.95 24.35 -6.5 25.45 -6.1 25.7 -5.85 Q25.9 -5.65 26.0 -5.6 L26.4 -5.4 Q26.8 -5.2 26.85 -5.05 27.35 -4.35 27.5 -3.9 L27.55 -3.6 27.55 -3.3 Q27.55 -3.25 27.65 -3.05 L27.75 -2.75 Q27.75 -2.65 27.5 -2.4 27.25 -2.1 27.25 -2.05 27.25 -1.95 27.35 -1.75 L27.45 -1.45 Q27.4 -1.35 27.3 -1.3 27.2 -1.4 27.15 -1.6 L27.1 -1.8 Q27.1 -2.1 27.4 -2.4 L27.65 -2.75 Q27.65 -3.1 27.25 -3.95 26.9 -4.75 26.7 -5.1 26.65 -5.2 26.35 -5.35 L25.9 -5.55 25.65 -5.8 25.3 -6.1 Q24.8 -6.35 24.05 -6.55 L23.1 -6.85 23.1 -7.95 M31.85 -20.35 Q31.5 -20.3 31.3 -20.1 L31.15 -19.95 30.8 -19.95 31.6 -20.55 31.65 -20.7 31.65 -20.75 31.5 -20.8 Q31.35 -20.85 31.35 -20.9 L30.95 -20.85 Q30.85 -20.85 30.75 -20.7 L30.55 -20.5 Q30.15 -20.2 29.05 -20.2 29.1 -20.05 29.3 -19.8 L29.5 -19.55 Q29.5 -19.45 29.35 -19.4 L29.2 -19.5 Q29.0 -19.65 28.95 -19.75 L28.95 -20.5 Q29.05 -20.5 29.15 -20.4 30.05 -20.35 30.5 -20.7 30.75 -20.85 30.85 -21.05 L31.45 -21.05 31.95 -20.55 Q31.95 -20.4 31.85 -20.35 M24.5 -9.45 L24.5 -9.35 24.55 -9.3 Q24.55 -9.0 24.65 -8.7 24.8 -8.25 25.05 -7.9 25.25 -7.85 25.35 -7.75 24.85 -7.95 24.7 -8.3 24.6 -8.8 24.45 -9.0 L24.45 -9.35 Q24.4 -9.4 24.35 -9.5 24.1 -9.3 23.75 -8.85 L23.15 -8.1 23.1 -8.05 23.15 -8.2 Q23.35 -8.4 23.75 -8.9 24.15 -9.45 24.35 -9.6 L24.5 -9.45 M25.35 -7.75 Q26.05 -7.9 26.3 -8.25 26.3 -8.35 26.3 -8.15 26.3 -8.0 25.65 -7.7 L25.35 -7.75 M-31.1 -18.6 L-31.1 -18.5 -31.25 -18.5 -31.25 -18.65 -31.1 -18.65 -31.1 -18.6 M-31.3 -17.7 L-31.35 -17.75 -31.3 -17.8 Q-31.25 -17.95 -30.85 -18.05 L-30.45 -18.15 Q-30.2 -18.35 -30.05 -18.4 L-29.55 -18.4 -28.95 -18.5 -28.2 -18.6 -28.15 -18.6 -28.05 -18.55 Q-27.85 -18.65 -27.8 -18.75 L-27.75 -18.8 -27.7 -18.8 -27.5 -18.75 -27.5 -18.7 Q-27.1 -18.4 -26.9 -18.1 L-26.85 -18.05 -27.0 -17.9 -26.85 -17.8 -26.4 -17.45 -26.3 -17.45 -26.25 -17.4 -26.2 -17.3 Q-26.05 -17.2 -25.85 -16.9 L-25.8 -16.8 -25.6 -16.55 -25.6 -16.45 -25.55 -16.25 -25.55 -15.65 -25.45 -15.0 -25.3 -14.2 Q-25.2 -13.7 -25.1 -13.4 L-25.1 -13.35 -24.9 -12.55 Q-24.8 -12.05 -24.45 -11.7 L-23.95 -11.25 Q-23.5 -10.9 -23.3 -10.75 L-22.25 -10.05 -21.3 -9.45 Q-20.85 -9.3 -20.2 -9.65 -19.7 -9.9 -19.5 -10.15 L-18.9 -10.65 -18.9 -10.7 Q-18.8 -10.85 -18.65 -10.85 -18.3 -11.1 -18.05 -11.15 L-18.0 -11.15 -17.6 -11.35 -17.2 -11.5 -16.35 -11.95 Q-16.05 -12.15 -14.7 -12.0 L-12.6 -11.75 -12.55 -11.7 Q-12.55 -11.65 -12.0 -11.35 L-11.55 -11.25 -11.45 -11.3 -11.4 -11.35 -11.35 -11.3 -11.35 -11.2 -11.4 -11.05 -11.45 -11.0 -11.5 -11.0 -11.95 -11.15 -12.0 -11.15 -12.2 -11.2 -12.15 -11.2 Q-12.4 -11.3 -12.75 -11.45 -13.05 -11.6 -13.4 -11.65 L-14.25 -11.7 -16.1 -11.85 -16.5 -11.55 Q-16.75 -11.35 -16.9 -11.35 L-17.4 -11.2 Q-17.75 -11.15 -17.8 -10.95 L-18.0 -10.95 Q-18.2 -10.9 -18.4 -10.8 L-18.4 -10.7 -18.45 -10.65 Q-18.7 -10.65 -18.9 -10.25 -19.1 -9.9 -19.45 -9.85 -19.65 -9.6 -19.95 -9.45 -20.75 -9.0 -21.75 -9.4 -21.9 -9.45 -22.0 -9.65 -22.1 -9.8 -22.25 -9.8 L-22.3 -9.8 Q-23.55 -10.55 -24.05 -11.0 -24.4 -11.25 -24.85 -11.8 -24.95 -11.9 -25.05 -12.25 L-25.15 -12.65 -25.25 -13.0 -25.35 -13.4 -25.6 -14.9 -25.7 -15.6 -25.75 -15.6 -25.75 -15.7 -25.85 -16.15 -26.1 -16.6 -26.2 -16.85 Q-26.55 -17.1 -27.4 -17.5 L-27.45 -17.5 -28.8 -18.05 -29.0 -18.05 -29.5 -18.2 -29.75 -18.15 Q-30.0 -18.05 -30.45 -17.8 L-31.05 -17.45 -31.1 -17.45 -31.15 -17.5 -31.15 -17.6 -31.1 -17.6 -30.85 -17.85 Q-30.95 -17.85 -31.05 -17.8 L-31.2 -17.65 -31.25 -17.65 -31.3 -17.7 M-27.8 -18.4 L-27.2 -18.05 -27.15 -18.1 -27.45 -18.35 -27.65 -18.55 Q-27.7 -18.45 -27.8 -18.4 M-10.8 -11.5 L-10.75 -11.45 -10.7 -11.35 -10.7 -11.3 -10.75 -11.25 -11.2 -11.3 -11.35 -11.3 -11.35 -11.35 -11.3 -11.4 -11.3 -11.45 Q-11.05 -11.55 -10.8 -11.5" fill="#ffffff" fill-rule="evenodd" stroke="none"/>
  </g>
</svg>
