<?xml version="1.0" encoding="UTF-8" standalone="no"?>
<svg xmlns:ffdec="https://www.free-decompiler.com/flash" xmlns:xlink="http://www.w3.org/1999/xlink" ffdec:objectType="shape" height="8.9px" width="25.5px" xmlns="http://www.w3.org/2000/svg">
  <g transform="matrix(1.0, 0.0, 0.0, 1.0, 12.8, 6.7)">
    <path d="M11.1 -6.05 L11.3 -5.9 Q11.35 -5.85 11.4 -5.85 L11.3 -5.95 Q10.95 -6.3 10.95 -6.55 L10.95 -6.7 11.0 -6.65 11.0 -6.7 11.35 -6.2 11.75 -5.5 11.75 -4.85 11.7 -4.8 11.45 -5.1 Q11.25 -5.35 11.25 -5.45 L11.25 -5.5 Q11.15 -5.55 11.1 -5.7 11.0 -5.85 11.05 -6.05 L11.1 -6.05 M12.7 -2.55 L12.7 -2.4 12.25 -1.1 Q11.95 -0.3 11.7 0.2 L11.55 0.15 11.45 0.35 Q11.2 0.7 10.8 0.95 9.9 1.45 5.95 2.05 L4.7 2.05 4.35 2.1 2.0 2.15 -2.15 2.15 -2.35 2.1 -2.05 2.0 -2.0 2.0 -3.05 1.95 -3.85 1.8 -5.45 1.75 -7.1 1.6 -7.85 1.45 -8.8 1.35 Q-10.45 1.0 -11.2 0.5 L-11.8 0.05 Q-12.15 -0.05 -12.45 -0.55 -12.75 -1.05 -12.8 -1.4 L-12.65 -1.05 Q-12.45 -0.7 -12.1 -0.55 L-11.85 -0.3 -11.45 -0.3 -11.35 -0.2 Q-11.15 -0.1 -10.8 -0.05 L-10.85 -0.05 -10.8 -0.1 -11.2 -0.2 -11.25 -0.25 -10.35 -0.25 -9.5 -0.3 Q-8.15 -0.6 -7.25 -1.1 L-6.35 -1.75 -6.75 -1.55 -6.75 -1.65 -6.35 -1.8 Q-6.35 -2.0 -6.1 -2.0 L-5.85 -2.0 -5.6 -1.95 -4.55 -2.6 -4.5 -2.65 -4.55 -2.65 -4.3 -2.8 -4.2 -2.8 Q-3.55 -3.2 -3.4 -3.2 -3.35 -3.35 -3.35 -3.05 -3.35 -2.95 -3.6 -2.75 L-3.7 -2.65 -3.8 -2.65 -3.85 -2.6 -4.55 -2.15 -4.5 -2.05 -4.35 -2.05 Q-4.35 -2.0 -4.4 -1.8 L-4.35 -1.65 -4.35 -1.6 Q-4.1 -1.3 -3.65 -1.3 L-2.9 -1.25 -2.95 -1.0 -2.9 -1.05 -2.95 -0.8 -3.0 -0.8 -3.05 -0.65 -3.3 0.0 -2.7 0.05 Q-2.55 0.15 -2.45 0.35 L-2.4 0.35 -2.35 0.45 -2.25 0.6 -2.3 0.6 -2.25 0.65 Q-2.1 0.95 -1.6 0.95 -0.4 0.95 -0.2 0.8 -0.05 0.6 0.3 0.6 L0.85 0.65 1.35 1.2 2.45 1.1 Q2.65 1.35 2.8 1.35 4.4 1.35 5.0 0.9 5.55 0.5 5.95 0.5 L6.2 0.5 Q6.25 0.5 6.35 0.6 L6.35 0.65 7.55 0.5 Q10.05 0.1 11.2 -1.0 L11.9 -1.8 11.75 -1.65 11.75 -1.9 11.95 -2.0 11.9 -2.0 12.0 -2.05 12.0 -2.0 12.25 -2.25 12.25 -2.2 12.55 -2.7 12.6 -2.55 12.5 -2.35 12.7 -2.55 M-9.7 -3.05 L-9.3 -3.45 -9.15 -3.35 -9.15 -3.2 -9.05 -3.15 -9.0 -3.2 Q-8.95 -3.35 -8.95 -3.1 -8.9 -3.0 -8.9 -2.85 L-8.85 -2.85 Q-8.85 -2.8 -8.9 -2.8 -8.9 -2.65 -9.1 -2.45 -9.25 -2.35 -9.4 -2.35 L-9.4 -2.3 -9.45 -2.35 -9.55 -2.35 -9.75 -2.25 -9.9 -2.15 Q-10.1 -2.1 -10.1 -2.25 L-10.3 -2.15 Q-10.65 -2.0 -10.75 -2.0 L-11.15 -2.05 -11.4 -2.25 -11.45 -2.3 -11.4 -2.3 -11.45 -2.4 Q-11.45 -2.55 -11.3 -2.55 L-10.9 -2.55 -10.65 -2.65 Q-10.0 -2.95 -9.85 -3.1 L-9.7 -3.05 M-12.1 -2.8 L-12.05 -2.85 -11.75 -2.8 Q-11.45 -2.75 -11.45 -2.7 -11.55 -2.55 -11.8 -2.35 L-12.1 -2.4 Q-12.2 -2.4 -12.2 -2.6 -12.2 -2.8 -12.1 -2.8 M-9.45 -1.55 Q-9.35 -1.8 -8.95 -2.1 L-8.45 -2.45 -8.4 -2.25 -8.55 -2.0 -8.75 -1.8 -8.9 -1.5 Q-9.1 -1.15 -9.55 -0.95 -9.55 -1.15 -9.35 -1.6 L-9.45 -1.55 M-1.9 0.45 L-1.9 0.45 M-2.4 0.4 L-2.4 0.4" fill="#ffffff" fill-rule="evenodd" stroke="none"/>
  </g>
</svg>
