<?xml version="1.0" encoding="UTF-8" standalone="no"?>
<svg xmlns:ffdec="https://www.free-decompiler.com/flash" xmlns:xlink="http://www.w3.org/1999/xlink" ffdec:objectType="shape" height="22.1px" width="22.4px" xmlns="http://www.w3.org/2000/svg">
  <g transform="matrix(1.0, 0.0, 0.0, 1.0, -27.85, -27.35)">
    <path d="M40.05 45.75 Q41.6 45.7 43.1 45.2 44.35 44.8 46.1 43.8 47.55 43.0 48.0 42.95 L48.15 42.95 Q48.6 42.6 48.9 42.85 L49.15 43.1 49.5 41.65 Q49.85 40.0 49.85 39.1 L49.65 36.7 Q49.65 35.95 49.2 34.8 48.75 33.55 48.0 32.35 46.3 29.8 44.25 29.05 43.75 28.9 43.4 28.9 L43.2 28.95 43.05 28.95 Q42.4 29.0 42.35 29.95 42.45 29.35 43.0 29.2 L42.95 29.3 43.1 29.15 44.0 29.25 44.45 29.35 44.5 29.35 44.55 29.4 44.8 29.55 44.8 29.6 Q44.85 29.6 44.8 29.65 43.9 29.6 43.3 30.35 42.95 30.75 42.85 31.15 L42.65 31.35 42.1 32.35 41.8 32.85 41.9 32.6 41.95 32.35 42.05 32.0 Q41.95 32.05 41.85 32.25 41.7 32.55 41.45 33.15 L41.4 33.2 41.45 33.05 41.35 33.25 41.3 33.25 40.8 33.9 40.75 33.95 Q39.7 34.85 38.45 35.05 37.8 35.35 37.15 35.55 L36.65 35.65 35.45 35.75 Q33.35 35.75 31.9 35.25 L31.0 34.85 Q30.7 34.7 30.65 34.7 L30.0 34.8 Q29.7 34.85 29.6 34.95 L29.5 35.0 29.4 35.1 29.55 35.0 Q30.3 34.75 30.95 34.95 31.2 35.0 31.4 35.15 31.65 35.4 32.75 35.7 L33.4 35.85 33.25 35.85 32.8 35.8 33.1 35.9 34.7 36.1 34.75 36.1 34.3 36.0 34.85 36.05 35.9 35.95 Q36.5 35.85 36.65 35.7 L36.75 35.75 36.8 35.75 36.85 35.8 37.15 35.6 Q35.65 36.5 34.9 38.3 34.25 39.75 34.25 41.25 34.25 41.4 34.3 41.75 L34.35 41.95 34.35 42.1 34.4 42.05 34.4 41.1 34.45 41.1 34.65 42.2 34.8 43.0 34.75 43.1 34.7 43.1 34.65 42.95 34.7 43.25 34.7 43.35 34.6 43.4 Q34.4 43.15 33.95 42.85 L33.9 42.85 Q33.45 42.65 32.9 42.45 31.8 42.05 31.45 42.2 L31.45 42.15 Q31.2 42.25 31.05 42.4 L31.0 42.55 31.05 42.65 Q31.05 42.55 31.1 42.55 31.25 42.4 31.65 42.55 32.15 42.65 32.8 42.95 L32.95 42.95 33.05 43.0 33.0 43.05 33.25 43.15 Q33.75 43.4 34.7 44.0 L34.7 43.95 34.75 44.0 34.8 44.0 34.8 44.05 35.45 44.45 Q36.85 45.25 37.9 45.5 38.5 45.65 39.05 45.65 L39.75 45.7 40.0 45.7 39.9 45.8 40.05 45.75 M50.0 41.35 Q49.8 42.3 49.55 42.95 L49.2 43.95 49.15 43.95 49.1 44.0 Q49.0 44.65 47.95 46.0 47.0 47.35 46.3 47.65 L45.7 48.1 Q43.55 49.45 39.75 49.45 35.3 49.45 32.15 46.8 30.6 45.5 29.75 43.9 27.85 42.0 27.85 39.65 27.85 37.7 28.0 37.0 28.25 35.95 29.0 35.2 L29.0 35.15 Q29.0 35.0 29.25 34.5 L29.4 34.15 Q29.7 33.55 29.95 32.65 L30.05 32.3 Q30.75 31.2 31.8 30.2 34.7 27.45 37.85 27.4 L37.85 27.35 39.45 27.35 Q39.65 27.35 39.85 27.45 40.1 27.4 40.45 27.5 40.7 27.6 40.9 27.7 41.7 27.5 42.55 29.05 42.85 28.7 43.4 28.7 44.05 28.65 44.85 29.15 47.55 30.1 49.0 33.4 50.25 36.15 50.25 39.1 50.25 40.05 50.0 41.35 M48.85 43.85 L48.85 43.8 Q48.8 43.35 48.75 43.25 48.7 43.2 48.45 43.15 48.2 43.3 47.65 43.55 L45.45 44.65 Q44.3 45.2 43.35 45.55 43.7 45.85 44.45 46.15 45.35 46.55 45.35 46.25 46.65 46.2 47.4 45.7 L47.9 45.35 Q48.05 45.25 48.15 45.25 48.6 44.6 48.8 44.0 L48.85 43.85 M47.6 46.0 L47.7 45.9 47.55 46.0 Q46.75 46.5 45.75 46.5 44.55 46.5 43.75 46.05 43.35 45.8 43.2 45.6 41.6 46.15 40.7 46.15 L39.4 46.1 38.85 46.4 Q38.15 46.75 37.6 46.75 36.4 46.75 35.45 45.5 34.9 44.8 34.75 44.3 33.5 43.5 32.95 43.2 L32.9 43.15 Q32.75 43.25 32.55 43.25 L31.4 43.25 31.7 43.35 32.5 43.45 32.5 43.5 33.5 44.15 33.85 44.4 33.95 44.8 Q34.1 45.15 34.1 45.35 L34.0 45.6 33.95 45.85 Q33.7 46.0 33.35 46.0 32.35 46.0 31.4 45.25 30.85 44.8 30.65 44.4 L30.2 43.8 Q29.9 43.3 29.65 42.75 29.15 42.65 28.7 41.8 L28.35 40.8 28.35 40.65 28.25 40.3 Q28.3 40.85 28.45 41.35 28.9 42.7 29.9 43.9 L29.85 44.0 30.35 44.6 Q31.2 45.6 32.25 46.4 35.55 48.95 39.8 48.95 43.2 48.95 45.25 47.95 45.7 47.75 46.2 47.45 47.0 46.7 47.6 46.0 M42.0 28.6 Q41.45 28.0 41.05 28.0 40.55 28.0 40.35 28.75 40.25 29.15 40.25 29.6 40.4 30.2 40.75 30.8 L41.55 32.2 41.95 31.4 Q42.05 31.2 42.05 30.7 L42.15 29.85 Q42.2 29.35 42.45 29.15 L42.0 28.6 M42.5 31.5 L42.35 31.6 42.3 31.8 42.5 31.5 M41.2 32.8 L41.4 32.45 40.65 31.2 40.35 30.45 Q40.0 29.65 40.0 29.15 40.0 28.95 40.1 28.5 40.0 28.65 39.95 29.0 39.9 29.3 39.9 29.6 39.9 29.9 40.2 30.65 L40.25 30.95 40.4 32.3 40.1 33.4 Q39.95 33.85 39.75 34.1 L40.45 33.7 40.5 33.65 40.9 33.3 41.2 32.8 M37.3 28.45 L37.75 28.35 37.35 28.4 37.3 28.45 M38.9 34.5 L38.9 34.55 39.0 34.5 38.9 34.5 M30.15 34.5 L30.8 34.6 30.75 34.45 Q30.55 34.4 30.5 34.1 L30.5 33.75 Q30.5 32.65 32.0 31.05 31.2 31.85 30.7 32.7 30.5 33.05 30.4 33.35 L30.35 33.55 30.15 33.95 30.15 34.05 Q30.15 34.2 29.85 34.55 L30.05 34.5 30.15 34.5 M30.15 34.4 Q30.15 34.55 30.15 34.45 L30.1 34.5 30.05 34.45 30.15 34.4 M29.9 33.65 L29.85 33.6 29.8 33.7 29.8 33.75 29.9 33.65 M34.4 42.2 L34.4 42.3 34.45 42.35 34.4 42.2 M32.1 42.1 L32.1 42.1 M31.6 42.95 L31.6 43.0 32.45 42.95 Q31.9 42.7 31.6 42.7 L31.45 42.7 31.25 42.75 31.4 42.85 31.6 42.95 M34.75 43.75 L34.8 43.75 34.8 43.8 Q34.75 43.85 34.7 43.85 L34.65 43.7 34.75 43.75 M35.5 45.35 Q36.35 46.35 37.35 46.35 37.6 46.35 38.5 46.1 L38.85 46.0 38.8 45.95 Q37.3 45.8 34.9 44.35 35.05 44.8 35.5 45.35" fill="#ffffff" fill-rule="evenodd" stroke="none"/>
    <path d="M40.0 45.7 L40.05 45.75 39.9 45.8 40.0 45.7 M47.6 46.0 L47.55 46.0 47.7 45.9 47.6 46.0 M30.05 34.5 L30.15 34.5 30.05 34.5" fill="#00fff7" fill-opacity="0.49803922" fill-rule="evenodd" stroke="none"/>
    <path d="M42.5 31.5 L42.3 31.8 42.35 31.6 42.5 31.5 M37.3 28.45 L37.35 28.4 37.75 28.35 37.3 28.45 M38.9 34.5 L39.0 34.5 38.9 34.55 38.9 34.5 M29.9 33.65 L29.8 33.75 29.8 33.7 29.85 33.6 29.9 33.65 M32.1 42.1 L32.1 42.1 M34.4 42.2 L34.45 42.35 34.4 42.3 34.4 42.2" fill="#70ffff" fill-opacity="0.6" fill-rule="evenodd" stroke="none"/>
    <path d="M40.0 45.7 L39.75 45.7 39.05 45.65 Q38.5 45.65 37.9 45.5 36.85 45.25 35.45 44.45 L34.8 44.05 34.8 44.0 34.75 44.0 34.7 43.95 34.7 44.0 Q33.75 43.4 33.25 43.15 L33.0 43.05 33.05 43.0 32.95 42.95 32.8 42.95 Q32.15 42.65 31.65 42.55 31.25 42.4 31.1 42.55 31.05 42.55 31.05 42.65 L31.0 42.55 31.05 42.4 Q31.2 42.25 31.45 42.15 L31.45 42.2 Q31.8 42.05 32.9 42.45 33.45 42.65 33.9 42.85 L33.95 42.85 Q34.4 43.15 34.6 43.4 L34.7 43.35 34.7 43.25 34.65 42.95 34.7 43.1 34.75 43.1 34.8 43.0 34.65 42.2 34.45 41.1 34.4 41.1 34.4 42.05 34.35 42.1 34.35 41.95 34.3 41.75 Q34.25 41.4 34.25 41.25 34.25 39.75 34.9 38.3 35.65 36.5 37.15 35.6 L36.85 35.8 36.8 35.75 36.75 35.75 36.65 35.7 Q36.5 35.85 35.9 35.95 L34.85 36.05 34.3 36.0 34.75 36.1 34.7 36.1 33.1 35.9 32.8 35.8 33.25 35.85 33.4 35.85 32.75 35.7 Q31.65 35.4 31.4 35.15 31.2 35.0 30.95 34.95 30.3 34.75 29.55 35.0 L29.4 35.1 29.5 35.0 29.6 34.95 Q29.7 34.85 30.0 34.8 L30.65 34.7 Q30.7 34.7 31.0 34.85 L31.9 35.25 Q33.35 35.75 35.45 35.75 L36.65 35.65 37.15 35.55 Q37.8 35.35 38.45 35.05 39.7 34.85 40.75 33.95 L40.8 33.9 41.3 33.25 41.35 33.25 41.45 33.05 41.4 33.2 41.45 33.15 Q41.7 32.55 41.85 32.25 41.95 32.05 42.05 32.0 L41.95 32.35 41.9 32.6 41.8 32.85 42.1 32.35 42.65 31.35 42.85 31.15 Q42.95 30.75 43.3 30.35 43.9 29.6 44.8 29.65 44.85 29.6 44.8 29.6 L44.8 29.55 44.55 29.4 44.5 29.35 44.45 29.35 44.0 29.25 43.1 29.15 42.95 29.3 43.0 29.2 Q42.45 29.35 42.35 29.95 42.4 29.0 43.05 28.95 L43.2 28.95 43.4 28.9 Q43.75 28.9 44.25 29.05 46.3 29.8 48.0 32.35 48.75 33.55 49.2 34.8 49.65 35.95 49.65 36.7 L49.85 39.1 Q49.85 40.0 49.5 41.65 L49.15 43.1 48.9 42.85 Q48.6 42.6 48.15 42.95 L48.0 42.95 Q47.55 43.0 46.1 43.8 44.35 44.8 43.1 45.2 41.6 45.7 40.05 45.75 L40.0 45.7 M47.55 46.0 L47.6 46.0 Q47.0 46.7 46.2 47.45 45.7 47.75 45.25 47.95 43.2 48.95 39.8 48.95 35.55 48.95 32.25 46.4 31.2 45.6 30.35 44.6 L29.85 44.0 29.9 43.9 Q28.9 42.7 28.45 41.35 28.3 40.85 28.25 40.3 L28.35 40.65 28.35 40.8 28.7 41.8 Q29.15 42.65 29.65 42.75 29.9 43.3 30.2 43.8 L30.65 44.4 Q30.85 44.8 31.4 45.25 32.35 46.0 33.35 46.0 33.7 46.0 33.95 45.85 L34.0 45.6 34.1 45.35 Q34.1 45.15 33.95 44.8 L33.85 44.4 33.5 44.15 32.5 43.5 32.5 43.45 31.7 43.35 31.4 43.25 32.55 43.25 Q32.75 43.25 32.9 43.15 L32.95 43.2 Q33.5 43.5 34.75 44.3 34.9 44.8 35.45 45.5 36.4 46.75 37.6 46.75 38.15 46.75 38.85 46.4 L39.4 46.1 40.7 46.15 Q41.6 46.15 43.2 45.6 43.35 45.8 43.75 46.05 44.55 46.5 45.75 46.5 46.75 46.5 47.55 46.0 M41.2 32.8 L40.9 33.3 40.5 33.65 40.45 33.7 39.75 34.1 Q39.95 33.85 40.1 33.4 L40.4 32.3 40.25 30.95 40.2 30.65 Q39.9 29.9 39.9 29.6 39.9 29.3 39.95 29.0 40.0 28.65 40.1 28.5 40.0 28.95 40.0 29.15 40.0 29.65 40.35 30.45 L40.65 31.2 41.4 32.45 41.2 32.8 M30.05 34.5 L29.85 34.55 Q30.15 34.2 30.15 34.05 L30.15 33.95 30.35 33.55 30.4 33.35 Q30.5 33.05 30.7 32.7 31.2 31.85 32.0 31.05 30.5 32.65 30.5 33.75 L30.5 34.1 Q30.55 34.4 30.75 34.45 L30.8 34.6 30.15 34.5 30.05 34.5 M30.15 34.4 L30.05 34.45 30.1 34.5 30.15 34.45 Q30.15 34.55 30.15 34.4 M31.6 42.95 L31.4 42.85 31.25 42.75 31.45 42.7 31.6 42.7 Q31.9 42.7 32.45 42.95 L31.6 43.0 31.6 42.95 M34.75 43.75 L34.65 43.7 34.7 43.85 Q34.75 43.85 34.8 43.8 L34.8 43.75 34.75 43.75" fill="#70ffff" fill-opacity="0.49803922" fill-rule="evenodd" stroke="none"/>
  </g>
</svg>
