<?xml version="1.0" encoding="UTF-8" standalone="no"?>
<svg xmlns:ffdec="https://www.free-decompiler.com/flash" xmlns:xlink="http://www.w3.org/1999/xlink" ffdec:objectType="shape" height="19.15px" width="27.95px" xmlns="http://www.w3.org/2000/svg">
  <g transform="matrix(1.0, 0.0, 0.0, 1.0, -25.4, -29.4)">
    <path d="M49.05 36.95 Q51.4 36.85 52.5 38.05 53.35 38.9 53.35 40.0 53.35 41.6 51.6 43.5 L50.7 44.4 Q50.05 44.95 49.05 45.55 47.55 46.5 46.55 46.65 45.8 46.9 45.05 47.0 L46.15 47.15 46.7 47.2 Q48.05 47.1 49.1 46.7 50.0 46.4 50.1 46.4 L50.95 45.85 Q49.45 47.3 46.55 48.0 44.4 48.55 42.05 48.55 L40.35 48.45 39.95 48.45 39.8 48.35 Q38.15 48.2 37.15 47.9 L37.0 47.95 Q35.45 47.45 34.9 47.35 32.3 46.75 30.25 45.5 28.65 44.55 27.7 43.35 26.9 42.4 26.3 41.25 25.65 40.05 25.6 39.2 L25.45 38.95 25.5 38.7 25.5 38.45 Q25.6 37.8 25.95 37.6 L25.85 37.7 25.75 37.85 25.85 37.75 Q26.25 37.55 26.8 37.65 27.35 37.8 27.8 38.05 28.2 38.3 28.5 38.7 L28.8 38.95 Q29.5 39.4 29.75 39.7 L31.35 40.95 Q33.45 42.65 34.75 43.45 35.55 43.95 36.45 44.4 L36.5 44.35 36.6 44.45 Q39.85 46.0 44.5 46.9 L45.4 46.7 Q46.75 46.4 47.6 45.95 L47.55 45.85 47.55 45.7 Q47.55 45.4 47.1 45.05 46.75 44.75 46.3 44.6 L45.0 44.65 44.4 44.65 43.9 44.6 43.2 44.5 42.0 44.3 41.45 44.2 Q41.55 44.25 41.4 44.25 L41.05 44.2 40.95 44.15 40.7 44.05 40.6 43.95 40.35 43.85 39.95 43.7 Q39.1 43.3 38.25 42.8 L37.9 42.6 Q35.85 42.0 34.6 40.5 34.05 39.85 33.25 38.25 L33.3 38.15 33.4 38.3 33.3 38.1 33.3 38.05 33.2 37.9 33.0 37.45 Q32.45 36.0 32.45 34.85 32.45 34.0 32.55 33.5 32.6 32.85 33.05 32.05 33.55 31.1 34.25 30.35 35.05 29.6 35.7 29.45 36.4 29.3 36.8 29.95 L36.8 30.0 36.75 30.0 37.15 30.5 Q37.4 30.9 37.75 31.65 38.05 32.45 38.3 32.85 38.7 33.45 39.3 33.85 L40.45 34.65 Q41.15 35.15 41.65 35.45 43.3 36.4 46.3 36.95 L48.1 36.95 49.05 37.0 49.05 36.95 M50.2 37.3 Q49.65 37.25 47.2 37.25 45.15 37.25 42.4 36.0 40.2 34.95 39.0 33.95 38.25 33.25 37.6 31.65 37.2 30.75 36.7 30.15 L36.5 29.9 36.4 29.85 Q36.15 29.7 36.1 29.7 L35.8 29.7 Q36.3 29.7 36.7 30.15 L36.95 30.5 Q37.3 31.15 37.3 31.75 L37.3 31.95 37.2 32.05 37.1 31.9 Q36.05 32.65 35.65 34.0 35.4 34.9 35.4 36.1 35.4 37.35 35.7 38.7 36.1 40.45 36.85 41.0 L36.8 41.05 36.3 40.7 35.9 40.4 36.0 40.6 Q36.15 40.75 36.15 40.8 L36.15 40.9 36.0 40.75 Q36.9 41.75 38.4 42.65 39.85 43.5 41.55 44.1 42.5 44.2 43.35 44.4 L43.65 44.4 44.0 44.45 44.95 44.45 46.35 44.35 46.95 44.35 47.85 44.2 Q48.85 43.95 49.55 43.95 49.7 44.0 49.7 44.1 L49.7 44.2 Q49.7 44.7 49.05 45.25 L50.25 44.5 50.3 44.45 51.2 43.45 Q53.1 41.4 53.1 40.0 53.1 39.05 52.25 38.25 51.6 37.65 50.75 37.35 L50.2 37.3 M49.4 44.1 L47.95 44.35 46.65 44.55 46.65 44.6 46.4 44.6 46.65 44.65 47.1 44.85 Q47.65 45.1 47.7 45.45 L47.7 45.9 47.95 45.8 Q49.55 44.85 49.5 44.2 L49.4 44.1 M49.0 46.95 L49.0 46.95 Q48.05 47.25 46.65 47.35 L45.95 47.3 45.7 47.3 Q37.9 47.3 28.1 38.65 L27.9 38.5 27.95 38.75 27.9 39.05 Q27.9 39.15 27.7 39.25 26.85 39.35 26.7 39.5 L26.65 39.65 26.6 39.7 Q26.55 39.85 26.55 40.05 26.55 40.15 26.8 40.9 26.45 40.75 26.2 40.4 L26.05 40.15 Q26.2 40.55 26.4 40.9 26.9 41.95 28.05 43.45 28.55 44.15 29.95 45.0 30.65 45.4 31.6 45.95 32.45 46.6 34.65 47.05 L34.75 47.05 34.65 47.0 Q33.95 46.7 33.35 46.4 32.9 46.15 32.65 45.95 L32.3 45.75 Q31.3 45.0 30.85 44.35 L30.9 44.35 Q31.15 44.8 32.15 45.4 32.95 45.9 34.05 46.4 34.1 46.45 34.05 46.45 34.65 46.75 35.1 46.95 36.8 47.6 39.7 48.1 39.8 48.1 39.85 48.2 L40.45 48.25 41.8 48.25 42.05 48.3 Q44.8 48.2 46.7 47.75 47.9 47.45 49.0 46.95 M36.5 40.7 L36.5 40.7 M25.4 36.9 Q25.45 36.8 25.55 36.8 25.7 36.85 25.95 37.15 25.8 37.2 25.7 37.3 25.65 37.35 25.55 37.4 L25.45 37.15 25.4 36.9 M29.55 37.6 L29.35 37.45 Q29.1 37.25 29.1 37.2 L29.1 37.15 29.55 37.65 29.55 37.6" fill="#ffffff" fill-rule="evenodd" stroke="none"/>
    <path d="M49.0 46.95 L49.0 46.95 M34.65 47.0 L34.75 47.05 34.65 47.05 34.65 47.0" fill="#00fff7" fill-opacity="0.49803922" fill-rule="evenodd" stroke="none"/>
    <path d="M36.5 40.7 L36.5 40.7" fill="#70ffff" fill-opacity="0.6" fill-rule="evenodd" stroke="none"/>
    <path d="M50.2 37.3 L50.75 37.35 Q51.6 37.65 52.25 38.25 53.1 39.05 53.1 40.0 53.1 41.4 51.2 43.45 L50.3 44.45 50.25 44.5 49.05 45.25 Q49.7 44.7 49.7 44.2 L49.7 44.1 Q49.7 44.0 49.55 43.95 48.85 43.95 47.85 44.2 L46.95 44.35 46.35 44.35 44.95 44.45 44.0 44.45 43.65 44.4 43.35 44.4 Q42.5 44.2 41.55 44.1 39.85 43.5 38.4 42.65 36.9 41.75 36.0 40.75 L36.15 40.9 36.15 40.8 Q36.15 40.75 36.0 40.6 L35.9 40.4 36.3 40.7 36.8 41.05 36.85 41.0 Q36.1 40.45 35.7 38.7 35.4 37.35 35.4 36.1 35.4 34.9 35.65 34.0 36.05 32.65 37.1 31.9 L37.2 32.05 37.3 31.95 37.3 31.75 Q37.3 31.15 36.95 30.5 L36.7 30.15 Q36.3 29.7 35.8 29.7 L36.1 29.7 Q36.15 29.7 36.4 29.85 L36.5 29.9 36.7 30.15 Q37.2 30.75 37.6 31.65 38.25 33.25 39.0 33.95 40.2 34.95 42.4 36.0 45.15 37.25 47.2 37.25 49.65 37.25 50.2 37.3 M49.0 46.95 Q47.9 47.45 46.7 47.75 44.8 48.2 42.05 48.3 L41.8 48.25 40.45 48.25 39.85 48.2 Q39.8 48.1 39.7 48.1 36.8 47.6 35.1 46.95 34.65 46.75 34.05 46.45 34.1 46.45 34.05 46.4 32.95 45.9 32.15 45.4 31.15 44.8 30.9 44.35 L30.85 44.35 Q31.3 45.0 32.3 45.75 L32.65 45.95 Q32.9 46.15 33.35 46.4 33.95 46.7 34.65 47.0 L34.65 47.05 Q32.45 46.6 31.6 45.95 30.65 45.4 29.95 45.0 28.55 44.15 28.05 43.45 26.9 41.95 26.4 40.9 26.2 40.55 26.05 40.15 L26.2 40.4 Q26.45 40.75 26.8 40.9 26.55 40.15 26.55 40.05 26.55 39.85 26.6 39.7 L26.65 39.65 26.7 39.5 Q26.85 39.35 27.7 39.25 27.9 39.15 27.9 39.05 L27.95 38.75 27.9 38.5 28.1 38.65 Q37.9 47.3 45.7 47.3 L45.95 47.3 46.65 47.35 Q48.05 47.25 49.0 46.95" fill="#70ffff" fill-opacity="0.49803922" fill-rule="evenodd" stroke="none"/>
  </g>
</svg>
