<?xml version="1.0" encoding="UTF-8" standalone="no"?>
<svg xmlns:ffdec="https://www.free-decompiler.com/flash" xmlns:xlink="http://www.w3.org/1999/xlink" ffdec:objectType="shape" height="22.9px" width="55.15px" xmlns="http://www.w3.org/2000/svg">
  <g transform="matrix(1.0, 0.0, 0.0, 1.0, 36.3, 20.4)">
    <path d="M12.05 -18.85 Q9.2 -18.8 2.35 -14.8 L1.4 -14.25 Q-1.0 -12.6 -2.7 -11.4 L-0.85 -10.4 Q1.2 -9.3 2.6 -8.65 5.15 -7.5 9.2 -5.1 10.0 -4.7 10.85 -4.3 L10.95 -4.7 Q11.4 -6.8 12.15 -8.1 12.65 -9.0 13.4 -10.0 L14.6 -11.55 Q15.75 -13.2 15.75 -14.6 15.75 -15.7 15.05 -17.0 14.0 -18.85 12.05 -18.85 M17.1 -14.6 Q17.1 -13.05 15.85 -11.1 L15.8 -11.05 Q14.15 -8.85 13.25 -7.5 12.8 -6.85 12.6 -5.9 L12.2 -3.7 Q15.0 -2.5 18.25 -1.6 L18.4 -1.55 Q18.8 -1.45 18.8 -1.3 18.9 -1.15 18.85 -1.0 18.8 -0.85 18.65 -0.8 18.45 -0.7 17.95 -0.7 15.75 -0.7 11.75 -2.4 11.35 -1.55 10.6 -0.9 10.5 -0.85 10.35 -0.85 10.25 -0.85 10.15 -0.9 10.05 -0.95 10.0 -1.1 9.95 -1.2 10.0 -1.3 10.2 -1.85 10.5 -2.95 L9.3 -3.55 Q7.5 -4.45 5.45 -5.6 L3.55 -6.7 0.75 -8.15 Q-1.25 -9.15 -2.1 -9.65 L-3.4 -10.35 -3.9 -10.65 -5.6 -9.55 Q-10.3 -6.55 -12.85 -6.6 L-13.3 -6.6 Q-13.5 -6.65 -13.6 -6.8 -13.7 -6.9 -13.7 -7.0 -13.75 -7.15 -13.65 -7.25 -13.6 -7.35 -13.5 -7.4 -9.15 -8.85 -4.95 -11.3 -5.6 -11.75 -7.2 -12.25 -9.05 -12.8 -10.4 -12.8 -13.0 -12.8 -14.05 -12.35 L-14.25 -12.3 Q-15.15 -11.4 -15.4 -10.75 -15.5 -10.35 -15.5 -9.3 -15.5 -8.55 -15.1 -7.85 L-14.05 -6.2 Q-14.0 -6.1 -14.0 -5.95 -14.05 -5.85 -14.1 -5.75 -12.8 -5.45 -11.35 -4.95 L-11.4 -4.95 Q-8.15 -3.75 -6.85 -2.35 -6.75 -2.25 -6.75 -2.15 -6.75 -2.0 -6.85 -1.9 -6.9 -1.8 -7.05 -1.75 L-7.3 -1.8 Q-9.4 -2.9 -11.0 -3.6 L-12.0 -3.95 Q-11.65 -3.5 -11.4 -2.9 -10.85 -1.65 -10.7 -0.35 -10.7 -0.2 -10.8 -0.1 -10.85 0.0 -11.0 0.05 L-11.15 0.1 -11.35 0.05 Q-11.5 0.0 -11.55 -0.1 L-12.45 -2.25 Q-13.0 -3.6 -13.55 -4.35 L-13.6 -4.45 -13.6 -4.55 Q-14.7 -4.85 -15.8 -5.15 L-17.8 -5.05 -17.95 -5.1 -18.2 -5.15 Q-18.9 -5.2 -19.85 -4.95 -20.8 -4.75 -21.45 -4.3 L-21.55 -4.3 Q-22.05 -3.9 -22.2 -3.45 L-21.95 -2.7 -21.95 -2.65 -21.9 -2.65 -21.8 -2.5 Q-21.75 -2.45 -21.65 -2.4 -21.55 -2.4 -21.5 -2.35 L-20.95 -1.95 Q-20.05 -2.1 -19.1 -2.1 L-17.0 -2.1 -16.9 -2.05 Q-16.35 -1.9 -16.35 -1.7 -16.3 -1.6 -16.3 -1.45 -16.35 -1.35 -16.4 -1.25 -16.5 -1.2 -16.65 -1.2 L-18.85 -1.0 Q-17.95 -0.75 -16.9 -0.7 L-16.85 -0.65 -16.75 -0.65 -15.65 -0.5 Q-15.5 -0.5 -15.4 -0.4 -15.35 -0.3 -15.3 -0.15 -15.3 0.0 -15.4 0.1 -15.45 0.2 -15.6 0.2 L-15.95 0.3 -16.05 0.3 -16.9 0.25 Q-19.45 0.25 -21.1 -0.7 L-21.25 -0.7 -21.95 -0.5 -23.15 -0.15 -23.2 -0.15 -24.95 0.45 Q-26.65 1.0 -27.7 1.0 L-28.5 0.95 -29.15 0.9 -30.05 0.85 -31.15 0.7 -31.1 0.75 Q-33.45 0.35 -34.95 -0.75 -36.35 -1.8 -36.3 -2.75 -36.3 -4.4 -35.4 -5.45 -35.05 -6.05 -34.1 -6.55 -32.85 -7.2 -30.55 -7.6 -30.45 -7.7 -30.3 -7.7 L-26.5 -7.65 -26.35 -7.65 -25.15 -7.15 Q-24.4 -6.9 -24.35 -6.8 L-24.2 -6.65 -24.2 -6.4 Q-24.2 -6.25 -24.3 -6.15 -24.4 -6.05 -24.55 -6.05 L-24.6 -6.05 Q-24.85 -6.0 -25.8 -6.3 -26.8 -6.6 -27.4 -6.5 L-27.45 -6.5 -28.25 -6.55 -30.35 -6.55 Q-32.0 -6.25 -33.25 -5.6 L-34.1 -5.2 Q-34.55 -4.75 -34.85 -4.2 -35.15 -3.65 -35.2 -3.3 -35.15 -1.55 -32.1 -0.75 -30.45 -0.3 -28.7 -0.2 -25.45 -0.55 -22.85 -1.35 L-22.35 -1.55 -22.5 -1.7 -22.85 -2.0 Q-23.4 -2.65 -23.4 -3.2 -23.4 -3.65 -23.1 -4.25 -22.75 -4.9 -22.05 -5.4 -20.5 -6.45 -17.5 -6.2 L-17.45 -6.2 Q-16.15 -6.2 -14.8 -5.9 -15.5 -6.5 -16.0 -7.4 -16.7 -8.45 -16.7 -9.3 -16.7 -10.4 -16.35 -11.2 L-16.0 -11.8 -16.0 -11.9 Q-15.75 -12.45 -15.15 -12.85 L-15.0 -13.0 -14.95 -13.0 -14.65 -13.15 Q-13.75 -13.65 -12.35 -13.85 -9.9 -14.2 -7.4 -13.55 -5.45 -13.1 -4.4 -12.3 L-3.9 -12.05 Q-2.15 -13.3 0.5 -15.0 4.1 -17.35 6.45 -18.6 12.15 -21.8 15.05 -19.3 16.15 -18.4 16.7 -16.85 17.1 -15.7 17.1 -14.6 M10.7 -0.75 Q10.8 -0.65 10.85 -0.55 11.05 0.15 10.3 1.05 L9.2 2.35 Q9.1 2.45 9.0 2.5 L8.6 2.5 Q8.5 2.4 8.45 2.3 8.4 2.15 8.45 2.05 8.6 1.55 9.3 0.6 L10.2 -0.65 Q10.3 -0.75 10.45 -0.8 10.55 -0.8 10.7 -0.75 M-21.75 -1.45 Q-21.85 -1.35 -22.0 -1.35 L-22.2 -1.45 -21.7 -1.55 -21.7 -1.5 -21.75 -1.45 M-22.0 -1.35 L-21.95 -1.3 -21.75 -1.1 -21.65 -1.75 -21.9 -1.7 -22.35 -1.55 -22.25 -1.45 Q-22.15 -1.35 -22.0 -1.35 L-22.0 -1.35 M-6.25 -1.1 L-6.05 -1.1 Q-5.95 -1.1 -5.9 -1.05 -5.7 -0.9 -5.45 -0.5 -5.1 0.05 -5.1 0.35 -5.1 0.7 -5.15 1.05 L-5.15 1.15 Q-5.2 1.3 -5.3 1.4 -5.4 1.5 -5.55 1.5 L-5.75 1.45 -5.9 1.3 -6.55 -0.6 Q-6.6 -0.75 -6.55 -0.9 -6.45 -1.0 -6.35 -1.05 L-6.25 -1.1" fill="#9bebeb" fill-opacity="0.49803922" fill-rule="evenodd" stroke="none"/>
    <path d="M12.05 -19.2 Q9.15 -19.2 2.15 -15.1 L1.2 -14.55 Q-1.55 -12.65 -3.4 -11.4 L-1.0 -10.1 Q1.05 -8.95 2.45 -8.35 5.0 -7.2 9.0 -4.8 10.0 -4.25 11.1 -3.8 L11.3 -4.65 Q11.75 -6.65 12.45 -7.95 12.95 -8.8 13.65 -9.8 L14.85 -11.35 Q16.1 -13.1 16.1 -14.6 16.1 -15.8 15.35 -17.15 14.25 -19.2 12.05 -19.2 M16.35 -16.75 Q16.75 -15.65 16.75 -14.6 16.75 -13.1 15.55 -11.3 13.85 -9.05 12.95 -7.7 12.5 -7.0 12.25 -6.0 L11.95 -4.3 11.75 -3.5 Q14.7 -2.2 18.15 -1.25 L18.3 -1.2 Q18.45 -1.15 18.5 -1.1 18.35 -1.05 17.95 -1.05 15.7 -1.05 11.55 -2.9 L11.5 -2.65 Q11.1 -1.8 10.35 -1.2 10.6 -1.8 10.95 -3.15 L9.45 -3.85 Q7.65 -4.75 5.65 -5.9 L3.7 -7.0 0.9 -8.45 Q-1.1 -9.45 -1.9 -10.0 L-3.2 -10.7 -3.9 -11.05 Q-5.0 -10.35 -5.75 -9.85 -10.4 -6.95 -12.85 -6.95 L-13.2 -6.95 -13.35 -7.05 Q-8.8 -8.6 -4.4 -11.25 L-4.3 -11.3 -4.7 -11.6 Q-5.4 -12.1 -7.1 -12.6 -9.0 -13.15 -10.4 -13.15 -13.1 -13.15 -14.2 -12.7 L-14.5 -12.55 Q-15.5 -11.55 -15.7 -10.9 -15.85 -10.45 -15.85 -9.3 -15.85 -8.45 -15.4 -7.7 L-14.35 -6.0 Q-15.15 -6.6 -15.7 -7.55 -16.35 -8.55 -16.35 -9.3 -16.35 -10.3 -16.0 -11.05 L-15.6 -11.75 -15.65 -11.75 Q-15.45 -12.25 -14.9 -12.6 L-14.85 -12.65 -14.5 -12.85 Q-13.6 -13.3 -12.3 -13.5 -9.9 -13.85 -7.5 -13.25 -5.6 -12.75 -4.6 -12.0 L-3.9 -11.65 Q-2.1 -12.95 0.7 -14.7 4.3 -17.05 6.6 -18.3 12.05 -21.35 14.85 -19.0 15.85 -18.2 16.35 -16.75 M8.8 2.15 Q8.95 1.7 9.55 0.8 L10.5 -0.45 Q10.6 0.1 10.0 0.85 L8.9 2.15 8.8 2.15 M-35.1 -5.25 Q-34.8 -5.8 -33.9 -6.25 -32.65 -6.9 -30.3 -7.25 L-30.3 -7.35 -26.5 -7.3 -25.25 -6.8 Q-24.65 -6.6 -24.55 -6.5 L-24.55 -6.4 -24.65 -6.4 Q-24.75 -6.35 -25.7 -6.65 -26.8 -6.95 -27.45 -6.85 L-28.2 -6.95 -29.85 -6.9 -30.4 -6.9 Q-32.1 -6.6 -33.4 -5.95 L-34.3 -5.45 Q-34.85 -4.95 -35.2 -4.35 -35.55 -3.75 -35.55 -3.3 -35.55 -1.3 -32.2 -0.4 -30.5 0.05 -28.7 0.15 -25.4 -0.15 -22.75 -1.05 L-21.55 -1.4 -21.8 -1.6 -21.95 -1.75 -22.0 -1.7 -22.25 -1.95 -22.6 -2.25 Q-23.05 -2.75 -23.05 -3.2 -23.05 -3.6 -22.8 -4.05 -22.5 -4.65 -21.85 -5.1 -20.35 -6.1 -17.55 -5.8 L-17.45 -5.85 Q-14.75 -5.8 -11.5 -4.6 -8.35 -3.45 -7.1 -2.1 -9.25 -3.25 -10.9 -3.9 -13.15 -4.85 -15.75 -5.5 L-17.85 -5.45 -18.15 -5.5 Q-18.9 -5.6 -19.95 -5.3 -20.95 -5.05 -21.65 -4.6 L-21.6 -4.7 -21.55 -4.7 Q-22.4 -4.15 -22.55 -3.55 L-22.55 -3.45 -22.35 -2.75 -22.2 -2.45 -22.05 -2.25 Q-21.9 -2.15 -21.75 -2.1 -21.45 -1.8 -21.0 -1.55 -20.1 -1.75 -19.1 -1.75 L-17.0 -1.75 Q-16.7 -1.6 -16.65 -1.55 L-19.1 -1.35 -20.3 -1.15 Q-18.85 -0.45 -16.95 -0.3 L-16.85 -0.3 -15.65 -0.15 -16.0 -0.05 -16.9 -0.1 Q-19.4 -0.1 -21.05 -1.1 L-21.3 -1.05 Q-21.4 -1.05 -22.05 -0.85 L-23.3 -0.5 Q-24.2 -0.15 -25.05 0.1 -26.7 0.65 -27.7 0.65 L-28.5 0.6 -29.05 0.5 -30.0 0.5 -31.05 0.4 Q-33.3 0.0 -34.75 -1.05 -35.95 -1.95 -35.95 -2.75 -35.95 -4.25 -35.1 -5.25 M-13.2 -4.75 Q-12.3 -4.1 -11.7 -2.75 -11.2 -1.55 -11.1 -0.3 L-11.2 -0.25 -12.1 -2.4 Q-12.65 -3.8 -13.25 -4.55 L-13.2 -4.75 M-6.1 -0.75 Q-5.95 -0.65 -5.75 -0.3 -5.45 0.1 -5.45 0.35 -5.45 0.7 -5.5 1.0 L-5.5 1.05 -5.6 1.15 -6.2 -0.75 -6.1 -0.75" fill="#ffffff" fill-rule="evenodd" stroke="none"/>
  </g>
</svg>
