<?xml version="1.0" encoding="UTF-8" standalone="no"?>
<svg xmlns:ffdec="https://www.free-decompiler.com/flash" xmlns:xlink="http://www.w3.org/1999/xlink" ffdec:objectType="shape" height="7.45px" width="30.6px" xmlns="http://www.w3.org/2000/svg">
  <g transform="matrix(1.0, 0.0, 0.0, 1.0, 14.85, 5.6)">
    <path d="M1.95 -2.2 L2.3 -2.4 2.9 -2.25 Q3.15 -2.15 3.35 -2.25 L3.8 -2.15 4.25 -2.3 4.55 -2.7 4.9 -3.0 5.7 -2.95 5.85 -2.7 Q6.35 -2.7 7.3 -3.35 L7.8 -3.6 7.65 -3.65 8.0 -3.8 8.05 -3.75 8.4 -3.95 Q9.75 -3.95 10.25 -3.4 10.5 -3.1 10.5 -2.7 L10.5 -2.6 Q10.55 -2.55 10.6 -2.4 L10.65 -2.4 10.7 -2.2 10.6 -2.25 10.55 -2.05 10.5 -2.0 10.5 -1.85 10.45 -1.45 10.3 -1.2 10.2 -1.15 10.25 -1.35 10.05 -1.05 Q10.25 -0.75 10.55 -0.65 10.8 -0.7 11.3 -1.1 11.4 -1.2 11.65 -1.2 L11.85 -1.2 12.15 -1.15 12.5 -1.2 12.85 -1.6 13.15 -2.05 13.5 -2.45 Q13.95 -2.55 14.35 -2.85 L14.75 -3.45 14.95 -3.65 Q15.25 -3.95 15.45 -3.75 L15.65 -4.1 15.7 -4.35 15.75 -4.3 15.75 -4.1 Q15.75 -3.35 15.5 -3.1 14.8 -2.5 14.4 -1.9 L14.4 -2.05 14.3 -1.9 14.4 -1.8 14.45 -1.65 Q14.45 -1.15 13.6 -0.6 13.05 -0.25 12.45 0.0 L12.4 0.0 Q11.6 0.35 10.3 0.7 L9.4 0.9 8.3 1.2 5.6 1.8 Q5.55 1.9 5.55 1.7 L5.8 1.45 6.05 1.25 6.0 1.15 7.35 0.3 7.35 0.25 Q7.15 0.2 7.15 0.1 6.8 0.25 6.15 -0.05 L5.9 -0.2 5.3 -0.05 Q5.05 -0.05 5.05 -0.15 5.05 -0.2 5.1 -0.3 L4.55 -0.2 4.35 -0.2 3.9 -0.1 3.95 -0.15 3.05 -0.05 2.9 -0.05 2.45 0.1 2.25 0.2 Q1.95 0.3 1.9 0.35 L1.85 0.3 Q1.2 0.75 0.55 1.05 -0.3 1.5 -0.75 1.5 L0.25 0.95 0.35 0.7 Q-0.15 0.7 -0.75 0.9 L-1.45 1.2 Q-2.0 1.45 -3.7 1.65 L-3.9 1.65 -4.75 1.45 -5.25 1.5 -6.0 1.55 -7.0 1.55 -7.0 1.5 -6.55 1.05 Q-6.35 0.85 -6.3 0.7 L-7.45 0.55 -7.5 0.55 -8.65 0.5 -8.55 0.4 Q-9.75 0.35 -11.1 -0.3 L-10.65 0.0 -10.75 0.05 Q-11.3 0.05 -12.85 -1.2 L-12.1 -0.85 Q-13.15 -1.5 -13.15 -1.95 -13.15 -2.25 -13.05 -1.95 L-13.05 -2.0 -12.7 -1.65 -12.8 -1.85 -12.5 -1.8 -12.65 -2.0 -12.7 -2.3 Q-12.7 -2.5 -12.6 -2.55 L-12.55 -2.6 -12.2 -2.2 -12.05 -2.25 -12.15 -2.4 -12.2 -2.6 -12.45 -2.85 Q-13.0 -3.45 -13.0 -3.85 L-13.0 -4.1 -12.9 -4.15 Q-12.85 -4.25 -12.75 -4.25 L-12.6 -3.9 -12.5 -3.9 -12.5 -3.7 -12.4 -3.5 -12.3 -3.5 -12.3 -3.4 -12.25 -3.35 Q-11.7 -2.75 -10.9 -2.75 L-10.3 -2.9 -9.75 -3.1 -9.4 -3.0 Q-9.3 -2.9 -9.25 -2.85 L-9.3 -2.85 -9.25 -2.8 -8.8 -2.7 -8.2 -2.4 -7.55 -2.5 -7.1 -2.7 -6.75 -2.7 Q-6.25 -2.75 -5.45 -3.0 L-5.15 -3.05 -4.55 -3.05 -3.85 -2.65 -3.75 -2.65 -3.55 -2.5 -3.5 -2.45 -3.5 -2.4 -3.3 -2.25 Q-3.25 -2.2 -3.25 -1.95 -3.15 -1.75 -3.15 -1.65 -3.15 -1.3 -3.5 -0.8 -3.8 -0.5 -4.1 -0.3 -4.05 -0.2 -4.05 0.0 -4.05 0.1 -4.2 0.35 L-2.15 0.1 -2.05 0.2 -2.1 0.25 Q-1.35 -0.1 -0.7 -0.55 L0.5 -1.4 Q0.85 -1.75 1.35 -2.0 L1.95 -2.2 M-14.05 -5.55 L-14.35 -5.15 -14.4 -5.15 -14.35 -5.05 -14.35 -4.9 -14.4 -4.9 Q-14.4 -4.45 -14.15 -4.1 L-14.1 -4.15 -13.95 -3.85 -13.45 -3.3 -13.45 -3.25 Q-13.5 -3.2 -13.6 -3.2 L-13.75 -3.15 -13.6 -2.9 -13.4 -2.55 -13.45 -2.45 Q-14.15 -2.8 -14.5 -3.4 -14.85 -3.95 -14.85 -4.5 -14.85 -4.85 -14.65 -5.25 -14.4 -5.6 -14.2 -5.6 L-14.05 -5.55 M-13.95 -2.05 L-13.9 -2.05 Q-13.65 -1.2 -12.45 -0.4 -11.2 0.3 -11.0 0.45 L-11.15 0.45 Q-12.2 0.45 -13.15 -0.65 -13.95 -1.55 -13.95 -1.95 L-13.95 -2.05 M-11.0 -0.4 L-10.85 -0.3 -10.85 -0.35 -10.9 -0.35 -11.0 -0.4 M-6.1 0.7 L-6.1 0.7" fill="#ffffff" fill-rule="evenodd" stroke="none"/>
  </g>
</svg>
