<?xml version="1.0" encoding="UTF-8" standalone="no"?>
<svg xmlns:ffdec="https://www.free-decompiler.com/flash" xmlns:xlink="http://www.w3.org/1999/xlink" ffdec:objectType="shape" height="3.35px" width="9.55px" xmlns="http://www.w3.org/2000/svg">
  <g transform="matrix(1.0, 0.0, 0.0, 1.0, 6.1, 0.1)">
    <path d="M-4.3 -0.1 Q-4.05 0.05 -4.05 0.45 -4.05 0.65 -4.6 1.3 -5.1 1.9 -5.2 1.9 -5.5 1.9 -5.55 1.7 L-5.55 1.45 Q-5.55 0.95 -5.35 0.55 -5.15 0.15 -4.8 0.0 -4.5 -0.2 -4.3 -0.1 M-6.1 2.05 Q-6.1 2.0 -5.95 1.9 -5.8 1.85 -5.7 1.85 L-5.65 1.95 Q-5.65 2.05 -5.65 2.15 L-5.7 2.2 -5.85 2.3 Q-6.05 2.2 -6.1 2.05" fill="#ffffff" fill-opacity="0.5019608" fill-rule="evenodd" stroke="none"/>
    <path d="M3.3 2.65 Q3.4 2.7 3.45 2.75 3.45 2.9 3.4 3.0 L3.2 3.2 3.0 3.2 Q2.9 3.2 2.9 3.0 2.9 2.8 3.0 2.7 3.05 2.65 3.2 2.65 L3.3 2.65 M0.1 2.75 L0.15 2.7 0.7 2.65 0.75 2.7 Q0.8 2.75 0.8 2.95 0.8 3.25 0.75 3.15 L0.7 3.2 0.45 3.25 Q0.15 3.25 0.2 3.2 L0.15 3.15 0.1 2.95 0.1 2.75 M-4.25 0.9 Q-4.35 1.1 -4.65 1.25 L-5.05 1.15 Q-4.95 0.4 -4.55 0.15 -4.15 -0.15 -4.15 0.7 -4.15 0.8 -4.25 0.9" fill="#ffffff" fill-rule="evenodd" stroke="none"/>
  </g>
</svg>
