<?xml version="1.0" encoding="UTF-8" standalone="no"?>
<svg xmlns:ffdec="https://www.free-decompiler.com/flash" xmlns:xlink="http://www.w3.org/1999/xlink" ffdec:objectType="shape" height="9.3px" width="14.8px" xmlns="http://www.w3.org/2000/svg">
  <g transform="matrix(1.0, 0.0, 0.0, 1.0, -3.8, 10.35)">
    <path d="M8.45 -7.3 Q8.5 -7.25 8.5 -7.05 8.5 -6.8 8.4 -6.6 L8.2 -6.25 8.05 -6.2 7.95 -6.5 7.95 -6.85 Q7.95 -7.0 8.0 -7.05 8.05 -7.15 8.35 -7.3 8.4 -7.25 8.45 -7.3 M16.5 -1.4 Q16.45 -1.45 16.45 -1.65 16.45 -1.95 17.1 -2.1 17.65 -2.3 18.5 -2.3 L18.6 -2.2 Q18.3 -1.9 17.65 -1.6 17.15 -1.4 16.7 -1.3 L16.5 -1.4" fill="#ffffff" fill-opacity="0.5019608" fill-rule="evenodd" stroke="none"/>
    <path d="M4.0 -10.05 Q3.85 -10.1 3.8 -10.15 L3.8 -10.35 Q4.0 -10.35 4.1 -10.25 4.1 -10.1 4.0 -10.05 M8.2 -6.3 Q8.15 -6.2 7.9 -6.15 L7.85 -6.2 7.8 -6.4 7.85 -6.65 7.85 -6.7 8.05 -6.7 Q8.2 -6.6 8.2 -6.3 M13.0 -8.3 Q12.75 -8.35 12.75 -8.55 12.8 -8.65 12.9 -8.65 13.05 -8.65 13.15 -8.55 13.15 -8.4 13.0 -8.3 M15.7 -6.45 L15.7 -6.25 15.55 -6.2 15.4 -6.2 Q15.3 -6.25 15.3 -6.45 L15.3 -6.65 Q15.3 -6.6 15.3 -6.65 L15.4 -6.7 15.65 -6.7 Q15.7 -6.55 15.7 -6.45 M12.8 -1.55 Q12.95 -1.45 12.95 -1.15 L12.35 -1.05 12.25 -1.3 Q12.3 -1.35 12.45 -1.45 12.65 -1.55 12.8 -1.55 M18.3 -2.0 L18.0 -1.8 17.8 -1.95 Q17.85 -2.05 18.0 -2.1 L18.25 -2.1 18.3 -2.0" fill="#ffffff" fill-rule="evenodd" stroke="none"/>
  </g>
</svg>
