<?xml version="1.0" encoding="UTF-8" standalone="no"?>
<svg xmlns:ffdec="https://www.free-decompiler.com/flash" xmlns:xlink="http://www.w3.org/1999/xlink" ffdec:objectType="shape" height="8.8px" width="17.7px" xmlns="http://www.w3.org/2000/svg">
  <g transform="matrix(1.0, 0.0, 0.0, 1.0, -3.0, 10.0)">
    <path d="M8.85 -6.1 Q8.85 -5.9 8.75 -5.75 8.7 -5.6 8.7 -5.5 L8.7 -5.45 8.45 -5.45 Q8.2 -5.45 8.05 -5.55 L7.85 -5.75 7.85 -5.9 Q7.85 -6.6 8.35 -6.5 8.55 -6.5 8.7 -6.35 8.85 -6.2 8.85 -6.1 M20.05 -2.1 Q20.45 -2.1 20.7 -1.75 20.5 -1.4 20.35 -1.35 L20.0 -1.3 19.7 -1.3 19.45 -1.35 19.4 -1.5 Q19.4 -1.65 19.4 -1.85 19.4 -2.2 19.45 -2.1 L20.05 -2.1" fill="#ffffff" fill-opacity="0.5019608" fill-rule="evenodd" stroke="none"/>
    <path d="M3.45 -9.75 Q3.4 -9.65 3.3 -9.55 L3.05 -9.6 Q3.0 -9.7 3.0 -9.95 L3.35 -9.95 Q3.45 -9.85 3.45 -9.75 M8.8 -5.75 L8.8 -5.65 8.65 -5.45 8.2 -5.45 8.15 -5.4 Q8.1 -5.4 8.1 -5.65 8.1 -5.9 8.2 -5.95 L8.45 -6.05 Q8.7 -5.95 8.8 -5.75 M12.3 -8.9 L12.25 -8.7 Q12.2 -8.55 12.15 -8.55 L12.05 -8.6 Q11.9 -8.65 11.85 -8.7 12.0 -8.85 12.05 -8.85 L12.3 -8.9 M15.35 -7.85 L15.45 -7.75 Q15.45 -7.55 15.35 -7.45 L15.05 -7.45 15.0 -7.5 14.95 -7.65 15.0 -7.85 15.35 -7.85 M15.45 -2.85 L15.5 -2.7 Q15.45 -2.6 15.25 -2.5 15.05 -2.45 14.9 -2.45 L14.75 -2.55 15.05 -2.85 Q15.2 -3.0 15.35 -3.0 L15.45 -2.85 M20.0 -1.2 Q19.95 -1.2 19.95 -1.4 19.95 -1.6 19.95 -1.75 L20.0 -1.95 20.1 -2.0 20.35 -2.0 20.45 -1.9 20.5 -1.55 20.45 -1.35 20.35 -1.25 20.05 -1.25 20.0 -1.2" fill="#ffffff" fill-rule="evenodd" stroke="none"/>
  </g>
</svg>
