<?xml version="1.0" encoding="UTF-8" standalone="no"?>
<svg xmlns:ffdec="https://www.free-decompiler.com/flash" xmlns:xlink="http://www.w3.org/1999/xlink" ffdec:objectType="shape" height="9.2px" width="18.35px" xmlns="http://www.w3.org/2000/svg">
  <g transform="matrix(1.0, 0.0, 0.0, 1.0, -2.7, 9.4)">
    <path d="M10.55 -5.95 L10.5 -5.55 10.35 -5.5 10.15 -5.45 Q9.7 -5.35 9.55 -5.55 L9.5 -5.75 Q9.5 -6.05 9.75 -6.2 L10.45 -6.2 Q10.55 -6.05 10.55 -5.95 M21.0 -0.35 Q20.9 -0.2 20.5 -0.2 19.95 -0.2 19.85 -0.55 L19.8 -0.85 Q19.8 -1.2 20.0 -1.35 20.15 -1.55 20.45 -1.5 21.05 -1.5 21.05 -0.8 21.05 -0.45 21.0 -0.35" fill="#ffffff" fill-opacity="0.5019608" fill-rule="evenodd" stroke="none"/>
    <path d="M11.2 -8.45 L11.15 -8.4 Q11.1 -8.4 11.1 -8.65 11.1 -8.85 11.2 -8.9 L11.45 -8.9 11.6 -8.7 11.45 -8.55 Q11.35 -8.45 11.2 -8.45 M3.0 -9.0 L2.7 -9.15 3.0 -9.35 Q3.15 -9.5 3.15 -9.3 3.15 -9.1 3.0 -9.0 M10.45 -5.6 Q10.4 -5.5 10.3 -5.45 L10.05 -5.45 Q10.0 -5.55 10.0 -5.8 L10.15 -5.85 10.35 -5.8 Q10.45 -5.7 10.45 -5.6 M15.55 -9.2 L15.75 -9.05 15.8 -8.9 15.75 -8.75 Q15.7 -8.7 15.55 -8.65 L15.3 -8.65 Q15.2 -8.65 15.2 -8.9 15.2 -9.1 15.3 -9.15 L15.45 -9.2 15.55 -9.2 M17.25 -4.8 L17.05 -4.75 Q16.95 -4.85 16.95 -5.3 L17.1 -5.3 17.4 -5.2 17.35 -5.0 17.25 -4.8 M20.8 -0.85 L20.6 -0.65 Q20.4 -0.4 20.2 -0.45 L20.15 -0.4 Q20.1 -0.4 20.1 -0.65 20.1 -0.85 20.3 -0.95 L20.65 -0.95 20.8 -0.85" fill="#ffffff" fill-rule="evenodd" stroke="none"/>
  </g>
</svg>
