<?xml version="1.0" encoding="UTF-8" standalone="no"?>
<svg xmlns:ffdec="https://www.free-decompiler.com/flash" xmlns:xlink="http://www.w3.org/1999/xlink" ffdec:objectType="shape" height="6.45px" width="33.4px" xmlns="http://www.w3.org/2000/svg">
  <g transform="matrix(1.0, 0.0, 0.0, 1.0, 15.8, 3.05)">
    <path d="M14.4 -2.15 L14.55 -2.3 14.7 -2.3 Q14.8 -2.3 14.85 -2.35 14.95 -2.4 15.05 -2.4 L15.2 -2.55 15.3 -2.6 15.45 -2.65 15.7 -2.65 15.8 -2.5 Q15.85 -2.55 16.0 -2.4 L16.1 -2.4 16.25 -2.65 Q16.3 -2.75 16.75 -2.7 16.8 -2.6 16.95 -2.55 L17.25 -2.5 Q17.5 -2.3 17.6 -2.0 L17.6 -1.45 Q17.6 -1.3 17.5 -1.1 L17.45 -0.9 Q17.4 -0.8 17.25 -0.8 L17.15 -0.8 Q17.1 -0.75 17.0 -0.75 16.95 -0.75 16.8 -0.6 16.65 -0.45 16.65 -0.4 16.65 -0.35 16.75 -0.3 L16.85 -0.2 16.9 -0.25 17.0 -0.25 Q17.15 -0.25 17.2 0.1 17.2 0.2 17.05 0.4 L16.75 0.75 16.6 0.85 Q16.5 0.85 16.45 0.9 L16.35 1.05 15.85 1.05 15.7 1.1 15.5 1.15 Q15.4 1.15 15.3 1.05 L15.4 1.0 15.45 0.9 Q15.45 0.75 15.35 0.6 L15.4 0.55 Q15.35 0.5 15.25 0.5 15.15 0.4 15.15 0.3 15.15 0.2 15.3 0.0 15.5 -0.25 15.7 -0.25 15.65 -0.4 15.65 -0.5 15.7 -0.6 15.8 -0.65 L15.9 -0.65 16.05 -0.7 Q16.15 -0.7 16.2 -0.75 L16.2 -1.05 16.05 -1.15 Q15.95 -1.2 15.95 -1.25 L16.0 -1.35 Q15.9 -1.6 15.65 -1.6 14.95 -1.6 14.95 -1.5 L14.95 -1.45 14.8 -1.45 Q14.75 -1.45 14.7 -1.5 L14.5 -1.7 14.4 -1.9 Q14.35 -1.95 14.35 -2.05 L14.4 -2.15 M12.3 -0.05 L12.4 0.2 12.4 0.3 12.55 0.4 Q12.7 0.55 12.75 0.7 L12.85 0.95 12.9 1.1 Q12.9 1.3 12.7 1.5 12.45 1.7 12.05 1.75 11.95 1.65 11.95 1.6 L12.0 1.6 Q12.0 1.5 11.75 1.3 11.5 1.1 11.25 1.1 10.8 1.1 10.65 1.35 10.5 1.6 10.25 1.65 10.1 1.65 10.0 1.55 9.9 1.45 9.9 1.35 9.9 1.3 10.0 1.3 L10.05 1.25 Q9.9 1.2 9.85 1.1 L9.85 1.0 Q9.8 0.9 9.8 0.8 9.8 0.75 9.9 0.6 L10.25 0.25 Q10.15 0.15 10.3 0.1 L10.6 0.0 10.75 0.0 10.9 0.05 11.15 0.05 11.45 -0.25 11.95 -0.25 Q11.95 -0.2 12.05 -0.15 12.2 -0.05 12.3 -0.05 M8.85 0.65 Q9.8 0.65 9.8 1.2 L9.8 1.3 Q9.75 1.35 9.7 1.35 L9.75 1.65 9.65 1.95 Q9.6 1.95 9.55 2.0 L9.4 1.95 9.3 1.85 9.0 1.75 8.6 1.8 8.35 1.9 8.25 2.0 Q8.1 1.95 7.95 1.85 7.8 1.75 7.65 1.7 L7.6 1.5 7.65 1.45 7.75 1.25 7.7 1.25 7.7 1.1 7.75 1.0 Q7.75 0.9 8.05 0.85 L8.8 0.75 Q8.8 0.7 8.85 0.65 M6.1 0.65 Q6.75 0.65 6.95 1.0 7.05 1.15 7.0 1.35 L7.0 1.6 6.9 1.65 6.8 1.75 6.75 1.75 6.75 1.95 6.8 2.1 Q6.8 2.25 6.6 2.55 6.35 2.85 6.05 2.8 L5.8 2.8 Q5.7 2.6 5.6 2.4 5.3 2.1 4.9 2.1 L4.75 2.1 4.6 2.15 4.4 2.15 Q4.35 2.15 4.25 2.2 4.15 2.25 4.05 2.25 4.0 2.35 4.0 2.45 4.0 2.75 3.75 2.85 L3.3 3.1 Q2.9 3.05 2.8 2.95 2.7 2.85 2.75 2.8 L2.85 2.8 Q2.85 2.7 2.65 2.5 L2.4 2.35 2.2 2.35 2.0 2.45 Q1.95 2.45 1.9 2.55 L1.85 2.65 Q1.85 2.7 1.9 2.75 L1.95 2.8 1.75 2.8 1.55 2.7 Q1.4 2.6 1.4 2.5 1.4 2.45 1.45 2.2 1.5 2.05 1.5 1.95 L1.6 1.95 Q1.65 1.9 1.7 1.8 L1.7 1.7 2.0 1.55 Q2.25 1.45 2.6 1.45 2.9 1.45 3.1 1.55 3.25 1.65 3.25 1.7 L3.15 1.85 Q3.1 2.0 3.1 2.05 L3.1 2.15 3.2 2.15 3.45 2.25 3.6 2.2 3.65 2.15 3.75 2.0 3.75 1.95 Q3.65 1.9 3.6 1.85 L3.5 1.75 Q3.45 1.6 3.45 1.55 3.45 1.5 3.75 1.15 L3.9 1.1 4.0 0.9 Q4.05 0.8 4.2 0.8 4.6 0.8 4.8 1.0 L4.9 1.0 4.95 1.1 5.05 1.15 5.2 1.15 5.35 1.1 5.45 1.0 5.35 0.9 5.35 0.85 5.4 0.7 Q5.4 0.6 5.45 0.6 L5.85 0.6 6.1 0.65 M-14.5 -3.05 L-14.35 -2.9 Q-14.25 -2.8 -14.25 -2.7 L-14.0 -2.65 -13.9 -2.6 Q-13.8 -2.6 -13.75 -2.7 L-13.7 -2.8 Q-13.3 -2.55 -13.3 -2.45 L-13.3 -2.2 Q-13.2 -1.7 -13.2 -1.6 L-13.2 -1.45 Q-13.25 -1.4 -13.4 -1.4 -13.5 -1.35 -13.5 -1.25 L-13.5 -1.05 Q-13.6 -1.05 -13.65 -0.95 L-13.65 -0.8 Q-13.65 -0.75 -13.7 -0.7 L-13.9 -0.55 -14.1 -0.55 -14.15 -0.7 -14.3 -0.7 Q-14.4 -0.6 -14.5 -0.15 L-14.5 -0.05 -14.3 0.0 -14.15 0.15 -13.95 0.2 -13.7 0.05 Q-13.55 -0.05 -13.55 -0.15 L-13.6 -0.15 -13.7 -0.25 -13.7 -0.4 Q-13.7 -0.5 -13.65 -0.6 L-13.45 -0.65 Q-13.4 -0.7 -13.4 -0.85 -13.4 -0.9 -13.25 -0.95 L-12.95 -0.95 Q-12.9 -0.9 -12.75 -0.9 -12.7 -0.85 -12.6 -0.6 -12.5 -0.35 -12.5 -0.25 -12.5 -0.15 -12.6 -0.05 -12.7 0.1 -12.9 0.1 L-13.1 0.6 -12.95 0.95 Q-12.95 1.0 -13.0 1.05 -13.1 1.1 -13.1 1.2 L-13.05 1.3 Q-13.05 1.4 -13.15 1.4 L-13.55 1.4 -13.65 1.15 Q-13.7 1.05 -13.9 0.95 L-14.05 0.8 Q-14.15 0.65 -14.25 0.65 -14.4 0.65 -14.35 0.65 -14.35 0.75 -14.45 0.75 L-14.85 0.8 Q-14.9 0.8 -15.05 0.55 L-15.2 0.55 -15.35 0.4 -15.25 0.2 Q-15.25 0.15 -15.45 -0.05 -15.65 -0.25 -15.65 -0.4 -15.65 -0.7 -15.45 -0.8 -15.25 -0.9 -15.25 -1.05 -15.25 -1.2 -15.4 -1.4 L-15.6 -1.3 -15.75 -1.65 Q-15.8 -1.7 -15.8 -1.9 L-15.7 -2.25 -15.55 -2.4 -15.4 -2.45 Q-15.35 -2.45 -15.3 -2.5 L-15.1 -2.8 Q-14.9 -3.05 -14.5 -3.05 M-2.8 1.7 Q-2.8 1.8 -2.85 1.8 L-2.95 1.8 -3.05 1.95 -3.1 2.15 -3.1 2.2 -2.85 2.2 Q-2.75 2.1 -2.7 1.8 -2.7 1.55 -2.45 1.55 L-1.65 1.6 -1.55 1.65 -1.25 2.05 Q-1.1 2.3 -1.1 2.45 L-1.2 2.65 -1.1 2.85 -1.1 3.05 Q-1.15 3.1 -1.25 3.2 L-1.65 3.3 -1.75 3.35 -1.8 3.35 -1.95 3.4 -2.05 3.35 -2.15 3.35 -2.15 3.1 -2.1 2.9 -2.1 2.8 -2.3 2.8 -2.6 2.6 Q-2.7 2.6 -2.9 2.75 L-3.15 2.85 Q-3.2 2.85 -3.25 2.8 L-3.4 2.7 -3.45 2.6 -3.45 2.45 -3.4 2.35 Q-3.4 2.2 -3.55 2.1 -3.7 2.0 -4.1 2.0 L-4.6 2.05 -4.75 2.2 -4.9 2.3 -5.15 2.25 -5.15 2.1 -5.05 2.0 Q-5.05 1.95 -5.2 1.7 L-5.25 1.7 -5.4 1.45 -5.4 1.3 Q-5.35 1.25 -5.3 1.2 L-5.15 1.25 -5.05 1.2 Q-4.85 0.8 -4.45 0.85 L-3.75 0.9 -3.2 0.95 -2.8 1.25 Q-2.7 1.35 -2.7 1.5 -2.7 1.6 -2.8 1.7 M-5.6 1.55 L-5.5 1.65 -5.5 1.75 Q-5.5 1.8 -5.6 1.95 -5.5 2.0 -5.4 2.1 L-5.3 2.1 Q-5.2 2.2 -5.2 2.25 -5.2 2.35 -5.4 2.45 L-5.75 2.5 Q-5.85 2.5 -5.95 2.65 L-6.0 2.75 -5.95 2.85 -5.9 2.9 -5.9 3.0 -6.25 3.05 -6.55 3.05 -6.6 2.9 -6.9 2.9 -7.1 2.75 Q-7.2 2.65 -7.2 2.55 -7.2 2.45 -7.3 2.35 L-7.35 2.15 Q-7.35 2.05 -7.2 1.9 -7.1 1.85 -7.1 1.8 L-7.15 1.7 Q-7.15 1.55 -6.9 1.4 -6.6 1.25 -6.3 1.35 L-6.2 1.35 -6.1 1.25 -5.85 1.3 Q-5.8 1.35 -5.75 1.5 L-5.6 1.55 M-9.85 0.7 L-9.75 0.65 Q-9.7 0.7 -9.6 0.8 -9.4 0.85 -9.4 1.5 -9.4 1.65 -9.55 1.85 -9.75 2.05 -9.85 2.05 L-10.05 2.05 -10.2 1.95 -10.2 1.85 -10.15 1.85 -10.2 1.7 Q-10.2 1.6 -10.15 1.55 L-9.95 1.5 Q-9.9 1.4 -9.9 1.3 -9.9 1.15 -10.05 1.0 -10.25 0.75 -10.5 0.85 L-10.55 0.8 Q-10.55 0.75 -10.35 0.65 -10.1 0.65 -9.9 0.8 L-9.85 0.7 M-10.85 1.1 Q-10.85 0.8 -10.5 0.95 L-10.5 1.0 -10.6 1.0 -10.6 1.1 Q-10.6 1.2 -10.7 1.3 L-10.9 1.3 -11.0 1.45 -11.05 1.4 -11.05 1.2 Q-10.95 1.15 -10.85 1.1 M-10.95 1.65 L-10.8 1.65 -10.8 1.7 Q-10.8 1.8 -10.8 1.75 L-10.9 1.8 -10.95 1.8 -10.95 1.65" fill="#311d2c" fill-opacity="0.2" fill-rule="evenodd" stroke="none"/>
  </g>
</svg>
