<?xml version="1.0" encoding="UTF-8" standalone="no"?>
<svg xmlns:ffdec="https://www.free-decompiler.com/flash" xmlns:xlink="http://www.w3.org/1999/xlink" ffdec:objectType="shape" height="5.55px" width="11.15px" xmlns="http://www.w3.org/2000/svg">
  <g transform="matrix(1.0, 0.0, 0.0, 1.0, -6.05, 6.75)">
    <path d="M9.65 -4.45 Q9.75 -4.4 9.75 -4.3 9.75 -4.15 9.7 -4.05 L9.65 -3.95 9.65 -3.9 9.5 -3.9 Q9.35 -3.9 9.25 -3.95 L9.1 -4.1 9.1 -4.2 Q9.1 -4.6 9.45 -4.55 9.55 -4.55 9.65 -4.45 M16.8 -1.8 Q17.05 -1.75 17.2 -1.55 17.1 -1.35 16.95 -1.3 L16.75 -1.25 16.55 -1.3 16.4 -1.3 16.4 -1.6 Q16.4 -1.85 16.4 -1.8 L16.8 -1.8" fill="#ffd327" fill-opacity="0.5019608" fill-rule="evenodd" stroke="none"/>
    <path d="M9.7 -4.1 L9.7 -4.0 9.6 -3.9 9.3 -3.9 9.3 -3.85 Q9.25 -3.9 9.25 -4.0 9.25 -4.15 9.3 -4.2 L9.5 -4.25 Q9.65 -4.2 9.7 -4.1 M6.1 -6.5 Q6.05 -6.6 6.05 -6.7 L6.15 -6.75 6.3 -6.75 6.35 -6.6 6.25 -6.5 6.1 -6.5 M13.9 -5.35 Q13.9 -5.2 13.85 -5.15 L13.65 -5.15 13.6 -5.2 Q13.6 -5.25 13.6 -5.3 L13.6 -5.4 13.85 -5.4 13.9 -5.35 M11.75 -6.05 L11.95 -6.05 11.9 -5.95 11.8 -5.85 11.75 -5.85 Q11.65 -5.9 11.65 -5.95 L11.75 -6.05 M13.95 -2.15 L13.75 -2.05 13.55 -2.0 13.45 -2.05 13.65 -2.25 Q13.75 -2.35 13.85 -2.35 L13.95 -2.15 M17.1 -1.45 L17.05 -1.3 17.0 -1.25 16.8 -1.25 16.75 -1.2 Q16.7 -1.2 16.7 -1.35 16.7 -1.5 16.75 -1.55 L16.75 -1.7 17.0 -1.7 17.05 -1.65 17.1 -1.45" fill="#ffd327" fill-rule="evenodd" stroke="none"/>
  </g>
</svg>
