<?xml version="1.0" encoding="UTF-8" standalone="no"?>
<svg xmlns:ffdec="https://www.free-decompiler.com/flash" xmlns:xlink="http://www.w3.org/1999/xlink" ffdec:objectType="shape" height="5.8px" width="11.55px" xmlns="http://www.w3.org/2000/svg">
  <g transform="matrix(1.0, 0.0, 0.0, 1.0, -5.9, 6.4)">
    <path d="M10.7 -3.95 L10.55 -3.9 Q10.25 -3.85 10.2 -3.95 L10.15 -4.1 Q10.15 -4.25 10.3 -4.35 L10.75 -4.4 10.85 -4.2 10.8 -3.95 10.7 -3.95 M16.65 -0.8 L16.65 -1.0 Q16.65 -1.2 16.75 -1.35 16.85 -1.45 17.05 -1.4 17.45 -1.4 17.45 -0.95 17.45 -0.75 17.4 -0.7 17.35 -0.6 17.1 -0.6 16.75 -0.6 16.65 -0.8" fill="#ffd327" fill-opacity="0.5019608" fill-rule="evenodd" stroke="none"/>
    <path d="M11.15 -5.9 Q11.15 -6.05 11.25 -6.05 L11.4 -6.05 11.5 -5.95 11.4 -5.85 Q11.3 -5.8 11.2 -5.75 11.15 -5.75 11.15 -5.9 M10.55 -4.15 L10.7 -4.15 10.75 -4.0 10.65 -3.9 10.5 -3.9 Q10.45 -3.95 10.45 -4.1 L10.55 -4.15 M5.9 -6.2 L6.05 -6.35 Q6.15 -6.45 6.15 -6.3 6.15 -6.2 6.05 -6.15 L6.0 -6.15 5.9 -6.2 M15.1 -3.75 L15.1 -3.6 15.05 -3.5 14.9 -3.45 Q14.85 -3.5 14.85 -3.8 L14.95 -3.8 15.1 -3.75 M13.95 -6.25 L14.1 -6.15 14.1 -5.95 13.95 -5.9 13.8 -5.9 Q13.75 -5.9 13.75 -6.05 13.75 -6.2 13.8 -6.25 L13.95 -6.25 M16.85 -0.75 L16.85 -0.7 Q16.85 -0.75 16.85 -0.85 16.85 -1.0 16.95 -1.05 L17.15 -1.05 17.25 -1.0 17.15 -0.85 Q17.0 -0.75 16.85 -0.75" fill="#ffd327" fill-rule="evenodd" stroke="none"/>
  </g>
</svg>
