<?xml version="1.0" encoding="UTF-8" standalone="no"?>
<svg xmlns:ffdec="https://www.free-decompiler.com/flash" xmlns:xlink="http://www.w3.org/1999/xlink" ffdec:objectType="shape" height="6.4px" width="11.45px" xmlns="http://www.w3.org/2000/svg">
  <g transform="matrix(1.0, 0.0, 0.0, 1.0, -5.75, 6.95)">
    <path d="M11.95 -4.85 Q12.15 -5.05 12.4 -4.95 12.4 -4.75 12.3 -4.6 12.1 -4.35 11.8 -4.45 L11.75 -4.45 11.75 -4.6 Q11.75 -4.7 11.95 -4.85 M16.75 -0.55 L16.5 -0.55 16.4 -0.6 16.4 -0.85 Q16.4 -1.2 16.75 -1.05 17.1 -0.9 17.2 -0.75 17.2 -0.7 17.05 -0.6 16.9 -0.55 16.75 -0.55" fill="#ffd327" fill-opacity="0.5019608" fill-rule="evenodd" stroke="none"/>
    <path d="M5.75 -5.65 L5.75 -5.8 Q6.0 -5.8 6.05 -5.7 L6.05 -5.6 5.75 -5.6 5.75 -5.65 M10.85 -5.8 L10.85 -5.7 Q10.7 -5.55 10.6 -5.55 L10.55 -5.55 Q10.5 -5.55 10.5 -5.7 10.5 -5.9 10.8 -5.95 L10.85 -5.95 10.85 -5.8 M16.7 -5.45 L16.65 -5.3 Q16.55 -5.15 16.4 -5.1 L16.35 -5.15 16.3 -5.25 Q16.35 -5.3 16.5 -5.4 L16.7 -5.45 M14.85 -6.85 L14.85 -6.75 14.75 -6.65 Q14.65 -6.6 14.6 -6.6 L14.55 -6.65 Q14.55 -6.7 14.55 -6.8 L14.55 -6.95 14.6 -6.9 Q14.8 -6.9 14.85 -6.85 M12.1 -4.85 Q12.2 -4.95 12.3 -4.95 12.4 -4.9 12.4 -4.7 12.35 -4.6 12.2 -4.6 12.1 -4.65 12.05 -4.75 12.05 -4.8 12.1 -4.85 M16.45 -0.75 L16.4 -0.85 Q16.5 -0.95 16.55 -0.95 L16.7 -1.0 16.75 -0.9 16.75 -0.75 16.45 -0.75" fill="#ffd327" fill-rule="evenodd" stroke="none"/>
  </g>
</svg>
