<?xml version="1.0" encoding="UTF-8" standalone="no"?>
<svg xmlns:ffdec="https://www.free-decompiler.com/flash" xmlns:xlink="http://www.w3.org/1999/xlink" ffdec:objectType="shape" height="6.85px" width="12.65px" xmlns="http://www.w3.org/2000/svg">
  <g transform="matrix(1.0, 0.0, 0.0, 1.0, -6.3, 7.6)">
    <path d="M16.2 -0.8 L16.15 -0.8 16.1 -0.9 Q16.1 -0.95 16.1 -1.05 16.1 -1.35 16.35 -1.25 16.6 -1.15 16.7 -0.9 L16.65 -0.8 Q16.55 -0.75 16.4 -0.75 L16.2 -0.8" fill="#ffd327" fill-opacity="0.5019608" fill-rule="evenodd" stroke="none"/>
    <path d="M10.0 -6.25 L10.1 -6.25 10.25 -6.2 10.3 -6.05 Q10.25 -6.0 10.2 -5.95 L10.05 -5.95 Q10.0 -6.05 10.0 -6.25 M6.55 -5.65 L6.6 -5.6 6.5 -5.5 6.35 -5.45 6.3 -5.6 Q6.35 -5.65 6.55 -5.65 M14.95 -7.55 Q15.05 -7.55 15.05 -7.5 15.05 -7.3 14.95 -7.2 L14.8 -7.2 Q14.75 -7.25 14.75 -7.35 14.75 -7.5 14.8 -7.55 L14.85 -7.6 14.95 -7.55 M13.35 -6.3 L13.55 -6.3 13.6 -6.15 13.45 -5.95 13.35 -6.0 13.35 -6.3 M16.3 -0.95 L16.2 -1.0 16.15 -1.1 Q16.15 -1.2 16.35 -1.25 L16.45 -1.15 16.3 -0.95 M18.85 -6.3 L18.95 -6.2 Q18.9 -6.15 18.7 -6.1 L18.4 -6.15 18.5 -6.3 18.85 -6.3" fill="#ffd327" fill-rule="evenodd" stroke="none"/>
  </g>
</svg>
