<?xml version="1.0" encoding="UTF-8" standalone="no"?>
<svg xmlns:ffdec="https://www.free-decompiler.com/flash" xmlns:xlink="http://www.w3.org/1999/xlink" ffdec:objectType="shape" height="35.7px" width="13.5px" xmlns="http://www.w3.org/2000/svg">
  <g transform="matrix(1.0, 0.0, 0.0, 1.0, 8.95, 18.2)">
    <path d="M-0.05 7.25 L-0.1 7.35 -0.05 7.3 -0.05 7.25 M-1.0 8.15 L-1.0 8.15 M-3.75 12.2 L-3.7 12.25 -3.95 12.5 -3.75 12.2" fill="#ffffff" fill-opacity="0.6" fill-rule="evenodd" stroke="none"/>
    <path d="M-3.6 -3.65 L-3.6 -3.6 -3.65 -2.4 -3.75 -1.8 Q-3.75 -1.15 -4.2 1.15 L-4.1 0.5 -4.05 -0.1 -4.0 -0.65 -3.9 -1.1 -3.9 -1.2 -3.8 -2.3 -3.7 -3.2 -3.75 -4.05 Q-3.75 -4.25 -3.8 -4.55 L-3.9 -5.0 -3.85 -5.05 -3.7 -4.55 -3.7 -4.05 Q-3.65 -3.75 -3.6 -3.65 M-0.4 5.65 L0.1 3.8 0.4 2.85 0.55 2.35 Q0.45 2.8 0.1 4.1 L-0.35 5.5 -0.4 5.65 M-0.1 7.35 L-0.3 7.55 -0.9 8.2 -1.0 8.2 -1.0 8.15 -1.0 8.05 Q-1.0 7.85 -0.75 7.15 L-0.5 6.55 -0.45 6.5 -0.4 6.4 -0.25 6.0 -0.25 5.95 -0.1 5.55 -0.05 5.45 -0.1 5.65 -0.7 7.45 -0.9 8.0 Q-0.65 7.85 -0.3 7.45 L-0.15 7.3 0.25 6.9 -0.05 7.25 -0.05 7.3 -0.1 7.35 M1.25 0.1 Q1.45 -0.95 1.55 -1.7 1.65 -2.25 1.6 -2.65 L1.55 -3.5 Q1.55 -3.85 1.7 -3.95 L1.8 -4.25 2.05 -5.1 2.2 -5.75 2.1 -5.2 1.8 -4.15 1.85 -4.05 1.8 -3.9 Q1.75 -3.85 1.65 -3.7 L1.6 -3.55 Q1.6 -3.5 1.65 -3.45 L1.65 -3.35 1.65 -3.25 Q1.65 -2.7 1.7 -2.4 L1.65 -2.0 1.6 -1.3 1.6 -1.15 1.45 -0.4 Q1.3 0.0 1.2 0.6 L1.0 1.4 Q0.9 1.5 0.85 1.75 L1.15 0.55 1.3 0.05 1.25 0.1 M2.35 -6.4 L2.35 -6.5 2.45 -6.75 2.4 -6.6 2.35 -6.15 2.25 -6.0 2.35 -6.4 M4.55 -1.45 L4.55 -1.45 M4.45 -1.1 L4.45 -1.1 M-4.95 4.55 L-4.95 4.85 -5.05 5.55 Q-5.05 5.7 -5.35 7.4 L-5.35 7.45 -5.45 7.85 -5.45 7.95 -5.55 8.35 Q-5.7 8.85 -5.7 9.25 L-5.7 9.3 -5.75 9.6 Q-5.75 9.75 -6.4 11.9 L-6.65 13.1 -6.75 13.45 -5.05 13.5 Q-4.25 12.6 -3.75 12.2 L-3.95 12.5 -4.45 13.1 -5.3 14.0 -6.0 14.9 -6.7 15.7 Q-6.85 15.9 -7.15 16.05 L-7.15 16.1 -7.3 16.25 -7.4 16.3 -8.5 17.15 -8.95 17.5 -8.8 17.2 -7.8 16.0 -7.8 15.95 -7.55 15.45 -7.5 15.4 -7.4 14.95 -7.3 14.45 -7.15 14.0 -7.1 13.9 -7.0 13.5 -6.95 13.35 -6.85 13.1 -6.55 11.75 -6.35 11.05 -6.2 10.65 -6.15 10.35 -5.95 9.65 -5.95 9.6 -5.9 9.3 -5.8 8.8 -5.8 8.75 -5.75 8.75 -5.65 8.25 -5.55 7.6 -5.5 7.3 -4.95 4.55 M-2.4 10.65 L-2.5 10.8 -2.55 10.8 Q-2.2 10.45 -1.95 9.75 L-1.9 9.7 -1.65 9.05 -1.55 8.7 -1.45 8.55 -1.3 8.35 -1.3 8.4 -1.35 8.55 -1.4 8.65 -1.6 9.05 Q-1.85 9.65 -1.85 9.85 -1.85 10.0 -2.4 10.65" fill="#ffffff" fill-opacity="0.8" fill-rule="evenodd" stroke="none"/>
    <path d="M-0.35 5.5 L-0.4 5.65 -0.35 5.5 M2.85 -6.95 L2.85 -7.0 2.9 -6.95 2.85 -6.95 M-0.05 7.25 L-0.05 7.3 -0.05 7.25 M0.35 7.1 L0.35 7.1" fill="#ffffff" fill-opacity="0.4" fill-rule="evenodd" stroke="none"/>
    <path d="M-7.35 -18.15 Q-6.6 -17.25 -5.75 -15.9 L-5.2 -14.75 Q-4.75 -13.9 -4.7 -13.7 L-4.45 -12.75 -4.45 -12.7 -4.4 -12.6 -4.4 -12.5 -4.35 -12.35 Q-4.25 -12.2 -4.25 -12.0 -3.85 -9.95 -3.85 -9.65 L-3.8 -8.95 Q-3.75 -8.35 -3.75 -7.95 L-3.75 -7.9 Q-3.7 -7.45 -3.7 -7.15 L-3.65 -5.75 -3.55 -3.65 -3.6 -3.6 -3.6 -3.65 Q-3.65 -3.75 -3.7 -4.05 L-3.7 -4.55 -3.85 -5.05 -3.9 -5.0 -3.8 -4.55 Q-3.75 -4.25 -3.75 -4.05 L-3.7 -3.2 -3.8 -2.3 -3.8 -3.2 Q-3.8 -3.55 -4.05 -6.8 L-4.35 -10.9 Q-4.45 -12.2 -4.8 -13.45 L-5.0 -13.95 Q-5.2 -14.4 -5.2 -14.45 L-5.6 -15.25 Q-5.8 -15.65 -6.0 -16.0 L-6.55 -16.9 -7.0 -17.55 Q-7.0 -17.6 -7.5 -18.2 L-7.35 -18.2 -7.35 -18.15 M-4.7 3.65 Q-4.55 3.2 -4.5 3.25 -4.65 3.7 -4.75 4.5 L-4.85 5.8 Q-4.95 6.7 -5.05 7.1 L-5.3 8.35 -5.35 8.5 -4.45 8.35 Q-2.7 8.0 -1.25 7.65 L-1.1 7.2 -0.6 5.95 -0.55 5.95 -0.55 6.0 -0.7 6.6 -0.9 7.25 -1.05 7.55 -1.3 8.4 -1.3 8.35 -1.45 8.55 -1.55 8.7 -1.65 9.05 Q-1.8 9.3 -1.85 9.55 L-1.9 9.7 -1.95 9.75 Q-2.2 10.45 -2.55 10.8 L-2.5 10.8 -2.4 10.65 -2.8 11.3 -3.7 12.25 -3.75 12.2 Q-4.25 12.6 -5.05 13.5 L-6.75 13.45 -6.65 13.1 -6.4 11.9 Q-5.75 9.75 -5.75 9.6 L-5.7 9.3 -5.7 9.25 Q-5.7 8.85 -5.55 8.35 L-5.45 7.95 -5.45 7.85 -5.35 7.45 -5.35 7.4 Q-5.05 5.7 -5.05 5.55 L-4.95 4.85 -4.95 4.55 -4.8 3.9 -4.7 3.65 M2.65 -7.4 L2.65 -7.35 2.55 -6.45 2.5 -6.2 2.4 -5.75 2.45 -5.85 2.65 -6.8 2.7 -6.65 2.6 -6.1 2.55 -5.7 2.35 -4.8 2.05 -3.8 2.05 -3.75 1.95 -3.35 2.05 -2.8 2.0 -2.05 Q1.75 -1.2 1.75 -1.0 1.75 -0.8 1.65 -0.5 L1.6 -0.35 1.35 0.5 1.3 0.5 1.45 -0.15 1.4 -0.1 1.45 -0.4 1.6 -1.15 1.6 -1.3 1.65 -2.0 1.7 -2.4 Q1.65 -2.7 1.65 -3.25 L1.65 -3.35 1.7 -3.45 1.65 -3.45 Q1.6 -3.5 1.6 -3.55 L1.65 -3.7 Q1.75 -3.85 1.8 -3.9 L1.85 -3.95 1.85 -4.05 1.8 -4.15 2.1 -5.2 2.2 -5.75 2.25 -6.0 2.35 -6.15 2.4 -6.6 2.45 -6.75 2.6 -7.3 2.65 -7.4 M0.45 3.3 L0.45 3.25 Q0.45 3.1 0.65 2.35 L0.7 2.2 0.85 1.75 Q0.9 1.5 1.0 1.4 L1.0 1.3 Q1.0 1.7 0.85 2.35 0.7 2.95 0.7 3.3 L0.7 3.15 Q0.8 2.85 0.9 2.75 L0.6 4.25 0.45 4.85 0.2 5.45 0.05 6.05 -0.1 6.35 -0.15 6.5 Q-0.15 6.55 -0.35 7.1 L-0.4 7.4 -0.15 7.3 -0.3 7.45 Q-0.65 7.85 -0.9 8.0 L-0.7 7.45 -0.1 5.65 -0.05 5.45 Q0.45 3.8 0.45 3.3 M0.6 3.7 L0.6 3.7 M-5.75 8.75 L-5.8 8.75 -5.75 8.75 M-5.8 8.8 L-5.9 9.3 -5.95 9.6 -5.95 9.65 -6.15 10.35 -6.2 10.65 -5.8 8.95 -5.8 8.8 M-1.35 8.55 L-1.4 8.6 -1.4 8.65 -1.35 8.55" fill="#adffff" fill-opacity="0.7019608" fill-rule="evenodd" stroke="none"/>
    <path d="M-7.35 -18.15 Q-1.85 -17.7 2.35 -14.25 L2.45 -14.15 2.75 -13.7 2.9 -13.25 3.05 -12.85 Q3.2 -12.4 3.2 -12.05 L2.95 -10.05 Q2.95 -9.8 2.7 -8.6 L2.55 -7.75 2.55 -7.7 1.9 -5.35 Q1.4 -3.45 1.4 -3.3 L1.4 -2.85 1.5 -2.05 Q1.5 -1.85 1.4 -1.55 L1.3 -1.05 1.2 -0.6 1.2 -0.55 1.15 -0.5 1.15 -0.3 1.1 -0.05 0.85 0.75 0.6 1.8 0.6 2.05 0.55 2.35 0.4 2.85 0.1 3.8 -0.4 5.65 -0.45 5.85 -0.7 6.6 -0.55 6.0 -0.55 5.95 -0.6 5.95 -1.1 7.2 -1.25 7.65 Q-2.7 8.0 -4.45 8.35 L-5.35 8.5 -5.3 8.35 -5.05 7.1 Q-4.95 6.7 -4.85 5.8 L-4.75 4.5 Q-4.65 3.7 -4.5 3.25 -4.55 3.2 -4.7 3.65 L-4.7 3.55 -4.55 2.85 -4.55 2.9 -4.5 2.75 -4.5 2.7 Q-4.25 1.15 -4.05 -0.1 L-4.1 0.5 -4.2 1.15 Q-3.75 -1.15 -3.75 -1.8 L-3.65 -2.4 -3.6 -3.6 -3.6 -3.65 -3.6 -3.6 -3.55 -3.65 -3.65 -5.75 -3.7 -7.15 Q-3.7 -7.45 -3.75 -7.9 L-3.75 -7.95 Q-3.75 -8.35 -3.8 -8.95 L-3.85 -9.65 Q-3.85 -9.95 -4.25 -12.0 -4.25 -12.2 -4.35 -12.35 L-4.4 -12.5 -4.4 -12.6 -4.45 -12.7 -4.45 -12.75 -4.7 -13.7 Q-4.75 -13.9 -5.2 -14.75 L-5.75 -15.9 Q-6.6 -17.25 -7.35 -18.15 M2.6 -7.3 L2.6 -7.4 2.65 -7.4 2.6 -7.3 M2.65 -7.35 L2.8 -7.15 2.85 -6.95 2.9 -6.95 Q3.25 -5.95 3.75 -3.6 4.2 -1.45 4.3 -0.8 L4.35 -0.6 4.25 0.0 Q4.2 0.5 4.2 0.75 L4.1 1.2 4.0 1.75 3.85 2.15 3.8 2.4 Q3.65 3.0 3.05 3.8 L1.7 5.35 0.5 6.7 -0.05 7.25 0.25 6.9 -0.15 7.3 -0.4 7.4 -0.35 7.1 Q-0.15 6.55 -0.15 6.5 L-0.1 6.35 0.05 6.05 0.2 5.45 0.45 4.85 0.6 4.25 0.9 2.75 Q0.8 2.85 0.7 3.15 L0.7 3.3 Q0.7 2.95 0.85 2.35 1.0 1.7 1.0 1.3 L1.0 1.4 1.2 0.6 Q1.3 0.0 1.45 -0.4 L1.4 -0.1 1.45 -0.15 1.3 0.5 1.35 0.5 1.6 -0.35 1.65 -0.5 Q1.75 -0.8 1.75 -1.0 1.75 -1.2 2.0 -2.05 L2.05 -2.8 1.95 -3.35 2.05 -3.75 2.05 -3.8 2.35 -4.8 2.55 -5.7 2.6 -6.1 2.7 -6.65 2.65 -6.8 2.45 -5.85 2.4 -5.75 2.5 -6.2 2.55 -6.45 2.65 -7.35 M-0.45 6.5 L-0.45 6.4 -0.15 5.5 0.0 5.1 0.35 3.75 0.35 3.7 0.45 3.3 Q0.45 3.8 -0.05 5.45 L-0.1 5.55 -0.25 5.95 -0.25 6.0 -0.4 6.4 -0.45 6.5 M0.7 2.2 L1.15 0.35 1.25 0.1 1.3 0.05 1.15 0.55 0.85 1.75 0.7 2.2 M1.7 -3.95 L1.85 -4.55 Q2.0 -5.0 2.05 -5.2 2.05 -5.4 2.35 -6.4 L2.25 -6.0 2.2 -5.75 2.05 -5.1 1.8 -4.25 1.7 -3.95 M1.8 -3.9 L1.85 -4.05 1.85 -3.95 1.8 -3.9 M1.65 -3.45 L1.7 -3.45 1.65 -3.35 1.65 -3.45 M0.6 3.7 L0.6 3.7 M-3.9 -1.1 L-3.9 -1.2 -3.9 -1.1 M-1.05 7.55 L-0.9 7.25 -1.05 7.55 M-5.55 7.6 L-5.65 8.25 -5.75 8.75 -5.8 8.75 -5.55 7.6" fill="#7dffff" fill-opacity="0.4" fill-rule="evenodd" stroke="none"/>
  </g>
</svg>
