<?xml version="1.0" encoding="UTF-8" standalone="no"?>
<svg xmlns:ffdec="https://www.free-decompiler.com/flash" xmlns:xlink="http://www.w3.org/1999/xlink" ffdec:objectType="shape" height="22.25px" width="25.4px" xmlns="http://www.w3.org/2000/svg">
  <g transform="matrix(1.0, 0.0, 0.0, 1.0, 11.75, 12.4)">
    <path d="M13.0 -11.4 Q13.15 -11.6 13.25 -11.9 13.35 -12.1 13.4 -12.3 L13.4 -12.35 13.45 -12.4 13.5 -12.4 13.65 -12.3 13.65 -12.2 13.6 -12.05 13.6 -11.95 13.35 -11.4 Q13.4 -11.35 13.35 -11.35 L13.05 -10.8 13.05 -10.65 12.95 -10.55 13.0 -10.55 12.75 -10.15 12.75 -10.1 Q12.45 -9.6 12.05 -8.8 11.4 -7.5 11.0 -6.85 10.5 -6.05 10.0 -5.4 L9.95 -5.25 Q9.65 -4.55 9.45 -4.25 9.2 -3.9 8.6 -3.4 8.15 -3.05 7.9 -2.8 L7.6 -2.35 7.55 -2.3 Q6.0 -1.95 4.1 -1.15 L2.8 -0.6 2.75 -0.55 2.65 -0.55 Q1.95 -0.2 1.15 0.2 L0.6 0.5 Q-0.6 1.1 -2.0 1.9 L-2.1 1.95 -2.3 2.1 Q-2.6 2.35 -3.05 2.85 L-3.5 3.25 -3.5 3.3 Q-3.95 3.65 -4.35 3.95 -4.6 4.1 -5.2 4.2 L-5.25 4.2 -5.5 4.25 Q-6.05 4.3 -6.45 4.55 -6.6 4.6 -6.7 4.7 -7.6 5.4 -8.0 5.8 -8.35 6.15 -8.65 6.45 L-9.05 6.95 -9.05 7.05 Q-9.45 7.7 -10.25 8.55 L-10.65 8.95 -10.65 9.0 Q-11.05 9.35 -11.2 9.4 -11.45 9.75 -11.55 9.85 L-11.65 9.85 Q-11.75 9.8 -11.75 9.5 L-11.75 9.45 -11.6 9.25 -11.55 9.2 -11.55 9.15 -11.5 9.05 -11.5 8.95 -11.4 8.85 -11.3 8.8 Q-11.15 8.7 -11.05 8.7 L-11.0 8.7 -10.9 8.65 -9.35 6.7 -8.85 6.2 -8.85 6.15 -8.2 5.5 Q-7.55 4.85 -6.85 4.4 L-6.6 4.25 -6.55 4.25 Q-6.05 3.95 -5.6 3.8 L-5.3 3.75 Q-4.7 3.6 -3.8 2.85 L-3.3 2.5 -3.05 2.3 -3.05 2.25 -2.5 1.8 -2.45 1.8 -2.2 1.6 -2.15 1.6 Q-1.55 1.15 -0.55 0.65 L0.45 0.15 1.0 -0.15 Q1.65 -0.55 2.5 -0.9 L2.5 -0.95 2.55 -0.95 2.55 -1.0 Q3.05 -1.5 3.8 -2.0 L5.25 -2.95 Q6.15 -3.55 6.8 -3.85 7.05 -3.95 7.35 -4.05 L7.5 -4.2 Q7.6 -4.35 7.7 -4.45 7.95 -4.6 8.6 -4.65 L8.85 -4.9 9.05 -5.25 9.2 -5.55 Q9.65 -6.35 10.0 -6.85 L10.3 -7.3 11.1 -8.35 11.5 -8.85 11.5 -8.8 11.8 -9.3 Q12.15 -9.95 12.45 -10.35 L12.7 -10.75 12.8 -10.9 12.8 -10.95 13.0 -11.4 M6.35 -8.6 Q6.15 -8.5 6.05 -8.5 L5.65 -8.55 5.3 -8.6 5.25 -8.6 Q5.05 -8.65 5.1 -8.75 L5.1 -8.8 Q5.1 -8.85 5.15 -8.85 L5.7 -8.85 Q5.7 -8.9 5.75 -8.9 L6.65 -9.0 6.7 -9.0 Q6.75 -9.0 7.1 -8.75 L7.1 -8.55 7.05 -8.55 7.0 -8.5 6.75 -8.6 6.75 -8.65 6.65 -8.65 6.35 -8.6 M7.6 -8.7 L7.7 -8.9 7.75 -8.95 8.6 -9.25 Q9.15 -9.5 9.25 -9.55 L9.3 -9.55 Q9.5 -9.55 9.5 -9.45 L9.55 -9.4 9.45 -9.3 8.75 -9.0 Q8.1 -8.7 7.85 -8.6 L7.7 -8.6 Q7.65 -8.6 7.65 -8.65 L7.6 -8.7 M4.5 -8.95 Q4.45 -8.9 4.35 -8.85 L4.05 -8.8 Q3.9 -8.8 3.6 -9.15 L3.25 -9.45 3.05 -9.45 Q2.9 -9.45 2.85 -9.55 L2.85 -9.6 Q2.85 -9.65 2.9 -9.7 L2.95 -9.7 2.95 -9.75 3.0 -9.75 3.0 -9.8 3.05 -9.8 Q3.45 -9.8 3.8 -9.35 4.0 -9.1 4.3 -9.25 L4.4 -9.25 4.5 -9.1 4.55 -9.05 4.55 -9.0 4.5 -8.95 M2.4 -9.65 L2.35 -9.6 2.3 -9.6 2.25 -9.55 2.05 -9.55 2.0 -9.5 1.9 -9.5 1.85 -9.55 Q1.75 -9.5 1.7 -9.65 L0.9 -9.2 0.75 -9.2 0.7 -9.25 0.7 -9.15 Q0.65 -9.15 0.1 -8.95 L-0.25 -8.9 -0.6 -8.8 Q-0.7 -8.8 -0.8 -8.95 L-0.85 -8.95 -1.1 -8.85 Q-1.3 -8.75 -1.4 -8.65 L-1.5 -8.65 -1.6 -8.7 Q-1.65 -8.7 -1.65 -8.75 L-1.65 -8.8 -1.6 -8.9 Q-1.0 -9.35 -0.95 -9.35 -0.8 -9.35 -0.7 -9.25 L-0.65 -9.2 Q-0.2 -9.2 0.0 -9.25 0.1 -9.3 0.2 -9.4 L0.25 -9.4 0.65 -9.35 0.7 -9.4 Q0.75 -9.5 1.05 -9.7 L1.5 -9.95 1.55 -9.95 1.75 -9.9 1.8 -9.9 1.9 -9.8 1.95 -9.85 2.0 -9.85 Q2.4 -9.85 2.4 -9.75 L2.4 -9.65 M13.05 -9.85 L13.05 -9.75 Q12.9 -9.3 12.75 -9.0 L12.35 -8.3 12.35 -8.25 12.2 -8.25 12.15 -8.3 12.15 -8.4 Q12.3 -8.75 12.55 -9.25 12.8 -9.75 12.9 -9.9 L13.0 -9.9 13.05 -9.85 M11.55 -10.45 L11.6 -10.45 11.65 -10.35 11.65 -10.3 Q11.45 -9.95 11.3 -9.9 L10.95 -9.85 10.9 -9.8 Q10.45 -9.8 10.3 -9.7 L10.2 -9.6 Q10.1 -9.55 10.05 -9.65 10.0 -9.7 10.0 -9.8 L10.0 -9.85 10.05 -9.9 10.15 -9.95 Q10.25 -10.05 10.3 -10.1 L10.35 -10.1 10.8 -10.15 10.85 -10.2 11.2 -10.2 11.25 -10.3 11.3 -10.35 11.5 -10.45 11.55 -10.45 M12.1 -7.45 L12.2 -7.5 12.25 -7.5 12.3 -7.45 12.3 -7.1 Q12.25 -6.9 12.25 -6.85 12.25 -6.8 12.3 -6.75 L12.35 -6.7 12.5 -6.65 12.55 -6.65 12.6 -6.6 Q12.6 -6.55 13.0 -6.05 L13.0 -6.0 Q13.3 -5.6 13.3 -5.35 13.3 -5.05 13.15 -4.45 13.2 -4.25 13.25 -4.05 L13.25 -3.95 13.2 -3.9 13.15 -3.9 Q13.0 -3.95 12.9 -4.15 L12.95 -4.15 Q12.9 -4.25 12.9 -4.35 12.8 -4.4 12.8 -4.6 L13.0 -5.35 Q13.0 -5.55 12.75 -6.0 12.45 -6.4 12.25 -6.4 L12.2 -6.4 12.2 -6.45 12.1 -6.6 Q12.0 -6.7 12.0 -6.85 L12.05 -7.15 12.1 -7.4 12.1 -7.45 M8.75 -4.15 L8.5 -3.75 8.4 -3.6 Q9.0 -4.15 9.2 -4.45 L9.35 -4.65 9.2 -4.55 9.2 -4.5 9.15 -4.45 9.05 -4.4 Q8.9 -4.25 8.75 -4.15 M12.75 -2.95 L12.8 -3.0 12.95 -3.0 13.0 -2.9 13.0 -2.75 Q13.0 -2.45 12.6 -1.85 12.25 -1.3 12.2 -1.05 L12.1 -0.65 Q12.0 -0.35 12.0 -0.2 12.0 0.1 11.95 0.2 11.85 0.45 11.6 0.65 L11.55 0.65 Q11.5 0.65 11.5 0.6 L11.45 0.6 Q11.4 0.55 11.4 0.5 11.4 0.45 11.45 0.45 11.7 0.15 11.8 -0.35 L12.0 -1.25 12.0 -1.3 Q12.1 -1.5 12.5 -2.2 12.8 -2.7 12.75 -2.85 L12.75 -2.95 M10.4 1.95 L10.35 2.0 10.05 2.15 10.0 2.2 9.75 2.2 9.7 2.15 9.7 2.1 Q9.65 2.05 9.7 2.0 L9.75 1.95 Q9.95 1.9 10.3 1.7 L10.55 1.5 Q10.6 1.45 10.65 1.45 L10.7 1.5 10.7 1.65 10.6 1.8 10.6 1.9 10.55 1.95 10.4 1.95 M9.6 2.15 L9.6 2.2 9.55 2.25 Q9.45 2.3 9.0 2.45 8.7 2.55 8.65 2.65 L8.6 2.7 8.55 2.7 8.55 2.75 8.5 2.8 8.0 2.95 Q7.65 3.1 7.6 3.15 7.5 3.25 7.45 3.45 7.35 3.65 7.1 3.7 L6.75 3.7 6.7 3.65 6.7 3.6 Q6.7 3.55 6.7 3.5 6.7 3.45 6.75 3.45 L6.8 3.45 7.05 3.4 Q7.15 3.35 7.15 3.2 7.2 2.95 7.5 2.8 L8.05 2.6 8.45 2.5 Q8.55 2.4 8.85 2.2 L9.2 2.0 Q9.25 1.95 9.3 2.0 L9.4 2.0 Q9.55 2.0 9.6 2.1 L9.6 2.15 M5.65 4.6 L5.65 4.65 Q5.6 4.8 5.4 4.9 L5.05 5.2 4.95 5.2 4.85 5.1 Q4.85 5.05 4.9 5.0 4.95 4.9 5.25 4.7 5.5 4.5 5.55 4.5 L5.6 4.5 5.65 4.6 5.6 4.5 Q5.6 4.45 5.65 4.45 5.7 4.35 5.8 4.25 6.0 4.1 6.1 4.1 L6.2 4.2 6.15 4.3 6.05 4.45 5.85 4.6 5.65 4.6 M4.3 6.05 L4.3 6.2 4.15 6.45 Q4.05 6.65 4.05 6.75 L4.0 6.8 3.85 6.8 3.8 6.75 Q3.75 6.6 3.95 6.35 L3.9 6.35 Q4.05 6.1 4.2 6.05 L4.3 6.05 M-1.55 -8.5 Q-1.55 -8.45 -1.55 -8.35 L-1.55 -8.3 Q-1.55 -8.2 -1.6 -8.1 L-1.7 -8.1 -1.75 -8.15 Q-1.8 -8.25 -1.8 -8.45 L-1.75 -8.5 Q-1.75 -8.55 -1.7 -8.55 L-1.6 -8.55 -1.55 -8.5 M-2.1 -6.65 L-2.1 -6.65 -2.1 -6.6 -2.05 -6.6 Q-2.0 -6.35 -2.0 -6.2 -2.0 -6.05 -2.0 -6.0 -2.05 -5.85 -2.25 -5.8 L-2.35 -5.8 Q-2.45 -5.8 -2.45 -5.85 -2.5 -5.9 -2.45 -5.95 L-2.45 -6.0 -2.4 -6.05 Q-2.3 -6.15 -2.3 -6.3 L-2.3 -6.35 -2.25 -6.55 -2.25 -6.6 Q-2.2 -6.65 -2.15 -6.65 L-2.1 -6.65 M-2.7 -5.35 Q-2.8 -5.2 -2.95 -5.2 -3.15 -4.75 -3.55 -4.3 L-3.65 -4.2 -3.75 -4.25 -3.75 -4.4 Q-3.65 -4.5 -3.6 -4.6 L-3.2 -5.25 Q-2.95 -5.6 -2.7 -5.75 L-2.6 -5.75 -2.55 -5.7 -2.55 -5.6 -2.7 -5.35 M-3.95 -4.0 L-3.9 -3.95 Q-3.9 -3.9 -3.95 -3.85 L-4.45 -3.25 -4.5 -3.2 -4.55 -3.2 -4.65 -3.3 -4.65 -3.45 -4.05 -4.0 Q-4.05 -4.05 -4.0 -4.05 -3.95 -4.05 -3.95 -4.0 M-4.85 -2.65 L-4.95 -2.45 -5.05 -2.35 -5.1 -2.35 -5.2 -2.45 -5.2 -2.5 Q-5.2 -2.7 -5.05 -2.9 -4.9 -3.15 -4.7 -3.1 L-4.6 -3.0 -4.6 -2.95 -4.65 -2.85 Q-4.8 -2.8 -4.85 -2.65 M-5.45 -0.25 Q-5.65 0.2 -5.95 0.35 L-6.05 0.35 -6.05 0.3 -6.1 0.3 -6.15 0.2 -6.1 0.15 -6.1 0.1 Q-5.75 -0.1 -5.7 -0.55 L-5.65 -0.9 Q-5.6 -1.15 -5.5 -1.2 L-5.45 -1.25 -5.4 -1.25 Q-5.35 -1.2 -5.35 -1.15 -5.35 -1.1 -5.35 -0.85 -5.35 -0.6 -5.45 -0.25" fill="#ffffff" fill-opacity="0.5019608" fill-rule="evenodd" stroke="none"/>
    <path d="M13.35 -11.85 L13.45 -12.3 13.55 -12.25 13.55 -12.1 13.5 -12.0 13.25 -11.45 12.95 -10.8 12.85 -10.6 12.95 -10.7 12.9 -10.6 12.65 -10.2 12.65 -10.15 11.95 -8.85 Q11.3 -7.55 10.9 -6.9 10.45 -6.1 9.95 -5.45 L9.9 -5.3 Q9.55 -4.65 9.35 -4.3 9.1 -3.95 8.55 -3.5 L7.8 -2.85 7.5 -2.4 Q5.95 -2.05 4.05 -1.25 L2.75 -0.7 2.7 -0.65 2.65 -0.65 1.1 0.1 0.55 0.4 Q-0.65 1.0 -2.05 1.8 L-2.15 1.85 -2.35 2.0 Q-2.65 2.25 -3.15 2.75 -3.35 3.0 -3.55 3.2 -4.0 3.6 -4.4 3.85 -4.65 4.0 -5.25 4.1 L-5.25 4.05 -5.5 4.1 Q-6.1 4.2 -6.5 4.45 -6.65 4.5 -6.75 4.6 -7.65 5.35 -8.05 5.75 -8.45 6.1 -8.7 6.4 -8.95 6.7 -9.1 6.95 L-9.15 6.95 Q-9.5 7.6 -10.3 8.45 L-10.7 8.9 -10.75 8.9 Q-11.1 9.3 -11.25 9.3 L-11.25 9.35 Q-11.5 9.65 -11.6 9.75 -11.65 9.7 -11.65 9.5 L-11.5 9.25 -11.5 9.2 -11.45 9.1 -11.4 8.95 -11.25 8.9 Q-11.1 8.8 -11.05 8.8 L-11.05 8.85 -11.0 8.8 -11.0 8.85 -10.85 8.75 -9.25 6.8 -8.8 6.25 -8.3 5.7 -8.15 5.6 Q-7.5 4.9 -6.8 4.5 L-6.55 4.35 Q-6.05 4.05 -5.55 3.9 L-5.25 3.85 Q-4.65 3.7 -3.75 2.95 L-3.0 2.35 -2.4 1.9 -2.15 1.7 Q-1.5 1.2 -0.5 0.75 L0.5 0.25 1.05 -0.05 Q1.75 -0.45 2.55 -0.85 L2.6 -0.9 Q3.1 -1.4 3.85 -1.9 L5.3 -2.85 Q6.2 -3.45 6.85 -3.75 7.1 -3.85 7.4 -4.0 L7.55 -4.15 Q7.65 -4.25 7.75 -4.35 8.0 -4.5 8.65 -4.55 L8.95 -4.8 9.3 -5.5 Q9.75 -6.3 10.05 -6.75 L10.35 -7.2 11.2 -8.3 11.55 -8.75 11.85 -9.25 Q12.25 -9.85 12.55 -10.25 L12.75 -10.7 12.85 -10.9 13.1 -11.35 Q13.2 -11.55 13.35 -11.85 M6.05 -8.6 L5.65 -8.65 5.35 -8.7 5.25 -8.7 5.15 -8.75 5.25 -8.75 5.4 -8.7 Q5.7 -8.7 5.75 -8.8 L6.65 -8.9 Q6.75 -8.85 7.05 -8.65 L7.0 -8.6 Q6.9 -8.65 6.8 -8.7 L6.65 -8.8 6.35 -8.7 Q6.1 -8.6 6.05 -8.6 M4.05 -8.9 Q3.95 -8.9 3.65 -9.2 L3.3 -9.55 3.05 -9.55 Q2.95 -9.55 2.95 -9.6 L3.05 -9.65 3.05 -9.7 Q3.4 -9.7 3.7 -9.3 3.95 -9.0 4.35 -9.15 L4.45 -9.05 Q4.4 -9.0 4.3 -8.95 L4.05 -8.9 M2.3 -9.7 L2.25 -9.7 Q2.05 -9.65 2.0 -9.6 L1.9 -9.65 2.0 -9.75 2.3 -9.7 M1.55 -9.85 L1.75 -9.8 Q1.85 -9.7 1.85 -9.65 1.8 -9.65 1.8 -9.7 1.8 -9.75 1.7 -9.75 1.65 -9.75 0.85 -9.3 L0.75 -9.3 Q0.85 -9.45 1.1 -9.6 L1.55 -9.85 M0.65 -9.25 L0.05 -9.1 -0.25 -9.0 -0.6 -8.95 Q-0.7 -8.95 -0.75 -9.0 -0.8 -9.1 -0.85 -9.1 L-1.1 -8.95 -1.45 -8.75 -1.55 -8.8 -0.95 -9.25 Q-0.85 -9.25 -0.8 -9.15 -0.7 -9.1 -0.65 -9.1 -0.2 -9.1 0.05 -9.15 0.15 -9.2 0.25 -9.3 L0.65 -9.25 M12.25 -8.35 Q12.4 -8.7 12.65 -9.2 12.9 -9.7 12.95 -9.8 12.8 -9.35 12.65 -9.05 L12.3 -8.35 12.25 -8.35 M12.25 -7.4 L12.2 -7.1 Q12.2 -6.95 12.2 -6.85 12.2 -6.75 12.25 -6.65 L12.3 -6.6 12.5 -6.55 Q12.55 -6.5 12.9 -5.95 13.2 -5.6 13.2 -5.35 13.2 -5.05 13.05 -4.5 13.1 -4.2 13.2 -4.0 13.05 -4.05 13.0 -4.2 12.95 -4.3 12.95 -4.4 L12.95 -4.45 Q12.9 -4.45 12.9 -4.6 13.1 -5.3 13.1 -5.35 13.1 -5.6 12.8 -6.05 12.5 -6.55 12.25 -6.5 L12.15 -6.65 Q12.1 -6.7 12.1 -6.85 12.1 -6.9 12.15 -7.1 L12.2 -7.4 12.25 -7.4 M11.3 -10.25 Q11.45 -10.3 11.55 -10.35 11.4 -10.05 11.3 -10.0 L10.85 -9.9 Q10.35 -9.9 10.2 -9.75 L10.15 -9.7 Q10.1 -9.7 10.1 -9.8 L10.2 -9.9 10.35 -10.0 10.85 -10.05 11.25 -10.1 11.3 -10.25 M9.45 -9.4 L8.75 -9.1 Q8.05 -8.8 7.8 -8.7 L7.7 -8.7 7.75 -8.85 Q8.2 -9.0 8.65 -9.15 9.2 -9.4 9.25 -9.45 9.4 -9.45 9.45 -9.4 M9.0 -4.5 Q8.85 -4.35 8.65 -4.25 L8.4 -3.8 7.95 -3.1 8.35 -3.45 Q9.05 -4.05 9.25 -4.35 9.4 -4.6 9.7 -5.15 L9.1 -4.55 9.0 -4.5 M7.85 -4.25 L7.5 -4.0 8.0 -4.15 Q8.1 -4.2 8.2 -4.25 L8.45 -4.4 7.85 -4.25 M12.9 -2.75 Q12.9 -2.5 12.55 -1.95 12.15 -1.35 12.1 -1.1 L12.0 -0.65 Q11.95 -0.4 11.9 -0.25 L11.85 0.15 Q11.8 0.4 11.55 0.55 L11.5 0.5 Q11.75 0.2 11.9 -0.35 L12.1 -1.25 Q12.2 -1.45 12.55 -2.15 12.9 -2.7 12.85 -2.9 L12.9 -2.9 12.9 -2.75 M10.3 1.9 Q10.05 2.05 10.0 2.1 L9.75 2.05 Q10.0 2.0 10.35 1.8 L10.65 1.6 Q10.55 1.7 10.45 1.8 L10.5 1.85 10.4 1.85 10.3 1.9 M9.4 2.1 L9.5 2.15 Q9.4 2.2 9.0 2.35 8.6 2.45 8.55 2.6 L8.5 2.55 Q8.6 2.45 8.9 2.3 L9.25 2.1 9.4 2.1 M8.0 2.85 Q7.6 3.05 7.55 3.05 7.45 3.15 7.35 3.4 7.25 3.55 7.05 3.6 L6.75 3.6 6.75 3.55 6.8 3.55 7.1 3.5 Q7.2 3.45 7.25 3.25 7.3 3.0 7.55 2.9 7.75 2.8 8.1 2.7 L8.5 2.6 8.5 2.65 8.0 2.85 M5.35 4.8 Q5.15 4.95 5.0 5.1 L4.95 5.1 Q5.05 5.0 5.3 4.8 L5.55 4.6 Q5.5 4.7 5.35 4.8 M5.95 4.35 L5.8 4.5 5.7 4.5 Q5.75 4.45 5.85 4.35 6.0 4.2 6.1 4.25 L5.95 4.35 M4.05 6.4 L3.95 6.7 3.9 6.7 Q3.9 6.6 4.0 6.4 4.15 6.2 4.2 6.15 L4.05 6.4 M-1.65 -8.35 L-1.65 -8.2 Q-1.7 -8.3 -1.7 -8.45 L-1.65 -8.45 -1.65 -8.35 M-2.1 -6.2 Q-2.1 -6.1 -2.1 -6.05 -2.15 -5.95 -2.3 -5.9 L-2.35 -5.9 -2.3 -6.0 Q-2.25 -6.1 -2.25 -6.3 L-2.15 -6.5 -2.15 -6.55 Q-2.1 -6.35 -2.1 -6.2 M-2.75 -5.45 Q-2.9 -5.3 -3.05 -5.3 -3.2 -4.85 -3.6 -4.4 L-3.65 -4.3 -3.5 -4.55 -3.15 -5.2 Q-2.9 -5.5 -2.65 -5.65 L-2.75 -5.45 M-4.55 -3.3 L-4.55 -3.35 -4.0 -3.95 -4.55 -3.3 M-4.95 -2.75 L-5.05 -2.5 -5.1 -2.5 Q-5.1 -2.65 -5.0 -2.8 -4.85 -3.0 -4.7 -3.0 L-4.7 -2.95 Q-4.85 -2.9 -4.95 -2.75 M-5.55 -0.3 Q-5.75 0.15 -6.0 0.25 L-6.05 0.2 Q-5.65 0.0 -5.6 -0.5 L-5.55 -0.9 Q-5.55 -1.05 -5.45 -1.15 -5.45 -1.1 -5.45 -0.85 -5.45 -0.6 -5.55 -0.3" fill="#ffffff" fill-rule="evenodd" stroke="none"/>
  </g>
</svg>
