<?xml version="1.0" encoding="UTF-8" standalone="no"?>
<svg xmlns:ffdec="https://www.free-decompiler.com/flash" xmlns:xlink="http://www.w3.org/1999/xlink" ffdec:objectType="shape" height="13.2px" width="22.95px" xmlns="http://www.w3.org/2000/svg">
  <g transform="matrix(1.0, 0.0, 0.0, 1.0, 13.2, 4.55)">
    <path d="M6.5 -3.05 Q6.9 -3.4 7.15 -3.45 L7.2 -3.45 7.25 -3.4 7.25 -3.35 7.2 -3.3 Q6.5 -2.65 6.45 -2.55 6.4 -2.5 6.4 -2.45 L6.45 -2.05 6.35 -1.05 Q6.35 -0.85 5.5 -0.25 L4.7 0.3 4.7 0.35 Q4.65 0.35 4.0 0.75 3.5 1.05 2.8 1.2 L2.75 1.2 2.7 1.15 2.7 1.0 2.75 0.9 2.8 0.85 Q3.7 0.55 4.05 0.35 4.3 0.25 4.7 -0.1 5.15 -0.55 5.85 -1.0 L5.9 -1.05 5.9 -1.3 Q5.9 -1.4 5.95 -1.65 L6.05 -1.9 6.05 -2.15 Q6.05 -2.35 6.05 -2.45 L6.05 -2.5 Q6.1 -2.7 6.5 -3.05 M7.5 -3.45 Q7.55 -3.6 7.65 -3.55 L7.8 -3.55 Q8.0 -3.5 8.0 -3.45 L8.05 -3.45 8.1 -3.3 8.1 -3.2 8.05 -3.15 7.95 -3.1 7.6 -3.1 7.55 -3.15 Q7.5 -3.15 7.5 -3.35 L7.5 -3.45 M9.7 -4.5 L9.7 -4.45 9.75 -4.35 9.75 -4.3 Q9.75 -4.25 9.55 -4.0 L9.5 -3.95 9.45 -3.95 Q9.4 -3.95 9.4 -4.0 9.35 -4.05 9.35 -4.1 L9.25 -3.9 9.15 -3.8 Q9.15 -3.75 9.25 -3.6 9.4 -3.4 9.4 -3.3 9.4 -3.15 9.25 -3.0 L9.15 -2.95 9.1 -2.9 8.8 -2.9 8.7 -3.0 Q8.6 -3.05 8.6 -3.15 L8.6 -3.2 Q8.6 -3.25 8.65 -3.3 L8.7 -3.3 Q8.85 -3.3 8.9 -3.2 L9.0 -3.2 9.05 -3.25 9.05 -3.3 9.1 -3.35 9.0 -3.45 Q8.85 -3.7 8.9 -3.75 8.9 -3.9 9.0 -4.05 9.15 -4.25 9.25 -4.3 L9.35 -4.3 9.35 -4.25 9.4 -4.2 9.5 -4.3 9.5 -4.5 9.6 -4.55 9.65 -4.55 9.7 -4.5 M2.25 1.2 L2.25 1.3 2.2 1.35 2.1 1.35 1.8 1.3 1.65 1.5 1.6 1.55 Q1.55 1.55 1.45 1.6 L1.3 1.65 1.1 1.65 1.05 1.6 Q1.0 1.6 1.0 1.55 1.0 1.5 1.05 1.45 1.25 1.25 1.45 1.1 1.95 0.8 2.25 1.15 L2.25 1.2 M0.1 1.45 L0.15 1.55 0.05 1.65 -0.5 1.55 -0.55 1.55 Q-0.65 1.4 -0.65 1.35 L-0.65 1.3 -0.6 1.25 -0.55 1.25 -0.5 1.3 -0.4 1.35 0.05 1.4 Q0.1 1.4 0.1 1.45 M-6.0 -0.5 Q-6.95 -0.5 -8.25 0.7 -8.2 0.7 -8.25 0.75 L-8.25 0.8 -9.05 1.5 Q-9.5 2.0 -9.95 2.55 -10.15 3.0 -10.25 3.25 L-10.25 3.3 -10.3 3.3 -10.35 3.35 Q-10.45 3.35 -10.45 3.1 -10.45 2.95 -10.3 2.65 L-10.3 2.55 -11.1 3.3 -11.2 3.3 -11.5 3.55 Q-12.95 4.95 -12.95 5.45 -12.95 5.65 -12.8 6.2 L-12.65 6.7 Q-12.5 6.85 -12.25 7.0 L-12.0 7.1 -12.25 6.3 Q-12.25 5.85 -11.7 5.0 L-10.95 3.95 -10.75 3.75 -10.7 3.75 -10.65 3.8 -10.65 3.9 Q-10.85 4.3 -11.05 4.85 L-11.05 5.4 -11.15 5.5 -11.15 5.55 Q-11.15 5.75 -10.85 6.0 -10.45 6.35 -10.5 6.45 -10.45 6.55 -10.65 6.9 L-10.85 7.25 -10.9 7.6 Q-10.9 7.75 -11.0 7.85 L-10.95 8.0 -10.95 8.2 Q-10.9 8.25 -10.85 8.3 L-10.85 8.4 -10.9 8.5 -10.95 8.55 -11.05 8.55 -11.1 8.65 -11.15 8.65 -11.2 8.6 Q-11.25 8.55 -11.25 8.35 -11.5 8.3 -11.8 7.65 -12.15 7.3 -12.45 7.3 -12.55 7.3 -12.7 7.1 -12.9 6.9 -12.85 6.75 L-13.0 6.3 Q-13.2 5.65 -13.2 5.45 -13.2 4.85 -11.6 3.35 L-11.6 3.3 -11.05 2.85 Q-10.7 2.4 -9.95 1.8 L-9.15 1.15 -8.55 0.5 Q-7.5 -0.55 -6.5 -0.85 L-6.45 -0.85 -6.0 -0.8 -5.75 -0.75 -5.7 -0.7 -5.5 -0.45 -5.5 -0.3 -5.55 -0.25 -5.65 -0.25 -5.9 -0.5 -6.0 -0.5 M-5.3 -0.15 L-5.3 -0.2 -5.25 -0.25 -5.25 -0.3 -5.15 -0.3 -5.1 -0.35 Q-4.9 -0.3 -4.85 -0.25 L-4.8 -0.2 -4.8 -0.1 -4.9 0.0 -4.95 0.0 Q-5.25 0.0 -5.3 -0.1 L-5.3 -0.15 M-4.65 -0.1 L-4.55 -0.1 -2.65 0.55 -1.75 0.9 -1.65 0.95 -1.65 1.0 -1.7 1.05 -1.8 1.1 -2.7 0.8 -4.65 0.1 -4.75 0.0 -4.65 -0.1 M-11.5 6.4 Q-11.5 6.5 -11.45 6.8 L-11.35 7.2 -11.25 7.4 -11.25 7.45 -11.15 7.5 -11.05 7.1 Q-10.9 6.75 -10.8 6.5 -10.95 6.4 -11.15 6.1 L-11.35 5.75 -11.45 5.95 Q-11.45 6.05 -11.5 6.2 L-11.5 6.4" fill="#ffffff" fill-opacity="0.5019608" fill-rule="evenodd" stroke="none"/>
    <path d="M7.15 -3.35 L6.35 -2.6 Q6.3 -2.55 6.3 -2.45 L6.35 -2.05 6.25 -1.05 Q6.25 -0.9 5.45 -0.35 L4.65 0.25 Q4.6 0.25 3.95 0.65 3.45 0.95 2.75 1.1 L2.8 1.05 2.85 0.95 Q3.75 0.65 4.1 0.45 4.35 0.3 4.75 -0.05 5.2 -0.45 5.9 -0.9 5.95 -1.0 6.0 -1.05 L6.0 -1.3 Q6.0 -1.4 6.05 -1.6 L6.15 -1.9 6.15 -2.15 Q6.1 -2.35 6.15 -2.45 6.2 -2.65 6.55 -3.0 6.95 -3.3 7.15 -3.35 M7.6 -3.35 Q7.6 -3.45 7.65 -3.45 L7.95 -3.35 8.0 -3.25 7.95 -3.2 7.65 -3.2 7.6 -3.25 7.6 -3.35 M9.65 -4.3 Q9.65 -4.25 9.5 -4.1 L9.45 -4.1 9.45 -4.15 Q9.5 -4.2 9.55 -4.25 L9.6 -4.45 9.65 -4.45 9.65 -4.3 M9.3 -4.2 L9.15 -4.0 9.05 -3.8 Q9.05 -3.7 9.2 -3.55 9.3 -3.35 9.3 -3.3 9.3 -3.2 9.2 -3.1 L9.1 -3.0 8.85 -3.0 8.75 -3.1 Q8.7 -3.1 8.7 -3.15 L8.7 -3.2 Q8.8 -3.2 8.9 -3.1 L9.05 -3.1 9.15 -3.2 9.2 -3.35 9.1 -3.55 Q9.0 -3.7 9.0 -3.75 9.0 -3.85 9.1 -4.0 9.2 -4.15 9.3 -4.2 M2.15 1.25 L1.75 1.2 1.6 1.4 1.3 1.55 1.1 1.55 Q1.3 1.35 1.5 1.2 1.9 0.95 2.15 1.25 M-6.0 -0.65 Q-7.1 -0.65 -8.55 0.8 L-8.65 0.95 -8.3 0.75 -9.1 1.4 -10.0 2.45 -10.35 3.2 -10.35 3.1 Q-10.35 3.0 -10.25 2.65 -10.1 2.4 -9.95 2.3 L-9.6 1.8 -9.8 2.0 Q-10.75 2.85 -11.15 3.2 L-11.1 3.1 -11.55 3.5 Q-13.05 4.9 -13.05 5.45 -13.05 5.65 -12.9 6.2 L-12.7 6.75 Q-12.6 6.95 -12.3 7.05 -11.9 7.25 -11.8 7.35 L-11.85 7.3 -12.15 6.3 Q-12.15 5.9 -11.6 5.1 L-10.85 4.0 -11.25 4.85 -11.25 4.9 Q-10.9 3.95 -10.75 3.85 -10.9 4.25 -11.15 4.8 L-11.15 5.4 -11.2 5.4 -11.25 5.55 Q-11.25 5.8 -10.9 6.1 -10.55 6.4 -10.55 6.45 -10.55 6.5 -10.75 6.8 L-10.95 7.2 -11.0 7.6 Q-11.0 7.75 -11.1 7.75 L-11.1 7.9 -11.05 8.05 -11.1 8.15 -11.1 8.2 Q-11.0 8.3 -10.95 8.35 L-11.0 8.45 -11.1 8.35 -11.15 8.55 Q-11.15 8.5 -11.15 8.3 L-11.2 8.25 Q-11.4 8.25 -11.7 7.6 -12.15 7.2 -12.45 7.2 -12.55 7.2 -12.65 7.05 -12.8 6.85 -12.8 6.75 L-12.75 6.75 -12.9 6.3 Q-13.1 5.65 -13.1 5.45 -13.1 4.9 -11.5 3.4 L-11.0 2.95 Q-10.65 2.5 -9.9 1.9 -9.5 1.55 -9.1 1.25 L-8.5 0.55 Q-7.45 -0.45 -6.45 -0.75 L-6.0 -0.7 -5.8 -0.65 -5.6 -0.4 -5.6 -0.35 -5.85 -0.6 -6.0 -0.65 M-4.9 -0.15 L-4.95 -0.1 Q-5.15 -0.1 -5.2 -0.15 L-5.2 -0.2 -5.15 -0.2 -5.15 -0.25 Q-4.95 -0.2 -4.9 -0.15 M-2.65 0.7 L-4.65 0.0 -4.55 0.0 -2.65 0.65 -1.75 1.0 -2.65 0.7 M-0.55 1.35 L-0.4 1.45 0.05 1.5 -0.5 1.45 -0.55 1.35 M-11.55 6.2 L-11.6 6.25 -11.6 6.4 Q-11.6 6.55 -11.55 6.85 L-11.45 7.25 -11.35 7.45 -11.3 7.5 -11.15 7.7 -10.95 7.15 Q-10.8 6.7 -10.65 6.45 -10.8 6.4 -11.05 6.05 -11.3 5.65 -11.3 5.55 L-11.3 5.25 -11.5 5.95 Q-11.5 6.05 -11.55 6.2 M-11.6 6.95 L-11.6 6.95" fill="#ffffff" fill-rule="evenodd" stroke="none"/>
  </g>
</svg>
