<?xml version="1.0" encoding="UTF-8" standalone="no"?>
<svg xmlns:ffdec="https://www.free-decompiler.com/flash" xmlns:xlink="http://www.w3.org/1999/xlink" ffdec:objectType="shape" height="11.2px" width="22.15px" xmlns="http://www.w3.org/2000/svg">
  <g transform="matrix(1.0, 0.0, 0.0, 1.0, 14.55, 3.8)">
    <path d="M5.8 -3.5 L5.4 -3.5 5.35 -3.55 Q5.3 -3.55 5.3 -3.6 L5.35 -3.65 Q5.45 -3.75 5.5 -3.8 L5.75 -3.75 5.8 -3.75 5.85 -3.7 5.85 -3.55 5.8 -3.5 M7.35 -3.65 L7.5 -3.6 7.55 -3.6 7.6 -3.55 7.6 -3.45 7.55 -3.4 Q7.55 -3.35 7.5 -3.35 7.3 -3.3 7.2 -3.45 L7.15 -3.5 7.15 -3.55 7.25 -3.65 7.35 -3.65 M4.45 -2.75 Q4.55 -3.1 4.7 -3.15 L4.8 -3.15 4.85 -3.1 4.85 -3.0 Q4.75 -2.7 4.65 -2.6 L4.6 -2.55 4.55 -2.6 4.5 -2.6 4.45 -2.65 4.45 -2.75 M4.85 -1.55 L4.85 -1.1 4.8 -1.1 4.75 -1.05 4.7 -1.05 4.65 -1.1 4.6 -1.1 4.6 -1.3 Q4.6 -1.55 4.6 -1.6 L4.65 -1.6 4.7 -1.65 4.75 -1.65 4.85 -1.55 M4.6 -0.4 L4.6 -0.55 4.85 -0.85 4.9 -0.9 4.95 -0.85 5.0 -0.75 Q5.0 -0.55 4.85 -0.35 L4.8 -0.3 4.65 -0.3 Q4.6 -0.35 4.6 -0.4 M3.5 0.4 L3.55 0.4 Q3.7 0.45 3.7 0.5 L3.75 0.55 3.7 0.6 3.7 0.65 3.65 0.65 3.6 0.7 3.4 0.65 3.35 0.6 3.35 0.55 Q3.35 0.45 3.4 0.45 L3.45 0.4 3.5 0.4 M3.3 0.6 L3.3 0.7 3.15 0.9 3.05 0.9 Q2.9 0.9 2.85 0.75 L2.85 0.7 2.9 0.65 Q2.95 0.6 3.05 0.55 L3.2 0.55 3.3 0.6 M1.2 0.95 L1.25 1.0 1.25 1.05 1.2 1.1 1.0 1.35 0.9 1.4 Q0.6 1.35 0.6 1.25 L0.6 1.15 Q0.6 1.1 0.65 1.1 0.95 1.0 1.15 0.95 L1.2 0.95 M0.3 1.0 L0.4 1.05 0.45 1.05 Q0.5 1.1 0.6 1.25 L0.6 1.35 0.55 1.4 Q0.5 1.45 0.3 1.45 0.05 1.45 0.0 1.35 L0.0 1.2 0.15 1.05 Q0.2 1.0 0.25 1.0 L0.3 1.0 M-8.8 -0.9 L-8.8 -1.0 -8.75 -1.05 Q-8.75 -1.2 -8.65 -1.25 L-8.45 -1.3 -8.3 -1.3 -8.2 -1.2 Q-8.2 -1.05 -8.25 -0.9 L-8.2 -0.9 -8.0 -0.95 -7.95 -0.95 -7.9 -0.9 -7.9 -0.85 Q-7.9 -0.8 -7.9 -0.75 -8.1 -0.55 -8.15 -0.5 L-8.2 -0.5 -8.4 -0.55 -8.45 -0.55 Q-8.5 -0.65 -8.55 -0.8 L-8.55 -0.85 -8.6 -0.8 -8.7 -0.8 Q-8.8 -0.8 -8.8 -0.9 M-6.15 -1.85 L-6.1 -1.9 -6.05 -1.9 Q-5.85 -1.9 -5.6 -1.75 -5.4 -1.65 -5.1 -1.65 L-4.95 -1.55 Q-4.85 -1.5 -4.85 -1.3 -4.85 -1.15 -4.95 -1.05 L-5.0 -1.0 Q-5.0 -1.05 -4.95 -1.0 L-4.8 -0.7 -4.9 -0.6 -4.95 -0.65 Q-5.2 -0.75 -5.25 -0.85 -5.3 -0.9 -5.3 -1.0 L-5.25 -1.25 -5.15 -1.35 -5.2 -1.35 Q-5.45 -1.3 -5.65 -1.45 L-5.85 -1.55 -6.0 -1.55 -6.05 -1.35 -6.1 -1.05 -6.1 -1.0 -6.15 -0.95 -6.85 -0.95 -6.95 -1.0 -7.0 -1.05 -7.0 -1.1 -6.95 -1.2 Q-6.7 -1.55 -6.4 -1.25 L-6.35 -1.45 Q-6.35 -1.6 -6.15 -1.85 M-9.95 0.55 L-10.15 0.65 -10.1 0.7 Q-9.95 0.85 -10.0 0.95 L-9.9 1.05 Q-9.85 1.1 -9.75 1.2 -9.7 1.2 -9.7 1.25 -9.65 1.25 -9.7 1.3 L-9.7 1.35 Q-9.8 1.45 -9.95 1.85 -10.15 2.3 -10.45 2.4 L-10.5 2.4 Q-10.7 2.4 -10.75 2.35 -11.0 2.3 -11.0 2.2 L-11.0 2.15 -10.9 2.05 -10.75 2.05 Q-10.65 2.1 -10.6 2.1 L-10.5 2.1 Q-10.25 1.95 -10.15 1.7 L-10.05 1.3 -10.25 1.05 Q-10.45 0.8 -10.4 0.65 -10.4 0.5 -10.35 0.4 -10.35 0.35 -10.25 0.3 L-10.1 0.3 Q-9.9 0.35 -9.9 0.4 L-9.9 0.55 -9.95 0.55 M-11.35 1.9 Q-11.35 1.95 -11.5 2.05 L-11.65 2.1 -11.85 2.1 Q-11.9 2.1 -11.9 2.05 L-11.95 2.0 -11.9 1.8 -12.0 1.85 Q-12.15 1.85 -12.2 1.85 L-12.25 1.8 -12.3 1.7 -12.25 1.65 Q-12.1 1.45 -11.95 1.45 L-11.7 1.45 -11.65 1.5 -11.65 1.55 Q-11.65 1.65 -11.65 1.75 -11.45 1.7 -11.4 1.75 L-11.35 1.8 Q-11.35 1.85 -11.35 1.9 M-10.85 3.8 L-10.5 4.3 Q-10.15 4.8 -10.15 4.95 -10.15 5.1 -10.25 5.2 L-10.65 5.45 -10.75 5.45 -10.8 5.4 -10.8 5.25 -10.45 4.9 -10.75 4.45 -11.0 4.05 -11.25 4.05 Q-11.4 4.2 -11.6 4.55 L-12.0 4.55 -12.15 4.4 Q-12.2 4.3 -12.2 4.15 L-12.2 4.0 Q-12.2 3.95 -12.15 3.95 L-12.05 3.95 -12.0 4.0 -12.0 4.05 -11.85 4.2 -11.75 4.2 -11.7 4.15 -11.7 4.1 -11.65 3.9 Q-11.55 3.7 -10.9 3.75 L-10.85 3.8 M-12.35 1.2 L-12.3 1.25 Q-12.15 1.3 -12.15 1.35 L-12.15 1.4 -12.25 1.5 -12.4 1.5 -13.05 1.4 -13.1 1.4 -13.15 1.35 -13.2 1.25 -13.2 1.15 Q-13.5 1.4 -13.55 1.7 L-13.65 2.4 -13.65 2.45 -13.7 2.5 -13.9 2.5 -13.95 2.45 -13.95 2.25 Q-13.95 1.75 -13.8 1.5 L-13.3 0.8 -13.25 0.75 -13.2 0.75 -13.15 0.8 Q-12.95 1.0 -12.9 1.15 L-12.4 1.15 -12.35 1.2 M-14.35 4.65 L-14.3 4.6 -14.15 4.5 -14.1 4.5 -14.1 4.45 Q-14.2 4.3 -14.2 4.25 L-14.2 4.15 Q-14.2 4.05 -14.1 4.05 -14.05 4.05 -14.0 4.1 L-14.0 4.15 Q-13.85 4.2 -13.75 4.45 L-13.75 4.5 Q-13.75 4.7 -13.8 4.75 L-13.85 4.75 -14.05 4.8 -14.25 5.1 Q-14.1 5.8 -13.95 5.8 -13.9 5.8 -13.8 5.75 -13.65 5.6 -13.6 5.6 -13.4 5.6 -13.3 5.8 L-13.25 5.85 -13.2 6.0 Q-13.15 6.05 -13.15 6.1 L-13.2 6.15 -13.2 6.2 -13.35 6.2 -13.55 6.0 -13.7 6.1 -13.65 6.1 Q-13.85 6.25 -14.0 6.2 -14.2 6.25 -14.55 5.15 L-14.55 5.1 Q-14.55 5.05 -14.45 4.85 L-14.35 4.65 M-12.45 4.8 L-12.35 4.9 -12.35 4.95 -12.4 5.1 Q-12.45 5.2 -12.65 5.2 L-12.65 5.25 -12.7 5.4 Q-12.7 5.65 -12.5 5.75 L-12.55 5.75 Q-12.45 5.8 -12.15 5.95 -11.85 6.1 -11.75 6.25 -11.6 6.5 -11.7 6.95 L-11.6 7.0 -11.35 7.15 -11.25 7.25 -11.3 7.35 Q-11.3 7.4 -11.5 7.4 L-11.65 7.35 Q-11.75 7.3 -11.8 7.3 L-11.9 7.2 Q-12.0 7.15 -12.0 6.95 -12.0 6.8 -11.9 6.7 -11.9 6.65 -11.9 6.6 -11.9 6.45 -12.0 6.35 -12.05 6.3 -12.35 6.2 -12.95 6.0 -12.95 5.4 -12.95 5.05 -12.9 5.0 -12.85 4.8 -12.45 4.8 M-12.9 6.4 L-12.75 6.4 -12.6 6.45 Q-12.5 6.6 -12.45 6.65 L-12.4 6.75 Q-12.4 6.85 -12.6 6.85 L-12.8 6.85 -12.9 6.75 Q-12.95 6.65 -12.95 6.5 L-12.95 6.45 Q-12.95 6.4 -12.9 6.4 M-11.1 5.8 L-11.15 5.8 -11.15 5.85 Q-11.1 6.05 -11.1 6.1 L-11.15 6.2 -11.25 6.2 Q-11.5 5.95 -11.45 5.75 -11.45 5.55 -11.45 5.5 -11.4 5.4 -11.1 5.4 L-11.05 5.45 -11.05 5.5 -11.0 5.7 -11.1 5.8" fill="#ffffff" fill-opacity="0.5019608" fill-rule="evenodd" stroke="none"/>
    <path d="M7.5 -3.5 L7.5 -3.45 Q7.35 -3.45 7.25 -3.55 L7.3 -3.55 7.5 -3.5 M5.8 -3.65 L5.6 -3.6 Q5.5 -3.55 5.4 -3.6 L5.55 -3.65 5.8 -3.65 M4.6 -2.65 L4.55 -2.7 Q4.6 -3.0 4.75 -3.05 4.65 -2.75 4.6 -2.65 M4.75 -1.55 L4.75 -1.2 4.7 -1.15 4.7 -1.3 Q4.7 -1.5 4.7 -1.55 L4.75 -1.55 M4.7 -0.5 L4.9 -0.75 Q4.9 -0.6 4.75 -0.45 L4.7 -0.4 4.7 -0.5 M3.45 0.5 L3.55 0.5 Q3.6 0.5 3.65 0.55 L3.45 0.55 3.45 0.5 M2.95 0.75 Q3.0 0.7 3.05 0.7 L3.2 0.65 3.05 0.8 Q2.95 0.8 2.95 0.75 M0.65 1.2 L1.15 1.05 0.95 1.3 Q0.7 1.25 0.65 1.2 M0.2 1.1 L0.25 1.1 Q0.35 1.15 0.4 1.15 0.45 1.2 0.5 1.3 L0.3 1.35 Q0.1 1.35 0.1 1.3 L0.2 1.1 M-8.7 -0.9 L-8.65 -1.05 -8.6 -1.15 -8.45 -1.2 -8.3 -1.2 Q-8.3 -1.0 -8.35 -0.85 -8.3 -0.8 -8.2 -0.8 L-8.0 -0.85 Q-8.15 -0.65 -8.2 -0.6 L-8.35 -0.65 Q-8.45 -0.7 -8.45 -0.8 L-8.45 -1.0 -8.65 -0.9 -8.7 -0.9 M-6.05 -1.8 Q-5.85 -1.8 -5.65 -1.7 -5.4 -1.55 -5.1 -1.55 L-5.0 -1.45 Q-4.95 -1.4 -4.95 -1.3 -4.95 -1.2 -5.05 -1.15 -5.1 -1.1 -5.1 -1.0 L-5.05 -0.95 -4.9 -0.75 Q-5.1 -0.8 -5.15 -0.9 L-5.2 -1.0 -5.15 -1.2 -5.05 -1.3 -5.1 -1.4 -5.15 -1.45 Q-5.4 -1.4 -5.6 -1.55 L-5.85 -1.65 -6.05 -1.65 Q-6.1 -1.55 -6.15 -1.35 L-6.15 -1.05 -6.8 -1.05 -6.9 -1.1 Q-6.7 -1.4 -6.45 -1.2 -6.4 -1.1 -6.35 -1.15 -6.3 -1.2 -6.25 -1.45 -6.25 -1.6 -6.05 -1.8 M-10.1 0.4 Q-10.0 0.45 -9.95 0.45 L-10.15 0.55 -10.2 0.5 Q-10.25 0.55 -10.25 0.65 -10.25 0.75 -10.15 0.8 -10.05 0.9 -10.05 0.95 -10.05 1.0 -10.0 1.1 L-9.75 1.3 Q-9.85 1.35 -10.05 1.85 -10.2 2.2 -10.5 2.3 -10.7 2.3 -10.7 2.2 L-10.9 2.2 -10.85 2.15 -10.75 2.2 -10.45 2.2 Q-10.2 2.05 -10.1 1.75 -10.0 1.4 -9.9 1.3 L-10.15 1.0 Q-10.35 0.75 -10.35 0.65 -10.35 0.5 -10.3 0.45 L-10.2 0.4 -10.1 0.4 M-10.3 4.9 Q-10.4 4.7 -10.65 4.35 L-10.95 3.95 -11.3 3.95 -11.7 4.45 -12.0 4.45 -12.05 4.3 Q-12.1 4.25 -12.1 4.15 -12.1 4.0 -12.1 4.05 L-12.05 4.1 -11.9 4.3 -11.7 4.3 Q-11.65 4.25 -11.6 4.15 L-11.55 3.95 Q-11.45 3.8 -10.95 3.85 L-10.55 4.35 Q-10.25 4.8 -10.25 4.95 -10.25 5.05 -10.35 5.1 L-10.7 5.35 -10.55 5.1 -10.3 4.9 M-13.2 1.0 Q-13.55 1.25 -13.65 1.7 L-13.75 2.4 -13.85 2.4 -13.9 2.25 Q-13.9 1.8 -13.7 1.55 L-13.2 0.85 Q-12.95 1.1 -12.95 1.25 L-12.4 1.3 -12.3 1.35 -12.25 1.4 -12.4 1.4 -13.05 1.3 -13.2 1.0 M-11.8 1.65 L-12.2 1.75 Q-12.05 1.55 -11.95 1.55 L-11.75 1.6 Q-11.7 1.7 -11.8 1.9 -11.5 1.8 -11.45 1.85 -11.45 1.9 -11.55 1.95 L-11.7 2.0 -11.85 2.0 Q-11.85 1.85 -11.8 1.65 M-14.35 4.9 L-14.25 4.7 -14.1 4.6 -13.9 4.55 -14.05 4.4 -14.1 4.25 -14.1 4.2 Q-13.95 4.25 -13.85 4.5 -13.85 4.65 -13.9 4.65 L-14.1 4.7 Q-14.35 5.05 -14.35 5.1 -14.2 5.95 -13.95 5.95 -13.9 5.95 -13.75 5.85 L-13.6 5.7 Q-13.45 5.7 -13.35 5.9 L-13.25 6.1 -13.3 6.1 -13.4 6.0 Q-13.5 5.9 -13.55 5.85 L-13.75 6.0 Q-13.85 6.1 -14.0 6.1 -14.15 6.1 -14.45 5.1 -14.45 5.05 -14.35 4.9 M-12.5 5.05 Q-12.55 5.1 -12.7 5.1 L-12.75 5.2 -12.8 5.4 Q-12.8 5.7 -12.6 5.85 L-12.15 6.05 Q-11.9 6.15 -11.85 6.3 -11.7 6.55 -11.85 7.0 L-11.65 7.1 -11.4 7.25 -11.65 7.25 -11.8 7.2 Q-11.8 7.15 -11.85 7.1 -11.9 7.05 -11.9 6.95 -11.9 6.85 -11.85 6.8 -11.8 6.7 -11.8 6.6 -11.8 6.4 -11.95 6.25 -12.0 6.2 -12.3 6.1 -12.85 5.9 -12.85 5.4 -12.85 5.1 -12.8 5.05 -12.75 4.9 -12.45 4.9 L-12.5 5.05 M-12.65 6.55 Q-12.55 6.65 -12.55 6.7 L-12.5 6.75 -12.75 6.75 -12.85 6.65 Q-12.9 6.6 -12.9 6.5 L-12.8 6.5 -12.65 6.55 M-11.4 5.75 L-11.35 5.55 Q-11.3 5.5 -11.15 5.55 -11.1 5.6 -11.1 5.7 L-11.15 5.7 -11.2 5.6 Q-11.25 5.8 -11.25 5.9 -11.2 6.05 -11.2 6.1 -11.4 5.9 -11.4 5.75" fill="#ffffff" fill-rule="evenodd" stroke="none"/>
  </g>
</svg>
