<?xml version="1.0" encoding="UTF-8" standalone="no"?>
<svg xmlns:ffdec="https://www.free-decompiler.com/flash" xmlns:xlink="http://www.w3.org/1999/xlink" ffdec:objectType="shape" height="8.6px" width="9.65px" xmlns="http://www.w3.org/2000/svg">
  <g transform="matrix(1.0, 0.0, 0.0, 1.0, 14.65, 2.2)">
    <path d="M-10.35 -0.1 L-10.3 -0.05 -10.2 0.3 -10.2 0.4 -10.35 0.55 -10.35 0.5 -10.5 0.5 Q-10.55 0.45 -10.55 0.25 -10.55 0.05 -10.55 -0.05 L-10.45 -0.15 -10.4 -0.15 -10.35 -0.1 M-8.35 -1.55 L-8.35 -1.5 Q-8.45 -1.3 -8.55 -1.3 L-8.6 -1.3 -8.7 -1.35 Q-8.8 -1.4 -8.85 -1.45 L-8.85 -1.55 Q-8.8 -1.65 -8.7 -1.7 L-8.5 -1.7 Q-8.45 -1.7 -8.45 -1.65 L-8.35 -1.55 M-6.0 -2.2 Q-5.7 -2.15 -5.7 -2.05 -5.65 -2.0 -5.7 -1.95 L-5.75 -1.9 -6.0 -1.9 Q-6.15 -1.85 -6.15 -1.95 L-6.2 -1.85 -6.35 -1.85 -6.4 -1.9 -6.4 -2.0 -6.3 -2.1 -6.25 -2.2 -6.0 -2.2 M-6.6 -1.85 Q-6.35 -1.8 -6.35 -1.65 L-6.35 -1.6 -6.4 -1.55 -6.45 -1.55 -6.6 -1.5 -6.7 -1.5 Q-6.85 -1.55 -6.9 -1.6 L-6.9 -1.7 -6.8 -1.85 -6.6 -1.85 M-5.3 -2.15 Q-5.15 -2.1 -5.0 -1.95 L-5.0 -1.8 Q-5.05 -1.7 -5.15 -1.7 L-5.2 -1.7 -5.35 -1.8 -5.6 -2.0 -5.6 -2.15 Q-5.55 -2.2 -5.5 -2.2 L-5.3 -2.15 M-10.2 0.7 L-10.05 0.85 -9.95 0.9 -9.95 0.95 Q-9.9 1.0 -9.95 1.05 L-10.05 1.2 -10.3 1.45 -10.35 1.45 -10.45 1.4 Q-10.55 1.4 -10.55 1.35 -10.6 1.3 -10.55 1.25 -10.5 1.2 -10.45 1.15 L-10.3 1.05 -10.25 0.95 -10.3 0.9 -10.3 0.75 -10.25 0.7 -10.2 0.7 M-11.25 3.25 L-11.2 3.3 -11.15 3.45 -11.15 3.55 -11.2 3.55 -11.25 3.6 -11.65 3.6 -11.65 3.65 Q-11.6 3.75 -11.8 4.0 L-11.9 4.0 Q-12.2 4.0 -12.25 3.9 L-12.25 3.75 Q-12.15 3.65 -11.75 3.55 L-11.75 3.45 Q-11.65 3.3 -11.6 3.3 -11.55 3.2 -11.3 3.2 -11.25 3.2 -11.25 3.25 M-11.05 3.45 L-10.85 3.45 -10.8 3.5 -10.8 3.55 Q-10.8 3.6 -10.75 3.65 L-10.75 3.7 -10.85 3.8 -11.0 3.8 Q-11.05 3.8 -11.05 3.75 L-11.1 3.7 -11.1 3.65 -11.15 3.6 Q-11.15 3.45 -11.05 3.45 M-10.65 4.55 L-10.5 4.45 -10.45 4.45 Q-10.4 4.45 -10.4 4.5 -10.35 4.5 -10.35 4.55 -10.35 4.6 -10.55 4.85 L-10.8 4.85 -10.85 4.8 -10.85 4.7 Q-10.8 4.6 -10.65 4.55 M-11.25 4.95 L-11.25 5.05 Q-11.3 5.15 -11.35 5.4 L-11.4 5.45 -11.55 5.45 -11.6 5.4 -11.65 5.3 -11.65 4.9 -11.6 4.85 -11.55 4.85 Q-11.4 4.85 -11.3 4.9 L-11.25 4.95 M-12.1 1.1 L-12.05 1.05 -12.0 1.05 -11.9 1.1 Q-11.75 1.1 -11.75 1.2 L-11.75 1.3 Q-11.8 1.4 -11.9 1.4 L-11.95 1.4 Q-12.15 1.35 -12.15 1.25 L-12.15 1.15 -12.1 1.1 M-12.95 0.55 L-12.9 0.6 -12.85 0.7 -12.85 0.8 Q-12.9 1.0 -12.9 1.05 L-12.9 1.1 Q-13.0 1.25 -13.3 1.4 L-13.5 1.4 -13.6 1.35 -13.9 1.0 -13.95 1.0 Q-14.0 1.1 -14.05 1.15 L-14.1 1.15 -14.15 1.1 Q-14.25 1.0 -14.25 0.9 L-14.2 0.85 -14.05 0.65 Q-14.0 0.6 -13.95 0.6 L-13.7 0.6 -13.7 0.65 Q-13.65 0.8 -13.55 0.9 -13.5 1.0 -13.4 1.0 -13.25 1.0 -13.2 0.85 L-13.15 0.65 -13.15 0.55 Q-13.1 0.55 -13.05 0.55 L-12.95 0.55 M-13.9 3.8 Q-13.9 3.9 -13.9 4.15 L-13.9 4.2 -14.0 4.3 -14.25 4.3 -14.25 4.4 -14.35 4.6 -14.4 4.65 -14.5 4.7 -14.55 4.7 -14.6 4.65 Q-14.65 4.6 -14.65 4.3 L-14.6 4.2 -14.35 4.2 -14.3 4.15 -14.2 3.95 -14.05 3.8 Q-14.05 3.75 -14.0 3.75 L-13.95 3.75 -13.9 3.8 M-14.45 5.05 Q-14.35 5.05 -14.2 5.2 L-14.0 5.35 -13.95 5.45 -14.0 5.5 -14.0 5.55 Q-14.05 5.6 -14.1 5.65 L-14.15 5.65 Q-14.3 5.6 -14.4 5.5 L-14.55 5.3 -14.55 5.15 -14.5 5.1 Q-14.5 5.05 -14.45 5.05 M-13.95 5.25 L-13.9 5.15 Q-13.85 5.1 -13.65 5.1 L-13.6 5.1 -13.55 5.15 -13.5 5.25 -13.5 5.4 -13.55 5.45 -13.65 5.45 -13.75 5.4 Q-13.9 5.4 -13.9 5.3 L-13.95 5.25 M-12.7 4.55 L-12.7 4.6 Q-12.75 4.65 -12.75 4.8 L-12.75 4.85 -12.8 4.9 Q-12.8 4.95 -12.75 5.0 L-12.65 5.4 -12.6 5.5 -12.65 5.55 -12.7 5.55 -12.7 5.6 -12.8 5.6 -12.8 5.55 -12.95 5.25 Q-13.0 5.1 -13.0 5.0 L-12.95 4.9 -13.0 4.85 -13.0 4.35 Q-12.95 4.25 -12.7 4.45 L-12.7 4.55 M-13.0 6.0 Q-12.95 5.95 -12.9 5.95 L-12.85 6.0 Q-12.75 6.05 -12.65 6.15 L-12.6 6.2 -12.6 6.3 -12.7 6.4 -12.9 6.4 Q-13.0 6.4 -13.0 6.15 L-13.0 6.0" fill="#ffffff" fill-opacity="0.5019608" fill-rule="evenodd" stroke="none"/>
    <path d="M-10.4 0.0 L-10.3 0.35 -10.35 0.4 -10.45 0.4 Q-10.5 0.35 -10.5 0.25 -10.5 0.1 -10.45 0.0 L-10.4 0.0 M-8.45 -1.5 Q-8.5 -1.4 -8.55 -1.4 L-8.65 -1.45 Q-8.75 -1.45 -8.75 -1.5 L-8.65 -1.6 -8.5 -1.6 -8.45 -1.5 M-6.0 -2.1 Q-5.8 -2.05 -5.75 -2.0 L-6.05 -2.0 -6.25 -1.95 -6.3 -1.95 -6.25 -2.05 -6.2 -2.1 -6.0 -2.1 M-6.45 -1.65 L-6.45 -1.6 -6.7 -1.6 -6.8 -1.65 -6.75 -1.75 -6.6 -1.75 Q-6.45 -1.7 -6.45 -1.65 M-5.1 -1.85 L-5.15 -1.8 -5.3 -1.9 -5.5 -2.05 -5.3 -2.05 Q-5.2 -2.0 -5.1 -1.85 M-10.25 1.1 L-10.15 0.95 -10.15 0.85 -10.0 1.0 -10.15 1.15 Q-10.25 1.3 -10.35 1.35 L-10.45 1.3 Q-10.5 1.3 -10.4 1.25 L-10.25 1.1 M-11.25 3.45 L-11.3 3.5 -11.65 3.5 -11.55 3.35 Q-11.5 3.3 -11.3 3.3 L-11.25 3.45 M-11.0 3.65 L-11.05 3.6 Q-11.05 3.55 -10.9 3.55 L-10.9 3.6 -10.85 3.65 -11.0 3.65 M-10.65 4.65 L-10.45 4.55 Q-10.45 4.6 -10.6 4.75 L-10.75 4.75 Q-10.75 4.7 -10.65 4.65 M-11.95 1.2 Q-11.85 1.2 -11.85 1.25 L-11.9 1.3 Q-12.05 1.25 -12.05 1.2 L-12.0 1.15 -11.95 1.2 M-13.3 1.3 L-13.5 1.3 Q-13.85 0.85 -13.9 0.85 -14.0 0.85 -14.05 0.95 L-14.1 1.05 Q-14.15 0.95 -14.15 0.9 L-13.95 0.7 -13.8 0.7 Q-13.75 0.85 -13.65 0.95 -13.5 1.1 -13.4 1.1 -13.15 1.1 -13.1 0.9 -13.05 0.8 -13.05 0.65 L-13.0 0.65 -12.95 0.75 -13.0 1.0 Q-13.1 1.15 -13.3 1.3 M-14.55 4.3 Q-14.4 4.3 -14.35 4.35 L-14.45 4.55 -14.5 4.6 Q-14.55 4.55 -14.55 4.3 M-14.45 5.15 Q-14.35 5.15 -14.25 5.25 L-14.05 5.45 -14.15 5.55 Q-14.25 5.5 -14.35 5.4 L-14.45 5.25 -14.45 5.15 M-13.85 5.25 Q-13.8 5.2 -13.65 5.2 L-13.6 5.3 -13.6 5.35 -13.75 5.3 Q-13.8 5.3 -13.85 5.25 M-14.1 4.0 L-14.0 3.85 Q-13.95 3.9 -13.95 4.15 L-14.0 4.15 -14.05 4.2 -14.25 4.2 Q-14.15 4.1 -14.1 4.0 M-12.15 3.8 Q-12.1 3.75 -11.7 3.65 -11.7 3.75 -11.9 3.9 -12.15 3.9 -12.15 3.8 M-12.95 4.55 L-12.9 4.45 Q-12.9 4.4 -12.8 4.5 -12.85 4.6 -12.85 4.8 L-12.9 4.8 -12.95 4.55 M-12.85 5.0 Q-12.85 5.15 -12.7 5.45 L-12.75 5.5 -12.85 5.25 -12.9 5.0 -12.85 5.0 M-11.55 5.1 L-11.55 4.95 Q-11.45 4.95 -11.3 5.0 -11.4 5.1 -11.45 5.35 L-11.5 5.35 -11.55 5.25 -11.55 5.1 M-12.95 6.15 Q-12.95 6.05 -12.9 6.05 L-12.9 6.1 Q-12.8 6.15 -12.7 6.25 L-12.75 6.3 -12.9 6.3 Q-12.95 6.3 -12.95 6.15" fill="#ffffff" fill-rule="evenodd" stroke="none"/>
  </g>
</svg>
