<?xml version="1.0" encoding="UTF-8" standalone="no"?>
<svg xmlns:ffdec="https://www.free-decompiler.com/flash" xmlns:xlink="http://www.w3.org/1999/xlink" ffdec:objectType="shape" height="2.9px" width="8.25px" xmlns="http://www.w3.org/2000/svg">
  <g transform="matrix(1.0, 0.0, 0.0, 1.0, 4.6, 2.8)">
    <path d="M1.85 -2.05 Q1.7 -1.95 1.6 -1.7 1.45 -1.35 1.3 -1.2 L1.25 -1.15 Q0.4 -0.95 -0.35 -0.6 -0.7 -0.4 -1.0 -0.25 L-1.15 -0.15 Q-1.7 0.1 -1.75 0.1 -2.15 0.1 -2.5 -0.05 L-2.85 -0.3 -3.15 -0.5 Q-3.25 -0.6 -3.4 -0.65 -3.6 -0.65 -3.7 -0.7 L-3.8 -0.75 -3.9 -0.75 Q-4.05 -0.8 -4.1 -0.85 L-4.3 -0.85 -4.3 -0.9 -4.35 -0.85 -4.4 -0.75 -4.35 -0.45 -4.25 -0.25 -4.05 -0.35 -4.0 -0.35 Q-3.9 -0.35 -3.9 -0.3 L-3.9 -0.2 -3.95 -0.1 Q-4.05 0.0 -4.1 -0.05 L-4.15 -0.1 Q-4.15 0.0 -4.25 0.0 -4.5 0.0 -4.6 -0.7 -4.6 -0.8 -4.5 -0.95 L-4.35 -1.2 -4.25 -1.2 -4.15 -1.05 -4.0 -1.05 -3.95 -1.0 -3.9 -0.9 -3.85 -0.95 -3.8 -0.95 -3.55 -0.85 -3.5 -0.85 -3.15 -0.9 Q-3.1 -0.9 -2.95 -0.8 L-2.85 -0.75 Q-2.65 -0.7 -2.3 -0.55 L-2.05 -0.35 Q-1.95 -0.25 -1.75 -0.2 L-1.05 -0.45 -1.0 -0.5 -0.95 -0.5 -0.7 -0.7 Q-0.5 -0.8 -0.4 -0.9 L-0.2 -1.1 0.0 -1.35 0.5 -1.7 1.0 -2.1 1.05 -2.15 1.55 -2.3 2.35 -2.5 2.6 -2.55 3.4 -2.8 3.55 -2.8 3.55 -2.75 3.6 -2.75 3.6 -2.05 3.65 -1.85 Q3.65 -1.75 3.5 -1.6 L3.5 -1.55 3.3 -1.4 Q3.25 -1.35 3.2 -1.35 3.15 -1.4 3.15 -1.5 3.1 -1.6 3.3 -1.75 3.4 -1.85 3.4 -1.9 L3.4 -2.05 Q3.35 -2.15 3.35 -2.3 L3.35 -2.5 2.9 -2.35 2.85 -2.35 2.05 -2.15 1.85 -2.05" fill="#00ffff" fill-opacity="0.5019608" fill-rule="evenodd" stroke="none"/>
    <path d="M1.8 -2.1 Q1.65 -2.05 1.5 -1.7 1.35 -1.35 1.25 -1.25 0.35 -1.0 -0.35 -0.65 L-1.05 -0.3 -1.2 -0.2 Q-1.7 0.05 -1.75 0.05 -2.15 0.05 -2.45 -0.1 -2.6 -0.2 -2.8 -0.35 L-3.1 -0.55 Q-3.25 -0.65 -3.4 -0.7 L-3.65 -0.75 -3.85 -0.85 -3.8 -0.9 -3.55 -0.8 -3.5 -0.8 -3.15 -0.85 Q-3.1 -0.85 -3.0 -0.75 L-2.9 -0.65 Q-2.7 -0.65 -2.35 -0.5 L-2.1 -0.3 Q-1.95 -0.15 -1.75 -0.1 L-1.0 -0.4 -0.95 -0.45 -0.9 -0.45 -0.9 -0.5 -0.7 -0.65 -0.35 -0.85 -0.15 -1.1 0.05 -1.3 0.55 -1.65 1.05 -2.05 1.55 -2.25 2.35 -2.45 2.65 -2.5 3.45 -2.75 3.45 -2.7 3.5 -2.75 3.5 -2.6 3.5 -2.1 3.55 -2.05 3.6 -1.85 Q3.6 -1.8 3.45 -1.65 L3.25 -1.45 3.2 -1.45 3.2 -1.5 Q3.2 -1.55 3.35 -1.7 3.5 -1.8 3.5 -1.9 L3.45 -2.1 Q3.4 -2.15 3.4 -2.3 L3.4 -2.55 3.15 -2.5 2.9 -2.4 2.95 -2.45 2.85 -2.45 2.0 -2.25 1.8 -2.1 M0.45 -1.3 Q0.7 -1.55 0.8 -1.75 L0.15 -1.2 -0.55 -0.65 -0.05 -0.9 -0.05 -0.95 Q0.15 -1.0 0.45 -1.3 M-4.2 -1.0 L-4.0 -0.95 Q-3.95 -0.85 -3.85 -0.8 -4.0 -0.85 -4.05 -0.9 L-4.25 -0.9 -4.25 -1.05 -4.4 -0.9 -4.5 -0.75 Q-4.5 -0.65 -4.4 -0.45 L-4.25 -0.2 -4.05 -0.3 -3.95 -0.25 Q-4.0 -0.1 -4.05 -0.1 L-4.15 -0.15 -4.2 -0.1 -4.25 -0.1 Q-4.4 -0.1 -4.55 -0.7 L-4.45 -0.95 -4.3 -1.15 Q-4.2 -1.05 -4.2 -1.0" fill="#ffffff" fill-rule="evenodd" stroke="none"/>
  </g>
</svg>
