<?xml version="1.0" encoding="UTF-8" standalone="no"?>
<svg xmlns:ffdec="https://www.free-decompiler.com/flash" xmlns:xlink="http://www.w3.org/1999/xlink" ffdec:objectType="shape" height="6.2px" width="11.5px" xmlns="http://www.w3.org/2000/svg">
  <g transform="matrix(1.0, 0.0, 0.0, 1.0, 6.8, 8.0)">
    <path d="M2.35 -6.9 L2.8 -7.5 2.85 -7.55 2.9 -7.55 2.95 -7.5 2.95 -7.4 3.0 -7.4 3.3 -7.35 Q3.65 -7.35 3.8 -7.6 L4.05 -7.95 4.1 -8.0 4.15 -8.0 4.2 -7.95 4.25 -7.95 4.25 -7.9 4.4 -7.8 4.4 -7.7 4.35 -7.65 4.3 -7.7 Q4.25 -7.7 4.2 -7.75 4.1 -7.25 4.15 -6.9 L4.15 -6.85 4.1 -6.8 3.8 -6.8 Q3.6 -6.8 3.55 -6.85 3.2 -6.85 2.95 -6.7 L2.5 -6.45 Q2.15 -6.2 2.15 -5.95 L2.15 -5.75 2.1 -5.7 2.05 -5.7 2.0 -5.75 1.95 -5.75 1.95 -5.8 Q1.85 -5.9 1.85 -6.0 L1.85 -6.1 1.8 -6.25 Q1.8 -6.3 1.85 -6.4 L1.9 -6.5 Q1.95 -6.65 2.25 -6.8 L2.35 -6.9 M2.9 -7.3 L2.85 -7.35 2.85 -7.3 2.9 -7.3 M4.55 -7.6 L4.65 -7.5 4.65 -6.7 4.55 -6.6 4.5 -6.65 4.5 -6.7 Q4.45 -6.9 4.5 -7.45 L4.5 -7.6 4.55 -7.6 M4.4 -6.2 Q4.4 -6.25 4.45 -6.3 L4.5 -6.3 4.55 -6.25 Q4.7 -6.1 4.7 -5.95 4.7 -5.9 4.4 -5.4 L3.9 -4.75 3.6 -4.15 Q3.3 -3.55 3.15 -3.55 3.05 -3.55 2.7 -3.7 L2.3 -3.9 1.95 -4.0 1.2 -4.15 1.15 -4.15 0.7 -4.2 0.3 -4.25 0.2 -4.25 0.15 -4.05 Q0.05 -4.0 0.0 -3.8 L-0.05 -3.6 Q-0.1 -3.4 -0.3 -3.4 L-0.35 -3.45 -0.35 -3.5 Q-0.15 -3.65 -0.15 -3.95 -0.05 -4.25 0.15 -4.4 L0.15 -4.45 0.3 -4.45 0.55 -4.4 1.0 -4.3 1.5 -4.3 2.05 -4.2 2.5 -4.0 Q2.95 -3.85 3.1 -3.85 3.2 -3.85 3.4 -4.25 L3.75 -4.9 4.25 -5.6 4.55 -5.95 4.45 -6.15 4.4 -6.2 M0.6 -3.55 L0.6 -3.7 1.35 -3.7 1.35 -3.75 1.45 -3.75 1.45 -3.6 Q1.45 -3.45 1.3 -3.45 L1.1 -3.45 Q1.05 -3.4 0.85 -3.5 L0.8 -3.5 Q0.7 -3.5 0.7 -3.55 L0.65 -3.5 Q0.6 -3.5 0.6 -3.55 M-5.6 -3.5 L-5.8 -3.35 Q-6.1 -3.15 -6.45 -2.7 L-6.45 -2.7 -6.4 -2.65 -6.35 -2.65 -6.35 -2.6 -6.2 -2.55 Q-5.95 -2.4 -5.55 -2.4 L-5.25 -2.4 -4.6 -2.6 Q-4.45 -2.6 -4.25 -2.5 L-4.1 -2.35 Q-4.1 -2.25 -4.15 -2.25 L-4.2 -2.2 -4.25 -2.25 -4.3 -2.25 -4.55 -2.15 -4.8 -2.0 -4.85 -2.0 Q-5.1 -1.8 -5.2 -1.8 -5.4 -1.8 -5.65 -1.95 L-5.95 -2.05 -6.2 -2.15 -6.55 -2.3 -6.6 -2.3 -6.8 -2.55 -6.8 -2.65 -6.75 -2.7 -6.7 -2.8 -6.65 -2.8 Q-6.5 -3.1 -6.05 -3.4 -5.5 -3.75 -5.35 -3.75 -5.05 -3.75 -5.0 -3.65 L-4.95 -3.65 -4.85 -3.4 Q-4.8 -3.25 -4.45 -3.0 L-4.1 -2.7 Q-3.8 -2.4 -3.4 -2.4 -3.25 -2.4 -2.95 -2.6 L-2.6 -2.8 -2.45 -3.05 Q-2.35 -3.3 -2.15 -3.4 L-2.1 -3.4 -1.85 -3.45 -1.65 -3.5 Q-1.55 -3.5 -1.5 -3.4 L-1.5 -3.45 -1.35 -3.45 -1.35 -3.25 -1.5 -3.25 Q-1.6 -3.25 -1.65 -3.25 L-2.1 -3.2 Q-2.25 -3.1 -2.3 -2.9 -2.4 -2.65 -2.5 -2.6 -2.8 -2.45 -3.0 -2.35 -3.25 -2.2 -3.45 -2.2 -3.8 -2.2 -4.25 -2.55 L-4.65 -2.9 Q-4.8 -3.0 -5.0 -3.3 -5.15 -3.55 -5.25 -3.55 L-5.4 -3.55 -5.45 -3.5 -5.6 -3.5 M-6.6 -2.6 L-6.55 -2.55 -6.55 -2.65 -6.6 -2.65 -6.6 -2.6 M-1.4 -4.55 L-1.25 -4.7 -1.05 -4.95 Q-0.9 -5.05 -0.8 -5.0 -0.75 -5.0 -0.7 -4.95 L-0.5 -4.95 -0.5 -4.9 -0.4 -4.8 -0.35 -4.65 -0.3 -4.6 -0.3 -4.55 -0.45 -4.55 -0.5 -4.5 -0.65 -4.65 Q-0.85 -4.7 -0.9 -4.75 L-0.95 -4.75 -1.15 -4.55 -1.25 -4.4 -1.3 -4.25 -1.4 -4.05 -1.4 -4.0 -1.5 -4.0 Q-1.55 -4.0 -1.55 -4.1 L-1.55 -4.2 -1.4 -4.5 -1.4 -4.55" fill="#00ffff" fill-opacity="0.5019608" fill-rule="evenodd" stroke="none"/>
    <path d="M2.4 -6.85 L2.85 -7.5 2.85 -7.4 3.0 -7.35 3.3 -7.3 Q3.7 -7.3 3.85 -7.55 L4.1 -7.95 4.2 -7.9 4.35 -7.75 4.15 -7.85 Q4.05 -7.3 4.1 -6.9 L3.8 -6.85 Q3.6 -6.9 3.6 -6.95 3.2 -6.9 2.9 -6.75 L2.45 -6.5 Q2.1 -6.2 2.05 -5.95 L2.1 -5.9 2.05 -5.9 2.1 -5.8 2.0 -5.8 2.0 -5.85 Q1.95 -5.9 1.9 -6.0 L1.9 -6.1 1.85 -6.25 1.95 -6.35 1.95 -6.45 Q2.0 -6.6 2.35 -6.75 L2.4 -6.85 M4.55 -7.55 L4.6 -7.45 4.55 -6.7 Q4.5 -6.9 4.55 -7.45 L4.55 -7.55 M4.5 -6.2 L4.5 -6.25 Q4.65 -6.1 4.65 -5.95 4.65 -5.9 4.35 -5.45 L3.85 -4.8 3.55 -4.2 Q3.25 -3.65 3.15 -3.65 3.05 -3.65 2.75 -3.8 L2.3 -3.95 1.95 -4.05 1.2 -4.2 0.7 -4.25 0.3 -4.35 0.25 -4.3 Q0.2 -4.3 0.15 -4.3 0.15 -4.2 0.1 -4.1 0.0 -4.05 -0.05 -3.8 -0.05 -3.7 -0.1 -3.65 -0.15 -3.5 -0.3 -3.45 -0.1 -3.6 -0.05 -3.9 0.0 -4.2 0.2 -4.35 L0.3 -4.4 0.55 -4.3 1.0 -4.25 1.5 -4.25 2.05 -4.15 2.5 -3.95 Q2.95 -3.75 3.1 -3.75 3.25 -3.75 3.45 -4.2 L3.8 -4.85 4.3 -5.55 4.6 -5.95 4.55 -6.1 4.5 -6.2 M0.65 -3.65 L1.15 -3.65 1.15 -3.6 1.3 -3.65 1.4 -3.7 1.4 -3.65 Q1.4 -3.55 1.3 -3.5 L1.1 -3.5 Q1.05 -3.5 0.9 -3.55 0.85 -3.6 0.8 -3.6 L0.65 -3.6 0.65 -3.65 M1.4 -3.7 Q1.4 -3.8 1.55 -3.8 L1.6 -3.8 1.45 -3.65 1.4 -3.65 1.4 -3.7 M-5.85 -3.4 Q-6.2 -3.2 -6.55 -2.7 L-6.4 -2.55 -6.25 -2.45 Q-5.95 -2.35 -5.55 -2.35 L-5.25 -2.35 -4.6 -2.55 Q-4.45 -2.55 -4.3 -2.45 L-4.15 -2.35 -4.2 -2.3 -4.3 -2.3 -4.6 -2.2 -4.85 -2.1 -4.9 -2.1 -4.9 -2.05 Q-5.1 -1.85 -5.2 -1.85 -5.4 -1.85 -5.65 -2.0 L-5.9 -2.15 -6.15 -2.25 -6.55 -2.35 -6.75 -2.55 -6.65 -2.75 -6.65 -2.7 -6.7 -2.6 Q-6.7 -2.55 -6.3 -2.4 L-6.4 -2.45 Q-6.55 -2.55 -6.55 -2.65 L-6.65 -2.65 Q-6.55 -2.95 -6.0 -3.35 -5.5 -3.7 -5.35 -3.7 -5.1 -3.7 -5.05 -3.6 L-4.9 -3.35 Q-4.85 -3.25 -4.5 -2.95 L-4.15 -2.65 Q-3.8 -2.35 -3.4 -2.35 -3.25 -2.35 -2.9 -2.55 L-2.55 -2.75 -2.4 -3.05 Q-2.3 -3.25 -2.1 -3.35 L-1.8 -3.4 -1.65 -3.4 Q-1.55 -3.4 -1.55 -3.35 L-1.45 -3.35 -1.4 -3.4 -1.4 -3.3 -1.5 -3.3 -1.6 -3.35 -2.1 -3.25 Q-2.3 -3.15 -2.35 -2.95 -2.45 -2.7 -2.5 -2.65 -2.85 -2.5 -3.0 -2.4 -3.3 -2.25 -3.45 -2.25 -3.8 -2.25 -4.2 -2.6 L-4.6 -2.95 Q-4.75 -3.05 -4.95 -3.35 -5.15 -3.65 -5.25 -3.65 L-5.4 -3.6 -5.5 -3.6 -5.65 -3.55 -5.85 -3.4 M-1.4 -4.35 L-1.35 -4.5 -1.2 -4.65 -1.0 -4.9 Q-0.9 -4.95 -0.8 -4.95 -0.75 -4.95 -0.75 -4.9 L-0.65 -4.9 -0.55 -4.85 -0.45 -4.75 -0.45 -4.65 -0.35 -4.6 -0.5 -4.6 -0.55 -4.65 -0.55 -4.7 -0.6 -4.7 -0.65 -4.75 Q-0.85 -4.75 -0.9 -4.8 L-0.95 -4.8 -1.1 -4.7 -1.2 -4.6 -1.2 -4.55 -1.3 -4.4 -1.35 -4.25 -1.45 -4.05 -1.5 -4.1 -1.45 -4.15 -1.5 -4.15 -1.4 -4.35 M-4.85 -2.4 L-4.85 -2.4" fill="#ffffff" fill-rule="evenodd" stroke="none"/>
  </g>
</svg>
