<?xml version="1.0" encoding="UTF-8" standalone="no"?>
<svg xmlns:ffdec="https://www.free-decompiler.com/flash" xmlns:xlink="http://www.w3.org/1999/xlink" ffdec:objectType="shape" height="10.4px" width="11.4px" xmlns="http://www.w3.org/2000/svg">
  <g transform="matrix(1.0, 0.0, 0.0, 1.0, 5.7, 5.2)">
    <path d="M4.0 -3.65 Q5.7 -2.15 5.7 0.0 5.7 2.15 4.0 3.65 2.35 5.2 0.0 5.2 -2.35 5.2 -4.0 3.65 -5.7 2.15 -5.7 0.0 -5.7 -2.15 -4.0 -3.65 -2.35 -5.2 0.0 -5.2 2.35 -5.2 4.0 -3.65 M3.65 -3.35 Q2.15 -4.7 0.0 -4.7 -2.15 -4.7 -3.65 -3.35 -5.15 -1.95 -5.15 0.0 -5.15 1.95 -3.65 3.35 -2.15 4.7 0.0 4.7 2.15 4.7 3.65 3.35 5.15 1.95 5.15 0.0 5.15 -1.95 3.65 -3.35" fill="#ffffff" fill-rule="evenodd" stroke="none"/>
    <path d="M2.4 -2.2 Q3.4 -1.3 3.4 0.0 3.4 1.3 2.4 2.2 1.4 3.1 0.0 3.1 -1.4 3.1 -2.4 2.2 -3.4 1.3 -3.4 0.0 -3.4 -1.3 -2.4 -2.2 -1.4 -3.1 0.0 -3.1 1.4 -3.1 2.4 -2.2 M0.8 -0.7 Q0.45 -1.0 0.0 -1.0 -0.45 -1.0 -0.8 -0.7 -1.1 -0.4 -1.1 0.0 -1.1 0.4 -0.8 0.7 -0.45 1.0 0.0 1.0 0.45 1.0 0.8 0.7 1.1 0.4 1.1 0.0 1.1 -0.4 0.8 -0.7" fill="#ffffff" fill-opacity="0.8" fill-rule="evenodd" stroke="none"/>
    <path d="M3.65 -3.35 Q5.15 -1.95 5.15 0.0 5.15 1.95 3.65 3.35 2.15 4.7 0.0 4.7 -2.15 4.7 -3.65 3.35 -5.15 1.95 -5.15 0.0 -5.15 -1.95 -3.65 -3.35 -2.15 -4.7 0.0 -4.7 2.15 -4.7 3.65 -3.35 M3.25 -2.95 Q1.9 -4.15 0.0 -4.15 -1.9 -4.15 -3.25 -2.95 -4.55 -1.7 -4.55 0.0 -4.55 1.7 -3.25 2.95 -1.9 4.15 0.0 4.15 1.9 4.15 3.25 2.95 4.55 1.7 4.55 0.0 4.55 -1.7 3.25 -2.95" fill="#ffffff" fill-opacity="0.9490196" fill-rule="evenodd" stroke="none"/>
    <path d="M3.25 -2.95 Q4.55 -1.7 4.55 0.0 4.55 1.7 3.25 2.95 1.9 4.15 0.0 4.15 -1.9 4.15 -3.25 2.95 -4.55 1.7 -4.55 0.0 -4.55 -1.7 -3.25 -2.95 -1.9 -4.15 0.0 -4.15 1.9 -4.15 3.25 -2.95 M2.85 -2.6 Q1.7 -3.7 0.0 -3.7 -1.7 -3.7 -2.85 -2.6 -4.05 -1.55 -4.05 0.0 -4.05 1.55 -2.85 2.6 -1.7 3.7 0.0 3.7 1.7 3.7 2.85 2.6 4.05 1.55 4.05 0.0 4.05 -1.55 2.85 -2.6" fill="#ffffff" fill-opacity="0.9019608" fill-rule="evenodd" stroke="none"/>
    <path d="M2.85 -2.6 Q4.05 -1.55 4.05 0.0 4.05 1.55 2.85 2.6 1.7 3.7 0.0 3.7 -1.7 3.7 -2.85 2.6 -4.05 1.55 -4.05 0.0 -4.05 -1.55 -2.85 -2.6 -1.7 -3.7 0.0 -3.7 1.7 -3.7 2.85 -2.6 M2.4 -2.2 Q1.4 -3.1 0.0 -3.1 -1.4 -3.1 -2.4 -2.2 -3.4 -1.3 -3.4 0.0 -3.4 1.3 -2.4 2.2 -1.4 3.1 0.0 3.1 1.4 3.1 2.4 2.2 3.4 1.3 3.4 0.0 3.4 -1.3 2.4 -2.2" fill="#ffffff" fill-opacity="0.8509804" fill-rule="evenodd" stroke="none"/>
  </g>
</svg>
