<?xml version="1.0" encoding="UTF-8" standalone="no"?>
<svg xmlns:ffdec="https://www.free-decompiler.com/flash" xmlns:xlink="http://www.w3.org/1999/xlink" ffdec:objectType="shape" height="13.2px" width="91.8px" xmlns="http://www.w3.org/2000/svg">
  <g transform="matrix(1.0, 0.0, 0.0, 1.0, 45.9, 6.1)">
    <path d="M20.85 5.85 Q25.8 5.35 30.15 4.7 42.65 2.75 42.65 0.0 42.65 -2.7 30.15 -4.65 L24.4 -5.45 23.85 -5.55 23.55 -5.6 Q28.1 -5.2 32.1 -4.65 45.35 -2.7 45.35 0.0 45.35 2.75 32.1 4.65 26.9 5.4 20.85 5.85 M2.75 6.75 L-8.55 6.65 Q-8.6 6.6 -8.85 6.55 L-9.05 6.45 -8.8 6.4 Q-8.55 6.45 -8.45 6.5 L-2.1 6.5 2.95 6.35 6.55 6.25 8.05 6.35 6.45 6.5 2.75 6.75 M-25.65 -5.4 L-26.2 -5.35 -27.55 -5.05 -30.15 -4.65 Q-42.65 -2.7 -42.65 0.0 -42.65 2.75 -30.15 4.7 -25.8 5.35 -20.85 5.85 -26.9 5.4 -32.1 4.65 -45.35 2.75 -45.35 0.0 -45.35 -2.7 -32.1 -4.65 -29.0 -5.1 -25.65 -5.4" fill="#ffffff" fill-rule="evenodd" stroke="none"/>
    <path d="M20.85 5.85 Q26.9 5.4 32.1 4.65 45.35 2.75 45.35 0.0 45.35 -2.7 32.1 -4.65 28.1 -5.2 23.55 -5.6 M20.85 5.85 L10.3 6.45 M-25.65 -5.4 Q-29.0 -5.1 -32.1 -4.65 -45.35 -2.7 -45.35 0.0 -45.35 2.75 -32.1 4.65 -26.9 5.4 -20.85 5.85 L-10.3 6.45" fill="none" stroke="#ffffff" stroke-linecap="round" stroke-linejoin="round" stroke-opacity="0.5019608" stroke-width="0.35000000000000003"/>
  </g>
</svg>
