<?xml version="1.0" encoding="UTF-8" standalone="no"?>
<svg xmlns:ffdec="https://www.free-decompiler.com/flash" xmlns:xlink="http://www.w3.org/1999/xlink" ffdec:objectType="shape" height="11.8px" width="93.75px" xmlns="http://www.w3.org/2000/svg">
  <g transform="matrix(1.0, 0.0, 0.0, 1.0, 46.85, 4.6)">
    <path d="M39.35 -4.05 Q41.15 -3.6 42.1 -3.45 42.1 -3.4 42.3 -3.35 L42.45 -3.2 42.4 -3.2 Q41.95 -3.35 39.8 -3.75 L36.15 -4.45 36.2 -4.55 36.25 -4.6 Q37.8 -4.4 39.35 -4.05 M44.6 2.4 Q43.0 3.15 38.7 3.9 42.35 3.05 44.4 2.05 46.25 1.1 46.85 -0.05 L46.9 0.2 Q45.8 1.75 44.6 2.4 M21.1 6.25 L21.95 6.25 22.2 6.2 21.9 6.3 21.1 6.5 20.1 6.55 17.2 6.75 16.7 6.7 16.5 6.7 18.45 6.55 20.95 6.3 21.1 6.25 M-46.35 -0.8 Q-46.65 -0.25 -46.55 0.2 L-46.7 0.2 -46.8 0.15 Q-46.85 0.15 -46.85 -0.1 -46.85 -0.7 -46.5 -1.15 -46.2 -1.55 -45.55 -1.9 L-46.35 -0.8 M-42.25 -3.2 Q-41.25 -3.7 -40.55 -3.9 L-39.55 -4.1 Q-40.05 -3.95 -40.55 -3.65 -41.45 -3.45 -41.85 -3.2 L-42.25 -3.2 M-36.95 -4.5 L-37.3 -4.5 -36.75 -4.55 -36.95 -4.5 M-3.0 7.2 L-5.7 7.05 -3.25 7.05 -1.3 7.2 Q-1.4 7.25 -3.0 7.2 M-26.35 5.95 L-29.05 5.6 -30.25 5.45 -30.2 5.45 -30.5 5.4 -34.1 4.85 -34.0 4.75 -26.4 5.8 -26.35 5.95" fill="#ffffff" fill-rule="evenodd" stroke="none"/>
  </g>
</svg>
