<?xml version="1.0" encoding="UTF-8" standalone="no"?>
<svg xmlns:ffdec="https://www.free-decompiler.com/flash" xmlns:xlink="http://www.w3.org/1999/xlink" ffdec:objectType="shape" height="4.65px" width="14.3px" xmlns="http://www.w3.org/2000/svg">
  <g transform="matrix(1.0, 0.0, 0.0, 1.0, 7.5, 3.4)">
    <path d="M0.75 -1.7 Q2.75 -1.85 3.65 -2.15 L4.2 -2.4 Q4.55 -2.55 4.85 -2.65 L4.9 -2.65 4.95 -2.6 4.95 -2.55 Q4.95 -2.5 4.85 -2.4 4.45 -2.3 4.15 -2.2 L3.65 -1.95 Q3.3 -1.85 2.75 -1.7 2.0 -1.5 1.75 -1.5 L1.2 -1.5 Q0.65 -1.5 0.65 -1.6 0.65 -1.65 0.7 -1.65 L0.75 -1.7 M5.15 -2.8 L5.15 -2.85 Q5.1 -2.85 5.1 -2.9 5.1 -2.95 5.15 -2.95 5.45 -3.25 5.7 -3.4 L5.75 -3.4 Q5.85 -3.35 6.0 -3.15 L6.25 -2.9 Q6.45 -2.8 6.7 -2.7 6.8 -2.65 6.8 -2.45 6.8 -2.35 6.65 -2.0 L6.5 -1.65 Q6.55 -1.35 6.5 -1.2 6.5 -0.9 6.3 -0.75 L6.25 -0.75 Q5.75 -0.8 4.95 -0.45 4.15 0.0 3.95 0.1 L3.9 0.15 3.8 0.1 3.75 0.1 3.75 0.0 Q4.1 -0.35 4.8 -0.55 5.0 -0.6 5.05 -0.7 L5.05 -0.75 Q5.25 -0.85 6.2 -0.95 6.3 -1.1 6.3 -1.25 L6.3 -1.65 Q6.3 -1.75 6.45 -2.05 6.6 -2.35 6.6 -2.45 6.6 -2.55 6.25 -2.7 5.85 -2.9 5.75 -3.15 L5.5 -2.95 5.25 -2.8 5.15 -2.8 M-5.85 -2.3 Q-5.45 -2.7 -5.05 -2.85 L-5.0 -2.85 -4.9 -2.9 -4.65 -2.9 -4.65 -2.85 -4.55 -2.8 -4.55 -2.7 -5.05 -2.7 Q-5.7 -2.25 -6.25 -1.6 -6.95 -0.75 -7.25 -0.5 -7.05 -0.35 -6.55 -0.15 -6.0 0.05 -5.85 0.2 L-5.05 1.0 -4.75 0.95 -4.55 0.9 -4.5 0.9 -3.5 0.95 -3.2 1.0 Q-3.15 0.9 -3.05 0.9 L-2.85 0.9 -2.8 0.95 -2.8 1.1 -2.85 1.1 -2.9 1.15 -2.95 1.15 -3.0 1.2 -3.05 1.2 -3.1 1.25 Q-3.15 1.25 -3.25 1.2 L-3.3 1.2 -3.4 1.1 -4.5 1.15 Q-4.6 1.15 -5.05 1.2 L-5.3 1.2 Q-5.6 0.7 -6.0 0.4 -6.55 -0.05 -7.35 -0.2 L-7.35 -0.25 -7.45 -0.25 Q-7.5 -0.35 -7.5 -0.45 -7.55 -0.6 -7.0 -1.15 L-5.85 -2.3 M-4.45 -2.65 L-4.4 -2.7 -4.35 -2.7 -3.3 -2.4 -2.0 -2.1 -1.15 -1.95 Q-0.6 -1.9 -0.5 -1.85 -0.3 -1.85 -0.3 -1.75 -0.25 -1.75 -0.3 -1.7 L-0.3 -1.65 -0.4 -1.65 -0.95 -1.75 -1.55 -1.85 -1.8 -1.9 -2.1 -1.9 Q-3.05 -2.05 -3.55 -2.25 L-4.4 -2.5 -4.5 -2.6 Q-4.5 -2.65 -4.45 -2.65" fill="#00ffff" fill-opacity="0.5019608" fill-rule="evenodd" stroke="none"/>
    <path d="M0.75 -1.6 Q2.8 -1.75 3.65 -2.1 3.8 -2.15 4.25 -2.35 4.55 -2.5 4.9 -2.55 4.9 -2.5 4.85 -2.45 4.4 -2.4 4.15 -2.25 L3.65 -2.0 2.75 -1.75 Q2.0 -1.55 1.75 -1.55 L1.2 -1.55 0.75 -1.6 M5.2 -2.85 L5.2 -2.9 Q5.5 -3.2 5.75 -3.3 5.8 -3.3 5.95 -3.1 6.15 -2.9 6.2 -2.85 6.4 -2.7 6.65 -2.6 6.75 -2.6 6.75 -2.45 6.75 -2.35 6.6 -2.0 L6.45 -1.65 Q6.45 -1.35 6.45 -1.2 6.4 -0.95 6.25 -0.8 5.75 -0.9 4.95 -0.5 4.1 -0.05 3.9 0.05 L3.8 0.05 Q4.15 -0.25 4.85 -0.5 5.05 -0.55 5.1 -0.7 5.3 -0.8 6.2 -0.9 6.35 -1.05 6.4 -1.25 L6.4 -1.65 Q6.4 -1.75 6.55 -2.05 6.65 -2.35 6.65 -2.45 6.65 -2.6 6.3 -2.75 5.85 -2.95 5.8 -3.2 L5.75 -3.2 Q5.65 -3.15 5.45 -3.05 5.3 -2.9 5.2 -2.85 M-7.4 -0.35 Q-7.45 -0.35 -7.45 -0.45 -7.45 -0.6 -6.95 -1.1 L-6.4 -1.65 -5.85 -2.25 Q-5.4 -2.65 -5.05 -2.8 -5.75 -2.35 -6.35 -1.65 -7.1 -0.7 -7.35 -0.45 -7.2 -0.35 -6.6 -0.1 -6.0 0.1 -5.9 0.25 L-5.45 0.7 -5.05 1.05 -4.75 1.05 -4.5 0.95 -3.5 1.0 -3.2 1.05 -3.15 1.1 Q-3.15 1.0 -3.05 0.95 L-2.9 0.95 -2.85 1.05 -2.95 1.1 -3.15 1.15 -3.1 1.15 Q-3.15 1.2 -3.25 1.15 L-3.4 1.05 -4.5 1.05 Q-4.55 1.1 -5.05 1.15 L-5.2 1.15 Q-5.55 0.65 -5.95 0.35 -6.5 -0.1 -7.3 -0.3 L-7.4 -0.35 M-4.7 -2.85 L-4.7 -2.8 -4.65 -2.75 -5.0 -2.75 -4.9 -2.85 -4.7 -2.85 M-4.4 -2.65 L-3.35 -2.35 -2.05 -2.0 -1.15 -1.9 -0.5 -1.75 -0.35 -1.75 -0.4 -1.7 -0.95 -1.8 Q-1.35 -1.9 -1.5 -1.95 L-1.8 -1.95 -2.1 -2.0 Q-3.0 -2.1 -3.55 -2.3 L-4.4 -2.6 -4.4 -2.65" fill="#ffffff" fill-rule="evenodd" stroke="none"/>
  </g>
</svg>
