<?xml version="1.0" encoding="UTF-8" standalone="no"?>
<svg xmlns:ffdec="https://www.free-decompiler.com/flash" xmlns:xlink="http://www.w3.org/1999/xlink" ffdec:objectType="shape" height="5.75px" width="16.75px" xmlns="http://www.w3.org/2000/svg">
  <g transform="matrix(1.0, 0.0, 0.0, 1.0, 9.15, 5.0)">
    <path d="M3.4 -3.85 L3.45 -3.9 3.6 -3.85 3.7 -3.9 3.75 -3.9 3.75 -3.85 4.2 -3.85 Q5.05 -4.25 5.5 -4.0 5.95 -3.95 6.2 -3.8 6.3 -3.75 6.45 -3.65 L6.9 -3.5 Q7.2 -3.45 7.3 -3.3 7.4 -3.1 7.4 -2.7 L7.4 -2.3 7.5 -1.85 Q7.6 -1.2 7.6 -0.9 7.6 -0.7 7.6 -0.6 L7.55 -0.55 6.8 -0.35 6.75 -0.25 Q6.55 0.1 6.4 0.2 L6.35 0.25 6.2 0.2 6.05 0.2 Q5.15 0.25 4.7 0.45 4.35 0.6 4.15 0.7 4.1 0.75 4.05 0.75 4.0 0.75 4.0 0.65 L3.95 0.55 Q3.95 0.5 3.95 0.45 3.9 0.45 3.9 0.3 3.9 0.1 4.1 0.0 4.25 -0.15 4.3 -0.35 L4.3 -0.45 4.25 -0.45 4.3 -0.5 Q4.3 -0.6 4.7 -0.65 4.75 -0.65 5.05 -0.75 L5.35 -0.85 Q5.5 -0.85 5.8 -0.75 6.0 -0.65 6.1 -0.65 L6.35 -0.65 6.55 -0.9 Q6.65 -0.95 6.7 -1.0 7.0 -1.65 7.0 -1.95 7.0 -2.25 6.45 -2.75 5.9 -3.3 5.5 -3.45 5.05 -3.45 4.6 -3.55 L4.25 -3.65 3.95 -3.45 Q3.25 -3.05 3.05 -2.65 L3.0 -2.6 2.9 -2.35 Q2.85 -2.2 2.65 -2.1 2.5 -1.7 2.3 -1.5 L2.3 -1.45 0.95 -1.1 Q-0.2 -0.75 -0.3 -0.7 L-0.35 -0.7 Q-0.9 -0.75 -1.3 -1.05 L-1.6 -1.3 Q-1.75 -1.4 -1.85 -1.45 -2.05 -1.5 -2.5 -1.85 -3.05 -2.25 -3.05 -2.4 L-3.3 -2.6 -3.7 -3.1 -4.35 -3.55 -4.6 -3.7 -4.8 -3.8 -5.8 -3.8 Q-6.5 -3.75 -7.15 -3.6 L-7.55 -3.5 -7.6 -3.4 Q-7.7 -3.0 -7.75 -2.85 L-7.75 -2.8 Q-7.75 -2.65 -7.55 -2.4 L-7.3 -2.3 Q-6.9 -2.2 -6.35 -1.85 -5.5 -1.3 -5.35 -1.2 -5.3 -1.2 -5.3 -1.15 L-5.05 -1.05 Q-4.55 -0.9 -4.15 -0.8 L-4.0 -0.8 -3.95 -0.75 -3.95 -0.7 Q-3.95 -0.4 -3.65 -0.05 -3.4 0.25 -3.05 0.5 L-2.95 0.5 -2.85 0.6 -2.8 0.6 -2.8 0.75 -2.95 0.75 -3.05 0.7 Q-3.2 0.65 -3.35 0.6 L-4.4 0.6 -4.55 0.45 -4.6 0.5 -4.65 0.5 Q-4.75 0.4 -4.95 0.2 L-5.05 0.05 Q-5.25 -0.15 -5.5 -0.25 L-5.8 -0.4 -5.85 -0.4 -6.3 -0.6 -7.0 -0.85 -7.25 -0.8 Q-7.35 -0.75 -7.4 -0.75 -7.7 -0.75 -7.95 -1.3 -8.05 -1.55 -8.15 -1.9 L-8.65 -2.3 Q-9.2 -2.75 -9.15 -2.85 -9.2 -2.95 -8.95 -3.2 L-8.75 -3.4 -8.55 -3.7 Q-8.55 -4.0 -7.75 -4.35 -7.25 -4.6 -6.95 -4.65 L-6.85 -4.7 Q-6.55 -4.85 -6.2 -4.95 -5.8 -5.1 -5.55 -4.8 L-5.35 -4.6 Q-5.25 -4.5 -5.15 -4.4 -5.0 -4.35 -4.7 -4.05 L-4.6 -3.95 -4.5 -3.9 Q-4.3 -3.85 -4.15 -3.8 -3.9 -3.65 -3.7 -3.55 -3.5 -3.5 -3.25 -3.45 L-3.1 -3.5 -2.45 -3.55 -2.4 -3.6 -2.35 -3.6 Q-2.2 -3.6 -2.0 -3.5 -1.75 -3.4 -1.7 -3.3 L-1.65 -3.3 -1.35 -3.15 Q-1.0 -3.0 -0.55 -2.7 -0.1 -2.4 0.25 -2.25 L0.7 -2.25 0.75 -2.3 1.3 -2.3 1.35 -2.35 Q2.25 -2.3 2.45 -2.4 L2.5 -2.45 2.55 -2.8 Q2.6 -3.15 2.65 -3.3 2.7 -3.55 3.3 -3.75 L3.4 -3.85 M3.6 -3.65 Q3.5 -3.6 3.4 -3.55 3.3 -3.4 3.2 -3.15 3.5 -3.45 3.85 -3.65 L3.6 -3.65 M4.6 -3.8 L4.7 -3.75 Q5.25 -3.7 5.55 -3.6 L5.6 -3.65 5.6 -3.7 5.7 -3.7 5.9 -3.5 6.2 -3.3 Q6.35 -3.25 6.4 -3.15 L6.45 -3.15 7.15 -2.75 7.15 -3.0 Q7.15 -3.15 7.05 -3.2 L6.3 -3.55 Q5.95 -3.75 5.4 -3.85 5.05 -3.9 4.6 -3.8 M0.15 -2.05 L-0.05 -2.1 -0.1 -2.1 Q-0.7 -2.6 -0.95 -2.75 -1.35 -3.0 -2.15 -3.25 L-2.2 -3.25 -2.2 -3.35 -2.15 -3.35 -2.2 -3.4 -3.2 -3.3 -3.4 -3.3 -3.65 -3.35 Q-3.4 -3.15 -3.25 -2.85 L-3.0 -2.6 -2.9 -2.6 -2.85 -2.55 Q-2.8 -2.4 -2.6 -2.25 -2.35 -2.1 -2.1 -1.95 L-1.8 -1.75 Q-1.45 -1.6 -1.35 -1.5 L-0.35 -1.5 Q0.35 -1.55 0.75 -1.85 L1.0 -2.0 1.15 -2.1 0.75 -2.05 0.7 -2.05 Q0.25 -2.05 0.15 -2.1 L0.15 -2.05 M4.35 -0.05 L4.2 0.25 4.25 0.25 4.65 0.05 Q5.05 -0.2 5.3 -0.3 L5.7 -0.35 6.15 -0.4 6.1 -0.4 5.45 -0.65 Q5.35 -0.65 5.1 -0.55 4.8 -0.45 4.55 -0.4 L4.35 -0.05 M6.4 -0.45 Q6.4 -0.4 6.35 -0.4 L6.4 -0.4 6.4 -0.45 M6.45 -0.5 L6.45 -0.5 M-7.35 -4.0 L-7.35 -3.95 -7.4 -3.85 -7.1 -3.9 -6.7 -3.9 Q-6.45 -3.95 -6.3 -4.0 L-5.1 -4.0 -5.95 -4.4 -6.0 -4.45 -6.45 -4.55 -6.9 -4.4 -6.9 -4.35 -6.95 -4.35 Q-7.15 -4.2 -7.3 -4.0 L-7.35 -4.0 M-8.9 -2.85 Q-8.9 -2.75 -8.5 -2.45 -8.0 -2.0 -7.95 -1.95 -7.9 -1.9 -7.75 -1.45 -7.65 -1.15 -7.45 -1.0 L-7.4 -1.05 -7.35 -1.05 -7.0 -1.0 -6.95 -1.0 Q-6.15 -0.8 -5.8 -0.55 L-5.8 -0.5 -5.75 -0.5 -5.5 -0.45 -6.0 -1.0 Q-6.4 -1.05 -6.65 -1.35 L-7.35 -2.05 Q-7.6 -2.15 -7.9 -2.25 -8.2 -2.35 -8.25 -2.55 -8.3 -2.65 -8.3 -2.9 -8.3 -3.1 -8.35 -3.25 L-8.45 -3.4 -8.45 -3.45 -8.65 -3.2 -8.9 -2.85 M-5.2 -0.85 L-5.0 -0.45 -4.9 -0.2 Q-4.45 0.25 -4.3 0.4 L-3.45 0.45 Q-3.7 0.25 -3.8 0.2 L-3.85 0.15 Q-3.95 0.0 -4.05 -0.25 -4.15 -0.5 -4.15 -0.6 -4.35 -0.7 -4.9 -0.8 L-5.2 -0.85" fill="#00ffff" fill-opacity="0.5019608" fill-rule="evenodd" stroke="none"/>
    <path d="M3.45 -3.8 L3.6 -3.8 3.7 -3.85 3.65 -3.8 4.2 -3.75 4.2 -3.8 Q5.05 -4.2 5.45 -3.95 5.95 -3.85 6.15 -3.75 6.3 -3.7 6.45 -3.6 6.55 -3.55 6.9 -3.45 7.15 -3.35 7.2 -3.25 7.3 -3.1 7.3 -2.7 L7.3 -2.3 7.4 -1.85 Q7.55 -1.2 7.55 -0.9 7.55 -0.7 7.5 -0.6 L6.75 -0.45 6.65 -0.3 Q6.5 0.05 6.35 0.15 L6.2 0.15 6.05 0.1 Q5.15 0.2 4.65 0.35 4.3 0.55 4.1 0.65 L4.05 0.65 4.05 0.55 4.1 0.5 4.05 0.5 Q4.0 0.5 4.0 0.4 L4.0 0.35 3.95 0.4 3.95 0.3 Q3.95 0.15 4.1 0.05 4.3 -0.1 4.35 -0.3 4.35 -0.4 4.35 -0.45 4.4 -0.5 4.7 -0.6 4.8 -0.6 5.05 -0.7 L5.35 -0.8 Q5.5 -0.8 5.75 -0.65 6.0 -0.55 6.1 -0.55 L6.35 -0.6 6.6 -0.85 Q6.7 -0.9 6.75 -0.95 7.05 -1.65 7.05 -1.95 7.05 -2.25 6.5 -2.8 5.95 -3.35 5.5 -3.5 5.1 -3.55 4.6 -3.65 L4.25 -3.7 3.9 -3.5 Q3.2 -3.1 3.0 -2.65 L2.95 -2.65 2.85 -2.4 Q2.8 -2.25 2.55 -2.15 L2.55 -2.1 Q2.45 -1.75 2.25 -1.5 L0.95 -1.15 Q-0.2 -0.85 -0.3 -0.75 -0.85 -0.85 -1.25 -1.1 L-1.55 -1.35 Q-1.7 -1.45 -1.85 -1.5 -2.0 -1.6 -2.45 -1.9 -3.0 -2.25 -3.0 -2.4 L-3.2 -2.65 -3.65 -3.15 Q-3.75 -3.2 -4.3 -3.6 L-4.55 -3.8 -4.8 -3.85 -5.8 -3.85 Q-6.5 -3.85 -7.15 -3.7 L-7.6 -3.55 -7.65 -3.4 Q-7.8 -3.0 -7.8 -2.9 L-7.85 -2.8 Q-7.8 -2.6 -7.6 -2.35 L-7.55 -2.35 -7.35 -2.25 Q-6.9 -2.1 -6.4 -1.8 L-5.4 -1.15 -5.35 -1.05 -5.1 -1.0 Q-4.6 -0.8 -4.15 -0.75 L-4.0 -0.7 Q-4.0 -0.35 -3.7 0.0 -3.45 0.3 -3.1 0.55 L-3.0 0.55 -2.85 0.7 -2.9 0.7 -2.95 0.65 -3.05 0.65 Q-3.2 0.6 -3.35 0.55 L-4.4 0.5 -4.6 0.35 Q-4.65 0.3 -4.7 0.3 L-4.6 0.4 -4.9 0.15 -5.0 0.0 Q-5.2 -0.25 -5.5 -0.35 L-5.75 -0.45 Q-5.45 -0.4 -5.2 -0.3 L-6.0 -1.05 Q-6.35 -1.1 -6.6 -1.4 L-7.1 -1.9 -7.35 -2.1 -7.85 -2.3 Q-8.1 -2.4 -8.2 -2.6 -8.2 -2.65 -8.25 -2.9 -8.25 -3.15 -8.25 -3.3 L-8.45 -3.6 -8.7 -3.25 Q-9.0 -2.9 -9.0 -2.85 -9.0 -2.75 -8.55 -2.4 -8.05 -1.95 -8.0 -1.9 L-7.8 -1.45 Q-7.7 -1.1 -7.45 -0.9 L-7.35 -1.0 -7.0 -0.95 Q-7.2 -0.95 -7.25 -0.9 -7.35 -0.85 -7.4 -0.85 -7.7 -0.85 -7.9 -1.3 -8.0 -1.55 -8.1 -1.9 -8.1 -1.95 -8.6 -2.4 -9.1 -2.8 -9.1 -2.85 -9.1 -2.95 -8.9 -3.15 L-8.7 -3.4 -8.5 -3.7 Q-8.5 -3.95 -7.7 -4.3 -7.2 -4.5 -6.9 -4.6 L-6.85 -4.65 Q-6.55 -4.8 -6.2 -4.9 -5.85 -5.0 -5.6 -4.8 L-5.4 -4.55 Q-5.3 -4.4 -5.2 -4.35 -5.05 -4.25 -4.75 -4.0 L-4.65 -3.9 -4.5 -3.85 -4.15 -3.7 Q-3.9 -3.6 -3.75 -3.5 -3.55 -3.4 -3.2 -3.35 -3.2 -3.4 -3.1 -3.45 L-2.4 -3.5 Q-2.25 -3.5 -2.0 -3.4 -1.8 -3.35 -1.7 -3.25 L-2.2 -3.45 -3.2 -3.35 -3.4 -3.4 -3.8 -3.4 -4.0 -3.55 -4.25 -3.65 -4.15 -3.6 Q-3.65 -3.35 -3.3 -2.8 L-3.0 -2.45 -3.0 -2.5 -2.95 -2.55 Q-2.85 -2.4 -2.65 -2.15 -2.4 -2.05 -2.15 -1.9 L-1.85 -1.7 Q-1.45 -1.5 -1.35 -1.45 L-0.3 -1.45 Q0.35 -1.5 0.8 -1.75 L1.05 -1.95 Q1.2 -2.05 1.35 -2.05 2.2 -2.15 2.5 -2.2 L2.5 -2.25 Q2.2 -2.2 1.25 -2.15 L0.7 -2.1 0.15 -2.15 -0.05 -2.15 Q-0.65 -2.65 -0.95 -2.8 -1.35 -3.05 -2.15 -3.3 L-1.85 -3.3 Q-1.8 -3.25 -1.6 -3.2 L-1.4 -3.1 Q-1.05 -2.9 -0.6 -2.65 -0.15 -2.35 0.2 -2.15 L0.5 -2.2 0.75 -2.2 1.05 -2.25 1.35 -2.25 Q2.3 -2.2 2.5 -2.35 L2.55 -2.45 2.6 -2.8 Q2.65 -3.15 2.7 -3.25 2.8 -3.5 3.35 -3.7 L3.45 -3.8 M4.1 -3.75 L3.6 -3.75 Q3.5 -3.65 3.35 -3.6 3.2 -3.4 3.1 -3.05 L3.0 -2.8 Q3.45 -3.4 4.15 -3.75 L4.1 -3.75 M4.3 -3.75 L4.7 -3.7 Q5.4 -3.6 5.7 -3.5 L5.65 -3.6 5.7 -3.65 5.85 -3.45 6.2 -3.25 6.4 -3.1 6.4 -3.05 7.15 -2.65 7.25 -2.55 7.25 -3.05 Q7.2 -3.2 7.1 -3.3 L6.35 -3.65 Q5.95 -3.8 5.4 -3.9 4.9 -4.0 4.3 -3.75 M5.1 -0.6 Q4.8 -0.5 4.5 -0.45 L4.3 -0.1 4.05 0.35 4.25 0.35 4.7 0.1 Q5.1 -0.15 5.3 -0.2 L5.7 -0.25 Q6.1 -0.3 6.25 -0.35 L6.55 -0.45 6.65 -0.75 6.6 -0.7 6.35 -0.5 6.1 -0.5 5.45 -0.7 Q5.3 -0.7 5.1 -0.6 M-7.4 -4.05 L-7.5 -3.85 -7.55 -3.7 -7.4 -4.0 -7.5 -3.75 Q-7.35 -3.8 -7.1 -3.8 L-6.7 -3.85 Q-6.45 -3.85 -6.25 -3.9 L-5.0 -3.9 -4.7 -3.85 -4.75 -3.9 -5.95 -4.5 -6.0 -4.5 -6.45 -4.6 Q-6.7 -4.55 -7.0 -4.45 L-7.0 -4.4 Q-7.2 -4.25 -7.4 -4.05 M-7.65 -3.55 L-7.7 -3.35 -7.6 -3.55 -7.65 -3.55 M-5.85 -0.5 L-6.3 -0.65 -6.95 -0.9 Q-6.2 -0.75 -5.85 -0.5 M-5.3 -0.95 L-5.05 -0.4 -4.95 -0.15 Q-4.5 0.35 -4.35 0.45 L-3.4 0.5 -3.2 0.55 -3.3 0.45 Q-3.65 0.2 -3.8 0.1 -3.9 -0.05 -4.0 -0.25 -4.1 -0.55 -4.05 -0.65 -4.25 -0.75 -4.9 -0.85 L-5.3 -0.95" fill="#ffffff" fill-rule="evenodd" stroke="none"/>
  </g>
</svg>
