<?xml version="1.0" encoding="UTF-8" standalone="no"?>
<svg xmlns:ffdec="https://www.free-decompiler.com/flash" xmlns:xlink="http://www.w3.org/1999/xlink" ffdec:objectType="shape" height="28.55px" width="42.2px" xmlns="http://www.w3.org/2000/svg">
  <g transform="matrix(1.0, 0.0, 0.0, 1.0, 23.9, 28.95)">
    <path d="M4.3 -28.75 L4.5 -28.9 4.5 -28.95 4.55 -28.95 Q4.7 -28.9 4.7 -28.85 L4.7 -28.8 Q4.65 -28.3 4.65 -27.95 L4.6 -27.9 4.55 -27.9 4.0 -27.85 3.8 -27.6 3.8 -27.55 3.75 -27.55 Q3.55 -27.55 3.4 -27.8 3.3 -28.0 3.3 -28.1 L3.35 -28.15 3.35 -28.2 Q3.45 -28.2 3.65 -28.4 3.9 -28.65 4.0 -28.65 L4.3 -28.75 M4.5 -28.8 L4.6 -28.8 4.5 -28.05 4.1 -28.0 3.95 -27.95 3.8 -27.8 3.6 -27.8 3.55 -27.9 Q3.5 -27.95 3.5 -28.05 3.5 -28.2 4.0 -28.5 L4.5 -28.8 M4.3 -28.7 L4.0 -28.6 3.4 -28.1 Q3.4 -28.0 3.45 -27.85 3.6 -27.65 3.75 -27.65 L3.95 -27.9 4.55 -27.95 Q4.55 -28.3 4.65 -28.8 L4.55 -28.85 Q4.4 -28.75 4.3 -28.7 M4.0 -28.4 Q3.6 -28.2 3.55 -28.05 L3.6 -27.95 3.65 -27.9 3.8 -27.9 3.95 -28.05 4.1 -28.05 4.1 -28.1 4.45 -28.1 4.5 -28.7 4.0 -28.4 M16.55 -19.45 L16.55 -19.3 16.9 -19.5 17.3 -19.75 17.5 -19.7 17.55 -19.7 17.6 -19.65 Q17.6 -19.5 17.65 -19.25 L17.7 -19.3 18.25 -19.15 18.25 -19.1 18.3 -19.05 18.25 -19.05 Q18.2 -18.9 18.2 -18.55 18.2 -18.15 18.0 -17.95 17.85 -17.7 17.4 -17.5 16.95 -17.3 16.85 -17.25 L16.8 -17.2 16.4 -16.9 16.4 -16.85 16.15 -16.8 15.8 -16.75 Q15.7 -16.5 15.7 -16.3 L15.7 -16.25 15.65 -16.2 15.5 -16.2 15.5 -16.25 Q15.5 -16.75 15.6 -16.95 L15.65 -17.0 16.1 -17.05 16.35 -17.1 Q16.5 -17.45 16.6 -17.5 L16.65 -17.5 Q16.75 -17.5 16.9 -17.65 L16.95 -17.7 17.25 -18.05 Q17.55 -18.55 17.55 -18.75 L17.45 -19.1 17.4 -19.45 17.05 -19.25 Q16.65 -18.95 16.65 -19.0 16.45 -18.95 16.35 -19.2 16.25 -19.3 16.25 -19.4 L15.9 -19.45 15.85 -19.45 15.85 -19.5 15.7 -19.55 15.65 -19.55 15.65 -19.6 Q15.65 -19.7 15.75 -19.75 L15.8 -19.75 16.0 -19.7 16.4 -19.65 16.45 -19.6 16.55 -19.45 M16.4 -19.55 L16.0 -19.65 15.75 -19.65 15.75 -19.6 Q15.9 -19.55 15.9 -19.5 L16.35 -19.45 Q16.35 -19.35 16.4 -19.2 16.5 -19.05 16.65 -19.05 L17.0 -19.3 17.45 -19.55 Q17.45 -19.4 17.55 -19.15 17.6 -18.85 17.6 -18.75 17.6 -18.55 17.3 -18.05 L17.0 -17.65 16.95 -17.6 Q16.8 -17.45 16.65 -17.45 16.55 -17.4 16.4 -17.05 L15.65 -16.9 Q15.55 -16.7 15.55 -16.25 L15.65 -16.3 Q15.65 -16.55 15.75 -16.8 L16.1 -16.85 16.35 -16.95 16.8 -17.3 Q16.9 -17.35 17.35 -17.55 17.8 -17.75 17.95 -18.0 18.1 -18.2 18.1 -18.55 18.1 -18.95 18.2 -19.05 L17.7 -19.2 17.8 -19.1 18.05 -19.05 18.05 -18.45 17.9 -18.15 Q17.8 -17.95 17.65 -17.85 17.4 -17.7 17.15 -17.7 17.7 -18.3 17.7 -18.7 L17.6 -19.15 Q17.5 -19.5 17.5 -19.65 L17.3 -19.65 16.95 -19.45 Q16.7 -19.35 16.55 -19.2 L16.45 -19.25 16.45 -19.3 Q16.5 -19.35 16.45 -19.45 L16.4 -19.55 M13.65 -16.5 L13.9 -16.45 13.95 -16.45 14.15 -16.15 14.15 -16.1 14.1 -16.05 14.15 -15.85 14.25 -15.55 Q14.65 -15.5 14.7 -15.45 L14.7 -15.4 14.6 -15.3 14.55 -15.3 14.1 -15.35 14.05 -15.35 14.05 -15.4 Q14.0 -15.5 13.95 -15.7 L13.85 -16.1 13.85 -16.15 13.8 -16.25 Q13.15 -16.15 12.95 -15.9 L12.9 -15.85 12.85 -15.85 12.8 -15.9 12.8 -15.95 Q12.85 -16.1 12.9 -16.2 13.0 -16.3 13.6 -16.5 L13.65 -16.5 M13.85 -16.3 Q13.85 -16.25 13.9 -16.2 L13.95 -16.15 13.95 -16.1 14.0 -15.75 14.1 -15.4 14.6 -15.4 Q14.6 -15.45 14.2 -15.5 L14.1 -15.8 14.0 -16.15 14.05 -16.1 14.1 -16.15 13.9 -16.4 13.65 -16.4 12.95 -16.15 12.9 -15.9 Q13.1 -16.25 13.85 -16.3 M12.75 -15.6 L12.8 -15.65 12.85 -15.65 12.9 -15.6 Q12.9 -15.1 12.85 -14.85 L12.8 -14.8 Q12.6 -14.75 12.55 -14.7 L12.6 -14.5 Q12.7 -14.35 12.9 -14.3 L12.95 -14.3 12.95 -14.15 12.7 -14.05 Q12.55 -14.05 12.35 -14.25 L12.3 -14.3 12.3 -14.75 12.4 -14.85 Q12.35 -14.85 12.35 -14.9 12.45 -15.05 12.65 -15.05 L12.75 -15.6 M12.4 -14.9 L12.4 -14.3 Q12.6 -14.1 12.7 -14.1 L12.9 -14.2 12.9 -14.25 Q12.65 -14.25 12.55 -14.45 12.5 -14.55 12.45 -14.75 12.55 -14.85 12.75 -14.85 12.85 -15.1 12.8 -15.6 L12.75 -15.0 Q12.5 -15.0 12.4 -14.9 M17.75 -19.05 L17.7 -19.05 17.75 -18.7 Q17.8 -18.35 17.35 -17.8 17.5 -17.85 17.6 -17.95 17.75 -18.0 17.85 -18.2 L17.95 -18.45 17.95 -18.95 17.75 -19.0 17.75 -19.05 M6.25 -26.65 L6.5 -26.65 6.5 -26.7 Q6.5 -26.9 6.55 -26.9 L6.65 -26.9 6.65 -26.85 Q6.85 -26.6 6.8 -26.45 L6.8 -26.4 Q6.8 -26.35 6.65 -26.35 6.55 -26.35 6.5 -26.4 L6.45 -26.45 6.3 -26.45 Q6.05 -26.2 5.95 -26.2 5.85 -26.2 5.8 -26.3 L5.75 -26.3 Q5.7 -26.25 5.7 -26.2 5.7 -26.05 5.75 -25.9 5.85 -25.75 5.85 -25.55 5.85 -25.25 5.75 -25.15 L5.7 -25.15 5.35 -25.2 5.25 -25.3 5.15 -25.35 5.2 -25.35 5.05 -25.45 5.0 -25.35 5.0 -25.3 4.95 -25.25 4.85 -25.25 Q4.75 -25.25 4.75 -25.4 4.75 -25.5 4.8 -25.55 L4.8 -25.6 4.9 -25.65 4.95 -25.7 5.1 -25.7 5.15 -25.65 5.45 -25.4 5.6 -25.35 5.65 -25.55 Q5.65 -25.65 5.55 -25.85 5.5 -26.05 5.5 -26.2 5.5 -26.35 5.6 -26.5 L5.65 -26.55 Q5.9 -26.55 5.95 -26.5 L6.1 -26.5 6.1 -26.55 6.25 -26.65 M6.6 -26.85 Q6.55 -26.85 6.55 -26.7 L6.6 -26.6 6.7 -26.55 6.55 -26.55 6.3 -26.6 6.15 -26.45 Q6.05 -26.4 5.95 -26.4 5.9 -26.45 5.65 -26.45 5.55 -26.35 5.55 -26.2 5.55 -26.05 5.65 -25.85 L5.7 -25.55 Q5.7 -25.35 5.65 -25.3 L5.4 -25.35 5.1 -25.6 4.95 -25.6 4.85 -25.55 4.85 -25.35 4.95 -25.35 4.95 -25.4 5.05 -25.55 5.1 -25.45 5.2 -25.4 5.3 -25.3 5.4 -25.25 5.7 -25.2 Q5.75 -25.3 5.75 -25.55 L5.7 -25.9 Q5.65 -26.05 5.65 -26.2 5.65 -26.3 5.7 -26.4 L5.85 -26.4 5.85 -26.35 Q5.9 -26.3 5.95 -26.3 6.05 -26.3 6.3 -26.5 L6.45 -26.55 6.55 -26.45 Q6.6 -26.4 6.65 -26.4 L6.75 -26.45 6.75 -26.5 Q6.75 -26.6 6.6 -26.85 M3.05 -25.55 Q3.05 -25.5 3.0 -25.45 L2.85 -25.4 2.75 -25.4 2.75 -25.45 2.7 -25.45 2.65 -25.5 2.65 -25.55 2.6 -25.6 2.6 -25.65 2.65 -25.7 2.8 -25.7 Q2.9 -25.7 3.0 -25.6 L3.05 -25.55 M3.05 -24.8 L3.0 -24.85 3.05 -24.9 3.15 -24.95 3.2 -25.0 Q3.35 -24.95 3.35 -24.9 L3.35 -24.8 3.3 -24.75 3.05 -24.75 3.05 -24.8 M3.15 -24.9 L3.1 -24.85 3.25 -24.8 3.3 -24.85 Q3.3 -24.9 3.15 -24.9 M1.45 -26.45 L1.4 -25.95 1.4 -25.9 1.3 -25.9 Q1.2 -25.95 1.05 -26.05 L1.0 -26.1 0.95 -26.0 0.95 -25.95 0.9 -25.9 0.85 -25.9 0.75 -25.95 0.75 -26.1 Q0.75 -26.2 0.8 -26.25 0.85 -26.35 1.0 -26.35 1.05 -26.4 1.15 -26.25 L1.2 -26.2 1.2 -26.45 1.3 -26.55 1.4 -26.5 1.45 -26.5 1.45 -26.45 M1.35 -26.45 L1.3 -26.45 1.3 -26.1 1.1 -26.2 Q1.05 -26.3 1.0 -26.3 0.9 -26.3 0.85 -26.25 0.8 -26.15 0.8 -26.1 L0.8 -26.0 0.85 -25.95 0.9 -26.0 Q0.9 -26.15 1.0 -26.25 L1.1 -26.1 Q1.2 -26.0 1.35 -25.95 L1.35 -26.45 M2.3 -25.95 L2.6 -25.95 2.65 -25.9 2.65 -25.8 2.6 -25.75 2.4 -25.7 Q2.35 -25.7 2.2 -25.6 L2.1 -25.6 2.05 -25.65 2.05 -25.75 2.25 -25.95 2.3 -25.95 M2.6 -25.85 L2.55 -25.85 2.3 -25.9 2.1 -25.7 2.15 -25.65 2.4 -25.8 2.6 -25.85 M2.0 -25.45 L2.15 -25.4 2.2 -25.4 2.2 -25.35 2.15 -25.3 1.95 -25.15 1.9 -25.15 1.8 -25.25 1.8 -25.3 1.85 -25.35 2.0 -25.4 2.0 -25.45 M2.8 -25.5 L2.85 -25.5 Q3.0 -25.5 2.95 -25.55 L2.8 -25.65 2.7 -25.65 2.7 -25.55 2.8 -25.5 M1.9 -25.3 L1.9 -25.25 Q2.05 -25.3 2.1 -25.35 L2.0 -25.35 Q1.95 -25.35 1.9 -25.3 M13.1 -12.75 L13.05 -12.75 Q13.0 -12.75 12.9 -12.65 L12.85 -12.65 12.55 -12.7 12.5 -12.7 Q12.3 -13.0 12.35 -13.15 L12.4 -13.3 12.4 -13.35 12.1 -13.35 12.05 -13.4 12.05 -13.45 12.1 -13.5 Q12.3 -13.7 12.7 -13.5 L12.7 -13.35 12.6 -13.2 12.55 -13.05 12.7 -12.9 Q12.85 -12.95 13.0 -13.05 L13.05 -13.05 13.1 -13.0 Q13.15 -12.95 13.15 -12.8 L13.1 -12.75 M13.05 -12.8 L13.05 -13.0 Q12.9 -12.85 12.65 -12.85 L12.45 -13.05 12.55 -13.2 12.65 -13.4 12.15 -13.45 12.45 -13.45 Q12.45 -13.5 12.45 -13.3 L12.4 -13.15 Q12.4 -13.0 12.55 -12.75 L12.85 -12.75 Q13.0 -12.8 13.05 -12.8 M-23.25 -11.95 L-23.25 -11.9 -23.35 -11.75 -23.45 -11.75 -23.85 -12.1 -23.9 -12.15 -23.9 -12.2 -23.75 -12.35 -23.5 -12.3 Q-23.4 -12.2 -23.25 -11.95 M-23.55 -12.25 L-23.75 -12.25 -23.85 -12.15 -23.4 -11.8 -23.35 -11.9 Q-23.45 -12.15 -23.55 -12.25 M-23.65 -10.7 L-23.45 -10.9 -23.2 -10.9 -23.15 -10.85 -23.15 -10.8 -23.1 -10.45 -23.05 -10.05 -23.05 -10.0 Q-23.1 -9.9 -23.4 -9.8 -23.6 -9.75 -23.6 -9.6 L-23.65 -9.15 -23.6 -9.1 Q-23.5 -9.05 -23.4 -8.9 L-23.15 -8.9 -23.1 -9.15 -23.1 -9.2 -23.05 -9.2 Q-22.75 -9.2 -22.75 -9.05 -22.65 -9.0 -22.6 -8.95 L-22.6 -8.85 -22.65 -8.85 Q-22.75 -8.8 -22.85 -8.9 L-22.95 -8.9 -22.95 -8.7 -23.0 -8.65 -23.6 -8.65 Q-23.8 -8.9 -23.85 -9.0 -23.85 -9.1 -23.85 -9.35 -23.85 -9.75 -23.8 -9.8 -23.7 -10.1 -23.3 -10.1 L-23.3 -10.4 -23.35 -10.65 -23.4 -10.6 -23.55 -10.55 -23.6 -10.55 -23.7 -10.65 -23.65 -10.7 M-23.2 -10.8 L-23.4 -10.85 -23.6 -10.65 -23.55 -10.6 -23.45 -10.7 -23.25 -10.75 -23.25 -10.4 -23.2 -10.1 Q-23.2 -9.95 -23.25 -9.95 L-23.25 -10.0 Q-23.65 -10.0 -23.75 -9.8 L-23.8 -9.35 -23.75 -9.05 Q-23.7 -8.9 -23.55 -8.7 L-23.05 -8.7 -23.0 -8.75 Q-23.0 -9.0 -22.95 -9.0 L-22.85 -8.95 -22.65 -8.9 Q-22.7 -9.0 -22.8 -9.0 -22.8 -9.1 -23.05 -9.15 L-23.1 -8.85 -23.45 -8.8 Q-23.55 -9.0 -23.65 -9.05 L-23.7 -9.15 -23.7 -9.6 Q-23.7 -9.8 -23.45 -9.9 -23.15 -9.95 -23.1 -10.05 L-23.2 -10.45 -23.2 -10.8 M-4.35 -25.3 L-4.3 -25.35 -4.25 -25.35 -4.05 -25.15 Q-3.95 -25.15 -3.8 -25.2 L-3.65 -25.3 Q-3.5 -25.3 -3.4 -25.1 L-3.25 -24.9 Q-3.15 -24.8 -3.1 -24.55 -3.05 -24.5 -2.9 -24.45 L-2.55 -24.35 -2.45 -24.35 Q-2.35 -24.6 -2.25 -24.55 -2.2 -24.6 -1.9 -24.4 L-1.85 -24.4 -1.85 -24.3 -1.9 -24.25 -1.95 -24.25 Q-2.0 -24.2 -2.1 -24.3 L-2.2 -24.3 Q-2.25 -24.25 -2.3 -24.15 L-2.35 -24.15 Q-2.95 -24.2 -3.0 -24.25 L-3.2 -24.35 -3.25 -24.35 Q-3.35 -24.45 -3.35 -24.55 -3.35 -24.65 -3.4 -24.75 L-3.55 -24.95 -3.6 -25.05 Q-3.7 -25.05 -3.8 -24.95 L-3.85 -24.9 -4.1 -24.95 -4.15 -24.95 -4.25 -25.05 -4.3 -24.95 Q-4.3 -24.85 -4.25 -24.75 L-4.25 -24.7 -4.3 -24.7 -4.3 -24.65 -4.45 -24.6 -4.5 -24.65 -4.55 -24.85 -4.45 -25.05 -4.35 -25.3 M-4.4 -25.05 L-4.45 -24.85 -4.45 -24.7 -4.35 -24.7 -4.35 -24.75 Q-4.4 -24.85 -4.35 -24.95 L-4.25 -25.2 -4.1 -25.0 -3.85 -25.0 Q-3.7 -25.15 -3.6 -25.15 L-3.45 -24.95 -3.35 -24.8 Q-3.3 -24.7 -3.3 -24.6 -3.25 -24.45 -3.2 -24.4 -3.05 -24.4 -2.95 -24.3 -2.9 -24.25 -2.35 -24.2 L-2.3 -24.35 -2.2 -24.4 -2.1 -24.35 -1.95 -24.3 -1.9 -24.35 -2.25 -24.5 Q-2.3 -24.5 -2.4 -24.3 L-2.55 -24.3 Q-2.65 -24.35 -2.9 -24.4 -3.1 -24.45 -3.2 -24.5 -3.2 -24.75 -3.3 -24.85 L-3.45 -25.05 Q-3.55 -25.25 -3.65 -25.25 L-3.8 -25.15 Q-3.9 -25.1 -4.05 -25.05 L-4.15 -25.15 -4.3 -25.25 -4.4 -25.05 M-2.95 -23.4 L-3.0 -23.55 Q-3.0 -23.8 -2.85 -23.9 -2.75 -24.0 -2.55 -23.95 L-2.5 -23.95 -2.5 -23.9 -2.4 -23.8 -2.4 -23.75 -2.45 -23.65 -2.5 -23.6 -2.6 -23.6 -2.65 -23.65 -2.65 -23.75 -2.8 -23.75 -2.8 -23.6 -2.7 -23.6 Q-2.6 -23.6 -2.5 -23.55 L-2.5 -23.4 -2.55 -23.35 -2.65 -23.3 -2.7 -23.3 -2.9 -23.35 -2.95 -23.4 M-2.9 -23.55 L-2.9 -23.45 -2.85 -23.4 -2.7 -23.4 -2.55 -23.45 -2.55 -23.5 -2.85 -23.5 -2.85 -23.8 -2.7 -23.85 -2.6 -23.85 -2.6 -23.7 -2.5 -23.7 -2.5 -23.8 -2.55 -23.9 Q-2.9 -24.0 -2.9 -23.55 M-1.4 -24.0 L-1.05 -24.1 -0.8 -24.1 Q-0.7 -24.05 -0.7 -23.95 L-0.7 -23.8 -0.75 -23.75 -0.8 -23.65 -0.95 -23.55 -0.95 -23.5 -1.25 -23.5 -1.3 -23.55 -1.3 -23.6 -1.2 -23.7 Q-1.0 -23.7 -0.9 -23.8 L-0.95 -23.85 -1.2 -23.85 -1.2 -23.8 -1.3 -23.8 Q-1.4 -23.85 -1.4 -23.9 L-1.4 -24.0 M-0.85 -23.7 L-0.8 -23.8 -0.85 -23.75 Q-0.95 -23.65 -1.2 -23.6 L-1.2 -23.55 -1.0 -23.6 -0.85 -23.7 M-1.35 -23.9 L-1.25 -23.9 -0.9 -23.95 -0.85 -23.8 -0.8 -23.8 -0.75 -23.95 Q-0.75 -24.1 -1.05 -24.05 L-1.35 -23.9 M-13.8 -17.8 L-14.1 -17.55 Q-14.35 -17.35 -14.35 -17.15 -14.35 -17.05 -14.3 -16.85 L-14.3 -16.8 -14.25 -16.85 Q-14.1 -17.1 -14.1 -17.25 -14.05 -17.55 -13.8 -17.75 L-13.8 -17.8 M-13.0 -18.15 L-12.9 -17.8 Q-12.6 -17.75 -12.6 -17.65 L-12.55 -17.6 -12.6 -17.55 -13.05 -17.55 Q-13.1 -17.55 -13.1 -17.6 L-13.15 -17.65 -13.2 -17.85 -13.25 -18.1 -13.2 -18.15 -13.0 -18.15 M-13.4 -18.1 L-13.35 -18.05 -13.35 -17.9 Q-13.4 -17.75 -13.65 -17.55 -13.8 -17.4 -13.85 -17.1 -13.85 -17.0 -14.0 -16.7 L-14.2 -16.4 -14.35 -16.15 -14.45 -15.9 Q-14.45 -15.6 -14.3 -15.45 L-14.3 -15.3 -14.4 -15.25 -14.5 -15.25 Q-14.55 -15.3 -14.8 -15.9 -14.8 -16.05 -14.6 -16.3 L-14.5 -16.35 -14.45 -16.55 Q-14.45 -16.65 -14.5 -16.8 L-14.5 -16.85 -14.6 -17.2 Q-14.6 -17.5 -14.2 -17.85 -13.8 -18.15 -13.45 -18.1 L-13.4 -18.1 M-13.1 -18.1 L-13.15 -18.1 -13.1 -17.85 -13.05 -17.65 -12.7 -17.6 -12.65 -17.65 Q-12.65 -17.7 -13.0 -17.7 -13.0 -17.8 -13.1 -18.1 M-13.4 -18.0 L-13.45 -18.0 Q-13.8 -18.05 -14.15 -17.75 -14.55 -17.5 -14.55 -17.2 -14.55 -17.1 -14.45 -16.85 L-14.35 -16.55 -14.45 -16.35 -14.55 -16.25 Q-14.7 -16.05 -14.7 -15.9 -14.5 -15.35 -14.45 -15.3 -14.4 -15.3 -14.35 -15.35 L-14.35 -15.4 Q-14.55 -15.55 -14.55 -15.9 -14.55 -16.0 -14.4 -16.2 -14.3 -16.35 -14.3 -16.45 -14.2 -16.55 -14.1 -16.7 -13.95 -17.0 -13.95 -17.1 -13.9 -17.45 -13.7 -17.6 -13.45 -17.75 -13.45 -17.95 L-13.75 -17.7 Q-13.95 -17.55 -14.0 -17.25 -14.05 -17.1 -14.2 -16.8 L-14.3 -16.65 -14.35 -16.8 Q-14.45 -17.05 -14.45 -17.15 -14.45 -17.35 -14.15 -17.65 -13.8 -17.9 -13.4 -18.0 M-14.6 -14.7 L-14.6 -14.75 -14.4 -14.75 -14.3 -14.5 Q-14.2 -14.3 -14.15 -14.3 L-14.1 -14.25 -14.1 -14.2 -14.15 -14.15 -14.3 -14.05 -14.3 -14.1 -14.5 -14.05 Q-14.6 -13.85 -14.55 -13.65 L-14.55 -13.6 -14.6 -13.55 -14.7 -13.55 -14.8 -13.6 Q-14.85 -13.65 -14.85 -13.85 -14.85 -13.95 -14.75 -14.05 -14.65 -14.2 -14.45 -14.25 -14.6 -14.5 -14.6 -14.7 M-14.35 -14.45 L-14.45 -14.7 -14.55 -14.7 Q-14.55 -14.5 -14.35 -14.25 -14.6 -14.15 -14.7 -14.05 -14.8 -13.95 -14.8 -13.85 L-14.75 -13.65 -14.65 -13.6 -14.65 -13.65 Q-14.65 -13.85 -14.55 -14.1 L-14.3 -14.15 -14.2 -14.25 Q-14.25 -14.25 -14.35 -14.45 M-14.35 -12.7 L-14.3 -12.65 Q-14.2 -12.45 -14.2 -12.35 L-14.2 -12.3 -14.25 -12.25 -14.35 -12.25 -14.35 -12.3 Q-14.5 -12.5 -14.5 -12.6 L-14.5 -12.65 -14.45 -12.7 -14.35 -12.7 M-14.4 -12.6 L-14.45 -12.6 Q-14.45 -12.55 -14.3 -12.3 L-14.25 -12.35 Q-14.25 -12.45 -14.4 -12.6 M-21.85 -8.45 L-22.0 -8.45 Q-22.15 -8.5 -22.15 -8.55 L-22.15 -8.65 Q-22.05 -8.8 -21.95 -8.8 L-21.6 -8.8 -21.55 -8.75 Q-21.45 -8.75 -21.45 -8.55 -21.45 -8.35 -21.7 -8.0 L-21.65 -7.95 Q-21.45 -7.95 -21.3 -8.05 L-21.2 -8.05 Q-21.05 -8.1 -21.05 -7.85 -21.05 -7.7 -21.1 -7.65 L-21.1 -7.6 -21.2 -7.5 -21.45 -7.5 Q-21.55 -7.5 -21.65 -7.55 L-21.85 -7.65 -21.85 -7.7 -21.95 -7.75 -21.95 -7.8 Q-22.0 -7.85 -22.0 -8.0 -22.0 -8.2 -21.95 -8.3 L-21.85 -8.45 M-22.0 -8.55 L-21.75 -8.55 -21.75 -8.45 -21.9 -8.25 Q-21.95 -8.15 -21.95 -8.0 -21.95 -7.9 -21.9 -7.8 L-21.8 -7.75 Q-21.7 -7.7 -21.6 -7.65 -21.55 -7.55 -21.45 -7.55 L-21.25 -7.6 -21.2 -7.6 -21.15 -7.7 Q-21.15 -7.75 -21.15 -7.85 -21.15 -8.0 -21.2 -8.0 L-21.25 -7.95 Q-21.45 -7.85 -21.7 -7.9 L-21.75 -8.0 Q-21.55 -8.35 -21.55 -8.55 L-21.55 -8.7 -21.65 -8.7 -21.95 -8.75 -22.1 -8.6 Q-22.1 -8.55 -22.0 -8.55 M-19.45 -4.9 L-19.7 -4.9 -19.7 -4.95 -19.75 -5.0 -19.7 -5.05 Q-19.55 -5.2 -19.35 -5.2 -19.1 -5.15 -19.1 -4.85 -19.1 -4.75 -19.25 -4.5 L-19.2 -4.5 Q-19.35 -4.35 -19.35 -4.1 -19.2 -4.05 -19.0 -3.95 L-18.75 -3.85 -18.7 -3.85 -18.7 -3.8 -18.65 -3.65 Q-18.65 -3.6 -18.6 -3.5 L-18.55 -3.5 -18.55 -3.45 -18.6 -3.4 -18.6 -3.35 -18.7 -3.35 Q-18.85 -3.45 -18.9 -3.65 L-19.1 -3.7 -19.35 -3.75 -19.45 -3.85 -19.5 -3.85 Q-19.55 -3.95 -19.55 -4.1 L-19.5 -4.5 -19.4 -4.9 -19.45 -4.9 M-19.4 -5.0 L-19.35 -4.95 -19.45 -4.5 -19.5 -4.1 Q-19.5 -4.0 -19.45 -3.9 L-19.35 -3.85 -19.05 -3.75 -18.8 -3.7 Q-18.8 -3.5 -18.65 -3.4 L-18.65 -3.45 -18.7 -3.65 -18.75 -3.8 -19.0 -3.9 Q-19.25 -4.0 -19.4 -4.05 -19.4 -4.35 -19.3 -4.55 -19.15 -4.75 -19.15 -4.85 -19.15 -5.1 -19.35 -5.1 -19.5 -5.15 -19.65 -5.0 L-19.65 -4.95 -19.4 -5.0 M-18.65 -2.7 L-18.65 -2.85 -18.6 -2.9 -18.55 -2.9 Q-18.35 -2.9 -18.0 -2.65 L-18.0 -2.6 Q-17.95 -2.55 -17.95 -2.5 -17.95 -2.4 -18.15 -2.4 -18.2 -2.4 -18.4 -2.5 L-18.65 -2.7 M-18.6 -2.85 L-18.6 -2.75 -18.35 -2.55 Q-18.2 -2.45 -18.15 -2.45 -18.05 -2.45 -18.05 -2.5 L-18.05 -2.55 Q-18.4 -2.8 -18.6 -2.85 M-17.4 -2.35 Q-17.45 -2.4 -17.45 -2.6 -17.45 -2.8 -17.4 -2.8 L-17.1 -2.8 -17.05 -2.75 -17.05 -2.65 -17.0 -2.55 -17.0 -2.5 Q-17.05 -2.4 -17.2 -2.3 L-17.25 -2.3 -17.35 -2.35 -17.4 -2.35 M-17.4 -2.75 L-17.4 -2.6 Q-17.4 -2.45 -17.35 -2.4 L-17.25 -2.35 Q-17.1 -2.45 -17.05 -2.55 L-17.1 -2.6 -17.1 -2.7 -17.3 -2.75 -17.3 -2.7 -17.4 -2.75 M-14.0 -1.95 Q-14.2 -2.0 -14.2 -2.05 L-14.2 -2.1 -14.15 -2.15 -14.1 -2.15 Q-13.85 -2.15 -13.7 -2.05 -13.55 -1.95 -13.55 -1.85 -13.55 -1.8 -13.85 -1.4 L-14.1 -1.0 -13.95 -0.9 -13.7 -0.65 -13.65 -0.65 -13.7 -0.85 -13.55 -1.0 -13.15 -0.95 -13.1 -0.95 -13.1 -0.8 Q-13.1 -0.7 -13.2 -0.7 L-13.45 -0.7 -13.45 -0.45 -13.5 -0.45 -13.5 -0.4 -13.85 -0.4 -13.9 -0.45 Q-14.35 -0.8 -14.35 -0.95 -14.35 -1.15 -14.1 -1.5 -13.9 -1.8 -13.9 -1.85 -13.9 -1.95 -14.0 -1.95 M-13.95 -2.05 Q-13.85 -2.0 -13.85 -1.85 -13.85 -1.75 -14.05 -1.45 -14.25 -1.15 -14.25 -0.95 -14.25 -0.8 -13.85 -0.5 L-13.5 -0.5 Q-13.5 -0.55 -13.5 -0.75 L-13.3 -0.8 -13.2 -0.8 Q-13.15 -0.75 -13.15 -0.8 L-13.2 -0.9 -13.55 -0.9 -13.6 -0.85 -13.6 -0.6 -13.75 -0.6 Q-13.8 -0.7 -14.0 -0.85 L-14.2 -1.0 Q-14.2 -1.05 -13.9 -1.45 L-13.65 -1.85 Q-13.65 -1.9 -13.75 -2.0 -13.9 -2.1 -14.1 -2.1 L-13.95 -2.05 M-11.7 -1.55 L-11.65 -1.5 -11.5 -1.4 -11.4 -1.2 -11.35 -1.15 -11.4 -1.1 -11.45 -1.1 -11.65 -1.05 Q-11.8 -1.05 -11.95 -1.15 -12.1 -1.2 -12.15 -1.3 L-12.1 -1.35 -11.95 -1.55 -11.7 -1.55 M-11.7 -1.45 L-11.9 -1.5 -12.05 -1.3 Q-12.05 -1.25 -11.95 -1.2 L-11.65 -1.15 -11.45 -1.15 -11.45 -1.2 -11.55 -1.35 -11.7 -1.45 M-12.8 -0.95 L-12.5 -0.9 Q-12.35 -0.85 -12.2 -0.75 L-12.15 -0.7 -12.15 -0.65 Q-12.3 -0.45 -12.5 -0.45 L-12.75 -0.55 -12.85 -0.6 -12.9 -0.65 -12.9 -0.85 -12.8 -0.95 M-12.8 -0.85 L-12.8 -0.65 Q-12.75 -0.6 -12.7 -0.6 L-12.5 -0.5 Q-12.35 -0.5 -12.2 -0.7 L-12.55 -0.85 -12.8 -0.85 M-10.5 -2.7 Q-10.3 -2.7 -10.25 -2.6 L-10.25 -2.5 -10.3 -2.35 -10.35 -2.35 -10.4 -2.3 -10.45 -2.3 -10.5 -2.35 Q-10.55 -2.4 -10.55 -2.6 L-10.55 -2.65 -10.5 -2.7 M-10.3 -2.5 L-10.3 -2.55 Q-10.35 -2.6 -10.5 -2.6 -10.5 -2.4 -10.45 -2.4 L-10.35 -2.4 -10.3 -2.5" fill="#00ffff" fill-opacity="0.5019608" fill-rule="evenodd" stroke="none"/>
    <path d="M4.3 -28.7 Q4.4 -28.75 4.55 -28.85 L4.65 -28.8 Q4.55 -28.3 4.55 -27.95 L3.95 -27.9 3.75 -27.65 Q3.6 -27.65 3.45 -27.85 3.4 -28.0 3.4 -28.1 L4.0 -28.6 4.3 -28.7 M4.5 -28.8 L4.0 -28.5 Q3.5 -28.2 3.5 -28.05 3.5 -27.95 3.55 -27.9 L3.6 -27.8 3.8 -27.8 3.95 -27.95 4.1 -28.0 4.5 -28.05 4.6 -28.8 4.5 -28.8 M16.4 -19.55 L16.45 -19.45 Q16.5 -19.35 16.45 -19.3 L16.45 -19.25 16.55 -19.2 Q16.7 -19.35 16.95 -19.45 L17.3 -19.65 17.5 -19.65 Q17.5 -19.5 17.6 -19.15 L17.7 -18.7 Q17.7 -18.3 17.15 -17.7 17.4 -17.7 17.65 -17.85 17.8 -17.95 17.9 -18.15 L18.05 -18.45 18.05 -19.05 17.8 -19.1 17.7 -19.2 18.2 -19.05 Q18.1 -18.95 18.1 -18.55 18.1 -18.2 17.95 -18.0 17.8 -17.75 17.35 -17.55 16.9 -17.35 16.8 -17.3 L16.35 -16.95 16.1 -16.85 15.75 -16.8 Q15.65 -16.55 15.65 -16.3 L15.55 -16.25 Q15.55 -16.7 15.65 -16.9 L16.4 -17.05 Q16.55 -17.4 16.65 -17.45 16.8 -17.45 16.95 -17.6 L17.0 -17.65 17.3 -18.05 Q17.6 -18.55 17.6 -18.75 17.6 -18.85 17.55 -19.15 17.45 -19.4 17.45 -19.55 L17.0 -19.3 16.65 -19.05 Q16.5 -19.05 16.4 -19.2 16.35 -19.35 16.35 -19.45 L15.9 -19.5 Q15.9 -19.55 15.75 -19.6 L15.75 -19.65 16.0 -19.65 16.4 -19.55 M13.85 -16.3 Q13.1 -16.25 12.9 -15.9 L12.95 -16.15 13.65 -16.4 13.9 -16.4 14.1 -16.15 14.05 -16.1 14.0 -16.15 14.1 -15.8 14.2 -15.5 Q14.6 -15.45 14.6 -15.4 L14.1 -15.4 14.0 -15.75 13.95 -16.1 13.95 -16.15 13.9 -16.2 Q13.85 -16.25 13.85 -16.3 M12.4 -14.9 Q12.5 -15.0 12.75 -15.0 L12.8 -15.6 Q12.85 -15.1 12.75 -14.85 12.55 -14.85 12.45 -14.75 12.5 -14.55 12.55 -14.45 12.65 -14.25 12.9 -14.25 L12.9 -14.2 12.7 -14.1 Q12.6 -14.1 12.4 -14.3 L12.4 -14.9 M6.6 -26.85 Q6.75 -26.6 6.75 -26.5 L6.75 -26.45 6.65 -26.4 Q6.6 -26.4 6.55 -26.45 L6.45 -26.55 6.3 -26.5 Q6.05 -26.3 5.95 -26.3 5.9 -26.3 5.85 -26.35 L5.85 -26.4 5.7 -26.4 Q5.65 -26.3 5.65 -26.2 5.65 -26.05 5.7 -25.9 L5.75 -25.55 Q5.75 -25.3 5.7 -25.2 L5.4 -25.25 5.3 -25.3 5.2 -25.4 5.1 -25.45 5.05 -25.55 4.95 -25.4 4.95 -25.35 4.85 -25.35 4.85 -25.55 4.95 -25.6 5.1 -25.6 5.4 -25.35 5.65 -25.3 Q5.7 -25.35 5.7 -25.55 L5.65 -25.85 Q5.55 -26.05 5.55 -26.2 5.55 -26.35 5.65 -26.45 5.9 -26.45 5.95 -26.4 6.05 -26.4 6.15 -26.45 L6.3 -26.6 6.55 -26.55 6.7 -26.55 6.6 -26.6 6.55 -26.7 Q6.55 -26.85 6.6 -26.85 M3.15 -24.9 Q3.3 -24.9 3.3 -24.85 L3.25 -24.8 3.1 -24.85 3.15 -24.9 M1.35 -26.45 L1.35 -25.95 Q1.2 -26.0 1.1 -26.1 L1.0 -26.25 Q0.9 -26.15 0.9 -26.0 L0.85 -25.95 0.8 -26.0 0.8 -26.1 Q0.8 -26.15 0.85 -26.25 0.9 -26.3 1.0 -26.3 1.05 -26.3 1.1 -26.2 L1.3 -26.1 1.3 -26.45 1.35 -26.45 M2.6 -25.85 L2.4 -25.8 2.15 -25.65 2.1 -25.7 2.3 -25.9 2.55 -25.85 2.6 -25.85 M1.9 -25.3 Q1.95 -25.35 2.0 -25.35 L2.1 -25.35 Q2.05 -25.3 1.9 -25.25 L1.9 -25.3 M2.8 -25.5 L2.7 -25.55 2.7 -25.65 2.8 -25.65 2.95 -25.55 Q3.0 -25.5 2.85 -25.5 L2.8 -25.5 M13.05 -12.8 Q13.0 -12.8 12.85 -12.75 L12.55 -12.75 Q12.4 -13.0 12.4 -13.15 L12.45 -13.3 Q12.45 -13.5 12.45 -13.45 L12.15 -13.45 12.65 -13.4 12.55 -13.2 12.45 -13.05 12.65 -12.85 Q12.9 -12.85 13.05 -13.0 L13.05 -12.8 M-23.55 -12.25 Q-23.45 -12.15 -23.35 -11.9 L-23.4 -11.8 -23.85 -12.15 -23.75 -12.25 -23.55 -12.25 M-23.2 -10.8 L-23.2 -10.45 -23.1 -10.05 Q-23.15 -9.95 -23.45 -9.9 -23.7 -9.8 -23.7 -9.6 L-23.7 -9.15 -23.65 -9.05 Q-23.55 -9.0 -23.45 -8.8 L-23.1 -8.85 -23.05 -9.15 Q-22.8 -9.1 -22.8 -9.0 -22.7 -9.0 -22.65 -8.9 L-22.85 -8.95 -22.95 -9.0 Q-23.0 -9.0 -23.0 -8.75 L-23.05 -8.7 -23.55 -8.7 Q-23.7 -8.9 -23.75 -9.05 L-23.8 -9.35 -23.75 -9.8 Q-23.65 -10.0 -23.25 -10.0 L-23.25 -9.95 Q-23.2 -9.95 -23.2 -10.1 L-23.25 -10.4 -23.25 -10.75 -23.45 -10.7 -23.55 -10.6 -23.6 -10.65 -23.4 -10.85 -23.2 -10.8 M-4.4 -25.05 L-4.3 -25.25 -4.15 -25.15 -4.05 -25.05 Q-3.9 -25.1 -3.8 -25.15 L-3.65 -25.25 Q-3.55 -25.25 -3.45 -25.05 L-3.3 -24.85 Q-3.2 -24.75 -3.2 -24.5 -3.1 -24.45 -2.9 -24.4 -2.65 -24.35 -2.55 -24.3 L-2.4 -24.3 Q-2.3 -24.5 -2.25 -24.5 L-1.9 -24.35 -1.95 -24.3 -2.1 -24.35 -2.2 -24.4 -2.3 -24.35 -2.35 -24.2 Q-2.9 -24.25 -2.95 -24.3 -3.05 -24.4 -3.2 -24.4 -3.25 -24.45 -3.3 -24.6 -3.3 -24.7 -3.35 -24.8 L-3.45 -24.95 -3.6 -25.15 Q-3.7 -25.15 -3.85 -25.0 L-4.1 -25.0 -4.25 -25.2 -4.35 -24.95 Q-4.4 -24.85 -4.35 -24.75 L-4.35 -24.7 -4.45 -24.7 -4.45 -24.85 -4.4 -25.05 M-2.9 -23.55 Q-2.9 -24.0 -2.55 -23.9 L-2.5 -23.8 -2.5 -23.7 -2.6 -23.7 -2.6 -23.85 -2.7 -23.85 -2.85 -23.8 -2.85 -23.5 -2.55 -23.5 -2.55 -23.45 -2.7 -23.4 -2.85 -23.4 -2.9 -23.45 -2.9 -23.55 M-1.35 -23.9 L-1.05 -24.05 Q-0.75 -24.1 -0.75 -23.95 L-0.8 -23.8 -0.85 -23.8 -0.9 -23.95 -1.25 -23.9 -1.35 -23.9 M-0.85 -23.7 L-1.0 -23.6 -1.2 -23.55 -1.2 -23.6 Q-0.95 -23.65 -0.85 -23.75 L-0.8 -23.8 -0.85 -23.7 M-13.4 -18.0 Q-13.8 -17.9 -14.15 -17.65 -14.45 -17.35 -14.45 -17.15 -14.45 -17.05 -14.35 -16.8 L-14.3 -16.65 -14.2 -16.8 Q-14.05 -17.1 -14.0 -17.25 -13.95 -17.55 -13.75 -17.7 L-13.45 -17.95 Q-13.45 -17.75 -13.7 -17.6 -13.9 -17.45 -13.95 -17.1 -13.95 -17.0 -14.1 -16.7 -14.2 -16.55 -14.3 -16.45 -14.3 -16.35 -14.4 -16.2 -14.55 -16.0 -14.55 -15.9 -14.55 -15.55 -14.35 -15.4 L-14.35 -15.35 Q-14.4 -15.3 -14.45 -15.3 -14.5 -15.35 -14.7 -15.9 -14.7 -16.05 -14.55 -16.25 L-14.45 -16.35 -14.35 -16.55 -14.45 -16.85 Q-14.55 -17.1 -14.55 -17.2 -14.55 -17.5 -14.15 -17.75 -13.8 -18.05 -13.45 -18.0 L-13.4 -18.0 M-13.1 -18.1 Q-13.0 -17.8 -13.0 -17.7 -12.65 -17.7 -12.65 -17.65 L-12.7 -17.6 -13.05 -17.65 -13.1 -17.85 -13.15 -18.1 -13.1 -18.1 M-14.35 -14.45 Q-14.25 -14.25 -14.2 -14.25 L-14.3 -14.15 -14.55 -14.1 Q-14.65 -13.85 -14.65 -13.65 L-14.65 -13.6 -14.75 -13.65 -14.8 -13.85 Q-14.8 -13.95 -14.7 -14.05 -14.6 -14.15 -14.35 -14.25 -14.55 -14.5 -14.55 -14.7 L-14.45 -14.7 -14.35 -14.45 M-14.4 -12.6 Q-14.25 -12.45 -14.25 -12.35 L-14.3 -12.3 Q-14.45 -12.55 -14.45 -12.6 L-14.4 -12.6 M-22.0 -8.55 Q-22.1 -8.55 -22.1 -8.6 L-21.95 -8.75 -21.65 -8.7 -21.55 -8.7 -21.55 -8.55 Q-21.55 -8.35 -21.75 -8.0 L-21.7 -7.9 Q-21.45 -7.85 -21.25 -7.95 L-21.2 -8.0 Q-21.15 -8.0 -21.15 -7.85 -21.15 -7.75 -21.15 -7.7 L-21.2 -7.6 -21.25 -7.6 -21.45 -7.55 Q-21.55 -7.55 -21.6 -7.65 -21.7 -7.7 -21.8 -7.75 L-21.9 -7.8 Q-21.95 -7.9 -21.95 -8.0 -21.95 -8.15 -21.9 -8.25 L-21.75 -8.45 -21.75 -8.55 -22.0 -8.55 M-19.4 -5.0 L-19.65 -4.95 -19.65 -5.0 Q-19.5 -5.15 -19.35 -5.1 -19.15 -5.1 -19.15 -4.85 -19.15 -4.75 -19.3 -4.55 -19.4 -4.35 -19.4 -4.05 -19.25 -4.0 -19.0 -3.9 L-18.75 -3.8 -18.7 -3.65 -18.65 -3.45 -18.65 -3.4 Q-18.8 -3.5 -18.8 -3.7 L-19.05 -3.75 -19.35 -3.85 -19.45 -3.9 Q-19.5 -4.0 -19.5 -4.1 L-19.45 -4.5 -19.35 -4.95 -19.4 -5.0 M-18.6 -2.85 Q-18.4 -2.8 -18.05 -2.55 L-18.05 -2.5 Q-18.05 -2.45 -18.15 -2.45 -18.2 -2.45 -18.35 -2.55 L-18.6 -2.75 -18.6 -2.85 M-17.4 -2.75 L-17.3 -2.7 -17.3 -2.75 -17.1 -2.7 -17.1 -2.6 -17.05 -2.55 Q-17.1 -2.45 -17.25 -2.35 L-17.35 -2.4 Q-17.4 -2.45 -17.4 -2.6 L-17.4 -2.75 M-13.95 -2.05 L-14.1 -2.1 Q-13.9 -2.1 -13.75 -2.0 -13.65 -1.9 -13.65 -1.85 L-13.9 -1.45 Q-14.2 -1.05 -14.2 -1.0 L-14.0 -0.85 Q-13.8 -0.7 -13.75 -0.6 L-13.6 -0.6 -13.6 -0.85 -13.55 -0.9 -13.2 -0.9 -13.15 -0.8 Q-13.15 -0.75 -13.2 -0.8 L-13.3 -0.8 -13.5 -0.75 Q-13.5 -0.55 -13.5 -0.5 L-13.85 -0.5 Q-14.25 -0.8 -14.25 -0.95 -14.25 -1.15 -14.05 -1.45 -13.85 -1.75 -13.85 -1.85 -13.85 -2.0 -13.95 -2.05 M-11.7 -1.45 L-11.55 -1.35 -11.45 -1.2 -11.45 -1.15 -11.65 -1.15 -11.95 -1.2 Q-12.05 -1.25 -12.05 -1.3 L-11.9 -1.5 -11.7 -1.45 M-12.8 -0.85 L-12.55 -0.85 -12.2 -0.7 Q-12.35 -0.5 -12.5 -0.5 L-12.7 -0.6 Q-12.75 -0.6 -12.8 -0.65 L-12.8 -0.85 M-10.3 -2.5 L-10.35 -2.4 -10.45 -2.4 Q-10.5 -2.4 -10.5 -2.6 -10.35 -2.6 -10.3 -2.55 L-10.3 -2.5" fill="#ffffff" fill-rule="evenodd" stroke="none"/>
  </g>
</svg>
