<?xml version="1.0" encoding="UTF-8" standalone="no"?>
<svg xmlns:ffdec="https://www.free-decompiler.com/flash" xmlns:xlink="http://www.w3.org/1999/xlink" ffdec:objectType="shape" height="33.1px" width="69.2px" xmlns="http://www.w3.org/2000/svg">
  <g transform="matrix(1.0, 0.0, 0.0, 1.0, 31.6, 47.45)">
    <path d="M9.95 -47.45 L10.1 -47.45 10.5 -47.15 Q10.8 -46.85 10.8 -46.65 10.8 -46.35 10.75 -46.3 L10.6 -46.2 10.55 -46.15 10.5 -46.15 10.45 -46.2 10.15 -46.6 Q9.95 -46.95 9.85 -47.1 L9.85 -47.2 9.95 -47.4 9.95 -47.45 M36.75 -18.1 L36.75 -18.05 Q36.8 -17.85 36.3 -17.6 L35.9 -17.5 Q35.65 -17.5 35.65 -17.65 L35.65 -17.8 Q35.85 -17.95 36.15 -18.1 36.5 -18.2 36.7 -18.15 L36.75 -18.1 M37.55 -15.05 L37.6 -14.95 37.6 -14.85 37.45 -14.6 Q37.2 -14.35 36.85 -14.35 L36.8 -14.4 36.65 -14.5 36.6 -14.55 36.6 -14.65 Q36.95 -15.0 37.4 -15.1 L37.5 -15.1 37.55 -15.05 M-30.25 -33.6 L-30.2 -33.5 -30.15 -33.45 Q-30.15 -33.4 -30.2 -33.35 -30.25 -33.25 -30.65 -33.05 L-30.7 -33.05 -31.1 -33.0 Q-31.3 -33.0 -31.35 -33.15 L-31.35 -33.2 -31.3 -33.25 -31.15 -33.45 -31.1 -33.5 -30.7 -33.65 -30.3 -33.65 -30.25 -33.6 M-31.25 -31.9 L-31.2 -31.95 -30.85 -32.0 Q-30.45 -32.05 -30.4 -31.9 L-30.4 -31.8 -30.45 -31.75 -30.6 -31.65 -30.7 -31.6 -30.95 -31.65 Q-31.35 -31.7 -31.3 -31.85 L-31.25 -31.9 M-29.1 -20.45 Q-28.9 -20.35 -28.8 -19.95 L-28.85 -19.9 -28.9 -19.8 Q-28.95 -19.75 -29.1 -19.7 L-29.15 -19.7 -29.2 -19.75 -29.2 -19.8 -29.35 -20.1 Q-29.5 -20.35 -29.5 -20.45 L-29.5 -20.55 -29.35 -20.55 -29.1 -20.45 M-29.85 -20.4 L-29.85 -20.3 -29.9 -20.3 -30.05 -20.25 -30.7 -20.15 Q-31.05 -20.05 -31.1 -19.9 -31.0 -19.6 -31.1 -19.45 L-31.15 -19.45 -31.2 -19.4 -31.45 -19.4 -31.55 -19.45 -31.55 -19.5 -31.6 -19.65 -31.6 -19.7 Q-31.55 -20.05 -31.15 -20.35 -30.75 -20.7 -30.5 -20.65 -29.85 -20.55 -29.85 -20.45 L-29.85 -20.4 M-31.25 -18.1 Q-31.2 -18.2 -30.65 -17.95 L-30.55 -17.95 -30.55 -17.75 -30.6 -17.7 Q-30.6 -17.65 -30.65 -17.65 L-31.4 -17.65 -31.45 -17.75 -31.45 -17.8 -31.25 -18.1 M-27.8 -18.65 L-27.8 -18.5 -27.85 -18.45 Q-28.25 -18.25 -28.45 -18.25 L-28.5 -18.25 -28.55 -18.3 Q-28.65 -18.3 -28.65 -18.6 -28.65 -18.95 -28.45 -18.95 L-28.35 -18.95 -28.1 -18.9 Q-27.9 -18.85 -27.8 -18.75 L-27.8 -18.65 M-27.75 -17.75 Q-27.7 -17.75 -27.65 -17.7 L-27.55 -17.65 -27.55 -17.3 Q-27.55 -17.1 -27.65 -16.9 L-27.75 -16.65 -27.8 -16.6 -27.85 -16.6 -27.95 -16.55 -28.0 -16.5 -28.1 -16.55 Q-28.2 -16.55 -28.2 -16.85 -28.2 -17.05 -28.1 -17.3 -28.05 -17.55 -28.05 -17.65 L-27.95 -17.75 -27.75 -17.75" fill="#00ffff" fill-opacity="0.5019608" fill-rule="evenodd" stroke="none"/>
    <path d="M10.45 -47.05 Q10.7 -46.8 10.7 -46.65 10.7 -46.45 10.65 -46.4 L10.5 -46.25 10.25 -46.7 Q10.05 -47.0 9.95 -47.15 L10.05 -47.35 10.45 -47.05 M36.25 -17.7 L35.9 -17.65 Q35.75 -17.65 35.75 -17.7 35.95 -17.85 36.2 -17.95 36.5 -18.1 36.65 -18.05 36.65 -17.9 36.25 -17.7 M36.85 -14.5 L36.7 -14.6 Q37.0 -14.9 37.45 -15.0 L37.5 -14.9 37.35 -14.7 Q37.15 -14.45 36.85 -14.5 M-31.1 -33.1 Q-31.2 -33.1 -31.2 -33.2 L-31.05 -33.4 -30.65 -33.5 -30.35 -33.55 -30.3 -33.45 Q-30.35 -33.35 -30.7 -33.15 L-31.1 -33.1 M-30.85 -31.9 Q-30.55 -31.9 -30.55 -31.85 L-30.65 -31.75 -30.95 -31.75 Q-31.2 -31.8 -31.2 -31.85 L-30.85 -31.9 M-30.05 -20.35 L-30.75 -20.3 Q-31.2 -20.15 -31.2 -19.9 -31.15 -19.65 -31.2 -19.55 L-31.45 -19.55 -31.5 -19.7 Q-31.45 -19.95 -31.05 -20.25 -30.7 -20.55 -30.5 -20.55 -30.0 -20.45 -29.95 -20.4 L-30.05 -20.35 M-28.95 -19.95 L-28.95 -19.9 Q-29.05 -19.85 -29.1 -19.8 -29.15 -19.9 -29.25 -20.15 -29.4 -20.35 -29.4 -20.45 L-29.15 -20.4 Q-29.0 -20.25 -28.95 -19.95 M-31.35 -17.75 L-31.2 -18.0 Q-31.1 -18.05 -30.65 -17.85 L-30.65 -17.75 -30.95 -17.8 -31.35 -17.75 M-28.55 -18.6 Q-28.55 -18.85 -28.45 -18.85 L-28.35 -18.85 -28.1 -18.8 -27.9 -18.65 -27.9 -18.55 Q-28.25 -18.35 -28.45 -18.35 L-28.55 -18.4 -28.55 -18.6 M-28.0 -17.3 Q-27.95 -17.5 -27.95 -17.65 L-27.75 -17.65 -27.65 -17.55 -27.65 -17.3 Q-27.65 -17.1 -27.75 -16.95 L-27.85 -16.7 -28.0 -16.65 -28.05 -16.65 Q-28.1 -16.65 -28.1 -16.85 L-28.0 -17.3" fill="#ffffff" fill-rule="evenodd" stroke="none"/>
  </g>
</svg>
