<?xml version="1.0" encoding="UTF-8" standalone="no"?>
<svg xmlns:ffdec="https://www.free-decompiler.com/flash" xmlns:xlink="http://www.w3.org/1999/xlink" ffdec:objectType="shape" height="7.0px" width="11.3px" xmlns="http://www.w3.org/2000/svg">
  <g transform="matrix(1.0, 0.0, 0.0, 1.0, 6.65, 14.15)">
    <path d="M2.55 -14.15 L3.15 -14.15 3.15 -14.1 3.2 -14.1 Q3.2 -14.05 3.45 -14.0 L4.55 -13.85 4.6 -13.8 4.6 -13.75 4.65 -13.5 Q4.65 -13.2 4.3 -12.45 4.05 -11.8 3.85 -11.55 L3.85 -11.5 3.8 -11.5 3.35 -11.45 Q3.2 -11.3 3.1 -11.2 L2.85 -10.85 2.75 -10.85 1.95 -10.3 Q2.05 -10.2 2.05 -10.05 2.05 -9.45 1.65 -9.25 1.45 -9.15 0.5 -9.05 L0.45 -9.05 0.45 -9.0 0.4 -9.0 Q0.3 -9.05 0.3 -9.3 0.3 -9.55 0.45 -9.65 0.55 -9.75 0.75 -9.75 L1.35 -9.65 Q1.5 -9.9 1.55 -10.1 L1.5 -10.4 Q1.5 -10.6 1.75 -10.85 2.0 -11.15 2.25 -11.2 L2.25 -12.05 2.2 -12.25 Q2.2 -12.3 2.25 -12.4 L1.95 -12.2 Q1.3 -11.8 1.2 -11.8 L0.7 -11.7 Q-0.05 -11.45 -1.0 -11.6 L-1.4 -11.55 -2.4 -10.5 -2.7 -10.05 -3.15 -9.6 -3.35 -9.2 -3.4 -9.2 -3.5 -9.15 Q-3.75 -9.0 -4.2 -8.75 L-4.5 -8.55 -4.55 -8.55 -4.55 -8.5 -4.5 -8.55 -4.5 -8.5 -4.55 -8.45 -4.75 -8.45 -4.75 -8.4 -4.8 -8.4 -4.8 -8.45 -5.1 -8.45 -5.45 -8.5 -6.05 -8.5 -6.25 -8.25 -5.85 -7.85 Q-5.55 -7.55 -5.55 -7.4 L-5.6 -7.25 -5.6 -7.15 -5.7 -7.15 -5.8 -7.25 Q-6.05 -7.3 -6.35 -7.6 -6.65 -7.95 -6.65 -8.15 -6.65 -8.2 -6.5 -8.45 L-6.2 -8.85 -6.15 -8.85 -5.9 -8.8 -5.95 -8.9 -6.0 -8.9 Q-6.05 -9.05 -6.05 -9.25 -6.05 -9.55 -5.95 -9.85 L-5.75 -10.4 Q-5.6 -10.75 -5.15 -10.6 L-4.45 -10.35 -4.4 -10.3 -4.35 -10.2 -4.35 -10.15 -4.4 -9.95 Q-4.5 -9.85 -4.75 -9.85 -5.05 -9.85 -5.15 -10.05 L-5.3 -10.3 -5.55 -9.85 Q-5.75 -9.45 -5.75 -9.25 -5.75 -9.1 -5.7 -9.05 -5.65 -9.05 -5.65 -9.0 L-5.1 -8.9 -4.75 -8.85 -4.7 -8.9 -4.3 -9.15 -4.15 -9.25 -3.1 -10.4 Q-2.15 -11.55 -1.9 -11.95 L-1.75 -11.95 -1.7 -12.0 Q-1.2 -12.05 -0.6 -12.25 L-0.2 -12.35 Q0.25 -12.75 0.9 -13.15 L2.5 -14.15 2.55 -14.15 M3.3 -13.7 Q3.2 -13.7 3.15 -13.75 3.0 -13.8 2.95 -13.85 L2.6 -13.8 -0.1 -12.05 0.85 -12.2 1.75 -12.8 Q2.2 -13.0 2.7 -13.0 L2.75 -13.0 2.75 -12.95 2.8 -12.75 2.8 -12.7 2.6 -12.4 2.6 -12.35 Q2.5 -12.2 2.5 -12.0 2.5 -11.9 2.55 -11.75 L2.7 -11.65 2.75 -11.6 2.75 -11.3 2.8 -11.2 Q2.85 -11.35 3.0 -11.5 3.25 -11.75 3.65 -11.85 3.65 -12.2 3.9 -12.75 L4.3 -13.55 3.85 -13.6 Q3.4 -13.65 3.25 -13.7 L3.3 -13.7 M2.6 -12.8 L2.55 -12.8 2.6 -12.75 2.6 -12.8" fill="#00ffff" fill-opacity="0.5019608" fill-rule="evenodd" stroke="none"/>
    <path d="M3.45 -13.9 L4.5 -13.8 4.55 -13.75 4.55 -13.5 Q4.55 -13.2 4.25 -12.5 4.0 -11.85 3.8 -11.55 L3.35 -11.5 Q3.15 -11.4 3.05 -11.2 L2.8 -10.9 2.75 -10.95 1.85 -10.3 Q1.95 -10.25 1.95 -10.05 1.95 -9.5 1.65 -9.3 1.4 -9.2 0.45 -9.1 L0.4 -9.1 0.4 -9.3 Q0.4 -9.65 0.75 -9.65 L1.4 -9.55 Q1.6 -9.85 1.6 -10.1 L1.6 -10.4 Q1.6 -10.55 1.8 -10.85 2.05 -11.1 2.3 -11.1 L2.3 -12.25 Q2.3 -12.45 2.4 -12.55 L2.5 -12.7 1.95 -12.3 Q1.3 -11.85 1.2 -11.85 L0.65 -11.75 Q-0.05 -11.5 -1.0 -11.65 L-1.45 -11.65 -2.45 -10.55 -2.8 -10.1 -3.2 -9.65 -3.45 -9.25 -3.55 -9.25 Q-3.75 -9.05 -4.25 -8.8 L-4.6 -8.55 -4.55 -8.5 -4.9 -8.5 -5.1 -8.55 -5.45 -8.6 -6.05 -8.55 -6.35 -8.25 -5.9 -7.8 Q-5.65 -7.55 -5.65 -7.4 -5.65 -7.2 -5.7 -7.2 L-5.75 -7.3 Q-6.0 -7.35 -6.3 -7.65 -6.55 -7.95 -6.55 -8.15 L-6.45 -8.4 -6.15 -8.8 -5.9 -8.75 -5.4 -8.75 -5.8 -8.8 -5.9 -8.95 Q-5.95 -9.05 -5.95 -9.25 -5.95 -9.5 -5.85 -9.85 L-5.7 -10.4 Q-5.55 -10.65 -5.15 -10.55 L-4.45 -10.25 -4.4 -10.15 -4.45 -10.0 Q-4.55 -9.9 -4.75 -9.9 -5.0 -9.9 -5.1 -10.1 L-5.25 -10.4 Q-5.4 -10.25 -5.6 -9.9 -5.8 -9.5 -5.8 -9.25 -5.8 -9.05 -5.75 -9.0 L-5.7 -8.95 -5.1 -8.8 -4.65 -8.8 -4.3 -9.05 -4.1 -9.2 -3.05 -10.4 Q-2.1 -11.5 -1.8 -11.9 L-1.75 -11.9 -1.7 -11.95 Q-1.2 -11.95 -0.55 -12.2 L-0.2 -12.3 0.95 -13.1 2.5 -14.1 3.1 -14.05 Q3.15 -14.0 3.45 -13.9 M3.15 -13.8 Q3.0 -13.85 3.0 -13.9 L2.6 -13.9 -0.35 -11.95 Q0.3 -12.0 0.9 -12.15 L1.05 -12.25 1.8 -12.7 Q2.2 -12.95 2.7 -12.95 L2.75 -12.7 2.55 -12.4 Q2.45 -12.2 2.45 -12.0 2.45 -11.9 2.5 -11.7 2.55 -11.6 2.65 -11.55 L2.65 -11.3 2.75 -11.0 Q2.85 -11.25 3.05 -11.45 3.3 -11.75 3.7 -11.8 3.7 -12.15 4.0 -12.7 L4.4 -13.65 3.85 -13.7 Q3.3 -13.75 3.3 -13.8 L3.15 -13.8 M2.55 -12.8 L2.6 -12.75 2.6 -12.8 2.55 -12.8" fill="#ffffff" fill-rule="evenodd" stroke="none"/>
  </g>
</svg>
