<?xml version="1.0" encoding="UTF-8" standalone="no"?>
<svg xmlns:ffdec="https://www.free-decompiler.com/flash" xmlns:xlink="http://www.w3.org/1999/xlink" ffdec:objectType="shape" height="26.85px" width="34.05px" xmlns="http://www.w3.org/2000/svg">
  <g transform="matrix(1.0, 0.0, 0.0, 1.0, 18.25, 13.35)">
    <path d="M8.2 -12.05 L8.55 -11.75 Q8.6 -11.7 8.7 -11.65 L9.0 -11.65 Q9.9 -11.65 10.8 -12.05 L11.75 -12.55 Q11.9 -12.7 13.35 -12.95 14.9 -13.25 15.5 -13.2 L15.6 -13.2 15.6 -13.15 15.65 -13.05 Q15.8 -13.0 15.8 -12.95 L15.8 -12.75 15.75 -12.7 14.25 -12.15 Q13.85 -11.85 13.1 -11.3 12.1 -10.55 11.75 -10.35 L11.7 -10.3 11.45 -10.35 Q11.4 -10.35 11.4 -10.4 11.35 -10.4 11.35 -10.5 11.35 -10.6 11.35 -10.7 11.05 -10.9 10.6 -10.85 10.15 -10.85 9.9 -10.85 L9.55 -10.85 Q9.45 -10.8 9.25 -10.8 9.0 -10.8 8.65 -10.95 L7.95 -10.75 Q7.0 -10.4 6.85 -10.25 6.75 -10.15 6.65 -9.85 L6.55 -9.2 Q6.5 -9.05 6.4 -8.05 6.35 -7.35 6.1 -6.95 L6.1 -6.9 6.35 -6.85 6.6 -6.6 6.6 -6.55 6.65 -6.5 7.2 -6.4 Q8.5 -6.45 9.15 -5.6 9.55 -5.05 9.55 -4.5 9.55 -4.15 9.4 -3.65 L8.95 -2.95 8.9 -2.9 8.85 -2.9 Q8.6 -2.6 8.15 -2.2 7.15 -1.35 6.55 -1.35 L5.6 -1.35 5.5 -1.45 Q4.5 -1.5 4.25 -1.65 3.25 -1.85 2.05 -1.05 1.15 -0.35 0.55 0.05 L0.5 0.15 0.35 0.25 0.3 0.3 0.25 0.3 0.15 0.25 0.35 1.6 Q0.55 2.85 0.55 3.15 0.55 3.45 -0.35 4.75 -1.2 5.9 -1.45 6.15 L-2.1 6.8 Q-2.55 7.3 -2.8 7.5 -3.05 7.7 -4.75 7.9 -5.05 8.15 -5.35 8.7 -5.65 9.35 -5.85 9.55 L-5.9 9.55 -6.55 9.65 -6.65 9.65 -7.05 9.55 -7.4 9.6 Q-7.7 9.65 -7.85 9.9 -7.9 9.95 -7.95 9.95 L-8.25 10.0 -8.3 10.0 Q-8.8 9.75 -9.7 9.0 -9.95 8.85 -10.15 8.75 L-10.4 8.75 Q-11.3 8.8 -11.75 9.0 -12.0 9.15 -12.35 9.45 L-12.3 9.45 Q-12.65 9.75 -13.0 9.85 -13.5 10.05 -14.45 10.05 L-15.05 10.3 Q-15.7 10.55 -16.05 10.8 -16.55 11.05 -16.7 11.2 -16.9 11.35 -17.0 11.5 L-17.05 11.55 -17.1 11.7 -17.15 11.8 -17.2 11.85 -17.6 12.4 Q-17.85 12.8 -17.75 12.95 -17.7 13.0 -17.7 13.05 L-17.85 13.35 -17.9 13.4 -18.0 13.45 -18.05 13.5 -18.15 13.45 -18.2 13.4 Q-18.25 13.4 -18.25 13.1 -18.25 12.9 -17.9 12.2 -17.7 11.8 -17.55 11.6 L-17.55 11.55 -17.5 11.45 -16.45 10.15 Q-15.85 9.4 -15.35 9.1 L-15.3 9.1 -15.2 9.05 -15.15 8.95 -15.1 8.9 Q-14.5 8.55 -13.8 7.8 L-12.6 6.3 -12.5 6.25 Q-11.1 5.9 -9.95 5.4 L-8.4 4.65 -8.35 4.65 -7.6 4.75 -7.0 4.9 -6.95 4.9 -6.8 4.95 Q-6.6 5.0 -6.55 5.1 -6.55 5.15 -6.55 5.2 L-6.6 5.3 -6.65 5.35 -6.6 6.0 Q-6.55 6.5 -6.55 6.85 -6.55 7.2 -6.15 7.4 L-5.8 7.55 -5.05 7.4 -4.7 7.35 -4.45 7.3 -3.0 7.0 Q-2.05 6.1 -1.25 5.2 0.15 3.65 0.15 3.1 L0.0 1.6 Q-0.2 0.35 -0.25 0.05 L-0.25 0.0 Q-0.4 -0.15 -0.55 -0.3 -0.7 -0.5 -1.05 -1.2 -1.3 -1.7 -1.6 -1.95 L-1.65 -1.85 -1.8 -1.85 -1.85 -1.95 -1.85 -2.15 -2.05 -2.2 -2.1 -2.2 Q-2.25 -2.1 -2.4 -2.1 -3.1 -2.05 -3.25 -4.35 L-3.35 -6.0 Q-3.4 -6.85 -3.6 -7.2 L-3.55 -7.2 Q-3.7 -7.45 -3.95 -7.75 -4.2 -7.85 -4.3 -8.2 L-4.45 -8.35 -5.45 -9.5 -5.5 -9.55 Q-5.7 -9.55 -5.8 -9.65 L-5.85 -9.65 -5.9 -9.75 -6.2 -9.85 -6.45 -9.95 -6.9 -9.8 Q-7.3 -9.65 -7.35 -9.65 L-7.4 -9.65 -8.5 -10.0 -10.2 -10.1 -11.55 -10.0 -11.6 -10.0 Q-11.7 -9.95 -12.05 -10.35 L-12.55 -10.85 Q-12.85 -11.05 -13.05 -11.25 L-13.1 -11.3 -13.2 -11.3 Q-13.2 -11.35 -13.25 -11.35 L-13.95 -12.1 -14.7 -13.0 -14.75 -13.1 -14.75 -13.2 -14.7 -13.25 -14.6 -13.3 -14.55 -13.35 -14.5 -13.3 -13.2 -12.75 -11.95 -12.25 Q-11.65 -12.15 -11.15 -12.1 -10.35 -12.25 -9.8 -12.6 L-9.8 -12.55 Q-9.5 -12.75 -9.25 -12.7 -8.95 -12.65 -8.35 -12.3 -5.55 -11.85 -5.35 -11.65 -5.1 -11.4 -4.95 -11.0 L-4.7 -10.4 -4.3 -9.8 Q-4.1 -9.45 -4.0 -9.2 -3.95 -9.0 -3.5 -8.1 -3.45 -8.0 -3.5 -7.9 L-3.5 -7.85 -3.25 -7.5 Q-3.15 -7.15 -3.05 -6.25 L-3.05 -6.2 Q-2.9 -5.3 -2.8 -4.95 -2.75 -4.7 -2.75 -4.3 L-2.7 -3.6 Q-2.65 -2.9 -2.2 -2.7 -1.6 -3.1 -0.9 -1.8 L-0.4 -0.9 Q-0.15 -0.55 0.15 -0.35 0.55 -0.75 1.3 -1.3 2.55 -2.2 3.05 -2.15 L6.05 -1.9 6.55 -1.95 6.65 -2.05 Q6.8 -2.1 7.7 -2.7 8.6 -3.35 8.6 -3.55 L8.45 -4.4 8.25 -5.45 Q7.65 -5.6 6.75 -6.0 L6.6 -6.0 5.4 -6.15 5.35 -6.15 5.05 -6.25 4.95 -6.3 Q4.8 -6.6 4.65 -7.1 4.5 -7.55 4.45 -7.95 L4.35 -8.8 Q4.25 -9.35 4.25 -9.5 4.25 -10.35 4.6 -10.65 4.95 -11.1 6.35 -11.55 L7.0 -11.85 Q7.7 -12.15 7.95 -12.15 L8.05 -12.1 8.15 -12.1 8.2 -12.05 M8.15 -11.25 L8.2 -11.3 7.8 -11.6 Q7.45 -11.6 6.45 -11.1 L5.35 -10.55 Q5.15 -10.45 5.0 -10.3 4.85 -10.15 4.8 -10.05 L4.75 -9.75 Q4.7 -9.6 4.7 -9.45 L4.75 -8.75 4.9 -7.85 Q4.95 -7.35 5.05 -7.05 5.15 -6.6 5.5 -6.65 L5.75 -6.65 Q5.65 -6.75 5.65 -6.85 5.65 -7.05 5.85 -7.55 6.0 -7.95 6.0 -8.25 L6.05 -8.3 Q6.05 -8.6 6.3 -9.6 6.35 -9.75 6.3 -10.1 L6.3 -10.15 Q6.4 -10.6 7.05 -10.9 L8.15 -11.25 M8.6 -11.3 L8.7 -11.5 8.55 -11.4 8.6 -11.3 M8.9 -11.25 L8.9 -11.3 8.85 -11.25 8.9 -11.25 M2.9 -5.65 L2.95 -5.6 3.1 -5.5 3.3 -5.3 Q3.4 -5.25 3.5 -5.15 L3.55 -5.1 3.7 -5.1 3.7 -5.15 3.95 -5.1 4.05 -5.0 4.2 -4.9 4.2 -4.7 4.15 -4.65 3.3 -4.65 3.25 -4.75 3.25 -4.8 3.1 -4.85 Q3.0 -4.85 3.0 -4.9 L2.7 -5.4 2.7 -5.55 2.8 -5.6 2.85 -5.65 2.9 -5.65 M4.8 -4.85 L4.85 -4.75 4.85 -4.7 4.9 -4.65 4.9 -4.6 4.65 -4.65 4.7 -4.7 4.8 -4.85 M4.9 -4.45 L4.95 -4.4 4.95 -4.35 4.9 -4.3 4.9 -4.25 4.8 -4.25 4.75 -4.3 4.9 -4.5 4.9 -4.45 M2.3 -5.8 L2.3 -5.6 2.2 -5.5 2.1 -5.5 2.0 -5.6 Q1.1 -5.9 0.6 -6.1 L-0.25 -6.5 -0.3 -6.55 -0.35 -6.65 Q-0.35 -6.8 -0.2 -6.85 L0.2 -6.85 0.25 -6.8 Q0.55 -6.6 0.75 -6.5 1.1 -6.35 2.25 -5.9 L2.3 -5.8 M8.6 -5.55 Q8.95 -5.0 9.0 -3.9 L9.15 -4.5 Q9.15 -4.85 8.8 -5.3 L8.6 -5.55 M6.25 -5.75 L6.3 -5.65 6.3 -5.6 Q6.25 -5.45 6.1 -5.4 L6.0 -5.35 5.95 -5.35 5.95 -5.4 5.9 -5.4 Q5.85 -5.45 5.85 -5.5 L5.85 -5.8 5.95 -5.9 Q6.15 -5.9 6.25 -5.75 M5.85 -5.25 L5.95 -5.15 5.85 -5.1 5.85 -5.05 5.7 -4.95 5.65 -5.1 5.6 -5.2 5.65 -5.25 5.85 -5.25 M5.4 -4.95 L5.4 -4.95 M5.35 -5.0 L5.2 -5.05 5.3 -5.15 5.35 -5.1 5.35 -5.0 M5.3 -5.0 L5.3 -4.95 5.25 -5.0 5.3 -5.0 M5.35 -4.75 L5.3 -4.75 5.35 -4.85 5.35 -4.75 M5.3 -4.65 L5.2 -4.7 5.4 -4.7 5.3 -4.65 M8.9 -3.55 L8.9 -3.55 8.85 -3.5 Q8.5 -3.1 8.15 -2.8 L8.3 -2.6 8.7 -3.0 8.8 -3.2 8.8 -3.3 8.9 -3.25 8.95 -3.4 9.0 -3.6 9.0 -3.9 8.9 -3.55 M11.75 -10.9 Q12.05 -11.05 12.7 -11.55 L11.5 -11.15 11.75 -10.9 M6.45 0.75 L6.4 0.85 6.3 0.9 6.2 1.0 6.0 1.0 5.95 0.95 5.95 0.8 Q5.95 0.7 6.05 0.55 6.15 0.4 6.25 0.35 L6.35 0.35 6.45 0.45 Q6.45 0.55 6.45 0.75 M4.5 1.1 L4.6 1.3 Q4.65 1.5 4.35 1.5 L4.05 1.45 4.05 1.4 3.85 1.35 Q3.85 1.3 3.8 1.3 L3.8 1.2 Q3.75 1.05 3.95 1.0 L4.0 0.95 4.2 0.95 Q4.45 1.0 4.5 1.1 M2.8 0.95 L3.3 1.05 3.35 1.05 3.45 1.1 Q3.6 1.15 3.65 1.2 L3.7 1.25 3.7 1.35 3.65 1.45 3.2 1.5 2.85 1.45 2.45 1.35 Q2.4 1.35 2.35 1.3 L2.35 0.95 Q2.4 0.9 2.45 0.9 L2.8 0.95 M2.05 0.9 Q2.3 0.95 2.3 1.0 L2.3 1.1 2.25 1.2 2.25 1.25 2.2 1.25 1.85 1.35 1.8 1.35 1.75 1.25 1.7 1.2 Q1.7 0.9 1.85 0.85 L2.05 0.85 2.05 0.9 M1.05 2.2 Q1.15 2.05 1.4 2.15 L1.5 2.2 1.5 2.4 1.3 2.7 1.25 2.75 1.2 2.75 Q1.1 2.85 1.05 2.8 1.0 2.8 0.95 2.7 0.95 2.65 0.95 2.5 0.95 2.25 1.05 2.2 M0.55 4.35 L0.6 4.4 Q0.65 4.65 0.6 5.0 L0.6 5.05 0.55 5.1 0.45 5.15 0.35 5.15 0.3 5.1 0.25 4.95 0.25 4.5 0.3 4.45 Q0.3 4.4 0.3 4.35 L0.4 4.3 0.45 4.3 0.55 4.35 M0.1 5.35 Q0.1 5.25 0.15 5.25 0.15 5.2 0.2 5.2 L0.35 5.2 0.4 5.25 0.5 5.3 0.55 5.35 0.6 5.45 0.45 5.75 0.4 5.75 Q0.3 5.95 0.05 5.95 L0.0 5.95 -0.05 5.9 -0.1 5.8 Q-0.1 5.7 -0.05 5.6 0.0 5.55 0.1 5.5 L0.1 5.35 M-12.4 -11.2 L-12.2 -11.0 Q-11.85 -10.55 -11.75 -10.5 L-10.25 -10.6 Q-8.75 -10.6 -8.0 -10.35 -7.6 -10.1 -7.55 -10.1 L-7.2 -10.25 -7.0 -10.35 -7.2 -10.4 Q-8.9 -10.95 -10.75 -11.15 L-12.4 -11.2 M-4.75 -9.4 L-4.75 -9.35 -4.5 -9.05 Q-4.6 -9.55 -4.75 -9.75 -5.0 -10.1 -5.3 -10.85 -5.6 -11.4 -6.1 -11.45 L-7.15 -11.6 -6.9 -11.35 -6.75 -10.95 -6.75 -11.0 Q-6.6 -10.75 -6.35 -10.65 L-5.95 -10.45 -5.6 -10.2 Q-5.45 -10.2 -5.15 -9.95 -4.85 -9.7 -4.75 -9.5 L-4.75 -9.4 M-2.8 -7.65 L-2.75 -7.7 Q-2.6 -7.7 -2.0 -7.3 -1.65 -7.35 -1.15 -7.1 L-1.1 -7.0 Q-1.05 -6.95 -1.1 -6.9 L-1.15 -6.8 -1.25 -6.8 -1.9 -6.95 Q-2.45 -7.05 -2.8 -7.25 L-2.85 -7.3 -2.85 -7.55 -2.8 -7.65 M-5.25 -3.4 Q-4.95 -3.9 -4.6 -3.9 -4.5 -3.9 -4.4 -3.95 -4.35 -4.15 -4.25 -4.2 L-4.2 -4.25 -4.1 -4.2 -4.05 -4.15 Q-4.05 -4.1 -4.1 -4.05 L-4.15 -3.8 Q-4.2 -3.65 -4.25 -3.5 -4.3 -3.45 -4.35 -3.45 -4.8 -3.4 -5.05 -3.0 -5.2 -2.7 -5.2 -2.5 -5.2 -2.45 -5.15 -2.4 -5.05 -2.25 -5.05 -2.05 L-5.05 -1.8 -5.1 -1.65 -5.15 -1.6 -5.25 -1.55 -5.3 -1.55 -5.25 -1.45 Q-5.2 -1.35 -5.2 -1.1 -5.2 -1.0 -5.35 -0.6 L-5.5 -0.25 -5.45 -0.1 -5.45 0.0 -5.5 0.05 -5.6 0.1 -5.65 0.05 Q-5.85 -0.15 -5.85 -0.55 -5.85 -0.7 -5.65 -1.0 -5.55 -1.15 -5.55 -1.4 L-5.5 -1.55 -5.4 -1.55 -5.4 -2.15 Q-5.55 -2.3 -5.55 -2.5 -5.55 -2.95 -5.25 -3.4 M-4.15 0.85 L-4.2 0.95 -4.2 1.0 Q-4.25 1.05 -4.3 1.05 L-4.4 1.0 -4.55 0.8 -4.85 0.75 Q-5.3 0.7 -5.3 0.5 L-5.25 0.4 -5.15 0.35 -4.55 0.25 Q-4.45 0.25 -4.15 0.75 L-4.15 0.85 M-4.15 1.3 L-4.15 1.5 -4.2 1.6 -4.25 1.65 -4.3 1.75 -4.35 1.8 -4.45 1.8 Q-4.55 1.8 -4.55 1.5 -4.55 1.2 -4.45 1.15 -4.45 1.1 -4.3 1.1 -4.25 1.1 -4.2 1.15 L-4.15 1.25 -4.15 1.3 M-4.0 2.4 L-3.95 2.4 -3.9 2.45 Q-3.8 2.45 -3.8 2.75 -3.8 2.9 -3.85 2.95 L-3.85 3.05 Q-3.9 3.3 -4.1 3.25 L-4.3 3.15 -4.35 3.15 -4.4 3.05 -4.4 2.95 Q-4.15 2.45 -4.05 2.4 L-4.0 2.4 M-5.0 3.45 L-4.85 3.45 Q-4.75 3.55 -4.7 3.75 -4.65 3.85 -4.65 4.1 L-4.7 4.55 Q-4.75 4.9 -5.0 5.05 L-5.05 5.1 Q-5.05 5.2 -5.1 5.2 -5.2 5.25 -5.25 5.1 L-5.3 4.85 Q-5.3 4.7 -5.15 4.55 L-5.0 4.3 -5.0 4.05 -5.25 4.05 -5.55 3.75 -5.75 3.45 -6.35 3.45 -6.4 3.5 -6.6 3.5 Q-6.65 3.5 -6.7 3.45 L-6.7 3.25 -6.6 3.1 -6.55 3.05 Q-5.65 2.65 -5.45 3.0 -5.4 3.1 -5.4 3.35 L-5.35 3.45 Q-5.3 3.5 -5.2 3.6 L-5.15 3.65 -5.1 3.6 -5.0 3.45 M-4.3 3.5 L-4.25 3.45 -4.05 3.45 Q-4.0 3.45 -4.0 3.5 -3.95 3.65 -3.95 3.85 L-3.95 4.1 -4.0 4.2 -4.05 4.25 -4.2 4.25 -4.3 4.2 -4.3 3.5 M-1.3 6.85 L-1.3 7.05 Q-1.55 7.65 -2.45 8.25 L-3.75 9.15 -3.8 9.2 -3.9 9.15 -3.95 9.05 -3.95 8.85 -3.9 8.8 -2.6 7.7 Q-1.65 6.9 -1.45 6.8 L-1.4 6.8 -1.3 6.85 M-0.45 5.95 Q-0.2 5.95 -0.2 6.1 -0.2 6.15 -0.2 6.2 L-0.2 6.25 -0.3 6.3 -0.5 6.35 -0.55 6.4 -0.55 6.5 -0.6 6.6 -0.75 6.6 -0.85 6.55 -0.9 6.45 Q-0.9 6.3 -0.8 6.15 -0.75 5.95 -0.65 5.9 L-0.6 5.9 -0.45 5.95 M-6.8 3.4 Q-6.75 3.45 -6.75 3.5 -6.75 3.55 -6.8 3.6 L-7.4 4.15 -7.45 4.2 -7.5 4.2 Q-7.6 4.25 -7.7 4.1 L-7.7 3.85 -7.65 3.8 Q-7.25 3.35 -6.9 3.35 -6.85 3.35 -6.8 3.4 M-9.6 5.85 L-9.7 5.9 Q-10.55 6.05 -11.15 6.25 L-12.35 6.7 -12.9 7.45 Q-13.35 8.05 -13.55 8.2 L-13.8 8.45 -12.9 8.05 Q-11.1 7.35 -10.75 7.35 -10.5 7.35 -9.8 7.6 -9.3 7.8 -9.15 7.85 L-6.55 7.65 Q-6.85 7.45 -6.9 7.15 -6.95 7.0 -6.95 6.6 -6.95 6.2 -7.0 6.0 L-7.0 5.35 -7.35 5.25 Q-7.85 5.05 -7.95 5.05 -8.4 5.05 -9.0 5.45 L-9.6 5.85 M-5.4 8.0 L-6.3 8.2 -7.1 8.35 -7.5 8.55 -7.85 8.7 -7.9 8.75 -8.15 8.8 -8.4 8.75 -9.25 8.75 -8.25 9.55 -8.1 9.5 Q-7.85 9.35 -7.2 9.2 L-6.05 9.05 -5.75 8.6 -5.4 8.0 M-4.9 9.15 Q-4.85 9.05 -4.65 9.0 L-4.25 8.95 -4.2 8.95 -4.15 9.05 -4.15 9.1 Q-4.15 9.15 -4.15 9.2 L-4.2 9.25 Q-4.35 9.45 -4.45 9.45 L-4.5 9.45 -4.8 9.4 -4.9 9.35 -4.95 9.25 -4.9 9.15" fill="#ffffff" fill-opacity="0.5019608" fill-rule="evenodd" stroke="none"/>
    <path d="M8.15 -11.85 L8.15 -11.95 8.45 -11.6 Q8.55 -11.55 8.7 -11.5 L9.0 -11.5 Q9.9 -11.5 10.85 -11.9 L11.8 -12.45 Q11.95 -12.55 13.4 -12.8 L15.5 -13.05 15.55 -12.9 15.7 -12.85 14.2 -12.3 13.05 -11.45 Q12.0 -10.7 11.7 -10.45 L11.45 -10.5 Q11.45 -10.65 11.5 -10.75 11.15 -11.05 10.6 -11.0 10.15 -11.0 9.9 -11.0 L9.7 -11.0 Q9.6 -11.0 9.45 -11.05 9.45 -10.95 9.25 -10.95 9.0 -10.95 8.7 -11.1 L7.9 -10.85 Q6.95 -10.55 6.75 -10.4 6.6 -10.25 6.55 -9.85 L6.4 -9.25 Q6.35 -9.05 6.3 -8.05 6.25 -7.3 5.9 -6.85 L6.1 -6.8 6.3 -6.7 6.5 -6.45 6.55 -6.35 7.2 -6.25 Q8.45 -6.3 9.05 -5.5 9.4 -5.0 9.4 -4.5 9.4 -4.15 9.3 -3.7 L8.85 -3.05 8.95 -3.25 Q8.75 -2.9 8.05 -2.3 7.15 -1.5 6.55 -1.5 L5.6 -1.55 5.55 -1.6 Q4.45 -1.65 4.3 -1.8 3.25 -2.0 2.0 -1.2 1.0 -0.4 0.35 0.0 L0.4 0.0 0.25 0.15 0.15 0.1 0.0 0.2 Q0.1 0.65 0.25 1.65 0.4 2.85 0.4 3.15 0.4 3.4 -0.45 4.65 -1.3 5.8 -1.5 6.0 L-2.15 6.7 Q-2.6 7.2 -2.9 7.4 -3.15 7.55 -4.8 7.75 -5.15 8.05 -5.45 8.6 -5.75 9.25 -5.9 9.4 -6.5 9.4 -6.65 9.5 L-7.0 9.4 -7.4 9.45 Q-7.8 9.5 -7.95 9.8 L-8.25 9.85 Q-8.75 9.6 -9.65 8.9 -9.9 8.7 -10.15 8.6 L-10.4 8.6 Q-11.3 8.65 -11.8 8.9 -12.05 9.0 -12.4 9.3 -12.7 9.6 -13.05 9.7 -13.5 9.9 -14.45 9.9 -14.5 9.9 -15.05 10.15 -15.75 10.45 -16.1 10.65 -16.6 10.95 -16.8 11.1 -17.05 11.3 -17.15 11.45 L-17.25 11.65 -17.25 11.7 -17.7 12.3 Q-18.05 12.8 -17.85 13.05 L-17.95 13.25 -18.05 13.35 -18.1 13.3 -18.15 13.1 Q-18.15 12.9 -17.8 12.3 -17.6 11.85 -17.35 11.6 L-17.4 11.6 -16.35 10.25 Q-15.8 9.55 -15.25 9.25 L-14.85 9.05 -15.05 9.05 Q-14.45 8.7 -13.7 7.9 -13.35 7.5 -12.5 6.4 -11.1 6.0 -9.9 5.5 -9.45 5.35 -8.35 4.8 L-7.65 4.9 -7.0 5.05 -6.7 5.15 -6.8 5.25 -6.75 6.0 Q-6.7 6.55 -6.7 6.85 -6.7 7.3 -6.2 7.55 L-5.8 7.7 -5.05 7.55 -4.65 7.5 -4.45 7.45 -2.95 7.15 Q-1.95 6.2 -1.15 5.3 0.3 3.7 0.3 3.1 0.3 2.9 0.1 1.6 -0.05 0.3 -0.15 0.0 L-0.1 -0.05 Q-0.3 -0.2 -0.45 -0.4 -0.6 -0.6 -0.95 -1.25 -1.45 -2.25 -2.1 -2.35 L-2.15 -2.3 Q-2.3 -2.25 -2.4 -2.25 -3.0 -2.25 -3.1 -4.35 L-3.2 -6.05 Q-3.3 -6.95 -3.45 -7.3 -3.6 -7.55 -3.9 -7.9 -4.1 -8.0 -4.2 -8.25 L-4.35 -8.5 -5.35 -9.6 -5.5 -9.7 Q-5.65 -9.7 -5.75 -9.8 L-5.85 -9.9 -6.45 -10.1 Q-6.6 -10.1 -6.95 -9.95 L-7.35 -9.8 -8.5 -10.15 -10.2 -10.25 -11.6 -10.15 Q-11.65 -10.15 -11.95 -10.45 L-12.5 -11.0 -13.0 -11.4 -13.05 -11.45 -13.15 -11.45 -13.85 -12.25 -14.6 -13.1 -14.6 -13.15 -14.55 -13.2 -13.25 -12.6 Q-12.2 -12.15 -12.0 -12.1 -11.65 -12.0 -11.15 -11.95 -10.3 -12.1 -9.75 -12.45 -9.45 -12.6 -9.25 -12.55 -9.0 -12.5 -8.4 -12.15 -5.6 -11.7 -5.45 -11.55 -5.2 -11.3 -5.05 -10.95 L-4.8 -10.35 -4.4 -9.7 Q-4.2 -9.4 -4.15 -9.15 -4.1 -8.95 -3.6 -8.05 -3.6 -8.0 -3.6 -7.95 L-3.6 -7.8 -3.4 -7.45 Q-3.25 -7.1 -3.15 -6.2 -3.05 -5.25 -2.95 -4.9 -2.9 -4.65 -2.85 -4.3 L-2.85 -3.6 Q-2.75 -2.8 -2.25 -2.55 L-2.2 -2.55 Q-1.65 -2.9 -1.0 -1.7 L-0.5 -0.8 Q-0.2 -0.4 0.15 -0.15 0.55 -0.6 1.4 -1.2 2.55 -2.0 3.05 -2.0 L6.05 -1.75 6.6 -1.8 6.65 -1.9 Q6.85 -1.95 7.75 -2.6 8.75 -3.3 8.75 -3.55 L8.6 -4.45 8.35 -5.6 Q7.7 -5.75 6.8 -6.15 L6.6 -6.15 5.4 -6.3 5.05 -6.4 Q4.9 -6.65 4.75 -7.15 4.65 -7.6 4.6 -8.0 L4.5 -8.85 4.4 -9.5 Q4.4 -10.25 4.7 -10.55 5.05 -10.95 6.35 -11.45 L7.05 -11.7 Q7.7 -12.0 7.95 -12.0 L8.2 -11.8 8.15 -11.85 M8.65 -11.4 L8.65 -11.4 M7.8 -11.75 Q7.45 -11.75 6.4 -11.25 L5.3 -10.7 Q5.1 -10.55 4.9 -10.4 4.7 -10.25 4.65 -10.05 L4.65 -9.8 Q4.6 -9.6 4.6 -9.45 4.6 -9.25 4.65 -8.75 L4.75 -7.8 Q4.85 -7.35 4.9 -7.0 5.05 -6.45 5.5 -6.5 6.1 -6.5 6.3 -6.35 L6.25 -6.4 6.25 -6.35 6.1 -6.55 Q5.8 -6.75 5.8 -6.85 5.8 -7.05 5.95 -7.45 6.15 -7.9 6.15 -8.25 L6.4 -9.55 Q6.45 -9.75 6.45 -10.15 6.55 -10.5 7.1 -10.75 L8.15 -11.15 8.5 -11.25 8.35 -11.35 Q7.85 -11.75 7.8 -11.75 M3.35 -4.95 L3.1 -5.0 2.8 -5.45 2.9 -5.5 3.05 -5.35 3.2 -5.15 3.4 -5.05 3.45 -4.95 3.75 -5.0 3.9 -4.95 4.0 -4.9 4.1 -4.8 3.35 -4.8 3.35 -4.95 M4.4 -4.8 Q4.7 -4.75 4.75 -4.65 L4.75 -4.55 4.95 -4.8 Q5.05 -5.0 5.25 -5.0 L5.3 -4.95 5.55 -5.15 Q5.8 -5.35 5.95 -5.4 5.9 -5.3 5.8 -5.2 L5.65 -5.05 5.8 -5.1 5.9 -5.05 5.7 -4.9 Q5.55 -4.75 5.45 -4.75 L5.4 -4.75 5.3 -4.8 5.05 -4.55 4.85 -4.4 4.8 -4.45 4.8 -4.35 4.75 -4.3 Q4.65 -4.35 4.5 -4.5 L4.35 -4.75 4.4 -4.8 M0.7 -6.35 Q1.05 -6.2 2.2 -5.75 L2.2 -5.65 2.15 -5.65 2.1 -5.7 Q1.15 -6.05 0.65 -6.25 L-0.2 -6.65 -0.2 -6.7 0.2 -6.7 Q0.5 -6.45 0.7 -6.35 M8.45 -5.5 Q8.9 -4.9 8.9 -3.6 8.9 -3.3 8.25 -2.7 8.6 -3.0 9.0 -3.45 9.3 -4.3 9.3 -4.5 9.3 -4.9 8.9 -5.4 8.45 -5.95 7.9 -6.0 L7.8 -6.0 Q8.2 -5.8 8.45 -5.5 M6.15 -5.65 Q6.15 -5.55 5.95 -5.5 L5.95 -5.75 Q6.1 -5.75 6.15 -5.65 M5.35 -4.9 L5.3 -4.9 5.35 -4.85 5.35 -4.9 M13.6 -12.05 L13.55 -12.05 Q11.9 -11.4 11.1 -11.2 11.35 -11.1 11.5 -11.0 11.65 -10.85 11.7 -10.7 12.0 -10.85 13.2 -11.75 L13.6 -12.05 M6.3 0.75 Q6.2 0.75 6.1 0.85 L6.05 0.8 Q6.05 0.75 6.15 0.65 6.25 0.55 6.3 0.5 L6.3 0.75 M4.2 1.1 Q4.35 1.15 4.35 1.2 L4.45 1.3 4.35 1.35 4.1 1.3 3.9 1.2 4.0 1.15 4.05 1.1 4.2 1.1 M3.3 1.2 L3.4 1.2 3.55 1.3 3.2 1.35 2.9 1.3 2.45 1.2 2.45 1.05 2.75 1.1 3.3 1.2 M2.05 1.0 L2.2 1.1 2.15 1.1 1.85 1.2 Q1.85 1.05 1.9 1.0 L2.05 1.0 M1.1 2.6 Q1.05 2.75 1.05 2.5 1.05 2.35 1.1 2.3 L1.4 2.3 1.2 2.6 1.1 2.6 M0.4 4.45 L0.45 4.45 Q0.5 4.7 0.5 4.95 L0.4 5.0 0.4 4.95 0.35 4.75 0.4 4.55 0.4 4.45 M0.45 5.45 L0.3 5.65 Q0.25 5.8 0.05 5.8 L0.05 5.7 Q0.1 5.65 0.2 5.6 L0.2 5.35 0.3 5.35 Q0.3 5.4 0.45 5.45 M-12.8 -11.4 L-12.3 -10.95 Q-11.85 -10.35 -11.75 -10.35 L-10.25 -10.45 Q-8.75 -10.45 -8.05 -10.2 -7.65 -9.95 -7.55 -9.95 -7.5 -9.95 -7.15 -10.1 -6.85 -10.25 -6.75 -10.25 L-6.6 -10.25 Q-6.75 -10.3 -6.9 -10.45 L-7.2 -10.55 Q-8.9 -11.1 -10.75 -11.3 L-12.8 -11.4 M-4.25 -8.6 Q-4.4 -9.55 -4.65 -9.85 -4.9 -10.15 -5.2 -10.95 -5.55 -11.55 -6.1 -11.6 L-7.85 -11.9 -7.95 -11.9 -7.6 -11.7 Q-7.15 -11.45 -7.05 -11.3 L-6.85 -10.9 Q-6.7 -10.65 -6.4 -10.5 L-6.0 -10.3 -5.6 -10.05 Q-5.5 -10.05 -5.25 -9.85 -4.95 -9.6 -4.85 -9.4 -4.85 -9.35 -4.9 -9.3 L-4.25 -8.6 M-6.4 -10.2 L-6.2 -10.15 -6.1 -10.15 -6.3 -10.2 -6.4 -10.2 M-5.25 -2.3 Q-5.15 -2.2 -5.15 -2.05 L-5.15 -1.85 -5.2 -1.75 -5.3 -1.7 -5.25 -1.85 -5.25 -2.1 Q-5.25 -2.2 -5.35 -2.3 -5.45 -2.35 -5.45 -2.5 -5.45 -2.9 -5.15 -3.3 -4.9 -3.75 -4.6 -3.75 -4.4 -3.75 -4.3 -3.85 -4.25 -4.05 -4.2 -4.1 L-4.25 -3.85 Q-4.3 -3.7 -4.35 -3.6 -4.85 -3.55 -5.15 -3.1 -5.35 -2.75 -5.35 -2.5 -5.35 -2.4 -5.25 -2.3 M-5.35 -1.1 Q-5.35 -1.0 -5.45 -0.7 -5.6 -0.35 -5.6 -0.25 L-5.55 -0.05 Q-5.7 -0.25 -5.7 -0.55 -5.7 -0.7 -5.55 -0.9 -5.45 -1.1 -5.45 -1.4 L-5.35 -1.4 -5.35 -1.1 M-1.2 -6.95 L-1.85 -7.1 Q-2.4 -7.2 -2.75 -7.4 L-2.75 -7.55 Q-2.6 -7.55 -2.05 -7.15 -1.65 -7.2 -1.2 -6.95 M-1.7 -2.1 L-1.7 -2.0 -1.75 -2.0 -1.7 -2.1 M-4.3 0.9 L-4.45 0.7 Q-4.5 0.65 -4.85 0.6 -5.15 0.55 -5.15 0.5 L-4.55 0.4 Q-4.5 0.4 -4.25 0.85 L-4.3 0.9 M-4.3 1.3 L-4.3 1.5 Q-4.35 1.5 -4.35 1.55 L-4.4 1.65 Q-4.45 1.65 -4.45 1.5 -4.45 1.3 -4.4 1.25 L-4.3 1.25 -4.3 1.3 M-3.9 2.75 Q-3.9 2.8 -3.95 2.85 -4.0 2.9 -4.0 3.05 -4.0 3.1 -4.05 3.1 L-4.25 3.05 Q-4.1 2.6 -4.0 2.55 L-3.95 2.6 Q-3.9 2.6 -3.9 2.75 M-4.95 3.6 Q-4.85 3.65 -4.8 3.8 -4.8 3.85 -4.8 4.1 L-4.8 4.5 Q-4.9 4.85 -5.1 4.95 -5.15 5.15 -5.15 4.85 -5.15 4.75 -5.05 4.65 -4.95 4.5 -4.9 4.35 L-4.9 3.85 Q-4.95 3.85 -5.0 3.9 L-5.25 3.9 -5.5 3.6 Q-5.65 3.4 -5.7 3.3 L-6.45 3.35 -6.6 3.35 -6.5 3.2 Q-5.7 2.85 -5.55 3.1 -5.5 3.15 -5.5 3.35 -5.5 3.5 -5.45 3.55 -5.4 3.6 -5.35 3.7 -5.3 3.8 -5.15 3.8 -5.05 3.8 -5.0 3.7 L-4.95 3.6 M-4.1 3.6 Q-4.05 3.7 -4.1 3.85 L-4.1 4.05 -4.2 4.1 -4.2 3.6 -4.1 3.6 M-0.5 6.1 Q-0.3 6.1 -0.3 6.15 L-0.6 6.2 -0.65 6.35 -0.7 6.45 -0.75 6.45 Q-0.75 6.35 -0.7 6.2 -0.65 6.1 -0.6 6.05 L-0.5 6.1 M-9.1 5.3 Q-9.4 5.5 -9.7 5.75 -10.6 5.9 -11.15 6.1 L-12.4 6.55 -13.0 7.35 Q-13.45 7.9 -13.6 8.05 L-14.2 8.6 -14.65 8.95 -12.9 8.2 Q-11.1 7.5 -10.75 7.5 -10.5 7.5 -9.85 7.75 -9.2 7.95 -9.15 8.0 L-6.05 7.7 -6.35 7.6 Q-6.7 7.45 -6.75 7.1 L-6.8 6.6 Q-6.8 6.2 -6.85 5.95 L-6.85 5.25 -7.3 5.1 Q-7.8 4.9 -7.95 4.9 -8.45 4.9 -9.1 5.3 M-7.5 4.05 Q-7.6 4.1 -7.6 3.9 -7.2 3.5 -6.9 3.5 L-7.45 4.0 -7.5 4.05 M-5.65 8.7 L-5.3 8.1 -5.1 7.8 -5.3 7.85 -6.35 8.05 -7.15 8.2 Q-7.3 8.25 -7.55 8.4 L-7.95 8.6 -8.15 8.65 -8.35 8.6 -9.8 8.6 Q-9.55 8.7 -9.3 8.85 -8.65 9.45 -8.25 9.7 L-8.05 9.65 Q-7.85 9.5 -7.2 9.35 L-6.0 9.2 Q-5.85 9.0 -5.65 8.7 M-3.8 9.05 L-3.85 8.9 Q-3.6 8.75 -2.55 7.85 -1.6 7.05 -1.4 6.95 -1.65 7.5 -2.55 8.1 -3.7 8.95 -3.8 9.05 M-4.25 9.15 L-4.5 9.3 -4.8 9.25 Q-4.75 9.2 -4.6 9.15 L-4.3 9.1 -4.25 9.15 M-0.05 0.1 L0.05 0.05 -0.1 -0.05 -0.05 0.1" fill="#ffffff" fill-rule="evenodd" stroke="none"/>
  </g>
</svg>
