<?xml version="1.0" encoding="UTF-8" standalone="no"?>
<svg xmlns:ffdec="https://www.free-decompiler.com/flash" xmlns:xlink="http://www.w3.org/1999/xlink" ffdec:objectType="shape" height="59.05px" width="80.2px" xmlns="http://www.w3.org/2000/svg">
  <g transform="matrix(1.0, 0.0, 0.0, 1.0, 46.15, 51.15)">
    <path d="M-17.7 7.5 Q-17.75 7.6 -17.9 7.75 L-18.05 7.85 Q-18.1 7.85 -18.1 7.9 L-18.5 7.9 -18.85 7.8 -18.95 7.7 -18.95 7.65 -18.9 7.55 -18.85 7.55 -18.85 7.5 -18.2 7.35 Q-17.85 7.25 -17.75 7.4 L-17.7 7.45 -17.7 7.5 M-20.75 6.0 Q-20.6 5.95 -20.3 6.15 -20.05 6.35 -19.9 6.45 L-19.9 6.6 Q-20.0 6.75 -20.25 6.85 L-20.3 6.85 Q-20.45 6.8 -20.6 6.55 L-20.85 6.15 -20.85 6.05 -20.8 6.0 -20.75 6.0 M-22.35 4.9 Q-22.15 5.05 -22.0 5.25 -21.9 5.45 -21.95 5.6 L-21.95 5.9 -22.0 5.9 -22.05 5.95 -22.35 5.95 -22.45 5.9 -22.45 5.85 Q-22.5 5.8 -22.55 5.65 -22.7 5.5 -22.7 5.25 -22.7 4.95 -22.6 4.95 L-22.5 4.9 -22.35 4.9 M-17.3 5.15 L-17.2 5.15 Q-17.05 5.25 -16.8 5.7 -16.5 6.15 -16.5 6.45 L-16.55 6.55 -16.7 6.55 Q-16.75 6.55 -16.8 6.55 L-16.85 6.5 Q-16.95 6.15 -17.1 5.8 L-17.35 5.35 -17.4 5.25 -17.3 5.15 M-29.8 -3.1 L-29.8 -2.2 -30.1 -1.95 Q-30.25 -1.8 -30.35 -1.75 L-30.4 -1.75 Q-30.45 -1.75 -30.5 -1.75 L-30.5 -1.8 -30.55 -1.9 -30.55 -2.0 Q-30.25 -2.6 -30.1 -3.05 L-30.0 -3.15 -29.9 -3.15 -29.8 -3.1 M-29.65 -4.1 L-29.75 -4.15 -29.7 -4.25 Q-29.7 -4.4 -29.3 -4.45 L-29.2 -4.4 -29.15 -4.35 Q-29.1 -4.3 -29.1 -4.2 L-29.1 -4.15 Q-29.15 -4.1 -29.2 -4.1 L-29.55 -4.05 -29.6 -4.05 -29.65 -4.1 M-31.6 -4.5 Q-31.6 -4.25 -31.75 -3.95 L-31.85 -3.65 -31.9 -3.55 -32.15 -3.55 -32.2 -3.6 -32.2 -3.7 -32.25 -3.8 Q-32.35 -3.9 -32.35 -4.15 -32.35 -4.4 -32.2 -4.6 L-32.05 -4.9 -32.0 -4.95 -31.9 -4.95 Q-31.7 -4.9 -31.7 -4.85 -31.6 -4.75 -31.6 -4.5 M-30.9 -6.5 L-30.85 -6.5 Q-30.7 -6.45 -30.7 -6.15 -30.7 -6.0 -31.05 -5.7 -31.35 -5.5 -31.65 -5.4 L-31.8 -5.4 -31.8 -5.5 -31.75 -5.55 -31.5 -5.85 Q-31.35 -6.0 -31.2 -6.45 L-31.15 -6.5 -31.05 -6.55 -30.9 -6.5 M-43.65 -15.0 Q-43.7 -15.15 -43.8 -15.15 -43.8 -15.2 -43.85 -15.25 L-43.85 -15.3 Q-43.75 -15.5 -43.25 -15.55 L-43.2 -15.55 -43.05 -15.5 -43.0 -15.45 -43.0 -15.1 -42.95 -15.0 -42.6 -15.0 -42.45 -15.3 Q-42.3 -15.55 -42.3 -15.65 L-42.25 -15.7 -42.15 -15.75 -42.05 -15.75 -42.0 -15.7 -41.95 -15.6 Q-41.95 -15.3 -42.25 -14.65 L-42.35 -14.55 -42.6 -14.55 -43.1 -14.5 -43.55 -14.55 -43.65 -14.65 -43.65 -15.0 M-45.95 -18.25 L-45.6 -18.25 -45.55 -18.2 -45.55 -18.1 Q-45.6 -18.0 -45.5 -17.85 L-45.3 -17.55 -45.25 -17.5 -45.3 -17.4 -45.35 -17.35 -45.65 -17.35 -45.95 -17.6 -46.0 -17.6 Q-46.15 -17.75 -46.15 -17.9 -46.15 -18.2 -46.05 -18.2 L-45.95 -18.25 M-42.15 -19.1 L-42.1 -19.1 Q-42.0 -19.05 -41.85 -18.8 L-41.8 -18.7 -41.9 -18.6 Q-42.35 -18.55 -42.45 -18.45 L-42.6 -18.25 -42.25 -18.15 -41.9 -18.1 -41.85 -18.05 Q-41.35 -17.3 -41.35 -17.15 -41.35 -17.0 -41.4 -16.9 -41.5 -16.8 -41.6 -16.85 L-41.8 -16.9 -41.95 -16.95 -42.05 -17.0 -42.05 -17.1 -41.95 -17.2 -41.8 -17.2 Q-41.75 -17.2 -41.75 -17.3 -41.8 -17.35 -41.9 -17.5 -42.0 -17.65 -42.1 -17.7 L-42.75 -17.8 -42.8 -17.8 Q-43.0 -18.05 -43.0 -18.2 L-43.0 -18.25 -42.95 -18.3 -42.7 -18.65 Q-42.5 -18.9 -42.2 -19.05 L-42.15 -19.1 M-28.3 -40.65 L-28.1 -40.6 Q-27.85 -40.5 -27.85 -40.25 -27.85 -40.1 -27.9 -40.0 -27.95 -39.9 -28.1 -39.9 -28.15 -39.95 -28.25 -40.0 L-28.5 -40.05 Q-28.8 -40.05 -28.9 -40.1 L-28.95 -40.15 -28.95 -40.25 -28.85 -40.45 -28.85 -40.5 Q-28.7 -40.65 -28.3 -40.65 M-27.55 -42.6 L-27.55 -42.75 Q-27.5 -42.95 -27.4 -42.9 L-27.35 -42.9 -27.1 -43.0 -27.05 -43.0 -26.85 -42.95 -26.8 -42.95 Q-26.65 -42.9 -26.65 -42.6 -26.65 -42.4 -26.75 -42.25 L-26.75 -42.2 -26.95 -42.0 Q-27.05 -41.85 -26.65 -41.6 L-26.6 -41.55 -26.6 -41.45 -26.65 -41.4 Q-26.7 -41.3 -26.95 -41.4 L-27.1 -41.5 -27.15 -41.5 -27.2 -41.6 Q-27.25 -42.15 -27.4 -42.35 L-27.4 -42.4 -27.5 -42.45 -27.55 -42.5 -27.55 -42.6 M-22.55 -34.45 Q-22.6 -34.4 -22.85 -34.3 L-23.1 -34.3 -23.3 -34.5 -23.45 -34.7 -23.5 -34.75 -23.5 -34.85 -23.45 -34.9 -22.9 -34.85 -22.6 -34.65 -22.5 -34.55 Q-22.5 -34.5 -22.55 -34.45 M-22.95 -36.4 L-22.9 -36.1 -22.85 -36.0 -22.9 -35.95 -23.0 -35.9 -23.15 -35.9 Q-23.35 -36.05 -23.45 -36.2 -23.5 -36.35 -23.6 -36.5 L-23.65 -36.55 -23.65 -36.6 Q-23.6 -36.8 -23.2 -36.85 L-23.15 -36.8 -23.1 -36.8 Q-23.05 -36.7 -22.95 -36.4 M-23.0 -37.95 L-23.0 -37.85 Q-23.05 -37.7 -23.65 -37.2 -23.7 -37.15 -23.75 -37.15 -23.8 -37.15 -23.8 -37.2 L-23.9 -37.25 -23.9 -37.4 Q-23.85 -37.6 -23.7 -37.75 L-23.65 -37.75 Q-23.45 -38.0 -23.15 -38.0 L-23.05 -38.0 -23.0 -37.95 M-15.65 -47.85 L-15.55 -47.75 -15.5 -47.65 Q-15.5 -47.6 -15.5 -47.55 -15.55 -47.5 -15.85 -47.2 L-15.75 -47.1 -15.75 -47.05 -15.7 -47.05 -15.6 -46.95 -14.65 -46.9 Q-14.6 -46.9 -14.6 -46.85 L-14.55 -46.8 Q-14.55 -46.6 -15.2 -46.55 L-15.75 -46.55 -15.8 -46.6 -16.2 -46.8 -16.45 -46.55 -16.5 -46.05 Q-16.5 -45.7 -16.6 -45.55 L-16.6 -45.5 Q-16.65 -45.45 -16.7 -45.45 L-16.75 -45.5 -16.85 -45.55 -16.85 -45.65 -16.95 -46.65 Q-16.95 -46.95 -16.65 -47.3 -16.3 -47.7 -15.65 -47.85 M-13.85 -47.95 Q-13.6 -48.0 -13.25 -47.8 L-13.25 -47.75 Q-13.0 -47.55 -12.85 -47.3 L-12.85 -47.15 -12.9 -47.15 -13.05 -47.05 -13.15 -47.05 Q-13.4 -47.25 -13.65 -47.5 L-13.85 -47.75 -13.95 -47.85 -13.9 -47.95 -13.85 -47.95 M-3.3 -49.4 L-3.25 -49.4 Q-3.2 -49.35 -3.15 -49.25 L-3.15 -49.15 Q-3.4 -48.8 -3.9 -48.45 L-4.45 -48.1 -4.6 -48.1 -4.65 -48.2 -4.7 -48.25 -4.65 -48.35 -4.45 -48.85 Q-4.2 -49.35 -3.8 -49.45 L-3.75 -49.45 -3.4 -49.5 -3.3 -49.4 M-2.75 -49.8 L-2.75 -49.95 -2.65 -50.0 Q-2.4 -50.05 -2.15 -50.3 L-1.75 -50.8 Q-1.55 -51.15 -1.4 -51.15 -1.15 -51.2 -0.9 -50.75 L-0.85 -50.7 Q-0.85 -50.65 -0.9 -50.65 -0.9 -50.6 -0.95 -50.6 L-1.15 -50.55 -1.2 -50.55 Q-1.55 -50.65 -1.7 -50.4 -1.9 -49.9 -2.0 -49.8 -2.05 -49.75 -2.1 -49.75 L-2.6 -49.75 -2.7 -49.8 -2.75 -49.8 M-3.05 -50.95 L-3.05 -50.9 Q-3.15 -50.6 -3.5 -50.35 L-3.6 -50.3 Q-3.65 -50.3 -3.65 -50.35 L-3.7 -50.45 -3.7 -50.55 -3.65 -50.6 -3.55 -50.8 -3.4 -51.05 -3.3 -51.05 Q-3.15 -51.05 -3.1 -51.0 L-3.05 -50.95 M27.9 -10.65 L28.0 -10.65 Q28.45 -10.5 28.55 -10.3 L28.55 -9.95 Q28.55 -9.7 28.5 -9.55 L28.3 -9.3 Q28.25 -9.3 28.2 -9.3 L27.9 -9.25 27.85 -9.25 Q27.75 -9.25 27.65 -9.3 L27.65 -9.35 27.6 -9.35 27.55 -9.45 27.55 -9.5 28.05 -10.0 28.1 -10.1 Q28.0 -10.15 27.95 -10.2 27.8 -10.3 27.85 -10.55 27.85 -10.6 27.9 -10.65 M26.85 -12.85 L27.15 -12.8 Q27.35 -12.7 27.35 -12.4 L27.3 -12.1 27.6 -11.95 Q27.95 -11.7 28.3 -11.2 L28.3 -11.05 28.2 -11.0 Q28.1 -11.0 27.55 -11.4 27.15 -11.75 26.7 -11.8 L26.55 -11.75 26.45 -11.7 26.4 -11.7 Q26.0 -11.8 25.65 -12.15 25.45 -12.35 25.4 -12.55 25.35 -12.55 25.35 -12.6 L25.4 -12.7 25.5 -12.7 Q25.75 -12.65 25.9 -12.35 26.05 -12.15 26.4 -12.15 L26.65 -12.2 Q26.8 -12.3 26.85 -12.3 L26.9 -12.25 26.9 -12.4 26.75 -12.65 26.75 -12.75 26.85 -12.85 M32.0 -18.15 L32.05 -18.1 32.1 -18.1 32.15 -18.0 32.15 -17.75 32.1 -17.55 32.1 -17.45 32.05 -17.45 32.0 -17.4 31.4 -17.4 Q31.35 -17.4 31.35 -17.45 31.1 -17.6 31.05 -17.8 L31.05 -17.9 31.1 -17.95 31.6 -18.05 Q31.85 -18.15 32.0 -18.15 M33.1 -19.7 Q33.55 -19.6 33.5 -19.3 33.5 -18.95 33.4 -18.95 L33.3 -18.95 33.25 -19.0 33.0 -19.05 32.95 -19.1 Q32.9 -18.85 32.7 -18.55 32.4 -18.15 32.25 -18.15 31.9 -18.15 31.95 -18.3 31.9 -18.4 32.0 -18.45 L32.2 -18.85 Q32.35 -19.2 32.45 -19.4 32.7 -19.8 33.1 -19.7 M24.4 -17.9 L24.5 -17.95 24.65 -18.0 25.8 -18.0 25.85 -17.95 26.35 -17.55 Q26.8 -17.15 26.8 -16.85 26.8 -16.55 26.7 -16.5 L26.65 -16.45 26.55 -16.4 26.45 -16.4 26.35 -16.5 26.3 -16.6 Q26.3 -17.0 26.1 -17.3 25.9 -17.55 25.6 -17.6 25.45 -17.6 25.4 -17.5 25.3 -17.4 25.1 -17.35 L25.05 -17.3 Q25.05 -17.25 25.0 -17.25 L24.8 -17.25 Q24.5 -17.25 24.45 -17.5 24.4 -17.65 24.4 -17.85 L24.4 -17.9 M32.9 -27.7 L32.9 -27.65 32.85 -27.3 Q32.8 -27.15 32.85 -27.05 33.3 -26.85 33.5 -26.45 33.65 -26.15 33.6 -25.75 L33.55 -25.7 Q33.5 -25.65 33.45 -25.65 L33.35 -25.65 Q33.3 -25.65 33.3 -25.7 33.25 -25.75 33.25 -25.8 33.2 -26.1 33.0 -26.5 L32.65 -26.6 32.55 -26.7 32.45 -26.9 Q32.4 -27.05 32.4 -27.3 32.4 -27.55 32.45 -27.65 32.5 -27.7 32.6 -27.75 L32.85 -27.75 32.9 -27.7 M23.1 -15.55 L23.1 -15.45 23.45 -15.45 24.9 -15.3 24.95 -15.3 25.0 -15.2 25.0 -15.15 24.85 -14.95 24.8 -14.9 24.75 -14.9 23.9 -15.05 Q23.1 -15.2 23.05 -15.3 L23.0 -15.25 22.95 -15.25 Q22.8 -15.3 22.6 -15.55 L22.45 -15.75 22.45 -15.9 22.55 -15.95 Q22.9 -15.95 22.95 -15.85 23.05 -15.8 23.1 -15.55 M21.45 -18.2 Q21.45 -18.35 21.4 -18.55 21.3 -18.8 21.35 -18.85 L21.4 -18.95 21.45 -18.95 Q21.75 -18.95 21.95 -18.95 L22.2 -19.0 22.25 -19.0 22.3 -18.95 22.3 -18.85 Q22.3 -18.6 22.2 -18.45 L22.15 -18.4 21.85 -18.4 21.7 -17.8 Q21.55 -17.35 21.55 -17.2 L21.6 -16.85 Q21.7 -16.6 22.05 -16.5 L22.1 -16.45 22.15 -16.35 22.1 -16.2 22.05 -16.15 21.95 -16.15 21.25 -16.35 Q21.2 -16.35 21.15 -16.4 L21.15 -16.45 Q21.15 -17.05 21.3 -17.6 L21.45 -18.2 M22.75 -20.3 L22.9 -21.05 Q22.9 -21.1 22.9 -21.15 L23.0 -21.15 Q23.3 -21.15 24.3 -20.6 25.45 -20.0 25.75 -19.65 L25.75 -19.5 25.4 -19.35 Q25.3 -19.35 25.3 -19.25 L25.35 -19.0 25.3 -18.9 25.25 -18.85 25.0 -18.85 24.95 -18.9 24.85 -19.05 Q24.85 -19.15 24.85 -19.4 24.85 -19.6 24.9 -19.65 24.55 -19.85 24.05 -20.15 L23.25 -20.65 23.25 -20.1 Q23.2 -19.65 22.8 -19.35 L22.75 -19.3 Q22.7 -19.3 22.65 -19.35 L22.55 -19.45 22.55 -19.5 22.75 -20.3 M19.1 -34.05 Q19.05 -34.0 18.9 -33.9 L18.8 -33.85 18.7 -33.85 Q18.25 -33.9 18.05 -34.0 L18.0 -34.05 Q18.0 -34.1 18.0 -34.15 18.05 -34.25 18.35 -34.35 L18.4 -34.4 18.8 -34.4 18.85 -34.35 18.85 -34.3 Q18.85 -34.35 18.9 -34.35 19.05 -34.25 19.1 -34.2 L19.15 -34.1 19.1 -34.05 M33.3 -28.65 Q34.1 -28.5 34.05 -27.9 34.05 -27.55 33.9 -27.55 L33.8 -27.6 33.75 -27.65 33.0 -28.1 33.05 -28.1 Q32.8 -28.2 32.3 -28.45 L32.25 -28.5 Q32.25 -28.55 32.25 -28.6 L32.3 -28.7 32.35 -28.7 32.4 -28.75 32.45 -28.7 33.3 -28.65 M24.35 -33.0 Q24.2 -33.1 24.0 -33.1 L23.9 -33.05 Q24.45 -32.3 24.55 -32.0 25.3 -31.75 25.3 -31.6 L25.25 -31.5 25.2 -31.5 24.85 -31.45 24.8 -31.45 24.75 -31.5 24.35 -31.6 24.3 -31.65 Q24.2 -31.75 23.9 -32.35 23.65 -32.8 23.35 -32.85 L23.25 -32.85 23.15 -32.9 23.1 -32.95 23.15 -33.05 23.15 -33.1 23.2 -33.15 Q23.45 -33.3 23.75 -33.4 L24.15 -33.5 Q24.3 -33.5 24.65 -33.4 25.05 -33.2 25.3 -33.0 L25.3 -32.85 Q25.3 -32.75 25.1 -32.7 L25.0 -32.65 24.9 -32.65 24.35 -33.0 M26.95 -32.75 L26.9 -32.75 26.85 -32.8 26.85 -32.9 Q26.9 -33.0 27.45 -33.05 L27.5 -33.05 27.7 -32.8 27.9 -32.5 27.9 -32.4 27.8 -32.3 Q27.6 -32.3 27.4 -32.55 27.25 -32.75 26.95 -32.75" fill="#00ffff" fill-opacity="0.5019608" fill-rule="evenodd" stroke="none"/>
    <path d="M-18.85 7.7 L-18.8 7.6 -18.2 7.45 Q-17.9 7.4 -17.8 7.5 -17.85 7.55 -17.95 7.65 L-18.15 7.75 -18.5 7.8 -18.85 7.7 M-20.75 6.1 Q-20.65 6.1 -20.35 6.25 -20.1 6.4 -20.0 6.55 -20.05 6.65 -20.3 6.7 -20.4 6.7 -20.5 6.5 -20.65 6.3 -20.75 6.1 M-22.55 5.05 Q-22.45 5.05 -22.4 5.0 -22.25 5.1 -22.1 5.3 -22.05 5.5 -22.05 5.6 L-22.05 5.8 -22.1 5.85 -22.35 5.8 Q-22.35 5.75 -22.45 5.6 -22.55 5.45 -22.55 5.25 L-22.55 5.05 M-17.0 5.75 L-17.25 5.25 Q-17.15 5.35 -16.9 5.75 -16.6 6.2 -16.6 6.45 L-16.7 6.45 Q-16.85 6.1 -17.0 5.75 M-30.45 -1.95 Q-30.15 -2.6 -30.0 -3.05 L-29.9 -3.05 -29.9 -2.25 -30.4 -1.85 -30.45 -1.95 M-29.55 -4.15 L-29.6 -4.2 Q-29.6 -4.3 -29.25 -4.3 L-29.25 -4.25 -29.2 -4.2 -29.55 -4.15 M-31.8 -4.75 Q-31.75 -4.7 -31.75 -4.5 -31.75 -4.3 -31.85 -4.0 L-31.95 -3.65 -32.1 -3.7 -32.15 -3.85 Q-32.2 -3.95 -32.2 -4.15 -32.2 -4.35 -32.1 -4.55 L-31.95 -4.85 -31.8 -4.75 M-31.7 -5.5 L-31.4 -5.75 Q-31.25 -5.95 -31.05 -6.4 L-30.95 -6.4 Q-30.85 -6.35 -30.85 -6.15 -30.85 -6.0 -31.1 -5.8 -31.4 -5.6 -31.7 -5.5 M-43.5 -14.65 L-43.55 -15.05 Q-43.6 -15.2 -43.75 -15.25 -43.65 -15.4 -43.25 -15.45 L-43.1 -15.4 -43.1 -15.1 Q-43.05 -14.95 -42.95 -14.9 L-42.5 -14.9 -42.3 -15.25 Q-42.2 -15.5 -42.15 -15.6 L-42.05 -15.6 Q-42.05 -15.3 -42.35 -14.7 L-42.6 -14.65 -43.1 -14.6 -43.5 -14.65 M-45.9 -18.15 L-45.65 -18.15 Q-45.7 -18.0 -45.6 -17.8 L-45.4 -17.5 -45.6 -17.45 -45.9 -17.7 Q-46.0 -17.8 -46.0 -17.9 L-46.0 -18.1 -45.9 -18.15 M-42.05 -17.8 L-42.75 -17.9 Q-42.9 -18.1 -42.9 -18.2 L-42.6 -18.55 Q-42.45 -18.8 -42.15 -19.0 L-41.95 -18.75 Q-42.45 -18.65 -42.5 -18.55 L-42.75 -18.2 Q-42.65 -18.1 -42.3 -18.05 L-41.95 -17.95 Q-41.5 -17.3 -41.5 -17.15 -41.5 -16.9 -41.6 -16.95 -41.65 -16.95 -41.7 -17.0 L-41.95 -17.05 -41.8 -17.1 Q-41.65 -17.1 -41.65 -17.3 -41.65 -17.35 -41.8 -17.55 -41.95 -17.75 -42.05 -17.8 M-23.75 -37.25 L-23.8 -37.35 Q-23.75 -37.55 -23.6 -37.65 -23.4 -37.85 -23.1 -37.9 -23.15 -37.75 -23.75 -37.25 M-28.75 -40.4 Q-28.65 -40.5 -28.3 -40.55 L-28.15 -40.5 Q-27.95 -40.45 -27.95 -40.25 -27.95 -40.0 -28.05 -40.05 L-28.15 -40.1 -28.5 -40.15 -28.8 -40.2 -28.75 -40.4 M-27.05 -42.9 L-26.85 -42.85 Q-26.75 -42.8 -26.75 -42.6 -26.75 -42.45 -26.85 -42.3 L-27.05 -42.05 Q-27.2 -41.8 -26.7 -41.5 L-26.9 -41.5 -27.1 -41.6 Q-27.15 -42.2 -27.3 -42.45 L-27.45 -42.6 Q-27.45 -42.8 -27.4 -42.8 L-27.35 -42.75 Q-27.25 -42.85 -27.05 -42.9 M-22.85 -34.45 L-23.05 -34.4 -23.2 -34.6 -23.4 -34.8 -22.95 -34.75 -22.65 -34.55 Q-22.7 -34.5 -22.85 -34.45 M-23.0 -36.05 L-23.1 -36.05 Q-23.25 -36.1 -23.3 -36.25 -23.4 -36.45 -23.55 -36.6 -23.5 -36.7 -23.2 -36.7 -23.15 -36.65 -23.1 -36.4 -23.05 -36.15 -23.0 -36.05 M-15.2 -46.65 L-15.7 -46.65 Q-15.8 -46.75 -16.2 -46.95 -16.15 -47.05 -15.85 -47.05 L-15.65 -46.85 -14.7 -46.8 Q-14.7 -46.7 -15.2 -46.65 M-16.55 -46.6 Q-16.6 -46.45 -16.6 -46.05 -16.65 -45.7 -16.7 -45.55 L-16.75 -45.65 -16.8 -46.65 Q-16.8 -46.9 -16.6 -47.2 -16.25 -47.6 -15.65 -47.7 L-15.6 -47.6 Q-15.65 -47.5 -16.1 -47.1 -16.5 -46.7 -16.55 -46.6 M-13.1 -47.15 Q-13.35 -47.35 -13.55 -47.6 L-13.8 -47.85 Q-13.6 -47.9 -13.35 -47.7 -13.1 -47.5 -12.95 -47.25 L-13.1 -47.15 M-4.5 -48.2 L-4.6 -48.25 Q-4.5 -48.35 -4.35 -48.8 -4.1 -49.2 -3.75 -49.35 L-3.4 -49.35 -3.25 -49.2 Q-3.45 -48.9 -3.95 -48.55 L-4.5 -48.2 M-1.85 -50.45 Q-2.0 -50.0 -2.1 -49.9 L-2.55 -49.85 -2.65 -49.9 Q-2.35 -49.95 -2.05 -50.25 L-1.65 -50.75 Q-1.5 -51.0 -1.35 -51.05 -1.2 -51.05 -1.0 -50.7 L-1.2 -50.65 Q-1.6 -50.8 -1.85 -50.45 M-3.3 -50.95 L-3.15 -50.9 Q-3.25 -50.65 -3.55 -50.45 L-3.55 -50.55 -3.45 -50.75 -3.3 -50.95 M28.45 -10.25 L28.45 -9.95 Q28.45 -9.7 28.4 -9.65 L28.2 -9.4 27.85 -9.35 27.7 -9.4 27.65 -9.45 Q28.35 -10.05 28.2 -10.15 L28.0 -10.25 Q27.9 -10.35 27.95 -10.55 28.35 -10.45 28.45 -10.25 M26.4 -12.05 Q26.6 -12.05 26.7 -12.1 L26.85 -12.15 26.85 -12.0 Q27.1 -12.15 27.5 -11.85 27.9 -11.6 28.2 -11.1 28.1 -11.15 27.65 -11.5 27.15 -11.85 26.7 -11.9 L26.5 -11.85 26.4 -11.8 Q26.05 -11.9 25.75 -12.2 25.55 -12.4 25.5 -12.6 25.65 -12.55 25.85 -12.25 25.95 -12.05 26.4 -12.05 M26.85 -12.7 L27.1 -12.7 Q27.25 -12.6 27.25 -12.4 27.25 -12.15 27.2 -12.15 L27.05 -12.2 27.0 -12.4 26.85 -12.7 M32.0 -18.0 L32.05 -17.75 32.0 -17.6 32.0 -17.5 31.4 -17.5 Q31.2 -17.65 31.15 -17.85 L31.6 -17.95 32.0 -18.05 32.0 -18.0 M32.85 -19.2 Q32.85 -18.95 32.6 -18.6 32.4 -18.3 32.25 -18.3 L32.05 -18.3 Q32.05 -18.35 32.1 -18.35 L32.3 -18.8 Q32.45 -19.15 32.55 -19.3 32.75 -19.65 33.1 -19.6 33.4 -19.55 33.4 -19.3 33.4 -19.05 33.35 -19.05 L33.35 -19.1 33.05 -19.15 32.85 -19.2 M24.9 -15.2 L24.75 -15.0 23.9 -15.15 Q23.15 -15.3 23.15 -15.35 L23.45 -15.3 24.9 -15.2 M24.7 -17.85 L25.8 -17.85 Q26.05 -17.7 26.3 -17.5 26.7 -17.1 26.7 -16.85 26.7 -16.65 26.65 -16.6 L26.5 -16.5 26.4 -16.6 Q26.4 -17.05 26.2 -17.35 25.95 -17.7 25.6 -17.7 25.45 -17.7 25.3 -17.6 25.2 -17.45 24.9 -17.4 L25.0 -17.35 24.8 -17.35 Q24.6 -17.35 24.55 -17.55 24.5 -17.65 24.5 -17.85 L24.7 -17.85 M33.1 -26.6 L32.65 -26.7 32.55 -26.95 Q32.5 -27.1 32.5 -27.3 32.5 -27.5 32.55 -27.55 L32.65 -27.65 32.8 -27.65 32.75 -27.3 Q32.7 -27.1 32.8 -26.95 33.2 -26.75 33.4 -26.4 33.55 -26.1 33.45 -25.8 L33.35 -25.8 Q33.35 -26.15 33.1 -26.6 M22.9 -15.8 L23.0 -15.55 22.95 -15.4 Q22.85 -15.4 22.7 -15.6 L22.55 -15.85 22.9 -15.8 M21.5 -18.6 Q21.45 -18.75 21.45 -18.85 21.75 -18.8 21.95 -18.85 L22.2 -18.85 Q22.2 -18.65 22.15 -18.55 L21.8 -18.5 21.6 -17.8 Q21.45 -17.35 21.45 -17.2 21.45 -16.9 21.45 -16.8 21.6 -16.5 22.0 -16.4 L22.0 -16.25 21.25 -16.45 Q21.25 -17.05 21.4 -17.55 21.55 -18.05 21.55 -18.2 L21.5 -18.6 M22.7 -19.5 L22.85 -20.25 23.0 -21.05 Q23.25 -21.0 24.25 -20.5 25.35 -19.9 25.65 -19.55 L25.4 -19.5 Q25.2 -19.45 25.2 -19.2 L25.25 -19.0 25.1 -18.95 25.05 -19.0 25.0 -19.1 Q24.95 -19.2 24.95 -19.4 24.95 -19.6 25.0 -19.6 L25.25 -19.65 Q24.8 -19.8 24.15 -20.25 L23.15 -20.85 23.15 -20.1 Q23.1 -19.75 22.75 -19.45 L22.7 -19.5 M19.0 -34.1 L18.85 -34.0 18.75 -33.95 Q18.3 -34.0 18.1 -34.1 18.15 -34.15 18.4 -34.25 L18.75 -34.3 18.85 -34.25 Q18.95 -34.2 19.0 -34.1 M32.35 -28.55 L32.4 -28.65 33.25 -28.5 Q33.95 -28.4 33.95 -27.9 33.95 -27.7 33.9 -27.7 L33.8 -27.75 33.05 -28.2 Q32.85 -28.3 32.35 -28.55 M24.4 -33.1 Q24.25 -33.2 24.0 -33.2 23.8 -33.2 23.6 -33.1 L23.5 -33.05 23.7 -33.1 Q24.4 -32.15 24.5 -31.9 25.15 -31.7 25.15 -31.6 L24.8 -31.55 Q24.75 -31.65 24.35 -31.75 24.3 -31.85 24.0 -32.4 23.7 -32.9 23.35 -33.0 L23.25 -33.0 23.25 -33.05 Q23.5 -33.2 23.8 -33.3 L24.15 -33.4 24.6 -33.25 Q25.0 -33.1 25.2 -32.9 25.2 -32.85 25.05 -32.8 L24.95 -32.8 Q24.75 -32.9 24.4 -33.1 M26.95 -32.85 Q27.0 -32.9 27.45 -32.95 L27.6 -32.75 27.8 -32.45 Q27.65 -32.4 27.5 -32.65 27.3 -32.85 26.95 -32.85" fill="#ffffff" fill-rule="evenodd" stroke="none"/>
  </g>
</svg>
