<?xml version="1.0" encoding="UTF-8" standalone="no"?>
<svg xmlns:ffdec="https://www.free-decompiler.com/flash" xmlns:xlink="http://www.w3.org/1999/xlink" ffdec:objectType="shape" height="22.05px" width="93.25px" xmlns="http://www.w3.org/2000/svg">
  <g transform="matrix(1.0, 0.0, 0.0, 1.0, 49.65, 26.2)">
    <path d="M22.45 -13.25 L22.6 -13.35 23.15 -13.55 23.85 -13.75 24.5 -13.8 24.6 -13.75 24.65 -13.65 24.7 -13.5 Q25.15 -13.55 25.5 -14.1 25.75 -14.6 25.75 -14.85 25.75 -14.9 25.8 -14.95 L25.85 -15.0 26.05 -15.05 26.15 -15.15 26.45 -15.2 26.5 -15.2 26.6 -15.1 Q26.7 -14.95 27.3 -14.95 L27.95 -14.95 28.05 -15.1 28.25 -15.3 28.35 -15.35 28.95 -15.45 29.0 -15.4 29.05 -15.4 29.15 -15.25 29.3 -15.25 Q29.7 -15.3 30.5 -15.7 31.4 -16.2 31.6 -16.55 L31.65 -16.6 31.7 -16.6 32.45 -16.7 33.0 -16.7 33.05 -16.65 33.15 -16.5 33.2 -16.45 33.15 -16.35 33.1 -16.3 32.95 -16.25 32.9 -16.2 Q32.9 -16.25 32.85 -16.25 L32.6 -16.3 31.9 -16.25 Q31.75 -16.0 31.05 -15.55 30.1 -14.9 29.35 -14.8 L29.3 -14.8 29.05 -14.9 Q28.85 -15.0 28.65 -14.95 28.4 -14.9 28.3 -14.8 L27.85 -14.55 27.75 -14.55 27.5 -14.6 Q27.15 -14.6 26.65 -14.55 L26.55 -14.6 26.55 -14.65 26.4 -14.75 26.3 -14.8 26.2 -14.75 Q26.35 -14.3 25.85 -13.85 25.45 -13.45 24.6 -13.05 L24.45 -13.05 Q24.25 -13.15 24.15 -13.2 L23.5 -13.25 Q23.4 -13.25 23.0 -13.1 22.6 -12.95 22.35 -12.9 L22.3 -12.85 22.2 -12.9 22.1 -13.0 22.1 -13.1 Q22.15 -13.15 22.45 -13.25 M22.3 -13.0 L22.95 -13.2 23.5 -13.4 24.2 -13.35 24.55 -13.2 Q25.4 -13.55 25.8 -13.95 26.2 -14.4 26.0 -14.75 L26.05 -14.85 Q26.1 -14.9 26.3 -14.9 L26.45 -14.9 Q26.6 -14.85 26.65 -14.7 L27.5 -14.75 27.8 -14.7 Q28.0 -14.75 28.2 -14.9 28.35 -15.0 28.6 -15.1 28.9 -15.15 29.1 -15.05 L29.35 -14.95 Q30.05 -15.05 30.95 -15.65 31.75 -16.15 31.85 -16.4 L32.6 -16.45 32.9 -16.35 33.05 -16.4 32.95 -16.55 32.45 -16.55 31.75 -16.45 Q31.5 -16.1 30.55 -15.6 29.75 -15.15 29.35 -15.1 29.15 -15.05 29.05 -15.15 L28.95 -15.3 28.35 -15.2 27.95 -14.8 27.3 -14.8 Q26.6 -14.8 26.45 -15.05 L26.2 -15.0 Q26.2 -14.95 25.9 -14.85 25.95 -14.55 25.6 -14.05 25.2 -13.4 24.75 -13.35 L24.55 -13.35 Q24.5 -13.35 24.55 -13.4 L24.55 -13.65 23.9 -13.6 23.2 -13.4 22.7 -13.2 22.5 -13.15 22.25 -13.05 22.3 -13.0 M41.2 -25.2 L41.2 -25.3 41.25 -25.35 Q41.6 -25.7 41.95 -25.5 42.3 -25.35 42.35 -24.95 42.35 -24.75 42.3 -24.6 L42.25 -24.5 42.25 -24.45 42.7 -24.45 42.75 -24.4 43.15 -23.75 Q43.55 -23.15 43.6 -22.95 L43.6 -22.9 Q43.5 -22.4 43.3 -22.15 L43.35 -22.05 Q43.4 -21.8 43.5 -21.6 L43.5 -21.45 43.4 -21.4 43.15 -21.4 Q42.95 -21.5 42.9 -21.6 L42.9 -21.9 42.85 -21.95 Q42.85 -22.0 42.85 -22.05 42.9 -22.2 43.05 -22.6 43.15 -22.8 43.15 -22.9 43.15 -23.1 42.8 -23.55 42.55 -23.85 42.45 -24.0 42.05 -24.05 41.9 -24.25 L41.85 -24.45 Q41.8 -24.6 41.9 -24.8 L41.95 -24.8 Q41.95 -24.85 41.95 -24.9 L41.65 -25.1 41.6 -25.05 41.6 -25.0 Q41.65 -24.8 41.35 -24.75 41.15 -24.7 41.05 -24.75 L41.0 -24.8 40.95 -24.8 40.9 -24.9 40.9 -24.95 Q40.9 -25.1 41.1 -25.2 L41.2 -25.2 M41.05 -24.95 L41.1 -24.9 41.3 -24.85 Q41.5 -24.9 41.5 -25.0 L41.45 -25.15 41.7 -25.25 Q42.1 -25.05 42.1 -24.95 42.1 -24.8 42.05 -24.7 41.95 -24.6 42.0 -24.45 L42.05 -24.3 Q42.15 -24.2 42.55 -24.15 42.55 -24.1 42.9 -23.6 43.3 -23.15 43.3 -22.9 43.35 -22.8 43.2 -22.55 L43.0 -22.0 43.15 -22.1 Q43.05 -22.0 43.05 -21.9 L43.05 -21.65 Q43.05 -21.6 43.2 -21.55 L43.4 -21.55 Q43.25 -21.75 43.2 -22.0 L43.15 -22.15 Q43.35 -22.4 43.45 -22.95 43.45 -23.1 43.05 -23.65 L42.6 -24.3 42.25 -24.35 42.1 -24.45 42.2 -24.65 Q42.2 -24.8 42.2 -24.95 42.15 -25.25 41.9 -25.35 41.6 -25.5 41.35 -25.25 L41.35 -25.05 41.2 -25.05 Q41.05 -25.0 41.05 -24.95 M38.55 -25.8 Q38.75 -25.65 38.8 -25.55 L38.85 -25.5 38.8 -25.4 38.75 -25.35 38.6 -25.3 38.5 -25.3 Q38.4 -25.35 38.2 -25.45 L38.1 -25.55 Q37.75 -25.2 36.95 -25.35 36.1 -25.65 35.65 -25.75 34.55 -25.35 34.3 -25.55 34.05 -25.75 33.65 -25.7 L33.6 -25.7 33.55 -25.8 33.55 -25.85 Q33.5 -25.95 33.9 -26.05 L34.2 -26.1 34.25 -26.1 Q34.65 -25.95 34.7 -25.95 L35.8 -26.2 35.9 -26.2 36.6 -25.95 Q37.1 -25.85 37.8 -25.8 L37.75 -25.85 37.8 -25.95 Q37.85 -26.0 37.9 -26.0 L38.2 -26.05 38.25 -26.0 38.3 -26.0 Q38.35 -25.95 38.55 -25.8 M37.9 -25.7 Q37.1 -25.65 36.55 -25.8 L35.85 -26.05 34.75 -25.8 Q34.65 -25.75 34.2 -26.0 L33.95 -25.95 33.65 -25.85 Q34.1 -25.85 34.4 -25.65 34.6 -25.55 35.65 -25.9 36.1 -25.8 37.0 -25.5 37.75 -25.3 38.05 -25.7 L38.0 -25.75 38.3 -25.6 Q38.45 -25.5 38.55 -25.45 L38.7 -25.5 38.2 -25.9 37.9 -25.85 37.9 -25.7 M-48.35 -10.4 L-48.25 -10.45 -46.5 -11.15 Q-45.65 -11.55 -45.5 -11.9 L-45.4 -12.0 -44.55 -12.3 -43.8 -12.5 -43.4 -12.45 -42.75 -12.5 Q-42.45 -12.55 -42.2 -12.7 L-41.9 -12.9 -41.15 -13.25 Q-40.75 -13.5 -40.15 -13.7 -40.0 -13.8 -39.95 -13.9 -39.95 -14.15 -39.85 -14.2 -39.55 -14.5 -36.35 -15.15 L-36.25 -15.25 Q-36.15 -15.35 -36.05 -15.4 L-35.95 -15.4 Q-35.8 -15.4 -35.75 -15.1 -35.75 -15.05 -35.8 -15.0 L-35.85 -14.95 -36.05 -14.85 Q-36.1 -14.8 -36.15 -14.8 L-38.3 -14.35 -39.35 -14.05 -39.75 -13.6 -39.85 -13.4 Q-39.85 -13.35 -39.9 -13.35 -40.25 -13.15 -41.35 -12.65 -42.8 -12.1 -43.4 -12.0 L-44.4 -12.0 -44.6 -11.9 Q-44.9 -11.7 -45.2 -11.65 L-45.3 -11.5 -45.3 -11.4 -46.6 -10.75 Q-47.25 -10.4 -48.0 -10.15 L-48.05 -10.1 Q-47.75 -9.7 -48.1 -9.2 -48.3 -8.9 -48.7 -8.6 L-48.75 -8.55 -48.85 -8.6 -48.9 -8.65 -48.9 -8.75 -48.85 -9.05 -48.8 -9.1 -48.8 -9.15 -48.7 -9.2 -48.65 -9.2 -48.35 -9.5 -48.4 -9.8 Q-48.55 -9.95 -48.5 -10.1 L-48.35 -10.4 M-48.2 -10.15 Q-48.1 -10.2 -48.15 -10.25 -47.35 -10.5 -46.65 -10.9 L-45.45 -11.5 Q-45.45 -11.6 -45.3 -11.75 -44.95 -11.85 -44.65 -12.0 L-44.4 -12.15 -43.75 -12.15 -43.4 -12.1 Q-42.8 -12.2 -41.4 -12.8 -40.3 -13.25 -39.95 -13.45 L-39.9 -13.7 -39.45 -14.15 Q-39.4 -14.25 -38.35 -14.45 L-36.2 -14.95 -35.9 -15.1 Q-35.95 -15.25 -36.0 -15.25 L-36.15 -15.15 -36.25 -15.05 Q-39.45 -14.35 -39.75 -14.1 -39.8 -14.05 -39.8 -13.9 -39.8 -13.7 -40.1 -13.55 -40.7 -13.35 -41.1 -13.15 L-41.85 -12.75 -42.1 -12.6 Q-42.4 -12.45 -42.75 -12.35 L-43.45 -12.3 -43.8 -12.35 -44.5 -12.2 -45.35 -11.85 Q-45.5 -11.45 -46.45 -11.05 -47.0 -10.8 -48.2 -10.35 L-48.35 -10.05 Q-48.4 -10.0 -48.3 -9.9 L-48.2 -9.45 Q-48.65 -8.95 -48.65 -9.05 L-48.8 -8.7 Q-48.4 -9.0 -48.2 -9.25 -47.85 -9.8 -48.3 -10.1 L-48.2 -10.15 M-47.25 -5.65 Q-46.55 -5.75 -44.45 -5.1 L-42.2 -4.3 Q-42.1 -4.35 -41.85 -4.55 L-41.55 -4.7 -40.6 -4.5 -40.05 -4.6 -40.1 -4.65 -40.55 -4.65 -40.8 -4.8 -41.2 -4.85 -41.7 -4.9 Q-41.8 -4.75 -41.85 -4.6 L-42.1 -4.45 Q-43.45 -5.0 -46.6 -5.9 L-47.05 -5.75 -47.4 -5.7 -47.95 -5.6 Q-48.35 -5.7 -48.9 -6.25 L-49.5 -6.85 -49.5 -6.7 Q-49.5 -6.55 -48.0 -5.45 L-47.6 -5.55 -47.25 -5.65 M-46.65 -6.0 L-46.6 -6.0 Q-43.5 -5.2 -42.1 -4.6 L-41.95 -4.7 -41.85 -4.95 -41.75 -5.0 -41.2 -5.0 -40.75 -4.95 -40.7 -4.95 -40.55 -4.75 -40.1 -4.8 -39.95 -4.7 -39.95 -4.65 -39.9 -4.65 Q-39.9 -4.6 -39.9 -4.55 L-40.0 -4.45 -40.6 -4.35 -40.65 -4.35 -41.55 -4.6 -41.75 -4.4 Q-42.05 -4.2 -42.15 -4.15 -42.2 -4.15 -42.25 -4.15 L-44.5 -4.95 Q-46.55 -5.6 -47.25 -5.5 L-47.55 -5.4 -48.0 -5.3 -48.05 -5.3 -48.1 -5.35 Q-49.65 -6.5 -49.65 -6.65 -49.7 -6.95 -49.6 -6.95 L-49.5 -7.0 -49.4 -7.0 -49.4 -6.95 -48.8 -6.35 Q-48.3 -5.85 -47.95 -5.75 L-47.4 -5.8 -47.1 -5.9 -46.65 -6.0" fill="#ffffff" fill-opacity="0.5019608" fill-rule="evenodd" stroke="none"/>
    <path d="M22.3 -13.0 L22.25 -13.05 22.5 -13.15 22.7 -13.2 23.2 -13.4 23.9 -13.6 24.55 -13.65 24.55 -13.4 Q24.5 -13.35 24.55 -13.35 L24.75 -13.35 Q25.2 -13.4 25.6 -14.05 25.95 -14.55 25.9 -14.85 26.2 -14.95 26.2 -15.0 L26.45 -15.05 Q26.6 -14.8 27.3 -14.8 L27.95 -14.8 28.35 -15.2 28.95 -15.3 29.05 -15.15 Q29.15 -15.05 29.35 -15.1 29.75 -15.15 30.55 -15.6 31.5 -16.1 31.75 -16.45 L32.45 -16.55 32.95 -16.55 33.05 -16.4 32.9 -16.35 32.6 -16.45 31.85 -16.4 Q31.75 -16.15 30.95 -15.65 30.05 -15.05 29.35 -14.95 L29.1 -15.05 Q28.9 -15.15 28.6 -15.1 28.35 -15.0 28.2 -14.9 28.0 -14.75 27.8 -14.7 L27.5 -14.75 26.65 -14.7 Q26.6 -14.85 26.45 -14.9 L26.3 -14.9 Q26.1 -14.9 26.05 -14.85 L26.0 -14.75 Q26.2 -14.4 25.8 -13.95 25.4 -13.55 24.55 -13.2 L24.2 -13.35 23.5 -13.4 22.95 -13.2 22.3 -13.0 M41.05 -24.95 Q41.05 -25.0 41.2 -25.05 L41.35 -25.05 41.35 -25.25 Q41.6 -25.5 41.9 -25.35 42.15 -25.25 42.2 -24.95 42.2 -24.8 42.2 -24.65 L42.1 -24.45 42.25 -24.35 42.6 -24.3 43.05 -23.65 Q43.45 -23.1 43.45 -22.95 43.35 -22.4 43.15 -22.15 L43.2 -22.0 Q43.25 -21.75 43.4 -21.55 L43.2 -21.55 Q43.05 -21.6 43.05 -21.65 L43.05 -21.9 Q43.05 -22.0 43.15 -22.1 L43.0 -22.0 43.2 -22.55 Q43.35 -22.8 43.3 -22.9 43.3 -23.15 42.9 -23.6 42.55 -24.1 42.55 -24.15 42.15 -24.2 42.05 -24.3 L42.0 -24.45 Q41.95 -24.6 42.05 -24.7 42.1 -24.8 42.1 -24.95 42.1 -25.05 41.7 -25.25 L41.45 -25.15 41.5 -25.0 Q41.5 -24.9 41.3 -24.85 L41.1 -24.9 41.05 -24.95 M37.9 -25.7 L37.9 -25.85 38.2 -25.9 38.7 -25.5 38.55 -25.45 Q38.45 -25.5 38.3 -25.6 L38.0 -25.75 38.05 -25.7 Q37.75 -25.3 37.0 -25.5 36.1 -25.8 35.65 -25.9 34.6 -25.55 34.4 -25.65 34.1 -25.85 33.65 -25.85 L33.95 -25.95 34.2 -26.0 Q34.65 -25.75 34.75 -25.8 L35.85 -26.05 36.55 -25.8 Q37.1 -25.65 37.9 -25.7 M-47.25 -5.65 L-47.6 -5.55 -48.0 -5.45 Q-49.5 -6.55 -49.5 -6.7 L-49.5 -6.85 -48.9 -6.25 Q-48.35 -5.7 -47.95 -5.6 L-47.4 -5.7 -47.05 -5.75 -46.6 -5.9 Q-43.45 -5.0 -42.1 -4.45 L-41.85 -4.6 Q-41.8 -4.75 -41.7 -4.9 L-41.2 -4.85 -40.8 -4.8 -40.55 -4.65 -40.1 -4.65 -40.05 -4.6 -40.6 -4.5 -41.55 -4.7 -41.85 -4.55 Q-42.1 -4.35 -42.2 -4.3 L-44.45 -5.1 Q-46.55 -5.75 -47.25 -5.65 M-48.2 -10.15 L-48.3 -10.1 Q-47.85 -9.8 -48.2 -9.25 -48.4 -9.0 -48.8 -8.7 L-48.65 -9.05 Q-48.65 -8.95 -48.2 -9.45 L-48.3 -9.9 Q-48.4 -10.0 -48.35 -10.05 L-48.2 -10.35 Q-47.0 -10.8 -46.45 -11.05 -45.5 -11.45 -45.35 -11.85 L-44.5 -12.2 -43.8 -12.35 -43.45 -12.3 -42.75 -12.35 Q-42.4 -12.45 -42.1 -12.6 L-41.85 -12.75 -41.1 -13.15 Q-40.7 -13.35 -40.1 -13.55 -39.8 -13.7 -39.8 -13.9 -39.8 -14.05 -39.75 -14.1 -39.45 -14.35 -36.25 -15.05 L-36.15 -15.15 -36.0 -15.25 Q-35.95 -15.25 -35.9 -15.1 L-36.2 -14.95 -38.35 -14.45 Q-39.4 -14.25 -39.45 -14.15 L-39.9 -13.7 -39.95 -13.45 Q-40.3 -13.25 -41.4 -12.8 -42.8 -12.2 -43.4 -12.1 L-43.75 -12.15 -44.4 -12.15 -44.65 -12.0 Q-44.95 -11.85 -45.3 -11.75 -45.45 -11.6 -45.45 -11.5 L-46.65 -10.9 Q-47.35 -10.5 -48.15 -10.25 -48.1 -10.2 -48.2 -10.15" fill="#ffffff" fill-rule="evenodd" stroke="none"/>
  </g>
</svg>
