<?xml version="1.0" encoding="UTF-8" standalone="no"?>
<svg xmlns:ffdec="https://www.free-decompiler.com/flash" xmlns:xlink="http://www.w3.org/1999/xlink" ffdec:objectType="shape" height="59.35px" width="100.45px" xmlns="http://www.w3.org/2000/svg">
  <g transform="matrix(1.0, 0.0, 0.0, 1.0, 53.15, 51.35)">
    <path d="M-16.6 -46.95 L-16.6 -46.95 -16.55 -46.85 -16.6 -46.75 -16.6 -46.85 -16.55 -46.85 -16.6 -46.9 -16.6 -46.95 M-16.4 -47.15 L-16.35 -47.15 -16.5 -47.1 -16.45 -47.2 -16.4 -47.15 M-15.35 -47.8 L-15.4 -47.75 -15.45 -47.75 -15.35 -47.8 M-13.6 -47.3 L-13.5 -47.3 -13.45 -47.2 Q-13.45 -47.15 -13.5 -47.1 L-13.55 -47.15 -13.6 -47.15 -13.75 -47.3 -13.6 -47.3 M-19.35 -44.65 L-18.95 -44.55 Q-18.65 -44.4 -18.6 -44.25 L-18.55 -44.2 -18.6 -44.1 -18.65 -44.1 -18.85 -44.0 -18.9 -44.0 -19.0 -44.05 -19.25 -44.3 Q-19.4 -44.45 -19.45 -44.45 L-19.45 -44.55 -19.35 -44.65 M-10.1 -44.3 L-10.05 -44.4 -10.0 -44.4 Q-9.85 -44.55 -9.35 -44.6 L-9.25 -44.5 -9.25 -44.45 -9.2 -44.5 -9.2 -44.45 -9.05 -44.35 -9.0 -44.3 -9.0 -44.2 Q-9.0 -44.1 -9.5 -44.05 L-9.95 -44.05 -10.1 -44.2 -10.1 -44.3 M-3.25 -51.35 L-3.2 -51.3 -2.6 -50.95 -2.55 -50.9 -2.55 -50.75 -2.6 -50.75 -2.95 -50.7 -3.0 -50.7 Q-3.35 -50.75 -3.6 -50.35 -3.75 -50.1 -3.75 -49.85 L-3.75 -49.5 -3.85 -49.45 -4.05 -49.4 -4.15 -49.4 Q-4.25 -49.45 -4.3 -49.55 L-4.3 -49.65 Q-3.65 -51.0 -3.35 -51.3 L-3.25 -51.35 M24.8 -10.05 L24.85 -10.0 Q25.3 -9.9 25.3 -9.75 L25.25 -9.65 25.2 -9.65 24.65 -9.45 24.25 -9.35 24.15 -9.4 24.1 -9.45 24.1 -9.55 24.15 -9.65 24.4 -9.95 24.4 -10.0 24.45 -10.0 24.8 -10.05 M26.1 -13.9 L26.15 -14.0 26.25 -14.0 26.3 -13.95 Q26.95 -13.3 27.0 -12.55 L27.0 -12.45 Q26.95 -12.4 26.65 -12.35 L26.4 -12.3 26.3 -12.4 26.25 -12.5 26.25 -12.6 Q26.25 -12.7 26.5 -12.7 L26.55 -12.75 Q26.55 -12.9 26.35 -13.35 L26.15 -13.85 26.1 -13.9 M32.0 -18.55 Q32.5 -18.9 33.1 -18.9 L33.05 -19.0 Q32.95 -19.2 33.0 -19.3 L33.0 -19.35 33.05 -19.35 Q33.5 -19.5 33.6 -19.2 33.6 -19.15 33.6 -18.8 L33.6 -18.4 33.55 -18.3 33.5 -18.3 33.45 -18.25 Q32.45 -18.4 32.1 -18.1 31.95 -18.0 31.9 -17.8 L31.8 -17.4 31.75 -17.35 31.7 -17.35 31.2 -17.25 31.15 -17.3 30.65 -17.5 30.6 -17.6 30.6 -17.7 30.7 -17.8 31.15 -17.85 31.4 -17.8 Q31.55 -18.25 32.0 -18.55 M23.4 -14.2 L23.45 -14.2 24.55 -13.3 Q25.25 -12.7 26.05 -12.4 27.25 -12.0 28.05 -11.3 28.65 -10.75 28.9 -10.15 L28.9 -10.0 Q27.8 -9.0 27.6 -9.0 27.55 -9.0 27.25 -9.15 L26.8 -9.4 26.7 -9.5 26.75 -9.6 Q26.85 -9.65 27.2 -9.7 L27.55 -9.7 Q27.8 -9.65 28.05 -9.85 28.3 -10.05 28.3 -10.15 28.3 -10.45 27.3 -11.15 26.35 -11.9 25.95 -12.0 25.05 -12.1 24.3 -12.9 23.6 -13.75 23.3 -14.0 L23.3 -14.15 23.4 -14.2 M23.05 -17.2 L23.0 -17.2 22.9 -17.3 Q22.85 -17.35 22.85 -17.4 L22.85 -17.45 Q23.3 -18.0 23.5 -18.1 23.8 -18.3 24.05 -18.2 L24.55 -17.85 Q25.0 -17.6 25.55 -17.45 26.05 -17.3 26.45 -17.2 26.75 -17.15 26.9 -16.65 27.1 -16.15 27.1 -15.6 27.1 -15.35 27.0 -15.15 L26.85 -14.95 26.8 -14.9 26.7 -14.9 26.6 -15.0 26.6 -16.0 Q26.55 -16.5 26.4 -16.65 26.15 -16.85 24.95 -17.3 L23.75 -17.7 Q23.65 -17.7 23.5 -17.55 23.3 -17.3 23.05 -17.2 M20.6 -19.75 L20.6 -19.8 21.1 -19.9 Q21.2 -19.95 21.2 -20.05 L21.2 -20.1 21.3 -20.15 21.35 -20.15 21.4 -20.05 21.45 -19.9 21.45 -19.8 Q21.3 -19.6 20.95 -19.5 20.8 -19.45 20.8 -19.35 L20.7 -18.35 Q20.6 -17.6 20.6 -17.4 20.6 -17.3 20.7 -17.2 L21.0 -17.0 21.0 -16.75 20.95 -16.65 20.8 -16.65 Q20.55 -16.85 20.35 -17.1 20.2 -17.3 20.2 -17.4 20.2 -17.6 20.35 -18.25 20.5 -18.9 20.5 -19.1 L20.45 -19.45 Q20.45 -19.6 20.6 -19.75 M22.5 -20.6 L22.55 -20.6 23.15 -20.65 23.2 -20.65 24.35 -20.15 Q24.9 -19.95 25.25 -19.95 25.45 -19.95 25.45 -19.9 L25.5 -20.0 Q25.55 -20.0 25.6 -20.0 L25.65 -20.0 25.7 -19.9 25.7 -19.65 25.65 -19.6 Q25.5 -19.5 25.45 -19.4 25.4 -19.25 25.5 -19.05 25.9 -18.5 25.95 -18.35 L25.95 -18.25 25.9 -18.2 25.85 -18.2 Q25.8 -18.2 25.75 -18.25 L25.35 -18.65 Q24.95 -19.0 25.0 -19.15 25.0 -19.3 25.05 -19.55 25.05 -19.6 24.95 -19.6 L22.7 -20.15 22.05 -18.65 Q21.7 -17.9 21.7 -17.3 21.7 -16.3 22.2 -16.0 24.6 -15.45 25.9 -14.4 L25.9 -14.35 25.95 -14.25 25.9 -14.2 Q25.9 -14.15 25.85 -14.15 L25.75 -14.15 Q24.9 -14.8 23.95 -15.1 L22.5 -15.4 Q21.8 -15.55 21.55 -16.1 21.3 -16.7 21.3 -18.3 21.25 -18.4 21.85 -19.5 L22.5 -20.6 M20.3 -33.0 L20.25 -32.9 20.2 -32.85 20.1 -32.85 Q20.05 -32.85 20.0 -32.9 L19.95 -32.95 19.9 -33.25 Q19.85 -33.45 19.85 -33.6 L19.85 -33.7 20.0 -33.7 Q20.1 -33.7 20.2 -33.45 20.3 -33.25 20.3 -33.0 M17.2 -34.25 L17.2 -34.35 17.25 -34.4 17.3 -34.4 17.45 -34.45 18.75 -34.45 Q19.25 -34.25 19.45 -34.0 L19.45 -33.9 Q19.45 -33.85 19.4 -33.85 L19.2 -33.75 19.1 -33.75 Q18.7 -33.85 18.55 -33.75 18.25 -33.6 18.2 -33.65 18.0 -33.65 17.8 -33.8 17.65 -33.95 17.45 -34.0 L17.4 -34.0 Q17.25 -34.15 17.2 -34.25 M8.85 -37.8 L8.9 -37.85 8.95 -37.85 Q9.65 -37.9 9.75 -37.6 L9.75 -37.5 Q9.7 -37.4 9.35 -37.35 L9.05 -37.35 8.95 -37.45 Q8.9 -37.5 8.9 -37.55 L8.85 -37.75 8.85 -37.8 M10.55 -37.75 L10.65 -37.75 Q11.1 -37.35 11.05 -37.1 L11.05 -36.7 11.0 -36.65 10.9 -36.6 10.7 -36.6 Q10.65 -36.6 10.6 -36.65 L10.55 -36.7 10.55 -37.05 Q10.5 -37.25 10.45 -37.35 L10.05 -37.45 10.0 -37.45 9.95 -37.55 10.0 -37.6 Q10.0 -37.75 10.55 -37.75 M9.7 -41.65 Q9.75 -41.8 9.95 -42.0 10.0 -42.25 10.1 -42.15 10.2 -42.15 10.2 -41.85 10.2 -41.6 10.1 -41.4 L9.9 -40.95 9.9 -40.9 9.85 -40.9 9.5 -40.8 9.45 -40.75 9.4 -40.75 8.8 -40.7 8.7 -40.75 8.65 -40.8 Q8.55 -41.3 8.35 -41.55 L8.35 -41.7 8.4 -41.75 8.5 -41.75 Q8.9 -41.65 8.95 -41.15 L9.3 -41.1 9.5 -41.25 9.7 -41.35 Q9.65 -41.5 9.7 -41.65 M8.0 -46.05 L8.1 -46.05 Q8.25 -46.0 8.35 -45.75 8.4 -45.55 8.4 -45.3 L8.4 -45.2 Q8.35 -45.2 8.3 -45.2 L7.8 -45.1 7.4 -45.0 7.35 -44.9 7.55 -44.85 Q7.9 -44.7 7.85 -44.6 L7.8 -44.5 7.15 -44.5 7.15 -44.55 6.95 -44.75 6.95 -44.8 7.0 -45.05 Q7.05 -45.2 7.15 -45.3 7.15 -45.35 7.2 -45.35 L7.6 -45.45 8.05 -45.55 8.05 -45.6 8.0 -45.7 Q7.95 -45.85 7.95 -45.9 L7.95 -46.0 8.0 -46.05 M7.05 -46.55 L7.1 -46.6 7.6 -47.0 7.7 -47.05 7.85 -46.95 Q8.0 -46.85 8.0 -46.6 8.0 -46.2 7.85 -46.25 L7.8 -46.25 7.7 -46.35 7.6 -46.4 7.2 -46.45 Q7.15 -46.45 7.1 -46.45 L7.05 -46.55 M6.2 -46.7 L6.25 -46.75 Q6.45 -46.75 6.5 -46.65 6.6 -46.6 6.6 -46.4 L6.6 -46.35 6.5 -46.3 6.05 -46.2 5.95 -46.2 5.95 -46.25 5.85 -46.3 5.8 -46.35 5.85 -46.45 Q5.85 -46.6 6.2 -46.7 M0.25 -50.25 L0.25 -50.2 0.2 -50.15 0.15 -50.05 Q0.1 -50.0 0.05 -50.0 0.0 -50.0 0.0 -50.05 L-1.4 -50.65 Q-1.55 -50.65 -1.65 -50.55 -1.8 -50.4 -1.95 -50.35 -2.15 -49.65 -2.35 -49.4 -2.85 -48.8 -4.05 -48.7 L-4.2 -48.1 Q-4.35 -47.65 -4.6 -47.6 L-4.65 -47.6 -4.7 -47.55 Q-4.75 -47.5 -4.85 -47.6 L-4.85 -47.8 Q-4.85 -48.0 -4.65 -48.5 -4.4 -49.0 -4.35 -49.05 L-4.3 -49.1 Q-3.05 -49.15 -2.7 -49.7 -2.6 -49.85 -2.5 -50.15 -2.4 -50.5 -2.3 -50.6 L-2.25 -50.6 Q-1.55 -51.25 -0.7 -51.0 -0.05 -50.75 0.25 -50.25 M31.95 -28.95 Q32.1 -28.95 32.5 -28.65 L32.95 -28.3 Q34.15 -27.75 34.15 -27.35 34.15 -27.15 34.0 -26.85 33.85 -26.6 33.85 -26.5 L33.85 -26.4 33.8 -26.35 33.7 -26.35 33.5 -26.45 33.5 -26.5 Q33.5 -26.6 33.65 -26.9 33.75 -27.15 33.75 -27.3 33.75 -27.4 33.1 -27.8 L32.85 -27.95 32.9 -27.6 Q32.9 -27.35 32.8 -27.2 L32.6 -26.95 32.65 -26.85 Q33.1 -26.65 33.35 -26.4 L33.4 -26.35 Q33.6 -26.25 33.8 -25.9 34.0 -25.6 34.0 -25.5 L33.95 -24.95 Q33.85 -24.7 33.85 -24.55 L33.85 -24.45 33.75 -24.45 33.55 -24.4 33.5 -24.4 33.45 -24.45 33.25 -24.5 Q33.0 -24.55 33.0 -24.6 L32.95 -24.65 32.95 -24.75 Q33.0 -24.85 33.45 -24.9 L33.55 -25.1 Q33.65 -25.25 33.65 -25.45 L33.6 -25.6 33.55 -25.6 33.5 -25.55 33.3 -25.55 33.2 -25.65 Q33.1 -26.05 32.9 -26.25 L32.15 -26.8 32.1 -26.85 32.35 -27.35 Q32.45 -27.65 32.4 -27.9 L32.45 -28.0 32.5 -28.05 32.7 -28.05 Q32.35 -28.25 32.25 -28.25 32.05 -28.25 31.9 -28.15 L31.55 -28.15 31.5 -28.2 31.55 -28.25 31.85 -28.9 31.9 -28.95 31.95 -28.95 M24.05 -32.8 L24.35 -32.45 Q24.7 -32.0 25.55 -31.8 L25.65 -31.75 25.75 -32.3 25.1 -32.3 Q25.05 -32.25 24.45 -32.7 L23.85 -33.05 24.05 -32.8 M23.2 -34.3 L23.25 -34.25 23.25 -34.1 Q23.2 -33.9 23.2 -33.7 L23.1 -33.6 22.8 -33.6 Q22.75 -33.6 22.75 -33.65 22.65 -33.7 22.6 -33.85 L22.6 -34.05 22.65 -34.1 22.9 -34.3 22.95 -34.35 23.15 -34.35 23.2 -34.3 M26.5 -32.7 L26.7 -32.9 Q26.9 -33.05 27.2 -33.05 27.4 -33.05 27.55 -33.0 L27.7 -32.9 27.8 -32.8 27.8 -31.65 27.65 -31.5 27.6 -31.5 Q27.55 -31.5 27.5 -31.5 L27.45 -31.6 Q27.4 -31.6 27.4 -31.65 L27.4 -32.5 27.15 -32.55 Q27.1 -32.55 27.1 -32.6 L27.05 -32.65 26.95 -32.6 27.0 -32.6 27.0 -32.55 Q26.95 -32.45 26.9 -32.45 L26.65 -32.35 26.65 -32.25 26.6 -32.2 26.55 -32.2 Q26.05 -32.25 26.0 -32.1 26.05 -31.75 25.95 -31.55 L25.9 -31.5 25.7 -31.5 25.65 -31.55 25.65 -31.5 25.6 -31.5 25.1 -31.45 Q24.45 -31.3 24.15 -31.8 L23.9 -32.3 Q23.75 -32.6 23.55 -32.75 L23.3 -32.8 23.15 -32.75 Q23.05 -32.75 23.0 -32.85 L22.95 -32.85 22.9 -32.9 Q22.85 -32.9 22.85 -32.95 L22.85 -33.05 Q23.0 -33.3 23.2 -33.45 23.35 -33.55 23.7 -33.6 L23.75 -33.6 24.45 -33.15 25.1 -32.7 26.5 -32.7 M-16.3 -46.3 L-16.35 -46.3 -16.25 -46.35 -16.3 -46.3 M-16.25 -46.65 L-16.05 -46.75 -16.05 -46.55 -16.25 -46.65 M-16.75 -46.1 Q-16.8 -46.1 -16.7 -46.15 L-16.7 -46.1 -16.75 -46.1 M-16.05 -47.1 L-16.0 -47.1 -15.9 -47.0 -15.95 -46.95 -15.95 -46.9 -16.05 -47.1 M-16.25 -46.35 Q-16.3 -46.4 -16.15 -46.35 L-16.25 -46.35 M-22.1 4.7 L-21.95 4.75 -21.9 4.8 Q-21.85 4.8 -21.85 4.85 -21.85 5.0 -22.05 5.15 -22.15 5.25 -22.15 5.35 -22.15 5.5 -22.0 5.75 -21.85 6.0 -21.65 6.0 -21.55 6.0 -21.35 5.75 -21.0 5.35 -20.9 5.4 L-20.7 5.4 Q-20.55 5.45 -20.6 5.55 L-20.6 5.6 -20.65 5.6 Q-20.55 5.8 -20.4 6.05 L-20.0 6.5 Q-19.95 6.55 -19.95 6.6 L-20.05 6.7 -20.5 6.7 -20.55 6.6 Q-20.65 6.4 -20.8 6.15 L-20.9 5.95 -21.1 6.2 Q-21.3 6.4 -21.55 6.45 L-21.95 6.45 -22.05 6.4 Q-22.7 5.75 -22.7 5.3 L-22.7 5.2 -22.4 4.95 -22.15 4.7 -22.1 4.7 M-16.75 5.6 Q-16.65 5.7 -16.65 6.25 -16.65 6.55 -16.7 6.7 -16.8 6.9 -17.25 7.2 L-17.25 7.25 -17.95 7.65 Q-18.55 8.0 -18.6 8.0 -18.9 8.0 -19.0 7.9 L-19.15 7.8 Q-19.3 7.6 -19.35 7.5 L-19.35 7.4 Q-19.2 7.2 -19.1 6.9 L-19.3 6.8 -19.7 6.7 -19.75 6.65 -19.75 6.55 Q-19.75 6.45 -19.5 6.4 L-19.35 6.35 -19.25 6.4 -18.85 6.5 Q-18.8 6.5 -18.75 6.55 -18.7 6.55 -18.7 6.6 -18.7 6.85 -18.8 7.15 L-18.85 7.45 -18.65 7.45 Q-18.2 7.2 -17.35 6.85 -17.15 6.75 -17.1 6.7 -17.0 6.55 -17.0 6.3 -17.0 6.0 -17.2 5.85 -17.45 5.65 -18.15 5.4 L-18.25 5.35 -18.25 5.25 -18.2 5.0 Q-18.15 4.85 -18.05 4.75 L-17.95 4.75 -17.8 4.8 -17.75 4.85 -17.75 4.9 Q-17.75 4.95 -17.8 5.05 -16.95 5.2 -16.75 5.6 M-29.95 -3.85 Q-30.0 -4.2 -29.95 -4.35 L-29.95 -4.4 -29.9 -4.45 Q-29.05 -4.9 -28.55 -3.85 L-28.55 -3.7 Q-28.6 -3.7 -28.65 -3.7 L-28.7 -3.7 -29.1 -3.9 Q-29.3 -4.0 -29.65 -4.0 -29.6 -3.65 -29.65 -3.0 L-29.8 -2.1 -29.8 -2.0 Q-29.85 -2.0 -29.9 -2.0 L-30.35 -2.0 -30.4 -2.05 -30.7 -2.0 -30.8 -2.1 -30.8 -2.15 -30.75 -2.25 -30.75 -2.3 Q-30.65 -2.45 -30.05 -2.45 L-29.95 -2.85 Q-29.85 -3.1 -29.85 -3.25 L-29.95 -3.85 M-30.2 -6.25 L-30.2 -6.15 Q-30.8 -5.45 -31.5 -4.85 -31.85 -4.45 -31.85 -3.75 -31.85 -3.65 -31.85 -3.6 L-31.5 -3.55 Q-31.45 -3.55 -31.35 -3.4 L-31.0 -3.05 Q-31.0 -2.9 -31.15 -2.7 -31.3 -2.45 -31.5 -2.35 L-31.65 -2.35 -31.65 -2.5 -31.5 -2.7 -31.45 -2.85 -31.6 -3.15 -31.75 -3.15 -31.95 -3.1 Q-32.1 -2.95 -32.2 -3.1 L-32.2 -3.95 Q-32.15 -4.2 -32.05 -4.55 -32.0 -4.85 -31.7 -5.2 -31.25 -5.8 -30.7 -6.3 L-30.75 -6.4 -30.85 -6.4 -31.1 -6.35 -31.35 -6.35 -31.4 -6.45 -31.4 -6.5 -31.35 -6.55 -31.1 -6.75 Q-30.95 -6.9 -30.8 -6.9 L-30.7 -6.9 Q-30.6 -6.8 -30.4 -6.55 L-30.2 -6.25 M-36.0 -16.6 Q-35.95 -16.55 -35.95 -16.25 L-35.95 -16.2 -35.8 -15.9 -35.4 -15.8 -35.0 -15.65 -34.95 -15.65 -34.8 -15.5 Q-34.7 -15.4 -34.7 -15.15 -34.7 -14.8 -34.85 -14.8 L-35.1 -14.8 Q-35.3 -14.85 -35.35 -14.9 L-35.4 -15.0 -35.4 -15.05 -35.2 -15.15 -35.55 -15.25 -36.05 -15.3 Q-36.1 -15.3 -36.15 -15.35 -36.3 -15.5 -36.45 -15.7 -36.6 -15.95 -36.6 -16.05 -36.6 -16.3 -36.45 -16.4 L-36.45 -16.45 Q-36.35 -16.5 -36.3 -16.55 L-36.15 -16.55 Q-36.1 -16.65 -36.0 -16.6 M-39.95 -17.95 L-39.9 -18.05 -39.85 -18.1 -39.75 -18.1 -39.4 -17.8 -39.2 -17.55 -39.2 -17.4 -39.3 -17.35 -39.55 -17.35 -39.8 -17.6 Q-39.95 -17.8 -39.95 -17.95 M-45.5 -19.15 L-45.4 -19.1 -45.35 -19.05 -45.35 -19.0 -45.25 -19.0 Q-44.95 -18.85 -45.0 -18.75 L-45.0 -18.65 -45.05 -18.6 -45.15 -18.6 -45.7 -18.7 -45.7 -18.15 -45.55 -17.9 -45.5 -17.75 -44.8 -17.7 -44.7 -17.6 -44.65 -17.6 Q-44.55 -17.5 -44.55 -17.25 -44.55 -16.85 -44.8 -16.9 -44.85 -16.9 -45.05 -16.95 L-45.1 -17.05 -45.1 -17.2 Q-45.1 -17.3 -45.2 -17.3 L-45.65 -17.35 -45.7 -17.4 Q-46.05 -17.6 -46.1 -18.1 L-46.2 -18.8 -46.2 -18.85 Q-46.15 -19.05 -45.5 -19.15 M-41.2 -18.95 L-41.1 -18.95 -40.85 -18.75 -40.6 -18.45 -40.55 -18.4 Q-40.6 -18.35 -40.6 -18.3 L-40.65 -18.25 -40.75 -18.2 -40.8 -18.2 -40.85 -18.25 Q-40.9 -18.35 -41.1 -18.45 L-41.4 -18.55 -41.8 -16.75 Q-41.8 -16.55 -41.55 -16.15 -41.25 -15.7 -41.25 -15.6 -41.25 -15.0 -41.65 -14.7 L-41.7 -14.7 -42.4 -14.5 -43.1 -14.4 -43.15 -14.4 -43.35 -14.55 Q-43.5 -14.65 -43.7 -14.7 L-43.8 -14.75 -43.8 -14.8 -43.9 -15.4 -44.0 -15.95 -43.95 -16.15 Q-43.9 -16.3 -43.75 -16.25 L-43.7 -16.25 -43.6 -16.2 -43.55 -16.15 -43.4 -15.85 Q-43.3 -15.6 -43.3 -15.4 -43.3 -15.2 -43.35 -15.1 L-43.1 -14.95 Q-42.95 -14.85 -42.8 -14.85 L-42.15 -15.0 -41.75 -15.1 -41.7 -15.3 Q-41.65 -15.45 -41.65 -15.65 L-41.95 -16.05 Q-42.35 -16.5 -42.3 -16.6 -42.35 -16.75 -42.05 -17.65 -41.8 -18.5 -41.75 -18.8 L-41.7 -18.9 -41.65 -18.9 -41.2 -18.95 M-40.1 -23.6 L-40.15 -23.55 Q-40.35 -23.2 -40.4 -23.0 -40.4 -22.9 -40.35 -22.85 -40.2 -22.8 -39.9 -22.75 -39.7 -22.95 -39.55 -22.9 L-39.45 -22.8 Q-39.45 -22.7 -39.5 -22.65 L-39.4 -22.6 Q-39.3 -22.5 -39.2 -22.3 L-39.2 -22.2 Q-39.3 -22.05 -39.55 -22.2 -39.65 -22.25 -39.75 -22.35 -39.8 -22.3 -39.9 -22.3 -40.5 -22.25 -40.6 -22.65 -40.65 -22.75 -40.65 -23.05 L-40.65 -23.4 -40.6 -23.4 -41.0 -23.55 -41.3 -23.65 -41.3 -23.55 -41.4 -23.25 -41.45 -23.2 Q-41.45 -23.15 -41.5 -23.15 L-41.55 -23.15 Q-41.75 -23.2 -41.8 -23.35 L-41.8 -23.4 -41.7 -23.75 -41.6 -23.95 -41.5 -24.05 -41.0 -24.05 -40.9 -23.95 -40.75 -23.85 -40.35 -23.8 Q-40.15 -23.75 -40.15 -23.65 L-40.1 -23.6 M-37.55 -26.9 L-37.55 -26.8 -37.6 -26.8 -37.8 -26.75 -37.9 -26.65 -38.5 -26.5 Q-38.6 -26.5 -38.7 -26.6 L-38.8 -26.8 -38.8 -26.9 -38.75 -26.95 Q-38.25 -27.0 -37.95 -27.15 L-38.0 -27.3 Q-38.05 -27.45 -38.0 -27.55 L-37.95 -27.6 -37.85 -27.65 Q-37.7 -27.6 -37.6 -27.35 -37.55 -27.15 -37.55 -26.9 M-28.95 -27.55 L-28.9 -27.5 -28.95 -27.4 Q-29.1 -27.15 -29.4 -27.15 L-29.5 -27.2 -29.55 -27.25 -29.6 -27.35 -29.55 -27.4 -29.4 -27.65 -29.35 -27.65 Q-29.0 -27.75 -28.95 -27.55 M-29.3 -29.25 Q-29.45 -29.25 -29.5 -29.2 L-28.65 -28.8 Q-28.25 -28.65 -28.25 -28.2 -28.25 -27.85 -28.3 -27.8 -28.35 -27.75 -28.55 -27.7 L-28.65 -27.75 -28.7 -27.8 -28.7 -28.05 Q-28.7 -28.15 -28.75 -28.25 -28.9 -28.6 -29.75 -28.85 L-29.85 -28.95 -29.85 -29.3 Q-29.85 -29.55 -29.8 -29.65 -29.8 -29.7 -29.55 -29.75 L-29.5 -29.75 Q-29.4 -29.7 -29.25 -29.45 L-29.2 -29.35 -29.25 -29.3 Q-29.3 -29.3 -29.3 -29.25 M-27.75 -39.9 L-27.9 -39.85 -27.95 -39.85 -28.3 -40.05 -28.55 -40.1 -28.55 -39.7 -28.65 -39.65 -28.8 -39.65 -28.85 -39.7 -28.85 -39.75 -28.9 -39.8 -28.9 -40.3 -28.85 -40.45 -28.8 -40.5 -28.75 -40.5 -28.3 -40.55 -28.25 -40.55 -27.95 -40.45 Q-27.6 -40.3 -27.55 -40.15 L-27.55 -40.05 Q-27.55 -39.95 -27.75 -39.9 M-27.55 -42.55 L-27.75 -42.8 -27.75 -42.95 -27.7 -43.0 -27.6 -43.0 -27.3 -42.85 -26.8 -42.65 -26.75 -42.65 -26.75 -42.55 -26.8 -42.1 Q-26.8 -41.85 -26.75 -41.65 L-26.5 -41.25 Q-26.3 -40.9 -26.3 -40.65 -26.3 -40.4 -26.4 -40.25 L-26.5 -40.1 -26.55 -40.05 -27.05 -40.05 -27.1 -40.15 -27.1 -40.2 -26.7 -40.6 Q-26.7 -40.75 -26.95 -41.1 -27.25 -41.55 -27.25 -41.85 L-27.2 -42.2 -27.15 -42.35 Q-27.4 -42.4 -27.55 -42.55 M-23.1 -35.7 L-23.0 -35.65 -22.95 -35.6 Q-22.95 -35.55 -23.0 -35.55 -23.1 -35.2 -23.0 -35.0 -22.65 -34.8 -22.45 -34.5 L-22.45 -34.4 -22.5 -34.35 Q-22.5 -34.3 -22.55 -34.3 -22.7 -34.3 -22.9 -34.45 -23.1 -34.6 -23.25 -34.65 L-23.3 -34.65 -23.35 -34.7 -23.45 -34.9 Q-23.55 -35.1 -23.55 -35.3 -23.55 -35.65 -23.4 -35.65 L-23.3 -35.65 -23.2 -35.7 -23.1 -35.7 M-23.05 -38.2 Q-22.85 -38.1 -22.85 -38.0 L-22.85 -37.75 -22.9 -37.7 -23.0 -37.7 Q-23.4 -37.7 -23.6 -37.4 -23.75 -37.15 -23.7 -37.0 -23.5 -36.95 -23.3 -36.85 -23.0 -36.7 -22.95 -36.65 L-22.85 -36.55 -22.85 -36.1 Q-22.85 -36.05 -22.9 -36.05 L-23.0 -36.0 Q-23.25 -36.0 -23.35 -36.1 L-23.35 -36.3 Q-23.3 -36.35 -23.5 -36.5 L-24.0 -36.55 Q-24.05 -36.55 -24.1 -36.55 L-24.15 -36.65 -24.2 -36.7 Q-24.2 -37.05 -23.9 -37.55 L-23.4 -38.3 -23.35 -38.35 -23.25 -38.35 -23.05 -38.2 M-21.7 -38.6 Q-21.7 -38.45 -21.45 -38.15 L-21.15 -37.85 -21.2 -37.55 -21.2 -37.45 -21.25 -37.45 Q-21.25 -37.4 -21.3 -37.4 L-22.05 -37.35 -22.1 -37.35 -22.1 -37.5 Q-21.95 -37.7 -21.65 -37.8 L-21.6 -37.8 -21.8 -38.0 -22.1 -38.1 -22.15 -38.1 -22.3 -38.2 -22.3 -38.3 -22.25 -38.35 -22.1 -38.55 Q-21.95 -38.7 -21.85 -38.75 L-21.75 -38.75 -21.7 -38.7 -21.7 -38.6 M-15.8 -44.3 L-15.75 -44.25 Q-15.75 -44.2 -15.85 -44.0 L-15.95 -43.85 -16.0 -43.8 -16.0 -43.75 -16.3 -43.65 -16.35 -43.65 Q-16.55 -43.65 -16.55 -43.9 L-16.25 -44.2 Q-16.1 -44.3 -15.95 -44.35 L-15.85 -44.35 -15.8 -44.3 M-15.5 -46.85 L-15.55 -46.8 -15.55 -46.85 -15.5 -46.85" fill="#00ffff" fill-opacity="0.5019608" fill-rule="evenodd" stroke="none"/>
    <path d="M-21.95 4.85 Q-21.95 4.95 -22.1 5.05 -22.25 5.2 -22.25 5.35 -22.25 5.55 -22.1 5.8 -21.95 6.15 -21.65 6.15 -21.5 6.15 -21.25 5.8 -20.95 5.5 -20.9 5.5 L-20.7 5.55 -20.75 5.55 Q-20.75 5.75 -20.45 6.1 L-20.05 6.6 -20.45 6.6 Q-20.55 6.35 -20.7 6.1 L-20.9 5.8 -21.2 6.1 Q-21.35 6.3 -21.6 6.35 L-21.95 6.35 Q-22.6 5.7 -22.6 5.3 L-22.3 5.05 -22.1 4.8 -21.95 4.85 M-16.9 6.3 Q-16.9 5.95 -17.15 5.75 -17.4 5.55 -18.15 5.25 L-18.1 5.05 -17.95 4.85 -17.85 4.9 Q-17.85 4.95 -17.95 5.15 -17.05 5.25 -16.85 5.65 -16.75 5.75 -16.75 6.25 -16.75 6.5 -16.8 6.65 -16.9 6.8 -17.3 7.15 -17.4 7.25 -18.0 7.55 -18.55 7.85 -18.6 7.85 L-18.95 7.8 -19.05 7.75 -19.25 7.45 Q-19.1 7.25 -18.95 6.85 L-19.3 6.7 -19.65 6.6 Q-19.65 6.55 -19.45 6.5 L-19.3 6.5 Q-19.25 6.55 -19.05 6.6 L-18.85 6.6 Q-18.85 6.85 -18.9 7.15 L-18.95 7.5 -18.6 7.6 Q-18.2 7.3 -17.3 6.95 -17.05 6.85 -17.0 6.75 -16.9 6.6 -16.9 6.3 M-29.75 -4.15 L-29.75 -4.05 Q-29.7 -3.7 -29.75 -3.05 L-29.9 -2.1 -30.25 -2.1 Q-30.35 -2.15 -30.45 -2.15 L-30.7 -2.15 -30.65 -2.25 Q-30.55 -2.35 -29.95 -2.35 -29.95 -2.5 -29.85 -2.8 -29.75 -3.1 -29.75 -3.25 L-29.8 -3.85 Q-29.9 -4.2 -29.85 -4.35 -29.1 -4.7 -28.65 -3.8 L-29.05 -4.0 Q-29.35 -4.1 -29.75 -4.15 M-30.55 -6.25 L-30.6 -6.45 -30.6 -6.5 -30.85 -6.5 -31.15 -6.45 -31.3 -6.45 -31.05 -6.65 Q-30.9 -6.8 -30.8 -6.8 L-30.5 -6.45 -30.3 -6.2 Q-30.9 -5.55 -31.55 -4.95 -31.95 -4.5 -31.95 -3.75 -31.95 -3.5 -31.9 -3.5 L-31.55 -3.45 -31.15 -3.05 Q-31.15 -2.95 -31.25 -2.75 -31.4 -2.55 -31.55 -2.45 L-31.45 -2.65 -31.3 -2.85 Q-31.4 -3.0 -31.5 -3.2 -31.55 -3.25 -31.75 -3.25 -31.95 -3.25 -32.05 -3.2 L-32.1 -3.15 -32.1 -3.9 Q-32.0 -4.15 -31.95 -4.5 -31.9 -4.8 -31.6 -5.15 -31.15 -5.75 -30.55 -6.25 M-36.05 -16.25 L-36.1 -16.2 -35.9 -15.8 -35.45 -15.7 -35.0 -15.55 -34.9 -15.45 Q-34.8 -15.35 -34.8 -15.15 -34.8 -14.9 -34.85 -14.9 L-35.1 -14.9 -35.3 -15.0 Q-34.9 -15.1 -35.1 -15.2 L-35.5 -15.4 -36.05 -15.4 Q-36.2 -15.55 -36.35 -15.8 -36.45 -16.0 -36.45 -16.05 -36.45 -16.25 -36.4 -16.35 L-36.2 -16.45 -36.1 -16.45 -36.05 -16.5 -36.05 -16.25 M-39.8 -17.95 Q-39.7 -17.9 -39.5 -17.7 L-39.3 -17.5 -39.5 -17.45 -39.7 -17.65 Q-39.8 -17.85 -39.8 -17.95 M-45.1 -18.75 L-45.8 -18.8 -45.8 -18.1 Q-45.75 -18.0 -45.65 -17.85 L-45.55 -17.65 -44.85 -17.6 -44.75 -17.5 Q-44.65 -17.45 -44.65 -17.25 -44.65 -17.0 -44.8 -17.0 L-44.95 -17.05 Q-44.95 -17.15 -45.0 -17.25 -45.05 -17.35 -45.2 -17.4 L-45.65 -17.5 Q-45.95 -17.65 -46.0 -18.1 L-46.1 -18.85 Q-46.05 -18.95 -45.45 -19.0 L-45.3 -18.9 Q-45.1 -18.8 -45.1 -18.75 M-41.6 -18.8 L-41.15 -18.85 -40.9 -18.65 -40.7 -18.4 -40.75 -18.3 Q-40.85 -18.45 -41.05 -18.55 -41.3 -18.65 -41.5 -18.65 -41.5 -18.55 -41.7 -17.7 L-41.95 -16.75 Q-41.95 -16.55 -41.65 -16.1 -41.4 -15.7 -41.4 -15.6 -41.4 -15.1 -41.7 -14.8 L-42.4 -14.6 -43.1 -14.5 -43.3 -14.65 Q-43.45 -14.75 -43.7 -14.85 L-43.8 -15.4 -43.85 -15.95 Q-43.85 -16.2 -43.75 -16.15 L-43.65 -16.1 -43.5 -15.8 Q-43.4 -15.6 -43.4 -15.4 -43.4 -15.15 -43.45 -15.15 L-43.55 -15.05 Q-43.4 -15.0 -43.15 -14.85 -43.0 -14.75 -42.8 -14.75 L-42.1 -14.9 -41.65 -15.0 -41.6 -15.25 Q-41.5 -15.45 -41.5 -15.65 -41.5 -15.7 -41.85 -16.1 -42.2 -16.55 -42.2 -16.6 -42.2 -16.75 -41.95 -17.6 -41.65 -18.5 -41.6 -18.8 M-40.35 -23.7 L-40.25 -23.6 Q-40.5 -23.2 -40.5 -23.0 -40.6 -22.7 -39.85 -22.65 -39.7 -22.8 -39.6 -22.8 -39.6 -22.7 -39.7 -22.6 L-39.7 -22.55 Q-39.55 -22.55 -39.45 -22.5 -39.4 -22.4 -39.3 -22.25 -39.35 -22.2 -39.5 -22.3 L-39.7 -22.45 -39.7 -22.55 Q-39.8 -22.45 -39.9 -22.4 -40.4 -22.4 -40.5 -22.7 L-40.55 -23.05 -40.5 -23.35 -40.4 -23.45 -40.95 -23.65 -41.4 -23.8 -41.45 -23.55 -41.5 -23.25 Q-41.65 -23.3 -41.7 -23.4 L-41.6 -23.7 -41.5 -23.9 -41.05 -23.95 -40.8 -23.75 -40.35 -23.7 M-38.65 -26.7 L-38.7 -26.85 Q-38.1 -26.9 -37.8 -27.1 -37.85 -27.15 -37.9 -27.3 L-37.9 -27.5 Q-37.8 -27.5 -37.7 -27.3 -37.65 -27.1 -37.65 -26.9 -37.9 -26.85 -37.9 -26.75 L-38.5 -26.6 -38.65 -26.7 M-29.05 -27.5 Q-29.15 -27.3 -29.4 -27.3 L-29.5 -27.35 -29.3 -27.55 Q-29.1 -27.6 -29.05 -27.5 M-29.55 -29.65 Q-29.5 -29.6 -29.35 -29.4 -29.6 -29.35 -29.6 -29.15 -29.5 -29.1 -28.7 -28.7 -28.35 -28.55 -28.35 -28.2 -28.35 -27.9 -28.4 -27.9 L-28.6 -27.85 -28.6 -28.05 Q-28.6 -28.2 -28.65 -28.3 -28.8 -28.65 -29.7 -28.95 L-29.75 -29.05 -29.75 -29.3 Q-29.75 -29.5 -29.7 -29.55 L-29.55 -29.65 M-27.65 -40.1 Q-27.65 -40.05 -27.8 -40.0 L-27.9 -39.95 -28.25 -40.15 -28.65 -40.25 -28.65 -39.75 -28.75 -39.75 -28.8 -39.85 -28.8 -40.3 -28.75 -40.4 -28.3 -40.45 -27.95 -40.3 Q-27.7 -40.2 -27.65 -40.1 M-27.35 -42.75 Q-27.1 -42.65 -26.85 -42.55 L-26.9 -42.1 Q-26.9 -41.8 -26.85 -41.65 L-26.6 -41.2 Q-26.45 -40.9 -26.45 -40.65 -26.45 -40.4 -26.5 -40.3 L-26.55 -40.2 -26.9 -40.15 -27.0 -40.2 -26.65 -40.5 Q-26.55 -40.55 -26.55 -40.6 -26.55 -40.75 -26.85 -41.2 -27.15 -41.6 -27.15 -41.85 L-27.1 -42.2 -27.0 -42.45 Q-27.3 -42.45 -27.45 -42.65 L-27.65 -42.9 -27.35 -42.75 M-23.05 -34.95 Q-22.75 -34.7 -22.55 -34.45 -22.65 -34.45 -22.85 -34.55 -23.05 -34.7 -23.2 -34.75 L-23.35 -35.0 Q-23.45 -35.1 -23.45 -35.3 -23.45 -35.55 -23.35 -35.55 L-23.2 -35.6 -23.1 -35.6 Q-23.25 -35.15 -23.05 -34.95 M-22.95 -37.95 L-23.0 -37.8 Q-23.45 -37.8 -23.7 -37.45 -23.9 -37.15 -23.8 -36.9 -23.6 -36.85 -23.35 -36.75 L-23.0 -36.55 -22.95 -36.35 -23.0 -36.15 Q-23.2 -36.15 -23.25 -36.2 -23.15 -36.3 -23.45 -36.6 L-24.0 -36.65 -24.1 -36.7 Q-24.1 -37.0 -23.8 -37.5 L-23.3 -38.25 -23.1 -38.1 Q-22.95 -38.0 -22.95 -37.95 M-21.55 -38.1 L-21.3 -37.85 -21.3 -37.5 -22.0 -37.45 Q-21.9 -37.65 -21.5 -37.7 L-21.5 -37.9 -21.75 -38.1 -22.1 -38.2 Q-22.15 -38.2 -22.2 -38.3 L-22.0 -38.45 Q-21.9 -38.6 -21.8 -38.6 -21.8 -38.4 -21.55 -38.1 M-15.95 -44.1 L-16.05 -43.9 -16.35 -43.75 Q-16.45 -43.75 -16.45 -43.9 L-16.2 -44.1 Q-16.0 -44.2 -15.9 -44.25 L-15.95 -44.1 M-13.55 -47.2 Q-13.55 -47.15 -14.1 -47.05 L-15.05 -46.85 Q-15.5 -46.4 -15.55 -46.4 -15.6 -46.4 -16.15 -46.75 L-16.15 -46.45 -16.2 -46.4 -16.35 -46.4 Q-16.4 -46.25 -16.55 -46.2 -16.8 -46.25 -16.8 -46.15 -16.8 -45.65 -16.6 -45.3 L-15.9 -44.45 Q-16.5 -44.55 -16.8 -45.2 -17.05 -45.65 -17.05 -46.2 -17.05 -46.3 -16.9 -46.45 -16.75 -46.65 -16.45 -46.75 L-16.45 -47.05 -16.4 -47.05 Q-15.45 -48.35 -14.45 -47.95 -14.05 -47.85 -13.5 -47.4 L-12.55 -46.7 -12.75 -46.5 -13.5 -47.2 Q-14.25 -47.9 -14.7 -47.9 L-15.45 -47.85 -15.8 -47.35 -16.05 -47.0 -15.85 -46.8 Q-15.7 -46.7 -15.5 -46.7 L-14.9 -46.95 Q-14.25 -47.2 -13.55 -47.2 M-18.9 -44.1 L-19.35 -44.55 -19.0 -44.45 Q-18.75 -44.35 -18.7 -44.2 L-18.9 -44.1 M-9.35 -44.45 L-9.25 -44.4 -9.1 -44.25 Q-9.15 -44.2 -9.5 -44.15 L-9.9 -44.15 -10.0 -44.2 -9.95 -44.35 Q-9.8 -44.45 -9.35 -44.45 M-3.85 -49.6 L-3.85 -49.55 -4.1 -49.5 -4.2 -49.6 Q-3.55 -50.9 -3.25 -51.25 -3.15 -51.15 -2.65 -50.85 L-3.0 -50.8 Q-3.4 -50.85 -3.7 -50.45 -3.9 -50.1 -3.9 -49.85 L-3.85 -49.6 M24.25 -9.55 Q24.35 -9.65 24.5 -9.9 L24.8 -9.9 Q25.15 -9.85 25.15 -9.75 L24.6 -9.55 24.25 -9.45 24.25 -9.55 M26.05 -12.3 Q27.2 -11.9 27.95 -11.25 28.55 -10.7 28.8 -10.1 27.8 -9.1 27.6 -9.1 27.55 -9.1 27.3 -9.25 L26.85 -9.5 Q26.9 -9.55 27.25 -9.6 L27.5 -9.6 Q27.85 -9.5 28.15 -9.8 28.4 -10.0 28.4 -10.15 28.4 -10.45 27.4 -11.25 26.4 -12.0 25.95 -12.1 25.1 -12.25 24.4 -12.95 L23.4 -14.1 24.45 -13.2 Q25.2 -12.6 26.05 -12.3 M26.65 -12.75 Q26.65 -12.95 26.45 -13.4 L26.2 -13.9 Q26.85 -13.25 26.9 -12.55 26.85 -12.5 26.65 -12.45 L26.4 -12.45 26.35 -12.55 26.5 -12.55 Q26.65 -12.55 26.65 -12.75 M33.15 -19.05 Q33.05 -19.2 33.1 -19.25 33.4 -19.35 33.5 -19.15 33.5 -19.1 33.5 -18.8 L33.5 -18.45 33.45 -18.4 Q32.35 -18.5 32.0 -18.2 31.85 -18.05 31.8 -17.85 L31.65 -17.45 31.2 -17.4 30.7 -17.65 30.75 -17.7 31.15 -17.75 31.5 -17.7 Q31.6 -18.15 32.05 -18.45 32.55 -18.8 33.1 -18.75 L33.3 -18.65 33.3 -18.75 33.15 -19.05 M33.55 -25.9 L33.35 -26.25 Q33.55 -26.15 33.7 -25.85 33.9 -25.6 33.9 -25.5 L33.8 -25.0 Q33.75 -24.7 33.75 -24.55 L33.55 -24.5 33.05 -24.7 Q33.1 -24.75 33.55 -24.8 L33.65 -25.05 Q33.75 -25.2 33.75 -25.45 33.75 -25.6 33.55 -25.9 M32.75 -27.95 L32.8 -27.6 Q32.8 -27.4 32.7 -27.25 L32.5 -26.95 32.55 -26.8 Q33.15 -26.55 33.35 -26.15 33.55 -25.85 33.45 -25.65 L33.35 -25.7 Q33.2 -26.1 32.95 -26.35 L32.25 -26.9 32.45 -27.3 Q32.6 -27.6 32.55 -27.95 32.7 -27.9 32.75 -27.95 M23.05 -17.3 L22.95 -17.4 Q23.4 -17.9 23.6 -18.05 23.8 -18.15 24.0 -18.1 L24.5 -17.75 Q24.95 -17.5 25.5 -17.3 26.0 -17.15 26.45 -17.1 26.65 -17.05 26.8 -16.6 26.95 -16.15 26.95 -15.6 26.95 -15.35 26.9 -15.25 L26.75 -15.0 26.7 -15.05 26.7 -16.0 Q26.7 -16.55 26.5 -16.75 26.2 -16.95 25.0 -17.4 L23.75 -17.85 Q23.6 -17.85 23.45 -17.65 23.25 -17.4 23.05 -17.3 M22.0 -19.45 L22.6 -20.5 23.15 -20.55 24.3 -20.05 Q24.85 -19.85 25.25 -19.85 25.6 -19.85 25.6 -19.9 L25.6 -19.7 Q25.15 -19.5 25.4 -19.0 25.8 -18.45 25.85 -18.3 L25.45 -18.7 Q25.1 -19.0 25.1 -19.15 25.1 -19.3 25.15 -19.5 25.15 -19.65 25.0 -19.75 L22.6 -20.3 21.95 -18.7 Q21.55 -17.9 21.55 -17.3 21.55 -16.2 22.15 -15.9 24.55 -15.35 25.8 -14.3 24.9 -14.95 24.0 -15.2 L22.5 -15.5 Q21.9 -15.65 21.65 -16.15 21.4 -16.75 21.4 -18.3 21.4 -18.4 22.0 -19.45 M21.35 -19.85 Q21.2 -19.7 20.9 -19.6 20.65 -19.55 20.65 -19.35 L20.55 -18.4 Q20.45 -17.6 20.45 -17.4 20.45 -17.25 20.65 -17.15 L20.9 -16.9 20.9 -16.75 Q20.65 -16.95 20.45 -17.15 20.35 -17.35 20.35 -17.4 20.35 -17.6 20.45 -18.25 20.6 -18.9 20.6 -19.1 L20.6 -19.45 Q20.55 -19.6 20.65 -19.7 L21.1 -19.8 Q21.3 -19.85 21.3 -20.05 L21.35 -19.85 M20.1 -33.4 Q20.2 -33.2 20.2 -33.0 L20.1 -33.0 20.0 -33.3 Q19.95 -33.5 19.95 -33.6 20.05 -33.6 20.1 -33.4 M19.35 -33.95 L19.15 -33.9 Q18.7 -34.0 18.5 -33.9 18.25 -33.75 18.2 -33.75 18.0 -33.75 17.85 -33.9 17.7 -34.05 17.45 -34.1 17.35 -34.2 17.3 -34.3 L17.5 -34.35 18.7 -34.35 Q19.2 -34.2 19.35 -33.95 M22.95 -34.25 L23.15 -34.25 23.15 -34.1 Q23.1 -33.9 23.1 -33.7 L22.8 -33.7 Q22.75 -33.8 22.75 -33.85 L22.7 -34.0 22.95 -34.25 M10.95 -37.1 L10.95 -36.75 10.9 -36.7 10.7 -36.7 Q10.65 -36.8 10.65 -37.1 10.65 -37.3 10.5 -37.45 L10.1 -37.55 Q10.1 -37.6 10.55 -37.65 10.95 -37.3 10.95 -37.1 M9.0 -37.75 Q9.55 -37.8 9.65 -37.55 9.6 -37.5 9.35 -37.45 L9.1 -37.45 9.0 -37.55 9.0 -37.75 M10.0 -41.95 L10.0 -41.9 Q10.1 -42.2 10.1 -41.85 10.1 -41.65 10.0 -41.45 L9.8 -41.0 9.45 -40.9 9.4 -40.85 8.8 -40.85 Q8.65 -41.35 8.45 -41.65 8.85 -41.55 8.85 -41.05 L9.35 -41.0 9.55 -41.15 Q9.75 -41.25 9.8 -41.3 9.75 -41.45 9.8 -41.6 9.85 -41.75 10.0 -41.95 M8.15 -45.45 L8.15 -45.6 8.1 -45.75 Q8.05 -45.85 8.05 -45.9 8.15 -45.9 8.2 -45.7 8.3 -45.55 8.3 -45.3 L7.75 -45.2 7.3 -45.1 7.2 -44.9 Q7.25 -44.85 7.5 -44.75 7.75 -44.65 7.75 -44.6 L7.2 -44.6 7.05 -44.8 Q7.05 -44.9 7.1 -45.0 L7.2 -45.25 7.65 -45.35 8.15 -45.45 M7.8 -46.4 Q7.75 -46.5 7.6 -46.55 L7.2 -46.55 7.65 -46.9 Q7.75 -46.9 7.8 -46.85 7.9 -46.8 7.9 -46.6 7.9 -46.35 7.85 -46.35 L7.8 -46.4 M5.95 -46.4 Q5.95 -46.5 6.25 -46.6 L6.45 -46.55 Q6.5 -46.55 6.5 -46.4 L6.0 -46.35 5.95 -46.4 M0.15 -50.2 L0.05 -50.15 Q0.0 -50.2 -0.65 -50.45 L-1.4 -50.75 Q-1.6 -50.75 -1.7 -50.65 -1.9 -50.5 -2.05 -50.45 -2.25 -49.7 -2.45 -49.5 -2.9 -48.9 -4.15 -48.8 L-4.3 -48.15 Q-4.45 -47.75 -4.65 -47.7 -4.65 -47.75 -4.75 -47.65 -4.75 -47.6 -4.75 -47.8 -4.75 -47.95 -4.5 -48.45 -4.3 -48.9 -4.25 -48.95 -2.95 -49.05 -2.6 -49.65 -2.5 -49.8 -2.4 -50.1 -2.3 -50.4 -2.2 -50.5 -1.5 -51.15 -0.75 -50.9 -0.15 -50.65 0.15 -50.2 M31.95 -28.85 Q32.1 -28.85 32.45 -28.55 32.85 -28.2 32.9 -28.2 34.0 -27.7 34.0 -27.35 34.0 -27.2 33.9 -26.9 33.75 -26.65 33.75 -26.5 L33.6 -26.5 Q33.6 -26.6 33.75 -26.85 33.9 -27.1 33.9 -27.3 33.9 -27.45 33.15 -27.9 32.45 -28.35 32.25 -28.35 32.05 -28.35 31.85 -28.25 31.65 -28.15 31.65 -28.2 L31.95 -28.85 M27.05 -32.75 Q26.85 -32.75 26.85 -32.7 L26.85 -32.55 Q26.8 -32.5 26.4 -32.45 L26.55 -32.3 Q25.9 -32.35 25.85 -32.15 25.9 -31.8 25.85 -31.6 L25.7 -31.65 Q25.85 -31.95 25.9 -32.35 L26.05 -32.4 Q25.7 -32.4 25.1 -32.4 L24.5 -32.8 Q23.95 -33.2 23.65 -33.2 23.5 -33.2 23.35 -33.1 L23.3 -33.05 23.6 -33.1 Q23.8 -32.95 24.0 -32.7 L24.25 -32.35 Q24.65 -31.9 25.5 -31.7 25.6 -31.65 25.6 -31.6 L25.1 -31.55 Q24.5 -31.45 24.25 -31.9 L24.0 -32.35 Q23.85 -32.65 23.6 -32.9 L23.25 -32.9 Q23.25 -32.85 23.15 -32.85 23.1 -32.85 23.1 -32.95 L23.05 -32.95 22.95 -33.0 Q23.1 -33.25 23.25 -33.35 23.4 -33.45 23.7 -33.5 L24.4 -33.05 25.05 -32.6 26.55 -32.6 26.8 -32.8 Q26.95 -32.95 27.2 -32.95 L27.5 -32.9 27.65 -32.8 27.65 -31.65 27.6 -31.6 27.5 -31.65 27.5 -32.6 27.2 -32.65 27.25 -32.7 27.05 -32.75" fill="#ffffff" fill-rule="evenodd" stroke="none"/>
    <path d="M39.55 -14.35 L39.6 -14.4 39.65 -14.5 39.95 -14.5 Q40.4 -14.4 40.4 -14.25 L40.4 -14.15 40.3 -14.05 40.2 -14.05 Q39.8 -14.1 39.65 -14.2 39.6 -14.2 39.6 -14.25 L39.55 -14.35 M39.75 -14.4 L39.7 -14.3 Q39.85 -14.25 40.2 -14.15 L40.25 -14.2 Q40.25 -14.3 39.9 -14.35 L39.75 -14.4 M41.45 -14.25 Q41.65 -14.2 41.85 -14.05 42.1 -13.95 42.15 -13.9 L42.15 -13.85 42.2 -13.75 42.2 -13.65 42.0 -13.55 Q41.85 -13.6 41.6 -13.75 L41.45 -13.65 42.0 -13.5 42.1 -13.45 42.15 -13.4 Q42.15 -13.3 42.25 -13.2 L42.25 -13.1 42.35 -13.05 42.6 -12.9 42.6 -12.95 Q42.6 -13.0 42.65 -13.05 L42.9 -13.05 43.0 -13.0 43.05 -12.9 43.05 -12.5 42.95 -12.4 42.35 -12.4 42.3 -12.45 42.3 -12.55 Q42.3 -12.65 42.2 -12.8 L42.15 -12.9 Q42.1 -12.95 42.15 -12.95 L42.1 -12.95 42.0 -13.0 41.85 -13.15 41.0 -13.35 40.9 -13.4 Q40.85 -13.45 40.9 -13.5 40.85 -13.45 40.75 -13.5 L40.7 -13.55 40.7 -13.65 40.75 -13.7 Q40.85 -13.8 41.05 -13.9 L41.2 -14.0 41.2 -14.1 Q41.15 -14.15 41.3 -14.2 L41.35 -14.25 41.45 -14.25 M44.35 -11.6 Q45.05 -11.45 45.05 -11.3 L45.05 -11.2 44.95 -11.15 44.9 -11.1 44.8 -11.1 44.3 -11.25 44.25 -11.15 44.25 -11.1 Q44.55 -11.0 44.55 -10.9 L44.55 -10.8 44.5 -10.75 44.85 -10.75 45.25 -10.7 Q45.25 -10.75 45.25 -10.8 L45.25 -10.95 Q45.25 -11.0 45.3 -11.05 L45.45 -11.1 45.6 -11.0 45.7 -10.95 Q45.8 -11.0 45.85 -10.85 L45.85 -10.6 Q45.8 -10.35 45.45 -10.35 L45.4 -10.35 45.0 -10.3 44.9 -10.3 44.65 -10.35 Q44.25 -10.45 44.35 -10.65 L44.35 -10.7 44.3 -10.7 43.95 -10.8 Q43.85 -10.8 43.85 -10.85 43.8 -10.9 43.8 -10.95 43.9 -11.45 44.05 -11.45 L44.1 -11.4 Q44.15 -11.55 44.3 -11.6 L44.35 -11.6 M42.35 -12.85 Q42.45 -12.65 42.4 -12.5 L42.9 -12.55 42.9 -12.9 42.75 -12.95 42.7 -12.8 Q42.8 -12.7 42.55 -12.7 L42.25 -12.95 42.35 -12.85 M42.05 -13.7 L42.05 -13.8 Q42.0 -13.85 41.8 -13.95 L41.4 -14.1 41.35 -14.1 41.35 -14.05 41.4 -13.9 41.15 -13.8 40.8 -13.6 Q41.0 -13.55 41.0 -13.5 L41.9 -13.3 42.1 -13.1 42.0 -13.35 Q41.45 -13.5 41.25 -13.55 L41.15 -13.6 Q41.35 -13.75 41.55 -13.95 41.85 -13.75 42.05 -13.7 M45.5 -10.9 L45.4 -10.95 45.4 -10.8 45.6 -10.7 45.45 -10.55 44.85 -10.6 44.45 -10.6 Q44.45 -10.55 44.7 -10.5 L44.95 -10.45 45.4 -10.5 Q45.65 -10.5 45.7 -10.65 L45.7 -10.8 45.5 -10.9 M44.3 -11.45 Q44.25 -11.45 44.25 -11.4 L44.85 -11.25 44.9 -11.3 Q44.9 -11.35 44.3 -11.45 M44.1 -11.3 Q44.0 -11.3 43.95 -10.9 L44.35 -10.85 44.4 -10.85 Q44.35 -10.9 44.1 -11.05 L44.15 -11.15 Q44.15 -11.25 44.1 -11.3 M46.75 -11.3 Q46.75 -11.5 47.15 -11.45 47.2 -11.4 47.25 -11.35 47.35 -11.25 47.3 -11.1 L47.25 -11.0 47.15 -10.9 47.0 -10.9 Q46.95 -10.9 46.9 -10.95 L46.75 -11.2 46.75 -11.3 M47.15 -11.15 Q47.15 -11.2 47.15 -11.3 L46.9 -11.25 47.05 -11.05 47.15 -11.15" fill="#ffffff" fill-opacity="0.5019608" fill-rule="evenodd" stroke="none"/>
    <path d="M39.75 -14.4 L39.9 -14.35 Q40.25 -14.3 40.25 -14.2 L40.2 -14.15 Q39.85 -14.25 39.7 -14.3 L39.75 -14.4 M44.1 -11.3 Q44.15 -11.25 44.15 -11.15 L44.1 -11.05 Q44.35 -10.9 44.4 -10.85 L44.35 -10.85 43.95 -10.9 Q44.0 -11.3 44.1 -11.3 M44.3 -11.45 Q44.9 -11.35 44.9 -11.3 L44.85 -11.25 44.25 -11.4 Q44.25 -11.45 44.3 -11.45 M45.5 -10.9 L45.7 -10.8 45.7 -10.65 Q45.65 -10.5 45.4 -10.5 L44.95 -10.45 44.7 -10.5 Q44.45 -10.55 44.45 -10.6 L44.85 -10.6 45.45 -10.55 45.6 -10.7 45.4 -10.8 45.4 -10.95 45.5 -10.9 M42.05 -13.7 Q41.85 -13.75 41.55 -13.95 41.35 -13.75 41.15 -13.6 L41.25 -13.55 Q41.45 -13.5 42.0 -13.35 L42.1 -13.1 41.9 -13.3 41.0 -13.5 Q41.0 -13.55 40.8 -13.6 L41.15 -13.8 41.4 -13.9 41.35 -14.05 41.35 -14.1 41.4 -14.1 41.8 -13.95 Q42.0 -13.85 42.05 -13.8 L42.05 -13.7 M42.35 -12.85 L42.25 -12.95 42.55 -12.7 Q42.8 -12.7 42.7 -12.8 L42.75 -12.95 42.9 -12.9 42.9 -12.55 42.4 -12.5 Q42.45 -12.65 42.35 -12.85 M47.15 -11.15 L47.05 -11.05 46.9 -11.25 47.15 -11.3 Q47.15 -11.2 47.15 -11.15" fill="#ffffff" fill-rule="evenodd" stroke="none"/>
    <path d="M-47.25 -14.25 L-47.15 -14.2 Q-47.05 -14.15 -47.05 -14.1 L-47.05 -14.0 -46.95 -13.9 Q-46.75 -13.8 -46.6 -13.7 L-46.55 -13.65 -46.55 -13.55 -46.65 -13.5 Q-46.75 -13.45 -46.75 -13.5 -46.75 -13.45 -46.75 -13.4 L-46.85 -13.35 -47.7 -13.15 -47.9 -13.0 Q-47.9 -12.95 -48.0 -12.95 L-48.0 -12.9 -48.05 -12.8 Q-48.15 -12.65 -48.15 -12.55 L-48.15 -12.45 -48.2 -12.4 -48.8 -12.4 -48.9 -12.5 -48.9 -12.9 -48.85 -13.0 -48.8 -13.05 -48.5 -13.05 -48.45 -12.95 -48.45 -12.9 Q-48.35 -12.95 -48.2 -13.05 L-48.15 -13.1 -48.1 -13.1 -48.1 -13.2 Q-48.0 -13.3 -48.0 -13.4 L-47.9 -13.5 -47.3 -13.65 -47.45 -13.75 Q-47.7 -13.6 -47.9 -13.55 L-48.0 -13.6 -48.05 -13.65 -48.05 -13.75 -48.0 -13.85 -48.0 -13.9 Q-47.95 -13.95 -47.7 -14.05 -47.5 -14.2 -47.3 -14.25 L-47.25 -14.25 M-46.7 -13.6 L-47.0 -13.8 -47.3 -13.9 -47.2 -14.05 -47.25 -14.1 -47.65 -13.95 -47.9 -13.8 -47.9 -13.7 Q-47.7 -13.75 -47.4 -13.95 L-47.0 -13.6 -47.1 -13.55 -47.85 -13.35 -48.0 -13.1 -47.75 -13.3 -46.85 -13.5 -46.7 -13.6 M-48.75 -12.9 L-48.75 -12.55 -48.3 -12.5 Q-48.3 -12.65 -48.2 -12.85 L-48.15 -12.95 -48.4 -12.7 Q-48.65 -12.7 -48.55 -12.8 L-48.6 -12.95 -48.75 -12.9 M-51.7 -10.8 L-51.7 -10.85 Q-51.65 -11.0 -51.55 -10.95 L-51.45 -11.0 -51.3 -11.1 -51.2 -11.05 Q-51.15 -11.0 -51.1 -10.95 L-51.1 -10.8 Q-51.1 -10.75 -51.1 -10.7 L-50.7 -10.75 -50.35 -10.75 -50.4 -10.8 -50.4 -10.9 Q-50.4 -11.0 -50.1 -11.1 L-50.15 -11.1 -50.15 -11.25 -50.7 -11.1 -50.75 -11.1 -50.8 -11.15 -50.9 -11.2 -50.9 -11.3 Q-50.9 -11.45 -50.2 -11.6 L-50.15 -11.6 Q-50.0 -11.55 -50.0 -11.4 L-49.9 -11.45 Q-49.75 -11.45 -49.65 -10.95 -49.65 -10.9 -49.7 -10.85 L-49.8 -10.8 -50.15 -10.7 -50.2 -10.7 -50.2 -10.65 Q-50.1 -10.45 -50.5 -10.35 L-50.75 -10.3 -50.85 -10.3 -51.3 -10.35 Q-51.65 -10.35 -51.7 -10.6 L-51.7 -10.8 M-51.55 -10.65 Q-51.55 -10.5 -51.3 -10.5 L-50.8 -10.45 -50.55 -10.5 Q-50.3 -10.55 -50.35 -10.6 L-50.7 -10.6 -51.3 -10.55 -51.45 -10.7 -51.25 -10.8 -51.25 -10.95 -51.55 -10.8 -51.55 -10.65 M-50.7 -11.25 L-50.1 -11.4 Q-50.1 -11.45 -50.2 -11.45 -50.75 -11.35 -50.75 -11.3 L-50.7 -11.25 M-50.0 -11.15 L-49.95 -11.05 Q-50.2 -10.9 -50.25 -10.85 L-50.2 -10.85 -49.8 -10.9 Q-49.85 -11.3 -49.95 -11.3 -50.0 -11.25 -50.0 -11.15 M-53.1 -11.0 L-53.15 -11.1 Q-53.2 -11.25 -53.1 -11.35 L-53.0 -11.45 Q-52.6 -11.5 -52.6 -11.3 L-52.65 -11.2 -52.75 -10.95 -52.85 -10.9 -53.0 -10.9 -53.1 -11.0 M-52.9 -11.05 L-52.75 -11.25 -53.0 -11.3 Q-53.05 -11.2 -53.0 -11.15 L-52.9 -11.05 M-46.05 -14.15 Q-45.75 -14.25 -45.55 -14.3 L-45.6 -14.4 -45.75 -14.35 Q-46.1 -14.3 -46.1 -14.2 L-46.05 -14.15 M-46.25 -14.15 L-46.25 -14.25 Q-46.25 -14.4 -45.8 -14.5 L-45.5 -14.5 Q-45.45 -14.45 -45.45 -14.4 L-45.45 -14.25 Q-45.45 -14.2 -45.5 -14.2 -45.7 -14.1 -46.05 -14.05 L-46.15 -14.05 -46.25 -14.15" fill="#ffffff" fill-opacity="0.5019608" fill-rule="evenodd" stroke="none"/>
    <path d="M-48.75 -12.9 L-48.6 -12.95 -48.55 -12.8 Q-48.65 -12.7 -48.4 -12.7 L-48.15 -12.95 -48.2 -12.85 Q-48.3 -12.65 -48.3 -12.5 L-48.75 -12.55 -48.75 -12.9 M-46.7 -13.6 L-46.85 -13.5 -47.75 -13.3 -48.0 -13.1 -47.85 -13.35 -47.1 -13.55 -47.0 -13.6 -47.4 -13.95 Q-47.7 -13.75 -47.9 -13.7 L-47.9 -13.8 -47.65 -13.95 -47.25 -14.1 -47.2 -14.05 -47.3 -13.9 -47.0 -13.8 -46.7 -13.6 M-50.0 -11.15 Q-50.0 -11.25 -49.95 -11.3 -49.85 -11.3 -49.8 -10.9 L-50.2 -10.85 -50.25 -10.85 Q-50.2 -10.9 -49.95 -11.05 L-50.0 -11.15 M-50.7 -11.25 L-50.75 -11.3 Q-50.75 -11.35 -50.2 -11.45 -50.1 -11.45 -50.1 -11.4 L-50.7 -11.25 M-51.55 -10.65 L-51.55 -10.8 -51.25 -10.95 -51.25 -10.8 -51.45 -10.7 -51.3 -10.55 -50.7 -10.6 -50.35 -10.6 Q-50.3 -10.55 -50.55 -10.5 L-50.8 -10.45 -51.3 -10.5 Q-51.55 -10.5 -51.55 -10.65 M-46.05 -14.15 L-46.1 -14.2 Q-46.1 -14.3 -45.75 -14.35 L-45.6 -14.4 -45.55 -14.3 Q-45.75 -14.25 -46.05 -14.15 M-52.9 -11.05 L-53.0 -11.15 Q-53.05 -11.2 -53.0 -11.3 L-52.75 -11.25 -52.9 -11.05" fill="#ffffff" fill-rule="evenodd" stroke="none"/>
  </g>
</svg>
