<?xml version="1.0" encoding="UTF-8" standalone="no"?>
<svg xmlns:ffdec="https://www.free-decompiler.com/flash" xmlns:xlink="http://www.w3.org/1999/xlink" ffdec:objectType="shape" height="59.35px" width="85.9px" xmlns="http://www.w3.org/2000/svg">
  <g transform="matrix(1.0, 0.0, 0.0, 1.0, 40.3, 51.35)">
    <path d="M23.4 -29.75 Q23.65 -29.7 23.65 -29.65 23.7 -29.55 23.7 -29.3 L23.7 -29.0 23.65 -28.95 23.65 -28.9 23.6 -28.85 Q22.75 -28.6 22.6 -28.25 22.55 -28.15 22.55 -28.05 L22.55 -27.8 22.5 -27.75 22.4 -27.7 Q22.2 -27.75 22.15 -27.8 22.1 -27.85 22.1 -28.2 22.1 -28.65 22.5 -28.8 L23.3 -29.2 Q23.3 -29.25 23.15 -29.25 23.15 -29.3 23.1 -29.3 L23.05 -29.35 23.1 -29.45 Q23.25 -29.7 23.35 -29.75 L23.4 -29.75 M13.25 -44.6 L13.3 -44.55 13.3 -44.45 13.1 -44.3 12.8 -44.05 12.75 -44.0 12.7 -44.0 12.5 -44.1 12.45 -44.1 12.4 -44.2 12.45 -44.25 Q12.5 -44.4 12.8 -44.55 13.05 -44.65 13.2 -44.65 L13.25 -44.6 M20.65 -42.65 L21.15 -42.85 21.45 -43.0 21.5 -43.0 21.6 -42.95 21.6 -42.8 Q21.5 -42.65 21.4 -42.55 21.25 -42.4 21.0 -42.35 L21.05 -42.2 21.1 -41.85 Q21.1 -41.55 20.8 -41.1 20.55 -40.75 20.55 -40.6 L20.95 -40.2 20.95 -40.15 20.9 -40.05 20.4 -40.05 20.35 -40.1 20.3 -40.1 20.25 -40.25 20.2 -40.25 Q20.15 -40.4 20.15 -40.65 20.15 -40.9 20.35 -41.25 L20.6 -41.65 Q20.65 -41.85 20.6 -42.1 L20.6 -42.65 20.65 -42.65 M2.85 -44.35 L3.05 -44.45 3.05 -44.5 3.1 -44.45 3.1 -44.5 3.2 -44.6 Q3.7 -44.55 3.85 -44.4 L3.9 -44.4 3.95 -44.3 3.95 -44.2 3.8 -44.05 3.35 -44.05 Q2.85 -44.1 2.85 -44.2 L2.85 -44.35 M9.25 -47.75 L9.25 -47.75 M9.75 -47.0 L9.85 -47.1 9.8 -46.9 9.8 -46.95 9.75 -47.0 M9.4 -46.85 L9.4 -46.8 9.35 -46.85 9.4 -46.85 M8.9 -46.75 L8.9 -46.75 M9.9 -46.65 L9.9 -46.75 10.05 -46.65 10.0 -46.6 9.9 -46.55 9.9 -46.65 M10.1 -46.35 L10.0 -46.35 Q10.15 -46.4 10.1 -46.35 L10.2 -46.3 10.1 -46.3 10.1 -46.35 M10.25 -47.15 L10.3 -47.2 10.3 -47.1 10.2 -47.15 10.25 -47.15 M10.35 -46.9 L10.35 -46.85 10.45 -46.95 10.45 -46.9 10.4 -46.85 10.45 -46.85 10.45 -46.75 10.4 -46.85 10.3 -46.8 10.35 -46.85 10.35 -46.9 M10.6 -46.1 L10.55 -46.1 10.55 -46.15 Q10.65 -46.1 10.6 -46.1 M7.45 -47.3 L7.6 -47.3 7.45 -47.2 7.45 -47.15 7.4 -47.15 7.35 -47.1 Q7.3 -47.15 7.3 -47.2 L7.35 -47.3 7.45 -47.3 M9.7 -44.35 L9.8 -44.35 10.1 -44.2 10.4 -43.9 Q10.4 -43.65 10.2 -43.65 L10.15 -43.65 9.85 -43.75 9.8 -43.8 9.8 -43.85 9.7 -44.0 Q9.6 -44.2 9.6 -44.25 L9.7 -44.35 M21.4 -40.15 Q21.45 -40.3 21.8 -40.45 L22.1 -40.55 22.15 -40.55 22.6 -40.5 22.65 -40.5 22.7 -40.45 22.75 -40.3 22.75 -39.8 22.7 -39.75 22.7 -39.7 22.65 -39.65 22.5 -39.65 Q22.45 -39.65 22.4 -39.7 L22.4 -40.1 22.15 -40.05 21.8 -39.85 21.7 -39.85 21.6 -39.9 21.55 -39.9 Q21.4 -39.95 21.4 -40.05 L21.35 -40.1 21.4 -40.15 M17.85 -36.55 L17.3 -36.5 Q17.15 -36.35 17.2 -36.3 L17.2 -36.1 Q17.1 -36.0 16.8 -36.0 L16.75 -36.05 Q16.7 -36.05 16.7 -36.1 L16.65 -36.3 16.65 -36.35 16.7 -36.55 16.8 -36.65 Q16.85 -36.7 17.15 -36.85 17.35 -36.95 17.55 -37.0 17.6 -37.15 17.45 -37.4 17.25 -37.7 16.8 -37.7 L16.75 -37.7 16.7 -37.75 16.65 -37.9 16.65 -38.0 Q16.7 -38.1 16.9 -38.2 L17.1 -38.35 17.2 -38.35 17.25 -38.3 17.75 -37.55 Q18.05 -37.05 18.05 -36.7 L18.0 -36.65 17.95 -36.55 Q17.9 -36.55 17.85 -36.55 M16.15 -38.3 L16.15 -38.2 15.95 -38.1 15.65 -38.0 15.45 -37.8 Q15.8 -37.7 15.95 -37.5 L15.95 -37.35 15.9 -37.35 15.15 -37.4 Q15.1 -37.4 15.1 -37.45 L15.05 -37.45 15.05 -37.5 15.0 -37.55 15.0 -37.85 15.3 -38.15 Q15.5 -38.45 15.55 -38.6 L15.55 -38.7 15.6 -38.75 15.65 -38.75 Q15.8 -38.7 15.95 -38.55 L16.1 -38.35 16.15 -38.3 M16.8 -35.6 L16.9 -35.7 17.05 -35.7 17.15 -35.65 17.25 -35.65 Q17.4 -35.65 17.4 -35.3 17.4 -35.1 17.3 -34.9 L17.15 -34.7 17.15 -34.65 17.1 -34.65 16.75 -34.45 Q16.55 -34.3 16.4 -34.3 16.35 -34.3 16.35 -34.35 L16.3 -34.4 16.3 -34.5 Q16.5 -34.8 16.85 -35.0 16.95 -35.2 16.8 -35.55 L16.8 -35.6 M22.75 -27.5 L22.75 -27.55 Q22.85 -27.75 23.15 -27.65 L23.25 -27.65 23.4 -27.4 23.45 -27.35 23.4 -27.25 23.35 -27.2 23.25 -27.15 Q22.95 -27.15 22.8 -27.4 L22.75 -27.5 M22.55 -3.7 L22.4 -3.7 22.4 -3.85 Q22.9 -4.9 23.75 -4.45 L23.8 -4.4 23.8 -4.35 Q23.85 -4.2 23.8 -3.85 L23.7 -3.25 Q23.7 -3.1 23.8 -2.85 L23.9 -2.45 Q24.45 -2.45 24.6 -2.3 L24.6 -2.25 24.65 -2.15 24.65 -2.1 24.6 -2.05 24.5 -2.0 24.25 -2.05 24.2 -2.0 23.75 -2.0 Q23.7 -2.0 23.65 -2.0 L23.6 -2.1 23.5 -3.0 Q23.45 -3.65 23.5 -4.0 L22.95 -3.9 22.55 -3.7 M35.4 -24.0 L35.45 -23.95 35.55 -23.75 35.65 -23.4 35.65 -23.35 Q35.6 -23.2 35.4 -23.15 L35.3 -23.15 35.25 -23.2 35.25 -23.25 35.15 -23.55 35.15 -23.65 34.85 -23.55 34.45 -23.4 34.5 -23.05 Q34.5 -22.75 34.45 -22.65 34.35 -22.25 33.75 -22.3 L33.6 -22.35 33.4 -22.2 Q33.15 -22.05 33.05 -22.2 L33.05 -22.3 Q33.15 -22.5 33.25 -22.6 L33.35 -22.65 Q33.3 -22.7 33.3 -22.8 L33.4 -22.9 Q33.5 -22.95 33.75 -22.75 34.05 -22.8 34.2 -22.85 34.25 -22.9 34.25 -23.0 34.2 -23.2 34.0 -23.55 L33.95 -23.6 33.95 -23.65 Q34.0 -23.75 34.15 -23.8 L34.6 -23.85 34.75 -23.95 34.8 -24.0 34.8 -24.05 35.35 -24.05 35.4 -24.0 M38.9 -18.6 L38.85 -18.65 38.85 -18.75 Q38.8 -18.85 39.05 -19.0 L39.2 -19.0 39.2 -19.05 39.3 -19.15 Q40.0 -19.05 40.05 -18.85 L40.05 -18.8 39.95 -18.1 Q39.9 -17.6 39.55 -17.4 L39.5 -17.35 39.05 -17.3 Q38.95 -17.3 38.95 -17.2 L38.9 -17.15 38.95 -17.05 38.85 -16.95 Q38.7 -16.9 38.65 -16.9 38.4 -16.85 38.4 -17.25 38.4 -17.5 38.5 -17.6 L38.55 -17.6 38.65 -17.7 39.3 -17.75 39.4 -17.9 39.55 -18.15 39.55 -18.7 39.0 -18.6 38.9 -18.6 M34.95 -18.45 Q34.75 -18.35 34.7 -18.25 L34.65 -18.2 34.6 -18.2 34.5 -18.25 34.45 -18.3 Q34.4 -18.35 34.4 -18.4 L34.45 -18.45 34.7 -18.75 34.95 -18.95 35.0 -18.95 35.45 -18.9 35.55 -18.9 35.6 -18.8 Q35.6 -18.5 35.9 -17.65 36.15 -16.75 36.15 -16.6 36.2 -16.5 35.8 -16.05 L35.45 -15.65 Q35.45 -15.45 35.55 -15.3 L35.6 -15.1 36.0 -15.0 36.65 -14.85 Q36.8 -14.85 36.95 -14.95 L37.2 -15.1 Q37.15 -15.2 37.15 -15.4 37.15 -15.6 37.25 -15.85 L37.4 -16.15 37.45 -16.2 37.55 -16.25 37.6 -16.25 Q37.7 -16.3 37.8 -16.15 L37.8 -15.95 37.75 -15.4 37.65 -14.8 37.65 -14.75 37.55 -14.7 Q37.35 -14.65 37.2 -14.55 L37.0 -14.4 36.95 -14.4 36.25 -14.5 35.55 -14.7 35.5 -14.7 Q35.1 -15.0 35.1 -15.6 35.1 -15.7 35.4 -16.15 35.65 -16.55 35.65 -16.75 L35.25 -18.55 34.95 -18.45 M31.85 -27.3 L31.8 -27.15 Q32.1 -27.0 32.55 -26.95 L32.65 -26.9 32.65 -26.8 Q32.65 -26.7 32.55 -26.6 32.45 -26.5 32.35 -26.5 L31.75 -26.65 31.65 -26.7 31.65 -26.75 31.45 -26.8 31.4 -26.8 31.35 -26.9 Q31.35 -27.15 31.45 -27.35 31.55 -27.6 31.7 -27.65 L31.8 -27.6 31.85 -27.55 Q31.9 -27.45 31.85 -27.3 M28.85 -15.65 L29.25 -15.8 29.65 -15.9 29.8 -16.2 29.8 -16.25 Q29.8 -16.55 29.85 -16.6 29.95 -16.65 30.0 -16.55 L30.15 -16.55 30.3 -16.45 30.3 -16.4 Q30.4 -16.3 30.4 -16.05 30.45 -15.95 30.3 -15.7 30.15 -15.5 29.95 -15.35 29.95 -15.3 29.9 -15.3 L29.35 -15.25 29.05 -15.15 29.25 -15.05 29.25 -15.0 29.2 -14.9 Q29.15 -14.85 28.95 -14.8 L28.7 -14.8 Q28.55 -14.8 28.55 -15.15 28.55 -15.4 28.65 -15.5 L28.8 -15.65 28.85 -15.65 M33.8 -17.95 Q33.8 -17.8 33.65 -17.6 L33.6 -17.6 33.45 -17.4 33.4 -17.35 33.15 -17.35 Q33.1 -17.4 33.05 -17.4 L33.05 -17.55 33.25 -17.8 Q33.45 -18.0 33.6 -18.1 L33.7 -18.1 33.75 -18.05 33.8 -17.95 M26.05 -3.9 L26.05 -3.1 Q25.95 -2.95 25.8 -3.1 L25.6 -3.15 25.45 -3.15 25.3 -2.85 25.35 -2.7 25.5 -2.5 25.5 -2.35 25.35 -2.35 Q25.15 -2.45 25.0 -2.7 24.85 -2.9 24.85 -3.05 L25.2 -3.4 Q25.3 -3.55 25.35 -3.55 L25.7 -3.6 Q25.7 -3.65 25.7 -3.75 25.7 -4.45 25.35 -4.85 24.65 -5.45 24.05 -6.15 L24.05 -6.25 24.25 -6.55 24.55 -6.9 24.65 -6.9 Q24.8 -6.9 24.95 -6.75 L25.2 -6.55 25.25 -6.5 25.25 -6.45 25.2 -6.35 24.95 -6.35 24.7 -6.4 24.55 -6.4 24.55 -6.3 Q25.1 -5.8 25.55 -5.2 25.85 -4.85 25.9 -4.55 25.95 -4.2 26.05 -3.95 L26.05 -3.9 M11.6 4.9 L11.6 4.85 11.65 4.8 11.75 4.75 11.9 4.75 Q12.0 4.85 12.05 5.0 L12.1 5.25 12.05 5.35 12.0 5.4 Q11.3 5.65 11.05 5.85 10.85 6.0 10.85 6.3 10.85 6.55 10.95 6.7 11.0 6.75 11.2 6.85 12.05 7.2 12.5 7.45 L12.7 7.45 12.65 7.15 Q12.55 6.85 12.55 6.6 12.55 6.55 12.6 6.55 L12.65 6.5 12.9 6.45 12.85 6.45 13.1 6.4 13.2 6.35 13.35 6.4 Q13.55 6.45 13.6 6.55 L13.6 6.65 13.55 6.7 13.15 6.8 12.95 6.9 Q13.05 7.2 13.2 7.4 L13.2 7.5 Q13.15 7.6 12.95 7.8 L12.85 7.9 Q12.7 8.0 12.45 8.0 12.4 8.0 11.8 7.65 L11.1 7.25 11.05 7.2 Q10.65 6.9 10.55 6.7 10.5 6.55 10.5 6.25 10.5 5.7 10.55 5.6 10.8 5.2 11.65 5.05 11.6 4.95 11.6 4.9 M14.45 5.55 Q14.35 5.45 14.55 5.4 L14.75 5.4 Q14.85 5.35 15.2 5.75 15.4 6.0 15.5 6.0 15.7 6.0 15.85 5.75 15.95 5.5 16.0 5.35 16.0 5.25 15.9 5.15 15.7 5.0 15.7 4.85 L15.7 4.8 15.8 4.75 15.95 4.7 16.0 4.7 16.5 5.2 16.55 5.3 Q16.55 5.75 15.9 6.4 L15.8 6.45 15.4 6.45 Q15.15 6.4 14.95 6.2 L14.75 5.95 14.6 6.15 Q14.45 6.4 14.4 6.6 L14.35 6.7 13.9 6.7 13.8 6.6 Q13.8 6.55 13.85 6.5 L14.2 6.05 Q14.4 5.8 14.45 5.6 L14.45 5.55 M-4.75 -50.65 L-6.15 -50.05 Q-6.15 -50.0 -6.2 -50.0 -6.25 -50.0 -6.3 -50.05 L-6.35 -50.15 -6.4 -50.2 -6.4 -50.25 Q-6.1 -50.75 -5.45 -51.0 -4.6 -51.25 -3.9 -50.6 -3.75 -50.5 -3.65 -50.15 -3.55 -49.85 -3.45 -49.7 -3.1 -49.15 -1.9 -49.1 L-1.8 -49.05 Q-1.75 -49.0 -1.55 -48.5 -1.3 -48.0 -1.3 -47.8 L-1.3 -47.65 -1.35 -47.6 Q-1.4 -47.5 -1.45 -47.55 L-1.5 -47.6 -1.55 -47.6 Q-1.8 -47.65 -1.95 -48.1 L-2.1 -48.7 Q-3.35 -48.8 -3.8 -49.4 -4.0 -49.65 -4.2 -50.35 L-4.5 -50.55 Q-4.65 -50.65 -4.75 -50.65 M-3.6 -50.75 L-3.65 -50.8 -3.6 -50.9 -3.6 -50.95 -2.95 -51.3 -2.9 -51.35 -2.8 -51.3 Q-2.5 -51.0 -1.85 -49.65 L-1.85 -49.55 Q-1.9 -49.45 -2.0 -49.4 L-2.1 -49.4 -2.35 -49.45 -2.4 -49.5 -2.4 -49.85 Q-2.4 -50.1 -2.6 -50.35 -2.8 -50.75 -3.15 -50.7 L-3.2 -50.7 -3.55 -50.75 -3.6 -50.75 M-13.85 -47.05 L-13.75 -47.0 -13.25 -46.6 -13.25 -46.45 -13.35 -46.45 -13.75 -46.4 Q-13.85 -46.4 -13.85 -46.35 L-13.95 -46.25 -14.0 -46.25 Q-14.15 -46.2 -14.15 -46.6 -14.15 -46.85 -14.05 -46.95 L-13.85 -47.05 M-14.1 -46.0 L-14.1 -45.9 Q-14.1 -45.85 -14.15 -45.7 L-14.2 -45.6 -14.2 -45.55 -13.75 -45.45 -13.35 -45.35 -13.3 -45.3 Q-13.2 -45.2 -13.15 -45.05 -13.1 -44.9 -13.1 -44.8 L-13.1 -44.75 -13.3 -44.55 -13.3 -44.5 -14.0 -44.5 -14.0 -44.6 Q-14.05 -44.7 -13.7 -44.85 L-13.55 -44.9 -13.55 -45.0 -13.95 -45.1 -14.45 -45.2 -14.55 -45.2 -14.55 -45.3 Q-14.55 -45.55 -14.5 -45.75 -14.4 -46.0 -14.25 -46.05 L-14.15 -46.05 -14.1 -46.0 M-12.4 -46.75 L-12.35 -46.7 Q-12.0 -46.6 -12.0 -46.45 L-12.0 -46.3 -12.1 -46.25 -12.1 -46.2 -12.2 -46.2 -12.65 -46.3 -12.75 -46.35 -12.75 -46.4 Q-12.75 -46.6 -12.65 -46.65 L-12.4 -46.75 M-14.5 -41.55 Q-14.7 -41.3 -14.8 -40.8 L-14.85 -40.75 -14.95 -40.7 -15.55 -40.75 -15.6 -40.75 -15.7 -40.8 -16.0 -40.9 -16.05 -40.9 -16.05 -40.95 -16.25 -41.4 Q-16.35 -41.6 -16.35 -41.85 -16.35 -42.15 -16.3 -42.15 -16.15 -42.25 -16.1 -42.0 -15.9 -41.8 -15.85 -41.65 -15.8 -41.5 -15.85 -41.35 L-15.65 -41.25 -15.45 -41.1 -15.1 -41.15 Q-15.05 -41.65 -14.65 -41.75 L-14.6 -41.75 -14.5 -41.65 -14.5 -41.55 M-15.25 -37.35 L-15.5 -37.35 Q-15.85 -37.4 -15.9 -37.5 L-15.9 -37.6 Q-15.85 -37.9 -15.15 -37.85 L-15.05 -37.85 -15.05 -37.8 -15.0 -37.75 -15.05 -37.55 Q-15.05 -37.5 -15.1 -37.45 L-15.2 -37.35 -15.25 -37.35 M-16.15 -37.6 L-16.15 -37.45 -16.2 -37.45 -16.6 -37.35 Q-16.7 -37.25 -16.7 -37.05 L-16.7 -36.7 -16.75 -36.65 -16.85 -36.6 -17.1 -36.6 -17.2 -36.7 -17.2 -36.75 -17.25 -37.1 Q-17.25 -37.35 -16.8 -37.75 L-16.7 -37.75 Q-16.2 -37.75 -16.15 -37.6 M-38.0 -28.9 L-37.7 -28.25 -37.7 -28.15 -38.05 -28.15 Q-38.2 -28.25 -38.4 -28.25 -38.5 -28.25 -38.85 -28.05 L-38.65 -28.05 -38.6 -28.0 -38.6 -27.9 Q-38.6 -27.65 -38.5 -27.35 L-38.25 -26.85 -38.3 -26.8 -39.05 -26.25 Q-39.25 -26.05 -39.4 -25.65 L-39.4 -25.6 Q-39.45 -25.6 -39.45 -25.55 L-39.65 -25.55 -39.75 -25.6 -39.8 -25.45 Q-39.8 -25.25 -39.7 -25.1 L-39.6 -24.9 Q-39.15 -24.85 -39.1 -24.75 L-39.1 -24.65 -39.15 -24.6 -39.4 -24.5 -39.6 -24.45 -39.65 -24.4 -39.7 -24.4 -39.9 -24.45 -40.0 -24.45 -40.0 -24.55 Q-40.0 -24.7 -40.1 -24.95 -40.15 -25.3 -40.15 -25.5 -40.15 -25.6 -40.0 -25.9 -39.8 -26.25 -39.6 -26.35 L-39.5 -26.4 Q-39.25 -26.65 -38.8 -26.85 L-38.8 -26.95 -38.95 -27.2 Q-39.05 -27.35 -39.05 -27.6 L-39.05 -27.95 -39.25 -27.8 Q-39.9 -27.4 -39.95 -27.3 -39.95 -27.15 -39.8 -26.9 -39.65 -26.6 -39.65 -26.5 L-39.65 -26.45 -39.75 -26.4 -39.9 -26.35 -39.95 -26.35 -40.0 -26.4 -40.0 -26.5 Q-40.05 -26.6 -40.15 -26.85 -40.3 -27.15 -40.3 -27.35 -40.35 -27.75 -39.1 -28.3 L-38.7 -28.65 Q-38.25 -28.95 -38.1 -28.95 L-38.05 -28.95 -38.0 -28.9 M-29.85 -33.6 Q-29.5 -33.55 -29.35 -33.45 -29.15 -33.3 -29.0 -33.05 L-29.0 -32.95 Q-29.0 -32.9 -29.05 -32.9 L-29.15 -32.85 -29.2 -32.85 Q-29.2 -32.75 -29.3 -32.75 L-29.45 -32.8 -29.7 -32.75 Q-29.95 -32.6 -30.1 -32.3 L-30.3 -31.8 Q-30.6 -31.3 -31.25 -31.45 L-31.75 -31.5 -31.8 -31.5 -31.85 -31.55 -31.85 -31.5 -32.1 -31.5 -32.15 -31.55 Q-32.2 -31.75 -32.15 -32.1 -32.2 -32.25 -32.7 -32.2 L-32.75 -32.2 -32.8 -32.25 -32.8 -32.35 Q-33.0 -32.4 -33.05 -32.45 -33.1 -32.45 -33.15 -32.55 L-33.15 -32.6 -33.2 -32.65 -33.3 -32.55 -33.55 -32.5 -33.55 -31.65 Q-33.55 -31.6 -33.6 -31.6 L-33.65 -31.5 Q-33.7 -31.5 -33.75 -31.5 L-33.85 -31.5 -33.9 -31.6 -33.95 -31.65 -33.95 -32.8 -33.75 -33.0 Q-33.55 -33.05 -33.35 -33.05 -33.1 -33.05 -32.85 -32.9 L-32.65 -32.7 -31.25 -32.7 -30.65 -33.15 Q-30.05 -33.55 -29.9 -33.6 L-29.85 -33.6 M-29.1 -34.35 L-29.05 -34.3 -28.8 -34.1 -28.75 -34.05 -28.75 -33.85 Q-28.8 -33.7 -28.9 -33.65 L-28.95 -33.6 -29.25 -33.6 Q-29.3 -33.6 -29.35 -33.65 L-29.35 -33.7 Q-29.35 -33.9 -29.45 -34.1 L-29.45 -34.15 -29.4 -34.25 -29.3 -34.35 -29.1 -34.35 M-31.25 -32.3 L-31.9 -32.3 -31.8 -31.75 -31.7 -31.8 Q-30.85 -32.0 -30.5 -32.45 L-30.25 -32.8 -30.2 -32.8 -30.0 -33.05 Q-30.2 -32.95 -30.6 -32.7 -31.2 -32.25 -31.25 -32.3 M-24.35 -33.65 Q-24.45 -33.6 -24.7 -33.75 -24.9 -33.85 -25.3 -33.75 L-25.35 -33.75 -25.55 -33.85 -25.65 -33.95 -25.6 -34.0 Q-25.4 -34.25 -24.9 -34.45 L-23.65 -34.45 -23.45 -34.4 -23.4 -34.4 -23.35 -34.35 -23.35 -34.25 Q-23.4 -34.15 -23.55 -34.0 L-23.6 -34.0 Q-23.8 -33.95 -23.95 -33.8 -24.15 -33.65 -24.35 -33.65 M-26.0 -33.6 Q-26.0 -33.45 -26.05 -33.25 L-26.15 -32.95 -26.15 -32.9 -26.25 -32.85 -26.35 -32.85 -26.45 -32.9 -26.45 -33.0 Q-26.45 -33.25 -26.35 -33.45 -26.25 -33.7 -26.15 -33.7 L-26.0 -33.7 -26.0 -33.6 M-29.3 -20.65 L-28.75 -20.6 -28.65 -20.6 -28.05 -19.5 Q-27.45 -18.4 -27.45 -18.3 -27.45 -16.7 -27.7 -16.1 -27.95 -15.55 -28.65 -15.4 L-30.1 -15.1 Q-31.05 -14.8 -31.9 -14.15 L-32.0 -14.15 -32.1 -14.2 -32.1 -14.25 -32.05 -14.35 -32.05 -14.4 Q-30.75 -15.45 -28.35 -16.0 -27.85 -16.3 -27.85 -17.3 -27.85 -17.9 -28.2 -18.65 L-28.85 -20.15 -31.1 -19.6 Q-31.2 -19.6 -31.2 -19.55 -31.15 -19.3 -31.15 -19.15 -31.1 -19.0 -31.5 -18.65 L-31.9 -18.25 -32.0 -18.2 -32.05 -18.2 -32.1 -18.25 -32.15 -18.35 Q-32.1 -18.5 -31.7 -19.05 L-31.65 -19.05 Q-31.55 -19.25 -31.6 -19.4 -31.65 -19.5 -31.8 -19.6 L-31.85 -19.65 -31.85 -19.9 -31.8 -20.0 -31.75 -20.0 Q-31.7 -20.0 -31.65 -20.0 L-31.65 -19.9 Q-31.65 -19.95 -31.4 -19.95 -31.05 -19.95 -30.5 -20.15 L-29.35 -20.65 -29.3 -20.65 M-29.65 -18.1 Q-29.5 -18.0 -29.05 -17.45 L-29.0 -17.4 Q-29.0 -17.35 -29.05 -17.3 L-29.15 -17.2 -29.2 -17.2 Q-29.5 -17.3 -29.7 -17.55 -29.8 -17.7 -29.9 -17.7 L-31.1 -17.3 Q-32.3 -16.85 -32.55 -16.65 -32.7 -16.5 -32.75 -16.0 L-32.75 -15.0 -32.85 -14.9 -33.0 -14.9 -33.0 -14.95 -33.15 -15.15 Q-33.25 -15.35 -33.25 -15.6 -33.25 -16.15 -33.05 -16.65 -32.9 -17.15 -32.65 -17.2 L-32.6 -17.2 Q-32.2 -17.3 -31.7 -17.45 -31.15 -17.6 -30.75 -17.85 L-30.2 -18.2 Q-29.95 -18.3 -29.7 -18.1 L-29.65 -18.1 M-29.55 -14.2 L-29.45 -14.15 -29.45 -14.1 -29.5 -14.0 Q-29.8 -13.75 -30.45 -12.9 -31.2 -12.1 -32.1 -12.0 -32.5 -11.9 -33.5 -11.15 -34.45 -10.45 -34.45 -10.15 -34.45 -10.05 -34.25 -9.85 -33.95 -9.65 -33.7 -9.7 L-33.35 -9.7 Q-33.0 -9.65 -32.9 -9.6 L-32.85 -9.5 -32.9 -9.45 Q-32.9 -9.4 -32.95 -9.4 L-33.4 -9.15 Q-33.7 -9.0 -33.75 -9.0 -33.95 -9.0 -35.05 -10.0 L-35.05 -10.15 Q-34.85 -10.75 -34.2 -11.3 -33.4 -12.0 -32.25 -12.4 -31.4 -12.7 -30.7 -13.3 L-29.6 -14.2 -29.55 -14.2 M-27.25 -19.9 L-26.75 -19.8 -26.75 -19.75 Q-26.6 -19.6 -26.6 -19.45 L-26.65 -19.1 Q-26.65 -18.9 -26.5 -18.25 -26.35 -17.6 -26.35 -17.4 -26.35 -17.3 -26.5 -17.1 -26.7 -16.85 -26.95 -16.65 -27.0 -16.65 -27.05 -16.65 L-27.1 -16.65 -27.15 -16.75 -27.2 -16.9 -27.2 -16.95 -27.15 -17.0 -26.85 -17.2 Q-26.75 -17.3 -26.75 -17.4 -26.75 -17.6 -26.85 -18.35 L-26.95 -19.35 Q-26.95 -19.45 -27.1 -19.5 -27.45 -19.6 -27.6 -19.8 L-27.6 -19.9 -27.55 -20.05 -27.5 -20.15 -27.45 -20.15 Q-27.4 -20.15 -27.35 -20.1 L-27.35 -20.05 Q-27.35 -19.95 -27.25 -19.9 M-37.3 -17.85 L-36.85 -17.8 -36.75 -17.7 -36.75 -17.6 -36.8 -17.5 -37.3 -17.3 -37.35 -17.25 -37.85 -17.35 -37.9 -17.35 -37.95 -17.4 -38.05 -17.8 Q-38.1 -18.0 -38.25 -18.1 -38.6 -18.4 -39.6 -18.25 L-39.65 -18.3 -39.75 -18.3 -39.75 -18.45 -39.8 -18.8 Q-39.8 -19.15 -39.75 -19.2 -39.65 -19.5 -39.2 -19.35 L-39.15 -19.35 -39.15 -19.3 Q-39.1 -19.2 -39.2 -19.0 L-39.25 -18.9 Q-38.65 -18.9 -38.15 -18.55 -37.7 -18.25 -37.55 -17.8 L-37.3 -17.85 M-32.3 -14.0 L-32.25 -13.9 -32.3 -13.85 -32.5 -13.35 Q-32.7 -12.9 -32.7 -12.75 L-32.7 -12.7 Q-32.4 -12.7 -32.4 -12.6 L-32.4 -12.5 -32.45 -12.4 -32.5 -12.35 -32.6 -12.3 -32.8 -12.35 Q-33.1 -12.4 -33.15 -12.45 L-33.15 -12.55 Q-33.1 -13.3 -32.45 -13.95 L-32.4 -14.0 -32.3 -14.0 M-30.3 -9.4 Q-30.35 -9.35 -30.4 -9.35 L-30.8 -9.45 -31.35 -9.65 -31.4 -9.65 -31.45 -9.75 Q-31.45 -9.9 -31.0 -10.0 L-30.95 -10.05 -30.6 -10.0 -30.55 -10.0 -30.55 -9.95 -30.3 -9.65 -30.3 -9.4" fill="#00ffff" fill-opacity="0.5019608" fill-rule="evenodd" stroke="none"/>
    <path d="M23.2 -29.4 Q23.3 -29.6 23.4 -29.65 L23.55 -29.55 Q23.6 -29.5 23.6 -29.3 L23.6 -29.05 23.55 -28.95 Q22.65 -28.65 22.5 -28.3 22.4 -28.2 22.45 -28.05 L22.4 -27.85 Q22.25 -27.85 22.25 -27.9 22.2 -27.9 22.2 -28.2 22.2 -28.55 22.55 -28.7 23.35 -29.1 23.45 -29.15 23.45 -29.35 23.2 -29.4 M13.05 -44.4 L12.75 -44.1 12.55 -44.2 Q12.6 -44.35 12.85 -44.45 13.1 -44.55 13.2 -44.55 L13.05 -44.4 M21.5 -42.9 L21.3 -42.65 Q21.15 -42.45 20.85 -42.45 L20.95 -42.2 20.95 -41.85 Q20.95 -41.6 20.7 -41.2 20.4 -40.75 20.4 -40.6 20.4 -40.55 20.5 -40.5 L20.85 -40.2 20.75 -40.15 20.4 -40.2 20.3 -40.3 Q20.3 -40.4 20.3 -40.65 20.3 -40.9 20.45 -41.2 L20.7 -41.65 Q20.75 -41.8 20.75 -42.1 L20.7 -42.55 Q20.9 -42.65 21.2 -42.75 L21.5 -42.9 M3.1 -44.4 L3.2 -44.45 Q3.65 -44.45 3.8 -44.35 L3.85 -44.2 3.75 -44.15 3.35 -44.15 Q2.95 -44.2 2.95 -44.25 L3.1 -44.4 M9.65 -47.35 L9.3 -47.85 8.5 -47.9 Q8.1 -47.9 7.3 -47.2 L6.6 -46.5 6.4 -46.7 7.35 -47.4 Q7.9 -47.85 8.3 -47.95 9.3 -48.35 10.25 -47.05 L10.3 -47.05 10.3 -46.75 Q10.6 -46.65 10.75 -46.45 10.9 -46.3 10.9 -46.2 10.9 -45.65 10.65 -45.2 10.35 -44.55 9.75 -44.45 L10.45 -45.3 Q10.65 -45.65 10.65 -46.15 L10.4 -46.2 Q10.25 -46.25 10.2 -46.4 L10.05 -46.4 10.0 -46.45 10.0 -46.75 Q9.45 -46.4 9.4 -46.4 9.35 -46.4 8.9 -46.85 L7.95 -47.05 Q7.4 -47.15 7.4 -47.2 8.05 -47.2 8.75 -46.95 9.1 -46.85 9.35 -46.7 9.55 -46.7 9.7 -46.8 L9.9 -47.0 9.65 -47.35 M10.2 -43.75 L9.9 -43.9 9.8 -44.1 Q9.75 -44.2 9.75 -44.25 L10.05 -44.1 10.3 -43.9 Q10.3 -43.75 10.2 -43.75 M21.5 -40.1 Q21.55 -40.2 21.8 -40.3 L22.15 -40.45 22.6 -40.4 22.6 -40.3 22.65 -40.05 22.6 -39.85 22.6 -39.75 22.5 -39.75 22.5 -40.25 22.1 -40.15 21.75 -39.95 21.6 -40.0 Q21.5 -40.05 21.5 -40.1 M17.85 -36.65 L17.25 -36.6 Q16.95 -36.3 17.1 -36.2 17.05 -36.15 16.8 -36.15 L16.8 -36.55 17.2 -36.75 Q17.45 -36.85 17.65 -36.9 17.75 -37.15 17.55 -37.45 17.3 -37.8 16.8 -37.8 L16.8 -37.95 Q16.8 -38.0 16.95 -38.1 L17.15 -38.25 17.65 -37.5 Q17.95 -37.0 17.95 -36.7 L17.85 -36.65 M15.9 -38.2 L15.6 -38.1 15.35 -37.9 15.35 -37.7 Q15.7 -37.65 15.85 -37.45 L15.15 -37.5 15.15 -37.6 15.1 -37.85 15.4 -38.1 Q15.65 -38.4 15.65 -38.6 L15.85 -38.45 16.0 -38.3 15.9 -38.2 M17.2 -35.55 Q17.25 -35.55 17.25 -35.3 17.25 -35.1 17.2 -35.0 L17.05 -34.75 Q16.9 -34.7 16.7 -34.55 16.5 -34.45 16.4 -34.45 16.6 -34.7 16.9 -34.95 17.1 -35.15 16.9 -35.6 L17.05 -35.6 17.2 -35.55 M22.5 -3.8 Q22.95 -4.7 23.7 -4.35 23.7 -4.2 23.65 -3.85 L23.6 -3.25 Q23.6 -3.1 23.7 -2.8 23.8 -2.5 23.8 -2.35 24.4 -2.35 24.5 -2.25 L24.55 -2.15 24.25 -2.15 Q24.2 -2.15 24.1 -2.1 L23.75 -2.1 23.6 -3.05 Q23.55 -3.7 23.6 -4.05 L23.6 -4.15 Q23.2 -4.1 22.9 -4.0 L22.5 -3.8 M35.45 -23.7 L35.55 -23.4 Q35.5 -23.3 35.35 -23.25 L35.3 -23.55 35.2 -23.8 34.8 -23.65 34.25 -23.45 34.35 -23.35 Q34.4 -23.3 34.4 -23.05 34.4 -22.75 34.35 -22.7 34.25 -22.4 33.75 -22.4 33.65 -22.45 33.5 -22.55 L33.55 -22.45 33.35 -22.3 Q33.2 -22.2 33.15 -22.25 33.2 -22.4 33.3 -22.5 33.4 -22.55 33.5 -22.55 L33.5 -22.6 Q33.4 -22.7 33.4 -22.8 33.5 -22.8 33.7 -22.65 34.45 -22.7 34.35 -23.0 34.35 -23.2 34.1 -23.6 34.1 -23.65 34.2 -23.7 L34.65 -23.75 34.85 -23.95 35.3 -23.9 35.45 -23.7 M39.15 -18.9 L39.3 -19.0 Q39.9 -18.95 39.9 -18.85 L39.85 -18.1 Q39.75 -17.65 39.45 -17.5 L39.0 -17.4 Q38.9 -17.35 38.85 -17.25 38.8 -17.15 38.8 -17.05 38.7 -17.0 38.65 -17.0 38.5 -17.0 38.5 -17.25 38.5 -17.45 38.6 -17.5 L38.7 -17.6 39.35 -17.65 39.5 -17.85 Q39.55 -18.0 39.65 -18.1 L39.65 -18.8 38.95 -18.75 Q38.95 -18.8 39.15 -18.9 M35.35 -18.65 L34.9 -18.55 Q34.65 -18.45 34.6 -18.3 L34.55 -18.4 34.75 -18.65 35.0 -18.85 35.45 -18.8 Q35.5 -18.5 35.8 -17.6 36.05 -16.75 36.05 -16.6 36.05 -16.55 35.7 -16.1 35.35 -15.7 35.35 -15.65 35.35 -15.45 35.45 -15.25 L35.5 -15.0 35.95 -14.9 Q36.45 -14.75 36.65 -14.75 36.85 -14.75 37.0 -14.85 37.25 -15.0 37.4 -15.05 L37.3 -15.15 Q37.25 -15.15 37.25 -15.4 37.25 -15.6 37.35 -15.8 L37.5 -16.1 37.6 -16.15 Q37.7 -16.2 37.7 -15.95 L37.65 -15.4 37.55 -14.85 Q37.3 -14.75 37.15 -14.65 L36.95 -14.5 36.25 -14.6 35.55 -14.8 Q35.2 -15.1 35.2 -15.6 35.2 -15.7 35.5 -16.1 35.75 -16.55 35.75 -16.75 L35.55 -17.7 Q35.35 -18.55 35.35 -18.65 M32.35 -26.6 L31.75 -26.75 Q31.75 -26.85 31.5 -26.9 31.5 -27.1 31.55 -27.3 31.65 -27.5 31.75 -27.5 L31.75 -27.3 Q31.7 -27.15 31.6 -27.1 31.95 -26.9 32.55 -26.85 L32.45 -26.7 32.35 -26.6 M23.3 -27.35 L23.25 -27.3 Q23.0 -27.3 22.85 -27.5 22.95 -27.6 23.15 -27.55 L23.3 -27.35 M28.7 -14.9 Q28.65 -14.9 28.65 -15.15 28.65 -15.35 28.75 -15.45 L28.85 -15.55 29.3 -15.7 29.7 -15.8 29.95 -16.2 29.9 -16.25 29.9 -16.5 29.95 -16.45 30.05 -16.45 Q30.1 -16.4 30.25 -16.35 30.3 -16.25 30.3 -16.05 L30.2 -15.8 Q30.05 -15.55 29.9 -15.4 L29.35 -15.4 28.95 -15.2 Q28.75 -15.1 29.15 -15.0 29.05 -14.95 28.9 -14.9 L28.7 -14.9 M33.65 -17.95 Q33.65 -17.85 33.55 -17.65 L33.35 -17.45 33.15 -17.5 33.35 -17.7 Q33.55 -17.9 33.65 -17.95 M25.1 -6.45 L25.0 -6.45 24.7 -6.5 24.45 -6.5 24.45 -6.45 24.4 -6.25 Q25.0 -5.75 25.45 -5.15 25.7 -4.8 25.8 -4.5 25.85 -4.15 25.95 -3.9 L25.95 -3.15 25.9 -3.2 Q25.8 -3.25 25.6 -3.25 25.35 -3.25 25.35 -3.2 25.25 -3.0 25.1 -2.85 L25.4 -2.45 Q25.25 -2.55 25.1 -2.75 25.0 -2.95 25.0 -3.05 L25.4 -3.45 25.75 -3.5 Q25.8 -3.5 25.8 -3.75 25.8 -4.5 25.4 -4.95 24.75 -5.55 24.15 -6.2 L24.35 -6.45 24.65 -6.8 Q24.75 -6.8 24.9 -6.65 L25.1 -6.45 M11.7 4.9 L11.8 4.85 Q11.9 4.95 11.95 5.05 L12.0 5.25 Q11.2 5.55 11.0 5.75 10.75 5.95 10.75 6.3 10.75 6.6 10.85 6.75 10.9 6.85 11.15 6.95 12.05 7.3 12.45 7.6 L12.8 7.5 12.75 7.15 Q12.65 6.85 12.65 6.6 L12.9 6.6 Q13.1 6.55 13.15 6.5 L13.3 6.5 Q13.5 6.55 13.5 6.6 L13.1 6.7 12.8 6.85 Q12.95 7.25 13.1 7.45 L12.9 7.75 12.8 7.8 Q12.7 7.85 12.45 7.85 12.4 7.85 11.85 7.55 L11.15 7.15 Q10.75 6.8 10.65 6.65 10.6 6.5 10.6 6.25 10.6 5.75 10.65 5.65 10.9 5.25 11.8 5.15 11.7 4.95 11.7 4.9 M13.9 6.6 L14.3 6.1 Q14.6 5.75 14.6 5.55 L14.55 5.55 14.75 5.5 Q14.8 5.5 15.1 5.8 15.35 6.15 15.5 6.15 15.75 6.15 15.95 5.8 16.1 5.55 16.1 5.35 16.1 5.2 15.95 5.05 15.8 4.95 15.8 4.85 L15.95 4.8 16.15 5.05 16.45 5.3 Q16.45 5.7 15.8 6.35 L15.45 6.35 Q15.2 6.3 15.05 6.1 L14.75 5.8 14.5 6.1 Q14.35 6.35 14.3 6.6 L13.9 6.6 M-4.75 -50.75 L-5.5 -50.45 Q-6.15 -50.2 -6.2 -50.15 L-6.3 -50.2 Q-6.0 -50.65 -5.4 -50.9 -4.65 -51.15 -3.95 -50.5 -3.85 -50.4 -3.8 -50.1 -3.65 -49.8 -3.55 -49.65 -3.2 -49.05 -1.9 -48.95 -1.85 -48.9 -1.65 -48.45 -1.4 -47.95 -1.4 -47.8 -1.4 -47.6 -1.45 -47.65 -1.5 -47.75 -1.5 -47.7 -1.7 -47.75 -1.85 -48.15 L-2.0 -48.8 Q-3.25 -48.9 -3.75 -49.5 -3.9 -49.7 -4.1 -50.45 -4.3 -50.5 -4.45 -50.65 -4.6 -50.75 -4.75 -50.75 M-3.5 -50.85 L-2.9 -51.25 Q-2.6 -50.9 -1.95 -49.6 L-2.05 -49.5 -2.3 -49.55 -2.3 -49.6 Q-2.25 -49.65 -2.25 -49.85 -2.25 -50.1 -2.5 -50.45 -2.75 -50.85 -3.15 -50.8 L-3.5 -50.85 M-14.0 -46.35 Q-14.05 -46.35 -14.05 -46.6 -14.05 -46.8 -13.95 -46.85 -13.9 -46.9 -13.85 -46.9 L-13.35 -46.55 -13.8 -46.55 Q-13.9 -46.5 -13.95 -46.4 L-14.0 -46.35 M-12.15 -46.35 L-12.65 -46.4 Q-12.65 -46.55 -12.6 -46.55 L-12.4 -46.6 Q-12.15 -46.5 -12.1 -46.4 L-12.15 -46.35 M-14.4 -45.7 Q-14.3 -45.9 -14.2 -45.9 -14.2 -45.85 -14.25 -45.75 L-14.3 -45.6 -14.3 -45.45 -13.8 -45.35 -13.4 -45.25 -13.25 -45.0 Q-13.2 -44.9 -13.2 -44.8 L-13.4 -44.6 -13.9 -44.6 Q-13.9 -44.65 -13.7 -44.75 -13.45 -44.85 -13.4 -44.9 L-13.5 -45.1 -13.9 -45.2 -14.45 -45.3 Q-14.45 -45.55 -14.4 -45.7 M-15.65 -40.9 L-15.95 -41.0 -16.15 -41.45 Q-16.25 -41.65 -16.25 -41.85 -16.25 -42.2 -16.2 -41.9 L-16.2 -41.95 Q-16.0 -41.75 -15.95 -41.6 -15.9 -41.45 -15.95 -41.3 L-15.7 -41.15 -15.5 -41.0 -15.0 -41.05 Q-15.0 -41.55 -14.6 -41.65 -14.8 -41.35 -14.95 -40.85 L-15.55 -40.85 -15.65 -40.9 M-15.3 -37.45 L-15.5 -37.45 Q-15.75 -37.5 -15.8 -37.55 -15.7 -37.8 -15.15 -37.75 L-15.15 -37.55 -15.3 -37.45 M-16.25 -37.55 L-16.65 -37.45 Q-16.8 -37.3 -16.8 -37.1 -16.8 -36.8 -16.85 -36.7 L-17.1 -36.7 -17.1 -37.1 Q-17.1 -37.3 -16.75 -37.65 -16.3 -37.6 -16.25 -37.55 M-38.1 -28.85 L-37.8 -28.2 Q-37.85 -28.15 -38.0 -28.25 -38.2 -28.35 -38.4 -28.35 -38.6 -28.35 -39.3 -27.9 -40.05 -27.45 -40.05 -27.3 -40.05 -27.1 -39.9 -26.85 -39.75 -26.6 -39.75 -26.5 L-39.9 -26.5 Q-39.9 -26.65 -40.05 -26.9 -40.2 -27.2 -40.2 -27.35 -40.2 -27.7 -39.05 -28.2 L-38.6 -28.55 Q-38.25 -28.85 -38.1 -28.85 M-29.25 -33.7 Q-29.25 -33.9 -29.3 -34.1 L-29.3 -34.25 -29.1 -34.25 -28.85 -34.0 -28.9 -33.85 Q-28.9 -33.8 -28.95 -33.7 L-29.25 -33.7 M-31.25 -32.4 Q-31.85 -32.4 -32.2 -32.4 L-32.05 -32.35 Q-32.0 -31.95 -31.9 -31.65 L-32.0 -31.6 Q-32.05 -31.8 -32.0 -32.15 -32.1 -32.35 -32.7 -32.3 L-32.55 -32.45 Q-32.95 -32.5 -33.0 -32.55 L-33.0 -32.7 Q-33.0 -32.75 -33.2 -32.75 L-33.4 -32.7 -33.35 -32.65 -33.7 -32.6 -33.7 -31.65 -33.75 -31.6 -33.8 -31.65 -33.8 -32.8 -33.7 -32.9 Q-33.55 -32.95 -33.35 -32.95 -33.1 -32.95 -32.95 -32.8 L-32.7 -32.6 -31.2 -32.6 -30.55 -33.05 -29.85 -33.5 Q-29.55 -33.45 -29.4 -33.35 -29.25 -33.25 -29.1 -33.0 L-29.2 -32.95 -29.25 -32.95 Q-29.25 -32.85 -29.35 -32.85 -29.4 -32.85 -29.4 -32.9 L-29.75 -32.9 Q-30.0 -32.65 -30.2 -32.35 L-30.4 -31.9 Q-30.65 -31.45 -31.25 -31.55 L-31.75 -31.6 -31.65 -31.7 Q-30.8 -31.9 -30.4 -32.35 L-30.15 -32.7 Q-29.95 -32.95 -29.75 -33.1 L-29.45 -33.05 -29.5 -33.1 Q-29.65 -33.2 -29.8 -33.2 -30.1 -33.2 -30.65 -32.8 -31.2 -32.4 -31.25 -32.4 M-23.6 -34.1 Q-23.85 -34.05 -24.05 -33.9 -24.15 -33.75 -24.35 -33.75 -24.4 -33.75 -24.65 -33.9 -24.85 -34.0 -25.3 -33.9 L-25.5 -33.95 Q-25.35 -34.2 -24.85 -34.35 L-23.65 -34.35 -23.5 -34.3 Q-23.5 -34.2 -23.6 -34.1 M-26.15 -33.3 L-26.25 -33.0 -26.35 -33.0 Q-26.35 -33.2 -26.25 -33.4 -26.2 -33.6 -26.1 -33.6 -26.1 -33.5 -26.15 -33.3 M-30.45 -20.05 L-29.3 -20.55 -28.75 -20.5 -28.15 -19.45 Q-27.55 -18.4 -27.55 -18.3 -27.55 -16.75 -27.85 -16.15 -28.05 -15.65 -28.65 -15.5 L-30.15 -15.2 Q-31.05 -14.95 -31.95 -14.3 -30.7 -15.35 -28.3 -15.9 -27.75 -16.2 -27.75 -17.3 -27.75 -17.9 -28.1 -18.7 L-28.75 -20.3 -31.15 -19.75 Q-31.3 -19.65 -31.3 -19.5 -31.25 -19.3 -31.25 -19.15 -31.25 -19.0 -31.6 -18.7 L-32.0 -18.3 -31.6 -19.0 Q-31.3 -19.5 -31.75 -19.7 L-31.75 -19.9 Q-31.75 -19.85 -31.4 -19.85 -31.0 -19.85 -30.45 -20.05 M-29.75 -18.05 Q-29.55 -17.9 -29.1 -17.4 L-29.2 -17.3 Q-29.4 -17.4 -29.6 -17.65 -29.75 -17.85 -29.9 -17.85 L-31.15 -17.4 Q-32.4 -16.95 -32.65 -16.75 -32.85 -16.55 -32.85 -16.0 L-32.85 -15.05 -32.9 -15.0 -33.05 -15.25 Q-33.15 -15.35 -33.15 -15.6 -33.15 -16.15 -32.95 -16.6 -32.8 -17.05 -32.6 -17.1 -32.15 -17.15 -31.65 -17.3 -31.1 -17.5 -30.65 -17.75 L-30.15 -18.1 Q-29.95 -18.15 -29.75 -18.05 M-27.25 -19.8 Q-26.9 -19.75 -26.85 -19.7 -26.75 -19.6 -26.75 -19.45 L-26.75 -19.1 Q-26.75 -18.9 -26.6 -18.25 -26.5 -17.6 -26.5 -17.4 -26.5 -17.35 -26.6 -17.15 -26.8 -16.95 -27.05 -16.75 L-27.05 -16.9 -26.8 -17.15 Q-26.6 -17.25 -26.6 -17.4 -26.6 -17.6 -26.75 -18.4 L-26.85 -19.35 Q-26.85 -19.55 -27.05 -19.6 -27.35 -19.7 -27.5 -19.85 L-27.45 -20.05 Q-27.45 -19.85 -27.25 -19.8 M-38.7 -27.95 Q-38.75 -27.6 -38.6 -27.3 L-38.4 -26.9 -39.15 -26.35 Q-39.35 -26.1 -39.5 -25.7 L-39.65 -25.65 Q-39.75 -25.85 -39.55 -26.15 -39.3 -26.55 -38.7 -26.8 L-38.65 -26.95 -38.85 -27.25 Q-38.95 -27.4 -38.95 -27.6 L-38.9 -27.95 Q-38.85 -27.9 -38.7 -27.95 M-39.75 -25.9 Q-39.9 -25.6 -39.9 -25.45 -39.9 -25.2 -39.8 -25.05 L-39.7 -24.8 Q-39.25 -24.75 -39.2 -24.7 L-39.7 -24.5 -39.9 -24.55 Q-39.9 -24.7 -39.95 -25.0 -40.05 -25.3 -40.05 -25.5 -40.05 -25.6 -39.9 -25.85 -39.7 -26.15 -39.5 -26.25 L-39.75 -25.9 M-36.9 -17.7 L-36.85 -17.65 -37.35 -17.4 -37.85 -17.45 -37.95 -17.85 Q-38.0 -18.05 -38.15 -18.2 -38.55 -18.5 -39.65 -18.4 L-39.65 -18.8 Q-39.65 -19.1 -39.65 -19.15 -39.55 -19.35 -39.25 -19.25 -39.25 -19.2 -39.3 -19.05 L-39.45 -18.75 -39.45 -18.65 -39.3 -18.75 Q-38.7 -18.8 -38.2 -18.45 -37.75 -18.15 -37.65 -17.7 L-37.3 -17.75 -36.9 -17.7 M-30.55 -12.95 Q-31.25 -12.25 -32.1 -12.1 -32.55 -12.0 -33.55 -11.25 -34.6 -10.45 -34.6 -10.15 -34.6 -10.0 -34.3 -9.8 -34.0 -9.5 -33.7 -9.6 L-33.4 -9.6 -33.0 -9.5 -33.45 -9.25 Q-33.7 -9.1 -33.75 -9.1 -33.95 -9.1 -34.95 -10.1 -34.75 -10.7 -34.1 -11.25 -33.35 -11.9 -32.2 -12.3 -31.35 -12.6 -30.6 -13.2 L-29.55 -14.1 -30.55 -12.95 M-32.55 -12.45 L-32.8 -12.45 Q-33.0 -12.5 -33.05 -12.55 -33.0 -13.25 -32.4 -13.9 L-32.6 -13.4 Q-32.8 -12.95 -32.8 -12.75 -32.8 -12.55 -32.7 -12.55 L-32.5 -12.55 -32.55 -12.45 M-30.4 -9.55 L-30.4 -9.45 -30.75 -9.55 -31.35 -9.75 Q-31.35 -9.85 -31.0 -9.9 L-30.65 -9.9 Q-30.5 -9.65 -30.4 -9.55" fill="#ffffff" fill-rule="evenodd" stroke="none"/>
    <path d="M37.25 -29.55 Q37.3 -29.6 37.35 -29.6 L37.45 -29.6 Q37.45 -29.65 37.5 -29.65 37.95 -29.7 38.05 -29.55 L38.05 -29.4 38.0 -29.35 Q37.95 -29.3 37.9 -29.3 L37.35 -29.25 37.3 -29.25 Q37.25 -29.3 37.25 -29.35 L37.2 -29.45 Q37.2 -29.5 37.25 -29.55 M37.35 -29.45 L37.35 -29.4 37.9 -29.4 37.9 -29.5 37.5 -29.5 37.35 -29.45 M38.9 -29.85 L38.95 -29.9 39.45 -29.9 39.8 -29.85 39.85 -29.8 39.9 -29.7 39.9 -29.55 39.8 -29.5 39.3 -29.5 39.25 -29.35 39.8 -29.45 39.9 -29.45 40.2 -29.15 40.3 -29.15 40.55 -29.05 40.55 -29.1 Q40.55 -29.15 40.55 -29.2 L40.65 -29.3 40.9 -29.3 40.95 -29.25 41.1 -28.85 41.1 -28.8 41.05 -28.75 Q41.05 -28.7 40.6 -28.55 L40.5 -28.5 40.45 -28.55 40.4 -28.65 Q40.35 -28.7 40.25 -28.85 L40.15 -28.9 Q40.1 -28.9 40.1 -28.95 40.05 -28.95 40.0 -28.95 L39.75 -29.05 38.9 -28.9 Q38.85 -28.9 38.8 -28.95 38.75 -29.0 38.75 -29.05 38.75 -28.95 38.65 -28.95 38.6 -29.0 38.55 -29.0 L38.5 -29.1 38.55 -29.2 38.8 -29.5 38.9 -29.6 38.85 -29.7 Q38.8 -29.75 38.9 -29.85 M40.25 -29.0 L40.35 -28.95 Q40.5 -28.8 40.55 -28.65 40.95 -28.8 40.95 -28.85 L40.85 -29.2 40.7 -29.15 40.7 -29.0 Q40.8 -28.95 40.6 -28.9 L40.25 -29.0 M39.0 -29.75 L39.0 -29.7 39.1 -29.6 38.9 -29.4 38.65 -29.1 38.9 -29.05 39.75 -29.2 40.05 -29.1 39.85 -29.3 39.05 -29.2 38.95 -29.25 Q39.1 -29.4 39.25 -29.7 L39.75 -29.65 39.7 -29.7 39.45 -29.75 39.05 -29.8 39.0 -29.75 M42.65 -28.45 L43.4 -28.45 43.45 -28.35 43.4 -28.25 43.35 -28.2 43.3 -28.2 42.75 -28.1 42.75 -28.0 Q43.05 -27.95 43.1 -27.85 L43.1 -27.75 43.4 -27.85 43.8 -27.95 43.75 -28.05 43.75 -28.2 Q43.75 -28.25 43.75 -28.3 43.8 -28.35 43.85 -28.35 L44.15 -28.35 Q44.25 -28.45 44.35 -28.3 L44.35 -28.25 44.4 -28.05 Q44.45 -27.8 44.1 -27.7 L44.1 -27.65 43.75 -27.45 43.65 -27.45 43.4 -27.4 Q42.95 -27.4 43.0 -27.55 43.0 -27.6 43.0 -27.65 L42.95 -27.6 42.55 -27.55 Q42.5 -27.55 42.45 -27.6 42.4 -27.6 42.4 -27.65 42.3 -28.15 42.45 -28.2 L42.5 -28.2 Q42.5 -28.35 42.6 -28.45 L42.65 -28.45 M43.3 -28.35 L42.7 -28.3 Q42.65 -28.3 42.65 -28.25 L43.25 -28.35 43.3 -28.35 M45.45 -29.25 Q45.55 -29.2 45.6 -29.05 L45.6 -28.95 45.5 -28.8 45.45 -28.75 45.3 -28.75 45.05 -28.95 45.0 -29.0 Q44.95 -29.2 45.35 -29.3 L45.45 -29.25 M42.9 -27.75 L42.95 -27.8 Q42.9 -27.85 42.6 -27.85 L42.6 -28.0 Q42.6 -28.1 42.5 -28.1 42.45 -28.05 42.55 -27.7 L42.9 -27.75 M44.25 -28.05 L44.2 -28.2 44.0 -28.2 43.9 -28.25 43.9 -28.1 44.15 -28.05 44.05 -27.85 43.45 -27.7 43.1 -27.6 Q43.15 -27.55 43.4 -27.55 L43.6 -27.6 Q43.75 -27.7 44.05 -27.8 44.3 -27.9 44.25 -28.05 M45.4 -28.85 L45.45 -29.0 Q45.45 -29.1 45.35 -29.15 45.15 -29.1 45.15 -29.05 L45.4 -28.85" fill="#ffffff" fill-opacity="0.5019608" fill-rule="evenodd" stroke="none"/>
    <path d="M37.35 -29.45 L37.5 -29.5 37.9 -29.5 37.9 -29.4 37.35 -29.4 37.35 -29.45 M39.0 -29.75 L39.05 -29.8 39.45 -29.75 39.7 -29.7 39.75 -29.65 39.25 -29.7 Q39.1 -29.4 38.95 -29.25 L39.05 -29.2 39.85 -29.3 40.05 -29.1 39.75 -29.2 38.9 -29.05 38.65 -29.1 38.9 -29.4 39.1 -29.6 39.0 -29.7 39.0 -29.75 M40.25 -29.0 L40.6 -28.9 Q40.8 -28.95 40.7 -29.0 L40.7 -29.15 40.85 -29.2 40.95 -28.85 Q40.95 -28.8 40.55 -28.65 40.5 -28.8 40.35 -28.95 L40.25 -29.0 M43.3 -28.35 L43.25 -28.35 42.65 -28.25 Q42.65 -28.3 42.7 -28.3 L43.3 -28.35 M45.4 -28.85 L45.15 -29.05 Q45.15 -29.1 45.35 -29.15 45.45 -29.1 45.45 -29.0 L45.4 -28.85 M44.25 -28.05 Q44.3 -27.9 44.05 -27.8 43.75 -27.7 43.6 -27.6 L43.4 -27.55 Q43.15 -27.55 43.1 -27.6 L43.45 -27.7 44.05 -27.85 44.15 -28.05 43.9 -28.1 43.9 -28.25 44.0 -28.2 44.2 -28.2 44.25 -28.05 M42.9 -27.75 L42.55 -27.7 Q42.45 -28.05 42.5 -28.1 42.6 -28.1 42.6 -28.0 L42.6 -27.85 Q42.9 -27.85 42.95 -27.8 L42.9 -27.75" fill="#ffffff" fill-rule="evenodd" stroke="none"/>
  </g>
</svg>
