<?xml version="1.0" encoding="UTF-8" standalone="no"?>
<svg xmlns:ffdec="https://www.free-decompiler.com/flash" xmlns:xlink="http://www.w3.org/1999/xlink" ffdec:objectType="shape" height="59.05px" width="80.2px" xmlns="http://www.w3.org/2000/svg">
  <g transform="matrix(1.0, 0.0, 0.0, 1.0, 40.25, 51.15)">
    <path d="M20.65 -42.95 L20.9 -43.0 Q21.1 -42.95 21.2 -42.9 L21.25 -42.9 Q21.35 -42.95 21.4 -42.75 L21.4 -42.6 21.35 -42.5 21.25 -42.4 21.25 -42.35 Q21.1 -42.15 21.05 -41.6 L21.0 -41.5 20.95 -41.5 20.8 -41.4 Q20.55 -41.3 20.45 -41.4 L20.45 -41.55 20.5 -41.6 Q20.85 -41.85 20.8 -42.0 L20.6 -42.2 20.6 -42.25 Q20.45 -42.4 20.45 -42.6 20.45 -42.9 20.65 -42.95 M9.45 -47.8 L9.5 -47.85 Q10.15 -47.7 10.5 -47.3 10.8 -46.95 10.8 -46.65 L10.7 -45.65 10.65 -45.55 10.6 -45.5 Q10.6 -45.45 10.55 -45.45 10.5 -45.45 10.45 -45.5 L10.4 -45.55 Q10.35 -45.7 10.35 -46.05 L10.3 -46.55 10.05 -46.8 Q9.7 -46.65 9.65 -46.6 L9.6 -46.55 9.05 -46.55 Q8.4 -46.6 8.4 -46.8 L8.5 -46.9 9.45 -46.95 9.55 -47.05 9.6 -47.05 9.6 -47.1 9.7 -47.2 Q9.4 -47.5 9.35 -47.55 L9.35 -47.65 9.4 -47.75 9.45 -47.8 M7.75 -47.85 L7.75 -47.8 7.7 -47.75 7.5 -47.5 Q7.25 -47.25 7.0 -47.05 L6.9 -47.05 6.75 -47.15 6.7 -47.15 6.65 -47.25 6.7 -47.3 Q6.85 -47.55 7.1 -47.75 L7.1 -47.8 Q7.4 -48.0 7.7 -47.95 L7.75 -47.95 7.75 -47.85 M22.15 -40.65 Q22.55 -40.65 22.7 -40.5 L22.7 -40.45 22.75 -40.25 22.75 -40.1 Q22.65 -40.05 22.35 -40.05 L22.05 -40.0 21.95 -39.9 Q21.8 -39.9 21.7 -40.0 21.7 -40.1 21.7 -40.25 21.7 -40.5 21.95 -40.6 L22.15 -40.65 M17.5 -37.2 Q16.9 -37.7 16.85 -37.85 L16.85 -37.95 16.9 -38.0 16.95 -38.0 Q17.3 -38.0 17.5 -37.75 17.65 -37.6 17.75 -37.4 L17.75 -37.25 17.65 -37.2 Q17.65 -37.15 17.6 -37.15 L17.5 -37.2 M17.45 -36.5 Q17.35 -36.35 17.25 -36.2 17.2 -36.05 16.95 -35.9 L16.8 -35.9 16.7 -36.0 16.7 -36.1 16.8 -36.4 Q16.85 -36.7 16.95 -36.8 L17.05 -36.85 Q17.45 -36.8 17.5 -36.6 L17.5 -36.55 17.45 -36.5 M17.35 -34.85 L17.35 -34.75 17.3 -34.7 17.15 -34.5 16.95 -34.3 16.7 -34.3 Q16.45 -34.4 16.4 -34.45 L16.35 -34.55 16.45 -34.65 16.75 -34.85 17.25 -34.9 17.35 -34.85 M22.95 -4.15 L22.95 -4.2 Q22.95 -4.3 23.0 -4.35 L23.05 -4.4 23.15 -4.45 Q23.55 -4.4 23.55 -4.25 L23.55 -4.15 23.45 -4.05 23.4 -4.05 23.05 -4.1 Q23.0 -4.1 22.95 -4.15 M39.8 -18.25 L39.9 -18.2 Q39.95 -18.2 39.95 -17.9 40.0 -17.75 39.8 -17.6 L39.5 -17.35 39.2 -17.35 39.15 -17.4 39.1 -17.5 39.15 -17.55 39.35 -17.85 Q39.45 -18.0 39.4 -18.1 L39.4 -18.2 39.45 -18.25 39.8 -18.25 M35.7 -18.65 L35.65 -18.7 35.7 -18.8 Q35.85 -19.05 35.95 -19.1 L36.0 -19.1 36.05 -19.05 Q36.35 -18.9 36.55 -18.65 L36.8 -18.3 36.85 -18.25 36.85 -18.2 Q36.85 -18.05 36.65 -17.8 L36.6 -17.8 35.95 -17.7 Q35.85 -17.65 35.75 -17.5 35.6 -17.35 35.6 -17.3 35.6 -17.2 35.65 -17.2 L35.8 -17.2 35.9 -17.1 35.85 -17.0 35.8 -16.95 35.6 -16.9 Q35.55 -16.85 35.45 -16.85 35.3 -16.8 35.25 -16.9 35.2 -17.0 35.2 -17.15 35.2 -17.3 35.7 -18.05 L35.75 -18.1 36.1 -18.15 36.4 -18.25 36.3 -18.45 Q36.2 -18.55 35.75 -18.6 L35.7 -18.65 M36.1 -15.7 L36.15 -15.65 Q36.15 -15.55 36.25 -15.3 L36.45 -15.0 36.8 -15.0 36.8 -15.1 36.85 -15.4 36.85 -15.45 36.9 -15.5 37.05 -15.55 37.1 -15.55 Q37.6 -15.5 37.7 -15.3 L37.7 -15.25 Q37.65 -15.2 37.6 -15.15 37.55 -15.15 37.5 -15.0 L37.5 -14.65 37.4 -14.55 36.95 -14.5 36.45 -14.55 36.2 -14.55 36.1 -14.6 36.1 -14.65 Q35.8 -15.3 35.8 -15.6 L35.85 -15.7 35.9 -15.75 36.0 -15.75 36.1 -15.7 M26.05 -4.6 Q26.15 -4.4 26.15 -4.15 26.15 -3.9 26.1 -3.8 L26.05 -3.7 26.05 -3.6 26.0 -3.55 25.75 -3.55 25.7 -3.65 25.6 -3.95 Q25.45 -4.25 25.45 -4.5 25.45 -4.75 25.55 -4.85 25.55 -4.9 25.75 -4.95 L25.85 -4.95 25.9 -4.9 26.05 -4.6 M25.0 -6.5 L25.0 -6.45 Q25.2 -6.0 25.35 -5.85 L25.6 -5.55 25.65 -5.5 25.65 -5.4 25.5 -5.4 Q25.2 -5.5 24.9 -5.7 24.55 -6.0 24.55 -6.15 24.55 -6.45 24.7 -6.5 L24.9 -6.55 25.0 -6.5 M23.95 -3.05 Q24.1 -2.6 24.4 -2.0 L24.4 -1.9 24.35 -1.8 24.3 -1.75 24.2 -1.75 23.95 -1.95 23.65 -2.2 23.6 -2.25 23.6 -3.05 23.65 -3.1 23.75 -3.15 23.85 -3.15 23.95 -3.05 M14.15 6.15 Q14.45 5.95 14.6 6.0 L14.65 6.0 14.7 6.05 14.7 6.15 14.45 6.55 Q14.3 6.8 14.15 6.85 L14.1 6.85 Q13.85 6.75 13.75 6.6 L13.75 6.45 Q13.9 6.35 14.15 6.15 M16.4 4.95 Q16.5 4.95 16.5 5.25 16.5 5.5 16.4 5.65 16.3 5.8 16.3 5.85 L16.3 5.9 16.2 5.95 15.9 5.95 15.85 5.9 15.8 5.9 15.75 5.6 Q15.75 5.45 15.85 5.25 16.0 5.05 16.2 4.9 L16.35 4.9 16.4 4.95 M12.3 7.9 L11.95 7.9 11.9 7.85 11.75 7.75 Q11.6 7.6 11.55 7.5 L11.55 7.45 11.6 7.4 Q11.7 7.25 12.05 7.35 L12.65 7.5 12.7 7.55 12.75 7.55 12.75 7.65 12.8 7.7 12.7 7.8 12.35 7.9 12.3 7.9 M11.25 5.25 L11.2 5.35 10.95 5.8 Q10.8 6.15 10.65 6.5 L10.65 6.55 Q10.6 6.55 10.55 6.55 L10.35 6.55 10.35 6.45 Q10.35 6.15 10.65 5.7 10.9 5.25 11.05 5.15 L11.15 5.15 11.25 5.25 M-4.4 -50.8 L-4.0 -50.3 Q-3.8 -50.05 -3.5 -50.0 L-3.4 -49.9 -3.4 -49.8 -3.45 -49.8 -3.55 -49.75 -4.1 -49.75 Q-4.15 -49.75 -4.15 -49.8 -4.25 -49.9 -4.45 -50.4 -4.6 -50.65 -4.95 -50.55 L-5.0 -50.55 -5.2 -50.6 Q-5.25 -50.6 -5.25 -50.65 L-5.3 -50.7 -5.3 -50.75 Q-5.0 -51.2 -4.8 -51.15 -4.6 -51.15 -4.4 -50.8 M-3.1 -51.0 Q-3.05 -51.05 -2.85 -51.05 L-2.8 -51.05 -2.6 -50.8 -2.5 -50.6 -2.45 -50.55 -2.45 -50.45 -2.5 -50.35 -2.55 -50.3 -2.65 -50.35 Q-3.0 -50.6 -3.1 -50.9 L-3.1 -51.0 M-1.7 -48.85 L-1.5 -48.35 Q-1.45 -48.3 -1.45 -48.25 L-1.5 -48.2 -1.55 -48.1 Q-1.6 -48.1 -1.65 -48.1 -1.7 -48.1 -1.75 -48.1 L-2.25 -48.45 Q-2.75 -48.8 -3.0 -49.15 L-3.0 -49.25 -2.9 -49.4 -2.85 -49.4 -2.75 -49.5 -2.4 -49.45 Q-1.95 -49.35 -1.7 -48.85 M-38.4 -28.5 L-38.45 -28.45 -39.2 -28.1 -39.15 -28.1 -39.9 -27.65 -40.0 -27.6 Q-40.0 -27.55 -40.05 -27.55 -40.25 -27.55 -40.25 -27.9 -40.25 -28.5 -39.45 -28.65 L-38.6 -28.7 -38.55 -28.75 -38.5 -28.7 -38.45 -28.7 -38.4 -28.6 Q-38.4 -28.55 -38.4 -28.5 M-30.5 -33.0 Q-30.85 -32.8 -31.05 -32.65 L-31.15 -32.65 -31.25 -32.7 Q-31.45 -32.75 -31.45 -32.85 L-31.45 -33.0 Q-31.2 -33.2 -30.8 -33.4 -30.45 -33.5 -30.3 -33.5 L-29.9 -33.4 Q-29.6 -33.3 -29.35 -33.15 L-29.3 -33.1 -29.3 -33.05 -29.25 -32.95 -29.3 -32.9 -29.4 -32.85 -29.5 -32.85 Q-29.8 -32.8 -30.05 -32.35 -30.35 -31.75 -30.45 -31.65 L-30.5 -31.6 -30.9 -31.5 -30.95 -31.45 -31.0 -31.45 -31.35 -31.5 -31.4 -31.5 -31.45 -31.6 Q-31.45 -31.75 -30.7 -32.0 -30.6 -32.3 -30.05 -33.05 L-30.15 -33.1 -30.5 -33.0 M-33.6 -33.05 Q-33.05 -33.0 -33.0 -32.9 L-33.0 -32.8 -33.05 -32.75 -33.15 -32.75 Q-33.4 -32.75 -33.55 -32.55 -33.75 -32.3 -33.95 -32.3 L-34.05 -32.35 -34.05 -32.5 -33.85 -32.8 -33.65 -33.05 -33.6 -33.05 M-24.15 -34.15 Q-24.15 -34.1 -24.15 -34.05 L-24.2 -34.0 Q-24.4 -33.9 -24.9 -33.85 L-24.95 -33.85 -25.05 -33.9 Q-25.2 -34.0 -25.25 -34.05 L-25.3 -34.1 -25.25 -34.2 Q-25.2 -34.25 -25.05 -34.35 L-25.0 -34.3 -25.0 -34.35 -24.95 -34.4 -24.55 -34.4 -24.5 -34.35 Q-24.2 -34.25 -24.15 -34.15 M-30.25 -20.15 L-31.05 -19.65 Q-31.0 -19.6 -31.0 -19.4 -31.0 -19.15 -31.05 -19.05 L-31.1 -18.9 -31.15 -18.85 -31.4 -18.85 -31.45 -18.9 -31.5 -19.0 -31.5 -19.25 Q-31.5 -19.35 -31.6 -19.35 L-31.55 -19.35 -31.9 -19.5 -31.95 -19.55 -31.9 -19.65 Q-31.6 -20.0 -30.45 -20.6 -29.45 -21.15 -29.15 -21.15 L-29.1 -21.15 Q-29.05 -21.1 -29.05 -21.05 L-28.9 -20.3 -28.7 -19.5 -28.75 -19.45 -28.75 -19.4 -28.8 -19.35 Q-28.85 -19.3 -28.9 -19.3 L-29.0 -19.35 Q-29.35 -19.65 -29.4 -20.1 L-29.4 -20.65 -30.25 -20.15 M-30.65 -17.95 L-30.55 -17.85 Q-30.55 -17.65 -30.6 -17.5 -30.7 -17.25 -31.0 -17.25 L-31.15 -17.25 Q-31.2 -17.25 -31.25 -17.3 L-31.25 -17.35 Q-31.45 -17.4 -31.55 -17.5 -31.65 -17.6 -31.75 -17.6 -32.05 -17.55 -32.25 -17.3 -32.45 -17.0 -32.45 -16.6 -32.45 -16.55 -32.5 -16.5 L-32.55 -16.45 Q-32.6 -16.4 -32.65 -16.4 L-32.7 -16.4 -32.8 -16.45 -32.85 -16.5 Q-32.95 -16.55 -32.95 -16.85 -33.0 -17.15 -32.5 -17.55 L-32.0 -17.95 -31.95 -18.0 -30.8 -18.0 -30.65 -17.95 M-31.15 -15.2 L-31.15 -15.3 -31.05 -15.3 -29.6 -15.45 -29.25 -15.45 -29.25 -15.55 Q-29.2 -15.8 -29.15 -15.85 -29.05 -15.95 -28.7 -15.95 L-28.6 -15.9 -28.6 -15.75 -28.75 -15.55 Q-28.95 -15.3 -29.1 -15.25 L-29.15 -15.25 -29.2 -15.3 Q-29.25 -15.2 -30.05 -15.05 L-30.9 -14.9 -30.95 -14.9 -31.0 -14.95 -31.15 -15.15 -31.15 -15.2 M-27.65 -18.95 L-27.55 -18.95 -27.5 -18.85 Q-27.5 -18.8 -27.55 -18.55 -27.6 -18.35 -27.6 -18.2 L-27.45 -17.6 Q-27.3 -17.05 -27.3 -16.45 L-27.35 -16.4 Q-27.35 -16.35 -27.4 -16.35 L-28.1 -16.15 -28.25 -16.15 -28.25 -16.2 -28.3 -16.35 -28.3 -16.45 -28.2 -16.5 Q-27.85 -16.6 -27.75 -16.85 -27.7 -16.95 -27.7 -17.2 -27.7 -17.35 -27.85 -17.8 L-28.05 -18.4 -28.3 -18.4 -28.35 -18.45 -28.4 -18.45 Q-28.45 -18.6 -28.45 -18.85 L-28.45 -18.95 -28.4 -19.0 -28.35 -19.0 -28.1 -18.95 Q-27.9 -18.95 -27.65 -18.95 M-38.95 -27.75 L-38.75 -27.75 -38.6 -27.65 Q-38.55 -27.55 -38.55 -27.3 -38.55 -27.05 -38.6 -26.9 L-38.7 -26.7 -38.8 -26.6 -39.15 -26.5 Q-39.35 -26.1 -39.4 -25.8 -39.4 -25.75 -39.45 -25.7 L-39.5 -25.65 -39.65 -25.65 -39.75 -25.75 Q-39.8 -26.15 -39.65 -26.45 -39.45 -26.85 -39.0 -27.05 -39.0 -27.15 -39.0 -27.3 L-39.05 -27.65 -39.05 -27.7 -39.0 -27.75 -38.95 -27.75 M-37.2 -17.85 L-37.2 -17.8 Q-37.25 -17.6 -37.5 -17.45 L-37.55 -17.4 -38.15 -17.4 -38.2 -17.45 -38.25 -17.45 -38.25 -17.55 -38.3 -17.55 -38.3 -18.0 -38.25 -18.1 -38.2 -18.1 -38.15 -18.15 -37.75 -18.05 -37.3 -17.95 -37.2 -17.85 M-39.25 -19.7 Q-38.9 -19.8 -38.65 -19.4 -38.5 -19.2 -38.35 -18.85 L-38.15 -18.45 Q-38.05 -18.4 -38.1 -18.3 -38.05 -18.15 -38.4 -18.15 -38.6 -18.15 -38.85 -18.55 -39.1 -18.85 -39.1 -19.1 L-39.15 -19.05 -39.45 -19.0 -39.45 -18.95 -39.6 -18.95 Q-39.65 -18.95 -39.65 -19.3 -39.7 -19.6 -39.3 -19.7 L-39.25 -19.7 M-31.8 -12.15 Q-32.15 -11.8 -32.55 -11.7 L-32.6 -11.7 -32.7 -11.75 -32.85 -11.8 Q-33.3 -11.75 -33.75 -11.4 -34.25 -11.0 -34.35 -11.0 L-34.45 -11.05 -34.5 -11.1 -34.45 -11.2 Q-34.15 -11.7 -33.75 -11.95 -33.6 -12.05 -33.5 -12.1 L-33.5 -12.4 Q-33.5 -12.7 -33.35 -12.8 L-33.0 -12.85 -32.9 -12.75 -32.9 -12.65 -33.05 -12.4 -33.05 -12.25 -33.0 -12.3 Q-32.95 -12.3 -32.8 -12.2 L-32.55 -12.15 Q-32.2 -12.15 -32.1 -12.35 -31.9 -12.65 -31.65 -12.7 L-31.6 -12.7 -31.55 -12.6 Q-31.5 -12.55 -31.55 -12.55 -31.65 -12.35 -31.8 -12.15 M-34.05 -10.65 L-34.0 -10.55 Q-33.95 -10.3 -34.1 -10.2 -34.15 -10.15 -34.25 -10.1 L-34.2 -10.0 -33.7 -9.5 -33.7 -9.45 -33.75 -9.35 -33.8 -9.35 -33.8 -9.3 Q-33.9 -9.25 -34.0 -9.25 L-34.05 -9.25 -34.4 -9.3 -34.45 -9.3 -34.65 -9.55 Q-34.75 -9.7 -34.75 -9.95 L-34.7 -10.3 Q-34.6 -10.5 -34.15 -10.65 L-34.05 -10.65" fill="#00ffff" fill-opacity="0.5019608" fill-rule="evenodd" stroke="none"/>
    <path d="M20.7 -42.85 L20.9 -42.9 Q21.1 -42.85 21.2 -42.75 L21.25 -42.8 Q21.3 -42.8 21.3 -42.6 L21.15 -42.45 Q21.0 -42.2 20.95 -41.6 L20.75 -41.5 Q20.6 -41.45 20.55 -41.5 21.05 -41.8 20.9 -42.05 L20.7 -42.3 Q20.6 -42.45 20.6 -42.6 20.6 -42.8 20.7 -42.85 M9.45 -47.6 L9.5 -47.7 Q10.1 -47.6 10.4 -47.2 10.65 -46.9 10.65 -46.65 L10.6 -45.65 10.5 -45.55 Q10.45 -45.7 10.45 -46.05 10.45 -46.45 10.4 -46.6 10.35 -46.7 9.95 -47.1 9.5 -47.5 9.45 -47.6 M9.65 -47.0 L9.7 -47.05 Q10.0 -47.05 10.05 -46.95 9.6 -46.75 9.55 -46.65 L9.05 -46.65 Q8.5 -46.7 8.5 -46.8 L9.5 -46.85 9.65 -47.0 M7.65 -47.85 L7.4 -47.6 Q7.15 -47.35 6.95 -47.15 L6.8 -47.25 Q6.95 -47.5 7.15 -47.7 7.45 -47.9 7.65 -47.85 M22.6 -40.4 L22.65 -40.2 Q22.6 -40.15 22.3 -40.15 L22.0 -40.1 Q21.95 -40.05 21.9 -40.05 21.8 -40.0 21.8 -40.25 21.8 -40.45 21.95 -40.5 L22.15 -40.55 Q22.5 -40.5 22.6 -40.4 M17.6 -37.25 Q17.0 -37.75 16.95 -37.9 17.25 -37.85 17.45 -37.65 17.55 -37.55 17.65 -37.35 L17.6 -37.25 M16.9 -36.05 L16.8 -36.05 Q16.85 -36.15 16.9 -36.4 16.95 -36.65 17.05 -36.7 17.35 -36.7 17.35 -36.6 17.25 -36.45 17.15 -36.25 17.1 -36.1 16.9 -36.05 M17.25 -34.8 L17.05 -34.6 16.9 -34.4 16.7 -34.45 Q16.5 -34.5 16.45 -34.55 L16.8 -34.75 17.25 -34.8 M23.1 -4.25 L23.1 -4.3 Q23.45 -4.3 23.45 -4.2 L23.4 -4.15 23.05 -4.2 Q23.05 -4.25 23.1 -4.25 M39.85 -18.1 L39.85 -17.9 Q39.85 -17.8 39.75 -17.7 L39.45 -17.45 39.25 -17.5 39.45 -17.8 Q39.55 -18.0 39.5 -18.15 L39.75 -18.15 39.85 -18.1 M36.15 -18.05 Q36.5 -18.1 36.55 -18.2 L36.35 -18.55 Q36.25 -18.65 35.75 -18.75 L36.0 -19.0 Q36.3 -18.8 36.45 -18.55 L36.75 -18.2 Q36.75 -18.1 36.55 -17.9 L35.9 -17.8 Q35.8 -17.75 35.65 -17.55 35.5 -17.35 35.5 -17.3 35.5 -17.1 35.6 -17.1 L35.75 -17.05 35.55 -17.0 Q35.5 -16.95 35.45 -16.95 35.3 -16.9 35.3 -17.15 35.3 -17.3 35.75 -17.95 L36.15 -18.05 M36.0 -15.6 Q36.05 -15.5 36.15 -15.25 L36.35 -14.9 36.8 -14.9 Q36.9 -14.95 36.95 -15.1 L36.95 -15.4 37.1 -15.45 Q37.5 -15.4 37.55 -15.25 37.45 -15.2 37.4 -15.05 L37.35 -14.65 36.95 -14.6 36.45 -14.65 36.2 -14.7 Q35.9 -15.3 35.9 -15.6 L36.0 -15.6 M25.55 -5.5 Q25.25 -5.6 24.95 -5.8 24.65 -6.0 24.65 -6.15 24.65 -6.35 24.75 -6.4 L24.9 -6.4 Q25.1 -5.95 25.25 -5.75 L25.55 -5.5 M25.95 -4.55 Q26.05 -4.35 26.05 -4.15 26.05 -3.95 26.0 -3.85 L25.95 -3.7 25.8 -3.65 25.7 -4.0 Q25.55 -4.3 25.55 -4.5 25.55 -4.7 25.6 -4.75 L25.8 -4.85 25.95 -4.55 M24.25 -1.85 L23.75 -2.25 23.75 -3.05 23.85 -3.05 Q24.0 -2.6 24.3 -1.95 L24.25 -1.85 M14.2 6.25 Q14.45 6.1 14.55 6.1 14.5 6.3 14.35 6.5 L14.1 6.7 Q13.9 6.65 13.85 6.55 13.95 6.4 14.2 6.25 M16.4 5.05 L16.4 5.25 Q16.4 5.45 16.3 5.6 L16.2 5.8 15.95 5.85 15.9 5.8 15.9 5.6 Q15.9 5.5 15.95 5.3 16.05 5.1 16.25 5.0 16.3 5.05 16.4 5.05 M12.65 7.6 L12.65 7.7 12.3 7.8 12.0 7.75 11.8 7.65 Q11.7 7.55 11.65 7.5 11.75 7.4 12.05 7.45 L12.65 7.6 M11.1 5.25 L10.85 5.75 Q10.65 6.1 10.55 6.45 L10.45 6.45 Q10.45 6.2 10.75 5.75 11.0 5.35 11.1 5.25 M-5.2 -50.7 Q-4.95 -51.05 -4.8 -51.05 -4.7 -51.0 -4.5 -50.75 L-4.1 -50.25 Q-3.85 -49.95 -3.5 -49.9 L-3.6 -49.85 -4.05 -49.9 Q-4.15 -50.0 -4.35 -50.45 -4.55 -50.8 -4.95 -50.65 L-5.2 -50.7 M-2.6 -50.55 L-2.6 -50.45 Q-2.9 -50.65 -3.0 -50.9 L-2.85 -50.95 -2.7 -50.75 -2.6 -50.55 M-1.6 -48.25 L-1.65 -48.2 -2.2 -48.55 Q-2.7 -48.9 -2.9 -49.2 L-2.75 -49.35 -2.4 -49.35 Q-2.05 -49.2 -1.8 -48.8 L-1.6 -48.25 M-38.55 -28.65 L-38.5 -28.55 -39.25 -28.2 -39.95 -27.75 -40.05 -27.7 Q-40.1 -27.7 -40.1 -27.9 -40.1 -28.4 -39.45 -28.5 L-38.55 -28.65 M-31.35 -32.9 Q-31.15 -33.1 -30.75 -33.25 -30.45 -33.4 -30.3 -33.4 L-29.95 -33.3 Q-29.65 -33.2 -29.4 -33.05 L-29.4 -33.0 -29.55 -33.0 Q-29.85 -32.9 -30.15 -32.4 -30.45 -31.85 -30.55 -31.75 -30.9 -31.65 -31.0 -31.55 L-31.35 -31.6 Q-31.35 -31.7 -30.65 -31.9 -30.55 -32.15 -29.85 -33.1 L-29.65 -33.05 -29.75 -33.1 Q-29.95 -33.2 -30.15 -33.2 -30.45 -33.2 -30.55 -33.1 L-31.1 -32.8 -31.25 -32.8 Q-31.35 -32.85 -31.35 -32.9 M-33.95 -32.45 L-33.75 -32.75 -33.6 -32.95 Q-33.15 -32.9 -33.15 -32.85 -33.5 -32.85 -33.65 -32.65 -33.8 -32.4 -33.95 -32.45 M-25.0 -34.0 L-25.15 -34.1 Q-25.15 -34.2 -25.0 -34.25 L-24.9 -34.3 -24.55 -34.25 Q-24.3 -34.15 -24.25 -34.1 -24.45 -34.0 -24.9 -33.95 L-25.0 -34.0 M-29.3 -20.65 L-29.3 -20.85 -30.3 -20.25 Q-30.95 -19.8 -31.4 -19.65 L-31.2 -19.6 Q-31.1 -19.6 -31.1 -19.4 -31.1 -19.2 -31.15 -19.1 L-31.2 -19.0 -31.25 -18.95 -31.4 -19.0 -31.35 -19.2 Q-31.35 -19.45 -31.55 -19.5 L-31.8 -19.55 Q-31.5 -19.9 -30.4 -20.5 -29.4 -21.0 -29.15 -21.05 L-29.0 -20.25 -28.85 -19.5 -28.9 -19.45 Q-29.25 -19.75 -29.3 -20.1 L-29.3 -20.65 M-30.65 -17.85 Q-30.7 -17.65 -30.7 -17.55 -30.75 -17.35 -31.0 -17.35 L-31.15 -17.35 -31.05 -17.4 Q-31.35 -17.45 -31.45 -17.6 -31.6 -17.7 -31.75 -17.7 -32.1 -17.7 -32.35 -17.35 -32.55 -17.05 -32.55 -16.6 L-32.65 -16.5 -32.8 -16.6 Q-32.85 -16.65 -32.85 -16.85 -32.85 -17.1 -32.45 -17.5 L-31.95 -17.85 -30.65 -17.85 M-31.05 -15.2 L-29.6 -15.3 -29.3 -15.35 Q-29.3 -15.3 -30.05 -15.15 L-30.9 -15.0 -31.05 -15.2 M-29.15 -15.55 L-29.05 -15.8 -28.7 -15.85 -28.85 -15.6 Q-29.05 -15.4 -29.1 -15.4 L-29.15 -15.55 M-27.65 -18.85 Q-27.6 -18.75 -27.65 -18.6 L-27.75 -18.2 Q-27.75 -18.05 -27.55 -17.55 -27.4 -17.05 -27.4 -16.45 L-28.15 -16.25 -28.2 -16.4 Q-27.75 -16.5 -27.65 -16.8 -27.6 -16.9 -27.6 -17.2 -27.6 -17.35 -27.75 -17.8 L-27.95 -18.5 -28.3 -18.55 Q-28.35 -18.65 -28.35 -18.85 L-28.1 -18.85 Q-27.9 -18.8 -27.65 -18.85 M-38.9 -27.3 L-38.95 -27.65 -38.85 -27.65 -38.7 -27.55 Q-38.65 -27.5 -38.65 -27.3 -38.65 -27.1 -38.7 -26.95 L-38.85 -26.7 -39.25 -26.6 Q-39.5 -26.15 -39.5 -25.8 L-39.65 -25.8 Q-39.7 -26.1 -39.55 -26.4 -39.35 -26.75 -38.95 -26.95 -38.85 -27.1 -38.9 -27.3 M-39.5 -19.1 L-39.5 -19.05 Q-39.55 -19.05 -39.55 -19.3 -39.55 -19.55 -39.25 -19.6 -38.95 -19.65 -38.75 -19.3 -38.6 -19.15 -38.45 -18.8 L-38.25 -18.35 -38.2 -18.3 -38.4 -18.3 Q-38.55 -18.3 -38.75 -18.6 -39.0 -18.95 -39.0 -19.2 L-39.2 -19.15 -39.5 -19.1 M-38.15 -18.0 L-38.15 -18.05 -37.8 -17.95 -37.3 -17.85 Q-37.35 -17.65 -37.55 -17.5 L-38.15 -17.5 -38.15 -17.6 -38.2 -17.75 -38.15 -18.0 M-33.15 -12.4 L-33.2 -12.2 -33.35 -12.15 Q-33.4 -12.15 -33.4 -12.4 -33.4 -12.6 -33.3 -12.7 L-33.0 -12.7 -33.15 -12.4 M-34.35 -11.1 Q-34.05 -11.6 -33.7 -11.85 -33.3 -12.15 -33.0 -12.0 L-33.0 -12.15 -32.85 -12.1 -32.55 -12.05 Q-32.1 -12.05 -32.0 -12.25 -31.85 -12.55 -31.65 -12.6 -31.75 -12.4 -31.9 -12.2 -32.2 -11.9 -32.55 -11.8 L-32.65 -11.85 -32.85 -11.9 Q-33.3 -11.85 -33.8 -11.5 -34.3 -11.15 -34.35 -11.1 M-34.35 -10.15 Q-34.5 -10.05 -33.8 -9.45 L-33.85 -9.4 -34.0 -9.35 -34.35 -9.4 -34.55 -9.65 Q-34.6 -9.7 -34.6 -9.95 L-34.6 -10.25 Q-34.5 -10.45 -34.15 -10.55 -34.05 -10.35 -34.15 -10.25 -34.25 -10.25 -34.35 -10.15" fill="#ffffff" fill-rule="evenodd" stroke="none"/>
  </g>
</svg>
