<?xml version="1.0" encoding="UTF-8" standalone="no"?>
<svg xmlns:ffdec="https://www.free-decompiler.com/flash" xmlns:xlink="http://www.w3.org/1999/xlink" ffdec:objectType="shape" height="80.65px" width="66.9px" xmlns="http://www.w3.org/2000/svg">
  <g transform="matrix(1.0, 0.0, 0.0, 1.0, 11.7, 80.05)">
    <path d="M12.6 -35.8 L12.7 -35.75 12.6 -35.75 12.6 -35.8" fill="#ffffff" fill-rule="evenodd" stroke="none"/>
    <path d="M2.45 0.3 L2.25 0.2 Q2.45 -0.05 3.2 -0.3 L4.0 -0.5 5.7 -0.95 Q6.55 -1.3 7.0 -1.55 L7.95 -2.15 Q9.0 -2.8 9.15 -3.65 9.25 -4.0 9.2 -4.65 L9.2 -4.8 9.15 -5.2 Q9.15 -5.65 8.3 -5.65 L7.9 -5.6 7.4 -5.45 6.75 -5.45 Q6.4 -5.8 6.35 -6.1 6.3 -6.2 6.3 -6.7 6.3 -7.5 6.55 -8.25 6.8 -9.05 7.3 -9.35 L7.6 -9.55 8.7 -9.5 Q8.95 -9.4 9.05 -9.25 L9.2 -9.2 9.65 -9.0 9.9 -9.0 9.8 -8.95 10.0 -8.9 Q10.8 -8.9 11.4 -10.05 11.75 -10.65 11.9 -11.4 12.25 -12.5 12.0 -13.85 L11.1 -13.75 9.3 -13.5 Q6.85 -13.2 5.45 -12.1 5.1 -11.8 4.45 -11.2 3.9 -10.6 3.55 -10.35 L2.3 -10.4 Q1.5 -10.65 1.45 -11.25 1.4 -11.6 1.5 -12.45 1.5 -12.8 1.6 -13.5 L1.7 -14.35 Q1.7 -14.6 1.6 -14.7 L1.5 -14.9 Q-0.75 -15.3 -3.05 -12.1 -3.75 -11.1 -4.5 -9.7 L-5.25 -8.2 -5.75 -8.2 -5.8 -8.25 Q-5.95 -8.5 -6.0 -8.85 L-6.05 -9.6 -6.05 -9.65 Q-6.4 -9.05 -6.85 -7.55 -7.25 -6.1 -7.25 -5.6 -7.25 -5.5 -7.05 -5.25 L-6.9 -5.05 Q-6.8 -4.9 -6.8 -4.85 -6.8 -4.45 -7.0 -3.75 L-7.25 -3.15 Q-7.7 -1.95 -8.1 -1.7 L-8.45 -1.05 -8.05 -0.8 -7.95 -0.65 Q-7.95 -0.55 -8.2 -0.45 -8.5 -0.3 -8.8 -0.3 -9.3 -0.3 -9.45 -0.9 -9.5 -1.15 -9.5 -1.5 L-9.0 -2.45 Q-8.55 -3.35 -8.55 -4.0 -8.55 -5.5 -8.95 -6.75 -9.25 -7.6 -9.35 -8.3 L-9.4 -8.85 Q-9.4 -9.25 -9.35 -9.65 -9.2 -10.4 -8.85 -11.3 L-7.85 -13.95 Q-7.55 -14.8 -7.3 -15.2 -6.85 -15.8 -5.85 -16.45 -3.25 -18.2 -1.5 -18.65 -0.55 -18.85 0.15 -18.7 L0.35 -18.7 Q2.0 -18.45 4.15 -17.05 5.3 -16.3 5.7 -16.1 6.5 -15.65 7.15 -15.65 L7.55 -15.7 7.5 -15.7 7.5 -16.0 Q7.5 -16.15 7.8 -16.3 L8.6 -16.7 Q10.05 -17.5 11.4 -19.05 12.05 -19.8 12.6 -20.65 13.15 -21.5 13.4 -22.2 14.4 -24.65 14.6 -25.45 14.9 -26.65 14.9 -28.5 14.8 -29.6 14.55 -30.65 14.05 -32.85 13.9 -34.4 13.8 -34.95 13.25 -35.7 L13.15 -35.85 Q12.8 -36.3 12.5 -36.55 L12.45 -36.5 11.0 -37.8 Q10.75 -38.05 10.25 -38.65 9.9 -39.1 9.5 -39.35 8.5 -40.0 5.2 -40.5 L4.0 -40.4 Q2.05 -39.7 0.4 -37.9 -0.15 -37.3 -0.5 -36.75 L-0.4 -36.85 Q-0.45 -36.5 -1.05 -35.4 -1.2 -34.9 -1.2 -34.6 L-1.1 -34.15 -1.05 -33.7 -1.05 -32.95 -1.1 -32.95 -0.95 -32.65 Q-0.45 -31.65 -0.45 -30.75 -0.45 -30.65 -0.55 -30.0 L-0.6 -29.2 Q-0.6 -28.8 -0.45 -28.15 L-0.2 -27.1 -0.2 -26.95 -0.15 -25.65 -0.1 -24.65 Q-0.1 -23.2 -0.85 -22.05 L-1.2 -21.6 Q-1.35 -21.35 -1.5 -21.1 -2.8 -19.3 -4.4 -18.9 L-4.65 -18.85 -5.0 -18.85 Q-5.55 -18.95 -6.05 -19.4 -6.4 -19.45 -6.7 -19.75 -7.05 -20.05 -7.55 -20.95 L-8.15 -22.0 -8.3 -22.1 Q-8.65 -22.4 -9.05 -22.5 L-9.6 -22.4 Q-9.95 -22.15 -10.1 -21.8 -10.3 -21.25 -10.45 -21.1 L-10.5 -21.1 -10.5 -21.5 -10.6 -21.5 Q-10.65 -21.6 -10.65 -22.1 L-10.6 -22.4 Q-10.5 -23.45 -9.8 -24.8 -9.65 -25.15 -9.5 -25.35 L-9.4 -25.5 -9.35 -25.5 -9.3 -25.55 Q-9.2 -25.6 -9.15 -25.5 L-8.85 -25.5 -8.4 -25.1 Q-7.75 -24.45 -7.35 -23.65 -7.05 -22.95 -6.9 -21.9 L-6.85 -21.45 Q-6.75 -21.05 -6.5 -20.75 -6.25 -20.3 -5.8 -20.1 L-4.65 -20.2 -3.3 -20.45 Q-2.7 -21.05 -2.3 -22.15 -1.9 -23.3 -1.8 -24.6 -1.8 -25.15 -2.15 -25.8 -2.35 -26.15 -2.95 -27.0 L-3.3 -27.55 -3.6 -27.65 -3.8 -27.75 -3.9 -27.7 -4.75 -27.7 Q-7.55 -28.6 -8.8 -30.35 L-9.0 -30.65 Q-9.4 -31.4 -9.6 -32.3 -9.95 -33.1 -9.95 -33.75 -9.95 -34.95 -9.85 -35.95 L-9.9 -36.25 Q-9.9 -38.05 -9.2 -39.65 L-8.75 -40.55 -8.65 -40.85 Q-8.35 -41.95 -7.3 -43.0 -5.8 -44.15 -4.55 -44.85 L-3.9 -45.2 Q-3.15 -45.6 -2.55 -45.95 -1.5 -46.6 -0.75 -47.15 L-0.85 -47.05 -0.45 -47.35 Q0.25 -47.85 0.6 -48.2 0.9 -48.5 1.1 -48.85 L1.25 -49.1 1.5 -49.7 1.5 -49.8 1.7 -50.05 1.9 -50.55 1.6 -50.25 1.65 -50.55 2.1 -51.0 2.3 -51.65 Q3.15 -54.35 3.35 -54.9 L3.5 -55.15 3.7 -55.5 Q4.45 -56.65 6.05 -57.95 L7.25 -58.85 9.75 -60.6 13.5 -63.3 Q15.7 -64.9 17.1 -66.05 L18.75 -67.4 Q19.7 -68.25 20.55 -68.85 L21.2 -69.2 21.8 -69.75 21.85 -69.7 21.65 -69.45 22.55 -70.0 Q23.35 -70.45 23.6 -70.55 L23.7 -70.6 Q24.15 -70.7 24.15 -70.05 24.15 -69.75 23.6 -68.8 L23.0 -67.65 22.55 -66.8 Q21.2 -64.45 20.55 -63.55 L20.45 -63.4 Q22.3 -64.35 25.25 -66.15 L28.35 -68.1 Q28.6 -68.5 28.8 -68.9 L27.9 -69.05 27.85 -69.05 27.8 -69.2 27.8 -69.3 Q27.8 -69.85 29.75 -71.35 L30.9 -72.2 Q33.5 -74.1 34.2 -74.4 35.55 -75.0 36.7 -75.75 L38.35 -76.8 Q40.05 -77.85 42.7 -78.15 43.1 -78.05 43.25 -77.9 44.0 -78.2 44.3 -78.1 L44.5 -77.95 Q44.55 -77.85 44.55 -77.8 44.55 -77.7 43.75 -76.95 L42.8 -76.1 37.25 -68.55 Q33.65 -63.6 31.15 -59.75 32.5 -60.65 34.35 -61.75 36.35 -62.9 38.0 -63.7 L38.55 -63.65 38.7 -63.6 38.7 -63.35 Q38.7 -62.8 36.55 -60.5 L34.2 -58.1 32.2 -55.6 Q31.0 -54.05 30.4 -52.95 L30.8 -53.15 Q31.0 -53.25 31.2 -53.3 L31.45 -53.25 Q31.5 -53.2 31.5 -52.9 31.5 -52.0 30.35 -50.3 29.35 -49.0 28.9 -48.35 L28.9 -48.25 Q29.3 -48.05 29.9 -47.85 30.45 -47.7 30.65 -47.65 31.15 -46.9 31.35 -46.4 31.5 -45.9 31.5 -45.45 31.5 -44.5 31.3 -44.0 31.15 -43.6 30.7 -43.35 L29.75 -42.9 Q29.05 -42.6 28.5 -42.05 28.05 -41.65 27.6 -40.55 27.15 -39.45 27.15 -38.75 27.15 -38.35 27.35 -38.0 27.65 -37.5 28.2 -37.5 30.9 -37.5 33.75 -40.15 35.15 -41.45 36.2 -42.9 37.2 -43.7 38.1 -46.0 38.65 -47.55 38.8 -48.4 38.8 -48.85 38.4 -49.2 37.95 -49.5 37.95 -49.85 37.95 -50.05 38.25 -50.9 38.55 -51.7 38.55 -52.05 38.55 -52.1 38.4 -52.4 38.25 -52.65 38.2 -52.75 L38.1 -52.75 Q37.05 -52.65 35.7 -52.0 L34.1 -51.15 33.9 -51.15 Q33.85 -51.15 33.85 -51.45 33.85 -51.7 34.95 -52.55 35.6 -53.1 36.15 -53.4 L37.15 -54.1 Q37.4 -54.35 38.0 -54.9 L38.25 -55.15 Q39.1 -56.1 39.85 -56.65 L40.15 -57.05 Q40.55 -57.45 41.05 -57.7 41.55 -58.0 42.15 -58.15 L42.55 -58.2 43.15 -58.15 Q43.4 -57.55 43.2 -57.05 44.0 -57.35 45.05 -57.95 L46.85 -59.1 Q48.95 -60.4 50.4 -60.5 50.85 -60.75 51.1 -60.75 L51.1 -60.6 49.55 -58.15 Q47.9 -55.65 47.55 -54.75 47.3 -54.2 47.1 -53.3 L46.8 -51.85 46.7 -51.15 Q46.6 -50.7 46.35 -50.4 46.2 -50.15 46.0 -49.7 L45.65 -48.95 45.6 -48.95 Q45.5 -48.6 45.55 -48.1 L45.6 -47.2 Q45.6 -46.35 44.35 -44.9 L43.45 -43.85 Q42.85 -42.85 42.05 -41.6 L41.2 -40.4 40.45 -39.3 40.2 -38.95 39.9 -38.55 Q39.55 -38.1 38.95 -37.1 38.25 -36.0 37.75 -35.4 37.4 -34.95 36.95 -34.6 L36.1 -33.5 Q34.75 -31.95 34.2 -31.35 33.3 -30.45 32.5 -30.05 31.8 -29.65 30.75 -29.5 L29.85 -29.2 Q29.2 -29.0 28.15 -28.75 27.25 -28.55 27.05 -28.45 26.25 -28.1 25.6 -27.55 25.4 -27.25 25.2 -26.9 L24.55 -25.5 Q25.3 -25.95 26.1 -26.55 27.3 -27.4 27.6 -27.6 29.2 -28.55 31.7 -28.55 33.2 -28.55 35.75 -30.8 36.65 -31.6 38.7 -33.8 39.8 -34.95 40.8 -36.6 L41.7 -38.1 42.4 -39.25 42.6 -39.25 Q42.9 -39.6 43.1 -39.6 L43.2 -39.6 Q43.3 -39.6 43.25 -39.55 L43.3 -39.55 43.3 -39.4 Q43.3 -39.3 43.05 -38.85 L42.8 -38.4 Q43.6 -38.9 44.55 -39.9 L46.05 -41.45 46.25 -41.7 46.75 -42.15 Q48.7 -43.95 50.45 -44.5 L50.55 -44.45 Q49.45 -43.5 48.75 -41.65 L48.85 -41.75 48.5 -40.95 Q48.25 -40.25 48.15 -39.95 47.9 -39.45 47.6 -39.05 L47.15 -38.25 Q45.65 -35.5 45.35 -34.8 44.6 -33.1 43.45 -31.25 42.2 -29.3 40.9 -27.8 40.4 -27.25 38.2 -24.4 36.45 -22.1 35.25 -20.95 34.1 -19.8 31.65 -17.85 L27.9 -14.8 27.75 -14.7 29.8 -15.1 Q31.0 -15.3 32.65 -15.3 L33.7 -15.25 Q33.85 -15.05 33.85 -15.0 L40.6 -14.9 Q41.05 -14.7 41.8 -14.65 L43.15 -14.6 Q44.8 -14.4 45.45 -13.45 L45.2 -13.25 45.05 -13.05 Q31.55 -12.0 26.5 -10.1 24.4 -9.35 22.85 -8.15 22.35 -7.8 20.25 -5.8 21.35 -5.2 23.0 -5.15 L24.45 -5.25 Q26.15 -5.15 28.4 -5.15 L29.3 -5.2 30.8 -5.05 Q31.15 -4.9 31.25 -4.75 31.25 -4.5 31.15 -4.4 28.1 -3.45 26.95 -3.15 L26.25 -3.1 25.45 -3.0 Q24.1 -2.95 23.95 -2.8 20.9 -2.45 18.4 -1.9 16.5 -1.45 12.5 -1.2 L11.85 -1.1 12.0 -0.95 12.95 -0.8 13.2 -0.7 13.55 -0.55 13.35 -0.2 Q13.2 0.05 13.0 0.15 L10.5 0.3 9.6 0.35 9.55 0.35 Q9.3 0.45 9.05 0.45 L8.3 0.4 8.1 0.45 7.7 0.4 7.6 0.35 6.8 0.3 3.5 0.3 2.45 0.3 M12.1 -61.85 L12.1 -61.85 M42.85 -76.9 L42.8 -76.9 42.65 -76.65 42.85 -76.9 M6.7 -6.4 L6.7 -6.4 M-1.15 -24.25 L-1.25 -24.55 -1.2 -24.0 -1.2 -23.85 -1.15 -24.25" fill="#7e59a6" fill-rule="evenodd" stroke="none"/>
    <path d="M2.45 0.3 L2.0 0.25 1.8 0.1 Q1.7 0.0 1.7 -0.25 1.7 -1.0 3.9 -1.95 L5.6 -2.7 Q6.5 -3.1 6.85 -3.35 L6.35 -3.9 5.7 -3.95 5.15 -4.1 4.85 -4.85 Q4.55 -5.65 4.55 -5.8 4.55 -6.0 4.6 -6.1 4.75 -6.3 5.2 -6.3 5.2 -6.45 5.1 -6.75 5.0 -7.15 5.0 -7.35 5.0 -7.6 5.6 -8.35 6.2 -9.1 6.2 -9.45 6.2 -9.6 6.0 -9.85 L5.5 -10.35 Q3.9 -10.1 2.85 -9.1 1.95 -7.9 1.35 -7.45 L0.45 -7.5 Q0.3 -7.65 0.1 -8.35 -0.15 -9.05 -0.15 -9.35 -0.15 -9.65 -0.05 -10.15 0.05 -10.65 0.15 -11.05 L0.15 -12.45 0.2 -12.55 Q0.2 -12.65 -0.1 -12.65 -0.85 -12.65 -1.55 -11.7 -2.05 -11.0 -2.7 -9.55 -3.5 -7.8 -3.75 -7.4 -4.3 -6.4 -4.8 -6.4 -5.0 -6.4 -5.45 -6.75 L-6.05 -7.3 -6.1 -6.15 -6.05 -5.2 Q-6.05 -4.7 -6.3 -3.7 -6.5 -3.0 -6.65 -2.5 -6.75 -2.2 -6.75 -1.8 L-6.75 -1.15 Q-6.8 -0.45 -7.6 0.0 L-8.25 -0.05 -9.1 -0.15 Q-9.8 -0.9 -9.9 -1.3 -9.95 -1.5 -9.95 -2.4 -9.95 -2.55 -9.7 -3.45 -9.45 -4.4 -9.45 -4.55 -9.45 -5.3 -9.7 -6.8 -9.9 -8.3 -9.9 -9.5 -9.9 -10.85 -9.55 -12.1 -9.4 -12.7 -8.55 -14.95 -8.3 -15.55 -7.75 -16.25 -7.15 -17.15 -6.4 -17.65 -6.05 -17.85 -5.7 -18.1 -7.15 -18.25 -7.95 -19.05 L-8.55 -19.75 Q-8.8 -20.1 -9.0 -20.1 -9.25 -20.1 -9.4 -19.9 L-9.45 -19.7 -11.5 -19.75 Q-11.65 -19.95 -11.65 -20.05 L-11.7 -20.45 Q-11.7 -20.55 -11.25 -21.75 -10.8 -23.0 -10.8 -23.3 -10.8 -23.4 -10.8 -23.9 -10.8 -24.35 -10.7 -24.75 -10.3 -25.8 -8.7 -25.8 -7.05 -25.8 -6.15 -24.05 L-5.6 -22.85 Q-5.3 -22.35 -5.05 -22.35 -4.25 -22.35 -3.95 -23.3 -3.75 -23.8 -3.75 -24.35 -3.75 -25.0 -4.3 -26.0 -4.8 -26.85 -5.35 -27.45 -5.85 -27.95 -6.5 -28.15 L-7.9 -28.45 Q-8.2 -28.55 -8.65 -29.0 L-9.4 -29.8 Q-10.65 -31.15 -11.15 -32.75 -11.5 -33.95 -11.5 -35.55 -11.5 -38.4 -10.1 -40.45 -8.7 -42.5 -4.95 -45.15 L-2.3 -47.0 Q-0.75 -48.1 0.15 -49.3 0.75 -50.15 1.25 -51.65 L2.0 -54.05 Q3.2 -56.9 5.85 -58.65 6.95 -59.35 8.6 -60.85 L11.05 -63.15 Q14.15 -65.95 17.4 -68.15 21.0 -70.6 23.85 -71.6 L23.65 -71.7 Q23.65 -71.75 23.75 -71.85 L23.85 -72.05 24.9 -72.05 25.2 -71.75 Q25.35 -71.55 25.35 -71.3 L24.9 -70.25 Q24.45 -69.15 24.45 -68.75 L24.45 -68.6 Q24.45 -68.5 24.7 -68.5 25.5 -68.5 25.95 -68.8 26.25 -69.05 26.55 -69.55 L27.05 -70.45 Q27.4 -71.0 28.0 -71.3 27.3 -71.9 27.3 -72.15 27.3 -72.7 28.5 -73.5 29.65 -74.25 31.05 -74.8 34.35 -76.05 36.0 -76.9 L38.1 -78.0 Q39.2 -78.55 40.75 -79.05 43.35 -79.95 45.05 -80.05 47.1 -80.15 47.1 -79.05 47.1 -78.7 45.25 -77.0 43.3 -75.3 43.2 -75.15 42.75 -74.55 41.95 -73.2 41.2 -72.0 40.75 -71.4 39.55 -69.8 37.85 -67.7 L34.75 -63.85 34.7 -63.8 Q34.7 -63.7 34.95 -63.7 35.65 -63.7 37.6 -64.55 39.8 -65.5 40.35 -65.65 L40.8 -65.6 41.05 -65.4 Q41.15 -65.25 41.15 -64.95 41.15 -64.35 38.9 -61.75 L36.55 -59.15 Q35.55 -57.7 34.45 -56.1 32.9 -53.85 32.9 -53.55 32.9 -53.25 33.0 -53.1 L33.15 -52.9 33.9 -52.95 Q34.9 -53.6 35.95 -54.55 36.6 -55.1 37.75 -56.15 39.85 -58.0 41.85 -58.7 42.15 -58.8 42.45 -59.05 L42.95 -59.4 Q43.65 -59.8 44.9 -59.9 L45.75 -59.85 Q45.85 -59.8 46.25 -60.0 46.55 -60.15 46.8 -60.45 47.05 -60.7 47.25 -60.8 L50.05 -62.25 Q52.1 -63.25 53.35 -63.45 L54.55 -63.45 54.95 -63.4 55.15 -63.25 Q55.2 -63.15 55.2 -62.85 55.2 -62.4 52.85 -59.6 50.7 -57.05 50.4 -56.8 49.15 -55.7 48.4 -53.8 47.7 -51.65 47.25 -50.6 46.9 -49.95 46.8 -49.0 L46.75 -47.4 Q46.6 -45.45 45.2 -44.4 43.7 -43.2 42.5 -41.35 41.25 -39.2 40.6 -38.2 L40.55 -38.1 Q41.35 -38.4 42.05 -39.3 42.9 -40.3 43.45 -40.6 45.9 -42.05 46.5 -42.95 47.25 -44.2 49.05 -45.5 51.15 -47.1 53.55 -47.8 L53.95 -47.75 Q54.0 -47.7 54.05 -47.7 L54.05 -47.4 Q54.05 -47.2 52.0 -44.05 L49.15 -39.65 Q48.4 -38.5 47.1 -35.95 45.8 -33.45 44.9 -32.05 44.4 -31.3 43.95 -30.2 L43.15 -28.25 Q42.15 -25.85 40.7 -24.45 L38.85 -22.6 Q37.65 -21.45 36.35 -20.65 35.55 -20.15 34.15 -18.95 32.3 -17.4 32.3 -16.85 32.3 -16.6 32.35 -16.55 L32.5 -16.5 34.7 -16.75 36.15 -16.95 37.95 -16.75 Q39.85 -16.55 40.5 -16.35 L42.05 -16.15 44.1 -15.95 Q44.3 -15.75 45.7 -14.95 47.05 -14.15 47.05 -13.6 47.05 -13.5 46.75 -13.25 46.5 -12.95 46.2 -12.85 45.9 -12.65 45.6 -12.7 L45.35 -12.75 Q44.8 -12.55 44.2 -12.4 L44.15 -12.35 43.05 -12.15 Q42.45 -12.0 41.85 -11.7 L41.6 -11.75 41.75 -11.9 37.75 -11.2 31.25 -10.05 Q24.25 -8.7 24.25 -7.3 24.25 -6.9 25.15 -6.2 25.75 -5.75 26.8 -5.8 L28.45 -5.7 Q28.95 -5.55 29.6 -5.5 L31.0 -5.35 31.75 -4.65 Q32.2 -4.2 32.3 -3.85 31.15 -3.05 29.2 -2.4 27.55 -1.85 24.45 -1.15 L18.25 -1.1 14.2 -0.65 Q14.15 -0.65 14.2 -0.35 14.2 -0.05 13.95 0.1 13.1 0.6 9.1 0.6 L8.7 0.6 Q8.65 0.55 8.55 0.5 L6.1 0.45 3.6 0.3 3.5 0.3 6.8 0.3 7.6 0.35 7.7 0.4 8.1 0.45 8.3 0.4 9.05 0.45 Q9.3 0.45 9.55 0.35 L9.6 0.35 10.5 0.3 13.0 0.15 Q13.2 0.05 13.35 -0.2 L13.55 -0.55 13.2 -0.7 12.95 -0.8 12.0 -0.95 11.85 -1.1 12.5 -1.2 Q16.5 -1.45 18.4 -1.9 20.9 -2.45 23.95 -2.8 24.1 -2.95 25.45 -3.0 L26.25 -3.1 26.95 -3.15 Q28.1 -3.45 31.15 -4.4 31.25 -4.5 31.25 -4.75 31.15 -4.9 30.8 -5.05 L29.3 -5.2 28.4 -5.15 Q26.15 -5.15 24.45 -5.25 L23.0 -5.15 Q21.35 -5.2 20.25 -5.8 22.35 -7.8 22.85 -8.15 24.4 -9.35 26.5 -10.1 31.55 -12.0 45.05 -13.05 L45.2 -13.25 45.45 -13.45 Q44.8 -14.4 43.15 -14.6 L41.8 -14.65 Q41.05 -14.7 40.6 -14.9 L33.85 -15.0 Q33.85 -15.05 33.7 -15.25 L32.65 -15.3 Q31.0 -15.3 29.8 -15.1 L27.75 -14.7 27.9 -14.8 31.65 -17.85 Q34.1 -19.8 35.25 -20.95 36.45 -22.1 38.2 -24.4 40.4 -27.25 40.9 -27.8 42.2 -29.3 43.45 -31.25 44.6 -33.1 45.35 -34.8 45.65 -35.5 47.15 -38.25 L47.6 -39.05 Q47.9 -39.45 48.15 -39.95 48.25 -40.25 48.5 -40.95 L48.85 -41.75 48.75 -41.65 Q49.45 -43.5 50.55 -44.45 L50.45 -44.5 Q48.7 -43.95 46.75 -42.15 L46.25 -41.7 46.05 -41.45 44.55 -39.9 Q43.6 -38.9 42.8 -38.4 L43.05 -38.85 Q43.3 -39.3 43.3 -39.4 L43.3 -39.55 43.25 -39.55 Q43.3 -39.6 43.2 -39.6 L43.1 -39.6 Q42.9 -39.6 42.6 -39.25 L42.4 -39.25 41.7 -38.1 40.8 -36.6 Q39.8 -34.95 38.7 -33.8 36.65 -31.6 35.75 -30.8 33.2 -28.55 31.7 -28.55 29.2 -28.55 27.6 -27.6 27.3 -27.4 26.1 -26.55 25.3 -25.95 24.55 -25.5 L25.2 -26.9 Q25.4 -27.25 25.6 -27.55 26.25 -28.1 27.05 -28.45 27.25 -28.55 28.15 -28.75 29.2 -29.0 29.85 -29.2 L30.75 -29.5 Q31.8 -29.65 32.5 -30.05 33.3 -30.45 34.2 -31.35 34.75 -31.95 36.1 -33.5 L36.95 -34.6 Q37.4 -34.95 37.75 -35.4 38.25 -36.0 38.95 -37.1 39.55 -38.1 39.9 -38.55 L40.2 -38.95 40.45 -39.3 41.2 -40.4 42.05 -41.6 Q42.85 -42.85 43.45 -43.85 L44.35 -44.9 Q45.6 -46.35 45.6 -47.2 L45.55 -48.1 Q45.5 -48.6 45.6 -48.95 L45.65 -48.95 46.0 -49.7 Q46.2 -50.15 46.35 -50.4 46.6 -50.7 46.7 -51.15 L46.8 -51.85 47.1 -53.3 Q47.3 -54.2 47.55 -54.75 47.9 -55.65 49.55 -58.15 L51.1 -60.6 51.1 -60.75 Q50.85 -60.75 50.4 -60.5 48.95 -60.4 46.85 -59.1 L45.05 -57.95 Q44.0 -57.35 43.2 -57.05 43.4 -57.55 43.15 -58.15 L42.55 -58.2 42.15 -58.15 Q41.55 -58.0 41.05 -57.7 40.55 -57.45 40.15 -57.05 L39.85 -56.65 Q39.1 -56.1 38.25 -55.15 L38.0 -54.9 Q37.4 -54.35 37.15 -54.1 L36.15 -53.4 Q35.6 -53.1 34.95 -52.55 33.85 -51.7 33.85 -51.45 33.85 -51.15 33.9 -51.15 L34.1 -51.15 35.7 -52.0 Q37.05 -52.65 38.1 -52.75 L38.2 -52.75 Q38.25 -52.65 38.4 -52.4 38.55 -52.1 38.55 -52.05 38.55 -51.7 38.25 -50.9 37.95 -50.05 37.95 -49.85 37.95 -49.5 38.4 -49.2 38.8 -48.85 38.8 -48.4 38.65 -47.55 38.1 -46.0 37.2 -43.7 36.2 -42.9 35.15 -41.45 33.75 -40.15 30.9 -37.5 28.2 -37.5 27.65 -37.5 27.35 -38.0 27.15 -38.35 27.15 -38.75 27.15 -39.45 27.6 -40.55 28.05 -41.65 28.5 -42.05 29.05 -42.6 29.75 -42.9 L30.7 -43.35 Q31.15 -43.6 31.3 -44.0 31.5 -44.5 31.5 -45.45 31.5 -45.9 31.35 -46.4 31.15 -46.9 30.65 -47.65 30.45 -47.7 29.9 -47.85 29.3 -48.05 28.9 -48.25 L28.9 -48.35 Q29.35 -49.0 30.35 -50.3 31.5 -52.0 31.5 -52.9 31.5 -53.2 31.45 -53.25 L31.2 -53.3 Q31.0 -53.25 30.8 -53.15 L30.4 -52.95 Q31.0 -54.05 32.2 -55.6 L34.2 -58.1 36.55 -60.5 Q38.7 -62.8 38.7 -63.35 L38.7 -63.6 38.55 -63.65 38.0 -63.7 Q36.35 -62.9 34.35 -61.75 32.5 -60.65 31.15 -59.75 33.65 -63.6 37.25 -68.55 L42.8 -76.1 43.75 -76.95 Q44.55 -77.7 44.55 -77.8 44.55 -77.85 44.5 -77.95 L44.3 -78.1 Q44.0 -78.2 43.25 -77.9 43.1 -78.05 42.7 -78.15 40.05 -77.85 38.35 -76.8 L36.7 -75.75 Q35.55 -75.0 34.2 -74.4 33.5 -74.1 30.9 -72.2 L29.75 -71.35 Q27.8 -69.85 27.8 -69.3 L27.8 -69.2 27.85 -69.05 27.9 -69.05 28.8 -68.9 Q28.6 -68.5 28.35 -68.1 L25.25 -66.15 Q22.3 -64.35 20.45 -63.4 L20.55 -63.55 Q21.2 -64.45 22.55 -66.8 L23.0 -67.65 23.6 -68.8 Q24.15 -69.75 24.15 -70.05 24.15 -70.7 23.7 -70.6 L23.6 -70.55 Q23.35 -70.45 22.55 -70.0 L21.65 -69.45 21.85 -69.7 21.8 -69.75 21.2 -69.2 20.55 -68.85 Q19.7 -68.25 18.75 -67.4 L17.1 -66.05 Q15.7 -64.9 13.5 -63.3 L9.75 -60.6 7.25 -58.85 6.05 -57.95 Q4.45 -56.65 3.7 -55.5 L3.5 -55.15 3.35 -54.9 Q3.15 -54.35 2.3 -51.65 L2.1 -51.0 1.65 -50.55 1.6 -50.25 1.9 -50.55 1.7 -50.05 1.5 -49.8 1.5 -49.7 1.25 -49.1 1.1 -48.85 Q0.9 -48.5 0.6 -48.2 0.25 -47.85 -0.45 -47.35 L-0.85 -47.05 -0.75 -47.15 Q-1.5 -46.6 -2.55 -45.95 -3.15 -45.6 -3.9 -45.2 L-4.55 -44.85 Q-5.8 -44.15 -7.3 -43.0 -8.35 -41.95 -8.65 -40.85 L-8.75 -40.55 -9.2 -39.65 Q-9.9 -38.05 -9.9 -36.25 L-9.85 -35.95 Q-9.95 -34.95 -9.95 -33.75 -9.95 -33.1 -9.6 -32.3 -9.4 -31.4 -9.0 -30.65 L-8.8 -30.35 Q-7.55 -28.6 -4.75 -27.7 L-3.9 -27.7 -3.8 -27.75 -3.6 -27.65 -3.3 -27.55 -2.95 -27.0 Q-2.35 -26.15 -2.15 -25.8 -1.8 -25.15 -1.8 -24.6 -1.9 -23.3 -2.3 -22.15 -2.7 -21.05 -3.3 -20.45 L-4.65 -20.2 -5.8 -20.1 Q-6.25 -20.3 -6.5 -20.75 -6.75 -21.05 -6.85 -21.45 L-6.9 -21.9 Q-7.05 -22.95 -7.35 -23.65 -7.75 -24.45 -8.4 -25.1 L-8.85 -25.5 -9.15 -25.5 Q-9.2 -25.6 -9.3 -25.55 L-9.35 -25.5 -9.4 -25.5 -9.5 -25.35 Q-9.65 -25.15 -9.8 -24.8 -10.5 -23.45 -10.6 -22.4 L-10.65 -22.1 Q-10.65 -21.6 -10.6 -21.5 L-10.5 -21.5 -10.5 -21.1 -10.45 -21.1 Q-10.3 -21.25 -10.1 -21.8 -9.95 -22.15 -9.6 -22.4 L-9.05 -22.5 Q-8.65 -22.4 -8.3 -22.1 L-8.15 -22.0 -7.55 -20.95 Q-7.05 -20.05 -6.7 -19.75 -6.4 -19.45 -6.05 -19.4 -5.55 -18.95 -5.0 -18.85 L-4.65 -18.85 -4.4 -18.9 Q-2.8 -19.3 -1.5 -21.1 -1.35 -21.35 -1.2 -21.6 L-0.85 -22.05 Q-0.1 -23.2 -0.1 -24.65 L-0.15 -25.65 -0.2 -26.95 -0.2 -27.1 -0.45 -28.15 Q-0.6 -28.8 -0.6 -29.2 L-0.55 -30.0 Q-0.45 -30.65 -0.45 -30.75 -0.45 -31.65 -0.95 -32.65 L-1.1 -32.95 -1.05 -32.95 -1.05 -33.7 -1.1 -34.15 -1.2 -34.6 Q-1.2 -34.9 -1.05 -35.4 -0.45 -36.5 -0.4 -36.85 L-0.5 -36.75 Q-0.15 -37.3 0.4 -37.9 2.05 -39.7 4.0 -40.4 L5.2 -40.5 Q8.5 -40.0 9.5 -39.35 9.9 -39.1 10.25 -38.65 10.75 -38.05 11.0 -37.8 L12.45 -36.5 12.5 -36.55 Q12.8 -36.3 13.15 -35.85 L13.25 -35.7 Q13.8 -34.95 13.9 -34.4 14.05 -32.85 14.55 -30.65 14.8 -29.6 14.9 -28.5 14.9 -26.65 14.6 -25.45 14.4 -24.65 13.4 -22.2 13.15 -21.5 12.6 -20.65 12.05 -19.8 11.4 -19.05 10.05 -17.5 8.6 -16.7 L7.8 -16.3 Q7.5 -16.15 7.5 -16.0 L7.5 -15.7 7.55 -15.7 7.15 -15.65 Q6.5 -15.65 5.7 -16.1 5.3 -16.3 4.15 -17.05 2.0 -18.45 0.35 -18.7 L0.15 -18.7 Q-0.55 -18.85 -1.5 -18.65 -3.25 -18.2 -5.85 -16.45 -6.85 -15.8 -7.3 -15.2 -7.55 -14.8 -7.85 -13.95 L-8.85 -11.3 Q-9.2 -10.4 -9.35 -9.65 -9.4 -9.25 -9.4 -8.85 L-9.35 -8.3 Q-9.25 -7.6 -8.95 -6.75 -8.55 -5.5 -8.55 -4.0 -8.55 -3.35 -9.0 -2.45 L-9.5 -1.5 Q-9.5 -1.15 -9.45 -0.9 -9.3 -0.3 -8.8 -0.3 -8.5 -0.3 -8.2 -0.45 -7.95 -0.55 -7.95 -0.65 L-8.05 -0.8 -8.45 -1.05 -8.1 -1.7 Q-7.7 -1.95 -7.25 -3.15 L-7.0 -3.75 Q-6.8 -4.45 -6.8 -4.85 -6.8 -4.9 -6.9 -5.05 L-7.05 -5.25 Q-7.25 -5.5 -7.25 -5.6 -7.25 -6.1 -6.85 -7.55 -6.4 -9.05 -6.05 -9.65 L-6.05 -9.6 -6.0 -8.85 Q-5.95 -8.5 -5.8 -8.25 L-5.75 -8.2 -5.25 -8.2 -4.5 -9.7 Q-3.75 -11.1 -3.05 -12.1 -0.75 -15.3 1.5 -14.9 L1.6 -14.7 Q1.7 -14.6 1.7 -14.35 L1.6 -13.5 Q1.5 -12.8 1.5 -12.45 1.4 -11.6 1.45 -11.25 1.5 -10.65 2.3 -10.4 L3.55 -10.35 Q3.9 -10.6 4.45 -11.2 5.1 -11.8 5.45 -12.1 6.85 -13.2 9.3 -13.5 L11.1 -13.75 12.0 -13.85 Q12.25 -12.5 11.9 -11.4 11.75 -10.65 11.4 -10.05 10.8 -8.9 10.0 -8.9 L9.8 -8.95 9.9 -9.0 9.65 -9.0 9.2 -9.2 9.05 -9.25 Q8.95 -9.4 8.7 -9.5 L7.6 -9.55 7.3 -9.35 Q6.8 -9.05 6.55 -8.25 6.3 -7.5 6.3 -6.7 6.3 -6.2 6.35 -6.1 6.4 -5.8 6.75 -5.45 L7.4 -5.45 7.9 -5.6 8.3 -5.65 Q9.15 -5.65 9.15 -5.2 L9.2 -4.8 9.2 -4.65 Q9.25 -4.0 9.15 -3.65 9.0 -2.8 7.95 -2.15 L7.0 -1.55 Q6.55 -1.3 5.7 -0.95 L4.0 -0.5 3.2 -0.3 Q2.45 -0.05 2.25 0.2 L2.45 0.3 M3.35 -35.4 Q3.3 -34.9 3.35 -34.1 L3.45 -32.95 Q3.45 -31.95 3.05 -31.05 L3.05 -30.85 Q3.05 -30.55 2.85 -30.0 2.6 -29.35 2.55 -29.0 L2.3 -27.35 2.0 -25.6 Q1.85 -24.65 1.55 -23.95 0.95 -22.35 -0.1 -20.9 -0.7 -20.05 -1.3 -19.5 L5.15 -19.95 Q6.1 -20.1 6.6 -20.3 6.95 -20.45 7.4 -20.85 8.1 -21.45 8.7 -22.1 9.15 -22.65 9.75 -23.5 10.8 -24.95 11.2 -26.3 11.55 -27.45 11.55 -28.9 11.55 -29.8 11.2 -31.2 10.8 -32.7 10.35 -33.1 L9.3 -33.2 Q8.95 -33.6 8.75 -34.4 L8.3 -35.75 Q7.6 -37.35 5.25 -37.85 3.55 -37.0 3.35 -35.4 M12.6 -35.8 L12.6 -35.75 12.7 -35.75 12.6 -35.8" fill="#443059" fill-opacity="0.5019608" fill-rule="evenodd" stroke="none"/>
  </g>
</svg>
