<?xml version="1.0" encoding="UTF-8" standalone="no"?>
<svg xmlns:ffdec="https://www.free-decompiler.com/flash" xmlns:xlink="http://www.w3.org/1999/xlink" ffdec:objectType="shape" height="11.05px" width="10.8px" xmlns="http://www.w3.org/2000/svg">
  <g transform="matrix(1.0, 0.0, 0.0, 1.0, 7.2, 6.5)">
    <path d="M2.65 -1.7 Q2.6 -1.65 2.6 -1.6 L2.65 -1.5 Q2.6 -1.5 2.6 -1.55 L2.6 -1.6 Q2.6 -1.65 2.6 -1.7 L2.65 -1.7 M2.5 -1.1 L2.55 -1.1 Q2.5 -1.1 2.5 -1.05 L2.5 -0.95 2.45 -1.05 2.45 -1.1 2.5 -1.1 M2.7 -1.45 L2.75 -1.35 Q2.7 -1.35 2.7 -1.4 L2.7 -1.5 Q2.7 -1.55 2.75 -1.55 2.7 -1.5 2.7 -1.45 M2.65 -0.95 L2.7 -1.05 2.75 -1.1 Q2.75 -1.05 2.65 -0.95 M2.1 -0.15 L2.15 -0.15 2.1 -0.15 2.1 -0.1 2.05 -0.1 2.1 -0.15 M2.4 0.0 Q2.35 0.15 2.3 0.2 L2.4 0.0 M1.25 0.55 L1.25 0.65 1.2 0.6 1.2 0.55 1.25 0.55 M1.7 0.65 L1.75 0.6 1.8 0.6 Q1.75 0.65 1.7 0.65 M-0.3 -0.45 L-0.35 -0.4 -0.35 -0.45 -0.3 -0.5 -0.3 -0.45 M-1.1 0.4 L-1.1 0.35 -1.05 0.3 -1.05 0.35 -1.1 0.4" fill="#00ff00" fill-rule="evenodd" stroke="none"/>
    <path d="M1.8 0.05 L1.8 0.0 1.85 0.0 1.8 0.05 1.8 0.05" fill="#006600" fill-rule="evenodd" stroke="none"/>
    <path d="M0.7 -6.35 L0.7 -6.25 0.65 -6.2 0.55 -6.2 0.5 -6.15 0.4 -6.15 Q0.35 -6.25 0.35 -6.3 0.35 -6.45 0.5 -6.5 0.6 -6.5 0.65 -6.45 0.7 -6.4 0.7 -6.35 M2.25 -0.15 L2.3 -0.3 Q2.3 -0.35 2.3 -0.45 2.3 -0.55 2.35 -0.6 L2.45 -0.6 Q2.35 -0.6 2.35 -0.55 L2.35 -0.45 2.3 -0.4 2.3 -0.15 Q2.25 -0.05 2.15 -0.05 L2.15 0.0 Q2.2 -0.05 2.25 -0.15 M1.85 0.15 L1.85 0.1 1.8 0.05 1.85 0.0 1.95 0.0 2.0 0.05 1.95 0.05 1.95 0.0 1.9 0.0 1.9 0.05 Q1.9 0.1 1.85 0.1 L1.9 0.1 1.9 0.2 Q1.9 0.25 1.8 0.4 1.7 0.5 1.6 0.55 L1.55 0.5 Q1.65 0.5 1.8 0.35 1.9 0.25 1.9 0.15 L1.85 0.15 M1.8 0.05 L1.8 0.05 M0.6 1.15 Q0.65 1.1 0.65 1.15 L0.6 1.2 0.6 1.15 M0.75 1.25 L0.75 1.3 0.7 1.25 0.75 1.25 M-0.15 1.6 Q-0.15 1.55 -0.1 1.55 L-0.1 1.6 -0.15 1.6 M0.15 1.6 L0.2 1.65 0.15 1.65 0.15 1.6 M-4.7 -0.25 Q-4.65 -0.35 -4.55 -0.4 -4.55 -0.35 -4.6 -0.15 -4.65 0.05 -4.7 0.05 -4.75 0.05 -4.75 0.0 L-4.75 -0.05 Q-4.75 -0.15 -4.7 -0.25 M-4.55 -0.6 L-4.45 -0.65 Q-4.45 -0.7 -4.45 -0.65 L-4.45 -0.6 -4.5 -0.55 -4.55 -0.55 -4.55 -0.6 M-3.0 4.1 L-2.95 4.1 Q-2.9 4.2 -2.85 4.3 -2.8 4.4 -2.8 4.5 L-2.9 4.55 Q-3.0 4.45 -3.0 4.35 -3.05 4.3 -3.0 4.2 L-3.0 4.1 M-7.0 0.8 Q-7.0 1.0 -7.1 1.1 L-7.2 0.95 Q-7.2 0.9 -7.15 0.85 -7.1 0.7 -7.05 0.7 L-7.05 0.75 Q-7.0 0.75 -7.0 0.8" fill="#bcd463" fill-rule="evenodd" stroke="none"/>
    <path d="M2.95 -5.3 L2.9 -5.2 2.85 -5.2 2.8 -5.3 Q2.75 -5.35 2.75 -5.4 2.75 -5.5 2.85 -5.55 2.95 -5.6 2.95 -5.4 L2.95 -5.3 M2.95 -4.8 L2.9 -4.75 2.85 -4.8 2.85 -4.85 Q2.85 -4.95 2.9 -4.95 2.95 -4.9 2.95 -4.85 L2.95 -4.8 M3.6 -4.05 Q3.6 -3.85 3.55 -3.85 L3.5 -3.85 3.5 -3.9 3.45 -3.9 Q3.45 -3.95 3.45 -4.05 L3.6 -4.05 M3.15 -3.65 L3.2 -3.7 Q3.25 -3.75 3.25 -3.8 L3.3 -3.75 3.3 -3.55 3.2 -3.55 3.2 -3.6 Q3.15 -3.6 3.15 -3.65 M3.2 -3.75 L3.2 -3.7 3.25 -3.75 3.2 -3.75 M2.05 -3.6 Q2.05 -3.55 2.0 -3.5 L1.95 -3.4 1.8 -3.4 1.8 -3.45 Q1.8 -3.65 1.9 -3.7 2.05 -3.7 2.05 -3.6 M1.35 -2.4 L1.3 -2.4 Q1.35 -2.5 1.4 -2.5 L1.45 -2.5 1.45 -2.4 1.4 -2.35 Q1.45 -2.35 1.4 -2.35 L1.35 -2.4 M1.1 -2.35 L0.9 -2.15 0.9 -2.1 0.85 -2.05 0.8 -2.05 0.8 -2.1 Q0.75 -2.1 0.75 -2.15 L0.85 -2.3 1.0 -2.45 1.05 -2.45 1.1 -2.4 1.1 -2.35 M0.1 -1.3 L0.15 -1.25 0.2 -1.25 0.2 -1.2 0.15 -1.15 0.05 -1.2 Q0.05 -1.3 0.1 -1.3 M0.3 -1.3 L0.35 -1.25 Q0.45 -1.25 0.45 -1.35 L0.45 -1.5 Q0.45 -1.55 0.5 -1.6 L0.6 -1.6 0.65 -1.5 Q0.65 -1.45 0.65 -1.4 L0.6 -1.35 0.6 -1.3 0.65 -1.2 Q0.65 -1.15 0.6 -1.15 0.55 -1.1 0.5 -1.1 L0.4 -1.1 0.3 -1.2 Q0.25 -1.25 0.3 -1.3 M0.8 -1.65 L0.8 -1.55 0.75 -1.55 0.75 -1.65 0.8 -1.65 M2.65 -1.7 Q2.75 -1.7 2.75 -1.6 L2.75 -1.5 Q2.75 -1.45 2.75 -1.4 L2.8 -1.2 Q2.8 -1.1 2.8 -1.05 L2.65 -0.9 2.5 -0.9 Q2.45 -0.95 2.45 -1.05 L2.45 -1.1 2.45 -1.05 2.5 -0.95 2.5 -1.05 Q2.5 -1.1 2.55 -1.1 L2.5 -1.1 2.55 -1.1 Q2.65 -1.25 2.65 -1.3 2.65 -1.35 2.6 -1.45 L2.55 -1.55 2.55 -1.65 2.6 -1.65 2.6 -1.7 Q2.6 -1.65 2.6 -1.6 L2.6 -1.55 Q2.6 -1.5 2.65 -1.5 L2.6 -1.6 Q2.6 -1.65 2.65 -1.7 M2.7 -1.45 L2.7 -1.45 Q2.7 -1.5 2.75 -1.55 2.7 -1.55 2.7 -1.5 L2.7 -1.4 Q2.7 -1.35 2.75 -1.35 L2.7 -1.45 M2.65 -0.95 Q2.75 -1.05 2.75 -1.1 L2.7 -1.05 2.65 -0.95 M2.35 -0.6 Q2.3 -0.55 2.3 -0.45 2.3 -0.35 2.3 -0.3 L2.25 -0.15 Q2.2 -0.05 2.15 0.0 L2.15 -0.05 Q2.25 -0.05 2.3 -0.15 L2.3 -0.4 2.35 -0.45 2.35 -0.55 Q2.35 -0.6 2.45 -0.6 L2.35 -0.6 2.45 -0.6 2.45 -0.55 Q2.45 -0.2 2.4 0.05 2.3 0.4 2.05 0.35 L1.85 0.55 Q1.75 0.7 1.55 0.7 L1.4 0.7 1.4 0.65 1.2 0.65 1.2 0.55 1.25 0.55 1.35 0.6 1.45 0.6 Q1.6 0.45 1.7 0.3 1.85 0.2 1.85 0.15 L1.9 0.15 Q1.9 0.25 1.8 0.35 1.65 0.5 1.55 0.5 L1.6 0.55 Q1.7 0.5 1.8 0.4 1.9 0.25 1.9 0.2 L1.9 0.1 1.85 0.1 Q1.9 0.1 1.9 0.05 L1.9 0.0 1.95 0.0 2.0 0.05 2.05 0.05 Q2.1 0.0 2.1 -0.05 L2.05 -0.15 2.1 -0.15 2.05 -0.1 2.1 -0.1 2.1 -0.15 2.15 -0.15 2.2 -0.2 2.25 -0.2 2.25 -0.3 2.3 -0.45 2.25 -0.5 Q2.25 -0.55 2.3 -0.55 L2.35 -0.6 M2.4 0.0 L2.3 0.2 Q2.35 0.15 2.4 0.0 M1.95 0.0 L1.95 0.05 2.0 0.05 1.95 0.0 M1.7 0.65 Q1.75 0.65 1.8 0.6 L1.75 0.6 1.7 0.65 M1.25 0.55 L1.2 0.55 1.2 0.6 1.25 0.65 1.25 0.55 M0.6 1.15 L0.6 1.1 Q0.65 1.1 0.7 1.15 L0.8 1.2 0.7 1.3 0.6 1.3 Q0.6 1.25 0.6 1.2 L0.65 1.15 Q0.65 1.1 0.6 1.15 M0.0 0.0 Q0.0 0.05 -0.05 0.15 -0.1 0.25 -0.1 0.3 L-0.1 0.45 Q-0.15 0.55 -0.25 0.6 L-0.4 0.55 Q-0.5 0.55 -0.55 0.5 L-0.7 0.55 -0.95 0.55 -0.95 0.5 -1.05 0.5 -1.1 0.45 -1.15 0.45 -1.15 0.4 Q-1.15 0.35 -1.1 0.3 L-1.05 0.25 -1.0 0.25 -0.95 0.35 -0.85 0.35 -0.85 0.4 Q-0.5 0.35 -0.45 0.2 -0.45 0.15 -0.45 0.05 L-0.4 -0.05 -0.4 -0.1 -0.45 -0.05 -0.4 -0.15 Q-0.4 -0.2 -0.4 -0.25 L-0.35 -0.3 -0.35 -0.4 Q-0.35 -0.45 -0.3 -0.5 L-0.25 -0.45 Q-0.2 -0.45 -0.2 -0.35 -0.2 -0.3 -0.2 -0.25 L-0.25 -0.15 Q-0.25 0.0 -0.2 0.0 L0.0 0.0 M0.75 1.25 L0.7 1.25 0.75 1.3 0.75 1.25 M-0.15 1.6 L-0.15 1.55 0.0 1.45 0.1 1.45 0.1 1.5 0.15 1.5 Q0.25 1.55 0.25 1.6 L0.2 1.65 0.15 1.75 -0.05 1.75 -0.1 1.8 -0.15 1.8 -0.15 1.75 -0.2 1.65 -0.15 1.6 -0.1 1.6 -0.1 1.55 Q-0.15 1.55 -0.15 1.6 M0.15 1.6 L0.15 1.65 0.2 1.65 0.15 1.6 M-0.3 -0.45 L-0.3 -0.5 -0.35 -0.45 -0.35 -0.4 -0.3 -0.45 M0.0 0.05 L0.0 0.05 M-0.8 0.55 L-0.8 0.55 M-0.9 0.55 L-0.95 0.5 -0.95 0.55 -0.9 0.55 M-1.1 0.4 L-1.05 0.35 -1.05 0.3 -1.1 0.35 -1.1 0.4 M-1.55 1.9 L-1.55 1.85 -1.5 1.8 -1.25 1.8 Q-1.2 1.8 -1.15 1.85 L-1.1 1.9 Q-1.1 2.0 -1.15 2.0 -1.15 2.05 -1.2 2.05 L-1.35 2.05 Q-1.35 1.95 -1.5 1.95 L-1.55 1.95 -1.55 1.9 M-0.75 1.65 L-0.55 1.6 Q-0.45 1.6 -0.45 1.7 -0.45 1.75 -0.5 1.75 L-0.65 1.8 -0.85 1.8 -0.8 1.7 -0.75 1.65 M-0.85 1.75 L-0.85 1.75" fill="#1a4115" fill-rule="evenodd" stroke="none"/>
  </g>
</svg>
