<?xml version="1.0" encoding="UTF-8" standalone="no"?>
<svg xmlns:ffdec="https://www.free-decompiler.com/flash" xmlns:xlink="http://www.w3.org/1999/xlink" ffdec:objectType="shape" height="76.1px" width="44.5px" xmlns="http://www.w3.org/2000/svg">
  <g transform="matrix(1.0, 0.0, 0.0, 1.0, 33.95, 81.55)">
    <path d="M5.05 -33.0 L4.85 -32.75 4.7 -32.75 Q4.55 -32.8 4.5 -32.85 4.6 -33.05 4.8 -33.2 5.05 -33.35 5.25 -33.25 L5.05 -33.0 M-21.1 -20.6 L-20.9 -20.55 -21.05 -20.6 -21.1 -20.6" fill="#bffff0" fill-opacity="0.7490196" fill-rule="evenodd" stroke="none"/>
    <path d="M-1.7 -61.4 L-1.7 -61.35 -1.75 -61.35 -1.8 -61.35 -1.8 -61.45 -1.9 -61.4 -2.1 -61.35 Q-2.15 -61.35 -2.2 -61.4 L-1.2 -63.15 Q-0.55 -64.3 -0.05 -64.95 0.1 -65.2 0.8 -65.75 L1.65 -66.45 Q1.8 -66.55 2.0 -67.25 2.2 -67.9 2.2 -68.05 2.2 -68.4 1.95 -68.95 1.7 -69.5 1.7 -70.1 1.7 -71.0 2.0 -71.75 2.15 -72.2 2.6 -72.85 3.05 -73.6 3.2 -73.9 3.45 -74.55 3.45 -75.25 3.45 -75.9 2.8 -76.65 1.95 -77.6 0.8 -77.6 -0.15 -77.6 -1.95 -75.85 L-3.25 -74.65 Q-3.9 -74.1 -4.25 -74.1 -4.5 -74.1 -4.75 -74.45 -5.0 -74.8 -4.9 -75.15 L-5.4 -75.15 Q-7.25 -74.6 -8.35 -73.15 L-9.3 -71.85 Q-9.9 -71.0 -10.5 -70.45 -11.45 -69.6 -11.8 -67.95 -12.05 -66.65 -11.9 -65.15 -11.9 -64.6 -12.15 -63.75 -12.5 -62.8 -12.65 -62.35 L-12.95 -61.0 Q-13.1 -60.05 -13.25 -59.6 L-13.5 -58.35 Q-13.7 -57.45 -14.0 -56.9 L-14.35 -56.15 Q-14.5 -55.8 -14.7 -55.6 -15.25 -55.05 -17.4 -54.65 -18.3 -54.85 -18.85 -55.45 -19.25 -55.9 -19.4 -56.55 -19.5 -57.05 -20.0 -57.6 -20.3 -58.0 -21.1 -58.65 -21.95 -58.85 -22.3 -57.3 -22.55 -56.4 -22.55 -55.45 L-22.5 -54.7 -22.35 -53.75 Q-22.35 -53.45 -22.4 -52.85 L-22.45 -52.15 Q-22.45 -51.4 -21.95 -49.7 -21.45 -48.0 -21.45 -47.15 -21.45 -45.35 -21.85 -43.1 -22.3 -40.55 -23.0 -39.2 L-23.4 -39.0 Q-23.7 -38.8 -23.9 -38.7 L-24.9 -38.7 Q-25.2 -38.95 -25.5 -39.6 L-25.95 -40.5 Q-26.1 -40.8 -26.6 -41.4 -27.05 -41.95 -27.2 -42.35 -27.4 -42.9 -27.45 -43.65 L-27.55 -44.7 Q-27.6 -45.25 -27.75 -45.45 -27.95 -45.7 -28.4 -45.7 L-28.9 -45.65 Q-29.15 -45.15 -29.3 -44.35 L-29.35 -44.05 -29.35 -43.65 Q-29.4 -42.25 -29.5 -41.55 L-29.7 -39.55 Q-29.85 -38.2 -30.0 -37.55 -30.2 -36.7 -30.4 -35.4 -30.65 -33.75 -30.65 -33.5 L-30.7 -33.35 Q-30.95 -32.1 -31.6 -31.3 L-31.95 -30.75 -32.0 -30.7 Q-32.15 -30.3 -32.15 -29.6 -32.15 -28.95 -31.9 -28.0 -31.7 -27.15 -31.35 -26.4 -31.2 -25.95 -31.0 -25.65 -30.7 -25.05 -30.15 -24.85 -29.55 -24.65 -29.25 -24.45 -28.75 -24.15 -28.55 -23.4 L-28.55 -19.55 -28.6 -19.5 Q-28.65 -19.45 -28.7 -19.4 -28.9 -19.65 -28.95 -19.9 -28.95 -20.05 -28.9 -20.35 L-28.95 -20.6 -29.0 -20.85 -29.2 -21.3 -29.45 -21.75 -29.75 -22.25 -29.9 -22.4 -30.0 -22.5 Q-30.2 -22.65 -30.25 -22.65 L-31.3 -22.75 -31.6 -22.85 -31.65 -22.9 -31.95 -23.0 Q-32.2 -23.4 -32.65 -23.95 -33.0 -24.4 -33.15 -25.0 L-33.45 -26.2 Q-33.5 -26.4 -33.5 -27.0 -33.5 -28.85 -33.2 -30.25 L-33.2 -30.3 Q-32.95 -31.45 -32.9 -32.4 L-32.9 -32.85 Q-32.9 -33.65 -33.05 -34.55 -33.2 -35.5 -33.2 -35.8 -33.2 -37.1 -32.8 -37.7 L-32.3 -38.35 -32.05 -38.75 -31.75 -39.2 Q-31.6 -39.5 -31.5 -39.85 -31.4 -40.25 -31.35 -40.85 L-31.25 -41.95 -31.15 -42.5 -31.05 -42.75 -30.75 -43.35 Q-30.5 -43.9 -30.45 -44.2 L-30.4 -44.55 -30.35 -45.0 -30.25 -45.3 -30.15 -45.85 Q-30.1 -46.5 -30.15 -47.75 L-30.2 -49.1 -30.2 -50.15 Q-30.2 -50.7 -30.05 -51.1 -29.7 -52.1 -28.35 -52.9 L-28.1 -52.85 Q-27.9 -52.55 -27.75 -52.2 -27.6 -52.0 -27.55 -51.75 L-27.4 -51.4 Q-27.15 -50.6 -27.15 -49.9 -27.15 -49.4 -27.3 -48.45 -27.45 -47.55 -27.45 -46.85 -27.45 -45.9 -27.35 -45.6 -27.25 -45.25 -26.7 -43.85 -26.4 -43.2 -25.95 -42.45 -25.55 -41.75 -25.1 -41.15 L-25.05 -41.1 -24.9 -40.85 -24.65 -41.0 Q-24.5 -41.1 -24.35 -41.2 -23.85 -41.6 -23.6 -42.3 -23.6 -42.45 -23.45 -43.15 -23.3 -43.65 -23.2 -43.9 -22.55 -45.0 -22.55 -47.1 -22.55 -47.2 -22.7 -47.65 -22.85 -48.1 -22.85 -48.2 -22.85 -48.5 -22.9 -48.8 -23.2 -49.7 -23.5 -50.15 -24.25 -51.3 -24.45 -51.75 -24.7 -52.35 -24.7 -53.1 -24.7 -54.35 -24.45 -55.45 -24.15 -56.7 -24.1 -57.95 -24.0 -59.5 -23.7 -60.2 -23.25 -61.25 -22.2 -62.1 L-21.85 -62.35 -21.65 -62.5 -21.5 -62.55 -20.8 -62.55 Q-20.15 -61.8 -19.75 -60.75 -19.6 -60.35 -19.3 -59.35 L-19.2 -58.95 Q-18.95 -58.0 -18.7 -57.6 -18.4 -57.2 -18.0 -57.1 L-17.9 -57.1 -17.7 -57.05 Q-17.2 -57.05 -16.6 -57.45 -16.2 -57.75 -15.75 -58.25 -15.05 -59.05 -14.8 -59.65 L-14.15 -61.0 Q-13.8 -61.85 -13.7 -62.4 -13.55 -63.25 -13.45 -65.1 -13.3 -66.8 -13.15 -67.7 -12.95 -68.55 -12.8 -69.0 -12.65 -69.45 -12.45 -69.85 L-12.1 -70.45 -11.5 -71.1 Q-11.2 -71.4 -10.75 -71.75 -10.2 -72.25 -9.85 -73.1 -9.3 -74.45 -8.1 -76.0 L-7.85 -76.3 Q-7.15 -77.2 -6.65 -77.6 L-6.35 -77.8 Q-6.1 -77.95 -5.95 -77.95 -5.35 -77.95 -4.8 -77.4 L-4.35 -76.85 Q-4.05 -76.55 -3.8 -76.35 -2.95 -76.55 -1.85 -77.5 L-0.45 -78.65 Q-0.3 -78.7 0.0 -79.0 L0.65 -79.55 Q0.85 -79.7 1.1 -80.1 1.45 -80.45 2.4 -80.45 3.0 -80.35 3.4 -80.1 3.8 -79.9 4.05 -79.55 L4.2 -79.2 Q4.3 -78.9 4.35 -78.3 4.45 -77.7 4.55 -77.45 4.75 -76.8 5.4 -75.85 5.65 -75.45 5.75 -75.1 5.9 -74.7 5.9 -74.35 5.9 -74.1 5.8 -73.75 L5.75 -73.55 Q5.65 -73.1 5.5 -72.8 5.1 -72.8 4.55 -72.25 L4.3 -72.0 4.25 -72.0 Q3.95 -71.65 3.95 -71.4 3.95 -71.25 4.15 -70.85 L4.25 -70.55 4.4 -70.15 Q4.55 -69.7 4.55 -69.25 4.55 -69.05 4.5 -68.7 L4.4 -68.1 Q4.3 -67.75 4.25 -67.55 4.15 -67.35 4.0 -67.3 L3.75 -67.3 Q3.6 -67.25 3.5 -67.1 3.35 -66.95 3.2 -66.65 L3.0 -66.1 Q2.75 -65.35 2.45 -64.95 L2.0 -64.45 1.6 -64.05 1.6 -64.0 1.55 -64.0 1.4 -63.65 Q1.3 -63.6 1.15 -63.5 0.95 -63.45 0.6 -63.4 -0.2 -63.25 -0.95 -62.55 L-0.95 -62.5 -1.0 -62.45 Q-1.25 -62.05 -1.55 -61.7 L-1.6 -61.65 -1.7 -61.4 M9.2 -42.6 L9.15 -41.5 9.15 -41.2 Q9.25 -40.7 9.55 -39.95 9.8 -39.25 9.9 -38.55 L9.9 -37.9 Q9.9 -37.3 9.8 -36.7 L9.5 -35.3 9.45 -35.15 Q9.35 -34.6 9.15 -34.0 L9.0 -33.5 Q8.8 -33.05 8.55 -32.7 L8.45 -32.9 Q8.4 -32.95 8.4 -33.2 8.4 -33.3 8.45 -33.6 L8.5 -34.0 8.6 -34.85 Q8.6 -35.0 8.4 -35.55 L8.2 -36.1 8.15 -36.2 Q8.1 -36.45 8.05 -36.8 8.05 -37.1 8.05 -37.55 8.25 -38.0 8.1 -38.85 7.95 -39.55 7.65 -40.15 6.85 -41.9 6.4 -42.75 L6.2 -43.1 Q6.0 -43.5 5.7 -43.85 4.7 -44.85 3.2 -44.85 L2.4 -44.85 1.7 -44.75 Q-0.3 -43.95 -1.15 -42.25 -1.6 -41.35 -1.95 -39.3 L-1.95 -38.25 Q-1.95 -38.2 -1.8 -38.2 -1.6 -38.2 -1.4 -38.45 L-1.1 -38.8 -0.95 -38.75 Q-0.95 -38.7 -0.95 -38.55 -0.95 -38.3 -1.1 -37.8 -1.25 -37.3 -1.25 -36.85 L-1.3 -36.0 -1.35 -35.3 Q-1.35 -34.3 -1.2 -32.85 L-1.0 -30.5 Q-0.95 -30.25 -0.6 -28.25 -0.4 -27.05 -0.3 -26.35 -0.25 -25.95 -0.25 -25.7 -0.25 -24.95 -0.65 -24.1 -0.9 -23.5 -1.3 -23.2 -1.75 -22.85 -2.35 -22.85 L-2.4 -22.85 Q-3.4 -22.85 -3.8 -23.3 -3.95 -23.45 -4.25 -24.1 L-4.55 -24.65 Q-4.75 -25.1 -5.25 -25.65 -5.6 -26.05 -5.6 -26.45 -5.6 -26.7 -5.55 -26.75 L-5.45 -26.9 -5.4 -26.8 -5.25 -26.45 Q-5.1 -26.1 -4.95 -26.05 L-4.2 -26.05 Q-4.1 -25.95 -4.0 -25.75 L-3.75 -25.3 -3.5 -24.6 -2.1 -24.65 Q-1.75 -25.05 -1.7 -25.65 -1.7 -25.95 -1.7 -26.6 L-1.65 -27.7 -1.55 -28.55 Q-1.55 -29.2 -1.7 -30.2 L-1.85 -31.2 -2.35 -33.8 Q-2.45 -34.2 -2.9 -35.15 -3.45 -36.15 -3.55 -36.45 -3.6 -36.65 -3.75 -37.8 -3.9 -38.9 -3.9 -39.05 -3.9 -40.4 -3.4 -42.05 -2.95 -43.7 -2.1 -45.05 -0.8 -47.2 0.3 -47.8 0.55 -47.95 1.4 -47.6 L1.45 -47.6 Q2.2 -47.3 2.5 -47.05 L3.15 -46.4 Q3.45 -46.15 3.75 -46.1 L5.05 -46.05 5.45 -46.0 6.55 -46.0 Q7.8 -46.0 8.2 -45.7 8.6 -45.4 9.1 -43.8 9.2 -43.4 9.2 -42.6 M0.45 -14.05 L0.2 -13.45 Q0.1 -13.15 -0.15 -13.15 L-0.15 -13.25 -0.2 -13.55 Q-0.2 -14.25 0.05 -14.95 0.3 -15.75 0.75 -15.95 L1.1 -15.95 1.3 -15.7 Q1.75 -15.25 1.95 -14.5 L1.95 -14.45 2.35 -13.5 Q2.8 -12.5 2.75 -12.05 2.6 -11.75 2.6 -11.3 L2.55 -11.2 2.55 -11.0 2.6 -10.65 2.6 -10.3 2.7 -10.15 Q2.8 -10.15 3.05 -10.4 L3.2 -10.5 3.5 -10.8 3.75 -10.85 3.85 -10.85 3.95 -10.8 4.25 -9.6 4.3 -9.3 Q4.3 -9.0 4.2 -8.65 L4.1 -8.7 4.0 -8.75 Q3.85 -8.9 3.8 -9.1 L3.7 -9.35 3.65 -9.45 3.55 -9.45 3.25 -9.4 2.6 -9.4 Q2.0 -9.9 1.8 -10.5 1.65 -10.9 1.65 -11.7 1.6 -12.5 1.5 -12.9 1.4 -13.25 1.2 -13.55 1.05 -13.85 0.8 -14.05 L0.45 -14.05 M-13.5 -49.3 Q-13.75 -49.5 -13.85 -49.8 -13.95 -50.05 -13.95 -50.8 -13.95 -51.15 -13.8 -52.1 -13.6 -53.1 -13.35 -54.0 -13.2 -54.55 -13.05 -54.95 -12.7 -55.9 -12.35 -56.0 -12.2 -56.05 -12.05 -55.95 L-11.9 -56.15 -11.85 -56.2 -11.85 -56.15 -12.3 -54.35 -12.3 -53.05 Q-12.3 -52.0 -12.3 -51.7 -12.2 -51.4 -11.85 -50.25 L-11.75 -50.0 -11.7 -49.9 -11.55 -49.8 -11.3 -49.85 Q-11.05 -49.9 -10.85 -50.0 -10.15 -50.3 -9.6 -51.05 L-9.3 -51.55 -9.25 -51.6 -8.6 -52.75 Q-8.4 -53.05 -8.25 -53.2 -8.1 -53.3 -8.0 -53.3 -7.5 -53.3 -7.1 -52.9 -6.65 -52.45 -6.4 -51.5 -6.15 -50.5 -6.15 -49.55 L-6.15 -49.0 Q-6.2 -48.55 -6.3 -48.1 L-6.3 -47.95 Q-6.5 -47.2 -6.8 -46.6 L-7.05 -46.6 Q-7.1 -46.85 -7.1 -47.3 L-7.1 -47.65 Q-7.05 -48.4 -7.1 -48.8 -7.2 -49.7 -7.7 -50.3 L-8.0 -50.55 Q-8.15 -50.7 -8.35 -50.8 L-9.0 -50.75 Q-9.35 -50.15 -9.4 -50.05 -9.55 -49.85 -10.05 -49.45 L-10.4 -49.15 -10.7 -48.95 -11.2 -49.0 -11.25 -49.0 -11.4 -49.1 Q-11.75 -49.0 -12.05 -48.95 L-12.3 -48.95 Q-13.1 -48.95 -13.5 -49.3 M-20.1 -34.2 L-20.1 -34.85 -20.05 -34.9 -20.1 -34.9 -20.15 -35.3 -20.15 -35.7 Q-20.15 -36.0 -19.95 -36.65 -19.8 -37.15 -19.65 -37.35 -19.45 -37.7 -19.15 -37.9 L-18.95 -37.95 -18.7 -37.75 -18.55 -37.55 -18.05 -37.65 Q-17.95 -37.95 -17.75 -38.1 -17.45 -38.3 -16.8 -38.2 L-16.4 -37.35 Q-16.2 -36.85 -16.2 -36.5 -16.2 -36.3 -16.25 -36.15 -16.3 -36.0 -16.4 -35.85 -16.65 -35.85 -16.7 -36.0 L-16.75 -36.3 Q-17.1 -36.3 -17.2 -36.4 -17.3 -36.45 -17.4 -36.65 -18.95 -36.25 -19.15 -34.85 L-19.25 -33.6 Q-19.3 -32.8 -19.45 -32.35 L-19.6 -32.25 Q-19.95 -32.75 -20.05 -33.05 L-20.1 -33.2 Q-20.15 -33.3 -20.15 -33.9 L-20.1 -34.2 M-20.75 -20.5 Q-20.7 -20.45 -20.7 -20.3 -20.7 -20.15 -20.85 -19.9 L-21.15 -19.45 -21.75 -19.5 Q-21.75 -19.55 -21.8 -19.55 -21.8 -19.6 -21.8 -19.75 L-21.75 -20.05 -21.65 -20.4 Q-21.45 -20.85 -21.1 -20.6 L-21.05 -20.6 -20.9 -20.55 -20.8 -20.55 -20.75 -20.5 M-22.75 -19.5 L-22.2 -18.45 -22.55 -17.85 Q-22.8 -17.55 -23.45 -17.4 -23.6 -17.15 -23.75 -16.4 -23.85 -15.7 -23.85 -15.2 -23.85 -14.8 -23.7 -13.8 L-23.65 -13.75 Q-23.65 -13.65 -23.8 -13.65 -23.9 -13.65 -24.3 -14.05 -24.65 -14.45 -24.7 -14.65 -24.8 -15.2 -24.8 -15.6 -24.8 -16.15 -24.55 -16.85 -24.3 -17.6 -24.3 -18.0 -24.3 -18.15 -24.45 -19.15 -24.65 -20.1 -24.65 -20.0 -24.65 -20.25 -24.5 -20.5 -24.35 -20.75 -24.1 -20.85 -23.95 -20.95 -23.7 -20.75 -23.45 -20.5 -23.35 -20.45 -23.0 -20.05 -22.75 -19.5 M-1.3 -6.65 L-1.35 -6.7 -1.55 -7.0 -1.6 -7.05 -1.9 -7.55 -1.9 -7.6 -2.0 -7.75 -2.15 -8.15 Q-2.4 -8.5 -2.9 -8.25 L-2.95 -8.2 -3.05 -8.35 Q-3.15 -8.45 -3.3 -8.5 -3.3 -9.0 -3.65 -9.75 -3.95 -10.45 -3.95 -10.7 -3.95 -11.85 -3.65 -12.2 -3.4 -12.45 -2.45 -12.55 L-2.75 -11.95 Q-2.9 -11.7 -2.9 -11.45 -2.9 -11.1 -2.8 -10.75 -2.75 -10.55 -2.65 -10.3 L-2.65 -10.25 Q-2.3 -9.45 -1.65 -9.45 L-1.6 -9.45 -1.55 -9.4 Q-1.1 -8.7 -1.05 -8.45 -1.0 -8.3 -1.0 -7.6 -1.0 -7.15 -1.1 -6.8 L-1.1 -6.7 -1.15 -6.55 -1.2 -6.55 Q-1.25 -6.55 -1.3 -6.65" fill="#b79ed4" fill-opacity="0.7490196" fill-rule="evenodd" stroke="none"/>
    <path d="M-1.75 -61.35 Q-2.45 -60.75 -2.75 -59.7 -2.85 -60.1 -2.9 -60.45 -2.95 -60.75 -2.95 -61.25 -2.95 -62.75 -2.15 -64.05 -1.65 -64.9 -0.1 -66.95 0.1 -67.3 0.35 -69.7 0.55 -71.75 0.55 -72.6 0.55 -72.75 0.3 -73.05 L-0.2 -73.55 -1.1 -73.5 Q-1.4 -73.1 -1.4 -72.4 -1.35 -71.65 -1.6 -71.25 -1.7 -71.1 -2.3 -70.35 L-3.1 -69.4 Q-4.1 -69.45 -4.8 -70.0 -5.45 -70.45 -5.55 -71.0 -7.8 -70.65 -8.65 -69.2 -8.95 -68.75 -9.2 -67.95 -9.55 -67.0 -9.7 -66.7 L-10.25 -65.55 Q-10.6 -64.7 -10.6 -64.3 L-10.55 -63.1 Q-10.55 -62.5 -10.75 -62.05 L-11.7 -59.85 Q-12.1 -58.8 -12.4 -57.35 L-12.65 -56.3 -12.45 -56.4 -12.2 -56.65 -11.7 -56.6 Q-11.5 -56.05 -11.5 -55.6 L-11.5 -54.95 Q-11.65 -53.95 -11.65 -53.5 -11.65 -53.15 -11.45 -51.8 L-11.25 -50.5 -11.25 -50.25 -11.1 -50.1 -10.8 -50.15 -10.3 -50.8 -9.85 -51.7 Q-9.3 -53.0 -8.6 -53.4 -7.85 -53.75 -7.2 -53.35 -6.75 -53.05 -6.4 -52.4 -6.3 -52.05 -6.15 -51.45 L-6.05 -51.0 Q-5.9 -50.3 -5.9 -48.45 -5.9 -46.75 -6.95 -45.25 L-7.25 -45.3 -7.65 -47.05 Q-7.95 -48.25 -8.65 -48.75 -9.65 -48.75 -10.35 -48.6 L-10.5 -48.55 Q-11.0 -48.3 -11.1 -48.3 L-11.4 -48.3 -11.8 -48.2 Q-13.2 -48.25 -13.7 -48.45 -14.3 -49.25 -14.45 -49.85 -14.55 -50.25 -14.55 -51.1 -14.55 -52.55 -13.95 -54.05 -14.8 -53.4 -16.05 -53.2 L-18.55 -53.3 -19.7 -55.05 Q-20.75 -56.65 -20.85 -56.65 -21.6 -56.65 -21.75 -55.55 -21.8 -55.2 -21.75 -54.75 L-21.75 -54.35 Q-21.75 -53.85 -21.5 -53.1 L-21.05 -51.65 Q-20.3 -49.6 -20.3 -48.35 -20.3 -47.3 -20.6 -44.95 -20.9 -42.45 -20.9 -41.45 -20.95 -39.1 -21.25 -37.75 -21.8 -34.8 -23.4 -34.8 L-24.3 -34.85 Q-25.8 -35.9 -26.6 -37.9 -26.8 -38.35 -27.2 -39.6 -27.6 -40.7 -27.85 -41.3 -27.95 -40.6 -28.35 -38.9 L-28.75 -37.2 Q-28.75 -36.85 -28.55 -36.4 -28.4 -35.9 -28.4 -35.6 -28.4 -34.95 -28.95 -34.05 -29.25 -33.55 -29.8 -32.75 L-30.25 -32.6 Q-31.1 -31.9 -31.25 -31.3 -31.3 -31.1 -31.3 -30.2 -31.3 -29.15 -30.7 -28.25 L-29.35 -26.65 Q-28.45 -25.55 -28.0 -24.5 -27.4 -23.0 -27.4 -20.95 -27.4 -19.2 -27.45 -18.75 -27.65 -17.4 -28.35 -16.8 -28.9 -17.5 -29.5 -19.45 -30.05 -21.35 -30.6 -21.95 L-31.45 -22.15 -32.05 -22.35 Q-33.0 -22.7 -33.55 -25.0 -33.95 -26.75 -33.95 -28.3 -33.95 -29.3 -33.85 -30.0 L-33.6 -31.05 Q-33.25 -32.4 -33.4 -34.85 -33.45 -35.35 -33.55 -36.45 -33.65 -37.45 -33.4 -38.05 -33.3 -38.35 -32.6 -39.6 -32.05 -40.65 -32.0 -41.25 -31.95 -41.85 -32.0 -42.95 -31.95 -43.95 -31.35 -44.6 -30.95 -45.1 -30.7 -46.1 L-30.4 -47.8 Q-30.3 -48.3 -30.35 -49.3 -30.4 -50.5 -30.4 -50.95 -30.25 -53.05 -28.7 -53.95 L-28.15 -53.95 Q-27.0 -53.5 -26.7 -51.55 -26.55 -50.5 -26.6 -47.55 -26.7 -44.9 -26.4 -43.85 -26.0 -42.2 -24.6 -42.2 -23.95 -42.2 -23.45 -44.6 -23.2 -45.85 -23.05 -47.05 -23.05 -47.95 -23.45 -48.8 -23.65 -49.25 -24.25 -50.3 -24.85 -51.25 -25.1 -51.95 -25.45 -52.95 -25.45 -54.15 -25.45 -55.55 -25.15 -56.4 -24.65 -57.7 -24.35 -59.4 -24.15 -61.1 -23.8 -61.95 -23.0 -64.05 -21.35 -64.05 -20.35 -64.05 -19.65 -63.1 -19.15 -62.45 -18.65 -61.1 -18.1 -59.6 -17.85 -59.05 -17.45 -58.15 -17.0 -58.15 L-16.35 -58.25 -15.7 -58.45 Q-14.1 -60.6 -13.8 -63.9 -13.7 -64.95 -13.7 -66.7 -13.7 -68.8 -13.65 -69.55 -13.6 -70.85 -12.4 -72.1 L-11.3 -73.2 Q-10.6 -73.9 -10.15 -74.5 L-9.8 -75.3 Q-9.4 -76.25 -9.0 -76.95 -7.65 -79.3 -6.35 -79.3 -5.6 -79.3 -4.65 -78.35 -4.15 -77.9 -3.95 -77.75 -3.5 -77.45 -3.15 -77.45 -2.85 -77.45 -1.9 -78.4 L-0.55 -79.75 Q0.4 -80.65 1.35 -81.05 2.45 -81.5 4.05 -81.55 4.9 -81.05 5.05 -79.8 L5.1 -78.8 Q5.15 -78.2 5.25 -77.85 5.3 -77.75 5.9 -77.0 6.5 -76.25 6.55 -76.1 L6.8 -75.35 Q6.9 -74.9 6.9 -74.55 6.9 -73.6 6.1 -72.65 5.25 -71.65 5.0 -71.3 5.15 -70.75 5.5 -70.35 5.8 -69.95 5.8 -69.8 L5.75 -68.75 Q5.75 -68.25 5.6 -67.9 5.3 -67.1 3.85 -65.85 3.4 -65.45 3.15 -64.9 3.0 -64.65 2.75 -63.9 2.5 -63.3 2.3 -63.0 2.0 -62.5 1.55 -62.3 1.35 -62.35 1.55 -62.9 L1.5 -63.05 1.1 -62.7 Q0.8 -62.4 -0.7 -61.55 L-1.35 -61.65 Q-1.55 -61.55 -1.7 -61.4 L-1.6 -61.65 -1.55 -61.7 Q-1.25 -62.05 -1.0 -62.45 L-0.95 -62.5 -0.95 -62.55 Q-0.2 -63.25 0.6 -63.4 0.95 -63.45 1.15 -63.5 1.3 -63.6 1.4 -63.65 L1.55 -64.0 1.6 -64.0 1.6 -64.05 2.0 -64.45 2.45 -64.95 Q2.75 -65.35 3.0 -66.1 L3.2 -66.65 Q3.35 -66.95 3.5 -67.1 3.6 -67.25 3.75 -67.3 L4.0 -67.3 Q4.15 -67.35 4.25 -67.55 4.3 -67.75 4.4 -68.1 L4.5 -68.7 Q4.55 -69.05 4.55 -69.25 4.55 -69.7 4.4 -70.15 L4.25 -70.55 4.15 -70.85 Q3.95 -71.25 3.95 -71.4 3.95 -71.65 4.25 -72.0 L4.3 -72.0 4.55 -72.25 Q5.1 -72.8 5.5 -72.8 5.65 -73.1 5.75 -73.55 L5.8 -73.75 Q5.9 -74.05 5.9 -74.45 5.9 -74.75 5.75 -75.1 5.65 -75.45 5.4 -75.85 4.75 -76.8 4.55 -77.45 4.45 -77.7 4.35 -78.3 4.3 -78.9 4.2 -79.2 L4.05 -79.55 Q3.95 -80.0 3.7 -80.1 L3.4 -80.1 Q3.0 -80.35 2.4 -80.45 1.45 -80.45 1.1 -80.1 0.85 -79.7 0.65 -79.55 L0.0 -79.0 Q-0.3 -78.7 -0.45 -78.65 L-1.85 -77.5 Q-2.95 -76.55 -3.8 -76.35 -4.05 -76.55 -4.35 -76.85 L-4.8 -77.4 Q-5.35 -77.95 -5.95 -77.95 -6.1 -77.95 -6.35 -77.8 L-6.65 -77.6 Q-7.15 -77.2 -7.85 -76.3 L-7.85 -76.4 -8.1 -76.0 Q-9.3 -74.45 -9.85 -73.1 -10.2 -72.25 -10.75 -71.75 -11.2 -71.4 -11.5 -71.1 L-11.55 -71.05 Q-12.3 -70.45 -12.45 -69.85 -12.65 -69.45 -12.8 -69.0 -12.95 -68.55 -13.15 -67.7 -13.3 -66.8 -13.45 -65.1 -13.55 -63.25 -13.7 -62.4 -13.8 -61.85 -14.15 -61.0 L-14.8 -59.65 Q-15.05 -59.05 -15.75 -58.25 -16.2 -57.75 -16.6 -57.45 -17.2 -57.05 -17.7 -57.05 L-17.9 -57.1 -18.0 -57.1 Q-18.4 -57.2 -18.7 -57.6 -18.95 -58.0 -19.2 -58.95 L-19.3 -59.35 Q-19.6 -60.35 -19.75 -60.75 -20.15 -61.8 -20.8 -62.55 L-21.5 -62.55 -21.65 -62.5 -21.85 -62.35 -22.2 -62.1 Q-23.25 -61.25 -23.7 -60.2 -24.0 -59.5 -24.1 -57.95 -24.15 -56.7 -24.45 -55.45 -24.7 -54.35 -24.7 -53.1 -24.7 -52.35 -24.45 -51.75 -24.25 -51.3 -23.5 -50.15 -23.2 -49.7 -22.9 -48.8 -22.85 -48.5 -22.85 -48.2 -22.85 -48.1 -22.7 -47.65 -22.55 -47.2 -22.55 -47.1 -22.55 -45.0 -23.2 -43.9 -23.3 -43.65 -23.45 -43.15 -23.6 -42.45 -23.6 -42.3 -23.85 -41.6 -24.35 -41.2 -24.5 -41.1 -24.65 -41.0 L-24.9 -40.85 -25.05 -41.1 -25.05 -41.15 -25.1 -41.15 Q-25.55 -41.75 -25.95 -42.45 -26.4 -43.2 -26.7 -43.85 -27.25 -45.25 -27.35 -45.6 -27.45 -45.9 -27.45 -46.85 -27.45 -47.55 -27.3 -48.45 -27.15 -49.4 -27.15 -49.9 -27.15 -50.6 -27.4 -51.4 L-27.55 -51.75 Q-27.6 -52.0 -27.75 -52.2 -27.9 -52.55 -28.1 -52.85 L-28.35 -52.9 Q-29.7 -52.1 -30.05 -51.1 -30.2 -50.7 -30.2 -50.15 L-30.2 -49.1 -30.15 -47.75 Q-30.1 -46.5 -30.15 -45.85 L-30.25 -45.3 -30.35 -45.0 -30.4 -44.55 -30.45 -44.2 Q-30.5 -43.9 -30.75 -43.35 L-31.05 -42.75 -31.15 -42.5 -31.25 -41.95 -31.35 -40.85 Q-31.4 -40.25 -31.5 -39.85 -31.6 -39.5 -31.75 -39.2 L-32.05 -38.75 -32.0 -38.95 -32.3 -38.35 -32.8 -37.7 Q-33.2 -37.1 -33.2 -35.8 -33.2 -35.5 -33.05 -34.55 -32.9 -33.65 -32.9 -32.85 L-32.9 -32.4 -33.05 -31.2 -33.2 -30.3 -33.2 -30.25 Q-33.5 -28.85 -33.5 -27.0 -33.5 -26.4 -33.45 -26.2 L-33.15 -25.0 Q-33.0 -24.4 -32.65 -23.95 -32.2 -23.4 -31.95 -23.0 L-31.65 -22.9 -31.6 -22.85 -31.3 -22.75 -30.25 -22.65 Q-30.2 -22.65 -30.0 -22.5 L-29.9 -22.4 Q-29.4 -21.7 -29.0 -20.8 L-28.95 -20.6 -28.9 -20.35 Q-28.95 -20.05 -28.95 -19.9 -28.9 -19.65 -28.7 -19.4 -28.65 -19.45 -28.6 -19.5 L-28.55 -19.55 -28.55 -23.4 Q-28.75 -24.15 -29.25 -24.45 -29.55 -24.65 -30.15 -24.85 -30.7 -25.05 -31.0 -25.65 -31.2 -25.95 -31.35 -26.4 -31.7 -27.15 -31.9 -28.0 -32.15 -28.95 -32.15 -29.6 -32.15 -30.3 -32.0 -30.7 L-31.95 -30.75 -31.6 -31.3 Q-30.95 -32.1 -30.7 -33.35 L-30.65 -33.5 Q-30.65 -33.75 -30.4 -35.4 -30.2 -36.7 -30.0 -37.55 -29.85 -38.2 -29.7 -39.55 L-29.5 -41.55 Q-29.4 -42.25 -29.35 -43.65 L-29.35 -44.05 -29.3 -44.35 Q-29.15 -45.15 -28.9 -45.65 L-28.4 -45.7 Q-27.95 -45.7 -27.75 -45.45 -27.6 -45.25 -27.55 -44.7 L-27.45 -43.65 Q-27.4 -42.9 -27.2 -42.35 -27.05 -41.95 -26.6 -41.4 -26.1 -40.8 -25.95 -40.5 L-25.5 -39.6 Q-25.2 -38.95 -24.9 -38.7 L-23.9 -38.7 Q-23.7 -38.8 -23.4 -39.0 L-23.0 -39.2 Q-22.3 -40.55 -21.85 -43.1 -21.45 -45.35 -21.45 -47.15 -21.45 -48.0 -21.95 -49.7 -22.45 -51.4 -22.45 -52.15 L-22.4 -52.85 Q-22.35 -53.45 -22.35 -53.75 L-22.5 -54.7 -22.55 -55.45 Q-22.55 -56.4 -22.3 -57.3 -21.95 -58.85 -21.1 -58.65 -20.3 -58.0 -20.0 -57.6 -19.5 -57.05 -19.4 -56.55 -19.25 -55.9 -18.85 -55.45 -18.3 -54.85 -17.4 -54.65 -15.25 -55.05 -14.7 -55.6 -14.5 -55.8 -14.35 -56.15 L-14.0 -56.9 Q-13.7 -57.45 -13.5 -58.35 L-13.25 -59.6 Q-13.1 -60.05 -12.95 -61.0 L-12.65 -62.35 Q-12.5 -62.8 -12.15 -63.75 -11.9 -64.6 -11.9 -65.15 -12.05 -66.65 -11.8 -67.95 -11.45 -69.6 -10.5 -70.45 -9.9 -71.0 -9.3 -71.85 L-8.35 -73.15 Q-7.25 -74.6 -5.4 -75.15 L-4.9 -75.15 Q-5.0 -74.8 -4.75 -74.45 -4.5 -74.1 -4.25 -74.1 -3.9 -74.1 -3.25 -74.65 L-1.95 -75.85 Q-0.15 -77.6 0.8 -77.6 1.95 -77.6 2.8 -76.65 3.45 -75.9 3.45 -75.25 3.45 -74.55 3.2 -73.9 3.05 -73.6 2.6 -72.85 2.15 -72.2 2.0 -71.75 1.7 -71.0 1.7 -70.1 1.7 -69.5 1.95 -68.95 2.2 -68.4 2.2 -68.05 2.2 -67.9 2.0 -67.25 1.8 -66.55 1.65 -66.45 L0.8 -65.75 Q0.1 -65.2 -0.05 -64.95 -0.55 -64.3 -1.2 -63.15 L-2.2 -61.4 Q-2.15 -61.35 -2.1 -61.35 L-1.9 -61.4 -1.8 -61.45 -1.8 -61.35 -1.75 -61.35 M9.6 -43.2 L9.55 -42.4 Q9.55 -40.85 10.05 -39.45 L10.4 -38.45 Q10.55 -37.85 10.55 -37.2 10.55 -36.65 10.15 -35.65 10.05 -35.05 9.9 -34.5 9.75 -34.05 8.8 -31.65 8.1 -32.2 7.95 -33.25 7.9 -33.65 7.9 -34.15 L7.95 -34.9 Q7.95 -35.75 7.7 -36.8 7.45 -38.0 7.0 -38.6 6.8 -38.8 6.35 -39.5 L5.8 -40.3 Q5.55 -40.6 5.2 -41.1 4.85 -41.5 4.15 -41.8 3.0 -41.75 2.45 -41.6 1.5 -41.25 1.15 -40.0 1.0 -39.25 0.9 -37.9 0.85 -37.6 0.4 -36.9 L-0.25 -35.85 Q-0.35 -35.7 -0.55 -34.85 -0.75 -34.0 -0.75 -33.8 -0.75 -33.65 -0.55 -33.05 -0.4 -32.4 -0.4 -32.25 -0.35 -31.75 -0.2 -30.8 L0.1 -29.35 Q0.3 -28.45 0.3 -27.85 0.3 -25.9 -0.25 -24.15 -0.85 -22.15 -1.85 -22.15 -2.75 -22.15 -3.9 -23.05 -4.75 -23.75 -5.05 -24.2 -5.35 -24.7 -5.65 -25.5 -5.95 -26.35 -5.95 -26.9 -5.95 -27.3 -5.8 -27.45 -5.7 -27.6 -5.35 -27.6 -5.2 -27.6 -5.05 -27.4 L-4.85 -26.95 Q-4.45 -26.3 -3.85 -26.3 -2.8 -26.3 -2.45 -27.35 -2.25 -27.85 -2.3 -28.45 -2.3 -28.9 -2.2 -29.65 -2.05 -30.4 -2.05 -30.8 -2.05 -31.8 -2.55 -33.4 -3.0 -34.9 -3.3 -35.3 -3.95 -36.05 -4.1 -37.5 -4.25 -39.25 -4.25 -39.7 -4.25 -40.45 -3.85 -41.35 -3.2 -42.8 -3.05 -43.2 -2.85 -43.9 -2.2 -45.25 L-1.45 -46.7 Q-1.35 -46.95 -0.8 -47.55 L-0.1 -48.25 Q0.35 -48.6 1.3 -48.3 2.85 -47.75 3.8 -47.65 4.15 -47.5 4.7 -47.1 L5.2 -46.75 5.4 -46.65 Q5.55 -46.55 5.65 -46.55 L6.3 -46.7 6.9 -46.8 Q8.95 -46.8 9.45 -44.7 9.6 -44.05 9.6 -43.2 M9.2 -42.6 Q9.2 -43.4 9.1 -43.8 8.6 -45.4 8.2 -45.7 7.8 -46.0 6.55 -46.0 L5.45 -46.0 5.05 -46.05 3.75 -46.1 Q3.45 -46.15 3.15 -46.4 L2.5 -47.05 Q2.2 -47.3 1.45 -47.6 L1.4 -47.6 Q0.55 -47.95 0.3 -47.8 -0.8 -47.2 -2.1 -45.05 -2.95 -43.7 -3.4 -42.05 -3.9 -40.4 -3.9 -39.05 -3.9 -38.9 -3.75 -37.8 -3.6 -36.65 -3.55 -36.45 -3.45 -36.15 -2.9 -35.15 -2.45 -34.2 -2.35 -33.8 L-1.85 -31.2 -1.7 -30.2 Q-1.55 -29.2 -1.55 -28.55 L-1.65 -27.7 -1.7 -26.6 Q-1.7 -25.95 -1.7 -25.65 -1.75 -25.05 -2.1 -24.65 L-3.5 -24.6 -3.75 -25.3 -4.0 -25.75 Q-4.1 -25.95 -4.2 -26.05 L-4.95 -26.05 Q-5.1 -26.1 -5.25 -26.45 L-5.4 -26.8 -5.45 -26.9 -5.55 -26.75 Q-5.6 -26.7 -5.6 -26.45 -5.6 -26.05 -5.25 -25.65 -4.75 -25.1 -4.55 -24.65 L-4.25 -24.1 Q-3.95 -23.45 -3.8 -23.3 -3.4 -22.85 -2.4 -22.85 L-2.35 -22.85 Q-1.75 -22.85 -1.3 -23.2 -0.9 -23.5 -0.65 -24.1 -0.25 -24.95 -0.25 -25.7 -0.25 -25.95 -0.3 -26.35 -0.4 -27.05 -0.6 -28.25 -0.95 -30.25 -1.0 -30.5 L-1.2 -32.85 Q-1.35 -34.3 -1.35 -35.3 L-1.3 -36.0 -1.25 -36.85 Q-1.25 -37.3 -1.1 -37.8 -0.95 -38.3 -0.95 -38.55 -0.95 -38.7 -0.95 -38.75 L-1.1 -38.8 -1.4 -38.45 Q-1.6 -38.2 -1.8 -38.2 -1.95 -38.2 -1.95 -38.25 L-1.95 -39.3 Q-1.6 -41.35 -1.15 -42.25 -0.3 -43.95 1.7 -44.75 L2.4 -44.85 3.2 -44.85 Q4.7 -44.85 5.7 -43.85 6.0 -43.5 6.2 -43.1 L6.4 -42.75 Q6.85 -41.9 7.65 -40.15 7.95 -39.55 8.1 -38.85 8.25 -38.0 8.05 -37.55 8.05 -37.1 8.05 -36.8 8.1 -36.45 8.15 -36.2 L8.2 -36.1 8.4 -35.55 Q8.6 -35.0 8.6 -34.85 L8.5 -34.0 8.45 -33.6 Q8.4 -33.3 8.4 -33.2 8.4 -32.95 8.45 -32.9 L8.55 -32.7 Q8.8 -33.05 9.0 -33.5 L9.15 -34.0 Q9.35 -34.6 9.45 -35.15 L9.5 -35.3 9.8 -36.7 Q9.9 -37.3 9.9 -37.9 L9.9 -38.55 Q9.8 -39.25 9.55 -39.95 9.25 -40.7 9.15 -41.2 L9.15 -41.5 9.2 -42.6 M3.85 -10.85 L3.75 -10.85 3.5 -10.8 3.2 -10.5 3.05 -10.4 Q2.8 -10.15 2.7 -10.15 L2.6 -10.3 2.6 -10.65 2.55 -11.0 2.55 -11.2 2.6 -11.3 Q2.6 -11.75 2.75 -12.05 2.8 -12.5 2.35 -13.5 L1.95 -14.45 1.95 -14.5 Q1.75 -15.25 1.3 -15.7 L1.1 -15.95 0.75 -15.95 Q0.3 -15.75 0.05 -14.95 -0.2 -14.25 -0.2 -13.55 L-0.15 -13.25 -0.15 -13.15 Q0.1 -13.15 0.2 -13.45 L0.45 -14.05 Q0.9 -13.9 1.2 -13.55 1.4 -13.25 1.5 -12.9 1.6 -12.5 1.65 -11.7 1.65 -10.9 1.8 -10.5 2.0 -9.9 2.6 -9.4 L3.25 -9.4 3.55 -9.45 3.7 -9.35 3.8 -9.1 Q3.85 -8.9 4.0 -8.75 L4.05 -8.5 4.1 -8.7 4.2 -8.65 Q4.3 -9.0 4.3 -9.3 L4.25 -9.6 Q4.25 -9.9 4.15 -10.3 4.05 -10.85 3.9 -10.85 L3.85 -10.85 M1.9 -15.35 Q1.95 -15.1 2.2 -14.6 L2.6 -13.9 Q2.85 -13.35 2.9 -12.5 L2.9 -11.15 3.05 -11.0 Q3.2 -11.05 3.35 -11.2 L3.6 -11.4 3.95 -11.4 Q4.35 -11.4 4.5 -10.6 4.55 -10.2 4.55 -9.6 4.55 -9.1 4.45 -8.55 4.35 -7.8 4.1 -7.8 3.85 -7.8 3.75 -8.1 L3.6 -8.6 Q3.35 -9.3 3.2 -9.2 2.85 -9.05 2.55 -9.2 2.1 -9.35 1.85 -9.85 1.75 -10.1 1.6 -10.55 1.5 -10.8 1.3 -12.05 1.15 -12.95 0.75 -13.45 L0.5 -13.5 0.3 -13.1 Q0.2 -12.9 0.0 -12.8 -0.3 -12.95 -0.35 -13.3 -0.35 -13.4 -0.35 -13.85 -0.35 -14.5 -0.05 -15.4 0.3 -16.45 0.7 -16.55 1.45 -16.6 1.75 -16.1 1.8 -15.95 1.85 -15.7 L1.9 -15.35 M-9.15 -62.4 Q-9.15 -62.55 -9.15 -62.65 -9.15 -62.75 -9.0 -62.85 L-8.8 -62.35 -8.55 -62.35 Q-7.95 -63.0 -7.35 -63.8 L-6.55 -65.0 Q-5.75 -66.1 -5.1 -66.1 -4.4 -66.1 -4.1 -65.6 -3.9 -65.3 -3.9 -65.0 -3.9 -64.25 -3.95 -63.85 -4.1 -63.1 -4.45 -62.8 L-4.55 -63.65 Q-4.6 -64.2 -4.9 -64.45 -5.3 -64.15 -6.1 -63.05 -6.65 -62.2 -7.2 -62.0 -7.8 -61.2 -8.05 -61.2 L-8.9 -61.25 -9.15 -61.75 Q-9.2 -61.9 -9.2 -62.1 L-9.15 -62.4 M-12.05 -48.95 Q-11.75 -49.0 -11.4 -49.1 L-11.25 -49.0 -11.2 -49.0 -10.7 -48.95 -10.4 -49.15 -10.05 -49.45 Q-9.55 -49.85 -9.4 -50.05 -9.35 -50.15 -9.0 -50.75 L-8.35 -50.8 Q-8.15 -50.7 -8.0 -50.55 L-7.7 -50.3 Q-7.2 -49.7 -7.1 -48.8 -7.05 -48.4 -7.1 -47.65 L-7.1 -47.3 Q-7.1 -46.85 -7.05 -46.6 L-6.8 -46.6 Q-6.5 -47.2 -6.3 -47.95 L-6.3 -48.1 Q-6.2 -48.55 -6.15 -49.0 L-6.15 -49.55 Q-6.15 -50.5 -6.4 -51.5 -6.65 -52.45 -7.1 -52.9 -7.5 -53.3 -8.0 -53.3 -8.1 -53.3 -8.25 -53.2 -8.4 -53.05 -8.6 -52.75 L-9.25 -51.6 -9.3 -51.55 -9.6 -51.05 Q-10.15 -50.3 -10.85 -50.0 -11.05 -49.9 -11.3 -49.85 L-11.55 -49.8 -11.7 -49.9 -11.75 -50.0 -11.85 -50.25 Q-12.2 -51.4 -12.3 -51.7 -12.3 -52.0 -12.3 -53.05 L-12.3 -54.35 -11.85 -56.15 -11.85 -56.2 -11.9 -56.15 -12.05 -55.95 Q-12.2 -56.05 -12.35 -56.0 -12.7 -55.9 -13.05 -54.95 -13.2 -54.55 -13.35 -54.0 -13.6 -53.1 -13.8 -52.1 -13.95 -51.15 -13.95 -50.8 -13.95 -50.05 -13.85 -49.8 -13.75 -49.5 -13.5 -49.3 -13.3 -49.05 -12.85 -48.95 L-12.3 -48.9 -12.05 -48.9 -12.05 -48.95 M-7.65 -48.65 L-7.5 -48.35 -7.55 -48.55 -7.65 -48.65 M-20.05 -33.05 Q-19.95 -32.75 -19.6 -32.25 L-19.45 -32.35 Q-19.3 -32.8 -19.25 -33.6 L-19.15 -34.85 Q-18.95 -36.25 -17.4 -36.65 -17.3 -36.45 -17.2 -36.4 -17.1 -36.3 -16.75 -36.3 L-16.7 -36.0 Q-16.65 -35.85 -16.4 -35.85 -16.3 -36.0 -16.25 -36.15 -16.2 -36.3 -16.2 -36.5 -16.2 -36.85 -16.4 -37.35 L-16.8 -38.2 Q-17.45 -38.3 -17.75 -38.1 -17.95 -37.95 -18.05 -37.65 L-18.55 -37.55 -18.7 -37.75 -18.95 -37.95 -19.15 -37.9 Q-19.45 -37.7 -19.65 -37.35 -19.8 -37.15 -19.95 -36.65 -20.15 -36.0 -20.15 -35.7 L-20.15 -35.3 -20.1 -34.9 -20.05 -34.9 -20.1 -34.85 -20.1 -34.2 Q-20.15 -34.55 -20.2 -35.1 L-20.3 -36.05 Q-20.3 -36.6 -20.1 -37.25 -19.9 -37.95 -19.5 -38.2 -18.65 -37.9 -17.9 -38.35 -17.65 -38.5 -17.4 -38.7 L-17.15 -38.95 -16.85 -38.95 Q-16.25 -38.45 -16.2 -37.35 L-16.15 -36.45 Q-16.15 -35.95 -16.05 -35.6 L-16.05 -35.5 Q-16.05 -35.45 -16.2 -35.45 -16.5 -35.45 -16.7 -35.6 -16.9 -35.8 -17.35 -35.8 -17.85 -35.8 -18.25 -34.85 -18.5 -33.85 -18.55 -33.75 -18.65 -33.5 -18.9 -32.7 -19.1 -32.0 -19.35 -31.6 L-19.6 -31.6 Q-19.85 -32.0 -20.0 -32.7 L-20.05 -33.05 M-24.65 -30.35 Q-23.8 -30.15 -23.4 -29.75 -23.05 -29.4 -22.7 -29.4 -22.3 -29.4 -22.05 -28.8 L-21.85 -28.2 Q-21.85 -28.05 -21.9 -27.9 L-22.15 -27.4 -22.45 -27.45 -22.6 -27.6 Q-23.75 -27.55 -24.0 -27.1 L-24.2 -26.6 Q-24.3 -26.3 -24.45 -26.05 -24.7 -25.75 -25.1 -25.25 L-25.7 -24.6 -26.25 -24.65 -26.45 -24.95 Q-26.6 -25.2 -26.6 -25.35 -26.6 -25.95 -26.45 -26.45 -26.2 -27.1 -26.1 -27.95 -26.05 -28.45 -25.6 -29.2 -25.1 -30.0 -24.65 -30.35 M-20.75 -20.5 L-20.65 -20.4 Q-20.45 -20.2 -20.45 -19.9 -20.45 -19.65 -20.75 -19.25 -21.05 -18.85 -21.3 -18.85 -21.6 -18.85 -21.75 -19.15 -21.85 -19.35 -21.85 -19.5 -21.85 -19.8 -21.75 -20.05 L-21.8 -19.75 Q-21.8 -19.6 -21.8 -19.55 -21.75 -19.55 -21.75 -19.5 L-21.15 -19.45 -20.85 -19.9 Q-20.7 -20.15 -20.7 -20.3 -20.7 -20.45 -20.75 -20.5 M-22.75 -19.5 Q-23.0 -20.05 -23.35 -20.45 -23.45 -20.5 -23.7 -20.75 -23.95 -20.95 -24.1 -20.85 -24.35 -20.75 -24.5 -20.5 -24.65 -20.25 -24.65 -20.0 -24.65 -20.1 -24.45 -19.15 -24.3 -18.15 -24.3 -18.0 -24.3 -17.6 -24.55 -16.85 -24.8 -16.15 -24.8 -15.6 -24.8 -15.2 -24.7 -14.65 -24.65 -14.45 -24.3 -14.05 -23.9 -13.65 -23.8 -13.65 -23.65 -13.65 -23.65 -13.75 L-23.7 -13.8 Q-23.85 -14.8 -23.85 -15.2 -23.85 -15.7 -23.75 -16.4 -23.6 -17.15 -23.45 -17.4 -22.8 -17.55 -22.55 -17.85 L-22.2 -18.45 -22.75 -19.5 M-22.15 -17.85 Q-22.45 -17.5 -22.7 -17.1 -23.45 -15.65 -23.45 -13.65 L-23.6 -13.35 -24.3 -13.4 Q-24.85 -14.05 -25.0 -14.45 -25.1 -14.75 -25.1 -15.35 -25.1 -15.95 -24.9 -16.8 -24.75 -17.7 -24.7 -18.65 -24.65 -19.1 -24.75 -20.35 -24.75 -21.4 -24.3 -21.55 -23.6 -21.25 -22.7 -19.75 -21.95 -18.45 -21.95 -18.2 L-22.15 -17.85 M-1.2 -6.55 L-1.15 -6.55 -1.1 -6.7 -1.1 -6.8 Q-1.0 -7.15 -1.0 -7.6 -1.0 -8.3 -1.05 -8.45 -1.1 -8.7 -1.55 -9.4 L-1.6 -9.45 -1.65 -9.45 Q-2.3 -9.45 -2.65 -10.25 L-2.65 -10.3 Q-2.75 -10.55 -2.8 -10.75 -2.9 -11.1 -2.9 -11.45 -2.9 -11.7 -2.75 -11.95 L-2.45 -12.55 Q-3.4 -12.45 -3.65 -12.2 -3.95 -11.85 -3.95 -10.7 -3.95 -10.45 -3.65 -9.75 -3.3 -9.0 -3.3 -8.5 -3.15 -8.45 -3.05 -8.35 L-2.95 -8.2 -2.9 -8.25 Q-2.4 -8.5 -2.15 -8.15 L-2.0 -7.75 -1.9 -7.6 -1.9 -7.55 -1.6 -7.05 -1.55 -7.0 -1.35 -6.7 -1.3 -6.65 -1.3 -6.6 -1.2 -6.4 -1.2 -6.55 M-2.25 -11.8 Q-2.35 -11.4 -2.35 -11.25 -2.35 -10.85 -2.25 -10.55 L-1.9 -10.3 Q-1.4 -9.8 -1.25 -9.35 -0.7 -8.6 -0.6 -7.5 -0.5 -7.15 -0.5 -6.95 -0.5 -6.5 -0.55 -6.4 -0.55 -6.25 -0.65 -6.05 L-0.65 -5.75 Q-0.65 -5.7 -0.8 -5.7 L-0.85 -5.7 -0.85 -5.65 -0.9 -5.65 Q-1.0 -5.55 -1.1 -5.45 -1.3 -5.7 -1.5 -6.2 L-1.75 -7.05 Q-1.95 -7.45 -2.2 -7.6 L-2.55 -7.5 Q-2.8 -7.5 -2.95 -7.7 L-2.95 -7.75 -3.0 -7.7 Q-3.65 -8.35 -3.95 -9.55 -4.25 -10.45 -4.25 -11.4 -4.25 -13.2 -3.2 -13.1 -2.85 -13.05 -2.5 -12.8 -2.2 -12.55 -2.2 -12.3 -2.2 -12.15 -2.25 -11.8" fill="#120620" fill-opacity="0.7490196" fill-rule="evenodd" stroke="none"/>
  </g>
</svg>
