<?xml version="1.0" encoding="UTF-8" standalone="no"?>
<svg xmlns:ffdec="https://www.free-decompiler.com/flash" xmlns:xlink="http://www.w3.org/1999/xlink" ffdec:objectType="shape" height="111.85px" width="87.7px" xmlns="http://www.w3.org/2000/svg">
  <g transform="matrix(1.0, 0.0, 0.0, 1.0, 1.3, 112.1)">
    <path d="M86.4 -111.65 Q86.3 -111.35 85.95 -111.3 85.8 -111.35 85.65 -111.45 L85.45 -111.6 Q85.45 -111.9 85.5 -112.1 L85.75 -112.1 86.25 -112.05 Q86.25 -111.9 86.4 -111.65 M84.7 -85.5 Q84.65 -85.5 84.65 -85.8 84.65 -86.0 84.95 -86.1 85.25 -86.25 85.8 -86.1 L85.8 -86.05 Q85.85 -86.05 85.85 -85.8 L85.85 -85.5 85.8 -85.5 85.6 -85.4 85.35 -85.35 84.75 -85.45 84.7 -85.5 M78.45 -64.2 L78.4 -63.95 Q78.4 -63.9 78.15 -63.9 77.85 -63.9 77.55 -64.4 77.35 -64.85 77.35 -65.0 77.35 -65.4 77.4 -65.3 78.45 -65.65 78.45 -64.65 L78.45 -64.2 M20.1 -79.55 Q20.1 -79.5 20.1 -79.25 L20.1 -79.0 Q20.1 -78.95 20.1 -78.85 L19.95 -78.8 Q19.85 -78.7 19.75 -78.7 19.25 -78.9 19.1 -79.05 19.05 -79.1 19.05 -79.15 L19.1 -79.5 19.5 -79.55 20.05 -79.5 Q20.05 -79.55 20.1 -79.55 M4.45 -59.45 L4.4 -59.65 Q4.95 -59.9 5.45 -59.7 5.95 -59.5 6.1 -58.95 L6.05 -58.7 Q6.0 -58.6 6.0 -58.55 L5.45 -58.85 Q4.85 -59.15 4.45 -59.45 M38.3 -37.6 L38.25 -37.4 Q38.15 -37.25 37.85 -37.2 37.7 -37.35 37.7 -37.75 37.75 -37.85 37.95 -37.85 38.15 -37.85 38.25 -37.8 L38.3 -37.6 M19.25 -48.85 L19.5 -48.75 Q19.65 -48.7 19.65 -48.45 19.65 -48.2 19.5 -48.05 L19.35 -47.9 19.0 -47.95 18.9 -48.1 Q18.85 -48.2 18.85 -48.45 L18.85 -48.7 Q18.9 -48.7 18.95 -48.8 L19.25 -48.85 M15.8 -31.05 L15.75 -30.75 Q15.7 -30.65 15.4 -30.6 15.25 -30.75 15.05 -31.0 15.1 -31.25 15.55 -31.35 15.8 -31.25 15.8 -31.05 M31.75 -1.0 L32.1 -1.0 Q32.35 -1.0 32.65 -0.85 32.7 -0.7 32.7 -0.45 L32.5 -0.4 32.25 -0.25 31.8 -0.3 Q31.65 -0.4 31.65 -0.65 L31.65 -0.9 31.75 -1.0 M58.85 -53.65 Q58.7 -53.8 58.7 -53.85 58.7 -54.1 58.75 -54.15 L58.75 -54.3 Q59.1 -54.3 59.6 -54.05 60.15 -53.8 60.35 -53.55 L60.35 -53.3 60.4 -53.3 60.1 -53.25 59.7 -53.3 59.25 -53.3 58.85 -53.65 M53.55 -49.8 Q53.85 -49.65 53.95 -49.2 L53.95 -48.95 Q53.9 -48.85 53.6 -48.85 53.35 -48.85 53.05 -49.2 52.8 -49.5 52.8 -49.7 53.25 -50.0 53.55 -49.8 M55.85 -35.0 Q55.95 -35.0 55.95 -34.75 55.95 -34.5 55.75 -34.3 L55.35 -34.0 Q54.9 -34.05 54.75 -34.15 55.0 -34.45 55.3 -34.7 55.6 -35.0 55.8 -34.95 L55.85 -35.0 M82.35 -0.85 Q82.3 -0.5 81.75 -0.4 81.7 -0.35 81.65 -0.35 81.55 -0.4 81.55 -0.65 81.55 -0.9 81.65 -1.0 81.8 -1.15 82.15 -1.1 82.3 -0.95 82.35 -0.85 M-0.5 -41.35 Q-0.3 -41.3 -0.3 -41.2 -0.3 -41.1 -0.55 -40.95 L-1.2 -40.95 -1.25 -40.9 Q-1.3 -40.95 -1.3 -41.2 -1.3 -41.45 -1.2 -41.5 L-1.0 -41.5 Q-0.7 -41.45 -0.5 -41.35" fill="#7e59a6" fill-rule="evenodd" stroke="none"/>
  </g>
</svg>
