<?xml version="1.0" encoding="UTF-8" standalone="no"?>
<svg xmlns:ffdec="https://www.free-decompiler.com/flash" xmlns:xlink="http://www.w3.org/1999/xlink" ffdec:objectType="shape" height="79.6px" width="51.45px" xmlns="http://www.w3.org/2000/svg">
  <g transform="matrix(1.0, 0.0, 0.0, 1.0, 37.75, 87.65)">
    <path d="M10.55 -76.15 L10.55 -75.75 Q10.55 -75.65 10.4 -75.45 10.5 -75.9 10.55 -76.15 M4.0 -64.4 Q4.2 -64.2 4.45 -64.1 4.1 -64.2 4.0 -64.35 L4.0 -64.4 M1.3 -26.2 L1.3 -26.1 1.3 -26.2 M-4.5 -83.3 L-4.45 -82.95 Q-4.45 -82.55 -4.55 -82.4 L-4.65 -82.3 -4.6 -82.3 Q-4.6 -82.45 -4.65 -82.8 -4.65 -82.95 -4.5 -83.3 M-23.85 -67.05 L-23.45 -66.6 Q-23.7 -66.75 -23.85 -67.05 M-25.75 -52.8 L-25.85 -52.7 Q-25.8 -53.0 -25.75 -53.25 L-25.75 -52.8 M-8.95 -81.15 L-8.8 -81.15 Q-9.05 -81.0 -9.15 -81.0 L-8.95 -81.15 M-10.2 -47.45 L-10.05 -47.5 Q-10.0 -47.6 -10.0 -47.3 -10.0 -47.05 -10.35 -46.8 -10.25 -46.95 -10.25 -47.15 L-10.2 -47.45 M-24.5 -37.1 L-24.55 -37.1 Q-24.75 -37.25 -24.85 -37.5 L-24.85 -37.6 -24.7 -37.6 -24.7 -37.55 -24.25 -37.1 -24.5 -37.1 M-20.5 -42.1 L-20.45 -42.0 Q-20.35 -41.9 -20.35 -41.8 -20.35 -41.6 -20.45 -41.25 L-20.5 -42.1" fill="#bffff0" fill-opacity="0.7490196" fill-rule="evenodd" stroke="none"/>
    <path d="M1.35 -85.65 Q0.9 -85.85 0.75 -85.95 0.5 -86.1 0.2 -86.5 L0.15 -86.6 -0.05 -86.85 -0.3 -87.15 -0.6 -87.15 -0.65 -87.15 -0.75 -87.1 -0.95 -87.1 -1.1 -87.1 -1.1 -87.2 -0.85 -87.5 -0.7 -87.65 Q0.0 -87.6 0.35 -87.2 0.7 -86.7 1.0 -86.45 1.25 -86.3 2.35 -85.8 2.95 -85.5 2.95 -85.1 L2.9 -84.8 2.9 -84.75 2.85 -84.7 Q2.8 -84.75 2.75 -84.9 2.65 -85.1 2.65 -85.15 L1.75 -85.5 1.65 -85.55 1.35 -85.65 M6.2 -79.35 Q6.2 -79.6 6.1 -79.7 L6.0 -79.8 Q6.0 -80.45 6.4 -80.35 6.6 -80.3 6.7 -80.2 6.8 -80.05 6.8 -79.9 6.8 -79.75 6.75 -79.55 6.65 -79.35 6.65 -79.25 L6.75 -79.05 Q7.15 -79.15 7.7 -79.6 8.15 -79.95 8.8 -79.95 L9.6 -79.85 10.0 -79.4 10.0 -79.3 9.9 -79.35 9.65 -79.4 9.35 -79.5 Q8.6 -79.5 8.05 -79.15 L7.75 -78.95 7.15 -78.45 6.6 -78.45 Q6.45 -78.55 6.35 -78.75 6.25 -78.95 6.25 -79.2 L6.2 -79.35 M10.05 -78.85 L10.05 -78.9 10.15 -78.9 Q10.35 -78.7 10.45 -77.75 10.55 -77.0 10.55 -76.4 L10.55 -76.15 Q10.5 -75.9 10.4 -75.45 L10.35 -75.25 10.2 -74.35 Q10.2 -73.7 10.05 -73.4 9.9 -73.1 9.5 -72.95 9.15 -72.75 8.55 -72.65 L8.25 -72.05 7.9 -71.3 8.7 -70.45 Q9.15 -70.0 9.15 -69.6 9.15 -68.8 8.95 -68.5 L8.8 -68.25 Q8.4 -67.5 8.15 -66.85 L8.05 -66.85 8.35 -68.05 Q8.55 -68.9 8.55 -69.05 8.55 -69.6 7.95 -70.15 7.35 -70.75 7.35 -71.25 7.35 -71.75 7.65 -72.05 8.1 -72.55 8.3 -72.9 8.45 -73.1 9.0 -73.5 9.5 -73.9 9.6 -74.35 9.75 -74.95 10.05 -75.9 L10.1 -76.2 Q10.3 -76.7 10.3 -77.55 10.3 -77.8 10.2 -78.0 10.1 -78.35 10.0 -78.65 L10.05 -78.85 M6.5 -64.6 L6.8 -65.05 Q7.35 -65.85 7.45 -65.95 7.4 -65.55 6.9 -64.9 L6.9 -64.85 6.55 -64.45 6.55 -64.4 Q6.55 -64.25 5.85 -63.55 L5.55 -63.3 5.1 -62.95 Q4.55 -63.0 4.35 -63.15 4.0 -63.35 3.65 -63.45 3.5 -63.8 3.35 -64.45 L3.35 -64.5 3.15 -65.6 3.1 -65.9 3.05 -66.1 Q2.95 -66.35 2.75 -66.7 L2.45 -67.2 2.45 -67.25 1.95 -67.25 1.9 -67.2 1.9 -67.35 Q1.9 -67.6 2.0 -67.7 L2.3 -67.75 Q2.55 -67.85 2.85 -67.55 3.1 -67.35 3.3 -67.0 3.5 -66.65 3.55 -66.35 L3.6 -65.7 3.75 -65.05 Q3.85 -64.65 4.0 -64.4 L4.0 -64.35 Q4.1 -64.2 4.45 -64.1 L4.6 -64.0 4.75 -64.0 Q5.1 -63.85 5.2 -63.55 5.6 -63.55 5.9 -63.85 L6.4 -64.45 6.5 -64.6 M4.9 -47.9 L4.9 -48.2 4.95 -48.35 5.1 -48.35 5.25 -47.75 Q5.35 -47.4 5.45 -47.25 L6.85 -47.6 Q7.35 -47.75 7.65 -48.15 L8.15 -48.2 8.5 -48.25 Q8.9 -48.25 9.05 -47.75 L9.15 -46.9 9.15 -46.65 9.15 -46.6 9.05 -46.55 9.05 -46.5 Q9.0 -46.55 8.7 -47.25 8.5 -47.65 8.1 -47.65 L7.65 -47.65 Q7.55 -47.5 7.2 -47.25 L6.95 -47.1 6.85 -47.0 Q6.2 -46.65 5.95 -46.65 L5.2 -46.65 Q5.1 -46.85 5.0 -47.35 4.9 -47.7 4.9 -47.9 M11.7 -42.3 L11.55 -42.4 Q11.2 -42.7 11.2 -43.15 L11.2 -43.45 Q11.35 -43.5 11.5 -43.3 L11.8 -42.95 Q11.9 -42.85 12.4 -42.7 12.85 -42.55 13.15 -42.25 13.7 -41.75 13.7 -40.15 L13.7 -39.45 Q13.65 -39.25 13.35 -38.55 12.95 -37.75 12.85 -37.7 L11.7 -37.6 Q11.45 -37.6 11.3 -37.2 11.2 -36.85 11.25 -36.6 L11.35 -36.05 Q11.4 -35.75 11.35 -35.5 11.25 -34.8 11.1 -34.4 10.9 -33.9 10.45 -33.75 L10.1 -33.7 9.85 -33.75 Q10.4 -34.05 10.6 -34.75 10.75 -35.2 10.8 -36.1 10.8 -37.0 10.9 -37.35 11.0 -37.65 11.25 -37.85 11.4 -37.95 11.6 -37.95 L11.8 -37.95 11.9 -37.9 Q12.8 -38.25 13.1 -38.8 L13.2 -39.05 Q13.3 -39.4 13.3 -39.85 L13.3 -39.9 Q13.3 -40.3 13.1 -40.9 L12.75 -41.85 Q12.1 -42.0 11.7 -42.3 M-0.45 -49.8 L-0.6 -49.5 -0.8 -49.5 Q-0.65 -49.7 -0.65 -50.2 L-0.6 -51.0 Q-0.45 -51.95 0.75 -51.95 0.85 -51.9 1.0 -51.75 1.15 -51.55 1.15 -51.45 L1.15 -51.3 1.1 -51.25 0.85 -51.2 0.35 -51.3 0.3 -51.35 0.15 -51.2 Q-0.1 -50.9 -0.3 -50.35 L-0.45 -49.8 M-0.55 -29.15 L-0.8 -29.55 Q-1.0 -30.0 -1.0 -30.5 -1.0 -30.75 -1.15 -31.55 -1.25 -32.25 -1.25 -32.55 -1.2 -33.35 -1.45 -33.7 -1.7 -34.15 -2.35 -34.15 L-2.4 -34.2 -2.45 -34.3 -2.35 -34.35 Q-1.45 -34.2 -1.25 -33.55 -1.2 -33.35 -1.2 -33.0 L-1.1 -32.5 Q-1.0 -32.2 -0.9 -31.55 -0.75 -30.95 -0.65 -30.6 L-0.5 -30.15 Q-0.35 -29.8 -0.2 -29.6 0.1 -29.15 0.4 -29.2 L0.85 -29.25 Q1.05 -29.1 1.45 -28.6 1.9 -28.0 1.9 -27.6 L1.85 -27.1 1.85 -26.55 Q1.8 -26.55 1.75 -26.5 L1.45 -26.55 1.35 -26.55 Q1.4 -26.45 1.3 -26.2 L1.3 -26.1 1.1 -25.55 1.05 -25.55 1.1 -26.0 1.15 -26.4 1.2 -27.15 Q1.2 -27.85 1.0 -28.15 0.85 -28.4 0.5 -28.35 0.1 -28.3 -0.2 -28.65 L-0.55 -29.15 M1.05 -17.15 L1.1 -16.95 Q1.1 -16.8 0.9 -16.7 L0.45 -16.75 Q0.4 -16.8 0.35 -16.8 L0.35 -17.0 Q0.35 -17.15 0.45 -17.2 L0.55 -17.2 1.05 -17.15 M-3.45 -84.9 L-3.5 -84.9 -3.75 -84.6 -3.85 -84.4 Q-3.9 -84.25 -3.9 -84.15 -3.9 -83.55 -4.0 -83.2 -4.1 -82.6 -4.25 -82.25 -4.55 -81.65 -5.15 -81.55 L-5.35 -81.6 -5.5 -81.6 -5.6 -81.65 -5.5 -81.85 Q-4.85 -82.05 -4.65 -82.3 L-4.55 -82.4 Q-4.45 -82.55 -4.45 -82.95 L-4.5 -83.3 -4.5 -83.95 Q-4.5 -84.8 -4.45 -85.0 -4.25 -85.65 -3.55 -85.55 L-3.4 -85.4 Q-3.35 -85.3 -3.35 -85.1 -3.35 -85.05 -3.45 -84.9 M-20.6 -67.5 L-20.65 -67.5 -20.95 -67.7 -20.95 -67.75 Q-21.2 -67.65 -21.45 -67.45 -21.7 -67.2 -22.0 -66.8 -22.55 -66.1 -23.0 -66.1 -23.4 -66.1 -23.9 -66.8 L-24.3 -67.3 -24.3 -67.35 -24.5 -67.65 -24.95 -67.55 -25.6 -67.3 Q-25.85 -67.15 -25.95 -67.05 -26.05 -66.9 -26.1 -66.65 -26.15 -66.4 -26.15 -66.25 L-26.25 -66.25 -26.3 -66.55 -26.35 -66.8 -26.35 -66.9 Q-26.35 -67.4 -25.8 -67.9 -25.25 -68.4 -24.65 -68.15 -24.35 -67.95 -24.15 -67.6 L-23.85 -67.05 Q-23.7 -66.75 -23.45 -66.6 -23.2 -66.45 -22.8 -66.5 L-22.6 -66.5 Q-22.4 -66.8 -22.1 -67.6 -21.8 -68.3 -21.2 -68.3 -20.9 -68.3 -20.5 -67.95 L-20.05 -67.55 Q-20.1 -67.4 -20.3 -67.25 L-20.6 -67.5 M-26.4 -58.75 Q-26.75 -59.25 -26.85 -60.1 -27.0 -61.2 -26.9 -62.5 -26.9 -62.65 -27.0 -63.0 -27.05 -63.35 -27.05 -63.5 L-27.05 -63.8 -26.95 -63.9 Q-26.65 -63.45 -26.65 -62.65 L-26.7 -61.2 Q-26.75 -60.6 -26.45 -59.8 -26.0 -58.7 -25.25 -58.7 -24.95 -58.7 -24.9 -59.0 L-24.8 -59.6 Q-24.65 -59.7 -24.5 -59.85 L-24.05 -59.95 Q-23.15 -59.95 -22.4 -58.7 -22.15 -58.3 -21.95 -57.85 L-21.8 -57.45 -21.85 -57.15 -21.85 -57.05 -21.9 -56.9 Q-22.05 -57.05 -22.15 -57.35 L-22.35 -57.85 Q-22.4 -58.0 -22.65 -58.3 L-22.85 -58.5 -23.0 -58.7 -23.1 -58.7 -23.85 -58.7 Q-24.1 -58.4 -24.25 -58.25 -24.6 -58.0 -25.1 -58.0 -25.5 -58.0 -25.8 -58.15 -26.05 -58.3 -26.25 -58.5 L-26.4 -58.75 M-29.85 -57.1 L-29.9 -56.9 Q-29.9 -56.85 -30.0 -56.75 -30.15 -56.85 -30.2 -57.05 L-30.2 -57.4 Q-30.2 -59.4 -29.85 -60.8 -29.3 -63.1 -28.25 -59.95 -27.95 -58.95 -27.7 -58.25 L-27.5 -57.95 -27.05 -57.6 Q-26.35 -57.1 -26.25 -57.0 -25.85 -56.55 -25.6 -55.45 -25.35 -54.5 -25.35 -53.85 L-25.4 -53.2 Q-25.45 -52.7 -25.5 -52.4 L-25.55 -52.4 -25.6 -51.1 Q-25.7 -51.45 -25.75 -52.0 L-25.75 -52.8 -25.75 -53.25 -25.85 -54.5 -25.9 -54.85 Q-26.15 -55.85 -26.65 -56.6 -26.8 -56.85 -27.55 -57.5 -28.15 -58.05 -28.3 -58.4 -28.35 -58.6 -28.45 -59.05 L-28.55 -59.45 -28.65 -59.6 Q-28.9 -60.15 -29.4 -60.4 -29.75 -59.75 -29.8 -58.65 -29.8 -57.6 -29.85 -57.1 M-23.9 -59.15 Q-23.8 -59.15 -23.6 -59.05 -23.35 -58.9 -23.2 -58.85 -23.3 -58.9 -23.45 -59.15 -23.65 -59.35 -24.3 -59.35 L-24.5 -59.1 -24.6 -58.85 -24.65 -58.85 -24.25 -59.0 Q-24.05 -59.15 -23.9 -59.15 M-10.4 -74.75 Q-10.5 -73.75 -10.95 -73.3 L-11.0 -73.35 -11.0 -73.55 Q-11.0 -73.75 -10.85 -74.65 -10.7 -75.5 -10.7 -75.85 -10.75 -76.85 -10.7 -78.1 -10.65 -78.85 -10.6 -79.25 -10.5 -79.9 -10.3 -80.35 -9.55 -81.8 -8.95 -81.85 L-8.2 -81.75 -7.2 -81.65 Q-6.55 -81.65 -6.25 -81.8 -6.0 -82.05 -5.85 -82.1 L-5.8 -82.0 Q-5.9 -81.9 -6.0 -81.7 -6.1 -81.5 -6.2 -81.45 -6.45 -81.2 -7.5 -81.15 L-7.7 -81.15 Q-8.3 -81.1 -8.7 -80.9 L-9.1 -80.65 -9.35 -80.45 Q-9.75 -80.1 -9.95 -79.3 L-10.1 -78.55 -10.2 -78.0 Q-10.3 -77.5 -10.3 -76.7 L-10.3 -76.0 -10.35 -75.45 -10.35 -75.35 Q-10.35 -75.05 -10.4 -74.75 M-9.15 -81.0 Q-9.05 -81.0 -8.8 -81.15 L-8.95 -81.15 -9.15 -81.05 -9.2 -80.95 -9.15 -81.0 M-13.45 -65.35 L-13.3 -64.95 Q-13.3 -64.85 -13.35 -64.75 -13.4 -64.65 -13.5 -64.6 -13.8 -64.85 -13.9 -66.3 -13.95 -67.15 -13.95 -68.2 -13.95 -69.35 -13.2 -70.5 -12.55 -71.4 -11.4 -72.45 -11.55 -72.05 -12.1 -71.35 L-12.35 -70.95 -12.85 -70.25 -12.95 -70.1 Q-13.1 -69.8 -13.2 -69.5 -13.7 -68.05 -13.7 -66.5 -13.7 -66.25 -13.5 -65.65 L-13.45 -65.35 M-12.25 -62.65 L-12.05 -62.5 Q-11.7 -62.15 -11.6 -61.95 L-11.45 -61.45 -11.35 -61.05 Q-11.35 -60.8 -11.45 -60.35 L-11.45 -60.25 Q-11.55 -59.85 -11.7 -59.7 L-11.8 -59.75 -11.7 -60.0 Q-11.6 -60.2 -11.6 -60.35 -11.6 -60.9 -12.1 -61.85 L-12.55 -62.8 Q-12.55 -63.1 -12.5 -62.8 L-12.5 -62.85 Q-12.45 -62.85 -12.25 -62.65 M-35.9 -33.4 Q-36.3 -34.0 -36.85 -35.1 -37.55 -36.65 -37.55 -37.3 -37.55 -38.1 -37.25 -38.65 -36.8 -39.35 -35.9 -39.55 -35.25 -39.75 -34.95 -40.65 -34.75 -41.55 -34.65 -41.7 -34.55 -41.4 -34.5 -41.1 L-34.5 -40.85 Q-34.5 -40.6 -34.65 -40.15 -34.75 -39.75 -34.85 -39.55 -35.55 -39.1 -36.45 -38.5 -36.7 -38.3 -36.85 -38.05 -37.05 -37.7 -37.05 -37.3 -37.05 -37.1 -36.85 -36.5 L-36.5 -35.4 Q-35.85 -33.85 -35.85 -33.3 L-35.9 -33.4 M-36.95 -26.8 L-36.9 -26.7 -36.9 -26.65 Q-37.55 -27.65 -37.65 -27.9 -37.75 -28.15 -37.75 -29.1 -37.75 -29.75 -37.35 -30.25 -36.9 -30.7 -36.0 -31.1 L-35.8 -31.5 Q-35.65 -31.7 -35.75 -32.0 L-35.65 -32.0 -35.6 -31.75 Q-35.5 -31.65 -35.5 -31.45 -35.5 -31.35 -35.5 -31.2 -35.6 -30.9 -35.8 -30.65 L-36.0 -30.45 -36.4 -30.15 Q-36.75 -29.85 -36.95 -29.5 -37.25 -28.9 -37.25 -28.0 L-37.1 -27.35 -36.95 -26.8 M-5.25 -54.45 Q-5.05 -53.75 -4.85 -52.9 -4.75 -52.35 -4.5 -52.0 -4.3 -51.7 -4.3 -51.35 -4.3 -50.95 -4.35 -50.75 -4.45 -50.45 -4.85 -50.05 L-5.1 -50.1 -5.1 -50.3 Q-5.1 -50.45 -4.9 -50.85 -4.7 -51.25 -4.7 -51.4 -4.7 -51.5 -4.95 -52.05 L-5.25 -52.65 -5.35 -53.25 -5.5 -53.85 Q-5.9 -55.1 -6.1 -55.5 -6.55 -56.35 -7.05 -56.05 L-7.3 -56.05 -7.3 -56.15 Q-7.35 -56.2 -7.35 -56.4 -7.35 -56.8 -6.65 -56.65 -5.95 -56.45 -5.75 -56.05 L-5.55 -55.35 -5.25 -54.45 M-1.45 -48.8 L-1.4 -48.75 Q-1.75 -48.8 -2.25 -48.6 -2.9 -48.3 -3.05 -48.3 -3.15 -48.05 -3.35 -47.45 L-3.45 -47.2 -3.7 -46.5 -3.8 -46.5 -3.8 -47.1 Q-3.8 -47.2 -3.7 -47.65 -3.65 -48.0 -3.6 -48.25 -3.35 -48.9 -2.55 -48.9 -2.55 -48.95 -2.45 -48.95 L-1.55 -48.95 -1.45 -48.8 M-10.45 -47.35 L-10.35 -47.55 Q-10.05 -47.95 -9.85 -48.85 -9.8 -49.2 -9.45 -51.05 L-9.35 -51.05 -9.3 -50.8 Q-9.2 -49.85 -9.7 -48.65 L-10.1 -47.85 -10.2 -47.45 -10.25 -47.15 Q-10.25 -46.95 -10.35 -46.8 -10.45 -46.6 -10.6 -46.4 -10.95 -46.05 -11.15 -46.05 -12.45 -46.05 -13.15 -46.45 -13.4 -46.6 -13.55 -46.75 L-13.75 -46.95 -14.3 -47.55 Q-14.7 -48.0 -15.05 -48.1 L-15.05 -48.3 -14.85 -48.6 Q-14.75 -48.75 -14.55 -48.75 L-14.45 -48.65 Q-13.75 -48.0 -13.55 -47.65 L-13.15 -47.2 Q-12.75 -46.8 -12.65 -46.8 L-11.15 -46.95 Q-10.75 -47.05 -10.45 -47.35 M-17.9 -54.3 Q-17.7 -54.3 -17.6 -54.1 L-17.4 -53.65 Q-17.15 -53.0 -16.3 -53.0 L-14.7 -53.3 -14.55 -53.25 -14.55 -53.2 -14.55 -53.15 Q-14.55 -53.0 -14.7 -52.85 L-15.4 -52.5 Q-16.1 -52.15 -16.55 -52.15 -17.05 -52.15 -17.45 -52.8 -17.7 -53.2 -17.9 -53.75 L-17.9 -54.3 M-15.8 -39.05 L-15.85 -39.0 Q-16.0 -39.05 -16.2 -39.2 -16.35 -39.3 -16.8 -39.35 L-16.9 -39.4 -17.0 -39.45 -17.05 -39.6 Q-16.95 -39.7 -16.75 -39.7 L-16.2 -39.8 -15.9 -39.55 Q-15.75 -39.45 -15.75 -39.35 L-15.75 -39.05 -15.8 -39.05 M-5.45 -40.95 L-5.5 -40.6 -5.55 -39.55 -5.65 -39.5 -5.7 -39.4 Q-5.8 -39.7 -5.85 -40.15 -5.9 -40.5 -5.9 -40.8 -5.9 -41.25 -5.9 -41.35 -5.8 -41.7 -5.55 -41.6 L-5.5 -41.55 -5.45 -41.55 Q-5.4 -41.55 -5.4 -41.35 L-5.45 -40.95 M-5.1 -36.0 Q-5.0 -36.2 -4.9 -36.15 -4.85 -36.1 -4.75 -35.95 -4.45 -35.35 -4.15 -35.2 -3.9 -35.1 -3.9 -35.05 L-3.9 -35.0 -4.05 -35.0 Q-4.6 -35.0 -4.9 -35.45 -5.05 -35.7 -5.1 -36.0 M-20.45 -41.25 Q-20.4 -40.6 -20.4 -40.4 -20.4 -40.2 -20.55 -39.75 -20.75 -39.25 -20.85 -39.15 L-21.4 -38.4 Q-21.7 -37.95 -21.8 -37.9 L-22.95 -36.9 Q-23.65 -36.4 -24.1 -36.4 -25.0 -36.4 -25.55 -37.55 -25.8 -38.15 -25.9 -38.85 L-26.35 -40.1 Q-26.75 -41.3 -26.75 -41.4 L-26.75 -41.6 -26.7 -41.6 -26.65 -41.65 -26.6 -41.6 -26.6 -41.4 Q-26.6 -41.2 -26.25 -40.25 L-25.85 -39.15 Q-25.55 -37.9 -24.6 -37.1 L-24.5 -37.1 -24.25 -37.1 -24.7 -37.55 -24.7 -37.6 -24.5 -37.55 -24.4 -37.55 -24.0 -37.45 Q-23.15 -37.45 -22.4 -38.2 -22.0 -38.65 -21.3 -39.6 -20.9 -40.0 -20.75 -40.8 -20.65 -41.25 -20.6 -42.1 L-20.55 -42.1 -20.5 -42.1 -20.45 -41.25 M-20.3 -37.4 L-20.4 -37.2 Q-20.5 -36.95 -20.5 -36.6 L-20.5 -36.05 Q-20.5 -35.9 -20.55 -35.8 L-20.55 -35.75 Q-20.8 -35.85 -20.85 -36.2 -20.95 -36.4 -20.95 -36.75 -20.95 -37.3 -20.7 -37.75 -20.45 -38.35 -19.9 -38.45 L-19.85 -38.35 -20.1 -37.8 -20.3 -37.4 M-22.75 -21.3 L-22.85 -21.15 -22.9 -21.1 -23.2 -21.2 Q-23.3 -21.3 -23.5 -21.45 L-23.5 -21.75 -23.1 -21.8 -22.75 -21.45 -22.75 -21.3 M-24.75 -17.9 L-24.75 -17.85 Q-24.75 -17.65 -25.0 -17.1 L-25.15 -16.75 Q-25.35 -16.35 -25.55 -16.1 L-25.75 -16.15 -25.75 -16.35 Q-25.75 -16.65 -25.6 -17.2 L-25.35 -18.2 Q-25.3 -18.5 -25.2 -19.1 L-25.1 -19.95 -25.1 -19.85 Q-24.95 -19.5 -24.85 -18.95 -24.75 -18.4 -24.75 -17.9 M-30.6 -26.65 L-30.65 -26.65 -30.7 -26.95 Q-30.5 -27.05 -30.4 -27.3 L-30.25 -27.65 Q-30.0 -28.1 -29.1 -28.25 -28.75 -28.3 -28.45 -27.95 L-28.35 -27.8 Q-28.15 -27.5 -28.1 -27.15 -28.2 -27.15 -28.4 -27.45 -28.55 -27.65 -29.0 -27.65 -29.15 -27.65 -29.5 -27.15 L-29.9 -26.6 -30.45 -26.6 -30.6 -26.65 M-2.4 -21.35 L-2.65 -21.6 -2.85 -21.85 -3.05 -22.0 Q-3.25 -22.2 -3.3 -22.35 L-3.25 -22.65 Q-2.85 -22.5 -2.6 -22.35 -2.1 -22.0 -2.3 -21.5 L-2.4 -21.35 M-1.85 -8.15 Q-1.95 -8.05 -2.15 -8.05 -2.45 -8.05 -2.55 -8.3 -2.65 -8.45 -2.65 -8.6 L-2.65 -8.9 Q-2.5 -8.9 -2.2 -8.75 L-1.75 -8.5 -1.85 -8.15" fill="#b79ed4" fill-opacity="0.7490196" fill-rule="evenodd" stroke="none"/>
    <path d="M-0.6 -87.15 L-0.3 -87.15 -0.05 -86.85 0.15 -86.6 0.2 -86.5 Q0.5 -86.1 0.75 -85.95 0.9 -85.85 1.35 -85.65 L1.55 -85.55 1.75 -85.5 2.65 -85.15 Q2.65 -85.1 2.75 -84.9 2.8 -84.75 2.85 -84.7 L2.9 -84.75 2.85 -84.65 Q2.8 -84.5 2.65 -84.35 1.85 -84.8 1.5 -85.0 0.95 -85.35 0.75 -85.6 0.35 -86.05 -1.05 -86.6 L-1.1 -86.55 -1.1 -86.75 Q-1.1 -87.05 -0.95 -87.1 L-0.75 -87.1 -0.6 -87.1 -0.6 -87.15 M9.9 -79.35 Q10.0 -79.2 10.0 -79.05 L10.05 -78.85 10.0 -78.65 Q10.1 -78.35 10.2 -78.0 10.3 -77.8 10.3 -77.55 10.3 -76.7 10.1 -76.2 L10.05 -75.9 Q9.95 -76.6 9.6 -77.35 9.4 -77.85 8.9 -78.7 8.5 -78.65 8.0 -78.3 7.55 -77.9 7.3 -77.8 L6.8 -77.8 Q6.5 -78.0 6.3 -78.3 6.1 -78.6 6.1 -78.85 6.1 -79.15 6.1 -79.2 L6.15 -79.25 Q6.2 -79.3 6.2 -79.35 L6.25 -79.2 Q6.25 -78.95 6.35 -78.75 6.45 -78.55 6.6 -78.45 L7.15 -78.45 7.75 -78.95 Q7.9 -79.05 8.0 -79.1 L8.05 -79.15 Q8.6 -79.5 9.35 -79.5 L9.65 -79.4 9.9 -79.35 M9.5 -72.95 L9.4 -72.75 Q8.95 -72.2 8.55 -72.0 L8.25 -72.05 8.55 -72.65 Q9.15 -72.75 9.5 -72.95 M8.8 -68.25 Q8.75 -67.75 8.6 -67.45 8.4 -67.0 7.55 -65.95 L7.45 -66.0 Q7.9 -66.6 7.95 -66.8 8.0 -67.0 7.95 -67.5 L8.3 -69.1 Q8.3 -69.2 8.1 -69.45 L7.7 -69.95 Q7.05 -70.75 7.05 -71.5 7.05 -72.5 7.85 -72.8 L8.3 -72.9 Q8.1 -72.55 7.65 -72.05 7.35 -71.75 7.35 -71.25 7.35 -70.75 7.95 -70.15 8.55 -69.6 8.55 -69.05 8.55 -68.9 8.35 -68.05 L8.05 -66.85 8.15 -66.85 Q8.4 -67.5 8.8 -68.25 M4.75 -64.0 L5.2 -63.95 Q5.85 -63.95 6.35 -64.4 L6.5 -64.6 6.4 -64.45 5.9 -63.85 Q5.6 -63.55 5.2 -63.55 5.1 -63.85 4.75 -64.0 M6.9 -64.85 Q6.9 -64.7 6.9 -64.35 6.35 -63.3 5.9 -63.3 L5.55 -63.3 5.85 -63.55 Q6.55 -64.25 6.55 -64.4 L6.55 -64.45 6.9 -64.85 M3.35 -64.5 L3.05 -64.75 Q2.9 -64.85 2.75 -65.15 L2.5 -65.7 2.15 -66.15 1.75 -66.55 Q1.9 -66.8 2.05 -66.85 2.25 -66.95 2.6 -66.7 2.9 -66.3 3.1 -65.9 L3.15 -65.6 3.35 -64.5 M9.15 -46.65 L9.3 -46.3 Q9.3 -46.15 9.25 -46.0 L9.15 -45.75 Q8.95 -46.0 8.6 -46.5 8.4 -46.85 8.3 -46.85 L7.8 -46.65 Q7.15 -46.5 6.7 -46.5 L6.3 -46.5 5.2 -46.6 4.85 -46.95 Q4.65 -47.15 4.65 -47.3 4.65 -47.65 4.7 -47.95 L4.9 -47.9 Q4.9 -47.7 5.0 -47.35 5.1 -46.85 5.2 -46.65 L5.95 -46.65 Q6.2 -46.65 6.85 -47.0 L6.95 -47.1 7.2 -47.1 Q7.2 -47.15 7.2 -47.25 7.55 -47.5 7.65 -47.65 L8.1 -47.65 Q8.5 -47.65 8.7 -47.25 9.0 -46.55 9.05 -46.5 L9.05 -46.55 9.15 -46.6 9.15 -46.65 M10.45 -33.75 Q10.3 -33.65 10.05 -33.55 L9.85 -33.6 9.85 -33.55 Q9.8 -33.55 9.8 -33.75 9.8 -33.9 10.2 -34.6 10.6 -35.35 10.7 -35.95 10.75 -36.2 10.75 -37.1 10.85 -37.65 11.25 -37.85 11.0 -37.65 10.9 -37.35 10.8 -37.0 10.8 -36.1 10.75 -35.2 10.6 -34.75 10.4 -34.05 9.85 -33.75 L10.1 -33.7 10.45 -33.75 M11.8 -37.95 Q12.1 -38.45 12.6 -38.85 12.75 -39.0 12.75 -39.65 L12.7 -40.35 Q12.7 -40.9 12.7 -41.2 12.25 -41.35 12.0 -41.65 11.7 -41.95 11.7 -42.3 12.1 -42.0 12.75 -41.85 L13.1 -40.9 Q13.3 -40.3 13.3 -39.9 L13.3 -39.85 13.25 -39.4 13.2 -39.05 13.1 -38.8 Q12.8 -38.25 11.9 -37.9 L11.8 -37.95 M1.1 -51.25 L1.15 -51.1 1.15 -50.9 1.1 -50.85 0.75 -50.8 Q0.55 -50.75 0.3 -50.45 L-0.4 -49.65 -0.45 -49.8 -0.3 -50.35 Q-0.1 -50.9 0.15 -51.2 L0.35 -51.3 0.85 -51.2 1.1 -51.25 M1.1 -26.0 Q0.9 -26.2 0.9 -26.75 0.9 -27.45 0.8 -27.65 0.7 -27.8 0.1 -28.3 L-0.7 -28.9 -0.7 -29.15 -0.55 -29.15 -0.2 -28.65 Q0.1 -28.3 0.5 -28.35 0.85 -28.4 1.0 -28.15 1.2 -27.85 1.2 -27.15 L1.15 -26.4 1.1 -26.0 M-5.5 -81.6 L-5.35 -81.6 -5.15 -81.55 Q-4.55 -81.65 -4.25 -82.25 -4.1 -82.6 -4.0 -83.2 -3.9 -83.55 -3.9 -84.15 -3.9 -84.25 -3.85 -84.4 L-3.75 -84.6 -3.5 -84.9 -3.45 -84.9 -3.35 -84.85 -3.35 -84.75 Q-3.3 -84.7 -3.3 -84.55 -3.3 -84.3 -3.5 -83.4 -3.7 -82.65 -3.8 -82.4 -3.95 -82.0 -4.55 -81.3 -5.1 -80.65 -5.2 -80.65 -5.4 -80.65 -5.45 -80.85 L-5.45 -81.2 -5.65 -81.1 -6.05 -81.0 -6.2 -81.0 Q-6.4 -81.05 -6.45 -81.1 -6.25 -81.3 -5.7 -81.55 L-5.5 -81.6 M-20.6 -67.5 L-21.45 -66.65 Q-22.05 -66.05 -22.35 -65.75 L-22.8 -65.7 Q-23.4 -65.7 -23.7 -66.05 L-24.0 -66.4 -24.45 -66.8 -24.85 -66.9 -25.2 -67.0 Q-25.3 -67.0 -25.45 -66.8 -25.6 -66.55 -25.7 -66.55 L-25.8 -66.6 -25.9 -66.3 Q-26.1 -65.8 -26.2 -65.65 -26.25 -65.7 -26.3 -66.05 -26.4 -66.35 -26.4 -66.5 L-26.35 -66.8 -26.3 -66.55 -26.25 -66.25 -26.15 -66.25 Q-26.15 -66.4 -26.1 -66.65 -26.05 -66.9 -25.95 -67.05 -25.85 -67.15 -25.6 -67.3 L-24.95 -67.55 -24.5 -67.65 -24.3 -67.35 -24.35 -67.35 -24.3 -67.3 -23.9 -66.8 Q-23.4 -66.1 -23.0 -66.1 -22.55 -66.1 -22.0 -66.8 -21.7 -67.2 -21.45 -67.45 -21.2 -67.65 -20.95 -67.7 L-20.65 -67.5 -20.6 -67.5 M-21.85 -57.05 L-21.85 -57.0 Q-21.7 -56.7 -21.7 -56.6 L-21.7 -56.1 Q-21.75 -56.1 -21.8 -55.95 L-22.1 -56.0 -22.1 -56.5 Q-22.1 -56.7 -22.55 -57.25 -23.05 -57.85 -23.45 -58.1 -23.8 -58.1 -24.2 -57.85 -24.65 -57.55 -25.35 -57.55 -25.85 -57.55 -26.2 -57.85 -26.45 -58.15 -26.45 -58.35 L-26.4 -58.75 -26.25 -58.5 Q-26.2 -58.15 -25.9 -58.15 L-25.8 -58.15 Q-25.5 -58.0 -25.1 -58.0 -24.6 -58.0 -24.25 -58.25 -24.1 -58.4 -23.85 -58.7 L-23.1 -58.7 -22.85 -58.5 -22.65 -58.3 Q-22.4 -58.0 -22.35 -57.85 L-22.15 -57.35 Q-22.05 -57.05 -21.9 -56.9 L-21.85 -57.05 M-25.9 -54.85 Q-26.0 -55.2 -26.15 -55.5 -26.45 -56.1 -27.1 -56.6 L-28.2 -57.6 Q-28.85 -58.2 -29.2 -59.05 L-29.3 -59.05 -29.45 -57.9 Q-29.5 -57.15 -29.75 -56.9 L-29.85 -57.1 Q-29.8 -57.6 -29.8 -58.65 -29.75 -59.75 -29.4 -60.4 -28.9 -60.15 -28.65 -59.6 L-28.45 -59.05 Q-28.35 -58.6 -28.3 -58.4 -28.15 -58.05 -27.55 -57.5 -26.8 -56.85 -26.65 -56.6 -26.15 -55.85 -25.9 -54.85 M-7.5 -81.15 L-7.5 -81.05 -7.15 -81.05 -6.85 -81.1 -6.8 -81.0 Q-6.95 -80.9 -7.0 -80.8 -7.0 -80.65 -7.0 -80.6 -7.1 -80.5 -7.95 -80.5 L-8.45 -80.1 -8.75 -79.85 -8.85 -79.75 Q-9.0 -79.6 -9.15 -79.5 L-9.3 -79.3 Q-9.45 -79.05 -9.55 -78.5 -9.6 -77.85 -9.65 -77.7 L-9.95 -76.9 -10.0 -76.7 -10.05 -76.4 -10.05 -76.05 Q-10.05 -75.65 -10.15 -75.3 -10.2 -74.9 -10.4 -74.75 -10.35 -75.05 -10.35 -75.35 L-10.35 -75.45 -10.3 -76.0 -10.3 -76.7 Q-10.3 -77.5 -10.2 -78.0 L-10.1 -78.55 -9.95 -79.3 Q-9.75 -80.1 -9.35 -80.45 L-9.1 -80.65 -8.7 -80.9 Q-8.3 -81.1 -7.7 -81.15 L-7.5 -81.15 M-12.1 -71.35 L-11.6 -71.8 Q-10.85 -72.5 -10.75 -72.9 -10.7 -73.05 -10.7 -72.75 -10.7 -72.65 -11.15 -71.85 -11.5 -71.15 -11.7 -70.9 L-12.2 -70.1 Q-12.55 -69.65 -12.65 -69.3 -12.95 -68.5 -13.15 -67.55 L-13.4 -65.8 -13.4 -65.75 -13.45 -65.35 -13.5 -65.65 Q-13.7 -66.25 -13.7 -66.5 -13.7 -68.05 -13.2 -69.5 -13.1 -69.8 -12.95 -70.1 L-12.9 -70.15 -12.85 -70.25 -12.35 -70.95 -12.1 -71.35 M-11.45 -60.25 Q-11.45 -59.85 -11.5 -59.75 -11.55 -59.45 -11.8 -58.95 L-12.05 -59.0 -12.15 -59.0 Q-12.15 -59.05 -12.15 -59.2 -12.15 -59.35 -12.0 -59.9 -11.85 -60.4 -11.85 -60.6 -11.85 -61.15 -12.4 -62.05 L-13.0 -63.0 Q-13.0 -63.35 -12.85 -63.4 L-12.25 -62.65 Q-12.45 -62.85 -12.5 -62.85 L-12.5 -62.8 Q-12.55 -63.1 -12.55 -62.8 L-12.1 -61.85 Q-11.6 -60.9 -11.6 -60.35 -11.6 -60.2 -11.7 -60.0 L-11.8 -59.75 -11.7 -59.7 Q-11.55 -59.85 -11.45 -60.25 M-35.9 -33.4 L-35.85 -33.3 Q-35.85 -33.85 -36.5 -35.4 L-36.85 -36.5 Q-36.9 -36.95 -36.9 -37.5 -36.9 -37.8 -36.85 -38.05 -36.7 -38.3 -36.45 -38.5 -35.55 -39.1 -34.85 -39.55 -34.75 -39.75 -34.65 -40.15 -34.5 -40.6 -34.5 -40.85 L-34.5 -41.1 -34.5 -41.15 Q-34.35 -41.1 -34.25 -40.9 -34.2 -40.7 -34.2 -40.35 -34.2 -39.95 -34.7 -39.45 L-35.6 -38.5 Q-36.15 -37.75 -36.5 -37.35 -36.65 -37.2 -36.65 -36.65 -36.65 -36.45 -36.15 -34.7 -35.6 -32.85 -35.55 -32.45 L-35.55 -32.4 -35.9 -33.4 M-35.5 -31.2 L-35.4 -31.4 Q-35.35 -31.3 -35.35 -31.0 -35.35 -30.45 -36.15 -29.5 -36.95 -28.5 -36.95 -28.1 -36.95 -28.05 -36.8 -27.65 -36.65 -27.3 -36.65 -27.2 L-36.65 -26.9 -36.75 -26.8 Q-36.8 -26.75 -36.9 -26.75 L-36.95 -26.8 -37.1 -27.35 -37.25 -28.0 Q-37.25 -28.9 -36.95 -29.5 L-36.85 -29.5 -36.45 -29.75 -36.0 -30.45 -35.8 -30.65 Q-35.6 -30.9 -35.5 -31.2 M-1.45 -48.8 L-0.85 -48.75 Q-1.05 -48.5 -1.8 -48.3 -2.5 -48.1 -2.75 -47.75 -2.9 -47.55 -3.05 -46.95 L-3.2 -46.1 -3.2 -46.05 Q-3.3 -46.2 -3.4 -46.5 -3.45 -46.8 -3.45 -47.0 L-3.45 -47.2 -3.35 -47.45 Q-3.15 -48.05 -3.05 -48.3 -2.9 -48.3 -2.25 -48.6 -1.75 -48.8 -1.4 -48.75 L-1.45 -48.8 M-14.85 -48.6 L-14.9 -48.85 Q-14.65 -49.7 -14.35 -49.8 L-14.35 -49.45 Q-14.3 -49.35 -14.25 -49.2 L-14.05 -48.9 Q-13.95 -48.85 -13.95 -48.8 L-13.95 -48.55 Q-13.95 -48.5 -13.9 -48.35 L-13.75 -48.3 Q-13.5 -48.15 -13.3 -47.9 L-13.0 -47.5 Q-12.65 -47.1 -11.75 -47.1 -11.3 -47.1 -10.7 -47.3 L-10.45 -47.35 Q-10.75 -47.05 -11.15 -46.95 L-12.65 -46.8 Q-12.75 -46.8 -13.15 -47.2 L-13.55 -47.65 Q-13.75 -48.0 -14.45 -48.65 L-14.55 -48.75 Q-14.75 -48.75 -14.85 -48.6 M-17.9 -54.3 L-17.9 -54.65 Q-17.75 -54.75 -17.6 -54.6 L-17.3 -54.15 Q-16.8 -53.45 -16.05 -53.45 -15.2 -53.45 -14.9 -53.7 L-14.7 -53.85 Q-14.6 -53.95 -14.5 -53.95 -14.3 -53.95 -14.1 -53.75 -14.0 -53.65 -13.95 -53.5 L-14.2 -53.2 -14.4 -53.25 -14.55 -53.2 -14.55 -53.25 -14.7 -53.3 -16.3 -53.0 Q-17.15 -53.0 -17.4 -53.65 L-17.6 -54.1 Q-17.7 -54.3 -17.9 -54.3 M-15.8 -39.05 L-15.65 -38.95 -15.75 -38.8 Q-15.85 -38.65 -15.9 -38.6 L-16.9 -38.85 -16.95 -38.9 -16.95 -39.05 Q-16.95 -39.25 -16.9 -39.4 L-16.8 -39.35 Q-16.35 -39.3 -16.2 -39.2 -16.0 -39.05 -15.85 -39.0 L-15.8 -39.05 M-5.5 -41.55 Q-5.45 -41.9 -5.3 -42.05 L-5.15 -42.0 Q-5.05 -42.0 -5.05 -41.85 -5.05 -41.5 -5.1 -40.65 -5.15 -39.6 -5.25 -39.0 -5.4 -39.1 -5.45 -39.9 L-5.45 -40.95 -5.4 -41.35 Q-5.4 -41.55 -5.45 -41.55 L-5.5 -41.55 M-24.5 -37.55 Q-23.65 -37.5 -22.85 -38.3 -22.45 -38.65 -21.65 -39.85 -21.5 -40.1 -21.3 -40.55 -21.15 -41.0 -21.1 -41.4 -20.95 -42.3 -20.65 -42.2 -20.6 -42.15 -20.55 -42.1 L-20.6 -42.1 Q-20.65 -41.25 -20.75 -40.8 -20.9 -40.0 -21.3 -39.6 -22.0 -38.65 -22.4 -38.2 -23.15 -37.45 -24.0 -37.45 L-24.4 -37.55 -24.5 -37.55 M-20.1 -37.8 Q-19.95 -38.05 -19.7 -38.05 L-19.65 -37.95 -19.65 -37.7 Q-19.65 -37.45 -19.85 -36.55 -20.1 -35.65 -20.25 -35.45 L-20.45 -35.5 -20.5 -35.75 Q-20.5 -36.55 -20.4 -37.0 L-20.3 -37.4 -20.1 -37.8 M-23.35 -21.25 Q-23.15 -21.2 -22.9 -21.0 L-22.9 -20.85 -22.95 -20.75 -23.35 -20.75 -23.35 -20.8 -23.55 -20.9 -23.6 -20.9 Q-23.65 -20.9 -23.65 -21.1 L-23.65 -21.3 Q-23.5 -21.35 -23.35 -21.25 M-25.1 -19.85 L-25.05 -19.9 -25.0 -19.9 -24.8 -19.8 -24.7 -19.65 -24.7 -19.6 Q-24.75 -19.55 -24.85 -19.5 -24.6 -18.65 -24.75 -17.9 -24.75 -18.4 -24.85 -18.95 -24.95 -19.5 -25.1 -19.85 M-25.15 -16.75 Q-25.25 -16.45 -25.25 -16.3 -25.25 -16.15 -25.15 -15.85 -25.1 -15.6 -25.1 -15.45 -25.1 -15.25 -25.1 -15.2 L-25.1 -15.2 Q-25.1 -15.15 -25.25 -15.15 -25.6 -15.15 -25.65 -15.4 -25.7 -15.5 -25.65 -15.7 -25.65 -15.8 -25.55 -16.1 -25.35 -16.35 -25.15 -16.75 M-28.35 -27.8 Q-27.95 -27.75 -27.95 -27.05 L-28.0 -26.65 -28.05 -26.6 Q-28.1 -26.55 -28.2 -26.55 -28.35 -26.55 -28.45 -26.7 L-28.55 -26.9 -28.9 -27.0 -29.45 -26.6 Q-29.75 -26.4 -30.35 -26.35 L-30.55 -26.35 Q-30.55 -26.4 -30.6 -26.4 -30.65 -26.4 -30.65 -26.6 L-30.6 -26.65 -30.45 -26.6 -29.9 -26.6 -29.5 -27.15 Q-29.15 -27.65 -29.0 -27.65 -28.55 -27.65 -28.4 -27.45 -28.2 -27.15 -28.1 -27.15 -28.15 -27.5 -28.35 -27.8" fill="#120620" fill-opacity="0.7490196" fill-rule="evenodd" stroke="none"/>
  </g>
</svg>
