<?xml version="1.0" encoding="UTF-8" standalone="no"?>
<svg xmlns:ffdec="https://www.free-decompiler.com/flash" xmlns:xlink="http://www.w3.org/1999/xlink" ffdec:objectType="shape" height="70.4px" width="52.1px" xmlns="http://www.w3.org/2000/svg">
  <g transform="matrix(1.0, 0.0, 0.0, 1.0, 37.8, 88.0)">
    <path d="M0.65 -86.7 L0.45 -86.75 Q0.05 -87.45 0.15 -87.9 0.45 -88.2 0.6 -87.7 0.75 -87.0 0.85 -86.75 L0.85 -86.7 0.75 -86.7 Q0.5 -86.7 0.65 -86.7 M1.95 -86.05 L2.55 -86.0 2.8 -85.65 3.0 -85.4 2.9 -85.1 2.3 -85.5 Q1.85 -85.9 1.8 -86.15 L1.95 -86.05 M10.4 -78.6 L10.2 -78.45 Q9.75 -79.25 9.75 -79.5 L9.75 -79.8 Q10.15 -79.8 10.5 -78.95 L10.4 -78.6 M8.55 -71.4 L8.6 -71.45 Q9.25 -70.6 9.35 -70.4 L9.35 -70.35 Q8.9 -70.3 8.7 -70.65 8.5 -70.9 8.5 -71.2 8.5 -71.5 8.55 -71.4 M3.6 -64.25 Q3.55 -63.5 3.75 -63.4 4.05 -63.2 4.15 -62.9 L4.05 -62.7 3.95 -62.6 3.65 -62.6 3.3 -63.1 Q3.15 -63.3 3.15 -63.45 3.15 -63.8 3.2 -63.95 3.3 -64.2 3.6 -64.25 M9.95 -69.55 Q9.6 -67.75 9.3 -67.75 9.15 -67.75 9.15 -67.8 L9.05 -67.9 Q9.05 -68.05 9.4 -68.8 9.7 -69.5 9.7 -69.65 9.7 -69.75 9.55 -69.9 9.4 -70.05 9.4 -70.2 9.6 -70.15 9.75 -69.95 9.95 -69.75 9.95 -69.55 M9.25 -48.05 Q9.2 -47.9 9.1 -47.8 8.9 -47.9 8.75 -48.15 L8.55 -48.55 Q8.3 -49.05 7.8 -48.8 L7.75 -48.85 7.75 -49.0 Q7.75 -49.2 7.85 -49.25 8.0 -49.3 8.0 -49.4 8.65 -49.3 8.85 -48.9 9.05 -48.3 9.25 -48.05 M12.45 -43.1 Q13.3 -43.05 13.85 -42.2 14.3 -41.5 14.3 -40.75 14.3 -40.35 14.05 -40.05 13.9 -40.3 14.0 -40.9 14.05 -41.45 13.9 -41.65 13.9 -41.7 13.75 -42.0 13.6 -42.3 13.45 -42.4 L13.0 -42.6 Q12.55 -42.8 12.45 -42.9 L12.45 -43.1 M7.65 -48.75 L7.6 -48.3 Q7.6 -47.95 7.5 -47.7 7.15 -46.85 6.25 -46.85 6.15 -46.85 6.0 -47.05 L5.8 -47.35 5.8 -47.55 Q5.8 -47.6 5.95 -47.6 6.1 -47.6 6.25 -47.5 L6.35 -47.35 Q7.15 -47.6 7.3 -48.15 L7.4 -48.55 Q7.45 -48.7 7.65 -48.75 M0.55 -29.35 Q0.45 -29.15 0.35 -29.15 0.2 -29.15 0.0 -29.25 L-0.3 -29.4 -0.35 -29.5 -0.35 -29.55 -0.2 -29.6 0.2 -29.65 Q0.3 -30.45 1.0 -30.25 1.3 -30.15 1.55 -29.85 1.75 -29.6 1.8 -29.25 L1.8 -29.0 1.7 -28.9 Q1.45 -28.95 1.4 -29.15 1.3 -29.4 1.1 -29.6 L0.75 -29.6 Q0.65 -29.55 0.55 -29.35 M12.9 -37.8 L12.95 -37.6 12.7 -37.5 Q12.35 -37.45 12.05 -37.3 L11.8 -36.95 Q11.8 -36.75 12.1 -36.4 12.4 -36.05 12.4 -35.65 12.4 -35.35 12.25 -34.85 12.1 -34.25 11.85 -34.05 L11.6 -34.05 11.5 -34.1 Q11.45 -34.15 11.4 -34.2 L11.4 -34.55 11.55 -34.6 11.85 -34.65 Q12.05 -35.05 12.05 -35.4 L11.85 -35.75 Q11.6 -36.0 11.65 -36.15 L11.6 -36.45 Q11.55 -36.7 11.55 -36.85 11.55 -37.35 11.8 -37.6 12.05 -37.9 12.85 -37.95 12.85 -37.9 12.9 -37.8 M-30.1 -61.35 Q-30.1 -61.45 -30.05 -61.6 L-29.85 -61.9 Q-29.8 -61.75 -29.85 -61.65 L-29.9 -61.3 Q-29.9 -61.15 -29.8 -60.5 -29.7 -59.85 -29.7 -59.7 -29.7 -59.45 -29.75 -59.25 L-29.75 -59.2 Q-29.8 -59.3 -29.95 -60.2 -30.1 -61.1 -30.1 -61.35 M-27.4 -62.4 Q-27.2 -62.0 -27.0 -61.35 L-26.75 -60.25 -26.7 -60.2 Q-26.7 -60.1 -26.85 -60.1 -27.15 -60.1 -27.4 -61.0 -27.6 -61.7 -27.6 -61.95 -27.6 -62.3 -27.4 -62.4 M-25.9 -56.7 Q-26.25 -57.2 -27.1 -57.9 -27.55 -58.25 -27.55 -58.85 -27.55 -59.15 -27.55 -58.95 -27.25 -58.95 -27.15 -58.7 -26.95 -58.4 -26.6 -58.2 -26.15 -58.1 -25.95 -57.65 -25.75 -57.35 -25.75 -56.95 -25.8 -56.75 -25.9 -56.7 M-20.65 -68.5 Q-20.65 -68.4 -20.8 -68.4 -20.95 -68.4 -21.75 -68.9 L-21.75 -68.85 -21.8 -69.05 Q-21.8 -69.45 -21.25 -69.2 -20.8 -68.95 -20.65 -68.65 L-20.65 -68.5 M-24.8 -69.05 Q-24.55 -69.15 -24.35 -68.75 -24.35 -68.7 -24.45 -68.6 -24.6 -68.5 -24.65 -68.5 L-25.0 -68.5 -25.1 -68.55 -25.2 -68.7 Q-25.05 -69.0 -24.8 -69.05 M-22.5 -60.15 Q-22.35 -59.75 -22.35 -59.6 L-22.35 -59.25 -22.4 -59.2 Q-22.4 -59.15 -22.55 -59.15 -22.7 -59.15 -22.9 -59.8 L-23.25 -60.6 -23.85 -60.9 -23.9 -61.0 Q-23.4 -61.65 -22.85 -60.85 -22.65 -60.55 -22.5 -60.15 M-24.4 -60.55 L-24.6 -60.3 -25.05 -60.15 -25.55 -60.25 Q-25.2 -60.3 -24.8 -60.5 L-24.45 -60.7 -24.4 -60.55 M-8.8 -81.85 Q-9.6 -81.55 -10.05 -80.5 L-10.4 -79.75 Q-10.55 -79.4 -10.75 -79.25 L-10.9 -79.3 Q-10.95 -79.35 -10.95 -79.55 -10.95 -79.85 -10.75 -80.5 -10.5 -81.15 -10.15 -81.7 -9.3 -83.1 -8.75 -82.15 L-8.8 -81.85 M-13.45 -70.0 L-13.45 -69.8 Q-13.45 -69.7 -13.75 -68.8 -14.0 -67.9 -14.1 -67.75 L-14.2 -67.75 -14.25 -68.4 Q-14.25 -68.7 -14.1 -69.25 -13.9 -69.95 -13.55 -70.1 L-13.45 -70.0 M-37.3 -38.45 L-37.35 -38.45 -37.45 -37.9 Q-37.55 -37.55 -37.55 -37.35 -37.55 -36.9 -37.35 -36.3 -37.4 -36.15 -37.55 -36.05 L-37.75 -36.3 Q-37.8 -36.4 -37.8 -36.5 -37.8 -36.85 -37.65 -37.6 -37.5 -38.2 -37.4 -38.4 L-37.3 -38.7 Q-37.2 -39.0 -37.05 -39.1 L-37.2 -38.8 Q-37.3 -38.55 -37.3 -38.45 M-36.85 -30.6 Q-37.4 -30.35 -37.55 -30.25 L-37.65 -30.4 Q-37.7 -30.5 -37.7 -30.7 -37.7 -30.9 -37.5 -30.9 -37.25 -30.95 -36.9 -30.7 L-36.85 -30.6 M-4.05 -51.1 L-4.15 -50.95 Q-4.25 -51.05 -4.45 -51.45 -4.6 -51.8 -4.6 -51.9 -4.6 -52.65 -4.35 -52.15 -4.15 -51.75 -4.05 -51.3 L-4.05 -51.1 M-5.75 -55.9 Q-5.85 -55.8 -5.95 -55.8 -6.2 -55.8 -6.3 -56.35 -6.3 -56.8 -6.1 -56.8 -6.05 -56.7 -5.7 -56.05 L-5.75 -55.9 M-16.35 -51.65 Q-16.35 -51.55 -16.5 -51.55 L-16.9 -51.65 -17.4 -51.7 Q-17.45 -51.75 -17.45 -51.9 -17.45 -52.3 -17.1 -52.3 -16.8 -52.25 -16.4 -51.85 L-16.35 -51.65 M-13.9 -46.4 L-14.05 -46.85 -14.0 -46.9 -13.8 -46.95 Q-13.65 -46.95 -13.25 -46.45 -12.95 -46.0 -12.95 -45.9 -13.0 -45.9 -13.0 -45.8 -13.05 -45.8 -12.75 -45.4 L-12.25 -45.35 Q-11.45 -45.35 -11.0 -46.15 L-10.7 -46.75 Q-10.6 -47.05 -10.5 -47.1 L-10.35 -47.0 Q-10.3 -46.95 -10.3 -46.75 -10.3 -46.4 -10.9 -45.75 -11.6 -45.0 -12.35 -45.0 L-12.95 -45.05 Q-13.15 -45.2 -13.15 -45.45 -13.15 -45.55 -13.15 -45.85 -13.25 -45.9 -13.7 -46.1 -13.8 -46.15 -13.9 -46.4 M-16.65 -40.0 L-16.6 -40.05 -16.35 -40.05 Q-16.15 -40.0 -16.05 -39.75 -16.05 -39.65 -16.15 -39.55 -16.2 -39.45 -16.25 -39.4 L-16.5 -39.45 -16.6 -39.55 Q-16.65 -39.6 -16.65 -39.8 L-16.65 -40.0 M-5.65 -40.15 Q-5.65 -40.0 -5.7 -39.85 L-5.8 -39.65 -6.05 -39.65 -6.05 -40.2 Q-6.05 -40.4 -6.0 -40.45 L-5.9 -40.55 -5.75 -40.35 Q-5.65 -40.2 -5.65 -40.15 M-26.1 -37.65 Q-25.8 -37.8 -25.5 -37.2 -25.15 -36.45 -24.95 -36.15 L-25.1 -36.1 Q-25.4 -36.1 -25.8 -36.8 -26.1 -37.4 -26.1 -37.65 M-20.45 -37.85 Q-20.4 -37.8 -20.4 -37.6 -20.4 -37.45 -20.45 -37.25 -20.5 -37.15 -20.5 -37.05 L-20.65 -36.85 -20.9 -36.85 -20.95 -36.95 Q-20.95 -37.0 -20.95 -37.15 -20.95 -37.4 -20.8 -37.65 L-20.6 -37.95 -20.45 -37.85 M-25.35 -18.2 L-25.5 -17.95 -25.75 -17.6 -25.9 -17.65 -25.9 -17.85 -25.8 -18.15 -25.55 -18.45 Q-25.35 -18.4 -25.35 -18.2 M-29.55 -28.25 L-29.3 -28.15 -29.25 -27.95 -29.35 -27.8 Q-29.45 -27.7 -29.55 -27.65 L-29.8 -27.65 -29.95 -27.75 Q-30.0 -27.75 -30.0 -27.95 -30.0 -28.15 -29.95 -28.2 L-29.8 -28.25 -29.55 -28.25" fill="#b79ed4" fill-opacity="0.7490196" fill-rule="evenodd" stroke="none"/>
  </g>
</svg>
