<?xml version="1.0" encoding="UTF-8" standalone="no"?>
<svg xmlns:ffdec="https://www.free-decompiler.com/flash" xmlns:xlink="http://www.w3.org/1999/xlink" ffdec:objectType="shape" height="12.25px" width="15.95px" xmlns="http://www.w3.org/2000/svg">
  <g transform="matrix(1.0, 0.0, 0.0, 1.0, 5.65, 32.85)">
    <path d="M1.05 -29.6 L1.15 -29.55 1.0 -29.5 Q0.85 -29.5 0.85 -29.45 L0.8 -29.5 Q0.75 -29.5 0.75 -29.55 L0.75 -29.65 0.8 -29.6 0.8 -29.65 1.05 -29.6 M1.25 -28.65 L1.5 -28.9 Q1.75 -28.85 1.8 -28.75 L1.85 -28.65 1.85 -28.5 1.8 -28.4 1.75 -28.45 1.7 -28.55 1.5 -28.55 Q1.35 -28.55 1.1 -28.35 L1.05 -28.35 Q1.1 -28.5 1.25 -28.65 M2.55 -28.35 L2.55 -28.3 Q2.0 -28.2 1.9 -28.05 1.85 -28.15 1.9 -28.25 L2.05 -28.35 Q2.15 -28.5 2.25 -28.5 2.4 -28.5 2.55 -28.35 M3.25 -28.4 L3.25 -28.4 3.35 -28.5 3.65 -28.45 Q3.8 -28.3 4.0 -28.25 4.1 -28.25 4.15 -28.05 L4.15 -28.0 4.0 -27.8 3.95 -27.8 3.95 -27.9 3.85 -28.05 3.6 -28.25 3.4 -28.3 3.35 -28.35 3.25 -28.25 3.15 -28.3 Q3.2 -28.35 3.25 -28.4 M8.3 -30.95 L8.45 -30.7 Q8.5 -30.7 8.4 -30.7 8.3 -30.7 8.3 -30.75 L8.2 -30.8 Q8.1 -30.75 7.95 -30.6 L7.95 -30.55 7.9 -30.65 Q7.9 -30.7 8.0 -30.8 8.1 -30.95 8.15 -30.95 L8.3 -30.95 M8.3 -30.9 L8.25 -30.9 8.3 -30.85 8.3 -30.9 M7.25 -29.95 L7.4 -30.0 7.55 -30.0 Q7.65 -29.9 7.65 -29.8 L7.7 -29.7 Q7.7 -29.5 7.65 -29.45 L7.4 -29.2 Q7.4 -29.3 7.45 -29.3 L7.35 -29.4 7.15 -29.35 7.0 -29.3 7.05 -29.4 6.6 -29.0 Q6.55 -28.95 6.5 -28.95 6.75 -29.25 7.15 -29.9 L7.2 -29.9 7.25 -29.95 M6.0 -28.6 L5.95 -28.5 Q5.7 -28.45 5.45 -28.3 5.2 -28.15 5.3 -28.0 5.25 -27.95 5.15 -27.95 5.05 -27.95 4.95 -28.05 4.85 -28.15 4.85 -28.2 4.85 -28.3 4.95 -28.4 5.55 -28.45 5.8 -28.55 L6.1 -28.7 6.1 -28.65 6.0 -28.6 M5.95 -28.45 Q5.95 -28.3 5.9 -28.3 L5.7 -28.2 5.7 -28.25 Q5.65 -28.3 5.8 -28.4 L5.95 -28.5 5.95 -28.45 M7.15 -28.85 L7.15 -28.8 7.0 -28.9 6.75 -28.8 6.7 -28.8 6.65 -28.9 6.65 -28.95 6.7 -28.95 6.85 -29.05 6.95 -29.1 7.05 -29.1 7.15 -28.85 M7.9 -29.25 Q8.05 -29.25 8.1 -29.15 L8.1 -29.05 Q8.1 -28.9 8.0 -28.75 L7.85 -28.75 7.9 -28.95 7.85 -28.95 7.8 -29.0 7.65 -28.95 7.6 -28.9 7.55 -28.9 7.55 -28.95 Q7.5 -29.15 7.6 -29.25 L7.9 -29.25 M10.2 -26.75 L10.15 -26.75 Q10.1 -26.75 10.1 -26.8 L10.1 -26.85 10.2 -26.85 10.3 -26.8 10.25 -26.75 10.2 -26.75 M6.9 -27.7 L6.9 -27.5 Q6.9 -27.45 6.8 -27.4 L6.75 -27.55 6.5 -27.55 6.2 -27.7 Q6.1 -27.65 5.95 -27.6 L5.75 -27.45 5.75 -27.5 Q5.7 -27.75 6.55 -28.05 6.85 -28.05 6.9 -27.7 M6.85 -27.55 L6.85 -27.6 6.8 -27.6 6.85 -27.55 M6.75 -26.15 Q6.7 -26.15 6.65 -26.25 L6.4 -26.25 Q6.35 -26.25 6.35 -26.3 L6.6 -26.45 Q6.8 -26.55 6.85 -26.35 L6.75 -26.15 M6.0 -26.0 L5.8 -25.75 5.75 -25.85 5.85 -25.95 Q5.9 -26.0 6.0 -26.0 M4.95 -27.1 L5.15 -26.9 5.35 -27.15 Q5.45 -27.3 5.55 -27.3 L5.65 -27.25 Q5.55 -27.2 5.55 -27.05 L5.45 -26.85 5.3 -26.85 5.15 -26.65 Q5.1 -26.6 5.05 -26.6 L4.9 -26.65 4.75 -26.85 4.55 -26.9 4.5 -26.95 4.55 -27.05 4.85 -27.15 4.95 -27.1 M1.65 -27.9 L1.6 -27.95 Q1.75 -27.9 1.8 -27.9 L1.8 -27.85 1.7 -27.8 1.6 -27.9 1.65 -27.9 M1.8 -27.7 Q1.85 -27.85 1.9 -27.85 L1.95 -27.85 1.95 -27.75 Q1.95 -27.65 1.9 -27.6 L1.7 -27.45 1.8 -27.7 M1.0 -28.15 L0.95 -28.05 0.9 -28.05 0.9 -28.2 1.05 -28.25 1.0 -28.15 M0.9 -27.3 Q0.8 -27.3 0.7 -27.5 0.8 -27.5 0.9 -27.35 L0.95 -27.35 Q1.0 -27.3 0.9 -27.3 M5.65 -20.65 L5.75 -20.75 6.0 -20.75 6.0 -20.65 5.95 -20.6 5.7 -20.6 5.65 -20.65 M-2.35 -32.85 L-2.25 -32.7 -2.2 -32.5 Q-2.2 -32.45 -2.2 -32.4 L-2.25 -32.35 -2.3 -32.35 -2.4 -32.65 -2.45 -32.65 -2.5 -32.7 -2.45 -32.8 -2.35 -32.85 M-3.75 -31.9 L-3.95 -31.7 -4.0 -31.7 -3.95 -31.9 -3.9 -31.9 -3.85 -32.05 -3.7 -32.05 -3.65 -32.0 -3.75 -31.9 M-4.8 -31.85 L-4.5 -31.65 -4.65 -31.65 -4.85 -31.85 -4.8 -31.85 M-2.9 -31.55 Q-2.8 -31.55 -2.8 -31.5 L-2.6 -31.4 Q-2.5 -31.25 -2.5 -31.15 L-2.6 -30.75 -2.65 -30.75 Q-2.7 -31.1 -2.8 -31.25 -2.9 -31.3 -2.95 -31.35 -3.05 -31.45 -3.05 -31.55 L-2.9 -31.5 -2.9 -31.55 M-3.25 -30.2 Q-3.25 -30.25 -3.15 -30.35 L-3.0 -30.55 -2.85 -30.5 -2.75 -30.5 Q-2.7 -30.5 -2.7 -30.55 L-2.65 -30.6 -2.65 -30.55 Q-2.65 -30.45 -2.75 -30.4 L-2.9 -30.4 -3.0 -30.35 -3.1 -30.25 -3.15 -30.15 -3.25 -30.1 -3.25 -30.2 M-5.65 -30.15 L-5.4 -29.95 -5.25 -29.85 Q-5.4 -29.8 -5.55 -29.9 -5.65 -30.0 -5.65 -30.15 M-2.9 -29.25 L-2.9 -29.1 -3.15 -29.35 Q-3.15 -29.4 -3.05 -29.4 L-2.9 -29.25 M-3.5 -29.6 L-3.75 -29.55 -3.55 -29.85 -3.3 -29.8 -3.25 -29.8 -3.5 -29.6 M-2.25 -28.5 L-2.3 -28.5 -2.35 -28.55 -2.3 -28.65 -2.25 -28.65 -2.2 -28.6 -2.1 -28.8 -1.85 -28.85 -1.75 -28.6 -1.75 -28.35 -1.8 -28.3 Q-1.8 -28.4 -1.9 -28.55 L-2.0 -28.6 -2.1 -28.55 -2.25 -28.55 -2.25 -28.5" fill="#ffdc45" fill-rule="evenodd" stroke="none"/>
  </g>
</svg>
