<?xml version="1.0" encoding="UTF-8" standalone="no"?>
<svg xmlns:ffdec="https://www.free-decompiler.com/flash" xmlns:xlink="http://www.w3.org/1999/xlink" ffdec:objectType="shape" height="33.35px" width="8.6px" xmlns="http://www.w3.org/2000/svg">
  <g transform="matrix(1.0, 0.0, 0.0, 1.0, 4.25, 1.65)">
    <path d="M1.9 20.7 Q2.0 20.7 2.05 21.05 2.1 21.35 2.2 22.0 L2.1 22.6 Q2.05 23.1 2.05 23.5 2.05 24.05 2.0 24.05 L1.85 24.05 Q1.6 24.85 1.45 25.25 L1.15 24.8 Q1.0 24.55 0.95 24.35 0.9 24.35 0.9 24.55 L0.85 24.75 Q0.75 24.75 0.7 24.6 L0.65 24.4 0.65 23.4 0.7 23.35 Q0.75 23.35 0.8 23.6 L0.9 23.9 0.9 23.65 1.0 23.35 1.1 22.95 1.15 23.15 Q1.2 23.2 1.25 23.2 1.35 23.2 1.45 22.9 1.6 22.5 1.6 21.65 L1.75 21.1 Q1.85 20.7 1.9 20.7 M0.65 -0.95 L0.7 -0.85 0.7 -0.75 Q0.8 -0.75 0.95 -0.5 L1.0 -0.3 1.1 -0.35 1.3 -0.4 Q1.6 -0.4 1.9 0.85 2.0 1.35 2.0 1.75 2.0 2.15 1.9 2.15 1.9 3.25 2.15 4.05 2.4 4.85 2.45 5.25 2.7 6.95 2.7 8.3 2.65 9.15 2.6 9.4 L2.55 10.15 Q2.5 10.9 2.6 11.45 L2.85 11.55 Q2.9 11.55 2.95 11.7 3.15 11.7 3.2 12.65 3.2 13.5 3.1 14.7 2.9 15.9 2.65 16.75 2.4 17.65 2.05 17.65 2.0 17.65 1.85 17.35 1.7 17.05 1.65 17.0 L1.65 16.55 Q1.75 16.2 1.8 16.05 1.85 15.8 1.85 15.35 1.85 15.05 1.65 14.8 1.45 14.6 1.4 14.6 1.35 14.9 1.25 15.45 1.15 15.9 1.15 16.05 L1.15 16.35 Q1.2 16.5 1.3 17.1 1.4 17.6 1.45 17.6 L1.5 17.45 Q1.55 17.35 1.7 17.7 L1.7 19.05 Q1.7 19.1 1.5 19.75 L1.25 20.6 Q1.2 20.7 1.15 20.95 L1.05 21.2 0.9 21.25 0.8 21.25 Q0.7 21.25 0.5 21.85 L0.3 22.5 Q0.1 22.75 -0.25 22.75 -0.55 22.75 -0.7 22.25 -0.95 21.25 -1.35 20.45 -1.35 20.35 -1.45 19.7 -1.55 19.15 -1.5 18.5 -1.45 18.15 -1.45 17.35 -1.7 17.6 -1.95 17.35 -2.35 16.95 -2.35 15.25 -2.35 13.1 -2.1 11.95 -2.0 11.35 -1.9 11.15 L-1.85 11.0 -1.85 10.9 -1.8 10.9 Q-1.7 10.65 -1.55 10.4 L-1.35 10.1 Q-1.3 9.65 -1.3 8.85 -1.3 7.95 -1.7 6.3 -2.05 4.65 -2.05 3.05 -2.05 1.7 -1.8 0.5 -1.6 -0.5 -1.4 -0.6 L-1.4 -0.5 -1.2 -0.8 Q-0.9 -1.15 -0.8 -1.15 L-0.65 -1.05 Q-0.5 -0.9 -0.45 -0.9 -0.4 -0.9 -0.2 -1.3 L0.0 -1.65 Q0.05 -1.65 0.2 -1.1 0.3 -0.55 0.4 -0.55 0.45 -0.55 0.5 -0.65 L0.65 -0.95 M0.05 14.5 Q-0.1 14.5 -0.2 14.8 -0.3 15.2 -0.35 15.25 -0.45 15.35 -0.6 15.85 -0.7 16.35 -0.7 16.55 L-0.65 16.7 Q-0.65 17.1 -0.45 17.3 L-0.25 17.4 Q-0.1 17.4 0.0 17.1 0.15 16.75 0.25 16.05 L0.25 15.65 0.2 15.6 0.25 15.45 0.05 14.85 0.05 14.5 M0.3 31.5 Q0.15 31.7 0.0 31.7 L-0.15 31.6 Q-0.2 30.9 -0.25 30.55 -0.2 30.4 -0.05 30.15 L0.1 29.8 Q0.1 30.35 0.3 30.35 0.5 30.35 0.5 30.8 0.5 31.3 0.3 31.5 M0.55 29.5 L0.55 29.35 0.8 29.35 0.85 29.4 0.85 29.95 Q0.8 30.05 0.75 30.25 L0.65 30.4 0.6 30.4 Q0.55 30.1 0.55 30.0 L0.55 29.5 M1.8 19.9 L1.8 19.95 1.85 20.4 Q1.75 20.65 1.65 20.85 L1.6 20.8 1.6 19.9 1.8 19.9 M-1.5 20.85 Q-1.45 21.2 -1.4 22.9 L-1.4 23.05 Q-1.4 23.65 -1.45 24.0 -1.55 24.4 -1.6 24.9 L-1.85 25.4 Q-2.1 25.85 -2.2 25.85 L-2.25 25.75 Q-2.45 25.75 -2.65 24.65 -2.85 23.75 -2.4 23.1 -2.35 23.1 -2.35 23.25 L-2.3 23.4 -2.2 23.35 -2.15 23.4 Q-2.15 23.45 -2.1 23.75 -2.05 23.5 -2.0 23.0 L-1.9 22.4 -1.85 22.3 -1.8 22.05 Q-1.65 22.0 -1.65 21.75 -1.6 21.55 -1.55 20.7 -1.5 20.75 -1.5 20.85 M-0.8 31.25 L-0.8 30.7 Q-0.75 30.7 -0.7 30.65 -0.65 30.55 -0.6 30.55 -0.55 30.55 -0.5 30.7 L-0.45 31.0 -0.45 31.55 -0.6 31.55 Q-0.75 31.4 -0.8 31.25 M-0.9 29.65 L-0.9 29.95 -0.95 30.4 Q-1.0 30.7 -1.05 30.7 -1.2 30.7 -1.3 30.45 -1.3 30.4 -1.3 30.2 L-1.3 30.05 Q-1.4 29.8 -1.4 29.45 -1.4 29.3 -1.3 29.15 -1.2 29.0 -1.2 28.85 L-1.1 29.05 Q-1.05 29.1 -1.0 29.3 L-1.0 29.6 Q-0.95 29.6 -0.9 29.65" fill="#ffffff" fill-opacity="0.5019608" fill-rule="evenodd" stroke="none"/>
    <path d="M0.15 -0.75 Q0.2 -0.45 0.3 -0.45 0.35 -0.45 0.4 -0.75 0.45 -1.05 0.5 -1.05 0.65 -1.05 0.9 -0.55 L1.05 -0.3 Q1.05 -0.4 1.05 -0.45 L1.15 -0.55 Q1.3 -0.4 1.5 0.05 1.6 0.3 1.9 1.15 1.9 2.05 2.0 2.2 2.1 2.25 2.15 2.45 2.3 2.85 2.3 3.65 2.35 4.75 2.4 5.0 L2.45 8.7 2.45 9.1 Q2.45 9.45 2.5 9.55 2.6 9.9 2.65 9.9 L2.8 9.75 2.8 9.95 2.85 9.95 2.95 10.15 Q3.0 10.25 3.0 10.5 L3.05 11.7 3.0 11.7 Q3.0 13.2 2.85 14.1 2.8 14.7 2.7 14.85 2.4 15.5 2.25 15.5 2.2 15.5 2.0 15.1 1.8 14.65 1.8 14.3 1.8 14.0 1.85 13.75 1.8 13.7 1.8 13.55 L1.7 13.55 1.55 13.6 1.45 13.7 Q1.35 13.7 1.3 13.8 1.3 13.9 1.2 13.9 L1.15 13.9 Q1.1 14.45 1.1 15.65 1.15 15.85 1.25 16.0 1.45 16.1 1.45 16.25 L1.5 16.6 1.5 17.15 1.4 18.0 Q1.3 18.4 1.2 18.4 L1.05 18.2 Q0.9 18.1 0.85 18.5 0.75 19.1 0.7 19.35 0.6 19.65 0.5 19.7 0.45 20.35 0.25 20.5 L-0.05 20.7 -0.3 21.5 Q-0.45 22.05 -0.65 22.05 -0.9 22.05 -1.2 21.0 -1.2 20.85 -1.25 20.4 -1.3 20.05 -1.4 19.85 -1.4 19.75 -1.5 19.75 L-1.55 19.3 -1.6 19.05 -1.65 18.15 Q-1.65 17.85 -1.75 17.75 -1.75 17.65 -1.85 17.55 L-1.85 16.85 -1.9 16.55 -1.9 15.35 -1.85 15.15 Q-1.8 15.05 -1.8 15.0 -2.1 15.15 -2.35 14.15 -2.4 13.5 -2.45 12.4 -2.45 12.35 -2.45 11.85 L-2.45 11.2 Q-2.45 10.9 -2.4 10.75 L-2.45 10.6 Q-2.35 10.45 -2.3 10.0 -2.2 9.55 -2.2 9.25 L-2.15 9.15 -2.15 9.05 -2.2 8.85 Q-2.15 8.75 -1.85 8.15 -1.65 7.7 -1.65 6.95 -1.65 6.75 -1.7 6.35 -1.75 6.0 -1.75 5.8 L-1.95 5.1 Q-2.0 4.7 -2.05 4.2 L-2.05 3.65 Q-2.05 1.5 -1.75 0.05 -1.5 -1.15 -1.3 -1.15 L-1.2 -1.1 -1.15 -1.0 -1.05 -0.95 -0.9 -0.85 -0.75 -0.9 Q-0.65 -1.0 -0.6 -1.0 L-0.3 -1.1 -0.2 -1.35 Q-0.1 -1.55 -0.05 -1.6 L0.15 -0.75 M-0.1 15.25 Q-0.1 15.1 -0.15 14.65 -0.15 14.25 -0.15 14.05 L-0.3 14.4 Q-0.35 14.6 -0.35 14.8 L-0.4 14.8 Q-0.45 15.1 -0.7 15.1 L-0.75 15.1 Q-0.8 15.3 -0.85 15.55 -0.8 16.35 -0.7 16.55 L-0.6 16.6 -0.6 16.55 Q-0.4 16.1 -0.25 15.5 -0.25 15.35 -0.25 15.25 L-0.1 15.25 M-1.55 19.65 Q-1.5 19.8 -1.4 20.35 -1.3 20.85 -1.3 21.0 -1.3 21.9 -1.4 22.4 -1.55 22.9 -1.55 23.2 L-1.7 23.35 Q-1.75 23.45 -1.8 23.6 L-1.9 24.0 Q-2.0 24.3 -2.05 24.3 -2.1 24.3 -2.3 24.0 -2.45 23.65 -2.5 23.35 L-2.45 22.3 Q-2.4 22.2 -2.25 21.75 -2.1 21.4 -2.05 21.4 -2.0 21.4 -2.0 21.5 L-2.0 21.65 Q-1.95 21.65 -1.85 21.35 -1.8 21.05 -1.75 20.65 -1.75 20.35 -1.65 20.1 L-1.55 19.7 -1.55 19.65 M0.05 26.4 Q0.1 26.15 0.2 26.05 0.25 25.95 0.3 25.95 0.35 25.95 0.4 26.05 L0.45 26.3 0.5 26.6 0.35 26.95 Q0.3 27.2 0.25 27.2 0.2 27.2 0.15 27.1 L0.05 26.8 0.05 26.4 M0.55 20.5 L0.65 20.45 Q0.7 20.45 0.75 20.55 L0.8 20.6 Q0.9 20.5 0.95 20.25 L1.0 20.1 1.1 20.15 1.15 20.25 Q1.2 20.2 1.25 19.9 L1.4 19.55 Q1.45 19.35 1.5 19.35 1.6 19.35 1.75 20.05 1.85 20.65 1.9 21.25 L1.75 22.15 Q1.65 22.85 1.5 22.85 1.35 22.6 1.3 22.6 1.2 22.6 1.05 22.9 0.95 23.25 0.9 23.25 0.85 23.25 0.75 23.05 0.65 22.85 0.6 22.7 0.6 22.45 0.5 22.2 L0.5 21.2 Q0.5 20.75 0.55 20.5 M3.5 13.9 L3.5 13.6 3.55 13.5 Q3.65 13.5 3.7 13.6 3.7 13.9 3.7 13.95 L3.6 14.0 3.55 14.0 3.5 13.9 M3.7 12.7 L3.75 12.75 3.75 13.05 3.65 13.0 Q3.65 12.8 3.7 12.7 M4.1 10.1 L4.1 10.1 M4.1 9.35 L4.2 9.35 4.25 9.4 Q4.25 9.9 4.2 10.0 4.2 10.05 4.2 10.15 L4.25 10.6 Q4.2 10.7 4.15 10.7 L4.15 10.8 Q4.15 11.05 4.1 11.3 3.95 11.75 3.85 11.75 L3.75 11.7 3.7 11.55 3.65 11.3 Q3.6 11.3 3.55 11.0 L3.5 10.7 3.55 10.4 3.65 10.65 3.65 10.75 3.7 10.65 3.75 10.6 Q3.8 10.6 3.85 10.65 L3.85 10.75 Q3.9 10.75 3.95 10.6 4.05 10.35 4.05 10.0 L4.05 9.95 Q4.05 9.75 4.05 9.6 L4.1 9.35 M4.25 8.8 L4.3 8.65 Q4.35 8.7 4.35 8.95 L4.35 9.0 Q4.35 9.1 4.3 9.1 L4.25 9.05 4.2 9.05 Q4.2 8.85 4.25 8.8 M-1.05 28.25 Q-1.15 28.0 -1.2 27.8 L-1.2 27.2 Q-1.15 26.45 -1.05 26.45 L-0.95 26.65 Q-0.85 26.95 -0.65 27.05 L-0.65 27.35 -0.7 27.65 Q-0.8 27.75 -0.8 27.95 -0.8 28.35 -0.75 28.4 -0.6 28.5 -0.45 28.85 L-0.45 28.75 Q-0.45 28.05 -0.4 27.9 L-0.3 27.8 Q-0.15 27.55 -0.05 27.55 L0.0 27.65 0.15 27.9 0.15 28.15 Q0.25 28.15 0.25 28.05 0.25 27.4 0.35 27.25 L0.55 27.2 0.65 27.2 0.7 27.3 0.7 27.7 Q0.6 28.6 0.3 29.25 0.0 29.8 -0.2 29.8 L-0.25 29.65 Q-0.35 29.45 -0.55 29.45 L-0.75 29.55 Q-0.85 29.5 -0.9 29.15 -0.95 28.5 -1.05 28.25 M0.0 22.65 L-0.05 22.6 Q-0.05 22.65 -0.05 22.35 -0.05 22.15 -0.05 22.1 L0.0 22.0 0.1 22.2 0.1 22.65 0.0 22.65 M-2.15 18.35 L-2.15 18.35" fill="#ffffff" fill-opacity="0.5019608" fill-rule="evenodd" stroke="none"/>
    <path d="M0.7 -1.45 L0.95 -1.25 Q0.95 -1.35 1.05 -1.45 L1.15 -1.45 1.15 -1.55 1.2 -1.55 1.3 -1.6 Q1.45 -1.6 1.5 -1.15 1.65 -0.4 1.8 -0.05 2.0 0.45 2.0 0.5 2.1 1.0 2.15 2.55 L2.15 6.1 Q2.15 6.75 2.35 7.6 2.5 8.3 2.5 8.95 2.5 9.4 2.45 10.45 2.4 11.7 2.35 11.95 L2.25 12.55 Q2.2 13.05 2.15 13.2 2.05 13.5 1.9 13.6 L1.8 13.7 1.85 13.8 Q2.0 14.1 2.0 14.45 2.0 14.9 2.0 15.0 L1.95 15.95 Q1.9 16.3 1.85 16.9 L1.75 17.05 Q1.65 17.25 1.6 17.2 L1.55 17.75 Q1.4 18.1 1.35 18.15 1.35 18.2 1.35 18.85 1.35 19.35 1.25 19.65 1.15 19.95 1.15 20.45 1.1 20.6 0.6 21.05 0.5 21.05 0.4 20.6 0.35 20.25 0.3 19.75 L0.25 19.75 0.15 19.8 0.0 19.75 -0.1 19.65 Q-0.15 19.65 -0.25 19.5 -0.3 19.3 -0.35 19.05 L-0.45 18.55 -0.5 18.55 -0.6 18.5 -0.55 18.7 Q-0.45 19.35 -0.4 19.5 -0.35 19.65 -0.3 19.9 L-0.3 20.15 Q-0.3 20.45 -0.3 20.65 L-0.3 21.45 -0.45 21.7 -0.6 21.9 -0.7 22.05 Q-0.8 22.15 -0.85 22.15 -0.9 22.15 -1.05 21.65 -1.2 21.1 -1.3 21.05 -1.4 20.95 -1.7 20.6 -1.75 19.55 -1.75 18.95 -1.8 18.65 -1.85 18.4 L-1.85 18.1 -1.6 17.5 Q-1.55 17.2 -1.4 17.2 L-1.2 17.65 Q-0.95 18.1 -0.85 18.15 L-0.75 18.2 -0.8 18.0 -0.95 17.05 Q-1.05 16.75 -1.2 16.55 -1.35 16.35 -1.45 15.9 L-1.45 14.75 -1.25 14.1 Q-1.15 13.75 -1.15 13.2 L-1.1 13.1 -1.15 13.1 Q-1.2 13.1 -1.3 12.8 -1.4 12.5 -1.45 12.5 -1.5 12.5 -1.7 12.85 -1.85 13.2 -1.95 13.2 -2.0 13.2 -2.2 12.7 -2.4 12.2 -2.45 11.95 L-2.55 11.55 -2.65 11.1 -2.7 10.45 Q-2.75 10.4 -2.7 9.6 -2.65 8.85 -2.75 8.85 -2.7 7.65 -2.6 7.2 -2.55 6.9 -2.4 6.45 -2.35 5.5 -2.35 4.85 -2.35 3.1 -2.2 2.4 -2.15 2.05 -2.05 2.0 L-1.75 1.0 -1.5 0.05 Q-1.4 -0.35 -1.25 -0.5 -1.15 -0.85 -1.0 -0.9 L-0.9 -0.9 Q-0.85 -1.05 -0.75 -1.05 -0.7 -1.05 -0.65 -0.9 -0.55 -1.1 -0.4 -1.3 -0.1 -1.6 0.2 -1.6 L0.7 -1.45 M2.25 18.9 Q2.35 19.1 2.4 19.35 L2.45 19.9 2.4 20.05 Q2.35 20.15 2.3 20.15 L2.3 20.5 Q2.35 20.4 2.35 20.65 2.4 20.95 2.4 21.05 L2.4 21.4 Q2.25 22.2 2.15 22.2 2.1 22.2 1.95 22.05 1.75 21.9 1.7 21.7 1.7 21.35 1.65 21.0 L1.6 20.4 Q1.55 20.25 1.4 20.0 L1.4 19.1 Q1.5 18.3 1.6 17.9 1.7 17.3 1.8 17.15 L1.9 17.55 Q1.85 18.25 2.05 18.6 L2.25 18.9 M0.65 15.1 L0.7 14.9 0.65 14.55 0.55 14.35 Q0.4 14.45 0.4 14.85 0.45 15.25 0.55 15.25 0.6 15.25 0.65 15.1 M1.3 24.3 Q1.3 24.65 1.35 25.25 1.35 25.8 1.25 26.2 L0.95 26.85 0.95 27.7 0.65 27.75 Q0.25 27.75 0.05 27.25 -0.2 26.45 -0.4 23.55 L-0.35 23.4 -0.25 23.35 Q-0.2 23.35 -0.05 23.55 L0.15 23.8 0.2 24.55 Q0.25 24.75 0.3 24.75 L0.45 24.7 0.45 24.4 0.8 24.3 Q0.85 23.85 0.9 23.7 L1.05 23.65 Q1.2 23.65 1.3 24.3 M1.05 22.15 Q1.05 22.35 0.9 22.35 L0.9 22.2 0.95 21.95 Q1.0 21.95 1.0 22.05 L1.05 22.15 M0.25 21.75 L0.25 22.05 0.05 22.5 Q-0.05 22.5 -0.05 22.1 -0.1 21.7 -0.05 21.3 L0.0 21.15 Q0.0 21.1 0.1 21.1 L0.2 21.35 Q0.25 21.6 0.25 21.75 M-3.4 8.2 Q-3.45 8.75 -3.55 9.1 -3.65 9.4 -3.75 9.4 -3.8 9.4 -3.95 8.7 -4.1 8.0 -4.1 7.75 L-4.1 7.4 Q-4.15 7.35 -4.05 7.35 -4.0 7.35 -3.95 7.4 L-3.95 7.45 Q-3.9 7.55 -3.85 7.55 -3.85 7.65 -3.85 7.75 -3.8 7.95 -3.65 8.1 -3.5 8.1 -3.4 8.2 M-3.5 12.25 L-3.5 12.95 Q-3.5 13.0 -3.55 13.0 -3.6 13.0 -3.65 12.85 -3.7 12.7 -3.75 12.55 L-3.75 12.15 -3.7 12.0 Q-3.7 11.95 -3.65 11.95 L-3.5 12.25 M-3.65 11.35 L-3.65 11.65 Q-3.65 11.75 -3.75 11.75 -3.85 11.75 -3.75 11.7 -3.75 11.4 -3.75 11.2 L-3.65 11.2 -3.65 11.35 M-4.25 6.2 L-4.1 5.95 -4.0 6.6 Q-4.0 6.8 -4.05 6.85 L-4.05 6.9 -4.1 6.9 Q-4.2 6.9 -4.2 6.8 -4.25 6.7 -4.25 6.5 L-4.25 6.2" fill="#ffffff" fill-opacity="0.5019608" fill-rule="evenodd" stroke="none"/>
  </g>
</svg>
