<?xml version="1.0" encoding="UTF-8" standalone="no"?>
<svg xmlns:ffdec="https://www.free-decompiler.com/flash" xmlns:xlink="http://www.w3.org/1999/xlink" ffdec:objectType="shape" height="33.4px" width="7.5px" xmlns="http://www.w3.org/2000/svg">
  <g transform="matrix(1.0, 0.0, 0.0, 1.0, 4.3, 1.7)">
    <path d="M-0.15 15.85 Q-0.3 15.65 -0.4 15.75 -0.7 15.95 -0.7 17.45 -0.7 17.65 -0.65 18.05 -0.55 18.5 -0.55 18.75 L-0.35 18.75 -0.05 18.45 Q0.15 18.2 0.15 17.8 L0.25 17.6 Q0.25 17.55 0.35 17.55 L0.45 17.6 Q0.5 17.6 0.55 17.45 0.65 17.1 0.7 16.55 0.55 16.15 0.45 15.95 0.3 15.45 0.25 15.45 0.15 15.45 0.05 15.65 -0.05 15.85 -0.15 15.85 M0.05 -1.7 L0.05 -1.65 Q0.15 -0.85 0.25 -0.65 0.25 -0.6 0.45 -0.6 L0.6 -0.75 0.75 -0.85 Q0.85 -0.85 1.05 -0.35 L1.2 -0.35 Q1.45 -0.35 1.7 0.35 2.05 1.35 2.1 3.5 2.1 4.85 2.2 5.45 2.25 5.75 2.45 6.15 2.75 6.9 2.85 9.45 L2.85 10.25 2.8 11.55 Q2.75 12.0 2.6 12.3 2.45 12.55 2.35 12.55 L2.25 12.5 2.25 12.8 Q2.3 12.9 2.45 13.1 L2.55 13.25 Q2.65 13.25 2.7 13.15 L2.75 12.95 Q2.8 13.15 3.0 14.05 3.05 14.4 3.1 14.9 L3.15 14.8 Q3.15 14.85 3.15 15.2 L3.15 15.8 3.0 16.8 Q2.8 17.7 2.75 17.85 2.4 18.7 2.25 18.7 L2.05 18.35 1.9 17.95 Q1.95 17.45 1.8 17.05 L1.65 16.8 Q1.55 16.8 1.4 17.4 1.3 18.15 1.2 18.4 L1.2 18.75 1.3 19.2 Q1.4 19.4 1.45 19.4 L1.55 18.9 Q1.6 18.6 1.7 18.6 1.75 18.6 1.85 19.0 1.95 19.3 2.0 19.5 L2.0 19.35 2.05 19.35 Q2.05 19.85 1.9 20.55 L2.0 20.5 Q2.05 20.5 2.1 20.6 L2.15 20.8 2.2 21.5 2.15 21.7 Q2.15 21.75 2.05 21.75 2.0 21.75 1.95 21.55 L1.85 21.2 1.85 20.8 1.7 21.65 Q1.4 23.0 1.25 23.0 L1.1 23.0 1.05 23.05 Q1.0 23.15 0.9 23.3 0.85 23.45 0.8 23.45 L0.75 23.4 Q0.75 23.75 0.7 23.85 0.6 24.05 0.55 24.15 L0.4 24.25 0.15 24.55 Q-0.05 24.8 -0.15 24.8 -0.25 24.8 -0.55 24.4 -0.9 24.05 -0.95 23.8 -1.0 22.65 -1.25 22.15 -1.35 21.8 -1.55 21.55 L-1.6 20.5 -1.65 20.6 -1.8 20.65 Q-1.9 20.65 -1.95 20.45 -2.0 20.35 -2.15 19.85 -2.2 19.65 -2.2 19.4 L-2.25 18.4 Q-2.3 17.25 -2.35 14.85 -2.35 14.1 -2.2 13.4 -2.05 12.8 -1.85 12.8 -1.8 12.8 -1.7 13.1 -1.6 13.4 -1.5 13.4 L-1.3 12.95 Q-1.2 12.15 -1.2 11.5 -1.2 11.2 -1.25 10.65 -1.25 10.6 -1.25 10.1 L-1.3 9.65 Q-1.3 8.95 -1.4 8.55 L-1.4 8.4 -1.45 8.45 Q-1.55 8.45 -1.6 8.2 -1.65 7.85 -1.75 6.3 L-1.85 5.95 Q-1.85 5.75 -1.9 5.85 -1.9 5.95 -1.95 5.85 L-2.0 5.65 Q-2.0 5.6 -2.05 4.6 L-2.05 3.45 Q-2.05 1.3 -1.95 0.65 -1.85 0.3 -1.65 0.05 -1.2 -0.8 -1.15 -0.8 L-1.1 -0.75 -1.05 -0.95 -0.8 -1.35 -0.75 -1.25 Q-0.7 -0.85 -0.65 -0.75 L-0.55 -0.7 Q-0.45 -0.7 -0.3 -1.2 -0.15 -1.7 -0.05 -1.7 L0.05 -1.7 M-2.4 24.3 Q-2.35 24.35 -2.3 24.45 L-2.3 24.5 -2.2 24.6 Q-2.2 24.65 -2.05 24.5 L-1.95 24.25 -1.95 24.3 -1.7 23.95 -1.7 24.0 -1.65 23.9 -1.7 23.85 -1.65 23.85 Q-1.6 23.85 -1.55 24.4 -1.45 25.0 -1.45 25.05 -1.5 25.3 -1.65 25.55 L-1.9 25.95 -2.0 26.8 -2.2 27.0 Q-2.25 27.15 -2.3 27.1 -2.35 27.05 -2.5 26.75 L-2.55 26.55 -2.55 26.65 -2.7 26.55 Q-2.75 26.5 -2.8 26.4 -2.85 26.25 -2.85 25.9 -2.85 25.55 -2.8 25.4 L-2.75 24.9 -2.55 24.5 Q-2.45 24.25 -2.4 24.3 M-1.3 22.6 L-1.25 22.65 -1.25 22.75 Q-1.3 23.05 -1.3 23.1 -1.35 23.05 -1.4 22.95 L-1.4 22.85 -1.35 22.75 -1.3 22.6 M-1.4 23.25 L-1.3 23.25 -1.2 23.7 -1.3 24.25 -1.3 24.2 -1.35 24.35 -1.35 24.55 -1.45 24.4 Q-1.5 24.35 -1.55 24.05 -1.55 23.6 -1.4 23.25 M1.25 24.6 Q1.3 24.6 1.4 24.75 1.45 24.85 1.5 24.85 L1.6 24.75 Q1.65 24.7 1.75 25.05 L1.8 25.6 Q1.75 25.85 1.6 26.2 1.45 26.45 1.4 26.45 1.05 25.6 1.05 25.35 1.05 25.3 1.15 24.95 1.2 24.6 1.25 24.6 M0.95 24.5 L1.0 24.65 1.0 25.1 Q0.95 25.5 0.9 25.55 L0.8 25.6 0.7 25.55 0.65 25.1 Q0.65 24.9 0.65 24.65 L0.7 24.5 Q0.75 24.45 0.85 24.45 L0.95 24.5 M1.8 24.6 Q1.75 24.3 1.75 24.0 L1.95 23.45 Q2.1 23.15 2.1 22.35 2.0 21.95 2.05 21.75 2.15 22.05 2.3 22.55 L2.3 23.2 Q2.3 23.35 2.35 23.8 2.4 24.2 2.3 24.55 2.2 25.0 2.15 25.35 2.15 25.5 2.0 25.5 L1.9 25.45 1.85 25.3 1.8 24.6" fill="#ffffff" fill-opacity="0.5019608" fill-rule="evenodd" stroke="none"/>
    <path d="M1.9 20.7 Q2.0 20.7 2.05 21.05 2.1 21.35 2.2 22.0 L2.1 22.6 Q2.05 23.1 2.05 23.5 2.05 24.05 2.0 24.05 L1.85 24.05 Q1.6 24.85 1.45 25.25 L1.15 24.8 Q1.0 24.55 0.95 24.35 0.9 24.35 0.9 24.55 L0.85 24.75 Q0.75 24.75 0.7 24.6 L0.65 24.4 0.65 23.4 0.7 23.35 Q0.75 23.35 0.8 23.6 L0.9 23.9 0.9 23.65 1.0 23.35 1.1 22.95 1.15 23.15 Q1.2 23.2 1.25 23.2 1.35 23.2 1.45 22.9 1.6 22.5 1.6 21.65 L1.75 21.1 Q1.85 20.7 1.9 20.7 M0.65 -0.95 L0.7 -0.85 0.7 -0.75 Q0.8 -0.75 0.95 -0.5 L1.0 -0.3 1.1 -0.35 1.3 -0.4 Q1.6 -0.4 1.9 0.85 2.0 1.35 2.0 1.75 2.0 2.15 1.9 2.15 1.9 3.25 2.15 4.05 2.4 4.85 2.45 5.25 2.7 6.95 2.7 8.3 2.65 9.15 2.6 9.4 L2.55 10.15 Q2.5 10.9 2.6 11.45 L2.85 11.55 Q2.9 11.55 2.95 11.7 3.15 11.7 3.2 12.65 3.2 13.5 3.1 14.7 2.9 15.9 2.65 16.75 2.4 17.65 2.05 17.65 2.0 17.65 1.85 17.35 1.7 17.05 1.65 17.0 L1.65 16.55 Q1.75 16.2 1.8 16.05 1.85 15.8 1.85 15.35 1.85 15.05 1.65 14.8 1.45 14.6 1.4 14.6 1.35 14.9 1.25 15.45 1.15 15.9 1.15 16.05 L1.15 16.35 Q1.2 16.5 1.3 17.1 1.4 17.6 1.45 17.6 L1.5 17.45 Q1.55 17.35 1.7 17.7 L1.7 19.05 Q1.7 19.1 1.5 19.75 L1.25 20.6 Q1.2 20.7 1.15 20.95 L1.05 21.2 0.9 21.25 0.8 21.25 Q0.7 21.25 0.5 21.85 L0.3 22.5 Q0.1 22.75 -0.25 22.75 -0.55 22.75 -0.7 22.25 -0.95 21.25 -1.35 20.45 -1.35 20.35 -1.45 19.7 -1.55 19.15 -1.5 18.5 -1.45 18.15 -1.45 17.35 -1.7 17.6 -1.95 17.35 -2.35 16.95 -2.35 15.25 -2.35 13.1 -2.1 11.95 -2.0 11.35 -1.9 11.15 L-1.85 11.0 -1.85 10.9 -1.8 10.9 Q-1.7 10.65 -1.55 10.4 L-1.35 10.1 Q-1.3 9.65 -1.3 8.85 -1.3 7.95 -1.7 6.3 -2.05 4.65 -2.05 3.05 -2.05 1.7 -1.8 0.5 -1.6 -0.5 -1.4 -0.6 L-1.4 -0.5 -1.2 -0.8 Q-0.9 -1.15 -0.8 -1.15 L-0.65 -1.05 Q-0.5 -0.9 -0.45 -0.9 -0.4 -0.9 -0.2 -1.3 L0.0 -1.65 Q0.05 -1.65 0.2 -1.1 0.3 -0.55 0.4 -0.55 0.45 -0.55 0.5 -0.65 L0.65 -0.95 M0.05 14.5 Q-0.1 14.5 -0.2 14.8 -0.3 15.2 -0.35 15.25 -0.45 15.35 -0.6 15.85 -0.7 16.35 -0.7 16.55 L-0.65 16.7 Q-0.65 17.1 -0.45 17.3 L-0.25 17.4 Q-0.1 17.4 0.0 17.1 0.15 16.75 0.25 16.05 L0.25 15.65 0.2 15.6 0.25 15.45 0.05 14.85 0.05 14.5 M0.3 31.5 Q0.15 31.7 0.0 31.7 L-0.15 31.6 Q-0.2 30.9 -0.25 30.55 -0.2 30.4 -0.05 30.15 L0.1 29.8 Q0.1 30.35 0.3 30.35 0.5 30.35 0.5 30.8 0.5 31.3 0.3 31.5 M0.55 29.5 L0.55 29.35 0.8 29.35 0.85 29.4 0.85 29.95 Q0.8 30.05 0.75 30.25 L0.65 30.4 0.6 30.4 Q0.55 30.1 0.55 30.0 L0.55 29.5 M1.8 19.9 L1.8 19.95 1.85 20.4 Q1.75 20.65 1.65 20.85 L1.6 20.8 1.6 19.9 1.8 19.9 M-1.5 20.85 Q-1.45 21.2 -1.4 22.9 L-1.4 23.05 Q-1.4 23.65 -1.45 24.0 -1.55 24.4 -1.6 24.9 L-1.85 25.4 Q-2.1 25.85 -2.2 25.85 L-2.25 25.75 Q-2.45 25.75 -2.65 24.65 -2.85 23.75 -2.4 23.1 -2.35 23.1 -2.35 23.25 L-2.3 23.4 -2.2 23.35 -2.15 23.4 Q-2.15 23.45 -2.1 23.75 -2.05 23.5 -2.0 23.0 L-1.9 22.4 -1.85 22.3 -1.8 22.05 Q-1.65 22.0 -1.65 21.75 -1.6 21.55 -1.55 20.7 -1.5 20.75 -1.5 20.85 M-0.8 31.25 L-0.8 30.7 Q-0.75 30.7 -0.7 30.65 -0.65 30.55 -0.6 30.55 -0.55 30.55 -0.5 30.7 L-0.45 31.0 -0.45 31.55 -0.6 31.55 Q-0.75 31.4 -0.8 31.25 M-0.9 29.65 L-0.9 29.95 -0.95 30.4 Q-1.0 30.7 -1.05 30.7 -1.2 30.7 -1.3 30.45 -1.3 30.4 -1.3 30.2 L-1.3 30.05 Q-1.4 29.8 -1.4 29.45 -1.4 29.3 -1.3 29.15 -1.2 29.0 -1.2 28.85 L-1.1 29.05 Q-1.05 29.1 -1.0 29.3 L-1.0 29.6 Q-0.95 29.6 -0.9 29.65" fill="#ffffff" fill-opacity="0.5019608" fill-rule="evenodd" stroke="none"/>
    <path d="M0.65 -1.0 Q0.7 -1.0 0.8 -0.9 0.9 -0.8 0.95 -0.85 L1.05 -0.95 1.2 -1.0 1.2 -1.1 1.3 -1.15 Q1.55 -1.15 1.8 0.05 2.1 1.5 2.1 3.65 L2.05 4.2 Q2.0 4.7 2.0 5.1 L1.8 5.8 Q1.8 6.0 1.75 6.35 1.65 6.75 1.65 6.95 1.65 7.7 1.9 8.15 2.2 8.75 2.2 8.85 L2.2 9.05 2.15 9.0 2.2 9.15 2.25 9.25 Q2.25 9.55 2.35 10.0 2.4 10.45 2.45 10.6 L2.45 10.75 Q2.5 10.9 2.5 11.2 L2.5 11.85 Q2.5 12.35 2.45 12.4 2.45 13.5 2.35 14.15 2.15 15.15 1.85 15.0 1.85 15.05 1.85 15.15 L1.9 15.35 1.9 17.55 1.75 17.75 Q1.7 17.85 1.7 18.15 L1.65 19.05 1.6 19.3 1.55 19.75 Q1.45 19.75 1.4 19.85 1.35 20.05 1.3 20.4 1.25 20.85 1.2 21.0 0.95 22.05 0.7 22.05 0.5 22.05 0.35 21.5 L0.1 20.7 -0.2 20.5 Q-0.4 20.35 -0.5 19.7 -0.55 19.65 -0.65 19.35 -0.75 19.1 -0.8 18.5 -0.9 18.1 -1.0 18.2 L-1.2 18.4 Q-1.25 18.4 -1.35 18.0 -1.4 17.75 -1.5 17.15 L-1.45 16.6 -1.45 16.25 Q-1.4 16.1 -1.25 16.0 -1.1 15.85 -1.05 15.65 -1.1 14.45 -1.1 13.9 L-1.2 13.9 Q-1.25 13.9 -1.3 13.8 -1.3 13.7 -1.45 13.7 L-1.55 13.6 -1.65 13.55 -1.75 13.55 Q-1.75 13.7 -1.8 13.75 -1.75 14.0 -1.75 14.3 -1.75 14.65 -2.0 15.1 -2.2 15.5 -2.25 15.5 -2.35 15.5 -2.65 14.85 -2.75 14.7 -2.85 14.1 -2.95 13.2 -3.0 11.7 L-3.0 10.5 Q-2.95 10.25 -2.9 10.15 L-2.85 10.05 Q-2.85 9.95 -2.8 9.95 L-2.75 9.95 -2.8 9.75 Q-2.75 9.75 -2.7 9.8 -2.65 9.9 -2.6 9.9 L-2.45 9.55 Q-2.45 9.45 -2.4 9.1 L-2.4 8.7 -2.35 5.0 Q-2.35 4.75 -2.3 3.65 -2.25 2.85 -2.15 2.45 -2.1 2.25 -1.95 2.2 -1.85 2.05 -1.85 1.15 -1.55 0.3 -1.45 0.05 -1.25 -0.4 -1.1 -0.55 L-1.05 -0.45 Q-1.0 -0.4 -1.0 -0.3 L-0.9 -0.55 Q-0.6 -1.05 -0.45 -1.05 -0.4 -1.05 -0.35 -0.75 -0.3 -0.45 -0.25 -0.45 -0.2 -0.45 -0.1 -0.75 L0.1 -1.6 Q0.1 -1.55 0.2 -1.35 0.3 -1.15 0.35 -1.1 L0.65 -1.0 M2.15 18.35 L2.15 18.35 M1.45 20.35 Q1.5 19.8 1.55 19.65 L1.6 19.7 1.7 20.1 Q1.75 20.35 1.8 20.65 1.85 21.05 1.9 21.35 1.95 21.65 2.0 21.65 2.05 21.65 2.05 21.5 2.05 21.4 2.1 21.4 2.15 21.4 2.3 21.75 2.45 22.2 2.5 22.3 L2.5 23.35 Q2.5 23.65 2.3 24.0 2.15 24.3 2.1 24.3 2.05 24.3 1.95 24.0 L1.85 23.6 Q1.8 23.45 1.7 23.35 L1.55 23.2 Q1.55 22.9 1.45 22.4 1.35 21.9 1.35 21.0 1.35 20.85 1.45 20.35 M0.8 15.1 L0.75 15.1 Q0.5 15.1 0.4 14.8 0.4 14.6 0.35 14.4 L0.2 14.05 Q0.2 14.25 0.15 14.65 0.15 15.1 0.15 15.25 L0.3 15.25 Q0.25 15.35 0.25 15.5 0.4 16.1 0.6 16.55 L0.6 16.6 Q0.7 16.6 0.75 16.55 0.85 16.35 0.9 15.55 0.85 15.3 0.8 15.1 M0.1 22.35 Q0.1 22.65 0.05 22.6 L0.05 22.65 -0.05 22.65 -0.05 22.1 0.05 22.0 0.05 22.1 Q0.1 22.15 0.1 22.35 M0.7 27.05 Q0.9 26.95 1.0 26.65 1.05 26.45 1.1 26.45 1.2 26.45 1.25 27.2 L1.25 27.8 Q1.2 28.0 1.05 28.25 0.95 28.5 0.95 29.15 0.85 29.5 0.75 29.55 L0.6 29.45 Q0.35 29.45 0.3 29.65 L0.25 29.8 Q0.05 29.8 -0.25 29.25 -0.55 28.6 -0.65 27.7 L-0.65 27.3 -0.6 27.2 -0.5 27.2 -0.3 27.25 Q-0.2 27.4 -0.2 28.05 -0.2 28.15 -0.1 28.15 L-0.1 27.9 0.05 27.65 0.1 27.55 Q0.2 27.55 0.35 27.8 L0.45 27.9 Q0.5 28.05 0.45 28.75 L0.5 28.75 0.5 28.85 Q0.65 28.5 0.75 28.4 0.8 28.35 0.8 27.95 0.8 27.75 0.75 27.65 0.7 27.45 0.65 27.35 L0.7 27.05 M-3.6 11.3 L-3.65 11.55 -3.7 11.7 -3.8 11.75 Q-3.95 11.75 -4.05 11.3 -4.1 11.05 -4.1 10.8 L-4.2 10.6 -4.2 10.15 -4.15 10.0 -4.2 10.0 Q-4.25 9.9 -4.2 9.4 L-4.2 9.35 -4.05 9.35 -4.0 9.6 Q-4.0 9.75 -4.0 9.95 L-4.0 10.0 -4.05 10.0 Q-4.0 10.35 -3.9 10.6 -3.85 10.75 -3.8 10.75 L-3.8 10.65 -3.75 10.6 -3.65 10.65 -3.6 10.75 -3.6 10.65 -3.5 10.4 -3.5 11.0 Q-3.55 11.3 -3.6 11.3 M-3.5 13.9 L-3.5 14.0 -3.55 14.0 -3.65 13.95 Q-3.65 13.9 -3.65 13.6 -3.6 13.5 -3.55 13.5 L-3.5 13.6 -3.5 13.9 M-4.2 8.8 Q-4.2 8.85 -4.2 9.05 L-4.25 9.1 Q-4.3 9.1 -4.3 9.0 L-4.3 8.95 Q-4.3 8.7 -4.25 8.65 L-4.2 8.8 M-4.05 10.1 L-4.05 10.1 M-3.7 12.7 Q-3.65 12.8 -3.6 13.0 -3.65 13.05 -3.7 13.05 L-3.7 12.7 M-1.1 20.25 L-1.05 20.15 -1.0 20.1 Q-0.95 20.1 -0.9 20.25 -0.9 20.5 -0.75 20.6 L-0.7 20.55 Q-0.65 20.45 -0.6 20.45 L-0.5 20.5 Q-0.5 20.75 -0.5 21.2 L-0.5 22.2 Q-0.55 22.45 -0.55 22.7 -0.6 22.85 -0.7 23.05 -0.8 23.25 -0.85 23.25 -0.9 23.25 -1.05 22.9 -1.2 22.6 -1.3 22.6 L-1.5 22.85 Q-1.6 22.85 -1.75 22.15 L-1.9 21.25 Q-1.85 20.65 -1.7 20.05 -1.6 19.35 -1.5 19.35 -1.45 19.35 -1.35 19.55 L-1.2 19.9 Q-1.15 20.2 -1.1 20.25 M-0.15 26.05 Q-0.05 26.15 0.0 26.4 L0.0 26.8 -0.1 27.1 Q-0.15 27.2 -0.2 27.2 -0.25 27.2 -0.35 26.95 L-0.45 26.6 -0.45 26.3 -0.35 26.05 Q-0.3 25.95 -0.25 25.95 -0.2 25.95 -0.15 26.05" fill="#ffffff" fill-opacity="0.5019608" fill-rule="evenodd" stroke="none"/>
  </g>
</svg>
