<?xml version="1.0" encoding="UTF-8" standalone="no"?>
<svg xmlns:ffdec="https://www.free-decompiler.com/flash" xmlns:xlink="http://www.w3.org/1999/xlink" ffdec:objectType="shape" height="41.55px" width="89.65px" xmlns="http://www.w3.org/2000/svg">
  <g transform="matrix(1.0, 0.0, 0.0, 1.0, 55.45, 30.75)">
    <path d="M18.2 -21.55 L19.8 -21.55 19.95 -21.5 20.1 -21.4 20.35 -21.3 20.5 -21.25 20.8 -21.25 20.95 -21.2 21.0 -21.2 21.1 -21.4 21.1 -21.45 21.15 -21.55 21.15 -21.6 21.2 -21.7 21.25 -21.75 21.3 -21.85 21.55 -22.1 21.95 -22.3 22.0 -22.35 22.1 -22.35 22.2 -22.45 22.2 -22.7 22.25 -22.75 22.25 -22.85 22.65 -23.25 22.75 -23.3 23.05 -23.4 23.2 -23.5 23.35 -23.65 23.5 -23.7 23.6 -23.8 23.7 -23.85 23.85 -23.95 23.95 -24.05 24.1 -24.1 24.25 -24.2 24.35 -24.25 25.05 -24.25 25.05 -24.3 25.1 -24.3 25.15 -24.35 25.2 -24.35 25.2 -25.15 25.25 -25.25 25.25 -25.65 25.3 -25.75 25.35 -25.8 25.35 -25.9 25.4 -25.95 25.4 -26.1 25.45 -26.2 25.45 -26.3 25.5 -26.35 25.5 -26.45 25.55 -26.5 25.6 -26.6 25.7 -26.65 25.75 -26.7 25.9 -26.7 26.05 -26.65 26.2 -26.55 27.35 -26.6 27.6 -26.65 27.8 -26.7 27.9 -26.8 28.1 -26.9 28.15 -26.95 28.35 -27.0 28.5 -27.1 28.6 -27.15 28.85 -27.15 28.85 -27.2 29.15 -27.2 29.4 -27.15 29.65 -26.9 29.7 -26.8 30.35 -26.75 30.55 -26.7 30.65 -26.65 30.85 -26.6 31.05 -26.5 31.2 -26.45 31.25 -26.35 31.4 -26.2 31.4 -26.1 31.45 -26.05 31.45 -25.6 31.65 -25.6 31.85 -25.65 32.05 -25.6 32.1 -25.55 32.35 -25.8 32.45 -25.85 32.5 -25.95 32.6 -26.0 32.65 -26.1 33.05 -26.5 33.2 -26.55 33.35 -26.65 33.5 -26.7 33.65 -26.7 33.8 -26.65 33.95 -26.5 34.05 -26.45 34.1 -26.4 34.1 -26.3 34.15 -26.25 34.15 -26.05 34.1 -26.0 34.1 -25.9 34.05 -25.85 33.9 -25.75 33.75 -25.7 33.5 -25.65 33.35 -25.5 33.35 -25.4 33.3 -25.35 33.2 -25.15 33.15 -25.1 33.1 -25.0 33.0 -24.95 32.8 -24.75 32.6 -24.65 32.45 -24.6 31.95 -24.55 31.75 -24.5 31.6 -24.5 31.4 -24.45 31.2 -24.45 31.0 -24.4 30.15 -24.4 29.9 -24.45 29.75 -24.55 29.65 -24.6 29.5 -24.75 29.4 -24.95 29.4 -25.0 29.35 -25.1 29.25 -25.05 29.1 -25.05 28.95 -25.0 28.45 -24.95 28.3 -24.9 28.0 -24.7 27.9 -24.65 27.85 -24.65 27.75 -24.6 27.6 -24.6 26.75 -24.55 26.75 -23.4 26.7 -23.35 26.7 -23.25 26.65 -23.2 26.55 -23.0 26.5 -22.95 26.45 -22.85 26.15 -22.7 26.0 -22.7 25.55 -22.6 25.5 -22.55 25.5 -22.45 25.25 -22.2 25.1 -22.15 25.0 -22.1 24.85 -22.05 24.5 -22.0 24.5 -21.9 24.35 -21.75 24.35 -21.7 24.4 -21.65 24.45 -21.55 24.5 -21.5 24.5 -21.4 24.55 -21.35 24.6 -21.4 24.85 -21.45 25.0 -21.5 25.15 -21.6 25.25 -21.65 25.3 -21.65 25.4 -21.7 25.8 -21.7 26.0 -21.65 26.1 -21.6 26.25 -21.45 26.25 -21.35 26.3 -21.25 26.4 -21.25 26.55 -21.1 26.6 -21.0 26.6 -19.75 26.5 -19.55 26.5 -19.1 26.45 -19.0 26.5 -18.95 27.25 -18.95 27.5 -18.9 27.6 -18.8 27.65 -18.7 27.7 -18.65 27.7 -18.55 27.75 -18.5 27.75 -18.2 28.45 -18.25 29.0 -18.3 29.1 -18.35 29.3 -18.4 29.45 -18.45 29.7 -18.45 29.7 -18.5 29.85 -18.5 29.85 -18.8 30.0 -18.95 30.15 -19.0 30.35 -19.05 30.95 -19.1 31.1 -19.2 31.15 -19.25 31.3 -19.25 31.3 -19.3 31.45 -19.25 31.6 -19.15 31.65 -19.2 31.7 -19.3 31.75 -19.35 31.75 -19.6 31.85 -19.7 31.85 -19.75 31.9 -19.85 31.95 -19.9 32.0 -20.0 32.15 -20.15 32.2 -20.25 32.25 -20.3 32.3 -20.4 32.3 -20.65 32.35 -20.7 32.4 -20.8 32.65 -21.05 32.8 -21.1 32.85 -21.2 32.9 -21.25 32.9 -21.4 32.95 -21.45 32.95 -21.5 33.0 -21.6 33.15 -21.75 33.3 -21.85 33.5 -21.85 33.5 -21.9 33.75 -21.85 34.0 -21.6 34.05 -21.5 34.05 -21.45 34.1 -21.35 34.1 -20.85 34.15 -20.8 34.15 -20.7 34.2 -20.65 34.2 -20.3 34.15 -20.25 34.15 -20.15 34.1 -20.1 34.05 -20.0 33.9 -19.85 33.85 -19.75 33.8 -19.7 33.75 -19.6 33.75 -19.5 33.7 -19.45 33.7 -19.35 33.65 -19.3 33.65 -19.2 33.6 -19.1 33.6 -19.05 33.45 -18.9 33.35 -18.7 33.3 -18.65 33.25 -18.55 33.2 -18.5 33.15 -18.4 33.05 -18.35 33.0 -18.25 32.9 -18.15 32.8 -18.1 32.65 -18.0 32.5 -17.85 32.4 -17.8 32.25 -17.75 32.2 -17.75 32.15 -17.7 31.95 -17.65 31.9 -17.65 31.85 -17.6 31.6 -17.65 31.5 -17.55 31.5 -17.25 31.45 -17.15 31.45 -17.1 31.4 -17.0 31.3 -16.9 31.2 -16.85 31.05 -16.75 31.0 -16.7 30.9 -16.7 30.75 -16.65 30.55 -16.6 30.3 -16.5 30.2 -16.45 30.0 -16.45 29.7 -16.4 29.45 -16.3 29.3 -16.25 29.1 -16.15 26.95 -16.15 26.75 -16.2 26.5 -16.25 26.3 -16.3 26.2 -16.4 26.1 -16.45 26.0 -16.65 26.0 -16.8 25.95 -16.85 25.9 -16.95 25.9 -17.5 25.65 -17.55 25.5 -17.55 25.35 -17.6 25.25 -17.7 25.15 -17.75 25.1 -17.85 25.1 -19.1 25.05 -19.0 25.0 -18.95 24.95 -18.85 24.85 -18.8 24.55 -18.6 24.45 -18.6 24.4 -18.55 24.3 -18.5 24.0 -18.4 23.85 -18.4 23.7 -18.45 23.6 -18.5 23.5 -18.45 23.05 -18.45 22.9 -18.5 22.8 -18.6 21.9 -18.6 21.8 -18.55 20.9 -18.55 20.65 -18.6 20.5 -18.7 20.3 -18.8 20.15 -18.85 20.0 -18.95 19.85 -19.0 19.8 -19.1 19.65 -19.2 19.5 -19.25 19.4 -19.25 19.3 -19.2 19.25 -19.1 19.25 -19.0 19.2 -18.95 19.2 -18.7 19.1 -18.6 19.1 -18.3 19.05 -18.2 19.05 -18.15 19.0 -18.05 19.0 -18.0 18.95 -17.9 18.95 -17.8 18.9 -17.75 18.9 -17.65 18.85 -17.6 18.85 -17.5 18.8 -17.4 18.75 -17.35 18.75 -17.25 18.65 -17.2 18.6 -17.1 18.45 -16.95 18.25 -16.85 18.25 -16.4 18.2 -16.3 18.15 -16.25 18.15 -15.85 18.05 -15.65 18.0 -15.6 18.0 -15.5 17.95 -15.45 17.9 -15.35 17.85 -15.3 17.75 -15.1 17.75 -15.05 17.7 -14.95 17.65 -14.9 17.55 -14.7 17.45 -14.65 17.35 -14.55 17.25 -14.55 17.1 -14.5 17.1 -13.85 17.05 -13.75 17.0 -13.7 17.0 -13.6 16.9 -13.55 16.9 -13.45 16.85 -13.35 16.75 -13.3 16.7 -13.2 16.6 -13.15 16.6 -12.8 16.55 -12.75 16.55 -12.65 16.5 -12.55 16.45 -12.5 16.45 -12.25 16.35 -12.05 16.3 -12.0 16.25 -11.9 16.2 -11.85 16.2 -11.6 16.15 -11.5 16.0 -11.35 15.95 -11.25 15.8 -11.1 15.7 -11.05 15.4 -10.95 14.55 -10.95 14.3 -11.0 14.1 -11.05 13.95 -11.1 13.75 -11.2 13.7 -11.25 13.65 -11.25 13.6 -11.2 13.55 -11.1 13.4 -11.05 13.2 -10.85 12.9 -10.7 12.3 -10.5 12.1 -10.55 11.85 -10.6 11.7 -10.65 11.6 -10.75 11.45 -10.8 11.35 -10.85 11.05 -10.9 10.8 -10.95 10.7 -11.0 10.35 -11.0 10.25 -10.8 10.25 -10.5 10.2 -10.4 10.2 -10.35 10.15 -10.25 10.15 -10.0 10.1 -9.95 10.1 -9.85 10.05 -9.8 10.0 -9.7 10.0 -9.6 9.95 -9.55 9.95 -9.45 9.9 -9.4 9.9 -8.65 9.95 -8.6 9.95 -8.5 10.0 -8.45 10.0 -7.15 9.95 -7.1 9.95 -7.0 9.9 -6.9 9.75 -6.75 9.75 -6.7 9.65 -6.5 9.6 -6.45 9.55 -6.35 9.5 -6.3 9.5 -6.2 9.25 -5.95 9.05 -5.9 8.85 -5.8 8.65 -5.75 8.5 -5.65 8.45 -5.6 8.35 -5.6 8.2 -5.55 8.25 -5.45 8.3 -5.4 8.3 -4.9 8.35 -4.8 8.35 -4.75 8.4 -4.65 8.4 -4.6 8.45 -4.5 8.45 -3.45 8.5 -3.4 8.5 -3.3 8.55 -3.25 8.55 -2.75 8.6 -2.7 8.6 -1.65 8.55 -1.55 8.55 -1.5 8.45 -1.3 8.45 -1.25 8.4 -1.15 8.35 -1.1 8.35 -1.0 8.25 -0.95 8.25 -0.75 8.2 -0.7 8.15 -0.6 8.15 -0.15 8.05 0.05 8.0 0.1 7.95 0.2 7.85 0.25 7.8 0.35 7.95 0.45 8.05 0.5 8.2 0.65 8.25 0.75 8.4 0.9 8.45 1.0 8.5 1.05 8.55 1.15 8.6 1.2 8.65 1.3 8.65 1.4 8.95 1.7 9.0 1.8 9.05 1.85 9.1 1.95 9.15 2.0 9.25 2.2 9.3 2.25 9.3 3.05 9.25 3.15 9.2 3.2 9.15 3.3 9.1 3.35 9.1 3.45 9.05 3.55 9.05 3.6 9.0 3.7 9.0 4.05 9.05 4.1 9.1 4.2 9.15 4.25 9.2 4.35 9.2 5.15 9.15 5.25 9.1 5.3 9.1 5.4 9.05 5.45 8.95 5.65 8.85 5.7 8.85 6.2 8.8 6.25 8.8 6.35 8.65 6.5 8.6 6.6 8.4 6.8 8.25 6.9 8.2 7.0 8.05 7.15 7.95 7.2 7.85 7.3 7.8 7.4 7.7 7.45 7.65 7.55 7.6 7.6 7.6 9.2 7.55 9.3 7.55 9.35 7.5 9.45 7.45 9.5 7.4 9.6 7.3 9.7 7.2 9.75 7.15 9.85 7.1 9.9 7.0 10.1 6.85 10.25 6.75 10.3 6.65 10.4 6.5 10.4 6.35 10.5 6.2 10.55 6.05 10.55 5.85 10.6 5.8 10.6 5.65 10.65 4.0 10.65 3.85 10.6 3.8 10.6 3.5 10.55 3.1 10.55 2.9 10.5 2.8 10.5 2.75 10.45 2.45 10.45 2.05 10.55 1.8 10.65 1.65 10.7 1.35 10.7 1.05 10.8 0.3 10.8 0.1 10.75 -0.15 10.7 -0.25 10.65 -0.4 10.5 -0.5 10.3 -1.1 10.3 -1.2 10.35 -1.4 10.35 -1.6 10.4 -1.65 10.4 -1.75 10.45 -1.9 10.45 -2.25 10.5 -2.3 10.55 -2.4 10.55 -2.55 10.6 -4.6 10.6 -4.7 10.65 -4.9 10.65 -5.2 10.7 -5.25 10.7 -5.35 10.75 -6.45 10.75 -6.65 10.7 -6.8 10.65 -6.9 10.6 -6.95 10.5 -7.1 10.35 -7.1 10.25 -7.15 10.2 -7.15 10.1 -7.3 10.15 -7.5 10.2 -7.65 10.25 -8.4 10.25 -9.35 10.2 -9.5 10.2 -9.8 10.1 -9.95 10.0 -10.1 9.95 -10.15 9.85 -10.25 9.8 -10.25 9.7 -10.3 9.6 -10.3 7.65 -10.25 7.55 -10.25 6.9 -10.4 6.85 -10.6 6.75 -10.65 6.7 -10.75 6.5 -10.8 6.45 -10.8 6.05 -10.85 5.95 -10.85 5.9 -10.9 5.8 -10.95 5.75 -10.95 5.55 -11.0 5.5 -11.05 5.4 -11.1 5.35 -11.2 5.15 -11.3 5.1 -11.45 4.95 -11.55 4.75 -11.55 4.25 -11.5 4.2 -13.25 4.2 -13.45 4.25 -14.0 4.25 -14.65 4.2 -14.8 4.2 -14.9 4.25 -15.0 4.35 -15.1 4.4 -15.25 4.45 -15.7 4.45 -15.95 4.35 -16.05 4.3 -16.2 4.2 -16.4 4.0 -16.5 3.8 -16.5 2.55 -16.55 2.45 -16.75 2.45 -16.95 2.4 -17.15 2.4 -17.3 2.35 -17.55 2.1 -17.55 2.05 -18.1 2.05 -18.2 2.1 -18.35 2.1 -18.55 2.15 -18.6 2.2 -18.7 2.2 -18.9 2.25 -19.25 2.25 -19.35 2.3 -19.5 2.35 -19.7 2.4 -19.85 2.4 -20.1 2.45 -20.25 2.55 -20.4 2.6 -20.6 2.65 -20.7 2.65 -20.75 2.7 -20.85 2.7 -21.0 2.75 -21.5 2.75 -21.6 2.8 -21.75 2.8 -22.05 2.85 -22.15 2.95 -22.35 3.0 -22.5 3.1 -22.6 3.2 -22.7 3.25 -22.85 3.35 -23.05 3.4 -23.15 3.45 -23.2 3.5 -23.3 3.55 -23.7 3.55 -23.8 3.5 -24.0 3.45 -24.15 3.35 -24.25 3.3 -24.3 3.2 -24.4 3.15 -24.5 3.05 -24.55 2.95 -24.6 2.9 -24.65 2.8 -24.7 2.75 -24.9 2.75 -25.05 2.8 -25.35 2.8 -25.8 2.65 -25.85 2.55 -25.95 2.45 -25.95 2.4 -26.0 2.3 -26.0 2.0 -26.05 1.9 -26.1 1.85 -26.1 1.75 -26.15 1.65 -26.3 1.6 -26.35 1.5 -26.5 1.45 -26.65 1.35 -26.7 1.25 -26.8 1.2 -26.95 1.1 -27.05 1.05 -27.3 1.0 -27.6 0.95 -27.8 0.9 -27.95 0.85 -28.0 0.8 -28.25 0.75 -28.4 0.7 -28.55 0.6 -28.75 0.55 -29.05 0.4 -29.15 0.4 -29.3 0.35 -29.4 0.4 -30.0 0.4 -30.25 0.35 -30.45 0.25 -30.7 0.2 -30.8 0.15 -31.0 0.1 -31.15 0.05 -31.3 -0.05 -31.4 -0.15 -31.5 -0.2 -31.55 -0.3 -31.65 -0.35 -31.75 -0.55 -31.75 -0.7 -31.9 -0.85 -31.95 -0.95 -31.95 -1.0 -32.0 -1.1 -32.0 -1.7 -31.9 -1.9 -31.6 -2.2 -31.3 -2.3 -31.1 -2.3 -31.2 -2.35 -31.25 -2.45 -31.35 -2.5 -31.45 -2.7 -31.45 -2.75 -31.5 -2.85 -31.55 -2.9 -31.6 -3.0 -31.85 -3.25 -31.95 -3.3 -32.05 -3.5 -32.05 -3.55 -32.2 -3.65 -32.35 -3.7 -32.4 -3.75 -32.4 -3.8 -32.5 -3.8 -32.65 -3.85 -32.85 -3.95 -32.95 -4.05 -33.05 -4.1 -33.2 -4.2 -33.3 -4.25 -33.4 -4.35 -33.45 -4.45 -33.5 -4.5 -33.5 -4.6 -33.55 -4.65 -33.55 -5.05 -33.5 -5.15 -33.5 -6.9 -33.65 -7.05 -33.65 -7.15 -33.7 -7.2 -33.7 -7.95 -33.65 -8.0 -33.65 -8.4 -33.7 -8.45 -33.7 -8.5 -33.75 -8.6 -33.8 -8.65 -33.8 -8.75 -33.85 -8.85 -33.9 -8.9 -33.95 -9.0 -33.95 -9.05 -34.05 -9.15 -34.1 -9.25 -34.15 -9.3 -34.2 -9.4 -34.2 -9.45 -34.3 -9.65 -34.5 -9.85 -34.6 -10.05 -34.7 -10.1 -34.75 -10.2 -34.75 -10.25 -34.8 -10.35 -34.95 -10.5 -35.0 -10.6 -35.05 -10.65 -35.1 -10.75 -35.15 -10.8 -35.15 -12.15 -35.1 -12.25 -35.1 -12.9 -35.05 -12.95 -35.0 -13.05 -35.0 -13.75 -34.95 -13.85 -34.95 -14.3 -35.0 -14.4 -35.0 -15.25 -34.95 -15.35 -34.9 -15.4 -34.9 -16.15 -34.85 -16.2 -34.8 -16.3 -34.75 -16.35 -34.75 -16.75 -34.8 -16.85 -34.85 -16.9 -34.9 -17.0 -34.9 -17.65 -34.95 -17.7 -34.95 -17.8 -35.0 -17.9 -35.0 -17.95 -35.05 -18.05 -35.05 -18.1 -35.1 -18.2 -35.1 -18.25 -35.15 -18.35 -35.15 -18.45 -35.2 -18.5 -35.2 -18.65 -35.3 -18.7 -35.45 -18.8 -35.55 -18.9 -35.8 -18.95 -35.9 -19.05 -36.05 -19.0 -36.3 -18.95 -36.5 -18.9 -36.8 -18.9 -38.3 -18.95 -38.55 -19.0 -38.65 -19.05 -38.75 -19.15 -38.85 -19.15 -38.95 -19.05 -39.0 -18.95 -39.25 -18.7 -39.35 -18.65 -39.4 -18.6 -39.5 -18.55 -40.9 -18.55 -41.05 -18.6 -41.4 -18.95 -41.5 -19.0 -41.6 -19.2 -41.6 -19.25 -41.8 -19.45 -41.9 -19.5 -42.05 -19.5 -42.15 -19.55 -42.2 -19.55 -42.85 -19.6 -43.0 -19.65 -43.1 -19.65 -43.2 -19.7 -43.45 -19.7 -43.6 -19.75 -43.75 -19.85 -43.8 -19.9 -43.9 -20.1 -43.95 -20.15 -43.95 -22.0 -44.15 -22.1 -44.15 -22.15 -44.3 -22.15 -44.45 -22.25 -44.75 -22.35 -44.95 -22.4 -45.2 -22.45 -45.65 -22.6 -45.75 -22.7 -45.85 -22.7 -46.05 -22.75 -46.15 -22.8 -46.7 -22.85 -47.1 -22.95 -47.35 -23.0 -47.45 -23.05 -47.6 -23.15 -47.65 -23.25 -47.7 -23.3 -47.75 -23.4 -47.8 -23.45 -47.8 -24.1 -47.85 -24.2 -47.9 -24.25 -47.9 -24.75 -48.05 -24.8 -48.15 -24.9 -48.2 -25.0 -48.3 -25.05 -48.3 -25.15 -48.35 -25.2 -48.35 -25.55 -48.3 -25.6 -48.3 -25.7 -48.25 -25.8 -48.25 -25.95 -48.4 -26.0 -48.5 -26.1 -48.8 -26.25 -49.0 -26.25 -49.25 -26.3 -49.65 -26.35 -49.9 -26.4 -50.0 -26.45 -50.05 -26.5 -50.3 -26.55 -50.45 -26.65 -50.65 -26.7 -50.8 -26.8 -50.9 -26.85 -50.95 -26.95 -51.1 -27.1 -51.15 -27.2 -51.15 -27.35 -51.35 -27.3 -52.6 -27.3 -52.85 -27.25 -52.95 -27.25 -53.15 -27.3 -53.3 -27.35 -53.4 -27.45 -53.45 -27.55 -53.45 -27.6 -53.5 -27.7 -53.5 -27.85 -53.55 -27.9 -53.55 -27.85 -53.7 -27.85 -54.0 -28.0 -54.15 -28.15 -54.2 -28.25 -54.25 -28.3 -54.3 -28.4 -54.3 -28.45 -54.4 -28.55 -54.45 -28.65 -54.5 -28.7 -54.55 -28.8 -55.05 -29.3 -55.15 -29.35 -55.3 -29.45 -55.4 -29.5 -55.45 -29.6 -55.45 -30.15 -55.4 -30.25 -55.4 -30.35 -55.3 -30.55 -55.2 -30.6 -55.15 -30.7 -55.0 -30.75 -54.3 -30.75 -54.1 -30.7 -53.95 -30.65 -53.9 -30.55 -53.8 -30.45 -53.55 -30.4 -53.35 -30.3 -53.35 -30.25 -53.15 -30.2 -53.0 -30.15 -52.85 -30.05 -52.75 -29.95 -52.65 -29.9 -52.6 -29.9 -52.35 -29.95 -52.2 -29.95 -51.35 -30.0 -49.55 -30.0 -49.3 -29.95 -49.15 -29.9 -49.0 -29.75 -49.0 -29.65 -48.95 -29.55 -48.95 -29.5 -48.9 -29.4 -48.9 -28.45 -48.85 -28.4 -48.55 -28.2 -48.4 -28.15 -48.15 -28.05 -47.85 -28.0 -47.6 -27.95 -47.3 -27.9 -47.05 -27.85 -46.95 -27.75 -46.85 -27.7 -46.7 -27.6 -46.45 -27.55 -46.3 -27.45 -46.15 -27.3 -46.1 -27.2 -46.05 -27.15 -46.05 -25.9 -46.0 -25.85 -46.0 -25.75 -45.95 -25.65 -45.9 -25.6 -45.9 -25.5 -45.85 -25.45 -45.85 -25.3 -45.65 -25.25 -45.55 -25.2 -45.4 -25.2 -45.2 -25.15 -45.1 -25.05 -45.0 -25.0 -44.75 -24.95 -44.65 -24.95 -44.45 -24.9 -44.3 -24.8 -44.15 -24.75 -43.8 -24.7 -43.65 -24.7 -43.55 -24.65 -43.4 -24.65 -43.25 -24.6 -43.15 -24.6 -42.75 -24.5 -42.6 -24.45 -42.45 -24.35 -42.35 -24.25 -42.25 -24.2 -42.0 -23.95 -41.95 -23.85 -41.9 -23.8 -41.9 -23.7 -41.85 -23.65 -41.75 -23.45 -41.75 -23.4 -41.7 -23.3 -41.7 -22.9 -41.65 -22.85 -41.65 -22.75 -41.6 -22.7 -41.6 -22.45 -41.55 -22.35 -41.5 -22.3 -41.5 -22.2 -41.45 -22.1 -41.45 -21.95 -41.4 -21.9 -41.4 -21.8 -41.35 -21.7 -41.35 -21.65 -40.0 -21.65 -39.7 -21.7 -39.35 -21.75 -39.05 -21.85 -38.95 -21.85 -38.9 -21.9 -38.75 -21.9 -38.6 -21.95 -38.5 -21.95 -38.45 -22.0 -38.4 -22.0 -38.4 -22.05 -38.3 -22.25 -38.3 -22.3 -38.25 -22.4 -38.25 -22.45 -38.2 -22.55 -38.1 -22.6 -38.05 -22.7 -37.95 -22.8 -37.85 -22.85 -37.75 -22.95 -37.6 -23.0 -37.55 -23.1 -37.35 -23.2 -36.75 -23.35 -36.55 -23.45 -35.35 -23.45 -35.35 -23.5 -35.05 -23.5 -34.95 -23.6 -34.85 -23.6 -34.7 -23.65 -34.55 -23.75 -34.45 -23.8 -34.15 -23.8 -34.15 -23.85 -34.05 -23.85 -33.6 -23.7 -33.5 -23.6 -33.45 -23.5 -33.35 -23.45 -33.25 -23.35 -33.15 -23.3 -33.0 -23.2 -32.85 -23.05 -32.8 -22.95 -32.8 -22.9 -32.75 -22.8 -32.7 -22.75 -32.6 -22.55 -32.4 -22.55 -32.3 -22.6 -32.15 -22.65 -32.0 -22.75 -31.7 -22.85 -31.65 -22.9 -31.55 -22.9 -31.1 -23.05 -29.8 -23.05 -29.5 -22.95 -29.4 -22.9 -29.25 -22.75 -29.25 -22.65 -29.15 -22.55 -29.15 -22.0 -29.1 -21.95 -29.1 -21.85 -29.05 -21.85 -28.85 -21.8 -28.7 -21.75 -28.6 -21.7 -28.55 -21.7 -28.45 -21.65 -28.25 -21.65 -28.1 -21.6 -27.95 -21.5 -27.8 -21.45 -27.5 -21.25 -27.35 -21.2 -27.25 -21.1 -27.15 -21.05 -26.95 -20.85 -26.85 -20.8 -26.7 -20.7 -26.6 -20.65 -26.5 -20.55 -26.45 -20.45 -26.3 -20.4 -26.2 -20.3 -26.05 -20.25 -25.95 -20.15 -25.85 -20.1 -25.65 -19.9 -25.35 -19.8 -25.35 -19.75 -25.2 -19.75 -25.05 -19.7 -24.75 -19.5 -24.65 -19.45 -24.6 -19.35 -24.55 -19.3 -24.55 -19.2 -24.5 -19.1 -24.5 -18.8 -24.55 -18.7 -24.6 -18.65 -24.65 -18.55 -24.7 -18.5 -24.85 -18.4 -25.0 -18.35 -25.1 -18.25 -25.2 -18.25 -25.35 -18.2 -26.3 -18.2 -26.35 -18.15 -26.45 -18.15 -26.65 -18.1 -26.8 -18.05 -26.9 -18.0 -26.95 -18.0 -27.05 -17.95 -27.1 -17.85 -27.2 -17.75 -27.35 -17.7 -27.5 -17.6 -27.5 -17.35 -27.55 -17.3 -27.55 -17.2 -27.6 -17.15 -27.6 -17.05 -27.65 -16.95 -27.7 -16.9 -27.7 -16.8 -27.75 -16.75 -27.75 -16.65 -27.8 -16.6 -27.85 -16.5 -28.1 -16.25 -28.2 -16.2 -28.25 -16.2 -28.45 -16.15 -28.6 -16.05 -28.8 -16.0 -28.85 -15.95 -28.8 -15.85 -28.75 -15.8 -28.65 -15.6 -28.65 -15.55 -28.6 -15.45 -28.55 -15.4 -28.5 -15.3 -28.5 -15.2 -28.45 -15.15 -28.45 -15.05 -28.4 -15.0 -28.35 -14.9 -28.35 -14.6 -28.4 -14.5 -28.45 -14.45 -28.45 -13.7 -28.5 -13.65 -28.6 -13.45 -28.65 -13.4 -28.7 -13.3 -28.75 -13.25 -28.8 -13.15 -28.8 -13.0 -28.7 -12.9 -28.7 -12.85 -28.65 -12.75 -28.65 -12.7 -28.6 -12.6 -28.6 -12.5 -28.55 -12.45 -28.55 -11.35 -28.6 -11.25 -28.6 -11.15 -28.65 -11.1 -28.7 -11.0 -28.8 -10.95 -28.9 -10.85 -29.05 -10.75 -29.05 -10.65 -29.1 -10.6 -29.15 -10.5 -29.15 -10.1 -29.25 -10.05 -29.25 -9.95 -29.3 -9.85 -29.3 -9.8 -29.35 -9.7 -29.35 -9.65 -29.4 -9.55 -29.4 -9.45 -29.45 -9.4 -29.45 -9.3 -29.5 -9.25 -29.6 -9.05 -29.8 -8.85 -29.85 -8.75 -29.85 -8.65 -29.9 -8.6 -29.95 -8.5 -30.0 -8.45 -30.0 -8.35 -30.1 -8.3 -30.15 -8.2 -30.3 -8.05 -30.3 -7.95 -30.35 -7.9 -30.35 -7.5 -30.4 -7.4 -30.4 -7.3 -30.45 -7.25 -30.45 -7.15 -30.5 -7.1 -30.6 -6.9 -30.6 -6.6 -30.65 -6.55 -30.7 -6.45 -30.7 -5.85 -30.65 -5.75 -30.65 -5.7 -30.6 -5.6 -30.35 -5.35 -30.25 -5.3 -30.15 -5.2 -30.1 -5.1 -30.0 -5.05 -29.9 -4.95 -29.8 -4.9 -29.7 -4.8 -29.65 -4.7 -29.6 -4.65 -29.55 -4.55 -29.5 -4.5 -29.5 -4.4 -29.45 -4.3 -29.45 -4.25 -29.4 -4.15 -29.4 -4.1 -29.35 -4.0 -29.35 -3.95 -29.25 -3.75 -29.2 -3.7 -29.2 -3.6 -29.15 -3.55 -29.15 -3.45 -29.1 -3.35 -29.1 -3.3 -29.05 -3.2 -29.05 -1.8 -28.95 -1.7 -28.85 -1.7 -28.6 -1.65 -28.5 -1.55 -28.3 -1.45 -28.1 -1.4 -27.95 -1.4 -27.75 -1.35 -27.25 -1.1 -27.15 -1.1 -27.0 -1.05 -26.9 -1.05 -26.85 -1.0 -26.0 -1.0 -25.7 -0.9 -25.55 -0.8 -25.45 -0.75 -25.35 -0.65 -25.2 -0.6 -25.1 -0.55 -24.95 -0.5 -24.8 -0.4 -24.75 -0.3 -24.65 -0.25 -24.55 -0.15 -24.35 -0.1 -24.1 0.15 -24.05 0.15 -23.75 0.2 -23.6 0.2 -23.45 0.25 -23.2 0.5 -23.2 0.6 -23.15 0.65 -23.15 0.75 -22.95 0.75 -22.8 0.7 -22.7 0.6 -22.6 0.55 -22.55 0.55 -22.45 0.5 -22.3 0.45 -22.1 0.4 -21.8 0.3 -21.6 0.25 -21.4 0.15 -21.2 0.1 -21.05 0.05 -20.95 -0.05 -20.8 -0.1 -20.7 -0.15 -20.65 -0.15 -20.55 -0.2 -20.35 -0.2 -20.05 -0.25 -20.0 -0.25 -19.9 -0.3 -19.75 -0.3 -19.1 -0.35 -18.8 -0.45 -18.6 -0.5 -18.5 -0.5 -18.2 -0.6 -18.1 -0.65 -17.95 -0.65 -17.7 -0.7 -17.55 -0.8 -17.3 -0.85 -17.15 -0.95 -17.05 -0.95 -16.8 -1.0 -16.6 -1.05 -16.45 -1.1 -15.9 -1.1 -15.45 -0.95 -15.35 -0.85 -15.3 -0.75 -15.2 -0.7 -15.15 -0.6 -15.1 -0.55 -15.05 -0.45 -14.95 -0.35 -14.85 -0.3 -14.3 0.25 -14.2 0.45 -14.15 0.5 -14.1 0.6 -14.1 0.65 -14.05 0.75 -14.05 0.8 -14.0 0.9 -14.0 1.05 -13.95 1.15 -13.9 1.2 -13.9 1.5 -13.85 1.55 -13.75 1.6 -13.7 1.7 -13.6 1.75 -13.45 1.85 -13.4 1.95 -13.3 2.0 -13.15 2.1 -9.8 2.1 -9.7 2.15 -9.55 2.25 -9.4 2.4 -9.35 2.5 -9.3 2.55 -9.2 2.75 -9.2 2.8 -9.1 2.9 -9.1 2.95 -9.0 3.15 -9.0 3.4 -8.95 3.45 -8.95 3.55 -8.9 3.65 -8.85 3.7 -8.8 3.8 -8.75 3.85 -8.7 3.95 -8.7 4.05 -8.65 4.1 -8.65 4.2 -8.6 4.25 -8.6 4.35 -8.55 4.3 -8.4 4.3 -8.05 4.25 -7.85 4.3 -7.7 4.4 -7.45 4.65 -7.45 4.7 -7.35 4.8 -7.35 5.65 -7.45 5.85 -7.5 5.9 -7.55 6.0 -7.65 6.05 -7.7 6.15 -7.75 6.2 -7.75 7.1 -7.8 7.15 -7.8 7.2 -7.6 7.25 -7.2 7.3 -6.35 7.25 -5.5 7.25 -5.35 7.3 -5.25 7.3 -5.2 7.35 -4.45 7.35 -4.15 7.45 -4.05 7.55 -3.95 7.6 -3.85 7.7 -3.85 7.75 -3.8 7.85 -3.8 7.9 -3.1 7.85 -2.9 7.8 -2.75 7.75 -1.75 7.75 -1.65 7.7 -1.55 7.7 -1.4 7.65 -1.1 7.65 -1.0 7.6 -0.9 7.6 -0.75 7.55 -0.35 7.45 -0.2 7.4 -0.05 7.3 0.05 7.25 0.15 7.25 0.3 7.2 0.65 7.2 0.7 7.15 0.95 7.15 0.95 7.1 1.6 7.1 2.05 7.25 2.1 7.35 2.25 7.5 2.3 7.6 2.3 7.65 2.35 7.75 2.35 8.15 3.4 8.15 4.15 8.1 4.45 8.0 4.55 8.0 4.55 7.9 4.6 7.85 4.7 7.65 4.7 7.6 4.75 7.5 4.8 7.45 4.85 7.35 4.85 7.25 4.9 7.2 4.9 7.1 4.95 7.05 4.95 6.95 5.0 6.85 5.0 6.55 5.05 6.45 5.05 6.4 5.2 6.25 5.35 6.15 5.4 6.1 5.4 6.0 5.45 5.9 5.55 5.85 5.6 5.75 5.9 5.6 6.05 5.55 6.55 5.55 6.55 5.2 6.5 5.1 6.5 5.05 6.45 4.95 6.45 4.25 6.5 4.15 6.6 4.05 6.6 4.0 6.65 3.95 6.7 3.85 6.8 3.75 6.9 3.75 6.95 3.7 6.95 3.65 6.85 3.6 6.6 3.35 6.5 3.3 6.4 3.2 6.3 3.15 6.2 2.95 6.1 2.9 5.95 2.75 5.9 2.65 5.75 2.6 5.55 2.5 5.45 2.4 5.05 2.2 4.95 2.1 4.8 2.0 4.65 1.95 4.55 1.85 4.45 1.8 4.35 1.6 4.3 1.55 4.25 1.45 4.2 1.4 4.2 1.1 4.1 1.0 4.05 0.9 4.05 0.85 4.0 0.75 4.0 0.5 4.05 0.45 4.05 0.35 4.1 0.25 4.2 0.2 4.25 0.1 4.35 0.05 4.45 -0.05 4.45 -0.15 4.5 -0.2 4.55 -0.3 4.65 -0.35 4.65 -0.45 4.7 -0.55 4.85 -0.7 4.95 -0.75 4.95 -0.85 5.0 -0.95 5.05 -1.0 5.1 -1.1 5.25 -1.25 5.35 -1.3 5.75 -1.7 5.8 -1.8 5.8 -2.75 5.75 -2.85 5.75 -3.3 5.7 -3.4 5.65 -3.45 5.65 -3.65 5.6 -3.7 5.6 -3.95 5.55 -4.05 5.55 -4.1 5.5 -4.2 5.5 -4.25 5.45 -4.35 5.45 -4.9 5.4 -5.0 5.4 -5.05 5.35 -5.15 5.35 -5.2 5.3 -5.3 5.3 -5.35 5.15 -5.4 5.0 -5.55 5.0 -5.65 4.95 -5.75 4.95 -5.95 5.0 -6.05 5.05 -6.1 5.15 -6.3 5.35 -6.5 5.35 -6.6 5.4 -6.7 5.45 -6.75 5.5 -6.85 5.6 -6.9 6.0 -7.0 6.1 -7.1 6.25 -7.15 6.3 -7.2 6.45 -7.2 6.65 -7.25 7.1 -7.4 7.4 -7.6 7.5 -7.65 7.55 -7.75 7.6 -7.8 7.6 -7.9 7.55 -8.0 7.55 -8.05 7.5 -8.15 7.4 -8.2 7.3 -8.3 7.25 -8.4 7.2 -8.45 7.2 -8.55 7.15 -8.6 7.1 -8.7 7.05 -8.75 7.05 -8.85 6.95 -8.95 6.95 -9.0 6.9 -9.1 6.9 -9.15 6.85 -9.25 6.85 -9.55 6.9 -9.65 6.9 -9.75 7.05 -9.9 7.15 -9.95 7.35 -10.15 7.35 -10.2 7.4 -10.3 7.4 -10.35 7.5 -10.55 7.5 -11.9 7.55 -11.95 7.55 -12.05 7.6 -12.1 7.6 -12.45 7.65 -12.5 7.65 -12.6 7.7 -12.65 7.7 -12.75 7.75 -12.85 7.75 -12.9 7.8 -13.0 7.8 -13.05 7.9 -13.25 7.9 -13.3 7.95 -13.4 7.95 -13.45 8.05 -13.55 8.1 -13.65 8.15 -13.7 8.35 -13.8 8.6 -13.8 8.6 -13.85 9.1 -13.85 9.3 -13.8 9.45 -13.75 9.55 -13.7 9.7 -13.65 9.8 -13.6 9.95 -13.55 10.15 -13.5 10.3 -13.45 Q10.35 -13.4 10.4 -13.35 L10.7 -13.3 10.85 -13.3 11.05 -13.25 11.15 -13.15 11.45 -13.1 11.6 -13.05 11.7 -13.05 11.75 -13.0 11.85 -13.0 11.85 -13.05 12.0 -13.2 12.15 -13.3 12.3 -13.35 12.35 -13.35 12.5 -13.4 12.75 -13.4 13.2 -13.45 13.3 -13.55 13.35 -13.65 13.45 -13.7 13.6 -13.85 13.7 -14.05 13.75 -14.1 13.8 -14.2 13.9 -14.25 14.0 -14.35 14.2 -14.45 14.25 -14.5 14.25 -14.6 14.3 -14.65 14.4 -14.85 14.4 -14.9 14.45 -15.0 14.45 -15.3 14.5 -15.4 14.55 -15.45 14.55 -15.8 14.6 -15.85 14.6 -16.35 14.65 -16.4 14.65 -16.5 14.7 -16.6 14.7 -16.65 14.75 -16.75 14.75 -16.8 14.8 -16.9 14.85 -16.95 14.85 -17.05 14.9 -17.15 14.9 -17.2 15.15 -17.45 15.35 -17.5 15.5 -17.55 16.35 -17.55 16.4 -17.65 16.4 -17.7 16.45 -17.8 16.45 -17.9 16.5 -17.95 16.5 -18.05 16.55 -18.1 16.6 -18.2 16.65 -18.25 16.7 -18.35 16.7 -18.45 16.75 -18.5 16.75 -18.6 16.8 -18.65 16.8 -18.75 16.85 -18.85 16.9 -18.9 16.9 -19.0 16.95 -19.05 17.0 -19.15 17.0 -19.25 17.05 -19.3 17.1 -19.4 17.1 -19.55 17.15 -19.65 17.15 -19.7 17.2 -19.8 17.25 -19.85 17.3 -19.95 17.3 -20.0 17.35 -20.1 17.35 -20.2 17.4 -20.25 17.45 -20.35 17.5 -20.4 17.5 -20.65 17.55 -20.75 17.55 -20.8 17.6 -20.9 17.6 -21.0 17.65 -21.05 17.65 -21.15 17.75 -21.2 17.8 -21.3 17.9 -21.4 18.2 -21.55 M16.35 -16.1 L16.35 -15.8 16.45 -15.85 16.6 -15.9 16.65 -15.95 16.45 -16.05 16.4 -16.15 16.35 -16.2 16.35 -16.1 M9.3 -12.05 L9.3 -12.1 9.1 -12.15 9.0 -12.2 8.95 -12.1 8.95 -12.05 9.1 -12.05 9.1 -12.1 9.3 -12.05 M8.55 -9.4 L8.55 -9.5 8.5 -9.4 8.45 -9.35 8.45 -9.15 8.5 -9.1 8.5 -9.0 8.55 -8.95 8.55 -9.4 M24.85 -20.4 L24.85 -20.35 24.95 -20.3 25.0 -20.2 25.05 -20.15 25.15 -19.95 25.2 -20.0 25.2 -20.4 25.15 -20.45 25.1 -20.45 24.95 -20.4 24.85 -20.4 M27.6 -17.2 L27.6 -17.2 M5.45 0.85 L5.45 0.9 5.6 1.05 5.7 1.1 5.75 1.15 5.75 1.1 5.7 1.0 5.5 0.8 5.45 0.85 M-50.05 -27.75 L-50.05 -27.7 -50.0 -27.7 -50.05 -27.75 M-34.2 -22.05 L-34.25 -22.1 -34.65 -22.1 -34.85 -22.0 -34.6 -22.0 -34.6 -22.05 -34.2 -22.05 M-31.2 -19.95 L-31.2 -20.05 -31.25 -20.15 -31.25 -20.2 -31.3 -20.3 -31.55 -20.3 -31.65 -20.25 -33.15 -20.25 -33.3 -20.3 -33.45 -20.45 -33.45 -20.4 -33.5 -20.35 -33.5 -20.25 -33.55 -20.2 -33.6 -20.1 -33.7 -20.0 -33.8 -19.95 -33.85 -19.85 -33.9 -19.8 -33.75 -19.75 -33.5 -19.5 -33.5 -19.4 -33.45 -19.35 -33.45 -18.85 -33.5 -18.8 -33.5 -17.95 -33.45 -17.9 -33.45 -17.8 -33.4 -17.75 -33.35 -17.65 -33.35 -17.15 -33.3 -17.1 -33.3 -16.75 -33.25 -16.7 -33.25 -16.6 -33.1 -16.45 -33.0 -16.4 -32.95 -16.3 -32.9 -16.25 -32.9 -16.15 -32.85 -16.05 -32.85 -15.85 -32.9 -15.75 -32.95 -15.7 -32.95 -15.6 -33.0 -15.5 -33.05 -15.45 -33.05 -14.05 -33.1 -14.0 -33.2 -13.8 -33.2 -13.2 -33.25 -13.1 -33.25 -13.0 -33.3 -12.95 -33.3 -12.05 -33.25 -12.0 -33.2 -11.9 -33.2 -11.8 -33.15 -11.8 -33.05 -11.6 -33.0 -11.55 -33.0 -11.45 -32.95 -11.4 -32.95 -11.3 -32.9 -11.2 -32.9 -11.15 -32.85 -11.05 -32.85 -11.0 -32.75 -10.8 -32.65 -10.75 -32.6 -10.65 -32.6 -10.6 -32.55 -10.5 -32.55 -10.4 -32.5 -10.35 -32.5 -10.25 -32.45 -10.2 -32.45 -9.85 -32.4 -9.8 -32.35 -9.7 -32.35 -8.65 -32.4 -8.6 -32.45 -8.5 -32.55 -8.4 -32.55 -8.35 -32.5 -8.3 -32.5 -8.05 -32.55 -7.95 -32.5 -7.9 -32.45 -7.8 -32.45 -7.9 -32.4 -7.95 -32.4 -8.2 -32.35 -8.3 -32.05 -8.6 -32.05 -8.65 -31.95 -8.85 -31.85 -8.9 -31.85 -9.0 -31.75 -9.05 -31.75 -9.15 -31.7 -9.25 -31.65 -9.3 -31.6 -9.4 -31.5 -9.45 -31.4 -9.65 -31.35 -9.7 -31.35 -10.4 -31.4 -10.5 -31.5 -10.6 -31.65 -10.65 -31.95 -10.8 -32.05 -10.9 -32.1 -11.0 -32.2 -11.05 -32.35 -11.2 -32.35 -11.3 -32.4 -11.4 -32.4 -11.85 -32.35 -11.95 -32.35 -12.0 -32.3 -12.1 -32.25 -12.15 -32.15 -12.35 -32.05 -12.4 -31.95 -12.5 -31.8 -12.55 -31.7 -12.65 -31.6 -12.7 -31.55 -12.75 -31.45 -12.75 -31.0 -12.9 -30.8 -13.0 -30.7 -13.1 -30.7 -13.55 -30.75 -13.65 -30.75 -13.7 -30.8 -13.8 -30.8 -14.05 -30.85 -14.1 -30.9 -14.2 -30.9 -14.5 -30.95 -14.6 -31.0 -14.65 -31.0 -14.75 -31.05 -14.85 -31.05 -14.9 -31.1 -15.0 -31.1 -15.05 -31.15 -15.15 -31.15 -15.2 -31.25 -15.4 -31.55 -15.7 -31.6 -15.8 -31.65 -15.85 -31.65 -15.95 -31.75 -16.0 -31.85 -16.2 -31.85 -16.25 -31.9 -16.35 -31.95 -16.4 -31.95 -16.5 -32.0 -16.6 -32.0 -17.3 -31.95 -17.35 -31.95 -17.45 -31.9 -17.55 -31.6 -17.85 -31.55 -17.95 -31.4 -18.0 -31.25 -18.1 -31.1 -18.15 -30.9 -18.25 -30.8 -18.25 -30.65 -18.3 -29.7 -18.3 -29.65 -18.35 -29.55 -18.35 -29.25 -18.45 -29.05 -18.5 -28.9 -18.6 -28.85 -18.65 -28.85 -18.75 -28.8 -18.85 -28.75 -18.9 -28.7 -19.0 -28.9 -19.1 -28.95 -19.15 -29.5 -19.2 -29.65 -19.2 -29.95 -19.3 -30.15 -19.35 -30.3 -19.4 -30.4 -19.45 -30.45 -19.45 -30.55 -19.5 -30.7 -19.5 -30.85 -19.55 -31.0 -19.65 -31.05 -19.75 -31.15 -19.8 -31.15 -19.9 -31.2 -19.95 M-27.35 -19.35 L-27.3 -19.35 -27.35 -19.45 -27.35 -19.35 M-30.25 -11.75 L-30.3 -11.7 -30.25 -11.65 -30.25 -11.75 M-5.95 8.7 L-5.8 8.85 -5.75 8.95 -5.75 9.0 -5.7 9.1 -5.65 9.15 -5.65 9.3 -5.5 9.3 -5.55 9.25 -5.55 8.75 -5.75 8.65 -5.95 8.7 M-8.75 8.8 L-8.75 8.85 -8.7 8.85 -8.75 8.8 M-15.5 1.2 L-15.55 1.1 -15.7 1.05 -15.8 0.95 -15.9 0.9 -15.95 0.85 -15.9 0.95 -15.75 1.1 -15.7 1.2 -15.6 1.25 -15.5 1.45 -15.5 1.2" fill="#8ce6e6" fill-opacity="0.7490196" fill-rule="evenodd" stroke="none"/>
  </g>
</svg>
