<?xml version="1.0" encoding="UTF-8" standalone="no"?>
<svg xmlns:ffdec="https://www.free-decompiler.com/flash" xmlns:xlink="http://www.w3.org/1999/xlink" ffdec:objectType="shape" height="76.0px" width="91.85px" xmlns="http://www.w3.org/2000/svg">
  <g transform="matrix(1.0, 0.0, 0.0, 1.0, 54.3, 43.5)">
    <path d="M1.8 -42.75 L1.25 -42.75 -1.6 -42.65 -1.6 -42.6 -1.65 -42.5 -1.75 -42.45 -3.15 -42.45 -3.3 -42.6 -3.3 -42.75 -3.4 -42.8 -3.4 -42.85 -3.65 -42.9 -3.7 -42.95 -3.9 -43.0 -4.0 -43.05 -4.2 -43.1 -4.35 -43.2 -4.45 -43.25 -4.65 -43.25 -4.8 -43.15 -4.9 -43.1 -5.05 -43.05 -5.1 -43.0 -5.25 -42.95 -5.4 -42.8 -5.45 -42.7 -5.55 -42.6 -5.65 -42.55 -5.65 -42.5 -5.75 -42.45 -5.9 -42.4 -6.0 -42.35 -6.05 -42.25 -6.2 -42.3 -6.15 -42.4 -6.1 -42.45 -5.95 -42.55 -5.85 -42.6 -5.8 -42.7 -5.6 -42.8 -5.6 -42.85 -5.55 -42.95 -5.45 -43.0 -5.4 -43.1 -5.3 -43.15 -5.15 -43.2 -5.1 -43.25 -4.95 -43.3 -4.9 -43.35 -4.75 -43.4 -4.75 -43.45 -4.65 -43.45 -4.65 -43.5 -4.4 -43.45 -4.25 -43.4 -4.1 -43.3 -3.9 -43.25 -3.55 -43.15 -3.5 -43.1 -3.35 -43.05 -3.2 -42.95 -3.1 -42.9 -3.05 -42.8 -3.0 -42.75 -1.9 -42.75 -1.85 -42.8 -1.85 -42.9 -1.8 -42.95 1.25 -43.0 1.85 -42.95 1.95 -42.85 2.1 -42.8 2.25 -42.7 2.4 -42.55 2.3 -42.5 2.2 -42.6 2.05 -42.65 1.85 -42.75 1.8 -42.75 M6.0 -38.7 L6.05 -38.6 6.05 -38.55 6.0 -38.45 5.9 -38.45 5.8 -38.5 5.75 -38.55 5.55 -38.6 5.4 -38.7 5.3 -38.75 5.25 -38.75 4.7 -38.85 4.6 -38.9 2.45 -38.95 2.3 -39.0 1.5 -39.05 1.45 -39.1 1.35 -39.1 0.9 -39.15 0.75 -39.2 0.35 -39.3 0.25 -39.35 -0.75 -39.3 -0.75 -38.85 -1.8 -38.85 -1.85 -38.9 -2.4 -38.95 -2.45 -39.05 -2.4 -39.1 -1.75 -39.1 -1.65 -39.05 -0.95 -39.1 -0.95 -39.55 0.25 -39.55 0.4 -39.5 0.8 -39.45 0.95 -39.4 1.35 -39.35 1.5 -39.3 1.6 -39.3 2.3 -39.25 2.45 -39.2 4.6 -39.15 4.75 -39.1 5.25 -39.05 5.55 -38.95 5.75 -38.85 5.85 -38.75 6.0 -38.7 M19.85 -24.15 L20.15 -24.15 20.15 -24.2 20.3 -24.15 20.4 -23.95 20.45 -23.9 20.45 -23.0 20.4 -22.95 20.35 -22.85 20.35 -22.8 20.3 -22.85 20.0 -22.85 19.85 -22.8 19.9 -22.9 19.95 -22.95 19.95 -23.35 20.0 -23.45 20.0 -23.5 20.05 -23.6 19.95 -23.6 19.85 -23.55 19.55 -23.5 19.4 -23.45 18.95 -23.4 18.7 -23.3 18.65 -23.25 18.15 -23.25 17.75 -23.2 17.45 -23.1 17.25 -23.0 17.1 -22.95 16.95 -22.95 16.7 -22.9 16.55 -22.85 15.9 -22.8 15.8 -22.6 15.75 -22.55 15.6 -22.5 15.35 -22.45 15.15 -22.4 15.05 -22.4 14.75 -22.3 14.75 -22.2 14.45 -22.2 14.05 -22.3 13.8 -22.35 13.75 -22.45 13.75 -22.5 13.7 -22.55 13.6 -22.6 13.45 -22.65 13.35 -22.75 13.35 -22.9 13.45 -22.95 13.45 -23.05 13.4 -23.15 13.4 -23.3 13.35 -23.35 13.3 -23.45 13.3 -23.55 13.25 -23.65 13.25 -23.7 13.2 -23.8 13.15 -23.85 13.15 -24.1 13.0 -24.25 13.0 -24.55 13.05 -24.6 13.15 -24.6 13.15 -24.75 13.05 -24.8 12.95 -24.75 12.8 -24.8 12.75 -24.9 12.75 -25.85 12.65 -25.9 12.6 -26.0 12.5 -26.05 12.3 -26.25 12.3 -26.4 12.1 -26.4 11.9 -26.2 11.9 -26.15 11.8 -26.1 11.4 -26.0 11.35 -25.95 11.25 -25.9 10.3 -25.9 10.15 -25.95 9.95 -26.0 9.85 -26.05 10.0 -25.9 9.95 -25.85 9.15 -25.85 8.9 -25.9 8.8 -25.95 8.5 -25.95 8.35 -26.0 8.15 -26.1 8.0 -26.2 7.9 -26.25 7.75 -26.35 7.65 -26.4 7.5 -26.55 7.45 -26.5 7.45 -25.65 7.4 -25.55 7.4 -24.7 7.35 -24.6 7.3 -24.55 7.3 -24.05 7.25 -23.95 7.25 -23.75 7.2 -23.65 7.05 -23.65 6.95 -23.7 6.95 -23.95 6.9 -24.05 6.9 -24.65 7.05 -24.8 7.05 -25.55 7.0 -25.6 7.0 -26.95 7.1 -27.05 7.2 -27.1 7.65 -27.1 7.75 -27.0 7.85 -26.95 7.9 -26.85 7.95 -26.8 8.1 -26.7 8.2 -26.65 8.5 -26.45 8.8 -26.4 8.95 -26.35 9.0 -26.3 9.1 -26.3 9.2 -26.35 9.35 -26.4 9.45 -26.45 9.8 -26.45 9.9 -26.4 10.7 -26.4 10.85 -26.35 10.9 -26.3 11.2 -26.35 11.4 -26.4 11.45 -26.45 11.55 -26.5 11.7 -26.55 11.7 -26.65 11.8 -26.7 11.9 -26.8 12.0 -26.8 12.3 -26.85 12.4 -26.9 12.5 -26.9 12.5 -26.95 12.65 -26.9 12.7 -26.8 12.75 -26.75 12.75 -26.5 12.8 -26.4 12.95 -26.35 13.0 -26.25 13.0 -26.1 13.05 -26.0 13.1 -25.95 13.15 -25.85 13.15 -25.05 13.3 -25.0 13.35 -24.95 13.35 -24.35 13.4 -24.3 13.4 -24.2 13.45 -24.15 13.55 -23.95 13.6 -23.9 13.6 -23.75 13.65 -23.65 13.65 -23.6 13.75 -23.5 13.8 -23.4 13.85 -23.35 13.9 -23.25 14.1 -23.2 14.3 -23.2 14.45 -23.25 14.95 -23.3 15.05 -23.35 15.85 -23.4 15.9 -23.4 16.0 -23.5 16.15 -23.6 16.35 -23.6 16.55 -23.65 16.65 -23.7 17.05 -23.7 17.2 -23.75 18.2 -23.8 18.35 -23.85 18.7 -23.9 18.9 -24.0 19.25 -24.05 19.4 -24.1 19.7 -24.1 19.75 -24.15 19.85 -24.15 M22.6 -22.55 L23.55 -22.55 24.45 -22.5 24.55 -22.45 26.8 -22.45 26.85 -22.55 26.85 -22.7 26.8 -22.8 26.75 -22.85 26.75 -23.0 26.7 -23.1 26.6 -23.2 26.6 -23.35 26.45 -23.4 26.45 -23.45 26.5 -23.5 26.8 -23.5 26.85 -23.45 26.85 -23.3 26.95 -23.1 26.95 -22.95 27.0 -22.9 27.05 -22.8 27.05 -22.0 26.95 -21.95 26.8 -22.0 26.75 -22.1 25.05 -22.1 24.4 -22.15 24.35 -22.2 23.55 -22.2 22.75 -22.15 22.75 -21.2 22.7 -21.1 22.7 -20.95 22.6 -20.9 22.45 -20.95 22.45 -22.15 22.4 -22.2 22.4 -22.45 22.5 -22.55 22.6 -22.55 M14.45 -22.55 L14.5 -22.6 14.45 -22.6 14.15 -22.55 14.45 -22.55 M14.65 -17.75 L14.75 -17.7 14.8 -17.6 14.7 -17.6 14.5 -17.65 14.45 -17.7 13.95 -17.75 13.85 -17.85 13.8 -17.95 13.7 -18.0 13.65 -18.1 13.6 -18.15 13.45 -18.1 13.3 -18.15 13.2 -18.2 13.15 -18.3 12.85 -18.3 12.65 -18.35 12.5 -18.45 12.4 -18.5 12.05 -18.85 11.9 -18.9 11.8 -19.0 11.7 -19.05 11.6 -18.95 11.5 -18.9 11.45 -18.8 11.35 -18.75 11.15 -18.7 11.05 -18.6 10.9 -18.55 10.65 -18.45 10.6 -18.4 10.45 -18.35 10.4 -18.3 10.3 -18.25 9.9 -18.15 9.85 -18.1 9.75 -18.05 9.25 -18.05 9.1 -18.1 8.95 -18.25 8.95 -18.9 8.9 -19.0 8.8 -18.95 8.65 -18.85 8.6 -18.85 8.3 -18.8 8.2 -18.7 8.2 -18.65 8.05 -18.65 8.0 -18.55 7.9 -18.5 7.85 -18.4 7.75 -18.3 7.65 -18.25 7.65 -18.2 7.55 -18.15 7.25 -18.1 6.8 -17.95 6.7 -17.85 6.6 -17.85 6.4 -17.8 6.25 -17.75 5.3 -17.75 5.15 -17.8 5.1 -17.85 5.1 -19.25 5.15 -19.3 5.15 -19.7 5.25 -19.8 5.25 -20.1 5.35 -20.2 5.55 -20.2 5.55 -20.25 5.65 -20.3 5.75 -20.3 5.85 -20.2 5.85 -20.15 5.7 -20.1 5.65 -20.05 5.7 -20.0 5.55 -19.85 5.55 -19.55 5.45 -19.45 5.45 -19.3 5.5 -19.25 5.5 -18.15 6.3 -18.15 6.45 -18.2 6.65 -18.25 6.8 -18.35 6.9 -18.4 7.05 -18.45 7.1 -18.5 7.2 -18.55 7.4 -18.6 7.55 -18.65 7.55 -18.75 7.85 -19.05 8.15 -19.05 8.2 -19.1 8.55 -19.15 8.75 -19.35 8.85 -19.4 8.9 -19.45 9.0 -19.45 9.0 -19.5 9.15 -19.45 9.3 -19.3 9.3 -18.55 9.35 -18.5 9.75 -18.5 9.9 -18.55 9.95 -18.6 10.25 -18.7 10.35 -18.75 10.4 -18.85 10.5 -18.85 10.75 -18.9 11.05 -19.0 11.25 -19.1 11.45 -19.15 11.45 -19.25 11.55 -19.35 11.95 -19.3 12.1 -19.15 Q12.15 -19.1 12.2 -19.05 L12.35 -19.0 12.5 -18.85 12.65 -18.75 12.7 -18.65 12.75 -18.6 13.15 -18.6 13.3 -18.55 13.4 -18.5 13.45 -18.4 13.6 -18.3 13.7 -18.3 13.95 -18.05 14.05 -18.0 14.1 -17.95 14.45 -17.85 14.65 -17.75 M21.95 -20.05 L22.05 -20.1 22.5 -20.1 22.5 -20.15 22.6 -20.15 22.7 -20.1 22.75 -20.1 22.85 -20.0 22.85 -19.7 22.7 -19.55 22.6 -19.6 22.5 -19.6 22.35 -19.7 22.3 -19.75 22.15 -19.75 21.85 -19.6 21.85 -19.55 21.75 -19.45 21.6 -19.4 21.55 -19.35 21.4 -19.3 21.2 -19.2 21.05 -19.15 20.85 -19.1 20.7 -18.95 20.55 -18.9 20.35 -18.7 20.2 -18.65 20.15 -18.6 20.0 -18.55 19.95 -18.5 19.85 -18.5 19.7 -18.55 19.6 -18.6 19.5 -18.7 19.45 -18.8 19.45 -18.85 19.5 -18.95 19.5 -19.8 19.65 -19.85 19.7 -19.85 19.75 -19.75 19.75 -19.2 19.8 -19.15 19.85 -19.25 20.05 -19.3 20.3 -19.55 20.6 -19.6 20.75 -19.7 20.8 -19.75 20.9 -19.8 21.05 -19.75 21.25 -19.75 21.3 -19.8 21.45 -19.85 21.55 -19.85 21.65 -19.95 21.75 -20.0 21.95 -20.05 M19.0 -16.05 L18.65 -16.1 18.25 -16.15 18.1 -16.2 18.0 -16.3 18.0 -16.35 18.05 -16.35 18.15 -16.3 18.25 -16.3 18.65 -16.35 19.25 -16.35 19.35 -16.3 19.55 -16.25 19.65 -16.2 20.2 -16.15 20.3 -16.05 20.3 -15.9 20.75 -15.85 20.85 -15.75 21.0 -15.65 21.2 -15.45 21.45 -15.45 21.6 -15.4 21.65 -15.35 22.4 -15.35 22.5 -15.3 22.55 -15.2 22.55 -15.15 22.6 -15.05 22.6 -13.4 22.55 -13.3 22.55 -13.25 22.45 -13.05 22.45 -13.0 22.4 -12.9 22.35 -12.85 22.35 -12.1 22.3 -12.05 22.25 -11.95 22.25 -11.8 22.15 -11.7 22.15 -11.65 22.1 -11.55 22.05 -11.5 21.95 -11.5 21.55 -11.55 21.5 -11.6 21.05 -11.65 20.95 -11.75 20.8 -11.7 20.75 -11.65 20.7 -11.55 20.65 -11.5 20.55 -11.3 20.55 -11.25 20.45 -11.15 20.35 -11.1 20.35 -11.0 20.3 -10.95 20.3 -10.85 20.25 -10.75 20.25 -10.6 20.2 -10.55 20.15 -10.45 20.15 -10.35 20.1 -10.3 20.05 -10.2 19.95 -10.15 19.95 -9.55 19.9 -9.45 19.85 -9.4 19.85 -9.25 19.75 -9.05 19.75 -8.9 19.7 -8.85 19.65 -8.75 19.55 -8.75 19.55 -8.85 19.5 -8.9 19.5 -9.25 19.65 -9.4 19.65 -9.55 19.7 -9.65 19.75 -9.7 19.75 -10.25 19.8 -10.35 19.85 -10.4 19.95 -10.6 19.95 -10.75 20.05 -10.8 20.1 -10.9 20.1 -11.2 20.15 -11.3 20.2 -11.35 20.2 -11.4 20.3 -11.4 20.3 -11.35 20.35 -11.4 20.35 -11.6 20.5 -11.7 20.55 -11.75 20.6 -11.85 20.6 -11.95 20.7 -12.0 21.05 -12.0 21.15 -11.95 21.6 -11.9 21.8 -11.9 21.8 -11.95 21.85 -12.05 21.9 -12.1 21.9 -12.3 21.95 -12.35 22.0 -12.45 22.0 -12.8 21.95 -12.8 21.9 -12.9 21.9 -13.05 21.95 -13.15 22.0 -13.2 22.0 -13.65 22.05 -13.7 22.05 -13.75 22.1 -13.8 22.15 -13.8 22.15 -14.95 21.95 -15.0 21.45 -15.05 21.4 -15.1 21.15 -15.15 20.85 -15.35 20.8 -15.4 20.6 -15.45 20.55 -15.5 20.1 -15.55 20.0 -15.65 20.0 -15.8 19.55 -15.9 19.5 -15.95 19.1 -16.0 19.0 -16.05 M22.95 -17.4 L23.25 -17.25 23.25 -17.2 23.35 -17.0 23.35 -16.95 23.4 -16.85 23.45 -16.8 23.45 -16.7 23.55 -16.65 23.55 -16.55 23.6 -16.45 23.65 -16.4 23.7 -16.3 23.7 -16.15 23.8 -16.05 23.8 -15.55 23.9 -15.55 23.95 -15.65 24.05 -15.7 24.15 -15.8 24.2 -15.9 24.25 -15.95 24.3 -15.95 24.4 -16.0 24.9 -16.0 25.05 -16.05 25.2 -16.05 25.25 -15.95 25.3 -15.9 25.25 -15.8 25.25 -15.7 25.3 -15.65 25.6 -15.5 25.95 -15.45 26.0 -15.4 26.0 -15.3 26.05 -15.2 26.1 -15.15 26.1 -14.6 26.2 -14.55 27.75 -14.55 27.8 -14.45 27.8 -14.35 27.75 -14.3 26.2 -14.3 25.95 -14.35 25.9 -14.45 25.9 -15.05 25.85 -15.15 25.75 -15.2 25.5 -15.3 25.45 -15.35 25.2 -15.4 25.05 -15.55 25.05 -15.65 24.9 -15.65 24.7 -15.6 24.55 -15.55 24.35 -15.5 24.25 -15.4 24.25 -15.35 24.2 -15.25 24.05 -15.15 24.0 -15.1 24.0 -15.05 23.95 -15.0 23.65 -15.0 23.5 -15.05 23.45 -15.1 23.45 -15.2 23.5 -15.25 23.5 -15.85 23.45 -15.9 23.4 -16.0 23.4 -16.3 23.3 -16.4 23.3 -16.45 23.2 -16.65 23.15 -16.7 23.1 -16.8 23.1 -16.85 23.05 -16.95 23.0 -17.0 22.9 -17.05 22.75 -17.2 22.65 -17.25 22.55 -17.35 22.55 -17.4 22.6 -17.5 22.7 -17.5 22.7 -17.55 22.85 -17.5 22.95 -17.4 M9.35 -26.2 L9.35 -26.2 M5.95 -21.95 L6.0 -21.9 6.15 -21.8 6.15 -21.65 5.9 -21.65 5.75 -21.8 5.75 -21.85 5.55 -21.9 5.45 -21.95 5.35 -22.05 5.25 -22.0 4.8 -21.95 4.75 -21.9 4.75 -21.85 4.4 -21.85 4.3 -21.95 4.3 -22.0 4.15 -22.1 3.65 -22.1 3.6 -22.05 3.5 -22.0 3.3 -22.05 3.25 -22.1 3.1 -22.1 2.95 -22.15 2.65 -22.2 2.2 -22.35 2.1 -22.45 1.6 -22.45 1.0 -22.4 1.0 -21.85 1.1 -21.65 1.1 -21.1 1.15 -21.05 1.15 -20.3 1.2 -20.25 1.25 -20.15 1.25 -19.85 1.3 -19.75 1.35 -19.7 1.35 -19.6 1.4 -19.5 1.45 -19.45 1.5 -19.35 1.55 -19.3 1.55 -19.1 1.6 -19.05 1.65 -18.95 1.65 -17.55 1.55 -17.35 1.5 -17.3 1.45 -17.2 1.4 -17.15 1.4 -17.05 1.45 -16.95 1.5 -16.9 1.5 -16.75 1.55 -16.65 1.65 -16.6 1.65 -16.5 1.7 -16.4 1.7 -16.35 1.75 -16.25 1.8 -16.2 1.8 -16.1 1.85 -16.0 1.85 -15.95 1.9 -15.85 1.9 -15.8 2.0 -15.6 2.0 -15.4 1.95 -15.3 2.0 -15.2 2.05 -15.15 2.1 -15.05 2.2 -15.0 2.4 -14.8 2.5 -14.75 2.55 -14.65 2.6 -14.6 2.65 -14.5 2.8 -14.35 2.85 -14.25 2.95 -14.2 3.0 -14.1 3.1 -14.05 3.2 -13.95 3.25 -13.85 3.35 -13.8 3.4 -13.7 3.5 -13.65 3.6 -13.55 3.65 -13.45 3.7 -13.4 3.75 -13.3 3.8 -13.25 3.8 -13.15 3.85 -13.05 3.9 -13.0 3.95 -12.9 4.0 -12.85 4.05 -12.75 4.3 -12.5 4.55 -12.5 4.7 -12.45 5.1 -12.4 5.45 -12.35 5.55 -12.25 5.55 -12.15 5.7 -12.1 5.75 -12.05 5.85 -12.05 6.2 -12.0 6.3 -11.95 6.7 -11.85 6.8 -11.75 6.85 -11.65 6.85 -11.6 6.9 -11.5 7.0 -11.45 7.1 -11.25 7.1 -11.2 7.15 -11.15 7.45 -11.1 7.55 -11.05 7.7 -10.9 7.85 -10.8 8.0 -10.75 8.1 -10.65 8.45 -10.6 8.5 -10.5 8.6 -10.4 8.7 -10.35 8.85 -10.2 8.85 -10.1 9.0 -9.95 9.05 -9.85 9.05 -9.8 9.0 -9.7 8.9 -9.65 8.8 -9.7 8.7 -9.8 8.6 -9.8 8.8 -9.6 8.85 -9.5 8.9 -9.45 8.95 -9.35 9.05 -9.3 9.1 -9.2 9.25 -9.05 9.3 -8.95 9.35 -8.9 9.5 -8.8 9.6 -8.75 9.85 -8.5 11.35 -8.45 12.3 -8.45 12.35 -8.55 12.4 -8.6 12.5 -8.6 13.25 -8.65 14.45 -8.65 14.55 -8.6 14.7 -8.45 14.75 -8.45 14.9 -8.4 15.0 -8.2 15.0 -8.0 14.95 -7.9 14.95 -7.2 14.9 -7.1 14.85 -7.05 14.75 -6.85 14.7 -6.8 14.65 -6.7 14.65 -6.65 14.75 -6.55 14.75 -6.45 14.85 -6.4 14.8 -6.3 14.75 -6.25 14.65 -6.05 14.55 -6.0 14.55 -5.7 15.5 -5.65 15.6 -5.6 15.75 -5.5 15.8 -5.45 15.85 -5.35 15.9 -5.3 15.95 -5.2 15.95 -5.1 15.9 -5.05 15.9 -4.65 15.95 -4.55 15.9 -4.5 15.85 -4.4 15.85 -4.0 15.75 -3.95 15.65 -3.75 15.6 -3.7 15.55 -3.6 15.55 -3.55 15.45 -3.35 15.45 -3.05 15.4 -2.95 15.35 -2.9 15.3 -2.8 15.2 -2.75 15.1 -2.55 15.05 -2.5 15.0 -2.4 14.95 -2.35 14.9 -2.25 14.85 -2.2 14.7 -2.1 14.6 -2.05 14.5 -1.95 14.35 -1.9 14.3 -1.8 14.3 -1.5 14.25 -1.4 14.1 -1.25 14.05 -1.15 14.05 -1.1 14.1 -1.0 14.15 -0.95 14.25 -0.75 14.25 -0.7 14.3 -0.6 14.35 -0.55 14.35 -0.45 14.45 -0.35 14.55 -0.3 14.55 -0.2 14.6 -0.15 14.65 -0.05 14.65 0.4 14.75 0.6 14.75 1.0 14.7 1.05 14.65 1.15 14.45 1.2 14.4 1.25 14.3 1.3 14.1 1.35 14.0 1.4 13.95 1.4 13.95 1.5 13.9 1.6 13.8 1.65 13.45 2.0 13.4 2.1 13.25 2.25 13.1 2.2 13.1 2.15 13.05 2.15 12.9 2.25 12.85 2.3 12.7 2.35 12.5 2.55 12.45 2.5 12.45 2.45 12.5 2.35 12.6 2.3 12.65 2.2 12.85 2.1 13.0 1.95 13.15 1.85 13.25 1.75 13.25 1.65 13.35 1.55 13.45 1.5 13.5 1.4 13.6 1.35 13.65 1.3 13.65 1.2 13.8 1.05 13.9 1.0 14.2 1.0 14.5 0.85 14.5 0.7 14.45 0.65 14.4 0.55 14.4 0.1 14.35 0.0 14.1 -0.25 14.1 -0.4 14.05 -0.5 14.0 -0.55 14.0 -0.65 13.85 -0.8 13.8 -0.9 13.8 -1.2 13.85 -1.25 13.9 -1.35 13.9 -1.45 14.0 -1.5 14.1 -1.6 14.1 -1.9 14.15 -2.0 14.3 -2.15 14.45 -2.25 14.55 -2.3 14.65 -2.4 14.75 -2.45 14.8 -2.55 14.95 -2.7 15.0 -2.8 15.05 -2.85 15.1 -2.95 15.15 -3.0 15.3 -3.1 15.3 -3.2 15.35 -3.25 15.35 -3.5 15.4 -3.6 15.45 -3.65 15.5 -3.75 15.55 -3.8 15.65 -4.0 15.65 -4.05 15.75 -4.15 15.75 -4.45 15.55 -4.55 15.5 -4.6 15.5 -4.95 15.45 -5.0 15.45 -5.1 15.4 -5.15 14.2 -5.15 14.05 -5.25 14.0 -5.3 14.0 -5.85 14.1 -5.95 14.1 -6.2 14.15 -6.25 14.2 -6.35 14.3 -6.4 14.3 -6.5 14.25 -6.6 14.25 -6.75 14.35 -6.8 14.35 -6.9 14.4 -7.0 14.45 -7.05 14.45 -7.15 14.5 -7.2 14.55 -7.3 14.55 -7.9 14.35 -7.95 14.3 -8.05 14.25 -8.1 13.25 -8.1 12.5 -8.15 12.4 -8.15 11.35 -8.1 9.8 -8.15 9.65 -8.2 9.5 -8.3 9.5 -8.4 9.45 -8.45 9.4 -8.55 9.3 -8.6 9.15 -8.7 9.05 -8.8 9.05 -8.85 9.0 -8.95 8.85 -9.1 8.8 -9.2 8.7 -9.25 8.45 -9.5 8.45 -9.65 8.4 -9.75 8.4 -9.8 8.5 -9.85 8.5 -10.1 8.25 -10.35 8.0 -10.4 7.65 -10.5 7.55 -10.55 7.45 -10.65 7.3 -10.7 7.1 -10.75 6.9 -10.85 6.75 -10.9 6.7 -11.0 6.7 -11.15 6.65 -11.2 6.6 -11.3 6.6 -11.45 6.45 -11.6 6.05 -11.65 6.0 -11.7 5.85 -11.7 5.65 -11.8 5.5 -11.85 5.35 -11.95 5.35 -12.0 4.65 -12.0 4.55 -12.05 4.25 -12.1 4.1 -12.15 4.05 -12.25 3.9 -12.3 3.8 -12.35 3.65 -12.5 3.6 -12.6 3.6 -12.7 3.5 -12.75 3.4 -12.85 3.4 -12.9 3.35 -13.0 3.3 -13.05 3.3 -13.15 3.25 -13.25 3.2 -13.3 3.2 -13.4 2.35 -14.25 2.25 -14.45 2.2 -14.5 2.05 -14.6 1.95 -14.65 1.8 -14.8 1.8 -14.9 1.65 -15.05 1.6 -15.15 1.55 -15.2 1.5 -15.3 1.5 -15.75 1.45 -15.8 1.4 -15.9 1.4 -15.95 1.35 -16.05 1.3 -16.1 1.25 -16.2 1.25 -16.35 1.2 -16.45 1.1 -16.5 1.05 -16.6 1.05 -16.75 1.0 -16.85 0.85 -17.0 0.85 -17.3 0.9 -17.4 0.95 -17.45 0.95 -17.5 1.05 -17.5 1.15 -17.55 1.25 -17.65 1.3 -17.75 1.3 -18.8 1.25 -18.85 1.2 -18.95 1.2 -19.1 1.15 -19.15 1.05 -19.35 1.0 -19.4 1.0 -19.5 0.95 -19.55 0.9 -19.65 0.9 -19.95 0.8 -20.15 0.75 -20.2 0.75 -20.85 0.7 -20.9 0.65 -21.0 0.65 -21.1 0.6 -21.15 0.6 -21.55 0.55 -21.65 0.5 -21.7 0.5 -22.85 0.6 -22.9 0.75 -22.95 2.0 -22.95 2.2 -22.9 2.35 -22.75 2.55 -22.65 2.7 -22.6 2.95 -22.55 3.1 -22.5 3.2 -22.45 3.4 -22.45 4.3 -22.4 4.5 -22.2 4.55 -22.2 4.6 -22.3 4.7 -22.3 4.55 -22.45 4.55 -22.55 4.65 -22.55 4.65 -22.6 4.85 -22.55 5.0 -22.5 5.1 -22.4 5.3 -22.35 5.45 -22.25 5.6 -22.1 5.65 -22.1 5.9 -22.05 5.95 -21.95 M4.8 -22.2 L4.9 -22.2 4.7 -22.3 4.75 -22.2 4.8 -22.2 M1.4 -0.25 L1.5 -0.3 1.7 -0.3 2.15 -0.35 2.25 -0.45 2.75 -0.45 2.9 -0.4 2.95 -0.3 3.0 -0.25 2.95 -0.15 2.95 -0.1 3.0 -0.05 3.0 0.3 2.95 0.35 2.95 0.45 2.9 0.55 2.85 0.6 2.8 0.7 2.55 0.95 2.4 1.0 2.45 1.05 3.2 1.05 3.3 1.1 3.35 1.15 3.6 1.15 3.75 1.2 4.45 1.25 4.6 1.35 4.65 1.4 4.75 1.4 4.9 1.45 4.95 1.45 5.3 1.5 5.45 1.55 5.95 1.6 7.85 1.6 8.0 1.65 8.4 1.7 8.65 1.8 8.8 1.85 8.85 1.95 8.9 2.0 8.85 2.1 8.8 2.15 8.75 2.25 8.6 2.35 8.45 2.4 8.35 2.5 8.2 2.55 8.05 2.65 8.0 2.75 7.9 2.8 7.8 2.9 7.8 2.95 7.7 3.05 7.55 3.15 7.45 3.2 7.3 3.3 7.15 3.35 7.05 3.45 6.9 3.55 6.8 3.6 6.65 3.7 6.45 3.75 6.35 3.85 6.35 3.9 6.05 3.9 6.0 3.85 6.0 3.7 6.05 3.6 6.15 3.55 6.45 3.35 6.6 3.3 6.7 3.2 6.85 3.15 7.1 2.9 7.25 2.8 7.35 2.75 7.55 2.55 7.7 2.5 7.8 2.4 7.95 2.35 8.2 2.1 7.95 2.1 7.8 2.05 5.95 2.0 5.4 2.0 5.3 1.95 4.25 1.9 4.1 1.85 3.8 1.8 3.65 1.75 3.4 1.7 3.4 1.85 3.3 1.95 2.95 1.9 2.5 1.85 2.45 1.8 2.45 1.6 2.0 1.55 1.9 1.5 1.05 1.5 0.95 1.45 0.85 1.35 0.85 1.1 0.95 1.0 1.05 0.95 1.2 0.95 1.2 0.8 1.25 0.7 1.35 0.65 1.4 0.55 1.5 0.5 1.55 0.4 1.6 0.35 1.5 0.35 0.75 0.3 0.65 0.3 0.5 0.25 0.25 0.2 0.25 0.25 0.2 0.25 -0.2 0.3 -0.4 0.35 -0.45 0.4 -0.55 0.4 -0.8 0.5 -0.95 0.55 -1.4 0.6 -1.5 0.65 -2.15 0.7 -2.25 0.75 -3.9 0.75 -4.15 0.8 -4.25 0.8 -4.35 0.85 -5.2 0.85 -5.35 0.8 -5.4 0.75 -5.55 0.7 -5.65 0.65 -5.7 0.6 -6.35 0.55 -6.75 0.55 -6.8 0.6 -6.9 0.6 -7.1 0.65 -7.15 0.75 -7.2 0.8 -7.3 0.8 -7.55 0.85 -7.65 0.9 -7.85 0.85 -8.15 0.9 -8.25 1.0 -8.35 1.0 -8.35 0.8 -8.15 0.7 -8.15 0.65 -8.05 0.65 -7.65 0.55 -7.6 0.5 -7.55 0.5 -7.35 0.4 -7.2 0.25 -7.1 0.25 -6.95 0.2 -6.9 0.15 -6.8 0.1 -5.5 0.1 -5.4 0.15 -5.25 0.3 -5.15 0.35 -5.1 0.35 -4.75 0.4 -4.35 0.4 -4.15 0.5 -3.9 0.5 -3.8 0.55 -2.35 0.5 -2.25 0.4 -1.5 0.35 -1.4 0.3 -0.85 0.25 -0.75 0.2 -0.55 0.15 -0.4 0.1 -0.2 0.15 0.15 0.1 0.2 0.05 0.3 0.05 0.5 -0.05 0.65 -0.1 0.75 -0.1 1.3 -0.15 1.3 -0.2 1.35 -0.25 1.4 -0.25 M17.3 -3.2 L17.3 -3.35 17.25 -3.4 17.25 -3.5 17.3 -3.6 17.35 -3.65 17.35 -3.8 17.45 -4.0 17.5 -4.05 17.55 -4.15 17.6 -4.2 17.6 -4.3 17.65 -4.35 17.65 -4.4 17.7 -4.4 17.7 -4.55 17.75 -4.6 17.8 -4.7 17.8 -5.35 17.85 -5.4 17.85 -5.65 17.95 -5.65 18.0 -5.6 18.0 -5.65 18.05 -5.75 18.2 -5.75 18.25 -5.65 18.25 -4.55 18.15 -4.35 18.15 -4.2 18.1 -4.15 18.05 -4.05 18.05 -3.9 18.0 -3.8 17.95 -3.75 17.95 -3.4 17.75 -3.4 17.75 -3.05 17.65 -2.95 17.7 -2.85 17.7 -2.8 17.8 -2.7 17.8 -2.55 17.85 -2.45 17.9 -2.4 17.95 -2.3 17.95 -2.15 18.0 -2.05 18.05 -2.0 18.05 -1.65 18.1 -1.6 18.1 -1.45 18.0 -1.4 18.0 -1.3 18.15 -1.2 18.25 -1.15 18.4 -1.0 18.4 -0.8 18.3 -0.8 18.2 -0.9 18.15 -1.0 18.15 -1.05 17.9 -1.1 17.85 -1.2 17.85 -1.35 17.8 -1.45 17.75 -1.5 17.75 -1.65 17.7 -1.6 17.6 -1.65 17.6 -2.0 17.5 -2.05 17.5 -2.3 17.4 -2.4 17.4 -2.7 17.5 -2.8 17.45 -2.85 17.4 -2.95 17.35 -3.0 17.3 -3.1 17.3 -3.2 M20.75 -5.8 L20.8 -5.75 20.8 -5.55 20.9 -5.5 21.05 -5.35 21.05 -5.25 21.1 -5.15 21.25 -5.0 21.25 -4.85 21.2 -4.75 21.15 -4.7 21.15 -4.6 21.1 -4.55 21.05 -4.45 21.05 -4.35 20.95 -4.3 20.95 -3.9 20.9 -3.8 20.85 -3.75 20.85 -3.0 20.95 -2.95 20.95 -1.75 21.0 -1.65 21.0 -1.6 21.05 -1.5 21.05 -1.1 21.1 -1.05 21.15 -0.95 21.15 0.15 21.2 0.15 21.35 0.1 21.55 0.0 21.65 -0.1 21.75 -0.1 21.75 -0.15 21.85 -0.1 21.95 -0.2 22.05 -0.2 22.2 -0.15 22.3 -0.1 22.35 0.0 22.3 0.1 22.25 0.15 22.2 0.25 22.1 0.3 22.05 0.35 22.05 0.55 21.95 0.6 21.9 0.55 21.85 0.45 21.85 0.35 21.75 0.35 21.6 0.45 21.55 0.5 21.4 0.55 21.3 0.6 21.15 0.65 21.1 0.7 21.0 0.7 20.85 0.65 20.8 0.6 20.8 0.5 20.85 0.45 20.85 -0.05 20.8 -0.15 20.75 -0.2 20.75 -1.25 20.7 -1.35 20.7 -1.45 20.65 -1.5 20.65 -2.8 20.6 -2.85 20.55 -2.95 20.55 -4.0 20.6 -4.05 20.65 -4.15 20.65 -4.35 20.75 -4.55 20.75 -4.7 20.8 -4.75 20.85 -4.85 20.85 -4.95 20.8 -5.0 20.75 -5.1 20.75 -5.25 20.7 -5.35 20.6 -5.4 20.55 -5.5 20.55 -5.55 20.5 -5.65 20.5 -5.75 20.4 -5.8 20.35 -5.9 20.35 -6.0 20.4 -6.05 20.55 -6.05 20.7 -5.9 20.75 -5.8 M28.75 -24.6 L28.9 -24.55 28.9 -24.5 28.8 -24.4 28.75 -24.3 28.65 -24.25 28.05 -24.2 27.9 -24.15 26.55 -24.1 26.5 -24.05 26.5 -23.85 26.55 -23.8 26.55 -23.75 26.5 -23.7 26.35 -23.75 26.35 -23.9 26.3 -23.95 26.3 -24.2 26.35 -24.3 26.4 -24.35 26.5 -24.4 27.95 -24.5 28.1 -24.55 28.65 -24.55 28.65 -24.6 28.75 -24.6 M28.65 -21.1 L28.8 -21.1 29.05 -20.85 29.1 -20.75 29.15 -20.7 29.25 -20.5 Q29.35 -20.5 29.45 -20.45 L29.5 -20.35 29.6 -20.3 29.7 -20.2 29.8 -20.15 29.85 -20.05 30.0 -19.9 30.05 -19.8 30.05 -19.75 30.15 -19.65 30.15 -19.35 31.1 -19.4 31.2 -19.45 31.95 -19.5 32.15 -19.5 32.25 -19.45 32.3 -19.4 32.25 -19.35 32.1 -19.3 31.95 -19.15 31.2 -19.1 31.1 -19.05 29.95 -19.1 29.9 -19.15 29.9 -19.4 29.85 -19.5 29.8 -19.55 29.8 -19.65 29.5 -19.95 29.4 -20.15 29.25 -20.2 29.2 -20.3 29.1 -20.35 29.05 -20.45 28.95 -20.5 28.95 -20.6 28.9 -20.7 28.8 -20.75 28.75 -20.85 28.6 -20.9 28.55 -21.0 28.55 -21.1 28.65 -21.1 M28.15 -20.8 L28.1 -20.75 27.95 -20.65 27.9 -20.6 27.75 -20.5 27.7 -20.4 27.6 -20.35 27.6 -20.25 27.5 -20.2 27.45 -20.1 27.45 -19.8 27.3 -19.7 27.2 -19.6 26.85 -19.55 26.75 -19.5 24.75 -19.5 24.7 -19.6 24.7 -19.7 24.75 -19.75 24.8 -19.75 26.75 -19.8 26.85 -19.85 27.05 -19.9 27.25 -20.0 27.25 -20.2 27.3 -20.25 27.35 -20.35 27.35 -20.4 27.45 -20.5 27.5 -20.6 27.6 -20.65 27.7 -20.75 27.8 -20.8 27.9 -20.8 27.95 -20.85 28.0 -20.85 28.15 -20.8 M28.95 -10.65 L29.0 -10.6 29.05 -10.5 29.05 -10.4 29.15 -10.35 29.15 -9.85 29.2 -9.8 29.2 -9.7 29.45 -9.65 29.5 -9.6 29.75 -9.55 29.9 -9.4 29.95 -9.4 30.2 -9.35 30.3 -9.3 30.5 -9.25 30.6 -9.15 30.7 -9.1 30.75 -9.05 30.9 -9.0 31.0 -8.95 31.15 -8.85 31.15 -8.7 31.0 -8.65 30.9 -8.7 30.85 -8.75 30.7 -8.8 30.2 -9.05 29.85 -9.1 29.65 -9.3 29.4 -9.35 29.35 -9.4 29.1 -9.45 29.0 -9.5 28.95 -9.6 28.95 -10.15 28.85 -10.25 28.85 -10.3 28.8 -10.4 28.75 -10.45 28.75 -10.55 28.7 -10.65 28.65 -10.7 28.65 -10.85 28.6 -10.95 28.55 -11.0 28.25 -11.05 27.9 -11.05 27.85 -11.0 27.8 -11.0 27.6 -10.9 27.4 -10.85 27.35 -10.8 27.25 -10.75 26.1 -10.8 26.05 -10.85 26.05 -11.25 26.15 -11.45 26.15 -11.5 26.3 -11.65 26.3 -11.75 26.35 -11.85 26.4 -11.9 26.45 -12.0 26.65 -12.2 26.7 -12.3 26.7 -12.55 26.75 -12.6 26.8 -12.7 26.8 -13.2 26.85 -13.25 26.85 -13.55 27.0 -13.55 27.05 -13.45 27.05 -12.6 27.0 -12.5 26.95 -12.45 26.95 -12.1 26.85 -12.05 26.8 -11.95 26.7 -11.9 26.6 -11.7 26.55 -11.65 26.55 -11.5 26.45 -11.3 26.45 -11.25 26.4 -11.15 26.35 -11.1 27.25 -11.15 27.4 -11.2 27.6 -11.3 27.7 -11.4 27.9 -11.4 28.35 -11.35 28.45 -11.3 28.45 -11.25 28.7 -11.2 28.75 -11.15 28.8 -11.05 28.85 -11.0 28.85 -10.9 28.9 -10.8 28.95 -10.75 28.95 -10.65 M28.85 -0.05 L29.0 -0.1 29.15 -0.25 29.45 -0.35 29.6 -0.35 29.6 -0.4 29.8 -0.4 29.95 -0.35 29.95 -0.25 30.0 -0.2 29.95 -0.1 29.9 -0.05 29.8 -0.05 29.5 0.1 29.3 0.15 29.25 0.2 29.1 0.3 29.1 0.35 29.05 0.35 28.95 0.4 28.8 0.45 28.45 0.55 28.25 0.6 28.2 0.65 28.1 0.7 27.95 0.75 27.95 0.8 27.85 0.9 27.8 0.9 27.65 0.95 27.5 1.05 27.3 1.1 27.15 1.2 27.05 1.25 26.95 1.35 26.95 1.45 26.9 1.5 26.55 1.5 26.4 1.4 26.3 1.35 26.2 1.25 26.0 1.15 25.95 1.1 25.95 1.0 25.9 0.95 25.8 0.9 25.6 0.9 25.5 1.0 25.45 1.0 25.45 1.15 25.4 1.2 25.4 1.3 25.1 1.45 25.0 1.55 24.9 1.6 24.8 1.8 24.6 2.0 24.5 2.2 24.45 2.25 24.45 2.35 24.35 2.4 24.3 2.5 24.15 2.65 24.1 2.75 24.0 2.8 23.85 2.95 23.7 3.0 23.65 3.05 23.55 3.1 23.45 3.1 23.3 3.0 23.25 2.95 23.2 2.85 23.15 2.8 23.15 2.55 23.05 2.45 23.05 2.3 23.0 2.25 23.0 2.15 22.95 2.05 22.95 2.0 22.9 1.9 22.85 1.85 22.85 1.75 22.8 1.65 22.75 1.6 22.7 1.5 22.65 1.45 22.55 1.25 22.5 1.2 22.5 1.05 22.45 0.95 22.45 0.8 22.4 0.7 22.3 0.65 22.25 0.55 22.25 0.4 22.3 0.35 22.3 0.3 22.45 0.3 22.5 0.4 22.5 0.5 22.6 0.55 22.75 0.7 22.85 0.9 22.9 0.95 22.9 1.1 22.95 1.2 23.0 1.25 23.1 1.45 23.15 1.5 23.2 1.6 23.2 1.65 23.3 1.85 23.3 1.9 23.35 2.0 23.35 2.05 23.4 2.15 23.4 2.3 23.45 2.4 23.5 2.45 23.55 2.55 23.7 2.5 23.8 2.45 23.85 2.35 23.95 2.3 24.05 2.1 24.1 2.05 24.15 1.95 24.15 1.9 24.2 1.8 24.5 1.5 24.5 1.4 24.6 1.35 24.65 1.25 24.75 1.15 24.9 1.1 24.95 1.0 25.0 0.95 25.05 0.85 25.25 0.75 25.4 0.8 25.4 0.85 25.45 0.75 25.45 0.7 25.55 0.65 25.8 0.6 25.95 0.65 26.05 0.7 26.1 0.8 26.4 1.1 26.45 1.1 26.7 1.15 26.9 1.05 26.95 0.95 27.05 0.9 27.35 0.7 27.5 0.65 27.65 0.55 27.75 0.5 27.8 0.4 28.25 0.25 28.45 0.15 28.65 0.1 Q28.7 0.05 28.8 0.05 L28.85 -0.05 M37.15 8.7 L37.45 8.6 37.55 8.65 37.55 8.75 37.45 8.85 37.15 9.0 37.0 9.05 36.85 9.15 36.75 9.25 36.4 9.3 36.3 9.35 35.75 9.35 35.6 9.4 35.55 9.45 35.55 9.55 35.5 9.65 35.2 9.75 34.9 9.8 34.8 9.85 34.65 9.85 34.55 9.75 34.45 9.7 34.3 9.6 34.25 9.55 34.1 9.5 34.05 9.45 33.05 9.45 33.0 9.5 32.85 9.55 32.8 9.65 32.5 9.7 32.45 9.75 32.4 9.85 32.35 9.9 32.15 10.0 32.05 10.1 31.85 10.15 31.75 10.2 31.65 10.3 31.55 10.35 30.9 10.35 30.85 10.3 30.9 10.2 30.9 10.05 30.85 9.95 30.75 9.9 30.7 9.8 30.55 9.65 30.5 9.55 30.5 9.4 30.45 9.35 30.4 9.25 30.4 9.0 30.35 8.95 30.3 8.85 30.2 8.8 30.1 8.6 30.05 8.55 30.0 8.45 29.95 8.4 29.95 8.3 29.65 8.0 29.65 7.8 29.95 7.5 29.95 7.2 29.9 7.1 29.85 7.05 29.85 6.85 29.9 6.8 29.9 6.5 29.95 6.45 30.1 6.45 30.15 6.55 30.15 6.8 30.2 6.85 30.2 6.95 30.25 7.05 30.3 7.1 30.3 7.5 30.25 7.6 30.2 7.65 30.2 7.75 30.15 7.8 30.05 8.0 30.15 8.05 30.2 8.15 30.25 8.2 30.35 8.4 30.5 8.55 30.6 8.6 30.6 8.7 30.65 8.8 30.7 8.85 30.7 9.2 30.8 9.25 30.8 9.35 30.85 9.4 30.9 9.5 31.0 9.55 31.0 9.75 31.05 9.8 31.1 9.9 31.1 9.95 31.05 10.05 31.05 10.15 31.5 10.15 31.6 10.05 31.65 9.95 31.75 9.9 32.05 9.8 32.15 9.75 32.2 9.65 32.35 9.5 32.4 9.5 32.45 9.45 32.7 9.4 33.0 9.25 34.1 9.3 34.15 9.35 34.3 9.4 34.35 9.45 34.55 9.45 34.7 9.55 34.9 9.55 35.2 9.5 35.35 9.4 35.35 9.35 35.4 9.25 35.55 9.1 35.75 9.1 36.35 9.05 36.5 9.0 36.7 8.95 36.85 8.85 37.0 8.8 37.15 8.7 M30.95 1.2 L31.0 1.15 31.15 1.15 31.2 1.05 31.35 1.05 31.45 1.1 31.45 2.45 31.5 2.5 31.5 2.55 31.55 2.65 31.55 2.75 31.45 2.85 31.45 3.15 31.35 3.2 30.55 3.3 30.45 3.35 30.05 3.4 30.05 3.6 30.0 3.7 29.95 3.75 29.95 4.25 29.9 4.3 29.9 4.55 29.55 4.55 29.45 4.45 29.45 4.4 29.4 4.4 29.4 4.15 29.45 4.15 29.45 3.7 29.5 3.65 29.5 3.55 29.55 3.45 29.55 3.25 29.6 3.15 29.7 3.1 29.8 3.0 30.25 2.95 30.35 2.9 30.4 2.9 30.45 2.85 30.55 2.85 30.85 2.8 31.0 2.75 31.1 2.65 31.15 2.55 31.15 2.35 31.1 2.3 31.1 2.15 31.05 2.05 31.05 1.6 31.0 1.5 30.9 1.45 30.9 1.25 30.95 1.2 M29.15 4.15 L29.25 4.25 29.25 4.3 29.0 4.3 29.0 4.25 28.45 4.2 28.4 4.2 28.45 4.25 28.85 4.25 29.0 4.3 29.0 4.4 28.95 4.4 28.85 4.45 28.4 4.4 28.35 4.35 26.7 4.4 26.65 4.45 26.65 4.55 26.6 4.6 26.55 4.7 26.5 4.75 26.5 5.1 26.45 5.15 26.3 5.25 26.3 5.3 26.2 5.35 25.15 5.4 25.1 5.45 23.7 5.45 23.65 5.4 23.25 5.35 23.15 5.25 23.0 5.2 23.0 5.15 22.75 5.1 22.55 5.05 22.45 5.0 22.4 4.95 22.2 4.9 22.1 4.85 21.65 4.85 21.65 5.0 21.6 5.1 21.55 5.15 21.55 5.4 21.5 5.5 21.4 5.55 21.4 5.65 21.25 5.7 21.25 5.5 21.2 5.45 21.2 5.35 21.3 5.3 21.3 4.95 21.35 4.9 21.4 4.8 21.4 4.65 21.45 4.55 22.1 4.55 22.25 4.6 22.45 4.65 22.75 4.75 22.8 4.8 23.05 4.85 23.35 5.0 23.7 5.05 23.8 5.1 24.95 5.1 26.25 5.0 26.3 4.95 26.3 4.6 26.4 4.55 26.4 4.45 26.45 4.4 26.45 4.3 26.55 4.2 26.65 4.2 26.65 4.15 28.25 4.2 28.05 4.15 27.95 4.05 27.95 4.0 28.05 4.0 28.1 4.05 28.45 4.05 29.1 4.1 29.15 4.15 M23.15 9.8 L23.15 10.3 23.2 10.35 23.2 11.1 23.25 11.15 23.3 11.25 23.3 11.9 23.35 11.9 23.45 11.85 23.65 11.8 23.85 11.6 24.05 11.55 24.2 11.5 24.55 11.55 24.55 11.45 24.65 11.45 24.65 11.65 24.75 11.7 24.75 11.8 24.7 11.9 24.65 11.95 24.65 12.15 24.55 12.25 24.55 12.3 24.5 12.4 24.45 12.45 24.45 12.6 24.35 12.7 24.3 12.8 24.25 12.85 24.25 14.35 24.6 14.35 25.5 14.3 25.55 14.25 26.0 14.25 26.2 14.35 26.35 14.4 26.65 14.55 26.85 14.6 26.95 14.65 27.25 14.75 27.35 14.8 27.35 14.85 27.6 14.9 27.9 15.05 28.15 15.1 28.25 15.3 28.2 15.35 28.05 15.35 28.05 15.3 27.85 15.2 27.8 15.15 27.65 15.1 27.6 15.05 27.3 15.0 27.25 14.95 27.15 14.9 27.1 14.85 26.9 14.8 26.85 14.75 26.6 14.7 26.5 14.65 26.35 14.6 26.35 14.55 26.3 14.5 26.15 14.45 26.1 14.4 26.0 14.4 25.55 14.45 Q25.5 14.5 25.45 14.5 L24.6 14.5 24.15 14.45 24.15 13.1 24.1 13.2 23.9 13.2 24.0 13.1 24.05 13.0 24.05 12.95 24.1 12.85 24.15 12.8 24.25 12.6 24.3 12.55 24.35 12.45 24.35 12.4 24.45 12.3 24.45 12.25 24.55 12.05 24.55 11.95 24.45 11.95 24.45 11.85 24.1 11.9 23.9 11.95 23.8 12.05 23.6 12.1 23.45 12.2 23.3 12.35 23.05 12.35 22.95 12.25 22.95 11.3 22.9 11.2 22.85 11.15 22.85 10.35 22.9 10.25 22.9 9.8 22.8 9.7 22.8 9.45 22.7 9.4 22.65 9.3 22.6 9.25 22.5 9.05 22.4 9.0 22.3 8.9 22.15 8.85 22.1 8.75 22.1 8.65 22.15 8.6 22.35 8.6 22.4 8.7 22.5 8.8 22.6 8.85 22.75 9.0 22.8 9.1 22.9 9.2 22.9 9.25 22.95 9.35 23.0 9.4 23.0 9.5 23.15 9.65 23.15 9.8 M12.1 2.6 L12.15 2.7 12.15 3.4 12.25 3.45 12.35 3.65 12.4 3.7 12.45 3.8 12.45 3.85 12.55 4.05 12.6 4.1 12.6 4.2 12.7 4.25 12.7 4.6 12.6 4.7 12.5 4.75 12.1 4.75 11.95 4.7 11.55 4.65 11.45 4.6 10.8 4.55 10.7 4.5 9.55 4.45 9.4 4.35 9.3 4.25 9.15 4.25 8.85 4.35 8.6 4.45 8.5 4.5 8.3 4.5 8.25 4.6 7.65 4.6 7.55 4.65 7.35 4.7 7.2 4.75 6.05 4.75 5.9 4.7 5.85 4.6 5.85 4.55 5.9 4.45 5.95 4.4 6.05 4.35 7.15 4.3 7.2 4.25 7.3 4.25 7.5 4.2 7.65 4.15 8.4 4.15 8.4 4.1 8.5 4.1 8.65 4.05 8.7 4.0 8.85 3.9 8.9 3.85 9.45 3.85 9.55 3.9 9.7 4.05 10.7 4.05 10.85 4.1 11.55 4.15 11.7 4.2 12.1 4.25 12.2 4.25 12.2 4.2 12.15 4.15 12.1 4.05 12.1 4.0 12.0 3.9 12.0 3.8 11.95 3.75 11.9 3.65 11.85 3.65 11.85 3.7 11.8 3.75 11.65 3.55 11.85 3.35 11.85 2.6 11.9 2.55 12.0 2.5 12.05 2.5 12.1 2.6 M3.15 1.65 L2.7 1.6 2.65 1.6 2.65 1.7 2.95 1.7 3.15 1.65 M2.3 0.4 L2.2 0.5 2.2 0.55 2.3 0.45 2.4 0.4 2.4 0.35 2.3 0.35 2.3 0.4 M-54.2 -29.25 L-53.95 -29.2 -53.75 -29.15 -53.6 -29.05 -53.45 -28.9 -53.45 -28.8 -53.4 -28.75 -53.4 -28.65 -53.45 -28.6 -53.5 -28.5 -53.5 -28.35 -53.55 -28.25 -53.6 -28.2 -53.6 -28.1 -53.45 -28.05 -53.4 -27.95 -53.3 -27.9 -53.25 -27.85 -53.1 -27.8 -53.1 -27.75 -53.05 -27.7 -53.05 -27.65 -52.9 -27.6 -52.9 -27.5 -52.85 -27.45 -52.7 -27.4 -52.5 -27.3 -52.45 -27.2 -52.45 -26.95 -52.4 -26.9 -52.35 -26.8 -52.25 -26.75 -52.2 -26.65 -52.2 -26.55 -52.1 -26.55 -52.1 -26.6 -51.95 -26.55 -51.7 -26.3 -51.65 -26.2 -51.4 -25.95 -51.4 -25.9 -51.3 -25.85 -51.25 -25.75 -51.25 -25.65 -51.0 -25.65 -50.9 -25.7 -50.75 -25.85 -50.55 -25.95 -50.4 -26.1 -50.3 -26.1 -49.5 -26.15 -49.45 -26.25 -49.3 -26.3 -49.1 -26.4 -49.0 -26.4 -48.9 -26.35 -48.85 -26.3 -48.8 -26.3 -48.65 -26.25 -48.6 -26.15 -48.6 -26.1 -48.55 -26.0 -48.6 -25.95 -48.6 -25.85 -48.75 -25.7 -48.9 -25.65 -49.4 -25.6 -49.55 -25.6 -49.7 -25.55 -49.9 -25.45 -49.95 -25.4 -50.55 -25.4 -50.6 -25.3 -50.7 -25.25 -50.8 -25.15 -50.95 -25.1 -51.0 -25.05 -51.15 -25.0 -51.35 -25.0 -51.5 -25.05 -51.55 -25.15 -51.6 -25.2 -51.6 -25.4 -51.65 -25.45 -51.65 -25.6 -51.75 -25.7 -51.85 -25.75 -51.95 -25.95 -52.2 -26.0 -52.3 -26.05 -52.55 -26.3 -52.6 -26.4 -52.6 -26.45 -52.75 -26.6 -52.8 -26.7 -52.8 -26.85 -52.85 -26.95 -52.95 -27.0 -53.05 -27.1 -53.1 -27.2 -53.2 -27.25 -53.45 -27.5 -53.6 -27.55 -53.75 -27.7 -53.8 -27.7 -53.9 -27.75 -53.95 -27.85 -53.95 -28.5 -53.9 -28.55 -53.85 -28.65 -53.8 -28.7 -53.8 -28.8 -53.85 -28.9 -54.0 -29.05 -54.25 -29.1 -54.3 -29.2 -54.2 -29.2 -54.2 -29.25 M-46.95 -26.6 L-46.9 -26.65 -46.45 -26.7 -46.2 -26.65 -46.1 -26.6 -45.0 -26.6 -44.8 -26.7 -44.65 -26.8 -44.45 -26.9 -43.7 -26.9 -43.5 -27.0 -42.75 -27.05 -42.65 -27.15 -42.55 -27.2 -42.4 -27.3 -42.3 -27.35 -42.25 -27.45 -42.15 -27.5 -42.1 -27.6 -41.8 -27.75 -41.65 -27.9 -41.6 -28.0 -41.5 -28.1 -41.4 -28.15 -41.35 -28.25 -41.1 -28.5 -41.05 -28.5 -40.9 -28.55 -40.85 -28.65 -40.85 -28.7 -40.75 -28.8 -40.65 -28.8 -40.65 -28.85 -40.4 -28.85 -40.3 -28.8 -40.2 -28.7 -40.1 -28.65 -40.05 -28.55 -39.85 -28.5 -39.8 -28.45 -39.5 -28.45 -39.45 -28.5 -39.35 -28.5 -39.15 -28.55 -38.65 -28.6 -38.5 -28.65 -38.3 -28.7 -38.2 -28.75 Q-38.15 -28.8 -38.1 -28.8 L-38.0 -28.85 -37.75 -28.9 -37.65 -28.9 -37.55 -28.95 -37.4 -29.0 -37.35 -29.05 -37.35 -29.2 -37.25 -29.4 -37.25 -29.45 -37.15 -29.55 -37.15 -29.6 -37.05 -29.8 -37.0 -29.85 -37.0 -30.0 -36.95 -30.1 -36.95 -30.2 -36.8 -30.35 -36.7 -30.35 -36.25 -30.4 -36.05 -30.45 -35.3 -30.5 -35.2 -30.5 -35.1 -30.55 -35.0 -30.55 -34.55 -30.65 -34.35 -30.7 -33.9 -30.75 -33.75 -30.8 -33.2 -30.85 -33.1 -30.9 -31.95 -30.9 -31.8 -30.85 -31.75 -30.75 -31.7 -30.7 -31.7 -30.1 -31.75 -30.05 -31.75 -29.9 -31.8 -29.8 -31.75 -29.75 -31.75 -29.65 -31.65 -29.6 -31.6 -29.55 -31.55 -29.45 -31.4 -29.3 -31.3 -29.25 -31.15 -29.2 -29.95 -29.2 -29.8 -29.25 -29.15 -29.25 -28.6 -29.2 -28.5 -29.1 -28.4 -29.05 -28.4 -28.95 -28.35 -28.9 -28.3 -28.9 -28.3 -28.95 -27.7 -28.95 -27.55 -28.9 -27.45 -28.8 -27.35 -28.8 -27.35 -28.75 -27.05 -28.75 -26.9 -28.7 -26.65 -28.7 -26.5 -28.75 -26.4 -28.75 -26.3 -28.7 -26.25 -28.6 -26.2 -28.55 -26.2 -28.45 -26.25 -28.35 -26.25 -28.3 -26.3 -28.25 -26.4 -28.2 -26.45 -28.1 -26.5 -28.05 -26.7 -28.0 -26.75 -27.9 -26.75 -27.75 -26.8 -27.65 -26.85 -27.6 -26.85 -27.4 -27.05 -27.2 -27.1 -27.2 -27.0 -27.1 -27.0 -25.75 -27.1 -25.65 -27.2 -25.6 -27.25 -25.5 -27.3 -25.45 -27.3 -25.35 -27.35 -25.25 -27.4 -25.2 -27.4 -25.05 -27.45 -24.95 -27.6 -24.8 -27.65 -24.7 -27.65 -24.65 -27.75 -24.45 -27.75 -24.3 -27.7 -24.25 -27.55 -24.15 -27.3 -24.1 -27.25 -24.0 -27.25 -23.8 -27.2 -23.75 -27.2 -23.55 -27.25 -23.5 -27.3 -23.4 -27.3 -22.8 -27.35 -22.7 -27.45 -22.7 -27.45 -22.4 -27.4 -22.3 -27.4 -21.5 -27.55 -21.35 -27.55 -21.2 -27.6 -21.1 -27.65 -21.05 -27.65 -20.85 -27.6 -20.8 -27.6 -20.65 -27.45 -20.6 -27.35 -20.6 -27.25 -20.5 -27.15 -20.45 -27.05 -20.35 -26.9 -20.3 -26.8 -20.2 -26.5 -20.15 -26.3 -20.15 -26.2 -20.25 -26.05 -20.3 -26.0 -20.3 -25.9 -20.35 -25.8 -20.35 -25.6 -20.3 -25.5 -20.25 -25.35 -20.2 -25.3 -20.15 -25.35 -20.1 -25.55 -20.05 -25.7 -19.95 -25.75 -19.9 -25.8 -19.9 -25.9 -19.85 -26.05 -19.8 -26.1 -19.75 -26.15 -19.65 -26.2 -19.65 -26.3 -19.6 -26.5 -19.6 -26.65 -19.65 -27.05 -19.85 -27.15 -19.85 -27.3 -19.9 -27.6 -20.2 -28.0 -20.4 -28.0 -20.8 -27.95 -20.9 -27.95 -21.15 -27.9 -21.2 -27.85 -21.3 -27.85 -21.9 -27.75 -22.0 -27.75 -22.35 -27.7 -22.4 -27.7 -22.7 -27.65 -22.8 -27.65 -23.55 -27.6 -23.65 -27.55 -23.7 -27.55 -23.8 -27.5 -23.8 -27.6 -23.85 -27.7 -23.85 -27.7 -23.9 -28.0 -23.95 -28.05 -24.0 -28.05 -24.6 -28.0 -24.65 -28.0 -24.75 -27.95 -24.8 -27.85 -25.0 -27.75 -25.05 -27.75 -25.3 -27.65 -25.4 -27.65 -25.45 -27.6 -25.55 -27.55 -25.6 -27.55 -25.7 -27.45 -25.75 -27.35 -25.85 -27.3 -25.95 -27.3 -26.8 -27.35 -26.9 -27.4 -26.95 -27.55 -27.0 -27.4 -27.15 -27.4 -27.5 -27.35 -27.6 -27.25 -27.7 -27.25 -27.9 -27.2 -28.0 -27.15 -28.05 -27.1 -28.15 -27.05 -28.2 -27.2 -28.25 -27.6 -28.3 -27.7 -28.35 -27.7 -28.3 -27.75 -28.25 -27.75 -28.2 -27.8 -28.15 -27.9 -28.15 -28.1 -28.2 -28.2 -28.25 -28.3 -28.35 -28.45 -28.45 -28.65 -28.65 -28.7 -28.75 -28.7 -28.8 -28.75 -28.9 -29.15 -28.9 -29.65 -28.8 -29.8 -28.75 -31.3 -28.75 -31.4 -28.8 -31.55 -28.95 -31.9 -29.0 -31.95 -29.05 -31.95 -29.35 -32.05 -29.45 -32.05 -29.55 -32.0 -29.6 -32.05 -29.7 -32.05 -29.8 -32.1 -29.85 -32.1 -30.0 -32.15 -30.1 -32.15 -30.35 -33.0 -30.35 -33.1 -30.3 -33.8 -30.25 -33.95 -30.2 -34.5 -30.15 -34.7 -30.1 -35.1 -30.05 -35.2 -30.05 -35.3 -30.0 -35.45 -30.0 -36.2 -29.95 -36.6 -29.85 -36.6 -29.65 -36.65 -29.6 -36.7 -29.5 -36.75 -29.45 -36.75 -29.35 -36.8 -29.25 -36.85 -29.2 -36.9 -29.1 -36.9 -28.9 -36.95 -28.8 -36.95 -28.7 -37.05 -28.65 -37.15 -28.55 -37.25 -28.55 -37.55 -28.45 -37.65 -28.4 -37.75 -28.4 -38.05 -28.35 -38.15 -28.3 -38.2 -28.25 -38.3 -28.2 -38.5 -28.15 -38.6 -28.1 -39.15 -28.1 -39.25 -28.05 -39.35 -28.05 -39.45 -28.0 -40.0 -28.0 -40.2 -28.1 -40.35 -28.15 -40.4 -28.25 -40.5 -28.25 -40.6 -28.15 -40.8 -28.1 -40.85 -28.05 -40.95 -28.0 -41.15 -27.95 -41.3 -27.85 -41.3 -27.8 -41.35 -27.7 -41.6 -27.45 -41.75 -27.4 -41.85 -27.3 -41.95 -27.25 -42.0 -27.15 -42.1 -27.05 -42.4 -26.9 -42.55 -26.85 -42.6 -26.75 -42.65 -26.7 -43.55 -26.7 -43.6 -26.6 -43.7 -26.6 -44.4 -26.55 -44.5 -26.45 -44.6 -26.4 -44.85 -26.3 -45.0 -26.25 -46.2 -26.3 -46.3 -26.35 -46.9 -26.35 -47.0 -26.3 -47.2 -26.25 -47.3 -26.2 -47.45 -26.25 -47.5 -26.35 -47.4 -26.4 -47.3 -26.5 -47.0 -26.55 -46.95 -26.6 M-11.65 -40.75 L-11.15 -40.8 -11.05 -40.85 -10.35 -40.85 -10.3 -40.9 -10.15 -40.95 -10.1 -41.05 -9.4 -41.1 -9.35 -41.15 -8.8 -41.2 -8.7 -41.25 -8.25 -41.2 -8.2 -41.15 -6.45 -41.2 -6.45 -41.25 -6.35 -41.35 -6.25 -41.4 -6.25 -41.45 -6.15 -41.5 -5.75 -41.55 -5.6 -41.55 -5.6 -41.6 -5.25 -41.55 -5.2 -41.5 -5.2 -41.4 -5.05 -41.35 -5.0 -41.25 -5.0 -40.95 -4.95 -40.85 -4.9 -40.8 -4.9 -40.45 -4.8 -40.4 -4.75 -40.3 -4.75 -40.15 -4.7 -40.05 -4.6 -40.0 -4.6 -39.9 -4.5 -39.85 -4.45 -39.75 -4.35 -39.7 -4.25 -39.5 -4.25 -39.45 -4.15 -39.35 -4.15 -39.3 -4.05 -39.1 -4.05 -39.05 -3.9 -39.0 -3.65 -38.75 -3.6 -38.65 -3.55 -38.6 -3.35 -38.6 -3.1 -38.35 -3.05 -38.25 -3.05 -38.2 -3.1 -38.1 -3.15 -38.05 -3.25 -38.05 -3.25 -38.1 -3.3 -38.2 -3.4 -38.25 -3.5 -38.35 -3.5 -38.4 -3.65 -38.45 -3.9 -38.7 -4.0 -38.75 -4.0 -38.85 -4.2 -38.9 -4.2 -38.95 -4.25 -39.05 -4.3 -39.1 -4.3 -39.2 -4.35 -39.3 -4.45 -39.35 -4.45 -39.45 -4.5 -39.5 -4.55 -39.6 -4.55 -39.65 -4.7 -39.7 -4.75 -39.8 -4.95 -40.0 -5.0 -40.1 -5.0 -40.25 -5.05 -40.35 -5.1 -40.4 -5.1 -40.65 -5.15 -40.75 -5.2 -40.8 -5.2 -41.15 -5.35 -41.2 -5.4 -41.25 -5.4 -41.35 -5.6 -41.3 -5.75 -41.25 -6.1 -41.25 -6.1 -41.15 -6.15 -41.1 -6.3 -41.05 -6.35 -40.95 -8.35 -41.0 -8.35 -41.05 -8.7 -41.05 -8.8 -40.95 -9.3 -40.9 -9.35 -40.85 -10.0 -40.8 -10.1 -40.75 -10.3 -40.7 -10.4 -40.65 -10.7 -40.65 -11.05 -40.6 -11.15 -40.5 -11.75 -40.45 -11.9 -40.4 -12.65 -40.35 -12.65 -40.3 -12.8 -40.2 -12.8 -39.95 -12.85 -39.9 -12.85 -39.75 -12.95 -39.55 -13.0 -39.5 -13.05 -39.4 -13.05 -39.35 -13.15 -39.15 -13.15 -39.1 -13.3 -38.95 -13.35 -38.85 -13.35 -38.75 -13.4 -38.7 -13.45 -38.6 -13.45 -38.55 -13.6 -38.45 -13.65 -38.4 -13.65 -38.05 -13.75 -38.0 -13.85 -37.8 -13.85 -37.75 -13.9 -37.65 -14.0 -37.6 -14.2 -37.4 -14.35 -37.35 -14.45 -37.25 -14.55 -37.2 -14.7 -37.1 -14.85 -36.95 -14.9 -36.85 -14.95 -36.8 -14.95 -36.65 -15.0 -36.55 -15.1 -36.55 -15.1 -35.55 -15.05 -35.5 -15.0 -35.4 -15.0 -34.95 -14.9 -34.75 -14.9 -34.6 -14.8 -34.55 -14.8 -34.35 -14.75 -34.3 -14.7 -34.2 -14.65 -34.15 -14.65 -34.05 -14.55 -33.95 -14.45 -33.9 -14.4 -33.8 -14.4 -33.35 -14.45 -33.25 Q-14.5 -33.2 -14.55 -33.2 L-14.65 -33.0 -14.65 -32.85 -14.7 -32.8 -14.75 -32.7 -14.75 -32.6 -14.85 -32.55 -15.05 -32.5 -15.15 -32.45 -15.55 -32.5 -15.6 -32.55 -15.6 -32.65 -16.0 -32.6 -16.1 -32.55 -17.25 -32.6 -17.3 -32.65 -17.45 -32.7 -17.55 -32.75 -18.0 -32.8 -18.15 -32.9 -18.3 -32.95 -18.5 -33.05 -18.6 -33.05 -18.65 -33.15 -18.65 -33.2 -18.6 -33.3 -18.4 -33.3 -18.25 -33.2 -18.1 -33.15 -17.95 -33.05 -17.45 -32.95 -17.35 -32.9 -17.15 -32.85 -17.1 -32.8 -16.05 -32.85 -15.9 -32.9 -15.55 -32.85 -15.45 -32.8 -15.4 -32.75 -15.4 -32.7 -15.15 -32.75 -14.95 -32.85 -14.9 -32.9 -14.85 -33.0 -14.85 -33.15 -14.75 -33.25 -14.75 -33.3 -14.7 -33.4 -14.65 -33.45 -14.65 -33.85 -14.75 -33.95 -14.8 -34.05 -14.8 -34.1 -14.95 -34.25 -14.9 -34.35 -14.9 -34.4 -15.0 -34.6 -15.0 -34.75 -15.05 -34.8 -15.1 -34.9 -15.1 -35.4 -15.15 -35.45 -15.2 -35.55 -15.2 -35.85 -15.25 -35.95 -15.25 -36.9 -15.35 -36.95 -15.35 -37.05 -15.25 -37.1 -15.15 -37.1 -15.1 -37.0 -15.1 -36.95 -15.05 -37.0 -15.05 -37.1 -14.9 -37.25 -14.8 -37.3 -14.65 -37.4 -14.4 -37.65 -14.25 -37.7 -14.15 -37.8 -14.15 -38.05 -14.05 -38.1 -13.9 -38.25 -13.9 -38.45 -13.85 -38.5 -13.8 -38.6 -13.8 -38.65 -13.75 -38.75 -13.6 -38.9 -13.6 -39.0 -13.5 -39.05 -13.5 -39.15 -13.45 -39.2 -13.4 -39.3 -13.25 -39.45 -13.25 -39.55 -13.2 -39.6 -13.15 -39.7 -13.0 -39.85 -13.0 -39.9 -12.9 -40.0 -12.9 -40.3 -12.85 -40.4 -12.85 -40.55 -12.75 -40.65 -11.8 -40.7 -11.65 -40.75 M-21.9 -35.45 L-21.8 -35.35 -21.75 -35.25 -21.7 -35.2 -21.7 -35.05 -21.55 -34.9 -21.5 -34.8 -21.5 -34.7 -21.45 -34.65 -21.45 -34.55 -21.4 -34.5 -21.4 -34.4 -21.35 -34.3 -21.3 -34.25 -21.3 -34.15 -21.25 -34.1 -21.15 -33.9 -21.1 -33.85 -21.1 -33.4 -20.75 -33.35 -20.7 -33.25 -20.6 -33.2 -20.25 -33.15 -20.15 -33.05 -19.8 -33.0 -19.75 -32.95 -19.4 -32.9 -19.35 -32.85 -19.35 -32.65 -19.45 -32.65 -19.45 -32.8 -19.8 -32.85 -19.85 -32.9 -20.2 -32.95 -20.25 -33.0 -20.65 -33.05 -20.7 -33.15 -20.85 -33.2 -20.85 -33.25 -21.25 -33.25 -21.3 -33.35 -21.3 -33.65 -21.45 -33.8 -21.5 -33.9 -21.55 -33.95 -21.55 -34.05 -21.6 -34.15 -21.6 -34.2 -21.65 -34.3 -21.65 -34.35 -21.7 -34.45 -21.7 -34.55 -21.75 -34.6 -21.75 -34.7 -21.9 -34.85 -21.95 -34.95 -22.0 -35.0 -22.0 -35.1 -22.05 -35.15 -22.25 -35.15 -22.4 -35.05 -22.45 -35.0 -22.5 -34.9 -22.6 -34.8 -22.7 -34.75 -22.8 -34.65 -23.0 -34.6 -23.1 -34.55 -23.2 -34.35 -23.25 -34.3 -23.3 -34.2 -23.4 -34.15 -23.45 -34.05 -23.45 -33.95 -23.5 -33.9 -23.55 -33.8 -23.65 -33.75 -23.8 -33.65 -23.85 -33.6 -23.85 -33.5 -23.9 -33.4 -23.95 -33.35 -24.0 -33.25 -24.1 -33.2 -24.25 -33.1 -24.25 -33.0 -24.3 -32.95 -24.35 -32.85 -24.4 -32.8 -24.4 -32.7 -24.5 -32.6 -24.5 -32.55 -24.55 -32.45 -24.6 -32.4 -24.7 -32.2 -24.7 -32.15 -24.75 -32.05 -24.85 -32.05 -24.95 -32.15 -24.95 -32.2 -25.05 -32.1 -25.05 -30.85 -25.1 -30.75 -25.15 -30.7 -25.15 -30.15 -25.25 -29.95 -25.35 -29.85 -25.5 -29.8 -25.55 -29.75 -25.7 -29.7 -25.75 -29.6 -25.9 -29.55 -26.0 -29.5 -26.4 -29.1 -26.55 -29.15 -26.55 -29.2 -26.5 -29.25 -26.3 -29.35 -26.3 -29.5 -26.1 -29.7 -25.95 -29.75 -25.85 -29.85 -25.65 -29.95 Q-25.6 -29.95 -25.55 -30.0 L-25.45 -30.05 -25.45 -30.15 -25.4 -30.2 -25.35 -30.3 -25.35 -30.75 -25.3 -30.85 -25.25 -30.9 -25.25 -32.3 -25.15 -32.35 -25.1 -32.45 -24.95 -32.5 -24.85 -32.6 -24.75 -32.65 -24.7 -32.75 -24.7 -32.85 -24.65 -32.9 -24.6 -33.0 -24.6 -33.05 -24.5 -33.25 -24.3 -33.45 -24.25 -33.55 -24.25 -33.65 -24.15 -33.75 -24.05 -33.75 -24.05 -33.7 -24.1 -33.6 -24.0 -33.65 -24.0 -33.75 -23.95 -33.8 -23.8 -33.9 -23.7 -33.95 -23.7 -34.05 -23.65 -34.15 -23.6 -34.2 -23.55 -34.3 -23.5 -34.35 -23.4 -34.55 -23.4 -34.6 -23.25 -34.75 -22.95 -34.95 -22.9 -35.0 -22.7 -35.1 -22.65 -35.15 -22.55 -35.35 -22.5 -35.4 -22.4 -35.45 -21.9 -35.45 M-17.35 -34.6 L-17.3 -34.7 -17.25 -34.75 -17.2 -34.75 -17.2 -34.8 -16.05 -34.75 -16.0 -34.7 -16.05 -34.6 -17.05 -34.55 -17.1 -34.45 -17.1 -34.35 -17.15 -34.3 -17.2 -34.2 -17.25 -34.15 -17.35 -33.95 -17.5 -33.9 -17.65 -33.8 -17.65 -33.65 -17.7 -33.6 -17.75 -33.65 -17.8 -33.75 -17.85 -33.75 -17.95 -33.85 -17.8 -34.0 -17.8 -34.25 -17.75 -34.3 -17.7 -34.4 -17.7 -34.5 -17.65 -34.55 -17.6 -34.55 -17.35 -34.6 M-17.55 -34.35 L-17.6 -34.25 -17.65 -34.2 -17.65 -34.15 -17.55 -34.15 -17.4 -34.3 -17.4 -34.35 -17.55 -34.35 M-14.2 -28.9 L-14.3 -28.75 -14.3 -28.8 -14.25 -28.9 -14.2 -28.9 M-13.45 -28.45 L-13.35 -28.5 -13.2 -28.55 -13.1 -28.6 -13.1 -28.7 -13.0 -28.8 -12.85 -28.85 Q-12.8 -28.9 -12.75 -28.9 L-12.5 -28.95 -12.4 -29.05 -12.3 -29.1 -12.15 -29.1 -12.15 -29.05 -12.2 -28.95 -12.25 -28.9 -12.3 -28.8 Q-12.4 -28.75 -12.45 -28.7 L-12.45 -28.65 -12.5 -28.55 -12.6 -28.5 -12.75 -28.4 -12.85 -28.35 -12.9 -28.25 -13.05 -28.15 -13.2 -28.1 -13.25 -28.0 -13.35 -27.95 -13.6 -27.9 -13.65 -27.8 -13.75 -27.75 -13.75 -27.65 -13.8 -27.6 -13.85 -27.5 -13.85 -26.5 -13.8 -26.4 -13.8 -25.95 -13.9 -25.85 -13.9 -25.8 -13.85 -25.7 -13.85 -25.55 -13.95 -25.45 -13.95 -25.1 -13.9 -25.0 -13.85 -24.95 -13.85 -24.6 -13.8 -24.55 -13.75 -24.45 -13.75 -24.2 -13.7 -24.15 -13.7 -24.05 -13.65 -24.0 -13.55 -23.8 -13.5 -23.75 -13.45 -23.65 -13.45 -23.6 -13.4 -23.5 -13.4 -23.4 -13.35 -23.35 -13.35 -23.25 -13.3 -23.2 -13.25 -23.2 -13.15 -23.15 -13.1 -23.05 -13.2 -22.95 -13.2 -22.9 -13.15 -22.8 -13.15 -22.7 -13.1 -22.6 -13.05 -22.55 -13.05 -22.45 -13.0 -22.4 -13.0 -22.35 -12.95 -22.35 -12.95 -22.1 -12.85 -22.0 -12.85 -21.55 -12.8 -21.5 -12.8 -21.45 -12.7 -21.25 -12.65 -21.2 -12.65 -21.15 -12.6 -21.05 -12.55 -21.0 -12.45 -20.8 -12.5 -20.75 -12.55 -20.75 -12.7 -20.8 -12.8 -20.9 -12.85 -21.0 -12.85 -21.05 -12.9 -21.15 -12.95 -21.2 -12.95 -21.3 -13.05 -21.4 -13.05 -21.6 -13.1 -21.7 -13.1 -21.75 -13.15 -21.7 -13.2 -21.7 -13.2 -21.9 -13.25 -21.95 -13.25 -22.05 -13.3 -22.1 -13.35 -22.2 -13.4 -22.25 Q-13.4 -22.4 -13.5 -22.55 L-13.6 -22.8 -13.5 -22.7 -13.4 -22.5 -13.4 -22.45 -13.35 -22.35 -13.25 -22.25 -13.3 -22.35 -13.35 -22.4 -13.35 -22.55 -13.45 -22.6 -13.45 -22.8 -13.5 -22.85 -13.55 -22.95 -13.6 -23.0 -13.7 -23.2 -13.75 -23.25 -13.8 -23.35 -13.8 -23.5 -13.85 -23.55 -13.85 -23.4 -13.8 -23.3 -13.8 -23.25 -13.75 -23.15 -13.75 -23.05 -13.85 -23.15 -13.9 -23.25 -13.95 -23.3 -13.95 -23.55 -14.05 -23.65 -14.05 -24.2 -14.1 -24.25 -14.1 -24.45 -14.15 -24.55 -14.15 -24.8 -14.2 -24.9 -14.2 -24.95 -14.25 -25.0 -14.25 -25.6 -14.2 -25.65 -14.2 -25.95 -14.15 -26.05 -14.15 -27.95 -14.1 -28.05 -13.9 -28.1 -13.65 -28.35 -13.45 -28.45 M-12.15 -29.25 L-12.4 -29.35 -12.45 -29.35 -12.4 -29.4 -12.25 -29.4 -12.15 -29.35 -12.15 -29.25 M-6.95 -35.4 L-6.9 -35.35 -6.9 -33.95 -6.1 -33.9 -6.05 -33.85 -6.05 -32.75 -6.15 -32.55 -6.15 -32.4 -6.2 -32.35 -6.2 -32.15 -6.25 -32.1 -6.3 -32.15 -6.35 -32.25 -6.35 -32.75 -6.3 -32.8 -6.25 -32.9 -6.25 -33.7 -6.9 -33.75 -7.05 -33.75 -7.1 -33.85 -7.1 -35.05 -7.2 -35.1 -7.3 -35.0 -7.5 -34.95 -7.7 -34.75 -8.0 -34.6 -8.25 -34.35 -8.45 -34.3 -8.55 -34.3 -8.6 -34.35 -8.5 -34.55 -8.35 -34.6 -8.2 -34.7 -8.15 -34.75 -7.85 -34.95 -7.75 -35.0 -7.65 -35.1 -7.35 -35.25 -7.3 -35.3 -7.1 -35.4 -6.95 -35.4 M-8.65 -34.55 L-8.65 -34.45 -8.7 -34.35 -8.8 -34.3 -8.85 -34.2 -8.95 -34.15 -9.0 -34.05 -9.15 -33.9 -9.15 -33.8 -9.25 -33.75 -9.25 -33.6 -9.3 -33.5 -10.0 -32.8 -10.1 -32.8 -10.4 -32.75 -10.5 -32.55 -10.5 -31.75 -10.55 -31.7 -10.55 -31.35 -10.6 -31.3 -10.65 -31.2 -10.65 -30.9 -10.7 -30.85 -10.75 -30.9 -10.75 -31.3 -10.7 -31.35 -10.7 -32.65 -10.75 -32.75 -10.75 -32.8 -10.7 -32.9 -10.45 -32.95 -10.1 -33.05 -10.0 -33.15 -9.9 -33.2 -9.85 -33.3 -9.75 -33.35 -9.7 -33.45 -9.6 -33.5 -9.5 -33.6 -9.45 -33.7 -9.45 -33.75 -9.3 -33.9 -9.3 -34.0 -9.2 -34.1 -9.1 -34.15 -9.05 -34.25 -8.95 -34.3 -8.9 -34.4 -8.9 -34.5 -8.8 -34.55 -8.75 -34.6 -8.65 -34.6 -8.65 -34.55 M-6.6 -30.15 L-6.3 -30.25 -6.0 -30.4 -5.95 -30.45 -5.95 -30.5 -5.8 -30.55 -5.7 -30.65 -5.6 -30.7 -5.55 -30.8 -5.45 -30.85 -5.45 -31.45 -5.4 -31.5 -5.4 -31.85 -5.35 -31.9 -5.35 -32.95 -5.3 -33.0 -5.15 -33.0 -5.15 -32.95 -5.25 -32.85 -5.25 -31.9 -5.2 -31.85 -5.2 -31.5 -5.15 -31.45 -5.15 -30.85 -5.1 -30.8 -5.1 -30.65 -5.15 -30.55 -5.2 -30.5 -5.35 -30.45 -5.6 -30.2 -5.7 -30.15 -5.75 -30.1 -5.9 -30.0 -5.95 -29.95 -6.1 -29.9 -6.15 -29.85 -6.25 -29.85 -6.45 -29.8 -6.6 -29.7 -6.6 -29.45 -6.65 -29.4 -6.65 -29.05 -6.6 -29.0 -6.55 -28.9 -6.5 -28.85 -6.4 -28.65 -6.4 -28.6 -6.35 -28.5 -6.3 -28.45 -6.25 -28.45 -6.05 -28.4 -5.9 -28.35 -5.85 -28.25 -5.8 -28.2 -5.75 -28.2 -5.6 -28.15 -5.55 -28.05 -5.45 -28.0 -5.35 -27.9 -5.05 -27.8 -4.75 -27.75 -4.55 -27.65 -4.5 -27.55 -4.5 -27.5 -4.4 -27.3 -4.35 -27.25 -4.35 -26.5 -4.4 -26.45 -4.4 -25.75 -4.3 -25.55 -4.3 -25.25 -4.2 -25.15 -4.2 -25.0 -4.15 -24.95 -4.1 -24.85 -4.1 -24.6 -4.0 -24.55 -4.0 -24.45 -3.8 -24.35 -3.65 -24.3 -3.5 -24.2 -3.4 -24.15 -3.35 -24.15 -2.7 -24.1 -2.6 -24.05 -2.05 -24.0 -2.0 -23.9 -1.9 -23.8 -1.9 -23.75 -1.85 -23.65 -1.6 -23.4 -1.5 -23.35 -1.4 -23.25 -1.25 -23.2 -1.15 -23.0 -1.15 -22.95 -1.1 -22.85 -1.05 -22.8 -1.0 -22.7 -1.1 -22.7 -1.25 -22.75 -1.4 -22.9 -1.4 -22.95 -1.55 -23.0 -1.75 -23.2 -1.9 -23.25 -2.05 -23.4 -2.05 -23.5 -2.1 -23.6 -2.2 -23.65 -2.25 -23.7 -2.85 -23.75 -2.9 -23.8 -3.6 -23.85 -3.7 -23.95 -3.85 -24.05 -3.9 -24.1 -4.2 -24.25 -4.25 -24.35 -4.35 -24.45 -4.35 -24.75 -4.45 -24.8 -4.5 -24.9 -4.5 -25.0 -4.55 -25.05 -4.6 -25.15 -4.6 -25.4 -4.65 -25.45 -4.7 -25.55 -4.7 -26.4 -4.75 -26.5 -4.75 -27.05 -4.8 -27.15 -4.85 -27.2 -4.85 -27.35 -5.2 -27.4 -5.35 -27.45 -5.4 -27.5 -5.55 -27.55 -5.6 -27.65 -5.65 -27.7 -5.75 -27.7 -6.05 -27.85 -6.25 -28.05 -6.4 -28.1 -6.5 -28.15 -6.6 -28.25 -6.65 -28.35 -6.65 -28.4 -6.75 -28.5 -6.75 -28.55 -6.8 -28.65 -6.85 -28.7 -6.85 -28.8 -6.9 -28.9 -6.95 -28.95 -6.95 -29.05 -7.05 -29.1 -7.05 -29.2 -7.0 -29.3 -6.95 -29.3 -6.95 -30.0 -6.9 -30.05 -6.9 -30.1 -6.8 -30.1 -6.6 -30.15 M-23.5 -21.35 L-23.4 -21.45 -23.25 -21.5 -23.05 -21.6 -22.9 -21.65 -22.8 -21.75 -22.6 -21.8 -22.2 -21.75 -22.15 -21.7 -22.05 -21.7 -21.55 -21.75 -21.4 -21.85 -21.3 -21.9 -21.2 -21.9 -21.2 -21.95 -20.8 -21.95 -20.65 -21.9 -20.65 -21.8 -20.6 -21.7 -20.65 -21.65 -20.65 -21.55 -20.55 -21.55 -20.45 -21.45 -20.45 -21.05 -20.4 -20.95 -20.4 -20.9 -20.45 -20.8 -20.55 -20.75 -20.55 -20.65 -20.65 -20.55 -20.65 -20.15 -20.6 -20.05 -20.6 -19.8 -20.5 -19.6 -20.45 -19.55 -20.4 -19.45 -20.4 -19.4 -20.35 -19.3 -20.05 -19.0 -20.05 -18.35 -20.1 -18.25 -20.1 -16.85 -20.05 -16.75 -20.05 -16.05 -20.1 -15.95 -20.15 -15.9 -20.3 -15.8 -20.35 -15.75 -20.55 -15.7 -20.6 -15.65 -20.7 -15.6 -20.85 -15.55 -21.05 -15.5 -21.1 -15.45 -21.25 -15.4 -21.3 -15.35 -21.5 -15.25 -21.55 -15.2 -21.95 -15.2 -22.1 -15.25 -22.15 -15.35 -22.15 -15.4 -22.1 -15.5 -22.05 -15.55 -21.95 -15.55 -21.75 -15.6 -21.6 -15.7 -21.55 -15.75 -21.45 -15.8 -21.25 -15.85 -21.1 -15.9 -20.9 -16.0 -20.7 -16.05 -20.55 -16.1 -20.45 -16.2 -20.45 -16.85 -20.4 -16.9 -20.4 -18.2 -20.45 -18.25 -20.45 -18.45 -20.65 -18.45 -20.75 -18.5 -20.75 -18.9 -20.8 -19.0 -20.85 -19.05 -20.9 -19.15 -21.0 -19.2 -21.0 -19.6 -21.1 -19.8 -21.2 -19.85 -21.25 -19.95 -21.3 -20.0 -21.3 -20.1 -21.25 -20.2 -21.2 -20.25 -21.15 -20.35 -21.1 -20.4 -21.0 -20.6 -20.95 -20.65 -20.95 -21.55 -21.25 -21.45 -21.3 -21.35 -22.05 -21.35 -22.35 -21.4 -22.4 -21.45 -22.65 -21.5 Q-22.75 -21.45 -22.8 -21.4 L-22.95 -21.3 -23.1 -21.25 -23.25 -21.15 -23.4 -21.0 -23.65 -20.9 -23.75 -20.85 -23.85 -20.75 -24.05 -20.7 -24.1 -20.65 -24.25 -20.7 -24.3 -20.8 -24.25 -20.85 -23.95 -21.05 -23.85 -21.1 -23.75 -21.2 -23.6 -21.25 -23.5 -21.35 M-23.45 -15.65 L-22.2 -15.6 -22.15 -15.5 -22.15 -15.45 -22.25 -15.35 -23.3 -15.3 -23.3 -15.15 -23.35 -15.05 -23.5 -14.9 -23.55 -14.8 -23.65 -14.75 -23.9 -14.5 -24.0 -14.45 -24.2 -14.25 -24.3 -14.2 -24.45 -14.2 -24.4 -14.25 -24.4 -14.35 -24.35 -14.45 -24.15 -14.65 -24.1 -14.75 -24.0 -14.8 -23.9 -14.9 -23.85 -15.0 -23.75 -15.05 -23.7 -15.15 -23.7 -15.2 -23.6 -15.4 -23.6 -15.55 -23.55 -15.6 -23.45 -15.6 -23.45 -15.65 M-34.75 -1.4 L-33.45 -1.4 -33.35 -1.2 -33.35 -1.15 -33.4 -1.1 -34.55 -1.1 -34.55 -0.6 -34.6 -0.55 -34.6 0.2 -34.4 0.2 -34.35 0.25 -34.3 0.35 -34.3 2.25 -34.35 2.35 -34.4 2.4 -34.4 2.5 -34.45 2.55 -34.55 2.75 -34.6 2.8 -34.6 2.9 -34.65 2.95 -34.7 3.05 -34.7 3.15 -34.75 3.2 -34.7 3.3 -34.65 3.35 -34.45 3.45 -34.3 3.6 -34.25 3.7 -34.25 3.75 -34.1 3.9 -34.05 3.9 -33.9 4.0 -33.85 4.05 -33.85 4.15 -33.55 4.45 -33.5 4.55 -33.5 5.0 -33.55 5.1 -33.55 5.15 -33.6 5.25 -33.6 5.35 -33.5 5.4 Q-33.45 5.45 -33.4 5.5 L-33.25 5.55 -33.15 5.6 -33.1 5.65 -33.0 5.65 -32.85 5.75 -31.1 5.8 -30.95 5.85 Q-30.9 5.85 -30.8 5.9 L-30.65 6.05 -30.6 6.15 -30.6 6.65 -30.5 6.7 -30.5 6.8 -30.45 6.85 -30.45 7.05 -30.4 7.1 -30.35 7.2 -30.35 7.25 -30.3 7.35 -30.2 7.4 -30.15 7.5 -30.15 7.6 -30.1 7.65 -30.1 7.9 -30.05 7.95 -30.05 8.0 -29.9 8.0 -29.8 8.05 -29.65 8.2 -29.65 8.3 -28.2 8.35 -27.55 8.3 -27.35 8.25 -26.85 8.25 -26.7 8.3 -26.65 8.4 -26.6 8.45 -26.55 8.55 -26.4 8.7 -26.35 8.8 -26.25 8.85 -25.95 8.85 -25.8 8.8 -25.55 8.8 -25.45 8.85 -25.25 9.05 -25.15 9.1 -25.1 9.15 -24.05 9.1 -23.85 9.05 -23.6 9.0 -23.45 8.95 -23.35 8.95 -23.2 9.0 -23.15 9.1 -23.1 9.1 -23.05 9.15 -22.95 9.35 -22.85 9.4 -22.8 9.5 -22.7 9.55 -22.5 9.75 -22.35 9.8 -22.25 9.85 -22.1 10.0 -21.95 10.1 -21.9 10.2 -21.8 10.2 -21.7 10.1 -21.65 10.0 -21.55 9.95 -21.5 9.85 -21.4 9.8 -21.15 9.55 -21.0 9.45 -20.9 9.4 -20.75 9.25 -20.55 9.15 -20.15 8.75 -20.0 8.65 -19.95 8.6 -19.8 8.55 -19.75 8.5 -18.75 8.5 -18.65 8.55 -18.45 8.6 -18.3 8.65 -18.25 8.75 -18.15 8.8 -18.1 8.7 -17.9 8.5 -17.9 8.4 -17.85 8.35 -17.8 8.35 -17.7 8.3 -17.4 8.3 -17.2 8.25 -17.1 8.2 -16.85 8.2 -16.85 8.15 -16.7 8.15 -16.65 8.25 -16.65 8.35 -16.6 8.4 -16.65 8.5 -16.75 8.55 -17.1 8.6 -17.2 8.65 -17.4 8.65 -17.6 8.7 -17.65 8.8 -17.65 8.9 -17.75 8.95 -17.8 9.05 -17.85 9.1 -18.05 9.2 -18.35 9.2 -18.5 9.15 -18.55 9.05 -18.55 9.0 -18.65 9.0 -18.8 8.95 -19.3 8.9 -19.6 8.95 -19.65 9.05 -19.7 9.1 -19.75 9.2 -19.95 9.3 -20.05 9.4 -20.15 9.45 -20.2 9.55 -20.45 9.8 -20.6 9.85 -20.7 9.9 -20.75 10.0 -20.9 10.15 -21.0 10.2 -21.15 10.25 -21.2 10.35 -21.3 10.4 -21.35 10.5 -21.45 10.6 -21.55 10.65 -21.65 10.75 -22.05 10.75 -22.2 10.7 -22.3 10.65 -22.35 10.55 -22.35 10.45 -22.55 10.25 -22.7 10.15 -22.8 10.1 -22.85 10.0 -23.1 9.75 -23.2 9.7 -23.25 9.6 -23.35 9.5 -23.55 9.6 -23.85 9.65 -23.95 9.7 -25.25 9.7 -25.4 9.65 -25.5 9.55 -25.65 9.5 -25.7 9.4 -25.75 9.35 -26.4 9.35 -26.55 9.3 -26.65 9.25 -26.75 9.15 -26.8 9.05 -26.9 9.0 -26.95 8.9 -26.95 8.85 -27.0 8.8 -27.0 8.75 -27.2 8.75 -27.2 8.9 -27.25 8.95 -27.3 9.05 -27.5 9.1 -27.55 9.15 -27.7 9.2 -28.35 9.25 -28.55 9.3 -29.0 9.35 -29.15 9.4 -30.0 9.4 -30.2 9.35 -30.25 9.3 -30.3 9.2 -30.3 8.8 -30.4 8.8 -30.45 8.7 -30.45 8.4 -30.5 8.4 -30.6 8.3 -30.6 7.75 -30.65 7.65 -30.65 7.6 -30.75 7.4 -30.8 7.35 -30.8 7.3 -30.85 7.25 -30.85 7.2 -30.9 7.1 -30.9 6.95 -30.85 6.95 -30.9 6.85 -30.9 6.4 -30.95 6.3 -32.9 6.3 -33.2 6.2 -33.3 6.3 -33.35 6.4 -33.4 6.45 -33.45 6.55 -33.75 6.85 -33.8 6.95 -33.8 7.05 -33.85 7.1 -33.9 7.2 -33.9 7.25 -33.95 7.35 -34.0 7.4 -34.05 7.5 -34.05 7.9 -34.1 8.0 -34.1 8.6 -34.05 8.7 -34.05 8.85 -34.0 8.95 -34.0 9.0 -33.95 9.1 -33.95 9.25 -34.0 9.35 -34.05 9.4 -34.15 9.4 -34.85 9.45 -35.0 9.5 -35.1 9.5 -35.65 9.55 -35.55 9.75 -35.55 9.9 -35.5 9.95 -35.45 10.05 -35.45 11.65 -35.4 11.7 -35.35 11.8 -35.35 11.95 -35.3 12.05 -35.3 12.1 -35.25 12.2 -35.25 12.3 -35.2 12.35 -35.2 12.45 -35.15 12.5 -35.05 12.7 -35.05 12.9 -35.0 13.0 -35.0 13.05 -34.9 13.15 -34.85 13.25 -34.85 13.3 -34.8 13.4 -34.75 13.45 -34.75 13.8 -34.8 13.85 -34.9 13.9 -35.3 13.95 -35.3 14.3 -35.75 14.45 -35.8 14.4 -36.0 14.45 -36.0 15.15 -35.95 15.2 -35.9 15.3 -35.9 16.2 -35.85 16.25 -35.7 16.3 -35.65 16.4 -35.6 16.45 -35.5 16.65 -35.5 16.7 -35.35 16.85 -35.35 17.35 -35.4 17.4 -35.55 17.5 -35.65 17.55 -35.85 17.6 -35.95 17.65 -36.3 17.7 -36.0 17.8 -35.95 17.9 -35.85 17.95 -35.85 18.0 -35.6 18.05 -35.5 18.1 -35.35 18.25 -35.2 18.1 -35.1 18.1 -34.8 18.05 -34.7 18.0 -34.3 18.0 -34.25 18.1 -34.2 18.15 -34.2 18.65 -34.15 18.7 -34.15 18.8 -34.1 18.9 -34.1 18.95 -34.05 19.05 -34.05 19.1 -34.0 19.2 -34.0 19.35 -33.85 19.5 -33.8 19.6 -33.8 19.75 -33.75 19.85 -33.7 19.9 -33.7 19.95 -33.45 20.0 -33.3 20.1 -33.2 20.15 -33.2 20.2 -32.95 20.25 -32.85 20.3 -32.8 20.4 -32.75 20.45 -32.75 21.05 -32.65 21.1 -32.65 21.45 -32.5 21.45 -32.5 21.7 -32.45 21.8 -32.45 23.25 -32.5 23.3 -32.45 23.35 -32.45 23.45 -32.3 23.45 -32.2 23.5 -32.2 23.7 -32.15 23.75 -32.1 23.85 -32.05 23.9 -32.0 24.0 -32.0 24.1 -31.95 24.15 -31.95 24.25 -31.9 24.3 -31.8 24.5 -31.75 24.55 -31.75 24.65 -31.7 24.7 -31.6 24.9 -31.6 24.95 -31.55 25.05 -31.5 25.1 -31.45 25.2 -31.45 25.45 -31.35 25.5 -31.25 25.6 -31.25 26.0 -31.3 26.05 -31.35 26.15 -31.3 26.25 -31.15 26.3 -31.05 26.35 -30.7 26.4 Q-30.65 26.45 -30.55 26.5 L-30.4 26.55 -30.25 26.65 -30.2 26.75 -30.2 26.9 -30.1 26.95 -30.0 27.05 -29.9 27.1 -29.8 27.2 Q-29.75 27.2 -29.75 27.25 L-29.35 27.3 -29.3 27.4 -29.3 27.65 -29.25 27.7 -29.2 27.8 -29.1 27.85 -29.1 27.95 -29.05 28.05 -29.0 28.1 -29.0 28.2 -28.95 28.25 -28.85 28.45 -28.8 28.5 -28.75 28.6 -28.75 28.65 -28.65 28.75 -28.65 28.85 -28.6 28.9 -28.55 29.0 -28.55 29.45 -28.5 29.5 -28.45 29.6 -28.45 29.85 -28.3 30.0 -28.1 30.05 -28.0 30.25 -27.85 30.4 -27.75 30.45 -27.55 30.65 -27.45 30.7 -27.2 30.95 -27.15 31.05 -27.05 31.1 -26.8 31.35 -26.75 31.45 -26.65 31.5 -26.55 31.6 -26.45 31.65 -26.3 31.75 -26.3 31.8 -26.25 31.9 -26.25 32.0 -26.1 32.15 -25.95 32.2 -25.85 32.3 -25.8 32.4 -25.75 32.45 -25.85 32.5 -25.9 32.4 -26.0 32.35 -26.1 32.25 -26.25 32.2 -26.35 32.1 -26.45 32.05 -26.45 31.95 -26.6 31.9 -26.75 31.8 -26.8 31.7 -26.9 31.65 -26.95 31.55 -27.05 31.5 -27.15 31.4 -27.2 31.3 -27.3 31.25 -27.35 31.15 -27.45 31.1 -27.55 31.0 -27.6 30.9 -27.7 30.85 -27.8 30.75 -27.95 30.7 -28.05 30.6 -28.1 30.5 -28.15 30.45 -28.15 30.35 -28.2 30.3 -28.4 30.2 -28.55 30.15 -28.65 30.05 -28.65 29.75 -28.7 29.65 -28.7 29.0 -28.95 28.75 -28.95 28.55 -29.1 28.4 -29.15 28.3 -29.15 28.15 -29.3 28.0 -29.4 27.8 -29.45 27.75 -29.45 27.5 -29.85 27.4 -29.95 27.35 -30.0 27.25 -30.1 27.2 -30.25 27.05 -30.4 27.0 -30.45 26.9 -30.55 26.85 -30.65 26.75 -30.75 26.7 -30.8 26.7 -31.15 26.65 -31.45 26.45 -31.6 26.4 -31.65 26.3 -31.65 26.05 -31.6 26.0 -31.55 25.9 -31.55 25.75 -31.6 25.65 -31.7 25.6 -31.75 25.5 -31.75 25.35 -31.8 25.25 -31.8 25.2 -31.9 25.1 -31.9 25.05 -31.95 24.95 -32.0 24.9 -32.05 24.8 -32.05 24.7 -32.1 24.65 -32.15 24.55 -32.2 24.5 -32.2 24.4 -32.25 24.3 -32.3 24.25 -32.3 24.15 -32.35 24.1 -32.4 24.0 -32.4 24.05 -32.45 24.1 -32.5 24.05 -32.5 23.8 -32.55 23.75 -32.6 23.65 -32.65 23.6 -32.65 23.4 -32.75 23.35 -32.8 23.25 -32.8 23.2 -32.9 23.0 -32.9 22.95 -32.95 22.95 -32.95 22.6 -33.0 22.55 -33.0 20.7 -33.1 20.6 -33.1 20.55 -33.4 20.5 -33.45 20.4 -33.5 20.35 -33.55 20.35 -33.9 20.3 -34.0 20.2 -34.0 20.15 -34.1 19.95 -34.1 19.8 -34.15 19.75 -34.25 19.55 -34.3 19.5 -34.3 19.25 -34.35 19.15 -34.4 19.1 -34.4 18.95 -34.5 18.85 -34.5 18.8 -34.55 18.7 -34.55 18.3 -34.7 18.35 -34.8 18.4 -35.1 18.45 -35.2 18.55 -35.2 18.6 -35.25 18.7 -35.25 18.8 -35.3 18.8 -35.3 18.9 -35.25 18.9 -35.2 19.0 -35.2 19.7 -35.15 19.8 -35.1 19.85 -35.05 19.95 -35.0 20.0 -34.95 20.1 -34.8 20.25 -34.8 21.7 -34.85 21.75 -34.9 21.85 -34.9 22.0 -34.95 22.1 -34.95 22.5 -34.85 22.55 -34.85 23.75 -34.95 23.8 -34.95 24.45 -34.9 24.55 -34.8 24.6 -34.75 24.7 -34.75 24.85 -34.7 24.95 -34.7 26.35 -34.65 26.45 -34.65 26.5 -34.55 26.6 -34.55 26.7 -34.4 26.85 -34.35 26.85 -34.05 27.0 -33.95 27.1 -33.9 27.2 -33.85 27.25 -33.75 27.3 -33.65 27.4 -33.55 27.45 -33.45 27.65 -33.45 27.8 -33.35 27.85 -33.35 28.05 -33.2 28.2 -33.05 28.25 -32.9 28.35 -32.8 28.45 -32.7 28.5 -32.6 28.6 -32.45 28.65 -32.35 28.75 -32.2 28.85 -32.1 28.9 -31.85 29.15 -31.7 29.2 -31.6 29.3 -31.55 29.4 -31.45 29.45 -31.35 29.55 -31.25 29.6 -31.15 29.7 -31.1 29.8 -31.05 29.85 -31.0 29.95 -30.9 30.0 -31.05 30.05 -31.1 29.95 -31.15 29.9 -31.2 29.8 -31.25 29.75 -31.4 29.65 -31.5 29.55 -31.6 29.5 -31.7 29.4 -31.8 29.35 -31.95 29.25 -32.2 29.0 -32.35 28.95 -32.55 28.75 -32.75 28.7 -32.8 28.6 -32.9 28.55 -33.0 28.45 -33.15 28.4 -33.3 28.3 Q-33.35 28.25 -33.4 28.2 L-33.5 28.15 -33.5 28.05 -33.55 28.0 -33.6 27.9 -33.6 27.8 -33.65 27.75 -33.7 27.65 -33.8 27.6 -33.9 27.5 -34.0 27.45 -34.05 27.45 -34.2 27.4 -34.25 27.35 -34.4 27.3 -34.8 27.1 -34.9 27.0 -35.35 26.85 -35.45 26.8 -35.5 26.7 -35.5 26.45 -35.45 26.4 -35.4 26.3 -35.4 26.25 -35.35 26.15 -35.25 26.05 -35.25 25.45 -35.35 25.25 -35.35 24.9 -35.3 24.8 -35.3 24.5 -35.25 24.4 -35.25 23.7 -35.15 23.5 -35.15 22.55 -35.1 22.5 -35.1 21.75 -35.05 21.7 -35.0 21.6 -35.0 20.4 -35.05 20.35 -35.1 20.25 -35.15 20.2 -35.2 20.1 -35.35 19.95 -35.35 19.85 -35.45 19.8 -35.45 19.05 -35.5 19.05 -35.55 19.0 -35.55 18.45 -35.7 18.35 -35.8 18.3 -36.05 18.25 -36.1 18.15 -36.2 18.1 -36.3 18.0 -36.45 17.95 -36.65 17.75 -36.7 17.75 -36.8 17.8 -36.75 17.85 -36.95 17.85 -37.05 17.75 -37.05 17.55 -37.0 17.5 -37.0 17.45 -36.9 17.4 -36.85 17.4 -36.8 17.35 -35.95 17.3 -35.85 17.25 -35.7 17.2 -35.7 16.85 -35.75 16.8 -35.8 16.7 -35.85 16.65 -35.9 16.55 -35.9 16.45 -36.0 16.4 -36.05 16.3 -36.0 16.25 -36.0 15.45 -36.1 15.25 -36.1 14.3 -36.05 14.25 -35.75 14.2 -35.65 14.15 -35.55 14.05 -35.55 13.8 -35.45 13.75 -35.4 13.7 -35.3 13.65 -35.05 13.6 -35.15 13.5 -35.15 13.3 -35.25 13.2 -35.25 13.05 -35.3 12.95 -35.35 12.9 -35.35 12.8 -35.4 12.75 -35.5 12.55 -35.55 12.5 -35.55 12.4 -35.6 12.35 -35.6 12.25 -35.65 12.15 -35.65 12.1 -35.7 12.0 -35.7 11.85 -35.75 11.75 -35.8 11.7 -35.85 11.6 -35.85 10.35 -35.9 10.25 -35.95 10.2 -35.95 10.0 -36.0 9.95 -36.05 9.85 -36.05 9.7 -36.1 9.65 -36.2 9.45 -36.2 9.3 -36.05 9.15 -35.1 9.1 -35.0 9.05 -34.9 9.05 -34.3 9.0 -34.3 8.85 -34.25 8.75 -34.25 8.6 -34.2 8.5 -34.2 8.05 -34.25 7.95 -34.25 7.4 -34.2 7.3 -34.2 7.25 -34.25 7.15 -34.25 6.85 -34.2 6.75 -34.1 6.7 -34.0 6.6 -34.05 6.5 -34.05 6.35 -34.0 6.3 -34.0 6.2 -33.95 6.15 -33.9 6.05 -33.85 6.0 -33.7 5.95 -33.7 5.9 -33.85 5.9 -34.0 5.85 -34.1 5.75 -34.15 5.65 -34.2 5.6 -34.2 5.3 -34.1 5.1 -34.1 5.05 -34.05 4.95 -34.0 4.9 -33.95 4.8 -34.0 4.7 -34.15 4.55 -34.15 4.5 -34.25 4.3 -34.3 4.25 -34.35 4.25 -34.5 4.2 -34.65 4.05 -34.7 3.95 -34.7 3.85 -35.0 3.7 -35.25 3.45 -35.3 3.35 -35.3 3.15 -35.2 2.95 -35.15 2.9 -35.1 2.8 -35.05 2.75 -35.0 2.65 -34.85 2.5 -34.8 2.4 -34.75 2.35 -34.75 2.25 -34.7 2.15 -34.65 2.1 -34.65 0.5 -34.75 0.5 -34.8 0.4 -34.8 -1.35 -34.75 -1.4 M-25.1 -11.55 L-25.15 -11.45 -25.15 -11.3 -25.2 -11.2 -25.25 -11.15 -25.4 -11.1 -25.4 -10.95 -25.45 -10.85 -25.55 -10.75 -25.5 -10.65 -25.45 -10.6 -25.45 -10.4 -25.55 -10.35 -25.6 -10.25 -25.7 -10.2 -25.75 -10.1 -25.8 -10.05 -25.85 -9.95 -26.0 -9.8 -26.05 -9.7 -26.05 -9.65 -26.1 -9.55 -26.1 -9.25 -26.15 -9.15 -26.15 -8.65 -26.25 -8.6 -26.3 -8.5 -26.4 -8.45 -26.45 -8.35 -26.4 -8.25 -26.4 -7.4 -26.45 -7.3 -26.6 -7.15 -26.75 -7.1 -27.15 -7.05 -27.2 -7.0 -27.25 -6.9 -27.35 -6.8 -27.45 -6.75 -27.45 -6.6 -27.55 -6.5 -27.55 -5.65 -27.6 -5.55 -27.6 -5.5 -27.7 -5.4 -27.8 -5.4 -29.25 -5.35 -29.4 -5.3 -30.35 -5.3 -30.45 -5.35 -30.55 -5.45 -30.7 -5.5 -30.85 -5.5 -31.35 -5.4 -31.4 -5.35 -31.5 -5.35 -31.7 -5.3 -31.7 -3.7 -31.75 -3.6 -31.8 -3.55 -31.8 -2.95 -31.85 -2.9 -31.9 -2.8 -31.95 -2.75 -32.05 -2.55 -32.1 -2.5 -32.25 -2.45 -32.4 -2.5 -32.45 -2.55 -32.45 -2.75 -32.4 -2.8 -32.35 -2.9 -32.35 -2.95 -32.25 -3.05 -32.25 -3.75 -32.15 -3.95 -32.15 -5.6 -32.1 -5.7 -32.05 -5.75 -31.55 -5.75 -31.25 -5.85 -31.2 -5.9 -30.65 -5.9 -30.5 -5.85 -30.35 -5.85 -30.2 -5.8 -29.9 -5.75 -29.45 -5.8 -29.3 -5.85 -28.05 -5.9 -28.05 -6.65 -28.0 -6.7 -27.95 -6.8 -27.9 -6.85 -27.9 -7.05 -27.8 -7.15 -27.9 -7.25 -27.9 -7.4 -27.8 -7.5 -27.7 -7.55 -26.85 -7.6 -26.85 -8.2 -26.95 -8.3 -26.95 -8.6 -26.9 -8.7 -26.85 -8.75 -26.85 -8.8 -26.75 -8.8 -26.45 -8.85 -26.45 -9.15 -26.4 -9.25 -26.35 -9.3 -26.3 -9.4 -26.3 -9.55 -26.35 -9.65 -26.35 -9.8 -26.3 -9.85 -26.25 -9.95 -26.25 -10.05 -26.15 -10.1 -25.85 -10.4 -25.8 -10.5 -25.75 -10.55 -25.75 -10.7 -25.7 -10.8 -25.65 -10.85 -25.65 -10.95 -25.55 -11.05 -25.55 -11.1 -25.5 -11.2 -25.35 -11.35 -25.3 -11.45 -25.3 -11.6 -25.2 -11.65 -25.15 -11.7 -25.1 -11.7 -25.1 -11.55 M-13.95 -23.95 L-13.95 -23.7 -13.9 -23.65 -13.85 -23.75 -13.85 -23.8 -13.95 -24.0 -13.95 -23.95 M-10.95 1.45 L-10.9 1.4 -10.9 1.25 -10.85 1.2 -10.8 1.2 -10.7 1.4 -10.7 1.45 -10.75 1.55 -10.8 1.6 -10.8 1.7 -10.85 1.8 -10.9 1.85 -10.9 2.0 -11.05 2.15 -11.15 2.35 -11.15 2.55 -11.25 2.75 -11.3 2.8 -11.35 2.9 -11.35 2.95 -11.45 3.15 -11.45 3.35 -11.55 3.55 -11.65 3.65 -11.75 3.6 -11.7 3.55 -11.7 3.45 -11.65 3.35 -11.65 3.15 -11.6 3.05 -11.6 2.95 -11.55 2.9 -11.55 2.8 -11.5 2.75 -11.5 2.65 -11.45 2.55 -11.4 2.5 -11.35 2.4 -11.35 2.35 -11.3 2.25 -11.3 2.15 -11.25 2.1 -11.2 2.0 -11.15 1.95 -11.15 1.8 -11.05 1.6 -11.05 1.55 -10.95 1.45 M-11.55 5.55 L-11.6 5.6 -11.6 5.7 -11.65 5.8 -11.7 5.85 -11.75 5.85 -11.9 5.9 -12.2 6.05 -12.35 6.15 -12.35 7.3 -12.4 7.4 -12.4 7.5 -12.45 7.55 -12.45 9.25 -12.5 9.3 -12.55 9.4 -12.55 9.65 -12.6 9.7 -12.6 9.8 -12.65 9.85 -12.65 10.0 -12.75 10.2 -12.75 10.35 -12.8 10.4 -12.9 10.6 -13.0 10.65 -13.15 10.7 -13.25 10.7 -13.4 10.65 -13.7 10.65 -13.85 10.6 -13.95 10.4 -14.15 10.35 -14.3 10.25 -14.35 10.2 -14.55 10.2 -14.65 10.15 -14.75 10.05 -14.9 9.95 -15.05 9.9 -15.15 9.85 -15.3 9.8 -15.35 9.7 -15.35 9.55 -15.15 9.45 -14.95 9.45 -14.8 9.5 -14.75 9.55 -14.6 9.65 -14.5 9.7 -14.5 9.75 -14.3 9.75 -14.2 9.8 -14.1 9.9 -14.0 9.95 -13.9 9.95 -13.75 10.0 -13.7 10.1 -13.6 10.1 -13.55 10.15 -13.35 10.1 -13.35 10.0 -13.3 9.95 -13.25 9.85 -13.25 9.7 -13.2 9.65 -13.2 9.55 -13.15 9.45 -13.15 9.25 -13.05 9.15 -13.05 9.05 -13.0 9.0 -13.0 7.25 -12.95 7.15 -12.9 7.1 -12.9 5.75 -12.75 5.6 -12.6 5.55 -12.35 5.5 -12.3 5.45 -12.2 5.4 -12.05 5.35 -11.95 5.15 -11.95 4.3 -11.85 4.2 -11.85 4.0 -11.75 3.9 -11.7 3.8 -11.65 3.8 -11.6 3.85 -11.5 4.05 -11.5 4.35 -11.55 4.45 -11.6 4.5 -11.6 5.3 -11.55 5.4 -11.55 5.55 M-35.0 26.4 L-35.05 26.5 -34.95 26.6 -34.95 26.4 -34.9 26.3 -35.0 26.4" fill="#ffffff" fill-rule="evenodd" stroke="none"/>
  </g>
</svg>
