<?xml version="1.0" encoding="UTF-8" standalone="no"?>
<svg xmlns:ffdec="https://www.free-decompiler.com/flash" xmlns:xlink="http://www.w3.org/1999/xlink" ffdec:objectType="shape" height="11.05px" width="13.65px" xmlns="http://www.w3.org/2000/svg">
  <g transform="matrix(1.0, 0.0, 0.0, 1.0, 3.0, 6.05)">
    <path d="M2.45 -0.05 Q2.4 0.0 2.4 -0.1 2.4 -0.25 2.8 -0.45 3.15 -0.65 3.35 -0.7 3.4 -0.65 3.35 -0.55 L3.8 -0.65 3.9 -0.65 3.9 -0.6 3.85 -0.5 3.85 -0.3 3.9 -0.25 Q4.4 -0.3 5.15 -0.85 L6.05 -1.55 6.05 -1.5 6.45 -2.0 Q7.0 -2.55 7.0 -2.85 L6.95 -2.9 Q6.9 -2.9 6.9 -2.95 6.9 -3.05 7.05 -3.05 L7.1 -3.05 7.2 -3.15 Q7.35 -3.1 7.6 -3.35 L7.9 -3.35 Q7.95 -3.25 8.0 -3.05 8.0 -2.85 8.05 -2.75 8.15 -2.55 8.4 -2.45 L8.55 -2.35 8.8 -2.25 9.0 -2.05 Q9.1 -2.05 9.15 -1.95 9.3 -1.8 9.3 -1.6 L9.2 -1.25 9.2 -1.1 9.15 -1.0 9.15 -0.85 Q9.1 -0.7 8.85 -0.6 8.6 -0.45 8.6 -0.2 L8.65 -0.15 8.6 -0.1 8.65 0.0 8.65 0.05 8.6 0.05 8.65 0.25 8.65 0.3 Q8.75 0.55 8.75 0.75 8.75 1.1 8.6 1.4 8.45 1.75 8.3 1.85 L8.2 1.9 8.15 1.9 8.05 1.95 Q7.75 2.1 7.6 2.1 L7.25 2.15 7.15 2.15 Q7.1 2.4 6.8 2.7 L6.65 3.0 Q6.5 3.15 6.35 3.2 6.05 3.35 5.75 3.35 L5.15 3.3 5.0 3.2 4.9 3.2 4.5 3.25 4.45 3.25 4.25 3.35 4.15 3.45 4.2 3.55 Q4.2 3.85 3.8 4.35 3.25 5.0 2.4 5.0 1.8 5.0 1.35 4.75 1.1 4.6 1.05 4.5 L0.8 4.25 Q0.4 3.85 -0.25 3.85 L-0.85 3.9 -0.9 3.95 -1.7 3.95 Q-1.85 3.95 -1.85 3.9 -1.85 3.85 -2.0 3.85 L-2.05 3.75 -2.15 3.7 -2.95 3.9 -3.0 3.9 Q-2.75 3.65 -2.45 3.4 -2.35 3.35 -2.2 3.3 -2.05 3.15 -1.7 2.95 L-0.95 2.6 0.4 1.8 Q1.55 1.05 1.95 0.75 2.5 0.25 2.55 -0.15 L2.45 -0.05 M9.25 -5.0 L9.35 -4.8 9.35 -4.7 9.4 -4.55 Q9.4 -4.45 9.55 -4.4 L9.9 -4.4 Q10.3 -4.1 10.4 -3.7 10.45 -3.55 10.45 -3.0 10.45 -2.9 10.3 -2.7 10.15 -2.55 10.0 -2.55 9.9 -2.55 9.8 -2.65 L9.8 -2.8 Q9.8 -2.9 9.85 -2.9 L10.0 -2.95 10.0 -3.15 9.95 -3.15 9.95 -3.2 9.9 -3.25 9.9 -3.3 9.75 -3.45 9.65 -3.45 Q9.55 -3.45 9.5 -3.7 L9.5 -4.1 9.35 -4.3 Q9.25 -4.45 9.25 -4.55 9.25 -4.65 9.2 -4.8 9.1 -4.95 8.95 -5.0 L8.8 -5.05 Q8.55 -4.85 8.5 -4.85 L8.3 -4.85 8.2 -4.95 8.1 -4.95 7.9 -4.65 7.45 -4.6 7.35 -4.5 Q7.3 -4.35 7.3 -4.3 7.3 -4.25 7.2 -4.25 L7.05 -4.35 Q7.05 -4.4 7.05 -4.45 7.05 -4.5 7.1 -4.6 L7.1 -4.65 Q7.1 -4.7 7.15 -4.75 L7.25 -4.85 Q7.55 -4.95 7.65 -5.15 L7.75 -5.4 Q7.85 -5.5 8.05 -5.55 8.25 -5.6 8.35 -5.8 9.0 -5.75 9.15 -5.55 L9.35 -5.2 9.25 -5.0 M8.9 -4.45 L9.05 -4.15 9.0 -4.05 8.85 -4.05 8.85 -4.2 8.75 -4.3 Q8.7 -4.35 8.7 -4.4 8.7 -4.5 8.8 -4.5 8.85 -4.5 8.9 -4.45 M9.35 -4.55 L9.35 -4.5 9.3 -4.65 9.35 -4.55 M7.25 -4.15 Q7.35 -4.1 7.25 -4.1 L7.25 -3.95 7.15 -3.95 Q7.1 -4.0 7.1 -4.15 L7.15 -4.15 7.1 -4.2 7.2 -4.25 Q7.25 -4.25 7.25 -4.15 M9.95 -2.75 L9.95 -2.75 M9.4 -3.0 L9.5 -3.0 9.6 -2.45 Q9.6 -2.35 9.55 -2.3 L9.5 -2.25 9.45 -2.25 9.35 -2.3 9.35 -2.6 9.2 -2.75 Q9.1 -2.8 9.1 -2.85 L9.1 -2.9 9.15 -3.0 9.4 -3.0 M-2.15 3.65 L-2.15 3.65" fill="#e5fcff" fill-opacity="0.8" fill-rule="evenodd" stroke="none"/>
    <path d="M5.55 -2.05 L5.75 -2.05 Q5.85 -2.05 5.95 -2.15 6.05 -2.25 6.15 -2.25 L6.2 -2.25 6.25 -2.2 6.2 -2.05 6.15 -2.0 6.45 -2.05 6.55 -2.1 6.7 -2.25 6.8 -2.4 6.9 -2.7 Q6.9 -3.0 7.15 -3.2 7.4 -3.2 7.6 -3.45 7.8 -3.7 7.95 -3.65 L7.95 -3.4 Q8.1 -3.3 8.1 -3.25 L8.05 -3.05 8.05 -2.9 Q8.05 -2.85 8.05 -2.8 L8.1 -2.75 8.2 -2.6 Q8.25 -2.55 8.35 -2.6 L8.45 -2.6 8.5 -2.45 Q9.0 -2.35 9.15 -1.95 9.3 -1.75 9.3 -1.35 9.3 -0.85 8.85 -0.3 L8.8 -0.25 8.75 -0.1 8.7 -0.1 8.85 0.2 Q8.95 0.5 8.95 0.7 L8.95 0.8 Q8.9 1.15 8.5 1.7 8.4 1.9 8.05 2.1 L7.85 2.15 7.5 2.15 7.45 2.2 7.35 2.2 7.3 2.15 7.3 2.4 7.25 2.5 7.15 2.75 6.85 3.05 Q6.55 3.3 6.1 3.3 5.9 3.3 5.8 3.2 L5.55 3.15 5.4 3.0 5.15 3.0 Q4.5 3.0 4.35 3.3 4.4 3.35 4.35 3.6 4.35 4.2 3.6 4.6 3.05 4.9 2.6 4.9 1.75 4.9 1.0 4.2 0.65 3.9 0.5 3.85 0.25 3.7 -0.1 3.9 L-1.15 3.85 -1.65 3.8 Q-1.95 3.65 -2.25 3.65 L-2.65 3.75 -2.75 3.8 -2.8 3.75 -2.85 3.75 Q-2.85 3.8 -2.85 3.7 -2.85 3.6 -2.35 3.3 -1.85 3.0 -1.75 3.0 L-1.4 2.75 Q-0.8 2.3 -0.55 2.15 -0.55 2.25 -0.6 2.35 -0.5 2.35 -0.1 2.15 L0.25 2.0 0.7 1.75 Q1.25 1.4 1.35 1.4 1.4 1.4 1.35 1.4 L1.4 1.45 Q1.45 1.45 1.95 1.1 2.45 0.9 2.6 0.75 L3.5 -0.05 3.95 -0.5 Q4.2 -0.75 4.4 -0.95 4.5 -1.1 4.6 -1.4 L4.8 -1.9 4.6 -1.85 4.45 -1.75 Q4.4 -1.7 4.4 -1.8 4.4 -1.85 4.55 -1.95 L4.6 -1.95 4.8 -2.1 5.1 -2.3 5.25 -2.3 5.3 -2.2 5.35 -2.15 5.55 -2.05 M8.75 -5.95 L8.9 -5.95 Q8.95 -6.0 8.95 -5.9 9.1 -5.8 9.3 -5.65 9.4 -5.6 9.4 -5.45 9.4 -5.35 9.35 -5.15 L9.25 -5.35 9.2 -5.4 9.15 -5.4 9.05 -5.45 8.95 -5.55 8.8 -5.55 8.75 -5.5 8.65 -5.6 8.45 -5.65 8.3 -5.65 Q8.2 -5.6 8.2 -5.45 8.2 -5.15 8.05 -5.1 L8.0 -5.05 7.85 -5.05 7.65 -5.15 7.6 -5.1 Q7.55 -5.1 7.5 -5.1 L7.45 -4.9 Q7.4 -4.8 7.25 -4.8 7.05 -4.6 7.05 -4.5 L7.0 -4.45 6.95 -4.55 6.95 -4.9 7.05 -4.95 7.2 -5.0 Q7.3 -5.1 7.3 -5.3 L7.3 -5.35 Q7.4 -5.5 7.55 -5.6 L7.65 -5.65 Q7.65 -5.75 7.65 -5.7 7.8 -5.7 7.85 -5.8 L7.9 -5.95 8.1 -6.0 8.4 -6.0 8.75 -5.95 M9.2 -5.1 L9.2 -5.05 9.25 -5.0 9.2 -5.0 9.2 -4.95 9.3 -4.75 9.3 -4.65 9.15 -4.65 9.15 -4.75 9.2 -4.85 9.15 -4.95 9.1 -5.0 9.0 -5.0 9.0 -5.05 8.95 -5.05 9.05 -5.15 9.15 -5.15 9.2 -5.1 M8.95 -4.55 L9.0 -4.45 Q8.95 -4.4 8.9 -4.35 L8.85 -4.45 8.85 -4.55 8.95 -4.55 M9.4 -3.95 L9.35 -3.95 9.4 -4.1 9.4 -4.2 9.55 -4.25 9.5 -4.3 9.5 -4.35 9.7 -4.4 9.8 -4.5 Q10.45 -4.3 10.5 -4.2 L10.65 -3.7 10.55 -3.25 10.35 -3.0 10.3 -3.05 Q10.4 -3.2 10.4 -3.3 L10.4 -3.5 10.35 -3.8 10.15 -3.95 10.05 -3.95 10.0 -3.8 9.8 -3.8 9.7 -3.95 9.6 -3.9 Q9.6 -3.85 9.5 -3.85 L9.4 -3.85 9.4 -3.95 M8.15 -5.45 L8.2 -5.55 8.2 -5.6 8.15 -5.5 8.15 -5.45 M7.05 -4.3 Q7.05 -4.4 7.1 -4.4 L7.2 -4.35 7.15 -4.25 7.05 -4.3 M9.25 -3.1 Q9.25 -3.25 9.35 -3.25 9.5 -3.2 9.6 -3.05 L9.7 -2.85 9.75 -2.7 9.75 -2.55 9.7 -2.5 Q9.6 -2.5 9.55 -2.65 L9.5 -2.9 9.3 -2.9 9.25 -3.0 9.25 -3.1" fill="#e5fcff" fill-opacity="0.8" fill-rule="evenodd" stroke="none"/>
  </g>
</svg>
