<?xml version="1.0" encoding="UTF-8" standalone="no"?>
<svg xmlns:ffdec="https://www.free-decompiler.com/flash" xmlns:xlink="http://www.w3.org/1999/xlink" ffdec:objectType="shape" height="10.5px" width="13.4px" xmlns="http://www.w3.org/2000/svg">
  <g transform="matrix(1.0, 0.0, 0.0, 1.0, 2.6, 6.2)">
    <path d="M4.9 -0.55 L5.25 -0.9 5.35 -1.1 5.4 -1.15 6.1 -2.0 Q6.3 -2.35 6.3 -2.5 L6.25 -2.65 Q6.25 -2.7 6.05 -2.7 6.1 -2.75 6.15 -2.8 L6.0 -2.7 Q5.95 -2.7 5.95 -2.75 5.95 -2.85 6.2 -3.0 L6.5 -3.15 6.6 -3.15 6.6 -3.1 6.75 -3.1 6.9 -3.25 6.9 -3.3 Q6.85 -3.35 6.85 -3.4 6.85 -3.5 6.9 -3.6 L7.6 -3.95 7.8 -3.85 Q8.5 -3.75 8.7 -3.45 8.75 -3.35 8.8 -2.9 L8.8 -2.85 8.9 -2.8 8.95 -2.7 9.0 -2.7 9.3 -2.25 Q9.5 -2.05 9.55 -1.9 L9.55 -1.5 Q9.55 -0.5 8.9 -0.5 L8.85 -0.5 Q9.2 -0.25 9.2 0.35 L9.15 0.65 Q9.1 0.9 8.95 0.9 L8.85 1.05 Q8.8 1.35 8.5 1.6 8.05 1.95 7.6 1.95 L7.5 1.95 7.55 2.0 Q7.55 2.35 7.25 2.65 6.85 3.05 6.1 3.05 5.6 3.05 5.25 2.6 L5.1 2.6 5.0 2.7 5.0 2.9 Q5.0 3.35 4.55 3.8 4.0 4.3 3.25 4.3 2.5 4.3 1.95 4.0 1.45 3.7 0.85 3.7 L0.4 3.75 0.35 3.75 0.35 3.8 Q0.35 3.9 0.15 4.0 -0.1 4.15 -0.4 4.15 -1.15 4.15 -1.7 3.8 -2.05 3.55 -2.4 3.55 L-2.5 3.65 -2.6 3.55 Q-2.55 3.45 -2.45 3.45 -2.25 3.2 -1.95 3.05 L-1.05 2.7 -0.5 2.45 -0.2 2.25 0.2 1.9 0.35 1.75 0.2 1.75 0.25 1.7 0.1 1.65 Q0.7 1.4 0.75 1.3 L0.85 1.35 1.0 1.35 1.05 1.4 1.25 1.35 1.4 1.25 Q1.6 1.1 2.0 1.05 L2.0 1.1 Q2.65 1.0 2.8 0.9 3.7 0.5 4.1 0.2 L4.3 0.05 4.5 -0.2 4.9 -0.55 M8.7 -6.15 Q8.8 -6.0 8.9 -6.0 L9.0 -6.05 9.2 -6.05 9.25 -5.9 9.25 -5.85 9.2 -5.85 Q9.1 -5.9 8.7 -5.85 L8.6 -5.95 Q8.55 -6.0 8.45 -5.95 8.45 -6.0 8.5 -6.1 8.7 -6.25 8.7 -6.15 M9.55 -5.7 L9.55 -5.65 Q9.55 -5.5 9.45 -5.5 L9.4 -5.5 9.35 -5.6 9.4 -5.7 9.35 -5.75 Q9.35 -5.85 9.45 -5.8 L9.55 -5.75 9.55 -5.7 M9.2 -5.1 L9.2 -5.15 9.3 -5.15 9.35 -5.05 9.3 -5.0 9.2 -5.0 9.2 -5.1 M9.6 -4.55 L9.75 -4.8 9.9 -4.75 9.9 -4.7 9.95 -4.6 Q10.3 -4.75 10.55 -4.4 10.8 -4.15 10.8 -4.0 L10.75 -3.85 10.65 -3.75 10.55 -4.05 10.45 -4.1 10.3 -4.3 9.95 -4.3 Q9.95 -4.25 9.95 -4.2 L9.8 -4.35 Q9.65 -4.35 9.55 -4.2 L9.45 -4.25 9.4 -4.25 9.4 -4.35 Q9.4 -4.4 9.5 -4.45 L9.6 -4.55 M8.1 -5.9 L8.1 -5.9 M8.2 -5.95 Q8.2 -6.05 8.2 -5.95 L8.15 -5.8 8.05 -5.75 8.1 -5.6 8.1 -5.5 8.05 -5.5 7.9 -5.45 7.7 -5.4 Q7.65 -5.35 7.55 -5.35 L7.45 -5.4 Q7.45 -5.45 7.55 -5.55 7.65 -5.7 7.75 -5.75 7.85 -5.75 8.0 -5.95 8.1 -6.05 8.2 -5.95 M7.3 -4.95 L7.25 -4.95 7.05 -4.9 7.0 -4.8 Q6.95 -4.9 6.95 -5.0 6.95 -5.1 7.15 -5.2 7.3 -5.3 7.3 -5.05 L7.3 -4.95 M10.55 -3.6 L10.55 -3.65 10.6 -3.65 10.65 -3.55 10.65 -3.5 10.55 -3.5 10.55 -3.6 M1.15 1.45 L1.15 1.5 1.2 1.45 1.15 1.45" fill="#e5fcff" fill-opacity="0.8" fill-rule="evenodd" stroke="none"/>
    <path d="M5.05 -0.4 Q5.25 -0.6 5.35 -0.75 L5.7 -1.05 6.1 -1.4 6.4 -1.8 Q6.55 -2.0 6.6 -2.05 L6.75 -2.15 6.9 -2.35 6.85 -2.4 7.0 -2.65 7.1 -2.85 Q7.1 -3.05 7.0 -3.2 6.9 -3.35 6.75 -3.45 L6.85 -3.5 6.85 -3.55 6.75 -3.75 Q6.75 -4.1 7.45 -4.4 8.25 -4.7 8.65 -4.2 8.7 -4.1 8.75 -3.85 L8.9 -3.7 9.0 -3.5 9.05 -3.15 Q9.1 -2.95 9.3 -2.9 L9.45 -2.6 9.5 -2.3 Q9.5 -2.2 9.4 -2.0 L9.25 -1.75 9.3 -1.55 9.35 -1.3 9.35 -1.2 9.45 -0.95 9.5 -0.45 Q9.5 -0.3 9.4 -0.1 9.35 0.15 9.2 0.25 L8.9 0.5 Q8.75 0.55 8.7 0.6 L8.7 0.65 8.75 0.75 8.75 0.95 Q8.75 1.65 7.95 2.15 7.3 2.55 6.9 2.55 L6.25 2.4 5.8 2.25 5.6 2.35 5.45 2.45 5.5 2.45 Q5.55 2.6 5.55 2.7 5.55 3.4 4.95 3.85 4.4 4.2 3.9 4.2 3.5 4.2 2.85 3.9 L2.4 3.65 2.2 3.75 2.1 3.9 2.1 3.95 1.9 4.15 Q1.85 4.2 1.65 4.25 L1.3 4.3 Q0.85 4.3 0.45 4.15 0.0 3.9 -0.15 3.85 L-0.3 3.8 -0.4 3.75 -0.75 3.7 -1.15 3.65 -1.45 3.55 -1.8 3.45 -1.85 3.4 -2.25 3.5 -2.25 3.45 -2.3 3.5 -2.4 3.55 -2.45 3.55 -2.4 3.5 -2.4 3.4 Q-2.4 3.3 -2.05 3.15 L-1.6 2.9 -1.55 2.95 Q-1.6 3.05 -1.8 3.2 L-0.65 2.8 0.5 2.3 0.55 2.3 0.9 2.1 1.6 1.65 2.0 1.3 Q2.15 1.1 2.1 0.9 L2.1 0.85 1.95 0.85 1.95 0.8 Q2.0 0.75 2.3 0.6 L2.7 0.45 Q2.75 0.5 2.65 0.6 L2.7 0.65 2.8 0.65 Q3.0 0.65 3.5 0.45 3.95 0.2 4.0 0.25 L3.95 0.35 Q4.05 0.3 4.2 0.2 L4.65 -0.1 5.05 -0.4 M9.25 -1.3 L9.25 -1.3 M-1.65 3.2 L-1.65 3.2" fill="#e5fcff" fill-opacity="0.8" fill-rule="evenodd" stroke="none"/>
  </g>
</svg>
