<?xml version="1.0" encoding="UTF-8" standalone="no"?>
<svg xmlns:ffdec="https://www.free-decompiler.com/flash" xmlns:xlink="http://www.w3.org/1999/xlink" ffdec:objectType="shape" height="6.5px" width="12.05px" xmlns="http://www.w3.org/2000/svg">
  <g transform="matrix(1.0, 0.0, 0.0, 1.0, 6.65, 2.85)">
    <path d="M2.6 -2.6 L3.05 -2.6 3.3 -2.55 3.35 -2.55 3.35 -2.6 3.4 -2.7 Q3.6 -2.8 3.9 -2.85 L4.25 -2.85 Q4.4 -2.8 4.5 -2.75 4.6 -2.65 4.55 -2.5 L4.5 -2.4 4.75 -2.3 Q4.95 -2.25 5.05 -2.1 L5.1 -2.0 5.15 -1.95 5.1 -1.9 5.0 -1.7 5.0 -1.6 5.05 -1.5 5.1 -1.5 5.1 -1.35 Q5.1 -1.05 4.75 -0.9 L4.65 -0.9 4.55 -0.95 4.6 -0.9 4.6 -0.85 5.0 -0.35 Q5.3 0.2 5.3 0.8 L5.3 0.85 Q5.4 1.0 5.4 1.2 5.4 1.4 5.25 1.6 L5.25 1.65 Q5.1 1.85 5.05 2.0 L5.05 2.05 4.95 2.1 4.85 2.1 4.75 2.05 4.7 2.0 4.7 1.85 4.5 1.85 4.4 1.9 4.25 2.0 4.2 2.0 4.15 2.05 4.15 2.15 4.1 2.2 Q4.0 2.25 3.55 2.6 L3.6 2.6 3.2 2.9 2.85 3.1 2.15 3.3 Q1.55 3.5 1.15 3.55 L0.05 3.65 -1.45 3.65 -2.8 3.5 -3.2 3.45 -3.7 3.35 -4.65 3.3 -5.15 3.4 -5.2 3.4 Q-5.45 3.35 -5.45 3.25 L-5.5 3.2 -5.85 2.95 Q-6.2 2.7 -6.15 2.6 -6.2 2.6 -6.25 2.55 L-6.35 2.4 Q-6.5 2.2 -6.5 1.95 L-6.5 1.8 -6.55 1.6 -6.6 1.3 -6.6 1.25 -6.65 1.15 -6.6 1.05 -6.65 1.0 -6.65 0.9 -6.6 0.85 -6.55 0.85 -6.45 0.7 -6.4 0.6 -6.4 0.65 Q-6.25 0.25 -5.8 -0.1 L-5.65 -0.25 -5.4 -0.55 -5.35 -0.65 Q-5.45 -0.8 -5.45 -0.85 -5.45 -0.9 -5.25 -1.15 -5.2 -1.3 -4.95 -1.45 L-4.5 -1.8 Q-4.1 -2.05 -3.75 -2.2 L-3.7 -2.2 Q-3.3 -2.4 -2.9 -2.5 L-2.8 -2.5 Q-2.6 -2.45 -2.6 -2.4 L-1.95 -2.35 -0.9 -2.5 -0.35 -2.6 -0.25 -2.6 0.4 -2.65 Q1.5 -2.7 1.65 -2.65 L2.1 -2.6 2.6 -2.6 M3.4 -2.55 L3.45 -2.55 3.4 -2.65 3.4 -2.55 M3.6 -2.25 L3.7 -2.2 3.7 -2.15 3.75 -2.25 3.55 -2.35 3.55 -2.25 3.6 -2.25 M3.7 -2.0 L3.65 -2.0 3.65 -1.95 3.75 -1.95 Q3.7 -2.0 3.7 -2.05 L3.7 -2.0 M3.9 -1.7 L3.8 -1.65 3.75 -1.6 3.65 -1.6 3.55 -1.45 3.5 -1.4 3.5 -1.35 3.6 -1.35 4.1 -1.2 4.0 -1.25 3.95 -1.3 3.9 -1.4 3.95 -1.45 Q4.05 -1.55 4.2 -1.6 L3.9 -1.75 3.9 -1.7 M3.35 -1.25 L3.4 -1.3 3.4 -1.35 3.35 -1.3 3.35 -1.25" fill="#4fcfec" fill-rule="evenodd" stroke="none"/>
    <path d="M2.8 -2.3 Q2.65 -2.25 2.65 -2.2 L2.8 -2.15 2.9 -2.05 2.95 -1.95 Q2.95 -1.85 2.9 -1.85 L2.75 -1.85 2.9 -1.75 Q2.8 -1.65 2.7 -1.6 L2.7 -1.55 3.05 -1.55 3.15 -1.35 3.2 -1.35 Q3.25 -1.45 3.35 -1.6 L3.5 -1.7 3.4 -1.75 Q3.35 -1.75 3.35 -1.9 L3.4 -2.05 Q3.3 -2.1 3.3 -2.15 3.25 -2.25 3.25 -2.3 L2.8 -2.3 M2.1 -2.5 L2.6 -2.45 3.4 -2.45 Q3.45 -2.3 3.4 -2.2 L3.55 -2.15 3.55 -2.1 Q3.5 -2.0 3.5 -1.95 L3.5 -1.8 3.6 -1.8 3.65 -1.85 3.7 -1.8 3.75 -1.8 3.75 -1.75 3.65 -1.7 3.6 -1.7 3.45 -1.55 3.3 -1.3 3.35 -1.3 3.45 -1.25 3.35 -1.25 3.35 -1.2 3.5 -1.2 4.2 -1.1 4.3 -1.05 4.4 -0.9 4.5 -0.8 4.9 -0.3 Q5.15 0.2 5.15 0.8 L5.15 0.85 Q5.25 1.0 5.25 1.2 5.25 1.4 5.15 1.55 L4.95 1.95 4.9 2.0 4.8 1.9 4.9 1.8 4.9 1.75 4.3 1.75 4.0 2.05 Q3.9 2.1 3.45 2.55 L3.15 2.8 2.8 2.95 2.1 3.2 Q1.5 3.4 1.15 3.45 L-1.45 3.55 -2.8 3.4 -3.15 3.35 -3.65 3.2 -4.65 3.2 -5.2 3.25 Q-5.3 3.2 -5.35 3.2 L-5.35 3.15 -5.4 3.15 -5.75 2.85 Q-6.05 2.65 -6.05 2.6 L-6.15 2.5 -6.25 2.35 -6.25 2.3 Q-6.35 2.2 -6.35 1.95 L-6.35 1.8 -6.4 1.6 -6.45 1.3 -6.45 1.2 -6.5 1.15 -6.45 1.05 -6.5 0.95 -6.45 0.95 -6.35 0.75 -6.3 0.7 Q-6.1 0.35 -5.7 0.0 L-5.6 -0.1 -5.55 -0.2 -5.3 -0.45 Q-5.2 -0.6 -5.2 -0.65 L-5.15 -0.7 -5.3 -0.85 -5.1 -1.1 Q-5.05 -1.2 -4.85 -1.35 L-4.4 -1.75 Q-4.05 -1.95 -3.65 -2.1 -3.25 -2.3 -2.85 -2.4 L-2.7 -2.35 -2.9 -2.25 -1.95 -2.2 -0.85 -2.35 -0.25 -2.45 -0.25 -2.5 0.4 -2.55 1.6 -2.55 2.1 -2.5 M0.4 -2.4 L0.0 -2.35 -0.25 -2.3 -0.8 -2.25 Q-1.2 -2.15 -1.6 -2.15 L-2.8 -1.85 Q-3.4 -1.65 -3.6 -1.45 L-3.65 -1.4 Q-3.6 -1.35 -3.35 -1.35 -3.3 -1.35 -3.3 -1.25 -3.3 -1.15 -3.35 -1.15 L-3.2 0.45 -1.75 0.8 -1.65 0.85 Q-1.8 1.1 -2.2 1.15 L-2.3 1.4 -2.3 1.45 Q-2.3 1.5 -2.35 1.5 -2.4 1.55 -2.4 1.6 L-2.2 1.8 -2.35 1.95 -2.55 2.2 Q-2.75 2.4 -2.75 2.45 L-2.75 2.6 Q-2.75 2.65 -3.05 2.85 -3.05 2.95 -2.9 3.05 L-2.7 3.2 -0.05 3.35 Q0.05 3.25 0.1 3.25 L0.3 3.25 Q0.7 3.25 1.0 3.0 1.25 2.8 1.25 2.65 1.25 2.55 1.5 2.35 1.8 2.1 1.8 1.9 1.8 1.7 1.3 1.55 L0.65 1.45 0.55 0.8 0.3 0.75 0.35 0.55 Q0.35 0.4 0.45 0.35 L0.55 0.3 Q0.6 0.25 0.75 0.25 L0.65 0.15 1.25 -0.35 Q1.3 -0.4 1.3 -0.5 L1.25 -0.65 1.3 -0.8 1.4 -0.95 Q1.4 -1.0 1.25 -1.15 L1.15 -1.35 0.75 -1.4 0.65 -1.55 Q0.5 -1.65 -0.05 -1.65 -0.4 -1.65 -0.75 -1.5 -1.05 -1.4 -1.25 -1.45 L-1.25 -1.5 -0.7 -1.7 0.3 -2.1 0.5 -2.2 0.45 -2.2 0.35 -2.25 0.3 -2.3 0.4 -2.4 M4.4 -2.3 L4.7 -2.2 Q4.9 -2.15 4.9 -2.0 L5.0 -1.95 4.85 -1.7 Q4.85 -1.65 4.9 -1.55 L4.95 -1.45 4.95 -1.35 Q4.95 -1.15 4.7 -1.05 L4.5 -1.15 Q4.3 -1.3 4.05 -1.35 4.2 -1.45 4.4 -1.55 4.4 -1.6 4.3 -1.7 L4.0 -1.85 Q3.85 -2.0 3.85 -2.1 L3.9 -2.25 Q3.9 -2.35 3.45 -2.5 L3.5 -2.55 3.5 -2.6 Q3.65 -2.7 3.95 -2.7 L4.2 -2.7 Q4.45 -2.7 4.45 -2.55 L4.4 -2.3 M4.55 -0.55 Q4.45 -0.4 4.45 -0.3 L4.5 -0.15 4.65 0.1 4.75 0.5 4.9 0.85 4.9 0.5 Q4.9 0.45 5.0 0.45 4.9 0.05 4.75 -0.3 L4.55 -0.55 M-6.25 1.5 L-6.2 1.7 -6.25 1.85 -6.3 1.95 -6.25 1.95 Q-6.25 2.15 -6.15 2.2 L-6.05 2.3 -6.15 1.95 -6.1 1.9 -6.1 1.85 -6.0 1.65 -6.15 1.65 Q-6.15 1.55 -6.05 1.5 L-6.1 1.5 -6.25 1.45 -6.25 1.5" fill="#28a8d2" fill-rule="evenodd" stroke="none"/>
    <path d="M2.8 -2.3 L3.25 -2.3 Q3.25 -2.25 3.3 -2.15 3.3 -2.1 3.4 -2.05 L3.35 -1.9 Q3.35 -1.75 3.4 -1.75 L3.5 -1.7 3.35 -1.6 Q3.25 -1.45 3.2 -1.35 L3.15 -1.35 3.05 -1.55 2.7 -1.55 2.7 -1.6 Q2.8 -1.65 2.9 -1.75 L2.75 -1.85 2.9 -1.85 Q2.95 -1.85 2.95 -1.95 L2.9 -2.05 2.8 -2.15 2.65 -2.2 Q2.65 -2.25 2.8 -2.3 M0.4 -2.4 L0.3 -2.3 0.35 -2.25 0.45 -2.2 0.5 -2.2 0.3 -2.1 -0.7 -1.7 -1.25 -1.5 -1.25 -1.45 Q-1.05 -1.4 -0.75 -1.5 -0.4 -1.65 -0.05 -1.65 0.5 -1.65 0.65 -1.55 L0.75 -1.4 1.15 -1.35 1.25 -1.15 Q1.4 -1.0 1.4 -0.95 L1.3 -0.8 1.25 -0.65 1.3 -0.5 Q1.3 -0.4 1.25 -0.35 L0.65 0.15 0.75 0.25 Q0.6 0.25 0.55 0.3 L0.45 0.35 Q0.35 0.4 0.35 0.55 L0.3 0.75 0.55 0.8 0.65 1.45 1.3 1.55 Q1.8 1.7 1.8 1.9 1.8 2.1 1.5 2.35 1.25 2.55 1.25 2.65 1.25 2.8 1.0 3.0 0.7 3.25 0.3 3.25 L0.1 3.25 Q0.05 3.25 -0.05 3.35 L-2.7 3.2 -2.9 3.05 Q-3.05 2.95 -3.05 2.85 -2.75 2.65 -2.75 2.6 L-2.75 2.45 Q-2.75 2.4 -2.55 2.2 L-2.35 1.95 -2.2 1.8 -2.4 1.6 Q-2.4 1.55 -2.35 1.5 -2.3 1.5 -2.3 1.45 L-2.3 1.4 -2.2 1.15 Q-1.8 1.1 -1.65 0.85 L-1.75 0.8 -3.2 0.45 -3.35 -1.15 Q-3.3 -1.15 -3.3 -1.25 -3.3 -1.35 -3.35 -1.35 -3.6 -1.35 -3.65 -1.4 L-3.6 -1.45 Q-3.4 -1.65 -2.8 -1.85 L-1.6 -2.15 Q-1.2 -2.15 -0.8 -2.25 L-0.25 -2.3 0.0 -2.35 0.4 -2.4 M-6.25 1.5 L-6.25 1.45 -6.1 1.5 -6.05 1.5 Q-6.15 1.55 -6.15 1.65 L-6.0 1.65 -6.1 1.85 -6.1 1.9 -6.15 1.95 -6.05 2.3 -6.15 2.2 Q-6.25 2.15 -6.25 1.95 L-6.3 1.95 -6.25 1.85 -6.2 1.7 -6.25 1.5 M4.55 -0.55 L4.75 -0.3 Q4.9 0.05 5.0 0.45 4.9 0.45 4.9 0.5 L4.9 0.85 4.75 0.5 4.65 0.1 4.5 -0.15 4.45 -0.3 Q4.45 -0.4 4.55 -0.55" fill="#90e6ff" fill-rule="evenodd" stroke="none"/>
    <path d="M0.25 -1.7 L0.65 -1.65 0.35 -1.6 0.45 -1.6 0.35 -1.5 0.4 -1.45 0.7 -1.4 0.85 -1.35 0.9 -1.35 1.3 -1.45 2.05 -1.45 2.1 -1.35 Q2.0 -1.15 1.8 -1.2 L1.35 -1.15 1.3 -1.15 Q1.25 -1.1 1.15 -1.0 L1.3 -1.0 1.35 -0.9 Q1.3 -0.85 1.1 -0.85 L1.0 -0.85 0.95 -0.9 0.9 -0.85 Q0.5 -0.7 0.45 -0.55 L0.4 -0.5 0.45 -0.5 Q0.75 -0.65 0.85 -0.6 L0.9 -0.6 Q0.85 -0.55 0.55 -0.45 L0.25 -0.35 0.05 -0.15 0.05 0.05 Q0.0 0.15 -0.05 0.25 L0.05 0.3 Q0.4 0.35 0.4 0.3 L0.45 0.3 0.5 0.35 Q0.0 0.65 -0.45 0.65 L-0.6 0.6 Q-0.7 0.6 -0.75 0.6 -0.9 0.6 -1.15 0.75 L-1.95 0.75 -2.05 0.85 -2.15 1.05 Q-2.15 1.1 -2.05 1.1 L-1.95 1.15 -1.9 1.2 -2.3 1.2 -2.9 1.15 -3.5 1.15 -3.55 1.1 Q-3.95 1.05 -4.1 0.65 L-4.2 0.65 -4.75 0.6 Q-5.0 0.6 -5.05 0.65 -5.2 0.75 -5.45 0.8 -5.55 0.9 -5.5 1.0 L-5.5 1.1 Q-5.5 1.15 -5.65 1.25 -5.8 1.3 -5.85 1.35 L-5.85 1.75 Q-6.0 1.7 -6.1 1.5 L-6.15 1.5 Q-6.25 1.3 -6.25 1.25 L-6.25 1.1 Q-6.25 0.75 -5.6 0.05 L-5.05 -0.45 -4.8 -0.65 Q-4.5 -0.9 -4.1 -1.0 -3.3 -1.2 -2.7 -1.25 L-1.95 -1.3 -1.4 -1.25 Q-1.1 -1.25 -0.8 -1.35 L-0.35 -1.5 -0.3 -1.5 -0.25 -1.55 -0.5 -1.55 -0.45 -1.6 -0.05 -1.6 -0.1 -1.65 -1.3 -1.65 -1.4 -1.75 -1.7 -1.7 Q-1.75 -1.6 -2.0 -1.6 L-2.1 -1.6 -2.6 -1.55 -2.95 -1.55 Q-3.05 -1.55 -3.1 -1.6 L-3.1 -1.65 -3.75 -1.5 -3.9 -1.35 Q-4.05 -1.3 -4.3 -1.3 L-4.5 -1.3 Q-4.9 -1.15 -5.0 -0.95 L-5.05 -0.95 Q-4.8 -1.45 -4.0 -1.85 L-3.6 -2.05 -3.15 -2.2 Q-2.8 -2.35 -2.3 -2.25 -1.75 -2.15 -1.5 -2.1 L-1.0 -2.15 -0.7 -2.25 -0.6 -2.25 -0.2 -2.3 Q-0.05 -2.3 -0.05 -2.25 L-0.05 -2.2 -0.5 -2.15 1.1 -2.1 1.35 -1.95 1.35 -1.9 1.2 -1.9 Q0.75 -1.9 0.15 -1.75 L0.0 -1.75 0.25 -1.7 M0.85 -0.25 L0.7 -0.3 Q0.85 -0.35 1.15 -0.4 L1.55 -0.45 Q1.5 -0.4 1.25 -0.35 L0.85 -0.25 M2.25 -0.8 L1.65 -0.75 Q1.55 -0.75 1.5 -0.8 1.65 -0.95 2.15 -1.0 2.7 -1.1 2.9 -0.9 2.6 -0.8 2.25 -0.8 M1.5 -0.1 Q1.4 0.0 1.1 0.1 L0.75 0.2 Q0.55 0.2 0.5 0.1 L0.45 0.1 Q0.6 0.0 0.95 -0.05 L1.5 -0.1 M3.85 -2.75 L3.95 -2.7 3.85 -2.65 3.9 -2.6 3.8 -2.55 3.65 -2.5 3.55 -2.55 Q3.5 -2.6 3.5 -2.65 3.5 -2.75 3.65 -2.75 L3.85 -2.75 M4.05 -2.3 L4.05 -2.2 Q4.0 -2.15 4.0 -2.1 4.0 -2.0 4.05 -2.0 L4.15 -1.9 4.1 -1.9 Q3.95 -1.9 3.9 -2.0 L3.9 -2.1 Q3.9 -2.25 3.95 -2.3 L4.05 -2.3 M4.8 -1.15 Q4.4 -1.4 4.35 -1.45 L4.45 -1.45 Q4.6 -1.45 4.65 -1.35 L4.8 -1.2 4.8 -1.15 M4.95 0.55 L5.05 0.65 5.1 0.75 Q5.1 1.05 5.0 1.2 L5.05 1.25 Q5.05 1.3 4.95 1.3 L4.75 1.45 4.65 1.55 Q4.6 1.6 4.5 1.6 L4.4 1.65 4.25 1.8 3.9 2.05 3.9 2.1 3.8 2.1 3.8 2.05 3.45 2.5 Q3.15 2.85 2.65 3.05 L2.45 3.05 Q2.9 2.85 3.3 2.4 L3.7 1.9 3.6 2.15 Q3.8 2.0 3.8 1.9 L3.85 1.9 3.95 1.75 4.2 1.55 4.25 1.5 4.3 1.5 4.5 1.3 4.5 1.25 4.9 0.9 Q5.05 0.75 4.95 0.6 L4.95 0.55 M4.9 1.4 L4.8 1.45 4.95 1.3 5.0 1.35 4.9 1.4 M1.1 3.35 L1.3 3.25 1.55 3.2 Q1.55 3.35 1.3 3.45 0.75 3.65 -0.55 3.65 L-0.9 3.65 -1.1 3.6 -2.5 3.55 Q-2.5 3.45 -2.65 3.4 L-3.0 3.35 -3.3 3.25 -3.35 3.25 -3.75 3.05 -3.75 2.95 Q-3.65 2.95 -3.15 3.15 L-3.1 3.15 -3.4 3.0 -3.35 2.95 -2.2 3.2 -1.9 3.2 -0.4 3.25 Q0.55 3.25 0.9 3.35 L1.1 3.35 M-4.4 -1.55 L-4.4 -1.55 M-2.2 1.1 L-2.3 1.15 -2.15 1.15 -2.2 1.1 M-3.5 3.25 L-3.65 3.2 -4.3 3.15 -4.55 3.2 -4.65 3.2 -4.75 3.1 Q-4.05 2.95 -3.45 3.25 L-3.5 3.25" fill="#caf9ff" fill-rule="evenodd" stroke="none"/>
  </g>
</svg>
