<?xml version="1.0" encoding="UTF-8" standalone="no"?>
<svg xmlns:ffdec="https://www.free-decompiler.com/flash" xmlns:xlink="http://www.w3.org/1999/xlink" ffdec:objectType="shape" height="25.4px" width="27.2px" xmlns="http://www.w3.org/2000/svg">
  <g transform="matrix(1.0, 0.0, 0.0, 1.0, 8.85, 16.35)">
    <path d="M4.3 -14.7 Q4.2 -14.55 4.05 -14.5 L3.8 -14.6 3.9 -14.75 4.05 -14.9 Q4.2 -14.85 4.3 -14.7 M7.15 -16.05 L7.1 -15.9 Q7.0 -15.75 6.8 -15.7 L6.55 -15.9 6.5 -16.0 6.65 -16.1 Q6.8 -16.2 6.8 -16.35 L7.15 -16.05 M9.45 -13.1 L9.4 -13.05 Q9.35 -13.0 9.15 -13.0 L9.0 -13.05 8.95 -13.1 Q9.1 -13.4 9.35 -13.4 9.45 -13.25 9.45 -13.1 M10.85 -10.4 Q10.85 -10.7 11.2 -10.65 L11.25 -10.55 Q11.15 -10.45 10.95 -10.35 L10.85 -10.4 M1.7 -9.55 Q1.6 -9.4 1.45 -9.4 L1.4 -9.45 1.4 -9.65 1.65 -9.65 1.7 -9.55 M9.95 -4.2 L10.0 -4.25 10.15 -4.25 10.35 -4.15 10.4 -4.1 10.4 -4.05 Q10.4 -3.95 10.25 -3.95 L10.0 -4.0 Q9.95 -4.0 9.85 -4.05 9.85 -4.1 9.95 -4.2 M14.65 -11.7 Q14.75 -11.85 15.2 -11.7 15.2 -11.6 15.25 -11.5 L15.2 -11.2 15.1 -11.15 14.95 -11.05 14.65 -11.3 Q14.6 -11.35 14.6 -11.4 14.6 -11.6 14.65 -11.7 M18.35 -8.85 L18.3 -8.7 18.0 -8.55 17.8 -8.7 17.75 -8.75 Q17.7 -8.85 17.7 -8.9 17.7 -9.1 18.0 -9.2 18.35 -9.3 18.35 -8.9 L18.35 -8.85 M17.85 -6.2 L17.9 -6.0 17.9 -5.85 17.85 -5.85 Q17.7 -5.75 17.6 -5.75 L17.25 -5.8 17.2 -5.85 Q17.2 -5.9 17.2 -6.05 17.2 -6.2 17.35 -6.25 17.5 -6.35 17.85 -6.3 L17.85 -6.2 M16.15 -5.4 Q16.15 -5.35 16.0 -5.25 L15.8 -5.15 15.7 -5.2 15.6 -5.3 Q15.65 -5.5 15.8 -5.55 15.9 -5.6 16.1 -5.55 L16.15 -5.4 M15.95 -3.05 L16.0 -2.9 Q15.95 -2.7 15.65 -2.7 15.45 -2.8 15.4 -2.85 15.35 -2.9 15.35 -3.0 15.7 -3.2 15.95 -3.05 M15.5 1.9 Q15.45 2.05 15.25 2.1 L15.1 2.1 15.1 1.8 15.15 1.75 15.4 1.75 15.5 1.9 M12.3 2.3 L12.1 2.35 11.9 2.3 11.8 2.25 11.8 1.9 11.85 1.9 12.4 1.95 12.4 2.25 12.3 2.3 M14.6 4.25 Q14.85 4.45 14.85 4.65 14.7 4.8 14.6 4.8 L14.45 4.8 Q14.4 4.75 14.4 4.6 14.4 4.4 14.5 4.35 14.55 4.25 14.6 4.25 M13.45 8.45 L13.4 8.7 13.3 8.75 13.1 8.75 12.85 8.6 Q12.75 8.5 12.75 8.4 12.75 8.3 12.9 8.2 L13.4 8.15 Q13.4 8.25 13.45 8.45 M7.45 3.5 L7.5 3.55 7.55 3.65 7.45 3.75 Q7.45 3.8 7.35 3.8 L7.1 3.65 Q7.15 3.55 7.25 3.5 L7.45 3.5 M11.35 4.85 Q11.3 4.95 11.05 5.0 L10.95 5.0 Q10.9 5.0 10.9 4.85 L10.9 4.65 11.05 4.65 11.25 4.7 11.3 4.75 11.35 4.85 M4.1 4.25 Q3.9 4.35 3.75 4.35 L3.55 4.35 3.55 4.3 3.5 4.25 3.5 4.1 Q3.5 3.85 3.95 3.95 4.35 4.05 4.4 4.15 4.3 4.15 4.1 4.25 M6.0 8.3 L5.6 8.3 Q5.55 8.3 5.55 8.15 L5.55 8.0 5.6 8.0 5.75 7.95 Q6.0 8.05 6.0 8.25 L6.0 8.3 M4.2 7.35 Q4.15 7.45 4.15 7.55 4.1 7.65 3.8 7.7 L3.7 7.7 Q3.65 7.65 3.65 7.5 L3.8 7.4 Q3.95 7.35 3.95 7.15 4.15 7.25 4.2 7.35 M11.4 8.9 Q11.5 8.8 11.55 8.75 L11.85 8.7 11.9 8.85 11.9 8.95 11.6 9.05 11.4 8.9 M7.25 8.35 Q7.4 8.4 7.45 8.55 L7.35 8.7 Q7.2 8.75 7.15 8.75 L6.9 8.6 Q7.1 8.35 7.25 8.35 M-2.55 -13.3 Q-2.4 -13.2 -2.35 -13.15 -2.3 -13.05 -2.3 -12.85 L-2.3 -12.75 -2.4 -12.65 -2.7 -12.9 -2.8 -13.1 Q-2.8 -13.25 -2.7 -13.3 L-2.55 -13.3 M-5.15 -10.6 Q-5.0 -10.6 -4.95 -10.55 -5.0 -10.4 -5.2 -10.3 L-5.35 -10.3 Q-5.4 -10.3 -5.4 -10.45 -5.4 -10.7 -5.4 -10.6 L-5.15 -10.6 M-6.1 -8.95 L-6.4 -8.85 -6.55 -8.9 Q-6.65 -8.9 -6.65 -9.05 L-6.6 -9.25 Q-6.4 -9.3 -6.15 -9.15 L-6.1 -8.95 M-8.3 -5.3 L-8.35 -5.25 Q-8.35 -5.2 -8.55 -5.2 -8.65 -5.2 -8.85 -5.5 L-8.8 -5.75 -8.45 -5.75 Q-8.3 -5.65 -8.3 -5.5 L-8.3 -5.3 M-7.0 -4.65 L-6.95 -4.5 -7.05 -4.35 -7.4 -4.35 Q-7.45 -4.35 -7.45 -4.5 -7.45 -4.65 -7.35 -4.7 L-7.25 -4.7 -7.0 -4.65 M-4.65 -1.7 Q-4.75 -1.5 -4.9 -1.45 L-5.05 -1.5 -5.05 -1.7 Q-5.05 -1.85 -4.95 -1.85 L-4.75 -1.85 -4.65 -1.7 M-4.45 0.05 Q-4.4 0.1 -4.4 0.2 -4.4 0.45 -4.45 0.45 L-4.55 0.5 -4.7 0.55 -4.9 0.35 -4.95 0.2 Q-4.95 -0.1 -4.45 0.0 L-4.45 0.05" fill="#ccfeff" fill-opacity="0.6" fill-rule="evenodd" stroke="none"/>
    <path d="M4.2 -14.55 Q4.15 -14.5 4.05 -14.5 L4.05 -14.45 Q4.0 -14.45 4.0 -14.55 L4.0 -14.65 4.05 -14.7 4.15 -14.7 Q4.2 -14.6 4.2 -14.55 M7.05 -16.15 L7.0 -16.1 6.85 -16.05 Q6.65 -16.05 6.6 -16.15 L6.7 -16.25 Q6.8 -16.3 7.0 -16.25 L7.05 -16.15 M15.35 -11.5 Q15.3 -11.45 15.2 -11.45 L15.05 -11.45 15.0 -11.5 15.0 -11.55 Q15.0 -11.65 15.05 -11.7 L15.2 -11.75 Q15.35 -11.7 15.35 -11.6 L15.35 -11.5 M18.15 -8.75 L18.05 -8.65 17.9 -8.8 Q17.9 -8.95 18.0 -8.95 L18.15 -8.75 M14.35 -0.55 Q14.35 -0.65 14.4 -0.65 L14.45 -0.7 14.5 -0.65 14.6 -0.6 Q14.55 -0.5 14.45 -0.4 L14.35 -0.45 14.35 -0.55 M15.9 -2.9 L16.0 -2.85 Q16.05 -2.8 15.9 -2.8 L15.8 -2.8 15.8 -2.85 15.9 -2.9 M15.7 1.95 L15.65 2.05 15.6 1.95 15.6 1.9 15.65 1.9 15.7 1.95 M13.2 8.4 Q13.1 8.4 13.05 8.35 L13.2 8.25 13.4 8.25 13.2 8.4 M11.05 4.7 L10.8 4.7 10.7 4.65 Q10.7 4.75 10.7 4.6 10.7 4.5 10.85 4.5 11.0 4.5 11.15 4.55 L11.05 4.7 M0.9 3.25 L0.75 3.3 0.5 3.25 Q0.45 3.25 0.45 3.15 L0.5 3.1 Q0.7 3.1 0.9 3.2 L0.9 3.25 M11.35 8.5 L11.95 8.5 12.0 8.55 11.95 8.75 Q11.85 8.8 11.7 8.8 11.5 8.8 11.4 8.65 11.35 8.6 11.35 8.5 M7.4 8.3 L7.5 8.4 Q7.3 8.55 7.15 8.6 L7.0 8.55 6.95 8.5 6.95 8.4 Q6.95 8.35 7.05 8.3 L7.4 8.3 M-5.0 -10.4 L-5.1 -10.3 -5.25 -10.3 -5.25 -10.4 Q-5.25 -10.5 -5.15 -10.5 L-5.0 -10.45 -5.0 -10.4 M-7.95 -5.25 L-8.0 -5.2 Q-8.1 -5.3 -8.2 -5.45 L-8.3 -5.6 -8.25 -5.7 Q-8.2 -5.7 -8.2 -5.75 L-7.95 -5.25 M-4.6 0.4 Q-4.6 0.45 -4.7 0.45 -4.9 0.45 -5.05 0.15 L-5.05 0.1 -4.75 0.25 Q-4.65 0.3 -4.6 0.35 L-4.6 0.4" fill="#ffffff" fill-opacity="0.7529412" fill-rule="evenodd" stroke="none"/>
  </g>
</svg>
