<?xml version="1.0" encoding="UTF-8" standalone="no"?>
<svg xmlns:ffdec="https://www.free-decompiler.com/flash" xmlns:xlink="http://www.w3.org/1999/xlink" ffdec:objectType="shape" height="25.9px" width="28.05px" xmlns="http://www.w3.org/2000/svg">
  <g transform="matrix(1.0, 0.0, 0.0, 1.0, 9.0, 16.6)">
    <path d="M6.65 -16.05 L6.65 -16.1 Q6.6 -16.2 6.6 -16.35 L6.6 -16.5 6.65 -16.55 7.15 -16.55 Q7.35 -16.5 7.35 -16.25 L7.35 -16.1 7.3 -16.05 7.25 -15.95 Q7.2 -15.9 7.0 -15.9 L6.8 -15.95 6.65 -16.05 M10.95 -3.85 L11.0 -3.85 Q10.95 -3.8 10.8 -3.8 L10.6 -3.8 10.55 -3.9 10.55 -4.0 10.7 -4.05 10.85 -4.0 10.95 -3.85 M19.0 -9.15 L19.05 -9.0 19.0 -8.85 19.0 -8.8 Q19.0 -8.75 18.85 -8.75 18.65 -8.75 18.65 -8.8 L18.6 -8.9 Q18.6 -9.0 18.65 -9.1 18.75 -9.25 18.85 -9.25 L19.0 -9.15 M15.95 -11.5 L15.85 -11.3 15.7 -11.25 Q15.55 -11.3 15.45 -11.35 15.4 -11.35 15.4 -11.5 15.4 -11.65 15.5 -11.7 L15.7 -11.7 Q15.8 -11.65 15.95 -11.5 M18.5 -5.85 Q18.35 -5.65 18.15 -5.6 L18.0 -5.65 Q17.95 -5.7 17.95 -5.85 17.95 -6.1 17.95 -5.95 18.2 -6.0 18.5 -5.85 M16.2 -2.9 Q16.45 -2.8 16.5 -2.7 L16.4 -2.6 Q16.3 -2.55 16.2 -2.55 16.1 -2.6 16.05 -2.65 16.05 -2.75 16.1 -2.8 L16.2 -2.9 M14.05 8.75 L13.95 8.9 13.45 8.9 13.45 8.65 Q13.55 8.55 14.0 8.6 L14.05 8.75 M7.65 3.5 L7.65 3.55 Q7.7 3.6 7.7 3.75 L7.7 3.85 Q7.5 3.95 7.2 3.95 L7.15 3.9 Q7.1 3.85 7.1 3.7 7.1 3.55 7.35 3.5 L7.65 3.5 M11.6 4.9 L11.65 5.05 11.55 5.15 11.25 5.2 11.2 5.2 Q11.15 5.2 11.15 5.05 L11.2 4.9 11.6 4.9 M3.8 4.4 L3.8 4.5 Q3.7 4.55 3.55 4.6 3.4 4.55 3.35 4.5 L3.4 4.35 3.55 4.2 Q3.8 4.3 3.8 4.4 M4.15 7.65 Q3.95 7.8 3.75 7.8 L3.65 7.8 Q3.6 7.8 3.6 7.65 L3.6 7.55 3.85 7.5 Q3.95 7.5 4.1 7.6 L4.15 7.65 M11.65 9.05 Q11.65 8.9 11.75 8.85 L11.9 8.8 Q12.05 8.85 12.15 9.0 L12.05 9.25 11.9 9.3 11.7 9.25 Q11.65 9.2 11.65 9.05 M7.55 8.75 L7.45 8.9 6.95 8.9 6.95 8.6 7.5 8.6 7.55 8.75 M-8.55 -5.45 Q-8.6 -5.2 -8.75 -5.15 L-8.95 -5.2 -9.0 -5.45 Q-9.0 -5.6 -8.9 -5.65 L-8.7 -5.65 Q-8.55 -5.55 -8.55 -5.45 M-5.2 0.5 Q-5.4 0.5 -5.45 0.4 L-5.45 0.3 -5.3 0.3 Q-5.2 0.3 -5.05 0.35 -5.1 0.5 -5.2 0.5" fill="#ccfeff" fill-opacity="0.6" fill-rule="evenodd" stroke="none"/>
  </g>
</svg>
