<?xml version="1.0" encoding="UTF-8" standalone="no"?>
<svg xmlns:ffdec="https://www.free-decompiler.com/flash" xmlns:xlink="http://www.w3.org/1999/xlink" ffdec:objectType="shape" height="3.55px" width="11.25px" xmlns="http://www.w3.org/2000/svg">
  <g transform="matrix(1.0, 0.0, 0.0, 1.0, 6.1, 0.95)">
    <path d="M2.8 -0.2 L3.8 -0.55 3.85 -0.5 3.95 -0.45 3.7 -0.25 3.7 -0.2 3.6 -0.15 3.25 0.15 Q3.1 0.2 3.1 0.25 L3.35 0.2 3.75 0.15 4.1 0.1 4.35 0.05 4.75 0.1 4.8 0.05 Q4.9 0.0 4.95 0.1 5.0 0.05 5.0 0.15 L5.0 0.2 4.9 0.3 4.85 0.3 4.85 0.35 Q4.4 0.6 2.9 1.25 L1.35 1.9 0.7 2.2 -0.1 2.4 -0.05 2.35 0.15 2.2 0.05 2.2 -0.1 2.15 Q0.0 2.0 -0.05 2.0 L-0.1 2.0 0.0 1.75 0.1 1.55 0.0 1.35 0.0 1.15 -0.1 1.15 -0.1 1.1 0.45 0.65 0.15 0.6 Q0.2 0.5 0.1 0.45 L-0.15 0.45 -0.15 0.4 -0.1 0.35 -0.1 0.15 -0.2 0.15 -0.3 0.0 -0.4 -0.05 -0.2 -0.2 -0.15 -0.25 0.0 -0.35 Q0.1 -0.3 0.15 -0.15 L0.2 0.1 0.45 0.25 Q0.65 0.35 0.7 0.4 1.0 0.4 1.45 0.2 1.85 0.0 2.15 0.0 2.35 0.0 2.8 -0.2 M-2.5 2.15 L-2.15 2.4 Q-2.8 2.3 -3.3 2.15 L-3.5 2.05 -3.75 1.95 -4.0 1.8 -4.1 1.85 Q-4.25 1.85 -5.05 1.25 L-5.95 0.5 -5.95 0.35 -5.45 0.6 Q-4.85 0.85 -4.5 0.85 -4.45 0.85 -4.4 0.8 L-4.35 0.7 -4.2 0.75 -4.1 0.75 Q-3.8 0.75 -3.8 0.5 -3.8 0.45 -3.9 0.2 -3.85 0.15 -3.55 0.3 L-3.4 0.25 -3.4 0.0 Q-3.35 0.35 -3.35 0.55 -3.35 0.75 -3.25 0.95 L-3.1 1.3 -3.0 1.3 Q-2.85 1.6 -2.85 1.65 -2.85 1.8 -2.5 2.15" fill="#28a8d2" fill-rule="evenodd" stroke="none"/>
    <path d="M0.35 0.7 L0.3 0.7 0.0 0.95 Q-0.25 1.1 -0.25 1.15 L-0.25 1.2 -0.05 1.2 Q-0.05 1.25 0.0 1.35 L-0.05 1.45 0.05 1.55 -0.15 1.95 Q-0.3 2.2 -0.5 2.3 L-0.35 2.3 -0.1 2.25 -0.25 2.35 -0.4 2.4 -1.25 2.45 -1.95 2.4 -2.75 1.7 Q-2.9 1.6 -2.9 1.35 L-2.95 0.95 -3.0 0.95 -3.05 1.2 -3.2 0.75 -3.25 0.75 -3.25 0.8 -3.3 0.85 Q-3.3 0.5 -3.35 -0.2 L-3.35 -0.45 -3.4 -0.4 Q-3.3 -0.7 -2.95 -0.8 L-2.5 -0.75 -2.3 -0.65 -2.15 -0.35 Q-2.0 -0.2 -1.75 -0.2 L-1.25 -0.25 Q-0.75 -0.25 -0.3 -0.35 L-0.2 -0.35 -0.2 -0.3 Q-0.5 -0.1 -0.5 0.0 L-0.5 0.05 Q-0.35 0.05 -0.25 0.15 L-0.15 0.25 -0.15 0.35 -0.2 0.5 0.15 0.5 0.05 0.65 0.15 0.65 0.35 0.7" fill="#90e6ff" fill-rule="evenodd" stroke="none"/>
    <path d="M2.15 -0.15 Q2.35 -0.15 2.75 -0.3 3.4 -0.55 3.75 -0.65 L3.9 -0.65 4.05 -0.55 4.05 -0.4 3.8 -0.1 3.7 0.0 3.75 0.0 4.1 -0.05 4.75 -0.05 5.0 -0.1 Q5.1 -0.1 5.1 0.05 L5.15 0.15 5.1 0.25 Q5.1 0.35 4.95 0.45 L4.9 0.45 Q4.5 0.75 2.95 1.4 L1.5 2.0 1.45 2.05 Q0.9 2.3 0.7 2.35 -0.05 2.6 -1.25 2.6 -2.45 2.6 -3.35 2.25 L-3.55 2.2 -3.8 2.05 -4.0 2.0 -4.1 2.0 Q-4.25 2.0 -5.15 1.35 L-6.05 0.6 -6.1 0.55 -6.1 0.5 Q-6.1 0.35 -6.05 0.3 L-6.0 0.2 -5.9 0.25 -5.4 0.45 Q-4.8 0.7 -4.5 0.7 L-4.5 0.65 -4.45 0.6 -4.35 0.55 -4.2 0.6 -4.0 0.6 -3.95 0.5 -4.05 0.25 -4.05 0.15 -4.0 0.1 Q-3.9 0.0 -3.55 0.15 L-3.55 -0.35 Q-3.5 -0.75 -3.0 -0.95 L-2.95 -0.95 -2.45 -0.85 -2.3 -0.8 -2.2 -0.75 -2.15 -0.7 -2.0 -0.45 Q-1.95 -0.35 -1.75 -0.35 L-1.3 -0.35 -1.2 -0.4 Q-0.75 -0.35 -0.3 -0.5 L0.1 -0.5 Q0.2 -0.4 0.25 -0.15 L0.3 0.05 0.35 0.05 0.5 0.1 0.75 0.25 Q1.0 0.25 1.4 0.05 1.8 -0.15 2.15 -0.15 M2.8 -0.2 Q2.35 0.0 2.15 0.0 1.85 0.0 1.45 0.2 1.0 0.4 0.7 0.4 0.65 0.35 0.45 0.25 L0.2 0.1 0.15 -0.15 Q0.1 -0.3 0.0 -0.35 L-0.15 -0.25 -0.2 -0.2 -0.4 -0.05 -0.3 0.0 -0.2 0.15 -0.1 0.15 -0.1 0.35 -0.15 0.4 -0.15 0.45 0.1 0.45 Q0.2 0.5 0.15 0.6 L0.45 0.65 -0.1 1.1 -0.1 1.15 0.0 1.15 0.0 1.35 0.1 1.55 0.0 1.75 -0.1 2.0 -0.05 2.0 Q0.0 2.0 -0.1 2.15 L0.05 2.2 0.15 2.2 -0.05 2.35 -0.1 2.4 0.7 2.2 1.35 1.9 2.9 1.25 Q4.4 0.6 4.85 0.35 L4.85 0.3 4.9 0.3 5.0 0.2 5.0 0.15 Q5.0 0.05 4.95 0.1 4.9 0.0 4.8 0.05 L4.75 0.1 4.35 0.05 4.1 0.1 3.75 0.15 3.35 0.2 3.1 0.25 Q3.1 0.2 3.25 0.15 L3.6 -0.15 3.7 -0.2 3.7 -0.25 3.95 -0.45 3.85 -0.5 3.8 -0.55 2.8 -0.2 M0.35 0.7 L0.15 0.65 0.05 0.65 0.15 0.5 -0.2 0.5 -0.15 0.35 -0.15 0.25 -0.25 0.15 Q-0.35 0.05 -0.5 0.05 L-0.5 0.0 Q-0.5 -0.1 -0.2 -0.3 L-0.2 -0.35 -0.3 -0.35 Q-0.75 -0.25 -1.25 -0.25 L-1.75 -0.2 Q-2.0 -0.2 -2.15 -0.35 L-2.3 -0.65 -2.5 -0.75 -2.95 -0.8 Q-3.3 -0.7 -3.4 -0.4 L-3.35 -0.45 -3.35 -0.2 Q-3.3 0.5 -3.3 0.85 L-3.25 0.8 -3.25 0.75 -3.2 0.75 -3.05 1.2 -3.0 0.95 -2.95 0.95 -2.9 1.35 Q-2.9 1.6 -2.75 1.7 L-1.95 2.4 -1.25 2.45 -0.4 2.4 -0.25 2.35 -0.1 2.25 -0.35 2.3 -0.5 2.3 Q-0.3 2.2 -0.15 1.95 L0.05 1.55 -0.05 1.45 0.0 1.35 Q-0.05 1.25 -0.05 1.2 L-0.25 1.2 -0.25 1.15 Q-0.25 1.1 0.0 0.95 L0.3 0.7 0.35 0.7 M-2.5 2.15 Q-2.85 1.8 -2.85 1.65 -2.85 1.6 -3.0 1.3 L-3.1 1.3 -3.25 0.95 Q-3.35 0.75 -3.35 0.55 -3.35 0.35 -3.4 0.0 L-3.4 0.25 -3.55 0.3 Q-3.85 0.15 -3.9 0.2 -3.8 0.45 -3.8 0.5 -3.8 0.75 -4.1 0.75 L-4.2 0.75 -4.35 0.7 -4.4 0.8 Q-4.45 0.85 -4.5 0.85 -4.85 0.85 -5.45 0.6 L-5.95 0.35 -5.95 0.5 -5.05 1.25 Q-4.25 1.85 -4.1 1.85 L-4.0 1.8 -3.75 1.95 -3.5 2.05 -3.3 2.15 Q-2.8 2.3 -2.15 2.4 L-2.5 2.15" fill="#4fcfec" fill-rule="evenodd" stroke="none"/>
  </g>
</svg>
