<?xml version="1.0" encoding="UTF-8" standalone="no"?>
<svg xmlns:ffdec="https://www.free-decompiler.com/flash" xmlns:xlink="http://www.w3.org/1999/xlink" ffdec:objectType="shape" height="10.65px" width="16.1px" xmlns="http://www.w3.org/2000/svg">
  <g transform="matrix(1.0, 0.0, 0.0, 1.0, 10.55, 2.8)">
    <path d="M-8.05 -0.15 L-7.95 -0.1 Q-8.0 -0.05 -8.05 -0.05 L-8.1 -0.05 Q-8.2 -0.05 -8.25 0.05 -8.3 0.1 -8.4 0.1 -8.6 0.1 -8.45 -0.05 -8.3 -0.25 -8.2 -0.25 -8.15 -0.25 -8.05 -0.15 M-5.05 -2.45 L-5.2 -2.45 Q-5.3 -2.45 -5.4 -2.35 -5.5 -2.3 -5.5 -2.2 L-5.45 -2.05 Q-5.45 -1.95 -5.45 -1.9 -5.45 -1.75 -5.55 -1.65 -5.6 -1.6 -5.65 -1.6 -5.7 -1.6 -5.7 -1.9 L-5.7 -2.4 Q-5.7 -2.6 -5.45 -2.7 L-5.2 -2.8 Q-4.85 -2.65 -4.8 -2.55 -4.8 -2.45 -4.75 -2.4 -4.75 -2.25 -4.65 -2.25 -4.6 -2.25 -4.55 -2.4 -4.5 -2.55 -4.4 -2.55 -4.3 -2.55 -4.15 -2.5 -3.95 -2.35 -3.85 -2.3 L-3.9 -2.25 Q-3.9 -2.2 -3.95 -2.2 L-4.05 -2.25 Q-4.15 -2.35 -4.2 -2.35 -4.3 -2.35 -4.4 -2.25 -4.55 -2.15 -4.65 -2.15 -4.7 -2.15 -4.8 -2.2 -4.9 -2.25 -5.0 -2.25 L-5.0 -2.35 -5.05 -2.4 -5.05 -2.45 M-6.0 -1.65 L-5.8 -1.45 -5.85 -1.4 Q-5.85 -1.35 -5.9 -1.35 -5.95 -1.35 -5.95 -1.4 -5.95 -1.45 -6.0 -1.45 -6.15 -1.45 -6.3 -1.35 -6.5 -1.25 -6.5 -1.15 L-6.45 -1.1 -6.35 -1.2 Q-6.3 -1.2 -6.3 -1.1 -6.3 -1.0 -6.5 -0.85 -6.6 -0.8 -6.7 -0.75 -6.6 -0.65 -6.6 -0.6 -6.6 -0.5 -6.6 -0.45 L-6.65 -0.35 Q-6.65 -0.25 -6.55 -0.15 -6.5 -0.05 -6.5 0.0 -6.5 0.05 -6.6 0.15 -6.65 0.2 -6.7 0.2 L-6.8 0.2 Q-6.85 0.1 -6.8 -0.25 -6.75 -0.5 -6.9 -0.6 -7.05 -0.8 -6.95 -0.9 -6.75 -1.0 -6.75 -1.05 -6.8 -1.1 -6.8 -1.2 -6.8 -1.4 -6.75 -1.5 -6.7 -1.55 -6.65 -1.55 -6.5 -1.55 -6.4 -1.65 -6.3 -1.75 -6.15 -1.75 -6.1 -1.75 -6.0 -1.65 M-5.3 -1.25 Q-5.3 -1.2 -5.35 -1.1 L-5.4 -1.1 Q-5.4 -1.05 -5.45 -1.0 L-5.5 -1.0 -5.5 -1.05 -5.55 -1.05 -5.55 -1.1 -5.35 -1.3 -5.3 -1.3 -5.3 -1.25 M-3.15 -2.05 Q-3.2 -2.0 -3.4 -1.9 -3.6 -1.8 -3.7 -1.8 -3.75 -1.8 -3.75 -1.85 -3.75 -1.9 -3.7 -1.95 -3.55 -2.1 -3.15 -2.05 M-2.85 -2.3 Q-2.7 -2.4 -2.5 -2.4 L-2.45 -2.4 -2.4 -2.35 Q-2.35 -2.25 -2.35 -2.2 L-2.6 -2.15 Q-2.8 -2.1 -2.9 -2.0 L-2.95 -1.8 Q-3.0 -1.65 -3.0 -1.6 L-3.05 -1.65 Q-3.1 -1.65 -3.1 -1.8 -3.1 -2.15 -2.85 -2.3 M-4.1 -1.9 L-4.1 -1.8 -4.15 -1.75 -4.0 -1.75 -4.3 -1.65 -4.4 -1.65 Q-4.4 -1.75 -4.3 -1.85 L-4.15 -1.9 -4.1 -1.9 M-1.95 -2.1 Q-1.95 -2.05 -2.05 -2.05 -2.1 -2.05 -2.15 -2.1 L-2.05 -2.15 -2.0 -2.2 -1.95 -2.2 -1.95 -2.1 M-2.0 -1.75 L-2.2 -1.55 Q-2.3 -1.45 -2.45 -1.4 -2.5 -1.55 -2.35 -1.75 -2.2 -1.9 -2.1 -1.9 L-2.05 -1.85 -2.0 -1.85 -2.0 -1.75 M-4.9 1.75 L-4.85 1.8 -4.85 1.85 -4.95 1.95 -5.0 1.9 Q-5.0 1.8 -4.95 1.8 L-4.9 1.75 M-4.5 2.2 L-4.4 2.2 -4.4 2.3 Q-4.4 2.35 -4.4 2.4 L-4.5 2.45 -4.55 2.45 Q-4.55 2.4 -4.5 2.35 -4.5 2.3 -4.5 2.25 L-4.5 2.2 M-3.4 4.65 L-3.3 4.65 Q-3.25 4.65 -3.25 4.7 L-3.2 4.75 Q-3.25 4.75 -3.3 4.75 L-3.4 4.75 Q-3.45 4.75 -3.45 4.7 L-3.4 4.65 M-3.85 4.25 Q-3.85 4.4 -3.85 4.45 L-3.8 4.45 Q-3.8 4.5 -3.8 4.55 L-3.8 4.6 -3.85 4.6 -3.95 4.5 -4.0 4.4 Q-4.0 4.3 -3.95 4.25 -4.0 4.25 -3.9 4.25 L-3.85 4.25 M-4.8 6.35 L-4.8 6.45 -4.6 6.55 Q-4.5 6.55 -4.45 6.7 L-4.35 6.7 -4.2 6.75 Q-4.15 6.75 -4.15 6.7 -4.15 6.6 -4.05 6.6 L-3.95 6.55 Q-3.9 6.55 -3.8 6.5 -3.7 6.45 -3.65 6.45 L-3.55 6.45 -3.55 6.6 Q-3.55 6.65 -3.65 6.65 L-3.75 6.7 Q-3.8 6.7 -3.9 6.75 L-3.95 6.85 Q-4.05 6.9 -4.15 6.95 -4.3 7.0 -4.4 7.0 L-4.6 6.95 Q-4.7 6.95 -4.7 6.85 -4.7 6.65 -4.9 6.65 -5.15 6.7 -5.2 6.6 L-5.2 6.5 -5.1 6.4 Q-5.1 6.3 -5.1 6.2 L-5.05 6.15 Q-5.0 6.15 -4.95 6.15 L-4.9 6.15 -4.8 6.2 Q-4.8 6.25 -4.8 6.3 L-4.8 6.35 M-3.05 6.0 L-2.95 5.95 -2.85 6.1 Q-2.9 6.2 -2.95 6.2 -3.0 6.2 -3.05 6.1 L-3.05 6.0 M-1.75 5.1 Q-1.9 5.2 -1.95 5.2 L-2.05 5.05 -2.3 5.1 Q-2.4 5.1 -2.5 5.0 -2.65 4.85 -2.45 4.75 -2.35 4.85 -2.1 4.9 -1.85 4.95 -1.75 5.0 L-1.75 5.1 M-2.35 6.2 L-2.3 6.2 Q-2.25 6.2 -2.2 6.25 L-2.15 6.35 -1.9 6.35 Q-1.85 6.35 -1.7 6.5 L-1.5 6.65 Q-1.5 6.8 -1.55 6.85 L-1.45 7.2 -1.4 7.35 Q-1.25 7.55 -1.2 7.5 -1.2 7.45 -1.1 7.45 L-1.0 7.5 Q-0.95 7.55 -0.9 7.55 L-0.6 7.4 Q-0.5 7.4 -0.5 7.6 -0.5 7.7 -0.65 7.8 -0.75 7.85 -0.8 7.85 -0.9 7.85 -1.0 7.75 -1.1 7.65 -1.2 7.65 L-1.35 7.75 Q-1.5 7.8 -1.6 7.8 -1.7 7.8 -1.7 7.5 L-1.65 7.2 -1.9 6.8 Q-1.9 6.75 -1.8 6.45 L-2.2 6.55 Q-2.3 6.55 -2.35 6.45 -2.4 6.35 -2.35 6.25 L-2.35 6.2 M-1.7 5.9 Q-1.75 5.8 -1.75 5.7 L-1.7 5.65 Q-1.7 5.55 -1.65 5.55 L-1.25 5.85 Q-1.15 5.85 -0.95 5.75 -0.75 5.65 -0.6 5.7 -0.6 5.6 -0.65 5.55 L-0.65 5.45 Q-0.5 5.35 -0.3 5.25 0.0 5.15 0.05 5.1 0.1 5.1 0.1 5.15 L0.15 5.2 Q0.15 5.35 -0.1 5.4 -0.35 5.5 -0.45 5.45 L-0.5 5.5 Q-0.5 5.55 -0.45 5.8 -0.5 5.85 -0.55 5.9 L-0.65 5.9 Q-0.7 5.9 -0.7 5.85 -0.75 5.85 -0.8 5.85 -0.9 5.85 -1.1 5.95 -1.25 6.05 -1.35 6.05 -1.55 6.05 -1.7 5.9 M-6.05 0.65 L-6.05 0.6 -6.0 0.55 -5.9 0.55 -5.8 0.45 -5.7 0.5 Q-5.75 0.7 -5.95 0.7 -6.0 0.7 -6.05 0.65 M-6.1 0.9 Q-6.05 0.9 -6.05 0.95 L-6.0 1.05 Q-6.05 1.15 -6.1 1.2 -6.15 1.25 -6.2 1.25 -6.25 1.2 -6.2 1.05 -6.15 0.95 -6.1 0.9 M-7.25 0.3 Q-7.25 0.35 -7.4 0.5 -7.55 0.6 -7.55 0.75 L-7.5 0.85 Q-7.45 0.95 -7.45 1.1 L-7.45 1.15 -7.5 1.15 -7.6 1.05 -7.7 0.85 -7.8 0.75 Q-7.85 0.7 -7.8 0.6 -7.5 0.25 -7.3 0.3 L-7.25 0.3 M-6.4 2.95 Q-6.35 2.95 -6.3 3.0 L-6.25 3.05 Q-6.25 3.15 -6.3 3.15 L-6.35 3.15 -6.35 3.25 Q-6.4 3.35 -6.45 3.35 L-6.35 3.45 -6.35 3.6 Q-6.4 3.65 -6.5 3.65 L-6.55 3.65 -6.55 3.45 Q-6.65 3.5 -6.75 3.45 -6.85 3.35 -6.75 3.25 -6.7 3.2 -6.55 3.05 L-6.4 2.95 M-5.75 2.8 Q-5.7 2.8 -5.65 2.9 L-5.9 3.2 Q-5.95 3.25 -6.05 3.25 -6.2 3.25 -6.1 3.0 -6.0 2.75 -5.85 2.75 -5.8 2.75 -5.75 2.8 M-8.05 0.65 Q-8.1 0.75 -8.15 0.8 -8.2 0.9 -8.25 0.9 -8.3 0.8 -8.2 0.7 L-8.15 0.6 -8.1 0.6 -8.05 0.65 M-8.6 0.35 L-8.6 0.65 -8.65 0.7 Q-8.65 0.75 -8.7 0.75 -8.75 0.75 -8.75 0.5 -8.75 0.25 -8.65 0.25 L-8.55 0.25 -8.55 0.3 -8.6 0.35 M-9.25 0.65 L-9.35 0.75 Q-9.45 0.85 -9.45 0.75 L-9.45 0.85 Q-9.6 0.95 -9.65 0.95 L-9.8 0.9 -10.0 0.9 Q-10.0 1.0 -10.1 1.05 L-10.25 1.2 -10.2 1.25 Q-10.2 1.3 -10.2 1.35 L-10.25 1.4 Q-10.3 1.4 -10.35 1.3 -10.4 1.2 -10.4 1.15 -10.4 1.05 -10.3 1.05 L-10.3 0.9 Q-10.25 0.85 -10.1 0.8 L-9.9 0.8 -9.75 0.85 Q-9.65 0.85 -9.65 0.75 -9.65 0.65 -9.5 0.6 L-9.4 0.55 Q-9.25 0.5 -9.2 0.5 L-9.15 0.5 -9.15 0.55 -9.1 0.6 -9.1 0.7 -9.15 0.65 -9.25 0.65 M-9.45 1.25 L-9.4 1.35 Q-9.45 1.4 -9.55 1.45 -9.65 1.5 -9.75 1.5 -9.75 1.4 -9.65 1.35 -9.5 1.3 -9.45 1.25 M-9.8 2.0 L-9.65 2.15 -9.7 2.25 Q-9.7 2.3 -9.75 2.3 -9.8 2.3 -9.85 2.25 -9.85 2.2 -9.85 2.15 -9.85 2.05 -9.8 2.0 M-9.95 3.2 L-9.95 3.25 Q-10.1 3.1 -10.1 2.95 -10.1 2.75 -9.95 2.6 -9.95 2.75 -9.95 2.95 L-9.95 3.2 M-5.25 4.0 L-5.2 4.0 Q-5.2 4.1 -5.2 4.15 -5.2 4.2 -5.2 4.25 -5.25 4.25 -5.25 4.3 L-5.3 4.3 -5.35 4.2 -5.4 4.2 -5.35 4.05 -5.3 4.0 Q-5.3 3.95 -5.25 3.95 L-5.25 4.0 M-5.65 4.75 Q-5.55 4.85 -5.6 5.05 -5.6 5.15 -5.65 5.2 L-5.75 5.25 Q-5.8 5.3 -5.8 5.35 L-5.85 5.45 Q-5.85 5.55 -5.8 5.6 -5.7 5.65 -5.65 5.7 L-5.55 5.8 Q-5.45 5.8 -5.45 5.9 L-5.55 5.95 Q-5.6 6.0 -5.65 6.0 L-5.7 5.95 Q-5.75 5.85 -5.8 5.85 L-6.0 5.9 -6.15 5.95 Q-6.2 5.95 -6.2 5.9 L-6.25 5.65 Q-6.25 5.55 -6.0 5.3 L-5.75 5.0 -5.75 4.95 -5.85 4.75 -5.75 4.65 Q-5.7 4.65 -5.65 4.75 M-6.9 4.0 L-6.85 4.0 -6.85 4.15 Q-6.85 4.2 -6.9 4.25 L-6.95 4.35 Q-6.95 4.5 -6.8 4.55 -6.65 4.6 -6.65 4.7 L-6.65 4.75 -6.85 4.9 Q-6.85 4.95 -6.95 4.95 -7.05 4.95 -7.2 4.75 -7.35 4.55 -7.4 4.45 L-7.4 4.2 -7.2 4.1 Q-7.05 3.95 -7.0 3.95 -6.95 3.95 -6.9 4.0 M-5.45 5.3 L-5.4 5.4 Q-5.4 5.45 -5.35 5.5 L-5.4 5.5 -5.45 5.55 -5.5 5.45 Q-5.5 5.4 -5.5 5.35 L-5.45 5.3 M-0.15 7.0 L-0.15 7.05 -0.1 7.15 Q-0.25 7.2 -0.3 7.2 -0.45 7.2 -0.45 7.1 -0.4 6.95 -0.25 6.95 -0.2 6.95 -0.15 7.0 M-10.55 1.85 Q-10.55 1.75 -10.45 1.7 -10.4 1.6 -10.35 1.6 L-10.3 1.6 Q-10.25 1.65 -10.25 1.7 -10.25 1.85 -10.3 1.85 -10.35 1.9 -10.45 2.05 L-10.5 2.05 Q-10.55 2.0 -10.55 1.85 M5.35 3.75 L5.45 3.75 5.5 3.8 5.5 3.9 Q5.55 3.9 5.55 3.95 5.55 4.35 5.35 4.6 5.2 4.75 5.05 4.75 4.95 4.75 4.9 4.65 L5.2 4.25 Q5.3 4.2 5.3 3.9 5.3 3.8 5.35 3.75 M5.4 3.95 L5.4 3.95 M3.95 3.05 L4.0 3.2 3.7 3.3 Q3.65 3.3 3.7 3.15 3.8 3.0 3.9 3.0 4.0 3.0 3.95 3.05 M0.5 5.9 Q0.6 5.8 0.65 5.8 L0.75 5.8 0.9 5.75 Q1.0 5.75 1.15 5.55 1.3 5.4 1.4 5.35 L1.45 5.4 1.45 5.55 1.15 5.95 Q1.1 6.05 0.9 6.05 L0.7 5.9 Q0.65 5.95 0.5 6.05 0.35 6.1 0.3 6.1 0.15 6.1 0.05 6.0 -0.15 5.9 0.0 5.8 L0.05 5.8 0.05 5.85 Q0.05 5.9 0.15 5.95 L0.1 5.9 0.4 5.8 0.5 5.85 0.5 5.9 M1.8 6.25 Q1.95 6.2 2.1 6.1 L2.05 6.0 Q2.0 5.95 2.0 5.9 2.0 5.85 2.05 5.8 L2.1 5.75 Q2.15 5.7 2.25 5.7 L2.3 5.7 2.35 5.65 Q2.5 5.55 2.55 5.4 2.55 5.3 2.7 5.3 2.75 5.3 2.75 5.35 L2.8 5.4 2.85 5.55 Q2.9 5.7 2.9 5.75 2.9 5.8 2.7 6.05 L2.5 6.25 2.55 6.4 Q2.5 6.6 2.25 6.65 2.1 6.75 1.95 6.75 1.85 6.75 1.75 6.65 1.6 6.55 1.5 6.55 1.25 6.7 1.2 6.7 1.15 6.7 1.15 6.65 1.1 6.6 1.1 6.55 L1.1 6.5 1.15 6.4 Q1.15 6.35 1.25 6.25 L1.35 6.2 1.45 6.3 1.55 6.25 Q1.6 6.2 1.65 6.2 L1.8 6.25 M4.55 4.0 L4.75 3.7 Q4.8 3.75 4.8 3.8 L4.6 4.15 Q4.5 4.3 4.35 4.3 4.3 4.3 4.3 4.25 L4.3 4.2 4.55 4.0 M2.85 3.9 Q2.9 3.95 2.9 4.0 2.9 4.05 2.85 4.15 L2.7 4.2 2.65 4.2 Q2.65 4.1 2.7 4.0 2.75 3.85 2.8 3.85 L2.85 3.9 M3.4 5.1 L3.35 5.2 3.6 5.3 Q3.75 5.4 3.85 5.4 L3.95 5.35 4.1 5.3 4.1 5.35 Q4.1 5.55 4.0 5.65 3.95 5.65 3.8 5.65 3.7 5.65 3.65 5.55 3.55 5.45 3.45 5.45 L3.25 5.45 Q3.1 5.45 3.1 5.3 3.1 5.25 3.15 5.25 3.2 5.2 3.2 5.15 L3.2 5.1 3.15 5.15 Q3.0 5.15 2.9 5.2 2.85 5.25 2.75 5.25 2.6 5.25 2.6 5.05 2.6 4.9 2.75 4.9 2.9 4.9 3.0 4.9 L3.2 4.85 Q3.3 4.85 3.35 4.95 3.45 5.05 3.4 5.1 M0.7 6.75 Q0.7 7.05 0.45 7.2 0.15 7.4 0.05 7.3 0.05 7.2 0.2 7.15 L0.45 7.0 Q0.45 6.8 0.5 6.75 0.55 6.7 0.65 6.65 0.7 6.7 0.7 6.75" fill="#c5edfe" fill-rule="evenodd" stroke="none"/>
  </g>
</svg>
