<?xml version="1.0" encoding="UTF-8" standalone="no"?>
<svg xmlns:ffdec="https://www.free-decompiler.com/flash" xmlns:xlink="http://www.w3.org/1999/xlink" ffdec:objectType="shape" height="9.0px" width="14.8px" xmlns="http://www.w3.org/2000/svg">
  <g transform="matrix(1.0, 0.0, 0.0, 1.0, 9.95, 2.05)">
    <path d="M1.9 -1.05 Q1.9 -0.8 1.75 -0.85 L1.7 -0.85 Q1.7 -0.9 1.7 -0.95 1.7 -1.05 1.75 -1.1 1.75 -1.15 1.8 -1.15 L1.85 -1.15 1.9 -1.05 M2.25 -0.05 L2.3 0.05 Q2.35 0.05 2.4 0.15 2.45 0.25 2.45 0.4 2.45 0.55 2.4 0.6 2.3 0.65 2.3 0.7 2.3 0.65 2.25 0.65 L2.25 0.55 Q2.25 0.5 2.25 0.45 L2.3 0.4 Q2.25 0.2 2.15 0.1 L2.05 0.1 2.05 0.05 Q1.95 -0.05 2.0 -0.25 2.05 -0.4 2.15 -0.4 2.25 -0.4 2.25 -0.25 L2.3 -0.1 2.25 -0.05 M3.95 1.05 L4.0 1.3 3.95 1.3 3.9 1.35 Q3.85 1.35 3.8 1.3 L3.8 1.25 Q3.8 1.15 3.85 1.1 3.85 1.05 3.9 1.0 3.95 1.0 3.95 1.05 M3.75 1.55 L3.8 1.65 Q3.75 1.75 3.65 1.85 3.6 1.85 3.5 1.85 3.45 1.85 3.45 1.75 3.4 1.65 3.5 1.6 L3.6 1.55 3.75 1.5 3.75 1.55 M3.6 2.4 L3.65 2.4 3.7 2.5 3.7 2.6 Q3.65 2.85 3.45 3.0 3.25 3.15 3.15 3.05 L3.15 2.9 3.3 2.75 Q3.45 2.65 3.4 2.5 3.5 2.4 3.6 2.4 M2.05 0.65 Q1.95 0.7 1.85 0.8 1.8 0.85 1.65 0.85 L1.5 0.85 1.4 0.8 1.35 0.6 1.35 0.55 1.25 0.55 Q1.2 0.55 1.15 0.5 L1.15 0.45 1.4 0.4 1.45 0.45 Q1.45 0.55 1.5 0.6 L1.6 0.6 1.75 0.65 2.05 0.65 M0.25 1.55 L0.25 1.65 Q0.05 1.75 -0.1 1.75 L-0.2 1.7 Q-0.25 1.65 -0.3 1.65 -0.35 1.65 -0.4 1.65 L-0.5 1.7 Q-0.6 1.7 -0.65 1.6 -0.7 1.45 -0.6 1.4 L-0.6 1.3 -0.55 1.3 -0.55 1.35 Q-0.5 1.4 -0.5 1.45 -0.25 1.55 -0.2 1.55 L0.1 1.55 0.2 1.45 0.25 1.5 0.25 1.55 M1.95 3.95 Q2.0 3.7 2.15 3.6 2.3 3.45 2.45 3.45 2.55 3.45 2.65 3.5 2.75 3.55 2.75 3.7 L2.75 3.75 Q2.7 3.8 2.7 3.85 2.55 4.0 2.45 3.95 L2.35 3.95 2.2 4.0 1.95 3.95 M1.3 4.0 L1.35 4.05 Q1.35 4.15 1.25 4.3 L1.1 4.5 1.05 4.5 1.0 4.6 1.0 4.65 0.95 4.65 Q0.95 4.75 1.0 4.75 1.0 4.8 1.0 4.9 L1.1 4.95 Q1.15 5.0 1.2 5.0 L1.3 4.95 Q1.35 4.95 1.4 4.95 L1.6 5.0 1.75 5.0 Q1.85 5.0 1.95 4.95 L2.3 4.65 2.35 4.65 Q2.4 4.7 2.35 4.75 2.35 4.85 2.35 4.95 L2.35 5.05 Q2.3 5.35 1.95 5.6 1.7 5.8 1.5 5.8 1.35 5.8 1.2 5.65 1.05 5.5 0.95 5.5 0.9 5.5 0.75 5.6 0.6 5.65 0.5 5.65 L0.4 5.6 0.25 5.5 0.25 5.35 Q0.25 5.3 0.35 5.2 L0.5 5.15 0.45 5.05 0.3 4.95 0.2 5.0 0.1 5.1 -0.1 5.05 -0.25 5.0 Q-0.35 5.0 -0.45 5.1 -0.6 5.25 -0.6 5.35 L-0.55 5.5 -0.4 5.55 Q-0.3 5.55 -0.25 5.6 L-0.2 5.95 Q-0.1 6.05 -0.05 6.05 L0.25 6.05 Q0.25 6.0 0.35 5.95 L0.5 5.95 Q0.55 5.95 0.55 6.0 L0.6 6.0 Q0.65 6.0 0.65 6.05 L0.6 6.1 0.6 6.2 Q0.6 6.4 0.4 6.55 L0.1 6.75 Q-0.05 6.8 -0.2 6.9 -0.25 6.95 -0.45 6.95 -0.65 6.95 -0.7 6.85 -0.8 6.75 -1.05 6.75 -1.2 6.75 -1.3 6.3 -1.35 5.9 -1.55 5.9 -1.6 5.9 -1.85 6.0 L-2.0 6.0 -2.0 6.05 -2.1 6.05 -2.1 6.0 -2.15 6.0 -2.15 5.95 -2.2 5.8 -2.15 5.8 -2.15 5.7 -1.9 5.65 -1.7 5.6 Q-1.65 5.6 -1.4 5.5 -1.2 5.45 -1.15 5.4 L-1.15 5.3 -1.4 5.15 Q-1.6 5.0 -1.65 5.0 -1.8 5.0 -1.9 4.95 -2.1 4.75 -2.2 4.65 L-2.25 4.5 -2.0 4.35 Q-1.95 4.35 -1.85 4.4 L-1.75 4.5 -1.5 4.55 Q-1.3 4.65 -1.2 4.65 L-1.0 4.5 -0.8 4.3 Q-0.75 4.25 -0.6 4.2 -0.45 4.1 -0.4 4.1 -0.35 4.1 -0.3 4.2 L-0.2 4.25 0.0 4.3 Q0.15 4.3 0.3 4.25 0.45 4.15 0.55 4.15 0.6 4.15 0.65 4.2 0.65 4.25 0.7 4.25 L0.8 4.25 Q0.9 4.25 1.0 4.1 1.1 3.95 1.2 3.95 L1.25 4.0 1.3 4.0 M4.7 3.25 Q4.7 3.3 4.75 3.3 L4.85 3.4 4.85 3.5 Q4.8 3.55 4.8 3.7 4.8 3.75 4.7 4.1 L4.6 4.2 Q4.5 4.25 4.5 4.3 4.45 4.45 4.4 4.55 4.35 4.7 4.25 4.7 3.8 4.9 3.75 4.9 3.7 4.9 3.65 4.85 L3.6 4.8 Q3.55 4.8 3.5 4.85 3.45 4.9 3.4 4.9 3.3 4.9 3.2 4.85 L2.95 4.75 Q2.9 4.7 2.9 4.65 2.9 4.6 2.95 4.5 2.95 4.45 2.95 4.4 2.95 4.35 2.9 4.3 2.85 4.2 2.75 4.2 L2.85 4.2 2.85 4.05 2.9 4.0 3.0 3.95 3.2 4.0 Q3.4 4.0 3.5 4.05 3.5 4.1 3.6 4.15 3.65 4.25 3.7 4.25 L3.9 4.15 4.0 4.15 4.1 4.2 Q4.4 3.95 4.45 3.85 L4.55 3.6 Q4.6 3.45 4.6 3.25 L4.7 3.25 M4.35 3.7 Q4.3 3.95 4.1 4.0 3.95 4.0 3.85 3.95 L3.85 3.8 Q3.9 3.6 4.0 3.5 4.15 3.4 4.2 3.4 L4.3 3.45 4.35 3.7 M-5.2 -0.65 L-5.05 -0.75 -4.95 -0.9 Q-4.9 -0.95 -4.8 -0.95 L-4.7 -1.0 Q-4.7 -1.05 -4.8 -1.1 -4.85 -1.2 -4.85 -1.3 -4.85 -1.5 -4.5 -1.6 -4.25 -1.7 -4.1 -1.7 L-3.95 -1.65 -3.8 -1.65 Q-3.75 -1.65 -3.8 -1.6 -3.8 -1.55 -3.75 -1.55 L-3.65 -1.6 -3.5 -1.65 -3.3 -1.65 -3.1 -1.95 Q-3.05 -2.05 -2.9 -2.05 L-2.75 -2.0 -2.45 -2.05 -2.35 -2.0 -2.3 -2.0 Q-2.2 -2.0 -2.05 -1.95 L-1.7 -1.85 -1.7 -1.75 Q-1.7 -1.7 -1.7 -1.65 L-1.75 -1.6 -1.65 -1.55 -1.55 -1.55 Q-1.5 -1.55 -1.45 -1.5 L-1.45 -1.45 -1.4 -1.4 -1.4 -1.3 Q-1.4 -1.25 -1.45 -1.25 L-1.5 -1.25 -1.5 -1.2 -1.55 -1.2 -1.6 -1.25 -1.65 -1.25 Q-1.75 -1.2 -2.05 -1.2 L-2.15 -1.25 -2.3 -1.3 -2.15 -1.45 -2.25 -1.5 -2.35 -1.5 Q-2.5 -1.5 -2.8 -1.35 -3.1 -1.15 -3.1 -0.95 -3.15 -0.85 -3.3 -0.8 -3.4 -0.7 -3.5 -0.7 L-3.6 -0.75 Q-3.65 -0.8 -3.7 -0.8 -3.75 -0.8 -3.95 -0.6 -4.1 -0.4 -4.15 -0.35 -4.2 -0.2 -4.35 -0.05 -4.5 0.05 -4.65 0.1 -4.8 0.15 -5.2 0.25 -5.45 0.4 -5.55 0.6 L-5.5 0.65 -5.45 0.65 -5.45 0.75 -5.5 0.85 -5.45 1.0 Q-5.35 1.0 -5.3 1.05 -5.15 1.1 -5.15 1.25 -5.1 1.25 -5.05 1.25 L-4.9 1.3 -4.8 1.35 -4.8 1.45 -4.85 1.5 -4.8 1.5 -4.75 1.55 -4.9 1.55 -5.3 1.5 -5.65 1.5 Q-5.75 1.5 -5.8 1.45 -5.85 1.4 -5.8 1.25 -6.0 1.15 -6.15 1.15 -6.2 1.15 -6.5 1.25 L-6.95 1.35 Q-7.0 1.4 -7.0 1.3 -7.0 1.25 -6.95 1.2 L-6.9 1.15 -6.9 1.05 -6.95 1.05 -7.0 1.1 -7.2 1.05 -7.55 1.05 -7.5 1.0 Q-7.5 0.95 -7.5 0.9 L-7.55 0.9 -7.65 1.0 Q-7.7 1.0 -7.85 0.95 -7.95 0.9 -8.1 0.9 L-8.15 0.85 -8.25 0.8 Q-8.35 0.45 -8.1 0.3 -7.95 0.15 -7.7 0.15 L-7.5 0.25 Q-7.55 0.35 -7.6 0.35 L-7.65 0.4 -7.6 0.5 -7.4 0.65 Q-7.35 0.7 -7.25 0.7 L-7.05 0.7 -7.05 0.55 -7.0 0.45 -6.9 0.45 -6.9 0.5 Q-6.9 0.55 -6.85 0.55 -6.75 0.55 -6.7 0.5 L-6.5 0.4 -6.15 0.4 -6.15 0.15 Q-6.1 0.05 -6.1 0.0 L-6.1 -0.25 -6.15 -0.5 Q-6.15 -0.7 -5.6 -0.9 -5.55 -0.9 -5.4 -0.75 -5.3 -0.65 -5.2 -0.65 M-0.75 0.95 L-0.75 1.0 Q-0.75 1.1 -0.8 1.15 L-0.85 1.15 Q-0.95 1.15 -1.0 1.05 -1.05 1.0 -1.1 0.8 -1.05 0.75 -1.0 0.75 L-0.95 0.85 Q-0.85 0.95 -0.75 0.95 M-4.35 1.45 Q-4.25 1.6 -4.25 1.8 -4.3 1.85 -4.3 1.9 -4.35 1.95 -4.4 1.95 -4.45 1.95 -4.6 1.8 -4.7 1.65 -4.7 1.55 -4.7 1.3 -4.55 1.3 -4.4 1.3 -4.35 1.45 M-4.15 2.15 L-4.15 2.15 M-4.2 2.05 Q-4.2 2.0 -4.15 2.0 L-4.05 2.05 -3.95 2.15 Q-3.9 2.25 -3.9 2.5 -3.95 2.55 -4.05 2.55 -4.1 2.55 -4.15 2.4 -4.25 2.25 -4.25 2.1 -4.25 2.05 -4.2 2.05 M-4.6 3.15 Q-4.5 3.15 -4.4 3.15 -4.25 3.25 -4.2 3.4 L-4.05 3.4 Q-3.95 3.4 -3.95 3.45 L-4.0 3.5 Q-4.0 3.55 -4.1 3.55 L-4.25 3.65 -4.15 3.75 -4.15 3.85 Q-4.25 4.0 -4.5 4.25 -4.7 4.45 -4.7 4.6 -4.7 4.7 -4.7 4.8 L-4.25 4.9 Q-4.0 4.95 -3.85 5.0 L-3.8 5.2 Q-3.6 5.4 -3.35 5.4 -3.05 5.4 -2.95 5.45 L-2.95 5.5 Q-2.9 5.55 -2.9 5.65 -2.9 5.75 -3.2 5.9 -3.5 6.05 -3.65 6.05 -3.75 6.05 -3.9 5.9 -4.1 5.75 -4.15 5.5 L-4.35 5.6 -4.55 5.6 Q-4.65 5.6 -4.75 5.55 L-4.95 5.4 Q-5.0 5.35 -5.05 5.25 -5.1 5.15 -5.2 5.05 L-5.25 4.9 Q-5.3 4.75 -5.35 4.55 L-5.2 4.4 Q-5.5 4.15 -5.6 4.15 L-5.7 4.15 -5.9 4.2 Q-5.95 4.2 -6.0 4.15 L-5.95 3.95 Q-5.95 3.85 -6.0 3.75 -6.05 3.65 -6.05 3.55 -5.95 3.45 -5.75 3.45 -5.55 3.45 -5.45 3.4 -5.4 3.35 -5.35 3.2 L-5.25 2.95 Q-5.2 2.9 -5.1 2.85 -5.0 2.8 -4.95 2.8 -4.8 2.8 -4.8 3.05 -4.75 3.1 -4.7 3.1 L-4.6 3.1 -4.6 3.15 M-3.4 3.85 Q-3.25 3.85 -3.1 4.0 -3.0 4.1 -2.85 4.35 L-2.85 4.45 Q-2.85 4.6 -2.9 4.65 L-3.0 4.65 -3.15 4.6 -3.3 4.6 -3.4 4.55 Q-3.45 4.5 -3.5 4.45 L-3.6 4.4 -3.6 4.15 Q-3.6 4.0 -3.55 3.9 -3.45 3.85 -3.4 3.85 M-2.65 5.35 Q-2.6 5.3 -2.55 5.3 -2.5 5.3 -2.4 5.4 -2.3 5.5 -2.3 5.75 -2.3 5.8 -2.4 5.9 -2.5 6.05 -2.55 6.05 -2.6 6.05 -2.75 5.9 -2.8 5.85 -2.8 5.75 -2.8 5.65 -2.75 5.55 -2.75 5.45 -2.65 5.35 M-6.65 3.1 Q-6.6 3.1 -6.55 3.15 L-6.6 3.2 -6.65 3.2 Q-6.7 3.2 -6.7 3.15 L-6.7 3.1 -6.65 3.1 M-8.0 1.3 L-7.9 1.3 Q-7.95 1.45 -8.05 1.45 -8.25 1.5 -8.3 1.55 L-8.3 1.7 Q-8.3 1.9 -8.55 1.9 L-8.65 1.9 -8.7 1.85 Q-8.7 1.75 -8.65 1.6 -8.7 1.6 -8.8 1.65 -8.9 1.75 -9.0 1.85 -9.05 1.9 -9.1 1.95 -9.15 1.95 -9.15 2.0 L-9.2 2.1 -9.2 2.2 -9.15 2.5 Q-8.9 2.6 -8.8 2.65 -8.55 2.8 -8.5 3.15 L-8.5 3.25 -8.55 3.25 -8.65 3.2 Q-8.7 3.15 -8.75 3.15 L-8.9 3.3 Q-9.0 3.3 -9.2 3.05 -9.4 2.8 -9.45 2.65 -9.55 2.25 -9.7 2.1 L-9.95 1.9 -9.95 1.75 Q-9.9 1.7 -9.85 1.7 L-9.75 1.7 -9.6 1.65 Q-9.45 1.65 -9.45 1.6 -9.45 1.55 -9.5 1.5 -9.5 1.45 -9.5 1.4 -9.5 1.35 -9.45 1.25 L-9.3 1.1 Q-9.2 1.05 -9.15 1.1 L-9.1 1.1 Q-8.75 1.0 -8.65 1.0 -8.55 1.0 -8.45 1.2 -8.35 1.35 -8.25 1.35 -8.15 1.35 -8.0 1.3" fill="#c5edfe" fill-rule="evenodd" stroke="none"/>
  </g>
</svg>
