<?xml version="1.0" encoding="UTF-8" standalone="no"?>
<svg xmlns:ffdec="https://www.free-decompiler.com/flash" xmlns:xlink="http://www.w3.org/1999/xlink" ffdec:objectType="shape" height="10.5px" width="16.0px" xmlns="http://www.w3.org/2000/svg">
  <g transform="matrix(1.0, 0.0, 0.0, 1.0, 10.5, 2.75)">
    <path d="M2.4 -0.15 L2.4 0.0 Q2.35 0.0 2.3 0.0 2.3 -0.05 2.35 -0.15 L2.4 -0.15 M5.1 3.4 Q5.15 3.4 5.2 3.4 L5.25 3.45 5.25 3.55 Q5.3 3.55 5.2 3.55 5.1 3.55 5.05 3.55 5.0 3.5 5.05 3.4 L5.1 3.4 M5.3 3.65 L5.4 3.85 Q5.5 4.05 5.5 4.15 5.5 4.45 5.4 4.5 5.25 4.5 5.15 4.55 L4.95 4.7 Q4.8 4.75 4.75 4.75 L4.75 4.7 4.95 4.5 5.05 4.3 Q5.1 4.25 5.2 4.15 5.25 4.05 5.25 3.7 L5.25 3.65 5.3 3.65 M4.2 1.25 L4.15 1.3 4.15 1.25 Q4.1 1.2 4.15 1.15 4.2 1.15 4.2 1.25 M2.6 0.45 L2.65 0.5 Q2.65 0.55 2.6 0.55 L2.55 0.6 2.5 0.55 2.5 0.45 Q2.55 0.4 2.6 0.4 L2.6 0.45 M3.9 1.85 Q3.9 1.95 3.75 1.95 3.75 1.85 3.85 1.75 3.9 1.75 3.9 1.8 L3.9 1.85 M3.95 2.75 L4.0 2.8 4.0 2.85 3.9 2.85 3.9 2.95 Q3.9 3.15 3.8 3.2 L3.5 3.2 Q3.5 3.1 3.65 3.05 L3.85 2.85 3.9 2.85 Q3.9 2.8 3.9 2.75 L3.95 2.75 M1.55 0.95 L1.65 0.95 1.65 1.0 Q1.65 1.05 1.6 1.05 1.5 1.05 1.45 1.0 L1.55 0.95 M2.35 4.45 Q2.3 4.45 2.25 4.4 2.2 4.35 2.25 4.35 2.3 4.25 2.35 4.25 L2.45 4.35 2.4 4.4 Q2.4 4.45 2.35 4.45 M1.1 5.5 L1.2 5.4 Q1.25 5.35 1.3 5.3 1.35 5.3 1.35 5.45 1.35 5.55 1.3 5.65 1.2 5.8 1.1 5.8 1.1 5.85 1.05 5.95 1.0 6.05 0.9 6.05 L0.85 5.95 Q0.8 5.9 0.75 5.9 L0.55 6.0 Q0.4 6.1 0.2 6.1 L0.1 6.05 0.05 5.9 Q-0.05 5.8 0.05 5.7 L0.2 5.75 0.3 5.8 Q0.4 5.8 0.6 5.75 L0.85 5.75 0.85 5.6 Q0.9 5.55 1.0 5.55 L1.1 5.5 M0.15 5.3 Q0.15 5.4 0.0 5.4 L-0.2 5.45 -0.4 5.45 -0.35 5.5 Q-0.45 5.6 -0.4 5.65 -0.4 5.8 -0.6 5.9 -0.75 5.95 -0.9 5.9 L-1.2 5.95 -1.45 6.0 Q-1.5 6.0 -1.55 5.9 L-1.6 5.9 Q-1.6 5.8 -1.65 5.55 L-1.6 5.45 -1.6 5.4 -1.55 5.35 -1.45 5.5 Q-1.4 5.6 -1.3 5.65 L-1.05 5.65 Q-1.0 5.65 -0.8 5.55 L-0.65 5.5 -0.65 5.35 Q-0.6 5.3 -0.5 5.3 L-0.3 5.25 Q-0.2 5.25 -0.15 5.15 -0.1 5.05 -0.05 5.05 0.05 5.05 0.1 5.05 0.15 5.1 0.15 5.3 M1.2 6.05 L1.25 6.1 Q1.3 6.1 1.3 6.15 L1.35 6.2 1.6 6.1 Q1.7 6.05 1.8 6.0 1.75 5.9 1.75 5.85 1.8 5.75 1.9 5.75 2.0 5.75 2.05 5.7 L2.25 5.55 2.25 5.4 Q2.25 5.25 2.3 5.2 L2.4 5.2 Q2.45 5.2 2.55 5.25 L2.6 5.25 Q2.65 5.25 2.7 5.35 2.75 5.5 2.75 5.7 L2.75 5.8 2.6 5.95 Q2.5 6.0 2.45 6.05 2.55 6.4 2.3 6.6 2.15 6.65 1.9 6.65 1.85 6.65 1.7 6.6 1.6 6.5 1.55 6.5 1.5 6.5 1.45 6.55 1.35 6.6 1.3 6.6 L1.25 6.6 1.25 6.55 1.2 6.4 Q1.15 6.35 1.15 6.3 L1.15 6.1 1.2 6.05 M4.6 3.7 L4.65 3.7 Q4.7 3.75 4.7 3.9 4.7 4.05 4.55 4.15 4.45 4.25 4.4 4.25 L4.15 4.2 Q4.15 4.15 4.25 4.1 L4.4 4.05 Q4.5 4.0 4.55 3.9 L4.6 3.7 M2.75 3.8 L2.85 3.95 2.85 4.0 Q2.85 4.1 2.7 4.15 L2.6 4.25 Q2.55 4.2 2.6 4.15 L2.6 4.0 2.7 3.9 Q2.7 3.85 2.75 3.8 M2.9 4.75 Q2.95 4.8 3.1 4.8 3.2 4.8 3.3 4.9 3.4 5.0 3.4 5.05 3.4 5.1 3.35 5.15 L3.25 5.25 3.6 5.25 Q3.65 5.25 3.7 5.3 L3.85 5.35 3.95 5.35 4.0 5.3 4.05 5.3 4.05 5.4 4.1 5.35 4.1 5.4 4.0 5.55 Q3.9 5.6 3.8 5.6 3.75 5.6 3.65 5.5 3.55 5.4 3.45 5.4 3.3 5.4 3.15 5.45 3.1 5.35 3.1 5.2 L3.1 5.1 3.05 5.05 2.7 5.15 Q2.6 5.15 2.6 4.9 2.65 4.7 2.8 4.7 2.85 4.7 2.9 4.75 M4.65 4.9 L4.6 5.0 Q4.5 5.0 4.45 5.05 4.45 4.95 4.5 4.9 4.55 4.9 4.6 4.85 L4.65 4.9 M0.7 6.75 L0.7 6.8 0.65 6.8 Q0.5 7.1 0.45 7.3 0.4 7.35 0.2 7.35 0.1 7.35 0.05 7.3 L0.05 7.15 0.25 7.0 Q0.35 6.9 0.4 6.75 0.4 6.7 0.45 6.65 L0.65 6.7 0.7 6.75 M-8.1 -0.2 L-8.0 -0.15 -7.85 -0.05 -7.85 0.05 Q-7.95 0.1 -8.05 0.1 L-8.15 0.05 Q-8.2 0.05 -8.25 0.05 -8.3 0.05 -8.35 0.1 -8.45 0.15 -8.5 0.1 L-8.5 0.05 Q-8.5 -0.1 -8.3 -0.15 L-8.1 -0.2 M-5.1 -2.75 Q-5.05 -2.75 -4.95 -2.7 L-4.8 -2.6 -4.8 -2.45 Q-4.75 -2.4 -4.7 -2.4 -4.6 -2.35 -4.5 -2.3 L-4.4 -2.3 -4.45 -2.5 -4.35 -2.55 -4.3 -2.55 -4.15 -2.6 Q-4.05 -2.6 -3.95 -2.4 -3.8 -2.2 -3.85 -2.15 -3.85 -2.05 -3.9 -2.0 L-4.0 -1.95 -4.05 -2.05 Q-4.05 -2.1 -4.0 -2.1 L-4.05 -2.2 -4.1 -2.25 -4.15 -2.25 Q-4.2 -2.25 -4.3 -2.1 -4.35 -2.0 -4.45 -2.0 L-4.6 -2.05 Q-4.7 -2.1 -4.75 -2.15 -4.75 -2.1 -4.85 -2.05 -5.0 -2.0 -5.05 -2.0 -5.1 -2.0 -5.15 -2.35 -5.25 -2.35 -5.25 -2.3 L-5.3 -2.2 -5.3 -2.0 -5.25 -1.85 Q-5.25 -1.7 -5.4 -1.65 -5.5 -1.6 -5.55 -1.6 -5.7 -1.6 -5.65 -1.75 L-5.6 -1.9 Q-5.6 -2.0 -5.6 -2.15 L-5.65 -2.35 Q-5.65 -2.55 -5.4 -2.65 -5.2 -2.75 -5.1 -2.75 M-6.35 -1.55 Q-6.25 -1.65 -6.15 -1.65 -6.1 -1.65 -5.9 -1.5 -5.7 -1.4 -5.6 -1.3 L-5.6 -1.25 -5.65 -1.15 Q-5.7 -1.15 -5.75 -1.15 -5.8 -1.15 -5.9 -1.2 -6.0 -1.25 -6.05 -1.3 L-6.1 -1.25 Q-6.15 -1.25 -6.15 -1.2 -6.1 -0.95 -6.25 -0.85 -6.3 -0.8 -6.5 -0.75 -6.55 -0.75 -6.55 -0.65 L-6.4 -0.5 Q-6.45 -0.45 -6.35 -0.45 -6.4 -0.45 -6.4 -0.35 L-6.4 -0.2 Q-6.4 -0.15 -6.3 -0.1 L-6.25 -0.05 -6.2 0.05 Q-6.3 0.1 -6.4 0.1 -6.5 0.1 -6.6 0.05 -6.75 0.0 -6.8 -0.1 L-6.8 -0.2 Q-6.8 -0.25 -6.7 -0.25 -6.7 -0.3 -6.7 -0.4 -6.7 -0.5 -6.85 -0.6 L-7.0 -0.7 -7.0 -0.8 Q-6.95 -1.05 -6.7 -1.0 -6.65 -1.0 -6.6 -1.05 -6.55 -1.1 -6.55 -1.25 -6.55 -1.45 -6.35 -1.55 M-5.25 -1.3 L-5.2 -1.3 Q-5.2 -1.25 -5.2 -1.15 -5.2 -1.1 -5.3 -1.0 L-5.4 -0.95 Q-5.6 -0.95 -5.5 -1.15 -5.4 -1.35 -5.3 -1.35 L-5.25 -1.3 M-3.3 -2.05 L-3.25 -2.05 -3.25 -1.95 Q-3.25 -1.85 -3.45 -1.75 L-3.7 -1.6 Q-3.85 -1.65 -3.65 -1.95 -3.6 -1.95 -3.5 -2.0 L-3.3 -2.05 M-2.75 -1.75 Q-2.75 -1.65 -2.85 -1.6 -2.9 -1.6 -3.0 -1.6 L-3.0 -1.8 -2.95 -2.15 Q-2.8 -2.3 -2.45 -2.3 -2.4 -2.3 -2.35 -2.25 L-2.3 -2.2 -2.3 -2.05 -2.4 -2.1 Q-2.5 -2.1 -2.75 -1.9 L-2.75 -1.75 M-4.1 -1.85 L-4.05 -1.8 -4.05 -1.75 Q-4.05 -1.6 -4.2 -1.6 -4.4 -1.6 -4.35 -1.75 -4.35 -1.9 -4.2 -1.9 L-4.1 -1.85 M-2.0 -2.15 L-1.95 -2.15 -1.9 -2.1 Q-1.9 -2.05 -1.9 -2.0 L-2.0 -1.95 Q-2.05 -1.95 -2.15 -2.05 -2.05 -2.15 -2.0 -2.15 M-2.05 -1.8 Q-2.0 -1.8 -2.0 -1.75 -2.0 -1.7 -2.1 -1.6 -2.2 -1.5 -2.15 -1.4 -2.25 -1.35 -2.35 -1.35 L-2.4 -1.35 Q-2.4 -1.6 -2.35 -1.65 -2.3 -1.8 -2.1 -1.85 L-2.05 -1.8 M-2.0 -1.5 L-1.95 -1.45 -1.95 -1.3 Q-2.0 -1.3 -2.05 -1.3 L-2.15 -1.3 -2.15 -1.4 -2.1 -1.45 -2.0 -1.5 M-0.95 1.15 L-0.85 1.15 Q-0.85 1.2 -0.9 1.25 L-1.0 1.25 -1.0 1.2 -0.95 1.15 M-0.1 1.85 L-0.05 1.8 0.05 1.8 0.0 1.85 Q-0.1 1.9 -0.1 1.85 M-0.7 1.75 L-0.8 1.75 Q-0.9 1.75 -0.9 1.7 -0.85 1.65 -0.8 1.65 L-0.75 1.65 -0.7 1.75 M-4.8 1.45 L-4.9 1.5 -4.95 1.5 Q-5.0 1.45 -4.95 1.4 L-4.9 1.4 Q-4.8 1.4 -4.8 1.45 M-4.85 1.75 Q-4.75 1.8 -4.8 1.9 L-4.8 1.95 -4.9 1.95 -5.0 1.85 -5.0 1.7 -4.95 1.7 Q-4.9 1.7 -4.85 1.75 M-4.55 2.2 L-4.5 2.2 Q-4.45 2.2 -4.4 2.2 -4.4 2.25 -4.4 2.4 -4.4 2.45 -4.4 2.5 L-4.5 2.5 -4.55 2.25 -4.55 2.2 M-3.7 4.65 L-3.75 4.65 Q-3.85 4.65 -3.95 4.45 -4.0 4.25 -3.85 4.2 L-3.8 4.25 -3.75 4.25 Q-3.7 4.4 -3.65 4.5 L-3.65 4.6 -3.7 4.65 M-3.5 4.65 L-3.4 4.65 -3.3 4.6 -3.2 4.65 Q-3.25 4.8 -3.4 4.8 L-3.45 4.75 -3.5 4.65 M-4.65 5.95 L-4.8 5.95 -4.85 5.85 Q-4.85 5.8 -4.75 5.8 -4.65 5.8 -4.65 5.9 L-4.65 5.95 M-4.5 6.35 Q-4.5 6.4 -4.4 6.5 -4.3 6.55 -4.25 6.55 L-3.6 6.35 -3.55 6.4 Q-3.5 6.4 -3.5 6.5 -3.5 6.65 -3.65 6.65 L-3.85 6.65 -4.0 6.8 Q-4.15 6.9 -4.3 6.9 -4.45 6.9 -4.65 6.85 L-4.7 6.75 Q-4.7 6.65 -4.75 6.65 -4.85 6.7 -4.95 6.7 -5.0 6.7 -5.05 6.6 -5.1 6.5 -5.1 6.4 -5.05 6.1 -4.75 6.1 -4.7 6.1 -4.6 6.15 L-4.45 6.25 -4.5 6.3 -4.5 6.35 M-2.95 5.9 L-2.9 5.9 Q-2.85 5.9 -2.85 5.95 L-2.75 6.15 -2.8 6.2 -2.85 6.2 Q-3.05 6.2 -3.0 6.05 L-3.0 5.9 -2.95 5.9 M-2.55 6.05 L-2.5 6.05 Q-2.45 6.1 -2.45 6.15 L-2.7 6.15 Q-2.6 6.05 -2.55 6.05 M-2.4 4.6 Q-2.3 4.6 -2.25 4.7 -2.15 4.85 -2.05 4.9 -2.0 4.9 -1.9 4.95 -1.8 4.95 -1.75 5.0 L-1.75 5.1 Q-1.85 5.15 -1.9 5.15 -2.0 5.15 -2.1 5.1 L-2.4 5.1 -2.5 4.9 Q-2.55 4.8 -2.55 4.75 -2.55 4.65 -2.45 4.6 L-2.4 4.6 M-2.25 6.15 Q-2.2 6.05 -2.0 6.05 L-2.0 6.1 -1.95 6.15 -2.05 6.2 -2.0 6.25 -1.85 6.25 -1.75 6.2 Q-1.7 6.2 -1.5 6.45 -1.3 6.7 -1.3 6.75 -1.3 6.85 -1.4 6.95 L-1.5 7.05 Q-0.95 7.4 -0.9 7.4 -0.75 7.4 -0.65 7.35 -0.5 7.3 -0.45 7.3 L-0.4 7.3 Q-0.35 7.3 -0.35 7.4 -0.35 7.6 -0.5 7.7 -0.6 7.75 -0.7 7.75 -0.75 7.75 -1.0 7.65 L-1.4 7.75 -1.5 7.65 -1.55 7.55 Q-1.65 7.4 -1.6 7.25 L-1.65 7.15 -1.7 7.1 -1.8 7.15 -1.8 6.45 -1.9 6.45 Q-1.95 6.45 -2.15 6.55 -2.3 6.45 -2.25 6.3 -2.3 6.2 -2.25 6.15 M-1.25 5.65 L-1.15 5.7 -1.1 5.7 -1.25 5.65 M-5.6 0.6 L-5.8 0.7 Q-5.95 0.75 -6.0 0.7 L-6.0 0.6 -5.85 0.5 Q-5.75 0.45 -5.7 0.45 L-5.65 0.5 -5.6 0.5 -5.6 0.6 M-5.8 0.8 Q-5.75 0.8 -5.8 0.85 L-5.8 0.9 -5.9 0.9 -5.9 0.8 Q-5.9 0.75 -5.85 0.75 L-5.8 0.8 M-5.7 1.1 Q-5.7 1.15 -5.8 1.15 -5.8 1.1 -5.7 1.0 L-5.6 1.0 -5.7 1.1 M-6.05 0.9 L-6.0 0.9 Q-5.95 0.9 -5.95 0.95 -5.95 1.15 -6.0 1.2 -6.05 1.3 -6.15 1.3 L-6.15 1.25 -6.2 1.2 Q-6.25 1.05 -6.15 0.95 -6.1 0.9 -6.05 0.9 M-6.8 0.1 L-6.65 0.1 -6.6 0.15 -6.6 0.2 Q-6.65 0.25 -6.75 0.25 -6.85 0.25 -6.85 0.15 L-6.8 0.1 M-6.85 0.35 Q-6.85 0.45 -7.05 0.45 -7.1 0.4 -7.05 0.3 -7.05 0.25 -6.95 0.25 L-6.85 0.25 -6.85 0.35 M-7.2 0.35 Q-7.2 0.4 -7.3 0.5 -7.45 0.6 -7.45 0.7 -7.45 0.8 -7.35 0.9 -7.3 0.9 -7.3 0.95 L-7.25 1.0 -7.2 1.1 -7.25 1.2 -7.4 1.2 Q-7.45 1.2 -7.45 1.05 L-7.5 1.05 -7.55 1.0 -7.55 0.9 -7.65 0.95 Q-7.85 0.7 -7.6 0.5 -7.45 0.35 -7.25 0.3 -7.2 0.25 -7.2 0.35 M-6.4 3.05 L-6.25 3.05 -6.15 3.0 -6.0 2.9 Q-5.95 2.9 -5.9 2.9 -5.8 2.9 -5.75 2.9 -5.65 2.95 -5.65 3.05 -5.65 3.15 -5.7 3.2 -5.75 3.25 -5.75 3.35 -5.75 3.45 -5.9 3.45 L-5.9 3.4 -6.0 3.2 Q-6.1 3.2 -6.2 3.25 -6.4 3.3 -6.4 3.4 -6.4 3.45 -6.35 3.45 -6.3 3.45 -6.3 3.5 -6.3 3.7 -6.45 3.7 -6.55 3.7 -6.55 3.5 -6.65 3.45 -6.65 3.4 -6.65 3.3 -6.6 3.25 L-6.4 3.05 M-8.1 0.7 Q-8.05 0.75 -8.05 0.8 L-8.1 0.85 Q-8.1 0.9 -8.1 0.95 L-8.15 0.95 Q-8.2 0.95 -8.25 0.9 L-8.2 0.75 -8.15 0.65 -8.1 0.6 -8.1 0.7 M-8.55 0.3 Q-8.5 0.35 -8.5 0.55 L-8.55 0.65 -8.65 0.75 Q-8.85 0.6 -8.8 0.45 -8.75 0.35 -8.6 0.2 -8.55 0.25 -8.55 0.3 M-9.2 0.75 Q-9.3 0.8 -9.45 0.85 -9.6 0.95 -9.75 1.0 L-10.05 1.05 Q-10.2 1.15 -10.1 1.4 L-10.25 1.3 -10.3 1.15 -10.3 1.05 Q-10.15 0.9 -10.05 0.85 -9.95 0.8 -9.9 0.85 -9.85 0.85 -9.8 0.85 -9.7 0.85 -9.55 0.7 L-9.3 0.55 Q-9.25 0.55 -9.15 0.6 L-8.95 0.75 -8.95 0.8 -8.9 0.8 -9.0 0.9 -9.1 0.85 -9.2 0.75 M-9.65 1.4 L-9.6 1.35 Q-9.55 1.3 -9.5 1.3 L-9.45 1.35 -9.35 1.35 -9.35 1.4 Q-9.35 1.5 -9.35 1.45 -9.4 1.45 -9.5 1.55 -9.65 1.6 -9.7 1.65 -9.7 1.6 -9.7 1.55 L-9.65 1.4 M-9.8 2.1 L-9.8 2.05 -9.7 2.0 Q-9.65 2.0 -9.65 2.05 L-9.65 2.1 -9.6 2.25 -9.6 2.3 -9.65 2.35 -9.8 2.2 -9.8 2.1 M-9.85 2.55 L-9.85 2.85 -9.8 3.15 Q-9.85 3.25 -9.95 3.25 -10.0 3.25 -10.05 3.1 L-10.05 2.65 Q-10.05 2.55 -9.95 2.5 L-9.85 2.55 M-9.55 3.15 L-9.45 3.2 -9.4 3.25 Q-9.45 3.35 -9.5 3.35 L-9.7 3.25 Q-9.65 3.2 -9.6 3.15 L-9.55 3.15 M-5.7 4.65 L-5.65 4.65 Q-5.55 4.65 -5.5 4.7 -5.45 4.8 -5.45 5.05 -5.5 5.1 -5.6 5.3 -5.65 5.4 -5.7 5.5 -5.65 5.5 -5.6 5.55 -5.5 5.65 -5.45 5.75 L-5.25 5.75 -5.25 5.85 Q-5.25 5.95 -5.45 5.95 -5.5 5.95 -5.6 5.9 -5.65 5.85 -5.7 5.85 -5.8 5.85 -5.85 5.9 -5.9 6.0 -6.0 6.0 -6.1 6.0 -6.15 5.8 -6.15 5.6 -6.0 5.4 -5.95 5.35 -5.85 5.15 -5.7 5.0 -5.7 4.9 L-5.75 4.85 -5.8 4.75 Q-5.8 4.65 -5.7 4.65 M-5.35 4.1 L-5.2 3.95 -5.15 4.05 -5.1 4.25 -5.15 4.3 -5.25 4.3 Q-5.3 4.3 -5.3 4.25 L-5.35 4.2 -5.35 4.1 M-6.45 3.9 Q-6.4 3.9 -6.4 3.95 -6.4 4.0 -6.6 4.1 -6.75 4.2 -6.8 4.2 -6.7 4.35 -6.55 4.35 -6.4 4.35 -6.35 4.5 L-6.35 4.6 Q-6.4 4.65 -6.5 4.65 -6.65 4.65 -6.75 4.75 -6.85 4.85 -6.9 4.85 -7.0 4.85 -7.1 4.7 -7.15 4.55 -7.15 4.5 L-7.25 4.4 Q-7.3 4.3 -7.3 4.25 -7.25 4.2 -7.2 4.15 -7.1 4.05 -7.05 4.05 L-6.5 3.85 Q-6.45 3.85 -6.45 3.9 M-5.35 5.3 Q-5.2 5.4 -5.15 5.45 L-5.25 5.55 -5.4 5.55 Q-5.45 5.55 -5.45 5.4 -5.45 5.3 -5.35 5.3 M-0.35 6.95 L-0.35 6.9 -0.2 6.9 -0.1 6.95 Q-0.05 7.0 -0.05 7.05 -0.05 7.1 -0.2 7.2 -0.25 7.2 -0.3 7.15 L-0.35 7.05 -0.35 6.95 M-10.15 1.55 L-10.1 1.6 Q-10.1 1.7 -10.2 1.75 L-10.3 1.9 -10.25 1.95 -10.2 2.05 -10.25 2.1 Q-10.35 2.05 -10.45 2.0 -10.55 1.9 -10.5 1.8 -10.45 1.75 -10.3 1.65 L-10.15 1.55" fill="#c5edfe" fill-rule="evenodd" stroke="none"/>
  </g>
</svg>
