<?xml version="1.0" encoding="UTF-8" standalone="no"?>
<svg xmlns:ffdec="https://www.free-decompiler.com/flash" xmlns:xlink="http://www.w3.org/1999/xlink" ffdec:objectType="shape" height="4.95px" width="7.6px" xmlns="http://www.w3.org/2000/svg">
  <g transform="matrix(1.0, 0.0, 0.0, 1.0, 4.1, 1.45)">
    <path d="M0.95 -1.15 L0.9 -1.25 Q0.95 -1.3 1.05 -1.3 L1.15 -1.3 1.2 -1.25 1.25 -1.3 1.3 -1.25 Q1.35 -1.2 1.4 -1.2 1.45 -1.2 1.6 -1.0 1.7 -0.8 1.8 -0.8 L1.85 -0.8 1.85 -1.15 Q1.85 -1.2 1.9 -1.25 L2.0 -1.3 Q2.05 -1.3 2.15 -1.2 L2.35 -0.95 2.55 -0.8 Q2.65 -0.65 2.7 -0.4 2.8 -0.3 2.85 -0.3 2.9 -0.3 2.95 -0.45 L3.0 -0.6 Q3.05 -0.65 3.2 -0.65 L3.3 -0.6 3.45 -0.55 Q3.45 -0.5 3.5 -0.25 3.5 0.05 3.5 0.3 3.5 0.55 3.45 0.65 3.4 0.75 3.2 0.75 3.15 0.75 3.0 0.95 2.85 1.15 2.8 1.2 L2.5 1.5 2.4 1.65 Q2.45 1.65 2.55 1.7 2.65 1.8 2.65 2.05 2.65 2.4 2.4 2.5 L2.15 2.55 Q2.05 2.55 1.95 2.6 1.85 2.7 1.9 2.85 1.7 3.2 1.5 3.3 1.35 3.4 1.1 3.4 L1.05 3.4 Q1.0 3.45 1.0 3.35 L1.05 3.3 1.05 3.0 Q1.0 2.95 0.9 2.95 L0.8 2.9 Q0.65 3.1 0.45 3.1 L0.15 3.1 Q0.15 3.2 0.2 3.4 L0.05 3.45 Q0.0 3.5 -0.05 3.5 -0.1 3.5 -0.15 3.45 L-0.35 3.3 Q-0.35 3.35 -0.45 3.4 L-0.7 3.4 -0.9 3.35 -1.05 3.3 Q-1.2 3.2 -1.25 3.15 L-1.25 3.25 Q-1.3 3.35 -1.35 3.35 L-1.5 3.4 Q-1.55 3.4 -1.65 3.3 L-1.8 3.2 Q-1.9 3.1 -1.9 2.85 L-1.9 2.55 Q-1.9 2.1 -2.3 1.95 -2.55 1.85 -2.75 1.9 L-2.95 1.9 -2.95 1.95 Q-3.0 1.9 -3.15 1.9 L-3.2 1.95 -3.25 1.95 -3.15 2.15 Q-3.05 2.3 -2.9 2.45 -2.8 2.5 -2.65 2.5 L-2.4 2.5 -2.4 2.55 Q-2.35 2.6 -2.35 2.7 -2.35 2.75 -2.6 2.8 L-2.7 2.75 Q-2.75 2.75 -2.9 2.65 -2.9 2.7 -2.9 2.75 L-2.9 2.8 Q-2.85 2.9 -2.85 3.0 -2.9 3.05 -3.0 3.15 -3.1 3.2 -3.2 3.15 -3.15 3.2 -3.1 3.25 L-3.05 3.25 -3.05 3.3 -3.1 3.35 Q-3.25 3.3 -3.55 3.15 -3.75 3.1 -3.85 2.9 -3.9 2.75 -3.9 2.5 L-4.0 2.1 -4.05 2.05 Q-4.05 2.0 -4.1 1.95 -4.1 1.85 -3.9 1.65 L-3.75 1.4 -3.85 1.15 Q-4.0 0.85 -4.0 0.55 -3.95 0.3 -3.75 0.3 L-3.4 0.3 -3.2 0.15 -3.15 0.0 Q-3.2 -0.05 -3.2 -0.15 L-3.15 -0.2 Q-3.05 -0.25 -3.05 -0.3 L-3.05 -0.35 -3.1 -0.55 Q-2.8 -0.8 -2.35 -0.95 L-2.35 -1.0 -2.4 -1.0 -2.35 -1.1 -2.3 -1.1 -2.2 -1.15 Q-2.05 -1.2 -1.85 -1.3 -1.3 -1.45 -1.0 -1.45 L-0.95 -1.45 -0.9 -1.4 -0.9 -1.35 Q-0.9 -1.15 -1.15 -0.95 -1.35 -0.8 -1.35 -0.75 L-1.25 -0.5 Q-1.25 -0.45 -1.3 -0.4 L-1.3 -0.35 Q-1.3 -0.15 -1.15 -0.1 L-0.9 -0.1 -0.6 -0.05 -0.3 -0.05 0.0 -0.1 0.35 -0.2 Q0.55 -0.25 0.6 -0.35 L0.6 -0.45 0.5 -0.5 0.5 -0.6 Q0.7 -0.6 0.75 -0.65 0.95 -0.7 0.95 -0.85 0.95 -0.9 0.9 -0.95 L0.85 -1.05 Q0.85 -1.1 0.9 -1.1 L0.95 -1.15 M-2.35 -1.0 L-2.35 -1.0 M-2.45 2.7 L-2.5 2.75 -2.45 2.75 -2.45 2.7" fill="#c5edfe" fill-rule="evenodd" stroke="none"/>
  </g>
</svg>
