<?xml version="1.0" encoding="UTF-8" standalone="no"?>
<svg xmlns:ffdec="https://www.free-decompiler.com/flash" xmlns:xlink="http://www.w3.org/1999/xlink" ffdec:objectType="shape" height="8.45px" width="14.75px" xmlns="http://www.w3.org/2000/svg">
  <g transform="matrix(1.0, 0.0, 0.0, 1.0, 10.75, 2.25)">
    <path d="M-8.55 -0.25 L-8.5 -0.25 -8.5 -0.15 -8.65 -0.15 Q-8.65 -0.2 -8.55 -0.25 M-5.65 -2.1 Q-5.7 -2.05 -5.7 -2.1 -5.75 -2.15 -5.7 -2.2 -5.65 -2.25 -5.55 -2.25 -5.5 -2.2 -5.5 -2.15 -5.55 -2.1 -5.65 -2.1 M-6.9 -1.25 L-6.8 -1.25 Q-6.8 -1.2 -6.9 -1.1 L-6.95 -1.1 Q-6.95 -1.15 -6.95 -1.25 L-6.9 -1.25 M-7.15 -0.75 Q-7.1 -0.75 -7.05 -0.7 L-7.15 -0.6 -7.1 -0.6 -7.15 -0.55 Q-7.25 -0.55 -7.25 -0.65 -7.2 -0.7 -7.15 -0.75 M-7.15 -0.2 Q-7.1 -0.2 -7.05 -0.2 L-7.0 -0.2 -7.0 -0.15 -7.1 -0.1 -7.15 -0.15 -7.15 -0.2 M-2.8 -1.9 L-2.75 -1.85 -2.85 -1.85 -2.8 -1.9 M-3.7 -1.55 Q-3.8 -1.55 -3.85 -1.55 -3.75 -1.65 -3.7 -1.65 -3.65 -1.7 -3.65 -1.6 -3.65 -1.55 -3.7 -1.55 M-3.1 -1.7 Q-3.05 -1.75 -3.0 -1.75 L-2.95 -1.7 Q-3.05 -1.7 -3.1 -1.7 M-2.55 -1.35 L-2.45 -1.4 Q-2.4 -1.4 -2.4 -1.35 -2.4 -1.3 -2.45 -1.3 L-2.55 -1.3 -2.55 -1.35 M-4.65 -2.1 L-4.4 -2.1 -4.4 -2.05 -4.5 -2.05 -4.6 -2.0 Q-4.65 -2.0 -4.65 -2.05 -4.7 -2.1 -4.65 -2.1 M-4.3 -1.4 L-4.25 -1.4 -4.25 -1.35 -4.35 -1.35 -4.35 -1.4 -4.3 -1.4 M-3.95 3.4 L-4.05 3.4 -4.05 3.35 -4.0 3.3 Q-3.95 3.35 -3.95 3.4 M-2.55 3.75 L-2.55 3.8 -2.6 3.8 Q-2.7 3.8 -2.65 3.75 L-2.55 3.75 M-1.8 4.55 L-1.85 4.6 Q-1.9 4.6 -1.9 4.5 L-1.8 4.45 Q-1.75 4.45 -1.75 4.5 L-1.8 4.55 M-0.7 4.45 L-0.6 4.4 -0.55 4.4 -0.55 4.45 -0.65 4.5 -0.7 4.45 M-0.1 4.65 L-0.05 4.65 0.0 4.7 Q0.0 4.75 -0.05 4.75 -0.1 4.75 -0.15 4.7 L-0.1 4.65 M-5.85 0.2 L-5.8 0.25 -5.85 0.25 Q-5.9 0.3 -5.95 0.25 -5.95 0.2 -5.9 0.2 L-5.85 0.2 M-6.25 0.75 L-6.35 0.75 -6.35 0.65 Q-6.3 0.7 -6.25 0.75 M-6.85 2.25 Q-6.8 2.25 -6.8 2.3 L-6.8 2.35 Q-6.85 2.4 -6.9 2.45 L-6.95 2.45 Q-7.0 2.4 -6.95 2.35 -6.95 2.3 -6.85 2.25 M-6.15 1.95 Q-6.2 2.05 -6.3 2.05 -6.4 1.95 -6.15 1.9 L-6.15 1.95 M-7.65 0.15 L-7.65 0.25 -7.7 0.25 -7.75 0.2 -7.65 0.15 M-7.9 0.65 L-7.85 0.65 -7.85 0.7 -7.95 0.7 -7.95 0.65 -7.9 0.65 M-9.75 0.35 L-9.6 0.35 -9.55 0.4 -9.65 0.45 Q-9.75 0.45 -9.8 0.45 L-9.85 0.45 -9.85 0.4 Q-9.8 0.35 -9.75 0.35 M-7.75 3.25 L-7.7 3.25 Q-7.65 3.25 -7.65 3.3 -7.65 3.35 -7.6 3.35 -7.55 3.35 -7.6 3.35 -7.7 3.45 -7.75 3.45 -7.75 3.4 -7.8 3.3 L-7.75 3.25 M-5.9 3.5 L-5.85 3.55 -5.85 3.6 Q-5.85 3.65 -5.9 3.65 -6.0 3.65 -6.0 3.6 -6.0 3.5 -5.95 3.5 L-5.9 3.5 M-6.65 4.3 L-6.55 4.25 Q-6.5 4.3 -6.5 4.4 L-6.5 4.45 -6.55 4.45 -6.6 4.4 Q-6.65 4.35 -6.65 4.3 M-6.0 4.2 Q-5.95 4.25 -5.9 4.3 L-5.9 4.35 -5.95 4.35 Q-6.05 4.35 -6.05 4.25 L-6.0 4.2 M-5.4 4.95 L-5.3 4.95 -5.3 5.0 -5.25 5.05 -5.3 5.1 -5.45 5.1 -5.45 5.05 Q-5.45 5.0 -5.45 4.95 L-5.4 4.95 M-2.05 5.2 L-2.0 5.15 -1.85 5.3 -1.85 5.35 -1.95 5.35 Q-2.0 5.35 -2.05 5.3 -2.05 5.25 -2.05 5.2 M-2.45 4.95 L-2.4 5.05 Q-2.5 5.05 -2.55 4.95 L-2.45 4.95 M-2.0 6.0 Q-1.95 6.0 -1.9 6.0 L-1.85 6.0 -1.85 6.15 -1.9 6.2 Q-2.05 6.2 -2.0 6.0 M-1.05 5.9 L-0.95 5.9 -0.95 5.95 Q-1.0 6.0 -1.1 6.0 -1.15 6.0 -1.15 5.95 L-1.15 5.9 -1.05 5.9 M-0.7 5.95 Q-0.85 5.95 -0.85 5.9 -0.8 5.9 -0.7 5.85 -0.65 5.9 -0.6 5.95 L-0.7 5.95 M-4.8 5.15 L-4.65 5.2 Q-4.6 5.25 -4.55 5.25 L-4.6 5.3 Q-4.6 5.35 -4.65 5.35 L-4.85 5.25 Q-4.85 5.15 -4.8 5.15 M-4.45 5.3 L-4.4 5.3 -4.45 5.35 -4.5 5.35 -4.5 5.3 -4.45 5.3 M-10.55 0.7 L-10.55 0.75 -10.65 0.85 -10.7 0.85 Q-10.8 0.85 -10.75 0.8 -10.7 0.7 -10.6 0.7 L-10.55 0.7 M0.85 4.55 Q0.85 4.5 0.9 4.5 L0.95 4.55 1.05 4.55 Q1.05 4.6 0.95 4.6 0.85 4.6 0.8 4.6 L0.85 4.55 M3.7 4.4 L4.0 4.4 Q3.95 4.5 3.85 4.5 L3.7 4.5 Q3.7 4.45 3.7 4.4 M3.0 4.5 Q3.0 4.55 2.9 4.65 L2.85 4.65 Q2.7 4.65 2.75 4.55 2.8 4.5 2.95 4.4 3.0 4.4 3.0 4.5 M1.9 5.05 Q2.0 5.1 2.05 5.1 L2.2 5.1 Q2.2 5.15 2.1 5.15 L2.05 5.2 1.95 5.2 Q1.9 5.15 1.9 5.05 M2.35 5.1 L2.25 5.1 2.25 5.05 2.3 5.05 2.4 5.0 2.4 5.05 Q2.4 5.1 2.35 5.1 M1.4 5.1 Q1.2 5.15 1.15 5.15 1.15 5.1 1.2 5.05 1.2 5.0 1.3 5.0 L1.35 5.0 1.4 5.1 M0.4 5.65 Q0.25 5.65 0.2 5.6 L0.4 5.5 0.45 5.45 0.5 5.5 0.5 5.55 Q0.5 5.65 0.4 5.65" fill="#c5edfe" fill-rule="evenodd" stroke="none"/>
  </g>
</svg>
