<?xml version="1.0" encoding="UTF-8" standalone="no"?>
<svg xmlns:ffdec="https://www.free-decompiler.com/flash" xmlns:xlink="http://www.w3.org/1999/xlink" ffdec:objectType="shape" height="20.15px" width="17.1px" xmlns="http://www.w3.org/2000/svg">
  <g transform="matrix(1.0, 0.0, 0.0, 1.0, 5.8, 19.0)">
    <path d="M8.4 -18.95 L8.4 -18.8 Q8.4 -18.7 8.05 -17.95 L7.7 -17.1 7.95 -17.2 8.2 -17.35 8.35 -17.35 Q8.5 -17.35 8.5 -17.2 8.45 -17.05 8.45 -17.0 8.45 -16.95 8.55 -16.9 8.6 -16.8 8.6 -16.7 8.6 -16.65 8.5 -16.35 8.35 -16.05 8.35 -15.95 L8.35 -15.9 Q8.45 -15.9 8.5 -15.95 L8.6 -16.0 8.8 -16.0 Q8.95 -15.65 8.95 -15.45 8.95 -15.3 8.6 -14.5 8.25 -13.7 8.1 -13.45 7.95 -13.2 7.7 -12.55 7.5 -11.95 7.25 -11.6 7.05 -11.65 6.95 -11.9 6.95 -12.0 6.95 -12.2 6.95 -12.3 7.05 -12.75 L7.15 -13.3 Q7.15 -13.4 7.05 -13.5 L6.8 -13.75 Q6.7 -13.7 6.5 -13.6 L6.35 -13.45 Q6.25 -13.45 6.1 -13.6 L5.95 -13.8 Q5.9 -13.85 5.9 -13.95 L5.95 -14.15 Q5.95 -14.3 5.9 -14.35 L5.85 -14.4 Q5.2 -14.35 5.1 -14.15 L5.05 -13.9 Q4.95 -13.75 4.75 -13.6 L4.35 -13.1 Q4.05 -12.8 3.75 -12.8 3.6 -12.8 3.45 -13.4 3.4 -13.7 3.4 -14.05 3.4 -14.15 3.55 -14.4 3.7 -14.6 3.85 -14.8 3.95 -14.75 4.0 -14.7 4.05 -14.7 4.15 -14.7 4.25 -14.7 4.3 -14.75 L4.3 -14.85 Q4.55 -14.85 4.75 -15.05 4.9 -15.15 4.95 -15.35 5.05 -15.5 5.4 -15.9 L5.95 -16.45 6.5 -16.9 Q6.7 -17.15 7.4 -18.05 7.85 -18.75 8.35 -19.0 L8.4 -18.95 M8.45 -9.7 Q8.7 -9.7 8.95 -9.9 9.25 -10.15 9.6 -10.3 L9.9 -10.25 10.1 -10.2 Q10.15 -10.15 10.2 -10.15 10.3 -10.15 10.3 -10.05 10.3 -9.8 9.95 -9.3 9.6 -8.75 9.6 -8.65 L9.65 -8.5 Q9.75 -8.6 10.05 -8.6 L10.25 -8.5 Q10.45 -8.45 10.5 -8.35 10.7 -8.3 11.0 -8.25 L11.15 -8.2 11.25 -7.95 Q11.3 -7.85 11.3 -7.7 11.3 -7.55 10.9 -7.35 10.35 -7.05 10.05 -6.8 9.95 -6.75 9.95 -6.4 9.9 -6.1 9.7 -5.9 L8.9 -5.0 Q8.45 -4.5 8.05 -4.2 7.9 -4.35 7.9 -4.6 7.9 -5.15 8.0 -5.45 8.35 -6.1 8.5 -6.55 L8.5 -6.6 Q8.4 -6.55 8.35 -6.55 L8.1 -6.55 Q8.0 -6.6 7.85 -7.05 7.7 -7.45 7.7 -7.5 7.7 -7.6 7.75 -7.75 7.8 -7.85 7.8 -7.95 L7.9 -8.1 Q8.05 -8.2 8.1 -8.35 L8.1 -8.45 8.05 -8.5 Q8.0 -8.55 7.9 -8.55 7.8 -8.55 7.7 -8.45 L7.55 -8.3 Q7.35 -8.05 6.8 -8.05 6.6 -8.05 6.45 -8.25 6.35 -8.4 6.35 -8.5 6.35 -8.65 6.45 -8.8 6.55 -9.0 6.6 -9.15 L6.75 -9.15 Q7.15 -9.15 7.4 -9.5 L7.55 -9.75 Q7.7 -9.9 7.75 -9.95 L8.1 -9.8 8.45 -9.7 M6.15 -12.9 Q6.3 -12.85 6.45 -12.45 6.55 -12.05 6.55 -11.9 6.55 -11.65 6.35 -11.4 6.05 -11.15 5.75 -11.15 5.5 -11.15 5.25 -11.75 5.15 -12.05 5.05 -12.35 5.05 -12.75 5.2 -12.9 5.45 -13.1 6.15 -12.9 M1.15 -13.6 L1.15 -13.45 1.1 -13.1 Q1.05 -12.8 1.05 -12.7 1.05 -12.5 1.05 -12.25 L1.1 -11.85 Q1.1 -11.5 0.85 -10.65 1.1 -10.5 1.15 -10.4 L1.15 -10.1 Q1.15 -9.95 1.2 -9.75 L1.25 -9.45 Q1.25 -9.25 1.15 -9.05 1.0 -8.75 0.8 -8.55 L0.4 -8.85 Q0.15 -9.05 0.25 -9.35 0.2 -9.45 0.15 -9.5 L-0.15 -9.45 -0.45 -9.45 Q-0.55 -9.3 -0.55 -9.2 L-0.5 -9.0 Q-0.5 -8.85 -0.7 -8.7 -0.95 -8.45 -1.4 -8.5 L-1.35 -8.3 Q-1.3 -8.1 -1.3 -8.0 -1.3 -7.85 -1.3 -7.8 -1.35 -7.6 -1.55 -7.6 L-2.1 -7.6 Q-2.55 -7.85 -2.75 -8.2 -2.95 -8.55 -2.85 -8.85 -3.2 -9.0 -3.25 -9.15 -3.3 -9.2 -3.3 -9.4 -3.3 -9.6 -3.2 -9.7 -3.1 -9.75 -2.9 -9.85 -2.2 -10.05 -1.8 -10.35 -1.6 -10.55 -1.4 -10.95 -1.15 -11.45 -1.1 -11.55 -0.6 -12.15 -0.2 -12.75 -0.15 -12.8 -0.1 -13.05 0.0 -13.25 0.1 -13.35 0.35 -13.7 1.15 -13.65 L1.15 -13.6 M3.15 -10.5 L2.5 -10.45 1.9 -10.35 1.65 -10.4 Q1.55 -10.7 1.55 -11.0 1.55 -11.15 1.75 -11.4 1.95 -11.65 2.15 -11.8 2.65 -11.8 3.1 -11.7 3.5 -11.55 3.5 -11.45 3.5 -11.25 3.4 -10.95 3.25 -10.6 3.15 -10.5 M5.05 -9.5 Q5.2 -9.25 5.2 -9.05 5.2 -8.95 5.1 -8.8 5.05 -8.7 5.05 -8.6 5.05 -8.55 5.15 -8.35 5.25 -8.1 5.25 -8.0 L5.2 -7.65 Q5.1 -7.4 5.1 -7.3 L5.0 -7.0 Q4.9 -6.75 4.9 -6.7 4.9 -6.6 5.1 -6.35 L5.45 -6.05 5.6 -5.7 Q5.65 -5.5 5.95 -5.45 6.0 -5.3 6.0 -5.1 6.0 -5.05 5.85 -4.8 L5.7 -4.5 6.2 -4.45 Q6.45 -4.3 6.5 -4.15 6.55 -4.05 6.55 -3.95 6.55 -3.85 6.5 -3.7 6.4 -3.5 6.4 -3.4 6.4 -3.2 6.55 -3.05 6.7 -2.9 6.85 -2.9 7.3 -2.9 8.0 -3.15 8.7 -3.4 8.85 -3.4 9.75 -3.4 10.0 -3.25 10.1 -3.15 10.1 -3.0 L9.9 -2.75 9.4 -2.3 Q8.6 -1.65 8.2 -1.85 L7.8 -1.5 Q7.5 -1.2 7.2 -1.2 7.15 -1.15 7.05 -1.1 7.1 -1.0 7.35 -0.9 7.6 -0.75 7.9 -0.75 L7.9 -0.45 Q7.45 -0.05 6.75 0.1 L6.55 0.1 7.9 0.2 Q7.95 0.25 7.95 0.45 L8.0 0.5 Q7.8 0.8 7.2 1.0 6.55 1.15 5.65 1.15 L5.25 1.15 5.0 1.1 4.75 1.1 4.7 1.0 Q4.95 0.65 5.65 0.65 L6.15 0.7 6.55 0.7 Q5.7 0.65 5.15 0.5 L4.9 0.45 4.35 0.4 3.15 0.35 Q3.15 0.3 3.1 0.25 L1.75 0.15 0.25 -0.05 -0.85 -0.4 -1.8 -0.6 Q-2.25 -0.6 -2.55 -0.7 L-2.85 -0.75 -3.05 -0.8 -3.1 -0.8 -3.1 -0.85 -3.25 -0.85 Q-3.3 -0.85 -3.3 -0.95 L-3.3 -1.05 -3.25 -1.05 -3.2 -1.15 Q-3.15 -1.15 -3.1 -1.2 -2.35 -1.4 -1.9 -1.55 -1.65 -1.65 -1.2 -1.85 L-1.2 -1.9 -1.85 -1.95 -2.55 -2.0 Q-2.9 -2.0 -3.45 -2.1 -4.05 -2.1 -4.1 -2.15 L-4.45 -2.2 -4.6 -2.25 -4.7 -2.35 -4.65 -2.4 -4.5 -2.45 -4.95 -2.45 -4.95 -2.5 -5.2 -2.55 -5.25 -2.6 -5.0 -2.55 -4.75 -2.8 -4.7 -2.8 -4.45 -3.15 Q-4.1 -3.6 -4.1 -3.55 L-4.05 -3.45 Q-4.0 -3.4 -3.9 -3.4 -3.6 -3.4 -3.15 -4.0 -2.75 -4.45 -2.55 -4.5 L-2.35 -4.65 Q-2.05 -5.0 -1.95 -5.2 -1.8 -5.55 -1.75 -5.7 -1.55 -6.05 -1.3 -6.2 L-1.15 -6.15 Q-1.1 -6.1 -1.1 -6.0 -1.1 -5.75 -1.2 -5.35 -1.3 -4.9 -1.35 -4.75 L-1.35 -4.7 Q-1.2 -4.7 -1.05 -4.8 -0.85 -4.95 -0.8 -4.95 L-0.45 -4.95 -0.45 -4.75 Q-0.45 -4.7 -0.5 -4.3 -0.6 -3.9 -0.55 -3.7 -0.55 -3.6 -0.6 -3.2 L-0.65 -2.75 -0.05 -2.75 0.15 -2.35 Q0.15 -2.1 -0.3 -1.95 -0.6 -1.9 -1.1 -1.9 L-1.1 -1.85 -1.05 -1.85 Q-0.9 -1.85 -0.8 -1.75 -0.75 -1.65 -0.75 -1.55 -0.75 -1.45 -0.8 -1.3 -0.85 -1.2 -0.9 -1.15 L-0.9 -1.0 -0.85 -1.0 -0.65 -1.2 Q-0.65 -1.25 -0.6 -1.25 L-0.55 -1.35 -0.15 -1.45 Q0.15 -1.5 0.2 -1.65 L0.2 -1.85 Q0.25 -2.0 0.25 -2.05 0.3 -2.1 0.55 -2.2 L0.9 -2.35 1.1 -2.5 1.35 -2.7 Q1.55 -2.9 1.65 -3.1 L1.85 -3.5 Q1.95 -3.75 2.35 -4.35 2.7 -4.95 2.8 -5.15 L3.15 -6.0 Q3.3 -6.35 3.45 -6.75 3.25 -6.9 2.7 -7.1 L2.65 -7.1 Q2.55 -7.15 2.5 -7.15 L2.5 -7.2 Q2.4 -7.3 2.4 -7.45 2.4 -7.6 2.5 -7.65 L2.55 -7.65 Q2.65 -8.15 3.1 -8.95 3.7 -10.0 4.0 -10.0 L4.3 -9.95 4.8 -9.85 5.05 -9.5 M0.4 -7.55 Q0.5 -7.25 0.5 -7.15 L0.5 -6.95 0.45 -6.85 0.35 -6.85 0.25 -7.2 0.25 -7.05 Q0.25 -6.95 0.2 -6.9 0.15 -6.8 0.0 -6.65 L-0.6 -6.7 -0.8 -6.95 Q-0.95 -7.15 -0.95 -7.2 -0.95 -7.4 -0.75 -7.7 -0.45 -8.1 0.05 -8.0 0.2 -7.9 0.4 -7.55 M-3.25 -5.25 Q-3.75 -4.75 -4.5 -4.85 L-4.65 -4.7 -4.95 -4.7 -5.05 -4.75 Q-5.1 -4.8 -5.1 -4.9 -5.1 -5.05 -4.75 -5.35 L-4.35 -5.65 -4.25 -5.65 Q-4.2 -5.5 -4.3 -5.4 L-4.3 -5.35 Q-4.15 -5.4 -3.7 -5.8 -3.25 -6.15 -2.95 -6.2 L-2.9 -6.15 Q-2.85 -6.05 -2.85 -5.95 -2.85 -5.65 -3.25 -5.25" fill="#e5eeff" fill-opacity="0.7529412" fill-rule="evenodd" stroke="none"/>
    <path d="M6.95 -14.7 L7.0 -14.7 7.15 -14.65 Q7.3 -14.55 7.3 -14.3 L7.35 -14.0 Q7.35 -13.85 7.05 -12.6 6.7 -11.25 6.7 -11.1 6.55 -10.05 5.75 -8.35 5.95 -8.3 6.0 -8.2 L6.05 -8.0 Q6.05 -7.9 5.9 -7.5 5.8 -7.1 5.75 -7.0 5.25 -6.25 5.25 -6.05 5.25 -5.95 5.3 -5.9 L5.35 -5.8 5.5 -5.75 Q5.85 -5.75 6.2 -6.05 L6.75 -6.55 7.4 -6.55 Q7.5 -6.45 7.6 -6.2 7.7 -5.95 7.7 -5.85 7.7 -5.7 7.55 -5.55 L7.55 -5.55 Q7.75 -5.75 7.8 -5.8 L7.6 -5.45 7.45 -5.3 7.55 -5.15 7.65 -4.95 Q7.65 -4.7 7.5 -4.4 7.3 -4.05 7.05 -3.9 L6.95 -3.8 Q6.75 -3.45 6.2 -2.75 L6.2 -2.65 Q6.45 -2.55 6.85 -2.5 L7.45 -2.4 7.5 -2.3 7.6 -2.25 Q7.5 -2.15 7.0 -2.0 6.55 -1.85 6.45 -1.65 L5.85 -1.6 5.6 -1.5 Q5.6 -1.35 5.65 -1.35 5.9 -1.25 6.15 -1.0 6.5 -0.75 6.5 -0.55 6.5 -0.4 6.4 -0.3 L6.1 0.05 5.45 0.15 4.4 0.25 Q4.1 0.25 3.85 0.25 L3.35 0.35 0.85 0.35 0.6 0.3 0.35 0.3 Q-0.8 0.25 -1.65 -0.15 -1.95 -0.2 -2.7 -0.55 L-3.2 -0.75 -4.05 -0.95 -4.1 -1.1 Q-4.05 -1.1 -4.0 -1.2 L-3.9 -1.25 Q-3.15 -1.35 -2.75 -1.55 L-2.45 -1.75 Q-2.3 -1.85 -2.1 -1.9 -2.15 -2.0 -2.3 -2.1 L-2.75 -2.1 -2.8 -2.2 Q-3.05 -2.25 -3.05 -2.3 L-3.8 -2.35 Q-4.05 -2.4 -4.05 -2.45 L-4.45 -2.4 -4.75 -2.35 -5.45 -2.35 -5.5 -2.3 -5.5 -2.35 -5.65 -2.35 -5.6 -2.4 -5.75 -2.55 Q-5.8 -2.6 -5.8 -2.65 -5.8 -2.8 -5.4 -3.7 -5.35 -3.9 -5.3 -4.25 -5.2 -4.55 -4.9 -4.65 L-4.65 -4.65 Q-4.6 -4.55 -4.6 -4.4 -4.25 -4.5 -3.9 -4.85 -3.55 -5.15 -3.45 -5.35 -3.35 -5.55 -3.05 -5.9 -2.85 -6.15 -2.85 -6.35 -2.85 -6.45 -2.9 -6.5 -2.95 -6.55 -3.25 -6.65 L-3.3 -6.65 -3.3 -6.8 Q-3.3 -6.9 -2.8 -7.2 -2.1 -7.6 -2.0 -7.7 -1.7 -7.9 -1.45 -8.6 -1.2 -9.15 -0.95 -9.5 -0.55 -10.1 0.0 -10.3 L0.2 -10.3 0.35 -10.2 Q0.4 -10.1 0.4 -10.0 0.4 -9.8 0.0 -8.9 -0.45 -8.0 -0.45 -7.95 -0.45 -7.8 -0.3 -7.65 L-0.2 -7.5 Q-0.2 -7.35 -0.45 -6.7 L-0.75 -5.95 Q-0.2 -5.55 -0.1 -5.55 -0.05 -5.65 0.15 -5.65 L0.55 -5.6 0.55 -5.4 Q0.55 -5.25 0.4 -4.85 0.25 -4.45 0.2 -4.4 -0.15 -3.9 -0.2 -3.75 L-0.2 -3.35 Q-0.2 -3.0 -0.25 -2.9 L-0.6 -2.15 -0.6 -2.1 -0.65 -2.1 Q-0.4 -2.1 -0.15 -2.15 L-0.2 -2.2 0.3 -2.55 0.3 -2.6 0.45 -2.65 Q0.7 -2.9 0.85 -3.1 0.95 -3.25 1.2 -3.55 L1.65 -4.1 Q1.8 -4.25 2.15 -4.95 2.55 -5.8 2.55 -6.0 2.55 -6.05 2.45 -6.25 2.3 -6.5 2.3 -6.75 L2.2 -6.85 Q2.0 -6.65 1.8 -6.65 1.55 -6.65 1.3 -6.5 L1.05 -6.5 0.75 -6.55 Q0.65 -6.65 0.65 -6.7 0.65 -6.75 0.65 -6.85 0.65 -7.2 0.95 -7.7 L1.45 -8.6 1.8 -9.45 Q1.85 -9.55 2.15 -9.85 2.5 -10.15 2.65 -10.15 3.05 -10.15 3.15 -9.85 L3.15 -9.45 Q3.15 -9.35 3.2 -9.05 L3.25 -8.65 Q3.45 -8.8 3.75 -9.35 3.95 -9.85 3.95 -9.95 L3.85 -10.15 3.75 -10.3 Q3.75 -11.3 4.4 -11.75 L4.55 -11.6 4.55 -11.5 Q4.95 -11.8 5.15 -12.05 5.4 -12.35 5.5 -12.8 L5.5 -12.9 5.05 -12.9 Q5.05 -12.95 4.95 -12.95 4.9 -13.0 4.9 -13.1 4.9 -13.15 5.4 -13.9 5.95 -14.7 6.1 -15.15 6.7 -16.25 6.95 -15.75 7.1 -15.25 6.95 -14.7" fill="#e5eeff" fill-opacity="0.7529412" fill-rule="evenodd" stroke="none"/>
  </g>
</svg>
