<?xml version="1.0" encoding="UTF-8" standalone="no"?>
<svg xmlns:ffdec="https://www.free-decompiler.com/flash" xmlns:xlink="http://www.w3.org/1999/xlink" ffdec:objectType="shape" height="20.9px" width="17.5px" xmlns="http://www.w3.org/2000/svg">
  <g transform="matrix(1.0, 0.0, 0.0, 1.0, 4.85, 19.5)">
    <path d="M4.55 -17.1 Q4.5 -17.2 4.5 -17.35 4.5 -17.5 4.85 -17.7 5.15 -17.95 5.55 -18.1 5.95 -18.25 6.25 -18.25 6.55 -18.2 6.55 -17.9 6.55 -17.65 6.15 -17.3 5.6 -16.8 5.0 -16.8 4.65 -16.8 4.55 -17.1 M9.75 -18.9 Q10.4 -18.55 10.4 -18.1 10.4 -18.0 10.25 -17.65 10.05 -17.3 9.9 -17.15 L9.7 -17.15 Q9.25 -17.45 8.6 -17.55 7.95 -17.65 7.5 -17.85 6.75 -18.2 6.75 -18.8 6.75 -18.95 6.9 -19.1 7.0 -19.15 7.1 -19.15 L7.1 -19.2 7.0 -19.25 7.2 -19.45 Q7.8 -19.6 8.05 -19.15 9.0 -19.1 9.15 -19.0 9.35 -18.95 9.75 -18.9 M7.25 -13.45 L7.15 -13.4 6.75 -13.25 Q6.5 -13.2 6.4 -13.2 6.1 -13.2 5.95 -13.4 L5.7 -13.6 Q6.1 -14.25 6.7 -14.1 6.95 -14.05 7.1 -13.9 7.3 -13.75 7.3 -13.6 7.3 -13.5 7.25 -13.45 M9.0 -10.6 L8.75 -10.45 Q8.5 -10.35 8.2 -10.35 7.7 -10.35 7.5 -10.45 7.3 -10.6 7.15 -10.7 L7.15 -10.75 7.25 -10.75 7.35 -10.9 Q7.45 -11.1 7.65 -11.2 7.7 -11.15 7.7 -11.05 L7.6 -10.95 7.65 -10.95 Q8.25 -11.2 8.9 -11.75 9.55 -12.15 10.65 -12.0 L10.85 -11.85 Q10.95 -11.75 10.95 -11.65 10.95 -11.4 10.9 -11.25 10.8 -10.95 10.6 -10.75 10.3 -10.5 9.65 -10.5 L9.0 -10.6 M9.9 -9.05 Q9.8 -9.2 9.8 -9.35 L9.85 -9.35 9.85 -9.25 10.1 -9.45 Q10.25 -9.55 10.35 -9.35 L10.9 -9.4 11.2 -9.45 11.6 -9.4 12.2 -9.35 Q12.3 -9.25 12.45 -8.95 12.65 -8.6 12.65 -8.55 12.65 -8.3 12.2 -7.95 L11.85 -7.95 Q11.55 -8.1 11.25 -8.45 10.95 -8.75 10.65 -8.8 L10.25 -8.85 Q10.05 -8.85 10.0 -8.9 9.95 -8.95 9.9 -9.05 M4.15 -15.25 L4.65 -15.15 4.7 -15.1 Q4.75 -15.1 4.9 -15.05 L4.95 -15.0 4.95 -14.75 4.8 -14.6 4.5 -14.6 4.45 -14.65 Q3.85 -14.75 3.65 -14.85 3.6 -14.9 3.6 -15.1 3.6 -15.2 3.65 -15.25 L3.7 -15.3 4.15 -15.25 M4.5 -15.3 L4.55 -15.2 4.5 -15.2 4.45 -15.25 4.5 -15.3 M6.25 -13.85 L6.6 -13.85 Q6.45 -13.9 6.3 -13.85 L6.25 -13.85 M1.45 -13.9 L1.25 -13.9 Q0.75 -13.9 0.5 -14.0 0.2 -14.1 -0.1 -14.1 -0.7 -14.1 -0.85 -13.95 -1.05 -13.85 -1.85 -13.85 -2.1 -13.9 -2.1 -13.95 -2.15 -13.95 -2.15 -14.15 -2.15 -14.35 -1.55 -14.65 -1.05 -14.95 -0.5 -15.05 0.65 -15.35 1.3 -15.05 1.85 -14.85 1.85 -14.45 L1.85 -14.2 Q1.8 -14.05 1.65 -14.0 L1.45 -13.9 M3.05 -12.7 Q3.6 -12.55 3.6 -12.35 3.6 -12.15 3.35 -12.05 3.15 -11.9 2.8 -11.9 L2.45 -12.0 1.95 -12.1 1.85 -12.15 Q1.8 -12.2 1.8 -12.3 1.8 -12.45 2.0 -12.65 2.45 -12.85 3.05 -12.7 M0.5 -8.55 Q0.55 -8.45 0.55 -8.4 0.55 -8.05 -0.15 -8.05 L-0.4 -8.1 -0.7 -8.2 -0.7 -8.15 Q-0.75 -8.2 -0.75 -8.3 -0.75 -8.7 0.3 -8.75 L0.5 -8.55 M5.55 -6.15 Q6.2 -6.15 6.65 -5.75 L7.4 -4.95 Q7.35 -4.9 7.25 -4.85 7.1 -4.8 6.9 -4.8 L6.75 -4.75 Q6.75 -4.7 6.75 -4.55 6.75 -4.4 7.05 -4.2 7.35 -4.0 7.5 -4.0 L7.55 -3.95 7.55 -3.85 Q7.55 -3.7 7.45 -3.55 7.4 -3.4 7.4 -3.2 7.45 -2.85 7.3 -2.75 7.15 -2.65 7.15 -2.6 7.15 -2.55 7.25 -2.4 L7.4 -2.25 Q8.6 -2.2 8.9 -2.05 9.15 -1.95 9.15 -1.7 9.15 -1.5 9.4 -1.3 9.7 -1.05 9.7 -0.95 9.7 -0.8 9.6 -0.7 L9.7 -0.6 Q9.9 -0.45 9.9 -0.3 9.9 -0.1 9.85 -0.05 L9.2 0.0 9.7 0.1 Q10.35 0.25 10.85 0.5 L11.25 0.9 10.95 1.25 Q10.7 1.4 10.2 1.35 L9.85 1.4 9.05 1.4 8.0 1.35 7.8 1.35 Q7.75 1.3 7.75 1.25 L7.8 1.2 Q7.8 1.15 7.85 1.15 L7.95 1.1 7.75 1.1 7.6 1.05 Q7.8 1.05 8.3 0.95 9.0 0.8 9.6 0.75 9.5 0.6 9.25 0.35 L9.05 0.15 8.6 0.05 8.6 0.0 7.1 -0.15 6.8 -0.2 6.55 -0.2 6.25 -0.15 4.55 -0.15 3.7 -0.2 3.35 -0.25 3.2 -0.25 Q2.8 -0.1 2.25 -0.1 2.1 -0.1 2.0 -0.25 1.95 -0.35 1.95 -0.45 1.95 -0.55 2.15 -0.7 2.35 -0.8 2.4 -0.8 2.65 -0.8 2.7 -0.7 L2.8 -0.5 Q2.9 -0.55 3.2 -0.6 3.45 -0.65 3.65 -0.75 3.7 -0.8 3.8 -1.0 L3.95 -1.3 Q4.05 -1.4 4.05 -1.6 L4.05 -1.9 Q4.1 -2.2 4.8 -2.05 L5.25 -2.05 Q5.3 -2.25 5.45 -2.65 5.6 -3.05 5.45 -3.3 L5.45 -3.65 Q5.45 -3.7 5.55 -3.7 5.65 -3.7 5.65 -3.65 5.7 -3.55 5.75 -3.55 L5.8 -3.7 Q6.0 -4.0 6.0 -4.25 L5.95 -4.55 Q5.9 -4.7 5.75 -5.05 5.55 -5.65 5.55 -5.9 L5.55 -6.15 M1.1 -0.3 Q1.05 -0.25 0.9 -0.15 L0.1 -0.15 -0.2 -0.2 -0.25 -0.2 Q-0.25 -0.25 -0.25 -0.35 -0.25 -0.45 -0.05 -0.55 0.15 -0.65 0.45 -0.65 1.1 -0.7 1.1 -0.35 L1.1 -0.3 M5.65 -3.45 L5.7 -3.4 5.7 -3.45 5.65 -3.45 M11.9 -4.25 Q12.0 -4.1 12.0 -4.0 12.0 -3.75 11.75 -3.55 11.4 -3.35 10.8 -3.35 9.6 -3.35 9.45 -4.15 9.55 -4.15 9.7 -4.25 9.9 -4.35 10.0 -4.4 10.5 -4.6 11.8 -4.4 L11.9 -4.25 M10.25 -8.0 Q10.3 -7.85 10.3 -7.8 10.3 -7.75 10.2 -7.5 10.05 -7.3 10.0 -7.2 L9.6 -7.2 Q9.45 -7.25 9.35 -7.45 L9.1 -7.8 Q9.0 -7.95 8.95 -8.05 L8.85 -8.3 Q9.1 -8.4 10.0 -8.3 10.15 -8.25 10.25 -8.0 M9.55 0.9 L9.0 1.05 9.4 1.05 9.55 0.9 M9.7 1.15 L9.7 1.15 M-4.0 -11.0 Q-4.05 -11.0 -4.05 -11.15 -4.05 -11.35 -3.5 -11.6 L-2.6 -12.05 Q-2.15 -12.3 -1.45 -12.25 -0.8 -12.15 -0.8 -11.95 -0.8 -11.85 -1.0 -11.7 L-1.2 -11.5 Q-2.05 -11.55 -2.4 -11.35 -2.8 -11.05 -3.1 -10.9 L-3.65 -10.85 Q-3.95 -10.85 -4.0 -11.0 M-2.85 -7.1 Q-2.8 -7.05 -2.8 -7.0 -2.8 -6.85 -2.9 -6.75 -3.0 -6.7 -3.25 -6.7 -4.1 -6.6 -4.65 -6.4 L-4.85 -6.55 -4.85 -6.6 Q-4.85 -6.75 -4.2 -7.0 -3.45 -7.25 -3.05 -7.2 L-2.85 -7.1 M-3.8 -2.05 L-4.05 -2.15 -4.1 -2.2 -3.95 -2.2 Q-3.8 -2.2 -3.5 -2.35 L-2.95 -2.65 Q-2.85 -2.7 -2.6 -2.9 L-2.25 -3.1 -1.7 -3.05 -1.6 -3.0 Q-1.55 -2.9 -1.55 -2.8 -1.55 -2.75 -1.3 -2.55 -1.1 -2.3 -1.1 -2.25 -1.1 -2.15 -1.3 -2.0 -1.45 -1.85 -1.55 -1.85 L-2.25 -1.9 -3.0 -2.0 -3.3 -1.95 -3.55 -1.9 Q-3.65 -1.9 -3.8 -2.05" fill="#e5eeff" fill-opacity="0.7529412" fill-rule="evenodd" stroke="none"/>
  </g>
</svg>
