<?xml version="1.0" encoding="UTF-8" standalone="no"?>
<svg xmlns:ffdec="https://www.free-decompiler.com/flash" xmlns:xlink="http://www.w3.org/1999/xlink" ffdec:objectType="shape" height="17.95px" width="17.9px" xmlns="http://www.w3.org/2000/svg">
  <g transform="matrix(1.0, 0.0, 0.0, 1.0, 4.85, 16.7)">
    <path d="M10.35 -16.65 Q10.4 -16.65 10.4 -16.5 10.4 -16.4 10.3 -16.3 10.15 -16.15 10.05 -16.15 L9.85 -16.3 Q9.85 -16.35 9.85 -16.4 9.85 -16.55 10.0 -16.65 10.2 -16.75 10.35 -16.7 L10.35 -16.65 M9.05 -16.05 L9.1 -16.0 Q9.0 -15.85 8.9 -15.8 L8.75 -15.9 8.7 -16.0 8.75 -16.1 Q8.75 -16.15 8.9 -16.15 L9.05 -16.05 M7.0 -16.15 Q6.9 -16.0 6.75 -15.85 L6.7 -15.9 6.6 -15.95 6.6 -16.05 Q6.6 -16.15 6.7 -16.25 6.8 -16.3 6.85 -16.3 6.95 -16.2 7.0 -16.15 M7.1 -12.25 L6.85 -12.25 6.8 -12.3 6.8 -12.4 7.0 -12.4 Q7.05 -12.35 7.05 -12.3 L7.1 -12.25 M9.75 -9.45 L9.8 -9.35 Q9.8 -9.3 9.75 -9.2 L9.65 -9.15 9.3 -9.15 9.25 -9.2 Q9.2 -9.25 9.2 -9.35 L9.2 -9.45 9.25 -9.5 9.5 -9.5 9.75 -9.45 M12.3 -9.9 L12.1 -9.8 11.95 -9.85 12.1 -9.9 Q12.25 -10.0 12.35 -10.0 12.35 -9.95 12.3 -9.9 M4.05 -13.65 L4.0 -13.6 Q3.95 -13.55 3.85 -13.55 L3.8 -13.55 3.8 -13.7 Q3.8 -13.85 3.8 -13.8 L4.0 -13.8 4.05 -13.65 M1.1 -12.55 Q1.1 -12.45 1.05 -12.35 0.95 -12.3 0.85 -12.3 0.65 -12.3 0.6 -12.4 0.6 -12.45 0.6 -12.55 0.6 -12.8 0.85 -12.8 1.1 -12.8 1.1 -12.55 M2.0 -11.45 L2.1 -11.45 2.2 -11.25 2.15 -11.2 2.0 -11.2 Q1.95 -11.2 1.95 -11.3 1.95 -11.4 2.0 -11.45 M3.15 -10.9 L3.15 -10.95 Q3.1 -11.0 3.1 -11.05 L3.2 -11.05 Q3.25 -11.05 3.3 -10.95 3.25 -10.9 3.15 -10.9 M0.9 -0.15 L1.0 -0.15 1.15 -0.1 Q1.15 0.05 0.95 0.1 0.9 0.05 0.9 0.0 L0.9 -0.15 M5.65 -0.2 Q5.6 -0.15 5.5 -0.15 5.1 -0.15 5.1 -0.45 5.1 -0.75 5.4 -0.75 5.7 -0.75 5.7 -0.4 5.7 -0.3 5.65 -0.2 M13.05 -7.1 L12.65 -7.1 12.65 -7.15 Q12.6 -7.15 12.6 -7.3 12.6 -7.45 12.8 -7.45 13.0 -7.4 13.05 -7.2 L13.05 -7.1 M10.5 -6.35 L10.6 -6.25 Q10.65 -6.2 10.65 -6.1 10.55 -6.0 10.5 -5.95 L10.35 -6.0 Q10.3 -6.05 10.3 -6.15 10.3 -6.3 10.35 -6.3 L10.5 -6.35 M7.05 -2.15 Q7.15 -2.1 7.2 -2.0 7.15 -1.9 7.1 -1.85 L6.85 -1.85 Q6.85 -1.9 6.85 -2.0 6.85 -2.1 6.9 -2.1 L7.05 -2.15 M10.25 -1.15 Q10.45 -1.05 10.45 -0.8 10.45 -0.65 10.4 -0.6 10.3 -0.45 9.9 -0.45 9.5 -0.45 9.3 -0.55 9.25 -0.6 9.2 -0.7 L9.05 -0.65 8.95 -0.65 Q8.85 -0.65 8.85 -0.7 8.95 -0.8 9.1 -1.2 9.2 -1.6 9.35 -1.65 L9.6 -1.65 9.75 -1.45 Q9.85 -1.3 10.1 -1.3 10.2 -1.2 10.25 -1.15 M12.55 -2.65 L12.55 -2.55 12.5 -2.35 Q12.45 -2.3 12.35 -2.3 12.1 -2.3 12.1 -2.55 12.1 -2.65 12.2 -2.7 12.25 -2.8 12.5 -2.75 12.5 -2.7 12.55 -2.65 M11.35 -0.6 Q11.4 -0.55 11.4 -0.4 11.4 -0.3 11.15 -0.15 10.95 0.0 10.85 0.0 10.6 0.0 10.55 -0.1 10.5 -0.15 10.5 -0.25 10.5 -0.4 10.7 -0.6 10.95 -0.8 11.25 -0.7 L11.35 -0.6 M12.85 0.75 L12.9 0.9 Q12.9 0.95 12.85 1.05 12.75 1.15 12.6 1.25 L12.35 1.25 12.25 1.05 Q12.2 0.95 12.2 0.85 12.2 0.65 12.4 0.7 L12.85 0.75 M-2.2 -12.9 Q-2.2 -13.3 -1.8 -13.05 L-1.55 -12.85 -1.4 -12.75 Q-1.4 -12.6 -1.55 -12.55 L-1.8 -12.5 Q-2.05 -12.5 -2.15 -12.7 -2.2 -12.8 -2.2 -12.9 M-3.7 -9.6 L-3.75 -9.5 Q-3.75 -9.45 -3.9 -9.45 -4.05 -9.45 -4.05 -9.5 L-4.05 -9.55 Q-4.1 -9.6 -4.1 -9.7 -4.1 -9.8 -4.0 -9.85 L-3.9 -9.85 Q-3.7 -9.7 -3.7 -9.6 M-0.9 -12.35 Q-0.85 -12.3 -0.75 -12.2 -0.8 -12.15 -1.0 -12.0 L-1.1 -12.0 -1.1 -12.1 Q-1.1 -12.2 -1.0 -12.25 L-0.9 -12.35 M-1.85 -9.75 L-1.7 -9.75 -1.6 -9.7 -1.65 -9.6 -1.8 -9.6 Q-1.95 -9.65 -1.95 -9.75 L-1.85 -9.75 M-2.65 -5.2 L-2.75 -5.2 Q-2.8 -5.25 -2.8 -5.4 L-2.75 -5.4 Q-2.65 -5.4 -2.6 -5.35 -2.6 -5.25 -2.65 -5.2 M-4.55 -5.3 L-4.55 -5.15 -4.6 -5.1 Q-4.65 -5.05 -4.7 -5.05 -4.8 -5.05 -4.85 -5.1 L-4.85 -5.25 Q-4.85 -5.35 -4.85 -5.4 L-4.7 -5.45 Q-4.6 -5.4 -4.55 -5.3 M-1.75 -1.2 L-1.55 -1.15 Q-1.6 -1.1 -1.7 -1.1 -1.8 -1.1 -1.8 -1.15 L-1.75 -1.2 M-2.4 -1.35 L-2.55 -1.25 Q-2.7 -1.15 -2.8 -1.15 L-2.9 -1.15 Q-2.9 -1.2 -2.9 -1.3 L-2.9 -1.45 Q-2.75 -1.5 -2.4 -1.35" fill="#e5eeff" fill-opacity="0.7529412" fill-rule="evenodd" stroke="none"/>
  </g>
</svg>
