<?xml version="1.0" encoding="UTF-8" standalone="no"?>
<svg xmlns:ffdec="https://www.free-decompiler.com/flash" xmlns:xlink="http://www.w3.org/1999/xlink" ffdec:objectType="shape" height="38.35px" width="38.75px" xmlns="http://www.w3.org/2000/svg">
  <g transform="matrix(1.0, 0.0, 0.0, 1.0, 18.4, 37.5)">
    <path d="M-0.15 -1.6 Q-0.05 -0.05 2.2 0.45 L1.8 0.65 Q1.4 0.85 0.45 0.85 L-1.15 0.65 -2.45 0.45 -2.5 0.4 Q-2.5 0.35 -2.5 0.2 -2.2 -0.15 -1.9 -0.6 -1.25 -1.45 -1.1 -2.3 -1.05 -2.55 -0.9 -3.7 -0.7 -4.7 -0.3 -4.1 -0.05 -3.7 -0.1 -2.9 L-0.15 -1.6 M-4.1 0.55 L-4.7 0.65 -4.9 0.6 Q-4.95 0.55 -4.95 0.35 -4.95 -0.05 -4.45 0.15 L-3.4 0.5 -3.4 0.55 Q-3.75 0.5 -4.1 0.55 M3.0 0.85 Q2.7 0.85 2.6 0.6 2.55 0.45 2.55 0.3 2.55 -0.2 3.0 -0.2 3.5 -0.25 3.5 0.3 3.5 0.5 3.35 0.65 3.2 0.85 3.0 0.85" fill="#ffffff" fill-opacity="0.7529412" fill-rule="evenodd" stroke="none"/>
    <path d="M10.55 -36.3 Q10.45 -36.25 10.3 -36.25 10.0 -36.25 9.9 -36.4 9.8 -36.5 9.8 -36.65 9.8 -36.9 10.2 -36.9 10.65 -36.9 10.65 -36.55 10.65 -36.4 10.55 -36.3 M4.15 -29.0 Q4.05 -28.85 3.95 -28.85 3.75 -28.85 3.7 -29.0 L3.65 -29.2 Q3.65 -29.45 3.95 -29.5 4.25 -29.5 4.25 -29.2 4.25 -29.1 4.15 -29.0 M17.9 -32.0 Q17.9 -31.95 17.8 -31.95 L17.6 -32.0 Q17.65 -32.15 17.85 -32.15 17.9 -32.1 17.9 -32.0 M19.9 -28.7 Q19.85 -28.75 19.85 -28.85 19.85 -29.2 20.1 -29.2 20.35 -29.2 20.35 -28.85 20.35 -28.7 20.3 -28.65 20.25 -28.55 20.1 -28.55 19.95 -28.55 19.9 -28.7 M-17.95 -33.1 L-17.3 -32.75 -17.3 -32.7 Q-17.55 -32.7 -17.9 -32.3 -18.15 -31.95 -18.2 -31.75 L-18.35 -32.15 Q-18.4 -32.45 -18.4 -32.55 -18.4 -33.25 -17.95 -33.1 M-5.3 -36.85 Q-5.55 -36.7 -5.65 -36.7 -6.0 -36.7 -6.0 -37.0 -6.0 -37.3 -5.5 -37.45 -5.0 -37.6 -5.0 -37.15 -5.0 -36.95 -5.3 -36.85" fill="#ffffff" fill-opacity="0.7529412" fill-rule="evenodd" stroke="none"/>
  </g>
</svg>
