<?xml version="1.0" encoding="UTF-8" standalone="no"?>
<svg xmlns:ffdec="https://www.free-decompiler.com/flash" xmlns:xlink="http://www.w3.org/1999/xlink" ffdec:objectType="shape" height="34.85px" width="50.5px" xmlns="http://www.w3.org/2000/svg">
  <g transform="matrix(1.0, 0.0, 0.0, 1.0, 18.9, 31.25)">
    <path d="M0.1 -16.15 L0.15 -16.0 0.5 -16.0 Q0.6 -15.9 0.7 -15.85 L0.75 -15.85 Q0.9 -15.75 0.9 -15.7 L0.9 -15.65 0.95 -15.6 0.85 -15.5 0.7 -15.5 0.5 -15.3 0.35 -15.3 Q0.25 -15.3 0.05 -15.4 -0.1 -15.55 -0.15 -15.6 L-0.05 -15.8 -0.35 -15.6 -0.45 -15.55 -0.45 -15.5 Q-0.45 -15.35 -0.7 -15.25 L-1.1 -15.0 Q-1.3 -14.75 -1.5 -14.75 L-1.6 -14.8 -1.7 -14.8 Q-1.75 -14.95 -1.85 -15.15 -1.95 -15.35 -2.05 -15.4 -2.0 -15.85 -1.65 -16.05 L-1.0 -16.35 Q-0.8 -16.3 -0.7 -16.25 L-0.6 -16.2 -0.05 -16.25 Q0.0 -16.3 0.0 -16.15 L0.1 -16.15 M0.8 -15.4 L0.9 -15.45 1.1 -15.25 1.1 -15.15 1.05 -15.1 0.8 -15.1 Q0.8 -15.15 0.8 -15.4 M0.65 -15.05 Q0.65 -14.9 0.6 -14.85 L0.5 -14.75 -0.35 -14.75 -0.4 -15.0 Q-0.45 -15.15 -0.45 -15.2 L-0.1 -15.15 0.65 -15.15 Q0.65 -15.25 0.65 -15.05 M0.45 -15.0 Q0.35 -15.0 0.3 -14.95 0.45 -14.95 0.45 -15.0 M4.25 -15.05 L6.85 -15.05 7.15 -14.65 7.25 -14.5 7.3 -14.5 7.35 -14.45 7.35 -14.35 Q7.3 -14.25 7.2 -14.0 L7.15 -13.9 7.15 -13.85 Q7.15 -13.8 7.2 -13.6 L7.25 -13.5 7.35 -13.1 Q7.35 -13.05 7.2 -12.85 L6.95 -12.6 6.85 -12.95 6.8 -13.25 6.4 -13.3 6.4 -13.65 Q6.4 -13.8 6.35 -13.9 L6.3 -13.7 Q6.3 -13.5 6.3 -13.45 L6.25 -13.45 6.25 -13.4 Q6.2 -13.35 6.1 -13.3 L6.1 -13.35 Q5.95 -13.25 5.75 -13.15 L5.45 -13.45 Q5.25 -13.7 5.25 -13.8 5.25 -13.9 5.6 -14.1 5.9 -14.3 5.85 -14.3 L6.1 -14.25 6.3 -14.25 6.35 -14.35 6.55 -14.55 Q6.45 -14.65 6.3 -14.7 L6.05 -14.7 6.05 -14.6 Q6.05 -14.55 6.0 -14.45 L5.95 -14.35 5.75 -14.3 5.4 -14.15 5.2 -14.0 5.2 -13.95 5.15 -13.95 5.1 -13.9 5.05 -13.95 5.05 -13.65 Q5.05 -13.45 4.9 -13.3 L4.4 -13.0 3.8 -13.0 Q3.8 -13.05 3.65 -13.2 L3.55 -13.45 Q3.55 -13.7 3.75 -14.05 3.95 -14.55 4.2 -14.15 L4.75 -14.15 4.8 -14.1 4.95 -14.1 4.9 -14.15 Q4.85 -14.3 4.3 -14.35 L4.15 -14.5 Q4.0 -14.65 3.85 -14.65 L4.0 -14.85 4.25 -15.05 M6.15 -12.8 L5.9 -12.8 6.3 -13.25 6.55 -13.2 6.65 -13.1 6.65 -13.05 6.7 -13.0 6.75 -12.8 6.75 -12.65 6.7 -12.55 6.6 -12.5 6.55 -12.55 6.45 -12.5 6.25 -12.5 Q6.15 -12.6 6.15 -12.8 M7.5 -10.1 Q7.7 -10.1 7.95 -9.75 7.95 -9.6 7.8 -9.4 L7.6 -9.15 7.55 -9.1 7.45 -8.9 7.5 -8.8 7.45 -8.7 7.35 -8.6 6.9 -8.65 6.4 -8.7 6.25 -8.7 6.2 -8.65 6.2 -8.8 6.3 -9.4 Q6.3 -9.55 6.45 -9.6 L6.8 -9.75 Q6.85 -9.75 7.1 -10.0 7.35 -10.2 7.35 -10.15 L7.5 -10.1 M6.15 -9.15 Q6.15 -9.0 5.8 -8.8 L5.7 -8.8 5.6 -8.9 Q5.65 -9.05 5.75 -9.15 5.9 -9.35 6.1 -9.35 L6.15 -9.3 6.15 -9.15 M6.7 -8.65 Q6.8 -8.6 6.9 -8.4 6.6 -8.1 6.45 -8.1 L6.3 -8.15 Q6.05 -8.2 5.9 -8.3 L5.7 -8.45 Q5.75 -8.5 5.75 -8.7 L6.4 -8.6 6.55 -8.55 6.7 -8.65 M6.2 -7.1 L6.2 -7.05 6.3 -7.05 6.65 -6.55 Q6.75 -6.35 6.75 -6.05 6.75 -5.85 6.7 -5.75 6.65 -5.6 6.35 -5.6 6.3 -5.6 6.3 -5.7 L5.7 -5.35 5.6 -5.4 Q5.55 -5.4 5.6 -5.55 5.6 -5.65 5.5 -5.7 5.45 -5.75 5.45 -5.85 5.45 -5.95 5.55 -6.05 5.7 -6.2 5.8 -6.4 L5.85 -6.65 5.9 -6.95 Q5.9 -7.15 5.95 -7.0 L6.15 -7.0 6.15 -7.1 6.2 -7.1 M4.95 -12.45 Q5.0 -12.5 5.0 -12.3 4.75 -11.85 4.6 -11.7 L4.5 -11.95 Q4.4 -12.1 4.4 -12.25 4.4 -12.35 4.45 -12.4 4.5 -12.45 4.6 -12.45 L4.95 -12.45 M0.3 -11.2 Q0.45 -11.25 0.95 -11.6 1.35 -11.9 1.55 -11.95 L1.75 -11.95 1.8 -11.85 Q1.95 -11.8 1.95 -11.65 L2.0 -11.2 Q1.95 -11.1 1.9 -11.05 L1.85 -11.1 1.6 -10.85 1.2 -10.6 Q1.05 -10.4 0.95 -10.15 L0.9 -10.15 Q0.75 -9.9 0.55 -10.2 0.25 -10.15 0.0 -9.95 L-0.05 -9.95 -0.05 -10.1 Q-0.05 -10.35 0.15 -10.65 0.3 -10.95 0.5 -11.15 L0.3 -11.2 M0.1 -13.5 L0.1 -13.35 0.0 -13.3 0.0 -13.35 Q-0.05 -13.3 -0.15 -13.3 L-0.45 -13.1 Q-0.8 -12.9 -0.95 -12.8 L-1.0 -12.85 -1.0 -12.9 -1.1 -12.75 -1.5 -13.05 Q-1.75 -13.3 -1.75 -13.35 -1.75 -13.5 -1.55 -13.85 -1.35 -14.2 -1.15 -14.25 L-0.95 -14.2 Q-0.75 -14.0 -0.75 -13.85 L-0.35 -13.9 -0.05 -14.0 0.05 -14.0 0.1 -13.9 0.15 -13.65 0.1 -13.5 0.1 -13.5 M1.7 -8.95 L1.65 -8.8 1.6 -8.75 1.45 -8.8 1.45 -8.55 1.65 -8.5 1.7 -8.4 1.65 -8.35 Q1.6 -8.25 1.45 -8.1 L1.1 -7.8 Q0.95 -8.05 0.95 -8.15 L1.05 -8.3 Q1.05 -8.4 0.9 -8.65 L0.8 -8.95 Q0.8 -9.1 0.95 -9.25 1.1 -9.35 1.25 -9.3 L1.45 -9.3 Q1.6 -9.2 1.7 -8.95 M0.4 -9.0 L0.35 -8.95 0.35 -9.05 0.3 -9.05 0.2 -9.2 Q0.15 -9.25 -0.1 -9.25 L-0.15 -9.25 -0.15 -9.4 Q-0.15 -9.7 0.15 -9.8 0.5 -9.9 0.85 -9.7 L0.9 -9.7 0.9 -9.55 Q0.9 -9.45 0.8 -9.25 L0.55 -9.0 0.4 -9.0 M5.15 -8.4 Q5.1 -8.35 5.0 -8.35 L4.9 -8.35 Q4.85 -8.4 4.85 -8.5 L4.85 -8.65 4.9 -8.75 5.0 -8.75 Q5.15 -8.65 5.2 -8.6 L5.15 -8.4 M4.0 -4.3 Q3.95 -4.3 3.95 -4.45 4.0 -4.6 4.2 -4.8 L4.6 -5.25 5.1 -5.2 Q5.25 -5.3 5.35 -5.25 L5.4 -5.25 5.4 -5.2 Q5.45 -5.2 5.45 -5.1 5.45 -4.9 5.25 -4.7 L4.8 -4.25 4.4 -4.25 4.1 -4.2 Q4.0 -4.25 4.0 -4.3 M1.25 -6.45 L1.05 -6.45 0.9 -6.5 0.8 -6.55 Q0.85 -6.7 0.95 -6.75 1.25 -6.7 1.3 -6.65 1.3 -6.55 1.25 -6.45 M1.1 -6.25 L1.3 -6.2 1.35 -6.15 1.4 -5.85 Q1.4 -5.65 1.2 -5.45 1.05 -5.25 0.85 -5.15 L0.55 -5.25 0.1 -5.35 0.2 -5.9 Q0.25 -6.25 0.45 -6.3 L0.7 -6.3 1.0 -6.2 1.1 -6.25 M0.5 -4.0 L0.0 -3.45 -0.1 -3.4 -0.3 -3.35 Q-0.4 -3.45 -0.7 -3.6 -0.65 -3.8 -0.45 -3.95 L-0.2 -4.05 -0.25 -4.2 0.0 -4.25 0.0 -4.1 0.25 -4.1 0.35 -4.05 0.5 -4.0 M29.9 -27.7 Q30.25 -27.35 30.25 -27.05 L30.0 -26.85 Q29.7 -26.6 29.5 -26.5 L29.55 -26.55 Q29.6 -26.6 29.6 -26.8 29.6 -27.1 28.8 -27.35 L28.65 -27.55 Q28.7 -27.65 29.05 -27.95 29.35 -28.15 29.45 -28.2 L29.9 -27.7 M29.2 -26.35 Q29.1 -26.35 28.95 -26.45 28.8 -26.55 28.75 -26.6 28.75 -26.65 28.8 -26.75 L28.85 -26.8 Q29.0 -26.8 29.1 -26.65 29.25 -26.55 29.25 -26.45 L29.2 -26.35 M30.15 -25.8 Q30.05 -25.85 30.05 -26.05 30.05 -26.2 30.15 -26.25 30.25 -26.35 30.5 -26.45 30.65 -26.25 30.75 -26.0 L30.7 -25.8 30.2 -25.7 30.15 -25.8 M27.85 -27.9 L28.2 -27.85 Q28.2 -27.55 28.2 -27.3 L28.2 -27.2 27.75 -27.2 27.7 -27.25 Q27.7 -27.35 27.7 -27.55 27.7 -27.75 27.75 -27.85 L27.85 -27.9 M31.2 -13.45 L31.2 -13.4 30.95 -13.35 30.9 -13.45 30.75 -13.45 30.7 -13.4 30.7 -13.65 Q30.7 -13.85 30.75 -13.9 L30.85 -13.9 31.45 -13.75 Q31.55 -13.65 31.6 -13.55 L31.5 -13.45 31.2 -13.45 M-15.2 -29.7 Q-15.2 -29.9 -14.9 -30.3 -14.65 -30.65 -14.45 -30.8 -14.2 -31.0 -14.1 -31.25 -14.0 -31.35 -13.35 -31.1 L-13.25 -31.05 Q-13.2 -31.05 -13.2 -30.85 -13.2 -30.5 -13.35 -30.45 L-13.7 -30.4 Q-14.1 -30.4 -14.3 -29.9 L-14.55 -29.1 Q-15.2 -29.45 -15.2 -29.7 M-13.1 -30.2 Q-13.05 -30.1 -13.05 -30.0 L-13.2 -29.85 Q-13.35 -29.8 -13.5 -29.8 L-13.55 -29.95 Q-13.45 -30.1 -13.35 -30.15 L-13.1 -30.2 M-16.6 -22.0 L-16.8 -21.95 Q-17.15 -22.2 -17.25 -22.4 L-17.3 -22.65 -16.85 -22.6 Q-16.7 -22.55 -16.55 -22.2 L-16.6 -22.0 M-18.05 -17.3 Q-17.95 -17.1 -17.95 -16.9 -17.95 -16.7 -18.0 -16.7 L-18.15 -16.7 Q-18.4 -16.85 -18.55 -17.1 L-18.9 -17.45 -18.85 -17.55 -18.55 -17.6 Q-18.2 -17.6 -18.05 -17.3 M-1.65 -11.65 L-1.4 -11.4 Q-1.4 -11.35 -1.8 -10.8 L-1.9 -10.8 -1.95 -11.0 Q-2.0 -11.15 -2.0 -11.25 L-1.9 -11.45 -1.65 -11.65 M-0.65 -11.3 Q-0.65 -11.15 -0.95 -10.85 -1.25 -10.55 -1.3 -10.4 -1.35 -10.4 -1.5 -10.6 -1.65 -10.8 -1.65 -10.9 -1.65 -11.1 -1.0 -11.65 L-0.8 -11.6 -0.7 -11.5 Q-0.65 -11.45 -0.65 -11.3 M-5.05 -12.45 Q-4.7 -12.55 -4.55 -12.7 -4.45 -12.65 -4.25 -12.3 -4.15 -12.3 -4.0 -12.0 L-3.9 -11.7 -3.85 -11.6 -3.9 -11.5 Q-3.9 -11.35 -3.9 -11.3 -3.95 -11.25 -4.0 -11.2 -4.05 -11.05 -4.15 -11.05 -4.25 -11.05 -4.45 -11.15 L-4.65 -11.2 Q-5.0 -11.25 -5.0 -11.45 L-4.95 -11.7 Q-5.0 -11.9 -5.1 -12.0 -5.2 -12.1 -5.2 -12.15 -5.2 -12.4 -5.05 -12.45 M-5.25 -11.8 L-5.2 -11.85 Q-5.1 -11.95 -5.1 -11.75 -5.1 -11.55 -5.25 -11.25 -5.3 -10.9 -5.3 -10.75 -5.3 -10.65 -5.25 -10.65 L-5.15 -10.65 Q-5.1 -10.7 -5.1 -10.5 -5.1 -10.4 -5.45 -10.05 -5.8 -9.75 -5.9 -9.7 L-6.0 -9.75 Q-6.05 -9.75 -6.05 -9.9 L-6.1 -9.95 Q-6.25 -10.1 -6.4 -10.25 L-6.75 -10.6 -6.9 -10.8 Q-6.9 -10.9 -6.7 -11.25 L-6.45 -11.6 -6.15 -12.3 -5.9 -12.15 Q-5.75 -12.05 -5.45 -12.0 -5.3 -11.9 -5.25 -11.8 M-4.5 -10.75 L-4.35 -10.65 Q-4.3 -10.55 -4.3 -10.45 -4.3 -10.35 -4.45 -10.1 -4.55 -9.95 -4.65 -9.95 L-4.8 -10.1 Q-4.95 -10.2 -4.95 -10.25 -4.95 -10.55 -4.7 -10.75 L-4.5 -10.75 M-0.85 -9.1 Q-0.8 -8.85 -0.95 -8.7 L-1.1 -8.55 -1.15 -8.55 -1.1 -8.5 -1.1 -8.35 -1.25 -8.05 Q-1.1 -7.95 -0.75 -7.55 L-0.45 -7.25 -0.35 -7.25 -0.2 -7.2 -0.2 -6.8 -0.25 -6.5 -0.2 -6.1 -0.2 -6.0 -0.15 -5.95 Q-0.05 -5.95 -0.05 -5.9 L-0.1 -5.8 -0.05 -5.55 -0.15 -5.5 -0.75 -5.6 Q-1.15 -5.7 -1.3 -5.9 L-1.65 -6.6 -2.1 -7.8 Q-2.1 -8.0 -1.75 -8.6 L-1.35 -9.25 Q-1.0 -9.15 -0.95 -9.05 L-0.85 -9.1 M-2.3 -4.2 Q-2.35 -4.15 -2.45 -4.2 L-3.2 -4.2 -3.4 -4.25 -3.45 -4.35 -3.85 -4.3 -4.3 -4.75 -4.5 -5.0 -4.75 -5.25 -4.75 -5.3 -4.9 -5.4 Q-4.95 -5.45 -5.0 -5.45 -5.0 -5.6 -4.9 -5.65 L-4.9 -5.7 Q-4.9 -5.9 -4.55 -6.05 L-4.35 -6.0 -3.85 -5.6 -3.7 -5.6 Q-3.55 -5.35 -3.15 -4.85 L-3.05 -4.7 -2.85 -4.55 Q-2.75 -4.5 -2.7 -4.45 L-2.6 -4.4 Q-2.4 -4.35 -2.3 -4.2 M-3.85 -4.65 L-3.85 -4.65" fill="#90e6ff" fill-rule="evenodd" stroke="none"/>
    <path d="M11.5 -1.6 Q12.1 -2.0 12.2 -2.1 12.7 -2.7 12.7 -3.15 12.7 -3.3 12.6 -3.5 L12.55 -3.5 Q12.4 -3.5 12.15 -3.4 11.9 -3.35 11.8 -3.25 L11.75 -3.25 11.7 -3.2 11.65 -3.2 11.75 -3.35 11.95 -3.55 12.25 -3.9 Q12.3 -3.95 12.3 -4.25 12.35 -4.45 12.45 -4.6 12.55 -4.65 12.75 -4.7 13.0 -4.7 13.3 -4.8 13.5 -4.9 13.95 -5.1 14.2 -5.25 14.35 -5.45 14.5 -5.6 14.8 -5.75 L15.35 -5.75 15.6 -5.4 Q15.75 -5.25 16.1 -5.2 L16.7 -5.15 Q17.0 -4.95 17.1 -4.65 L17.2 -4.1 Q17.2 -4.0 17.35 -3.85 L17.5 -3.6 17.7 -3.05 17.35 -2.75 17.0 -2.5 Q16.35 -2.0 16.35 -1.9 16.35 -1.8 16.7 -1.6 17.05 -1.35 17.05 -1.15 L17.0 -1.0 Q16.95 -0.95 16.95 -0.9 L17.2 -0.3 Q17.2 0.0 17.1 0.25 17.1 0.35 16.8 0.55 16.45 0.65 16.4 0.7 16.2 0.8 16.2 1.0 L16.2 1.25 Q15.95 1.75 15.85 1.75 15.25 1.55 15.0 1.65 L14.75 1.65 14.55 1.5 14.35 1.5 14.2 1.7 Q14.4 1.9 14.4 2.0 14.4 2.2 14.2 2.4 13.95 2.6 13.7 2.65 L13.5 2.7 12.45 2.8 11.85 2.75 Q11.7 2.6 11.7 2.5 11.3 2.45 11.15 2.35 10.3 2.45 10.0 2.6 9.85 2.65 9.45 3.05 9.4 3.1 9.05 3.15 8.7 3.25 8.65 3.25 L8.25 3.45 7.55 3.5 6.4 3.45 5.7 3.45 Q5.0 3.45 4.6 3.2 4.25 3.0 3.6 3.0 3.35 3.0 2.5 3.2 L1.45 3.35 1.1 3.3 Q0.8 3.25 0.65 3.25 L0.45 3.25 0.6 3.3 0.25 3.35 Q0.15 3.55 0.05 3.6 L-0.85 3.6 Q-1.05 3.45 -1.65 3.5 L-2.9 3.55 Q-3.5 3.5 -3.65 3.4 L-3.7 3.15 Q-3.7 3.2 -3.85 3.2 -3.8 3.3 -3.8 3.35 L-3.9 3.4 -4.7 3.4 -5.9 3.3 Q-6.3 3.3 -6.55 3.2 L-6.85 3.0 Q-7.0 2.85 -7.2 2.8 L-7.55 2.8 -8.0 3.0 Q-8.45 3.15 -8.85 3.15 -9.1 3.15 -9.35 3.0 -9.6 2.85 -10.0 2.85 L-10.9 2.95 -12.2 3.0 Q-12.8 3.0 -13.25 2.6 -13.8 2.25 -14.2 2.2 -14.5 2.2 -15.1 1.85 -15.3 1.7 -15.3 1.4 L-15.25 1.1 -15.05 0.8 -15.25 0.55 -15.15 0.45 Q-15.4 0.4 -15.45 0.25 -15.5 0.15 -15.4 0.05 L-15.5 0.0 -15.65 0.0 -15.8 0.05 -16.15 0.05 Q-16.55 0.05 -16.7 -0.05 -16.9 -0.15 -16.95 -0.45 -17.0 -0.6 -17.2 -0.75 L-17.45 -0.9 Q-17.55 -1.0 -17.6 -1.15 -17.65 -1.3 -17.8 -1.4 L-17.9 -1.6 -18.0 -1.85 Q-18.0 -2.2 -17.45 -3.3 -17.2 -3.3 -17.1 -3.45 L-17.1 -3.65 Q-17.1 -4.0 -17.4 -4.0 L-17.45 -4.05 Q-17.5 -4.1 -17.5 -4.2 -17.5 -4.5 -17.15 -4.9 -16.75 -5.35 -16.25 -5.4 L-16.05 -5.4 -16.0 -5.35 -15.6 -5.15 -15.05 -4.95 Q-14.8 -4.85 -14.2 -4.4 L-14.0 -4.45 Q-13.5 -4.55 -13.3 -4.4 L-13.1 -4.05 -12.75 -3.7 Q-12.8 -3.7 -13.05 -3.8 L-13.1 -3.85 -13.55 -3.95 Q-13.85 -3.95 -13.85 -3.65 L-13.8 -2.95 -13.4 -2.85 Q-13.25 -2.75 -13.3 -2.5 -13.4 -2.25 -13.35 -2.15 -13.3 -2.05 -13.0 -1.8 L-12.6 -1.4 Q-12.45 -1.25 -12.0 -1.1 -11.6 -0.9 -11.35 -0.9 L-10.25 -0.7 -9.55 -0.5 -9.55 -0.45 -9.6 -0.45 -9.75 -0.35 Q-9.6 -0.15 -8.65 0.0 L-7.15 0.2 Q-6.55 0.25 -6.3 0.4 L-6.05 0.6 Q-5.95 0.7 -5.75 0.75 L-4.65 0.85 -2.7 0.85 -1.25 0.75 0.3 0.8 1.7 0.95 1.7 1.0 4.25 0.85 5.85 0.7 7.2 0.6 7.5 0.5 8.3 0.4 9.0 0.25 9.45 0.05 9.85 0.0 10.05 -0.1 Q10.65 -0.5 11.0 -0.9 L11.05 -0.95 10.7 -1.0 Q10.85 -1.2 11.5 -1.6" fill="#ffffff" fill-opacity="0.9019608" fill-rule="evenodd" stroke="none"/>
  </g>
</svg>
