<?xml version="1.0" encoding="UTF-8" standalone="no"?>
<svg xmlns:ffdec="https://www.free-decompiler.com/flash" xmlns:xlink="http://www.w3.org/1999/xlink" ffdec:objectType="shape" height="61.9px" width="85.2px" xmlns="http://www.w3.org/2000/svg">
  <g transform="matrix(1.0, 0.0, 0.0, 1.0, 40.6, 43.75)">
    <path d="M20.85 -34.9 L21.2 -34.85 Q21.5 -35.3 22.7 -34.7 23.9 -34.15 24.9 -33.3 26.1 -33.3 27.4 -32.65 28.05 -32.25 28.35 -32.1 28.9 -31.8 29.3 -31.7 29.5 -31.65 29.8 -31.7 L30.3 -31.8 Q30.9 -31.85 31.35 -31.5 32.45 -30.6 32.55 -30.25 32.7 -29.8 33.2 -29.0 L33.95 -27.65 Q34.15 -27.3 34.2 -26.55 34.25 -25.55 34.3 -25.25 L34.2 -25.1 34.1 -25.1 34.1 -24.95 Q34.25 -24.65 34.9 -24.55 35.0 -24.3 35.05 -24.05 L35.05 -23.35 Q35.05 -22.9 34.95 -22.65 34.9 -22.55 34.7 -22.3 34.35 -21.9 34.35 -20.75 34.35 -20.0 33.9 -19.35 L33.5 -18.9 Q33.3 -18.65 33.25 -18.35 L33.25 -18.15 Q34.1 -18.15 34.4 -18.55 L34.45 -18.6 34.2 -18.9 Q34.4 -19.1 34.55 -19.3 34.7 -19.5 35.05 -19.5 L36.25 -19.45 36.4 -19.3 36.55 -19.3 37.25 -18.6 Q37.15 -18.6 37.0 -18.55 37.4 -18.3 38.1 -18.1 38.15 -17.8 38.05 -17.2 37.95 -16.45 37.95 -16.25 37.95 -15.9 38.1 -15.85 L38.2 -15.75 38.85 -15.6 Q39.05 -15.4 39.0 -15.0 L38.9 -14.4 39.55 -14.45 Q39.7 -14.5 39.9 -14.6 L40.45 -14.55 40.85 -14.25 Q41.4 -14.75 42.0 -13.85 42.2 -13.5 42.5 -12.8 42.75 -12.15 42.85 -12.1 L43.45 -12.0 Q43.65 -11.7 44.25 -9.9 L44.6 -8.8 Q44.4 -7.8 43.85 -6.65 L44.0 -6.95 43.65 -6.9 Q43.45 -6.85 43.35 -6.8 43.25 -7.0 43.2 -7.25 L43.2 -7.8 Q42.6 -7.9 42.4 -8.0 42.2 -8.15 41.95 -8.15 41.7 -8.15 40.9 -7.85 40.15 -7.55 39.85 -7.55 39.6 -7.55 39.65 -7.8 39.7 -8.05 39.45 -8.05 38.75 -8.05 38.2 -7.45 L37.55 -6.4 Q37.4 -6.2 36.5 -5.6 35.55 -5.0 35.3 -4.6 34.15 -2.9 34.15 -2.5 34.15 -2.4 34.25 -2.0 34.35 -1.6 34.35 -1.05 34.35 -0.65 34.2 -0.35 L33.9 0.15 Q34.2 0.45 35.1 0.75 36.1 1.0 36.8 1.0 37.0 1.2 37.05 1.5 37.1 1.65 37.05 2.0 37.05 2.65 37.95 2.8 38.15 3.1 38.2 3.3 38.3 3.5 38.3 3.95 38.3 4.25 38.05 4.75 37.8 5.2 37.8 5.5 37.8 5.8 38.05 6.05 38.3 6.35 38.3 6.65 38.3 7.65 36.65 10.05 35.05 12.45 34.05 12.85 L34.0 12.9 33.8 12.95 33.8 12.1 Q33.6 12.05 33.35 12.1 33.05 12.2 33.0 12.35 L32.65 12.3 Q32.75 11.9 33.1 11.45 32.65 11.25 32.55 11.1 32.45 10.95 32.15 10.8 L31.8 10.85 Q31.5 10.9 31.5 11.0 L31.4 11.35 30.3 11.35 Q29.65 10.75 28.9 10.3 27.45 9.4 26.25 9.4 25.5 9.4 24.6 10.05 23.75 10.75 23.5 10.85 L23.25 10.8 Q22.8 11.1 22.6 11.3 22.55 11.35 22.45 11.65 22.35 11.95 22.15 12.1 L20.85 11.9 19.7 11.8 Q19.05 11.8 18.9 12.4 L18.75 12.9 Q18.65 13.15 18.45 13.25 18.05 12.95 17.8 12.4 17.6 11.95 17.6 11.65 17.6 11.6 17.9 11.2 18.3 10.8 18.4 10.45 18.45 10.3 18.4 9.95 18.4 9.6 18.5 9.4 18.8 8.85 19.35 8.6 19.55 8.7 19.7 8.7 20.1 8.7 20.4 8.5 20.6 8.05 20.8 7.65 21.05 7.35 21.05 7.05 L21.05 6.35 Q21.05 6.05 20.95 5.85 20.75 5.45 19.95 4.95 L19.95 5.05 19.15 4.95 19.0 5.05 19.05 4.8 Q19.05 4.35 18.65 3.8 18.25 3.05 18.05 2.2 18.0 2.2 18.0 2.1 18.05 2.0 17.7 2.0 L16.45 2.45 Q15.2 2.9 14.75 2.9 14.55 2.9 14.0 2.05 L13.3 1.0 Q12.15 1.2 12.05 1.6 12.0 1.75 12.1 1.95 L12.15 2.3 Q12.15 2.7 11.5 3.2 10.8 3.7 10.6 3.85 10.5 3.85 10.4 3.75 L10.35 3.85 Q10.25 3.95 10.15 4.0 9.3 3.85 8.15 3.55 L7.1 3.25 Q6.8 3.25 6.7 3.35 6.6 3.45 6.35 3.5 L6.25 4.55 Q6.2 5.15 6.0 5.55 L5.35 5.65 Q5.3 5.7 4.95 5.75 4.95 6.4 4.55 6.9 4.1 7.45 4.1 7.65 4.1 7.95 4.35 8.2 4.6 8.4 4.6 8.7 4.6 9.35 3.45 10.6 3.2 10.55 2.9 10.4 2.6 10.3 2.55 10.15 2.35 10.35 2.05 11.0 1.85 11.55 1.85 11.65 1.85 11.85 2.2 12.35 2.55 12.9 2.55 13.05 2.55 13.5 2.2 14.35 1.8 15.4 1.4 15.4 1.15 15.4 0.95 15.2 0.7 14.9 0.45 14.75 L-0.25 14.7 -0.5 14.75 Q-0.85 14.8 -1.0 14.95 L-0.7 15.2 Q-0.4 15.4 -0.25 15.7 L-0.35 15.85 -1.25 15.85 Q-2.25 15.35 -2.8 14.35 -3.35 13.45 -3.35 12.5 -3.35 11.65 -3.0 11.2 -2.8 10.9 -2.3 10.7 -1.7 10.45 -1.55 10.3 -1.2 9.95 -1.2 9.3 -1.2 9.15 -1.85 8.45 -2.5 7.75 -2.5 7.4 -2.5 7.1 -2.05 6.45 L-1.9 6.25 -2.0 6.3 -2.2 6.3 -2.25 6.0 Q-2.1 5.85 -1.45 5.5 L-0.8 5.2 Q-0.7 5.0 -0.8 4.75 -0.9 4.4 -0.9 4.15 -0.9 3.75 -0.65 3.3 -0.25 2.6 0.45 2.55 1.05 2.6 1.4 2.55 1.65 2.45 1.9 2.25 2.15 2.05 2.7 2.0 L3.7 1.95 Q3.75 2.0 3.75 1.45 3.75 1.35 3.4 0.85 3.05 0.3 3.05 0.25 3.05 -0.65 4.25 -1.25 4.7 -1.5 5.2 -1.55 5.7 -1.6 6.0 -1.4 6.1 -1.6 6.1 -1.9 L6.15 -2.35 Q6.25 -2.9 6.75 -3.3 7.1 -3.55 7.9 -3.95 8.65 -4.3 9.0 -4.4 L9.55 -4.3 Q9.55 -4.15 9.8 -3.7 10.1 -3.2 10.4 -3.1 11.1 -3.35 11.3 -3.9 L11.45 -4.4 Q11.55 -4.75 11.65 -4.95 11.8 -4.95 12.8 -4.6 13.65 -4.3 14.15 -4.4 14.45 -4.55 14.85 -4.7 15.0 -4.9 15.35 -5.15 16.0 -5.7 16.15 -5.95 16.6 -6.65 16.6 -7.65 L16.6 -8.4 Q16.55 -8.7 16.35 -8.9 16.0 -9.35 15.65 -9.5 15.45 -9.65 15.45 -9.7 15.45 -10.0 15.7 -10.45 15.9 -10.9 15.9 -11.2 15.9 -11.35 15.45 -12.05 15.0 -12.8 14.95 -13.1 14.8 -13.0 14.6 -12.8 L14.3 -12.5 Q13.8 -12.9 13.65 -13.5 13.6 -13.75 13.6 -14.45 13.6 -15.2 13.75 -15.8 13.9 -16.4 14.3 -17.1 14.5 -17.55 14.6 -17.95 L14.65 -18.45 Q14.75 -18.85 15.7 -19.15 16.75 -19.25 17.5 -19.5 17.9 -19.65 18.2 -19.85 L19.2 -19.55 Q19.8 -19.35 20.4 -19.3 20.6 -18.95 20.85 -18.1 L22.25 -19.25 Q22.75 -19.65 22.9 -19.85 23.0 -20.05 23.0 -20.4 L23.0 -22.1 Q23.0 -22.7 22.85 -23.05 22.35 -24.25 20.6 -24.0 20.35 -24.4 20.35 -24.9 20.35 -25.25 20.0 -25.7 L19.4 -26.6 Q18.95 -27.2 18.7 -27.2 L17.35 -27.1 Q16.7 -27.15 16.45 -27.45 15.95 -28.05 15.85 -28.25 15.65 -28.65 15.85 -29.0 15.4 -29.25 15.0 -29.2 14.85 -29.2 14.35 -28.95 L13.7 -28.95 Q13.7 -29.05 12.9 -29.45 12.2 -30.0 12.45 -30.65 11.05 -30.65 10.4 -30.45 10.25 -30.4 9.9 -30.25 L8.65 -30.15 8.45 -29.8 Q8.6 -29.5 8.8 -28.75 L8.95 -28.15 9.05 -28.2 9.0 -28.0 9.1 -27.75 9.0 -27.6 8.9 -27.7 Q8.9 -27.55 8.9 -27.5 L9.15 -27.2 Q9.3 -27.3 9.45 -27.6 9.55 -27.8 9.9 -27.9 L10.95 -27.85 10.95 -27.6 Q10.95 -27.45 11.3 -27.45 12.15 -27.45 13.15 -26.35 14.05 -25.35 14.05 -24.8 14.05 -24.75 13.65 -24.25 13.2 -23.75 13.15 -23.6 13.7 -23.4 13.75 -23.05 13.85 -22.8 14.4 -22.75 14.5 -22.6 14.4 -22.35 14.3 -22.0 14.3 -21.75 14.3 -21.45 14.55 -21.15 14.75 -20.9 14.75 -20.6 14.75 -20.25 14.7 -20.15 L14.55 -20.05 14.0 -19.95 Q13.6 -19.95 13.6 -19.65 13.55 -19.4 13.7 -19.1 L13.8 -18.9 Q13.85 -18.8 13.85 -18.4 13.85 -17.65 13.65 -17.4 13.4 -17.1 12.7 -16.9 12.4 -16.8 12.1 -16.7 12.05 -16.9 12.05 -17.4 L12.0 -17.6 11.9 -17.4 Q11.8 -17.3 11.4 -17.3 10.9 -17.3 10.35 -17.75 9.9 -18.2 9.9 -18.5 9.9 -19.45 10.8 -20.0 10.75 -20.15 10.6 -20.25 10.45 -20.35 10.05 -20.4 L9.6 -21.5 Q9.3 -22.3 9.2 -22.85 8.3 -22.65 7.75 -22.65 7.35 -22.65 7.25 -23.05 L7.15 -23.75 Q6.45 -23.75 6.15 -24.05 L5.95 -24.3 Q5.8 -24.4 5.6 -24.4 5.3 -24.4 5.2 -24.15 5.15 -23.9 5.05 -23.85 L4.05 -23.95 Q3.7 -24.2 3.4 -24.7 L3.0 -25.45 Q2.5 -26.3 1.55 -26.3 1.5 -26.3 0.7 -25.9 -0.1 -25.45 -0.45 -25.4 L-1.05 -25.5 Q-1.15 -25.6 -1.2 -25.8 -1.2 -26.0 -1.15 -26.1 -1.35 -26.1 -1.85 -25.95 -2.4 -25.8 -2.55 -25.65 -3.05 -25.7 -3.4 -25.85 -3.65 -26.0 -3.65 -26.05 L-4.45 -26.0 Q-4.7 -25.65 -5.0 -24.75 -5.3 -23.95 -5.75 -23.35 L-6.85 -23.25 Q-7.05 -23.05 -7.05 -22.75 L-7.0 -22.75 -7.4 -22.7 Q-7.95 -22.7 -7.95 -22.75 -7.9 -22.9 -7.8 -23.05 L-8.0 -23.2 -8.05 -23.3 Q-8.25 -23.25 -8.35 -23.2 L-8.6 -22.95 Q-8.95 -22.7 -9.65 -22.6 -9.75 -22.4 -9.85 -22.3 L-9.95 -22.2 Q-9.85 -22.1 -9.75 -21.95 -10.5 -21.25 -10.6 -21.0 -10.6 -20.95 -10.6 -20.45 L-10.6 -20.3 Q-10.35 -20.2 -10.25 -19.95 -10.2 -19.85 -10.2 -19.45 -10.2 -19.05 -11.2 -18.3 -12.35 -17.45 -12.45 -17.1 L-12.6 -17.05 -13.1 -17.0 Q-13.15 -17.1 -13.25 -17.1 -13.25 -17.15 -13.25 -17.55 L-13.25 -17.75 Q-13.5 -18.0 -13.8 -18.2 L-14.85 -17.15 Q-15.55 -16.55 -15.6 -16.35 -16.15 -15.5 -16.5 -15.25 -17.0 -14.95 -17.8 -15.35 -17.85 -15.3 -18.1 -15.0 -18.3 -14.7 -18.0 -14.65 -17.9 -14.65 -17.9 -14.6 L-17.95 -14.1 Q-17.95 -13.7 -18.35 -13.25 -19.05 -12.55 -20.2 -12.85 -20.7 -12.25 -21.1 -12.25 -21.25 -12.25 -21.5 -12.4 -21.6 -12.1 -21.5 -11.6 -21.4 -11.0 -21.4 -10.85 -21.4 -10.7 -21.85 -10.2 -22.3 -9.7 -22.3 -9.55 -22.3 -9.45 -22.4 -9.35 L-22.55 -9.15 Q-22.75 -8.85 -22.55 -8.25 L-22.65 -8.1 Q-22.75 -7.95 -22.8 -7.85 -23.15 -7.6 -24.0 -7.85 L-24.05 -7.8 Q-24.1 -7.7 -24.1 -7.35 -24.1 -7.05 -23.85 -7.0 -23.65 -7.0 -23.65 -6.7 -23.65 -6.4 -23.7 -6.3 -23.9 -6.0 -24.55 -6.0 -24.7 -5.8 -24.75 -5.5 L-24.8 -5.4 Q-24.7 -5.3 -24.55 -5.15 L-24.65 -5.05 Q-24.75 -4.95 -25.0 -4.9 L-25.15 -4.95 -25.7 -5.15 Q-25.9 -5.9 -25.7 -6.7 -25.95 -6.75 -26.35 -6.8 -26.75 -6.8 -27.0 -6.9 -27.0 -7.05 -27.05 -7.25 -27.15 -7.5 -27.2 -7.6 -27.4 -7.6 -27.7 -7.45 L-28.25 -7.2 Q-28.5 -6.7 -28.6 -5.8 -28.75 -4.65 -28.85 -4.4 L-29.4 -4.45 Q-29.75 -4.1 -29.95 -3.8 L-30.1 -3.55 Q-30.1 -3.4 -29.7 -2.85 -29.35 -2.3 -29.35 -2.25 -29.35 -2.05 -29.7 -1.7 -30.05 -1.4 -30.3 -1.35 L-30.25 -1.2 -30.15 -1.2 Q-30.15 -1.15 -30.2 -1.1 -29.9 -0.55 -29.55 -0.5 -29.45 -0.5 -29.3 -0.55 L-29.15 -0.65 -28.75 -0.6 -28.75 -0.45 -27.8 -0.4 Q-27.55 -0.05 -27.45 0.35 -27.35 0.65 -27.25 1.15 -27.2 1.6 -26.65 1.8 -25.8 2.15 -25.75 2.2 -25.65 2.3 -25.55 2.45 -24.7 2.55 -24.55 3.05 -24.55 3.15 -24.5 3.55 -24.45 3.95 -24.4 4.2 L-24.45 4.3 Q-23.9 4.5 -22.95 4.65 L-22.55 4.35 Q-22.25 4.15 -21.9 4.15 L-20.95 4.2 -20.4 4.2 Q-20.15 4.6 -20.0 5.05 -19.85 5.5 -19.85 5.75 L-19.3 5.9 Q-19.15 6.1 -19.15 6.5 L-19.15 7.2 Q-19.1 7.65 -18.9 7.85 L-18.9 7.75 -18.8 7.55 -18.6 7.55 Q-18.35 8.35 -17.7 8.45 -17.4 8.5 -16.55 8.35 -15.85 8.15 -15.6 8.35 -15.15 8.6 -15.15 9.65 -15.15 10.1 -15.7 11.2 -16.3 12.45 -16.85 12.45 -17.1 12.45 -17.6 12.15 -18.15 11.8 -18.35 11.8 -18.65 11.8 -18.8 12.3 L-19.0 13.3 Q-19.1 14.0 -19.35 14.35 -19.65 14.8 -20.3 14.75 -20.5 14.9 -20.6 15.3 L-20.65 15.65 -20.5 15.7 Q-20.6 15.75 -20.6 16.0 -20.65 16.15 -21.0 16.15 -21.65 16.15 -22.3 15.35 L-23.0 14.3 Q-23.85 14.2 -24.3 13.75 -24.6 13.45 -24.8 12.75 -24.95 12.0 -25.05 11.6 -25.25 10.95 -25.6 10.6 -26.35 10.55 -26.55 10.65 -26.8 10.7 -27.1 10.7 -27.85 10.7 -28.35 10.15 -28.6 9.8 -29.0 9.2 -29.15 9.3 -29.3 9.45 L-29.65 9.7 Q-30.85 9.7 -30.95 9.55 -32.25 9.55 -32.35 9.9 L-32.35 10.3 Q-32.4 10.6 -32.65 10.85 -33.15 10.85 -33.5 10.65 -33.85 10.5 -34.1 10.5 -34.25 10.5 -34.3 10.6 L-34.3 10.9 Q-34.35 11.3 -34.8 11.3 -35.15 11.3 -35.55 11.15 -36.15 10.9 -36.4 10.85 L-36.8 10.9 -36.85 10.8 Q-36.95 10.8 -36.95 11.15 -36.95 11.5 -36.7 11.65 -36.5 11.85 -36.5 11.9 L-36.55 11.95 Q-36.65 12.05 -36.8 12.1 -36.8 12.05 -37.1 11.9 L-37.95 11.65 -38.0 11.6 -37.8 12.45 -37.9 12.15 Q-38.15 11.6 -38.25 11.4 -38.55 11.0 -39.15 10.85 -39.35 10.45 -39.4 9.8 -39.45 8.9 -39.5 8.75 -39.5 8.65 -40.05 7.85 -40.6 7.05 -40.6 6.95 -40.6 6.75 -40.45 6.6 L-40.15 6.4 Q-39.8 6.1 -39.95 5.3 -40.0 5.0 -39.95 4.55 L-39.8 3.75 -39.2 3.55 Q-38.85 3.05 -38.65 2.35 L-36.8 2.35 Q-36.4 2.75 -36.25 2.85 -35.8 3.15 -35.3 3.25 L-34.9 2.8 Q-34.65 2.45 -34.65 2.35 -34.65 2.05 -34.8 1.3 -35.0 0.55 -35.0 0.15 L-35.0 -0.7 -35.05 -1.1 Q-35.1 -1.0 -35.15 -0.9 -35.35 -1.05 -35.75 -1.5 -36.1 -1.9 -36.45 -2.1 L-37.2 -2.0 -37.15 -1.85 -37.25 -1.75 Q-37.3 -1.6 -37.35 -1.55 -37.4 -1.6 -37.5 -1.6 L-37.5 -1.65 -37.75 -1.6 Q-37.95 -1.95 -38.6 -2.95 -39.2 -3.95 -39.3 -4.55 -39.35 -4.8 -39.2 -5.35 -39.0 -5.85 -39.05 -6.1 -39.05 -6.25 -39.25 -6.7 -39.45 -7.1 -39.45 -7.4 -39.45 -7.9 -38.8 -8.9 -38.35 -9.6 -37.9 -10.1 -37.8 -10.35 -37.65 -10.65 -37.35 -11.15 -36.85 -11.35 -36.45 -11.5 -36.15 -11.4 L-35.85 -11.3 -35.75 -11.3 Q-35.6 -11.6 -35.4 -11.8 L-34.85 -12.2 -34.75 -12.8 Q-34.6 -13.2 -34.3 -13.4 L-34.35 -13.45 Q-34.5 -13.4 -34.65 -13.25 -34.85 -13.1 -34.95 -13.1 -34.9 -13.25 -34.65 -13.4 -34.4 -13.6 -34.05 -13.65 -34.0 -13.55 -33.6 -13.45 L-33.65 -13.6 Q-33.65 -13.7 -33.3 -13.7 -32.35 -13.7 -31.65 -13.2 -31.45 -13.05 -31.3 -12.85 L-31.15 -12.7 Q-30.2 -12.7 -29.55 -13.9 -29.35 -14.25 -29.2 -14.7 -29.1 -15.05 -29.1 -15.15 -29.1 -15.6 -29.5 -15.95 -29.95 -16.4 -30.0 -16.55 -30.15 -17.25 -30.2 -17.95 -30.2 -18.1 -30.45 -18.6 -30.7 -19.15 -30.9 -19.3 -31.3 -19.6 -31.95 -19.85 -32.65 -20.05 -33.05 -20.3 -33.15 -20.1 -33.15 -19.65 -33.15 -19.15 -33.2 -18.95 -33.6 -19.0 -34.15 -19.8 -34.4 -20.25 -34.75 -20.85 -35.15 -21.5 -35.55 -22.05 -35.75 -22.35 -35.75 -22.95 -35.75 -23.35 -35.45 -23.8 -35.1 -24.5 -34.35 -24.55 -34.35 -24.7 -34.5 -25.05 -34.6 -25.35 -34.6 -25.7 -34.6 -26.05 -34.25 -26.1 -33.9 -26.2 -33.9 -26.6 L-33.85 -26.55 -33.85 -26.9 Q-33.85 -28.1 -33.55 -28.7 -33.05 -29.75 -31.65 -29.75 -31.35 -29.75 -30.9 -29.9 -30.45 -30.0 -30.2 -30.0 -30.05 -29.95 -29.75 -30.1 -29.5 -30.2 -29.05 -30.5 -28.9 -30.6 -28.6 -31.3 -28.25 -32.1 -28.15 -32.25 L-26.9 -32.15 -25.6 -31.25 -24.6 -31.5 -23.85 -31.55 Q-23.55 -31.55 -23.15 -31.85 -23.0 -32.0 -22.7 -32.35 -22.5 -32.65 -22.15 -32.95 -21.85 -33.25 -21.8 -33.25 L-20.7 -33.3 -20.0 -33.3 -19.85 -32.7 Q-19.8 -32.3 -19.65 -32.1 L-18.2 -32.1 Q-17.7 -32.6 -17.6 -32.9 -17.4 -33.3 -17.75 -33.65 L-16.95 -34.3 Q-16.45 -34.7 -16.1 -35.25 -15.95 -35.4 -15.95 -35.85 -16.0 -36.4 -15.95 -36.6 -15.8 -37.6 -14.05 -38.05 -13.85 -38.0 -13.7 -37.85 -13.6 -37.75 -13.6 -37.65 L-11.9 -37.55 -11.45 -37.45 Q-10.9 -37.45 -10.25 -38.35 L-9.8 -39.0 -9.45 -39.45 -8.45 -39.55 Q-8.15 -39.55 -8.0 -39.45 -8.05 -39.55 -8.2 -39.6 L-8.2 -39.95 Q-7.95 -40.15 -7.8 -40.2 L-7.65 -39.65 -6.35 -39.7 Q-6.05 -39.85 -5.95 -40.2 -5.85 -40.45 -5.75 -41.0 -5.6 -41.55 -5.25 -41.9 -4.1 -42.05 -3.45 -41.9 -2.55 -42.35 -0.95 -42.9 L1.85 -43.75 4.85 -43.75 Q5.15 -43.65 5.95 -43.55 L7.5 -43.3 Q7.65 -43.0 8.4 -42.0 9.0 -41.2 9.05 -40.9 9.4 -40.75 10.0 -40.65 L10.9 -40.45 11.0 -39.95 11.1 -39.65 Q12.5 -40.3 13.35 -39.7 13.7 -39.45 13.8 -39.05 13.95 -38.65 13.7 -38.3 L13.85 -37.75 Q13.9 -37.75 14.05 -37.65 L14.35 -37.45 14.65 -38.0 Q14.8 -38.2 15.2 -38.35 L16.45 -38.05 18.8 -37.35 Q19.05 -37.1 19.35 -36.6 19.6 -36.15 19.6 -35.9 19.6 -35.6 19.35 -35.1 19.15 -34.6 19.15 -34.25 19.25 -34.25 19.5 -34.15 19.75 -34.05 19.85 -33.95 20.1 -34.1 20.35 -34.55 20.55 -34.9 20.85 -34.9 M10.6 -16.0 Q10.65 -15.85 10.7 -15.6 L10.65 -15.15 Q10.65 -14.6 10.65 -14.45 10.5 -13.95 9.9 -13.85 L9.35 -13.9 Q9.2 -14.1 9.2 -14.4 9.15 -14.55 9.15 -14.75 9.15 -14.95 8.2 -14.55 L8.15 -14.6 Q8.05 -14.75 8.05 -15.1 8.05 -15.55 8.3 -16.0 8.65 -16.7 9.35 -16.7 10.4 -16.3 10.6 -16.0 M25.35 -11.6 Q25.25 -11.45 25.1 -11.2 24.95 -10.95 24.8 -10.8 24.35 -10.4 22.85 -10.25 L22.85 -9.65 23.1 -9.65 Q23.4 -9.65 23.6 -9.55 23.45 -9.15 23.55 -8.6 23.65 -8.25 23.75 -8.15 L24.55 -8.0 Q24.85 -7.6 25.0 -6.95 25.15 -6.35 25.1 -5.9 L25.7 -5.75 Q25.8 -5.65 25.8 -5.4 25.8 -5.1 25.85 -5.0 26.05 -4.6 27.55 -4.85 28.15 -4.3 28.25 -4.05 28.55 -4.1 29.65 -5.35 30.8 -6.6 30.8 -6.85 30.8 -7.45 30.7 -7.75 30.6 -7.9 30.4 -8.2 29.75 -9.0 29.3 -10.3 L29.25 -10.7 Q29.2 -11.0 29.05 -11.2 29.0 -11.3 28.65 -11.3 L27.95 -11.35 Q27.55 -11.45 27.45 -11.6 27.35 -11.7 27.35 -11.9 27.4 -12.45 27.0 -12.85 25.35 -12.85 25.3 -12.5 L25.4 -12.1 Q25.5 -11.8 25.35 -11.6 M44.05 -7.8 L44.05 -7.25 44.0 -7.05 Q44.1 -7.35 44.1 -7.5 L44.05 -7.9 44.05 -7.8 M42.9 -5.9 Q42.9 -5.55 42.75 -5.35 L42.5 -4.95 Q42.05 -5.25 41.8 -5.6 41.55 -5.9 41.55 -6.0 41.55 -6.55 41.6 -6.5 42.0 -6.5 42.4 -6.4 42.9 -6.2 42.9 -5.9 M8.65 14.05 Q8.95 14.35 9.6 14.8 10.2 15.2 10.25 15.2 10.4 15.35 10.55 15.6 L10.65 15.9 Q10.8 16.2 11.1 16.4 L11.35 16.6 Q11.35 16.95 11.35 17.0 11.3 17.0 11.3 16.95 L11.25 17.25 10.7 17.2 9.65 17.2 Q9.45 17.25 8.8 17.75 8.25 18.15 8.05 18.15 7.75 18.15 7.55 18.1 L7.35 17.95 Q7.1 17.8 5.9 17.95 L5.9 17.85 5.95 17.35 Q5.95 17.1 5.5 16.85 L4.75 16.45 Q4.75 16.35 5.2 16.3 L5.2 15.95 5.15 15.85 5.2 15.8 Q5.25 15.6 5.3 15.55 L5.55 15.5 5.7 15.55 6.3 15.4 Q6.35 15.3 6.7 14.7 7.0 14.1 7.15 14.0 L8.65 14.05 M5.3 16.2 L5.25 16.3 5.35 16.3 Q5.4 16.25 5.35 16.15 L5.3 16.2 M2.2 15.5 Q2.7 15.25 3.0 14.85 3.95 15.2 4.2 16.0 4.25 16.25 4.25 17.2 L4.25 17.75 Q4.2 17.85 4.05 18.05 L3.85 17.7 Q3.75 17.45 3.7 17.4 L3.1 17.35 Q2.9 17.0 2.25 16.5 1.55 16.0 1.25 15.95 L2.2 15.5 M15.95 14.7 Q16.6 15.0 16.75 14.95 16.85 14.9 16.85 14.8 17.6 14.8 18.05 15.45 18.35 15.9 18.35 16.15 18.35 16.5 18.25 16.65 18.15 16.8 18.15 16.95 18.1 16.95 17.95 17.05 17.75 17.15 17.65 17.2 L17.5 16.9 Q17.45 16.8 17.6 16.65 L17.25 16.35 16.7 16.7 Q16.3 16.95 15.9 16.95 15.6 16.95 15.45 16.75 15.3 16.5 15.2 16.5 L14.4 16.6 Q14.4 16.95 14.35 17.1 L13.75 16.95 13.15 16.95 12.55 16.9 Q12.5 16.75 12.4 16.25 12.25 15.8 12.15 15.55 11.75 14.8 10.7 15.35 L10.65 15.0 Q10.8 14.7 10.95 14.4 11.15 14.0 11.3 13.95 12.1 13.75 13.2 13.85 L13.45 13.6 Q13.5 13.5 13.65 13.5 L15.05 13.8 Q15.2 14.0 15.45 14.3 15.75 14.6 15.95 14.7 M-11.85 -29.0 L-12.1 -28.65 Q-13.0 -28.4 -13.4 -28.3 L-14.75 -28.0 Q-14.9 -27.55 -15.45 -27.0 -16.15 -26.3 -17.1 -26.3 -17.2 -26.3 -17.45 -26.55 L-17.8 -26.9 -18.8 -27.0 Q-19.8 -27.1 -19.9 -27.2 -20.0 -27.15 -20.05 -27.1 -20.2 -27.0 -20.2 -26.65 -20.2 -26.55 -21.0 -25.9 -22.75 -26.15 -23.1 -25.3 -23.2 -25.0 -23.2 -24.5 -23.1 -24.0 -23.1 -23.75 -23.1 -23.65 -23.85 -22.05 L-24.55 -20.4 Q-24.55 -19.35 -24.25 -18.7 -24.1 -18.3 -22.95 -16.6 -23.2 -16.7 -23.4 -16.8 L-23.45 -16.6 Q-23.5 -16.4 -23.6 -16.25 L-23.6 -15.95 -23.35 -16.0 -22.75 -16.05 Q-22.7 -16.05 -22.45 -15.4 -22.15 -14.8 -22.15 -14.65 L-21.5 -14.65 -20.75 -15.6 Q-20.15 -16.4 -19.6 -16.7 L-19.95 -17.1 Q-20.05 -17.3 -20.05 -17.65 -20.05 -18.05 -18.85 -19.0 -18.25 -19.45 -17.65 -19.85 L-17.2 -19.8 -17.2 -19.75 Q-17.1 -19.65 -17.1 -19.35 -17.05 -19.1 -17.1 -19.1 -17.2 -18.9 -17.05 -18.85 L-16.15 -19.05 -15.9 -20.4 Q-15.7 -21.4 -15.7 -21.7 -15.7 -22.1 -14.7 -22.95 -14.15 -23.4 -13.4 -24.0 L-12.8 -23.95 -12.6 -23.75 -11.4 -23.5 Q-11.3 -23.4 -11.25 -23.15 L-11.25 -23.0 Q-11.05 -22.9 -10.95 -22.75 L-10.9 -22.65 -10.9 -22.7 Q-10.85 -23.0 -10.85 -23.3 -10.7 -23.6 -10.8 -24.1 L-10.9 -24.95 Q-10.9 -25.3 -10.55 -25.8 -10.2 -26.35 -10.2 -26.5 -10.2 -27.05 -10.7 -27.95 -11.15 -28.8 -11.55 -29.15 -11.65 -29.15 -11.85 -29.0 M-21.15 -6.35 Q-20.6 -5.7 -20.6 -5.4 -20.6 -4.75 -20.75 -4.1 -21.0 -3.3 -21.4 -2.9 L-21.8 -2.9 Q-21.8 -2.95 -21.8 -3.55 -21.9 -3.85 -22.25 -3.9 L-22.35 -3.8 -22.6 -3.85 -22.75 -3.95 -22.95 -4.2 -22.7 -4.25 -22.95 -4.25 Q-23.55 -4.25 -23.65 -4.7 -23.7 -4.85 -23.65 -5.1 L-23.7 -5.05 -23.7 -5.0 -23.75 -5.0 -24.35 -4.55 Q-24.35 -4.8 -24.15 -5.15 L-24.0 -5.4 -24.1 -5.55 -23.5 -6.0 Q-23.05 -6.35 -22.7 -7.05 L-22.35 -7.1 Q-21.8 -7.1 -21.15 -6.35 M-19.1 -3.35 Q-19.0 -3.25 -19.0 -3.1 L-18.95 -2.8 Q-18.65 -2.75 -17.95 -2.25 -17.1 -1.7 -17.1 -1.4 -17.1 -1.1 -17.35 -0.95 -17.6 -0.8 -17.6 -0.5 -17.6 -0.25 -17.35 0.15 -17.1 0.5 -17.1 0.8 -17.1 1.25 -17.3 1.7 -17.5 2.1 -17.75 2.25 L-17.8 2.25 -17.85 2.4 -17.85 2.5 -17.4 2.55 Q-17.15 3.15 -17.0 3.9 -16.85 4.6 -16.85 5.05 -16.85 5.55 -16.95 5.9 L-17.45 7.05 Q-18.05 6.9 -18.75 5.85 -19.35 4.9 -19.35 4.75 -19.35 4.65 -19.05 4.15 -18.7 3.6 -18.7 3.5 -18.7 3.2 -18.95 3.0 -19.2 2.8 -19.2 2.65 L-18.9 2.5 -18.5 2.5 -18.45 2.45 Q-18.35 2.3 -18.35 1.95 -18.35 1.8 -18.4 1.75 L-18.9 1.8 -19.5 1.75 -20.05 1.65 Q-20.15 1.5 -20.05 1.1 -19.95 0.6 -19.95 0.35 -19.95 -0.15 -20.2 -0.2 L-20.65 -0.15 Q-20.7 -0.15 -20.8 -0.5 -21.05 -0.8 -21.55 -0.8 L-21.6 -0.9 -21.6 -1.35 Q-21.6 -1.6 -21.05 -2.45 -20.5 -3.25 -20.3 -3.4 L-19.1 -3.35 M-8.65 -17.3 L-8.45 -17.1 -8.45 -16.6 Q-8.55 -16.6 -8.75 -16.5 -8.95 -16.4 -9.15 -16.35 L-9.5 -16.7 Q-9.45 -16.95 -9.15 -17.15 -8.9 -17.3 -8.65 -17.3 M-9.5 -15.2 Q-9.5 -14.85 -10.35 -13.9 -11.15 -12.9 -11.45 -12.9 -11.75 -12.9 -11.9 -13.15 -12.05 -13.45 -12.35 -13.45 -12.65 -13.45 -12.6 -13.25 -12.5 -12.95 -12.55 -12.9 -13.3 -13.3 -13.55 -13.85 -13.65 -14.1 -13.65 -14.4 L-13.65 -15.05 Q-13.6 -15.25 -13.4 -15.35 -12.55 -15.65 -11.3 -16.3 -10.55 -16.7 -9.95 -16.1 -9.5 -15.6 -9.5 -15.2 M-11.0 -11.8 Q-11.0 -11.3 -11.05 -11.15 L-11.3 -11.0 -11.95 -11.05 -12.0 -11.0 Q-12.05 -10.95 -12.05 -11.35 -12.05 -11.7 -11.9 -11.85 L-11.55 -12.05 Q-11.2 -12.0 -11.0 -11.8 M-5.65 9.15 L-5.75 9.1 -5.75 8.75 Q-5.75 8.3 -5.2 8.0 -4.75 7.8 -4.5 7.8 L-3.8 7.8 -3.55 7.85 -3.15 8.05 Q-2.85 8.2 -2.75 8.3 -2.75 8.45 -3.1 9.15 L-3.25 9.2 Q-3.3 9.4 -3.45 9.45 -4.1 9.3 -4.3 9.0 L-4.35 8.75 -4.5 8.8 -5.05 9.2 -5.65 9.15 M-6.45 10.4 Q-6.4 10.25 -6.25 10.05 -6.1 9.8 -6.0 9.75 -5.45 10.05 -5.2 10.45 -5.05 10.65 -5.0 10.85 L-5.1 10.95 Q-5.2 11.05 -5.5 11.05 -5.7 10.85 -5.9 10.7 L-6.45 10.4 M-15.5 2.1 Q-15.0 2.25 -14.7 2.95 L-14.85 3.65 -15.0 3.75 Q-15.4 3.4 -15.8 3.1 -16.05 2.9 -16.05 2.6 -16.05 1.95 -15.5 2.1 M-10.8 13.9 Q-10.5 14.4 -10.5 14.6 -10.5 15.1 -10.7 15.25 -10.8 15.35 -11.2 15.4 -11.55 15.5 -11.7 15.6 -11.95 15.85 -12.05 16.35 L-12.1 16.5 -12.55 16.55 Q-12.7 16.55 -12.9 16.45 -13.25 16.3 -13.55 15.95 -13.6 15.95 -13.65 16.2 L-13.7 16.8 Q-16.05 16.65 -16.05 16.5 L-16.05 16.3 Q-16.15 16.35 -16.55 16.7 -16.8 16.9 -17.2 16.95 -17.25 16.85 -17.4 16.8 -17.45 16.7 -17.45 16.35 -17.45 16.15 -17.05 15.9 -16.4 15.5 -16.15 15.2 -16.25 15.15 -16.4 15.05 -16.55 14.95 -16.55 14.6 -16.55 14.05 -16.25 13.75 -15.95 13.4 -15.5 13.4 -14.4 13.3 -13.5 14.3 L-12.85 14.3 Q-12.55 14.1 -12.1 13.8 L-11.3 13.25 Q-11.1 13.4 -10.8 13.9 M-9.4 14.8 Q-9.4 14.7 -9.35 14.6 -9.35 14.2 -9.25 14.2 L-9.1 14.25 -9.05 14.15 -8.55 13.7 Q-7.85 13.95 -6.35 14.0 -4.8 14.05 -4.4 14.2 -4.15 14.25 -4.05 14.6 -3.9 15.05 -3.85 15.1 L-3.25 15.35 Q-2.65 15.65 -2.65 15.85 L-2.65 17.05 -2.95 17.4 Q-3.35 17.2 -3.45 16.6 -3.65 16.65 -4.75 16.95 -5.7 17.25 -6.25 17.25 -6.35 17.25 -7.3 16.4 L-8.55 15.2 -9.35 15.35 -9.4 15.25 -9.4 14.8 M-29.5 0.0 L-29.6 0.0 -29.45 0.05 -29.45 -0.05 -29.5 0.0" fill="#ffffff" fill-rule="evenodd" stroke="none"/>
  </g>
</svg>
