<?xml version="1.0" encoding="UTF-8" standalone="no"?>
<svg xmlns:ffdec="https://www.free-decompiler.com/flash" xmlns:xlink="http://www.w3.org/1999/xlink" ffdec:objectType="shape" height="54.0px" width="57.5px" xmlns="http://www.w3.org/2000/svg">
  <g transform="matrix(1.0, 0.0, 0.0, 1.0, 28.5, 29.1)">
    <path d="M2.35 -28.4 L2.75 -27.95 Q3.0 -27.75 3.15 -27.75 3.4 -27.75 4.0 -28.0 4.3 -28.15 4.55 -28.3 5.1 -28.25 6.1 -27.4 L6.2 -26.85 Q6.3 -26.5 6.8 -26.55 7.15 -25.9 7.15 -25.8 7.15 -25.7 7.05 -25.6 6.85 -25.5 6.8 -25.4 L7.1 -25.0 Q7.3 -24.65 7.45 -24.5 8.25 -24.55 9.0 -23.8 L9.5 -23.3 Q9.75 -23.05 9.95 -23.05 L10.15 -22.85 Q10.2 -22.7 10.2 -22.5 10.2 -22.35 10.1 -22.15 10.0 -21.95 9.95 -21.8 9.95 -21.75 10.05 -21.55 10.15 -21.35 10.15 -21.2 10.15 -20.9 9.95 -20.5 9.65 -19.95 9.6 -19.8 9.35 -19.95 9.25 -20.1 L8.9 -20.55 Q8.8 -20.6 8.75 -20.85 8.75 -21.1 8.5 -21.3 8.1 -21.4 7.9 -21.55 L7.65 -21.8 Q7.55 -21.9 7.5 -22.0 L7.5 -21.95 Q7.4 -21.8 6.65 -21.8 L6.2 -21.95 5.55 -22.1 5.3 -22.5 Q5.25 -22.5 5.2 -22.4 5.15 -22.35 5.0 -22.35 4.7 -22.35 4.35 -22.75 4.15 -23.0 3.75 -23.65 2.7 -25.0 0.85 -25.05 L0.5 -25.0 Q0.35 -24.95 0.15 -24.75 L-0.25 -24.8 -0.35 -24.95 Q-0.9 -25.0 -1.15 -25.1 L-1.45 -25.2 Q-1.75 -25.2 -2.55 -24.7 -3.25 -24.2 -3.6 -23.85 L-3.75 -23.45 Q-3.9 -23.15 -4.2 -23.1 -4.45 -23.0 -5.15 -22.7 L-5.75 -22.45 Q-6.25 -22.45 -6.7 -22.6 -7.1 -22.75 -7.2 -22.9 -7.55 -22.85 -7.65 -22.7 L-7.95 -22.5 -9.15 -22.6 Q-9.75 -22.65 -9.5 -22.8 L-10.45 -22.85 Q-11.05 -22.7 -11.3 -22.5 -11.4 -22.35 -11.5 -22.05 -11.6 -21.75 -11.75 -21.6 -12.0 -21.35 -12.65 -21.15 -13.35 -20.95 -13.75 -20.25 -14.1 -19.45 -14.35 -19.2 -14.6 -19.4 -14.6 -19.65 -14.55 -20.1 -14.55 -20.15 -14.6 -20.25 -14.75 -20.35 -14.85 -20.5 -14.85 -20.55 L-14.85 -20.7 -14.8 -20.95 Q-14.8 -21.1 -15.2 -21.5 -15.55 -21.9 -15.55 -21.95 -15.55 -22.15 -15.3 -22.55 -15.0 -22.7 -14.25 -22.9 -13.85 -22.95 -13.75 -23.3 -13.65 -23.55 -13.4 -23.85 -13.2 -24.2 -12.95 -24.4 -12.65 -24.35 -12.45 -24.25 -12.25 -24.15 -12.15 -24.15 L-11.6 -24.25 -11.05 -24.3 Q-10.8 -24.3 -10.7 -24.65 -10.6 -25.0 -10.25 -25.0 -9.85 -25.0 -9.2 -26.05 -8.45 -27.25 -8.1 -27.5 -7.8 -27.5 -7.5 -27.3 -7.25 -27.1 -7.0 -27.15 -6.95 -27.05 -6.95 -26.85 -6.25 -26.6 -6.0 -26.6 -5.9 -26.6 -5.7 -26.8 L-5.5 -27.05 -4.95 -26.95 -4.75 -26.75 Q-4.6 -26.55 -4.65 -26.35 L-4.65 -26.3 -4.25 -26.2 Q-3.25 -26.75 -2.05 -27.75 -1.1 -27.9 -0.85 -28.15 -0.7 -28.3 -0.6 -28.6 -0.35 -28.9 0.7 -29.1 1.7 -29.1 2.35 -28.4 M18.2 -20.3 Q18.3 -19.9 18.35 -19.85 18.4 -19.8 19.05 -19.5 19.65 -19.25 19.8 -19.05 20.05 -18.75 20.35 -18.6 20.7 -18.45 21.45 -18.45 21.65 -18.35 21.8 -18.0 L22.0 -17.4 Q22.1 -17.2 22.45 -16.9 L22.85 -16.6 23.35 -16.7 23.6 -16.8 23.95 -16.75 25.2 -15.3 Q25.7 -14.65 25.7 -13.95 25.7 -13.8 25.6 -13.65 25.45 -13.5 25.45 -13.4 25.45 -13.35 25.65 -12.95 25.8 -12.65 25.7 -12.4 26.45 -12.15 26.9 -11.7 L27.15 -11.35 27.45 -11.3 27.65 -11.2 27.75 -11.2 Q27.8 -10.95 28.3 -9.95 L28.65 -9.2 28.8 -9.0 28.8 -8.95 Q28.8 -8.8 28.75 -8.65 L28.7 -8.55 28.65 -8.3 Q28.55 -7.8 28.55 -7.65 L28.55 -7.55 28.7 -7.25 28.95 -6.85 28.95 -6.6 29.0 -6.45 28.95 -6.3 28.95 -6.2 28.7 -5.5 Q28.4 -4.85 28.4 -4.7 28.4 -4.55 28.5 -4.45 28.6 -4.3 28.6 -4.15 28.6 -3.85 28.3 -3.25 28.1 -2.9 27.9 -2.7 28.0 -2.6 28.05 -2.4 28.1 -2.2 28.1 -1.85 L28.1 -1.65 Q28.2 -1.5 28.2 -1.35 28.2 -0.75 27.7 -0.25 L27.45 -0.05 Q26.85 0.35 26.45 0.5 26.25 0.55 25.95 1.1 25.6 1.7 25.4 1.9 L25.25 1.95 25.05 2.05 24.2 2.3 24.2 2.25 Q23.65 2.05 23.45 2.0 23.4 2.0 23.35 1.95 L22.85 2.0 22.55 2.1 Q22.5 2.1 22.45 2.15 L22.2 2.4 Q22.55 1.65 22.7 1.1 23.75 -0.6 23.75 -1.1 L23.75 -1.65 Q23.7 -2.05 23.75 -2.25 L23.7 -2.4 Q23.65 -2.45 23.5 -2.45 L23.35 -2.35 23.45 -2.55 Q24.25 -3.95 24.25 -4.65 24.25 -5.2 24.15 -5.6 24.05 -6.4 23.75 -6.55 L23.7 -6.55 23.7 -8.0 Q23.65 -8.6 23.45 -9.05 23.0 -9.9 22.85 -10.1 L22.85 -10.15 Q22.7 -10.45 22.7 -10.8 22.65 -11.1 22.45 -11.6 22.25 -12.05 21.95 -12.5 L21.55 -12.55 Q21.45 -12.6 21.2 -13.1 L20.95 -13.2 20.8 -13.1 Q20.7 -12.85 20.7 -12.65 20.7 -12.55 20.5 -12.55 20.4 -12.6 20.4 -12.8 L20.35 -13.0 Q20.3 -13.25 19.55 -13.15 19.15 -13.4 19.0 -13.65 18.8 -13.95 18.7 -14.55 18.65 -14.8 18.4 -15.25 L18.0 -15.95 17.85 -15.8 17.75 -15.6 Q17.35 -15.75 16.85 -16.2 16.4 -16.65 16.35 -16.85 L16.35 -16.95 16.25 -17.2 Q16.2 -17.3 16.0 -17.35 L15.65 -17.5 Q14.9 -17.85 14.85 -17.85 14.7 -17.85 14.65 -17.75 L14.65 -17.55 Q14.5 -17.65 14.4 -17.85 14.25 -18.05 13.8 -18.0 L13.8 -17.95 Q13.75 -17.95 13.75 -18.1 13.75 -18.3 13.85 -18.35 L13.95 -18.45 13.85 -18.55 Q13.8 -18.6 13.8 -18.75 L13.8 -19.25 13.95 -19.25 Q14.0 -19.5 14.35 -19.6 L15.8 -19.85 16.15 -20.3 Q16.5 -20.6 16.7 -20.55 L17.5 -20.65 Q18.0 -20.65 18.2 -20.3 M9.95 -21.85 L9.95 -21.85 M19.95 9.3 Q19.95 9.15 20.05 9.05 20.3 9.15 20.4 9.3 L20.4 9.95 Q20.3 10.15 20.0 10.35 19.95 10.2 19.95 9.7 19.95 9.45 19.95 9.3 M17.15 12.6 Q17.2 12.4 17.35 12.2 17.55 11.95 18.0 11.75 L18.55 11.55 Q18.8 11.4 18.9 11.05 19.0 10.75 19.3 10.65 19.65 10.45 20.2 10.65 L20.6 10.95 Q20.6 11.15 20.5 11.35 L20.4 11.45 20.6 11.75 Q20.6 12.15 20.25 12.6 19.95 13.05 19.95 13.3 L19.95 13.45 Q20.1 13.6 20.5 13.65 20.5 13.75 20.6 14.0 20.7 14.25 20.7 14.4 20.7 14.75 20.25 15.2 19.85 15.65 19.55 15.65 19.35 15.65 19.35 15.55 L19.35 15.4 18.9 15.4 Q18.8 15.5 18.65 15.85 18.4 16.25 18.4 16.35 18.4 16.5 18.5 16.55 L18.65 16.55 19.25 16.6 Q19.3 16.65 19.4 16.7 19.45 16.75 19.45 16.9 19.45 17.3 18.8 18.0 17.95 18.8 17.15 18.6 16.8 18.85 16.6 19.15 L16.0 20.0 Q15.65 20.4 15.15 20.7 L14.2 21.2 13.65 21.2 Q13.6 21.1 13.6 21.0 13.4 21.0 13.3 20.9 L13.2 20.8 Q12.8 20.75 12.7 20.7 L12.4 20.95 12.1 21.25 12.35 21.5 Q12.5 21.6 12.5 21.7 L12.25 21.95 Q11.95 22.2 11.55 22.15 11.35 22.45 11.2 22.5 L10.95 22.45 10.7 22.65 10.3 22.95 Q10.05 23.05 9.95 22.95 9.8 22.85 9.7 22.85 L9.45 23.0 Q9.15 23.15 9.0 23.15 8.8 23.15 8.7 23.05 L8.6 22.9 Q7.9 22.85 7.25 22.65 6.6 22.4 6.5 22.25 L6.0 22.25 5.85 22.4 5.7 22.5 5.65 22.35 Q5.75 22.15 6.0 21.9 L6.35 21.85 6.55 21.85 Q7.1 21.85 7.2 21.2 L7.2 20.35 Q7.65 20.45 8.0 20.25 8.35 20.05 8.35 19.75 8.35 19.6 8.2 19.45 8.05 19.35 8.05 19.2 8.05 18.8 8.35 18.65 8.5 18.6 9.4 18.5 L9.7 18.45 9.85 18.05 Q9.95 17.8 10.15 17.7 10.8 17.6 10.85 17.75 L10.85 17.85 Q11.9 17.6 12.3 17.4 13.0 17.1 13.0 16.7 13.0 16.55 12.9 16.6 L12.8 16.55 12.95 16.55 13.05 16.45 13.25 16.5 13.25 16.45 13.2 16.45 13.3 16.25 Q14.3 15.8 14.55 15.55 14.75 15.3 14.75 14.8 14.75 14.45 15.4 13.9 15.75 13.65 15.9 13.5 L16.25 13.4 Q16.5 13.4 16.8 13.1 17.1 12.8 17.15 12.6 M2.75 21.15 Q2.55 21.45 2.55 21.6 2.55 21.75 2.65 21.75 2.75 21.75 2.75 21.9 2.75 22.35 2.1 22.8 1.5 23.2 1.15 23.15 1.15 23.55 0.75 23.8 0.3 24.1 -0.75 24.15 L-1.2 24.55 Q-1.6 24.85 -2.3 24.8 L-3.15 24.8 -3.7 24.9 Q-4.55 24.9 -4.85 24.6 -5.1 24.25 -5.2 24.15 L-5.85 24.25 -6.05 24.35 Q-6.65 24.2 -7.55 23.8 L-8.45 23.3 Q-8.75 23.15 -8.85 22.95 L-8.9 22.7 Q-8.95 22.45 -9.55 22.3 L-10.1 22.2 -10.15 22.15 -10.2 21.95 -10.2 21.7 -10.1 21.5 -10.0 21.5 -10.05 21.6 -10.1 21.75 Q-9.9 21.6 -9.85 21.7 L-9.75 21.85 -9.6 21.85 Q-9.5 21.85 -9.4 21.9 L-8.95 21.95 -8.85 22.05 -8.7 22.05 -8.65 22.1 -8.7 22.2 -8.6 22.25 Q-8.45 22.25 -8.3 22.15 -8.1 22.1 -8.0 22.1 L-7.95 22.1 -7.8 22.15 -7.1 22.1 Q-6.8 21.9 -6.7 21.75 L-6.5 21.75 Q-6.35 21.75 -6.3 21.65 L-6.3 21.5 Q-5.8 21.4 -5.75 21.35 L-5.4 21.35 Q-5.35 21.5 -5.35 21.9 L-4.55 22.0 -4.2 22.3 -3.7 22.25 Q-3.25 21.8 -3.0 21.5 L-2.9 21.5 Q-2.85 21.55 -2.85 21.7 -2.85 21.55 -2.65 21.6 L-2.4 21.6 -2.1 21.7 -1.85 21.75 Q-1.7 21.95 -1.8 22.1 -1.85 22.2 -1.45 22.65 L-0.05 22.5 Q0.3 22.45 0.3 22.1 0.3 21.95 0.25 21.8 L0.1 21.55 0.1 21.35 0.15 21.35 0.55 21.4 0.75 21.5 1.05 21.0 1.75 20.9 Q2.05 20.85 2.15 20.75 L2.35 20.6 2.45 20.55 Q2.5 20.2 2.5 19.95 L2.65 19.95 Q2.9 20.05 2.95 20.35 L2.95 20.7 Q2.95 20.8 2.75 21.15 M2.1 21.25 L2.15 21.3 2.15 21.25 2.3 21.0 2.1 21.25 M6.5 22.15 L6.5 22.05 6.35 22.0 6.15 22.1 6.5 22.15 M0.95 22.75 L1.05 22.85 1.35 22.85 0.95 22.75 M-22.25 -17.6 Q-21.8 -18.0 -21.4 -18.45 -21.35 -18.45 -21.3 -18.35 L-21.2 -18.25 -20.25 -18.2 -20.15 -18.05 -19.4 -18.0 Q-19.2 -17.8 -19.05 -17.45 L-18.85 -16.9 Q-18.6 -16.35 -17.9 -16.35 L-18.2 -15.6 Q-18.4 -15.2 -18.7 -14.85 -18.8 -14.9 -18.85 -15.0 -18.9 -15.1 -18.9 -15.25 L-18.9 -15.45 Q-19.0 -15.35 -19.25 -15.4 -19.55 -15.45 -19.8 -15.55 L-20.3 -15.5 -20.5 -15.1 -20.75 -14.75 Q-20.85 -14.65 -21.35 -14.45 -21.85 -14.25 -21.95 -14.15 -22.05 -14.05 -22.1 -13.8 L-22.2 -13.35 -22.4 -13.0 -22.55 -12.7 Q-22.75 -12.35 -22.75 -11.85 -22.75 -11.35 -22.8 -11.2 L-23.0 -10.85 Q-23.15 -10.55 -23.1 -10.4 -23.0 -9.9 -23.0 -9.7 -23.0 -9.25 -23.05 -9.15 -23.2 -9.0 -23.95 -8.55 L-24.1 -8.2 Q-24.15 -7.95 -24.15 -7.8 -24.15 -7.45 -24.0 -7.25 L-23.65 -6.95 Q-23.1 -6.5 -23.1 -5.8 -23.1 -5.3 -23.15 -5.05 L-23.3 -5.15 Q-23.35 -5.25 -23.3 -5.3 -23.3 -5.35 -23.4 -5.3 L-23.65 -5.2 -23.7 -4.95 -23.8 -4.65 -23.95 -4.7 Q-24.1 -4.7 -24.15 -4.75 -24.25 -4.55 -24.45 -4.3 -24.6 -4.1 -24.6 -3.85 L-24.2 -2.95 -24.35 -2.35 -24.5 -1.65 Q-24.5 -1.5 -24.4 -1.35 L-24.25 -1.05 -24.2 -0.75 -24.1 -0.5 Q-24.05 -0.35 -23.85 -0.2 -23.7 -0.05 -23.6 0.1 -23.5 0.35 -23.3 0.45 L-23.2 0.5 -23.2 0.6 -23.15 0.65 Q-23.15 0.7 -23.3 0.7 L-23.75 0.65 -24.3 0.6 Q-24.9 0.0 -25.05 -0.2 -25.3 -0.55 -25.3 -1.0 -25.3 -1.05 -26.1 -1.95 -26.9 -2.85 -26.9 -3.0 -26.9 -3.15 -26.95 -3.25 -27.05 -3.35 -27.05 -3.45 L-27.0 -3.7 Q-26.95 -3.85 -27.0 -3.9 -27.1 -4.15 -27.35 -4.4 -27.55 -4.65 -27.75 -4.75 L-27.8 -5.1 -28.25 -5.15 Q-28.5 -5.9 -28.5 -6.25 -28.5 -6.65 -28.3 -6.95 -28.05 -7.3 -28.0 -8.05 L-27.75 -8.05 Q-27.6 -8.0 -27.6 -7.95 L-27.4 -8.45 Q-27.25 -8.65 -27.25 -8.8 -27.25 -8.85 -27.5 -9.15 -27.75 -9.5 -27.75 -9.6 -27.75 -9.75 -27.7 -9.8 L-27.45 -10.0 Q-27.15 -10.25 -27.05 -10.2 L-27.0 -10.05 Q-26.95 -10.05 -26.75 -10.45 L-26.55 -10.9 Q-26.55 -11.05 -26.7 -11.45 -26.85 -11.85 -26.85 -11.95 -26.85 -12.35 -26.75 -12.8 L-26.6 -13.3 Q-26.55 -13.5 -26.4 -13.6 L-26.05 -13.95 -25.65 -14.3 Q-25.5 -14.4 -25.45 -14.65 -25.4 -14.85 -25.3 -14.95 L-25.45 -15.0 Q-25.6 -15.05 -25.6 -15.2 -25.6 -15.75 -25.15 -16.15 -24.6 -16.7 -23.5 -16.9 -22.95 -17.05 -22.25 -17.6 M-20.5 7.3 Q-20.1 7.75 -20.05 8.15 L-20.05 8.95 -19.85 9.1 Q-19.65 9.25 -19.65 9.35 L-19.65 9.75 Q-19.65 9.9 -19.7 10.15 L-19.8 10.5 -20.1 10.6 Q-20.15 10.65 -20.2 10.65 -20.25 10.7 -20.25 10.85 -20.25 11.0 -20.1 11.6 L-19.85 12.5 Q-19.75 12.35 -19.4 12.1 -19.1 11.9 -19.0 11.7 L-18.55 11.7 -18.05 11.8 -17.15 12.65 Q-16.65 13.1 -16.7 13.45 L-16.5 13.5 -16.05 13.5 Q-15.7 13.8 -15.5 14.3 -15.3 14.8 -15.05 15.05 L-14.3 15.15 -14.1 15.2 Q-14.0 15.7 -13.55 16.05 -13.1 16.45 -12.4 16.5 L-12.4 16.55 -12.35 16.65 -12.45 16.7 Q-12.6 16.7 -13.35 16.5 -14.1 16.3 -14.15 16.3 L-14.75 16.55 -15.45 16.85 -15.75 16.8 Q-15.75 16.75 -16.5 16.5 -17.2 16.25 -17.25 16.25 -17.4 16.25 -17.75 16.5 -18.1 16.8 -18.3 16.85 -18.7 16.9 -18.95 17.0 L-19.55 17.2 -19.7 17.3 Q-19.75 17.35 -19.75 17.55 L-19.45 17.85 -19.2 17.8 -19.05 17.85 Q-19.6 18.25 -19.8 18.35 -20.55 18.65 -21.6 18.4 -21.65 18.55 -21.85 18.75 -23.15 18.5 -23.25 17.6 -23.3 17.2 -23.35 17.15 -23.45 17.0 -23.95 17.1 L-24.2 17.1 -24.45 16.45 -24.65 16.0 -25.05 15.85 -25.55 15.7 -25.6 15.5 -25.7 15.15 Q-25.7 15.0 -25.3 14.6 -24.95 14.2 -24.95 13.8 -24.95 13.45 -25.05 13.25 -25.15 13.0 -25.4 12.7 -25.5 12.6 -25.55 12.4 -25.55 12.3 -25.8 12.2 L-26.45 12.05 Q-26.6 12.0 -26.7 11.85 -26.85 11.6 -26.8 10.75 -26.75 9.95 -27.25 9.6 L-27.65 9.55 -27.75 9.45 Q-27.8 9.35 -27.8 9.2 L-27.7 8.4 Q-27.7 7.95 -27.55 7.85 L-27.45 7.7 Q-27.45 7.55 -27.95 7.1 -28.4 6.7 -28.4 6.65 -27.85 5.15 -27.4 4.75 -26.4 4.6 -26.45 4.05 -26.65 3.45 -26.5 3.3 -26.4 2.85 -25.6 2.8 -24.95 2.75 -24.65 3.15 L-24.6 3.1 Q-24.5 3.0 -24.45 3.05 L-23.85 3.15 -22.95 3.15 Q-22.75 3.25 -22.7 3.5 -22.65 3.7 -22.65 3.95 -22.65 4.2 -22.5 4.35 -22.3 4.55 -22.3 4.65 -22.2 4.9 -22.3 5.4 L-22.35 6.0 Q-22.35 6.25 -22.2 6.45 -22.1 6.65 -21.9 6.75 L-21.55 6.7 Q-20.95 6.85 -20.5 7.3 M-14.05 17.05 Q-14.0 17.15 -14.0 17.2 -13.45 17.25 -13.0 17.55 -12.65 17.75 -12.6 17.9 L-11.75 17.8 -11.3 17.7 -11.1 17.75 Q-10.95 17.75 -10.9 17.8 L-10.95 17.9 -11.0 17.85 -11.35 17.9 -11.65 17.95 Q-11.65 18.1 -11.8 18.2 -12.35 18.15 -12.75 18.35 L-13.25 18.65 -13.2 18.7 Q-13.1 18.75 -13.05 18.8 -13.1 18.9 -13.15 19.05 -13.25 19.2 -14.0 19.25 L-14.1 19.55 Q-14.2 19.75 -14.25 19.8 -14.6 19.9 -16.9 20.6 L-17.4 20.55 -18.1 20.45 Q-18.4 20.2 -18.4 20.05 L-18.95 20.05 Q-19.0 20.05 -19.0 20.2 -19.0 20.35 -18.9 20.45 -18.8 20.5 -18.8 20.6 L-18.85 20.65 Q-19.0 20.65 -19.4 20.45 -19.8 20.25 -19.85 20.1 L-19.9 19.85 Q-19.9 19.75 -20.0 19.7 -20.35 19.55 -20.35 19.4 -20.35 19.25 -20.1 19.0 -19.9 18.75 -19.65 18.6 L-19.15 18.6 -18.3 17.9 Q-17.5 17.25 -16.75 17.25 L-16.3 17.4 -15.85 17.6 Q-15.65 17.6 -15.25 17.45 L-14.3 17.05 -14.05 17.05 M-14.4 19.55 L-14.4 19.55 M-9.25 22.15 L-9.5 22.15 -9.3 22.2 -9.25 22.15" fill="#ffffff" fill-opacity="0.7019608" fill-rule="evenodd" stroke="none"/>
  </g>
</svg>
