<?xml version="1.0" encoding="UTF-8" standalone="no"?>
<svg xmlns:ffdec="https://www.free-decompiler.com/flash" xmlns:xlink="http://www.w3.org/1999/xlink" ffdec:objectType="shape" height="53.15px" width="59.0px" xmlns="http://www.w3.org/2000/svg">
  <g transform="matrix(1.0, 0.0, 0.0, 1.0, 28.65, 31.95)">
    <path d="M3.75 -31.55 Q3.7 -31.1 3.15 -30.65 3.05 -30.65 3.0 -30.8 L2.9 -31.0 2.35 -30.85 1.85 -30.75 Q1.6 -30.75 1.5 -30.9 1.45 -31.0 1.4 -31.15 1.15 -31.2 0.75 -31.0 L0.75 -31.15 Q0.85 -31.5 1.6 -31.7 L2.5 -31.95 Q2.75 -31.9 3.2 -31.8 3.6 -31.65 3.75 -31.55 M3.85 -31.05 L4.3 -31.35 Q4.35 -31.35 4.7 -31.15 L4.7 -30.6 4.6 -30.5 4.35 -30.65 Q4.15 -30.75 3.9 -30.75 L3.85 -31.05 M0.2 -31.45 Q0.25 -31.45 0.25 -31.3 0.25 -31.1 0.1 -31.05 L-0.15 -31.05 Q-0.35 -31.05 -0.35 -30.9 L-0.35 -30.75 Q-0.45 -30.75 -0.55 -31.0 L-0.7 -30.9 Q-0.85 -30.8 -0.9 -30.8 -0.95 -30.8 -0.95 -30.95 -0.95 -31.15 -0.85 -31.2 L-0.7 -31.35 -0.3 -31.45 0.15 -31.5 0.2 -31.45 M9.2 -29.8 L9.45 -29.55 Q9.55 -29.35 9.55 -29.25 9.5 -29.15 9.3 -29.05 L9.2 -29.15 Q9.1 -29.3 9.1 -29.4 L9.0 -29.4 8.65 -29.35 Q8.3 -29.35 8.05 -29.5 7.75 -29.6 7.7 -29.8 L7.35 -29.8 Q7.25 -29.8 7.25 -29.9 7.2 -29.95 7.2 -30.05 7.1 -30.1 6.95 -30.05 L6.75 -30.0 6.3 -30.15 6.05 -30.05 5.75 -30.1 5.65 -30.15 Q5.6 -30.2 5.6 -30.35 5.6 -30.5 5.85 -30.65 6.1 -30.85 6.2 -30.85 6.5 -30.85 6.7 -30.6 6.9 -30.4 7.25 -30.4 7.45 -30.4 7.55 -30.45 7.7 -30.55 7.85 -30.65 L8.2 -30.1 8.25 -30.2 Q8.3 -30.25 8.4 -30.25 8.5 -30.25 8.55 -30.1 8.6 -29.95 8.7 -29.95 L9.0 -29.9 9.2 -29.8 M9.3 -26.75 L9.75 -26.75 9.8 -26.55 Q9.9 -26.45 10.0 -26.35 L10.0 -26.25 Q10.0 -26.2 9.8 -26.2 9.65 -26.2 9.4 -26.3 9.2 -26.35 9.05 -26.4 L9.0 -26.55 Q9.15 -26.7 9.3 -26.75 M12.05 -26.85 L12.25 -26.55 12.4 -26.3 Q12.35 -26.25 12.35 -26.15 L12.35 -26.05 Q12.15 -26.0 12.0 -26.2 11.85 -26.0 11.6 -26.0 L11.25 -26.05 10.9 -26.05 10.8 -26.2 Q10.85 -26.3 11.2 -26.55 L11.6 -26.85 12.05 -26.85 M20.9 -21.6 Q21.05 -21.85 21.2 -21.9 L22.0 -21.95 Q22.1 -21.9 22.15 -21.8 22.2 -21.7 22.2 -21.55 22.1 -21.5 21.6 -21.5 21.1 -21.5 20.9 -21.6 M15.9 -23.95 Q16.15 -23.9 16.2 -23.85 16.15 -23.75 15.8 -23.65 15.75 -23.5 15.65 -23.1 L15.4 -23.25 15.15 -23.3 15.0 -23.35 Q14.8 -23.35 14.75 -23.45 L14.9 -23.45 15.45 -23.55 15.65 -23.8 Q15.75 -23.9 15.9 -23.95 M25.45 -19.25 L25.45 -19.15 Q25.45 -19.1 25.25 -19.1 L25.0 -19.15 24.7 -19.15 Q24.6 -19.1 24.45 -19.05 L24.05 -19.1 24.0 -19.15 Q23.95 -19.2 23.95 -19.25 L24.0 -19.45 24.25 -19.45 24.5 -19.35 Q24.5 -19.55 24.55 -19.55 24.6 -19.6 24.65 -19.6 L25.15 -19.55 25.45 -19.25 M26.8 -16.8 L27.1 -16.5 Q27.3 -16.3 27.75 -16.3 L28.05 -16.1 Q28.0 -16.05 27.8 -15.95 27.6 -15.85 27.4 -15.85 27.3 -15.85 27.05 -16.15 L26.85 -16.45 26.55 -16.45 26.4 -16.5 26.2 -16.6 Q26.35 -16.8 26.55 -16.85 L26.8 -16.8 M28.4 -14.3 Q28.4 -14.35 28.25 -14.4 28.3 -14.45 28.75 -14.65 29.35 -14.6 29.6 -14.35 29.95 -13.9 30.1 -13.8 30.25 -13.7 30.35 -13.6 30.3 -13.5 30.2 -13.45 L29.85 -13.55 29.85 -13.6 Q29.7 -13.6 29.6 -13.7 L29.4 -13.95 Q29.15 -14.35 28.4 -14.3 M27.05 -10.4 Q27.3 -10.5 27.6 -10.3 L28.0 -10.0 Q28.2 -9.85 28.55 -9.7 28.75 -9.55 28.75 -9.3 L28.75 -9.15 Q28.8 -8.95 28.85 -8.9 L28.8 -8.65 28.75 -8.55 Q28.7 -8.6 28.55 -8.95 L28.45 -9.15 Q28.15 -9.3 27.85 -9.6 27.5 -9.9 27.2 -9.95 L27.15 -10.0 27.05 -10.0 26.9 -10.05 26.85 -10.3 26.95 -10.3 27.05 -10.35 27.05 -10.4 M27.85 -7.5 L27.8 -7.4 Q27.75 -7.35 27.6 -7.35 L27.4 -7.35 27.3 -7.4 27.25 -7.4 27.25 -7.55 Q27.25 -7.75 27.35 -7.75 L27.5 -7.8 27.75 -7.75 Q27.85 -7.65 27.85 -7.5 M28.8 -7.35 L28.85 -7.4 Q29.45 -7.25 29.75 -6.95 30.0 -6.7 30.0 -6.35 30.0 -6.15 29.95 -6.1 L29.85 -6.0 29.7 -6.0 Q29.65 -6.35 29.5 -6.5 29.35 -6.7 29.1 -6.6 29.0 -6.7 28.75 -7.3 L28.8 -7.35 M25.35 -10.8 Q25.75 -10.95 25.95 -10.7 L26.3 -10.35 26.3 -10.3 26.15 -10.3 25.9 -10.45 Q25.65 -10.6 25.25 -10.65 L25.35 -10.8 M29.2 -4.6 L29.5 -4.3 Q29.45 -4.2 29.35 -4.15 29.25 -4.15 29.05 -4.35 28.8 -4.55 28.75 -4.65 L28.9 -4.65 29.2 -4.6 M21.8 9.5 Q21.85 9.55 21.9 9.6 L22.0 9.65 Q21.95 9.8 21.7 10.0 21.35 10.3 21.25 10.45 L20.95 10.45 21.2 10.2 21.05 10.15 21.2 10.0 Q21.25 9.9 21.25 9.7 21.25 9.55 21.0 9.2 L20.8 8.9 Q20.65 8.85 20.6 8.8 L20.95 8.55 21.1 8.45 21.35 8.5 Q21.5 8.6 21.65 8.9 21.8 9.25 21.8 9.35 L21.8 9.5 M19.2 10.85 L19.55 10.65 20.0 10.7 20.1 10.8 20.15 10.9 Q20.2 11.0 20.2 11.15 20.6 11.45 20.6 11.55 20.6 11.75 20.5 11.9 L20.35 12.15 20.1 12.25 Q19.95 12.3 19.95 12.35 19.95 12.55 19.85 12.6 L19.4 12.65 19.4 12.2 19.55 12.05 Q19.7 11.95 19.75 11.85 19.75 11.75 19.55 11.55 19.4 11.3 19.35 11.2 L18.95 11.15 18.95 11.0 19.2 10.85 M10.55 20.4 Q10.65 20.05 10.75 20.0 L11.1 20.0 11.15 20.15 Q11.1 20.25 10.95 20.25 L11.0 20.3 11.05 20.25 11.05 20.4 Q11.15 20.5 11.15 20.65 L10.95 20.9 10.65 21.2 10.4 21.15 10.25 21.1 10.15 20.95 10.35 20.85 Q10.35 20.75 10.45 20.6 L10.55 20.4 M10.75 20.4 L10.8 20.45 10.75 20.35 10.75 20.4 M17.15 16.3 Q17.1 16.25 17.1 16.1 17.1 16.0 17.25 15.85 17.4 15.65 17.4 15.6 17.4 15.45 17.3 15.4 L17.2 15.3 Q17.5 15.2 17.7 15.25 17.85 15.3 17.85 15.55 17.85 15.65 17.7 15.95 17.5 16.25 17.35 16.3 L17.15 16.3 M17.5 16.7 Q17.5 16.85 17.45 17.0 L17.2 17.2 16.9 17.25 16.0 17.25 Q15.95 17.25 15.95 17.1 15.95 16.9 16.6 16.7 L16.65 16.7 Q17.2 16.5 17.4 16.5 L17.5 16.55 17.5 16.7 M12.05 19.05 L12.1 19.15 12.0 19.45 Q11.9 19.7 11.8 19.75 L11.65 19.75 Q11.6 19.75 11.6 19.55 11.6 19.45 11.8 19.25 11.95 19.1 12.05 19.05 M15.9 17.55 L16.15 17.6 16.2 17.65 16.25 17.9 Q16.25 17.95 16.0 18.1 L15.6 18.35 15.15 18.35 14.95 18.2 15.35 17.9 Q15.75 17.6 15.9 17.55 M-14.0 -27.35 Q-14.1 -27.05 -14.2 -26.95 L-14.4 -26.9 Q-14.5 -26.85 -14.65 -26.85 -14.8 -26.85 -14.85 -26.85 L-14.85 -26.9 -14.5 -27.15 Q-14.3 -27.25 -14.2 -27.35 -14.15 -27.45 -14.1 -27.6 -14.0 -27.7 -13.85 -27.65 L-14.0 -27.35 M-12.35 -27.5 L-12.0 -27.5 Q-12.0 -27.45 -12.05 -27.35 L-12.2 -27.25 -12.9 -27.3 -13.0 -27.35 Q-13.05 -27.4 -13.05 -27.6 L-13.05 -27.75 -13.0 -27.75 Q-12.95 -27.75 -12.85 -27.65 L-12.65 -27.5 -12.35 -27.5 M-7.25 -29.85 Q-7.2 -29.8 -7.25 -29.7 L-7.15 -29.7 -6.95 -29.8 Q-6.85 -29.7 -6.85 -29.45 -6.95 -29.4 -7.3 -29.4 L-7.7 -29.3 -7.85 -29.25 -8.05 -29.2 -8.6 -29.2 -8.65 -29.35 -8.5 -29.5 Q-8.15 -29.6 -7.9 -29.9 -7.8 -30.05 -7.25 -29.85 M-5.9 -30.2 Q-5.6 -30.5 -4.6 -29.95 -5.1 -29.7 -5.5 -29.3 -5.7 -29.1 -6.2 -29.1 L-6.35 -29.1 Q-6.35 -29.15 -6.4 -29.2 L-6.45 -29.15 Q-6.5 -29.2 -6.5 -29.35 -6.5 -29.5 -6.4 -29.5 L-6.15 -29.5 Q-6.1 -29.6 -6.05 -29.85 -6.0 -30.05 -5.9 -30.2 M-3.55 -29.9 Q-3.55 -29.8 -3.7 -29.7 -3.8 -29.6 -4.05 -29.55 L-4.15 -29.55 Q-4.2 -29.6 -4.2 -29.75 -4.2 -30.1 -3.6 -30.05 L-3.55 -29.9 M-27.6 -14.7 Q-27.6 -15.0 -27.35 -15.25 -27.05 -15.55 -26.95 -16.05 -26.9 -16.45 -26.6 -16.65 -26.3 -16.85 -25.8 -16.5 -25.85 -16.35 -26.25 -15.95 -26.55 -15.6 -26.55 -15.4 L-26.4 -15.2 -26.25 -15.05 Q-26.25 -14.85 -26.55 -14.7 -26.8 -14.55 -26.95 -14.55 -26.95 -14.1 -26.85 -13.7 L-26.9 -13.6 Q-27.25 -13.75 -27.45 -14.1 -27.6 -14.4 -27.6 -14.7 M-22.35 -19.65 Q-22.5 -19.45 -22.7 -19.3 -22.85 -19.25 -23.1 -19.15 L-23.25 -19.15 Q-23.3 -19.15 -23.3 -19.35 -23.3 -19.55 -22.9 -19.65 L-22.35 -19.65 M-23.95 -18.35 L-23.95 -18.5 Q-23.95 -18.6 -23.85 -18.75 L-23.6 -18.95 Q-23.35 -18.9 -23.3 -18.85 -23.3 -18.8 -23.5 -18.65 -23.75 -18.45 -23.9 -18.4 L-23.95 -18.35 M-25.75 -17.6 Q-25.45 -17.9 -25.4 -17.9 L-25.25 -17.85 Q-25.1 -17.8 -25.05 -17.7 L-24.85 -17.45 -25.15 -17.4 Q-25.3 -17.35 -25.4 -17.25 L-25.55 -17.1 -25.65 -17.05 -25.8 -16.95 -26.05 -17.0 -26.2 -17.15 -25.75 -17.6 M-28.5 -10.65 Q-28.55 -10.7 -28.55 -10.85 -28.55 -11.0 -28.45 -11.05 L-28.35 -11.15 Q-28.0 -11.2 -27.9 -11.05 L-28.1 -10.9 Q-28.3 -10.75 -28.5 -10.7 L-28.5 -10.65 M-28.2 -10.05 Q-28.2 -9.9 -28.25 -9.75 L-28.4 -9.6 -28.55 -9.55 Q-28.65 -9.55 -28.65 -9.7 -28.65 -10.15 -28.4 -10.25 L-28.25 -10.25 Q-28.2 -10.2 -28.2 -10.05 M-20.25 -20.7 Q-20.55 -20.75 -20.6 -20.8 -19.8 -21.6 -18.5 -21.1 -18.05 -20.95 -17.7 -20.6 -17.35 -20.3 -17.35 -20.05 -17.35 -19.95 -17.4 -19.75 -17.5 -19.55 -17.65 -19.55 -17.7 -19.55 -18.05 -19.75 L-18.45 -20.0 -18.6 -20.5 -18.9 -20.3 Q-19.05 -20.2 -19.2 -20.2 L-19.4 -20.2 -19.45 -20.25 -19.8 -20.3 -19.85 -20.5 Q-19.9 -20.6 -19.95 -20.7 L-20.25 -20.7 M-20.65 12.7 L-20.85 12.7 Q-20.85 12.6 -20.9 12.35 L-20.95 12.0 Q-20.95 11.6 -20.55 11.45 -20.15 11.35 -19.95 11.45 -20.5 12.4 -20.65 12.7 M-16.1 16.4 Q-16.05 16.55 -15.95 16.65 L-16.1 16.7 Q-16.2 16.7 -16.25 16.6 -16.35 16.55 -16.35 16.35 L-16.35 16.2 Q-16.8 15.95 -16.8 15.7 L-16.8 15.55 -16.7 15.6 -16.7 15.55 -16.35 15.6 -16.1 16.15 -16.1 16.2 -16.15 16.25 -16.1 16.4 M-18.6 15.35 L-18.15 15.3 Q-17.85 15.3 -17.45 15.5 L-17.35 15.55 -17.45 15.65 Q-18.05 15.7 -18.3 15.85 L-19.25 15.7 Q-19.1 15.5 -18.75 15.4 L-18.6 15.35 M-20.85 16.45 Q-20.8 16.5 -20.8 16.55 L-21.2 16.9 Q-21.4 17.05 -21.5 17.3 -21.8 17.1 -21.8 16.85 -21.8 16.55 -21.75 16.5 -21.65 16.3 -21.1 16.05 -20.9 15.95 -20.85 15.8 L-20.85 15.65 Q-20.8 15.55 -20.15 15.65 -20.1 15.7 -20.1 15.85 -20.1 15.95 -20.2 16.0 L-20.6 16.2 Q-20.95 16.35 -20.85 16.45 M-25.2 1.25 Q-25.15 1.4 -25.0 1.5 L-25.0 1.55 -25.2 1.55 Q-25.8 1.55 -26.25 1.9 -26.6 2.15 -26.65 2.5 -26.65 2.6 -26.8 2.95 L-27.0 3.5 -27.1 3.55 -27.2 3.4 Q-27.25 3.3 -27.25 3.15 -27.25 3.0 -27.15 2.75 -27.0 2.55 -27.0 2.45 L-27.0 2.15 Q-27.0 1.95 -26.9 1.8 -26.15 1.7 -25.95 1.4 -25.85 1.05 -25.7 0.95 L-25.25 0.95 -25.2 1.25 M-26.95 5.05 L-26.95 5.3 -27.05 5.35 Q-27.25 5.2 -27.35 5.0 -27.4 4.85 -27.4 4.65 -27.4 4.25 -27.1 4.2 -27.05 4.25 -27.1 4.35 L-27.15 4.6 Q-27.15 4.75 -27.05 4.8 -26.95 4.9 -26.95 5.05 M-26.15 6.5 L-25.9 6.65 Q-25.8 6.75 -25.65 6.8 L-25.7 6.95 -25.8 7.1 Q-26.15 7.05 -26.2 6.95 -26.25 6.9 -26.25 6.7 -26.25 6.5 -26.2 6.5 L-26.15 6.5 M-23.8 6.4 L-23.7 6.6 -23.6 6.6 -23.3 6.8 -23.35 6.85 -23.75 6.85 -23.9 7.0 Q-24.1 7.25 -24.35 7.35 L-24.4 7.35 -24.65 7.4 -25.15 7.35 Q-25.2 7.3 -25.35 7.25 L-25.35 7.1 Q-25.3 7.1 -25.25 7.15 -25.15 7.2 -25.0 7.2 L-24.8 7.2 -24.75 7.1 -24.5 7.05 Q-24.55 6.95 -24.55 6.7 -24.55 6.65 -24.4 6.6 -24.25 6.6 -24.25 6.4 L-23.8 6.4 M-24.2 8.85 L-24.45 8.7 -24.55 8.55 -24.55 8.35 Q-24.25 8.35 -24.1 8.7 L-24.2 8.85 M-24.2 9.7 L-23.95 10.1 Q-23.7 10.45 -23.7 10.65 L-23.75 10.9 -23.75 11.05 -24.0 11.05 -24.0 10.85 Q-23.95 10.65 -23.95 10.5 L-24.15 10.2 Q-24.3 9.95 -24.3 9.85 L-24.25 9.45 Q-24.2 9.2 -24.2 9.05 L-24.1 9.05 Q-24.1 9.15 -24.15 9.35 -24.2 9.55 -24.2 9.7 M-24.95 11.35 L-25.15 11.35 -25.15 11.2 -25.05 11.05 Q-25.0 11.0 -24.8 11.0 -24.45 11.0 -24.4 11.2 -24.35 11.25 -24.15 11.1 L-24.1 11.05 Q-24.05 11.05 -24.05 11.2 -24.05 11.4 -24.15 11.45 L-24.7 11.45 -24.75 11.3 -24.95 11.35 M-23.75 12.45 Q-23.75 12.35 -24.0 12.15 L-24.0 12.1 Q-23.95 12.1 -23.8 12.2 L-23.65 12.35 -23.4 12.35 -23.35 12.0 Q-23.35 11.8 -23.3 11.75 -23.2 11.75 -22.85 11.85 -22.75 11.95 -22.7 12.1 L-22.7 12.25 -22.65 12.3 Q-22.5 12.4 -22.45 12.45 L-22.4 12.55 -22.4 12.6 -22.55 12.6 Q-22.8 12.6 -22.85 12.55 L-22.9 12.45 Q-23.1 12.45 -23.3 12.5 L-23.75 12.45" fill="#ffffff" fill-opacity="0.7019608" fill-rule="evenodd" stroke="none"/>
  </g>
</svg>
