<?xml version="1.0" encoding="UTF-8" standalone="no"?>
<svg xmlns:ffdec="https://www.free-decompiler.com/flash" xmlns:xlink="http://www.w3.org/1999/xlink" ffdec:objectType="shape" height="21.75px" width="29.25px" xmlns="http://www.w3.org/2000/svg">
  <g transform="matrix(1.0, 0.0, 0.0, 1.0, 3.05, 30.6)">
    <path d="M3.1 -19.25 L3.0 -19.5 2.8 -19.8 2.8 -19.85 Q2.6 -20.65 2.35 -21.35 L2.25 -21.5 Q2.05 -21.8 1.8 -21.95 L0.55 -22.35 Q0.4 -22.4 0.35 -22.5 0.45 -22.6 0.55 -22.65 L1.2 -22.75 1.45 -22.75 1.4 -22.8 0.05 -23.2 -1.25 -23.65 Q-2.15 -23.85 -2.15 -23.9 L-2.9 -24.1 Q-3.05 -24.2 -3.05 -24.3 -2.8 -24.55 -1.85 -24.35 L-0.4 -24.1 1.65 -23.7 2.7 -23.5 3.45 -23.35 3.75 -23.3 Q4.4 -23.25 4.65 -23.15 L5.05 -22.8 5.15 -22.8 5.25 -22.9 5.35 -23.15 5.35 -23.25 Q5.55 -23.5 5.6 -23.75 L5.65 -23.9 5.65 -23.95 5.8 -24.3 5.85 -24.35 Q6.25 -24.45 6.5 -24.6 L6.8 -24.55 7.25 -24.35 Q7.5 -24.2 7.55 -23.65 L7.6 -23.2 7.6 -22.55 7.65 -22.25 8.0 -21.95 8.1 -21.75 8.2 -21.9 8.2 -22.3 Q8.1 -22.4 8.15 -22.5 8.15 -22.65 8.1 -22.7 L8.1 -23.25 8.15 -23.35 Q8.1 -23.35 8.05 -23.45 8.05 -23.6 8.05 -23.8 8.05 -23.95 7.95 -24.15 7.8 -24.35 7.65 -24.5 L7.5 -24.55 7.2 -24.8 Q6.85 -25.05 6.85 -25.1 6.9 -25.2 6.95 -25.2 L6.95 -25.25 Q6.75 -25.6 6.25 -26.0 5.45 -26.8 4.0 -27.7 4.25 -27.9 5.1 -27.7 6.0 -27.5 7.45 -26.9 6.95 -27.45 5.85 -28.15 4.8 -28.8 2.35 -30.45 2.35 -30.55 2.4 -30.6 L2.8 -30.55 3.8 -30.25 4.3 -30.05 6.25 -29.25 Q5.75 -29.5 5.45 -29.95 L5.4 -29.95 Q5.5 -30.1 5.55 -30.05 L5.75 -29.95 5.95 -29.95 9.15 -28.55 Q9.25 -28.55 10.55 -28.0 L10.6 -28.05 11.55 -27.6 11.7 -27.6 12.7 -26.65 13.6 -25.95 13.6 -25.9 Q13.65 -25.2 13.8 -24.45 L13.85 -24.2 13.9 -24.15 Q13.8 -24.0 13.7 -23.65 13.5 -23.55 13.3 -23.4 12.75 -23.05 12.6 -22.8 L12.55 -22.8 12.5 -22.7 Q12.4 -22.6 12.1 -21.95 L11.95 -21.55 Q11.85 -21.45 11.75 -21.4 L11.45 -21.25 11.05 -21.1 10.7 -20.9 10.75 -20.9 10.7 -20.85 10.75 -20.8 Q10.85 -20.6 10.9 -20.55 L11.8 -20.55 11.95 -20.35 12.2 -20.0 12.35 -19.8 12.35 -19.75 Q12.45 -19.55 12.45 -19.45 L12.05 -18.25 12.0 -18.25 11.9 -17.95 11.9 -18.0 11.85 -18.05 11.9 -18.3 11.95 -18.35 12.0 -18.75 12.05 -18.9 12.1 -19.15 12.15 -19.3 Q12.05 -19.25 11.8 -19.2 L11.7 -19.2 11.55 -19.05 11.5 -19.05 11.5 -18.95 11.35 -18.6 11.3 -18.5 11.25 -18.5 11.25 -18.45 11.2 -18.35 11.15 -18.35 11.2 -18.4 11.1 -18.55 11.1 -18.6 11.15 -18.6 11.3 -18.85 11.4 -19.05 11.35 -19.15 11.35 -19.2 11.3 -19.25 11.0 -19.5 10.95 -19.55 10.9 -19.55 10.9 -19.6 10.85 -19.55 10.65 -19.05 10.65 -19.0 10.5 -19.1 10.5 -19.15 Q10.65 -19.4 10.7 -19.65 10.75 -19.9 10.7 -20.0 L10.65 -20.15 10.55 -20.2 10.5 -20.15 10.35 -20.05 10.0 -19.9 9.95 -19.8 9.85 -19.65 9.8 -19.6 Q9.7 -19.6 9.65 -19.4 L9.6 -19.35 Q9.6 -19.25 9.6 -19.15 L10.25 -18.9 10.3 -18.9 10.35 -18.85 10.35 -18.85 10.35 -18.8 Q10.25 -18.75 10.05 -18.85 L9.75 -19.0 9.55 -19.15 9.55 -19.25 9.55 -19.3 9.6 -19.3 9.55 -19.4 Q9.45 -19.45 9.4 -19.45 L9.45 -19.5 9.5 -19.5 9.6 -19.6 9.6 -19.65 9.75 -19.8 9.7 -19.85 9.7 -19.9 9.6 -20.1 9.6 -20.0 9.7 -19.85 9.6 -19.75 9.45 -19.7 Q8.85 -19.9 8.6 -19.9 L8.3 -20.0 8.3 -20.35 8.25 -20.35 8.25 -19.8 8.15 -19.85 8.1 -19.85 8.15 -20.35 8.15 -20.45 Q8.05 -20.5 7.95 -20.65 7.85 -20.45 7.75 -20.35 L7.7 -20.3 7.3 -20.65 7.25 -20.7 7.05 -20.5 7.05 -20.6 Q6.85 -20.75 6.65 -21.2 L6.35 -21.65 6.2 -21.8 6.1 -21.95 6.05 -22.0 5.85 -22.15 5.5 -22.45 5.45 -22.5 5.3 -22.55 4.6 -22.8 4.55 -22.8 Q4.4 -22.75 3.95 -22.8 L3.9 -22.8 Q3.65 -23.05 3.15 -23.05 L3.0 -23.1 2.95 -23.1 2.95 -23.15 2.85 -23.2 2.6 -23.2 2.6 -23.25 1.6 -23.4 -0.5 -23.8 -1.05 -23.8 0.6 -23.3 Q1.15 -23.15 1.55 -22.95 L1.9 -22.8 2.2 -22.65 2.2 -22.55 Q2.05 -22.45 1.75 -22.45 L1.15 -22.45 Q1.75 -22.4 2.15 -22.1 L2.35 -22.05 Q2.4 -21.9 2.5 -21.9 L2.55 -21.9 2.65 -21.6 2.7 -21.5 3.0 -20.5 3.0 -20.4 Q3.0 -20.35 3.1 -20.05 L3.3 -19.7 3.35 -19.5 Q3.45 -19.25 3.55 -19.2 3.45 -19.05 3.45 -19.0 L3.3 -19.1 Q3.15 -19.3 3.1 -19.3 L3.1 -19.25 M-1.05 -23.8 L-1.05 -23.8 M11.2 -18.3 L11.2 -18.35 11.2 -18.3 M11.75 -17.7 L11.7 -17.7 11.65 -17.75 11.75 -17.7 M3.55 -30.0 L3.55 -30.0 Q6.15 -28.55 7.1 -27.8 7.8 -27.25 8.0 -26.75 L8.05 -26.7 8.05 -26.45 Q7.95 -26.35 7.85 -26.35 L7.7 -26.65 Q6.35 -26.95 5.15 -27.35 L5.05 -27.35 5.2 -27.3 Q6.55 -26.35 7.1 -25.75 7.35 -25.4 7.4 -25.1 7.55 -24.85 7.7 -24.8 L7.75 -24.75 7.85 -24.6 8.0 -24.4 Q8.05 -24.4 8.15 -24.5 L8.25 -24.6 8.3 -24.7 8.55 -24.95 Q8.95 -25.3 9.2 -25.45 L9.15 -25.5 9.0 -25.7 9.05 -25.75 9.15 -25.7 9.45 -25.65 9.7 -25.7 10.15 -25.7 10.2 -25.75 10.25 -25.7 10.25 -25.75 Q10.35 -25.9 10.65 -26.15 L10.85 -26.3 10.75 -26.4 10.75 -26.55 10.9 -26.5 11.0 -26.45 Q11.15 -26.4 11.25 -26.4 L11.3 -26.4 Q11.4 -26.4 11.45 -26.4 L11.8 -26.35 Q11.65 -26.55 11.6 -26.75 L11.55 -26.95 Q11.55 -27.15 10.95 -27.45 10.6 -27.65 10.35 -27.7 L9.0 -28.3 6.4 -29.45 6.7 -29.2 Q6.8 -29.05 6.85 -28.9 L6.8 -28.9 Q6.55 -28.9 5.85 -29.15 5.35 -29.3 3.55 -30.0 M11.7 -27.1 L11.65 -27.1 11.7 -27.05 11.8 -26.75 11.8 -26.65 11.9 -26.35 11.95 -26.25 12.35 -26.25 12.55 -26.3 12.65 -26.3 12.75 -26.25 12.7 -26.25 12.55 -26.4 11.7 -27.1 M11.8 -26.25 L11.2 -26.3 11.15 -26.25 11.0 -26.25 Q10.95 -26.1 10.7 -25.95 L10.35 -25.6 10.3 -25.6 Q10.4 -25.45 10.5 -25.1 L10.65 -24.4 Q10.7 -24.4 10.7 -24.35 L10.85 -24.35 11.3 -24.5 11.55 -24.6 11.8 -24.65 11.9 -24.65 11.95 -24.8 Q11.95 -24.9 12.0 -24.95 11.95 -25.15 11.95 -25.4 L11.8 -26.2 11.8 -26.25 M12.15 -25.75 Q12.15 -25.65 12.3 -25.55 L12.75 -25.35 13.1 -25.2 Q13.0 -25.3 12.8 -25.7 12.55 -26.05 12.25 -26.05 L12.15 -25.85 12.15 -25.75 M12.9 -24.8 Q12.85 -24.65 12.8 -24.45 L13.0 -24.35 13.3 -24.25 Q13.35 -24.4 13.3 -24.55 13.25 -24.6 13.15 -24.85 L13.0 -25.0 12.55 -25.2 12.9 -24.8 M13.45 -25.85 L13.45 -25.9 13.4 -25.95 13.45 -25.85 M13.4 -23.95 L13.4 -23.95 M13.2 -23.6 L13.3 -23.6 13.25 -23.65 12.7 -24.0 12.1 -24.45 12.0 -24.45 11.45 -24.35 11.05 -24.2 11.1 -24.2 Q11.8 -23.8 12.05 -23.55 L12.1 -23.5 12.2 -23.45 Q12.35 -23.3 12.45 -23.15 L12.85 -23.45 13.2 -23.6 M12.2 -22.95 L12.2 -23.0 12.05 -23.2 11.95 -23.35 11.55 -23.7 11.0 -24.1 10.8 -24.05 Q10.65 -24.0 10.7 -23.9 10.75 -23.85 10.7 -23.85 L10.65 -23.4 10.6 -23.15 10.55 -23.0 10.4 -22.5 Q10.45 -22.4 10.6 -22.3 10.85 -22.2 11.15 -22.05 L11.35 -22.0 11.4 -21.95 11.6 -21.9 11.65 -21.95 11.7 -21.95 11.75 -22.05 12.15 -22.75 12.15 -22.8 12.2 -22.85 12.25 -22.9 12.25 -22.95 12.2 -22.95 M13.55 -18.55 L13.65 -18.65 13.65 -18.7 Q13.65 -18.8 13.85 -19.05 14.05 -19.35 14.1 -19.4 L14.35 -19.75 Q14.55 -20.0 14.95 -19.95 L15.0 -19.85 15.05 -19.85 Q15.15 -19.8 15.2 -19.8 L15.55 -19.55 15.95 -19.3 16.9 -18.65 17.45 -18.35 17.7 -17.95 17.8 -17.8 18.25 -17.25 18.45 -16.95 18.5 -16.9 18.75 -16.55 18.75 -16.5 19.05 -15.15 18.95 -15.0 18.55 -14.35 18.7 -14.0 18.9 -13.5 19.05 -13.05 19.15 -12.7 19.1 -12.65 19.1 -12.6 Q19.05 -12.5 18.95 -12.5 18.6 -12.8 18.35 -12.85 L18.2 -12.9 18.0 -12.9 17.75 -12.85 17.45 -12.8 17.3 -12.75 17.2 -12.7 16.65 -13.1 16.3 -13.3 16.25 -13.35 16.2 -13.35 Q15.85 -13.55 15.6 -13.65 L15.5 -13.75 15.5 -14.0 15.45 -14.0 15.45 -14.1 15.45 -14.05 15.5 -14.05 15.5 -14.0 15.55 -14.0 Q15.65 -14.0 15.75 -14.25 L15.8 -14.1 15.85 -14.05 15.85 -13.95 16.05 -14.0 16.15 -14.0 16.5 -14.1 16.75 -14.15 16.5 -14.65 16.25 -15.35 15.55 -15.7 15.4 -15.95 Q15.6 -15.9 16.3 -15.5 L16.65 -15.6 Q16.75 -15.65 16.9 -15.6 16.6 -15.8 16.3 -16.75 L16.2 -16.75 16.2 -16.85 15.6 -16.9 15.6 -16.85 15.55 -16.85 15.5 -16.45 15.4 -16.0 14.75 -16.8 14.7 -16.9 14.85 -16.75 14.9 -16.65 15.25 -16.25 15.3 -16.5 15.4 -16.95 15.35 -17.0 15.2 -17.2 Q14.95 -17.4 14.95 -17.45 14.25 -18.05 14.25 -18.15 L13.8 -18.5 13.7 -18.3 13.65 -18.1 13.65 -18.05 13.6 -17.8 13.6 -17.75 13.5 -17.8 13.5 -18.25 13.55 -18.55 M15.75 -14.7 Q15.7 -14.9 15.5 -15.45 L15.45 -15.6 15.5 -15.55 15.8 -15.1 Q15.95 -14.8 15.9 -14.55 L15.8 -14.3 Q15.9 -14.55 15.9 -14.65 15.9 -14.7 15.85 -14.8 15.75 -14.8 15.75 -14.7 M13.9 -18.65 L13.9 -18.55 14.05 -18.45 14.4 -18.15 Q14.65 -18.0 14.95 -17.65 15.1 -17.45 15.3 -17.3 L15.3 -17.25 15.5 -17.1 Q15.6 -17.0 15.7 -17.0 L16.1 -17.0 16.2 -16.9 16.9 -16.95 Q17.3 -16.95 17.5 -16.85 L17.5 -17.0 17.4 -17.75 17.25 -18.05 17.3 -18.05 16.3 -18.7 15.35 -19.25 14.75 -19.65 14.7 -19.65 Q14.85 -19.55 15.0 -19.15 15.2 -18.75 15.15 -18.6 L15.15 -18.55 15.2 -18.55 15.2 -18.45 Q16.1 -17.35 16.3 -17.05 L16.3 -16.95 16.25 -16.95 16.15 -17.05 Q15.25 -18.15 15.05 -18.5 L14.95 -18.6 14.75 -18.7 14.4 -18.9 14.2 -19.05 14.15 -19.0 14.05 -18.9 13.9 -18.7 13.9 -18.65 M14.35 -19.3 L14.3 -19.2 14.25 -19.2 14.5 -19.05 14.95 -18.8 14.85 -19.15 14.65 -19.6 14.35 -19.3 M11.2 -19.8 L11.1 -19.6 11.4 -19.4 Q11.45 -19.4 11.5 -19.35 L11.5 -19.3 11.55 -19.3 11.6 -19.35 11.6 -19.3 11.8 -19.4 11.95 -19.55 12.1 -19.6 11.9 -19.85 Q11.7 -20.1 11.65 -20.25 L11.55 -20.15 11.4 -20.05 11.2 -19.8 M13.7 -17.0 L13.65 -17.1 13.8 -16.95 13.7 -17.0 M12.45 -15.1 L12.35 -15.1 12.4 -15.05 12.65 -14.95 13.15 -14.55 13.2 -14.55 13.65 -14.45 Q14.05 -14.35 14.25 -14.25 L14.25 -14.2 14.3 -14.25 Q14.35 -14.3 14.5 -14.35 L14.95 -14.45 15.0 -14.5 14.95 -14.5 14.75 -14.6 14.5 -14.75 14.15 -14.85 14.1 -14.85 12.9 -15.05 12.5 -15.15 12.45 -15.1 M11.8 -15.2 L12.4 -15.25 12.3 -15.3 12.65 -15.3 12.6 -15.25 13.45 -15.15 13.5 -15.15 14.1 -15.0 Q14.35 -15.0 14.6 -14.9 L15.1 -14.65 15.35 -14.5 15.35 -14.4 15.3 -14.25 15.1 -14.2 Q15.0 -14.2 15.0 -14.1 14.7 -14.05 14.55 -14.0 L14.5 -14.0 14.5 -13.95 Q14.3 -13.85 14.3 -13.75 L14.1 -13.55 13.8 -13.2 Q13.35 -13.1 12.75 -12.8 L12.45 -12.65 12.3 -12.7 11.6 -12.75 11.15 -12.9 11.1 -12.9 Q11.05 -13.0 11.05 -13.1 L11.05 -13.15 11.15 -13.35 11.25 -13.5 Q11.35 -13.65 11.35 -13.75 11.35 -13.85 11.45 -14.0 L11.55 -14.05 11.5 -13.85 Q11.55 -13.75 11.6 -13.75 L12.1 -13.75 Q12.3 -14.05 12.7 -14.4 12.7 -14.5 12.85 -14.55 12.65 -14.65 12.35 -14.8 12.15 -14.95 11.95 -15.0 L11.75 -15.0 Q11.7 -14.95 11.7 -14.8 L11.65 -14.65 11.75 -14.6 11.75 -14.5 Q11.75 -14.4 11.6 -14.2 L11.55 -14.45 11.5 -14.6 Q11.5 -14.65 11.55 -14.7 L11.6 -14.9 11.75 -15.2 11.8 -15.2 M12.95 -14.65 L12.95 -14.65 M13.6 -13.5 Q13.55 -13.7 13.9 -13.95 L13.95 -14.0 Q13.7 -14.15 13.0 -14.45 L12.8 -14.4 12.55 -14.05 12.2 -13.7 12.2 -13.45 12.35 -13.35 12.55 -13.1 12.85 -13.2 Q13.3 -13.3 13.55 -13.45 L13.6 -13.45 13.6 -13.5 M14.45 -15.05 L14.45 -15.05 M16.65 -16.25 L17.05 -15.65 17.3 -15.75 17.6 -15.75 17.6 -15.8 17.65 -15.85 17.55 -16.75 16.4 -16.75 16.65 -16.25 M17.5 -15.55 L17.2 -15.5 17.2 -15.45 17.05 -15.45 17.0 -15.4 17.1 -15.35 17.2 -15.25 Q17.75 -14.9 18.05 -14.55 L18.4 -14.3 18.35 -14.35 Q18.4 -14.55 18.45 -14.6 L18.6 -14.75 18.5 -14.85 Q18.15 -15.15 18.0 -15.3 17.95 -15.35 17.8 -15.55 L17.75 -15.55 17.7 -15.65 17.5 -15.55 M16.9 -15.45 L16.9 -15.5 16.85 -15.45 16.9 -15.45 M16.65 -15.4 Q16.5 -15.3 16.35 -15.3 L16.85 -14.3 16.85 -14.35 16.9 -14.3 Q16.9 -14.55 16.85 -15.45 L16.65 -15.4 M18.7 -13.55 L18.55 -13.9 18.0 -14.4 17.8 -14.6 17.05 -15.2 17.0 -15.2 17.0 -14.35 17.15 -14.1 Q17.5 -13.8 17.9 -13.5 18.25 -13.45 18.35 -13.35 L18.4 -13.35 Q18.4 -13.25 18.5 -13.2 L18.85 -13.0 18.8 -13.1 18.7 -13.5 18.7 -13.55 M21.6 -18.4 Q21.7 -18.4 22.25 -17.9 L22.3 -17.95 23.25 -17.15 24.2 -16.3 25.7 -15.05 25.8 -15.0 26.05 -13.95 26.2 -13.25 25.75 -12.8 25.6 -12.6 Q25.55 -12.55 25.55 -12.45 L25.5 -12.45 Q25.45 -12.05 25.5 -11.85 25.5 -11.5 25.55 -11.05 L25.55 -10.8 25.6 -10.3 25.5 -10.15 25.2 -9.95 Q24.75 -9.5 24.4 -9.05 L24.3 -8.95 23.55 -8.9 23.05 -8.9 21.95 -8.85 Q21.75 -9.2 21.55 -9.8 L21.35 -10.2 21.55 -10.4 22.0 -11.0 22.0 -11.1 21.95 -11.1 22.0 -11.15 Q22.05 -11.2 21.6 -11.6 L21.5 -11.75 20.95 -12.2 20.5 -12.55 20.35 -12.85 20.35 -13.0 Q20.25 -13.0 20.1 -13.6 L19.65 -15.4 Q19.5 -15.75 19.5 -15.95 L19.45 -16.05 19.35 -16.35 19.4 -16.4 19.4 -16.35 19.75 -16.65 19.95 -16.75 20.3 -17.1 Q20.8 -17.15 21.05 -16.65 L21.1 -16.6 21.15 -16.4 21.15 -16.2 21.2 -16.15 21.3 -15.75 21.35 -15.65 21.45 -15.6 Q21.5 -15.5 21.65 -15.35 21.95 -15.15 22.1 -15.05 L22.25 -14.95 22.3 -14.9 22.5 -14.9 22.7 -14.85 22.85 -14.9 22.9 -14.9 Q23.15 -15.0 23.2 -15.1 23.3 -15.2 23.3 -15.35 L23.3 -15.7 23.05 -16.15 21.5 -18.3 Q21.55 -18.4 21.6 -18.4 M17.45 -17.85 L17.45 -17.85 M18.15 -20.05 L18.15 -20.05 M20.3 -16.7 L20.2 -16.65 20.05 -16.6 19.8 -16.35 19.75 -16.25 19.7 -16.15 19.7 -16.05 19.85 -16.1 20.15 -16.2 20.35 -16.2 20.3 -16.65 20.3 -16.7 M19.8 -15.7 L19.8 -15.6 20.2 -15.4 20.25 -15.4 20.3 -15.6 20.35 -15.7 20.35 -15.8 20.4 -15.8 Q20.4 -15.9 20.45 -15.95 L20.45 -16.0 20.5 -16.0 20.4 -16.05 Q20.35 -16.0 20.1 -15.95 L19.85 -15.95 19.75 -15.9 19.8 -15.7 M18.6 -16.05 L18.6 -16.1 18.4 -16.45 Q17.9 -17.2 17.7 -17.55 L17.65 -17.4 17.6 -17.35 17.7 -16.95 17.8 -15.75 17.8 -15.7 17.85 -15.65 Q17.9 -15.55 18.2 -15.3 18.5 -15.05 18.65 -14.9 L18.7 -14.85 18.7 -14.9 18.8 -15.15 18.8 -15.25 Q18.75 -15.55 18.65 -15.95 L18.6 -16.05 M20.0 -15.25 L19.9 -15.3 20.1 -14.55 Q20.25 -13.95 20.4 -13.5 L20.65 -12.95 20.7 -13.0 20.7 -12.95 Q20.9 -12.95 21.1 -13.05 L21.45 -13.25 21.9 -13.4 Q22.15 -13.5 22.2 -13.5 22.25 -13.5 22.3 -13.55 22.35 -13.6 22.35 -13.65 L22.05 -13.95 21.6 -14.45 20.3 -15.1 Q20.25 -15.05 20.25 -15.1 L20.0 -15.25 M23.75 -15.0 L23.8 -14.8 23.8 -14.7 23.85 -14.65 23.8 -14.65 23.8 -14.6 23.85 -14.55 23.7 -14.4 23.65 -14.6 23.45 -14.55 23.2 -14.4 23.0 -14.5 22.3 -14.45 22.3 -14.4 21.9 -14.4 Q22.3 -13.95 22.45 -13.7 L22.45 -13.6 23.25 -13.4 23.8 -13.2 23.95 -13.25 24.1 -13.5 24.1 -13.45 23.9 -13.95 23.95 -13.9 24.1 -13.85 24.15 -13.85 24.25 -13.4 25.2 -13.55 25.6 -13.55 25.6 -13.6 25.8 -13.8 25.6 -14.25 25.5 -14.5 25.55 -14.5 25.5 -14.75 25.5 -14.8 23.8 -16.25 22.95 -17.0 22.9 -17.0 22.9 -16.95 Q23.55 -16.1 23.7 -15.65 23.85 -15.3 23.75 -15.0 M20.5 -16.45 L20.45 -16.2 20.8 -16.55 20.85 -16.55 20.8 -16.6 20.55 -16.75 20.5 -16.75 20.45 -16.75 20.5 -16.55 20.5 -16.45 M20.9 -16.1 L20.85 -16.2 20.8 -16.15 20.75 -16.05 Q20.7 -16.0 20.65 -16.0 L20.55 -15.9 20.55 -15.8 20.8 -15.75 20.9 -15.7 20.9 -15.75 20.95 -15.8 20.9 -15.85 20.95 -15.85 20.9 -16.1 M21.45 -14.7 L21.25 -15.15 21.05 -15.5 21.0 -15.6 20.55 -15.65 20.55 -15.4 20.45 -15.3 Q20.95 -15.05 21.45 -14.7 L21.45 -14.7 M21.4 -15.2 L21.35 -15.25 Q21.45 -15.05 21.65 -14.6 L21.95 -14.55 22.1 -14.55 22.05 -14.65 21.9 -14.75 21.7 -14.9 21.45 -15.2 21.4 -15.2 M10.05 -24.75 L10.05 -24.5 Q10.1 -24.35 10.3 -24.3 L10.3 -24.35 10.35 -24.3 10.45 -24.3 10.55 -24.2 10.55 -24.3 10.5 -24.3 Q10.3 -24.85 10.25 -25.2 L10.2 -25.15 10.1 -24.8 10.05 -24.75 M9.9 -25.5 L9.75 -25.5 9.25 -25.4 8.6 -24.65 8.3 -24.3 Q8.8 -24.5 9.1 -24.65 9.7 -24.9 10.0 -25.3 L10.0 -25.35 9.9 -25.45 9.9 -25.5 M8.2 -23.9 L8.25 -23.6 8.4 -23.6 8.95 -23.55 Q9.05 -23.7 9.35 -23.9 L9.75 -24.2 9.9 -24.3 Q9.85 -24.4 9.8 -24.55 L9.8 -24.65 Q9.35 -24.5 8.1 -24.1 L8.2 -23.9 M7.25 -23.7 L7.3 -23.75 7.15 -24.15 Q7.05 -24.25 6.75 -24.35 L6.7 -24.35 6.5 -24.25 6.45 -24.25 6.15 -24.05 6.2 -24.05 Q6.35 -24.0 6.5 -23.8 6.65 -23.6 6.75 -23.55 6.85 -23.5 7.05 -23.6 L7.25 -23.7 M7.35 -23.3 L7.35 -23.55 7.3 -23.55 7.15 -23.5 6.85 -23.35 6.85 -23.4 6.8 -23.3 6.65 -22.15 6.6 -22.05 6.6 -22.0 6.55 -21.85 6.55 -21.75 6.8 -21.45 6.8 -21.4 6.85 -21.55 Q7.0 -21.9 7.0 -22.4 7.2 -22.7 7.35 -23.1 L7.35 -23.3 M8.55 -23.35 L8.45 -23.35 8.35 -23.3 8.25 -23.1 Q8.25 -23.0 8.3 -22.85 L8.3 -22.8 8.35 -22.65 8.35 -22.55 8.45 -22.7 8.5 -22.9 8.65 -23.2 8.75 -23.3 8.8 -23.4 8.8 -23.45 8.55 -23.35 M5.95 -23.7 L5.85 -23.45 5.7 -23.05 5.55 -22.8 5.5 -22.7 5.65 -22.6 Q5.95 -22.45 6.25 -22.15 L6.35 -22.0 6.4 -22.05 6.35 -22.1 6.5 -22.55 6.55 -22.6 Q6.6 -23.2 6.65 -23.4 L6.7 -23.4 6.4 -23.6 6.1 -23.85 6.05 -23.9 5.95 -23.8 5.95 -23.7 M7.65 -21.3 L7.6 -21.35 7.0 -21.05 7.1 -20.85 7.15 -20.85 7.4 -21.05 7.65 -21.3 M8.35 -21.85 L8.25 -21.65 Q8.25 -21.6 8.3 -21.55 8.3 -21.45 8.45 -21.15 L8.6 -21.0 9.2 -21.0 Q9.2 -20.95 9.25 -20.95 L9.3 -21.0 9.35 -21.0 9.4 -21.05 9.45 -21.05 10.15 -22.15 10.25 -22.35 10.25 -22.65 10.3 -22.9 Q10.35 -23.35 10.45 -23.85 L10.35 -24.05 10.35 -24.1 Q10.25 -24.1 10.15 -24.15 10.1 -24.15 10.05 -24.2 L10.0 -24.2 9.95 -24.15 Q9.85 -23.95 8.9 -23.25 L8.85 -23.05 8.4 -22.05 8.35 -21.85 M10.65 -22.05 L10.25 -21.95 10.25 -21.9 Q10.15 -21.75 10.15 -21.85 L9.9 -21.5 9.55 -20.95 9.55 -20.9 9.6 -20.85 9.65 -20.75 9.65 -20.7 10.5 -21.0 10.8 -21.15 11.15 -21.45 11.35 -21.55 11.35 -21.65 11.25 -21.7 11.1 -21.85 11.05 -21.85 10.65 -22.05 M7.05 -20.25 L7.15 -20.25 7.25 -20.0 7.25 -19.95 7.05 -20.25 M5.65 -22.35 L5.55 -22.4 5.8 -22.25 5.65 -22.35 M7.2 -19.65 L7.25 -19.65 7.2 -19.6 7.15 -19.6 7.2 -19.65 M3.55 -18.75 L3.5 -18.75 3.45 -18.8 3.5 -18.8 3.55 -18.75 M4.0 -18.35 L3.95 -18.35 3.95 -18.4 4.0 -18.35 M10.3 -20.65 L10.25 -20.65 10.15 -20.55 10.0 -20.25 10.0 -20.15 9.9 -20.1 9.9 -20.05 Q10.1 -20.1 10.4 -20.3 L10.6 -20.4 Q10.5 -20.5 10.4 -20.75 L10.3 -20.65 M10.9 -19.95 L10.85 -19.75 10.9 -19.75 11.15 -19.95 11.15 -20.0 11.4 -20.3 11.25 -20.3 10.9 -20.3 Q10.95 -20.15 10.9 -19.95 M9.2 -20.5 L9.45 -20.65 9.55 -20.7 9.5 -20.7 9.45 -20.8 9.15 -20.85 9.0 -20.8 8.95 -20.75 Q8.85 -20.8 8.8 -20.7 L8.85 -20.65 Q8.9 -20.45 9.0 -20.45 L9.1 -20.45 9.2 -20.5 M9.75 -20.45 L9.8 -20.5 9.75 -20.5 9.75 -20.45 M8.75 -20.4 Q8.8 -20.45 8.85 -20.5 L8.8 -20.7 8.6 -20.85 8.45 -20.85 Q8.3 -20.8 8.3 -20.75 8.3 -20.7 8.45 -20.55 8.6 -20.35 8.65 -20.35 L8.75 -20.4 M6.85 -20.4 L6.75 -20.4 6.75 -20.45 6.85 -20.4 M7.2 -20.3 L7.2 -20.3 M11.25 -13.35 L11.2 -13.3 11.2 -13.2 11.6 -13.15 12.15 -13.05 12.1 -13.2 12.0 -13.45 11.9 -13.5 11.75 -13.6 11.5 -13.6 Q11.4 -13.6 11.25 -13.35 M22.35 -13.4 Q21.95 -13.35 21.55 -13.05 21.1 -12.8 20.85 -12.65 L21.05 -12.55 Q21.3 -12.35 22.0 -11.6 L22.05 -11.6 22.1 -11.5 22.9 -12.3 22.9 -12.35 22.95 -12.4 Q22.9 -12.5 22.9 -12.55 L22.9 -12.55 Q22.85 -12.9 22.35 -13.35 L22.35 -13.4 M23.05 -12.5 L23.6 -12.3 23.85 -12.15 23.8 -12.2 23.9 -12.15 23.9 -12.1 23.95 -12.25 24.05 -12.9 23.9 -13.0 23.8 -13.05 23.2 -13.2 22.9 -13.3 22.95 -13.15 22.9 -13.05 Q23.05 -12.75 23.05 -12.5 M22.55 -11.3 L22.9 -11.3 Q22.95 -11.25 23.0 -11.25 L23.25 -11.25 Q23.45 -11.2 23.65 -11.35 L23.7 -11.4 23.7 -11.45 23.75 -11.4 23.85 -11.65 23.85 -11.7 23.9 -12.0 23.9 -12.05 23.45 -12.1 23.4 -12.1 23.25 -12.15 23.2 -12.15 23.05 -12.1 23.0 -12.0 22.8 -11.7 Q22.7 -11.6 22.55 -11.5 L22.45 -11.4 22.4 -11.35 22.55 -11.3 M22.25 -10.8 L22.2 -10.8 22.2 -10.75 21.7 -10.15 Q21.75 -10.0 21.9 -9.65 L22.05 -9.35 22.4 -9.6 Q22.85 -9.85 22.9 -9.95 L22.95 -9.95 Q23.35 -10.25 23.45 -10.35 L23.55 -10.5 23.6 -10.65 23.8 -11.0 23.35 -11.05 22.55 -10.85 22.25 -10.8 M18.0 -13.3 L17.95 -13.35 16.95 -14.1 16.9 -14.1 16.95 -14.05 16.9 -14.05 Q16.85 -14.05 16.8 -14.05 L16.8 -14.0 16.45 -13.9 16.15 -13.85 16.1 -13.85 16.1 -13.8 16.2 -13.75 16.55 -13.5 Q17.0 -13.25 17.05 -13.25 L17.4 -13.05 Q17.4 -13.1 17.7 -13.2 L17.95 -13.25 18.0 -13.3 M23.3 -10.05 L23.15 -9.85 22.45 -9.15 23.15 -9.25 24.15 -9.35 24.35 -9.6 Q24.5 -9.85 24.75 -10.05 L25.1 -10.3 24.95 -10.45 24.9 -10.45 Q24.8 -10.55 24.8 -10.6 24.45 -10.7 24.05 -11.05 L23.9 -11.05 23.9 -11.0 23.8 -10.75 Q23.65 -10.35 23.55 -10.25 23.45 -10.1 23.4 -10.1 L23.35 -10.1 23.3 -10.05 M11.6 -13.7 L11.6 -13.7 M25.4 -13.4 L25.15 -13.35 24.2 -13.35 24.25 -13.2 24.55 -13.15 24.65 -13.0 24.8 -12.95 25.15 -12.8 25.35 -12.8 25.45 -12.95 25.75 -13.35 25.7 -13.4 25.4 -13.4 M25.15 -12.5 Q24.95 -12.65 24.7 -12.8 L24.35 -13.0 24.3 -13.0 Q24.3 -12.65 24.2 -12.3 L24.0 -11.65 24.0 -11.45 Q24.05 -11.4 24.0 -11.3 L24.05 -11.25 24.05 -11.2 Q24.3 -11.05 24.65 -10.9 L25.2 -10.65 25.1 -11.15 Q25.1 -11.75 25.15 -12.5 M24.35 -13.45 L24.35 -13.45 M24.0 -11.6 L23.95 -11.5 24.0 -11.55 24.0 -11.6" fill="#28a8d2" fill-rule="evenodd" stroke="none"/>
    <path d="M3.1 -19.25 L3.1 -19.3 Q3.15 -19.3 3.3 -19.1 L3.45 -19.0 Q3.45 -19.05 3.55 -19.2 L3.6 -19.25 3.55 -19.25 3.55 -19.3 3.35 -19.5 3.3 -19.7 3.1 -20.05 Q3.0 -20.35 3.0 -20.4 L3.0 -20.5 2.7 -21.5 2.65 -21.6 2.55 -21.9 2.5 -21.9 Q2.4 -21.9 2.35 -22.05 L2.15 -22.1 Q1.75 -22.4 1.15 -22.45 L1.75 -22.45 Q2.05 -22.45 2.2 -22.55 L2.2 -22.65 1.9 -22.8 1.55 -22.95 Q1.15 -23.15 0.6 -23.3 L-1.05 -23.8 -0.5 -23.8 1.6 -23.4 2.6 -23.25 2.6 -23.2 2.85 -23.2 2.95 -23.1 3.0 -23.1 3.15 -23.05 Q3.65 -23.05 3.9 -22.8 L3.95 -22.8 Q4.4 -22.75 4.55 -22.8 L4.6 -22.8 5.3 -22.55 5.45 -22.5 5.5 -22.45 5.85 -22.15 6.05 -22.0 6.1 -21.95 6.2 -21.8 6.35 -21.65 6.65 -21.2 Q6.85 -20.75 7.05 -20.6 L7.05 -20.5 7.25 -20.7 7.3 -20.65 7.7 -20.3 7.75 -20.35 Q7.85 -20.45 7.95 -20.65 8.05 -20.5 8.15 -20.45 L8.15 -20.35 8.1 -19.85 7.45 -19.85 7.35 -19.75 Q7.3 -19.8 7.25 -19.95 L7.25 -20.0 7.15 -20.25 7.05 -20.25 6.95 -20.3 6.85 -20.3 6.6 -20.6 Q6.6 -20.85 6.1 -21.1 L5.75 -21.2 5.5 -21.4 4.95 -21.45 Q5.05 -21.25 5.45 -20.85 L5.75 -20.55 5.7 -20.55 5.65 -20.5 5.65 -20.4 5.0 -20.35 Q5.0 -20.5 4.95 -20.4 4.85 -20.4 4.75 -20.3 L4.6 -20.75 4.35 -21.15 3.9 -21.45 Q3.7 -21.55 3.55 -21.65 3.4 -21.75 3.35 -21.75 L3.25 -21.75 3.2 -21.85 3.2 -21.75 3.1 -21.45 3.05 -21.05 Q3.5 -19.6 3.85 -19.2 3.5 -19.0 3.4 -18.85 L3.25 -19.0 Q3.1 -19.2 3.1 -19.25 M10.65 -19.0 L10.65 -19.05 10.85 -19.55 10.9 -19.6 10.9 -19.55 10.95 -19.55 11.0 -19.5 11.3 -19.25 11.35 -19.2 11.35 -19.15 11.4 -19.05 11.3 -18.85 11.15 -18.6 11.1 -18.6 11.1 -18.55 10.65 -19.0 M11.2 -18.3 L11.2 -18.35 11.3 -18.4 11.25 -18.45 11.25 -18.5 11.3 -18.5 11.35 -18.6 11.5 -18.95 11.5 -19.05 11.55 -19.05 11.7 -19.2 11.8 -19.2 Q12.05 -19.25 12.15 -19.3 L12.1 -19.15 12.05 -18.9 12.0 -18.75 11.95 -18.35 11.9 -18.3 11.85 -18.05 11.9 -18.0 11.2 -18.3 M3.55 -30.0 Q5.35 -29.3 5.85 -29.15 6.55 -28.9 6.8 -28.9 L6.85 -28.9 Q6.8 -29.05 6.7 -29.2 L6.4 -29.45 9.0 -28.3 10.35 -27.7 Q10.6 -27.65 10.95 -27.45 11.55 -27.15 11.55 -26.95 L11.6 -26.75 Q11.65 -26.55 11.8 -26.35 L11.45 -26.4 Q11.4 -26.4 11.3 -26.4 L11.25 -26.4 Q11.15 -26.4 11.0 -26.45 L10.9 -26.5 10.75 -26.55 10.75 -26.4 10.85 -26.3 10.65 -26.15 Q10.35 -25.9 10.25 -25.75 L10.25 -25.7 10.2 -25.75 10.15 -25.7 9.7 -25.7 9.45 -25.65 9.15 -25.7 9.05 -25.75 9.0 -25.7 9.15 -25.5 9.2 -25.45 Q8.95 -25.3 8.55 -24.95 L8.3 -24.7 8.25 -24.6 7.95 -24.6 Q7.85 -24.65 7.75 -24.75 L7.7 -24.8 Q7.55 -24.85 7.4 -25.1 7.35 -25.4 7.1 -25.75 6.55 -26.35 5.2 -27.3 5.15 -27.3 5.15 -27.35 6.35 -26.95 7.7 -26.65 L7.85 -26.35 Q7.95 -26.35 8.05 -26.45 L8.05 -26.7 8.05 -26.75 8.0 -26.75 Q7.8 -27.25 7.1 -27.8 6.15 -28.55 3.55 -30.0 M7.3 -28.4 L7.15 -28.35 7.05 -28.25 Q7.6 -27.9 8.35 -27.2 L8.65 -26.9 8.55 -26.95 8.7 -26.7 8.75 -26.65 8.75 -26.6 Q8.85 -26.5 8.9 -26.45 L8.9 -26.4 9.2 -26.1 9.35 -26.0 9.55 -25.9 10.25 -26.05 Q10.5 -26.1 10.55 -26.3 10.65 -26.5 10.35 -26.8 L10.25 -26.85 10.05 -27.0 10.05 -27.05 10.0 -27.1 9.3 -27.45 7.3 -28.4 M11.7 -27.05 L11.7 -27.1 12.55 -26.4 12.55 -26.3 12.35 -26.25 11.95 -26.25 11.9 -26.35 11.8 -26.65 11.8 -26.75 11.7 -27.05 M12.7 -26.25 L12.75 -26.25 12.65 -26.3 12.7 -26.3 12.7 -26.25 M12.0 -26.55 L12.1 -26.35 12.2 -26.3 12.3 -26.35 12.35 -26.4 12.1 -26.65 11.9 -26.8 12.0 -26.6 12.0 -26.55 M11.8 -26.2 L11.95 -25.4 Q11.95 -25.15 12.0 -24.95 11.95 -24.9 11.95 -24.8 L11.9 -24.65 11.8 -24.65 11.55 -24.6 11.3 -24.5 10.85 -24.35 10.7 -24.35 Q10.7 -24.4 10.65 -24.4 L10.5 -25.1 Q10.4 -25.45 10.3 -25.6 L10.35 -25.6 10.7 -25.95 Q10.95 -26.1 11.0 -26.25 L11.15 -26.25 11.2 -26.3 11.8 -26.25 11.8 -26.2 M13.25 -23.65 L13.2 -23.6 12.85 -23.45 12.45 -23.15 Q12.35 -23.3 12.2 -23.45 L12.1 -23.5 12.05 -23.55 Q11.8 -23.8 11.1 -24.2 L11.05 -24.2 11.45 -24.35 12.0 -24.45 12.1 -24.45 12.7 -24.0 13.25 -23.65 M12.6 -24.0 L12.1 -24.3 Q12.0 -24.35 11.7 -24.2 L11.5 -24.1 12.35 -23.5 Q12.5 -23.5 12.7 -23.6 L12.9 -23.75 12.85 -23.75 12.65 -23.9 12.6 -24.0 M11.4 -21.95 L11.35 -22.0 11.15 -22.05 Q10.85 -22.2 10.6 -22.3 10.45 -22.4 10.4 -22.5 L10.55 -23.0 10.6 -23.15 10.65 -23.4 10.7 -23.85 Q10.75 -23.85 10.7 -23.9 10.65 -24.0 10.8 -24.05 L11.0 -24.1 11.55 -23.7 11.95 -23.35 12.05 -23.2 12.2 -23.0 12.2 -22.95 12.2 -22.85 12.15 -22.8 12.15 -22.75 11.75 -22.05 Q11.6 -21.95 11.4 -21.95 M11.95 -22.85 Q12.05 -23.05 11.65 -23.35 L11.55 -23.45 Q11.1 -23.85 10.95 -23.55 10.9 -23.45 10.85 -23.05 L10.75 -22.5 11.35 -22.25 Q11.5 -22.15 11.75 -22.5 L11.95 -22.85 M13.6 -17.75 L13.6 -17.8 13.65 -18.05 13.65 -18.1 13.7 -18.3 13.8 -18.5 14.25 -18.15 Q14.25 -18.05 14.95 -17.45 14.95 -17.4 15.2 -17.2 L15.35 -17.0 15.4 -16.95 15.3 -16.5 15.25 -16.25 14.9 -16.65 Q15.05 -16.6 15.1 -16.65 L15.15 -16.75 15.2 -16.9 Q14.95 -17.35 14.1 -18.1 L13.85 -18.3 Q13.75 -18.0 14.15 -17.4 L14.05 -17.5 13.75 -17.65 13.7 -17.7 Q13.65 -17.75 13.6 -17.75 M15.4 -16.0 L15.5 -16.45 15.55 -16.85 15.6 -16.85 15.6 -16.9 16.2 -16.85 16.2 -16.75 16.3 -16.75 Q16.6 -15.8 16.9 -15.6 16.75 -15.65 16.65 -15.6 L16.3 -15.5 Q15.6 -15.9 15.4 -15.95 L15.4 -16.0 M15.55 -15.7 L16.25 -15.35 16.5 -14.65 16.75 -14.15 16.5 -14.1 16.15 -14.0 16.05 -14.0 15.85 -13.95 15.85 -14.05 15.8 -14.1 15.75 -14.25 15.75 -14.3 15.8 -14.3 15.9 -14.55 Q15.95 -14.8 15.8 -15.1 L15.5 -15.55 Q15.55 -15.55 15.55 -15.6 L15.55 -15.7 M15.15 -18.6 Q15.2 -18.75 15.0 -19.15 14.85 -19.55 14.7 -19.65 L14.75 -19.65 15.35 -19.25 16.3 -18.7 17.3 -18.05 17.25 -18.05 17.4 -17.75 17.5 -17.0 17.5 -16.85 Q17.3 -16.95 16.9 -16.95 L16.2 -16.9 16.1 -17.0 15.7 -17.0 Q15.6 -17.0 15.5 -17.1 L15.3 -17.25 15.3 -17.3 Q15.1 -17.45 14.95 -17.65 14.65 -18.0 14.4 -18.15 L14.05 -18.45 13.9 -18.55 13.9 -18.65 13.95 -18.6 14.0 -18.65 14.45 -18.3 15.6 -17.25 15.6 -17.3 15.7 -17.35 15.35 -17.9 Q14.95 -18.5 14.2 -18.9 L14.2 -18.95 Q14.2 -19.05 14.2 -19.0 L14.15 -19.0 14.2 -19.05 14.4 -18.9 14.75 -18.7 14.95 -18.6 15.05 -18.5 Q15.25 -18.15 16.15 -17.05 L16.25 -16.95 16.3 -16.95 16.3 -17.05 Q16.1 -17.35 15.2 -18.45 L15.2 -18.55 15.15 -18.55 15.15 -18.6 M14.65 -19.6 L14.85 -19.15 14.95 -18.8 14.5 -19.05 14.25 -19.2 14.3 -19.2 14.35 -19.3 14.6 -19.05 14.9 -18.9 14.75 -19.25 Q14.65 -19.5 14.65 -19.6 M15.25 -19.2 L15.25 -19.2 M15.55 -19.0 L15.3 -19.0 15.45 -18.65 15.9 -18.7 16.0 -18.7 15.95 -18.75 15.55 -18.95 15.55 -19.0 M16.2 -18.1 L16.05 -18.0 15.85 -17.9 Q16.1 -17.35 16.35 -17.15 16.5 -17.1 16.9 -17.05 17.3 -16.95 17.35 -17.1 L17.35 -17.2 Q17.35 -17.3 17.25 -17.55 L17.1 -17.85 Q17.0 -17.9 16.8 -17.95 16.3 -18.15 16.2 -18.1 M11.2 -19.8 L11.3 -19.7 Q11.45 -19.6 11.7 -19.5 L11.95 -19.7 11.7 -20.0 11.55 -20.15 11.65 -20.25 Q11.7 -20.1 11.9 -19.85 L12.1 -19.6 11.95 -19.55 11.8 -19.4 11.6 -19.3 11.6 -19.35 11.55 -19.3 11.5 -19.3 11.5 -19.35 Q11.45 -19.4 11.4 -19.4 L11.1 -19.6 11.2 -19.8 M11.85 -19.05 Q11.7 -19.0 11.6 -18.9 L11.5 -18.7 11.45 -18.65 11.45 -18.55 Q11.5 -18.5 11.8 -18.4 L11.85 -18.45 11.9 -18.75 11.9 -19.1 11.85 -19.05 M10.45 -17.3 L10.3 -17.45 Q10.1 -17.65 10.1 -17.7 10.1 -17.75 10.15 -17.8 L10.2 -17.8 Q10.75 -17.85 11.0 -17.7 11.35 -17.55 11.65 -17.5 L11.7 -17.4 11.6 -16.9 Q11.3 -17.1 11.1 -17.1 L11.05 -17.1 10.95 -17.25 10.8 -17.25 10.7 -17.25 10.45 -17.3 M11.6 -16.15 L11.7 -16.1 Q11.65 -15.9 11.65 -15.8 L10.75 -15.8 10.65 -15.85 10.6 -15.85 10.5 -16.2 10.35 -16.55 10.9 -16.65 10.95 -16.55 11.2 -16.3 11.5 -16.3 Q11.55 -16.2 11.6 -16.15 M12.85 -16.4 L12.8 -16.55 Q12.7 -16.65 12.6 -16.7 12.8 -16.95 13.0 -16.9 13.15 -16.85 13.15 -16.7 13.15 -16.55 12.85 -16.4 M12.4 -15.05 L12.45 -15.1 12.5 -15.15 12.9 -15.05 14.1 -14.85 14.15 -14.85 14.5 -14.75 14.75 -14.6 14.95 -14.5 14.95 -14.45 14.5 -14.35 Q14.35 -14.3 14.3 -14.25 L14.25 -14.2 14.25 -14.25 Q14.05 -14.35 13.65 -14.45 L13.2 -14.55 13.15 -14.55 12.65 -14.95 12.4 -15.05 M11.6 -14.2 Q11.75 -14.4 11.75 -14.5 L11.75 -14.6 11.7 -14.75 11.7 -14.8 Q11.7 -14.95 11.75 -15.0 L11.95 -15.0 Q12.15 -14.95 12.35 -14.8 12.65 -14.65 12.85 -14.55 12.7 -14.5 12.7 -14.4 12.3 -14.05 12.1 -13.75 L11.6 -13.75 Q11.55 -13.75 11.5 -13.85 L11.55 -14.05 11.6 -14.2 M11.9 -14.6 L11.95 -14.4 Q11.9 -14.2 11.75 -14.0 L11.65 -13.95 11.7 -13.85 Q11.75 -13.8 11.9 -13.8 12.0 -13.8 12.1 -13.95 12.25 -14.15 12.5 -14.55 L12.55 -14.55 12.25 -14.7 Q12.0 -14.85 11.9 -14.9 L11.9 -14.6 M13.55 -13.45 Q13.3 -13.3 12.85 -13.2 L12.55 -13.1 12.35 -13.35 12.2 -13.45 12.2 -13.7 12.55 -14.05 12.8 -14.4 13.0 -14.45 Q13.7 -14.15 13.95 -14.0 L13.9 -13.95 Q13.55 -13.7 13.6 -13.5 L13.55 -13.45 M12.85 -14.25 L12.95 -14.2 13.15 -13.95 13.4 -13.75 13.5 -13.9 13.65 -14.05 13.3 -14.2 12.95 -14.25 12.85 -14.25 M14.45 -14.5 Q14.55 -14.55 14.6 -14.6 14.5 -14.7 13.8 -14.8 L12.85 -15.0 Q13.05 -14.8 13.7 -14.65 14.25 -14.5 14.45 -14.5 M16.05 -16.7 L15.75 -16.7 15.6 -16.1 Q15.6 -15.95 15.65 -15.95 15.65 -15.9 15.75 -15.9 L15.8 -15.9 15.9 -16.3 Q16.05 -16.65 16.05 -16.7 M16.25 -16.45 L16.15 -16.1 Q16.05 -15.85 16.15 -15.75 16.3 -15.65 16.4 -15.7 L16.5 -15.75 Q16.6 -15.8 16.5 -16.05 16.45 -16.25 16.25 -16.45 M16.75 -16.65 L16.55 -16.6 Q16.6 -16.5 16.8 -16.2 L17.05 -15.85 Q17.1 -15.85 17.2 -15.9 L17.4 -16.0 Q17.45 -16.05 17.4 -16.25 17.4 -16.5 17.25 -16.6 L16.75 -16.65 M16.65 -16.25 L16.4 -16.75 17.55 -16.75 17.65 -15.85 17.6 -15.8 17.6 -15.75 17.3 -15.75 17.05 -15.65 16.65 -16.25 M15.75 -15.5 L15.75 -15.5 M17.5 -15.55 L17.7 -15.65 17.75 -15.55 17.8 -15.55 Q17.95 -15.35 18.0 -15.3 18.15 -15.15 18.5 -14.85 L18.6 -14.75 18.45 -14.6 Q18.4 -14.55 18.35 -14.35 L18.4 -14.3 18.05 -14.55 Q17.75 -14.9 17.2 -15.25 L17.1 -15.35 17.0 -15.4 17.05 -15.45 17.2 -15.45 17.2 -15.35 17.3 -15.35 Q17.45 -15.2 17.95 -14.8 L18.35 -14.5 18.35 -14.6 Q18.4 -14.75 18.3 -14.85 L18.1 -15.05 17.95 -15.25 Q17.9 -15.2 17.85 -15.25 L17.65 -15.45 17.7 -15.45 17.6 -15.5 17.65 -15.5 17.65 -15.55 17.5 -15.55 M16.65 -15.25 L16.5 -15.2 16.65 -14.8 16.75 -14.6 16.8 -14.55 16.8 -15.25 16.65 -15.25 M16.65 -15.4 L16.85 -15.45 Q16.9 -14.55 16.9 -14.3 L16.85 -14.35 16.85 -14.3 16.35 -15.3 Q16.5 -15.3 16.65 -15.4 M18.8 -13.1 L18.85 -13.0 18.5 -13.2 Q18.4 -13.25 18.4 -13.35 L18.35 -13.35 Q18.25 -13.45 17.9 -13.5 17.5 -13.8 17.15 -14.1 L17.0 -14.35 17.0 -15.2 17.05 -15.2 17.8 -14.6 18.0 -14.4 18.55 -13.9 18.7 -13.55 18.65 -13.45 18.55 -13.3 18.65 -13.2 18.8 -13.1 M16.0 -15.15 L15.95 -15.1 Q16.05 -14.9 16.0 -14.75 L15.95 -14.2 Q16.1 -14.15 16.3 -14.2 L16.6 -14.25 16.5 -14.5 Q16.45 -14.5 16.4 -14.6 L16.35 -14.85 16.3 -15.0 16.2 -15.2 16.0 -15.15 M17.2 -14.75 Q17.2 -14.6 17.15 -14.45 17.2 -14.3 17.4 -14.1 L17.8 -13.75 17.9 -13.95 Q18.0 -14.15 17.95 -14.3 L17.85 -14.3 17.7 -14.5 17.65 -14.55 17.25 -14.8 17.2 -14.75 M19.75 -16.25 L19.8 -16.35 20.05 -16.6 20.2 -16.65 20.3 -16.7 20.3 -16.65 20.35 -16.2 20.15 -16.2 19.85 -16.1 19.8 -16.15 Q19.75 -16.2 19.75 -16.25 M19.75 -15.9 L19.85 -15.95 20.1 -15.95 Q20.35 -16.0 20.4 -16.05 L20.5 -16.0 20.45 -16.0 20.45 -15.95 Q20.4 -15.9 20.4 -15.8 L20.35 -15.8 20.35 -15.7 20.3 -15.6 20.25 -15.4 20.2 -15.4 19.8 -15.6 19.8 -15.7 Q20.05 -15.6 20.15 -15.6 20.25 -15.6 20.25 -15.65 20.3 -15.7 20.3 -15.8 20.05 -15.9 19.95 -15.9 L19.75 -15.9 M18.8 -15.15 L18.7 -14.9 18.7 -14.85 18.65 -14.9 Q18.5 -15.05 18.2 -15.3 17.9 -15.55 17.85 -15.65 L17.8 -15.7 17.8 -15.75 17.7 -16.95 17.6 -17.35 17.65 -17.4 17.7 -17.55 Q17.9 -17.2 18.4 -16.45 L18.6 -16.1 18.6 -16.05 18.7 -15.6 Q18.8 -15.35 18.8 -15.15 M17.9 -16.1 Q17.95 -15.8 18.0 -15.8 L18.35 -15.55 18.45 -15.6 Q18.4 -16.05 18.35 -16.35 L18.3 -16.35 Q18.0 -16.65 17.8 -16.9 L17.9 -16.1 M20.0 -15.25 L20.25 -15.1 Q20.25 -15.05 20.3 -15.1 L21.6 -14.45 22.05 -13.95 22.35 -13.65 Q22.35 -13.6 22.3 -13.55 22.25 -13.5 22.2 -13.5 22.15 -13.5 21.9 -13.4 L21.45 -13.25 21.1 -13.05 Q20.9 -12.95 20.7 -12.95 L20.7 -13.0 20.65 -12.95 20.4 -13.5 Q20.25 -13.95 20.1 -14.55 L19.9 -15.3 20.0 -15.25 M20.2 -14.75 L20.3 -14.35 Q20.5 -13.75 20.75 -13.55 20.8 -13.5 20.9 -13.5 L21.3 -13.5 Q21.65 -13.55 21.75 -13.7 21.8 -13.8 21.75 -13.95 L21.7 -14.05 21.0 -14.65 20.4 -14.95 Q20.35 -14.95 20.25 -14.9 L20.2 -14.95 20.2 -14.75 M23.75 -15.0 Q23.85 -15.3 23.7 -15.65 23.55 -16.1 22.9 -16.95 L22.9 -17.0 22.95 -17.0 23.8 -16.25 25.5 -14.8 25.5 -14.75 25.55 -14.5 25.5 -14.5 25.6 -14.25 25.8 -13.8 25.6 -13.6 25.6 -13.55 25.2 -13.55 24.25 -13.4 24.15 -13.85 24.1 -13.85 23.95 -13.9 23.9 -13.95 24.1 -13.45 24.1 -13.5 23.95 -13.25 23.8 -13.2 23.25 -13.4 22.45 -13.6 22.45 -13.7 Q22.3 -13.95 21.9 -14.4 L22.3 -14.4 22.3 -14.45 23.0 -14.5 23.2 -14.4 23.45 -14.55 23.65 -14.6 23.7 -14.4 23.85 -14.55 23.8 -14.6 23.8 -14.65 23.85 -14.65 23.8 -14.7 23.8 -14.8 23.75 -15.0 M20.5 -16.45 L20.5 -16.4 Q20.55 -16.4 20.6 -16.45 L20.65 -16.5 20.7 -16.6 20.6 -16.65 20.55 -16.75 20.8 -16.6 20.85 -16.55 20.8 -16.55 20.45 -16.2 20.5 -16.45 M20.65 -16.0 L20.65 -15.95 20.8 -15.95 20.8 -16.1 20.9 -16.1 20.95 -15.85 20.9 -15.85 20.95 -15.8 20.9 -15.75 20.9 -15.7 20.8 -15.75 20.55 -15.8 20.55 -15.9 20.65 -16.0 M21.45 -14.7 Q20.95 -15.05 20.45 -15.3 L20.55 -15.4 20.55 -15.65 21.0 -15.6 21.05 -15.5 21.25 -15.15 21.45 -14.7 M21.0 -15.05 Q21.2 -14.95 21.25 -14.95 L21.1 -15.3 Q21.05 -15.1 21.0 -15.05 M21.45 -15.2 L21.7 -14.9 21.9 -14.75 22.05 -14.65 22.1 -14.55 21.95 -14.55 21.65 -14.6 Q21.45 -15.05 21.35 -15.25 L21.4 -15.2 21.45 -15.1 21.45 -15.2 M20.55 -15.3 Q20.6 -15.25 20.75 -15.15 L20.8 -15.15 20.85 -15.2 Q20.9 -15.35 20.85 -15.45 L20.6 -15.5 20.6 -15.35 20.55 -15.3 M8.9 -25.65 L8.85 -25.7 8.6 -25.8 8.3 -25.85 8.3 -25.9 8.1 -25.95 8.05 -25.95 7.9 -26.0 7.7 -26.15 6.95 -26.55 6.85 -26.55 Q6.8 -26.55 6.75 -26.45 6.7 -26.3 6.75 -26.4 7.25 -26.05 7.6 -25.7 L7.65 -25.6 7.8 -25.4 7.85 -25.35 8.05 -25.1 Q8.05 -24.9 8.1 -24.8 L8.5 -24.9 8.85 -25.25 8.9 -25.25 9.0 -25.45 8.9 -25.65 M10.65 -27.0 L10.75 -26.95 10.85 -26.95 Q11.05 -26.7 11.1 -26.65 11.2 -26.6 11.55 -26.55 11.45 -26.65 11.45 -26.85 L11.4 -26.95 11.4 -27.0 11.35 -27.0 Q11.4 -26.95 11.3 -27.0 L11.2 -27.1 11.1 -27.15 9.9 -27.7 9.75 -27.75 9.5 -27.85 Q9.3 -27.95 9.25 -27.95 L9.2 -27.95 9.45 -27.75 9.55 -27.65 9.95 -27.3 10.05 -27.25 10.1 -27.25 Q10.35 -27.1 10.65 -27.0 M22.35 -14.25 L22.3 -14.2 22.55 -13.9 22.65 -13.75 22.75 -13.7 Q22.9 -13.55 23.45 -13.45 L23.95 -13.4 Q24.05 -13.55 23.9 -13.9 L23.9 -13.95 Q23.8 -14.0 23.75 -14.05 L23.75 -14.2 23.7 -14.25 Q23.65 -14.3 23.6 -14.3 L23.0 -14.3 22.35 -14.25 M9.9 -25.5 L9.9 -25.45 10.0 -25.35 10.0 -25.3 Q9.7 -24.9 9.1 -24.65 8.8 -24.5 8.3 -24.3 L8.6 -24.65 9.25 -25.4 9.75 -25.5 9.9 -25.5 M10.05 -24.75 L10.1 -24.8 10.2 -25.15 10.25 -25.2 Q10.3 -24.85 10.5 -24.3 L10.55 -24.3 10.55 -24.2 10.45 -24.3 10.35 -24.3 10.3 -24.35 10.3 -24.3 Q10.1 -24.35 10.05 -24.5 L10.05 -24.75 M10.95 -25.95 Q10.65 -25.8 10.55 -25.5 10.5 -25.45 10.85 -24.6 10.9 -24.55 11.75 -24.8 12.05 -25.8 11.45 -26.0 11.2 -26.1 10.95 -25.95 M10.15 -24.75 Q10.1 -24.65 10.15 -24.55 L10.25 -24.45 10.25 -24.4 10.35 -24.4 10.25 -24.8 10.2 -24.9 10.15 -24.75 M8.2 -23.9 L8.1 -24.1 Q9.35 -24.5 9.8 -24.65 L9.8 -24.55 Q9.85 -24.4 9.9 -24.3 L9.75 -24.2 9.35 -23.9 Q9.05 -23.7 8.95 -23.55 L8.4 -23.6 8.25 -23.6 8.2 -23.9 M8.3 -24.0 Q8.25 -23.95 8.25 -23.85 8.3 -23.8 8.35 -23.75 L8.5 -23.75 8.5 -23.8 8.45 -23.9 8.45 -23.95 8.4 -24.05 8.3 -24.0 M7.25 -23.7 L7.05 -23.6 Q6.85 -23.5 6.75 -23.55 6.65 -23.6 6.5 -23.8 6.35 -24.0 6.2 -24.05 L6.15 -24.05 6.45 -24.25 6.5 -24.25 6.7 -24.35 6.75 -24.35 Q7.05 -24.25 7.15 -24.15 L7.3 -23.75 7.25 -23.7 M6.8 -21.45 L6.55 -21.75 6.55 -21.85 6.6 -22.0 6.6 -22.05 6.65 -22.15 6.8 -23.3 6.85 -23.4 6.85 -23.35 7.15 -23.5 7.3 -23.55 7.35 -23.55 7.35 -23.3 7.3 -23.3 7.1 -23.2 Q7.0 -22.95 6.95 -22.65 L6.9 -22.45 6.8 -21.95 6.8 -21.9 Q6.75 -21.7 6.8 -21.45 M8.25 -23.1 L8.3 -22.9 8.3 -22.8 8.3 -22.85 Q8.25 -23.0 8.25 -23.1 M8.35 -22.65 L8.5 -23.1 8.55 -23.1 Q8.6 -23.25 8.65 -23.35 L8.55 -23.35 8.8 -23.45 8.8 -23.4 8.75 -23.3 8.65 -23.2 8.5 -22.9 8.45 -22.7 8.35 -22.55 8.35 -22.65 M7.05 -24.05 L6.95 -24.2 6.75 -24.1 Q6.6 -24.0 6.5 -23.95 L6.6 -23.8 Q6.8 -23.65 6.85 -23.65 L7.0 -23.7 7.05 -23.7 7.05 -23.75 7.15 -23.95 7.05 -24.05 M5.65 -22.6 L5.5 -22.7 5.55 -22.8 5.7 -23.05 5.85 -23.45 5.95 -23.7 6.1 -23.85 6.4 -23.6 6.7 -23.4 6.65 -23.4 Q6.6 -23.2 6.55 -22.6 L6.5 -22.55 6.35 -22.1 6.4 -22.05 6.35 -22.0 6.25 -22.15 Q6.25 -22.35 6.4 -22.7 6.5 -23.1 6.3 -23.2 L6.1 -23.25 5.9 -22.85 Q5.8 -22.65 5.65 -22.6 M7.65 -21.3 L7.4 -21.05 7.15 -20.85 7.1 -20.85 7.0 -21.05 7.6 -21.35 7.65 -21.3 M8.5 -21.35 Q8.55 -21.15 8.6 -21.15 9.1 -20.95 9.5 -21.3 L9.7 -21.5 9.85 -21.8 Q9.9 -21.9 9.6 -22.5 L9.25 -23.2 8.75 -22.3 8.7 -22.1 8.4 -21.55 8.5 -21.35 M8.35 -21.85 L8.4 -22.05 8.85 -23.05 8.9 -23.25 Q9.85 -23.95 9.95 -24.15 L10.0 -24.2 10.05 -24.2 Q10.1 -24.15 10.15 -24.15 10.25 -24.1 10.35 -24.1 L10.35 -24.05 10.45 -23.85 Q10.35 -23.35 10.3 -22.9 L10.25 -22.65 10.25 -22.35 10.15 -22.15 9.45 -21.05 9.4 -21.05 9.35 -21.0 9.3 -21.0 9.25 -20.95 Q9.2 -20.95 9.2 -21.0 L8.6 -21.0 8.45 -21.15 Q8.3 -21.45 8.3 -21.55 8.25 -21.6 8.25 -21.65 L8.35 -21.85 M9.45 -24.35 Q9.2 -24.3 9.2 -24.25 9.15 -24.2 9.2 -24.05 L9.2 -23.95 Q9.55 -24.1 9.55 -24.15 L9.55 -24.4 9.45 -24.35 M8.9 -24.15 Q8.8 -24.15 8.7 -24.0 L8.7 -23.75 8.9 -23.85 8.9 -24.15 M9.75 -23.2 L9.95 -22.9 10.0 -22.95 Q10.1 -23.2 10.0 -23.5 9.9 -23.85 9.6 -23.5 L9.75 -23.2 M9.9 -21.3 Q9.8 -21.1 9.7 -21.05 L9.75 -20.9 Q9.85 -20.85 10.4 -21.15 10.6 -21.25 11.1 -21.6 10.4 -22.0 10.1 -21.65 L9.9 -21.3 M10.65 -22.05 L11.05 -21.85 11.1 -21.85 11.25 -21.7 11.35 -21.65 11.35 -21.55 11.15 -21.45 10.8 -21.15 10.5 -21.0 9.65 -20.7 9.65 -20.75 9.6 -20.85 9.55 -20.9 9.55 -20.95 9.9 -21.5 10.15 -21.85 Q10.15 -21.75 10.25 -21.9 L10.25 -21.95 10.65 -22.05 M5.35 -21.2 L5.4 -21.2 5.35 -21.15 5.35 -21.2 M7.1 -19.7 L7.2 -19.65 7.15 -19.6 7.1 -19.7 M4.65 -19.55 L4.65 -19.45 Q4.6 -19.4 4.45 -19.4 L4.65 -19.55 M3.6 -18.75 L3.55 -18.75 3.5 -18.8 3.55 -18.8 3.6 -18.75 M5.25 -18.75 L5.65 -18.75 5.7 -18.7 5.7 -18.65 5.65 -18.6 5.2 -18.5 5.1 -18.65 5.15 -18.7 5.25 -18.75 M4.8 -18.6 L4.8 -18.6 M5.55 -17.45 L6.1 -17.45 6.45 -17.35 7.45 -17.15 7.55 -17.15 7.7 -16.75 7.8 -16.55 7.8 -16.45 7.2 -16.4 Q7.05 -16.3 6.95 -16.3 6.65 -16.3 6.05 -16.65 5.75 -16.85 5.45 -17.1 5.5 -17.15 5.55 -17.3 L5.55 -17.45 M10.3 -20.65 L10.4 -20.75 Q10.5 -20.5 10.6 -20.4 L10.4 -20.3 Q10.1 -20.1 9.9 -20.05 L9.9 -20.1 10.0 -20.15 10.05 -20.15 10.2 -20.2 10.15 -20.2 10.25 -20.4 10.35 -20.45 10.3 -20.55 10.3 -20.65 M10.45 -20.3 L10.4 -20.35 10.3 -20.25 10.45 -20.3 M11.25 -20.3 L11.4 -20.3 11.15 -20.0 11.15 -19.95 10.9 -19.75 10.85 -19.75 10.9 -19.95 Q11.05 -20.0 11.15 -20.15 L11.25 -20.3 M8.95 -20.75 L9.0 -20.8 9.15 -20.85 9.45 -20.8 9.5 -20.7 9.55 -20.7 9.45 -20.65 9.2 -20.5 Q9.05 -20.6 9.0 -20.7 L8.95 -20.75 M9.15 -18.7 Q9.25 -18.75 9.3 -18.65 L9.4 -18.5 9.5 -18.4 Q9.5 -18.25 9.6 -17.9 L9.55 -17.9 Q9.25 -17.8 9.0 -17.8 8.95 -17.8 8.4 -18.05 L7.7 -18.3 7.65 -18.65 Q7.8 -18.7 7.9 -18.75 L8.4 -18.8 8.75 -18.75 9.15 -18.7 M11.15 -18.85 L11.2 -18.9 11.25 -19.1 Q11.3 -19.15 11.15 -19.3 L10.95 -19.5 10.9 -19.3 10.85 -19.2 10.8 -19.15 Q10.8 -19.0 10.9 -19.0 L11.15 -18.85 M6.85 -20.4 L6.75 -20.45 6.75 -20.4 6.85 -20.4 M7.2 -20.3 L7.2 -20.3 M6.45 -18.35 L6.45 -18.5 6.5 -18.55 7.0 -18.6 Q7.15 -18.55 7.2 -18.5 L7.1 -18.25 6.45 -18.35 M8.15 -16.95 Q7.95 -17.25 7.95 -17.45 7.95 -17.5 8.3 -17.75 8.7 -17.7 8.85 -17.6 8.9 -17.45 9.0 -17.4 L9.2 -17.35 9.7 -17.25 9.7 -17.2 Q9.65 -16.95 9.55 -16.85 9.4 -16.65 8.5 -16.6 8.35 -16.65 8.15 -16.95 M5.85 -15.95 L6.15 -16.05 6.35 -15.95 Q6.55 -15.85 6.65 -15.85 L6.55 -15.75 6.45 -15.7 Q6.4 -15.75 6.2 -15.8 L5.8 -15.9 5.85 -15.95 M8.3 -15.95 L8.85 -16.0 8.95 -16.0 8.45 -15.65 Q8.4 -15.7 8.05 -15.7 L8.05 -15.85 8.3 -15.95 M7.6 -14.95 L7.65 -14.95 7.85 -15.0 Q7.95 -14.95 8.1 -14.85 L8.4 -14.75 8.55 -14.7 8.65 -14.65 9.0 -14.75 9.2 -14.7 9.6 -14.65 9.55 -14.6 Q9.25 -14.45 9.1 -14.35 8.8 -14.25 7.75 -14.2 L7.45 -14.85 7.6 -14.95 M10.55 -14.7 L10.6 -14.7 10.65 -14.65 10.75 -14.65 10.55 -14.45 Q10.45 -14.55 10.45 -14.65 L10.55 -14.7 M11.5 -13.6 L11.75 -13.6 11.9 -13.5 12.0 -13.45 12.1 -13.2 12.15 -13.05 11.6 -13.15 11.2 -13.2 11.2 -13.3 11.25 -13.35 11.3 -13.4 11.8 -13.3 11.6 -13.45 Q11.5 -13.5 11.5 -13.55 L11.5 -13.6 M22.35 -13.4 L22.35 -13.35 Q22.85 -12.9 22.9 -12.55 L22.9 -12.55 Q22.9 -12.5 22.95 -12.4 L22.9 -12.35 22.9 -12.3 22.1 -11.5 22.05 -11.6 22.0 -11.6 Q21.3 -12.35 21.05 -12.55 L20.85 -12.65 Q21.1 -12.8 21.55 -13.05 21.95 -13.35 22.35 -13.4 M23.1 -12.9 Q23.15 -12.7 23.2 -12.65 L23.35 -12.55 23.4 -12.65 Q23.45 -12.85 23.4 -12.95 L23.25 -13.05 23.05 -13.1 23.1 -12.9 M23.05 -12.5 Q23.05 -12.75 22.9 -13.05 L22.95 -13.15 22.9 -13.3 23.2 -13.2 23.8 -13.05 23.9 -13.0 24.05 -12.9 23.95 -12.25 23.9 -12.1 23.9 -12.15 23.8 -12.2 23.85 -12.15 23.6 -12.3 23.05 -12.5 M22.05 -13.1 L21.25 -12.7 21.2 -12.65 21.65 -12.25 Q21.85 -12.0 22.05 -11.8 L22.4 -12.05 22.55 -12.2 Q22.8 -12.45 22.5 -12.8 22.25 -13.2 22.05 -13.1 M20.65 -13.3 L20.6 -13.35 20.6 -13.3 20.65 -13.3 M22.75 -11.5 Q23.05 -11.35 23.3 -11.4 23.55 -11.4 23.65 -11.5 L23.75 -11.9 Q23.35 -12.0 22.75 -11.55 L22.7 -11.5 22.75 -11.5 M22.45 -11.4 L22.55 -11.5 Q22.7 -11.6 22.8 -11.7 L23.0 -12.0 23.05 -12.1 23.2 -12.15 23.25 -12.15 23.4 -12.1 23.45 -12.1 23.9 -12.05 23.9 -12.0 23.85 -11.7 23.85 -11.65 23.75 -11.4 23.7 -11.45 23.7 -11.4 23.65 -11.35 Q23.45 -11.2 23.25 -11.25 L23.0 -11.25 Q22.95 -11.25 22.9 -11.3 L22.55 -11.3 22.45 -11.4 M22.2 -10.75 L22.25 -10.8 22.55 -10.85 23.35 -11.05 23.8 -11.0 23.6 -10.65 23.55 -10.5 23.45 -10.35 Q23.35 -10.25 22.95 -9.95 L22.9 -9.95 Q22.85 -9.85 22.4 -9.6 L22.05 -9.35 21.9 -9.65 Q21.75 -10.0 21.7 -10.15 L22.2 -10.75 M22.8 -10.75 L22.8 -10.45 22.85 -10.15 23.05 -10.35 23.15 -10.5 23.2 -10.55 23.15 -10.7 Q23.15 -10.75 23.15 -10.8 L22.95 -10.8 22.8 -10.75 M17.95 -13.35 L18.0 -13.3 17.95 -13.25 17.7 -13.2 Q17.4 -13.1 17.4 -13.05 L17.05 -13.25 Q17.0 -13.25 16.55 -13.5 L16.2 -13.75 16.1 -13.8 16.1 -13.85 16.15 -13.85 16.45 -13.9 16.8 -14.0 16.8 -14.05 Q16.85 -14.05 16.9 -14.05 L16.95 -14.05 16.9 -14.1 16.95 -14.1 17.95 -13.35 M21.85 -10.2 Q21.8 -10.1 21.85 -9.95 L22.05 -9.7 Q22.25 -9.75 22.3 -9.8 22.35 -9.85 22.3 -10.15 L22.2 -10.45 21.85 -10.2 M23.0 -9.45 Q23.45 -9.4 23.8 -9.5 L23.7 -9.8 23.6 -10.05 23.5 -9.85 23.45 -9.8 23.1 -9.5 23.0 -9.45 M23.35 -10.1 L23.4 -10.1 Q23.45 -10.1 23.55 -10.25 23.65 -10.35 23.8 -10.75 L23.9 -11.0 23.9 -11.05 24.05 -11.05 Q24.45 -10.7 24.8 -10.6 24.8 -10.55 24.9 -10.45 L24.95 -10.45 25.1 -10.3 24.75 -10.05 Q24.5 -9.85 24.35 -9.6 L24.15 -9.35 23.15 -9.25 22.45 -9.15 23.15 -9.85 23.3 -10.05 23.35 -10.1 M16.55 -13.7 Q17.35 -13.15 17.45 -13.4 17.25 -13.7 16.9 -13.8 16.65 -13.85 16.6 -13.75 L16.55 -13.7 M13.25 -13.55 L12.85 -13.9 12.6 -14.1 12.5 -13.95 12.35 -13.75 12.3 -13.65 12.65 -13.25 12.9 -13.35 13.25 -13.5 13.25 -13.55 M11.6 -13.7 L11.6 -13.7 M24.85 -14.65 L24.9 -14.6 24.85 -14.6 24.85 -14.65 M23.95 -15.9 Q24.05 -15.55 24.25 -15.05 L24.3 -14.95 24.25 -14.9 24.35 -14.75 24.35 -14.6 24.4 -14.45 24.35 -14.4 Q24.35 -14.3 24.3 -14.2 L24.4 -13.95 Q24.45 -13.8 24.55 -13.75 24.7 -13.6 25.15 -13.65 L25.5 -13.75 Q25.6 -13.85 25.5 -14.05 L25.45 -14.2 25.45 -14.25 25.5 -14.3 25.25 -14.65 24.9 -15.0 24.8 -15.15 23.95 -15.9 M25.4 -13.4 L25.7 -13.4 25.75 -13.35 25.45 -12.95 25.35 -12.8 25.15 -12.8 24.8 -12.95 24.65 -13.0 24.55 -13.15 24.25 -13.2 24.2 -13.35 25.15 -13.35 25.4 -13.4 M25.15 -12.5 Q25.1 -11.75 25.1 -11.15 L25.2 -10.65 24.65 -10.9 Q24.3 -11.05 24.05 -11.2 L24.05 -11.25 24.0 -11.3 Q24.05 -11.4 24.0 -11.45 L24.0 -11.65 24.2 -12.3 Q24.3 -12.65 24.3 -13.0 L24.35 -13.0 24.7 -12.8 Q24.95 -12.65 25.15 -12.5 M24.9 -13.1 Q25.3 -12.9 25.5 -13.2 L25.15 -13.25 25.15 -13.2 24.9 -13.1 M24.35 -13.45 L24.35 -13.45 M23.8 -12.8 L23.7 -12.85 23.6 -12.6 23.6 -12.5 23.8 -12.45 23.8 -12.8 M24.0 -11.6 L24.0 -11.55 23.95 -11.5 24.0 -11.6 M23.35 -10.7 L23.45 -10.85 23.3 -10.85 23.35 -10.7 M24.45 -11.2 L24.7 -11.1 25.05 -10.95 Q25.0 -11.15 25.0 -11.4 L25.0 -11.85 Q25.0 -12.35 24.6 -12.55 24.5 -12.6 24.4 -12.65 L24.3 -11.9 24.25 -11.35 Q24.3 -11.3 24.45 -11.2 M24.15 -10.75 L23.85 -10.45 23.85 -10.4 Q23.85 -10.3 23.95 -10.15 24.1 -9.85 24.1 -9.7 24.55 -10.1 24.85 -10.2 L24.85 -10.25 24.35 -10.6 24.15 -10.75" fill="#caf9ff" fill-rule="evenodd" stroke="none"/>
    <path d="M3.55 -19.2 Q3.45 -19.25 3.35 -19.5 L3.55 -19.3 3.55 -19.25 3.6 -19.25 3.55 -19.2 M10.35 -18.85 L10.35 -18.85 10.3 -18.9 10.35 -18.85 M9.65 -19.4 Q9.7 -19.6 9.8 -19.6 L9.85 -19.65 9.95 -19.8 10.15 -19.85 10.4 -20.0 10.35 -19.75 10.35 -19.55 9.85 -19.55 Q9.75 -19.55 9.7 -19.45 L9.7 -19.4 9.65 -19.4 M10.65 -20.15 L10.7 -20.0 10.65 -20.05 10.65 -20.15 M11.2 -18.35 L11.25 -18.45 11.3 -18.4 11.2 -18.35 M8.25 -24.6 L8.15 -24.5 Q8.05 -24.4 8.0 -24.4 L7.85 -24.6 7.75 -24.75 Q7.85 -24.65 7.95 -24.6 L8.25 -24.6 M7.3 -28.4 L9.3 -27.45 10.0 -27.1 10.05 -27.05 10.05 -27.0 10.25 -26.85 10.35 -26.8 Q10.65 -26.5 10.55 -26.3 10.5 -26.1 10.25 -26.05 L9.55 -25.9 9.35 -26.0 9.2 -26.1 8.9 -26.4 8.9 -26.45 Q8.85 -26.5 8.75 -26.6 L8.75 -26.65 8.7 -26.7 8.55 -26.95 8.65 -26.9 8.35 -27.2 Q7.6 -27.9 7.05 -28.25 L7.15 -28.35 7.3 -28.4 M11.7 -27.05 L11.65 -27.1 11.7 -27.1 11.7 -27.05 M12.55 -26.4 L12.7 -26.25 12.7 -26.3 12.65 -26.3 12.55 -26.3 12.55 -26.4 M12.0 -26.55 L12.0 -26.6 11.9 -26.8 12.1 -26.65 12.35 -26.4 12.3 -26.35 12.2 -26.3 12.1 -26.35 12.0 -26.55 M11.8 -26.2 L11.8 -26.25 11.8 -26.2 M12.9 -24.8 L12.55 -25.2 13.0 -25.0 13.15 -24.85 Q13.25 -24.6 13.3 -24.55 13.35 -24.4 13.3 -24.25 L13.0 -24.35 12.8 -24.45 Q12.85 -24.65 12.9 -24.8 M12.15 -25.75 L12.15 -25.85 12.25 -26.05 Q12.55 -26.05 12.8 -25.7 13.0 -25.3 13.1 -25.2 L12.75 -25.35 12.3 -25.55 Q12.15 -25.65 12.15 -25.75 M13.4 -23.95 L13.4 -23.95 M13.2 -23.6 L13.25 -23.65 13.3 -23.6 13.2 -23.6 M12.6 -24.0 L12.65 -23.9 12.85 -23.75 12.9 -23.75 12.7 -23.6 Q12.5 -23.5 12.35 -23.5 L11.5 -24.1 11.7 -24.2 Q12.0 -24.35 12.1 -24.3 L12.6 -24.0 M11.4 -21.95 Q11.6 -21.95 11.75 -22.05 L11.7 -21.95 11.65 -21.95 11.6 -21.9 11.4 -21.95 M12.2 -22.85 L12.2 -22.95 12.25 -22.95 12.2 -22.85 M11.95 -22.85 L11.75 -22.5 Q11.5 -22.15 11.35 -22.25 L10.75 -22.5 10.85 -23.05 Q10.9 -23.45 10.95 -23.55 11.1 -23.85 11.55 -23.45 L11.65 -23.35 Q12.05 -23.05 11.95 -22.85 M14.9 -16.65 L14.85 -16.75 14.7 -16.9 Q14.55 -17.2 14.25 -17.35 L14.2 -17.4 14.15 -17.4 Q13.75 -18.0 13.85 -18.3 L14.1 -18.1 Q14.95 -17.35 15.2 -16.9 L15.15 -16.75 15.1 -16.65 Q15.05 -16.6 14.9 -16.65 M14.15 -19.0 L14.2 -19.0 Q14.2 -19.05 14.2 -18.95 L14.2 -18.9 Q14.95 -18.5 15.35 -17.9 L15.7 -17.35 15.6 -17.3 15.6 -17.25 14.45 -18.3 14.0 -18.65 13.95 -18.6 13.9 -18.65 13.9 -18.7 14.05 -18.9 14.15 -19.0 M14.65 -19.6 Q14.65 -19.5 14.75 -19.25 L14.9 -18.9 14.6 -19.05 14.35 -19.3 14.65 -19.6 M15.55 -19.0 L15.55 -18.95 15.95 -18.75 16.0 -18.7 15.9 -18.7 15.45 -18.65 15.3 -19.0 15.55 -19.0 M16.2 -18.1 Q16.3 -18.15 16.8 -17.95 17.0 -17.9 17.1 -17.85 L17.25 -17.55 Q17.35 -17.3 17.35 -17.2 L17.35 -17.1 Q17.3 -16.95 16.9 -17.05 16.5 -17.1 16.35 -17.15 16.1 -17.35 15.85 -17.9 L16.05 -18.0 16.2 -18.1 M11.55 -20.15 L11.7 -20.0 11.95 -19.7 11.7 -19.5 Q11.45 -19.6 11.3 -19.7 L11.2 -19.8 11.4 -20.05 11.55 -20.15 M11.5 -19.3 L11.55 -19.3 11.5 -19.3 M11.85 -19.05 L11.9 -19.1 11.9 -18.75 11.85 -18.45 11.8 -18.4 Q11.5 -18.5 11.45 -18.55 L11.45 -18.65 11.5 -18.7 11.6 -18.9 Q11.7 -19.0 11.85 -19.05 M12.6 -16.95 L12.75 -17.05 13.05 -17.05 13.2 -16.95 13.3 -16.8 13.3 -16.7 13.25 -16.5 12.95 -16.25 12.9 -16.25 12.9 -16.3 12.65 -16.6 Q12.5 -16.6 12.5 -16.65 L12.6 -16.8 12.7 -16.9 Q12.7 -17.0 12.65 -16.95 L12.6 -16.95 M9.9 -17.7 L10.05 -17.7 10.1 -17.75 10.15 -17.9 10.75 -17.9 Q10.95 -17.85 11.1 -17.75 11.25 -17.65 11.7 -17.6 L11.8 -17.4 11.75 -17.05 Q11.7 -16.75 11.55 -16.75 L11.45 -16.85 11.05 -17.05 10.9 -17.1 11.1 -17.1 Q11.3 -17.1 11.6 -16.9 L11.7 -17.4 11.65 -17.5 Q11.35 -17.55 11.0 -17.7 10.75 -17.85 10.2 -17.8 L10.15 -17.8 Q10.1 -17.75 10.1 -17.7 10.1 -17.65 10.3 -17.45 L10.45 -17.3 Q10.35 -17.35 10.2 -17.45 L9.9 -17.7 M11.6 -16.15 Q11.55 -16.2 11.5 -16.3 L11.2 -16.3 10.95 -16.55 10.9 -16.65 10.35 -16.55 10.5 -16.2 10.6 -15.85 10.65 -15.85 10.75 -15.8 11.65 -15.8 Q11.65 -15.9 11.7 -16.1 L11.6 -16.15 M10.35 -16.7 L10.95 -16.8 11.1 -16.6 Q11.15 -16.45 11.25 -16.4 L11.55 -16.4 11.6 -16.25 Q11.65 -16.2 11.8 -16.2 L11.8 -16.05 11.75 -15.95 11.75 -15.7 10.7 -15.7 10.55 -15.75 10.5 -15.75 10.55 -15.8 Q10.5 -16.15 10.25 -16.6 L10.45 -16.7 10.35 -16.7 M12.85 -16.4 Q13.15 -16.55 13.15 -16.7 13.15 -16.85 13.0 -16.9 12.8 -16.95 12.6 -16.7 12.7 -16.65 12.8 -16.55 L12.85 -16.4 M12.45 -15.1 L12.4 -15.05 12.35 -15.1 12.45 -15.1 M11.75 -14.6 L11.65 -14.65 11.7 -14.8 11.7 -14.75 11.75 -14.6 M11.9 -14.6 L11.9 -14.9 Q12.0 -14.85 12.25 -14.7 L12.55 -14.55 12.5 -14.55 Q12.25 -14.15 12.1 -13.95 12.0 -13.8 11.9 -13.8 11.75 -13.8 11.7 -13.85 L11.65 -13.95 11.75 -14.0 Q11.9 -14.2 11.95 -14.4 L11.9 -14.6 M12.95 -14.65 L12.95 -14.65 M13.55 -13.45 L13.6 -13.5 13.6 -13.45 13.55 -13.45 M12.85 -14.25 L12.95 -14.25 13.3 -14.2 13.65 -14.05 13.5 -13.9 13.4 -13.75 13.15 -13.95 12.95 -14.2 12.85 -14.25 M16.75 -16.65 L17.25 -16.6 Q17.4 -16.5 17.4 -16.25 17.45 -16.05 17.4 -16.0 L17.2 -15.9 Q17.1 -15.85 17.05 -15.85 L16.8 -16.2 Q16.6 -16.5 16.55 -16.6 L16.75 -16.65 M16.25 -16.45 Q16.45 -16.25 16.5 -16.05 16.6 -15.8 16.5 -15.75 L16.4 -15.7 Q16.3 -15.65 16.15 -15.75 16.05 -15.85 16.15 -16.1 L16.25 -16.45 M16.05 -16.7 Q16.05 -16.65 15.9 -16.3 L15.8 -15.9 15.75 -15.9 Q15.65 -15.9 15.65 -15.95 15.6 -15.95 15.6 -16.1 L15.75 -16.7 16.05 -16.7 M14.45 -14.5 Q14.25 -14.5 13.7 -14.65 13.05 -14.8 12.85 -15.0 L13.8 -14.8 Q14.5 -14.7 14.6 -14.6 14.55 -14.55 14.45 -14.5 M17.2 -15.45 L17.2 -15.5 17.5 -15.55 17.65 -15.55 17.65 -15.5 17.6 -15.5 17.7 -15.45 17.65 -15.45 17.85 -15.25 Q17.9 -15.2 17.95 -15.25 L18.1 -15.05 18.3 -14.85 Q18.4 -14.75 18.35 -14.6 L18.35 -14.5 17.95 -14.8 Q17.45 -15.2 17.3 -15.35 L17.2 -15.35 17.2 -15.45 M16.65 -15.25 L16.8 -15.25 16.8 -14.55 16.75 -14.6 16.65 -14.8 16.5 -15.2 16.65 -15.25 M18.7 -13.55 L18.7 -13.5 18.8 -13.1 18.65 -13.2 18.55 -13.3 18.65 -13.45 18.7 -13.55 M17.2 -14.75 L17.25 -14.8 17.65 -14.55 17.7 -14.5 17.85 -14.3 17.95 -14.3 Q18.0 -14.15 17.9 -13.95 L17.8 -13.75 17.4 -14.1 Q17.2 -14.3 17.15 -14.45 17.2 -14.6 17.2 -14.75 M16.0 -15.15 L16.2 -15.2 16.3 -15.0 16.35 -14.85 16.4 -14.6 Q16.45 -14.5 16.5 -14.5 L16.6 -14.25 16.3 -14.2 Q16.1 -14.15 15.95 -14.2 L16.0 -14.75 Q16.05 -14.9 15.95 -15.1 L16.0 -15.15 M20.3 -16.7 L20.3 -16.65 20.3 -16.7 M19.85 -16.1 L19.7 -16.05 19.7 -16.15 19.75 -16.25 Q19.75 -16.2 19.8 -16.15 L19.85 -16.1 M19.75 -15.9 L19.95 -15.9 Q20.05 -15.9 20.3 -15.8 20.3 -15.7 20.25 -15.65 20.25 -15.6 20.15 -15.6 20.05 -15.6 19.8 -15.7 L19.75 -15.9 M18.8 -15.15 Q18.8 -15.35 18.7 -15.6 L18.6 -16.05 18.65 -15.95 Q18.75 -15.55 18.8 -15.25 L18.8 -15.15 M17.9 -16.1 L17.8 -16.9 Q18.0 -16.65 18.3 -16.35 L18.35 -16.35 Q18.4 -16.05 18.45 -15.6 L18.35 -15.55 18.0 -15.8 Q17.95 -15.8 17.9 -16.1 M20.2 -14.75 L20.2 -14.95 20.25 -14.9 Q20.35 -14.95 20.4 -14.95 L21.0 -14.65 21.7 -14.05 21.75 -13.95 Q21.8 -13.8 21.75 -13.7 21.65 -13.55 21.3 -13.5 L20.9 -13.5 Q20.8 -13.5 20.75 -13.55 20.5 -13.75 20.3 -14.35 L20.2 -14.75 M20.55 -16.75 L20.6 -16.65 20.7 -16.6 20.65 -16.5 20.6 -16.45 Q20.55 -16.4 20.5 -16.4 L20.5 -16.45 20.5 -16.55 20.45 -16.75 20.5 -16.75 20.55 -16.75 M20.65 -16.0 Q20.7 -16.0 20.75 -16.05 L20.8 -16.15 20.85 -16.2 20.9 -16.1 20.8 -16.1 20.8 -15.95 20.65 -15.95 20.65 -16.0 M21.45 -14.7 L21.45 -14.7 M21.0 -15.05 Q21.05 -15.1 21.1 -15.3 L21.25 -14.95 Q21.2 -14.95 21.0 -15.05 M21.4 -15.2 L21.45 -15.2 21.45 -15.1 21.4 -15.2 M20.55 -15.3 L20.6 -15.35 20.6 -15.5 20.85 -15.45 Q20.9 -15.35 20.85 -15.2 L20.8 -15.15 20.75 -15.15 Q20.6 -15.25 20.55 -15.3 M22.35 -14.25 L23.0 -14.3 23.6 -14.3 Q23.65 -14.3 23.7 -14.25 L23.75 -14.2 23.75 -14.05 Q23.8 -14.0 23.9 -13.95 L23.9 -13.9 Q24.05 -13.55 23.95 -13.4 L23.45 -13.45 Q22.9 -13.55 22.75 -13.7 L22.65 -13.75 22.55 -13.9 22.3 -14.2 22.35 -14.25 M10.65 -27.0 Q10.35 -27.1 10.1 -27.25 L10.05 -27.25 9.95 -27.3 9.55 -27.65 9.45 -27.75 9.2 -27.95 9.25 -27.95 Q9.3 -27.95 9.5 -27.85 L9.75 -27.75 9.9 -27.7 11.1 -27.15 11.2 -27.1 11.3 -27.0 Q11.4 -26.95 11.35 -27.0 L11.4 -27.0 11.4 -26.95 11.45 -26.85 Q11.45 -26.65 11.55 -26.55 11.2 -26.6 11.1 -26.65 11.05 -26.7 10.85 -26.95 L10.75 -26.95 10.65 -27.0 M8.9 -25.65 L9.0 -25.45 8.9 -25.25 8.85 -25.25 8.5 -24.9 8.1 -24.8 Q8.05 -24.9 8.05 -25.1 L7.85 -25.35 7.8 -25.4 7.65 -25.6 7.6 -25.7 Q7.25 -26.05 6.75 -26.4 6.7 -26.3 6.75 -26.45 6.8 -26.55 6.85 -26.55 L6.95 -26.55 7.7 -26.15 7.9 -26.0 8.05 -25.95 8.1 -25.95 8.3 -25.9 8.3 -25.85 8.6 -25.8 8.85 -25.7 8.9 -25.65 M10.15 -24.75 L10.2 -24.9 10.25 -24.8 10.35 -24.4 10.25 -24.4 10.25 -24.45 10.15 -24.55 Q10.1 -24.65 10.15 -24.75 M10.95 -25.95 Q11.2 -26.1 11.45 -26.0 12.05 -25.8 11.75 -24.8 10.9 -24.55 10.85 -24.6 10.5 -25.45 10.55 -25.5 10.65 -25.8 10.95 -25.95 M8.3 -24.0 L8.4 -24.05 8.45 -23.95 8.45 -23.9 8.5 -23.8 8.5 -23.75 8.35 -23.75 Q8.3 -23.8 8.25 -23.85 8.25 -23.95 8.3 -24.0 M6.8 -21.45 Q6.75 -21.7 6.8 -21.9 L6.8 -21.95 6.9 -22.45 6.95 -22.65 Q7.0 -22.95 7.1 -23.2 L7.3 -23.3 7.35 -23.3 7.35 -23.1 Q7.2 -22.7 7.0 -22.4 7.0 -21.9 6.85 -21.55 L6.8 -21.4 6.8 -21.45 M8.25 -23.1 L8.35 -23.3 8.45 -23.35 8.55 -23.35 8.65 -23.35 Q8.6 -23.25 8.55 -23.1 L8.5 -23.1 8.35 -22.65 8.3 -22.8 8.3 -22.9 8.25 -23.1 M7.05 -24.05 L7.15 -23.95 7.05 -23.75 7.05 -23.7 7.0 -23.7 6.85 -23.65 Q6.8 -23.65 6.6 -23.8 L6.5 -23.95 Q6.6 -24.0 6.75 -24.1 L6.95 -24.2 7.05 -24.05 M5.95 -23.7 L5.95 -23.8 6.05 -23.9 6.1 -23.85 5.95 -23.7 M6.25 -22.15 Q5.95 -22.45 5.65 -22.6 5.8 -22.65 5.9 -22.85 L6.1 -23.25 6.3 -23.2 Q6.5 -23.1 6.4 -22.7 6.25 -22.35 6.25 -22.15 M8.5 -21.35 L8.4 -21.55 8.7 -22.1 8.75 -22.3 9.25 -23.2 9.6 -22.5 Q9.9 -21.9 9.85 -21.8 L9.7 -21.5 9.5 -21.3 Q9.1 -20.95 8.6 -21.15 8.55 -21.15 8.5 -21.35 M9.9 -21.3 L10.1 -21.65 Q10.4 -22.0 11.1 -21.6 10.6 -21.25 10.4 -21.15 9.85 -20.85 9.75 -20.9 L9.7 -21.05 Q9.8 -21.1 9.9 -21.3 M9.75 -23.2 L9.6 -23.5 Q9.9 -23.85 10.0 -23.5 10.1 -23.2 10.0 -22.95 L9.95 -22.9 9.75 -23.2 M8.9 -24.15 L8.9 -23.85 8.7 -23.75 8.7 -24.0 Q8.8 -24.15 8.9 -24.15 M9.45 -24.35 L9.55 -24.4 9.55 -24.15 Q9.55 -24.1 9.2 -23.95 L9.2 -24.05 Q9.15 -24.2 9.2 -24.25 9.2 -24.3 9.45 -24.35 M3.85 -19.2 Q3.5 -19.6 3.05 -21.05 L3.1 -21.45 3.2 -21.75 3.2 -21.85 3.25 -21.75 3.35 -21.75 Q3.4 -21.75 3.55 -21.65 3.7 -21.55 3.9 -21.45 L4.35 -21.15 4.6 -20.75 4.75 -20.3 Q4.7 -20.2 4.6 -20.1 4.5 -19.75 4.45 -19.65 L4.5 -19.6 4.05 -19.35 3.85 -19.2 M5.75 -20.55 L5.45 -20.85 Q5.05 -21.25 4.95 -21.45 L5.5 -21.4 5.75 -21.2 6.1 -21.1 Q6.6 -20.85 6.6 -20.6 L6.85 -20.3 6.85 -20.25 6.45 -20.35 5.9 -20.45 Q5.85 -20.55 5.75 -20.55 M5.65 -22.35 L5.8 -22.25 5.55 -22.4 5.65 -22.35 M5.35 -21.2 L5.35 -21.15 5.4 -21.2 5.35 -21.2 M5.25 -18.75 L5.15 -18.7 5.1 -18.65 5.2 -18.5 5.65 -18.6 5.7 -18.65 5.7 -18.7 5.65 -18.75 5.25 -18.75 M5.85 -18.7 L5.8 -18.7 5.8 -18.55 5.75 -18.45 Q5.25 -18.4 5.1 -18.3 L5.0 -18.5 Q4.95 -18.6 4.95 -18.65 4.95 -18.85 5.4 -18.9 5.7 -18.95 5.8 -18.85 L5.85 -18.8 5.85 -18.7 M7.95 -16.45 L7.85 -16.3 7.2 -16.2 Q7.05 -16.15 6.95 -16.15 6.7 -16.15 6.1 -16.55 L5.35 -17.0 5.35 -17.05 Q5.35 -17.1 5.4 -17.2 L5.5 -17.4 Q5.5 -17.5 5.55 -17.5 L5.55 -17.55 5.6 -17.5 5.75 -17.55 6.1 -17.5 7.5 -17.2 Q7.65 -17.1 7.8 -16.8 L7.85 -16.6 7.95 -16.45 M7.9 -16.7 L7.95 -16.55 7.9 -16.7 M5.55 -17.45 L5.55 -17.3 Q5.5 -17.15 5.45 -17.1 5.75 -16.85 6.05 -16.65 6.65 -16.3 6.95 -16.3 7.05 -16.3 7.2 -16.4 L7.8 -16.45 7.8 -16.55 7.7 -16.75 7.55 -17.15 7.45 -17.15 6.45 -17.35 6.1 -17.45 5.55 -17.45 M6.65 -15.65 L6.4 -15.65 6.0 -15.75 5.7 -15.8 5.7 -15.85 5.75 -16.05 6.2 -16.1 6.25 -16.05 6.3 -16.05 Q6.55 -15.95 6.75 -15.95 L6.8 -15.9 6.6 -15.7 6.65 -15.65 M10.0 -20.15 L10.0 -20.25 10.15 -20.55 10.25 -20.65 10.3 -20.65 10.3 -20.55 10.35 -20.45 10.25 -20.4 10.15 -20.2 10.2 -20.2 10.05 -20.15 10.0 -20.15 M10.45 -20.3 L10.3 -20.25 10.4 -20.35 10.45 -20.3 M11.25 -20.3 L11.15 -20.15 Q11.05 -20.0 10.9 -19.95 10.95 -20.15 10.9 -20.3 L11.25 -20.3 M8.95 -20.75 L9.0 -20.7 Q9.05 -20.6 9.2 -20.5 L9.1 -20.45 9.0 -20.45 Q8.9 -20.45 8.85 -20.65 L8.8 -20.7 Q8.85 -20.8 8.95 -20.75 M8.75 -20.4 L8.65 -20.35 Q8.6 -20.35 8.45 -20.55 8.3 -20.7 8.3 -20.75 8.3 -20.8 8.45 -20.85 L8.6 -20.85 8.8 -20.7 8.85 -20.5 Q8.8 -20.45 8.75 -20.4 M9.15 -18.7 L8.75 -18.75 8.4 -18.8 7.9 -18.75 Q7.8 -18.7 7.65 -18.65 L7.7 -18.3 8.4 -18.05 Q8.95 -17.8 9.0 -17.8 9.25 -17.8 9.55 -17.9 L9.6 -17.9 Q9.5 -18.25 9.5 -18.4 L9.4 -18.5 9.3 -18.65 Q9.25 -18.75 9.15 -18.7 M7.55 -18.7 Q7.7 -18.8 7.9 -18.9 8.0 -18.95 9.2 -18.85 9.5 -18.85 9.7 -18.0 L9.65 -17.8 9.05 -17.65 Q8.8 -17.7 8.35 -17.95 L8.2 -18.05 8.15 -18.05 Q7.95 -18.2 7.7 -18.25 L7.55 -18.65 7.55 -18.7 M8.4 -17.85 Q8.7 -17.8 8.85 -17.7 L9.05 -17.5 9.4 -17.45 Q9.55 -17.35 9.75 -17.3 L9.75 -17.25 Q9.7 -17.25 9.7 -17.15 L9.65 -17.0 Q9.65 -16.8 9.5 -16.75 L9.4 -16.7 9.4 -16.65 Q9.2 -16.45 8.9 -16.45 L8.7 -16.45 8.75 -16.5 8.65 -16.55 8.35 -16.55 Q8.2 -16.9 7.8 -17.45 L7.8 -17.5 Q8.0 -17.6 8.1 -17.75 L8.15 -17.8 8.15 -17.8 8.15 -17.85 8.3 -17.85 8.4 -17.85 M11.15 -18.85 L10.9 -19.0 Q10.8 -19.0 10.8 -19.15 L10.85 -19.2 10.9 -19.3 10.95 -19.5 11.15 -19.3 Q11.3 -19.15 11.25 -19.1 L11.2 -18.9 11.15 -18.85 M6.4 -18.25 Q6.35 -18.25 6.3 -18.3 L6.35 -18.65 6.95 -18.75 Q7.15 -18.75 7.15 -18.7 L7.3 -18.55 7.25 -18.5 7.2 -18.4 7.2 -18.35 7.15 -18.3 7.15 -18.2 6.8 -18.2 6.4 -18.25 M6.5 -17.75 L6.5 -17.8 6.55 -17.8 6.6 -17.75 6.5 -17.75 M6.45 -18.35 L7.1 -18.25 7.2 -18.5 Q7.15 -18.55 7.0 -18.6 L6.5 -18.55 6.45 -18.5 6.45 -18.35 M6.7 -18.0 L6.7 -18.0 M8.15 -16.95 Q8.35 -16.65 8.5 -16.6 9.4 -16.65 9.55 -16.85 9.65 -16.95 9.7 -17.2 L9.7 -17.25 9.2 -17.35 9.0 -17.4 Q8.9 -17.45 8.85 -17.6 8.7 -17.7 8.3 -17.75 7.95 -17.5 7.95 -17.45 7.95 -17.25 8.15 -16.95 M5.85 -15.95 L5.8 -15.9 6.2 -15.8 Q6.4 -15.75 6.45 -15.7 L6.55 -15.75 6.65 -15.85 Q6.55 -15.85 6.35 -15.95 L6.15 -16.05 5.85 -15.95 M9.05 -16.0 L9.05 -15.9 8.8 -15.75 Q8.5 -15.55 8.45 -15.55 L8.35 -15.55 8.35 -15.6 8.0 -15.65 7.9 -15.8 7.9 -15.85 8.05 -15.85 8.05 -15.7 Q8.4 -15.7 8.45 -15.65 L8.95 -16.0 8.85 -16.0 8.3 -15.95 8.9 -16.15 8.95 -16.05 Q9.0 -16.0 9.05 -16.0 M8.95 -14.85 L9.05 -14.85 9.35 -14.75 9.8 -14.7 9.65 -14.5 Q9.55 -14.45 9.35 -14.4 L8.95 -14.2 Q8.7 -14.15 8.45 -14.15 L7.7 -14.15 7.5 -14.5 7.35 -14.85 7.35 -14.95 7.45 -14.95 7.6 -14.95 7.45 -14.85 7.75 -14.2 Q8.8 -14.25 9.1 -14.35 9.25 -14.45 9.55 -14.6 L9.6 -14.65 9.2 -14.7 9.0 -14.75 8.65 -14.65 8.55 -14.7 Q8.75 -14.7 8.85 -14.75 8.9 -14.75 8.95 -14.8 L8.95 -14.85 M7.85 -15.0 L8.0 -15.05 8.2 -14.9 Q8.3 -14.8 8.4 -14.75 L8.1 -14.85 Q7.95 -14.95 7.85 -15.0 M10.8 -17.25 L10.95 -17.25 11.05 -17.1 Q10.9 -17.25 10.8 -17.25 M10.45 -14.75 L10.4 -14.75 10.5 -14.7 10.55 -14.7 10.45 -14.65 Q10.45 -14.55 10.55 -14.45 L10.75 -14.65 10.65 -14.65 10.6 -14.7 Q10.7 -14.7 10.8 -14.65 L10.85 -14.65 10.85 -14.55 Q10.75 -14.45 10.55 -14.4 L10.5 -14.4 Q10.35 -14.55 10.35 -14.65 L10.35 -14.7 10.4 -14.75 10.45 -14.75 M10.85 -14.7 L10.8 -14.75 10.85 -14.7 M11.5 -13.6 L11.5 -13.55 Q11.5 -13.5 11.6 -13.45 L11.8 -13.3 11.3 -13.4 11.25 -13.35 Q11.4 -13.6 11.5 -13.6 M23.1 -12.9 L23.05 -13.1 23.25 -13.05 23.4 -12.95 Q23.45 -12.85 23.4 -12.65 L23.35 -12.55 23.2 -12.65 Q23.15 -12.7 23.1 -12.9 M22.75 -11.5 L22.7 -11.5 22.75 -11.55 Q23.35 -12.0 23.75 -11.9 L23.65 -11.5 Q23.55 -11.4 23.3 -11.4 23.05 -11.35 22.75 -11.5 M20.65 -13.3 L20.6 -13.3 20.6 -13.35 20.65 -13.3 M22.05 -13.1 Q22.25 -13.2 22.5 -12.8 22.8 -12.45 22.55 -12.2 L22.4 -12.05 22.05 -11.8 Q21.85 -12.0 21.65 -12.25 L21.2 -12.65 21.25 -12.7 22.05 -13.1 M22.45 -11.4 L22.55 -11.3 22.4 -11.35 22.45 -11.4 M22.25 -10.8 L22.2 -10.75 22.2 -10.8 22.25 -10.8 M22.8 -10.75 L22.95 -10.8 23.15 -10.8 Q23.15 -10.75 23.15 -10.7 L23.2 -10.55 23.15 -10.5 23.05 -10.35 22.85 -10.15 22.8 -10.45 22.8 -10.75 M23.0 -9.45 L23.1 -9.5 23.45 -9.8 23.5 -9.85 23.6 -10.05 23.7 -9.8 23.8 -9.5 Q23.45 -9.4 23.0 -9.45 M21.85 -10.2 L22.2 -10.45 22.3 -10.15 Q22.35 -9.85 22.3 -9.8 22.25 -9.75 22.05 -9.7 L21.85 -9.95 Q21.8 -10.1 21.85 -10.2 M23.35 -10.1 L23.3 -10.05 23.35 -10.1 M13.25 -13.55 L13.25 -13.5 12.9 -13.35 12.65 -13.25 12.3 -13.65 12.35 -13.75 12.5 -13.95 12.6 -14.1 12.85 -13.9 13.25 -13.55 M16.55 -13.7 L16.6 -13.75 Q16.65 -13.85 16.9 -13.8 17.25 -13.7 17.45 -13.4 17.35 -13.15 16.55 -13.7 M23.95 -15.9 L24.8 -15.15 24.9 -15.0 25.25 -14.65 25.5 -14.3 25.45 -14.25 25.45 -14.2 25.5 -14.05 Q25.6 -13.85 25.5 -13.75 L25.15 -13.65 Q24.7 -13.6 24.55 -13.75 24.45 -13.8 24.4 -13.95 L24.3 -14.2 Q24.35 -14.3 24.35 -14.4 L24.4 -14.45 24.35 -14.6 24.35 -14.75 24.25 -14.9 24.3 -14.95 24.25 -15.05 Q24.05 -15.55 23.95 -15.9 M24.85 -14.65 L24.85 -14.6 24.9 -14.6 24.85 -14.65 M24.9 -13.1 L25.15 -13.2 25.15 -13.25 25.5 -13.2 Q25.3 -12.9 24.9 -13.1 M23.8 -12.8 L23.8 -12.45 23.6 -12.5 23.6 -12.6 23.7 -12.85 23.8 -12.8 M24.15 -10.75 L24.35 -10.6 24.85 -10.25 24.85 -10.2 Q24.55 -10.1 24.1 -9.7 24.1 -9.85 23.95 -10.15 23.85 -10.3 23.85 -10.4 L23.85 -10.45 24.15 -10.75 M24.45 -11.2 Q24.3 -11.3 24.25 -11.35 L24.3 -11.9 24.4 -12.65 Q24.5 -12.6 24.6 -12.55 25.0 -12.35 25.0 -11.85 L25.0 -11.4 Q25.0 -11.15 25.05 -10.95 L24.7 -11.1 24.45 -11.2 M23.35 -10.7 L23.3 -10.85 23.45 -10.85 23.35 -10.7" fill="#90e6ff" fill-rule="evenodd" stroke="none"/>
    <path d="M8.25 -19.8 L8.25 -20.35 8.3 -20.35 8.3 -20.0 8.6 -19.9 Q8.85 -19.9 9.45 -19.7 L9.6 -19.75 9.7 -19.85 9.6 -20.0 9.6 -20.1 9.7 -19.9 9.7 -19.85 9.75 -19.8 9.6 -19.65 9.6 -19.6 9.5 -19.5 9.45 -19.5 9.4 -19.45 Q9.45 -19.45 9.55 -19.4 L9.6 -19.3 9.55 -19.3 9.55 -19.25 9.5 -19.25 Q9.45 -19.3 9.35 -19.4 L9.3 -19.45 8.8 -19.65 8.25 -19.8 M10.35 -18.8 L10.35 -18.85 10.3 -18.9 10.25 -18.9 9.6 -19.15 Q9.6 -19.25 9.6 -19.35 L9.65 -19.4 9.7 -19.4 9.7 -19.45 Q9.75 -19.55 9.85 -19.55 L10.35 -19.55 10.35 -19.75 10.4 -20.0 10.15 -19.85 9.95 -19.8 10.0 -19.9 10.35 -20.05 10.5 -20.15 10.55 -20.2 10.65 -20.15 10.65 -20.05 10.7 -20.0 Q10.75 -19.9 10.7 -19.65 10.65 -19.4 10.5 -19.15 L10.5 -19.1 10.65 -19.0 11.1 -18.55 11.2 -18.4 11.15 -18.35 11.2 -18.35 11.2 -18.3 11.9 -18.0 11.9 -17.95 12.0 -18.25 12.05 -18.25 12.05 -18.1 12.0 -17.95 12.0 -17.75 11.95 -17.7 11.95 -17.6 11.9 -17.6 11.75 -17.7 11.65 -17.75 11.4 -17.9 Q11.2 -18.05 11.1 -18.2 L11.1 -18.25 10.95 -18.25 Q10.65 -18.25 10.45 -18.55 L10.35 -18.8 M13.55 -18.55 L13.5 -18.25 13.5 -17.8 13.6 -17.75 Q13.65 -17.75 13.7 -17.7 L13.75 -17.65 14.05 -17.5 14.15 -17.4 14.2 -17.4 14.25 -17.35 Q14.55 -17.2 14.7 -16.9 L14.75 -16.8 15.4 -16.0 15.4 -15.95 15.55 -15.7 15.55 -15.6 Q15.55 -15.55 15.5 -15.55 L15.45 -15.6 Q15.3 -15.75 14.9 -16.3 L14.6 -16.7 Q14.55 -16.75 14.5 -16.85 L14.45 -16.85 14.35 -16.95 14.15 -17.1 14.05 -17.15 Q13.55 -17.5 13.3 -17.7 L13.35 -17.8 13.4 -17.85 13.4 -17.95 13.45 -18.25 13.55 -18.55 M15.75 -14.25 Q15.65 -14.0 15.55 -14.0 L15.5 -14.0 15.5 -14.05 15.45 -14.05 15.45 -14.1 Q15.45 -14.2 15.65 -14.5 L15.7 -14.65 15.75 -14.7 Q15.75 -14.8 15.85 -14.8 15.9 -14.7 15.9 -14.65 15.9 -14.55 15.8 -14.3 L15.75 -14.3 15.75 -14.25 M12.9 -16.25 L12.8 -16.25 Q12.7 -16.25 12.65 -16.4 12.55 -16.55 12.35 -16.5 L12.25 -16.55 12.45 -16.8 12.6 -16.95 12.65 -16.95 Q12.7 -17.0 12.7 -16.9 L12.6 -16.8 12.5 -16.65 Q12.5 -16.6 12.65 -16.6 L12.9 -16.3 12.9 -16.25 M9.9 -17.7 L10.2 -17.45 Q10.35 -17.35 10.45 -17.3 L10.7 -17.25 10.8 -17.25 Q10.9 -17.25 11.05 -17.1 L11.1 -17.1 10.9 -17.1 10.6 -17.15 Q10.35 -17.15 10.25 -17.25 L10.05 -17.45 Q9.85 -17.6 9.85 -17.65 L9.9 -17.7 M10.5 -15.75 L10.45 -15.8 10.45 -15.85 10.3 -16.15 Q10.15 -16.5 10.15 -16.6 L10.15 -16.7 10.25 -16.7 10.25 -16.65 10.35 -16.7 10.45 -16.7 10.25 -16.6 Q10.5 -16.15 10.55 -15.8 L10.5 -15.75 M12.3 -15.3 L12.4 -15.25 11.8 -15.2 11.75 -15.2 11.6 -14.9 11.5 -14.65 11.5 -14.6 11.55 -14.45 11.6 -14.2 11.55 -14.05 11.45 -14.0 Q11.35 -13.85 11.35 -13.75 11.35 -13.65 11.25 -13.5 L11.15 -13.35 11.05 -13.25 Q11.0 -13.25 11.0 -13.35 11.0 -13.45 11.1 -13.6 L11.2 -13.8 Q11.25 -13.95 11.35 -14.1 L11.45 -14.2 11.4 -14.45 11.4 -14.55 11.35 -14.55 Q11.35 -14.6 11.35 -14.65 11.35 -14.8 11.5 -15.05 11.65 -15.3 11.75 -15.3 L11.8 -15.3 Q11.9 -15.35 12.3 -15.3 M13.5 -15.15 L13.45 -15.15 12.6 -15.25 12.65 -15.3 12.7 -15.35 Q13.25 -15.35 13.5 -15.15 M3.85 -19.2 L4.05 -19.35 4.5 -19.6 4.45 -19.65 Q4.5 -19.75 4.6 -20.1 4.7 -20.2 4.75 -20.3 4.85 -20.4 4.95 -20.4 5.0 -20.5 5.0 -20.35 L4.85 -20.0 Q4.7 -19.75 4.7 -19.55 L4.65 -19.55 4.45 -19.4 4.3 -19.25 3.65 -18.75 3.6 -18.75 3.55 -18.8 3.5 -18.8 3.45 -18.8 3.4 -18.85 Q3.5 -19.0 3.85 -19.2 M5.65 -20.4 L5.65 -20.5 5.7 -20.55 5.75 -20.55 Q5.85 -20.55 5.9 -20.45 L6.45 -20.35 6.85 -20.25 6.85 -20.3 6.95 -20.3 7.05 -20.25 7.25 -19.95 Q7.3 -19.8 7.35 -19.75 L7.35 -19.7 Q7.3 -19.65 7.25 -19.65 L7.2 -19.65 7.1 -19.7 Q7.0 -19.75 6.95 -19.9 L6.85 -20.1 6.7 -20.05 6.0 -20.1 Q5.7 -20.1 5.65 -20.2 5.65 -20.25 5.65 -20.35 L5.65 -20.4 M5.85 -18.7 L5.9 -18.5 5.9 -18.4 5.85 -18.4 5.5 -18.3 5.25 -18.25 5.1 -18.3 Q5.25 -18.4 5.75 -18.45 L5.8 -18.55 5.8 -18.7 5.85 -18.7 M5.55 -17.55 L5.5 -17.55 Q5.55 -17.65 5.6 -17.65 L5.8 -17.6 6.2 -17.6 7.45 -17.35 7.6 -17.25 7.7 -17.05 Q7.8 -16.95 7.9 -16.75 L7.9 -16.7 7.95 -16.55 8.0 -16.45 7.95 -16.4 7.95 -16.45 7.85 -16.6 7.8 -16.8 Q7.65 -17.1 7.5 -17.2 L6.1 -17.5 5.75 -17.55 5.6 -17.5 5.55 -17.55 M6.2 -16.1 L6.2 -16.15 6.25 -16.15 6.55 -16.05 6.9 -16.0 6.9 -15.95 Q6.9 -15.8 6.65 -15.65 L6.6 -15.7 6.8 -15.9 6.85 -15.95 6.75 -15.95 Q6.55 -15.95 6.3 -16.05 L6.25 -16.05 6.2 -16.1 M8.2 -18.05 L8.45 -17.9 8.4 -17.85 8.3 -17.85 Q8.15 -17.9 8.05 -18.0 7.85 -18.1 7.65 -18.15 7.6 -18.15 7.55 -18.4 7.45 -18.6 7.45 -18.65 L7.45 -18.75 Q7.45 -18.8 7.6 -18.8 L7.55 -18.75 7.55 -18.7 7.55 -18.65 7.7 -18.25 Q7.95 -18.2 8.15 -18.05 L8.2 -18.05 M9.75 -17.25 L9.8 -17.25 9.8 -17.2 Q9.8 -17.05 9.7 -16.85 9.6 -16.65 9.5 -16.65 L9.4 -16.65 9.4 -16.7 9.5 -16.75 Q9.65 -16.8 9.65 -17.0 L9.7 -17.15 Q9.7 -17.25 9.75 -17.25 M8.7 -16.45 L8.55 -16.45 8.25 -16.5 8.15 -16.55 8.2 -16.65 8.0 -16.9 7.7 -17.5 7.75 -17.5 Q7.75 -17.55 7.85 -17.65 8.0 -17.75 8.15 -17.8 L8.1 -17.75 Q8.0 -17.6 7.8 -17.5 L7.8 -17.45 Q8.2 -16.9 8.35 -16.55 L8.65 -16.55 8.75 -16.5 8.7 -16.45 M7.25 -18.5 L7.3 -18.55 7.35 -18.5 7.35 -18.45 7.25 -18.25 7.25 -18.15 6.75 -18.15 6.45 -18.2 6.4 -18.25 6.8 -18.2 7.15 -18.2 7.15 -18.3 7.2 -18.35 7.2 -18.4 7.25 -18.5 M8.15 -17.8 L8.15 -17.8 M7.9 -15.85 Q8.05 -16.0 8.45 -16.1 L8.9 -16.2 9.05 -16.15 9.1 -16.1 9.1 -16.05 9.05 -16.0 Q9.0 -16.0 8.95 -16.05 L8.9 -16.15 8.3 -15.95 8.05 -15.85 7.9 -15.85 M7.45 -14.95 Q7.5 -15.1 7.9 -15.15 L7.9 -15.2 7.95 -15.15 8.0 -15.2 8.0 -15.15 8.25 -15.05 8.6 -14.8 8.9 -14.85 8.95 -14.85 8.95 -14.8 Q8.9 -14.75 8.85 -14.75 8.75 -14.7 8.55 -14.7 L8.4 -14.75 Q8.3 -14.8 8.2 -14.9 L8.0 -15.05 7.85 -15.0 7.65 -14.95 7.6 -14.95 7.45 -14.95 M10.45 -14.75 L10.5 -14.8 10.65 -14.85 10.75 -14.85 10.8 -14.75 10.85 -14.7 10.9 -14.65 10.85 -14.65 10.8 -14.65 Q10.7 -14.7 10.6 -14.7 L10.55 -14.7 10.5 -14.7 10.4 -14.75 10.45 -14.75" fill="#ffffff" fill-rule="evenodd" stroke="none"/>
  </g>
</svg>
