<?xml version="1.0" encoding="UTF-8" standalone="no"?>
<svg xmlns:ffdec="https://www.free-decompiler.com/flash" xmlns:xlink="http://www.w3.org/1999/xlink" ffdec:objectType="shape" height="38.65px" width="78.4px" xmlns="http://www.w3.org/2000/svg">
  <g transform="matrix(1.0, 0.0, 0.0, 1.0, 32.05, 35.35)">
    <path d="M43.3 -30.55 Q43.1 -30.75 43.05 -30.9 43.25 -31.05 43.3 -31.05 L43.35 -30.85 43.35 -30.7 Q43.35 -30.6 43.3 -30.55 M45.5 -30.4 L45.3 -30.3 45.15 -30.2 44.8 -30.25 44.65 -30.45 Q44.9 -30.65 44.95 -30.55 45.45 -30.45 45.5 -30.4 M45.8 -30.8 Q45.8 -30.65 45.7 -30.6 L45.6 -30.65 Q45.5 -30.7 45.45 -30.75 45.7 -30.95 45.8 -30.8 M46.2 -30.45 Q46.3 -30.35 46.35 -30.25 46.25 -30.05 46.0 -29.95 45.8 -30.05 45.8 -30.35 45.9 -30.45 46.2 -30.45 M-30.5 -35.2 Q-30.5 -35.15 -30.65 -35.05 L-30.85 -34.95 -30.95 -34.85 Q-31.05 -34.85 -31.05 -35.05 -31.05 -35.3 -30.85 -35.35 L-30.55 -35.3 -30.5 -35.2 M-31.4 -34.9 Q-31.45 -34.75 -31.65 -34.3 L-31.85 -33.95 -32.05 -33.9 -32.05 -34.1 Q-32.05 -34.5 -31.8 -34.75 -31.55 -34.95 -31.4 -34.9 M-31.65 -33.75 L-31.95 -33.75 -31.75 -33.85 Q-31.65 -33.9 -31.5 -33.8 -31.5 -33.7 -31.65 -33.75 M-31.7 -33.2 L-31.95 -33.25 Q-31.95 -33.4 -31.8 -33.5 -31.7 -33.6 -31.55 -33.6 L-31.5 -33.5 Q-31.55 -33.4 -31.7 -33.2" fill="#90e6ff" fill-rule="evenodd" stroke="none"/>
    <path d="M18.0 -9.2 L18.05 -9.0 Q18.35 -8.95 18.5 -8.85 18.6 -8.75 18.7 -8.75 18.8 -8.75 18.85 -8.8 L19.05 -8.85 19.35 -8.85 Q19.45 -8.75 20.0 -8.55 20.5 -8.4 20.6 -8.3 20.7 -8.2 20.85 -7.7 21.0 -7.3 21.25 -7.0 21.4 -6.8 21.4 -6.45 L21.3 -6.35 Q21.2 -6.25 21.2 -6.2 L21.3 -5.65 Q21.4 -5.4 21.4 -5.15 21.3 -5.05 21.25 -4.85 L21.15 -4.6 Q21.1 -4.45 20.95 -4.3 20.8 -4.2 20.8 -4.1 20.8 -4.0 20.9 -3.85 21.0 -3.7 21.0 -3.55 21.0 -3.45 20.9 -3.35 20.85 -3.2 20.85 -3.1 20.8 -2.8 20.6 -2.7 L20.5 -2.7 20.5 -2.65 20.45 -2.7 20.45 -2.65 Q20.45 -2.45 20.3 -2.25 20.15 -2.1 20.15 -1.8 20.15 -1.7 20.05 -1.6 L19.85 -1.4 Q19.75 -1.3 19.4 -1.25 L19.05 -1.15 Q18.8 -0.85 18.75 -0.8 18.7 -0.7 18.5 -0.6 18.3 -0.5 18.1 -0.5 L17.9 -0.5 17.35 -0.55 17.3 -0.6 17.35 -0.6 Q18.6 -1.0 18.85 -1.45 18.75 -1.55 18.75 -1.8 18.75 -2.15 19.15 -2.85 L18.85 -2.85 Q18.75 -2.9 18.7 -3.1 18.65 -3.25 18.65 -3.4 18.65 -3.45 18.75 -3.6 18.85 -3.7 18.85 -3.8 L18.75 -3.9 Q18.65 -4.0 18.65 -4.1 L18.4 -4.15 18.35 -4.25 Q18.3 -4.3 18.3 -4.4 18.3 -4.55 18.45 -4.65 18.3 -4.8 18.05 -4.8 L18.05 -4.9 18.15 -5.2 Q18.25 -5.4 18.25 -5.65 18.25 -6.05 18.8 -6.0 L19.5 -5.85 Q19.55 -5.75 19.45 -5.65 19.85 -5.3 19.85 -4.8 19.85 -4.2 19.85 -3.95 L19.85 -3.7 Q20.05 -3.7 20.2 -3.6 L20.3 -3.55 20.4 -3.35 20.35 -3.3 Q20.45 -3.1 20.45 -2.75 L20.55 -3.05 Q20.65 -3.25 20.65 -3.35 L20.6 -3.55 Q20.5 -3.7 20.5 -3.8 20.5 -3.95 20.6 -4.25 L20.45 -4.65 20.35 -4.7 Q20.25 -4.75 20.25 -4.95 20.25 -5.0 20.35 -5.2 L20.4 -5.45 Q20.4 -5.55 20.3 -5.7 20.15 -5.85 20.15 -6.0 20.1 -6.15 20.05 -6.2 19.95 -6.3 19.55 -6.35 19.35 -6.4 19.25 -6.65 L19.2 -7.0 Q19.15 -7.15 19.0 -7.3 L18.65 -7.5 18.3 -7.5 18.2 -7.65 18.1 -7.75 Q18.05 -7.85 17.9 -7.85 17.7 -7.8 17.5 -7.95 L17.25 -7.9 Q17.2 -7.85 17.1 -7.8 L16.75 -7.85 16.7 -7.95 16.25 -7.95 15.8 -7.7 Q15.75 -7.8 15.8 -7.9 L15.65 -8.05 15.9 -8.3 Q16.1 -8.5 16.35 -8.6 16.25 -8.75 16.65 -8.9 17.05 -9.1 17.8 -9.15 L17.8 -9.2 18.0 -9.2 M18.2 -7.35 Q18.35 -7.45 18.5 -7.4 18.65 -7.35 18.75 -7.2 18.8 -7.15 18.9 -7.1 L19.05 -7.0 19.05 -6.75 19.0 -6.5 18.9 -6.35 Q18.7 -6.35 18.75 -6.45 L18.75 -6.5 18.65 -6.55 Q18.6 -6.6 18.55 -6.75 18.5 -6.8 18.5 -6.9 18.5 -7.0 18.35 -7.15 18.2 -7.3 18.2 -7.35 M15.15 -7.55 L15.1 -7.5 15.25 -7.75 15.15 -7.55 M12.7 -0.1 L13.0 -0.05 13.05 0.0 13.25 -0.1 Q13.5 -0.2 13.55 -0.2 L13.95 -0.4 Q14.4 -0.4 14.75 -0.3 L14.75 -0.2 13.9 -0.15 Q13.65 -0.05 13.45 0.1 L13.15 0.05 12.9 0.3 Q12.4 0.25 11.95 0.65 L11.85 0.65 11.85 0.6 Q11.85 0.55 12.0 0.35 L12.4 -0.05 12.7 -0.1 M14.0 -1.0 L14.2 -1.0 Q14.3 -1.0 14.3 -0.85 14.3 -0.75 14.2 -0.65 14.05 -0.55 13.85 -0.55 L13.55 -0.6 13.5 -0.6 13.45 -0.7 Q13.45 -0.8 13.5 -0.8 L13.7 -0.95 14.0 -0.9 14.0 -1.0 M14.25 -1.25 L14.4 -1.25 14.45 -1.2 Q14.4 -1.1 14.25 -1.1 L14.2 -1.1 14.2 -1.25 14.25 -1.25 M15.1 -1.8 L15.1 -1.6 15.15 -1.7 15.35 -1.65 15.35 -1.45 Q15.35 -1.25 15.25 -1.1 L14.9 -0.95 14.55 -1.0 14.55 -1.05 Q14.65 -1.15 14.7 -1.3 14.8 -1.45 15.1 -1.45 L15.1 -1.55 14.95 -1.55 14.95 -1.8 15.1 -1.8 M15.8 -1.2 L16.6 -1.25 Q16.7 -1.1 16.7 -0.9 L17.2 -0.8 17.25 -0.7 16.75 -0.7 16.15 -1.1 15.75 -1.1 Q15.75 -1.15 15.8 -1.2 M15.8 -0.05 L15.75 0.0 16.1 0.05 16.65 0.0 16.55 -0.15 Q16.45 -0.3 16.05 -0.3 16.1 -0.4 16.25 -0.4 16.55 -0.4 17.0 -0.25 17.1 -0.25 17.4 -0.15 17.75 0.0 17.85 0.15 L17.9 0.15 Q18.25 0.3 18.2 0.3 L18.2 0.35 18.3 0.35 18.3 0.4 Q17.95 0.8 17.9 1.0 L17.8 1.1 Q17.75 1.05 17.7 0.95 L17.35 1.3 17.1 1.25 16.95 1.25 Q16.85 1.25 16.55 1.4 16.15 1.6 15.9 1.65 L15.55 1.65 Q15.5 1.25 14.85 1.15 14.7 1.0 14.55 0.9 14.25 0.8 13.6 0.8 L13.55 0.7 13.3 0.65 13.3 0.6 12.7 0.6 13.35 0.55 Q13.5 0.5 13.45 0.5 L13.45 0.4 13.9 0.3 14.05 0.2 14.55 0.25 14.9 0.2 15.05 0.15 15.0 0.15 15.25 0.05 15.7 -0.15 15.8 -0.05 M17.1 -1.05 Q17.1 -1.15 17.2 -1.2 17.55 -1.1 17.7 -1.3 17.85 -1.45 17.95 -1.75 L17.95 -1.8 Q17.95 -2.1 18.35 -2.0 18.6 -2.2 18.55 -2.35 18.75 -2.35 18.75 -2.2 18.75 -2.1 18.6 -2.0 L18.55 -1.9 Q18.65 -1.8 18.65 -1.45 18.65 -1.35 18.2 -1.15 17.7 -0.95 17.35 -1.0 17.2 -1.0 17.15 -1.05 L17.1 -1.05 M18.7 -1.0 L18.65 -1.05 18.65 -0.95 18.7 -1.0 M18.9 -6.55 L18.85 -6.6 18.85 -6.45 18.9 -6.55 M17.6 0.05 L17.7 0.15 17.75 0.15 17.6 0.05 M14.5 2.65 L14.45 2.55 13.6 2.65 13.1 2.6 Q12.85 2.5 12.8 2.45 L12.75 2.45 12.7 2.4 11.85 2.45 11.6 2.4 11.5 2.25 10.8 2.2 10.65 2.1 10.7 2.0 9.55 2.25 9.3 2.3 8.65 2.2 Q8.65 2.25 8.65 2.15 L8.65 2.05 8.7 2.1 Q9.0 2.0 9.15 1.95 L9.25 1.85 9.4 1.75 9.55 1.8 9.65 1.8 Q9.75 1.8 9.75 1.75 L9.8 1.6 10.15 1.6 10.15 1.8 10.65 1.85 10.75 2.0 10.85 2.0 11.45 1.9 11.85 1.65 11.9 1.75 12.8 1.8 Q13.05 1.8 13.5 1.6 13.75 1.45 13.9 1.7 14.1 1.7 14.1 1.8 14.15 1.85 14.3 1.85 L14.35 1.95 14.4 2.0 15.0 2.05 15.1 2.1 15.15 2.2 15.6 2.1 Q15.7 2.1 15.7 2.15 L15.25 2.45 Q14.85 2.7 14.65 2.7 14.5 2.7 14.5 2.65 M11.9 1.35 L11.3 1.35 Q11.25 1.35 11.2 1.45 L11.05 1.5 10.9 1.5 Q11.05 1.45 11.3 1.25 11.65 1.1 12.3 1.25 12.85 1.3 13.0 1.5 13.0 1.6 12.95 1.6 L12.7 1.65 Q12.55 1.65 12.4 1.55 12.25 1.45 11.9 1.45 L11.9 1.35 M11.8 2.3 L11.8 2.3 M10.05 2.35 L10.25 2.35 Q10.35 2.6 10.45 2.6 10.5 2.55 10.7 2.5 10.8 2.5 10.9 2.6 L10.6 2.7 9.45 2.7 9.35 2.6 9.4 2.55 9.85 2.45 Q9.95 2.45 10.05 2.35 M6.5 2.6 L6.7 2.7 6.9 2.7 Q7.0 2.4 7.05 2.4 7.3 2.5 7.45 2.5 L7.45 2.65 7.6 2.65 7.75 2.55 7.85 2.55 7.6 2.75 Q7.3 2.9 6.85 2.9 L6.65 2.85 6.4 2.8 6.1 2.8 6.0 2.95 5.25 2.95 5.2 2.85 Q5.25 2.8 5.45 2.7 5.65 2.65 5.65 2.5 L6.35 2.5 6.5 2.55 6.5 2.6 M3.25 2.85 L3.4 2.85 Q3.4 2.8 3.5 2.75 L3.9 2.75 3.95 2.85 4.35 2.8 4.35 2.95 4.15 2.95 3.65 3.0 Q3.2 3.0 3.0 2.85 L3.0 2.75 3.15 2.8 3.25 2.85 M-16.85 -8.05 L-16.8 -7.7 -16.8 -7.65 Q-16.7 -7.65 -16.7 -7.6 L-16.75 -7.6 -16.75 -7.5 -16.9 -7.35 Q-17.05 -7.15 -17.15 -7.15 -17.3 -7.15 -17.3 -7.3 -17.35 -7.4 -17.5 -7.4 -17.6 -7.4 -17.7 -7.35 L-17.8 -7.2 -18.1 -7.05 Q-18.2 -6.95 -18.2 -6.8 L-18.15 -6.65 Q-18.15 -6.55 -18.2 -6.45 -18.3 -6.3 -18.4 -6.3 L-18.5 -6.35 Q-18.55 -6.4 -18.6 -6.4 -18.9 -6.4 -19.0 -5.85 -19.0 -5.75 -18.9 -5.6 -18.8 -5.45 -18.8 -5.35 -18.8 -5.3 -18.85 -5.2 L-18.95 -5.05 -18.75 -5.1 -18.7 -5.1 -18.7 -5.0 Q-18.7 -4.9 -19.1 -4.75 -19.2 -4.65 -19.4 -4.6 -19.5 -4.5 -19.5 -4.4 L-19.3 -4.2 Q-19.15 -4.2 -19.1 -4.25 L-19.05 -4.2 -19.05 -4.15 Q-19.05 -3.75 -19.55 -3.85 -19.6 -3.85 -19.6 -3.7 -19.5 -3.55 -19.55 -3.4 -19.4 -3.2 -19.25 -3.1 L-19.2 -2.85 Q-19.2 -2.7 -19.0 -2.65 L-18.8 -2.65 Q-18.7 -2.65 -18.55 -2.45 L-18.4 -2.25 Q-18.4 -2.15 -18.7 -2.1 -18.7 -2.05 -18.85 -1.55 L-18.95 -1.55 Q-19.0 -1.6 -19.0 -1.65 -19.1 -1.55 -19.1 -1.4 -19.1 -1.25 -18.85 -1.15 -18.55 -1.0 -18.25 -1.0 -18.1 -1.0 -18.1 -1.1 L-18.1 -1.2 -17.95 -1.25 -17.95 -1.2 Q-17.95 -0.9 -18.25 -0.45 L-18.1 -0.45 Q-18.05 -0.55 -18.05 -0.4 -18.05 -0.35 -18.15 -0.2 L-18.2 0.0 Q-18.2 0.15 -18.1 0.2 L-17.95 0.2 -17.95 0.3 -17.85 0.3 -18.0 0.5 -18.6 0.45 Q-18.8 0.3 -18.8 -0.05 -18.9 -0.2 -19.7 -0.4 -19.8 -0.55 -19.85 -0.85 L-20.1 -1.05 Q-20.2 -1.1 -20.4 -1.05 -20.55 -1.25 -20.6 -1.55 -20.7 -1.95 -20.8 -2.1 L-21.15 -2.65 Q-21.35 -2.95 -21.35 -3.15 -21.35 -3.25 -21.2 -3.5 -21.2 -3.6 -21.25 -3.85 -21.25 -4.0 -21.0 -4.45 -20.75 -4.85 -20.75 -5.0 -20.75 -5.15 -20.85 -5.35 -20.95 -5.5 -20.95 -5.55 L-20.6 -6.05 Q-20.2 -6.5 -20.15 -6.55 -20.15 -6.65 -20.15 -6.9 L-20.15 -6.95 -20.2 -7.1 -20.1 -7.2 Q-20.0 -7.45 -19.75 -7.65 L-19.65 -7.75 Q-19.55 -7.9 -19.55 -8.05 -19.55 -8.4 -19.45 -8.5 L-19.3 -8.8 Q-19.25 -8.9 -19.1 -8.95 L-18.4 -9.15 -17.7 -9.1 Q-17.55 -9.05 -17.5 -8.7 -17.5 -8.45 -17.15 -8.35 -16.9 -8.2 -16.85 -8.05 M-17.8 -4.8 L-17.7 -4.5 Q-17.7 -4.4 -17.85 -4.2 -17.85 -4.15 -17.65 -4.1 L-17.65 -3.95 Q-17.65 -3.9 -17.85 -3.95 L-18.1 -3.95 -18.3 -4.25 Q-18.3 -4.35 -18.2 -4.55 -18.05 -4.8 -17.95 -4.8 L-17.8 -4.8 M-17.5 -4.2 L-17.55 -4.3 -17.4 -4.5 -17.3 -4.25 -17.05 -4.25 -17.05 -4.1 -17.2 -4.05 -17.4 -4.1 -17.5 -4.2 M-17.4 -1.85 L-17.25 -1.85 Q-17.15 -1.65 -17.1 -1.65 -17.1 -1.6 -17.3 -1.55 -17.25 -1.35 -16.9 -0.95 -16.6 -0.6 -16.6 -0.55 -16.6 -0.5 -16.65 -0.45 L-16.7 -0.4 Q-16.7 -0.25 -16.6 -0.2 -16.45 -0.05 -16.2 -0.15 -16.15 -0.1 -16.15 0.0 L-16.2 0.1 -16.25 0.25 -16.3 0.25 -16.25 0.4 -16.35 0.4 Q-16.45 0.4 -16.45 0.3 -16.55 0.35 -16.55 0.45 -16.6 0.55 -16.55 0.65 -16.4 0.85 -16.4 0.9 L-16.4 0.95 -16.35 0.9 Q-16.2 0.8 -16.15 0.8 -16.0 1.1 -16.0 1.15 L-15.7 1.05 -15.6 1.1 Q-15.55 1.15 -15.55 1.3 -15.55 1.35 -15.45 1.35 -15.35 1.35 -15.3 1.45 -15.2 1.6 -15.2 1.8 L-15.25 1.85 -15.25 1.8 Q-15.25 1.9 -15.3 1.9 L-15.85 1.9 -15.95 1.95 -16.25 1.95 Q-16.3 1.9 -16.55 1.85 -16.65 1.8 -16.8 1.6 L-17.1 1.25 -17.4 1.2 -17.5 1.1 -17.45 1.05 -17.5 0.95 -17.5 1.0 -17.55 1.0 -17.6 0.8 -17.65 0.65 -17.65 0.6 -17.8 0.45 -17.75 0.4 -17.75 0.35 Q-17.75 0.2 -17.65 0.05 L-17.4 -0.3 Q-17.45 -0.35 -17.65 -0.6 -17.85 -0.9 -17.85 -1.0 -17.85 -1.2 -17.55 -1.8 L-17.4 -1.85 M-5.55 2.35 Q-5.1 2.35 -5.2 2.7 L-5.15 2.8 Q-4.85 2.8 -4.85 2.7 L-4.6 2.7 Q-4.45 3.05 -4.3 3.15 -4.0 3.15 -3.9 3.05 L-3.75 3.1 Q-3.85 3.2 -4.0 3.25 L-4.5 3.25 Q-4.6 3.2 -4.7 3.05 L-5.15 3.05 -5.4 2.8 Q-5.5 2.7 -5.55 2.7 -5.65 2.7 -5.75 2.8 L-5.8 2.95 -5.85 3.05 -5.8 3.05 -5.85 3.15 Q-5.9 3.15 -6.05 3.25 L-6.45 3.3 -6.8 3.25 -7.05 3.2 -7.2 3.2 -8.6 2.95 Q-8.8 2.85 -8.8 2.65 -8.8 2.55 -8.75 2.45 L-8.65 2.5 -8.4 2.55 -8.4 2.5 -8.35 2.5 -8.15 2.55 -8.0 2.55 Q-8.0 2.5 -7.8 2.5 -7.75 2.4 -7.7 2.4 -7.6 2.35 -7.3 2.5 -7.25 2.55 -7.25 2.7 L-7.0 2.75 -7.0 2.7 -6.8 2.7 -6.8 2.75 -6.75 2.8 -6.6 3.0 -6.0 3.05 Q-6.0 2.85 -5.95 2.8 L-5.95 2.75 Q-5.85 2.7 -5.8 2.5 L-5.75 2.4 Q-5.7 2.3 -5.55 2.35 M-6.65 1.2 Q-6.65 1.25 -6.7 1.3 L-6.85 1.3 Q-7.0 1.25 -7.0 1.2 L-7.0 1.1 Q-6.7 1.05 -6.65 1.2 M-7.55 0.65 Q-7.55 0.85 -7.65 0.95 L-7.75 0.9 -7.85 0.8 Q-7.85 0.65 -7.7 0.65 L-7.55 0.65 M-8.4 1.1 Q-8.0 0.9 -7.95 0.9 L-7.95 1.0 Q-7.95 1.25 -8.6 1.3 L-9.0 1.3 -9.1 1.15 Q-9.1 0.9 -9.0 0.9 L-8.85 0.9 -8.6 1.05 -8.4 1.1 M-11.05 2.55 Q-10.75 2.65 -10.5 2.75 -10.2 2.75 -9.85 2.65 -9.7 2.7 -9.55 2.8 L-9.2 2.75 -9.15 2.8 Q-9.2 2.85 -9.25 2.85 L-9.75 2.85 -10.0 3.05 Q-10.2 3.3 -10.6 3.3 L-11.2 3.25 -11.25 3.15 -11.5 3.2 Q-11.65 3.2 -11.75 3.05 L-12.25 3.15 Q-12.6 3.15 -12.6 3.1 -12.75 3.05 -12.9 2.95 L-13.15 2.8 Q-13.25 2.75 -13.35 2.6 L-13.55 2.4 -13.7 2.4 -13.7 2.55 -14.55 2.55 Q-14.7 2.5 -14.75 2.35 L-14.75 2.2 Q-15.0 1.9 -15.05 1.8 L-15.2 1.35 -15.35 1.0 Q-15.35 0.9 -15.05 0.65 -14.85 0.45 -14.95 0.3 L-14.9 0.3 Q-14.8 0.35 -14.8 0.5 L-14.8 0.65 -14.85 0.65 Q-14.85 0.9 -14.6 1.0 -14.2 1.15 -14.2 1.2 -14.15 1.2 -14.15 1.35 -14.15 1.45 -14.1 1.55 L-13.95 1.7 Q-13.9 1.85 -13.75 1.85 L-13.25 1.85 -13.15 1.7 -13.05 1.7 Q-12.85 1.8 -12.75 1.7 -12.7 1.85 -12.75 1.95 L-12.75 2.1 -12.7 2.15 -11.75 2.1 Q-11.7 1.95 -11.75 1.9 L-11.75 1.75 Q-11.6 1.8 -11.5 1.95 L-11.35 2.3 -11.2 2.35 -11.15 2.4 -11.1 2.35 -11.05 2.55 M-11.3 3.1 L-11.3 3.15 -11.25 3.15 -11.3 3.1" fill="#ffffff" fill-opacity="0.9019608" fill-rule="evenodd" stroke="none"/>
  </g>
</svg>
