<?xml version="1.0" encoding="UTF-8" standalone="no"?>
<svg xmlns:ffdec="https://www.free-decompiler.com/flash" xmlns:xlink="http://www.w3.org/1999/xlink" ffdec:objectType="shape" height="27.5px" width="29.85px" xmlns="http://www.w3.org/2000/svg">
  <g transform="matrix(1.0, 0.0, 0.0, 1.0, 3.85, 33.3)">
    <path d="M24.25 -31.0 L24.25 -30.5 24.3 -30.45 Q25.05 -30.3 25.45 -29.95 25.65 -29.75 25.9 -29.25 25.95 -29.1 25.95 -28.9 L25.95 -28.55 26.0 -27.9 25.95 -27.65 25.95 -27.6 Q25.8 -27.7 25.75 -28.0 L25.65 -28.45 25.4 -28.9 Q25.2 -29.15 25.05 -29.15 L24.85 -29.15 24.65 -29.3 Q24.45 -29.45 24.3 -29.45 24.1 -29.45 24.05 -29.3 L24.05 -29.1 24.0 -28.95 23.9 -28.75 23.9 -28.7 23.85 -28.65 23.3 -28.4 Q22.8 -28.2 22.55 -28.2 22.1 -28.2 21.8 -28.5 21.5 -28.75 21.3 -28.75 20.75 -28.75 20.75 -28.45 20.75 -28.4 20.8 -28.3 L20.9 -28.1 20.9 -28.05 20.85 -28.05 Q20.5 -28.35 20.4 -28.8 20.25 -29.45 20.2 -29.6 L20.2 -29.75 20.3 -29.8 Q20.55 -29.8 20.6 -29.6 L20.7 -29.35 Q20.75 -29.2 20.9 -29.15 L22.1 -29.05 22.4 -29.1 22.8 -29.25 Q22.95 -29.25 23.0 -29.3 L23.05 -29.4 23.1 -29.9 Q23.1 -30.1 23.05 -30.3 22.95 -30.5 22.95 -30.65 22.95 -30.75 23.05 -30.8 L23.25 -30.95 23.5 -31.05 23.85 -31.2 24.05 -31.15 24.25 -31.0 M5.7 -28.9 Q5.85 -29.15 6.15 -29.45 L6.4 -29.7 6.6 -29.85 6.75 -29.85 7.05 -29.55 7.4 -29.55 Q7.8 -29.95 8.1 -30.15 8.65 -30.5 9.5 -30.65 L9.65 -30.65 9.7 -30.55 Q9.75 -30.5 9.85 -30.45 L10.45 -30.55 11.05 -30.6 11.15 -30.6 Q11.15 -30.55 11.35 -30.45 11.2 -30.3 10.9 -30.25 L10.55 -30.25 Q10.35 -30.2 10.0 -30.0 9.75 -29.85 9.45 -29.85 L8.85 -29.75 8.7 -29.65 8.55 -29.5 8.4 -29.4 Q8.25 -29.35 8.25 -29.25 L8.15 -29.1 Q8.1 -29.0 7.75 -28.85 7.3 -28.65 6.9 -28.55 6.5 -28.25 6.55 -27.95 6.55 -27.8 6.5 -27.6 6.45 -27.45 6.35 -27.3 L6.15 -27.3 6.05 -27.15 6.0 -27.05 6.05 -26.9 6.05 -26.7 Q6.05 -26.65 6.15 -26.6 L6.35 -26.4 6.65 -26.45 6.7 -26.55 6.85 -26.4 6.85 -26.45 Q7.95 -26.55 8.5 -26.65 9.55 -26.95 9.55 -27.45 L9.45 -27.8 Q9.45 -28.0 9.5 -28.1 9.8 -28.25 9.9 -28.45 9.95 -28.7 10.15 -28.8 L10.5 -28.85 10.6 -28.8 10.75 -28.7 10.95 -28.7 Q11.85 -28.8 12.4 -29.2 12.75 -29.55 12.75 -29.85 12.75 -29.95 12.65 -30.1 L12.45 -30.35 Q12.6 -30.55 12.55 -30.65 12.5 -30.9 12.55 -31.0 12.6 -31.1 12.8 -31.25 L13.15 -31.5 13.9 -32.2 Q14.35 -32.65 14.5 -32.65 14.6 -32.65 14.65 -32.6 L14.7 -32.4 14.85 -32.3 15.05 -32.2 16.2 -32.65 Q16.75 -32.85 17.15 -33.05 L17.3 -33.05 17.4 -32.9 17.5 -32.7 17.45 -32.6 Q17.4 -32.55 17.4 -32.5 17.4 -32.35 17.55 -32.25 L18.1 -32.1 18.3 -32.0 18.55 -32.0 18.55 -31.9 18.65 -31.9 19.05 -32.3 Q19.15 -32.45 19.15 -32.7 L19.1 -32.8 Q19.05 -32.85 19.05 -32.9 19.05 -33.05 19.3 -33.15 19.6 -33.3 20.0 -33.3 L20.1 -33.3 Q20.3 -33.1 20.45 -32.8 L20.8 -32.3 20.95 -32.0 Q21.2 -31.5 21.3 -30.9 L21.35 -30.75 21.35 -30.7 20.9 -31.35 Q20.6 -31.8 20.2 -32.1 L20.1 -32.05 20.1 -31.9 Q20.05 -31.75 19.9 -31.75 19.85 -31.65 19.65 -31.55 L19.25 -31.4 Q19.2 -31.25 19.15 -31.2 19.05 -31.1 18.75 -31.1 18.3 -31.1 18.15 -31.25 18.05 -31.3 17.95 -31.5 L17.05 -31.45 16.9 -31.3 16.95 -31.2 17.05 -31.1 Q17.05 -30.9 16.85 -30.7 L16.6 -30.65 15.75 -30.75 Q15.5 -30.95 15.15 -31.1 14.9 -31.05 14.4 -30.65 13.95 -30.3 13.95 -30.15 13.95 -30.1 14.2 -29.75 L14.45 -29.4 14.7 -29.4 14.95 -29.5 15.05 -29.5 15.15 -29.45 15.15 -29.3 Q15.15 -28.85 15.1 -28.75 15.05 -28.65 14.8 -28.5 L14.4 -28.1 14.35 -28.1 14.4 -28.15 14.3 -28.1 Q14.0 -27.85 13.8 -27.8 13.75 -27.8 13.45 -27.9 L13.05 -28.05 12.75 -28.05 Q12.7 -27.85 12.35 -27.75 L11.85 -27.7 11.45 -27.55 Q11.15 -27.4 10.95 -27.35 L10.85 -27.3 10.85 -27.2 11.4 -27.3 11.4 -27.2 Q11.4 -27.15 11.3 -27.1 L11.0 -26.9 10.85 -26.7 10.7 -26.55 Q10.25 -26.25 9.75 -26.05 L8.5 -25.55 Q7.5 -25.1 7.15 -25.1 L6.75 -25.15 6.45 -25.5 6.15 -25.4 5.9 -25.2 6.0 -25.05 Q6.05 -25.0 6.0 -24.95 L6.35 -24.85 7.05 -24.75 Q7.15 -24.5 7.15 -24.35 L7.15 -24.3 Q5.8 -24.25 4.5 -23.95 3.3 -23.65 2.55 -23.65 L2.15 -23.6 2.15 -23.55 2.55 -23.5 2.7 -23.35 2.85 -23.25 2.7 -23.15 2.65 -23.05 2.4 -23.05 Q2.1 -23.05 2.05 -23.15 1.95 -23.25 1.8 -23.25 1.6 -23.25 1.45 -22.9 L1.35 -22.55 1.35 -22.3 1.25 -22.0 1.15 -21.75 1.15 -21.45 1.2 -21.25 1.2 -21.15 1.15 -21.1 1.05 -21.15 0.9 -21.2 0.8 -21.2 0.75 -21.3 0.8 -21.35 Q0.75 -21.4 0.75 -21.5 L0.8 -21.8 0.5 -21.85 0.4 -21.85 Q0.35 -22.1 0.35 -22.2 0.35 -22.3 0.4 -22.55 0.5 -22.8 0.6 -22.8 L0.95 -23.85 1.05 -24.0 Q1.15 -24.15 1.3 -24.25 L1.7 -24.5 Q2.0 -24.65 2.15 -24.6 L2.2 -24.55 2.05 -24.4 2.15 -24.4 2.15 -24.35 Q2.35 -24.4 2.55 -24.6 L3.25 -25.15 Q3.65 -25.4 4.2 -25.6 4.45 -25.7 4.9 -26.05 5.4 -26.45 5.4 -26.6 L5.35 -26.75 5.15 -26.8 5.05 -26.95 5.1 -27.15 5.2 -27.4 5.4 -27.5 5.5 -27.6 5.4 -27.75 5.0 -27.7 Q4.9 -27.8 4.9 -27.95 4.9 -28.2 5.1 -28.35 5.45 -28.6 5.7 -28.9 M15.55 -28.8 L15.5 -28.95 Q15.5 -29.15 15.6 -29.4 15.75 -29.7 16.0 -29.75 L16.3 -29.7 16.55 -29.45 Q16.8 -29.25 16.95 -29.25 17.1 -29.25 17.3 -29.6 17.45 -29.9 18.0 -29.75 18.1 -29.6 18.3 -29.1 L18.45 -28.5 Q18.45 -28.35 18.35 -28.25 18.3 -28.1 18.3 -28.05 18.3 -27.95 18.35 -27.9 18.4 -27.75 18.6 -27.75 19.1 -27.75 19.4 -27.9 L19.65 -28.1 19.5 -28.2 Q19.5 -28.3 19.7 -28.4 L19.95 -28.6 20.1 -28.55 19.95 -28.3 19.95 -28.15 19.9 -28.15 19.85 -28.0 Q19.7 -27.7 19.0 -27.55 L19.0 -27.5 Q18.4 -27.55 18.25 -27.75 18.15 -27.85 18.15 -28.05 L18.25 -28.35 Q18.25 -28.45 17.45 -29.45 17.35 -29.45 17.25 -29.3 L17.15 -29.15 Q16.8 -29.15 16.65 -29.25 L16.45 -29.4 16.15 -29.35 Q15.9 -29.05 15.9 -29.0 15.9 -28.9 16.2 -28.75 16.5 -28.65 16.55 -28.5 L16.8 -28.5 Q16.85 -28.4 16.9 -28.2 16.9 -28.05 17.15 -28.05 L17.3 -28.05 17.25 -27.95 17.0 -27.9 16.55 -27.9 Q16.4 -28.05 16.45 -28.3 16.35 -28.55 15.7 -28.55 L15.55 -28.8 M22.6 -26.7 Q22.9 -26.25 23.15 -26.1 23.35 -26.05 23.45 -26.1 23.6 -26.2 23.7 -26.2 24.2 -26.2 24.4 -25.6 24.4 -25.3 24.25 -25.1 L24.15 -24.8 Q24.15 -24.7 24.35 -24.55 24.55 -24.4 24.6 -24.2 L24.6 -23.65 Q24.6 -23.5 24.55 -23.15 L24.45 -22.85 24.3 -22.7 24.2 -22.5 Q24.0 -22.65 24.0 -22.9 L23.95 -23.35 23.85 -23.75 Q23.75 -24.05 23.65 -24.15 L23.25 -24.25 23.0 -24.75 Q22.75 -25.15 22.35 -25.15 22.05 -24.8 22.0 -24.65 L21.6 -24.2 21.25 -24.15 Q21.0 -24.15 20.7 -24.3 20.35 -24.55 20.05 -24.6 L19.9 -24.6 19.9 -24.3 Q19.9 -24.25 20.1 -23.95 20.25 -23.7 20.25 -23.5 20.25 -23.4 20.15 -23.25 L19.85 -23.0 19.6 -23.0 Q18.65 -23.3 18.65 -23.95 L18.7 -24.1 18.75 -24.3 Q18.75 -24.35 18.6 -24.6 L18.45 -24.9 Q18.2 -24.95 18.1 -24.8 17.95 -24.65 17.8 -24.65 L17.1 -24.75 17.0 -24.8 16.7 -24.9 16.3 -25.05 16.15 -25.25 Q16.05 -25.4 15.75 -25.35 L15.65 -25.4 15.1 -25.4 14.85 -25.45 14.15 -25.4 Q14.05 -25.3 13.85 -25.3 L13.85 -25.25 Q14.1 -25.25 14.1 -25.2 L14.0 -25.05 13.8 -25.0 13.7 -24.95 13.1 -25.05 12.9 -25.0 12.7 -24.9 Q12.65 -24.9 12.6 -25.0 L12.35 -24.9 12.2 -24.95 Q12.1 -25.0 12.1 -25.1 12.1 -25.2 12.25 -25.3 L12.0 -25.45 11.8 -25.45 11.8 -25.4 11.75 -25.45 11.7 -25.45 11.65 -25.5 11.35 -25.55 11.0 -25.4 Q10.7 -25.3 10.45 -25.3 10.1 -25.3 9.9 -25.2 9.65 -25.1 9.6 -25.1 L9.3 -25.1 9.3 -25.15 Q9.3 -25.2 10.15 -25.6 10.35 -25.7 10.5 -25.85 L10.75 -26.1 Q10.85 -26.15 11.2 -26.0 11.3 -26.0 12.05 -26.3 12.8 -26.65 13.15 -26.65 L13.45 -26.6 13.7 -26.55 14.25 -26.6 Q14.4 -26.7 14.55 -26.95 14.8 -27.15 15.25 -27.15 L15.3 -27.15 15.35 -27.05 15.3 -27.0 15.2 -26.95 15.55 -26.75 Q15.7 -26.65 15.85 -26.6 L15.8 -26.65 15.8 -26.7 Q16.65 -26.25 16.95 -26.25 17.5 -26.25 17.6 -26.5 L17.7 -26.85 Q18.1 -26.7 18.8 -26.4 L19.2 -26.15 Q19.5 -26.0 19.7 -26.0 19.9 -26.0 19.95 -26.1 20.0 -26.15 20.0 -26.2 L19.9 -26.5 19.8 -26.75 Q19.8 -26.9 19.95 -27.05 L20.1 -27.2 Q20.15 -27.25 20.3 -27.25 L20.7 -27.35 21.45 -27.5 Q21.45 -27.65 21.65 -27.55 22.05 -27.4 22.2 -27.35 L22.6 -26.7 M19.75 -21.3 Q19.75 -21.2 19.85 -21.0 20.0 -20.7 20.2 -20.7 L20.35 -20.75 Q20.4 -20.75 20.4 -20.8 20.4 -20.9 20.5 -20.9 L20.55 -20.85 20.55 -20.75 Q20.55 -20.35 20.1 -20.25 L19.95 -20.25 Q19.75 -20.4 19.6 -20.8 19.4 -21.15 19.4 -21.35 19.4 -21.65 19.55 -21.95 19.7 -22.35 20.0 -22.5 L20.9 -22.4 21.45 -22.5 21.65 -22.8 Q21.8 -23.05 21.8 -23.15 L21.75 -23.5 Q21.7 -23.75 21.6 -23.85 L21.5 -23.85 21.4 -23.7 Q21.3 -23.6 21.3 -23.55 21.2 -23.65 21.2 -23.75 21.2 -23.9 21.35 -24.05 L21.5 -24.15 21.7 -24.15 21.85 -23.85 21.95 -23.5 Q21.95 -22.5 21.05 -22.1 L20.75 -22.2 Q20.25 -22.2 19.95 -21.8 19.75 -21.5 19.75 -21.3 M21.5 -24.0 L21.5 -24.0 M14.15 -23.95 Q14.25 -24.2 14.55 -24.35 14.95 -24.55 15.25 -24.25 L15.75 -23.8 15.85 -23.95 Q15.95 -24.05 16.05 -24.05 L16.15 -24.05 16.25 -24.0 Q16.75 -23.7 17.05 -22.75 17.3 -21.95 17.3 -21.3 L17.25 -21.05 17.15 -21.05 Q16.95 -21.25 16.55 -21.7 16.25 -22.05 15.95 -21.95 15.7 -22.15 15.6 -22.65 15.5 -23.15 15.1 -23.35 L14.75 -23.35 14.65 -23.15 Q14.6 -23.05 14.5 -23.0 L14.2 -22.9 13.95 -22.8 13.6 -22.85 12.9 -22.85 Q12.35 -22.9 12.15 -23.2 12.0 -23.45 11.85 -23.45 11.85 -23.25 11.75 -23.1 L11.5 -23.15 Q11.4 -23.35 11.4 -23.4 11.4 -23.5 11.5 -23.65 11.7 -23.9 12.1 -23.9 12.25 -23.9 12.7 -23.7 13.15 -23.55 13.6 -23.55 13.9 -23.55 14.05 -23.7 L14.15 -23.95 M11.95 -16.0 L12.05 -15.9 12.1 -15.75 12.25 -15.65 12.35 -15.7 12.5 -15.75 12.65 -15.5 12.6 -15.3 12.6 -15.25 Q12.6 -15.15 12.45 -15.0 L12.35 -15.0 12.35 -15.05 12.35 -15.1 12.25 -15.15 Q12.05 -15.2 12.0 -15.25 L11.7 -15.25 11.45 -15.05 Q11.3 -14.9 11.3 -14.8 L11.35 -14.4 Q11.35 -14.1 10.95 -13.65 10.7 -13.6 10.6 -13.5 L10.45 -13.4 10.15 -13.45 10.0 -13.6 9.9 -13.65 Q9.8 -13.55 9.75 -13.4 9.7 -13.25 9.75 -13.15 L9.75 -13.1 Q9.6 -13.25 9.6 -13.4 9.6 -13.5 9.65 -13.65 9.75 -13.8 9.85 -13.8 L10.0 -13.9 10.1 -13.9 10.2 -13.7 Q10.75 -13.85 10.8 -14.25 L10.85 -14.6 Q10.9 -14.8 10.95 -14.9 10.9 -15.2 11.1 -15.5 11.35 -15.9 11.8 -16.0 L11.95 -16.0 M12.2 -14.3 L12.35 -14.25 12.45 -14.3 Q12.5 -14.1 12.5 -13.85 12.5 -13.7 12.45 -13.6 L12.55 -13.55 Q12.6 -13.55 12.65 -13.65 L12.75 -13.7 Q12.9 -13.7 12.95 -13.35 12.95 -13.2 12.8 -12.95 12.65 -12.75 12.65 -12.6 12.65 -12.55 12.75 -12.45 12.9 -12.35 12.9 -12.25 12.9 -12.1 12.75 -11.9 12.5 -11.65 12.1 -11.7 L12.05 -11.6 12.05 -11.45 12.1 -11.4 12.2 -11.45 12.35 -11.45 12.5 -11.35 12.5 -11.25 Q12.5 -11.05 12.5 -10.95 12.45 -10.8 12.2 -10.75 L12.15 -10.75 12.15 -10.8 12.4 -11.05 12.4 -11.1 11.95 -11.1 Q11.65 -11.4 11.65 -11.5 11.65 -11.6 11.8 -11.8 11.9 -12.0 11.95 -12.05 L12.3 -12.1 Q12.45 -12.1 12.5 -12.15 L12.55 -12.3 Q12.55 -12.35 12.4 -12.55 12.3 -12.7 12.3 -12.8 12.3 -12.9 12.35 -12.95 L12.55 -13.25 12.25 -13.45 Q12.15 -13.55 12.15 -13.65 L12.2 -13.85 Q12.3 -14.0 12.3 -14.1 L12.3 -14.15 Q12.25 -14.1 12.1 -14.05 L12.0 -13.9 11.9 -14.0 Q11.9 -14.05 12.05 -14.15 L12.2 -14.3 M13.8 -14.6 L14.15 -14.5 Q14.7 -15.0 14.6 -15.4 14.65 -15.45 14.65 -15.8 14.75 -16.1 15.3 -16.1 15.95 -16.1 16.05 -15.75 L15.95 -15.4 Q15.95 -15.3 16.0 -15.3 16.05 -15.2 16.3 -15.2 16.55 -15.3 16.8 -15.55 L17.55 -16.45 17.7 -16.3 17.85 -16.0 17.85 -15.95 17.8 -15.9 17.65 -15.95 17.65 -16.05 17.6 -16.2 17.2 -15.75 Q16.95 -15.45 16.9 -15.25 16.8 -14.9 16.7 -14.75 16.5 -14.45 16.05 -14.35 L15.95 -14.35 Q15.7 -14.5 15.6 -14.75 15.55 -15.0 15.6 -15.2 L15.55 -15.3 15.2 -15.25 Q15.1 -15.15 15.05 -14.9 L15.0 -14.55 Q14.85 -14.3 14.55 -14.15 14.2 -14.05 14.05 -14.0 L14.25 -13.8 14.25 -13.55 Q14.25 -13.3 14.1 -13.0 13.9 -12.75 13.65 -12.75 L13.4 -12.75 13.8 -13.1 13.85 -13.35 13.8 -13.6 Q13.35 -13.6 13.25 -13.7 13.2 -13.7 13.2 -13.85 13.2 -14.2 13.3 -14.35 13.45 -14.55 13.8 -14.6 M22.25 -19.45 L22.35 -19.35 22.75 -19.4 Q23.2 -19.4 23.3 -19.15 L23.3 -18.85 23.4 -18.3 Q23.4 -17.9 23.1 -17.65 22.75 -17.4 22.75 -17.1 22.75 -17.0 22.85 -16.85 22.95 -16.75 22.95 -16.6 22.95 -16.25 22.5 -15.75 22.1 -15.25 21.65 -15.0 L21.55 -15.1 21.55 -15.15 Q21.55 -15.35 21.75 -15.55 21.9 -15.8 21.9 -16.05 21.9 -16.3 21.8 -16.35 L21.05 -16.65 Q20.85 -16.7 20.9 -16.95 20.9 -17.25 20.75 -17.35 L20.6 -17.4 Q20.3 -17.3 20.15 -17.15 L20.05 -17.0 20.0 -16.8 Q19.95 -16.7 19.65 -16.55 19.35 -16.35 19.1 -16.35 18.55 -16.35 18.2 -16.7 17.9 -17.05 17.9 -17.4 17.9 -17.55 17.95 -17.75 18.0 -17.9 18.0 -18.15 18.1 -18.45 18.15 -18.65 18.2 -18.7 18.2 -18.9 L18.2 -19.25 Q18.15 -19.4 18.0 -19.55 L17.8 -19.5 Q17.75 -19.5 17.7 -19.35 17.65 -19.25 17.45 -19.2 17.4 -19.45 17.4 -19.75 17.4 -20.1 17.5 -20.2 17.8 -20.45 18.05 -20.8 18.5 -21.45 18.7 -20.35 18.65 -20.3 18.5 -19.0 18.5 -18.7 18.6 -18.4 18.75 -17.85 19.05 -17.85 19.8 -17.85 20.15 -18.05 20.3 -18.1 20.45 -18.3 L20.8 -18.5 Q21.0 -18.65 21.0 -18.75 21.05 -19.25 22.15 -19.5 L22.25 -19.45 M19.2 -16.0 L19.25 -15.9 Q19.25 -15.8 19.2 -15.75 L19.15 -15.6 Q19.15 -15.15 19.65 -15.15 19.95 -15.15 20.0 -15.25 20.05 -15.3 20.15 -15.3 L20.25 -14.7 Q20.25 -14.3 19.95 -13.8 19.55 -13.25 19.0 -13.0 L18.9 -13.0 Q18.75 -13.0 18.75 -13.05 L18.75 -13.15 19.0 -13.45 Q19.25 -13.8 19.25 -14.05 19.25 -14.15 19.25 -14.1 18.95 -14.15 18.8 -14.35 L18.65 -14.65 18.6 -14.95 18.55 -15.2 Q18.55 -15.3 18.7 -15.5 L18.9 -15.85 18.75 -16.0 18.6 -16.0 18.5 -15.8 18.5 -15.75 Q18.4 -15.85 18.4 -16.0 18.4 -16.05 18.65 -16.2 L19.15 -16.15 19.2 -16.0 M9.05 -24.8 L9.1 -24.7 9.15 -24.55 9.35 -24.3 9.6 -24.05 10.0 -24.05 10.15 -24.2 10.35 -24.35 Q10.7 -24.35 10.8 -24.05 L10.8 -24.0 10.65 -24.15 Q10.55 -24.2 10.45 -24.2 10.4 -24.2 10.25 -24.15 L10.05 -23.95 9.55 -23.95 Q9.2 -24.05 8.95 -24.3 L8.6 -24.7 Q8.0 -24.65 7.9 -24.4 L7.8 -24.0 7.8 -23.95 Q7.65 -24.05 7.65 -24.3 7.65 -24.75 8.0 -25.05 8.35 -25.35 8.75 -25.1 L8.9 -25.0 9.05 -24.8 M9.7 -25.25 L9.65 -25.25 Q9.8 -25.25 9.85 -25.35 L9.7 -25.25 M7.4 -23.25 Q7.4 -23.2 6.95 -22.95 6.45 -22.7 6.35 -22.55 6.2 -22.3 5.9 -22.05 5.6 -21.8 5.3 -21.8 L5.05 -21.8 Q4.95 -21.9 4.95 -22.1 L4.75 -21.8 Q4.5 -21.55 4.05 -21.45 L3.95 -21.4 3.9 -21.3 3.75 -21.3 Q3.7 -21.35 3.7 -21.45 3.7 -21.6 3.85 -21.65 4.15 -21.7 4.4 -22.0 L4.45 -22.4 Q4.45 -22.65 4.85 -22.65 L5.15 -22.55 5.25 -22.5 Q5.65 -22.5 5.75 -22.6 L6.05 -23.0 Q6.1 -23.1 6.45 -23.25 L6.85 -23.35 7.25 -23.4 7.35 -23.35 7.4 -23.25 M9.4 -24.1 L9.45 -24.1 Q9.35 -24.15 9.25 -24.2 L9.4 -24.1 M3.35 -27.35 Q3.95 -27.35 4.1 -27.2 L4.15 -27.05 4.15 -27.0 Q2.9 -26.65 1.8 -26.65 L1.5 -26.6 Q1.15 -26.25 0.55 -26.05 0.1 -25.9 -0.05 -25.75 L-0.4 -25.45 -0.45 -25.4 0.05 -25.5 0.1 -25.5 0.1 -25.4 0.05 -25.3 0.05 -24.95 Q0.05 -24.7 -0.3 -24.3 -0.65 -24.0 -0.85 -23.9 L-0.9 -23.85 -0.75 -23.9 -0.6 -23.9 -0.55 -23.85 -0.65 -23.5 Q-0.8 -23.3 -1.05 -23.2 L-1.1 -23.1 -1.05 -23.1 Q-1.3 -23.0 -1.45 -22.85 -1.6 -22.7 -1.8 -22.65 L-1.85 -22.65 Q-1.9 -22.65 -1.9 -22.75 L-1.75 -23.0 -1.5 -23.35 Q-1.25 -23.5 -1.2 -23.6 L-1.2 -23.55 -1.35 -23.35 -1.3 -23.3 -1.2 -23.3 Q-1.05 -23.3 -0.85 -23.45 -0.75 -23.55 -0.7 -23.6 L-0.7 -23.65 -1.0 -23.7 -1.05 -23.75 -1.1 -23.85 -1.1 -23.75 -1.15 -23.6 -1.15 -23.65 Q-1.15 -23.7 -1.2 -23.9 -1.2 -24.0 -0.95 -24.25 L-0.7 -24.45 Q-0.7 -24.55 -0.8 -24.65 -0.9 -24.75 -0.95 -24.75 -1.05 -24.75 -1.15 -24.65 -1.25 -24.6 -1.3 -24.55 L-1.45 -24.55 -1.45 -24.65 -1.35 -25.0 Q-1.3 -25.3 -1.25 -25.35 L-1.1 -25.35 -0.95 -25.6 Q-0.8 -25.85 -0.8 -25.9 L-0.85 -26.05 -0.9 -26.25 Q-0.9 -26.35 -0.8 -26.45 -0.7 -26.6 -0.55 -26.6 -0.4 -26.6 -0.3 -26.4 0.2 -26.45 0.55 -26.7 L1.05 -27.05 1.8 -27.4 Q2.2 -27.5 2.8 -27.55 L2.8 -27.45 2.75 -27.35 2.7 -27.3 Q2.75 -27.25 2.85 -27.25 L3.35 -27.35 M1.65 -24.25 L1.85 -24.25 1.85 -24.35 1.6 -24.25 1.65 -24.25 M0.8 -23.15 L0.75 -22.95 0.75 -23.0 0.8 -23.15 M1.3 -22.7 L1.3 -22.7 M0.5 -22.05 L0.45 -22.2 Q0.45 -22.1 0.55 -22.05 L0.5 -22.05 M3.0 -19.25 Q2.8 -19.1 2.75 -18.75 2.75 -18.55 2.55 -18.4 2.35 -18.25 2.35 -18.2 L2.3 -17.95 2.3 -17.85 2.25 -17.7 Q2.25 -17.6 2.35 -17.3 2.45 -17.0 2.45 -16.9 L2.25 -16.5 2.1 -16.5 Q2.05 -16.55 2.05 -16.75 1.95 -16.7 1.85 -16.4 1.7 -16.1 1.7 -16.05 1.7 -16.0 1.75 -16.0 L1.8 -15.9 1.75 -15.8 1.6 -15.7 1.6 -15.55 Q1.6 -15.4 1.5 -15.35 L1.15 -15.05 1.0 -15.05 1.0 -15.1 0.9 -15.05 Q0.8 -15.15 0.75 -15.3 L0.55 -15.7 Q0.45 -15.85 0.45 -15.9 L0.4 -15.85 0.45 -15.05 0.4 -14.75 Q0.4 -14.6 0.25 -14.45 L0.2 -14.45 Q0.15 -14.45 0.1 -14.45 L0.05 -14.45 0.0 -14.05 Q0.0 -13.95 -0.15 -13.8 L-0.4 -13.55 -0.5 -13.6 -0.85 -13.85 Q-1.15 -14.05 -1.2 -14.25 L-1.3 -14.25 -1.4 -14.15 -1.5 -14.15 -1.7 -14.4 -1.75 -14.35 -1.9 -14.35 -1.95 -14.4 -2.0 -14.4 -2.0 -14.65 Q-2.05 -14.75 -2.3 -14.8 L-2.4 -14.95 Q-2.5 -15.0 -2.5 -15.1 -2.95 -15.05 -3.0 -15.25 -3.0 -15.35 -2.95 -15.55 -2.95 -15.6 -3.05 -15.75 -3.15 -15.85 -3.25 -15.85 L-3.35 -15.85 -3.45 -15.7 Q-3.65 -15.7 -3.7 -15.95 L-3.55 -16.7 -3.6 -16.8 -3.7 -16.8 Q-3.8 -17.0 -3.85 -17.15 L-3.85 -17.5 -3.8 -18.0 Q-3.75 -18.35 -3.75 -18.5 -3.8 -18.8 -3.75 -19.0 -3.65 -19.25 -3.5 -19.3 L-3.45 -19.3 -3.3 -19.35 -3.3 -19.05 -3.35 -18.8 -3.35 -18.15 -3.25 -17.75 Q-3.2 -17.45 -3.2 -17.3 L-3.15 -17.1 Q-3.05 -16.95 -3.05 -16.85 L-2.85 -16.9 Q-2.75 -16.9 -2.75 -16.65 L-2.7 -16.3 -2.45 -15.75 -2.25 -15.7 -2.15 -15.7 Q-2.15 -15.75 -2.1 -15.9 -2.1 -16.0 -2.0 -16.0 L-1.95 -15.9 Q-1.8 -15.95 -1.7 -16.1 L-1.65 -16.25 -1.6 -16.3 -1.55 -16.25 -1.45 -16.3 -1.3 -16.65 Q-1.15 -17.05 -1.15 -17.2 -1.1 -17.7 -1.0 -17.9 -0.85 -18.15 -0.5 -18.15 L-0.35 -18.1 -0.35 -18.05 -0.25 -18.05 -0.2 -18.1 -0.2 -18.15 -0.05 -18.15 -0.05 -18.1 0.1 -18.0 0.15 -18.0 0.25 -18.05 0.2 -18.1 0.3 -18.05 0.3 -18.2 0.2 -18.4 0.15 -18.4 Q0.05 -18.55 -0.05 -18.55 L-0.1 -18.65 Q-0.1 -18.75 0.0 -18.85 0.1 -18.95 0.1 -19.05 L0.1 -19.2 0.0 -19.4 -0.3 -19.7 -0.65 -19.45 Q-1.0 -19.15 -1.2 -19.05 L-1.4 -19.05 Q-1.6 -19.15 -1.6 -19.2 L-1.45 -19.65 -1.6 -19.95 Q-1.7 -20.0 -1.8 -19.9 -2.25 -19.95 -2.25 -20.4 -2.25 -20.6 -2.0 -21.15 L-1.7 -21.75 Q-1.65 -21.7 -1.65 -21.6 L-1.9 -20.7 Q-1.9 -20.6 -1.8 -20.55 -1.75 -20.5 -1.7 -20.5 -1.65 -20.5 -1.55 -20.55 -1.45 -20.6 -1.4 -20.6 -1.35 -20.6 -1.25 -20.45 L-1.1 -20.15 -1.1 -19.9 Q-1.1 -19.8 -0.85 -19.7 L-0.7 -19.7 -0.55 -20.05 Q-0.4 -20.25 0.0 -20.3 L0.15 -20.3 0.35 -20.1 Q0.45 -20.0 0.5 -19.75 L0.5 -19.4 0.45 -19.15 Q0.45 -19.0 0.6 -18.9 0.75 -18.75 0.75 -18.6 L0.7 -18.4 0.7 -18.3 0.65 -18.15 Q0.65 -18.1 0.75 -18.05 L0.8 -17.95 Q0.8 -17.85 0.75 -17.75 L0.7 -17.85 0.7 -17.7 Q0.7 -17.6 0.6 -17.5 0.5 -17.5 0.5 -17.45 L0.05 -17.5 0.0 -17.6 Q-0.05 -17.65 -0.2 -17.7 -0.4 -17.2 -0.7 -16.9 -0.85 -16.7 -0.85 -16.45 -0.9 -16.1 -0.9 -16.05 L-0.75 -16.05 Q-0.2 -16.05 -0.2 -16.25 L0.2 -16.65 0.3 -16.85 0.3 -16.9 0.35 -16.9 0.4 -17.0 Q0.4 -17.05 0.45 -17.1 L0.85 -17.15 Q1.0 -17.1 1.05 -16.85 1.05 -16.65 1.2 -16.55 1.5 -16.9 1.7 -17.5 1.85 -17.8 1.85 -17.95 1.85 -18.0 1.9 -18.05 L1.95 -18.2 1.95 -18.4 Q1.95 -18.5 2.0 -18.65 2.15 -18.9 2.4 -18.85 2.5 -19.15 2.85 -19.4 3.15 -19.7 3.45 -19.8 L3.45 -19.75 Q3.45 -19.65 3.3 -19.5 L3.0 -19.25 M0.5 -17.05 L0.5 -17.05 M9.1 -11.9 L9.9 -11.95 Q10.05 -11.85 10.2 -11.45 10.4 -11.05 10.4 -10.9 10.4 -10.75 10.3 -10.6 10.2 -10.45 10.2 -10.35 10.2 -10.2 10.3 -9.95 10.5 -9.6 10.75 -9.6 11.5 -9.6 11.8 -9.95 11.85 -10.1 11.85 -10.25 L11.85 -10.4 Q11.8 -10.55 11.7 -10.6 L11.55 -10.55 11.5 -10.4 11.45 -10.4 11.45 -10.55 Q11.45 -10.6 11.5 -10.7 L11.6 -10.8 Q11.85 -10.8 11.9 -10.7 L12.0 -10.6 12.05 -10.4 Q12.05 -10.15 11.85 -9.85 11.7 -9.6 11.35 -9.4 L11.0 -9.35 Q10.4 -9.45 10.15 -9.7 10.0 -9.9 10.0 -10.15 L10.15 -10.9 Q10.15 -11.0 10.0 -11.25 L9.8 -11.55 9.4 -11.55 Q9.15 -11.4 9.05 -11.1 L8.95 -10.7 Q8.6 -10.2 8.6 -9.9 L8.75 -9.75 9.0 -9.75 9.15 -9.55 9.3 -9.3 9.25 -9.1 9.2 -9.0 Q9.1 -8.85 8.95 -8.85 L8.85 -8.85 8.9 -9.0 9.0 -9.05 9.05 -9.1 9.1 -9.1 9.1 -9.15 9.05 -9.3 8.9 -9.4 8.75 -9.45 8.45 -9.45 8.25 -10.05 Q8.25 -10.35 8.35 -10.5 L8.65 -11.1 8.75 -11.4 Q8.8 -11.55 8.9 -11.65 L9.1 -11.9 M6.8 -8.45 L7.05 -8.4 7.25 -8.1 7.3 -7.9 Q7.3 -7.75 7.25 -7.65 L7.1 -7.65 7.05 -7.85 6.95 -8.05 6.85 -8.0 6.7 -7.85 6.6 -7.65 6.15 -7.55 5.75 -7.6 Q5.5 -7.7 5.35 -8.0 L5.15 -8.5 4.9 -8.45 Q4.6 -8.2 4.6 -7.8 4.6 -7.65 4.8 -7.4 5.0 -7.15 5.0 -7.0 L4.95 -6.75 4.75 -6.5 4.5 -6.3 Q4.35 -6.1 4.2 -6.1 3.45 -6.1 3.25 -6.45 L3.0 -6.8 Q2.8 -7.1 2.5 -7.35 L2.25 -7.35 Q2.1 -7.35 1.95 -7.2 L1.85 -7.0 Q1.85 -6.9 2.15 -6.8 2.4 -6.7 2.45 -6.6 L2.55 -6.35 2.55 -6.15 Q2.55 -6.0 2.5 -5.95 2.45 -5.9 2.35 -5.85 L2.2 -5.8 2.1 -5.8 2.1 -5.9 2.0 -5.9 1.95 -6.0 2.15 -6.15 Q2.25 -6.2 2.25 -6.25 2.25 -6.4 1.9 -6.6 1.55 -6.75 1.55 -7.0 1.55 -7.15 1.65 -7.35 1.8 -7.6 2.05 -7.6 L2.55 -7.55 3.15 -6.9 Q3.55 -6.45 3.75 -6.45 4.3 -6.45 4.55 -6.75 4.7 -6.9 4.7 -7.0 4.7 -7.1 4.55 -7.4 L4.4 -7.65 4.4 -8.3 Q4.4 -8.65 4.65 -8.8 4.9 -8.95 5.25 -8.9 L5.4 -8.9 5.4 -8.75 Q5.45 -8.7 5.6 -8.7 L5.7 -8.3 Q5.7 -8.2 5.8 -8.1 5.95 -7.95 6.25 -7.95 6.4 -7.95 6.45 -8.05 L6.5 -8.2 Q6.7 -8.4 6.8 -8.45 M1.65 -7.15 L1.65 -6.95 1.7 -6.85 1.65 -7.05 1.7 -7.15 1.65 -7.15 M2.5 -7.5 L2.5 -7.5 M16.1 -12.4 Q16.15 -12.2 16.3 -12.1 L16.7 -12.05 Q16.8 -11.95 16.8 -11.75 L16.75 -11.15 Q16.75 -11.0 16.55 -10.75 L16.35 -10.5 Q16.35 -10.45 16.4 -10.4 L16.45 -10.25 Q16.45 -10.1 15.95 -9.95 15.35 -9.7 15.25 -9.6 L15.15 -9.6 15.1 -9.65 15.1 -9.7 15.6 -9.95 Q16.1 -10.2 16.1 -10.45 L16.0 -10.75 Q16.0 -10.85 16.15 -11.0 16.3 -11.1 16.3 -11.25 16.3 -11.45 16.05 -11.65 L15.5 -11.7 Q15.45 -11.85 15.45 -12.2 L15.4 -12.25 Q15.15 -12.1 15.1 -11.95 L14.95 -11.65 14.7 -11.5 14.4 -11.4 Q14.0 -11.2 13.95 -11.2 L13.7 -11.2 13.55 -11.25 13.5 -11.3 13.45 -11.3 13.35 -11.25 13.45 -11.45 13.5 -11.6 13.5 -11.65 13.45 -11.75 Q13.35 -11.85 13.25 -11.95 L13.25 -12.0 13.35 -12.05 13.65 -12.0 13.8 -11.85 13.8 -11.75 Q13.8 -11.55 13.7 -11.5 L13.7 -11.35 13.8 -11.3 14.45 -11.7 15.05 -12.1 Q15.15 -12.25 15.2 -12.5 15.2 -12.8 15.3 -12.9 L15.65 -12.85 15.95 -12.8 16.1 -12.4 M12.0 -10.4 L12.0 -10.4 M-1.9 -21.3 L-2.0 -21.0 Q-1.9 -21.15 -1.9 -21.3 M-1.65 -22.9 Q-1.6 -22.9 -1.55 -23.05 L-1.4 -23.2 Q-1.5 -23.15 -1.65 -22.9" fill="#270000" fill-rule="evenodd" stroke="none"/>
  </g>
</svg>
