<?xml version="1.0" encoding="UTF-8" standalone="no"?>
<svg xmlns:ffdec="https://www.free-decompiler.com/flash" xmlns:xlink="http://www.w3.org/1999/xlink" ffdec:objectType="shape" height="56.25px" width="81.5px" xmlns="http://www.w3.org/2000/svg">
  <g transform="matrix(1.0, 0.0, 0.0, 1.0, 30.5, 50.45)">
    <path d="M0.15 -26.05 L0.2 -25.85 0.8 -25.8 Q0.95 -25.65 1.1 -25.6 L1.2 -25.6 Q1.45 -25.45 1.45 -25.3 L1.5 -25.2 1.4 -25.05 1.1 -25.0 0.8 -24.7 0.7 -24.7 0.6 -24.65 Q0.4 -24.65 0.1 -24.9 -0.2 -25.05 -0.25 -25.15 L-0.15 -25.35 -0.1 -25.5 -0.55 -25.15 -0.75 -25.05 Q-0.75 -24.8 -1.1 -24.6 L-1.75 -24.25 -1.75 -24.2 -1.8 -24.2 Q-2.1 -23.85 -2.45 -23.8 L-2.6 -23.85 -2.65 -23.9 -2.75 -23.9 Q-2.8 -24.1 -2.95 -24.45 -3.15 -24.8 -3.3 -24.85 -3.25 -25.6 -2.7 -25.9 L-1.6 -26.35 Q-1.35 -26.35 -1.1 -26.25 -0.95 -26.15 -0.95 -26.1 L-0.05 -26.2 Q0.0 -26.35 0.0 -26.05 L0.1 -26.1 0.15 -26.05 M1.25 -24.85 L1.45 -24.9 1.8 -24.6 1.8 -24.45 1.65 -24.35 1.3 -24.4 Q1.25 -24.5 1.25 -24.85 M1.1 -24.25 Q1.1 -24.05 1.0 -23.95 L0.85 -23.85 -0.6 -23.85 -0.65 -24.2 Q-0.7 -24.45 -0.75 -24.5 L-0.15 -24.45 1.05 -24.45 Q1.1 -24.6 1.1 -24.25 M0.75 -24.15 L0.75 -24.2 Q0.55 -24.2 0.45 -24.1 L0.75 -24.15 M6.85 -24.3 L11.1 -24.3 11.55 -23.65 11.75 -23.4 11.8 -23.4 11.85 -23.3 11.85 -23.15 Q11.8 -22.95 11.6 -22.6 L11.55 -22.45 11.55 -22.4 Q11.55 -22.25 11.65 -21.95 L11.7 -21.8 11.85 -21.15 Q11.85 -21.05 11.6 -20.75 L11.2 -20.35 11.1 -20.9 11.0 -21.4 10.35 -21.45 10.35 -22.05 Q10.35 -22.25 10.25 -22.45 L10.2 -22.1 Q10.2 -21.8 10.15 -21.75 L10.1 -21.7 10.05 -21.6 Q10.0 -21.5 9.85 -21.5 9.65 -21.4 9.3 -21.25 L8.85 -21.75 Q8.5 -22.1 8.5 -22.25 8.5 -22.45 9.0 -22.8 9.5 -23.05 9.45 -23.1 L9.8 -23.0 10.15 -22.95 10.25 -23.15 10.55 -23.5 Q10.4 -23.65 10.15 -23.75 L9.8 -23.75 9.75 -23.6 9.75 -23.55 Q9.75 -23.45 9.65 -23.35 L9.6 -23.15 9.3 -23.1 9.25 -23.1 8.7 -22.8 8.35 -22.55 8.2 -22.45 8.15 -22.5 8.15 -22.05 Q8.15 -21.7 7.85 -21.5 L7.15 -21.0 6.15 -21.0 Q6.1 -21.05 5.9 -21.35 L5.75 -21.7 Q5.75 -22.1 6.05 -22.7 6.35 -23.45 6.8 -22.8 L7.25 -22.8 7.65 -22.85 7.7 -22.8 7.95 -22.8 7.9 -22.85 Q7.85 -23.1 6.9 -23.2 L6.7 -23.45 Q6.5 -23.6 6.25 -23.6 L6.45 -23.95 6.85 -24.3 M9.9 -20.65 L9.5 -20.65 10.15 -21.35 10.6 -21.3 10.75 -21.1 10.75 -21.05 10.8 -20.95 10.85 -20.65 10.85 -20.4 10.8 -20.3 10.65 -20.2 10.55 -20.3 10.4 -20.2 10.05 -20.2 Q9.9 -20.3 9.9 -20.65 M12.05 -16.35 Q12.45 -16.3 12.85 -15.7 12.85 -15.5 12.6 -15.15 L12.15 -14.7 12.0 -14.35 12.1 -14.2 11.9 -13.9 11.15 -14.0 10.0 -14.0 10.0 -14.2 10.05 -14.7 10.15 -15.15 Q10.15 -15.4 10.45 -15.55 L10.95 -15.7 Q11.05 -15.75 11.45 -16.1 11.85 -16.45 11.9 -16.4 L12.05 -16.35 M9.95 -14.8 Q9.95 -14.5 9.35 -14.2 L9.2 -14.25 9.05 -14.4 Q9.1 -14.55 9.25 -14.75 9.5 -15.05 9.85 -15.1 L9.9 -15.05 9.95 -14.8 M10.8 -13.95 Q10.95 -13.85 11.15 -13.6 10.7 -13.05 10.4 -13.05 L10.2 -13.1 10.15 -13.2 Q9.75 -13.25 9.55 -13.35 L9.2 -13.6 Q9.3 -13.75 9.3 -14.0 L10.35 -13.85 10.6 -13.8 10.8 -13.95 M10.0 -11.5 L10.05 -11.4 10.15 -11.4 10.7 -10.55 Q10.85 -10.25 10.85 -9.75 10.85 -9.4 10.8 -9.3 10.7 -9.05 10.25 -9.05 L10.25 -9.0 Q10.2 -9.05 10.2 -9.15 L10.15 -9.2 9.2 -8.6 9.0 -8.7 Q8.95 -8.7 9.0 -8.95 9.0 -9.1 8.9 -9.15 8.75 -9.25 8.8 -9.4 8.8 -9.65 8.95 -9.8 9.2 -10.0 9.35 -10.35 L9.45 -10.75 9.5 -11.2 Q9.55 -11.55 9.6 -11.3 L9.9 -11.3 9.95 -11.5 10.0 -11.5 M8.0 -20.1 Q8.1 -20.2 8.1 -19.85 7.7 -19.1 7.45 -18.9 L7.25 -19.25 Q7.1 -19.55 7.1 -19.75 7.1 -19.95 7.2 -20.0 7.25 -20.1 7.4 -20.1 L8.0 -20.1 M0.5 -18.05 Q0.7 -18.15 1.5 -18.75 2.15 -19.25 2.5 -19.3 L2.85 -19.25 2.9 -19.1 Q3.1 -19.0 3.2 -18.75 L3.25 -18.1 Q3.15 -17.9 3.05 -17.85 L3.0 -17.9 2.55 -17.5 1.95 -17.1 Q1.7 -16.75 1.55 -16.4 L1.5 -16.4 1.5 -16.35 Q1.2 -16.0 0.9 -16.45 0.4 -16.35 0.0 -16.1 L-0.05 -16.1 -0.05 -16.3 Q-0.05 -16.65 0.2 -17.2 0.5 -17.7 0.8 -17.95 L0.5 -18.05 M0.2 -21.8 L0.15 -21.55 0.0 -21.5 0.0 -21.55 Q-0.1 -21.5 -0.2 -21.45 L-0.7 -21.15 Q-1.25 -20.8 -1.55 -20.7 L-1.65 -20.8 -1.8 -20.55 -2.4 -21.05 Q-2.8 -21.5 -2.8 -21.55 -2.8 -21.8 -2.5 -22.35 -2.15 -22.9 -1.9 -23.0 L-1.55 -22.95 Q-1.2 -22.55 -1.2 -22.35 L-0.55 -22.45 -0.1 -22.55 0.1 -22.55 0.2 -22.4 0.2 -21.8 M2.7 -14.45 L2.65 -14.2 2.55 -14.1 2.35 -14.25 2.3 -13.95 2.35 -13.8 2.65 -13.75 2.7 -13.55 2.65 -13.45 Q2.6 -13.3 2.3 -13.05 L1.8 -12.6 Q1.5 -13.0 1.55 -13.15 L1.65 -13.35 Q1.65 -13.6 1.45 -14.0 L1.25 -14.4 Q1.25 -14.7 1.55 -14.9 1.8 -15.1 2.0 -15.05 L2.35 -15.05 Q2.6 -14.85 2.7 -14.45 M0.65 -14.5 L0.6 -14.45 0.55 -14.55 0.5 -14.55 0.35 -14.85 Q0.25 -14.9 -0.15 -14.95 L-0.2 -14.95 -0.25 -15.15 Q-0.25 -15.7 0.25 -15.8 0.8 -15.95 1.35 -15.65 L1.45 -15.6 1.45 -15.4 Q1.45 -15.25 1.3 -14.95 L0.9 -14.55 0.65 -14.5 M8.3 -13.55 Q8.2 -13.45 8.1 -13.45 L7.85 -13.5 Q7.8 -13.55 7.8 -13.75 L7.8 -14.0 7.85 -14.1 8.1 -14.1 Q8.35 -14.0 8.35 -13.85 L8.3 -13.55 M6.4 -6.9 Q6.35 -6.95 6.4 -7.15 6.45 -7.4 6.75 -7.75 L7.4 -8.45 8.25 -8.4 Q8.5 -8.5 8.65 -8.5 L8.75 -8.4 8.75 -8.45 Q8.75 -8.4 8.75 -8.2 8.75 -7.9 8.45 -7.55 L7.75 -6.85 7.15 -6.85 7.1 -6.8 7.1 -6.85 6.65 -6.8 Q6.45 -6.9 6.4 -6.9 M2.0 -10.45 L1.65 -10.4 1.45 -10.45 1.25 -10.55 Q1.35 -10.85 1.55 -10.9 2.0 -10.85 2.1 -10.75 2.1 -10.55 2.0 -10.45 M1.8 -10.05 L2.05 -10.05 2.2 -9.95 2.25 -9.45 Q2.25 -9.15 1.95 -8.8 1.7 -8.45 1.4 -8.35 L0.15 -8.6 0.35 -9.55 Q0.45 -10.1 0.7 -10.2 L0.9 -10.15 1.15 -10.15 1.65 -10.0 1.8 -10.05 M0.85 -6.45 L-0.05 -5.6 -0.15 -5.5 -0.45 -5.45 Q-0.6 -5.6 -1.15 -5.8 -1.05 -6.1 -0.7 -6.35 L-0.35 -6.55 -0.4 -6.8 -0.05 -6.9 0.0 -6.6 0.45 -6.6 0.6 -6.55 0.85 -6.45 M48.3 -44.75 Q48.8 -44.1 48.8 -43.7 L48.4 -43.3 Q47.95 -42.95 47.6 -42.75 L47.7 -42.85 Q47.8 -42.95 47.8 -43.3 47.8 -43.7 46.45 -44.15 L46.25 -44.45 Q46.3 -44.65 46.9 -45.1 47.35 -45.45 47.55 -45.55 L48.3 -44.75 M47.1 -42.55 Q46.95 -42.55 46.7 -42.7 46.45 -42.8 46.4 -42.95 46.4 -43.05 46.5 -43.15 L46.55 -43.3 Q46.8 -43.25 47.0 -43.05 47.2 -42.85 47.2 -42.7 L47.1 -42.55 M48.65 -41.6 Q48.55 -41.7 48.55 -42.0 48.55 -42.25 48.7 -42.4 48.85 -42.55 49.2 -42.65 49.5 -42.4 49.65 -41.95 L49.5 -41.6 48.7 -41.5 48.65 -41.6 M44.95 -45.0 L45.5 -44.95 Q45.5 -44.45 45.55 -44.1 L45.5 -43.9 44.8 -43.9 44.75 -44.0 Q44.65 -44.1 44.65 -44.45 44.65 -44.8 44.8 -44.95 L44.95 -45.0 M50.35 -21.65 L50.4 -21.6 49.9 -21.55 49.9 -21.65 49.55 -21.65 Q49.5 -21.65 49.5 -22.0 49.5 -22.4 49.6 -22.4 L50.15 -22.4 50.7 -22.2 Q50.95 -22.0 51.0 -21.85 L50.85 -21.65 50.35 -21.65 M-24.55 -47.9 Q-24.55 -48.25 -24.1 -48.9 -23.7 -49.5 -23.35 -49.75 -22.9 -50.05 -22.75 -50.4 -22.6 -50.55 -21.55 -50.2 L-21.4 -50.15 Q-21.35 -50.1 -21.35 -49.75 -21.35 -49.25 -21.55 -49.1 L-22.15 -49.05 Q-22.75 -49.05 -23.1 -48.25 L-23.45 -47.0 Q-24.55 -47.5 -24.55 -47.9 M-21.15 -48.75 Q-21.05 -48.6 -21.05 -48.4 L-21.35 -48.2 Q-21.5 -48.05 -21.8 -48.05 L-21.85 -48.35 Q-21.7 -48.6 -21.5 -48.7 L-21.15 -48.75 M-26.8 -35.5 L-27.1 -35.45 Q-27.65 -35.8 -27.85 -36.15 L-27.95 -36.55 -27.15 -36.5 Q-26.95 -36.4 -26.7 -35.8 L-26.8 -35.5 M-29.1 -27.9 Q-29.0 -27.6 -29.0 -27.3 -29.0 -26.95 -29.05 -26.95 L-29.3 -26.9 Q-29.65 -27.2 -29.95 -27.55 L-30.5 -28.2 -30.4 -28.35 -29.95 -28.4 Q-29.35 -28.4 -29.1 -27.9 M-2.65 -18.85 L-2.3 -18.4 Q-2.3 -18.3 -2.95 -17.45 L-3.05 -17.45 -3.15 -17.8 Q-3.25 -17.95 -3.25 -18.2 L-3.05 -18.5 -2.65 -18.85 M-1.05 -18.2 Q-1.05 -17.95 -1.5 -17.55 -2.0 -17.05 -2.1 -16.8 -2.2 -16.8 -2.4 -17.1 -2.65 -17.45 -2.65 -17.65 -2.65 -17.9 -1.6 -18.75 L-1.25 -18.7 -1.1 -18.55 Q-1.05 -18.45 -1.05 -18.2 M-8.1 -20.1 Q-7.6 -20.3 -7.35 -20.5 -7.2 -20.45 -6.8 -19.85 -6.65 -19.85 -6.5 -19.4 L-6.3 -18.9 -6.25 -18.7 -6.25 -18.55 Q-6.25 -18.3 -6.3 -18.25 -6.35 -18.15 -6.45 -18.1 -6.55 -17.85 -6.65 -17.85 -6.85 -17.85 -7.15 -17.95 L-7.5 -18.1 Q-8.05 -18.2 -8.05 -18.45 L-8.0 -18.9 Q-8.05 -19.2 -8.2 -19.35 -8.35 -19.5 -8.35 -19.6 -8.35 -20.0 -8.1 -20.1 M-8.45 -19.05 L-8.35 -19.15 Q-8.25 -19.3 -8.25 -18.95 -8.25 -18.65 -8.45 -18.15 -8.6 -17.6 -8.6 -17.35 -8.6 -17.15 -8.45 -17.2 L-8.35 -17.15 Q-8.2 -17.3 -8.2 -16.95 -8.2 -16.8 -8.8 -16.25 -9.35 -15.75 -9.5 -15.65 L-9.7 -15.7 Q-9.8 -15.75 -9.8 -15.95 L-9.85 -16.05 Q-10.05 -16.3 -10.35 -16.55 L-10.95 -17.1 -11.15 -17.4 Q-11.15 -17.65 -10.8 -18.15 L-10.45 -18.7 -9.95 -19.8 -9.5 -19.6 Q-9.3 -19.45 -8.8 -19.4 -8.6 -19.25 -8.45 -19.05 M-7.25 -17.35 L-7.05 -17.2 Q-6.9 -17.05 -6.9 -16.85 -6.9 -16.65 -7.15 -16.35 -7.35 -16.05 -7.5 -16.05 L-7.75 -16.25 Q-8.0 -16.45 -8.0 -16.6 -8.0 -17.0 -7.6 -17.4 L-7.25 -17.35 M-1.4 -14.7 Q-1.25 -14.25 -1.5 -14.05 -1.5 -14.0 -1.6 -14.0 L-1.75 -13.8 -1.85 -13.75 -1.8 -13.75 Q-1.75 -13.7 -1.75 -13.5 -1.75 -13.45 -1.95 -13.15 L-2.05 -12.95 -2.0 -12.95 Q-1.8 -12.8 -1.2 -12.2 L-0.75 -11.7 -0.6 -11.65 -0.35 -11.65 -0.35 -11.0 -0.4 -10.5 -0.35 -9.85 -0.3 -9.65 -0.25 -9.6 Q-0.1 -9.55 -0.05 -9.5 L-0.15 -9.35 -0.05 -8.95 -0.25 -8.9 -1.25 -9.05 Q-1.9 -9.2 -2.1 -9.55 L-2.65 -10.65 -3.4 -12.6 Q-3.4 -12.95 -2.85 -13.85 L-2.15 -14.9 Q-1.65 -14.8 -1.5 -14.6 L-1.4 -14.7 M-3.7 -6.75 Q-3.75 -6.7 -4.0 -6.75 L-4.4 -6.8 -4.75 -6.75 -5.2 -6.8 -5.5 -6.8 -5.55 -7.0 -6.2 -6.9 -6.95 -7.65 -7.25 -8.05 -7.65 -8.5 -7.65 -8.55 -7.7 -8.55 -7.9 -8.7 Q-8.0 -8.8 -8.1 -8.8 -8.05 -9.05 -7.85 -9.1 L-7.9 -9.2 Q-7.9 -9.5 -7.35 -9.75 L-7.0 -9.7 -6.6 -9.35 -6.2 -9.05 -5.95 -9.05 Q-5.75 -8.65 -5.1 -7.85 L-4.95 -7.6 -4.9 -7.55 -4.6 -7.35 Q-4.45 -7.3 -4.35 -7.2 L-4.2 -7.1 Q-3.9 -7.05 -3.7 -6.75 M-6.25 -7.5 L-6.05 -7.4 -6.1 -7.45 -6.25 -7.5" fill="#ffdc45" fill-rule="evenodd" stroke="none"/>
    <path d="M18.55 -2.55 Q19.55 -3.25 19.7 -3.35 20.55 -4.4 20.55 -5.1 20.55 -5.3 20.35 -5.65 L20.3 -5.7 Q20.05 -5.7 19.65 -5.5 19.2 -5.35 19.0 -5.25 L18.95 -5.25 18.9 -5.2 18.75 -5.2 19.3 -5.75 19.75 -6.3 Q19.85 -6.4 19.85 -6.85 19.9 -7.2 20.1 -7.4 20.2 -7.55 20.55 -7.55 21.0 -7.6 21.5 -7.75 21.8 -7.9 22.5 -8.25 22.9 -8.45 23.15 -8.75 23.4 -9.05 23.85 -9.3 L24.75 -9.3 25.15 -8.7 Q25.45 -8.45 26.0 -8.4 L27.0 -8.3 Q27.45 -8.0 27.65 -7.5 L27.75 -6.6 Q27.75 -6.5 28.0 -6.25 L28.25 -5.8 28.55 -4.95 28.0 -4.45 27.45 -4.05 Q26.35 -3.25 26.35 -3.1 26.35 -2.95 27.0 -2.55 27.55 -2.2 27.55 -1.85 L27.45 -1.65 Q27.4 -1.55 27.4 -1.45 L27.7 -0.5 Q27.7 -0.05 27.65 0.4 27.6 0.6 27.1 0.85 26.55 1.05 26.45 1.15 26.15 1.35 26.1 1.6 L26.1 2.0 Q25.8 2.85 25.6 2.85 24.6 2.5 24.25 2.65 L23.8 2.65 23.5 2.45 23.2 2.45 22.95 2.75 Q23.25 3.05 23.25 3.25 23.25 3.5 22.9 3.9 22.55 4.25 22.1 4.3 L21.8 4.3 20.1 4.55 19.1 4.45 Q18.9 4.25 18.9 4.05 18.25 4.0 17.95 3.8 16.65 3.95 16.15 4.2 15.85 4.3 15.25 4.9 15.15 5.0 14.6 5.1 14.05 5.2 14.0 5.25 L13.35 5.55 12.15 5.65 10.35 5.6 9.2 5.55 Q8.05 5.55 7.45 5.2 6.85 4.85 5.85 4.85 5.45 4.85 4.05 5.15 L2.3 5.35 1.75 5.35 Q1.3 5.2 1.05 5.2 L0.75 5.25 1.0 5.3 0.4 5.35 Q0.25 5.7 0.1 5.8 L-1.35 5.8 Q-1.75 5.55 -2.7 5.65 L-4.7 5.7 Q-5.7 5.65 -5.85 5.45 L-5.95 5.1 Q-6.0 5.15 -6.2 5.2 -6.1 5.3 -6.1 5.35 -6.1 5.45 -6.3 5.45 L-7.6 5.45 -9.55 5.3 Q-10.15 5.35 -10.6 5.15 L-11.1 4.85 Q-11.3 4.6 -11.6 4.5 L-12.2 4.5 -12.9 4.8 Q-13.65 5.1 -14.3 5.1 -14.65 5.1 -15.1 4.85 -15.55 4.65 -16.15 4.65 L-17.6 4.75 -19.65 4.85 Q-20.65 4.85 -21.4 4.25 -22.25 3.6 -22.9 3.6 -23.35 3.55 -24.35 2.95 -24.65 2.8 -24.65 2.2 L-24.6 1.75 -24.25 1.3 -24.6 0.85 -24.45 0.7 Q-24.8 0.6 -24.9 0.4 -25.0 0.2 -24.85 0.05 L-25.0 -0.05 -25.3 -0.05 -25.55 0.1 -26.05 0.1 Q-26.7 0.05 -26.95 -0.05 -27.25 -0.25 -27.35 -0.7 -27.4 -1.0 -27.75 -1.2 L-28.2 -1.45 Q-28.35 -1.6 -28.4 -1.85 -28.45 -2.1 -28.7 -2.25 L-28.9 -2.6 -29.0 -3.0 Q-29.0 -3.5 -28.2 -5.3 -27.75 -5.3 -27.6 -5.55 L-27.6 -5.85 Q-27.6 -6.45 -28.1 -6.5 L-28.2 -6.55 Q-28.25 -6.6 -28.25 -6.75 -28.25 -7.3 -27.7 -7.9 -27.05 -8.6 -26.25 -8.7 L-25.9 -8.7 -25.8 -8.6 -25.2 -8.3 -24.3 -8.0 Q-23.9 -7.8 -22.95 -7.15 L-22.6 -7.2 Q-21.75 -7.35 -21.5 -7.1 L-21.15 -6.5 -20.55 -6.0 -20.55 -5.95 Q-20.7 -5.95 -21.05 -6.15 L-21.15 -6.25 -21.85 -6.35 Q-22.35 -6.35 -22.35 -5.9 L-22.25 -4.8 -21.6 -4.65 Q-21.4 -4.45 -21.5 -4.05 -21.6 -3.6 -21.5 -3.45 -21.45 -3.25 -20.95 -2.85 L-20.3 -2.25 Q-20.1 -2.05 -19.4 -1.75 -18.7 -1.45 -18.35 -1.45 L-16.55 -1.15 -15.45 -0.75 -15.45 -0.7 -15.5 -0.7 -15.7 -0.6 Q-15.5 -0.25 -13.95 0.0 L-11.5 0.35 Q-10.6 0.4 -10.2 0.6 L-9.75 0.95 Q-9.55 1.1 -9.25 1.2 L-7.5 1.4 -4.35 1.4 -2.0 1.25 0.45 1.3 2.75 1.55 2.75 1.6 6.85 1.35 9.4 1.15 11.6 1.0 12.1 0.8 13.35 0.65 14.55 0.4 15.25 0.1 15.85 0.0 16.25 -0.2 Q17.2 -0.75 17.75 -1.45 L17.8 -1.55 17.3 -1.6 17.3 -1.65 Q17.55 -1.95 18.55 -2.55" fill="#ffffff" fill-opacity="0.9019608" fill-rule="evenodd" stroke="none"/>
  </g>
</svg>
