<?xml version="1.0" encoding="UTF-8" standalone="no"?>
<svg xmlns:ffdec="https://www.free-decompiler.com/flash" xmlns:xlink="http://www.w3.org/1999/xlink" ffdec:objectType="shape" height="61.4px" width="138.55px" xmlns="http://www.w3.org/2000/svg">
  <g transform="matrix(1.0, 0.0, 0.0, 1.0, 58.15, 55.95)">
    <path d="M77.1 -48.75 L77.55 -48.7 77.25 -48.0 76.9 -48.0 Q76.85 -47.95 76.85 -48.35 76.85 -48.7 77.1 -48.75 M78.9 -49.0 Q79.05 -49.15 79.35 -49.15 L79.45 -49.0 Q79.35 -48.8 79.1 -48.55 L78.75 -48.6 Q78.75 -48.85 78.9 -49.0 M79.65 -47.3 Q79.6 -47.45 79.6 -47.6 L79.75 -47.65 80.05 -47.6 Q80.2 -47.45 80.2 -47.25 L80.0 -47.1 79.65 -47.15 79.65 -47.3 M79.45 -45.8 L78.75 -46.7 Q79.25 -46.8 79.5 -46.7 79.75 -46.6 80.4 -46.1 L80.0 -45.75 79.45 -45.8 M-56.65 -55.9 Q-56.55 -55.75 -56.55 -55.55 L-56.7 -55.4 -57.05 -55.45 -57.1 -55.6 -57.1 -55.9 -56.95 -55.95 -56.65 -55.9 M-57.8 -54.7 Q-57.15 -54.1 -57.05 -53.85 L-57.2 -53.6 -58.15 -53.65 -58.0 -54.7 -57.8 -54.7 M-56.35 -52.9 L-56.45 -52.75 Q-56.7 -52.75 -56.85 -52.85 L-57.05 -53.05 -56.95 -53.15 Q-56.45 -53.1 -56.35 -52.9 M-55.05 -54.45 Q-55.1 -54.3 -55.3 -54.1 L-56.15 -54.1 -55.8 -54.45 Q-55.65 -54.55 -55.35 -54.55 L-55.05 -54.45" fill="#ffdc45" fill-rule="evenodd" stroke="none"/>
    <path d="M28.6 -14.5 Q28.65 -14.45 28.75 -14.45 L29.1 -14.45 29.1 -14.4 29.35 -14.55 30.9 -14.6 Q31.65 -13.95 32.0 -13.9 32.2 -13.85 32.65 -13.55 32.9 -13.4 33.35 -13.5 33.8 -13.2 34.6 -12.0 35.4 -10.85 35.4 -10.65 L35.15 -10.1 34.95 -9.6 Q35.15 -9.05 35.15 -8.6 35.15 -8.3 35.1 -8.15 L34.8 -7.6 Q34.75 -7.2 34.7 -7.05 34.55 -6.8 34.0 -6.75 33.7 -6.6 33.7 -6.3 L33.65 -6.25 Q33.65 -6.1 33.8 -5.9 33.9 -5.55 34.15 -5.55 34.1 -5.2 33.35 -4.7 L33.35 -4.9 33.3 -4.9 Q33.25 -4.95 33.25 -5.05 33.25 -5.2 33.4 -5.5 L33.5 -5.8 Q33.5 -6.0 33.35 -6.1 33.2 -6.15 33.2 -6.25 33.2 -6.35 33.25 -6.45 33.35 -6.55 33.35 -6.65 L33.25 -6.85 Q33.2 -6.95 33.2 -7.05 33.2 -7.4 33.45 -7.6 33.7 -7.75 33.7 -8.0 33.7 -8.3 33.5 -8.55 33.3 -8.85 33.2 -9.2 33.3 -9.5 33.2 -9.7 L33.2 -9.8 Q33.2 -10.2 32.95 -10.4 L32.55 -10.65 Q32.45 -10.9 32.4 -11.25 32.0 -11.4 32.0 -11.65 L32.25 -12.4 Q32.25 -12.5 31.95 -12.8 L31.45 -13.35 29.95 -13.3 Q29.5 -13.95 29.15 -14.15 L29.0 -14.1 28.6 -14.15 28.55 -14.15 28.4 -14.05 Q28.35 -13.95 28.3 -13.8 28.3 -13.65 28.15 -13.6 27.75 -13.55 27.45 -13.3 27.2 -13.05 27.05 -12.95 L26.1 -12.95 26.1 -13.2 26.2 -13.35 Q26.35 -13.7 27.05 -14.1 27.75 -14.6 28.0 -14.6 28.15 -14.6 28.15 -14.45 L28.6 -14.5 M30.3 -12.0 Q30.6 -12.0 30.95 -11.05 30.95 -10.75 30.65 -10.55 30.4 -10.65 30.45 -10.9 L30.45 -11.25 Q30.35 -11.5 30.05 -11.85 L30.1 -11.95 30.3 -12.0 M24.4 -11.7 L24.1 -11.7 Q24.25 -11.95 24.55 -11.95 L24.4 -11.7 M22.35 -0.25 L21.65 -0.15 21.65 -0.25 22.35 -0.6 22.9 -0.6 Q22.95 -0.5 23.2 -0.45 L23.1 -0.4 22.35 -0.25 M24.6 -2.25 Q24.65 -2.3 24.65 -2.15 24.65 -2.0 24.45 -1.7 L23.95 -1.8 24.2 -2.1 Q24.35 -2.3 24.5 -2.3 L24.6 -2.25 M27.05 -1.8 L26.8 -1.6 27.05 -1.35 27.25 -1.2 27.2 -1.15 26.85 -1.25 26.7 -1.35 Q26.35 -1.95 26.15 -2.05 L26.9 -1.95 27.05 -1.8 M26.9 -0.5 L28.05 -0.4 28.15 -0.25 27.75 0.0 27.45 0.0 Q27.5 -0.2 27.25 -0.25 26.95 -0.4 26.9 -0.5 M27.55 -0.15 L27.55 -0.1 Q27.85 -0.2 27.9 -0.25 L27.75 -0.25 Q27.55 -0.2 27.55 -0.15 M30.65 -8.85 L30.3 -9.4 30.3 -9.5 Q31.0 -9.75 31.75 -8.85 32.4 -8.05 32.4 -7.7 32.25 -6.95 32.25 -6.75 L32.45 -6.1 32.5 -5.8 Q32.5 -5.65 32.6 -5.55 L32.85 -5.35 Q33.0 -5.3 33.05 -5.1 33.1 -4.95 33.1 -4.6 L33.05 -4.1 32.7 -3.5 Q32.65 -3.35 32.75 -2.9 32.75 -2.55 32.3 -2.4 31.8 -2.55 31.15 -2.3 30.65 -2.05 30.65 -2.0 L30.5 -2.0 30.5 -2.15 Q30.5 -2.3 30.65 -2.55 L30.8 -3.0 30.6 -3.25 Q30.4 -3.45 30.4 -3.55 30.4 -3.75 30.8 -4.15 31.05 -4.6 31.15 -4.5 31.2 -4.5 31.3 -4.4 31.8 -4.8 31.8 -4.9 L31.65 -5.55 31.4 -6.15 Q31.4 -6.25 31.1 -6.45 30.8 -6.65 30.8 -6.75 L30.65 -7.35 Q30.65 -7.55 30.85 -7.65 31.05 -7.8 31.05 -8.1 L30.8 -8.1 Q30.65 -8.1 30.55 -8.5 30.5 -8.85 30.55 -8.85 L30.65 -8.85 M29.95 -3.25 L30.05 -3.2 30.05 -3.1 29.95 -2.9 29.8 -2.8 29.95 -2.7 Q30.0 -2.65 30.05 -2.65 L30.1 -2.45 Q30.1 -2.25 29.5 -2.05 L29.0 -1.85 28.9 -1.7 Q28.75 -1.6 28.55 -1.6 28.4 -1.6 28.4 -1.65 L28.4 -1.7 28.45 -1.7 28.45 -1.8 28.6 -1.8 28.75 -1.95 28.55 -2.05 29.1 -2.35 Q29.35 -2.6 29.25 -2.9 L29.95 -3.25 M30.2 -1.55 L30.2 -1.45 Q30.1 -1.2 30.1 -1.1 L29.3 -0.7 28.55 -0.75 28.45 -0.9 Q28.75 -1.1 29.35 -1.15 29.7 -1.25 30.1 -1.6 L30.2 -1.55 M28.45 -0.25 L28.5 -0.2 28.5 -0.25 29.2 -0.25 29.85 -0.15 30.15 0.55 Q30.15 0.95 28.9 1.5 L28.3 2.1 Q28.1 2.25 27.45 2.25 27.2 2.25 26.85 2.55 26.45 2.55 25.95 2.4 25.45 2.2 24.85 2.25 24.75 2.25 24.4 1.9 L24.4 1.8 24.85 1.85 25.5 1.8 26.0 1.6 26.35 1.55 27.2 1.4 Q27.15 1.4 27.15 1.2 27.15 1.0 28.0 0.75 28.55 0.6 28.65 0.45 L28.75 0.2 Q28.45 0.1 28.45 -0.1 L28.45 -0.25 M25.55 3.6 L25.55 3.7 Q25.55 4.1 24.9 4.3 L23.8 4.55 23.0 4.55 Q22.75 4.4 22.5 4.35 L21.15 4.4 Q21.0 4.4 20.9 4.3 20.9 4.2 20.3 4.15 L19.35 4.05 Q18.9 4.0 18.55 3.55 18.8 3.4 19.45 3.4 20.1 3.45 20.3 3.25 L20.65 3.25 20.7 3.45 21.6 3.65 21.75 3.7 Q21.9 3.7 22.1 3.55 22.25 3.4 22.85 3.4 L23.1 3.65 23.95 3.8 24.6 3.8 25.5 3.6 25.55 3.6 M21.15 0.1 Q20.85 0.4 20.7 0.45 L20.2 0.45 19.85 0.5 19.6 0.65 19.55 0.65 19.55 0.5 Q19.55 0.25 20.15 0.0 20.8 -0.2 21.05 0.0 L21.15 0.1 M20.65 0.2 L20.65 0.2 M18.85 2.2 L20.2 2.1 20.65 2.4 20.55 2.5 20.3 2.55 19.85 2.55 19.8 2.6 Q19.05 2.35 18.85 2.25 L18.85 2.2 M15.6 4.0 L16.7 4.05 16.75 4.15 Q16.75 4.3 16.7 4.3 L15.7 4.2 15.6 4.0 M14.55 3.45 Q15.05 3.45 15.35 3.2 L15.85 3.1 Q16.05 3.05 16.25 3.15 L16.7 3.15 17.05 3.45 15.7 3.65 15.0 3.7 14.55 3.45 M18.25 3.6 L17.95 3.65 17.45 3.5 17.45 3.45 Q17.5 3.35 17.65 3.35 L18.05 3.4 18.25 3.6 M10.6 4.45 L9.6 4.65 8.85 4.65 Q8.95 4.45 9.2 4.35 L9.6 4.2 Q9.8 4.1 10.05 4.15 L10.35 4.3 10.6 4.45 M11.65 4.2 L12.0 4.2 12.1 4.3 Q12.25 4.4 11.75 4.6 L11.3 4.55 11.25 4.45 11.3 4.45 Q11.4 4.45 11.65 4.2 M6.35 4.55 L6.35 4.6 Q6.3 4.75 5.95 4.75 L5.6 4.65 Q5.45 4.65 5.45 4.6 L6.35 4.55 M-27.15 -13.15 L-27.25 -13.05 Q-27.25 -12.9 -27.45 -12.65 L-27.7 -12.45 Q-27.8 -12.45 -27.95 -12.65 -28.1 -12.9 -28.35 -12.95 L-28.8 -12.95 Q-28.8 -12.75 -28.85 -12.65 -28.9 -12.5 -29.15 -12.4 L-29.75 -12.15 Q-30.1 -12.0 -30.25 -11.85 L-30.5 -11.25 Q-31.0 -10.9 -31.1 -10.65 -30.85 -10.5 -30.85 -10.4 L-30.85 -10.25 Q-30.85 -9.8 -31.15 -9.65 -31.45 -9.5 -31.3 -9.05 -31.25 -8.9 -31.8 -8.5 -32.2 -8.2 -32.3 -8.0 L-32.35 -7.9 -32.3 -7.65 -32.2 -7.6 -31.95 -7.6 -31.95 -7.35 -32.0 -6.95 -32.0 -6.75 Q-32.1 -6.55 -32.4 -6.65 -32.35 -6.55 -32.5 -6.5 L-32.7 -6.25 Q-32.75 -6.15 -32.75 -5.8 -32.75 -4.85 -31.85 -4.7 -31.75 -4.6 -31.75 -4.4 -31.7 -4.15 -31.6 -4.05 -31.55 -4.0 -31.35 -3.7 L-31.15 -3.4 Q-31.15 -3.25 -31.55 -2.9 -31.75 -2.7 -32.05 -2.45 -31.65 -2.2 -31.6 -2.05 L-31.45 -1.85 Q-31.3 -1.8 -31.1 -1.6 -31.05 -1.5 -30.75 -1.4 -30.6 -1.3 -30.65 -1.15 -30.85 -0.95 -30.85 -0.75 -30.85 -0.65 -30.5 -0.35 -30.2 -0.05 -30.2 -0.1 -30.2 -0.3 -29.9 -0.2 -29.9 0.2 -29.8 0.35 L-29.85 0.35 -29.7 0.45 -29.7 0.5 -29.9 0.55 -30.4 0.45 Q-30.6 0.45 -31.3 -0.15 -32.0 -0.7 -32.6 -0.65 -32.7 -0.7 -32.95 -1.25 -33.2 -1.7 -33.4 -1.85 -34.25 -2.2 -34.35 -2.95 L-34.6 -4.1 -34.75 -5.45 Q-34.75 -5.8 -34.45 -6.55 -34.15 -7.35 -34.15 -7.65 L-34.35 -8.1 Q-34.6 -8.45 -34.6 -8.7 -34.6 -9.0 -34.0 -9.55 -33.4 -10.1 -33.4 -10.4 -33.3 -10.55 -33.25 -10.8 L-33.15 -11.3 Q-33.1 -11.5 -32.7 -11.8 L-32.2 -12.15 Q-31.7 -12.45 -31.65 -12.9 L-31.6 -13.55 Q-31.75 -13.65 -31.75 -13.8 -31.75 -14.1 -31.55 -14.35 L-31.3 -14.55 -31.1 -14.7 -29.95 -15.0 -28.85 -15.2 Q-28.7 -14.95 -28.7 -14.9 L-28.8 -14.75 Q-28.55 -14.0 -27.75 -14.35 -27.45 -13.55 -27.15 -13.15 M-28.05 -2.9 L-27.95 -2.75 -28.15 -2.5 Q-28.25 -2.4 -28.25 -2.3 -28.25 -2.0 -27.8 -1.6 -27.8 -1.4 -27.85 -1.2 -28.0 -0.95 -28.2 -1.0 L-27.95 0.25 -27.4 0.25 Q-27.3 0.5 -27.3 0.8 -27.3 0.9 -27.45 1.05 -27.6 1.3 -27.85 1.35 -27.4 1.7 -27.0 1.8 -26.85 1.85 -26.8 2.1 -26.8 2.2 -26.65 2.2 -26.3 2.0 -26.25 2.0 -26.2 2.0 -25.9 2.4 L-25.55 2.8 -24.95 2.75 -24.85 2.85 Q-25.35 3.35 -25.8 3.35 -26.15 3.35 -26.3 3.25 -26.55 3.15 -27.0 3.1 -27.2 3.0 -27.35 2.55 -27.45 2.3 -28.2 2.4 -28.7 1.9 -28.8 1.6 -28.95 1.3 -28.95 0.8 -28.95 0.7 -28.8 0.55 -28.6 0.4 -28.65 0.2 L-28.55 -1.4 Q-28.55 -2.0 -28.95 -2.1 -28.95 -2.2 -28.7 -2.55 L-28.45 -2.9 -28.05 -2.9 M-7.1 -6.35 L-6.9 -6.35 -6.8 -6.3 -7.05 -6.3 -7.1 -6.35 M-8.5 4.6 L-8.25 4.65 Q-8.6 5.0 -8.9 5.0 -9.0 5.0 -9.1 4.8 L-9.2 4.6 Q-9.2 4.45 -9.05 4.4 -8.95 4.45 -8.95 4.55 L-8.85 4.65 -8.5 4.6 M-7.75 4.65 L-7.5 4.65 Q-7.3 4.8 -7.25 5.0 L-7.4 5.0 Q-7.6 5.0 -7.95 4.8 L-7.75 4.65 M-12.9 5.3 Q-13.15 5.3 -13.65 5.1 -13.8 5.05 -13.95 4.9 L-14.05 4.6 -13.95 4.5 Q-13.75 4.8 -13.6 4.8 -13.05 4.6 -12.9 4.45 -12.6 4.5 -12.3 4.65 L-12.0 4.8 -11.4 4.75 -11.35 5.05 -11.25 5.1 Q-10.15 4.9 -9.95 4.75 -9.55 4.55 -9.4 4.5 L-9.35 4.55 Q-9.45 4.7 -9.55 5.1 -9.8 5.45 -10.85 5.45 L-12.1 5.25 -12.9 5.3 M-10.85 5.25 L-10.85 5.2 -11.3 5.2 -11.25 5.25 -10.85 5.25 M-9.7 4.9 L-9.75 4.9 -10.05 5.05 Q-9.95 5.05 -9.7 4.9 M-18.45 5.3 L-19.9 5.15 -20.15 5.0 -20.95 5.0 Q-21.05 4.9 -21.55 4.6 -22.05 4.35 -22.35 4.3 L-23.05 4.45 -23.45 4.15 Q-23.95 4.25 -24.4 3.35 -24.4 3.25 -24.3 3.1 L-24.25 2.85 -24.4 2.25 -24.5 1.7 -24.5 1.4 -24.25 1.35 Q-24.25 1.15 -24.15 1.15 -24.2 1.9 -23.9 2.25 L-23.65 2.45 Q-23.4 2.6 -23.4 2.75 -23.35 2.9 -23.3 3.0 -23.15 3.15 -22.7 3.2 -22.6 3.4 -22.7 3.5 -22.7 3.65 -22.3 3.7 L-22.1 3.7 Q-21.95 3.65 -21.8 3.45 L-21.6 3.25 -21.4 3.25 -21.15 3.55 Q-20.95 3.8 -20.9 3.9 L-20.8 4.3 -20.65 4.5 Q-19.85 4.45 -19.65 4.05 L-19.1 4.05 Q-18.95 4.15 -18.95 4.4 L-18.7 4.45 -18.7 4.55 -18.85 4.8 -18.8 4.85 -17.25 4.9 -16.9 4.9 Q-16.9 5.05 -16.95 5.05 -17.75 5.3 -18.45 5.3" fill="#ffffff" fill-opacity="0.9019608" fill-rule="evenodd" stroke="none"/>
  </g>
</svg>
