<?xml version="1.0" encoding="UTF-8" standalone="no"?>
<svg xmlns:ffdec="https://www.free-decompiler.com/flash" xmlns:xlink="http://www.w3.org/1999/xlink" ffdec:objectType="shape" height="56.2px" width="104.95px" xmlns="http://www.w3.org/2000/svg">
  <g transform="matrix(1.0, 0.0, 0.0, 1.0, 68.15, 51.45)">
    <path d="M-65.8 -51.45 Q-65.65 -51.4 -65.6 -51.3 L-65.65 -51.15 -66.3 -50.9 -66.3 -51.4 -65.8 -51.45 M-66.3 -49.3 L-66.05 -49.65 Q-65.9 -49.75 -65.6 -49.45 -65.7 -49.2 -66.3 -49.3 M-67.9 -49.35 L-68.15 -49.3 -68.15 -49.8 -67.85 -49.8 Q-67.7 -49.8 -67.65 -49.7 L-67.7 -49.6 Q-67.8 -49.45 -67.9 -49.35 M-67.9 -48.05 L-67.5 -48.05 -67.45 -48.15 Q-67.4 -48.15 -67.4 -47.8 -67.4 -47.45 -67.45 -47.4 L-67.55 -47.4 Q-67.8 -47.4 -67.85 -47.65 L-67.9 -48.05 M-63.75 -51.15 L-63.85 -51.05 -64.45 -51.15 -64.4 -51.25 -64.35 -51.3 Q-63.8 -51.25 -63.75 -51.15" fill="#ffdc45" fill-rule="evenodd" stroke="none"/>
    <path d="M32.3 -14.95 L33.05 -15.05 33.65 -15.2 35.25 -14.2 Q36.25 -13.5 36.25 -13.2 36.25 -13.05 36.0 -12.65 L35.75 -12.2 Q35.5 -12.3 35.6 -12.65 L35.75 -13.05 Q35.75 -13.4 34.65 -13.9 34.65 -14.2 34.55 -14.3 34.4 -14.5 33.45 -14.45 33.2 -14.6 32.4 -14.85 L31.2 -15.1 31.25 -15.15 31.65 -15.15 Q31.9 -14.95 32.3 -14.95 M28.95 -15.3 Q29.65 -15.2 29.75 -15.05 29.9 -14.8 29.95 -14.75 L30.05 -14.7 29.8 -14.7 Q29.55 -14.7 29.25 -14.95 29.0 -15.15 28.55 -14.95 28.7 -15.1 28.95 -15.3 M29.55 -15.05 L29.0 -15.2 29.5 -14.95 29.55 -15.05 M36.45 -11.8 Q36.8 -10.95 36.8 -10.65 L36.8 -10.25 Q36.7 -10.05 36.25 -9.95 36.1 -10.1 36.15 -10.35 L36.35 -10.75 Q36.35 -10.9 36.15 -11.3 36.0 -11.7 36.0 -11.8 36.25 -11.8 36.25 -11.85 L36.45 -11.8 M36.3 -9.25 L36.5 -9.05 Q36.5 -8.7 35.75 -8.05 L35.75 -8.2 Q35.75 -8.3 35.85 -8.5 L36.0 -8.8 36.05 -9.4 Q36.1 -9.4 36.3 -9.25 M32.75 -9.05 Q32.65 -9.15 32.55 -9.4 32.5 -9.5 32.1 -9.65 32.15 -9.75 32.3 -9.8 L33.0 -9.8 Q33.55 -8.55 33.55 -8.25 33.55 -7.9 33.25 -7.6 L32.9 -7.6 32.9 -7.7 Q33.2 -8.0 33.2 -8.5 L33.15 -8.75 Q32.95 -8.85 32.75 -9.05 M32.75 -6.3 Q32.75 -6.2 33.0 -6.0 33.35 -5.8 33.8 -5.65 L33.95 -4.85 Q33.95 -4.3 33.6 -4.25 L33.55 -4.3 33.55 -4.45 33.65 -4.6 Q33.8 -4.75 33.8 -4.9 33.8 -5.0 33.5 -5.2 L33.2 -5.45 32.4 -5.65 Q32.15 -5.75 32.15 -5.9 L32.3 -6.3 Q32.55 -6.75 32.85 -6.85 32.75 -6.55 32.75 -6.3 M29.45 -1.7 L30.3 -2.1 Q30.25 -2.0 29.95 -1.7 L29.5 -1.6 29.45 -1.7 M31.15 -0.4 L31.65 0.2 Q31.65 0.5 31.1 0.9 L30.85 1.25 30.25 1.2 Q30.2 1.5 29.8 2.0 29.65 2.2 29.2 2.35 L28.75 2.5 28.45 2.45 28.2 2.3 28.6 2.2 Q28.9 2.1 28.9 1.9 29.7 1.75 29.95 1.5 L30.2 0.85 30.4 0.85 Q30.9 0.85 30.9 0.45 L30.65 0.05 Q30.65 -0.1 30.75 -0.2 L31.15 -0.4 M30.7 -2.2 L30.7 -2.1 30.4 -2.1 30.4 -2.2 Q30.4 -2.35 30.65 -2.55 30.7 -2.45 30.7 -2.2 M33.8 -3.65 Q33.8 -3.55 33.6 -3.15 33.5 -2.95 33.3 -2.9 L33.05 -2.9 33.0 -3.0 Q33.2 -3.1 33.2 -3.6 33.2 -4.05 33.45 -4.05 L33.8 -3.65 M23.8 4.45 L22.8 4.5 Q22.85 4.4 22.55 4.15 L21.9 4.05 23.0 4.15 Q23.2 4.15 23.25 4.2 L23.2 4.2 Q23.0 4.2 23.0 4.15 L22.8 4.15 22.9 4.4 23.4 4.3 23.45 4.3 23.8 4.4 23.8 4.45 M24.35 4.75 Q24.35 4.65 24.15 4.65 24.15 4.55 24.2 4.5 25.45 4.4 25.8 3.9 26.15 3.5 26.85 3.6 L26.85 3.75 Q26.8 3.85 26.5 3.85 26.8 4.55 24.8 4.75 L24.35 4.75 M20.2 4.25 L21.8 4.15 21.55 4.35 20.95 4.5 20.2 4.25 M-27.75 -13.85 L-27.85 -13.5 -28.1 -13.5 -28.25 -14.05 -28.55 -14.55 -28.35 -14.55 Q-28.1 -14.55 -27.9 -14.25 -27.75 -14.05 -27.75 -13.85 M-28.25 -14.85 L-29.35 -14.7 Q-30.1 -14.6 -30.3 -14.35 -30.45 -14.15 -30.95 -14.0 -31.3 -13.9 -31.25 -13.5 L-31.35 -13.5 Q-31.5 -13.5 -31.7 -13.7 L-31.8 -13.95 Q-31.8 -14.5 -31.2 -15.05 -30.8 -15.05 -30.4 -15.2 L-29.95 -15.35 Q-29.85 -15.4 -29.7 -15.55 -29.5 -15.65 -29.35 -15.7 -29.15 -15.7 -28.8 -15.4 -28.35 -15.05 -28.25 -14.85 M-31.15 -13.25 Q-30.85 -13.0 -30.85 -12.9 L-31.1 -12.75 -31.3 -12.75 -31.35 -12.9 -31.2 -13.2 -31.15 -13.25 M-31.7 -12.75 L-31.45 -12.6 -31.45 -12.4 -32.4 -12.15 Q-33.4 -11.85 -33.3 -11.3 L-33.4 -11.2 Q-33.65 -11.55 -33.65 -11.7 -33.15 -12.25 -32.5 -12.75 L-31.7 -12.75 M-32.3 -10.45 L-32.3 -10.5 Q-32.0 -10.45 -31.8 -10.25 L-31.6 -9.95 -31.7 -9.8 Q-31.75 -9.85 -32.0 -10.05 -32.3 -10.3 -32.3 -10.4 L-32.3 -10.45 M-32.55 -10.3 Q-32.85 -10.05 -33.85 -9.7 -34.85 -9.35 -35.05 -9.15 -34.95 -9.05 -34.95 -8.85 L-35.3 -7.95 Q-35.3 -7.75 -35.1 -7.6 L-35.1 -7.45 Q-35.2 -7.5 -35.6 -8.05 -35.6 -8.4 -35.0 -9.75 L-33.95 -10.25 -32.6 -10.45 -32.55 -10.3 M-35.2 -6.55 Q-35.0 -7.0 -34.75 -7.0 L-34.2 -6.85 Q-34.55 -6.55 -34.85 -6.4 -34.95 -6.25 -34.95 -5.9 -34.95 -5.55 -35.05 -5.25 L-35.2 -4.9 Q-35.2 -4.65 -35.05 -4.35 L-34.95 -4.05 Q-34.8 -3.8 -34.6 -3.8 -34.55 -3.2 -34.0 -2.7 L-34.0 -2.65 -34.1 -2.55 Q-34.75 -2.85 -34.95 -3.3 L-35.1 -4.1 -35.5 -4.85 -35.7 -5.45 Q-35.7 -5.7 -35.55 -5.95 L-35.2 -6.55 M-32.7 -1.7 Q-32.7 -1.5 -32.2 -1.15 L-31.45 -0.6 -31.45 -0.5 -32.65 -0.85 Q-32.85 -0.9 -32.85 -1.3 -32.85 -1.6 -32.7 -1.7 M-28.85 -1.95 L-29.0 -2.1 Q-29.0 -2.55 -28.45 -2.7 L-28.45 -2.35 -28.5 -2.45 -28.65 -2.2 Q-28.7 -2.05 -28.6 -1.85 L-28.6 -1.8 Q-28.7 -1.8 -28.85 -1.95 M-28.25 -0.75 Q-28.25 -0.9 -28.35 -1.15 L-28.55 -1.7 Q-28.3 -1.65 -28.1 -1.4 -28.0 -1.25 -28.0 -1.1 -28.0 -0.95 -28.2 -0.75 L-28.25 -0.75 M-22.35 4.15 Q-22.2 4.25 -22.2 4.45 L-22.35 4.45 Q-22.5 4.45 -22.9 4.3 L-23.05 4.05 -23.05 3.9 -22.95 3.9 Q-22.9 4.05 -22.35 4.15 M-24.8 2.45 Q-24.75 2.55 -24.85 2.9 L-24.6 3.3 Q-24.4 3.65 -24.15 3.8 L-24.15 3.95 Q-24.15 4.05 -24.3 4.05 -24.5 4.05 -24.75 3.9 -25.15 3.55 -25.15 3.05 -25.15 2.9 -25.0 2.7 L-24.8 2.45 M-27.85 2.15 L-27.05 2.85 -27.05 2.9 -27.15 3.0 -27.8 2.85 Q-28.0 2.65 -28.0 2.45 -28.0 2.2 -27.85 2.15 M-29.55 0.45 L-29.6 0.65 Q-29.6 0.95 -29.2 1.2 -28.65 1.5 -28.6 1.55 L-28.6 1.65 -29.1 1.65 -29.4 1.35 -29.6 1.3 -29.95 0.95 -29.85 0.65 Q-29.75 0.5 -29.8 0.45 L-29.45 0.35 -29.55 0.45" fill="#ffffff" fill-opacity="0.9019608" fill-rule="evenodd" stroke="none"/>
  </g>
</svg>
