<?xml version="1.0" encoding="UTF-8" standalone="no"?>
<svg xmlns:ffdec="https://www.free-decompiler.com/flash" xmlns:xlink="http://www.w3.org/1999/xlink" ffdec:objectType="shape" height="11.95px" width="25.0px" xmlns="http://www.w3.org/2000/svg">
  <g transform="matrix(1.0, 0.0, 0.0, 1.0, 11.4, 17.15)">
    <path d="M3.6 -17.1 L3.6 -17.15 3.65 -17.15 3.8 -17.0 Q3.9 -16.9 3.9 -16.85 3.9 -16.75 3.9 -16.7 L3.85 -16.65 3.8 -16.65 3.75 -16.7 3.65 -16.85 Q3.6 -16.95 3.55 -17.0 L3.55 -17.05 3.6 -17.1 M13.25 -6.55 L13.25 -6.5 Q13.3 -6.45 13.1 -6.35 L12.95 -6.3 Q12.85 -6.3 12.85 -6.35 L12.85 -6.4 12.9 -6.4 Q12.95 -6.5 13.05 -6.55 13.2 -6.6 13.25 -6.55 M13.55 -5.45 L13.55 -5.4 13.6 -5.4 13.6 -5.35 13.5 -5.25 Q13.4 -5.2 13.3 -5.2 L13.25 -5.25 13.2 -5.25 13.2 -5.3 Q13.35 -5.4 13.5 -5.45 L13.55 -5.45 M-10.9 -12.15 L-10.9 -12.05 Q-10.95 -12.0 -11.05 -11.95 L-11.1 -11.95 -11.25 -11.9 Q-11.3 -11.9 -11.3 -11.95 L-11.3 -12.0 -11.25 -12.1 -11.2 -12.1 -11.1 -12.15 -10.9 -12.15 M-11.3 -11.5 L-11.25 -11.55 -11.15 -11.55 Q-11.0 -11.55 -11.0 -11.5 L-11.0 -11.45 -11.05 -11.4 -11.15 -11.4 Q-11.3 -11.45 -11.3 -11.5 M-10.5 -7.4 Q-10.45 -7.35 -10.4 -7.2 L-10.45 -7.15 Q-10.45 -7.1 -10.5 -7.1 L-10.55 -7.1 -10.55 -7.15 -10.6 -7.25 Q-10.65 -7.35 -10.65 -7.4 L-10.6 -7.45 -10.5 -7.4 M-10.75 -7.35 L-10.8 -7.35 -10.8 -7.3 -11.1 -7.3 Q-11.2 -7.25 -11.25 -7.2 -11.2 -7.1 -11.25 -7.05 L-11.25 -7.0 -11.4 -7.0 -11.4 -7.1 Q-11.4 -7.25 -11.25 -7.35 -11.1 -7.45 -11.0 -7.45 -10.8 -7.4 -10.75 -7.4 L-10.75 -7.35 M-11.3 -6.55 Q-11.25 -6.55 -11.05 -6.5 L-11.05 -6.35 -11.2 -6.4 -11.3 -6.35 -11.35 -6.4 -11.35 -6.45 -11.3 -6.55 M-10.05 -6.75 L-10.05 -6.65 Q-10.2 -6.6 -10.25 -6.6 L-10.3 -6.6 Q-10.35 -6.6 -10.35 -6.7 -10.35 -6.85 -10.3 -6.85 L-10.25 -6.85 -10.15 -6.8 Q-10.1 -6.8 -10.05 -6.75 M-10.0 -6.4 L-9.95 -6.35 -9.95 -6.25 Q-9.95 -6.15 -9.95 -6.1 L-10.0 -6.0 -10.05 -6.0 -10.1 -5.95 -10.15 -5.95 Q-10.2 -5.95 -10.2 -6.1 -10.2 -6.15 -10.15 -6.25 L-10.15 -6.35 -10.1 -6.4 -10.0 -6.4" fill="#ffff66" fill-rule="evenodd" stroke="none"/>
    <path d="M3.75 -17.0 Q3.85 -16.9 3.85 -16.85 L3.85 -16.75 3.8 -16.7 3.7 -16.85 Q3.65 -16.95 3.6 -17.05 L3.65 -17.1 3.75 -17.0 M13.1 -6.4 L12.95 -6.35 Q12.9 -6.35 12.9 -6.4 12.95 -6.45 13.05 -6.5 13.15 -6.55 13.25 -6.5 13.25 -6.45 13.1 -6.4 M13.3 -5.25 L13.25 -5.25 Q13.35 -5.4 13.5 -5.4 L13.55 -5.4 13.5 -5.3 Q13.4 -5.2 13.3 -5.25 M-11.05 -12.1 L-10.95 -12.1 -10.95 -12.05 -11.1 -11.95 -11.25 -11.95 -11.25 -12.0 -11.2 -12.05 -11.05 -12.1 M-11.15 -11.5 Q-11.05 -11.5 -11.0 -11.5 L-11.05 -11.45 -11.15 -11.45 Q-11.25 -11.45 -11.25 -11.5 L-11.15 -11.5 M-10.45 -7.2 L-10.5 -7.15 Q-10.5 -7.2 -10.55 -7.25 -10.6 -7.35 -10.6 -7.4 L-10.55 -7.35 Q-10.45 -7.3 -10.45 -7.2 M-10.85 -7.35 L-11.1 -7.35 Q-11.25 -7.25 -11.25 -7.2 -11.25 -7.1 -11.25 -7.05 L-11.35 -7.05 -11.35 -7.1 Q-11.35 -7.2 -11.2 -7.3 -11.1 -7.4 -11.0 -7.4 -10.8 -7.4 -10.8 -7.35 L-10.85 -7.35 M-11.3 -6.4 L-11.25 -6.5 -11.05 -6.45 -11.05 -6.4 -11.3 -6.4 M-10.15 -6.8 L-10.05 -6.75 -10.05 -6.7 Q-10.2 -6.6 -10.25 -6.6 L-10.3 -6.65 -10.3 -6.7 Q-10.3 -6.8 -10.25 -6.8 L-10.15 -6.8 M-10.1 -6.25 Q-10.1 -6.3 -10.1 -6.35 L-10.0 -6.35 -10.0 -6.25 Q-10.0 -6.2 -10.0 -6.1 L-10.1 -6.0 Q-10.15 -6.0 -10.15 -6.1 L-10.1 -6.25" fill="#ffffff" fill-rule="evenodd" stroke="none"/>
  </g>
</svg>
