<?xml version="1.0" encoding="UTF-8" standalone="no"?>
<svg xmlns:ffdec="https://www.free-decompiler.com/flash" xmlns:xlink="http://www.w3.org/1999/xlink" ffdec:objectType="shape" height="23.35px" width="23.0px" xmlns="http://www.w3.org/2000/svg">
  <g transform="matrix(1.0, 0.0, 0.0, 1.0, 35.0, 28.05)">
    <path d="M-25.35 -27.85 Q-25.15 -27.75 -24.35 -27.0 -24.1 -26.75 -23.95 -26.4 L-23.9 -26.1 -23.8 -25.65 Q-23.7 -25.3 -23.75 -25.1 -23.75 -24.95 -23.85 -24.75 -23.95 -24.6 -24.1 -24.45 -24.2 -24.35 -24.35 -24.3 -24.55 -24.25 -24.65 -24.15 L-25.05 -23.75 Q-25.3 -23.65 -25.75 -23.75 L-26.45 -23.95 -26.65 -24.1 -26.65 -24.35 -26.8 -24.5 -27.55 -24.45 Q-28.0 -24.4 -28.15 -24.2 L-28.45 -23.75 Q-28.65 -23.3 -28.75 -23.2 -29.05 -22.85 -29.45 -22.8 -29.9 -22.75 -29.95 -22.7 -30.05 -22.55 -30.1 -22.3 -30.15 -22.05 -30.2 -21.95 -30.25 -21.9 -30.7 -22.0 L-31.45 -22.15 -32.25 -22.85 Q-32.9 -23.55 -32.8 -24.35 -32.75 -24.95 -32.4 -25.3 -32.35 -25.35 -32.2 -25.45 L-31.95 -25.65 Q-31.8 -25.8 -31.7 -26.25 -31.65 -26.65 -31.45 -26.9 -31.25 -27.1 -30.95 -27.3 -30.6 -27.5 -30.3 -27.85 -29.45 -28.25 -28.05 -27.8 -27.95 -27.65 -27.85 -27.5 L-27.7 -27.3 -27.45 -27.1 Q-27.0 -27.05 -26.8 -27.3 L-26.55 -27.7 Q-26.4 -27.85 -26.3 -27.9 -26.15 -27.95 -25.65 -27.8 L-25.35 -27.85 M-26.05 -23.2 L-25.1 -23.0 Q-24.85 -23.25 -24.6 -23.35 L-24.5 -23.5 -24.15 -23.6 -23.75 -23.6 -23.3 -23.2 Q-23.3 -22.8 -23.25 -22.7 L-23.0 -22.3 -22.7 -22.1 -22.55 -22.25 Q-22.4 -22.3 -22.25 -22.3 -22.0 -21.85 -21.65 -22.0 -21.35 -22.1 -21.2 -22.4 L-21.1 -22.6 -20.95 -22.75 -20.3 -22.75 Q-19.75 -22.3 -19.8 -21.9 L-19.85 -21.7 Q-19.7 -21.6 -19.75 -21.35 L-19.8 -20.85 Q-19.5 -20.2 -19.55 -20.0 -19.55 -19.95 -19.75 -19.7 L-19.95 -19.5 -20.15 -19.35 -20.7 -19.4 Q-20.8 -19.5 -20.8 -19.6 L-20.85 -19.8 Q-21.15 -19.8 -21.5 -19.5 -21.8 -19.25 -22.2 -19.25 -22.7 -19.25 -23.05 -19.45 -23.65 -19.8 -23.75 -19.85 L-24.15 -19.95 -24.65 -20.05 -24.55 -20.1 -24.85 -20.15 Q-25.65 -20.2 -25.8 -20.05 -26.0 -19.85 -26.0 -19.4 -26.0 -19.0 -26.05 -18.9 -26.25 -18.7 -26.7 -18.6 L-26.85 -18.6 Q-26.95 -18.6 -27.05 -18.5 L-27.1 -18.45 -27.15 -18.3 Q-27.25 -18.2 -27.55 -18.1 L-27.85 -18.0 Q-27.95 -17.85 -27.8 -17.55 L-27.75 -17.5 -27.65 -17.2 -28.15 -17.2 -28.5 -17.3 -28.95 -17.45 Q-29.7 -18.55 -29.75 -18.8 -29.85 -19.05 -29.4 -19.55 -29.15 -19.85 -29.5 -20.35 -29.85 -20.85 -29.6 -21.15 -29.35 -21.4 -29.25 -21.7 L-29.15 -22.05 Q-28.95 -22.3 -28.5 -22.4 L-27.75 -22.45 -27.65 -22.3 -27.5 -22.15 Q-27.35 -22.35 -27.1 -22.45 -26.85 -22.55 -26.8 -22.6 -26.8 -22.65 -26.75 -22.85 -26.75 -23.05 -26.7 -23.1 -26.55 -23.25 -26.05 -23.2 M-30.9 -19.95 L-30.85 -19.45 Q-30.85 -19.3 -31.0 -19.15 -31.2 -18.95 -31.55 -18.8 -32.15 -18.65 -32.55 -19.05 L-33.1 -19.6 Q-33.25 -19.95 -33.1 -20.35 -33.0 -20.7 -32.85 -20.9 -32.55 -21.25 -32.05 -21.3 -31.35 -21.35 -30.6 -20.6 -30.55 -20.45 -30.7 -20.2 L-30.9 -19.95 M-33.4 -18.0 L-33.2 -18.05 -32.9 -18.05 -32.85 -18.1 Q-32.55 -18.2 -32.25 -18.1 L-32.15 -18.1 Q-31.9 -18.05 -31.6 -17.8 -31.25 -17.55 -31.05 -17.45 -30.8 -17.35 -30.75 -17.25 L-30.7 -16.9 Q-30.7 -16.8 -30.85 -16.4 -31.0 -16.0 -31.05 -15.9 L-31.1 -15.85 -31.2 -15.6 -30.95 -15.4 -30.55 -15.3 -30.25 -15.25 Q-30.15 -15.15 -30.15 -14.95 L-30.1 -14.65 -30.05 -14.45 Q-30.0 -14.3 -30.0 -14.15 L-30.05 -14.05 Q-30.05 -13.9 -30.2 -13.75 L-30.35 -13.6 Q-30.4 -13.05 -29.85 -12.55 -29.0 -11.8 -28.7 -11.9 -28.6 -11.9 -28.5 -12.05 L-28.4 -12.15 -27.9 -12.0 Q-27.65 -11.95 -27.5 -12.2 L-27.45 -12.1 -26.85 -11.5 Q-26.8 -11.35 -26.9 -11.2 L-27.05 -10.95 Q-27.1 -10.9 -27.05 -10.6 L-27.0 -10.2 Q-26.95 -10.0 -27.1 -9.65 L-27.2 -9.35 -27.3 -9.2 -27.4 -9.1 Q-27.45 -9.0 -27.55 -8.95 L-27.7 -8.9 -27.75 -8.9 Q-28.0 -8.8 -28.4 -8.75 -29.35 -8.65 -30.0 -9.25 L-30.15 -9.2 Q-30.25 -9.2 -30.45 -9.35 -30.6 -9.45 -30.7 -9.7 -30.8 -9.9 -30.8 -9.95 -30.9 -10.0 -31.05 -10.05 -31.2 -10.0 -31.55 -10.05 -31.95 -10.1 -32.1 -10.2 L-32.45 -10.55 -32.7 -10.85 Q-34.0 -12.25 -33.75 -13.4 L-33.85 -13.55 -33.8 -13.7 Q-33.75 -13.8 -33.85 -13.85 L-34.15 -14.05 Q-34.5 -14.2 -34.7 -14.35 L-35.0 -14.65 Q-35.05 -16.8 -34.2 -17.75 -34.1 -17.85 -33.8 -17.95 -33.55 -18.05 -33.4 -18.0 M-26.6 -14.9 L-26.65 -14.85 -26.55 -14.85 -26.7 -14.75 -26.75 -14.65 -26.75 -14.6 Q-26.85 -14.25 -26.5 -13.95 -26.35 -13.8 -26.2 -13.9 -26.05 -14.0 -25.9 -13.95 -24.75 -12.95 -24.25 -12.85 -24.05 -12.85 -23.9 -12.95 L-23.7 -12.95 -23.5 -13.0 Q-22.85 -12.5 -22.6 -12.55 L-22.55 -12.55 Q-22.45 -12.65 -22.4 -12.85 L-22.05 -13.0 -21.85 -13.05 Q-21.65 -13.25 -21.65 -13.45 -21.65 -13.65 -21.55 -13.85 L-21.55 -13.9 -21.6 -13.95 -21.55 -14.0 -21.5 -14.0 -21.5 -14.05 -21.4 -14.0 -21.05 -13.95 Q-20.85 -13.9 -20.55 -13.3 -20.55 -13.25 -20.75 -12.8 -20.85 -12.5 -20.75 -12.2 -20.7 -12.05 -20.7 -11.55 -20.65 -11.0 -20.75 -10.95 -20.95 -10.75 -21.45 -10.85 -21.9 -10.9 -22.15 -10.5 -22.3 -10.2 -22.7 -10.15 -23.15 -10.05 -23.8 -10.3 L-24.0 -10.5 -24.05 -10.65 -24.05 -10.85 Q-24.5 -11.0 -24.95 -10.55 -25.15 -10.35 -25.25 -10.35 -25.45 -10.3 -25.7 -10.55 L-26.05 -10.85 Q-26.0 -11.0 -26.0 -11.15 -26.0 -11.35 -26.35 -11.5 L-26.15 -11.7 Q-26.1 -11.75 -26.1 -11.85 L-26.15 -12.0 Q-27.05 -12.95 -27.3 -12.85 L-27.5 -12.7 Q-27.6 -12.55 -27.7 -12.6 L-27.95 -12.75 -28.0 -13.0 -28.05 -13.05 Q-28.2 -13.2 -28.15 -13.35 L-28.1 -13.45 -28.2 -13.5 Q-28.45 -13.7 -28.25 -14.1 -28.2 -14.3 -28.05 -14.45 -27.7 -14.8 -27.3 -14.95 -26.95 -15.05 -26.75 -14.95 L-26.7 -15.0 -26.6 -14.95 -26.6 -14.9 M-23.4 -9.3 Q-23.25 -9.5 -22.95 -9.35 -22.5 -9.15 -21.95 -9.15 -21.65 -9.15 -21.55 -9.35 -21.4 -9.6 -21.3 -9.7 -21.05 -10.05 -20.95 -10.05 L-20.1 -10.15 -19.85 -10.0 -19.7 -9.85 -19.5 -9.7 Q-18.5 -9.5 -18.3 -9.55 -18.15 -9.65 -17.95 -10.1 -17.85 -10.2 -17.5 -10.25 L-17.15 -10.3 Q-17.0 -10.5 -17.0 -10.85 L-17.0 -11.2 Q-16.7 -11.55 -15.8 -11.4 -14.85 -11.2 -14.35 -10.6 L-14.3 -10.45 -14.25 -10.35 -14.25 -10.3 Q-14.1 -10.05 -14.15 -9.75 -14.15 -9.55 -14.25 -9.25 -14.25 -9.15 -14.3 -8.85 -14.4 -8.5 -14.45 -8.45 -14.6 -8.3 -15.05 -8.05 L-15.6 -7.7 Q-15.8 -7.5 -15.85 -6.85 -15.95 -6.2 -16.15 -6.0 -16.3 -5.8 -16.7 -5.65 L-17.35 -5.4 -17.9 -5.05 Q-18.25 -4.8 -18.45 -4.8 L-19.3 -4.7 Q-19.9 -4.7 -20.4 -5.0 -21.05 -5.4 -21.6 -5.25 -22.1 -5.15 -22.35 -5.35 L-22.75 -5.9 -23.0 -6.3 -23.25 -6.5 -23.6 -6.55 -24.1 -7.15 -24.1 -7.55 -24.15 -7.65 -24.15 -8.15 Q-24.1 -8.4 -23.9 -8.5 -23.75 -8.5 -23.7 -8.75 L-23.45 -9.25 -23.4 -9.3 M-16.0 -23.9 Q-15.65 -23.8 -15.15 -23.2 L-14.75 -22.85 -14.75 -22.8 Q-14.65 -22.65 -14.6 -22.55 -14.6 -22.35 -14.55 -22.3 -14.35 -22.1 -13.5 -21.6 L-13.45 -21.5 -12.9 -21.2 Q-12.5 -20.8 -12.3 -20.5 -12.0 -20.05 -12.0 -19.6 -12.0 -19.4 -12.1 -18.95 -12.2 -18.55 -12.2 -18.45 L-12.1 -17.65 Q-12.0 -17.1 -12.1 -17.0 L-12.3 -16.4 Q-12.4 -16.25 -12.55 -16.1 L-12.85 -15.8 -12.85 -15.75 -13.3 -15.5 Q-13.65 -15.4 -13.85 -15.35 L-14.4 -15.4 Q-15.05 -15.5 -15.65 -16.05 L-15.9 -16.3 -15.85 -16.55 -15.75 -16.7 -16.0 -16.95 -16.55 -17.05 Q-17.05 -17.15 -17.2 -17.25 L-17.35 -17.45 -18.05 -18.1 Q-18.05 -18.45 -17.8 -18.9 -17.65 -19.2 -17.8 -19.3 -17.85 -19.4 -18.0 -19.4 L-18.1 -19.35 -18.85 -20.0 -18.85 -20.05 Q-19.0 -20.25 -19.05 -20.55 L-19.05 -20.95 -19.15 -21.2 -19.25 -21.6 -19.5 -22.15 Q-19.7 -22.6 -19.65 -22.9 L-19.7 -22.9 Q-19.7 -23.1 -19.4 -23.6 -19.1 -23.95 -18.8 -24.0 L-17.65 -23.95 Q-17.55 -24.05 -17.3 -24.05 L-16.8 -24.05 -16.25 -23.95 -16.15 -23.9 -16.0 -23.9 M-22.6 -25.55 Q-22.4 -25.8 -22.25 -25.8 -21.85 -25.85 -21.15 -25.2 L-21.15 -24.65 -21.1 -24.55 Q-21.0 -24.25 -21.05 -24.0 -21.05 -23.7 -21.15 -23.6 -21.4 -23.3 -21.75 -23.2 L-22.65 -23.15 Q-23.15 -23.7 -23.15 -23.95 L-22.95 -24.2 Q-22.75 -24.45 -22.75 -24.9 -22.75 -25.4 -22.6 -25.55 M-18.3 -17.7 Q-18.3 -17.55 -18.2 -17.45 -18.15 -17.4 -17.6 -17.2 -17.0 -16.9 -16.6 -16.55 L-16.6 -16.35 -16.55 -16.1 -16.5 -16.1 -16.3 -16.0 Q-16.1 -15.75 -16.45 -14.85 L-16.85 -13.95 Q-17.0 -13.75 -17.25 -13.85 -17.65 -13.95 -17.8 -13.95 L-18.1 -13.9 -18.55 -13.85 -18.8 -14.1 Q-19.0 -14.4 -18.85 -14.6 -18.85 -14.65 -18.65 -14.7 -18.45 -14.75 -18.4 -14.8 -18.25 -14.95 -18.55 -15.35 L-18.85 -15.5 Q-19.15 -15.6 -19.25 -15.7 -19.75 -16.1 -19.65 -16.35 L-19.5 -16.55 Q-19.4 -16.65 -19.4 -16.7 L-19.4 -17.35 Q-19.4 -17.5 -19.25 -17.65 L-19.0 -17.9 Q-18.9 -17.95 -18.55 -17.95 L-18.35 -17.85 -18.3 -17.7 M-15.45 -14.5 Q-15.45 -14.6 -15.4 -14.7 -14.5 -14.8 -14.3 -14.25 -14.2 -13.95 -14.25 -13.75 -14.25 -13.6 -14.4 -13.45 -14.5 -13.35 -15.25 -13.25 L-16.15 -13.2 -16.3 -13.35 Q-16.35 -13.6 -16.35 -13.85 -16.3 -14.1 -16.2 -14.2 -16.1 -14.3 -15.85 -14.3 L-15.55 -14.3 Q-15.5 -14.4 -15.45 -14.5" fill="#ffffff" fill-opacity="0.4509804" fill-rule="evenodd" stroke="none"/>
  </g>
</svg>
