<?xml version="1.0" encoding="UTF-8" standalone="no"?>
<svg xmlns:ffdec="https://www.free-decompiler.com/flash" xmlns:xlink="http://www.w3.org/1999/xlink" ffdec:objectType="shape" height="19.7px" width="18.5px" xmlns="http://www.w3.org/2000/svg">
  <g transform="matrix(1.0, 0.0, 0.0, 1.0, 26.15, 33.7)">
    <path d="M-18.1 -33.55 Q-17.65 -33.3 -17.3 -32.75 -16.9 -32.1 -17.0 -31.5 L-17.15 -31.25 -17.25 -31.25 -17.2 -31.2 -17.3 -31.25 -17.4 -31.35 -17.7 -31.4 -18.1 -31.3 -18.45 -31.2 Q-18.7 -31.15 -18.85 -31.25 L-19.05 -31.4 -19.35 -31.55 -19.65 -31.5 -20.05 -31.45 -20.2 -31.25 -20.25 -31.05 -20.2 -31.05 Q-20.15 -30.95 -20.55 -30.3 -20.9 -29.8 -21.65 -29.5 L-22.65 -29.15 Q-22.85 -28.8 -22.8 -28.6 -22.65 -28.35 -22.65 -28.2 -23.0 -27.85 -22.75 -27.4 -22.5 -26.85 -22.7 -26.55 L-23.1 -25.95 Q-23.15 -25.9 -23.25 -25.9 L-23.35 -25.95 -23.45 -26.05 -23.5 -26.0 -23.45 -26.0 -23.45 -25.95 -23.8 -26.0 -24.0 -26.1 Q-24.35 -26.3 -24.65 -27.05 -25.0 -28.05 -24.45 -29.0 L-24.3 -29.2 Q-24.0 -29.3 -23.9 -29.4 -23.75 -29.6 -23.75 -30.05 -23.75 -30.55 -23.6 -30.8 L-23.45 -31.0 Q-23.15 -31.4 -23.1 -31.45 -22.25 -32.45 -21.55 -32.65 -21.25 -32.7 -20.65 -32.55 L-20.55 -32.65 Q-20.5 -32.7 -20.45 -32.95 L-20.35 -33.25 Q-20.05 -33.7 -19.1 -33.7 -18.35 -33.7 -18.1 -33.55 M-12.0 -32.7 Q-11.6 -32.7 -11.2 -32.45 L-10.6 -31.85 -10.2 -31.85 -9.8 -31.9 Q-9.4 -31.8 -9.2 -31.7 -8.45 -31.2 -8.2 -29.85 -8.0 -28.55 -8.4 -28.1 -8.35 -27.85 -8.15 -27.7 L-7.8 -27.4 Q-7.4 -26.95 -8.1 -25.5 L-8.05 -25.5 Q-8.55 -24.7 -9.0 -24.55 -9.3 -24.5 -9.55 -24.65 L-9.85 -25.05 Q-9.9 -25.35 -9.85 -25.45 L-9.75 -25.55 -9.75 -25.75 -9.65 -26.0 -9.45 -26.4 -9.2 -26.45 -9.05 -26.7 -9.1 -26.9 Q-9.15 -27.15 -8.95 -27.45 L-9.0 -27.65 Q-9.05 -27.8 -9.1 -27.85 -9.6 -27.95 -9.7 -28.0 -10.0 -28.15 -10.25 -28.65 -10.6 -29.25 -10.35 -29.7 -10.5 -29.85 -10.55 -30.0 L-10.7 -30.3 -10.95 -30.45 Q-11.1 -30.55 -10.95 -30.9 L-11.3 -30.9 Q-11.5 -30.85 -11.6 -30.75 -11.75 -30.75 -12.3 -30.95 -12.8 -31.1 -12.9 -31.2 -13.05 -31.3 -13.1 -31.4 L-13.25 -31.9 Q-12.75 -32.7 -12.0 -32.7 M-14.15 -32.5 Q-14.0 -32.4 -13.6 -31.55 -13.5 -31.3 -13.5 -31.25 -13.55 -31.2 -13.9 -31.15 -14.0 -31.1 -14.2 -31.05 L-14.5 -31.1 -14.6 -31.25 -14.75 -31.4 -14.85 -31.45 -14.9 -31.4 -14.95 -31.3 Q-15.2 -31.2 -15.25 -31.3 L-15.35 -31.45 Q-15.4 -31.5 -15.55 -31.4 -15.7 -31.3 -15.75 -31.35 -15.8 -31.35 -15.8 -31.55 L-15.9 -31.95 -15.75 -32.25 Q-15.6 -32.3 -15.3 -32.5 -15.0 -32.65 -14.8 -32.65 L-14.45 -32.6 -14.15 -32.5 M-14.7 -29.55 Q-14.5 -29.5 -14.2 -29.6 -13.9 -29.7 -13.7 -29.6 -13.35 -29.5 -12.95 -29.2 -12.55 -28.95 -12.3 -28.4 -12.15 -28.1 -12.1 -27.85 L-11.95 -27.8 Q-11.85 -27.8 -11.8 -27.8 -11.6 -27.65 -11.4 -27.25 -11.35 -27.2 -11.35 -26.9 L-11.3 -26.5 -11.5 -26.25 -11.65 -26.15 -12.05 -26.15 Q-12.35 -26.2 -12.45 -26.25 L-12.65 -26.4 Q-12.7 -26.5 -12.7 -26.95 L-12.65 -27.0 -12.55 -27.05 -12.5 -27.2 Q-12.4 -27.2 -12.55 -27.3 L-12.9 -27.35 -13.3 -27.35 Q-13.65 -27.5 -13.85 -27.65 -14.15 -27.85 -14.35 -28.2 L-14.55 -28.6 -14.7 -28.6 -14.9 -28.3 Q-15.2 -28.3 -15.35 -28.45 L-15.55 -28.6 -15.75 -28.8 Q-15.85 -28.85 -15.85 -28.9 L-15.8 -29.05 -15.45 -29.55 -15.1 -29.55 Q-15.0 -29.5 -14.85 -29.4 L-14.7 -29.55 M-24.6 -22.4 Q-24.4 -22.4 -24.2 -22.3 -24.1 -22.25 -24.0 -22.1 -23.9 -21.9 -23.9 -21.7 -23.9 -21.65 -24.1 -21.2 -24.2 -20.8 -24.1 -20.65 -23.75 -20.45 -23.55 -20.05 -23.25 -19.55 -23.6 -19.15 L-23.8 -19.05 -23.9 -18.9 -23.95 -18.8 -23.95 -18.7 -24.05 -18.5 -24.15 -18.2 -24.0 -17.9 -23.85 -17.9 -23.65 -17.95 -23.4 -17.8 Q-23.3 -17.75 -23.25 -17.55 L-23.15 -17.3 -22.85 -17.4 -22.6 -17.4 Q-22.3 -17.2 -22.2 -17.1 -22.05 -16.95 -21.95 -16.65 L-21.9 -16.65 -21.7 -16.35 Q-21.6 -16.3 -21.4 -16.35 L-21.0 -16.4 Q-20.75 -16.3 -20.55 -16.2 -20.45 -16.1 -20.45 -15.75 -20.4 -15.45 -20.55 -15.15 L-20.85 -14.65 -21.25 -14.65 -21.7 -14.6 Q-22.25 -14.6 -22.45 -14.7 -22.65 -14.85 -22.7 -15.1 -22.8 -15.4 -22.9 -15.5 -23.35 -15.75 -23.8 -15.6 -24.3 -15.45 -24.7 -15.7 -24.9 -15.85 -25.2 -16.3 L-25.55 -16.9 Q-26.05 -17.4 -26.1 -18.15 -26.15 -18.9 -25.75 -19.25 -26.1 -20.25 -26.15 -20.4 -26.2 -20.8 -25.9 -21.25 L-25.75 -21.5 -25.6 -21.6 -25.4 -21.65 Q-25.45 -21.7 -25.35 -21.65 L-25.35 -21.6 -25.4 -21.7 -25.4 -21.75 -25.1 -22.25 Q-24.85 -22.4 -24.6 -22.4 M-10.9 -24.8 Q-11.0 -24.35 -11.1 -24.1 L-11.25 -23.95 -11.3 -23.95 -11.35 -23.65 -11.45 -23.15 Q-11.45 -22.95 -11.4 -22.75 L-11.4 -22.7 -11.15 -22.45 Q-11.0 -22.25 -11.2 -21.75 -11.3 -21.4 -11.5 -21.15 -11.65 -20.95 -11.9 -20.95 L-12.35 -20.9 -12.85 -20.95 Q-13.05 -21.0 -13.2 -20.8 -13.25 -20.8 -13.3 -20.85 -13.4 -20.9 -13.4 -21.05 -13.45 -21.25 -13.4 -21.3 L-13.25 -21.6 -12.85 -21.65 Q-12.85 -21.75 -12.75 -22.0 L-12.55 -22.25 -12.45 -22.25 -12.25 -22.3 -12.05 -22.65 -12.15 -22.85 Q-12.4 -23.05 -12.4 -23.1 -12.35 -23.25 -12.3 -23.45 L-12.4 -23.75 Q-12.4 -23.9 -12.3 -24.0 -12.3 -24.2 -12.4 -24.3 L-12.6 -24.45 Q-12.65 -24.5 -12.75 -24.55 L-12.85 -24.6 Q-12.9 -24.7 -12.85 -24.8 L-12.8 -25.1 -12.5 -25.75 -12.4 -25.85 -11.95 -25.85 Q-11.65 -25.75 -11.6 -25.75 L-11.5 -25.85 Q-11.35 -25.8 -11.15 -25.65 -10.8 -25.45 -10.9 -24.8 M-9.05 -23.9 L-8.9 -23.8 Q-8.8 -23.75 -8.85 -23.6 -8.85 -23.05 -8.85 -23.0 -8.9 -22.8 -9.05 -22.5 L-9.4 -22.0 Q-9.65 -21.95 -9.75 -22.05 -10.0 -22.2 -9.85 -22.4 L-9.95 -22.7 Q-10.15 -23.0 -10.1 -23.3 -9.8 -23.65 -9.9 -23.75 -10.15 -23.95 -10.1 -24.15 L-10.05 -24.25 Q-9.5 -24.4 -9.25 -24.25 L-9.15 -24.15 -9.05 -23.9 M-9.35 -19.7 L-9.4 -19.6 -9.3 -19.5 -9.25 -19.35 -9.1 -19.15 Q-9.05 -19.05 -9.05 -18.9 L-9.0 -18.6 Q-8.95 -18.25 -9.0 -18.2 -9.1 -17.9 -9.25 -17.6 L-9.35 -17.5 -9.35 -17.45 Q-9.45 -17.3 -9.55 -17.2 -9.75 -17.05 -9.95 -16.9 L-10.0 -16.9 -10.05 -16.8 -10.15 -16.8 -10.4 -16.75 -10.55 -16.75 Q-10.5 -16.65 -10.5 -16.35 -10.55 -15.9 -11.0 -15.3 -11.15 -14.95 -11.45 -14.7 -11.55 -14.6 -12.0 -14.3 -12.5 -14.1 -12.9 -14.15 -13.2 -14.2 -13.65 -14.35 L-13.7 -14.45 Q-13.9 -13.95 -14.6 -14.0 -15.15 -14.0 -15.5 -14.25 -15.75 -14.4 -15.85 -14.6 -15.95 -14.8 -16.0 -15.3 L-15.75 -15.55 Q-15.7 -15.45 -15.7 -15.35 -15.5 -15.6 -14.9 -15.55 L-14.25 -15.55 -14.2 -15.9 -14.05 -16.2 -14.1 -16.5 Q-14.15 -16.7 -14.05 -16.85 -13.45 -17.8 -13.3 -17.9 L-13.0 -17.9 -12.4 -17.75 Q-12.3 -17.8 -12.3 -17.95 -12.35 -18.2 -12.25 -18.4 -11.9 -18.95 -11.7 -19.05 -11.55 -19.1 -11.5 -19.25 L-11.3 -19.25 -11.2 -19.45 Q-11.05 -19.6 -11.15 -19.75 L-11.3 -20.0 -11.25 -20.05 Q-11.3 -20.1 -11.25 -20.15 -11.0 -20.5 -10.45 -20.55 L-10.1 -20.55 -9.8 -20.5 Q-9.7 -20.4 -9.55 -20.15 -9.4 -19.95 -9.35 -19.7 M-19.3 -27.25 Q-19.2 -27.15 -19.25 -27.05 L-19.35 -26.85 -19.45 -26.75 -19.7 -26.75 Q-19.8 -26.65 -19.9 -26.65 L-20.0 -26.35 -20.1 -26.15 Q-20.15 -26.05 -20.45 -25.75 -20.6 -25.7 -20.65 -25.7 L-20.75 -25.75 Q-20.9 -25.85 -20.9 -26.05 -20.95 -26.2 -20.9 -26.6 -19.9 -27.6 -19.45 -27.35 L-19.3 -27.25 M-21.75 -25.1 L-21.35 -25.4 -21.2 -25.4 -21.05 -25.35 -20.85 -25.4 -20.7 -25.4 Q-20.6 -25.35 -20.45 -25.15 -20.35 -24.9 -20.35 -24.8 -20.6 -24.3 -20.6 -24.1 L-20.55 -23.85 -20.75 -23.55 Q-21.1 -23.4 -21.35 -23.5 L-21.5 -23.3 Q-21.65 -23.3 -21.75 -23.4 -21.85 -23.45 -22.05 -23.75 L-22.3 -24.1 Q-22.35 -24.15 -22.3 -24.35 -22.25 -24.65 -22.25 -24.7 L-22.0 -24.95 -21.75 -25.1 M-22.3 -22.55 L-22.2 -22.7 -22.0 -22.85 -21.8 -22.95 -21.45 -23.0 Q-21.3 -22.9 -21.35 -22.75 -21.45 -22.5 -21.4 -22.3 -21.35 -22.2 -21.2 -22.15 L-20.95 -22.05 -20.65 -21.65 Q-20.4 -21.25 -20.25 -21.2 -20.2 -21.15 -20.05 -21.15 L-19.7 -21.1 Q-19.6 -21.05 -19.55 -20.85 -19.8 -20.55 -20.0 -20.3 L-20.75 -20.25 Q-21.0 -20.25 -21.25 -20.4 -21.55 -20.6 -21.7 -21.05 -21.85 -21.55 -21.9 -21.55 -21.95 -21.6 -22.0 -21.55 -22.1 -21.5 -22.15 -21.55 -22.35 -21.7 -22.35 -22.05 L-22.3 -22.55 M-17.65 -17.8 L-17.45 -17.5 -17.35 -17.55 Q-17.3 -17.6 -17.2 -17.7 -16.9 -17.5 -16.85 -17.65 L-16.85 -17.95 Q-16.5 -18.45 -16.25 -18.6 L-16.05 -18.6 -15.85 -18.55 Q-15.75 -18.5 -15.6 -18.6 L-15.45 -18.65 Q-15.45 -18.8 -15.5 -18.9 L-15.55 -19.0 Q-15.5 -19.15 -15.5 -19.2 L-15.5 -19.3 Q-15.4 -19.35 -15.35 -19.5 L-15.2 -19.75 -15.25 -19.85 Q-15.3 -19.95 -15.2 -20.1 L-15.1 -20.25 -14.95 -20.3 -14.75 -20.3 -14.65 -20.35 -14.5 -20.35 Q-14.4 -20.3 -14.35 -19.85 -14.25 -19.4 -14.3 -19.25 L-14.4 -19.0 -14.7 -18.95 Q-14.8 -18.9 -14.95 -18.65 -15.05 -18.5 -15.0 -18.4 L-14.95 -18.2 Q-14.85 -17.9 -15.3 -17.45 L-15.75 -17.05 Q-16.0 -16.8 -16.25 -16.7 -16.4 -16.65 -16.6 -16.7 L-16.9 -16.8 -17.3 -16.85 -17.45 -17.0 -17.7 -17.0 -17.9 -17.05 Q-18.0 -17.1 -18.05 -17.3 -18.1 -17.45 -18.1 -17.6 L-17.95 -17.75 -17.95 -17.65 -17.8 -17.8 Q-17.7 -17.8 -17.65 -17.8 M-17.4 -15.3 L-17.2 -15.3 Q-17.15 -15.25 -17.1 -15.2 -17.05 -15.1 -17.05 -14.9 L-17.15 -14.75 Q-17.5 -14.6 -17.85 -14.45 L-18.25 -14.45 Q-18.5 -14.6 -18.55 -14.8 -18.6 -15.1 -18.7 -15.4 L-18.55 -15.6 -18.45 -15.6 -18.15 -15.2 -18.1 -15.25 -17.9 -15.25 -17.7 -15.2 Q-17.45 -15.2 -17.4 -15.3" fill="#ffffff" fill-opacity="0.4" fill-rule="evenodd" stroke="none"/>
  </g>
</svg>
