<?xml version="1.0" encoding="UTF-8" standalone="no"?>
<svg xmlns:ffdec="https://www.free-decompiler.com/flash" xmlns:xlink="http://www.w3.org/1999/xlink" ffdec:objectType="shape" height="23.1px" width="24.65px" xmlns="http://www.w3.org/2000/svg">
  <g transform="matrix(1.0, 0.0, 0.0, 1.0, 35.95, 28.25)">
    <path d="M-26.35 -27.6 L-27.15 -27.7 -27.2 -27.75 Q-26.95 -27.9 -26.8 -27.95 -26.55 -28.05 -26.3 -27.75 L-26.3 -27.7 -26.35 -27.6 M-28.25 -28.0 L-28.2 -28.1 Q-27.9 -28.3 -27.75 -28.2 -27.65 -28.15 -27.6 -28.05 L-27.6 -27.8 -28.2 -27.85 -28.25 -28.0 M-26.65 -24.5 Q-26.7 -24.4 -26.8 -24.4 L-26.95 -24.45 Q-27.1 -24.55 -27.0 -24.5 L-27.0 -24.55 -26.95 -24.65 Q-26.8 -24.8 -26.65 -24.75 L-26.2 -24.6 -26.15 -24.55 -26.2 -24.45 Q-26.25 -24.35 -26.4 -24.45 L-26.65 -24.5 M-29.2 -27.55 L-29.4 -27.4 Q-29.55 -27.3 -29.7 -27.35 L-29.85 -27.55 -30.0 -27.6 -30.2 -27.7 -30.25 -27.75 Q-30.25 -27.8 -30.2 -27.9 L-29.7 -27.9 Q-29.3 -27.8 -29.15 -27.7 L-29.2 -27.55 M-33.5 -22.2 Q-33.4 -22.35 -33.3 -22.5 L-33.1 -22.7 Q-33.0 -22.65 -32.8 -22.45 L-33.05 -22.2 -33.25 -22.05 -33.3 -22.05 Q-33.35 -22.05 -33.4 -22.1 -33.55 -22.2 -33.5 -22.2 M-33.65 -20.3 Q-33.75 -20.2 -33.9 -20.2 -34.05 -20.2 -34.1 -20.25 -34.3 -20.4 -34.2 -20.7 -34.1 -20.9 -34.05 -21.0 -33.75 -21.35 -33.55 -20.95 -33.4 -20.6 -33.65 -20.3 M-35.2 -17.9 Q-34.95 -17.65 -35.3 -17.3 L-35.65 -16.95 -35.7 -16.95 Q-35.75 -16.95 -35.85 -17.05 -36.0 -17.2 -35.95 -17.45 L-35.8 -17.7 Q-35.45 -18.1 -35.2 -17.9 M-35.6 -16.6 L-35.4 -16.45 -35.5 -16.25 -35.65 -16.3 -35.75 -16.4 -35.7 -16.5 -35.6 -16.6 M-35.75 -15.55 L-35.7 -15.75 Q-35.5 -16.05 -35.25 -15.6 -34.95 -15.1 -35.1 -14.95 L-35.25 -14.85 -35.35 -14.9 -35.5 -15.0 Q-35.75 -15.25 -35.75 -15.55 M-34.95 -11.9 Q-34.95 -12.2 -34.85 -12.3 L-34.75 -12.35 -34.55 -12.1 Q-34.35 -11.85 -34.35 -11.65 L-34.15 -11.45 -34.2 -11.35 -34.7 -11.35 Q-34.95 -11.5 -34.95 -11.9 M-33.35 -10.75 Q-33.2 -10.65 -33.15 -10.65 -33.1 -10.6 -33.15 -10.55 L-33.2 -10.45 Q-33.3 -10.35 -33.5 -10.3 -33.7 -10.3 -33.8 -10.4 -33.9 -10.5 -33.7 -10.95 -33.55 -10.85 -33.35 -10.75 M-11.5 -21.6 Q-11.45 -21.6 -11.5 -21.5 -11.65 -21.35 -11.8 -21.3 -12.0 -21.25 -12.1 -21.35 -12.15 -21.45 -12.15 -21.55 L-12.3 -21.7 -12.55 -21.8 Q-12.9 -22.0 -13.05 -22.05 L-13.2 -22.2 -13.25 -22.45 -13.2 -22.55 Q-13.1 -22.7 -13.0 -22.7 -12.85 -22.75 -12.7 -22.6 L-12.45 -22.35 Q-12.45 -22.3 -12.5 -22.25 L-12.55 -22.15 -12.5 -22.2 Q-12.35 -22.05 -12.2 -22.3 -11.95 -22.15 -11.55 -21.7 L-11.5 -21.6 M-15.05 -24.8 Q-14.75 -24.7 -14.6 -24.55 -14.5 -24.5 -14.35 -24.1 L-13.8 -23.55 -13.8 -23.45 Q-13.8 -23.4 -13.9 -23.3 L-13.95 -23.25 -14.0 -23.25 -14.1 -23.3 Q-14.2 -23.4 -14.15 -23.45 -14.4 -23.55 -14.5 -23.6 L-14.6 -23.6 Q-14.8 -23.75 -14.85 -23.9 -14.9 -24.1 -14.95 -24.15 -15.0 -24.2 -15.15 -24.3 L-15.35 -24.45 Q-15.45 -24.5 -15.4 -24.65 L-15.35 -24.8 Q-15.3 -24.85 -15.05 -24.8 M-17.1 -25.1 Q-16.95 -25.15 -16.4 -25.4 -15.9 -25.5 -15.55 -25.05 L-16.0 -25.1 -16.35 -25.2 -16.7 -25.1 -17.05 -25.05 -17.1 -25.1 M-11.6 -20.3 Q-11.2 -20.05 -11.35 -19.6 L-11.6 -19.6 -11.7 -19.65 Q-11.8 -19.75 -11.75 -20.0 L-11.7 -20.2 -11.6 -20.3 M-15.4 -17.2 L-15.35 -17.25 Q-15.3 -17.35 -15.0 -17.05 L-14.65 -16.65 -14.65 -16.25 -14.8 -16.15 -14.85 -16.15 Q-14.9 -16.15 -14.95 -16.25 -15.05 -16.3 -15.0 -16.3 L-14.95 -16.3 -15.2 -16.6 -15.15 -16.75 -15.25 -16.75 -15.4 -16.95 -15.4 -17.2 M-14.2 -6.25 L-14.4 -6.05 -14.6 -5.95 -14.7 -6.0 Q-14.8 -6.15 -14.7 -6.5 -14.65 -6.75 -14.55 -6.9 L-14.35 -7.1 Q-14.05 -6.75 -14.05 -6.6 -14.0 -6.45 -14.2 -6.25 M-15.0 -6.2 L-15.05 -6.0 Q-15.1 -5.95 -15.2 -6.0 L-15.25 -6.1 -15.2 -6.2 Q-15.15 -6.25 -15.1 -6.25 -15.05 -6.25 -15.0 -6.2 M-15.35 -5.4 Q-15.45 -5.3 -15.65 -5.2 -15.9 -5.1 -15.95 -5.15 -16.1 -5.3 -16.05 -5.4 L-15.95 -5.55 Q-15.7 -5.85 -15.3 -5.65 -15.25 -5.6 -15.25 -5.55 -15.25 -5.5 -15.35 -5.4" fill="#ffffff" fill-opacity="0.101960786" fill-rule="evenodd" stroke="none"/>
  </g>
</svg>
