<?xml version="1.0" encoding="UTF-8" standalone="no"?>
<svg xmlns:ffdec="https://www.free-decompiler.com/flash" xmlns:xlink="http://www.w3.org/1999/xlink" ffdec:objectType="shape" height="19.0px" width="16.5px" xmlns="http://www.w3.org/2000/svg">
  <g transform="matrix(1.0, 0.0, 0.0, 1.0, 24.75, 33.5)">
    <path d="M-19.1 -33.1 Q-18.85 -32.95 -19.2 -32.65 -19.5 -32.4 -19.65 -32.5 L-19.75 -32.6 -19.7 -32.65 -19.65 -32.8 Q-19.5 -33.05 -19.3 -33.1 L-19.1 -33.1 M-17.6 -33.4 Q-17.2 -33.2 -17.35 -32.95 L-17.85 -32.95 -18.15 -33.2 -18.15 -33.25 -18.1 -33.35 Q-18.0 -33.5 -17.8 -33.5 -17.7 -33.45 -17.6 -33.4 M-18.5 -33.15 L-18.45 -33.1 Q-18.45 -33.05 -18.5 -32.95 L-18.7 -32.95 -18.7 -33.1 -18.6 -33.15 -18.5 -33.15 M-21.65 -31.85 L-21.8 -31.65 Q-22.0 -31.45 -22.15 -31.45 L-22.2 -31.35 -22.3 -31.25 -22.35 -31.3 -22.4 -31.5 -22.4 -31.7 Q-22.35 -31.9 -22.05 -31.95 L-21.7 -31.9 -21.65 -31.85 M-22.75 -30.35 Q-22.8 -30.35 -22.85 -30.35 L-22.95 -30.4 Q-23.05 -30.45 -23.05 -30.6 -23.1 -30.75 -23.05 -30.85 L-22.6 -30.85 -22.7 -30.55 -22.75 -30.35 M-13.8 -32.15 Q-13.75 -32.25 -13.75 -32.2 L-13.5 -32.05 -13.3 -31.95 Q-13.35 -31.85 -13.45 -31.7 L-13.6 -31.75 -13.85 -32.0 -13.85 -32.05 -13.8 -32.15 M-15.4 -32.25 L-15.4 -32.4 Q-15.25 -32.6 -15.0 -32.55 -14.85 -32.5 -14.75 -32.45 -14.45 -32.25 -14.7 -32.1 L-15.3 -32.05 Q-15.35 -32.15 -15.4 -32.25 M-8.85 -30.4 Q-8.75 -30.3 -8.75 -30.0 -8.8 -29.7 -8.85 -29.55 L-8.95 -29.6 -9.1 -29.7 Q-9.2 -29.8 -9.2 -29.9 L-9.05 -30.1 -9.05 -30.2 -9.0 -30.4 -8.95 -30.4 Q-8.9 -30.4 -8.85 -30.4 M-8.5 -28.85 L-8.4 -28.85 Q-8.2 -28.65 -8.25 -28.5 -8.3 -28.4 -8.4 -28.4 L-8.55 -28.35 -8.6 -28.8 -8.5 -28.85 M-24.4 -16.2 Q-24.15 -16.05 -24.25 -15.7 -24.3 -15.65 -24.35 -15.65 L-24.45 -15.7 Q-24.55 -15.75 -24.65 -15.9 -24.8 -16.05 -24.75 -16.15 -24.65 -16.25 -24.55 -16.25 L-24.4 -16.2 M-23.8 -15.5 L-23.95 -15.55 Q-24.0 -15.55 -23.95 -15.65 L-23.9 -15.7 -23.8 -15.7 Q-23.75 -15.65 -23.75 -15.6 -23.75 -15.55 -23.8 -15.5 M-23.15 -15.25 L-23.0 -15.1 Q-23.2 -14.85 -23.35 -14.8 -23.45 -14.8 -23.65 -14.9 L-23.8 -15.0 -23.95 -15.15 -23.9 -15.25 Q-23.8 -15.35 -23.5 -15.35 -23.3 -15.35 -23.15 -15.25 M-8.6 -27.95 L-8.55 -28.0 -8.35 -27.75 Q-8.2 -27.55 -8.4 -27.3 L-8.45 -27.3 -8.55 -27.35 -8.6 -27.95 M-11.0 -27.45 L-10.95 -27.4 Q-10.8 -27.3 -10.8 -27.2 L-10.85 -26.8 -10.95 -26.75 -11.0 -26.8 Q-11.05 -26.85 -11.05 -26.95 -11.0 -27.1 -11.0 -27.15 -11.1 -27.2 -11.15 -27.25 L-11.1 -27.4 -11.05 -27.45 -11.0 -27.45 M-9.25 -19.75 L-8.95 -19.25 Q-8.75 -18.85 -9.05 -18.5 -9.15 -18.6 -9.1 -18.85 L-9.1 -19.15 Q-9.1 -19.25 -9.2 -19.45 L-9.3 -19.7 -9.25 -19.75 M-9.7 -17.95 Q-9.65 -18.0 -9.65 -18.1 L-9.55 -18.3 Q-9.5 -18.35 -9.4 -18.35 L-9.25 -18.35 Q-9.2 -18.3 -9.2 -18.1 -9.25 -17.85 -9.35 -17.7 -9.4 -17.6 -9.65 -17.45 L-9.75 -17.3 -10.0 -16.95 Q-10.05 -16.95 -10.1 -16.95 -10.15 -16.9 -10.25 -16.95 L-10.3 -17.0 -10.3 -17.05 -10.25 -17.15 Q-10.2 -17.2 -10.15 -17.2 -10.1 -17.4 -10.1 -17.5 L-10.1 -17.6 Q-10.0 -17.75 -9.9 -17.8 L-9.7 -17.95 M-11.0 -16.3 L-10.8 -16.35 -10.7 -16.35 Q-10.6 -16.25 -10.55 -16.2 -10.55 -16.1 -10.6 -15.95 L-10.75 -15.75 -10.8 -15.7 -10.9 -15.75 Q-11.0 -15.6 -10.75 -15.5 -10.85 -15.3 -11.15 -14.9 L-11.25 -14.85 -11.3 -14.9 Q-11.45 -14.95 -11.5 -15.05 -11.55 -15.2 -11.5 -15.3 -11.45 -15.35 -11.4 -15.4 L-11.25 -15.5 -11.25 -15.7 Q-11.1 -16.0 -11.1 -16.15 L-11.0 -16.3 M-15.25 -17.35 L-15.15 -17.3 Q-15.1 -17.25 -15.3 -17.0 L-15.55 -16.65 -15.85 -16.65 -15.95 -16.7 -15.95 -16.75 -15.9 -16.85 -15.85 -16.9 -15.85 -16.85 -15.65 -17.1 Q-15.6 -17.1 -15.55 -17.05 L-15.55 -17.15 -15.45 -17.3 -15.25 -17.35 M-12.8 -14.7 L-12.8 -14.8 Q-12.75 -14.85 -12.55 -14.85 L-12.35 -14.8 -12.3 -14.8 -12.25 -14.75 Q-12.4 -14.4 -12.8 -14.5 L-12.8 -14.7" fill="#ffffff" fill-opacity="0.101960786" fill-rule="evenodd" stroke="none"/>
  </g>
</svg>
