<?xml version="1.0" encoding="UTF-8" standalone="no"?>
<svg xmlns:ffdec="https://www.free-decompiler.com/flash" xmlns:xlink="http://www.w3.org/1999/xlink" ffdec:objectType="shape" height="14.7px" width="27.15px" xmlns="http://www.w3.org/2000/svg">
  <g transform="matrix(1.0, 0.0, 0.0, 1.0, 12.85, 12.9)">
    <path d="M0.7 -8.45 L0.65 -8.35 -0.7 -7.55 Q-1.8 -6.95 -1.9 -6.95 L-2.0 -6.95 Q-2.05 -7.0 -2.1 -7.05 -2.15 -7.15 -2.05 -7.25 L-2.0 -7.25 Q0.2 -8.5 0.45 -8.65 L0.6 -8.65 0.65 -8.6 0.7 -8.45 M0.8 -7.3 Q0.8 -7.4 0.85 -7.45 0.9 -7.5 0.95 -7.5 L1.0 -7.5 Q1.05 -7.5 1.1 -7.45 1.45 -7.05 1.5 -6.9 L1.55 -6.75 1.45 -6.65 Q1.4 -6.6 1.35 -6.65 1.3 -6.65 1.25 -6.7 L0.85 -7.2 0.8 -7.3 M2.8 -2.1 L2.9 -2.05 Q2.9 -1.95 2.9 -1.9 L2.85 -1.75 2.75 -1.65 2.65 -1.6 Q2.55 -1.55 2.5 -1.65 2.45 -1.7 2.45 -1.8 2.4 -1.9 2.55 -2.0 L2.7 -2.1 2.8 -2.1 M14.05 -11.55 Q14.05 -11.3 13.5 -10.6 L12.9 -9.85 12.85 -9.8 12.75 -9.8 Q12.7 -9.8 12.65 -9.85 12.6 -9.9 12.6 -9.95 12.6 -10.05 12.65 -10.1 L13.25 -10.9 13.45 -11.3 Q13.65 -11.6 13.75 -11.7 L13.8 -11.75 13.95 -11.75 Q14.05 -11.7 14.05 -11.55 M-12.45 -7.75 L-12.15 -7.6 -12.15 -7.45 Q-12.15 -7.4 -12.2 -7.35 L-12.25 -7.3 Q-12.3 -7.3 -12.4 -7.3 -12.6 -7.3 -12.7 -7.4 L-12.75 -7.4 -12.85 -7.55 -12.85 -7.75 -12.8 -7.85 -12.75 -7.9 -12.65 -7.9 -12.45 -7.75 M-1.15 -9.25 L-0.9 -9.25 -0.8 -9.15 -0.8 -9.05 -0.85 -8.95 -0.9 -8.9 -1.05 -8.85 -1.15 -8.85 -1.2 -8.9 Q-1.3 -8.95 -1.3 -9.05 L-1.3 -9.1 -1.25 -9.2 -1.15 -9.25 M-9.0 -1.3 L-8.95 -1.3 -8.05 -1.0 -7.95 -0.9 -7.95 -0.75 -8.05 -0.65 -8.2 -0.65 Q-8.5 -0.7 -8.7 -0.8 L-9.05 -1.0 -9.1 -1.05 -9.15 -1.15 -9.1 -1.25 -9.0 -1.3 M-3.95 1.65 L-3.95 1.6 Q-3.95 1.45 -3.8 1.45 L-3.65 1.4 Q-3.6 1.4 -3.6 1.45 L-3.55 1.45 -3.55 1.55 -3.5 1.65 -3.55 1.7 -3.55 1.75 Q-3.6 1.8 -3.65 1.8 L-3.75 1.8 Q-3.95 1.8 -3.95 1.7 L-3.95 1.65" fill="#e1ffd2" fill-opacity="0.2" fill-rule="evenodd" stroke="none"/>
    <path d="M2.35 -9.7 L2.45 -9.65 2.55 -9.55 2.55 -9.45 2.45 -9.4 2.45 -9.35 1.1 -8.6 Q0.2 -8.15 -0.1 -7.9 -0.15 -7.85 -0.2 -7.85 -0.25 -7.9 -0.3 -7.9 L-0.3 -7.95 Q-0.35 -8.0 -0.35 -8.05 L-0.3 -8.15 Q-0.1 -8.4 0.25 -8.6 L1.0 -9.0 1.65 -9.35 Q2.2 -9.65 2.35 -9.7 M0.55 -8.0 L0.65 -8.0 Q0.75 -7.95 0.85 -7.8 L0.95 -7.65 0.95 -7.45 0.9 -7.45 0.85 -7.35 0.75 -7.35 Q0.6 -7.4 0.5 -7.6 L0.45 -7.8 Q0.45 -7.85 0.5 -7.9 L0.55 -8.0 M13.95 -12.8 L14.1 -12.8 14.25 -12.65 14.25 -12.5 Q14.25 -12.15 14.15 -11.85 14.05 -11.55 13.8 -11.15 L13.75 -11.1 13.65 -11.1 Q13.55 -11.1 13.5 -11.25 L13.5 -11.35 13.55 -11.35 Q13.75 -11.8 13.8 -12.05 L13.85 -12.3 13.8 -12.55 13.8 -12.6 Q13.8 -12.75 13.85 -12.75 L13.95 -12.8 M-12.55 -7.35 L-12.55 -7.6 -12.5 -7.65 -12.4 -7.7 Q-12.05 -7.65 -11.7 -7.8 L-11.5 -7.95 -11.25 -8.0 Q-11.2 -8.0 -11.15 -7.95 L-11.1 -7.85 Q-11.1 -7.75 -11.15 -7.7 -11.2 -7.6 -11.5 -7.45 -11.85 -7.25 -12.15 -7.25 L-12.45 -7.3 -12.5 -7.3 -12.55 -7.35 M-7.3 -0.55 Q-7.3 -0.65 -7.2 -0.7 L-7.15 -0.7 -6.05 -0.55 -6.0 -0.55 -5.95 -0.5 Q-5.75 -0.45 -5.8 -0.35 L-5.8 -0.3 Q-5.8 -0.25 -5.85 -0.2 L-5.95 -0.15 -6.05 -0.15 Q-6.8 -0.2 -7.2 -0.4 L-7.3 -0.45 -7.3 -0.55 M-3.65 1.45 L-3.45 1.25 -3.3 1.15 -3.15 1.15 -3.1 1.25 Q-3.05 1.3 -3.1 1.35 -3.1 1.5 -3.3 1.6 -3.45 1.7 -3.55 1.7 L-3.65 1.65 -3.7 1.55 -3.65 1.4 -3.65 1.45" fill="#f3ffee" fill-opacity="0.5019608" fill-rule="evenodd" stroke="none"/>
    <path d="M2.75 -9.5 Q1.8 -9.05 1.55 -8.9 L1.45 -8.9 Q1.4 -8.9 1.35 -8.95 1.3 -9.05 1.35 -9.1 L1.4 -9.2 Q1.65 -9.4 2.6 -9.9 L3.85 -10.6 3.95 -10.6 4.05 -10.5 4.05 -10.4 4.0 -10.3 Q3.7 -10.0 2.75 -9.5 M0.55 -8.45 L0.6 -8.35 0.7 -8.1 0.7 -7.95 0.65 -7.9 Q0.6 -7.85 0.55 -7.85 L0.5 -7.85 Q0.45 -7.85 0.45 -7.9 0.4 -7.9 0.35 -8.05 0.25 -8.2 0.3 -8.3 L0.3 -8.35 Q0.3 -8.5 0.4 -8.5 L0.45 -8.5 0.55 -8.45 M14.0 -12.9 Q14.2 -12.9 14.25 -12.7 L14.3 -12.5 Q14.3 -12.2 14.15 -11.95 L14.1 -11.85 14.0 -11.85 Q13.95 -11.85 13.9 -11.9 13.85 -11.9 13.85 -11.95 L13.85 -12.05 13.9 -12.25 13.9 -12.45 13.85 -12.65 13.85 -12.8 13.9 -12.85 14.0 -12.9 M-11.7 -7.8 L-11.65 -7.8 -10.2 -8.65 -10.1 -8.65 Q-10.05 -8.65 -10.0 -8.6 -10.0 -8.55 -10.0 -8.5 L-10.05 -8.4 Q-10.3 -8.1 -10.85 -7.8 -11.35 -7.5 -11.5 -7.5 L-11.6 -7.5 Q-11.7 -7.55 -11.7 -7.6 -11.8 -7.7 -11.7 -7.8 M-12.35 -4.85 Q-12.3 -4.8 -12.3 -4.7 -12.3 -4.5 -12.4 -4.45 L-12.65 -4.45 -12.7 -4.5 -12.75 -4.6 -12.75 -4.8 -12.7 -4.9 -12.65 -4.95 Q-12.45 -5.05 -12.35 -4.85 M-5.05 -0.25 L-5.0 -0.35 -4.9 -0.4 -4.15 -0.45 -3.3 -0.45 Q-3.1 -0.4 -3.1 -0.25 L-3.15 -0.2 Q-3.15 -0.15 -3.2 -0.1 -3.25 -0.05 -3.3 -0.05 L-4.0 -0.05 Q-5.05 -0.05 -5.05 -0.25 M-2.6 0.8 L-2.6 0.9 -2.75 1.15 Q-2.85 1.3 -3.0 1.35 L-3.15 1.35 Q-3.3 1.3 -3.3 1.2 L-3.25 1.1 -3.2 1.05 -3.05 0.85 Q-2.9 0.7 -2.8 0.65 L-2.75 0.65 -2.65 0.7 -2.6 0.8" fill="#f4ffee" fill-opacity="0.8" fill-rule="evenodd" stroke="none"/>
  </g>
</svg>
