<?xml version="1.0" encoding="UTF-8" standalone="no"?>
<svg xmlns:ffdec="https://www.free-decompiler.com/flash" xmlns:xlink="http://www.w3.org/1999/xlink" ffdec:objectType="shape" height="23.85px" width="100.55px" xmlns="http://www.w3.org/2000/svg">
  <g transform="matrix(1.0, 0.0, 0.0, 1.0, 53.0, 27.65)">
    <path d="M45.0 -24.75 Q45.0 -24.85 45.3 -25.45 L45.35 -25.55 45.45 -25.55 Q45.6 -25.5 45.7 -25.4 L45.85 -25.2 45.9 -25.1 45.9 -25.0 Q45.85 -24.95 45.8 -24.95 45.55 -24.9 45.5 -24.85 L45.45 -24.85 45.5 -24.75 45.6 -24.65 46.25 -24.7 46.85 -24.75 46.9 -24.75 46.95 -24.7 47.3 -23.95 Q47.5 -23.5 47.55 -23.3 L47.5 -23.2 47.45 -23.15 47.3 -23.1 47.3 -23.05 47.2 -23.0 46.85 -22.9 46.8 -22.9 46.3 -23.2 46.1 -23.3 46.1 -23.1 46.0 -23.0 45.85 -23.0 45.8 -23.05 Q45.75 -23.1 45.7 -23.15 L45.7 -23.35 45.65 -23.55 45.65 -23.6 45.7 -23.65 45.7 -23.75 45.8 -23.75 46.1 -23.8 46.2 -23.8 Q46.45 -23.55 47.0 -23.4 L46.95 -23.85 Q46.7 -24.05 46.65 -24.25 L46.05 -24.2 45.5 -24.2 Q45.45 -24.2 45.4 -24.25 L45.25 -24.4 45.2 -24.4 Q45.05 -24.55 45.0 -24.75 M45.15 -24.8 Q45.2 -24.65 45.3 -24.5 45.4 -24.45 45.5 -24.35 L46.05 -24.35 46.75 -24.4 Q46.8 -24.15 47.05 -23.9 L47.15 -23.35 47.2 -23.3 Q47.2 -23.25 47.05 -23.25 46.35 -23.45 46.1 -23.7 L45.8 -23.65 45.8 -23.55 45.85 -23.4 45.85 -23.2 45.9 -23.15 46.0 -23.15 45.9 -23.55 46.35 -23.3 Q46.75 -23.05 46.8 -23.05 L47.2 -23.15 47.2 -23.2 47.4 -23.3 Q47.35 -23.45 47.15 -23.9 L46.85 -24.65 46.3 -24.55 45.55 -24.5 45.25 -24.8 45.35 -24.95 Q45.45 -25.05 45.75 -25.1 L45.6 -25.3 45.4 -25.4 Q45.15 -24.85 45.15 -24.8 M40.6 -27.6 L40.95 -27.65 41.05 -27.65 41.15 -27.55 Q41.15 -27.4 41.4 -27.25 41.75 -27.0 41.75 -26.8 41.8 -26.5 41.7 -26.45 L41.65 -26.45 Q41.6 -26.4 41.55 -26.4 L40.5 -26.2 39.5 -25.95 39.4 -25.95 39.0 -26.2 Q38.95 -26.2 38.95 -26.25 L38.95 -26.35 39.0 -26.4 Q38.95 -26.5 39.05 -26.8 L39.1 -26.95 39.0 -26.95 Q38.8 -27.0 38.75 -27.1 L38.75 -27.25 38.85 -27.3 Q39.3 -27.4 39.4 -27.25 39.5 -27.2 39.5 -26.95 39.55 -26.75 39.35 -26.45 L39.55 -26.4 40.0 -26.45 Q40.1 -26.45 40.4 -26.7 40.65 -26.9 41.25 -26.8 L41.05 -27.0 Q40.95 -27.1 40.85 -27.15 40.8 -27.0 40.75 -26.95 L40.65 -26.9 40.6 -26.9 40.5 -26.95 40.4 -27.15 Q40.4 -27.2 40.45 -27.25 L40.5 -27.3 40.5 -27.45 40.55 -27.5 40.6 -27.6 M40.65 -27.45 L40.65 -27.3 Q40.6 -27.2 40.55 -27.15 L40.65 -27.05 40.75 -27.35 Q41.0 -27.3 41.2 -27.1 L41.5 -26.8 41.4 -26.65 Q40.75 -26.8 40.5 -26.6 40.15 -26.3 40.05 -26.3 L39.55 -26.3 39.2 -26.35 39.05 -26.3 Q39.3 -26.15 39.45 -26.05 L40.45 -26.35 41.55 -26.55 41.6 -26.6 41.6 -26.75 Q41.6 -26.95 41.3 -27.15 41.0 -27.35 41.0 -27.5 L40.65 -27.45 M39.25 -27.05 Q39.25 -26.95 39.2 -26.75 39.1 -26.5 39.15 -26.45 L39.15 -26.4 Q39.4 -26.75 39.4 -26.9 L39.3 -27.15 38.9 -27.15 39.05 -27.1 39.25 -27.05 M38.0 -27.2 L38.05 -27.25 38.1 -27.25 38.35 -27.35 38.4 -27.35 Q38.55 -27.35 38.6 -27.05 L38.6 -26.95 38.55 -26.9 38.45 -26.9 38.35 -26.85 38.1 -26.7 38.0 -26.75 37.95 -26.8 Q37.9 -26.85 37.9 -26.9 L38.0 -27.2 M38.25 -27.0 L38.5 -27.05 Q38.45 -27.2 38.4 -27.2 L38.15 -27.15 38.05 -26.85 38.25 -27.0 M26.55 -13.85 L26.55 -14.05 Q26.9 -14.4 27.35 -14.45 L27.45 -14.45 27.5 -14.35 27.5 -14.25 Q27.4 -14.1 27.3 -13.95 L27.25 -13.95 27.2 -13.9 27.25 -13.85 27.2 -13.75 27.2 -13.7 27.4 -13.75 27.45 -13.8 Q28.3 -13.9 28.65 -14.15 28.9 -14.3 29.05 -14.55 29.3 -14.95 29.5 -15.1 29.9 -15.35 30.7 -15.5 30.9 -15.55 31.25 -15.5 L31.75 -15.4 32.4 -15.5 32.55 -15.6 Q32.75 -15.8 33.25 -15.95 34.0 -16.2 34.15 -16.45 L33.85 -16.5 33.6 -16.55 33.45 -16.3 33.25 -16.1 Q33.25 -16.05 33.2 -16.05 L32.85 -16.0 32.75 -16.0 Q32.7 -16.05 32.65 -16.1 L32.65 -16.2 Q32.65 -16.25 32.75 -16.3 33.05 -16.45 33.35 -16.8 L33.4 -16.85 Q33.75 -17.15 34.5 -16.85 L34.55 -16.8 Q34.75 -16.65 34.75 -16.5 L34.75 -16.4 Q34.55 -16.1 34.35 -15.95 34.05 -15.75 33.1 -15.5 L33.05 -15.4 33.05 -15.35 32.95 -15.25 32.95 -15.2 Q32.9 -15.15 32.85 -15.15 L32.45 -15.1 32.45 -15.05 32.4 -15.0 32.3 -14.95 31.65 -14.95 31.4 -15.05 31.25 -15.15 30.45 -15.0 Q29.85 -14.9 29.5 -14.4 29.05 -13.7 28.75 -13.7 L27.15 -13.2 Q26.85 -13.15 26.8 -13.4 L26.7 -13.65 26.7 -13.8 26.75 -13.8 Q26.85 -13.75 26.8 -13.7 L26.9 -13.45 Q26.95 -13.35 27.15 -13.35 27.25 -13.4 27.9 -13.6 L28.7 -13.85 Q28.95 -13.85 29.35 -14.45 29.75 -15.05 30.4 -15.15 L31.25 -15.3 31.45 -15.2 Q31.6 -15.1 31.7 -15.1 L32.3 -15.1 Q32.3 -15.2 32.85 -15.3 L32.95 -15.45 33.0 -15.6 Q34.0 -15.85 34.3 -16.1 34.45 -16.2 34.6 -16.5 34.6 -16.6 34.45 -16.75 33.8 -17.0 33.45 -16.75 33.15 -16.35 32.8 -16.15 L32.85 -16.15 33.15 -16.2 33.35 -16.4 33.55 -16.7 33.9 -16.65 34.35 -16.55 Q34.35 -16.1 33.3 -15.8 32.8 -15.7 32.7 -15.5 32.55 -15.35 32.45 -15.35 L31.75 -15.25 31.25 -15.35 Q30.9 -15.4 30.7 -15.35 29.95 -15.25 29.6 -14.95 29.4 -14.85 29.2 -14.5 29.0 -14.2 28.75 -14.0 28.35 -13.75 27.5 -13.65 27.4 -13.6 27.05 -13.55 27.05 -13.75 27.1 -13.85 L26.95 -13.95 Q27.1 -14.0 27.2 -14.05 27.3 -14.2 27.35 -14.35 26.95 -14.25 26.65 -13.95 L26.8 -13.9 26.55 -13.85 M-46.4 -12.75 Q-46.45 -12.65 -46.75 -12.45 L-47.25 -12.05 Q-47.5 -11.9 -47.85 -11.8 L-48.3 -11.65 Q-48.65 -11.5 -49.0 -11.4 L-49.0 -11.3 -49.1 -11.15 -49.5 -11.0 Q-49.7 -10.75 -49.65 -10.65 -49.65 -10.6 -49.6 -10.6 -49.5 -10.65 -49.5 -10.8 -49.5 -10.85 -48.95 -11.05 -48.9 -11.2 -48.9 -11.3 -47.95 -11.55 -47.35 -11.9 L-46.65 -12.3 Q-45.8 -12.75 -45.7 -12.75 L-43.45 -13.15 Q-43.35 -13.2 -43.15 -13.35 -42.95 -13.5 -42.65 -13.6 L-42.45 -13.95 Q-42.35 -14.1 -42.35 -14.15 L-39.3 -14.7 Q-39.3 -14.75 -39.35 -14.75 L-39.35 -14.8 -42.4 -14.25 -42.55 -14.0 Q-42.7 -13.75 -42.7 -13.7 -43.1 -13.6 -43.3 -13.45 -43.45 -13.25 -43.6 -13.25 -45.35 -12.9 -46.35 -12.8 L-46.4 -12.75 M-50.05 -10.65 L-50.0 -10.65 -49.95 -10.6 -49.9 -10.6 Q-49.8 -10.55 -49.8 -10.45 -49.8 -10.4 -49.85 -10.35 L-49.95 -10.3 -50.4 -10.1 -50.9 -9.95 -50.9 -9.7 -50.95 -9.6 -51.0 -9.55 Q-51.25 -9.45 -51.6 -9.05 -51.85 -8.75 -52.0 -8.6 -51.9 -8.4 -51.95 -8.25 L-52.05 -8.15 -52.15 -8.15 Q-52.45 -8.2 -52.55 -8.4 L-52.6 -8.6 Q-52.65 -8.9 -52.55 -8.9 -52.5 -8.95 -52.45 -8.95 L-51.8 -9.5 Q-51.45 -9.85 -51.25 -10.3 L-51.2 -10.3 -51.15 -10.35 -50.4 -10.55 -50.05 -10.65 M-46.8 -12.55 L-46.55 -12.8 Q-46.5 -12.95 -46.4 -12.95 -45.4 -13.05 -43.6 -13.4 -43.5 -13.4 -43.4 -13.55 -43.15 -13.7 -42.8 -13.85 L-42.7 -14.05 Q-42.55 -14.35 -42.5 -14.4 L-42.45 -14.4 -39.4 -14.95 -39.3 -14.9 -39.25 -14.9 Q-39.2 -14.85 -39.15 -14.75 -39.15 -14.7 -39.2 -14.65 L-39.3 -14.6 -42.25 -14.05 -42.3 -13.9 -42.35 -13.9 -42.55 -13.55 -42.6 -13.5 Q-42.9 -13.4 -43.05 -13.25 -43.3 -13.05 -43.45 -13.05 L-45.7 -12.6 Q-45.8 -12.6 -46.55 -12.15 L-47.25 -11.75 Q-47.9 -11.45 -48.75 -11.2 L-48.85 -11.0 -48.85 -10.9 Q-48.9 -10.9 -48.95 -10.9 -49.35 -10.75 -49.35 -10.8 -49.35 -10.6 -49.5 -10.45 L-49.6 -10.45 Q-49.8 -10.5 -49.8 -10.6 -49.85 -10.75 -49.6 -11.1 L-49.55 -11.1 -49.2 -11.25 -49.15 -11.3 -49.15 -11.4 -49.1 -11.5 -49.05 -11.55 -48.35 -11.8 -47.85 -11.95 Q-47.55 -12.0 -47.35 -12.15 L-46.85 -12.55 -46.8 -12.55 M-49.95 -10.45 L-50.0 -10.5 -50.05 -10.5 -51.1 -10.2 Q-51.35 -9.8 -51.7 -9.4 -51.95 -9.15 -52.4 -8.8 L-52.45 -8.8 Q-52.5 -8.8 -52.45 -8.65 L-52.4 -8.5 Q-52.35 -8.35 -52.1 -8.3 -52.05 -8.4 -52.1 -8.5 L-52.2 -8.65 Q-52.1 -8.7 -51.7 -9.15 -51.35 -9.55 -51.05 -9.7 L-51.05 -9.85 Q-51.05 -10.0 -51.0 -10.05 -50.75 -10.15 -50.45 -10.25 L-49.95 -10.45 M-52.55 -6.3 L-52.15 -6.2 -52.1 -6.2 -52.05 -6.1 -52.05 -6.05 Q-52.05 -5.95 -52.2 -5.85 L-52.35 -5.8 -52.4 -5.8 -52.35 -5.7 -52.2 -5.7 -52.15 -5.65 -52.1 -5.55 Q-52.05 -5.35 -51.85 -5.15 L-51.05 -5.15 Q-51.0 -5.15 -51.0 -5.1 L-50.65 -4.7 -48.85 -4.55 Q-47.7 -4.55 -46.35 -4.65 L-46.35 -4.6 -46.1 -4.6 Q-45.8 -4.6 -45.75 -4.3 L-45.75 -4.25 Q-44.95 -4.55 -44.75 -4.35 -44.55 -4.2 -43.5 -4.4 L-43.25 -4.45 -43.1 -4.5 -43.0 -4.45 -42.95 -4.4 Q-42.9 -4.3 -43.15 -4.15 L-43.3 -4.05 -43.35 -4.0 -44.25 -3.85 Q-44.3 -3.8 -44.65 -3.9 L-44.95 -4.0 -45.3 -3.9 -45.7 -3.8 Q-46.0 -3.8 -46.25 -3.95 L-46.3 -4.05 -46.45 -4.15 Q-48.55 -4.0 -49.75 -4.15 -50.9 -4.25 -51.15 -4.7 -51.9 -4.55 -52.25 -4.9 -52.5 -5.1 -52.95 -5.8 L-53.0 -5.9 -52.95 -6.0 Q-52.7 -6.3 -52.55 -6.3 M-52.2 -6.1 L-52.55 -6.15 Q-52.65 -6.15 -52.85 -5.9 -52.4 -5.2 -52.15 -5.0 -51.8 -4.7 -51.05 -4.85 -50.95 -4.4 -49.7 -4.3 -48.5 -4.15 -46.4 -4.3 L-46.15 -4.05 Q-45.95 -3.95 -45.7 -3.95 L-45.35 -4.05 -44.95 -4.15 -44.6 -4.05 -44.3 -3.95 -43.4 -4.15 -43.2 -4.25 -43.1 -4.35 -43.2 -4.3 Q-43.3 -4.25 -43.45 -4.25 -44.65 -4.05 -44.85 -4.25 -45.0 -4.4 -45.7 -4.15 L-45.8 -4.1 Q-45.9 -4.1 -45.9 -4.3 -45.95 -4.45 -46.15 -4.45 L-46.35 -4.5 Q-47.7 -4.4 -48.85 -4.45 L-50.7 -4.55 -51.1 -5.0 -51.45 -5.05 -51.9 -5.05 Q-52.2 -5.25 -52.25 -5.55 L-52.45 -5.6 Q-52.5 -5.7 -52.65 -5.9 -52.55 -6.0 -52.35 -5.95 L-52.2 -6.1" fill="#ffffff" fill-opacity="0.5019608" fill-rule="evenodd" stroke="none"/>
    <path d="M45.15 -24.8 Q45.15 -24.85 45.4 -25.4 L45.6 -25.3 45.75 -25.1 Q45.45 -25.05 45.35 -24.95 L45.25 -24.8 45.55 -24.5 46.3 -24.55 46.85 -24.65 47.15 -23.9 Q47.35 -23.45 47.4 -23.3 L47.2 -23.2 47.2 -23.15 46.8 -23.05 Q46.75 -23.05 46.35 -23.3 L45.9 -23.55 46.0 -23.15 45.9 -23.15 45.85 -23.2 45.85 -23.4 45.8 -23.55 45.8 -23.65 46.1 -23.7 Q46.35 -23.45 47.05 -23.25 47.2 -23.25 47.2 -23.3 L47.15 -23.35 47.05 -23.9 Q46.8 -24.15 46.75 -24.4 L46.05 -24.35 45.5 -24.35 Q45.4 -24.45 45.3 -24.5 45.2 -24.65 45.15 -24.8 M39.25 -27.05 L39.05 -27.1 38.9 -27.15 39.3 -27.15 39.4 -26.9 Q39.4 -26.75 39.15 -26.4 L39.15 -26.45 Q39.1 -26.5 39.2 -26.75 39.25 -26.95 39.25 -27.05 M40.65 -27.45 L41.0 -27.5 Q41.0 -27.35 41.3 -27.15 41.6 -26.95 41.6 -26.75 L41.6 -26.6 41.55 -26.55 40.45 -26.35 39.45 -26.05 Q39.3 -26.15 39.05 -26.3 L39.2 -26.35 39.55 -26.3 40.05 -26.3 Q40.15 -26.3 40.5 -26.6 40.75 -26.8 41.4 -26.65 L41.5 -26.8 41.2 -27.1 Q41.0 -27.3 40.75 -27.35 L40.65 -27.05 40.55 -27.15 Q40.6 -27.2 40.65 -27.3 L40.65 -27.45 M38.25 -27.0 L38.05 -26.85 38.15 -27.15 38.4 -27.2 Q38.45 -27.2 38.5 -27.05 L38.25 -27.0 M26.55 -13.85 L26.8 -13.9 26.65 -13.95 Q26.95 -14.25 27.35 -14.35 27.3 -14.2 27.2 -14.05 27.1 -14.0 26.95 -13.95 L27.1 -13.85 Q27.05 -13.75 27.05 -13.55 27.4 -13.6 27.5 -13.65 28.35 -13.75 28.75 -14.0 29.0 -14.2 29.2 -14.5 29.4 -14.85 29.6 -14.95 29.95 -15.25 30.7 -15.35 30.9 -15.4 31.25 -15.35 L31.75 -15.25 32.45 -15.35 Q32.55 -15.35 32.7 -15.5 32.8 -15.7 33.3 -15.8 34.35 -16.1 34.35 -16.55 L33.9 -16.65 33.55 -16.7 33.35 -16.4 33.15 -16.2 32.85 -16.15 32.8 -16.15 Q33.15 -16.35 33.45 -16.75 33.8 -17.0 34.45 -16.75 34.6 -16.6 34.6 -16.5 34.45 -16.2 34.3 -16.1 34.0 -15.85 33.0 -15.6 L32.95 -15.45 32.85 -15.3 Q32.3 -15.2 32.3 -15.1 L31.7 -15.1 Q31.6 -15.1 31.45 -15.2 L31.25 -15.3 30.4 -15.15 Q29.75 -15.05 29.35 -14.45 28.95 -13.85 28.7 -13.85 L27.9 -13.6 Q27.25 -13.4 27.15 -13.35 26.95 -13.35 26.9 -13.45 L26.8 -13.7 Q26.85 -13.75 26.75 -13.8 L26.7 -13.8 26.55 -13.8 26.55 -13.85 M-46.4 -12.75 L-46.35 -12.8 Q-45.35 -12.9 -43.6 -13.25 -43.45 -13.25 -43.3 -13.45 -43.1 -13.6 -42.7 -13.7 -42.7 -13.75 -42.55 -14.0 L-42.4 -14.25 -39.35 -14.8 -39.35 -14.75 Q-39.3 -14.75 -39.3 -14.7 L-42.35 -14.15 Q-42.35 -14.1 -42.45 -13.95 L-42.65 -13.6 Q-42.95 -13.5 -43.15 -13.35 -43.35 -13.2 -43.45 -13.15 L-45.7 -12.75 Q-45.8 -12.75 -46.65 -12.3 L-47.35 -11.9 Q-47.95 -11.55 -48.9 -11.3 -48.9 -11.2 -48.95 -11.05 -49.5 -10.85 -49.5 -10.8 -49.5 -10.65 -49.6 -10.6 -49.65 -10.6 -49.65 -10.65 -49.7 -10.75 -49.5 -11.0 L-49.1 -11.15 -49.0 -11.3 -49.0 -11.4 Q-48.65 -11.5 -48.3 -11.65 L-47.85 -11.8 Q-47.5 -11.9 -47.25 -12.05 L-46.75 -12.45 Q-46.45 -12.65 -46.4 -12.75 M-49.95 -10.45 L-50.45 -10.25 Q-50.75 -10.15 -51.0 -10.05 -51.05 -10.0 -51.05 -9.85 L-51.05 -9.7 Q-51.35 -9.55 -51.7 -9.15 -52.1 -8.7 -52.2 -8.65 L-52.1 -8.5 Q-52.05 -8.4 -52.1 -8.3 -52.35 -8.35 -52.4 -8.5 L-52.45 -8.65 Q-52.5 -8.8 -52.45 -8.8 L-52.4 -8.8 Q-51.95 -9.15 -51.7 -9.4 -51.35 -9.8 -51.1 -10.2 L-50.05 -10.5 -50.0 -10.5 -49.95 -10.45 M-52.2 -6.1 L-52.35 -5.95 Q-52.55 -6.0 -52.65 -5.9 -52.5 -5.7 -52.45 -5.6 L-52.25 -5.55 Q-52.2 -5.25 -51.9 -5.05 L-51.45 -5.05 -51.1 -5.0 -50.7 -4.55 -48.85 -4.45 Q-47.7 -4.4 -46.35 -4.5 L-46.15 -4.45 Q-45.95 -4.45 -45.9 -4.3 -45.9 -4.1 -45.8 -4.1 L-45.7 -4.15 Q-45.0 -4.4 -44.85 -4.25 -44.65 -4.05 -43.45 -4.25 -43.3 -4.25 -43.2 -4.3 L-43.1 -4.35 -43.2 -4.25 -43.4 -4.15 -44.3 -3.95 -44.6 -4.05 -44.95 -4.15 -45.35 -4.05 -45.7 -3.95 Q-45.95 -3.95 -46.15 -4.05 L-46.4 -4.3 Q-48.5 -4.15 -49.7 -4.3 -50.95 -4.4 -51.05 -4.85 -51.8 -4.7 -52.15 -5.0 -52.4 -5.2 -52.85 -5.9 -52.65 -6.15 -52.55 -6.15 L-52.2 -6.1" fill="#ffffff" fill-rule="evenodd" stroke="none"/>
  </g>
</svg>
