<?xml version="1.0" encoding="UTF-8" standalone="no"?>
<svg xmlns:ffdec="https://www.free-decompiler.com/flash" xmlns:xlink="http://www.w3.org/1999/xlink" ffdec:objectType="shape" height="24.65px" width="102.2px" xmlns="http://www.w3.org/2000/svg">
  <g transform="matrix(1.0, 0.0, 0.0, 1.0, 53.75, 27.7)">
    <path d="M42.05 -27.65 Q42.2 -27.6 42.4 -27.45 L42.45 -27.35 42.4 -27.25 42.35 -27.2 42.2 -27.1 42.15 -27.1 Q42.1 -27.1 42.05 -27.15 L41.95 -27.2 41.9 -27.25 41.8 -27.15 Q41.85 -26.8 41.75 -26.6 L41.7 -26.55 41.65 -26.55 41.3 -26.45 41.25 -26.45 41.15 -26.5 40.95 -26.45 40.6 -26.5 40.55 -26.5 40.5 -26.6 40.5 -26.7 Q40.45 -26.75 40.5 -26.8 L40.6 -26.95 40.4 -26.95 40.35 -27.0 Q40.3 -27.05 40.3 -27.15 40.3 -27.25 40.6 -27.35 L40.75 -27.4 40.8 -27.4 40.95 -27.35 41.15 -27.25 Q41.15 -27.1 41.1 -26.95 L41.2 -26.95 41.3 -26.9 41.45 -26.9 41.45 -27.55 41.5 -27.6 41.55 -27.7 42.0 -27.7 42.05 -27.65 M46.25 -24.9 L46.25 -25.0 46.3 -25.05 46.5 -25.05 Q46.55 -25.15 46.65 -25.15 46.7 -25.15 46.75 -25.05 L46.8 -24.85 Q46.8 -24.65 46.8 -24.55 L46.75 -24.35 46.7 -24.3 46.6 -24.25 46.4 -24.25 46.35 -24.3 Q46.3 -24.4 46.25 -24.6 L46.2 -24.85 46.25 -24.9 M42.15 -27.25 L42.3 -27.3 Q42.1 -27.5 42.0 -27.55 L41.6 -27.55 41.6 -27.25 Q41.55 -27.05 41.6 -26.85 L41.65 -26.85 Q41.65 -26.8 41.5 -26.75 L41.3 -26.75 41.2 -26.8 40.85 -26.8 Q41.0 -27.0 41.0 -27.2 L40.9 -27.2 40.8 -27.25 40.65 -27.2 Q40.45 -27.15 40.45 -27.1 L40.65 -27.1 40.8 -27.0 40.6 -26.75 40.65 -26.65 40.95 -26.6 41.25 -26.6 41.6 -26.7 Q41.7 -26.85 41.65 -27.2 41.85 -27.35 41.85 -27.4 41.95 -27.4 42.05 -27.35 L42.15 -27.25 M40.25 -27.55 L40.3 -27.45 40.3 -27.25 Q40.25 -27.2 40.2 -27.2 40.1 -27.15 39.75 -26.95 L39.7 -26.9 39.6 -26.95 39.55 -27.0 39.55 -27.05 39.5 -27.15 39.55 -27.2 Q39.6 -27.35 39.8 -27.45 39.95 -27.55 40.15 -27.6 L40.25 -27.55 M39.7 -27.05 Q40.05 -27.3 40.15 -27.3 L40.15 -27.45 39.9 -27.35 39.65 -27.15 39.7 -27.05 M34.8 -17.0 L34.35 -17.0 33.4 -16.9 33.35 -16.95 Q33.05 -16.9 32.95 -16.4 L32.45 -16.25 31.9 -16.1 31.65 -15.9 Q31.55 -15.8 31.6 -15.7 L31.65 -15.55 31.65 -15.5 32.95 -15.6 Q33.1 -15.55 33.3 -15.4 L33.65 -15.5 33.75 -15.7 33.8 -15.75 33.55 -15.6 Q33.35 -15.55 32.9 -15.7 L32.4 -15.8 32.2 -15.8 Q32.0 -15.8 32.0 -15.85 L32.45 -16.05 Q32.75 -16.25 33.05 -16.35 33.05 -16.45 33.15 -16.6 L33.3 -16.75 34.35 -16.8 Q34.6 -16.8 34.7 -16.85 L34.75 -16.8 Q34.65 -16.6 34.4 -16.3 L34.65 -16.4 Q34.65 -16.45 34.65 -16.4 L34.9 -16.7 34.9 -16.8 Q34.85 -16.95 34.8 -17.0 M27.8 -14.5 L28.7 -14.65 28.95 -15.0 28.95 -15.05 Q29.05 -15.2 29.45 -15.35 L29.5 -15.35 30.4 -15.4 30.5 -15.35 30.55 -15.25 30.6 -14.85 30.6 -14.75 30.5 -14.65 30.3 -14.6 29.75 -14.6 Q29.65 -14.5 29.4 -14.3 29.0 -14.0 28.8 -13.9 L28.3 -13.8 Q28.2 -13.75 28.1 -13.8 L28.05 -13.8 Q27.8 -13.75 27.7 -13.8 27.55 -13.8 27.45 -14.0 L27.45 -14.05 27.5 -14.15 Q27.7 -14.5 27.8 -14.5 M34.7 -17.1 L34.75 -17.15 34.85 -17.15 Q35.0 -17.1 35.05 -16.85 L35.05 -16.65 35.0 -16.55 34.9 -16.5 34.8 -16.35 34.75 -16.3 34.65 -16.25 34.45 -16.2 34.35 -16.2 34.35 -16.05 Q34.25 -15.85 34.15 -15.85 L34.05 -15.8 33.95 -15.8 33.95 -15.75 33.9 -15.6 33.8 -15.45 33.75 -15.4 Q33.75 -15.35 33.7 -15.35 L33.3 -15.3 33.25 -15.25 33.2 -15.3 Q33.05 -15.4 32.9 -15.45 L31.7 -15.4 31.6 -15.4 Q31.5 -15.4 31.45 -15.65 31.4 -15.85 31.55 -16.0 L31.55 -16.05 31.8 -16.2 31.85 -16.2 32.4 -16.4 32.4 -16.35 32.85 -16.5 Q32.95 -17.05 33.3 -17.1 L33.45 -17.1 33.45 -17.05 34.35 -17.15 34.45 -17.15 34.7 -17.1 M27.85 -14.35 Q27.8 -14.35 27.6 -14.05 27.65 -13.95 27.75 -13.9 27.85 -13.9 28.0 -13.9 L28.05 -13.95 Q28.1 -14.0 28.2 -14.05 L28.15 -14.0 Q28.1 -13.9 28.3 -13.95 L28.75 -14.05 Q28.9 -14.1 29.35 -14.4 29.6 -14.6 29.65 -14.75 L30.25 -14.75 30.45 -14.8 30.4 -15.25 29.5 -15.2 Q29.15 -15.1 29.05 -14.95 L28.75 -14.5 27.85 -14.35 M28.9 -14.3 L28.55 -14.25 28.35 -14.25 28.85 -14.3 28.9 -14.3 M29.4 -15.0 Q29.6 -15.15 30.15 -15.0 L30.2 -14.95 Q30.05 -15.0 29.75 -14.95 29.55 -14.9 29.4 -14.8 L29.15 -14.55 29.4 -15.0 M33.85 -15.95 L33.9 -16.05 34.0 -16.1 34.1 -16.25 34.3 -16.25 34.25 -16.35 34.3 -16.4 34.5 -16.65 34.35 -16.65 33.35 -16.6 33.3 -16.5 33.2 -16.35 33.2 -16.25 Q33.15 -16.2 33.1 -16.2 32.8 -16.1 32.5 -15.95 L32.45 -15.95 32.95 -15.8 Q33.35 -15.7 33.5 -15.7 L33.7 -15.9 33.85 -15.9 33.85 -15.95 M34.15 -16.0 L34.2 -16.1 34.1 -16.0 34.0 -15.95 34.15 -16.0 M47.2 -25.7 L47.3 -25.7 Q47.4 -25.7 47.45 -25.45 47.8 -25.45 48.05 -25.3 L48.1 -25.3 48.4 -25.1 48.45 -25.05 48.45 -24.95 48.4 -24.9 Q48.2 -24.75 48.1 -24.65 L48.05 -24.5 Q48.25 -24.35 48.3 -24.05 48.35 -24.0 48.3 -23.95 48.25 -23.85 47.95 -23.8 L47.95 -23.75 47.65 -23.75 47.25 -23.95 47.2 -24.0 47.2 -24.05 Q47.15 -24.2 47.4 -24.35 L47.55 -24.35 47.55 -24.5 Q47.5 -24.6 47.6 -24.75 L47.75 -24.95 Q47.4 -25.05 47.25 -25.15 L47.05 -24.95 Q47.05 -24.9 47.0 -24.9 L46.9 -24.9 Q46.85 -24.9 46.85 -24.95 L46.8 -25.05 46.8 -25.1 Q46.85 -25.55 47.2 -25.7 M46.6 -24.95 L46.4 -24.95 46.35 -24.85 46.4 -24.65 46.45 -24.4 46.6 -24.4 46.65 -24.6 46.65 -24.85 Q46.6 -25.1 46.6 -24.95 M46.95 -25.0 L47.25 -25.35 Q47.35 -25.25 47.9 -25.0 L48.0 -25.0 Q47.8 -24.8 47.7 -24.65 L47.65 -24.55 Q47.7 -24.35 47.75 -24.3 L47.95 -24.15 47.95 -24.1 Q47.9 -24.1 47.75 -24.15 L47.5 -24.2 Q47.35 -24.15 47.35 -24.05 L47.7 -23.85 47.9 -23.9 Q48.15 -23.95 48.15 -24.0 48.1 -24.35 47.85 -24.5 L48.0 -24.75 48.35 -25.0 48.0 -25.2 Q47.75 -25.35 47.35 -25.35 47.3 -25.55 47.25 -25.55 47.0 -25.45 46.95 -25.1 L46.95 -25.0 M48.1 -23.65 L48.15 -23.55 48.15 -23.4 48.1 -23.3 Q48.05 -23.3 48.0 -23.25 L47.55 -23.2 47.45 -23.2 Q47.2 -23.35 47.2 -23.5 L47.2 -23.55 47.3 -23.65 47.8 -23.7 Q47.95 -23.75 48.05 -23.7 L48.1 -23.65 M47.8 -23.55 L47.35 -23.5 Q47.35 -23.4 47.5 -23.3 L48.0 -23.4 48.0 -23.55 47.8 -23.55 M-42.9 -13.2 L-42.95 -13.15 -42.85 -13.15 -42.95 -13.05 -43.0 -13.05 -43.0 -13.0 -43.15 -13.0 -43.2 -13.05 -43.3 -13.05 -43.35 -12.95 Q-43.4 -12.9 -43.95 -12.75 L-44.1 -12.7 Q-44.5 -12.55 -44.65 -12.55 L-45.1 -12.5 -45.7 -12.4 -45.9 -12.5 -46.0 -12.5 -46.35 -12.55 -46.8 -12.45 -47.75 -12.25 Q-47.8 -11.85 -48.25 -11.45 -48.5 -11.25 -48.8 -11.05 -49.0 -10.8 -49.45 -10.6 -50.05 -10.3 -50.85 -10.15 L-51.1 -10.15 -51.85 -10.0 -52.9 -9.95 -53.05 -10.05 -53.15 -9.8 -53.3 -9.5 Q-52.95 -9.5 -52.8 -9.35 -52.7 -9.2 -52.65 -9.05 -52.65 -8.9 -52.7 -8.9 L-52.7 -8.95 -52.75 -9.1 Q-52.75 -9.25 -52.85 -9.2 -53.05 -9.15 -53.45 -9.4 L-53.3 -9.85 Q-53.15 -10.2 -53.05 -10.2 -52.8 -10.05 -52.15 -10.1 L-52.1 -10.1 -51.9 -10.15 -51.75 -10.15 -51.7 -10.2 -51.35 -10.25 -51.2 -10.25 -50.75 -10.35 -50.25 -10.45 Q-49.45 -10.7 -48.95 -11.05 L-48.85 -11.1 -48.7 -11.25 -48.5 -11.5 -48.35 -11.6 Q-48.2 -11.75 -48.05 -12.0 -48.0 -12.15 -47.95 -12.25 L-47.5 -12.45 -47.55 -12.5 -46.75 -12.7 -46.0 -12.75 -45.75 -12.65 Q-45.65 -12.6 -45.55 -12.45 L-44.85 -12.6 -44.25 -12.85 Q-43.85 -13.05 -44.15 -13.05 L-43.45 -13.05 -43.4 -13.0 -43.1 -13.1 -43.15 -13.2 -43.05 -13.15 -42.9 -13.25 -42.9 -13.2 M-52.75 -8.9 Q-52.9 -8.9 -53.35 -9.15 L-53.65 -9.35 -53.25 -9.15 Q-52.9 -9.05 -52.75 -8.9 M-53.7 -9.35 L-53.75 -9.45 Q-53.75 -9.55 -53.3 -10.4 L-52.85 -10.5 -52.7 -10.45 -51.2 -10.65 -51.0 -10.75 Q-50.4 -11.1 -49.8 -11.4 L-49.05 -11.75 Q-48.95 -12.0 -48.7 -12.2 -48.55 -12.35 -48.35 -12.4 L-48.35 -12.45 -48.3 -12.45 -48.35 -12.4 -48.15 -12.45 -48.25 -12.35 -48.25 -12.3 Q-48.4 -12.2 -48.45 -12.1 L-48.45 -12.05 Q-48.65 -11.85 -49.05 -11.75 -49.85 -11.45 -50.05 -11.15 -50.2 -10.95 -51.15 -10.65 -52.05 -10.3 -52.75 -10.3 L-52.9 -10.4 -53.15 -10.3 Q-53.15 -10.2 -53.4 -9.85 L-53.7 -9.35 M-48.05 -12.5 L-47.85 -12.7 Q-46.4 -13.15 -46.15 -13.0 L-46.1 -13.05 -45.85 -13.2 Q-45.55 -13.5 -45.45 -13.75 -44.9 -14.4 -43.75 -14.15 -42.65 -13.8 -42.35 -13.85 L-41.8 -13.95 -41.6 -14.0 -41.8 -13.9 Q-41.95 -13.8 -42.05 -13.75 L-42.5 -13.75 -42.75 -13.7 -43.05 -13.75 Q-43.2 -13.8 -43.35 -13.9 -43.8 -14.05 -44.35 -14.0 -44.5 -14.0 -45.05 -13.6 L-45.75 -13.05 Q-46.4 -12.9 -46.45 -12.85 L-48.05 -12.5 M-41.4 -14.0 L-41.5 -13.7 -42.6 -13.3 -42.85 -13.2 -42.8 -13.25 -42.65 -13.45 -42.6 -13.45 -42.35 -13.5 -42.3 -13.55 -42.35 -13.6 -42.2 -13.6 -41.85 -13.7 -41.65 -13.75 -41.7 -13.9 -41.4 -14.0 M-48.65 -11.55 L-48.75 -11.45 -48.85 -11.3 -49.0 -11.15 -49.45 -11.0 -50.3 -10.8 -50.35 -10.65 -50.85 -10.55 -50.25 -10.85 Q-50.05 -10.95 -49.85 -11.2 L-49.65 -11.4 Q-48.85 -11.55 -48.55 -11.75 L-48.65 -11.55 M-48.9 -10.9 L-48.9 -10.9 M-49.05 -11.25 L-49.1 -11.35 Q-49.75 -11.1 -49.8 -11.05 L-49.75 -11.05 -49.95 -10.9 -49.75 -10.95 Q-49.55 -11.05 -49.05 -11.25 M-49.5 -11.1 L-49.5 -11.1 M-52.75 -8.65 Q-52.9 -8.5 -52.95 -8.15 L-52.85 -8.05 Q-52.75 -8.25 -52.7 -8.65 L-52.75 -8.65 M-52.7 -8.8 L-52.65 -8.8 -52.55 -8.7 -52.55 -8.65 Q-52.6 -8.2 -52.75 -8.0 L-52.8 -7.9 -52.85 -7.9 -52.95 -7.95 -53.1 -8.1 -53.1 -8.2 Q-53.05 -8.55 -52.85 -8.75 L-52.8 -8.75 -52.8 -8.8 -52.7 -8.8 M-52.6 -5.35 L-52.95 -5.25 -52.95 -5.15 Q-52.6 -5.35 -52.5 -5.2 -52.4 -5.15 -52.4 -4.9 -52.35 -4.8 -52.4 -4.7 -52.4 -4.5 -52.6 -4.4 L-53.15 -4.4 Q-53.6 -4.3 -53.6 -4.2 L-53.2 -3.8 -53.3 -3.8 Q-53.2 -3.7 -53.05 -3.65 L-53.0 -3.6 Q-52.35 -3.1 -51.8 -3.2 -51.65 -3.2 -51.15 -3.4 L-50.5 -3.65 -49.0 -4.05 -48.8 -4.1 Q-48.55 -4.2 -48.6 -4.2 L-49.15 -4.15 Q-49.75 -4.05 -50.55 -3.7 L-51.25 -3.4 Q-52.0 -3.3 -52.55 -3.5 -52.1 -3.4 -51.9 -3.45 -51.65 -3.5 -50.9 -3.7 -50.1 -3.95 -50.1 -4.0 L-50.65 -3.85 -51.3 -3.7 Q-52.1 -3.55 -52.65 -3.7 L-53.0 -3.8 -53.4 -4.15 -53.4 -4.2 -52.4 -4.25 -52.2 -4.5 -52.35 -5.4 -52.6 -5.35 M-48.65 -4.35 L-48.5 -4.35 Q-48.45 -4.3 -48.45 -4.25 -48.35 -4.1 -48.75 -3.95 L-48.95 -3.9 -50.45 -3.5 -51.15 -3.25 Q-51.65 -3.05 -51.8 -3.05 -52.35 -2.95 -53.05 -3.5 L-53.1 -3.55 Q-53.3 -3.6 -53.4 -3.65 -53.45 -3.7 -53.45 -3.75 L-53.45 -3.85 -53.75 -4.15 -53.75 -4.25 Q-53.75 -4.4 -53.2 -4.55 L-53.15 -4.55 -53.05 -4.5 -52.85 -4.5 -52.65 -4.55 Q-52.55 -4.6 -52.55 -4.7 -52.5 -4.8 -52.5 -4.85 -52.55 -5.05 -52.6 -5.1 -52.65 -5.15 -52.9 -5.05 L-53.05 -5.05 Q-53.1 -5.1 -53.1 -5.15 L-53.1 -5.3 -53.05 -5.35 -52.65 -5.5 -52.4 -5.55 -52.3 -5.5 -52.2 -5.4 -52.05 -4.55 Q-52.05 -4.5 -52.1 -4.45 L-52.25 -4.15 -52.3 -4.1 -53.1 -4.1 -52.95 -3.9 -52.65 -3.85 Q-52.1 -3.7 -51.35 -3.85 L-50.65 -4.0 -50.15 -4.1 -50.05 -4.1 -50.0 -4.05 -49.2 -4.3 -48.8 -4.35 -48.8 -4.3 -48.75 -4.25 -48.65 -4.35 M-48.45 -4.7 L-48.4 -4.7 -48.45 -4.85 -48.35 -4.8 -48.15 -4.75 Q-47.55 -4.95 -47.05 -4.85 -46.7 -4.85 -46.6 -4.75 -46.5 -4.65 -46.5 -4.55 -46.5 -4.45 -46.6 -4.35 L-46.65 -4.35 -46.8 -4.3 -46.9 -4.25 -47.3 -4.35 Q-47.55 -4.4 -48.25 -4.35 L-48.3 -4.35 -48.35 -4.4 -48.4 -4.4 -48.45 -4.45 -48.65 -4.45 -48.65 -4.5 -48.55 -4.6 -48.45 -4.55 -48.2 -4.55 -48.3 -4.5 -48.25 -4.5 Q-47.55 -4.55 -47.25 -4.5 L-46.85 -4.4 -46.7 -4.5 Q-46.5 -4.65 -47.05 -4.75 -47.55 -4.8 -48.15 -4.55 L-48.4 -4.7 -48.45 -4.7 M-41.35 -14.15 Q-41.3 -14.1 -41.3 -14.05 L-41.35 -14.15 M-43.15 -13.6 L-43.15 -13.5 -43.1 -13.5 Q-43.1 -13.35 -43.15 -13.2 L-43.15 -13.25 -43.45 -13.2 -43.9 -13.25 -44.2 -13.15 -44.15 -13.25 -43.45 -13.4 -43.75 -13.5 -44.5 -13.7 -45.2 -13.4 -45.0 -13.55 Q-44.5 -13.9 -44.45 -13.9 L-43.95 -13.8 -43.35 -13.7 -43.25 -13.55 -43.2 -13.6 -43.25 -13.65 -43.15 -13.6 M-43.7 -13.75 L-43.7 -13.75 M-44.25 -13.05 Q-44.25 -12.95 -44.3 -12.9 L-44.5 -12.8 Q-44.75 -12.7 -44.9 -12.7 L-45.5 -12.6 -45.75 -12.8 -45.95 -12.9 -46.1 -12.85 -45.7 -12.95 -45.2 -13.35 -45.5 -13.0 -45.4 -12.95 -44.8 -13.0 -44.25 -13.05" fill="#ffffff" fill-opacity="0.5019608" fill-rule="evenodd" stroke="none"/>
    <path d="M42.15 -27.25 L42.05 -27.35 Q41.95 -27.4 41.85 -27.4 41.85 -27.35 41.65 -27.2 41.7 -26.85 41.6 -26.7 L41.25 -26.6 40.95 -26.6 40.65 -26.65 40.6 -26.75 40.8 -27.0 40.65 -27.1 40.45 -27.1 Q40.45 -27.15 40.65 -27.2 L40.8 -27.25 40.9 -27.2 41.0 -27.2 Q41.0 -27.0 40.85 -26.8 L41.2 -26.8 41.3 -26.75 41.5 -26.75 Q41.65 -26.8 41.65 -26.85 L41.6 -26.85 Q41.55 -27.05 41.6 -27.25 L41.6 -27.55 42.0 -27.55 Q42.1 -27.5 42.3 -27.3 L42.15 -27.25 M34.8 -17.0 Q34.85 -16.95 34.9 -16.8 L34.9 -16.7 34.65 -16.4 Q34.65 -16.45 34.65 -16.4 L34.4 -16.3 Q34.65 -16.6 34.75 -16.8 L34.7 -16.85 Q34.6 -16.8 34.35 -16.8 L33.3 -16.75 33.15 -16.6 Q33.05 -16.45 33.05 -16.35 32.75 -16.25 32.45 -16.05 L32.0 -15.85 Q32.0 -15.8 32.2 -15.8 L32.4 -15.8 32.9 -15.7 Q33.35 -15.55 33.55 -15.6 L33.8 -15.75 33.75 -15.7 33.65 -15.5 33.3 -15.4 Q33.1 -15.55 32.95 -15.6 L31.65 -15.5 31.65 -15.55 31.6 -15.7 Q31.55 -15.8 31.65 -15.9 L31.9 -16.1 32.45 -16.25 32.95 -16.4 Q33.05 -16.9 33.35 -16.95 L33.4 -16.9 34.35 -17.0 34.8 -17.0 M39.7 -27.05 L39.65 -27.15 39.9 -27.35 40.15 -27.45 40.15 -27.3 Q40.05 -27.3 39.7 -27.05 M29.4 -15.0 L29.15 -14.55 29.4 -14.8 Q29.55 -14.9 29.75 -14.95 30.05 -15.0 30.2 -14.95 L30.15 -15.0 Q29.6 -15.15 29.4 -15.0 M28.9 -14.3 L28.85 -14.3 28.35 -14.25 28.55 -14.25 28.9 -14.3 M27.85 -14.35 L28.75 -14.5 29.05 -14.95 Q29.15 -15.1 29.5 -15.2 L30.4 -15.25 30.45 -14.8 30.25 -14.75 29.65 -14.75 Q29.6 -14.6 29.35 -14.4 28.9 -14.1 28.75 -14.05 L28.3 -13.95 Q28.1 -13.9 28.15 -14.0 L28.2 -14.05 Q28.1 -14.0 28.05 -13.95 L28.0 -13.9 Q27.85 -13.9 27.75 -13.9 27.65 -13.95 27.6 -14.05 27.8 -14.35 27.85 -14.35 M34.15 -16.0 L34.0 -15.95 34.1 -16.0 34.2 -16.1 34.15 -16.0 M46.95 -25.0 L46.95 -25.1 Q47.0 -25.45 47.25 -25.55 47.3 -25.55 47.35 -25.35 47.75 -25.35 48.0 -25.2 L48.35 -25.0 48.0 -24.75 47.85 -24.5 Q48.1 -24.35 48.15 -24.0 48.15 -23.95 47.9 -23.9 L47.7 -23.85 47.35 -24.05 Q47.35 -24.15 47.5 -24.2 L47.75 -24.15 Q47.9 -24.1 47.95 -24.1 L47.95 -24.15 47.75 -24.3 Q47.7 -24.35 47.65 -24.55 L47.7 -24.65 Q47.8 -24.8 48.0 -25.0 L47.9 -25.0 Q47.35 -25.25 47.25 -25.35 L46.95 -25.0 M46.6 -24.95 Q46.6 -25.1 46.65 -24.85 L46.65 -24.6 46.6 -24.4 46.45 -24.4 46.4 -24.65 46.35 -24.85 46.4 -24.95 46.6 -24.95 M47.8 -23.55 L48.0 -23.55 48.0 -23.4 47.5 -23.3 Q47.35 -23.4 47.35 -23.5 L47.8 -23.55 M-42.9 -13.2 L-42.9 -13.25 -43.05 -13.15 -43.15 -13.2 -43.1 -13.1 -43.4 -13.0 -43.45 -13.05 -44.15 -13.05 Q-43.85 -13.05 -44.25 -12.85 L-44.85 -12.6 -45.55 -12.45 Q-45.65 -12.6 -45.75 -12.65 L-46.0 -12.75 -46.75 -12.7 -47.55 -12.5 -47.5 -12.45 -47.95 -12.25 Q-48.0 -12.15 -48.05 -12.0 -48.2 -11.75 -48.35 -11.6 L-48.5 -11.5 -48.7 -11.25 -48.85 -11.1 -48.95 -11.05 Q-49.45 -10.7 -50.25 -10.45 L-50.75 -10.35 -51.2 -10.25 -51.35 -10.25 -51.7 -10.2 -51.75 -10.15 -51.9 -10.15 -52.1 -10.1 -52.15 -10.1 Q-52.8 -10.05 -53.05 -10.2 -53.15 -10.2 -53.3 -9.85 L-53.45 -9.4 Q-53.05 -9.15 -52.85 -9.2 -52.75 -9.25 -52.75 -9.1 L-52.7 -8.95 -52.7 -8.9 -52.75 -8.9 Q-52.9 -9.05 -53.25 -9.15 L-53.65 -9.35 -53.7 -9.35 -53.4 -9.85 Q-53.15 -10.2 -53.15 -10.3 L-52.9 -10.4 -52.75 -10.3 Q-52.05 -10.3 -51.15 -10.65 -50.2 -10.95 -50.05 -11.15 -49.85 -11.45 -49.05 -11.75 -48.65 -11.85 -48.45 -12.05 L-48.45 -12.1 Q-48.4 -12.2 -48.25 -12.3 L-48.25 -12.35 -48.15 -12.45 -48.15 -12.5 -48.05 -12.5 -46.45 -12.85 Q-46.4 -12.9 -45.75 -13.05 L-45.05 -13.6 Q-44.5 -14.0 -44.35 -14.0 -43.8 -14.05 -43.35 -13.9 -43.2 -13.8 -43.05 -13.75 L-42.75 -13.7 -42.5 -13.75 -42.05 -13.75 Q-41.95 -13.8 -41.8 -13.9 L-41.6 -14.0 -41.45 -14.05 -41.4 -14.05 -41.4 -14.0 -41.7 -13.9 -41.65 -13.75 -41.85 -13.7 -42.2 -13.6 -42.35 -13.6 -42.3 -13.55 -42.35 -13.5 -42.6 -13.45 -42.65 -13.45 -42.8 -13.25 -42.85 -13.2 -42.85 -13.15 -42.9 -13.2 M-48.65 -11.55 L-48.55 -11.75 Q-48.85 -11.55 -49.65 -11.4 L-49.85 -11.2 Q-50.05 -10.95 -50.25 -10.85 L-50.85 -10.55 -50.35 -10.65 -50.3 -10.8 -49.45 -11.0 -49.0 -11.15 -48.85 -11.3 -48.75 -11.45 -48.65 -11.55 M-52.75 -8.65 L-52.7 -8.65 Q-52.75 -8.25 -52.85 -8.05 L-52.95 -8.15 Q-52.9 -8.5 -52.75 -8.65 M-52.6 -5.35 L-52.35 -5.4 -52.2 -4.5 -52.4 -4.25 -53.4 -4.2 -53.4 -4.15 -53.0 -3.8 -52.65 -3.7 Q-52.1 -3.55 -51.3 -3.7 L-50.65 -3.85 -50.1 -4.0 Q-50.1 -3.95 -50.9 -3.7 -51.65 -3.5 -51.9 -3.45 -52.1 -3.4 -52.55 -3.5 -52.0 -3.3 -51.25 -3.4 L-50.55 -3.7 Q-49.75 -4.05 -49.15 -4.15 L-48.6 -4.2 Q-48.55 -4.2 -48.8 -4.1 L-49.0 -4.05 -50.5 -3.65 -51.15 -3.4 Q-51.65 -3.2 -51.8 -3.2 -52.35 -3.1 -53.0 -3.6 L-53.05 -3.65 Q-53.2 -3.7 -53.3 -3.8 L-53.2 -3.8 -53.6 -4.2 Q-53.6 -4.3 -53.15 -4.4 L-52.6 -4.4 Q-52.4 -4.5 -52.4 -4.7 -52.35 -4.8 -52.4 -4.9 -52.4 -5.15 -52.5 -5.2 -52.6 -5.35 -52.95 -5.15 L-52.95 -5.25 -52.6 -5.35 M-48.65 -4.35 L-48.75 -4.25 -48.8 -4.3 -48.8 -4.35 -48.85 -4.45 -48.85 -4.7 -48.55 -4.75 -48.45 -4.7 -48.4 -4.7 -48.15 -4.55 Q-47.55 -4.8 -47.05 -4.75 -46.5 -4.65 -46.7 -4.5 L-46.85 -4.4 -47.25 -4.5 Q-47.55 -4.55 -48.25 -4.5 L-48.3 -4.5 -48.2 -4.55 -48.45 -4.55 -48.55 -4.6 -48.65 -4.6 -48.65 -4.5 -48.65 -4.45 -48.65 -4.35 M-43.1 -13.5 L-43.1 -13.55 -43.15 -13.6 -43.25 -13.65 -43.35 -13.7 -43.95 -13.8 -44.45 -13.9 Q-44.5 -13.9 -45.0 -13.55 L-45.2 -13.4 -45.2 -13.35 -45.7 -12.95 -46.1 -12.85 -45.95 -12.9 -45.75 -12.8 -45.5 -12.6 -44.9 -12.7 Q-44.75 -12.7 -44.5 -12.8 L-44.3 -12.9 Q-44.25 -12.95 -44.25 -13.05 L-44.2 -13.15 -43.9 -13.25 -43.45 -13.2 -43.15 -13.25 -43.15 -13.2 Q-43.1 -13.35 -43.1 -13.5" fill="#ffffff" fill-rule="evenodd" stroke="none"/>
  </g>
</svg>
