<?xml version="1.0" encoding="UTF-8" standalone="no"?>
<svg xmlns:ffdec="https://www.free-decompiler.com/flash" xmlns:xlink="http://www.w3.org/1999/xlink" ffdec:objectType="shape" height="14.6px" width="27.05px" xmlns="http://www.w3.org/2000/svg">
  <g transform="matrix(1.0, 0.0, 0.0, 1.0, 12.75, 12.9)">
    <path d="M2.35 -9.7 L2.45 -9.65 2.55 -9.55 2.55 -9.45 2.45 -9.4 2.45 -9.35 1.1 -8.6 Q0.2 -8.15 -0.1 -7.9 -0.15 -7.85 -0.2 -7.85 -0.25 -7.9 -0.3 -7.9 L-0.3 -7.95 Q-0.35 -8.0 -0.35 -8.05 L-0.3 -8.15 Q-0.1 -8.4 0.25 -8.6 L1.0 -9.0 1.65 -9.35 Q2.2 -9.65 2.35 -9.7 M0.65 -8.0 Q0.75 -7.95 0.85 -7.8 L0.95 -7.65 0.95 -7.45 0.9 -7.45 0.85 -7.35 0.75 -7.35 Q0.6 -7.4 0.5 -7.6 L0.45 -7.8 Q0.45 -7.85 0.5 -7.9 L0.55 -8.0 0.65 -8.0 M13.95 -12.8 L14.1 -12.8 14.25 -12.65 14.25 -12.5 Q14.25 -12.15 14.15 -11.85 14.05 -11.55 13.8 -11.15 L13.75 -11.1 13.65 -11.1 Q13.55 -11.1 13.5 -11.25 L13.5 -11.35 13.55 -11.35 Q13.75 -11.8 13.8 -12.05 L13.85 -12.3 13.8 -12.55 13.8 -12.6 Q13.8 -12.75 13.85 -12.75 L13.95 -12.8 M-12.5 -7.65 L-12.4 -7.7 Q-12.05 -7.65 -11.7 -7.8 L-11.5 -7.95 -11.25 -8.0 Q-11.2 -8.0 -11.15 -7.95 L-11.1 -7.85 Q-11.1 -7.75 -11.15 -7.7 -11.2 -7.6 -11.5 -7.45 -11.85 -7.25 -12.15 -7.25 L-12.45 -7.3 -12.5 -7.3 -12.55 -7.35 -12.55 -7.6 -12.5 -7.65 M-7.3 -0.55 Q-7.3 -0.65 -7.2 -0.7 L-7.15 -0.7 -6.05 -0.55 -6.0 -0.55 -5.95 -0.5 Q-5.75 -0.45 -5.8 -0.35 L-5.8 -0.3 Q-5.8 -0.25 -5.85 -0.2 L-5.95 -0.15 -6.05 -0.15 Q-6.8 -0.2 -7.2 -0.4 L-7.3 -0.45 -7.3 -0.55 M-3.7 1.55 L-3.65 1.4 -3.65 1.45 -3.45 1.25 -3.3 1.15 -3.15 1.15 -3.1 1.25 Q-3.05 1.3 -3.1 1.35 -3.1 1.5 -3.3 1.6 -3.45 1.7 -3.55 1.7 L-3.65 1.65 -3.7 1.55" fill="#e1ffd2" fill-opacity="0.2" fill-rule="evenodd" stroke="none"/>
    <path d="M2.75 -9.5 Q1.8 -9.05 1.55 -8.9 L1.45 -8.9 Q1.4 -8.9 1.35 -8.95 1.3 -9.05 1.35 -9.1 L1.4 -9.2 Q1.65 -9.4 2.6 -9.9 L3.85 -10.6 3.95 -10.6 4.05 -10.5 4.05 -10.4 4.0 -10.3 Q3.7 -10.0 2.75 -9.5 M0.55 -8.45 L0.6 -8.35 0.7 -8.1 0.7 -7.95 0.65 -7.9 Q0.6 -7.85 0.55 -7.85 L0.5 -7.85 Q0.45 -7.85 0.45 -7.9 0.4 -7.9 0.35 -8.05 0.25 -8.2 0.3 -8.3 L0.3 -8.35 Q0.3 -8.5 0.4 -8.5 L0.45 -8.5 0.55 -8.45 M14.0 -12.9 Q14.2 -12.9 14.25 -12.7 L14.3 -12.5 Q14.3 -12.2 14.15 -11.95 L14.1 -11.85 14.0 -11.85 Q13.95 -11.85 13.9 -11.9 13.85 -11.9 13.85 -11.95 L13.85 -12.05 13.9 -12.25 13.9 -12.45 13.85 -12.65 13.85 -12.8 13.9 -12.85 14.0 -12.9 M-11.7 -7.8 L-11.65 -7.8 -10.2 -8.65 -10.1 -8.65 Q-10.05 -8.65 -10.0 -8.6 -10.0 -8.55 -10.0 -8.5 L-10.05 -8.4 Q-10.3 -8.1 -10.85 -7.8 -11.35 -7.5 -11.5 -7.5 L-11.6 -7.5 Q-11.7 -7.55 -11.7 -7.6 -11.8 -7.7 -11.7 -7.8 M-12.35 -4.85 Q-12.3 -4.8 -12.3 -4.7 -12.3 -4.5 -12.4 -4.45 L-12.65 -4.45 -12.7 -4.5 -12.75 -4.6 -12.75 -4.8 -12.7 -4.9 -12.65 -4.95 Q-12.45 -5.05 -12.35 -4.85 M-5.05 -0.25 L-5.0 -0.35 -4.9 -0.4 -4.15 -0.45 -3.3 -0.45 Q-3.1 -0.4 -3.1 -0.25 L-3.15 -0.2 Q-3.15 -0.15 -3.2 -0.1 -3.25 -0.05 -3.3 -0.05 L-4.0 -0.05 Q-5.05 -0.05 -5.05 -0.25 M-2.65 0.7 L-2.6 0.8 -2.6 0.9 -2.75 1.15 Q-2.85 1.3 -3.0 1.35 L-3.15 1.35 Q-3.3 1.3 -3.3 1.2 L-3.25 1.1 -3.2 1.05 -3.05 0.85 Q-2.9 0.7 -2.8 0.65 L-2.75 0.65 -2.65 0.7" fill="#f3ffee" fill-opacity="0.5019608" fill-rule="evenodd" stroke="none"/>
    <path d="M5.15 -10.75 L4.5 -10.5 3.9 -10.15 Q3.5 -9.95 3.25 -9.85 L3.1 -9.85 Q3.05 -9.9 3.05 -9.95 3.0 -10.0 3.05 -10.05 L3.1 -10.15 Q3.45 -10.3 4.3 -10.85 5.15 -11.3 5.45 -11.35 L5.6 -11.35 5.65 -11.25 Q5.65 -11.15 5.6 -11.1 5.55 -10.95 5.15 -10.8 L5.15 -10.75 M0.35 -8.9 L0.45 -8.85 Q0.55 -8.75 0.55 -8.6 L0.55 -8.5 0.5 -8.5 0.4 -8.4 Q0.3 -8.4 0.2 -8.5 0.15 -8.55 0.15 -8.65 L0.2 -8.75 0.2 -8.8 0.25 -8.9 0.35 -8.9 M14.2 -12.85 Q14.3 -12.7 14.3 -12.6 L14.25 -12.4 14.2 -12.35 14.1 -12.3 14.05 -12.3 Q14.0 -12.3 13.95 -12.35 13.9 -12.4 13.9 -12.45 L13.9 -12.55 13.85 -12.7 13.85 -12.75 13.9 -12.8 Q13.9 -12.9 13.95 -12.9 L14.1 -12.9 14.15 -12.85 14.2 -12.85 M3.65 0.7 L3.6 0.8 3.5 0.9 3.45 0.9 Q3.25 0.9 3.25 0.85 L3.2 0.75 Q3.15 0.65 3.25 0.55 L3.35 0.5 3.45 0.5 Q3.6 0.55 3.6 0.6 L3.6 0.65 3.65 0.7 M-12.3 -4.55 L-12.1 -4.25 -12.1 -4.15 Q-12.1 -4.1 -12.15 -4.1 L-12.15 -4.05 Q-12.2 -4.0 -12.25 -4.0 L-12.35 -4.0 Q-12.55 -4.1 -12.65 -4.25 -12.75 -4.45 -12.75 -4.6 -12.8 -4.7 -12.65 -4.85 L-12.45 -4.85 -12.3 -4.55 M-10.45 -8.05 Q-10.5 -8.05 -10.55 -8.05 L-10.65 -8.15 Q-10.7 -8.2 -10.65 -8.25 L-10.6 -8.35 Q-10.4 -8.5 -9.5 -9.2 L-8.45 -10.0 -8.3 -10.0 -8.25 -9.95 Q-8.2 -9.9 -8.2 -9.85 -8.2 -9.75 -8.25 -9.75 -8.7 -9.25 -9.45 -8.7 -10.2 -8.15 -10.45 -8.05 M-2.85 -0.4 Q-2.7 -0.45 -2.45 -0.5 L-2.25 -0.5 -1.9 -0.55 -1.55 -0.55 -1.45 -0.45 Q-1.45 -0.4 -1.45 -0.35 -1.5 -0.3 -1.5 -0.25 -1.6 -0.15 -2.0 -0.1 L-2.45 -0.05 -2.65 -0.05 -2.8 -0.1 Q-2.85 -0.1 -2.85 -0.15 L-2.9 -0.25 -2.9 -0.35 -2.85 -0.4 M-2.25 0.25 Q-2.2 0.3 -2.4 0.6 L-2.55 0.85 -2.6 0.9 -2.7 0.9 Q-2.9 0.9 -2.9 0.75 L-2.85 0.65 -2.55 0.1 -2.45 0.0 Q-2.4 0.0 -2.35 0.0 L-2.3 0.05 -2.3 0.1 Q-2.25 0.1 -2.25 0.25" fill="#f4ffee" fill-opacity="0.8" fill-rule="evenodd" stroke="none"/>
  </g>
</svg>
