<?xml version="1.0" encoding="UTF-8" standalone="no"?>
<svg xmlns:ffdec="https://www.free-decompiler.com/flash" xmlns:xlink="http://www.w3.org/1999/xlink" ffdec:objectType="shape" height="20.9px" width="30.65px" xmlns="http://www.w3.org/2000/svg">
  <g transform="matrix(1.0, 0.0, 0.0, 1.0, 20.75, 8.25)">
    <path d="M8.4 -7.5 L8.45 -7.45 8.55 -7.4 8.55 -7.3 Q8.55 -7.25 8.5 -7.2 L8.2 -7.0 Q8.15 -6.65 8.1 -6.1 L8.1 -5.2 Q8.1 -5.05 8.95 -3.85 L9.15 -3.65 Q9.6 -3.4 9.8 -3.15 9.9 -3.0 9.9 -2.4 L9.9 -2.25 Q9.9 -1.75 9.8 -1.3 L9.8 -1.15 Q9.8 -0.85 9.6 -0.55 L9.6 -0.5 Q9.6 -0.4 9.5 -0.35 L9.45 -0.3 Q8.9 0.75 7.55 1.1 L7.5 1.15 7.45 1.15 Q7.3 1.2 7.25 1.1 L7.1 1.15 6.95 1.3 6.85 1.3 5.5 1.25 Q5.2 1.25 4.85 1.55 L4.8 1.55 4.75 1.6 Q4.25 1.5 3.75 1.25 3.3 1.0 2.9 0.85 2.1 1.05 1.75 1.8 1.65 2.0 1.4 2.65 L1.25 3.05 1.3 3.1 1.25 3.2 0.95 3.6 0.5 4.1 Q0.45 4.1 0.4 4.15 -0.05 4.2 -0.5 4.3 -1.05 4.45 -1.15 4.55 L-1.25 4.6 -1.6 4.7 -1.7 4.75 Q-2.05 4.95 -2.65 5.45 -3.3 6.05 -3.45 6.45 L-3.55 6.5 -3.75 6.7 Q-4.7 6.8 -5.8 7.1 L-7.05 7.4 -7.2 7.4 -7.35 7.35 -7.45 7.35 Q-7.5 7.35 -7.5 7.3 L-7.55 7.3 Q-7.6 7.25 -7.6 7.2 L-7.6 7.05 Q-7.6 6.95 -7.1 6.1 -6.7 5.45 -6.65 5.2 L-6.7 5.15 -6.75 5.15 Q-6.8 5.0 -6.8 4.75 L-7.05 4.7 -7.15 4.65 -7.25 4.5 -7.8 4.5 Q-9.1 4.75 -10.2 5.55 L-11.6 6.9 Q-11.95 7.25 -13.2 8.25 L-13.95 8.85 Q-14.4 9.25 -14.8 9.5 L-14.85 9.5 -15.1 9.45 -15.15 9.45 -15.3 9.6 -15.35 9.6 Q-15.5 9.6 -15.7 9.5 -15.85 9.45 -15.95 9.45 -16.25 9.45 -16.6 9.8 -16.85 10.05 -17.0 10.3 L-17.7 11.2 Q-18.1 11.75 -19.0 12.05 -20.0 12.35 -20.35 12.6 L-20.45 12.65 Q-20.7 12.6 -20.75 12.45 L-20.75 12.4 -20.7 12.3 Q-20.4 12.0 -19.7 11.8 -18.9 11.6 -18.75 11.5 -18.45 11.3 -18.15 11.0 -17.9 10.7 -17.7 10.45 -17.3 9.75 -16.95 9.4 -16.25 8.8 -15.5 9.1 L-15.25 8.95 Q-15.2 8.9 -15.1 8.85 L-15.1 8.8 Q-15.05 8.75 -14.95 8.75 L-14.75 8.7 Q-14.7 8.7 -14.65 8.75 -14.6 8.75 -14.6 8.8 L-14.6 8.85 -14.35 8.65 Q-13.85 8.2 -13.5 8.0 -13.0 7.7 -12.7 7.4 L-12.0 6.7 -11.15 5.95 Q-10.55 5.45 -10.3 5.2 -10.0 4.85 -9.3 4.5 -8.5 4.05 -7.85 4.05 L-7.15 4.05 -6.9 4.3 Q-6.8 4.4 -6.65 4.4 L-6.6 4.4 -6.55 4.45 Q-6.25 4.85 -6.25 5.1 -6.25 5.55 -6.5 6.0 L-6.5 6.05 Q-6.7 6.4 -7.0 6.75 -3.75 4.9 -2.45 3.85 -2.25 3.35 -2.1 2.85 L-2.05 2.6 Q-1.85 1.5 -1.85 1.2 -1.85 1.0 -2.35 0.05 L-2.9 -0.95 -2.95 -1.0 -2.7 -2.0 -2.65 -2.3 -2.75 -2.35 -2.8 -2.4 -2.8 -2.45 -3.0 -5.25 -3.0 -5.35 -3.8 -5.65 Q-4.45 -6.0 -4.8 -6.25 -4.95 -6.2 -5.3 -5.9 L-5.8 -5.55 Q-6.0 -5.45 -6.45 -5.25 L-6.55 -5.25 Q-6.6 -5.25 -6.6 -5.3 L-6.65 -5.4 -6.6 -5.45 -6.45 -5.65 -6.4 -5.7 -6.35 -5.7 -6.35 -5.75 Q-6.4 -5.8 -5.8 -6.4 L-5.15 -7.1 -4.9 -7.65 Q-4.65 -8.2 -4.45 -8.25 L-4.35 -8.25 Q-4.3 -8.25 -4.3 -8.2 L-4.25 -8.1 Q-4.3 -7.75 -3.75 -7.2 L-3.65 -7.15 -3.55 -7.15 -3.5 -7.1 Q-3.2 -6.7 -2.65 -6.3 -1.9 -5.8 -1.5 -5.5 L-1.45 -5.45 -1.45 -5.4 -1.4 -4.65 -1.35 -4.6 -1.15 -3.8 Q-1.0 -3.3 -0.65 -2.95 L0.3 -2.8 1.5 -2.65 1.9 -2.75 2.3 -2.8 3.5 -2.8 Q3.85 -2.65 4.5 -1.95 5.0 -1.4 5.6 -1.25 5.9 -1.2 6.25 -0.9 6.45 -0.7 6.65 -0.45 L6.9 -0.15 7.2 0.1 7.5 0.05 Q8.45 -0.15 8.7 -0.35 8.95 -0.6 9.15 -0.95 9.1 -1.25 8.95 -1.55 8.65 -2.05 8.15 -2.0 L8.1 -2.0 Q8.05 -2.0 8.0 -2.05 L8.0 -2.1 Q8.0 -2.75 7.5 -3.9 L6.95 -5.0 6.45 -5.55 6.4 -5.6 6.4 -5.7 Q6.55 -6.05 7.2 -6.7 L8.1 -7.5 8.15 -7.55 8.3 -7.55 8.4 -7.5 M1.8 -2.25 Q1.45 -2.25 1.35 -2.3 L1.0 -2.35 0.6 -2.4 0.15 -2.45 Q-0.15 -2.45 -0.25 -2.5 L-0.85 -2.55 Q-0.9 -2.55 -0.95 -2.6 -1.15 -2.85 -1.35 -3.4 L-1.4 -3.45 -1.6 -2.9 Q-1.75 -2.5 -1.7 -2.3 L-1.25 -2.0 Q-0.75 -1.55 -0.35 -0.9 L-0.2 -0.6 0.25 -0.3 0.3 -0.25 0.3 -0.1 0.45 -0.05 Q0.75 0.1 1.0 0.2 L1.9 0.3 2.7 0.4 2.75 0.4 2.95 0.45 3.35 0.45 3.35 0.5 5.9 0.45 Q6.2 0.35 6.7 0.2 L6.55 0.05 6.2 -0.5 5.35 -0.9 Q4.6 -1.25 4.4 -1.45 L3.9 -2.0 Q3.55 -2.35 3.35 -2.4 L2.3 -2.3 1.8 -2.25 M8.05 -3.65 Q8.3 -3.0 8.35 -2.5 9.0 -2.55 9.35 -1.85 L9.5 -1.55 9.5 -2.2 Q9.45 -2.55 9.05 -3.15 L9.0 -3.15 Q8.85 -3.2 8.55 -3.45 L8.5 -3.5 8.15 -3.5 8.1 -3.55 8.05 -3.65 M8.5 -3.5 L8.5 -3.55 8.45 -3.5 8.5 -3.5 M5.2 0.95 L5.9 0.9 3.9 0.9 Q4.3 1.15 4.55 1.2 L4.7 1.15 4.75 1.1 4.8 1.0 5.2 0.95 M1.85 0.7 Q1.1 0.65 0.8 0.5 L0.3 0.35 0.1 0.25 -0.05 0.4 -0.15 0.55 Q-0.4 1.15 -0.8 2.2 L-0.95 2.55 Q-0.9 2.6 -0.95 2.65 L-1.1 3.7 -1.15 3.95 Q-1.0 3.85 -0.55 3.8 L0.35 3.65 Q0.6 3.6 0.7 3.4 L0.7 3.35 0.75 3.3 Q0.9 3.05 1.0 2.55 1.2 1.9 1.3 1.7 L1.3 1.65 Q1.55 1.05 2.15 0.75 L1.85 0.7 M-2.6 -5.55 Q-2.25 -5.35 -2.15 -4.75 L-2.1 -3.7 Q-2.1 -3.4 -2.0 -3.05 L-1.9 -3.35 Q-1.7 -3.65 -1.7 -3.8 -1.7 -3.9 -1.75 -4.05 L-1.9 -4.45 -1.9 -4.4 Q-1.9 -4.5 -1.85 -4.75 -1.8 -4.9 -1.8 -5.0 -1.8 -5.15 -1.9 -5.2 -2.25 -5.4 -2.6 -5.6 L-2.6 -5.55 M-2.35 -2.1 L-2.45 -1.7 -2.5 -1.2 -2.0 -0.15 Q-1.4 1.05 -1.4 1.25 L-1.4 1.45 -1.2 1.15 Q-0.8 0.55 -0.45 0.2 -0.65 -0.3 -0.95 -0.8 -1.75 -1.45 -1.95 -1.7 L-2.1 -1.95 -2.35 -2.1 M-0.1 -0.2 L-0.05 -0.2 -0.1 -0.15 -0.15 -0.15 -0.15 -0.2 -0.1 -0.25 -0.1 -0.2 M-0.05 -0.3 L-0.1 -0.4 -0.3 -0.25 -0.1 -0.05 -0.1 -0.15 -0.05 -0.2 -0.05 -0.05 0.05 -0.05 0.0 -0.15 -0.05 -0.3 M-2.5 4.8 Q-2.1 4.5 -1.85 4.35 -1.65 4.2 -1.55 3.65 -1.85 4.05 -2.2 4.3 L-2.25 4.35 -2.5 4.8 M-7.4 6.95 L-7.4 6.95 M-7.15 6.8 L-7.1 6.8 -7.15 6.85 -7.15 6.9 -7.0 6.75 -7.15 6.8 M-14.6 8.9 L-14.6 8.85 -14.6 8.9" fill="#ffffff" fill-opacity="0.5019608" fill-rule="evenodd" stroke="none"/>
    <path d="M8.3 -7.4 Q8.35 -7.35 8.4 -7.3 L8.1 -7.1 Q8.0 -6.7 7.95 -6.1 L7.95 -5.2 Q7.95 -5.05 8.85 -3.8 L9.05 -3.55 Q9.5 -3.3 9.65 -3.05 9.75 -2.95 9.75 -2.4 L9.75 -2.25 Q9.75 -1.75 9.65 -1.3 L9.65 -1.15 Q9.65 -0.85 9.45 -0.6 L9.45 -0.55 9.4 -0.4 Q8.8 0.65 7.45 0.95 L7.4 1.0 Q7.35 1.05 7.3 0.9 L7.0 1.0 6.95 1.1 6.85 1.15 5.5 1.1 Q5.15 1.1 4.75 1.45 4.3 1.35 3.85 1.1 3.35 0.85 2.9 0.7 2.0 0.9 1.6 1.75 1.5 1.9 1.3 2.6 L1.05 3.15 1.15 3.1 0.85 3.5 0.4 4.0 Q-0.1 4.05 -0.55 4.15 -1.1 4.3 -1.25 4.45 L-1.65 4.55 -1.75 4.6 Q-2.15 4.85 -2.7 5.35 -3.45 6.0 -3.6 6.4 L-3.7 6.4 -3.8 6.55 Q-4.75 6.65 -5.85 6.95 L-7.05 7.25 -7.3 7.25 -7.4 7.2 -7.45 7.2 -7.45 7.05 Q-7.45 6.95 -7.0 6.15 -6.5 5.4 -6.5 5.15 L-6.6 5.05 Q-6.7 4.9 -6.65 4.65 L-7.0 4.55 -7.2 4.35 -7.8 4.35 Q-9.15 4.6 -10.25 5.45 -10.55 5.7 -11.7 6.8 -12.05 7.15 -13.3 8.15 L-14.0 8.75 Q-14.5 9.15 -14.85 9.35 L-15.1 9.3 -14.95 9.25 -15.0 9.2 -15.0 9.15 -15.35 9.45 -15.65 9.4 Q-15.85 9.3 -15.95 9.3 -16.3 9.3 -16.7 9.7 -16.95 9.95 -17.1 10.2 L-17.8 11.1 Q-18.2 11.6 -19.05 11.9 -20.1 12.25 -20.4 12.5 -20.55 12.5 -20.6 12.4 -20.3 12.15 -19.65 11.95 -18.85 11.7 -18.65 11.6 -18.35 11.4 -18.05 11.1 -17.75 10.8 -17.6 10.5 -17.2 9.85 -16.85 9.55 -16.2 8.95 -15.45 9.25 L-15.0 8.95 -15.0 8.95 Q-14.85 8.85 -14.75 8.85 L-14.75 8.95 -14.7 9.0 -14.7 9.05 -14.25 8.75 Q-13.8 8.35 -13.45 8.15 -12.95 7.8 -12.6 7.5 L-11.9 6.8 -11.05 6.05 Q-10.45 5.55 -10.15 5.25 -9.9 4.95 -9.25 4.6 -8.45 4.2 -7.85 4.2 L-7.15 4.2 -7.0 4.4 Q-6.85 4.5 -6.65 4.5 -6.4 4.9 -6.4 5.1 -6.4 5.5 -6.65 5.95 -6.9 6.4 -7.3 6.85 -7.2 6.95 -7.3 7.05 L-7.15 6.95 -7.1 6.95 Q-3.65 5.05 -2.35 3.95 -2.1 3.4 -2.0 2.9 L-1.9 2.65 Q-1.7 1.5 -1.7 1.2 -1.7 1.0 -2.25 -0.05 L-2.8 -1.0 -2.6 -2.0 Q-2.5 -2.2 -2.5 -2.4 L-2.65 -2.45 -2.75 -3.9 -2.85 -5.25 -2.9 -5.4 -3.7 -5.8 Q-4.4 -6.15 -4.75 -6.4 -4.9 -6.4 -5.4 -6.05 L-5.9 -5.65 Q-6.05 -5.55 -6.5 -5.4 L-6.35 -5.55 -6.2 -5.65 -6.2 -5.75 -5.7 -6.3 Q-5.15 -6.8 -5.05 -7.0 L-4.75 -7.6 Q-4.55 -8.05 -4.4 -8.1 -4.45 -7.7 -3.85 -7.1 L-3.7 -6.95 -3.6 -7.0 Q-3.3 -6.6 -2.7 -6.15 L-1.6 -5.35 -1.5 -4.55 -1.3 -3.75 Q-1.1 -3.2 -0.75 -2.8 -0.5 -2.75 0.25 -2.65 L1.5 -2.5 1.9 -2.6 2.3 -2.65 3.45 -2.65 Q3.75 -2.5 4.35 -1.85 4.9 -1.25 5.6 -1.1 5.85 -1.05 6.15 -0.8 L6.5 -0.35 Q6.7 -0.15 6.8 -0.05 L7.15 0.25 7.5 0.2 Q8.55 0.0 8.8 -0.25 9.05 -0.5 9.3 -0.85 L9.3 -0.95 Q9.3 -1.3 9.1 -1.65 8.75 -2.2 8.15 -2.1 8.15 -2.75 7.6 -3.95 L7.05 -5.1 6.5 -5.65 Q6.7 -6.0 7.3 -6.6 L8.2 -7.4 8.3 -7.4 M1.8 -2.35 Q1.5 -2.35 1.4 -2.45 L0.2 -2.6 -0.25 -2.65 -0.85 -2.7 Q-1.05 -2.9 -1.25 -3.45 L-1.45 -3.95 -1.45 -3.85 Q-1.45 -3.7 -1.75 -2.95 -1.95 -2.45 -1.8 -2.15 L-1.35 -1.9 Q-0.85 -1.45 -0.5 -0.85 L-0.3 -0.5 Q-0.1 -0.35 0.15 -0.15 0.15 -0.1 0.1 -0.1 L0.05 0.0 Q0.25 0.05 0.4 0.1 0.7 0.25 0.95 0.3 1.2 0.4 1.9 0.45 L2.7 0.55 2.95 0.6 3.0 0.6 3.25 0.55 3.3 0.6 5.95 0.6 Q6.25 0.45 7.05 0.3 6.85 0.2 6.7 -0.05 L6.3 -0.6 5.4 -1.05 Q4.65 -1.4 4.5 -1.55 L4.0 -2.1 Q3.6 -2.5 3.4 -2.55 L2.3 -2.45 1.8 -2.35 M0.0 -0.1 L-0.05 -0.05 0.05 -0.05 0.0 -0.1 M6.75 -5.75 L6.7 -5.75 Q6.7 -5.7 6.85 -5.45 L6.75 -5.75 M7.45 -4.6 L7.75 -4.05 Q8.2 -3.0 8.25 -2.3 8.9 -2.45 9.25 -1.8 9.4 -1.45 9.45 -1.15 L9.55 -1.45 9.6 -1.45 Q9.65 -1.8 9.65 -2.2 9.55 -2.6 9.15 -3.2 L9.1 -3.3 Q8.95 -3.35 8.65 -3.55 L8.5 -3.65 8.25 -3.65 7.5 -4.6 7.45 -4.6 M7.2 0.9 Q7.4 0.85 7.55 0.75 L3.35 0.75 Q3.6 0.85 3.85 1.0 4.25 1.3 4.55 1.3 4.7 1.3 4.8 1.25 L4.85 1.15 5.2 1.1 6.8 1.0 7.2 0.9 M1.85 0.55 Q1.1 0.5 0.85 0.35 L0.35 0.2 0.0 0.05 -0.05 0.15 -0.05 0.2 -0.15 0.3 -0.3 0.5 -0.95 2.15 -1.15 2.7 -1.05 2.6 -1.25 3.7 Q-1.3 4.15 -1.5 4.4 L-1.35 4.35 -1.25 4.25 -1.15 4.1 Q-1.05 4.0 -0.5 3.95 L0.4 3.8 Q0.75 3.7 0.85 3.45 L0.9 3.35 0.85 3.35 Q1.0 3.1 1.15 2.6 1.3 1.95 1.4 1.75 1.75 0.95 2.75 0.7 L1.85 0.55 M-2.85 -6.0 Q-2.75 -5.8 -2.7 -5.45 -2.4 -5.3 -2.3 -4.7 L-2.25 -3.7 Q-2.25 -3.1 -1.95 -2.45 L-1.95 -2.6 Q-1.95 -2.9 -1.75 -3.25 -1.55 -3.65 -1.55 -3.8 -1.55 -3.95 -1.65 -4.15 -1.75 -4.35 -1.75 -4.45 L-1.7 -4.7 Q-1.65 -4.9 -1.65 -5.0 -1.65 -5.25 -1.85 -5.35 -2.35 -5.6 -2.75 -5.95 L-2.85 -6.0 M-2.45 -2.3 Q-2.45 -2.15 -2.55 -1.75 L-2.65 -1.2 -2.1 -0.05 Q-1.55 1.05 -1.55 1.25 -1.55 1.65 -1.6 2.05 -1.4 1.7 -1.1 1.25 -0.65 0.6 -0.3 0.25 -0.45 -0.35 -0.85 -0.9 -1.6 -1.5 -1.85 -1.8 L-2.0 -2.05 -2.45 -2.35 -2.45 -2.3 M-0.1 -0.05 L0.0 -0.15 -0.25 -0.35 -0.1 -0.05 M-1.3 2.95 Q-1.75 3.75 -2.3 4.2 L-2.35 4.25 -2.7 4.8 -3.1 5.45 -3.05 5.4 Q-2.9 5.25 -2.5 4.95 -2.05 4.65 -1.8 4.45 -1.5 4.3 -1.4 3.5 L-1.3 2.95" fill="#ffffff" fill-rule="evenodd" stroke="none"/>
  </g>
</svg>
