<?xml version="1.0" encoding="UTF-8" standalone="no"?>
<svg xmlns:ffdec="https://www.free-decompiler.com/flash" xmlns:xlink="http://www.w3.org/1999/xlink" ffdec:objectType="shape" height="28.95px" width="19.5px" xmlns="http://www.w3.org/2000/svg">
  <g transform="matrix(1.0, 0.0, 0.0, 1.0, 21.35, 17.4)">
    <path d="M-8.75 -17.3 Q-8.7 -17.25 -8.7 -17.2 L-8.7 -17.15 -8.65 -17.2 -8.55 -17.2 -8.15 -17.15 Q-8.1 -17.15 -8.05 -17.1 L-8.0 -17.05 -8.0 -16.95 Q-7.9 -16.85 -7.75 -16.8 L-7.45 -16.8 Q-7.05 -16.8 -6.9 -16.7 -5.9 -16.7 -5.55 -15.95 -5.3 -15.55 -5.25 -14.55 -5.2 -13.75 -4.9 -13.1 L-4.85 -13.0 -4.8 -13.0 Q-4.75 -12.95 -4.8 -12.9 L-4.8 -12.85 Q-4.55 -12.35 -4.55 -12.3 -4.55 -12.15 -4.65 -11.85 L-4.75 -11.55 Q-4.55 -11.45 -4.45 -11.2 -4.4 -11.05 -4.35 -10.7 L-4.25 -10.35 Q-4.15 -10.1 -4.15 -9.95 -4.15 -9.8 -4.25 -9.5 -4.35 -9.25 -4.45 -9.05 -4.55 -8.9 -4.55 -8.7 L-4.55 -8.25 Q-4.55 -7.9 -4.8 -7.4 L-4.8 -7.35 -5.1 -6.75 -5.25 -6.9 -5.25 -6.85 Q-5.25 -6.8 -5.3 -6.9 L-5.3 -6.85 -5.25 -6.8 -5.55 -6.8 -5.55 -6.9 -5.5 -6.9 -5.4 -7.0 -5.3 -7.2 Q-5.1 -7.6 -5.05 -7.75 -4.95 -7.9 -5.0 -8.25 L-5.05 -8.75 Q-5.05 -8.95 -4.75 -9.45 L-4.55 -9.9 -4.65 -10.1 Q-4.75 -10.4 -4.85 -10.7 L-4.85 -10.75 -4.9 -11.0 Q-5.0 -11.2 -5.1 -11.3 L-5.1 -11.35 -5.15 -11.4 -5.15 -11.5 Q-5.15 -11.6 -5.05 -11.95 -4.95 -12.2 -4.95 -12.35 L-5.1 -12.65 -5.8 -13.35 -6.7 -13.4 -6.8 -13.4 -7.0 -13.65 Q-7.05 -13.75 -7.15 -13.8 L-7.25 -13.85 -7.25 -13.8 -7.35 -13.75 -7.4 -13.75 -7.5 -13.8 -7.95 -14.4 -8.4 -14.95 -8.85 -14.9 Q-8.9 -14.9 -8.95 -14.95 L-9.1 -15.05 -9.2 -15.15 -9.5 -14.9 -9.6 -14.85 -10.55 -14.85 Q-10.65 -14.9 -10.75 -15.05 L-10.75 -15.0 -10.85 -15.05 Q-11.05 -15.05 -11.45 -14.8 L-11.85 -14.5 -11.7 -14.2 Q-11.5 -13.85 -11.5 -13.7 -11.5 -13.5 -11.65 -13.4 L-11.85 -13.25 -11.75 -13.05 Q-11.6 -12.75 -11.65 -12.65 L-11.65 -12.35 -11.7 -12.3 -11.8 -12.25 -11.75 -12.2 Q-11.65 -12.1 -11.65 -11.85 -11.65 -11.6 -11.75 -11.35 L-11.75 -11.3 -11.65 -11.3 Q-11.6 -11.3 -11.45 -11.65 -11.15 -12.15 -10.7 -12.15 -10.45 -12.15 -10.3 -11.9 L-10.25 -11.8 Q-9.95 -11.95 -9.9 -12.0 L-10.1 -13.4 Q-10.1 -13.7 -9.9 -13.9 -9.8 -14.05 -9.8 -14.3 L-9.75 -14.4 -9.65 -14.45 -9.55 -14.45 -9.4 -14.3 -9.4 -14.05 Q-9.4 -13.9 -9.6 -13.6 L-9.55 -13.65 -9.7 -13.4 -9.65 -12.8 -9.5 -12.0 Q-9.45 -11.95 -9.5 -11.9 L-9.65 -11.6 -9.7 -11.55 -10.15 -11.3 -10.2 -11.3 -10.45 -11.35 -10.55 -11.35 -10.6 -11.4 -10.7 -11.6 Q-10.9 -11.45 -11.1 -11.3 L-11.1 -11.25 -11.4 -10.9 -11.45 -10.85 -11.85 -10.85 -11.9 -10.9 -11.95 -11.05 Q-12.2 -10.75 -12.55 -10.8 -12.8 -10.8 -13.25 -10.5 L-13.75 -10.1 -14.5 -10.1 -14.75 -10.15 -14.8 -10.15 Q-15.0 -10.15 -15.1 -10.1 L-15.3 -9.9 Q-15.35 -9.85 -15.4 -9.85 L-15.5 -9.85 Q-15.55 -9.9 -15.55 -9.95 L-15.55 -10.05 -15.4 -10.3 Q-15.25 -10.5 -15.2 -10.5 L-15.15 -10.5 -14.75 -10.4 -13.45 -10.75 -13.25 -10.95 -12.9 -11.2 -12.55 -11.2 Q-12.4 -11.3 -12.2 -11.55 -12.05 -11.8 -12.0 -11.85 -12.0 -11.95 -12.05 -12.0 -12.25 -12.2 -12.2 -12.25 L-12.15 -12.35 -12.05 -12.4 -12.0 -12.4 -12.0 -12.45 Q-12.0 -12.55 -12.15 -12.75 -12.35 -13.05 -12.35 -13.25 -12.4 -13.35 -12.1 -13.6 L-11.95 -13.7 Q-11.95 -13.85 -12.05 -14.05 L-12.05 -14.1 Q-12.15 -14.35 -12.3 -14.45 L-12.35 -14.5 -12.35 -14.6 -12.3 -14.65 -11.8 -15.0 Q-11.5 -15.15 -11.2 -15.45 L-11.05 -15.45 -10.65 -15.35 -10.35 -15.3 -10.3 -15.3 -10.4 -15.5 -10.4 -15.6 -10.45 -15.7 -10.4 -15.8 -10.3 -15.85 Q-9.55 -15.9 -9.55 -16.45 L-9.6 -16.9 -9.6 -16.95 Q-9.55 -17.3 -9.25 -17.4 L-9.2 -17.4 -8.85 -17.35 -8.75 -17.3 M-9.1 -16.95 L-9.25 -16.8 Q-9.1 -16.45 -9.1 -16.35 -9.1 -16.2 -9.35 -15.9 -9.6 -15.55 -9.85 -15.45 L-9.8 -15.4 -9.8 -15.3 -9.75 -15.3 Q-9.5 -15.7 -9.2 -15.65 -8.95 -15.6 -8.85 -15.4 L-8.25 -15.35 -8.2 -15.3 -8.15 -15.3 -7.7 -14.65 -7.2 -14.05 -7.2 -14.1 -7.15 -14.15 -7.05 -14.15 -6.85 -14.1 -6.75 -14.1 -6.6 -13.9 -6.55 -13.75 -5.7 -13.7 -5.65 -13.7 -5.5 -13.55 -5.55 -13.95 Q-5.6 -14.3 -5.65 -14.5 L-5.9 -15.6 Q-6.05 -16.15 -6.55 -16.3 L-7.0 -16.3 Q-7.1 -16.3 -7.1 -16.35 L-7.25 -16.45 -7.7 -16.5 -7.75 -16.55 -7.8 -16.55 -8.1 -16.6 -8.3 -16.75 -8.5 -16.75 -8.55 -16.7 -8.95 -16.7 -9.05 -16.75 -9.1 -16.85 -9.1 -16.95 M-19.7 -14.8 L-19.65 -14.7 -19.65 -14.65 -19.7 -14.45 -19.75 -14.2 Q-19.75 -14.15 -19.8 -14.1 L-19.95 -14.1 Q-20.05 -14.1 -20.05 -14.15 L-20.1 -14.25 -20.1 -14.7 -20.05 -14.8 Q-20.05 -14.85 -19.95 -14.85 L-19.9 -14.85 -19.75 -14.8 -19.7 -14.8 M-12.05 -10.65 Q-12.05 -10.5 -12.3 -10.1 L-12.55 -9.7 -12.55 -9.45 Q-12.55 -9.25 -12.65 -9.1 L-12.85 -8.95 Q-12.9 -8.9 -12.95 -8.9 L-13.3 -8.95 -13.35 -8.95 -13.4 -9.0 -13.55 -9.05 Q-13.6 -9.05 -13.6 -9.1 L-13.65 -9.15 -13.65 -9.3 -13.6 -9.4 -13.5 -9.45 Q-13.4 -9.45 -13.25 -9.4 L-13.15 -9.3 -13.0 -9.35 -12.95 -9.55 Q-13.05 -9.6 -13.05 -9.85 -13.05 -10.05 -12.7 -10.4 L-12.3 -10.75 -12.2 -10.8 -12.1 -10.75 -12.05 -10.65 M-15.75 -9.8 Q-15.45 -9.75 -15.4 -9.65 -15.35 -9.65 -15.35 -9.55 L-15.45 -9.45 Q-15.6 -9.4 -15.65 -9.35 L-15.75 -9.3 -15.8 -9.3 -16.2 -9.4 -16.65 -9.55 -16.75 -9.6 -16.75 -9.65 Q-16.75 -9.75 -16.7 -9.8 L-16.65 -9.85 -16.55 -9.9 -16.05 -9.8 -15.75 -9.8 M-15.25 -9.15 L-15.0 -9.3 -14.85 -9.4 -14.8 -9.45 -14.7 -9.5 -14.2 -9.45 -14.15 -9.45 -14.05 -9.35 Q-13.85 -9.3 -13.85 -9.2 -13.85 -9.15 -13.85 -9.1 -13.9 -9.05 -13.95 -9.05 L-14.0 -9.0 -14.05 -9.0 -14.35 -9.05 Q-14.85 -9.0 -15.0 -8.8 L-15.05 -8.75 Q-15.1 -8.75 -15.15 -8.75 L-15.8 -8.75 -15.85 -8.8 -15.95 -8.95 -15.95 -9.05 -15.9 -9.15 -15.8 -9.15 -15.55 -9.1 -15.25 -9.15 M-17.3 -10.45 Q-17.15 -10.45 -16.8 -10.05 L-16.7 -9.95 -16.7 -9.85 -16.75 -9.75 Q-16.8 -9.75 -16.85 -9.75 -17.0 -9.75 -17.35 -9.9 L-17.8 -9.9 Q-18.35 -10.0 -18.7 -10.25 -19.05 -10.5 -19.1 -10.8 L-19.1 -10.9 -18.9 -11.0 -18.8 -11.0 -18.75 -10.9 -18.5 -10.65 -18.05 -10.35 Q-17.8 -10.35 -17.7 -10.45 L-17.65 -10.5 -17.35 -10.5 -17.3 -10.45 M-19.8 -13.2 L-19.75 -13.2 -19.7 -13.15 -19.6 -12.95 -19.55 -12.75 -19.5 -12.7 -19.5 -12.25 -19.55 -12.15 Q-19.55 -12.1 -19.6 -12.1 L-19.7 -12.05 -19.8 -12.05 -19.85 -12.1 -19.9 -12.2 Q-19.9 -12.5 -20.0 -13.05 L-20.0 -13.15 -19.95 -13.2 -19.8 -13.2 M-5.85 -6.55 L-5.7 -6.45 -5.9 -6.45 -5.85 -6.55 M-5.95 -6.2 L-5.95 -6.15 -5.85 -6.25 -5.65 -6.05 -5.75 -6.0 -5.85 -6.0 -5.95 -6.05 -5.95 -5.75 -5.9 -5.75 -5.85 -5.65 -5.85 -5.6 -5.95 -5.55 -5.95 -5.5 -6.0 -5.5 -6.05 -5.45 -6.1 -5.45 -6.0 -5.55 -6.1 -5.6 -6.0 -5.7 -6.05 -5.8 -6.1 -5.8 -6.2 -5.85 -6.1 -6.0 -6.0 -6.05 -6.1 -6.15 -6.1 -6.2 Q-6.15 -6.2 -6.1 -6.25 L-5.95 -6.35 -5.95 -6.2 M-6.3 -5.85 L-6.25 -5.85 -6.45 -5.75 -6.45 -5.8 -6.4 -6.0 -6.3 -5.85 M-6.45 -5.65 L-6.35 -5.5 -6.5 -5.5 -6.45 -5.65 M-6.4 -2.65 L-6.5 -2.75 -6.4 -2.75 -6.4 -2.65 M-6.7 -1.95 L-6.6 -1.95 -6.55 -1.85 -6.7 -1.95 M-6.1 -2.3 L-6.25 -2.3 -6.25 -2.45 -6.1 -2.3 M-6.05 -1.85 L-5.75 -1.85 -5.85 -1.65 -6.05 -1.85 M-5.35 -1.9 L-5.35 -1.9 M-5.15 -1.5 L-5.15 -1.5 M-3.8 -1.0 L-3.75 -1.0 -3.7 -0.9 -3.65 -0.85 -3.65 -0.75 -3.75 -0.65 -3.8 -0.65 Q-3.85 -0.65 -3.9 -0.7 L-3.95 -0.75 -3.9 -0.85 -3.85 -0.9 -3.85 -0.95 -3.8 -1.0 M-3.55 -0.6 L-3.55 -0.7 -3.45 -0.55 -3.55 -0.6 M-3.3 -0.1 L-3.25 -0.15 -3.25 -0.2 -3.3 -0.05 -3.3 -0.1 M-2.9 -0.25 L-3.15 -0.3 -3.1 -0.3 -3.0 -0.4 -2.9 -0.25 M-2.9 -0.2 L-2.85 -0.25 -2.75 -0.25 -2.85 -0.05 -2.85 0.1 -2.9 0.1 -2.9 0.0 -2.95 0.0 -3.0 -0.05 -2.9 -0.05 -2.9 -0.2 M-2.6 -0.05 L-2.65 -0.05 -2.6 -0.1 -2.45 -0.1 -2.45 0.05 -2.55 0.15 -2.7 0.15 -2.8 0.05 -2.65 0.0 -2.6 -0.05 M-2.0 0.7 L-2.2 0.65 -2.25 0.45 -2.25 0.35 -2.2 0.45 -2.05 0.6 -2.0 0.7 M-2.3 0.15 L-2.15 0.3 -2.3 0.3 -2.3 0.15 M-2.4 0.2 L-2.3 0.3 -2.45 0.35 -2.5 0.35 -2.4 0.15 -2.4 0.2 M-2.8 0.3 L-2.7 0.4 -2.8 0.4 -2.8 0.3 M-2.35 0.8 L-2.3 0.8 -2.3 0.75 -2.25 0.95 -2.25 1.0 -2.3 1.0 -2.25 1.1 -2.3 1.1 -2.4 1.0 -2.35 0.95 -2.4 0.95 Q-2.4 0.9 -2.35 0.8 M-2.2 1.5 L-2.25 1.4 -2.3 1.25 -2.0 1.25 -2.05 1.3 -2.05 1.4 -2.15 1.55 -2.2 1.45 -2.2 1.5 M-2.0 1.1 L-1.95 1.1 -1.95 1.15 -2.0 1.25 -2.15 1.05 -2.0 1.05 -1.9 1.0 -1.95 1.1 -2.0 1.1 M-2.8 2.35 L-2.7 2.4 -2.85 2.4 -2.8 2.35 M-3.1 3.5 L-3.25 3.8 -3.45 4.1 -3.5 4.15 -3.7 3.95 -3.35 3.7 -3.1 3.5 M-3.1 0.05 L-3.25 0.05 -3.3 0.0 -3.1 0.05 M-3.6 4.3 L-3.65 4.3 -3.55 4.25 -3.6 4.3 M-3.65 4.4 L-3.8 4.55 -3.9 4.45 -3.95 4.3 Q-3.9 4.3 -3.85 4.25 L-3.65 4.35 -3.65 4.4 M-4.0 4.35 L-3.9 4.6 -4.1 4.6 -4.2 4.55 -4.2 4.5 -4.0 4.35 M-4.6 5.2 L-4.45 5.2 Q-4.4 5.25 -4.35 5.35 L-4.35 5.45 -4.5 5.8 -4.6 5.85 -4.65 5.85 Q-4.8 5.85 -4.85 5.9 -5.0 6.15 -5.1 6.15 -5.3 6.15 -5.45 6.0 -5.6 5.95 -5.65 5.9 L-5.7 5.85 -5.75 5.75 Q-5.75 5.6 -5.95 5.3 -6.15 4.9 -6.2 4.75 L-6.4 4.65 -6.95 4.6 -7.0 4.6 -7.05 4.55 -7.5 3.95 Q-7.75 3.7 -7.75 3.4 -7.75 3.25 -7.65 3.05 -7.55 2.95 -7.55 2.85 L-7.6 2.75 -7.7 2.65 -7.95 2.6 -8.05 2.5 Q-8.1 2.3 -8.2 2.15 L-8.2 2.1 -8.25 2.1 -8.3 2.05 -8.7 2.0 -9.25 2.0 -9.35 1.95 -9.9 1.45 Q-10.0 1.45 -10.15 1.55 L-10.4 1.75 -10.5 1.85 -10.7 1.85 -10.75 1.9 -10.8 1.9 Q-11.25 1.95 -11.45 1.75 L-11.55 1.6 -12.9 2.35 -12.9 2.4 Q-12.75 2.55 -12.75 2.75 -12.75 3.0 -13.3 3.55 L-13.9 4.1 -13.95 4.2 -14.0 4.2 Q-14.55 4.2 -14.75 4.45 L-15.15 5.0 -15.2 5.05 -15.85 5.3 -15.9 5.3 -16.15 5.65 -16.2 5.7 -16.5 5.7 -16.55 5.6 -16.55 5.5 -16.3 5.1 Q-16.15 4.8 -15.9 4.8 L-15.7 4.75 Q-15.55 4.65 -15.35 4.6 L-15.0 4.1 Q-14.65 3.75 -14.15 3.8 L-13.9 3.45 -13.55 3.05 Q-13.35 2.95 -13.3 2.75 L-13.35 2.6 -13.7 2.6 Q-13.75 2.6 -13.8 2.55 L-13.85 2.45 -13.95 2.35 -14.2 2.35 -14.3 2.55 -14.35 2.55 Q-14.45 2.75 -14.6 2.8 L-15.1 2.8 -15.25 3.15 Q-15.5 3.55 -15.8 3.8 L-16.4 4.2 Q-17.0 4.55 -17.1 4.55 -17.4 4.55 -17.45 4.35 L-17.8 4.3 Q-17.95 4.35 -18.45 5.0 L-18.9 5.65 -18.8 5.95 Q-18.7 6.2 -18.7 6.35 -18.7 6.7 -19.15 7.5 -19.5 8.2 -19.5 8.45 L-19.4 8.8 Q-19.25 9.1 -19.2 9.25 L-18.65 8.4 -18.65 8.35 -18.6 8.3 Q-18.4 8.25 -18.0 8.05 -17.6 7.85 -17.35 7.75 L-17.15 6.8 Q-17.05 6.1 -16.6 5.9 L-16.55 5.9 Q-16.5 5.9 -16.45 5.95 L-16.4 6.0 -16.4 6.1 Q-16.6 6.45 -16.7 6.95 -16.8 7.4 -16.8 7.7 -16.8 7.95 -16.95 8.05 L-17.05 8.05 -17.1 8.15 Q-18.15 8.55 -18.65 9.15 -19.05 9.55 -19.2 10.15 L-19.25 10.2 Q-19.3 10.25 -19.35 10.25 L-19.4 10.25 -19.4 10.3 Q-19.6 10.95 -19.6 11.3 L-19.6 11.35 -19.7 11.45 -19.75 11.55 -19.85 11.55 Q-20.0 11.5 -20.1 11.3 L-20.15 11.1 -20.15 10.8 -20.25 10.75 -20.3 10.65 Q-20.3 10.35 -20.45 10.2 -20.6 9.95 -20.6 9.75 -20.6 9.45 -20.45 9.2 -20.25 9.05 -20.25 8.9 L-20.2 8.85 -20.1 8.8 -20.0 8.85 -19.95 8.9 -19.95 9.15 Q-19.9 9.25 -20.1 9.55 L-20.25 9.7 Q-20.2 9.85 -20.1 10.1 L-20.0 10.3 -19.9 10.45 -19.9 10.3 Q-19.65 9.6 -19.65 9.25 L-19.75 8.95 Q-19.9 8.6 -19.9 8.45 -19.9 8.1 -19.5 7.3 -19.1 6.6 -19.1 6.4 -19.1 6.3 -19.2 6.1 -19.3 5.8 -19.3 5.65 -19.3 5.5 -18.85 4.8 -18.45 4.25 -18.2 4.0 L-18.15 3.95 -17.95 3.95 Q-17.4 4.0 -17.2 4.1 L-16.9 3.9 Q-16.7 3.8 -16.25 3.7 -16.2 3.6 -15.95 3.4 -15.7 3.15 -15.65 3.05 -15.55 2.9 -15.5 2.6 -15.5 2.4 -15.1 2.4 L-14.75 2.4 -14.6 2.2 -14.5 2.05 -14.5 2.0 -14.4 1.95 -14.35 1.9 -13.8 1.95 -13.75 1.95 -13.35 2.35 Q-13.2 1.95 -11.65 1.25 L-11.55 1.2 Q-11.25 1.2 -11.15 1.3 L-10.8 1.55 Q-10.75 1.45 -10.55 1.35 L-10.1 1.05 Q-10.05 1.0 -10.0 1.0 L-9.75 1.05 Q-9.7 1.05 -9.65 1.05 L-9.65 1.15 -9.6 1.25 Q-9.3 1.25 -9.15 1.4 L-9.15 1.45 -9.1 1.55 -8.3 1.55 -8.25 1.6 -8.05 1.9 -8.0 1.95 -7.95 2.05 Q-7.8 2.2 -7.55 2.25 -7.5 2.25 -7.45 2.3 L-7.25 2.55 Q-7.2 2.7 -7.2 2.9 -7.2 3.05 -7.3 3.2 -7.35 3.3 -7.4 3.35 -7.35 3.55 -7.2 3.75 L-6.75 4.2 -6.2 4.25 -6.15 4.3 Q-6.05 4.35 -5.6 5.1 -5.35 5.6 -5.2 5.65 -5.1 5.65 -5.05 5.55 -4.9 5.4 -4.8 5.4 L-4.7 5.25 -4.65 5.2 -4.6 5.2 M-13.6 0.8 L-13.5 0.8 Q-13.15 0.85 -13.15 1.25 L-13.15 1.45 -13.2 1.5 -13.2 1.55 Q-13.25 1.65 -13.35 1.6 -13.4 1.6 -13.45 1.5 L-13.45 1.45 -13.7 1.1 -13.75 1.0 Q-13.75 0.9 -13.65 0.85 L-13.6 0.8 M-14.45 0.65 L-14.75 0.55 -14.8 0.5 -14.85 0.4 Q-14.85 0.3 -14.75 0.25 L-14.7 0.25 -14.65 0.2 Q-14.25 0.25 -14.15 0.35 L-14.1 0.4 -14.1 0.45 Q-14.05 0.5 -14.1 0.55 L-14.15 0.65 -14.45 0.65 M-15.7 0.85 L-15.75 0.95 -16.0 1.05 -16.35 1.15 -16.8 1.55 -16.9 1.55 Q-16.95 1.55 -17.0 1.5 L-17.1 1.4 -17.05 1.3 -16.65 0.8 Q-16.6 0.75 -16.55 0.75 L-16.3 0.75 -16.3 0.7 -16.25 0.6 -16.0 0.6 -16.0 0.65 Q-15.7 0.65 -15.7 0.75 L-15.7 0.85 M-18.4 1.2 Q-18.3 1.4 -18.1 1.4 L-17.9 1.35 -17.6 1.35 -17.5 1.4 -17.5 1.5 -17.75 1.75 Q-17.95 1.9 -18.0 1.9 -18.3 1.9 -18.35 1.75 -18.55 1.75 -18.6 1.85 L-18.7 1.9 Q-18.75 1.9 -18.8 1.85 L-18.85 1.8 -18.9 1.7 -18.9 1.65 -18.65 1.15 Q-18.6 1.1 -18.55 1.1 -18.45 1.05 -18.4 1.2 M-19.75 3.45 Q-20.1 3.9 -20.15 4.1 L-20.2 4.15 -20.3 4.2 -20.35 4.2 -20.45 4.15 -20.5 4.05 Q-20.5 3.55 -20.2 3.2 L-19.7 2.65 Q-19.7 2.6 -19.65 2.55 L-19.5 2.6 -19.45 2.65 Q-19.35 2.95 -19.75 3.45 M-20.7 4.9 Q-20.65 4.9 -20.6 4.9 -20.55 4.95 -20.55 5.0 L-20.55 5.15 Q-20.55 5.5 -20.75 5.75 L-20.9 5.85 Q-20.9 6.1 -20.75 6.35 L-20.25 7.05 -20.25 7.65 -20.45 7.75 -20.5 7.75 -20.6 7.65 -20.6 7.6 Q-20.6 7.25 -21.0 6.7 -21.5 6.05 -21.3 5.6 L-21.25 5.5 -21.2 5.5 -21.05 5.45 -21.0 5.25 Q-20.9 5.0 -20.8 4.9 L-20.7 4.9" fill="#ffffff" fill-opacity="0.5019608" fill-rule="evenodd" stroke="none"/>
    <path d="M-8.95 -17.1 Q-9.45 -17.05 -9.4 -16.75 -9.25 -16.45 -9.25 -16.35 -9.25 -16.25 -9.45 -16.0 -9.7 -15.7 -9.9 -15.6 L-10.1 -15.55 -10.05 -15.45 -9.95 -15.35 -10.1 -15.3 -10.25 -15.55 -10.3 -15.7 Q-9.4 -15.75 -9.4 -16.45 L-9.45 -16.95 Q-9.4 -17.2 -9.2 -17.25 L-8.85 -17.2 -8.85 -17.0 -8.75 -17.0 Q-8.65 -17.0 -8.6 -17.05 L-8.15 -17.0 -8.15 -16.85 Q-8.0 -16.7 -7.75 -16.65 L-8.05 -16.75 -8.25 -16.9 Q-8.55 -16.9 -8.6 -16.85 L-8.95 -16.85 -8.95 -17.1 M-10.35 -15.15 L-9.65 -15.15 Q-9.45 -15.5 -9.2 -15.5 -9.0 -15.45 -8.95 -15.25 L-8.25 -15.2 -7.85 -14.6 Q-7.55 -14.2 -7.3 -13.95 L-7.35 -13.9 -8.35 -15.1 -8.85 -15.05 -9.05 -15.2 -9.25 -15.4 Q-9.3 -15.3 -9.6 -15.0 L-10.5 -15.0 -10.65 -15.1 Q-10.7 -15.2 -10.85 -15.2 -11.05 -15.2 -11.55 -14.9 -11.95 -14.6 -11.95 -14.5 L-11.8 -14.15 Q-11.65 -13.8 -11.65 -13.7 -11.65 -13.6 -11.75 -13.5 L-12.05 -13.25 -11.9 -13.0 Q-11.75 -12.75 -11.75 -12.65 L-11.75 -12.45 -11.8 -12.4 -11.85 -12.4 Q-11.85 -12.6 -12.0 -12.85 -12.2 -13.1 -12.2 -13.25 L-12.0 -13.5 Q-11.8 -13.65 -11.8 -13.7 -11.8 -13.85 -11.95 -14.15 -12.05 -14.4 -12.2 -14.55 L-11.7 -14.9 Q-11.45 -15.05 -11.1 -15.3 L-10.7 -15.2 -10.35 -15.15 M-9.55 -14.25 L-9.55 -14.05 Q-9.55 -13.95 -9.7 -13.7 L-9.85 -13.4 -9.8 -12.75 Q-9.7 -12.3 -9.6 -12.0 L-9.75 -11.65 -10.2 -11.45 -10.45 -11.45 -10.65 -11.8 Q-11.0 -11.65 -11.2 -11.35 L-11.5 -10.95 -11.75 -10.95 -11.8 -11.1 -11.85 -11.2 Q-11.8 -11.15 -11.65 -11.15 -11.5 -11.15 -11.3 -11.6 -11.1 -12.0 -10.7 -12.0 -10.55 -12.0 -10.4 -11.8 L-10.35 -11.6 Q-9.75 -11.85 -9.75 -12.0 L-9.95 -13.4 Q-9.95 -13.65 -9.8 -13.8 -9.65 -14.0 -9.65 -14.3 L-9.55 -14.3 -9.55 -14.25 M-7.0 -16.45 L-7.15 -16.6 -7.65 -16.65 -7.45 -16.65 Q-7.05 -16.65 -6.95 -16.55 -6.0 -16.6 -5.65 -15.9 -5.45 -15.5 -5.4 -14.55 -5.35 -13.75 -5.0 -13.05 L-4.95 -12.9 -4.7 -12.3 Q-4.7 -12.15 -4.8 -11.9 L-4.9 -11.5 -5.0 -11.5 -4.9 -11.9 Q-4.8 -12.2 -4.8 -12.35 -4.8 -12.45 -5.0 -12.75 L-5.1 -12.85 -5.4 -13.1 -5.75 -13.45 -6.7 -13.5 -6.85 -13.75 Q-6.95 -13.9 -7.1 -13.9 L-7.1 -13.95 -7.05 -14.0 -6.85 -13.95 -6.75 -13.8 -6.6 -13.6 -5.7 -13.55 -5.15 -13.0 Q-5.3 -13.25 -5.35 -13.45 L-5.4 -14.0 Q-5.45 -14.35 -5.5 -14.55 L-5.75 -15.65 Q-5.95 -16.3 -6.55 -16.45 L-7.0 -16.45 M-19.85 -14.45 L-19.9 -14.25 -19.95 -14.25 -19.95 -14.7 -19.8 -14.7 -19.85 -14.45 M-12.0 -12.25 L-11.85 -12.1 Q-11.75 -12.0 -11.75 -11.85 -11.75 -11.55 -12.0 -11.25 -12.25 -10.9 -12.55 -10.95 -12.8 -10.95 -13.3 -10.6 L-13.85 -10.25 -14.45 -10.25 -14.7 -10.3 Q-14.55 -10.35 -13.4 -10.6 L-13.15 -10.85 -12.85 -11.05 -12.5 -11.05 Q-12.35 -11.15 -12.1 -11.45 -11.85 -11.75 -11.85 -11.85 -11.85 -12.0 -11.95 -12.1 L-12.05 -12.25 -12.0 -12.25 M-14.8 -10.3 Q-15.1 -10.3 -15.2 -10.2 L-15.4 -10.0 -15.3 -10.2 -15.15 -10.35 Q-14.85 -10.35 -14.8 -10.3 M-15.6 -8.95 L-15.2 -9.0 Q-15.0 -9.1 -14.9 -9.2 -14.7 -9.35 -14.75 -9.35 L-14.2 -9.3 -14.1 -9.25 Q-14.0 -9.2 -14.0 -9.15 L-14.05 -9.15 Q-14.3 -9.15 -14.3 -9.2 -14.95 -9.15 -15.15 -8.85 L-15.7 -8.85 -15.8 -9.0 Q-15.65 -9.0 -15.6 -8.95 M-15.5 -9.55 Q-15.7 -9.55 -15.75 -9.45 L-16.2 -9.55 -16.6 -9.65 -16.6 -9.7 -16.55 -9.75 -16.1 -9.7 -15.75 -9.65 Q-15.55 -9.6 -15.5 -9.55 M-17.3 -10.05 L-17.8 -10.05 Q-18.3 -10.15 -18.65 -10.35 -18.9 -10.55 -18.95 -10.8 L-18.85 -10.85 Q-18.8 -10.7 -18.6 -10.55 L-18.1 -10.2 Q-17.75 -10.2 -17.6 -10.35 L-17.35 -10.35 Q-17.2 -10.3 -16.9 -9.95 L-16.85 -9.9 Q-16.95 -9.9 -17.3 -10.05 M-12.6 -10.3 L-12.2 -10.65 Q-12.2 -10.5 -12.45 -10.15 L-12.75 -9.65 -12.85 -9.7 Q-12.9 -9.7 -12.9 -9.85 -12.9 -10.0 -12.6 -10.3 M-12.75 -9.2 L-12.95 -9.05 -13.3 -9.05 -13.3 -9.1 -13.5 -9.15 -13.5 -9.3 Q-13.45 -9.3 -13.3 -9.25 L-13.2 -9.15 -12.9 -9.2 Q-12.8 -9.45 -12.8 -9.6 L-12.7 -9.6 -12.7 -9.45 Q-12.7 -9.3 -12.75 -9.2 M-19.8 -13.05 L-19.75 -12.9 -19.65 -12.7 -19.65 -12.25 -19.75 -12.2 Q-19.75 -12.5 -19.85 -13.05 L-19.8 -13.05 M-4.95 -11.45 Q-4.7 -11.4 -4.6 -11.15 -4.5 -11.0 -4.5 -10.7 L-4.4 -10.3 Q-4.3 -10.05 -4.3 -9.95 -4.3 -9.85 -4.4 -9.55 -4.5 -9.3 -4.6 -9.1 -4.7 -8.95 -4.7 -8.7 L-4.7 -8.25 Q-4.7 -7.9 -4.9 -7.45 L-5.25 -6.8 -5.2 -6.8 -5.5 -6.25 Q-5.7 -5.9 -5.95 -5.7 L-6.1 -5.75 -6.1 -5.65 -6.0 -5.65 -6.05 -5.6 -6.1 -5.6 -6.1 -5.55 Q-6.15 -5.15 -6.4 -4.75 -6.45 -4.7 -6.6 -4.1 L-6.7 -3.25 Q-6.7 -3.0 -6.5 -2.6 L-6.05 -2.55 Q-6.0 -2.3 -5.85 -2.1 -5.7 -1.9 -5.4 -1.75 -4.75 -1.65 -4.35 -1.4 L-3.8 -0.8 -3.85 -0.75 -4.45 -1.2 Q-4.95 -1.55 -5.2 -1.65 L-5.3 -1.6 -5.55 -1.55 -6.1 -1.6 -6.8 -1.7 Q-7.1 -2.5 -7.5 -3.25 -7.6 -3.5 -7.6 -4.3 -7.6 -5.0 -7.55 -5.2 -7.45 -5.65 -6.95 -6.0 L-6.6 -6.0 Q-6.5 -5.8 -6.3 -5.7 L-6.2 -6.5 -6.0 -6.45 Q-5.85 -6.4 -5.8 -6.35 L-5.65 -6.6 -5.4 -6.8 -5.4 -6.85 -5.35 -6.75 -5.2 -7.15 Q-4.95 -7.55 -4.9 -7.7 -4.85 -7.9 -4.85 -8.25 L-4.9 -8.75 Q-4.9 -8.9 -4.65 -9.4 -4.4 -9.85 -4.4 -9.9 L-4.5 -10.15 Q-4.65 -10.4 -4.7 -10.75 -4.7 -10.85 -4.8 -11.05 -4.85 -11.3 -5.0 -11.4 L-4.95 -11.45 M-6.1 -6.35 L-6.1 -5.75 -5.75 -6.15 Q-5.9 -6.15 -6.0 -6.25 L-6.1 -6.35 M-7.05 -5.8 L-7.45 -5.2 Q-7.55 -5.05 -7.55 -4.8 L-7.5 -4.3 Q-7.5 -3.55 -7.35 -3.25 -6.95 -2.45 -6.7 -1.8 L-6.05 -1.7 -5.75 -1.75 -6.0 -2.0 -6.05 -2.25 -6.1 -2.45 -6.6 -2.5 Q-6.8 -2.95 -6.8 -3.25 -6.8 -4.2 -6.6 -4.7 -6.45 -5.05 -6.3 -5.65 L-6.4 -5.65 Q-6.5 -5.7 -6.55 -5.8 -6.6 -5.9 -6.7 -5.9 -7.0 -5.9 -7.05 -5.8 M-3.75 -0.85 L-3.4 -0.8 -3.15 -0.35 -3.05 -0.2 Q-2.9 -0.3 -2.7 -0.3 -2.55 -0.1 -2.55 0.0 L-2.6 0.0 -2.65 -0.05 -2.6 0.05 -2.1 0.05 -2.0 0.4 Q-1.95 0.6 -1.95 0.75 L-1.95 0.95 -2.05 0.95 -2.15 1.15 -2.1 1.15 -1.95 1.4 Q-1.85 1.55 -1.85 1.7 -1.85 2.25 -2.5 3.15 -3.1 4.1 -3.65 4.15 L-3.9 4.45 -3.8 4.4 -3.8 4.45 Q-3.9 4.5 -4.1 4.7 -4.25 4.95 -4.3 5.05 L-4.5 5.05 Q-4.4 4.9 -4.2 4.7 L-3.9 4.45 -4.1 4.45 Q-3.5 3.75 -3.3 3.4 -3.25 3.3 -3.1 2.85 -3.05 2.65 -2.8 2.5 L-3.2 3.45 Q-3.4 3.8 -3.6 4.1 L-3.0 3.6 Q-2.45 3.15 -2.35 2.9 L-2.15 2.35 Q-1.95 1.9 -1.95 1.7 -1.95 1.55 -2.05 1.4 L-2.15 1.2 -2.35 1.65 Q-2.65 2.15 -2.7 2.25 L-2.85 2.25 -2.5 1.5 -2.2 0.95 Q-2.3 0.95 -2.25 0.9 L-2.2 0.85 -2.35 0.8 Q-2.5 0.65 -2.65 0.35 L-2.7 0.25 -3.05 0.2 Q-3.05 0.1 -3.15 -0.1 L-3.15 -0.1 -3.25 -0.25 Q-3.4 -0.55 -3.4 -0.7 L-3.8 -0.75 -3.75 -0.8 -3.75 -0.85 M-2.75 -0.2 L-3.05 -0.15 -2.95 0.1 -2.75 0.1 -2.75 -0.2 M-2.05 0.7 Q-2.05 0.55 -2.1 0.4 L-2.15 0.2 -2.15 0.15 -2.55 0.2 -2.3 0.55 -2.1 0.75 -2.05 0.7 M-4.8 5.55 Q-4.75 5.55 -4.6 5.3 L-4.5 5.4 -4.65 5.7 Q-4.85 5.7 -4.95 5.85 -5.05 6.0 -5.1 6.0 -5.25 6.0 -5.35 5.9 L-5.6 5.75 Q-5.6 5.55 -5.8 5.2 -6.05 4.8 -6.1 4.65 L-6.3 4.5 -6.9 4.45 -7.4 3.9 Q-7.6 3.65 -7.6 3.4 -7.6 3.25 -7.5 3.1 -7.4 3.0 -7.4 2.85 -7.4 2.7 -7.5 2.65 L-7.6 2.5 -7.9 2.45 Q-8.0 2.25 -8.05 2.1 -7.9 2.35 -7.55 2.4 L-7.4 2.6 Q-7.3 2.7 -7.3 2.9 -7.3 3.0 -7.4 3.15 -7.5 3.25 -7.5 3.35 -7.5 3.55 -7.3 3.8 L-6.8 4.35 -6.25 4.4 Q-6.1 4.45 -5.75 5.15 -5.4 5.75 -5.2 5.75 -5.05 5.75 -4.95 5.65 L-4.8 5.55 M-8.25 1.9 L-8.7 1.85 -9.25 1.85 Q-9.85 1.3 -9.9 1.3 -10.05 1.3 -10.25 1.45 L-10.5 1.65 -10.6 1.75 Q-10.65 1.75 -10.65 1.6 L-10.45 1.45 -10.0 1.15 -9.75 1.15 -9.7 1.4 Q-9.4 1.4 -9.3 1.5 L-9.15 1.7 -8.35 1.7 -8.15 2.0 -8.25 1.9 M-11.55 1.45 Q-11.6 1.45 -13.1 2.3 -13.1 2.35 -13.0 2.5 -12.9 2.6 -12.9 2.75 -12.9 3.0 -13.4 3.45 L-14.0 4.05 Q-14.65 4.05 -14.9 4.35 L-15.25 4.9 -15.95 5.2 Q-16.05 5.25 -16.25 5.55 L-16.4 5.55 -16.2 5.15 Q-16.1 4.95 -15.9 4.95 -15.8 4.95 -15.65 4.85 -15.45 4.8 -15.25 4.75 L-14.9 4.2 Q-14.6 3.85 -14.1 3.95 L-13.8 3.55 Q-13.6 3.25 -13.45 3.15 -13.2 3.0 -13.2 2.75 L-13.2 2.4 Q-13.2 2.1 -11.55 1.35 L-11.25 1.4 -10.75 1.75 -10.8 1.75 Q-11.15 1.8 -11.35 1.65 -11.5 1.45 -11.55 1.45 M-14.4 0.5 L-14.7 0.4 -14.65 0.35 Q-14.3 0.35 -14.25 0.45 L-14.2 0.5 -14.4 0.5 M-13.55 0.95 Q-13.3 1.0 -13.3 1.25 L-13.3 1.4 -13.6 1.0 -13.55 0.95 M-13.45 2.45 L-13.7 2.45 Q-13.7 2.35 -13.9 2.2 L-14.3 2.2 -14.45 2.45 Q-14.55 2.6 -14.65 2.65 L-15.15 2.65 -15.4 3.1 Q-15.6 3.45 -15.85 3.65 L-16.45 4.05 Q-17.0 4.4 -17.1 4.4 -17.35 4.4 -17.35 4.2 -17.95 4.15 -17.95 4.1 -17.25 4.2 -17.2 4.25 L-16.8 4.0 Q-16.6 3.9 -16.15 3.85 -16.15 3.7 -15.9 3.5 -15.6 3.25 -15.5 3.1 -15.45 2.95 -15.35 2.65 -15.35 2.55 -15.1 2.55 L-14.7 2.5 -14.5 2.3 Q-14.35 2.1 -14.35 2.05 L-13.8 2.1 Q-13.6 2.35 -13.4 2.45 L-13.45 2.45 M-16.0 0.75 Q-15.85 0.8 -15.8 0.8 L-16.05 0.9 -16.4 1.0 -16.9 1.4 -16.95 1.35 -16.75 1.15 -16.5 0.85 -16.15 0.75 -16.0 0.75 M-16.55 6.05 Q-16.7 6.45 -16.85 6.9 -16.95 7.4 -16.95 7.7 -16.95 7.85 -17.05 7.9 L-17.15 8.0 Q-18.25 8.45 -18.8 9.05 -19.2 9.45 -19.35 10.1 L-19.45 10.1 Q-19.4 9.85 -19.1 9.35 L-18.55 8.45 Q-18.35 8.4 -17.9 8.2 -17.45 7.95 -17.25 7.85 -17.15 7.75 -17.05 6.8 -16.95 6.2 -16.55 6.05 M-18.1 1.55 L-17.8 1.5 -17.65 1.45 -17.85 1.65 -18.0 1.75 Q-18.25 1.75 -18.25 1.6 -18.55 1.6 -18.7 1.75 L-18.75 1.7 Q-18.55 1.2 -18.5 1.25 -18.45 1.55 -18.1 1.55 M-19.6 2.7 Q-19.5 2.95 -19.85 3.35 -20.25 3.85 -20.3 4.05 L-20.35 4.05 Q-20.35 3.6 -20.1 3.3 L-19.6 2.7 M-20.65 5.15 Q-20.65 5.45 -20.85 5.65 L-21.05 5.8 Q-21.05 6.05 -20.85 6.45 -20.7 6.7 -20.35 7.1 L-20.35 7.55 -20.45 7.6 Q-20.4 7.2 -20.9 6.6 -21.3 6.05 -21.15 5.6 L-20.95 5.55 -20.85 5.3 Q-20.8 5.1 -20.7 5.0 L-20.65 5.15 M-18.1 4.1 L-18.0 4.1 -17.85 4.15 Q-18.0 4.25 -18.55 4.9 -19.05 5.55 -19.05 5.65 -19.05 5.75 -18.95 6.0 -18.85 6.25 -18.85 6.35 -18.85 6.65 -19.25 7.45 -19.65 8.2 -19.65 8.45 -19.65 8.55 -19.5 8.85 -19.35 9.15 -19.35 9.3 -19.35 9.55 -19.55 10.25 -19.75 10.95 -19.75 11.3 L-19.8 11.4 -19.95 11.25 -20.0 11.05 -20.0 10.65 -20.15 10.65 Q-20.15 10.3 -20.3 10.1 -20.45 9.9 -20.45 9.75 -20.45 9.5 -20.3 9.3 -20.15 9.1 -20.1 8.95 L-20.05 9.0 -20.05 9.15 Q-20.05 9.25 -20.2 9.45 L-20.35 9.7 Q-20.35 9.9 -20.2 10.15 L-20.0 10.65 -20.0 10.45 Q-19.95 10.45 -19.9 10.5 L-19.8 10.55 Q-19.5 9.7 -19.5 9.25 -19.5 9.2 -19.6 8.9 -19.75 8.6 -19.75 8.45 -19.75 8.15 -19.35 7.35 -18.95 6.6 -18.95 6.4 -18.95 6.25 -19.05 6.0 -19.15 5.8 -19.15 5.65 -19.15 5.5 -18.75 4.9 -18.35 4.35 -18.1 4.1" fill="#ffffff" fill-rule="evenodd" stroke="none"/>
  </g>
</svg>
