<?xml version="1.0" encoding="UTF-8" standalone="no"?>
<svg xmlns:ffdec="https://www.free-decompiler.com/flash" xmlns:xlink="http://www.w3.org/1999/xlink" ffdec:objectType="shape" height="26.25px" width="20.05px" xmlns="http://www.w3.org/2000/svg">
  <g transform="matrix(1.0, 0.0, 0.0, 1.0, 21.3, 17.45)">
    <path d="M-8.95 -17.35 L-9.35 -17.3 Q-9.4 -17.2 -9.4 -17.05 L-9.35 -16.75 -9.5 -16.85 Q-9.55 -16.95 -9.55 -17.1 -9.55 -17.35 -9.4 -17.45 -8.95 -17.4 -8.95 -17.35 M-9.65 -15.95 Q-9.65 -15.9 -9.75 -15.8 -9.8 -15.75 -9.95 -15.75 L-9.65 -16.1 -9.65 -15.95 M-9.45 -16.35 Q-9.45 -16.2 -9.65 -16.25 L-9.55 -16.4 -9.45 -16.5 -9.45 -16.35 M-11.1 -15.25 Q-11.6 -15.1 -11.8 -14.75 -11.9 -14.4 -12.0 -14.25 L-12.05 -14.2 -12.05 -14.35 Q-12.05 -14.5 -11.85 -14.85 -11.65 -15.25 -11.4 -15.3 L-11.15 -15.35 Q-11.1 -15.35 -11.05 -15.3 L-11.1 -15.25 M-8.75 -15.3 Q-8.6 -15.3 -8.25 -15.1 -7.95 -14.95 -7.8 -14.8 L-7.85 -14.75 Q-8.05 -14.85 -8.2 -15.05 -8.35 -15.2 -8.75 -15.15 L-8.75 -15.3 M-9.05 -15.55 L-9.45 -15.45 Q-9.45 -15.6 -9.4 -15.6 -9.05 -15.6 -9.05 -15.55 M-6.3 -17.1 Q-6.25 -17.0 -6.2 -16.9 L-6.25 -16.85 Q-6.3 -16.9 -6.3 -17.1 M-6.5 -17.2 Q-6.65 -17.2 -6.75 -17.1 -6.95 -17.0 -7.0 -16.95 L-6.65 -17.35 Q-6.5 -17.35 -6.35 -17.2 L-6.5 -17.2 M-5.9 -16.6 Q-5.8 -16.6 -5.6 -16.5 -5.4 -16.35 -5.4 -16.2 -5.4 -16.1 -5.45 -15.95 -5.55 -15.75 -5.65 -15.65 L-5.7 -15.65 -5.7 -15.85 Q-5.7 -16.0 -5.65 -16.05 L-5.5 -16.15 -5.6 -16.35 -5.9 -16.45 -5.9 -16.6 M-8.25 -17.25 L-8.75 -17.25 Q-8.6 -17.45 -8.55 -17.35 -8.25 -17.3 -8.25 -17.25 M-7.85 -14.6 Q-7.8 -14.35 -7.85 -14.1 L-7.9 -14.1 -7.9 -14.6 -7.85 -14.6 M-5.8 -15.1 Q-5.8 -15.25 -5.75 -15.3 L-5.6 -15.3 -5.65 -15.25 Q-5.7 -15.2 -5.7 -15.05 L-5.4 -14.75 -5.45 -14.7 Q-5.75 -14.75 -5.8 -14.9 L-5.8 -15.1 M-5.3 -14.3 Q-5.3 -14.2 -5.3 -13.95 L-5.35 -13.9 Q-5.4 -14.05 -5.4 -14.3 L-5.3 -14.3 M-12.05 -13.4 L-11.95 -13.6 -12.15 -13.85 -12.1 -13.9 Q-11.85 -13.75 -11.85 -13.5 L-11.9 -13.45 -12.05 -13.4 M-12.05 -12.75 L-12.0 -12.5 -12.15 -12.5 -12.15 -12.95 -12.1 -12.95 -12.05 -12.75 M-13.4 -10.9 Q-13.25 -11.15 -13.0 -11.15 -13.05 -11.05 -13.25 -10.85 L-13.4 -10.9 M-13.65 -10.7 L-13.7 -10.6 -13.85 -10.55 -14.1 -10.5 -14.2 -10.65 -13.8 -10.75 -13.6 -10.75 -13.65 -10.7 M-11.95 -11.55 L-12.1 -11.3 -12.4 -11.3 -11.9 -11.75 Q-11.9 -11.65 -11.95 -11.55 M-15.05 -10.9 Q-14.9 -11.05 -14.65 -10.85 L-14.6 -10.8 -14.75 -10.85 Q-14.9 -10.85 -15.0 -10.75 L-15.05 -10.65 -15.2 -10.7 -15.05 -10.9 M-14.5 -9.05 Q-14.5 -8.95 -14.6 -8.85 L-14.75 -8.75 -14.8 -8.7 -14.8 -8.85 Q-14.8 -9.1 -14.65 -9.35 -14.3 -9.3 -14.3 -9.25 L-14.6 -9.2 Q-14.5 -9.1 -14.5 -9.05 M-16.8 -9.8 L-16.7 -9.7 -16.75 -9.7 -16.95 -9.65 -16.95 -9.95 -16.85 -9.95 -16.8 -9.8 M-16.95 -10.4 L-16.95 -10.0 Q-17.05 -10.0 -17.05 -10.3 L-17.05 -10.35 Q-17.65 -10.3 -17.8 -10.15 -17.95 -10.2 -18.05 -10.35 L-17.65 -10.4 -16.95 -10.45 -16.95 -10.4 M-15.95 -9.6 L-16.05 -9.45 Q-16.15 -9.45 -16.25 -9.5 L-16.3 -9.6 -16.25 -9.65 -15.95 -9.6 M-12.05 -10.1 L-12.1 -9.95 -12.25 -10.0 -12.2 -10.15 -12.1 -10.25 Q-12.05 -10.35 -12.05 -10.1 M-11.9 -9.3 L-11.95 -9.05 Q-12.0 -8.9 -12.05 -8.8 L-12.15 -8.75 -12.15 -9.05 Q-12.1 -9.2 -11.9 -9.3 M-13.05 -8.6 L-13.1 -8.7 Q-13.1 -8.75 -12.95 -8.75 -12.8 -8.7 -12.8 -8.65 L-12.8 -8.55 -13.05 -8.55 -13.05 -8.6 M-12.2 -8.55 L-12.5 -8.55 Q-12.45 -8.65 -12.35 -8.65 L-12.15 -8.65 -12.2 -8.55 M-18.35 -10.5 Q-18.65 -10.65 -18.75 -10.85 L-18.65 -10.85 -18.35 -10.5 M-14.2 -0.05 L-14.2 0.0 -14.7 -0.05 -14.7 -0.1 -14.65 -0.15 Q-14.3 -0.1 -14.2 -0.05 M-5.1 -13.2 L-4.9 -12.85 -4.65 -12.6 Q-4.4 -12.4 -4.4 -12.25 -4.4 -12.05 -4.55 -12.0 L-4.85 -11.95 -4.5 -12.2 -4.9 -12.7 Q-5.15 -13.05 -5.3 -13.45 L-5.2 -13.45 -5.1 -13.2 M-5.6 -13.3 L-5.9 -13.3 -5.9 -13.45 -5.85 -13.45 -5.7 -13.4 -5.6 -13.3 M-5.0 -11.5 L-5.1 -11.5 Q-5.1 -11.6 -5.0 -11.75 L-5.0 -11.5 M-4.6 -10.85 L-4.45 -10.55 Q-4.3 -10.35 -4.3 -10.25 L-4.3 -10.05 -4.35 -10.0 -4.5 -10.0 -4.45 -10.05 Q-4.4 -10.1 -4.4 -10.25 -4.4 -10.3 -4.55 -10.45 -4.7 -10.65 -4.7 -10.75 L-5.0 -10.8 -5.0 -11.15 -4.9 -11.15 Q-4.9 -11.05 -4.9 -10.9 L-4.6 -10.85 M-4.2 -9.5 Q-4.2 -9.35 -4.25 -9.25 L-4.3 -9.15 -4.6 -9.15 -4.2 -9.6 Q-4.2 -9.75 -4.2 -9.5 M-4.7 -8.7 Q-4.7 -8.6 -4.85 -8.3 L-5.0 -8.0 Q-5.0 -7.85 -4.9 -7.8 L-4.8 -7.75 -4.8 -7.15 Q-5.0 -7.05 -5.05 -7.0 L-5.2 -7.05 Q-4.95 -7.15 -4.9 -7.3 -4.9 -7.35 -4.9 -7.5 -4.9 -7.6 -5.0 -7.75 -5.1 -7.85 -5.1 -8.0 -5.1 -8.1 -5.0 -8.35 -4.85 -8.65 -4.7 -8.7 M-6.3 -13.75 Q-6.2 -13.7 -6.1 -13.5 L-6.15 -13.4 -6.5 -13.75 -6.85 -13.7 -7.3 -13.7 -7.3 -13.85 -6.85 -13.9 -6.55 -13.9 -6.45 -13.85 -6.3 -13.75 M-9.6 -14.15 L-9.9 -14.15 Q-10.05 -14.15 -10.1 -14.05 -10.15 -13.95 -10.15 -13.9 -10.1 -14.25 -9.75 -14.25 -9.45 -14.15 -9.45 -14.1 L-9.6 -14.15 M-9.95 -13.1 L-10.15 -13.3 Q-10.25 -13.5 -10.25 -13.55 L-10.2 -13.55 -9.95 -13.2 -9.95 -13.1 M-10.3 -11.65 Q-10.05 -11.65 -10.0 -11.55 L-9.95 -11.5 Q-10.15 -11.5 -10.35 -11.6 L-10.3 -11.65 M-10.4 -11.9 L-10.45 -11.9 -10.5 -11.95 -10.9 -11.85 -11.05 -11.85 -11.0 -12.0 -10.9 -12.1 Q-10.5 -12.05 -10.4 -12.0 L-10.4 -11.9 M-10.9 -11.45 Q-10.9 -11.15 -11.05 -10.9 L-11.15 -10.9 Q-11.15 -11.15 -10.9 -11.45 M-9.45 -12.25 Q-9.45 -12.2 -9.45 -12.05 -9.45 -11.9 -9.5 -11.85 L-9.65 -11.7 -9.75 -11.7 -9.65 -11.9 Q-9.65 -12.0 -9.65 -12.25 L-9.45 -12.25 M-6.75 -7.6 L-6.5 -7.35 -6.6 -7.4 Q-6.7 -7.5 -6.8 -7.5 -7.15 -7.5 -7.4 -7.0 -7.4 -6.85 -7.35 -6.75 L-7.2 -6.55 -7.25 -6.5 Q-7.5 -6.7 -7.5 -7.0 -7.5 -7.2 -7.05 -7.65 L-6.75 -7.6 M-5.8 -7.2 Q-5.75 -7.05 -5.6 -6.9 L-5.6 -6.85 -5.85 -7.05 -5.9 -7.2 -6.15 -7.15 -6.3 -7.05 -6.25 -6.9 Q-6.2 -6.8 -6.2 -6.75 L-6.3 -6.75 Q-6.4 -6.9 -6.4 -7.2 -6.2 -7.25 -5.95 -7.4 -5.85 -7.3 -5.8 -7.2 M-6.45 -6.6 Q-6.4 -6.6 -6.4 -6.45 L-6.55 -6.2 Q-6.7 -5.95 -6.7 -5.85 -6.7 -5.75 -6.6 -5.65 -6.5 -5.55 -6.5 -5.4 -6.5 -5.3 -6.65 -5.0 L-6.8 -4.6 -6.8 -3.95 -6.9 -3.9 Q-6.9 -4.4 -6.75 -4.8 -6.6 -5.2 -6.6 -5.4 -6.6 -5.5 -6.7 -5.6 -6.8 -5.7 -6.8 -5.85 L-6.7 -6.2 -6.45 -6.6 M-7.45 -6.2 Q-7.5 -6.15 -7.5 -6.0 -7.5 -5.8 -7.25 -4.85 L-7.0 -3.95 -7.0 -3.75 -7.05 -3.7 -7.1 -3.7 Q-7.1 -3.85 -7.35 -4.75 -7.6 -5.7 -7.6 -6.0 L-7.6 -6.15 Q-7.55 -6.25 -7.35 -6.3 L-7.45 -6.2 M-7.05 -3.55 Q-7.05 -3.4 -7.05 -3.1 L-7.1 -2.65 -6.95 -2.4 Q-6.8 -2.15 -6.8 -2.05 L-6.85 -2.0 Q-7.05 -2.15 -7.15 -2.35 -7.2 -2.55 -7.2 -2.7 L-7.15 -3.15 Q-7.1 -3.45 -7.1 -3.55 L-7.05 -3.55 M-6.65 -2.65 Q-6.6 -2.6 -6.45 -2.45 L-6.3 -2.2 Q-6.2 -2.2 -6.05 -2.3 L-5.9 -2.45 -5.5 -2.45 Q-5.45 -2.35 -5.4 -2.2 L-5.35 -2.05 -5.25 -2.05 Q-5.05 -2.0 -4.8 -1.65 L-4.8 -1.6 -5.25 -2.0 -5.5 -1.95 -5.85 -1.85 -6.1 -1.9 -6.1 -2.05 -5.4 -2.05 -5.6 -2.15 Q-5.6 -2.2 -5.6 -2.35 L-5.9 -2.3 Q-5.9 -2.2 -6.05 -2.1 L-6.4 -2.1 -6.7 -2.6 -6.65 -2.65 M-5.2 -6.6 Q-5.2 -6.5 -5.2 -6.2 L-5.35 -6.15 Q-5.6 -6.15 -5.4 -6.2 L-5.6 -6.25 -5.4 -6.45 -5.2 -6.6 M-4.45 -1.45 L-4.2 -1.4 -4.25 -1.35 -4.7 -1.4 Q-4.7 -1.45 -4.65 -1.45 L-4.45 -1.45 M-3.25 -1.15 Q-3.2 -1.15 -2.9 -0.95 -2.6 -0.75 -2.3 -0.85 -2.35 -1.25 -2.45 -1.45 -2.75 -1.5 -2.75 -1.55 -3.0 -1.55 -3.25 -1.4 -3.55 -1.2 -3.7 -1.2 L-3.75 -1.2 -4.0 -1.3 -4.0 -1.45 -3.9 -1.4 -3.7 -1.35 Q-3.55 -1.35 -3.4 -1.45 L-3.1 -1.65 -2.7 -1.6 -2.4 -1.55 -2.05 -1.0 -2.05 -0.85 -2.0 -0.8 Q-1.65 -0.55 -1.45 -0.15 L-1.35 0.1 Q-1.25 0.3 -1.25 0.45 -1.25 0.7 -1.4 0.9 -1.5 1.1 -1.8 1.25 L-2.25 1.85 Q-2.5 2.25 -2.6 2.35 -2.65 2.5 -2.65 2.25 -2.65 2.0 -2.5 1.75 L-2.15 1.3 Q-2.1 1.25 -1.95 1.2 -1.85 1.1 -1.85 0.95 L-1.8 0.65 Q-1.75 0.8 -1.75 0.9 L-1.75 1.1 -1.55 0.85 Q-1.35 0.6 -1.35 0.45 -1.35 0.25 -1.4 0.05 -1.5 -0.25 -1.65 -0.4 L-1.9 -0.6 -2.05 -0.7 -2.05 0.0 -2.1 0.0 Q-2.2 -0.2 -2.25 -0.6 -2.3 -0.55 -2.4 -0.55 -2.65 -0.55 -2.95 -0.8 -3.2 -1.0 -3.25 -1.1 L-3.25 -1.15 M-2.0 0.05 L-1.95 0.3 -1.95 0.35 -2.0 0.4 Q-2.05 0.3 -2.05 0.05 L-2.0 0.05 M-1.95 0.5 L-1.95 0.5 M-2.9 2.7 L-2.95 2.8 -3.05 2.85 -3.05 2.6 -2.95 2.6 -2.85 2.65 -2.9 2.7 M-2.9 3.2 L-2.85 3.35 -3.0 3.6 -3.2 3.95 -3.45 3.95 Q-3.35 3.85 -3.15 3.5 L-2.9 3.2 M-3.9 4.2 Q-3.7 3.95 -3.5 3.9 -3.55 4.1 -3.65 4.3 -3.75 4.45 -4.0 4.65 L-4.2 4.65 -3.9 4.2 M-5.3 4.75 Q-5.25 4.7 -5.15 4.8 L-5.1 4.85 Q-5.1 4.9 -5.1 4.95 L-5.2 4.95 Q-5.3 4.85 -5.3 4.75 M-4.95 4.95 L-4.95 4.9 -4.7 4.95 -4.5 5.0 -4.55 5.05 -4.6 5.15 -4.75 5.1 Q-4.9 5.0 -5.0 4.95 L-4.95 4.95 M-7.65 1.6 Q-7.55 1.6 -7.5 1.65 L-7.8 1.65 -7.8 1.6 -7.75 1.55 -7.65 1.6 M-7.4 1.6 L-7.35 1.55 Q-7.25 1.55 -7.1 1.65 L-6.75 1.8 -6.7 1.9 -6.7 2.1 Q-6.7 2.25 -6.8 2.45 -6.9 2.7 -6.9 2.8 -6.9 2.9 -6.75 3.1 L-6.5 3.35 Q-6.9 3.4 -7.0 3.15 -7.0 3.1 -7.0 2.8 L-6.9 2.4 Q-6.8 2.05 -6.8 1.9 -7.1 1.9 -7.2 1.75 -7.25 1.65 -7.4 1.65 L-7.4 1.6 M-9.15 0.9 Q-8.9 1.0 -8.75 1.25 L-8.75 1.3 -9.15 1.15 Q-9.5 0.95 -9.75 0.95 -9.5 0.75 -9.15 0.9 M-11.4 1.25 L-11.45 1.3 -11.55 1.25 -11.85 1.2 -11.85 1.1 Q-11.85 0.85 -11.8 1.05 L-11.6 1.1 Q-11.4 1.15 -11.35 1.2 L-11.4 1.25 M-10.95 1.05 Q-10.9 1.05 -10.8 1.1 L-10.6 1.15 -10.4 1.05 -10.2 0.85 Q-10.35 1.3 -10.55 1.3 -10.75 1.3 -10.8 1.25 L-10.9 1.15 -10.95 1.05 M-6.45 3.65 L-5.95 4.3 -5.95 4.35 Q-6.25 4.2 -6.35 4.0 L-6.5 3.7 Q-6.45 3.7 -6.45 3.65 M-12.4 0.95 Q-12.2 0.6 -11.95 0.95 L-12.05 1.0 -12.05 0.95 -12.4 1.0 Q-12.4 1.1 -12.45 1.2 -12.55 1.4 -12.7 1.4 L-12.4 0.95 M-13.3 1.3 L-13.4 1.3 -13.45 1.1 -13.5 0.85 -13.4 0.85 Q-13.3 1.1 -13.3 1.3 M-14.15 1.85 L-14.05 1.9 Q-13.9 1.9 -13.9 1.95 L-14.2 1.95 -14.15 1.9 -14.15 1.85 M-14.9 0.3 L-14.95 0.35 -15.2 0.3 Q-15.2 0.25 -15.15 0.25 -14.95 0.25 -14.9 0.3 M-16.1 0.35 L-15.85 0.4 Q-15.95 0.55 -16.1 0.5 L-16.1 0.4 -16.15 0.4 -16.3 0.35 Q-16.4 0.35 -16.55 0.55 L-16.75 0.85 -17.05 0.8 -16.65 0.45 -16.35 0.15 -16.1 0.4 -16.1 0.35 M-15.95 3.0 L-15.95 3.05 Q-15.9 3.1 -15.9 3.2 -15.9 3.35 -16.15 3.55 L-16.45 3.8 -16.7 3.75 Q-16.25 3.5 -16.15 3.35 -16.1 3.3 -16.15 3.15 -16.15 3.05 -15.95 3.0 M-15.1 2.3 L-15.0 2.35 -15.2 2.35 Q-15.35 2.4 -15.35 2.45 L-15.5 2.45 Q-15.4 2.2 -15.25 2.2 L-15.1 2.3 M-15.15 4.3 L-15.05 4.3 -15.05 4.35 -15.15 4.45 -15.4 4.4 -15.5 4.3 -15.9 4.35 Q-16.3 4.75 -16.35 4.85 L-16.4 4.85 -16.2 4.5 -15.95 4.2 -15.4 4.3 -15.15 4.3 M-16.85 5.85 Q-17.0 5.9 -17.25 6.1 -17.2 5.8 -16.95 5.7 L-16.85 5.85 M-14.6 3.85 Q-14.6 3.6 -14.3 3.6 -14.45 3.85 -14.6 3.85 M-17.9 1.15 Q-18.0 1.15 -18.15 1.05 -18.25 0.95 -18.4 0.95 -18.5 0.95 -18.55 1.05 -18.65 1.2 -18.75 1.2 -18.65 0.8 -18.5 0.8 -18.35 0.75 -17.85 1.1 L-17.9 1.15 M-20.1 2.35 L-19.95 2.4 -19.75 2.45 -20.05 2.5 -20.05 2.75 -20.0 3.05 Q-20.0 3.2 -20.05 3.25 L-20.15 3.4 -20.25 3.45 Q-20.2 3.25 -20.2 2.85 L-20.1 2.35 M-20.95 5.25 L-20.85 5.15 -20.7 5.1 Q-20.75 5.25 -20.95 5.25 M-21.15 6.15 Q-21.15 6.25 -21.0 6.35 L-20.95 6.45 Q-21.15 6.3 -21.25 6.25 L-21.3 6.25 Q-21.3 5.85 -21.0 5.5 L-21.1 5.85 -21.15 6.15 M-20.85 6.5 L-20.75 6.55 -20.8 6.6 -20.85 6.5 M-17.8 3.75 L-17.75 3.85 -17.35 3.95 -17.4 4.0 -17.85 3.95 Q-17.85 3.9 -17.85 3.85 -17.9 3.8 -18.05 3.75 L-18.0 3.7 -18.0 3.65 Q-17.85 3.7 -17.8 3.75 M-18.75 4.0 Q-18.85 4.15 -18.85 4.35 L-18.95 4.7 Q-19.05 4.9 -18.85 5.0 -18.95 5.15 -19.05 5.15 -19.1 5.15 -19.15 5.15 -19.15 5.1 -19.15 4.95 -19.15 4.8 -19.05 4.35 -18.85 3.75 -18.6 3.55 L-18.25 3.6 Q-18.25 3.65 -18.25 3.85 -18.35 3.85 -18.35 3.7 -18.6 3.8 -18.75 4.0 M-19.25 6.25 Q-19.2 6.1 -19.1 6.05 L-19.2 6.25 Q-19.25 6.35 -19.25 6.5 -19.25 6.65 -19.15 6.75 L-19.05 6.85 -19.15 6.9 -19.3 6.8 Q-19.35 6.7 -19.35 6.55 -19.35 6.4 -19.25 6.25 M-18.95 6.85 L-18.95 7.0 Q-18.95 7.15 -19.0 7.2 L-19.15 7.35 -19.25 7.4 -19.1 7.05 -18.95 6.85 M-17.75 7.3 L-17.6 6.85 Q-17.5 6.5 -17.35 6.45 -17.4 6.55 -17.4 6.85 -17.4 7.1 -17.65 7.25 L-17.75 7.3 M-18.25 8.0 Q-18.65 8.2 -18.7 8.35 L-18.85 8.3 Q-18.8 8.0 -18.4 7.8 -17.95 7.6 -17.85 7.55 -17.9 7.8 -18.25 8.0 M-19.55 8.05 L-19.5 8.05 Q-19.45 8.1 -19.45 8.35 -19.45 8.5 -19.5 8.6 L-19.6 8.8 -19.65 8.8 -19.6 8.45 Q-19.55 8.15 -19.55 8.05" fill="#ffffff" fill-rule="evenodd" stroke="none"/>
  </g>
</svg>
