<?xml version="1.0" encoding="UTF-8" standalone="no"?>
<svg xmlns:ffdec="https://www.free-decompiler.com/flash" xmlns:xlink="http://www.w3.org/1999/xlink" ffdec:objectType="shape" height="13.85px" width="27.05px" xmlns="http://www.w3.org/2000/svg">
  <g transform="matrix(1.0, 0.0, 0.0, 1.0, 12.75, 12.95)">
    <path d="M5.15 -10.8 L5.15 -10.75 4.5 -10.5 3.9 -10.15 Q3.5 -9.95 3.25 -9.85 L3.1 -9.85 Q3.05 -9.9 3.05 -9.95 3.0 -10.0 3.05 -10.05 L3.1 -10.15 Q3.45 -10.3 4.3 -10.85 5.15 -11.3 5.45 -11.35 L5.6 -11.35 5.65 -11.25 Q5.65 -11.15 5.6 -11.1 5.55 -10.95 5.15 -10.8 M0.45 -8.85 Q0.55 -8.75 0.55 -8.6 L0.55 -8.5 0.5 -8.5 0.4 -8.4 Q0.3 -8.4 0.2 -8.5 0.15 -8.55 0.15 -8.65 L0.2 -8.75 0.2 -8.8 0.25 -8.9 0.35 -8.9 0.45 -8.85 M14.2 -12.85 Q14.3 -12.7 14.3 -12.6 L14.25 -12.4 14.2 -12.35 14.1 -12.3 14.05 -12.3 Q14.0 -12.3 13.95 -12.35 13.9 -12.4 13.9 -12.45 L13.9 -12.55 13.85 -12.7 13.85 -12.75 13.9 -12.8 Q13.9 -12.9 13.95 -12.9 L14.1 -12.9 14.15 -12.85 14.2 -12.85 M3.6 0.8 L3.5 0.9 3.45 0.9 Q3.25 0.9 3.25 0.85 L3.2 0.75 Q3.15 0.65 3.25 0.55 L3.35 0.5 3.45 0.5 Q3.6 0.55 3.6 0.6 L3.6 0.65 3.65 0.7 3.6 0.8 M-12.3 -4.55 L-12.1 -4.25 -12.1 -4.15 Q-12.1 -4.1 -12.15 -4.1 L-12.15 -4.05 Q-12.2 -4.0 -12.25 -4.0 L-12.35 -4.0 Q-12.55 -4.1 -12.65 -4.25 -12.75 -4.45 -12.75 -4.6 -12.8 -4.7 -12.65 -4.85 L-12.45 -4.85 -12.3 -4.55 M-10.55 -8.05 L-10.65 -8.15 Q-10.7 -8.2 -10.65 -8.25 L-10.6 -8.35 Q-10.4 -8.5 -9.5 -9.2 L-8.45 -10.0 -8.3 -10.0 -8.25 -9.95 Q-8.2 -9.9 -8.2 -9.85 -8.2 -9.75 -8.25 -9.75 -8.7 -9.25 -9.45 -8.7 -10.2 -8.15 -10.45 -8.05 -10.5 -8.05 -10.55 -8.05 M-2.85 -0.4 Q-2.7 -0.45 -2.45 -0.5 L-2.25 -0.5 -1.9 -0.55 -1.55 -0.55 -1.45 -0.45 Q-1.45 -0.4 -1.45 -0.35 -1.5 -0.3 -1.5 -0.25 -1.6 -0.15 -2.0 -0.1 L-2.45 -0.05 -2.65 -0.05 -2.8 -0.1 Q-2.85 -0.1 -2.85 -0.15 L-2.9 -0.25 -2.9 -0.35 -2.85 -0.4 M-2.25 0.25 Q-2.2 0.3 -2.4 0.6 L-2.55 0.85 -2.6 0.9 -2.7 0.9 Q-2.9 0.9 -2.9 0.75 L-2.85 0.65 -2.55 0.1 -2.45 0.0 Q-2.4 0.0 -2.35 0.0 L-2.3 0.05 -2.3 0.1 Q-2.25 0.1 -2.25 0.25" fill="#e1ffd2" fill-opacity="0.2" fill-rule="evenodd" stroke="none"/>
    <path d="M6.8 -11.6 L6.55 -11.5 6.6 -11.5 6.3 -11.4 6.25 -11.4 6.05 -11.25 5.0 -10.75 4.9 -10.75 4.8 -10.8 Q4.75 -10.9 4.8 -10.95 4.8 -11.0 4.85 -11.05 5.0 -11.15 5.3 -11.35 L5.85 -11.65 5.9 -11.65 6.5 -11.95 Q6.95 -12.15 7.3 -12.3 L7.45 -12.3 7.5 -12.25 7.55 -12.15 7.55 -12.1 7.5 -12.05 Q7.4 -11.9 6.8 -11.6 M0.95 -0.5 L0.9 -0.45 0.2 -0.3 -0.85 -0.2 -0.95 -0.25 -1.0 -0.35 -1.0 -0.45 -0.9 -0.5 -0.05 -0.7 0.7 -0.75 0.8 -0.8 0.85 -0.8 Q1.05 -0.75 1.0 -0.65 L1.0 -0.55 0.95 -0.5 M4.2 0.4 L4.15 0.4 4.1 0.5 4.15 0.5 3.9 0.65 3.7 0.8 3.6 0.8 Q3.45 0.8 3.4 0.7 L3.4 0.6 Q3.4 0.55 3.45 0.5 L3.5 0.45 3.7 0.3 Q4.0 0.15 4.05 0.2 L4.15 0.3 4.2 0.4 M-12.45 -4.5 Q-12.4 -4.5 -12.35 -4.45 L-12.0 -4.2 -11.6 -3.85 Q-11.6 -3.8 -11.6 -3.75 L-11.6 -3.65 -11.7 -3.55 -11.75 -3.55 Q-12.05 -3.65 -12.3 -3.9 -12.55 -4.1 -12.6 -4.3 -12.6 -4.35 -12.55 -4.4 L-12.45 -4.5 M-6.55 -11.05 Q-6.9 -10.7 -7.65 -10.1 L-9.1 -9.05 -9.05 -9.05 Q-9.15 -9.0 -9.2 -9.05 L-9.25 -9.05 Q-9.3 -9.05 -9.3 -9.1 L-9.35 -9.1 -9.35 -9.2 -9.3 -9.35 -8.0 -10.4 Q-7.3 -11.0 -6.7 -11.35 L-6.6 -11.35 -6.5 -11.3 Q-6.45 -11.25 -6.5 -11.15 -6.5 -11.1 -6.55 -11.05 M-8.35 -0.35 L-8.1 -0.35 -8.0 -0.25 -8.0 -0.15 Q-8.0 -0.1 -8.05 -0.05 L-8.1 0.0 -8.3 0.0 -8.35 -0.1 -8.4 -0.15 -8.4 -0.25 -8.35 -0.35 M-2.35 -0.4 L-2.1 -0.8 -2.1 -0.85 -2.05 -0.85 -1.95 -0.9 -1.95 -0.85 Q-1.85 -0.9 -1.85 -0.8 L-1.8 -0.65 Q-1.8 -0.6 -1.95 -0.25 L-2.2 0.2 -2.3 0.25 -2.4 0.2 -2.45 0.2 -2.5 0.1 -2.5 0.0 -2.35 -0.4" fill="#f3ffee" fill-opacity="0.5019608" fill-rule="evenodd" stroke="none"/>
    <path d="M9.05 -12.85 L9.1 -12.85 9.1 -12.75 9.05 -12.65 Q8.9 -12.5 8.5 -12.4 L7.9 -12.15 7.35 -11.9 Q6.95 -11.7 6.75 -11.65 6.7 -11.65 6.65 -11.7 6.6 -11.75 6.55 -11.8 L6.65 -12.0 Q6.95 -12.1 7.75 -12.5 L7.8 -12.55 Q8.6 -12.95 8.9 -12.95 L9.0 -12.9 9.05 -12.85 M1.15 -0.5 L1.05 -0.55 Q1.05 -0.6 1.05 -0.7 1.05 -0.75 1.1 -0.8 1.15 -0.85 1.95 -1.05 L2.7 -1.25 2.85 -1.25 2.9 -1.15 Q2.9 -1.1 2.9 -1.05 L2.85 -0.95 2.8 -0.95 Q2.65 -0.85 2.15 -0.7 L1.3 -0.5 1.15 -0.5 M5.05 -0.35 L5.1 -0.25 5.1 -0.15 5.05 -0.1 4.35 0.4 4.25 0.4 4.2 0.35 4.15 0.25 Q4.1 0.2 4.15 0.2 L4.15 0.15 4.2 0.1 4.5 -0.15 4.85 -0.4 4.95 -0.4 5.05 -0.35 M-12.2 -3.9 L-12.25 -4.0 -12.2 -4.1 -12.1 -4.15 -12.0 -4.15 Q-11.75 -3.95 -11.45 -3.8 L-10.9 -3.5 -10.85 -3.45 -10.85 -3.3 -10.9 -3.25 Q-10.9 -3.2 -11.05 -3.2 -11.25 -3.15 -11.75 -3.5 -12.15 -3.75 -12.2 -3.9 M-4.45 -12.4 L-6.0 -11.4 -7.4 -10.45 -7.5 -10.4 Q-7.6 -10.45 -7.6 -10.5 L-7.65 -10.6 -7.6 -10.7 Q-7.0 -11.3 -5.9 -12.0 -4.85 -12.7 -4.55 -12.7 L-4.45 -12.7 Q-4.45 -12.65 -4.4 -12.6 L-4.4 -12.5 Q-4.45 -12.45 -4.45 -12.4 M-8.3 -0.3 Q-8.25 -0.35 -8.2 -0.35 L-8.0 -0.35 Q-7.9 -0.3 -7.9 -0.2 L-7.85 -0.1 -8.0 0.05 -8.2 0.05 Q-8.25 0.05 -8.3 -0.05 L-8.35 -0.2 -8.3 -0.3 M-1.5 -1.6 L-1.5 -1.45 -1.6 -1.1 Q-1.7 -0.85 -1.75 -0.8 L-1.8 -0.75 Q-1.85 -0.7 -1.9 -0.7 -2.0 -0.7 -2.0 -0.75 -2.05 -0.8 -2.05 -0.9 -2.05 -1.0 -1.95 -1.3 -1.85 -1.5 -1.85 -1.6 L-1.8 -1.7 -1.7 -1.75 -1.65 -1.75 -1.55 -1.7 -1.5 -1.6" fill="#f4ffee" fill-opacity="0.8" fill-rule="evenodd" stroke="none"/>
  </g>
</svg>
