<?xml version="1.0" encoding="UTF-8" standalone="no"?>
<svg xmlns:ffdec="https://www.free-decompiler.com/flash" xmlns:xlink="http://www.w3.org/1999/xlink" ffdec:objectType="shape" height="17.3px" width="23.2px" xmlns="http://www.w3.org/2000/svg">
  <g transform="matrix(1.0, 0.0, 0.0, 1.0, 12.6, 16.45)">
    <path d="M6.8 -11.6 L6.55 -11.5 6.6 -11.5 6.3 -11.4 6.25 -11.4 6.05 -11.25 5.0 -10.75 4.9 -10.75 4.8 -10.8 Q4.75 -10.9 4.8 -10.95 4.8 -11.0 4.85 -11.05 5.0 -11.15 5.3 -11.35 L5.85 -11.65 5.9 -11.65 6.5 -11.95 Q6.95 -12.15 7.3 -12.3 L7.45 -12.3 7.5 -12.25 7.55 -12.15 7.55 -12.1 7.5 -12.05 Q7.4 -11.9 6.8 -11.6 M0.95 -0.5 L0.9 -0.45 0.2 -0.3 -0.85 -0.2 -0.95 -0.25 -1.0 -0.35 -1.0 -0.45 -0.9 -0.5 -0.05 -0.7 0.7 -0.75 0.8 -0.8 0.85 -0.8 Q1.05 -0.75 1.0 -0.65 L1.0 -0.55 0.95 -0.5 M4.15 0.3 L4.2 0.4 4.15 0.4 4.1 0.5 4.15 0.5 3.9 0.65 3.7 0.8 3.6 0.8 Q3.45 0.8 3.4 0.7 L3.4 0.6 Q3.4 0.55 3.45 0.5 L3.5 0.45 3.7 0.3 Q4.0 0.15 4.05 0.2 L4.15 0.3 M-12.45 -4.5 Q-12.4 -4.5 -12.35 -4.45 L-12.0 -4.2 -11.6 -3.85 Q-11.6 -3.8 -11.6 -3.75 L-11.6 -3.65 -11.7 -3.55 -11.75 -3.55 Q-12.05 -3.65 -12.3 -3.9 -12.55 -4.1 -12.6 -4.3 -12.6 -4.35 -12.55 -4.4 L-12.45 -4.5 M-6.6 -11.35 L-6.5 -11.3 Q-6.45 -11.25 -6.5 -11.15 -6.5 -11.1 -6.55 -11.05 -6.9 -10.7 -7.65 -10.1 L-9.1 -9.05 -9.05 -9.05 Q-9.15 -9.0 -9.2 -9.05 L-9.25 -9.05 Q-9.3 -9.05 -9.3 -9.1 L-9.35 -9.1 -9.35 -9.2 -9.3 -9.35 -8.0 -10.4 Q-7.3 -11.0 -6.7 -11.35 L-6.6 -11.35 M-8.35 -0.35 L-8.1 -0.35 -8.0 -0.25 -8.0 -0.15 Q-8.0 -0.1 -8.05 -0.05 L-8.1 0.0 -8.3 0.0 -8.35 -0.1 -8.4 -0.15 -8.4 -0.25 -8.35 -0.35 M-2.35 -0.4 L-2.1 -0.8 -2.1 -0.85 -2.05 -0.85 -1.95 -0.9 -1.95 -0.85 Q-1.85 -0.9 -1.85 -0.8 L-1.8 -0.65 Q-1.8 -0.6 -1.95 -0.25 L-2.2 0.2 -2.3 0.25 -2.4 0.2 -2.45 0.2 -2.5 0.1 -2.5 0.0 -2.35 -0.4" fill="#e1ffd2" fill-opacity="0.2" fill-rule="evenodd" stroke="none"/>
    <path d="M9.05 -12.85 L9.1 -12.85 9.1 -12.75 9.05 -12.65 Q8.9 -12.5 8.5 -12.4 L7.9 -12.15 7.35 -11.9 Q6.95 -11.7 6.75 -11.65 6.7 -11.65 6.65 -11.7 6.6 -11.75 6.55 -11.8 L6.65 -12.0 Q6.95 -12.1 7.75 -12.5 L7.8 -12.55 Q8.6 -12.95 8.9 -12.95 L9.0 -12.9 9.05 -12.85 M1.15 -0.5 L1.05 -0.55 Q1.05 -0.6 1.05 -0.7 1.05 -0.75 1.1 -0.8 1.15 -0.85 1.95 -1.05 L2.7 -1.25 2.85 -1.25 2.9 -1.15 Q2.9 -1.1 2.9 -1.05 L2.85 -0.95 2.8 -0.95 Q2.65 -0.85 2.15 -0.7 L1.3 -0.5 1.15 -0.5 M5.05 -0.35 L5.1 -0.25 5.1 -0.15 5.05 -0.1 4.35 0.4 4.25 0.4 4.2 0.35 4.15 0.25 Q4.1 0.2 4.15 0.2 L4.15 0.15 4.2 0.1 4.5 -0.15 4.85 -0.4 4.95 -0.4 5.05 -0.35 M-12.2 -3.9 L-12.25 -4.0 -12.2 -4.1 -12.1 -4.15 -12.0 -4.15 Q-11.75 -3.95 -11.45 -3.8 L-10.9 -3.5 -10.85 -3.45 -10.85 -3.3 -10.9 -3.25 Q-10.9 -3.2 -11.05 -3.2 -11.25 -3.15 -11.75 -3.5 -12.15 -3.75 -12.2 -3.9 M-4.45 -12.4 L-6.0 -11.4 -7.4 -10.45 -7.5 -10.4 Q-7.6 -10.45 -7.6 -10.5 L-7.65 -10.6 -7.6 -10.7 Q-7.0 -11.3 -5.9 -12.0 -4.85 -12.7 -4.55 -12.7 L-4.45 -12.7 Q-4.45 -12.65 -4.4 -12.6 L-4.4 -12.5 Q-4.45 -12.45 -4.45 -12.4 M-8.3 -0.3 Q-8.25 -0.35 -8.2 -0.35 L-8.0 -0.35 Q-7.9 -0.3 -7.9 -0.2 L-7.85 -0.1 -8.0 0.05 -8.2 0.05 Q-8.25 0.05 -8.3 -0.05 L-8.35 -0.2 -8.3 -0.3 M-1.5 -1.6 L-1.5 -1.45 -1.6 -1.1 Q-1.7 -0.85 -1.75 -0.8 L-1.8 -0.75 Q-1.85 -0.7 -1.9 -0.7 -2.0 -0.7 -2.0 -0.75 -2.05 -0.8 -2.05 -0.9 -2.05 -1.0 -1.95 -1.3 -1.85 -1.5 -1.85 -1.6 L-1.8 -1.7 -1.7 -1.75 -1.65 -1.75 -1.55 -1.7 -1.5 -1.6" fill="#f3ffee" fill-opacity="0.5019608" fill-rule="evenodd" stroke="none"/>
    <path d="M10.5 -13.4 L10.55 -13.3 10.55 -13.2 Q10.55 -13.05 10.0 -12.95 L9.45 -12.8 8.9 -12.6 8.45 -12.4 8.35 -12.4 Q8.3 -12.45 8.25 -12.5 L8.25 -12.6 8.3 -12.7 Q8.5 -12.9 9.2 -13.15 9.9 -13.4 10.4 -13.45 L10.5 -13.4 M4.8 -1.8 L4.85 -1.7 4.85 -1.6 4.8 -1.5 Q4.7 -1.45 4.1 -1.25 L3.55 -1.1 3.4 -1.1 3.3 -1.15 Q3.25 -1.2 3.25 -1.25 L3.3 -1.35 Q3.35 -1.4 3.4 -1.45 L4.0 -1.6 4.7 -1.8 4.8 -1.8 M5.05 -0.2 L5.0 -0.3 Q4.95 -0.35 4.95 -0.4 L5.0 -0.5 5.4 -0.8 5.4 -0.85 5.85 -1.2 5.95 -1.25 Q6.05 -1.2 6.05 -1.15 L6.1 -1.05 6.05 -0.95 5.65 -0.55 Q5.4 -0.25 5.15 -0.2 5.1 -0.2 5.05 -0.2 M-9.65 -16.15 Q-9.4 -16.4 -9.3 -16.45 L-9.25 -16.4 -9.15 -16.35 -9.15 -16.25 Q-9.15 -16.2 -9.15 -16.15 L-9.2 -16.05 -9.25 -16.05 Q-9.3 -15.9 -9.45 -15.85 L-9.5 -15.8 -9.55 -15.8 Q-9.6 -15.8 -9.65 -15.9 L-9.7 -16.05 -9.65 -16.15 M-2.6 -13.8 L-2.5 -13.8 Q-2.45 -13.75 -2.45 -13.7 -2.4 -13.65 -2.45 -13.55 L-2.5 -13.5 Q-3.1 -13.1 -3.8 -12.75 L-5.25 -11.95 -5.35 -11.95 Q-5.4 -11.95 -5.45 -12.0 L-5.5 -12.1 -5.45 -12.2 Q-5.35 -12.35 -4.8 -12.65 L-4.8 -12.7 Q-4.4 -12.95 -4.05 -13.15 L-3.35 -13.5 Q-3.0 -13.75 -2.6 -13.8 M-10.8 -11.85 L-10.8 -11.65 -10.85 -11.6 Q-10.9 -11.55 -10.95 -11.55 L-11.05 -11.55 -11.15 -11.6 Q-11.15 -11.65 -11.15 -11.75 L-11.15 -11.9 -11.05 -11.95 -10.9 -11.95 -10.8 -11.85 M-11.15 -3.65 Q-11.1 -3.55 -10.5 -3.4 -9.7 -3.2 -9.6 -3.1 -9.55 -3.1 -9.55 -3.05 L-9.55 -2.95 Q-9.5 -2.8 -9.75 -2.8 -10.05 -2.8 -10.8 -3.05 L-11.15 -3.2 Q-11.4 -3.3 -11.45 -3.45 L-11.5 -3.5 -11.45 -3.6 Q-11.4 -3.75 -11.3 -3.7 L-11.2 -3.7 -11.15 -3.65 M-7.85 -0.25 L-7.8 -0.3 -7.7 -0.35 -7.35 -0.35 -7.15 -0.25 Q-7.15 -0.2 -7.15 -0.1 -7.2 -0.05 -7.25 -0.05 -7.4 0.1 -7.5 0.1 -7.75 0.1 -7.8 0.0 -7.85 -0.1 -7.85 -0.15 L-7.85 -0.25 M-1.45 -2.3 L-1.45 -2.3 M-1.55 -2.4 L-1.55 -2.4 M-1.55 -1.6 L-1.55 -1.6 M-1.65 -1.55 L-1.65 -1.55 M-1.75 -1.65 L-1.75 -1.65" fill="#f4ffee" fill-opacity="0.8" fill-rule="evenodd" stroke="none"/>
  </g>
</svg>
