<?xml version="1.0" encoding="UTF-8" standalone="no"?>
<svg xmlns:ffdec="https://www.free-decompiler.com/flash" xmlns:xlink="http://www.w3.org/1999/xlink" ffdec:objectType="shape" height="18.9px" width="40.15px" xmlns="http://www.w3.org/2000/svg">
  <g transform="matrix(1.0, 0.0, 0.0, 1.0, 20.95, 7.1)">
    <path d="M0.25 -0.15 L0.2 -0.15 Q-0.05 -0.45 -0.4 -0.9 L-0.4 -1.0 -0.35 -1.05 -0.3 -1.05 Q-0.25 -1.05 -0.25 -1.0 0.25 -0.5 0.35 -0.25 L0.4 -0.2 0.35 -0.15 0.25 -0.15 M18.65 -6.55 Q18.85 -6.95 19.0 -7.1 L19.15 -7.1 19.15 -7.05 Q19.2 -7.05 19.2 -6.95 19.2 -6.65 18.45 -5.7 L17.55 -4.65 17.35 -4.65 17.35 -4.75 Q17.8 -5.25 18.3 -5.95 L18.65 -6.55 M2.4 6.6 L2.45 6.65 2.35 6.8 2.2 6.95 2.2 7.0 Q2.1 7.0 2.1 6.95 2.05 6.9 2.05 6.85 2.05 6.75 2.15 6.65 2.25 6.6 2.3 6.55 2.35 6.55 2.4 6.55 L2.4 6.6 M-20.85 -1.65 L-20.6 -1.5 Q-20.4 -1.35 -20.25 -1.3 L-20.2 -1.25 -20.2 -1.2 -20.3 -1.1 -20.4 -1.1 Q-20.7 -1.1 -20.85 -1.2 L-20.95 -1.35 -20.95 -1.6 -20.9 -1.65 -20.85 -1.65 M-3.45 -3.55 L-3.4 -3.55 -3.15 -3.5 -3.1 -3.5 -3.1 -3.4 -3.15 -3.35 -3.4 -3.3 -3.5 -3.3 Q-3.6 -3.35 -3.6 -3.4 L-3.6 -3.45 -3.55 -3.45 -3.45 -3.55 M-4.75 -0.75 L-1.0 -2.7 -0.9 -2.7 -0.9 -2.55 Q-1.45 -2.2 -2.95 -1.4 -4.5 -0.6 -4.65 -0.6 L-4.7 -0.6 Q-4.75 -0.6 -4.8 -0.65 -4.85 -0.7 -4.75 -0.75 M-7.25 11.6 Q-7.2 11.65 -7.25 11.65 L-7.25 11.8 -7.4 11.8 Q-7.55 11.8 -7.6 11.75 L-7.6 11.65 Q-7.6 11.6 -7.45 11.6 L-7.3 11.55 -7.25 11.6 M-15.3 7.7 L-15.25 7.7 Q-14.6 7.9 -13.9 8.15 L-13.9 8.2 -13.85 8.2 -13.9 8.25 -13.9 8.3 -14.1 8.3 Q-14.5 8.25 -14.8 8.15 L-15.3 7.85 -15.35 7.8 -15.35 7.75 -15.3 7.7" fill="#0094ff" fill-opacity="0.2509804" fill-rule="evenodd" stroke="none"/>
    <path d="M0.25 -0.2 Q0.0 -0.5 -0.35 -0.95 L-0.3 -0.95 Q0.2 -0.45 0.3 -0.25 L0.25 -0.2 M17.5 -4.7 L17.45 -4.7 Q17.85 -5.2 18.35 -5.9 L18.7 -6.5 Q18.9 -6.85 19.05 -7.05 L19.1 -7.0 19.1 -6.95 Q19.1 -6.65 18.4 -5.75 L17.5 -4.7 M-20.35 -1.15 L-20.4 -1.15 Q-20.65 -1.15 -20.8 -1.25 L-20.9 -1.4 -20.85 -1.55 -20.65 -1.4 Q-20.4 -1.25 -20.3 -1.2 L-20.35 -1.15 M-4.7 -0.7 L-0.95 -2.65 Q-1.5 -2.3 -2.95 -1.5 -4.5 -0.65 -4.65 -0.65 -4.75 -0.65 -4.7 -0.7 M-3.2 -3.45 L-3.45 -3.35 -3.45 -3.4 -3.5 -3.4 -3.4 -3.45 -3.2 -3.45 M-7.3 11.7 L-7.4 11.75 Q-7.5 11.75 -7.5 11.7 -7.5 11.65 -7.4 11.65 L-7.3 11.65 -7.3 11.7 M-13.95 8.25 L-14.1 8.25 Q-14.5 8.15 -14.75 8.05 L-15.3 7.8 -15.3 7.75 Q-14.6 8.0 -13.95 8.2 L-13.95 8.25 M2.3 6.75 L2.15 6.9 Q2.15 6.95 2.15 6.85 2.15 6.8 2.2 6.7 2.3 6.65 2.35 6.65 L2.3 6.75" fill="#ffffff" fill-rule="evenodd" stroke="none"/>
  </g>
</svg>
