<?xml version="1.0" encoding="UTF-8" standalone="no"?>
<svg xmlns:ffdec="https://www.free-decompiler.com/flash" xmlns:xlink="http://www.w3.org/1999/xlink" ffdec:objectType="shape" height="18.25px" width="29.95px" xmlns="http://www.w3.org/2000/svg">
  <g transform="matrix(1.0, 0.0, 0.0, 1.0, 20.55, 7.85)">
    <path d="M9.35 -7.85 L9.4 -7.85 9.4 -7.8 9.35 -7.75 Q9.2 -7.6 8.35 -7.2 L8.05 -7.05 7.6 -6.85 7.25 -6.7 Q6.2 -6.25 5.7 -6.0 L5.65 -5.95 5.55 -6.05 5.6 -6.1 Q5.8 -6.3 6.3 -6.55 L7.1 -6.95 7.2 -6.95 Q7.5 -7.15 8.05 -7.4 8.7 -7.7 9.3 -7.85 L9.35 -7.85 M4.3 9.85 L4.35 9.9 4.35 10.0 4.0 10.2 3.7 10.4 3.65 10.4 Q3.55 10.35 3.5 10.3 L3.5 10.2 3.55 10.2 3.85 10.0 Q4.2 9.8 4.3 9.85 M-15.7 -3.6 L-15.7 -3.7 Q-14.75 -4.45 -13.75 -5.2 -12.65 -6.0 -11.8 -6.5 L-11.7 -6.5 -11.7 -6.4 Q-12.25 -5.85 -13.4 -5.05 L-15.5 -3.55 -15.65 -3.55 -15.7 -3.6 M-0.5 8.45 Q-0.4 8.45 -0.4 8.5 L-0.4 8.55 -0.45 8.6 -1.5 8.8 Q-2.55 8.95 -3.05 8.95 L-3.1 8.95 -3.15 8.9 -3.15 8.85 -3.1 8.8 Q-2.8 8.7 -1.85 8.6 L-0.65 8.45 -0.5 8.45 M-4.65 8.45 Q-4.65 8.55 -4.85 8.95 -5.1 9.4 -5.2 9.55 L-5.35 9.55 -5.4 9.5 -5.4 9.45 -5.15 8.9 Q-5.0 8.55 -4.8 8.35 L-4.75 8.3 Q-4.65 8.3 -4.65 8.45 M-20.55 3.25 Q-20.55 3.2 -20.5 3.2 L-20.45 3.2 Q-20.2 3.4 -19.9 3.6 -19.5 3.9 -19.35 4.05 L-19.35 4.15 -19.4 4.2 -19.45 4.2 Q-19.8 4.1 -20.2 3.8 -20.55 3.5 -20.55 3.3 L-20.55 3.25 M-14.0 9.05 L-13.95 9.1 -13.95 9.15 -14.0 9.2 -14.0 9.25 -14.2 9.25 -14.25 9.15 -14.25 9.05 -14.0 9.05" fill="#0094ff" fill-opacity="0.2509804" fill-rule="evenodd" stroke="none"/>
    <path d="M6.35 -6.45 L7.15 -6.85 7.2 -6.9 Q7.5 -7.1 8.1 -7.3 8.75 -7.6 9.3 -7.8 9.15 -7.65 8.35 -7.25 L8.0 -7.15 7.6 -6.95 7.2 -6.8 Q6.15 -6.3 5.65 -6.05 5.85 -6.2 6.35 -6.45 M4.3 9.95 L3.95 10.15 3.7 10.35 3.55 10.25 3.9 10.05 Q4.2 9.9 4.25 9.9 L4.3 9.95 M-15.65 -3.65 Q-14.7 -4.4 -13.7 -5.15 -12.6 -5.95 -11.75 -6.45 -12.3 -5.9 -13.45 -5.1 L-15.55 -3.6 -15.65 -3.65 M-0.55 8.5 Q-0.5 8.5 -0.5 8.55 L-1.55 8.7 Q-2.55 8.9 -3.05 8.9 -2.75 8.8 -1.85 8.65 L-0.6 8.55 -0.6 8.5 -0.55 8.5 M-4.75 8.4 Q-4.7 8.4 -4.7 8.45 -4.7 8.55 -4.95 8.9 -5.15 9.35 -5.3 9.5 L-5.3 9.45 -5.1 8.9 Q-4.9 8.55 -4.75 8.4 M-20.5 3.25 L-19.95 3.65 Q-19.55 3.95 -19.45 4.1 -19.8 4.0 -20.15 3.75 -20.45 3.45 -20.5 3.25 M-14.05 9.15 L-14.05 9.2 -14.15 9.2 -14.2 9.1 Q-14.15 9.05 -14.05 9.1 L-14.05 9.15" fill="#ffffff" fill-rule="evenodd" stroke="none"/>
  </g>
</svg>
