<?xml version="1.0" encoding="UTF-8" standalone="no"?>
<svg xmlns:ffdec="https://www.free-decompiler.com/flash" xmlns:xlink="http://www.w3.org/1999/xlink" ffdec:objectType="shape" height="20.25px" width="40.05px" xmlns="http://www.w3.org/2000/svg">
  <g transform="matrix(1.0, 0.0, 0.0, 1.0, 20.55, 8.6)">
    <path d="M1.85 -4.15 L1.9 -4.1 1.9 -4.05 1.85 -4.0 Q1.55 -3.85 -0.2 -2.95 -1.55 -2.25 -2.05 -1.9 L-2.1 -1.9 -2.15 -1.95 -2.15 -2.05 Q-1.85 -2.35 -1.35 -2.65 -1.0 -2.85 -0.2 -3.2 0.0 -3.3 0.8 -3.7 L0.8 -3.75 Q1.55 -4.15 1.8 -4.15 L1.85 -4.15 M19.5 -8.5 L19.5 -8.3 Q19.5 -7.8 19.4 -7.4 19.25 -7.0 18.9 -6.5 L18.75 -6.5 Q18.7 -6.5 18.7 -6.55 L18.7 -6.6 Q19.05 -7.25 19.15 -7.6 19.25 -7.95 19.25 -8.05 L19.15 -8.4 Q19.15 -8.55 19.2 -8.55 19.2 -8.6 19.25 -8.6 19.35 -8.65 19.4 -8.6 19.45 -8.6 19.5 -8.5 M-19.35 -1.55 L-19.0 -1.7 Q-18.85 -1.8 -18.7 -1.75 L-18.65 -1.75 -18.65 -1.65 Q-18.8 -1.5 -19.15 -1.3 -19.65 -1.05 -20.05 -1.05 L-20.45 -1.05 -20.45 -1.1 -20.55 -1.2 -20.55 -1.3 -20.5 -1.3 -20.45 -1.35 Q-19.85 -1.3 -19.35 -1.55 M-0.6 -1.2 L-0.65 -1.2 Q-0.8 -1.2 -0.85 -1.45 L-0.9 -1.65 -0.9 -1.75 -0.8 -1.75 Q-0.75 -1.75 -0.65 -1.55 L-0.5 -1.35 -0.5 -1.25 -0.55 -1.2 -0.6 -1.2 M-6.9 11.3 Q-6.75 11.2 -6.65 11.15 L-6.6 11.2 -6.55 11.2 -6.55 11.25 Q-6.6 11.4 -6.8 11.55 -7.0 11.65 -7.1 11.65 -7.15 11.65 -7.15 11.6 L-7.2 11.55 -7.15 11.5 Q-7.1 11.4 -6.9 11.3 M-10.65 9.0 L-10.9 9.0 Q-12.0 8.95 -12.55 8.7 L-12.6 8.7 -12.6 8.65 Q-12.6 8.6 -12.55 8.55 L-12.5 8.55 -10.85 8.8 -10.75 8.8 Q-10.6 8.85 -10.65 8.9 L-10.65 9.0" fill="#0094ff" fill-opacity="0.2509804" fill-rule="evenodd" stroke="none"/>
    <path d="M1.8 -4.1 Q1.5 -3.9 -0.25 -3.0 -1.55 -2.3 -2.05 -2.0 L-2.1 -2.0 Q-1.8 -2.25 -1.3 -2.55 -0.95 -2.75 -0.15 -3.15 L0.8 -3.65 Q1.6 -4.05 1.8 -4.1 M19.25 -8.4 Q19.25 -8.5 19.25 -8.55 19.4 -8.55 19.45 -8.45 L19.45 -8.3 Q19.45 -7.85 19.3 -7.45 19.15 -7.05 18.8 -6.55 19.15 -7.25 19.2 -7.6 19.35 -7.95 19.3 -8.05 19.25 -8.35 19.25 -8.4 M-20.05 -1.1 L-20.4 -1.15 -20.45 -1.2 -20.45 -1.25 Q-19.85 -1.2 -19.3 -1.45 L-18.95 -1.65 Q-18.8 -1.7 -18.7 -1.7 -18.85 -1.55 -19.15 -1.4 -19.65 -1.1 -20.05 -1.1 M-0.7 -1.55 L-0.6 -1.3 -0.6 -1.25 Q-0.75 -1.3 -0.8 -1.45 L-0.85 -1.7 Q-0.8 -1.65 -0.7 -1.55 M-6.85 11.5 Q-7.0 11.55 -7.1 11.55 -7.05 11.5 -6.85 11.35 -6.7 11.25 -6.65 11.25 -6.65 11.35 -6.85 11.5 M-10.85 8.9 L-10.7 8.9 -10.7 8.95 -10.9 8.95 Q-11.95 8.85 -12.55 8.65 L-12.5 8.65 -10.85 8.9" fill="#ffffff" fill-rule="evenodd" stroke="none"/>
  </g>
</svg>
