<?xml version="1.0" encoding="UTF-8" standalone="no"?>
<svg xmlns:ffdec="https://www.free-decompiler.com/flash" xmlns:xlink="http://www.w3.org/1999/xlink" ffdec:objectType="shape" height="23.05px" width="32.9px" xmlns="http://www.w3.org/2000/svg">
  <g transform="matrix(1.0, 0.0, 0.0, 1.0, 18.9, 13.7)">
    <path d="M12.15 -9.05 Q13.15 -9.4 13.9 -9.5 L13.95 -9.45 14.0 -9.45 13.95 -9.35 Q13.9 -9.25 13.25 -9.05 L12.4 -8.85 11.6 -8.55 10.85 -8.35 10.8 -8.35 10.75 -8.4 10.8 -8.45 Q11.1 -8.7 12.15 -9.05 M3.45 7.7 L3.35 7.65 3.3 7.65 3.3 7.55 3.35 7.5 4.3 7.25 Q5.2 7.0 5.3 7.0 L5.35 7.0 5.35 7.15 Q5.2 7.25 4.35 7.5 L3.5 7.7 3.45 7.7 M5.9 8.95 L5.85 8.9 5.85 8.85 5.9 8.8 6.45 8.35 Q6.9 7.95 7.1 7.8 L7.2 7.8 7.25 7.85 7.25 7.9 7.2 7.95 6.65 8.55 Q6.25 8.85 5.95 8.95 L5.9 8.95 M-15.7 -13.7 L-15.7 -13.55 -15.8 -13.4 Q-15.9 -13.25 -16.05 -13.15 L-16.15 -13.15 Q-16.2 -13.15 -16.2 -13.3 L-16.2 -13.35 Q-15.9 -13.7 -15.75 -13.7 L-15.7 -13.7 M-18.2 -7.1 L-18.4 -7.1 Q-18.45 -7.15 -18.45 -7.25 L-18.35 -7.35 -18.2 -7.35 -18.2 -7.3 -18.15 -7.3 -18.15 -7.2 -18.2 -7.15 -18.2 -7.1 M-5.65 -9.95 L-5.6 -9.95 -5.6 -9.85 -5.65 -9.85 Q-6.55 -9.3 -7.55 -8.75 -7.85 -8.65 -9.75 -7.65 L-9.8 -7.65 -9.9 -7.75 -9.85 -7.8 Q-9.7 -8.0 -8.95 -8.4 -8.35 -8.75 -7.8 -9.05 L-6.75 -9.6 Q-6.2 -9.9 -5.7 -9.95 L-5.65 -9.95 M-4.2 6.25 Q-4.2 6.2 -4.15 6.2 L-4.05 6.2 -4.05 6.3 Q-4.05 6.4 -4.1 6.65 -4.1 6.9 -4.15 6.95 L-4.2 7.0 Q-4.2 7.05 -4.25 7.0 L-4.3 7.0 -4.35 6.95 -4.35 6.85 -4.3 6.6 Q-4.3 6.35 -4.2 6.25 M-16.45 5.3 Q-16.9 5.3 -18.0 4.9 L-18.5 4.75 Q-18.8 4.6 -18.9 4.45 L-18.9 4.4 Q-18.85 4.3 -18.75 4.3 L-18.7 4.35 Q-18.6 4.45 -17.65 4.7 -16.45 5.05 -16.3 5.15 L-16.25 5.15 -16.25 5.2 Q-16.3 5.3 -16.45 5.3 M-12.7 9.15 L-12.75 9.2 Q-12.95 9.35 -13.05 9.35 -13.35 9.35 -13.4 9.3 -13.45 9.25 -13.45 9.15 L-13.45 9.1 -13.35 9.1 -12.8 9.05 -12.75 9.05 -12.7 9.1 -12.7 9.15" fill="#0094ff" fill-opacity="0.2509804" fill-rule="evenodd" stroke="none"/>
    <path d="M11.55 -8.65 L10.85 -8.4 Q11.15 -8.65 12.15 -9.0 13.2 -9.3 13.9 -9.4 13.85 -9.3 13.25 -9.15 L12.35 -8.9 11.55 -8.65 M4.3 7.4 L3.45 7.6 3.4 7.6 4.3 7.3 Q5.2 7.05 5.3 7.05 5.15 7.15 4.3 7.4 M6.6 8.45 Q6.2 8.8 5.9 8.9 L6.5 8.4 Q6.95 8.05 7.15 7.9 L6.6 8.45 M-16.1 -13.25 L-16.1 -13.3 Q-15.85 -13.6 -15.75 -13.6 L-15.85 -13.45 Q-15.95 -13.3 -16.1 -13.25 M-18.25 -7.25 L-18.25 -7.2 -18.35 -7.15 -18.35 -7.25 -18.25 -7.25 M-7.75 -9.0 L-6.75 -9.55 Q-6.2 -9.8 -5.65 -9.9 -6.55 -9.35 -7.6 -8.85 L-9.8 -7.75 Q-9.65 -7.9 -8.9 -8.35 L-7.75 -9.0 M-4.1 6.25 L-4.1 6.3 Q-4.1 6.4 -4.15 6.65 -4.2 6.9 -4.25 6.95 L-4.25 6.65 Q-4.2 6.35 -4.15 6.3 L-4.1 6.25 M-17.65 4.8 Q-16.5 5.1 -16.35 5.2 L-16.45 5.2 Q-16.85 5.2 -17.95 4.85 L-18.5 4.65 Q-18.75 4.55 -18.8 4.4 L-18.75 4.35 Q-18.7 4.5 -17.65 4.8 M-13.35 9.25 Q-13.4 9.2 -13.4 9.15 L-12.8 9.15 Q-13.0 9.25 -13.05 9.25 L-13.35 9.25" fill="#ffffff" fill-rule="evenodd" stroke="none"/>
  </g>
</svg>
