<?xml version="1.0" encoding="UTF-8" standalone="no"?>
<svg xmlns:ffdec="https://www.free-decompiler.com/flash" xmlns:xlink="http://www.w3.org/1999/xlink" ffdec:objectType="shape" height="30.9px" width="35.05px" xmlns="http://www.w3.org/2000/svg">
  <g transform="matrix(1.0, 0.0, 0.0, 1.0, 19.25, 19.75)">
    <path d="M11.75 -13.9 L11.8 -13.95 11.85 -13.95 Q13.5 -13.9 14.5 -13.65 15.25 -13.5 15.75 -13.25 L15.8 -13.2 15.8 -13.1 Q15.8 -13.05 15.65 -13.05 15.6 -13.0 15.2 -13.15 L14.75 -13.3 14.7 -13.3 14.2 -13.45 Q13.9 -13.55 13.2 -13.6 13.15 -13.6 13.15 -13.65 L12.75 -13.65 12.5 -13.7 12.45 -13.7 Q11.75 -13.75 11.75 -13.85 L11.75 -13.9 M15.45 0.8 L15.5 0.85 15.5 0.9 15.55 1.0 Q15.55 1.05 15.45 1.2 L15.35 1.35 15.25 1.35 15.25 1.3 15.2 1.25 15.2 1.2 Q15.25 1.05 15.25 0.9 15.25 0.85 15.3 0.85 15.3 0.8 15.35 0.8 L15.45 0.8 M12.75 0.45 L12.95 0.45 12.95 0.75 Q12.9 0.8 12.85 0.8 L12.75 0.8 12.7 0.75 Q12.65 0.7 12.65 0.6 12.65 0.45 12.75 0.45 M11.95 1.8 L10.4 1.8 10.3 1.75 Q10.15 1.75 10.2 1.65 L10.2 1.6 10.25 1.6 Q10.55 1.55 10.55 1.65 10.55 1.6 10.6 1.6 10.6 1.55 10.65 1.55 L11.95 1.55 Q12.5 1.55 12.5 1.65 L12.5 1.7 12.4 1.8 11.95 1.8 M5.05 3.15 L5.1 3.2 5.1 3.25 5.05 3.3 Q4.3 3.75 3.0 4.2 1.75 4.65 0.6 4.9 L0.4 4.9 0.35 4.85 Q0.35 4.8 0.4 4.8 L0.4 4.75 Q0.75 4.65 1.6 4.35 L2.95 3.9 3.95 3.5 Q4.55 3.2 5.0 3.15 L5.05 3.15 M0.65 4.2 L0.6 4.2 Q0.45 4.3 0.15 4.6 L-0.3 4.95 -0.45 4.95 -0.45 4.9 -0.5 4.85 -0.45 4.8 0.0 4.4 Q0.3 4.15 0.5 4.05 L0.55 4.05 0.6 4.1 0.65 4.1 0.65 4.2 M-3.05 -19.6 L-3.1 -19.6 -3.1 -19.55 Q-3.7 -19.35 -4.75 -19.0 L-6.1 -18.55 -6.25 -18.55 -6.3 -18.6 -6.3 -18.7 -6.25 -18.7 Q-5.5 -19.05 -4.75 -19.3 -3.8 -19.65 -3.15 -19.75 L-3.1 -19.7 -3.1 -19.65 -3.05 -19.6 M-15.65 -2.95 L-15.65 -3.05 -15.55 -3.05 -15.2 -2.95 Q-14.9 -2.85 -14.7 -2.75 -14.55 -2.75 -14.55 -2.7 L-14.55 -2.55 -14.7 -2.55 Q-14.95 -2.55 -15.2 -2.65 -15.45 -2.75 -15.65 -2.9 L-15.65 -2.95 M-1.7 10.5 L-1.7 10.55 -1.65 10.6 -1.7 10.65 Q-1.85 10.8 -2.2 10.95 L-2.8 11.15 -2.9 11.15 -2.95 11.1 -2.95 11.05 -2.9 11.0 Q-2.75 10.9 -2.4 10.75 -2.0 10.55 -1.75 10.5 L-1.7 10.5 M-18.3 3.15 Q-18.35 3.15 -18.35 3.1 L-19.2 2.95 -19.25 2.9 -19.25 2.85 Q-19.25 2.8 -19.2 2.8 L-19.2 2.75 -19.15 2.75 -18.25 2.85 -16.95 2.85 Q-16.55 2.8 -16.3 2.85 L-16.25 2.85 Q-16.15 2.9 -16.15 2.95 L-16.1 3.0 -16.15 3.0 -16.15 3.05 -16.2 3.1 -16.55 3.15 -18.3 3.15" fill="#0094ff" fill-opacity="0.2509804" fill-rule="evenodd" stroke="none"/>
    <path d="M12.5 -13.8 Q11.85 -13.8 11.85 -13.85 13.45 -13.8 14.5 -13.6 15.2 -13.45 15.7 -13.2 L15.7 -13.15 Q15.7 -13.1 15.65 -13.1 15.6 -13.1 15.2 -13.25 L14.75 -13.4 14.2 -13.55 Q13.9 -13.6 13.2 -13.7 L12.95 -13.7 12.8 -13.75 12.5 -13.75 12.5 -13.8 M15.4 0.9 L15.45 0.9 15.45 1.0 15.4 1.15 15.3 1.3 15.3 1.2 Q15.35 1.05 15.35 0.9 L15.4 0.9 M12.9 0.6 L12.9 0.7 12.75 0.7 Q12.7 0.65 12.7 0.6 12.7 0.55 12.8 0.5 L12.9 0.5 12.9 0.6 M11.95 1.65 L12.4 1.7 10.35 1.7 Q10.25 1.7 10.25 1.65 L11.95 1.65 M5.0 3.25 Q4.25 3.65 2.95 4.15 1.75 4.55 0.6 4.85 L0.45 4.8 Q0.75 4.7 1.6 4.45 L3.0 4.0 3.95 3.55 Q4.55 3.3 5.0 3.25 M0.05 4.5 L-0.35 4.85 -0.4 4.85 0.05 4.45 Q0.35 4.25 0.55 4.15 0.4 4.25 0.05 4.5 M-3.15 -19.65 Q-3.75 -19.4 -4.75 -19.1 -5.6 -18.8 -6.15 -18.65 L-6.25 -18.65 Q-5.5 -19.0 -4.75 -19.25 -3.8 -19.55 -3.15 -19.65 M-15.25 -2.9 Q-14.9 -2.75 -14.7 -2.7 L-14.6 -2.65 -14.7 -2.65 Q-14.95 -2.65 -15.2 -2.75 -15.4 -2.85 -15.6 -2.95 L-15.55 -3.0 -15.25 -2.9 M-2.25 10.9 L-2.8 11.1 -2.9 11.1 Q-2.75 10.95 -2.35 10.8 -2.0 10.6 -1.75 10.6 -1.9 10.75 -2.25 10.9 M-17.55 3.05 L-18.3 3.05 -18.3 3.0 Q-18.7 3.0 -19.2 2.85 L-19.15 2.85 -18.25 2.95 -16.95 2.95 Q-16.55 2.9 -16.3 2.9 L-16.25 2.95 -16.2 2.95 -16.2 3.0 -16.55 3.05 -16.85 3.1 -17.2 3.1 -17.55 3.05" fill="#ffffff" fill-rule="evenodd" stroke="none"/>
  </g>
</svg>
