<?xml version="1.0" encoding="UTF-8" standalone="no"?>
<svg xmlns:ffdec="https://www.free-decompiler.com/flash" xmlns:xlink="http://www.w3.org/1999/xlink" ffdec:objectType="shape" height="30.5px" width="32.5px" xmlns="http://www.w3.org/2000/svg">
  <g transform="matrix(1.0, 0.0, 0.0, 1.0, 15.0, 20.6)">
    <path d="M0.35 -20.25 L-0.45 -20.15 -1.75 -19.85 -1.9 -19.85 -1.95 -19.9 -1.95 -20.0 Q-1.6 -20.2 -0.8 -20.4 0.25 -20.65 1.2 -20.6 L1.25 -20.55 1.25 -20.4 Q1.05 -20.35 0.35 -20.25 M16.85 -12.7 Q17.1 -12.65 17.3 -12.5 17.4 -12.35 17.5 -12.05 L17.5 -12.0 Q17.45 -11.95 17.35 -11.95 L17.3 -11.95 Q17.25 -11.95 17.25 -12.0 17.2 -12.1 17.05 -12.25 L16.7 -12.6 Q16.7 -12.65 16.8 -12.7 L16.85 -12.7 M15.25 -0.1 L15.3 -0.05 15.3 0.05 15.2 0.1 15.15 0.1 Q15.0 0.1 15.0 0.05 L15.0 -0.05 Q15.0 -0.15 15.25 -0.1 M11.2 0.0 L11.3 0.1 11.25 0.15 Q10.9 0.55 9.55 1.25 8.9 1.6 7.8 2.1 L7.8 2.15 7.6 2.15 7.55 2.1 7.55 2.05 7.6 2.0 11.15 0.05 11.2 0.0 M6.9 1.65 L7.25 1.65 Q7.35 1.7 7.35 1.75 L7.35 1.85 7.25 1.85 6.9 1.9 5.65 1.9 Q5.45 1.85 5.45 1.8 L5.45 1.75 Q5.5 1.7 5.55 1.7 L6.85 1.65 6.9 1.65 M2.25 2.25 L2.3 2.25 2.3 2.35 2.2 2.5 Q2.15 2.65 2.05 2.7 L1.9 2.7 1.9 2.6 Q1.9 2.55 2.0 2.4 2.15 2.25 2.25 2.25 M0.35 9.15 L0.35 9.2 Q0.35 9.3 -0.15 9.65 -0.25 9.75 -0.35 9.85 L-0.6 9.9 -0.7 9.9 -0.7 9.85 -0.65 9.8 Q-0.55 9.6 -0.2 9.4 0.05 9.15 0.2 9.1 0.25 9.05 0.25 9.1 L0.3 9.1 0.35 9.15 M-11.45 -2.0 L-10.95 -1.9 -10.4 -1.9 Q-9.65 -1.9 -9.35 -1.9 L-9.25 -1.8 -9.25 -1.7 -9.3 -1.7 -9.65 -1.65 -10.5 -1.65 -11.0 -1.7 -11.4 -1.8 -11.5 -1.85 -11.55 -1.9 -11.55 -1.95 -11.5 -2.0 -11.45 -2.0 M-11.8 1.9 L-11.75 1.95 -11.75 2.0 -11.8 2.05 Q-12.1 2.25 -13.0 2.5 -13.95 2.8 -14.8 2.9 L-14.85 2.9 -14.95 2.85 -15.0 2.85 -15.0 2.75 Q-15.0 2.7 -14.95 2.7 L-13.45 2.3 -11.85 1.9 -11.8 1.9" fill="#0094ff" fill-opacity="0.2509804" fill-rule="evenodd" stroke="none"/>
    <path d="M1.2 -20.5 Q1.0 -20.4 0.35 -20.3 L-0.45 -20.25 -1.75 -19.95 -1.9 -19.95 Q-1.55 -20.15 -0.75 -20.3 0.25 -20.55 1.2 -20.5 M17.25 -12.45 Q17.35 -12.3 17.4 -12.05 17.4 -12.0 17.35 -12.0 17.3 -12.15 17.1 -12.3 L16.8 -12.6 Q17.1 -12.6 17.25 -12.45 M15.15 0.05 L15.05 0.0 Q15.05 -0.05 15.2 0.0 L15.25 0.0 15.15 0.05 M9.5 1.2 Q8.85 1.55 7.8 2.05 L7.65 2.1 11.2 0.1 Q10.85 0.5 9.5 1.2 M6.9 1.75 L7.3 1.75 7.25 1.8 5.55 1.8 6.9 1.75 M2.15 2.5 Q2.1 2.6 2.0 2.65 L1.95 2.6 Q2.0 2.55 2.05 2.45 2.15 2.35 2.25 2.35 L2.15 2.5 M0.25 9.15 L0.25 9.2 Q0.25 9.3 -0.2 9.6 -0.3 9.7 -0.4 9.75 -0.55 9.85 -0.6 9.85 -0.45 9.7 -0.15 9.45 0.15 9.2 0.25 9.15 M-11.5 -1.9 L-10.95 -1.85 -10.7 -1.85 -10.4 -1.8 Q-9.65 -1.85 -9.4 -1.8 L-9.35 -1.75 -9.65 -1.75 -10.05 -1.7 -10.5 -1.75 -11.0 -1.8 Q-11.25 -1.8 -11.4 -1.85 L-11.5 -1.9 M-14.95 2.8 L-13.45 2.4 -11.85 2.0 Q-12.15 2.2 -13.05 2.45 -14.0 2.7 -14.85 2.8 L-14.95 2.8" fill="#ffffff" fill-rule="evenodd" stroke="none"/>
  </g>
</svg>
