<?xml version="1.0" encoding="UTF-8" standalone="no"?>
<svg xmlns:ffdec="https://www.free-decompiler.com/flash" xmlns:xlink="http://www.w3.org/1999/xlink" ffdec:objectType="shape" height="22.45px" width="26.45px" xmlns="http://www.w3.org/2000/svg">
  <g transform="matrix(1.0, 0.0, 0.0, 1.0, 12.75, 20.7)">
    <path d="M4.7 -16.15 L4.7 -16.3 4.8 -16.35 Q5.1 -16.45 6.05 -16.55 L7.65 -16.6 7.75 -16.55 7.8 -16.45 7.75 -16.35 Q7.7 -16.3 7.65 -16.3 L5.8 -16.1 5.35 -16.05 4.95 -16.0 4.8 -16.0 4.7 -16.05 Q4.7 -16.1 4.7 -16.15 M11.3 -5.55 L11.7 -5.55 Q12.0 -5.5 12.1 -5.4 L12.15 -5.3 12.15 -5.2 Q12.15 -5.15 12.1 -5.1 L11.95 -5.1 11.35 -5.2 11.3 -5.25 11.25 -5.25 Q11.1 -5.3 11.15 -5.45 L11.2 -5.5 Q11.25 -5.55 11.3 -5.55 M9.45 -5.35 L9.55 -5.25 9.55 -5.1 Q9.35 -4.65 9.15 -4.4 L9.1 -4.35 9.0 -4.35 Q8.95 -4.35 8.9 -4.4 8.85 -4.4 8.85 -4.45 L8.85 -4.6 9.05 -4.95 Q9.15 -5.25 9.3 -5.35 L9.35 -5.4 9.45 -5.35 M10.0 -4.65 L10.3 -4.85 10.4 -4.9 10.5 -4.85 10.55 -4.75 10.5 -4.6 10.05 -4.15 Q10.0 -4.15 9.95 -4.15 L9.85 -4.15 Q9.8 -4.15 9.75 -4.2 9.75 -4.25 9.75 -4.35 9.75 -4.4 9.8 -4.45 L10.0 -4.65 M13.7 -13.8 L13.7 -13.65 13.6 -13.55 13.55 -13.55 13.5 -13.5 13.45 -13.55 Q13.35 -13.55 13.3 -13.7 L13.25 -13.85 13.25 -13.95 13.3 -14.0 Q13.3 -14.05 13.35 -14.05 13.5 -14.1 13.6 -13.95 L13.7 -13.8 M-6.5 -18.35 L-6.45 -18.4 Q-6.0 -18.75 -5.35 -19.05 -4.6 -19.4 -4.15 -19.55 L-4.0 -19.55 -3.95 -19.45 Q-3.9 -19.4 -3.95 -19.35 L-4.0 -19.25 Q-4.4 -19.0 -5.15 -18.65 L-6.3 -18.1 -6.4 -18.1 -6.45 -18.15 -6.5 -18.15 -6.5 -18.35 M-12.4 -5.45 L-12.35 -5.3 -12.35 -5.25 -12.3 -5.25 -12.25 -5.15 Q-12.1 -5.05 -12.1 -4.95 L-12.1 -4.8 -12.2 -4.75 Q-12.3 -4.7 -12.35 -4.75 -12.5 -4.8 -12.65 -5.0 -12.75 -5.2 -12.75 -5.3 L-12.75 -5.4 -12.7 -5.5 -12.6 -5.55 -12.5 -5.55 -12.4 -5.45 M-10.45 -10.15 L-10.25 -9.9 -10.25 -9.95 -10.2 -9.85 -10.2 -9.75 -10.25 -9.65 -10.3 -9.65 -10.45 -9.6 -10.5 -9.6 -10.75 -9.85 -10.9 -10.1 -10.9 -10.25 -10.8 -10.3 Q-10.7 -10.35 -10.5 -10.15 L-10.45 -10.15 M-3.7 -2.55 L-3.6 -2.6 -1.95 -2.85 -0.45 -3.0 -0.4 -2.95 -0.35 -2.95 -0.3 -2.85 -0.3 -2.75 -0.35 -2.7 Q-0.55 -2.55 -1.3 -2.4 L-2.7 -2.35 -3.2 -2.35 Q-3.2 -2.3 -3.25 -2.3 L-3.6 -2.3 -3.7 -2.35 -3.7 -2.55 M-1.25 -1.9 Q-1.25 -1.8 -1.3 -1.75 L-1.35 -1.7 -1.8 -1.55 -2.25 -1.35 -2.4 -1.35 -2.5 -1.4 -2.5 -1.6 -2.45 -1.65 Q-2.45 -1.7 -2.35 -1.7 -2.2 -1.75 -1.85 -1.9 L-1.4 -2.1 -1.3 -2.1 -1.25 -2.0 Q-1.2 -1.95 -1.25 -1.9 M-1.35 1.65 L-1.35 1.7 Q-1.4 1.75 -1.5 1.75 -1.65 1.7 -1.7 1.55 L-1.7 1.45 Q-1.65 1.35 -1.6 1.35 L-1.4 1.3 -1.35 1.35 -1.35 1.4 -1.3 1.4 Q-1.3 1.45 -1.3 1.55 L-1.3 1.6 -1.35 1.65" fill="#e1ffd2" fill-opacity="0.2" fill-rule="evenodd" stroke="none"/>
    <path d="M7.25 -16.25 L7.1 -16.25 6.95 -16.3 Q6.9 -16.35 6.9 -16.45 L6.95 -16.55 Q7.0 -16.6 7.05 -16.6 L8.05 -16.7 8.8 -16.7 9.45 -16.6 9.65 -16.55 9.7 -16.45 9.7 -16.35 Q9.65 -16.2 9.45 -16.2 L9.25 -16.2 8.8 -16.25 7.25 -16.25 M1.9 -3.35 Q1.9 -3.25 1.8 -3.15 L1.75 -3.1 Q1.4 -2.95 0.7 -2.8 L0.45 -2.8 0.45 -2.7 0.4 -2.6 -0.1 -2.3 -0.65 -2.0 -0.8 -2.0 Q-0.85 -2.0 -0.9 -2.05 L-0.95 -2.15 -0.9 -2.25 -0.85 -2.3 Q-0.65 -2.4 -0.25 -2.6 L-0.15 -2.65 -0.65 -2.6 -0.75 -2.6 -0.85 -2.7 -0.85 -2.8 -0.8 -2.9 Q-0.7 -2.95 -0.05 -3.1 L0.7 -3.25 Q1.35 -3.4 1.7 -3.5 L1.8 -3.5 1.9 -3.45 1.9 -3.35 M10.8 -5.55 L10.85 -5.55 10.95 -5.5 Q11.0 -5.6 11.1 -5.65 L11.2 -5.65 11.3 -5.6 11.3 -5.5 Q11.3 -5.35 11.2 -5.15 L11.15 -5.15 10.95 -4.9 Q10.95 -4.85 10.85 -4.85 10.8 -4.8 10.75 -4.85 L10.7 -4.95 10.7 -5.0 Q10.65 -5.05 10.7 -5.1 L10.75 -5.2 10.7 -5.2 10.55 -5.25 10.3 -5.25 9.8 -5.3 9.75 -5.35 Q9.7 -5.4 9.7 -5.45 L9.7 -5.5 Q9.6 -5.3 9.5 -5.3 L9.4 -5.3 Q9.35 -5.35 9.35 -5.4 9.3 -5.45 9.35 -5.5 L9.4 -5.7 Q9.45 -5.9 9.5 -5.95 L9.55 -6.0 9.65 -6.0 9.75 -5.95 9.8 -5.85 9.8 -5.75 9.75 -5.6 Q9.8 -5.65 9.85 -5.65 L10.75 -5.6 10.8 -5.55 M-2.7 -19.7 L-3.4 -19.45 -3.95 -19.2 -4.45 -19.05 -4.5 -19.0 -4.65 -19.0 Q-4.7 -19.0 -4.75 -19.0 L-4.8 -19.1 -4.8 -19.2 -4.7 -19.3 -3.65 -19.8 Q-2.85 -20.15 -2.3 -20.25 L-2.2 -20.25 -2.1 -20.05 -2.15 -19.95 Q-2.25 -19.85 -2.7 -19.7 M-11.9 -4.95 L-11.55 -4.85 Q-11.1 -4.75 -11.05 -4.7 L-11.0 -4.6 Q-10.95 -4.55 -10.95 -4.5 L-11.0 -4.5 Q-11.0 -4.45 -11.05 -4.45 -11.1 -4.35 -11.2 -4.35 L-11.4 -4.4 -11.55 -4.45 -11.75 -4.45 Q-12.05 -4.5 -12.25 -4.65 -12.45 -4.75 -12.55 -4.9 L-12.6 -5.0 -12.55 -5.1 -12.5 -5.15 Q-12.45 -5.25 -12.15 -5.05 L-11.9 -4.95 M-10.0 -9.6 L-9.85 -9.5 -9.75 -9.35 -9.5 -9.2 -9.3 -9.1 -9.25 -9.0 Q-9.25 -8.95 -9.25 -8.9 L-9.35 -8.8 -9.45 -8.8 Q-9.65 -8.8 -9.9 -9.0 -10.2 -9.2 -10.25 -9.35 L-10.25 -9.5 -10.2 -9.6 -10.1 -9.65 -10.0 -9.6 M-1.15 1.2 Q-0.9 1.05 -0.8 1.1 -0.75 1.1 -0.7 1.15 -0.65 1.2 -0.7 1.3 L-0.75 1.4 -1.0 1.55 -1.25 1.65 -1.3 1.65 -1.4 1.6 -1.45 1.5 -1.45 1.4 Q-1.4 1.3 -1.15 1.2" fill="#f3ffee" fill-opacity="0.5019608" fill-rule="evenodd" stroke="none"/>
    <path d="M11.75 -15.9 Q11.75 -15.8 11.7 -15.75 L11.6 -15.75 11.25 -15.85 10.95 -15.95 10.6 -16.05 9.95 -16.15 Q9.9 -16.15 9.85 -16.15 L9.8 -16.15 9.65 -16.2 9.4 -16.2 Q8.85 -16.25 8.9 -16.45 L8.9 -16.5 8.95 -16.6 9.05 -16.6 Q10.15 -16.55 10.85 -16.4 11.35 -16.3 11.7 -16.1 L11.75 -16.05 11.8 -15.95 11.75 -15.9 M3.75 -4.3 Q4.2 -4.5 4.5 -4.5 L4.6 -4.5 4.65 -4.4 4.65 -4.3 4.6 -4.2 Q4.1 -3.9 3.2 -3.55 2.4 -3.25 1.6 -3.05 L1.45 -3.05 Q1.4 -3.1 1.35 -3.1 1.35 -3.15 1.35 -3.2 L1.35 -3.3 1.4 -3.35 1.35 -3.35 1.35 -3.3 1.05 -3.05 0.85 -3.05 Q0.8 -3.05 0.8 -3.1 0.75 -3.15 0.75 -3.25 L0.8 -3.35 1.1 -3.6 1.5 -3.85 1.6 -3.9 1.65 -3.8 1.7 -3.8 1.7 -3.65 1.65 -3.55 1.4 -3.4 1.45 -3.4 2.2 -3.65 3.1 -4.0 3.75 -4.3 M11.4 -6.2 L11.45 -6.2 11.6 -6.05 11.6 -5.95 Q11.6 -5.9 11.55 -5.75 L11.45 -5.6 11.35 -5.55 Q11.3 -5.55 11.25 -5.6 L11.2 -5.7 11.2 -6.0 Q11.2 -6.1 11.25 -6.15 11.3 -6.2 11.4 -6.2 M9.9 -6.25 L9.9 -6.15 Q9.9 -6.05 9.85 -6.05 L9.75 -5.95 9.65 -5.95 9.6 -6.0 9.55 -6.0 9.55 -6.05 Q9.5 -6.1 9.5 -6.2 9.45 -6.4 9.65 -6.45 L9.75 -6.45 9.85 -6.4 9.9 -6.3 9.9 -6.25 M9.55 -5.3 L9.5 -5.3 9.4 -5.25 8.05 -5.25 8.0 -5.3 Q7.95 -5.3 7.9 -5.35 7.85 -5.4 7.85 -5.5 L7.9 -5.55 Q7.95 -5.65 8.0 -5.65 L8.15 -5.6 8.25 -5.65 9.1 -5.65 Q9.6 -5.65 9.6 -5.45 L9.6 -5.4 9.55 -5.3 M0.15 0.95 Q0.0 1.1 -0.25 1.2 L-0.65 1.35 -0.8 1.35 -0.9 1.15 -0.85 1.05 Q-0.7 0.95 -0.45 0.85 -0.15 0.7 0.0 0.7 L0.1 0.7 0.15 0.75 0.2 0.85 0.15 0.95 M-0.85 -20.35 Q-1.25 -20.2 -1.95 -19.95 L-2.85 -19.65 -3.0 -19.65 Q-3.05 -19.65 -3.05 -19.7 L-3.1 -19.8 -3.1 -19.9 -3.05 -19.95 -2.0 -20.4 Q-1.35 -20.6 -0.95 -20.7 L-0.75 -20.6 -0.75 -20.5 -0.8 -20.4 -0.85 -20.35 M-11.75 -4.6 Q-11.75 -4.7 -11.65 -4.75 L-11.65 -4.8 -11.55 -4.8 -10.95 -4.75 -9.65 -4.75 -9.55 -4.7 Q-9.45 -4.7 -9.45 -4.6 L-9.45 -4.45 -9.55 -4.35 -9.8 -4.3 -11.0 -4.3 -11.05 -4.35 -11.6 -4.45 -11.7 -4.5 -11.75 -4.6 M-9.2 -8.9 L-9.15 -8.9 -8.9 -8.8 -8.55 -8.7 Q-8.4 -8.65 -8.4 -8.55 L-8.35 -8.55 -8.4 -8.45 -8.45 -8.4 Q-8.45 -8.35 -8.6 -8.35 -8.75 -8.35 -8.95 -8.4 -9.15 -8.5 -9.3 -8.6 L-9.35 -8.7 -9.35 -8.8 -9.3 -8.85 -9.25 -8.85 -9.2 -8.9" fill="#f4ffee" fill-opacity="0.8" fill-rule="evenodd" stroke="none"/>
  </g>
</svg>
