<?xml version="1.0" encoding="UTF-8" standalone="no"?>
<svg xmlns:ffdec="https://www.free-decompiler.com/flash" xmlns:xlink="http://www.w3.org/1999/xlink" ffdec:objectType="shape" height="23.2px" width="15.0px" xmlns="http://www.w3.org/2000/svg">
  <g transform="matrix(1.0, 0.0, 0.0, 1.0, 7.25, 11.85)">
    <path d="M1.3 -11.3 Q1.3 -11.15 1.2 -10.35 1.1 -9.55 1.05 -9.3 L1.0 -9.25 0.95 -9.45 Q0.95 -9.6 0.95 -9.75 0.95 -10.1 1.05 -10.9 L1.2 -11.85 Q1.3 -11.75 1.3 -11.6 L1.3 -11.3 M0.4 -10.5 L0.4 -9.8 0.3 -9.8 0.3 -10.75 0.35 -10.75 Q0.4 -10.65 0.4 -10.5 M2.15 -10.35 Q2.45 -10.8 2.8 -10.9 3.2 -10.95 3.45 -10.6 3.75 -10.2 3.75 -9.4 3.75 -8.95 3.6 -8.55 3.4 -7.85 2.9 -7.85 2.15 -7.85 1.95 -8.45 1.85 -8.75 1.85 -9.1 1.85 -9.85 2.15 -10.35 M2.75 -6.6 L2.95 -6.45 2.85 -6.45 2.85 -6.5 2.8 -6.5 Q2.8 -6.4 2.9 -6.2 L3.1 -5.95 3.1 -5.9 2.9 -6.05 Q3.15 -5.35 3.45 -4.8 L7.75 -10.3 Q6.15 -8.1 3.6 -4.7 L3.55 -4.65 Q3.9 -4.05 4.4 -3.5 L4.5 -3.5 Q4.55 -3.55 4.6 -3.6 L4.6 -3.8 Q5.05 -2.85 5.25 -1.65 5.35 -1.25 5.5 0.1 L5.45 0.25 5.45 0.3 Q5.45 0.4 5.4 0.95 L5.3 1.55 5.0 2.85 Q5.15 2.75 5.2 2.5 5.25 2.2 5.3 2.1 L5.35 2.05 5.35 2.1 Q5.2 3.15 4.5 4.35 3.95 5.25 3.25 5.95 2.9 6.35 2.35 6.7 1.9 7.05 1.1 7.4 1.05 7.4 1.05 7.35 0.55 7.5 -0.1 7.5 -0.9 7.5 -1.35 7.25 -1.95 7.1 -2.65 6.5 -3.5 5.85 -3.65 5.45 L-3.6 5.4 -3.3 5.75 -3.05 5.95 -3.15 5.85 -3.1 5.85 -2.85 6.1 -2.85 6.05 -2.8 6.1 Q-2.6 6.35 -2.35 6.35 -2.25 6.3 -2.15 6.25 L-2.1 6.2 -2.1 6.15 Q-2.05 6.05 -2.05 5.85 L-2.05 5.75 Q-2.1 5.05 -2.6 4.1 L-2.8 3.75 -2.9 3.6 -3.4 4.2 Q-5.75 7.25 -7.2 9.05 L-7.25 9.05 Q-5.5 6.75 -3.0 3.5 L-3.1 3.4 Q-3.4 3.0 -3.75 2.9 L-4.1 2.9 Q-4.15 2.9 -4.3 2.95 L-4.3 3.0 Q-4.4 3.1 -4.4 3.2 -4.45 3.35 -4.5 3.5 L-4.45 3.5 -4.45 3.65 -4.35 4.1 Q-4.3 4.3 -4.2 4.45 L-4.2 4.5 -4.3 4.4 -4.25 4.45 -4.3 4.5 -4.35 4.35 Q-4.65 3.8 -4.9 3.15 -5.05 2.65 -5.2 2.05 L-5.25 1.9 -5.25 1.75 Q-5.5 0.8 -5.5 0.25 -5.5 -0.8 -5.3 -1.5 L-5.2 -2.15 Q-4.9 -3.35 -4.45 -4.25 L-4.4 -4.2 -4.4 -4.15 -4.5 -3.9 -4.55 -3.6 -4.5 -3.75 Q-4.45 -3.85 -4.4 -3.85 L-4.35 -3.8 -4.1 -4.35 Q-3.9 -4.85 -3.6 -5.25 -3.95 -5.85 -4.1 -6.3 L-4.1 -6.35 -3.5 -5.4 Q-3.15 -5.9 -2.75 -6.25 L-2.55 -6.55 -2.5 -6.55 -2.7 -6.5 -2.8 -6.5 -2.65 -6.65 -2.4 -6.8 Q-2.1 -7.05 -1.75 -7.2 L-1.25 -7.4 -0.65 -7.55 0.05 -7.6 0.15 -7.55 0.7 -7.55 1.0 -7.5 1.15 -7.45 1.65 -7.3 1.8 -7.25 1.85 -7.2 2.45 -6.9 Q2.55 -6.85 2.75 -6.65 L2.75 -6.6 M6.6 -3.6 Q7.0 -2.55 7.15 -1.4 7.3 -0.4 7.3 0.85 7.3 1.95 6.9 3.2 6.5 4.45 5.9 5.15 L5.95 5.05 Q6.4 4.2 6.65 3.45 6.9 2.65 6.9 2.1 6.9 1.75 6.8 1.45 6.9 0.6 6.9 -0.4 6.9 -1.55 6.9 -1.8 L6.85 -2.1 Q6.85 -2.75 6.7 -3.25 L6.6 -3.6 M0.75 9.55 L-0.3 9.9 -1.1 9.8 -1.15 9.8 Q-1.2 10.05 -1.2 10.35 -1.25 10.6 -1.35 11.15 L-1.45 11.15 -1.45 9.95 -1.4 9.75 -1.7 9.7 -2.05 9.55 -2.15 10.15 Q-2.35 11.15 -2.4 11.35 L-2.6 11.35 -2.6 11.0 Q-2.6 10.35 -2.45 9.6 L-2.35 9.35 Q-2.45 9.3 -2.55 9.25 -2.85 9.1 -3.05 8.95 L-3.1 9.0 Q-3.2 9.25 -3.25 9.35 L-3.35 9.35 -3.2 8.8 -3.35 8.65 Q-3.4 8.45 -3.85 8.0 L-3.95 7.7 Q-3.9 7.8 -3.8 7.85 -3.6 8.05 -3.35 8.3 L-3.1 8.45 Q-3.1 8.4 -3.05 8.4 L-3.0 8.45 -3.0 8.55 Q-2.65 8.75 -2.25 8.9 -2.1 8.6 -1.95 8.3 L-1.95 8.7 Q-1.95 8.8 -1.95 9.05 L-1.4 9.2 -1.35 9.2 Q-1.35 9.0 -1.35 8.85 -1.35 8.7 -1.3 8.75 L-1.3 8.8 Q-1.2 8.9 -1.15 9.15 L-1.15 9.2 -0.25 9.2 0.9 9.15 1.1 9.15 Q1.3 9.2 1.35 9.25 1.2 9.4 0.75 9.55 M-3.6 -9.15 Q-3.35 -9.3 -2.95 -9.5 -2.4 -9.7 -1.45 -9.95 L-1.5 -9.9 Q-1.95 -9.75 -2.7 -9.2 -3.15 -8.9 -3.55 -8.5 -4.1 -8.0 -4.6 -7.25 -4.85 -6.9 -5.05 -6.55 L-5.2 -6.65 Q-5.7 -6.15 -6.25 -4.7 L-6.45 -4.1 -6.45 -4.25 Q-6.2 -5.6 -5.7 -6.5 -5.35 -7.0 -4.9 -7.65 -4.4 -8.35 -4.05 -8.7 -3.75 -9.0 -3.6 -9.15 M-7.0 -0.3 Q-7.0 0.9 -6.7 2.1 -6.4 3.4 -5.85 4.45 L-5.85 4.5 -5.9 4.55 Q-6.55 3.7 -6.85 2.7 -7.15 1.75 -7.15 0.75 -7.15 0.0 -7.05 -0.3 L-7.0 -0.3" fill="#ffffff" fill-rule="evenodd" stroke="none"/>
  </g>
</svg>
