<?xml version="1.0" encoding="UTF-8" standalone="no"?>
<svg xmlns:ffdec="https://www.free-decompiler.com/flash" xmlns:xlink="http://www.w3.org/1999/xlink" ffdec:objectType="shape" height="2.2px" width="7.95px" xmlns="http://www.w3.org/2000/svg">
  <g transform="matrix(1.0, 0.0, 0.0, 1.0, 3.7, 1.75)">
    <path d="M1.15 -0.95 Q1.1 -0.85 1.05 -0.8 1.0 -0.8 0.9 -0.85 L0.9 -0.95 1.15 -0.95 M0.6 -1.3 Q0.6 -1.25 0.6 -1.2 L0.55 -1.15 Q0.45 -1.2 0.45 -1.3 L0.6 -1.3 M2.5 -1.5 Q2.55 -1.5 2.6 -1.45 2.6 -1.4 2.55 -1.35 L2.5 -1.35 Q2.4 -1.4 2.4 -1.45 2.45 -1.5 2.5 -1.5 M2.5 -0.5 Q2.5 -0.45 2.55 -0.45 2.5 -0.45 2.4 -0.45 L2.4 -0.5 Q2.4 -0.6 2.4 -0.55 L2.5 -0.6 2.5 -0.5 M3.15 -0.05 Q3.4 -0.05 3.4 0.0 L3.4 0.05 Q3.15 0.05 3.1 0.0 L3.15 -0.05 M3.55 -0.7 L3.45 -0.7 Q3.4 -0.7 3.4 -0.75 L3.4 -0.85 3.45 -0.85 3.55 -0.7 M4.25 0.45 L4.2 0.45 Q4.15 0.45 4.15 0.35 4.25 0.35 4.25 0.4 L4.25 0.45 M-3.35 -0.45 L-3.35 -0.4 Q-3.45 -0.45 -3.45 -0.5 -3.5 -0.6 -3.5 -0.65 L-3.45 -0.65 Q-3.4 -0.6 -3.35 -0.45 M-1.95 -1.1 L-1.85 -1.1 Q-1.8 -1.1 -1.75 -1.05 -1.8 -0.95 -1.95 -0.95 -1.95 -1.0 -1.95 -1.1 M-0.4 -1.6 L-0.4 -1.75 -0.25 -1.75 Q-0.25 -1.65 -0.25 -1.6 L-0.3 -1.55 -0.4 -1.6 M-0.4 -0.75 L-0.4 -0.7 Q-0.55 -0.75 -0.55 -0.85 -0.5 -0.9 -0.35 -0.75 L-0.4 -0.75 M-3.55 0.4 Q-3.55 0.45 -3.6 0.45 L-3.65 0.45 -3.7 0.4 -3.7 0.35 Q-3.6 0.35 -3.55 0.4" fill="#ffffff" fill-rule="evenodd" stroke="none"/>
  </g>
</svg>
