<?xml version="1.0" encoding="UTF-8" standalone="no"?>
<svg xmlns:ffdec="https://www.free-decompiler.com/flash" xmlns:xlink="http://www.w3.org/1999/xlink" ffdec:objectType="shape" height="2.9px" width="8.65px" xmlns="http://www.w3.org/2000/svg">
  <g transform="matrix(1.0, 0.0, 0.0, 1.0, 3.95, 1.1)">
    <path d="M0.15 -0.7 Q0.1 -0.65 0.05 -0.65 -0.05 -0.65 -0.05 -0.7 L0.0 -0.8 0.15 -0.7 M0.8 -0.5 Q0.75 -0.55 0.75 -0.65 L0.85 -0.7 0.95 -0.65 0.95 -0.6 0.9 -0.55 Q0.85 -0.5 0.8 -0.5 M1.75 -0.65 Q1.65 -0.65 1.6 -0.7 1.65 -0.8 1.85 -0.7 1.8 -0.65 1.75 -0.65 M-3.75 -0.2 L-3.9 -0.2 -3.95 -0.3 Q-3.9 -0.35 -3.75 -0.35 L-3.7 -0.2 -3.75 -0.2 M-1.55 -1.1 L-1.45 -1.1 Q-1.4 -1.1 -1.35 -1.05 L-1.4 -1.0 Q-1.45 -0.95 -1.5 -0.95 -1.55 -1.0 -1.55 -1.1 M-2.45 -0.6 L-2.45 -0.55 Q-2.5 -0.5 -2.55 -0.5 -2.6 -0.55 -2.6 -0.65 L-2.5 -0.65 -2.45 -0.6 M-2.45 -0.3 Q-2.35 0.4 -2.3 0.7 L-2.35 0.7 Q-2.45 0.2 -2.5 -0.3 L-2.45 -0.3 M-1.4 -0.1 Q-1.35 -0.05 -1.35 0.05 L-1.4 0.1 -1.45 0.0 -1.45 -0.1 -1.4 -0.1 M-1.05 1.7 L-1.1 1.8 -1.3 1.8 Q-1.3 1.75 -1.2 1.7 L-1.05 1.65 -1.05 1.7 M-0.1 0.55 L-0.15 0.45 Q-0.15 0.35 -0.1 0.3 -0.1 0.25 0.1 0.1 L0.1 0.3 Q0.0 0.45 -0.05 0.55 L-0.1 0.55 M-0.15 1.2 Q0.3 0.9 0.6 0.85 0.45 1.0 -0.75 1.55 -0.55 1.4 -0.15 1.2 M-1.55 1.05 Q-1.5 0.95 -1.35 1.05 -1.35 1.1 -1.45 1.1 -1.5 1.1 -1.55 1.05 M-3.0 0.4 L-3.0 0.45 -3.05 0.45 -3.15 0.5 Q-3.15 0.4 -3.15 0.3 L-3.05 0.3 Q-3.0 0.35 -3.0 0.4 M-3.0 1.35 L-3.05 1.4 Q-3.15 1.35 -3.15 1.3 -3.1 1.3 -3.05 1.3 -3.0 1.3 -2.95 1.35 L-3.0 1.35 M4.7 0.35 Q4.7 0.45 4.65 0.5 4.55 0.45 4.55 0.4 4.65 0.3 4.7 0.35 M3.35 0.25 L3.3 0.2 Q3.25 0.2 3.2 0.15 3.15 0.1 3.15 0.05 L3.25 0.05 Q3.3 0.05 3.35 0.05 L3.35 0.25 M3.35 0.55 Q3.35 0.65 3.2 0.9 L3.0 1.3 2.9 1.3 3.1 0.85 Q3.25 0.55 3.35 0.55 M2.75 1.7 L2.75 1.8 2.65 1.8 Q2.6 1.75 2.6 1.65 L2.7 1.65 2.75 1.7 M2.2 0.7 Q2.15 0.75 2.1 0.75 2.0 0.75 1.95 0.7 L2.05 0.6 2.2 0.7 M0.95 0.65 L0.85 0.65 Q0.85 0.6 0.85 0.45 L0.9 0.45 Q0.95 0.45 1.0 0.5 1.0 0.6 0.95 0.65 0.95 0.75 0.75 0.8 L0.65 0.8 Q0.7 0.75 0.75 0.75 0.8 0.7 0.85 0.65 L0.95 0.65" fill="#ffffff" fill-rule="evenodd" stroke="none"/>
  </g>
</svg>
