<?xml version="1.0" encoding="UTF-8" standalone="no"?>
<svg xmlns:ffdec="https://www.free-decompiler.com/flash" xmlns:xlink="http://www.w3.org/1999/xlink" ffdec:objectType="shape" height="4.8px" width="9.55px" xmlns="http://www.w3.org/2000/svg">
  <g transform="matrix(1.0, 0.0, 0.0, 1.0, 4.85, -0.1)">
    <path d="M4.65 1.5 L4.65 1.4 4.7 1.4 4.7 1.45 4.65 1.5 M4.3 0.85 L4.3 0.9 4.25 0.9 4.25 0.85 4.3 0.85 M2.9 1.4 L2.9 1.35 3.0 1.2 Q3.05 1.15 3.1 1.25 3.0 1.4 2.9 1.4 M3.6 1.65 Q3.65 1.7 3.65 1.8 L3.6 1.85 Q3.55 1.8 3.55 1.75 L3.55 1.65 3.6 1.65 M3.45 2.3 L3.5 2.3 3.45 2.45 3.4 2.5 3.4 2.55 3.35 2.55 3.35 2.45 Q3.35 2.35 3.4 2.3 L3.45 2.3 M2.9 3.05 L2.8 3.1 2.75 3.1 Q2.8 3.0 2.85 3.05 L2.9 3.05 M3.2 3.05 L3.3 3.05 3.25 3.1 3.2 3.1 3.2 3.05 M4.25 2.65 L4.3 2.65 4.3 2.7 Q4.25 2.7 4.2 2.65 L4.25 2.65 M4.15 3.3 Q4.2 3.3 4.25 3.35 L4.2 3.45 4.1 3.5 Q4.1 3.45 4.1 3.35 L4.15 3.3 M4.55 2.45 L4.6 2.4 4.65 2.45 4.6 2.5 4.55 2.45 M4.55 1.9 L4.6 1.9 Q4.65 2.0 4.6 2.2 L4.55 2.2 Q4.55 2.15 4.55 1.9 M2.05 0.15 L2.0 0.15 Q1.95 0.2 1.95 0.15 1.95 0.1 2.0 0.1 L2.05 0.1 2.05 0.15 M1.65 0.75 Q1.75 0.9 1.75 1.05 L1.75 1.1 1.6 0.95 1.5 0.8 1.55 0.8 1.65 0.75 M1.15 2.0 Q1.2 1.95 1.25 2.0 1.25 2.05 1.3 2.05 1.25 2.15 1.15 2.15 1.15 2.1 1.15 2.0 M0.05 2.1 L-0.05 2.15 -0.05 1.9 0.05 1.9 Q0.1 1.95 0.05 2.1 M0.05 2.75 L-0.2 2.95 0.05 2.7 0.05 2.65 0.1 2.65 Q0.2 2.5 0.3 2.45 L0.1 2.7 0.1 2.75 0.05 2.75 M2.5 2.6 Q2.55 2.7 2.55 2.75 2.55 2.8 2.5 2.8 2.4 2.65 2.4 2.5 L2.5 2.5 2.5 2.6 M2.7 1.85 L2.7 1.8 2.75 1.8 2.75 1.85 2.7 1.85 M1.55 2.35 L1.65 2.35 1.65 2.45 1.55 2.45 1.55 2.35 M2.15 2.75 L2.1 2.75 2.1 2.7 2.15 2.75 M3.7 3.75 L3.55 3.75 Q3.5 3.75 3.5 3.65 L3.55 3.55 3.55 3.5 3.65 3.5 3.65 3.6 3.7 3.75 M3.5 3.95 L3.5 3.9 3.55 3.9 Q3.5 3.9 3.5 3.95 M4.0 4.75 L4.0 4.85 3.9 4.9 Q3.85 4.85 3.85 4.75 L4.0 4.75 M-1.0 1.25 L-1.05 1.3 -1.1 1.3 -1.05 1.25 -1.0 1.25 M-1.45 2.45 L-1.45 2.6 -1.5 2.5 -1.5 2.45 -1.45 2.45 M-2.55 2.3 L-2.55 2.35 -2.6 2.35 -2.6 2.3 -2.55 2.3 M-2.85 2.7 Q-2.85 2.75 -2.9 2.75 L-2.95 2.7 Q-2.85 2.65 -2.8 2.65 L-2.85 2.7 M-1.3 2.25 Q-1.25 2.3 -1.15 2.4 L-1.0 2.55 -1.05 2.6 Q-1.35 2.45 -1.35 2.3 L-1.3 2.25 M-0.8 3.25 L-0.8 3.25 M-0.25 3.45 L-0.3 3.45 -0.3 3.4 -0.25 3.4 -0.25 3.45 M-3.35 1.05 L-3.35 1.0 -3.3 1.0 -3.35 1.05 M-2.95 1.7 Q-2.9 1.7 -2.8 1.75 -2.85 1.8 -2.9 1.9 L-2.9 2.05 Q-2.95 1.95 -3.0 1.85 -3.0 1.75 -3.05 1.7 L-2.95 1.7 M-4.65 2.3 L-4.55 2.4 Q-4.6 2.4 -4.7 2.35 L-4.7 2.3 -4.65 2.3 M-4.8 2.6 L-4.8 2.7 -4.85 2.65 -4.85 2.6 -4.8 2.6 M-4.4 3.45 L-4.4 3.5 -4.45 3.55 -4.5 3.55 -4.5 3.45 -4.4 3.45 M-4.4 3.05 L-4.25 3.05 -4.2 3.15 -4.25 3.15 Q-4.25 3.2 -4.35 3.2 L-4.45 3.1 Q-4.45 3.05 -4.4 3.05 M-4.0 2.2 L-4.0 2.25 -4.1 2.25 -4.1 2.15 -4.15 2.05 -4.05 2.05 -4.0 2.2 M-3.1 3.15 L-3.15 3.1 -3.15 3.0 -3.1 2.95 Q-3.05 3.05 -3.05 3.15 L-3.1 3.15 M-3.4 3.55 L-3.45 3.55 Q-3.4 3.5 -3.35 3.5 L-3.35 3.55 -3.4 3.55 M-3.5 4.1 L-3.55 4.15 -3.55 4.1 -3.5 4.1 M-3.8 4.05 Q-3.85 4.05 -3.9 4.0 L-3.95 3.9 Q-3.85 3.85 -3.7 4.0 L-3.75 4.0 -3.8 4.05 M-4.2 3.8 L-4.3 3.8 -4.25 3.75 -4.2 3.8 M-3.75 4.5 L-4.35 4.65 -4.55 4.65 Q-4.45 4.55 -3.75 4.4 L-3.0 4.25 Q-3.15 4.35 -3.75 4.5" fill="#ffffff" fill-rule="evenodd" stroke="none"/>
  </g>
</svg>
