<?xml version="1.0" encoding="UTF-8" standalone="no"?>
<svg xmlns:ffdec="https://www.free-decompiler.com/flash" xmlns:xlink="http://www.w3.org/1999/xlink" ffdec:objectType="shape" height="5.15px" width="9.6px" xmlns="http://www.w3.org/2000/svg">
  <g transform="matrix(1.0, 0.0, 0.0, 1.0, 5.0, -1.2)">
    <path d="M4.3 1.2 L4.35 1.2 4.35 1.25 4.3 1.25 4.3 1.2 M3.7 2.5 L3.7 2.65 Q3.7 2.7 3.7 2.75 L3.55 2.75 3.55 2.6 Q3.55 2.5 3.6 2.45 L3.7 2.4 3.7 2.5 M3.3 3.3 L3.25 3.3 3.25 3.25 3.3 3.25 3.3 3.3 M4.4 2.3 L4.35 2.3 4.3 2.35 4.3 2.3 4.35 2.25 4.4 2.3 M4.55 2.55 L4.6 2.55 4.55 2.6 4.55 2.55 M4.4 3.15 L4.45 3.2 4.4 3.2 4.4 3.15 M0.1 2.35 L0.1 2.35 M0.45 2.6 Q0.45 2.65 0.45 2.7 L0.4 2.7 Q0.35 2.65 0.35 2.5 L0.45 2.5 Q0.45 2.55 0.45 2.6 M0.5 3.1 L0.45 3.1 Q0.45 3.05 0.5 3.05 L0.5 3.1 M1.45 2.45 Q1.45 2.5 1.45 2.45 L1.45 2.4 1.5 2.4 1.5 2.45 1.45 2.45 M2.0 2.4 L2.0 2.5 1.95 2.5 1.95 2.45 1.9 2.4 2.0 2.4 M2.8 3.4 L2.8 3.4 M0.4 3.65 L0.35 3.7 Q0.25 3.7 0.2 3.65 0.25 3.6 0.3 3.6 0.35 3.6 0.4 3.6 L0.4 3.65 M0.35 4.0 L0.3 4.0 Q0.25 4.0 0.25 3.95 L0.3 3.95 0.35 4.0 M0.1 6.05 L-0.9 6.35 Q-0.7 6.2 0.0 5.95 L0.95 5.7 Q0.6 5.85 0.1 6.05 M4.25 3.55 Q4.3 3.6 4.25 3.8 L4.2 3.85 Q4.15 3.8 4.15 3.55 L4.25 3.55 M4.15 4.15 Q4.2 4.1 4.25 4.15 L4.15 4.15 M3.4 4.25 L3.35 4.25 3.3 4.2 Q3.0 4.65 2.65 5.0 L3.25 4.15 Q3.25 4.1 3.25 4.05 L3.35 4.05 Q3.8 3.35 3.95 3.15 3.7 3.65 3.4 4.1 L3.4 4.25 M3.35 4.8 L3.35 4.85 3.25 4.85 Q3.25 4.8 3.35 4.75 L3.35 4.8 M3.95 4.75 L3.9 4.8 3.85 4.8 Q3.8 4.7 3.8 4.55 L3.9 4.5 3.95 4.5 3.95 4.75 M4.05 5.15 Q4.05 5.1 4.1 5.1 L4.1 5.2 4.05 5.2 4.05 5.15 M4.05 6.05 L4.05 6.1 4.0 6.15 Q3.9 6.1 3.9 6.0 L4.05 6.0 4.05 6.05 M3.7 5.5 Q3.65 5.55 3.55 5.55 L3.5 5.5 3.5 5.3 3.65 5.3 3.7 5.4 3.7 5.5 M3.65 6.15 L3.65 6.15 M-2.15 3.0 L-2.2 2.95 -2.25 2.95 Q-2.25 2.9 -2.2 2.9 L-2.15 3.0 M-0.55 2.05 L-0.6 2.1 -0.6 2.0 -0.55 2.0 -0.55 2.05 M-1.1 3.3 L-1.05 3.3 -1.05 3.45 -1.1 3.45 -1.1 3.3 M-0.6 3.25 L-0.6 3.3 -0.65 3.3 Q-0.75 3.15 -0.75 3.0 L-0.7 3.0 Q-0.65 3.0 -0.65 3.1 L-0.6 3.25 M-0.25 3.25 L-0.2 3.25 -0.15 3.2 -0.15 3.35 Q-0.15 3.5 -0.15 3.4 -0.2 3.45 -0.25 3.45 -0.3 3.4 -0.3 3.35 L-0.25 3.25 M-5.0 2.5 L-5.0 2.45 -4.9 2.4 -5.0 2.5 M-4.3 3.2 L-4.2 3.2 -4.15 3.3 -4.2 3.35 -4.25 3.35 Q-4.3 3.35 -4.35 3.3 L-4.35 3.2 -4.3 3.2 M-4.55 3.05 L-4.6 3.1 -4.6 3.05 -4.55 3.05 M-3.25 2.55 L-3.25 2.6 -3.3 2.65 Q-3.4 2.7 -3.4 2.65 L-3.35 2.55 -3.35 2.5 -3.3 2.5 -3.25 2.55 M-2.9 2.75 L-2.9 2.75 M-3.0 3.4 L-2.95 3.45 -3.0 3.5 -3.05 3.45 -3.05 3.4 -3.0 3.4 M-3.45 3.85 L-3.35 3.8 Q-3.3 3.8 -3.3 3.9 -3.3 4.0 -3.35 4.05 L-3.35 4.1 -3.4 4.1 Q-3.45 4.0 -3.45 3.85 M-3.8 3.9 L-3.9 4.0 -3.9 3.95 -4.85 4.5 Q-4.55 4.25 -3.9 3.85 L-3.9 3.8 -3.8 3.8 -2.75 3.1 Q-3.3 3.55 -3.8 3.9 M-3.7 4.8 L-3.75 4.8 Q-3.9 4.8 -3.95 4.7 L-3.85 4.65 -3.7 4.8 M-3.6 4.45 L-3.65 4.45 -3.65 4.4 -3.6 4.4 -3.6 4.45 M-4.8 3.6 L-4.8 3.55 -4.75 3.6 Q-4.75 3.65 -4.8 3.65 L-4.8 3.6 M-4.8 4.0 L-4.85 3.95 -4.8 3.95 -4.8 4.0 M-4.45 4.55 L-4.45 4.6 -4.5 4.6 -4.5 4.55 -4.45 4.55 M-4.3 4.85 L-4.25 4.95 -4.35 4.95 -4.35 4.85 -4.3 4.85 M-3.7 5.6 L-3.75 5.6 -3.8 5.4 -3.7 5.4 -3.7 5.5 Q-3.7 5.55 -3.7 5.6 M-0.4 4.1 L-0.4 4.15 -0.45 4.15 Q-0.55 4.15 -0.55 4.1 -0.55 4.0 -0.45 4.0 -0.4 4.0 -0.4 4.1 M-0.7 3.95 L-0.7 3.95 M-0.05 4.25 Q0.0 4.35 -0.05 4.4 L-0.05 4.45 Q-0.1 4.4 -0.1 4.35 L-0.1 4.25 -0.05 4.25" fill="#ffffff" fill-rule="evenodd" stroke="none"/>
  </g>
</svg>
