<?xml version="1.0" encoding="UTF-8" standalone="no"?>
<svg xmlns:ffdec="https://www.free-decompiler.com/flash" xmlns:xlink="http://www.w3.org/1999/xlink" ffdec:objectType="shape" height="6.3px" width="21.6px" xmlns="http://www.w3.org/2000/svg">
  <g transform="matrix(1.0, 0.0, 0.0, 1.0, 11.9, 7.35)">
    <path d="M4.5 -4.8 L3.9 -4.4 Q4.15 -4.85 5.15 -5.55 6.05 -6.2 6.55 -6.4 L6.65 -6.4 Q7.5 -6.8 8.5 -6.95 L9.55 -6.95 9.7 -6.8 9.7 -6.6 Q9.7 -6.25 9.3 -6.0 8.85 -5.6 7.95 -5.6 L7.95 -5.65 7.55 -5.65 7.15 -5.6 6.55 -5.5 Q5.9 -5.4 5.3 -5.2 4.8 -5.0 4.5 -4.8 M9.65 -4.05 Q9.65 -3.85 9.55 -3.7 L9.35 -3.45 Q9.25 -3.6 9.25 -3.65 L9.3 -3.75 9.3 -4.1 Q9.3 -4.25 9.2 -4.4 L9.1 -4.6 Q9.35 -4.75 9.55 -4.45 9.65 -4.2 9.65 -4.05 M-11.7 -6.75 Q-11.5 -7.2 -11.2 -7.35 L-10.85 -7.25 -10.8 -7.2 Q-10.75 -7.2 -10.75 -7.1 -10.75 -7.05 -11.05 -6.85 -11.35 -6.65 -11.45 -6.45 -11.55 -6.3 -11.55 -5.7 -11.55 -5.45 -11.25 -4.35 L-11.1 -3.65 -11.0 -3.35 -11.0 -3.15 Q-11.0 -3.1 -11.05 -3.1 -11.2 -3.45 -11.5 -4.45 -11.45 -4.6 -11.45 -4.65 -11.45 -4.9 -11.65 -5.2 L-11.75 -5.3 -11.9 -5.85 Q-11.9 -6.3 -11.7 -6.75 M-8.45 -5.7 L-8.5 -5.65 Q-8.85 -5.85 -9.1 -6.15 L-9.45 -6.75 Q-9.15 -6.8 -8.85 -6.4 -8.6 -6.05 -8.45 -5.75 L-8.45 -5.7 M-9.5 -2.1 L-9.5 -2.3 -9.45 -2.35 -9.1 -2.3 Q-8.95 -2.15 -8.95 -2.05 -9.15 -1.9 -9.15 -1.65 L-9.1 -1.45 Q-9.0 -1.3 -8.95 -1.1 -9.0 -1.05 -9.05 -1.05 L-10.15 -2.35 Q-10.05 -2.35 -9.8 -2.25 L-9.5 -2.1" fill="#6200ff" fill-rule="evenodd" stroke="none"/>
  </g>
</svg>
