<?xml version="1.0" encoding="UTF-8" standalone="no"?>
<svg xmlns:ffdec="https://www.free-decompiler.com/flash" xmlns:xlink="http://www.w3.org/1999/xlink" ffdec:objectType="shape" height="17.55px" width="28.05px" xmlns="http://www.w3.org/2000/svg">
  <g transform="matrix(1.0, 0.0, 0.0, 1.0, 14.15, 11.75)">
    <path d="M7.9 -7.15 Q9.25 -6.8 10.4 -5.8 L9.7 -6.2 9.65 -6.2 9.4 -6.35 Q9.0 -6.55 8.5 -6.75 L8.95 -6.5 Q9.5 -6.15 9.75 -5.85 L8.8 -6.4 Q8.35 -6.65 7.95 -6.8 L7.35 -6.95 7.25 -7.0 Q7.2 -7.05 7.2 -7.15 7.2 -7.35 7.3 -7.4 L7.25 -7.45 Q8.05 -7.55 9.6 -7.1 11.25 -6.65 11.5 -6.15 L11.5 -6.1 Q10.85 -6.4 10.4 -6.6 11.1 -6.2 11.6 -5.65 L11.55 -5.6 Q10.7 -6.25 10.15 -6.45 9.6 -6.65 7.9 -7.15 M2.4 -5.25 Q1.95 -4.65 1.65 -4.05 0.95 -2.7 0.55 -1.8 L0.2 -0.95 Q0.15 -1.05 0.2 -1.15 L0.2 -1.4 Q0.2 -1.5 0.15 -1.6 0.05 -1.75 0.05 -1.85 0.05 -2.3 0.85 -3.65 L1.7 -5.0 Q1.9 -5.5 2.4 -6.0 2.85 -6.4 3.45 -6.85 L4.05 -7.2 Q3.1 -6.35 2.4 -5.25 M11.4 -0.95 L11.45 -1.0 11.5 -0.95 11.5 -0.8 11.6 -0.95 11.65 -0.9 11.65 -0.8 Q11.8 -0.85 11.85 -0.75 11.9 -0.7 11.9 -0.55 11.9 -0.4 11.7 -0.1 11.45 0.15 11.25 0.25 L11.5 -0.25 11.55 -0.4 Q11.35 -0.1 10.9 0.5 10.2 1.35 10.0 1.45 L11.45 -0.7 11.35 -0.6 11.15 -0.45 11.05 -0.45 11.2 -0.75 11.25 -0.8 11.2 -0.8 Q11.1 -0.9 11.05 -0.95 L11.15 -1.0 11.4 -0.95 M12.1 -0.6 L12.1 -0.7 12.4 -0.55 Q12.7 -0.6 12.8 -0.5 L12.85 -0.4 13.0 -0.35 13.05 -0.3 13.4 -0.2 13.6 -0.15 13.6 -0.1 13.65 -0.1 Q13.7 -0.2 13.7 0.0 13.7 0.15 13.2 0.85 12.75 1.5 12.6 1.65 L13.25 0.55 12.95 0.75 Q12.65 1.25 12.0 2.0 10.9 3.25 10.4 3.65 10.4 3.75 10.4 3.6 L11.75 1.9 12.0 1.6 Q11.3 2.4 11.0 2.65 L10.95 2.6 12.35 0.85 12.65 0.2 12.5 0.5 12.05 1.1 12.0 1.05 Q12.5 0.05 12.5 -0.15 12.5 -0.25 12.45 -0.35 L12.4 -0.45 12.1 -0.55 12.1 -0.6 M13.75 -1.05 L13.9 -0.85 13.7 -0.8 Q13.55 -0.8 13.45 -0.85 13.3 -0.9 13.25 -0.95 13.6 -1.15 13.75 -1.05 M13.15 -0.2 L13.15 -0.2 M-12.05 -11.25 Q-11.35 -11.5 -10.7 -11.6 L-8.55 -11.75 -7.85 -11.7 -7.8 -11.7 Q-7.45 -11.6 -7.2 -11.45 -6.85 -11.35 -6.7 -11.2 -6.6 -11.1 -6.6 -10.85 L-6.6 -10.75 -6.65 -10.7 -6.65 -10.6 -6.7 -10.6 Q-6.8 -10.45 -7.0 -10.3 -7.3 -10.65 -7.75 -10.95 -8.3 -11.2 -8.8 -11.3 L-9.2 -11.4 Q-11.15 -11.85 -13.2 -10.25 -13.7 -9.85 -14.1 -9.3 L-14.1 -9.3 Q-13.85 -9.7 -13.3 -10.25 L-12.85 -10.8 Q-12.55 -11.05 -12.05 -11.25 M-4.8 -7.4 L-5.55 -7.0 Q-6.1 -6.75 -6.35 -6.55 L-7.15 -6.4 -7.6 -6.45 -8.0 -6.55 -8.45 -6.65 -8.65 -6.9 -8.7 -6.95 Q-8.75 -7.15 -8.5 -7.4 L-8.25 -7.6 -8.1 -7.6 -8.4 -7.35 Q-8.5 -7.2 -8.4 -7.1 -8.35 -7.25 -8.2 -7.3 L-8.15 -7.2 -7.95 -7.0 Q-7.8 -6.9 -7.4 -6.9 -7.05 -6.9 -6.55 -7.2 L-6.0 -7.45 Q-5.3 -7.85 -4.6 -8.3 -5.2 -7.75 -5.85 -7.35 L-6.05 -7.25 -5.6 -7.45 Q-6.0 -7.15 -6.25 -6.95 L-5.7 -7.1 -4.8 -7.4 M-8.75 -6.2 L-9.0 -6.45 -9.1 -6.65 -9.05 -6.65 -8.75 -6.3 -8.75 -6.2 M-5.3 3.25 L-4.25 3.55 Q-3.85 3.6 -2.8 3.9 L-2.7 3.75 Q-2.4 3.3 -2.2 3.2 -2.3 3.5 -2.5 3.8 L-2.6 3.95 -2.1 4.1 -2.05 4.15 -1.75 4.2 -1.9 4.3 -1.95 4.35 -2.05 4.4 -2.1 4.4 -2.3 4.45 -2.85 4.6 -3.0 4.55 Q-3.2 4.5 -3.25 4.45 L-3.2 4.45 -3.7 4.3 -4.45 4.1 -4.95 3.95 -6.1 3.65 Q-6.4 3.6 -7.45 3.1 L-7.55 3.0 -7.5 2.95 Q-7.1 3.2 -5.95 3.5 L-6.1 3.45 -6.1 3.4 -6.05 3.4 -5.0 3.5 -4.05 3.8 -3.75 3.85 -3.5 3.95 Q-3.8 3.85 -4.1 3.7 L-4.2 3.65 -5.3 3.3 -5.3 3.25 M-4.65 3.85 L-4.5 3.9 -4.4 3.9 -4.65 3.85 M-5.15 4.6 L-0.7 5.65 -0.65 5.7 -0.65 5.75 -0.8 5.8 Q-1.35 5.7 -3.1 5.25 -5.0 4.75 -5.2 4.65 L-5.15 4.6" fill="#6200ff" fill-rule="evenodd" stroke="none"/>
  </g>
</svg>
