<?xml version="1.0" encoding="UTF-8" standalone="no"?>
<svg xmlns:ffdec="https://www.free-decompiler.com/flash" xmlns:xlink="http://www.w3.org/1999/xlink" ffdec:objectType="shape" height="28.6px" width="24.75px" xmlns="http://www.w3.org/2000/svg">
  <g transform="matrix(1.0, 0.0, 0.0, 1.0, 11.0, 28.95)">
    <path d="M10.8 -27.1 L10.6 -26.9 10.75 -27.0 Q10.2 -26.35 8.8 -25.7 7.4 -25.05 6.45 -24.95 6.85 -25.05 7.2 -25.15 8.1 -25.45 8.1 -25.8 8.2 -25.9 8.2 -25.95 L8.2 -26.0 7.8 -26.05 7.45 -26.05 7.25 -26.1 7.0 -26.1 6.75 -26.15 Q3.8 -26.75 1.7 -27.5 0.35 -27.95 -0.35 -28.4 -0.75 -28.6 -0.9 -28.8 L-1.0 -28.95 -0.95 -28.95 -0.45 -28.55 Q-0.1 -28.35 0.35 -28.25 L2.35 -27.75 2.95 -27.65 3.55 -27.6 5.75 -27.6 5.75 -27.55 6.8 -27.55 6.8 -27.6 8.75 -27.55 Q9.85 -27.5 10.25 -27.35 L10.75 -27.15 10.8 -27.2 10.85 -27.15 10.8 -27.1 M1.15 -16.95 Q-0.35 -17.6 -1.3 -18.85 -2.15 -20.0 -2.15 -21.15 -2.15 -22.3 -1.2 -23.4 L-0.75 -23.95 Q0.3 -25.05 1.75 -25.2 0.45 -24.85 -0.5 -23.8 L-0.85 -23.35 Q-1.15 -22.8 -1.15 -22.3 -1.15 -20.75 0.4 -19.3 1.8 -18.05 4.25 -17.0 L5.2 -16.7 Q6.65 -16.25 9.35 -15.95 L9.9 -15.9 10.5 -15.85 10.75 -15.8 Q11.1 -15.75 11.2 -15.7 L11.2 -15.65 Q12.75 -15.05 13.35 -13.95 13.75 -13.2 13.75 -11.75 13.75 -11.1 13.4 -10.0 13.0 -8.85 12.65 -8.5 L12.6 -8.5 Q12.3 -7.8 11.65 -7.0 L12.4 -8.6 Q12.75 -9.35 12.75 -10.0 12.75 -11.55 12.2 -12.4 11.65 -13.3 10.3 -14.0 9.15 -14.6 6.6 -15.45 L0.65 -17.3 0.6 -17.35 Q0.85 -17.15 1.15 -16.95 M1.0 -0.7 Q-0.6 -0.35 -1.3 -0.35 L-1.65 -0.4 -1.95 -0.35 -3.3 -0.45 Q2.9 -1.1 6.6 -3.05 7.85 -3.7 9.25 -4.75 L11.5 -6.4 11.15 -5.95 Q9.45 -3.5 4.65 -1.75 2.85 -1.1 1.0 -0.7 M-4.5 -12.95 Q-4.05 -12.7 -3.85 -12.55 -3.5 -12.3 -3.5 -11.95 -3.5 -11.8 -3.7 -11.5 -3.9 -11.2 -4.1 -11.1 L-4.1 -11.2 -3.9 -11.55 Q-3.75 -11.9 -3.75 -11.95 -3.75 -12.1 -4.1 -12.5 -4.35 -12.85 -4.5 -12.9 L-4.5 -12.95 M-5.7 -13.45 L-5.65 -13.5 Q-5.5 -13.5 -5.25 -13.4 -5.0 -13.25 -4.95 -13.2 -5.05 -13.2 -5.3 -13.3 L-5.7 -13.45 M-4.55 -10.75 Q-4.4 -10.95 -4.35 -11.0 -4.3 -11.1 -4.3 -10.95 -4.3 -10.9 -4.5 -10.7 L-4.55 -10.75 M-9.25 -1.5 Q-8.9 -1.25 -7.6 -0.95 -6.0 -0.6 -3.95 -0.4 L-4.35 -0.35 Q-5.2 -0.35 -7.05 -0.75 -9.0 -1.2 -9.3 -1.5 L-9.25 -1.5 M-10.9 -3.15 L-10.95 -3.15 -11.0 -3.25 -11.0 -3.5 -10.9 -3.55 Q-10.95 -3.4 -10.85 -3.25 L-10.9 -3.15" fill="#220058" fill-rule="evenodd" stroke="none"/>
  </g>
</svg>
