<?xml version="1.0" encoding="UTF-8" standalone="no"?>
<svg xmlns:ffdec="https://www.free-decompiler.com/flash" xmlns:xlink="http://www.w3.org/1999/xlink" ffdec:objectType="shape" height="36.9px" width="23.65px" xmlns="http://www.w3.org/2000/svg">
  <g transform="matrix(1.0, 0.0, 0.0, 1.0, 9.1, 38.3)">
    <path d="M1.7 -29.3 L8.2 -28.75 10.2 -28.55 Q10.4 -28.5 10.7 -28.3 L10.65 -28.2 10.7 -28.05 Q10.7 -27.1 7.7 -26.2 L7.65 -26.25 8.4 -26.55 8.75 -26.9 Q8.75 -27.05 8.45 -27.1 7.8 -27.3 7.7 -27.35 L7.7 -27.4 Q5.35 -27.85 2.05 -28.15 L-2.9 -28.6 -2.95 -28.6 -3.4 -28.65 -3.5 -28.65 -3.8 -28.7 -3.65 -28.7 -3.8 -28.75 -3.9 -28.8 Q-3.95 -28.8 -3.95 -28.85 L-3.4 -28.75 Q-6.1 -29.3 -7.75 -31.25 -8.4 -32.0 -8.75 -32.9 -9.1 -33.7 -9.1 -34.3 -9.1 -35.35 -8.35 -36.45 -7.65 -37.4 -6.75 -37.9 -6.15 -38.4 -5.4 -38.3 L-5.4 -38.25 -5.5 -38.25 Q-5.4 -37.7 -5.1 -37.0 L-4.45 -35.75 -4.5 -35.65 -5.0 -36.05 Q-5.3 -36.35 -5.5 -36.4 -5.55 -36.35 -5.55 -36.1 -5.55 -35.8 -5.25 -35.0 -4.95 -34.25 -4.95 -33.85 L-5.0 -33.7 -5.05 -33.6 -5.1 -33.7 Q-5.15 -33.75 -5.25 -33.75 -5.45 -33.75 -5.55 -33.5 -5.6 -33.4 -5.6 -33.25 -5.6 -33.1 -5.35 -32.65 L-5.0 -32.05 Q-5.05 -32.05 -5.15 -32.1 L-4.9 -31.8 -4.5 -31.35 Q-4.35 -31.15 -3.9 -30.95 -3.35 -30.65 -2.45 -30.35 L-1.3 -30.0 Q0.25 -29.55 1.5 -29.3 L1.7 -29.3 M14.25 -14.35 L14.3 -14.4 14.45 -13.8 14.55 -13.25 Q14.55 -12.85 14.3 -12.25 L14.2 -12.0 14.1 -11.55 Q13.85 -10.75 13.2 -10.05 L13.15 -10.05 Q13.85 -11.1 14.0 -12.2 14.15 -12.55 14.2 -12.8 14.15 -13.95 12.8 -15.05 11.45 -16.1 9.45 -16.6 L9.3 -16.6 4.65 -17.35 Q1.75 -17.8 1.5 -17.9 -0.15 -18.5 -1.1 -19.25 L-1.05 -19.2 Q-1.9 -19.65 -2.35 -20.5 -2.7 -21.2 -2.7 -21.9 -2.7 -23.1 -2.1 -24.1 -1.4 -25.3 0.0 -25.9 L0.15 -25.85 Q-2.55 -24.65 -2.55 -21.9 -2.55 -21.5 -2.4 -21.1 -1.2 -19.25 1.3 -18.3 3.05 -17.65 6.1 -17.3 L10.55 -16.7 Q11.25 -16.55 11.75 -16.35 14.2 -15.45 14.2 -14.25 L14.2 -14.15 Q14.2 -14.3 14.25 -14.35 M0.45 -1.4 L0.85 -1.6 Q5.25 -2.9 7.6 -4.25 9.85 -5.5 11.9 -7.85 10.75 -6.4 10.0 -5.7 9.0 -4.7 7.85 -4.05 5.55 -2.7 0.45 -1.4" fill="#220058" fill-rule="evenodd" stroke="none"/>
  </g>
</svg>
