<?xml version="1.0" encoding="UTF-8" standalone="no"?>
<svg xmlns:ffdec="https://www.free-decompiler.com/flash" xmlns:xlink="http://www.w3.org/1999/xlink" ffdec:objectType="shape" height="21.45px" width="15.8px" xmlns="http://www.w3.org/2000/svg">
  <g transform="matrix(1.0, 0.0, 0.0, 1.0, 4.5, 38.05)">
    <path d="M1.65 -38.05 L1.7 -38.05 1.9 -37.8 2.8 -36.6 Q3.5 -35.65 5.1 -34.25 L7.25 -32.45 8.05 -31.85 9.3 -30.75 Q8.65 -31.05 8.05 -31.55 L7.95 -31.5 7.6 -31.45 7.55 -31.4 Q8.2 -31.0 8.65 -30.45 L8.65 -30.35 8.75 -30.25 8.75 -30.2 9.6 -29.5 9.55 -29.45 Q9.7 -29.4 9.5 -29.4 L8.45 -30.2 Q6.45 -29.35 5.95 -29.15 L5.7 -29.1 6.15 -29.4 5.8 -29.25 Q5.3 -29.0 4.8 -28.8 3.8 -28.3 2.95 -27.9 L2.2 -27.5 2.35 -27.35 Q2.8 -26.95 3.25 -26.4 4.1 -25.4 4.4 -24.75 L4.35 -24.7 Q3.9 -25.2 3.35 -25.9 L3.25 -25.9 3.2 -25.8 3.45 -25.3 3.45 -25.2 Q3.4 -25.25 3.25 -25.3 L3.05 -25.35 2.6 -25.35 2.55 -25.25 Q2.7 -24.9 2.65 -24.85 2.55 -24.85 2.55 -24.75 L2.75 -24.4 Q2.95 -24.0 3.0 -23.85 L2.95 -23.8 3.35 -23.0 3.35 -22.95 Q2.95 -23.45 1.75 -24.95 L1.05 -25.85 0.45 -26.45 0.2 -26.3 Q-1.1 -25.4 -1.85 -24.65 L-1.85 -24.75 -1.8 -24.95 -1.75 -25.1 -1.75 -25.15 Q-2.45 -24.65 -3.15 -23.85 L-4.05 -22.75 -4.35 -22.2 -4.4 -22.2 Q-4.5 -22.2 -4.5 -22.3 -4.5 -22.6 -3.1 -24.65 -2.6 -25.35 -2.25 -25.8 L-1.95 -26.05 -2.6 -25.5 -2.6 -25.6 Q-1.75 -26.6 -0.7 -27.5 -1.35 -28.1 -1.95 -28.55 -2.9 -29.2 -3.55 -29.9 -4.3 -30.8 -4.3 -31.4 -4.3 -32.6 -2.75 -31.85 -1.55 -31.25 -0.15 -30.0 L0.95 -28.8 1.35 -29.05 Q2.55 -29.85 3.75 -30.4 L4.05 -30.55 Q4.55 -30.85 5.05 -30.95 5.3 -31.0 5.85 -31.2 5.3 -31.5 4.75 -32.1 4.6 -32.25 3.95 -32.7 3.3 -33.15 3.15 -33.35 2.75 -33.75 2.1 -34.6 L1.05 -35.8 Q0.45 -36.45 -0.3 -37.75 L-0.55 -38.05 1.65 -38.05 M6.1 -31.55 L6.15 -31.5 6.15 -31.3 6.25 -31.35 6.45 -31.4 Q6.25 -31.55 6.15 -31.6 L6.1 -31.55 M11.05 -26.0 L11.15 -25.85 11.15 -25.65 Q11.3 -25.1 11.3 -24.8 11.3 -23.15 9.05 -20.5 6.9 -17.9 4.8 -16.9 L4.8 -16.95 5.3 -17.25 5.45 -17.45 4.6 -17.25 4.65 -17.3 Q4.1 -16.95 3.5 -16.7 L3.2 -16.65 3.15 -16.7 3.8 -17.05 Q3.9 -17.2 4.05 -17.35 L3.8 -17.35 Q3.9 -17.55 4.0 -17.65 L4.05 -17.65 Q3.65 -17.45 3.35 -17.35 2.8 -17.1 2.6 -17.1 2.45 -17.1 2.05 -16.9 L1.4 -16.65 1.4 -16.7 1.15 -16.6 1.05 -16.6 Q1.35 -16.9 2.5 -17.5 3.75 -18.25 4.25 -18.6 4.8 -18.95 5.55 -19.65 L6.7 -20.75 Q7.5 -21.55 8.65 -22.95 L8.75 -23.1 8.7 -23.1 Q9.15 -23.6 9.65 -24.85 10.1 -26.0 10.55 -26.45 L10.75 -26.45 Q10.9 -26.35 11.05 -25.95 L11.05 -26.0" fill="#220058" fill-rule="evenodd" stroke="none"/>
  </g>
</svg>
