<?xml version="1.0" encoding="UTF-8" standalone="no"?>
<svg xmlns:ffdec="https://www.free-decompiler.com/flash" xmlns:xlink="http://www.w3.org/1999/xlink" ffdec:objectType="shape" height="65.5px" width="75.3px" xmlns="http://www.w3.org/2000/svg">
  <g transform="matrix(1.0, 0.0, 0.0, 1.0, 37.65, 37.65)">
    <path d="M26.65 -26.6 Q37.55 -15.7 37.65 0.0 L37.65 0.4 Q37.6 3.15 37.2 5.65 L37.2 5.95 Q37.2 7.7 36.05 11.35 L36.05 11.3 35.6 12.6 35.25 13.4 35.3 13.5 Q34.95 14.05 34.95 14.4 L34.9 14.45 34.95 14.5 34.9 14.6 34.8 14.55 34.7 14.45 34.65 14.5 34.55 14.4 Q34.35 14.25 34.0 14.25 30.8 14.25 27.6 15.3 25.6 16.0 22.4 17.6 21.6 18.0 20.35 18.5 L18.35 19.35 Q17.1 19.9 16.35 20.2 L15.5 20.5 15.4 20.5 15.35 20.55 Q13.85 21.3 13.0 21.6 11.5 22.25 10.3 22.7 6.8 24.05 2.65 24.95 0.65 25.5 -1.65 25.7 L-4.55 25.9 Q-6.95 26.1 -7.4 25.95 L-7.5 26.0 -8.2 25.95 -8.8 25.9 -9.8 25.85 -9.85 25.8 -10.5 25.75 -10.75 25.7 -10.95 25.65 -11.4 25.65 -11.55 25.5 -9.0 25.6 -7.55 25.65 Q-2.55 25.25 1.65 24.3 L4.45 23.6 5.35 23.25 6.95 22.55 Q8.0 22.05 8.6 21.85 10.15 21.25 12.75 20.1 L13.8 19.6 Q19.8 16.5 22.2 15.35 L24.45 14.2 Q26.1 13.4 27.3 12.85 28.15 12.5 29.4 11.8 30.65 11.25 32.8 10.8 L32.8 10.75 Q34.55 10.75 35.0 10.8 34.65 10.7 34.25 10.6 L33.6 10.55 32.65 10.55 Q31.15 10.85 29.85 11.2 27.45 12.4 24.55 13.6 L19.15 15.8 17.1 16.7 16.95 16.8 16.8 16.85 16.1 17.2 Q14.7 17.85 11.6 19.1 L9.5 19.8 Q8.5 20.25 7.35 20.65 5.9 21.15 4.85 21.45 2.55 22.25 -1.0 22.8 L-6.5 23.5 -7.45 23.4 -4.95 23.05 -4.15 22.9 -3.45 22.8 1.35 21.9 Q3.8 21.35 4.65 20.9 L2.5 21.35 0.0 21.9 -1.1 22.2 -2.35 22.4 -3.05 22.45 Q-4.35 22.8 -5.5 22.8 L-5.7 22.8 -6.0 22.85 -7.3 22.95 -10.4 22.85 -10.55 22.85 -11.3 22.8 -11.35 22.8 -13.0 22.7 -13.05 22.7 -12.15 22.9 -12.8 22.85 -14.95 22.8 -17.0 22.65 -17.3 22.6 -18.0 22.5 -19.55 22.1 Q-21.1 21.75 -21.7 21.5 L-24.3 20.5 -25.95 19.85 Q-28.1 18.75 -30.5 17.0 -32.5 15.6 -34.25 13.8 L-35.35 12.55 Q-34.8 14.05 -33.0 15.95 -31.9 17.1 -29.95 18.8 L-29.35 19.25 Q-27.6 20.5 -25.8 21.5 -24.25 22.4 -23.6 22.6 L-23.45 22.6 Q-23.35 22.65 -23.3 22.7 L-23.4 22.7 -22.95 22.85 -20.15 23.8 -19.7 23.95 -19.35 24.05 -18.05 24.45 Q-16.6 24.75 -16.2 24.9 L-16.2 24.95 -17.1 24.75 -17.2 24.75 -19.95 24.3 Q-22.75 23.65 -24.5 23.05 -27.2 22.15 -28.6 21.05 L-30.0 20.05 Q-31.15 19.25 -31.55 18.9 L-32.9 17.75 Q-33.35 17.3 -33.65 16.9 -34.35 16.25 -34.65 15.3 L-34.9 14.35 -35.0 14.1 -35.5 13.1 Q-35.85 12.5 -35.85 12.35 L-35.8 12.2 -35.75 12.2 -35.6 12.45 -35.7 12.15 -35.9 11.9 Q-36.6 9.85 -36.75 8.3 -37.65 4.55 -37.65 0.0 -37.65 -15.6 -26.65 -26.6 -15.6 -37.65 0.0 -37.65 15.6 -37.65 26.65 -26.6 M34.4 15.5 Q34.55 15.6 34.35 15.6 L34.1 15.45 Q33.85 15.35 33.4 15.35 32.95 15.35 32.85 15.4 32.15 15.35 31.35 15.55 L30.2 15.8 30.3 15.65 31.4 15.4 Q32.2 15.25 32.85 15.25 L32.85 15.2 Q34.15 15.3 34.35 15.45 L34.4 15.5 M29.0 16.15 Q26.7 16.85 21.7 19.5 18.05 21.4 15.6 22.55 12.65 24.1 9.85 25.15 6.25 26.45 1.55 27.45 L1.45 27.4 0.85 27.55 0.45 27.55 0.0 27.6 -0.4 27.65 -0.85 27.7 -1.85 27.8 -2.65 27.8 -3.2 27.85 -3.75 27.8 Q-4.15 27.75 -4.15 27.7 L-4.1 27.7 -3.65 27.75 -3.15 27.7 -2.0 27.6 -0.8 27.5 0.1 27.4 Q3.15 26.95 6.0 26.05 L7.4 25.65 9.45 24.9 Q11.3 24.2 14.25 23.0 15.5 22.35 17.6 21.3 20.7 19.75 21.65 19.2 22.35 18.75 23.65 18.25 L25.55 17.4 Q26.95 16.75 27.15 16.65 28.1 16.25 28.95 16.1 L29.0 16.15 M-31.3 20.9 Q-29.75 22.35 -28.25 23.4 -26.4 24.7 -24.3 25.6 L-24.3 25.65 Q-26.7 24.8 -28.6 23.5 -30.35 22.3 -31.35 20.9 L-31.3 20.9" fill="#ffff00" fill-opacity="0.2" fill-rule="evenodd" stroke="none"/>
  </g>
</svg>
