<?xml version="1.0" encoding="UTF-8" standalone="no"?>
<svg xmlns:ffdec="https://www.free-decompiler.com/flash" xmlns:xlink="http://www.w3.org/1999/xlink" ffdec:objectType="shape" height="57.55px" width="65.4px" xmlns="http://www.w3.org/2000/svg">
  <g transform="matrix(1.0, 0.0, 0.0, 1.0, 37.55, 35.0)">
    <path d="M24.6 -31.4 Q25.35 -31.9 25.55 -32.0 26.05 -31.95 26.4 -31.7 26.7 -31.4 26.7 -31.05 26.7 -30.7 27.0 -30.4 L27.35 -29.95 Q27.85 -28.2 27.85 -27.85 27.85 -27.55 27.7 -27.1 27.25 -27.4 26.65 -27.6 25.55 -27.9 24.3 -27.8 23.5 -28.0 23.0 -28.45 22.45 -28.9 22.45 -29.35 22.45 -29.5 22.55 -29.65 22.7 -29.85 23.15 -30.2 L22.9 -30.7 Q22.6 -31.1 22.15 -31.35 22.15 -31.55 22.2 -31.7 L22.95 -31.35 Q23.6 -31.0 23.85 -31.0 23.9 -31.0 24.6 -31.4 M13.45 -15.95 L13.5 -15.95 14.0 -16.15 Q14.3 -16.05 14.35 -15.95 L13.4 -15.55 13.75 -15.5 13.8 -15.55 Q13.8 -15.5 13.8 -15.3 13.8 -15.15 13.65 -14.9 13.5 -14.6 13.25 -14.55 13.35 -14.5 13.5 -14.45 13.55 -14.45 13.55 -14.2 13.55 -13.75 10.7 -12.0 L8.25 -10.6 10.9 -11.9 Q10.95 -11.8 10.9 -11.7 L7.75 -9.95 Q5.55 -8.8 4.3 -8.25 L4.2 -8.3 Q4.6 -8.6 5.3 -9.05 5.0 -8.9 4.75 -8.8 L3.45 -8.25 Q2.7 -7.8 0.15 -6.5 -3.45 -4.7 -4.0 -4.7 -5.15 -4.7 -5.7 -4.9 -5.95 -5.0 -6.05 -5.1 -6.3 -5.1 -7.15 -4.75 -7.95 -4.45 -8.15 -4.3 L-8.25 -4.35 Q-8.35 -4.4 -8.4 -4.45 -8.2 -4.6 -8.0 -4.8 L-7.6 -5.25 -7.65 -5.3 -8.05 -5.1 -7.65 -5.4 -7.8 -5.55 -10.85 -3.85 -11.1 -3.85 Q-11.15 -3.9 -11.15 -4.1 L-10.1 -4.85 Q-8.9 -5.7 -8.35 -6.25 -7.8 -6.8 -7.5 -7.25 L-6.7 -8.4 Q-6.55 -8.6 -5.55 -9.3 -4.45 -10.05 -3.95 -10.55 -2.65 -11.8 -1.5 -11.85 L-0.7 -11.75 -0.1 -11.65 Q1.45 -11.65 2.45 -12.45 3.3 -13.15 3.3 -13.95 3.3 -14.25 6.2 -16.05 6.6 -16.3 7.1 -16.55 7.9 -16.9 8.45 -16.95 10.6 -17.3 11.9 -16.95 12.35 -16.8 12.6 -16.6 12.8 -16.45 12.8 -16.35 12.8 -16.15 12.7 -16.1 L12.55 -16.05 12.55 -16.0 13.1 -15.95 13.45 -15.95 M-24.25 -27.75 Q-24.4 -27.5 -25.55 -26.75 L-25.55 -26.65 Q-25.55 -26.35 -26.05 -25.6 -26.55 -24.9 -26.85 -24.7 L-28.2 -23.85 -29.5 -23.05 -29.55 -23.0 -29.55 -23.4 -30.1 -23.35 Q-30.75 -22.85 -31.95 -21.65 -33.45 -20.15 -34.2 -19.55 L-33.6 -20.25 -33.65 -20.25 Q-33.55 -20.65 -33.25 -21.1 -32.95 -21.5 -32.95 -21.8 -32.95 -22.0 -33.1 -22.0 -33.25 -22.05 -33.25 -22.25 -33.25 -23.05 -32.6 -23.55 L-31.45 -24.2 -31.5 -24.25 Q-31.8 -24.45 -31.8 -24.6 -31.8 -25.75 -30.85 -26.7 -29.95 -27.6 -28.3 -28.25 L-26.55 -28.2 -26.1 -27.5 Q-25.85 -27.2 -25.4 -27.2 -24.8 -27.5 -24.25 -27.75 M-36.95 11.55 Q-36.8 11.7 -36.4 12.55 -36.05 13.3 -35.8 13.55 L-34.95 14.4 Q-34.4 14.9 -34.1 15.6 -34.0 15.85 -33.45 16.6 L-33.4 16.65 -32.8 17.05 -31.0 18.15 -30.95 18.3 -30.9 18.35 -31.1 18.35 Q-31.85 18.35 -32.65 17.95 L-32.6 18.15 -32.55 18.7 Q-32.55 18.85 -32.3 19.05 -32.0 19.35 -31.9 19.55 L-31.9 19.6 Q-31.95 19.65 -32.0 19.7 -32.35 19.7 -33.5 19.4 L-34.85 17.85 Q-35.6 16.9 -35.95 16.25 -36.0 16.05 -36.2 15.45 -36.35 14.95 -36.55 14.65 -36.75 14.35 -37.35 13.75 -37.55 13.55 -37.55 13.15 L-37.55 12.3 Q-37.45 12.0 -36.95 11.55" fill="#fff17b" fill-opacity="0.6509804" fill-rule="evenodd" stroke="none"/>
    <path d="M15.45 -18.85 L16.4 -18.85 Q16.95 -18.85 17.3 -19.0 17.6 -19.15 17.85 -19.45 L18.4 -19.95 Q19.3 -20.65 22.15 -20.95 L22.15 -21.05 23.3 -20.95 Q25.5 -20.95 26.2 -20.55 26.45 -20.4 26.5 -20.25 L26.6 -19.95 26.85 -19.5 Q26.95 -19.2 26.7 -19.0 27.05 -18.9 27.05 -18.8 L27.0 -18.8 27.65 -18.7 27.5 -18.6 27.05 -18.6 Q27.0 -18.35 26.9 -18.2 26.7 -17.9 25.95 -17.8 L25.55 -17.55 25.7 -17.55 25.9 -17.45 25.9 -17.4 Q26.7 -17.45 27.05 -17.25 22.25 -16.5 19.2 -15.45 17.7 -14.9 14.0 -13.2 L13.8 -13.25 14.2 -13.45 12.5 -12.9 Q10.35 -12.2 9.3 -12.2 L8.75 -12.05 8.15 -11.85 Q8.05 -11.8 8.0 -11.8 7.85 -11.8 7.85 -12.0 7.85 -12.4 8.95 -13.05 10.15 -13.7 10.3 -14.15 L10.3 -14.2 10.15 -14.25 Q9.85 -14.1 9.55 -13.95 L9.2 -13.95 9.6 -14.2 Q9.0 -14.1 8.15 -13.65 7.05 -13.1 6.85 -12.75 6.5 -12.7 6.45 -12.6 L6.3 -12.65 Q6.2 -12.7 6.2 -12.75 6.55 -13.05 7.65 -13.8 8.9 -14.7 9.45 -15.1 9.9 -15.45 10.6 -16.45 11.15 -17.15 11.95 -17.45 12.5 -17.7 13.05 -18.0 13.45 -18.25 14.0 -18.45 L14.75 -18.7 Q15.15 -18.85 15.45 -18.85 M4.05 -11.6 L4.05 -11.2 Q4.05 -10.95 4.0 -10.8 L3.9 -10.55 3.25 -10.4 3.05 -10.25 Q2.95 -10.15 2.95 -9.95 2.95 -9.45 1.8 -9.0 0.75 -8.55 -0.2 -8.55 L-0.75 -8.35 -1.45 -8.05 -1.55 -8.05 -1.7 -8.2 Q-1.25 -8.55 -0.7 -8.95 L0.15 -9.45 Q-0.05 -9.5 -0.05 -9.55 -0.1 -9.6 -0.1 -9.85 -0.1 -10.2 0.1 -10.4 0.15 -10.5 0.95 -11.1 L1.75 -11.7 Q1.95 -11.75 2.1 -11.3 2.2 -11.3 2.5 -11.5 2.8 -11.65 3.0 -11.65 L4.05 -11.6 M-19.6 -32.45 Q-19.6 -32.6 -19.7 -32.85 -19.7 -33.45 -18.65 -34.05 -17.65 -34.65 -16.3 -34.85 -14.85 -35.15 -13.85 -34.85 -12.65 -34.45 -12.45 -33.45 L-11.7 -33.4 -11.4 -33.3 -10.85 -33.4 Q-10.55 -33.3 -10.5 -33.25 L-12.35 -32.8 Q-12.75 -32.6 -13.1 -32.35 L-14.15 -31.4 Q-15.45 -30.2 -17.7 -30.05 -17.9 -30.05 -18.05 -30.25 -18.25 -30.4 -18.45 -30.4 -18.9 -30.4 -19.65 -30.1 L-20.4 -29.75 -20.45 -29.65 -20.15 -29.8 Q-19.8 -29.8 -19.8 -29.7 -19.95 -29.4 -20.95 -28.9 L-22.95 -27.95 -22.1 -28.5 Q-21.45 -28.95 -21.35 -29.0 L-22.4 -28.45 Q-22.9 -28.2 -23.25 -28.15 -25.8 -26.55 -29.65 -23.8 -28.85 -24.6 -27.95 -25.35 L-28.2 -25.25 Q-27.95 -25.65 -27.4 -26.2 L-26.45 -27.2 Q-25.9 -27.7 -25.85 -28.15 -25.75 -28.75 -25.45 -29.1 -24.95 -29.75 -24.6 -30.1 -24.0 -30.6 -23.2 -31.05 -22.95 -31.15 -21.7 -31.35 -20.55 -31.55 -20.0 -31.95 -19.6 -32.2 -19.6 -32.45 M-23.0 19.55 L-24.4 19.55 -24.25 19.7 -24.15 19.9 Q-24.05 20.0 -24.05 20.25 -24.05 20.45 -23.95 20.55 L-23.75 20.8 -23.85 20.95 -24.0 21.1 -24.7 21.2 Q-24.75 21.25 -24.65 21.3 -24.55 21.45 -24.55 21.65 -24.55 21.9 -24.65 22.05 L-24.85 22.25 -25.65 22.4 Q-26.1 22.55 -26.3 22.55 L-27.05 22.5 -27.55 22.45 Q-28.9 22.1 -29.45 21.65 L-29.95 21.25 Q-30.3 20.95 -30.7 20.75 -33.4 20.9 -33.7 19.75 -33.8 19.45 -34.3 18.95 L-35.0 18.15 Q-35.3 17.65 -35.65 16.7 L-35.95 15.6 Q-36.7 14.05 -36.7 13.8 -36.7 13.6 -36.55 13.45 L-36.35 13.35 Q-36.15 13.4 -36.0 13.7 L-35.65 14.3 Q-35.45 14.7 -35.1 14.9 L-34.55 15.4 Q-33.9 15.9 -33.0 16.15 -31.3 17.05 -28.45 17.05 L-27.55 17.25 -26.8 17.2 -25.95 17.3 Q-25.8 17.4 -25.65 17.5 L-25.45 17.65 -25.45 17.8 -25.5 17.9 Q-25.65 18.0 -25.9 18.0 -25.75 18.15 -24.8 18.6 -24.0 19.0 -23.8 19.25 L-23.45 19.3 -23.2 19.35 Q-22.95 19.4 -22.95 19.45 L-23.0 19.55" fill="#ffec69" fill-rule="evenodd" stroke="none"/>
  </g>
</svg>
