<?xml version="1.0" encoding="UTF-8" standalone="no"?>
<svg xmlns:ffdec="https://www.free-decompiler.com/flash" xmlns:xlink="http://www.w3.org/1999/xlink" ffdec:objectType="shape" height="60.85px" width="74.35px" xmlns="http://www.w3.org/2000/svg">
  <g transform="matrix(1.0, 0.0, 0.0, 1.0, 37.2, 36.6)">
    <path d="M13.05 -34.7 Q12.35 -35.05 11.6 -35.4 14.9 -34.5 18.85 -32.15 21.15 -30.8 23.05 -29.35 24.8 -28.0 25.5 -27.1 L26.0 -26.5 Q27.6 -25.25 29.0 -23.25 L29.7 -22.25 Q31.55 -19.95 32.95 -17.35 35.2 -13.25 35.95 -9.15 L36.35 -7.55 Q36.65 -6.5 36.75 -5.8 L37.05 -3.45 Q37.15 -1.8 37.15 -0.2 L37.15 1.8 Q37.15 2.85 36.65 6.0 L36.05 9.6 35.95 9.65 35.9 9.85 35.8 10.0 35.8 10.05 35.9 10.2 Q35.8 10.3 35.55 10.3 L35.05 10.15 34.85 9.95 34.15 9.85 34.15 9.9 33.9 9.85 33.85 9.9 Q33.8 9.9 33.8 9.7 33.8 9.4 34.1 8.85 34.4 8.25 34.4 7.4 L34.65 6.25 34.9 5.15 Q35.15 3.75 35.15 0.65 35.15 -3.7 34.45 -7.5 L33.95 -9.95 Q33.75 -11.1 33.75 -11.75 33.75 -12.1 32.85 -14.45 L31.75 -17.25 Q31.45 -18.25 30.5 -19.9 29.75 -21.35 29.35 -22.1 L28.45 -23.3 27.75 -24.15 Q26.45 -25.7 25.4 -26.7 23.3 -28.65 22.55 -29.25 20.9 -30.6 18.6 -31.85 17.9 -32.2 16.7 -32.95 15.7 -33.55 15.05 -33.85 14.2 -34.3 13.05 -34.7 M34.85 11.4 L33.65 11.05 33.6 10.95 33.75 10.9 33.85 10.85 34.65 10.9 34.95 11.2 Q34.95 11.3 34.85 11.4 M34.9 10.6 Q34.45 10.55 34.05 10.25 34.1 10.2 34.2 10.2 L34.3 10.15 34.65 10.2 34.9 10.5 34.9 10.6 M24.15 15.1 Q19.8 17.2 15.95 19.2 19.95 16.55 23.7 14.7 27.4 12.9 31.2 11.7 L24.15 15.1 M7.5 20.05 L7.35 20.25 4.35 21.4 Q2.4 22.1 0.85 22.4 L0.5 22.3 Q1.9 21.8 4.35 20.95 6.15 20.3 7.6 19.8 L7.5 20.05 M13.35 23.8 Q12.6 24.25 12.45 24.25 L12.1 24.2 12.05 24.2 13.1 23.7 Q14.1 23.25 14.3 23.1 14.1 23.4 13.35 23.8 M-35.7 -10.15 L-35.95 -8.75 Q-36.1 -7.95 -36.15 -6.95 -36.8 -3.95 -36.8 -1.55 L-36.75 -0.55 -36.8 0.45 Q-36.55 3.3 -35.8 6.25 -34.5 11.45 -32.2 14.55 L-32.25 14.65 Q-33.45 13.55 -34.05 12.95 -34.45 12.5 -34.8 12.0 L-34.8 12.05 Q-35.8 11.6 -36.55 7.55 -37.2 4.25 -37.2 2.1 -37.2 0.8 -37.1 -0.4 L-37.15 -1.1 -37.1 -2.05 Q-37.05 -2.5 -36.95 -2.8 -36.75 -5.55 -36.2 -8.05 -35.95 -9.1 -35.7 -10.15 M-12.0 -34.0 Q-12.5 -33.75 -13.9 -33.1 -15.05 -32.6 -16.3 -31.95 -22.6 -28.75 -24.75 -26.95 -27.7 -24.55 -29.45 -22.35 L-29.7 -22.1 Q-30.65 -21.05 -31.55 -19.7 -32.05 -18.95 -32.55 -18.1 -29.75 -23.4 -23.85 -28.35 -17.15 -33.9 -9.25 -36.55 L-9.15 -36.6 -9.0 -36.6 Q-8.75 -36.6 -8.7 -36.55 L-8.8 -36.5 Q-9.3 -36.3 -9.7 -36.05 L-9.75 -36.05 Q-10.9 -35.35 -11.4 -34.4 L-11.45 -34.3 Q-11.75 -34.15 -12.0 -34.0 M-33.85 16.45 Q-33.85 15.55 -32.3 17.1 -30.95 18.45 -29.5 20.45 -33.85 17.15 -33.85 16.45" fill="#ffff00" fill-opacity="0.2" fill-rule="evenodd" stroke="none"/>
  </g>
</svg>
