<?xml version="1.0" encoding="UTF-8" standalone="no"?>
<svg xmlns:ffdec="https://www.free-decompiler.com/flash" xmlns:xlink="http://www.w3.org/1999/xlink" ffdec:objectType="shape" height="33.35px" width="54.7px" xmlns="http://www.w3.org/2000/svg">
  <g transform="matrix(1.0, 0.0, 0.0, 1.0, 37.55, 14.35)">
    <path d="M17.05 -14.35 L17.15 -14.3 17.15 -14.2 17.1 -14.1 Q16.8 -13.85 15.25 -13.15 L14.7 -12.9 13.9 -12.55 13.25 -12.25 Q11.35 -11.4 10.35 -10.9 L10.25 -10.9 10.2 -10.95 Q10.15 -11.0 10.15 -11.05 L10.2 -11.15 Q10.6 -11.45 11.5 -11.95 L13.0 -12.65 13.1 -12.7 Q13.65 -13.05 14.7 -13.5 15.9 -14.0 16.95 -14.35 L17.05 -14.35 M7.9 18.0 L7.95 18.05 7.95 18.2 7.9 18.25 7.35 18.65 6.8 19.0 6.7 19.0 Q6.45 18.95 6.4 18.8 L6.35 18.7 6.45 18.6 7.05 18.25 Q7.65 17.9 7.85 18.0 L7.9 18.0 M-28.65 -6.55 L-28.7 -6.65 -28.65 -6.75 Q-26.95 -8.15 -25.05 -9.55 -23.1 -10.95 -21.55 -11.85 L-21.45 -11.9 Q-21.4 -11.9 -21.35 -11.85 -21.35 -11.8 -21.35 -11.75 L-21.4 -11.65 Q-22.4 -10.65 -24.45 -9.2 L-28.35 -6.5 -28.45 -6.45 -28.55 -6.5 Q-28.6 -6.5 -28.65 -6.55 M-0.95 15.4 Q-0.75 15.45 -0.75 15.55 L-0.75 15.6 -0.8 15.7 -0.85 15.7 -2.75 16.05 Q-4.6 16.35 -5.6 16.35 L-5.7 16.35 -5.75 16.25 -5.75 16.15 -5.65 16.1 Q-5.1 15.9 -3.35 15.7 L-1.15 15.45 Q-1.15 15.4 -1.05 15.4 L-0.95 15.4 M-8.5 15.45 Q-8.45 15.6 -8.85 16.35 -9.3 17.15 -9.55 17.4 -9.6 17.45 -9.65 17.45 L-9.7 17.45 -9.75 17.4 -9.85 17.35 -9.8 17.25 -9.4 16.2 Q-9.1 15.55 -8.8 15.25 L-8.75 15.2 -8.65 15.15 -8.65 15.2 Q-8.5 15.15 -8.5 15.45 M-37.5 5.9 Q-37.5 5.85 -37.4 5.85 L-37.3 5.85 Q-36.85 6.15 -36.35 6.55 -35.6 7.15 -35.35 7.45 L-35.35 7.6 -35.45 7.65 -35.5 7.65 Q-36.2 7.45 -36.85 6.95 -37.5 6.4 -37.55 6.0 -37.55 5.95 -37.5 5.9 M-25.55 16.55 L-25.5 16.65 Q-25.5 16.7 -25.5 16.75 L-25.5 16.8 -25.55 16.9 -25.6 16.9 -25.7 16.95 -25.85 16.95 -25.95 16.85 -26.05 16.65 -26.05 16.55 -26.0 16.5 -25.65 16.5 -25.55 16.55" fill="#ffffff" fill-opacity="0.5019608" fill-rule="evenodd" stroke="none"/>
    <path d="M11.55 -11.8 L13.05 -12.55 13.2 -12.6 Q13.75 -12.95 14.75 -13.35 15.95 -13.9 17.0 -14.25 16.7 -13.95 15.2 -13.25 L14.65 -13.0 13.85 -12.65 13.2 -12.35 Q11.25 -11.55 10.3 -11.05 10.7 -11.35 11.55 -11.8 M7.8 18.15 L7.25 18.55 6.7 18.85 6.5 18.7 7.15 18.35 Q7.65 18.05 7.8 18.1 L7.8 18.15 M-28.55 -6.6 Q-26.85 -8.05 -25.0 -9.4 -23.0 -10.85 -21.5 -11.75 -22.5 -10.75 -24.55 -9.3 L-28.45 -6.6 -28.55 -6.6 M-1.0 15.55 Q-0.9 15.55 -0.9 15.6 L-2.8 15.9 Q-4.6 16.2 -5.6 16.2 -5.05 16.05 -3.35 15.85 L-1.05 15.55 -1.0 15.55 M-8.65 15.3 Q-8.6 15.3 -8.6 15.45 -8.6 15.55 -9.0 16.3 -9.4 17.05 -9.65 17.3 L-9.7 17.3 -9.25 16.25 Q-9.0 15.65 -8.7 15.35 L-8.65 15.3 M-37.4 6.0 L-36.45 6.65 Q-35.7 7.25 -35.5 7.5 -36.1 7.35 -36.75 6.8 -37.35 6.3 -37.4 6.0 M-25.6 16.7 L-25.7 16.8 -25.85 16.8 -25.9 16.6 Q-25.8 16.55 -25.7 16.6 L-25.6 16.7" fill="#ffdb00" fill-rule="evenodd" stroke="none"/>
  </g>
</svg>
