<?xml version="1.0" encoding="UTF-8" standalone="no"?>
<svg xmlns:ffdec="https://www.free-decompiler.com/flash" xmlns:xlink="http://www.w3.org/1999/xlink" ffdec:objectType="shape" height="64.7px" width="75.3px" xmlns="http://www.w3.org/2000/svg">
  <g transform="matrix(1.0, 0.0, 0.0, 1.0, 37.65, 37.65)">
    <path d="M26.65 -26.6 Q37.55 -15.7 37.65 0.0 L37.65 0.4 Q37.6 3.15 37.2 5.65 L37.2 5.95 Q37.2 7.65 36.1 11.15 36.0 11.05 35.85 10.95 35.2 10.6 33.5 10.5 32.45 10.4 32.05 10.5 30.7 10.75 29.8 11.1 28.15 11.55 26.5 12.2 25.5 12.6 24.35 13.15 23.95 13.35 23.55 13.5 21.2 14.7 20.05 15.2 18.25 16.0 16.95 16.8 L16.8 16.85 16.1 17.2 Q14.7 17.85 11.6 19.1 L8.85 20.0 Q8.05 20.25 7.55 20.5 L7.1 20.6 4.75 21.15 1.2 21.9 Q-1.25 22.4 -2.05 22.5 L-4.25 22.8 -5.0 22.8 -7.3 22.95 -10.4 22.85 -11.35 22.8 -12.25 22.8 -13.4 22.65 -15.15 22.45 -15.35 22.45 -19.4 21.6 -22.4 20.7 -24.45 20.0 Q-24.9 19.75 -25.2 19.65 -25.45 19.55 -26.45 19.0 L-27.6 18.4 -27.7 18.35 -27.8 18.25 Q-29.1 17.45 -30.4 16.45 L-30.4 16.6 -29.2 17.5 Q-28.4 18.15 -27.8 18.45 L-26.95 19.0 -26.4 19.35 -26.3 19.4 Q-23.85 20.6 -22.1 21.25 -20.45 21.9 -18.2 22.45 L-18.15 22.45 Q-17.1 22.75 -16.15 22.85 L-15.9 22.9 -15.05 23.05 -13.35 23.25 -12.7 23.35 Q-12.1 23.4 -11.9 23.5 L-12.0 23.55 -12.4 23.5 -12.4 23.55 -12.55 23.55 Q-12.75 23.55 -12.65 23.5 -15.55 23.45 -15.6 23.45 L-16.8 23.35 Q-17.9 23.2 -18.9 22.95 -21.4 22.6 -24.95 20.9 -27.85 19.55 -29.75 18.2 -30.65 17.55 -31.7 16.6 L-33.3 15.1 Q-33.75 14.65 -34.55 13.75 -35.6 12.6 -35.7 12.15 L-35.9 11.9 Q-36.6 9.85 -36.75 8.3 -37.65 4.55 -37.65 0.0 -37.65 -15.6 -26.65 -26.6 -15.6 -37.65 0.0 -37.65 15.6 -37.65 26.65 -26.6 M35.4 11.1 Q35.95 11.3 36.0 11.35 L35.9 11.5 35.65 12.5 35.65 12.45 35.4 13.25 35.05 13.15 34.95 13.1 34.85 12.95 34.75 12.9 Q34.45 12.8 33.75 12.65 L32.8 12.6 Q31.95 12.6 29.9 13.2 28.3 13.6 27.8 13.8 26.3 14.4 25.15 15.0 L22.75 16.25 Q22.0 16.65 21.2 17.0 L19.85 17.7 19.05 18.2 Q18.55 18.5 17.75 18.9 L16.05 19.55 12.25 21.05 Q10.4 21.75 8.75 22.15 8.35 22.35 7.4 22.6 L5.15 23.1 1.95 23.75 -1.3 24.2 -1.75 24.3 Q-3.35 24.5 -5.85 24.5 L-7.25 24.45 -8.2 24.5 -9.05 24.45 -9.8 24.4 -8.5 24.35 -7.0 24.25 -5.55 24.15 -4.05 24.0 -4.0 24.0 -2.5 23.8 -0.45 23.4 2.75 22.65 3.65 22.4 4.8 22.15 6.95 21.45 Q9.6 20.55 10.6 20.15 12.1 19.45 13.65 18.95 14.2 18.75 15.3 18.25 15.7 18.05 16.05 17.95 L22.9 14.4 23.9 13.8 Q25.1 13.2 26.35 12.7 L28.7 11.75 Q30.05 11.25 32.15 10.9 L32.15 10.85 34.8 10.85 35.4 11.1 M34.1 13.6 Q34.45 13.7 34.7 13.8 L35.05 14.1 34.9 14.4 34.85 14.6 34.85 14.75 34.75 14.8 34.75 14.85 Q34.55 14.6 34.15 14.5 L32.9 14.45 Q30.55 14.75 29.15 15.35 28.95 15.45 28.75 15.55 26.8 16.15 24.9 17.05 L22.75 18.05 Q21.9 18.6 20.45 19.25 L19.15 19.85 Q18.5 20.2 17.75 20.6 L13.95 22.25 11.95 23.1 Q10.9 23.55 9.8 23.95 L7.8 24.7 Q6.9 25.05 5.9 25.3 4.7 25.7 3.55 25.95 2.5 26.2 1.2 26.4 L-0.2 26.65 -0.85 26.75 -1.8 26.85 -4.15 27.0 -5.6 27.05 -7.55 26.95 Q-7.7 27.05 -7.7 26.95 L-8.3 26.95 -8.4 26.9 -8.45 26.85 -7.45 26.95 -5.35 26.85 -5.2 26.85 Q-3.3 26.85 -1.3 26.5 L-1.2 26.5 2.95 25.65 Q5.1 25.15 6.65 24.55 8.1 24.1 11.35 22.7 L13.2 21.8 Q14.7 21.25 18.25 19.15 L18.75 18.9 20.2 18.1 20.95 17.7 Q21.6 17.35 21.75 17.3 L22.45 16.9 Q22.85 16.65 23.2 16.55 23.95 16.25 24.8 15.75 25.9 15.1 26.25 14.95 28.1 14.0 31.9 13.45 L32.7 13.45 33.85 13.6 34.1 13.6 M-21.3 25.55 L-21.2 25.6 -20.6 25.8 -20.5 25.8 -20.4 25.85 -20.45 25.9 Q-22.2 25.6 -24.65 24.5 -26.6 23.65 -27.65 22.95 -28.35 22.5 -30.05 21.45 -31.35 20.6 -32.2 19.7 L-32.45 19.45 -32.45 19.4 Q-32.8 18.9 -33.1 18.3 L-33.75 17.0 -33.75 16.95 -33.7 16.95 -33.75 16.9 -33.7 16.9 -33.5 17.25 Q-32.25 18.9 -29.0 21.4 L-28.8 21.55 Q-27.85 22.35 -26.6 23.15 -25.3 23.95 -24.1 24.45 -23.4 24.8 -21.95 25.3 L-21.7 25.4 -21.5 25.45 -21.3 25.55 M-14.45 23.35 L-14.45 23.3 -14.75 23.35 -14.45 23.35 M-14.0 23.35 L-14.0 23.35" fill="#ffff00" fill-opacity="0.3019608" fill-rule="evenodd" stroke="none"/>
  </g>
</svg>
