<?xml version="1.0" encoding="UTF-8" standalone="no"?>
<svg xmlns:ffdec="https://www.free-decompiler.com/flash" xmlns:xlink="http://www.w3.org/1999/xlink" ffdec:objectType="shape" height="42.05px" width="60.0px" xmlns="http://www.w3.org/2000/svg">
  <g transform="matrix(1.0, 0.0, 0.0, 1.0, 34.5, 25.0)">
    <path d="M22.15 -16.5 Q24.05 -17.15 25.35 -17.3 L25.45 -17.3 25.5 -17.2 25.5 -17.1 Q25.4 -16.85 24.2 -16.55 L22.6 -16.15 21.15 -15.6 19.85 -15.2 19.75 -15.2 19.7 -15.25 Q19.65 -15.3 19.65 -15.35 19.7 -15.4 19.7 -15.45 20.3 -15.9 22.15 -16.5 M6.3 14.05 L6.15 14.0 Q6.1 14.0 6.05 13.95 L6.0 13.9 6.05 13.8 6.1 13.75 7.85 13.25 Q9.5 12.75 9.65 12.75 L9.75 12.8 9.8 12.85 9.8 12.95 9.75 13.0 Q9.45 13.2 7.9 13.65 L6.4 14.05 6.3 14.05 M10.75 16.35 L10.7 16.3 Q10.65 16.25 10.65 16.2 10.7 16.15 10.75 16.1 L11.8 15.2 Q12.55 14.55 13.0 14.3 L13.1 14.25 Q13.15 14.25 13.2 14.3 L13.2 14.5 12.1 15.55 Q11.4 16.2 10.85 16.35 L10.75 16.35 M-28.7 -25.0 L-28.65 -24.95 -28.6 -24.85 -28.65 -24.8 -28.85 -24.45 Q-29.05 -24.15 -29.3 -24.05 L-29.35 -24.0 -29.45 -24.0 Q-29.55 -24.0 -29.55 -24.25 L-29.55 -24.35 Q-29.0 -25.0 -28.8 -25.0 L-28.7 -25.0 M-33.25 -13.0 L-33.3 -12.95 -33.5 -12.95 -33.6 -13.0 Q-33.65 -13.1 -33.65 -13.25 L-33.6 -13.35 -33.5 -13.4 -33.25 -13.4 -33.15 -13.3 -33.15 -13.15 -33.2 -13.05 -33.25 -13.0 M-10.3 -18.2 Q-10.25 -18.15 -10.2 -18.1 L-10.2 -18.0 Q-10.25 -18.0 -10.3 -17.95 -11.95 -16.95 -13.8 -16.0 -14.3 -15.75 -17.85 -14.0 L-17.9 -14.0 -18.0 -14.05 -18.05 -14.15 -18.0 -14.2 Q-17.7 -14.55 -16.35 -15.35 -15.25 -16.0 -14.2 -16.5 L-12.35 -17.5 Q-11.35 -18.05 -10.4 -18.2 L-10.3 -18.2 M-7.7 11.4 Q-7.65 11.3 -7.55 11.3 L-7.5 11.3 Q-7.45 11.3 -7.4 11.35 L-7.35 11.45 -7.35 11.55 Q-7.35 11.7 -7.45 12.15 -7.5 12.6 -7.6 12.7 L-7.65 12.75 Q-7.7 12.85 -7.8 12.8 L-7.9 12.75 -7.9 12.1 Q-7.85 11.6 -7.7 11.4 M-30.05 9.7 Q-30.8 9.7 -32.85 8.95 L-33.8 8.65 Q-34.3 8.4 -34.45 8.1 L-34.5 8.05 -34.45 8.0 Q-34.4 7.8 -34.25 7.85 L-34.2 7.85 -34.15 7.9 Q-34.0 8.15 -32.2 8.6 -30.05 9.2 -29.75 9.35 L-29.7 9.45 -29.7 9.55 Q-29.75 9.7 -30.05 9.7 M-23.2 16.75 L-23.25 16.8 Q-23.65 17.1 -23.85 17.05 -24.35 17.05 -24.45 16.95 L-24.5 16.95 Q-24.55 16.85 -24.55 16.7 L-24.55 16.65 -24.5 16.6 -24.4 16.55 -23.25 16.55 -23.2 16.65 -23.2 16.75" fill="#ffffff" fill-opacity="0.5019608" fill-rule="evenodd" stroke="none"/>
    <path d="M21.1 -15.75 L19.8 -15.35 Q20.35 -15.75 22.2 -16.4 24.05 -17.0 25.4 -17.2 25.25 -16.95 24.15 -16.7 L22.55 -16.25 21.1 -15.75 M7.9 13.5 L6.35 13.9 6.15 13.85 7.9 13.35 Q9.5 12.9 9.65 12.9 9.4 13.1 7.9 13.5 M12.0 15.45 Q11.35 16.05 10.8 16.2 L11.85 15.35 Q12.65 14.7 13.1 14.4 L12.0 15.45 M-29.4 -24.15 L-29.45 -24.25 Q-28.95 -24.85 -28.75 -24.85 L-28.95 -24.5 Q-29.15 -24.25 -29.4 -24.15 M-33.3 -13.2 L-33.35 -13.1 -33.45 -13.1 -33.5 -13.25 -33.3 -13.25 -33.3 -13.2 M-14.15 -16.4 L-12.3 -17.4 Q-11.3 -17.9 -10.35 -18.05 -12.0 -17.1 -13.9 -16.15 L-17.9 -14.1 Q-17.6 -14.45 -16.25 -15.25 L-14.15 -16.4 M-7.55 11.45 Q-7.5 11.4 -7.5 11.55 -7.5 11.7 -7.6 12.1 -7.65 12.55 -7.75 12.65 L-7.75 12.1 Q-7.7 11.65 -7.55 11.45 M-32.25 8.75 Q-30.15 9.3 -29.85 9.5 -29.85 9.55 -30.05 9.55 -30.8 9.55 -32.8 8.8 L-33.75 8.5 Q-34.2 8.3 -34.35 8.05 L-34.25 8.0 Q-34.1 8.25 -32.25 8.75 M-24.35 16.85 Q-24.45 16.8 -24.45 16.7 L-23.35 16.7 Q-23.7 16.95 -23.85 16.95 L-24.35 16.85" fill="#ffdb00" fill-rule="evenodd" stroke="none"/>
  </g>
</svg>
