<?xml version="1.0" encoding="UTF-8" standalone="no"?>
<svg xmlns:ffdec="https://www.free-decompiler.com/flash" xmlns:xlink="http://www.w3.org/1999/xlink" ffdec:objectType="shape" height="54.55px" width="39.5px" xmlns="http://www.w3.org/2000/svg">
  <g transform="matrix(1.0, 0.0, 0.0, 1.0, 2.35, 37.35)">
    <path d="M12.7 -35.05 L12.7 -35.0 12.45 -35.15 12.7 -35.05 M10.85 -35.65 Q10.6 -35.6 10.45 -35.5 L10.8 -35.1 Q12.0 -34.15 14.15 -32.65 L14.75 -32.25 15.0 -32.1 Q16.1 -31.4 16.8 -30.9 17.45 -30.4 18.7 -29.4 L19.05 -29.1 19.65 -28.65 19.95 -28.4 20.1 -28.25 Q20.5 -27.75 20.9 -27.45 22.35 -26.05 24.45 -25.4 L25.3 -25.4 Q25.6 -25.45 25.7 -25.8 L25.7 -26.15 Q25.7 -26.7 25.25 -27.45 L25.5 -27.1 26.0 -26.5 Q27.6 -25.25 29.0 -23.25 L29.7 -22.25 Q31.55 -19.95 32.95 -17.35 35.2 -13.25 35.95 -9.15 L36.35 -7.55 Q36.65 -6.5 36.75 -5.8 L37.05 -3.45 Q37.15 -1.8 37.15 -0.2 L37.15 1.8 Q37.15 2.85 36.65 6.0 L36.05 9.6 35.95 9.65 35.9 9.85 35.8 10.0 35.8 10.05 35.9 10.2 Q35.8 10.3 35.55 10.3 L35.05 10.15 34.85 9.95 33.95 9.8 34.2 9.8 34.15 9.75 Q30.5 10.3 28.05 11.3 25.65 12.45 24.25 12.95 22.35 13.7 20.35 14.6 17.95 15.7 17.15 16.25 L16.8 16.2 Q17.75 15.5 18.45 15.05 L18.3 15.1 14.9 16.6 17.85 14.25 Q20.1 12.5 21.05 11.3 L21.65 10.5 Q23.05 9.15 23.9 7.5 24.6 6.15 25.35 3.25 25.85 1.45 26.2 -0.25 26.5 -2.55 26.5 -4.8 26.5 -6.9 26.15 -8.8 25.75 -11.15 24.9 -12.8 23.65 -15.1 22.4 -16.75 L21.8 -17.45 21.6 -17.7 21.4 -17.9 Q19.65 -19.8 18.15 -20.05 L17.7 -20.05 Q17.35 -20.05 16.9 -19.8 L16.85 -19.75 Q16.75 -19.55 16.75 -19.3 16.7 -18.95 16.75 -18.6 L16.7 -18.55 16.5 -19.0 Q15.45 -21.45 13.85 -24.15 12.15 -26.95 10.55 -28.8 L10.5 -28.9 Q9.65 -30.0 8.55 -31.25 7.2 -32.7 5.75 -34.0 5.15 -34.5 4.0 -35.05 3.3 -35.4 1.95 -36.0 0.6 -36.7 -0.65 -37.0 L-1.55 -37.1 -2.35 -37.35 -1.55 -37.25 -1.65 -37.35 -0.3 -37.3 1.15 -37.15 2.05 -37.05 2.15 -37.1 3.3 -36.95 3.65 -36.95 5.5 -36.85 Q6.75 -36.65 8.35 -36.3 L10.8 -35.7 10.85 -35.65 M30.05 12.2 Q28.65 12.8 25.1 14.55 21.45 16.3 19.5 17.2 22.15 14.85 30.05 12.05 L30.05 12.2" fill="#ffff00" fill-opacity="0.2" fill-rule="evenodd" stroke="none"/>
  </g>
</svg>
