<?xml version="1.0" encoding="UTF-8" standalone="no"?>
<svg xmlns:ffdec="https://www.free-decompiler.com/flash" xmlns:xlink="http://www.w3.org/1999/xlink" ffdec:objectType="shape" height="51.0px" width="74.25px" xmlns="http://www.w3.org/2000/svg">
  <g transform="matrix(1.0, 0.0, 0.0, 1.0, 37.1, 36.9)">
    <path d="M5.9 -36.4 L4.55 -36.85 4.2 -36.9 5.5 -36.85 Q6.75 -36.65 8.35 -36.3 L10.8 -35.7 10.95 -35.55 Q14.5 -34.7 18.85 -32.15 21.15 -30.8 23.05 -29.35 24.8 -28.0 25.5 -27.1 L26.0 -26.5 Q27.6 -25.25 29.0 -23.25 L29.7 -22.25 Q31.55 -19.95 32.95 -17.35 35.2 -13.25 35.95 -9.15 L36.35 -7.55 Q36.65 -6.5 36.75 -5.8 L37.05 -3.45 Q37.15 -1.8 37.15 -0.2 L37.15 1.8 Q37.15 2.85 36.65 6.0 L36.05 9.6 35.95 9.65 35.9 9.85 35.8 10.0 35.8 10.05 35.9 10.2 35.75 10.3 Q35.05 9.45 32.8 9.8 29.85 10.2 26.2 12.2 L24.75 12.8 Q24.15 13.2 23.55 13.55 L24.5 12.7 26.0 11.3 Q26.45 10.95 26.95 10.45 28.55 9.1 29.15 8.05 29.3 7.8 29.85 7.2 30.35 6.7 30.45 6.45 30.55 6.1 30.85 5.65 L31.3 4.85 32.1 3.2 32.4 2.65 Q32.75 1.45 33.15 -0.5 33.7 -2.9 33.75 -4.2 L33.75 -4.3 Q33.8 -5.0 33.8 -5.8 33.8 -7.8 33.3 -10.65 32.8 -13.75 32.2 -15.0 31.85 -15.6 31.15 -17.25 30.45 -18.75 29.8 -19.6 L29.1 -20.7 Q28.65 -21.4 28.05 -21.85 L27.9 -21.95 27.5 -22.3 27.05 -22.7 Q25.35 -24.5 23.75 -25.25 L23.25 -25.25 23.25 -25.05 23.3 -24.95 23.3 -24.9 Q23.3 -24.85 23.2 -24.85 L23.2 -24.8 23.05 -24.8 23.05 -24.85 20.2 -27.7 Q17.1 -30.8 15.8 -31.7 L13.55 -33.3 Q12.4 -34.05 11.55 -34.55 9.95 -35.4 7.35 -36.25 L5.9 -36.4 M-36.6 -2.55 L-36.55 -0.85 Q-36.5 0.7 -36.35 1.55 -36.25 2.15 -36.1 3.55 -35.95 4.95 -35.85 5.65 -35.35 8.2 -34.85 9.7 -34.1 12.05 -32.85 13.9 L-32.85 13.95 Q-32.85 14.05 -32.9 14.1 -34.6 12.95 -35.45 11.35 -35.9 10.45 -36.45 8.45 -36.6 7.7 -36.85 5.75 -37.1 3.65 -37.1 2.65 -37.1 1.15 -36.95 -1.0 -36.75 -3.95 -36.35 -4.2 -36.6 -2.95 -36.6 -2.55 M-36.75 1.3 L-36.7 1.3 Q-36.7 0.9 -36.75 0.9 L-36.75 1.3" fill="#ffff00" fill-opacity="0.2" fill-rule="evenodd" stroke="none"/>
  </g>
</svg>
