<?xml version="1.0" encoding="UTF-8" standalone="no"?>
<svg xmlns:ffdec="https://www.free-decompiler.com/flash" xmlns:xlink="http://www.w3.org/1999/xlink" ffdec:objectType="shape" height="15.85px" width="14.75px" xmlns="http://www.w3.org/2000/svg">
  <g transform="matrix(1.0, 0.0, 0.0, 1.0, 6.2, 10.65)">
    <path d="M6.4 4.8 L6.15 5.0 Q5.9 5.2 5.3 5.2 4.65 5.15 4.5 4.95 4.4 4.85 4.4 4.8 L4.45 4.7 Q5.5 4.1 5.8 4.0 6.05 3.95 6.3 4.25 L6.4 4.45 Q6.5 4.65 6.4 4.8 M6.55 -1.25 L6.7 -1.25 7.15 -1.2 Q7.25 -1.15 7.3 -1.1 L7.35 -0.95 7.35 -0.75 7.6 -0.7 Q8.15 -0.6 8.35 -0.35 8.6 -0.05 8.5 0.5 8.45 1.1 7.95 1.45 L7.9 1.45 8.0 1.7 7.95 1.8 7.9 1.95 7.75 2.05 7.7 2.1 Q7.6 2.15 7.35 2.15 7.25 2.15 7.15 2.05 L7.15 2.0 Q7.1 1.95 7.05 1.85 7.05 1.75 7.1 1.7 7.1 1.65 7.2 1.6 L7.45 1.35 7.4 1.2 Q7.4 0.85 7.3 0.7 7.2 0.6 7.05 0.5 6.75 0.35 6.45 0.55 L6.45 0.65 Q6.35 0.9 6.2 1.0 L6.15 1.05 5.65 1.25 5.25 1.4 4.95 1.4 4.85 1.3 Q4.8 1.2 4.8 1.1 4.75 1.0 5.0 0.7 5.05 0.65 5.1 0.65 L5.45 0.45 5.4 0.35 Q5.25 0.2 5.25 0.15 5.1 -0.2 5.45 -0.45 L5.95 -0.75 6.3 -1.0 Q6.3 -1.15 6.45 -1.2 6.5 -1.25 6.55 -1.25 M5.2 -2.9 L5.25 -2.8 Q5.35 -2.65 5.35 -2.25 L5.35 -2.15 5.0 -1.8 Q5.0 -1.7 4.85 -1.55 4.7 -1.3 4.5 -1.35 4.45 -1.35 4.4 -1.4 L4.3 -1.55 4.25 -1.6 Q4.2 -1.7 4.25 -1.75 4.25 -1.85 4.35 -1.95 L4.5 -2.05 4.6 -2.1 4.5 -2.15 4.3 -2.2 Q4.2 -2.2 4.1 -2.3 4.05 -2.35 4.0 -2.45 L4.0 -2.5 3.95 -2.5 3.55 -2.55 Q3.5 -2.55 3.4 -2.6 3.35 -2.7 3.35 -2.8 3.35 -2.85 3.4 -2.95 3.45 -3.05 3.55 -3.05 3.8 -3.15 3.95 -3.2 L4.4 -3.15 Q4.5 -3.15 4.55 -3.1 L5.0 -3.1 Q5.1 -3.05 5.2 -2.9 M0.05 -0.7 L0.15 -0.75 0.45 -0.7 0.6 -0.55 Q0.7 -0.4 0.75 -0.15 L0.75 -0.1 Q0.95 0.1 0.9 0.4 L0.85 0.4 Q0.85 0.65 0.55 0.95 L0.45 1.0 0.35 1.0 Q0.2 1.0 0.05 0.85 L0.0 0.75 0.0 0.6 0.05 0.4 -0.1 0.25 -0.3 0.2 -0.45 0.1 -0.5 -0.05 -0.45 -0.2 -0.35 -0.4 0.0 -0.65 0.05 -0.7 M1.9 -3.55 L2.05 -3.55 Q2.2 -3.55 2.4 -3.4 L2.7 -3.2 Q2.75 -3.1 2.75 -3.0 2.75 -2.85 2.65 -2.8 L2.55 -2.65 2.4 -2.6 2.3 -2.6 1.85 -2.7 1.55 -2.7 Q1.45 -2.7 1.35 -2.8 1.3 -2.85 1.3 -2.95 1.3 -3.05 1.35 -3.15 1.4 -3.25 1.5 -3.25 L1.65 -3.4 1.7 -3.4 1.8 -3.45 Q1.85 -3.5 1.9 -3.55 M0.1 -7.4 L0.3 -7.25 Q0.5 -7.0 0.4 -6.95 L0.4 -6.85 0.3 -6.7 Q0.25 -6.65 -0.05 -6.6 L-0.3 -6.55 -0.45 -6.5 -0.6 -6.6 -0.7 -6.75 -0.7 -6.85 Q-0.75 -7.0 -0.45 -7.3 -0.2 -7.6 0.1 -7.4 M1.55 -9.0 L1.75 -8.95 Q1.75 -9.05 1.8 -9.0 L1.75 -9.15 Q1.6 -9.85 1.65 -9.9 1.65 -10.0 1.7 -10.1 L1.95 -10.3 Q2.05 -10.35 2.15 -10.35 2.6 -10.35 2.85 -10.25 2.95 -10.2 3.0 -10.1 L3.0 -10.05 3.05 -9.9 Q3.35 -9.8 3.5 -9.65 3.65 -9.45 3.65 -8.95 3.7 -8.3 3.25 -8.1 3.2 -7.95 3.2 -7.75 L3.25 -6.9 Q3.25 -6.8 3.15 -6.75 L3.05 -6.6 Q2.95 -6.55 2.85 -6.55 L2.65 -6.55 Q2.55 -6.6 2.5 -6.7 2.45 -6.8 2.45 -6.9 2.55 -7.2 2.45 -7.55 2.35 -7.9 2.2 -8.1 L2.05 -8.25 2.0 -8.25 1.8 -8.3 1.65 -8.3 1.6 -8.25 Q1.25 -8.0 1.1 -8.15 1.05 -8.15 1.0 -8.2 0.95 -8.25 0.95 -8.3 0.9 -8.4 0.95 -8.6 L1.05 -8.9 1.15 -9.05 1.3 -9.05 1.55 -9.0 M5.6 0.4 L5.65 0.35 5.7 0.25 5.6 0.4 M-2.6 -3.6 L-2.55 -3.65 Q-2.3 -3.8 -2.15 -3.75 -1.9 -3.75 -1.8 -3.5 L-1.75 -3.5 Q-1.35 -3.55 -0.95 -3.0 -0.75 -2.75 -0.55 -2.3 -0.5 -2.2 -0.55 -2.1 L-0.45 -2.05 -0.4 -1.95 Q-0.25 -1.85 -0.4 -1.4 L-0.45 -1.25 -0.65 -1.15 -0.8 -1.15 Q-0.9 -1.15 -0.95 -1.2 L-1.05 -1.35 Q-1.1 -1.55 -1.05 -1.85 L-1.05 -1.9 -1.15 -2.0 Q-1.4 -2.4 -1.6 -2.5 -1.9 -2.65 -2.3 -2.35 -2.3 -2.3 -2.4 -2.3 L-2.5 -2.3 Q-2.65 -2.3 -2.8 -2.45 -2.85 -2.5 -2.85 -2.65 L-2.8 -3.05 -2.85 -3.0 Q-2.9 -3.1 -2.9 -3.2 -2.9 -3.3 -2.8 -3.4 L-2.6 -3.6 M-1.65 -10.15 L-1.55 -9.85 Q-1.45 -9.7 -1.5 -9.55 -1.5 -9.35 -1.55 -9.25 L-1.6 -9.15 -1.8 -8.95 Q-1.85 -8.95 -1.9 -8.9 L-2.1 -8.9 Q-2.15 -8.9 -2.2 -8.95 -2.3 -9.0 -2.3 -9.1 L-2.3 -9.4 -2.4 -9.4 Q-2.7 -9.5 -2.75 -9.6 -3.1 -9.95 -2.65 -10.4 -2.45 -10.65 -2.25 -10.65 -2.0 -10.65 -1.8 -10.4 L-1.7 -10.25 -1.7 -10.2 -1.65 -10.15 M-5.75 -8.2 L-5.45 -8.2 Q-5.35 -8.15 -5.2 -8.0 L-5.05 -7.8 Q-5.0 -7.7 -5.05 -7.6 -5.05 -7.5 -5.15 -7.45 -5.2 -7.4 -5.3 -7.4 L-5.3 -7.3 Q-5.35 -7.2 -5.35 -7.1 -5.3 -7.0 -5.35 -6.9 -5.4 -6.8 -5.5 -6.8 L-5.55 -6.75 -5.7 -6.7 Q-5.8 -6.7 -5.85 -6.8 L-5.95 -6.85 Q-6.05 -6.9 -6.05 -7.0 L-6.15 -7.3 Q-6.3 -7.65 -6.15 -7.85 L-6.1 -7.95 -5.9 -8.1 Q-5.85 -8.15 -5.75 -8.2 M3.95 2.3 Q4.0 2.35 4.0 2.45 L3.95 2.55 3.95 2.75 4.0 2.9 Q4.0 3.0 3.9 3.05 L3.8 3.2 Q3.75 3.3 3.65 3.3 3.45 3.35 2.95 3.3 L2.4 3.25 Q2.3 3.25 2.2 3.15 2.1 3.1 2.1 3.0 2.1 2.85 2.15 2.8 L2.25 2.7 Q2.3 2.6 2.4 2.6 L3.0 2.5 3.05 2.45 Q3.05 2.25 3.05 2.15 3.05 2.0 3.15 1.95 3.25 1.85 3.35 1.85 3.5 1.9 3.55 1.95 3.7 2.1 3.85 2.15 L3.95 2.3" fill="#e1ffd2" fill-opacity="0.5019608" fill-rule="evenodd" stroke="none"/>
    <path d="M-0.85 -2.2 L-0.9 -2.15 Q-1.25 -2.6 -1.45 -2.75 -1.95 -3.0 -2.45 -2.6 -2.5 -2.6 -2.55 -2.65 L-2.55 -3.0 Q-2.5 -3.05 -2.6 -3.2 L-2.4 -3.4 Q-2.1 -3.6 -2.05 -3.35 -2.0 -3.2 -1.9 -3.2 L-1.75 -3.25 Q-1.5 -3.25 -1.15 -2.85 -1.0 -2.6 -0.85 -2.2 M-0.75 -1.85 L-0.7 -1.85 -0.6 -1.75 Q-0.6 -1.7 -0.65 -1.45 L-0.75 -1.45 Q-0.8 -1.6 -0.8 -1.8 L-0.75 -1.85 M-2.0 -10.2 L-1.95 -10.1 -1.9 -10.05 -1.8 -9.75 Q-1.75 -9.65 -1.8 -9.6 -1.75 -9.45 -1.8 -9.35 L-2.0 -9.2 -2.05 -9.2 Q-2.0 -9.35 -2.0 -9.45 -2.0 -9.5 -2.05 -9.55 -2.1 -9.6 -2.3 -9.7 -2.5 -9.75 -2.55 -9.75 -2.7 -9.95 -2.45 -10.2 -2.2 -10.45 -2.0 -10.2 M-5.4 -7.8 L-5.3 -7.65 Q-5.5 -7.65 -5.6 -7.4 -5.65 -7.2 -5.65 -7.05 L-5.7 -7.0 -5.75 -7.05 -5.9 -7.4 Q-5.95 -7.6 -5.9 -7.75 L-5.7 -7.9 -5.5 -7.9 -5.4 -7.8 M3.7 2.4 Q3.65 2.5 3.65 2.55 L3.65 2.6 3.6 2.75 3.7 2.9 3.6 3.0 2.95 3.0 2.4 2.95 2.45 2.9 3.15 2.75 3.4 2.55 Q3.3 2.35 3.35 2.15 3.55 2.35 3.7 2.4 M6.2 4.65 L6.1 4.75 Q5.85 4.8 5.6 4.95 L4.7 4.8 Q4.8 4.65 4.95 4.65 L5.25 4.7 Q5.55 4.3 5.8 4.3 6.0 4.3 6.1 4.4 L6.2 4.55 6.2 4.65 M7.5 1.7 L7.65 1.55 Q7.7 1.65 7.7 1.7 L7.55 1.85 7.4 1.85 7.35 1.8 7.5 1.7 M7.1 -0.55 Q7.15 -0.5 7.55 -0.4 8.0 -0.35 8.15 -0.15 8.3 0.05 8.25 0.45 8.15 0.95 7.8 1.2 L7.7 1.2 7.7 1.15 Q7.65 0.7 7.55 0.55 7.4 0.35 7.15 0.25 6.7 0.0 6.3 0.35 6.25 0.4 6.15 0.55 6.1 0.7 6.0 0.8 L5.55 1.0 Q5.2 1.1 5.15 1.15 L5.05 1.1 Q5.05 1.05 5.2 0.9 L5.85 0.55 Q5.85 0.5 5.95 0.4 L5.95 0.25 5.7 0.25 Q5.65 0.2 5.6 0.2 L5.5 0.05 Q5.45 -0.1 5.65 -0.25 L6.1 -0.5 6.65 -0.85 Q6.6 -0.95 6.65 -1.0 L7.1 -0.9 7.0 -0.7 Q7.0 -0.65 7.1 -0.55 M4.55 -1.65 L4.5 -1.7 4.7 -1.85 Q4.7 -1.8 4.65 -1.75 L4.55 -1.65 M5.0 -2.5 L5.0 -2.55 4.95 -2.6 4.95 -2.55 5.0 -2.5 M4.4 -2.9 Q4.4 -2.75 4.45 -2.7 4.45 -2.65 4.5 -2.65 4.7 -2.9 4.85 -2.85 L4.9 -2.8 5.0 -2.75 5.0 -2.7 Q5.05 -2.6 5.05 -2.25 L4.95 -2.1 4.85 -2.05 4.8 -2.05 Q4.75 -2.1 4.8 -2.25 L4.8 -2.3 4.65 -2.4 Q4.5 -2.5 4.3 -2.5 4.3 -2.6 4.2 -2.65 L4.05 -2.75 3.9 -2.8 3.65 -2.8 4.0 -2.9 4.4 -2.9 M0.3 -0.45 L0.4 -0.35 0.45 -0.15 Q0.5 0.05 0.55 0.1 0.6 0.2 0.6 0.35 0.55 0.55 0.35 0.75 L0.3 0.7 0.35 0.35 0.2 0.15 0.0 0.0 -0.2 -0.1 0.15 -0.45 Q0.2 -0.4 0.3 -0.45 M2.25 -3.2 L2.45 -3.0 2.35 -2.9 Q2.05 -2.9 1.9 -2.95 L1.55 -3.0 1.95 -3.2 2.0 -3.25 Q2.15 -3.25 2.25 -3.2 M2.25 -3.05 L2.3 -3.05 2.3 -3.1 Q2.25 -3.1 2.2 -3.1 L2.25 -3.05 M0.15 -7.0 L0.1 -6.95 Q0.1 -6.9 -0.1 -6.85 L-0.4 -6.8 -0.4 -6.85 -0.25 -7.1 Q-0.15 -7.25 -0.05 -7.15 L0.05 -7.05 0.15 -7.0 M1.45 -8.5 Q1.25 -8.35 1.2 -8.4 1.2 -8.45 1.25 -8.55 L1.3 -8.8 1.5 -8.75 Q1.65 -8.7 1.7 -8.65 1.75 -8.6 1.7 -8.55 L1.7 -8.6 Q1.6 -8.6 1.45 -8.5 M2.05 -9.2 L1.9 -9.85 2.15 -10.05 2.75 -10.0 2.75 -9.9 2.65 -9.8 Q2.7 -9.75 2.95 -9.65 3.15 -9.55 3.25 -9.45 3.35 -9.3 3.4 -8.95 3.4 -8.45 3.05 -8.35 2.9 -8.1 2.95 -7.7 L2.95 -6.95 2.85 -6.8 2.75 -6.85 Q2.85 -7.2 2.7 -7.65 2.6 -8.0 2.4 -8.3 L2.25 -8.5 Q2.15 -8.55 1.95 -8.55 L2.05 -8.9 Q2.05 -9.15 2.05 -9.2" fill="#ffffff" fill-rule="evenodd" stroke="none"/>
  </g>
</svg>
