<?xml version="1.0" encoding="UTF-8" standalone="no"?>
<svg xmlns:ffdec="https://www.free-decompiler.com/flash" xmlns:xlink="http://www.w3.org/1999/xlink" ffdec:objectType="shape" height="5.35px" width="11.9px" xmlns="http://www.w3.org/2000/svg">
  <g transform="matrix(1.0, 0.0, 0.0, 1.0, 4.95, 10.85)">
    <path d="M0.6 -7.1 L0.7 -7.2 0.8 -7.2 1.55 -7.25 2.2 -7.25 2.3 -7.2 2.45 -7.25 2.7 -7.25 2.95 -7.2 Q3.05 -7.15 3.05 -7.05 L3.05 -6.95 3.2 -7.0 Q3.35 -7.0 3.3 -6.85 L3.3 -6.6 Q3.3 -6.45 3.05 -6.35 2.9 -6.3 2.65 -6.25 L2.15 -6.05 1.95 -6.05 1.55 -5.8 Q1.5 -5.8 1.5 -5.85 L1.55 -5.95 1.55 -6.0 1.35 -5.95 1.15 -5.85 0.75 -5.5 0.7 -5.55 0.7 -5.75 Q0.7 -5.9 0.95 -6.2 L1.0 -6.2 1.15 -6.3 1.15 -6.4 1.1 -6.4 0.8 -6.35 0.65 -6.3 0.6 -6.35 Q0.6 -6.55 1.1 -6.85 L1.15 -6.85 1.15 -6.9 1.25 -6.9 1.25 -7.0 0.7 -6.95 0.35 -6.75 0.1 -6.6 0.05 -6.5 -0.1 -6.55 -0.65 -6.55 -0.65 -6.65 -0.75 -6.65 -0.9 -6.7 -1.0 -6.8 -1.0 -6.85 -1.05 -6.85 -0.85 -6.95 -0.9 -6.95 Q-0.8 -7.0 -0.7 -7.15 L-0.55 -7.3 -0.5 -7.25 -0.5 -7.1 -0.4 -7.05 -0.25 -6.95 -0.05 -7.0 Q0.0 -7.0 0.0 -6.9 L0.05 -6.9 0.25 -6.95 0.5 -7.05 0.6 -7.1 M0.15 -6.7 L0.35 -6.85 0.4 -6.85 0.45 -6.9 0.5 -6.9 0.65 -7.0 0.95 -7.0 1.2 -7.05 1.65 -7.0 1.45 -6.9 1.25 -6.75 1.0 -6.65 0.8 -6.45 0.8 -6.4 1.0 -6.4 1.4 -6.45 1.55 -6.45 1.45 -6.3 1.4 -6.3 1.2 -6.2 Q1.05 -6.1 1.05 -6.05 L1.0 -6.0 1.0 -5.95 1.05 -5.95 1.25 -6.05 1.4 -6.1 1.5 -6.1 1.7 -6.15 1.65 -6.05 1.75 -6.0 1.95 -6.2 2.15 -6.3 Q2.15 -6.15 2.25 -6.15 L2.5 -6.3 2.6 -6.35 2.65 -6.35 Q2.8 -6.35 2.95 -6.4 3.15 -6.5 3.15 -6.6 L3.15 -6.8 2.9 -6.85 2.8 -6.8 2.85 -6.85 2.95 -7.05 Q2.95 -7.15 2.65 -7.15 2.3 -7.15 1.95 -7.0 L2.05 -7.15 Q2.05 -7.2 1.95 -7.2 L1.5 -7.15 1.2 -7.2 0.8 -7.2 0.7 -7.1 0.55 -7.0 0.0 -6.85 -0.1 -6.95 -0.25 -6.9 -0.3 -6.9 -0.35 -6.95 Q-0.4 -7.05 -0.5 -7.05 L-0.55 -7.05 -0.5 -7.1 -0.6 -7.2 -0.65 -7.1 -0.7 -7.05 -0.7 -7.0 -0.75 -7.0 -0.7 -6.95 -0.85 -6.85 -0.75 -6.8 -0.7 -6.8 -0.55 -6.65 Q-0.45 -6.55 -0.2 -6.55 -0.1 -6.55 -0.05 -6.6 L0.05 -6.65 0.15 -6.7 M1.9 -7.1 L1.85 -7.15 1.9 -7.15 1.9 -7.1 M6.75 -7.1 L6.95 -7.0 6.85 -6.85 6.85 -6.8 6.8 -6.65 6.7 -6.55 6.7 -6.45 Q6.7 -6.15 6.4 -6.15 6.3 -6.15 6.25 -6.2 6.15 -6.2 6.1 -6.3 L6.05 -6.4 6.05 -6.55 6.1 -6.65 5.75 -6.65 Q5.6 -6.7 5.55 -6.75 L5.55 -6.8 5.5 -6.8 5.5 -6.9 5.45 -6.9 5.35 -6.85 5.3 -6.85 5.2 -6.75 5.15 -6.8 5.2 -6.85 5.15 -6.85 5.2 -6.9 5.5 -7.1 5.6 -7.15 5.95 -7.15 6.0 -7.05 6.1 -7.0 6.45 -7.0 6.45 -7.05 6.5 -7.1 Q6.6 -7.15 6.75 -7.1 M6.8 -6.95 L6.45 -6.95 Q6.35 -6.9 6.25 -6.9 L5.95 -6.95 5.95 -7.0 5.9 -7.05 5.7 -7.05 5.6 -7.0 5.55 -7.0 5.4 -6.95 5.45 -6.9 5.5 -6.95 5.7 -6.95 5.65 -6.8 5.7 -6.7 Q5.75 -6.65 5.85 -6.65 L6.25 -6.65 6.2 -6.55 6.15 -6.4 Q6.15 -6.35 6.2 -6.3 6.3 -6.2 6.45 -6.2 6.6 -6.2 6.6 -6.25 L6.65 -6.4 6.6 -6.6 6.7 -6.65 6.75 -6.7 6.8 -6.8 6.8 -6.95 M6.15 -6.6 L6.15 -6.6 M-2.7 -10.7 L-2.75 -10.7 Q-2.85 -10.7 -3.1 -10.6 L-3.4 -10.5 -3.7 -10.5 Q-4.05 -10.5 -4.25 -10.4 L-4.45 -10.3 -4.45 -10.25 -4.55 -10.25 -4.7 -10.1 -4.4 -10.25 -4.25 -10.25 -4.1 -10.2 Q-4.05 -10.2 -3.95 -10.15 L-3.8 -10.1 Q-3.65 -9.95 -3.55 -9.9 L-3.6 -9.8 -3.7 -9.7 -3.85 -9.4 -3.9 -9.4 -3.95 -9.3 -4.0 -9.1 Q-4.0 -8.95 -3.65 -8.95 L-3.2 -8.9 -3.35 -8.8 -3.45 -8.7 -3.6 -8.7 -4.05 -8.5 -4.2 -8.35 -4.25 -8.2 Q-4.25 -8.15 -3.95 -8.05 -3.75 -8.0 -3.55 -8.0 L-3.2 -7.95 -3.15 -7.95 -3.05 -7.85 Q-2.9 -7.8 -2.8 -7.8 -2.65 -7.8 -2.55 -7.85 L-2.4 -8.0 -2.35 -8.15 -1.9 -8.1 -1.65 -8.1 Q-1.4 -8.1 -1.35 -8.05 L-1.25 -8.0 -1.2 -8.05 Q-1.15 -8.05 -1.05 -7.9 L-0.95 -7.8 -0.8 -7.75 Q-0.75 -7.6 -0.65 -7.5 L-0.65 -7.6 -0.75 -7.75 -0.9 -8.0 -1.05 -8.2 -1.2 -8.3 -1.3 -8.4 -1.4 -8.4 -1.65 -8.55 -1.7 -8.55 -1.8 -8.6 -1.9 -8.6 -1.9 -8.7 -2.3 -8.75 -2.75 -8.75 -2.65 -8.85 -2.5 -8.9 Q-2.35 -8.95 -2.35 -9.0 L-2.4 -9.05 -2.95 -9.1 -3.15 -9.15 -3.1 -9.2 -2.95 -9.3 -2.9 -9.3 -2.85 -9.35 Q-2.7 -9.45 -2.7 -9.5 L-2.75 -9.55 -2.7 -9.8 -2.7 -9.85 Q-2.5 -9.75 -2.4 -9.75 L-2.4 -9.7 -2.1 -9.6 -1.9 -9.65 -1.7 -9.65 -1.6 -9.6 -1.45 -9.45 -1.45 -9.4 -1.4 -9.4 -1.35 -9.5 -1.3 -9.65 Q-1.3 -9.7 -1.35 -9.7 L-1.35 -9.75 -1.4 -9.9 Q-1.5 -10.0 -1.6 -10.05 L-1.65 -10.15 -1.85 -10.25 -1.9 -10.3 -2.1 -10.4 -2.15 -10.45 Q-2.2 -10.5 -2.5 -10.65 L-2.65 -10.7 -2.7 -10.7 M1.15 -6.1 L1.15 -6.1 M0.85 -6.45 L0.85 -6.45 M-2.35 -10.75 L-2.3 -10.75 Q-2.1 -10.55 -1.9 -10.55 L-1.8 -10.4 Q-1.65 -10.35 -1.5 -10.2 L-1.3 -9.95 -1.2 -9.85 -1.15 -9.7 -1.1 -9.6 -1.2 -9.45 -1.4 -9.25 -1.4 -9.2 -1.45 -9.2 -1.45 -9.3 -1.5 -9.3 Q-1.6 -9.4 -1.7 -9.45 L-1.75 -9.5 -2.2 -9.5 -2.4 -9.6 -2.5 -9.55 -2.55 -9.45 -2.5 -9.45 -2.55 -9.4 -2.65 -9.2 -2.75 -9.2 -2.15 -9.05 Q-2.05 -9.05 -2.05 -9.0 -2.05 -8.95 -2.2 -8.9 L-2.0 -8.85 Q-1.6 -8.75 -1.55 -8.65 L-1.55 -8.6 -1.35 -8.5 -1.15 -8.3 -1.1 -8.3 -0.95 -8.1 -0.8 -8.0 -0.8 -7.95 -0.65 -7.75 -0.6 -7.65 -0.6 -7.55 -0.5 -7.4 -0.5 -7.35 -0.6 -7.4 -0.7 -7.5 -0.85 -7.7 -1.0 -7.8 -1.05 -7.85 Q-1.3 -8.05 -1.5 -8.05 L-2.25 -8.05 -2.4 -7.9 Q-2.45 -7.8 -2.55 -7.8 L-2.55 -7.75 -2.8 -7.75 Q-2.95 -7.75 -3.15 -7.85 L-3.35 -7.95 -4.0 -8.0 Q-4.45 -8.05 -4.45 -8.25 L-4.45 -8.35 -4.4 -8.45 -4.2 -8.6 -4.15 -8.65 -4.1 -8.65 -3.85 -8.75 -3.75 -8.8 -4.05 -8.8 Q-4.35 -8.85 -4.35 -8.9 L-4.3 -9.1 -4.35 -9.15 -4.2 -9.45 -4.05 -9.8 Q-4.05 -9.9 -4.3 -9.95 L-4.45 -10.0 Q-4.7 -9.95 -4.75 -9.85 -4.8 -9.75 -4.8 -9.65 L-4.8 -9.6 Q-4.9 -9.6 -4.95 -9.65 L-4.95 -9.95 Q-4.95 -10.05 -4.9 -10.1 L-4.8 -10.3 -4.65 -10.45 -4.4 -10.55 -4.05 -10.6 -3.5 -10.6 Q-2.75 -10.95 -2.55 -10.85 L-2.45 -10.8 Q-2.35 -10.8 -2.35 -10.75 M-3.1 -9.15 L-3.1 -9.15" fill="#ffde44" fill-rule="evenodd" stroke="none"/>
    <path d="M0.05 -6.65 L-0.05 -6.6 Q-0.1 -6.55 -0.2 -6.55 -0.45 -6.55 -0.55 -6.65 L-0.7 -6.8 -0.75 -6.8 -0.85 -6.85 -0.7 -6.95 -0.75 -7.0 -0.7 -7.0 -0.7 -7.05 -0.65 -7.1 -0.6 -7.2 -0.5 -7.1 -0.55 -7.05 -0.5 -7.05 Q-0.4 -7.05 -0.35 -6.95 L-0.3 -6.9 -0.25 -6.9 -0.1 -6.95 0.0 -6.85 0.55 -7.0 0.7 -7.1 0.8 -7.2 1.2 -7.2 1.5 -7.15 1.95 -7.2 Q2.05 -7.2 2.05 -7.15 L1.95 -7.0 Q2.3 -7.15 2.65 -7.15 2.95 -7.15 2.95 -7.05 L2.85 -6.85 2.8 -6.8 2.9 -6.85 3.15 -6.8 3.15 -6.6 Q3.15 -6.5 2.95 -6.4 2.8 -6.35 2.65 -6.35 L2.6 -6.35 2.5 -6.3 2.25 -6.15 Q2.15 -6.15 2.15 -6.3 L1.95 -6.2 1.75 -6.0 1.65 -6.05 1.7 -6.15 1.5 -6.1 1.4 -6.1 1.25 -6.05 1.05 -5.95 1.0 -5.95 1.0 -6.0 1.05 -6.05 Q1.05 -6.1 1.2 -6.2 L1.4 -6.3 1.45 -6.3 1.55 -6.45 1.4 -6.45 1.0 -6.4 0.8 -6.4 0.8 -6.45 1.0 -6.65 1.25 -6.75 1.45 -6.9 1.65 -7.0 1.2 -7.05 0.95 -7.0 0.65 -7.0 0.5 -6.9 0.45 -6.9 0.4 -6.85 0.35 -6.85 0.15 -6.7 0.15 -6.75 0.25 -6.85 0.05 -6.85 -0.05 -6.8 -0.25 -6.8 -0.35 -6.85 -0.4 -6.85 Q-0.45 -6.85 -0.5 -6.85 L-0.5 -6.8 Q-0.5 -6.75 -0.4 -6.7 -0.3 -6.65 -0.15 -6.65 L0.05 -6.65 M1.9 -7.1 L1.9 -7.15 1.85 -7.15 1.9 -7.1 M6.8 -6.95 L6.8 -6.8 6.75 -6.7 6.7 -6.65 6.6 -6.6 6.65 -6.4 6.6 -6.25 Q6.6 -6.2 6.45 -6.2 6.3 -6.2 6.2 -6.3 6.15 -6.35 6.15 -6.4 L6.2 -6.55 6.25 -6.65 5.85 -6.65 Q5.75 -6.65 5.7 -6.7 L5.65 -6.8 5.7 -6.95 5.5 -6.95 5.45 -6.9 5.4 -6.95 5.55 -7.0 5.6 -7.0 5.7 -7.05 5.9 -7.05 5.95 -7.0 5.95 -6.95 6.25 -6.9 Q6.35 -6.9 6.45 -6.95 L6.8 -6.95 M6.55 -6.85 L6.45 -6.8 6.4 -6.75 6.1 -6.75 Q5.9 -6.8 5.9 -6.9 5.75 -6.9 5.75 -6.8 5.75 -6.7 5.95 -6.7 L6.15 -6.7 6.35 -6.65 6.35 -6.55 Q6.25 -6.5 6.25 -6.45 L6.3 -6.35 6.4 -6.3 6.5 -6.3 6.5 -6.35 6.45 -6.4 6.5 -6.45 6.35 -6.55 6.4 -6.55 6.65 -6.7 Q6.65 -6.85 6.55 -6.85 M2.35 -6.6 L2.35 -6.6 M2.95 -6.65 L2.95 -6.7 2.65 -6.75 2.65 -6.85 Q2.6 -6.9 2.5 -6.9 2.8 -7.0 2.8 -7.05 2.8 -7.2 2.15 -7.0 L1.8 -6.9 1.85 -6.95 1.8 -7.0 Q1.3 -6.65 1.3 -6.55 L1.35 -6.5 1.75 -6.7 2.05 -6.8 Q1.85 -6.65 1.85 -6.55 1.85 -6.45 1.7 -6.35 L1.55 -6.25 1.6 -6.15 1.9 -6.35 Q2.1 -6.5 2.2 -6.5 L2.25 -6.5 2.3 -6.45 2.3 -6.35 2.5 -6.45 2.75 -6.45 Q2.8 -6.45 2.8 -6.5 L2.9 -6.55 2.95 -6.65 M2.2 -6.85 L2.2 -6.85 M0.85 -6.45 L0.85 -6.45 M1.15 -6.1 L1.15 -6.1 M-2.7 -10.7 L-2.65 -10.7 -2.5 -10.65 Q-2.2 -10.5 -2.15 -10.45 L-2.1 -10.4 -1.9 -10.3 -1.85 -10.25 -1.65 -10.15 -1.6 -10.05 Q-1.5 -10.0 -1.4 -9.9 L-1.35 -9.75 -1.35 -9.7 Q-1.3 -9.7 -1.3 -9.65 L-1.35 -9.5 -1.4 -9.4 -1.45 -9.4 -1.45 -9.45 -1.6 -9.6 -1.7 -9.65 -1.9 -9.65 -2.1 -9.6 -2.4 -9.7 -2.4 -9.75 Q-2.5 -9.75 -2.7 -9.85 L-2.7 -9.8 -2.75 -9.55 -2.7 -9.5 Q-2.7 -9.45 -2.85 -9.35 L-2.9 -9.3 -2.95 -9.3 -3.1 -9.2 -3.15 -9.15 -2.95 -9.1 -2.4 -9.05 -2.35 -9.0 Q-2.35 -8.95 -2.5 -8.9 L-2.65 -8.85 -2.75 -8.75 -2.3 -8.75 -1.9 -8.7 -1.9 -8.6 -1.8 -8.6 -1.7 -8.55 -1.65 -8.55 -1.4 -8.4 -1.3 -8.4 -1.2 -8.3 -1.05 -8.2 -0.9 -8.0 -0.75 -7.75 -0.65 -7.6 -0.65 -7.5 Q-0.75 -7.6 -0.8 -7.75 L-0.95 -7.8 -1.05 -7.9 Q-1.15 -8.05 -1.2 -8.05 L-1.25 -8.0 -1.35 -8.05 Q-1.4 -8.1 -1.65 -8.1 L-1.9 -8.1 -2.35 -8.15 -2.4 -8.0 -2.55 -7.85 Q-2.65 -7.8 -2.8 -7.8 -2.9 -7.8 -3.05 -7.85 L-3.15 -7.95 -3.2 -7.95 -3.55 -8.0 Q-3.75 -8.0 -3.95 -8.05 -4.25 -8.15 -4.25 -8.2 L-4.2 -8.35 -4.05 -8.5 -3.6 -8.7 -3.45 -8.7 -3.35 -8.8 -3.2 -8.9 -3.65 -8.95 Q-4.0 -8.95 -4.0 -9.1 L-3.95 -9.3 -3.9 -9.4 -3.85 -9.4 -3.7 -9.7 -3.6 -9.8 -3.55 -9.9 Q-3.65 -9.95 -3.8 -10.1 L-3.95 -10.15 Q-4.05 -10.2 -4.1 -10.2 L-4.25 -10.25 -4.4 -10.25 -4.7 -10.1 -4.55 -10.25 -4.45 -10.25 -4.45 -10.3 -4.25 -10.4 Q-4.05 -10.5 -3.7 -10.5 L-3.4 -10.5 -3.1 -10.6 Q-2.85 -10.7 -2.75 -10.7 L-2.7 -10.7 M-2.3 -9.85 L-2.1 -9.85 -2.0 -9.9 -1.95 -9.9 -1.8 -9.85 -1.65 -9.7 -1.6 -9.7 -1.6 -9.8 -1.65 -10.0 Q-1.75 -10.1 -1.9 -10.15 L-2.35 -10.3 -2.4 -10.35 -2.55 -10.45 -3.15 -10.45 -3.2 -10.4 -3.35 -10.35 -3.65 -10.35 -3.75 -10.3 -3.7 -10.25 -3.55 -10.25 Q-3.45 -10.2 -3.35 -10.05 L-3.25 -9.9 -3.3 -9.8 -3.3 -9.65 -3.35 -9.45 -3.5 -9.4 -3.7 -9.25 -3.55 -9.15 Q-3.35 -9.05 -3.25 -9.05 -3.15 -9.05 -3.15 -9.1 L-3.3 -9.2 -3.4 -9.3 -3.3 -9.35 Q-3.1 -9.4 -3.0 -9.6 L-2.9 -9.85 -2.85 -9.85 -2.7 -10.2 -2.45 -9.95 -2.3 -9.85 M-4.1 -10.4 L-4.1 -10.4 M-3.1 -9.15 L-3.1 -9.15 M-2.9 -8.2 L-2.9 -8.2 M-3.35 -8.25 L-3.75 -8.25 -3.7 -8.3 -3.65 -8.3 Q-3.65 -8.25 -3.45 -8.25 L-3.35 -8.25 M-3.35 -8.45 L-3.2 -8.55 -3.15 -8.5 -3.35 -8.45 M-2.35 -8.5 L-2.2 -8.6 -2.25 -8.65 -2.9 -8.55 -2.95 -8.65 -2.95 -8.8 Q-3.1 -8.85 -3.2 -8.75 L-3.35 -8.6 -3.3 -8.6 -3.5 -8.55 -3.75 -8.45 Q-3.9 -8.35 -3.9 -8.3 L-3.9 -8.25 Q-3.95 -8.2 -3.85 -8.2 -3.7 -8.1 -3.1 -8.1 L-3.0 -8.15 -3.0 -8.1 Q-3.0 -8.05 -2.9 -8.05 -2.75 -8.05 -2.65 -8.1 -2.6 -8.15 -2.6 -8.2 L-2.6 -8.25 -2.55 -8.3 -2.55 -8.35 -2.15 -8.3 -2.15 -8.25 -1.6 -8.25 -1.4 -8.2 Q-1.3 -8.2 -1.3 -8.25 -1.3 -8.3 -1.65 -8.4 L-2.1 -8.5 -2.15 -8.45 -2.2 -8.5 -2.35 -8.5 M-2.8 -8.45 L-2.7 -8.45 -2.7 -8.4 -2.75 -8.3 -2.8 -8.35 -2.8 -8.45" fill="#ffff66" fill-rule="evenodd" stroke="none"/>
    <path d="M0.15 -6.7 L0.05 -6.65 -0.15 -6.65 Q-0.3 -6.65 -0.4 -6.7 -0.5 -6.75 -0.5 -6.8 L-0.5 -6.85 Q-0.45 -6.85 -0.4 -6.85 L-0.35 -6.85 -0.25 -6.8 -0.05 -6.8 0.05 -6.85 0.25 -6.85 0.15 -6.75 0.15 -6.7 M6.55 -6.85 Q6.65 -6.85 6.65 -6.7 L6.4 -6.55 6.35 -6.55 6.5 -6.45 6.45 -6.4 6.5 -6.35 6.5 -6.3 6.4 -6.3 6.3 -6.35 6.25 -6.45 Q6.25 -6.5 6.35 -6.55 L6.35 -6.65 6.15 -6.7 5.95 -6.7 Q5.75 -6.7 5.75 -6.8 5.75 -6.9 5.9 -6.9 5.9 -6.8 6.1 -6.75 L6.4 -6.75 6.45 -6.8 6.55 -6.85 M2.95 -6.65 L2.9 -6.55 2.8 -6.5 Q2.8 -6.45 2.75 -6.45 L2.5 -6.45 2.3 -6.35 2.3 -6.45 2.25 -6.5 2.2 -6.5 Q2.1 -6.5 1.9 -6.35 L1.6 -6.15 1.55 -6.25 1.7 -6.35 Q1.85 -6.45 1.85 -6.55 1.85 -6.65 2.05 -6.8 L1.75 -6.7 1.35 -6.5 1.3 -6.55 Q1.3 -6.65 1.8 -7.0 L1.85 -6.95 1.8 -6.9 2.15 -7.0 Q2.8 -7.2 2.8 -7.05 2.8 -7.0 2.5 -6.9 2.6 -6.9 2.65 -6.85 L2.65 -6.75 2.95 -6.7 2.95 -6.65 M2.35 -6.6 L2.35 -6.6 M2.2 -6.85 L2.2 -6.85 M-2.3 -9.85 L-2.45 -9.95 -2.7 -10.2 -2.85 -9.85 -2.9 -9.85 -3.0 -9.6 Q-3.1 -9.4 -3.3 -9.35 L-3.4 -9.3 -3.3 -9.2 -3.15 -9.1 Q-3.15 -9.05 -3.25 -9.05 -3.35 -9.05 -3.55 -9.15 L-3.7 -9.25 -3.5 -9.4 -3.35 -9.45 -3.3 -9.65 -3.3 -9.8 -3.25 -9.9 -3.35 -10.05 Q-3.45 -10.2 -3.55 -10.25 L-3.7 -10.25 -3.75 -10.3 -3.65 -10.35 -3.35 -10.35 -3.2 -10.4 -3.15 -10.45 -2.55 -10.45 -2.4 -10.35 -2.35 -10.3 -1.9 -10.15 Q-1.75 -10.1 -1.65 -10.0 L-1.6 -9.8 -1.6 -9.7 -1.65 -9.7 -1.8 -9.85 -1.95 -9.9 -2.0 -9.9 -2.1 -9.85 -2.3 -9.85 M-2.8 -8.45 L-2.8 -8.35 -2.75 -8.3 -2.7 -8.4 -2.7 -8.45 -2.8 -8.45 M-2.35 -8.5 L-2.2 -8.5 -2.15 -8.45 -2.1 -8.5 -1.65 -8.4 Q-1.3 -8.3 -1.3 -8.25 -1.3 -8.2 -1.4 -8.2 L-1.6 -8.25 -2.15 -8.25 -2.15 -8.3 -2.55 -8.35 -2.55 -8.3 -2.6 -8.25 -2.6 -8.2 Q-2.6 -8.15 -2.65 -8.1 -2.75 -8.05 -2.9 -8.05 -3.0 -8.05 -3.0 -8.1 L-3.0 -8.15 -3.1 -8.1 Q-3.7 -8.1 -3.85 -8.2 -3.95 -8.2 -3.9 -8.25 L-3.9 -8.3 Q-3.9 -8.35 -3.75 -8.45 L-3.5 -8.55 -3.3 -8.6 -3.35 -8.6 -3.2 -8.75 Q-3.1 -8.85 -2.95 -8.8 L-2.95 -8.65 -2.9 -8.55 -2.25 -8.65 -2.2 -8.6 -2.35 -8.5 M-3.35 -8.45 L-3.15 -8.5 -3.2 -8.55 -3.35 -8.45 M-3.35 -8.25 L-3.45 -8.25 Q-3.65 -8.25 -3.65 -8.3 L-3.7 -8.3 -3.75 -8.25 -3.35 -8.25 M-2.9 -8.2 L-2.9 -8.2" fill="#ffffff" fill-rule="evenodd" stroke="none"/>
  </g>
</svg>
