<?xml version="1.0" encoding="UTF-8" standalone="no"?>
<svg xmlns:ffdec="https://www.free-decompiler.com/flash" xmlns:xlink="http://www.w3.org/1999/xlink" ffdec:objectType="shape" height="16.95px" width="24.05px" xmlns="http://www.w3.org/2000/svg">
  <g transform="matrix(1.0, 0.0, 0.0, 1.0, 2.15, 15.6)">
    <path d="M4.75 -12.55 Q4.65 -12.6 4.55 -12.5 4.6 -12.25 4.7 -12.0 4.8 -11.75 4.95 -11.6 L4.85 -12.05 4.8 -12.45 Q4.8 -12.5 4.75 -12.55 M4.55 -12.65 L4.75 -12.65 Q4.85 -12.55 4.9 -12.1 L5.0 -11.45 4.95 -11.45 4.7 -11.95 Q4.45 -12.4 4.45 -12.55 L4.5 -12.65 4.55 -12.65 M21.7 -12.4 Q21.6 -12.25 21.6 -12.15 L21.45 -12.05 21.05 -12.1 20.75 -12.15 Q20.4 -12.2 20.35 -12.35 20.3 -12.45 20.35 -12.7 L20.45 -12.95 Q20.4 -13.05 20.45 -12.95 L20.5 -13.05 21.2 -12.85 Q21.8 -12.65 21.8 -12.6 21.85 -12.55 21.7 -12.4 M20.4 -12.65 L20.45 -12.85 Q20.4 -12.8 20.4 -12.65 M20.55 -12.9 L20.95 -12.6 21.4 -12.2 21.4 -12.15 21.45 -12.15 21.7 -12.55 Q21.0 -12.85 20.75 -12.9 L20.55 -12.9 M21.25 -12.15 L21.35 -12.15 21.3 -12.2 21.3 -12.15 21.25 -12.15 M20.6 -10.75 Q20.25 -10.7 20.0 -10.6 19.8 -10.5 19.55 -10.2 L19.4 -10.15 Q19.95 -10.3 19.95 -10.35 L20.4 -10.55 20.55 -10.65 20.6 -10.75 M20.8 -10.85 L20.55 -10.6 Q20.55 -10.5 20.0 -10.25 L19.65 -10.15 19.35 -10.0 19.25 -10.0 Q19.25 -10.25 19.6 -10.45 L20.1 -10.75 20.35 -10.8 20.8 -10.85 M18.6 -8.05 L18.55 -7.95 18.6 -8.0 18.6 -8.05 M18.7 -7.95 L18.8 -7.9 18.85 -7.65 18.8 -7.6 Q18.85 -7.55 18.95 -7.45 L18.85 -7.35 Q18.8 -7.4 18.75 -7.5 L18.7 -7.5 18.75 -7.45 18.85 -7.3 18.95 -7.45 19.0 -7.5 19.0 -7.9 18.95 -7.95 18.8 -8.15 18.65 -8.05 18.7 -7.95 M18.5 -7.75 L18.45 -7.9 18.55 -8.15 18.85 -8.2 18.9 -8.2 19.0 -8.1 19.05 -8.0 19.1 -8.0 19.1 -7.9 19.15 -7.6 19.05 -7.35 19.0 -7.2 18.75 -7.35 18.55 -7.55 18.55 -7.6 18.5 -7.75 M12.25 -5.7 Q12.0 -5.9 11.95 -6.05 L12.0 -6.2 12.2 -6.2 12.3 -6.15 12.5 -5.95 12.75 -5.6 12.7 -5.6 12.65 -5.55 12.6 -5.55 Q12.5 -5.55 12.25 -5.7 M17.55 1.05 L17.55 1.0 17.5 1.1 17.55 1.05 M17.4 1.25 L17.5 1.15 17.45 1.15 Q17.35 1.15 17.05 0.75 L16.85 0.5 16.9 0.85 Q17.0 1.25 17.25 1.3 L17.4 1.25 M12.0 -6.1 L12.05 -6.0 Q12.25 -5.85 12.35 -5.85 L12.2 -6.05 12.0 -6.1 M17.25 1.35 Q16.95 1.35 16.85 0.8 16.75 0.4 16.75 0.2 16.75 0.1 16.8 0.15 L16.95 0.25 17.05 0.35 Q17.7 0.85 17.7 1.05 17.45 1.4 17.25 1.35" fill="#caf9ff" fill-rule="evenodd" stroke="none"/>
    <path d="M4.75 -12.55 Q4.8 -12.5 4.8 -12.45 L4.85 -12.05 4.95 -11.6 Q4.8 -11.75 4.7 -12.0 4.6 -12.25 4.55 -12.5 4.65 -12.6 4.75 -12.55 M20.6 -10.75 L20.55 -10.65 20.4 -10.55 19.95 -10.35 Q19.95 -10.3 19.4 -10.15 L19.55 -10.2 Q19.8 -10.5 20.0 -10.6 20.25 -10.7 20.6 -10.75 M21.25 -12.15 L21.3 -12.15 21.3 -12.2 21.35 -12.15 21.25 -12.15 M20.55 -12.9 L20.75 -12.9 Q21.0 -12.85 21.7 -12.55 L21.45 -12.15 21.4 -12.15 21.4 -12.2 20.95 -12.6 20.55 -12.9 M20.4 -12.65 Q20.4 -12.8 20.45 -12.85 L20.4 -12.65 M18.7 -7.95 L18.65 -8.05 18.8 -8.15 18.95 -7.95 19.0 -7.9 19.0 -7.5 18.95 -7.45 18.85 -7.3 18.75 -7.45 18.7 -7.5 18.75 -7.5 Q18.8 -7.4 18.85 -7.35 L18.95 -7.45 Q18.85 -7.55 18.8 -7.6 L18.85 -7.65 18.8 -7.9 18.7 -7.95 M18.6 -8.05 L18.6 -8.0 18.55 -7.95 18.6 -8.05 M12.0 -6.1 L12.2 -6.05 12.35 -5.85 Q12.25 -5.85 12.05 -6.0 L12.0 -6.1 M17.4 1.25 L17.25 1.3 Q17.0 1.25 16.9 0.85 L16.85 0.5 17.05 0.75 Q17.35 1.15 17.45 1.15 L17.5 1.15 17.4 1.25 M17.55 1.05 L17.5 1.1 17.55 1.0 17.55 1.05" fill="#00cdff" fill-opacity="0.8" fill-rule="evenodd" stroke="none"/>
    <path d="M11.0 -13.55 L11.1 -13.5 Q11.4 -13.45 11.55 -13.5 L11.25 -13.6 11.0 -13.55 M20.2 -10.4 Q20.15 -10.55 20.25 -10.5 L20.55 -10.5 20.7 -10.45 Q21.8 -10.35 21.9 -10.15 21.7 -9.75 21.4 -9.6 21.0 -9.5 20.55 -9.9 20.25 -10.2 20.2 -10.4 M10.95 -13.65 L11.0 -13.65 Q11.05 -13.7 11.2 -13.75 L11.3 -13.75 11.7 -13.7 Q12.1 -13.6 12.2 -13.55 L12.15 -13.5 12.1 -13.4 Q12.15 -13.4 12.0 -13.35 11.9 -13.3 11.5 -13.35 11.05 -13.4 10.9 -13.45 L10.95 -13.65 M21.65 -10.0 L21.55 -9.95 Q21.45 -9.9 20.85 -10.05 L20.45 -10.2 20.7 -9.95 Q21.0 -9.6 21.35 -9.7 21.55 -9.75 21.55 -9.8 L21.65 -10.0 21.7 -10.05 21.65 -10.1 21.65 -10.0 M17.35 -3.8 L17.6 -3.75 17.6 -3.7 17.65 -3.6 17.65 -3.35 17.6 -3.1 Q17.5 -2.9 17.45 -2.9 L17.35 -2.8 17.25 -3.05 17.15 -3.25 17.15 -3.3 17.2 -3.45 17.2 -3.65 17.35 -3.8 M17.35 -3.65 L17.35 -3.7 17.3 -3.65 17.35 -3.65 M17.25 -3.1 L17.3 -2.9 17.45 -3.05 Q17.55 -3.25 17.55 -3.4 L17.55 -3.7 17.4 -3.7 17.4 -3.6 17.45 -3.5 17.4 -3.2 17.35 -3.2 17.4 -3.05 Q17.35 -3.0 17.3 -2.95 L17.25 -3.15 17.25 -3.1 M20.7 -5.15 Q20.6 -5.05 20.55 -4.95 L20.4 -4.95 20.15 -5.1 Q20.05 -5.15 19.95 -5.25 L19.8 -5.45 19.55 -5.3 Q19.5 -5.25 19.05 -5.2 L18.8 -5.25 18.45 -5.25 Q18.5 -5.5 18.85 -5.55 L19.25 -5.6 19.5 -5.6 Q19.6 -5.6 19.8 -5.45 19.75 -5.55 19.75 -5.65 19.75 -5.7 19.9 -5.95 L20.0 -6.1 Q20.0 -6.2 20.05 -6.15 L20.1 -6.15 20.5 -5.75 Q20.85 -5.35 20.85 -5.3 20.85 -5.2 20.7 -5.15 M20.45 -5.0 L20.75 -5.3 20.2 -6.0 Q20.15 -6.05 20.05 -6.05 L20.25 -5.6 Q20.35 -5.2 20.45 -5.05 L20.4 -5.0 20.45 -5.0 M20.3 -5.1 L20.4 -5.05 20.35 -5.1 20.3 -5.1 M19.4 -5.3 L19.55 -5.4 19.6 -5.45 Q19.35 -5.55 19.15 -5.5 19.0 -5.5 18.7 -5.35 L19.05 -5.35 19.4 -5.3 M20.0 -6.05 Q19.95 -6.0 19.9 -5.85 L20.0 -6.0 20.0 -6.05 M-2.1 -15.5 L-1.8 -15.6 Q-1.65 -15.55 -1.3 -15.2 L-0.9 -14.6 -1.0 -14.55 Q-1.15 -14.6 -1.55 -14.9 -2.1 -15.2 -2.1 -15.3 L-2.15 -15.45 -2.1 -15.5 M-1.75 -15.5 Q-1.9 -15.45 -2.05 -15.35 L-1.6 -14.95 Q-1.3 -14.8 -1.05 -14.7 L-1.05 -14.75 Q-1.1 -14.85 -1.35 -15.1 L-1.65 -15.45 Q-1.65 -15.5 -1.75 -15.5" fill="#caf9ff" fill-rule="evenodd" stroke="none"/>
    <path d="M11.0 -13.55 L11.25 -13.6 11.55 -13.5 Q11.4 -13.45 11.1 -13.5 L11.0 -13.55 M21.65 -10.1 L21.7 -10.05 21.65 -10.0 21.65 -10.1 M21.65 -10.0 L21.55 -9.8 Q21.55 -9.75 21.35 -9.7 21.0 -9.6 20.7 -9.95 L20.45 -10.2 20.85 -10.05 Q21.45 -9.9 21.55 -9.95 L21.65 -10.0 M17.25 -3.1 L17.25 -3.15 17.3 -2.95 Q17.35 -3.0 17.4 -3.05 L17.35 -3.2 17.4 -3.2 17.45 -3.5 17.4 -3.6 17.4 -3.7 17.55 -3.7 17.55 -3.4 Q17.55 -3.25 17.45 -3.05 L17.3 -2.9 17.25 -3.1 M17.35 -3.65 L17.3 -3.65 17.35 -3.7 17.35 -3.65 M20.0 -6.05 L20.0 -6.0 19.9 -5.85 Q19.95 -6.0 20.0 -6.05 M19.4 -5.3 L19.05 -5.35 18.7 -5.35 Q19.0 -5.5 19.15 -5.5 19.35 -5.55 19.6 -5.45 L19.55 -5.4 19.4 -5.3 M20.3 -5.1 L20.35 -5.1 20.4 -5.05 20.3 -5.1 M20.45 -5.0 L20.4 -5.0 20.45 -5.05 Q20.35 -5.2 20.25 -5.6 L20.05 -6.05 Q20.15 -6.05 20.2 -6.0 L20.75 -5.3 20.45 -5.0 M-1.75 -15.5 Q-1.65 -15.5 -1.65 -15.45 L-1.35 -15.1 Q-1.1 -14.85 -1.05 -14.75 L-1.05 -14.7 Q-1.3 -14.8 -1.6 -14.95 L-2.05 -15.35 Q-1.9 -15.45 -1.75 -15.5" fill="#00cdff" fill-opacity="0.8" fill-rule="evenodd" stroke="none"/>
  </g>
</svg>
