<?xml version="1.0" encoding="UTF-8" standalone="no"?>
<svg xmlns:ffdec="https://www.free-decompiler.com/flash" xmlns:xlink="http://www.w3.org/1999/xlink" ffdec:objectType="shape" height="4.25px" width="8.8px" xmlns="http://www.w3.org/2000/svg">
  <g transform="matrix(1.0, 0.0, 0.0, 1.0, 4.25, 11.9)">
    <path d="M2.0 -11.65 L2.15 -11.85 2.3 -11.9 2.35 -11.9 2.85 -11.85 2.9 -11.9 2.95 -11.85 3.4 -11.85 3.55 -11.8 4.05 -11.8 Q4.4 -11.8 4.4 -11.75 L4.45 -11.7 4.0 -11.7 Q3.9 -11.65 3.75 -11.65 L3.8 -11.65 3.5 -11.5 3.35 -11.4 Q3.3 -11.35 3.1 -11.3 L3.05 -11.3 3.05 -11.25 Q3.0 -11.25 2.95 -11.25 L2.9 -11.15 2.95 -11.0 2.95 -10.95 3.05 -10.9 3.1 -10.85 Q3.25 -10.85 3.3 -10.8 L3.5 -10.6 Q3.6 -10.5 3.85 -10.5 L4.1 -10.5 4.1 -10.45 4.05 -10.45 3.8 -10.35 3.7 -10.3 3.65 -10.25 3.5 -10.25 3.1 -10.2 2.8 -10.2 2.45 -10.4 2.45 -10.45 1.9 -10.8 1.9 -10.85 1.85 -10.85 1.8 -10.95 1.8 -11.3 1.85 -11.35 2.0 -11.65 M2.5 -11.8 L2.5 -11.85 2.45 -11.85 2.35 -11.8 2.35 -11.65 2.3 -11.6 2.25 -11.5 2.0 -11.3 1.95 -11.3 1.9 -11.05 1.9 -11.0 2.0 -10.9 2.25 -10.75 2.5 -10.5 2.85 -10.25 Q2.9 -10.25 2.95 -10.25 L3.35 -10.25 3.6 -10.3 3.8 -10.4 3.5 -10.4 Q3.35 -10.4 3.3 -10.5 L3.3 -10.65 3.05 -10.8 Q2.8 -10.85 2.65 -10.85 L2.65 -10.9 2.65 -11.0 2.8 -11.35 Q3.05 -11.35 3.2 -11.45 L3.35 -11.55 3.8 -11.7 3.95 -11.7 3.9 -11.75 3.75 -11.7 3.7 -11.75 3.25 -11.7 3.05 -11.65 3.0 -11.65 Q3.0 -11.75 2.8 -11.75 L2.75 -11.75 Q2.7 -11.75 2.55 -11.8 L2.55 -11.85 2.5 -11.85 2.5 -11.8 M1.95 -11.0 L2.0 -10.95 1.95 -10.95 1.95 -11.0 M4.4 -9.0 L4.05 -9.0 3.85 -8.95 3.7 -9.05 3.55 -9.1 3.75 -9.3 4.05 -9.3 4.15 -9.35 4.15 -9.4 Q4.1 -9.55 4.0 -9.6 L3.9 -9.65 4.0 -9.65 4.3 -9.55 4.5 -9.35 4.5 -9.4 4.55 -9.3 4.55 -9.05 4.5 -9.05 4.45 -9.0 4.4 -9.0 Q4.5 -9.0 4.45 -9.15 L4.45 -9.3 4.35 -9.35 4.35 -9.4 4.3 -9.35 4.35 -9.3 4.35 -9.25 4.3 -9.2 3.8 -9.2 3.65 -9.1 3.7 -9.05 3.8 -9.05 3.9 -9.0 4.0 -9.0 4.05 -9.05 4.1 -9.05 4.3 -9.0 4.4 -9.0 M-2.65 -8.7 Q-2.7 -8.7 -3.0 -8.65 L-3.1 -8.65 -3.15 -8.6 -3.2 -8.6 -3.3 -8.55 -3.45 -8.5 Q-3.6 -8.4 -3.6 -8.3 L-3.6 -8.25 -3.55 -8.25 -3.5 -8.2 -3.5 -8.25 -3.55 -8.3 -3.45 -8.3 -3.4 -8.35 -3.4 -8.4 -3.1 -8.4 -2.85 -8.3 -2.85 -7.9 Q-2.85 -7.85 -2.9 -7.8 L-2.95 -7.75 Q-3.05 -7.65 -3.2 -7.65 L-3.4 -7.65 Q-3.65 -7.65 -3.85 -7.7 L-4.05 -7.85 -4.1 -7.95 -4.15 -8.0 -4.2 -8.1 -4.25 -8.25 -4.25 -8.35 -4.15 -8.45 -4.15 -8.5 -3.95 -8.6 -4.0 -8.5 -3.95 -8.5 -3.95 -8.35 -3.85 -8.45 -3.4 -8.6 -3.35 -8.65 -3.15 -8.65 -3.0 -8.7 -2.65 -8.7 M-2.95 -8.2 Q-2.95 -8.25 -3.05 -8.3 L-3.2 -8.3 Q-3.4 -8.3 -3.4 -8.25 L-3.35 -8.15 -3.4 -8.1 -3.5 -8.05 -3.7 -8.15 -3.7 -8.2 -3.75 -8.2 -3.75 -8.25 -3.7 -8.35 -3.65 -8.4 -3.5 -8.5 -3.55 -8.55 -3.65 -8.5 -3.8 -8.4 -3.9 -8.3 -4.0 -8.25 -4.0 -8.2 -4.05 -8.3 -4.05 -8.45 Q-4.15 -8.45 -4.2 -8.2 -4.2 -8.1 -4.1 -8.05 L-3.9 -7.85 -3.85 -7.85 -3.8 -7.8 -3.5 -7.7 -3.4 -7.7 -3.4 -7.75 -3.3 -7.75 Q-3.1 -7.8 -3.1 -7.85 L-3.05 -7.9 -3.15 -7.95 -3.05 -8.05 -2.95 -8.2 M-3.45 -8.2 L-3.45 -8.2 M-3.95 -8.65 L-3.95 -8.65 M-3.0 -7.95 L-3.0 -7.95" fill="#ffde44" fill-rule="evenodd" stroke="none"/>
    <path d="M2.55 -11.8 Q2.7 -11.75 2.75 -11.75 L2.8 -11.75 Q3.0 -11.75 3.0 -11.65 L3.05 -11.65 3.25 -11.7 3.7 -11.75 3.75 -11.7 3.9 -11.75 3.95 -11.7 3.8 -11.7 3.35 -11.55 3.2 -11.45 Q3.05 -11.35 2.8 -11.35 L2.65 -11.0 2.65 -10.9 2.65 -10.85 Q2.8 -10.85 3.05 -10.8 L3.3 -10.65 3.3 -10.5 Q3.35 -10.4 3.5 -10.4 L3.8 -10.4 3.6 -10.3 3.35 -10.25 2.95 -10.25 Q2.9 -10.25 2.85 -10.25 L2.5 -10.5 2.25 -10.75 2.0 -10.9 1.9 -11.0 1.9 -11.05 1.95 -11.3 2.0 -11.3 2.25 -11.5 2.3 -11.6 2.35 -11.65 2.35 -11.8 2.45 -11.85 2.5 -11.85 2.5 -11.8 2.55 -11.8 M2.1 -11.1 L2.3 -11.05 Q2.4 -10.95 2.35 -10.85 L2.4 -10.85 Q2.5 -10.85 2.5 -10.9 L2.45 -11.1 2.55 -11.25 2.7 -11.4 2.9 -11.45 Q3.1 -11.5 3.1 -11.55 L3.05 -11.6 2.8 -11.55 2.7 -11.5 2.65 -11.5 2.75 -11.6 Q2.75 -11.7 2.55 -11.6 L2.4 -11.55 2.45 -11.45 Q2.45 -11.4 2.25 -11.3 L2.05 -11.15 Q2.05 -11.1 2.1 -11.1 M2.25 -11.15 L2.25 -11.15 M1.95 -11.0 L1.95 -10.95 2.0 -10.95 1.95 -11.0 M2.45 -10.65 Q2.45 -10.6 2.55 -10.55 L2.75 -10.5 2.85 -10.35 Q2.9 -10.3 3.05 -10.3 L3.25 -10.35 3.3 -10.35 3.15 -10.4 Q3.15 -10.45 3.1 -10.5 L3.1 -10.55 Q3.1 -10.6 3.0 -10.6 L2.9 -10.7 2.5 -10.7 Q2.45 -10.7 2.45 -10.65 M2.85 -10.65 L2.85 -10.6 2.8 -10.65 2.85 -10.65 M4.4 -9.0 L4.3 -9.0 4.1 -9.05 4.05 -9.05 4.35 -9.05 Q4.4 -9.05 4.45 -9.05 L4.45 -9.15 4.4 -9.15 4.35 -9.1 3.75 -9.15 3.75 -9.1 3.95 -9.0 4.0 -9.0 3.9 -9.0 3.8 -9.05 3.7 -9.05 3.65 -9.1 3.8 -9.2 4.3 -9.2 4.35 -9.25 4.35 -9.3 4.3 -9.35 4.35 -9.4 4.35 -9.35 4.45 -9.3 4.45 -9.15 Q4.5 -9.0 4.4 -9.0 M-2.95 -8.2 L-3.05 -8.05 -3.15 -7.95 -3.05 -7.9 -3.1 -7.85 Q-3.1 -7.8 -3.3 -7.75 L-3.4 -7.75 -3.4 -7.7 -3.5 -7.7 -3.8 -7.8 -3.85 -7.85 -3.9 -7.85 -4.1 -8.05 Q-4.2 -8.1 -4.2 -8.2 -4.15 -8.45 -4.05 -8.45 L-4.05 -8.3 -4.0 -8.2 -4.0 -8.25 -3.9 -8.3 -3.8 -8.4 -3.65 -8.5 -3.55 -8.55 -3.5 -8.5 -3.65 -8.4 -3.7 -8.35 -3.75 -8.25 -3.75 -8.2 -3.7 -8.2 -3.7 -8.15 -3.5 -8.05 -3.4 -8.1 -3.35 -8.15 -3.4 -8.25 Q-3.4 -8.3 -3.2 -8.3 L-3.05 -8.3 Q-2.95 -8.25 -2.95 -8.2 M-3.3 -8.2 L-3.3 -8.05 -3.2 -8.05 Q-3.15 -8.05 -3.1 -8.1 L-3.1 -8.15 -3.15 -8.25 Q-3.15 -8.3 -3.25 -8.2 L-3.3 -8.2 M-3.95 -8.05 L-3.85 -7.9 Q-3.7 -7.8 -3.55 -7.8 -3.4 -7.8 -3.4 -7.85 L-3.3 -7.9 Q-3.4 -7.95 -3.75 -8.05 L-3.75 -8.1 Q-3.8 -8.15 -3.95 -8.15 L-3.95 -8.05" fill="#ffff66" fill-rule="evenodd" stroke="none"/>
    <path d="M2.25 -11.15 L2.25 -11.15 M2.1 -11.1 Q2.05 -11.1 2.05 -11.15 L2.25 -11.3 Q2.45 -11.4 2.45 -11.45 L2.4 -11.55 2.55 -11.6 Q2.75 -11.7 2.75 -11.6 L2.65 -11.5 2.7 -11.5 2.8 -11.55 3.05 -11.6 3.1 -11.55 Q3.1 -11.5 2.9 -11.45 L2.7 -11.4 2.55 -11.25 2.45 -11.1 2.5 -10.9 Q2.5 -10.85 2.4 -10.85 L2.35 -10.85 Q2.4 -10.95 2.3 -11.05 L2.1 -11.1 M2.85 -10.65 L2.8 -10.65 2.85 -10.6 2.85 -10.65 M2.45 -10.65 Q2.45 -10.7 2.5 -10.7 L2.9 -10.7 3.0 -10.6 Q3.1 -10.6 3.1 -10.55 L3.1 -10.5 Q3.15 -10.45 3.15 -10.4 L3.3 -10.35 3.25 -10.35 3.05 -10.3 Q2.9 -10.3 2.85 -10.35 L2.75 -10.5 2.55 -10.55 Q2.45 -10.6 2.45 -10.65 M4.05 -9.05 L4.0 -9.0 3.95 -9.0 3.75 -9.1 3.75 -9.15 4.35 -9.1 4.4 -9.15 4.45 -9.15 4.45 -9.05 Q4.4 -9.05 4.35 -9.05 L4.05 -9.05 M-3.3 -8.2 L-3.25 -8.2 Q-3.15 -8.3 -3.15 -8.25 L-3.1 -8.15 -3.1 -8.1 Q-3.15 -8.05 -3.2 -8.05 L-3.3 -8.05 -3.3 -8.2 M-3.95 -8.05 L-3.95 -8.15 Q-3.8 -8.15 -3.75 -8.1 L-3.75 -8.05 Q-3.4 -7.95 -3.3 -7.9 L-3.4 -7.85 Q-3.4 -7.8 -3.55 -7.8 -3.7 -7.8 -3.85 -7.9 L-3.95 -8.05" fill="#ffffff" fill-rule="evenodd" stroke="none"/>
  </g>
</svg>
