<?xml version="1.0" encoding="UTF-8" standalone="no"?>
<svg xmlns:ffdec="https://www.free-decompiler.com/flash" xmlns:xlink="http://www.w3.org/1999/xlink" ffdec:objectType="shape" height="43.05px" width="55.05px" xmlns="http://www.w3.org/2000/svg">
  <g transform="matrix(1.0, 0.0, 0.0, 1.0, -11.3, 26.15)">
    <path d="M27.7 -0.35 L28.2 -0.4 28.45 -0.4 Q28.7 -0.4 29.15 -0.5 L30.05 -0.8 30.15 -0.85 Q30.2 -1.05 30.5 -1.1 L30.55 -1.15 31.25 -1.2 32.7 -1.2 33.25 -1.75 Q33.4 -1.9 33.4 -2.15 33.4 -3.15 31.3 -4.6 L29.9 -5.5 Q29.25 -5.95 29.25 -6.05 29.25 -6.25 29.3 -6.4 29.4 -6.55 29.55 -6.65 29.75 -6.85 30.85 -7.35 31.8 -7.45 32.5 -6.8 33.05 -6.3 33.05 -5.95 33.05 -5.8 33.0 -5.7 L32.9 -5.6 Q32.7 -5.45 32.7 -5.3 32.7 -5.1 32.8 -4.85 L32.95 -4.35 33.05 -4.1 33.4 -4.0 34.05 -3.85 35.0 -3.55 35.5 -3.35 Q36.25 -3.05 36.25 -2.7 L36.25 -2.65 Q36.25 -1.8 36.1 -1.4 36.0 -1.0 35.65 -0.65 L35.35 -0.4 35.1 -0.2 Q33.75 -0.15 33.4 0.1 33.1 0.25 32.35 0.25 32.4 0.55 32.7 1.2 33.1 1.95 33.7 2.65 35.4 4.5 37.7 4.5 L38.9 4.4 39.85 4.25 40.3 4.0 Q40.95 3.65 40.95 3.2 40.95 2.6 40.55 0.65 40.2 -1.35 40.2 -1.7 40.2 -1.95 40.35 -2.2 40.55 -2.45 41.0 -2.7 L41.05 -2.7 41.4 -2.65 Q42.05 -2.55 42.45 -2.25 L42.6 -2.1 42.65 -2.1 Q42.8 -1.9 42.95 -1.85 L43.0 -1.8 43.05 -1.8 Q43.35 -1.7 43.8 -1.7 45.4 -1.7 46.3 -2.5 47.0 -3.1 47.0 -3.7 47.0 -4.05 46.75 -4.55 46.45 -5.1 46.5 -5.8 45.25 -5.45 44.85 -5.45 44.65 -5.45 44.35 -5.55 L43.9 -5.7 Q43.75 -5.95 43.7 -6.1 43.65 -6.3 43.65 -6.6 L43.65 -6.85 43.6 -6.85 Q43.55 -6.95 43.65 -7.1 L43.7 -7.2 43.7 -7.45 Q43.7 -7.75 43.4 -8.2 43.15 -8.6 42.85 -8.9 41.4 -8.85 40.55 -9.35 40.15 -9.6 39.45 -10.45 L38.55 -10.45 38.3 -10.15 Q38.15 -10.0 37.9 -9.95 L37.8 -10.0 37.8 -10.35 38.0 -10.85 38.15 -11.1 38.3 -11.45 Q38.4 -11.65 38.75 -11.95 L39.2 -12.2 39.45 -12.25 39.55 -12.25 39.25 -12.6 39.05 -12.9 Q38.7 -13.4 38.35 -14.1 L38.2 -14.5 38.0 -14.9 37.45 -15.15 36.15 -15.75 35.9 -15.9 Q35.25 -16.25 35.25 -16.65 35.3 -16.85 35.55 -17.15 L35.6 -17.25 Q35.8 -17.45 35.8 -17.55 35.8 -18.45 34.85 -19.3 34.15 -19.9 33.55 -20.1 L33.45 -20.1 Q33.3 -20.2 33.05 -20.55 L33.0 -20.65 Q32.75 -20.95 32.75 -21.1 32.75 -21.3 32.8 -21.3 32.85 -21.4 33.15 -21.5 L34.2 -21.45 35.45 -21.4 35.65 -21.6 Q36.5 -21.7 37.15 -21.9 L37.25 -21.9 Q37.8 -22.05 38.4 -22.1 38.45 -22.45 38.4 -23.05 L38.4 -23.1 38.35 -23.5 38.3 -23.85 Q38.3 -24.0 38.4 -24.05 38.45 -24.2 38.7 -24.35 L39.05 -24.4 Q40.95 -24.4 41.5 -24.1 L41.55 -24.05 41.85 -23.8 Q42.05 -23.7 42.45 -23.65 L43.05 -23.65 43.25 -24.3 43.25 -24.45 43.3 -24.55 Q43.4 -24.9 43.7 -25.15 43.8 -25.2 43.9 -25.3 L44.0 -25.35 44.7 -25.35 45.2 -25.25 45.35 -25.1 46.45 -23.75 Q46.85 -23.25 47.2 -22.9 47.6 -22.5 47.95 -22.3 L48.4 -22.3 Q48.5 -22.4 48.65 -22.7 L48.9 -23.1 49.0 -23.25 Q49.2 -23.5 49.5 -23.65 50.0 -23.95 50.8 -24.0 L51.25 -24.05 Q51.6 -24.25 51.85 -24.9 L51.9 -25.0 51.95 -25.05 Q52.3 -25.55 53.35 -25.3 L53.65 -24.95 Q54.3 -24.3 54.85 -23.55 L55.75 -22.25 56.05 -21.8 56.2 -21.5 Q57.0 -20.05 57.0 -19.1 56.95 -17.2 56.95 -16.2 L56.85 -16.05 56.4 -16.05 Q56.0 -16.65 55.5 -17.5 L54.7 -18.95 Q53.7 -20.65 52.3 -21.85 51.85 -21.95 51.75 -22.0 L51.35 -20.9 Q51.1 -20.3 50.65 -19.85 50.2 -19.8 50.0 -19.7 L49.8 -19.55 48.4 -19.7 46.8 -19.85 44.7 -19.35 Q44.55 -19.2 44.2 -18.15 43.8 -17.0 43.8 -16.65 L43.85 -15.5 Q43.9 -14.55 44.0 -13.95 43.95 -13.55 43.95 -13.3 44.0 -12.85 44.3 -12.7 44.65 -12.55 46.0 -12.0 L46.0 -12.1 Q46.0 -12.35 46.0 -12.45 L46.05 -12.6 46.3 -12.6 46.25 -12.4 Q46.35 -12.0 46.85 -11.55 48.4 -11.8 49.4 -12.45 50.2 -13.0 50.45 -13.6 L50.65 -14.15 Q50.75 -14.5 50.8 -14.7 51.1 -15.15 51.6 -15.15 L52.7 -15.2 Q53.6 -14.9 54.15 -14.4 L54.9 -13.6 Q55.3 -13.1 55.75 -12.8 56.4 -12.4 57.5 -12.15 58.4 -12.65 59.1 -13.5 L59.55 -14.05 60.15 -14.95 60.3 -15.15 Q60.6 -15.55 60.85 -15.75 61.65 -16.0 63.1 -14.8 L64.05 -13.9 64.2 -13.7 64.35 -13.55 64.45 -13.3 Q64.6 -12.45 64.7 -12.05 L64.8 -11.85 Q64.9 -11.4 65.15 -11.0 L65.3 -10.75 Q65.55 -10.25 65.55 -9.5 65.45 -8.6 65.45 -8.2 65.45 -7.7 65.55 -6.7 L65.7 -5.6 Q65.7 -5.2 65.15 -4.85 64.8 -4.65 63.95 -4.3 63.1 -4.0 62.75 -3.75 62.2 -3.45 62.2 -3.0 62.2 -2.5 62.45 -2.25 62.6 -2.1 63.0 -1.9 63.8 -1.4 63.8 -0.45 63.8 0.15 63.5 0.65 63.0 1.3 62.55 1.95 L62.4 2.45 Q62.2 2.95 62.05 3.1 L61.5 3.6 60.85 4.2 60.8 4.2 60.15 4.4 59.55 4.55 Q59.0 5.8 58.5 6.5 57.65 7.8 56.25 8.35 55.65 8.3 55.4 8.15 55.1 8.05 54.35 7.95 L53.4 8.0 51.8 8.05 51.55 8.05 Q51.4 8.15 51.2 8.55 51.1 8.85 51.0 9.1 L51.15 9.2 51.55 9.25 51.65 9.3 Q51.85 9.45 52.0 9.6 L52.1 9.75 Q52.2 9.95 52.2 10.25 52.2 10.4 51.8 10.95 L51.35 11.7 51.0 12.25 50.35 12.15 48.95 12.05 Q47.9 12.1 47.6 12.6 47.4 12.85 47.35 13.45 47.25 14.0 47.1 14.2 46.45 15.0 45.9 15.35 L45.75 15.5 Q45.35 15.75 44.8 16.0 L43.85 16.4 43.65 16.35 Q43.2 16.3 42.95 16.05 L42.5 16.0 Q41.85 15.9 41.55 15.65 L41.25 15.2 41.05 15.0 41.05 14.75 Q41.05 14.7 41.25 14.7 41.45 14.7 41.75 14.95 L42.15 15.3 43.55 15.2 Q43.9 14.9 44.4 14.0 44.85 13.15 45.5 12.65 46.45 11.9 46.65 11.35 46.9 10.65 47.5 10.05 L48.05 10.05 48.2 10.25 Q48.35 10.45 48.5 10.45 L48.8 10.4 Q48.95 10.3 49.1 10.3 49.55 9.6 49.65 9.35 49.7 9.25 49.7 8.8 49.7 8.45 50.0 7.95 50.3 7.35 50.7 7.05 L50.95 7.1 51.05 7.1 Q51.4 6.85 52.05 6.7 L53.25 6.65 Q54.65 6.15 55.0 5.95 55.75 5.5 55.75 4.75 55.75 4.5 55.5 4.25 55.25 4.0 54.35 3.45 53.35 3.2 51.45 2.95 50.25 2.8 49.95 2.45 49.3 2.5 48.9 2.6 L48.3 2.8 47.9 3.2 Q47.65 3.4 47.2 3.4 45.7 3.4 45.45 2.65 45.35 2.45 45.35 2.05 L45.3 1.6 Q45.1 1.1 44.35 0.8 43.55 0.5 43.3 0.3 L42.85 0.4 Q42.55 0.65 42.35 1.2 L42.25 1.45 42.5 2.2 Q42.7 3.0 42.7 3.15 42.7 3.9 41.5 5.3 40.1 6.7 39.7 7.2 L37.7 7.2 37.6 7.05 37.45 6.85 37.3 6.8 36.45 6.55 36.0 6.65 Q36.0 6.8 36.15 7.15 36.25 7.55 36.25 7.7 36.25 8.3 35.9 8.6 35.25 9.05 33.25 9.05 L33.0 9.3 32.8 9.4 32.45 9.6 31.85 9.7 31.4 10.05 31.1 10.25 30.45 10.25 Q30.0 10.1 29.5 9.55 L29.45 9.45 28.8 8.7 28.8 8.4 28.95 8.45 29.3 8.45 Q30.25 8.45 31.45 7.5 32.45 6.65 32.45 6.5 32.45 5.95 31.7 4.9 30.85 3.9 30.7 3.7 30.3 2.95 29.7 2.6 29.4 2.4 27.8 1.7 L26.8 1.7 26.05 1.75 Q25.45 2.15 25.3 2.45 25.1 2.7 25.1 3.2 25.1 3.65 25.95 4.5 26.8 5.35 26.8 6.0 26.8 6.9 26.65 7.1 L26.0 7.75 25.8 7.9 25.2 7.9 25.05 8.1 Q24.9 8.25 24.55 8.4 24.05 8.55 23.4 8.4 23.2 8.3 22.95 8.2 22.7 8.2 22.25 8.35 L22.0 8.45 21.95 8.5 Q21.25 8.75 20.4 8.75 L19.95 8.65 19.45 8.55 Q19.1 8.05 19.0 7.7 L19.05 7.45 19.1 7.45 Q19.25 7.5 19.45 7.55 L19.6 7.7 Q20.3 7.65 20.85 7.7 L21.5 7.75 Q21.75 7.75 22.35 7.6 22.95 7.45 23.3 7.25 23.45 7.15 23.6 6.9 23.75 6.6 23.75 6.45 23.75 6.3 23.55 6.05 23.3 5.85 23.3 5.6 23.3 5.5 23.4 5.3 23.5 5.05 23.5 4.85 L23.0 4.05 Q22.5 3.3 22.5 3.05 22.5 2.9 22.8 2.35 23.05 1.8 23.05 1.65 23.05 1.4 23.15 0.9 23.25 0.4 23.25 0.25 23.25 -0.25 22.75 -0.4 L22.05 -0.45 21.4 -0.75 Q20.7 -1.05 20.25 -1.05 19.9 -1.05 19.8 -0.7 L19.7 -0.35 Q19.7 -0.1 20.35 0.55 21.0 1.2 21.0 1.65 21.0 1.9 20.55 2.25 20.05 2.6 20.0 2.65 L19.85 2.9 20.2 2.9 20.2 2.95 19.8 3.35 Q19.55 3.65 19.15 3.8 L18.45 3.8 Q18.35 3.65 18.3 3.35 L18.25 3.15 Q18.2 2.85 17.95 2.6 L16.55 2.5 16.4 2.4 Q15.25 1.55 14.65 0.85 L14.25 0.35 Q14.05 0.05 13.95 -0.2 13.8 -0.55 13.8 -0.9 13.8 -1.4 13.9 -1.65 L14.6 -2.7 Q16.65 -2.65 17.05 -3.45 17.2 -3.7 17.2 -4.2 L17.15 -5.05 Q17.15 -5.2 17.2 -5.25 L17.25 -5.35 17.45 -5.4 Q17.6 -5.25 17.9 -4.2 18.15 -3.2 18.15 -2.95 18.15 -2.45 17.5 -2.2 L15.95 -1.8 15.3 -1.2 Q15.2 -1.0 15.15 -0.85 15.05 -0.7 15.05 -0.45 15.05 0.25 15.45 0.75 16.05 1.55 17.35 1.8 19.25 0.85 19.25 0.35 L18.9 -0.6 Q18.5 -1.55 18.5 -1.8 18.5 -2.0 18.55 -2.2 18.7 -2.65 19.15 -3.0 19.3 -3.1 19.45 -3.25 20.05 -3.6 21.45 -4.3 21.7 -4.35 22.25 -4.15 L22.65 -4.0 23.35 -3.8 23.95 -3.6 Q24.35 -3.25 24.7 -2.85 25.15 -2.3 25.25 -1.85 25.3 -1.25 25.35 -0.85 25.45 -0.15 25.8 -0.15 L26.55 -0.2 27.15 -0.25 27.7 -0.35 M40.55 -11.6 L40.8 -10.9 Q40.95 -10.85 41.15 -10.75 41.25 -10.65 41.45 -10.65 41.55 -10.65 41.6 -10.85 41.65 -11.1 41.85 -11.1 42.3 -11.1 42.5 -10.85 L42.75 -10.2 Q43.05 -9.35 43.85 -9.05 44.6 -9.4 44.8 -8.9 44.85 -8.7 44.85 -8.1 L44.85 -7.65 45.1 -7.7 Q45.55 -7.75 45.8 -7.9 46.15 -8.1 46.3 -8.65 46.3 -8.7 46.2 -8.85 L46.05 -9.05 Q44.8 -9.4 44.55 -9.55 44.45 -9.65 44.4 -9.9 44.05 -10.2 44.05 -10.45 L44.0 -10.6 43.85 -10.6 Q43.35 -10.6 43.25 -10.95 L43.25 -11.15 42.95 -11.6 Q42.55 -12.1 41.9 -12.4 41.9 -12.2 41.8 -12.0 41.6 -11.7 41.3 -11.55 L40.55 -11.6 M44.05 -7.5 L44.05 -7.4 44.1 -7.55 44.05 -7.5" fill="#ffffff" fill-rule="evenodd" stroke="none"/>
    <path d="M21.95 8.5 L21.65 8.65 20.3 8.8 Q19.6 8.8 19.3 8.6 18.95 8.35 18.8 7.6 L18.55 7.05 Q18.35 6.6 18.35 6.4 18.35 6.25 18.4 6.0 18.5 5.7 18.7 5.7 L19.0 5.75 Q19.25 5.8 19.35 5.75 L19.5 5.9 19.6 6.05 20.3 6.05 Q21.2 5.85 21.4 5.6 21.5 5.5 21.5 5.15 L21.3 4.15 Q21.3 3.95 21.65 3.55 22.0 3.1 22.0 2.9 22.0 2.75 21.95 2.65 21.85 2.5 21.8 2.5 L21.5 2.5 21.4 2.65 21.2 2.85 Q20.95 2.95 20.6 3.1 20.15 3.3 20.0 3.4 L19.6 3.75 Q19.3 4.05 19.15 4.05 L18.4 4.05 Q17.95 3.4 17.7 3.0 L16.85 2.9 16.75 2.75 16.6 2.65 Q15.4 2.9 14.6 1.8 13.95 0.95 13.85 0.05 12.95 -0.1 12.65 -0.7 12.45 -1.05 12.45 -1.6 12.45 -2.05 12.6 -2.7 L12.8 -3.45 12.7 -3.8 12.6 -4.1 12.6 -4.35 Q12.65 -4.55 12.55 -4.7 L12.25 -5.25 Q12.0 -5.65 11.75 -5.85 L11.6 -5.7 11.35 -5.7 Q11.3 -5.8 11.3 -6.0 11.3 -6.4 11.45 -6.55 11.65 -6.8 12.2 -7.05 L12.4 -7.0 Q12.65 -6.65 12.85 -6.3 12.9 -6.2 13.1 -6.0 L13.3 -5.65 Q13.45 -5.25 13.6 -5.0 13.75 -4.55 14.05 -4.35 L15.25 -4.05 Q15.6 -4.05 16.2 -4.85 16.45 -5.2 16.45 -5.35 L16.35 -5.7 Q16.35 -6.0 16.6 -6.0 16.7 -6.0 16.95 -5.85 17.25 -5.7 17.35 -5.65 L17.65 -5.2 17.9 -4.75 18.05 -4.35 Q18.4 -3.8 18.5 -3.45 18.65 -3.0 18.45 -2.6 L18.45 -2.55 Q18.9 -2.65 19.0 -3.15 19.0 -3.25 19.2 -3.5 L19.55 -3.9 Q19.6 -3.95 19.95 -4.2 20.3 -4.4 20.35 -4.55 L20.45 -4.9 Q20.55 -5.15 20.8 -5.3 L21.35 -5.3 Q21.9 -5.2 22.05 -5.05 L22.2 -4.7 Q22.3 -4.2 23.7 -4.1 24.65 -4.05 24.95 -3.85 L25.2 -3.55 25.35 -3.2 25.45 -2.85 Q25.5 -2.25 25.85 -1.4 26.15 -0.75 26.6 -0.5 26.95 -0.3 27.4 -0.3 L27.7 -0.35 27.15 -0.25 26.55 -0.2 25.8 -0.15 Q25.45 -0.15 25.35 -0.85 25.3 -1.25 25.25 -1.85 25.15 -2.3 24.7 -2.85 24.35 -3.25 23.95 -3.6 L23.35 -3.8 22.65 -4.0 22.25 -4.15 Q21.7 -4.35 21.45 -4.3 20.05 -3.6 19.45 -3.25 19.3 -3.1 19.15 -3.0 18.7 -2.65 18.55 -2.2 18.5 -2.0 18.5 -1.8 18.5 -1.55 18.9 -0.6 L19.25 0.35 Q19.25 0.85 17.35 1.8 16.05 1.55 15.45 0.75 15.05 0.25 15.05 -0.45 15.05 -0.7 15.15 -0.85 15.2 -1.0 15.3 -1.2 L15.95 -1.8 17.5 -2.2 Q18.15 -2.45 18.15 -2.95 18.15 -3.2 17.9 -4.2 17.6 -5.25 17.45 -5.4 L17.25 -5.35 17.2 -5.25 Q17.15 -5.2 17.15 -5.05 L17.2 -4.2 Q17.2 -3.7 17.05 -3.45 16.65 -2.65 14.6 -2.7 L13.9 -1.65 Q13.8 -1.4 13.8 -0.9 13.8 -0.55 13.95 -0.2 14.05 0.05 14.25 0.35 L14.65 0.85 Q15.25 1.55 16.4 2.4 L16.55 2.5 17.95 2.6 Q18.2 2.85 18.25 3.15 L18.3 3.35 Q18.35 3.65 18.45 3.8 L19.15 3.8 Q19.55 3.65 19.8 3.35 L20.2 2.95 20.2 2.9 19.85 2.9 20.0 2.65 Q20.05 2.6 20.55 2.25 21.0 1.9 21.0 1.65 21.0 1.2 20.35 0.55 19.7 -0.1 19.7 -0.35 L19.8 -0.7 Q19.9 -1.05 20.25 -1.05 20.7 -1.05 21.4 -0.75 L22.05 -0.45 22.75 -0.4 Q23.25 -0.25 23.25 0.25 23.25 0.4 23.15 0.9 23.05 1.4 23.05 1.65 23.05 1.8 22.8 2.35 22.5 2.9 22.5 3.05 22.5 3.3 23.0 4.05 L23.5 4.85 Q23.5 5.05 23.4 5.3 23.3 5.5 23.3 5.6 23.3 5.85 23.55 6.05 23.75 6.3 23.75 6.45 23.75 6.6 23.6 6.9 23.45 7.15 23.3 7.25 22.95 7.45 22.35 7.6 21.75 7.75 21.5 7.75 L20.85 7.7 Q20.3 7.65 19.6 7.7 L19.45 7.55 Q19.25 7.5 19.1 7.45 L19.05 7.45 19.0 7.7 Q19.1 8.05 19.45 8.55 L19.95 8.65 20.4 8.75 Q21.25 8.75 21.95 8.5 M28.2 -0.4 Q28.55 -0.45 28.75 -0.55 28.9 -0.65 29.0 -0.85 L29.35 -1.05 Q29.65 -1.15 29.8 -1.3 30.0 -1.45 30.3 -1.45 L30.75 -1.5 Q31.1 -1.65 31.15 -1.75 L31.15 -2.1 Q31.15 -2.75 30.55 -3.5 30.05 -4.25 29.6 -4.35 29.45 -4.35 29.2 -4.25 L28.95 -4.15 28.6 -4.15 Q28.35 -4.25 28.15 -4.8 28.0 -5.3 28.0 -5.6 28.0 -5.85 29.05 -6.65 30.1 -7.45 30.5 -7.55 31.8 -7.9 32.65 -6.95 33.25 -6.25 33.25 -5.6 L33.1 -4.75 Q33.1 -4.7 33.2 -4.6 L33.5 -4.35 Q33.6 -4.3 33.95 -4.25 L34.5 -4.15 35.3 -3.85 Q35.8 -3.7 36.0 -3.6 36.9 -2.25 36.9 -2.0 36.9 -1.75 36.5 -1.25 36.2 -0.8 36.05 -0.65 L35.45 -0.05 Q35.3 0.05 35.3 0.15 L35.2 0.3 Q35.05 0.35 33.8 0.3 L33.5 0.6 Q33.35 0.7 33.35 0.8 33.35 0.9 33.85 1.5 34.35 2.0 34.5 2.1 L35.25 2.1 Q36.9 2.0 37.5 1.75 37.85 1.6 38.25 1.05 38.45 0.8 38.6 0.35 38.7 -0.05 38.75 -0.45 L38.85 -1.85 Q38.9 -2.45 39.0 -2.7 39.1 -3.0 39.35 -3.1 39.65 -3.25 40.25 -3.25 41.15 -3.25 41.3 -2.95 L41.4 -2.75 41.4 -2.65 41.05 -2.7 41.0 -2.7 Q40.55 -2.45 40.35 -2.2 40.2 -1.95 40.2 -1.7 40.2 -1.35 40.55 0.65 40.95 2.6 40.95 3.2 40.95 3.65 40.3 4.0 L39.85 4.25 38.9 4.4 37.7 4.5 Q35.4 4.5 33.7 2.65 33.1 1.95 32.7 1.2 32.4 0.55 32.35 0.25 33.1 0.25 33.4 0.1 33.75 -0.15 35.1 -0.2 L35.35 -0.4 35.65 -0.65 Q36.0 -1.0 36.1 -1.4 36.25 -1.8 36.25 -2.65 L36.25 -2.7 Q36.25 -3.05 35.5 -3.35 L35.0 -3.55 34.05 -3.85 33.4 -4.0 33.05 -4.1 32.95 -4.35 32.8 -4.85 Q32.7 -5.1 32.7 -5.3 32.7 -5.45 32.9 -5.6 L33.0 -5.7 Q33.05 -5.8 33.05 -5.95 33.05 -6.3 32.5 -6.8 31.8 -7.45 30.85 -7.35 29.75 -6.85 29.55 -6.65 29.4 -6.55 29.3 -6.4 29.25 -6.25 29.25 -6.05 29.25 -5.95 29.9 -5.5 L31.3 -4.6 Q33.4 -3.15 33.4 -2.15 33.4 -1.9 33.25 -1.75 L32.7 -1.2 31.25 -1.2 30.55 -1.15 30.5 -1.1 Q30.2 -1.05 30.15 -0.85 L30.05 -0.8 29.15 -0.5 Q28.7 -0.4 28.45 -0.4 L28.2 -0.4 M42.45 -2.25 L42.6 -2.25 Q42.85 -2.25 43.7 -2.5 L43.85 -2.6 Q44.2 -2.95 44.6 -3.05 L44.75 -3.4 44.85 -3.75 Q44.85 -3.95 44.7 -4.25 44.55 -4.55 44.35 -4.55 44.25 -4.55 44.1 -4.45 43.95 -4.3 43.85 -4.15 L43.45 -4.2 43.2 -4.25 Q42.95 -4.4 42.75 -4.65 42.55 -4.95 42.5 -5.1 42.45 -5.15 42.55 -5.5 42.6 -5.8 42.45 -5.9 41.95 -6.2 42.1 -6.7 42.25 -7.25 41.95 -7.5 L40.15 -8.4 39.85 -8.1 Q39.45 -8.1 38.85 -8.45 L38.25 -8.85 38.0 -8.8 37.8 -8.75 37.45 -8.4 Q37.15 -8.15 36.75 -8.05 36.7 -8.05 36.7 -8.1 36.65 -8.1 36.65 -8.2 36.65 -8.35 37.1 -9.15 L37.5 -10.05 37.45 -10.35 Q37.35 -10.55 37.35 -10.6 37.35 -11.2 38.1 -11.7 38.85 -12.2 38.85 -12.65 38.85 -13.0 38.25 -13.85 37.75 -14.45 37.45 -14.7 36.7 -15.3 35.35 -15.55 34.9 -15.65 34.75 -15.75 34.5 -15.95 34.5 -16.35 34.5 -16.7 34.85 -16.9 35.25 -17.05 35.25 -17.55 35.25 -18.15 35.1 -18.45 34.95 -18.85 34.45 -19.2 L33.85 -19.5 Q33.4 -19.7 33.35 -19.8 33.2 -20.1 33.15 -20.15 33.0 -20.3 32.35 -20.45 32.05 -20.65 32.0 -20.8 31.95 -20.85 31.95 -21.2 L32.0 -21.55 Q32.05 -21.75 32.35 -21.85 L34.25 -21.95 Q35.95 -21.9 36.4 -21.95 37.15 -22.05 37.6 -22.5 37.85 -22.8 38.15 -23.25 37.7 -23.25 37.7 -23.65 37.7 -24.1 37.8 -24.4 38.0 -24.95 38.5 -24.95 38.85 -24.95 39.3 -24.7 39.75 -24.45 40.15 -24.5 L41.05 -24.4 42.15 -24.3 42.4 -24.3 42.7 -24.25 Q43.0 -24.25 43.25 -24.45 L43.25 -24.3 43.05 -23.65 42.45 -23.65 Q42.05 -23.7 41.85 -23.8 L41.55 -24.05 41.5 -24.1 Q40.95 -24.4 39.05 -24.4 L38.7 -24.35 Q38.45 -24.2 38.4 -24.05 38.3 -24.0 38.3 -23.85 L38.35 -23.5 38.4 -23.1 38.4 -23.05 Q38.45 -22.45 38.4 -22.1 37.8 -22.05 37.25 -21.9 L37.15 -21.9 Q36.5 -21.7 35.65 -21.6 L35.45 -21.4 34.2 -21.45 33.15 -21.5 Q32.85 -21.4 32.8 -21.3 32.75 -21.3 32.75 -21.1 32.75 -20.95 33.0 -20.65 L33.05 -20.55 Q33.3 -20.2 33.45 -20.1 L33.55 -20.1 Q34.15 -19.9 34.85 -19.3 35.8 -18.45 35.8 -17.55 35.8 -17.45 35.6 -17.25 L35.55 -17.15 Q35.3 -16.85 35.25 -16.65 35.25 -16.25 35.9 -15.9 L36.15 -15.75 37.45 -15.15 38.0 -14.9 38.2 -14.5 38.35 -14.1 Q38.7 -13.4 39.05 -12.9 L39.25 -12.6 39.55 -12.25 39.45 -12.25 39.2 -12.2 38.75 -11.95 Q38.4 -11.65 38.3 -11.45 L38.15 -11.1 38.0 -10.85 37.8 -10.35 37.8 -10.0 37.9 -9.95 Q38.15 -10.0 38.3 -10.15 L38.55 -10.45 39.45 -10.45 Q40.15 -9.6 40.55 -9.35 41.4 -8.85 42.85 -8.9 43.15 -8.6 43.4 -8.2 43.7 -7.75 43.7 -7.45 L43.7 -7.2 43.65 -7.1 Q43.55 -6.95 43.6 -6.85 L43.65 -6.85 43.65 -6.6 Q43.65 -6.3 43.7 -6.1 43.75 -5.95 43.9 -5.7 L44.35 -5.55 Q44.65 -5.45 44.85 -5.45 45.25 -5.45 46.5 -5.8 46.45 -5.1 46.75 -4.55 47.0 -4.05 47.0 -3.7 47.0 -3.1 46.3 -2.5 45.4 -1.7 43.8 -1.7 43.35 -1.7 43.05 -1.8 L43.0 -1.8 42.95 -1.85 Q42.8 -1.9 42.65 -2.1 L42.6 -2.1 42.45 -2.25 M43.7 -25.15 L43.7 -25.2 43.8 -25.6 Q43.9 -25.9 44.15 -26.0 L44.65 -26.0 Q45.25 -26.0 45.65 -25.25 L46.05 -24.3 Q46.35 -23.95 46.95 -23.55 L48.0 -22.9 48.3 -22.9 48.55 -23.45 Q48.7 -23.8 49.0 -23.95 L49.75 -24.05 Q50.3 -24.1 50.5 -24.25 L51.1 -24.55 Q51.35 -24.8 51.55 -25.1 L51.8 -25.65 Q52.0 -25.95 52.5 -26.1 53.0 -26.25 53.25 -25.95 53.9 -25.3 54.8 -23.6 L54.85 -23.55 Q54.3 -24.3 53.65 -24.95 L53.35 -25.3 Q52.3 -25.55 51.95 -25.05 L51.9 -25.0 51.85 -24.9 Q51.6 -24.25 51.25 -24.05 L50.8 -24.0 Q50.0 -23.95 49.5 -23.65 49.2 -23.5 49.0 -23.25 L48.9 -23.1 48.65 -22.7 Q48.5 -22.4 48.4 -22.3 L47.95 -22.3 Q47.6 -22.5 47.2 -22.9 46.85 -23.25 46.45 -23.75 L45.35 -25.1 45.2 -25.25 44.7 -25.35 44.0 -25.35 43.9 -25.3 Q43.8 -25.2 43.7 -25.15 M56.05 -21.8 Q56.5 -21.75 56.95 -21.2 57.45 -20.65 57.4 -20.3 L57.4 -19.5 Q57.4 -19.4 57.5 -19.1 L57.6 -18.7 Q57.6 -17.05 57.35 -15.9 57.55 -15.9 57.6 -15.8 L57.6 -15.65 Q57.6 -15.4 57.35 -15.2 L56.75 -14.75 56.65 -14.75 56.5 -14.8 Q55.6 -14.95 55.3 -15.25 L54.95 -15.8 Q54.85 -16.0 54.4 -16.3 L53.75 -16.7 Q53.6 -16.8 53.35 -17.15 L52.9 -17.65 Q52.65 -17.8 52.3 -18.0 L51.55 -18.35 51.25 -18.3 Q51.0 -18.2 50.9 -18.0 50.75 -17.8 50.75 -17.55 L50.7 -17.2 50.7 -16.8 Q50.7 -16.75 50.85 -16.2 L51.0 -15.6 51.45 -15.6 51.65 -15.75 Q51.85 -15.9 51.9 -15.9 L52.25 -15.9 Q53.25 -15.8 53.9 -15.3 L54.85 -14.45 55.4 -14.15 Q55.75 -13.9 55.9 -13.75 L56.05 -13.5 Q56.15 -13.35 56.25 -13.3 56.4 -13.2 56.7 -13.1 57.0 -13.05 57.1 -13.05 57.2 -13.05 57.85 -13.3 58.5 -13.55 58.7 -13.7 59.0 -13.9 59.6 -14.7 59.7 -14.9 60.1 -15.95 60.35 -16.6 60.85 -16.6 L61.2 -16.6 Q61.35 -16.6 61.45 -16.4 61.55 -16.2 61.65 -16.15 L62.05 -15.95 62.5 -15.8 63.15 -15.3 63.7 -14.9 Q64.15 -14.5 64.55 -14.0 65.2 -13.25 65.2 -12.85 L65.15 -12.4 65.05 -11.9 Q65.05 -11.65 65.4 -11.3 65.75 -10.95 65.85 -10.65 L66.0 -10.0 66.05 -9.3 Q66.05 -8.4 66.1 -7.95 66.1 -7.85 66.25 -7.35 L66.35 -6.7 Q66.35 -6.35 66.2 -6.0 66.05 -5.6 66.0 -5.25 65.95 -4.9 65.65 -4.5 65.35 -4.1 65.05 -3.9 64.05 -4.0 63.5 -3.5 63.1 -3.15 63.1 -2.8 63.1 -2.55 63.5 -2.3 63.95 -2.05 64.1 -1.55 L64.25 -0.85 64.25 0.3 64.0 1.0 63.7 1.6 63.2 2.2 Q63.15 2.25 63.1 2.7 63.0 3.15 62.9 3.45 62.45 4.5 61.1 4.5 61.0 4.5 60.85 4.65 L60.7 4.8 Q60.35 4.95 60.2 5.1 60.15 5.2 59.75 5.7 59.6 5.9 59.4 6.4 L59.1 7.05 Q58.95 7.35 58.55 7.65 L57.85 8.1 57.4 8.4 Q57.15 8.55 57.0 8.6 56.75 8.75 56.5 8.85 55.95 9.05 55.35 9.05 55.0 9.05 54.05 8.65 53.05 8.3 52.95 8.3 52.4 8.3 52.0 8.45 51.75 8.6 51.6 8.7 51.65 8.9 52.0 9.1 52.45 9.35 52.5 9.5 52.75 9.9 52.75 10.3 52.75 10.65 52.45 11.15 52.15 11.65 51.7 11.95 51.6 12.0 50.8 12.35 50.2 12.7 49.4 12.7 49.15 12.7 49.0 12.6 48.65 12.4 48.45 12.35 L48.15 12.35 Q47.8 12.55 47.7 12.95 L47.55 13.7 47.45 14.0 47.3 14.35 Q47.15 14.65 46.85 14.95 46.7 15.05 46.15 15.3 L45.75 15.5 45.9 15.35 Q46.45 15.0 47.1 14.2 47.25 14.0 47.35 13.45 47.4 12.85 47.6 12.6 47.9 12.1 48.95 12.05 L50.35 12.15 51.0 12.25 51.35 11.7 51.8 10.95 Q52.2 10.4 52.2 10.25 52.2 9.95 52.1 9.75 L52.0 9.6 Q51.85 9.45 51.65 9.3 L51.55 9.25 51.15 9.2 51.0 9.1 Q51.1 8.85 51.2 8.55 51.4 8.15 51.55 8.05 L51.8 8.05 53.4 8.0 54.35 7.95 Q55.1 8.05 55.4 8.15 55.65 8.3 56.25 8.35 57.65 7.8 58.5 6.5 59.0 5.8 59.55 4.55 L60.15 4.4 60.8 4.2 60.85 4.2 61.5 3.6 62.05 3.1 Q62.2 2.95 62.4 2.45 L62.55 1.95 Q63.0 1.3 63.5 0.65 63.8 0.15 63.8 -0.45 63.8 -1.4 63.0 -1.9 62.6 -2.1 62.45 -2.25 62.2 -2.5 62.2 -3.0 62.2 -3.45 62.75 -3.75 63.1 -4.0 63.95 -4.3 64.8 -4.65 65.15 -4.85 65.7 -5.2 65.7 -5.6 L65.55 -6.7 Q65.45 -7.7 65.45 -8.2 65.45 -8.6 65.55 -9.5 65.55 -10.25 65.3 -10.75 L65.15 -11.0 Q64.9 -11.4 64.8 -11.85 L64.7 -12.05 Q64.6 -12.45 64.45 -13.3 L64.35 -13.55 64.2 -13.7 64.05 -13.9 63.1 -14.8 Q61.65 -16.0 60.85 -15.75 60.6 -15.55 60.3 -15.15 L60.15 -14.95 59.55 -14.05 59.1 -13.5 Q58.4 -12.65 57.5 -12.15 56.4 -12.4 55.75 -12.8 55.3 -13.1 54.9 -13.6 L54.15 -14.4 Q53.6 -14.9 52.7 -15.2 L51.6 -15.15 Q51.1 -15.15 50.8 -14.7 50.75 -14.5 50.65 -14.15 L50.45 -13.6 Q50.2 -13.0 49.4 -12.45 48.4 -11.8 46.85 -11.55 46.35 -12.0 46.25 -12.4 L46.3 -12.6 46.05 -12.6 46.0 -12.45 Q46.0 -12.35 46.0 -12.1 L46.0 -12.0 Q44.65 -12.55 44.3 -12.7 44.0 -12.85 43.95 -13.3 43.95 -13.55 44.0 -13.95 43.9 -14.55 43.85 -15.5 L43.8 -16.65 Q43.8 -17.0 44.2 -18.15 44.55 -19.2 44.7 -19.35 L46.8 -19.85 48.4 -19.7 49.8 -19.55 50.0 -19.7 Q50.2 -19.8 50.65 -19.85 51.1 -20.3 51.35 -20.9 L51.75 -22.0 Q51.85 -21.95 52.3 -21.85 53.7 -20.65 54.7 -18.95 L55.5 -17.5 Q56.0 -16.65 56.4 -16.05 L56.85 -16.05 56.95 -16.2 Q56.95 -17.2 57.0 -19.1 57.0 -20.05 56.2 -21.5 L56.05 -21.8 M44.8 16.0 Q44.55 16.2 44.25 16.4 L43.65 16.9 Q43.05 16.75 42.0 16.05 41.15 15.45 40.4 15.45 40.2 15.45 39.8 15.3 L39.45 15.15 38.65 15.0 Q38.35 14.95 38.1 14.75 37.85 14.5 37.85 14.3 L37.85 14.15 38.45 14.0 38.7 13.85 38.95 13.85 39.3 14.1 Q39.5 14.05 39.85 13.85 L39.95 13.8 39.9 13.8 39.9 13.7 Q40.35 13.4 40.45 13.35 40.85 13.15 41.35 13.1 L42.15 13.1 Q42.35 13.2 42.35 13.3 42.4 13.5 42.45 13.55 L43.2 13.25 Q43.65 13.0 43.65 12.8 43.65 12.7 43.45 12.5 43.25 12.3 43.2 12.2 L43.2 11.95 43.15 11.65 Q43.15 11.3 43.2 11.2 43.25 10.9 43.55 10.8 L45.05 10.4 Q45.5 10.3 45.7 10.05 L46.05 9.65 46.45 9.25 Q46.8 8.95 47.0 8.95 47.15 8.95 47.3 9.05 47.45 9.2 47.5 9.2 47.8 9.2 47.95 8.8 L48.1 8.4 47.85 7.95 Q47.6 7.5 47.6 7.2 47.6 6.85 47.8 6.7 48.0 6.55 48.9 6.2 49.3 6.0 49.85 6.05 L50.7 5.95 Q51.1 5.8 51.2 5.65 51.3 5.55 51.3 5.45 51.3 5.3 51.1 5.1 L50.8 4.8 Q50.25 4.65 50.1 4.65 49.55 4.65 49.05 4.85 48.85 4.95 48.7 5.1 48.15 5.45 47.95 5.65 47.65 5.95 45.35 6.4 45.1 6.25 44.9 6.0 44.65 5.75 44.6 5.6 44.35 4.9 44.1 4.9 43.85 4.9 43.65 5.2 43.45 5.55 43.25 5.55 43.15 5.55 43.05 5.5 L42.85 5.4 Q42.3 5.45 42.1 5.7 L41.9 6.1 41.75 6.45 Q41.6 6.7 41.5 6.8 40.75 7.6 39.8 7.85 39.3 7.95 38.45 7.95 L37.95 7.95 37.55 7.5 37.3 7.5 Q37.25 7.55 36.95 8.25 36.8 8.65 36.35 8.95 L35.5 9.5 Q34.85 9.9 34.15 10.1 34.0 10.05 33.6 9.85 L33.25 9.6 Q33.15 9.6 32.35 10.0 31.55 10.45 31.1 10.45 29.95 10.45 28.9 9.45 27.9 8.6 27.9 7.85 27.9 7.75 27.95 7.6 28.05 7.4 28.2 7.35 28.45 7.4 28.5 7.5 L28.9 7.5 Q29.1 7.4 29.4 7.2 29.65 7.1 29.7 6.95 29.45 6.85 28.65 6.35 27.95 5.9 27.85 5.9 27.5 5.9 27.45 6.55 27.45 7.35 27.2 7.6 26.4 7.75 26.05 8.0 25.75 8.25 24.95 8.35 L24.8 8.45 Q24.65 8.55 24.55 8.55 L23.55 8.65 Q23.4 8.7 23.1 8.85 L22.8 9.0 Q22.3 9.0 22.15 8.8 22.1 8.55 22.0 8.45 L22.25 8.35 Q22.7 8.2 22.95 8.2 23.2 8.3 23.4 8.4 24.05 8.55 24.55 8.4 24.9 8.25 25.05 8.1 L25.2 7.9 25.8 7.9 26.0 7.75 26.65 7.1 Q26.8 6.9 26.8 6.0 26.8 5.35 25.95 4.5 25.1 3.65 25.1 3.2 25.1 2.7 25.3 2.45 25.45 2.15 26.05 1.75 L26.8 1.7 27.8 1.7 Q29.4 2.4 29.7 2.6 30.3 2.95 30.7 3.7 30.85 3.9 31.7 4.9 32.45 5.95 32.45 6.5 32.45 6.65 31.45 7.5 30.25 8.45 29.3 8.45 L28.95 8.45 28.8 8.4 28.8 8.7 29.45 9.45 29.5 9.55 Q30.0 10.1 30.45 10.25 L31.1 10.25 31.4 10.05 31.85 9.7 32.45 9.6 32.8 9.4 33.0 9.3 33.25 9.05 Q35.25 9.05 35.9 8.6 36.25 8.3 36.25 7.7 36.25 7.55 36.15 7.15 36.0 6.8 36.0 6.65 L36.45 6.55 37.3 6.8 37.45 6.85 37.6 7.05 37.7 7.2 39.7 7.2 Q40.1 6.7 41.5 5.3 42.7 3.9 42.7 3.15 42.7 3.0 42.5 2.2 L42.25 1.45 42.35 1.2 Q42.55 0.65 42.85 0.4 L43.3 0.3 Q43.55 0.5 44.35 0.8 45.1 1.1 45.3 1.6 L45.35 2.05 Q45.35 2.45 45.45 2.65 45.7 3.4 47.2 3.4 47.65 3.4 47.9 3.2 L48.3 2.8 48.9 2.6 Q49.3 2.5 49.95 2.45 50.25 2.8 51.45 2.95 53.35 3.2 54.35 3.45 55.25 4.0 55.5 4.25 55.75 4.5 55.75 4.75 55.75 5.5 55.0 5.95 54.65 6.15 53.25 6.65 L52.05 6.7 Q51.4 6.85 51.05 7.1 L50.95 7.1 50.7 7.05 Q50.3 7.35 50.0 7.95 49.7 8.45 49.7 8.8 49.7 9.25 49.65 9.35 49.55 9.6 49.1 10.3 48.95 10.3 48.8 10.4 L48.5 10.45 Q48.35 10.45 48.2 10.25 L48.05 10.05 47.5 10.05 Q46.9 10.65 46.65 11.35 46.45 11.9 45.5 12.65 44.85 13.15 44.4 14.0 43.9 14.9 43.55 15.2 L42.15 15.3 41.75 14.95 Q41.45 14.7 41.25 14.7 41.05 14.7 41.05 14.75 L41.05 15.0 41.25 15.2 41.55 15.65 Q41.85 15.9 42.5 16.0 L42.95 16.05 Q43.2 16.3 43.65 16.35 L43.85 16.4 44.8 16.0 M40.55 -11.6 L41.3 -11.55 Q41.6 -11.7 41.8 -12.0 41.9 -12.2 41.9 -12.4 42.55 -12.1 42.95 -11.6 L43.25 -11.15 43.25 -10.95 Q43.35 -10.6 43.85 -10.6 L44.0 -10.6 44.05 -10.45 Q44.05 -10.2 44.4 -9.9 44.45 -9.65 44.55 -9.55 44.8 -9.4 46.05 -9.05 L46.2 -8.85 Q46.3 -8.7 46.3 -8.65 46.15 -8.1 45.8 -7.9 45.55 -7.75 45.1 -7.7 L44.85 -7.65 44.85 -8.1 Q44.85 -8.7 44.8 -8.9 44.6 -9.4 43.85 -9.05 43.05 -9.35 42.75 -10.2 L42.5 -10.85 Q42.3 -11.1 41.85 -11.1 41.65 -11.1 41.6 -10.85 41.55 -10.65 41.45 -10.65 41.25 -10.65 41.15 -10.75 40.95 -10.85 40.8 -10.9 L40.55 -11.6" fill="#bffff0" fill-opacity="0.7490196" fill-rule="evenodd" stroke="none"/>
  </g>
</svg>
