<?xml version="1.0" encoding="UTF-8" standalone="no"?>
<svg xmlns:ffdec="https://www.free-decompiler.com/flash" xmlns:xlink="http://www.w3.org/1999/xlink" ffdec:objectType="shape" height="56.45px" width="56.5px" xmlns="http://www.w3.org/2000/svg">
  <g transform="matrix(1.0, 0.0, 0.0, 1.0, -18.35, 37.6)">
    <path d="M41.3 -31.4 Q42.25 -31.15 43.0 -30.35 L43.6 -29.75 43.9 -29.35 Q44.25 -29.0 44.55 -28.7 44.8 -28.65 45.2 -28.35 45.65 -27.9 45.8 -27.5 L45.75 -27.3 45.65 -27.2 45.65 -27.1 Q45.55 -27.1 45.55 -27.05 44.35 -27.05 43.7 -27.65 43.5 -27.8 43.3 -28.15 L42.95 -28.6 42.5 -29.1 Q42.15 -29.45 41.7 -29.6 40.95 -29.8 40.9 -30.1 40.9 -30.25 40.85 -30.3 40.75 -30.4 40.45 -30.5 L39.85 -30.4 Q39.1 -30.1 39.15 -29.85 39.35 -29.5 39.35 -29.25 39.35 -29.0 39.15 -28.55 38.9 -28.1 38.55 -27.75 37.8 -27.85 37.65 -27.6 L37.55 -27.45 Q37.4 -27.35 37.15 -27.35 36.0 -27.35 34.8 -28.1 L33.55 -29.1 33.2 -29.1 Q32.65 -28.75 32.45 -28.55 32.05 -28.2 32.05 -27.9 32.05 -26.45 32.5 -25.2 32.95 -23.9 32.95 -23.45 32.95 -23.1 32.55 -22.75 32.25 -22.5 32.0 -22.5 31.85 -22.5 31.45 -22.75 L30.95 -23.15 30.7 -23.1 Q30.75 -22.4 31.35 -21.5 L32.15 -20.35 Q32.45 -19.45 32.7 -18.95 33.1 -18.15 33.7 -17.5 L33.65 -17.3 33.1 -17.2 32.85 -17.1 32.8 -17.05 Q32.6 -16.9 32.55 -16.7 L31.7 -16.7 Q31.5 -17.0 31.35 -17.25 L31.2 -17.65 Q31.1 -17.9 31.1 -18.3 L31.1 -18.45 Q31.1 -18.6 31.25 -18.85 31.4 -19.1 31.4 -19.25 31.4 -19.45 30.15 -20.95 L29.8 -21.35 Q28.25 -23.2 28.25 -23.75 28.25 -24.65 28.85 -25.3 29.5 -26.0 30.25 -25.75 L30.35 -25.8 Q30.75 -26.2 30.8 -26.5 L30.85 -27.1 30.85 -27.4 Q30.8 -28.15 30.6 -28.5 30.5 -28.75 30.1 -29.0 29.75 -29.25 29.6 -29.6 29.35 -30.1 29.35 -31.1 29.35 -31.4 29.45 -31.8 29.55 -32.2 29.7 -32.5 33.1 -31.3 33.6 -31.05 34.25 -30.75 35.2 -30.25 L36.6 -29.5 37.3 -29.5 38.2 -30.45 38.65 -31.0 39.15 -31.5 40.55 -31.5 41.3 -31.4 M20.0 -2.65 L20.0 -2.6 Q20.15 -2.45 20.4 -1.85 20.6 -1.25 20.6 -1.1 20.6 -0.9 20.25 -0.4 L19.9 0.0 19.6 0.3 19.45 0.15 Q19.35 0.05 19.35 -0.2 L19.35 -0.25 Q19.35 -0.35 19.6 -0.75 L19.8 -1.25 Q19.8 -1.7 19.55 -2.35 L19.5 -2.4 Q19.5 -2.45 19.7 -2.45 20.0 -2.45 20.2 -2.0 20.3 -1.7 20.3 -1.4 L20.35 -1.4 20.35 -1.65 20.15 -2.15 19.95 -2.55 19.95 -2.65 Q19.95 -2.85 20.0 -2.65 L20.0 -2.65 M23.1 -0.4 L23.25 -0.5 23.3 -0.55 Q23.85 -0.85 24.2 -0.3 24.4 -0.15 24.6 0.35 24.75 0.75 24.8 1.0 L24.8 1.1 Q24.8 1.2 24.6 1.4 L24.5 1.55 Q24.2 1.85 23.95 2.0 23.7 1.8 23.75 1.45 L23.8 1.05 Q23.8 0.85 23.5 0.4 23.4 0.2 23.25 0.1 22.95 -0.1 22.65 0.05 L23.1 -0.4 M43.55 -20.3 Q44.2 -19.85 44.45 -19.2 L44.45 -19.1 Q44.6 -18.45 44.75 -18.1 L44.8 -18.05 Q44.75 -18.0 44.55 -18.0 L43.8 -18.45 Q43.0 -18.85 42.7 -18.85 L42.0 -18.75 Q41.75 -18.55 41.65 -18.25 L41.55 -17.9 41.5 -17.8 41.3 -17.8 41.2 -17.9 41.25 -17.9 41.15 -17.95 Q41.05 -17.95 41.05 -18.2 41.05 -18.35 41.15 -18.5 L41.05 -18.5 41.0 -18.65 41.5 -19.3 42.05 -19.95 Q42.65 -20.2 43.4 -20.3 L43.55 -20.3 M42.7 -14.2 L42.95 -14.1 Q43.4 -14.0 43.6 -13.7 43.8 -13.5 43.85 -13.0 43.95 -12.45 44.0 -12.3 44.15 -11.95 44.55 -11.85 L45.2 -11.9 Q45.8 -12.55 46.15 -12.55 L46.5 -12.45 Q46.75 -12.35 46.9 -12.3 47.35 -11.85 47.45 -11.4 47.55 -11.1 47.55 -10.65 47.55 -10.35 47.4 -10.05 47.15 -9.65 47.1 -9.45 L46.9 -9.45 Q46.75 -9.8 46.8 -10.8 L46.8 -10.95 Q46.65 -11.1 46.6 -11.35 46.4 -11.85 46.0 -12.1 L46.4 -11.7 Q46.25 -11.85 45.95 -11.9 L45.6 -11.85 45.35 -11.45 45.3 -11.35 45.25 -11.35 44.95 -11.3 44.45 -11.5 Q44.0 -11.7 43.75 -11.75 43.6 -11.9 43.5 -12.25 L43.25 -12.8 Q42.85 -13.45 41.75 -13.7 L41.5 -13.8 41.45 -14.0 Q41.45 -14.05 41.6 -14.1 41.7 -14.15 41.7 -14.2 L42.7 -14.2 M34.6 -7.85 Q34.55 -7.85 34.55 -8.1 34.55 -8.45 34.85 -8.45 35.1 -8.5 35.5 -8.25 35.95 -7.95 36.15 -7.55 36.4 -7.15 36.4 -6.6 L36.3 -5.8 36.25 -5.35 36.2 -4.75 Q36.1 -4.85 35.95 -5.25 35.85 -5.5 35.8 -5.7 35.75 -5.9 35.8 -6.15 L35.85 -6.6 Q35.85 -6.95 35.6 -7.35 35.25 -7.95 34.65 -7.95 L34.6 -7.85 M26.45 -5.4 Q27.35 -5.05 27.7 -4.4 L27.8 -4.15 Q28.15 -3.8 28.15 -3.2 28.15 -2.95 27.5 -1.7 L27.35 -1.45 27.15 -1.1 26.85 -0.5 Q26.85 -0.4 27.2 0.05 27.55 0.45 27.55 0.6 L27.55 0.75 Q27.45 1.1 27.15 1.6 L27.0 1.85 Q26.75 2.3 26.7 2.4 L26.7 2.7 26.8 2.7 Q26.85 2.75 26.9 2.8 27.1 2.8 27.45 2.7 27.85 2.55 28.0 2.55 L28.9 2.6 29.25 2.85 29.45 3.0 29.6 3.1 29.8 3.3 29.95 3.4 29.9 3.45 29.8 3.55 Q29.0 3.2 28.85 3.05 L28.45 3.0 Q28.4 3.15 28.35 3.25 L28.0 3.55 26.85 3.45 26.2 3.4 25.8 2.75 Q25.7 2.5 25.7 2.4 25.7 2.15 25.7 2.1 25.85 1.95 26.3 1.9 L26.5 1.3 26.55 0.8 Q26.55 0.65 26.4 0.1 L26.3 -0.2 26.1 -1.0 26.1 -1.05 Q26.1 -1.25 26.35 -1.5 L26.8 -1.95 Q27.55 -2.55 27.55 -3.25 27.55 -3.75 27.3 -4.15 26.3 -4.8 25.9 -5.2 L26.05 -5.2 26.85 -4.7 26.2 -5.25 26.3 -5.35 26.35 -5.35 26.45 -5.4 M32.9 -1.6 L33.05 -1.5 Q34.1 -1.0 34.75 -0.1 35.4 0.8 35.4 1.7 35.4 1.85 35.05 2.4 L34.55 3.05 34.0 3.1 Q33.6 3.4 33.6 3.75 L33.65 4.5 33.55 4.55 33.45 4.7 Q33.3 4.55 33.25 4.4 L33.2 4.0 33.0 3.65 Q32.9 3.45 32.9 3.3 32.9 2.85 33.1 2.6 33.4 2.25 34.3 2.25 34.55 1.85 34.5 1.1 L34.35 0.25 34.45 0.25 34.75 1.05 Q34.65 0.5 34.4 0.0 L34.2 -0.35 33.8 -0.8 Q33.4 -1.2 32.85 -1.45 L32.9 -1.6 M33.8 -0.7 Q34.05 -0.35 34.2 -0.2 L34.2 -0.1 Q34.1 -0.2 33.75 -0.5 L33.35 -0.95 33.2 -1.15 33.3 -1.2 33.7 -0.85 33.8 -0.7 M38.0 -4.6 L38.35 -4.55 Q38.7 -4.25 38.95 -3.1 39.1 -2.25 39.1 -1.8 39.1 -1.6 38.75 -1.3 38.4 -0.95 38.35 -0.85 L38.05 -0.9 37.95 -1.15 38.3 -1.75 Q38.5 -2.15 38.5 -2.4 38.5 -2.5 37.9 -3.25 37.3 -4.05 37.1 -4.2 L37.05 -4.3 Q37.3 -4.3 37.65 -4.45 L38.0 -4.6 M49.35 -5.9 Q49.5 -6.25 49.75 -6.45 49.9 -6.65 50.15 -6.75 L51.65 -6.75 Q52.1 -6.5 52.7 -5.2 53.3 -3.95 53.3 -3.3 53.3 -2.15 52.7 -1.55 L52.3 -1.15 Q52.1 -0.85 52.1 -0.45 52.1 0.25 52.8 0.9 L52.9 1.0 54.0 1.85 54.75 2.45 54.6 2.5 54.4 2.45 Q54.3 2.9 54.1 3.2 L53.7 3.2 Q53.65 3.1 53.75 2.9 L53.8 2.45 Q53.8 2.25 53.4 1.95 52.8 1.55 51.7 1.25 51.4 0.85 51.15 0.4 50.85 -0.2 50.85 -0.45 50.85 -1.25 51.5 -2.1 52.2 -2.95 52.2 -3.25 52.2 -3.45 51.85 -3.75 51.45 -4.05 51.35 -4.3 L51.0 -4.35 Q50.6 -4.4 50.55 -4.45 50.3 -4.25 50.25 -4.05 L50.2 -3.75 Q50.2 -3.45 49.9 -3.05 49.5 -2.5 48.85 -2.5 L47.9 -2.55 Q47.1 -2.75 47.2 -3.55 47.25 -4.0 47.45 -4.65 47.45 -5.05 47.2 -5.3 L46.9 -5.6 46.75 -5.8 46.6 -5.85 Q46.45 -5.95 46.45 -6.0 L46.5 -6.05 47.25 -6.65 Q48.05 -6.65 48.05 -5.5 48.05 -5.3 48.25 -4.75 L48.45 -4.2 Q48.8 -4.4 49.0 -4.75 L49.1 -5.05 49.2 -5.45 Q49.25 -5.7 49.35 -5.9 M43.1 -0.1 L43.15 -0.1 43.8 0.05 44.2 0.1 44.15 0.15 Q44.1 0.15 44.1 0.35 44.1 0.6 44.2 0.85 44.25 1.0 44.45 1.25 L46.2 1.3 Q46.9 1.7 47.15 2.35 47.25 2.55 47.45 3.45 47.7 4.95 47.7 5.45 47.7 6.05 47.3 6.45 46.7 7.0 46.35 7.8 46.0 7.95 45.6 8.15 L44.55 8.7 44.2 8.7 43.7 8.2 Q43.4 8.5 43.35 8.65 L43.2 8.95 42.6 8.95 42.55 8.8 Q42.6 8.55 42.95 8.15 43.25 7.8 43.45 7.7 L43.55 7.75 43.9 7.8 Q44.5 7.8 45.35 7.1 46.1 6.5 46.15 6.2 L46.35 5.25 Q46.45 4.65 46.45 4.45 46.45 4.2 46.2 3.65 45.9 3.05 45.7 2.95 L44.55 2.95 Q43.95 2.75 43.8 2.35 43.7 2.15 43.75 1.6 L43.75 1.1 43.65 0.8 Q43.45 0.4 42.75 0.25 L42.8 0.1 Q42.85 0.05 42.95 -0.05 L43.1 -0.1 M49.6 -35.4 Q49.45 -35.7 49.45 -35.9 L49.5 -36.1 Q49.55 -36.5 49.8 -36.8 50.3 -37.3 51.2 -37.0 51.5 -36.9 51.65 -36.7 52.0 -36.4 52.05 -36.25 52.0 -36.15 51.85 -36.1 L51.75 -36.1 Q52.35 -35.9 52.85 -35.4 L53.0 -35.25 54.0 -34.05 55.1 -32.95 55.55 -32.45 55.6 -32.45 55.75 -32.3 Q56.05 -32.2 56.5 -32.2 L56.85 -32.2 57.15 -32.35 57.55 -32.25 Q57.8 -32.2 58.0 -32.0 58.25 -31.8 58.4 -31.55 58.65 -31.15 58.65 -30.75 58.7 -30.65 58.7 -30.45 L58.7 -29.95 58.55 -29.85 58.2 -29.85 Q57.3 -31.25 56.75 -31.3 L56.55 -31.2 Q56.25 -31.1 56.0 -31.1 L55.95 -31.1 55.85 -31.0 Q55.15 -31.15 54.25 -31.7 53.3 -32.35 52.9 -32.6 52.75 -32.7 52.25 -33.7 51.8 -34.6 51.4 -34.6 L51.25 -34.6 Q51.05 -34.6 50.95 -34.5 50.8 -34.4 50.8 -34.25 L50.95 -33.8 Q50.95 -33.6 50.6 -33.2 50.25 -32.75 49.7 -32.4 L49.4 -32.2 49.3 -32.1 49.2 -32.1 Q48.1 -31.55 47.05 -32.0 L47.0 -31.95 47.0 -31.7 Q46.95 -31.6 47.0 -31.5 46.95 -31.5 46.9 -31.35 46.7 -31.5 46.5 -31.85 46.4 -32.15 46.4 -32.2 46.4 -32.45 46.55 -32.6 46.65 -32.7 46.8 -32.7 46.95 -32.95 47.15 -33.1 L48.45 -33.15 48.6 -33.15 Q48.65 -33.4 48.75 -33.5 48.85 -33.6 49.1 -33.65 L49.0 -33.7 49.05 -33.7 49.35 -33.85 49.35 -33.9 49.55 -34.05 49.6 -34.1 49.7 -34.4 49.65 -34.7 49.6 -34.95 49.55 -35.1 49.6 -35.4 M50.05 -36.0 L50.05 -35.95 50.1 -35.85 50.1 -35.95 50.05 -36.0 M51.8 -35.15 L51.8 -35.1 51.9 -35.05 51.8 -35.15 M54.7 -31.95 L55.0 -31.7 54.9 -31.85 54.7 -31.95 M57.4 -31.35 L57.2 -31.4 57.5 -31.15 57.4 -31.35 M58.8 -23.2 Q59.2 -23.7 60.2 -23.5 61.1 -23.35 61.45 -22.95 61.5 -22.8 61.6 -22.45 61.7 -22.2 61.8 -22.1 L62.75 -22.05 Q62.9 -21.95 63.3 -21.6 L63.85 -20.8 Q64.4 -20.15 65.05 -19.85 65.65 -19.55 66.1 -19.05 66.55 -18.5 66.6 -18.05 L66.55 -17.15 Q66.5 -16.55 66.55 -16.2 66.65 -15.7 66.75 -15.35 66.95 -14.8 67.45 -14.4 L68.25 -14.45 Q68.95 -14.5 69.65 -14.45 69.85 -14.3 70.3 -13.5 70.8 -12.75 70.8 -12.6 70.8 -10.95 70.35 -9.65 70.1 -8.95 69.6 -8.05 69.2 -7.4 69.2 -7.0 69.2 -6.95 69.35 -6.85 L69.8 -6.55 71.05 -6.9 Q71.7 -7.05 72.3 -7.1 L73.75 -5.25 Q74.45 -4.3 74.45 -3.5 74.45 -2.7 74.1 -2.15 L73.15 -0.9 72.95 -0.6 72.75 -0.65 72.75 -0.75 72.9 -1.3 Q73.0 -1.75 73.0 -1.95 L72.9 -2.1 Q72.7 -2.3 72.55 -2.7 L72.2 -3.3 72.0 -3.65 Q71.95 -3.7 71.7 -3.8 71.4 -3.85 70.3 -3.8 L68.95 -3.7 Q68.1 -3.7 67.45 -4.95 66.95 -5.95 66.95 -6.35 66.95 -6.7 67.4 -8.15 L67.85 -9.55 Q67.85 -10.05 67.75 -10.3 L67.3 -11.2 Q66.35 -11.4 65.85 -12.15 65.4 -12.75 65.4 -13.4 65.4 -13.85 65.15 -14.6 L64.7 -15.75 Q64.3 -16.9 63.65 -18.0 62.4 -20.0 61.1 -20.0 L60.15 -20.0 60.05 -19.75 60.1 -19.75 60.2 -19.65 Q59.85 -19.5 59.9 -18.9 L60.0 -18.25 Q60.25 -18.1 60.3 -17.7 60.3 -17.6 60.35 -17.3 L60.45 -16.8 Q60.45 -16.6 59.9 -15.9 59.45 -15.35 59.2 -15.15 L57.9 -15.15 Q57.55 -15.4 57.2 -16.1 56.85 -16.7 56.35 -16.95 55.65 -15.95 54.95 -15.25 L54.3 -15.2 Q52.65 -15.2 52.15 -15.8 52.0 -16.0 51.9 -16.3 L51.85 -16.65 51.5 -17.55 Q51.2 -18.2 50.8 -18.2 L50.45 -18.1 Q50.25 -18.05 50.0 -18.0 49.65 -17.8 49.5 -17.3 49.45 -17.15 49.45 -16.8 L49.45 -16.6 49.4 -16.55 49.0 -16.55 Q48.7 -17.35 48.7 -17.85 48.7 -18.45 48.9 -18.85 49.05 -19.1 49.3 -19.3 L49.35 -19.35 Q49.95 -19.8 50.8 -19.6 52.05 -19.0 52.2 -17.75 L52.2 -17.3 52.95 -17.4 55.05 -17.65 Q55.2 -17.8 55.7 -18.5 56.05 -18.9 56.3 -19.05 L56.4 -19.25 56.6 -19.45 56.6 -19.55 Q56.6 -20.0 57.15 -20.4 57.8 -20.9 58.05 -21.35 L58.1 -21.55 58.35 -22.25 Q58.55 -22.85 58.8 -23.2 M71.05 0.4 L71.05 0.7 Q71.05 0.85 70.9 1.0 70.7 1.15 70.4 1.2 L70.35 1.45 Q70.3 1.7 70.3 1.85 70.3 2.1 70.5 2.45 70.7 2.7 71.05 3.05 71.85 3.75 71.85 4.2 71.85 4.4 71.7 4.65 71.45 5.05 71.35 5.25 70.85 5.35 70.15 5.6 L69.45 5.8 Q67.45 5.8 66.5 4.85 66.2 4.55 66.0 4.1 65.75 3.75 65.7 3.7 L65.1 3.7 64.9 3.75 Q64.75 3.85 64.7 3.9 L64.95 4.25 Q65.05 4.45 65.05 4.7 65.05 4.85 64.3 5.85 L63.2 7.3 61.8 7.25 61.25 7.0 Q61.0 6.9 60.85 6.8 L60.65 6.6 Q60.45 6.35 60.45 5.75 L60.45 5.45 60.5 5.3 60.8 5.75 Q61.05 6.15 61.15 6.35 62.25 5.95 62.4 5.3 62.35 4.55 62.55 4.2 L62.55 4.1 62.65 3.95 62.7 3.8 Q62.85 3.45 63.05 3.15 63.7 2.25 64.55 2.25 65.7 2.25 66.2 2.65 L66.8 3.1 Q67.2 3.45 67.8 3.7 68.6 3.65 69.0 3.2 69.35 2.75 69.45 1.9 69.5 1.4 70.15 0.75 70.7 0.25 70.95 0.15 L71.05 0.35 71.05 0.4 M60.8 8.6 L60.8 8.7 Q60.8 9.25 59.8 10.1 58.85 10.95 58.85 11.0 58.85 11.25 58.95 11.45 59.05 11.6 59.2 11.8 L59.85 11.9 Q60.35 12.4 60.7 12.85 61.2 13.55 61.2 13.95 L61.2 14.25 Q61.05 14.8 60.55 16.1 59.95 17.75 59.7 18.05 L59.05 18.2 Q58.75 18.3 58.7 18.35 L57.45 18.3 57.25 18.2 57.15 18.1 57.05 18.05 Q56.95 17.95 56.95 17.7 58.3 17.7 58.65 17.15 58.75 16.95 58.8 16.6 58.85 16.25 58.95 16.15 L59.25 15.3 Q59.45 14.7 59.45 14.5 59.45 14.25 59.3 14.15 L59.1 13.9 Q57.8 13.4 57.4 12.85 57.15 12.45 57.15 11.7 57.15 11.1 57.45 10.6 57.9 10.05 58.7 9.85 59.6 9.65 59.9 8.9 L60.1 8.4 Q60.15 8.15 60.3 8.1 60.45 8.25 60.5 8.4 L60.55 8.7 60.65 8.55 60.7 8.35 60.8 8.4 60.8 8.6 M37.4 5.95 L37.4 5.7 Q37.4 5.2 37.5 4.75 37.65 4.1 37.9 3.95 L37.75 4.2 Q37.65 4.35 37.65 4.55 37.65 4.95 37.8 5.2 L38.1 5.65 38.65 5.7 Q39.25 6.05 39.3 6.7 L39.3 7.75 Q39.55 9.2 39.55 9.7 39.55 10.2 39.15 10.5 38.55 10.95 38.55 11.0 L38.15 11.0 Q37.95 10.55 37.95 10.2 37.95 10.0 38.15 9.75 38.35 9.45 38.35 9.05 L38.35 8.15 Q38.35 7.75 38.2 7.15 L37.9 6.05 37.45 6.0 37.4 5.95 M30.0 3.8 Q30.65 3.75 30.8 4.6 30.85 5.05 30.8 5.7 30.8 7.3 30.5 8.1 30.25 8.85 29.75 9.3 L29.35 9.5 Q29.0 9.65 28.55 9.7 L28.15 9.65 28.1 9.55 Q28.05 9.45 28.05 9.25 L28.05 9.2 Q28.05 9.15 28.2 9.1 L28.65 9.05 Q29.1 9.05 30.0 7.95 30.0 7.75 29.8 6.95 29.65 6.1 29.65 5.95 29.65 5.45 29.9 4.9 30.1 4.4 30.0 3.8 M23.35 3.2 L22.75 3.75 Q22.25 4.2 21.45 4.2 L20.95 4.15 20.75 4.15 Q20.5 3.9 20.35 3.65 L20.3 3.45 20.3 3.2 20.55 3.2 20.55 3.4 21.85 3.4 Q22.5 3.1 23.3 3.1 L23.35 3.2 M21.45 3.75 L21.15 3.75 20.9 3.8 21.45 3.75" fill="#ffffff" fill-rule="evenodd" stroke="none"/>
    <path d="M43.6 -29.75 L44.15 -29.25 Q45.1 -28.7 45.85 -27.7 46.6 -26.65 46.6 -25.9 46.6 -25.75 46.45 -25.35 46.3 -24.9 46.1 -24.9 45.95 -24.9 45.6 -25.6 45.2 -26.4 44.9 -26.55 L44.0 -26.35 43.75 -26.1 Q43.55 -25.9 43.55 -25.85 L42.85 -25.75 42.25 -25.8 Q41.9 -26.15 41.8 -26.75 L41.6 -27.7 Q41.1 -27.8 40.75 -28.0 L40.55 -28.0 Q40.3 -27.85 40.15 -27.6 L39.95 -27.2 39.65 -27.25 39.55 -27.35 39.35 -27.3 Q39.1 -27.0 38.95 -26.65 38.8 -26.25 38.8 -25.95 38.8 -25.65 38.4 -25.2 38.1 -24.9 37.75 -24.7 37.1 -24.75 36.75 -25.0 36.45 -25.35 36.25 -25.45 L35.15 -25.5 Q35.1 -25.5 35.1 -25.55 35.1 -25.6 35.05 -25.65 L34.85 -25.65 Q34.5 -25.55 34.35 -25.1 34.2 -24.8 34.2 -24.5 34.2 -24.3 34.35 -24.05 34.55 -23.75 34.6 -23.5 34.6 -23.4 34.7 -23.05 L34.8 -22.6 Q34.85 -22.25 35.0 -21.6 35.1 -21.15 35.1 -20.75 L35.1 -20.45 35.05 -20.05 Q35.0 -19.7 34.85 -19.6 L34.75 -19.45 Q34.75 -19.25 35.0 -18.9 35.15 -18.6 35.35 -18.4 35.6 -18.15 36.15 -17.85 36.55 -17.65 36.55 -17.4 36.55 -17.25 36.35 -17.05 L36.1 -16.95 35.85 -16.9 33.55 -17.05 33.3 -16.9 33.05 -16.7 Q32.75 -16.5 32.5 -16.45 31.45 -16.6 31.0 -17.15 30.7 -17.5 30.7 -17.95 30.7 -18.3 30.95 -18.6 L31.2 -18.95 Q31.2 -19.25 30.35 -20.25 L29.35 -21.3 28.3 -22.55 Q27.5 -23.55 27.5 -23.6 L27.6 -24.2 27.75 -24.45 27.95 -24.7 Q28.15 -24.95 28.1 -25.25 L28.0 -25.75 Q28.0 -26.0 28.25 -26.2 28.5 -26.4 28.85 -26.4 L29.7 -26.2 30.25 -26.2 Q30.5 -26.55 30.5 -26.7 L30.55 -27.05 Q30.55 -27.3 30.45 -27.65 L30.3 -28.2 Q30.25 -28.4 29.9 -28.75 L29.4 -29.2 Q29.25 -29.4 28.65 -30.2 28.0 -31.2 28.0 -31.35 28.0 -31.55 28.15 -31.75 28.35 -31.95 28.7 -31.8 L28.75 -32.1 Q28.85 -32.4 28.9 -32.5 L28.95 -32.65 Q28.95 -32.75 29.05 -32.85 29.35 -33.1 30.3 -33.05 31.0 -32.85 31.9 -32.3 32.8 -31.75 33.35 -31.55 34.45 -31.2 35.3 -30.85 36.75 -30.2 36.85 -30.2 37.05 -30.2 37.2 -30.3 L37.65 -30.7 Q37.95 -31.0 38.35 -31.15 38.5 -31.2 38.9 -31.6 39.3 -32.0 39.35 -32.0 40.2 -32.0 41.3 -31.4 L40.55 -31.5 39.15 -31.5 38.65 -31.0 38.2 -30.45 37.3 -29.5 36.6 -29.5 35.2 -30.25 Q34.25 -30.75 33.6 -31.05 33.1 -31.3 29.7 -32.5 29.55 -32.2 29.45 -31.8 29.35 -31.4 29.35 -31.1 29.35 -30.1 29.6 -29.6 29.75 -29.25 30.1 -29.0 30.5 -28.75 30.6 -28.5 30.8 -28.15 30.85 -27.4 L30.85 -27.1 30.8 -26.5 Q30.75 -26.2 30.35 -25.8 L30.25 -25.75 Q29.5 -26.0 28.85 -25.3 28.25 -24.65 28.25 -23.75 28.25 -23.2 29.8 -21.35 L30.15 -20.95 Q31.4 -19.45 31.4 -19.25 31.4 -19.1 31.25 -18.85 31.1 -18.6 31.1 -18.45 L31.1 -18.3 Q31.1 -17.9 31.2 -17.65 L31.35 -17.25 Q31.5 -17.0 31.7 -16.7 L32.55 -16.7 Q32.6 -16.9 32.8 -17.05 L32.95 -17.05 33.1 -17.2 33.65 -17.3 33.7 -17.5 Q33.1 -18.15 32.7 -18.95 32.45 -19.45 32.15 -20.35 L31.35 -21.5 Q30.75 -22.4 30.7 -23.1 L30.95 -23.15 31.45 -22.75 Q31.85 -22.5 32.0 -22.5 32.25 -22.5 32.55 -22.75 32.95 -23.1 32.95 -23.45 32.95 -23.9 32.5 -25.2 32.05 -26.45 32.05 -27.9 32.05 -28.2 32.45 -28.55 32.65 -28.75 33.2 -29.1 L33.55 -29.1 34.8 -28.1 Q36.0 -27.35 37.15 -27.35 37.4 -27.35 37.55 -27.45 L37.65 -27.6 Q37.8 -27.85 38.55 -27.75 38.9 -28.1 39.15 -28.55 39.35 -29.0 39.35 -29.25 39.35 -29.5 39.15 -29.85 39.1 -30.1 39.85 -30.4 L40.45 -30.5 Q40.75 -30.4 40.85 -30.3 40.9 -30.25 40.9 -30.1 40.95 -29.8 41.7 -29.6 42.15 -29.45 42.5 -29.1 L42.95 -28.6 43.3 -28.15 Q43.5 -27.8 43.7 -27.65 44.35 -27.05 45.55 -27.05 45.55 -27.1 45.65 -27.1 L45.65 -27.2 45.75 -27.3 45.8 -27.5 Q45.65 -27.9 45.2 -28.35 44.8 -28.65 44.55 -28.7 44.25 -29.0 43.9 -29.35 L43.6 -29.75 M46.2 -33.3 Q46.4 -33.45 47.25 -33.55 L48.15 -33.7 48.45 -33.85 Q48.55 -33.95 49.15 -34.0 L49.4 -34.7 Q49.4 -34.95 49.25 -35.85 L49.15 -36.75 Q49.15 -37.0 49.3 -37.25 49.45 -37.45 49.75 -37.55 50.2 -37.65 50.7 -37.55 51.15 -37.45 51.6 -37.25 52.05 -37.0 52.5 -36.55 52.7 -36.3 53.1 -35.7 L53.55 -34.85 Q53.9 -34.3 54.15 -33.95 54.25 -33.85 54.6 -33.55 L55.1 -33.15 Q55.65 -32.7 55.8 -32.7 55.85 -32.75 55.95 -32.8 L56.25 -32.85 56.55 -32.8 56.75 -32.75 57.2 -32.8 Q57.75 -32.55 58.0 -32.35 58.3 -32.2 58.45 -31.85 58.55 -31.6 58.55 -31.35 58.55 -31.25 58.65 -31.05 58.75 -30.85 58.75 -30.65 L58.7 -29.95 58.65 -28.9 58.75 -28.05 Q58.75 -27.5 58.45 -27.25 L58.15 -27.35 58.15 -27.45 58.35 -27.8 Q58.4 -27.9 58.4 -28.0 58.4 -28.4 58.05 -29.25 57.8 -29.9 57.35 -30.05 L56.5 -30.2 55.4 -30.1 Q53.85 -30.5 53.55 -30.65 52.8 -30.9 52.8 -31.35 L52.75 -31.7 Q52.7 -31.95 52.45 -32.1 52.25 -32.2 52.0 -32.5 L51.75 -32.8 Q51.3 -32.8 50.85 -32.25 L50.5 -31.7 Q50.1 -31.25 49.3 -30.95 48.8 -30.8 48.2 -30.75 48.0 -30.65 47.8 -30.3 47.6 -29.9 47.5 -29.8 L47.2 -29.8 47.05 -30.5 Q47.0 -30.65 46.75 -30.8 L46.4 -31.0 Q46.3 -31.1 46.0 -31.7 L45.75 -32.35 Q45.75 -32.45 45.9 -32.8 46.1 -33.25 46.2 -33.3 M20.0 -2.65 Q19.95 -2.85 19.95 -2.65 L19.95 -2.55 20.15 -2.15 20.35 -1.65 20.35 -1.4 20.3 -1.4 Q20.3 -1.7 20.2 -2.0 20.0 -2.45 19.7 -2.45 19.5 -2.45 19.5 -2.4 L19.55 -2.35 Q19.8 -1.7 19.8 -1.25 L19.6 -0.75 Q19.35 -0.35 19.35 -0.25 L19.35 -0.2 Q19.35 0.05 19.45 0.15 L19.6 0.3 19.9 0.0 20.25 -0.4 Q20.6 -0.9 20.6 -1.1 20.6 -1.25 20.4 -1.85 20.15 -2.45 20.0 -2.6 L20.0 -2.65 M18.45 -2.85 Q18.55 -3.1 18.65 -3.15 19.95 -3.4 20.55 -2.45 20.95 -1.8 20.95 -1.0 L20.9 -0.6 Q20.9 -0.35 20.75 -0.2 L20.25 0.2 Q19.8 0.55 19.7 0.55 19.35 0.55 19.1 0.1 19.0 -0.1 18.95 -0.35 18.95 -0.45 19.05 -0.7 L19.1 -1.0 Q19.1 -1.1 18.75 -1.65 18.35 -2.2 18.35 -2.5 18.35 -2.65 18.45 -2.85 M22.9 -0.9 Q23.55 -1.2 24.4 -0.7 24.5 -0.55 24.8 0.0 25.05 0.6 25.05 0.7 L25.0 0.95 24.9 1.2 Q24.85 1.45 24.85 1.5 L24.9 1.6 24.4 2.25 Q23.85 2.85 23.7 3.2 L23.55 3.65 Q23.45 3.9 23.25 4.05 22.5 4.6 20.6 4.6 20.05 4.6 19.7 4.1 L19.45 3.55 Q19.45 3.25 20.05 2.9 20.1 2.9 20.85 2.6 L20.95 2.6 21.2 2.65 21.45 2.6 21.9 2.55 Q22.15 2.4 22.3 2.0 L22.5 1.55 Q22.8 1.2 22.9 1.0 22.95 0.8 22.95 0.55 L22.95 0.35 22.9 0.2 22.55 0.15 22.45 0.0 Q22.4 -0.1 22.4 -0.25 22.4 -0.6 22.9 -0.9 M43.55 -20.3 L43.4 -20.3 Q42.65 -20.2 42.05 -19.95 L41.5 -19.3 41.0 -18.65 41.05 -18.5 41.15 -18.5 Q41.05 -18.35 41.05 -18.2 41.05 -17.95 41.15 -17.95 L41.25 -17.9 41.2 -17.9 41.3 -17.8 41.5 -17.8 41.55 -17.9 41.65 -18.25 Q41.75 -18.55 42.0 -18.75 L42.7 -18.85 Q43.0 -18.85 43.8 -18.45 L44.55 -18.0 Q44.75 -18.0 44.8 -18.05 L44.75 -18.1 Q44.6 -18.45 44.45 -19.1 L44.45 -19.2 Q44.2 -19.85 43.55 -20.3 M23.1 -0.4 L22.65 0.05 Q22.95 -0.1 23.25 0.1 23.4 0.2 23.5 0.4 23.8 0.85 23.8 1.05 L23.75 1.45 Q23.7 1.8 23.95 2.0 24.2 1.85 24.5 1.55 L24.6 1.4 Q24.8 1.2 24.8 1.1 L24.8 1.0 Q24.75 0.75 24.6 0.35 24.4 -0.15 24.2 -0.3 23.85 -0.85 23.3 -0.55 L23.25 -0.5 23.1 -0.4 M44.35 -19.8 Q44.7 -19.4 44.75 -19.1 44.8 -18.6 45.05 -18.15 45.2 -17.95 45.3 -17.8 45.3 -17.45 45.2 -17.15 45.1 -16.65 44.9 -16.65 44.7 -16.65 44.65 -16.85 L44.55 -17.25 Q44.25 -17.9 42.6 -17.9 42.15 -17.9 41.8 -17.7 L41.5 -17.5 41.05 -17.5 Q40.75 -17.75 40.65 -18.0 40.65 -18.1 40.65 -18.5 40.65 -18.85 40.7 -19.25 40.8 -19.75 40.85 -19.75 L41.4 -19.85 Q41.75 -20.0 42.0 -20.2 L42.35 -20.55 Q42.75 -20.85 43.7 -20.45 L44.35 -19.8 M42.15 -14.6 Q42.95 -14.65 43.25 -14.3 L43.6 -13.85 43.95 -13.35 44.15 -12.95 Q44.4 -12.55 44.7 -12.55 44.8 -12.55 45.4 -12.85 L46.05 -13.2 Q47.1 -13.05 47.35 -12.6 47.45 -12.45 47.5 -12.15 47.55 -11.9 47.6 -11.75 L47.85 -11.5 Q48.05 -11.3 48.05 -11.05 L48.1 -10.35 Q48.1 -10.2 47.5 -9.4 46.9 -8.55 46.75 -8.55 46.4 -8.55 46.45 -8.85 46.45 -9.0 46.5 -9.25 L46.45 -9.6 Q46.4 -9.8 46.4 -9.95 46.4 -10.3 46.25 -10.6 46.25 -10.7 45.85 -10.85 L45.35 -11.05 Q45.05 -11.2 44.85 -11.0 L44.55 -10.8 43.75 -10.8 43.3 -11.35 Q43.15 -11.55 42.95 -11.85 L42.65 -12.45 Q42.5 -12.8 42.3 -12.95 L41.85 -13.0 41.5 -13.25 41.1 -13.2 40.6 -13.2 40.55 -13.25 40.55 -13.45 Q40.55 -13.6 40.75 -13.9 40.95 -14.2 41.15 -14.3 41.4 -14.55 42.15 -14.6 M42.7 -14.2 L41.7 -14.2 Q41.7 -14.15 41.6 -14.1 41.45 -14.05 41.45 -14.0 L41.5 -13.8 41.75 -13.7 Q42.85 -13.45 43.25 -12.8 L43.5 -12.25 Q43.6 -11.9 43.75 -11.75 44.0 -11.7 44.45 -11.5 L44.95 -11.3 45.25 -11.35 45.3 -11.35 45.35 -11.45 45.6 -11.85 45.95 -11.9 Q46.25 -11.85 46.4 -11.7 L46.0 -12.1 Q46.4 -11.85 46.6 -11.35 46.65 -11.1 46.8 -10.95 L46.8 -10.8 Q46.75 -9.8 46.9 -9.45 L47.1 -9.45 Q47.15 -9.65 47.4 -10.05 47.55 -10.35 47.55 -10.65 47.55 -11.1 47.45 -11.4 47.35 -11.85 46.9 -12.3 46.75 -12.35 46.5 -12.45 L46.15 -12.55 Q45.8 -12.55 45.2 -11.9 L44.55 -11.85 Q44.15 -11.95 44.0 -12.3 43.95 -12.45 43.85 -13.0 43.8 -13.5 43.6 -13.7 43.4 -14.0 42.95 -14.1 L42.7 -14.2 M34.65 -9.0 Q35.4 -8.95 35.7 -8.75 L36.0 -8.45 Q36.2 -8.2 36.4 -7.8 36.5 -7.55 36.55 -7.15 L36.55 -6.45 Q36.5 -6.0 36.55 -5.8 36.55 -5.35 36.8 -5.15 L37.15 -5.15 Q37.65 -5.2 37.95 -5.3 L38.3 -5.3 Q38.8 -4.95 39.15 -3.95 39.45 -3.05 39.45 -2.35 L39.45 -1.75 Q39.4 -1.35 39.2 -1.1 L38.9 -0.75 38.6 -0.45 Q38.5 -0.4 38.3 -0.3 38.1 -0.25 38.2 -0.4 38.25 -0.45 38.1 -0.35 37.9 -0.25 37.8 -0.25 37.4 -0.25 37.3 -0.55 37.25 -0.6 37.25 -0.85 37.25 -1.15 37.65 -1.65 38.05 -2.15 38.05 -2.25 38.05 -2.5 37.75 -2.9 L37.3 -3.55 Q37.05 -3.85 36.8 -4.05 36.3 -4.4 35.85 -4.3 35.25 -4.6 35.25 -5.05 35.25 -5.3 35.4 -5.9 35.4 -6.35 34.85 -6.8 L33.9 -7.6 33.45 -7.6 33.25 -7.85 33.2 -7.95 Q33.2 -8.05 33.3 -8.15 L33.45 -8.3 33.5 -8.45 33.6 -8.6 33.75 -8.7 34.15 -8.9 34.65 -9.0 M26.45 -5.4 L26.35 -5.35 26.3 -5.35 26.2 -5.25 26.85 -4.7 26.05 -5.2 25.9 -5.2 Q26.3 -4.8 27.3 -4.15 27.55 -3.75 27.55 -3.25 27.55 -2.55 26.8 -1.95 L26.35 -1.5 Q26.1 -1.25 26.1 -1.05 L26.1 -1.0 26.3 -0.2 26.4 0.1 Q26.55 0.65 26.55 0.8 L26.5 1.3 26.3 1.9 Q25.85 1.95 25.7 2.1 25.7 2.15 25.7 2.4 25.7 2.5 25.8 2.75 L26.2 3.4 26.85 3.45 28.0 3.55 28.35 3.25 Q28.4 3.15 28.45 3.0 L28.85 3.05 Q29.0 3.2 29.8 3.55 L29.9 3.45 29.95 3.4 29.8 3.3 29.6 3.1 29.45 3.0 29.25 2.85 28.9 2.6 28.0 2.55 Q27.85 2.55 27.45 2.7 27.1 2.8 26.9 2.8 26.85 2.75 26.8 2.7 L26.7 2.7 26.7 2.4 Q26.75 2.3 27.0 1.85 L27.15 1.6 Q27.45 1.1 27.55 0.75 L27.55 0.6 Q27.55 0.45 27.2 0.05 26.85 -0.4 26.85 -0.5 L27.15 -1.1 27.35 -1.45 27.5 -1.7 Q28.15 -2.95 28.15 -3.2 28.15 -3.8 27.8 -4.15 L27.7 -4.4 Q27.35 -5.05 26.45 -5.4 M34.6 -7.85 L34.65 -7.95 Q35.25 -7.95 35.6 -7.35 35.85 -6.95 35.85 -6.6 L35.8 -6.15 Q35.75 -5.9 35.8 -5.7 35.85 -5.5 35.95 -5.25 36.1 -4.85 36.2 -4.75 L36.25 -5.35 36.3 -5.8 36.4 -6.6 Q36.4 -7.15 36.15 -7.55 35.95 -7.95 35.5 -8.25 35.1 -8.5 34.85 -8.45 34.55 -8.45 34.55 -8.1 34.55 -7.85 34.6 -7.85 M26.35 -4.15 Q26.1 -4.4 25.5 -4.6 25.1 -4.7 25.1 -5.0 25.1 -5.2 25.2 -5.3 25.35 -5.5 25.8 -5.6 L26.0 -5.8 Q26.65 -5.9 27.45 -5.4 28.2 -4.95 28.25 -4.6 L28.4 -3.8 28.55 -3.05 Q28.55 -2.95 28.35 -2.55 L28.1 -2.1 Q27.95 -1.75 27.7 -1.45 L27.45 -1.2 27.4 -0.9 Q27.35 -0.7 27.35 -0.65 L27.6 -0.1 Q27.85 0.45 27.85 0.6 27.85 0.85 27.6 1.25 L27.25 1.9 Q27.55 2.05 28.0 2.1 L28.95 2.3 Q29.2 2.35 29.6 2.65 29.9 2.9 30.4 2.95 30.9 3.8 31.1 4.35 31.25 4.9 31.25 5.6 31.25 6.4 31.1 7.55 30.9 9.0 30.6 9.2 L30.35 9.25 30.15 9.3 Q29.25 9.95 28.8 9.95 L27.5 9.8 27.4 9.65 Q27.35 9.65 27.35 9.5 27.35 9.2 27.6 9.05 28.1 8.75 28.3 8.55 L28.45 8.35 Q28.55 8.2 28.75 8.1 L29.1 7.6 29.1 6.3 29.15 5.45 29.15 4.7 Q29.05 4.3 28.8 4.05 28.3 4.05 28.2 3.95 L28.15 4.2 Q28.1 4.35 27.7 4.35 26.9 4.35 26.35 4.15 25.8 3.9 25.55 3.9 L25.15 3.4 Q24.95 3.05 24.95 2.9 24.95 2.75 25.0 2.6 L25.3 2.15 25.35 1.8 Q25.4 1.6 25.5 1.45 25.8 1.15 26.0 0.75 26.15 0.35 26.15 0.05 26.15 -0.55 25.75 -1.05 25.35 -1.5 25.35 -1.7 25.35 -1.9 25.5 -1.95 L25.8 -2.05 Q26.35 -2.15 26.5 -2.8 26.6 -3.2 26.6 -4.0 L26.6 -4.1 26.55 -4.1 26.35 -4.15 M32.9 -1.6 L32.85 -1.45 Q33.4 -1.2 33.8 -0.8 L34.2 -0.35 34.4 0.0 Q34.65 0.5 34.75 1.05 L34.45 0.25 34.35 0.25 34.5 1.1 Q34.55 1.85 34.3 2.25 33.4 2.25 33.1 2.6 32.9 2.85 32.9 3.3 32.9 3.45 33.0 3.65 L33.2 4.0 33.25 4.4 Q33.3 4.55 33.45 4.7 L33.55 4.55 33.65 4.5 33.6 3.75 Q33.6 3.4 34.0 3.1 L34.55 3.05 35.05 2.4 Q35.4 1.85 35.4 1.7 35.4 0.8 34.75 -0.1 34.1 -1.0 33.05 -1.5 L32.9 -1.6 M31.95 -1.5 Q31.95 -1.85 32.35 -2.0 32.85 -2.25 33.55 -1.9 34.15 -1.6 34.35 -1.35 L34.7 -0.85 Q34.75 -0.75 35.15 -0.25 35.5 0.2 35.6 0.3 L35.8 0.85 Q35.95 1.25 35.95 1.4 35.95 1.6 35.8 2.05 L35.65 2.55 Q35.6 2.8 35.35 3.05 35.15 3.25 34.85 3.4 L34.2 3.45 Q34.1 3.75 34.2 4.4 34.2 4.75 34.1 4.85 33.9 5.15 33.0 5.25 L32.55 5.25 32.35 4.95 Q32.3 4.85 32.3 4.7 32.3 4.4 32.45 3.95 32.6 3.5 32.6 3.25 L32.55 2.95 Q32.45 2.75 32.45 2.65 32.45 2.3 32.7 2.0 33.0 1.6 33.55 1.6 33.6 1.6 33.75 1.35 33.9 1.15 33.95 1.05 L34.0 0.45 Q34.0 0.3 33.9 -0.05 L33.7 -0.45 Q33.05 -0.6 32.5 -0.9 31.95 -1.25 31.95 -1.5 M38.0 -4.6 L37.65 -4.45 Q37.3 -4.3 37.05 -4.3 L37.1 -4.2 Q37.3 -4.05 37.9 -3.25 38.5 -2.5 38.5 -2.4 38.5 -2.15 38.3 -1.75 L37.95 -1.15 38.05 -0.9 38.35 -0.85 Q38.4 -0.95 38.75 -1.3 39.1 -1.6 39.1 -1.8 39.1 -2.25 38.95 -3.1 38.7 -4.25 38.35 -4.55 L38.0 -4.6 M33.8 -0.7 L33.7 -0.85 33.3 -1.2 33.2 -1.15 33.35 -0.95 33.75 -0.5 Q34.1 -0.2 34.2 -0.1 L34.2 -0.2 Q34.05 -0.35 33.8 -0.7 M46.5 -6.05 Q46.4 -6.25 46.25 -6.25 46.15 -6.25 46.05 -6.15 L45.9 -5.95 45.8 -6.0 Q45.8 -6.2 46.0 -6.4 46.15 -6.6 46.45 -6.7 L47.05 -7.0 Q47.6 -7.3 47.75 -7.3 47.95 -7.3 48.2 -6.85 L48.45 -6.3 Q48.55 -5.8 48.5 -5.35 L48.5 -5.3 Q49.0 -5.3 49.15 -5.5 49.25 -5.6 49.3 -5.85 L49.35 -5.9 Q49.25 -5.7 49.2 -5.45 L49.1 -5.05 49.0 -4.75 Q48.8 -4.4 48.45 -4.2 L48.25 -4.75 Q48.05 -5.3 48.05 -5.5 48.05 -6.65 47.25 -6.65 L46.5 -6.05 M49.75 -6.45 Q49.95 -6.75 50.4 -7.0 51.0 -7.3 51.6 -7.3 L52.15 -7.05 Q52.6 -6.9 52.7 -6.75 L52.95 -6.5 53.15 -6.15 53.5 -5.55 Q53.6 -5.25 53.6 -5.0 54.1 -3.6 54.1 -3.25 54.1 -2.35 53.4 -1.55 L52.9 -0.9 Q52.7 -0.6 52.7 -0.25 52.7 0.2 53.15 0.9 53.75 1.75 54.35 1.5 54.7 1.7 55.1 2.6 55.1 2.9 54.8 3.2 L54.05 3.9 53.65 4.0 53.05 4.05 52.9 4.05 52.85 4.0 52.85 3.85 Q52.85 3.7 52.95 3.45 L53.05 3.05 52.85 2.6 52.55 2.2 Q52.3 1.9 51.65 1.7 L50.9 1.45 Q50.25 1.0 50.05 0.6 49.85 0.3 49.85 -0.25 49.85 -0.5 50.1 -1.1 L50.3 -1.7 Q50.3 -1.8 50.15 -1.9 L49.85 -2.2 Q49.25 -2.1 48.85 -1.95 48.5 -1.75 48.35 -1.7 L47.05 -1.8 Q46.75 -2.0 46.75 -2.35 L46.75 -2.9 46.65 -4.05 Q46.75 -4.55 46.7 -5.35 46.65 -5.65 46.6 -5.85 L46.75 -5.8 46.9 -5.6 47.2 -5.3 Q47.45 -5.05 47.45 -4.65 47.25 -4.0 47.2 -3.55 47.1 -2.75 47.9 -2.55 L48.85 -2.5 Q49.5 -2.5 49.9 -3.05 50.2 -3.45 50.2 -3.75 L50.25 -4.05 Q50.3 -4.25 50.55 -4.45 50.6 -4.4 51.0 -4.35 L51.35 -4.3 Q51.45 -4.05 51.85 -3.75 52.2 -3.45 52.2 -3.25 52.2 -2.95 51.5 -2.1 50.85 -1.25 50.85 -0.45 50.85 -0.2 51.15 0.4 51.4 0.85 51.7 1.25 52.8 1.55 53.4 1.95 53.8 2.25 53.8 2.45 L53.75 2.9 Q53.65 3.1 53.7 3.2 L54.1 3.2 Q54.3 2.9 54.4 2.45 L54.6 2.5 54.75 2.45 54.0 1.85 52.9 1.0 52.8 0.9 Q52.1 0.25 52.1 -0.45 52.1 -0.85 52.3 -1.15 L52.7 -1.55 Q53.3 -2.15 53.3 -3.3 53.3 -3.95 52.7 -5.2 52.1 -6.5 51.65 -6.75 L50.15 -6.75 Q49.9 -6.65 49.75 -6.45 M43.1 -0.1 L42.95 -0.05 Q42.85 0.05 42.8 0.1 L42.75 0.25 Q43.45 0.4 43.65 0.8 L43.75 1.1 43.75 1.6 Q43.7 2.15 43.8 2.35 43.95 2.75 44.55 2.95 L45.7 2.95 Q45.9 3.05 46.2 3.65 46.45 4.2 46.45 4.45 46.45 4.65 46.35 5.25 L46.15 6.2 Q46.1 6.5 45.35 7.1 44.5 7.8 43.9 7.8 L43.55 7.75 43.45 7.7 Q43.25 7.8 42.95 8.15 42.6 8.55 42.55 8.8 L42.6 8.95 43.2 8.95 43.35 8.65 Q43.4 8.5 43.7 8.2 L44.2 8.7 44.55 8.7 45.6 8.15 Q46.0 7.95 46.35 7.8 46.7 7.0 47.3 6.45 47.7 6.05 47.7 5.45 47.7 4.95 47.45 3.45 47.25 2.55 47.15 2.35 46.9 1.7 46.2 1.3 L44.45 1.25 Q44.25 1.0 44.2 0.85 44.1 0.6 44.1 0.35 44.1 0.15 44.15 0.15 L44.2 0.1 43.8 0.05 43.15 -0.1 43.1 -0.1 M43.3 -0.65 Q43.55 -0.7 44.0 -0.45 44.35 -0.3 44.5 -0.15 44.65 0.05 44.6 0.25 L44.55 0.55 Q44.55 0.7 45.15 0.8 L46.35 0.85 Q46.95 0.85 47.4 1.35 47.6 1.6 47.7 1.9 L47.9 2.4 Q48.0 2.6 48.0 2.9 L48.15 5.0 Q48.15 6.4 47.2 7.1 46.9 7.3 46.9 7.65 46.9 8.0 46.7 8.15 L46.15 8.6 Q45.75 8.9 45.4 9.05 L44.4 8.9 43.8 8.8 43.6 9.0 43.45 9.2 Q43.35 9.3 43.2 9.4 L42.95 9.45 Q42.25 9.55 41.8 9.1 41.45 8.8 41.45 8.6 41.45 8.25 42.05 7.85 42.45 7.6 43.45 7.1 45.4 6.0 45.4 4.55 45.4 4.25 45.25 4.1 45.15 3.95 44.65 3.95 L44.1 3.95 43.65 3.75 Q43.35 3.6 43.35 3.35 L43.45 1.75 Q43.45 0.55 42.2 0.7 L42.05 0.65 Q42.0 0.6 42.0 0.5 42.0 0.2 42.55 -0.2 43.0 -0.55 43.3 -0.65 M49.6 -35.4 L49.55 -35.1 49.6 -34.95 49.65 -34.7 49.7 -34.4 49.6 -34.1 49.55 -34.05 49.35 -33.9 49.35 -33.85 49.05 -33.7 49.0 -33.7 49.1 -33.65 Q48.85 -33.6 48.75 -33.5 48.65 -33.4 48.6 -33.15 L48.45 -33.15 47.15 -33.1 Q46.95 -32.95 46.8 -32.7 46.65 -32.7 46.55 -32.6 46.4 -32.45 46.4 -32.2 46.4 -32.15 46.5 -31.85 46.7 -31.5 46.9 -31.35 46.95 -31.5 47.0 -31.5 46.95 -31.6 47.0 -31.7 L47.0 -31.95 47.05 -32.0 Q48.1 -31.55 49.2 -32.1 L49.3 -32.1 49.4 -32.2 49.7 -32.4 Q50.25 -32.75 50.6 -33.2 50.95 -33.6 50.95 -33.8 L50.8 -34.25 Q50.8 -34.4 50.95 -34.5 51.05 -34.6 51.25 -34.6 L51.4 -34.6 Q51.8 -34.6 52.25 -33.7 52.75 -32.7 52.9 -32.6 53.3 -32.35 54.25 -31.7 55.15 -31.15 55.85 -31.0 L55.95 -31.1 56.0 -31.1 Q56.25 -31.1 56.55 -31.2 L56.75 -31.3 Q57.3 -31.25 58.2 -29.85 L58.55 -29.85 58.7 -29.95 58.7 -30.45 Q58.7 -30.65 58.65 -30.75 58.65 -31.15 58.4 -31.55 58.25 -31.8 58.0 -32.0 57.8 -32.2 57.55 -32.25 L57.15 -32.35 56.85 -32.2 56.5 -32.2 Q56.05 -32.2 55.75 -32.3 L55.6 -32.45 55.55 -32.45 55.1 -32.95 54.0 -34.05 53.0 -35.25 52.85 -35.4 Q52.35 -35.9 51.75 -36.1 L51.85 -36.1 Q52.0 -36.15 52.05 -36.25 52.0 -36.4 51.65 -36.7 51.5 -36.9 51.2 -37.0 50.3 -37.3 49.8 -36.8 49.55 -36.5 49.5 -36.1 L49.45 -35.9 Q49.45 -35.7 49.6 -35.4 M64.45 -21.7 L64.65 -21.25 Q64.8 -21.0 64.8 -20.75 64.85 -20.5 65.7 -20.1 66.65 -19.65 66.75 -19.35 L67.15 -18.5 Q67.5 -17.85 67.5 -17.55 67.5 -17.4 67.35 -16.9 67.25 -16.4 67.25 -16.25 67.25 -15.85 67.45 -15.5 67.65 -15.05 68.0 -14.95 L68.1 -14.9 68.3 -14.9 68.75 -15.0 69.15 -15.05 Q69.25 -15.05 69.6 -14.95 L70.15 -14.75 70.15 -14.45 Q70.2 -14.3 70.35 -14.2 L70.8 -13.8 Q71.1 -13.6 71.15 -13.4 L71.5 -12.15 71.55 -11.35 Q71.55 -10.1 71.4 -9.5 L71.25 -8.6 Q71.05 -8.1 70.65 -7.75 L70.65 -7.7 Q70.85 -7.6 71.1 -7.6 71.45 -7.6 71.9 -7.85 L72.4 -8.1 73.0 -7.65 Q73.15 -7.5 73.15 -7.35 L73.2 -7.05 Q73.2 -6.55 73.75 -5.95 74.05 -5.6 74.45 -4.9 74.85 -4.1 74.85 -3.75 74.85 -2.65 74.65 -2.25 74.55 -1.95 74.2 -1.5 73.9 -1.05 73.65 -0.8 73.6 -0.75 73.25 -0.55 72.8 -0.3 72.4 -0.25 72.1 -0.2 71.85 0.0 L71.6 0.35 70.9 1.0 Q70.45 1.5 70.45 1.8 70.45 1.85 70.6 2.0 L70.8 2.2 Q71.55 2.5 71.9 3.1 72.2 3.55 72.2 4.1 72.2 4.95 71.05 5.7 70.1 6.3 69.55 6.3 L68.3 6.3 Q68.1 6.2 67.25 6.05 67.2 6.05 66.95 5.8 L66.65 5.55 66.1 5.1 65.45 4.6 Q65.5 4.9 65.05 5.5 64.55 6.15 64.4 6.45 64.05 7.0 63.85 7.35 62.85 8.0 62.4 8.0 62.3 8.0 62.05 7.8 L61.15 7.2 60.85 7.2 60.75 7.3 Q60.7 7.35 60.7 7.45 60.7 7.6 60.9 8.05 61.15 8.5 61.15 8.9 61.15 9.5 60.3 10.25 59.45 10.9 59.45 10.95 59.45 11.45 60.05 11.95 60.75 12.55 60.9 13.0 L61.15 13.5 61.4 14.1 61.6 14.65 Q61.65 14.85 61.65 15.15 61.65 15.85 60.9 17.15 60.2 18.4 59.9 18.6 59.65 18.85 58.9 18.85 L58.5 18.8 58.2 18.75 57.95 18.7 57.65 18.65 Q57.2 18.6 56.85 18.35 L56.4 18.05 Q55.9 17.85 55.1 17.75 L54.0 17.6 Q53.85 17.55 53.8 17.45 L53.8 17.3 Q53.8 17.05 54.15 16.9 L55.0 16.7 Q56.35 16.45 56.6 15.9 56.75 15.55 57.2 15.05 57.5 14.7 57.5 14.3 57.5 14.25 57.35 14.15 57.15 13.95 56.85 13.95 56.65 13.8 56.4 13.1 56.15 12.4 56.15 12.3 56.15 11.15 56.2 10.6 56.25 10.2 56.95 9.8 57.7 9.3 58.75 9.2 59.3 8.7 59.45 8.0 59.55 7.6 59.5 6.8 59.55 6.65 59.6 5.65 59.6 4.9 60.0 4.45 L60.35 4.45 60.7 4.65 61.0 4.85 Q61.5 4.75 61.9 4.4 62.15 4.2 62.25 3.85 L62.7 2.75 Q62.85 2.1 63.05 1.6 63.35 0.65 63.8 0.65 64.4 0.65 65.0 1.0 L65.7 1.45 66.1 1.6 Q66.45 1.8 66.55 1.85 66.6 1.9 66.7 2.05 L66.85 2.3 Q66.9 2.3 67.0 2.35 67.05 2.45 67.15 2.45 L67.95 2.4 Q68.5 1.95 68.6 1.3 L68.6 0.2 68.7 -0.05 Q68.75 -0.25 68.95 -0.4 69.05 -0.5 69.5 -0.6 69.85 -0.65 70.0 -0.8 70.9 -1.5 70.9 -1.9 70.9 -2.1 70.75 -2.3 L70.35 -2.7 70.1 -3.05 Q69.9 -3.3 69.6 -3.35 L68.65 -3.15 Q67.75 -2.95 66.5 -2.95 65.85 -2.95 65.55 -3.6 65.45 -3.95 65.4 -4.35 65.3 -4.75 65.05 -5.15 64.9 -5.4 64.9 -5.75 64.9 -6.1 65.2 -6.35 65.6 -6.7 65.75 -7.1 L66.15 -7.8 Q66.35 -8.2 66.35 -8.4 66.35 -8.65 66.15 -8.9 65.95 -9.15 65.6 -9.2 65.05 -9.3 64.65 -9.55 64.35 -9.75 64.3 -9.95 L64.1 -10.75 Q63.95 -11.25 63.8 -11.55 63.15 -11.7 63.0 -11.8 62.85 -11.9 62.85 -12.1 62.85 -12.3 63.25 -12.75 63.65 -13.15 63.65 -13.35 L63.25 -13.95 Q62.85 -14.55 62.85 -15.05 L62.9 -15.6 62.95 -16.2 Q62.95 -16.75 62.85 -16.95 62.7 -17.2 61.95 -17.75 L61.65 -17.75 61.5 -17.6 Q61.4 -17.55 61.4 -17.5 61.4 -17.4 61.5 -17.25 L61.55 -17.0 Q61.55 -16.7 61.25 -16.35 L60.5 -15.6 59.85 -14.9 Q59.3 -14.45 58.15 -14.35 L58.15 -14.3 57.05 -14.3 Q56.35 -14.7 56.75 -15.75 L55.4 -15.05 Q54.5 -14.6 54.15 -14.3 L53.25 -14.4 Q53.2 -14.5 53.0 -14.6 L52.5 -14.8 Q52.25 -14.85 52.05 -15.1 L51.75 -15.45 51.45 -15.75 Q51.15 -16.0 51.05 -16.1 L50.85 -16.45 Q50.7 -16.7 50.45 -16.8 50.0 -16.75 49.65 -16.6 49.3 -16.4 49.25 -16.3 L49.2 -15.9 Q49.1 -15.55 48.95 -15.55 48.65 -15.55 48.5 -16.1 48.45 -16.4 48.45 -16.7 L48.3 -18.0 48.3 -18.35 Q48.3 -18.6 48.4 -18.7 L48.75 -19.05 Q49.05 -19.3 49.1 -19.4 L49.35 -20.05 Q49.6 -20.5 49.85 -20.75 L50.15 -20.8 Q50.95 -20.65 51.6 -20.2 52.1 -19.85 52.35 -19.45 52.45 -19.25 52.55 -18.65 52.8 -18.1 53.5 -18.1 53.8 -18.1 54.45 -18.4 55.05 -18.6 55.1 -18.7 L56.0 -19.6 Q56.3 -19.9 56.6 -20.5 56.9 -21.1 57.15 -21.35 L57.65 -21.65 Q58.05 -21.9 58.15 -22.1 L58.45 -23.0 58.55 -23.4 Q58.65 -23.7 58.85 -23.9 59.4 -24.4 61.0 -23.9 61.15 -23.85 62.05 -23.15 62.7 -22.65 63.35 -22.5 63.8 -22.4 64.0 -22.25 64.3 -22.05 64.45 -21.7 M60.8 8.6 L60.8 8.4 60.7 8.35 60.65 8.55 60.55 8.7 60.5 8.4 Q60.45 8.25 60.3 8.1 60.15 8.15 60.1 8.4 L59.9 8.9 Q59.6 9.65 58.7 9.85 57.9 10.05 57.45 10.6 57.15 11.1 57.15 11.7 57.15 12.45 57.4 12.85 57.8 13.4 59.1 13.9 L59.3 14.15 Q59.45 14.25 59.45 14.5 59.45 14.7 59.25 15.3 L58.95 16.15 Q58.85 16.25 58.8 16.6 58.75 16.95 58.65 17.15 58.3 17.7 56.95 17.7 56.95 17.95 57.05 18.05 L57.15 18.1 57.25 18.2 57.45 18.3 58.7 18.35 Q58.75 18.3 59.05 18.2 L59.7 18.05 Q59.95 17.75 60.55 16.1 61.05 14.8 61.2 14.25 L61.2 13.95 Q61.2 13.55 60.7 12.85 60.35 12.4 59.85 11.9 L59.2 11.8 Q59.05 11.6 58.95 11.45 58.85 11.25 58.85 11.0 58.85 10.95 59.8 10.1 60.8 9.25 60.8 8.7 L60.8 8.6 M71.05 0.4 L71.05 0.35 70.95 0.15 Q70.7 0.25 70.15 0.75 69.5 1.4 69.45 1.9 69.35 2.75 69.0 3.2 68.6 3.65 67.8 3.7 67.2 3.45 66.8 3.1 L66.2 2.65 Q65.7 2.25 64.55 2.25 63.7 2.25 63.05 3.15 62.85 3.45 62.7 3.8 L62.65 3.95 62.55 4.1 62.55 4.2 Q62.35 4.55 62.4 5.3 62.25 5.95 61.15 6.35 61.05 6.15 60.8 5.75 L60.5 5.3 60.45 5.45 60.45 5.75 Q60.45 6.35 60.65 6.6 L60.85 6.8 Q61.0 6.9 61.25 7.0 L61.8 7.25 63.2 7.3 64.3 5.85 Q65.05 4.85 65.05 4.7 65.05 4.45 64.95 4.25 L64.7 3.9 Q64.75 3.85 64.9 3.75 L65.1 3.7 65.7 3.7 Q65.75 3.75 66.0 4.1 66.2 4.55 66.5 4.85 67.45 5.8 69.45 5.8 L70.15 5.6 Q70.85 5.35 71.35 5.25 71.45 5.05 71.7 4.65 71.85 4.4 71.85 4.2 71.85 3.75 71.05 3.05 70.7 2.7 70.5 2.45 70.3 2.1 70.3 1.85 70.3 1.7 70.35 1.45 L70.4 1.2 Q70.7 1.15 70.9 1.0 71.05 0.85 71.05 0.7 L71.05 0.4 M58.8 -23.2 Q58.55 -22.85 58.35 -22.25 L58.1 -21.55 58.05 -21.35 Q57.8 -20.9 57.15 -20.4 56.6 -20.0 56.6 -19.55 L56.6 -19.45 56.4 -19.25 56.3 -19.05 Q56.05 -18.9 55.7 -18.5 55.2 -17.8 55.05 -17.65 L52.95 -17.4 52.2 -17.3 52.2 -17.75 Q52.05 -19.0 50.8 -19.6 49.95 -19.8 49.35 -19.35 L49.3 -19.3 Q49.05 -19.1 48.9 -18.85 48.7 -18.45 48.7 -17.85 48.7 -17.35 49.0 -16.55 L49.4 -16.55 49.45 -16.6 49.45 -16.8 Q49.45 -17.15 49.5 -17.3 49.65 -17.8 50.0 -18.0 50.25 -18.05 50.45 -18.1 L50.8 -18.2 Q51.2 -18.2 51.5 -17.55 L51.85 -16.65 51.9 -16.3 Q52.0 -16.0 52.15 -15.8 52.65 -15.2 54.3 -15.2 L54.95 -15.25 Q55.65 -15.95 56.35 -16.95 56.85 -16.7 57.2 -16.1 57.55 -15.4 57.9 -15.15 L59.2 -15.15 Q59.45 -15.35 59.9 -15.9 60.45 -16.6 60.45 -16.8 L60.35 -17.3 Q60.3 -17.6 60.3 -17.7 60.25 -18.1 60.0 -18.25 L59.9 -18.9 Q59.85 -19.5 60.2 -19.65 L60.1 -19.75 60.05 -19.75 60.15 -20.0 61.1 -20.0 Q62.4 -20.0 63.65 -18.0 64.3 -16.9 64.7 -15.75 L65.15 -14.6 Q65.4 -13.85 65.4 -13.4 65.4 -12.75 65.85 -12.15 66.35 -11.4 67.3 -11.2 L67.75 -10.3 Q67.85 -10.05 67.85 -9.55 L67.4 -8.15 Q66.95 -6.7 66.95 -6.35 66.95 -5.95 67.45 -4.95 68.1 -3.7 68.95 -3.7 L70.3 -3.8 Q71.4 -3.85 71.7 -3.8 71.95 -3.7 72.0 -3.65 L72.2 -3.3 72.55 -2.7 Q72.7 -2.3 72.9 -2.1 L73.0 -1.95 Q73.0 -1.75 72.9 -1.3 L72.75 -0.75 72.75 -0.65 72.95 -0.6 73.15 -0.9 74.1 -2.15 Q74.45 -2.7 74.45 -3.5 74.45 -4.3 73.75 -5.25 L72.3 -7.1 Q71.7 -7.05 71.05 -6.9 L69.8 -6.55 69.35 -6.85 Q69.2 -6.95 69.2 -7.0 69.2 -7.4 69.6 -8.05 70.1 -8.95 70.35 -9.65 70.8 -10.95 70.8 -12.6 70.8 -12.75 70.3 -13.5 69.85 -14.3 69.65 -14.45 68.95 -14.5 68.25 -14.45 L67.45 -14.4 Q66.95 -14.8 66.75 -15.35 66.65 -15.7 66.55 -16.2 66.5 -16.55 66.55 -17.15 L66.6 -18.05 Q66.55 -18.5 66.1 -19.05 65.65 -19.55 65.05 -19.85 64.4 -20.15 63.85 -20.8 L63.3 -21.6 Q62.9 -21.95 62.75 -22.05 L61.8 -22.1 Q61.7 -22.2 61.6 -22.45 61.5 -22.8 61.45 -22.95 61.1 -23.35 60.2 -23.5 59.2 -23.7 58.8 -23.2 M42.55 0.25 L42.5 0.3 42.55 0.3 42.55 0.25 M37.2 4.35 Q37.3 4.25 37.45 4.0 37.55 3.7 37.65 3.65 38.0 3.35 38.15 3.55 38.3 3.7 38.3 3.85 38.3 3.95 38.2 4.1 38.1 4.2 38.1 4.3 38.1 4.65 38.8 5.3 L39.5 5.85 Q39.75 6.3 39.7 6.65 L39.65 7.3 Q39.65 7.55 39.85 8.2 L40.05 8.85 Q40.05 9.85 39.9 10.35 39.5 11.4 38.45 11.45 L37.55 11.45 Q36.8 11.35 36.65 11.2 36.55 11.15 36.55 10.8 36.55 10.35 36.85 10.1 37.15 9.8 37.1 9.05 37.1 8.7 37.3 8.55 37.55 8.3 37.6 8.2 37.65 7.9 37.65 7.35 37.65 7.15 37.15 6.6 36.65 6.0 36.65 5.7 36.65 5.4 36.8 5.0 37.0 4.5 37.2 4.35 M23.35 3.2 L23.3 3.1 Q22.5 3.1 21.85 3.4 L20.55 3.4 20.55 3.2 20.3 3.2 20.3 3.45 20.35 3.65 Q20.5 3.9 20.75 4.15 L20.95 4.15 21.45 4.2 Q22.25 4.2 22.75 3.75 L23.35 3.2 M30.0 3.8 Q30.1 4.4 29.9 4.9 29.65 5.45 29.65 5.95 29.65 6.1 29.8 6.95 30.0 7.75 30.0 7.95 29.1 9.05 28.65 9.05 L28.2 9.1 Q28.05 9.15 28.05 9.2 L28.05 9.25 Q28.05 9.45 28.1 9.55 L28.15 9.65 28.55 9.7 Q29.0 9.65 29.35 9.5 L29.75 9.3 Q30.25 8.85 30.5 8.1 30.8 7.3 30.8 5.7 30.85 5.05 30.8 4.6 30.65 3.75 30.0 3.8 M37.4 5.95 L37.45 6.0 37.9 6.05 38.2 7.15 Q38.35 7.75 38.35 8.15 L38.35 9.05 Q38.35 9.45 38.15 9.75 37.95 10.0 37.95 10.2 37.95 10.55 38.15 11.0 L38.55 11.0 Q38.55 10.95 39.15 10.5 39.55 10.2 39.55 9.7 39.55 9.2 39.3 7.75 L39.3 6.7 Q39.25 6.05 38.65 5.7 L38.1 5.65 37.8 5.2 Q37.65 4.95 37.65 4.55 37.65 4.35 37.75 4.2 L37.9 3.95 Q37.65 4.1 37.5 4.75 37.4 5.2 37.4 5.7 L37.4 5.95" fill="#bffff0" fill-opacity="0.7490196" fill-rule="evenodd" stroke="none"/>
  </g>
</svg>
