<?xml version="1.0" encoding="UTF-8" standalone="no"?>
<svg xmlns:ffdec="https://www.free-decompiler.com/flash" xmlns:xlink="http://www.w3.org/1999/xlink" ffdec:objectType="shape" height="17.15px" width="42.7px" xmlns="http://www.w3.org/2000/svg">
  <g transform="matrix(1.0, 0.0, 0.0, 1.0, 23.85, 23.15)">
    <path d="M0.45 -21.95 L0.5 -21.95 0.6 -21.9 0.7 -21.9 0.75 -21.85 0.8 -21.85 0.8 -21.8 0.85 -21.8 0.85 -21.75 0.9 -21.75 0.9 -21.4 0.95 -21.4 1.0 -21.35 1.15 -21.35 1.2 -21.3 1.3 -21.3 1.35 -21.25 1.5 -21.25 1.55 -21.2 1.7 -21.2 1.9 -21.0 1.9 -20.95 1.95 -20.95 1.95 -20.6 1.9 -20.55 1.95 -20.5 1.95 -20.45 2.0 -20.45 2.0 -20.3 2.1 -20.3 2.15 -20.25 2.25 -20.25 2.3 -20.2 2.35 -20.2 2.35 -20.15 2.4 -20.15 2.45 -20.1 2.55 -20.1 2.6 -20.05 2.65 -20.05 2.7 -20.0 2.75 -20.0 2.8 -19.95 2.9 -19.95 2.9 -19.9 3.0 -19.9 3.05 -19.85 3.1 -19.85 3.15 -19.8 3.2 -19.8 3.25 -19.75 3.25 -19.7 3.3 -19.7 3.3 -19.65 3.35 -19.6 3.35 -19.3 3.4 -19.25 3.4 -19.15 3.45 -19.15 3.5 -19.1 3.55 -19.1 3.55 -19.05 3.6 -19.05 3.6 -19.0 3.65 -19.0 3.65 -18.95 3.7 -18.9 3.7 -18.75 3.75 -18.7 3.8 -18.7 3.9 -18.6 3.95 -18.6 4.0 -18.55 4.05 -18.55 4.05 -18.5 4.1 -18.5 4.15 -18.45 4.15 -18.4 4.2 -18.4 4.2 -18.35 4.25 -18.35 4.25 -18.25 4.3 -18.25 4.3 -17.85 4.35 -17.85 4.4 -17.8 4.4 -17.75 4.45 -17.75 4.45 -17.7 4.55 -17.6 4.55 -17.55 4.6 -17.55 4.6 -17.5 4.65 -17.45 4.65 -17.35 4.6 -17.35 4.6 -17.25 4.55 -17.25 4.55 -17.2 4.4 -17.2 4.35 -17.15 4.35 -16.6 4.3 -16.6 4.3 -16.55 4.35 -16.55 4.35 -16.45 4.4 -16.4 4.4 -16.35 4.45 -16.3 4.45 -16.25 4.5 -16.2 4.5 -16.15 4.55 -16.15 4.55 -16.05 4.6 -16.05 4.6 -16.0 4.65 -15.95 4.65 -15.9 4.7 -15.85 4.7 -15.75 4.75 -15.75 4.75 -15.7 4.8 -15.65 4.8 -15.55 4.85 -15.55 4.85 -15.45 4.9 -15.45 4.9 -15.25 4.85 -15.25 4.85 -15.15 4.8 -15.15 4.8 -14.9 4.85 -14.85 4.85 -14.65 4.9 -14.6 4.9 -14.55 4.95 -14.55 5.05 -14.45 5.05 -14.4 5.1 -14.4 5.1 -14.35 5.3 -14.15 5.3 -14.1 5.35 -14.1 5.35 -14.05 5.4 -14.05 5.45 -14.0 5.5 -14.0 5.5 -13.95 5.55 -13.95 5.55 -13.9 5.6 -13.9 5.6 -13.85 5.65 -13.85 5.65 -13.8 5.7 -13.8 5.7 -13.75 5.75 -13.75 5.75 -13.7 5.8 -13.65 5.8 -13.5 5.75 -13.5 5.75 -13.3 5.8 -13.3 5.8 -13.1 5.85 -13.1 5.85 -12.9 5.9 -12.9 5.9 -12.85 5.95 -12.8 5.95 -12.65 5.9 -12.6 5.95 -12.6 6.0 -12.55 6.05 -12.55 6.05 -12.5 6.1 -12.5 6.1 -12.45 6.15 -12.4 6.15 -12.35 6.2 -12.35 6.2 -12.3 6.25 -12.25 6.25 -12.2 6.3 -12.15 6.3 -12.0 6.35 -12.0 6.35 -11.8 6.4 -11.8 6.45 -11.75 6.9 -11.75 6.95 -11.7 7.0 -11.7 7.0 -11.65 7.1 -11.65 7.15 -11.6 7.2 -11.6 7.25 -11.55 7.35 -11.55 7.4 -11.5 7.55 -11.5 7.6 -11.45 7.75 -11.45 7.75 -11.4 7.8 -11.4 7.9 -11.35 7.95 -11.35 7.95 -11.3 8.0 -11.3 8.0 -11.25 8.05 -11.2 8.05 -10.8 8.0 -10.8 8.0 -10.7 7.95 -10.7 7.95 -10.65 7.9 -10.6 7.95 -10.55 8.1 -10.55 8.1 -10.5 8.2 -10.5 8.25 -10.45 8.45 -10.45 8.65 -10.4 8.8 -10.4 8.85 -10.35 8.95 -10.35 9.0 -10.3 9.05 -10.3 9.1 -10.25 9.1 -10.2 9.15 -10.15 9.15 -10.0 9.3 -10.0 9.3 -10.05 9.4 -10.05 9.45 -10.1 9.55 -10.1 9.6 -10.05 9.7 -10.05 9.8 -9.95 9.8 -9.9 9.85 -9.9 9.85 -9.8 9.9 -9.8 9.9 -9.75 10.7 -9.75 10.75 -9.7 10.8 -9.7 10.85 -9.65 10.9 -9.65 10.9 -9.6 10.95 -9.6 10.95 -9.55 11.0 -9.55 11.0 -9.45 11.05 -9.45 11.05 -9.4 11.1 -9.35 11.1 -9.25 11.15 -9.25 11.15 -9.3 11.25 -9.3 11.3 -9.35 11.45 -9.35 11.5 -9.4 12.0 -9.4 12.0 -9.35 12.05 -9.35 12.05 -9.3 12.15 -9.4 12.25 -9.4 12.25 -9.45 12.35 -9.55 12.4 -9.55 12.5 -9.6 12.75 -9.6 12.8 -9.65 13.0 -9.65 13.05 -9.7 13.05 -9.75 13.1 -9.75 13.1 -9.8 13.15 -9.8 13.15 -9.9 13.2 -9.9 13.2 -9.95 13.25 -9.95 13.3 -10.0 13.35 -10.0 13.4 -10.05 13.5 -10.05 13.5 -10.1 13.75 -10.1 13.8 -10.05 13.95 -10.05 14.05 -10.0 14.6 -10.0 14.65 -9.95 15.2 -9.95 15.25 -10.0 15.25 -10.05 15.3 -10.05 15.3 -10.1 15.35 -10.1 15.35 -10.15 15.5 -10.3 15.5 -10.35 15.55 -10.35 15.55 -10.45 15.6 -10.45 15.6 -10.5 15.65 -10.55 15.65 -10.6 15.7 -10.65 15.7 -10.7 15.75 -10.7 15.75 -10.75 15.8 -10.75 15.8 -10.8 15.85 -10.8 15.85 -10.85 15.9 -10.9 15.9 -10.95 15.95 -10.95 15.95 -11.05 16.0 -11.05 16.0 -11.1 16.05 -11.1 16.05 -11.15 16.1 -11.15 16.15 -11.2 16.35 -11.2 16.45 -11.1 16.5 -11.1 16.55 -11.05 16.75 -11.05 16.8 -11.0 16.9 -11.0 17.0 -10.95 17.45 -10.95 17.55 -10.9 18.1 -10.9 18.15 -10.95 18.6 -10.95 18.65 -10.9 18.65 -10.85 18.7 -10.85 18.7 -10.8 18.75 -10.8 18.85 -10.7 18.85 -10.55 18.8 -10.5 17.7 -10.5 17.65 -10.45 17.1 -10.45 17.05 -10.5 17.0 -10.5 16.95 -10.55 16.55 -10.55 16.5 -10.6 16.45 -10.6 16.4 -10.65 16.35 -10.6 16.3 -10.6 16.3 -10.5 16.25 -10.5 16.2 -10.45 16.2 -10.35 16.15 -10.3 16.15 -10.2 16.1 -10.15 16.1 -10.1 16.05 -10.05 16.05 -10.0 16.0 -10.0 16.0 -9.9 15.95 -9.85 15.95 -9.8 15.9 -9.75 15.9 -9.7 15.85 -9.65 15.85 -9.6 15.8 -9.55 15.7 -9.55 15.7 -9.5 15.65 -9.5 15.6 -9.45 15.1 -9.45 15.05 -9.4 13.95 -9.4 13.9 -9.45 13.85 -9.4 13.85 -9.35 13.8 -9.35 13.8 -9.3 13.75 -9.3 13.7 -9.25 13.65 -9.25 13.6 -9.2 13.7 -9.1 13.7 -9.0 14.05 -9.0 14.1 -8.95 14.3 -8.95 14.35 -8.9 14.55 -8.9 14.55 -8.85 14.8 -8.85 14.85 -8.8 15.0 -8.8 15.1 -8.75 15.25 -8.75 15.3 -8.7 15.35 -8.7 15.45 -8.6 15.45 -8.05 15.5 -8.0 15.55 -8.0 15.6 -7.95 15.75 -7.95 15.8 -7.9 15.85 -7.9 15.9 -7.85 16.05 -7.85 16.15 -7.8 16.3 -7.8 16.35 -7.75 16.45 -7.75 16.55 -7.65 16.55 -7.6 16.6 -7.6 16.7 -7.5 16.7 -7.45 16.75 -7.45 16.75 -7.4 16.8 -7.35 16.8 -7.3 16.9 -7.2 17.2 -7.2 17.25 -7.15 17.35 -7.15 17.4 -7.1 17.5 -7.1 17.5 -7.05 17.6 -7.05 17.7 -7.0 17.75 -6.95 17.8 -6.95 17.9 -6.85 18.0 -6.8 18.1 -6.8 18.15 -6.75 18.2 -6.75 18.25 -6.7 18.3 -6.7 18.3 -6.65 18.35 -6.65 18.4 -6.6 18.45 -6.6 18.45 -6.55 18.5 -6.55 18.55 -6.5 18.6 -6.5 18.6 -6.45 18.65 -6.45 18.65 -6.35 18.7 -6.3 18.7 -6.2 18.75 -6.15 18.7 -6.1 18.7 -6.05 18.65 -6.05 18.65 -6.0 18.2 -6.0 18.15 -6.05 18.05 -6.05 18.0 -6.1 17.95 -6.1 17.9 -6.15 17.85 -6.15 17.8 -6.2 17.75 -6.2 17.7 -6.25 17.6 -6.25 17.55 -6.3 17.5 -6.3 17.45 -6.35 17.4 -6.35 17.35 -6.4 17.25 -6.4 17.2 -6.45 17.1 -6.45 17.05 -6.5 16.95 -6.55 16.9 -6.55 16.9 -6.6 16.6 -6.6 16.6 -6.65 16.55 -6.65 16.5 -6.7 16.5 -6.75 16.45 -6.75 16.35 -6.85 16.2 -6.85 16.15 -6.9 16.1 -6.9 16.1 -7.0 16.05 -7.05 16.05 -7.1 16.0 -7.1 15.9 -7.2 14.85 -7.2 14.8 -7.25 14.75 -7.25 14.65 -7.35 14.65 -7.4 14.6 -7.45 14.6 -7.65 14.55 -7.65 14.55 -8.25 13.75 -8.25 13.7 -8.3 13.45 -8.3 13.45 -8.25 13.25 -8.25 13.15 -8.15 13.1 -8.15 13.05 -8.1 12.85 -8.1 12.75 -8.0 12.45 -8.0 12.4 -8.05 12.35 -8.05 12.35 -8.1 12.3 -8.15 12.25 -8.15 12.2 -8.2 12.15 -8.2 12.1 -8.25 12.05 -8.25 11.95 -8.35 11.9 -8.35 11.85 -8.4 11.8 -8.4 11.8 -8.45 11.75 -8.45 11.75 -8.5 11.7 -8.5 11.7 -8.6 11.65 -8.6 11.65 -8.7 11.55 -8.7 11.55 -8.6 11.5 -8.6 11.5 -8.55 11.45 -8.55 11.45 -8.5 11.4 -8.45 11.4 -8.4 11.35 -8.4 11.35 -8.35 11.3 -8.35 11.3 -8.3 11.25 -8.3 11.2 -8.25 11.05 -8.25 11.0 -8.3 10.95 -8.3 10.95 -8.35 10.9 -8.35 10.9 -8.4 10.85 -8.4 10.85 -8.5 10.8 -8.5 10.7 -8.6 10.65 -8.6 10.65 -8.65 10.6 -8.65 10.6 -8.7 10.4 -8.9 10.3 -8.9 10.3 -8.95 9.7 -8.95 9.65 -8.9 9.5 -8.9 9.45 -8.95 9.35 -8.95 9.1 -9.2 9.05 -9.2 9.05 -9.25 9.0 -9.25 8.95 -9.3 8.85 -9.3 8.7 -9.45 8.6 -9.45 8.55 -9.5 8.25 -9.5 8.15 -9.6 8.15 -9.8 8.1 -9.8 8.1 -9.85 7.95 -9.85 7.9 -9.9 7.85 -9.9 7.85 -9.95 7.45 -9.95 7.4 -9.9 7.1 -9.9 7.05 -9.95 7.0 -9.95 7.0 -10.0 6.95 -10.0 6.95 -10.05 6.9 -10.1 6.9 -10.25 6.85 -10.25 6.85 -10.35 6.8 -10.4 6.8 -10.5 6.75 -10.5 6.7 -10.55 6.7 -10.6 6.65 -10.6 6.65 -10.65 6.6 -10.65 6.6 -10.75 6.55 -10.75 6.55 -10.8 6.4 -10.95 6.25 -10.95 6.2 -11.0 5.95 -11.0 5.9 -11.05 5.8 -11.05 5.75 -11.1 5.65 -11.1 5.5 -11.25 5.5 -11.35 5.45 -11.4 5.4 -11.4 5.4 -11.45 5.35 -11.45 5.35 -11.55 5.3 -11.55 5.3 -11.95 5.25 -11.95 5.25 -12.1 5.2 -12.15 5.2 -12.2 5.05 -12.35 5.0 -12.35 5.0 -12.45 4.95 -12.45 4.95 -12.5 4.9 -12.5 4.9 -12.55 4.7 -12.75 4.7 -12.8 4.65 -12.8 4.55 -12.9 4.55 -12.95 4.5 -12.95 4.5 -13.0 4.45 -13.0 4.45 -13.55 4.5 -13.55 4.5 -13.65 4.55 -13.65 4.55 -13.75 4.45 -13.85 4.4 -13.85 4.3 -13.95 4.25 -13.95 4.25 -14.0 4.2 -14.0 4.0 -14.2 3.95 -14.2 3.85 -14.3 3.85 -14.35 3.8 -14.35 3.8 -14.5 3.85 -14.55 3.85 -14.65 3.9 -14.65 3.9 -14.8 3.95 -14.8 3.95 -14.9 4.0 -14.95 4.0 -15.0 4.05 -15.0 4.05 -15.05 4.0 -15.05 3.95 -15.1 3.9 -15.1 3.8 -15.2 3.8 -15.25 3.75 -15.3 3.75 -15.45 3.7 -15.5 3.7 -16.0 3.65 -16.0 3.6 -16.05 3.6 -16.1 3.55 -16.1 3.5 -16.15 3.5 -16.2 3.45 -16.2 3.45 -16.25 3.4 -16.25 3.25 -16.4 3.25 -16.45 3.2 -16.45 3.2 -16.5 3.15 -16.5 3.15 -16.9 3.2 -16.9 3.2 -17.05 3.3 -17.15 3.3 -17.2 3.35 -17.2 3.35 -17.25 3.25 -17.35 3.25 -17.4 3.2 -17.4 3.2 -17.45 3.15 -17.45 2.95 -17.65 2.95 -18.15 3.0 -18.15 3.0 -18.25 3.05 -18.3 3.0 -18.3 3.0 -18.35 2.95 -18.35 2.95 -18.55 2.9 -18.6 2.8 -18.6 2.8 -18.65 2.7 -18.65 2.65 -18.7 2.6 -18.7 2.6 -18.75 2.55 -18.75 2.55 -18.8 2.5 -18.8 2.5 -18.85 2.45 -18.9 2.45 -19.1 2.4 -19.15 2.4 -19.2 2.35 -19.2 2.35 -19.3 2.3 -19.3 2.2 -19.35 2.1 -19.35 2.05 -19.4 1.95 -19.4 1.9 -19.45 1.8 -19.45 1.75 -19.5 1.7 -19.5 1.55 -19.65 1.55 -19.75 1.5 -19.75 1.5 -19.8 1.3 -20.0 1.25 -20.0 1.25 -20.05 1.2 -20.05 1.1 -20.15 1.1 -20.2 1.05 -20.2 1.05 -20.3 1.0 -20.35 1.0 -20.5 0.85 -20.5 0.75 -20.6 0.7 -20.6 0.65 -20.65 0.4 -20.65 0.4 -20.7 0.2 -20.7 0.15 -20.75 0.1 -20.75 0.0 -20.8 -0.15 -20.95 -0.15 -21.05 -0.2 -21.05 -0.2 -21.1 -0.4 -21.1 -0.45 -21.15 -0.75 -21.15 -0.85 -21.25 -0.95 -21.25 -1.0 -21.3 -1.05 -21.3 -1.1 -21.35 -1.15 -21.35 -1.15 -21.4 -1.2 -21.4 -1.2 -21.45 -1.25 -21.45 -1.25 -21.5 -1.3 -21.5 -1.3 -21.6 -2.0 -21.6 -2.05 -21.65 -2.1 -21.65 -2.15 -21.7 -2.2 -21.7 -2.3 -21.8 -2.45 -21.8 -2.5 -21.75 -2.55 -21.75 -2.6 -21.7 -2.65 -21.7 -2.7 -21.65 -3.2 -21.65 -3.25 -21.7 -3.35 -21.7 -3.4 -21.75 -3.45 -21.75 -3.5 -21.8 -3.75 -21.8 -3.95 -21.85 -3.95 -21.8 -4.1 -21.8 -4.15 -21.75 -4.2 -21.75 -4.25 -21.7 -4.3 -21.7 -4.35 -21.65 -4.8 -21.65 -4.8 -21.7 -4.95 -21.7 -5.0 -21.75 -5.05 -21.7 -5.05 -21.65 -5.1 -21.6 -5.1 -21.55 -5.15 -21.55 -5.15 -21.5 -5.3 -21.35 -5.3 -21.2 -5.35 -21.2 -5.35 -21.05 -5.4 -21.05 -5.4 -21.0 -5.55 -20.85 -5.6 -20.85 -5.65 -20.8 -5.95 -20.8 -6.0 -20.75 -6.0 -20.7 -6.05 -20.7 -6.05 -20.65 -6.1 -20.65 -6.15 -20.6 -6.2 -20.6 -6.2 -20.5 -6.25 -20.5 -6.25 -20.4 -6.3 -20.4 -6.3 -20.3 -6.35 -20.3 -6.35 -20.25 -6.4 -20.2 -6.55 -20.2 -6.75 -20.15 -6.8 -20.15 -6.8 -20.0 -6.85 -20.0 -6.85 -19.75 -6.9 -19.75 -6.9 -19.6 -6.95 -19.6 -6.95 -19.55 -7.0 -19.5 -7.0 -19.45 -7.05 -19.45 -7.1 -19.4 -7.15 -19.4 -7.15 -19.35 -7.2 -19.35 -7.25 -19.3 -7.3 -19.3 -7.35 -19.25 -7.4 -19.25 -7.45 -19.2 -7.5 -19.2 -7.6 -19.15 -7.65 -19.15 -7.75 -19.1 -7.95 -19.1 -8.0 -19.05 -8.05 -19.05 -8.1 -19.0 -8.15 -19.0 -8.15 -18.8 -8.2 -18.8 -8.2 -18.6 -8.25 -18.6 -8.25 -18.35 -8.3 -18.35 -8.3 -18.3 -8.35 -18.25 -8.45 -18.25 -8.5 -18.2 -9.0 -18.2 -9.0 -18.15 -9.05 -18.15 -9.05 -18.1 -9.2 -18.1 -9.3 -18.0 -9.35 -18.0 -9.4 -17.95 -9.5 -17.95 -9.55 -17.9 -9.55 -17.85 -9.6 -17.85 -9.75 -17.7 -9.85 -17.7 -9.9 -17.65 -10.25 -17.65 -10.25 -17.45 -10.3 -17.4 -10.3 -17.35 -10.35 -17.35 -10.35 -17.3 -10.4 -17.25 -10.45 -17.25 -10.45 -17.2 -11.05 -17.2 -11.1 -17.25 -11.55 -17.25 -11.6 -17.3 -11.65 -17.3 -11.75 -17.4 -11.75 -17.45 -12.15 -17.45 -12.2 -17.5 -12.5 -17.5 -12.55 -17.55 -12.7 -17.55 -12.7 -17.5 -12.75 -17.5 -12.75 -17.45 -12.8 -17.45 -12.85 -17.4 -12.9 -17.4 -12.9 -17.35 -12.95 -17.3 -12.95 -17.2 -13.0 -17.2 -13.0 -17.15 -13.05 -17.15 -13.05 -17.1 -13.1 -17.05 -13.1 -17.0 -13.15 -17.0 -13.35 -16.8 -13.4 -16.8 -13.45 -16.75 -13.5 -16.75 -13.5 -16.7 -13.6 -16.7 -13.65 -16.65 -13.8 -16.65 -13.95 -16.6 -14.05 -16.6 -14.1 -16.55 -14.3 -16.55 -14.35 -16.5 -14.5 -16.5 -14.55 -16.45 -14.6 -16.45 -14.65 -16.4 -14.65 -16.3 -14.7 -16.25 -14.7 -16.2 -14.75 -16.15 -14.75 -16.1 -14.8 -16.05 -14.8 -15.95 -14.85 -15.95 -14.85 -15.9 -14.9 -15.9 -14.9 -15.85 -14.95 -15.85 -14.95 -15.8 -15.0 -15.8 -15.0 -15.75 -15.05 -15.75 -15.1 -15.7 -15.2 -15.7 -15.2 -15.65 -15.3 -15.65 -15.35 -15.6 -15.45 -15.6 -15.5 -15.55 -15.65 -15.55 -15.65 -15.05 -15.7 -15.0 -15.7 -14.95 -15.75 -14.95 -15.75 -14.9 -15.8 -14.9 -15.85 -14.85 -15.9 -14.85 -15.95 -14.8 -16.0 -14.8 -16.05 -14.75 -16.1 -14.75 -16.15 -14.7 -16.25 -14.7 -16.25 -14.65 -16.3 -14.65 -16.3 -14.6 -16.35 -14.6 -16.35 -14.55 -16.4 -14.55 -16.45 -14.5 -16.5 -14.5 -16.5 -14.45 -16.45 -14.45 -16.4 -14.4 -16.4 -14.35 -16.35 -14.35 -16.35 -14.0 -16.4 -13.95 -16.4 -13.9 -16.5 -13.8 -16.7 -13.8 -16.8 -13.9 -16.85 -13.9 -16.85 -13.95 -17.15 -13.95 -17.25 -13.85 -17.25 -13.8 -17.3 -13.8 -17.3 -13.75 -17.35 -13.7 -17.35 -13.65 -17.4 -13.6 -17.4 -13.55 -17.45 -13.55 -17.45 -13.45 -17.5 -13.45 -17.5 -13.4 -17.55 -13.4 -17.55 -13.35 -17.65 -13.35 -17.7 -13.3 -17.75 -13.3 -17.8 -13.35 -17.95 -13.35 -18.0 -13.4 -18.15 -13.4 -18.15 -13.25 -18.2 -13.25 -18.2 -13.15 -18.25 -13.1 -18.25 -13.05 -18.3 -13.05 -18.3 -12.95 -18.35 -12.95 -18.35 -12.9 -18.4 -12.9 -18.4 -12.85 -18.45 -12.8 -18.45 -12.75 -18.5 -12.75 -18.55 -12.7 -19.25 -12.7 -19.3 -12.75 -19.35 -12.75 -19.35 -12.8 -19.4 -12.8 -19.45 -12.85 -19.8 -12.85 -19.85 -12.9 -20.05 -12.9 -20.05 -12.95 -20.25 -12.9 -20.3 -12.85 -20.35 -12.85 -20.35 -12.8 -20.4 -12.8 -20.4 -12.75 -20.45 -12.75 -20.5 -12.7 -20.55 -12.7 -20.6 -12.65 -20.8 -12.65 -20.9 -12.7 -21.55 -12.7 -21.6 -12.65 -21.75 -12.65 -21.8 -12.6 -21.85 -12.6 -21.9 -12.55 -22.1 -12.55 -22.15 -12.6 -22.2 -12.6 -22.3 -12.7 -22.35 -12.7 -22.35 -12.75 -22.55 -12.75 -22.55 -12.65 -22.6 -12.65 -22.6 -12.6 -22.65 -12.6 -22.65 -12.55 -22.95 -12.55 -23.0 -12.6 -23.7 -12.6 -23.8 -12.7 -23.8 -12.75 -23.85 -12.75 -23.85 -12.9 -23.8 -12.9 -23.8 -12.95 -23.75 -13.0 -23.75 -13.1 -23.7 -13.1 -23.65 -13.15 -23.45 -13.15 -23.45 -13.2 -23.35 -13.2 -23.3 -13.25 -23.3 -13.3 -23.25 -13.35 -23.25 -13.55 -23.2 -13.55 -23.2 -13.6 -23.15 -13.6 -23.15 -13.65 -23.1 -13.7 -23.1 -13.75 -23.05 -13.75 -23.05 -13.8 -23.0 -13.8 -22.95 -13.85 -22.75 -13.85 -22.7 -13.8 -22.65 -13.8 -22.65 -13.75 -22.6 -13.75 -22.55 -13.7 -22.55 -13.65 -22.5 -13.65 -22.5 -13.6 -22.45 -13.6 -22.45 -13.55 -22.4 -13.5 -22.3 -13.5 -22.3 -13.55 -22.25 -13.55 -22.25 -13.6 -22.15 -13.6 -22.1 -13.65 -22.05 -13.65 -22.0 -13.7 -21.65 -13.7 -21.5 -13.55 -21.45 -13.55 -21.4 -13.5 -21.3 -13.5 -21.3 -13.45 -21.25 -13.5 -21.2 -13.5 -21.15 -13.55 -21.05 -13.55 -21.05 -13.6 -21.0 -13.6 -20.95 -13.65 -20.9 -13.65 -20.85 -13.7 -20.8 -13.7 -20.75 -13.75 -20.7 -13.75 -20.7 -13.8 -20.65 -13.8 -20.65 -13.85 -20.5 -13.85 -20.5 -13.9 -20.4 -13.9 -20.35 -13.85 -20.25 -13.85 -20.2 -13.8 -19.45 -13.8 -19.4 -13.75 -19.1 -13.75 -19.1 -13.8 -19.15 -13.8 -19.15 -14.1 -19.1 -14.1 -19.1 -14.3 -19.05 -14.3 -19.05 -14.35 -19.0 -14.35 -18.95 -14.4 -18.15 -14.4 -18.1 -14.35 -18.0 -14.35 -17.95 -14.3 -17.9 -14.35 -17.9 -14.4 -17.8 -14.5 -17.75 -14.5 -17.7 -14.55 -17.5 -14.55 -17.5 -14.6 -17.45 -14.6 -17.45 -14.65 -17.4 -14.65 -17.4 -14.7 -17.35 -14.75 -17.35 -14.9 -17.3 -14.9 -17.3 -14.95 -17.25 -15.0 -17.25 -15.05 -17.15 -15.15 -17.15 -15.2 -17.1 -15.2 -17.05 -15.25 -17.0 -15.25 -17.0 -15.3 -16.9 -15.3 -16.8 -15.4 -16.75 -15.4 -16.65 -15.5 -16.65 -15.65 -16.6 -15.65 -16.6 -15.75 -16.55 -15.8 -16.55 -15.85 -16.5 -15.85 -16.5 -15.9 -16.4 -15.9 -16.35 -15.95 -16.3 -15.95 -16.25 -16.0 -16.1 -16.0 -16.05 -16.05 -16.0 -16.05 -15.95 -16.1 -15.9 -16.1 -15.85 -16.15 -15.8 -16.15 -15.8 -16.2 -15.75 -16.2 -15.75 -16.25 -15.7 -16.25 -15.7 -16.3 -15.65 -16.3 -15.65 -16.35 -15.55 -16.45 -15.55 -16.5 -15.5 -16.5 -15.5 -16.55 -15.45 -16.55 -15.45 -16.65 -15.4 -16.65 -15.4 -16.8 -15.3 -16.9 -15.3 -16.95 -15.25 -16.95 -15.25 -17.05 -15.1 -17.2 -15.05 -17.2 -15.0 -17.25 -14.65 -17.25 -14.65 -17.3 -14.6 -17.3 -14.55 -17.35 -14.45 -17.35 -14.4 -17.4 -14.3 -17.4 -14.3 -17.45 -14.25 -17.45 -14.25 -17.5 -14.15 -17.6 -14.15 -17.65 -14.1 -17.65 -14.1 -17.7 -14.05 -17.75 -14.0 -17.75 -14.0 -17.8 -13.85 -17.95 -13.85 -18.05 -13.8 -18.1 -13.8 -18.15 -13.75 -18.15 -13.75 -18.2 -13.7 -18.2 -13.7 -18.25 -13.65 -18.25 -13.65 -18.3 -13.6 -18.3 -13.6 -18.35 -13.55 -18.35 -13.45 -18.45 -13.4 -18.45 -13.35 -18.5 -12.85 -18.5 -12.8 -18.45 -12.7 -18.45 -12.6 -18.4 -12.45 -18.4 -12.4 -18.35 -12.15 -18.35 -12.15 -18.3 -11.85 -18.3 -11.8 -18.25 -11.3 -18.25 -11.25 -18.2 -11.15 -18.2 -11.1 -18.15 -11.05 -18.15 -11.05 -18.1 -11.0 -18.1 -11.0 -18.15 -10.95 -18.15 -10.95 -18.2 -10.9 -18.2 -10.9 -18.25 -10.85 -18.25 -10.75 -18.35 -10.7 -18.35 -10.65 -18.4 -10.6 -18.4 -10.55 -18.45 -10.25 -18.45 -10.2 -18.4 -10.15 -18.4 -10.15 -18.35 -10.1 -18.35 -10.1 -18.3 -9.9 -18.3 -9.85 -18.35 -9.85 -18.5 -9.8 -18.5 -9.8 -18.55 -9.75 -18.6 -9.7 -18.6 -9.7 -18.65 -9.65 -18.65 -9.65 -18.8 -9.6 -18.8 -9.6 -18.85 -9.55 -18.85 -9.5 -18.9 -9.4 -18.9 -9.35 -18.95 -8.95 -18.95 -8.95 -18.9 -8.9 -18.95 -8.9 -19.1 -8.85 -19.1 -8.85 -19.2 -8.8 -19.25 -8.8 -19.4 -8.75 -19.4 -8.75 -19.5 -8.7 -19.5 -8.7 -19.65 -8.55 -19.8 -8.45 -19.8 -8.4 -19.85 -7.95 -19.85 -7.95 -19.9 -7.9 -19.9 -7.9 -19.95 -7.85 -20.0 -7.85 -20.05 -7.8 -20.05 -7.8 -20.2 -7.75 -20.25 -7.75 -20.55 -7.6 -20.7 -7.45 -20.7 -7.45 -20.75 -7.35 -20.75 -7.3 -20.8 -7.25 -20.8 -7.2 -20.85 -7.15 -20.85 -7.1 -20.9 -7.05 -20.9 -7.0 -20.95 -6.95 -20.95 -6.95 -21.0 -6.9 -21.0 -6.75 -21.15 -6.7 -21.15 -6.7 -21.2 -6.6 -21.2 -6.3 -21.5 -6.25 -21.5 -6.2 -21.55 -6.1 -21.55 -6.1 -21.6 -6.05 -21.6 -6.05 -21.7 -6.0 -21.7 -6.0 -21.75 -5.95 -21.8 -5.95 -21.85 -5.9 -21.9 -5.9 -22.0 -5.85 -22.0 -5.8 -22.05 -5.8 -22.1 -5.75 -22.15 -5.75 -22.2 -5.7 -22.2 -5.7 -22.3 -5.65 -22.3 -5.65 -22.35 -5.6 -22.4 -5.6 -22.45 -5.55 -22.45 -5.5 -22.5 -5.4 -22.5 -5.4 -22.55 -5.35 -22.55 -5.3 -22.6 -5.05 -22.6 -5.0 -22.55 -4.95 -22.55 -4.9 -22.5 -4.85 -22.5 -4.8 -22.45 -4.65 -22.45 -4.65 -22.5 -4.55 -22.6 -4.5 -22.6 -4.45 -22.65 -4.4 -22.65 -4.35 -22.7 -4.3 -22.7 -4.3 -22.75 -4.25 -22.75 -4.25 -22.8 -4.2 -22.8 -4.1 -22.9 -3.9 -22.9 -3.8 -22.8 -3.7 -22.8 -3.6 -22.9 -3.15 -22.9 -3.05 -22.8 -2.95 -22.8 -2.85 -22.85 -2.8 -22.9 -2.7 -22.9 -2.6 -22.95 -2.55 -22.95 -2.5 -23.0 -2.45 -23.0 -2.4 -23.05 -2.35 -23.05 -2.3 -23.1 -2.25 -23.1 -2.2 -23.15 -1.8 -23.15 -1.7 -23.05 -1.7 -23.0 -1.65 -22.95 -1.6 -22.95 -1.6 -22.9 -1.55 -22.9 -1.55 -22.85 -1.5 -22.8 -1.5 -22.75 -1.45 -22.75 -1.45 -22.7 -1.4 -22.7 -1.4 -22.65 -1.35 -22.65 -1.3 -22.6 -1.15 -22.6 -1.1 -22.55 -0.95 -22.55 -0.9 -22.5 -0.6 -22.5 -0.55 -22.45 -0.45 -22.45 -0.4 -22.4 -0.35 -22.4 -0.35 -22.35 -0.3 -22.35 -0.3 -22.3 -0.25 -22.25 -0.25 -22.15 -0.1 -22.15 -0.05 -22.1 0.0 -22.1 0.05 -22.05 0.2 -22.05 0.3 -22.0 0.4 -22.0 0.45 -21.95 M3.75 -18.05 L3.75 -18.1 3.7 -18.1 3.7 -17.95 3.75 -18.0 3.75 -18.05 M3.9 -17.45 L3.85 -17.4 3.8 -17.45 3.75 -17.45 3.8 -17.4 3.85 -17.4 3.85 -17.35 3.9 -17.3 3.9 -17.45 M3.8 -17.05 L3.75 -17.0 3.75 -16.95 3.7 -16.95 3.7 -16.85 3.65 -16.85 3.65 -16.75 3.8 -16.6 3.8 -16.65 3.75 -16.7 3.75 -16.9 3.8 -16.9 3.8 -17.05 M9.45 -9.55 L9.4 -9.55 9.45 -9.5 9.45 -9.55 M7.15 -10.9 L7.1 -10.85 7.05 -10.85 7.05 -10.8 7.1 -10.8 7.1 -10.75 7.15 -10.75 7.15 -10.7 7.2 -10.65 7.25 -10.7 7.25 -10.75 7.35 -10.85 7.4 -10.85 7.4 -10.9 7.35 -10.95 7.3 -10.95 7.25 -11.0 7.2 -11.0 7.2 -10.95 7.15 -10.95 7.15 -10.9 M5.9 -12.0 L5.9 -11.8 5.95 -11.75 5.95 -12.0 5.9 -12.0 M15.0 -8.3 L14.95 -8.3 14.95 -7.9 15.0 -7.9 15.0 -8.3 M13.5 -9.65 L13.45 -9.6 13.5 -9.6 13.5 -9.65 M-21.8 -13.2 L-21.85 -13.2 -21.85 -13.15 -21.75 -13.2 -21.8 -13.2 M-1.85 -22.35 L-1.85 -22.4 -1.9 -22.4 -1.9 -22.45 -1.95 -22.45 -1.95 -22.5 -2.0 -22.5 -2.0 -22.55 -2.05 -22.6 -2.15 -22.55 -2.2 -22.55 -2.2 -22.5 -2.35 -22.5 -2.4 -22.45 -2.5 -22.45 -2.55 -22.4 -2.65 -22.4 -2.7 -22.35 -2.75 -22.35 -2.75 -22.3 -2.8 -22.25 -2.9 -22.25 -2.9 -22.2 -3.0 -22.2 -3.05 -22.25 -3.1 -22.25 -3.15 -22.3 -3.2 -22.3 -3.2 -22.35 -3.25 -22.35 -3.3 -22.4 -3.4 -22.4 -3.4 -22.25 -3.25 -22.25 -3.2 -22.2 -2.85 -22.2 -2.8 -22.25 -2.65 -22.25 -2.65 -22.3 -2.5 -22.3 -2.45 -22.35 -2.25 -22.35 -2.2 -22.3 -2.15 -22.3 -2.15 -22.25 -2.05 -22.25 -2.05 -22.2 -2.0 -22.2 -1.9 -22.1 -1.6 -22.1 -1.6 -22.15 -1.65 -22.15 -1.65 -22.2 -1.7 -22.2 -1.85 -22.35 M-0.85 -21.8 L-0.8 -21.75 -0.75 -21.75 -0.7 -21.7 -0.6 -21.7 -0.45 -21.65 -0.4 -21.65 -0.45 -21.7 -0.5 -21.7 -0.55 -21.75 -0.75 -21.75 -0.8 -21.8 -0.85 -21.8 M-0.95 -22.0 L-1.0 -22.0 -0.95 -21.95 -0.95 -22.0 M-16.15 -15.5 L-16.2 -15.5 -16.2 -15.25 -16.25 -15.2 -16.2 -15.2 -16.15 -15.25 -16.15 -15.45 -16.1 -15.5 -16.15 -15.5 M-18.65 -13.75 L-18.65 -13.7 -18.6 -13.7 -18.55 -13.75 -18.5 -13.75 -18.5 -13.85 -18.65 -13.85 -18.65 -13.75 M-16.5 -15.05 L-16.55 -15.05 -16.55 -15.0 -16.6 -15.0 -16.7 -14.9 -16.75 -14.9 -16.8 -14.85 -16.85 -14.85 -16.95 -14.75 -16.95 -14.7 -17.0 -14.65 -17.0 -14.55 -16.9 -14.65 -16.9 -14.7 -16.85 -14.7 -16.8 -14.75 -16.8 -14.8 -16.75 -14.8 -16.75 -14.85 -16.7 -14.85 -16.7 -14.9 -16.65 -14.9 -16.5 -15.05" fill="#8ce6e6" fill-opacity="0.7490196" fill-rule="evenodd" stroke="none"/>
  </g>
</svg>
