<?xml version="1.0" encoding="UTF-8" standalone="no"?>
<svg xmlns:ffdec="https://www.free-decompiler.com/flash" xmlns:xlink="http://www.w3.org/1999/xlink" ffdec:objectType="shape" height="41.15px" width="63.5px" xmlns="http://www.w3.org/2000/svg">
  <g transform="matrix(1.0, 0.0, 0.0, 1.0, 2.25, 21.0)">
    <path d="M8.55 -12.5 Q8.75 -12.9 8.75 -13.2 L10.2 -13.2 10.85 -12.8 Q11.9 -12.8 12.7 -13.65 L13.25 -14.3 Q13.55 -14.6 13.75 -14.6 L13.75 -14.55 Q13.9 -14.75 13.9 -14.85 L13.8 -14.85 13.6 -14.7 13.45 -14.5 13.2 -14.55 13.7 -15.05 13.85 -15.15 Q14.35 -15.5 14.45 -15.5 14.8 -15.4 15.1 -15.2 L15.4 -15.1 Q15.75 -14.95 16.45 -14.4 L16.65 -14.2 16.6 -14.1 Q16.3 -14.4 16.0 -14.6 L15.9 -14.65 Q16.1 -14.4 16.2 -14.15 16.1 -14.15 16.0 -13.95 L15.55 -14.0 Q15.45 -14.05 15.25 -14.3 15.15 -14.45 14.8 -14.45 14.25 -14.45 13.85 -13.9 L13.65 -13.65 13.4 -13.1 Q12.65 -11.8 10.85 -11.8 10.55 -11.8 10.1 -12.05 9.75 -12.25 9.6 -12.4 9.45 -12.35 9.3 -12.15 9.2 -12.0 9.2 -11.8 L9.1 -11.55 Q9.05 -11.4 9.05 -11.2 9.05 -10.95 8.8 -10.3 L8.5 -9.55 Q8.4 -9.25 8.0 -8.75 L7.45 -8.05 Q7.35 -7.95 7.0 -7.95 5.85 -7.95 5.35 -8.3 5.25 -8.35 5.1 -8.55 5.0 -8.7 4.9 -8.75 L3.8 -8.7 Q3.7 -8.5 3.45 -8.2 L1.9 -7.85 Q1.7 -7.7 1.6 -7.4 1.5 -7.1 1.5 -6.8 L1.4 -6.6 Q1.3 -6.5 1.05 -6.5 L1.0 -6.5 Q0.7 -6.5 0.7 -6.55 0.65 -6.85 0.65 -7.45 L0.65 -8.4 Q0.7 -8.9 0.95 -9.25 1.55 -10.2 3.85 -10.2 4.5 -10.2 5.9 -9.65 L6.95 -9.65 Q7.45 -9.85 7.65 -10.4 7.75 -10.7 7.8 -10.95 7.8 -11.2 7.75 -11.4 L8.15 -11.95 8.35 -12.2 8.55 -12.5 M4.3 8.05 Q4.5 7.95 4.7 7.95 L5.05 7.95 5.55 7.7 Q5.4 7.4 5.25 6.9 L5.05 6.05 Q4.75 5.1 3.6 4.65 3.1 4.45 1.4 4.2 0.1 4.0 -0.65 3.45 -1.2 3.0 -1.35 2.6 -1.45 2.35 -1.45 1.8 -1.45 1.2 -1.35 0.85 -1.25 0.15 -0.9 -0.2 L0.0 -1.05 Q0.55 -1.55 0.7 -2.05 0.75 -2.3 0.8 -3.0 0.9 -3.65 1.0 -4.05 1.35 -5.35 2.7 -5.8 L2.95 -5.8 3.35 -5.7 3.4 -5.75 Q3.45 -5.7 3.45 -5.5 L3.25 -5.15 Q3.05 -4.8 3.05 -4.65 L3.0 -4.35 Q2.95 -4.15 2.95 -3.95 2.95 -3.75 3.1 -2.35 L3.3 -0.8 3.25 -0.2 Q3.2 0.1 3.0 0.4 L2.65 0.5 2.35 0.55 Q2.0 0.55 1.95 0.45 1.85 0.3 1.4 0.1 L1.3 0.05 Q1.2 0.05 1.2 0.3 1.2 0.55 1.6 1.15 1.95 1.65 2.2 1.9 2.4 2.05 3.25 2.45 L4.25 2.85 Q6.05 2.7 6.55 3.45 6.85 3.9 6.7 4.8 6.6 5.3 6.9 6.1 L7.4 7.35 7.7 7.3 8.05 7.25 Q8.85 7.25 9.45 7.6 9.75 7.85 10.55 7.4 L12.0 7.4 Q12.65 8.1 13.65 10.6 14.6 12.95 14.6 13.35 L14.5 13.95 Q14.3 14.5 13.8 14.45 13.75 14.7 13.75 15.1 13.75 15.65 14.1 16.0 14.2 16.15 15.3 17.05 15.65 16.95 16.7 17.35 17.45 17.65 17.9 17.9 L18.8 17.95 Q19.25 18.0 19.6 18.1 19.35 18.45 18.85 18.85 18.35 19.25 18.0 19.45 L17.0 19.45 Q16.7 19.35 16.4 19.1 L15.8 18.75 14.9 19.1 Q14.4 19.25 14.25 19.25 L12.45 19.2 Q11.95 18.5 11.8 18.2 11.75 17.95 11.7 17.6 L11.7 17.3 Q11.7 17.1 11.9 16.9 12.05 16.7 12.05 16.55 12.05 16.35 11.9 15.85 11.7 15.35 11.7 15.2 11.7 15.0 11.75 14.8 11.8 14.55 11.95 14.35 12.05 14.15 12.4 13.9 12.75 13.65 12.9 13.45 13.1 13.15 13.1 12.6 13.1 12.45 12.6 11.7 L12.15 11.1 11.6 10.35 Q11.15 9.7 10.95 9.55 L10.75 9.6 9.9 9.7 9.8 9.7 Q9.3 9.7 9.0 9.45 8.35 9.5 7.5 9.95 7.1 10.15 6.8 10.3 6.45 10.45 6.15 10.45 L5.9 10.4 Q5.1 10.35 4.3 9.8 3.55 9.25 3.55 9.0 3.55 8.6 3.85 8.3 4.05 8.1 4.3 8.05 M14.3 -2.6 Q14.75 -3.25 16.55 -3.3 L16.9 -3.25 Q17.05 -3.05 17.05 -2.95 L17.05 -2.8 Q16.45 -2.8 16.2 -2.6 15.85 -2.35 15.5 -2.3 L15.4 -2.25 15.4 -2.0 Q15.4 -1.85 15.55 -1.55 15.7 -1.3 15.7 -1.1 15.7 -0.95 15.55 -0.4 15.4 0.25 15.4 0.5 15.35 1.1 15.25 1.3 15.05 1.8 14.35 1.9 L14.35 1.3 14.4 0.75 14.4 0.65 14.45 0.3 Q14.45 0.1 14.25 -0.5 14.05 -1.15 14.05 -1.3 L14.05 -1.95 Q14.1 -2.35 14.3 -2.6 M21.95 -5.7 Q21.95 -7.3 22.65 -8.45 23.4 -9.75 24.6 -9.75 25.65 -9.75 26.15 -9.05 26.45 -8.6 26.45 -8.1 L26.55 -8.05 Q26.6 -7.95 26.8 -7.95 27.0 -7.95 27.1 -8.05 L27.2 -8.25 Q27.45 -8.45 28.15 -8.45 L28.4 -8.45 28.7 -8.75 Q28.9 -8.95 28.9 -9.1 L28.55 -10.15 Q28.25 -11.25 28.25 -11.5 28.25 -12.45 29.0 -12.9 29.7 -13.25 30.75 -13.2 31.7 -13.15 32.45 -12.7 33.25 -12.25 33.25 -11.7 L33.2 -11.6 Q33.15 -11.4 32.9 -11.25 32.6 -11.1 32.5 -11.1 L31.75 -11.35 Q31.0 -11.65 30.75 -11.7 30.75 -11.65 30.25 -11.6 29.75 -11.15 29.65 -10.4 L29.7 -9.1 Q29.7 -8.55 28.85 -7.85 27.9 -7.1 26.85 -7.1 26.5 -7.1 25.75 -7.25 L24.95 -7.45 Q24.75 -7.45 24.35 -7.3 23.95 -7.1 23.85 -7.1 23.4 -7.0 23.3 -6.85 23.0 -6.2 22.95 -5.7 22.9 -5.25 23.0 -4.4 L23.05 -3.45 23.05 -3.35 Q23.05 -3.15 22.95 -3.0 22.9 -2.85 22.7 -2.6 22.15 -3.15 22.0 -4.05 21.95 -4.45 21.95 -5.7 M44.75 -18.0 Q44.9 -17.8 44.9 -17.5 44.9 -17.3 44.75 -16.9 44.6 -16.55 44.45 -16.45 L44.3 -16.45 Q43.8 -16.6 43.8 -17.0 43.8 -18.15 44.35 -18.2 44.55 -18.2 44.75 -18.0 M58.2 -17.95 L58.3 -17.95 58.35 -17.85 Q58.4 -17.75 58.4 -17.4 L58.65 -17.4 59.15 -17.45 Q59.35 -17.45 59.5 -17.3 59.85 -17.05 60.0 -16.3 L60.05 -16.2 60.2 -15.0 60.15 -14.85 Q60.05 -14.6 59.45 -14.2 58.7 -13.7 58.2 -13.8 L57.95 -13.55 Q57.85 -13.4 57.85 -13.2 57.85 -12.45 58.2 -11.95 58.25 -11.85 58.65 -11.7 L58.9 -11.6 59.55 -11.3 59.9 -10.95 60.7 -10.25 Q60.9 -10.05 61.0 -9.8 61.1 -9.55 61.1 -9.25 L61.05 -8.7 61.05 -8.15 Q61.05 -8.0 60.85 -7.8 L60.65 -7.55 Q60.3 -7.15 60.3 -7.05 60.3 -6.9 60.45 -6.75 60.65 -6.6 60.65 -6.45 60.65 -6.15 60.6 -5.9 L60.55 -5.7 Q60.35 -5.2 59.85 -5.2 L59.5 -5.25 59.9 -5.6 Q60.25 -5.9 60.25 -6.05 L59.7 -7.4 Q59.7 -7.5 60.0 -7.85 L60.3 -8.2 Q60.3 -8.9 60.0 -9.4 59.45 -10.3 59.3 -10.7 57.95 -10.9 57.8 -11.8 L57.65 -12.45 Q57.55 -12.8 57.55 -13.0 57.55 -13.45 57.65 -13.65 L58.05 -14.35 58.95 -14.5 Q59.3 -15.05 59.3 -16.05 59.3 -16.25 59.05 -16.6 58.85 -16.9 58.85 -16.95 L58.3 -17.05 58.2 -17.1 Q58.15 -17.15 58.15 -17.35 58.15 -17.55 58.15 -17.7 L58.2 -17.95 M48.3 -20.05 Q48.3 -20.2 48.35 -20.25 L48.45 -20.25 Q48.75 -19.55 49.05 -19.05 L49.4 -18.5 Q49.55 -18.1 49.55 -17.1 49.55 -17.05 49.0 -16.1 L48.9 -15.95 Q48.35 -15.1 48.25 -14.95 L47.95 -14.95 47.9 -15.05 Q47.85 -15.15 47.85 -15.35 47.85 -15.6 48.25 -15.95 48.75 -16.3 48.95 -16.8 49.1 -17.25 49.3 -17.4 49.35 -17.45 49.35 -17.8 49.35 -18.25 48.8 -19.0 48.3 -19.7 48.3 -20.0 L48.3 -20.05 M52.5 -13.45 Q52.8 -13.1 52.8 -12.85 52.8 -12.6 52.7 -12.3 52.55 -11.8 52.2 -11.15 51.75 -10.25 51.35 -9.8 L51.15 -9.55 50.9 -9.55 50.3 -9.5 Q50.15 -9.35 49.8 -8.8 L49.4 -8.1 49.2 -8.1 49.4 -8.55 49.55 -8.95 Q49.8 -9.55 50.2 -9.8 L51.0 -9.95 51.45 -10.5 51.8 -11.0 Q51.8 -11.2 51.65 -11.25 51.5 -11.35 51.5 -11.55 51.5 -11.7 51.65 -11.85 51.8 -12.0 51.8 -12.2 L51.65 -12.95 Q51.5 -13.6 51.5 -13.9 51.85 -13.9 52.1 -13.75 L52.45 -13.45 52.5 -13.45 M48.15 -12.4 L47.55 -12.05 Q47.15 -12.4 47.2 -12.55 L47.3 -12.75 Q47.3 -12.95 47.2 -13.05 L47.1 -13.15 Q47.05 -13.25 47.05 -13.35 47.05 -13.6 47.1 -13.8 L47.15 -13.85 Q47.3 -14.15 47.6 -14.2 L47.55 -14.0 Q47.5 -13.85 47.5 -13.65 47.5 -13.5 47.9 -13.15 48.25 -12.75 48.25 -12.7 48.25 -12.45 48.15 -12.4 M49.05 -7.3 Q49.15 -6.9 49.4 -6.45 L49.7 -5.9 49.95 -5.55 Q50.4 -4.95 50.4 -4.1 50.4 -3.45 50.1 -2.8 49.9 -2.4 49.6 -2.1 49.4 -1.85 49.15 -1.7 L48.75 -1.75 48.75 -1.9 Q48.7 -2.0 48.7 -2.25 48.7 -2.55 49.05 -3.1 49.45 -3.6 49.45 -4.05 49.45 -4.25 49.35 -4.65 L49.2 -5.2 Q49.2 -5.45 49.0 -5.7 L48.85 -5.85 Q48.7 -5.95 48.7 -6.15 48.7 -6.35 48.8 -6.75 L48.95 -7.3 49.05 -7.3 M55.95 -3.65 L55.45 -3.7 55.35 -3.7 55.15 -3.2 Q55.0 -2.85 55.05 -2.65 55.05 -2.5 54.95 -2.2 L54.9 -2.0 Q55.0 -1.65 55.4 -0.95 55.95 0.0 55.95 0.7 L55.95 0.85 Q55.85 1.5 54.8 2.75 53.95 3.7 53.3 4.2 L52.45 4.2 52.05 4.25 51.95 4.3 Q51.85 4.35 51.85 4.55 L52.05 4.95 Q52.25 5.25 52.25 5.35 52.25 5.6 52.15 5.85 L52.05 6.1 52.05 6.2 51.8 6.2 51.95 5.95 51.35 5.0 Q51.25 4.75 51.25 4.3 51.25 4.0 51.6 3.75 51.75 3.6 51.95 3.55 51.95 3.45 51.95 3.3 51.95 2.9 52.1 2.8 L52.55 2.8 Q53.5 2.95 54.25 2.3 54.65 1.95 54.8 1.7 L54.9 1.5 54.95 1.35 54.95 0.6 Q54.95 -0.15 54.15 -1.1 L53.6 -1.75 Q53.3 -2.1 53.3 -2.25 53.3 -2.85 54.15 -3.55 54.85 -4.2 55.3 -4.25 L55.65 -4.2 55.8 -3.95 55.85 -3.95 56.05 -3.9 56.2 -3.85 Q56.3 -3.75 56.35 -3.7 56.25 -3.7 56.2 -3.7 L56.05 -3.75 55.9 -3.75 55.95 -3.7 55.95 -3.65 M51.15 8.5 Q50.9 8.8 50.45 9.0 49.85 9.25 48.85 9.3 48.45 9.25 48.05 8.75 L48.0 8.65 Q47.7 8.25 47.7 8.0 L47.7 7.8 47.8 7.7 Q47.85 7.7 48.05 7.7 48.2 7.7 48.85 7.95 L49.55 8.2 50.2 8.2 Q50.5 7.9 51.05 7.5 L51.7 7.1 51.75 7.05 51.7 7.15 Q51.55 7.35 51.4 7.8 51.25 8.3 51.15 8.5 M39.85 2.95 L40.05 2.95 Q40.05 3.05 40.2 3.25 L40.1 3.55 39.95 3.65 39.85 3.7 Q39.6 3.8 39.4 3.8 L39.35 3.75 39.25 3.8 Q39.2 3.9 39.2 4.05 L38.95 4.05 38.9 3.9 39.0 3.6 Q39.05 3.45 39.15 3.45 L39.2 3.45 39.2 3.35 Q39.2 3.15 39.25 3.05 L39.35 2.95 39.4 2.95 Q39.55 2.9 39.85 2.95 M35.3 1.0 Q35.45 1.2 35.5 1.45 L35.5 1.7 35.45 2.2 Q35.45 2.25 36.2 3.15 37.05 4.05 37.45 4.35 L38.15 4.3 38.6 4.3 38.7 4.45 38.0 5.05 37.85 5.2 36.55 5.05 Q35.2 4.85 34.8 4.5 34.55 4.3 34.55 4.0 L34.55 3.35 Q34.55 3.0 34.75 2.2 34.95 1.35 35.2 1.05 L35.3 1.0 M33.9 13.75 L33.85 13.7 Q33.35 13.35 33.35 12.95 L33.35 12.9 Q33.35 12.45 33.55 12.15 33.85 11.7 34.45 12.05 34.65 12.2 34.85 12.8 35.05 13.35 35.6 13.55 L36.7 13.55 37.05 13.3 Q37.35 13.15 37.45 13.1 L37.65 13.15 Q37.75 13.15 37.75 13.4 37.75 13.7 36.95 14.25 36.2 14.8 35.8 14.8 L35.3 14.75 35.1 14.7 34.8 14.45 34.65 14.35 33.9 13.75 M23.95 1.7 Q23.9 2.0 23.95 2.2 L24.05 2.65 24.05 3.45 23.95 3.65 Q23.6 3.6 23.35 3.0 23.2 2.7 23.15 2.5 23.1 2.3 23.1 2.15 23.1 1.95 23.15 1.8 23.2 1.6 23.3 1.45 23.55 1.05 24.15 1.15 24.0 1.4 23.95 1.7 M24.9 4.45 L25.0 4.55 25.0 4.85 24.95 5.25 24.95 5.5 Q24.8 5.4 24.75 5.25 24.7 5.15 24.7 4.85 L24.7 4.6 24.75 4.45 24.9 4.45 M29.85 12.95 Q29.85 12.85 29.8 12.75 L29.95 12.3 30.0 12.05 30.05 11.75 Q30.05 11.5 29.9 11.35 29.6 11.05 28.75 11.0 L28.55 10.95 Q28.45 10.8 28.25 10.55 L28.15 10.4 28.1 10.3 28.0 10.25 Q27.65 10.5 27.35 10.65 L26.7 11.05 26.45 11.2 25.95 11.5 25.8 11.55 24.55 11.65 Q24.05 11.65 23.65 11.2 23.45 11.0 23.35 10.75 23.0 10.15 23.0 9.8 23.0 9.5 23.05 9.2 23.15 8.6 23.4 8.05 23.85 7.1 24.45 6.95 L24.5 7.1 Q24.05 7.6 23.85 8.0 23.7 8.35 23.7 8.8 23.7 9.1 24.1 9.9 24.5 10.75 24.7 10.95 L25.4 10.95 25.95 10.8 26.75 10.65 26.85 10.3 Q27.0 9.95 27.15 9.95 L27.9 10.0 Q27.95 9.4 28.9 9.45 29.95 9.55 30.6 10.35 L31.05 11.6 Q31.3 12.4 31.3 12.45 31.3 12.65 31.2 12.85 L31.35 12.85 31.25 13.05 Q31.1 13.2 30.85 13.3 L30.4 13.25 30.1 13.15 30.05 13.1 29.85 12.95 M30.45 12.4 L30.4 12.05 Q30.35 12.4 30.5 12.55 L30.45 12.4 M18.7 1.2 Q18.75 1.2 18.9 1.2 18.9 1.4 18.95 1.8 L19.0 2.15 19.05 3.0 Q19.05 3.9 18.45 4.6 17.85 5.3 17.85 6.1 L17.8 6.6 17.8 7.1 17.7 7.25 Q17.65 7.3 17.4 7.3 16.9 7.3 16.8 6.65 L16.8 5.95 16.75 5.3 Q16.75 4.95 16.85 4.7 L16.85 4.65 Q16.95 4.4 17.35 4.1 L17.4 4.1 Q17.8 3.8 17.95 3.5 L18.25 2.9 Q18.45 2.55 18.5 2.2 18.45 1.75 18.45 1.55 18.45 1.25 18.7 1.2 M18.85 8.4 L18.45 8.3 18.25 8.15 Q18.15 8.1 18.15 7.95 L18.15 7.6 18.2 7.7 Q18.3 7.65 19.2 7.9 20.05 8.15 20.2 8.1 19.6 8.5 19.4 8.5 L18.9 8.45 18.85 8.4" fill="#ffffff" fill-rule="evenodd" stroke="none"/>
    <path d="M8.15 -11.95 L7.75 -11.4 Q7.8 -11.2 7.8 -10.95 7.75 -10.7 7.65 -10.4 7.45 -9.85 6.95 -9.65 L5.9 -9.65 Q4.5 -10.2 3.85 -10.2 1.55 -10.2 0.95 -9.25 0.7 -8.9 0.65 -8.4 L0.65 -7.45 Q0.65 -6.85 0.7 -6.55 0.7 -6.5 1.0 -6.5 L1.05 -6.5 Q1.3 -6.5 1.4 -6.6 L1.5 -6.8 Q1.5 -7.1 1.6 -7.4 1.7 -7.7 1.9 -7.85 L3.45 -8.2 Q3.7 -8.5 3.8 -8.7 L4.9 -8.75 Q5.0 -8.7 5.1 -8.55 5.25 -8.35 5.35 -8.3 5.85 -7.95 7.0 -7.95 7.35 -7.95 7.45 -8.05 L8.0 -8.75 Q8.4 -9.25 8.5 -9.55 L8.8 -10.3 Q9.05 -10.95 9.05 -11.2 9.05 -11.4 9.1 -11.55 L9.2 -11.8 Q9.2 -12.0 9.3 -12.15 9.45 -12.35 9.6 -12.4 9.75 -12.25 10.1 -12.05 10.55 -11.8 10.85 -11.8 12.65 -11.8 13.4 -13.1 L13.65 -13.65 13.85 -13.9 Q14.25 -14.45 14.8 -14.45 15.15 -14.45 15.25 -14.3 15.45 -14.05 15.55 -14.0 L16.0 -13.95 Q16.1 -14.15 16.2 -14.15 16.1 -14.4 15.9 -14.65 L16.0 -14.6 Q16.3 -14.4 16.6 -14.1 L16.65 -14.2 16.45 -14.4 Q15.75 -14.95 15.4 -15.1 L15.1 -15.2 Q14.8 -15.4 14.45 -15.5 14.35 -15.5 13.85 -15.15 L13.7 -15.05 13.2 -14.55 13.45 -14.5 13.6 -14.7 13.8 -14.85 13.9 -14.85 Q13.9 -14.75 13.75 -14.55 L13.75 -14.6 Q13.55 -14.6 13.25 -14.3 L12.7 -13.65 Q11.9 -12.8 10.85 -12.8 L10.2 -13.2 8.75 -13.2 Q8.75 -12.9 8.55 -12.5 L8.4 -12.35 8.15 -11.95 M4.7 7.95 L4.85 7.7 4.9 7.4 Q4.9 6.95 4.7 6.75 L3.8 5.95 2.2 5.85 Q1.65 5.8 1.15 5.35 L0.9 5.2 0.55 4.95 Q0.3 4.6 -0.05 4.35 L-0.75 3.85 Q-2.25 2.85 -2.25 1.65 L-2.2 0.75 Q-2.1 0.15 -1.85 -0.2 -1.8 -0.3 -1.4 -0.55 -0.95 -0.8 -0.85 -0.95 L-0.4 -1.35 Q-0.15 -1.6 -0.1 -1.8 L0.05 -2.7 Q0.2 -3.3 0.35 -3.7 L0.75 -4.55 Q1.05 -5.35 1.05 -5.5 L0.8 -6.05 Q0.55 -6.6 0.5 -6.85 0.5 -7.05 0.3 -7.5 0.15 -7.9 0.15 -8.15 L0.2 -8.55 0.25 -8.9 Q0.25 -9.1 0.75 -9.9 0.95 -10.2 1.7 -10.6 L4.3 -10.6 5.1 -10.35 Q5.55 -10.2 5.95 -10.2 6.95 -10.2 7.25 -10.5 7.45 -10.7 7.85 -11.85 7.95 -12.25 8.35 -12.75 8.75 -13.3 9.15 -13.6 9.45 -13.6 10.05 -13.45 L10.8 -13.3 Q11.7 -13.3 12.3 -13.75 12.75 -14.05 13.15 -14.75 13.6 -15.45 13.8 -15.6 14.15 -15.9 14.7 -15.7 14.95 -15.5 16.4 -14.6 17.75 -13.7 17.75 -13.15 17.75 -13.0 17.7 -12.95 17.6 -12.85 17.35 -12.8 L16.95 -12.8 Q16.75 -13.0 16.15 -13.05 15.45 -13.1 15.35 -13.25 14.7 -13.15 14.7 -11.95 L14.85 -10.35 Q14.85 -9.95 14.8 -9.9 14.6 -9.65 13.85 -9.5 L13.3 -9.55 12.7 -9.55 Q12.1 -9.6 11.75 -9.9 11.4 -10.1 11.45 -10.3 10.5 -9.7 10.25 -8.75 10.2 -8.45 10.15 -7.95 L10.1 -7.15 Q10.0 -6.75 9.4 -5.6 8.85 -4.55 8.85 -4.05 8.85 -3.85 9.2 -3.4 L9.75 -2.65 Q9.9 -2.45 10.05 -2.3 L10.45 -1.95 Q10.7 -1.75 10.95 -1.65 11.05 -1.6 11.05 -1.4 L11.05 -1.3 11.0 -1.25 Q10.95 -1.2 10.6 -0.85 10.35 -0.55 10.15 -0.55 9.4 -0.55 8.9 -1.05 L8.45 -1.65 Q7.9 -1.8 7.35 -2.0 6.7 -2.25 6.55 -2.35 5.7 -2.2 5.4 -1.6 5.25 -1.3 5.25 -0.7 5.25 -0.05 5.45 0.35 5.7 0.9 6.35 1.35 6.6 1.4 6.85 1.25 7.05 1.1 7.2 1.1 8.0 1.1 8.45 1.85 8.7 2.2 8.95 3.05 9.1 3.5 9.4 4.05 9.5 4.25 9.5 4.55 L9.45 5.0 Q9.45 5.35 9.8 5.6 10.3 6.0 11.45 6.1 L11.95 6.0 12.45 5.95 Q12.9 5.95 13.2 6.4 L13.7 7.05 14.3 7.75 Q14.7 8.25 15.1 8.25 15.55 8.6 15.8 9.0 16.05 9.45 16.05 9.8 16.05 10.4 15.8 10.4 15.5 10.4 15.2 10.0 L14.85 9.55 14.65 9.55 Q14.6 9.55 14.6 9.7 14.6 10.0 15.55 11.85 L16.3 13.15 Q16.35 13.3 16.3 14.05 16.3 14.45 16.35 14.55 16.45 14.7 16.85 14.85 17.4 15.05 17.8 15.3 18.2 15.55 18.45 15.6 L19.45 15.7 Q20.5 15.7 21.05 15.5 L21.55 15.35 Q21.8 15.35 21.95 15.85 21.95 16.55 21.25 17.2 L20.75 17.65 Q20.45 17.9 20.4 18.1 20.3 18.35 19.9 18.75 19.55 19.1 19.3 19.2 L18.5 19.55 Q17.75 19.85 17.6 19.85 L16.9 19.75 16.35 19.65 Q16.2 19.65 15.95 19.8 15.7 19.9 15.2 19.9 14.6 19.9 14.25 20.05 L13.95 20.15 Q12.5 20.15 11.7 19.25 11.2 18.65 11.2 18.1 11.2 17.75 11.35 17.45 11.55 17.15 11.55 16.9 11.55 16.25 11.25 15.9 10.95 15.6 10.95 15.15 10.95 14.85 11.15 14.65 11.25 14.6 11.55 14.45 12.1 14.15 12.1 13.45 L12.1 12.55 Q12.1 12.4 12.2 12.05 L12.25 11.65 Q12.25 11.5 11.55 10.75 10.85 9.9 10.6 9.9 9.15 10.35 8.7 10.3 8.1 10.35 7.7 10.45 7.35 10.6 6.85 10.65 L5.45 10.8 Q4.15 10.8 3.35 9.65 3.1 9.25 2.95 8.85 L2.8 8.45 Q2.8 8.25 3.05 8.05 3.25 7.9 3.55 7.9 L4.0 7.95 4.3 8.05 Q4.05 8.1 3.85 8.3 3.55 8.6 3.55 9.0 3.55 9.25 4.3 9.8 5.1 10.35 5.9 10.4 L6.15 10.45 Q6.45 10.45 6.8 10.3 7.1 10.15 7.5 9.95 8.35 9.5 9.0 9.45 9.3 9.7 9.8 9.7 L9.9 9.7 10.75 9.6 10.95 9.55 Q11.15 9.7 11.6 10.35 L12.15 11.1 12.6 11.7 Q13.1 12.45 13.1 12.6 13.1 13.15 12.9 13.45 12.75 13.65 12.4 13.9 12.05 14.15 11.95 14.35 11.8 14.55 11.75 14.8 11.7 15.0 11.7 15.2 11.7 15.35 11.9 15.85 12.05 16.35 12.05 16.55 12.05 16.7 11.9 16.9 11.7 17.1 11.7 17.3 L11.7 17.6 Q11.75 17.95 11.8 18.2 11.95 18.5 12.45 19.2 L14.25 19.25 Q14.4 19.25 14.9 19.1 L15.8 18.75 16.4 19.1 Q16.7 19.35 17.0 19.45 L18.0 19.45 Q18.35 19.25 18.85 18.85 19.35 18.45 19.6 18.1 19.25 18.0 18.8 17.95 L17.9 17.9 Q17.45 17.65 16.7 17.35 15.65 16.95 15.3 17.05 14.2 16.15 14.1 16.0 13.75 15.65 13.75 15.1 13.75 14.7 13.8 14.45 14.3 14.5 14.5 13.95 L14.6 13.35 Q14.6 12.95 13.65 10.6 12.65 8.1 12.0 7.4 L10.55 7.4 Q9.75 7.85 9.45 7.6 8.85 7.25 8.05 7.25 L7.7 7.3 7.4 7.35 6.9 6.1 Q6.6 5.3 6.7 4.8 6.85 3.9 6.55 3.45 6.05 2.7 4.25 2.85 L3.25 2.45 Q2.4 2.05 2.2 1.9 1.95 1.65 1.6 1.15 1.2 0.55 1.2 0.3 1.2 0.05 1.3 0.05 L1.4 0.1 Q1.85 0.3 1.95 0.45 2.0 0.55 2.35 0.55 L2.65 0.5 3.0 0.4 Q3.2 0.1 3.25 -0.2 L3.3 -0.8 3.1 -2.35 Q2.95 -3.75 2.95 -3.95 2.95 -4.15 3.0 -4.35 L3.05 -4.65 Q3.05 -4.8 3.25 -5.15 L3.45 -5.5 Q3.45 -5.7 3.4 -5.75 L3.35 -5.7 2.95 -5.8 2.7 -5.8 Q1.35 -5.35 1.0 -4.05 0.9 -3.65 0.8 -3.0 0.75 -2.3 0.7 -2.05 0.55 -1.55 0.0 -1.05 L-0.9 -0.2 Q-1.25 0.15 -1.35 0.85 -1.45 1.2 -1.45 1.8 -1.45 2.35 -1.35 2.6 -1.2 3.0 -0.65 3.45 0.1 4.0 1.4 4.2 3.1 4.45 3.6 4.65 4.75 5.1 5.05 6.05 L5.25 6.9 Q5.4 7.4 5.55 7.7 L5.05 7.95 4.7 7.95 M15.7 -4.1 Q16.3 -4.2 16.7 -3.9 17.5 -3.7 17.9 -3.15 18.2 -2.7 18.2 -2.25 18.2 -1.95 18.0 -1.65 17.7 -1.25 17.2 -1.3 16.6 -0.85 16.35 -0.2 16.25 0.1 16.1 1.0 15.95 1.7 15.75 2.1 15.4 2.7 14.65 3.1 L14.25 3.05 14.05 2.9 13.8 2.7 Q13.7 2.65 13.65 2.5 13.6 2.4 13.6 2.25 13.6 1.75 13.9 1.45 14.15 1.15 14.15 0.55 14.15 -0.1 13.85 -0.9 L13.55 -1.7 Q13.55 -1.8 13.7 -1.95 13.85 -2.1 13.85 -2.2 13.85 -2.3 13.65 -2.6 13.45 -2.85 13.45 -3.15 13.45 -3.75 14.7 -3.9 L15.7 -4.1 M21.95 -5.7 Q21.95 -4.45 22.0 -4.05 22.15 -3.15 22.7 -2.6 22.9 -2.85 22.95 -3.0 23.05 -3.15 23.05 -3.35 L23.05 -3.45 23.0 -4.4 Q22.9 -5.25 22.95 -5.7 23.0 -6.2 23.3 -6.85 23.4 -7.0 23.85 -7.1 23.95 -7.1 24.35 -7.3 24.75 -7.45 24.95 -7.45 L25.75 -7.25 Q26.5 -7.1 26.85 -7.1 27.9 -7.1 28.85 -7.85 29.7 -8.55 29.7 -9.1 L29.65 -10.4 Q29.75 -11.15 30.25 -11.6 30.75 -11.65 30.75 -11.7 31.0 -11.65 31.75 -11.35 L32.5 -11.1 Q32.6 -11.1 32.9 -11.25 33.15 -11.4 33.2 -11.6 L33.25 -11.7 Q33.25 -12.25 32.45 -12.7 31.7 -13.15 30.75 -13.2 29.7 -13.25 29.0 -12.9 28.25 -12.45 28.25 -11.5 28.25 -11.25 28.55 -10.15 L28.9 -9.1 Q28.9 -8.95 28.7 -8.75 L28.4 -8.45 28.15 -8.45 Q27.45 -8.45 27.2 -8.25 L27.1 -8.05 Q27.0 -7.95 26.8 -7.95 26.6 -7.95 26.55 -8.05 L26.45 -8.1 Q26.45 -8.6 26.15 -9.05 25.65 -9.75 24.6 -9.75 23.4 -9.75 22.65 -8.45 21.95 -7.3 21.95 -5.7 M14.3 -2.6 Q14.1 -2.35 14.05 -1.95 L14.05 -1.3 Q14.05 -1.15 14.25 -0.5 14.45 0.1 14.45 0.3 L14.4 0.65 14.4 0.75 14.35 1.3 14.35 1.9 Q15.05 1.8 15.25 1.3 15.35 1.1 15.4 0.5 15.4 0.25 15.55 -0.4 15.7 -0.95 15.7 -1.1 15.7 -1.3 15.55 -1.55 15.4 -1.85 15.4 -2.0 L15.4 -2.25 15.5 -2.3 Q15.85 -2.35 16.2 -2.6 16.45 -2.8 17.05 -2.8 L17.05 -2.95 Q17.05 -3.05 16.9 -3.25 L16.55 -3.3 Q14.75 -3.25 14.3 -2.6 M21.3 -4.5 Q21.3 -7.15 22.15 -8.5 23.15 -10.1 25.25 -10.1 26.2 -10.1 26.85 -8.6 L27.35 -8.55 Q27.65 -8.7 27.95 -9.2 28.25 -9.65 28.25 -9.85 L28.1 -11.1 Q27.95 -12.1 27.95 -12.3 27.95 -12.6 28.2 -12.95 28.55 -13.35 29.1 -13.6 30.5 -14.15 32.6 -13.0 33.2 -12.2 34.25 -11.65 34.55 -11.5 34.65 -11.3 34.8 -11.0 34.8 -10.45 34.8 -10.3 34.5 -10.0 34.15 -9.7 33.85 -9.6 33.35 -9.75 32.85 -10.0 L32.35 -10.25 Q32.1 -10.25 31.65 -9.7 31.25 -9.3 31.2 -9.1 L31.0 -8.45 Q30.85 -8.1 30.6 -7.85 30.25 -7.45 30.0 -7.0 29.75 -6.6 29.6 -6.5 29.25 -6.2 26.75 -6.2 25.95 -6.2 25.15 -5.5 24.45 -4.9 24.35 -4.55 24.3 -4.25 24.35 -3.65 L24.35 -2.5 Q24.2 -2.2 23.7 -2.05 22.25 -2.55 21.7 -3.3 21.3 -3.8 21.3 -4.5 M44.8 -18.2 Q44.95 -17.8 44.95 -16.85 44.95 -16.65 44.6 -16.2 44.2 -15.65 43.8 -15.7 L43.65 -15.7 Q43.45 -16.25 43.45 -16.75 L43.45 -17.8 43.35 -18.25 Q43.2 -18.6 43.2 -18.7 43.2 -19.05 43.45 -19.2 44.45 -19.05 44.8 -18.2 M58.2 -17.95 L58.15 -17.7 Q58.15 -17.55 58.15 -17.35 58.15 -17.15 58.2 -17.1 L58.3 -17.05 58.85 -16.95 Q58.85 -16.9 59.05 -16.6 59.3 -16.25 59.3 -16.05 59.3 -15.05 58.95 -14.5 L58.05 -14.35 57.65 -13.65 Q57.55 -13.45 57.55 -13.0 57.55 -12.8 57.65 -12.45 L57.8 -11.8 Q57.95 -10.9 59.3 -10.7 59.45 -10.3 60.0 -9.4 60.3 -8.9 60.3 -8.2 L60.0 -7.85 Q59.7 -7.5 59.7 -7.4 L60.25 -6.05 Q60.25 -5.9 59.9 -5.6 L59.5 -5.25 59.85 -5.2 Q60.35 -5.2 60.55 -5.7 L60.6 -5.9 Q60.65 -6.15 60.65 -6.45 60.65 -6.6 60.45 -6.75 60.3 -6.9 60.3 -7.05 60.3 -7.15 60.65 -7.55 L60.85 -7.8 Q61.05 -8.0 61.05 -8.15 L61.05 -8.7 61.1 -9.25 Q61.1 -9.55 61.0 -9.8 60.9 -10.05 60.7 -10.25 L59.9 -10.95 59.55 -11.3 58.9 -11.6 58.65 -11.7 Q58.25 -11.85 58.2 -11.95 57.85 -12.45 57.85 -13.2 57.85 -13.4 57.95 -13.55 L58.2 -13.8 Q58.7 -13.7 59.45 -14.2 60.05 -14.6 60.15 -14.85 L60.2 -15.0 60.05 -16.2 60.0 -16.3 Q59.85 -17.05 59.5 -17.3 59.35 -17.45 59.15 -17.45 L58.65 -17.4 58.4 -17.4 Q58.4 -17.75 58.35 -17.85 L58.3 -17.95 58.2 -17.95 M44.75 -18.0 Q44.55 -18.2 44.35 -18.2 43.8 -18.15 43.8 -17.0 43.8 -16.6 44.3 -16.45 L44.45 -16.45 Q44.6 -16.55 44.75 -16.9 44.9 -17.3 44.9 -17.5 44.9 -17.8 44.75 -18.0 M58.7 -17.9 L59.35 -17.75 Q59.4 -17.6 59.65 -17.45 L59.9 -17.15 60.1 -16.55 60.25 -16.0 Q60.35 -15.55 60.35 -15.3 60.35 -14.3 59.4 -13.85 L58.7 -13.55 Q58.4 -13.3 58.4 -12.95 58.4 -12.35 59.0 -11.8 59.35 -11.45 59.8 -11.25 60.7 -11.2 61.05 -10.5 61.25 -10.15 61.25 -9.55 61.2 -8.75 61.2 -8.4 61.2 -7.9 60.95 -7.6 60.75 -7.3 60.75 -7.2 60.75 -7.05 60.85 -6.85 61.0 -6.6 61.0 -6.55 61.0 -5.95 60.5 -5.45 60.15 -5.1 59.15 -4.5 L58.25 -4.55 58.15 -4.65 Q58.15 -4.7 58.15 -4.85 58.15 -4.95 58.35 -5.25 L58.75 -5.9 Q59.4 -6.9 59.4 -7.9 59.4 -8.45 59.25 -8.8 L59.1 -9.25 58.9 -9.75 Q58.05 -9.65 57.6 -10.35 57.35 -10.8 57.35 -11.3 57.35 -11.55 57.05 -12.1 56.75 -12.7 56.75 -13.15 56.75 -13.3 56.85 -13.8 56.95 -14.25 57.0 -14.3 57.3 -14.95 57.5 -15.0 L58.2 -14.95 Q58.4 -14.95 58.5 -15.4 L58.55 -15.85 Q58.55 -16.05 58.2 -16.6 57.9 -17.2 57.9 -18.1 L57.9 -18.15 57.75 -18.1 57.65 -18.15 57.6 -18.15 Q57.55 -18.2 57.55 -18.3 57.55 -18.6 57.9 -18.6 58.2 -18.6 58.25 -18.35 58.4 -17.95 58.7 -17.9 M48.3 -20.05 L48.3 -20.0 Q48.3 -19.7 48.8 -19.0 49.35 -18.25 49.35 -17.8 49.35 -17.45 49.3 -17.4 49.1 -17.25 48.95 -16.8 48.75 -16.3 48.25 -15.95 47.85 -15.6 47.85 -15.35 47.85 -15.15 47.9 -15.05 L47.95 -14.95 48.25 -14.95 Q48.35 -15.1 48.9 -15.95 L49.0 -16.1 Q49.55 -17.05 49.55 -17.1 49.55 -18.1 49.4 -18.5 L49.05 -19.05 Q48.75 -19.55 48.45 -20.25 L48.35 -20.25 Q48.3 -20.2 48.3 -20.05 M47.3 -20.55 Q47.3 -21.15 47.7 -21.0 48.05 -20.85 48.55 -20.2 49.05 -19.55 49.4 -18.85 49.75 -18.1 49.75 -17.65 49.75 -16.5 48.85 -15.25 L48.2 -14.45 Q47.9 -14.1 47.9 -13.9 47.9 -13.6 48.3 -13.3 48.7 -13.0 48.7 -12.7 48.1 -11.6 47.35 -11.6 L46.85 -11.6 46.55 -11.9 Q46.45 -12.0 46.45 -12.05 46.45 -12.3 46.7 -12.5 46.9 -12.7 46.9 -12.95 46.9 -13.6 46.6 -14.2 46.35 -14.8 46.35 -15.45 46.35 -15.7 46.35 -15.75 46.4 -15.9 46.65 -16.15 L46.8 -15.95 47.0 -15.7 Q47.15 -15.8 47.55 -16.4 48.0 -17.1 48.0 -17.25 L47.95 -17.95 Q47.9 -18.65 47.9 -18.95 47.85 -19.55 47.6 -19.85 47.3 -20.15 47.3 -20.55 M50.9 -9.55 L50.75 -9.45 50.4 -9.25 Q50.1 -9.1 50.0 -9.0 49.8 -8.75 49.6 -8.4 49.4 -8.0 49.4 -7.85 49.4 -6.6 50.1 -5.85 50.45 -5.45 50.55 -5.25 50.75 -4.85 50.75 -4.2 L50.75 -3.45 Q50.7 -2.95 50.35 -2.65 L49.7 -1.95 49.4 -1.65 49.15 -1.45 Q49.0 -1.25 48.85 -1.25 L48.85 -1.2 48.5 -1.2 47.85 -1.35 47.75 -1.5 Q47.65 -1.6 47.65 -1.65 47.65 -1.95 47.9 -2.2 L48.55 -2.75 Q48.65 -2.8 48.8 -3.85 48.8 -4.75 48.35 -5.3 47.9 -5.9 47.9 -6.35 47.9 -6.8 48.05 -7.25 L48.4 -8.15 48.6 -9.05 Q48.65 -9.3 48.65 -9.55 L48.6 -9.9 Q48.6 -10.1 48.8 -10.25 49.05 -10.5 49.6 -10.35 49.7 -10.45 50.3 -11.2 50.85 -12.0 50.85 -12.2 50.85 -12.4 50.75 -12.75 50.65 -13.15 50.65 -13.35 50.65 -13.4 50.75 -13.7 L50.8 -14.1 Q50.8 -14.2 50.45 -15.1 L50.5 -15.2 50.65 -15.25 51.0 -15.25 Q51.15 -15.1 51.8 -14.5 52.35 -14.0 52.4 -13.75 L52.5 -13.45 52.45 -13.45 52.1 -13.75 Q51.85 -13.9 51.5 -13.9 51.5 -13.6 51.65 -12.95 L51.8 -12.2 Q51.8 -12.0 51.65 -11.85 51.5 -11.7 51.5 -11.55 51.5 -11.35 51.65 -11.25 51.8 -11.2 51.8 -11.0 L51.45 -10.5 51.0 -9.95 50.2 -9.8 Q49.8 -9.55 49.55 -8.95 L49.4 -8.55 49.2 -8.1 49.4 -8.1 49.8 -8.8 Q50.15 -9.35 50.3 -9.5 L50.9 -9.55 M52.7 -12.3 L52.7 -12.25 Q52.7 -11.9 52.25 -10.9 51.85 -10.0 51.7 -9.9 51.6 -9.8 51.4 -9.8 L51.35 -9.8 Q51.75 -10.25 52.2 -11.15 52.55 -11.8 52.7 -12.3 M56.2 -3.85 L56.05 -3.9 55.85 -3.95 55.8 -3.95 55.65 -4.2 55.3 -4.25 Q54.85 -4.2 54.15 -3.55 53.3 -2.85 53.3 -2.25 53.3 -2.1 53.6 -1.75 L54.15 -1.1 Q54.95 -0.15 54.95 0.6 L54.95 1.35 54.9 1.5 54.8 1.7 Q54.65 1.95 54.25 2.3 53.5 2.95 52.55 2.8 L52.1 2.8 Q51.95 2.9 51.95 3.3 51.95 3.45 51.95 3.55 51.75 3.6 51.6 3.75 51.25 4.0 51.25 4.3 51.25 4.75 51.35 5.0 L51.95 5.95 51.8 6.2 52.05 6.2 52.05 6.1 52.15 5.85 Q52.25 5.6 52.25 5.35 52.25 5.25 52.05 4.95 L51.85 4.55 Q51.85 4.35 51.95 4.3 L52.05 4.25 52.45 4.2 53.3 4.2 Q53.95 3.7 54.8 2.75 55.85 1.5 55.95 0.85 L55.95 0.7 Q55.95 0.0 55.4 -0.95 55.0 -1.65 54.9 -2.0 L54.95 -2.2 Q55.05 -2.5 55.05 -2.65 55.0 -2.85 55.15 -3.2 L55.35 -3.7 55.45 -3.7 55.95 -3.65 Q55.35 -3.15 55.35 -2.6 L55.45 -1.8 Q55.45 -1.7 55.75 -1.35 56.1 -1.0 56.15 -0.9 56.35 -0.45 56.35 0.0 56.35 0.65 56.15 1.05 56.0 1.35 55.4 2.25 54.35 3.75 53.2 4.35 L53.0 4.3 52.8 4.3 Q52.7 4.3 52.5 4.45 L52.4 4.7 52.5 5.05 Q52.65 5.4 52.65 5.45 52.65 5.7 52.4 6.1 52.15 6.4 51.95 6.55 52.05 6.75 52.05 6.95 52.05 8.1 51.25 8.8 50.55 9.45 49.55 9.45 48.6 9.45 47.85 8.95 47.45 8.65 47.2 8.3 L46.8 7.6 Q46.6 7.25 46.6 6.95 46.6 6.7 46.85 6.55 L47.15 6.55 47.4 6.5 Q47.85 6.5 48.6 6.8 49.15 7.0 49.5 7.2 50.4 7.1 50.65 6.55 50.75 6.25 50.75 6.15 50.85 5.95 51.0 5.85 L51.05 5.9 51.05 5.85 50.6 5.3 Q50.05 4.8 49.95 4.65 49.9 4.55 49.9 4.15 49.9 3.8 50.05 3.6 L50.4 3.35 Q50.9 3.05 50.9 2.2 50.9 1.85 51.05 1.6 51.3 1.2 51.85 1.15 52.05 1.35 52.05 1.75 52.05 2.2 52.3 2.4 52.7 2.2 53.15 1.1 53.65 -0.05 53.65 -0.25 L53.35 -1.05 Q53.35 -1.45 53.15 -1.55 52.95 -1.6 52.9 -1.7 52.8 -1.75 52.6 -2.3 52.4 -2.9 52.4 -3.1 52.4 -3.4 52.55 -3.7 52.85 -4.2 53.4 -4.25 53.65 -4.3 54.25 -4.45 L54.9 -4.7 Q56.0 -4.7 56.4 -4.55 56.7 -4.45 56.7 -4.25 L56.2 -3.85 M49.05 -7.3 L48.95 -7.3 48.8 -6.75 Q48.7 -6.35 48.7 -6.15 48.7 -5.95 48.85 -5.85 L49.0 -5.7 Q49.2 -5.45 49.2 -5.2 L49.35 -4.65 Q49.45 -4.25 49.45 -4.05 49.45 -3.6 49.05 -3.1 48.7 -2.55 48.7 -2.25 48.7 -2.0 48.75 -1.9 L48.75 -1.75 49.15 -1.7 Q49.4 -1.85 49.6 -2.1 49.9 -2.4 50.1 -2.8 50.4 -3.45 50.4 -4.1 50.4 -4.95 49.95 -5.55 L49.7 -5.9 49.4 -6.45 Q49.15 -6.9 49.05 -7.3 M48.15 -12.4 Q48.25 -12.45 48.25 -12.7 48.25 -12.75 47.9 -13.15 47.5 -13.5 47.5 -13.65 47.5 -13.85 47.55 -14.0 L47.6 -14.2 Q47.3 -14.15 47.15 -13.85 L47.1 -13.8 Q47.05 -13.6 47.05 -13.35 47.05 -13.25 47.1 -13.15 L47.2 -13.05 Q47.3 -12.95 47.3 -12.75 L47.2 -12.55 Q47.15 -12.4 47.55 -12.05 L48.15 -12.4 M55.95 -3.65 L55.95 -3.7 55.9 -3.75 56.05 -3.75 55.95 -3.65 M51.15 8.5 Q51.25 8.3 51.4 7.8 51.55 7.35 51.7 7.15 L51.75 7.05 51.7 7.1 51.05 7.5 Q50.5 7.9 50.2 8.2 L49.55 8.2 48.85 7.95 Q48.2 7.7 48.05 7.7 47.85 7.7 47.8 7.7 L47.7 7.8 47.7 8.0 Q47.7 8.25 48.0 8.65 L48.05 8.75 Q48.45 9.25 48.85 9.3 49.85 9.25 50.45 9.0 50.9 8.8 51.15 8.5 M38.4 3.45 L38.9 2.95 Q39.25 2.6 39.5 2.55 L39.95 2.55 Q40.35 2.85 40.35 3.3 40.35 3.7 40.1 3.95 39.75 4.25 39.45 4.55 L39.15 4.9 38.8 5.2 Q38.4 5.5 37.75 5.45 L37.15 5.3 36.5 5.4 35.9 5.45 Q34.9 5.45 34.3 4.65 33.85 3.95 33.85 3.15 35.1 -0.55 35.45 0.4 35.5 0.5 35.5 0.7 L35.7 0.95 36.2 1.75 Q36.95 3.0 38.0 3.5 L38.4 3.45 M39.4 2.95 L39.35 2.95 39.25 3.05 Q39.2 3.15 39.2 3.35 L39.2 3.45 39.15 3.45 Q39.05 3.45 39.0 3.6 L38.9 3.9 38.95 4.05 39.2 4.05 Q39.2 3.9 39.25 3.8 L39.35 3.75 39.4 3.8 Q39.6 3.8 39.85 3.7 L39.95 3.65 40.1 3.55 40.2 3.25 Q40.05 3.05 40.05 2.95 L39.85 2.95 39.8 2.85 Q39.6 2.9 39.4 2.95 M35.3 1.0 L35.2 1.05 Q34.95 1.35 34.75 2.2 34.55 3.0 34.55 3.35 L34.55 4.0 Q34.55 4.3 34.8 4.5 35.2 4.85 36.55 5.05 L37.85 5.2 38.0 5.05 38.7 4.45 38.6 4.3 38.15 4.3 37.45 4.35 Q37.05 4.05 36.2 3.15 35.45 2.25 35.45 2.2 L35.5 1.7 35.5 1.45 Q35.45 1.2 35.3 1.0 M36.3 12.3 L36.7 12.2 37.0 11.8 Q37.2 11.6 37.5 11.55 38.15 11.6 38.35 12.05 38.4 12.2 38.4 12.7 38.4 13.55 37.8 14.25 37.35 14.85 36.65 15.2 L36.35 15.2 36.05 15.25 35.2 15.2 34.9 14.85 34.7 14.7 34.45 14.65 33.7 14.0 Q33.35 13.65 33.35 13.25 L33.15 12.75 Q33.0 12.25 33.0 12.2 33.0 11.45 34.05 11.45 34.4 11.4 34.6 11.5 L34.9 11.8 Q35.3 12.3 36.3 12.3 M33.9 13.75 L34.65 14.35 34.8 14.45 35.1 14.7 35.3 14.75 35.8 14.8 Q36.2 14.8 36.95 14.25 37.75 13.7 37.75 13.4 37.75 13.15 37.65 13.15 L37.45 13.1 Q37.35 13.15 37.05 13.3 L36.7 13.55 35.6 13.55 Q35.05 13.35 34.85 12.8 34.65 12.2 34.45 12.05 33.85 11.7 33.55 12.15 33.35 12.45 33.35 12.9 L33.35 12.95 Q33.35 13.35 33.85 13.7 L33.9 13.75 M25.2 4.4 Q25.35 4.55 25.35 4.75 L25.25 5.2 Q25.1 5.55 25.0 5.7 L24.75 5.7 Q24.55 5.6 24.55 5.4 24.5 5.35 24.5 5.1 24.5 4.1 24.9 4.15 25.05 4.2 25.2 4.4 M24.9 4.45 L24.75 4.45 24.7 4.6 24.7 4.85 Q24.7 5.15 24.75 5.25 24.8 5.4 24.95 5.5 L24.95 5.25 25.0 4.85 25.0 4.55 24.9 4.45 M26.45 11.2 L25.95 11.75 25.55 11.95 Q25.2 12.15 25.05 12.15 23.6 12.15 23.05 10.9 22.7 10.15 22.7 8.7 22.7 8.3 22.8 8.1 23.0 7.7 23.1 7.25 23.55 7.1 23.95 6.5 24.25 6.0 24.7 5.95 L24.85 6.05 24.95 6.2 25.2 6.2 25.75 6.7 Q25.85 6.85 25.85 7.15 L25.85 7.45 25.55 7.7 25.15 7.7 Q25.0 7.7 24.95 8.05 24.9 8.25 24.9 8.45 L24.9 8.7 Q24.95 8.9 25.1 9.0 L25.7 9.0 Q26.0 8.9 26.45 8.65 L27.2 8.25 28.3 7.95 29.3 7.7 Q29.85 7.7 30.25 8.1 L30.65 8.6 Q31.0 8.8 31.2 9.1 L31.55 9.6 32.0 10.55 Q32.3 11.3 32.3 11.6 L32.25 12.1 32.2 12.55 Q32.2 12.9 31.95 13.25 31.6 13.65 30.95 13.75 30.6 13.8 30.2 13.5 29.8 13.25 29.8 13.1 29.8 13.05 29.85 12.95 L30.05 13.1 30.1 13.15 30.4 13.25 30.85 13.3 Q31.1 13.2 31.25 13.05 L31.35 12.85 31.2 12.85 Q31.3 12.65 31.3 12.45 31.3 12.4 31.05 11.6 L30.6 10.35 Q29.95 9.55 28.9 9.45 27.95 9.4 27.9 10.0 L27.15 9.95 Q27.0 9.95 26.85 10.3 L26.75 10.65 25.95 10.8 25.4 10.95 24.7 10.95 Q24.5 10.75 24.1 9.9 23.7 9.1 23.7 8.8 23.7 8.35 23.85 8.0 24.05 7.6 24.5 7.1 L24.45 6.95 Q23.85 7.1 23.4 8.05 23.15 8.6 23.05 9.2 23.0 9.5 23.0 9.8 23.0 10.15 23.35 10.75 23.45 11.0 23.65 11.2 24.05 11.65 24.55 11.65 L25.8 11.55 25.95 11.5 26.45 11.2 M29.95 12.3 L29.85 11.95 Q29.45 12.05 29.2 11.95 28.95 11.75 28.65 11.3 L28.2 10.6 27.95 10.6 Q27.8 10.6 27.75 10.7 L27.7 10.8 27.15 10.8 Q27.1 10.85 26.95 10.95 26.9 11.0 26.7 11.05 L27.35 10.65 Q27.65 10.5 28.0 10.25 L28.1 10.3 28.15 10.4 28.25 10.55 Q28.45 10.8 28.55 10.95 L28.75 11.0 Q29.6 11.05 29.9 11.35 30.05 11.5 30.05 11.75 L30.0 12.05 29.95 12.3 M30.45 12.4 L30.5 12.55 Q30.35 12.4 30.4 12.05 L30.45 12.4 M19.0 0.95 Q19.0 1.45 19.45 1.95 19.95 2.5 19.95 2.95 19.95 3.3 19.6 3.9 19.2 4.45 19.2 5.35 19.2 5.75 19.4 6.05 19.55 6.4 20.05 6.85 20.25 6.9 20.6 6.75 L20.95 6.65 Q21.6 6.65 21.75 7.0 21.85 7.2 21.8 7.4 L21.7 7.7 21.55 8.0 21.25 8.05 Q20.35 9.0 20.05 9.0 18.95 9.0 18.15 8.4 L17.65 8.0 Q17.35 7.85 17.05 7.85 16.65 7.6 16.3 6.75 15.95 5.95 15.95 5.45 15.95 5.0 16.3 4.7 L16.85 4.2 17.35 3.6 Q17.65 3.2 17.6 2.9 17.55 1.85 17.8 1.05 18.2 0.0 19.0 0.2 L19.1 0.3 19.15 0.45 19.1 0.7 Q19.0 0.85 19.0 0.95 M18.85 8.4 L18.9 8.45 19.4 8.5 Q19.6 8.5 20.2 8.1 20.05 8.15 19.2 7.9 18.3 7.65 18.2 7.7 L18.15 7.6 18.15 7.95 Q18.15 8.1 18.25 8.15 L18.45 8.3 18.85 8.4 M18.7 1.2 Q18.45 1.25 18.45 1.55 18.45 1.75 18.5 2.2 18.45 2.55 18.25 2.9 L17.95 3.5 Q17.8 3.8 17.4 4.1 L17.35 4.1 Q16.95 4.4 16.85 4.65 L16.85 4.7 Q16.75 4.95 16.75 5.3 L16.8 5.95 16.8 6.65 Q16.9 7.3 17.4 7.3 17.65 7.3 17.7 7.25 L17.8 7.1 17.8 6.6 17.85 6.1 Q17.85 5.3 18.45 4.6 19.05 3.9 19.05 3.0 L19.0 2.15 18.95 1.8 Q18.9 1.4 18.9 1.2 18.75 1.2 18.7 1.2" fill="#bffff0" fill-opacity="0.7490196" fill-rule="evenodd" stroke="none"/>
  </g>
</svg>
