<?xml version="1.0" encoding="UTF-8" standalone="no"?>
<svg xmlns:ffdec="https://www.free-decompiler.com/flash" xmlns:xlink="http://www.w3.org/1999/xlink" ffdec:objectType="shape" height="23.55px" width="40.6px" xmlns="http://www.w3.org/2000/svg">
  <g transform="matrix(1.0, 0.0, 0.0, 1.0, 23.6, 25.85)">
    <path d="M7.45 -24.95 L7.55 -24.95 7.55 -25.0 7.65 -25.0 7.7 -25.05 7.75 -25.05 7.75 -25.1 7.8 -25.1 7.9 -25.2 7.95 -25.2 8.0 -25.25 8.05 -25.25 8.05 -25.3 8.1 -25.3 8.3 -25.5 8.3 -25.55 8.35 -25.55 8.4 -25.6 8.45 -25.6 8.45 -25.65 8.5 -25.65 8.5 -25.7 8.6 -25.8 8.65 -25.8 8.65 -25.85 8.75 -25.85 8.75 -25.8 8.7 -25.8 8.7 -25.75 8.5 -25.55 8.5 -25.5 8.45 -25.5 8.4 -25.45 8.4 -25.4 8.35 -25.4 8.2 -25.25 8.2 -25.2 8.15 -25.15 8.1 -25.15 8.1 -25.1 8.05 -25.1 7.95 -25.05 7.9 -25.0 7.85 -25.0 7.8 -24.95 7.75 -24.95 7.75 -24.9 7.7 -24.9 7.65 -24.85 7.6 -24.85 7.55 -24.8 7.5 -24.8 7.55 -24.75 7.55 -24.7 7.6 -24.7 7.65 -24.65 7.7 -24.65 7.7 -24.55 7.75 -24.5 7.75 -24.45 7.8 -24.45 7.8 -24.5 7.85 -24.45 7.95 -24.4 8.0 -24.4 8.0 -24.3 7.95 -24.3 7.95 -24.35 7.9 -24.35 8.15 -24.1 8.2 -24.1 8.3 -24.0 8.35 -24.0 8.4 -23.95 8.4 -23.85 8.35 -23.8 8.35 -23.7 8.3 -23.7 8.3 -23.6 8.25 -23.55 8.25 -23.3 8.2 -23.25 8.2 -23.2 8.15 -23.2 8.15 -23.05 8.1 -23.05 8.1 -22.85 8.15 -22.8 8.15 -22.75 8.2 -22.75 8.2 -22.7 8.25 -22.7 8.25 -22.65 8.3 -22.6 8.3 -22.55 8.35 -22.55 8.35 -22.5 8.4 -22.5 8.4 -22.4 8.45 -22.35 8.45 -22.75 8.4 -22.8 8.4 -22.9 8.45 -22.95 8.45 -23.0 8.5 -23.0 8.5 -23.05 8.55 -23.05 8.55 -23.1 8.6 -23.1 8.6 -23.15 8.65 -23.15 8.65 -23.2 8.7 -23.25 8.7 -23.3 8.75 -23.3 8.75 -23.35 8.85 -23.45 8.85 -23.5 8.9 -23.5 8.9 -23.55 8.95 -23.55 8.95 -23.6 9.0 -23.65 9.0 -23.7 9.1 -23.8 9.1 -24.1 9.15 -24.1 9.2 -24.15 9.3 -24.15 9.35 -24.2 9.45 -24.2 10.05 -24.25 10.15 -24.3 10.25 -24.3 10.25 -24.35 10.3 -24.35 10.4 -24.3 10.4 -24.25 10.3 -24.25 10.25 -24.2 10.15 -24.2 10.15 -24.15 10.0 -24.15 9.45 -24.1 9.35 -24.1 9.35 -24.05 9.25 -24.05 9.2 -24.0 9.2 -23.9 9.15 -23.85 9.15 -23.75 9.1 -23.75 9.1 -23.7 9.05 -23.65 9.05 -23.55 9.0 -23.55 9.0 -23.5 8.95 -23.45 8.95 -23.4 8.9 -23.4 8.9 -23.35 8.8 -23.35 8.8 -23.3 8.75 -23.3 8.75 -23.25 8.7 -23.2 8.7 -23.15 8.65 -23.15 8.65 -23.05 8.6 -23.05 8.5 -22.95 8.5 -22.7 8.55 -22.65 8.55 -22.15 8.6 -22.1 8.6 -21.95 8.55 -21.95 8.5 -21.95 8.5 -21.8 8.45 -21.75 8.45 -21.65 8.4 -21.65 8.4 -21.5 8.35 -21.45 8.35 -21.35 8.3 -21.35 8.3 -21.3 8.35 -21.25 8.35 -21.2 8.4 -21.2 8.4 -20.75 8.35 -20.75 8.35 -20.65 8.3 -20.6 8.3 -20.5 8.25 -20.45 8.25 -20.3 8.2 -20.25 8.3 -20.25 8.35 -20.2 8.4 -20.2 8.45 -20.15 8.55 -20.1 8.65 -20.1 8.7 -20.05 8.75 -20.05 8.8 -20.0 8.9 -20.0 8.9 -19.95 8.95 -19.95 9.0 -19.9 9.0 -19.8 9.05 -19.8 9.05 -19.75 9.1 -19.75 9.1 -19.4 9.15 -19.4 9.15 -19.3 9.25 -19.3 9.35 -19.2 10.05 -19.2 10.1 -19.15 10.25 -19.15 10.3 -19.1 10.5 -19.1 10.5 -19.05 10.6 -19.05 10.65 -19.0 10.8 -19.0 10.85 -18.95 10.9 -18.95 10.95 -18.9 11.0 -18.9 11.0 -18.85 11.05 -18.8 11.05 -18.75 11.1 -18.75 11.1 -18.65 11.15 -18.65 11.15 -18.6 11.25 -18.6 11.3 -18.55 11.3 -18.0 11.35 -18.0 11.35 -18.05 11.65 -18.05 11.9 -18.0 11.9 -17.9 11.15 -17.9 11.15 -18.1 11.2 -18.15 11.2 -18.2 11.25 -18.2 11.25 -18.25 11.2 -18.25 11.2 -18.45 11.1 -18.45 11.05 -18.5 11.05 -18.6 11.0 -18.6 11.0 -18.7 10.8 -18.9 10.6 -18.9 10.55 -18.95 10.5 -18.95 10.45 -19.0 10.25 -19.0 10.25 -19.05 9.4 -19.05 9.35 -19.1 9.25 -19.1 9.1 -19.15 9.05 -19.15 9.05 -19.2 9.0 -19.2 9.0 -19.25 8.95 -19.25 8.95 -19.4 9.0 -19.4 9.0 -19.45 8.95 -19.5 8.95 -19.8 8.9 -19.8 8.9 -19.85 8.85 -19.85 8.75 -19.9 8.7 -19.9 8.65 -19.95 8.6 -19.95 8.5 -20.05 8.4 -20.05 8.35 -20.1 8.3 -20.1 8.1 -20.2 8.1 -20.35 8.15 -20.35 8.15 -20.5 8.2 -20.55 8.2 -20.65 8.25 -20.7 8.25 -20.8 8.3 -20.8 8.3 -21.2 8.25 -21.2 8.25 -21.45 8.3 -21.5 8.3 -21.6 8.35 -21.65 8.35 -21.8 8.4 -21.8 8.4 -21.95 8.45 -21.95 8.45 -22.05 8.5 -22.05 8.5 -22.15 8.45 -22.2 8.45 -22.25 8.4 -22.25 8.4 -22.3 8.35 -22.35 8.35 -22.4 8.3 -22.4 8.3 -22.5 8.25 -22.5 8.25 -22.55 8.15 -22.65 8.15 -22.7 8.1 -22.7 8.1 -22.75 8.05 -22.8 8.05 -23.15 8.1 -23.2 8.1 -23.25 8.15 -23.25 8.15 -23.45 8.2 -23.5 8.2 -23.6 8.25 -23.65 8.25 -23.8 8.3 -23.85 8.3 -23.95 8.25 -23.95 8.2 -24.0 8.15 -24.0 8.15 -24.05 8.1 -24.05 7.85 -24.3 7.85 -24.35 7.8 -24.4 7.7 -24.4 7.65 -24.45 7.65 -24.5 7.5 -24.65 7.45 -24.65 7.45 -24.7 7.35 -24.7 7.35 -24.85 7.4 -24.85 7.4 -24.9 7.45 -24.9 7.45 -24.95 M12.55 -17.15 L12.6 -17.1 12.6 -17.05 12.65 -17.05 12.65 -17.0 12.55 -16.9 12.5 -16.9 12.4 -16.85 12.35 -16.85 12.3 -16.8 12.05 -16.8 12.0 -16.75 11.9 -16.75 11.8 -16.65 11.8 -16.6 11.7 -16.6 11.65 -16.55 11.6 -16.55 11.6 -16.5 11.5 -16.5 11.5 -16.45 11.4 -16.45 11.35 -16.4 11.3 -16.4 11.3 -16.35 11.25 -16.35 11.2 -16.3 11.1 -16.3 11.1 -16.25 11.05 -16.25 11.0 -16.2 11.0 -16.15 10.95 -16.15 10.9 -16.1 10.9 -15.95 9.95 -15.95 9.9 -16.0 9.6 -16.0 9.55 -16.05 9.4 -16.05 9.3 -16.15 9.3 -16.2 9.25 -16.2 9.25 -16.25 9.2 -16.25 9.2 -16.3 9.15 -16.3 9.15 -16.35 9.1 -16.35 9.1 -16.4 9.0 -16.4 8.9 -16.45 8.35 -16.45 8.35 -16.5 8.3 -16.5 8.35 -16.55 9.1 -16.55 9.45 -16.2 9.45 -16.15 9.55 -16.1 9.75 -16.1 9.75 -16.15 9.8 -16.15 9.8 -16.1 9.9 -16.1 9.95 -16.05 10.0 -16.05 10.8 -16.1 10.8 -16.15 10.85 -16.15 10.85 -16.2 10.9 -16.2 10.9 -16.3 11.0 -16.3 11.1 -16.4 11.1 -16.45 11.15 -16.45 11.15 -16.5 11.2 -16.5 11.25 -16.55 11.3 -16.55 11.3 -16.6 11.4 -16.6 11.45 -16.65 11.5 -16.65 11.6 -16.75 11.7 -16.75 11.7 -16.8 11.8 -16.9 11.85 -16.9 11.85 -16.95 12.0 -16.95 12.05 -17.0 12.25 -17.0 12.3 -17.05 12.35 -17.05 12.4 -17.1 12.35 -17.15 12.3 -17.15 12.3 -17.2 12.25 -17.25 12.25 -17.3 12.2 -17.3 12.2 -17.4 12.15 -17.4 12.1 -17.45 12.05 -17.45 11.95 -17.55 11.95 -17.75 12.0 -17.75 11.95 -17.8 11.95 -17.85 11.9 -17.9 11.9 -17.95 11.95 -17.95 11.95 -18.0 12.0 -18.0 12.05 -17.95 12.05 -17.9 12.1 -17.9 12.1 -17.6 12.15 -17.6 12.2 -17.55 12.25 -17.55 12.25 -17.5 12.3 -17.5 12.3 -17.45 12.35 -17.45 12.35 -17.35 12.4 -17.35 12.4 -17.3 12.45 -17.25 12.45 -17.2 12.5 -17.2 12.5 -17.15 12.55 -17.15 M12.45 -12.65 L12.5 -12.7 12.5 -12.75 12.55 -12.8 12.55 -12.85 12.65 -12.85 12.65 -12.75 12.6 -12.7 12.6 -12.65 12.55 -12.6 12.55 -12.5 12.4 -12.35 12.35 -12.35 12.35 -12.3 12.3 -12.3 12.25 -12.25 12.25 -12.2 12.2 -12.15 12.2 -12.05 12.15 -12.0 12.15 -11.8 12.1 -11.8 12.1 -11.75 12.05 -11.7 12.05 -11.5 12.0 -11.5 12.0 -11.4 11.95 -11.4 11.95 -11.3 11.9 -11.25 11.9 -11.2 11.85 -11.2 11.85 -11.15 11.8 -11.15 11.8 -11.1 11.7 -11.0 11.7 -10.8 11.75 -10.8 11.75 -10.7 11.8 -10.65 11.8 -10.5 11.85 -10.5 11.85 -10.2 11.9 -10.15 11.9 -9.8 11.95 -9.75 11.95 -9.65 12.0 -9.6 12.0 -9.55 12.05 -9.55 12.05 -9.5 12.1 -9.5 12.1 -9.45 12.25 -9.3 12.3 -9.3 12.3 -9.25 12.35 -9.25 12.4 -9.2 12.45 -9.2 12.5 -9.15 12.5 -8.95 12.55 -8.9 12.55 -8.85 12.6 -8.8 12.6 -8.75 12.55 -8.7 12.5 -8.75 12.5 -8.8 12.45 -8.8 12.45 -9.05 12.4 -9.05 12.4 -9.1 12.35 -9.15 12.25 -9.2 12.2 -9.25 12.15 -9.25 12.1 -9.3 12.05 -9.3 12.05 -9.35 12.0 -9.4 12.0 -9.45 11.95 -9.5 11.9 -9.5 11.9 -9.6 11.85 -9.6 11.85 -9.9 11.8 -9.95 11.8 -10.15 11.75 -10.2 11.75 -10.55 11.7 -10.6 11.7 -10.65 11.65 -10.7 11.65 -10.75 11.6 -10.8 11.6 -11.05 11.65 -11.05 11.7 -11.1 11.7 -11.15 11.75 -11.15 11.75 -11.2 11.8 -11.25 11.8 -11.3 11.85 -11.3 11.85 -11.4 11.9 -11.4 11.9 -11.5 11.95 -11.55 11.95 -11.6 12.0 -11.65 12.0 -11.8 12.05 -11.85 12.05 -11.95 12.1 -12.0 12.1 -12.2 12.15 -12.25 12.15 -12.3 12.2 -12.3 12.25 -12.35 12.25 -12.4 12.3 -12.4 12.3 -12.45 12.35 -12.45 12.35 -12.5 12.4 -12.5 12.4 -12.55 12.45 -12.55 12.45 -12.65 M13.1 -12.9 L13.15 -12.9 13.15 -12.85 13.3 -12.85 13.4 -12.8 13.5 -12.8 13.55 -12.75 13.65 -12.75 13.75 -12.7 13.8 -12.7 13.85 -12.65 13.9 -12.65 13.95 -12.6 14.05 -12.6 14.05 -12.55 14.35 -12.55 14.4 -12.5 15.25 -12.5 15.25 -12.75 16.5 -12.75 16.7 -12.7 16.75 -12.75 16.8 -12.75 16.85 -12.8 16.95 -12.8 17.0 -12.85 17.0 -12.75 16.9 -12.7 16.85 -12.7 16.8 -12.65 16.5 -12.65 16.45 -12.7 15.35 -12.65 15.35 -12.4 14.45 -12.4 14.45 -12.45 14.3 -12.45 14.0 -12.5 13.95 -12.5 13.85 -12.6 13.8 -12.6 13.75 -12.65 13.6 -12.65 13.5 -12.75 13.3 -12.75 13.25 -12.8 13.15 -12.8 13.15 -12.85 13.05 -12.85 13.05 -12.9 13.05 -12.95 13.1 -12.9 M5.05 -20.0 L5.1 -19.95 5.15 -19.95 5.2 -19.9 5.1 -19.95 5.0 -19.95 5.0 -20.0 4.95 -20.0 4.9 -20.05 4.95 -20.05 4.85 -20.15 4.8 -20.15 4.75 -20.2 4.65 -20.25 4.6 -20.25 4.55 -20.3 4.5 -20.3 4.5 -20.35 4.45 -20.35 4.5 -20.4 4.5 -20.9 4.45 -20.9 4.4 -20.95 4.25 -20.95 4.2 -21.0 4.15 -21.0 4.15 -21.05 4.1 -21.05 4.05 -21.1 3.9 -21.1 3.9 -21.15 3.85 -21.2 3.8 -21.2 3.8 -21.25 3.75 -21.25 3.7 -21.3 3.65 -21.3 3.65 -21.35 3.6 -21.35 3.6 -21.4 3.5 -21.3 3.4 -21.3 3.35 -21.25 3.25 -21.25 3.2 -21.2 3.1 -21.2 3.0 -21.2 2.95 -21.15 2.9 -21.15 2.85 -21.1 2.7 -21.1 2.7 -21.2 2.65 -21.2 2.65 -21.25 2.5 -21.25 2.4 -21.35 2.3 -21.35 2.25 -21.4 2.25 -21.35 2.15 -21.35 2.1 -21.3 2.2 -21.3 2.2 -21.25 2.0 -21.25 2.0 -21.2 1.95 -21.25 1.8 -21.2 1.5 -21.2 1.45 -21.15 1.4 -21.15 1.3 -21.1 1.15 -21.1 1.1 -21.05 0.95 -21.05 0.9 -21.0 0.9 -20.85 0.85 -20.85 0.85 -20.8 0.8 -20.75 0.8 -20.65 0.75 -20.65 0.75 -20.55 0.7 -20.55 0.7 -20.5 0.55 -20.35 0.55 -20.3 0.5 -20.3 0.5 -20.2 0.45 -20.15 0.4 -20.15 0.35 -20.2 0.35 -20.4 0.4 -20.45 0.4 -20.5 0.45 -20.5 0.45 -20.55 0.5 -20.6 0.5 -20.65 0.55 -20.7 0.55 -20.75 0.6 -20.8 0.6 -20.9 0.65 -20.9 0.65 -21.1 0.7 -21.1 0.7 -21.15 0.8 -21.15 0.85 -21.2 0.95 -21.2 1.1 -21.25 1.15 -21.25 1.2 -21.3 1.35 -21.3 1.35 -21.35 1.5 -21.35 1.55 -21.4 1.75 -21.4 1.8 -21.45 1.85 -21.45 1.85 -21.5 1.9 -21.55 1.95 -21.55 1.95 -21.6 2.0 -21.65 2.1 -21.65 2.2 -21.55 2.25 -21.55 2.3 -21.5 2.35 -21.5 2.4 -21.45 2.7 -21.45 2.7 -21.4 2.6 -21.4 2.7 -21.35 2.75 -21.35 2.75 -21.3 2.8 -21.35 2.9 -21.35 3.0 -21.45 3.05 -21.45 3.1 -21.5 3.4 -21.5 3.45 -21.55 3.6 -21.55 3.6 -21.5 3.65 -21.5 3.65 -21.45 3.7 -21.5 3.75 -21.45 3.8 -21.45 3.85 -21.4 3.85 -21.35 3.9 -21.35 3.95 -21.3 4.05 -21.3 4.1 -21.25 4.15 -21.25 4.15 -21.2 4.2 -21.2 4.25 -21.15 4.3 -21.15 4.35 -21.1 4.4 -21.1 4.5 -21.0 4.65 -21.0 4.65 -20.95 4.7 -20.95 4.7 -20.9 4.75 -20.9 4.7 -20.85 4.7 -20.55 4.75 -20.55 4.8 -20.5 4.75 -20.5 4.7 -20.45 4.75 -20.45 4.75 -20.4 4.8 -20.4 4.8 -20.35 4.85 -20.3 4.9 -20.3 4.9 -20.2 4.95 -20.2 4.95 -20.15 5.0 -20.1 5.0 -20.05 5.05 -20.05 5.05 -20.0 M5.85 -19.35 L5.85 -19.3 5.9 -19.3 6.0 -19.25 6.1 -19.15 6.1 -19.1 6.15 -19.1 6.15 -19.05 6.2 -19.05 6.25 -19.0 6.3 -19.0 6.4 -18.9 6.45 -18.9 6.55 -18.8 6.6 -18.8 6.6 -18.75 6.65 -18.75 6.65 -18.7 6.7 -18.7 6.75 -18.65 6.8 -18.65 6.8 -18.6 6.85 -18.6 6.9 -18.55 7.0 -18.55 7.1 -18.45 7.15 -18.45 7.15 -18.4 7.2 -18.4 7.3 -18.3 7.35 -18.3 7.35 -18.25 7.4 -18.25 7.4 -18.05 7.35 -18.05 7.35 -18.0 7.3 -18.0 7.3 -17.95 7.2 -17.85 7.2 -17.75 7.15 -17.7 7.15 -17.65 7.2 -17.6 7.2 -17.55 7.25 -17.55 7.25 -17.5 7.3 -17.5 7.3 -17.45 7.35 -17.45 7.4 -17.4 7.4 -17.35 7.5 -17.25 7.5 -17.2 7.55 -17.15 7.6 -17.15 7.6 -17.1 7.7 -17.0 7.75 -17.0 7.75 -16.9 7.7 -16.85 7.7 -16.8 7.65 -16.8 7.65 -16.7 7.7 -16.7 7.7 -16.6 7.65 -16.6 7.65 -16.45 7.7 -16.45 7.7 -16.35 7.75 -16.35 7.75 -16.3 7.8 -16.3 7.8 -16.25 7.85 -16.2 7.85 -16.15 7.9 -16.15 7.9 -16.1 7.95 -16.1 7.95 -16.05 8.05 -15.95 8.1 -15.95 8.1 -15.9 8.15 -15.9 8.15 -15.85 8.2 -15.8 8.2 -15.65 8.15 -15.65 8.15 -15.6 8.1 -15.55 7.95 -15.55 7.9 -15.5 7.8 -15.5 7.8 -15.45 7.75 -15.45 7.65 -15.4 7.55 -15.4 7.55 -15.35 7.45 -15.35 7.4 -15.3 7.4 -15.25 7.25 -15.1 7.2 -15.1 7.2 -15.0 7.15 -15.0 7.05 -14.9 7.05 -14.85 7.0 -14.8 7.0 -14.75 6.95 -14.75 6.95 -14.7 6.9 -14.65 6.85 -14.65 6.85 -14.5 6.9 -14.45 6.9 -14.35 6.85 -14.3 6.9 -14.25 6.85 -14.2 6.85 -14.15 6.8 -14.15 6.8 -14.1 6.75 -14.1 6.75 -14.05 6.7 -14.05 6.7 -14.0 6.6 -13.9 6.6 -13.85 6.55 -13.85 6.55 -13.8 6.5 -13.75 6.5 -13.7 6.45 -13.7 6.45 -13.65 6.4 -13.6 6.4 -13.55 6.3 -13.45 6.3 -13.4 6.25 -13.4 6.2 -13.35 6.2 -13.3 6.15 -13.3 6.15 -13.25 6.1 -13.2 6.1 -13.15 6.05 -13.1 6.05 -13.05 6.0 -13.05 6.0 -12.9 5.95 -12.85 5.9 -12.85 5.9 -12.8 5.8 -12.7 5.8 -12.65 5.75 -12.6 5.75 -12.55 5.7 -12.5 5.7 -12.45 5.6 -12.35 5.6 -12.3 5.55 -12.25 5.55 -12.2 5.5 -12.2 5.5 -12.15 5.45 -12.15 5.4 -12.1 5.4 -12.05 5.3 -12.05 5.3 -12.0 5.25 -12.0 5.25 -11.85 5.3 -11.8 5.3 -11.75 5.35 -11.75 5.35 -11.7 5.4 -11.7 5.4 -11.65 5.45 -11.65 5.45 -11.6 5.55 -11.5 5.55 -11.45 5.6 -11.45 5.6 -11.35 5.65 -11.35 5.65 -11.3 5.7 -11.3 5.7 -11.25 5.75 -11.2 5.75 -11.1 5.8 -11.05 5.75 -11.05 5.55 -11.25 5.5 -11.25 5.5 -11.35 5.45 -11.35 5.45 -11.4 5.3 -11.55 5.3 -11.6 5.25 -11.6 5.2 -11.65 5.2 -11.7 5.15 -11.75 5.15 -12.15 5.2 -12.15 5.25 -12.2 5.35 -12.2 5.35 -12.25 5.4 -12.25 5.4 -12.3 5.45 -12.3 5.45 -12.35 5.5 -12.35 5.5 -12.4 5.6 -12.5 5.6 -12.6 5.65 -12.6 5.65 -12.65 5.7 -12.7 5.7 -12.75 5.75 -12.75 5.75 -12.8 5.8 -12.85 5.8 -13.1 5.85 -13.1 5.85 -13.2 5.9 -13.2 5.9 -13.25 5.95 -13.3 5.95 -13.35 6.0 -13.35 6.0 -13.4 6.05 -13.45 6.05 -13.5 6.1 -13.5 6.1 -13.6 6.15 -13.6 6.2 -13.65 6.2 -13.7 6.25 -13.7 6.25 -13.8 6.3 -13.8 6.3 -13.85 6.35 -13.85 6.35 -13.9 6.4 -13.95 6.4 -14.05 6.45 -14.05 6.6 -14.2 6.6 -14.25 6.65 -14.25 6.65 -14.3 6.7 -14.3 6.7 -14.35 6.75 -14.35 6.75 -14.55 6.8 -14.6 6.8 -14.65 6.9 -14.75 6.9 -14.8 6.95 -14.85 6.95 -14.9 7.0 -14.9 7.0 -14.95 7.05 -14.95 7.05 -15.0 7.1 -15.0 7.1 -15.05 7.15 -15.05 7.15 -15.1 7.1 -15.15 7.1 -15.2 7.15 -15.2 7.15 -15.25 7.2 -15.25 7.2 -15.3 7.25 -15.3 7.25 -15.35 7.3 -15.35 7.3 -15.4 7.45 -15.55 7.6 -15.55 7.6 -15.6 7.7 -15.6 7.7 -15.65 7.8 -15.65 7.85 -15.7 7.95 -15.7 8.0 -15.75 8.0 -15.8 7.95 -15.8 7.95 -15.85 7.85 -15.85 7.85 -15.95 7.65 -16.15 7.6 -16.15 7.6 -16.2 7.55 -16.2 7.55 -16.25 7.5 -16.25 7.5 -16.35 7.45 -16.4 7.45 -16.45 7.4 -16.5 7.4 -16.6 7.5 -16.7 7.5 -16.85 7.55 -16.85 7.55 -16.9 7.6 -16.95 7.55 -16.95 7.55 -17.0 7.45 -17.1 7.4 -17.1 7.4 -17.15 7.35 -17.15 7.35 -17.2 7.3 -17.25 7.3 -17.3 7.25 -17.3 7.25 -17.35 7.2 -17.4 7.15 -17.4 7.15 -17.45 7.1 -17.45 7.1 -17.5 7.05 -17.55 7.05 -17.6 7.0 -17.55 6.95 -17.6 6.95 -17.85 7.0 -17.85 7.0 -17.9 7.05 -17.9 7.05 -18.0 7.1 -18.0 7.1 -18.05 7.15 -18.05 7.25 -18.15 7.05 -18.35 7.0 -18.35 6.95 -18.4 6.95 -18.45 6.8 -18.45 6.8 -18.5 6.7 -18.6 6.65 -18.6 6.55 -18.7 6.5 -18.7 6.4 -18.8 6.35 -18.8 6.35 -18.85 6.3 -18.85 6.25 -18.9 6.15 -18.9 6.15 -18.95 6.1 -19.0 6.1 -19.05 6.05 -19.05 6.05 -19.1 6.0 -19.1 6.0 -19.15 5.95 -19.15 5.95 -19.2 5.9 -19.2 5.9 -19.25 5.85 -19.25 5.85 -19.3 5.75 -19.3 5.75 -19.35 5.65 -19.35 5.65 -19.4 5.55 -19.5 5.5 -19.5 5.5 -19.55 5.45 -19.55 5.4 -19.6 5.4 -19.65 5.3 -19.65 5.3 -19.7 5.35 -19.7 5.45 -19.6 5.5 -19.6 5.5 -19.55 5.55 -19.55 5.6 -19.5 5.6 -19.45 5.7 -19.45 5.75 -19.4 5.75 -19.35 5.85 -19.35 M8.3 -21.15 L8.3 -21.15 M8.55 -21.0 L8.55 -20.95 8.5 -20.95 8.5 -21.0 8.55 -21.0 M6.2 -10.3 L6.3 -10.3 6.4 -10.2 6.45 -10.2 6.45 -10.15 6.5 -10.15 6.55 -10.1 6.55 -10.05 6.6 -10.05 6.65 -10.0 6.7 -10.0 6.7 -9.95 6.75 -9.95 6.85 -9.85 6.9 -9.85 7.0 -9.75 7.05 -9.75 7.05 -9.7 7.1 -9.7 7.15 -9.65 7.15 -9.5 7.1 -9.45 7.1 -9.3 7.05 -9.3 7.05 -9.25 7.0 -9.25 7.0 -9.05 7.05 -9.05 7.05 -8.9 7.1 -8.85 7.1 -8.8 7.15 -8.8 7.15 -8.75 7.2 -8.7 7.2 -8.6 7.25 -8.55 7.25 -8.5 7.3 -8.5 7.3 -8.4 7.35 -8.4 7.35 -8.25 7.4 -8.25 7.4 -8.2 7.45 -8.2 7.45 -8.1 7.5 -8.1 7.5 -8.0 7.55 -7.95 7.6 -7.95 7.6 -7.9 7.75 -7.75 7.75 -7.7 7.8 -7.7 7.8 -7.6 7.85 -7.6 7.85 -7.5 7.9 -7.5 7.85 -7.45 7.85 -7.4 7.9 -7.4 8.0 -7.3 8.0 -7.1 7.95 -7.1 7.95 -6.6 7.9 -6.55 7.9 -6.3 7.85 -6.3 7.85 -5.95 7.9 -5.95 7.9 -5.5 7.85 -5.5 7.85 -5.9 7.75 -5.9 7.75 -6.1 7.7 -6.15 7.7 -6.65 7.75 -6.65 7.75 -7.2 7.7 -7.2 7.7 -7.25 Q7.65 -7.35 7.6 -7.4 L7.5 -7.55 7.45 -7.65 7.3 -7.8 7.3 -7.95 7.25 -7.95 7.25 -8.15 7.2 -8.15 7.2 -8.25 7.15 -8.3 7.15 -8.35 7.1 -8.4 7.1 -8.5 7.05 -8.5 7.05 -8.6 7.0 -8.65 7.0 -8.7 6.95 -8.7 6.95 -8.75 6.9 -8.8 6.9 -8.9 6.85 -8.95 6.85 -9.05 6.8 -9.1 6.8 -9.55 6.85 -9.55 6.85 -9.6 6.8 -9.6 6.8 -9.65 6.7 -9.75 6.7 -9.8 6.65 -9.8 6.65 -9.85 6.6 -9.85 6.5 -9.95 6.45 -9.95 6.4 -10.0 6.35 -10.0 6.35 -10.15 6.3 -10.15 6.3 -10.2 6.25 -10.25 6.2 -10.25 6.2 -10.3 6.15 -10.3 6.15 -10.4 6.2 -10.4 6.2 -10.3 M6.1 -10.05 L6.05 -10.1 6.15 -10.1 6.15 -10.05 6.1 -10.05 M7.8 -6.4 L7.8 -6.4 M8.8 -4.85 L8.8 -4.8 8.85 -4.8 8.85 -4.75 8.9 -4.75 9.15 -4.5 9.2 -4.5 9.2 -4.35 9.25 -4.35 9.25 -4.3 9.3 -4.25 9.3 -4.2 9.35 -4.2 9.5 -4.05 9.7 -4.05 9.75 -4.0 10.1 -4.0 10.15 -3.95 10.2 -3.95 10.25 -3.9 10.35 -3.9 10.4 -3.85 10.45 -3.85 10.85 -3.9 11.05 -3.9 11.15 -3.95 11.15 -3.85 11.25 -3.9 11.3 -3.9 11.35 -3.85 11.55 -3.85 11.6 -3.8 11.7 -3.8 11.75 -3.75 12.1 -3.75 12.15 -3.8 12.25 -3.8 12.25 -3.85 12.55 -3.85 12.75 -3.9 12.95 -3.9 13.0 -3.95 13.05 -3.95 13.05 -4.3 13.1 -4.35 13.1 -4.55 13.05 -4.55 13.05 -4.6 13.0 -4.6 13.0 -4.65 12.9 -4.7 12.85 -4.7 12.85 -4.75 12.8 -4.75 12.8 -4.8 12.85 -4.85 12.8 -4.85 12.8 -5.1 12.75 -5.1 12.75 -5.7 12.8 -5.75 12.8 -5.85 12.85 -5.85 12.85 -6.75 12.95 -6.75 12.95 -6.3 13.0 -6.25 13.0 -5.7 12.95 -5.7 12.95 -5.6 12.9 -5.6 12.9 -5.2 12.95 -5.2 12.95 -4.95 13.0 -4.95 13.0 -4.9 13.05 -4.9 13.1 -4.85 13.15 -4.85 13.15 -4.8 13.2 -4.8 13.2 -4.75 13.25 -4.7 13.25 -4.65 13.3 -4.65 13.3 -4.6 13.25 -4.6 13.25 -4.15 13.2 -4.1 13.2 -4.0 13.25 -3.95 13.2 -3.95 13.2 -3.85 13.15 -3.85 13.15 -3.8 13.1 -3.8 13.05 -3.75 13.0 -3.75 12.9 -3.7 12.65 -3.7 12.6 -3.65 12.55 -3.65 12.55 -3.6 12.4 -3.6 12.35 -3.55 12.3 -3.55 11.9 -3.5 11.7 -3.5 11.65 -3.55 11.65 -3.6 11.4 -3.6 11.35 -3.65 11.3 -3.65 11.3 -3.6 11.0 -3.6 10.95 -3.55 10.75 -3.55 10.6 -3.6 10.5 -3.6 10.45 -3.65 10.3 -3.65 10.3 -3.6 10.25 -3.7 10.2 -3.7 10.1 -3.75 10.0 -3.75 9.95 -3.8 9.75 -3.8 9.6 -3.85 9.5 -3.85 9.45 -3.9 9.35 -3.9 9.35 -4.0 9.3 -4.0 9.3 -4.05 9.25 -4.05 9.25 -4.1 9.2 -4.1 9.2 -4.15 9.15 -4.15 9.15 -4.2 9.1 -4.2 9.1 -4.25 9.0 -4.35 9.0 -4.4 8.95 -4.4 8.95 -4.45 8.9 -4.45 8.85 -4.5 8.8 -4.5 8.8 -4.55 8.75 -4.55 8.75 -4.6 8.65 -4.7 8.6 -4.7 8.55 -4.75 8.55 -4.8 8.5 -4.85 8.5 -4.9 8.45 -4.9 8.25 -5.1 8.15 -5.15 8.1 -5.15 8.0 -5.25 8.0 -5.3 8.1 -5.3 8.15 -5.25 8.2 -5.25 8.3 -5.2 8.35 -5.2 8.35 -5.15 8.4 -5.15 8.4 -5.1 8.45 -5.05 8.55 -5.05 8.6 -5.0 8.65 -5.0 8.65 -4.95 8.7 -4.9 8.75 -4.9 8.75 -4.85 8.8 -4.85 M12.45 -7.95 L12.5 -8.0 12.5 -8.15 12.55 -8.2 12.55 -8.25 12.6 -8.3 12.6 -8.5 12.65 -8.55 12.65 -8.65 12.6 -8.65 12.55 -8.7 12.6 -8.75 12.6 -8.85 12.65 -8.85 12.65 -8.9 12.75 -8.85 12.75 -8.75 12.8 -8.7 12.75 -8.7 12.75 -8.3 12.8 -8.3 12.8 -8.1 12.7 -8.0 12.7 -7.95 12.65 -7.95 12.65 -7.85 12.6 -7.85 12.6 -7.8 12.45 -7.8 12.45 -7.75 12.4 -7.7 12.4 -6.85 12.45 -6.8 12.45 -6.75 12.5 -6.8 12.55 -6.8 12.6 -6.85 12.65 -6.85 12.7 -6.8 12.7 -6.75 12.6 -6.75 12.55 -6.7 12.5 -6.7 12.45 -6.65 12.3 -6.65 12.3 -6.9 12.25 -6.95 12.25 -7.4 12.2 -7.4 12.2 -7.85 12.25 -7.9 12.3 -7.9 12.4 -7.95 12.45 -7.95 M12.7 -8.35 L12.7 -8.4 12.65 -8.35 12.65 -8.3 12.7 -8.3 12.7 -8.35 M13.1 -7.95 L13.15 -7.95 13.15 -7.8 13.2 -7.75 13.2 -7.65 13.25 -7.65 13.25 -7.55 13.3 -7.5 13.4 -7.5 13.5 -7.45 13.55 -7.45 13.6 -7.4 13.7 -7.4 13.75 -7.35 13.8 -7.35 13.85 -7.3 13.9 -7.3 13.95 -7.25 14.1 -7.25 14.1 -7.2 14.15 -7.2 14.15 -7.15 14.1 -7.1 14.1 -6.65 14.15 -6.6 14.15 -5.7 14.1 -5.7 14.1 -5.45 14.4 -5.45 14.4 -5.5 14.65 -5.5 14.75 -5.4 14.95 -5.4 14.95 -5.3 15.05 -5.3 15.05 -5.25 15.1 -5.25 15.1 -5.2 15.15 -5.2 15.15 -5.1 15.2 -5.05 15.35 -5.0 15.5 -5.0 15.55 -4.95 15.55 -4.9 15.3 -4.9 15.3 -4.95 15.15 -4.95 15.15 -5.0 15.1 -5.05 15.1 -5.15 15.05 -5.2 15.0 -5.2 15.0 -5.25 14.95 -5.25 14.95 -5.3 14.9 -5.3 14.7 -5.35 14.6 -5.35 14.6 -5.4 14.4 -5.4 14.35 -5.35 14.0 -5.35 14.0 -5.65 14.05 -5.7 14.05 -7.15 13.95 -7.2 13.9 -7.2 13.85 -7.25 13.8 -7.25 13.7 -7.3 13.6 -7.3 13.55 -7.35 13.5 -7.35 13.35 -7.4 13.25 -7.4 13.2 -7.45 13.2 -7.55 13.15 -7.55 13.15 -7.65 13.1 -7.7 13.1 -7.95 M10.55 -4.6 L10.55 -4.6 M15.45 -4.8 L15.45 -4.75 15.4 -4.75 15.4 -4.8 15.45 -4.8 M15.4 -4.7 L15.45 -4.7 15.45 -4.65 15.5 -4.65 15.5 -4.6 15.45 -4.6 15.45 -4.5 15.5 -4.5 15.5 -4.3 15.45 -4.3 15.45 -4.2 15.4 -4.2 15.4 -4.05 15.45 -4.05 15.5 -4.0 15.55 -4.0 15.55 -3.95 15.65 -3.85 15.65 -3.8 15.7 -3.8 15.7 -3.75 15.75 -3.75 15.75 -3.7 15.8 -3.7 15.8 -3.6 15.85 -3.6 15.85 -3.5 15.9 -3.45 15.9 -3.4 15.95 -3.4 15.95 -3.35 16.0 -3.35 16.0 -3.3 16.05 -3.3 16.05 -3.25 16.1 -3.25 16.1 -3.2 16.15 -3.2 16.15 -3.15 16.25 -3.05 16.25 -3.0 16.3 -3.0 16.3 -2.95 16.35 -2.95 16.45 -2.85 16.5 -2.85 16.55 -2.8 16.6 -2.8 16.6 -2.75 16.65 -2.75 16.65 -2.7 16.7 -2.7 16.7 -2.65 16.75 -2.6 16.75 -2.55 16.95 -2.35 16.9 -2.3 16.9 -2.4 16.85 -2.4 16.8 -2.45 16.8 -2.5 16.7 -2.5 16.7 -2.55 16.65 -2.55 16.65 -2.6 16.6 -2.6 16.6 -2.65 16.5 -2.75 16.45 -2.75 16.35 -2.85 16.3 -2.85 16.3 -2.9 16.25 -2.9 16.25 -2.95 16.2 -2.95 16.1 -3.05 16.1 -3.1 15.8 -3.4 15.8 -3.45 15.75 -3.5 15.75 -3.55 15.7 -3.6 15.7 -3.65 15.55 -3.8 15.55 -3.85 15.5 -3.85 15.5 -3.9 15.45 -3.9 15.3 -4.05 15.3 -4.2 15.35 -4.2 15.35 -4.3 15.4 -4.35 15.4 -4.6 15.35 -4.6 15.35 -4.65 15.4 -4.7 M-23.1 -14.05 L-22.8 -14.05 -22.75 -14.1 -22.65 -14.1 -22.65 -14.15 -22.55 -14.15 -22.45 -14.25 -22.4 -14.25 -22.3 -14.35 -22.25 -14.35 -22.15 -14.45 -22.1 -14.45 -22.1 -14.5 -22.0 -14.5 -22.0 -14.55 -21.9 -14.55 -21.85 -14.6 -21.85 -14.65 -21.75 -14.65 -21.75 -14.7 -21.5 -14.7 -21.5 -14.65 -21.45 -14.65 -21.45 -14.6 -21.4 -14.55 -21.45 -14.55 -21.45 -14.5 -21.4 -14.45 -21.35 -14.45 -21.25 -14.4 -21.2 -14.35 -21.15 -14.35 -21.15 -14.3 -21.05 -14.3 -21.05 -14.25 -20.9 -14.25 -20.9 -14.3 -20.65 -14.3 -20.6 -14.35 -20.5 -14.35 -20.45 -14.4 -20.4 -14.4 -20.35 -14.45 -20.25 -14.45 -20.25 -14.5 -20.1 -14.5 -19.95 -14.35 -19.95 -14.3 -19.9 -14.3 -19.85 -14.25 -19.8 -14.25 -19.35 -14.2 -19.3 -14.15 -19.25 -14.15 -19.15 -14.1 -19.1 -14.1 -19.1 -14.05 -19.05 -14.05 -19.0 -14.0 -18.9 -14.0 -18.85 -13.95 -18.75 -13.95 -18.7 -13.9 -18.65 -13.9 -18.65 -13.85 -18.45 -13.85 -18.35 -13.75 -18.4 -13.75 -18.4 -13.7 -18.35 -13.7 -18.25 -13.65 -18.15 -13.65 -18.05 -13.55 -18.0 -13.55 -17.95 -13.5 -18.0 -13.5 -18.0 -13.45 -17.9 -13.5 -17.05 -13.5 -17.05 -13.45 -17.0 -13.45 -17.0 -13.4 -16.95 -13.4 -16.9 -13.35 -16.9 -13.25 -16.95 -13.2 -17.05 -13.2 -17.05 -13.0 -17.0 -12.95 -16.95 -12.95 -16.9 -12.9 -16.8 -12.9 -16.75 -12.85 -16.7 -12.85 -16.7 -12.8 -16.6 -12.8 -16.6 -12.75 -16.55 -12.75 -16.55 -12.7 -16.4 -12.7 -16.35 -12.65 -16.25 -12.65 -16.2 -12.6 -16.15 -12.6 -16.05 -12.5 -16.0 -12.5 -15.95 -12.45 -15.9 -12.45 -15.85 -12.4 -15.8 -12.4 -15.8 -12.3 -15.75 -12.3 -15.65 -12.2 -14.75 -12.2 -14.65 -12.15 -13.7 -12.15 -13.7 -12.1 -13.6 -12.1 -13.4 -12.05 -13.0 -12.05 -13.0 -12.25 -12.8 -12.25 -12.7 -12.35 -12.65 -12.35 -12.65 -12.4 -12.6 -12.45 -12.55 -12.45 -12.55 -12.5 -12.5 -12.5 -12.45 -12.55 -12.45 -12.6 -12.3 -12.6 -12.3 -12.65 -12.25 -12.65 -12.25 -12.7 -12.2 -12.7 -12.2 -13.0 -12.15 -13.05 -11.65 -13.05 -11.65 -13.1 -11.45 -13.1 -11.2 -13.15 -11.2 -13.3 -11.15 -13.35 -11.15 -13.55 -11.1 -13.6 -11.1 -13.65 -11.05 -13.65 -11.05 -13.7 -11.0 -13.7 -11.0 -14.4 -10.95 -14.45 -10.95 -14.85 -11.0 -14.85 -11.0 -14.95 -11.05 -15.0 -11.05 -15.2 -10.95 -15.3 -10.95 -15.35 -10.9 -15.35 -10.9 -15.4 -10.85 -15.4 -10.85 -15.45 -10.8 -15.45 -10.8 -15.55 -10.75 -15.55 -10.75 -15.6 -10.65 -15.5 -10.7 -15.5 -10.7 -15.4 -10.75 -15.4 -10.75 -15.35 -10.8 -15.3 -10.8 -15.25 -10.85 -15.25 -10.85 -15.2 -10.9 -15.15 -10.9 -15.0 -10.85 -15.0 -10.85 -14.8 -10.8 -14.75 -10.8 -14.4 -10.85 -14.35 -10.85 -13.7 -10.9 -13.7 -10.9 -13.65 -10.95 -13.6 -10.95 -13.5 -11.0 -13.5 -11.0 -13.05 -11.05 -13.0 -11.05 -12.95 -11.45 -12.95 -11.5 -12.9 -12.05 -12.9 -12.05 -12.7 -12.15 -12.6 -12.15 -12.45 -12.2 -12.45 -12.2 -12.4 -12.3 -12.4 -12.3 -12.35 -12.35 -12.35 -12.35 -12.3 -12.45 -12.3 -12.5 -12.25 -12.55 -12.25 -12.6 -12.2 -12.7 -12.2 -12.7 -12.15 -12.75 -12.15 -12.75 -12.05 -12.8 -12.05 -12.8 -12.0 -12.85 -11.95 -12.85 -11.9 -12.95 -11.8 -13.05 -11.85 -13.4 -11.85 -13.45 -11.9 -13.65 -11.9 -13.7 -11.95 -13.8 -11.95 -13.85 -12.0 -14.75 -12.0 -14.8 -12.05 -15.65 -12.05 -15.65 -12.1 -15.7 -12.1 -15.8 -12.2 -15.85 -12.2 -15.9 -12.25 -15.9 -12.35 -16.0 -12.35 -16.15 -12.5 -16.2 -12.5 -16.25 -12.55 -16.3 -12.55 -16.3 -12.6 -16.55 -12.6 -16.65 -12.7 -16.7 -12.7 -16.75 -12.75 -16.9 -12.75 -16.95 -12.8 -17.1 -12.8 -17.15 -12.85 -17.2 -12.85 -17.2 -13.2 -17.3 -13.2 -17.35 -13.25 -17.5 -13.25 -17.55 -13.3 -17.6 -13.3 -17.6 -13.35 -17.7 -13.35 -17.7 -13.4 -18.1 -13.4 -18.1 -13.45 -18.0 -13.35 -18.1 -13.35 -18.15 -13.4 -18.15 -13.45 -18.25 -13.45 -18.25 -13.5 -18.35 -13.5 -18.4 -13.55 -18.4 -13.6 -18.5 -13.65 -18.55 -13.65 -18.55 -13.7 -18.7 -13.7 -18.8 -13.8 -18.85 -13.8 -18.9 -13.85 -19.0 -13.85 -19.05 -13.9 -19.15 -13.9 -19.15 -13.95 -19.2 -14.0 -19.3 -14.0 -19.35 -14.05 -19.8 -14.05 -19.8 -14.1 -19.95 -14.1 -19.95 -14.15 -20.45 -14.15 -20.5 -14.1 -20.7 -14.1 -20.75 -14.05 -20.95 -14.05 -20.95 -14.1 -21.1 -14.1 -21.15 -14.15 -21.2 -14.15 -21.2 -14.2 -21.25 -14.2 -21.3 -14.25 -21.35 -14.25 -21.35 -14.3 -21.4 -14.3 -21.45 -14.35 -21.5 -14.35 -21.5 -14.4 -21.55 -14.4 -21.65 -14.45 -21.7 -14.4 -21.75 -14.4 -21.75 -14.45 -21.8 -14.5 -21.8 -14.45 -21.85 -14.45 -21.9 -14.4 -21.95 -14.4 -22.0 -14.35 -22.1 -14.35 -22.2 -14.25 -22.25 -14.25 -22.25 -14.2 -22.3 -14.2 -22.3 -14.15 -22.4 -14.15 -22.5 -14.05 -22.6 -14.05 -22.6 -14.0 -22.7 -13.95 -22.75 -13.95 -22.8 -13.9 -23.1 -13.9 -23.1 -13.85 -23.15 -13.8 -23.15 -13.75 -23.2 -13.75 -23.2 -13.7 -23.3 -13.6 -23.35 -13.6 -23.4 -13.55 -23.4 -13.5 -23.45 -13.45 -23.45 -13.3 -23.5 -13.25 -23.5 -13.1 -23.4 -13.1 -23.4 -13.0 -23.45 -12.95 -23.45 -12.9 -23.5 -12.9 -23.55 -12.95 -23.55 -13.05 -23.6 -13.1 -23.6 -13.3 -23.55 -13.3 -23.55 -13.5 -23.5 -13.55 -23.5 -13.6 -23.45 -13.6 -23.45 -13.65 -23.4 -13.65 -23.4 -13.7 -23.35 -13.7 -23.35 -13.75 -23.3 -13.75 -23.3 -13.85 -23.2 -13.95 -23.2 -14.0 -23.15 -14.0 -23.15 -14.05 -23.1 -14.05 M-1.5 -19.7 L-1.5 -19.75 -1.45 -19.8 -1.1 -19.8 -0.9 -19.75 -0.85 -19.75 -0.8 -19.7 -0.8 -19.65 -0.85 -19.65 -0.9 -19.6 -1.15 -19.6 -1.15 -19.55 -1.2 -19.5 -1.35 -19.5 -1.3 -19.45 -1.3 -19.05 -1.25 -19.0 -1.25 -18.75 -1.3 -18.75 -1.3 -18.6 -1.35 -18.6 -1.35 -18.4 -1.45 -18.3 -1.55 -18.3 -1.55 -18.25 -1.6 -18.2 -1.65 -18.2 -1.7 -18.15 -1.75 -18.15 -1.75 -18.1 -1.7 -18.1 -1.65 -18.05 -1.6 -18.05 -1.55 -18.0 -1.55 -17.95 -1.45 -17.85 -1.25 -17.85 -1.25 -17.8 -1.2 -17.8 -1.2 -17.7 -1.15 -17.65 -1.15 -17.3 -1.1 -17.3 -1.1 -17.25 -1.05 -17.2 -1.05 -16.9 -1.0 -16.9 -1.0 -16.85 -0.95 -16.85 -0.9 -16.8 -0.9 -16.75 -0.85 -16.75 -0.85 -16.6 -0.8 -16.6 -0.8 -16.55 -0.75 -16.55 -0.75 -16.5 -0.7 -16.5 -0.65 -16.45 -0.6 -16.45 -0.55 -16.4 -0.5 -16.4 -0.5 -16.35 -0.45 -16.35 -0.4 -16.3 -0.35 -16.3 -0.35 -16.25 -0.3 -16.25 -0.3 -16.2 -0.4 -16.1 -0.5 -16.1 -0.5 -16.05 -0.55 -16.05 -0.55 -16.0 -0.6 -16.0 -0.75 -15.85 -0.85 -15.85 -0.85 -15.8 -1.0 -15.8 -1.05 -15.75 -1.05 -15.7 -1.1 -15.7 -1.15 -15.75 -1.15 -15.65 -1.1 -15.6 -1.1 -15.25 -1.15 -15.2 -1.25 -15.2 -1.25 -15.15 -1.45 -15.15 -1.5 -15.1 -1.85 -15.1 -1.85 -15.05 -1.9 -15.05 -1.95 -15.0 -2.0 -15.0 -2.1 -14.9 -2.1 -14.85 -2.15 -14.8 -2.15 -14.75 -2.2 -14.7 -2.2 -14.35 -2.25 -14.35 -2.3 -14.3 -2.3 -14.25 -2.35 -14.25 -2.65 -14.2 -2.85 -14.2 -2.9 -14.15 -3.1 -14.15 -3.15 -14.1 -3.25 -14.1 -3.3 -14.05 -3.45 -14.05 -3.45 -14.1 -3.5 -14.1 -3.5 -14.15 -3.55 -14.15 -3.6 -14.2 -3.6 -14.4 -3.55 -14.45 -3.55 -14.55 -3.5 -14.55 -3.5 -14.6 -3.45 -14.65 -3.45 -14.7 -3.5 -14.7 -3.5 -14.95 -3.55 -15.0 -3.55 -15.1 -3.6 -15.1 -3.7 -15.2 -3.7 -15.3 -3.75 -15.35 -3.75 -15.4 -3.8 -15.45 -3.8 -15.6 -3.75 -15.65 -3.75 -15.7 -3.7 -15.7 -3.7 -15.8 -3.7 -15.85 -3.75 -15.85 -3.8 -15.9 -3.85 -15.9 -3.9 -15.95 -3.9 -16.2 -3.95 -16.2 -4.05 -16.3 -4.05 -16.7 -4.25 -16.7 -4.4 -16.75 -4.55 -16.75 -4.6 -16.8 -4.9 -16.8 -5.05 -16.85 -5.35 -16.85 -5.35 -16.95 -4.9 -16.95 -4.9 -17.0 -4.65 -17.0 -4.6 -16.95 -4.45 -16.95 -4.25 -16.9 -4.05 -16.9 -4.0 -16.85 -3.9 -16.85 -3.9 -16.8 -3.85 -16.75 -3.85 -16.35 -3.75 -16.25 -3.75 -16.05 -3.7 -16.05 -3.7 -16.0 -3.65 -16.0 -3.6 -15.95 -3.55 -15.95 -3.45 -15.9 -3.4 -15.9 -3.4 -15.65 -3.45 -15.65 -3.45 -15.55 -3.5 -15.55 -3.5 -15.5 -3.55 -15.45 -3.5 -15.4 -3.5 -15.35 -3.4 -15.35 -3.35 -15.3 -3.35 -15.0 -3.4 -14.95 -3.4 -14.5 -3.45 -14.45 -3.45 -14.35 -3.5 -14.3 -3.5 -14.25 -3.4 -14.25 -3.35 -14.2 -3.25 -14.25 -3.2 -14.25 -3.2 -14.3 -3.1 -14.3 -3.05 -14.35 -2.85 -14.35 -2.7 -14.4 -2.6 -14.4 -2.55 -14.45 -2.5 -14.45 -2.5 -14.55 -2.45 -14.6 -2.45 -14.65 -2.4 -14.65 -2.4 -14.75 -2.35 -14.8 -2.35 -14.85 -2.3 -14.9 -2.3 -15.0 -2.25 -15.0 -2.25 -15.1 -2.2 -15.1 -2.2 -15.25 -2.15 -15.25 -2.1 -15.3 -1.85 -15.3 -1.8 -15.35 -1.4 -15.35 -1.25 -15.4 -1.25 -15.5 -1.3 -15.5 -1.3 -15.65 -1.35 -15.65 -1.35 -15.8 -1.3 -15.8 -1.25 -15.85 -1.2 -15.85 -1.15 -15.9 -1.15 -15.95 -1.1 -15.95 -1.1 -16.0 -1.05 -16.0 -1.0 -16.05 -0.95 -16.05 -0.9 -16.1 -0.75 -16.1 -0.75 -16.25 -0.65 -16.25 -0.6 -16.2 -0.6 -16.25 -0.65 -16.25 -0.65 -16.3 -0.7 -16.3 -0.7 -16.35 -0.8 -16.35 -0.8 -16.4 -0.85 -16.4 -0.95 -16.5 -0.95 -16.55 -1.0 -16.6 -1.0 -16.75 -1.1 -16.75 -1.1 -16.8 -1.15 -16.85 -1.2 -16.85 -1.2 -17.15 -1.3 -17.2 -1.3 -17.6 -1.35 -17.6 -1.35 -17.7 -1.45 -17.7 -1.5 -17.75 -1.6 -17.75 -1.75 -17.9 -1.85 -17.9 -1.9 -17.95 -1.8 -17.95 -1.85 -18.0 -2.0 -18.0 -2.0 -18.05 -2.1 -18.05 -2.15 -18.1 -2.15 -18.15 -2.25 -18.15 -2.25 -18.25 -2.2 -18.3 -2.1 -18.3 -2.05 -18.35 -1.9 -18.35 -1.8 -18.45 -1.75 -18.45 -1.7 -18.5 -1.65 -18.5 -1.65 -18.55 -1.6 -18.55 -1.6 -18.6 -1.55 -18.65 -1.55 -18.8 -1.5 -18.8 -1.5 -18.85 -1.45 -18.85 -1.45 -19.65 -1.5 -19.7 M-6.2 -17.2 L-6.15 -17.2 -6.1 -17.15 -6.1 -17.1 -5.95 -17.1 -5.9 -17.05 -5.85 -17.05 -5.85 -17.0 -5.7 -17.0 -5.7 -16.95 -5.6 -16.95 -5.6 -16.9 -5.55 -16.9 -5.6 -16.85 -5.75 -16.85 -5.85 -16.9 -5.9 -16.9 -5.9 -16.95 -5.95 -16.95 -6.05 -17.0 -6.1 -17.0 -6.15 -17.05 -6.3 -17.05 -6.35 -17.0 -6.4 -17.0 -6.4 -16.95 -6.45 -16.95 -6.5 -16.9 -6.55 -16.9 -6.6 -16.85 -6.6 -16.8 -6.65 -16.8 -6.65 -16.7 -6.7 -16.7 -6.7 -16.65 -6.8 -16.65 -6.8 -16.7 -6.95 -16.7 -6.95 -16.65 -7.0 -16.65 -7.0 -16.6 -7.05 -16.6 -7.1 -16.65 -7.15 -16.65 -7.15 -16.75 -7.2 -16.75 -7.25 -16.7 -7.3 -16.7 -7.3 -16.65 -7.35 -16.65 -7.45 -16.55 -7.5 -16.55 -7.6 -16.45 -7.65 -16.45 -7.7 -16.4 -8.2 -16.4 -8.2 -16.45 -8.3 -16.45 -8.3 -16.4 -8.35 -16.4 -8.35 -16.35 -8.45 -16.25 -8.65 -16.25 -8.65 -16.2 -8.7 -16.2 -8.7 -16.15 -8.75 -16.15 -8.9 -16.1 -8.95 -16.1 -9.05 -16.0 -9.1 -16.0 -9.1 -15.95 -9.15 -15.9 -9.15 -15.85 -9.2 -15.8 -9.85 -15.8 -10.0 -15.75 -10.1 -15.75 -10.15 -15.7 -10.25 -15.65 -10.4 -15.65 -10.4 -15.7 -10.2 -15.7 -10.15 -15.75 -10.15 -15.8 -10.0 -15.8 -9.9 -15.85 -9.85 -15.85 -9.85 -15.9 -9.7 -15.9 -9.6 -15.95 -9.25 -15.95 -9.25 -16.0 -9.15 -16.1 -9.1 -16.1 -9.1 -16.15 -9.05 -16.15 -9.05 -16.2 -9.0 -16.2 -8.95 -16.25 -8.85 -16.25 -8.75 -16.35 -8.65 -16.35 -8.6 -16.4 -8.5 -16.5 -8.45 -16.5 -8.4 -16.55 -8.4 -16.6 -8.35 -16.65 -8.2 -16.65 -8.2 -16.6 -8.1 -16.6 -8.1 -16.55 -7.8 -16.55 -7.75 -16.6 -7.65 -16.6 -7.65 -16.65 -7.6 -16.65 -7.6 -16.7 -7.5 -16.7 -7.5 -16.75 -7.45 -16.75 -7.35 -16.85 -7.3 -16.85 -7.25 -16.9 -7.25 -16.95 -7.1 -16.95 -7.1 -16.9 -7.05 -16.9 -7.05 -16.8 -7.0 -16.85 -6.75 -16.85 -6.75 -16.95 -6.6 -17.1 -6.5 -17.1 -6.4 -17.2 -6.2 -17.2 M-0.95 -16.0 L-1.0 -16.0 -1.1 -15.9 -1.0 -15.95 -0.95 -16.0 M-3.5 -15.1 L-3.5 -15.1 M-3.75 -14.35 L-3.8 -14.35 -3.85 -14.3 -4.0 -14.3 -4.1 -14.4 -4.1 -14.2 -4.05 -14.15 -4.05 -13.95 -4.1 -13.9 -4.1 -13.8 -4.15 -13.75 -4.15 -13.7 -4.2 -13.7 -4.2 -13.5 -4.25 -13.5 -4.25 -13.45 -4.3 -13.4 -4.3 -13.35 -4.35 -13.3 -4.35 -13.2 -4.4 -13.2 -4.35 -13.15 -4.3 -13.15 -4.3 -13.1 -4.25 -13.1 -4.2 -13.05 -4.15 -13.05 -4.1 -13.0 -4.1 -13.05 -4.05 -13.05 -4.0 -13.1 -3.85 -13.1 -3.85 -13.0 -3.8 -13.0 -3.7 -12.9 -3.7 -12.65 -3.8 -12.55 -3.8 -12.5 -3.85 -12.5 -3.85 -12.45 -3.8 -12.45 -3.75 -12.4 -3.55 -12.4 -3.5 -12.35 -3.45 -12.35 -3.45 -12.3 -3.4 -12.3 -3.35 -12.25 -3.25 -12.25 -3.25 -12.2 -3.2 -12.2 -3.15 -12.15 -3.05 -12.15 -3.05 -12.1 -2.95 -12.1 -2.95 -12.05 -2.85 -12.05 -2.8 -12.0 -2.7 -12.0 -2.7 -11.95 -2.65 -11.95 -2.6 -11.9 -2.45 -11.9 -2.45 -11.85 -2.4 -11.85 -2.4 -11.8 -2.45 -11.8 -2.45 -11.75 -2.5 -11.75 -2.5 -11.6 -2.45 -11.6 -2.45 -11.55 -2.35 -11.55 -2.35 -11.5 -2.25 -11.4 -2.25 -11.35 -2.5 -11.1 -2.5 -11.05 -2.55 -11.0 -2.65 -11.0 -2.65 -10.95 -2.7 -10.95 -2.8 -10.85 -2.85 -10.85 -2.85 -10.8 -2.9 -10.8 -2.8 -10.7 -2.8 -10.5 -2.75 -10.45 -2.75 -10.4 -2.7 -10.4 -2.7 -10.35 -2.65 -10.3 -2.65 -10.25 -2.6 -10.25 -2.6 -10.05 -2.55 -10.0 -2.55 -9.8 -2.6 -9.8 -2.6 -9.75 -2.75 -9.75 -2.8 -9.8 -2.85 -9.8 -2.9 -9.85 -2.95 -9.85 -3.0 -9.9 -3.1 -9.9 -3.15 -9.95 -3.2 -9.95 -3.25 -10.0 -3.3 -10.0 -3.35 -10.05 -3.4 -10.05 -3.55 -10.2 -3.55 -10.25 -3.8 -10.25 -3.8 -10.2 -3.85 -10.2 -3.85 -10.15 -3.9 -10.1 -3.9 -10.0 -4.0 -10.0 -4.0 -9.9 -4.1 -9.9 -4.1 -9.95 -4.2 -10.05 -4.25 -10.05 -4.4 -10.2 -4.4 -10.15 -4.6 -10.15 -4.7 -10.1 -4.75 -10.05 -4.85 -10.0 -4.85 -9.9 -4.9 -9.9 -4.9 -9.85 -4.95 -9.85 -4.95 -9.8 -5.05 -9.7 -5.15 -9.7 -5.45 -9.65 -5.5 -9.6 -5.6 -9.6 -5.6 -9.55 -5.55 -9.5 -5.55 -9.3 -5.6 -9.25 -5.6 -9.1 -5.65 -9.1 -5.65 -9.0 -5.7 -9.0 -5.7 -8.95 -5.75 -8.95 -5.75 -8.9 -5.8 -8.9 -5.85 -8.85 -5.95 -8.85 -5.95 -8.8 -6.0 -8.8 -6.0 -8.75 -6.05 -8.75 -6.1 -8.7 -6.1 -8.65 -6.05 -8.65 -6.05 -8.5 -6.0 -8.5 -6.0 -7.95 -5.95 -7.95 -5.95 -7.85 -6.0 -7.85 -5.95 -7.8 -5.95 -7.6 -5.9 -7.6 -5.9 -7.5 -5.85 -7.5 -5.85 -7.35 -5.8 -7.3 -5.8 -7.25 -5.75 -7.25 -5.65 -7.15 -5.6 -7.15 -5.6 -7.1 -5.55 -7.1 -5.55 -7.0 -5.5 -6.95 -5.5 -6.8 -5.4 -6.7 -5.4 -6.65 -5.35 -6.65 -5.35 -6.6 -5.3 -6.55 -5.3 -6.5 -5.25 -6.5 -5.25 -6.45 -5.3 -6.45 -5.3 -6.4 -5.25 -6.4 -5.25 -6.35 -5.2 -6.35 -5.2 -6.25 -5.15 -6.25 -5.2 -6.2 -5.15 -6.2 -5.15 -6.15 -5.2 -6.15 -5.2 -6.1 -5.25 -6.1 -5.25 -6.2 -5.3 -6.2 -5.3 -6.3 -5.35 -6.3 -5.35 -6.4 -5.4 -6.4 -5.4 -6.5 -5.45 -6.5 -5.45 -6.6 -5.5 -6.6 -5.5 -6.65 -5.6 -6.75 -5.6 -7.0 -5.7 -7.1 -5.75 -7.1 -5.8 -7.15 -5.8 -7.2 -5.85 -7.2 -5.85 -7.25 -5.9 -7.25 -5.9 -7.35 -5.95 -7.35 -5.95 -7.45 -6.0 -7.45 -6.0 -7.5 -6.05 -7.5 -6.05 -7.55 -6.1 -7.6 -6.1 -7.65 -6.15 -7.65 -6.15 -7.7 -6.1 -7.75 -6.1 -7.85 -6.05 -7.9 -6.05 -7.95 -6.1 -7.95 -6.1 -8.05 -6.05 -8.05 -6.05 -8.45 -6.1 -8.5 -6.1 -8.6 -6.15 -8.6 -6.2 -8.65 -6.2 -8.75 -6.1 -8.85 -6.05 -8.85 -6.05 -8.9 -6.0 -8.95 -5.95 -8.95 -5.95 -9.0 -5.85 -9.0 -5.8 -9.05 -5.75 -9.05 -5.75 -9.15 -5.7 -9.15 -5.7 -9.3 -5.65 -9.35 -5.65 -9.55 -5.7 -9.6 -5.7 -9.7 -5.65 -9.7 -5.6 -9.75 -5.55 -9.75 -5.55 -9.8 -5.5 -9.8 -5.45 -9.85 -5.1 -9.85 -5.1 -9.9 -5.05 -9.9 -5.05 -10.0 -5.0 -10.0 -5.0 -10.05 -4.95 -10.05 -4.75 -10.25 -4.45 -10.25 -4.45 -10.3 -4.5 -10.3 -4.5 -10.35 -4.55 -10.35 -4.85 -10.3 -4.95 -10.3 -5.0 -10.25 -5.9 -10.25 -5.9 -10.3 -5.95 -10.3 -5.95 -10.35 -6.05 -10.4 -6.1 -10.4 -6.1 -10.45 -6.15 -10.45 -6.15 -10.5 -6.2 -10.5 -6.2 -10.55 -6.25 -10.55 -6.45 -10.75 -6.5 -10.75 -6.5 -10.7 -6.6 -10.6 -6.7 -10.6 -6.75 -10.55 -6.8 -10.55 -6.85 -10.5 -6.9 -10.5 -6.9 -10.45 -7.0 -10.45 -7.05 -10.4 -7.1 -10.4 -7.15 -10.35 -7.2 -10.35 -7.3 -10.25 -7.35 -10.25 -7.4 -10.2 -7.45 -10.2 -7.45 -10.15 -7.5 -10.15 -7.5 -9.8 -7.55 -9.8 -7.55 -9.75 -7.6 -9.7 -7.6 -9.55 -7.65 -9.5 -7.65 -9.45 -7.7 -9.4 -7.7 -9.3 -7.75 -9.3 -7.75 -9.25 -7.8 -9.2 -7.8 -9.15 -7.85 -9.1 -7.85 -9.0 -7.9 -9.0 -7.9 -8.9 -7.95 -8.9 -7.95 -8.8 -8.0 -8.8 -8.0 -8.65 -7.95 -8.65 -7.95 -8.55 -7.9 -8.5 -7.9 -8.25 -7.85 -8.25 -7.85 -7.95 -7.8 -7.95 -7.8 -7.8 -7.75 -7.8 -7.75 -6.7 -7.8 -6.7 -7.8 -7.75 -7.85 -7.75 -7.9 -7.8 -7.9 -8.2 -7.95 -8.2 -7.95 -8.45 -8.0 -8.45 -8.0 -8.55 -8.05 -8.6 -8.05 -8.65 -8.1 -8.7 -8.1 -8.8 -8.05 -8.8 -8.05 -8.9 -8.0 -8.9 -8.0 -8.95 -7.9 -9.05 -7.9 -9.15 -7.85 -9.15 -7.85 -9.25 -7.8 -9.25 -7.8 -9.3 -7.75 -9.35 -7.75 -9.45 -7.7 -9.45 -7.7 -9.5 -7.65 -9.55 -7.65 -9.6 -7.7 -9.55 -7.7 -9.6 -7.65 -9.65 -7.65 -9.75 -7.6 -9.75 -7.6 -9.8 -7.55 -9.85 -7.55 -10.1 -7.6 -10.15 -7.55 -10.2 -7.55 -10.3 -7.5 -10.3 -7.5 -10.25 -7.4 -10.35 -7.35 -10.35 -7.35 -10.4 -7.3 -10.4 -7.25 -10.45 -7.2 -10.45 -7.2 -10.5 -7.1 -10.5 -7.1 -10.55 -7.05 -10.55 -7.0 -10.6 -6.95 -10.6 -6.95 -10.65 -6.9 -10.65 -6.85 -10.7 -6.8 -10.7 -6.75 -10.75 -6.7 -10.75 -6.65 -10.8 -6.6 -10.8 -6.6 -10.85 -6.55 -10.85 -6.55 -10.9 -6.45 -10.9 -6.45 -10.95 -6.4 -10.9 -6.35 -10.9 -6.35 -10.85 -6.3 -10.85 -6.3 -10.8 -6.25 -10.75 -6.25 -10.7 -6.2 -10.7 -6.15 -10.65 -6.1 -10.65 -6.1 -10.6 -6.05 -10.6 -6.0 -10.55 -6.0 -10.5 -5.95 -10.5 -5.9 -10.45 -5.85 -10.45 -5.85 -10.4 -5.8 -10.35 -5.2 -10.35 -5.1 -10.4 -5.05 -10.4 -5.0 -10.45 -4.45 -10.45 -4.4 -10.4 -4.4 -10.35 -4.35 -10.35 -4.35 -10.3 -4.3 -10.25 -4.25 -10.25 -4.2 -10.2 -4.2 -10.15 -4.1 -10.15 -4.1 -10.1 -4.05 -10.05 -4.0 -10.1 -4.0 -10.15 -3.95 -10.15 -3.95 -10.2 -3.9 -10.2 -3.9 -10.25 -3.85 -10.3 -3.85 -10.35 -3.55 -10.35 -3.55 -10.3 -3.5 -10.3 -3.3 -10.1 -3.25 -10.1 -3.2 -10.05 -3.0 -10.05 -2.95 -10.0 -2.85 -10.0 -2.85 -9.95 -2.8 -9.95 -2.75 -9.9 -2.65 -9.9 -2.65 -10.0 -2.7 -10.0 -2.7 -10.15 -2.75 -10.2 -2.75 -10.25 -2.85 -10.35 -2.85 -10.55 -2.9 -10.55 -2.9 -10.65 -2.95 -10.7 -3.0 -10.7 -3.0 -10.85 -2.95 -10.85 -2.95 -10.9 -2.9 -10.9 -2.9 -10.95 -2.85 -10.95 -2.8 -11.0 -2.75 -11.0 -2.75 -11.05 -2.7 -11.05 -2.7 -11.1 -2.65 -11.15 -2.6 -11.15 -2.6 -11.2 -2.55 -11.2 -2.55 -11.25 -2.5 -11.25 -2.5 -11.3 -2.45 -11.35 -2.45 -11.4 -2.5 -11.45 -2.55 -11.45 -2.55 -11.5 -2.65 -11.5 -2.65 -11.75 -2.6 -11.75 -2.6 -11.8 -2.7 -11.8 -2.75 -11.85 -2.8 -11.85 -2.8 -11.9 -2.95 -11.9 -3.05 -12.0 -3.15 -12.0 -3.2 -12.05 -3.25 -12.05 -3.25 -12.1 -3.35 -12.1 -3.35 -12.15 -3.45 -12.15 -3.45 -12.2 -3.5 -12.2 -3.5 -12.25 -3.7 -12.25 -3.75 -12.3 -3.9 -12.3 -3.95 -12.35 -4.0 -12.35 -4.0 -12.5 -3.95 -12.55 -3.95 -12.6 -3.9 -12.6 -3.9 -12.65 -3.85 -12.65 -3.85 -12.7 -3.8 -12.7 -3.85 -12.75 -3.85 -12.9 -3.8 -12.95 -3.85 -12.95 -3.95 -12.95 -3.95 -12.9 -4.05 -12.9 -4.05 -12.85 -4.3 -12.85 -4.3 -12.9 -4.4 -12.9 -4.45 -12.95 -4.55 -12.95 -4.55 -13.0 -4.6 -13.0 -4.7 -13.1 -4.7 -13.2 -4.65 -13.2 -4.65 -13.3 -4.6 -13.3 -4.6 -13.35 -4.55 -13.35 -4.45 -13.45 -4.45 -13.55 -4.4 -13.6 -4.4 -13.7 -4.35 -13.75 -4.35 -13.8 -4.3 -13.8 -4.3 -13.85 -4.25 -13.95 -4.25 -14.05 -4.2 -14.1 -4.2 -14.5 -4.0 -14.5 -4.0 -14.55 -3.8 -14.55 -3.75 -14.5 -3.7 -14.5 -3.7 -14.4 -3.75 -14.4 -3.75 -14.35 M-4.3 -14.55 L-4.3 -14.55 M-4.3 -13.8 L-4.3 -13.7 -4.25 -13.7 -4.25 -13.8 -4.3 -13.8 M-10.45 -15.6 L-10.55 -15.6 -10.5 -15.65 -10.45 -15.65 -10.45 -15.6 M-12.45 -11.5 L-12.45 -11.45 -12.4 -11.45 -12.35 -11.4 -12.35 -11.35 -12.3 -11.35 -12.2 -11.25 -12.2 -11.15 -12.25 -11.15 -12.4 -11.0 -12.45 -11.0 -12.45 -10.95 -12.7 -10.95 -12.7 -10.9 -12.75 -10.9 -12.9 -10.85 -13.1 -10.85 -13.1 -10.8 -13.15 -10.75 -13.15 -10.65 -13.2 -10.6 -13.2 -10.55 -13.1 -10.55 -13.05 -10.5 -13.0 -10.45 -13.0 -10.2 -13.1 -10.15 -13.05 -10.15 -13.1 -10.1 -13.1 -10.05 -13.2 -10.05 -13.25 -10.0 -13.25 -9.95 -13.2 -9.95 -13.2 -9.9 -13.1 -9.8 -13.1 -9.75 -13.05 -9.75 -13.05 -9.7 -13.0 -9.65 -13.0 -9.55 -12.95 -9.5 -12.95 -9.4 -12.9 -9.35 -12.9 -9.15 -12.95 -9.15 -12.95 -9.25 -13.0 -9.25 -13.0 -9.3 -13.05 -9.35 -13.05 -9.45 -13.1 -9.5 -13.1 -9.65 -13.2 -9.75 -13.2 -9.8 -13.25 -9.85 -13.25 -9.9 -13.3 -9.95 -13.3 -10.0 -13.35 -10.0 -13.35 -10.05 -13.4 -10.05 -13.45 -10.1 -13.35 -10.1 -13.3 -10.05 -13.3 -10.1 -13.2 -10.1 -13.2 -10.15 -13.15 -10.15 -13.15 -10.2 -13.1 -10.2 -13.1 -10.25 -13.05 -10.25 -13.05 -10.35 -13.1 -10.35 -13.1 -10.4 -13.15 -10.4 -13.25 -10.5 -13.25 -10.55 Q-13.3 -10.6 -13.35 -10.6 L-13.35 -10.5 -13.45 -10.5 -13.55 -10.45 -13.7 -10.45 -13.8 -10.5 -13.95 -10.5 -13.95 -10.4 -14.0 -10.4 -14.0 -10.25 -14.05 -10.2 -14.05 -10.05 -14.1 -10.05 -14.1 -9.95 -14.15 -9.9 -14.15 -9.8 -14.2 -9.8 -14.2 -9.7 -14.25 -9.7 -14.25 -9.6 -14.3 -9.6 -14.3 -9.55 -14.5 -9.35 -14.55 -9.35 -14.55 -9.4 -14.5 -9.45 -14.5 -9.55 -14.45 -9.55 -14.45 -9.6 -14.4 -9.65 -14.4 -9.7 -14.35 -9.7 -14.35 -9.8 -14.2 -9.95 -14.2 -10.05 -14.15 -10.1 -14.15 -10.2 -14.1 -10.25 -14.1 -10.3 -14.05 -10.35 -14.05 -10.55 -14.0 -10.5 -14.0 -10.55 -13.85 -10.55 -13.65 -10.6 Q-13.55 -10.55 -13.4 -10.6 L-13.35 -10.6 -13.35 -10.65 -13.4 -10.65 -13.35 -10.7 Q-13.3 -10.7 -13.25 -10.75 -13.15 -10.8 -13.1 -10.95 L-13.05 -10.95 -13.05 -11.05 -13.0 -11.05 -13.0 -10.95 -12.9 -10.95 -12.8 -11.0 -12.75 -11.0 -12.7 -11.05 -12.45 -11.05 -12.4 -11.1 -12.4 -11.15 -12.35 -11.15 -12.35 -11.2 -12.3 -11.2 -12.3 -11.25 -12.4 -11.25 -12.4 -11.35 -12.45 -11.35 -12.55 -11.45 -12.65 -11.45 -12.65 -11.35 -12.75 -11.35 -12.75 -11.45 -12.8 -11.5 -12.8 -11.55 -12.85 -11.55 -12.85 -11.65 -12.9 -11.7 -12.85 -11.7 -12.85 -11.75 -12.75 -11.65 -12.75 -11.6 -12.7 -11.6 -12.7 -11.55 -12.65 -11.55 -12.65 -11.5 -12.45 -11.5 M-5.6 -6.75 L-5.6 -6.75 M-5.4 -6.55 L-5.35 -6.5 -5.35 -6.55 -5.4 -6.55 M-5.2 -6.25 L-5.25 -6.25 -5.2 -6.2 -5.2 -6.25" fill="#ffffff" fill-rule="evenodd" stroke="none"/>
  </g>
</svg>
