<?xml version="1.0" encoding="UTF-8" standalone="no"?>
<svg xmlns:ffdec="https://www.free-decompiler.com/flash" xmlns:xlink="http://www.w3.org/1999/xlink" ffdec:objectType="shape" height="54.35px" width="78.55px" xmlns="http://www.w3.org/2000/svg">
  <g transform="matrix(1.0, 0.0, 0.0, 1.0, 39.7, 47.3)">
    <path d="M11.2 -40.8 Q11.15 -40.9 11.15 -41.2 L11.15 -41.35 Q11.15 -41.7 11.75 -41.75 12.35 -41.75 12.6 -41.95 L12.75 -42.05 13.2 -42.55 13.7 -43.05 13.8 -43.3 Q13.95 -43.55 13.95 -43.95 L14.0 -44.95 14.3 -45.0 14.7 -45.05 Q15.65 -45.05 16.2 -44.2 16.45 -43.75 16.6 -43.6 16.8 -43.3 17.0 -43.3 L17.65 -43.3 Q17.9 -43.5 18.15 -44.1 18.55 -44.95 18.7 -45.2 19.5 -46.55 21.4 -46.55 22.6 -46.55 23.15 -45.75 23.45 -45.25 23.45 -44.65 23.45 -44.25 23.25 -43.9 23.1 -43.55 22.7 -43.2 L23.1 -44.6 Q23.1 -44.8 22.75 -45.4 22.35 -46.05 22.1 -46.05 21.15 -46.05 19.8 -45.1 18.65 -44.25 18.65 -44.0 18.65 -43.95 18.7 -43.9 18.85 -43.75 19.35 -43.65 L19.4 -43.5 Q18.85 -42.8 18.45 -42.5 18.2 -42.4 18.0 -42.35 16.15 -42.35 15.9 -43.0 L15.7 -43.45 Q15.5 -43.65 14.95 -43.7 14.65 -43.35 14.35 -42.8 L13.9 -42.05 Q13.4 -41.35 12.15 -41.35 12.0 -41.35 11.85 -41.25 11.7 -41.15 11.6 -41.15 11.6 -40.95 11.8 -40.8 11.9 -40.7 12.3 -40.6 L12.25 -40.45 12.2 -40.35 12.05 -40.3 Q11.75 -40.3 11.55 -40.45 11.3 -40.55 11.2 -40.8 M29.0 -37.3 L28.95 -37.4 28.9 -37.45 Q28.6 -37.5 28.45 -37.35 L28.05 -37.0 27.4 -37.0 27.05 -37.05 26.75 -37.15 26.15 -37.1 26.0 -36.95 25.9 -36.8 Q25.8 -36.6 25.8 -36.35 L25.7 -36.25 Q25.4 -36.5 25.4 -36.65 25.4 -37.15 25.8 -37.45 L25.95 -37.6 26.0 -37.6 26.0 -37.65 Q26.25 -37.95 26.6 -37.95 L26.8 -37.9 26.85 -37.9 26.85 -37.85 26.5 -37.7 Q26.6 -37.55 26.95 -37.55 L27.25 -37.55 Q27.9 -37.55 28.2 -37.8 28.35 -37.9 28.5 -38.2 L28.35 -38.2 28.25 -38.35 28.2 -38.4 Q28.25 -38.55 28.45 -38.7 L28.5 -38.7 28.55 -38.65 28.5 -38.6 Q28.45 -38.55 28.35 -38.5 L28.4 -38.5 28.5 -38.6 28.85 -38.9 Q29.4 -38.95 29.7 -37.8 29.7 -37.7 29.4 -37.1 29.0 -36.4 28.8 -36.35 L28.85 -36.45 28.9 -36.75 29.0 -37.0 29.0 -37.3 M33.05 -36.4 Q34.1 -37.05 35.3 -36.3 L35.95 -35.8 Q36.4 -35.35 36.45 -34.95 L36.55 -33.5 Q36.55 -32.95 35.7 -32.0 34.85 -31.1 34.85 -31.05 34.85 -30.9 34.95 -30.8 L35.0 -30.7 35.95 -30.7 Q36.0 -30.7 36.4 -30.9 L36.85 -31.15 Q37.35 -31.15 37.6 -30.55 L37.75 -29.9 Q37.75 -29.8 37.6 -29.4 37.4 -28.95 37.1 -28.5 36.8 -28.05 36.45 -27.8 35.8 -27.3 35.05 -27.3 L34.65 -27.35 Q34.3 -27.45 34.05 -27.65 33.85 -27.9 33.85 -28.1 L33.9 -28.5 33.95 -28.55 34.15 -28.45 Q34.3 -28.35 34.45 -28.35 35.75 -28.35 36.3 -28.85 36.6 -29.15 36.6 -29.55 36.6 -29.85 36.3 -30.0 35.9 -30.2 35.0 -30.2 34.85 -30.4 34.65 -30.65 34.35 -30.95 34.35 -31.05 L35.45 -33.95 Q35.45 -34.35 35.15 -34.9 34.75 -35.65 34.15 -35.65 33.45 -35.65 33.05 -35.15 32.75 -34.85 32.75 -34.55 32.75 -34.5 33.15 -34.35 33.6 -34.2 33.85 -34.2 L34.1 -34.25 Q34.1 -34.3 34.1 -34.15 34.1 -33.95 33.8 -33.8 33.55 -33.7 33.1 -33.7 32.25 -33.7 32.0 -34.2 31.9 -34.4 31.9 -34.85 31.9 -35.2 32.2 -35.6 32.35 -35.85 32.55 -36.05 L32.9 -36.3 33.05 -36.4 M23.2 -38.3 L22.95 -38.3 22.25 -38.25 21.35 -38.1 21.25 -38.25 21.55 -38.4 Q23.4 -39.0 24.1 -37.9 24.3 -37.55 24.4 -36.9 24.5 -36.75 24.5 -36.5 L24.55 -36.05 Q24.55 -35.4 24.45 -35.15 24.4 -34.9 24.25 -34.7 L24.0 -34.35 Q23.7 -34.1 23.25 -34.1 L23.05 -34.15 Q22.8 -34.25 22.5 -34.7 L22.2 -35.1 22.1 -35.25 Q22.1 -35.4 22.15 -35.5 L22.2 -35.8 Q22.35 -36.25 22.7 -36.4 L22.75 -35.5 22.8 -35.45 Q22.8 -35.35 22.95 -35.35 23.55 -35.35 23.9 -36.2 24.2 -36.75 24.2 -37.05 24.2 -37.25 23.85 -37.75 23.5 -38.3 23.2 -38.3 M28.4 -34.3 Q28.85 -34.4 29.65 -33.7 L30.45 -32.95 30.6 -32.85 Q31.0 -32.5 31.1 -32.25 31.35 -31.9 31.35 -31.75 31.35 -31.6 31.15 -31.4 30.85 -31.2 30.45 -31.2 30.35 -31.2 30.1 -31.25 L30.0 -31.25 Q29.75 -31.25 29.65 -31.4 L29.6 -31.45 29.6 -31.35 Q29.8 -30.85 30.1 -30.95 L30.15 -30.95 Q30.2 -31.0 30.25 -31.05 L30.35 -31.15 Q30.85 -31.15 31.1 -30.95 31.3 -30.85 31.4 -30.65 L31.4 -30.5 31.45 -30.25 Q31.45 -29.85 31.35 -29.65 31.2 -29.55 30.6 -29.1 L30.55 -29.3 Q30.6 -29.4 30.8 -29.6 30.95 -29.8 30.95 -29.95 30.95 -30.1 30.6 -30.35 30.15 -30.7 29.45 -30.6 L29.4 -30.6 Q29.25 -30.75 29.1 -31.0 28.95 -31.3 28.95 -31.45 28.95 -31.55 29.1 -31.85 29.3 -32.2 29.45 -32.3 L30.1 -32.35 29.6 -33.2 Q29.1 -33.9 28.8 -33.9 28.65 -33.9 28.5 -33.7 28.35 -33.55 28.35 -33.4 L28.4 -33.3 28.4 -33.2 28.45 -33.2 29.1 -33.15 29.35 -32.95 29.2 -32.75 29.1 -32.65 28.1 -32.7 Q28.0 -32.8 28.0 -32.95 L27.95 -33.25 Q27.95 -34.15 28.4 -34.3 M28.85 -32.9 L28.95 -32.9 28.9 -32.95 28.85 -32.9 M25.85 -30.1 L25.85 -30.15 Q25.85 -30.35 25.95 -30.4 L26.1 -30.6 Q27.3 -30.95 27.95 -29.4 28.4 -28.3 28.4 -27.2 L28.3 -25.05 Q28.3 -24.75 28.1 -24.3 27.8 -23.7 27.4 -23.75 27.15 -24.2 27.15 -24.55 L27.2 -25.0 27.25 -25.2 Q27.3 -25.4 27.35 -25.6 27.55 -26.1 27.55 -26.8 27.55 -27.6 27.35 -28.5 27.2 -29.2 27.0 -29.55 L26.85 -29.75 26.8 -29.85 Q26.65 -30.0 26.45 -30.05 L26.25 -30.05 Q26.1 -30.05 26.05 -30.0 L26.05 -29.95 26.0 -29.85 26.0 -29.9 25.9 -29.9 Q25.85 -29.95 25.85 -30.05 L25.85 -30.1 M21.45 -31.15 L21.4 -31.35 21.35 -31.6 Q22.6 -32.3 23.45 -31.5 23.75 -31.25 23.95 -30.8 24.1 -30.45 24.1 -30.2 23.8 -29.3 23.8 -29.25 23.8 -29.0 24.05 -28.8 24.3 -28.55 24.3 -28.05 24.3 -27.95 24.25 -27.9 23.75 -28.15 23.3 -28.75 22.95 -29.3 22.95 -29.65 22.95 -29.8 23.3 -30.05 23.6 -30.3 23.6 -30.35 23.6 -30.55 23.5 -30.7 L22.95 -31.2 Q22.35 -31.25 22.0 -31.35 21.85 -31.4 21.8 -31.4 L21.6 -31.4 21.6 -31.2 21.6 -31.15 Q21.6 -31.05 21.65 -30.95 21.5 -31.05 21.45 -31.15 M23.75 -30.4 L23.75 -30.45 23.7 -30.35 23.75 -30.4 M23.95 -29.95 Q23.9 -29.85 23.9 -29.8 L23.9 -29.75 Q24.0 -30.05 24.0 -30.2 L23.95 -30.0 23.95 -29.95 M26.6 -30.25 L26.6 -30.25 M7.05 -42.8 Q6.95 -42.95 6.7 -42.95 6.25 -42.95 6.1 -42.7 6.05 -42.6 6.05 -42.35 6.05 -42.2 6.15 -41.95 6.25 -41.65 6.4 -41.65 6.95 -41.65 7.3 -41.95 L7.8 -42.3 7.85 -42.25 Q8.0 -42.2 8.1 -42.05 L8.15 -41.9 Q8.3 -41.65 8.3 -41.55 8.3 -41.25 7.9 -41.0 7.45 -40.8 7.0 -40.8 6.05 -40.8 5.55 -41.25 5.2 -41.5 5.2 -41.8 5.2 -42.2 5.35 -42.7 5.5 -43.35 5.8 -43.55 L6.8 -43.5 7.15 -43.25 Q7.3 -43.05 7.35 -43.0 7.3 -42.95 7.25 -42.95 7.35 -42.9 7.35 -42.8 L7.25 -42.55 7.25 -42.5 Q7.15 -42.6 7.1 -42.8 L7.05 -42.8 M8.8 -37.45 L8.75 -37.4 8.7 -37.4 8.7 -37.45 8.7 -37.55 Q8.7 -38.3 9.45 -37.85 10.2 -37.45 10.3 -37.15 L10.4 -36.25 10.5 -35.55 Q10.5 -35.3 10.25 -34.85 10.0 -34.5 9.6 -34.05 L9.4 -33.85 Q8.8 -33.2 8.25 -33.05 L8.2 -33.05 7.9 -33.0 Q7.1 -33.0 6.55 -33.75 6.05 -34.35 6.1 -34.7 L6.3 -34.85 Q6.35 -34.6 6.5 -34.45 6.8 -34.25 8.0 -34.25 8.95 -34.25 9.4 -35.6 9.65 -36.3 9.65 -37.0 9.65 -37.3 9.6 -37.35 9.45 -37.55 8.8 -37.45 M5.5 -38.5 L5.5 -38.65 5.6 -38.65 5.8 -38.6 5.85 -38.6 Q6.0 -38.65 6.2 -38.85 6.35 -39.1 6.7 -39.1 7.25 -39.1 7.45 -38.8 L7.5 -38.45 Q7.5 -38.2 7.4 -38.0 7.2 -37.6 6.8 -37.6 6.75 -37.8 6.9 -37.95 L6.85 -38.1 6.7 -38.25 6.5 -38.25 Q6.35 -37.55 6.1 -37.15 5.65 -36.4 4.85 -36.4 3.65 -36.4 3.25 -37.55 3.15 -37.8 3.05 -38.45 2.9 -38.9 2.8 -39.05 2.55 -39.4 1.5 -39.45 0.5 -39.55 0.2 -40.0 0.2 -40.05 0.15 -40.2 L0.15 -40.6 Q0.2 -40.7 0.35 -40.7 0.25 -40.8 0.15 -41.05 0.05 -41.2 -0.15 -41.25 L-0.3 -41.25 -0.25 -41.3 -0.35 -41.3 Q-1.4 -41.3 -1.45 -40.6 -1.4 -39.75 -1.55 -39.5 -1.8 -39.6 -1.9 -39.9 L-1.9 -40.5 -1.8 -40.8 Q-1.7 -41.15 -1.45 -41.5 -0.8 -42.45 0.3 -41.75 L0.35 -41.75 Q0.8 -41.7 0.95 -41.4 1.05 -41.25 1.15 -40.8 L1.2 -40.65 Q1.25 -40.4 1.35 -40.25 1.6 -40.0 2.2 -40.0 3.4 -40.0 3.55 -39.45 3.6 -39.25 3.55 -39.0 L3.45 -38.8 Q3.45 -38.65 4.05 -37.8 4.7 -36.8 5.05 -36.8 5.4 -36.8 5.75 -37.1 6.0 -37.35 6.0 -37.45 6.0 -37.7 5.75 -38.0 5.65 -38.1 5.6 -38.25 L5.5 -38.5 M22.15 -42.1 Q22.3 -41.75 22.25 -41.5 L22.2 -41.3 22.4 -41.3 22.8 -41.25 22.85 -41.25 23.25 -41.15 Q23.1 -41.0 22.9 -40.9 L22.7 -40.8 Q21.9 -40.8 21.8 -41.4 L21.75 -41.85 Q21.65 -42.15 21.35 -42.25 21.85 -42.7 22.1 -42.15 L22.15 -42.1 M18.4 -38.1 Q18.6 -37.95 18.8 -37.45 18.95 -37.05 18.95 -36.75 18.95 -36.6 18.7 -36.0 18.45 -35.25 18.15 -35.25 L17.85 -35.3 17.7 -35.3 17.7 -35.45 Q18.0 -35.7 18.1 -35.95 18.15 -36.05 18.15 -36.3 18.15 -36.85 17.5 -37.75 L17.45 -37.8 17.45 -37.85 Q17.0 -38.4 16.55 -38.65 L16.8 -38.55 16.85 -38.6 16.45 -39.0 15.65 -39.0 15.65 -38.95 15.95 -38.85 15.6 -38.9 Q14.95 -38.9 14.6 -38.35 L14.5 -38.25 14.25 -37.55 14.05 -37.65 Q14.0 -37.7 14.0 -37.8 L14.0 -37.85 Q14.0 -38.4 14.55 -38.85 15.3 -39.55 16.65 -39.3 16.8 -38.95 17.25 -38.45 L17.6 -38.05 Q17.75 -38.15 18.05 -38.1 18.3 -38.0 18.45 -37.85 L18.35 -38.05 Q18.35 -38.3 18.4 -38.1 M15.05 -33.85 L14.85 -33.9 14.75 -33.95 Q14.75 -34.0 14.85 -34.0 L14.85 -34.1 15.15 -34.05 15.9 -33.95 15.95 -33.75 16.0 -33.45 Q16.0 -33.3 15.8 -33.0 15.55 -32.7 15.35 -32.7 15.0 -32.7 14.9 -33.0 14.85 -33.15 14.9 -33.35 L14.9 -33.55 15.0 -33.65 Q15.1 -33.6 15.2 -33.45 15.3 -33.3 15.4 -33.3 L15.7 -33.55 Q16.1 -33.6 15.65 -33.8 15.25 -33.9 14.95 -33.95 L15.05 -33.85 M23.1 -29.65 L23.1 -29.65 M21.35 -19.0 L21.35 -18.95 21.25 -18.95 21.2 -18.95 21.2 -19.4 Q22.1 -19.85 22.2 -19.25 L22.2 -19.05 22.25 -19.0 Q22.3 -19.05 22.45 -18.95 22.7 -18.75 22.7 -18.55 22.7 -18.35 22.65 -18.2 22.55 -18.05 22.45 -18.0 L22.4 -17.9 22.35 -17.7 22.35 -17.5 Q22.35 -17.4 22.4 -17.3 22.45 -17.2 22.6 -17.1 L23.25 -17.0 Q23.5 -16.75 23.5 -16.1 23.5 -15.9 23.05 -15.3 L22.75 -14.95 22.7 -14.9 22.4 -14.55 21.95 -14.2 Q21.35 -13.7 20.9 -13.7 20.7 -13.7 20.5 -13.8 20.3 -13.95 20.2 -14.1 L20.2 -14.25 Q20.9 -14.0 21.85 -14.95 22.15 -15.25 22.4 -15.65 22.6 -15.95 22.6 -16.05 22.6 -16.3 22.2 -16.6 21.8 -16.95 21.8 -17.1 21.8 -17.25 22.0 -17.65 L22.2 -18.05 22.1 -18.6 Q22.05 -18.95 22.0 -19.15 L21.95 -19.3 22.0 -19.3 21.9 -19.4 Q21.8 -19.45 21.65 -19.45 21.4 -19.45 21.35 -19.2 L21.35 -19.0 M22.3 -18.45 L22.25 -18.6 22.3 -18.4 22.3 -18.45 M6.8 -12.5 Q6.85 -12.55 6.8 -12.45 L6.7 -12.3 6.8 -12.3 7.0 -12.25 7.0 -12.2 7.05 -12.1 6.85 -12.05 6.4 -12.05 Q6.4 -11.9 6.4 -11.6 6.4 -11.5 6.45 -11.3 L6.55 -11.2 6.65 -11.0 6.75 -10.85 Q7.15 -10.3 7.55 -10.4 L7.6 -10.4 7.55 -10.35 6.6 -10.3 Q6.35 -10.5 6.05 -11.45 6.05 -11.7 6.45 -12.15 L6.8 -12.5 M6.3 -10.95 L6.3 -11.0 6.25 -11.05 Q6.25 -10.85 6.5 -10.65 6.4 -10.75 6.3 -10.95 M3.0 -10.7 Q3.25 -10.5 3.65 -10.4 3.95 -10.3 4.05 -10.0 4.15 -9.8 4.15 -9.55 4.1 -9.45 3.95 -9.45 L3.85 -9.5 3.8 -9.5 3.8 -9.7 Q3.7 -9.75 3.65 -9.8 3.45 -9.9 3.3 -9.9 2.9 -9.9 2.75 -9.7 2.75 -9.5 2.7 -9.4 L2.65 -8.85 Q2.65 -8.35 2.4 -8.1 L2.2 -8.0 Q1.85 -7.75 1.0 -7.75 L0.85 -7.7 0.75 -7.7 0.7 -7.65 0.65 -7.55 Q0.75 -7.2 1.05 -6.8 L1.25 -6.45 1.3 -6.35 Q2.1 -5.6 3.05 -5.55 3.05 -5.45 2.95 -5.4 L0.8 -6.0 Q-0.35 -6.4 -0.35 -6.95 -0.35 -7.55 -0.1 -7.75 0.1 -7.85 0.6 -7.9 1.15 -8.0 1.45 -8.1 2.0 -8.35 2.35 -9.0 L2.4 -9.0 2.4 -9.05 Q2.35 -9.25 2.35 -9.4 2.35 -9.45 2.4 -9.55 L2.3 -9.75 2.25 -9.7 2.15 -9.65 Q2.1 -9.9 2.3 -10.35 2.45 -10.85 2.6 -11.0 2.75 -10.95 2.9 -10.75 L3.0 -10.7 M4.3 -5.75 Q4.35 -5.65 4.35 -5.5 L4.2 -5.2 Q4.05 -4.95 4.05 -4.85 4.05 -4.7 4.15 -4.5 L4.65 -3.8 4.7 -3.75 5.5 -3.7 6.5 -3.65 Q7.75 -3.65 8.05 -3.85 L8.25 -4.05 8.5 -4.25 8.55 -4.3 Q8.65 -4.3 8.65 -4.15 L8.35 -3.6 8.3 -3.55 Q7.75 -2.75 7.1 -2.75 6.45 -2.75 5.85 -2.9 5.45 -3.05 5.3 -3.15 L5.4 -3.15 4.5 -3.4 Q4.75 -3.3 5.1 -3.2 4.45 -3.25 4.0 -3.45 3.8 -3.55 3.65 -3.7 3.3 -4.0 3.3 -4.2 3.3 -4.3 3.4 -4.55 3.45 -4.9 3.6 -4.95 L3.7 -5.1 Q4.05 -5.8 4.2 -5.85 L4.3 -5.75 M1.5 -2.05 Q1.5 -1.7 0.9 -1.4 0.6 -1.15 -0.1 -0.85 L-0.35 -0.7 Q-0.25 -0.7 -0.25 -0.65 L-1.0 -0.3 Q-1.65 0.0 -1.75 0.0 -2.0 0.0 -2.2 -0.3 -2.3 -0.5 -2.3 -0.6 L-2.25 -1.45 Q-2.2 -1.25 -2.1 -1.1 L-2.05 -1.05 -1.8 -0.95 -1.25 -0.85 Q-1.0 -0.85 -0.65 -1.0 L-0.2 -1.3 Q0.15 -1.55 0.5 -1.65 1.3 -2.15 1.45 -2.15 1.5 -2.3 1.5 -2.05 M23.25 -10.95 L23.0 -11.0 23.1 -11.05 23.1 -11.1 Q23.2 -11.1 23.1 -11.4 L23.1 -11.5 23.15 -11.45 23.45 -11.35 23.5 -11.35 23.7 -11.25 Q23.8 -11.3 23.9 -11.2 L24.15 -11.1 24.3 -11.05 24.35 -11.0 Q24.45 -10.95 24.45 -10.85 24.45 -10.35 24.05 -9.8 24.05 -9.65 23.5 -9.25 L23.4 -9.15 22.95 -8.85 22.55 -8.55 22.7 -8.6 22.4 -8.35 22.35 -8.35 Q22.0 -8.05 22.0 -7.9 L22.4 -7.4 Q22.4 -7.25 22.3 -7.1 L22.25 -7.1 Q22.2 -6.95 22.2 -6.85 L22.2 -6.8 Q22.2 -6.65 22.3 -6.45 22.4 -6.2 22.4 -6.1 22.4 -5.5 21.85 -5.05 20.85 -4.25 18.6 -4.25 L17.9 -4.3 17.9 -4.35 17.6 -5.2 17.6 -5.4 17.7 -5.4 18.4 -5.05 Q18.95 -4.95 19.1 -4.85 L19.15 -4.85 Q19.85 -4.85 20.85 -5.7 L21.3 -6.05 21.55 -6.3 Q21.8 -6.55 21.8 -6.65 21.8 -6.75 21.6 -7.0 L21.55 -7.1 21.4 -7.25 Q21.05 -7.7 21.05 -8.05 21.05 -8.45 21.45 -8.8 21.65 -9.0 22.25 -9.3 22.85 -9.65 23.05 -9.8 23.45 -10.15 23.45 -10.55 L23.4 -10.95 23.25 -10.95 M22.5 -11.8 L23.15 -12.65 Q23.5 -13.2 23.3 -13.6 L23.35 -13.65 23.25 -13.8 Q23.25 -13.9 23.3 -13.9 L23.35 -13.9 23.45 -13.85 23.5 -13.85 Q23.75 -13.6 23.8 -13.45 L23.85 -13.3 Q23.85 -12.85 23.75 -12.55 L23.7 -12.35 23.55 -12.05 23.35 -11.75 22.75 -11.7 22.6 -11.7 Q22.5 -11.75 22.5 -11.8 M17.2 -10.25 Q17.2 -10.5 17.5 -10.6 L17.3 -9.9 17.2 -10.25 M17.15 -9.55 Q16.7 -8.65 15.85 -8.65 15.35 -8.65 15.0 -9.05 L14.8 -9.45 14.85 -9.55 15.25 -9.4 15.45 -9.3 15.65 -9.3 Q16.85 -9.3 17.15 -9.55 M16.65 -6.15 L16.7 -5.95 Q16.7 -5.8 16.4 -5.35 16.1 -4.9 15.85 -4.9 L15.55 -4.9 Q15.5 -4.95 15.4 -5.0 15.35 -5.4 15.5 -5.7 15.8 -6.2 16.65 -6.2 L16.65 -6.15 M15.9 -4.05 Q16.35 -4.3 16.8 -3.95 L16.85 -3.95 16.85 -3.65 16.8 -3.65 Q16.75 -3.65 16.75 -3.7 L16.7 -3.8 Q16.6 -3.75 16.6 -3.7 L16.65 -3.65 Q16.5 -3.65 16.45 -3.7 L16.35 -3.8 16.2 -3.65 16.2 -3.6 Q16.15 -3.55 16.15 -3.45 L16.15 -3.35 16.3 -3.2 16.55 -3.2 16.9 -3.25 16.95 -3.15 Q16.85 -3.0 16.6 -2.85 16.4 -2.7 16.35 -2.7 16.05 -2.7 15.85 -2.9 15.65 -3.0 15.6 -3.25 15.5 -3.4 15.5 -3.6 15.5 -3.85 15.9 -4.05 M15.65 -0.65 Q15.1 0.0 13.75 0.0 13.25 0.0 13.0 -0.3 12.9 -0.5 12.9 -0.65 12.9 -0.8 12.95 -0.9 L13.1 -1.0 Q13.4 -0.85 13.8 -0.7 L14.2 -0.6 Q15.1 -0.6 15.45 -1.25 L15.7 -1.7 Q15.8 -1.9 16.0 -1.9 L16.05 -1.85 Q16.0 -1.85 15.95 -1.5 15.9 -1.15 15.8 -0.9 L15.65 -0.65 M21.95 -7.0 L22.0 -7.0 21.9 -7.05 21.95 -7.0 M18.1 -4.55 Q17.95 -4.6 17.9 -4.7 17.95 -4.55 18.1 -4.55 M18.55 3.65 L18.45 3.5 18.4 3.4 Q18.45 3.35 18.5 3.3 L18.75 3.45 19.1 3.5 19.05 3.85 19.05 4.2 Q19.05 4.6 19.15 4.85 19.35 5.4 20.05 5.4 22.15 5.4 22.9 4.1 L23.1 3.7 23.1 3.6 Q23.1 3.4 23.25 3.3 23.3 3.0 23.3 2.6 23.3 2.4 23.15 2.15 L22.8 1.65 22.8 1.2 23.15 1.25 23.3 1.3 23.5 1.35 23.6 1.4 23.7 1.4 Q23.95 1.55 24.0 1.7 L24.0 1.8 Q24.1 1.95 24.1 2.25 24.1 2.45 24.05 2.5 L23.75 2.9 23.7 3.05 23.8 3.2 Q23.9 3.4 23.9 3.5 23.9 3.7 23.65 4.1 23.35 4.65 22.9 5.1 21.7 6.4 20.3 6.4 20.05 6.4 19.5 6.1 18.9 5.75 18.6 5.65 18.6 5.4 18.65 4.85 L18.75 4.2 Q18.75 4.0 18.7 3.85 L18.55 3.65 M21.95 0.85 L21.8 0.65 Q21.7 0.5 21.7 0.3 L21.75 -0.05 Q21.8 -0.25 21.85 -0.4 22.2 -1.05 22.85 -0.9 22.85 -0.85 22.9 -0.8 L23.1 -0.6 Q23.25 -0.5 23.2 -0.45 23.15 -0.35 23.0 -0.35 22.6 -0.3 22.6 -0.65 L22.35 -0.45 Q22.3 -0.4 22.3 -0.35 22.3 -0.15 22.35 -0.05 L22.5 0.1 22.7 0.35 22.8 0.35 Q22.95 0.2 23.65 0.4 23.55 0.55 23.5 0.7 L23.5 0.9 Q23.45 1.0 22.8 1.0 L22.5 1.0 Q22.15 1.0 21.95 0.85 M36.15 -16.3 Q36.2 -16.75 36.2 -17.45 36.2 -17.65 36.25 -17.9 36.35 -18.2 36.55 -18.45 36.9 -18.95 36.9 -19.65 36.9 -19.9 36.7 -20.05 36.4 -20.3 35.8 -20.3 35.45 -20.3 35.35 -20.0 L35.3 -19.7 Q35.3 -19.5 35.45 -19.4 35.65 -19.3 36.1 -19.4 L36.15 -19.35 36.15 -19.2 Q36.15 -19.0 35.7 -18.65 L35.45 -18.45 Q35.2 -18.3 35.05 -18.3 34.85 -18.3 34.65 -18.4 34.45 -18.5 34.35 -18.8 34.3 -19.0 34.3 -19.25 34.25 -19.3 34.25 -19.4 34.25 -19.75 34.5 -20.1 34.75 -20.5 35.15 -20.65 L35.65 -21.05 Q35.85 -21.25 35.85 -21.45 L35.75 -21.95 35.75 -22.1 35.65 -22.45 Q35.65 -22.6 35.75 -23.0 L35.75 -23.1 35.8 -23.3 35.85 -23.75 Q35.85 -24.3 35.7 -24.95 35.6 -25.35 35.45 -25.6 L35.15 -26.0 35.1 -26.05 Q34.95 -26.15 34.75 -26.2 34.6 -26.15 34.55 -26.0 34.5 -25.85 34.3 -25.75 L34.4 -25.9 34.45 -26.0 Q34.5 -26.1 34.5 -26.25 34.5 -26.4 34.85 -26.45 L35.05 -26.5 35.3 -26.55 35.5 -26.55 Q35.65 -26.65 36.0 -26.45 L36.15 -26.4 36.1 -26.4 Q36.65 -26.2 36.65 -25.7 L36.6 -23.55 Q36.6 -23.45 36.5 -23.15 36.35 -22.9 36.35 -22.75 36.35 -22.65 36.45 -22.35 L36.6 -21.95 36.65 -21.9 Q36.85 -21.35 36.9 -21.3 37.75 -21.3 38.0 -21.0 38.1 -20.85 38.1 -20.6 38.1 -20.25 37.95 -19.9 L37.55 -19.3 Q36.95 -18.4 36.95 -17.25 36.95 -16.35 36.45 -15.2 35.8 -13.7 34.8 -13.7 34.4 -13.7 34.05 -14.05 33.8 -14.3 33.7 -14.55 L33.7 -14.65 33.85 -14.5 Q34.0 -14.4 34.15 -14.4 L34.25 -14.4 Q34.75 -14.6 35.1 -14.85 35.5 -15.15 35.75 -15.5 L36.0 -15.85 36.1 -16.1 36.15 -16.3 M31.8 -26.65 L31.8 -26.6 32.2 -26.2 32.3 -26.2 32.3 -25.95 32.15 -25.95 31.85 -25.9 Q31.4 -25.9 31.3 -26.15 31.25 -26.25 31.3 -26.35 31.3 -27.05 31.95 -27.05 32.8 -27.05 33.05 -26.45 33.1 -26.25 33.1 -25.8 L33.15 -25.4 Q33.1 -25.1 32.9 -25.1 L32.45 -25.15 Q32.4 -25.15 32.4 -25.3 32.4 -25.45 32.6 -25.6 L32.8 -25.8 Q32.8 -26.05 32.05 -26.7 L31.8 -26.65 M31.5 -26.6 L31.45 -26.45 31.45 -26.5 31.5 -26.6 M25.3 -26.6 L25.25 -26.4 Q25.25 -26.1 25.4 -25.45 L25.55 -24.55 Q25.6 -24.1 26.4 -23.65 27.2 -23.25 27.2 -22.85 27.2 -21.65 27.0 -21.25 26.7 -20.6 25.15 -19.45 L24.95 -19.45 Q24.9 -19.45 24.9 -19.6 24.9 -19.9 25.45 -20.7 26.05 -21.65 26.25 -22.5 25.0 -22.95 25.0 -23.75 L25.1 -24.5 Q25.1 -24.95 24.9 -25.3 L24.75 -24.85 Q24.65 -24.55 24.65 -24.35 L24.55 -24.25 Q24.4 -24.35 24.4 -24.4 24.35 -24.45 24.35 -24.65 L24.3 -25.05 Q24.25 -25.4 24.3 -25.7 24.4 -26.65 25.3 -26.65 L25.3 -26.6 M24.55 -25.4 L24.5 -25.4 24.55 -25.35 24.55 -25.4 M24.8 -26.35 L24.85 -26.4 24.8 -26.4 24.75 -26.35 24.8 -26.35 M26.3 -16.4 Q26.35 -16.65 26.65 -16.8 27.0 -16.95 27.2 -16.7 L27.2 -16.55 Q27.2 -16.4 27.0 -16.25 L26.6 -16.05 26.5 -16.1 26.35 -16.05 26.3 -16.1 26.25 -16.1 Q26.2 -16.1 26.15 -16.15 L26.15 -16.4 26.3 -16.4 M27.3 -16.1 Q28.05 -16.55 28.6 -15.95 29.15 -15.3 29.15 -14.4 29.15 -14.15 28.75 -13.55 L28.35 -12.95 28.3 -12.85 27.4 -12.85 26.6 -12.95 26.55 -13.0 Q26.55 -13.05 26.5 -13.1 L26.45 -13.15 Q26.25 -13.35 26.25 -13.6 L26.3 -13.8 26.3 -13.85 26.4 -13.85 26.55 -13.5 26.55 -13.55 26.65 -13.35 Q26.8 -13.1 27.0 -13.1 27.2 -13.1 27.4 -13.25 L27.35 -13.35 Q27.35 -13.45 27.6 -13.6 L27.75 -13.75 27.85 -14.1 Q27.95 -14.55 28.0 -14.95 L28.0 -15.15 Q27.65 -15.55 26.8 -15.7 L27.05 -15.95 27.2 -16.05 27.3 -16.1 M27.1 -16.55 L27.1 -16.55 M27.95 -14.25 L27.8 -13.8 Q28.2 -14.05 28.2 -14.4 28.2 -14.7 28.1 -14.9 L27.95 -14.25 M31.05 -18.8 L31.35 -18.55 Q31.15 -18.2 31.1 -18.2 L31.0 -18.3 30.75 -18.25 Q30.65 -18.2 30.65 -18.05 30.65 -17.35 30.75 -17.1 31.0 -16.5 31.75 -16.85 L31.9 -17.05 Q32.1 -17.3 32.1 -17.45 L32.05 -17.5 31.8 -17.6 31.4 -17.75 Q31.55 -17.95 31.8 -17.95 32.5 -17.95 32.7 -17.65 32.7 -17.55 32.7 -17.2 32.7 -16.8 32.45 -16.5 32.1 -16.05 31.25 -16.05 L30.95 -16.1 30.3 -16.15 Q30.25 -16.45 30.2 -16.8 L30.1 -17.3 Q30.1 -18.0 30.15 -18.15 30.25 -18.4 30.45 -18.55 L30.7 -18.7 Q30.85 -18.85 31.05 -18.8 M31.25 -13.35 L31.2 -13.35 30.85 -13.8 Q30.65 -13.65 30.4 -13.25 30.2 -12.9 30.2 -12.8 L30.25 -12.7 30.25 -12.65 30.35 -12.45 Q30.5 -12.25 30.7 -12.2 L30.7 -12.0 30.7 -11.95 Q30.45 -12.15 29.95 -12.35 29.6 -12.45 29.6 -12.8 29.6 -13.35 30.05 -13.75 30.3 -13.95 30.5 -13.95 L30.6 -14.0 30.7 -14.0 30.7 -13.9 Q31.0 -13.8 31.25 -13.4 L31.25 -13.35 M32.55 -11.7 L32.55 -11.6 32.4 -11.45 32.35 -11.45 32.3 -11.5 32.25 -11.65 Q31.9 -11.6 31.75 -11.4 L31.8 -11.3 31.9 -11.15 32.0 -11.1 32.3 -11.1 32.6 -11.15 Q32.95 -11.2 33.3 -11.4 33.6 -11.55 34.0 -11.85 34.0 -11.65 34.15 -11.2 L34.2 -10.9 34.25 -10.65 34.25 -10.4 Q34.1 -9.85 33.5 -9.0 L33.5 -8.95 33.4 -8.85 Q32.7 -7.9 32.7 -7.6 32.7 -7.45 32.8 -7.25 L32.85 -6.9 33.2 -6.9 33.65 -7.0 33.85 -7.0 34.8 -6.9 34.85 -6.9 Q35.1 -6.65 35.15 -6.35 L35.2 -6.0 Q35.2 -5.15 34.6 -4.25 34.4 -4.0 34.2 -3.8 33.8 -3.4 33.3 -3.3 L33.0 -3.25 Q32.6 -3.25 32.15 -3.35 L31.85 -3.35 31.75 -3.35 31.35 -3.35 Q31.15 -2.9 30.9 -2.6 30.55 -2.15 30.05 -2.05 L29.7 -2.0 Q29.2 -2.0 29.1 -2.25 29.05 -2.35 28.95 -2.7 L29.0 -2.85 Q29.4 -2.5 29.9 -3.0 30.1 -3.2 30.5 -3.8 30.7 -4.05 31.25 -4.1 L31.3 -4.1 31.8 -4.15 Q32.1 -4.25 32.3 -4.35 L32.4 -4.4 Q32.75 -4.6 32.9 -4.8 32.95 -4.9 32.95 -5.1 32.95 -5.4 32.3 -6.0 L32.05 -6.25 31.9 -6.45 31.8 -6.6 Q31.7 -6.75 31.7 -6.85 L31.65 -6.9 Q31.65 -7.0 31.8 -7.3 L32.35 -8.15 Q32.65 -8.65 32.8 -9.1 33.0 -9.55 33.0 -10.0 L33.0 -10.55 Q32.85 -10.85 32.4 -10.85 32.3 -10.85 32.15 -10.7 L32.1 -10.65 31.95 -10.55 Q31.7 -10.2 31.35 -10.2 L31.15 -10.25 31.0 -10.3 31.0 -11.35 31.2 -11.55 31.35 -11.8 Q31.5 -12.05 31.8 -12.1 L31.95 -12.1 31.95 -12.15 Q32.2 -12.15 32.35 -12.05 L32.45 -11.9 32.55 -11.7 M23.75 -10.95 L23.7 -10.95 23.7 -10.9 23.75 -10.95 M25.65 -0.9 L26.65 -0.75 27.1 -0.7 Q27.25 -0.7 27.5 -0.8 27.8 -0.9 27.95 -1.0 L28.15 -0.85 Q28.2 -0.8 28.2 -0.6 28.2 -0.3 27.65 -0.1 27.1 0.1 26.35 0.1 25.7 0.1 25.5 -0.2 L25.45 -0.5 Q25.45 -0.7 25.55 -0.75 L25.65 -0.9 M31.05 -4.05 L31.05 -4.05 M29.35 -2.45 L29.35 -2.45 M19.8 6.0 L19.75 6.0 19.85 6.05 19.8 6.0 M13.15 6.4 Q12.25 6.4 11.15 6.05 L10.9 5.95 Q9.95 5.6 9.95 5.25 9.95 5.05 10.15 4.6 10.4 4.15 10.45 3.75 L9.35 3.5 8.55 3.3 8.3 3.2 8.3 3.15 8.05 2.95 7.85 2.95 7.95 3.0 7.9 3.05 7.65 3.05 6.7 2.95 6.45 2.65 Q6.3 2.45 6.3 2.35 6.3 2.25 6.4 2.05 L6.5 1.85 6.7 1.6 Q6.85 1.4 7.05 1.25 L7.1 1.2 7.2 1.15 7.15 1.15 Q7.35 1.0 7.55 1.0 L7.6 0.95 7.65 1.1 7.4 1.3 7.2 1.4 6.9 1.7 Q7.25 2.15 9.3 2.65 9.75 2.7 10.1 2.9 10.65 3.05 11.0 3.2 L11.2 3.3 Q11.4 3.4 11.4 3.5 11.4 3.65 11.1 4.05 10.8 4.45 10.8 4.5 10.8 4.7 11.0 5.05 11.25 5.5 11.65 5.5 14.05 5.5 14.95 4.85 L15.15 4.65 Q15.35 4.45 15.5 4.1 15.75 3.7 15.95 3.5 L16.0 3.6 16.0 3.8 Q16.0 4.0 15.85 4.25 L15.6 4.75 15.6 4.8 Q15.6 5.1 14.85 5.7 L14.25 6.1 Q13.7 6.4 13.15 6.4 M11.3 5.75 L11.3 5.8 11.35 5.8 11.3 5.75 M-1.05 4.55 L-1.2 4.55 -1.5 4.5 Q-1.5 4.65 -1.55 4.85 L-1.6 5.15 Q-1.6 5.4 -1.4 5.55 -1.1 5.8 -0.6 5.8 -0.3 5.8 0.8 5.3 L2.15 4.7 2.2 4.7 Q2.25 4.7 2.25 4.85 2.25 5.15 1.05 5.7 -0.2 6.3 -0.95 6.3 -1.75 6.3 -2.1 5.7 -2.3 5.4 -2.3 5.1 -2.3 4.65 -1.9 4.4 -1.5 4.1 -0.95 4.45 L-0.9 4.5 -0.95 4.55 -1.05 4.55 M-30.55 -16.55 Q-31.0 -16.6 -31.35 -16.85 L-31.35 -16.9 -31.45 -16.95 -31.55 -17.05 Q-31.75 -17.25 -31.75 -17.4 -31.75 -17.5 -31.45 -17.9 -31.15 -18.3 -31.15 -18.4 -31.15 -18.55 -32.4 -19.65 -33.6 -20.75 -33.95 -20.75 -34.4 -20.75 -34.5 -20.55 -34.55 -20.45 -34.55 -20.3 -34.55 -20.1 -34.4 -19.65 -34.2 -19.15 -34.15 -19.05 L-34.0 -18.5 Q-33.85 -18.15 -33.85 -17.95 L-34.05 -17.7 Q-34.2 -17.45 -34.2 -17.35 L-34.0 -16.85 -33.8 -16.4 -33.75 -16.4 -33.65 -16.35 Q-33.55 -16.3 -33.5 -16.25 L-33.55 -16.25 -34.05 -16.2 -34.1 -16.2 Q-34.4 -16.3 -34.6 -16.6 -34.85 -16.95 -34.85 -17.3 -34.85 -17.5 -34.7 -17.75 L-34.55 -18.05 -34.55 -18.15 Q-34.55 -18.8 -34.75 -19.1 -34.85 -19.25 -35.1 -19.4 -35.4 -19.55 -35.5 -19.75 -35.6 -19.95 -35.65 -20.3 L-35.65 -20.9 Q-35.65 -22.35 -34.0 -21.45 -33.3 -21.1 -31.9 -20.0 -31.75 -19.8 -30.95 -18.45 L-30.95 -18.4 -31.0 -18.2 -30.95 -18.2 -30.85 -18.05 -30.85 -18.0 -30.8 -17.95 -30.85 -17.9 -30.9 -17.9 -30.95 -17.85 Q-31.05 -17.7 -31.05 -17.55 -31.05 -17.35 -30.95 -17.2 -30.85 -17.15 -30.8 -17.1 -30.65 -17.0 -30.4 -17.0 L-30.25 -17.0 Q-30.1 -17.0 -30.0 -17.3 L-29.95 -17.25 -29.75 -17.1 -29.75 -17.0 -29.9 -17.0 -29.85 -16.85 -29.85 -16.8 -29.8 -16.75 -29.75 -16.55 -29.95 -16.55 -30.3 -16.5 -30.55 -16.5 -30.55 -16.55 M-29.1 -16.1 Q-29.1 -16.5 -28.85 -16.8 L-28.8 -16.9 Q-28.65 -17.1 -28.4 -17.15 -28.1 -17.2 -27.9 -17.05 -27.75 -16.9 -27.7 -16.65 L-27.7 -16.4 Q-27.7 -16.25 -27.7 -16.3 L-27.75 -16.35 -27.75 -16.3 Q-27.85 -16.35 -27.95 -16.5 L-28.05 -16.65 -28.1 -16.7 Q-28.35 -16.65 -28.45 -16.55 L-28.5 -16.35 -28.45 -16.1 Q-28.35 -16.0 -28.2 -15.8 L-28.2 -15.75 Q-28.3 -15.65 -28.55 -15.65 -28.75 -15.65 -28.85 -15.75 L-28.9 -15.75 -29.05 -15.85 Q-29.1 -15.9 -29.1 -16.1 M-24.2 -15.9 L-24.45 -16.25 -24.95 -17.05 -25.15 -17.3 -25.05 -17.25 -24.95 -17.4 -24.95 -17.5 -24.9 -17.55 Q-24.9 -17.7 -25.15 -17.95 -25.4 -18.2 -25.7 -18.2 -25.75 -18.2 -25.8 -18.15 L-25.85 -18.05 -25.9 -18.05 -25.8 -17.9 Q-26.05 -18.05 -26.3 -18.05 -26.8 -18.05 -27.1 -17.2 -27.1 -17.0 -27.0 -16.75 L-27.0 -16.7 -27.1 -16.7 Q-27.3 -16.7 -27.45 -16.85 L-27.5 -16.95 -27.55 -16.95 -27.55 -17.2 Q-27.55 -17.45 -27.3 -17.8 -27.0 -18.2 -26.6 -18.45 -25.55 -19.15 -24.8 -18.4 -24.6 -18.25 -24.5 -17.9 L-24.3 -17.3 Q-24.2 -17.05 -24.0 -16.9 -23.7 -16.65 -23.1 -16.6 L-22.85 -16.6 -22.85 -16.0 Q-22.9 -15.9 -23.15 -15.65 -23.5 -15.4 -23.7 -15.4 L-24.3 -15.4 Q-24.3 -15.5 -24.1 -15.7 L-24.05 -15.8 -24.2 -15.9 M-28.8 -16.35 L-28.8 -16.35 M-33.5 -13.15 L-33.55 -13.1 -33.6 -13.2 -33.7 -13.35 -33.85 -13.6 -33.85 -13.65 Q-33.95 -13.95 -34.55 -13.95 -35.3 -13.95 -35.75 -13.65 -36.05 -13.45 -36.05 -13.35 -36.05 -13.2 -35.9 -12.75 -35.75 -12.3 -35.75 -12.15 -35.75 -11.65 -35.95 -11.3 -36.25 -10.85 -36.8 -10.8 L-37.1 -10.75 Q-37.35 -10.75 -37.55 -11.0 L-37.6 -11.0 Q-37.8 -11.3 -37.9 -11.3 -38.05 -11.3 -38.1 -11.25 -38.2 -11.15 -38.35 -11.15 L-38.35 -10.85 Q-38.35 -10.7 -38.25 -10.5 L-38.05 -10.15 -38.1 -10.1 -38.25 -10.05 Q-38.75 -10.05 -39.0 -10.5 -39.15 -10.7 -39.2 -10.95 -39.2 -11.1 -38.9 -11.6 -38.6 -12.15 -38.45 -12.15 -38.25 -12.15 -37.7 -11.6 -37.15 -11.1 -37.0 -11.1 -36.5 -11.1 -36.2 -11.55 -36.0 -11.85 -36.0 -12.1 -36.0 -12.6 -36.3 -12.95 -36.4 -13.05 -36.65 -13.25 L-36.9 -13.4 Q-37.3 -13.65 -37.5 -13.85 -37.75 -14.15 -37.75 -14.65 -37.75 -15.35 -37.6 -15.5 L-37.5 -15.55 -37.2 -15.5 -37.25 -15.5 Q-37.15 -15.5 -37.05 -15.4 L-36.95 -15.35 -37.0 -15.4 Q-36.8 -15.3 -36.45 -15.0 -36.05 -14.65 -35.6 -14.65 -35.0 -14.65 -34.55 -14.4 L-33.95 -14.05 -33.8 -13.95 -33.85 -14.0 -33.65 -14.0 Q-33.5 -14.0 -33.5 -13.9 L-33.5 -13.7 -33.4 -13.65 -33.5 -13.65 -33.5 -13.55 -33.45 -13.45 -33.4 -13.4 -33.45 -13.25 -33.5 -13.25 -33.5 -13.15 M-37.6 -9.3 L-37.55 -9.3 Q-37.55 -9.25 -37.6 -9.1 -37.65 -9.0 -37.65 -8.85 -37.65 -8.6 -37.6 -8.55 -37.5 -8.45 -36.85 -8.25 L-36.8 -8.25 -36.8 -8.1 -37.35 -8.1 Q-38.05 -8.25 -38.2 -8.45 -38.25 -8.5 -38.25 -8.8 -38.25 -8.95 -38.2 -9.05 L-38.05 -9.25 -38.0 -9.2 -37.8 -9.35 -37.75 -9.4 -37.75 -9.35 -37.65 -9.4 Q-37.6 -9.45 -37.6 -9.3 M-38.1 -8.8 L-38.1 -8.8 M-35.0 -6.85 Q-35.45 -6.75 -35.55 -6.55 -35.6 -6.45 -35.6 -6.15 L-35.55 -6.0 -35.4 -5.9 -35.0 -5.55 -35.0 -5.45 -35.1 -5.35 Q-35.85 -5.4 -35.9 -5.55 L-35.9 -5.65 -35.95 -5.7 -35.95 -5.75 -36.0 -5.8 -36.0 -5.85 -36.1 -6.05 Q-36.2 -6.3 -36.05 -6.8 -35.85 -7.3 -35.55 -7.2 -35.3 -7.15 -35.1 -7.0 L-35.1 -6.95 Q-35.15 -6.95 -35.2 -6.95 -35.05 -6.9 -35.0 -6.85 M-36.0 -6.35 L-35.95 -6.5 -36.05 -6.35 -36.0 -6.35 M-24.05 -13.85 L-24.15 -13.85 -24.25 -13.8 Q-24.3 -13.9 -24.4 -13.9 -25.2 -13.9 -25.3 -13.5 -25.35 -13.4 -25.3 -13.25 L-25.25 -13.1 -25.4 -12.95 -25.65 -12.95 Q-25.7 -13.0 -25.7 -13.15 -25.7 -13.5 -25.65 -13.7 -25.5 -14.05 -25.2 -14.15 L-24.15 -14.1 -23.95 -14.0 -23.95 -13.95 -24.05 -13.85 M-27.7 -6.25 L-27.4 -6.3 -27.35 -6.3 Q-27.0 -6.45 -26.8 -6.9 -26.65 -7.25 -26.65 -7.6 -26.65 -8.1 -26.9 -8.45 L-27.05 -8.8 -27.15 -8.95 Q-27.15 -9.15 -27.05 -9.3 L-26.95 -9.45 Q-26.75 -9.6 -26.45 -9.5 -25.9 -9.35 -25.75 -8.75 L-25.7 -8.5 -25.9 -8.6 -26.0 -8.7 -26.0 -8.85 -26.45 -8.8 Q-26.45 -8.6 -26.35 -8.15 -26.25 -7.7 -26.25 -7.6 -26.25 -7.55 -26.3 -7.35 L-26.4 -7.25 -26.6 -6.85 -26.65 -6.7 -26.85 -6.3 Q-27.15 -5.9 -27.35 -5.8 L-27.95 -5.85 -28.05 -6.0 Q-28.15 -6.1 -28.25 -6.1 L-28.35 -6.1 -28.65 -6.05 Q-28.8 -6.05 -28.9 -5.95 L-28.95 -5.9 Q-29.1 -5.8 -29.1 -5.7 L-28.9 -5.4 -28.7 -5.15 -28.7 -4.95 -29.15 -4.95 -29.45 -5.0 -29.55 -5.4 -29.6 -5.8 Q-29.6 -6.05 -29.4 -6.4 L-29.4 -6.45 Q-29.15 -6.95 -28.8 -6.95 L-28.6 -6.9 Q-28.3 -6.85 -28.15 -6.6 L-28.1 -6.5 -28.1 -6.45 -27.9 -6.3 -27.75 -6.25 -27.7 -6.25 M-25.35 -8.45 L-25.3 -8.45 -25.1 -8.15 -24.95 -8.0 Q-24.35 -8.0 -24.3 -8.1 -24.2 -8.35 -24.05 -8.5 L-24.05 -8.6 -24.4 -8.9 -24.5 -8.9 -24.75 -9.05 -24.7 -9.1 -24.7 -9.15 -24.05 -8.85 Q-23.95 -8.8 -23.95 -8.6 -23.95 -8.15 -24.15 -7.75 -24.4 -7.2 -24.9 -7.2 L-25.65 -7.25 -25.65 -7.3 -25.7 -7.5 -25.75 -7.6 -25.75 -7.8 Q-25.75 -8.0 -25.65 -8.15 -25.6 -8.35 -25.35 -8.45 M-28.55 -9.55 L-28.95 -9.55 -29.15 -9.5 -29.2 -9.55 -29.2 -9.7 Q-29.2 -10.25 -28.55 -10.15 -27.9 -10.05 -27.9 -9.45 -27.9 -9.2 -28.05 -9.05 -28.25 -8.8 -28.85 -8.8 -29.5 -8.8 -29.8 -9.2 -29.9 -9.4 -29.9 -9.6 L-29.9 -9.9 Q-29.8 -10.15 -29.55 -10.2 L-29.5 -10.15 Q-29.45 -10.15 -29.45 -10.0 -29.45 -9.85 -29.55 -9.8 -29.65 -9.75 -29.65 -9.6 L-29.55 -9.3 Q-29.45 -9.1 -29.4 -9.1 -29.25 -9.1 -28.95 -9.25 -28.7 -9.4 -28.55 -9.5 L-28.55 -9.55 M-31.15 -11.05 Q-30.9 -10.95 -30.9 -10.65 -30.9 -10.5 -30.95 -10.45 L-31.0 -10.35 Q-31.1 -10.35 -31.2 -10.5 -31.3 -10.65 -31.45 -10.65 -31.65 -10.65 -31.8 -10.55 L-31.9 -10.35 -31.9 -10.25 -31.75 -9.7 -31.75 -9.6 -31.9 -9.6 Q-32.2 -9.6 -32.35 -9.8 -32.45 -9.95 -32.45 -10.05 -32.45 -10.8 -31.7 -11.05 -31.4 -11.15 -31.15 -11.05 M-27.2 -3.5 Q-26.65 -3.6 -26.45 -3.15 -26.3 -2.5 -26.2 -2.25 L-26.2 -1.2 -26.25 -1.2 -26.65 -1.25 -26.85 -1.35 -27.15 -1.6 -27.3 -1.45 Q-27.4 -1.3 -27.4 -1.15 -27.4 -0.8 -26.85 -0.15 -26.15 0.6 -25.45 0.6 L-24.75 0.55 Q-24.6 0.5 -24.55 0.4 L-24.5 0.25 Q-24.35 0.1 -23.4 0.1 -23.25 0.1 -23.2 0.15 L-23.2 0.35 Q-23.45 0.35 -24.45 1.05 -25.4 1.7 -25.8 1.7 -27.2 1.7 -28.15 0.6 -28.45 0.2 -28.65 -0.25 -28.8 -0.6 -28.8 -0.75 -28.8 -1.4 -28.2 -1.75 L-27.45 -1.8 Q-27.35 -1.85 -27.25 -1.95 L-26.95 -2.25 Q-26.7 -2.55 -26.7 -2.7 -26.7 -2.8 -26.85 -3.0 L-27.05 -3.2 -27.25 -3.25 Q-27.2 -3.35 -27.3 -3.5 L-27.2 -3.5 M-18.9 1.05 Q-18.9 0.85 -18.8 0.7 -18.5 0.25 -17.5 0.15 L-16.95 0.1 Q-16.7 -0.15 -16.6 -0.3 -16.55 -0.4 -16.55 -0.5 -16.55 -0.65 -16.6 -0.85 L-16.8 -1.1 -17.95 -1.15 -18.1 -1.35 -18.2 -1.5 Q-18.25 -1.6 -18.25 -1.75 -18.25 -2.25 -18.15 -2.4 L-18.15 -2.45 Q-18.0 -2.6 -17.7 -2.7 L-17.05 -2.75 -16.95 -2.75 -17.15 -2.65 Q-17.4 -2.45 -17.6 -2.2 -17.9 -1.9 -17.9 -1.75 -17.9 -1.6 -17.6 -1.5 L-16.95 -1.35 Q-16.5 -1.2 -16.25 -1.0 -16.0 -0.8 -16.0 -0.55 -16.0 -0.3 -16.45 0.25 L-16.95 0.75 -17.55 0.8 Q-17.85 1.1 -17.95 1.35 -18.1 1.55 -18.1 1.65 -18.1 2.1 -17.9 2.4 -17.6 2.8 -16.9 2.8 -16.2 2.8 -16.05 2.6 L-15.95 2.35 -15.7 2.1 -15.65 2.15 Q-15.05 2.55 -14.25 3.5 L-14.15 3.6 -14.05 3.6 -13.8 3.95 Q-13.55 4.25 -13.25 4.25 L-13.25 4.3 Q-12.95 4.15 -12.85 3.9 -12.9 3.7 -13.55 3.65 -13.55 3.45 -13.5 3.4 L-12.75 3.3 -12.1 3.2 -11.1 3.1 -10.85 3.1 Q-10.8 3.1 -10.8 3.25 -10.8 3.65 -12.1 4.25 L-13.6 4.85 -13.9 4.85 -13.7 4.9 -13.75 5.0 Q-13.85 5.05 -14.0 5.05 -14.45 5.05 -14.65 4.45 L-14.75 3.85 Q-15.05 3.65 -15.85 3.5 L-15.9 3.35 Q-15.9 3.25 -16.05 3.25 -16.3 3.25 -16.5 3.4 -16.65 3.5 -16.8 3.6 -17.85 3.55 -18.4 3.15 -18.65 2.95 -18.8 2.7 -18.9 2.45 -18.95 2.1 L-18.9 1.65 -18.95 1.15 -18.9 1.05 M-16.15 -2.8 L-16.55 -2.8 -16.75 -2.85 -16.8 -2.85 Q-16.85 -2.85 -16.85 -3.0 -16.8 -3.2 -16.5 -3.45 -16.2 -3.7 -15.85 -3.7 L-15.75 -3.7 -15.7 -3.6 Q-15.65 -3.25 -15.7 -3.05 L-15.75 -3.0 Q-15.85 -2.85 -16.15 -2.8 M-5.95 -4.85 Q-5.8 -4.9 -5.65 -4.95 -5.6 -5.0 -5.6 -4.8 -5.6 -4.75 -5.65 -4.7 L-5.8 -4.55 Q-6.0 -4.45 -6.0 -4.35 L-5.65 -3.7 -5.65 -3.65 -5.6 -3.5 Q-5.6 -3.0 -6.05 -2.65 -6.5 -2.35 -6.5 -2.1 -6.5 -1.9 -5.6 -1.6 -4.65 -1.3 -3.6 -1.2 L-3.6 -1.0 -3.65 -1.05 -3.85 -1.05 -4.1 -0.95 Q-4.3 -0.8 -4.5 -0.8 L-5.05 -0.85 Q-5.75 -0.95 -6.35 -1.35 -6.65 -1.55 -6.8 -1.7 -7.0 -1.9 -7.0 -2.05 -7.0 -2.55 -6.55 -2.8 -6.05 -3.05 -6.05 -3.3 -6.05 -3.35 -6.3 -3.65 -6.55 -3.95 -6.55 -4.05 -6.55 -4.25 -6.45 -4.4 L-6.4 -4.55 Q-6.35 -4.65 -6.25 -4.6 L-5.95 -4.85 M-4.35 0.55 Q-4.2 0.65 -4.2 0.9 -4.2 1.15 -4.45 1.5 -4.75 1.95 -5.15 1.85 L-5.3 1.65 -5.35 1.6 -5.35 1.15 -5.0 1.2 Q-4.85 1.2 -4.7 1.1 L-4.45 0.9 -4.45 0.8 Q-4.45 0.65 -4.55 0.65 L-4.9 0.6 Q-4.5 0.4 -4.35 0.55 M-5.2 1.65 L-5.2 1.7 -5.15 1.7 -5.2 1.65 M-5.25 3.15 Q-5.25 3.3 -5.4 3.45 L-5.55 3.6 Q-5.95 3.6 -6.15 3.45 -6.25 3.3 -6.25 3.2 -6.25 2.65 -5.75 2.75 -5.25 2.85 -5.25 3.15 M-2.95 4.6 L-4.05 5.4 -5.15 6.15 -5.6 6.15 -5.35 6.25 -5.35 6.3 -6.0 6.15 Q-6.5 6.15 -6.85 6.05 L-7.1 5.95 -7.55 5.6 Q-7.95 5.2 -7.95 4.85 -7.85 4.4 -7.65 4.0 -7.25 3.25 -6.65 3.75 L-6.85 4.25 -7.0 4.8 Q-7.0 4.95 -6.9 5.1 L-6.45 5.6 Q-4.75 5.5 -4.15 5.05 -4.0 4.95 -3.8 4.7 L-3.5 4.35 Q-3.4 4.4 -3.3 4.5 -3.25 4.55 -3.1 4.55 L-2.95 4.55 -2.95 4.6 M-5.35 6.0 L-5.15 6.0 -5.05 5.95 -5.35 6.0 M-7.35 2.0 Q-7.3 2.0 -7.3 2.15 -7.3 2.4 -7.9 2.65 -8.55 2.9 -9.3 2.9 -9.85 2.9 -10.25 2.45 -10.55 2.1 -10.55 1.95 -10.55 1.65 -10.4 1.3 L-10.3 1.15 Q-10.05 0.65 -9.55 0.65 L-9.3 0.7 -9.25 0.75 Q-9.25 0.8 -9.25 0.85 L-9.3 0.85 -9.5 0.8 -9.7 0.85 Q-9.9 0.85 -9.9 0.95 -9.9 1.05 -9.85 1.1 -10.1 1.4 -10.1 1.45 -10.1 1.65 -9.85 1.95 -9.6 2.3 -9.4 2.3 L-7.8 2.0 -7.35 2.0 M-7.0 3.75 L-6.95 3.7 -7.0 3.7 -7.05 3.8 -7.0 3.75" fill="#ffff93" fill-rule="evenodd" stroke="none"/>
    <path d="M11.55 -40.45 Q11.75 -40.3 12.05 -40.3 L12.2 -40.35 12.25 -40.45 12.3 -40.6 Q11.9 -40.7 11.8 -40.8 11.6 -40.95 11.6 -41.15 11.7 -41.15 11.85 -41.25 12.0 -41.35 12.15 -41.35 13.4 -41.35 13.9 -42.05 L14.35 -42.8 Q14.65 -43.35 14.95 -43.7 15.5 -43.65 15.7 -43.45 L15.9 -43.0 Q16.15 -42.35 18.0 -42.35 18.2 -42.4 18.45 -42.5 18.85 -42.8 19.4 -43.5 L19.35 -43.65 Q18.85 -43.75 18.7 -43.9 18.65 -43.95 18.65 -44.0 18.65 -44.25 19.8 -45.1 21.15 -46.05 22.1 -46.05 22.35 -46.05 22.75 -45.4 23.1 -44.8 23.1 -44.6 L22.7 -43.2 Q23.1 -43.55 23.25 -43.9 23.45 -44.25 23.45 -44.65 23.45 -45.25 23.15 -45.75 22.6 -46.55 21.4 -46.55 19.5 -46.55 18.7 -45.2 18.55 -44.95 18.15 -44.1 17.9 -43.5 17.65 -43.3 L17.0 -43.3 Q16.8 -43.3 16.6 -43.6 16.45 -43.75 16.2 -44.2 15.65 -45.05 14.7 -45.05 L14.3 -45.0 14.0 -44.95 13.95 -43.95 Q13.95 -43.55 13.8 -43.3 L13.7 -43.05 13.2 -42.55 12.75 -42.05 12.6 -41.95 Q12.35 -41.75 11.75 -41.75 11.15 -41.7 11.15 -41.35 L11.15 -41.2 Q11.15 -40.9 11.2 -40.8 10.95 -41.15 10.8 -41.5 10.8 -42.05 11.1 -42.2 L11.9 -42.25 Q12.5 -42.3 12.8 -42.45 13.3 -42.75 13.55 -43.55 13.65 -43.85 13.4 -44.95 13.35 -45.9 14.45 -45.9 15.35 -45.9 16.1 -45.05 L16.65 -44.5 Q16.9 -44.25 17.2 -44.25 17.6 -44.25 17.85 -44.6 L18.35 -45.5 Q19.15 -46.9 20.65 -47.3 23.05 -47.4 23.85 -46.4 24.2 -45.9 24.2 -45.0 24.2 -44.4 23.95 -43.7 23.5 -42.6 22.6 -42.6 L22.15 -42.6 22.15 -42.5 22.2 -42.45 22.2 -42.4 22.3 -42.05 Q22.4 -41.75 22.6 -41.55 L22.8 -41.4 Q23.3 -41.4 23.4 -41.3 L23.45 -41.2 Q23.5 -41.1 23.6 -41.05 L23.6 -40.9 Q23.6 -40.7 23.25 -40.5 22.8 -40.25 22.2 -40.25 21.55 -40.25 21.15 -40.95 20.95 -41.45 20.95 -41.75 20.95 -42.25 21.3 -42.75 21.0 -42.9 21.0 -43.15 21.0 -43.5 21.15 -43.7 21.3 -44.0 21.7 -44.15 L21.7 -44.0 21.65 -43.8 Q21.65 -43.7 21.7 -43.55 L21.75 -43.35 21.8 -43.35 22.05 -43.3 Q22.25 -43.3 22.4 -43.55 22.5 -43.7 22.5 -43.85 22.5 -44.25 22.3 -44.75 22.0 -45.4 21.45 -45.4 21.0 -45.4 20.35 -44.95 L19.75 -44.45 Q20.1 -44.15 20.1 -43.6 20.1 -43.25 19.15 -42.6 18.1 -41.9 17.45 -41.9 16.6 -41.9 16.15 -42.25 15.85 -42.45 15.85 -42.65 15.85 -42.8 15.7 -42.95 15.45 -43.2 15.4 -43.25 15.25 -43.15 14.1 -41.95 13.3 -41.05 12.6 -40.85 L12.55 -40.8 13.05 -40.55 Q13.25 -40.45 13.25 -40.35 13.25 -40.25 13.0 -40.1 12.75 -39.95 12.65 -39.95 12.05 -39.95 11.55 -40.45 M29.75 -39.2 Q30.1 -38.7 30.1 -38.2 30.1 -37.55 29.8 -37.05 29.5 -36.5 28.7 -35.85 L28.4 -35.9 28.05 -35.95 Q28.15 -36.2 28.4 -36.5 L28.5 -36.6 28.55 -36.7 28.6 -36.75 27.65 -36.7 27.2 -36.75 26.85 -36.85 26.5 -36.8 26.35 -36.8 Q26.05 -36.7 26.0 -36.45 L25.9 -36.2 Q25.85 -36.05 25.7 -36.05 25.4 -36.05 25.3 -36.35 25.3 -36.55 25.3 -36.7 25.3 -36.95 25.7 -37.7 L25.9 -38.05 25.95 -38.1 Q26.05 -38.35 26.3 -38.45 26.45 -38.55 26.6 -38.55 26.95 -38.55 27.0 -38.3 L27.05 -38.05 27.05 -38.0 27.2 -38.0 Q27.95 -38.0 28.1 -38.55 L28.25 -39.0 Q28.35 -39.3 28.6 -39.45 L28.85 -39.55 28.9 -39.6 29.15 -39.6 Q29.5 -39.6 29.75 -39.2 M29.0 -37.3 L29.0 -37.0 28.9 -36.75 28.85 -36.45 28.8 -36.35 Q29.0 -36.4 29.4 -37.1 29.7 -37.7 29.7 -37.8 29.4 -38.95 28.85 -38.9 L28.5 -38.6 28.4 -38.5 28.35 -38.5 Q28.45 -38.55 28.5 -38.6 L28.55 -38.65 28.5 -38.7 28.45 -38.7 Q28.25 -38.55 28.2 -38.4 L28.25 -38.35 28.35 -38.2 28.5 -38.2 Q28.35 -37.9 28.2 -37.8 27.9 -37.55 27.25 -37.55 L26.95 -37.55 Q26.6 -37.55 26.5 -37.7 L26.85 -37.85 26.85 -37.9 26.8 -37.9 26.6 -37.95 Q26.25 -37.95 26.0 -37.65 L26.0 -37.6 25.95 -37.6 25.8 -37.45 Q25.4 -37.15 25.4 -36.65 25.4 -36.5 25.7 -36.25 L25.8 -36.35 Q25.8 -36.6 25.9 -36.8 L26.0 -36.95 26.15 -37.1 26.75 -37.15 27.05 -37.05 27.4 -37.0 28.05 -37.0 28.45 -37.35 Q28.6 -37.5 28.9 -37.45 L28.95 -37.4 29.0 -37.3 M34.3 -37.5 Q35.5 -37.55 36.25 -36.7 37.1 -35.75 37.1 -33.85 37.1 -33.7 36.65 -32.9 L36.2 -32.1 Q36.2 -32.0 36.25 -31.85 L36.25 -31.6 36.65 -31.6 Q36.9 -31.65 37.15 -31.8 37.35 -31.95 37.7 -31.95 38.3 -31.95 38.5 -31.4 L38.6 -30.8 Q38.4 -29.85 38.05 -28.95 37.4 -27.2 36.45 -27.2 36.4 -27.2 36.2 -27.25 36.05 -27.35 35.95 -27.35 35.6 -27.35 35.35 -27.2 L35.55 -27.2 Q36.15 -27.2 36.65 -26.9 37.15 -26.6 37.15 -26.1 L36.8 -22.75 Q36.8 -22.3 37.05 -22.1 37.3 -21.95 38.0 -21.95 38.55 -21.95 38.75 -21.4 L38.85 -20.8 Q38.85 -20.25 38.3 -19.75 37.8 -19.25 37.8 -18.85 L37.8 -17.8 Q37.8 -17.25 37.65 -16.85 36.9 -14.35 36.4 -13.8 36.1 -13.45 35.65 -13.35 L34.65 -13.3 Q33.85 -13.3 33.4 -13.9 33.1 -14.35 33.1 -14.8 33.1 -15.55 33.55 -16.05 L34.4 -16.85 34.5 -16.85 Q34.65 -16.85 34.75 -17.05 L34.85 -17.25 34.9 -17.3 34.9 -17.35 34.85 -17.3 34.85 -17.35 Q34.85 -17.5 34.75 -17.7 L34.55 -17.8 34.7 -17.85 Q35.1 -17.85 35.35 -17.55 35.6 -17.3 35.6 -17.1 35.6 -16.55 34.85 -16.3 34.45 -16.2 34.3 -16.1 34.05 -15.95 34.05 -15.65 34.05 -15.45 34.25 -15.3 34.4 -15.15 34.75 -15.15 35.4 -15.15 35.75 -16.2 36.0 -16.9 36.0 -17.45 36.0 -17.8 35.9 -17.9 35.55 -18.25 34.35 -18.05 33.85 -18.35 33.75 -18.7 33.7 -18.85 33.7 -19.4 33.7 -19.7 33.6 -20.0 33.55 -20.2 33.95 -20.65 34.0 -20.7 34.65 -21.15 35.2 -21.55 35.3 -21.8 35.35 -22.0 35.45 -23.0 L35.5 -23.95 35.4 -24.85 35.35 -25.05 Q35.2 -25.7 34.95 -25.75 L34.9 -25.75 Q34.6 -25.45 34.45 -25.45 L34.4 -25.45 34.3 -25.25 Q34.3 -25.1 34.65 -24.8 34.95 -24.5 34.95 -24.3 34.95 -24.1 34.9 -24.05 34.7 -23.9 34.5 -23.55 L33.95 -23.6 33.65 -23.9 33.5 -24.1 Q33.5 -24.3 33.5 -24.2 33.8 -24.2 33.95 -24.35 34.1 -24.4 34.1 -24.5 L33.9 -25.6 Q33.9 -26.35 34.4 -26.8 L34.8 -27.05 34.2 -27.05 Q33.65 -27.45 33.35 -28.0 33.1 -28.5 33.1 -28.95 33.1 -29.75 33.8 -30.15 L34.0 -30.15 Q34.05 -30.15 34.05 -30.0 L33.9 -29.7 33.75 -29.45 Q33.75 -29.35 33.85 -29.2 L33.95 -28.9 34.5 -28.9 Q34.7 -29.0 34.9 -29.15 35.15 -29.3 35.15 -29.4 L34.35 -30.2 Q33.6 -30.95 33.6 -31.4 33.6 -31.75 34.1 -32.25 34.6 -32.7 34.6 -33.05 34.6 -33.2 34.35 -33.3 L34.05 -33.35 Q33.9 -33.35 33.65 -33.2 33.4 -33.05 33.3 -33.05 31.95 -33.05 31.6 -33.75 31.45 -34.1 31.55 -34.55 31.55 -35.8 32.4 -36.65 33.2 -37.45 34.3 -37.5 M33.05 -36.4 L32.9 -36.3 32.55 -36.05 Q32.35 -35.85 32.2 -35.6 31.9 -35.2 31.9 -34.85 31.9 -34.4 32.0 -34.2 32.25 -33.7 33.1 -33.7 33.55 -33.7 33.8 -33.8 34.1 -33.95 34.1 -34.15 34.1 -34.3 34.1 -34.25 L33.85 -34.2 Q33.6 -34.2 33.15 -34.35 32.75 -34.5 32.75 -34.55 32.75 -34.85 33.05 -35.15 33.45 -35.65 34.15 -35.65 34.75 -35.65 35.15 -34.9 35.45 -34.35 35.45 -33.95 L34.35 -31.05 Q34.35 -30.95 34.65 -30.65 34.85 -30.4 35.0 -30.2 35.9 -30.2 36.3 -30.0 36.6 -29.85 36.6 -29.55 36.6 -29.15 36.3 -28.85 35.75 -28.35 34.45 -28.35 34.3 -28.35 34.15 -28.45 L33.95 -28.55 33.9 -28.5 33.85 -28.1 Q33.85 -27.9 34.05 -27.65 34.3 -27.45 34.65 -27.35 L35.05 -27.3 Q35.8 -27.3 36.45 -27.8 36.8 -28.05 37.1 -28.5 37.4 -28.95 37.6 -29.4 37.75 -29.8 37.75 -29.9 L37.6 -30.55 Q37.35 -31.15 36.85 -31.15 L36.4 -30.9 Q36.0 -30.7 35.95 -30.7 L35.0 -30.7 34.95 -30.8 Q34.85 -30.9 34.85 -31.05 34.85 -31.1 35.7 -32.0 36.55 -32.95 36.55 -33.5 L36.45 -34.95 Q36.4 -35.35 35.95 -35.8 L35.3 -36.3 Q34.1 -37.05 33.05 -36.4 M24.6 -37.6 Q24.65 -37.15 24.85 -36.7 25.05 -36.2 25.05 -35.85 25.05 -35.2 24.7 -34.6 24.15 -33.8 23.0 -33.8 L22.5 -33.8 Q21.95 -34.35 21.8 -34.8 21.75 -34.95 21.75 -35.65 21.75 -36.2 21.95 -36.65 22.25 -37.35 23.05 -37.35 L23.25 -37.3 Q23.3 -37.05 23.2 -36.9 L23.2 -36.35 23.25 -36.25 Q23.35 -36.3 23.5 -36.65 23.7 -36.95 23.7 -37.05 23.7 -37.3 23.35 -37.65 22.85 -38.05 22.1 -38.05 21.2 -38.05 21.0 -37.55 L20.7 -37.55 20.7 -37.9 Q20.7 -38.25 21.25 -38.75 21.85 -39.35 22.45 -39.1 24.1 -39.0 24.5 -38.55 24.65 -38.35 24.65 -38.05 L24.6 -37.6 M23.2 -38.3 Q23.5 -38.3 23.85 -37.75 24.2 -37.25 24.2 -37.05 24.2 -36.75 23.9 -36.2 23.55 -35.35 22.95 -35.35 22.8 -35.35 22.8 -35.45 L22.75 -35.5 22.7 -36.4 Q22.35 -36.25 22.2 -35.8 L22.15 -35.5 Q22.1 -35.4 22.1 -35.25 L22.2 -35.1 22.5 -34.7 Q22.8 -34.25 23.05 -34.15 L23.25 -34.1 Q23.7 -34.1 24.0 -34.35 L24.25 -34.7 Q24.4 -34.9 24.45 -35.15 24.55 -35.4 24.55 -36.05 L24.5 -36.5 Q24.5 -36.75 24.4 -36.9 24.3 -37.55 24.1 -37.9 23.4 -39.0 21.55 -38.4 L21.25 -38.25 21.35 -38.1 22.25 -38.25 22.95 -38.3 23.2 -38.3 M28.65 -36.2 L28.6 -36.15 Q28.65 -36.15 28.7 -36.2 L28.65 -36.2 M28.25 -35.05 Q28.8 -35.15 29.7 -34.4 30.45 -33.8 31.15 -32.9 31.8 -32.0 31.8 -31.7 31.8 -31.6 31.65 -31.4 L31.35 -31.15 Q31.8 -31.0 31.9 -30.7 31.9 -30.6 31.9 -30.25 31.9 -29.4 30.85 -28.85 L30.2 -28.85 Q30.05 -28.9 29.9 -29.0 L30.25 -29.3 Q30.5 -29.55 30.5 -29.65 30.5 -30.05 30.2 -30.25 30.05 -30.35 29.55 -30.5 29.1 -30.6 28.9 -30.75 28.6 -30.95 28.6 -31.45 28.6 -31.95 28.95 -32.35 L29.0 -32.35 Q28.5 -32.3 28.2 -32.5 28.1 -32.5 28.0 -32.65 27.9 -32.75 27.8 -32.85 27.6 -33.25 27.6 -33.65 27.6 -34.95 28.25 -35.05 M28.4 -34.3 Q27.95 -34.15 27.95 -33.25 L28.0 -32.95 Q28.0 -32.8 28.1 -32.7 L29.1 -32.65 29.2 -32.75 29.35 -32.95 29.1 -33.15 28.45 -33.2 28.4 -33.2 28.4 -33.3 28.35 -33.4 Q28.35 -33.55 28.5 -33.7 28.65 -33.9 28.8 -33.9 29.1 -33.9 29.6 -33.2 L30.1 -32.35 29.45 -32.3 Q29.3 -32.2 29.1 -31.85 28.95 -31.55 28.95 -31.45 28.95 -31.3 29.1 -31.0 29.25 -30.75 29.4 -30.6 L29.45 -30.6 Q30.15 -30.7 30.6 -30.35 30.95 -30.1 30.95 -29.95 30.95 -29.8 30.8 -29.6 30.6 -29.4 30.55 -29.3 L30.6 -29.1 Q31.2 -29.55 31.35 -29.65 31.45 -29.85 31.45 -30.25 L31.4 -30.5 31.4 -30.65 Q31.3 -30.85 31.1 -30.95 30.85 -31.15 30.35 -31.15 L30.25 -31.05 Q30.2 -31.0 30.15 -30.95 L30.1 -30.95 Q29.8 -30.85 29.6 -31.35 L29.6 -31.45 29.65 -31.4 Q29.75 -31.25 30.0 -31.25 L30.1 -31.25 Q30.35 -31.2 30.45 -31.2 30.85 -31.2 31.15 -31.4 31.35 -31.6 31.35 -31.75 31.35 -31.9 31.1 -32.25 31.0 -32.5 30.6 -32.85 L30.45 -32.95 29.65 -33.7 Q28.85 -34.4 28.4 -34.3 M25.45 -30.25 Q25.45 -31.0 26.0 -31.2 26.45 -31.4 27.15 -31.0 27.5 -30.8 27.85 -30.45 28.25 -30.1 28.5 -29.45 L28.55 -29.3 Q28.8 -28.7 28.8 -27.95 28.8 -26.85 28.7 -25.9 L28.6 -25.4 28.6 -24.55 Q28.6 -24.4 28.3 -23.9 28.0 -23.45 27.8 -23.35 27.95 -22.85 27.95 -22.45 27.95 -21.5 27.25 -20.4 26.35 -19.05 24.9 -18.75 L24.15 -18.75 Q23.95 -18.85 23.9 -18.95 23.9 -19.0 23.9 -19.1 23.9 -19.35 24.1 -20.75 L24.3 -20.8 Q24.45 -20.8 24.45 -20.75 L24.45 -20.4 24.55 -20.35 Q24.8 -20.45 25.1 -21.1 25.35 -21.65 25.35 -21.75 25.35 -22.15 25.15 -22.6 24.9 -23.2 24.55 -23.35 24.45 -23.3 24.3 -23.0 23.85 -23.3 23.85 -24.75 23.85 -25.45 24.1 -26.15 24.5 -27.3 25.25 -27.3 26.0 -27.3 26.1 -26.15 26.1 -25.5 26.15 -25.2 26.25 -24.7 26.45 -24.5 26.85 -24.9 26.95 -25.55 27.05 -25.95 27.05 -26.7 27.05 -27.2 26.85 -28.25 26.7 -29.3 26.5 -29.65 L26.4 -29.75 26.2 -29.7 26.15 -29.65 Q26.2 -29.5 26.15 -29.45 26.2 -29.4 26.0 -29.4 25.75 -29.4 25.6 -29.75 25.45 -30.05 25.45 -30.2 L25.45 -30.25 M26.85 -29.75 L27.0 -29.55 Q27.2 -29.2 27.35 -28.5 27.55 -27.6 27.55 -26.8 27.55 -26.1 27.35 -25.6 27.3 -25.4 27.25 -25.2 L27.2 -25.0 27.15 -24.55 Q27.15 -24.2 27.4 -23.75 27.8 -23.7 28.1 -24.3 28.3 -24.75 28.3 -25.05 L28.4 -27.2 Q28.4 -28.3 27.95 -29.4 27.3 -30.95 26.1 -30.6 L25.95 -30.4 Q25.85 -30.35 25.85 -30.15 L25.85 -30.1 25.8 -30.25 25.8 -30.1 25.85 -30.05 Q25.85 -29.95 25.9 -29.9 L26.0 -29.9 26.0 -29.85 26.05 -29.95 26.05 -30.0 Q26.1 -30.05 26.25 -30.05 L26.45 -30.05 Q26.65 -30.0 26.8 -29.85 L26.9 -29.7 26.85 -29.75 M21.45 -31.15 L21.35 -31.15 21.15 -31.0 21.05 -30.95 Q21.0 -30.95 21.0 -31.1 21.0 -32.25 21.95 -32.65 22.3 -32.8 22.6 -32.8 22.95 -32.75 22.95 -32.6 22.95 -32.5 23.2 -32.25 L23.75 -31.7 Q24.5 -30.85 24.5 -30.1 24.5 -29.9 24.4 -29.55 24.25 -29.15 24.25 -29.0 24.25 -28.9 24.45 -28.4 L24.65 -27.75 24.6 -27.65 Q23.65 -27.85 23.15 -28.35 22.9 -28.65 22.4 -29.35 L22.4 -29.85 22.8 -29.8 Q22.85 -29.8 22.85 -29.9 22.85 -30.35 22.7 -30.7 22.45 -31.2 21.95 -31.2 L21.6 -31.2 21.6 -31.4 21.8 -31.4 Q21.85 -31.4 22.0 -31.35 22.35 -31.25 22.95 -31.2 L23.5 -30.7 Q23.6 -30.55 23.6 -30.35 23.6 -30.3 23.3 -30.05 22.95 -29.8 22.95 -29.65 22.95 -29.3 23.3 -28.75 23.75 -28.15 24.25 -27.9 24.3 -27.95 24.3 -28.05 24.3 -28.55 24.05 -28.8 23.8 -29.0 23.8 -29.25 23.8 -29.3 24.1 -30.2 24.1 -30.45 23.95 -30.8 23.75 -31.25 23.45 -31.5 22.6 -32.3 21.35 -31.6 L21.4 -31.35 21.45 -31.15 M26.6 -30.25 L26.6 -30.25 M23.95 -29.95 L23.95 -30.0 24.0 -30.2 Q24.0 -30.05 23.9 -29.75 L23.9 -29.8 Q23.9 -29.85 23.95 -29.95 M23.75 -30.4 L23.7 -30.35 23.75 -30.45 23.75 -30.4 M7.05 -42.8 L6.7 -42.55 Q6.45 -42.4 6.45 -42.15 L7.2 -42.15 Q7.35 -42.35 7.8 -42.55 8.4 -42.55 8.65 -42.15 L8.75 -41.8 Q8.75 -41.45 8.4 -41.0 7.95 -40.35 7.1 -40.35 5.85 -40.35 5.1 -41.05 4.6 -41.55 4.6 -41.85 4.6 -42.8 4.75 -43.15 5.0 -43.75 5.95 -44.25 6.95 -44.3 7.4 -43.8 7.75 -43.45 7.75 -43.0 7.75 -42.8 7.55 -42.45 L7.25 -42.45 7.25 -42.5 7.25 -42.55 7.35 -42.8 Q7.35 -42.9 7.25 -42.95 7.3 -42.95 7.35 -43.0 7.3 -43.05 7.15 -43.25 L6.8 -43.5 5.8 -43.55 Q5.5 -43.35 5.35 -42.7 5.2 -42.2 5.2 -41.8 5.2 -41.5 5.55 -41.25 6.05 -40.8 7.0 -40.8 7.45 -40.8 7.9 -41.0 8.3 -41.25 8.3 -41.55 8.3 -41.65 8.15 -41.9 L8.1 -42.05 Q8.0 -42.2 7.85 -42.25 L7.8 -42.3 7.3 -41.95 Q6.95 -41.65 6.4 -41.65 6.25 -41.65 6.15 -41.95 6.05 -42.2 6.05 -42.35 6.05 -42.6 6.1 -42.7 6.25 -42.95 6.7 -42.95 6.95 -42.95 7.05 -42.8 M5.6 -38.65 L5.7 -39.15 Q5.75 -39.95 7.2 -39.95 7.95 -39.95 8.2 -39.2 8.25 -38.95 8.3 -38.65 L8.3 -38.4 8.45 -38.5 Q9.2 -39.0 10.0 -38.5 10.35 -38.4 10.6 -37.9 10.85 -37.45 10.85 -37.15 10.85 -36.05 10.4 -34.85 L10.4 -34.7 10.25 -34.4 Q9.75 -33.35 9.0 -33.0 L8.95 -32.95 8.9 -32.95 Q8.5 -32.75 8.05 -32.75 L7.5 -32.8 Q6.35 -32.7 5.85 -33.6 5.5 -34.2 5.5 -34.75 5.5 -35.05 5.5 -35.15 5.6 -35.3 5.85 -35.55 6.0 -35.4 6.15 -35.25 6.25 -35.05 6.25 -35.0 6.75 -35.0 7.1 -34.85 L7.6 -34.75 Q8.6 -34.75 9.05 -35.65 9.3 -36.1 9.3 -36.55 9.3 -36.9 9.1 -37.15 9.0 -37.35 8.8 -37.45 9.45 -37.55 9.6 -37.35 9.65 -37.3 9.65 -37.0 9.65 -36.3 9.4 -35.6 8.95 -34.25 8.0 -34.25 6.8 -34.25 6.5 -34.45 6.35 -34.6 6.3 -34.85 L6.1 -34.7 Q6.05 -34.35 6.55 -33.75 7.1 -33.0 7.9 -33.0 L8.2 -33.05 8.25 -33.05 Q8.8 -33.2 9.4 -33.85 L9.6 -34.05 Q10.0 -34.5 10.25 -34.85 10.5 -35.3 10.5 -35.55 L10.4 -36.25 10.3 -37.15 Q10.2 -37.45 9.45 -37.85 8.7 -38.3 8.7 -37.55 L8.7 -37.45 8.45 -37.5 Q8.25 -37.5 8.1 -37.25 L8.1 -37.2 8.05 -37.05 Q7.75 -35.85 7.05 -35.85 6.65 -35.85 6.55 -35.9 6.55 -36.05 6.8 -36.3 6.95 -36.55 6.95 -36.65 6.95 -36.85 6.95 -36.8 L6.9 -36.8 6.75 -36.85 Q6.45 -36.85 6.3 -36.7 6.25 -36.6 6.15 -36.3 6.0 -35.75 5.35 -35.75 4.0 -35.75 3.3 -36.25 2.8 -36.6 2.5 -37.3 L2.1 -38.4 Q1.85 -38.9 1.2 -38.9 1.1 -38.9 0.7 -38.7 0.3 -38.55 -0.1 -38.6 L-0.3 -38.75 -0.3 -38.8 Q-0.3 -38.9 -0.15 -39.2 0.0 -39.5 0.0 -39.6 0.0 -39.65 -0.3 -39.65 L-1.7 -38.55 Q-3.25 -37.4 -3.75 -37.2 L-3.9 -37.25 Q-3.95 -37.25 -3.95 -37.4 -3.95 -37.9 -3.3 -38.9 -2.85 -39.6 -2.3 -40.3 -2.05 -40.55 -2.0 -41.0 L-1.85 -41.75 Q-1.6 -42.6 -0.2 -42.9 0.4 -42.6 0.9 -41.7 1.3 -40.9 1.8 -40.75 4.05 -40.05 4.3 -39.8 4.4 -39.7 4.4 -39.5 4.3 -39.05 4.3 -38.95 4.3 -38.75 4.5 -38.6 4.7 -38.4 5.05 -38.4 5.35 -38.4 5.5 -38.5 L5.6 -38.25 Q5.65 -38.1 5.75 -38.0 6.0 -37.7 6.0 -37.45 6.0 -37.35 5.75 -37.1 5.4 -36.8 5.05 -36.8 4.7 -36.8 4.05 -37.8 3.45 -38.65 3.45 -38.8 L3.55 -39.0 Q3.6 -39.25 3.55 -39.45 3.4 -40.0 2.2 -40.0 1.6 -40.0 1.35 -40.25 1.25 -40.4 1.2 -40.65 L1.15 -40.8 Q1.05 -41.25 0.95 -41.4 0.8 -41.7 0.35 -41.75 L0.3 -41.75 Q-0.8 -42.45 -1.45 -41.5 -1.7 -41.15 -1.8 -40.8 L-1.9 -40.5 -1.9 -39.9 Q-1.8 -39.6 -1.55 -39.5 -1.4 -39.75 -1.45 -40.6 -1.4 -41.3 -0.35 -41.3 L-0.25 -41.3 -0.3 -41.25 -0.15 -41.25 Q0.05 -41.2 0.15 -41.05 0.25 -40.8 0.35 -40.7 0.2 -40.7 0.15 -40.6 L0.15 -40.2 Q0.2 -40.05 0.2 -40.0 0.5 -39.55 1.5 -39.45 2.55 -39.4 2.8 -39.05 2.9 -38.9 3.05 -38.45 3.15 -37.8 3.25 -37.55 3.65 -36.4 4.85 -36.4 5.65 -36.4 6.1 -37.15 6.35 -37.55 6.5 -38.25 L6.7 -38.25 6.85 -38.1 6.9 -37.95 Q6.75 -37.8 6.8 -37.6 7.2 -37.6 7.4 -38.0 7.5 -38.2 7.5 -38.45 L7.45 -38.8 Q7.25 -39.1 6.7 -39.1 6.35 -39.1 6.2 -38.85 6.0 -38.65 5.85 -38.6 L5.8 -38.6 5.6 -38.65 M9.85 -33.9 L9.6 -33.65 9.4 -33.4 9.85 -33.85 9.85 -33.9 M9.9 -33.95 L9.9 -33.95 M18.4 -38.1 Q18.35 -38.3 18.35 -38.05 L18.45 -37.85 Q18.3 -38.0 18.05 -38.1 17.75 -38.15 17.6 -38.05 L17.25 -38.45 Q16.8 -38.95 16.65 -39.3 15.3 -39.55 14.55 -38.85 14.0 -38.4 14.0 -37.85 L14.0 -37.8 Q14.0 -37.7 14.05 -37.65 L14.25 -37.55 14.5 -38.25 14.6 -38.35 Q14.95 -38.9 15.6 -38.9 L15.95 -38.85 15.65 -38.95 15.65 -39.0 16.45 -39.0 16.85 -38.6 16.8 -38.55 16.55 -38.65 Q17.0 -38.4 17.45 -37.85 L17.45 -37.8 17.5 -37.75 Q18.15 -36.85 18.15 -36.3 18.15 -36.05 18.1 -35.95 18.0 -35.7 17.7 -35.45 L17.7 -35.3 17.85 -35.3 18.15 -35.25 Q18.45 -35.25 18.7 -36.0 18.95 -36.6 18.95 -36.75 18.95 -37.05 18.8 -37.45 18.6 -37.95 18.4 -38.1 M22.15 -42.1 L22.1 -42.15 Q21.85 -42.7 21.35 -42.25 21.65 -42.15 21.75 -41.85 L21.8 -41.4 Q21.9 -40.8 22.7 -40.8 L22.9 -40.9 Q23.1 -41.0 23.25 -41.15 L22.85 -41.25 22.8 -41.25 22.4 -41.3 22.2 -41.3 22.25 -41.5 Q22.3 -41.75 22.15 -42.1 M17.7 -36.7 Q17.7 -37.15 17.05 -37.75 16.35 -38.35 15.55 -38.35 14.95 -38.35 14.5 -37.8 14.25 -37.55 14.1 -37.2 13.8 -37.2 13.7 -37.4 13.65 -37.5 13.65 -37.6 13.65 -38.1 13.9 -38.75 14.2 -39.55 14.65 -39.95 15.95 -41.1 17.7 -38.8 18.8 -39.15 19.25 -38.15 19.5 -37.6 19.5 -37.0 19.5 -36.4 19.25 -35.8 18.9 -34.85 18.15 -34.85 17.4 -34.85 17.0 -35.1 16.75 -35.3 16.75 -35.55 L16.75 -36.1 16.9 -36.1 Q17.0 -36.1 17.05 -36.0 17.05 -35.95 17.15 -35.95 17.5 -35.95 17.6 -36.25 17.7 -36.45 17.7 -36.7 M16.25 -33.7 Q16.25 -33.25 16.15 -33.05 16.05 -32.7 15.65 -32.35 L15.15 -32.35 Q14.6 -32.35 14.45 -33.1 14.4 -33.5 14.4 -33.85 14.4 -34.25 14.7 -34.45 14.95 -34.6 15.35 -34.5 15.7 -34.45 15.95 -34.2 16.25 -34.0 16.25 -33.7 M23.1 -29.65 L23.1 -29.65 M15.05 -33.85 L14.95 -33.95 Q15.25 -33.9 15.65 -33.8 16.1 -33.6 15.7 -33.55 L15.4 -33.3 Q15.3 -33.3 15.2 -33.45 15.1 -33.6 15.0 -33.65 L14.9 -33.55 14.9 -33.35 Q14.85 -33.15 14.9 -33.0 15.0 -32.7 15.35 -32.7 15.55 -32.7 15.8 -33.0 16.0 -33.3 16.0 -33.45 L15.95 -33.75 15.9 -33.95 15.15 -34.05 14.85 -34.1 14.85 -34.0 Q14.75 -34.0 14.75 -33.95 L14.85 -33.9 15.05 -33.85 M21.25 -18.95 L21.2 -18.9 Q21.15 -18.75 20.9 -18.75 L20.8 -18.85 Q20.75 -18.95 20.75 -19.05 20.75 -19.65 21.1 -19.95 21.45 -20.2 21.9 -20.15 22.35 -20.05 22.65 -19.7 23.05 -19.3 23.05 -18.7 L22.95 -18.25 Q22.9 -17.9 22.9 -17.8 22.9 -17.45 23.4 -17.25 23.95 -17.05 23.95 -16.7 23.95 -16.0 23.1 -14.75 22.1 -13.35 21.05 -13.4 L20.2 -13.45 Q19.75 -13.8 19.65 -14.15 19.6 -14.35 19.6 -14.8 19.6 -14.95 19.9 -15.35 L20.25 -15.75 Q20.35 -15.7 20.35 -15.35 L20.3 -15.0 Q20.3 -14.7 20.5 -14.7 21.15 -14.7 21.6 -15.45 21.95 -16.0 21.95 -16.25 21.95 -16.45 21.75 -16.65 21.55 -16.8 21.55 -17.05 21.55 -17.4 21.75 -17.9 L21.95 -18.4 Q21.95 -18.5 21.7 -18.75 21.45 -19.0 21.35 -19.0 L21.35 -19.2 Q21.4 -19.45 21.65 -19.45 21.8 -19.45 21.9 -19.4 L22.0 -19.3 21.95 -19.3 22.0 -19.15 Q22.05 -18.95 22.1 -18.6 L22.2 -18.05 22.0 -17.65 Q21.8 -17.25 21.8 -17.1 21.8 -16.95 22.2 -16.6 22.6 -16.3 22.6 -16.05 22.6 -15.95 22.4 -15.65 22.15 -15.25 21.85 -14.95 20.9 -14.0 20.2 -14.25 L20.2 -14.1 Q20.3 -13.95 20.5 -13.8 20.7 -13.7 20.9 -13.7 21.35 -13.7 21.95 -14.2 L22.4 -14.55 22.7 -14.9 22.75 -14.95 23.05 -15.3 Q23.5 -15.9 23.5 -16.1 23.5 -16.75 23.25 -17.0 L22.6 -17.1 Q22.45 -17.2 22.4 -17.3 22.35 -17.4 22.35 -17.5 L22.35 -17.7 22.4 -17.9 22.45 -18.0 Q22.55 -18.05 22.65 -18.2 22.7 -18.35 22.7 -18.55 22.7 -18.75 22.45 -18.95 22.3 -19.05 22.25 -19.0 L22.2 -19.05 22.2 -19.25 Q22.1 -19.85 21.2 -19.4 L21.2 -18.95 21.25 -18.95 M22.3 -18.45 L22.3 -18.4 22.25 -18.6 22.3 -18.45 M6.8 -12.5 L6.45 -12.15 Q6.05 -11.7 6.05 -11.45 6.35 -10.5 6.6 -10.3 L7.55 -10.35 7.55 -10.3 Q7.55 -10.05 7.4 -9.95 6.4 -9.9 6.0 -10.7 5.75 -11.15 5.75 -11.7 5.75 -12.25 6.0 -12.5 6.25 -12.8 6.8 -12.5 M7.55 -10.4 Q7.15 -10.3 6.75 -10.85 L6.65 -11.0 6.55 -11.2 6.45 -11.3 Q6.4 -11.5 6.4 -11.6 6.4 -11.9 6.4 -12.05 L6.85 -12.05 6.7 -11.95 Q6.65 -11.9 6.65 -11.7 6.65 -11.5 7.1 -11.1 7.55 -10.8 7.55 -10.4 M7.0 -12.2 L7.0 -12.25 6.8 -12.3 6.7 -12.3 6.8 -12.45 7.1 -12.25 7.0 -12.2 M3.0 -10.7 L2.9 -10.75 Q2.75 -10.95 2.6 -11.0 2.45 -10.85 2.3 -10.35 2.1 -9.9 2.15 -9.65 L2.25 -9.7 2.3 -9.75 2.4 -9.55 Q2.35 -9.45 2.35 -9.4 2.35 -9.25 2.4 -9.05 L2.4 -9.0 2.35 -9.0 Q2.0 -8.35 1.45 -8.1 1.15 -8.0 0.6 -7.9 0.1 -7.85 -0.1 -7.75 -0.35 -7.55 -0.35 -6.95 -0.35 -6.4 0.8 -6.0 L2.95 -5.4 Q3.05 -5.45 3.05 -5.55 2.1 -5.6 1.3 -6.35 L1.25 -6.45 1.05 -6.8 Q0.75 -7.2 0.65 -7.55 L0.7 -7.65 0.75 -7.7 0.85 -7.7 1.0 -7.75 Q1.85 -7.75 2.2 -8.0 L2.4 -8.1 Q2.65 -8.35 2.65 -8.85 L2.7 -9.4 Q2.75 -9.5 2.75 -9.7 2.9 -9.9 3.3 -9.9 3.45 -9.9 3.65 -9.8 3.7 -9.75 3.8 -9.7 L3.8 -9.5 3.85 -9.5 3.95 -9.45 Q4.1 -9.45 4.15 -9.55 4.15 -9.8 4.05 -10.0 3.95 -10.3 3.65 -10.4 3.25 -10.5 3.0 -10.7 M6.3 -10.95 Q6.4 -10.75 6.5 -10.65 6.25 -10.85 6.25 -11.05 L6.3 -11.0 6.3 -10.95 M2.25 -11.4 Q2.6 -11.5 3.1 -11.3 3.6 -11.05 3.95 -10.55 4.35 -10.0 4.35 -9.4 4.35 -9.0 4.15 -8.75 3.85 -8.8 3.85 -9.0 L3.85 -9.45 3.75 -9.5 3.5 -9.55 Q3.45 -9.55 3.45 -9.25 3.5 -8.85 3.4 -8.55 3.05 -7.55 1.1 -7.4 1.25 -7.2 2.3 -6.25 L3.15 -5.45 3.25 -5.6 Q3.6 -6.05 4.2 -6.2 4.7 -6.3 5.1 -6.1 5.55 -5.9 5.55 -5.5 L5.55 -5.35 5.5 -5.35 5.45 -5.3 Q5.35 -5.3 5.25 -5.35 L5.15 -5.45 4.65 -5.4 4.6 -5.45 Q4.55 -5.4 4.55 -5.3 4.55 -4.95 4.95 -4.55 5.55 -4.05 6.55 -4.05 7.15 -4.05 7.8 -4.45 8.35 -4.8 8.35 -4.95 8.35 -5.05 8.25 -5.15 L8.15 -5.35 8.5 -5.45 8.9 -5.5 Q9.2 -5.5 9.3 -5.05 L9.35 -4.65 Q9.35 -3.95 8.95 -3.4 8.45 -2.6 7.4 -2.45 L6.05 -2.45 Q2.85 -2.9 2.85 -4.1 2.85 -4.6 2.95 -5.0 1.25 -5.05 0.15 -6.0 -0.3 -6.35 -0.55 -6.75 -0.75 -7.05 -0.75 -7.2 -0.75 -7.75 -0.5 -8.0 0.05 -8.5 1.55 -8.35 1.7 -8.45 1.9 -8.9 2.1 -9.4 2.1 -9.65 2.1 -9.85 2.0 -10.15 1.85 -10.45 1.85 -10.75 1.85 -11.3 2.25 -11.4 M4.3 -5.75 L4.2 -5.85 Q4.05 -5.8 3.7 -5.1 L3.6 -4.95 Q3.45 -4.9 3.4 -4.55 3.3 -4.3 3.3 -4.2 3.3 -4.0 3.65 -3.7 3.8 -3.55 4.0 -3.45 4.45 -3.25 5.1 -3.2 4.75 -3.3 4.5 -3.4 L5.4 -3.15 5.3 -3.15 Q5.45 -3.05 5.85 -2.9 6.45 -2.75 7.1 -2.75 7.75 -2.75 8.3 -3.55 L8.35 -3.6 8.65 -4.15 Q8.65 -4.3 8.55 -4.3 L8.5 -4.25 8.25 -4.05 8.05 -3.85 Q7.75 -3.65 6.5 -3.65 L5.5 -3.7 4.7 -3.75 4.65 -3.8 4.15 -4.5 Q4.05 -4.7 4.05 -4.85 4.05 -4.95 4.2 -5.2 L4.35 -5.5 Q4.35 -5.65 4.3 -5.75 M2.5 -3.05 Q2.5 -2.85 2.2 -2.25 1.8 -1.45 1.35 -1.1 0.6 -0.45 0.1 -0.15 -0.65 0.3 -1.55 0.4 L-2.7 0.4 Q-2.75 0.35 -2.8 0.3 L-2.85 0.1 Q-2.85 -0.3 -2.5 -1.1 -2.1 -2.2 -1.45 -2.2 L-0.95 -2.2 Q-0.9 -2.2 -0.9 -2.05 L-1.05 -1.95 Q-1.2 -1.8 -1.4 -1.3 -0.6 -1.75 0.8 -2.6 1.9 -3.25 2.45 -3.2 L2.5 -3.2 2.5 -3.05 M1.5 -2.05 Q1.5 -2.3 1.45 -2.15 1.3 -2.15 0.5 -1.65 0.15 -1.55 -0.2 -1.3 L-0.65 -1.0 Q-1.0 -0.85 -1.25 -0.85 L-1.8 -0.95 -2.05 -1.05 -2.1 -1.1 Q-2.2 -1.25 -2.25 -1.45 L-2.3 -0.6 Q-2.3 -0.5 -2.2 -0.3 -2.0 0.0 -1.75 0.0 -1.65 0.0 -1.0 -0.3 L-0.25 -0.65 Q-0.25 -0.7 -0.35 -0.7 L-0.1 -0.85 Q0.6 -1.15 0.9 -1.4 1.5 -1.7 1.5 -2.05 M10.45 -2.65 L10.55 -2.15 10.55 -2.1 10.7 -2.1 Q11.1 -2.1 11.25 -2.3 11.4 -2.55 11.6 -2.55 11.85 -2.55 11.95 -2.5 12.05 -2.45 12.05 -2.35 12.05 -2.05 11.85 -1.7 11.55 -1.1 11.0 -1.1 10.35 -1.1 10.1 -1.75 9.95 -2.1 9.9 -2.5 9.9 -2.9 10.1 -3.1 10.35 -3.0 10.45 -2.65 M23.0 -11.0 Q22.5 -10.7 21.85 -10.7 21.4 -10.7 21.25 -10.85 21.2 -10.9 21.2 -11.05 21.2 -11.2 21.35 -11.3 L21.7 -11.6 Q22.3 -12.2 22.75 -13.6 23.2 -15.0 23.7 -14.6 24.15 -14.25 24.15 -13.45 24.15 -12.9 23.95 -12.3 L23.85 -12.0 23.8 -11.95 23.8 -11.9 23.75 -11.9 Q24.6 -12.0 24.85 -11.75 24.95 -11.65 24.95 -11.05 24.95 -10.3 23.8 -9.3 22.65 -8.45 22.65 -8.35 22.95 -7.55 22.95 -7.45 22.95 -7.35 23.05 -7.1 L23.1 -6.8 Q23.1 -5.35 21.4 -4.35 20.05 -3.55 18.9 -3.55 17.65 -3.55 17.2 -4.65 16.95 -5.2 16.95 -5.9 L16.95 -5.95 Q16.9 -5.7 16.65 -5.3 16.2 -4.7 15.7 -4.7 15.3 -4.7 15.25 -5.0 15.2 -5.15 15.25 -5.3 15.25 -5.7 15.5 -6.05 15.75 -6.4 16.1 -6.55 16.45 -6.7 16.7 -6.6 16.95 -6.5 17.0 -6.2 17.0 -6.5 17.05 -6.7 17.35 -7.4 18.25 -7.4 19.15 -7.4 19.4 -7.25 19.45 -7.2 19.45 -7.05 L19.45 -6.9 19.4 -6.9 18.6 -6.85 Q18.45 -6.75 18.35 -6.45 18.25 -6.25 18.25 -6.15 18.25 -6.0 18.35 -5.9 L18.4 -5.75 19.05 -5.7 19.5 -5.65 Q19.75 -5.65 20.25 -6.1 20.7 -6.5 20.7 -6.7 L20.5 -7.5 Q20.3 -8.25 20.3 -8.4 20.3 -8.75 20.8 -9.05 21.0 -9.2 21.8 -9.55 23.25 -10.2 23.25 -10.9 L23.25 -10.95 23.4 -10.95 23.45 -10.55 Q23.45 -10.15 23.05 -9.8 22.85 -9.65 22.25 -9.3 21.65 -9.0 21.45 -8.8 21.05 -8.45 21.05 -8.05 21.05 -7.7 21.4 -7.25 L21.55 -7.1 21.6 -7.0 Q21.8 -6.75 21.8 -6.65 21.8 -6.55 21.55 -6.3 L21.3 -6.05 20.85 -5.7 Q19.85 -4.85 19.15 -4.85 L19.1 -4.85 Q18.95 -4.95 18.4 -5.05 L17.7 -5.4 17.6 -5.4 17.6 -5.2 17.9 -4.35 17.9 -4.3 18.6 -4.25 Q20.85 -4.25 21.85 -5.05 22.4 -5.5 22.4 -6.1 22.4 -6.2 22.3 -6.45 22.2 -6.65 22.2 -6.8 L22.2 -6.85 Q22.2 -6.95 22.25 -7.1 L22.3 -7.1 Q22.4 -7.25 22.4 -7.4 L22.0 -7.9 Q22.0 -8.05 22.35 -8.35 L22.4 -8.35 22.7 -8.6 22.55 -8.55 22.95 -8.85 23.4 -9.15 23.5 -9.25 Q24.05 -9.65 24.05 -9.8 24.45 -10.35 24.45 -10.85 24.45 -10.95 24.35 -11.0 L24.3 -11.05 24.15 -11.1 23.9 -11.2 Q23.8 -11.3 23.7 -11.25 L23.5 -11.35 23.45 -11.35 23.15 -11.45 23.1 -11.5 23.1 -11.4 Q23.2 -11.1 23.1 -11.1 L23.1 -11.05 23.0 -11.0 M22.5 -11.8 Q22.5 -11.75 22.6 -11.7 L22.75 -11.7 23.35 -11.75 23.55 -12.05 23.7 -12.35 23.75 -12.55 Q23.85 -12.85 23.85 -13.3 L23.8 -13.45 Q23.75 -13.6 23.5 -13.85 L23.45 -13.85 23.35 -13.9 23.3 -13.9 Q23.25 -13.9 23.25 -13.8 L23.35 -13.65 23.3 -13.6 Q23.5 -13.2 23.15 -12.65 L22.5 -11.8 M17.65 -9.95 L17.55 -9.6 17.5 -9.3 Q17.5 -9.05 17.05 -8.8 16.6 -8.55 16.15 -8.55 15.0 -8.55 14.6 -9.05 14.45 -9.25 14.45 -9.65 L14.45 -9.95 Q14.5 -10.15 14.75 -10.15 14.85 -10.15 15.0 -10.0 15.1 -9.85 15.65 -9.85 16.55 -9.85 16.95 -10.35 17.15 -10.6 17.3 -10.85 17.55 -10.65 17.65 -10.35 L17.65 -9.95 M15.9 -4.05 Q15.5 -3.85 15.5 -3.6 15.5 -3.4 15.6 -3.25 15.65 -3.0 15.85 -2.9 16.05 -2.7 16.35 -2.7 16.4 -2.7 16.6 -2.85 16.85 -3.0 16.95 -3.15 L16.9 -3.25 16.55 -3.2 16.3 -3.2 16.15 -3.35 16.15 -3.45 Q16.15 -3.55 16.2 -3.6 L16.2 -3.65 16.35 -3.8 16.45 -3.7 Q16.5 -3.65 16.65 -3.65 L16.6 -3.7 Q16.6 -3.75 16.7 -3.8 L16.75 -3.7 Q16.75 -3.65 16.8 -3.65 L16.85 -3.65 16.85 -3.95 16.8 -3.95 Q16.35 -4.3 15.9 -4.05 M16.65 -6.15 L16.65 -6.2 Q15.8 -6.2 15.5 -5.7 15.35 -5.4 15.4 -5.0 15.5 -4.95 15.55 -4.9 L15.85 -4.9 Q16.1 -4.9 16.4 -5.35 16.7 -5.8 16.7 -5.95 L16.65 -6.15 M17.15 -9.55 Q16.85 -9.3 15.65 -9.3 L15.45 -9.3 15.25 -9.4 14.85 -9.55 14.8 -9.45 15.0 -9.05 Q15.35 -8.65 15.85 -8.65 16.7 -8.65 17.15 -9.55 M17.2 -10.25 L17.3 -9.9 17.5 -10.6 Q17.2 -10.5 17.2 -10.25 M17.05 -3.7 Q17.05 -3.6 16.7 -3.55 L16.65 -3.5 16.95 -3.5 Q17.15 -3.5 17.2 -3.35 L17.2 -3.2 Q17.2 -2.95 16.8 -2.75 16.45 -2.55 16.35 -2.55 15.7 -2.55 15.5 -3.05 15.4 -3.3 15.4 -3.6 15.4 -4.35 15.95 -4.4 16.55 -4.5 17.05 -3.7 M13.95 -5.5 L13.3 -5.45 Q12.7 -5.45 12.35 -5.8 L12.15 -6.15 Q12.15 -6.75 13.25 -6.5 13.7 -6.4 14.05 -6.2 14.4 -6.0 14.4 -5.9 14.4 -5.65 13.95 -5.5 M15.65 -0.65 L15.8 -0.9 Q15.9 -1.15 15.95 -1.5 16.0 -1.85 16.05 -1.85 L16.0 -1.9 Q15.8 -1.9 15.7 -1.7 L15.45 -1.25 Q15.1 -0.6 14.2 -0.6 L13.8 -0.7 Q13.4 -0.85 13.1 -1.0 L12.95 -0.9 Q12.9 -0.8 12.9 -0.65 12.9 -0.5 13.0 -0.3 13.25 0.0 13.75 0.0 15.1 0.0 15.65 -0.65 M12.45 -0.7 L12.5 -1.0 Q12.5 -1.3 12.6 -1.55 12.75 -1.95 13.1 -1.95 13.3 -1.95 13.55 -1.7 L13.95 -1.3 15.2 -1.3 15.95 -2.25 Q16.5 -2.9 16.5 -2.0 16.5 -1.35 16.0 -0.65 15.3 0.35 14.05 0.35 12.8 0.35 12.5 -0.25 12.45 -0.45 12.45 -0.7 M21.95 -7.0 L21.9 -7.05 22.0 -7.0 21.95 -7.0 M21.75 -0.05 L21.7 -0.2 Q21.7 -1.1 22.55 -1.3 L23.15 -1.3 Q23.4 -1.2 23.4 -0.9 23.4 -0.7 23.25 -0.35 L23.05 0.15 23.0 0.2 23.05 0.2 23.25 0.25 Q23.4 0.25 23.6 0.05 23.75 -0.15 23.9 -0.15 24.15 -0.15 24.2 0.15 24.25 0.35 24.25 0.5 24.25 0.75 23.95 1.1 L24.25 1.35 Q24.6 1.75 24.6 2.2 24.1 4.35 23.85 4.7 23.55 5.15 22.4 5.8 20.9 6.7 19.5 6.7 18.55 6.7 18.3 6.0 18.2 5.8 18.2 5.5 L18.2 5.25 Q18.2 4.8 18.4 4.35 18.55 3.85 18.55 3.75 L18.55 3.65 18.7 3.85 Q18.75 4.0 18.75 4.2 L18.65 4.85 Q18.6 5.4 18.6 5.65 18.9 5.75 19.5 6.1 20.05 6.4 20.3 6.4 21.7 6.4 22.9 5.1 23.35 4.65 23.65 4.1 23.9 3.7 23.9 3.5 23.9 3.4 23.8 3.2 L23.7 3.05 23.75 2.9 24.05 2.5 Q24.1 2.45 24.1 2.25 L24.15 2.15 Q24.15 1.95 24.0 1.7 23.95 1.55 23.7 1.4 23.65 1.4 23.6 1.4 L23.5 1.35 23.3 1.3 23.15 1.25 22.8 1.2 22.8 1.65 23.15 2.15 Q23.3 2.4 23.3 2.6 23.3 3.0 23.25 3.3 23.1 3.4 23.1 3.6 L23.1 3.7 22.9 4.1 Q22.15 5.4 20.05 5.4 19.35 5.4 19.15 4.85 19.05 4.6 19.05 4.2 L19.05 3.85 19.1 3.5 18.75 3.45 18.5 3.3 Q18.45 3.35 18.4 3.4 L18.45 3.5 18.2 3.35 Q17.85 3.2 17.85 3.0 17.85 2.85 17.85 2.8 17.9 2.7 18.05 2.7 19.05 2.7 19.45 3.65 L19.7 4.3 Q19.9 4.55 20.2 4.55 21.45 4.55 22.25 3.6 22.85 2.95 22.85 2.6 22.85 2.5 22.5 1.8 22.5 1.6 22.5 1.45 22.15 1.25 21.95 0.85 22.15 1.0 22.5 1.0 L22.8 1.0 Q23.45 1.0 23.5 0.9 L23.5 0.7 Q23.55 0.55 23.65 0.4 22.95 0.2 22.8 0.35 L22.7 0.35 22.5 0.1 22.35 -0.05 Q22.3 -0.15 22.3 -0.35 22.3 -0.4 22.35 -0.45 L22.6 -0.65 Q22.6 -0.3 23.0 -0.35 23.15 -0.35 23.2 -0.45 23.25 -0.5 23.1 -0.6 L22.9 -0.8 Q22.85 -0.85 22.85 -0.9 22.2 -1.05 21.85 -0.4 21.8 -0.25 21.75 -0.05 M36.0 -15.85 L35.75 -15.5 Q35.5 -15.15 35.1 -14.85 34.75 -14.6 34.25 -14.4 L34.15 -14.4 Q34.0 -14.4 33.85 -14.5 L33.7 -14.65 33.7 -14.55 Q33.8 -14.3 34.05 -14.05 34.4 -13.7 34.8 -13.7 35.8 -13.7 36.45 -15.2 36.95 -16.35 36.95 -17.25 36.95 -18.4 37.55 -19.3 L37.95 -19.9 Q38.1 -20.25 38.1 -20.6 38.1 -20.85 38.0 -21.0 37.75 -21.3 36.9 -21.3 36.85 -21.35 36.65 -21.9 L36.6 -21.95 36.45 -22.35 Q36.35 -22.65 36.35 -22.75 36.35 -22.9 36.5 -23.15 36.6 -23.45 36.6 -23.55 L36.65 -25.7 Q36.65 -26.2 36.1 -26.4 L36.15 -26.4 36.0 -26.45 Q35.65 -26.65 35.5 -26.55 L35.3 -26.55 35.05 -26.5 34.85 -26.45 Q34.5 -26.4 34.5 -26.25 34.5 -26.1 34.45 -26.0 L34.4 -25.9 34.3 -25.75 Q34.5 -25.85 34.55 -26.0 34.6 -26.15 34.75 -26.2 34.95 -26.15 35.1 -26.05 L35.15 -26.0 35.45 -25.6 Q35.6 -25.35 35.7 -24.95 35.85 -24.3 35.85 -23.75 L35.8 -23.3 35.75 -23.1 35.75 -23.0 Q35.65 -22.6 35.65 -22.45 L35.75 -22.1 35.75 -21.95 35.85 -21.45 Q35.85 -21.25 35.65 -21.05 L35.15 -20.65 Q34.75 -20.5 34.5 -20.1 34.25 -19.75 34.25 -19.4 34.25 -19.3 34.3 -19.25 34.3 -19.0 34.35 -18.8 34.45 -18.5 34.65 -18.4 34.85 -18.3 35.05 -18.3 35.2 -18.3 35.45 -18.45 L35.7 -18.65 Q36.15 -19.0 36.15 -19.2 L36.15 -19.35 36.1 -19.4 Q35.65 -19.3 35.45 -19.4 35.3 -19.5 35.3 -19.7 L35.35 -20.0 Q35.45 -20.3 35.8 -20.3 36.4 -20.3 36.7 -20.05 36.9 -19.9 36.9 -19.65 36.9 -18.95 36.55 -18.45 36.35 -18.2 36.25 -17.9 36.2 -17.65 36.2 -17.45 36.2 -16.75 36.15 -16.3 L36.05 -16.05 36.0 -15.85 M31.8 -26.65 L32.05 -26.7 Q32.8 -26.05 32.8 -25.8 L32.6 -25.6 Q32.4 -25.45 32.4 -25.3 32.4 -25.15 32.45 -25.15 L32.9 -25.1 Q33.1 -25.1 33.15 -25.4 L33.1 -25.8 Q33.1 -26.25 33.05 -26.45 32.8 -27.05 31.95 -27.05 31.3 -27.05 31.3 -26.35 31.25 -26.25 31.3 -26.15 31.4 -25.9 31.85 -25.9 L32.15 -25.95 32.3 -25.95 32.3 -26.2 32.2 -26.2 31.8 -26.6 31.8 -26.65 M33.15 -27.1 Q33.55 -26.6 33.55 -25.9 33.55 -25.5 33.35 -25.1 33.1 -24.6 32.65 -24.5 L32.15 -24.5 32.05 -24.55 Q31.95 -24.6 31.9 -24.65 L31.9 -24.75 32.15 -25.0 Q32.4 -25.25 32.4 -25.35 32.4 -25.55 32.2 -25.6 L31.75 -25.6 Q31.4 -25.6 31.25 -25.9 L31.2 -26.1 Q31.2 -26.9 31.55 -27.3 31.9 -27.65 32.35 -27.6 32.85 -27.5 33.15 -27.1 M27.3 -27.55 L27.3 -27.55 M25.3 -26.6 L25.3 -26.65 Q24.4 -26.65 24.3 -25.7 24.25 -25.4 24.3 -25.05 L24.35 -24.65 Q24.35 -24.45 24.4 -24.4 24.4 -24.35 24.55 -24.25 L24.65 -24.35 Q24.65 -24.55 24.75 -24.85 L24.9 -25.3 Q25.1 -24.95 25.1 -24.5 L25.0 -23.75 Q25.0 -22.95 26.25 -22.5 26.05 -21.65 25.45 -20.7 24.9 -19.9 24.9 -19.6 24.9 -19.45 24.95 -19.45 L25.15 -19.45 Q26.7 -20.6 27.0 -21.25 27.2 -21.65 27.2 -22.85 27.2 -23.25 26.4 -23.65 25.6 -24.1 25.55 -24.55 L25.4 -25.45 Q25.25 -26.1 25.25 -26.4 L25.3 -26.6 M25.75 -15.0 L26.2 -14.45 26.4 -14.6 Q26.5 -14.7 26.5 -14.8 26.5 -15.0 26.2 -15.3 25.85 -15.6 25.85 -16.0 25.85 -16.8 26.15 -17.35 26.6 -18.15 27.4 -17.3 27.7 -17.0 28.2 -16.7 28.45 -16.5 28.95 -16.25 29.8 -15.7 29.8 -15.05 29.8 -14.3 29.35 -13.5 28.65 -12.3 27.35 -12.3 26.1 -12.3 25.6 -13.2 25.4 -13.65 25.4 -14.2 25.4 -14.35 25.45 -14.65 25.6 -15.0 25.75 -15.0 M27.3 -16.1 L27.2 -16.05 27.05 -15.95 26.8 -15.7 Q27.65 -15.55 28.0 -15.15 L28.0 -14.95 Q27.95 -14.55 27.85 -14.1 L27.75 -13.75 27.6 -13.6 Q27.35 -13.45 27.35 -13.35 L27.4 -13.25 Q27.2 -13.1 27.0 -13.1 26.8 -13.1 26.65 -13.35 L26.55 -13.55 26.55 -13.5 26.4 -13.85 26.3 -13.85 26.3 -13.8 26.25 -13.6 Q26.25 -13.35 26.45 -13.15 L26.5 -13.1 Q26.55 -13.05 26.55 -13.0 L26.6 -12.95 27.4 -12.85 28.3 -12.85 28.35 -12.95 28.75 -13.55 Q29.15 -14.15 29.15 -14.4 29.15 -15.3 28.6 -15.95 28.05 -16.55 27.3 -16.1 M26.3 -16.4 L26.15 -16.4 26.15 -16.15 Q26.2 -16.1 26.25 -16.1 L26.3 -16.1 26.35 -16.05 26.5 -16.1 26.6 -16.05 27.0 -16.25 Q27.2 -16.4 27.2 -16.55 L27.2 -16.7 Q27.0 -16.95 26.65 -16.8 26.35 -16.65 26.3 -16.4 M27.95 -14.25 L28.1 -14.9 Q28.2 -14.7 28.2 -14.4 28.2 -14.05 27.8 -13.8 L27.95 -14.25 M32.7 -18.25 Q33.05 -18.15 33.1 -18.05 33.25 -17.8 33.25 -17.35 33.25 -16.65 32.9 -16.15 32.35 -15.4 31.1 -15.4 30.15 -15.4 29.9 -15.8 29.85 -15.9 29.85 -16.3 29.85 -17.3 29.95 -17.75 L30.35 -19.1 30.3 -19.3 Q30.3 -19.7 30.9 -19.65 31.5 -19.55 31.8 -18.95 L31.75 -18.85 32.05 -18.55 Q32.3 -18.35 32.7 -18.25 M31.05 -18.8 Q30.85 -18.85 30.7 -18.7 L30.45 -18.55 Q30.25 -18.4 30.15 -18.15 30.1 -18.0 30.1 -17.3 L30.2 -16.8 Q30.25 -16.45 30.3 -16.15 L30.95 -16.1 31.25 -16.05 Q32.1 -16.05 32.45 -16.5 32.7 -16.8 32.7 -17.2 32.7 -17.55 32.7 -17.65 32.5 -17.95 31.8 -17.95 31.55 -17.95 31.4 -17.75 L31.8 -17.6 32.05 -17.5 32.1 -17.45 Q32.1 -17.3 31.9 -17.05 L31.75 -16.85 Q31.0 -16.5 30.75 -17.1 30.65 -17.35 30.65 -18.05 30.65 -18.2 30.75 -18.25 L31.0 -18.3 31.1 -18.2 Q31.15 -18.2 31.35 -18.55 L31.05 -18.8 M30.7 -11.95 Q30.4 -11.75 30.35 -11.75 29.95 -11.75 29.7 -12.3 L29.5 -12.8 Q29.5 -14.1 30.5 -14.3 30.9 -14.35 31.2 -14.2 31.55 -14.0 31.55 -13.7 31.55 -13.45 31.5 -13.4 L31.25 -13.35 31.25 -13.4 Q31.0 -13.8 30.7 -13.9 L30.7 -14.0 30.6 -14.0 30.5 -13.95 Q30.3 -13.95 30.05 -13.75 29.6 -13.35 29.6 -12.8 29.6 -12.45 29.95 -12.35 30.45 -12.15 30.7 -11.95 M31.2 -13.35 L31.1 -13.35 31.0 -13.15 30.9 -12.85 31.15 -12.65 31.2 -12.45 Q31.2 -12.35 30.8 -12.05 L30.7 -12.0 30.7 -12.2 Q30.5 -12.25 30.35 -12.45 L30.25 -12.65 30.25 -12.7 30.2 -12.8 Q30.2 -12.9 30.4 -13.25 30.65 -13.65 30.85 -13.8 L31.2 -13.35 M31.85 -3.35 L32.15 -3.35 Q32.6 -3.25 33.0 -3.25 L33.3 -3.3 Q33.8 -3.4 34.2 -3.8 34.4 -4.0 34.6 -4.25 35.2 -5.15 35.2 -6.0 L35.15 -6.35 Q35.1 -6.65 34.85 -6.9 L34.8 -6.9 33.85 -7.0 33.65 -7.0 33.2 -6.9 32.85 -6.9 32.8 -7.25 Q32.7 -7.45 32.7 -7.6 32.7 -7.9 33.4 -8.85 L33.5 -8.95 33.5 -9.0 Q34.1 -9.85 34.25 -10.4 L34.25 -10.65 34.2 -10.9 34.15 -11.2 Q34.0 -11.65 34.0 -11.85 33.6 -11.55 33.3 -11.4 32.95 -11.2 32.6 -11.15 L32.3 -11.1 32.0 -11.1 31.9 -11.15 31.8 -11.3 31.75 -11.4 Q31.9 -11.6 32.25 -11.65 L32.3 -11.5 32.35 -11.45 32.4 -11.45 32.55 -11.6 32.55 -11.7 Q33.45 -12.7 34.05 -12.35 L34.2 -12.3 34.4 -12.35 Q34.6 -12.3 34.6 -11.75 L34.6 -11.25 Q34.6 -10.55 34.05 -9.25 L33.45 -8.1 Q33.45 -7.7 33.85 -7.55 34.1 -7.4 34.7 -7.25 35.9 -6.8 35.9 -5.45 35.9 -4.6 35.15 -3.9 34.35 -3.2 32.85 -2.85 L32.8 -2.85 32.25 -2.7 Q32.1 -2.75 31.8 -2.9 L31.5 -3.1 Q31.35 -3.1 31.25 -2.95 L31.15 -2.85 Q31.15 -2.45 30.65 -1.85 30.0 -1.05 29.25 -1.05 28.8 -1.05 28.5 -1.4 L28.55 -0.95 Q28.55 -0.55 28.25 -0.25 27.8 0.3 26.7 0.3 25.8 0.3 25.4 -0.2 25.3 -0.4 25.25 -0.55 L25.2 -0.75 25.25 -1.7 25.3 -1.8 25.45 -1.8 26.0 -1.45 Q26.6 -1.1 26.7 -1.1 26.9 -1.1 27.3 -1.4 L27.9 -1.8 Q28.1 -1.95 28.25 -1.9 28.15 -2.35 28.15 -2.8 28.15 -3.15 28.3 -3.9 28.5 -4.85 28.7 -4.85 29.15 -4.85 29.15 -4.2 L29.05 -3.4 29.25 -3.35 Q30.2 -4.5 31.25 -4.9 31.55 -5.0 31.65 -5.15 31.8 -5.35 31.8 -6.0 31.8 -6.2 31.7 -6.3 L31.6 -6.45 31.45 -6.5 Q31.1 -6.7 31.1 -7.2 31.1 -7.35 31.25 -7.55 31.3 -7.85 31.4 -7.8 L31.75 -8.15 32.05 -8.85 32.4 -9.4 32.4 -9.7 32.3 -9.85 32.2 -10.2 32.15 -10.2 Q32.1 -10.2 31.85 -10.0 31.65 -9.85 31.45 -9.85 30.75 -9.85 30.55 -10.4 30.5 -10.6 30.5 -11.05 30.5 -11.35 30.95 -11.9 31.45 -12.45 31.65 -12.45 32.3 -12.45 32.3 -12.2 L32.35 -12.05 Q32.2 -12.15 31.95 -12.15 L31.95 -12.1 31.8 -12.1 Q31.5 -12.05 31.35 -11.8 L31.2 -11.55 31.0 -11.35 31.0 -10.3 31.15 -10.25 31.35 -10.2 Q31.7 -10.2 31.95 -10.55 L32.1 -10.65 32.15 -10.7 Q32.3 -10.85 32.4 -10.85 32.85 -10.85 33.0 -10.55 L33.0 -10.0 Q33.0 -9.55 32.8 -9.1 32.65 -8.65 32.35 -8.15 L31.8 -7.3 Q31.65 -7.0 31.65 -6.9 L31.7 -6.85 Q31.7 -6.75 31.8 -6.6 L31.9 -6.45 32.05 -6.25 32.3 -6.0 Q32.95 -5.4 32.95 -5.1 32.95 -4.9 32.9 -4.8 32.75 -4.6 32.4 -4.4 L32.3 -4.35 Q32.1 -4.25 31.8 -4.15 L31.3 -4.1 31.25 -4.1 Q30.7 -4.05 30.5 -3.8 30.1 -3.2 29.9 -3.0 29.4 -2.5 29.0 -2.85 L28.95 -2.7 Q29.05 -2.35 29.1 -2.25 29.2 -2.0 29.7 -2.0 L30.05 -2.05 Q30.55 -2.15 30.9 -2.6 31.15 -2.9 31.35 -3.35 L31.75 -3.35 31.85 -3.3 31.85 -3.35 M25.65 -0.9 L25.55 -0.75 Q25.45 -0.7 25.45 -0.5 L25.5 -0.2 Q25.7 0.1 26.35 0.1 27.1 0.1 27.65 -0.1 28.2 -0.3 28.2 -0.6 28.2 -0.8 28.15 -0.85 L27.95 -1.0 Q27.8 -0.9 27.5 -0.8 27.25 -0.7 27.1 -0.7 L26.65 -0.75 25.65 -0.9 M23.75 -10.95 L23.7 -10.9 23.7 -10.95 23.75 -10.95 M19.8 6.0 L19.85 6.05 19.75 6.0 19.8 6.0 M16.6 3.5 Q16.6 4.3 16.1 5.2 15.25 6.55 13.6 6.55 L13.1 6.55 12.7 6.5 Q10.45 6.4 9.8 5.9 9.45 5.7 9.45 5.05 9.45 4.85 9.6 4.55 L9.7 4.15 Q9.7 3.9 9.15 3.7 8.6 3.5 7.25 3.35 7.2 3.25 6.3 3.15 L5.8 2.65 Q5.75 2.6 5.75 2.3 5.75 2.0 6.0 1.5 6.3 0.9 6.7 0.55 7.8 -0.5 8.9 1.15 L8.8 1.3 Q8.65 1.35 8.35 1.2 8.05 1.05 8.0 1.05 L7.9 1.1 Q7.8 1.2 7.8 1.3 7.8 1.55 8.5 1.8 L9.95 2.3 Q12.05 2.95 12.05 3.7 L12.05 4.0 Q12.0 4.15 11.7 4.3 L11.65 4.4 11.75 4.55 Q14.45 4.35 15.4 3.5 15.75 3.2 16.0 2.7 L16.3 2.0 16.5 2.75 Q16.6 3.35 16.6 3.5 M13.15 6.4 Q13.7 6.4 14.25 6.1 L14.85 5.7 Q15.6 5.1 15.6 4.8 L15.6 4.75 15.85 4.25 Q16.0 4.0 16.0 3.8 L16.0 3.6 15.95 3.5 Q15.75 3.7 15.5 4.1 15.35 4.45 15.15 4.65 L14.95 4.85 Q14.05 5.5 11.65 5.5 11.25 5.5 11.0 5.05 10.8 4.7 10.8 4.5 10.8 4.45 11.1 4.05 11.4 3.65 11.4 3.5 11.4 3.4 11.2 3.3 L11.0 3.2 Q10.65 3.05 10.1 2.9 9.75 2.7 9.3 2.65 7.25 2.15 6.9 1.7 L7.2 1.4 7.4 1.3 7.65 1.1 7.6 0.95 7.55 1.0 Q7.35 1.0 7.15 1.15 L7.2 1.15 7.1 1.2 7.05 1.25 Q6.85 1.4 6.7 1.6 L6.5 1.85 6.4 2.05 Q6.3 2.25 6.3 2.35 6.3 2.45 6.45 2.65 L6.7 2.95 7.65 3.05 7.9 3.05 7.95 3.0 7.85 2.95 8.05 2.95 8.3 3.15 8.3 3.2 8.55 3.3 9.35 3.5 10.45 3.75 Q10.4 4.15 10.15 4.6 9.95 5.05 9.95 5.25 9.95 5.6 10.9 5.95 L11.15 6.05 Q12.25 6.4 13.15 6.4 M-0.95 4.45 Q-1.5 4.1 -1.9 4.4 -2.3 4.65 -2.3 5.1 -2.3 5.4 -2.1 5.7 -1.75 6.3 -0.95 6.3 -0.2 6.3 1.05 5.7 2.25 5.15 2.25 4.85 2.25 4.7 2.2 4.7 L2.15 4.7 0.8 5.3 Q-0.3 5.8 -0.6 5.8 -1.1 5.8 -1.4 5.55 -1.6 5.4 -1.6 5.15 L-1.55 4.85 Q-1.5 4.65 -1.5 4.5 L-1.2 4.55 -1.05 4.55 Q-1.2 4.7 -1.2 4.75 -0.7 5.2 -0.65 5.2 0.05 5.2 1.2 4.65 1.95 4.25 2.45 3.85 2.65 4.05 2.75 4.6 2.75 5.15 1.75 6.05 0.55 7.05 -0.65 7.05 L-1.9 7.05 Q-2.05 6.8 -2.45 6.35 -2.6 6.2 -2.6 5.85 -2.6 5.55 -2.45 5.0 -2.3 4.25 -2.1 4.1 -1.6 3.65 -0.95 3.85 -0.3 4.1 -0.3 4.75 L-0.4 4.85 -0.7 4.65 -0.95 4.45 M-30.9 -17.9 L-30.85 -17.9 -30.8 -17.95 -30.85 -18.0 -30.85 -18.05 -30.95 -18.2 -31.0 -18.2 -30.95 -18.4 -30.95 -18.45 Q-31.75 -19.8 -31.9 -20.0 -33.3 -21.1 -34.0 -21.45 -35.65 -22.35 -35.65 -20.9 L-35.65 -20.3 Q-35.6 -19.95 -35.5 -19.75 -35.4 -19.55 -35.1 -19.4 -34.85 -19.25 -34.75 -19.1 -34.55 -18.8 -34.55 -18.15 L-34.55 -18.05 -34.7 -17.75 Q-34.85 -17.5 -34.85 -17.3 -34.85 -16.95 -34.6 -16.6 -34.4 -16.3 -34.1 -16.2 L-34.05 -16.2 -33.55 -16.25 -33.5 -16.25 Q-33.55 -16.3 -33.65 -16.35 L-33.75 -16.4 -33.8 -16.4 -34.0 -16.85 -34.2 -17.35 Q-34.2 -17.45 -34.05 -17.7 L-33.85 -17.95 Q-33.85 -18.15 -34.0 -18.5 L-34.15 -19.05 Q-34.2 -19.15 -34.4 -19.65 -34.55 -20.1 -34.55 -20.3 -34.55 -20.45 -34.5 -20.55 -34.4 -20.75 -33.95 -20.75 -33.6 -20.75 -32.4 -19.65 -31.15 -18.55 -31.15 -18.4 -31.15 -18.3 -31.45 -17.9 -31.75 -17.5 -31.75 -17.4 -31.75 -17.25 -31.55 -17.05 L-31.45 -16.95 -31.35 -16.9 -31.35 -16.85 Q-31.0 -16.6 -30.55 -16.55 L-30.6 -16.5 -30.55 -16.5 -30.3 -16.5 -29.95 -16.55 -29.75 -16.55 -29.8 -16.75 -29.8 -16.8 -29.85 -16.8 -29.85 -16.85 -29.9 -17.0 -29.75 -17.0 -29.75 -17.1 -29.95 -17.25 -30.0 -17.3 Q-30.1 -17.0 -30.25 -17.0 L-30.4 -17.0 Q-30.65 -17.0 -30.8 -17.1 -30.85 -17.15 -30.95 -17.2 -31.05 -17.35 -31.05 -17.55 -31.05 -17.7 -30.95 -17.85 L-30.95 -17.75 -30.9 -17.9 M-30.75 -17.9 Q-30.75 -17.55 -30.55 -17.35 -30.15 -17.55 -30.15 -17.7 -30.15 -17.8 -30.25 -18.0 L-30.25 -18.15 -30.1 -18.15 Q-29.8 -18.15 -29.6 -17.7 -29.45 -17.4 -29.45 -17.25 -29.45 -17.15 -29.65 -16.75 -29.85 -16.35 -29.9 -16.3 L-31.1 -16.3 -32.0 -17.05 Q-32.1 -17.2 -32.1 -17.7 L-32.1 -18.1 Q-32.0 -18.4 -31.8 -18.5 L-32.65 -19.25 Q-33.25 -19.8 -33.35 -19.8 -33.45 -19.8 -33.55 -19.6 -33.65 -19.4 -33.65 -19.35 -33.65 -19.2 -33.45 -18.75 -33.2 -18.35 -33.2 -18.0 -33.2 -17.75 -33.4 -17.45 -33.65 -17.15 -33.65 -17.1 -33.65 -16.8 -33.5 -16.55 -33.2 -16.2 -32.6 -16.35 L-32.55 -16.3 -32.5 -16.2 Q-32.5 -16.05 -32.65 -15.95 -32.75 -15.85 -33.0 -15.85 -34.15 -15.85 -34.7 -16.5 -35.05 -16.85 -35.05 -17.15 -35.05 -17.4 -34.9 -17.65 -34.8 -17.9 -34.8 -18.05 -34.8 -18.45 -35.45 -19.4 -36.1 -20.35 -36.1 -21.1 -36.1 -22.25 -35.25 -22.45 -34.45 -22.6 -33.3 -21.95 -32.2 -21.35 -31.4 -20.4 -30.5 -19.4 -30.5 -18.6 L-30.75 -17.9 M-29.15 -17.05 Q-29.05 -17.2 -28.9 -17.25 -28.45 -17.4 -27.95 -17.65 -27.55 -17.9 -27.35 -18.4 -27.1 -19.05 -26.8 -19.35 L-26.75 -19.35 -26.85 -19.4 -26.9 -19.45 Q-26.5 -20.05 -25.65 -19.65 -25.15 -19.45 -24.85 -19.1 -24.45 -18.9 -24.25 -18.65 -24.15 -18.45 -24.0 -17.55 -23.85 -16.9 -23.55 -16.9 L-23.25 -16.95 -22.95 -17.1 Q-23.15 -17.4 -23.45 -17.5 L-23.4 -17.8 Q-23.35 -17.95 -23.2 -17.95 -22.5 -17.95 -22.35 -17.1 L-22.3 -16.2 Q-22.3 -15.9 -22.8 -15.3 -23.35 -14.7 -23.75 -14.7 -24.2 -14.7 -24.45 -15.15 -24.55 -15.4 -24.75 -16.15 -24.9 -16.85 -25.1 -17.15 -25.4 -17.6 -26.0 -17.6 -26.35 -17.6 -26.55 -17.25 -26.7 -17.0 -26.7 -16.85 -26.7 -16.7 -26.6 -16.6 L-26.3 -16.3 Q-26.45 -16.15 -26.75 -16.0 L-27.25 -16.0 -27.6 -16.3 -27.8 -16.1 -27.8 -16.0 Q-27.8 -15.85 -27.55 -15.65 -27.35 -15.5 -27.35 -15.35 -27.35 -15.2 -27.55 -15.05 -27.75 -14.95 -28.0 -14.95 -28.95 -14.95 -29.2 -15.5 -29.3 -15.7 -29.3 -16.2 -29.3 -16.65 -29.15 -17.05 M-24.1 -15.7 Q-24.3 -15.5 -24.3 -15.4 L-23.7 -15.4 Q-23.5 -15.4 -23.15 -15.65 -22.9 -15.9 -22.85 -16.0 L-22.85 -16.6 -23.1 -16.6 Q-23.7 -16.65 -24.0 -16.9 -24.2 -17.05 -24.3 -17.3 L-24.5 -17.9 Q-24.6 -18.25 -24.8 -18.4 -25.55 -19.15 -26.6 -18.45 -27.0 -18.2 -27.3 -17.8 -27.55 -17.45 -27.55 -17.2 L-27.55 -16.95 -27.5 -16.95 -27.45 -16.85 Q-27.3 -16.7 -27.1 -16.7 L-27.0 -16.7 -27.0 -16.75 Q-27.1 -17.0 -27.1 -17.2 -26.8 -18.05 -26.3 -18.05 -26.05 -18.05 -25.8 -17.9 L-25.9 -18.05 -25.85 -18.05 -25.8 -18.15 Q-25.75 -18.2 -25.7 -18.2 -25.4 -18.2 -25.15 -17.95 -24.9 -17.7 -24.9 -17.55 L-24.95 -17.5 -24.95 -17.4 -25.05 -17.25 -25.15 -17.3 -24.95 -17.05 -24.45 -16.25 -24.2 -15.9 -24.1 -15.7 M-29.1 -16.1 Q-29.1 -15.9 -29.05 -15.85 L-28.9 -15.75 -28.85 -15.75 Q-28.75 -15.65 -28.55 -15.65 -28.3 -15.65 -28.2 -15.75 L-28.2 -15.8 Q-28.35 -16.0 -28.45 -16.1 L-28.5 -16.35 -28.45 -16.55 Q-28.35 -16.65 -28.1 -16.7 L-28.05 -16.65 -27.95 -16.5 Q-27.85 -16.35 -27.75 -16.3 L-27.75 -16.35 -27.7 -16.3 Q-27.7 -16.25 -27.7 -16.4 L-27.7 -16.65 Q-27.75 -16.9 -27.9 -17.05 -28.1 -17.2 -28.4 -17.15 -28.65 -17.1 -28.8 -16.9 L-28.85 -16.8 Q-29.1 -16.5 -29.1 -16.1 M-24.7 -14.5 Q-24.2 -14.55 -23.85 -14.35 -23.45 -14.15 -23.45 -13.85 L-23.45 -13.7 Q-24.45 -13.6 -24.65 -13.3 L-24.7 -12.85 Q-24.75 -12.5 -25.15 -12.5 -25.65 -12.5 -25.85 -12.8 -26.0 -13.0 -26.0 -13.25 -26.0 -13.85 -25.6 -14.15 -25.25 -14.45 -24.7 -14.5 M-33.7 -13.35 L-33.9 -13.4 Q-34.2 -13.4 -34.7 -13.15 -35.2 -12.9 -35.2 -12.75 -35.2 -12.65 -35.05 -12.35 -34.95 -12.05 -34.95 -11.95 -34.95 -11.65 -35.2 -11.1 -35.55 -10.3 -36.05 -10.3 L-36.6 -10.35 Q-36.7 -10.4 -37.35 -10.7 L-37.5 -10.65 Q-37.55 -10.65 -37.55 -10.5 -37.15 -8.7 -36.8 -8.7 -36.7 -8.7 -36.6 -8.75 L-36.55 -8.85 -36.4 -8.7 -36.35 -8.6 Q-36.35 -8.35 -36.5 -8.1 -36.7 -7.7 -37.05 -7.7 -38.15 -7.7 -38.5 -8.2 -38.65 -8.4 -38.65 -8.8 L-38.65 -9.2 Q-38.55 -9.5 -38.3 -9.6 L-38.9 -9.85 Q-39.35 -10.0 -39.5 -10.2 -39.65 -10.4 -39.7 -10.5 L-39.7 -10.85 Q-39.7 -11.05 -39.4 -11.75 -39.05 -12.45 -38.85 -12.65 L-38.2 -12.65 -37.55 -12.0 -37.0 -11.5 Q-36.7 -11.5 -36.6 -11.85 -36.55 -12.0 -36.55 -12.15 -36.55 -12.5 -36.9 -12.95 -37.15 -13.25 -37.75 -13.7 -38.0 -13.95 -38.25 -14.55 -38.45 -15.05 -38.45 -15.25 -38.45 -16.75 -36.05 -15.05 -35.75 -14.85 -35.15 -14.7 L-34.15 -14.45 Q-33.0 -14.2 -33.0 -13.5 -33.0 -13.1 -33.0 -12.95 -33.05 -12.6 -33.25 -12.4 L-33.35 -12.4 Q-33.4 -12.45 -33.35 -12.55 L-33.35 -12.8 Q-33.35 -12.9 -33.5 -13.1 L-33.5 -13.15 -33.5 -13.25 -33.45 -13.25 -33.4 -13.4 -33.45 -13.45 -33.5 -13.55 -33.5 -13.65 -33.4 -13.65 -33.5 -13.7 -33.5 -13.9 Q-33.5 -14.0 -33.65 -14.0 L-33.85 -14.0 -33.8 -13.95 -33.95 -14.05 -34.55 -14.4 Q-35.0 -14.65 -35.6 -14.65 -36.05 -14.65 -36.45 -15.0 -36.8 -15.3 -37.0 -15.4 L-36.95 -15.35 -37.05 -15.4 Q-37.15 -15.5 -37.25 -15.5 L-37.2 -15.5 -37.5 -15.55 -37.6 -15.5 Q-37.75 -15.35 -37.75 -14.65 -37.75 -14.15 -37.5 -13.85 -37.3 -13.65 -36.9 -13.4 L-36.65 -13.25 Q-36.4 -13.05 -36.3 -12.95 -36.0 -12.6 -36.0 -12.1 -36.0 -11.85 -36.2 -11.55 -36.5 -11.1 -37.0 -11.1 -37.15 -11.1 -37.7 -11.6 -38.25 -12.15 -38.45 -12.15 -38.6 -12.15 -38.9 -11.6 -39.2 -11.1 -39.2 -10.95 -39.15 -10.7 -39.0 -10.5 -38.75 -10.05 -38.25 -10.05 L-38.1 -10.1 -38.05 -10.15 -38.25 -10.5 Q-38.35 -10.7 -38.35 -10.85 L-38.35 -11.15 Q-38.2 -11.15 -38.1 -11.25 -38.05 -11.3 -37.9 -11.3 -37.8 -11.3 -37.6 -11.0 L-37.55 -11.0 Q-37.35 -10.75 -37.1 -10.75 L-36.8 -10.8 Q-36.25 -10.85 -35.95 -11.3 -35.75 -11.65 -35.75 -12.15 -35.75 -12.3 -35.9 -12.75 -36.05 -13.2 -36.05 -13.35 -36.05 -13.45 -35.75 -13.65 -35.3 -13.95 -34.55 -13.95 -33.95 -13.95 -33.85 -13.65 L-33.85 -13.6 -33.7 -13.35 M-37.6 -9.3 Q-37.6 -9.45 -37.65 -9.4 L-37.75 -9.35 -37.75 -9.4 -37.8 -9.35 -38.0 -9.2 -38.05 -9.25 -38.2 -9.05 Q-38.25 -8.95 -38.25 -8.8 -38.25 -8.5 -38.2 -8.45 -38.05 -8.25 -37.35 -8.1 L-36.8 -8.1 -36.8 -8.25 -36.85 -8.25 Q-37.5 -8.45 -37.6 -8.55 -37.65 -8.6 -37.65 -8.85 -37.65 -9.0 -37.6 -9.1 -37.55 -9.25 -37.55 -9.3 L-37.6 -9.3 M-35.0 -6.85 Q-35.05 -6.9 -35.2 -6.95 -35.15 -6.95 -35.1 -6.95 L-35.1 -7.0 Q-35.3 -7.15 -35.55 -7.2 -35.85 -7.3 -36.05 -6.8 -36.2 -6.3 -36.1 -6.05 L-36.0 -5.85 -36.0 -5.8 -35.95 -5.75 -35.95 -5.7 -35.9 -5.65 -35.9 -5.55 Q-35.85 -5.4 -35.1 -5.35 L-35.0 -5.45 -35.0 -5.55 -35.4 -5.9 -35.55 -6.0 -35.6 -6.15 Q-35.6 -6.45 -35.55 -6.55 -35.45 -6.75 -35.0 -6.85 -35.25 -6.75 -35.25 -6.45 -35.25 -6.2 -34.85 -5.9 -34.5 -5.6 -34.5 -5.35 -34.5 -5.2 -34.75 -5.0 -35.0 -4.8 -35.1 -4.8 -35.95 -4.8 -36.2 -5.4 -36.35 -5.65 -36.35 -6.1 -36.35 -7.4 -35.5 -7.75 -35.25 -7.85 -34.95 -7.8 -34.7 -7.8 -34.7 -7.7 -34.7 -7.6 -34.55 -7.45 -34.35 -7.3 -34.35 -7.1 L-34.95 -6.9 -35.0 -6.85 M-36.0 -6.35 L-36.05 -6.35 -35.95 -6.5 -36.0 -6.35 M-24.05 -13.85 L-23.95 -13.95 -23.95 -14.0 -24.15 -14.1 -25.2 -14.15 Q-25.5 -14.05 -25.65 -13.7 -25.7 -13.5 -25.7 -13.15 -25.7 -13.0 -25.65 -12.95 L-25.4 -12.95 -25.25 -13.1 -25.3 -13.25 Q-25.35 -13.4 -25.3 -13.5 -25.2 -13.9 -24.4 -13.9 -24.3 -13.9 -24.25 -13.8 L-24.15 -13.85 -24.05 -13.85 M-26.6 -6.85 L-26.4 -7.25 -26.3 -7.35 Q-26.25 -7.55 -26.25 -7.6 -26.25 -7.7 -26.35 -8.15 -26.45 -8.6 -26.45 -8.8 L-26.0 -8.85 -26.0 -8.7 -25.9 -8.6 -25.7 -8.5 -25.75 -8.75 Q-25.9 -9.35 -26.45 -9.5 -26.75 -9.6 -26.95 -9.45 L-27.05 -9.3 Q-27.15 -9.15 -27.15 -8.95 L-27.05 -8.8 -26.9 -8.45 Q-26.65 -8.1 -26.65 -7.6 -26.65 -7.25 -26.8 -6.9 -27.0 -6.45 -27.35 -6.3 L-27.4 -6.3 -27.7 -6.25 -27.8 -6.3 -27.9 -6.3 -28.1 -6.45 -28.1 -6.5 -28.15 -6.6 Q-28.3 -6.85 -28.6 -6.9 L-28.8 -6.95 Q-29.15 -6.95 -29.4 -6.45 L-29.4 -6.4 Q-29.6 -6.05 -29.6 -5.8 L-29.55 -5.4 -29.45 -5.0 -29.15 -4.95 -28.7 -4.95 -28.7 -5.15 -28.9 -5.4 -29.1 -5.7 Q-29.1 -5.8 -28.95 -5.9 L-28.9 -5.95 Q-28.8 -6.05 -28.65 -6.05 L-28.35 -6.1 -28.25 -6.1 Q-28.15 -6.1 -28.05 -6.0 L-27.95 -5.85 -27.35 -5.8 Q-27.15 -5.9 -26.85 -6.3 L-26.75 -6.4 Q-26.65 -6.55 -26.6 -6.75 L-26.6 -6.85 M-24.7 -9.15 L-25.35 -9.2 -25.4 -9.3 -25.25 -9.45 Q-24.35 -9.7 -23.9 -9.2 -23.6 -8.85 -23.6 -8.4 -23.6 -8.15 -24.0 -7.55 -24.4 -6.85 -24.9 -6.85 -25.5 -6.85 -25.8 -7.15 -26.2 -6.8 -26.85 -6.05 -27.3 -5.6 -27.45 -5.5 -27.7 -5.35 -27.7 -5.7 L-27.7 -5.75 -28.1 -5.7 -28.1 -5.65 Q-28.1 -5.6 -28.25 -5.55 L-28.3 -5.5 Q-28.3 -5.4 -28.2 -5.3 L-28.1 -5.2 -28.05 -5.2 -27.5 -5.25 -27.45 -5.25 -27.4 -5.3 -27.3 -5.25 Q-27.25 -5.2 -27.25 -5.05 -27.25 -4.85 -27.8 -4.65 -28.05 -4.55 -28.3 -4.45 L-28.55 -4.4 -28.9 -4.4 Q-29.3 -4.4 -29.7 -4.75 -30.0 -5.0 -30.0 -5.15 -30.0 -5.75 -29.85 -6.4 -29.55 -7.45 -29.0 -7.45 -28.85 -7.45 -28.65 -7.3 -28.2 -7.25 -27.85 -6.9 -27.5 -6.95 -27.35 -7.25 L-27.3 -7.3 Q-27.2 -7.55 -27.15 -7.95 -27.15 -8.5 -27.25 -9.05 -27.25 -9.65 -26.9 -9.9 -26.65 -10.3 -26.4 -10.4 -26.05 -10.55 -25.85 -10.05 -25.65 -9.9 -25.65 -9.6 L-25.65 -9.5 -25.7 -9.5 -25.7 -9.55 Q-25.65 -9.2 -25.65 -8.7 -25.5 -8.7 -25.5 -8.6 -25.5 -8.5 -25.45 -8.45 L-25.35 -8.45 Q-25.6 -8.35 -25.65 -8.15 -25.75 -8.0 -25.75 -7.8 L-25.75 -7.6 -25.7 -7.5 -25.65 -7.3 -25.65 -7.25 -24.9 -7.2 Q-24.4 -7.2 -24.15 -7.75 -23.95 -8.15 -23.95 -8.6 -23.95 -8.8 -24.05 -8.85 L-24.7 -9.15 M-25.3 -8.45 L-24.9 -8.45 -24.65 -8.65 Q-24.5 -8.85 -24.5 -8.9 L-24.4 -8.9 -24.05 -8.6 -24.05 -8.5 Q-24.2 -8.35 -24.3 -8.1 -24.35 -8.0 -24.95 -8.0 L-25.1 -8.15 -25.3 -8.45 M-28.55 -9.55 L-28.55 -9.5 Q-28.7 -9.4 -28.95 -9.25 -29.25 -9.1 -29.4 -9.1 -29.45 -9.1 -29.55 -9.3 L-29.65 -9.6 Q-29.65 -9.75 -29.55 -9.8 -29.45 -9.85 -29.45 -10.0 -29.45 -10.15 -29.5 -10.15 L-29.55 -10.2 Q-29.8 -10.15 -29.9 -9.9 L-29.9 -9.6 Q-29.9 -9.4 -29.8 -9.2 -29.5 -8.8 -28.85 -8.8 -28.25 -8.8 -28.05 -9.05 -27.9 -9.2 -27.9 -9.45 -27.9 -10.05 -28.55 -10.15 -29.2 -10.25 -29.2 -9.7 L-29.2 -9.55 -29.15 -9.5 -28.95 -9.55 -28.55 -9.55 M-28.9 -8.5 Q-29.55 -8.5 -30.0 -9.05 -30.3 -9.45 -30.3 -9.75 -30.3 -10.15 -30.0 -10.4 -29.65 -10.7 -29.1 -10.25 -28.1 -10.3 -27.65 -9.8 -27.45 -9.5 -27.45 -9.2 -27.45 -8.95 -27.8 -8.75 -28.2 -8.5 -28.9 -8.5 M-27.0 -8.3 L-26.95 -7.85 -26.9 -8.05 -27.0 -8.3 M-31.15 -11.05 Q-31.4 -11.15 -31.7 -11.05 -32.45 -10.8 -32.45 -10.05 -32.45 -9.95 -32.35 -9.8 -32.2 -9.6 -31.9 -9.6 L-31.75 -9.6 -31.75 -9.7 -31.9 -10.25 -31.9 -10.35 -31.8 -10.55 Q-31.65 -10.65 -31.45 -10.65 -31.3 -10.65 -31.2 -10.5 -31.1 -10.35 -31.0 -10.35 L-30.95 -10.45 Q-30.9 -10.5 -30.9 -10.65 -30.9 -10.95 -31.15 -11.05 M-30.85 -11.4 Q-30.45 -11.2 -30.45 -10.6 -30.45 -10.25 -30.75 -10.1 L-30.85 -10.4 -31.05 -10.3 Q-31.2 -10.25 -31.35 -10.2 L-31.3 -10.05 Q-31.25 -9.9 -31.25 -9.8 -31.25 -9.7 -31.4 -9.6 -31.6 -9.4 -31.75 -9.2 L-32.35 -9.2 Q-32.65 -9.5 -32.75 -9.65 -32.95 -9.9 -32.95 -10.1 -32.95 -10.55 -32.55 -10.95 -32.2 -11.3 -31.7 -11.45 L-30.85 -11.4 M-29.7 -6.5 L-29.65 -6.6 -29.65 -6.65 -29.7 -6.5 M-29.0 -1.95 Q-28.8 -2.1 -28.25 -2.1 -27.7 -2.1 -27.5 -2.2 -27.15 -2.35 -27.15 -2.85 -27.15 -3.15 -27.45 -3.55 -27.75 -4.0 -27.75 -4.05 -27.75 -4.65 -27.15 -4.45 -26.55 -4.25 -26.55 -3.9 L-26.1 -3.0 Q-25.6 -2.1 -25.6 -1.35 L-25.65 -0.9 Q-25.7 -0.55 -25.8 -0.45 -26.1 -0.45 -26.15 -0.5 -26.25 -0.75 -26.5 -1.0 L-26.55 -0.95 Q-26.45 -0.75 -26.1 -0.45 -25.8 -0.2 -25.55 -0.05 -24.95 -0.05 -24.1 -0.25 L-23.2 -0.4 -22.4 -0.4 -22.25 -0.25 Q-22.15 -0.15 -22.15 -0.1 -22.15 0.05 -23.75 1.1 -25.35 2.25 -25.8 2.25 -27.3 2.25 -28.4 0.95 -29.35 -0.15 -29.35 -1.15 -29.35 -1.75 -29.0 -1.95 M-23.8 -4.2 Q-23.6 -4.55 -23.25 -4.75 -22.35 -5.2 -21.2 -4.1 -21.25 -3.9 -21.5 -3.9 -21.7 -3.9 -21.75 -4.05 -21.8 -4.2 -21.95 -4.2 -22.5 -4.2 -22.8 -3.75 -22.95 -3.5 -22.95 -3.25 -22.95 -2.5 -22.3 -2.45 L-21.8 -2.4 Q-21.5 -2.4 -21.35 -2.25 L-21.55 -2.05 Q-21.75 -1.95 -22.35 -1.95 -23.25 -1.95 -23.7 -2.65 -23.95 -3.15 -23.95 -3.55 -23.95 -3.85 -23.8 -4.2 M-27.45 -6.8 Q-27.55 -6.75 -27.65 -6.7 L-27.55 -6.6 -27.45 -6.6 -27.45 -6.8 M-18.9 1.65 L-18.95 2.1 Q-18.9 2.45 -18.8 2.7 -18.65 2.95 -18.4 3.15 -17.85 3.55 -16.8 3.6 -16.65 3.5 -16.5 3.4 -16.3 3.25 -16.05 3.25 -15.9 3.25 -15.9 3.35 L-15.85 3.5 Q-15.05 3.65 -14.75 3.85 L-14.65 4.45 Q-14.45 5.05 -14.0 5.05 -13.85 5.05 -13.75 5.0 L-13.7 4.9 -13.9 4.85 -13.6 4.85 -12.1 4.25 Q-10.8 3.65 -10.8 3.25 -10.8 3.1 -10.85 3.1 L-11.1 3.1 -12.1 3.2 -12.75 3.3 -13.5 3.4 Q-13.55 3.45 -13.55 3.65 -12.9 3.7 -12.85 3.9 -12.95 4.15 -13.25 4.3 L-13.25 4.25 Q-13.55 4.25 -13.8 3.95 L-14.05 3.6 -14.15 3.6 -14.25 3.5 Q-15.05 2.55 -15.65 2.15 L-15.7 2.1 -15.95 2.35 -16.05 2.6 Q-16.2 2.8 -16.9 2.8 -17.6 2.8 -17.9 2.4 -18.1 2.1 -18.1 1.65 -18.1 1.55 -17.95 1.35 -17.85 1.1 -17.55 0.8 L-16.95 0.75 -16.45 0.25 Q-16.0 -0.3 -16.0 -0.55 -16.0 -0.8 -16.25 -1.0 -16.5 -1.2 -16.95 -1.35 L-17.6 -1.5 Q-17.9 -1.6 -17.9 -1.75 -17.9 -1.9 -17.6 -2.2 -17.4 -2.45 -17.15 -2.65 L-16.95 -2.75 -17.05 -2.75 -17.7 -2.7 Q-18.0 -2.6 -18.15 -2.45 L-18.15 -2.4 Q-18.25 -2.25 -18.25 -1.75 -18.25 -1.6 -18.2 -1.5 L-18.1 -1.35 -17.95 -1.15 -16.8 -1.1 -16.6 -0.85 Q-16.55 -0.65 -16.55 -0.5 -16.55 -0.4 -16.6 -0.3 -16.7 -0.15 -16.95 0.1 L-17.5 0.15 Q-18.5 0.25 -18.8 0.7 -18.9 0.85 -18.9 1.05 L-18.95 1.15 -18.9 1.65 M-27.2 -3.5 L-27.3 -3.5 Q-27.2 -3.35 -27.25 -3.25 L-27.05 -3.2 -26.85 -3.0 Q-26.7 -2.8 -26.7 -2.7 -26.7 -2.55 -26.95 -2.25 L-27.25 -1.95 Q-27.35 -1.85 -27.45 -1.8 L-28.2 -1.75 Q-28.8 -1.4 -28.8 -0.75 -28.8 -0.6 -28.65 -0.25 -28.45 0.2 -28.15 0.6 -27.2 1.7 -25.8 1.7 -25.4 1.7 -24.45 1.05 -23.45 0.35 -23.2 0.35 L-23.2 0.15 Q-23.25 0.1 -23.4 0.1 -24.35 0.1 -24.5 0.25 L-24.55 0.4 Q-24.6 0.5 -24.75 0.55 L-25.45 0.6 Q-26.15 0.6 -26.85 -0.15 -27.4 -0.8 -27.4 -1.15 -27.4 -1.3 -27.3 -1.45 L-27.15 -1.6 -26.85 -1.35 -26.65 -1.25 -26.25 -1.2 -26.2 -1.2 -26.2 -2.25 Q-26.3 -2.5 -26.45 -3.15 -26.65 -3.6 -27.2 -3.5 M-16.55 -2.8 Q-16.85 -2.7 -17.05 -2.2 L-16.5 -1.6 Q-15.95 -0.95 -15.95 -0.7 -15.95 0.1 -16.65 0.75 L-17.1 1.1 Q-17.35 1.3 -17.35 1.45 -17.35 1.65 -17.2 1.9 -17.0 2.2 -16.8 2.2 -16.45 2.2 -16.15 2.0 L-15.65 1.75 -15.15 1.75 Q-14.8 1.9 -14.5 2.35 -14.1 2.8 -13.95 2.9 L-13.3 2.9 Q-12.7 2.65 -12.45 2.65 L-11.4 2.65 -11.05 2.7 -10.5 2.75 -10.3 2.95 Q-10.25 3.0 -10.25 3.05 -10.25 3.45 -11.65 4.5 -13.1 5.65 -13.95 5.65 -14.6 5.65 -14.85 5.25 -15.0 5.05 -15.0 4.85 -15.0 4.75 -15.2 4.45 L-15.6 3.8 Q-15.95 3.75 -16.2 3.9 L-16.75 4.45 Q-18.4 4.15 -18.95 3.0 -19.25 2.35 -19.25 1.2 -19.25 0.7 -18.85 0.5 L-17.2 -0.3 Q-17.5 -0.6 -18.35 -0.95 -19.0 -1.25 -19.0 -1.55 -19.0 -1.95 -18.85 -2.25 L-18.85 -2.4 Q-18.85 -2.65 -18.4 -2.8 L-17.45 -3.15 -17.4 -3.15 Q-17.15 -3.3 -17.1 -3.55 -16.85 -4.75 -15.95 -4.15 -15.6 -3.9 -15.35 -3.5 -15.05 -3.15 -15.05 -2.95 -15.05 -2.8 -15.3 -2.4 -15.5 -1.95 -15.7 -1.75 L-16.15 -1.75 -16.45 -1.95 -16.45 -2.45 -15.85 -2.55 -16.05 -2.75 -16.15 -2.8 Q-15.85 -2.85 -15.75 -3.0 L-15.7 -3.05 Q-15.65 -3.25 -15.7 -3.6 L-15.75 -3.7 -15.85 -3.7 Q-16.2 -3.7 -16.5 -3.45 -16.8 -3.2 -16.85 -3.0 -16.85 -2.85 -16.8 -2.85 L-16.75 -2.85 -16.55 -2.8 M-13.45 -2.9 L-13.4 -2.9 Q-13.35 -2.9 -13.35 -2.75 -13.35 -2.7 -13.45 -2.5 L-13.55 -2.25 Q-13.55 -2.0 -13.35 -1.6 -13.1 -1.15 -12.8 -1.15 -12.15 -1.15 -11.6 -1.35 -11.25 -1.5 -11.1 -1.65 L-11.05 -1.65 Q-11.0 -1.65 -11.0 -1.5 -11.0 -1.25 -11.6 -0.95 -12.15 -0.65 -12.75 -0.65 -13.85 -0.65 -14.15 -1.0 -14.3 -1.15 -14.2 -1.35 -14.2 -1.6 -14.05 -2.1 -13.8 -2.8 -13.45 -2.9 M-6.85 -4.45 Q-6.85 -4.75 -5.45 -5.85 -4.9 -6.0 -4.6 -5.85 -4.4 -5.8 -4.2 -5.55 -4.0 -5.25 -3.85 -5.2 -3.6 -5.05 -3.05 -5.2 -3.05 -5.3 -3.05 -5.1 -3.05 -4.8 -3.45 -4.5 -3.9 -4.15 -4.45 -4.15 L-4.65 -4.2 -4.8 -4.2 -4.8 -4.75 Q-4.75 -4.95 -4.5 -5.0 L-4.45 -5.05 Q-4.45 -5.1 -4.55 -5.1 -5.15 -5.1 -5.4 -4.55 -5.4 -4.45 -5.15 -3.95 -4.9 -3.45 -4.9 -3.25 -4.9 -3.15 -5.0 -2.85 -5.1 -2.55 -5.1 -2.45 -5.1 -2.15 -4.85 -2.1 L-2.1 -2.1 -2.05 -1.95 -2.3 -1.9 -2.75 -1.85 Q-2.8 -1.75 -2.9 -1.5 -3.0 -1.15 -3.1 -1.0 -3.45 -0.4 -4.65 -0.4 -5.25 -0.4 -6.45 -1.1 -7.55 -1.7 -7.55 -1.95 -7.55 -2.4 -7.1 -2.85 -6.6 -3.35 -6.6 -3.5 -6.6 -3.6 -6.75 -3.95 -6.85 -4.3 -6.85 -4.45 M-5.95 -4.85 L-6.25 -4.6 Q-6.35 -4.65 -6.4 -4.55 L-6.45 -4.4 Q-6.55 -4.25 -6.55 -4.05 -6.55 -3.95 -6.3 -3.65 -6.05 -3.35 -6.05 -3.3 -6.05 -3.05 -6.55 -2.8 -7.0 -2.55 -7.0 -2.05 -7.0 -1.9 -6.8 -1.7 -6.65 -1.55 -6.35 -1.35 -5.75 -0.95 -5.05 -0.85 L-4.5 -0.8 Q-4.3 -0.8 -4.1 -0.95 L-3.85 -1.05 -3.65 -1.05 -3.6 -1.0 -3.6 -1.2 Q-4.65 -1.3 -5.6 -1.6 -6.5 -1.9 -6.5 -2.1 -6.5 -2.35 -6.05 -2.65 -5.6 -3.0 -5.6 -3.5 L-5.65 -3.65 -5.65 -3.7 -6.0 -4.35 Q-6.0 -4.45 -5.8 -4.55 L-5.65 -4.7 Q-5.6 -4.75 -5.6 -4.8 -5.6 -5.0 -5.65 -4.95 -5.8 -4.9 -5.95 -4.85 M-2.5 3.5 Q-2.35 3.7 -2.35 3.75 -2.35 4.3 -3.45 5.4 -4.0 5.95 -4.7 6.5 L-6.3 6.6 Q-7.5 6.6 -8.05 5.75 -8.35 5.25 -8.35 4.65 -8.35 4.3 -8.05 3.9 -7.8 3.5 -7.45 3.3 -7.1 3.15 -6.85 3.3 -6.6 3.45 -6.6 4.1 -6.6 4.3 -6.45 4.5 -6.25 4.75 -5.85 4.75 -5.25 4.75 -4.05 4.2 -2.85 3.65 -2.7 3.35 L-2.5 3.5 M-3.9 0.9 Q-3.85 0.9 -3.85 1.0 -3.85 1.3 -4.3 1.75 -4.75 2.25 -5.1 2.25 -5.55 2.25 -5.75 1.9 -5.85 1.7 -5.85 1.5 -5.85 1.1 -5.65 0.85 -5.45 0.65 -5.05 0.65 L-4.85 0.25 Q-4.65 -0.1 -4.3 0.3 -4.1 0.5 -4.05 0.65 -4.0 0.8 -4.0 1.05 L-3.9 0.9 M-5.25 3.15 Q-5.25 2.85 -5.75 2.75 -6.25 2.65 -6.25 3.2 -6.25 3.3 -6.15 3.45 -5.95 3.6 -5.55 3.6 L-5.4 3.45 Q-5.25 3.3 -5.25 3.15 M-5.2 1.65 L-5.15 1.7 -5.2 1.7 -5.2 1.65 M-4.35 0.55 Q-4.5 0.4 -4.9 0.6 L-4.55 0.65 Q-4.45 0.65 -4.45 0.8 L-4.45 0.9 -4.7 1.1 Q-4.85 1.2 -5.0 1.2 L-5.35 1.15 -5.35 1.6 -5.3 1.65 -5.15 1.85 Q-4.75 1.95 -4.45 1.5 -4.2 1.15 -4.2 0.9 -4.2 0.65 -4.35 0.55 M-5.25 3.5 Q-5.5 3.8 -5.6 3.8 L-6.15 3.8 -6.4 3.55 Q-6.5 3.4 -6.5 3.3 -6.5 2.3 -5.7 2.4 -5.45 2.45 -5.2 2.65 -4.95 2.8 -4.95 3.0 -4.95 3.15 -5.25 3.5 M-5.35 6.0 L-5.05 5.95 -5.15 6.0 -5.35 6.0 M-2.95 4.6 L-2.95 4.55 -3.1 4.55 Q-3.25 4.55 -3.3 4.5 -3.4 4.4 -3.5 4.35 L-3.8 4.7 Q-4.0 4.95 -4.15 5.05 -4.75 5.5 -6.45 5.6 L-6.9 5.1 Q-7.0 4.95 -7.0 4.8 L-6.85 4.25 -6.65 3.75 Q-7.25 3.25 -7.65 4.0 -7.85 4.4 -7.95 4.85 -7.95 5.2 -7.55 5.6 L-7.1 5.95 -6.85 6.05 Q-6.5 6.15 -6.0 6.15 L-5.35 6.3 -5.35 6.25 -5.6 6.15 -5.15 6.15 -4.05 5.4 -2.95 4.6 M-6.6 1.6 Q-6.75 2.05 -7.0 2.4 -7.65 3.45 -8.6 3.45 -9.9 3.45 -10.5 2.7 -10.85 2.25 -10.85 1.8 -10.85 1.05 -10.75 0.85 -10.5 0.2 -9.45 0.1 -9.25 0.15 -8.95 0.45 -8.7 0.8 -8.7 1.0 L-8.7 1.15 -8.75 1.2 Q-8.85 1.15 -9.05 1.0 -9.2 0.9 -9.25 0.9 L-9.4 0.9 Q-9.4 0.95 -9.5 0.95 L-9.5 1.35 -9.25 1.55 Q-8.9 1.75 -8.3 1.75 -7.65 1.75 -7.25 1.4 -6.95 1.1 -6.45 1.2 L-6.6 1.6 M-7.35 2.0 L-7.8 2.0 -9.4 2.3 Q-9.6 2.3 -9.85 1.95 -10.1 1.65 -10.1 1.45 -10.1 1.4 -9.85 1.1 -9.9 1.05 -9.9 0.95 -9.9 0.85 -9.7 0.85 L-9.5 0.8 -9.3 0.85 -9.25 0.85 Q-9.25 0.8 -9.25 0.75 L-9.3 0.7 -9.55 0.65 Q-10.05 0.65 -10.3 1.15 L-10.4 1.3 Q-10.55 1.65 -10.55 1.95 -10.55 2.1 -10.25 2.45 -9.85 2.9 -9.3 2.9 -8.55 2.9 -7.9 2.65 -7.3 2.4 -7.3 2.15 -7.3 2.0 -7.35 2.0 M-7.0 3.7 L-6.95 3.7 -7.0 3.75 -7.0 3.7" fill="#ffdc45" fill-rule="evenodd" stroke="none"/>
  </g>
</svg>
