<?xml version="1.0" encoding="UTF-8" standalone="no"?>
<svg xmlns:ffdec="https://www.free-decompiler.com/flash" xmlns:xlink="http://www.w3.org/1999/xlink" ffdec:objectType="shape" height="4.65px" width="29.75px" xmlns="http://www.w3.org/2000/svg">
  <g transform="matrix(1.0, 0.0, 0.0, 1.0, 17.1, 25.25)">
    <path d="M5.65 -24.75 L5.8 -24.9 Q5.9 -25.0 6.05 -25.0 L6.8 -25.0 6.85 -24.9 7.1 -24.8 Q7.3 -24.65 7.4 -24.5 L7.4 -24.15 Q7.35 -24.0 7.45 -23.85 8.1 -23.85 8.4 -23.7 L8.65 -23.6 9.55 -23.7 9.8 -23.7 9.95 -23.45 10.05 -23.25 10.0 -23.15 10.0 -23.1 10.15 -23.05 10.5 -23.0 10.65 -22.95 10.5 -22.85 10.3 -22.7 8.7 -22.7 Q8.75 -22.65 8.95 -22.6 L9.2 -22.5 9.15 -22.4 9.2 -22.3 9.2 -22.1 9.15 -22.1 9.1 -22.05 9.05 -22.05 8.6 -21.9 7.6 -21.75 Q7.5 -21.75 7.35 -21.65 L7.1 -21.55 7.1 -21.35 7.45 -21.3 7.55 -21.2 7.55 -21.1 6.4 -21.1 Q6.3 -21.2 6.15 -21.2 L5.55 -21.15 4.65 -21.0 4.1 -20.95 3.7 -20.9 3.4 -20.85 3.1 -20.85 3.1 -20.9 3.15 -21.0 3.25 -21.1 3.25 -21.15 3.05 -21.2 2.95 -21.25 3.05 -21.1 2.95 -21.0 2.8 -20.95 2.75 -20.95 Q2.7 -20.9 2.7 -21.0 2.7 -21.1 2.8 -21.1 L2.9 -21.1 2.8 -21.15 2.75 -21.15 2.6 -21.0 2.1 -21.1 2.05 -21.1 Q2.0 -21.15 2.0 -21.2 2.0 -21.3 2.25 -21.5 L2.35 -21.5 2.35 -21.55 1.95 -21.6 Q0.95 -21.6 0.0 -21.6 L-2.55 -21.85 -3.2 -21.85 -3.2 -21.8 -4.0 -21.75 -4.3 -21.9 -4.7 -21.85 -5.0 -21.8 Q-4.4 -21.6 -4.35 -21.5 -4.35 -21.45 -4.4 -21.35 L-4.8 -21.25 Q-6.05 -21.25 -6.25 -21.4 L-6.35 -21.5 -6.6 -21.55 Q-7.05 -21.55 -7.3 -21.35 L-7.6 -21.1 -8.45 -21.2 -8.55 -21.2 -8.55 -21.3 -8.45 -21.5 Q-8.35 -21.6 -8.35 -21.65 L-8.45 -21.7 -8.5 -21.8 -8.5 -21.7 -8.55 -21.75 -8.7 -21.8 -8.85 -21.7 Q-9.0 -21.6 -9.25 -21.6 L-9.4 -21.6 -9.45 -21.7 -9.6 -21.85 -10.4 -21.65 -10.9 -21.5 -11.35 -21.3 -12.0 -21.2 -12.45 -21.2 -13.05 -21.25 Q-13.2 -21.4 -13.2 -21.5 -13.2 -21.6 -12.6 -21.85 L-11.8 -22.15 -11.85 -22.25 -11.95 -22.35 -11.85 -22.2 Q-11.95 -22.15 -12.1 -22.3 L-12.3 -22.45 -12.4 -22.4 Q-12.4 -22.25 -12.4 -22.2 -12.5 -22.1 -12.8 -22.1 -13.05 -22.1 -13.3 -22.2 L-13.65 -22.2 Q-13.65 -22.35 -13.75 -22.4 L-14.4 -22.55 -14.45 -22.55 -14.5 -22.65 -14.45 -22.75 -14.4 -22.75 -14.45 -22.8 -14.75 -22.85 -14.8 -22.9 -14.8 -23.0 Q-14.8 -23.2 -14.45 -23.35 -14.05 -23.6 -13.55 -23.5 L-13.5 -23.45 -12.75 -23.7 -12.65 -23.85 -12.65 -23.95 Q-12.5 -23.95 -12.35 -24.05 -12.2 -24.1 -12.15 -24.0 -12.1 -23.9 -11.95 -23.9 -11.8 -23.9 -11.65 -24.0 L-11.7 -24.1 -11.55 -24.25 -11.4 -24.3 -11.8 -24.5 -12.4 -24.7 -12.2 -24.8 -10.8 -24.7 -10.2 -24.6 -9.7 -24.6 Q-9.0 -24.6 -8.85 -24.7 -8.7 -24.85 -8.5 -24.85 L-8.55 -24.9 -8.55 -25.0 Q-8.55 -25.2 -8.2 -25.25 -7.8 -25.3 -7.2 -25.05 L-6.65 -24.8 -5.65 -24.7 -5.2 -24.7 -4.7 -24.65 -4.75 -24.6 -4.9 -24.6 -5.05 -24.55 -4.35 -24.5 Q-3.85 -24.45 -3.6 -24.35 L-3.65 -24.3 -3.8 -24.3 -4.35 -24.35 -5.8 -24.35 -7.45 -24.25 -8.45 -24.1 -8.35 -24.05 -8.3 -24.05 -8.3 -23.95 Q-8.3 -23.9 -8.3 -23.85 L-8.35 -23.85 -8.8 -23.8 -9.55 -23.8 Q-9.65 -23.75 -10.15 -23.6 L-10.7 -23.4 Q-10.5 -22.85 -7.7 -22.6 L-6.8 -22.6 -6.2 -22.5 -5.3 -22.5 -4.2 -22.6 -1.8 -22.65 -0.45 -22.75 0.6 -22.75 0.7 -22.65 0.3 -22.35 0.7 -22.35 1.05 -22.4 1.25 -22.4 1.5 -22.45 1.8 -22.5 2.9 -22.6 4.05 -22.7 4.85 -22.7 Q5.4 -22.7 6.05 -22.95 6.6 -23.15 6.6 -23.25 6.6 -23.4 6.2 -23.55 L4.5 -24.05 3.15 -24.25 3.15 -24.2 3.05 -24.1 2.55 -24.2 1.85 -24.3 0.4 -24.3 -0.1 -24.35 -0.25 -24.4 -0.6 -24.35 -0.65 -24.45 -0.1 -24.5 0.6 -24.6 0.2 -24.7 0.15 -24.75 0.15 -24.8 Q0.8 -24.75 0.95 -24.95 L1.1 -25.15 1.6 -25.0 Q1.65 -24.95 1.75 -24.85 L2.4 -24.8 2.8 -24.8 3.4 -24.7 Q3.7 -24.7 3.9 -24.8 4.15 -24.95 4.3 -24.95 4.8 -24.95 5.15 -24.75 L5.65 -24.75 M2.95 -21.25 L2.95 -21.25 M8.6 -24.6 Q8.85 -24.8 9.35 -24.75 L9.9 -24.75 9.9 -24.65 9.85 -24.55 9.8 -24.4 9.7 -24.35 8.75 -24.3 8.95 -24.1 8.95 -24.05 8.6 -24.15 Q8.4 -24.3 8.4 -24.35 8.4 -24.45 8.6 -24.6 M11.05 -21.8 Q11.05 -21.9 11.3 -22.1 L12.1 -21.95 Q12.3 -21.9 12.55 -21.85 12.65 -21.75 12.65 -21.55 L12.6 -21.45 12.5 -21.35 12.3 -21.3 Q12.15 -21.3 11.9 -21.45 L11.9 -21.35 11.35 -21.35 11.15 -21.45 11.1 -21.6 11.05 -21.8 M-14.75 -24.55 Q-14.75 -24.95 -14.05 -24.85 -13.35 -24.7 -13.35 -24.45 -13.35 -24.2 -13.75 -24.2 L-14.35 -24.3 Q-14.5 -24.35 -14.7 -24.4 -14.75 -24.45 -14.75 -24.55 M-14.85 -21.8 L-13.85 -21.75 -13.7 -21.6 Q-13.7 -21.45 -13.75 -21.4 -13.85 -21.3 -14.25 -21.25 L-15.15 -21.3 Q-15.5 -21.3 -15.6 -21.4 L-15.65 -21.4 -15.35 -21.6 -14.85 -21.8 M-0.4 -21.3 Q-0.1 -21.15 -0.1 -20.95 -0.1 -20.85 -0.2 -20.75 -0.35 -20.6 -0.75 -20.6 L-1.1 -20.65 -1.95 -20.65 -2.15 -20.7 Q-2.6 -20.75 -2.6 -20.8 L-2.9 -20.85 -3.05 -20.95 -3.1 -20.95 -3.1 -21.05 Q-3.1 -21.15 -2.7 -21.35 -2.2 -21.6 -1.8 -21.55 -0.9 -21.55 -0.4 -21.3 M-2.85 -21.2 L-3.0 -21.1 -2.85 -21.1 -2.85 -21.2 M-16.3 -23.35 Q-16.1 -23.3 -16.05 -23.25 L-15.9 -23.2 Q-15.45 -23.05 -15.45 -22.9 L-15.5 -22.8 -15.55 -22.75 -15.8 -22.8 -16.05 -22.8 -16.75 -22.9 -17.0 -23.05 -17.0 -22.9 -17.05 -23.0 -17.1 -23.05 -16.95 -23.25 -16.35 -23.25 -16.35 -23.35 -16.3 -23.35" fill="#540000" fill-opacity="0.6" fill-rule="evenodd" stroke="none"/>
    <path d="M5.55 -24.15 Q5.85 -24.1 6.25 -23.9 6.7 -23.65 6.9 -23.6 6.45 -24.2 5.45 -24.2 L5.55 -24.15 M3.95 -24.55 Q4.0 -24.55 4.05 -24.55 4.15 -24.55 4.35 -24.45 L5.7 -24.35 Q5.85 -24.35 6.0 -24.45 6.15 -24.55 6.25 -24.55 6.9 -24.55 7.15 -24.35 L7.3 -23.95 7.35 -23.6 7.35 -23.45 7.65 -23.5 7.95 -23.25 Q8.25 -23.0 8.35 -23.0 L8.45 -23.05 8.4 -23.05 8.35 -23.1 8.35 -23.2 Q8.35 -23.3 8.65 -23.35 L9.35 -23.4 9.4 -23.35 9.4 -23.25 Q9.45 -23.15 9.25 -23.15 L9.25 -23.1 10.45 -23.05 10.55 -22.9 Q10.45 -22.85 10.35 -22.8 L9.9 -22.8 8.8 -22.75 8.8 -22.7 9.05 -22.6 Q9.2 -22.5 9.2 -22.25 9.2 -21.95 8.3 -21.85 7.3 -21.7 7.1 -21.5 L7.1 -21.4 7.45 -21.3 Q7.45 -21.35 7.45 -21.25 L7.3 -21.1 6.4 -21.1 Q6.3 -21.15 6.25 -21.15 6.2 -21.2 6.2 -21.3 6.05 -21.2 5.3 -21.1 L4.5 -21.0 3.15 -20.9 Q3.15 -21.0 3.2 -21.1 2.9 -21.1 2.5 -21.0 L2.25 -21.0 2.05 -21.1 Q2.0 -21.2 2.0 -21.25 2.0 -21.45 2.2 -21.5 L2.2 -21.65 1.8 -21.65 Q1.25 -21.65 1.1 -21.65 L1.05 -21.6 -0.35 -21.6 -1.05 -21.65 -1.55 -21.8 Q-2.0 -21.95 -3.6 -21.8 L-4.25 -21.85 -4.4 -21.95 -4.7 -21.95 -4.75 -21.9 Q-4.35 -21.65 -4.35 -21.6 -4.35 -21.45 -4.6 -21.35 -5.0 -21.2 -5.8 -21.2 L-6.2 -21.3 -6.35 -21.5 -6.4 -21.6 Q-6.8 -21.55 -6.95 -21.45 L-7.35 -21.25 Q-7.7 -21.1 -8.15 -21.1 -8.25 -21.1 -8.4 -21.15 L-8.55 -21.4 Q-8.55 -21.5 -8.4 -21.65 L-8.25 -21.8 -8.35 -21.8 -9.2 -21.6 -9.4 -21.65 -9.55 -21.8 Q-10.35 -21.85 -10.9 -21.5 -11.45 -21.2 -12.2 -21.2 -12.8 -21.2 -13.0 -21.35 -13.1 -21.4 -13.1 -21.5 -13.1 -21.75 -12.7 -21.85 -12.15 -22.0 -11.95 -22.2 L-12.25 -22.4 -12.3 -22.45 -12.35 -22.45 -12.45 -22.25 -12.55 -22.15 -12.9 -22.15 -14.0 -22.45 -14.7 -22.8 -14.75 -23.0 Q-14.75 -23.15 -14.65 -23.15 L-14.4 -23.2 -14.55 -23.25 -14.55 -23.35 -14.25 -23.4 -13.45 -23.5 -12.1 -23.65 Q-11.8 -23.65 -11.55 -23.5 L-11.55 -23.45 -11.45 -23.45 -11.25 -23.25 -10.95 -23.0 Q-10.7 -22.8 -10.25 -22.75 L-9.7 -22.8 -9.65 -22.8 -9.2 -22.65 -8.75 -22.25 -8.5 -22.2 -8.55 -22.3 Q-8.55 -22.45 -8.45 -22.5 -8.25 -22.55 -7.95 -22.35 L-7.6 -22.4 -7.5 -22.5 -7.25 -22.5 Q-7.0 -22.45 -6.8 -22.2 -6.6 -21.95 -6.4 -21.9 L-6.2 -21.95 -6.05 -21.95 -5.85 -22.0 Q-5.7 -22.05 -5.55 -22.2 L-5.4 -22.35 -5.25 -22.35 -5.05 -22.15 -4.55 -22.15 Q-4.3 -22.15 -4.25 -22.05 -4.2 -22.0 -3.6 -22.05 L-2.5 -22.15 -2.45 -22.15 -1.95 -22.25 Q-0.7 -22.6 -0.35 -22.45 L-0.05 -22.25 Q0.25 -22.1 0.6 -22.15 0.95 -22.15 1.55 -21.95 L2.5 -21.9 2.5 -22.05 2.55 -22.0 2.65 -22.15 Q2.7 -22.25 3.0 -22.25 L3.1 -22.25 3.15 -22.2 3.15 -22.15 Q3.15 -22.05 3.05 -21.95 L3.0 -21.8 3.15 -21.8 3.8 -22.35 Q4.25 -22.65 4.95 -22.85 L5.25 -22.95 5.95 -23.0 Q6.3 -22.95 6.4 -22.85 L6.55 -22.7 Q6.65 -22.65 7.25 -22.5 L7.85 -22.25 8.1 -22.25 Q8.25 -22.2 8.25 -22.1 L8.55 -22.2 8.95 -22.4 8.75 -22.55 8.6 -22.65 8.1 -22.7 8.05 -22.8 8.0 -22.8 7.75 -22.85 7.45 -22.9 Q7.4 -22.9 7.4 -22.85 L7.4 -22.8 7.25 -22.8 7.2 -23.0 6.6 -23.05 6.8 -23.15 7.0 -23.2 7.1 -23.25 6.5 -23.45 Q5.9 -23.65 5.7 -23.75 5.45 -23.9 3.3 -24.3 L3.2 -24.25 3.15 -24.15 2.95 -24.1 2.4 -24.25 1.3 -24.3 -0.1 -24.35 -0.1 -24.4 -0.15 -24.4 1.5 -24.55 2.45 -24.5 2.85 -24.4 2.8 -24.45 2.65 -24.5 2.6 -24.5 2.6 -24.6 1.75 -24.6 Q1.9 -24.7 2.25 -24.75 L2.8 -24.75 3.25 -24.6 3.8 -24.55 3.95 -24.5 3.95 -24.55 M3.9 -24.4 L3.9 -24.4 M6.75 -24.0 Q6.85 -23.95 7.0 -23.8 L7.15 -23.65 7.2 -23.85 Q7.2 -24.1 6.8 -24.3 6.4 -24.6 5.95 -24.25 6.6 -24.1 6.75 -24.0 M3.75 -21.55 Q3.9 -21.55 5.0 -21.9 L5.2 -21.95 5.6 -22.15 6.1 -22.25 6.5 -22.3 6.95 -22.3 6.35 -22.45 6.05 -22.65 Q5.8 -22.8 5.6 -22.8 L4.7 -22.55 3.95 -22.3 3.3 -21.65 3.45 -21.55 3.75 -21.55 M0.1 -22.05 L-0.1 -22.15 Q-0.4 -22.4 -0.5 -22.4 L-1.3 -22.25 -1.15 -22.25 -1.05 -22.15 -0.55 -22.05 0.25 -21.95 0.45 -21.95 0.6 -22.0 0.1 -22.05 M0.6 -21.8 L-0.35 -21.95 -1.2 -22.15 -1.25 -22.1 Q-1.3 -22.1 -1.3 -22.15 L-1.8 -22.1 -1.2 -21.95 Q-0.65 -21.8 0.55 -21.8 L0.6 -21.8 M3.55 -21.3 L3.85 -21.25 4.75 -21.35 5.55 -21.5 Q5.8 -21.55 6.25 -22.05 L6.2 -22.05 5.1 -21.7 Q4.0 -21.3 3.6 -21.3 L3.55 -21.3 M8.75 -22.95 L8.85 -23.0 8.75 -23.0 8.75 -22.95 M-10.75 -24.15 L-10.45 -24.1 -10.25 -24.1 -9.15 -24.2 -8.95 -24.3 -8.9 -24.3 -8.55 -24.5 -8.05 -24.75 Q-7.85 -24.9 -7.6 -24.85 L-7.2 -24.65 Q-7.05 -24.55 -6.9 -24.5 L-6.55 -24.5 -4.9 -24.55 -3.85 -24.45 -3.75 -24.4 -4.55 -24.45 -4.55 -24.4 -5.5 -24.35 -6.4 -24.3 -6.7 -24.3 -7.25 -24.25 Q-7.8 -24.2 -8.35 -24.25 L-8.45 -24.25 Q-8.2 -24.1 -8.2 -24.0 -8.2 -23.9 -8.25 -23.9 L-8.8 -23.8 -9.5 -23.8 -10.25 -23.65 -11.0 -23.45 -11.1 -23.5 -10.9 -23.6 -10.75 -23.85 -10.9 -23.95 -10.75 -24.15 M-10.75 -23.95 L-10.65 -23.85 Q-10.65 -23.75 -10.75 -23.7 L-10.85 -23.6 -10.7 -23.65 -10.3 -23.75 -10.0 -23.95 -10.25 -23.9 -10.45 -23.95 -10.6 -24.0 -10.7 -24.0 -10.75 -23.95 M-9.2 -24.05 L-9.4 -24.0 -8.6 -23.95 -8.55 -23.95 -8.45 -24.0 Q-8.6 -24.0 -8.8 -24.1 L-8.85 -24.15 -8.9 -24.1 -9.2 -24.1 -9.2 -24.05 M-8.3 -24.45 L-7.3 -24.5 -7.25 -24.5 Q-7.6 -24.65 -7.95 -24.65 -8.2 -24.65 -8.55 -24.4 L-8.3 -24.45 M-11.7 -23.15 Q-11.35 -22.85 -11.0 -22.8 L-10.85 -22.8 -11.65 -23.35 -12.1 -23.45 -11.7 -23.15 M-12.0 -23.6 L-12.2 -23.6 -12.25 -23.55 -12.15 -23.5 -11.8 -23.5 -12.0 -23.6 M-12.5 -23.4 Q-12.7 -23.4 -13.1 -23.25 L-13.35 -23.15 Q-13.2 -23.15 -13.1 -23.05 -12.7 -22.8 -12.6 -22.75 L-12.2 -22.8 -12.05 -22.65 -12.0 -22.65 -11.3 -22.55 -10.85 -22.6 Q-11.3 -22.65 -11.7 -22.9 L-12.3 -23.4 -12.5 -23.4 M-13.5 -23.05 L-13.9 -23.0 -14.1 -22.9 -14.1 -22.85 -14.05 -22.85 -13.45 -23.0 -13.5 -23.0 -13.5 -23.05 M-12.65 -22.4 L-12.55 -22.45 Q-12.8 -22.55 -13.2 -22.75 -13.55 -22.95 -13.85 -22.85 L-13.9 -22.8 Q-13.85 -22.6 -13.5 -22.45 L-12.9 -22.35 -12.65 -22.4 M-12.0 -21.5 L-10.35 -21.95 -10.2 -21.95 Q-10.65 -22.0 -11.4 -21.85 L-12.7 -21.5 Q-12.7 -21.45 -12.55 -21.45 L-12.0 -21.5 M-9.35 -21.9 Q-9.3 -21.85 -9.2 -21.85 -9.0 -21.85 -8.8 -22.05 -9.0 -22.3 -9.3 -22.55 L-10.05 -22.6 -10.75 -22.4 -10.95 -22.35 -10.3 -22.25 -9.55 -22.15 Q-9.4 -22.05 -9.35 -21.9 M-8.15 -22.4 L-8.35 -22.4 -8.45 -22.35 Q-8.4 -22.35 -8.35 -22.3 L-8.3 -22.2 -8.1 -22.35 -8.15 -22.4 M-8.1 -22.2 L-7.45 -22.15 -7.25 -21.95 Q-7.2 -21.85 -7.15 -21.75 L-6.8 -21.85 -6.95 -22.05 -7.2 -22.25 -7.55 -22.25 -8.05 -22.2 -8.1 -22.2 M-8.05 -21.95 L-8.05 -21.8 Q-8.05 -21.7 -8.15 -21.6 L-8.25 -21.45 -7.9 -21.4 -7.6 -21.4 Q-7.45 -21.5 -7.4 -21.55 -7.3 -21.6 -7.3 -21.7 L-7.5 -22.0 -8.05 -22.0 -8.05 -21.95 M-5.05 -21.55 L-5.0 -21.65 -5.1 -21.9 -5.3 -22.2 -5.55 -22.0 Q-5.75 -21.85 -6.0 -21.8 L-6.05 -21.75 -5.8 -21.55 -5.05 -21.55 M-2.15 -21.2 L-2.2 -21.1 -2.25 -21.05 -0.95 -21.1 -1.55 -21.1 Q-1.65 -21.1 -1.65 -21.15 L-0.3 -21.2 Q-0.2 -21.15 -0.15 -21.05 L-0.1 -20.95 Q-0.1 -20.85 -0.15 -20.75 -0.25 -20.65 -0.35 -20.65 L-2.45 -20.75 Q-2.75 -20.8 -2.9 -20.85 -3.05 -21.0 -3.05 -21.1 -3.05 -21.2 -2.85 -21.3 L-2.25 -21.35 -2.2 -21.3 -2.15 -21.2" fill="#270909" fill-opacity="0.34901962" fill-rule="evenodd" stroke="none"/>
  </g>
</svg>
