<?xml version="1.0" encoding="UTF-8" standalone="no"?>
<svg xmlns:ffdec="https://www.free-decompiler.com/flash" xmlns:xlink="http://www.w3.org/1999/xlink" ffdec:objectType="shape" height="30.0px" width="34.35px" xmlns="http://www.w3.org/2000/svg">
  <g transform="matrix(1.0, 0.0, 0.0, 1.0, 11.65, 23.95)">
    <path d="M16.3 -16.2 Q16.25 -16.3 16.25 -16.4 16.3 -16.7 17.2 -16.55 L17.35 -16.4 Q17.3 -16.25 17.1 -16.1 L16.35 -16.1 16.3 -16.2 M2.15 -17.95 Q2.25 -17.85 2.3 -17.65 L2.4 -17.35 Q2.4 -17.25 2.0 -17.25 1.9 -17.4 1.9 -17.95 L2.15 -17.95 M6.35 -23.1 L5.95 -23.4 Q5.8 -23.55 5.85 -23.9 6.05 -23.95 6.3 -23.85 6.7 -23.6 6.95 -23.45 L6.9 -23.2 6.35 -23.1 M10.1 -9.3 Q10.0 -9.0 9.8 -8.9 L9.15 -9.45 9.15 -9.7 9.95 -9.75 Q9.95 -9.7 10.0 -9.55 L10.1 -9.3 M21.8 -8.7 Q21.65 -8.95 21.65 -9.3 L22.0 -9.3 22.4 -9.15 Q22.7 -8.8 22.7 -8.7 L22.65 -8.5 Q22.55 -8.4 22.45 -8.35 22.0 -8.5 21.8 -8.7 M14.0 -6.75 Q14.15 -6.85 14.3 -6.85 14.4 -6.75 14.5 -6.5 L14.6 -6.2 14.5 -5.9 14.5 -5.75 Q14.4 -5.8 14.2 -6.1 L13.9 -6.5 Q13.9 -6.65 14.0 -6.75 M12.2 -3.1 L12.3 -3.15 12.6 -3.15 12.85 -2.95 Q13.0 -2.75 13.0 -2.45 13.0 -2.1 12.85 -1.95 L12.6 -1.65 12.35 -1.7 Q12.2 -2.15 12.2 -2.75 L12.2 -3.1 M15.85 1.55 Q15.85 1.9 15.8 2.05 L15.65 2.4 15.4 2.4 15.3 2.05 Q15.25 1.85 15.25 1.55 15.25 1.2 15.35 1.15 L15.65 1.15 Q15.75 1.25 15.8 1.2 15.85 1.25 15.85 1.55 M5.1 5.05 Q5.1 5.15 4.95 5.4 L4.7 5.8 4.55 6.0 4.3 6.05 4.45 5.75 Q4.25 5.7 4.2 5.6 4.25 5.45 4.45 5.25 4.65 5.0 4.9 4.9 L5.1 5.05 M-10.65 -18.05 Q-10.95 -17.9 -11.05 -17.6 -11.1 -17.25 -11.35 -17.2 L-11.55 -17.25 Q-11.65 -17.35 -11.65 -17.65 -11.65 -18.0 -11.45 -18.25 -11.3 -18.45 -11.15 -18.55 -10.85 -18.4 -10.7 -18.25 L-10.65 -18.05 M-7.15 -18.65 Q-7.2 -18.55 -7.4 -18.55 L-7.65 -18.5 Q-7.7 -18.5 -7.7 -18.8 L-7.7 -19.15 -7.65 -19.05 Q-7.5 -19.1 -7.2 -19.05 L-7.05 -18.9 Q-7.1 -18.75 -7.15 -18.65 M-2.1 -21.95 Q-2.05 -22.05 -1.8 -22.1 -1.6 -22.1 -1.45 -22.0 -1.55 -21.75 -1.7 -21.7 L-1.9 -21.75 Q-2.05 -21.85 -2.1 -21.95 M-4.1 -16.4 Q-4.35 -16.45 -4.4 -16.55 L-4.3 -16.7 -3.8 -16.8 -3.65 -16.75 Q-3.6 -16.7 -3.6 -16.5 L-3.7 -16.45 -3.85 -16.35 -4.1 -16.4 M-2.6 -19.2 Q-2.3 -19.05 -2.15 -18.85 L-2.35 -18.55 -2.95 -18.55 -3.0 -18.6 -3.05 -18.75 -2.95 -19.25 Q-2.85 -19.3 -2.6 -19.2 M-7.0 -14.6 L-7.15 -14.45 -7.65 -14.45 Q-7.8 -14.7 -7.8 -15.2 L-7.5 -15.2 Q-7.3 -15.2 -7.0 -15.05 L-6.95 -14.85 -7.0 -14.6" fill="#3a0000" fill-rule="evenodd" stroke="none"/>
  </g>
</svg>
