<?xml version="1.0" encoding="UTF-8" standalone="no"?>
<svg xmlns:ffdec="https://www.free-decompiler.com/flash" xmlns:xlink="http://www.w3.org/1999/xlink" ffdec:objectType="shape" height="15.6px" width="35.05px" xmlns="http://www.w3.org/2000/svg">
  <g transform="matrix(1.0, 0.0, 0.0, 1.0, 16.9, 23.45)">
    <path d="M15.3 -15.25 L15.4 -15.4 Q15.5 -15.45 15.45 -15.4 15.6 -15.35 15.6 -14.7 15.6 -14.1 15.5 -14.0 15.4 -13.9 15.35 -13.9 L15.1 -13.9 14.95 -14.15 14.9 -14.2 Q14.85 -14.25 14.85 -14.3 L14.85 -14.5 14.95 -14.65 15.3 -15.25 M15.5 -15.3 Q15.25 -14.5 15.2 -14.0 L15.3 -14.0 15.45 -14.05 Q15.5 -14.1 15.55 -14.65 15.55 -15.15 15.5 -15.3 M15.65 -12.8 Q15.7 -12.85 15.7 -12.7 15.7 -12.6 15.35 -12.3 L15.2 -12.2 15.1 -12.15 14.95 -12.05 15.05 -12.15 14.8 -12.05 14.35 -11.9 14.35 -11.95 Q14.55 -12.15 14.9 -12.4 15.35 -12.7 15.65 -12.8 M15.4 -12.55 Q15.1 -12.45 14.8 -12.25 L14.55 -12.05 14.75 -12.15 15.15 -12.3 15.4 -12.5 15.4 -12.55 M14.65 -11.7 L14.85 -11.7 Q15.0 -11.6 15.05 -11.45 L15.05 -10.95 Q15.0 -10.85 14.9 -10.65 14.7 -10.8 14.6 -11.05 14.5 -11.3 14.5 -11.45 14.5 -11.55 14.55 -11.6 L14.65 -11.7 M14.6 -11.55 L14.6 -11.35 14.65 -11.25 14.65 -11.45 14.7 -11.5 Q14.85 -11.35 14.9 -10.95 L14.85 -10.9 14.75 -10.95 14.8 -10.8 Q14.95 -10.9 14.95 -11.0 L14.95 -11.4 Q14.95 -11.55 14.85 -11.6 L14.7 -11.6 14.6 -11.55 M16.7 -10.0 Q16.65 -9.9 16.55 -9.85 L16.45 -10.0 Q16.45 -10.1 16.5 -10.1 L16.65 -10.1 16.7 -10.0 M-10.5 -17.8 Q-10.5 -17.6 -10.55 -17.4 L-10.55 -17.2 Q-10.45 -17.35 -10.5 -17.8 M-10.45 -17.85 L-10.45 -17.1 -10.6 -17.1 -10.7 -17.4 -10.65 -17.7 -10.5 -17.9 Q-10.45 -17.9 -10.45 -17.85 M-2.1 -20.4 L-2.1 -20.3 Q-2.1 -20.25 -2.25 -20.0 -2.45 -20.05 -2.5 -20.25 L-2.65 -20.55 Q-2.55 -20.6 -2.5 -20.55 -2.45 -20.45 -2.15 -20.4 L-2.1 -20.4 M-2.5 -20.4 L-2.45 -20.3 -2.35 -20.2 Q-2.25 -20.2 -2.25 -20.25 L-2.2 -20.3 -2.2 -20.35 -2.5 -20.4 M-14.4 -11.0 Q-14.4 -11.05 -14.5 -11.35 L-14.65 -11.6 -14.65 -11.55 -14.6 -11.5 Q-14.65 -11.5 -14.7 -11.5 L-14.65 -11.3 -14.6 -11.3 -14.6 -11.2 -14.65 -11.0 -14.65 -10.95 -14.75 -10.7 -14.7 -10.65 -14.8 -10.65 -14.9 -10.7 -14.8 -10.6 -14.7 -10.6 -14.55 -10.65 -14.45 -10.85 -14.4 -11.0 M-14.4 -10.65 Q-14.5 -10.55 -14.65 -10.5 L-14.85 -10.5 -14.95 -10.6 Q-15.0 -10.7 -15.0 -10.75 L-15.0 -11.45 Q-14.95 -11.75 -14.8 -11.85 L-14.7 -11.85 -14.45 -11.45 Q-14.3 -11.1 -14.3 -11.05 -14.3 -10.85 -14.4 -10.65 M-16.4 -12.8 Q-16.2 -12.65 -16.2 -12.55 -16.2 -12.35 -16.4 -12.25 L-16.5 -12.25 -16.5 -12.5 -16.4 -12.8 M-16.45 -12.3 Q-16.25 -12.5 -16.3 -12.6 -16.45 -12.45 -16.45 -12.35 L-16.45 -12.3 M-13.2 -7.9 Q-13.2 -8.1 -12.85 -8.4 L-12.8 -8.5 -12.65 -8.6 Q-12.4 -8.7 -12.25 -8.75 -12.25 -8.6 -12.4 -8.4 L-12.55 -8.05 Q-12.65 -8.05 -12.85 -7.95 L-13.0 -7.85 -13.1 -7.85 -13.2 -7.9 M-12.5 -8.4 Q-12.65 -8.2 -12.85 -8.2 L-12.9 -8.2 -13.0 -8.0 -12.95 -8.0 -12.8 -8.05 Q-12.65 -8.15 -12.6 -8.15 L-12.45 -8.35 -12.35 -8.55 -12.55 -8.5 -12.5 -8.4" fill="#caf9ff" fill-rule="evenodd" stroke="none"/>
    <path d="M15.5 -15.3 Q15.55 -15.15 15.55 -14.65 15.5 -14.1 15.45 -14.05 L15.3 -14.0 15.2 -14.0 Q15.25 -14.5 15.5 -15.3 M15.4 -12.55 L15.4 -12.5 15.15 -12.3 14.75 -12.15 14.55 -12.05 14.8 -12.25 Q15.1 -12.45 15.4 -12.55 M14.6 -11.55 L14.7 -11.6 14.85 -11.6 Q14.95 -11.55 14.95 -11.4 L14.95 -11.0 Q14.95 -10.9 14.8 -10.8 L14.75 -10.95 14.85 -10.9 14.9 -10.95 Q14.85 -11.35 14.7 -11.5 L14.65 -11.45 14.65 -11.25 14.6 -11.35 14.6 -11.55 M-10.5 -17.8 Q-10.45 -17.35 -10.55 -17.2 L-10.55 -17.4 Q-10.5 -17.6 -10.5 -17.8 M-14.4 -11.0 L-14.45 -10.85 -14.55 -10.65 -14.7 -10.6 -14.8 -10.6 -14.9 -10.7 -14.8 -10.65 -14.7 -10.65 -14.75 -10.7 -14.65 -10.95 -14.65 -11.0 -14.6 -11.2 -14.6 -11.3 -14.65 -11.3 -14.7 -11.5 Q-14.65 -11.5 -14.6 -11.5 L-14.65 -11.55 -14.65 -11.6 -14.5 -11.35 Q-14.4 -11.05 -14.4 -11.0 M-2.5 -20.4 L-2.2 -20.35 -2.2 -20.3 -2.25 -20.25 Q-2.25 -20.2 -2.35 -20.2 L-2.45 -20.3 -2.5 -20.4 M-16.45 -12.3 L-16.45 -12.35 Q-16.45 -12.45 -16.3 -12.6 -16.25 -12.5 -16.45 -12.3 M-12.5 -8.4 L-12.55 -8.5 -12.35 -8.55 -12.45 -8.35 -12.6 -8.15 Q-12.65 -8.15 -12.8 -8.05 L-12.95 -8.0 -13.0 -8.0 -12.9 -8.2 -12.85 -8.2 Q-12.65 -8.2 -12.5 -8.4" fill="#00cdff" fill-opacity="0.8" fill-rule="evenodd" stroke="none"/>
    <path d="M11.85 -20.65 Q11.75 -20.2 11.9 -20.05 L11.9 -20.25 Q11.85 -20.45 11.85 -20.65 M11.75 -20.7 L11.85 -20.75 11.95 -20.55 12.05 -20.25 11.95 -19.95 11.75 -19.95 11.75 -20.7 M16.2 -14.45 L16.05 -14.2 15.95 -13.9 16.0 -13.7 16.1 -13.5 16.25 -13.45 16.35 -13.45 16.45 -13.55 16.35 -13.5 16.3 -13.55 16.2 -13.8 16.2 -13.9 16.15 -14.05 16.2 -14.15 16.25 -14.35 16.2 -14.35 16.2 -14.45 M16.25 -14.7 L16.35 -14.7 Q16.55 -14.6 16.55 -14.3 L16.6 -13.9 16.6 -13.6 Q16.6 -13.55 16.5 -13.45 L16.45 -13.35 16.2 -13.35 Q16.05 -13.4 15.95 -13.55 15.85 -13.7 15.85 -13.9 15.85 -13.95 16.0 -14.3 L16.25 -14.7 M18.1 -15.15 L18.1 -15.2 Q18.15 -15.35 17.95 -15.45 17.9 -15.4 18.1 -15.15 M2.95 -23.25 L3.0 -23.3 Q3.3 -23.3 3.35 -23.4 3.4 -23.45 3.55 -23.4 L3.4 -23.1 Q3.3 -22.9 3.1 -22.85 2.95 -23.1 2.95 -23.15 L2.95 -23.25 M18.1 -15.55 L18.15 -15.35 18.15 -15.15 18.05 -15.1 Q17.85 -15.2 17.85 -15.4 17.85 -15.5 18.05 -15.65 L18.1 -15.55 M3.1 -23.1 Q3.1 -23.05 3.2 -23.05 L3.3 -23.15 3.35 -23.25 3.4 -23.25 3.05 -23.2 3.05 -23.15 3.1 -23.1 M14.55 -10.7 L14.5 -10.7 14.3 -10.8 Q14.1 -10.9 14.0 -10.95 L13.8 -11.25 Q13.65 -11.45 13.65 -11.6 13.85 -11.6 14.1 -11.45 L14.25 -11.35 14.3 -11.25 Q14.65 -10.95 14.65 -10.75 14.65 -10.7 14.55 -10.7 M14.35 -11.05 L14.3 -11.05 Q14.1 -11.05 13.95 -11.25 L14.0 -11.35 13.8 -11.45 13.8 -11.4 13.9 -11.2 Q14.0 -11.05 14.05 -11.0 L14.25 -10.95 Q14.4 -10.85 14.45 -10.85 L14.5 -10.85 14.35 -11.05 M-15.6 -17.9 L-15.5 -17.75 -15.15 -17.15 -15.05 -17.0 -15.05 -16.8 -15.1 -16.7 -15.1 -16.65 -15.25 -16.4 -15.55 -16.4 -15.7 -16.5 Q-15.8 -16.6 -15.8 -17.2 -15.8 -17.85 -15.7 -17.9 -15.7 -17.95 -15.6 -17.9 M-15.55 -16.5 L-15.4 -16.5 Q-15.45 -17.0 -15.7 -17.8 -15.75 -17.65 -15.75 -17.15 -15.75 -16.6 -15.65 -16.55 L-15.55 -16.5 M-15.35 -15.05 L-15.45 -15.15 Q-15.85 -15.45 -15.85 -15.6 -15.85 -15.7 -15.8 -15.65 -15.45 -15.6 -15.0 -15.25 -14.65 -15.05 -14.45 -14.8 L-14.4 -14.8 -14.45 -14.75 -14.9 -14.9 -15.15 -15.0 -15.05 -14.9 -15.2 -15.0 -15.35 -15.05 M-14.95 -14.45 Q-15.05 -14.4 -15.05 -14.25 L-15.1 -14.05 -15.05 -13.85 Q-15.05 -13.75 -14.9 -13.65 L-14.85 -13.8 -14.95 -13.75 -15.0 -13.85 Q-14.95 -14.2 -14.8 -14.4 L-14.7 -14.2 -14.7 -14.1 Q-14.7 -14.15 -14.65 -14.2 L-14.65 -14.45 -14.95 -14.45 M-15.5 -15.35 L-15.3 -15.15 -14.85 -15.0 -14.65 -14.9 -14.9 -15.1 Q-15.2 -15.3 -15.5 -15.4 L-15.5 -15.35 M-16.9 -12.85 L-16.85 -12.95 -16.7 -12.95 Q-16.6 -12.95 -16.6 -12.85 L-16.75 -12.7 Q-16.85 -12.75 -16.9 -12.85 M-15.15 -14.35 Q-15.15 -14.45 -15.0 -14.55 L-14.7 -14.55 -14.65 -14.45 Q-14.6 -14.4 -14.6 -14.3 -14.6 -14.15 -14.7 -13.9 -14.8 -13.65 -15.0 -13.5 -15.15 -13.7 -15.15 -13.85 L-15.15 -14.35" fill="#caf9ff" fill-rule="evenodd" stroke="none"/>
    <path d="M11.85 -20.65 Q11.85 -20.45 11.9 -20.25 L11.9 -20.05 Q11.75 -20.2 11.85 -20.65 M16.2 -14.45 L16.2 -14.35 16.25 -14.35 16.2 -14.15 16.15 -14.05 16.2 -13.9 16.2 -13.8 16.3 -13.55 16.35 -13.5 16.45 -13.55 16.35 -13.45 16.25 -13.45 16.1 -13.5 16.0 -13.7 15.95 -13.9 16.05 -14.2 16.2 -14.45 M18.1 -15.15 Q17.9 -15.4 17.95 -15.45 18.15 -15.35 18.1 -15.2 L18.1 -15.15 M3.1 -23.1 L3.05 -23.15 3.05 -23.2 3.4 -23.25 3.35 -23.25 3.3 -23.15 3.2 -23.05 Q3.1 -23.05 3.1 -23.1 M14.35 -11.05 L14.5 -10.85 14.45 -10.85 Q14.4 -10.85 14.25 -10.95 L14.05 -11.0 Q14.0 -11.05 13.9 -11.2 L13.8 -11.4 13.8 -11.45 14.0 -11.35 13.95 -11.25 Q14.1 -11.05 14.3 -11.05 L14.35 -11.05 M-15.55 -16.5 L-15.65 -16.55 Q-15.75 -16.6 -15.75 -17.15 -15.75 -17.65 -15.7 -17.8 -15.45 -17.0 -15.4 -16.5 L-15.55 -16.5 M-15.5 -15.35 L-15.5 -15.4 Q-15.2 -15.3 -14.9 -15.1 L-14.65 -14.9 -14.85 -15.0 -15.3 -15.15 -15.5 -15.35 M-14.95 -14.45 L-14.65 -14.45 -14.65 -14.2 Q-14.7 -14.15 -14.7 -14.1 L-14.7 -14.2 -14.8 -14.4 Q-14.95 -14.2 -15.0 -13.85 L-14.95 -13.75 -14.85 -13.8 -14.9 -13.65 Q-15.05 -13.75 -15.05 -13.85 L-15.1 -14.05 -15.05 -14.25 Q-15.05 -14.4 -14.95 -14.45" fill="#00cdff" fill-opacity="0.8" fill-rule="evenodd" stroke="none"/>
  </g>
</svg>
