<?xml version="1.0" encoding="UTF-8" standalone="no"?>
<svg xmlns:ffdec="https://www.free-decompiler.com/flash" xmlns:xlink="http://www.w3.org/1999/xlink" ffdec:objectType="shape" height="35.7px" width="56.2px" xmlns="http://www.w3.org/2000/svg">
  <g transform="matrix(1.0, 0.0, 0.0, 1.0, 25.6, 31.15)">
    <path d="M8.1 -29.45 Q8.45 -29.45 8.85 -29.65 L9.25 -29.9 Q9.85 -30.1 9.9 -30.25 L10.15 -30.75 Q10.25 -31.05 10.35 -31.15 L10.8 -31.15 11.05 -30.8 Q11.25 -30.5 11.25 -30.4 11.25 -30.0 10.9 -29.5 10.55 -29.0 10.55 -28.85 10.55 -28.6 10.85 -28.4 11.1 -28.2 11.1 -28.1 11.1 -27.7 11.05 -27.6 10.95 -27.3 10.5 -27.1 L10.5 -27.15 10.45 -27.2 Q10.45 -27.25 10.55 -27.35 L10.65 -27.45 10.4 -27.9 Q10.1 -28.3 10.0 -28.4 L9.9 -28.4 9.95 -28.2 Q9.95 -28.05 9.7 -28.05 9.55 -27.9 9.55 -27.75 9.55 -27.55 9.7 -27.1 L9.7 -26.5 Q9.7 -26.15 9.75 -26.0 9.85 -25.7 10.25 -25.5 L10.95 -25.5 Q11.3 -25.45 11.65 -26.0 11.95 -26.45 11.95 -26.7 L11.9 -27.0 Q11.8 -27.2 11.8 -27.3 11.8 -27.7 12.3 -27.8 12.85 -27.9 12.85 -28.05 13.8 -27.9 14.0 -27.15 L14.1 -26.65 Q14.15 -26.35 14.3 -26.2 L14.5 -26.15 Q14.7 -26.0 14.7 -25.8 L14.75 -25.65 14.8 -25.45 Q14.8 -25.25 14.55 -24.95 L14.35 -24.7 Q14.35 -24.45 14.65 -24.1 14.9 -23.9 15.05 -23.8 15.9 -23.85 15.9 -24.7 15.9 -24.85 15.8 -25.0 15.6 -25.25 15.35 -25.3 L15.3 -25.25 15.3 -25.35 15.4 -25.45 15.6 -25.6 Q16.35 -25.5 16.55 -25.15 16.6 -24.8 16.65 -24.7 L16.65 -24.65 16.7 -24.55 16.7 -23.75 Q16.7 -23.55 16.55 -23.25 16.45 -23.05 16.15 -22.75 15.75 -22.4 15.4 -22.4 14.65 -22.4 14.25 -22.65 13.85 -22.9 13.65 -22.9 L13.25 -22.9 13.1 -22.65 Q12.95 -22.5 12.95 -22.45 12.95 -22.25 13.05 -22.1 13.15 -21.85 13.35 -21.75 L13.85 -21.7 Q14.05 -21.7 14.1 -21.9 14.15 -22.05 14.15 -22.2 L14.6 -22.2 14.7 -22.15 Q14.8 -22.05 14.8 -22.0 L14.75 -21.5 Q14.65 -21.1 14.6 -21.0 14.45 -20.75 14.2 -20.55 13.75 -20.15 13.05 -20.15 12.0 -20.15 12.0 -21.05 12.0 -21.2 12.1 -21.35 L12.3 -21.6 Q12.45 -21.9 12.45 -22.15 12.45 -22.3 12.15 -22.55 11.8 -22.85 11.75 -23.0 11.25 -23.8 10.65 -23.8 10.0 -23.8 9.75 -23.65 9.45 -23.45 9.45 -22.85 9.45 -22.75 9.6 -22.45 9.7 -22.15 9.8 -22.05 10.4 -22.15 10.5 -21.75 L10.6 -21.3 10.6 -21.15 10.65 -21.1 Q10.65 -20.95 10.75 -20.95 11.0 -20.95 11.05 -20.85 11.2 -20.7 11.2 -20.4 11.2 -20.1 11.1 -19.9 11.0 -19.7 10.6 -19.4 L10.55 -19.45 10.6 -19.55 10.5 -19.5 Q10.3 -19.35 10.3 -19.15 L10.35 -19.0 10.35 -18.85 11.15 -18.85 11.3 -18.75 11.45 -18.45 11.6 -18.4 Q11.65 -18.5 11.65 -18.35 L11.6 -18.2 11.45 -18.05 Q11.55 -17.9 12.2 -17.9 L12.6 -17.95 12.95 -18.0 Q13.2 -18.0 13.6 -17.85 13.95 -17.7 13.95 -17.65 L13.95 -17.4 Q13.85 -17.2 13.8 -17.1 L13.4 -17.15 13.2 -17.2 Q12.85 -17.2 12.8 -17.0 L12.8 -16.6 12.7 -16.5 11.9 -16.5 Q11.4 -16.5 11.05 -16.25 10.75 -16.0 10.75 -15.8 L10.8 -15.55 Q10.9 -15.35 11.0 -15.35 L11.6 -15.45 Q12.05 -15.2 12.0 -15.1 11.85 -14.95 11.85 -14.8 L11.95 -14.65 12.0 -14.55 Q12.0 -14.5 11.85 -14.35 L11.6 -14.15 Q11.5 -14.05 11.5 -13.75 11.5 -13.55 11.6 -13.3 11.75 -13.0 12.05 -13.0 12.2 -13.0 12.3 -13.2 L12.45 -13.45 12.4 -13.6 12.45 -13.6 12.45 -13.65 12.55 -13.5 12.7 -13.5 12.8 -13.4 12.8 -13.35 Q13.55 -13.55 13.85 -13.8 14.05 -14.0 14.2 -14.3 L14.4 -14.8 Q14.5 -15.1 14.75 -15.3 L15.15 -15.3 Q15.9 -15.1 15.9 -14.85 L15.7 -14.45 Q15.7 -14.2 16.1 -14.0 16.45 -13.75 16.65 -13.75 17.4 -13.75 17.9 -13.9 18.15 -13.95 18.25 -14.05 L18.65 -14.4 18.65 -14.45 18.7 -14.5 18.75 -14.5 Q19.15 -14.95 19.15 -15.15 L19.05 -15.5 Q18.95 -15.75 18.95 -15.9 18.95 -16.1 19.1 -16.35 19.3 -16.75 19.7 -16.7 19.9 -16.85 19.9 -17.0 L19.95 -17.35 Q19.95 -17.75 19.65 -18.3 19.2 -19.15 18.35 -19.15 17.9 -19.15 17.65 -18.9 L17.5 -18.75 17.5 -18.65 17.45 -18.65 17.45 -18.6 17.65 -18.25 Q17.8 -17.95 17.8 -17.75 17.8 -17.45 17.5 -17.0 17.15 -16.6 16.95 -16.6 16.2 -16.6 15.75 -17.2 15.35 -17.7 15.3 -18.35 L15.35 -18.6 Q15.4 -18.7 15.3 -18.8 L15.05 -19.05 14.9 -19.25 Q14.55 -20.0 14.55 -20.1 14.55 -20.3 14.75 -20.55 15.05 -20.9 15.15 -21.1 15.2 -21.2 15.3 -21.55 15.4 -21.85 15.7 -21.95 16.45 -21.85 16.45 -21.35 16.45 -21.1 16.5 -21.0 16.65 -20.85 17.1 -20.7 L17.4 -20.75 Q17.5 -20.9 17.55 -21.05 L17.6 -21.15 Q17.35 -21.2 17.35 -22.0 17.35 -22.1 17.45 -22.25 17.55 -22.4 17.7 -22.5 L17.8 -22.5 17.95 -22.3 18.0 -22.15 Q18.25 -22.75 18.25 -23.05 18.25 -23.25 18.35 -23.5 L18.55 -23.75 Q18.75 -23.85 19.25 -23.8 19.55 -23.7 19.7 -23.3 19.85 -23.0 19.85 -22.75 19.85 -22.3 19.55 -22.05 19.25 -21.8 19.25 -21.65 19.25 -21.6 19.35 -21.5 L19.45 -21.3 19.4 -21.25 19.3 -21.0 19.15 -21.05 19.1 -21.15 Q19.05 -21.45 18.75 -21.55 18.45 -21.6 18.25 -21.35 18.05 -21.1 18.05 -20.8 18.05 -20.65 18.2 -20.45 18.4 -20.15 18.9 -20.25 19.05 -20.35 19.1 -20.5 L19.15 -20.7 Q19.25 -20.85 19.6 -20.85 19.9 -20.85 20.0 -20.65 L20.05 -20.35 Q20.1 -20.2 20.35 -20.1 L20.4 -20.1 20.45 -20.15 20.6 -20.05 Q20.7 -20.0 20.8 -20.05 L20.9 -20.0 21.3 -20.3 21.65 -20.7 Q21.75 -20.75 21.95 -21.1 22.1 -21.35 22.35 -21.45 23.2 -21.85 23.9 -21.4 24.55 -20.95 24.55 -20.35 24.55 -19.8 24.3 -19.65 24.0 -19.45 24.0 -19.05 24.0 -18.85 24.2 -18.55 L24.45 -18.1 Q24.75 -17.85 25.15 -17.75 25.3 -17.6 25.3 -17.5 25.3 -17.3 25.2 -17.0 L25.05 -16.6 24.55 -16.55 Q24.35 -16.3 24.3 -16.15 24.3 -16.1 24.3 -15.85 24.3 -15.45 24.7 -14.9 25.05 -14.4 25.35 -14.4 26.75 -14.4 27.35 -15.1 27.65 -15.5 27.7 -15.9 27.7 -16.2 27.4 -16.5 27.15 -16.8 27.15 -16.85 27.15 -17.3 27.5 -17.75 27.85 -18.2 27.85 -18.4 27.85 -18.55 27.75 -18.75 27.6 -18.9 27.4 -19.0 27.1 -19.1 26.75 -18.75 26.35 -18.4 26.3 -18.4 L25.8 -18.4 Q25.75 -18.45 25.7 -18.5 L25.6 -18.6 25.2 -18.6 Q25.05 -18.55 24.95 -18.4 L24.85 -18.25 Q24.8 -18.35 24.8 -18.5 24.8 -18.65 24.9 -18.85 25.0 -19.1 25.2 -19.2 L25.45 -19.1 25.95 -19.0 26.3 -19.35 26.55 -19.7 26.7 -20.05 Q26.9 -20.35 27.4 -20.4 28.2 -20.6 28.7 -19.9 29.05 -19.35 29.05 -19.05 29.05 -18.4 28.65 -17.8 28.25 -17.2 28.25 -17.15 28.25 -17.0 28.5 -16.8 L28.75 -16.5 Q28.9 -16.05 28.9 -15.9 28.9 -14.95 27.3 -13.9 26.65 -13.5 26.15 -13.35 L25.5 -13.3 Q24.9 -13.35 24.65 -12.85 24.5 -12.55 24.5 -12.1 24.5 -11.85 24.65 -11.5 24.7 -11.15 24.8 -11.0 L25.15 -10.75 Q25.4 -10.55 25.45 -10.45 25.5 -10.3 25.5 -9.95 25.5 -9.75 25.35 -9.45 25.2 -9.15 25.15 -8.85 L25.05 -8.3 Q24.9 -7.95 24.5 -7.85 24.3 -7.85 24.25 -7.9 24.25 -8.0 24.05 -8.0 23.85 -8.0 23.65 -7.7 23.5 -7.45 23.5 -7.35 L23.6 -7.1 23.65 -6.8 23.75 -6.65 Q23.9 -6.6 23.9 -6.55 L23.85 -6.5 24.0 -6.4 24.15 -6.35 24.65 -6.35 Q24.95 -6.35 25.1 -6.45 L25.25 -6.65 25.65 -6.9 Q25.8 -6.95 25.85 -7.15 L25.95 -7.45 26.15 -7.5 26.4 -7.55 Q26.95 -7.25 27.1 -7.0 L27.25 -7.0 Q27.7 -7.0 27.85 -7.15 L28.0 -7.45 28.15 -7.65 Q28.25 -7.8 28.25 -7.9 L28.2 -8.3 Q28.2 -8.6 28.4 -8.75 L28.6 -8.8 29.3 -8.3 Q29.6 -8.3 29.65 -8.7 L29.7 -9.15 Q29.7 -9.4 29.6 -9.5 28.5 -9.9 28.3 -10.15 L28.15 -10.45 Q27.95 -10.75 27.8 -10.75 27.6 -10.75 27.45 -10.45 27.3 -10.15 27.15 -10.1 26.25 -9.9 26.25 -9.45 26.25 -9.4 26.3 -9.35 L26.4 -9.1 26.4 -9.05 Q26.3 -9.05 26.2 -9.15 26.05 -9.25 25.95 -9.3 25.85 -9.45 25.85 -9.55 L25.75 -9.6 26.0 -9.95 Q26.2 -10.2 26.2 -10.3 L26.25 -10.7 Q26.3 -10.9 26.5 -11.1 L26.9 -11.05 27.25 -11.05 Q27.65 -11.45 27.75 -12.05 27.85 -12.8 27.9 -12.95 28.0 -12.95 28.15 -13.05 L28.3 -13.15 28.5 -13.15 28.95 -12.6 Q29.05 -12.6 29.1 -12.45 L29.15 -12.3 29.1 -11.95 29.1 -11.85 29.0 -10.9 Q29.0 -10.7 29.4 -10.5 29.85 -10.25 29.9 -10.2 30.05 -10.05 30.1 -9.75 30.25 -9.4 30.3 -9.25 30.4 -9.1 30.4 -8.8 L30.45 -8.35 30.6 -7.85 30.6 -7.5 Q30.6 -7.25 30.5 -7.2 30.35 -7.1 29.8 -7.0 L29.75 -6.95 29.5 -6.95 29.25 -7.0 28.9 -7.05 28.65 -7.15 28.5 -7.15 Q28.35 -7.0 28.35 -6.85 L28.4 -6.6 Q28.4 -6.4 28.1 -6.2 27.8 -6.0 27.6 -6.0 L27.2 -6.0 27.1 -6.05 26.7 -6.45 26.45 -6.45 Q26.2 -6.35 26.15 -6.2 26.15 -6.1 26.15 -5.9 26.15 -5.65 26.2 -5.6 L26.25 -5.55 Q26.35 -5.65 26.5 -5.75 L26.65 -5.7 Q26.8 -5.65 26.9 -5.5 L26.9 -5.35 Q26.9 -5.2 26.85 -5.1 L27.05 -4.95 27.1 -4.9 27.35 -4.95 27.35 -4.9 27.45 -5.0 27.5 -5.0 27.65 -5.4 Q27.95 -5.7 28.35 -5.7 28.75 -5.75 28.95 -5.5 29.4 -5.0 29.4 -3.95 29.4 -3.6 29.25 -3.4 L28.9 -2.65 28.8 -2.0 Q28.7 -1.55 28.35 -1.35 L27.8 -1.4 27.65 -1.5 27.45 -1.65 27.3 -1.65 Q27.3 -1.35 27.1 -1.0 26.85 -0.45 26.2 -0.45 25.4 -0.45 25.1 -0.75 24.9 -1.1 24.8 -1.2 L24.3 -1.2 Q24.3 -1.15 24.15 -1.15 L24.35 -1.1 Q24.8 -0.7 24.8 -0.3 24.8 0.15 24.35 0.2 L23.75 0.15 Q23.6 0.15 23.6 0.35 L23.6 0.55 23.55 0.8 Q23.5 0.95 23.3 1.0 L23.1 0.95 22.8 0.95 22.8 1.0 Q22.75 1.05 22.75 1.1 L22.8 1.4 22.8 1.45 22.9 1.45 Q23.35 1.45 23.5 1.0 23.7 0.55 23.95 0.55 L24.15 0.55 24.2 0.6 24.35 0.6 24.5 0.7 24.55 0.75 24.85 0.9 25.05 0.9 Q25.25 0.75 25.3 0.45 25.35 0.15 25.55 0.05 L26.1 0.1 26.35 0.35 26.4 0.45 Q26.4 0.6 26.05 1.3 25.75 1.9 25.55 2.15 25.8 2.25 25.8 2.3 L26.65 2.45 Q26.85 2.5 26.85 2.75 L26.85 2.85 26.7 3.05 26.45 3.1 26.25 3.1 25.4 3.05 25.05 3.0 24.8 3.0 Q24.8 3.1 24.9 3.2 24.85 3.35 24.75 3.35 L24.3 3.3 23.95 3.25 23.45 3.25 Q23.35 3.4 23.2 3.55 22.95 3.75 22.2 3.75 L21.7 3.7 21.0 3.6 20.85 3.55 Q20.65 3.55 20.2 3.65 19.8 3.75 19.7 3.8 L19.45 3.8 19.15 3.75 18.3 3.4 Q17.8 3.2 17.5 3.2 17.9 3.05 19.25 2.95 20.3 2.9 20.55 2.45 L20.25 2.25 Q20.25 2.2 20.4 2.1 20.35 2.05 20.15 1.9 L19.95 1.7 Q19.85 1.65 19.75 1.65 L19.4 1.7 19.3 1.75 Q19.2 1.8 19.0 1.9 L18.8 1.95 Q18.15 1.95 17.95 1.85 L17.75 1.7 Q17.55 1.45 17.4 1.45 17.35 1.45 17.05 1.55 L16.3 1.65 Q15.95 1.65 15.55 1.55 L15.2 1.4 Q14.85 1.4 14.7 1.6 L14.55 1.85 14.85 2.0 14.9 2.0 14.9 2.1 Q14.9 2.2 14.65 2.3 L14.1 2.5 14.05 2.5 Q13.95 2.55 13.75 2.6 13.55 2.55 13.15 2.3 L13.05 2.25 12.6 2.3 12.35 2.45 12.9 2.65 13.35 2.75 13.35 2.7 13.5 2.7 13.65 2.8 13.75 2.8 13.85 2.95 13.9 3.0 13.85 3.1 Q13.8 3.15 13.75 3.25 L13.45 3.3 13.15 3.4 13.1 3.3 13.05 3.3 12.9 3.4 Q12.8 3.5 12.8 3.55 L12.75 3.7 Q12.6 3.75 12.4 3.85 L12.05 4.0 11.7 4.0 11.4 4.05 11.1 4.05 Q10.8 4.0 10.7 3.8 L10.65 3.75 10.55 3.7 10.25 3.6 Q9.9 3.65 9.75 3.75 L9.75 4.1 Q9.7 4.25 9.4 4.25 L8.8 4.25 Q8.85 4.2 8.9 4.2 8.8 4.15 8.8 4.1 8.35 4.2 7.65 4.1 7.45 4.05 7.4 3.85 L7.3 3.55 6.85 3.55 6.85 3.6 6.2 3.65 Q6.1 3.65 5.75 3.55 L5.7 3.5 5.7 3.45 Q5.7 3.2 5.8 2.95 6.0 2.6 6.3 2.65 L6.4 2.55 6.3 2.45 Q6.2 2.4 6.2 2.3 L6.3 2.2 6.4 2.0 6.4 1.9 6.35 1.8 6.2 1.75 5.75 1.8 5.7 1.8 5.65 1.85 5.35 1.85 5.3 1.8 Q5.25 1.8 5.25 1.7 5.25 1.5 5.75 1.25 5.75 1.2 5.65 1.2 L5.7 1.15 5.7 1.0 5.55 0.7 4.15 0.7 Q4.5 1.05 4.5 1.15 4.5 1.3 4.45 1.3 L3.85 1.35 3.65 1.35 3.6 1.4 3.75 1.45 3.8 1.6 3.8 1.75 Q3.8 1.9 3.75 1.95 3.7 2.1 3.35 2.15 L3.45 2.25 Q4.7 2.2 5.1 2.45 5.3 2.55 5.3 2.75 5.3 2.95 5.15 3.1 4.85 3.35 4.1 3.3 L4.15 3.35 4.15 3.45 4.05 3.65 3.55 3.8 1.95 3.85 1.8 4.0 1.2 4.25 Q0.7 4.45 0.5 4.45 L-0.75 4.4 -0.9 4.4 -1.35 3.95 -1.55 3.9 -2.15 3.95 -2.15 4.1 Q-2.2 4.2 -2.25 4.3 -2.5 4.55 -3.4 4.55 -4.85 4.55 -5.0 4.15 -5.15 3.75 -5.65 3.65 L-5.7 3.55 -5.65 3.45 -5.3 3.4 Q-5.15 3.45 -5.05 3.55 L-4.95 3.75 Q-4.95 3.8 -4.65 3.95 -4.3 4.1 -4.15 4.1 -3.85 4.1 -3.35 3.8 -2.8 3.5 -2.8 3.35 -2.8 3.15 -3.4 2.9 -4.0 2.65 -4.0 2.5 L-4.0 2.35 -3.6 2.35 -3.15 2.4 -2.85 2.4 -2.55 2.2 Q-2.65 2.05 -2.85 1.95 -3.0 1.85 -3.0 1.75 L-2.85 1.6 Q-2.7 1.45 -2.7 1.35 -2.7 1.2 -2.95 0.95 -3.25 0.7 -3.25 0.6 L-3.2 0.45 Q-3.15 0.4 -3.15 0.35 -3.15 0.2 -3.3 0.05 -3.5 -0.15 -3.8 -0.15 L-3.9 -0.15 -3.95 -0.1 -4.35 -0.05 Q-4.6 0.05 -4.75 0.1 L-5.4 0.2 -6.15 0.2 -6.65 0.15 -6.75 0.1 -6.85 0.1 -6.95 0.0 -7.2 -0.2 Q-7.45 -0.3 -7.55 -0.3 L-7.85 -0.3 Q-7.95 -0.15 -8.4 0.0 L-9.05 0.25 Q-9.2 0.35 -9.35 0.5 L-10.05 0.5 -10.4 0.85 Q-10.5 0.95 -10.5 1.15 L-10.4 1.45 Q-10.4 1.55 -10.45 1.7 -10.5 1.9 -10.6 1.95 L-11.25 2.0 Q-11.8 2.1 -11.8 2.3 L-11.8 2.4 -11.75 2.45 -10.2 2.6 -10.05 2.55 Q-9.7 2.5 -9.5 2.65 -9.35 2.75 -9.35 2.85 -9.35 2.95 -9.4 2.95 -9.85 3.0 -9.95 3.1 -9.9 3.25 -9.65 3.25 -9.4 3.25 -9.3 3.35 L-8.45 3.3 -8.45 3.25 -8.35 3.2 -7.65 3.25 -7.6 3.25 Q-7.5 3.25 -7.5 3.35 -7.5 3.4 -7.55 3.45 L-7.6 3.5 -7.5 3.6 Q-6.75 3.6 -6.5 3.4 L-6.3 3.1 -6.25 3.15 -6.2 3.15 -6.2 3.25 Q-6.2 3.5 -7.4 4.4 -7.9 4.4 -8.0 4.25 L-8.2 4.1 -8.35 4.1 Q-8.45 4.15 -8.5 4.3 -8.55 4.4 -8.7 4.45 L-9.45 4.45 Q-9.9 4.4 -10.1 4.1 L-10.35 3.6 -10.65 3.55 -10.75 3.35 -10.9 3.15 -11.1 3.1 -11.55 3.1 -12.1 3.5 -12.5 3.45 Q-12.85 3.45 -12.95 3.35 L-13.4 3.45 -13.7 3.5 -14.15 3.45 -14.35 3.25 Q-14.35 3.0 -13.95 2.8 -13.6 2.65 -13.65 2.45 L-13.6 2.45 Q-13.6 2.35 -13.5 2.25 L-13.65 2.25 -13.65 2.2 -13.9 2.15 Q-14.3 2.15 -14.4 2.4 -14.55 2.75 -14.6 2.8 L-14.85 2.8 -15.05 2.75 -15.6 2.7 -15.8 2.65 -16.7 2.75 -17.0 2.7 Q-17.2 2.55 -17.2 2.45 -17.2 2.35 -17.05 2.25 L-17.0 2.25 -16.9 2.1 -16.8 2.1 -16.75 1.95 Q-16.95 1.9 -17.6 1.95 -17.65 2.05 -17.85 2.15 L-18.85 2.1 Q-19.05 2.15 -19.1 2.3 L-19.2 2.5 -19.45 2.55 -19.75 2.5 -20.55 2.45 -20.9 2.4 -21.05 2.35 -21.15 2.25 -21.2 2.1 -21.6 2.25 -22.05 2.45 -22.25 2.4 -22.4 2.35 Q-22.4 2.0 -22.35 1.8 L-22.4 1.75 Q-22.6 1.75 -22.7 1.85 -23.25 1.7 -23.35 1.55 -23.4 1.45 -23.4 1.15 L-23.4 0.95 Q-23.35 0.85 -23.25 0.75 L-22.95 0.7 Q-22.8 0.6 -22.85 0.45 -22.85 0.3 -22.75 0.25 L-22.45 0.05 Q-22.35 -0.05 -22.35 -0.15 -22.35 -0.2 -22.4 -0.25 -22.45 -0.3 -22.45 -0.35 L-22.4 -0.75 Q-22.35 -1.0 -22.1 -1.05 -21.85 -1.1 -21.55 -0.8 -21.3 -0.5 -21.1 -0.6 -21.05 -0.6 -20.8 -0.4 -20.6 -0.2 -20.4 -0.3 L-20.35 -0.3 -20.35 -0.25 -20.25 -0.2 Q-19.8 0.0 -19.65 0.05 L-19.65 0.0 -19.6 0.0 -19.2 -0.05 -19.05 -0.4 Q-18.9 -0.65 -18.8 -0.65 L-18.45 -0.65 Q-18.35 -0.55 -18.35 -0.3 L-18.4 0.05 -18.35 0.35 Q-18.25 0.5 -17.95 0.55 -17.95 0.5 -18.05 0.45 L-18.0 0.3 -17.9 0.35 -17.85 0.4 -17.6 0.4 Q-17.35 0.1 -17.35 0.0 -17.35 -0.1 -17.5 -0.2 -17.7 -0.3 -17.7 -0.4 L-17.65 -0.7 -17.6 -0.7 -17.6 -0.65 -17.55 -0.75 -17.6 -0.95 Q-17.65 -1.15 -17.85 -1.25 L-18.3 -1.3 -18.7 -1.15 Q-19.15 -0.9 -19.4 -0.9 -19.85 -0.9 -20.05 -1.4 -20.2 -1.75 -20.2 -1.95 -20.2 -2.2 -20.15 -2.35 -20.05 -2.5 -19.75 -2.7 L-19.4 -2.7 -19.45 -2.6 -19.45 -2.45 Q-19.45 -2.35 -19.3 -2.2 -19.15 -2.05 -19.1 -2.05 -18.85 -2.05 -18.4 -2.45 -18.1 -2.75 -18.0 -2.9 L-17.65 -3.5 Q-17.6 -3.6 -17.6 -3.9 -17.6 -4.05 -17.5 -4.15 L-17.2 -4.4 Q-16.3 -4.4 -15.95 -4.85 -15.75 -5.15 -15.75 -5.6 -15.75 -5.75 -15.85 -6.2 L-15.9 -6.25 -15.9 -6.45 -15.95 -6.7 -16.25 -7.15 Q-16.3 -7.2 -16.35 -7.4 L-16.4 -7.75 Q-16.4 -8.1 -16.0 -8.15 -15.55 -8.25 -15.4 -8.65 -15.3 -8.85 -15.25 -9.25 L-15.2 -9.7 Q-15.2 -9.8 -15.55 -10.3 -16.2 -10.4 -16.2 -11.0 -16.2 -11.55 -16.45 -11.65 L-17.25 -11.65 Q-17.9 -11.35 -18.05 -11.2 -18.25 -11.0 -18.25 -10.75 -18.25 -10.6 -18.1 -10.25 -18.0 -9.85 -18.0 -9.65 -18.0 -9.25 -18.05 -9.1 -18.1 -8.9 -18.3 -8.7 L-18.3 -8.6 Q-18.4 -8.4 -18.85 -8.2 L-19.85 -8.45 Q-20.45 -8.6 -20.6 -8.8 L-20.85 -9.25 Q-20.95 -9.4 -20.95 -9.6 -20.95 -9.7 -20.85 -9.75 -20.7 -9.85 -20.7 -9.95 -20.7 -10.15 -20.9 -10.45 -21.05 -10.7 -21.2 -10.75 -21.2 -10.6 -21.25 -10.55 L-21.25 -10.5 Q-21.3 -10.6 -21.35 -10.75 -21.4 -11.0 -21.45 -11.05 -22.2 -10.6 -22.25 -9.75 -22.25 -9.6 -22.35 -9.4 L-22.45 -9.1 -22.45 -8.8 Q-22.5 -8.55 -22.75 -8.45 L-23.0 -8.45 Q-23.1 -8.55 -23.15 -8.7 L-23.25 -9.0 -23.4 -9.0 Q-23.55 -8.65 -23.55 -8.45 -23.55 -7.85 -23.25 -7.65 -22.95 -7.45 -22.95 -7.25 L-23.0 -7.1 Q-23.0 -7.05 -23.15 -7.05 -23.15 -7.0 -23.2 -7.0 L-23.2 -6.95 Q-23.2 -6.7 -22.75 -6.15 -22.35 -5.65 -22.35 -5.4 L-22.45 -5.2 -22.65 -5.25 Q-22.7 -5.3 -22.75 -5.35 L-22.75 -5.3 -22.8 -5.2 -22.75 -5.1 -22.75 -5.05 -22.4 -4.95 Q-22.3 -4.85 -22.15 -4.55 -22.0 -4.2 -21.85 -4.1 L-21.9 -4.0 -22.05 -4.05 Q-22.2 -4.25 -22.25 -4.25 -22.3 -4.15 -22.5 -4.0 L-22.7 -4.0 -22.7 -4.1 -22.85 -4.1 Q-23.5 -4.1 -24.0 -4.95 -24.35 -5.6 -24.35 -5.9 -24.35 -6.25 -24.1 -6.5 -23.9 -6.75 -23.9 -6.85 -23.9 -6.95 -24.05 -7.1 -24.35 -7.25 -24.45 -7.35 -25.3 -7.45 -25.5 -7.55 -25.6 -7.6 -25.6 -7.8 -25.6 -8.25 -25.15 -8.35 -24.8 -8.4 -24.65 -8.55 L-24.55 -8.85 -24.5 -9.4 Q-24.5 -9.75 -24.25 -10.0 L-23.8 -10.0 -23.5 -9.95 -22.95 -9.95 Q-22.6 -10.15 -22.5 -10.55 L-22.35 -11.15 Q-22.2 -11.45 -22.25 -11.7 -22.3 -11.85 -22.25 -12.0 L-22.1 -12.3 -21.95 -12.35 Q-21.25 -12.3 -21.05 -12.15 L-20.9 -12.0 -20.6 -11.85 Q-20.45 -11.7 -20.4 -11.6 -20.35 -11.4 -20.35 -11.0 L-20.45 -10.25 Q-20.45 -10.15 -20.1 -9.55 -19.65 -8.85 -19.3 -8.85 -19.0 -8.85 -18.75 -9.2 L-18.6 -9.55 Q-18.6 -9.65 -18.95 -9.95 L-19.35 -10.3 -19.5 -10.65 -19.5 -10.95 Q-19.5 -11.1 -19.45 -11.25 -19.4 -11.4 -19.2 -11.4 -19.05 -11.4 -18.95 -11.35 L-18.9 -11.2 -18.9 -11.15 -18.8 -11.15 Q-18.55 -11.3 -18.55 -11.5 -18.55 -11.8 -18.5 -11.85 -18.4 -12.05 -18.0 -12.0 L-17.75 -11.95 -17.75 -12.0 Q-17.6 -12.1 -17.45 -12.1 L-16.9 -11.9 -16.5 -11.8 -16.3 -11.8 -16.1 -11.9 -16.2 -12.2 -16.15 -12.35 Q-16.15 -12.45 -16.0 -12.5 L-15.6 -12.5 Q-15.5 -12.65 -15.4 -12.85 -15.25 -13.1 -15.25 -13.2 L-15.35 -13.5 -15.4 -13.75 Q-15.6 -13.9 -15.95 -14.0 -16.3 -14.05 -16.35 -14.15 L-16.45 -14.3 -16.45 -14.25 -16.5 -14.0 -16.5 -13.8 -16.45 -13.6 Q-16.45 -13.3 -16.75 -12.9 -17.1 -12.35 -17.55 -12.35 -18.05 -12.35 -18.25 -12.45 -18.4 -12.6 -18.6 -12.6 -18.8 -12.6 -19.05 -12.45 L-19.35 -12.2 -19.65 -12.25 -19.9 -12.45 Q-20.15 -12.65 -20.35 -12.65 L-20.35 -12.8 -20.3 -12.8 Q-20.25 -12.8 -19.35 -12.8 L-19.15 -12.8 Q-19.1 -12.85 -19.1 -12.9 L-19.3 -13.15 Q-19.3 -13.6 -18.3 -13.7 L-17.25 -13.75 Q-16.9 -13.75 -16.95 -14.3 -16.95 -15.0 -16.9 -15.05 L-16.65 -15.05 Q-16.65 -15.35 -16.5 -15.5 L-16.25 -15.75 Q-15.95 -15.95 -16.05 -16.55 L-16.05 -16.6 -16.15 -16.75 -16.2 -16.75 -16.35 -16.45 Q-16.45 -16.3 -16.6 -16.15 -16.9 -16.15 -17.05 -16.35 -17.15 -16.5 -17.3 -16.55 L-17.35 -16.55 -17.6 -16.6 Q-17.75 -16.5 -17.9 -16.4 -18.0 -16.35 -18.0 -16.2 -18.0 -16.05 -17.95 -15.9 -17.85 -15.7 -17.85 -15.45 -17.85 -15.15 -17.9 -15.05 -18.0 -14.95 -18.6 -14.6 L-18.75 -14.6 Q-19.3 -14.8 -19.65 -15.25 -19.95 -15.65 -19.95 -15.9 -19.95 -16.1 -19.9 -16.2 -19.8 -16.35 -19.7 -16.5 -19.2 -16.2 -19.2 -17.35 -19.2 -17.55 -19.45 -17.8 -19.65 -18.0 -19.95 -18.15 -20.2 -18.1 -20.4 -17.95 -20.6 -17.8 -20.7 -17.8 L-20.9 -17.6 -21.05 -17.25 Q-21.05 -16.95 -21.1 -16.8 -21.15 -16.45 -21.4 -16.45 L-21.5 -16.45 -21.55 -16.5 -21.55 -16.65 -21.6 -16.75 -21.7 -16.65 -21.75 -16.5 Q-21.75 -16.35 -21.4 -15.75 -21.1 -15.15 -21.1 -14.95 -21.1 -14.75 -21.1 -14.55 L-21.1 -14.5 Q-21.1 -14.4 -21.15 -14.3 -21.25 -14.2 -21.3 -14.2 -21.35 -14.2 -21.5 -14.4 L-21.65 -14.65 -21.7 -14.45 Q-21.7 -14.35 -21.55 -13.95 L-21.3 -13.5 -21.05 -13.6 -20.85 -13.65 Q-20.75 -13.65 -20.7 -13.5 L-20.7 -13.3 -20.45 -13.0 Q-20.45 -12.95 -20.5 -12.9 L-20.8 -12.9 -20.85 -12.95 -20.95 -12.95 -21.0 -13.05 Q-21.15 -13.05 -21.2 -12.95 L-21.35 -12.8 -21.4 -12.8 -21.5 -12.85 -21.6 -12.85 -21.6 -12.8 Q-22.15 -12.85 -22.35 -13.15 -22.45 -13.35 -22.6 -13.7 -22.9 -13.75 -23.05 -14.05 -23.1 -14.2 -23.1 -14.45 -23.1 -14.9 -22.75 -15.15 -22.35 -15.45 -22.35 -15.65 -22.35 -15.75 -22.85 -16.25 -22.9 -16.3 -22.95 -16.55 L-23.0 -16.85 Q-23.0 -17.2 -22.55 -17.5 -21.85 -18.05 -21.75 -18.15 -21.65 -18.25 -21.6 -18.5 -21.55 -18.75 -21.4 -18.95 L-21.0 -19.2 -20.65 -19.45 -20.3 -19.5 Q-20.2 -19.5 -19.9 -19.25 -19.6 -19.0 -19.4 -19.0 -19.15 -19.0 -18.7 -19.45 L-18.6 -19.55 -18.6 -19.6 Q-18.3 -19.9 -18.3 -20.05 L-18.35 -20.3 Q-18.45 -20.45 -18.45 -20.55 L-18.45 -20.8 Q-18.4 -20.95 -18.2 -20.95 L-18.05 -21.15 Q-17.9 -21.25 -17.45 -21.35 -17.1 -21.45 -17.2 -21.9 L-17.2 -21.9 Q-17.35 -22.15 -17.5 -22.15 -17.75 -22.15 -17.7 -21.6 -17.7 -21.55 -17.85 -21.4 L-18.05 -21.2 Q-18.55 -21.4 -18.65 -21.9 -18.75 -22.35 -18.8 -22.55 L-18.85 -22.5 -18.9 -22.55 -19.1 -22.5 Q-19.2 -22.45 -19.25 -22.2 L-19.25 -21.9 -19.35 -21.9 -19.45 -21.95 -19.5 -21.95 Q-19.7 -22.1 -19.75 -22.45 L-19.8 -22.85 -20.0 -23.25 Q-20.15 -23.55 -20.15 -23.7 -20.15 -23.95 -20.05 -24.15 L-19.65 -24.55 -18.6 -24.5 Q-18.4 -24.3 -18.4 -24.2 -18.4 -24.15 -18.5 -23.95 L-18.6 -23.75 -18.65 -23.25 -18.55 -23.05 Q-18.3 -22.95 -18.25 -22.7 L-18.15 -22.3 -18.0 -22.25 Q-17.85 -22.5 -17.55 -23.1 -16.8 -22.95 -16.55 -22.55 -16.35 -22.3 -16.35 -21.85 -16.35 -21.5 -16.85 -21.1 -17.25 -20.75 -17.3 -20.6 L-17.3 -20.5 -17.25 -20.4 -17.1 -20.3 -17.05 -20.3 -16.8 -20.25 Q-16.75 -20.3 -16.75 -20.2 L-16.75 -20.15 -16.6 -20.2 -16.55 -20.15 -16.6 -20.1 -16.5 -20.1 -16.5 -20.15 -16.45 -20.15 -15.95 -20.45 -15.4 -20.45 -15.2 -20.15 Q-15.05 -19.85 -14.8 -19.85 L-14.2 -19.95 -14.0 -20.15 -14.0 -20.45 -13.95 -20.45 -13.95 -20.6 -14.0 -20.95 Q-14.0 -21.45 -13.7 -21.5 L-13.05 -21.55 Q-12.5 -21.2 -12.55 -20.45 L-12.5 -20.45 Q-12.4 -20.5 -12.35 -20.65 -12.3 -20.8 -12.15 -20.85 L-12.05 -20.8 Q-11.95 -20.75 -11.9 -20.6 L-11.9 -19.95 -11.95 -19.95 Q-12.05 -19.95 -12.05 -20.1 L-12.1 -20.05 Q-12.15 -20.0 -12.25 -19.85 L-12.3 -19.8 -12.3 -19.7 -12.4 -19.6 -12.45 -19.6 -12.6 -19.6 Q-12.95 -19.8 -13.05 -20.25 L-13.15 -20.85 -13.25 -20.9 Q-13.5 -20.8 -13.55 -20.25 L-13.55 -19.5 -13.5 -19.0 -13.4 -18.55 Q-13.4 -18.3 -13.45 -18.2 -13.5 -18.05 -13.75 -17.9 L-14.05 -17.9 Q-14.25 -18.1 -14.45 -18.4 L-14.75 -18.9 -14.8 -18.9 -14.9 -18.95 -15.3 -18.9 -15.4 -18.7 -15.45 -18.45 Q-15.45 -17.9 -14.45 -16.6 L-13.75 -15.7 Q-13.7 -15.7 -13.7 -15.65 L-13.7 -15.6 Q-13.45 -15.2 -13.45 -15.1 L-13.45 -14.85 Q-13.5 -14.65 -13.75 -14.7 L-13.6 -14.25 Q-13.55 -14.0 -13.35 -13.8 L-13.1 -13.6 Q-12.95 -13.45 -12.7 -13.4 L-12.25 -13.25 -11.55 -13.3 Q-11.3 -13.3 -11.2 -13.05 -11.15 -12.9 -11.15 -12.7 -11.15 -12.45 -11.35 -12.35 -11.55 -12.3 -11.55 -12.15 -11.55 -11.95 -11.5 -11.85 L-11.4 -11.7 -10.7 -11.25 Q-10.2 -10.95 -10.1 -10.95 L-9.6 -11.0 -9.55 -11.05 Q-9.25 -11.25 -9.2 -11.55 L-9.15 -12.05 Q-8.8 -13.0 -8.3 -13.0 -8.0 -13.0 -7.5 -12.7 -7.45 -12.65 -7.15 -12.65 L-6.75 -12.55 Q-6.7 -12.55 -6.35 -12.2 -6.0 -11.85 -5.8 -11.85 -5.25 -11.85 -4.95 -12.2 -4.8 -12.35 -4.75 -12.55 -4.75 -12.65 -4.85 -12.7 -5.0 -12.8 -5.0 -13.0 L-5.05 -13.35 -5.05 -13.65 -5.0 -14.0 Q-5.05 -14.15 -4.95 -14.25 -4.9 -14.4 -4.7 -14.55 L-4.45 -14.55 -4.35 -14.5 -4.3 -14.3 Q-4.3 -14.15 -4.05 -14.15 L-3.7 -14.2 -3.55 -14.4 -3.4 -14.55 Q-3.3 -14.85 -3.3 -14.95 -3.3 -15.2 -3.35 -15.25 -3.45 -15.4 -3.95 -15.55 -4.05 -15.7 -4.1 -15.75 L-4.1 -15.95 Q-4.1 -16.15 -4.05 -16.25 -3.95 -16.4 -3.65 -16.5 L-3.2 -16.5 -3.1 -16.35 Q-2.95 -16.25 -2.85 -16.25 L-2.75 -16.3 -2.8 -16.35 -2.8 -16.65 -2.7 -16.65 Q-2.65 -16.55 -2.6 -16.3 L-2.5 -16.0 -2.6 -16.05 Q-2.6 -15.95 -2.55 -15.9 -2.5 -15.85 -2.5 -15.75 -2.5 -15.7 -2.45 -15.65 -2.4 -15.6 -2.4 -15.55 L-2.4 -15.5 -2.7 -15.5 -3.0 -15.85 -3.15 -15.7 Q-3.15 -15.4 -2.45 -15.05 -1.8 -14.75 -1.8 -14.4 L-1.9 -14.25 -2.0 -14.15 -2.25 -14.25 Q-2.4 -14.3 -2.5 -14.25 L-2.55 -14.25 -2.65 -14.1 -2.7 -13.9 -2.45 -13.4 Q-2.35 -13.25 -2.35 -13.1 L-2.35 -12.9 Q-2.35 -12.7 -2.35 -12.65 L-2.45 -12.5 Q-2.5 -12.35 -2.6 -12.3 L-2.9 -12.3 -2.9 -12.35 -3.05 -12.45 -3.05 -12.6 -3.15 -12.65 -3.2 -12.65 -3.2 -12.1 -3.25 -11.85 -3.35 -11.5 Q-3.3 -11.25 -3.2 -11.1 L-3.0 -10.85 Q-2.85 -10.7 -2.8 -10.55 -2.5 -10.1 -2.3 -10.1 -2.15 -10.1 -1.85 -10.3 L-1.5 -10.5 -1.2 -10.4 -1.05 -10.3 -0.95 -10.1 Q-0.9 -9.9 -0.9 -9.8 -0.9 -9.7 -1.05 -9.55 L-1.15 -9.35 -1.15 -9.2 -1.1 -9.15 Q-1.0 -9.1 -0.95 -9.05 L-0.25 -9.1 -0.05 -9.15 0.0 -9.15 0.4 -9.25 0.7 -9.4 1.0 -9.5 Q1.1 -9.6 1.1 -9.85 1.15 -10.15 1.35 -10.25 L1.7 -10.25 Q1.85 -10.1 2.0 -10.1 L2.55 -10.25 Q2.55 -10.3 2.7 -10.3 L3.05 -10.4 3.25 -10.65 Q3.45 -10.85 3.45 -11.0 L3.45 -11.1 3.4 -11.05 3.4 -11.2 3.35 -11.35 3.3 -11.4 3.25 -11.5 Q3.2 -11.8 3.4 -11.95 3.7 -11.85 3.95 -12.15 4.2 -12.35 4.2 -12.55 L4.05 -12.8 4.0 -12.85 4.0 -12.7 Q3.9 -12.85 3.9 -13.1 3.9 -13.3 3.9 -13.35 L4.15 -13.55 Q4.45 -13.6 4.7 -13.2 5.0 -12.8 5.25 -12.8 5.6 -12.8 6.35 -13.35 L6.35 -13.4 6.3 -13.5 6.25 -13.55 Q6.15 -13.55 5.85 -13.65 L5.65 -13.9 5.6 -14.1 5.65 -14.35 Q5.7 -14.5 5.95 -14.65 L6.25 -14.9 Q6.4 -15.1 6.4 -15.2 L6.3 -15.55 6.15 -15.85 5.75 -15.85 Q5.6 -15.95 5.6 -16.1 L5.65 -16.2 5.8 -16.3 6.05 -16.3 6.45 -16.35 Q5.6 -16.45 5.25 -16.7 5.05 -16.85 5.05 -17.2 L5.15 -17.6 5.15 -17.65 4.95 -17.75 4.6 -17.85 4.5 -18.0 Q4.45 -18.15 4.45 -18.25 4.45 -18.4 4.6 -18.6 4.8 -18.85 4.8 -19.1 4.7 -19.3 4.85 -19.55 4.95 -19.8 5.2 -19.95 L5.75 -19.95 Q5.95 -19.85 6.0 -19.65 L6.0 -19.3 Q5.95 -19.25 5.8 -19.35 L5.65 -19.35 5.6 -19.25 5.6 -19.15 Q5.6 -19.0 5.75 -18.85 L6.55 -18.9 Q6.65 -19.05 7.2 -19.35 7.25 -19.35 7.3 -19.3 L7.35 -19.2 7.5 -19.25 8.35 -19.2 Q8.45 -19.2 8.95 -19.35 9.5 -19.55 9.7 -19.7 L9.95 -20.05 10.05 -20.15 10.05 -20.25 10.0 -20.4 9.95 -20.5 Q9.95 -20.55 9.95 -20.6 L10.0 -20.75 Q10.0 -20.8 9.85 -20.95 L9.6 -21.15 9.45 -21.15 Q9.4 -21.0 9.0 -20.7 L8.65 -20.45 Q8.65 -20.35 8.5 -20.3 L8.05 -20.3 Q7.8 -20.4 7.7 -20.55 L7.55 -20.65 7.15 -21.1 6.95 -21.15 Q6.65 -21.15 6.4 -20.95 6.15 -20.75 5.85 -20.75 5.1 -20.75 4.65 -21.4 4.4 -21.85 4.4 -22.15 L4.5 -22.7 4.65 -23.2 Q4.8 -23.45 5.05 -23.75 5.3 -23.95 5.6 -23.95 L6.6 -23.9 Q6.8 -23.9 7.1 -24.2 L7.4 -24.55 Q7.45 -24.6 7.6 -24.9 7.65 -25.1 7.85 -25.05 L7.9 -25.25 8.0 -25.55 Q8.05 -25.7 8.05 -25.85 8.05 -26.15 7.8 -26.7 7.5 -27.45 7.1 -27.25 7.0 -27.35 6.75 -27.7 L6.5 -28.05 Q6.5 -28.45 6.85 -28.9 7.35 -29.45 8.1 -29.45 M16.75 -20.45 L16.6 -20.5 16.55 -20.45 16.45 -20.4 16.5 -20.4 16.5 -20.25 16.3 -20.0 15.95 -19.95 15.9 -19.8 Q15.9 -19.75 16.05 -19.55 16.15 -19.35 16.15 -19.15 16.15 -19.0 16.3 -18.8 16.35 -18.75 16.6 -18.65 L16.85 -18.55 Q17.2 -18.55 17.25 -18.75 L17.2 -18.85 17.05 -18.9 Q16.85 -18.95 16.7 -19.4 16.65 -19.75 16.65 -20.1 16.65 -20.15 16.7 -20.25 L16.8 -20.45 16.75 -20.45 M11.9 -17.05 L11.95 -17.15 Q11.95 -17.25 11.9 -17.3 11.55 -17.35 11.55 -17.4 L11.4 -17.35 11.3 -17.35 11.2 -17.4 10.7 -17.4 10.65 -17.85 Q10.6 -18.15 10.35 -18.15 L10.0 -18.0 Q9.7 -17.85 9.65 -17.85 L9.45 -17.85 Q9.15 -17.85 8.9 -18.1 L8.65 -18.35 Q8.6 -18.4 8.55 -18.4 L8.45 -18.35 8.35 -18.15 8.35 -18.1 8.25 -17.95 Q8.15 -17.8 8.15 -17.7 L8.0 -17.65 Q8.0 -17.75 7.95 -17.95 L7.9 -18.2 7.85 -18.3 7.9 -18.3 7.9 -18.35 7.8 -18.4 7.65 -18.4 Q7.4 -18.4 6.85 -18.05 6.3 -17.7 6.3 -17.6 L6.4 -17.4 Q6.95 -17.2 7.1 -17.05 L7.45 -17.1 Q7.5 -17.2 7.65 -17.35 7.8 -17.55 7.95 -17.5 L7.7 -17.0 Q7.5 -16.7 7.25 -16.55 L7.25 -16.5 Q7.7 -16.4 7.5 -16.15 7.7 -16.0 7.75 -15.7 7.8 -15.3 7.9 -15.2 L8.3 -15.2 8.5 -15.4 Q8.8 -15.4 8.8 -15.2 8.8 -14.9 8.85 -14.85 9.25 -14.8 9.6 -14.85 L9.6 -14.95 9.8 -14.95 10.0 -14.85 9.95 -14.85 10.0 -14.8 Q10.25 -14.9 10.3 -15.05 L10.3 -15.25 10.2 -15.7 10.15 -15.8 10.15 -15.95 10.1 -16.15 Q10.1 -16.4 10.3 -16.65 10.65 -16.95 11.2 -16.85 L11.8 -16.95 11.9 -17.05 M20.8 -19.9 L20.8 -19.9 M19.7 -14.45 L19.35 -14.1 Q19.25 -14.05 19.15 -14.05 19.05 -14.05 19.0 -13.95 18.9 -13.75 18.9 -13.5 L18.85 -13.15 18.8 -12.7 19.15 -13.35 Q19.4 -13.8 19.55 -13.85 L19.85 -13.85 Q20.0 -13.75 20.0 -13.65 L20.0 -13.45 19.95 -13.0 Q19.85 -12.7 19.85 -12.55 L19.9 -12.4 19.9 -12.25 19.95 -12.2 20.2 -12.25 20.4 -12.25 20.55 -12.0 20.6 -11.75 Q20.7 -11.45 20.7 -11.3 20.7 -11.25 20.8 -11.05 L20.9 -10.8 Q20.9 -10.7 20.8 -10.5 L20.65 -10.25 20.5 -10.5 Q20.4 -10.4 20.35 -10.15 20.3 -9.95 20.15 -9.85 L19.95 -9.9 Q19.75 -10.0 19.65 -10.2 19.6 -10.3 19.6 -10.45 L19.65 -10.6 19.75 -10.65 19.65 -10.75 19.4 -10.75 19.35 -10.6 Q19.3 -10.5 19.3 -10.45 L19.3 -10.15 Q19.3 -9.7 19.35 -9.6 19.4 -9.45 19.75 -9.05 L20.15 -9.0 20.25 -8.8 Q20.95 -8.9 21.25 -9.2 L21.5 -9.7 Q21.9 -10.5 21.9 -10.65 21.9 -10.95 21.75 -11.15 21.6 -11.4 21.6 -11.6 21.6 -12.0 21.9 -12.4 L22.25 -12.85 Q22.25 -13.15 22.1 -13.15 L21.95 -13.1 Q21.85 -13.05 21.75 -13.05 L21.5 -13.1 21.4 -13.25 Q21.25 -13.25 21.2 -13.3 L21.05 -13.05 20.85 -13.0 Q20.65 -13.2 20.6 -13.5 L20.6 -14.0 Q20.6 -14.55 20.45 -14.95 L20.15 -14.95 Q19.95 -14.75 19.7 -14.45 M5.75 -14.2 L5.75 -14.2 M7.35 -16.8 L7.35 -16.8 M6.95 -15.75 L6.95 -15.65 6.9 -15.65 6.9 -15.7 Q6.7 -15.6 6.65 -15.45 L7.0 -14.95 7.05 -14.9 7.05 -14.8 Q7.05 -14.65 6.75 -14.5 6.4 -14.35 6.4 -14.25 L6.4 -14.2 6.55 -14.1 7.0 -14.0 7.1 -13.7 7.2 -13.55 7.2 -13.15 Q7.15 -12.9 7.15 -12.8 7.15 -12.65 7.0 -12.5 6.9 -12.4 6.75 -12.35 6.75 -12.25 6.6 -12.05 L6.35 -11.75 5.8 -11.7 5.6 -11.85 5.35 -12.05 5.0 -12.4 4.7 -12.4 4.7 -12.35 4.65 -12.25 Q4.65 -12.2 4.7 -12.1 L4.75 -11.95 4.8 -11.95 4.75 -11.4 Q4.7 -11.1 4.25 -10.9 L4.0 -10.85 Q3.8 -10.65 3.8 -10.55 L4.35 -9.5 4.25 -9.4 4.2 -9.3 4.3 -9.1 4.25 -9.05 Q4.35 -8.9 4.35 -8.75 L4.35 -8.65 4.45 -8.65 5.05 -8.0 Q5.4 -7.65 5.35 -7.35 5.35 -7.2 5.35 -6.7 5.35 -6.65 5.5 -6.5 L5.65 -6.35 Q5.7 -6.15 5.8 -6.05 L6.05 -6.05 6.5 -6.15 6.65 -6.4 Q6.7 -6.55 6.8 -6.55 L7.1 -6.55 Q7.3 -6.45 7.6 -6.1 7.9 -5.75 8.05 -5.6 L8.35 -5.6 Q8.5 -5.75 8.75 -6.25 8.9 -6.6 9.3 -6.65 9.65 -6.7 9.95 -6.8 L9.95 -6.9 Q9.95 -6.95 10.05 -7.05 10.15 -7.15 10.3 -7.15 L10.65 -7.1 10.95 -7.05 Q11.0 -7.05 11.4 -7.3 11.85 -7.55 11.95 -7.6 12.05 -7.7 12.05 -7.9 L12.1 -8.25 12.05 -8.65 Q12.05 -8.85 11.95 -9.05 L11.6 -9.1 Q11.55 -9.2 11.55 -9.45 L11.6 -9.65 Q11.6 -9.85 11.7 -9.95 L11.85 -9.9 11.95 -9.9 Q12.15 -9.9 12.25 -10.1 12.3 -10.25 12.35 -10.35 L12.3 -10.6 Q12.25 -10.75 12.25 -10.8 L12.25 -10.9 12.5 -10.95 12.75 -10.95 Q13.1 -10.55 13.25 -10.4 13.35 -10.2 13.35 -9.95 L13.25 -9.5 Q13.15 -9.15 13.15 -9.05 13.15 -8.75 13.45 -8.5 L14.1 -8.05 Q15.05 -7.45 15.05 -6.65 15.05 -6.4 14.85 -5.95 14.65 -5.3 14.4 -5.3 L13.95 -5.3 13.95 -5.4 Q13.95 -5.5 14.05 -5.65 14.1 -5.85 14.1 -6.1 14.1 -6.5 13.95 -6.85 13.7 -7.5 13.1 -7.5 12.7 -7.5 12.45 -7.0 12.25 -6.6 12.25 -6.4 12.25 -6.25 12.55 -5.95 12.85 -5.6 12.85 -5.5 12.85 -5.3 12.6 -5.15 12.4 -5.0 12.4 -4.7 12.4 -4.6 12.55 -4.45 12.8 -4.25 13.15 -4.25 L13.45 -4.35 13.75 -4.4 13.85 -4.35 13.75 -4.25 14.2 -4.35 Q14.65 -4.45 14.75 -4.6 14.85 -4.7 14.9 -4.95 15.0 -5.15 15.4 -5.15 L15.6 -5.1 15.85 -5.05 Q16.0 -5.05 16.05 -5.6 16.05 -6.05 15.65 -6.55 15.25 -7.0 15.25 -7.25 15.25 -7.45 15.3 -7.5 15.4 -7.7 15.9 -7.75 16.0 -7.95 16.0 -8.05 L16.0 -8.2 Q15.95 -8.3 15.7 -8.35 15.65 -8.4 15.65 -8.55 15.65 -8.8 15.8 -8.95 15.9 -9.1 16.1 -9.1 L16.15 -9.15 16.25 -9.3 Q16.25 -9.55 15.95 -10.05 15.6 -10.55 15.4 -10.6 L15.3 -10.6 Q15.15 -10.45 14.9 -10.6 14.7 -10.75 14.65 -10.9 L14.65 -11.5 Q14.65 -11.6 14.45 -11.7 14.2 -11.85 14.1 -11.85 L13.75 -11.75 13.4 -11.7 12.85 -11.75 Q12.75 -11.85 12.75 -12.0 12.75 -12.25 12.7 -12.3 L12.5 -12.35 12.3 -12.15 12.05 -11.95 11.8 -11.95 11.65 -12.05 11.6 -11.85 Q11.5 -12.0 11.55 -12.4 11.55 -12.7 11.3 -12.85 L11.05 -12.85 10.85 -12.0 Q10.7 -11.45 10.4 -11.1 10.15 -10.8 9.95 -10.25 L9.9 -9.8 Q9.85 -9.55 9.6 -9.4 L9.25 -9.4 Q9.05 -9.5 9.0 -9.7 L8.95 -10.05 Q8.55 -9.55 8.35 -9.45 7.85 -9.5 7.6 -9.8 7.45 -10.0 7.45 -10.25 L7.5 -10.5 7.5 -10.7 Q7.5 -10.85 7.4 -10.95 7.25 -11.1 7.25 -11.2 7.25 -11.5 7.4 -11.8 7.65 -12.2 8.1 -12.35 8.25 -12.45 8.3 -12.65 L8.35 -12.95 8.45 -12.95 8.5 -12.65 Q8.5 -12.3 8.35 -11.95 8.2 -11.65 8.2 -11.45 8.2 -11.35 8.35 -11.15 8.5 -10.95 8.75 -10.9 9.3 -11.05 9.6 -11.4 L10.2 -12.0 Q10.45 -12.2 10.6 -12.6 L10.75 -13.3 10.2 -13.3 10.15 -13.35 10.1 -13.45 10.1 -13.4 10.05 -13.4 10.05 -13.5 10.1 -13.65 10.15 -13.95 9.95 -14.25 8.95 -14.3 8.6 -14.35 8.4 -14.35 Q8.2 -14.25 8.1 -14.0 8.05 -13.75 7.8 -13.65 L7.6 -13.6 Q7.55 -13.65 7.35 -14.0 7.2 -14.3 7.2 -14.35 7.2 -14.55 7.4 -14.85 7.55 -15.15 7.55 -15.25 7.55 -15.4 7.35 -15.55 L7.1 -15.85 6.95 -15.75 M9.6 -14.7 L9.6 -14.7 M0.0 -10.95 L-0.1 -10.85 -0.1 -10.8 0.0 -10.95 M1.6 -1.95 Q1.55 -2.05 0.6 -2.7 L-0.2 -2.65 Q-0.65 -2.5 -0.9 -2.25 -1.15 -2.0 -1.15 -1.8 -1.15 -1.6 -0.9 -1.35 -0.6 -1.15 -0.6 -0.95 -0.6 -0.9 -0.7 -0.85 L-0.8 -0.75 Q-0.55 -0.65 -0.2 -0.45 L0.3 -0.2 0.0 0.1 Q0.1 0.25 0.15 0.3 0.4 0.5 1.05 0.55 1.75 0.55 2.2 0.4 2.7 0.25 3.4 0.25 3.65 0.25 3.9 0.45 3.85 0.3 3.85 0.25 3.85 -0.05 4.3 -0.15 4.8 -0.3 4.8 -0.75 L4.75 -0.9 4.7 -0.9 4.55 -0.85 Q4.5 -1.0 4.3 -1.05 L4.05 -1.1 2.9 -1.15 Q2.85 -1.2 2.85 -1.25 2.25 -1.3 2.0 -1.45 1.85 -1.5 1.8 -1.55 1.65 -1.7 1.6 -1.95 M5.35 -2.55 L4.7 -2.35 4.2 -2.2 4.0 -2.25 3.75 -2.25 3.65 -2.5 Q3.6 -2.55 3.6 -2.7 3.6 -2.75 3.65 -2.8 L3.9 -3.05 3.75 -3.15 3.5 -2.75 Q3.3 -2.45 2.95 -2.35 L2.9 -2.25 2.9 -1.95 3.75 -1.95 4.85 -1.9 Q5.25 -1.85 5.25 -1.7 5.2 -1.5 5.2 -1.35 L5.2 -1.3 5.3 -1.3 5.9 -1.25 6.0 -1.25 6.0 -1.15 5.9 -0.95 5.7 -0.7 5.7 -0.4 6.4 -0.4 Q7.05 -0.45 7.65 -0.8 8.2 -1.1 8.2 -1.3 L8.15 -1.5 Q8.1 -1.65 8.1 -1.7 8.1 -1.8 8.25 -2.0 8.4 -2.2 8.45 -2.2 8.6 -2.2 8.8 -2.05 8.9 -2.05 9.1 -2.15 L9.15 -2.3 Q9.25 -2.35 9.3 -2.25 9.55 -2.45 9.6 -2.55 9.75 -2.95 9.75 -3.15 9.75 -3.25 9.65 -3.4 9.55 -3.6 9.55 -3.7 9.55 -3.8 9.7 -4.0 9.85 -4.15 9.85 -4.35 9.85 -4.7 9.7 -5.0 9.55 -5.3 9.3 -5.4 L9.15 -5.4 9.0 -5.1 9.3 -4.65 Q9.3 -4.4 9.15 -3.85 8.95 -3.15 8.7 -2.95 8.55 -2.95 8.3 -3.05 L8.1 -3.15 Q7.9 -3.15 7.85 -2.85 L7.8 -2.4 Q7.6 -2.2 7.45 -2.1 7.2 -2.0 6.7 -1.9 5.8 -1.95 5.6 -2.15 5.5 -2.45 5.35 -2.55 M8.3 -0.05 Q8.3 0.05 8.35 0.05 8.4 0.1 8.6 0.15 L8.65 0.15 8.65 0.25 Q8.65 0.45 8.05 0.7 7.4 0.95 7.4 1.2 7.4 1.35 8.0 1.4 L10.45 1.55 10.6 1.7 Q10.6 1.85 10.35 1.95 L9.95 2.05 9.75 2.15 10.45 2.25 10.7 2.35 Q11.0 2.35 11.4 2.1 11.75 1.9 11.85 1.9 L13.25 2.1 13.45 2.15 13.55 2.2 Q13.75 2.2 13.8 2.1 L13.85 1.95 Q13.95 1.85 14.35 1.7 14.35 1.5 14.5 1.35 L14.9 1.1 15.7 1.1 15.7 1.0 Q15.7 0.9 15.75 0.9 L15.8 0.9 Q16.7 0.85 17.05 0.7 17.25 0.65 17.4 0.5 L17.2 0.15 Q17.05 0.0 17.05 -0.15 17.05 -0.3 17.15 -0.35 17.25 -0.45 17.75 -0.55 17.85 -0.6 17.95 -0.85 18.05 -1.1 18.05 -1.2 18.05 -1.3 17.85 -1.65 L17.6 -1.65 17.6 -1.8 Q17.6 -1.85 17.85 -2.3 18.1 -2.7 18.1 -2.85 L18.0 -3.2 Q17.85 -3.5 17.65 -3.5 17.35 -3.35 17.2 -3.35 L16.95 -3.35 16.8 -3.4 Q16.75 -3.65 16.4 -4.0 L16.0 -4.5 15.65 -4.5 15.4 -4.3 Q15.35 -4.3 15.35 -4.2 L15.45 -4.0 15.5 -3.75 Q15.5 -3.6 15.4 -3.55 15.35 -3.5 15.2 -3.5 L14.9 -3.5 14.85 -3.55 Q14.25 -3.45 14.15 -3.3 14.1 -3.25 14.1 -2.8 13.65 -2.25 13.45 -2.15 L13.05 -2.15 Q12.75 -2.05 12.55 -1.55 12.35 -1.1 12.35 -0.8 12.35 -0.7 12.5 -0.6 12.7 -0.45 12.8 -0.45 12.9 -0.45 12.95 -0.5 L13.0 -0.6 13.4 -0.6 Q13.65 -0.6 13.7 -0.55 L13.7 -0.45 Q13.7 -0.1 13.15 0.25 12.6 0.6 12.4 0.6 L11.65 0.6 Q11.55 0.55 11.4 0.4 11.25 0.25 11.25 0.1 11.25 -0.2 11.6 -0.4 11.95 -0.6 11.95 -0.85 L11.95 -1.1 Q12.0 -1.35 11.95 -1.45 11.85 -1.7 11.7 -1.8 11.4 -1.9 11.3 -2.0 L11.05 -2.0 10.65 -1.5 Q10.45 -1.15 10.05 -0.95 9.85 -0.85 9.55 -0.8 9.3 -0.8 9.1 -0.7 L8.8 -0.55 8.45 -0.3 Q8.3 -0.2 8.3 -0.05 M27.1 -4.15 Q27.1 -3.95 27.35 -3.7 27.55 -3.4 27.55 -3.35 L27.5 -3.2 27.4 -3.0 27.0 -3.0 26.8 -2.85 Q26.6 -2.7 26.6 -2.65 L26.5 -2.45 Q26.45 -2.35 26.45 -2.25 26.45 -2.15 26.5 -2.05 L26.55 -1.9 26.6 -1.85 26.65 -2.05 Q26.7 -2.2 26.9 -2.25 27.1 -2.1 27.3 -2.1 27.7 -2.1 27.9 -2.55 28.05 -2.85 28.05 -3.2 28.05 -3.4 27.85 -3.55 27.6 -3.65 27.6 -3.9 L27.6 -4.05 27.9 -4.1 28.05 -4.25 28.05 -4.35 28.0 -4.5 27.9 -4.65 27.65 -4.65 Q27.65 -4.6 27.35 -4.35 L27.1 -4.15 M14.0 2.25 L14.0 2.25 M-4.6 -23.1 L-4.45 -22.8 -4.35 -22.7 -4.05 -22.6 Q-3.65 -22.45 -3.5 -22.4 -3.1 -22.0 -3.1 -21.85 -3.1 -21.8 -3.2 -21.6 L-3.3 -21.45 -3.25 -21.3 Q-3.2 -21.2 -3.2 -21.15 -3.15 -21.0 -3.05 -21.0 -2.85 -21.0 -2.75 -21.2 -2.7 -21.3 -2.65 -21.45 -2.6 -21.3 -2.6 -21.2 -2.6 -21.1 -2.7 -20.85 -2.8 -20.6 -2.85 -20.5 L-3.05 -20.5 -3.2 -20.45 Q-3.5 -20.45 -3.7 -20.7 -3.8 -20.85 -3.8 -20.95 L-3.8 -21.05 -3.95 -21.3 -4.2 -21.7 -4.25 -21.75 -4.4 -21.8 -4.55 -21.75 Q-4.6 -21.7 -4.65 -21.7 -4.4 -21.2 -4.4 -20.9 -4.4 -20.75 -4.5 -20.6 L-4.75 -20.25 -5.0 -20.25 -5.15 -20.05 -5.15 -19.85 Q-5.15 -19.7 -5.05 -19.55 -4.9 -19.4 -4.75 -19.4 -4.65 -19.4 -4.55 -19.55 L-4.45 -19.75 -4.1 -19.7 Q-4.0 -19.6 -4.0 -19.35 -4.0 -19.15 -4.15 -19.05 -4.35 -18.95 -4.35 -18.8 -4.35 -18.75 -4.25 -18.7 L-4.1 -18.55 -4.05 -18.7 Q-4.0 -18.6 -4.0 -18.5 L-4.05 -18.35 -4.15 -18.25 -4.2 -18.25 -4.3 -18.2 Q-4.85 -18.2 -4.95 -18.55 -5.0 -18.7 -4.95 -18.95 -5.0 -19.05 -5.25 -19.2 L-5.6 -19.35 Q-5.7 -19.45 -5.75 -19.55 L-5.8 -19.75 -5.8 -20.0 Q-5.8 -20.25 -5.45 -20.4 -5.05 -20.6 -5.05 -20.75 -5.05 -20.85 -5.5 -21.35 L-5.9 -21.75 Q-6.1 -21.9 -6.5 -21.95 L-6.9 -22.0 -7.05 -21.95 -7.05 -21.7 -7.0 -21.45 Q-7.0 -21.15 -7.05 -21.05 -7.1 -20.95 -7.3 -20.75 L-7.95 -20.55 -8.1 -20.55 Q-8.2 -20.75 -8.2 -20.8 L-8.45 -20.8 -8.5 -20.7 -8.5 -20.3 -8.55 -20.3 -8.6 -20.2 -8.65 -20.3 -8.75 -20.35 -8.75 -20.2 Q-8.8 -20.3 -8.8 -20.45 L-8.85 -20.5 -8.85 -20.7 Q-8.85 -20.9 -8.8 -21.0 L-8.7 -21.05 -8.55 -21.35 -8.3 -21.35 -8.2 -21.1 -8.0 -21.1 Q-7.9 -21.1 -7.7 -21.15 L-7.5 -21.3 Q-7.4 -21.4 -7.4 -21.5 L-7.6 -21.85 Q-7.75 -22.15 -7.75 -22.45 -7.75 -22.85 -7.65 -23.15 -7.45 -23.7 -7.0 -23.5 -6.9 -23.4 -6.85 -23.3 -6.85 -23.25 -6.7 -23.15 -6.55 -23.1 -6.25 -22.75 L-6.2 -22.4 Q-6.05 -22.05 -5.9 -22.05 L-5.55 -22.1 Q-5.35 -22.2 -5.3 -22.35 -5.25 -22.45 -5.3 -22.65 -5.3 -22.85 -5.05 -23.05 -4.85 -23.25 -4.6 -23.1 M-9.35 -21.6 L-9.55 -21.6 Q-9.75 -21.6 -9.8 -21.75 L-9.95 -21.9 -9.95 -22.25 -9.75 -22.25 Q-9.2 -21.9 -9.35 -21.6 M-8.35 -21.25 L-8.35 -21.25 M-8.5 -21.25 L-8.5 -21.25 M-9.5 -18.35 L-9.45 -17.85 Q-9.45 -17.7 -9.6 -17.6 -9.75 -17.5 -9.75 -17.45 -9.75 -17.35 -9.7 -17.3 L-9.65 -17.25 Q-9.3 -17.15 -9.25 -16.65 -9.2 -16.25 -8.9 -16.25 L-8.25 -16.3 Q-8.05 -16.55 -7.7 -16.6 -7.3 -16.65 -7.1 -16.75 -7.0 -16.8 -7.0 -16.9 L-6.95 -16.95 -6.95 -16.8 Q-6.95 -16.5 -7.1 -16.35 L-7.15 -16.4 -7.3 -16.4 -7.75 -16.0 Q-8.25 -15.6 -8.5 -15.6 L-9.2 -15.7 -9.2 -15.95 Q-9.2 -16.15 -9.35 -16.25 -9.55 -16.35 -10.25 -16.4 -10.4 -16.5 -10.4 -16.55 L-10.4 -16.75 Q-10.4 -16.95 -10.25 -17.1 -10.1 -17.2 -10.1 -17.55 -10.15 -17.8 -10.1 -17.95 -10.0 -18.25 -9.75 -18.15 -9.6 -18.5 -9.5 -18.55 L-9.2 -18.5 Q-9.2 -18.4 -9.45 -18.4 L-9.6 -18.25 -9.55 -18.25 -9.5 -18.35 M-6.3 -15.9 L-6.0 -15.85 Q-5.95 -15.85 -5.8 -15.75 L-5.6 -15.75 Q-5.5 -15.85 -5.5 -16.05 -5.5 -16.25 -5.4 -16.35 -5.1 -16.6 -5.15 -16.7 L-5.25 -16.9 -5.25 -17.0 -5.15 -17.05 Q-4.95 -17.0 -4.85 -17.15 -4.75 -17.25 -4.75 -17.4 L-4.85 -17.6 -4.9 -17.85 -4.85 -18.15 Q-4.7 -17.8 -4.7 -17.7 L-4.5 -17.6 -4.4 -17.5 Q-4.4 -17.25 -4.6 -17.0 -4.85 -16.8 -4.85 -16.65 L-4.7 -16.35 Q-4.5 -16.05 -4.5 -15.95 -4.5 -15.85 -4.65 -15.65 -4.85 -15.4 -5.15 -15.4 L-5.65 -15.45 -5.7 -15.55 Q-6.15 -15.6 -6.25 -15.7 L-6.4 -15.7 -6.55 -15.85 -6.5 -15.9 -6.3 -15.9 M-2.55 -19.6 Q-2.7 -19.5 -2.7 -19.4 -2.7 -19.1 -2.4 -19.0 L-1.75 -18.85 Q-0.8 -18.75 -0.8 -17.9 -0.8 -17.75 -0.85 -17.65 -0.95 -17.55 -1.1 -17.55 -1.45 -17.55 -1.55 -17.6 L-1.8 -17.7 -2.0 -17.65 Q-2.25 -17.55 -2.3 -17.25 L-2.25 -16.85 -2.3 -16.8 Q-2.5 -16.8 -2.65 -17.05 -2.75 -17.2 -2.75 -17.35 -2.75 -17.55 -2.65 -17.75 -2.5 -18.0 -2.2 -18.15 L-2.3 -18.3 Q-2.95 -18.45 -3.2 -18.75 -3.35 -18.95 -3.35 -19.25 -3.35 -19.6 -3.25 -19.75 -3.15 -19.95 -2.7 -20.15 -2.45 -20.15 -2.35 -20.05 L-2.25 -19.9 -2.55 -19.6 M-2.65 -19.95 Q-2.7 -19.95 -2.9 -19.8 L-2.95 -19.8 Q-2.85 -19.8 -2.8 -19.85 L-2.65 -19.95 M-0.8 -15.0 L-0.55 -14.55 Q-0.45 -14.3 -0.45 -14.15 L-0.45 -14.05 Q-0.5 -13.95 -0.7 -13.9 L-0.95 -13.9 Q-1.05 -13.95 -1.15 -14.25 -1.25 -14.5 -1.25 -14.65 -1.25 -14.9 -1.15 -15.05 -1.0 -15.3 -0.8 -15.0 M-17.3 -20.6 L-17.35 -20.7 -17.35 -20.6 Q-17.35 -20.55 -17.3 -20.45 L-17.35 -20.55 -17.3 -20.6 M-16.0 -16.4 L-15.95 -16.2 -15.95 -16.25 -16.0 -16.4 M-12.4 -12.8 Q-12.35 -12.65 -12.5 -12.4 -12.65 -12.2 -12.9 -12.15 L-13.2 -12.2 -13.5 -12.5 -13.75 -12.55 -13.95 -12.5 Q-14.0 -12.25 -14.25 -11.9 -14.55 -11.5 -14.55 -11.35 -14.55 -11.25 -14.4 -11.1 -14.25 -10.95 -14.25 -10.75 -14.25 -10.55 -14.35 -10.2 -14.45 -9.8 -14.45 -9.65 -14.45 -9.45 -14.3 -8.9 L-14.05 -8.25 -13.95 -7.9 Q-13.9 -7.8 -13.65 -7.6 -13.45 -7.5 -13.2 -7.3 L-12.85 -6.95 -12.6 -6.95 -12.25 -7.5 Q-12.1 -7.55 -11.95 -7.6 L-11.8 -7.6 -11.65 -7.45 -11.45 -7.3 -10.85 -7.4 Q-10.55 -7.65 -10.55 -8.15 -10.55 -8.4 -10.7 -8.7 -10.8 -9.05 -11.0 -9.3 -11.4 -8.95 -11.85 -8.65 -12.55 -8.8 -12.9 -9.2 -13.2 -9.5 -13.2 -9.85 -13.2 -10.0 -13.35 -10.5 -13.45 -10.95 -13.45 -11.1 -13.45 -11.4 -13.4 -11.55 -13.3 -11.95 -13.0 -11.95 -12.85 -11.95 -12.75 -11.75 L-12.6 -11.5 Q-12.35 -11.5 -12.4 -11.75 L-12.45 -12.05 -12.4 -12.3 Q-12.35 -12.5 -12.15 -12.5 L-12.4 -12.8 M-17.45 -5.85 L-17.3 -5.9 -17.15 -6.0 Q-17.05 -6.1 -17.0 -6.25 -16.9 -6.4 -16.9 -6.45 L-16.95 -6.55 -17.1 -6.7 Q-16.8 -6.9 -16.75 -6.65 -16.65 -6.3 -16.4 -6.25 -16.35 -6.15 -16.35 -6.0 -16.35 -5.85 -16.45 -5.55 L-16.7 -5.4 Q-16.9 -5.3 -17.0 -5.25 L-17.65 -5.25 -17.75 -5.15 -17.5 -4.95 Q-17.35 -4.85 -17.35 -4.75 L-17.35 -4.65 Q-17.35 -4.55 -17.45 -4.5 -17.75 -4.25 -18.7 -4.35 -18.95 -4.4 -19.0 -4.3 L-19.0 -4.15 -18.95 -3.9 -18.85 -3.65 Q-18.85 -3.5 -19.2 -3.3 -19.65 -3.05 -20.1 -3.05 -20.7 -3.05 -20.9 -3.3 L-21.05 -3.6 -21.4 -3.65 -21.6 -3.7 -21.6 -3.75 -21.55 -3.8 -20.45 -3.7 Q-20.05 -3.7 -19.85 -3.8 -19.7 -3.85 -19.7 -3.9 -19.85 -4.05 -20.15 -4.2 -20.3 -4.3 -20.3 -4.5 L-20.3 -4.6 -20.2 -4.6 -19.65 -4.7 -18.6 -4.8 Q-18.4 -4.9 -18.5 -5.25 -18.55 -5.6 -18.3 -5.75 L-17.95 -5.8 -17.45 -5.85 M-12.35 -4.4 Q-12.35 -4.15 -12.25 -4.05 -12.15 -4.0 -12.1 -3.75 -12.1 -3.6 -12.1 -3.25 L-12.05 -3.25 -12.1 -3.2 -12.1 -3.05 Q-12.1 -2.7 -11.9 -2.6 -11.65 -2.55 -11.65 -2.4 -11.65 -2.35 -11.75 -2.0 L-11.8 -1.95 -11.85 -1.8 -11.9 -1.55 -11.85 -1.5 -11.85 -1.15 -11.7 -1.0 Q-11.5 -0.75 -11.5 -0.65 -11.5 -0.55 -11.6 -0.4 -11.75 -0.25 -11.75 -0.1 -11.75 0.0 -11.65 0.1 -11.5 0.15 -11.35 0.15 -11.0 0.15 -10.7 -0.15 L-10.4 -0.55 Q-10.1 -0.55 -9.75 -0.2 -9.4 0.1 -9.15 0.1 L-8.85 -0.1 Q-8.6 -0.35 -8.35 -0.25 L-8.2 -0.6 Q-8.05 -0.9 -7.85 -0.9 L-7.6 -0.9 Q-7.55 -0.9 -7.25 -0.65 L-7.0 -0.65 Q-6.75 -0.7 -6.5 -0.95 -6.3 -1.15 -6.3 -1.3 -6.3 -1.4 -6.35 -1.65 L-6.45 -2.05 Q-6.45 -2.35 -6.2 -2.5 -6.0 -2.65 -6.0 -2.95 -6.0 -3.2 -6.25 -3.45 -6.55 -3.75 -6.55 -4.1 -6.55 -4.35 -6.7 -4.65 L-7.05 -5.15 Q-8.6 -7.3 -9.25 -7.3 -9.8 -7.3 -10.05 -7.05 -10.25 -6.9 -10.25 -6.7 -10.25 -6.45 -10.15 -6.3 -10.05 -6.1 -10.05 -5.95 -10.05 -5.85 -10.15 -5.6 L-10.3 -5.5 Q-10.55 -5.55 -10.7 -5.65 L-10.95 -5.75 -11.25 -5.75 -11.35 -5.65 -11.4 -5.5 Q-11.4 -5.45 -11.35 -5.4 L-11.2 -5.25 -11.2 -5.15 -11.25 -5.1 -11.35 -5.15 -11.65 -5.15 Q-12.05 -5.15 -12.25 -4.8 -12.35 -4.6 -12.35 -4.4 M-17.05 -0.4 L-17.15 -0.2 -17.05 0.3 -17.05 0.55 Q-17.0 0.7 -16.85 0.7 L-16.55 0.7 -16.25 1.0 Q-16.15 1.1 -16.15 1.25 -16.15 1.3 -16.25 1.4 L-16.35 1.6 -16.2 1.65 -16.0 1.7 Q-15.15 1.7 -14.9 1.55 L-14.65 1.15 -14.45 1.15 Q-14.2 1.15 -14.15 1.4 -14.1 1.65 -13.95 1.7 L-13.6 1.65 Q-13.4 1.45 -13.4 1.35 -13.35 1.1 -13.2 1.05 L-13.25 1.3 -13.0 1.5 -12.95 1.6 Q-12.9 1.55 -12.85 1.55 L-12.4 1.55 Q-12.35 1.5 -12.35 1.4 -12.35 1.3 -12.45 1.25 -12.5 1.2 -12.9 1.05 -13.0 1.0 -13.1 0.8 L-13.15 0.7 -13.2 0.75 -13.35 0.75 -13.3 0.8 -13.35 0.85 -13.85 0.6 -13.6 0.45 Q-13.6 0.4 -13.45 0.4 L-13.45 0.35 Q-13.4 0.3 -13.2 0.2 L-13.15 0.2 -13.05 -0.15 -13.0 -0.25 -13.05 -0.4 Q-13.05 -0.5 -12.95 -0.65 L-12.9 -0.75 -12.5 -0.75 Q-12.25 -0.8 -12.2 -1.0 -12.15 -1.1 -12.15 -1.4 L-12.2 -1.65 -12.2 -1.75 -12.25 -1.9 -12.25 -1.85 Q-12.3 -1.85 -12.4 -2.2 -12.55 -2.5 -12.8 -2.5 -12.8 -2.45 -12.85 -2.45 -12.95 -2.45 -13.0 -2.5 -13.5 -2.5 -13.75 -2.25 -13.95 -2.1 -13.95 -1.95 -13.95 -1.75 -13.75 -1.6 -13.55 -1.45 -13.55 -1.2 -13.55 -1.1 -13.65 -0.9 -13.75 -0.7 -13.95 -0.7 -14.2 -0.7 -14.65 -0.95 L-15.05 -1.2 -15.15 -1.15 -15.2 -1.1 Q-15.2 -0.95 -15.35 -0.75 -15.45 -0.55 -15.75 -0.5 L-15.85 -0.5 -15.95 -0.55 -16.0 -0.55 -16.1 -0.35 -16.35 -0.35 -16.5 -0.4 -16.65 -0.65 -16.9 -0.65 -17.05 -0.4 M-5.7 -11.05 Q-5.9 -11.25 -6.1 -11.7 -6.2 -11.75 -6.35 -11.85 L-6.5 -12.0 -6.7 -12.0 -6.75 -11.75 Q-6.8 -11.55 -6.9 -11.5 -7.05 -11.45 -7.35 -11.65 L-7.55 -11.8 -7.7 -11.8 -7.95 -11.85 -8.1 -11.9 -8.35 -11.9 -8.4 -11.85 -8.45 -11.75 Q-8.25 -11.2 -8.25 -11.1 L-8.2 -10.5 -8.2 -10.2 Q-8.2 -10.05 -8.3 -9.95 L-8.55 -9.75 -8.95 -9.4 -9.0 -9.4 -9.0 -9.5 -8.95 -9.6 -9.0 -9.6 -9.1 -9.4 -9.15 -9.25 Q-9.15 -9.05 -9.1 -8.95 -8.9 -8.75 -8.85 -8.55 L-7.85 -8.45 Q-7.85 -8.15 -7.15 -7.8 -6.25 -7.25 -6.05 -7.1 -5.65 -6.7 -4.95 -6.25 -4.1 -5.75 -3.8 -5.75 L-3.25 -5.75 -3.15 -5.95 Q-3.15 -6.0 -3.2 -6.1 L-3.25 -6.25 Q-3.25 -6.45 -3.2 -6.6 -3.1 -6.85 -2.7 -6.75 L-2.7 -6.9 -2.8 -7.1 Q-2.9 -7.35 -2.9 -7.5 L-2.4 -7.5 -2.4 -7.7 Q-2.4 -7.95 -2.65 -8.3 L-3.15 -8.95 Q-3.05 -8.5 -3.05 -7.9 -3.05 -7.85 -3.3 -7.5 L-3.55 -7.15 -4.1 -7.2 -4.45 -7.25 Q-4.55 -7.3 -4.6 -7.5 -4.65 -7.7 -4.7 -7.8 L-4.9 -8.05 -5.15 -8.3 -5.5 -8.1 Q-6.2 -8.35 -6.6 -8.65 -6.8 -8.85 -7.2 -9.3 -7.4 -9.55 -7.45 -9.95 L-7.55 -10.6 -7.55 -11.15 -7.45 -11.2 Q-7.25 -11.2 -7.15 -11.1 L-6.85 -11.15 -6.9 -11.25 Q-6.9 -11.35 -6.75 -11.5 L-6.4 -11.5 -5.8 -11.0 -5.55 -11.0 -5.7 -11.05 M-5.1 3.7 L-5.2 3.6 Q-5.25 3.55 -5.3 3.55 L-5.3 3.6 -5.35 3.6 -5.1 3.7 M-19.65 0.2 L-19.8 0.15 Q-19.85 0.1 -19.9 0.1 L-20.1 0.1 -20.15 0.2 -20.45 0.15 -20.65 0.1 Q-21.2 0.1 -21.2 0.5 -21.2 0.6 -21.1 0.65 L-20.9 0.85 -20.9 0.9 Q-21.1 0.95 -21.15 1.05 L-21.2 1.15 Q-21.2 1.3 -20.95 1.4 L-20.7 1.45 Q-20.2 1.45 -19.95 1.55 L-19.65 1.55 Q-18.95 1.5 -19.05 1.15 L-19.95 1.0 Q-20.05 0.75 -20.05 0.6 -20.1 0.5 -19.95 0.45 L-19.6 0.4 -19.6 0.35 Q-19.55 0.35 -19.55 0.3 -19.55 0.2 -19.6 0.2 L-19.65 0.2" fill="#720000" fill-opacity="0.7490196" fill-rule="evenodd" stroke="none"/>
  </g>
</svg>
