<?xml version="1.0" encoding="UTF-8" standalone="no"?>
<svg xmlns:ffdec="https://www.free-decompiler.com/flash" xmlns:xlink="http://www.w3.org/1999/xlink" ffdec:objectType="shape" height="30.1px" width="29.0px" xmlns="http://www.w3.org/2000/svg">
  <g transform="matrix(1.0, 0.0, 0.0, 1.0, 10.75, 14.9)">
    <path d="M9.95 -11.35 Q9.95 -11.1 9.75 -10.6 9.7 -10.15 9.4 -9.6 9.1 -9.1 8.65 -8.8 8.5 -8.65 8.35 -8.55 L8.2 -8.55 8.2 -8.6 8.15 -8.6 Q8.9 -9.3 9.15 -9.7 9.35 -10.1 9.35 -10.75 9.35 -11.0 9.2 -11.4 L9.0 -11.85 8.95 -11.85 8.7 -12.1 Q8.6 -12.15 8.5 -12.15 L8.35 -12.1 8.15 -12.05 7.8 -11.9 7.5 -11.7 Q7.05 -11.35 6.7 -11.35 6.0 -11.35 5.65 -11.7 5.5 -11.9 5.5 -12.05 5.5 -12.15 5.5 -12.2 L5.55 -12.25 5.65 -12.15 Q6.05 -11.8 6.1 -11.8 7.0 -11.95 8.0 -12.55 8.7 -12.95 8.95 -12.85 9.95 -12.1 9.95 -11.4 L9.95 -11.35 M11.35 -11.1 L11.4 -11.1 11.4 -11.15 11.35 -11.1 M11.5 -11.05 L11.5 -11.1 10.75 -10.35 10.75 -10.4 11.15 -11.1 Q11.45 -11.55 11.7 -11.7 11.95 -11.7 12.2 -11.45 L12.3 -11.35 12.3 -11.3 12.45 -11.05 Q12.5 -10.95 12.7 -10.7 L12.95 -10.45 13.6 -10.35 13.55 -10.25 13.1 -10.1 Q12.65 -10.1 12.45 -10.3 12.35 -10.4 12.3 -10.6 L12.15 -10.9 11.85 -11.2 11.75 -11.2 Q11.65 -11.2 11.55 -11.1 L11.5 -11.05 M8.55 -12.2 L8.5 -12.2 8.6 -12.15 8.55 -12.2 M6.05 -8.6 L5.5 -8.65 5.15 -9.05 Q4.85 -9.4 4.75 -9.4 4.5 -9.5 4.2 -9.75 L3.7 -10.1 3.5 -10.1 3.2 -9.8 3.15 -9.85 3.15 -9.95 Q3.15 -10.1 3.25 -10.2 3.3 -10.35 3.45 -10.4 4.2 -10.35 4.7 -9.95 L5.05 -9.6 5.45 -9.1 Q5.75 -8.85 6.25 -8.8 L6.2 -8.7 6.05 -8.6 M8.3 -8.2 L8.3 -8.25 Q8.4 -8.35 8.5 -8.6 8.6 -8.8 9.0 -8.65 L9.1 -8.55 9.1 -8.5 8.85 -8.5 8.6 -8.55 Q8.45 -8.25 8.45 -8.2 L8.3 -8.2 M7.65 -7.55 Q7.7 -7.65 8.0 -7.55 L8.1 -7.5 8.25 -7.35 Q8.35 -7.3 8.15 -7.3 L7.95 -7.35 7.75 -7.45 7.65 -7.55 M9.1 -8.0 L9.2 -7.85 9.25 -7.7 Q9.25 -7.05 8.8 -7.1 L8.95 -7.25 Q9.05 -7.4 9.05 -7.45 L9.05 -7.65 9.0 -7.8 Q8.6 -7.85 8.55 -7.9 8.55 -7.95 8.7 -8.0 L9.1 -8.0 M5.2 -13.75 L5.0 -13.8 4.95 -13.8 4.45 -13.75 3.75 -13.05 3.3 -12.65 Q3.25 -12.5 3.05 -12.4 L2.95 -12.35 2.85 -12.35 Q2.6 -12.25 2.4 -12.25 L2.15 -12.3 1.8 -12.35 1.75 -12.35 1.4 -12.6 1.05 -12.6 Q0.9 -12.75 0.75 -12.9 L0.65 -12.95 Q0.6 -12.95 0.3 -13.1 0.05 -13.2 -0.05 -13.35 L-0.6 -13.95 -0.7 -14.15 Q-1.0 -14.45 -1.25 -14.45 L-1.55 -14.45 Q-2.7 -13.7 -3.05 -13.0 -3.45 -12.15 -3.95 -11.75 L-4.0 -11.65 -4.05 -11.65 -4.1 -11.6 -4.15 -11.6 -4.15 -11.65 -4.25 -11.7 -3.8 -12.35 Q-3.55 -12.95 -3.05 -13.65 L-3.0 -13.65 Q-3.0 -13.75 -2.7 -14.2 -2.35 -14.65 -2.15 -14.85 L-2.05 -14.85 -2.0 -14.9 -0.9 -14.9 -0.8 -14.85 -0.55 -14.75 -0.55 -14.65 -0.45 -14.6 -0.05 -14.25 0.05 -14.1 0.25 -13.85 Q0.6 -13.35 0.7 -13.2 1.15 -12.75 1.7 -12.75 2.65 -12.75 3.15 -13.2 3.95 -13.95 4.35 -14.15 L4.7 -14.15 4.8 -14.1 5.0 -14.05 5.05 -13.9 5.05 -13.85 5.2 -13.75 M2.55 -12.6 L2.4 -12.55 2.5 -12.6 2.55 -12.6 M4.95 -9.5 L4.9 -9.55 4.8 -9.55 4.95 -9.5 M4.35 -6.45 L4.85 -6.15 Q5.15 -6.0 5.2 -5.7 L5.2 -5.65 Q5.2 -5.6 5.05 -5.6 4.95 -5.6 4.8 -5.75 L4.7 -5.9 Q4.4 -5.85 4.2 -6.0 L3.9 -6.2 3.75 -6.25 3.7 -6.25 Q3.6 -6.25 3.2 -5.9 2.8 -5.5 2.8 -5.4 L2.75 -5.4 2.75 -5.6 2.7 -5.6 2.65 -5.7 Q2.8 -5.85 2.95 -6.3 3.1 -6.5 3.45 -6.6 L3.6 -6.65 3.5 -6.6 4.1 -6.65 Q4.15 -6.6 4.35 -6.45 M4.65 -6.1 L4.65 -6.1 M3.0 -5.95 L3.0 -5.95 M3.95 -3.95 L4.35 -3.65 Q4.6 -3.5 4.9 -3.5 L4.95 -3.5 Q5.1 -3.5 5.2 -3.6 5.4 -3.7 5.55 -3.95 5.8 -4.25 5.8 -4.5 5.8 -4.75 5.6 -5.2 5.9 -5.25 6.0 -4.95 L6.0 -4.5 Q6.0 -4.05 5.65 -3.6 5.35 -3.25 5.0 -3.1 4.4 -3.15 4.2 -3.25 4.1 -3.3 3.9 -3.55 3.75 -3.5 3.55 -3.35 L3.35 -3.35 3.35 -3.45 Q3.45 -3.7 3.65 -3.95 L3.95 -3.95 M5.6 -3.75 L5.6 -3.8 5.55 -3.75 5.6 -3.75 M0.9 -4.55 Q0.85 -4.65 0.75 -4.7 L0.75 -4.65 0.9 -4.55 M0.5 -4.85 L0.85 -4.8 Q1.05 -4.65 1.05 -4.4 L1.05 -4.25 1.0 -3.8 Q0.8 -3.9 0.5 -4.75 L0.5 -4.85 M0.15 -0.65 L-0.15 -0.75 Q-0.7 -0.75 -0.9 -0.6 L-1.1 -0.4 -1.35 -0.35 -1.55 -0.35 -1.6 -0.45 Q-1.5 -0.7 -1.1 -1.0 L-0.55 -1.4 -0.1 -1.4 0.45 -1.1 Q0.75 -0.95 0.65 -0.65 L0.6 -0.6 0.45 -0.55 Q0.35 -0.55 0.15 -0.65 M9.1 -3.05 L9.3 -3.05 Q9.55 -3.05 10.25 -2.2 L10.4 -1.75 10.55 -1.35 Q10.55 -0.95 10.25 -0.3 L9.8 0.75 9.7 0.7 Q9.9 0.2 10.0 -0.2 9.95 -0.2 9.95 -0.3 L10.0 -0.55 Q10.0 -1.3 9.85 -1.8 L9.75 -2.0 Q9.35 -2.45 9.3 -2.85 L9.1 -3.05 M10.1 -1.4 L10.1 -1.4 M10.2 -0.4 L10.2 -0.4 M14.4 -10.05 Q14.4 -10.35 14.65 -10.35 14.85 -10.4 15.1 -10.25 L15.45 -10.25 15.7 -9.8 Q15.9 -9.55 15.95 -9.25 L16.0 -8.95 Q16.0 -8.7 15.9 -8.45 L15.85 -8.2 15.7 -8.0 Q15.4 -7.5 14.8 -7.3 L14.65 -7.25 14.65 -7.4 Q14.65 -7.45 15.05 -7.85 15.45 -8.35 15.45 -8.75 15.45 -9.15 15.4 -9.25 L15.25 -9.6 15.0 -9.85 14.5 -9.95 14.45 -9.95 Q14.4 -9.95 14.4 -10.05 M12.75 -10.3 L12.75 -10.3 M12.4 -10.5 L12.45 -10.3 12.55 -10.3 12.4 -10.5 M12.55 -8.3 L12.35 -8.3 Q12.35 -8.4 12.5 -8.55 L12.65 -8.7 13.1 -8.7 13.3 -8.5 Q13.5 -8.35 13.5 -8.3 13.5 -8.2 13.4 -8.1 13.35 -8.05 13.35 -7.95 13.35 -7.9 13.4 -7.8 13.45 -7.65 13.55 -7.55 L13.6 -7.5 Q13.05 -7.65 13.0 -7.85 12.95 -7.95 13.05 -8.2 13.05 -8.35 12.85 -8.55 12.6 -8.45 12.55 -8.3 M13.1 -8.5 L13.1 -8.5 M15.45 -10.05 L15.4 -10.15 15.25 -10.15 15.45 -10.05 M16.65 -6.55 L16.35 -6.55 Q16.0 -6.45 15.75 -6.25 L15.45 -6.0 Q14.95 -5.55 14.8 -5.55 13.8 -5.55 13.65 -5.75 13.6 -5.95 13.5 -6.0 L13.5 -6.05 Q13.55 -6.1 13.6 -6.1 L13.65 -6.0 13.7 -6.2 13.75 -6.25 13.95 -5.85 Q14.65 -5.95 15.15 -6.2 L15.5 -6.4 15.6 -6.5 15.7 -6.55 16.1 -6.95 Q16.4 -7.1 16.9 -7.1 L17.35 -6.5 Q17.55 -6.2 17.7 -5.85 L17.55 -6.0 17.5 -6.0 17.6 -5.8 17.4 -6.05 Q17.2 -6.15 17.1 -6.35 L16.95 -6.5 16.8 -6.5 16.65 -6.55 M13.5 -1.85 L13.55 -1.75 Q13.7 -1.7 13.75 -1.55 L13.9 -1.25 Q14.0 -1.1 14.2 -1.1 14.3 -1.1 14.3 -1.05 L14.2 -0.95 14.0 -0.95 13.85 -1.2 Q13.7 -1.2 13.5 -1.35 L13.25 -1.6 Q12.6 -1.7 12.35 -1.25 12.2 -1.0 12.2 -0.75 12.2 -0.45 12.25 -0.35 12.35 -0.2 12.6 -0.2 13.0 -0.2 13.1 0.1 L13.2 0.4 13.2 0.6 13.15 0.7 13.2 0.8 13.15 0.75 13.05 1.05 12.95 1.0 13.05 0.8 13.05 0.7 13.0 0.7 12.95 0.45 12.75 0.25 12.55 0.15 12.1 0.15 Q11.95 0.05 11.95 -0.05 L11.9 -0.1 Q11.8 -0.2 11.8 -0.25 L11.8 -0.4 Q11.8 -0.5 11.8 -0.6 11.8 -1.0 12.0 -1.35 L12.15 -1.6 12.15 -1.65 Q12.15 -1.7 12.25 -1.75 L12.5 -2.05 12.65 -2.0 12.8 -2.1 12.95 -2.1 13.05 -2.0 13.5 -1.85 M12.9 -1.85 L12.9 -1.85 M12.1 -0.65 Q12.1 -0.55 12.15 -0.45 L12.1 -0.75 12.1 -0.65 M12.75 -0.05 L12.75 -0.05 M17.35 -0.8 L17.35 -0.85 17.4 -0.85 17.85 -1.4 18.0 -1.65 17.9 -1.9 17.9 -2.0 17.85 -2.05 17.7 -2.4 17.8 -2.4 17.75 -2.45 17.8 -2.45 17.85 -2.4 17.85 -2.45 17.95 -2.45 18.0 -2.3 18.2 -2.0 18.25 -1.85 18.25 -1.7 Q18.25 -1.4 18.0 -1.15 L17.95 -1.1 Q17.75 -0.65 17.65 -0.45 17.35 -0.05 16.75 0.15 L16.55 0.1 16.5 0.1 16.5 0.0 17.3 -0.75 17.35 -0.8 M12.95 0.0 L12.95 0.0 M8.8 1.25 Q8.8 1.3 8.9 1.35 L8.9 1.4 8.4 1.45 8.3 1.45 8.0 1.4 7.95 1.35 7.55 1.3 7.05 1.3 Q7.0 1.35 6.8 1.55 L6.55 1.85 Q6.5 1.9 6.5 1.75 6.5 1.7 6.8 1.2 7.1 0.7 7.2 0.65 7.3 0.6 8.05 0.9 L8.8 1.2 8.8 1.25 M7.1 1.1 L7.1 1.05 7.05 1.1 7.1 1.1 M6.5 2.5 L6.7 2.8 Q6.85 3.05 6.85 3.1 L6.85 3.25 6.8 3.3 6.8 3.45 Q6.85 3.45 6.65 3.45 6.5 3.45 6.45 3.2 6.35 3.0 6.35 2.9 L6.35 2.7 6.4 2.7 6.4 2.65 Q6.45 2.55 6.5 2.5 M6.65 4.65 L6.7 4.65 Q6.85 4.65 7.0 4.85 7.05 5.0 7.05 5.05 7.05 5.3 7.0 5.5 7.0 5.65 7.0 5.75 L6.95 5.8 Q7.05 6.05 7.2 6.25 7.6 6.85 8.75 7.05 L8.65 7.15 8.5 7.2 Q8.05 7.2 7.7 7.05 L7.65 7.05 7.8 7.1 7.8 7.15 7.5 7.15 7.4 7.1 7.25 7.1 6.75 6.65 Q6.6 6.5 6.6 6.25 L6.6 5.95 6.7 5.7 6.75 5.65 6.75 5.25 6.8 5.25 6.8 5.15 6.75 5.05 Q6.6 4.85 6.6 4.75 6.6 4.65 6.65 4.65 M3.25 0.55 L3.05 0.5 Q3.05 0.45 3.05 0.3 L2.8 0.25 Q2.65 0.25 2.65 0.3 L2.7 0.4 Q2.6 0.35 2.55 0.1 2.6 0.05 3.05 0.05 L3.3 0.45 3.25 0.55 M1.65 0.75 L1.65 0.8 1.75 0.85 1.7 1.1 1.6 1.35 1.55 1.55 1.55 1.75 Q1.5 1.7 1.35 1.3 L1.2 1.0 1.1 0.75 1.1 0.6 Q1.3 0.55 1.55 0.65 L1.6 0.75 1.65 0.75 M0.25 0.35 Q0.45 0.5 0.6 0.75 L0.55 0.85 0.45 0.85 0.4 0.9 0.3 0.9 0.2 0.95 0.0 0.95 0.0 0.8 Q-0.1 0.65 -0.1 0.5 -0.1 0.4 -0.05 0.35 L0.0 0.3 0.25 0.35 M1.4 3.0 L1.55 3.45 1.45 3.55 1.2 3.3 Q1.0 3.1 1.0 3.0 1.0 2.9 1.05 2.9 L1.05 2.95 Q1.25 2.75 1.4 3.0 M1.45 4.1 Q1.3 4.25 1.3 4.45 L1.3 4.7 1.25 5.0 1.35 5.6 1.35 5.7 1.5 6.4 1.45 6.45 1.55 6.8 Q1.7 7.2 2.1 7.45 1.4 7.3 1.05 6.25 0.8 5.5 0.8 4.75 0.8 4.6 1.05 4.25 L1.15 4.15 1.15 4.1 Q1.45 3.8 1.65 3.75 L1.7 3.85 1.45 4.1 M4.15 7.05 L3.85 6.95 3.45 6.95 Q3.75 6.55 4.8 6.55 L5.0 6.7 Q5.15 6.7 5.25 6.85 L5.45 7.05 Q5.65 7.25 5.75 7.55 L5.9 8.05 5.95 8.5 Q5.95 8.85 5.8 9.2 L5.45 10.0 5.3 10.35 Q5.2 10.55 5.0 10.75 L4.7 11.05 4.3 11.2 Q4.05 11.25 4.2 11.3 3.75 11.25 3.65 11.2 L3.5 11.1 Q3.35 11.1 3.2 11.15 L3.0 11.2 Q2.3 11.2 2.1 11.0 1.95 10.8 1.8 10.7 1.95 10.75 2.1 10.9 2.3 11.0 2.85 11.0 2.95 11.0 2.95 10.95 L3.0 10.85 3.6 10.95 Q3.8 10.95 4.1 10.8 4.35 10.65 4.6 10.6 L4.9 10.3 Q4.95 10.15 5.15 9.8 L5.35 9.35 5.45 9.15 5.5 8.75 5.5 8.15 5.25 7.7 5.1 7.45 Q4.8 7.15 4.25 7.1 L4.25 7.05 4.15 7.05 M4.75 6.75 L4.85 6.75 4.8 6.7 4.75 6.75 M5.4 7.0 L5.6 7.3 5.6 7.35 Q5.5 7.05 5.45 7.0 L5.4 7.0 M5.0 10.55 L5.0 10.55 M0.05 8.95 L0.45 9.05 Q0.6 9.15 0.7 9.5 0.4 9.6 -0.05 9.45 L-0.25 9.45 Q-0.35 9.5 -0.4 9.55 L-0.5 9.65 Q-0.55 9.7 -0.65 9.7 -0.8 9.7 -0.8 9.65 L-0.85 9.65 -1.1 9.6 -1.1 9.45 Q-1.1 9.25 -1.05 9.05 -0.9 8.8 -0.7 8.75 L-0.4 8.8 -0.2 8.85 0.05 8.9 0.05 8.95 M0.1 9.4 L0.1 9.4 M0.05 12.45 L-0.35 12.15 -0.5 11.65 Q-0.6 11.3 -0.6 11.2 L-0.55 11.2 -0.45 11.6 Q-0.35 11.95 -0.25 11.95 0.0 11.95 0.25 12.4 0.45 12.75 0.45 12.9 0.45 13.1 0.3 13.25 0.1 13.3 0.1 13.35 L0.0 13.3 0.1 13.05 0.1 12.75 Q0.1 12.5 0.05 12.45 M0.3 12.7 L0.3 13.0 0.35 13.0 Q0.4 12.85 0.3 12.7 M-2.0 -14.45 L-2.05 -14.4 -1.7 -14.6 -1.75 -14.55 -1.9 -14.55 -2.0 -14.45 M-1.3 -14.6 L-1.2 -14.6 -1.25 -14.65 -1.3 -14.6 M-5.6 -11.0 L-5.35 -10.75 Q-5.35 -10.7 -5.45 -10.65 L-5.5 -10.55 -5.65 -10.6 -6.0 -10.65 -6.05 -10.65 -6.25 -10.55 -6.2 -10.65 -6.25 -10.65 Q-6.45 -10.45 -6.75 -9.65 -7.0 -8.95 -7.0 -8.8 -7.0 -8.75 -6.75 -8.2 L-6.45 -7.7 Q-6.35 -7.65 -6.2 -7.55 L-5.65 -7.35 Q-5.45 -7.25 -5.25 -7.2 L-5.1 -7.25 Q-5.0 -7.25 -4.95 -7.2 L-5.0 -7.15 -4.9 -7.15 -4.95 -7.0 -5.4 -7.0 -5.35 -6.95 -5.35 -6.9 -5.45 -6.85 -5.6 -6.85 Q-5.7 -6.8 -5.8 -6.8 L-6.1 -6.85 -6.3 -6.85 -6.35 -6.9 -6.4 -6.9 -6.65 -6.95 -6.95 -7.05 Q-7.1 -7.15 -7.2 -7.35 L-7.25 -7.65 -7.25 -7.8 -7.3 -7.95 -7.2 -8.75 Q-7.15 -8.85 -7.2 -9.1 L-7.25 -9.5 -7.15 -9.9 -7.0 -10.3 -6.95 -10.5 Q-6.9 -10.6 -6.8 -10.65 L-6.65 -10.65 Q-6.35 -10.95 -5.9 -11.05 L-5.7 -11.0 -5.6 -11.0 M-2.9 -9.25 Q-2.85 -9.3 -2.75 -9.3 -2.5 -9.25 -2.35 -9.1 -2.15 -9.0 -2.15 -8.9 L-2.2 -8.65 -2.2 -8.6 -2.5 -8.65 -2.65 -8.95 Q-2.8 -9.1 -2.95 -9.1 L-2.9 -9.25 M-1.85 -8.25 L-1.6 -8.2 -1.4 -8.0 -1.45 -7.4 -1.55 -7.4 -1.7 -7.35 Q-1.75 -7.45 -1.7 -7.65 -1.75 -7.85 -2.05 -7.75 L-2.1 -7.8 -2.1 -7.95 -2.0 -8.05 -1.85 -8.25 M-2.3 -7.65 L-2.4 -7.65 -2.45 -7.8 -2.4 -7.85 -2.25 -7.8 Q-2.25 -7.75 -2.3 -7.65 M-1.75 -7.25 L-1.7 -7.3 Q-1.35 -7.3 -1.15 -7.05 L-1.05 -7.05 Q-0.95 -6.95 -0.85 -6.45 -0.75 -6.1 -0.75 -6.0 -0.75 -5.7 -0.85 -5.55 -0.9 -5.35 -1.2 -5.15 L-1.15 -6.15 Q-1.3 -6.75 -2.05 -7.15 -2.3 -7.15 -2.55 -7.0 -2.7 -6.9 -2.8 -6.75 -2.95 -6.75 -3.0 -6.7 L-3.65 -6.7 -3.85 -7.0 -3.75 -7.05 Q-3.65 -6.9 -3.55 -6.85 L-3.05 -6.9 -2.35 -7.35 -1.75 -7.2 -1.75 -7.25 M-9.35 -8.35 Q-9.2 -8.6 -9.0 -8.5 -8.8 -8.4 -8.7 -8.15 L-8.8 -8.0 Q-9.1 -8.0 -9.2 -8.1 L-9.35 -8.35 M-8.9 -8.15 L-8.9 -8.2 Q-8.95 -8.35 -9.1 -8.3 L-9.05 -8.25 Q-8.95 -8.2 -8.9 -8.15 M-9.5 -8.35 L-9.5 -8.2 -9.75 -8.2 -9.8 -8.3 Q-9.8 -8.4 -9.7 -8.45 -9.5 -8.4 -9.5 -8.35 M-6.7 -7.7 L-6.7 -7.7 M-6.0 -4.1 L-5.75 -4.1 Q-5.65 -4.0 -5.65 -3.85 -5.65 -3.75 -5.65 -3.7 L-5.75 -3.6 Q-5.85 -3.7 -5.9 -3.9 L-6.0 -4.1 M-7.1 -2.15 L-7.15 -2.25 Q-7.3 -2.4 -7.7 -2.55 L-7.65 -2.7 -7.05 -2.6 Q-6.85 -2.55 -6.75 -2.3 -6.65 -1.95 -6.55 -1.85 L-6.0 -1.9 Q-5.85 -1.95 -5.75 -2.15 -5.7 -2.35 -5.75 -2.45 L-5.7 -2.45 -5.65 -2.4 -5.65 -2.3 Q-5.65 -2.1 -5.8 -1.95 -5.9 -1.85 -6.2 -1.6 L-6.7 -1.65 -6.95 -1.75 Q-7.05 -1.8 -7.05 -1.95 L-7.1 -2.05 -7.1 -2.15 M-6.45 -0.2 Q-6.45 -0.75 -5.6 -1.2 -5.25 -1.35 -5.05 -1.4 -4.75 -1.4 -4.75 -1.2 -4.75 -1.0 -5.4 -0.55 -5.9 -0.15 -6.2 0.0 L-6.45 -0.2 M-5.9 -0.9 L-5.9 -0.9 M-0.9 -5.85 L-1.0 -5.8 -0.95 -5.75 -0.95 -5.7 Q-0.9 -5.7 -0.9 -5.8 L-0.9 -5.85 M-5.7 -4.85 L-5.45 -4.85 -5.35 -4.75 Q-5.25 -4.7 -5.25 -4.55 L-5.3 -4.4 -5.3 -4.35 -5.5 -4.35 -5.6 -4.55 -5.75 -4.8 -5.7 -4.85 M-5.2 -4.1 L-5.15 -4.1 -5.15 -3.85 -5.25 -3.85 -5.25 -4.1 -5.2 -4.1 M-4.65 -3.65 L-4.55 -3.75 Q-3.85 -3.85 -3.55 -3.35 -3.35 -3.0 -3.35 -2.6 -3.35 -2.55 -3.4 -2.4 -3.5 -2.2 -3.65 -2.05 -3.65 -2.1 -3.65 -2.2 L-3.65 -2.45 Q-3.65 -2.65 -3.8 -2.95 L-3.95 -3.3 -4.0 -3.35 -4.2 -3.5 -4.6 -3.55 -4.65 -3.65 M-4.9 -1.2 L-4.95 -1.2 -4.9 -1.15 -4.9 -1.2 M-3.4 -1.6 L-3.2 -1.6 Q-3.1 -1.6 -3.0 -1.5 L-3.0 -1.4 Q-3.0 -1.35 -3.15 -1.35 -3.3 -1.35 -3.15 -1.35 L-3.35 -1.4 -3.4 -1.6 M-4.3 -0.6 L-4.45 -0.8 Q-4.45 -1.05 -4.05 -1.1 -3.6 -1.1 -3.6 -0.65 -3.6 -0.55 -3.65 -0.5 L-3.75 -0.4 -4.1 -0.45 -4.3 -0.6 M-2.15 -1.95 L-1.85 -1.9 -1.65 -1.85 -1.6 -1.8 Q-1.55 -1.8 -1.55 -1.7 L-1.55 -1.3 -1.6 -1.3 -1.7 -1.25 -1.9 -1.55 Q-2.0 -1.7 -2.2 -1.75 L-2.2 -1.85 -2.15 -1.95 M-1.85 2.5 Q-1.5 2.15 -1.35 2.05 -1.05 1.95 -0.8 2.35 -1.0 2.55 -1.2 2.55 L-1.65 2.6 Q-1.75 2.55 -1.85 2.5 M-0.7 2.95 L-0.7 2.85 Q-0.45 2.7 -0.3 2.95 -0.15 3.15 -0.15 3.35 L-0.2 3.6 -0.45 3.25 Q-0.65 2.95 -0.7 2.95 M-4.1 0.7 Q-3.95 0.7 -3.85 0.8 L-3.7 0.95 -3.75 1.05 Q-3.8 1.1 -3.9 1.1 L-4.0 1.0 -4.1 0.85 -4.1 0.7 M-4.75 0.55 Q-4.7 0.55 -4.7 0.65 -4.7 0.75 -5.0 1.05 L-5.35 1.05 -5.5 0.9 -5.5 0.8 -5.15 0.65 -4.8 0.55 -4.75 0.55 M-4.9 4.2 L-5.05 4.15 -5.35 4.1 Q-5.6 4.1 -5.8 4.3 L-6.0 4.55 Q-6.0 4.8 -5.95 4.8 L-5.75 4.8 Q-5.65 4.8 -5.55 5.0 L-5.45 5.15 Q-5.45 5.35 -5.45 5.25 L-5.45 5.3 Q-5.5 5.25 -5.6 5.05 -5.65 4.9 -5.75 4.95 -5.85 5.0 -6.0 4.9 -6.1 4.8 -6.1 4.7 -6.1 4.4 -5.8 4.2 -5.4 3.9 -4.9 4.15 L-4.9 4.2 M-5.45 5.9 Q-5.45 6.05 -5.8 6.6 -6.15 7.1 -6.25 7.2 L-6.6 7.15 -6.85 7.1 Q-6.9 7.05 -6.9 6.95 L-6.7 6.85 -6.35 6.85 -5.65 6.25 Q-5.5 6.05 -5.5 5.6 L-5.45 5.6 Q-5.45 5.7 -5.45 5.9 M-10.4 4.35 L-10.4 3.95 -10.35 3.95 -10.15 4.65 Q-10.1 4.9 -10.1 5.15 L-10.15 5.25 Q-10.1 5.5 -10.05 6.0 -9.9 6.5 -9.2 6.8 L-9.1 6.8 -9.05 6.85 -8.2 6.75 -8.1 6.75 -8.2 6.85 Q-8.7 6.9 -8.75 6.95 L-9.65 6.9 -9.75 6.85 Q-10.15 6.75 -10.35 6.45 L-10.55 6.25 -10.6 6.15 Q-10.75 5.9 -10.75 5.7 -10.75 5.55 -10.7 5.45 L-10.6 5.3 Q-10.5 5.05 -10.25 5.0 -10.25 4.85 -10.3 4.7 L-10.4 4.35 M-10.25 5.4 L-10.3 5.4 -10.3 5.45 -10.25 5.4 M-0.7 8.85 L-0.8 8.95 -0.55 8.85 -0.7 8.85 M-4.4 12.75 Q-4.4 12.8 -4.4 12.9 L-4.45 13.15 Q-4.45 13.4 -3.9 14.1 L-3.45 14.65 Q-3.0 14.9 -2.3 14.85 -2.25 14.85 -2.25 14.95 L-2.25 15.2 -3.2 15.2 -3.35 15.1 Q-3.65 15.0 -3.9 14.85 -4.2 14.55 -4.2 14.3 L-4.15 14.2 -4.2 14.05 Q-4.25 13.8 -4.4 13.55 -4.6 13.25 -4.6 13.05 -4.6 12.95 -4.5 12.85 L-4.45 12.75 -4.4 12.75 M-2.35 15.1 L-2.35 15.05 -2.5 15.15 -2.35 15.1 M-2.95 15.15 L-2.95 15.15" fill="#720000" fill-opacity="0.7490196" fill-rule="evenodd" stroke="none"/>
  </g>
</svg>
