<?xml version="1.0" encoding="UTF-8" standalone="no"?>
<svg xmlns:ffdec="https://www.free-decompiler.com/flash" xmlns:xlink="http://www.w3.org/1999/xlink" ffdec:objectType="shape" height="33.0px" width="15.15px" xmlns="http://www.w3.org/2000/svg">
  <g transform="matrix(1.0, 0.0, 0.0, 1.0, 7.05, 0.0)">
    <path d="M7.6 0.0 L7.85 0.05 Q8.05 0.15 8.1 0.35 L8.05 0.5 7.95 0.6 7.85 0.65 Q7.6 0.65 7.6 0.25 L7.6 0.0 M4.9 1.65 L5.05 1.85 4.95 2.05 4.8 2.1 Q4.6 2.1 4.55 1.95 4.5 1.85 4.5 1.75 4.5 1.6 4.55 1.6 L4.6 1.55 Q4.8 1.55 4.9 1.65 M4.1 5.35 Q4.1 5.65 3.7 5.65 3.45 5.65 3.3 5.4 3.2 5.2 3.2 4.95 L3.7 4.9 4.05 5.0 4.1 5.1 4.1 5.35 M2.9 14.95 L2.65 14.9 Q2.5 14.75 2.5 14.55 2.5 14.3 2.75 14.35 2.95 14.45 2.95 14.8 L2.9 14.95 M6.4 12.7 Q6.35 12.7 6.3 12.75 L6.1 12.75 6.05 12.65 6.25 12.25 6.4 12.3 6.45 12.3 6.5 12.45 6.45 12.65 6.4 12.7 M4.4 16.65 L5.0 16.65 5.05 16.75 Q5.1 16.75 5.1 16.9 5.1 17.05 5.05 17.1 L5.0 17.15 4.55 17.25 4.35 17.2 4.3 17.05 Q4.25 17.0 4.25 16.85 4.25 16.7 4.3 16.7 L4.3 16.75 4.4 16.65 M2.6 25.35 L2.3 25.45 2.15 25.7 Q2.1 25.65 2.05 25.5 L1.95 25.3 Q1.95 24.8 2.45 24.85 2.9 24.9 3.1 25.3 L3.05 25.4 2.75 25.3 2.6 25.35 M1.05 31.65 L1.1 31.8 Q1.1 32.0 0.95 32.15 L0.7 32.4 Q0.6 32.5 0.6 32.3 L0.65 32.05 0.75 31.8 1.05 31.65 M0.35 32.8 Q0.2 33.0 0.05 33.0 L-0.15 32.95 -0.25 32.85 Q-0.3 32.7 -0.3 32.55 L0.05 32.5 0.45 32.5 Q0.4 32.65 0.35 32.8 M-1.2 25.0 Q-1.25 25.2 -1.35 25.2 -1.75 25.2 -1.95 24.8 -2.05 24.6 -2.05 24.35 -2.05 23.6 -1.6 24.05 -1.45 24.2 -1.3 24.4 L-1.15 24.65 Q-1.15 24.85 -1.2 25.0 M-6.2 30.5 L-6.3 30.5 Q-6.5 30.5 -6.65 30.2 L-6.85 29.7 -6.95 29.25 -7.05 28.75 Q-6.8 28.5 -6.7 28.8 -6.65 29.0 -6.6 29.3 -6.5 29.55 -6.2 30.4 L-6.2 30.5 M-4.95 31.6 L-5.1 31.65 -5.5 31.55 -5.6 31.5 -5.7 31.25 -5.3 31.3 Q-5.0 31.4 -4.9 31.5 L-4.95 31.6" fill="#260000" fill-opacity="0.7490196" fill-rule="evenodd" stroke="none"/>
  </g>
</svg>
