<?xml version="1.0" encoding="UTF-8" standalone="no"?>
<svg xmlns:ffdec="https://www.free-decompiler.com/flash" xmlns:xlink="http://www.w3.org/1999/xlink" ffdec:objectType="shape" height="33.15px" width="14.95px" xmlns="http://www.w3.org/2000/svg">
  <g transform="matrix(1.0, 0.0, 0.0, 1.0, 7.1, -0.25)">
    <path d="M7.6 0.85 L7.6 0.9 Q7.55 0.9 7.55 0.7 7.55 0.65 7.65 0.5 7.7 0.35 7.8 0.25 7.85 0.4 7.85 0.7 L7.8 0.9 7.6 0.85 M4.6 1.8 L4.75 1.85 4.9 2.1 Q4.9 2.2 4.85 2.25 L4.65 2.25 Q4.65 2.2 4.55 2.15 4.5 2.3 4.5 2.0 4.5 1.8 4.55 1.8 L4.6 1.8 M3.9 5.5 L3.9 5.7 Q3.9 5.95 3.9 5.9 L3.65 6.0 Q3.45 6.0 3.45 5.9 3.45 6.05 3.45 5.75 3.45 5.6 3.5 5.55 L3.6 5.45 3.85 5.45 3.9 5.5 M2.95 15.15 L2.75 15.1 2.65 14.95 Q2.6 14.8 2.55 14.8 L2.55 14.65 Q2.9 14.45 3.0 15.0 L2.95 15.15 M6.2 12.85 Q6.15 13.0 6.15 12.7 L6.15 12.5 6.3 12.5 Q6.4 12.6 6.4 12.8 L6.35 12.9 6.2 12.85 M4.45 17.1 L4.6 17.1 4.75 17.15 4.75 17.1 4.8 17.25 Q4.8 17.55 4.75 17.5 4.7 17.5 4.65 17.55 L4.5 17.6 4.35 17.5 Q4.3 17.7 4.3 17.4 4.3 17.2 4.35 17.15 L4.45 17.1 M2.8 25.7 L2.75 25.8 Q2.2 25.9 2.05 26.4 L1.95 26.35 Q1.9 26.3 1.9 26.1 1.9 25.75 2.05 25.55 2.3 25.25 2.8 25.65 L2.8 25.7 M0.8 32.7 L0.8 32.8 Q0.8 33.05 0.6 33.2 L0.3 33.4 0.15 33.4 0.1 33.2 0.35 32.85 0.5 32.65 0.8 32.7 M-2.1 24.65 Q-1.8 24.65 -1.6 24.8 -1.4 24.95 -1.4 25.3 -1.4 25.6 -1.4 25.55 L-1.45 25.55 -1.45 25.6 -1.8 25.6 -2.1 25.0 -2.1 24.65 M-7.0 29.55 Q-7.0 29.6 -7.0 29.75 L-6.95 29.95 -6.75 30.0 Q-6.35 30.65 -6.1 31.3 L-6.1 31.35 -6.2 31.4 Q-6.35 31.4 -6.55 31.2 L-6.85 30.9 -7.0 30.2 Q-7.15 29.8 -7.1 29.55 L-7.0 29.55 M-5.5 31.7 L-5.6 31.75 Q-5.75 31.75 -5.8 31.65 L-5.5 31.6 -5.5 31.7" fill="#260000" fill-opacity="0.7490196" fill-rule="evenodd" stroke="none"/>
  </g>
</svg>
