<?xml version="1.0" encoding="UTF-8" standalone="no"?>
<svg xmlns:ffdec="https://www.free-decompiler.com/flash" xmlns:xlink="http://www.w3.org/1999/xlink" ffdec:objectType="shape" height="29.3px" width="21.15px" xmlns="http://www.w3.org/2000/svg">
  <g transform="matrix(1.0, 0.0, 0.0, 1.0, 7.7, -4.85)">
    <path d="M0.3 29.95 Q0.75 29.8 0.85 29.8 L1.15 29.85 1.4 30.0 Q0.8 32.85 -0.1 33.7 -0.6 34.15 -1.85 34.15 L-2.9 34.15 -2.9 33.3 -3.75 32.6 Q-4.15 32.25 -4.15 31.65 -4.05 31.05 -3.9 30.75 -3.7 30.1 -3.2 30.1 L-2.75 30.15 Q-2.55 30.25 -2.4 30.75 L-1.35 30.85 -1.3 31.1 -0.9 31.15 Q-0.6 31.15 -0.55 31.0 L-0.35 30.25 0.3 29.95 M11.65 17.65 L11.85 17.6 Q11.95 17.8 11.95 18.1 12.15 18.2 11.85 18.2 11.65 18.2 11.6 18.1 L11.55 17.9 11.6 17.75 11.65 17.65 M0.15 27.6 L0.25 27.75 Q0.45 28.15 0.3 28.55 0.2 28.9 -0.05 28.9 -0.1 28.9 -0.65 28.5 L-0.75 28.2 Q-0.7 28.05 -0.5 27.8 -0.25 27.55 -0.15 27.55 0.05 27.55 0.15 27.6 M11.05 18.7 L11.5 18.35 Q11.7 18.35 11.75 18.4 L11.8 18.55 11.85 19.0 Q11.75 19.15 11.6 19.25 11.4 19.4 11.3 19.4 11.1 19.4 11.1 19.35 L11.05 19.3 11.05 18.7 M1.35 5.15 Q1.85 5.3 2.15 5.55 2.3 5.4 2.45 5.4 2.7 5.4 2.9 5.5 L3.25 5.5 Q3.75 5.55 4.0 5.95 4.45 6.05 4.85 6.5 L5.65 7.45 6.6 8.45 Q6.85 8.5 7.05 8.85 7.45 9.55 7.45 11.3 7.45 11.95 7.6 12.85 8.05 13.35 8.3 13.65 8.6 14.05 8.65 15.25 8.5 15.3 8.55 16.05 8.65 16.85 8.65 16.9 L8.4 17.5 Q8.35 17.65 8.1 17.95 7.8 18.3 7.8 18.4 7.65 18.6 7.05 19.1 6.4 19.6 6.2 19.6 5.95 19.6 5.4 19.25 4.8 18.95 4.65 18.95 4.5 18.95 4.2 19.25 3.95 19.55 3.75 19.55 L3.6 19.55 3.65 19.6 Q3.75 20.15 3.95 20.5 L4.75 21.15 4.75 21.85 4.7 22.35 Q4.4 22.8 3.95 23.0 3.35 23.2 3.1 23.45 L2.6 24.4 2.4 24.65 2.8 24.55 Q3.15 24.5 3.85 24.1 4.5 23.65 4.55 23.65 4.9 23.65 5.2 23.9 L5.85 24.5 5.9 24.85 Q5.75 25.05 5.7 25.4 5.55 26.0 5.5 27.0 4.5 27.4 4.2 27.45 3.85 27.55 3.35 28.05 2.9 28.6 2.7 28.6 2.55 28.6 2.3 28.5 L1.95 28.35 1.45 28.15 1.0 27.9 1.0 27.05 Q1.0 26.85 1.05 26.6 L1.1 26.3 Q1.2 26.1 1.4 25.95 1.6 25.8 1.85 25.15 L1.95 24.95 1.65 25.0 1.5 24.95 1.2 25.45 Q1.05 25.75 0.85 25.95 0.65 26.1 0.5 26.1 L-0.4 26.2 -0.8 26.2 Q-0.95 26.65 -1.2 27.0 -1.45 27.45 -1.7 27.45 -3.35 27.0 -3.45 26.9 -3.55 26.4 -3.8 26.05 -4.05 25.8 -4.05 25.3 -4.05 24.6 -4.15 24.6 -4.2 24.5 -4.8 24.2 L-4.9 23.65 Q-5.1 23.7 -5.45 23.5 L-5.75 23.3 Q-5.9 22.75 -6.05 22.35 L-6.1 21.4 Q-6.2 21.35 -6.2 20.85 -6.15 20.55 -5.75 20.25 L-5.55 20.1 -5.9 20.05 Q-6.35 19.9 -6.65 19.6 -6.75 19.5 -7.0 19.0 L-7.25 18.4 Q-7.4 18.1 -7.55 16.9 -7.7 15.8 -7.7 15.35 -7.7 14.75 -7.2 14.0 -6.65 13.2 -6.55 12.55 L-6.55 9.0 Q-6.5 7.4 -6.2 6.95 L-5.55 6.4 Q-5.15 6.0 -4.7 5.25 -4.4 4.85 -3.9 4.85 L-3.6 4.9 -3.5 4.9 -3.5 4.95 -3.15 4.95 -2.8 5.2 -2.1 5.0 -0.45 4.85 Q0.4 4.85 1.35 5.15 M12.55 13.85 Q12.6 13.8 12.9 13.8 13.2 13.8 13.0 13.85 13.05 13.85 13.05 14.15 13.05 14.45 12.5 15.15 12.0 15.85 11.8 15.85 11.55 15.85 11.25 15.55 10.9 15.2 10.8 14.65 11.05 14.5 11.5 14.55 12.1 14.4 12.2 14.15 12.25 14.05 12.2 13.95 L12.5 13.9 Q12.55 13.85 12.55 13.95 L12.55 13.85 M12.85 13.3 L12.8 13.3 12.75 13.25 Q12.7 13.2 12.7 13.0 L13.05 12.35 13.4 12.6 13.45 12.9 Q13.5 13.1 13.35 13.25 13.25 13.35 13.0 13.35 L12.85 13.3 M-1.9 21.0 L-2.1 21.35 -1.9 21.55 Q-1.75 21.65 -1.65 21.65 -1.25 21.65 -1.2 21.3 -1.15 20.9 -1.55 20.8 -1.65 20.8 -1.9 21.0 M-2.7 28.6 Q-2.7 28.75 -2.8 28.8 -3.15 28.8 -3.2 28.55 -3.2 28.5 -3.1 28.45 -3.0 28.4 -2.9 28.4 L-2.7 28.6 M-6.95 25.3 L-6.3 25.0 Q-5.7 24.7 -5.8 24.0 L-5.55 23.6 Q-5.25 23.7 -4.9 24.35 -4.65 24.75 -4.25 25.5 L-4.25 26.4 Q-4.8 26.7 -4.95 26.8 L-5.05 27.4 Q-5.15 27.8 -5.2 28.1 -5.4 28.3 -5.95 28.5 -6.4 28.6 -6.65 28.6 -7.0 28.6 -7.5 27.8 L-7.5 27.5 Q-7.4 27.4 -7.35 27.05 -7.25 26.85 -7.05 26.95 L-7.1 26.6 Q-7.25 26.6 -7.4 26.5 L-7.55 26.3 -7.5 25.75 Q-7.35 25.5 -6.95 25.3" fill="#ffffff" fill-opacity="0.5019608" fill-rule="evenodd" stroke="none"/>
  </g>
</svg>
