<?xml version="1.0" encoding="UTF-8" standalone="no"?>
<svg xmlns:ffdec="https://www.free-decompiler.com/flash" xmlns:xlink="http://www.w3.org/1999/xlink" ffdec:objectType="shape" height="6.15px" width="5.4px" xmlns="http://www.w3.org/2000/svg">
  <g transform="matrix(1.0, 0.0, 0.0, 1.0, 3.0, -1.25)">
    <path d="M1.15 3.45 L1.15 3.55 Q1.15 3.6 1.15 3.65 L1.1 3.65 Q1.1 3.5 1.1 3.25 L1.1 3.35 1.2 3.4 1.2 3.45 1.15 3.45 M0.8 2.7 L0.8 2.75 Q0.75 2.7 0.75 2.6 L0.8 2.6 0.8 2.7 M1.85 3.45 L1.7 3.35 1.65 3.2 1.85 3.45 M2.4 4.0 L2.35 4.05 Q2.05 4.4 2.0 4.45 L1.9 4.8 Q1.8 5.05 1.8 5.15 L1.85 5.55 Q1.75 5.65 1.55 5.75 1.35 5.8 1.25 5.9 L1.25 5.85 1.55 5.65 1.65 5.6 1.55 5.6 1.6 5.55 Q1.6 5.5 1.55 5.5 L1.55 5.5 1.5 5.45 1.25 5.45 0.95 5.55 Q0.85 5.55 0.85 5.6 L0.85 5.55 0.9 5.5 1.05 5.4 1.2 5.2 Q1.0 5.15 0.85 5.15 L0.75 5.15 0.6 5.25 0.5 5.4 0.4 5.5 0.35 5.85 Q0.3 5.75 0.4 5.55 L0.55 5.25 Q0.6 5.1 0.7 5.1 0.8 4.95 0.75 4.45 0.75 4.15 0.85 4.05 L0.9 3.9 0.95 3.85 0.95 3.8 1.0 3.8 1.05 3.7 1.05 3.85 1.15 3.95 1.3 3.95 1.65 3.9 2.25 3.9 2.15 3.75 Q2.05 3.55 2.0 3.45 L2.4 3.95 2.4 4.0 M0.65 4.75 L0.7 4.75 0.65 4.8 0.7 4.9 Q0.7 5.0 0.6 5.05 L0.45 5.25 0.35 5.3 0.25 5.75 Q0.15 6.1 0.05 6.1 -0.15 6.1 -0.2 5.9 -0.35 5.6 -0.45 5.5 L-0.65 5.2 -0.8 5.05 -0.95 4.95 -1.0 4.85 -1.25 4.6 -1.15 4.65 -1.4 4.45 Q-1.2 4.55 -0.9 4.75 L-0.9 4.8 -0.65 4.85 -0.2 4.85 -0.05 4.9 0.2 4.85 0.3 4.8 Q0.5 4.75 0.6 4.7 L0.6 4.4 0.65 4.75 M0.4 6.95 Q0.3 7.2 0.3 7.3 0.25 7.15 0.35 6.9 0.4 6.7 0.55 6.6 L0.4 6.95 M0.1 6.75 L0.15 7.0 0.25 7.15 0.25 7.2 0.3 7.25 Q0.3 7.3 0.25 7.3 L0.15 7.25 0.1 7.2 0.0 7.2 -0.2 7.15 -0.05 7.15 0.05 6.95 0.05 6.85 0.0 6.5 0.1 6.75 M-1.2 1.55 L-1.5 1.4 -1.7 1.35 -1.5 1.35 -1.0 1.45 -1.0 1.4 -0.9 1.4 -0.85 1.65 -0.85 1.85 -0.8 2.05 -0.85 2.2 -0.85 2.3 Q-0.85 2.15 -0.9 2.0 L-0.9 2.05 -1.0 1.85 -1.2 1.6 -1.2 1.55 M-2.1 1.3 L-2.05 1.35 -2.05 1.45 -2.15 1.35 -2.15 1.3 -2.1 1.25 -2.1 1.3 M-2.75 3.15 Q-2.7 3.15 -2.7 3.25 L-2.7 3.3 -2.75 3.3 -2.75 3.15 M-0.9 2.55 L-0.9 2.55 M-0.95 2.5 L-0.95 2.5 M-3.0 3.9 L-3.0 3.85 -2.95 3.85 -2.95 3.8 -2.9 3.8 -2.8 3.7 Q-2.8 3.65 -2.8 3.75 -2.8 3.8 -2.85 3.85 L-2.15 3.95 -1.7 4.05 -1.65 3.95 Q-1.7 3.9 -2.0 3.75 -2.4 3.5 -2.5 3.4 L-2.05 3.6 Q-1.8 3.75 -1.6 3.9 L-1.45 3.8 -1.55 4.0 -1.55 4.05 -1.65 4.25 -1.65 4.35 -1.4 4.55 Q-1.2 4.75 -1.15 4.9 -1.2 4.8 -1.45 4.65 L-1.5 4.6 Q-1.8 4.75 -2.1 5.1 -2.35 5.35 -2.4 5.55 L-2.4 5.6 -2.5 5.6 -2.5 5.55 -2.55 5.45 Q-2.55 5.05 -2.6 4.75 L-2.7 4.45 -2.8 4.2 Q-2.85 4.1 -2.95 4.0 L-3.0 3.9 M-1.1 4.7 L-1.05 4.7 -1.15 4.65 -1.1 4.7 M-1.3 5.05 L-1.3 5.1 -1.3 5.15 -1.65 5.2 -2.0 5.3 -2.05 5.3 -2.0 5.25 Q-2.05 5.25 -2.0 5.25 L-1.95 5.25 -1.95 5.2 -1.7 4.95 -1.55 4.95 -1.4 5.0 -1.3 5.05 M-0.75 4.95 L-0.75 4.95 M-0.85 4.9 L-0.85 4.9 M-0.75 5.3 L-1.0 4.9 Q-0.6 5.35 -0.45 5.65 L-0.4 5.7 Q-0.25 5.95 -0.25 6.2 -0.25 6.25 -0.5 6.7 L-0.75 7.3 -0.75 7.4 -0.8 7.4 Q-0.85 7.4 -1.0 7.05 L-1.15 6.7 -1.35 6.35 -1.5 6.05 -1.55 6.0 Q-1.8 5.75 -1.85 5.75 -1.7 5.75 -1.5 5.95 L-1.35 6.05 -1.15 5.5 Q-1.05 5.3 -0.8 5.3 L-0.75 5.3 M-1.75 4.25 L-1.8 4.25 -1.95 4.15 -2.45 4.05 -2.55 4.0 Q-2.45 4.05 -2.2 4.2 L-1.75 4.35 -1.75 4.25 M-2.0 5.25 L-2.0 5.25" fill="#ffffff" fill-rule="evenodd" stroke="none"/>
  </g>
</svg>
