<?xml version="1.0" encoding="UTF-8" standalone="no"?>
<svg xmlns:ffdec="https://www.free-decompiler.com/flash" xmlns:xlink="http://www.w3.org/1999/xlink" ffdec:objectType="shape" height="33.4px" width="20.15px" xmlns="http://www.w3.org/2000/svg">
  <g transform="matrix(1.0, 0.0, 0.0, 1.0, 12.15, -0.3)">
    <path d="M4.45 1.5 Q5.1 1.65 5.85 3.05 6.8 4.8 6.8 7.05 6.8 7.2 6.7 7.65 6.55 8.15 6.5 8.55 L5.85 9.15 Q5.95 9.4 5.75 9.7 5.5 10.1 5.5 10.35 5.5 11.1 6.15 11.7 L7.15 12.65 7.1 12.85 6.95 12.8 7.1 12.95 7.2 13.1 Q7.25 13.45 7.45 13.95 7.7 14.45 7.85 14.65 L7.8 14.8 Q7.95 15.05 7.95 15.35 L7.95 16.05 Q7.9 16.5 7.85 16.55 7.75 17.75 7.55 18.4 6.85 19.3 6.0 18.95 6.0 19.0 6.1 19.15 L6.25 19.4 6.25 20.65 6.2 21.0 6.15 21.65 Q5.95 21.75 5.8 21.8 5.6 21.9 5.55 22.2 L5.4 23.1 5.3 23.4 5.15 23.8 Q4.9 23.75 4.75 23.85 4.6 24.0 4.45 24.35 4.3 24.8 4.15 24.95 3.35 25.85 2.6 25.7 2.05 25.6 1.55 24.95 L0.85 23.95 -0.05 23.5 Q-0.6 23.25 -0.85 22.5 -1.1 22.4 -1.35 22.05 -1.55 21.7 -1.85 21.05 -2.05 20.55 -2.35 20.6 L-2.9 20.7 Q-3.15 20.65 -3.4 20.15 L-3.8 19.2 Q-3.8 18.85 -3.75 18.65 L-3.65 18.25 Q-3.55 18.1 -3.05 18.1 -2.65 18.05 -2.55 17.85 -2.6 16.55 -2.7 15.95 L-2.9 15.95 Q-3.1 15.9 -3.2 15.75 -3.3 15.6 -3.65 15.55 L-3.95 15.4 Q-4.15 15.3 -4.3 15.25 L-4.6 15.2 Q-4.6 15.35 -4.7 15.4 -4.6 15.7 -4.6 16.0 -4.6 16.35 -5.3 16.7 -5.9 17.0 -6.0 16.95 -6.35 16.9 -7.25 16.05 -7.55 15.8 -7.75 15.1 -8.15 14.1 -8.2 12.5 L-8.25 12.45 -8.25 11.25 Q-8.1 10.95 -7.95 10.9 L-7.85 10.8 -7.75 10.75 -7.55 10.75 -7.6 10.55 Q-7.55 10.55 -7.4 10.65 -7.25 10.8 -7.1 10.8 -7.05 10.85 -6.65 10.55 -6.6 10.45 -6.55 10.1 L-6.45 9.7 -6.4 5.75 Q-6.3 5.5 -6.15 4.4 -6.05 3.55 -5.7 3.2 -5.55 3.05 -5.2 3.05 -4.9 2.95 -4.9 2.0 -4.05 1.3 -3.7 1.05 -3.15 0.7 -2.7 0.65 L-2.5 0.8 Q-2.45 0.85 -2.45 1.0 -2.25 0.9 -2.0 0.8 -1.15 0.45 -0.75 0.55 -0.65 0.55 -0.5 0.9 -0.35 1.25 -0.2 1.25 0.05 1.3 0.25 1.05 L0.8 0.3 Q0.95 0.35 1.2 0.6 L1.6 1.0 Q1.8 1.1 2.5 1.25 2.65 1.25 2.95 1.45 3.25 1.6 3.35 1.6 L3.75 1.6 4.1 1.55 4.15 1.5 4.45 1.5 M4.8 24.4 Q5.05 23.85 5.25 23.75 L5.25 23.8 5.6 24.25 Q5.8 24.55 5.85 24.9 6.0 25.35 6.2 25.7 6.4 26.05 6.5 26.1 6.65 26.1 6.65 26.0 6.65 25.85 6.8 25.9 6.95 25.9 7.3 26.35 7.75 26.95 7.95 27.1 L8.0 28.25 Q7.9 28.55 7.4 28.75 6.95 29.05 6.7 29.0 6.65 28.95 6.35 28.55 L6.0 28.05 Q5.9 27.9 5.65 27.75 L5.2 27.45 Q5.2 27.15 4.9 26.55 4.6 25.95 4.6 25.05 4.6 24.85 4.8 24.4 M1.1 16.9 Q1.15 17.15 1.1 17.55 1.0 18.0 1.0 18.15 L1.4 18.25 Q1.35 18.35 1.35 18.55 1.8 19.25 2.4 19.85 L2.4 19.9 Q2.7 19.95 2.8 19.9 3.1 19.75 3.15 18.95 3.05 18.65 2.9 18.45 L2.8 18.4 Q2.05 18.25 1.8 17.85 L1.75 17.9 Q1.75 17.65 1.55 17.4 L1.1 16.9 M0.5 25.3 L0.65 25.25 0.8 25.35 Q0.85 25.45 0.85 25.65 0.85 26.0 0.8 25.9 L0.7 25.95 0.45 25.9 0.4 25.4 0.5 25.3 M7.1 22.75 L6.95 22.7 7.05 22.7 7.1 22.75 M3.85 30.6 Q4.15 30.7 4.3 31.55 L4.3 32.15 Q4.1 32.35 3.75 32.5 3.45 32.7 3.35 33.4 3.15 33.75 2.85 33.7 L2.3 33.5 Q1.65 33.4 1.5 33.55 L1.25 33.7 Q0.7 33.55 -0.15 32.8 -1.1 31.9 -1.35 30.9 L-1.3 30.45 Q-1.25 30.35 -1.15 30.4 L-0.85 30.45 Q-0.45 30.5 -0.35 30.6 0.0 30.85 -0.05 31.5 0.0 31.65 0.25 31.7 L0.3 31.45 Q0.5 31.35 0.7 31.25 L0.9 31.2 Q1.15 31.25 1.6 31.6 L1.9 31.75 Q2.05 31.95 1.95 32.65 L2.1 32.8 Q2.5 32.55 2.85 32.5 3.0 32.5 3.0 32.05 3.0 31.85 2.8 31.65 2.6 31.45 2.55 31.3 L2.6 31.05 Q3.25 31.05 3.5 30.8 3.75 30.6 3.85 30.6 M0.55 29.9 L0.55 30.3 0.25 30.55 Q0.1 30.65 0.0 30.65 -0.15 30.6 -0.4 30.3 L-0.75 29.85 -0.7 29.5 -0.5 29.35 Q-0.35 29.25 -0.15 29.3 -0.05 29.3 0.15 29.45 0.4 29.6 0.55 29.9 M-11.35 9.3 L-11.4 9.35 Q-11.3 9.55 -11.25 9.65 -11.2 9.8 -11.2 10.0 L-11.25 10.05 -11.3 10.05 Q-11.25 10.4 -11.0 10.75 -10.8 10.95 -10.65 11.0 L-10.6 10.85 Q-10.55 10.8 -10.45 10.85 L-10.2 10.95 Q-10.2 11.0 -10.1 11.1 L-10.1 11.15 -10.05 11.0 -9.8 10.75 -9.7 11.1 -9.75 11.45 Q-9.95 11.7 -10.1 11.7 L-10.2 11.9 -10.35 12.05 Q-10.45 12.1 -10.6 12.05 -11.05 11.95 -11.35 11.4 -11.5 11.1 -11.55 10.85 L-11.6 10.7 -11.8 10.55 -11.75 10.15 -11.7 9.95 -11.75 9.95 Q-11.9 9.8 -11.8 9.3 L-11.35 9.3 M-11.45 10.05 L-11.4 10.15 -11.4 10.05 -11.45 10.05 M-10.4 13.15 L-10.3 13.1 Q-10.15 13.25 -10.1 13.5 L-10.35 13.5 -10.4 13.15 M-9.85 14.05 L-9.7 14.2 -9.7 14.55 -9.75 14.6 -10.15 14.5 Q-10.25 14.4 -10.2 14.1 -10.05 14.0 -9.85 14.05 M-12.15 8.75 Q-12.1 8.5 -12.0 8.5 L-11.8 8.65 Q-11.75 8.7 -11.75 8.9 L-11.8 8.95 -11.95 8.9 Q-12.15 8.9 -12.15 8.85 L-12.15 8.75 M-2.1 22.85 Q-2.0 23.1 -1.7 23.3 L-1.5 23.25 -1.2 23.25 Q-1.05 23.3 -0.95 23.3 L-0.9 23.35 Q-0.8 23.6 -0.8 24.1 L-0.85 25.15 Q-1.05 25.35 -1.1 25.65 -1.2 25.75 -1.5 25.9 -1.85 26.05 -1.95 26.05 -2.05 26.0 -2.5 25.55 -2.95 25.1 -3.2 25.05 -3.3 25.05 -3.8 25.2 -4.2 25.15 -4.55 24.3 L-4.95 23.3 Q-4.8 22.7 -4.45 22.15 -4.05 21.45 -3.8 21.55 -3.65 21.55 -3.4 21.8 L-3.0 22.25 Q-2.85 22.65 -2.65 22.7 L-2.55 22.6 -2.3 22.6 Q-2.2 22.65 -2.1 22.85" fill="#ffffff" fill-opacity="0.5019608" fill-rule="evenodd" stroke="none"/>
  </g>
</svg>
