<?xml version="1.0" encoding="UTF-8" standalone="no"?>
<svg xmlns:ffdec="https://www.free-decompiler.com/flash" xmlns:xlink="http://www.w3.org/1999/xlink" ffdec:objectType="shape" height="33.65px" width="18.45px" xmlns="http://www.w3.org/2000/svg">
  <g transform="matrix(1.0, 0.0, 0.0, 1.0, 9.25, 0.05)">
    <path d="M0.6 0.0 Q0.95 0.05 1.6 0.95 2.2 1.9 2.3 1.9 2.4 1.95 2.75 1.75 L3.0 1.65 2.85 1.5 2.9 1.45 3.15 1.5 Q3.7 1.6 4.55 2.8 L5.45 4.15 Q5.95 4.6 6.45 5.3 7.4 6.65 7.4 8.0 L7.3 8.85 7.25 9.45 Q7.2 10.15 7.15 10.25 7.05 11.0 6.95 11.55 6.85 12.5 6.5 12.75 6.4 12.85 6.2 12.85 L6.0 12.9 5.25 12.8 5.1 12.8 Q4.85 12.85 4.65 13.25 L4.6 13.2 Q4.65 13.0 4.7 12.85 L4.6 13.0 Q4.5 14.15 4.1 15.25 L3.75 16.35 Q3.75 16.6 3.95 17.65 L3.95 17.85 4.45 19.05 Q4.7 19.55 4.9 19.65 L5.15 19.8 Q5.25 19.95 5.4 20.05 L5.55 20.1 Q5.7 20.2 5.85 20.25 L6.1 20.2 6.4 20.2 Q6.65 20.15 6.8 19.95 L6.95 19.9 Q7.1 19.95 7.5 20.45 7.9 20.85 7.95 21.0 8.0 21.4 8.4 23.05 8.4 25.0 7.65 26.35 7.05 27.4 6.65 27.5 L5.65 27.7 4.75 27.65 Q4.2 27.95 4.1 28.05 3.8 28.45 3.6 29.8 2.85 30.5 2.35 30.4 L1.25 30.3 Q0.25 30.1 -0.8 29.2 -1.85 28.3 -2.1 28.25 L-2.55 28.3 -2.95 28.3 Q-3.7 28.15 -4.4 26.9 -5.25 25.25 -5.85 24.4 -5.85 23.55 -6.0 22.95 -6.15 22.5 -6.2 22.4 L-6.15 22.35 -5.45 21.45 Q-4.85 20.75 -4.6 20.55 -4.55 20.5 -4.5 20.55 L-4.4 20.6 -4.2 21.05 Q-4.05 21.4 -3.85 21.4 -3.65 21.45 -3.4 21.0 -3.05 20.4 -3.05 19.15 L-3.25 18.8 -3.35 18.6 Q-3.55 18.55 -3.9 17.9 -4.3 17.15 -4.15 16.35 L-4.45 15.75 Q-4.65 15.45 -4.95 15.4 -5.2 15.35 -5.55 15.55 -5.85 15.8 -6.15 15.75 -5.85 15.9 -5.55 16.35 L-4.75 17.7 -4.75 18.15 -5.25 18.3 -5.6 18.35 Q-6.15 18.25 -6.95 15.9 L-6.9 15.6 -6.65 15.55 Q-7.25 15.3 -7.65 14.65 -8.6 13.2 -8.3 10.35 -8.25 9.5 -8.0 8.8 -7.55 8.45 -7.45 8.55 -7.35 8.65 -7.25 8.7 -7.0 8.75 -6.5 8.25 -5.95 7.7 -5.95 7.15 L-6.0 6.1 -6.0 6.15 -6.2 6.15 Q-6.4 6.1 -6.45 6.0 L-6.55 5.7 Q-6.65 5.55 -6.65 5.3 -6.65 3.6 -5.95 2.2 -5.35 0.95 -4.8 0.9 L-3.75 0.85 -2.75 0.85 Q-2.5 0.65 -2.25 0.8 -1.95 0.95 -1.8 1.0 L-0.85 1.0 0.1 1.05 0.2 0.65 0.3 0.0 0.4 -0.05 0.6 0.0 M5.8 12.85 L5.8 12.85 M1.9 19.9 Q1.55 19.65 1.45 19.65 1.25 19.6 1.1 19.95 1.0 20.3 0.75 20.35 L0.0 20.3 Q-0.25 20.25 -0.5 19.8 -0.75 19.35 -1.1 19.3 L-1.45 19.3 -1.7 19.35 -1.8 19.65 -1.9 20.1 -1.85 20.15 Q-1.85 20.2 -1.9 20.15 -0.95 23.5 0.45 23.8 L1.15 23.75 Q1.75 23.75 1.9 23.75 L2.2 24.05 2.55 24.3 Q3.65 24.0 3.65 23.2 3.65 21.65 3.35 21.15 3.15 20.9 3.05 20.65 L2.9 20.4 Q2.7 20.1 2.4 20.1 2.25 20.1 1.9 19.9 M6.1 30.3 L6.45 30.35 Q6.8 30.1 6.95 30.05 7.1 30.1 8.2 30.45 8.6 31.4 9.2 32.2 9.25 32.5 9.0 33.05 8.75 33.55 8.65 33.6 8.6 33.6 7.8 33.25 7.65 33.15 7.35 33.1 L7.1 33.05 6.9 32.75 Q6.75 32.1 6.0 31.55 L5.25 31.15 Q5.25 31.1 5.3 30.75 L5.4 30.25 5.6 30.35 5.65 30.35 6.1 30.3 M5.9 29.45 L6.05 29.7 Q6.15 29.85 6.15 29.95 L6.0 30.1 Q5.9 30.15 5.7 29.95 5.7 29.6 5.65 29.6 L5.9 29.45 M4.45 29.05 L4.8 29.1 5.0 29.6 4.95 29.7 4.75 29.7 Q4.55 29.65 4.45 29.55 L4.35 29.3 Q4.4 29.15 4.45 29.05 M-5.05 19.9 Q-4.8 20.1 -4.8 20.2 -5.05 20.75 -5.95 21.2 L-6.0 21.6 -6.15 21.7 Q-6.2 21.7 -6.4 21.7 L-6.85 21.5 -7.25 21.25 Q-7.35 21.15 -8.05 20.8 -8.1 20.75 -8.15 20.6 L-8.3 20.25 Q-8.35 20.2 -8.5 20.2 L-8.65 20.15 Q-8.85 20.05 -8.85 19.6 -8.9 19.2 -8.8 18.9 -9.8 15.25 -8.55 14.4 -8.45 14.45 -7.9 15.0 -7.4 15.55 -7.15 15.65 L-7.1 16.7 Q-6.85 17.0 -6.45 17.6 L-5.8 18.55 Q-5.7 18.7 -5.65 19.1 -5.55 19.45 -5.4 19.65 L-5.05 19.9 M-6.9 24.25 L-6.9 24.2 -6.7 24.2 Q-6.5 24.25 -6.45 24.3 L-6.4 24.3 Q-6.4 24.4 -6.3 24.6 -6.45 24.95 -6.5 25.0 -6.55 25.05 -6.6 25.0 -6.9 24.95 -6.95 24.75 L-6.9 24.25 M-6.85 25.55 L-6.45 26.4 Q-6.45 26.7 -6.5 26.85 -6.55 27.0 -6.55 27.15 -6.55 27.5 -6.5 27.5 -6.4 27.6 -6.3 27.55 -6.15 27.55 -6.0 27.55 L-5.65 27.9 Q-5.3 28.3 -5.3 28.5 -5.3 28.9 -5.7 29.0 L-6.1 28.95 Q-6.35 28.95 -6.45 28.8 L-7.0 28.05 -6.95 27.65 Q-6.9 27.45 -6.9 27.3 -6.9 26.9 -7.3 26.55 -7.55 26.3 -7.2 25.8 L-6.85 25.55 M-1.4 30.15 L-1.7 30.15 -1.95 30.05 Q-1.85 29.75 -1.85 29.25 L-1.3 29.35 -1.2 29.45 -1.25 29.9 -1.4 30.15 M-2.95 29.4 L-2.85 29.5 Q-2.7 30.3 -3.15 30.45 L-3.7 30.4 -4.2 30.2 -4.7 30.05 Q-4.9 30.0 -5.0 29.95 -5.15 29.85 -5.15 29.45 L-5.15 28.85 -5.0 28.75 -4.7 28.75 Q-4.6 28.75 -4.3 29.15 -4.0 29.6 -3.85 29.6 -3.75 29.65 -3.4 29.5 -3.05 29.4 -2.95 29.4" fill="#ffffff" fill-opacity="0.5019608" fill-rule="evenodd" stroke="none"/>
  </g>
</svg>
