<?xml version="1.0" encoding="UTF-8" standalone="no"?>
<svg xmlns:ffdec="https://www.free-decompiler.com/flash" xmlns:xlink="http://www.w3.org/1999/xlink" ffdec:objectType="shape" height="34.25px" width="19.9px" xmlns="http://www.w3.org/2000/svg">
  <g transform="matrix(1.0, 0.0, 0.0, 1.0, 10.45, -0.1)">
    <path d="M3.5 1.7 Q5.0 5.3 6.0 6.3 6.55 6.65 7.1 7.4 8.2 8.8 8.2 10.65 8.2 12.8 7.65 13.5 7.45 13.75 7.2 13.9 6.9 14.05 6.85 14.1 6.1 15.05 5.5 14.95 5.2 14.9 4.6 14.6 L4.35 14.45 Q4.15 14.55 4.05 14.6 3.6 14.7 3.3 15.45 3.0 16.3 2.85 16.55 L2.85 16.65 Q3.25 17.15 3.4 17.55 3.7 18.1 3.55 19.25 3.55 19.6 3.6 19.9 L3.7 20.15 3.7 20.1 4.4 21.25 Q5.0 22.2 5.2 22.25 5.5 22.4 6.05 22.85 L6.25 23.05 6.3 23.05 Q6.45 23.6 6.5 23.7 6.6 23.8 6.8 23.85 L6.65 23.8 Q6.75 24.0 7.05 24.2 7.3 24.25 7.5 24.1 7.6 24.0 7.7 23.95 7.8 23.8 8.0 23.65 7.85 23.4 7.9 23.0 7.95 22.5 8.1 21.7 L8.1 21.65 8.05 21.5 Q8.0 21.4 8.2 21.45 L8.9 22.0 9.25 22.55 Q9.45 22.9 9.45 23.15 9.45 24.4 9.05 25.05 L8.75 25.3 8.8 25.35 Q8.65 25.8 8.2 26.5 7.75 27.15 7.4 27.5 7.65 30.3 6.35 30.55 5.65 30.65 4.55 30.15 L4.25 30.2 Q4.15 30.2 4.05 30.3 L4.0 30.65 Q3.75 30.8 3.5 30.9 L3.15 30.9 Q3.0 30.85 2.65 30.65 L2.55 30.75 Q2.3 30.85 2.2 30.85 1.95 30.8 1.75 30.5 L1.65 30.45 1.6 30.4 Q1.3 30.65 1.1 30.65 0.95 30.6 0.75 30.4 0.55 30.15 0.65 29.75 L0.7 29.4 1.2 29.1 Q1.1 28.45 0.7 27.65 0.3 26.95 0.35 26.4 0.4 26.1 0.75 25.65 1.15 25.25 1.45 25.3 L1.8 25.5 Q2.0 25.7 2.15 25.7 2.65 25.8 3.15 25.6 3.8 25.3 3.9 24.6 L3.95 24.45 Q4.0 24.35 4.05 24.25 L4.1 24.3 Q4.15 24.35 4.15 24.5 4.25 24.55 4.4 24.6 L4.45 24.6 4.65 24.35 4.65 23.2 Q4.25 22.55 4.25 22.05 L3.9 21.35 Q3.8 20.95 3.75 20.7 L3.65 20.7 Q3.3 20.6 3.0 19.75 L2.55 18.95 Q2.3 18.55 2.1 18.45 L1.55 18.35 Q1.15 18.25 0.75 18.5 L0.6 18.55 0.55 18.65 Q0.5 18.7 0.4 18.75 0.25 18.95 -0.05 19.05 -0.75 18.3 -1.0 17.9 -1.4 17.55 -1.55 17.25 L-1.75 17.5 Q-1.9 17.65 -2.0 17.7 -2.05 17.65 -2.2 17.6 -2.35 17.55 -2.4 17.1 L-2.5 17.15 -2.7 17.2 Q-2.9 17.15 -3.1 16.95 L-3.4 16.65 -3.35 16.2 -3.55 16.4 -3.6 16.3 Q-3.55 16.15 -3.55 16.0 -3.55 15.5 -4.25 14.7 -4.4 14.65 -4.65 14.75 -4.85 14.9 -4.95 15.0 L-4.65 15.45 Q-4.45 15.75 -4.35 16.0 L-4.35 16.85 -4.3 16.85 -4.2 16.75 -4.25 16.95 -4.35 16.9 -4.35 17.5 Q-4.55 17.6 -5.0 18.0 -5.25 18.25 -5.55 18.15 -5.8 18.1 -6.1 17.7 -6.4 17.25 -6.55 17.2 -6.75 17.2 -7.1 16.8 L-7.15 16.85 Q-7.25 16.9 -7.25 17.05 -7.25 17.25 -7.0 17.75 L-6.65 18.25 -6.45 18.35 -6.4 18.35 Q-6.35 18.5 -6.15 18.7 -6.0 18.85 -6.05 19.05 -6.2 19.15 -6.45 19.25 -6.8 19.35 -6.95 19.35 -7.35 19.25 -7.6 18.55 -7.85 17.95 -7.75 17.7 L-7.9 17.45 -7.85 16.55 -7.65 16.45 -7.4 16.45 -7.6 16.2 Q-8.3 15.2 -8.5 14.55 -8.55 14.45 -8.95 13.65 -9.3 12.7 -9.15 11.7 L-9.1 11.6 -9.1 11.45 -9.0 11.35 Q-8.85 11.05 -8.65 10.95 L-8.55 10.95 Q-8.35 10.8 -8.15 10.85 L-8.05 10.95 Q-7.7 11.15 -7.45 11.2 -7.2 11.25 -6.9 11.0 L-6.3 10.5 Q-6.2 10.05 -6.15 9.35 L-6.1 8.45 Q-6.1 7.45 -6.4 7.0 L-6.9 6.25 -6.9 6.2 -6.7 6.2 Q-6.75 6.15 -6.8 6.15 -7.45 5.8 -7.75 5.1 L-7.75 2.8 Q-7.4 1.0 -5.95 0.4 -4.9 -0.05 -3.75 0.2 L-3.15 0.35 -2.9 0.45 Q-2.75 0.35 -2.45 0.35 L-1.45 0.55 -0.35 0.65 0.8 0.5 Q1.0 0.5 1.15 0.65 L1.45 0.85 1.45 1.0 1.85 1.35 Q2.45 1.9 2.55 1.9 2.8 1.95 3.35 1.75 L3.4 1.75 3.5 1.7 M6.4 21.05 Q6.35 21.0 6.35 20.9 L6.35 20.5 Q6.6 20.4 6.95 20.3 L7.1 20.35 Q7.2 20.35 7.2 20.55 7.2 20.85 6.95 21.05 6.75 21.2 6.6 21.2 6.45 21.15 6.4 21.05 M3.4 21.6 L3.7 21.9 Q3.85 22.1 3.85 22.4 3.85 22.75 3.75 22.95 3.9 23.05 3.6 23.0 3.15 22.9 3.25 22.3 3.3 22.0 3.4 21.6 M8.3 22.65 L8.3 22.7 Q8.35 22.7 8.4 22.65 L8.35 22.5 8.3 22.65 M8.1 33.6 L8.25 33.75 8.5 33.65 Q8.5 33.3 8.4 33.2 8.65 32.8 8.75 32.8 8.9 32.85 9.05 33.1 L9.25 33.5 9.2 33.8 8.95 33.75 8.85 34.0 8.1 34.3 7.55 34.3 Q7.4 34.25 6.95 34.05 6.55 33.8 6.4 33.75 6.15 33.7 5.8 33.4 L5.4 32.95 5.4 32.55 5.6 32.55 Q5.8 32.6 6.1 32.85 6.5 33.2 6.75 33.3 6.75 33.25 6.7 33.15 6.8 32.85 7.25 32.9 L8.0 33.05 8.05 33.15 8.1 33.6 M0.2 28.8 L-1.3 30.55 Q-1.35 30.45 -2.3 29.7 -2.95 29.25 -2.9 28.45 L-3.0 28.55 -3.2 28.55 Q-3.75 28.4 -4.2 28.0 -4.75 27.55 -5.25 27.35 -6.1 27.0 -6.55 26.4 -6.8 25.95 -7.0 25.1 L-7.3 24.0 Q-7.4 23.65 -7.4 23.4 L-7.55 23.3 Q-7.9 23.0 -8.4 23.0 L-9.05 22.8 Q-9.55 22.6 -9.85 22.1 -9.95 20.95 -10.3 19.9 -10.5 19.3 -10.4 18.0 -10.35 17.7 -10.25 17.6 -10.05 17.4 -10.0 17.1 -9.9 16.85 -9.95 16.15 -9.95 15.5 -9.8 15.15 -9.95 15.15 -9.65 15.2 -8.95 15.35 -8.6 15.65 L-8.45 16.0 Q-8.45 16.15 -8.6 16.35 -8.75 16.5 -8.75 16.7 -8.75 17.25 -8.2 18.1 -7.8 18.7 -8.1 19.3 L-8.1 19.7 Q-7.85 19.9 -7.55 20.45 -7.35 20.75 -7.1 20.8 L-6.75 20.75 Q-6.5 20.65 -6.4 20.65 L-6.3 20.6 Q-6.2 20.55 -6.2 20.9 -6.2 21.45 -6.5 21.85 L-6.4 21.95 Q-6.15 22.2 -6.05 22.35 L-6.05 22.4 Q-5.75 22.35 -5.2 21.95 -4.5 21.55 -4.15 21.65 -3.8 21.7 -3.45 22.4 L-3.35 22.4 Q-3.2 22.45 -3.15 22.6 -3.1 22.75 -2.95 22.8 L-2.7 22.75 -2.65 22.7 Q-2.6 22.5 -2.45 22.2 -2.35 20.2 -2.3 20.15 -2.15 20.35 -1.95 21.6 -1.8 22.65 -1.3 22.95 -1.0 23.2 -0.85 23.5 -0.65 23.85 -0.55 24.75 L-0.6 24.9 -0.5 25.35 Q-0.4 25.75 -0.3 27.3 -0.25 27.3 -0.05 27.75 L0.25 28.35 0.2 28.8 M-8.7 8.5 L-8.75 8.45 -8.7 8.4 -8.7 8.5 M-0.35 18.5 L-0.15 18.7 -0.1 18.65 -0.35 18.5 M-7.25 26.85 L-7.25 27.15 Q-7.25 27.2 -7.45 27.15 -7.65 27.1 -7.65 27.05 L-7.65 26.95 Q-7.6 26.65 -7.55 26.55 -7.4 26.65 -7.25 26.85 M-7.0 28.05 L-6.8 28.05 Q-6.75 28.1 -6.4 28.55 -6.05 29.05 -6.0 29.25 L-6.05 29.45 Q-6.1 29.45 -6.3 29.45 -6.6 29.35 -6.85 28.95 -7.1 28.6 -7.05 28.2 L-7.0 28.05 M-4.95 30.0 L-4.9 30.15 -4.95 30.5 -4.9 30.55 -5.1 30.5 Q-5.3 30.5 -5.35 30.4 L-5.4 30.15 Q-5.4 29.95 -5.3 29.9 L-4.95 30.0 M-3.25 31.1 L-3.3 31.2 -3.55 31.15 -3.75 31.1 Q-3.85 31.0 -3.8 30.7 -3.7 30.6 -3.55 30.65 L-3.35 30.7 -3.25 30.8 -3.25 31.1" fill="#ffffff" fill-opacity="0.5019608" fill-rule="evenodd" stroke="none"/>
  </g>
</svg>
