<?xml version="1.0" encoding="UTF-8" standalone="no"?>
<svg xmlns:ffdec="https://www.free-decompiler.com/flash" xmlns:xlink="http://www.w3.org/1999/xlink" ffdec:objectType="shape" height="18.1px" width="12.35px" xmlns="http://www.w3.org/2000/svg">
  <g transform="matrix(1.0, 0.0, 0.0, 1.0, 8.0, -3.75)">
    <path d="M1.7 4.15 L1.95 4.1 2.0 4.05 2.15 4.0 Q2.55 4.0 3.0 4.7 3.6 5.55 3.6 6.75 L3.5 7.1 Q3.4 7.4 3.4 7.6 L3.0 8.0 Q3.05 8.15 2.95 8.35 2.8 8.55 2.8 8.7 2.8 9.1 3.2 9.35 L3.8 9.75 3.75 9.9 3.7 9.85 3.75 9.95 3.85 10.0 Q3.85 10.2 4.0 10.45 4.15 10.7 4.2 10.75 L4.2 10.85 Q4.3 10.95 4.3 11.15 L4.25 11.5 4.25 11.8 Q4.2 12.45 4.05 12.85 3.6 13.4 3.1 13.3 L3.15 13.4 3.25 13.5 3.25 14.2 3.2 14.4 3.2 14.75 3.0 14.9 Q2.85 14.95 2.85 15.15 L2.75 15.65 2.65 15.8 2.55 16.05 Q2.4 16.05 2.35 16.1 2.2 16.2 2.15 16.45 L1.95 16.75 Q1.45 17.4 1.0 17.4 0.7 17.4 0.4 17.05 L-0.05 16.6 -0.6 16.5 Q-0.95 16.4 -1.1 16.0 -1.25 16.0 -1.4 15.8 -1.55 15.65 -1.7 15.35 -1.85 15.1 -2.0 15.15 L-2.35 15.25 Q-2.5 15.25 -2.65 15.05 L-2.9 14.55 -2.85 14.25 -2.8 14.0 Q-2.75 13.95 -2.45 13.9 -2.2 13.8 -2.15 13.7 -2.2 13.0 -2.25 12.7 L-2.35 12.7 Q-2.5 12.7 -2.55 12.6 -2.6 12.55 -2.8 12.55 L-3.0 12.5 -3.4 12.5 Q-3.4 12.55 -3.45 12.6 -3.4 12.75 -3.4 12.9 -3.4 13.1 -3.8 13.35 -4.2 13.6 -4.25 13.6 -4.45 13.6 -5.0 13.25 -5.2 13.15 -5.35 12.8 -5.55 12.25 -5.6 11.4 L-5.65 11.4 -5.6 10.75 Q-5.55 10.55 -5.45 10.5 L-5.4 10.45 -5.3 10.4 -5.2 10.4 -5.25 10.3 -5.1 10.35 -4.9 10.4 -4.65 10.2 -4.6 9.9 -4.55 9.7 -4.5 7.55 Q-4.45 7.4 -4.35 6.8 -4.3 6.3 -4.1 6.1 -3.95 6.0 -3.75 5.95 -3.6 5.85 -3.6 5.35 -3.05 4.85 -2.85 4.7 -2.5 4.45 -2.2 4.35 L-2.1 4.4 Q-2.05 4.45 -2.05 4.5 L-1.8 4.35 Q-1.3 4.1 -1.05 4.1 -0.95 4.1 -0.9 4.25 -0.8 4.4 -0.7 4.4 -0.55 4.4 -0.45 4.25 L-0.1 3.75 Q0.0 3.8 0.15 3.9 L0.4 4.05 0.95 4.1 1.2 4.15 1.5 4.2 1.7 4.15 M0.55 13.2 L0.5 13.2 Q0.5 13.1 0.35 12.95 L0.1 12.75 Q0.15 12.9 0.1 13.1 0.05 13.35 0.05 13.45 L0.3 13.45 Q0.25 13.5 0.25 13.6 0.55 13.95 0.9 14.2 L0.9 14.25 1.1 14.2 Q1.3 14.1 1.35 13.65 L1.2 13.4 1.15 13.4 Q0.65 13.4 0.55 13.2 M3.75 15.25 L3.75 15.25 M3.2 16.95 Q3.3 17.15 3.4 17.15 3.5 17.15 3.5 17.05 3.5 17.0 3.55 17.0 3.65 17.0 3.9 17.2 L4.3 17.5 4.35 18.15 Q4.25 18.3 3.95 18.5 3.65 18.7 3.55 18.7 3.5 18.7 3.3 18.5 L3.1 18.25 2.6 18.0 Q2.6 17.85 2.4 17.55 2.25 17.3 2.25 16.75 2.25 16.7 2.35 16.4 2.5 16.1 2.6 16.0 L2.65 16.0 2.85 16.25 Q2.95 16.4 3.0 16.55 3.1 16.8 3.2 16.95 M0.6 20.75 Q0.7 20.8 0.6 21.2 L0.65 21.2 0.7 21.3 Q0.95 21.1 1.2 21.05 1.25 21.0 1.25 20.75 1.25 20.65 1.15 20.6 L1.0 20.4 1.0 20.25 Q1.4 20.2 1.55 20.05 1.7 19.9 1.75 19.9 1.95 19.9 2.05 20.35 L2.05 20.7 1.7 20.95 Q1.5 21.1 1.45 21.45 1.35 21.65 1.15 21.65 L0.85 21.65 Q0.45 21.65 0.35 21.75 L0.2 21.85 Q-0.15 21.85 -0.65 21.5 -1.25 21.15 -1.4 20.65 L-1.4 20.4 Q-1.35 20.35 -1.3 20.35 L-1.1 20.3 -0.8 20.35 Q-0.6 20.45 -0.6 20.8 -0.6 20.9 -0.4 20.9 L-0.4 20.75 -0.15 20.6 -0.05 20.55 Q0.15 20.55 0.4 20.7 L0.6 20.75 M-8.0 9.85 Q-8.0 9.7 -7.95 9.65 -7.85 9.75 -7.8 9.75 L-7.8 9.9 -7.9 9.9 -8.0 9.85 M-7.55 10.05 L-7.45 10.2 Q-7.45 10.3 -7.45 10.4 L-7.45 10.45 -7.5 10.45 Q-7.45 10.65 -7.3 10.8 -7.2 10.85 -7.1 10.9 L-7.1 10.8 -6.95 10.75 -6.8 10.8 -6.75 10.9 -6.7 10.8 -6.6 10.65 -6.55 10.85 -6.55 11.0 Q-6.7 11.2 -6.75 11.2 L-6.8 11.35 -6.9 11.4 -7.1 11.45 Q-7.35 11.45 -7.55 11.15 -7.65 11.05 -7.65 10.9 L-7.8 10.75 -7.8 10.55 -7.75 10.45 Q-7.85 10.35 -7.8 10.1 L-7.75 10.05 -7.55 10.05 M-7.55 10.5 L-7.55 10.45 -7.6 10.45 -7.55 10.5 M-6.9 12.0 Q-6.8 12.05 -6.75 12.15 L-6.9 12.2 -6.95 12.0 -6.9 12.0 M-6.5 12.7 L-6.55 12.75 -6.65 12.75 -6.8 12.7 Q-6.85 12.7 -6.85 12.5 -6.75 12.45 -6.6 12.45 L-6.5 12.5 -6.5 12.7 M-1.85 16.35 Q-1.8 16.45 -1.6 16.55 L-1.5 16.5 -1.3 16.45 -1.15 16.45 -1.15 16.5 Q-1.1 16.6 -1.1 16.9 L-1.1 17.45 Q-1.2 17.6 -1.25 17.75 L-1.5 17.95 Q-1.7 18.05 -1.8 18.05 -1.85 18.05 -2.1 17.85 -2.35 17.7 -2.55 17.7 -2.6 17.7 -2.9 17.8 -3.15 17.8 -3.35 17.4 L-3.6 16.9 Q-3.5 16.55 -3.3 16.2 -3.05 15.8 -2.9 15.8 -2.8 15.8 -2.65 15.95 L-2.4 16.15 Q-2.3 16.3 -2.2 16.3 L-2.15 16.25 -2.0 16.25 Q-1.9 16.25 -1.85 16.35 M-0.3 17.4 L-0.15 17.35 -0.1 17.4 Q-0.05 17.4 -0.05 17.55 -0.05 17.7 -0.1 17.7 L-0.3 17.7 -0.35 17.45 -0.3 17.4 M-0.25 20.1 L-0.4 20.25 Q-0.5 20.35 -0.6 20.35 -0.65 20.35 -0.8 20.2 L-1.05 20.0 -1.0 19.8 -0.85 19.7 -0.7 19.65 Q-0.6 19.65 -0.5 19.7 -0.35 19.75 -0.25 19.9 L-0.25 20.1" fill="#ffffff" fill-opacity="0.5019608" fill-rule="evenodd" stroke="none"/>
    <path d="M1.85 3.8 L1.95 3.8 2.1 3.75 Q2.4 3.75 2.55 4.0 2.8 4.45 3.05 4.65 L3.4 5.0 Q3.6 5.25 3.6 6.15 L3.6 8.2 Q3.7 8.55 4.0 9.05 4.25 9.45 4.25 9.85 L4.2 10.7 Q4.1 11.4 4.0 11.55 L3.85 11.9 3.65 12.25 Q3.5 12.45 3.25 12.5 L3.05 12.55 3.15 12.65 Q3.4 12.8 3.4 13.0 3.4 13.25 3.35 13.3 L3.3 13.85 Q3.2 14.05 3.15 14.4 L3.0 14.5 Q2.8 14.6 2.65 14.6 L2.6 14.9 Q2.25 15.1 2.2 15.15 L2.2 15.55 Q2.2 15.85 2.05 16.0 1.85 16.15 1.85 16.45 1.75 16.55 0.85 16.8 0.7 16.8 0.5 16.55 0.4 16.35 0.3 16.05 L-0.2 16.05 -0.45 16.0 Q-0.5 16.0 -0.65 15.9 -0.75 15.8 -0.85 15.65 L-1.0 15.35 -1.3 15.35 -1.2 15.45 Q-1.05 15.85 -0.95 15.9 -0.85 16.0 -0.8 16.15 L-0.75 16.3 -0.7 16.55 -0.75 17.05 -1.0 17.2 -1.3 17.3 -1.5 17.35 -1.75 17.45 Q-1.85 17.45 -2.1 17.15 -2.35 16.8 -2.55 16.8 L-3.3 16.55 Q-3.35 15.95 -3.45 15.6 -3.5 15.4 -3.55 15.25 L-3.55 15.1 -3.15 14.75 Q-3.0 14.6 -2.8 14.6 L-2.35 14.85 Q-1.95 15.1 -1.75 15.1 L-1.55 15.15 -1.65 15.05 -1.95 14.5 Q-2.1 14.3 -2.4 14.2 -2.7 14.1 -2.85 13.85 L-2.9 13.55 -2.9 13.15 -2.45 12.8 Q-2.3 12.6 -2.25 12.25 L-2.25 12.2 -2.3 12.25 Q-2.45 12.25 -2.6 12.05 -2.75 11.85 -2.85 11.85 -2.95 11.85 -3.25 12.05 -3.6 12.25 -3.7 12.25 -3.85 12.25 -4.2 12.0 -4.55 11.7 -4.65 11.55 L-4.8 11.3 -5.0 11.05 -5.15 10.7 -5.1 10.2 Q-5.05 9.8 -5.15 9.75 -5.1 9.1 -4.95 8.85 L-4.55 8.4 Q-4.45 7.85 -4.45 7.5 -4.45 6.45 -4.2 6.05 -4.1 5.85 -3.95 5.85 L-3.4 5.25 -2.95 4.7 Q-2.7 4.45 -2.45 4.4 -2.3 4.2 -2.05 4.15 L-1.8 4.15 Q-1.7 4.1 -1.55 4.1 -1.45 4.1 -1.4 4.15 -1.25 4.05 -0.95 3.95 -0.4 3.75 0.1 3.75 L1.05 3.85 1.45 3.95 Q1.5 3.9 1.65 3.85 L1.85 3.85 1.85 3.8 M0.95 13.05 Q0.8 12.95 0.75 12.95 0.5 13.0 0.55 13.25 0.55 13.45 0.8 13.45 L0.95 13.4 1.05 13.25 0.95 13.05 M3.2 14.8 Q3.1 15.2 3.45 15.4 L3.85 15.55 Q4.05 15.65 4.15 15.8 L4.2 16.15 4.1 16.25 3.95 16.3 3.9 16.5 Q4.0 16.4 4.05 16.55 L4.15 16.8 4.15 17.0 Q3.85 17.45 3.65 17.45 L3.25 17.35 Q2.95 17.3 2.85 17.15 L2.75 16.75 2.7 16.4 2.3 16.2 2.3 15.65 2.65 15.0 Q2.85 14.65 3.05 14.55 L3.2 14.8 M1.4 17.45 L1.5 17.3 1.65 17.35 1.7 17.4 Q1.65 17.55 1.45 17.55 1.4 17.55 1.4 17.45 M0.25 17.2 L0.25 17.4 Q-0.1 17.65 -0.15 17.65 -0.3 17.65 -0.35 17.4 -0.4 17.2 -0.3 16.95 L-0.25 16.85 Q-0.2 16.8 -0.05 16.8 0.0 16.8 0.1 16.95 L0.25 17.2 M2.2 19.2 Q2.25 19.55 2.0 19.75 L1.5 20.15 1.5 20.65 0.9 20.65 Q0.2 20.65 -0.1 20.35 -0.6 19.9 -0.95 18.25 L-0.8 18.15 -0.65 18.15 -0.35 18.2 0.05 18.4 0.15 18.8 Q0.2 18.9 0.35 18.9 L0.6 18.9 0.6 18.75 1.2 18.7 Q1.3 18.4 1.45 18.35 L1.65 18.3 Q1.95 18.3 2.1 18.65 L2.2 19.2 M-7.65 8.1 L-7.45 8.45 -7.5 8.6 -7.55 8.6 -7.55 8.65 -7.65 8.65 -7.85 8.6 Q-7.9 8.55 -7.9 8.4 L-7.9 8.25 -7.65 8.1 M-7.4 8.95 L-7.4 9.05 Q-7.4 8.95 -7.35 8.95 L-7.2 9.0 -7.2 9.15 Q-7.1 9.25 -6.8 9.35 -6.5 9.35 -6.35 9.4 -6.45 9.7 -6.65 9.9 -6.8 10.1 -6.95 10.1 -7.05 10.1 -7.35 9.7 -7.65 9.3 -7.65 9.15 L-7.65 8.95 Q-7.75 8.9 -7.55 8.9 L-7.4 8.95 M-7.05 11.4 Q-7.05 11.25 -6.95 11.1 L-6.85 11.15 -6.85 11.2 -6.8 11.25 -6.85 11.4 Q-6.85 11.45 -6.95 11.45 -7.15 11.45 -7.05 11.4 M-6.55 11.75 L-6.5 11.9 -6.55 12.1 -6.65 12.15 Q-6.7 12.15 -6.8 12.05 L-6.95 11.9 -6.95 11.65 -6.9 11.6 -6.8 11.55 -6.55 11.75" fill="#ffffff" fill-opacity="0.4" fill-rule="evenodd" stroke="none"/>
  </g>
</svg>
