<?xml version="1.0" encoding="UTF-8" standalone="no"?>
<svg xmlns:ffdec="https://www.free-decompiler.com/flash" xmlns:xlink="http://www.w3.org/1999/xlink" ffdec:objectType="shape" height="19.2px" width="11.0px" xmlns="http://www.w3.org/2000/svg">
  <g transform="matrix(1.0, 0.0, 0.0, 1.0, 5.95, -3.7)">
    <path d="M-4.75 8.45 L-4.55 8.2 Q-4.25 8.0 -4.15 7.8 -3.95 7.45 -3.9 6.7 -3.85 5.45 -3.2 4.9 -2.75 4.5 -2.3 4.5 L-2.05 4.5 Q-1.7 4.2 -1.55 4.2 L-1.25 4.25 -0.95 4.35 -0.6 4.3 Q-0.4 4.2 -0.25 3.75 L-0.2 3.7 -0.1 3.7 Q0.1 3.7 0.35 4.0 0.65 4.25 0.85 4.25 L1.05 4.25 Q1.1 4.2 1.2 3.95 L1.25 3.9 1.7 4.15 1.85 4.25 1.9 4.25 Q2.05 4.25 2.85 4.7 3.2 4.85 3.3 5.05 3.55 5.4 3.55 6.65 L3.5 7.35 Q3.45 7.9 3.45 7.95 L3.35 8.05 3.25 8.05 Q3.25 8.0 3.15 8.1 L3.05 8.3 3.0 8.45 Q2.85 9.2 2.75 9.4 2.65 9.55 2.45 9.55 L2.4 9.55 2.35 9.6 Q2.25 9.85 2.15 10.25 L2.15 10.5 2.1 10.8 Q2.0 11.1 2.0 11.3 2.0 11.65 2.2 12.1 2.55 12.4 2.6 12.4 2.7 12.4 2.9 12.25 3.05 12.05 3.2 12.05 3.5 12.05 3.8 12.4 4.1 12.8 4.1 13.25 L3.9 15.25 3.8 15.85 3.7 16.1 3.4 16.45 Q3.25 16.55 3.05 16.55 L2.85 16.55 2.75 16.5 2.65 17.1 Q2.3 17.25 2.05 17.4 1.65 17.75 1.6 18.4 1.5 18.5 0.85 18.75 0.25 18.95 0.05 18.95 -0.05 18.95 -0.45 18.8 L-0.9 18.65 -1.15 18.55 -1.4 18.4 -1.55 18.15 -1.6 18.15 -1.75 18.1 -2.05 17.95 -2.2 17.9 -2.4 17.95 Q-2.65 17.95 -3.25 17.15 L-3.55 16.65 -3.55 16.9 -3.65 17.05 Q-3.75 17.2 -3.9 17.2 -4.0 17.2 -4.05 17.15 L-4.1 17.05 -4.1 16.65 -3.95 16.55 Q-3.85 16.5 -3.75 16.5 L-3.65 16.5 Q-3.8 16.1 -3.85 15.8 L-3.8 15.8 -3.75 15.9 Q-3.7 15.8 -3.5 15.6 -3.3 15.4 -3.2 15.4 -3.1 15.4 -3.0 15.55 L-2.8 15.85 Q-2.7 15.85 -2.55 15.7 L-2.35 15.5 -2.35 15.25 -2.75 14.7 Q-3.0 14.35 -3.15 14.35 L-3.45 14.5 Q-3.7 14.75 -3.55 15.0 L-3.9 15.25 Q-4.2 15.45 -4.25 15.45 -4.5 15.45 -5.15 14.95 L-5.55 14.35 -5.9 13.75 -5.9 13.4 Q-5.85 13.25 -5.8 13.2 L-5.8 13.25 Q-5.7 12.95 -5.55 12.75 L-5.15 12.15 -5.0 12.25 -4.8 12.3 -4.55 12.2 -4.25 12.05 -4.2 11.9 -4.4 11.9 Q-4.55 11.9 -4.8 11.75 -5.1 11.6 -5.25 11.35 L-5.3 10.55 -5.35 10.15 Q-5.2 8.95 -4.75 8.45 L3.0 8.45 -4.75 8.45 M0.1 13.8 Q-0.05 13.8 -0.25 13.7 -0.45 13.6 -0.55 13.6 -0.7 13.6 -1.0 13.85 L-1.4 14.2 Q-1.35 14.5 -1.15 14.75 -1.05 14.8 -0.95 14.8 L-0.75 14.75 Q-0.65 14.75 -0.6 14.8 L-0.45 14.9 Q-0.45 15.15 -0.1 15.3 L0.45 15.45 0.85 15.45 Q0.85 15.35 1.0 15.05 L1.1 14.75 Q1.1 13.85 0.6 13.75 0.35 13.7 0.1 13.8 M2.8 18.4 L2.9 18.4 2.85 18.45 2.9 18.5 2.9 18.45 3.35 18.7 3.35 18.65 3.6 18.75 3.8 18.85 Q3.9 18.8 3.95 18.8 L4.0 18.75 Q4.1 18.7 4.15 18.65 4.25 18.65 4.5 18.8 L4.8 19.0 4.85 19.3 4.9 19.3 5.05 19.6 Q4.95 19.8 4.9 19.9 4.85 19.95 4.7 19.95 L4.45 20.0 4.45 19.95 Q4.35 20.0 4.3 20.05 4.15 20.25 4.0 20.3 L3.8 20.25 3.5 20.1 3.3 19.6 2.85 19.4 Q2.55 19.25 2.5 19.1 2.5 19.05 2.6 18.75 2.75 18.4 2.8 18.4 M2.2 18.05 L2.35 18.05 Q2.65 18.25 2.6 18.5 2.6 18.7 2.45 18.75 L2.3 18.8 2.2 18.6 2.15 18.65 2.05 18.35 2.2 18.05 M2.3 17.75 L2.4 17.85 2.4 17.9 Q2.3 17.95 2.25 17.95 2.2 17.95 2.1 17.8 L2.1 17.7 2.2 17.7 2.3 17.75 M-3.85 17.2 Q-3.8 17.3 -3.95 17.55 -3.9 18.0 -3.7 18.2 L-3.3 18.5 Q-3.3 18.65 -3.4 18.85 L-3.45 19.25 Q-3.55 19.3 -3.6 19.35 L-3.75 19.35 Q-4.0 19.35 -4.1 19.25 L-4.35 18.8 Q-4.45 18.6 -4.4 18.4 -4.3 18.15 -4.3 18.0 L-4.3 17.65 -3.85 17.2 M-3.0 18.9 L-2.9 19.0 -2.65 18.9 Q-2.5 18.85 -2.4 18.85 -2.3 18.85 -2.2 19.05 L-2.1 19.25 Q-2.1 19.4 -2.65 19.9 -2.75 19.9 -3.05 19.75 -3.35 19.55 -3.4 19.4 L-3.35 19.1 Q-3.15 18.9 -3.0 18.9 M-1.35 19.15 L-1.4 19.4 -1.6 19.45 -1.8 19.4 Q-1.9 19.35 -1.95 19.15 L-1.95 18.9 -1.85 18.75 -1.65 18.75 Q-1.55 18.75 -1.45 18.8 L-1.3 18.9 Q-1.3 19.0 -1.35 19.15" fill="#ffffff" fill-opacity="0.5019608" fill-rule="evenodd" stroke="none"/>
    <path d="M-4.85 8.45 Q-4.75 8.1 -4.6 7.7 -4.45 7.45 -4.0 7.0 -3.65 6.55 -3.6 5.9 -3.8 5.9 -3.8 5.7 -3.75 5.45 -3.6 5.15 -3.1 4.45 -2.45 4.45 L-2.15 4.45 -2.0 4.5 -1.85 4.4 Q-1.6 4.25 -1.4 4.25 L-1.4 4.2 -1.3 4.15 -1.05 4.3 Q-0.95 4.35 -0.9 4.35 -0.75 4.35 -0.5 4.05 -0.25 3.75 -0.15 3.75 L0.2 3.95 Q0.6 4.15 0.65 4.15 L0.95 4.1 1.3 4.0 Q1.45 4.0 2.0 4.25 L2.35 4.4 2.35 4.35 Q2.7 4.4 3.1 4.95 3.55 5.65 3.55 6.45 3.55 7.35 2.85 8.3 L2.8 8.45 Q2.2 9.3 2.2 9.75 2.2 10.2 2.3 10.5 L2.65 10.65 Q2.9 10.8 3.1 10.95 L3.2 10.95 3.2 11.0 3.25 11.1 Q3.5 11.2 3.65 11.55 4.05 12.2 4.05 13.45 4.05 14.45 3.35 14.65 2.9 14.8 2.45 14.65 2.45 15.15 2.6 15.35 2.6 15.7 2.45 16.0 L2.25 16.45 Q1.55 16.9 1.1 17.5 0.85 17.8 0.25 17.8 -0.35 17.8 -0.65 17.65 L-1.1 17.25 Q-1.4 16.9 -1.6 16.9 L-2.05 16.9 -2.2 16.75 -2.4 16.5 -2.9 16.05 -3.25 15.65 -3.2 14.9 Q-2.95 14.65 -2.85 14.7 L-2.8 14.8 Q-2.65 14.8 -2.5 14.55 L-2.2 14.1 -2.2 13.9 Q-2.2 13.85 -2.4 13.55 L-2.65 13.1 Q-2.8 13.1 -3.1 13.2 -3.45 13.35 -3.45 13.5 -3.45 13.75 -3.4 13.9 L-3.15 14.2 -3.15 14.45 -3.5 14.7 Q-3.75 14.85 -3.85 14.85 -4.45 14.85 -5.0 14.3 -5.45 13.85 -5.7 13.15 -6.0 12.45 -5.95 11.95 -5.9 11.4 -5.5 11.4 L-5.45 11.4 -5.3 11.3 -4.9 11.25 Q-4.7 10.95 -4.75 10.5 L-4.8 10.1 Q-4.95 9.95 -5.0 9.45 -5.0 9.0 -4.85 8.45 L2.8 8.45 -4.85 8.45 M3.05 17.35 L3.15 17.55 3.3 17.6 3.4 17.95 Q3.5 18.2 3.65 18.35 3.7 18.2 3.75 18.15 L4.0 18.15 4.05 18.05 Q4.1 17.95 4.2 17.95 4.95 18.35 4.65 18.9 4.3 19.5 3.9 19.5 L3.85 19.5 3.75 19.55 Q3.65 19.55 3.2 19.3 L2.75 19.0 Q2.65 18.75 2.5 18.5 2.35 18.3 2.35 17.95 L2.35 17.85 Q2.45 16.85 2.55 16.65 2.6 16.6 2.65 16.6 L2.8 17.2 Q2.85 17.35 3.05 17.35 M0.9 13.8 Q0.7 13.5 0.45 13.45 L0.2 13.2 Q0.0 13.0 -0.2 13.0 L-0.25 13.25 -0.6 13.6 -0.55 13.65 -0.6 13.7 -0.6 13.9 Q-0.45 14.3 -0.2 14.5 0.05 14.7 0.35 14.7 L0.7 14.65 Q1.0 14.55 1.05 14.3 L1.15 14.2 Q1.15 14.1 0.9 13.8 M2.2 21.95 L2.2 22.05 2.15 22.2 Q2.0 22.35 1.75 22.35 1.65 22.35 1.6 22.2 L1.5 21.9 1.5 21.75 Q1.55 21.7 1.6 21.7 L1.65 21.55 Q1.7 21.45 1.8 21.4 L1.95 21.3 Q2.05 21.35 2.25 21.45 2.35 21.55 2.35 21.65 2.35 21.8 2.2 21.95 M0.6 22.75 L0.6 22.5 0.8 22.35 Q0.85 22.25 0.95 22.25 1.05 22.25 1.15 22.3 L1.25 22.35 1.3 22.4 1.3 22.65 Q1.2 22.75 0.95 22.85 L0.6 22.85 0.6 22.75 M0.1 22.9 L-0.15 22.9 Q-0.45 22.9 -0.7 22.8 -1.05 22.7 -1.1 22.4 -1.05 22.15 -0.7 22.15 -0.35 22.15 -0.3 21.85 L-0.05 22.0 Q0.2 22.15 0.25 22.25 L0.1 22.9 M-3.45 16.15 L-3.05 16.15 -3.05 16.65 -3.15 16.7 -3.45 16.4 -3.45 16.15 M-3.85 16.8 Q-3.75 16.6 -3.6 16.6 -3.5 16.6 -3.35 16.8 L-3.1 17.15 Q-3.05 17.6 -2.8 17.85 -2.6 18.05 -2.4 18.05 L-2.25 18.0 -2.1 17.9 -1.8 18.3 -1.8 18.45 -1.65 18.25 Q-1.55 18.15 -1.45 18.15 L-1.35 18.15 -1.35 18.75 -1.45 18.85 Q-1.55 18.9 -1.65 18.9 L-1.75 18.8 Q-1.8 18.7 -1.9 18.7 -2.0 18.8 -2.25 18.95 L-2.75 19.2 Q-3.05 19.0 -3.55 18.55 L-3.75 18.5 Q-3.85 18.5 -3.9 18.2 -3.9 18.0 -4.0 17.7 L-4.1 17.35 -3.85 16.8 M-1.1 21.95 L-1.2 22.15 -1.3 22.2 Q-1.4 22.15 -1.5 22.1 L-1.65 21.9 -1.65 21.6 -1.6 21.55 -1.15 21.55 -1.1 21.65 -1.1 21.95" fill="#ffffff" fill-opacity="0.4" fill-rule="evenodd" stroke="none"/>
  </g>
</svg>
