<?xml version="1.0" encoding="UTF-8" standalone="no"?>
<svg xmlns:ffdec="https://www.free-decompiler.com/flash" xmlns:xlink="http://www.w3.org/1999/xlink" ffdec:objectType="shape" height="9.8px" width="5.4px" xmlns="http://www.w3.org/2000/svg">
  <g transform="matrix(1.0, 0.0, 0.0, 1.0, 3.0, 2.4)">
    <path d="M0.05 -2.0 L0.0 -1.95 -0.05 -1.95 -0.05 -2.0 0.0 -2.05 0.05 -2.05 0.05 -2.0 M1.2 -2.35 L1.2 -2.3 1.1 -2.2 1.05 -2.0 1.05 -2.05 1.0 -2.0 1.0 -2.1 0.9 -2.05 1.0 -2.25 1.15 -2.4 1.2 -2.35 M0.9 -0.9 L0.85 -1.2 Q0.8 -1.4 0.8 -1.45 L0.85 -1.55 0.9 -1.3 0.9 -0.9 M0.3 -0.95 L0.5 -0.6 Q0.6 -0.3 0.7 -0.2 L1.2 0.3 1.45 0.4 Q1.25 0.1 1.15 -0.25 L1.6 0.4 1.7 0.55 1.75 0.55 1.85 0.65 1.8 0.55 1.7 0.45 1.5 0.05 Q1.35 -0.25 1.35 -0.35 1.5 0.05 1.8 0.45 L2.25 1.0 Q2.3 1.05 2.25 1.05 L2.15 1.0 2.25 1.2 Q2.25 1.25 1.9 1.6 1.75 1.85 1.75 2.05 L1.75 1.9 Q1.75 1.7 1.8 1.55 L1.7 1.65 Q1.65 1.7 1.55 1.85 L1.5 1.9 Q1.45 1.95 1.4 2.05 1.35 2.1 1.35 2.2 L1.35 2.05 Q1.4 1.95 1.35 1.9 L1.45 1.7 1.55 1.45 Q1.3 1.6 1.15 1.8 0.95 2.15 1.0 2.65 L1.05 2.75 1.0 2.8 0.95 2.75 0.85 2.55 0.8 2.55 Q0.9 2.7 0.9 2.8 L0.75 2.7 0.5 2.55 0.4 2.55 0.3 2.5 -0.25 2.5 -0.5 2.55 -0.75 2.65 -0.8 2.75 -0.8 2.8 -0.85 2.8 Q-0.85 2.7 -0.8 2.55 L-0.75 2.55 -0.8 2.6 Q-0.9 2.6 -0.9 2.7 L-0.9 2.8 Q-0.95 3.15 -1.15 3.5 -1.3 3.7 -1.4 3.8 -1.4 3.9 -1.45 3.95 L-1.55 3.95 Q-1.6 3.95 -2.15 3.6 L-2.45 3.45 -2.65 3.25 -2.7 3.25 -2.7 3.35 -2.75 3.45 -2.75 3.2 Q-2.8 3.15 -2.75 3.15 -2.6 3.15 -2.4 2.95 L-2.25 2.8 -2.15 2.5 Q-2.05 2.25 -2.05 2.15 -2.05 1.9 -2.1 1.65 -2.15 1.5 -2.2 1.4 -2.25 1.3 -2.2 1.25 L-1.85 0.9 -1.65 0.55 Q-1.65 0.65 -1.75 0.8 -1.65 0.9 -1.5 1.0 L-1.15 1.05 -1.0 1.0 -0.9 0.9 Q-0.85 0.85 -0.8 0.65 L-0.75 0.45 Q-0.8 0.25 -0.75 0.05 L-0.7 -0.05 Q-0.7 0.3 -0.65 0.5 L-0.25 0.7 Q0.05 0.85 0.25 0.85 L0.6 0.85 Q0.85 0.8 0.95 0.6 L0.85 0.45 0.65 0.2 Q0.45 -0.2 0.4 -0.3 L0.4 -0.45 0.25 -0.95 0.3 -0.95 M1.4 3.4 Q1.1 3.1 1.1 2.95 L1.6 3.35 1.65 3.4 1.5 3.15 1.5 3.1 1.45 3.0 1.45 2.95 1.6 3.2 Q1.65 3.35 1.75 3.35 L1.8 3.35 1.9 3.5 1.9 3.45 1.85 3.25 1.8 3.1 1.85 3.2 1.85 3.15 1.95 3.3 1.95 3.2 2.1 3.55 2.2 3.7 2.25 3.8 2.4 4.05 2.4 4.1 2.35 4.1 2.2 4.25 2.0 4.4 Q2.0 4.35 2.15 4.2 L2.2 4.15 2.15 4.1 2.05 4.1 Q1.9 4.1 1.95 4.05 L1.95 4.0 1.8 4.0 1.85 3.95 1.8 3.9 1.85 3.85 1.9 3.85 1.75 3.75 Q1.45 3.6 1.4 3.55 L1.45 3.5 Q1.5 3.5 1.6 3.6 L1.4 3.4 M1.7 5.15 L1.7 5.3 Q1.7 5.4 1.6 5.5 L1.65 5.35 1.65 5.15 1.7 5.15 M1.85 5.05 L1.85 5.6 1.75 5.65 Q1.75 5.55 1.8 5.55 L1.8 5.15 1.85 5.05 M-1.65 -0.95 L-1.4 -0.8 -1.3 -0.7 -1.2 -0.65 -0.95 -0.5 -1.2 -0.6 -1.3 -0.65 -1.55 -0.65 -1.55 -0.55 -1.6 -0.7 -1.7 -0.9 -1.65 -0.95 M-0.75 -0.45 Q-0.7 -0.45 -0.65 -0.55 L-0.5 -0.65 -0.5 -0.6 -0.6 -0.45 Q-0.65 -0.4 -0.7 -0.4 L-0.75 -0.4 -0.75 -0.45 M-2.0 2.2 L-2.1 2.4 Q-2.1 2.45 -2.15 2.6 L-2.1 2.8 -1.9 3.15 Q-1.75 3.25 -1.6 3.25 -1.2 3.25 -1.2 2.55 L-1.3 2.4 Q-1.55 2.1 -1.85 2.1 L-2.0 2.15 -2.0 2.2 M-2.95 3.9 L-3.0 3.9 -2.8 3.65 -2.8 3.75 -2.75 3.85 -2.6 3.95 -2.5 3.95 -2.1 4.0 -2.1 4.05 -2.2 4.05 -2.55 4.0 -2.95 3.9 M-2.25 5.25 L-2.2 5.15 Q-2.25 5.25 -2.5 5.55 L-2.5 5.5 Q-2.5 5.4 -2.4 5.35 L-2.3 5.25 -2.25 5.25 M-0.55 6.7 L-0.35 6.4 -0.4 6.55 Q-0.5 6.75 -0.55 6.75 L-0.55 6.7 M-0.8 7.4 L-0.85 7.25 -0.75 7.3 -0.75 7.4 -0.8 7.4" fill="#ffffff" fill-rule="evenodd" stroke="none"/>
  </g>
</svg>
