<?xml version="1.0" encoding="UTF-8" standalone="no"?>
<svg xmlns:ffdec="https://www.free-decompiler.com/flash" xmlns:xlink="http://www.w3.org/1999/xlink" ffdec:objectType="shape" height="3.85px" width="5.35px" xmlns="http://www.w3.org/2000/svg">
  <g transform="matrix(1.0, 0.0, 0.0, 1.0, 3.0, -3.55)">
    <path d="M2.35 4.0 L2.35 4.05 2.1 4.2 1.85 4.25 Q1.9 4.15 2.05 4.1 L2.15 4.05 2.0 4.0 2.35 4.0 M1.65 4.05 L1.35 4.15 Q1.15 4.25 1.05 4.3 L1.3 4.05 1.15 4.15 Q1.1 4.15 1.1 4.1 L1.0 4.15 0.9 4.25 0.85 4.2 Q0.9 4.1 1.05 4.05 L1.2 3.95 1.25 4.0 1.35 3.95 1.4 3.95 1.45 4.0 1.5 4.0 1.65 4.05 M1.8 4.15 L1.65 4.25 1.5 4.45 1.45 4.4 Q1.5 4.25 1.7 4.15 L1.8 4.0 1.8 4.15 M0.65 4.75 L0.65 4.9 0.6 4.95 0.6 4.9 0.65 4.75 M0.75 4.6 L0.85 4.25 0.85 4.45 0.8 4.55 0.8 4.6 0.75 4.6 M0.9 4.95 L0.9 5.0 1.0 5.0 1.15 5.1 1.25 5.15 1.25 5.0 1.3 4.9 1.35 5.15 1.4 5.2 1.55 5.25 Q1.6 5.25 1.65 5.4 L1.65 5.45 1.75 5.45 1.75 5.3 1.8 5.25 Q1.85 5.25 1.85 5.4 L1.85 5.6 Q1.85 5.65 1.6 5.7 1.35 5.85 1.3 5.85 L1.45 5.7 1.15 5.8 1.25 5.7 0.95 5.8 Q0.75 5.85 0.65 6.0 0.8 5.9 0.85 5.9 L0.9 5.95 0.8 6.1 0.65 6.25 0.55 6.55 0.5 6.75 0.6 6.55 0.95 6.1 0.65 6.6 0.35 7.2 0.35 7.15 0.3 7.1 0.35 6.15 0.45 5.8 0.4 5.85 Q0.35 5.6 0.5 5.35 0.6 5.2 0.7 5.15 L0.8 5.05 0.8 4.9 0.85 4.9 0.9 4.95 M0.25 5.7 L0.2 5.9 0.05 6.05 0.0 6.05 -0.15 5.95 Q-0.25 5.85 -0.3 5.7 -0.35 5.7 -0.3 5.7 -0.25 5.7 -0.2 5.8 L-0.15 5.8 -0.2 5.75 0.0 5.8 Q0.05 5.8 0.1 5.75 L0.2 5.65 0.25 5.7 M0.05 6.15 L-0.1 6.2 Q-0.15 6.2 -0.15 6.15 L-0.15 6.05 0.0 6.15 0.1 6.05 0.05 6.15 M0.2 7.25 L0.1 7.25 0.05 7.2 0.0 7.2 Q0.1 7.1 0.1 6.9 L0.25 7.2 0.25 7.25 0.2 7.25 M-2.95 3.9 L-2.7 3.9 -2.7 3.95 -2.85 3.95 -2.75 4.05 -2.45 4.1 -2.45 4.15 -2.6 4.15 -2.7 4.25 -2.9 4.05 -3.0 3.9 -2.95 3.9 M-1.4 4.7 L-1.5 4.65 -1.7 4.65 -1.7 4.7 -1.6 4.6 Q-1.5 4.6 -1.4 4.65 L-1.4 4.7 M-1.15 4.85 L-1.05 4.95 Q-0.95 5.0 -0.8 5.25 L-0.75 5.25 -0.7 5.3 -0.65 5.45 -0.5 5.65 Q-0.25 6.0 -0.25 6.2 -0.25 6.4 -0.4 6.6 L-0.55 6.8 -0.75 7.25 -0.75 7.35 -0.8 7.35 Q-0.85 7.35 -0.95 7.15 L-1.1 6.8 -1.25 6.4 -1.35 6.25 -1.4 6.15 -1.25 6.3 Q-1.15 6.35 -1.1 6.35 L-1.05 6.35 -0.85 5.8 Q-0.75 5.7 -0.75 5.5 L-0.75 5.4 -0.8 5.35 Q-1.15 4.95 -1.55 4.95 L-1.85 5.05 -1.9 5.0 -1.9 5.05 -1.95 5.05 Q-1.85 4.9 -1.65 4.8 -1.5 4.75 -1.4 4.75 -1.3 4.75 -1.15 4.85 M-1.7 3.85 L-1.6 3.95 -1.6 4.0 -1.65 3.9 -1.7 3.85 M-2.15 3.55 L-2.2 3.6 -2.25 3.55 -2.15 3.55 M-2.25 4.15 Q-2.2 4.15 -2.15 4.2 L-2.1 4.25 -2.3 4.2 -2.3 4.15 -2.25 4.15 M-2.3 5.25 L-2.15 5.05 -2.0 4.9 Q-2.0 5.0 -2.1 5.1 L-2.3 5.3 -2.3 5.25 M-2.0 5.35 Q-2.15 5.4 -2.4 5.55 L-2.2 5.6 -1.95 5.7 -2.05 5.7 -2.3 5.65 -2.5 5.55 -2.45 5.55 Q-2.35 5.4 -2.2 5.4 L-2.0 5.35 M-0.25 7.2 L-0.5 7.25 -0.6 7.35 -0.75 7.4 Q-0.7 7.3 -0.55 7.25 L-0.3 7.2 -0.25 7.2" fill="#ffffff" fill-rule="evenodd" stroke="none"/>
  </g>
</svg>
