<?xml version="1.0" encoding="UTF-8" standalone="no"?>
<svg xmlns:ffdec="https://www.free-decompiler.com/flash" xmlns:xlink="http://www.w3.org/1999/xlink" ffdec:objectType="shape" height="3.45px" width="5.3px" xmlns="http://www.w3.org/2000/svg">
  <g transform="matrix(1.0, 0.0, 0.0, 1.0, 2.95, -3.95)">
    <path d="M2.2 4.2 L2.1 4.35 2.05 4.35 Q2.1 4.2 2.25 4.1 L2.15 4.1 2.1 4.05 2.2 4.0 2.35 4.0 2.35 4.1 Q2.35 4.15 2.2 4.2 M1.75 4.15 L1.6 4.3 1.6 4.25 Q1.6 4.15 1.7 4.15 L1.75 4.15 M1.3 3.95 Q1.35 3.95 1.4 4.0 L1.4 4.05 1.35 4.0 1.3 4.0 1.2 4.05 1.05 4.1 1.05 4.05 1.1 4.05 1.15 4.0 1.25 3.95 1.3 3.95 M0.6 5.2 L0.65 5.15 0.65 5.2 0.8 5.05 0.95 5.2 0.75 5.25 0.6 5.35 0.6 5.3 Q0.55 5.4 0.55 5.45 L0.55 5.65 0.6 5.75 0.6 5.85 0.55 5.9 0.55 6.1 0.65 6.05 Q0.75 5.95 0.8 5.95 L0.85 6.0 0.6 6.45 0.6 6.5 0.7 6.35 0.7 6.4 0.8 6.25 Q1.0 5.95 1.15 5.9 0.9 6.2 0.65 6.55 L0.55 6.8 0.4 7.1 0.35 7.25 0.3 7.3 0.2 7.3 0.35 7.0 0.35 6.3 0.4 6.05 0.4 5.9 0.45 5.7 0.4 5.7 0.4 5.6 0.45 5.55 0.5 5.35 0.6 5.25 0.6 5.2 M1.4 5.2 L1.3 5.35 1.35 5.35 Q1.4 5.35 1.4 5.4 L1.35 5.45 1.35 5.5 1.25 5.45 1.15 5.45 Q1.0 5.5 0.9 5.55 L0.9 5.5 1.1 5.4 1.35 5.15 Q1.4 5.15 1.4 5.2 M1.4 5.55 L1.65 5.3 1.7 5.3 1.7 5.35 Q1.7 5.5 1.6 5.55 L1.4 5.6 1.4 5.55 M1.8 5.45 L1.8 5.6 1.7 5.6 1.8 5.45 M0.15 7.1 L0.25 7.2 0.2 7.2 0.15 7.15 0.15 7.1 M-2.9 3.95 L-2.7 4.0 -2.85 4.0 -2.8 4.05 -2.8 4.1 -2.9 4.0 Q-2.95 4.0 -2.9 3.95 M-1.4 4.8 L-1.4 4.8 M-1.2 4.85 L-1.25 4.9 Q-1.35 4.8 -1.45 4.8 L-1.65 4.85 -1.9 4.95 Q-1.65 4.65 -1.45 4.65 L-1.3 4.7 Q-1.25 4.7 -1.2 4.85 M-2.3 5.4 L-2.25 5.45 -2.3 5.55 -2.3 5.6 -2.2 5.6 -2.2 5.65 -2.3 5.65 -2.55 5.55 -2.5 5.55 -2.5 5.5 Q-2.45 5.45 -2.4 5.45 L-2.25 5.4 -2.3 5.4 M-2.45 5.55 L-2.45 5.55 M-0.2 5.75 L-0.2 5.8 -0.1 5.9 -0.05 6.0 -0.15 6.0 -0.2 5.85 -0.25 5.75 -0.2 5.75 M-0.45 5.65 Q-0.3 5.9 -0.25 6.15 L-0.25 6.4 -0.55 6.85 Q-0.75 7.05 -0.75 7.3 L-0.75 7.35 -0.8 7.4 Q-0.85 7.4 -0.95 7.15 L-1.05 6.95 -1.0 7.0 Q-0.95 6.95 -0.75 6.5 -0.55 6.1 -0.45 6.0 L-0.5 5.7 Q-0.5 5.65 -0.45 5.65 M0.0 6.15 L-0.05 6.15 Q-0.1 6.15 -0.1 6.1 L0.0 6.1 0.0 6.15" fill="#ffffff" fill-rule="evenodd" stroke="none"/>
  </g>
</svg>
