<?xml version="1.0" encoding="UTF-8" standalone="no"?>
<svg xmlns:ffdec="https://www.free-decompiler.com/flash" xmlns:xlink="http://www.w3.org/1999/xlink" ffdec:objectType="shape" height="10.4px" width="10.4px" xmlns="http://www.w3.org/2000/svg">
  <g transform="matrix(1.0, 0.0, 0.0, 1.0, -0.75, -0.9)">
    <path d="M9.65 2.4 Q11.15 3.95 11.15 6.1 11.15 8.25 9.65 9.8 8.15 11.3 5.95 11.3 3.8 11.3 2.3 9.8 0.75 8.25 0.75 6.1 0.75 3.95 2.3 2.4 3.8 0.9 5.95 0.9 8.15 0.9 9.65 2.4 M10.25 5.7 Q10.25 4.3 9.5 3.2 9.25 2.8 8.9 2.45 7.55 1.1 5.65 1.1 3.75 1.1 2.4 2.45 1.05 3.8 1.05 5.7 1.05 7.35 2.1 8.6 L2.4 8.95 Q3.75 10.25 5.65 10.25 7.55 10.25 8.9 8.95 10.25 7.6 10.25 5.7" fill="#ffff66" fill-opacity="0.1254902" fill-rule="evenodd" stroke="none"/>
    <path d="M9.25 5.25 Q9.25 3.95 8.55 2.95 L8.1 2.45 Q6.95 1.3 5.3 1.3 3.65 1.3 2.5 2.45 1.35 3.65 1.35 5.25 1.35 6.85 2.4 8.0 L2.5 8.05 Q3.65 9.25 5.3 9.25 6.95 9.25 8.1 8.05 9.25 6.9 9.25 5.25 M10.25 5.7 Q10.25 7.6 8.9 8.95 7.55 10.25 5.65 10.25 3.75 10.25 2.4 8.95 L2.1 8.6 Q1.05 7.35 1.05 5.7 1.05 3.8 2.4 2.45 3.75 1.1 5.65 1.1 7.55 1.1 8.9 2.45 9.25 2.8 9.5 3.2 10.25 4.3 10.25 5.7" fill="#ffff66" fill-opacity="0.2509804" fill-rule="evenodd" stroke="none"/>
    <path d="M8.2 4.9 Q8.2 3.5 7.2 2.5 6.25 1.55 4.85 1.55 3.45 1.55 2.5 2.5 1.5 3.5 1.5 4.9 1.5 6.25 2.5 7.25 L2.95 7.65 Q3.75 8.25 4.85 8.25 6.25 8.25 7.2 7.25 8.2 6.25 8.2 4.9 M9.25 5.25 Q9.25 6.9 8.1 8.05 6.95 9.25 5.3 9.25 3.65 9.25 2.5 8.05 L2.4 8.0 Q1.35 6.85 1.35 5.25 1.35 3.65 2.5 2.45 3.65 1.3 5.3 1.3 6.95 1.3 8.1 2.45 L8.55 2.95 Q9.25 3.95 9.25 5.25" fill="#ffff66" fill-opacity="0.3764706" fill-rule="evenodd" stroke="none"/>
    <path d="M8.2 4.9 Q8.2 6.25 7.2 7.25 6.25 8.25 4.85 8.25 3.75 8.25 2.95 7.65 L2.5 7.25 Q1.5 6.25 1.5 4.9 1.5 3.5 2.5 2.5 3.45 1.55 4.85 1.55 6.25 1.55 7.2 2.5 8.2 3.5 8.2 4.9" fill="#ffff66" fill-opacity="0.5019608" fill-rule="evenodd" stroke="none"/>
  </g>
</svg>
