<?xml version="1.0" encoding="UTF-8" standalone="no"?>
<svg xmlns:ffdec="https://www.free-decompiler.com/flash" xmlns:xlink="http://www.w3.org/1999/xlink" ffdec:objectType="shape" height="33.65px" width="6.85px" xmlns="http://www.w3.org/2000/svg">
  <g transform="matrix(1.0, 0.0, 0.0, 1.0, 3.4, 4.85)">
    <path d="M-2.15 9.25 L-2.05 9.5 -1.95 9.6 -1.8 9.8 -1.6 9.8 -1.55 9.65 Q-1.5 9.6 -1.35 9.6 L-1.3 9.6 Q-1.25 9.6 -1.15 9.7 L-1.0 9.75 Q-0.7 9.75 -0.45 8.3 L-0.4 8.1 -0.35 7.65 -0.3 7.35 -0.25 6.8 Q-0.25 6.3 -0.75 5.75 -1.3 5.15 -1.45 4.45 L-1.7 3.25 -1.75 3.2 Q-2.85 1.6 -2.95 1.3 L-3.35 -0.5 Q-3.3 -1.15 -3.2 -1.6 L-3.2 -1.65 Q-3.2 -3.2 -1.9 -3.85 L-1.85 -3.9 Q-0.95 -4.8 -0.05 -4.8 0.7 -4.8 1.5 -4.2 L1.8 -3.9 Q1.9 -3.85 2.0 -3.8 L2.15 -3.7 Q3.35 -2.75 3.35 -0.65 3.35 -0.35 2.95 0.7 L2.4 2.1 2.25 2.55 2.2 2.65 2.1 2.95 2.05 3.0 2.05 3.35 2.0 3.85 1.9 4.3 1.85 4.5 1.85 4.55 Q1.65 5.25 1.25 5.95 0.6 7.2 0.5 7.8 L0.45 7.85 0.45 8.05 Q0.45 8.4 0.65 9.1 L0.75 9.4 0.8 9.5 Q1.0 9.95 1.25 9.95 L1.35 9.9 1.5 9.85 1.55 9.7 1.65 9.5 1.65 9.35 1.7 9.35 1.7 9.25 Q1.8 8.9 1.9 8.6 L2.1 8.2 2.1 8.25 Q2.2 8.5 2.25 8.85 L2.25 8.9 2.25 9.0 2.3 9.45 2.3 9.95 2.25 10.55 2.2 10.9 Q2.1 11.3 1.9 11.6 L1.7 12.15 1.7 12.2 Q1.5 12.6 1.2 12.8 L1.0 12.9 1.0 12.95 0.6 13.05 0.5 13.05 0.2 13.1 Q-0.1 13.1 -0.3 12.85 -0.15 13.2 0.25 13.2 L0.45 13.25 0.5 13.3 0.55 13.5 0.55 13.7 0.5 13.8 Q0.65 14.05 0.75 14.65 L0.75 14.8 0.85 15.1 Q0.95 15.5 1.15 15.75 L1.25 15.55 Q1.3 15.45 1.45 15.45 L1.65 15.75 1.65 15.8 Q1.65 16.15 1.5 16.8 1.25 17.7 0.95 17.7 L0.9 17.7 0.85 17.65 Q0.4 17.55 0.3 16.5 L0.25 15.3 0.25 15.25 0.35 15.05 Q0.45 14.8 0.45 14.65 0.45 14.55 0.35 14.2 L0.25 13.85 0.15 13.85 -0.1 13.65 -0.55 13.05 -1.0 12.4 -1.1 12.25 -1.15 12.2 -1.3 12.35 Q-1.4 12.45 -1.45 12.45 -2.05 12.45 -2.3 11.2 L-2.4 10.45 -2.4 10.2 -2.45 9.95 -2.4 9.8 -2.4 9.75 -2.35 9.35 -2.25 9.1 -2.2 8.95 -2.2 8.8 -2.0 8.25 -2.15 8.8 -2.15 9.0 -2.2 9.15 -2.15 9.2 -2.15 9.25 M-1.8 10.3 Q-1.95 10.4 -1.95 10.65 L-1.9 11.15 Q-1.75 11.55 -1.4 11.55 -1.25 11.55 -1.05 11.45 L-1.0 11.4 -0.9 11.45 Q-0.6 11.5 -0.25 11.9 0.05 12.25 0.3 12.25 L1.05 12.25 Q1.75 11.6 1.9 10.55 L1.8 10.45 Q1.85 10.4 1.7 10.4 1.6 10.4 1.4 10.75 1.25 11.1 0.95 11.1 0.55 11.1 0.25 10.35 0.05 9.75 0.05 9.45 0.1 8.7 0.05 8.35 L0.0 8.35 Q0.0 8.95 -0.2 9.7 -0.45 10.55 -0.75 10.55 L-0.95 10.45 Q-1.05 10.35 -1.15 10.35 L-1.3 10.4 Q-1.3 10.7 -1.4 10.7 L-1.6 10.65 Q-1.75 10.35 -1.8 10.3 M2.65 -0.75 Q2.65 -2.15 1.45 -3.0 0.6 -3.6 -0.1 -3.6 -1.15 -3.6 -1.8 -2.85 -2.0 -2.7 -2.2 -2.35 -2.5 -2.0 -2.6 -1.25 -2.8 -1.0 -2.65 -0.15 L-2.6 0.25 -2.55 0.35 Q-2.3 1.4 -1.8 1.9 -1.35 2.4 -0.95 3.05 L-0.6 3.7 -0.45 3.95 Q-0.15 4.65 -0.1 5.25 L-0.1 5.4 0.05 5.65 Q0.3 4.65 0.3 4.3 L0.3 4.25 0.5 3.75 Q0.9 2.65 1.05 2.45 1.6 1.75 2.25 1.05 2.65 0.45 2.65 -0.75 M-1.55 17.2 L-1.5 17.15 Q-1.4 17.4 -1.4 17.85 L-1.4 18.85 -1.45 19.75 -1.45 19.95 Q-1.65 19.05 -1.65 17.85 L-1.65 17.4 Q-1.65 17.25 -1.55 17.2 M0.0 23.7 L-0.1 23.8 -0.1 23.75 -0.15 23.7 -0.2 23.55 -0.25 23.3 -0.2 22.75 Q-0.15 22.35 -0.05 22.25 0.0 22.45 0.0 22.95 L0.0 23.7 M-0.05 26.15 Q0.2 27.05 0.2 27.95 0.2 28.45 -0.1 28.45 -0.35 28.25 -0.35 27.95 L-0.25 27.55 -0.2 27.1 -0.1 26.15 -0.05 26.15 M-0.2 24.6 Q-0.2 24.25 -0.05 24.15 L0.05 25.1 0.0 25.35 -0.05 25.5 Q-0.2 25.25 -0.2 25.1 L-0.2 24.6 M0.85 15.9 L0.75 15.75 Q0.65 15.75 0.55 15.8 L0.6 15.95 0.6 16.55 Q0.65 16.95 0.95 17.25 1.05 17.15 1.15 16.8 L1.25 16.45 1.15 16.25 0.85 15.9" fill="#443059" fill-rule="evenodd" stroke="none"/>
    <path d="M-0.65 11.05 L-0.8 11.15 Q-0.95 11.1 -0.95 11.0 -0.8 10.95 -0.65 11.05 M-0.35 10.9 L-0.15 10.7 Q0.0 10.8 0.1 11.05 L0.25 11.35 Q0.4 11.5 0.7 11.45 0.7 11.5 0.8 11.6 0.6 11.85 0.5 11.85 0.2 11.85 0.05 11.6 -0.05 11.45 -0.05 11.3 L-0.05 11.25 Q-0.35 11.25 -0.5 11.1 L-0.35 10.9" fill="#7e59a6" fill-rule="evenodd" stroke="none"/>
    <path d="M2.25 8.9 L2.25 8.85 Q2.2 8.5 2.1 8.25 L2.1 8.2 1.9 8.6 Q1.8 8.9 1.7 9.25 L1.7 9.35 1.65 9.35 1.65 9.5 1.55 9.7 1.5 9.85 1.35 9.9 1.25 9.95 Q1.0 9.95 0.8 9.5 L0.75 9.4 0.65 9.1 Q0.45 8.4 0.45 8.05 L0.45 7.85 0.5 7.8 Q0.6 7.2 1.25 5.95 1.65 5.25 1.85 4.55 L1.85 4.5 1.9 4.3 2.0 3.85 2.05 3.35 2.05 3.0 2.1 2.95 2.2 2.65 2.25 2.55 2.4 2.1 2.95 0.7 Q3.35 -0.35 3.35 -0.65 3.35 -2.75 2.15 -3.7 L2.0 -3.8 Q1.9 -3.85 1.8 -3.9 L1.5 -4.2 Q0.7 -4.8 -0.05 -4.8 -0.95 -4.8 -1.85 -3.9 L-1.9 -3.85 Q-3.2 -3.2 -3.2 -1.65 L-3.2 -1.6 Q-3.3 -1.15 -3.35 -0.5 L-2.95 1.3 Q-2.85 1.6 -1.75 3.2 L-1.7 3.25 -1.45 4.45 Q-1.3 5.15 -0.75 5.75 -0.25 6.3 -0.25 6.8 L-0.3 7.35 -0.35 7.65 -0.4 8.1 -0.45 8.3 Q-0.7 9.75 -1.0 9.75 L-1.15 9.7 Q-1.25 9.6 -1.3 9.6 L-1.35 9.6 Q-1.5 9.6 -1.55 9.65 L-1.6 9.8 -1.8 9.8 -1.95 9.6 -2.05 9.5 -2.15 9.25 -2.15 9.2 -2.2 9.15 -2.15 9.0 -2.15 8.8 -2.0 8.25 -2.2 8.8 -2.2 8.95 -2.25 9.1 -2.35 9.35 -2.4 9.75 -2.4 9.8 -2.45 9.95 -2.4 10.2 -2.4 10.45 -2.3 11.2 Q-2.05 12.45 -1.45 12.45 -1.4 12.45 -1.3 12.35 L-1.1 12.25 -1.0 12.4 -0.55 13.05 -0.1 13.65 0.15 13.85 0.25 13.85 0.35 14.2 Q0.45 14.55 0.45 14.65 0.45 14.8 0.35 15.05 L0.25 15.25 0.25 15.3 0.3 16.5 Q0.4 17.55 0.85 17.65 L0.85 17.75 0.9 17.7 0.95 17.7 Q1.25 17.7 1.5 16.8 1.65 16.15 1.65 15.8 L1.65 15.75 1.45 15.45 Q1.3 15.45 1.25 15.55 L1.15 15.75 Q0.95 15.5 0.85 15.1 L0.75 14.8 0.75 14.65 Q0.65 14.05 0.5 13.8 L0.55 13.7 0.55 13.5 0.5 13.3 0.45 13.25 0.25 13.2 Q-0.15 13.2 -0.3 12.85 -0.1 13.1 0.2 13.1 L0.5 13.05 0.6 13.05 1.0 12.95 1.0 12.9 1.2 12.8 Q1.5 12.6 1.7 12.2 L1.7 12.15 1.9 11.6 Q2.1 11.3 2.2 10.9 L2.25 10.55 2.25 10.65 2.3 10.45 2.3 9.5 2.25 8.9 M1.75 -4.2 Q2.1 -4.05 2.55 -3.55 3.05 -2.95 3.15 -2.5 L3.3 -1.6 3.45 -0.5 Q3.45 0.6 2.95 1.75 L2.4 3.05 2.4 3.1 2.35 3.55 2.35 3.7 Q2.35 4.0 2.15 4.25 1.95 5.2 1.5 6.0 L0.95 6.95 Q0.65 7.45 0.65 7.95 1.0 9.15 1.35 9.15 1.75 9.15 1.8 8.5 L1.75 7.8 1.75 7.45 1.8 7.35 1.95 7.25 2.15 7.65 2.25 8.05 2.4 9.25 2.5 10.65 2.5 11.3 2.15 12.15 Q2.1 12.3 1.5 12.9 1.2 13.15 1.1 13.35 L1.0 13.55 1.0 13.65 Q1.05 14.15 1.45 14.2 1.9 14.3 1.9 14.95 L1.7 16.55 Q1.45 18.05 1.0 18.05 0.4 18.05 0.2 16.45 L0.1 14.75 Q0.1 13.5 -1.25 12.65 -1.35 12.75 -1.5 12.75 -2.15 12.75 -2.4 11.4 L-2.5 10.0 -2.4 8.95 Q-2.3 7.95 -1.95 7.95 L-1.85 8.0 Q-1.75 8.2 -1.75 8.6 -1.65 8.95 -1.35 9.1 -1.2 8.8 -0.9 8.5 -0.65 8.25 -0.6 7.9 -0.55 7.65 -0.45 6.65 -0.55 6.4 -0.8 6.0 L-1.45 5.0 -1.65 4.05 Q-1.75 3.45 -2.05 3.05 -3.0 1.8 -3.25 1.05 -3.4 0.55 -3.4 -0.75 -3.4 -1.5 -3.15 -2.4 -2.8 -3.5 -2.35 -3.75 -2.2 -3.85 -1.55 -4.4 -1.05 -4.85 -0.7 -4.85 0.95 -4.95 1.45 -4.55 L1.75 -4.2 M-1.4 15.35 L-1.35 15.45 -1.4 15.6 -1.5 15.65 -1.65 15.5 Q-1.65 15.4 -1.5 15.25 L-1.4 15.35 M-1.55 16.05 L-1.55 16.3 -1.2 18.4 -1.25 19.35 -1.25 19.9 -1.3 19.95 -1.35 19.95 Q-1.7 19.95 -1.7 19.1 L-1.7 18.2 -1.8 16.3 -1.75 15.9 Q-1.55 15.8 -1.55 16.05 M-1.55 17.2 Q-1.65 17.25 -1.65 17.4 L-1.65 17.85 Q-1.65 19.05 -1.45 19.95 L-1.45 19.75 -1.4 18.85 -1.4 17.85 Q-1.4 17.4 -1.5 17.15 L-1.55 17.2 M-0.15 23.7 Q-0.3 23.55 -0.35 22.9 L-0.4 22.1 Q-0.3 21.8 -0.3 21.55 -0.3 21.25 -0.25 21.2 0.1 22.15 0.1 23.1 L0.1 23.65 0.0 23.7 0.0 22.95 Q0.0 22.45 -0.05 22.25 -0.15 22.35 -0.2 22.75 L-0.25 23.3 -0.2 23.55 -0.15 23.7 M-0.1 23.8 Q0.15 24.05 0.15 25.0 0.2 25.55 0.0 25.55 -0.15 25.55 -0.2 25.45 L0.1 26.4 Q0.35 27.2 0.35 27.95 L0.3 28.4 Q0.25 28.8 0.05 28.8 -0.2 28.8 -0.35 28.45 L-0.45 28.1 -0.4 27.45 -0.3 26.8 -0.4 25.6 Q-0.4 25.35 -0.3 25.25 L-0.35 25.05 Q-0.35 23.55 -0.1 23.75 L-0.1 23.8 M-0.2 24.6 L-0.2 25.1 Q-0.2 25.25 -0.05 25.5 L0.0 25.35 0.05 25.1 -0.05 24.15 Q-0.2 24.25 -0.2 24.6 M-0.05 26.15 L-0.1 26.15 -0.2 27.1 -0.25 27.55 -0.35 27.95 Q-0.35 28.25 -0.1 28.45 0.2 28.45 0.2 27.95 0.2 27.05 -0.05 26.15 M0.9 14.0 L0.85 13.95 0.85 14.0 0.9 14.0" fill="#d0c1e0" fill-opacity="0.5019608" fill-rule="evenodd" stroke="none"/>
    <path d="M2.65 -0.75 Q2.65 0.45 2.25 1.05 1.6 1.75 1.05 2.45 0.9 2.65 0.5 3.75 L0.3 4.25 0.3 4.3 Q0.3 4.65 0.05 5.65 L-0.1 5.4 -0.1 5.25 Q-0.15 4.65 -0.45 3.95 L-0.6 3.7 -0.95 3.05 Q-1.35 2.4 -1.8 1.9 -2.3 1.4 -2.55 0.35 L-2.6 0.25 -2.65 -0.15 Q-2.8 -1.0 -2.6 -1.25 -2.5 -2.0 -2.2 -2.35 -2.0 -2.7 -1.8 -2.85 -1.15 -3.6 -0.1 -3.6 0.6 -3.6 1.45 -3.0 2.65 -2.15 2.65 -0.75 M-1.8 10.3 Q-1.75 10.35 -1.6 10.65 L-1.4 10.7 Q-1.3 10.7 -1.3 10.4 L-1.15 10.35 Q-1.05 10.35 -0.95 10.45 L-0.75 10.55 Q-0.45 10.55 -0.2 9.7 0.0 8.95 0.0 8.35 L0.05 8.35 Q0.1 8.7 0.05 9.45 0.05 9.75 0.25 10.35 0.55 11.1 0.95 11.1 1.25 11.1 1.4 10.75 1.6 10.4 1.7 10.4 1.85 10.4 1.8 10.45 L1.9 10.55 Q1.75 11.6 1.05 12.25 L0.3 12.25 Q0.05 12.25 -0.25 11.9 -0.6 11.5 -0.9 11.45 L-1.0 11.4 -1.05 11.45 Q-1.25 11.55 -1.4 11.55 -1.75 11.55 -1.9 11.15 L-1.95 10.65 Q-1.95 10.4 -1.8 10.3 M-0.35 10.9 L-0.5 11.1 Q-0.35 11.25 -0.05 11.25 L-0.05 11.3 Q-0.05 11.45 0.05 11.6 0.2 11.85 0.5 11.85 0.6 11.85 0.8 11.6 0.7 11.5 0.7 11.45 0.4 11.5 0.25 11.35 L0.1 11.05 Q0.0 10.8 -0.15 10.7 L-0.35 10.9 M-0.65 11.05 Q-0.8 10.95 -0.95 11.0 -0.95 11.1 -0.8 11.15 L-0.65 11.05 M0.85 15.9 L1.15 16.25 1.25 16.45 1.15 16.8 Q1.05 17.15 0.95 17.25 0.65 16.95 0.6 16.55 L0.6 15.95 0.55 15.8 Q0.65 15.75 0.75 15.75 L0.85 15.9" fill="#31214f" fill-rule="evenodd" stroke="none"/>
    <path d="M0.1 -3.2 L-0.25 -3.2 -0.55 -3.15 -0.9 -3.05 Q-0.95 -3.05 -0.95 -3.1 -0.95 -3.25 -0.45 -3.4 L-0.1 -3.4 0.1 -3.25 0.1 -3.2 M-1.1 1.6 L-0.6 1.9 -0.75 2.0 -0.5 2.1 -0.55 2.2 -0.85 2.05 -0.95 2.05 Q-1.25 2.05 -1.4 1.8 -1.65 1.7 -1.65 1.55 L-1.5 1.55 -1.5 1.45 Q-1.35 1.45 -1.1 1.6 M-0.2 1.5 L-0.05 1.75 Q0.0 1.85 -0.1 1.85 -0.3 1.85 -0.4 1.7 L-0.5 1.5 -0.5 1.4 Q-0.3 1.35 -0.2 1.5 M2.1 0.8 Q2.1 0.95 1.7 1.4 1.25 1.9 1.0 1.9 L1.6 1.2 Q1.9 0.75 2.05 0.7 2.1 0.65 2.1 0.8" fill="#7e59a6" fill-rule="evenodd" stroke="none"/>
  </g>
</svg>
