<?xml version="1.0" encoding="UTF-8" standalone="no"?>
<svg xmlns:ffdec="https://www.free-decompiler.com/flash" xmlns:xlink="http://www.w3.org/1999/xlink" ffdec:objectType="shape" height="36.45px" width="6.9px" xmlns="http://www.w3.org/2000/svg">
  <g transform="matrix(1.0, 0.0, 0.0, 1.0, 3.65, 4.65)">
    <path d="M-0.1 10.2 L-0.2 9.9 -0.25 9.85 Q-0.4 9.45 -0.4 9.1 -0.4 8.85 -0.3 8.45 L-0.2 8.15 Q0.05 7.6 0.05 7.45 0.05 7.0 -0.15 6.55 L-0.2 6.35 Q-0.4 5.95 -0.65 5.65 L-0.7 5.5 Q-1.3 4.8 -1.45 4.0 L-1.6 3.8 -1.7 3.6 Q-2.4 2.7 -2.85 1.65 -3.4 0.45 -3.45 -0.45 -3.75 -1.75 -3.15 -2.05 -2.85 -3.1 -1.85 -3.75 -1.3 -4.35 -0.75 -4.5 L-0.7 -4.5 -0.25 -4.6 Q0.1 -4.6 0.4 -4.45 0.85 -4.35 1.65 -3.8 L2.3 -2.9 2.95 -1.75 3.0 -1.6 3.0 -1.15 Q3.1 -0.8 3.1 -0.4 3.1 -0.05 3.0 0.25 L3.0 0.35 Q3.0 0.6 2.85 0.9 L2.5 1.45 2.45 1.5 2.2 1.8 Q1.9 2.1 1.65 2.45 L1.6 2.55 1.4 3.0 Q1.3 3.3 1.25 3.65 L1.25 3.8 1.3 4.2 1.3 4.25 1.35 4.8 1.35 5.35 Q1.35 5.5 1.55 6.55 L1.55 6.65 1.5 6.95 Q1.45 7.55 1.25 8.3 L1.1 8.6 Q0.7 9.4 0.55 9.95 L0.2 11.75 0.15 12.05 0.25 12.2 0.25 12.3 0.2 12.35 0.1 12.25 0.1 12.3 0.0 12.3 -0.05 11.5 -0.05 10.75 -0.05 10.7 Q-0.05 10.45 -0.1 10.2 M2.5 -0.55 Q2.5 -2.25 1.5 -3.05 0.8 -3.65 -0.05 -3.65 -0.75 -3.65 -1.5 -3.3 -2.85 -2.6 -2.85 -1.1 -2.85 -0.1 -2.55 0.7 -2.4 1.35 -2.0 1.9 L-1.15 2.7 -0.2 4.1 -0.15 4.2 Q0.2 5.1 0.3 5.9 0.4 6.35 0.4 6.8 L0.4 7.0 0.45 7.55 0.4 8.1 0.7 7.1 0.7 7.05 0.75 6.9 0.8 6.3 0.8 6.05 0.75 5.6 0.6 4.45 0.55 4.0 Q0.55 3.05 1.55 1.8 2.5 0.55 2.5 -0.55 M-0.5 18.05 Q-0.8 17.65 -1.05 16.9 -1.45 15.7 -1.45 15.25 L-1.4 14.9 Q-1.5 14.85 -1.35 14.85 L-1.3 14.85 Q-1.2 14.85 -1.05 15.0 -0.9 15.2 -0.8 15.2 -0.35 15.2 -0.25 14.9 L-0.2 14.55 -0.15 14.15 -0.05 14.15 0.0 15.25 Q0.1 16.05 0.55 16.05 0.75 16.05 1.05 15.75 L1.35 15.45 1.4 15.45 Q1.5 15.45 1.45 15.5 L1.5 15.55 1.5 15.65 1.45 16.2 1.45 16.4 1.45 16.9 Q1.45 17.25 1.15 17.65 L0.9 18.0 Q0.9 18.4 0.1 18.45 -0.2 18.45 -0.5 18.05 M-0.85 15.9 L-0.85 15.95 Q-0.75 16.4 -0.45 17.0 -0.05 17.8 0.25 17.8 0.5 17.8 0.8 17.5 1.0 17.15 1.0 16.95 1.0 16.75 0.85 16.6 L0.7 16.85 Q0.6 17.0 0.45 17.0 0.15 17.0 -0.05 16.45 -0.25 15.8 -0.3 15.7 L-0.4 15.8 -0.5 15.85 -0.6 15.75 Q-0.75 15.55 -0.9 15.55 L-0.95 15.55 -0.95 15.7 -0.85 15.9 M1.85 13.65 L1.8 14.15 1.6 14.25 1.55 14.25 1.55 14.1 Q1.55 13.95 1.65 13.7 L1.8 13.45 1.85 13.5 1.85 13.65 M1.15 20.95 Q1.1 21.05 1.1 21.35 1.1 21.65 0.85 21.65 L0.7 21.6 0.65 21.55 Q0.7 21.4 0.9 21.2 L1.15 20.95" fill="#443059" fill-rule="evenodd" stroke="none"/>
    <path d="M1.6 2.55 L1.65 2.45 Q1.9 2.1 2.2 1.8 L2.45 1.5 2.5 1.45 2.85 0.9 Q3.0 0.6 3.0 0.35 L3.0 0.25 Q3.1 -0.05 3.1 -0.4 3.1 -0.8 3.0 -1.15 L3.0 -1.6 2.95 -1.75 2.3 -2.9 1.65 -3.8 Q0.85 -4.35 0.4 -4.45 0.1 -4.6 -0.25 -4.6 L-0.7 -4.5 -0.75 -4.5 Q-1.3 -4.35 -1.85 -3.75 -2.85 -3.1 -3.15 -2.05 -3.75 -1.75 -3.45 -0.45 -3.4 0.45 -2.85 1.65 -2.4 2.7 -1.7 3.6 L-1.6 3.8 -1.45 4.0 Q-1.3 4.8 -0.7 5.5 L-0.65 5.65 Q-0.4 5.95 -0.2 6.35 L-0.15 6.55 Q0.05 7.0 0.05 7.45 0.05 7.6 -0.2 8.15 L-0.3 8.45 Q-0.4 8.85 -0.4 9.1 -0.4 9.45 -0.25 9.85 L-0.2 9.9 -0.1 10.2 -0.15 10.2 -0.15 10.3 -0.05 10.75 -0.05 11.5 0.0 12.3 0.1 12.3 0.1 12.25 0.2 12.35 0.25 12.3 0.25 12.2 0.15 12.05 0.2 11.75 0.55 9.95 Q0.7 9.4 1.1 8.6 L1.25 8.3 1.3 8.2 Q1.55 7.65 1.55 7.1 L1.5 6.95 1.55 6.65 1.55 6.55 Q1.35 5.5 1.35 5.35 L1.35 4.8 1.3 4.25 1.3 4.2 1.25 3.8 1.25 3.65 Q1.3 3.3 1.4 3.0 L1.6 2.55 M3.2 -0.6 Q3.2 0.65 2.5 1.65 L2.35 1.9 1.75 2.8 Q1.5 3.3 1.5 3.75 1.5 4.5 1.65 5.6 1.8 6.7 1.8 7.1 1.8 7.9 1.5 8.45 0.85 9.65 0.7 10.1 0.6 10.35 0.55 10.8 L0.45 11.55 0.4 12.3 Q0.4 12.75 0.2 12.95 L0.2 12.9 0.15 12.9 0.1 12.95 Q0.0 12.7 -0.25 11.05 L-0.4 10.0 -0.5 9.7 -0.6 9.15 -0.5 7.8 -0.35 6.9 Q-0.55 6.35 -0.9 5.5 L-1.2 5.15 Q-1.65 4.6 -1.65 4.1 L-1.6 3.95 Q-1.85 3.5 -2.0 3.4 -2.55 2.95 -2.85 2.35 L-3.2 1.25 -3.5 0.15 -3.65 -0.85 Q-3.65 -1.9 -2.85 -3.05 -1.85 -4.35 -0.45 -4.65 L-0.55 -4.6 Q0.75 -4.95 2.0 -3.5 2.5 -2.95 2.85 -2.25 L3.1 -1.65 Q3.2 -1.6 3.25 -1.4 L3.2 -0.6 M-1.55 13.1 L-1.4 13.6 Q-1.3 13.8 -1.0 14.05 L-0.5 14.45 Q-0.25 14.25 -0.2 13.7 -0.2 13.15 0.0 12.95 0.05 13.05 0.2 14.05 0.3 14.8 0.75 14.8 L1.1 15.0 Q1.35 15.0 1.45 14.75 1.5 14.55 1.7 14.55 L1.7 14.8 1.6 15.55 Q1.6 15.9 1.65 16.25 L1.75 16.65 Q1.75 17.05 1.35 17.85 0.9 18.8 0.35 18.8 L-0.1 18.8 Q-1.5 17.3 -1.5 16.05 -1.5 15.6 -1.6 14.65 -1.75 13.7 -1.75 13.3 L-1.7 12.9 -1.65 12.6 -1.55 13.1 M1.45 16.4 L1.45 16.2 1.5 15.65 1.5 15.55 1.45 15.5 Q1.5 15.45 1.4 15.45 L1.35 15.45 1.05 15.75 Q0.75 16.05 0.55 16.05 0.1 16.05 0.0 15.25 L-0.05 14.15 -0.15 14.15 -0.2 14.55 -0.25 14.9 Q-0.35 15.2 -0.8 15.2 -0.9 15.2 -1.05 15.0 -1.2 14.85 -1.3 14.85 L-1.35 14.85 Q-1.5 14.85 -1.4 14.9 L-1.45 15.25 Q-1.45 15.7 -1.05 16.9 -0.8 17.65 -0.5 18.05 -0.2 18.55 0.15 18.55 0.8 18.55 1.2 17.65 1.5 17.0 1.5 16.7 L1.45 16.4 M0.0 31.35 Q0.2 31.35 0.2 31.55 0.2 31.7 0.1 31.8 -0.05 31.75 -0.15 31.65 L-0.25 31.5 Q-0.25 31.35 0.0 31.35 M2.05 12.25 L2.0 12.3 Q1.8 12.2 1.8 11.95 1.8 11.7 1.9 11.75 2.0 11.75 2.1 12.1 L2.05 12.25 M2.0 13.45 L1.95 13.9 Q1.8 14.3 1.6 14.3 1.4 14.3 1.4 14.05 1.4 13.55 1.7 13.25 2.0 12.9 2.0 13.45 M1.85 13.65 L1.85 13.5 1.8 13.45 1.65 13.7 Q1.55 13.95 1.55 14.1 L1.55 14.25 1.6 14.25 1.8 14.15 1.85 13.65 M1.25 21.15 Q1.1 21.65 0.85 21.65 0.5 21.65 0.5 21.5 0.5 21.2 0.9 20.55 1.3 19.9 1.3 20.6 1.3 20.9 1.25 21.15 M1.15 20.95 L0.9 21.2 Q0.7 21.4 0.65 21.55 L0.7 21.6 0.85 21.65 Q1.1 21.65 1.1 21.35 1.1 21.05 1.15 20.95" fill="#d0c1e0" fill-opacity="0.5019608" fill-rule="evenodd" stroke="none"/>
    <path d="M2.5 -0.55 Q2.5 0.55 1.55 1.8 0.55 3.05 0.55 4.0 L0.6 4.45 0.75 5.6 0.8 6.05 0.8 6.3 0.75 6.9 0.7 7.05 0.7 7.1 0.4 8.1 0.45 7.55 0.4 7.0 0.4 6.8 Q0.4 6.35 0.3 5.9 0.2 5.1 -0.15 4.2 L-0.2 4.1 -1.15 2.7 -2.0 1.9 Q-2.4 1.35 -2.55 0.7 -2.85 -0.1 -2.85 -1.1 -2.85 -2.6 -1.5 -3.3 -0.75 -3.65 -0.05 -3.65 0.8 -3.65 1.5 -3.05 2.5 -2.25 2.5 -0.55 M-0.85 15.9 L-0.95 15.7 -0.95 15.55 -0.9 15.55 Q-0.75 15.55 -0.6 15.75 L-0.5 15.85 -0.4 15.8 -0.3 15.7 Q-0.25 15.8 -0.05 16.45 0.15 17.0 0.45 17.0 0.6 17.0 0.7 16.85 L0.85 16.6 Q1.0 16.75 1.0 16.95 1.0 17.15 0.8 17.5 0.5 17.8 0.25 17.8 -0.05 17.8 -0.45 17.0 -0.75 16.4 -0.85 15.95 L-0.85 15.9" fill="#31214f" fill-rule="evenodd" stroke="none"/>
  </g>
</svg>
