<?xml version="1.0" encoding="UTF-8" standalone="no"?>
<svg xmlns:ffdec="https://www.free-decompiler.com/flash" xmlns:xlink="http://www.w3.org/1999/xlink" ffdec:objectType="shape" height="29.3px" width="6.85px" xmlns="http://www.w3.org/2000/svg">
  <g transform="matrix(1.0, 0.0, 0.0, 1.0, 3.45, 4.95)">
    <path d="M2.65 -0.75 Q2.65 -2.15 1.45 -3.0 0.6 -3.6 -0.1 -3.6 -1.15 -3.6 -1.8 -2.85 -2.0 -2.7 -2.2 -2.35 -2.5 -2.0 -2.6 -1.25 -2.8 -1.0 -2.65 -0.15 L-2.6 0.25 -2.55 0.35 Q-2.3 1.4 -1.8 1.9 -1.35 2.4 -0.95 3.05 -0.35 4.05 -0.3 4.8 -0.2 5.1 -0.15 5.4 L-0.25 5.8 -0.3 6.55 Q-0.45 7.2 -0.45 7.55 L-0.35 7.15 -0.35 7.3 -0.4 7.6 -0.45 7.55 -0.45 9.15 -0.4 9.35 -0.35 9.45 -0.4 9.6 -0.3 10.1 -0.4 10.6 Q-0.45 10.7 -0.6 10.7 L-0.85 10.65 Q-1.0 10.55 -1.1 10.55 -1.3 10.55 -1.25 10.65 -1.2 11.2 -0.95 11.75 -0.55 12.7 0.0 12.7 L0.05 12.7 Q0.25 12.65 0.4 12.4 L0.5 12.2 0.65 11.95 0.65 11.8 0.75 11.55 0.75 11.35 0.65 11.3 0.65 11.25 Q0.3 11.45 0.2 11.45 0.0 11.45 -0.1 11.05 -0.2 10.75 -0.2 10.45 L-0.2 10.3 -0.1 9.85 Q-0.1 9.7 -0.25 9.3 L-0.3 9.1 -0.3 8.95 Q-0.35 8.6 -0.25 8.15 L-0.15 7.85 Q0.0 7.6 0.1 7.3 L0.15 6.6 0.25 5.15 0.2 4.8 0.3 4.3 0.3 4.25 0.5 3.75 Q0.9 2.65 1.05 2.45 1.6 1.75 2.25 1.05 2.65 0.45 2.65 -0.75 M-0.6 13.1 Q-1.35 12.8 -1.7 11.6 -2.05 10.7 -2.05 9.8 L-2.0 9.6 -1.95 9.6 -1.9 9.55 -1.8 9.55 Q-1.7 9.55 -1.55 9.75 -1.4 9.95 -1.3 9.95 -1.0 9.95 -0.75 8.85 L-0.75 8.75 -0.7 8.45 Q-0.7 8.3 -0.95 7.75 L-1.15 7.1 Q-1.15 6.95 -0.9 6.25 -0.6 5.5 -0.6 5.35 -0.6 5.3 -0.65 5.2 -0.75 5.1 -0.9 5.0 -1.15 4.75 -1.4 4.85 -1.55 4.65 -1.55 4.55 L-1.5 4.55 -1.55 4.5 -1.6 4.2 -2.1 2.7 -2.15 2.65 -2.2 2.55 Q-2.9 1.55 -2.95 1.3 L-3.35 -0.5 Q-3.3 -1.15 -3.2 -1.6 L-3.2 -1.65 Q-3.2 -3.2 -1.9 -3.85 L-1.85 -3.9 Q-0.95 -4.8 -0.05 -4.8 0.7 -4.8 1.5 -4.2 L1.8 -3.9 Q1.9 -3.85 2.0 -3.8 3.35 -2.85 3.35 -0.65 3.35 -0.25 2.5 1.9 L2.4 2.1 1.95 3.25 1.95 3.35 1.95 3.7 Q1.65 4.3 1.65 4.9 L1.65 5.0 1.35 5.5 Q0.95 6.15 0.9 6.35 0.6 7.1 0.35 8.35 L0.3 8.55 0.15 9.25 Q0.3 10.1 0.75 10.35 L0.85 10.45 1.15 10.45 Q1.4 10.45 1.45 10.75 L1.45 10.8 1.5 10.95 Q1.5 11.45 1.15 12.2 0.85 12.8 0.5 13.05 L0.45 13.1 Q0.3 13.2 0.1 13.25 L0.0 13.25 -0.4 13.2 -0.6 13.1 M-0.55 24.2 L-0.6 24.15 Q-0.6 24.25 -0.6 24.1 -0.45 23.55 -0.05 23.45 0.1 23.5 0.1 23.7 0.1 23.85 -0.05 24.05 -0.15 24.25 -0.25 24.25 L-0.45 24.2 -0.55 24.2 M-0.3 20.85 L-0.05 21.05 Q0.15 21.3 0.15 21.55 0.15 21.65 -0.05 21.95 -0.3 21.85 -0.55 21.1 L-0.55 20.9 -0.5 20.85 -0.5 20.8 -0.3 20.85" fill="#443059" fill-rule="evenodd" stroke="none"/>
    <path d="M0.1 12.2 L0.0 12.25 Q-0.2 12.25 -0.35 12.1 L-0.35 11.95 Q-0.3 11.85 0.1 12.1 L0.1 12.2 M-0.35 11.7 Q-0.4 11.85 -0.45 11.85 -0.65 11.8 -0.7 11.65 L-0.65 11.2 Q-0.45 11.25 -0.4 11.45 L-0.35 11.7" fill="#7e59a6" fill-rule="evenodd" stroke="none"/>
    <path d="M2.5 1.9 Q3.35 -0.25 3.35 -0.65 3.35 -2.85 2.0 -3.8 1.9 -3.85 1.8 -3.9 L1.5 -4.2 Q0.7 -4.8 -0.05 -4.8 -0.95 -4.8 -1.85 -3.9 L-1.9 -3.85 Q-3.2 -3.2 -3.2 -1.65 L-3.2 -1.6 Q-3.3 -1.15 -3.35 -0.5 L-2.95 1.3 Q-2.9 1.55 -2.2 2.55 L-2.15 2.65 -2.1 2.7 -1.6 4.2 -1.55 4.5 -1.5 4.55 -1.55 4.55 Q-1.55 4.65 -1.4 4.85 -1.15 4.75 -0.9 5.0 -0.75 5.1 -0.65 5.2 -0.6 5.3 -0.6 5.35 -0.6 5.5 -0.9 6.25 -1.15 6.95 -1.15 7.1 L-0.95 7.75 Q-0.7 8.3 -0.7 8.45 L-0.75 8.75 -0.75 8.85 Q-1.0 9.95 -1.3 9.95 -1.4 9.95 -1.55 9.75 -1.7 9.55 -1.8 9.55 L-1.9 9.55 -1.95 9.6 -2.0 9.6 -2.05 9.8 Q-2.05 10.7 -1.7 11.6 -1.35 12.8 -0.6 13.1 -0.4 13.35 -0.2 13.45 L-0.2 13.4 -0.4 13.25 -0.4 13.2 0.0 13.25 0.1 13.25 Q0.3 13.2 0.45 13.1 L0.5 13.05 Q0.85 12.8 1.15 12.2 1.5 11.45 1.5 10.95 L1.45 10.8 1.45 10.75 Q1.4 10.45 1.15 10.45 L0.85 10.45 0.75 10.35 Q0.3 10.1 0.15 9.25 L0.3 8.55 0.35 8.35 Q0.6 7.1 0.9 6.35 0.95 6.15 1.35 5.5 L1.65 5.0 1.65 4.9 Q1.65 4.3 1.95 3.7 L1.95 3.35 2.3 2.65 2.5 1.9 M3.4 -0.85 Q3.4 0.1 2.9 1.45 2.2 3.2 2.05 3.95 1.85 4.9 1.1 6.5 0.5 7.8 0.5 8.75 0.5 9.3 1.15 9.65 1.75 10.05 1.75 10.5 0.8 13.85 0.25 13.85 -0.85 13.85 -1.65 11.95 -2.2 10.65 -2.2 10.0 -2.2 9.4 -2.1 9.25 -1.9 8.75 -0.95 8.6 -0.9 8.5 -0.9 8.3 -0.9 8.05 -1.05 7.75 -1.2 7.45 -1.2 7.05 -1.2 6.65 -1.05 6.3 -0.85 5.95 -0.85 5.65 -0.85 5.5 -1.2 5.2 L-1.4 4.9 Q-1.9 4.35 -2.2 2.9 L-2.6 2.35 Q-3.0 1.9 -3.25 0.7 -3.45 -0.3 -3.45 -1.1 -3.45 -1.8 -3.35 -2.25 -3.2 -2.85 -2.8 -3.35 -2.2 -4.1 -1.25 -4.6 -0.25 -5.1 0.3 -4.9 2.0 -4.6 2.8 -3.2 3.4 -2.15 3.4 -0.85 M-0.6 24.1 L-0.65 24.0 Q-0.65 23.65 -0.35 23.4 -0.25 23.3 -0.2 23.05 L-0.1 22.8 Q0.1 22.9 0.3 23.65 0.3 23.8 0.15 24.0 L-0.1 24.35 -0.45 24.35 -0.55 24.2 -0.45 24.2 -0.25 24.25 Q-0.15 24.25 -0.05 24.05 0.1 23.85 0.1 23.7 0.1 23.5 -0.05 23.45 -0.45 23.55 -0.6 24.1 M0.3 21.95 Q0.2 22.2 0.0 22.2 -0.25 22.2 -0.45 21.6 L-0.6 21.0 -0.55 20.35 -0.5 19.9 -0.45 19.9 Q-0.45 19.75 -0.35 19.7 L0.05 20.6 Q0.4 21.3 0.4 21.6 L0.3 21.95 M-1.8 3.9 L-1.75 4.0 -1.8 3.75 -1.8 3.9 M-0.3 20.85 L-0.5 20.8 -0.5 20.85 -0.55 20.9 -0.55 21.1 Q-0.3 21.85 -0.05 21.95 0.15 21.65 0.15 21.55 0.15 21.3 -0.05 21.05 L-0.3 20.85" fill="#d0c1e0" fill-opacity="0.5019608" fill-rule="evenodd" stroke="none"/>
    <path d="M2.65 -0.75 Q2.65 0.45 2.25 1.05 1.6 1.75 1.05 2.45 0.9 2.65 0.5 3.75 L0.3 4.25 0.3 4.3 0.2 4.8 0.25 5.15 0.15 6.6 0.1 7.3 Q0.0 7.6 -0.15 7.85 L-0.25 8.15 Q-0.35 8.6 -0.3 8.95 L-0.3 9.1 -0.25 9.3 Q-0.1 9.7 -0.1 9.85 L-0.2 10.3 -0.2 10.45 Q-0.2 10.75 -0.1 11.05 0.0 11.45 0.2 11.45 0.3 11.45 0.65 11.25 L0.65 11.3 0.75 11.35 0.75 11.55 0.65 11.8 0.65 11.95 0.5 12.2 0.4 12.4 Q0.25 12.65 0.05 12.7 L0.0 12.7 Q-0.55 12.7 -0.95 11.75 -1.2 11.2 -1.25 10.65 -1.3 10.55 -1.1 10.55 -1.0 10.55 -0.85 10.65 L-0.6 10.7 Q-0.45 10.7 -0.4 10.6 L-0.3 10.1 -0.4 9.6 -0.35 9.45 -0.4 9.35 -0.45 9.15 -0.45 7.55 -0.4 7.6 -0.35 7.3 -0.35 7.15 -0.45 7.55 Q-0.45 7.2 -0.3 6.55 L-0.25 5.8 -0.15 5.4 Q-0.2 5.1 -0.3 4.8 -0.35 4.05 -0.95 3.05 -1.35 2.4 -1.8 1.9 -2.3 1.4 -2.55 0.35 L-2.6 0.25 -2.65 -0.15 Q-2.8 -1.0 -2.6 -1.25 -2.5 -2.0 -2.2 -2.35 -2.0 -2.7 -1.8 -2.85 -1.15 -3.6 -0.1 -3.6 0.6 -3.6 1.45 -3.0 2.65 -2.15 2.65 -0.75 M0.1 12.2 L0.1 12.1 Q-0.3 11.85 -0.35 11.95 L-0.35 12.1 Q-0.2 12.25 0.0 12.25 L0.1 12.2 M-0.35 11.7 L-0.4 11.45 Q-0.45 11.25 -0.65 11.2 L-0.7 11.65 Q-0.65 11.8 -0.45 11.85 -0.4 11.85 -0.35 11.7" fill="#31214f" fill-rule="evenodd" stroke="none"/>
  </g>
</svg>
