<?xml version="1.0" encoding="UTF-8" standalone="no"?>
<svg xmlns:ffdec="https://www.free-decompiler.com/flash" xmlns:xlink="http://www.w3.org/1999/xlink" ffdec:objectType="shape" height="133.45px" width="100.85px" xmlns="http://www.w3.org/2000/svg">
  <g transform="matrix(1.0, 0.0, 0.0, 1.0, 12.8, 132.65)">
    <path d="M84.6 -132.35 L84.6 -132.3 Q84.8 -131.7 84.95 -130.95 L85.0 -130.8 Q85.2 -129.95 85.2 -129.55 85.2 -129.1 84.8 -128.8 L83.9 -127.8 83.5 -127.35 Q83.45 -127.25 83.4 -126.95 L83.4 -126.75 83.3 -126.4 Q83.2 -125.95 82.85 -125.65 L82.7 -125.55 Q82.45 -125.2 82.05 -125.0 L81.6 -124.9 81.4 -124.85 80.95 -125.0 80.9 -125.25 81.85 -126.2 82.1 -126.6 82.2 -126.7 Q82.45 -127.05 82.6 -127.4 L82.6 -127.5 Q82.7 -127.7 82.7 -127.9 82.7 -128.25 83.05 -129.05 83.4 -129.8 83.4 -129.9 83.4 -130.5 82.85 -130.65 L81.75 -130.75 80.85 -130.6 79.7 -130.3 Q79.15 -129.45 78.35 -128.7 77.3 -127.65 76.35 -127.3 L76.3 -127.25 75.7 -127.15 75.65 -127.1 75.4 -127.1 Q74.5 -127.15 73.85 -127.7 L73.4 -128.1 73.25 -128.15 72.75 -128.15 72.6 -128.05 71.95 -127.25 71.6 -126.65 71.35 -126.35 71.3 -126.35 70.85 -125.85 70.75 -125.75 70.65 -125.85 70.7 -125.95 71.05 -126.35 70.95 -126.35 70.9 -126.75 71.25 -127.6 Q71.55 -128.2 71.65 -128.4 L72.1 -128.95 72.15 -129.0 Q72.85 -129.7 73.7 -129.7 74.5 -129.7 74.95 -129.0 L75.25 -128.5 Q75.4 -128.3 75.55 -128.3 L75.8 -128.3 76.75 -128.75 Q78.3 -129.5 78.7 -130.0 L79.1 -130.7 Q79.4 -131.2 79.8 -131.5 80.85 -132.4 83.35 -132.35 83.9 -132.45 84.2 -132.35 L84.6 -132.35 M76.95 -117.35 L76.8 -117.3 Q76.55 -117.15 76.2 -117.05 L75.85 -116.95 75.8 -117.05 75.75 -117.35 Q75.75 -117.55 76.0 -117.75 L76.45 -118.05 76.85 -118.35 Q77.1 -118.55 77.1 -118.75 L77.1 -119.1 76.95 -119.6 Q76.8 -120.25 76.8 -120.5 76.8 -122.1 77.45 -122.75 78.0 -123.35 79.15 -123.35 L79.3 -123.4 Q79.1 -123.05 78.7 -122.7 78.5 -122.55 78.2 -122.35 77.85 -122.1 77.7 -121.85 77.6 -121.6 77.6 -121.35 L77.65 -121.25 77.9 -120.85 Q78.15 -120.35 78.15 -120.15 78.15 -119.65 78.1 -119.25 78.0 -118.7 77.8 -118.3 77.5 -117.7 76.95 -117.35 M84.7 -129.55 L84.65 -129.75 84.5 -129.3 Q84.7 -129.5 84.7 -129.55 M77.7 -129.05 Q78.0 -129.25 78.25 -129.45 L76.75 -128.55 Q77.25 -128.7 77.7 -129.05 M70.9 -106.2 L70.95 -106.25 Q71.6 -106.25 71.7 -106.0 L71.45 -105.45 70.95 -104.4 Q70.5 -103.45 69.8 -102.8 69.6 -102.65 68.6 -101.35 L67.7 -100.15 67.55 -100.0 67.45 -100.0 66.85 -100.0 66.6 -100.1 Q66.55 -100.15 66.55 -100.45 66.55 -100.7 66.95 -101.3 67.35 -101.9 67.35 -102.2 67.35 -102.6 66.75 -103.35 66.1 -104.1 65.7 -104.1 65.5 -104.1 64.6 -103.05 63.75 -102.05 63.15 -102.15 L63.05 -102.1 Q63.0 -102.1 63.0 -102.4 63.0 -102.95 64.35 -104.45 L65.25 -105.35 65.5 -105.3 66.1 -105.2 67.25 -105.15 67.8 -104.75 Q68.1 -104.5 68.15 -104.3 L68.7 -104.35 Q69.0 -104.7 69.7 -105.25 L70.9 -106.2 M77.5 -98.7 Q77.75 -99.2 78.1 -99.55 78.25 -99.7 79.05 -100.3 L79.5 -100.3 Q80.05 -100.6 80.85 -100.95 82.05 -101.5 83.4 -101.9 L83.65 -101.9 Q83.95 -101.95 84.2 -101.75 L84.5 -101.65 Q84.75 -101.4 84.95 -99.75 85.1 -98.5 85.1 -97.65 85.1 -97.0 83.75 -95.65 82.55 -94.4 81.8 -94.1 L81.35 -93.95 81.15 -94.0 81.6 -94.7 81.8 -94.95 Q82.3 -95.65 82.4 -95.95 82.55 -96.45 83.0 -96.95 83.4 -97.35 83.4 -97.75 83.4 -98.05 83.3 -98.55 83.2 -99.05 83.2 -99.3 83.2 -99.8 83.1 -100.0 L83.05 -100.2 82.7 -100.3 82.35 -99.55 Q82.2 -99.15 81.75 -99.15 81.5 -99.15 81.1 -99.35 L80.4 -99.65 Q79.85 -99.55 79.0 -98.95 78.25 -98.45 78.15 -98.25 L77.8 -98.3 Q77.45 -98.35 77.4 -98.45 L77.5 -98.7 M56.6 -106.55 Q56.5 -106.25 55.9 -105.2 55.75 -105.45 55.8 -105.9 L55.85 -106.8 Q55.85 -107.95 55.15 -108.5 L53.85 -108.65 53.8 -108.7 53.8 -109.1 Q53.8 -109.6 54.7 -110.05 55.8 -109.7 56.3 -108.95 56.7 -108.35 56.7 -107.55 56.7 -106.85 56.6 -106.55 M55.05 -103.0 L55.2 -103.3 55.1 -103.35 55.35 -103.4 Q55.6 -103.4 55.75 -103.15 55.9 -102.85 56.1 -102.85 58.0 -102.85 58.7 -103.7 L59.1 -104.2 Q59.3 -104.35 59.7 -104.2 59.45 -103.75 58.4 -102.75 57.7 -102.05 56.8 -101.3 L55.9 -101.25 55.25 -101.5 55.05 -101.9 Q54.95 -102.15 54.95 -102.5 54.95 -102.8 55.05 -103.0 M64.8 -98.75 L64.95 -98.65 64.9 -98.45 64.8 -98.3 64.6 -98.25 Q61.65 -98.05 60.9 -97.75 L60.55 -97.6 Q60.45 -97.6 60.0 -97.6 60.0 -98.15 60.8 -99.0 61.45 -99.7 61.9 -99.9 L61.95 -99.95 62.1 -99.9 63.65 -99.25 Q64.45 -98.95 64.8 -98.75 M65.2 -93.8 L65.3 -93.85 Q65.8 -94.3 66.4 -93.55 66.9 -92.9 66.9 -92.35 66.9 -92.25 66.35 -90.9 L66.05 -90.95 65.8 -90.95 Q65.7 -91.2 65.7 -91.4 65.4 -91.55 64.85 -91.9 L64.4 -92.2 Q64.15 -92.2 64.05 -92.05 63.85 -91.8 63.75 -91.7 L63.6 -91.6 Q63.5 -91.6 63.5 -91.9 L64.3 -92.8 65.2 -93.8 M54.85 -71.45 Q55.0 -71.7 55.4 -71.75 L55.7 -71.7 Q55.8 -71.65 55.9 -71.55 L57.15 -72.95 Q57.8 -73.65 58.25 -73.95 L58.75 -73.9 59.6 -72.35 Q60.0 -71.4 60.0 -70.75 L60.0 -70.4 60.15 -70.35 60.2 -70.2 Q60.3 -70.15 60.3 -69.85 60.3 -69.3 60.05 -68.55 L59.75 -67.85 Q59.1 -66.15 59.0 -65.9 L58.9 -65.7 Q58.85 -65.65 58.85 -66.0 58.85 -66.1 59.15 -66.9 59.45 -67.7 59.45 -68.05 L59.4 -69.05 59.35 -69.7 59.25 -69.7 59.3 -70.2 Q59.3 -70.65 59.25 -70.95 59.1 -72.0 58.1 -72.0 L57.55 -71.7 Q56.9 -71.35 55.95 -71.35 L55.95 -70.65 Q55.8 -70.65 55.6 -70.4 L55.15 -70.45 54.9 -70.65 Q54.8 -70.8 54.8 -71.0 L54.3 -71.05 54.3 -71.15 54.35 -71.2 54.8 -71.15 Q54.8 -71.35 54.85 -71.45 M52.95 -72.75 Q53.1 -72.5 53.35 -71.8 53.7 -70.85 53.8 -70.65 L53.8 -70.6 Q52.9 -70.6 52.65 -71.15 52.5 -71.35 52.5 -72.15 52.5 -72.5 52.65 -72.6 52.7 -72.7 52.95 -72.75 M67.85 -79.3 Q67.95 -79.6 68.25 -79.8 68.8 -80.2 69.65 -79.85 70.2 -79.45 70.2 -78.65 L70.15 -77.95 Q70.15 -77.55 70.3 -77.3 L71.35 -77.2 72.1 -77.15 Q72.9 -77.15 73.85 -77.95 74.85 -78.8 75.75 -78.8 76.95 -78.8 77.3 -77.55 77.4 -77.2 77.4 -76.75 L77.4 -76.1 Q77.35 -75.45 77.2 -74.85 77.15 -74.55 77.05 -74.3 76.9 -73.95 76.65 -73.75 76.45 -73.6 76.25 -73.6 L76.2 -73.6 75.95 -72.95 75.55 -72.3 Q75.0 -71.5 73.8 -70.3 L73.45 -69.9 72.65 -69.2 71.7 -68.25 70.9 -67.4 Q69.75 -66.1 69.05 -64.75 L68.85 -64.3 68.8 -64.2 68.65 -64.2 68.7 -64.35 Q69.05 -65.6 70.05 -67.0 L70.45 -67.55 70.35 -67.45 70.0 -67.75 69.95 -67.8 Q69.7 -68.0 69.7 -68.35 69.7 -68.65 70.05 -69.35 70.3 -69.9 70.6 -70.35 70.75 -70.6 71.2 -70.85 71.75 -71.2 72.1 -71.55 L74.9 -74.2 74.85 -74.25 Q74.7 -74.55 74.7 -74.7 74.7 -74.8 74.75 -75.05 74.85 -75.3 74.85 -75.6 74.85 -75.8 74.75 -76.05 L74.65 -75.95 73.75 -75.95 73.65 -76.05 71.75 -76.15 Q70.85 -76.2 70.05 -76.15 69.55 -76.3 69.4 -76.8 L69.3 -77.75 Q69.25 -78.3 69.0 -78.5 68.7 -78.75 67.8 -78.45 L67.75 -78.55 67.75 -78.85 Q67.75 -79.1 67.85 -79.3 M71.65 -69.05 L73.05 -70.75 73.0 -70.7 71.7 -69.15 71.4 -68.75 71.65 -69.05 M29.65 -101.1 Q29.95 -101.4 30.6 -101.8 31.6 -102.45 32.25 -102.6 32.8 -102.45 33.5 -101.45 34.1 -100.6 34.1 -100.25 34.1 -99.45 33.8 -99.0 33.4 -98.35 33.15 -97.5 L33.0 -97.05 Q32.95 -97.3 32.8 -98.3 32.6 -99.5 32.6 -100.0 32.6 -100.25 32.1 -100.7 31.55 -101.1 31.25 -101.05 30.45 -100.95 30.25 -100.75 29.95 -100.4 29.7 -100.3 L29.5 -100.35 Q29.4 -100.35 29.4 -100.7 29.4 -100.85 29.65 -101.1 M16.65 -92.6 L16.65 -92.75 Q16.65 -93.4 17.2 -93.6 L17.25 -93.6 17.45 -93.7 Q18.1 -94.05 18.65 -93.95 L20.05 -92.25 Q20.35 -91.85 20.55 -91.5 L20.75 -91.35 20.7 -91.1 Q20.85 -90.75 20.85 -90.45 20.55 -90.7 20.25 -91.1 19.75 -91.35 19.15 -91.95 18.15 -92.8 17.85 -92.8 17.55 -92.8 17.3 -92.65 L17.05 -92.4 16.7 -92.4 Q16.65 -92.45 16.65 -92.6 M18.55 -93.35 L18.55 -93.35 M16.05 -90.8 Q15.85 -90.4 15.4 -89.7 L15.0 -89.15 14.5 -88.15 Q14.3 -87.45 14.1 -86.65 13.9 -85.9 13.9 -85.5 13.95 -85.2 14.15 -84.85 L14.6 -83.95 Q14.9 -83.85 14.95 -83.75 L14.95 -83.7 14.7 -83.7 14.75 -83.55 14.8 -83.45 Q14.8 -83.3 14.5 -83.3 L14.35 -83.3 Q13.65 -83.45 13.35 -84.6 13.15 -85.3 13.15 -86.1 L13.15 -87.35 Q13.25 -87.7 14.0 -88.75 14.25 -89.1 14.8 -90.1 15.3 -90.9 15.75 -90.95 L15.65 -90.65 Q16.0 -91.05 16.25 -91.15 L16.05 -90.8 M16.65 -83.4 Q17.7 -84.65 18.3 -85.2 L18.35 -85.25 Q19.25 -86.1 20.25 -86.55 L20.4 -86.5 Q20.8 -87.05 21.1 -86.65 21.3 -86.4 21.4 -86.05 21.9 -85.75 22.1 -85.4 22.3 -85.1 22.3 -84.2 L22.3 -84.1 Q22.25 -83.85 22.15 -83.75 L21.95 -83.5 Q21.6 -83.65 21.15 -84.25 L20.7 -85.05 20.0 -85.1 19.25 -85.15 19.3 -85.3 Q19.35 -85.45 19.05 -85.45 18.8 -85.45 18.5 -85.0 17.8 -84.1 16.95 -83.3 L16.65 -83.35 16.65 -83.4 M-12.25 -48.85 Q-12.4 -49.25 -12.5 -49.8 -12.8 -51.15 -12.8 -51.85 -12.8 -53.05 -12.35 -54.25 L-12.2 -54.65 -11.95 -55.7 -11.85 -55.95 Q-11.75 -56.45 -11.7 -56.9 -11.55 -58.35 -10.3 -59.9 L-9.8 -60.5 Q-9.25 -61.25 -8.75 -61.6 L-8.65 -61.7 Q-7.9 -62.75 -7.25 -64.25 L-6.25 -66.7 Q-6.05 -67.05 -5.85 -67.95 -5.5 -68.75 -4.7 -69.0 -4.2 -68.9 -3.75 -68.65 -3.25 -68.35 -2.95 -68.15 -1.85 -67.45 0.15 -67.45 1.3 -67.45 1.9 -68.05 L2.3 -68.45 Q2.5 -68.7 2.7 -68.75 L3.8 -68.9 4.9 -69.0 Q5.7 -69.0 5.8 -67.85 5.85 -67.45 5.8 -67.0 L5.75 -66.45 Q5.75 -65.85 6.4 -65.25 7.0 -64.6 7.0 -64.15 L7.0 -63.7 6.95 -63.65 Q6.9 -63.65 6.85 -63.6 L6.85 -63.5 6.55 -63.5 6.45 -63.5 6.05 -63.5 Q5.8 -63.65 5.6 -63.8 5.35 -64.0 5.15 -64.25 4.95 -64.6 4.8 -65.25 4.6 -66.0 4.5 -66.3 4.25 -66.85 3.75 -67.15 2.8 -67.0 2.2 -66.5 1.3 -65.8 1.0 -65.65 L-0.5 -65.65 -0.75 -65.85 -0.9 -66.05 Q-3.3 -65.9 -4.2 -65.5 -5.7 -64.75 -6.3 -62.55 -7.0 -60.1 -8.1 -58.45 L-9.75 -56.05 Q-10.5 -54.95 -10.85 -54.25 -11.65 -52.7 -11.65 -50.45 -11.65 -49.9 -11.4 -49.55 -11.15 -49.15 -11.15 -48.0 L-11.2 -47.95 Q-11.25 -47.85 -11.5 -47.85 -11.9 -47.85 -12.25 -48.85 M-9.1 -45.6 L-8.9 -44.9 -8.8 -44.7 Q-8.65 -44.25 -8.35 -44.05 L-7.85 -44.0 -7.05 -43.95 Q-4.65 -43.95 -3.0 -44.9 -2.65 -45.1 -1.7 -45.75 -0.9 -46.3 -0.3 -46.6 1.1 -47.3 2.15 -47.4 2.9 -47.5 3.4 -47.25 3.85 -47.05 4.15 -46.6 L4.2 -46.55 4.8 -45.85 4.8 -45.75 Q4.55 -45.8 4.35 -45.95 L4.05 -45.9 Q3.8 -45.9 3.6 -45.7 L3.45 -45.5 3.35 -45.45 2.05 -45.4 1.75 -45.4 0.15 -45.25 Q-0.65 -45.25 -1.4 -44.6 -2.4 -43.65 -2.85 -43.45 -3.45 -43.05 -4.15 -42.7 L-4.55 -42.5 Q-5.05 -42.25 -5.4 -42.15 -5.85 -42.0 -6.15 -42.0 -6.85 -42.0 -7.5 -42.35 L-8.3 -42.7 -9.0 -43.55 -9.4 -44.1 Q-9.6 -44.4 -9.6 -44.55 -9.6 -44.8 -9.5 -45.3 L-9.4 -45.65 -9.35 -46.05 -9.25 -46.1 -9.1 -45.6 M5.45 -44.2 Q5.55 -44.35 5.75 -44.45 5.85 -44.4 6.35 -43.55 6.9 -42.65 6.9 -42.35 6.9 -41.1 6.65 -40.4 L6.1 -39.05 5.75 -37.95 Q5.5 -38.05 5.2 -38.3 4.85 -38.6 4.85 -38.8 4.85 -38.95 4.95 -40.1 5.05 -41.05 5.05 -41.6 L5.05 -43.2 Q5.1 -43.5 5.2 -43.75 5.3 -44.0 5.45 -44.2 M10.45 -73.5 L10.6 -73.75 10.6 -73.85 Q10.6 -74.2 10.85 -74.7 11.1 -75.2 11.5 -75.55 12.6 -76.45 13.7 -75.5 14.0 -75.2 14.1 -74.6 L14.25 -73.8 Q14.85 -73.2 14.95 -72.75 15.15 -72.65 15.35 -72.6 L16.0 -72.8 Q16.15 -72.85 16.55 -73.05 L16.65 -72.95 Q16.65 -72.9 16.65 -72.55 16.65 -72.4 16.5 -72.15 L16.2 -71.7 14.85 -71.7 Q14.7 -71.8 14.6 -71.9 L14.3 -72.1 Q13.7 -72.5 13.45 -72.55 13.25 -72.8 12.85 -73.7 L12.55 -74.3 12.0 -74.3 Q11.35 -73.85 10.8 -72.95 10.3 -72.1 10.2 -71.4 L10.05 -71.45 Q9.9 -71.5 9.8 -71.6 L10.05 -72.5 Q10.2 -73.1 10.45 -73.5 M19.9 -77.8 L20.15 -78.15 Q21.75 -79.9 22.45 -80.15 23.7 -79.8 24.6 -78.3 25.35 -77.0 25.35 -75.9 25.35 -75.55 25.1 -73.45 L24.85 -71.35 Q24.8 -70.5 24.8 -69.85 24.8 -68.6 25.05 -68.05 25.5 -67.1 26.4 -66.35 27.0 -65.85 27.0 -65.05 27.0 -63.3 26.85 -62.45 26.6 -60.95 25.75 -59.8 25.65 -59.45 25.45 -59.0 25.25 -58.55 24.9 -58.0 24.15 -56.85 23.45 -56.15 L23.25 -56.25 Q23.45 -56.7 24.3 -58.1 25.05 -59.4 25.1 -60.05 25.2 -60.8 25.45 -62.2 25.65 -63.2 25.65 -63.85 25.65 -64.3 25.05 -65.1 24.55 -65.75 23.95 -66.4 23.4 -66.95 23.2 -67.65 23.1 -68.05 23.1 -69.0 L23.6 -71.9 Q24.05 -74.85 24.05 -75.5 24.05 -76.05 23.6 -77.3 23.05 -78.8 22.65 -78.8 21.05 -78.8 20.35 -77.05 L20.15 -77.1 20.15 -77.15 19.85 -76.75 Q19.5 -76.35 19.15 -76.0 L19.05 -75.9 18.75 -75.85 Q18.7 -75.85 18.7 -76.2 18.7 -76.35 19.1 -76.85 L19.9 -77.8 M25.0 -57.9 Q25.1 -58.0 25.2 -58.0 L25.25 -57.9 Q25.1 -57.7 24.9 -57.35 L24.65 -56.65 Q24.35 -56.05 23.8 -55.8 23.7 -55.75 23.55 -55.7 L24.4 -57.15 Q24.75 -57.7 25.0 -57.9 M17.25 -51.15 L17.15 -51.2 17.1 -51.25 17.1 -51.7 Q17.05 -52.0 17.05 -52.3 17.05 -54.4 18.05 -55.5 19.2 -56.75 21.5 -55.8 21.95 -55.6 22.5 -55.3 L22.45 -55.4 Q22.5 -55.6 22.65 -55.7 22.75 -55.8 22.8 -55.8 L22.85 -55.6 22.75 -55.2 22.65 -55.2 22.75 -55.15 Q22.45 -54.8 21.4 -54.5 L21.25 -54.45 21.2 -54.45 20.65 -54.3 19.65 -54.1 18.4 -52.65 Q18.05 -52.2 18.0 -51.8 L17.85 -51.25 Q17.9 -51.2 17.85 -51.2 L17.55 -51.1 17.25 -51.15 M13.1 -74.85 L13.1 -74.85 M11.6 -74.7 L11.6 -74.7 M35.1 -94.05 Q34.85 -94.15 34.85 -94.2 L34.95 -94.25 Q36.2 -94.4 36.7 -94.15 37.0 -94.0 37.3 -93.2 L37.75 -92.0 Q38.1 -91.0 38.1 -90.8 38.1 -90.6 37.8 -89.7 37.5 -88.9 37.5 -88.65 L37.5 -88.5 Q37.5 -87.95 37.75 -87.55 L38.15 -87.45 38.4 -87.15 38.6 -86.8 Q38.85 -86.65 39.2 -86.5 L39.25 -86.35 38.7 -86.4 38.35 -86.5 Q37.25 -86.5 36.8 -87.95 36.6 -88.7 36.6 -89.8 36.6 -90.35 36.75 -90.85 L36.75 -90.9 36.85 -91.1 36.8 -91.1 36.8 -91.4 Q36.65 -92.0 36.4 -92.75 36.05 -93.7 35.7 -94.0 L35.3 -94.05 35.1 -94.05 M32.8 -91.9 L32.75 -92.1 33.2 -92.7 33.45 -92.9 Q34.05 -93.55 34.3 -93.55 L34.35 -93.45 Q34.1 -93.25 33.65 -92.55 33.3 -91.95 32.85 -91.8 L32.8 -91.9 M37.6 -91.5 Q37.6 -91.0 37.55 -90.15 L37.7 -90.55 37.7 -91.45 37.65 -91.55 37.6 -91.5 M44.55 -86.2 Q44.4 -86.1 44.25 -86.05 43.9 -86.2 43.45 -87.1 43.05 -87.9 42.55 -88.1 L42.6 -88.1 Q42.9 -88.4 43.5 -88.6 44.2 -88.8 44.5 -88.65 L44.8 -88.05 Q44.9 -87.75 44.9 -87.4 44.9 -86.75 44.85 -86.65 44.8 -86.4 44.55 -86.2 M33.55 -99.05 L33.55 -98.85 Q33.65 -99.05 33.7 -99.35 L33.65 -99.2 33.55 -99.05 M29.85 -91.65 L29.9 -92.0 29.95 -92.1 30.5 -92.05 31.55 -92.1 31.6 -91.85 31.65 -91.35 Q31.5 -90.65 31.25 -90.3 L31.05 -90.1 29.85 -91.6 29.85 -91.65 M40.9 -62.05 Q40.85 -62.7 40.65 -63.05 40.4 -63.55 39.9 -63.85 L40.05 -63.75 Q40.8 -63.2 41.0 -62.45 L41.4 -61.1 Q41.5 -60.7 41.5 -59.9 41.5 -59.4 41.15 -58.75 L41.0 -58.45 Q40.7 -58.0 40.45 -57.9 L40.25 -57.9 Q40.2 -58.15 40.55 -59.2 40.95 -60.3 40.95 -60.65 L40.9 -61.8 40.9 -62.05 M39.9 -63.85 L39.4 -64.1 Q38.45 -64.4 37.55 -64.0 L37.4 -64.0 37.35 -64.2 37.7 -64.5 38.0 -64.65 Q39.2 -64.3 39.9 -63.85 M39.65 -57.1 L39.75 -57.2 Q39.95 -57.4 40.05 -57.4 L39.8 -57.05 39.5 -56.7 39.45 -56.8 39.65 -57.1 M36.0 -63.9 L35.6 -63.15 Q35.3 -62.75 34.8 -62.7 L34.75 -63.05 Q35.05 -63.45 35.55 -63.7 L36.0 -63.9 M38.8 -55.8 Q38.55 -55.4 37.8 -55.05 36.2 -54.4 35.85 -54.15 L35.75 -54.1 Q35.7 -54.1 35.7 -54.45 L35.75 -54.7 Q35.85 -55.3 36.65 -55.65 37.55 -56.1 38.85 -56.0 L38.8 -55.8 M38.8 -46.1 L38.8 -46.0 38.3 -45.85 37.7 -45.8 37.2 -46.0 37.25 -46.0 Q37.6 -46.2 38.15 -46.35 L39.0 -46.45 38.8 -46.1 M35.55 -46.3 L35.3 -46.4 Q34.75 -47.1 34.15 -47.7 33.8 -48.05 33.8 -48.9 33.8 -50.0 34.15 -50.95 34.5 -52.05 35.35 -52.8 L35.2 -52.4 34.6 -50.65 34.55 -50.6 34.55 -50.4 Q34.65 -48.45 36.05 -46.4 35.95 -46.3 35.8 -46.25 L35.55 -46.3 M45.45 -57.95 L45.7 -57.85 Q45.8 -57.75 45.8 -57.4 45.8 -57.25 45.1 -55.95 L44.55 -55.95 44.45 -56.0 Q44.4 -56.05 44.4 -56.35 44.4 -56.55 44.85 -57.25 45.25 -57.85 45.45 -57.95 M21.6 -46.9 Q22.65 -47.6 22.9 -48.9 23.05 -49.65 23.15 -49.9 23.4 -50.5 23.9 -50.95 25.55 -52.5 27.05 -51.4 27.6 -50.95 28.0 -50.3 28.35 -49.7 28.35 -49.25 28.35 -48.8 28.05 -47.35 L27.95 -46.7 Q27.8 -45.75 27.75 -45.45 L27.5 -45.2 Q27.55 -45.95 27.4 -47.2 L27.2 -49.4 27.15 -49.45 Q27.15 -49.55 26.9 -49.55 L25.7 -49.5 Q25.25 -49.25 24.9 -48.75 24.7 -48.4 24.05 -48.4 L23.15 -47.45 Q22.15 -46.5 21.6 -46.5 L20.05 -46.65 18.75 -46.8 18.7 -46.85 Q18.6 -46.85 18.5 -46.95 L18.3 -47.1 Q18.2 -47.2 18.2 -47.3 18.15 -47.4 18.15 -47.6 L18.15 -47.75 18.55 -47.45 18.65 -47.35 19.25 -46.8 21.55 -46.85 21.6 -46.9 M37.45 -37.65 Q37.2 -37.05 37.0 -36.7 L36.9 -36.7 Q37.0 -37.75 37.0 -38.55 37.0 -38.9 36.85 -40.0 L36.6 -41.85 Q36.5 -42.6 35.3 -43.55 L34.5 -44.15 Q34.1 -44.45 34.1 -44.55 34.1 -44.7 34.15 -44.85 34.25 -45.15 34.55 -45.3 34.9 -45.45 35.5 -45.25 36.85 -44.8 37.45 -43.55 37.5 -43.35 37.75 -41.8 37.95 -40.25 37.95 -39.95 37.95 -39.3 37.6 -38.2 L37.45 -37.65 M27.9 -41.7 L27.95 -42.65 Q28.0 -43.65 28.1 -44.1 L28.25 -44.1 Q28.3 -43.95 28.3 -43.3 28.3 -41.75 27.9 -40.4 L27.75 -40.0 Q26.95 -37.55 25.05 -37.55 24.9 -37.55 24.25 -38.4 23.65 -39.25 23.2 -39.25 L22.7 -39.0 Q22.25 -38.8 22.0 -38.7 L21.85 -38.65 Q22.05 -39.45 22.2 -39.85 22.55 -40.7 23.1 -41.05 L24.15 -41.0 Q24.5 -40.75 24.5 -40.15 24.5 -39.55 24.65 -39.4 L25.2 -38.55 Q25.6 -38.1 26.15 -37.9 27.55 -38.85 27.85 -40.95 L27.9 -41.7 M22.65 -33.75 L22.65 -33.9 Q22.65 -34.4 23.3 -34.65 24.05 -34.9 24.7 -34.3 24.85 -33.95 24.9 -33.45 L25.0 -32.5 24.9 -32.05 24.9 -32.0 Q24.9 -31.9 24.6 -31.9 L24.55 -32.05 24.3 -32.45 Q23.8 -33.1 22.75 -33.6 L22.7 -33.55 Q22.65 -33.55 22.65 -33.75 M50.55 -48.0 Q50.0 -47.7 49.4 -47.7 49.15 -47.7 48.1 -46.65 L46.8 -45.35 Q46.3 -44.85 46.25 -44.15 46.2 -43.5 46.5 -42.75 46.1 -42.8 45.95 -43.35 45.9 -43.6 45.9 -44.35 45.9 -44.8 45.95 -45.1 46.05 -45.85 46.3 -46.1 L46.8 -46.55 Q47.15 -46.9 47.5 -47.35 47.8 -47.85 48.4 -48.2 L49.0 -48.45 Q50.15 -48.9 50.7 -49.55 51.0 -49.9 51.35 -50.5 51.55 -51.1 51.6 -51.55 51.7 -52.8 51.7 -53.6 51.7 -54.75 51.35 -55.6 51.05 -56.25 50.35 -57.05 L49.3 -57.3 48.1 -57.6 47.85 -57.75 Q47.75 -57.9 47.75 -58.25 47.75 -58.7 48.3 -59.05 48.9 -59.45 50.05 -59.5 L50.15 -59.65 50.6 -59.65 Q51.4 -59.65 51.8 -59.15 52.05 -58.85 52.05 -58.5 L52.05 -58.2 52.0 -58.25 51.95 -58.15 52.2 -57.85 Q52.4 -57.6 52.6 -57.15 53.0 -56.2 53.0 -55.45 53.0 -52.55 52.1 -50.25 51.45 -48.6 50.55 -48.0 M8.1 -59.45 L8.05 -59.4 7.75 -59.2 6.9 -59.2 Q4.95 -59.85 4.4 -60.9 L3.65 -60.8 3.5 -60.8 2.95 -60.85 Q3.05 -61.05 3.35 -61.4 3.7 -61.8 3.9 -61.85 4.75 -61.65 6.0 -60.95 7.15 -60.35 8.3 -60.1 L8.45 -59.8 8.1 -59.45 M11.65 -41.15 Q12.05 -40.95 12.55 -40.5 L12.6 -40.35 12.05 -40.5 11.4 -40.6 10.95 -40.55 10.8 -40.5 Q11.05 -40.05 11.05 -39.75 L10.95 -39.5 10.05 -39.4 Q9.8 -38.9 9.55 -38.2 L9.2 -36.95 Q8.7 -35.45 7.7 -34.6 L7.2 -34.5 6.95 -34.5 6.75 -34.5 6.7 -34.45 Q6.65 -34.45 6.65 -34.8 6.65 -35.1 7.3 -35.75 8.05 -36.6 8.25 -36.9 8.4 -37.2 8.5 -37.95 8.6 -38.65 8.75 -38.9 L9.3 -39.95 Q9.65 -40.65 9.95 -41.0 10.6 -41.7 11.65 -41.15 M11.95 -26.35 L11.7 -26.4 Q12.05 -26.9 12.1 -27.85 L12.0 -29.4 Q12.0 -30.0 12.25 -30.8 L12.7 -32.15 Q12.9 -32.9 13.75 -33.3 14.15 -33.5 14.3 -33.7 14.5 -33.95 14.5 -34.45 14.5 -35.4 14.05 -36.85 13.4 -38.9 13.25 -39.6 L13.35 -39.65 Q13.6 -39.1 13.9 -38.5 L14.1 -38.2 Q14.45 -37.5 14.7 -36.75 14.9 -36.2 15.05 -35.35 15.25 -34.4 15.25 -33.9 15.25 -33.35 14.7 -32.7 14.3 -32.25 13.95 -32.05 13.45 -31.2 13.2 -30.7 12.7 -29.7 12.6 -29.15 L12.55 -28.75 12.3 -27.75 Q12.15 -27.15 12.1 -26.75 12.05 -26.5 12.05 -26.35 L11.95 -26.35 M2.1 -28.7 Q2.3 -28.9 2.55 -28.95 L2.7 -28.5 Q2.6 -28.35 2.5 -27.95 2.4 -27.5 2.25 -27.3 1.75 -26.45 -0.1 -26.45 L-0.3 -26.5 Q-0.75 -26.65 -1.9 -27.4 L-1.95 -27.5 Q-1.65 -27.5 -1.35 -27.15 -1.1 -26.85 -0.25 -26.85 L0.95 -26.95 Q1.55 -27.3 1.8 -28.1 1.9 -28.45 2.1 -28.7 M-3.1 -33.45 L-2.95 -33.85 -2.75 -34.4 Q-1.9 -36.45 -1.9 -37.0 -1.9 -37.35 -2.3 -38.5 L-2.8 -39.8 -3.65 -39.95 Q-3.85 -40.2 -4.0 -40.45 -4.05 -40.6 -4.1 -40.8 L-3.6 -40.7 -2.6 -40.45 Q-2.35 -40.1 -1.8 -38.65 -1.2 -37.2 -1.2 -36.8 -1.2 -36.55 -1.35 -36.2 -1.5 -35.85 -1.5 -35.6 L-2.05 -34.55 -2.3 -34.0 Q-3.1 -32.2 -3.3 -30.8 -3.6 -31.1 -3.6 -31.9 -3.6 -32.25 -3.1 -33.45 M11.0 -24.4 Q11.3 -24.9 11.5 -25.1 L11.55 -24.85 Q11.4 -24.6 11.25 -23.8 11.05 -23.0 10.9 -22.6 10.35 -21.45 8.7 -21.2 L8.0 -21.15 Q7.35 -20.3 6.7 -18.55 L5.85 -16.3 5.8 -16.25 5.65 -16.3 5.75 -16.5 Q6.0 -17.15 6.15 -18.25 6.4 -19.75 6.55 -20.2 6.85 -21.2 7.5 -21.6 7.7 -21.75 7.9 -21.8 8.4 -22.0 9.05 -21.95 L9.6 -21.9 10.0 -22.0 Q10.2 -22.4 10.7 -23.7 L11.0 -24.4 M11.85 -14.35 L12.4 -15.55 Q12.95 -16.4 12.95 -14.6 12.95 -13.95 12.6 -13.5 12.3 -13.2 11.7 -12.75 L11.4 -12.55 10.65 -12.0 Q10.3 -11.7 10.05 -11.35 L9.7 -10.85 9.55 -10.85 Q9.6 -10.95 9.7 -11.15 L10.5 -12.3 Q11.4 -13.45 11.6 -13.85 L11.85 -14.35 M9.0 -10.85 L9.15 -10.45 6.95 -10.45 Q6.2 -10.85 5.85 -11.05 5.45 -11.25 5.3 -11.5 5.15 -11.6 5.15 -11.75 L5.25 -11.75 5.75 -11.3 6.3 -10.95 6.45 -10.85 6.55 -10.85 7.15 -10.9 7.9 -11.3 Q8.35 -11.5 8.55 -11.4 8.8 -11.3 9.0 -10.85 M4.15 -13.9 L3.85 -14.35 Q3.6 -14.8 3.6 -15.35 3.6 -15.9 3.8 -16.35 4.05 -16.9 4.55 -16.95 L4.85 -16.85 4.95 -16.7 Q4.8 -16.5 4.5 -15.9 4.2 -15.35 4.2 -15.3 4.2 -15.0 4.35 -14.3 4.5 -13.7 4.65 -13.35 L4.15 -13.9 M17.75 -16.5 L17.9 -16.6 19.15 -16.55 Q19.3 -16.2 20.0 -15.15 20.5 -14.35 20.5 -13.85 L20.35 -13.5 20.0 -12.8 19.85 -12.95 Q19.65 -13.15 19.6 -13.5 19.55 -13.7 19.55 -14.4 19.55 -15.6 18.85 -16.05 L17.9 -16.0 17.7 -16.0 Q17.5 -16.05 17.4 -16.15 L17.75 -16.5 M22.25 -9.15 L22.3 -9.05 21.9 -8.65 Q21.45 -8.55 21.3 -8.45 19.95 -8.95 19.6 -9.25 19.15 -9.55 19.15 -10.2 19.15 -10.45 19.2 -10.65 19.25 -11.65 19.8 -11.8 19.65 -10.95 19.65 -10.45 19.65 -10.15 19.8 -9.95 19.85 -9.8 20.0 -9.6 20.4 -9.55 20.95 -9.2 21.2 -9.0 21.95 -9.35 L22.05 -9.25 22.25 -9.15 M31.15 -1.75 Q32.05 -1.2 32.25 -1.0 L32.1 -0.45 30.7 -0.3 29.8 0.0 Q28.55 0.4 25.65 0.45 L21.45 0.8 19.25 0.6 16.8 0.35 14.85 0.3 Q14.25 0.25 14.2 0.0 14.8 -0.4 16.55 -0.25 L18.6 -0.05 19.65 0.05 Q20.95 0.05 22.7 -0.25 24.85 -0.6 27.35 -0.75 27.7 -1.15 28.5 -1.75 29.45 -2.45 29.85 -2.4 30.0 -2.4 31.0 -1.85 L31.15 -1.75 M37.95 -26.65 L37.75 -26.6 Q37.35 -26.6 37.2 -26.85 L36.9 -27.2 37.15 -27.75 37.55 -27.85 Q37.7 -27.95 38.0 -28.6 38.25 -29.25 38.25 -29.5 38.25 -29.65 38.0 -30.25 37.75 -30.9 37.75 -31.0 37.75 -31.5 38.1 -31.8 38.5 -32.05 38.85 -31.55 39.3 -31.0 39.35 -30.5 L39.4 -29.6 Q39.4 -28.65 39.05 -27.75 38.65 -26.75 37.95 -26.65 M31.95 -31.15 Q31.85 -31.7 31.85 -32.1 31.85 -32.55 32.55 -33.05 L33.75 -33.85 Q34.55 -33.75 34.6 -33.5 33.35 -32.5 32.95 -32.05 32.25 -31.2 32.15 -30.05 L32.15 -30.0 Q32.0 -30.45 31.95 -31.1 L31.95 -31.15 M31.75 -23.7 L31.85 -24.05 Q32.1 -24.55 33.25 -24.75 33.7 -24.65 34.1 -24.4 L34.8 -24.0 34.95 -23.8 Q35.0 -23.65 35.0 -23.3 35.0 -23.0 34.65 -22.6 34.3 -22.25 34.25 -21.8 L34.25 -21.7 Q34.25 -21.25 34.2 -20.35 L34.2 -20.1 34.15 -20.1 33.75 -20.15 Q33.7 -20.4 33.75 -20.95 33.8 -21.7 33.75 -21.95 33.65 -23.1 32.05 -23.1 31.5 -23.1 30.0 -21.35 L29.8 -21.25 29.45 -21.15 29.9 -21.6 30.45 -22.15 31.5 -23.1 Q31.65 -23.35 31.75 -23.7 M33.5 -19.0 L33.5 -18.8 Q33.25 -18.2 33.15 -17.65 L33.1 -17.55 Q33.0 -17.55 33.0 -17.85 33.0 -18.05 33.1 -18.4 33.25 -18.8 33.45 -19.0 L33.5 -19.0 M47.45 -23.0 L47.35 -22.7 Q47.2 -22.8 46.9 -23.25 46.55 -23.75 46.55 -24.1 L46.45 -24.2 46.05 -24.3 Q45.5 -24.3 44.25 -22.7 43.25 -21.45 42.8 -20.7 L42.6 -20.75 43.45 -22.2 Q43.75 -22.7 43.9 -23.1 44.05 -23.45 44.05 -23.7 44.05 -24.4 44.55 -25.1 45.1 -25.8 45.75 -26.05 46.5 -26.25 46.95 -25.7 47.5 -25.0 47.5 -23.3 L47.45 -23.0 M48.15 -17.2 L47.85 -17.1 Q48.1 -17.55 48.15 -17.75 48.25 -18.05 48.25 -18.4 48.25 -18.65 48.1 -19.1 47.95 -19.5 47.95 -19.75 47.95 -19.9 47.7 -20.4 L47.4 -20.9 Q47.4 -21.4 47.45 -21.45 47.75 -21.4 48.05 -20.7 L48.3 -20.0 Q48.65 -18.8 48.65 -18.25 48.65 -17.75 48.6 -17.65 48.5 -17.3 48.15 -17.2 M36.9 -9.95 Q36.8 -9.95 36.8 -9.9 L35.5 -10.0 35.25 -10.4 Q35.2 -10.55 35.2 -10.7 L35.15 -10.95 Q35.15 -11.5 35.2 -11.35 35.75 -11.35 36.35 -11.0 36.95 -10.65 36.95 -10.35 L36.95 -10.05 Q36.9 -10.0 36.9 -9.95 M63.25 -60.5 L64.1 -60.6 64.25 -60.5 64.4 -60.35 64.4 -60.3 64.2 -60.2 Q63.45 -60.0 63.05 -59.8 63.0 -59.75 62.35 -59.8 L61.4 -59.85 Q59.15 -59.85 57.9 -57.6 57.55 -56.9 57.2 -55.95 L56.9 -55.0 56.55 -55.0 Q56.35 -56.5 56.35 -57.35 56.35 -57.6 56.5 -58.15 56.65 -58.75 56.65 -59.0 56.65 -59.8 57.3 -60.7 57.85 -61.55 58.65 -62.0 59.05 -62.25 59.85 -62.2 61.15 -62.85 61.8 -61.8 L61.8 -61.75 62.45 -61.3 Q62.75 -61.05 62.8 -60.65 62.9 -60.55 63.25 -60.5 M55.35 -45.35 L55.35 -45.25 Q55.35 -44.65 54.15 -42.95 52.85 -41.15 52.0 -41.15 L51.65 -41.15 51.25 -41.15 50.8 -41.2 50.65 -41.25 Q50.6 -41.25 50.6 -41.6 50.6 -42.15 51.15 -42.25 52.25 -42.55 52.55 -42.7 52.8 -42.85 53.25 -43.3 53.7 -43.8 53.85 -44.05 54.0 -44.35 54.55 -45.75 54.95 -46.85 55.15 -46.9 55.35 -46.3 55.35 -45.35 M60.15 -14.85 L60.0 -14.9 Q60.25 -15.4 60.45 -15.7 60.65 -16.05 61.1 -16.7 L61.2 -16.8 Q60.1 -16.95 58.85 -17.3 L58.45 -17.35 Q58.25 -17.3 57.75 -17.0 L57.4 -17.05 Q57.1 -17.15 57.0 -17.25 L57.0 -17.3 57.0 -17.35 57.15 -17.4 57.2 -17.4 57.9 -17.4 Q58.3 -17.45 58.35 -17.65 L58.4 -17.75 Q58.4 -18.1 58.75 -18.2 59.9 -18.3 60.4 -18.55 60.8 -18.8 61.1 -18.75 61.75 -18.45 61.95 -18.05 62.05 -17.8 62.05 -17.35 62.05 -16.7 61.45 -16.2 L61.1 -15.9 Q60.7 -15.5 60.45 -15.1 L60.3 -14.85 60.15 -14.85 M54.5 -7.75 Q54.65 -8.4 55.5 -7.5 55.85 -7.1 56.15 -6.6 56.5 -6.1 56.5 -5.9 56.5 -5.05 56.25 -4.8 56.05 -4.55 55.35 -4.55 L55.05 -4.45 Q54.95 -4.4 54.85 -4.3 L54.8 -4.3 54.6 -4.1 54.5 -3.95 Q54.45 -3.9 54.4 -4.05 L54.4 -4.2 Q54.4 -4.9 54.8 -5.25 55.2 -5.65 55.2 -5.8 55.2 -6.05 54.85 -6.65 54.5 -7.3 54.5 -7.4 L54.5 -7.75 M65.35 -12.4 L65.3 -12.3 Q64.85 -12.6 64.5 -13.0 L63.95 -13.65 Q63.4 -14.3 62.15 -14.3 L61.9 -14.4 Q61.75 -14.45 61.7 -14.7 L61.7 -14.8 Q61.7 -15.1 61.75 -15.15 L61.8 -15.3 62.05 -15.3 Q62.2 -15.05 62.4 -14.9 64.3 -14.4 64.9 -13.85 65.4 -13.4 65.4 -12.45 L65.35 -12.4 M59.15 -13.2 L59.15 -13.25 59.3 -13.25 59.3 -13.2 59.15 -13.2 M64.15 -3.8 Q64.6 -3.95 65.2 -3.6 65.55 -3.45 66.75 -2.45 66.65 -2.25 66.35 -1.9 66.1 -1.6 66.0 -1.55 L65.0 -1.55 64.65 -1.8 Q64.45 -1.95 64.2 -1.95 63.6 -1.6 63.2 -1.4 L62.8 -1.3 62.15 -1.2 61.7 -1.25 61.35 -1.35 61.5 -1.55 61.75 -1.85 Q62.05 -2.2 62.3 -2.25 L63.1 -2.45 Q63.2 -2.55 63.7 -3.4 63.9 -3.7 64.15 -3.8 M78.25 -10.2 L78.2 -10.0 78.0 -9.7 77.85 -9.65 Q77.55 -9.5 77.4 -9.4 L76.95 -9.4 76.85 -9.5 Q76.8 -9.55 76.8 -9.85 76.8 -10.25 77.3 -10.6 77.8 -10.9 78.15 -10.9 L78.2 -10.8 Q78.25 -10.75 78.25 -10.45 L78.25 -10.2 M86.65 -3.7 Q87.25 -3.8 87.7 -3.1 88.05 -2.45 88.05 -2.05 88.05 -1.6 87.6 -1.05 87.2 -0.55 86.95 -0.55 L86.4 -0.6 85.8 -0.65 Q85.6 -0.65 85.15 -1.1 84.7 -1.5 84.7 -1.65 84.85 -1.8 85.55 -2.9 85.95 -3.5 86.6 -3.7 L86.65 -3.7 M82.35 -1.6 L82.25 -1.55 Q81.8 -1.6 81.6 -1.85 L81.55 -1.9 81.35 -2.25 80.95 -1.75 80.75 -1.55 Q80.4 -1.2 80.2 -0.85 79.8 -0.75 79.7 -0.65 L78.6 -0.85 77.15 -1.0 Q76.95 -1.1 76.6 -1.4 L76.6 -1.6 76.6 -1.7 Q76.65 -1.85 76.8 -1.85 L77.2 -1.85 Q77.45 -1.85 81.2 -3.5 81.55 -3.6 81.75 -3.35 81.85 -3.2 82.0 -2.65 82.15 -2.2 82.3 -2.05 82.55 -1.8 82.95 -2.05 L83.0 -1.95 82.85 -1.85 82.6 -1.65 82.35 -1.6 M-12.0 -53.05 L-12.1 -53.1 -12.1 -52.95 -12.05 -52.85 -12.0 -52.85 -11.95 -53.1 -12.0 -53.05 M-3.3 -30.55 L-2.95 -29.5 -2.6 -28.65 -2.6 -28.6 Q-2.8 -28.55 -2.8 -28.5 -3.15 -28.7 -3.3 -29.35 L-3.45 -30.55 -3.3 -30.55 M-5.55 -27.7 Q-5.6 -27.9 -5.6 -28.15 -5.6 -28.6 -5.3 -28.85 -4.95 -29.15 -4.2 -29.1 -3.85 -28.95 -3.55 -28.3 -3.25 -27.7 -3.15 -27.05 L-3.2 -26.85 -3.3 -26.65 Q-3.5 -26.7 -3.65 -26.8 -3.85 -26.95 -3.85 -27.05 -4.8 -27.05 -5.2 -27.35 -5.45 -27.5 -5.55 -27.7" fill="#ffffff" fill-rule="evenodd" stroke="none"/>
    <path d="M84.6 -132.35 L84.2 -132.35 Q83.9 -132.45 83.35 -132.35 80.85 -132.4 79.8 -131.5 79.4 -131.2 79.1 -130.7 L78.7 -130.0 Q78.3 -129.5 76.75 -128.75 L75.8 -128.3 75.55 -128.3 Q75.4 -128.3 75.25 -128.5 L74.95 -129.0 Q74.5 -129.7 73.7 -129.7 72.85 -129.7 72.15 -129.0 L72.1 -128.95 71.65 -128.4 Q71.55 -128.2 71.25 -127.6 L70.9 -126.75 70.95 -126.35 71.05 -126.35 70.7 -125.95 70.65 -125.85 70.75 -125.75 70.85 -125.85 71.3 -126.35 71.35 -126.35 71.6 -126.65 71.95 -127.25 72.6 -128.05 72.75 -128.15 73.25 -128.15 73.4 -128.1 73.85 -127.7 Q74.5 -127.15 75.4 -127.1 L75.65 -127.1 75.7 -127.15 76.3 -127.25 76.35 -127.3 Q77.3 -127.65 78.35 -128.7 79.15 -129.45 79.7 -130.3 L80.85 -130.6 81.75 -130.75 82.85 -130.65 Q83.4 -130.5 83.4 -129.9 83.4 -129.8 83.05 -129.05 82.7 -128.25 82.7 -127.9 82.7 -127.7 82.6 -127.5 L82.6 -127.4 Q82.45 -127.05 82.2 -126.7 L82.1 -126.6 81.85 -126.2 80.9 -125.25 80.95 -125.0 81.4 -124.85 81.6 -124.9 82.05 -125.0 Q82.45 -125.2 82.7 -125.55 L82.85 -125.65 Q82.5 -125.0 82.1 -124.6 L81.55 -124.55 81.2 -124.45 Q81.15 -124.45 80.9 -124.65 L80.5 -125.0 80.5 -125.05 Q80.45 -125.2 80.45 -125.45 80.45 -125.65 80.9 -126.3 81.35 -126.95 81.35 -127.3 81.35 -127.6 81.3 -127.75 L81.05 -128.0 Q78.85 -127.6 78.0 -126.3 77.8 -126.0 77.45 -125.2 77.15 -124.55 76.85 -124.15 77.1 -123.85 78.0 -123.9 78.85 -123.9 79.2 -123.45 L79.15 -123.35 Q78.0 -123.35 77.45 -122.75 76.8 -122.1 76.8 -120.5 76.8 -120.25 76.95 -119.6 L77.1 -119.1 77.1 -118.75 Q77.1 -118.55 76.85 -118.35 L76.45 -118.05 76.0 -117.75 Q75.75 -117.55 75.75 -117.35 L75.8 -117.05 75.85 -116.95 76.2 -117.05 Q76.55 -117.15 76.8 -117.3 L76.95 -117.35 77.0 -117.2 Q77.0 -116.9 76.75 -116.75 L76.4 -116.55 75.95 -116.6 Q75.55 -116.8 75.5 -117.25 L75.4 -118.0 74.9 -119.45 74.45 -119.45 Q74.0 -119.15 73.65 -118.6 L73.1 -117.65 Q72.35 -116.6 70.45 -116.75 L70.35 -116.85 Q70.25 -116.9 70.0 -116.9 69.75 -116.9 69.15 -116.1 68.55 -115.35 68.45 -115.05 L68.2 -115.05 68.15 -115.95 68.1 -116.75 Q68.1 -117.45 68.25 -118.0 68.65 -119.2 69.55 -119.2 69.75 -119.2 70.1 -118.9 70.45 -118.6 70.65 -118.6 71.0 -118.6 71.15 -118.95 71.25 -119.2 71.25 -119.4 L71.2 -120.1 Q71.1 -120.6 71.1 -120.95 L70.55 -121.0 Q70.05 -121.0 69.6 -120.85 68.95 -120.55 68.45 -120.45 L68.05 -119.9 Q67.8 -119.5 67.55 -119.5 67.1 -119.5 67.0 -120.1 66.95 -120.35 67.0 -120.7 67.0 -122.2 67.75 -122.95 L68.45 -123.6 Q68.95 -124.0 69.25 -124.45 L69.95 -125.4 Q70.3 -125.85 70.45 -126.15 L70.65 -126.85 Q70.95 -127.6 71.35 -128.25 72.45 -130.15 73.9 -130.15 74.7 -130.15 75.15 -129.65 75.65 -129.15 76.0 -129.15 77.45 -129.65 78.1 -130.15 78.65 -130.5 79.5 -131.55 80.4 -132.6 82.7 -132.65 83.7 -132.65 84.35 -132.45 L84.6 -132.35 M83.4 -126.75 L83.4 -126.95 Q83.45 -127.25 83.5 -127.35 L83.9 -127.8 83.4 -126.75 M85.0 -130.8 L84.95 -130.95 Q84.8 -131.7 84.6 -132.3 85.05 -132.1 85.05 -131.75 85.05 -131.25 85.0 -130.8 M84.7 -129.55 Q84.7 -129.5 84.5 -129.3 L84.65 -129.75 84.7 -129.55 M77.7 -129.05 Q77.25 -128.7 76.75 -128.55 L78.25 -129.45 Q78.0 -129.25 77.7 -129.05 M77.7 -121.85 Q77.85 -122.1 78.2 -122.35 78.5 -122.55 78.7 -122.7 78.55 -122.35 78.45 -121.9 L78.25 -120.2 Q78.2 -119.65 78.1 -119.25 78.15 -119.65 78.15 -120.15 78.15 -120.35 77.9 -120.85 L77.65 -121.25 77.7 -121.85 M71.45 -105.45 L71.45 -105.3 Q71.45 -104.5 70.9 -103.8 L69.45 -102.2 Q68.7 -101.2 68.2 -100.65 L67.7 -100.15 68.6 -101.35 Q69.6 -102.65 69.8 -102.8 70.5 -103.45 70.95 -104.4 L71.45 -105.45 M67.45 -100.0 Q66.9 -99.65 66.4 -99.65 66.1 -99.65 65.95 -100.0 65.85 -100.4 65.7 -100.4 65.45 -100.4 65.05 -100.15 64.7 -99.9 64.4 -99.9 63.55 -99.9 63.25 -100.45 63.15 -100.65 63.1 -101.1 L62.65 -101.2 62.4 -101.4 Q62.3 -101.55 62.3 -101.85 62.3 -101.95 62.7 -102.5 63.15 -103.15 63.7 -103.75 L64.35 -104.45 Q63.0 -102.95 63.0 -102.4 63.0 -102.1 63.05 -102.1 L63.15 -102.15 Q63.75 -102.05 64.6 -103.05 65.5 -104.1 65.7 -104.1 66.1 -104.1 66.75 -103.35 67.35 -102.6 67.35 -102.2 67.35 -101.9 66.95 -101.3 66.55 -100.7 66.55 -100.45 66.55 -100.15 66.6 -100.1 L66.85 -100.0 67.45 -100.0 M65.5 -105.3 Q65.9 -105.5 66.2 -105.5 67.05 -105.5 67.45 -105.2 67.8 -104.95 67.9 -104.95 68.3 -104.95 68.95 -105.3 L70.15 -105.95 Q70.6 -106.2 70.9 -106.2 L69.7 -105.25 Q69.0 -104.7 68.7 -104.35 L68.15 -104.3 Q68.1 -104.5 67.8 -104.75 L67.25 -105.15 66.1 -105.2 65.5 -105.3 M81.8 -94.1 Q81.6 -93.75 81.1 -93.3 L80.2 -92.7 Q79.25 -92.6 78.5 -92.1 L77.15 -91.2 77.05 -91.25 Q77.0 -91.3 77.0 -91.6 77.0 -91.85 78.2 -93.35 L79.0 -94.4 79.0 -94.45 Q78.95 -94.55 78.75 -94.55 77.35 -94.55 76.4 -94.0 L75.75 -93.6 Q75.35 -93.4 75.0 -93.4 74.5 -93.4 74.4 -93.95 74.3 -94.2 74.35 -94.5 74.35 -95.15 75.05 -96.2 75.7 -97.15 76.75 -98.1 L77.5 -98.7 77.4 -98.45 Q77.45 -98.35 77.8 -98.3 L78.15 -98.25 Q78.25 -98.45 79.0 -98.95 79.85 -99.55 80.4 -99.65 L81.1 -99.35 Q81.5 -99.15 81.75 -99.15 82.2 -99.15 82.35 -99.55 L82.7 -100.3 83.05 -100.2 83.1 -100.0 Q83.2 -99.8 83.2 -99.3 83.2 -99.05 83.3 -98.55 83.4 -98.05 83.4 -97.75 83.4 -97.35 83.0 -96.95 82.55 -96.45 82.4 -95.95 82.3 -95.65 81.8 -94.95 L81.6 -94.7 81.15 -94.0 81.35 -93.95 81.8 -94.1 M56.25 -110.0 Q57.05 -109.5 57.05 -107.85 57.05 -107.2 56.75 -106.35 56.45 -105.5 56.0 -104.95 L55.55 -104.95 Q55.3 -105.6 55.05 -106.65 54.7 -107.45 53.8 -107.65 53.6 -107.65 53.1 -107.35 L52.6 -106.95 52.2 -106.95 52.0 -107.0 Q51.85 -107.05 51.85 -107.3 51.85 -108.0 52.65 -108.85 53.45 -109.65 54.45 -110.05 55.55 -110.45 56.25 -110.0 M56.6 -106.55 Q56.7 -106.85 56.7 -107.55 56.7 -108.35 56.3 -108.95 55.8 -109.7 54.7 -110.05 53.8 -109.6 53.8 -109.1 L53.8 -108.7 53.85 -108.65 55.15 -108.5 Q55.85 -107.95 55.85 -106.8 L55.8 -105.9 Q55.75 -105.45 55.9 -105.2 56.5 -106.25 56.6 -106.55 M54.45 -102.9 Q54.45 -103.45 54.5 -103.7 54.65 -104.2 55.15 -104.2 55.3 -104.2 55.45 -104.05 L55.7 -103.75 56.9 -103.55 Q57.95 -103.6 59.15 -104.85 L60.0 -105.8 Q60.45 -106.3 60.7 -106.45 60.9 -106.4 60.95 -106.35 61.05 -106.25 61.05 -105.95 61.05 -104.75 59.55 -103.25 58.1 -101.8 56.15 -101.0 54.85 -101.2 54.55 -101.9 54.45 -102.15 54.45 -102.9 M55.05 -103.0 Q54.95 -102.8 54.95 -102.5 54.95 -102.15 55.05 -101.9 L55.25 -101.5 55.9 -101.25 56.8 -101.3 Q57.7 -102.05 58.4 -102.75 59.45 -103.75 59.7 -104.2 59.3 -104.35 59.1 -104.2 L58.7 -103.7 Q58.0 -102.85 56.1 -102.85 55.9 -102.85 55.75 -103.15 55.6 -103.4 55.35 -103.4 L55.1 -103.35 55.2 -103.3 55.05 -103.0 M62.1 -99.9 L62.95 -99.75 Q63.75 -99.55 64.3 -99.2 64.65 -99.0 64.8 -98.75 64.45 -98.95 63.65 -99.25 L62.1 -99.9 M64.6 -98.25 L64.0 -97.45 Q63.55 -97.3 63.1 -97.05 62.6 -96.8 62.35 -96.65 61.3 -96.15 59.3 -95.9 L58.0 -95.9 57.6 -96.25 Q57.45 -96.35 57.45 -96.5 57.45 -97.15 58.0 -97.45 L58.45 -97.7 Q58.75 -97.85 58.9 -98.05 L59.2 -98.6 Q59.45 -99.1 59.95 -99.45 60.65 -100.0 61.9 -99.9 61.45 -99.7 60.8 -99.0 60.0 -98.15 60.0 -97.6 60.45 -97.6 60.55 -97.6 L60.9 -97.75 Q61.65 -98.05 64.6 -98.25 M66.05 -90.95 L66.05 -90.9 Q65.25 -89.65 64.15 -89.65 62.85 -89.65 62.45 -90.2 62.25 -90.45 62.25 -90.85 62.25 -91.7 62.95 -92.45 63.55 -93.2 64.45 -93.55 64.85 -93.7 65.2 -93.8 L64.3 -92.8 63.5 -91.9 Q63.5 -91.6 63.6 -91.6 L63.75 -91.7 Q63.85 -91.8 64.05 -92.05 64.15 -92.2 64.4 -92.2 L64.85 -91.9 Q65.4 -91.55 65.7 -91.4 65.7 -91.2 65.8 -90.95 L66.05 -90.95 M60.05 -68.55 Q59.95 -67.55 59.25 -66.0 58.35 -64.05 57.3 -63.85 L57.2 -63.9 Q57.2 -63.95 57.2 -64.2 L57.8 -66.1 Q58.45 -67.9 58.45 -68.85 58.45 -68.95 58.2 -69.45 L57.95 -70.1 Q57.75 -70.1 56.95 -69.7 56.15 -69.35 56.0 -69.35 L54.65 -69.4 52.65 -69.45 Q52.25 -69.75 52.05 -70.3 51.85 -70.75 51.85 -71.25 51.85 -72.0 51.95 -72.3 52.1 -72.75 52.7 -73.5 L53.15 -73.45 Q53.35 -73.3 53.5 -72.45 53.65 -71.7 54.1 -71.6 L54.85 -71.45 Q54.8 -71.35 54.8 -71.15 L54.35 -71.2 54.3 -71.15 54.3 -71.05 54.8 -71.0 Q54.8 -70.8 54.9 -70.65 L55.15 -70.45 55.6 -70.4 Q55.8 -70.65 55.95 -70.65 L55.95 -71.35 Q56.9 -71.35 57.55 -71.7 L58.1 -72.0 Q59.1 -72.0 59.25 -70.95 59.3 -70.65 59.3 -70.2 L59.25 -69.7 59.35 -69.7 59.4 -69.05 59.45 -68.05 Q59.45 -67.7 59.15 -66.9 58.85 -66.1 58.85 -66.0 58.85 -65.65 58.9 -65.7 L59.0 -65.9 Q59.1 -66.15 59.75 -67.85 L60.05 -68.55 M55.7 -71.7 Q56.0 -71.95 56.4 -72.35 56.8 -72.75 57.15 -72.95 L55.9 -71.55 Q55.8 -71.65 55.7 -71.7 M52.95 -72.75 Q52.7 -72.7 52.65 -72.6 52.5 -72.5 52.5 -72.15 52.5 -71.35 52.65 -71.15 52.9 -70.6 53.8 -70.6 L53.8 -70.65 Q53.7 -70.85 53.35 -71.8 53.1 -72.5 52.95 -72.75 M73.8 -70.3 L73.6 -69.9 72.6 -68.0 Q71.6 -66.2 69.75 -64.3 68.35 -62.8 66.25 -61.1 L65.85 -61.05 65.6 -61.2 Q65.5 -61.35 65.5 -61.65 65.5 -62.15 66.05 -63.05 L67.1 -64.65 Q67.3 -65.0 67.6 -66.05 68.0 -67.1 68.2 -67.55 L67.8 -67.65 Q67.65 -67.85 67.55 -68.0 67.5 -68.2 67.5 -68.55 67.5 -69.45 69.55 -71.7 70.65 -72.9 72.3 -74.55 L72.35 -74.8 Q71.8 -74.75 70.85 -74.45 70.0 -74.2 69.5 -74.2 68.0 -74.2 67.75 -74.95 67.7 -75.2 67.75 -75.5 L67.8 -75.75 Q67.5 -75.8 67.05 -76.3 L65.8 -76.0 64.85 -75.85 64.4 -75.85 64.25 -75.9 64.2 -76.0 Q64.15 -76.1 64.15 -76.35 64.15 -77.0 65.7 -78.2 67.0 -79.25 67.85 -79.3 67.75 -79.1 67.75 -78.85 L67.75 -78.55 67.8 -78.45 Q68.7 -78.75 69.0 -78.5 69.25 -78.3 69.3 -77.75 L69.4 -76.8 Q69.55 -76.3 70.05 -76.15 70.85 -76.2 71.75 -76.15 L73.65 -76.05 73.75 -75.95 74.65 -75.95 74.75 -76.05 Q74.85 -75.8 74.85 -75.6 74.85 -75.3 74.75 -75.05 74.7 -74.8 74.7 -74.7 74.7 -74.55 74.85 -74.25 L74.9 -74.2 72.1 -71.55 Q71.75 -71.2 71.2 -70.85 70.75 -70.6 70.6 -70.35 70.3 -69.9 70.05 -69.35 69.7 -68.65 69.7 -68.35 69.7 -68.0 69.95 -67.8 L70.0 -67.75 70.35 -67.45 70.45 -67.55 70.05 -67.0 Q69.05 -65.6 68.7 -64.35 L68.65 -64.2 68.8 -64.2 68.85 -64.3 69.05 -64.75 Q69.75 -66.1 70.9 -67.4 L71.7 -68.25 72.65 -69.2 73.45 -69.9 73.8 -70.3 M77.4 -76.1 Q77.5 -75.8 77.5 -75.65 77.5 -75.05 77.05 -74.3 77.15 -74.55 77.2 -74.85 77.35 -75.45 77.4 -76.1 M76.65 -73.75 L76.55 -73.6 75.95 -72.95 76.2 -73.6 76.25 -73.6 Q76.45 -73.6 76.65 -73.75 M71.65 -69.05 L71.4 -68.75 71.7 -69.15 73.0 -70.7 73.05 -70.75 71.65 -69.05 M33.15 -97.5 L33.0 -97.0 Q32.75 -96.25 32.0 -95.6 L31.5 -95.65 31.45 -95.7 Q31.4 -95.75 31.4 -96.0 31.4 -96.25 31.55 -96.6 31.7 -96.95 31.7 -97.15 31.7 -97.9 31.25 -98.35 31.0 -98.6 30.3 -98.8 29.55 -99.05 29.35 -99.2 28.9 -99.45 28.9 -100.0 28.9 -100.7 29.55 -101.05 L29.65 -101.1 Q29.4 -100.85 29.4 -100.7 29.4 -100.35 29.5 -100.35 L29.7 -100.3 Q29.95 -100.4 30.25 -100.75 30.45 -100.95 31.25 -101.05 31.55 -101.1 32.1 -100.7 32.6 -100.25 32.6 -100.0 32.6 -99.5 32.8 -98.3 32.95 -97.3 33.0 -97.05 L33.15 -97.5 M20.85 -90.45 Q20.95 -90.05 20.95 -89.7 20.95 -89.4 20.85 -89.2 L20.65 -88.9 19.6 -89.8 Q18.9 -90.4 18.55 -90.65 L17.2 -91.25 Q16.55 -91.5 16.55 -92.1 16.55 -92.4 16.65 -92.6 16.65 -92.45 16.7 -92.4 L17.05 -92.4 17.3 -92.65 Q17.55 -92.8 17.85 -92.8 18.15 -92.8 19.15 -91.95 19.75 -91.35 20.25 -91.1 20.55 -90.7 20.85 -90.45 M14.35 -83.3 L14.5 -83.3 Q14.8 -83.3 14.8 -83.45 L14.75 -83.55 14.7 -83.7 14.95 -83.7 14.95 -83.75 Q14.9 -83.85 14.6 -83.95 L14.15 -84.85 Q13.95 -85.2 13.9 -85.5 13.9 -85.9 14.1 -86.65 14.3 -87.45 14.5 -88.15 L15.0 -89.15 15.4 -89.7 Q15.85 -90.4 16.05 -90.8 L16.15 -90.8 16.4 -90.5 Q16.55 -90.35 16.55 -90.2 16.55 -90.1 15.75 -88.4 14.95 -86.7 14.95 -86.0 14.95 -85.6 15.25 -85.05 15.55 -84.55 15.55 -84.4 15.55 -84.15 15.4 -83.95 15.3 -83.75 15.3 -83.55 15.3 -83.25 15.15 -83.2 L14.95 -83.05 14.5 -83.05 14.35 -83.3 M16.65 -83.4 Q16.7 -84.15 17.55 -84.8 17.95 -85.1 18.35 -85.25 L18.3 -85.2 Q17.7 -84.65 16.65 -83.4 M22.3 -84.1 Q22.45 -83.7 22.45 -83.1 22.35 -82.45 22.2 -81.85 21.9 -80.6 21.55 -80.6 21.05 -80.6 20.75 -81.75 20.4 -83.2 20.2 -83.45 L19.1 -83.4 17.5 -83.2 17.15 -82.7 16.7 -82.75 16.7 -82.9 Q16.65 -83.05 16.65 -83.3 L16.65 -83.35 16.95 -83.3 Q17.8 -84.1 18.5 -85.0 18.8 -85.45 19.05 -85.45 19.35 -85.45 19.3 -85.3 L19.25 -85.15 20.0 -85.1 20.7 -85.05 21.15 -84.25 Q21.6 -83.65 21.95 -83.5 L22.15 -83.75 Q22.25 -83.85 22.3 -84.1 M6.85 -63.6 L6.9 -63.35 Q6.9 -63.05 6.55 -62.7 6.15 -62.3 5.85 -62.3 5.3 -62.3 5.2 -62.4 L4.1 -62.5 Q2.75 -64.15 2.2 -64.15 1.9 -64.15 1.3 -63.65 L0.7 -63.15 Q0.05 -63.15 -0.6 -63.4 -1.0 -63.6 -1.9 -64.05 L-3.25 -64.05 Q-4.45 -62.65 -5.35 -60.4 L-6.0 -58.55 Q-6.45 -57.5 -6.9 -56.75 -8.6 -53.9 -8.9 -52.9 -9.2 -52.0 -9.2 -49.55 -9.2 -49.3 -8.7 -47.85 -8.2 -46.35 -8.2 -46.25 -8.2 -45.95 -8.3 -45.85 L-8.55 -45.6 -9.1 -45.6 -9.25 -46.1 -9.35 -46.05 -9.4 -45.65 Q-10.45 -46.45 -11.6 -47.15 -12.25 -47.65 -12.25 -48.7 L-12.25 -48.85 Q-11.9 -47.85 -11.5 -47.85 -11.25 -47.85 -11.2 -47.95 L-11.15 -48.0 Q-11.15 -49.15 -11.4 -49.55 -11.65 -49.9 -11.65 -50.45 -11.65 -52.7 -10.85 -54.25 -10.5 -54.95 -9.75 -56.05 L-8.1 -58.45 Q-7.0 -60.1 -6.3 -62.55 -5.7 -64.75 -4.2 -65.5 -3.3 -65.9 -0.9 -66.05 L-0.75 -65.85 -0.5 -65.65 1.0 -65.65 Q1.3 -65.8 2.2 -66.5 2.8 -67.0 3.75 -67.15 4.25 -66.85 4.5 -66.3 4.6 -66.0 4.8 -65.25 4.95 -64.6 5.15 -64.25 5.35 -64.0 5.6 -63.8 5.8 -63.65 6.05 -63.5 L6.45 -63.5 6.4 -63.45 6.55 -63.5 6.85 -63.5 6.85 -63.6 M-8.8 -44.7 Q-8.6 -44.7 -8.45 -44.55 -8.3 -44.3 -8.1 -44.2 -8.0 -44.05 -7.85 -44.0 L-8.35 -44.05 Q-8.65 -44.25 -8.8 -44.7 M3.4 -47.25 Q4.0 -47.2 4.55 -46.6 4.95 -46.1 5.2 -45.25 5.4 -44.6 5.45 -44.2 5.3 -44.0 5.2 -43.75 5.1 -43.5 5.05 -43.2 L5.05 -41.6 Q5.05 -41.05 4.95 -40.1 4.85 -38.95 4.85 -38.8 4.85 -38.6 5.2 -38.3 5.5 -38.05 5.75 -37.95 L6.1 -39.05 Q6.0 -38.35 5.7 -37.6 5.05 -35.85 4.15 -35.4 L3.8 -35.5 3.7 -35.6 Q3.65 -35.7 3.65 -35.95 3.65 -36.25 3.95 -37.6 4.25 -38.9 4.2 -39.1 4.1 -40.8 4.05 -42.05 4.05 -42.5 4.2 -42.95 3.85 -43.5 3.3 -43.5 1.45 -43.5 -0.95 -42.25 -2.3 -41.55 -2.7 -41.4 -3.65 -41.0 -4.5 -41.0 -6.55 -41.0 -8.15 -42.45 -8.7 -42.9 -9.1 -43.5 -9.35 -43.9 -9.4 -44.1 L-9.0 -43.55 -8.3 -42.7 -7.5 -42.35 Q-6.85 -42.0 -6.15 -42.0 -5.85 -42.0 -5.4 -42.15 -5.05 -42.25 -4.55 -42.5 L-4.15 -42.7 Q-3.45 -43.05 -2.85 -43.45 -2.4 -43.65 -1.4 -44.6 -0.65 -45.25 0.15 -45.25 L1.75 -45.4 2.05 -45.4 3.35 -45.45 3.45 -45.5 3.6 -45.7 Q3.8 -45.9 4.05 -45.9 L4.35 -45.95 Q4.55 -45.8 4.8 -45.75 L4.8 -45.85 4.2 -46.55 4.15 -46.6 Q3.85 -47.05 3.4 -47.25 M19.1 -76.85 L19.3 -77.2 Q19.55 -77.55 19.9 -77.8 L19.1 -76.85 M25.45 -59.0 L25.35 -58.8 25.0 -57.9 Q24.75 -57.7 24.4 -57.15 L23.55 -55.7 Q23.7 -55.75 23.8 -55.8 L23.2 -54.9 Q22.8 -54.3 21.5 -53.25 20.4 -52.3 20.05 -51.5 19.75 -50.9 19.45 -49.65 L19.25 -48.9 19.25 -48.65 19.15 -48.55 18.9 -47.8 18.5 -47.85 Q17.45 -49.5 17.4 -49.7 17.25 -50.0 17.25 -51.05 L17.25 -51.15 17.55 -51.1 17.85 -51.2 Q17.9 -51.2 17.85 -51.25 L18.0 -51.8 Q18.05 -52.2 18.4 -52.65 L19.65 -54.1 20.65 -54.3 21.2 -54.45 21.2 -54.35 21.4 -54.5 Q22.45 -54.8 22.75 -55.15 L22.65 -55.2 22.75 -55.2 22.85 -55.6 22.8 -55.8 Q22.75 -55.8 22.65 -55.7 22.5 -55.6 22.45 -55.4 L22.5 -55.3 Q21.95 -55.6 21.5 -55.8 L21.75 -56.0 Q23.1 -57.25 23.6 -58.75 24.0 -59.85 24.0 -61.45 24.0 -63.25 22.75 -65.1 L21.9 -66.3 Q21.55 -66.9 21.55 -67.35 21.55 -68.7 22.4 -71.4 23.25 -74.1 23.25 -74.55 23.25 -75.45 23.05 -75.95 22.75 -76.7 21.95 -77.25 20.75 -77.0 20.2 -76.6 L19.45 -76.0 19.15 -76.0 Q19.5 -76.35 19.85 -76.75 L20.15 -77.15 20.15 -77.1 20.35 -77.05 Q21.05 -78.8 22.65 -78.8 23.05 -78.8 23.6 -77.3 24.05 -76.05 24.05 -75.5 24.05 -74.85 23.6 -71.9 L23.1 -69.0 Q23.1 -68.05 23.2 -67.65 23.4 -66.95 23.95 -66.4 24.55 -65.75 25.05 -65.1 25.65 -64.3 25.65 -63.85 25.65 -63.2 25.45 -62.2 25.2 -60.8 25.1 -60.05 25.05 -59.4 24.3 -58.1 23.45 -56.7 23.25 -56.25 L23.45 -56.15 Q24.15 -56.85 24.9 -58.0 25.25 -58.55 25.45 -59.0 M35.1 -94.05 L35.3 -94.05 35.7 -94.0 Q36.05 -93.7 36.4 -92.75 36.65 -92.0 36.8 -91.4 L36.75 -90.9 36.75 -90.85 Q36.6 -90.35 36.6 -89.8 36.6 -88.7 36.8 -87.95 37.25 -86.5 38.35 -86.5 L38.7 -86.4 38.55 -86.05 Q38.4 -85.8 38.15 -85.8 36.95 -85.8 36.35 -87.15 36.1 -87.7 35.95 -88.65 L35.65 -90.3 Q35.45 -91.35 34.9 -91.7 L34.25 -91.6 33.45 -90.9 32.95 -90.95 32.8 -91.05 Q32.7 -91.1 32.7 -91.4 32.7 -91.65 32.8 -91.9 L32.85 -91.8 Q33.3 -91.95 33.65 -92.55 34.1 -93.25 34.35 -93.45 L34.3 -93.55 Q34.05 -93.55 33.45 -92.9 L33.2 -92.7 33.3 -92.8 Q33.85 -93.6 34.6 -93.9 L35.1 -94.05 M44.55 -86.2 Q44.5 -86.0 44.45 -85.9 44.3 -85.6 43.9 -85.2 L43.5 -85.25 Q43.2 -85.6 42.9 -86.25 42.55 -86.65 41.7 -86.5 L41.5 -86.65 Q41.45 -86.8 41.45 -87.05 41.45 -87.5 41.9 -87.8 42.2 -88.0 42.6 -88.1 L42.55 -88.1 Q43.05 -87.9 43.45 -87.1 43.9 -86.2 44.25 -86.05 44.4 -86.1 44.55 -86.2 M31.25 -90.3 L31.25 -90.25 Q31.25 -90.1 31.0 -89.8 30.75 -89.4 30.45 -89.4 L30.05 -89.45 Q29.65 -89.55 29.45 -90.2 29.3 -90.55 29.3 -90.95 29.3 -91.4 29.6 -91.6 L29.85 -91.65 29.85 -91.6 31.05 -90.1 31.25 -90.3 M40.9 -62.05 L40.9 -61.8 40.95 -60.65 Q40.95 -60.3 40.55 -59.2 40.2 -58.15 40.25 -57.9 L40.45 -57.9 Q40.7 -58.0 41.0 -58.45 40.8 -57.9 40.3 -57.05 L39.8 -57.05 40.05 -57.4 Q39.95 -57.4 39.75 -57.2 L39.65 -57.1 39.55 -57.1 Q39.45 -57.15 39.45 -57.4 39.45 -57.65 39.65 -58.75 L39.8 -60.05 Q39.8 -60.75 39.3 -61.5 38.6 -62.65 37.1 -62.65 36.95 -62.65 36.7 -62.45 36.45 -62.25 36.25 -62.25 36.05 -62.25 36.0 -62.45 35.9 -62.65 35.7 -62.65 35.5 -62.65 35.45 -62.45 L35.45 -62.25 34.95 -62.3 34.8 -62.5 Q34.7 -62.65 34.7 -62.95 34.7 -63.7 35.7 -64.25 36.7 -64.85 37.9 -64.75 39.1 -64.65 39.9 -63.85 39.2 -64.3 38.0 -64.65 L37.7 -64.5 37.35 -64.2 37.4 -64.0 37.55 -64.0 Q38.45 -64.4 39.4 -64.1 L39.9 -63.85 40.1 -63.65 Q40.65 -63.0 40.9 -62.05 M35.75 -54.7 L35.7 -54.45 Q35.7 -54.1 35.75 -54.1 L35.85 -54.15 Q36.2 -54.4 37.8 -55.05 38.55 -55.4 38.8 -55.8 38.95 -55.6 38.95 -55.2 38.95 -54.4 37.55 -53.4 36.0 -52.45 35.75 -52.25 L35.3 -52.95 Q35.15 -53.25 35.15 -53.6 35.15 -54.1 35.75 -54.7 M36.0 -63.9 L35.55 -63.7 Q35.05 -63.45 34.75 -63.05 L34.8 -62.7 Q35.3 -62.75 35.6 -63.15 L36.0 -63.9 M35.2 -52.4 L35.3 -52.45 Q35.6 -52.05 35.6 -51.8 35.55 -51.65 35.55 -51.6 35.55 -51.35 35.85 -50.35 36.15 -49.25 36.35 -48.9 36.9 -48.15 38.0 -47.65 39.55 -47.0 39.75 -46.85 L39.85 -46.6 Q39.45 -46.2 39.1 -46.15 L38.8 -46.1 39.0 -46.45 38.15 -46.35 Q37.6 -46.2 37.25 -46.0 L36.65 -46.0 Q36.05 -46.0 35.55 -46.3 L35.8 -46.25 Q35.95 -46.3 36.05 -46.4 34.65 -48.45 34.55 -50.4 L34.55 -50.45 34.6 -50.65 35.2 -52.4 M45.45 -57.95 Q45.25 -57.85 44.85 -57.25 44.4 -56.55 44.4 -56.35 44.4 -56.05 44.45 -56.0 L44.55 -55.95 45.1 -55.95 Q45.8 -57.25 45.8 -57.4 45.8 -57.75 45.7 -57.85 L45.45 -57.95 M44.4 -55.55 Q44.3 -55.7 44.3 -56.0 44.3 -56.5 44.75 -57.35 45.25 -58.25 45.7 -58.25 46.2 -58.25 46.45 -57.75 46.55 -57.5 46.55 -57.25 46.55 -56.9 46.15 -56.15 45.7 -55.25 45.3 -55.25 L44.65 -55.3 44.4 -55.55 M27.95 -46.7 L27.9 -46.0 Q27.8 -45.0 27.6 -44.75 L27.2 -44.8 Q26.9 -45.2 26.75 -46.3 26.6 -47.25 25.95 -47.8 25.35 -47.5 23.7 -46.0 22.45 -44.9 21.85 -44.9 19.6 -44.85 19.45 -44.9 19.35 -44.9 19.35 -45.05 19.3 -45.25 19.05 -45.45 L18.7 -45.95 18.4 -46.45 Q18.2 -46.8 18.2 -47.0 L18.2 -47.3 Q18.2 -47.2 18.3 -47.1 L18.5 -46.95 Q18.6 -46.85 18.7 -46.85 L18.75 -46.8 20.05 -46.65 21.6 -46.5 Q22.15 -46.5 23.15 -47.45 L24.05 -48.4 Q24.7 -48.4 24.9 -48.75 25.25 -49.25 25.7 -49.5 L26.9 -49.55 Q27.15 -49.55 27.15 -49.45 L27.2 -49.4 27.4 -47.2 Q27.55 -45.95 27.5 -45.2 L27.75 -45.45 Q27.8 -45.75 27.95 -46.7 M18.55 -47.45 L18.85 -47.55 19.4 -47.1 20.45 -46.95 21.3 -46.85 21.6 -46.9 21.55 -46.85 19.25 -46.8 18.65 -47.35 18.55 -47.45 M34.15 -44.85 Q34.1 -44.7 34.1 -44.55 34.1 -44.45 34.5 -44.15 L35.3 -43.55 Q36.5 -42.6 36.6 -41.85 L36.85 -40.0 Q37.0 -38.9 37.0 -38.55 37.0 -37.75 36.9 -36.7 L37.0 -36.7 Q37.2 -37.05 37.45 -37.65 L37.2 -36.85 Q36.65 -35.25 35.7 -35.0 L35.7 -34.9 Q35.65 -34.9 35.65 -35.2 35.65 -35.8 35.85 -36.5 36.05 -37.25 36.05 -38.05 36.05 -39.55 35.4 -40.65 34.5 -42.05 32.8 -42.05 L32.45 -42.1 32.35 -42.15 32.3 -42.25 Q32.3 -42.4 32.3 -42.65 32.3 -43.25 34.15 -44.85 M27.9 -40.4 Q27.75 -39.55 27.35 -38.85 26.45 -37.25 24.7 -37.15 L24.3 -37.05 24.35 -37.0 Q24.4 -36.95 24.4 -36.7 24.4 -36.6 24.25 -36.4 24.05 -36.15 23.9 -36.15 L23.5 -36.2 22.25 -37.25 Q21.9 -37.6 21.9 -38.1 21.9 -38.4 22.0 -38.7 22.25 -38.8 22.7 -39.0 L23.2 -39.25 Q23.65 -39.25 24.25 -38.4 24.9 -37.55 25.05 -37.55 26.95 -37.55 27.75 -40.0 L27.9 -40.4 M24.65 -39.4 L25.05 -39.0 25.8 -38.3 Q26.55 -38.3 27.25 -39.95 27.8 -41.3 27.8 -41.75 L27.9 -41.75 27.9 -41.7 27.85 -40.95 Q27.55 -38.85 26.15 -37.9 25.6 -38.1 25.2 -38.55 L24.65 -39.4 M24.55 -32.05 L24.55 -31.4 Q24.45 -31.15 24.05 -30.6 L23.45 -30.7 23.05 -30.8 Q22.8 -30.9 22.5 -31.75 22.3 -32.5 22.3 -32.9 22.3 -33.55 22.65 -33.75 22.65 -33.55 22.7 -33.55 L22.75 -33.6 Q23.8 -33.1 24.3 -32.45 L24.55 -32.05 M50.55 -48.0 Q50.3 -47.5 49.8 -47.05 48.85 -46.25 48.55 -45.7 48.1 -45.0 48.1 -42.9 48.1 -42.75 48.3 -41.9 L48.5 -40.95 48.25 -40.75 47.85 -40.65 Q46.85 -40.65 46.2 -42.2 45.95 -42.7 45.8 -43.3 45.7 -43.7 45.7 -43.8 45.7 -44.45 45.95 -45.1 45.9 -44.8 45.9 -44.35 45.9 -43.6 45.95 -43.35 46.1 -42.8 46.5 -42.75 46.2 -43.5 46.25 -44.15 46.3 -44.85 46.8 -45.35 L48.1 -46.65 Q49.15 -47.7 49.4 -47.7 50.0 -47.7 50.55 -48.0 M48.4 -48.2 Q49.35 -49.1 49.7 -49.7 50.45 -50.75 50.45 -51.85 50.45 -53.8 48.8 -55.75 L47.65 -57.0 Q47.1 -57.6 47.1 -57.95 47.1 -58.55 47.55 -59.05 48.0 -59.55 48.7 -59.75 49.75 -60.05 50.6 -59.65 L50.15 -59.65 50.05 -59.5 Q48.9 -59.45 48.3 -59.05 47.75 -58.7 47.75 -58.25 47.75 -57.9 47.85 -57.75 L48.1 -57.6 49.3 -57.3 50.35 -57.05 Q51.05 -56.25 51.35 -55.6 51.7 -54.75 51.7 -53.6 51.7 -52.8 51.6 -51.55 51.55 -51.1 51.35 -50.5 51.0 -49.9 50.7 -49.55 50.15 -48.9 49.0 -48.45 L48.4 -48.2 M52.0 -58.25 L52.2 -57.85 51.95 -58.15 52.0 -58.25 M3.65 -60.8 L4.4 -60.9 Q4.95 -59.85 6.9 -59.2 L7.75 -59.2 8.05 -59.4 8.1 -59.45 8.2 -59.3 8.2 -58.85 Q8.2 -58.5 8.05 -58.1 7.85 -57.45 7.3 -57.45 5.25 -57.45 4.2 -58.5 3.5 -59.2 3.5 -60.05 3.5 -60.35 3.6 -60.7 L3.65 -60.8 M6.95 -34.5 L7.2 -34.5 7.7 -34.6 Q8.7 -35.45 9.2 -36.95 L9.55 -38.2 Q9.8 -38.9 10.05 -39.4 L10.95 -39.5 11.05 -39.75 Q11.05 -40.05 10.8 -40.5 L10.95 -40.55 11.4 -40.6 12.05 -40.5 12.6 -40.35 12.55 -40.5 Q12.05 -40.95 11.65 -41.15 11.85 -41.15 12.2 -40.9 13.2 -40.35 13.65 -39.3 L13.9 -38.5 Q13.6 -39.1 13.35 -39.65 L13.25 -39.6 Q13.4 -38.9 14.05 -36.85 14.5 -35.4 14.5 -34.45 14.5 -33.95 14.3 -33.7 14.15 -33.5 13.75 -33.3 12.9 -32.9 12.7 -32.15 L12.25 -30.8 Q12.0 -30.0 12.0 -29.4 L12.1 -27.85 Q12.05 -26.9 11.7 -26.4 L11.95 -26.35 11.7 -26.0 Q11.15 -26.4 11.15 -26.7 L11.25 -27.7 Q11.35 -28.55 11.35 -28.95 L11.3 -30.05 11.25 -31.0 Q11.25 -31.65 11.5 -32.05 11.6 -32.3 12.0 -32.7 12.35 -33.05 12.5 -33.3 12.7 -33.75 12.7 -34.4 L12.3 -36.15 Q11.75 -37.8 11.0 -37.8 L10.7 -37.75 10.05 -37.65 Q9.6 -36.45 8.85 -35.4 8.05 -34.25 7.55 -34.3 L7.1 -34.35 Q7.05 -34.4 7.0 -34.4 L6.95 -34.5 M12.55 -28.75 L12.4 -27.85 Q12.25 -27.2 12.1 -26.75 12.15 -27.15 12.3 -27.75 L12.55 -28.75 M-2.05 -34.55 Q-2.2 -33.9 -2.55 -33.2 -2.75 -32.7 -2.75 -32.05 -2.75 -31.55 -2.6 -31.05 L-2.05 -29.85 Q-1.6 -28.8 -0.75 -28.5 0.3 -28.35 0.85 -28.0 L1.2 -28.05 1.55 -28.4 Q1.75 -28.65 2.0 -28.75 L2.1 -28.7 Q1.9 -28.45 1.8 -28.1 1.55 -27.3 0.95 -26.95 L-0.25 -26.85 Q-1.1 -26.85 -1.35 -27.15 -1.65 -27.5 -1.95 -27.5 L-1.9 -27.4 Q-0.75 -26.65 -0.3 -26.5 -1.95 -26.55 -2.95 -28.45 -3.8 -29.95 -3.8 -31.25 -3.8 -32.05 -3.2 -33.3 L-3.1 -33.45 Q-3.6 -32.25 -3.6 -31.9 -3.6 -31.1 -3.3 -30.8 -3.1 -32.2 -2.3 -34.0 L-2.05 -34.55 M-2.95 -33.85 Q-3.15 -34.2 -3.1 -34.85 -3.0 -35.8 -3.15 -36.3 -3.25 -36.65 -3.85 -37.5 L-4.7 -38.7 -5.25 -38.6 -5.6 -38.55 Q-5.8 -38.55 -5.9 -38.6 L-5.95 -38.65 -5.95 -39.1 Q-5.95 -39.6 -5.45 -39.85 -4.6 -40.3 -4.45 -40.5 L-4.0 -40.45 Q-3.85 -40.2 -3.65 -39.95 L-2.8 -39.8 -2.3 -38.5 Q-1.9 -37.35 -1.9 -37.0 -1.9 -36.45 -2.75 -34.4 L-2.95 -33.85 M4.85 -16.85 L5.05 -16.95 Q5.1 -18.25 5.65 -19.5 6.2 -20.7 7.05 -21.6 7.6 -22.2 8.1 -22.4 L8.25 -22.5 Q8.6 -22.7 9.6 -22.8 9.8 -23.25 10.7 -25.1 10.95 -24.85 11.0 -24.4 L10.7 -23.7 Q10.2 -22.4 10.0 -22.0 L9.6 -21.9 9.05 -21.95 Q8.4 -22.0 7.9 -21.8 7.7 -21.75 7.5 -21.6 6.85 -21.2 6.55 -20.2 6.4 -19.75 6.15 -18.25 6.0 -17.15 5.75 -16.5 L5.65 -16.3 5.8 -16.25 5.85 -16.3 6.7 -18.55 Q7.35 -20.3 8.0 -21.15 L8.7 -21.2 8.45 -20.8 Q7.65 -19.45 7.1 -18.35 L6.5 -16.55 Q6.2 -15.6 5.95 -15.25 6.0 -14.8 6.1 -14.4 6.5 -12.8 7.65 -12.8 8.65 -12.8 10.0 -13.75 10.7 -14.2 11.2 -14.65 11.6 -14.65 11.85 -14.35 L11.6 -13.85 Q11.4 -13.45 10.5 -12.3 L9.7 -11.15 Q9.35 -10.95 9.0 -10.85 8.8 -11.3 8.55 -11.4 8.35 -11.5 7.9 -11.3 L7.15 -10.9 6.55 -10.85 6.45 -10.85 6.3 -10.95 5.75 -11.3 5.25 -11.75 5.15 -11.75 Q5.15 -11.6 5.3 -11.5 4.75 -11.9 4.45 -12.6 4.2 -13.25 4.15 -13.9 L4.65 -13.35 Q4.5 -13.7 4.35 -14.3 4.2 -15.0 4.2 -15.3 4.2 -15.35 4.5 -15.9 4.8 -16.5 4.95 -16.7 L4.85 -16.85 M11.4 -12.55 L10.8 -11.95 Q10.45 -11.6 10.05 -11.35 10.3 -11.7 10.65 -12.0 L11.4 -12.55 M19.85 -12.95 L19.45 -12.5 Q19.2 -12.7 19.1 -13.25 L18.95 -14.2 Q18.65 -15.2 17.05 -14.55 16.9 -14.7 16.85 -14.85 16.8 -15.0 16.8 -15.3 16.8 -15.85 17.1 -16.2 17.35 -16.45 17.75 -16.5 L17.4 -16.15 Q17.5 -16.05 17.7 -16.0 L17.9 -16.0 18.85 -16.05 Q19.55 -15.6 19.55 -14.4 19.55 -13.7 19.6 -13.5 19.65 -13.15 19.85 -12.95 M19.2 -10.65 Q19.15 -10.85 19.15 -11.05 19.15 -11.9 19.3 -12.1 19.5 -12.45 20.2 -11.65 L21.0 -10.5 Q21.6 -9.9 22.45 -10.15 L22.5 -10.0 22.55 -9.65 Q22.55 -9.35 22.25 -9.15 L22.05 -9.25 21.95 -9.35 Q21.2 -9.0 20.95 -9.2 20.4 -9.55 20.0 -9.6 19.85 -9.8 19.8 -9.95 19.65 -10.15 19.65 -10.45 19.65 -10.95 19.8 -11.8 19.25 -11.65 19.2 -10.65 M18.6 -0.05 L18.3 -0.15 Q18.6 -0.4 21.35 -1.4 24.3 -2.45 24.55 -2.6 26.9 -4.0 29.2 -3.15 30.05 -2.8 30.7 -2.2 L31.15 -1.75 31.0 -1.85 Q30.0 -2.4 29.85 -2.4 29.45 -2.45 28.5 -1.75 27.7 -1.15 27.35 -0.75 24.85 -0.6 22.7 -0.25 20.95 0.05 19.65 0.05 L18.6 -0.05 M37.75 -31.0 Q37.75 -30.9 38.0 -30.25 38.25 -29.65 38.25 -29.5 38.25 -29.25 38.0 -28.6 37.7 -27.95 37.55 -27.85 L37.15 -27.75 36.9 -27.2 37.2 -26.85 Q37.35 -26.6 37.75 -26.6 L37.95 -26.65 37.75 -26.4 37.0 -26.35 Q36.25 -26.35 36.1 -27.05 36.0 -27.4 36.05 -27.8 36.05 -28.6 36.85 -29.9 37.35 -30.7 37.75 -31.0 M34.6 -33.5 L34.9 -33.55 34.95 -33.45 Q35.0 -33.4 35.0 -33.15 35.0 -33.05 34.75 -32.8 L34.2 -32.15 Q33.35 -30.9 33.1 -28.9 L33.1 -28.8 Q33.05 -28.75 32.85 -28.75 32.65 -28.75 32.2 -29.55 31.8 -30.3 31.8 -30.4 31.8 -30.8 31.95 -31.15 L31.95 -31.1 Q32.0 -30.45 32.15 -30.0 L32.15 -30.05 Q32.25 -31.2 32.95 -32.05 33.35 -32.5 34.6 -33.5 M34.25 -21.8 L34.3 -21.25 Q34.3 -20.9 34.2 -20.35 34.25 -21.25 34.25 -21.7 L34.25 -21.8 M34.15 -20.1 Q33.95 -19.25 33.75 -18.95 L33.5 -19.0 33.45 -19.0 33.35 -19.0 Q33.2 -19.25 32.9 -20.05 32.6 -20.8 32.5 -20.95 31.15 -20.8 30.45 -20.4 L30.05 -20.45 29.9 -20.65 Q29.8 -20.8 29.8 -21.1 L29.8 -21.25 30.0 -21.35 Q31.5 -23.1 32.05 -23.1 33.65 -23.1 33.75 -21.95 33.8 -21.7 33.75 -20.95 33.7 -20.4 33.75 -20.15 L34.15 -20.1 M29.9 -21.6 Q30.0 -22.05 30.4 -22.55 31.0 -23.3 31.75 -23.7 31.65 -23.35 31.5 -23.1 L30.45 -22.15 29.9 -21.6 M43.9 -23.1 Q43.75 -22.7 43.45 -22.2 L42.6 -20.75 42.8 -20.7 Q43.25 -21.45 44.25 -22.7 45.5 -24.3 46.05 -24.3 L46.45 -24.2 46.55 -24.1 Q46.55 -23.75 46.9 -23.25 47.2 -22.8 47.35 -22.7 L47.45 -23.0 47.5 -22.8 Q47.6 -22.15 47.7 -21.85 L48.05 -20.7 Q47.75 -21.4 47.45 -21.45 47.4 -21.4 47.4 -20.9 L47.7 -20.4 Q47.95 -19.9 47.95 -19.75 47.95 -19.5 48.1 -19.1 48.25 -18.65 48.25 -18.4 48.25 -18.05 48.15 -17.75 48.1 -17.55 47.85 -17.1 L48.15 -17.2 Q48.05 -16.85 47.8 -16.45 47.15 -15.3 46.35 -15.3 L46.05 -15.35 45.95 -15.4 Q45.95 -15.75 45.9 -16.6 L45.85 -17.95 Q45.85 -18.15 45.6 -18.6 45.3 -19.1 45.25 -19.25 L45.0 -19.85 Q44.75 -20.45 44.45 -20.45 44.0 -20.45 43.35 -19.9 42.65 -19.25 42.4 -19.2 L42.3 -19.3 Q42.25 -19.35 42.25 -19.65 42.25 -20.55 43.55 -22.55 L43.9 -23.1 M35.2 -10.7 Q34.2 -11.25 34.2 -11.6 34.2 -11.95 34.3 -12.1 L34.3 -12.15 Q34.2 -12.35 34.2 -12.5 34.2 -12.9 34.4 -13.1 34.6 -13.3 34.9 -13.2 35.55 -13.0 35.55 -11.95 L36.05 -11.6 Q36.15 -11.6 36.4 -11.9 36.65 -12.2 36.85 -12.2 37.15 -12.2 37.55 -10.45 L37.55 -10.2 37.5 -10.1 37.3 -9.95 36.9 -9.95 Q36.9 -10.0 36.95 -10.05 L36.95 -10.35 Q36.95 -10.65 36.35 -11.0 35.75 -11.35 35.2 -11.35 35.15 -11.5 35.15 -10.95 L35.2 -10.7 M64.2 -60.2 L64.2 -60.15 Q63.65 -59.25 63.05 -59.3 L62.4 -59.35 Q62.0 -59.3 61.55 -59.05 L60.7 -58.55 Q60.55 -58.45 60.05 -58.1 59.8 -57.95 58.05 -55.75 57.8 -55.4 57.45 -54.6 L56.95 -53.15 Q56.3 -51.45 55.55 -51.45 55.2 -51.45 55.05 -51.95 54.95 -52.25 54.95 -52.55 54.95 -53.55 55.55 -56.1 56.1 -58.6 56.35 -59.1 56.6 -59.55 57.15 -60.8 57.8 -61.85 58.8 -62.15 61.0 -62.8 62.0 -62.1 62.4 -61.85 62.8 -61.25 L63.25 -60.5 Q62.9 -60.55 62.8 -60.65 62.75 -61.05 62.45 -61.3 L61.8 -61.75 61.8 -61.8 Q61.15 -62.85 59.85 -62.2 59.05 -62.25 58.65 -62.0 57.85 -61.55 57.3 -60.7 56.65 -59.8 56.65 -59.0 56.65 -58.75 56.5 -58.15 56.35 -57.6 56.35 -57.35 56.35 -56.5 56.55 -55.0 L56.9 -55.0 57.2 -55.95 Q57.55 -56.9 57.9 -57.6 59.15 -59.85 61.4 -59.85 L62.35 -59.8 Q63.0 -59.75 63.05 -59.8 63.45 -60.0 64.2 -60.2 M51.65 -41.15 Q51.3 -40.95 51.0 -40.8 50.15 -40.4 50.15 -40.95 L49.4 -40.95 Q49.3 -41.1 48.95 -41.25 L48.85 -41.25 Q48.85 -41.3 48.85 -41.55 48.85 -41.9 48.95 -42.05 49.0 -42.2 49.2 -42.25 50.4 -42.7 50.8 -42.95 51.9 -43.55 52.45 -44.05 L53.1 -44.85 Q53.55 -45.45 53.8 -45.85 L54.25 -46.6 Q54.75 -47.15 55.45 -46.85 L55.55 -46.85 Q55.6 -46.8 55.6 -46.55 55.6 -46.0 55.35 -45.35 55.35 -46.3 55.15 -46.9 54.95 -46.85 54.55 -45.75 54.0 -44.35 53.85 -44.05 53.7 -43.8 53.25 -43.3 52.8 -42.85 52.55 -42.7 52.25 -42.55 51.15 -42.25 50.6 -42.15 50.6 -41.6 50.6 -41.25 50.65 -41.25 L50.8 -41.2 51.25 -41.15 51.65 -41.15 M57.0 -17.3 L57.0 -17.25 Q57.1 -17.15 57.4 -17.05 L57.75 -17.0 Q58.25 -17.3 58.45 -17.35 L58.85 -17.3 Q60.1 -16.95 61.2 -16.8 L61.1 -16.7 Q60.65 -16.05 60.45 -15.7 60.25 -15.4 60.0 -14.9 L60.15 -14.85 59.45 -14.35 59.05 -14.35 Q58.65 -14.6 58.7 -15.2 58.75 -15.9 58.6 -16.15 L57.25 -16.25 56.4 -16.3 56.05 -16.3 56.0 -16.35 Q56.0 -16.45 56.0 -16.7 56.0 -16.95 56.8 -17.25 L57.0 -17.3 M60.45 -15.1 Q60.7 -15.5 61.1 -15.9 L60.9 -15.6 60.45 -15.1 M58.35 -17.65 Q58.3 -17.45 57.9 -17.4 L57.2 -17.4 58.35 -17.65 M55.05 -4.45 L54.8 -4.3 54.85 -4.3 Q54.95 -4.4 55.05 -4.45 M54.4 -4.05 L54.0 -3.85 Q53.7 -4.1 52.55 -4.65 51.95 -4.9 51.95 -5.6 51.95 -6.2 52.7 -7.1 53.25 -7.8 53.45 -7.85 L54.3 -7.8 54.5 -7.75 54.5 -7.4 Q54.5 -7.3 54.85 -6.65 55.2 -6.05 55.2 -5.8 55.2 -5.65 54.8 -5.25 54.4 -4.9 54.4 -4.2 L54.4 -4.05 M61.7 -14.7 Q61.75 -14.45 61.9 -14.4 L62.15 -14.3 Q63.4 -14.3 63.95 -13.65 L64.5 -13.0 Q64.85 -12.6 65.3 -12.3 L65.35 -12.4 65.35 -12.35 Q65.35 -12.05 65.2 -11.9 L65.0 -11.7 64.4 -11.7 63.55 -11.95 61.95 -12.3 Q61.1 -12.5 60.85 -12.9 60.75 -13.05 60.75 -13.65 60.75 -14.45 61.45 -14.65 L61.7 -14.7 M61.5 -1.55 L61.2 -1.55 Q61.05 -1.6 60.95 -1.95 L60.8 -2.5 60.6 -2.25 Q60.45 -2.1 60.3 -2.1 L60.05 -2.2 Q59.95 -2.3 59.95 -2.55 59.95 -3.15 60.7 -3.6 61.35 -4.0 62.25 -4.15 63.2 -4.3 63.85 -4.0 L64.15 -3.8 Q63.9 -3.7 63.7 -3.4 63.2 -2.55 63.1 -2.45 L62.3 -2.25 Q62.05 -2.2 61.75 -1.85 L61.5 -1.55 M77.85 -9.65 L77.85 -9.6 Q77.35 -9.1 77.0 -9.1 L76.5 -9.1 76.05 -9.25 Q75.85 -9.5 75.8 -9.6 75.7 -9.8 75.7 -10.1 75.7 -10.65 76.0 -11.05 76.55 -11.65 77.85 -11.35 78.15 -11.1 78.25 -10.85 L78.35 -10.55 Q78.35 -10.4 78.25 -10.2 L78.25 -10.45 Q78.25 -10.75 78.2 -10.8 L78.15 -10.9 Q77.8 -10.9 77.3 -10.6 76.8 -10.25 76.8 -9.85 76.8 -9.55 76.85 -9.5 L76.95 -9.4 77.4 -9.4 Q77.55 -9.5 77.85 -9.65 M76.6 -1.6 Q76.05 -1.95 75.45 -2.55 74.15 -3.9 73.85 -4.9 73.9 -5.05 74.0 -5.15 74.15 -5.25 74.4 -5.25 74.95 -5.25 75.35 -5.1 L76.0 -4.7 Q76.95 -4.15 79.1 -4.15 80.75 -4.15 81.5 -4.65 82.0 -4.95 82.3 -5.65 82.55 -6.2 82.85 -6.2 83.3 -6.25 84.6 -5.55 84.7 -5.4 85.5 -5.1 86.2 -4.8 86.45 -4.45 86.6 -4.2 86.65 -3.7 L86.6 -3.7 Q85.95 -3.5 85.55 -2.9 84.85 -1.8 84.7 -1.65 84.7 -1.5 85.15 -1.1 L85.0 -0.95 Q84.45 -0.95 84.3 -1.15 84.15 -1.35 83.0 -1.45 82.6 -1.5 82.35 -1.6 L82.6 -1.65 82.85 -1.85 83.0 -1.95 82.95 -2.05 Q82.55 -1.8 82.3 -2.05 82.15 -2.2 82.0 -2.65 81.85 -3.2 81.75 -3.35 81.55 -3.6 81.2 -3.5 77.45 -1.85 77.2 -1.85 L76.8 -1.85 Q76.65 -1.85 76.6 -1.7 L76.6 -1.6 M81.55 -1.9 L80.95 -1.75 81.35 -2.25 81.55 -1.9 M-3.3 -30.55 L-3.45 -30.55 -3.3 -29.35 Q-3.15 -28.7 -2.8 -28.5 -2.8 -28.55 -2.6 -28.6 L-2.6 -28.65 -2.95 -29.5 -3.3 -30.55 M-3.3 -26.65 L-3.3 -26.5 Q-3.3 -26.25 -3.5 -26.15 L-3.9 -26.0 -4.3 -25.15 Q-4.55 -24.5 -4.8 -24.4 L-5.2 -24.45 Q-5.65 -24.95 -5.75 -25.35 -5.8 -25.5 -5.8 -26.15 -5.8 -27.25 -5.55 -27.7 -5.45 -27.5 -5.2 -27.35 -4.8 -27.05 -3.85 -27.05 -3.85 -26.95 -3.65 -26.8 -3.5 -26.7 -3.3 -26.65" fill="#bffff0" fill-opacity="0.7490196" fill-rule="evenodd" stroke="none"/>
  </g>
</svg>
