<?xml version="1.0" encoding="UTF-8" standalone="no"?>
<svg xmlns:ffdec="https://www.free-decompiler.com/flash" xmlns:xlink="http://www.w3.org/1999/xlink" ffdec:objectType="shape" height="23.2px" width="124.0px" xmlns="http://www.w3.org/2000/svg">
  <g transform="matrix(1.0, 0.0, 0.0, 1.0, -79.5, 353.45)">
    <path d="M172.0 -346.6 Q175.45 -342.85 186.5 -337.9 192.6 -335.15 203.5 -330.5 L196.1 -330.25 Q194.8 -330.35 185.2 -333.65 175.9 -336.85 172.75 -336.85 L165.35 -336.6 168.0 -335.85 169.2 -335.05 170.75 -334.1 171.0 -333.35 Q167.4 -333.65 157.35 -336.05 145.95 -338.75 139.0 -339.75 L127.3 -340.05 115.6 -340.75 113.2 -341.05 Q110.75 -341.45 110.75 -341.75 94.9 -340.85 89.95 -339.0 L86.7 -337.45 Q84.85 -336.6 82.0 -336.1 L79.5 -336.35 86.05 -339.7 Q91.7 -341.95 100.75 -343.5 L100.7 -343.85 100.5 -344.6 97.0 -345.1 Q99.05 -346.45 103.45 -347.75 111.7 -350.15 125.85 -351.75 L135.1 -352.25 Q144.55 -354.95 155.65 -351.6 L164.15 -348.65 Q168.95 -346.95 172.0 -346.6 M194.35 -333.6 Q189.3 -335.35 174.75 -342.15 163.0 -347.7 152.25 -350.25 L125.85 -350.5 Q123.55 -348.65 115.9 -348.4 107.35 -348.1 104.35 -346.85 102.25 -346.35 102.0 -345.6 L102.25 -345.1 107.5 -344.6 Q107.7 -344.25 107.35 -344.0 L106.1 -343.5 Q114.35 -342.75 114.6 -342.25 119.25 -341.75 119.5 -341.25 L140.0 -340.25 Q147.5 -339.35 156.6 -337.35 159.75 -336.7 162.05 -337.25 L164.85 -338.0 Q174.65 -338.0 182.3 -335.85 186.2 -334.75 188.75 -333.35 L192.25 -333.25 194.35 -333.6" fill="#d5f5f9" fill-opacity="0.5019608" fill-rule="evenodd" stroke="none"/>
    <path d="M194.35 -333.6 L192.25 -333.25 188.75 -333.35 Q186.2 -334.75 182.3 -335.85 174.65 -338.0 164.85 -338.0 L162.05 -337.25 Q159.75 -336.7 156.6 -337.35 147.5 -339.35 140.0 -340.25 L119.5 -341.25 Q119.25 -341.75 114.6 -342.25 114.35 -342.75 106.1 -343.5 L107.35 -344.0 Q107.7 -344.25 107.5 -344.6 L102.25 -345.1 102.0 -345.6 Q102.25 -346.35 104.35 -346.85 107.35 -348.1 115.9 -348.4 123.55 -348.65 125.85 -350.5 L152.25 -350.25 Q163.0 -347.7 174.75 -342.15 189.3 -335.35 194.35 -333.6" fill="#ffffff" fill-opacity="0.7019608" fill-rule="evenodd" stroke="none"/>
  </g>
</svg>
