<?xml version="1.0" encoding="UTF-8" standalone="no"?>
<svg xmlns:ffdec="https://www.free-decompiler.com/flash" xmlns:xlink="http://www.w3.org/1999/xlink" ffdec:objectType="shape" height="295.6px" width="534.4px" xmlns="http://www.w3.org/2000/svg">
  <g transform="matrix(1.0, 0.0, 0.0, 1.0, 321.65, 344.55)">
    <path d="M153.8 -76.25 L156.45 -76.7 Q159.85 -76.5 163.1 -71.9 161.7 -69.8 160.8 -69.05 159.2 -67.7 154.15 -67.7 L145.35 -68.95 136.6 -70.45 146.8 -75.75 Q148.55 -76.7 153.4 -76.7 151.65 -76.75 152.7 -77.8 153.7 -78.8 153.8 -76.7 L153.8 -76.25" fill="#b6f3fa" fill-rule="evenodd" stroke="none"/>
    <path d="M157.95 -112.9 Q157.65 -112.25 156.9 -111.9 L154.8 -112.25 154.7 -113.0 Q154.45 -113.9 154.45 -114.95 L155.35 -115.1 157.2 -114.95 Q157.95 -114.0 157.95 -112.9 M147.9 -83.6 Q147.25 -83.2 145.45 -82.95 L141.0 -82.5 136.9 -82.85 135.5 -83.2 135.15 -84.3 Q135.7 -84.6 136.7 -84.95 L137.6 -85.25 141.2 -85.25 145.45 -84.95 Q147.55 -84.3 147.9 -83.6 M132.75 -57.0 Q126.85 -57.75 125.5 -58.75 129.45 -60.5 130.9 -60.7 134.75 -61.6 136.6 -59.4 L136.6 -57.75 132.75 -57.0 M149.0 -68.4 Q149.0 -69.5 148.3 -71.45 149.95 -72.35 149.95 -73.75 150.95 -74.2 160.4 -72.2 158.3 -70.15 155.65 -68.8 153.6 -67.7 152.7 -67.7 L150.5 -67.7 149.0 -68.4" fill="#ffffff" fill-rule="evenodd" stroke="none"/>
    <path d="M-278.6 -56.7 Q-266.95 -54.2 -264.55 -52.2 L-264.85 -50.7 Q-265.85 -50.05 -269.9 -49.5 L-276.55 -48.95 -287.7 -49.25 Q-291.5 -50.05 -295.45 -54.4 -293.7 -57.55 -293.7 -58.55 -290.3 -59.3 -278.6 -56.7 M-255.25 -54.05 Q-256.2 -53.1 -260.05 -52.75 -261.05 -53.2 -261.9 -54.5 -262.9 -55.6 -263.1 -56.5 L-262.1 -57.55 Q-259.7 -57.55 -257.75 -56.6 -255.7 -55.6 -255.25 -54.05 M-319.15 -115.7 Q-320.9 -116.0 -321.55 -118.1 -322.3 -122.0 -317.3 -128.15 -311.95 -134.55 -307.45 -131.85 -309.1 -129.45 -312.35 -123.1 -315.75 -117.65 -319.15 -115.7" fill="#b6f3fa" fill-rule="evenodd" stroke="none"/>
    <path d="M-197.45 -74.4 Q-199.85 -74.7 -200.2 -75.8 -196.15 -77.65 -192.55 -78.45 L-187.85 -78.85 -187.85 -77.9 -192.55 -76.25 Q-195.5 -75.05 -197.45 -74.4 M-300.35 -82.05 Q-299.8 -82.15 -299.15 -82.7 -296.1 -83.8 -294.65 -81.8 -293.7 -80.5 -293.7 -78.55 -293.7 -76.25 -294.55 -75.6 -294.8 -75.35 -297.2 -74.7 L-298.95 -75.8 -300.25 -76.45 -300.45 -76.7 -300.55 -79.5 Q-300.55 -81.7 -300.35 -82.05 M-279.6 -55.15 L-279.95 -54.05 Q-281.65 -52.45 -286.15 -52.45 -290.3 -52.45 -291.5 -53.2 -292.7 -53.85 -293.35 -56.5 -291.4 -57.0 -286.25 -56.5 -281.35 -55.95 -279.6 -55.15 M-313.7 -123.85 Q-314.35 -124.2 -314.65 -124.95 -312.35 -131.1 -304.7 -131.1 -308.0 -130.4 -309.1 -127.7 -310.3 -124.75 -313.7 -123.85 M-286.5 -100.15 Q-286.5 -103.25 -285.5 -104.3 L-282.75 -103.75 Q-281.65 -103.1 -281.65 -100.8 -281.65 -98.75 -282.0 -98.55 L-282.35 -98.75 -284.75 -98.4 Q-286.15 -99.2 -286.5 -100.15 M-242.15 -114.9 Q-242.15 -112.85 -242.45 -112.6 -242.7 -112.5 -242.8 -112.95 L-243.35 -113.25 -242.8 -112.2 -245.2 -112.2 -245.75 -113.6 -248.6 -114.05 -250.75 -114.6 -251.0 -114.6 -251.1 -117.2 Q-251.1 -119.15 -250.75 -119.4 -250.2 -119.15 -249.65 -119.7 -245.95 -120.7 -244.3 -119.3 L-243.9 -119.15 -243.55 -119.05 -243.55 -118.4 -243.1 -117.55 Q-242.15 -116.75 -242.15 -114.9" fill="#ffffff" fill-rule="evenodd" stroke="none"/>
    <path d="M176.85 -343.1 L180.0 -341.25 Q180.0 -340.5 179.0 -340.25 178.45 -340.65 175.05 -342.05 171.45 -343.5 171.0 -343.75 171.3 -344.7 172.6 -344.5 174.7 -344.25 176.85 -343.1 M212.75 -312.25 Q212.35 -311.65 210.8 -310.95 209.15 -310.25 207.75 -310.25 L206.5 -310.6 Q205.25 -311.05 205.1 -311.5 210.4 -313.0 212.25 -313.0 L212.75 -312.25 M115.35 -339.75 L115.6 -339.25 113.1 -338.5 109.6 -339.05 106.5 -339.75 105.1 -341.05 103.6 -342.75 104.6 -343.0 115.35 -339.75 M134.85 -327.85 Q134.35 -328.35 131.0 -328.75 L129.9 -329.85 129.0 -331.0 Q130.8 -331.25 134.3 -330.3 L139.0 -328.75 Q138.0 -328.1 134.85 -327.85 M-143.35 -200.0 Q-147.3 -197.45 -148.25 -197.1 L-151.25 -196.35 -152.6 -196.85 Q-151.6 -198.5 -148.95 -199.95 -145.55 -201.85 -143.35 -200.0 M-102.1 -228.0 L-100.0 -226.1 -99.75 -225.85 -101.35 -225.6 Q-101.85 -225.6 -105.1 -228.5 -104.85 -229.5 -104.1 -229.5 L-102.1 -228.0" fill="#ffffff" fill-rule="evenodd" stroke="none"/>
  </g>
</svg>
