<?xml version="1.0" encoding="UTF-8" standalone="no"?>
<svg xmlns:ffdec="https://www.free-decompiler.com/flash" xmlns:xlink="http://www.w3.org/1999/xlink" ffdec:objectType="shape" height="331.1px" width="639.75px" xmlns="http://www.w3.org/2000/svg">
  <g transform="matrix(1.0, 0.0, 0.0, 1.0, 371.0, 392.55)">
    <path d="M250.05 -144.7 Q254.55 -147.4 259.9 -140.95 264.95 -134.8 264.2 -130.85 263.55 -128.8 261.8 -128.45 258.4 -130.45 255.0 -135.9 251.7 -142.25 250.05 -144.7 M204.35 -67.05 Q203.45 -65.75 202.5 -65.3 198.65 -65.65 197.65 -66.65 198.1 -68.15 200.2 -69.15 202.15 -70.15 204.55 -70.15 L205.55 -69.05 Q205.35 -68.15 204.35 -67.05 M206.95 -64.75 Q209.4 -66.75 221.1 -69.25 232.85 -71.9 236.25 -71.1 236.25 -70.15 238.0 -66.95 234.05 -62.55 230.2 -61.8 L219.05 -61.45 212.35 -62.0 Q208.3 -62.55 207.3 -63.25 L206.95 -64.75" fill="#b6f3fa" fill-rule="evenodd" stroke="none"/>
    <path d="M134.75 -88.9 L130.0 -90.55 130.0 -91.5 134.75 -91.05 Q138.35 -90.3 142.4 -88.45 142.1 -87.35 139.65 -87.0 137.7 -87.7 134.75 -88.9 M251.7 -140.5 Q250.6 -143.25 247.3 -143.9 255.0 -143.9 257.3 -137.75 256.95 -137.0 256.3 -136.7 252.9 -137.55 251.7 -140.5 M185.95 -131.2 L185.95 -131.85 186.25 -131.95 186.7 -132.05 Q188.35 -133.5 192.05 -132.5 192.6 -131.95 193.15 -132.2 193.5 -131.95 193.5 -130.0 L193.4 -127.35 193.15 -127.35 190.95 -126.8 188.1 -126.35 187.55 -124.95 185.15 -124.95 185.7 -126.05 185.15 -125.7 184.85 -125.4 Q184.5 -125.6 184.5 -127.7 184.5 -129.55 185.5 -130.3 L185.95 -131.2 M227.25 -111.15 L224.85 -111.45 224.5 -111.25 Q224.2 -111.45 224.2 -113.55 224.2 -115.85 225.3 -116.5 L228.0 -117.05 Q229.0 -115.95 229.0 -112.9 228.7 -111.9 227.25 -111.15 M237.1 -88.2 Q236.25 -88.9 236.25 -91.2 236.25 -93.15 237.25 -94.45 238.65 -96.45 241.75 -95.35 242.4 -94.8 242.95 -94.7 243.15 -94.35 243.15 -92.15 L243.05 -89.3 242.8 -89.1 Q242.4 -89.1 241.5 -88.45 L239.75 -87.35 Q237.35 -88.0 237.1 -88.2 M222.1 -67.7 Q223.85 -68.5 228.8 -69.05 233.95 -69.6 235.9 -69.05 235.25 -66.4 234.05 -65.75 232.85 -65.0 228.7 -65.0 224.2 -65.0 222.45 -66.65 L222.1 -67.7" fill="#ffffff" fill-rule="evenodd" stroke="none"/>
    <path d="M-252.4 -123.1 Q-247.6 -123.85 -247.6 -117.2 L-247.6 -115.7 -249.55 -113.7 Q-251.1 -112.5 -253.3 -112.5 -255.45 -112.5 -255.7 -112.95 L-255.55 -113.25 Q-255.55 -114.05 -256.45 -115.45 -257.3 -117.0 -257.3 -118.85 -257.3 -120.15 -255.8 -121.45 -254.25 -122.8 -252.4 -123.1 M-359.0 -80.6 Q-358.7 -81.4 -358.7 -78.0 L-358.9 -74.7 -359.0 -73.4 -361.5 -72.75 -364.7 -72.65 -367.65 -73.1 Q-369.5 -73.95 -371.0 -77.1 -368.95 -80.3 -364.9 -80.75 L-359.0 -80.6" fill="#b6f3fa" fill-rule="evenodd" stroke="none"/>
    <path d="M-318.7 -84.55 Q-320.8 -85.3 -321.2 -86.1 L-320.8 -87.6 -319.8 -89.15 Q-318.25 -89.15 -316.75 -87.8 -315.65 -86.95 -314.0 -84.65 L-315.3 -83.65 Q-316.65 -83.65 -318.7 -84.55 M-250.75 -112.5 L-255.25 -112.5 -256.9 -114.6 -256.9 -115.7 Q-255.55 -117.55 -253.15 -118.4 L-250.75 -117.55 Q-250.0 -116.9 -250.0 -114.6 -250.0 -112.5 -250.45 -112.3 L-250.75 -112.5 M-320.9 -134.9 L-319.8 -135.9 -317.5 -136.1 -316.4 -135.9 -316.1 -133.9 Q-316.1 -133.25 -316.4 -132.4 L-316.75 -131.85 -319.8 -131.85 Q-320.9 -132.85 -320.9 -134.9 M-287.8 -143.0 Q-288.45 -142.55 -288.9 -142.45 -289.45 -142.75 -290.0 -143.85 -290.65 -145.15 -290.65 -145.95 L-288.1 -145.7 Q-287.35 -145.4 -286.15 -144.2 -286.6 -143.55 -287.8 -143.0 M-202.4 -156.3 L-200.85 -155.85 Q-200.85 -153.8 -201.6 -152.8 L-203.7 -152.4 Q-204.65 -153.15 -205.0 -154.15 -205.0 -155.2 -204.35 -156.2 L-202.4 -156.3 M-363.8 -73.85 Q-363.8 -71.65 -364.35 -71.75 L-364.9 -72.3 -367.95 -72.3 -368.95 -73.4 -369.4 -75.35 -368.95 -78.55 -367.95 -79.5 -365.65 -79.3 -364.45 -79.2 -364.15 -77.1 Q-363.8 -75.8 -363.8 -73.85" fill="#ffffff" fill-rule="evenodd" stroke="none"/>
    <path d="M253.6 -389.25 L250.0 -390.25 Q249.65 -390.75 249.45 -391.55 L249.25 -392.5 Q250.05 -392.7 252.0 -391.9 254.05 -391.05 255.1 -390.0 254.6 -389.5 253.6 -389.25 M268.75 -323.75 L266.35 -322.25 263.0 -321.75 262.75 -323.25 265.9 -324.25 Q267.0 -324.5 268.5 -324.25 L268.75 -323.75 M175.75 -343.8 L178.75 -342.75 179.0 -342.25 176.5 -341.5 174.1 -341.75 172.75 -342.55 Q171.65 -343.1 171.25 -343.5 L172.1 -344.1 172.6 -344.5 175.75 -343.8 M224.85 -324.35 L224.6 -325.5 Q226.0 -327.6 226.75 -328.05 L229.5 -327.85 Q228.8 -326.1 224.85 -324.35 M104.0 -266.0 Q105.6 -265.75 105.75 -265.1 105.35 -264.6 104.35 -264.35 L96.5 -263.5 94.1 -264.1 95.2 -265.4 96.5 -266.35 104.0 -266.0 M95.1 -240.0 L96.5 -238.85 Q97.25 -238.2 97.25 -237.75 97.25 -237.35 96.5 -237.1 L93.85 -237.1 Q91.1 -238.55 89.75 -241.5 L90.25 -241.65 Q90.75 -241.85 90.75 -242.0 L92.4 -241.1 Q93.6 -240.45 95.1 -240.0 M-138.25 -248.55 L-137.0 -248.75 Q-135.95 -247.85 -134.6 -245.85 L-135.1 -245.45 Q-135.9 -245.0 -137.25 -244.85 L-139.5 -247.75 Q-139.15 -248.25 -138.25 -248.55 M-155.85 -210.25 L-155.6 -209.5 Q-155.85 -209.25 -157.7 -208.6 L-160.0 -207.75 -162.5 -208.5 -161.35 -209.8 -160.0 -210.75 -155.85 -210.25 M-208.0 -200.85 L-209.5 -200.25 -210.2 -200.55 -213.6 -201.0 Q-216.1 -201.6 -216.1 -202.5 L-213.6 -202.7 -208.25 -202.0 -208.0 -200.85 M-173.6 -218.5 L-174.4 -218.85 Q-175.2 -219.3 -175.35 -219.75 -169.4 -223.1 -168.0 -222.25 -169.8 -220.4 -173.6 -218.5" fill="#ffffff" fill-rule="evenodd" stroke="none"/>
  </g>
</svg>
