<?xml version="1.0" encoding="UTF-8" standalone="no"?>
<svg xmlns:ffdec="https://www.free-decompiler.com/flash" xmlns:xlink="http://www.w3.org/1999/xlink" ffdec:objectType="shape" height="320.6px" width="671.55px" xmlns="http://www.w3.org/2000/svg">
  <g transform="matrix(1.0, 0.0, 0.0, 1.0, 357.7, 400.45)">
    <path d="M190.0 -130.0 Q190.0 -136.7 194.8 -135.9 196.65 -135.6 198.2 -134.25 199.75 -132.95 199.75 -131.65 199.75 -129.75 198.85 -128.25 198.0 -126.8 198.0 -126.05 L198.1 -125.7 Q197.9 -125.3 195.7 -125.3 193.5 -125.3 191.95 -126.5 L190.0 -128.45 190.0 -130.0 M307.5 -85.25 L304.3 -85.35 301.8 -86.05 301.7 -87.35 Q301.45 -88.65 301.45 -90.65 301.45 -94.05 301.8 -93.25 L307.7 -93.4 Q311.8 -92.95 313.85 -89.75 312.35 -86.6 310.45 -85.7 309.6 -85.25 307.5 -85.25" fill="#b6f3fa" fill-rule="evenodd" stroke="none"/>
    <path d="M143.85 -165.75 Q143.05 -166.7 143.05 -168.8 L144.6 -169.25 146.55 -169.15 Q147.25 -168.15 147.25 -167.05 146.9 -166.05 145.9 -165.3 L143.85 -165.75 M262.45 -148.75 L263.55 -147.75 Q263.55 -145.65 262.45 -144.7 L259.4 -144.7 259.05 -145.25 Q258.7 -146.1 258.7 -146.75 L259.05 -148.75 260.15 -148.95 262.45 -148.75 M263.45 -100.3 L263.85 -98.75 Q263.45 -98.0 261.35 -97.2 259.25 -96.35 257.95 -96.35 L256.65 -97.3 Q258.3 -99.6 259.4 -100.5 260.9 -101.8 262.45 -101.8 L263.45 -100.3 M230.65 -158.6 L233.2 -158.8 Q233.2 -158.05 232.5 -156.75 231.95 -155.65 231.4 -155.3 231.0 -155.4 230.35 -155.85 229.1 -156.4 228.7 -157.05 L230.65 -158.6 M199.3 -128.45 L199.3 -127.35 197.65 -125.3 193.15 -125.3 192.85 -125.05 Q192.4 -125.3 192.4 -127.35 192.4 -129.65 193.15 -130.3 193.4 -130.55 195.55 -131.2 198.0 -130.3 199.3 -128.45 M311.8 -91.2 L312.2 -88.0 311.8 -86.05 310.8 -84.95 307.7 -84.95 307.15 -84.4 Q306.6 -84.3 306.6 -86.45 306.6 -88.45 306.95 -89.75 L307.3 -91.85 308.5 -91.95 310.8 -92.15 311.8 -91.2" fill="#ffffff" fill-rule="evenodd" stroke="none"/>
    <path d="M-357.25 -87.95 L-356.95 -87.5 Q-354.85 -87.05 -353.2 -86.2 -351.15 -85.0 -351.15 -83.15 -351.15 -81.05 -351.45 -80.4 L-351.8 -79.85 Q-354.85 -79.85 -356.95 -80.6 L-357.5 -82.6 -357.7 -85.85 Q-357.7 -88.05 -357.25 -87.95" fill="#b6f3fa" fill-rule="evenodd" stroke="none"/>
    <path d="M-256.55 -156.55 Q-257.65 -157.6 -257.65 -159.7 -256.55 -160.25 -255.45 -160.35 L-254.15 -160.35 Q-254.15 -157.6 -254.8 -156.55 L-256.55 -156.55 M-214.6 -140.05 L-213.95 -141.15 -212.0 -141.15 -210.45 -140.7 Q-210.45 -138.7 -211.2 -137.65 -212.55 -137.85 -213.5 -138.6 L-214.6 -140.05 M-357.25 -84.35 L-356.95 -86.4 Q-355.6 -87.05 -354.65 -87.15 L-353.55 -87.05 -353.75 -84.55 Q-354.0 -83.15 -354.85 -82.7 L-357.25 -84.35 M-347.3 -173.0 Q-346.9 -174.45 -344.6 -176.2 -340.75 -174.65 -340.75 -171.8 -340.75 -169.75 -341.4 -169.65 L-343.95 -169.65 Q-347.0 -171.15 -347.3 -173.0 M-326.7 -157.2 Q-328.3 -157.2 -328.75 -157.95 -325.25 -159.7 -324.6 -157.95 -325.15 -157.2 -326.7 -157.2" fill="#ffffff" fill-rule="evenodd" stroke="none"/>
    <path d="M251.45 -400.25 Q252.0 -400.15 252.0 -398.6 L251.85 -396.8 251.5 -396.35 251.0 -395.6 249.4 -396.65 Q248.5 -397.4 248.5 -399.0 248.5 -401.5 248.75 -399.75 L249.35 -400.0 Q249.75 -400.1 249.75 -400.25 250.5 -400.1 251.45 -400.25 M268.9 -369.8 L270.75 -368.6 269.25 -368.1 267.1 -368.1 Q266.6 -368.15 266.6 -369.75 266.6 -371.3 266.95 -370.95 L267.25 -370.5 268.9 -369.8 M239.5 -357.1 L238.5 -356.85 238.3 -357.5 238.25 -359.5 238.3 -361.45 238.5 -362.25 239.25 -362.25 Q240.0 -360.05 239.5 -357.1 M199.5 -354.25 L198.5 -354.0 198.4 -353.75 Q198.25 -353.8 198.25 -355.35 198.25 -356.8 201.25 -358.6 200.95 -356.9 199.5 -354.25 M164.05 -269.65 Q160.85 -267.35 155.6 -267.1 156.1 -268.4 157.0 -269.0 161.2 -270.2 164.55 -272.2 166.9 -273.65 168.0 -273.5 165.85 -270.9 164.05 -269.65 M167.25 -240.75 L160.0 -237.1 157.5 -237.75 Q161.75 -240.85 167.0 -241.5 L167.25 -240.75 M85.7 -390.6 L85.75 -388.85 Q85.75 -387.6 85.55 -387.3 85.15 -386.7 83.35 -386.1 83.85 -387.6 83.85 -391.0 L85.35 -391.0 85.7 -390.6 M101.75 -243.6 L100.55 -243.3 98.0 -243.0 93.1 -243.6 93.1 -245.1 101.75 -245.1 101.75 -243.6 M-122.1 -319.25 L-122.0 -319.1 -123.75 -319.0 Q-124.4 -319.0 -125.95 -321.35 -127.5 -323.65 -127.5 -324.6 -125.9 -324.5 -124.3 -323.2 -122.55 -321.75 -122.1 -319.75 L-122.1 -319.25 M-156.75 -267.1 L-157.3 -266.7 Q-157.95 -266.35 -158.75 -266.35 L-160.75 -267.1 Q-161.85 -268.05 -162.25 -269.25 L-162.0 -270.0 Q-160.25 -270.45 -156.75 -268.5 L-156.75 -267.1 M-286.6 -218.25 Q-283.9 -216.8 -282.0 -213.25 L-282.2 -212.8 -282.9 -212.05 -282.5 -211.5 -283.0 -211.0 -284.15 -212.4 Q-285.05 -213.0 -285.6 -214.2 L-285.9 -214.95 -286.35 -215.6 -286.2 -215.65 -286.85 -217.5 -286.6 -218.25 M-223.35 -219.5 L-219.0 -219.25 -217.75 -218.45 Q-216.85 -217.95 -216.6 -217.5 L-217.0 -216.85 -221.75 -217.4 Q-224.3 -217.95 -224.85 -218.5 L-223.9 -219.1 -223.35 -219.5 M-203.65 -216.95 L-204.6 -217.75 -203.45 -218.2 Q-202.85 -218.4 -202.85 -218.5 -200.5 -218.25 -200.0 -217.5 L-200.55 -217.15 -202.85 -216.6 -203.65 -216.95 M-187.0 -238.25 L-188.1 -236.8 Q-189.4 -235.4 -191.25 -234.85 L-192.1 -235.05 Q-193.05 -235.4 -193.35 -235.85 L-190.75 -237.75 Q-188.65 -239.05 -187.75 -239.0 L-187.0 -238.25" fill="#ffffff" fill-rule="evenodd" stroke="none"/>
  </g>
</svg>
