<?xml version="1.0" encoding="UTF-8" standalone="no"?>
<svg xmlns:ffdec="https://www.free-decompiler.com/flash" xmlns:xlink="http://www.w3.org/1999/xlink" ffdec:objectType="shape" height="246.2px" width="585.1px" xmlns="http://www.w3.org/2000/svg">
  <g transform="matrix(1.0, 0.0, 0.0, 1.0, 285.1, 424.85)">
    <path d="M234.35 -421.75 L223.0 -412.95 Q217.35 -408.5 216.6 -405.35 L215.1 -405.6 215.1 -410.75 Q216.65 -413.0 223.45 -417.1 L231.25 -422.0 234.35 -421.75 M205.35 -397.35 Q200.9 -392.6 199.9 -387.75 199.5 -385.9 199.5 -378.75 199.5 -374.3 199.65 -371.35 L199.85 -368.4 200.35 -368.0 200.8 -367.65 Q202.85 -369.55 204.45 -366.25 205.05 -364.95 206.35 -359.3 L206.5 -359.3 206.75 -358.55 206.65 -358.4 206.75 -358.05 206.95 -357.8 207.05 -357.4 Q208.9 -356.05 211.25 -354.85 L212.25 -355.1 210.55 -360.3 Q209.8 -361.05 209.4 -362.05 L208.05 -365.4 208.05 -368.0 208.1 -368.0 206.15 -370.95 203.6 -374.1 Q202.85 -375.1 202.65 -376.65 202.5 -377.65 202.5 -380.0 202.5 -381.25 203.45 -384.65 204.35 -388.1 204.35 -389.35 204.35 -390.6 203.45 -390.05 202.5 -389.5 202.5 -390.75 202.5 -392.2 203.85 -394.05 L206.35 -397.35 Q205.85 -397.6 205.35 -397.35 M207.0 -396.65 L205.35 -394.0 Q205.0 -393.25 205.15 -391.9 L205.35 -388.85 Q205.35 -387.6 204.45 -384.45 203.5 -381.35 203.5 -380.1 203.5 -375.35 206.4 -372.75 209.15 -370.15 209.25 -365.25 L209.8 -363.95 212.35 -359.15 212.25 -358.9 212.0 -359.05 212.8 -357.7 216.6 -351.75 216.85 -351.0 214.1 -351.0 Q206.85 -354.45 202.25 -362.15 203.45 -360.5 205.15 -358.95 L205.2 -359.45 205.4 -359.15 205.45 -359.0 205.6 -359.1 Q204.9 -360.25 204.1 -364.1 203.3 -366.4 201.9 -366.35 L201.5 -366.0 201.15 -366.1 201.0 -366.0 200.7 -366.0 200.4 -365.85 200.55 -365.4 200.35 -365.8 200.0 -365.6 199.5 -366.1 199.7 -366.35 199.45 -367.75 199.25 -368.45 Q197.5 -373.15 197.5 -377.6 197.5 -383.75 199.85 -390.05 202.75 -397.85 208.0 -401.25 L208.2 -400.95 208.25 -399.35 Q208.25 -398.7 207.0 -396.65 M217.1 -409.5 Q218.6 -410.35 222.05 -413.4 225.6 -416.55 227.75 -417.85 223.4 -416.4 221.0 -414.6 218.35 -412.6 217.1 -409.5 M264.0 -422.0 L263.5 -421.75 260.0 -422.0 259.75 -423.1 Q260.6 -424.4 261.5 -424.85 263.55 -424.45 264.1 -423.25 L264.0 -422.0 M250.75 -421.0 L246.6 -420.5 249.0 -420.55 251.75 -421.0 250.75 -421.0 M250.75 -423.0 L255.1 -422.25 252.0 -419.25 245.85 -418.1 242.5 -418.25 Q243.9 -420.3 245.45 -421.25 247.25 -422.35 250.75 -423.0 M281.45 -416.65 L282.75 -415.6 282.0 -414.85 279.5 -415.1 278.25 -416.6 278.7 -417.05 279.0 -417.35 Q280.5 -417.2 281.45 -416.65 M299.3 -388.4 Q300.0 -387.5 300.0 -384.75 300.0 -383.55 299.4 -381.3 298.85 -379.3 299.0 -378.25 L298.5 -378.0 296.1 -378.25 296.8 -379.1 Q297.1 -379.65 297.1 -381.25 297.1 -382.5 296.1 -384.9 295.1 -387.35 295.1 -388.6 L295.15 -390.9 295.6 -391.5 295.6 -391.75 299.3 -388.4 M297.25 -375.25 Q297.25 -374.55 296.85 -374.15 L295.75 -374.15 295.5 -374.9 295.6 -375.65 296.85 -375.65 297.25 -375.25 M-284.4 -211.5 L-281.8 -208.35 Q-280.15 -206.6 -278.15 -205.35 -276.95 -204.6 -274.3 -203.85 L-271.6 -203.15 -269.55 -201.9 -267.25 -200.25 -263.5 -197.3 -259.15 -194.15 Q-258.05 -193.25 -252.0 -191.3 L-245.1 -189.15 -242.25 -189.25 -243.65 -189.65 -243.65 -190.35 -243.15 -190.1 Q-239.45 -189.9 -237.6 -189.2 -236.45 -188.55 -236.1 -188.55 L-229.15 -186.65 Q-222.7 -184.75 -216.55 -184.75 -216.2 -184.75 -214.55 -185.45 -213.0 -186.05 -212.55 -186.35 L-212.25 -186.75 -199.85 -187.0 Q-197.35 -187.15 -195.2 -187.8 L-192.25 -188.65 Q-191.1 -188.55 -191.0 -188.15 L-201.65 -183.0 Q-211.65 -178.65 -216.8 -178.65 -218.15 -178.65 -218.5 -179.0 L-226.8 -179.65 -231.25 -180.1 Q-236.2 -181.6 -242.3 -184.6 -249.8 -188.25 -252.75 -189.4 L-256.8 -189.9 -257.6 -190.05 -258.55 -190.35 -260.05 -189.95 -260.5 -189.5 -262.9 -189.5 -267.55 -192.1 Q-271.5 -194.2 -273.4 -195.5 -281.55 -202.3 -282.25 -202.3 -282.9 -202.3 -285.1 -206.15 -285.1 -208.0 -284.4 -211.5 M-284.15 -210.75 Q-285.75 -205.15 -275.2 -197.2 -271.4 -194.3 -267.25 -192.1 -263.4 -190.1 -262.25 -190.1 L-261.15 -190.25 Q-261.8 -190.8 -261.75 -191.35 -250.25 -189.6 -243.45 -185.75 -236.15 -181.65 -226.35 -179.85 L-221.2 -179.65 -218.05 -179.5 Q-214.45 -179.5 -205.6 -182.8 -198.95 -185.3 -197.05 -186.35 L-200.0 -186.0 -209.25 -185.5 Q-210.75 -185.35 -212.75 -184.6 -214.4 -184.0 -216.55 -184.0 -222.7 -184.0 -225.0 -184.95 -228.0 -186.25 -230.0 -186.5 -238.1 -187.5 -239.5 -188.9 L-240.85 -188.65 -245.6 -188.65 -251.8 -190.9 -259.4 -193.65 Q-261.5 -194.6 -263.45 -196.2 L-268.05 -199.75 Q-270.65 -201.55 -277.95 -204.75 -283.95 -207.8 -284.15 -210.85 L-284.15 -210.75 M-172.65 -201.75 L-171.5 -201.35 -176.55 -198.1 Q-180.1 -195.75 -181.25 -195.75 L-185.9 -194.6 -191.0 -193.55 Q-190.3 -194.9 -187.75 -196.25 -185.05 -197.7 -182.3 -198.05 -181.1 -198.2 -178.5 -199.65 -175.8 -201.2 -172.65 -201.75 M-174.85 -200.1 L-179.7 -198.15 Q-184.6 -196.25 -186.1 -196.25 -186.85 -196.25 -187.35 -195.9 L-188.05 -195.25 -188.05 -195.0 Q-182.4 -196.15 -180.15 -197.25 L-175.1 -199.9 -174.85 -200.1 M-165.6 -204.9 L-166.8 -204.65 -169.5 -204.75 Q-168.15 -205.4 -166.2 -205.9 L-164.1 -206.35 -159.75 -206.25 -165.35 -203.65 -165.85 -204.55 -165.6 -204.9 M-164.2 -205.3 Q-163.5 -205.45 -162.8 -205.85 L-163.65 -206.0 -163.9 -205.6 -165.1 -205.35 -164.2 -205.3" fill="#d5f5f9" fill-opacity="0.5019608" fill-rule="evenodd" stroke="none"/>
    <path d="M205.35 -397.35 Q205.85 -397.6 206.35 -397.35 L203.85 -394.05 Q202.5 -392.2 202.5 -390.75 202.5 -389.5 203.45 -390.05 204.35 -390.6 204.35 -389.35 204.35 -388.1 203.45 -384.65 202.5 -381.25 202.5 -380.0 202.5 -377.65 202.65 -376.65 202.85 -375.1 203.6 -374.1 L206.15 -370.95 208.1 -368.0 208.05 -368.0 208.05 -365.4 209.4 -362.05 Q209.8 -361.05 210.55 -360.3 L212.25 -355.1 211.25 -354.85 Q208.9 -356.05 207.05 -357.4 L206.95 -357.8 206.75 -358.05 206.65 -358.4 206.75 -358.55 206.5 -359.3 206.35 -359.3 Q205.05 -364.95 204.45 -366.25 202.85 -369.55 200.8 -367.65 L200.35 -368.0 199.85 -368.4 199.65 -371.35 Q199.5 -374.3 199.5 -378.75 199.5 -385.9 199.9 -387.75 200.9 -392.6 205.35 -397.35 M217.1 -409.5 Q218.35 -412.6 221.0 -414.6 223.4 -416.4 227.75 -417.85 225.6 -416.55 222.05 -413.4 218.6 -410.35 217.1 -409.5 M250.75 -421.0 L251.75 -421.0 249.0 -420.55 246.6 -420.5 250.75 -421.0 M-284.15 -210.75 L-284.15 -210.85 Q-283.95 -207.8 -277.95 -204.75 -270.65 -201.55 -268.05 -199.75 L-263.45 -196.2 Q-261.5 -194.6 -259.4 -193.65 L-251.8 -190.9 -245.6 -188.65 -240.85 -188.65 -239.5 -188.9 Q-238.1 -187.5 -230.0 -186.5 -228.0 -186.25 -225.0 -184.95 -222.7 -184.0 -216.55 -184.0 -214.4 -184.0 -212.75 -184.6 -210.75 -185.35 -209.25 -185.5 L-200.0 -186.0 -197.05 -186.35 Q-198.95 -185.3 -205.6 -182.8 -214.45 -179.5 -218.05 -179.5 L-221.2 -179.65 -226.35 -179.85 Q-236.15 -181.65 -243.45 -185.75 -250.25 -189.6 -261.75 -191.35 -261.8 -190.8 -261.15 -190.25 L-262.25 -190.1 Q-263.4 -190.1 -267.25 -192.1 -271.4 -194.3 -275.2 -197.2 -285.75 -205.15 -284.15 -210.75 M-174.85 -200.1 L-175.1 -199.9 -180.15 -197.25 Q-182.4 -196.15 -188.05 -195.0 L-188.05 -195.25 -187.35 -195.9 Q-186.85 -196.25 -186.1 -196.25 -184.6 -196.25 -179.7 -198.15 L-174.85 -200.1 M-164.2 -205.3 L-165.1 -205.35 -163.9 -205.6 -163.65 -206.0 -162.8 -205.85 Q-163.5 -205.45 -164.2 -205.3" fill="#ffffff" fill-opacity="0.7019608" fill-rule="evenodd" stroke="none"/>
  </g>
</svg>
