<?xml version="1.0" encoding="UTF-8" standalone="no"?>
<svg xmlns:ffdec="https://www.free-decompiler.com/flash" xmlns:xlink="http://www.w3.org/1999/xlink" ffdec:objectType="shape" height="128.25px" width="422.0px" xmlns="http://www.w3.org/2000/svg">
  <g transform="matrix(1.0, 0.0, 0.0, 1.0, 303.25, 397.0)">
    <path d="M118.5 -397.0 Q118.75 -397.05 118.75 -395.5 118.75 -394.4 113.0 -390.3 106.65 -385.8 105.6 -384.0 104.6 -382.2 103.4 -378.15 L101.7 -373.1 106.95 -373.85 112.6 -374.35 Q112.0 -373.6 104.0 -367.8 L96.9 -362.35 96.75 -362.0 Q94.8 -357.35 92.2 -355.8 L91.65 -352.5 Q91.35 -350.2 88.75 -347.35 87.25 -347.8 81.75 -351.55 79.8 -352.8 77.55 -354.4 76.25 -354.95 73.15 -357.25 L68.25 -361.0 Q70.45 -363.65 74.4 -361.9 77.05 -360.75 78.45 -360.2 80.85 -362.7 84.75 -366.05 88.6 -369.35 90.2 -371.95 89.8 -372.6 89.9 -373.65 L90.3 -375.8 Q90.3 -376.1 89.8 -376.2 L89.35 -376.35 89.25 -376.35 89.3 -376.4 Q88.8 -376.7 88.35 -377.35 92.75 -384.4 98.4 -388.55 103.65 -392.45 110.3 -394.2 114.15 -395.8 118.25 -396.6 L118.5 -397.0 M102.2 -388.2 L100.25 -386.85 99.25 -386.0 96.25 -383.55 94.75 -382.3 Q92.5 -379.9 92.25 -377.85 92.1 -376.7 92.55 -373.35 92.85 -371.3 92.55 -369.9 L91.5 -368.5 Q90.25 -366.55 88.75 -365.85 84.95 -362.85 83.5 -361.2 L83.35 -361.25 81.2 -359.15 80.75 -358.7 80.75 -358.6 Q80.75 -357.05 80.3 -356.25 L80.05 -355.85 82.8 -354.15 87.0 -351.75 Q89.6 -355.5 90.6 -357.45 L92.25 -361.2 92.65 -361.25 97.1 -365.25 101.65 -369.65 100.0 -370.0 98.3 -370.05 99.75 -372.5 Q100.85 -374.95 101.0 -378.4 101.05 -381.5 101.75 -382.5 103.05 -384.3 106.8 -387.95 110.6 -391.55 111.25 -392.5 L109.55 -391.95 107.0 -390.75 102.2 -388.2 M-130.65 -299.75 L-130.6 -299.8 Q-130.35 -300.5 -130.35 -299.25 -131.9 -292.5 -132.3 -289.55 L-133.2 -284.75 Q-133.75 -282.1 -133.75 -280.25 L-133.4 -276.95 -132.65 -272.75 -133.25 -272.1 Q-133.25 -271.35 -133.45 -271.5 L-133.65 -271.75 -138.05 -272.7 -142.65 -273.8 -143.25 -274.2 Q-143.75 -274.45 -143.85 -274.65 L-139.7 -276.65 Q-137.85 -277.65 -136.9 -279.15 -135.5 -281.5 -135.5 -284.65 -135.5 -287.9 -136.85 -291.2 -138.75 -295.65 -142.3 -296.25 L-141.75 -297.35 -136.0 -297.75 Q-135.5 -298.05 -134.85 -299.1 -134.45 -299.85 -133.0 -300.15 L-132.8 -300.0 Q-132.65 -299.95 -132.65 -300.75 -132.65 -301.7 -133.3 -303.3 -133.9 -304.75 -134.5 -305.5 -133.3 -305.85 -131.95 -304.05 -130.75 -302.4 -130.75 -301.3 L-130.8 -299.8 -131.5 -299.65 -131.75 -301.0 -131.85 -301.55 Q-131.8 -300.65 -132.6 -299.4 -133.75 -297.65 -135.6 -296.75 L-141.0 -296.5 Q-137.6 -295.0 -135.95 -291.1 -134.75 -288.15 -134.75 -284.6 -134.75 -282.55 -136.55 -279.1 -138.05 -276.25 -139.3 -275.45 L-140.5 -275.65 -140.75 -275.75 Q-141.0 -275.8 -141.0 -275.05 L-141.0 -274.9 -140.85 -274.2 -140.75 -274.3 -139.5 -274.2 -138.45 -273.75 Q-135.95 -272.8 -135.1 -273.25 L-133.9 -272.95 -134.5 -279.9 -134.15 -284.55 -133.0 -290.15 -132.35 -295.3 Q-131.9 -298.6 -130.65 -299.75 M-132.15 -302.6 L-132.3 -302.6 -132.0 -302.1 -132.15 -302.6 M-284.8 -318.25 Q-284.95 -317.7 -285.4 -317.25 L-286.15 -317.35 -286.2 -317.15 -286.25 -317.9 -286.0 -318.65 -285.4 -318.5 -284.8 -318.25 M-291.6 -304.3 Q-291.4 -304.0 -291.4 -303.1 -291.4 -302.4 -291.95 -301.2 L-292.6 -299.5 -293.0 -299.5 Q-292.7 -303.25 -292.25 -304.65 L-291.6 -304.3 M-294.9 -289.25 L-295.05 -289.4 -295.05 -290.25 -295.0 -291.1 Q-294.85 -291.3 -294.0 -290.65 L-294.55 -289.25 -294.9 -289.25 M-302.55 -269.8 L-302.85 -268.75 -303.25 -268.75 -302.95 -270.15 -302.35 -270.9 -302.55 -269.8" fill="#d5f5f9" fill-opacity="0.5019608" fill-rule="evenodd" stroke="none"/>
    <path d="M102.2 -388.2 L107.0 -390.75 109.55 -391.95 111.25 -392.5 Q110.6 -391.55 106.8 -387.95 103.05 -384.3 101.75 -382.5 101.05 -381.5 101.0 -378.4 100.85 -374.95 99.75 -372.5 L98.3 -370.05 100.0 -370.0 101.65 -369.65 97.1 -365.25 92.65 -361.25 92.25 -361.2 90.6 -357.45 Q89.6 -355.5 87.0 -351.75 L82.8 -354.15 80.05 -355.85 80.3 -356.25 Q80.75 -357.05 80.75 -358.6 L80.75 -358.7 81.2 -359.15 83.35 -361.25 83.5 -361.2 Q84.95 -362.85 88.75 -365.85 90.25 -366.55 91.5 -368.5 L92.55 -369.9 Q92.85 -371.3 92.55 -373.35 92.1 -376.7 92.25 -377.85 92.5 -379.9 94.75 -382.3 L96.25 -383.55 99.25 -386.0 100.25 -386.85 102.2 -388.2 M-130.8 -299.8 L-130.65 -299.75 Q-131.9 -298.6 -132.35 -295.3 L-133.0 -290.15 -134.15 -284.55 -134.5 -279.9 -133.9 -272.95 -135.1 -273.25 Q-135.95 -272.8 -138.45 -273.75 L-139.5 -274.2 -140.75 -274.3 -140.85 -274.2 -141.0 -274.9 -141.0 -275.05 Q-141.0 -275.8 -140.75 -275.75 L-140.5 -275.65 -139.3 -275.45 Q-138.05 -276.25 -136.55 -279.1 -134.75 -282.55 -134.75 -284.6 -134.75 -288.15 -135.95 -291.1 -137.6 -295.0 -141.0 -296.5 L-135.6 -296.75 Q-133.75 -297.65 -132.6 -299.4 -131.8 -300.65 -131.85 -301.55 L-131.75 -301.0 -131.5 -299.65 -130.8 -299.8" fill="#ffffff" fill-opacity="0.7019608" fill-rule="evenodd" stroke="none"/>
  </g>
</svg>
