<?xml version="1.0" encoding="UTF-8" standalone="no"?>
<svg xmlns:ffdec="https://www.free-decompiler.com/flash" xmlns:xlink="http://www.w3.org/1999/xlink" ffdec:objectType="shape" height="369.35px" width="567.5px" xmlns="http://www.w3.org/2000/svg">
  <g transform="matrix(1.0, 0.0, 0.0, 1.0, 309.25, 468.6)">
    <path d="M258.1 -468.15 L258.25 -466.35 Q258.25 -464.9 257.7 -464.25 L257.1 -463.5 256.1 -463.25 255.85 -464.75 Q257.2 -468.4 257.75 -468.6 L258.1 -468.15 M209.45 -321.35 Q209.3 -321.0 207.75 -321.0 206.25 -321.0 205.6 -321.6 L204.35 -322.75 204.35 -324.25 206.5 -323.55 Q208.25 -322.75 209.25 -321.75 L209.45 -321.35 M201.0 -216.6 L203.45 -220.5 Q204.9 -222.95 206.1 -223.6 L206.75 -223.25 207.0 -221.5 Q207.0 -219.35 202.85 -215.6 L202.1 -215.8 Q201.3 -216.15 201.0 -216.6 M238.5 -231.0 L239.5 -230.25 236.1 -228.25 234.35 -228.45 Q232.55 -228.8 232.25 -229.25 L232.75 -230.0 236.3 -230.85 238.5 -231.0 M214.1 -245.6 Q213.25 -244.75 209.75 -243.25 L208.95 -243.45 Q208.15 -243.7 208.0 -244.1 208.85 -244.95 211.0 -245.7 L213.85 -246.35 214.1 -245.6 M104.95 -395.8 Q108.3 -397.5 110.5 -397.5 110.15 -395.8 107.95 -394.05 105.45 -392.05 102.35 -391.6 L101.95 -391.1 Q101.5 -390.95 101.5 -392.5 101.5 -394.0 104.95 -395.8 M93.85 -380.85 Q94.4 -381.25 98.5 -382.25 100.75 -381.85 101.0 -381.35 97.25 -380.35 96.5 -379.85 L95.25 -380.05 Q94.0 -380.4 93.85 -380.85 M95.6 -245.85 Q95.3 -245.35 94.3 -244.85 L92.6 -244.0 91.9 -244.3 91.0 -245.1 Q92.15 -246.0 93.1 -246.3 L95.1 -246.6 95.6 -245.85 M114.35 -176.35 Q113.1 -177.5 111.0 -180.75 113.35 -181.6 115.35 -178.5 115.35 -177.35 114.35 -176.35 M149.75 -100.25 L148.75 -99.85 Q147.45 -99.4 145.35 -99.25 145.0 -99.35 144.55 -99.6 L143.35 -100.5 Q144.85 -101.45 146.75 -101.8 L149.75 -101.75 149.75 -100.25 M-101.25 -368.1 L-103.85 -362.25 -104.85 -362.25 -105.4 -362.7 Q-105.6 -362.95 -105.6 -364.5 -105.6 -365.85 -104.65 -367.9 -103.65 -370.15 -102.25 -371.1 L-101.25 -368.1 M-199.5 -364.95 Q-199.85 -364.55 -200.5 -364.5 L-202.5 -368.1 -200.75 -368.35 Q-200.2 -367.8 -199.7 -366.85 -199.25 -365.9 -199.25 -365.35 L-199.5 -364.95 M-232.0 -317.85 L-230.75 -317.85 Q-229.6 -316.7 -229.25 -315.6 -229.5 -314.85 -230.25 -314.35 -232.25 -315.35 -232.25 -316.35 L-232.0 -317.85 M-219.25 -314.85 L-219.8 -314.55 Q-220.45 -314.25 -221.25 -314.25 -221.5 -314.55 -221.7 -314.4 L-221.75 -316.0 Q-221.75 -317.65 -221.3 -318.2 L-220.25 -318.5 Q-219.25 -317.65 -219.25 -314.85 M-301.9 -328.6 Q-301.75 -328.4 -301.75 -326.85 -301.75 -325.35 -302.3 -324.3 L-303.25 -322.5 -303.85 -322.5 -304.1 -324.0 -303.0 -329.0 -302.25 -329.0 -301.9 -328.6 M-270.75 -273.0 L-272.7 -272.4 -275.6 -272.0 Q-274.8 -273.05 -274.55 -273.75 L-271.0 -273.5 -270.75 -273.0 M-304.45 -251.1 L-303.75 -250.0 -303.8 -249.55 Q-303.95 -249.05 -304.35 -248.75 -308.0 -250.0 -309.25 -252.75 L-308.05 -252.8 -304.85 -252.25 Q-304.85 -251.8 -304.45 -251.1 M-178.1 -170.0 Q-176.6 -168.5 -176.35 -167.75 L-176.6 -166.95 Q-176.9 -166.6 -178.5 -166.6 L-181.1 -166.9 -183.0 -167.5 Q-183.0 -168.2 -182.4 -168.95 -181.7 -169.9 -180.5 -170.25 L-178.1 -170.0 M-144.0 -152.0 L-144.35 -151.6 Q-144.75 -151.55 -144.75 -153.1 -144.75 -153.8 -142.75 -155.85 -140.8 -157.8 -140.0 -158.0 -140.6 -153.15 -144.0 -152.0 M-124.6 -124.1 L-124.25 -122.6 -125.25 -120.9 Q-125.8 -120.25 -127.35 -120.25 L-129.45 -120.6 -130.25 -121.5 Q-128.6 -123.65 -127.65 -124.1 -126.65 -124.6 -124.6 -124.1 M-146.1 -125.1 L-149.25 -122.25 -152.25 -121.5 -153.2 -121.8 Q-154.3 -122.2 -154.75 -122.6 -153.2 -125.3 -150.75 -125.9 -148.45 -126.45 -146.1 -125.1" fill="#ffffff" fill-rule="evenodd" stroke="none"/>
  </g>
</svg>
