<?xml version="1.0" encoding="UTF-8" standalone="no"?>
<svg xmlns:ffdec="https://www.free-decompiler.com/flash" xmlns:xlink="http://www.w3.org/1999/xlink" ffdec:objectType="shape" height="309.0px" width="375.25px" xmlns="http://www.w3.org/2000/svg">
  <g transform="matrix(1.0, 0.0, 0.0, 1.0, 212.0, 402.1)">
    <path d="M156.6 -401.4 L157.5 -400.35 Q157.4 -399.85 155.6 -400.0 153.95 -400.15 152.75 -400.6 L152.5 -401.35 153.6 -401.8 154.1 -402.1 Q155.8 -401.95 156.6 -401.4 M147.5 -369.35 L147.75 -368.6 Q147.35 -368.1 146.35 -367.85 L143.0 -368.1 141.5 -369.6 Q141.5 -370.05 142.0 -370.4 L142.5 -370.85 Q145.2 -370.35 147.5 -369.35 M56.7 -370.75 L56.25 -368.6 55.5 -368.1 54.7 -368.15 54.6 -369.75 Q54.6 -371.4 55.4 -371.95 L56.75 -372.25 56.7 -370.75 M114.9 -236.4 Q115.35 -234.85 115.85 -234.25 111.8 -235.7 111.25 -237.1 L111.85 -237.7 112.25 -238.1 Q114.25 -237.75 114.9 -236.4 M124.05 -149.4 L124.6 -146.85 124.1 -146.1 122.0 -146.1 121.9 -146.9 Q121.75 -147.55 121.75 -149.0 121.75 -150.6 121.9 -151.15 L122.25 -152.0 123.35 -152.0 124.05 -149.4 M158.0 -141.25 L160.3 -141.05 Q162.35 -140.45 163.25 -138.5 163.25 -137.1 162.0 -136.6 160.15 -137.25 159.25 -138.35 158.4 -139.4 158.0 -141.25 M-91.75 -373.75 L-92.9 -371.15 Q-93.85 -369.1 -94.6 -368.1 L-95.6 -368.35 -95.85 -370.1 Q-95.85 -371.1 -94.45 -373.1 L-92.5 -375.25 -91.75 -373.75 M-114.6 -392.1 L-113.4 -391.3 Q-112.55 -390.8 -112.25 -390.35 L-112.75 -389.6 -115.6 -389.6 -116.6 -391.1 Q-116.45 -391.6 -115.7 -391.9 L-114.6 -392.1 M-121.75 -299.35 Q-120.5 -298.65 -119.6 -297.5 -118.75 -296.45 -118.75 -295.75 L-119.0 -294.25 -120.0 -293.75 Q-120.7 -294.45 -121.2 -296.1 L-122.0 -298.6 -121.75 -299.35 M-128.5 -290.25 L-126.6 -288.1 Q-127.0 -286.9 -127.85 -286.6 -130.0 -286.9 -130.0 -288.35 L-129.75 -290.25 -128.5 -290.25 M-142.5 -268.35 L-138.35 -267.85 -138.1 -267.1 Q-138.55 -266.65 -140.3 -266.1 L-144.0 -265.5 -145.8 -265.6 -146.85 -266.1 Q-146.5 -266.6 -144.75 -267.4 L-142.5 -268.35 M-207.6 -155.35 L-208.95 -152.55 Q-210.0 -150.35 -210.75 -149.75 L-211.65 -150.35 Q-212.0 -150.85 -212.0 -152.5 -212.0 -153.65 -210.7 -155.15 -209.45 -156.55 -208.35 -156.85 L-207.6 -155.35 M-169.9 -144.9 Q-168.7 -144.55 -167.6 -142.75 -167.6 -141.25 -168.35 -140.5 L-170.75 -142.9 -172.0 -144.85 -169.9 -144.9 M-195.0 -102.15 L-196.6 -102.0 -198.7 -102.25 -199.35 -103.1 Q-198.4 -103.95 -195.7 -105.0 -192.6 -106.2 -190.75 -106.1 L-190.25 -105.35 -191.95 -103.7 Q-193.7 -102.3 -195.25 -102.35 L-195.0 -102.15 M-165.85 -96.5 L-167.35 -94.35 Q-169.1 -93.1 -174.75 -93.1 -177.25 -93.1 -178.35 -93.6 L-179.1 -94.35 Q-174.55 -97.2 -172.55 -97.7 -170.0 -98.4 -166.35 -97.25 L-165.85 -96.5" fill="#ffffff" fill-rule="evenodd" stroke="none"/>
  </g>
</svg>
