<?xml version="1.0" encoding="UTF-8" standalone="no"?>
<svg xmlns:ffdec="https://www.free-decompiler.com/flash" xmlns:xlink="http://www.w3.org/1999/xlink" ffdec:objectType="shape" height="307.5px" width="382.75px" xmlns="http://www.w3.org/2000/svg">
  <g transform="matrix(1.0, 0.0, 0.0, 1.0, 211.75, 397.75)">
    <path d="M165.15 -396.95 L165.35 -397.75 Q166.45 -397.75 168.2 -396.5 169.95 -395.25 171.0 -393.75 L171.0 -393.0 Q168.5 -393.0 167.6 -394.4 166.45 -396.15 165.1 -396.5 L165.15 -396.95 M168.25 -365.75 L166.85 -365.25 164.65 -365.45 Q162.4 -365.8 162.25 -366.25 L162.65 -366.4 163.0 -366.75 168.0 -366.25 168.25 -365.75 M59.25 -380.75 Q59.5 -380.8 59.5 -379.25 59.5 -378.4 58.9 -377.45 58.1 -376.25 56.5 -375.5 56.25 -375.2 56.0 -375.2 55.5 -375.2 55.5 -376.75 55.5 -377.15 56.75 -378.55 58.1 -380.1 59.0 -380.35 L59.25 -380.75 M125.6 -232.5 Q125.6 -231.75 124.85 -231.25 123.9 -231.4 123.1 -232.0 L121.25 -233.5 122.35 -233.95 Q122.85 -234.15 122.85 -234.25 124.65 -233.95 125.6 -232.5 M152.2 -141.45 Q150.2 -141.8 149.75 -142.25 149.9 -142.7 150.6 -143.1 L151.25 -143.6 152.85 -143.55 155.6 -143.1 156.1 -142.5 Q155.6 -141.75 154.1 -141.25 L152.2 -141.45 M127.75 -139.5 Q127.25 -138.75 125.1 -138.5 L124.05 -139.15 Q123.6 -139.55 123.6 -141.1 123.6 -142.8 123.9 -143.0 L125.35 -143.1 127.75 -139.5 M-89.25 -385.6 L-89.85 -383.8 -90.25 -382.25 -91.25 -382.0 -91.6 -382.45 -91.75 -384.25 Q-91.75 -385.85 -90.9 -386.35 L-89.5 -386.75 -89.25 -385.6 M-123.0 -391.35 L-124.25 -391.55 Q-125.55 -391.85 -125.85 -392.25 -125.65 -392.85 -124.85 -392.95 L-121.75 -392.75 -121.5 -392.1 Q-121.6 -391.95 -121.85 -391.8 -122.35 -391.5 -123.0 -391.35 M-123.3 -308.35 L-122.5 -306.85 -122.6 -306.5 Q-122.85 -306.15 -123.5 -306.0 L-125.85 -308.1 Q-125.85 -308.6 -125.3 -309.25 L-124.6 -309.85 Q-123.9 -309.4 -123.3 -308.35 M-122.75 -289.35 L-123.0 -287.85 -123.4 -287.45 Q-124.0 -287.1 -124.85 -287.1 -124.85 -288.65 -125.6 -290.75 -125.45 -291.1 -124.65 -291.3 L-123.5 -291.5 Q-122.75 -290.35 -122.75 -289.35 M-136.7 -294.3 L-136.1 -293.25 -136.1 -292.5 -136.7 -292.1 Q-137.35 -291.75 -137.75 -291.75 L-140.5 -293.25 -139.95 -295.05 -137.1 -295.0 -136.7 -294.3 M-161.0 -262.25 L-162.95 -262.65 -164.5 -263.25 Q-164.15 -263.75 -162.45 -264.55 L-160.0 -265.6 Q-155.6 -265.5 -154.75 -264.75 -154.9 -263.5 -161.0 -262.25 M-172.75 -151.75 Q-172.5 -151.0 -172.5 -149.5 L-173.0 -149.1 Q-173.5 -148.65 -174.25 -148.5 L-177.85 -152.25 Q-177.6 -153.0 -176.6 -153.35 -174.7 -153.2 -172.75 -151.75 M-210.25 -138.25 L-209.4 -136.65 Q-208.85 -135.7 -208.85 -134.25 L-208.95 -132.45 -209.1 -132.5 -209.45 -132.1 Q-209.7 -131.65 -210.25 -131.5 -210.5 -132.25 -211.75 -133.6 L-211.75 -138.25 -210.25 -138.25 M-209.35 -105.6 Q-206.85 -105.1 -205.5 -104.6 -204.75 -103.85 -204.5 -103.1 -205.05 -102.3 -206.85 -101.75 L-209.85 -101.75 -211.1 -102.5 Q-211.5 -102.9 -211.5 -103.25 L-211.0 -105.6 -209.35 -105.6 M-187.1 -91.85 L-187.95 -90.9 Q-188.6 -90.45 -189.35 -90.25 L-192.25 -90.25 -194.75 -91.0 Q-195.25 -91.75 -195.25 -93.35 L-187.85 -92.6 -187.1 -91.85" fill="#ffffff" fill-rule="evenodd" stroke="none"/>
  </g>
</svg>
