<?xml version="1.0" encoding="UTF-8" standalone="no"?>
<svg xmlns:ffdec="https://www.free-decompiler.com/flash" xmlns:xlink="http://www.w3.org/1999/xlink" ffdec:objectType="shape" height="307.25px" width="440.6px" xmlns="http://www.w3.org/2000/svg">
  <g transform="matrix(1.0, 0.0, 0.0, 1.0, 240.35, 404.75)">
    <path d="M198.25 -376.05 L196.1 -374.0 195.1 -374.5 Q198.15 -378.85 200.25 -378.85 199.8 -377.75 198.25 -376.05 M197.6 -381.6 L196.6 -380.85 194.6 -380.95 Q192.55 -381.15 192.25 -381.6 L192.85 -382.1 193.25 -382.5 Q196.6 -382.25 197.6 -381.6 M72.6 -388.1 L71.95 -387.15 Q71.3 -386.5 69.75 -386.5 L67.8 -386.75 Q67.65 -386.85 67.75 -387.0 L67.5 -387.75 Q70.3 -389.1 71.25 -389.35 72.35 -388.85 72.6 -388.1 M141.5 -239.1 L141.25 -237.6 Q140.25 -236.85 139.0 -236.6 L138.5 -238.1 139.65 -240.1 Q140.15 -241.1 140.75 -241.25 141.5 -240.1 141.5 -239.1 M140.75 -117.25 Q140.3 -115.9 139.5 -115.35 138.1 -115.9 137.9 -116.1 137.25 -116.7 137.25 -118.35 137.25 -121.3 138.0 -123.1 L138.75 -123.1 Q139.75 -119.5 140.75 -117.25 M-94.25 -402.65 Q-93.5 -401.8 -93.5 -401.5 L-93.55 -400.0 -93.6 -400.35 -93.9 -399.95 Q-94.3 -399.5 -95.1 -399.35 -96.65 -401.7 -97.6 -404.5 L-96.1 -404.75 -94.25 -402.65 M-146.35 -387.5 L-146.8 -387.05 Q-147.4 -386.55 -148.35 -386.25 L-151.25 -386.25 -152.05 -386.6 Q-152.95 -387.05 -153.25 -387.5 L-153.1 -387.9 -153.0 -388.85 -146.85 -388.1 -146.35 -387.5 M-141.8 -319.45 Q-141.95 -319.1 -143.5 -319.1 -145.0 -319.1 -145.6 -319.75 L-147.1 -321.25 Q-144.65 -322.15 -142.0 -319.85 -141.75 -319.65 -141.8 -319.45 M-142.0 -302.25 L-142.35 -301.95 Q-142.85 -301.65 -143.5 -301.5 L-147.85 -301.75 Q-148.75 -303.1 -148.75 -303.75 L-142.25 -303.0 -142.0 -302.25 M-164.0 -297.6 L-164.5 -296.85 -167.55 -296.05 -168.85 -295.5 -169.8 -295.1 Q-170.75 -295.05 -170.75 -296.6 -170.75 -298.2 -169.55 -298.55 L-166.85 -298.85 Q-164.5 -298.35 -164.0 -297.6 M-198.6 -258.35 Q-199.45 -257.5 -206.0 -256.85 L-207.35 -257.35 Q-206.4 -258.85 -205.15 -259.2 L-200.0 -259.5 Q-198.85 -259.1 -198.6 -258.35 M-235.25 -108.5 Q-238.6 -110.5 -240.35 -113.1 -235.2 -113.1 -233.75 -110.5 -234.2 -109.2 -235.25 -108.5 M-225.25 -101.6 Q-225.25 -104.1 -225.0 -103.35 -223.25 -103.35 -221.4 -101.95 -220.0 -100.85 -219.1 -99.5 -219.6 -98.0 -220.5 -97.5 -222.95 -98.8 -224.3 -100.15 -225.25 -101.15 -225.25 -101.6 M-193.5 -145.35 L-196.1 -143.35 -197.3 -143.8 Q-197.6 -144.1 -197.6 -145.75 -197.6 -147.25 -196.0 -148.25 -194.2 -149.45 -191.75 -148.25 L-190.75 -147.5 -193.5 -145.35 M-186.35 -112.25 L-186.8 -111.8 Q-187.4 -111.3 -188.35 -111.0 -189.85 -111.25 -192.05 -112.2 -194.8 -113.35 -195.85 -114.6 L-192.6 -114.3 -186.85 -112.85 -186.35 -112.25" fill="#ffffff" fill-rule="evenodd" stroke="none"/>
  </g>
</svg>
