<?xml version="1.0" encoding="UTF-8" standalone="no"?>
<svg xmlns:ffdec="https://www.free-decompiler.com/flash" xmlns:xlink="http://www.w3.org/1999/xlink" ffdec:objectType="shape" height="39.15px" width="62.25px" xmlns="http://www.w3.org/2000/svg">
  <g transform="matrix(1.0, 0.0, 0.0, 1.0, 299.0, 357.0)">
    <path d="M-236.75 -335.65 Q-237.5 -334.9 -238.3 -334.9 L-238.55 -335.65 Q-237.75 -336.5 -237.1 -336.0 L-236.75 -335.65 M-258.25 -356.5 Q-258.25 -355.9 -258.55 -355.8 -259.1 -355.85 -259.7 -356.2 L-260.4 -356.75 -260.05 -357.0 Q-258.5 -356.9 -258.25 -356.5 M-296.3 -323.4 L-296.15 -323.35 Q-295.65 -323.15 -295.3 -322.0 -295.4 -321.65 -295.65 -321.4 L-296.25 -321.6 -296.5 -322.55 -296.3 -323.4 M-297.6 -327.1 L-299.0 -328.55 Q-299.0 -329.35 -298.65 -329.65 L-298.0 -329.9 Q-297.35 -328.2 -297.35 -327.35 L-297.6 -327.1 M-264.25 -318.85 L-263.8 -318.35 -264.3 -318.0 -271.0 -319.3 Q-272.1 -320.6 -272.5 -322.6 L-271.3 -321.7 -267.75 -321.15 -266.7 -320.05 Q-265.95 -319.45 -264.8 -319.25 L-264.25 -318.85 M-266.85 -319.25 L-266.6 -319.4 -266.5 -319.55 -266.85 -319.9 -268.0 -320.4 -268.1 -320.55 -268.4 -320.55 -269.0 -320.75 -269.05 -320.6 -269.3 -320.65 -269.45 -320.5 -270.25 -320.9 -270.45 -321.1 Q-270.65 -321.25 -270.65 -320.5 -270.65 -319.7 -270.4 -319.65 L-269.35 -319.65 -269.05 -319.3 -268.3 -319.25 -268.1 -319.05 -266.6 -319.05 -266.85 -319.25 M-249.0 -321.0 L-249.3 -320.65 Q-250.15 -320.8 -250.15 -321.75 L-249.15 -321.75 -249.0 -321.0 M-256.6 -319.5 Q-255.5 -319.3 -255.4 -319.0 L-256.5 -317.85 -257.85 -317.85 -258.65 -318.25 -259.4 -318.75 -256.6 -319.25 -256.6 -319.5" fill="#d5f5f9" fill-opacity="0.5019608" fill-rule="evenodd" stroke="none"/>
    <path d="M-268.0 -320.4 L-266.85 -319.9 -266.5 -319.55 -266.6 -319.4 -266.85 -319.25 -268.3 -319.25 -269.05 -319.3 -269.35 -319.65 -270.4 -319.65 Q-270.65 -319.7 -270.65 -320.5 -270.65 -321.25 -270.45 -321.1 L-270.25 -320.9 -269.45 -320.5 -269.25 -320.35 -269.05 -320.6 -269.0 -320.75 -268.4 -320.55 -268.0 -320.4" fill="#ffffff" fill-opacity="0.7019608" fill-rule="evenodd" stroke="none"/>
  </g>
</svg>
