<?xml version="1.0" encoding="UTF-8" standalone="no"?>
<svg xmlns:ffdec="https://www.free-decompiler.com/flash" xmlns:xlink="http://www.w3.org/1999/xlink" ffdec:objectType="shape" height="281.75px" width="177.25px" xmlns="http://www.w3.org/2000/svg">
  <g transform="matrix(1.0, 0.0, 0.0, 1.0, 120.0, 437.85)">
    <path d="M2.85 -431.25 L2.35 -430.5 -0.45 -429.8 Q-1.5 -429.7 -1.85 -430.25 L-0.85 -431.45 0.0 -432.25 Q2.35 -432.0 2.85 -431.25 M47.0 -434.75 Q46.2 -434.75 44.1 -436.85 L44.5 -437.45 44.85 -437.85 46.6 -436.8 47.5 -435.35 47.0 -434.75 M57.25 -399.0 Q56.2 -398.8 54.5 -399.6 53.0 -400.3 51.6 -401.5 L51.65 -401.95 51.85 -402.75 Q53.45 -402.1 55.1 -400.95 L57.25 -399.0 M-67.25 -407.85 L-68.4 -406.8 Q-69.2 -406.35 -69.75 -406.35 L-70.25 -407.85 Q-69.9 -408.5 -67.75 -408.5 L-67.25 -407.85 M-27.25 -326.85 L-27.75 -326.1 Q-30.45 -326.2 -31.15 -327.55 L-31.35 -329.35 Q-31.35 -331.05 -30.95 -331.6 -30.7 -332.0 -30.0 -332.0 L-27.25 -326.85 M-85.75 -381.15 Q-87.15 -379.8 -89.5 -379.75 L-87.05 -381.6 Q-85.3 -382.75 -84.6 -382.75 L-85.75 -381.15 M-112.85 -297.1 L-112.6 -296.35 Q-112.35 -296.15 -112.4 -295.95 -112.55 -295.6 -114.1 -295.6 -119.35 -295.6 -120.0 -296.6 L-119.75 -298.0 -112.85 -297.1 M-45.75 -273.25 Q-46.05 -272.5 -46.7 -271.7 -47.95 -270.2 -49.75 -269.75 L-50.5 -270.25 Q-49.3 -271.25 -48.75 -273.25 -48.45 -274.25 -46.25 -273.85 L-45.75 -273.25 M-28.5 -192.6 L-29.75 -192.5 Q-30.25 -193.1 -30.25 -194.6 L-29.05 -194.7 Q-28.6 -194.65 -28.25 -194.1 L-28.5 -192.6 M-44.3 -157.8 Q-41.3 -157.45 -41.0 -157.0 L-41.5 -156.25 -46.75 -156.1 Q-47.75 -156.35 -48.35 -156.9 L-49.25 -158.0 -48.5 -158.25 -44.3 -157.8" fill="#ffffff" fill-rule="evenodd" stroke="none"/>
  </g>
</svg>
