<?xml version="1.0" encoding="UTF-8" standalone="no"?>
<svg xmlns:ffdec="https://www.free-decompiler.com/flash" xmlns:xlink="http://www.w3.org/1999/xlink" ffdec:objectType="shape" height="279.35px" width="291.5px" xmlns="http://www.w3.org/2000/svg">
  <g transform="matrix(1.0, 0.0, 0.0, 1.0, 181.75, 426.1)">
    <path d="M103.35 -424.6 L101.15 -424.8 Q98.9 -425.15 98.75 -425.6 L99.15 -425.75 99.5 -426.1 104.6 -425.6 104.85 -425.1 103.35 -424.6 M109.75 -417.85 Q109.3 -416.5 104.85 -415.85 L104.35 -416.6 Q106.55 -418.6 108.75 -418.6 L109.75 -417.85 M85.9 -394.4 Q85.5 -394.0 83.85 -394.0 L81.75 -394.15 81.5 -394.35 81.0 -395.1 Q81.3 -395.5 82.1 -395.9 82.85 -396.25 82.85 -396.35 85.35 -396.1 86.25 -395.35 L85.9 -394.4 M19.0 -313.25 Q18.0 -312.5 15.5 -311.75 L15.75 -311.5 14.1 -311.25 12.15 -311.5 12.1 -311.75 11.85 -312.5 Q12.55 -312.95 15.5 -314.1 18.0 -313.85 19.0 -313.25 M-127.0 -421.0 L-127.0 -419.75 -127.7 -419.6 -130.25 -419.5 Q-130.25 -419.65 -130.6 -419.75 -131.0 -419.9 -131.0 -421.35 -131.0 -423.85 -130.75 -423.0 L-130.6 -423.05 -130.5 -423.25 Q-129.85 -423.25 -128.95 -422.7 L-127.0 -421.0 M-56.0 -347.1 Q-56.5 -346.6 -58.5 -346.1 L-60.55 -346.45 Q-61.25 -346.85 -61.25 -348.5 -61.25 -350.0 -60.8 -349.95 -60.25 -349.6 -60.0 -349.75 L-56.0 -347.1 M-34.45 -304.8 Q-34.65 -304.5 -35.1 -304.35 L-38.75 -305.35 -39.0 -305.0 Q-39.25 -304.95 -39.25 -306.5 -39.25 -308.05 -38.6 -307.9 -38.0 -307.45 -38.0 -307.6 L-35.5 -307.35 Q-34.35 -306.0 -34.35 -305.1 L-34.45 -304.8 M-100.0 -383.1 L-100.25 -384.25 -100.0 -385.6 -99.25 -385.6 -98.4 -384.15 Q-97.75 -383.15 -97.75 -382.75 L-98.2 -382.35 -99.75 -382.0 -100.0 -383.1 M-99.0 -359.25 Q-100.8 -360.7 -102.1 -362.5 L-101.25 -362.5 Q-98.5 -361.85 -95.35 -360.5 L-95.1 -359.75 -95.45 -359.45 Q-95.95 -359.15 -96.5 -359.0 L-99.0 -359.25 M-110.25 -239.75 Q-109.0 -239.25 -108.75 -238.75 L-111.25 -238.0 -113.15 -238.2 Q-115.15 -238.55 -115.6 -239.0 L-114.65 -239.6 Q-114.1 -239.85 -114.1 -240.0 L-110.25 -239.75 M-8.65 -270.25 L-10.25 -268.75 -10.75 -270.25 Q-10.05 -271.25 -8.6 -271.95 L-6.5 -272.5 -8.65 -270.25 M-176.45 -323.6 L-178.5 -322.75 -179.95 -322.95 Q-181.45 -323.3 -181.75 -323.75 -179.6 -324.9 -179.05 -326.0 L-174.6 -324.85 Q-174.95 -324.35 -176.45 -323.6 M-74.6 -151.1 Q-74.35 -151.15 -74.35 -149.6 -74.35 -148.9 -75.05 -148.4 L-78.0 -146.75 -78.75 -147.25 -77.05 -149.7 Q-76.1 -150.75 -74.85 -150.75 L-74.6 -151.1 M-80.85 -188.05 Q-82.1 -186.1 -83.35 -185.6 L-83.9 -185.8 Q-84.1 -185.85 -84.1 -187.35 -84.1 -188.55 -82.3 -189.85 -80.65 -191.0 -79.5 -191.0 -79.85 -189.7 -80.85 -188.05 M-94.1 -159.75 L-93.6 -159.0 -96.0 -156.1 -97.15 -155.7 -99.25 -155.35 -100.0 -156.1 -97.1 -159.1 Q-95.65 -160.35 -94.1 -159.75" fill="#ffffff" fill-rule="evenodd" stroke="none"/>
  </g>
</svg>
