<?xml version="1.0" encoding="UTF-8" standalone="no"?>
<svg xmlns:ffdec="https://www.free-decompiler.com/flash" xmlns:xlink="http://www.w3.org/1999/xlink" ffdec:objectType="shape" height="293.25px" width="321.45px" xmlns="http://www.w3.org/2000/svg">
  <g transform="matrix(1.0, 0.0, 0.0, 1.0, 196.6, 433.5)">
    <path d="M95.5 -423.0 Q96.1 -422.9 97.0 -422.25 L95.75 -420.0 95.1 -420.0 94.6 -421.5 94.85 -423.0 95.5 -423.0 M97.75 -399.25 Q99.1 -399.85 100.9 -400.3 L103.85 -400.75 104.85 -400.0 Q103.1 -398.5 102.35 -398.1 L98.0 -398.5 97.75 -399.25 M121.0 -420.5 Q124.35 -420.25 124.85 -419.5 L124.35 -418.75 122.2 -418.85 Q119.95 -419.05 119.5 -419.5 L120.45 -420.1 121.0 -420.5 M32.1 -315.1 L31.6 -314.35 29.1 -314.45 Q26.55 -314.65 26.25 -315.1 L26.85 -315.7 27.25 -316.1 Q31.6 -315.85 32.1 -315.1 M2.85 -277.1 L-1.85 -273.6 -2.6 -274.1 -2.85 -275.25 Q-0.35 -277.75 2.35 -277.75 L2.85 -277.1 M-141.3 -430.25 L-142.25 -433.5 Q-140.6 -433.05 -139.6 -431.35 L-138.25 -428.1 Q-140.45 -428.1 -141.3 -430.25 M-11.7 -362.05 Q-12.2 -361.45 -13.1 -361.25 L-13.65 -361.5 Q-13.85 -361.6 -13.85 -363.1 L-13.7 -364.8 -13.6 -364.6 -12.8 -364.6 Q-12.05 -364.45 -11.1 -363.75 -11.3 -362.6 -11.7 -362.05 M-76.5 -354.0 L-77.0 -353.5 Q-79.55 -353.75 -80.75 -357.35 L-79.75 -357.6 Q-76.75 -355.0 -76.5 -354.0 M-45.35 -307.1 L-44.85 -306.35 -45.25 -305.9 Q-45.85 -305.4 -46.75 -305.1 L-48.25 -305.3 Q-49.85 -305.65 -50.5 -306.1 -50.5 -307.55 -49.25 -307.75 L-45.35 -307.1 M-104.35 -390.0 Q-105.45 -390.35 -107.35 -391.75 -109.2 -393.15 -109.75 -394.0 L-109.5 -394.35 -109.25 -394.6 Q-107.85 -394.95 -105.85 -393.5 -104.3 -392.35 -103.6 -391.25 -103.85 -390.5 -104.35 -390.0 M-110.0 -370.25 L-109.25 -368.7 -107.75 -366.6 -108.1 -366.3 Q-108.6 -366.0 -109.25 -365.85 L-110.8 -366.1 Q-111.25 -366.35 -111.25 -368.0 -111.25 -370.5 -111.0 -370.25 L-110.0 -370.25 M-124.6 -238.5 L-124.35 -237.75 Q-124.95 -237.15 -130.5 -236.35 L-131.25 -237.0 Q-131.25 -237.75 -128.75 -239.0 L-124.6 -238.5 M-190.25 -322.0 L-191.15 -320.6 Q-192.0 -319.75 -193.6 -319.75 -196.1 -319.75 -195.85 -320.25 L-196.6 -321.0 Q-194.65 -322.3 -193.7 -322.6 L-190.75 -322.75 -190.25 -322.0 M-82.1 -181.6 Q-81.85 -181.65 -81.85 -180.1 -81.85 -178.95 -82.15 -177.7 -82.35 -176.85 -82.1 -176.1 L-82.35 -175.7 Q-82.7 -175.25 -83.35 -175.1 L-84.7 -175.7 Q-85.1 -176.15 -85.1 -177.85 L-85.0 -179.1 Q-84.5 -180.3 -82.35 -181.25 L-82.1 -181.6 M-103.35 -148.85 Q-103.35 -147.45 -105.35 -146.0 -107.0 -144.75 -108.0 -144.6 L-108.75 -145.35 -106.4 -147.9 Q-104.45 -149.85 -103.85 -150.0 L-103.6 -150.35 Q-103.35 -150.4 -103.35 -148.85 M-82.85 -140.25 L-83.65 -140.6 Q-84.55 -141.05 -84.85 -141.5 L-83.85 -143.45 -82.85 -144.6 -81.25 -144.25 Q-80.35 -143.9 -80.0 -143.35 L-81.15 -141.9 Q-82.3 -140.45 -82.85 -140.25" fill="#ffffff" fill-rule="evenodd" stroke="none"/>
  </g>
</svg>
