<?xml version="1.0" encoding="UTF-8" standalone="no"?>
<svg xmlns:ffdec="https://www.free-decompiler.com/flash" xmlns:xlink="http://www.w3.org/1999/xlink" ffdec:objectType="shape" height="310.15px" width="346.25px" xmlns="http://www.w3.org/2000/svg">
  <g transform="matrix(1.0, 0.0, 0.0, 1.0, 208.75, 439.25)">
    <path d="M95.4 -412.1 L95.35 -413.75 95.4 -415.4 95.75 -415.6 Q97.65 -414.5 100.25 -412.0 L100.25 -411.25 100.35 -411.0 98.6 -410.75 Q95.95 -410.75 95.4 -412.1 M118.25 -404.25 L118.25 -403.5 117.9 -402.95 116.0 -402.75 Q114.35 -402.75 113.8 -403.1 L113.1 -404.0 114.3 -404.7 115.1 -405.1 Q117.5 -404.85 118.25 -404.25 M137.5 -416.6 Q137.5 -415.15 136.0 -414.85 L134.15 -416.0 Q132.45 -416.95 132.0 -417.35 L132.1 -418.1 133.75 -418.25 134.85 -417.85 Q137.0 -417.35 137.5 -416.6 M44.15 -310.55 Q41.25 -311.2 41.6 -313.0 L44.1 -312.8 Q46.35 -312.2 47.25 -310.25 L44.15 -310.55 M16.0 -279.0 Q15.0 -278.25 11.6 -278.0 L10.9 -278.35 Q10.15 -278.8 10.0 -279.25 L11.1 -279.7 11.6 -280.0 Q15.0 -279.75 16.0 -279.0 M-149.25 -435.35 L-151.55 -437.75 Q-152.0 -438.25 -152.0 -439.25 -148.7 -438.45 -148.25 -436.6 -148.5 -435.85 -149.25 -435.35 M-118.75 -396.35 L-118.5 -395.85 -121.5 -395.1 -124.35 -395.85 Q-123.95 -396.5 -122.6 -396.65 L-118.75 -396.35 M-9.75 -371.75 L-11.6 -368.25 -12.4 -368.65 Q-12.6 -368.95 -12.6 -370.6 -12.6 -373.25 -10.5 -373.25 L-9.75 -371.75 M-57.0 -307.1 L-56.5 -306.35 -56.2 -305.3 Q-56.1 -304.85 -57.6 -304.85 -61.45 -304.85 -64.1 -305.6 L-64.85 -306.35 Q-64.45 -306.75 -63.3 -307.15 -62.35 -307.5 -62.35 -307.6 L-57.0 -307.1 M-119.85 -381.45 L-119.5 -380.25 -119.6 -379.85 Q-119.85 -379.4 -120.5 -379.25 -121.1 -379.55 -121.75 -380.6 L-122.85 -382.75 -122.35 -383.2 -122.0 -383.5 -120.0 -383.25 -119.85 -381.45 M-93.6 -366.35 L-93.35 -365.6 -93.65 -365.05 -95.5 -364.85 Q-97.1 -364.85 -97.7 -365.7 L-98.25 -367.1 Q-96.25 -367.75 -93.6 -366.35 M-138.8 -236.45 Q-138.95 -236.1 -140.5 -236.1 -142.1 -236.1 -143.05 -236.85 L-144.85 -238.5 Q-142.6 -238.9 -141.3 -238.5 -140.0 -238.15 -139.0 -236.85 -138.75 -236.65 -138.8 -236.45 M-206.1 -317.3 Q-208.45 -317.6 -208.75 -318.0 L-208.25 -318.75 -203.8 -319.2 Q-202.65 -319.25 -202.25 -318.75 L-202.25 -317.6 -203.85 -317.1 -206.1 -317.3 M-77.25 -166.1 L-77.45 -165.7 Q-77.8 -165.25 -78.75 -165.1 L-81.25 -167.25 -81.0 -169.75 -79.5 -169.75 Q-78.85 -169.1 -77.25 -166.1 M-89.25 -129.5 L-89.6 -129.1 Q-90.0 -129.05 -90.0 -130.6 -90.0 -131.65 -88.45 -132.85 L-86.5 -134.1 -86.05 -134.3 Q-85.6 -134.15 -85.6 -132.6 -85.6 -129.85 -89.25 -129.5 M-113.85 -139.0 L-113.1 -137.5 Q-113.45 -136.5 -114.9 -135.25 -116.55 -133.85 -117.75 -133.85 L-118.5 -134.6 Q-118.0 -135.85 -116.35 -137.4 -114.7 -139.0 -113.85 -139.0" fill="#ffffff" fill-rule="evenodd" stroke="none"/>
  </g>
</svg>
