<?xml version="1.0" encoding="UTF-8" standalone="no"?>
<svg xmlns:ffdec="https://www.free-decompiler.com/flash" xmlns:xlink="http://www.w3.org/1999/xlink" ffdec:objectType="shape" height="325.35px" width="368.35px" xmlns="http://www.w3.org/2000/svg">
  <g transform="matrix(1.0, 0.0, 0.0, 1.0, 222.5, 445.1)">
    <path d="M110.65 -410.95 L108.75 -409.75 106.8 -410.0 Q106.65 -410.1 106.75 -410.25 L106.5 -411.0 Q108.1 -411.9 109.75 -412.45 L113.1 -412.75 110.65 -410.95 M132.6 -402.25 L130.5 -402.95 Q128.7 -403.55 128.25 -404.0 L129.8 -404.7 130.75 -405.1 Q133.1 -404.85 133.85 -404.25 L133.7 -403.15 Q133.45 -402.6 132.6 -402.25 M144.6 -408.35 L145.15 -407.2 145.85 -406.1 Q143.45 -406.65 143.2 -407.3 142.9 -408.2 142.6 -408.35 L143.25 -408.4 144.6 -408.35 M57.25 -304.8 Q56.1 -305.4 55.1 -305.6 54.6 -306.35 54.6 -307.75 L56.5 -307.6 59.0 -307.1 60.1 -306.2 61.0 -305.1 61.2 -304.7 Q61.05 -304.35 59.5 -304.35 58.1 -304.35 57.25 -304.8 M28.15 -278.45 L30.75 -277.75 31.7 -276.75 32.6 -275.85 32.25 -275.5 30.35 -275.35 28.55 -275.65 Q27.85 -276.1 26.75 -276.35 L25.25 -277.75 Q25.25 -278.2 25.75 -278.55 L26.25 -279.0 28.15 -278.45 M-163.35 -445.1 Q-160.75 -445.1 -159.25 -443.5 L-159.35 -442.55 Q-159.5 -442.15 -160.0 -442.0 -160.95 -442.15 -161.8 -442.7 L-163.35 -443.75 -163.35 -445.1 M-1.85 -378.5 L-4.15 -376.5 -6.25 -375.1 -6.6 -375.55 -6.75 -377.35 Q-6.75 -378.95 -5.1 -379.25 L-2.35 -379.25 -1.85 -378.5 M-71.75 -307.1 L-71.25 -306.35 -71.65 -305.9 Q-72.25 -305.4 -73.1 -305.1 L-75.5 -305.3 Q-78.05 -305.65 -78.5 -306.1 L-77.65 -307.05 -77.0 -307.6 -71.75 -307.1 M-109.25 -366.85 L-109.7 -366.4 Q-110.3 -365.9 -111.25 -365.6 L-112.65 -365.8 Q-114.2 -366.15 -114.85 -366.6 -114.1 -367.55 -113.2 -367.75 L-109.75 -367.6 -109.25 -366.85 M-128.0 -389.75 L-128.25 -389.35 Q-128.6 -388.9 -129.25 -388.75 -130.5 -390.0 -130.5 -392.5 L-129.5 -392.75 Q-128.5 -391.25 -128.0 -389.75 M-133.1 -394.35 L-134.35 -393.05 Q-135.55 -392.15 -136.5 -392.0 L-137.3 -392.35 -138.5 -393.25 Q-136.1 -395.1 -134.1 -395.1 L-133.1 -394.35 M-151.75 -239.5 L-153.4 -240.55 -155.85 -242.25 -153.3 -242.5 Q-152.0 -242.3 -150.5 -241.25 -150.5 -239.8 -151.75 -239.5 M-215.85 -316.45 Q-215.95 -316.1 -217.5 -316.1 -219.6 -316.1 -221.05 -317.85 L-222.5 -320.5 -222.35 -320.55 -222.25 -320.75 Q-221.2 -320.75 -219.1 -318.9 -216.9 -316.95 -216.1 -316.85 -215.8 -316.65 -215.85 -316.45 M-10.25 -176.35 Q-11.2 -174.9 -13.35 -174.6 L-13.9 -174.9 Q-14.1 -175.0 -14.1 -176.5 -14.1 -178.1 -12.8 -178.45 L-11.1 -178.5 -10.55 -177.4 -10.25 -176.35 M-12.95 -155.1 Q-12.95 -154.15 -13.35 -153.6 L-14.1 -153.6 -14.35 -156.5 -13.35 -156.5 Q-12.95 -156.0 -12.95 -155.1 M-74.15 -159.8 L-73.1 -158.0 -73.6 -157.25 -75.45 -158.8 Q-77.0 -160.25 -77.0 -161.0 -77.0 -162.5 -76.8 -162.3 L-76.0 -161.75 -76.0 -162.0 -74.15 -159.8 M-127.25 -127.5 Q-128.85 -127.5 -129.25 -127.85 L-129.75 -128.75 Q-127.35 -130.6 -125.85 -130.8 -124.4 -130.95 -122.85 -129.75 -124.35 -127.5 -127.25 -127.5 M-93.35 -121.75 Q-95.05 -120.3 -97.0 -119.75 L-94.05 -122.75 Q-91.8 -124.6 -91.25 -124.6 -91.85 -123.1 -93.35 -121.75" fill="#ffffff" fill-rule="evenodd" stroke="none"/>
  </g>
</svg>
