<?xml version="1.0" encoding="UTF-8" standalone="no"?>
<svg xmlns:ffdec="https://www.free-decompiler.com/flash" xmlns:xlink="http://www.w3.org/1999/xlink" ffdec:objectType="shape" height="332.35px" width="383.1px" xmlns="http://www.w3.org/2000/svg">
  <g transform="matrix(1.0, 0.0, 0.0, 1.0, 228.5, 448.2)">
    <path d="M119.25 -415.85 L121.1 -417.6 124.35 -417.35 123.35 -415.85 120.25 -415.3 Q119.45 -415.3 119.25 -415.85 M149.75 -407.6 L153.45 -407.95 Q154.4 -407.9 154.6 -407.35 L154.6 -406.6 Q154.1 -406.1 153.1 -405.85 L151.35 -406.05 Q149.55 -406.4 149.25 -406.85 L149.75 -407.6 M143.35 -397.35 L143.25 -397.8 142.35 -398.75 Q142.35 -399.35 143.05 -399.6 L144.85 -399.75 146.1 -398.35 146.1 -397.6 143.35 -397.35 M7.25 -380.75 L3.35 -379.75 2.85 -380.5 2.85 -382.5 8.0 -383.0 8.25 -382.25 7.25 -380.75 M75.1 -302.75 Q77.5 -302.25 78.0 -301.5 L77.5 -300.75 73.6 -300.75 71.95 -301.65 Q70.65 -302.3 70.5 -302.75 L71.6 -303.2 72.1 -303.5 Q74.6 -303.25 75.1 -302.75 M45.25 -273.85 Q44.55 -273.4 42.85 -273.25 L39.5 -273.35 38.7 -274.45 Q38.25 -275.15 38.25 -275.6 L43.85 -274.85 Q45.1 -274.35 45.25 -273.85 M-171.25 -446.6 L-171.75 -446.1 -175.1 -446.35 -176.1 -447.85 Q-175.7 -448.2 -174.95 -448.2 -174.2 -448.2 -173.85 -447.85 -171.5 -447.35 -171.25 -446.6 M-134.85 -397.6 L-135.1 -397.2 -136.1 -396.6 -138.0 -398.75 Q-137.85 -399.25 -137.1 -399.55 L-136.1 -399.75 Q-134.85 -398.5 -134.85 -397.6 M-155.1 -386.35 L-154.6 -387.1 -148.35 -387.95 Q-146.85 -388.0 -145.85 -387.1 -147.25 -385.65 -148.25 -385.35 L-151.5 -385.55 Q-154.8 -385.9 -155.1 -386.35 M-125.85 -364.85 Q-124.6 -364.35 -124.35 -363.75 -125.7 -362.4 -126.75 -362.0 L-127.55 -362.2 -128.75 -363.0 -127.45 -364.1 -125.85 -364.85 M-85.35 -304.35 L-86.25 -303.6 Q-89.0 -303.0 -89.75 -302.5 L-90.7 -302.7 -92.1 -303.5 -90.7 -304.55 -89.75 -305.35 Q-86.25 -305.1 -85.35 -304.35 M-225.6 -327.75 Q-226.0 -327.25 -226.85 -327.1 L-227.5 -327.5 -228.5 -328.5 -228.5 -333.75 -227.0 -333.85 Q-226.55 -333.2 -226.1 -331.35 -225.6 -329.5 -225.1 -328.75 L-225.6 -327.75 M-164.85 -244.35 Q-167.6 -246.0 -168.25 -247.1 L-166.75 -247.3 Q-165.3 -247.15 -163.6 -245.6 -164.1 -244.85 -164.85 -244.35 M-13.6 -149.75 L-12.1 -150.0 -11.45 -148.4 -10.5 -146.25 -11.0 -145.25 Q-11.35 -144.75 -12.1 -144.6 L-13.15 -145.55 Q-13.85 -146.3 -13.85 -147.85 L-13.8 -149.45 -13.6 -149.75 M-5.5 -181.25 Q-3.75 -183.3 -2.85 -183.6 -0.5 -183.35 0.5 -182.6 -0.1 -181.75 -1.8 -181.3 -3.6 -180.9 -5.5 -181.25 M-72.05 -152.3 Q-71.85 -151.95 -71.85 -150.35 L-71.95 -148.1 -72.1 -147.75 -72.95 -147.35 Q-73.85 -146.9 -74.6 -146.75 L-75.1 -148.25 Q-74.65 -149.2 -74.4 -150.5 L-74.1 -152.85 -72.6 -152.85 -72.05 -152.3 M-137.0 -124.6 Q-138.0 -123.1 -139.5 -122.6 L-142.25 -122.85 -143.2 -123.95 -143.85 -125.1 Q-143.1 -125.85 -138.5 -125.85 -137.25 -125.35 -137.0 -124.6 M-102.85 -118.25 Q-103.15 -117.35 -105.85 -116.0 L-110.25 -115.85 -111.05 -116.15 Q-111.9 -116.55 -112.1 -117.0 -111.9 -117.45 -109.4 -118.2 L-106.25 -119.25 Q-103.85 -119.0 -102.85 -118.25" fill="#ffffff" fill-rule="evenodd" stroke="none"/>
  </g>
</svg>
