<?xml version="1.0" encoding="UTF-8" standalone="no"?>
<svg xmlns:ffdec="https://www.free-decompiler.com/flash" xmlns:xlink="http://www.w3.org/1999/xlink" ffdec:objectType="shape" height="86.05px" width="527.25px" xmlns="http://www.w3.org/2000/svg">
  <g transform="matrix(1.0, 0.0, 0.0, 1.0, 336.85, 250.65)">
    <path d="M131.95 -180.6 Q134.1 -183.6 133.35 -186.65 132.65 -189.6 129.15 -192.7 114.05 -206.1 52.55 -214.5 -3.05 -222.05 -73.25 -222.05 -143.4 -222.05 -198.95 -214.5 -231.05 -210.1 -250.5 -204.35 -268.4 -199.1 -275.65 -192.7 -282.7 -186.45 -278.4 -180.6 -326.6 -190.2 -335.05 -202.1 -337.7 -205.85 -336.45 -209.85 -335.95 -211.45 -334.85 -212.95 -323.8 -228.35 -252.7 -239.15 -176.8 -250.65 -73.25 -250.65 L-72.75 -250.65 Q30.5 -250.6 106.25 -239.15 184.4 -227.25 190.0 -209.85 195.25 -193.2 131.95 -180.6 M-52.55 -221.75 L-50.8 -221.7 -54.65 -221.7 -55.45 -221.8 -52.55 -221.75" fill="#403d56" fill-rule="evenodd" stroke="none"/>
    <path d="M-278.4 -180.6 Q-282.7 -186.45 -275.65 -192.7 -268.4 -199.1 -250.5 -204.35 -231.05 -210.1 -198.95 -214.5 -143.4 -222.05 -73.25 -222.05 -3.05 -222.05 52.55 -214.5 114.05 -206.1 129.15 -192.7 132.65 -189.6 133.35 -186.65 134.1 -183.6 131.95 -180.6 L119.95 -178.4 Q41.85 -164.65 -72.75 -164.6 L-73.25 -164.6 Q-188.2 -164.6 -266.45 -178.4 L-278.4 -180.6 M-52.55 -221.75 L-55.45 -221.8 -54.65 -221.7 -50.8 -221.7 -52.55 -221.75" fill="#302e41" fill-rule="evenodd" stroke="none"/>
  </g>
</svg>
