<?xml version="1.0" encoding="UTF-8" standalone="no"?>
<svg xmlns:ffdec="https://www.free-decompiler.com/flash" xmlns:xlink="http://www.w3.org/1999/xlink" ffdec:objectType="shape" height="292.15px" width="448.2px" xmlns="http://www.w3.org/2000/svg">
  <g transform="matrix(1.0, 0.0, 0.0, 1.0, 265.35, 444.5)">
    <path d="M24.1 -398.25 L23.15 -395.7 Q22.55 -394.45 21.6 -393.75 L21.0 -393.75 20.75 -394.75 Q20.75 -395.5 21.9 -397.2 L23.6 -399.25 24.1 -398.25 M159.65 -402.35 L159.5 -402.75 158.5 -402.5 157.25 -403.1 Q156.75 -403.45 156.75 -405.0 156.75 -406.6 157.7 -407.0 L159.25 -407.1 159.6 -406.15 159.75 -403.85 159.65 -402.35 M181.5 -392.25 Q180.0 -392.4 179.15 -393.3 178.5 -393.95 178.5 -394.6 L178.75 -394.9 179.0 -395.35 Q180.3 -395.35 182.85 -393.0 182.35 -392.5 181.5 -392.25 M170.65 -313.3 Q171.5 -312.35 171.5 -310.85 L171.4 -309.35 171.25 -309.75 171.0 -309.0 Q169.95 -310.0 169.05 -311.4 167.9 -313.2 167.75 -314.6 L169.25 -314.85 170.65 -313.3 M155.65 -301.35 L156.5 -300.25 156.75 -299.85 Q156.65 -299.5 155.1 -299.5 154.3 -299.5 151.95 -301.0 L149.75 -302.5 151.75 -302.65 154.6 -302.25 155.65 -301.35 M49.8 -378.55 Q50.0 -378.5 50.0 -377.0 50.0 -376.2 48.75 -375.15 47.15 -373.8 44.85 -373.75 L46.6 -376.3 Q48.0 -378.3 49.0 -378.75 L49.8 -378.55 M79.0 -203.85 L77.45 -202.0 Q77.0 -201.65 75.1 -201.0 L74.3 -201.35 Q73.5 -201.8 73.35 -202.25 76.75 -204.9 78.5 -204.6 L79.0 -203.85 M94.6 -189.0 Q95.75 -188.5 96.0 -188.0 94.8 -187.25 91.6 -187.25 L89.0 -187.5 88.25 -187.75 88.0 -188.5 89.15 -188.95 Q89.75 -189.15 89.75 -189.25 L91.8 -189.2 94.6 -189.0 M82.6 -182.2 Q83.1 -182.05 83.1 -180.5 83.1 -178.5 78.25 -174.6 L78.0 -174.4 Q77.75 -174.55 77.75 -176.1 77.75 -176.7 78.95 -178.65 80.45 -181.1 82.1 -182.0 L82.6 -182.2 M-263.4 -439.7 L-263.85 -439.25 -264.85 -439.25 -265.3 -439.7 -265.35 -441.5 -265.1 -444.5 -264.1 -444.5 -263.55 -443.65 -263.35 -441.5 -263.4 -439.7 M-223.4 -416.65 Q-223.1 -416.35 -223.1 -414.85 -223.1 -413.45 -223.6 -412.65 L-224.1 -411.25 -225.85 -411.0 -226.4 -411.65 Q-226.6 -412.0 -226.6 -413.6 -226.6 -416.45 -224.1 -417.1 L-223.4 -416.65 M-239.4 -407.15 Q-239.25 -406.45 -239.25 -404.85 L-239.3 -402.9 -239.5 -402.5 -239.95 -402.35 -241.5 -402.25 Q-241.75 -402.6 -241.95 -402.5 L-242.0 -404.1 Q-242.0 -405.75 -241.15 -406.95 L-239.75 -408.1 -239.4 -407.15 M-160.5 -337.35 Q-160.4 -337.15 -160.6 -336.95 -161.05 -336.6 -162.6 -336.6 -164.25 -336.6 -165.45 -337.3 -166.3 -337.8 -166.75 -338.5 -166.45 -339.45 -165.35 -340.0 L-162.5 -339.5 -161.3 -338.4 -160.5 -337.35 M-201.0 -370.75 L-202.15 -369.6 -203.85 -368.1 -205.35 -368.5 Q-204.65 -369.6 -204.25 -371.3 -203.75 -372.3 -201.5 -371.5 L-201.0 -370.75 M-254.1 -200.1 Q-254.45 -199.5 -255.25 -198.8 -256.0 -198.2 -256.6 -198.0 L-257.35 -198.35 -258.25 -199.25 -256.4 -200.55 Q-255.05 -201.25 -254.35 -201.25 L-254.1 -200.1 M-176.6 -162.0 L-177.0 -161.25 -182.0 -161.25 Q-182.85 -162.5 -182.85 -163.1 L-181.5 -162.85 Q-177.0 -162.6 -176.6 -162.0 M-107.75 -183.1 Q-107.0 -182.2 -107.0 -181.0 L-107.25 -179.5 -107.6 -179.1 Q-108.1 -178.75 -108.75 -178.75 L-109.3 -179.2 Q-109.5 -179.45 -109.5 -181.0 L-109.25 -182.9 -109.0 -183.1 -107.75 -183.1 M-134.35 -157.5 L-133.8 -156.7 Q-133.6 -156.25 -133.6 -154.6 L-133.65 -152.8 -134.1 -152.35 -135.1 -152.35 -135.55 -152.8 -135.6 -154.6 -135.45 -156.7 -135.35 -157.5 -134.35 -157.5" fill="#ffffff" fill-rule="evenodd" stroke="none"/>
  </g>
</svg>
