<?xml version="1.0" encoding="UTF-8" standalone="no"?>
<svg xmlns:ffdec="https://www.free-decompiler.com/flash" xmlns:xlink="http://www.w3.org/1999/xlink" ffdec:objectType="shape" height="321.75px" width="474.35px" xmlns="http://www.w3.org/2000/svg">
  <g transform="matrix(1.0, 0.0, 0.0, 1.0, 279.0, 470.5)">
    <path d="M14.7 -415.75 Q16.5 -414.65 17.0 -414.0 16.75 -413.25 15.0 -413.0 L13.1 -415.2 11.85 -416.85 12.85 -417.1 Q13.05 -416.75 14.7 -415.75 M53.85 -397.35 Q53.85 -395.45 53.1 -394.35 52.05 -394.35 51.55 -394.75 50.75 -395.35 50.75 -397.0 50.75 -398.55 50.9 -398.7 L51.0 -398.5 51.85 -398.5 Q53.1 -398.1 53.85 -397.35 M163.35 -424.85 L162.85 -426.35 Q163.25 -426.9 164.7 -427.5 166.2 -428.1 167.25 -428.1 L167.75 -427.35 Q167.4 -426.8 165.85 -425.9 164.3 -425.05 163.35 -424.85 M172.0 -413.0 L172.35 -411.1 171.25 -408.5 170.25 -408.35 170.15 -408.1 Q170.0 -408.2 170.0 -409.75 170.0 -412.35 172.0 -413.0 M192.85 -298.8 L195.35 -299.75 Q194.25 -296.4 190.75 -296.1 L190.5 -297.25 Q191.0 -297.9 192.85 -298.8 M183.85 -297.75 L182.0 -295.85 179.5 -294.85 178.0 -295.35 180.25 -297.2 Q182.35 -298.75 183.6 -298.75 L183.85 -297.75 M100.75 -224.85 Q100.4 -223.8 99.0 -222.35 97.7 -221.0 96.75 -220.5 L96.5 -220.3 Q96.25 -220.45 96.25 -222.0 96.25 -222.7 97.3 -223.5 98.55 -224.45 100.75 -224.85 M99.65 -203.55 Q100.85 -204.1 101.75 -204.1 102.7 -204.0 101.3 -202.65 99.9 -201.25 98.0 -201.25 L97.5 -202.0 Q98.2 -202.9 99.65 -203.55 M117.95 -184.45 Q117.6 -183.85 116.0 -183.85 L113.95 -184.05 112.6 -184.6 112.1 -185.35 Q113.65 -186.25 115.1 -186.35 116.6 -186.45 118.25 -185.6 118.2 -184.8 117.95 -184.45 M-252.25 -469.35 Q-253.2 -468.4 -254.3 -467.8 -255.7 -467.1 -256.35 -467.6 L-254.7 -469.25 Q-253.3 -470.5 -252.5 -470.5 L-252.25 -469.35 M-213.35 -429.8 L-213.9 -429.85 Q-215.2 -430.0 -215.35 -430.5 L-214.55 -430.85 -213.6 -431.0 -213.5 -430.95 -212.05 -431.55 -209.5 -431.5 -209.25 -431.0 -211.75 -429.5 -212.95 -429.7 -213.35 -429.8 M-196.5 -335.45 Q-199.75 -334.05 -201.5 -334.35 -200.1 -335.95 -197.5 -336.95 -194.7 -338.0 -192.75 -337.35 L-196.5 -335.45 M-276.6 -199.25 L-276.95 -198.85 Q-277.45 -198.4 -278.5 -198.25 L-278.75 -198.05 Q-279.0 -198.2 -279.0 -199.75 L-278.85 -201.55 -278.5 -202.25 -277.75 -202.25 -276.6 -199.25 M-206.35 -155.85 L-206.6 -155.4 Q-206.85 -155.3 -206.85 -156.85 -206.85 -158.4 -205.7 -158.75 L-203.85 -159.0 Q-202.75 -158.5 -202.5 -157.75 L-204.0 -156.7 Q-205.3 -156.0 -206.35 -155.85 M-114.1 -176.5 L-115.1 -175.35 -116.0 -175.7 Q-117.05 -176.1 -117.5 -176.5 -116.75 -177.25 -114.6 -177.25 L-114.1 -176.5 M-152.3 -153.45 L-152.25 -151.75 -152.35 -149.6 -152.85 -148.75 -153.6 -148.75 -154.15 -151.0 Q-154.4 -152.3 -154.85 -153.1 -154.7 -153.45 -153.8 -153.65 L-152.6 -153.85 -152.3 -153.45" fill="#ffffff" fill-rule="evenodd" stroke="none"/>
  </g>
</svg>
