<?xml version="1.0" encoding="UTF-8" standalone="no"?>
<svg xmlns:ffdec="https://www.free-decompiler.com/flash" xmlns:xlink="http://www.w3.org/1999/xlink" ffdec:objectType="shape" height="47.55px" width="201.8px" xmlns="http://www.w3.org/2000/svg">
  <g transform="matrix(1.0, 0.0, 0.0, 1.0, 20.0, 147.5)">
    <path d="M82.65 -108.1 L85.9 -108.65 Q91.7 -108.8 91.85 -108.55 L89.7 -108.1 Q91.15 -107.8 91.3 -107.5 L91.05 -107.35 82.2 -107.5 Q82.2 -107.9 82.65 -108.1 M120.9 -115.3 L123.85 -115.9 124.05 -115.25 Q124.0 -114.85 123.75 -114.7 122.4 -115.4 122.4 -114.05 122.4 -113.2 121.15 -113.4 L119.45 -113.6 118.75 -113.75 Q118.05 -113.95 117.95 -114.15 118.5 -114.55 120.9 -115.3 M1.3 -100.9 L1.1 -100.75 -0.2 -100.9 -0.3 -101.5 0.6 -102.15 1.7 -102.4 1.3 -100.9 M19.0 -102.55 L19.15 -102.55 19.25 -102.6 19.55 -102.55 24.6 -103.05 Q26.4 -102.95 26.5 -102.6 L24.5 -102.3 24.1 -101.85 20.4 -101.85 20.2 -101.5 19.9 -100.9 Q19.65 -100.9 19.35 -101.4 L19.0 -102.05 18.8 -102.4 19.0 -102.45 19.0 -102.55 M181.8 -146.6 Q181.55 -146.4 180.1 -145.95 L177.55 -145.5 176.8 -145.7 175.45 -146.05 Q175.45 -146.85 174.35 -147.1 L174.6 -147.5 176.85 -147.4 179.45 -147.0 181.8 -146.6 M-17.2 -101.8 L-13.45 -101.9 -13.3 -102.0 -10.45 -101.6 -10.65 -101.45 -12.65 -101.55 -15.9 -101.0 -18.7 -100.4 -19.35 -100.0 Q-20.0 -99.75 -20.0 -100.65 -20.0 -101.55 -17.2 -101.8 M-5.7 -101.6 L-8.25 -101.6 -7.95 -102.0 -6.1 -102.35 -5.15 -102.4 Q-5.25 -102.0 -5.7 -101.6" fill="#ffffff" fill-rule="evenodd" stroke="none"/>
  </g>
</svg>
