<?xml version="1.0" encoding="UTF-8" standalone="no"?>
<svg xmlns:ffdec="https://www.free-decompiler.com/flash" xmlns:xlink="http://www.w3.org/1999/xlink" ffdec:objectType="shape" height="39.25px" width="247.9px" xmlns="http://www.w3.org/2000/svg">
  <g transform="matrix(1.0, 0.0, 0.0, 1.0, 40.35, 140.7)">
    <path d="M99.3 -110.1 Q98.65 -109.55 97.2 -109.5 L97.05 -110.1 Q97.2 -110.55 97.45 -110.65 99.2 -110.55 99.3 -110.1 M145.3 -127.15 L144.75 -126.75 Q144.45 -126.75 144.05 -127.2 143.65 -127.65 143.65 -128.15 L144.2 -128.25 144.85 -127.7 145.3 -127.15 M143.1 -128.15 L143.65 -127.3 142.2 -127.3 Q142.2 -128.15 143.1 -128.15 M142.05 -125.6 L141.45 -125.55 142.55 -127.05 142.05 -125.6 M133.1 -118.5 Q132.05 -118.3 131.75 -118.0 L130.4 -118.25 134.8 -120.8 134.2 -120.35 Q133.1 -119.55 133.1 -118.85 L133.1 -118.5 M124.3 -114.45 L126.0 -114.3 126.45 -112.85 Q126.55 -111.8 127.15 -111.2 L126.25 -111.1 Q124.9 -111.1 124.9 -112.95 L124.15 -113.15 Q123.4 -113.4 123.3 -113.6 L124.3 -114.45 123.45 -114.45 Q123.95 -115.1 123.3 -115.6 L126.85 -117.05 129.8 -117.95 125.45 -114.45 124.3 -114.45 M15.25 -102.55 Q15.1 -102.05 13.85 -101.85 L13.1 -101.75 Q12.95 -101.75 12.95 -102.6 12.95 -103.45 13.2 -103.4 L13.85 -103.15 Q15.1 -102.95 15.25 -102.55 M207.55 -139.6 L207.55 -139.2 202.7 -138.6 202.6 -139.15 202.9 -139.4 203.8 -139.75 203.25 -139.95 Q202.65 -140.15 202.6 -140.45 L202.8 -140.5 203.0 -140.7 206.35 -140.55 207.55 -139.6 M-40.35 -101.6 L-39.95 -102.35 -38.75 -102.55 Q-38.9 -102.05 -40.35 -101.6 M-0.2 -102.05 Q-1.3 -101.45 -2.3 -101.45 L-2.45 -102.55 -2.05 -102.6 Q-0.3 -102.55 -0.2 -102.05" fill="#ffffff" fill-rule="evenodd" stroke="none"/>
  </g>
</svg>
