<?xml version="1.0" encoding="UTF-8" standalone="no"?>
<svg xmlns:ffdec="https://www.free-decompiler.com/flash" xmlns:xlink="http://www.w3.org/1999/xlink" ffdec:objectType="shape" height="34.7px" width="34.8px" xmlns="http://www.w3.org/2000/svg">
  <g transform="matrix(1.0, 0.0, 0.0, 1.0, 179.65, 234.55)">
    <path d="M-153.9 -214.4 Q-153.05 -213.5 -152.3 -212.0 -151.25 -209.95 -150.6 -207.65 -150.05 -205.45 -148.25 -203.5 L-146.7 -201.95 -145.45 -200.8 -145.0 -200.4 -145.15 -200.3 -145.45 -200.45 -144.85 -199.95 -145.0 -199.85 -146.2 -200.6 -149.85 -203.1 -147.6 -201.85 -148.55 -202.85 -150.15 -204.0 -159.2 -210.0 -169.45 -217.75 -169.4 -217.8 -168.05 -217.05 -165.6 -215.4 -167.95 -217.2 -178.4 -225.7 -178.25 -225.9 -175.3 -223.75 -174.45 -223.05 -174.35 -223.1 -174.75 -223.6 -175.8 -225.05 -177.3 -226.5 -178.05 -227.5 -175.85 -226.25 -175.85 -226.35 -176.55 -227.15 -177.35 -228.1 -178.45 -229.1 -179.65 -230.3 -179.05 -230.3 -178.7 -230.05 -176.55 -228.55 Q-175.1 -227.9 -173.9 -228.9 L-174.75 -230.05 -175.7 -231.1 -175.45 -231.05 -174.45 -230.25 Q-173.9 -229.8 -173.55 -229.7 L-173.5 -229.9 -173.35 -230.4 -173.65 -230.85 -173.3 -230.9 -172.5 -230.45 -175.1 -234.55 -174.9 -234.55 -172.75 -232.45 -171.55 -231.9 -170.25 -231.2 -170.85 -232.15 -170.4 -232.0 -170.7 -232.3 -170.9 -232.55 -172.5 -234.3 -172.45 -234.4 Q-170.35 -232.65 -166.9 -228.65 L-163.05 -224.55 -163.0 -224.6 -162.45 -224.15 -162.35 -224.3 -162.35 -224.35 -164.05 -226.55 -163.95 -226.65 -158.25 -220.2 -153.9 -214.4" fill="#ffffcc" fill-opacity="0.4" fill-rule="evenodd" stroke="none"/>
  </g>
</svg>
