<?xml version="1.0" encoding="UTF-8" standalone="no"?>
<svg xmlns:ffdec="https://www.free-decompiler.com/flash" xmlns:xlink="http://www.w3.org/1999/xlink" ffdec:objectType="shape" height="579.55px" width="838.0px" xmlns="http://www.w3.org/2000/svg">
  <g transform="matrix(1.0, 0.0, 0.0, 1.0, 314.35, 782.4)">
    <path d="M94.55 -240.65 L92.65 -241.05 91.0 -241.0 90.45 -241.0 99.45 -239.25 101.35 -239.1 94.55 -240.65 M517.6 -775.45 L523.25 -779.1 496.5 -757.6 Q484.2 -748.05 470.25 -735.35 L444.65 -712.15 Q431.5 -700.15 420.25 -689.1 397.1 -666.3 378.2 -637.4 369.4 -624.0 354.65 -597.25 347.85 -582.9 343.95 -570.15 L339.55 -560.15 Q333.1 -544.6 328.7 -530.05 L328.1 -528.75 325.85 -523.45 320.55 -507.75 Q318.25 -501.0 316.5 -495.15 315.0 -487.95 312.9 -480.15 L311.55 -475.25 Q308.6 -461.85 304.2 -451.2 L306.1 -454.3 Q303.8 -449.15 302.65 -445.35 L301.2 -442.4 Q299.0 -436.15 297.3 -434.25 L290.55 -420.0 Q279.65 -396.85 277.0 -390.25 274.7 -384.45 270.8 -373.05 L264.75 -355.75 262.05 -347.45 259.25 -338.5 256.05 -330.0 Q254.15 -325.75 252.5 -324.35 243.3 -302.0 231.75 -285.5 227.1 -278.8 220.15 -266.15 L209.6 -247.3 201.15 -229.05 194.0 -213.25 193.6 -211.4 193.75 -210.6 192.65 -207.8 192.65 -207.65 Q192.7 -205.2 191.35 -202.85 L190.75 -203.5 190.4 -203.8 190.15 -204.0 Q190.5 -204.8 190.5 -206.1 L190.2 -209.25 189.9 -210.65 190.6 -212.35 Q188.55 -217.95 160.15 -226.8 L141.9 -232.15 142.4 -229.65 Q126.65 -234.0 117.25 -235.75 L112.75 -236.05 107.75 -236.75 103.0 -237.05 97.8 -237.75 83.65 -240.65 81.65 -241.05 80.05 -241.0 73.1 -241.7 Q68.05 -242.4 67.6 -242.75 L63.6 -243.05 59.15 -243.75 50.2 -244.55 Q46.25 -245.1 45.75 -245.5 L41.35 -245.8 36.5 -246.5 26.45 -247.3 22.45 -247.75 4.95 -248.05 -13.0 -248.75 -18.9 -249.05 -25.25 -249.75 -28.3 -249.95 -29.6 -250.0 -29.5 -249.75 -29.8 -249.45 Q-30.2 -249.15 -30.85 -249.0 L-32.2 -249.2 -34.0 -249.75 -54.5 -250.75 -83.4 -251.65 -109.0 -251.5 -126.0 -250.6 -143.0 -249.75 -165.75 -249.35 -165.35 -249.6 -186.9 -249.25 -228.3 -244.75 -233.8 -243.15 -234.55 -242.95 -240.95 -242.25 -247.7 -241.4 -247.75 -241.6 -247.05 -242.05 -264.0 -239.0 -284.75 -234.15 Q-299.95 -230.5 -301.35 -229.75 L-300.25 -230.65 -314.35 -226.75 Q-305.5 -231.05 -294.15 -234.8 -286.05 -237.5 -274.0 -240.75 -264.8 -243.25 -254.25 -247.8 -243.55 -252.35 -236.75 -254.25 -224.4 -257.55 -207.55 -270.1 L-195.15 -279.7 -191.15 -283.7 Q-183.25 -291.7 -167.5 -310.0 -158.1 -320.85 -150.75 -335.45 -146.2 -344.55 -139.55 -361.75 -137.6 -366.75 -135.75 -374.3 -134.05 -380.9 -133.0 -387.25 -132.65 -389.05 -131.9 -400.35 L-131.75 -401.9 Q-132.3 -408.8 -133.95 -416.95 -135.25 -421.1 -140.2 -434.3 L-142.55 -439.0 -142.15 -439.5 -142.1 -439.45 -142.15 -439.6 Q-142.8 -442.2 -142.75 -457.4 -142.75 -472.55 -142.15 -478.1 -141.45 -484.2 -138.25 -495.95 -134.65 -508.85 -133.6 -515.6 -131.0 -532.0 -117.3 -553.05 -104.45 -572.75 -88.25 -587.1 L-93.25 -580.9 -86.95 -587.55 Q-67.35 -606.95 -42.25 -621.6 -24.75 -631.85 24.45 -656.4 47.85 -668.05 60.45 -675.05 79.0 -687.75 89.0 -716.65 93.35 -729.15 94.7 -741.4 96.0 -753.3 94.15 -761.75 L93.4 -761.6 Q92.85 -766.8 91.0 -772.35 L87.85 -779.85 86.15 -779.85 89.35 -782.4 89.7 -781.75 334.0 -781.85 334.0 -781.8 518.65 -781.85 523.4 -781.9 523.65 -782.1 Q523.5 -781.15 523.5 -780.0 L523.55 -779.65 522.0 -779.65 517.6 -775.45" fill="#9383eb" fill-opacity="0.45882353" fill-rule="evenodd" stroke="none"/>
  </g>
</svg>
