<?xml version="1.0" encoding="UTF-8" standalone="no"?>
<svg xmlns:ffdec="https://www.free-decompiler.com/flash" xmlns:xlink="http://www.w3.org/1999/xlink" ffdec:objectType="shape" height="99.1px" width="43.6px" xmlns="http://www.w3.org/2000/svg">
  <g transform="matrix(1.0, 0.0, 0.0, 1.0, 141.25, 247.0)">
    <path d="M-116.45 -177.65 L-115.6 -175.95 -115.45 -175.75 -115.35 -175.45 -115.2 -175.85 -114.6 -175.1 -114.5 -176.2 -114.4 -177.2 -115.2 -179.3 -115.1 -179.4 -112.45 -176.35 -112.45 -177.05 -112.15 -177.25 -111.85 -176.95 -111.3 -176.85 -111.0 -176.8 -111.1 -177.6 -111.25 -178.55 -111.1 -178.75 -110.65 -177.7 -109.95 -176.8 Q-108.25 -177.3 -108.05 -178.45 -107.95 -179.15 -108.2 -180.35 L-108.25 -180.65 -107.85 -181.05 -107.4 -179.9 -107.0 -178.85 -106.55 -178.0 -106.1 -177.25 -106.0 -177.2 -105.9 -179.15 -105.4 -178.3 -104.85 -176.75 -104.0 -175.65 -103.7 -175.15 -103.55 -175.25 -103.8 -176.0 -104.15 -178.7 -103.95 -178.8 -101.55 -169.0 -101.05 -166.8 -101.35 -168.95 -101.3 -170.15 -101.2 -170.15 -99.45 -160.75 -98.85 -152.75 -98.5 -151.3 -98.15 -150.35 -98.1 -152.25 -97.65 -149.05 -97.65 -147.9 -97.85 -147.9 -98.0 -148.45 -98.05 -148.25 -98.25 -148.15 -98.35 -148.55 -98.8 -149.75 -99.45 -151.3 Q-100.35 -153.15 -102.3 -154.25 -104.3 -155.4 -105.7 -156.8 L-107.25 -158.65 -110.6 -163.45 Q-112.55 -166.65 -113.75 -169.4 L-113.6 -169.4 -112.35 -167.55 -112.1 -167.55 -112.2 -168.1 -112.15 -168.1 -114.05 -172.0 Q-116.0 -175.65 -116.55 -177.65 L-116.45 -177.65" fill="#ffffcc" fill-opacity="0.4" fill-rule="evenodd" stroke="none"/>
    <path d="M-124.9 -244.5 L-124.3 -241.0 -124.25 -241.4 -124.15 -241.4 -124.75 -245.75 -124.55 -247.0 -124.4 -247.0 Q-123.05 -241.85 -122.5 -238.05 L-122.2 -240.5 Q-122.1 -242.15 -122.25 -243.5 L-122.0 -244.25 -121.25 -239.75 Q-121.05 -238.8 -120.35 -237.85 -119.7 -236.95 -119.6 -236.1 -119.45 -236.3 -119.25 -237.6 L-118.85 -237.7 -118.6 -236.4 -118.6 -236.25 -115.55 -212.1 -116.5 -223.5 -116.25 -226.1 -115.85 -226.1 Q-114.5 -213.55 -114.5 -211.5 L-114.7 -205.05 -113.9 -198.8 -113.75 -201.1 -113.35 -201.1 Q-113.0 -198.85 -113.0 -194.55 L-113.1 -189.85 -113.5 -189.6 -113.85 -191.45 -114.0 -191.35 Q-115.0 -193.7 -115.6 -197.0 L-119.8 -201.0 -122.05 -202.7 -122.5 -203.1 -122.65 -202.9 -122.7 -202.8 -124.4 -205.25 -125.85 -207.05 Q-131.8 -217.25 -135.85 -226.25 L-135.75 -227.1 -135.35 -227.1 -132.75 -222.5 -133.6 -224.35 -138.1 -235.2 Q-141.25 -243.2 -141.25 -244.05 L-141.25 -244.6 -140.85 -244.6 -136.35 -235.25 -136.3 -235.45 -136.6 -236.4 Q-137.1 -238.35 -137.75 -239.25 L-137.75 -239.6 Q-137.15 -239.3 -136.5 -238.0 L-136.0 -238.5 -136.05 -238.7 -136.3 -239.35 -138.35 -245.6 -137.85 -245.75 -136.85 -244.15 -137.05 -245.5 -136.9 -245.5 -135.65 -242.95 -135.05 -241.55 -135.0 -241.65 -134.05 -240.1 Q-133.2 -238.8 -132.75 -238.8 L-132.05 -238.55 -131.75 -238.25 -131.35 -238.25 -131.25 -238.65 -131.5 -239.9 -131.75 -241.15 -131.75 -241.65 Q-131.25 -240.65 -130.75 -240.65 L-129.95 -240.2 -129.3 -240.0 -128.3 -238.45 -127.9 -238.15 -128.0 -238.65 -127.4 -238.95 Q-126.8 -239.3 -126.65 -240.0 -126.45 -241.05 -126.05 -241.15 L-125.8 -240.35 -125.75 -241.0 -125.8 -241.35 -125.5 -241.3 Q-125.25 -241.3 -125.05 -241.45 L-125.0 -241.3 -125.25 -243.2 -125.05 -244.5 -124.9 -244.5" fill="#ffffcc" fill-opacity="0.5019608" fill-rule="evenodd" stroke="none"/>
  </g>
</svg>
