<?xml version="1.0" encoding="UTF-8" standalone="no"?>
<svg xmlns:ffdec="https://www.free-decompiler.com/flash" xmlns:xlink="http://www.w3.org/1999/xlink" ffdec:objectType="shape" height="30.35px" width="51.45px" xmlns="http://www.w3.org/2000/svg">
  <g transform="matrix(1.0, 0.0, 0.0, 1.0, 186.35, 200.8)">
    <path d="M-171.55 -198.85 L-178.2 -200.65 -178.25 -200.8 -163.8 -197.15 Q-156.35 -195.1 -151.1 -192.95 L-150.0 -192.5 -149.45 -192.3 -149.55 -192.3 -147.9 -190.95 -143.5 -185.75 -143.2 -185.65 -142.8 -185.55 -139.75 -185.1 -135.65 -184.85 -135.5 -184.8 -134.9 -185.15 -135.05 -184.8 Q-138.6 -182.65 -146.0 -178.6 L-151.95 -175.35 -161.6 -170.45 -161.7 -170.6 -155.0 -174.4 -155.7 -174.25 -156.3 -174.5 -154.95 -175.5 Q-153.85 -176.15 -154.1 -176.8 L-155.85 -176.4 -156.4 -176.35 -156.55 -176.6 -156.45 -177.1 -157.3 -176.95 -161.3 -175.5 -164.1 -174.1 Q-166.35 -173.05 -167.5 -172.75 L-168.25 -172.6 Q-168.5 -172.45 -168.65 -172.4 L-169.0 -172.4 -169.1 -172.5 Q-168.0 -173.55 -165.9 -174.75 L-162.35 -176.85 -162.5 -176.9 -163.1 -176.85 -163.3 -177.4 -164.85 -177.25 -164.95 -177.5 -162.75 -178.95 -162.8 -178.95 -166.75 -178.55 -170.45 -178.15 -170.25 -179.0 -170.6 -179.15 -174.35 -179.0 -176.15 -179.3 -178.2 -179.55 -182.0 -179.6 -185.95 -179.6 -186.1 -179.95 -183.55 -180.65 -181.4 -181.0 Q-180.35 -181.3 -179.95 -181.85 L-186.25 -181.3 -186.35 -181.5 -185.4 -181.9 -180.4 -182.6 -181.2 -182.8 -180.4 -183.25 -179.8 -183.4 -179.55 -183.7 -182.4 -183.75 -185.15 -183.7 -185.25 -184.0 -185.0 -184.2 -178.2 -184.65 -172.7 -185.15 Q-172.05 -185.35 -170.85 -186.55 L-169.5 -188.0 -169.6 -188.15 -169.9 -188.1 -174.5 -188.35 -179.45 -189.0 -179.0 -189.3 -174.35 -189.4 -169.55 -190.15 -168.35 -190.5 Q-169.05 -191.3 -168.65 -191.4 L-167.85 -191.55 Q-167.9 -191.95 -168.55 -192.35 L-169.45 -192.8 -169.0 -193.15 -167.0 -193.5 Q-167.15 -194.1 -167.75 -194.55 L-168.5 -195.3 -170.1 -197.35 Q-170.3 -197.85 -170.05 -197.6 L-169.8 -197.55 -169.55 -197.65 -171.65 -198.8 -171.55 -198.85" fill="#ffffcc" fill-opacity="0.6" fill-rule="evenodd" stroke="none"/>
  </g>
</svg>
