<?xml version="1.0" encoding="UTF-8" standalone="no"?>
<svg xmlns:ffdec="https://www.free-decompiler.com/flash" xmlns:xlink="http://www.w3.org/1999/xlink" ffdec:objectType="shape" height="257.45px" width="452.7px" xmlns="http://www.w3.org/2000/svg">
  <g transform="matrix(1.0, 0.0, 0.0, 1.0, 230.35, 521.05)">
    <path d="M38.55 -495.3 L39.55 -494.75 42.25 -494.0 Q50.2 -495.4 55.95 -494.25 L56.8 -494.2 Q63.45 -492.85 66.25 -488.95 L67.4 -486.8 67.85 -485.95 Q70.6 -480.95 70.6 -469.95 70.6 -467.0 69.65 -464.6 L70.25 -463.25 Q72.0 -460.05 75.85 -459.6 86.2 -460.65 92.25 -463.0 94.45 -463.9 99.6 -467.0 102.1 -468.4 105.55 -471.75 109.0 -475.05 109.8 -475.5 109.6 -473.85 108.3 -472.05 L109.35 -471.95 115.3 -478.8 Q119.65 -484.5 118.3 -488.45 L119.0 -488.6 Q119.6 -488.1 119.8 -487.4 L120.0 -486.4 Q121.8 -487.35 125.0 -488.1 130.35 -489.2 132.35 -486.95 134.3 -485.95 135.2 -484.35 L137.2 -480.45 Q138.65 -478.15 139.7 -473.45 140.6 -469.3 142.25 -467.3 L147.05 -467.0 Q142.4 -463.7 138.15 -455.05 133.9 -446.4 133.9 -440.4 133.9 -432.15 138.2 -424.5 140.1 -421.0 142.2 -418.95 143.0 -417.15 146.85 -414.6 L147.75 -413.65 148.65 -413.1 148.85 -413.1 Q167.0 -412.5 176.85 -416.1 184.25 -418.9 184.25 -422.2 184.25 -423.35 182.3 -425.7 L179.4 -429.3 179.4 -429.35 178.9 -429.8 178.9 -430.7 Q183.8 -426.1 185.35 -424.15 187.7 -421.25 187.7 -416.75 L187.6 -414.85 Q187.4 -414.0 186.7 -413.1 186.15 -412.35 183.25 -411.35 179.6 -410.1 178.15 -411.9 L170.0 -411.0 169.35 -411.0 Q163.2 -407.6 160.9 -401.05 159.45 -396.65 159.45 -389.3 159.25 -386.2 159.7 -383.15 L160.4 -380.1 Q160.45 -372.6 163.3 -367.1 L165.45 -365.05 Q171.25 -359.75 175.45 -359.75 L176.15 -359.75 176.35 -359.75 177.65 -359.75 178.8 -359.8 181.45 -360.0 182.35 -360.55 186.5 -363.05 188.0 -363.95 190.45 -366.75 Q193.25 -370.0 195.65 -371.1 197.15 -372.05 200.0 -372.85 205.5 -374.3 210.35 -372.3 L215.1 -369.2 Q217.7 -367.35 219.1 -365.65 220.35 -364.2 221.4 -357.8 222.35 -352.15 222.35 -348.6 L222.3 -347.35 222.15 -347.2 Q222.05 -347.05 222.05 -347.2 L221.65 -344.8 Q221.4 -344.25 221.4 -346.3 L221.2 -348.55 Q220.9 -349.95 219.8 -349.95 215.75 -349.95 208.65 -342.65 L204.35 -337.65 201.75 -333.75 195.1 -324.35 193.5 -322.7 Q190.05 -318.7 183.75 -314.4 177.55 -310.2 171.65 -307.5 L169.85 -306.3 Q167.95 -304.95 160.65 -301.1 153.95 -297.55 152.8 -296.6 146.25 -291.3 137.9 -286.0 135.15 -284.3 129.05 -281.5 122.65 -278.5 119.15 -277.3 L106.6 -273.4 Q95.8 -270.35 89.75 -270.35 L80.3 -270.8 48.75 -271.1 45.2 -271.75 39.0 -272.65 12.1 -272.95 7.3 -273.4 2.6 -273.9 Q-15.95 -273.2 -21.5 -271.85 L-31.8 -268.9 -40.95 -265.85 Q-48.2 -263.6 -53.4 -263.6 L-56.3 -263.8 -58.4 -264.15 -70.9 -264.4 -74.75 -264.85 -78.5 -265.3 Q-92.45 -265.9 -93.3 -266.75 L-106.15 -268.3 -114.85 -271.25 Q-123.1 -273.65 -142.45 -275.8 -156.15 -276.8 -163.75 -280.5 L-168.95 -283.55 Q-171.8 -285.25 -173.6 -286.0 -178.05 -287.75 -183.3 -290.9 -186.35 -292.65 -193.0 -296.7 L-198.05 -300.05 Q-214.25 -307.65 -222.8 -320.45 -230.35 -331.7 -230.35 -343.8 -230.35 -356.05 -226.3 -365.55 -223.15 -373.0 -212.35 -389.1 -200.5 -406.85 -196.9 -413.85 -195.15 -417.2 -193.95 -420.3 -191.95 -423.8 -191.95 -425.7 L-191.95 -426.65 Q-191.2 -430.3 -191.2 -433.5 -191.2 -436.7 -191.4 -437.45 -191.8 -438.7 -193.0 -439.75 L-195.15 -439.3 -195.95 -439.4 Q-192.4 -444.05 -188.9 -447.25 -188.4 -448.55 -184.5 -450.85 -179.9 -454.0 -174.15 -456.3 L-173.1 -456.15 -167.85 -457.5 -164.8 -458.1 -161.8 -458.25 -161.65 -458.55 -160.4 -458.65 -160.4 -458.7 -160.25 -458.7 -159.45 -458.85 Q-157.2 -459.1 -157.0 -459.35 -140.0 -458.85 -133.55 -455.55 -129.2 -453.25 -129.2 -449.0 L-129.45 -447.6 -129.3 -446.85 -130.2 -444.9 Q-130.15 -444.25 -129.95 -444.15 L-129.8 -444.0 Q-129.4 -443.2 -128.2 -443.2 -120.3 -443.2 -115.0 -449.25 -112.2 -452.45 -111.3 -455.05 -111.05 -457.2 -108.6 -462.0 L-108.3 -462.55 Q-107.95 -464.1 -107.65 -464.3 L-107.4 -464.25 Q-105.8 -467.15 -105.1 -467.65 L-106.45 -463.15 -106.0 -459.2 -105.0 -457.9 -104.95 -457.8 -104.95 -457.9 -104.6 -457.9 -104.45 -457.15 -103.7 -455.65 -103.65 -455.15 -104.25 -456.0 Q-103.85 -453.8 -103.25 -453.4 -94.75 -454.5 -91.7 -458.1 -91.0 -458.85 -89.6 -461.3 -88.35 -463.25 -87.1 -464.4 -83.5 -467.7 -80.15 -469.5 -77.2 -472.45 -74.0 -473.85 -64.85 -477.9 -61.5 -480.95 -60.45 -481.85 -59.7 -482.95 -58.0 -487.2 -58.0 -490.3 -58.0 -491.3 -59.0 -494.0 -60.1 -497.0 -60.95 -497.7 L-60.7 -498.0 -60.0 -497.8 Q-60.0 -498.95 -54.8 -500.9 -49.25 -503.05 -44.15 -503.4 -35.95 -504.85 -28.3 -502.35 -22.75 -500.45 -16.25 -495.7 -13.2 -491.65 -10.7 -489.65 -6.3 -486.2 0.3 -485.05 11.9 -485.05 14.7 -487.8 L16.35 -490.2 17.45 -491.45 Q17.65 -492.4 18.45 -492.4 L18.5 -492.25 18.95 -492.4 18.4 -491.2 18.35 -490.65 Q18.35 -490.1 18.95 -489.65 L21.4 -488.25 21.45 -488.0 20.3 -487.4 20.45 -487.35 28.6 -487.8 Q32.25 -488.6 34.8 -490.85 37.1 -492.95 37.2 -495.1 36.25 -495.65 34.7 -496.55 L34.85 -496.75 35.0 -496.9 Q35.65 -496.75 38.55 -495.3 M158.1 -476.05 Q156.2 -473.3 154.65 -472.05 L153.9 -472.2 Q156.5 -474.25 158.05 -478.65 159.85 -483.95 161.0 -485.45 162.9 -488.0 167.45 -490.65 171.7 -493.25 176.7 -495.1 L178.75 -494.95 178.9 -492.8 181.0 -492.5 182.75 -493.5 Q186.7 -496.05 186.7 -499.65 186.7 -500.6 186.35 -501.4 L185.7 -502.9 184.25 -503.1 184.7 -504.0 Q190.0 -504.9 193.4 -504.0 L196.35 -498.75 Q197.45 -496.3 197.45 -494.25 197.45 -490.9 196.35 -488.05 195.55 -485.95 192.8 -481.2 192.6 -481.5 192.8 -482.2 L193.0 -483.95 Q193.0 -485.25 191.15 -488.1 189.15 -491.1 187.9 -491.1 L182.55 -490.65 Q170.8 -487.35 166.4 -484.5 162.45 -481.95 158.15 -475.25 L157.9 -475.25 158.1 -476.05 M170.85 -452.7 Q172.8 -455.4 174.2 -456.3 L175.5 -455.85 174.55 -455.55 175.25 -455.65 183.15 -455.45 183.7 -455.1 184.25 -454.6 Q177.5 -454.65 174.05 -451.3 171.55 -448.95 171.55 -446.1 171.55 -445.6 172.3 -442.3 L173.05 -438.5 172.8 -438.25 Q172.2 -438.8 170.6 -443.1 L169.25 -447.1 168.75 -447.05 Q168.65 -447.05 168.65 -448.0 168.65 -449.7 170.85 -452.7 M181.35 -454.65 L180.75 -454.65 179.6 -454.4 181.35 -454.65 M188.4 -453.8 L189.85 -453.0 191.1 -451.75 188.2 -453.4 188.4 -453.8 M171.05 -445.5 L171.35 -448.0 Q171.0 -446.8 171.0 -445.5 L171.05 -445.5 M-194.45 -419.5 L-195.45 -417.65 Q-196.1 -416.55 -196.7 -416.05 L-195.15 -418.35 -194.45 -419.5 M-75.15 -506.95 Q-75.15 -500.65 -79.2 -494.9 -80.4 -493.25 -86.1 -487.15 L-94.45 -478.75 Q-99.75 -473.1 -101.3 -469.65 L-102.1 -469.75 -98.3 -478.9 Q-95.75 -484.6 -93.05 -488.45 -89.45 -493.45 -87.9 -497.95 -86.5 -501.85 -86.5 -506.3 -86.5 -507.55 -87.15 -509.3 -88.1 -511.6 -89.6 -511.6 -90.35 -511.6 -91.15 -511.0 L-92.05 -510.1 -92.7 -509.95 -92.8 -511.0 -82.75 -521.05 -80.6 -521.0 Q-77.6 -516.85 -76.35 -513.65 -75.15 -510.55 -75.15 -506.95 M-103.1 -498.9 L-100.95 -502.4 Q-99.15 -504.6 -96.8 -505.2 L-99.5 -501.7 -100.3 -500.7 -100.4 -500.65 -102.25 -498.65 -103.1 -498.9 M-107.2 -460.55 L-107.1 -460.55 -107.1 -460.8 -107.2 -460.55" fill="#ff9a2b" fill-rule="evenodd" stroke="none"/>
    <path d="M44.7 -449.3 Q44.7 -443.85 44.95 -441.2 L44.95 -437.2 44.7 -437.5 43.05 -437.85 Q40.65 -437.85 38.6 -434.6 36.95 -431.95 36.95 -430.55 36.95 -427.65 37.9 -426.4 39.05 -424.9 41.8 -424.0 L41.8 -424.55 42.9 -424.15 44.0 -423.45 44.1 -423.45 Q56.05 -423.6 62.8 -425.0 69.45 -426.4 74.55 -429.65 76.35 -430.85 78.45 -433.0 80.95 -434.7 87.2 -435.45 99.3 -436.55 105.85 -441.45 L110.0 -445.1 Q112.1 -447.05 113.8 -447.65 L114.05 -446.7 112.4 -444.05 Q112.35 -442.95 111.45 -441.05 110.5 -439.05 110.5 -437.95 L110.6 -434.55 110.6 -434.5 112.95 -430.65 113.1 -430.55 113.0 -430.55 114.25 -428.55 Q119.2 -420.5 119.2 -415.55 119.2 -413.5 117.8 -409.5 116.35 -405.55 116.35 -404.7 116.35 -402.15 119.65 -401.1 127.8 -398.6 129.95 -397.6 L130.25 -397.6 131.45 -397.4 Q139.0 -397.4 143.65 -400.8 L144.2 -401.2 144.35 -400.55 Q142.45 -397.6 142.5 -392.95 L143.15 -384.95 143.4 -384.95 143.3 -384.7 Q143.5 -384.2 142.9 -383.85 L142.9 -383.9 141.8 -381.9 Q140.8 -380.15 140.8 -378.95 140.8 -370.25 146.2 -361.5 152.95 -350.4 165.35 -348.7 L170.1 -348.2 Q176.35 -348.2 182.75 -350.35 181.55 -349.05 180.35 -347.0 179.3 -345.85 178.85 -344.35 L178.85 -344.25 Q176.95 -340.7 175.25 -335.85 L174.05 -332.95 171.3 -328.3 Q168.2 -322.9 158.9 -318.25 154.4 -316.3 151.25 -314.75 L150.1 -313.85 Q151.8 -314.75 152.95 -315.0 142.15 -305.35 119.0 -299.45 100.9 -294.85 87.95 -294.85 L75.5 -293.25 54.4 -291.65 45.35 -291.85 40.35 -292.0 39.8 -291.75 37.4 -291.45 Q34.45 -291.45 26.25 -294.1 L14.65 -297.7 10.45 -297.95 5.8 -298.55 Q-29.2 -298.6 -36.6 -297.5 L-40.7 -296.35 Q-42.7 -295.45 -45.8 -294.95 -46.95 -294.8 -52.15 -292.8 -57.9 -290.9 -62.65 -290.9 L-65.05 -291.0 -65.25 -290.85 Q-65.9 -290.3 -66.15 -290.2 L-67.45 -290.35 -68.65 -291.35 -69.5 -291.45 -69.05 -291.65 -69.1 -291.65 -71.4 -291.85 -74.15 -292.35 -87.55 -293.2 -90.95 -293.5 -94.65 -294.1 -115.15 -294.95 -140.05 -295.5 -142.3 -296.1 -144.45 -296.8 -157.15 -297.7 Q-180.5 -298.65 -198.1 -317.0 -204.9 -324.0 -209.0 -331.85 -211.0 -335.65 -211.9 -338.7 -213.6 -339.7 -214.05 -342.35 L-214.2 -347.75 Q-214.2 -355.35 -211.3 -360.25 -209.05 -364.05 -204.05 -367.5 L-194.6 -373.75 Q-188.8 -377.9 -185.1 -383.1 -181.9 -387.3 -180.15 -392.45 -179.85 -393.45 -180.2 -397.1 -180.55 -400.25 -179.45 -401.85 -173.9 -410.2 -161.4 -413.35 -149.95 -416.2 -142.55 -412.95 L-139.1 -413.85 -136.5 -416.65 Q-135.45 -417.8 -134.2 -418.25 L-134.7 -417.5 Q-135.9 -415.5 -135.9 -414.2 -136.05 -412.9 -135.55 -411.85 L-135.4 -411.6 -135.35 -411.55 Q-134.55 -410.4 -132.75 -409.95 L-132.5 -409.8 -132.15 -409.85 -130.4 -409.7 Q-121.1 -409.7 -115.6 -413.85 L-115.35 -413.2 Q-114.4 -411.5 -111.35 -411.5 L-110.95 -411.15 -110.85 -411.2 -107.35 -410.05 Q-104.8 -409.7 -103.95 -409.2 L-102.0 -409.6 -96.45 -410.65 -90.35 -411.05 Q-85.4 -411.5 -83.15 -413.2 L-79.2 -415.5 -78.85 -415.65 -67.95 -425.35 Q-60.45 -431.7 -54.75 -435.25 -42.2 -443.1 -39.65 -445.1 -33.35 -450.25 -33.35 -455.5 L-33.55 -456.8 Q-34.15 -458.1 -36.2 -458.8 L-35.95 -459.15 -35.75 -459.45 Q-35.0 -459.3 -34.4 -458.85 L-34.4 -459.0 -34.4 -459.35 -33.2 -459.2 Q-30.6 -459.3 -26.1 -458.2 -21.4 -457.05 -20.65 -457.05 -20.0 -457.05 -16.7 -458.35 L-13.35 -459.65 -10.8 -458.0 Q-8.0 -456.25 -5.2 -455.85 L-3.0 -448.8 Q-1.55 -445.1 1.85 -443.4 14.9 -445.1 21.5 -449.85 27.15 -453.85 26.65 -458.6 L26.65 -458.8 28.0 -458.2 Q28.05 -458.15 29.05 -457.25 L34.55 -456.8 38.35 -456.85 Q42.15 -456.85 43.75 -453.65 44.7 -451.75 44.7 -449.3" fill="#fef36b" fill-rule="evenodd" stroke="none"/>
  </g>
</svg>
