<?xml version="1.0" encoding="UTF-8" standalone="no"?>
<svg xmlns:ffdec="https://www.free-decompiler.com/flash" xmlns:xlink="http://www.w3.org/1999/xlink" ffdec:objectType="shape" height="273.9px" width="449.8px" xmlns="http://www.w3.org/2000/svg">
  <g transform="matrix(1.0, 0.0, 0.0, 1.0, 230.35, 532.2)">
    <path d="M135.8 -496.75 Q141.4 -493.2 144.25 -486.85 146.6 -481.7 146.6 -476.2 146.6 -472.35 144.45 -468.95 L139.7 -463.2 Q132.7 -455.35 132.7 -445.85 132.7 -443.05 134.05 -440.3 135.15 -438.05 136.8 -436.55 L136.75 -436.1 Q138.3 -435.25 140.25 -434.35 144.8 -432.25 146.45 -430.8 147.8 -429.7 150.3 -426.45 L154.05 -421.45 155.45 -420.8 168.1 -419.6 171.25 -418.6 171.95 -418.55 172.4 -418.2 173.0 -417.7 173.05 -417.65 172.45 -417.6 Q172.0 -417.7 171.8 -417.9 165.35 -415.85 162.2 -409.85 159.9 -405.25 159.9 -399.45 159.9 -394.5 163.2 -386.85 167.0 -378.05 171.95 -375.35 L171.95 -375.3 Q175.5 -373.55 179.45 -373.55 183.55 -373.55 186.8 -375.75 L188.25 -377.2 Q190.1 -379.55 190.1 -380.95 L189.85 -381.65 189.5 -382.4 189.2 -382.4 188.75 -382.6 188.8 -382.85 189.05 -382.85 189.4 -382.85 189.55 -383.1 189.85 -382.85 192.95 -383.2 195.9 -384.2 Q196.6 -384.3 198.55 -385.1 L202.35 -385.45 Q207.6 -386.65 212.8 -381.25 218.45 -375.5 219.4 -368.6 L219.4 -366.5 219.45 -366.45 219.3 -365.65 Q219.0 -366.25 218.15 -366.6 217.25 -367.0 216.4 -366.3 L216.0 -366.3 215.85 -366.15 215.4 -365.8 Q209.9 -361.15 204.45 -350.9 197.4 -337.8 194.55 -334.35 184.75 -322.7 180.95 -318.7 172.1 -309.4 162.15 -302.5 L161.75 -302.5 164.9 -305.45 145.1 -291.6 Q140.8 -288.4 134.45 -285.25 126.4 -281.4 120.0 -280.15 118.7 -280.0 113.35 -277.8 107.7 -275.55 106.3 -275.25 103.9 -274.65 102.6 -273.95 L100.6 -272.8 Q97.55 -271.7 83.85 -270.75 L81.2 -270.15 77.95 -269.8 Q74.7 -269.8 74.35 -270.25 L71.3 -270.4 68.05 -270.85 64.75 -271.05 61.2 -271.4 53.4 -271.35 45.2 -271.0 31.15 -270.75 Q11.85 -268.7 4.7 -267.3 L-9.4 -264.85 -26.55 -264.65 -44.35 -261.3 Q-61.05 -258.3 -67.05 -258.3 L-79.5 -258.7 Q-86.0 -259.75 -100.15 -263.8 -112.5 -267.3 -126.35 -269.15 L-130.05 -269.6 -133.1 -269.8 -146.65 -269.85 Q-159.25 -272.55 -167.85 -278.7 L-171.25 -281.4 -174.65 -283.95 Q-175.25 -284.3 -178.05 -285.25 -181.3 -286.4 -183.05 -287.25 -188.95 -290.1 -197.7 -296.2 -204.9 -301.2 -208.7 -304.45 -219.45 -313.95 -224.9 -324.4 -230.35 -334.8 -230.35 -345.5 L-230.15 -350.15 -230.25 -352.6 Q-230.25 -362.7 -225.0 -377.85 -219.35 -394.05 -213.6 -397.1 -212.25 -397.75 -208.1 -400.55 -203.5 -403.75 -202.25 -405.1 L-197.2 -409.9 Q-194.15 -412.8 -192.95 -414.8 -190.6 -418.55 -188.1 -425.0 -185.15 -432.6 -185.15 -436.6 -185.15 -438.15 -185.4 -438.55 -186.05 -439.65 -188.6 -440.15 -184.85 -442.55 -179.85 -446.7 L-173.1 -452.45 -174.35 -450.85 -173.7 -451.6 -167.95 -458.4 Q-159.6 -466.7 -139.45 -469.15 L-137.1 -469.35 -134.55 -469.75 -131.35 -469.9 Q-126.9 -471.25 -121.55 -468.95 -120.75 -468.65 -114.2 -464.95 -112.2 -463.4 -112.2 -460.3 -112.2 -458.6 -111.8 -457.35 -110.5 -456.5 -110.1 -455.85 -101.3 -456.95 -98.5 -459.7 -97.5 -460.8 -96.9 -462.5 L-95.9 -465.55 Q-95.2 -465.3 -94.75 -464.15 -94.1 -462.55 -93.55 -462.05 -86.9 -462.75 -83.95 -465.3 L-81.85 -467.65 -79.25 -469.8 Q-69.55 -475.25 -67.55 -475.5 -61.55 -477.55 -56.4 -481.2 -50.25 -485.55 -50.25 -489.25 -50.25 -492.25 -51.7 -495.15 -53.5 -498.8 -56.6 -500.1 L-56.1 -500.8 -55.9 -501.1 -55.85 -501.1 -55.4 -501.8 -54.55 -501.6 -49.0 -503.45 Q-44.95 -504.8 -44.65 -505.35 L-38.95 -505.3 -33.1 -504.85 Q-29.15 -505.15 -19.45 -499.6 -10.0 -494.05 -10.0 -491.95 -10.0 -491.2 -10.5 -490.4 L-11.0 -488.8 Q-11.0 -485.0 -6.3 -482.6 -0.55 -479.55 10.15 -480.75 L17.1 -483.6 Q17.9 -483.6 18.1 -483.05 L18.1 -482.1 18.7 -481.7 19.8 -481.4 22.45 -480.65 Q32.15 -481.5 35.6 -482.85 38.45 -484.0 39.05 -486.4 L39.8 -486.2 40.55 -485.5 Q45.6 -485.9 48.0 -488.6 49.85 -490.6 49.85 -493.45 49.85 -494.5 47.75 -498.0 L44.95 -502.35 44.95 -502.8 45.95 -502.3 47.45 -501.95 48.55 -501.25 62.9 -501.05 Q66.8 -499.7 69.1 -496.5 L69.7 -495.55 71.5 -493.25 76.15 -486.7 Q75.65 -486.9 75.25 -487.15 76.15 -485.4 76.15 -484.55 L76.7 -478.9 Q76.7 -476.5 75.05 -474.5 L71.55 -471.15 Q67.05 -466.9 68.65 -460.2 L68.5 -459.95 69.55 -459.0 Q72.65 -459.7 78.8 -462.2 85.6 -464.95 87.7 -465.55 L100.85 -468.3 104.8 -469.15 106.2 -469.85 Q110.05 -471.65 111.2 -472.45 L114.85 -475.45 117.25 -477.45 Q117.45 -478.3 117.45 -476.75 L117.4 -476.3 Q120.0 -478.5 121.45 -480.45 124.5 -484.5 124.5 -489.95 L124.15 -492.3 123.55 -494.75 122.85 -495.0 Q122.65 -495.0 122.6 -495.1 L122.45 -495.0 121.75 -495.15 122.25 -496.1 124.65 -496.55 Q124.9 -496.8 135.8 -496.75 M160.2 -484.1 L161.05 -486.65 Q161.65 -488.35 162.15 -488.45 L162.25 -488.1 Q162.25 -486.8 160.45 -484.1 L160.2 -484.1 M177.75 -501.1 L178.5 -498.75 Q179.3 -496.9 180.55 -497.0 183.25 -497.2 184.05 -498.0 L184.25 -497.7 183.5 -496.2 Q183.0 -495.45 182.05 -495.0 L178.45 -495.15 177.95 -495.6 177.45 -496.1 174.5 -496.75 Q170.55 -496.75 166.75 -494.0 164.3 -492.3 162.75 -490.35 163.9 -494.45 168.45 -497.05 L177.75 -501.1 M188.4 -507.75 L196.4 -507.55 Q199.55 -504.65 200.2 -503.05 200.4 -502.4 200.4 -499.5 L200.15 -496.75 Q198.6 -496.35 199.1 -497.25 L199.9 -498.65 Q199.9 -499.25 197.95 -501.15 L195.55 -503.35 192.7 -503.25 187.5 -498.65 186.7 -498.8 Q187.35 -500.05 188.9 -501.85 190.0 -503.25 190.0 -504.0 190.0 -504.6 188.2 -507.5 L188.4 -507.75 M198.0 -492.35 L197.55 -492.4 Q197.95 -493.2 197.95 -494.25 L198.3 -494.25 198.45 -492.95 198.0 -492.35 M178.2 -458.85 Q180.2 -457.7 182.2 -457.3 L182.35 -456.95 181.55 -456.75 179.4 -456.85 178.65 -457.6 177.75 -458.35 178.2 -458.85 M169.5 -447.15 L170.55 -444.9 170.35 -444.5 Q169.4 -445.6 169.2 -446.0 L169.0 -447.05 169.5 -447.15 M171.6 -457.7 Q173.15 -458.55 173.95 -458.55 L173.95 -457.6 Q170.6 -456.95 169.2 -453.55 168.15 -450.95 168.5 -448.5 167.15 -450.25 167.15 -451.75 167.15 -452.15 167.9 -453.2 168.9 -454.5 169.6 -456.75 L171.6 -457.7 M185.35 -425.2 L185.5 -425.4 Q187.5 -423.8 189.35 -420.85 191.1 -418.05 191.1 -416.35 191.1 -415.4 190.7 -414.6 L190.0 -413.4 Q189.15 -413.15 188.3 -412.55 187.65 -412.05 187.0 -412.05 183.7 -412.05 180.35 -413.6 177.0 -415.3 175.45 -415.8 L175.45 -416.75 179.85 -415.25 185.1 -415.35 Q186.8 -417.6 187.05 -418.35 L187.2 -420.85 187.1 -422.75 Q186.75 -423.65 185.2 -425.1 L185.35 -425.2 M-76.85 -525.3 L-77.2 -525.4 -77.7 -525.8 -76.65 -527.2 -75.15 -529.5 -71.75 -529.95 -69.55 -532.2 Q-67.25 -531.8 -66.25 -530.55 -65.75 -529.95 -65.45 -528.55 L-64.55 -526.4 -64.1 -525.2 -64.05 -525.3 -64.0 -524.95 -63.95 -524.4 -63.95 -524.35 -64.3 -523.45 -65.7 -519.25 -66.4 -517.6 -66.5 -517.05 Q-66.75 -515.65 -67.8 -513.95 -69.2 -511.8 -70.9 -511.95 -72.8 -512.15 -74.5 -510.2 L-76.3 -508.75 -78.7 -506.6 Q-80.7 -504.35 -82.5 -501.35 -82.9 -500.65 -83.0 -499.15 L-83.1 -496.4 Q-83.3 -494.75 -86.0 -491.4 L-90.55 -486.15 -90.8 -486.4 Q-89.8 -488.8 -87.55 -495.3 -85.25 -501.15 -83.1 -503.65 L-76.2 -511.35 Q-72.25 -516.35 -72.25 -519.55 -72.25 -522.0 -74.25 -525.5 L-76.85 -525.3 M-81.6 -521.3 Q-82.15 -520.05 -84.05 -518.65 L-87.1 -516.3 -87.45 -516.0 Q-87.8 -515.9 -87.8 -516.85 -87.8 -518.2 -85.0 -520.05 -82.65 -521.65 -81.8 -521.7 L-81.6 -521.3" fill="#ff9a2b" fill-rule="evenodd" stroke="none"/>
    <path d="M43.35 -445.85 L44.05 -443.15 44.05 -442.4 43.15 -442.6 Q41.25 -442.6 40.5 -439.55 39.85 -436.7 40.7 -434.55 L40.3 -434.3 39.65 -434.5 39.55 -434.55 39.4 -434.35 Q39.15 -433.85 39.15 -433.1 39.15 -432.3 42.8 -429.6 46.25 -427.0 46.7 -427.0 60.9 -427.0 69.7 -431.6 L74.95 -434.75 Q77.3 -436.2 78.95 -436.2 81.75 -436.2 83.5 -435.25 L86.6 -433.65 Q98.1 -434.15 100.65 -435.95 L101.7 -436.95 103.7 -437.1 Q100.75 -433.45 100.75 -431.45 100.75 -430.05 101.75 -429.15 L104.45 -426.65 104.6 -426.4 Q105.0 -426.4 104.6 -426.35 L106.7 -425.65 110.7 -424.45 114.25 -423.2 119.05 -419.65 123.05 -416.05 Q124.4 -414.55 125.55 -412.5 126.8 -410.25 127.2 -408.35 127.6 -406.35 131.35 -404.5 L136.0 -402.5 137.7 -402.55 140.05 -404.2 Q141.6 -404.05 141.75 -403.75 140.65 -402.8 139.95 -401.05 139.4 -399.6 139.4 -398.35 L139.25 -395.75 139.05 -393.55 Q139.05 -391.25 139.55 -389.75 140.4 -387.35 140.85 -385.05 L140.65 -384.7 Q141.15 -383.75 141.05 -382.15 L140.85 -376.5 Q141.45 -374.75 141.95 -371.3 L142.85 -365.85 143.3 -360.65 Q143.75 -357.3 145.55 -355.25 147.45 -353.05 153.0 -350.05 158.3 -347.25 159.95 -347.25 163.9 -347.25 168.85 -348.9 171.4 -349.7 173.7 -350.75 L174.35 -350.65 174.55 -350.15 Q171.95 -346.5 171.5 -338.75 171.1 -331.5 167.65 -327.9 L157.0 -316.7 Q150.05 -310.45 140.85 -307.15 L143.4 -308.6 138.55 -306.25 133.3 -303.2 Q130.8 -301.75 126.95 -300.85 L120.55 -298.55 Q115.3 -296.8 108.25 -296.3 L89.65 -294.1 54.5 -291.95 37.55 -292.15 33.7 -292.5 29.95 -292.9 15.35 -295.05 Q7.6 -296.15 3.55 -297.25 L1.25 -297.35 -1.25 -297.7 -18.55 -296.95 -29.0 -296.05 -46.1 -295.85 Q-49.95 -294.65 -55.1 -293.4 -58.85 -292.25 -61.5 -289.95 L-64.05 -289.95 -67.6 -290.25 -71.15 -290.55 -74.65 -291.1 -89.05 -292.15 -92.8 -292.6 -94.95 -293.0 -97.35 -293.15 -99.85 -293.45 -102.95 -293.6 -106.2 -293.9 -108.8 -294.05 -111.6 -294.35 Q-121.75 -295.05 -127.2 -293.95 L-134.55 -292.65 -137.65 -292.75 -139.9 -293.0 -142.0 -293.15 -144.25 -293.45 -146.15 -293.6 -148.25 -293.9 -152.8 -294.2 -156.65 -294.65 -159.2 -294.85 -161.9 -295.1 Q-170.65 -295.9 -183.0 -304.4 -193.45 -311.55 -196.5 -316.15 L-200.9 -322.0 Q-206.1 -327.6 -208.7 -332.55 L-208.85 -332.45 -209.95 -334.5 Q-211.6 -337.4 -211.6 -338.7 L-211.55 -339.1 Q-212.35 -342.15 -212.35 -344.95 -212.35 -349.15 -211.15 -354.1 -209.8 -359.6 -207.95 -360.65 L-204.8 -365.0 Q-198.15 -372.85 -186.4 -379.55 -177.15 -384.85 -167.9 -393.35 -160.2 -400.5 -158.1 -405.25 -157.6 -406.55 -157.4 -407.75 L-157.4 -408.35 Q-157.4 -409.0 -158.1 -410.7 L-158.65 -412.15 -159.7 -412.1 -159.85 -412.6 -159.5 -413.1 Q-156.1 -413.85 -153.6 -416.4 L-150.1 -419.65 Q-147.3 -423.35 -143.8 -425.6 -138.15 -429.1 -125.75 -432.5 -122.5 -433.2 -118.45 -431.9 -114.25 -430.3 -112.4 -429.85 L-110.6 -429.1 Q-109.3 -428.55 -109.2 -427.9 L-109.65 -426.6 Q-109.05 -424.65 -108.2 -423.4 -106.1 -420.3 -100.8 -420.3 -95.7 -420.3 -90.1 -422.35 L-87.7 -423.25 -88.3 -423.35 Q-83.5 -425.55 -80.25 -429.1 L-79.6 -428.25 -78.5 -427.0 Q-70.4 -427.7 -66.9 -429.85 -64.85 -431.05 -62.2 -433.9 L-57.1 -438.0 Q-53.15 -440.7 -48.45 -441.85 -33.8 -445.6 -28.15 -448.25 -21.05 -451.65 -21.05 -456.15 -21.05 -457.1 -23.4 -458.7 L-21.85 -458.6 -21.5 -458.7 -21.35 -458.35 -20.95 -458.0 -20.55 -457.4 -20.25 -457.1 Q-19.3 -456.4 -18.75 -456.25 L-12.25 -454.65 Q-10.85 -453.8 -10.15 -451.95 -9.35 -449.8 -8.45 -449.0 -7.45 -448.2 -6.45 -446.3 -5.4 -444.3 -4.4 -443.35 -0.8 -439.9 11.0 -438.95 17.75 -440.15 21.8 -441.5 25.55 -442.75 27.65 -444.35 L31.35 -445.55 Q34.9 -446.65 35.45 -447.05 L37.05 -448.7 Q38.0 -449.95 38.0 -450.7 L37.0 -452.1 35.5 -453.75 35.55 -453.95 35.95 -454.45 39.95 -453.5 41.5 -451.05 Q42.65 -449.35 42.65 -448.1 L43.35 -445.85 M-211.2 -348.9 L-211.25 -348.25 -211.2 -347.7 -211.2 -348.9" fill="#fef36b" fill-rule="evenodd" stroke="none"/>
  </g>
</svg>
