<?xml version="1.0" encoding="UTF-8" standalone="no"?>
<svg xmlns:ffdec="https://www.free-decompiler.com/flash" xmlns:xlink="http://www.w3.org/1999/xlink" ffdec:objectType="shape" height="270.25px" width="444.05px" xmlns="http://www.w3.org/2000/svg">
  <g transform="matrix(1.0, 0.0, 0.0, 1.0, 218.65, 520.75)">
    <path d="M83.95 -498.1 Q83.25 -499.4 83.25 -500.3 L83.45 -500.5 84.2 -500.45 84.25 -500.75 84.4 -500.5 86.2 -500.9 88.25 -500.95 Q90.45 -498.25 92.1 -496.5 L95.05 -494.3 95.2 -494.35 95.35 -494.0 96.25 -493.3 96.15 -493.05 Q97.95 -492.15 100.05 -491.8 L100.6 -492.2 Q102.15 -492.05 102.2 -491.7 L101.45 -491.65 101.85 -491.65 Q101.75 -491.4 100.8 -491.3 L100.5 -491.0 Q99.85 -489.95 99.25 -489.95 97.65 -489.95 96.1 -492.0 L95.45 -493.0 Q93.7 -494.0 92.2 -495.5 L91.3 -496.5 Q89.4 -497.4 86.7 -497.8 L85.3 -497.45 85.0 -496.25 84.6 -496.25 83.95 -498.1 M140.15 -500.5 L140.35 -500.95 140.55 -501.25 Q141.6 -500.75 142.3 -499.85 L143.55 -498.6 Q144.15 -498.3 142.95 -498.3 142.3 -498.3 141.55 -498.95 140.65 -499.55 140.15 -500.5 M144.25 -495.35 Q143.75 -495.6 143.6 -495.8 143.45 -496.1 143.45 -496.65 L143.9 -496.65 144.9 -495.65 144.25 -495.35 M25.25 -516.9 L25.2 -517.0 25.45 -517.0 25.25 -516.9 M36.4 -520.65 L36.6 -520.35 36.85 -520.35 Q37.45 -519.9 38.35 -518.15 L38.65 -518.0 38.8 -517.3 Q39.9 -514.9 39.9 -513.6 L39.9 -512.8 40.8 -511.85 Q37.75 -509.05 37.95 -504.2 L38.8 -498.95 37.95 -501.55 37.7 -502.25 Q37.7 -518.7 31.55 -517.9 26.0 -521.35 21.35 -517.8 19.4 -516.4 18.15 -514.15 L15.85 -512.95 18.0 -516.4 Q18.95 -517.45 22.5 -518.6 22.3 -518.9 22.3 -519.55 L22.65 -519.55 24.35 -520.55 30.65 -520.05 30.8 -520.35 31.05 -520.65 34.6 -520.45 34.75 -520.75 36.4 -520.65 M38.3 -497.0 L38.5 -496.75 38.5 -495.8 38.5 -494.75 38.3 -494.5 37.85 -494.5 37.6 -494.75 37.55 -495.8 37.55 -496.75 37.7 -497.0 38.3 -497.0 M74.25 -484.3 L76.5 -481.2 76.0 -480.65 74.7 -482.0 72.4 -482.0 71.45 -483.35 Q66.75 -483.65 63.45 -482.45 L63.55 -483.4 Q63.55 -485.1 62.65 -484.75 L61.75 -484.1 62.65 -485.65 Q66.2 -487.3 66.7 -488.2 L72.65 -487.95 Q72.8 -486.3 74.25 -484.3 M77.85 -477.05 L77.5 -477.9 81.45 -478.35 85.0 -479.05 Q86.1 -479.05 87.5 -477.4 89.2 -475.35 90.5 -474.75 L90.5 -466.35 Q90.2 -466.05 86.85 -465.25 83.9 -464.55 82.5 -461.6 L82.3 -461.3 Q82.05 -461.35 82.05 -462.9 L84.4 -464.85 Q86.7 -467.15 86.7 -468.75 L86.3 -471.5 Q85.7 -473.95 85.0 -474.95 83.1 -476.75 80.55 -476.9 78.95 -477.05 78.25 -476.45 L77.85 -477.05 M60.15 -480.5 Q57.5 -478.2 57.5 -475.3 L57.5 -474.9 57.05 -475.05 Q57.05 -477.4 58.85 -480.1 L60.15 -480.5 M49.35 -449.0 Q49.35 -445.1 47.1 -439.25 43.7 -439.9 41.55 -436.1 39.9 -433.2 39.9 -431.0 L40.1 -429.25 Q41.2 -428.0 42.85 -426.7 43.7 -426.0 45.2 -425.0 L46.1 -424.75 50.05 -423.9 Q70.1 -423.9 78.85 -432.5 81.25 -434.95 83.4 -438.85 85.25 -442.05 86.05 -442.45 L85.05 -440.05 85.5 -438.3 86.65 -439.4 88.3 -440.4 89.6 -441.45 Q95.8 -446.15 103.45 -444.5 111.2 -441.9 113.5 -438.6 114.45 -437.25 114.85 -434.8 115.6 -433.6 116.05 -433.5 L116.15 -433.4 117.0 -433.95 116.7 -433.15 117.45 -432.9 Q118.45 -433.15 119.65 -433.7 L120.7 -434.65 123.7 -437.75 126.9 -440.05 Q134.45 -444.9 147.45 -449.25 L147.45 -450.25 150.3 -449.9 154.0 -449.65 Q155.65 -451.05 157.5 -454.15 160.55 -459.2 160.55 -460.8 160.55 -461.6 158.75 -463.75 L156.15 -467.2 153.0 -467.5 153.0 -469.55 154.5 -469.5 154.5 -469.55 164.85 -469.15 166.55 -463.0 166.9 -461.6 169.7 -458.65 176.9 -458.05 182.4 -448.65 182.65 -441.3 182.55 -436.25 Q182.0 -433.4 179.5 -430.65 178.7 -431.6 179.7 -432.85 L179.05 -434.45 Q178.6 -434.6 178.1 -434.9 177.2 -435.35 177.2 -435.75 162.4 -433.95 152.1 -424.0 142.8 -415.1 142.8 -406.2 142.8 -405.3 143.05 -404.8 L142.25 -405.55 142.1 -403.35 Q142.1 -401.6 144.25 -395.25 146.45 -388.75 147.7 -387.35 153.4 -387.7 156.75 -392.0 157.7 -393.05 160.3 -398.4 L161.5 -401.65 Q162.35 -404.15 163.35 -405.65 166.45 -410.55 173.0 -410.55 175.75 -410.55 176.45 -409.7 184.25 -409.1 186.7 -407.8 188.1 -406.95 189.15 -405.45 189.4 -405.2 191.5 -404.3 193.3 -403.5 195.1 -401.85 L186.2 -402.15 185.65 -401.6 185.55 -401.6 184.45 -400.55 184.4 -400.4 184.15 -398.4 Q183.75 -395.95 183.7 -394.7 L183.7 -394.45 184.6 -387.45 185.55 -380.35 185.5 -377.85 Q185.3 -377.45 183.7 -377.45 174.3 -377.45 170.65 -366.6 169.45 -363.15 169.05 -358.9 L168.8 -354.85 Q168.8 -349.35 176.3 -345.15 180.8 -342.6 192.95 -337.85 198.75 -335.2 202.3 -328.25 205.25 -320.9 206.9 -319.05 L208.7 -319.25 211.0 -319.9 Q212.1 -319.35 212.45 -318.5 210.2 -315.1 194.05 -308.7 176.4 -301.75 175.5 -301.1 L165.4 -293.75 Q158.5 -288.6 154.5 -284.65 138.25 -268.4 112.45 -258.5 91.75 -250.5 78.35 -250.5 L71.5 -250.75 66.05 -251.35 Q65.2 -251.85 60.4 -252.9 57.95 -253.15 57.3 -253.55 L34.15 -254.25 29.65 -255.0 Q25.5 -255.55 25.25 -255.85 L22.65 -256.2 Q20.0 -256.6 19.7 -256.95 -5.7 -258.4 -27.1 -254.7 L-42.35 -251.85 Q-50.65 -250.5 -57.8 -250.5 L-67.9 -250.75 -76.65 -251.35 -81.1 -251.7 Q-85.6 -252.1 -85.9 -252.45 L-103.75 -254.75 Q-120.5 -257.2 -121.2 -258.05 -129.75 -258.6 -130.45 -259.45 L-136.65 -259.95 Q-136.8 -259.8 -137.05 -259.75 L-139.3 -259.45 Q-169.5 -264.6 -195.25 -286.85 -205.95 -296.05 -212.35 -305.6 -218.65 -314.95 -218.65 -321.35 -218.65 -331.25 -215.95 -340.4 -214.0 -346.9 -213.45 -352.2 L-213.3 -356.15 -213.1 -357.75 Q-211.1 -375.45 -198.6 -389.55 -192.35 -396.6 -185.1 -400.6 -177.95 -404.65 -172.0 -404.65 -163.6 -404.65 -161.65 -400.85 L-159.75 -399.8 -159.05 -399.55 -159.0 -399.4 -157.1 -398.4 Q-144.35 -399.3 -136.3 -409.0 -130.05 -416.5 -129.75 -423.45 L-129.9 -425.05 -130.95 -428.6 -134.4 -434.35 -134.15 -434.5 -133.95 -434.9 -133.25 -434.45 -133.15 -434.6 -133.45 -435.4 -132.7 -435.75 -132.2 -434.75 -130.9 -434.45 -128.35 -431.0 -127.7 -432.9 Q-127.25 -434.35 -127.25 -435.3 -127.25 -438.05 -121.8 -442.65 -115.55 -447.95 -109.85 -446.8 L-109.85 -447.5 Q-101.35 -446.3 -97.65 -439.4 -95.2 -434.75 -95.2 -428.3 -95.2 -426.1 -95.6 -424.2 -96.05 -422.05 -96.8 -421.15 L-100.5 -417.5 Q-101.65 -416.5 -101.65 -415.7 -101.65 -413.6 -100.75 -412.1 -99.85 -410.75 -98.85 -410.75 -96.6 -410.75 -95.1 -414.2 L-93.15 -418.3 -92.7 -418.05 Q-90.8 -426.1 -84.85 -432.45 -75.2 -442.7 -54.15 -449.4 L-45.6 -449.1 Q-45.2 -447.35 -41.65 -445.15 -28.55 -445.95 -15.3 -456.6 -9.65 -461.25 -6.2 -466.05 -2.65 -471.15 -2.65 -474.9 -2.65 -479.1 -3.6 -481.2 -5.25 -484.65 -10.95 -488.2 -8.2 -489.1 -6.05 -487.1 L-5.95 -487.35 Q-4.85 -486.75 -3.05 -484.2 L-0.6 -480.65 0.95 -479.3 Q3.2 -477.35 4.2 -477.35 L11.25 -477.5 13.45 -480.0 21.35 -480.35 24.95 -480.25 27.9 -479.85 Q32.0 -479.3 34.55 -477.5 40.85 -475.35 45.1 -466.1 49.35 -456.95 49.35 -449.0 M161.6 -492.3 L161.4 -491.65 160.05 -492.05 157.45 -492.85 Q157.45 -493.5 158.15 -494.5 L159.7 -494.35 161.6 -492.3 M155.15 -489.15 L154.85 -488.6 153.95 -487.1 151.65 -487.95 150.75 -488.25 Q146.05 -490.25 145.85 -492.6 L147.95 -490.9 149.5 -489.7 149.8 -490.1 Q150.25 -490.05 150.7 -489.6 L151.2 -489.05 151.35 -488.95 153.1 -489.05 154.4 -489.7 154.6 -489.9 155.5 -490.9 155.55 -490.55 155.55 -490.1 155.55 -489.75 155.15 -489.15 M105.05 -493.45 L104.1 -491.75 104.1 -491.7 103.9 -491.65 102.7 -491.7 102.95 -492.2 103.1 -492.15 103.55 -492.55 Q103.85 -493.05 103.9 -494.5 L104.4 -494.35 105.05 -493.45 M210.1 -483.0 L209.65 -486.0 210.3 -486.0 Q211.75 -484.95 211.75 -483.8 211.2 -483.0 210.1 -483.0 M212.6 -478.45 L212.8 -478.75 Q214.75 -476.7 215.0 -475.45 215.2 -474.6 216.8 -473.7 L217.0 -472.45 Q214.9 -468.65 211.9 -464.75 211.55 -464.8 211.2 -465.0 210.45 -465.35 210.3 -465.85 212.9 -468.8 213.15 -472.1 213.35 -474.7 212.1 -478.2 L212.6 -478.45 M202.25 -491.05 L201.75 -490.8 199.4 -491.05 199.65 -491.55 199.85 -491.9 Q202.0 -491.65 202.25 -491.05 M191.55 -473.1 Q193.6 -472.6 193.85 -472.0 L188.25 -470.65 188.05 -471.9 188.45 -472.75 188.75 -473.1 191.55 -473.1 M200.95 -425.7 Q200.3 -427.6 200.3 -428.7 L201.0 -429.0 202.65 -426.75 Q203.65 -425.25 205.4 -423.9 206.9 -424.05 208.6 -424.75 L211.0 -425.9 214.5 -424.9 Q217.45 -423.95 220.55 -423.35 221.1 -421.3 222.05 -419.15 223.6 -416.0 225.4 -414.2 L225.4 -407.45 224.95 -406.9 211.45 -407.05 Q214.65 -408.45 215.9 -410.2 217.0 -411.6 217.0 -413.5 217.0 -416.5 213.05 -418.95 209.05 -421.6 202.25 -422.85 201.45 -424.2 200.95 -425.7 M199.15 -403.2 Q204.9 -405.45 206.65 -405.45 205.9 -403.75 205.4 -403.2 203.15 -402.65 202.65 -402.15 L201.0 -402.35 Q199.3 -402.7 199.15 -403.2 M-153.85 -396.25 L-153.4 -396.4 -156.3 -396.25 -153.85 -396.25" fill="#ff9a2b" fill-rule="evenodd" stroke="none"/>
    <path d="M9.9 -432.15 L10.9 -433.1 10.5 -431.35 Q10.5 -429.55 12.3 -428.95 L17.7 -427.65 18.6 -425.3 Q19.55 -422.6 20.15 -419.4 L20.6 -416.5 Q20.6 -410.8 18.1 -407.45 16.45 -405.1 12.7 -403.05 L11.0 -402.1 10.2 -401.4 Q8.1 -399.5 8.1 -398.1 8.1 -397.25 8.6 -396.25 L9.2 -394.85 9.65 -394.45 12.15 -392.1 Q13.25 -391.65 14.3 -391.35 L16.15 -391.45 Q19.05 -392.3 20.95 -393.3 L21.95 -394.3 22.95 -395.25 23.15 -395.45 24.8 -396.65 Q24.7 -395.95 23.8 -394.7 23.65 -394.15 23.65 -393.3 23.65 -392.1 24.25 -391.8 L25.25 -391.5 27.5 -391.1 29.0 -389.8 31.75 -389.95 36.2 -389.4 Q51.55 -389.4 61.5 -393.45 64.8 -394.75 67.85 -396.7 L71.65 -399.25 76.8 -402.65 Q80.7 -402.85 83.85 -401.2 86.95 -399.6 88.65 -396.55 90.2 -393.9 90.2 -391.2 90.2 -389.35 89.3 -389.0 L87.75 -389.0 86.2 -386.6 86.05 -385.45 Q85.9 -385.3 86.0 -385.15 L87.65 -384.9 Q88.8 -384.9 90.4 -385.75 92.75 -389.0 98.45 -393.2 103.5 -396.9 110.85 -401.0 L111.35 -400.95 111.75 -401.8 Q113.8 -401.55 114.15 -401.05 L113.8 -400.95 Q119.6 -400.6 122.6 -403.0 124.25 -404.3 125.15 -406.7 L126.0 -406.7 Q126.85 -404.15 128.0 -401.8 L128.0 -395.6 127.6 -395.55 Q127.1 -395.55 127.1 -395.75 L123.55 -395.6 120.1 -389.25 Q117.8 -384.8 117.8 -382.95 117.8 -377.4 120.45 -372.2 123.0 -367.1 127.1 -365.05 L126.95 -365.4 Q127.65 -364.95 128.9 -364.8 L129.15 -364.5 132.45 -364.5 136.55 -368.25 138.85 -368.5 144.25 -369.05 Q147.05 -369.6 149.4 -371.2 L154.6 -374.4 Q158.2 -376.1 160.9 -381.1 L163.9 -386.75 164.25 -386.3 164.4 -385.75 Q165.2 -388.6 166.8 -389.2 165.5 -386.55 164.75 -380.8 164.0 -375.35 162.35 -372.55 L157.35 -363.85 Q156.75 -362.35 156.75 -356.6 156.75 -350.55 159.9 -345.75 162.1 -342.25 166.75 -338.45 L173.55 -332.65 Q176.65 -329.45 176.65 -326.3 176.65 -322.0 172.3 -316.15 167.95 -310.45 160.55 -304.85 148.1 -295.35 134.25 -290.9 132.7 -289.1 128.45 -287.65 L112.65 -283.0 Q105.85 -280.9 94.55 -278.95 74.75 -275.6 53.35 -275.6 L44.65 -275.8 37.3 -276.25 Q28.9 -276.75 25.6 -278.1 L20.6 -279.75 17.5 -279.55 9.75 -281.15 2.05 -282.8 -35.1 -280.55 Q-40.35 -279.75 -46.8 -278.05 L-65.25 -278.05 -81.35 -278.65 -97.1 -279.55 -101.45 -279.8 -106.1 -280.4 -113.45 -279.75 Q-149.55 -279.95 -149.95 -280.4 -161.45 -282.05 -170.0 -287.0 -175.7 -290.25 -178.45 -293.8 -191.4 -296.85 -199.85 -307.8 -203.85 -312.95 -206.05 -318.9 -207.95 -324.05 -207.95 -327.9 -207.95 -333.8 -203.3 -340.3 -197.8 -347.95 -196.55 -353.65 -194.85 -361.6 -184.7 -369.25 -175.4 -376.3 -169.2 -376.3 L-165.9 -375.9 -159.65 -375.3 Q-157.6 -373.85 -157.6 -373.2 -136.05 -375.4 -127.75 -382.95 -123.15 -387.1 -121.45 -395.75 L-120.75 -395.75 -120.55 -395.15 -120.0 -395.25 -119.95 -394.0 Q-119.95 -392.8 -119.35 -392.15 L-118.6 -391.3 -115.05 -390.9 -109.9 -384.75 Q-107.55 -382.05 -105.4 -380.05 L-104.7 -379.6 Q-103.75 -379.15 -102.35 -379.15 -91.25 -379.15 -84.15 -382.4 -78.7 -384.9 -69.25 -392.95 -67.0 -394.8 -64.8 -401.6 -62.7 -407.9 -59.05 -410.1 -57.2 -411.25 -53.9 -414.05 -51.55 -416.0 -48.8 -417.0 L-47.8 -417.35 -27.2 -417.35 Q-13.9 -417.8 0.2 -425.4 6.2 -428.7 9.9 -432.15 M113.15 -400.75 L113.25 -400.75 113.2 -400.8 113.15 -400.75" fill="#fef36b" fill-rule="evenodd" stroke="none"/>
  </g>
</svg>
