<?xml version="1.0" encoding="UTF-8" standalone="no"?>
<svg xmlns:ffdec="https://www.free-decompiler.com/flash" xmlns:xlink="http://www.w3.org/1999/xlink" ffdec:objectType="shape" height="265.6px" width="419.25px" xmlns="http://www.w3.org/2000/svg">
  <g transform="matrix(1.0, 0.0, 0.0, 1.0, 218.5, 504.1)">
    <path d="M73.4 -484.25 Q74.55 -483.8 74.2 -483.15 74.7 -482.5 80.4 -481.95 83.6 -479.3 84.5 -477.05 85.05 -475.6 85.05 -472.4 85.05 -470.25 84.5 -469.15 L83.85 -467.25 84.05 -467.5 83.75 -466.85 Q83.4 -465.6 83.15 -463.75 L82.9 -463.75 82.85 -463.4 82.85 -462.45 82.95 -459.85 Q82.95 -455.45 79.55 -453.3 78.5 -452.65 72.25 -450.1 69.85 -448.6 67.2 -446.3 L59.6 -439.7 58.9 -438.95 Q56.15 -435.8 55.4 -433.6 L56.25 -433.95 Q55.9 -432.55 55.2 -431.95 L55.1 -431.6 Q55.25 -430.35 55.95 -429.4 56.9 -427.95 58.6 -427.95 62.7 -427.95 67.05 -429.35 69.35 -430.0 72.1 -431.0 L74.0 -431.4 Q76.05 -432.9 79.35 -434.4 L82.35 -435.75 Q83.6 -436.75 84.6 -437.4 87.2 -439.2 90.45 -441.0 93.9 -443.0 95.5 -443.55 103.65 -446.55 111.2 -446.35 L119.7 -445.55 126.7 -445.95 Q131.05 -452.0 131.55 -459.1 L131.9 -459.1 Q131.85 -464.2 130.2 -467.7 127.35 -473.6 120.25 -474.1 121.75 -476.4 122.7 -476.35 125.5 -476.15 129.0 -477.25 131.0 -477.9 132.55 -479.9 L134.1 -482.3 Q137.45 -481.65 142.95 -475.6 148.8 -469.35 148.8 -465.25 148.8 -463.35 147.0 -458.3 145.25 -453.65 144.25 -452.3 L139.3 -450.55 139.35 -450.35 Q131.3 -447.1 126.0 -439.85 121.0 -433.1 121.0 -426.8 L121.1 -424.9 Q121.2 -424.05 121.75 -423.25 L122.55 -421.25 122.85 -419.95 Q124.1 -416.65 127.9 -416.5 132.45 -416.3 133.5 -415.35 141.5 -416.1 145.0 -417.15 L146.95 -417.85 146.35 -418.0 Q146.35 -418.3 147.7 -418.65 L148.35 -419.95 Q148.7 -420.75 149.15 -421.15 155.5 -423.3 157.65 -423.1 L160.55 -422.4 Q161.3 -422.4 162.5 -422.9 L163.75 -423.55 164.85 -423.35 Q166.4 -422.4 167.1 -420.15 167.75 -417.65 168.25 -416.65 L168.15 -416.35 Q167.85 -416.2 167.45 -416.5 L167.1 -417.0 165.5 -416.8 Q162.3 -410.2 161.65 -403.35 L161.95 -403.75 161.5 -400.2 161.5 -399.2 161.25 -399.05 Q160.7 -397.1 160.7 -396.1 160.7 -388.3 164.55 -383.1 169.5 -376.45 180.4 -374.55 190.05 -374.3 193.55 -376.3 L195.25 -377.65 Q196.0 -378.3 196.9 -378.3 198.25 -378.3 199.6 -375.85 200.75 -373.85 200.75 -373.0 L200.6 -373.2 199.75 -373.3 Q197.7 -373.3 196.45 -366.75 195.55 -362.2 195.55 -359.6 195.55 -349.9 193.35 -341.95 190.85 -332.7 184.9 -323.95 176.95 -312.0 165.35 -301.3 L159.05 -295.85 Q153.65 -289.45 146.4 -283.95 L140.8 -280.05 Q137.3 -277.25 132.25 -274.65 121.85 -269.65 118.15 -267.45 110.25 -262.75 102.25 -259.7 93.25 -256.25 80.55 -253.45 68.8 -249.5 60.3 -249.5 L58.25 -249.65 56.9 -249.95 51.1 -250.3 50.3 -250.6 49.6 -250.6 Q41.85 -250.6 39.75 -252.0 39.15 -252.3 38.4 -253.05 37.6 -253.75 36.2 -254.0 L20.85 -253.9 Q16.8 -252.65 1.8 -250.5 -12.05 -248.45 -13.35 -247.75 L-13.55 -247.75 Q-35.8 -241.4 -71.35 -238.5 L-73.6 -238.6 -75.95 -238.9 -77.8 -239.05 -79.8 -239.45 -83.95 -240.3 -88.35 -241.15 -95.1 -241.55 -103.05 -242.1 -115.3 -242.4 -115.5 -242.85 -124.8 -243.5 -126.75 -243.6 -128.85 -243.95 -136.85 -245.65 -138.9 -245.8 -141.05 -246.15 Q-150.35 -247.5 -156.0 -251.6 -156.6 -252.1 -160.4 -253.75 -161.75 -254.4 -162.7 -255.0 -167.25 -256.7 -171.2 -260.15 -174.2 -262.75 -179.65 -268.4 L-186.85 -275.6 Q-190.0 -278.6 -192.4 -280.25 L-192.65 -280.05 -193.55 -280.15 -193.7 -280.35 -193.85 -280.3 Q-200.5 -281.6 -205.85 -286.15 -210.3 -289.95 -211.45 -293.4 L-214.6 -301.0 Q-216.1 -304.5 -216.1 -307.8 L-217.0 -311.6 Q-217.9 -315.45 -217.9 -317.2 L-217.9 -317.25 -218.5 -319.85 Q-218.5 -341.3 -211.1 -358.4 -204.4 -373.85 -192.55 -382.3 -189.9 -385.2 -186.1 -387.2 -181.1 -389.85 -175.05 -390.5 L-176.3 -388.85 -175.6 -386.8 Q-174.8 -385.2 -171.95 -383.0 -168.35 -380.15 -165.35 -380.15 -158.35 -380.15 -152.8 -383.25 -152.4 -387.0 -149.4 -392.05 -146.0 -397.9 -146.0 -399.7 -146.0 -401.45 -147.5 -402.95 L-149.35 -403.1 -149.65 -402.9 -150.5 -402.9 -150.6 -403.15 -151.85 -403.2 -151.95 -403.9 -148.45 -406.35 Q-145.95 -407.95 -144.8 -409.5 L-143.1 -411.6 Q-140.9 -417.5 -123.6 -431.5 -113.35 -438.55 -110.4 -440.1 -105.25 -442.9 -99.2 -444.75 L-94.5 -446.8 Q-90.15 -448.45 -84.45 -447.7 -80.2 -447.25 -78.85 -446.45 L-76.1 -444.25 -75.75 -443.8 -75.6 -443.6 -75.7 -443.5 -74.15 -442.45 -71.95 -440.6 -69.4 -438.85 Q-68.4 -438.2 -65.25 -437.9 L-64.85 -437.5 -62.75 -437.5 -58.65 -437.65 -55.15 -438.05 Q-52.1 -438.3 -49.2 -439.4 -46.35 -440.5 -43.7 -440.95 -34.25 -444.65 -28.05 -452.0 -22.65 -458.3 -21.65 -464.8 L-21.75 -465.25 -21.5 -467.7 Q-21.5 -471.6 -23.65 -475.75 -25.55 -479.55 -28.45 -481.2 L-29.1 -481.0 -29.6 -481.0 -29.15 -481.25 -27.45 -482.15 -27.15 -482.3 -24.4 -483.05 Q-19.7 -484.45 -13.1 -483.85 -10.25 -483.15 -8.2 -479.7 -6.75 -477.3 -6.15 -474.45 L-4.5 -469.55 -2.9 -464.6 Q-2.9 -459.75 -4.2 -459.1 -4.65 -458.85 -5.05 -458.7 L-7.1 -457.2 Q-9.9 -455.6 -11.65 -453.95 L-12.35 -453.05 Q-15.5 -448.6 -15.5 -444.0 -15.5 -441.15 -14.3 -438.2 -12.6 -434.0 -9.55 -435.0 -9.7 -433.7 -9.35 -432.9 -8.65 -431.35 -5.75 -431.35 -2.3 -431.35 1.9 -433.15 4.0 -434.1 5.5 -435.05 16.1 -438.6 18.6 -439.05 L23.35 -438.85 Q22.15 -437.1 22.0 -435.05 L21.55 -433.4 22.0 -433.4 Q22.4 -433.4 22.4 -432.5 22.4 -431.6 21.5 -430.35 20.6 -429.2 20.6 -428.7 20.6 -427.7 21.4 -426.55 L22.5 -425.2 24.65 -425.05 26.6 -425.5 26.55 -425.55 32.05 -428.05 Q35.4 -429.5 36.2 -430.35 L39.75 -432.85 Q42.05 -434.4 42.0 -435.55 53.95 -441.4 61.2 -448.05 68.85 -455.05 69.75 -461.75 69.2 -465.1 66.2 -467.35 60.05 -471.8 58.2 -474.05 56.3 -473.95 56.15 -473.55 L55.8 -473.7 55.3 -474.1 Q56.0 -474.95 59.95 -476.25 L64.5 -477.7 Q65.25 -477.95 66.3 -479.85 67.6 -482.1 68.2 -482.7 69.05 -482.55 69.9 -483.3 L71.0 -484.35 73.4 -484.25 M181.0 -398.25 Q182.1 -398.05 182.65 -396.55 183.1 -394.6 183.45 -394.0 181.6 -395.5 180.15 -398.05 L181.0 -398.25 M184.25 -390.0 L183.9 -390.0 183.8 -392.05 184.25 -392.05 Q184.55 -391.4 184.25 -390.0 M-55.4 -497.55 L-54.95 -499.15 -54.85 -499.9 Q-54.85 -501.1 -56.4 -503.7 L-56.05 -504.1 Q-55.05 -503.8 -54.0 -502.25 -53.0 -500.8 -53.0 -499.95 -53.0 -499.3 -54.3 -497.0 L-56.05 -493.9 -56.75 -494.0 -55.8 -496.7 -55.4 -497.55 M-76.25 -478.4 L-74.6 -480.25 -72.7 -481.6 -71.2 -481.35 Q-71.2 -480.75 -71.8 -479.85 L-74.0 -479.05 Q-75.95 -478.35 -76.25 -478.4" fill="#ff9a2b" fill-rule="evenodd" stroke="none"/>
    <path d="M19.1 -404.25 L28.0 -406.85 Q32.55 -408.2 34.4 -409.6 36.85 -411.4 36.85 -414.35 36.85 -415.0 35.85 -416.75 L34.6 -418.85 34.45 -418.95 34.25 -419.6 35.95 -419.8 36.25 -419.35 44.25 -418.95 44.8 -415.85 Q45.15 -413.85 45.6 -412.85 L47.3 -410.1 Q48.45 -408.4 48.45 -407.6 48.45 -406.85 46.1 -404.1 L45.85 -403.8 45.95 -402.65 Q45.95 -401.7 45.1 -400.35 44.25 -399.05 44.25 -398.05 44.25 -397.65 46.55 -394.0 L46.6 -393.95 49.15 -394.3 50.1 -394.15 50.45 -394.1 50.55 -393.8 51.1 -393.6 50.45 -393.15 Q49.95 -392.75 49.95 -392.15 49.95 -390.9 55.5 -389.55 64.1 -387.55 66.7 -386.55 L67.55 -386.2 67.55 -386.25 Q68.45 -387.2 69.5 -387.2 71.45 -387.2 74.05 -385.9 76.6 -384.65 81.15 -384.65 92.8 -384.65 100.25 -389.1 L102.55 -390.5 102.7 -394.65 Q102.7 -397.0 101.5 -399.05 L100.25 -400.7 Q99.65 -400.75 99.5 -401.05 L99.0 -401.55 99.0 -401.6 96.6 -402.25 97.35 -402.6 97.85 -402.85 100.6 -402.5 101.75 -402.05 Q106.35 -402.15 108.25 -402.95 109.3 -403.4 109.9 -404.15 110.75 -403.75 111.1 -402.5 111.6 -400.7 112.05 -399.95 L114.05 -397.55 115.35 -395.85 114.65 -393.45 Q113.95 -391.2 113.95 -390.5 113.95 -387.65 115.95 -384.85 119.2 -380.3 120.05 -378.45 L121.95 -372.7 Q123.5 -367.7 123.5 -366.9 L123.35 -365.8 124.45 -364.8 126.45 -363.1 130.25 -363.65 131.25 -364.3 131.85 -364.05 131.55 -363.65 131.85 -363.65 131.75 -363.45 131.55 -362.7 Q131.55 -362.35 132.7 -359.9 133.85 -357.45 134.4 -356.9 136.1 -355.1 137.9 -354.3 139.65 -353.55 142.25 -353.55 142.85 -353.55 144.45 -351.8 146.25 -349.7 146.9 -349.3 L150.0 -347.6 Q152.65 -346.3 153.95 -346.3 163.95 -346.3 167.1 -348.45 168.65 -349.5 168.15 -350.6 L168.4 -350.6 168.65 -350.35 168.7 -350.1 168.9 -350.1 169.15 -348.0 Q169.15 -344.4 166.85 -340.15 165.0 -336.75 164.25 -333.6 L164.35 -333.65 Q164.6 -332.85 165.5 -331.85 166.9 -330.25 168.7 -330.25 172.6 -330.25 173.9 -330.9 L175.85 -331.75 176.15 -331.4 175.95 -331.25 176.1 -331.1 176.15 -330.25 Q176.15 -324.2 170.8 -316.65 165.5 -309.15 157.9 -304.3 L153.95 -301.15 150.65 -298.15 Q146.4 -294.85 140.15 -291.65 133.1 -288.05 130.1 -286.95 127.5 -285.95 124.15 -285.05 117.55 -281.7 99.4 -278.65 82.95 -275.95 74.6 -275.95 L67.55 -276.25 64.15 -276.45 63.05 -276.35 50.95 -276.9 44.35 -277.9 37.45 -278.3 19.45 -278.4 17.65 -278.1 4.55 -277.25 0.25 -277.35 -4.25 -277.6 -6.45 -277.75 -8.8 -278.0 -13.9 -277.7 -34.25 -277.45 -40.5 -276.75 -47.15 -275.95 -48.3 -275.95 -48.6 -275.9 -64.85 -274.0 -71.4 -273.6 -80.65 -273.9 -83.35 -274.0 -86.3 -274.3 Q-91.35 -274.8 -92.85 -275.5 L-106.65 -275.45 -118.2 -274.65 Q-119.0 -274.65 -119.05 -275.25 -124.7 -275.9 -128.6 -276.95 L-135.8 -279.25 -142.85 -281.55 -148.95 -283.35 -152.5 -283.3 -156.05 -282.75 Q-158.4 -282.5 -159.7 -281.4 L-164.2 -281.95 -164.55 -281.8 Q-174.75 -284.1 -182.9 -289.3 -185.75 -291.1 -196.25 -299.5 -198.1 -300.95 -203.2 -308.65 -206.1 -313.1 -207.5 -316.0 -208.8 -317.55 -209.05 -319.05 L-209.1 -321.85 Q-209.1 -324.4 -207.7 -327.85 -207.1 -330.0 -206.1 -332.0 -204.2 -335.85 -200.7 -339.55 -197.7 -343.4 -194.65 -345.3 L-194.05 -344.35 -190.5 -344.35 Q-184.8 -346.4 -182.05 -351.0 -179.95 -354.65 -180.25 -358.6 -180.5 -362.65 -178.15 -366.2 -175.15 -370.9 -168.7 -371.95 -168.5 -371.6 -168.65 -370.9 L-168.85 -369.55 Q-168.85 -365.15 -162.25 -362.5 -157.45 -360.7 -153.9 -360.7 L-149.75 -361.0 -147.35 -361.1 -144.65 -361.4 Q-138.25 -361.85 -135.8 -362.85 L-135.4 -363.05 -135.6 -363.25 Q-133.15 -364.75 -127.9 -367.15 -123.3 -369.45 -121.0 -372.55 -120.35 -373.4 -118.6 -378.4 -117.3 -382.0 -113.6 -384.3 -113.35 -384.0 -113.35 -382.75 L-113.35 -382.45 Q-112.8 -382.6 -109.5 -384.45 -106.85 -385.9 -100.55 -386.7 -98.25 -387.0 -95.6 -388.45 -92.95 -389.9 -92.45 -391.05 L-89.65 -396.7 Q-87.95 -400.35 -87.95 -402.85 -87.95 -405.85 -89.95 -408.45 L-95.5 -415.1 Q-95.5 -415.65 -95.0 -416.0 L-93.8 -415.35 -92.75 -414.9 Q-91.45 -414.8 -90.3 -415.25 L-90.55 -415.2 Q-87.85 -417.3 -86.8 -417.8 -83.45 -419.15 -75.5 -419.95 L-75.5 -420.1 Q-71.3 -421.1 -65.4 -419.05 -59.65 -417.05 -58.25 -414.35 -57.65 -413.25 -55.05 -410.95 L-51.2 -407.6 -49.55 -407.2 Q-48.45 -407.75 -47.35 -409.6 -46.5 -411.05 -44.9 -411.2 -44.0 -409.15 -39.3 -405.1 -34.8 -401.2 -34.35 -399.5 L-34.0 -398.35 -32.8 -397.55 Q-27.15 -393.95 -22.05 -393.95 -11.95 -393.95 -6.45 -397.1 L-2.9 -399.5 Q-1.5 -396.3 0.9 -395.6 L0.45 -394.6 1.05 -394.65 1.35 -395.5 Q2.1 -395.3 2.9 -394.9 L4.15 -396.0 4.55 -396.4 Q7.6 -399.1 9.0 -399.9 13.25 -402.35 19.1 -404.25 M71.45 -401.8 L65.95 -399.8 61.65 -398.25 Q61.25 -397.95 60.85 -397.9 60.05 -397.8 60.05 -399.05 60.05 -401.0 64.7 -401.8 68.95 -402.5 71.45 -401.8 M86.3 -404.2 Q88.8 -403.45 89.0 -402.8 88.2 -402.0 83.25 -402.0 L82.9 -401.7 Q82.55 -401.7 82.55 -403.0 82.55 -404.25 83.1 -404.35 L83.9 -404.4 86.3 -404.2 M-18.7 -422.4 L-14.95 -420.45 Q-10.9 -418.45 -9.15 -417.1 -8.55 -416.65 -7.45 -413.9 -6.45 -411.25 -6.45 -410.35 L-6.45 -409.15 -6.85 -409.25 -9.25 -412.55 -12.9 -417.3 -17.6 -418.5 Q-21.55 -419.75 -23.15 -420.6 L-28.25 -419.9 -29.6 -420.1 Q-27.1 -422.25 -26.5 -422.4 -24.85 -422.45 -21.75 -423.25 L-19.6 -423.0 -18.7 -422.4 M-22.25 -421.4 L-22.25 -421.0 Q-20.5 -420.6 -20.3 -420.1 L-18.45 -420.4 -18.8 -420.6 -19.8 -420.4 Q-21.1 -420.65 -22.0 -421.5 L-22.25 -421.4 M-38.0 -417.5 L-38.35 -418.7 -36.6 -419.45 -34.5 -419.8 -34.25 -418.45 Q-34.55 -418.2 -36.0 -417.8 L-38.0 -417.5 M-4.25 -404.75 Q-3.65 -404.6 -3.15 -403.9 -3.15 -402.7 -4.5 -402.5 L-4.75 -402.35 Q-5.05 -402.4 -5.05 -403.65 -5.05 -405.0 -4.25 -404.75" fill="#fef36b" fill-rule="evenodd" stroke="none"/>
  </g>
</svg>
