<?xml version="1.0" encoding="UTF-8" standalone="no"?>
<svg xmlns:ffdec="https://www.free-decompiler.com/flash" xmlns:xlink="http://www.w3.org/1999/xlink" ffdec:objectType="shape" height="206.95px" width="401.7px" xmlns="http://www.w3.org/2000/svg">
  <g transform="matrix(1.0, 0.0, 0.0, 1.0, 205.4, 431.55)">
    <path d="M15.1 -430.65 L23.45 -423.6 Q27.9 -419.65 28.1 -415.95 L25.65 -415.3 21.4 -403.95 20.2 -401.2 20.25 -401.0 Q20.25 -399.4 19.2 -395.9 17.9 -391.5 16.35 -390.85 12.65 -389.85 10.8 -386.05 L10.55 -385.2 Q11.25 -382.55 13.0 -379.65 14.85 -376.45 17.25 -374.9 L18.3 -374.65 25.45 -373.1 33.75 -373.1 Q35.35 -373.65 36.4 -374.6 L37.1 -375.7 37.95 -376.7 38.45 -377.95 Q38.95 -378.9 39.65 -378.95 39.05 -377.25 38.9 -376.15 L39.35 -374.85 Q39.5 -374.55 40.8 -374.15 L42.1 -373.6 50.1 -374.3 54.05 -374.75 56.2 -375.75 58.0 -376.6 Q59.05 -378.3 59.7 -380.0 L59.7 -380.2 Q59.7 -383.35 59.4 -383.85 58.55 -385.15 53.9 -387.3 L53.6 -388.7 52.8 -390.35 45.3 -390.1 45.3 -390.05 45.1 -390.05 Q44.05 -389.9 42.6 -388.1 L41.85 -386.9 43.15 -389.6 43.35 -390.05 43.15 -390.05 43.35 -390.35 Q44.05 -391.55 44.05 -392.95 L44.05 -393.2 44.35 -394.2 46.75 -394.95 49.35 -396.7 Q50.7 -397.65 51.15 -399.25 L51.65 -401.65 54.15 -402.6 Q55.15 -403.1 55.15 -403.3 L56.75 -401.35 59.5 -399.05 64.9 -398.85 Q67.0 -397.45 67.75 -395.65 L68.6 -392.85 69.65 -390.1 Q70.25 -388.55 70.25 -387.15 70.25 -383.85 65.25 -378.85 L63.95 -377.45 63.4 -376.05 62.75 -374.65 62.75 -374.6 62.6 -374.25 63.2 -373.7 Q65.35 -372.0 65.9 -372.0 67.5 -372.0 71.85 -375.0 76.2 -378.0 78.35 -378.0 L82.75 -377.8 83.05 -377.75 83.2 -377.85 83.55 -378.2 Q86.4 -377.95 87.4 -376.9 L87.5 -376.75 Q88.6 -376.2 89.7 -375.05 91.2 -373.65 93.0 -373.1 97.65 -374.15 101.5 -378.3 105.55 -382.65 105.55 -386.15 105.55 -387.5 105.05 -388.55 L104.25 -390.2 103.15 -389.75 102.55 -389.5 100.35 -389.75 101.5 -390.55 101.2 -390.6 101.45 -391.05 101.7 -391.25 102.75 -391.2 103.6 -391.55 103.75 -391.6 109.7 -393.75 Q118.25 -396.35 126.95 -397.15 L127.0 -397.15 127.2 -397.15 128.7 -397.25 129.55 -397.3 132.15 -394.8 132.9 -394.1 134.7 -391.7 136.65 -388.25 136.45 -388.35 136.8 -387.55 Q137.5 -386.05 137.5 -384.0 137.5 -383.5 137.85 -382.3 L136.65 -382.25 Q134.5 -382.25 134.0 -379.95 L134.0 -377.65 134.1 -376.6 134.2 -376.55 Q138.45 -374.85 140.1 -373.5 L141.25 -372.5 141.8 -372.45 145.45 -366.45 Q146.4 -364.6 146.75 -362.85 L147.2 -362.15 147.45 -360.0 Q147.8 -357.45 147.65 -356.4 147.2 -353.75 144.85 -351.3 142.65 -349.0 142.65 -348.15 L142.65 -348.05 Q141.4 -346.4 141.4 -343.35 141.4 -341.4 141.8 -340.1 L142.45 -339.75 147.3 -339.15 148.1 -339.1 148.85 -339.7 Q153.2 -342.55 157.8 -342.3 160.55 -343.6 166.1 -343.2 L170.85 -345.3 Q176.3 -347.9 176.3 -351.3 L176.2 -352.65 175.9 -353.25 173.8 -353.25 173.8 -354.65 174.05 -354.65 174.2 -354.9 176.1 -354.35 187.8 -356.4 Q188.55 -356.3 189.1 -355.35 L191.05 -352.4 Q192.15 -351.55 193.75 -348.65 195.6 -345.5 195.6 -343.8 188.7 -340.85 185.95 -333.5 183.6 -327.4 184.8 -320.15 185.05 -318.45 182.8 -313.85 180.25 -308.65 180.05 -307.5 179.85 -306.6 180.45 -300.95 L180.5 -299.95 180.0 -299.45 179.6 -298.2 Q180.0 -297.2 180.9 -296.15 L181.9 -295.1 184.95 -294.45 187.55 -294.0 Q190.35 -294.0 192.8 -295.55 L192.95 -295.3 Q194.95 -291.9 194.95 -290.6 194.95 -288.05 190.4 -284.65 186.9 -281.9 186.35 -282.0 185.95 -282.7 184.6 -282.7 L176.25 -278.55 Q167.15 -273.9 163.6 -272.45 160.7 -271.1 156.35 -266.75 L149.95 -260.45 149.85 -260.5 Q133.9 -244.15 103.75 -236.15 80.3 -229.95 55.05 -229.95 L44.9 -230.1 36.0 -230.6 33.95 -230.9 31.45 -231.45 Q26.8 -231.7 20.3 -233.05 14.1 -234.35 13.4 -235.05 L1.55 -235.3 Q-7.7 -235.3 -13.05 -233.25 L-16.95 -231.7 Q-19.3 -230.9 -21.9 -230.6 -24.1 -230.35 -27.0 -228.5 -31.9 -226.5 -44.15 -225.7 L-56.2 -224.8 -67.15 -225.2 Q-67.6 -224.9 -67.85 -224.85 L-69.95 -224.6 Q-73.35 -224.6 -79.5 -225.9 L-85.7 -227.1 -90.65 -227.3 Q-95.65 -227.65 -95.9 -227.95 L-98.9 -228.25 Q-101.95 -228.55 -102.25 -228.85 L-118.65 -229.7 Q-154.4 -235.3 -172.45 -249.85 -178.05 -254.35 -185.7 -263.05 L-193.75 -271.8 -194.4 -271.8 Q-196.2 -271.8 -199.45 -276.0 -202.3 -279.75 -202.75 -281.35 -203.6 -283.95 -204.75 -286.5 -205.4 -288.45 -205.4 -291.4 -205.4 -297.8 -200.25 -308.15 L-194.0 -320.15 -193.55 -320.3 Q-192.8 -320.25 -192.8 -320.0 L-192.9 -318.2 Q-192.9 -317.2 -190.9 -316.15 L-187.6 -314.5 Q-178.85 -314.5 -170.35 -324.9 -167.05 -329.0 -164.9 -333.35 -162.85 -337.55 -162.85 -340.0 -162.85 -343.15 -163.1 -343.95 -163.7 -346.15 -166.35 -348.5 -167.3 -348.65 -170.5 -347.0 -173.75 -345.3 -174.05 -345.3 -173.6 -351.1 -170.15 -355.75 -166.4 -360.95 -160.05 -362.7 L-159.9 -362.85 Q-142.2 -368.75 -138.7 -377.8 L-137.05 -377.55 -136.1 -376.65 Q-129.35 -377.55 -125.6 -381.85 -125.0 -382.5 -123.35 -384.9 -122.3 -386.35 -121.6 -386.55 -121.45 -385.65 -122.0 -383.7 L-122.7 -380.55 Q-122.9 -376.9 -116.4 -375.9 L-114.1 -372.8 -109.0 -367.45 Q-106.35 -364.5 -105.35 -362.35 L-105.3 -362.35 -105.3 -362.2 -105.25 -362.15 -105.0 -361.35 -104.9 -361.15 -104.8 -360.1 -104.8 -359.6 -104.85 -358.65 -105.2 -358.35 -105.75 -358.35 -107.1 -356.65 Q-108.25 -355.0 -108.25 -354.15 -108.25 -352.75 -107.75 -352.05 L-106.8 -351.1 -104.8 -350.0 Q-93.75 -350.3 -89.65 -352.25 L-87.2 -353.7 Q-86.0 -354.45 -84.45 -354.65 L-84.25 -353.7 -84.45 -353.2 Q-78.2 -355.0 -75.0 -357.7 -72.0 -360.3 -70.85 -364.85 -69.2 -371.4 -68.65 -372.45 -66.55 -376.6 -60.95 -379.3 L-60.55 -379.2 Q-60.1 -379.35 -60.1 -380.75 -60.1 -381.6 -61.65 -385.45 -63.15 -389.35 -63.7 -390.0 L-67.6 -391.05 -71.1 -391.2 -71.55 -390.6 -73.0 -390.6 -72.6 -391.15 -74.7 -391.5 Q-74.45 -391.9 -71.75 -393.4 L-71.3 -393.3 Q-67.35 -395.1 -62.55 -399.35 L-63.65 -399.55 -62.5 -401.15 -62.45 -401.25 -61.35 -402.4 -58.8 -404.9 Q-54.65 -408.7 -53.55 -409.05 L-52.45 -408.95 Q-49.6 -410.9 -46.7 -410.9 L-43.7 -410.8 -43.7 -410.9 -43.7 -411.5 Q-42.65 -411.5 -39.65 -410.2 -37.0 -409.65 -34.65 -408.6 L-35.15 -408.5 Q-32.25 -407.75 -28.6 -407.75 L-26.35 -407.75 -23.35 -408.7 -9.55 -412.7 -8.05 -412.55 -7.85 -412.85 -7.6 -412.6 -7.4 -412.45 -6.6 -412.4 -5.6 -411.5 -5.2 -410.6 -2.3 -408.1 Q-1.25 -407.85 -0.55 -407.4 L1.55 -405.35 Q11.0 -405.35 14.1 -408.3 L14.45 -408.65 14.45 -408.7 Q14.2 -409.3 14.7 -410.45 15.3 -412.0 15.3 -413.05 15.3 -415.95 12.95 -419.4 10.1 -423.6 5.85 -423.6 L4.6 -423.55 3.7 -424.05 Q-1.6 -423.95 -3.85 -422.1 L-3.9 -422.25 Q-3.85 -423.3 -3.3 -424.55 1.85 -424.65 3.9 -426.95 5.2 -428.4 5.35 -431.55 L5.85 -431.1 15.1 -430.65 M71.85 -406.65 L70.4 -405.55 Q70.05 -407.75 71.15 -410.05 72.45 -412.5 75.15 -414.15 L79.0 -415.1 Q82.1 -415.7 82.95 -416.5 L85.0 -418.85 Q86.0 -420.35 86.0 -420.75 86.0 -421.6 84.45 -423.0 L82.0 -424.85 82.25 -425.05 84.1 -424.95 86.15 -422.8 87.85 -420.6 Q88.2 -420.15 89.5 -419.55 L90.9 -418.8 91.1 -417.9 91.1 -416.55 90.85 -413.55 Q90.4 -412.4 88.75 -410.75 87.7 -409.65 85.15 -408.2 82.6 -406.75 81.8 -406.75 L79.35 -406.85 77.55 -407.1 Q76.15 -407.4 75.8 -408.0 L73.15 -407.85 71.85 -406.65 M129.3 -423.6 Q130.55 -422.95 131.9 -421.1 L133.45 -418.45 Q134.3 -416.3 134.7 -415.85 L135.4 -415.2 138.05 -415.05 138.05 -414.7 137.85 -414.4 Q139.45 -414.25 140.35 -413.55 L142.4 -413.85 144.25 -414.5 144.4 -415.15 Q144.4 -415.7 144.55 -415.9 146.05 -413.85 146.35 -412.05 146.65 -410.1 147.25 -409.25 L146.85 -409.15 145.85 -409.25 144.3 -409.05 142.6 -408.65 142.1 -408.0 141.85 -407.15 Q141.25 -406.7 140.1 -406.7 L136.9 -406.8 Q136.9 -407.3 136.6 -407.4 130.1 -409.75 129.25 -412.85 128.75 -414.7 129.5 -418.5 129.5 -419.5 129.1 -420.65 L126.6 -420.35 125.9 -420.05 125.2 -420.15 126.1 -421.25 Q127.05 -422.2 128.65 -422.45 L129.05 -423.25 129.3 -423.6 M123.4 -419.95 Q121.8 -417.4 120.9 -417.05 L121.65 -418.65 Q122.45 -420.0 123.4 -419.95 M128.8 -396.45 Q130.9 -395.85 132.8 -393.95 131.15 -396.1 128.9 -396.45 L128.8 -396.45 M127.25 -396.3 L127.05 -396.25 127.1 -395.95 127.25 -396.3 M147.25 -407.65 L147.8 -407.3 147.45 -406.6 147.2 -406.5 146.8 -406.6 147.25 -407.65 M175.2 -410.1 L174.0 -410.9 173.8 -411.5 175.45 -411.35 Q175.9 -411.55 178.15 -413.2 179.5 -414.15 180.45 -414.15 L180.65 -413.2 178.75 -410.9 Q176.5 -410.25 175.9 -409.8 L175.2 -410.1 M196.05 -409.8 Q196.25 -408.95 196.25 -405.25 L196.3 -401.0 Q196.25 -399.75 195.7 -398.95 L193.35 -396.9 193.55 -397.3 192.7 -396.45 Q189.6 -393.4 188.9 -392.15 L188.35 -392.25 187.55 -391.5 187.0 -392.4 186.7 -392.95 186.6 -392.95 Q178.6 -392.05 175.65 -389.95 173.3 -387.45 171.1 -386.3 172.0 -387.4 173.15 -392.2 174.0 -395.95 177.05 -397.3 L177.15 -395.95 177.95 -395.5 180.25 -395.1 184.1 -395.6 Q187.5 -396.7 189.4 -399.8 191.05 -402.6 191.05 -405.45 191.05 -408.7 189.9 -411.15 188.15 -414.85 184.15 -415.6 185.5 -416.85 186.4 -417.05 189.15 -417.75 192.85 -414.75 195.45 -412.8 196.05 -409.8 M172.1 -382.7 L171.7 -382.25 170.5 -382.45 Q169.35 -382.7 169.25 -383.1 L169.55 -383.3 169.85 -383.55 Q171.75 -383.35 172.1 -382.7 M146.15 -372.7 Q146.05 -372.55 145.95 -372.55 145.75 -372.5 145.75 -373.2 L146.05 -374.0 147.1 -374.65 Q146.95 -373.4 146.15 -372.7 M148.45 -376.55 Q149.7 -377.85 150.5 -378.35 L155.55 -377.95 157.9 -377.3 Q159.45 -372.9 159.45 -371.0 159.45 -370.45 158.65 -369.5 L157.4 -368.4 156.75 -368.45 Q157.2 -371.85 156.55 -373.0 155.05 -375.85 148.55 -376.0 L148.45 -376.55" fill="#ff9a2b" fill-rule="evenodd" stroke="none"/>
    <path d="M167.0 -288.95 Q167.0 -284.2 159.2 -279.25 153.5 -275.65 139.5 -269.75 134.8 -267.75 129.35 -264.95 L121.3 -260.75 Q116.0 -258.3 109.2 -256.6 105.95 -255.25 99.9 -253.8 87.4 -250.8 73.15 -250.8 L68.65 -251.0 65.45 -251.45 60.7 -251.65 55.7 -252.05 44.7 -252.0 40.0 -251.3 34.3 -250.95 29.35 -251.05 25.65 -251.45 15.35 -253.5 6.5 -255.35 Q-20.65 -255.35 -33.05 -253.25 L-40.15 -251.8 -46.7 -251.15 -53.85 -251.25 -59.7 -251.6 -66.8 -252.55 Q-71.3 -253.4 -72.4 -254.25 L-77.8 -253.75 -89.95 -254.25 -92.35 -254.45 -95.05 -254.9 -108.8 -254.0 Q-109.85 -253.7 -110.15 -253.15 L-110.4 -252.0 Q-111.25 -252.0 -113.0 -253.45 L-121.9 -253.7 -129.0 -254.1 Q-142.15 -255.6 -156.55 -260.25 -166.2 -263.45 -170.0 -266.05 L-170.3 -266.0 Q-172.9 -265.75 -178.1 -268.4 -183.0 -270.9 -183.0 -271.65 -183.0 -272.55 -187.2 -276.05 -191.75 -279.75 -192.5 -282.0 L-194.05 -286.6 Q-195.05 -289.8 -195.05 -291.75 -195.05 -300.9 -185.5 -308.1 L-185.45 -307.2 Q-185.4 -306.65 -184.1 -306.65 -168.8 -306.65 -157.7 -318.45 -153.8 -322.6 -151.25 -327.35 -149.1 -331.35 -149.1 -333.1 -149.1 -333.95 -149.95 -335.15 -150.8 -336.4 -150.8 -337.2 L-150.8 -337.6 -150.65 -337.5 Q-149.85 -336.8 -149.1 -336.7 L-146.5 -336.7 -145.5 -337.1 -144.95 -337.15 -144.55 -337.55 -144.15 -337.9 Q-143.8 -338.15 -143.7 -338.65 L-143.5 -338.8 -139.0 -338.7 -134.4 -338.35 Q-126.4 -336.55 -124.7 -332.9 L-123.65 -330.0 Q-122.95 -328.3 -121.45 -327.2 L-117.3 -326.65 -113.45 -326.25 -108.2 -327.1 Q-104.35 -330.0 -100.2 -332.25 L-99.4 -332.65 -98.95 -333.25 Q-96.95 -335.25 -94.25 -336.55 -87.8 -339.75 -70.1 -342.1 L-63.15 -342.3 -60.1 -342.25 Q-56.35 -342.25 -52.2 -344.75 L-51.5 -345.4 Q-48.1 -348.15 -47.65 -348.9 -45.85 -351.7 -45.85 -355.75 L-39.85 -362.5 Q-38.25 -364.45 -37.65 -366.2 -37.65 -367.55 -37.8 -368.2 L-37.85 -368.35 -37.85 -369.95 -37.45 -369.35 -37.65 -370.25 Q-37.65 -371.25 -37.3 -371.05 L-36.95 -370.65 Q-36.35 -369.45 -34.65 -368.2 -31.2 -365.75 -25.55 -365.75 -24.6 -365.75 -21.3 -367.9 -18.1 -370.0 -16.95 -371.3 L-16.25 -370.85 -16.1 -370.35 Q-12.9 -373.25 -9.25 -371.8 -7.95 -371.3 -5.9 -370.0 L-2.25 -367.7 Q3.2 -364.85 5.35 -362.4 7.35 -360.05 7.35 -356.8 7.35 -352.7 5.1 -349.9 2.8 -347.1 2.8 -343.3 2.8 -341.25 3.05 -340.65 L3.3 -340.3 4.15 -339.75 Q15.95 -340.25 18.45 -341.9 19.05 -342.3 19.7 -343.35 20.2 -344.2 21.3 -344.65 25.6 -342.8 26.8 -338.75 27.35 -337.05 27.35 -332.4 L27.85 -332.4 Q31.6 -332.4 34.65 -334.2 L37.1 -336.0 37.3 -335.05 36.55 -334.25 38.35 -333.95 Q40.0 -333.95 45.15 -336.7 50.8 -339.7 52.4 -340.1 L56.45 -340.6 56.75 -340.75 Q64.45 -340.35 67.65 -338.55 69.1 -337.75 69.9 -336.3 L71.05 -334.9 70.85 -334.4 70.6 -334.6 Q71.35 -331.35 71.9 -330.65 73.4 -328.65 78.15 -328.0 94.8 -329.9 101.45 -335.8 106.35 -340.15 105.35 -346.15 L104.7 -346.15 Q105.0 -346.95 106.55 -347.75 L108.6 -348.75 Q115.55 -351.15 119.1 -344.05 121.3 -339.6 121.3 -335.8 L120.9 -333.1 120.5 -330.6 121.1 -330.5 116.75 -324.85 Q116.8 -322.05 117.6 -321.0 118.85 -319.4 124.55 -316.1 L129.75 -316.25 130.85 -317.25 131.45 -318.25 132.1 -318.4 Q132.35 -315.3 132.65 -314.7 133.45 -312.8 136.65 -312.2 148.95 -312.2 151.1 -315.1 L151.4 -315.75 151.65 -315.4 150.8 -314.1 155.25 -318.45 Q158.55 -321.3 159.7 -320.95 L157.4 -315.4 Q155.7 -311.05 155.7 -309.55 155.7 -303.8 156.75 -299.8 158.25 -294.2 161.75 -293.0 L164.25 -293.1 166.15 -293.05 Q166.1 -292.3 166.55 -291.05 L167.0 -288.95 M57.8 -361.8 Q57.8 -362.75 58.0 -362.65 L58.45 -362.35 58.45 -362.5 61.3 -362.35 61.5 -362.55 Q61.75 -362.55 61.75 -361.55 61.75 -360.0 59.6 -358.5 L55.05 -355.3 54.65 -355.6 Q58.25 -359.75 58.4 -360.45 L58.15 -361.0 Q57.8 -361.3 57.8 -361.8 M47.1 -354.2 L50.1 -354.5 50.3 -354.0 Q48.4 -353.25 44.25 -352.65 L47.1 -354.2 M23.1 -348.25 L21.5 -346.8 20.45 -345.55 19.9 -345.9 Q19.6 -346.25 19.6 -347.3 19.6 -348.05 20.65 -348.3 L23.1 -348.25 M-53.25 -343.75 L-52.9 -344.1 -55.95 -342.45 Q-54.7 -342.95 -53.25 -343.75" fill="#fef36b" fill-rule="evenodd" stroke="none"/>
  </g>
</svg>
