<?xml version="1.0" encoding="UTF-8" standalone="no"?>
<svg xmlns:ffdec="https://www.free-decompiler.com/flash" xmlns:xlink="http://www.w3.org/1999/xlink" ffdec:objectType="shape" height="194.15px" width="414.9px" xmlns="http://www.w3.org/2000/svg">
  <g transform="matrix(1.0, 0.0, 0.0, 1.0, 202.2, 422.45)">
    <path d="M1.55 -418.25 Q3.35 -417.4 5.35 -415.35 5.35 -414.75 4.5 -414.5 1.85 -415.5 0.8 -417.75 L1.2 -417.9 1.55 -418.25 M8.85 -406.45 L8.9 -407.6 Q9.1 -407.1 9.25 -407.1 L9.25 -407.3 14.0 -402.2 16.4 -402.3 Q16.45 -402.75 17.1 -403.1 18.05 -402.85 19.75 -404.0 21.2 -404.95 21.9 -406.0 L24.45 -406.45 33.5 -406.75 33.5 -407.0 36.9 -406.6 Q41.7 -406.35 46.15 -402.95 48.9 -400.9 52.85 -395.95 L52.5 -396.15 52.85 -395.65 Q53.75 -394.2 53.9 -392.45 54.65 -390.35 54.65 -388.0 54.65 -381.3 48.15 -377.85 L44.05 -375.7 43.45 -375.2 Q42.55 -374.6 42.55 -373.6 42.55 -372.95 43.2 -372.55 L45.6 -371.0 47.9 -370.55 55.5 -369.45 60.55 -369.95 Q64.0 -370.55 64.45 -370.9 78.55 -372.9 84.35 -375.35 86.05 -377.55 89.35 -380.9 L94.1 -385.75 93.25 -383.75 93.5 -381.7 Q95.15 -381.95 98.0 -383.55 100.6 -385.1 102.55 -385.1 L102.7 -385.1 Q111.45 -386.45 118.3 -384.8 L119.1 -384.65 119.9 -383.55 Q123.15 -380.2 128.9 -380.1 L129.4 -379.7 133.6 -380.45 Q137.4 -380.9 140.95 -382.45 L142.2 -382.95 142.3 -383.0 142.75 -383.2 142.25 -383.05 142.3 -383.2 144.85 -384.75 145.65 -385.3 Q147.55 -385.85 149.05 -386.7 L152.3 -388.75 153.65 -389.5 Q160.75 -394.65 160.75 -398.5 160.75 -399.85 160.25 -400.75 L160.2 -400.85 160.2 -400.95 159.65 -401.75 158.9 -402.6 157.7 -402.65 158.4 -402.7 157.65 -402.85 159.95 -403.05 160.15 -402.7 163.0 -402.85 Q166.35 -402.85 172.1 -392.7 172.1 -391.6 170.85 -388.35 169.45 -384.65 168.2 -383.55 167.75 -384.0 167.75 -385.75 L166.9 -386.0 166.05 -386.55 Q151.45 -384.05 143.45 -379.2 140.65 -377.55 136.9 -374.6 L130.3 -369.45 125.8 -365.2 125.75 -365.25 Q122.85 -361.1 122.85 -356.9 122.85 -354.65 124.3 -351.95 L124.35 -351.95 129.7 -344.9 132.1 -342.35 Q133.55 -342.0 134.3 -341.2 L135.55 -339.9 Q137.45 -338.5 146.0 -339.45 148.7 -341.15 150.5 -344.75 152.15 -347.95 152.6 -351.7 153.0 -355.15 152.2 -357.3 L154.0 -358.65 Q155.9 -360.0 158.05 -360.75 164.95 -363.4 173.4 -360.1 L173.55 -359.65 Q171.3 -360.4 168.9 -360.3 161.3 -360.05 161.3 -352.75 161.3 -351.05 162.15 -343.25 162.15 -340.25 161.55 -338.1 157.4 -335.6 154.55 -331.0 L153.45 -328.2 Q152.5 -325.95 151.9 -322.8 151.35 -320.0 151.35 -318.2 151.35 -314.15 153.6 -307.3 L154.7 -304.25 154.9 -304.0 157.25 -301.6 Q160.9 -298.45 166.9 -298.45 171.65 -298.45 175.45 -301.9 179.25 -305.4 183.75 -305.4 191.0 -305.4 194.45 -298.85 196.55 -294.85 196.55 -291.2 196.55 -287.45 194.55 -284.5 L193.55 -283.2 194.1 -283.1 198.5 -284.35 Q197.4 -282.8 191.25 -281.2 188.85 -279.6 185.4 -278.75 L174.65 -274.4 Q167.65 -271.55 161.95 -267.5 152.95 -261.2 149.7 -259.25 L139.25 -251.75 Q131.75 -246.45 125.0 -244.3 114.35 -240.1 107.5 -237.75 97.4 -234.15 83.65 -231.6 82.4 -230.95 81.1 -230.45 77.4 -229.05 72.35 -229.05 L63.4 -229.35 54.65 -230.15 50.9 -230.65 Q47.5 -231.2 47.25 -231.45 L43.0 -230.8 Q39.25 -230.8 38.65 -231.45 L34.4 -231.7 29.75 -232.3 22.2 -233.25 Q18.25 -233.85 17.9 -234.15 L-15.65 -233.85 Q-20.25 -233.4 -30.35 -231.0 -39.2 -228.9 -51.0 -228.3 L-54.7 -228.5 -58.65 -229.05 -79.25 -229.95 -86.7 -230.8 -90.8 -231.7 -94.05 -231.95 Q-97.35 -232.3 -97.5 -232.55 L-103.75 -233.15 -105.35 -233.5 -107.2 -233.4 Q-109.35 -233.4 -140.2 -239.5 -146.0 -240.55 -148.7 -242.15 L-155.35 -245.75 Q-158.85 -247.15 -165.45 -251.25 -171.7 -255.1 -175.95 -258.4 L-189.2 -268.15 Q-194.85 -272.35 -197.15 -274.8 -200.05 -277.9 -201.15 -281.45 -202.2 -284.95 -202.2 -291.05 -202.2 -295.1 -198.6 -301.15 L-196.1 -305.0 -196.1 -305.2 Q-196.1 -305.9 -194.25 -308.3 L-190.25 -313.65 Q-184.45 -321.8 -184.45 -327.3 -184.45 -329.35 -185.75 -332.05 L-187.1 -335.0 Q-187.1 -338.1 -181.85 -345.15 -176.95 -351.85 -174.5 -353.05 L-173.65 -353.5 Q-167.7 -360.45 -156.6 -363.4 -148.0 -365.75 -141.4 -364.95 L-139.9 -365.1 -139.1 -364.75 -135.05 -363.0 Q-134.45 -362.55 -132.6 -359.5 L-131.15 -357.65 -130.9 -356.95 Q-128.8 -355.6 -127.0 -355.6 -122.7 -355.6 -119.4 -356.95 L-119.1 -357.35 Q-112.0 -359.05 -107.3 -365.2 -103.2 -370.6 -102.4 -375.9 L-102.55 -380.6 -102.65 -380.75 -102.6 -380.75 -102.65 -381.25 -102.35 -381.25 -102.25 -380.8 -101.9 -380.9 Q-101.1 -380.05 -100.45 -378.8 -97.4 -380.75 -96.4 -383.3 -95.75 -384.8 -95.75 -388.1 -95.75 -388.8 -96.2 -389.5 L-96.85 -390.5 -99.1 -390.45 -101.15 -388.55 -101.25 -388.4 -101.35 -389.1 Q-78.2 -413.8 -78.2 -390.35 -78.2 -387.15 -80.45 -384.0 -81.8 -382.0 -85.5 -378.45 L-89.05 -374.8 Q-90.5 -372.05 -90.5 -370.85 -90.5 -369.15 -90.15 -368.25 L-88.8 -366.35 -87.0 -365.75 Q-84.75 -366.95 -83.0 -368.3 -79.25 -371.3 -74.85 -378.0 -73.6 -379.9 -72.2 -383.35 -70.9 -386.55 -70.5 -388.7 L-69.35 -394.0 Q-68.85 -395.6 -68.05 -396.6 L-70.5 -395.1 Q-69.25 -397.3 -66.1 -399.4 -62.35 -401.95 -58.85 -401.95 -40.25 -401.95 -36.2 -400.15 L-34.0 -398.6 Q-32.75 -397.65 -30.05 -397.3 -29.6 -394.35 -28.8 -392.7 L-25.25 -391.4 Q-23.0 -390.6 -21.7 -390.6 -3.3 -390.6 4.3 -397.05 8.85 -400.95 8.85 -406.45 M80.8 -413.75 L80.9 -414.25 84.1 -413.8 Q84.7 -411.85 85.7 -410.5 86.45 -409.45 86.45 -408.7 86.45 -406.05 85.8 -404.45 L85.45 -404.45 85.65 -405.45 85.9 -406.7 Q85.9 -408.25 84.2 -410.5 82.4 -412.85 80.75 -413.1 L80.8 -413.75 M76.4 -413.45 L76.3 -413.7 78.05 -413.8 78.1 -413.45 78.05 -413.25 77.3 -413.15 76.45 -413.25 76.4 -413.45 M69.5 -417.8 L70.45 -417.2 70.1 -416.85 69.5 -416.75 Q69.4 -416.75 69.4 -417.45 69.4 -418.55 69.5 -417.8 M68.5 -419.3 L67.25 -420.05 Q66.1 -420.8 65.85 -421.3 62.85 -421.2 61.95 -420.5 L60.45 -420.2 Q63.2 -422.3 64.75 -422.45 67.0 -422.7 68.7 -419.65 L68.5 -419.3 M206.0 -361.85 L208.55 -363.65 Q209.4 -364.3 209.4 -365.7 209.4 -367.5 207.1 -368.45 L201.85 -369.75 Q197.35 -370.7 195.15 -372.35 L203.55 -372.1 Q207.9 -372.1 210.1 -369.85 211.55 -368.4 211.55 -366.75 211.55 -366.25 212.05 -365.8 L212.7 -364.5 210.85 -364.25 209.3 -362.9 207.9 -361.8 206.0 -361.85 M193.35 -375.5 Q194.25 -374.5 194.4 -373.5 L194.55 -372.9 Q193.35 -374.0 193.0 -375.5 L193.35 -375.5" fill="#ff9a2b" fill-rule="evenodd" stroke="none"/>
    <path d="M98.2 -356.35 Q101.05 -358.4 105.35 -359.05 L105.55 -359.3 Q105.75 -359.35 105.75 -358.35 L104.55 -356.7 Q103.1 -355.05 102.35 -353.2 L101.35 -351.0 Q100.75 -349.75 100.6 -348.75 L99.55 -343.65 Q98.9 -340.55 98.9 -339.55 98.9 -335.05 101.25 -331.45 103.85 -327.35 108.85 -326.5 L109.35 -326.7 109.95 -326.9 118.75 -326.4 118.75 -326.25 121.85 -325.3 Q123.3 -324.8 124.5 -324.8 L127.1 -324.4 Q133.65 -324.4 140.95 -328.45 138.85 -326.3 138.1 -324.55 137.45 -323.0 137.0 -320.8 136.65 -318.85 136.65 -317.5 136.65 -313.9 139.65 -309.95 143.65 -304.6 144.7 -302.1 145.85 -299.25 149.25 -297.45 151.25 -296.35 155.8 -295.0 160.15 -293.75 161.7 -292.85 164.25 -291.35 164.25 -288.95 164.25 -288.1 161.1 -283.9 L161.1 -283.85 160.4 -283.0 157.4 -279.35 Q155.75 -277.8 151.8 -275.35 147.7 -272.35 142.6 -269.5 134.85 -265.1 126.65 -262.25 118.1 -258.85 108.1 -256.6 L108.0 -256.6 Q104.1 -254.95 100.9 -254.35 94.75 -253.1 57.6 -250.5 L42.2 -250.3 36.3 -250.45 31.8 -250.8 14.55 -253.65 -1.3 -256.3 -17.35 -255.65 Q-29.75 -254.7 -37.45 -252.65 -46.5 -250.25 -52.7 -249.5 L-54.0 -249.65 -55.55 -250.0 Q-86.25 -250.3 -86.7 -250.65 -97.8 -250.75 -104.65 -251.0 L-111.45 -251.45 -115.3 -251.65 -119.5 -252.05 Q-144.15 -253.8 -153.7 -256.6 L-154.95 -257.0 Q-169.9 -260.65 -180.95 -270.8 -191.55 -280.55 -191.55 -288.9 -191.55 -290.8 -189.2 -295.85 -186.9 -300.7 -185.1 -303.05 L-181.55 -306.65 Q-180.55 -307.6 -180.05 -308.5 L-177.15 -311.0 Q-171.5 -316.35 -170.7 -320.65 L-170.15 -323.25 -169.3 -324.0 Q-164.5 -328.15 -158.7 -330.15 -155.3 -331.35 -149.85 -332.45 -144.05 -333.65 -141.7 -334.4 -140.1 -334.9 -136.45 -337.3 -132.8 -339.7 -131.95 -339.9 -131.85 -339.75 -132.2 -339.55 -132.6 -339.2 -132.6 -338.25 -132.6 -337.45 -129.9 -334.55 -127.3 -331.8 -127.0 -331.8 L-124.1 -332.25 -123.75 -332.35 Q-125.7 -332.65 -125.7 -332.95 -117.25 -333.5 -113.55 -335.0 -111.7 -335.75 -107.65 -339.0 -106.95 -339.55 -106.15 -340.9 L-105.55 -341.95 -105.9 -340.75 Q-105.9 -340.05 -105.35 -339.4 -104.6 -338.5 -103.1 -338.25 L-103.1 -338.0 -99.2 -337.45 Q-98.3 -337.2 -97.3 -335.8 L-96.2 -334.1 -95.55 -333.7 Q-94.65 -333.3 -93.35 -333.3 -87.45 -333.3 -79.75 -335.0 L-73.8 -336.3 Q-69.6 -338.1 -65.95 -340.75 -58.85 -345.95 -57.05 -351.25 L-55.25 -356.3 Q-54.25 -359.35 -54.5 -361.55 -53.2 -363.5 -49.45 -365.25 -46.0 -366.85 -39.6 -368.65 L-38.1 -368.95 -36.1 -368.65 Q-36.15 -368.55 -36.55 -368.5 -36.85 -368.4 -36.85 -367.45 -36.85 -365.0 -30.75 -363.15 L-23.6 -361.25 -23.5 -361.25 -11.35 -360.65 -2.75 -361.25 1.4 -362.4 Q13.3 -366.35 13.6 -373.0 15.15 -372.0 16.35 -369.75 L18.35 -366.4 22.2 -365.3 23.55 -364.9 23.55 -365.35 Q28.25 -365.55 29.4 -362.35 29.75 -361.35 29.75 -357.15 29.75 -353.65 27.7 -352.05 26.35 -350.95 23.25 -350.4 L18.7 -349.35 Q16.65 -348.45 16.65 -346.1 16.65 -345.4 16.8 -345.0 L17.5 -344.7 Q18.3 -344.3 19.2 -342.9 L20.8 -342.55 23.95 -342.25 Q30.55 -342.25 37.45 -344.55 L41.55 -345.9 44.25 -346.0 43.3 -345.05 42.45 -344.2 47.3 -344.3 52.4 -344.65 Q63.6 -346.8 73.8 -350.6 83.4 -354.15 85.35 -356.55 L87.45 -354.95 Q88.5 -354.05 88.5 -353.45 L90.0 -353.35 90.0 -353.7 Q90.7 -353.7 90.85 -353.35 L93.05 -353.35 Q94.8 -353.9 98.2 -356.35 M-18.2 -360.1 L-12.0 -359.9 -12.2 -360.0 -18.2 -360.1 M-160.15 -259.15 L-165.8 -261.6 Q-161.75 -259.25 -157.85 -258.1 L-160.15 -259.15" fill="#fef36b" fill-rule="evenodd" stroke="none"/>
  </g>
</svg>
