<?xml version="1.0" encoding="UTF-8" standalone="no"?>
<svg xmlns:ffdec="https://www.free-decompiler.com/flash" xmlns:xlink="http://www.w3.org/1999/xlink" ffdec:objectType="shape" height="207.6px" width="394.35px" xmlns="http://www.w3.org/2000/svg">
  <g transform="matrix(1.0, 0.0, 0.0, 1.0, 203.4, 429.7)">
    <path d="M31.3 -400.4 L31.1 -400.75 Q33.95 -402.1 35.8 -400.75 37.2 -399.8 37.2 -398.55 37.2 -396.9 36.15 -394.65 L35.8 -394.65 Q36.45 -396.3 35.25 -398.2 33.9 -400.35 31.3 -400.4 M16.75 -399.5 L15.85 -397.95 15.2 -396.7 Q15.2 -395.55 16.25 -394.65 17.25 -393.75 17.25 -392.6 L17.0 -391.75 15.55 -390.35 Q15.8 -391.75 15.15 -392.8 14.4 -394.15 12.45 -394.2 L12.4 -394.9 Q12.65 -395.65 14.25 -397.3 L16.75 -399.5 M44.7 -405.35 L45.1 -405.35 48.05 -404.95 57.9 -405.9 Q58.35 -406.05 58.6 -406.35 58.75 -406.65 59.3 -406.7 L62.05 -406.6 64.75 -403.35 68.0 -399.2 70.05 -397.65 Q71.25 -396.8 71.25 -395.55 L71.5 -393.8 71.7 -391.9 Q71.7 -388.7 70.65 -387.35 70.05 -386.45 68.15 -385.75 64.9 -384.4 62.95 -381.35 64.2 -382.45 65.5 -383.0 64.9 -381.95 63.2 -380.65 L61.95 -379.6 61.45 -378.45 61.1 -378.2 60.85 -378.35 59.3 -375.85 57.9 -373.5 57.9 -371.45 58.35 -371.2 Q61.3 -371.75 69.65 -374.5 76.5 -376.75 87.85 -378.2 L89.9 -378.35 92.2 -378.65 97.65 -377.95 100.05 -377.65 100.15 -377.6 Q106.55 -381.7 109.75 -386.15 113.1 -390.85 113.1 -396.2 L112.95 -399.25 Q112.35 -400.7 109.65 -399.65 L112.1 -402.1 Q112.95 -402.7 114.2 -403.15 L116.35 -403.05 121.1 -403.0 Q125.55 -402.85 127.15 -402.15 L128.7 -401.05 130.6 -399.5 131.85 -397.85 132.0 -397.4 Q133.05 -394.1 133.05 -390.95 133.05 -386.4 130.75 -383.65 129.35 -381.95 125.45 -379.6 121.8 -377.5 120.0 -375.85 L119.8 -375.5 118.4 -373.0 Q117.55 -371.0 117.55 -367.95 117.55 -364.75 118.95 -362.0 L118.5 -361.45 119.05 -360.55 Q120.95 -358.5 128.55 -356.3 133.4 -355.0 142.35 -347.5 148.8 -346.8 151.45 -345.15 L152.4 -344.9 Q152.4 -344.6 152.2 -344.6 L152.4 -344.45 152.35 -344.15 151.4 -344.75 149.85 -344.65 Q148.1 -344.25 146.25 -340.15 144.6 -336.4 144.6 -334.35 144.6 -328.25 148.0 -322.7 152.85 -314.85 162.2 -316.4 163.0 -317.5 162.35 -318.85 162.35 -319.45 162.6 -319.55 L167.1 -320.95 Q171.05 -322.05 174.2 -322.4 L179.2 -322.35 Q184.85 -321.7 187.15 -318.7 L188.0 -317.05 188.4 -316.35 189.3 -314.7 190.0 -313.7 189.8 -313.35 189.75 -313.45 190.95 -308.75 Q189.65 -308.7 188.55 -308.15 185.95 -305.8 184.4 -302.65 L183.6 -301.0 181.75 -297.35 178.4 -291.05 Q176.2 -287.15 173.4 -284.85 L160.25 -272.5 Q153.65 -266.7 145.85 -262.55 140.5 -258.1 130.3 -252.3 121.8 -247.55 114.35 -244.05 L115.15 -244.25 115.3 -243.8 Q111.65 -242.75 107.1 -240.65 101.75 -238.25 99.25 -237.35 88.05 -233.35 64.65 -231.0 L52.05 -230.95 50.7 -230.9 46.3 -231.2 42.25 -231.8 38.1 -232.5 32.8 -232.7 27.3 -233.0 11.2 -232.85 -4.2 -230.55 Q-15.6 -229.0 -19.15 -227.7 L-31.3 -224.9 Q-44.95 -222.1 -53.45 -222.1 L-54.3 -222.2 -54.4 -222.25 -61.6 -222.6 -66.55 -222.85 -70.05 -223.2 -71.3 -223.3 -72.65 -223.65 -85.65 -224.1 -87.55 -224.2 -89.65 -224.55 -96.5 -225.85 -98.4 -225.95 -100.45 -226.3 -102.45 -226.4 -104.6 -226.75 -110.1 -226.95 -111.1 -226.75 -114.65 -227.1 -116.5 -227.2 -118.55 -227.5 -119.6 -227.65 -120.7 -227.95 -126.75 -228.4 Q-139.75 -230.6 -150.05 -235.5 L-150.4 -235.5 Q-153.3 -235.5 -159.5 -240.0 -164.3 -243.5 -167.0 -246.25 -169.5 -248.85 -173.1 -251.6 -175.85 -253.7 -178.4 -255.25 L-178.9 -255.2 Q-184.2 -255.2 -195.5 -265.0 -197.55 -267.5 -199.1 -270.65 -200.75 -274.0 -201.05 -276.3 -202.2 -285.4 -202.65 -291.6 L-202.95 -293.55 -203.4 -304.35 Q-203.4 -313.3 -200.05 -319.35 -195.85 -327.05 -185.75 -331.65 L-183.1 -331.55 -181.75 -330.0 Q-180.95 -329.0 -179.75 -329.0 L-176.25 -330.4 -176.15 -330.55 Q-171.75 -334.75 -168.3 -338.55 L-159.85 -345.35 Q-154.1 -350.0 -154.1 -353.2 -154.1 -354.35 -155.35 -355.8 L-157.45 -356.55 -157.5 -356.55 -158.4 -357.0 -158.25 -357.25 -158.1 -357.35 -156.7 -356.95 -156.4 -356.8 -152.05 -357.25 -150.95 -357.6 -149.4 -358.1 -146.5 -359.7 Q-144.8 -360.3 -143.4 -361.3 L-140.55 -363.2 Q-133.3 -367.8 -129.0 -371.35 -122.25 -377.1 -112.6 -381.4 -103.55 -385.45 -99.05 -385.35 L-95.05 -385.5 -94.7 -385.8 Q-86.65 -385.3 -83.9 -382.85 -83.0 -382.1 -82.45 -380.35 -79.7 -377.95 -74.4 -377.95 L-67.5 -378.2 -62.7 -379.2 -61.0 -379.6 -61.35 -379.6 -61.05 -379.75 Q-60.45 -380.05 -59.95 -380.3 -48.15 -381.75 -42.35 -385.2 -37.05 -388.4 -37.05 -393.1 -37.05 -395.15 -38.05 -397.2 -39.35 -399.9 -41.85 -400.75 L-44.6 -400.35 -44.95 -400.45 -45.4 -400.75 Q-43.6 -403.1 -39.5 -404.0 -35.85 -404.8 -35.15 -406.7 L-33.6 -406.95 -28.35 -406.8 -29.15 -406.7 -26.7 -406.5 -26.7 -406.6 -26.4 -406.45 -25.8 -406.35 Q-21.85 -405.9 -19.05 -404.95 L-15.15 -403.55 -14.6 -403.15 -13.95 -402.7 -13.95 -402.6 -13.3 -402.2 -10.2 -399.7 -6.85 -396.6 -8.35 -394.55 -8.6 -392.9 Q-8.6 -389.75 -5.15 -386.15 -1.15 -382.1 4.45 -381.6 L5.35 -381.95 9.3 -383.25 12.65 -384.75 14.1 -385.4 14.55 -385.75 14.5 -385.55 14.95 -385.75 Q14.7 -385.05 13.55 -384.25 L14.05 -383.8 15.1 -383.7 15.1 -384.35 16.9 -384.1 18.5 -383.7 Q23.7 -383.5 25.95 -383.75 28.1 -384.05 30.0 -384.9 31.35 -384.8 31.5 -384.55 29.75 -384.4 28.65 -382.65 28.05 -381.7 27.9 -380.7 43.65 -383.25 49.75 -386.65 55.3 -389.65 55.3 -394.85 55.3 -397.95 53.15 -401.0 51.2 -403.7 48.2 -404.55 L46.6 -404.8 45.75 -404.95 45.5 -404.95 44.45 -404.95 44.7 -405.35 M170.05 -338.8 Q169.8 -338.05 168.6 -337.35 L167.05 -336.95 167.9 -339.0 168.4 -341.0 Q168.4 -341.85 164.5 -346.9 167.4 -345.3 168.6 -344.0 170.1 -342.4 170.1 -340.3 L170.05 -338.8 M151.35 -372.5 L153.65 -372.8 155.35 -372.7 Q153.0 -372.65 151.55 -371.55 150.15 -370.55 148.35 -367.1 L147.65 -367.25 147.65 -369.3 148.4 -370.2 149.7 -371.65 150.45 -372.05 151.35 -372.5 M161.9 -371.65 L161.3 -371.45 158.45 -372.95 160.95 -372.5 161.9 -371.65 M-53.45 -428.7 Q-52.85 -427.8 -52.0 -425.65 L-51.25 -423.55 Q-51.25 -422.9 -51.85 -421.6 L-52.75 -420.05 -53.3 -420.15 Q-53.9 -420.25 -53.9 -420.4 -58.95 -419.15 -62.5 -415.65 -62.75 -416.35 -62.05 -417.75 L-60.75 -420.4 -59.5 -420.65 Q-58.5 -421.65 -57.55 -423.2 -56.5 -424.9 -56.5 -425.7 -56.5 -426.5 -57.4 -427.0 L-59.15 -427.45 -56.2 -429.55 Q-54.9 -430.1 -53.45 -428.7 M-67.2 -422.3 L-65.1 -424.8 -63.9 -425.25 Q-63.8 -424.7 -66.15 -422.25 L-67.2 -422.3 M-66.75 -411.05 Q-73.9 -407.0 -75.05 -402.85 L-75.5 -402.75 -74.9 -405.1 -73.95 -408.0 Q-72.15 -411.45 -67.4 -411.35 -66.95 -411.45 -66.75 -411.05 M-84.05 -382.15 L-84.45 -382.65 -83.7 -381.6 -84.05 -382.15" fill="#ff9a2b" fill-rule="evenodd" stroke="none"/>
    <path d="M100.5 -356.65 L100.45 -354.15 100.25 -352.1 Q100.25 -349.35 100.7 -348.65 101.4 -347.5 105.15 -344.95 106.3 -344.15 107.2 -341.7 L108.6 -337.85 Q109.15 -336.65 109.05 -334.4 108.9 -331.65 109.05 -330.7 109.75 -326.25 117.8 -323.65 118.7 -323.4 118.95 -323.15 L118.85 -323.05 121.5 -322.8 125.1 -323.0 125.15 -322.35 124.95 -321.4 Q124.95 -318.7 129.25 -315.7 L133.0 -313.35 Q136.7 -311.8 139.1 -308.15 141.65 -304.15 145.7 -302.55 L153.35 -303.2 156.35 -304.1 156.5 -303.9 156.55 -303.2 155.9 -301.2 Q155.25 -299.7 155.25 -299.25 L155.35 -298.15 Q155.6 -297.65 156.85 -296.5 158.7 -295.8 159.85 -296.05 L161.4 -296.5 Q161.65 -297.05 161.65 -296.2 L161.25 -293.75 160.85 -291.15 Q160.85 -289.7 157.35 -283.4 154.05 -277.5 153.2 -276.7 L144.9 -269.5 Q140.15 -265.85 135.15 -263.5 132.2 -261.75 128.15 -260.1 122.15 -257.65 116.05 -256.45 L109.1 -254.65 102.35 -252.8 Q93.25 -250.6 77.05 -249.45 L63.7 -249.45 63.2 -249.55 48.6 -249.8 38.2 -250.5 Q21.8 -250.65 16.2 -251.0 L12.45 -251.45 9.2 -251.9 -9.5 -251.9 -25.9 -250.8 -39.4 -250.6 -40.65 -250.6 -44.25 -250.2 -59.25 -248.45 -71.75 -248.45 -77.95 -249.0 -86.9 -249.8 -100.7 -249.85 -106.75 -249.4 -106.85 -249.4 -108.05 -249.35 -112.25 -249.1 -127.4 -251.3 -140.45 -253.55 Q-142.2 -253.55 -143.45 -252.95 L-144.75 -252.3 -149.55 -253.15 -154.25 -254.15 Q-156.55 -254.5 -158.05 -255.45 L-158.25 -255.55 Q-161.55 -256.65 -170.1 -261.8 -173.2 -263.55 -176.35 -266.0 -179.5 -268.45 -180.8 -270.1 L-184.6 -274.3 -187.95 -278.4 Q-191.8 -285.1 -191.8 -286.65 -191.8 -290.35 -190.5 -293.25 -189.7 -295.1 -188.15 -297.2 L-188.6 -296.95 -184.45 -305.5 -184.35 -304.15 Q-184.25 -303.3 -183.3 -302.9 L-180.45 -303.0 Q-177.15 -304.45 -174.65 -307.65 -173.25 -309.4 -170.95 -313.45 -168.9 -317.05 -167.55 -318.35 -165.5 -320.45 -162.7 -320.45 -162.05 -320.45 -161.2 -319.95 -160.15 -319.2 -159.45 -319.0 -156.05 -318.0 -152.65 -317.9 -146.55 -316.8 -136.8 -319.95 -129.2 -322.35 -124.7 -325.25 -121.45 -327.3 -118.45 -330.1 L-115.35 -333.0 -114.55 -334.8 Q-113.55 -336.8 -113.55 -338.7 -113.55 -340.55 -115.1 -341.8 -116.55 -342.95 -120.05 -344.15 -118.15 -345.1 -115.9 -347.25 -113.75 -349.3 -113.15 -350.65 -112.5 -351.85 -111.85 -353.95 -111.1 -355.75 -109.35 -357.25 -107.35 -358.9 -103.85 -360.15 L-96.4 -362.15 Q-89.1 -363.75 -83.2 -361.7 -81.35 -361.0 -79.5 -359.95 L-77.55 -358.75 Q-73.0 -359.1 -71.8 -359.55 L-71.2 -359.45 -70.85 -359.45 Q-71.9 -358.05 -71.9 -356.15 -71.9 -354.1 -70.9 -352.85 -69.7 -351.25 -66.5 -350.1 L-66.4 -349.85 -66.75 -349.7 -64.5 -349.6 Q-58.35 -349.6 -55.0 -350.65 L-51.55 -351.7 -45.4 -356.15 -44.45 -355.05 Q-44.1 -354.35 -44.1 -352.25 -44.1 -351.85 -44.35 -351.4 L-40.65 -350.55 -44.5 -351.2 -44.55 -351.15 -40.1 -350.4 -38.7 -350.15 -38.8 -350.15 -38.35 -350.05 -33.35 -349.35 -32.9 -349.95 -27.05 -349.65 Q-24.2 -349.45 -21.6 -349.6 -20.05 -350.2 -16.4 -352.95 -14.3 -354.6 -12.7 -355.3 L-12.5 -357.0 -12.45 -357.15 -13.55 -358.4 Q-14.6 -359.65 -16.4 -360.8 L-24.25 -360.2 -27.3 -360.35 -27.5 -361.7 -29.15 -361.95 -31.2 -362.15 Q-35.0 -362.15 -37.4 -361.4 L-39.8 -360.35 -41.05 -360.5 -38.8 -362.35 Q-36.8 -364.05 -34.75 -365.05 -31.65 -366.6 -27.8 -367.0 L-27.75 -367.05 -27.7 -367.0 Q-24.55 -367.3 -20.95 -366.85 L-15.95 -367.15 -12.4 -367.4 -12.0 -367.4 -12.1 -367.3 Q-10.6 -366.95 -9.75 -365.6 -9.05 -364.55 -8.6 -362.6 L-8.55 -362.3 -7.95 -361.85 Q-5.55 -360.0 -5.55 -356.15 L-5.55 -355.75 Q-3.35 -354.6 -2.2 -352.8 L-1.8 -351.85 -0.15 -350.9 Q15.15 -351.85 20.45 -354.3 22.45 -355.25 23.7 -356.7 L25.65 -359.35 23.85 -359.65 Q22.65 -359.9 22.45 -360.2 L23.8 -360.75 27.65 -362.0 Q28.05 -363.1 30.1 -364.85 L31.55 -366.0 31.75 -366.1 33.45 -367.05 34.0 -366.95 34.55 -367.35 Q35.0 -367.65 35.3 -367.75 36.9 -367.25 38.0 -365.2 39.0 -363.45 39.0 -362.2 L38.85 -360.45 38.7 -360.45 39.05 -358.7 Q39.25 -357.5 41.85 -354.35 38.4 -354.2 36.45 -352.45 34.95 -351.1 34.95 -349.6 34.95 -346.25 40.0 -343.55 L40.65 -343.25 40.95 -343.85 40.5 -345.2 Q40.5 -345.55 43.8 -347.0 46.25 -348.25 57.2 -348.55 58.15 -348.45 58.35 -348.2 57.55 -347.65 56.55 -347.55 L56.35 -347.6 Q56.1 -347.55 56.1 -347.0 56.1 -346.05 57.6 -344.7 59.45 -343.05 61.95 -342.75 72.45 -341.4 74.5 -338.8 L79.8 -338.2 81.05 -337.2 Q84.0 -338.7 84.7 -340.55 L84.95 -343.9 Q84.95 -347.1 83.55 -348.6 81.25 -351.1 73.6 -352.35 L73.1 -352.4 Q72.55 -352.55 72.55 -352.7 79.5 -353.1 82.4 -354.3 84.05 -354.95 85.7 -356.4 L92.85 -356.75 100.5 -356.65 M59.5 -350.25 L60.5 -351.7 61.5 -353.15 Q64.1 -354.85 65.25 -355.0 L69.65 -354.5 Q70.4 -353.8 70.4 -352.5 67.6 -352.4 64.0 -351.3 61.3 -350.55 60.25 -349.95 L59.5 -350.25 M-27.1 -366.6 L-23.25 -366.75 -27.2 -366.75 -27.1 -366.6" fill="#fef36b" fill-rule="evenodd" stroke="none"/>
  </g>
</svg>
