<?xml version="1.0" encoding="UTF-8" standalone="no"?>
<svg xmlns:ffdec="https://www.free-decompiler.com/flash" xmlns:xlink="http://www.w3.org/1999/xlink" ffdec:objectType="shape" height="127.7px" width="443.8px" xmlns="http://www.w3.org/2000/svg">
  <g transform="matrix(1.0, 0.0, 0.0, 1.0, 259.45, 393.6)">
    <path d="M166.7 -376.3 L166.95 -375.35 Q166.15 -374.25 164.8 -373.1 162.35 -372.5 161.65 -372.0 L160.85 -372.3 159.5 -373.1 159.3 -373.7 161.15 -373.55 164.15 -375.35 Q165.65 -376.3 166.7 -376.3 M173.3 -379.2 Q176.35 -379.9 180.5 -376.95 183.35 -375.0 184.05 -372.05 184.25 -371.15 184.25 -367.5 L184.35 -363.25 Q184.3 -362.0 183.7 -361.25 L181.1 -359.25 181.25 -359.65 180.3 -358.75 Q176.85 -355.75 176.1 -354.55 L175.5 -354.6 174.55 -353.85 174.0 -354.75 173.65 -355.3 173.55 -355.3 Q164.65 -354.45 161.35 -352.35 158.75 -349.9 156.35 -348.7 157.3 -349.8 158.55 -354.6 159.5 -358.3 162.9 -359.65 L163.05 -358.3 163.9 -357.85 166.45 -357.45 170.75 -357.9 Q174.55 -359.0 176.65 -362.15 178.5 -364.85 178.5 -367.65 178.5 -370.9 177.2 -373.35 175.3 -377.0 170.8 -377.75 172.35 -379.0 173.3 -379.2 M183.55 -306.6 Q175.85 -303.7 172.85 -296.45 170.25 -290.35 171.55 -283.15 171.85 -281.5 169.35 -276.95 166.45 -271.75 166.25 -270.65 166.1 -269.9 166.5 -265.9 L-259.45 -265.9 -256.75 -271.3 -249.75 -283.15 -249.3 -283.35 Q-248.45 -283.25 -248.45 -283.0 L-248.55 -281.2 Q-248.55 -280.25 -246.35 -279.2 L-242.7 -277.6 Q-232.9 -277.6 -223.5 -287.9 -219.8 -291.9 -217.45 -296.3 -215.15 -300.4 -215.15 -302.85 -215.15 -306.0 -215.45 -306.75 -216.1 -308.95 -219.0 -311.25 -220.1 -311.4 -223.65 -309.8 -227.25 -308.1 -227.65 -308.1 -227.1 -313.85 -223.3 -318.45 -219.1 -323.65 -212.0 -325.35 L-211.85 -325.5 Q-192.15 -331.35 -188.3 -340.3 L-186.4 -340.05 -185.4 -339.2 Q-177.85 -340.05 -173.7 -344.3 -173.0 -344.95 -171.25 -347.35 -170.05 -348.8 -169.25 -348.95 -169.05 -348.05 -169.7 -346.15 L-170.5 -343.0 Q-170.75 -339.4 -163.45 -338.45 L-160.9 -335.35 -155.2 -330.05 Q-152.3 -327.1 -151.2 -325.0 L-151.15 -324.95 -151.15 -324.85 -151.1 -324.8 -150.8 -324.0 -150.7 -323.8 -150.55 -322.75 -150.55 -322.25 -150.6 -321.35 -151.0 -321.05 -151.65 -321.05 -153.15 -319.3 Q-154.4 -317.7 -154.4 -316.85 -154.4 -315.45 -153.85 -314.8 L-152.8 -313.85 Q-151.0 -313.15 -150.55 -312.75 -138.25 -313.1 -133.75 -315.0 -133.5 -315.05 -131.0 -316.4 -129.65 -317.2 -127.95 -317.4 L-127.7 -316.4 -127.95 -315.95 Q-120.95 -317.65 -117.45 -320.35 -114.1 -322.95 -112.8 -327.45 -110.95 -334.0 -110.4 -335.0 -108.05 -339.15 -101.8 -341.8 L-101.35 -341.7 Q-100.9 -341.85 -100.9 -343.2 -100.9 -344.1 -102.6 -347.9 -104.25 -351.75 -104.85 -352.4 L-109.2 -353.4 -113.1 -353.55 -113.55 -353.0 -115.25 -353.0 -114.75 -353.55 -117.1 -353.85 Q-116.85 -354.3 -113.85 -355.75 L-113.3 -355.65 Q-108.9 -357.45 -103.55 -361.7 L-104.8 -361.85 -103.55 -363.45 -103.5 -363.55 -102.25 -364.7 -99.4 -367.2 Q-94.8 -370.95 -93.55 -371.3 L-92.35 -371.2 Q-89.2 -373.1 -85.95 -373.1 L-82.6 -373.0 -82.65 -373.1 -82.65 -373.7 Q-81.4 -373.7 -78.1 -372.4 -75.15 -371.9 -72.55 -370.8 L-73.15 -370.75 Q-69.85 -370.0 -65.8 -370.0 L-63.3 -370.0 -60.0 -370.9 -44.6 -374.9 -42.95 -374.75 -42.75 -375.05 -42.45 -374.8 -42.25 -374.6 -41.35 -374.6 -40.2 -373.7 Q-39.9 -373.35 -39.75 -372.8 L-36.6 -370.35 -34.6 -369.6 -32.3 -367.65 Q-21.8 -367.65 -18.3 -370.55 -18.1 -370.65 -17.95 -370.85 L-17.95 -370.9 Q-18.2 -371.5 -17.65 -372.7 -17.0 -374.15 -17.0 -375.2 -17.0 -378.15 -19.6 -381.5 -22.8 -385.75 -27.5 -385.75 L-28.9 -385.65 -29.9 -386.15 Q-35.8 -386.05 -38.3 -384.2 L-38.35 -384.35 Q-38.3 -385.4 -37.65 -386.65 -31.95 -386.75 -29.7 -389.0 -28.2 -390.45 -28.05 -393.6 L-27.5 -393.15 -17.2 -392.65 -7.95 -385.75 Q-2.95 -381.8 -2.75 -378.15 L-5.5 -377.45 -10.25 -366.2 -11.55 -363.5 -11.5 -363.25 Q-11.5 -361.7 -12.65 -358.25 -14.1 -353.85 -15.85 -353.25 -19.9 -352.25 -21.95 -348.5 L-22.3 -347.65 Q-21.5 -345.05 -19.55 -342.15 -17.5 -339.0 -14.85 -337.45 L-13.65 -337.2 -5.7 -335.65 3.55 -335.65 Q5.35 -336.2 6.5 -337.15 L7.25 -338.2 8.2 -339.2 8.8 -340.45 Q9.3 -341.4 10.1 -341.45 L9.25 -338.65 9.75 -337.4 Q9.95 -337.1 11.4 -336.7 L12.8 -336.15 21.75 -336.85 26.15 -337.25 28.5 -338.25 30.55 -339.1 32.4 -342.5 32.4 -342.7 Q32.4 -345.8 32.05 -346.3 31.1 -347.55 25.95 -349.75 25.8 -350.05 25.6 -351.1 L24.75 -352.75 16.4 -352.5 16.35 -352.4 16.2 -352.4 Q14.95 -352.3 13.4 -350.5 L12.55 -349.3 14.0 -352.0 14.2 -352.4 14.0 -352.4 14.2 -352.75 Q15.0 -353.95 15.0 -355.3 L15.0 -355.55 15.35 -356.55 17.95 -357.3 20.9 -359.0 Q22.4 -359.95 22.9 -361.55 L23.45 -363.9 Q25.0 -364.3 26.2 -364.9 27.35 -365.4 27.35 -365.6 L29.15 -363.65 Q30.25 -362.5 32.2 -361.35 L38.2 -361.15 Q40.5 -359.8 41.35 -358.0 L42.25 -355.25 43.5 -352.5 Q44.15 -350.95 44.15 -349.6 44.15 -346.3 38.6 -341.35 L37.1 -339.95 36.5 -338.6 35.8 -337.2 35.8 -337.15 35.65 -336.8 36.3 -336.25 Q38.7 -334.6 39.25 -334.6 41.05 -334.6 45.9 -337.55 50.75 -340.5 53.1 -340.5 L58.0 -340.3 58.35 -340.25 58.55 -340.35 58.9 -340.7 Q62.1 -340.45 63.2 -339.4 L63.35 -339.25 Q64.55 -338.75 65.75 -337.6 67.4 -336.2 69.45 -335.65 74.6 -336.7 78.9 -340.8 83.4 -345.1 83.4 -348.6 83.4 -349.9 82.85 -351.0 L81.95 -352.6 80.75 -352.15 80.05 -351.95 77.6 -352.15 78.9 -352.95 78.55 -353.0 78.85 -353.4 79.1 -353.65 80.3 -353.55 81.25 -353.95 81.35 -354.0 Q83.9 -354.95 88.0 -356.1 97.5 -358.7 107.2 -359.5 L107.25 -359.5 107.45 -359.5 109.15 -359.6 110.1 -359.65 112.95 -357.15 113.85 -356.5 113.85 -356.45 115.85 -354.1 118.0 -350.65 117.75 -350.75 118.15 -350.0 Q118.95 -348.5 118.95 -346.45 L119.35 -344.75 118.0 -344.7 Q115.55 -344.7 115.05 -342.45 L115.05 -340.15 115.15 -339.1 115.25 -339.05 Q119.95 -337.4 121.85 -336.05 L123.1 -335.05 123.75 -335.0 127.75 -329.05 Q128.85 -327.25 129.25 -325.5 L129.7 -324.8 130.0 -322.7 Q130.4 -320.15 130.25 -319.1 129.7 -316.5 127.1 -314.05 124.7 -311.75 124.7 -310.9 L124.7 -310.85 Q123.3 -309.2 123.3 -306.15 123.3 -304.25 123.75 -302.95 124.05 -302.75 124.45 -302.6 L129.85 -302.0 130.75 -301.95 131.6 -302.55 Q136.4 -305.4 141.5 -305.1 144.6 -306.4 150.75 -306.05 L156.0 -308.1 Q162.1 -310.65 162.1 -314.05 L162.0 -315.35 161.6 -315.95 159.3 -316.0 159.3 -317.4 159.6 -317.35 159.8 -317.6 161.85 -317.05 174.9 -319.1 Q175.75 -319.0 176.3 -318.05 L178.5 -315.15 Q179.75 -314.3 181.5 -311.4 183.55 -308.3 183.55 -306.6 M126.4 -376.65 Q126.6 -376.8 126.6 -377.3 L126.8 -378.05 Q128.45 -376.0 128.75 -374.25 129.1 -372.35 129.8 -371.5 129.65 -371.35 129.35 -371.35 L128.2 -371.5 126.5 -371.3 124.65 -370.85 124.05 -370.2 123.8 -369.4 Q123.1 -368.95 121.85 -368.95 L118.25 -369.05 117.95 -369.65 Q110.7 -371.95 109.75 -375.05 109.2 -376.85 110.05 -380.65 110.05 -381.65 109.55 -382.75 L106.85 -382.45 106.0 -382.15 105.25 -382.3 106.25 -383.35 Q107.3 -384.35 109.05 -384.55 L109.5 -385.3 109.85 -385.75 Q111.25 -385.05 112.7 -383.2 L114.4 -380.6 Q115.35 -378.45 115.8 -378.0 L116.6 -377.35 119.55 -377.2 119.55 -376.85 119.3 -376.6 Q121.1 -376.45 122.1 -375.75 L124.4 -376.0 126.4 -376.65 M130.35 -369.55 L130.0 -368.85 129.75 -368.75 Q129.45 -368.65 129.3 -368.85 L129.8 -369.85 130.35 -369.55 M103.25 -382.1 Q101.45 -379.55 100.45 -379.2 L101.3 -380.8 Q102.2 -382.15 103.25 -382.1 M107.3 -358.6 L107.35 -358.3 107.55 -358.6 107.3 -358.6 M109.25 -358.75 Q111.6 -358.2 113.7 -356.35 111.85 -358.45 109.4 -358.75 L109.25 -358.75 M155.65 -344.9 Q154.35 -345.2 154.2 -345.55 L154.6 -345.75 154.95 -346.0 Q157.05 -345.8 157.4 -345.15 L156.95 -344.7 155.65 -344.9 M142.45 -332.05 Q141.7 -331.2 141.1 -331.0 L140.35 -331.05 Q140.85 -334.4 140.15 -335.55 138.45 -338.35 131.2 -338.55 L131.1 -339.05 133.35 -340.8 139.0 -340.45 141.6 -339.8 Q143.35 -335.45 143.35 -333.55 143.35 -333.0 142.45 -332.05 M128.6 -335.3 L128.35 -335.1 Q128.1 -335.05 128.1 -335.75 128.1 -336.25 128.45 -336.55 L129.6 -337.2 Q129.45 -335.9 128.6 -335.3 M63.7 -382.7 Q64.1 -382.3 65.55 -381.7 66.95 -381.25 67.1 -380.9 L67.35 -380.05 67.35 -378.7 Q67.35 -376.5 67.0 -375.7 66.55 -374.6 64.7 -373.0 63.5 -371.9 60.7 -370.45 57.85 -369.0 57.0 -369.0 L54.25 -369.1 52.25 -369.35 Q50.7 -369.6 50.3 -370.2 L47.35 -370.05 45.9 -368.9 44.3 -367.8 Q43.9 -370.0 45.15 -372.25 46.6 -374.7 49.6 -376.35 L53.9 -377.25 Q57.35 -377.85 58.3 -378.65 L60.5 -381.0 Q61.65 -382.45 61.65 -382.9 61.65 -383.7 59.95 -385.1 L57.2 -386.95 57.45 -387.15 59.55 -387.0 61.8 -384.9 63.7 -382.7" fill="#ff9a2b" fill-rule="evenodd" stroke="none"/>
  </g>
</svg>
