<?xml version="1.0" encoding="UTF-8" standalone="no"?>
<svg xmlns:ffdec="https://www.free-decompiler.com/flash" xmlns:xlink="http://www.w3.org/1999/xlink" ffdec:objectType="shape" height="530.05px" width="438.1px" xmlns="http://www.w3.org/2000/svg">
  <g transform="matrix(1.0, 0.0, 0.0, 1.0, 58.2, 774.45)">
    <path d="M367.2 -770.15 L376.8 -771.3 376.8 -771.9 Q379.6 -771.6 379.9 -770.95 311.75 -757.8 265.15 -735.1 256.15 -730.75 248.0 -726.0 237.45 -719.9 228.25 -713.25 207.7 -698.35 191.4 -678.85 181.95 -667.55 167.4 -645.65 159.85 -634.25 152.4 -612.9 L143.4 -587.8 139.9 -579.1 Q135.2 -568.8 134.8 -554.6 134.65 -550.45 134.9 -545.95 137.4 -523.6 137.4 -512.55 137.4 -490.1 127.6 -469.4 120.05 -453.45 104.65 -435.1 86.5 -414.9 78.2 -405.2 63.75 -388.25 58.05 -375.35 L49.5 -358.0 Q43.8 -346.6 41.8 -339.7 L37.45 -322.3 Q34.35 -311.25 29.9 -305.05 L17.25 -287.45 Q9.0 -276.6 2.4 -270.65 L-5.05 -267.65 Q-12.3 -264.9 -13.2 -264.1 -15.65 -261.9 -19.05 -259.35 -22.4 -256.85 -23.2 -256.6 -27.5 -255.1 -30.55 -252.95 L-35.2 -249.5 Q-41.1 -245.7 -57.55 -244.4 -57.85 -245.35 -57.85 -249.1 L-56.1 -257.8 -56.0 -258.1 -57.55 -257.85 Q-58.0 -259.15 -58.1 -260.4 L-58.2 -263.95 Q-58.2 -269.3 -53.75 -280.65 -50.65 -293.85 -39.35 -311.55 L-38.55 -313.15 Q-37.0 -316.1 -34.2 -319.25 -18.85 -341.4 1.3 -360.55 L29.25 -386.1 Q45.25 -400.55 49.55 -405.55 55.75 -412.8 62.75 -429.2 L64.85 -434.1 Q67.5 -444.45 68.6 -454.6 68.2 -462.35 65.8 -472.5 63.35 -482.8 59.9 -491.6 58.75 -494.55 54.45 -500.75 50.3 -506.6 49.45 -509.4 48.15 -513.25 48.05 -520.1 L48.2 -528.6 Q48.2 -541.6 50.9 -554.6 54.25 -571.15 62.0 -587.8 65.75 -595.95 70.6 -604.15 89.85 -636.8 123.3 -666.1 152.45 -691.65 184.8 -708.55 L188.6 -710.5 184.9 -709.7 Q196.0 -716.05 218.05 -726.0 L220.25 -727.0 Q230.5 -731.6 237.8 -735.1 247.25 -739.6 251.8 -742.2 L267.6 -752.35 Q277.45 -758.85 283.95 -761.9 L292.1 -766.45 Q297.95 -769.7 302.75 -771.45 317.5 -776.8 335.2 -772.55 L345.55 -771.3 367.1 -770.35 367.2 -770.15" fill="#7e7e7e" fill-opacity="0.44705883" fill-rule="evenodd" stroke="none"/>
  </g>
</svg>
