<?xml version="1.0" encoding="UTF-8" standalone="no"?>
<svg xmlns:ffdec="https://www.free-decompiler.com/flash" xmlns:xlink="http://www.w3.org/1999/xlink" ffdec:objectType="shape" height="602.85px" width="381.95px" xmlns="http://www.w3.org/2000/svg">
  <g transform="matrix(1.0, 0.0, 0.0, 1.0, 243.65, 676.1)">
    <path d="M6.5 -403.75 L6.5 -403.25 Q7.25 -392.9 8.9 -391.25 9.7 -391.6 10.45 -392.2 L11.15 -392.65 11.55 -403.75 11.5 -396.5 Q11.55 -389.2 14.95 -385.7 15.45 -384.8 15.45 -383.15 L15.55 -380.4 Q15.95 -377.15 19.95 -376.2 L20.25 -379.2 20.8 -382.3 21.95 -382.45 Q23.35 -378.5 23.35 -375.6 L23.35 -375.25 Q24.65 -368.05 25.25 -362.4 25.85 -352.15 26.5 -345.9 L28.05 -345.9 29.3 -356.4 Q31.25 -352.35 31.15 -344.6 30.05 -330.6 30.05 -325.2 L28.3 -278.95 26.5 -305.75 25.6 -305.75 25.15 -258.95 24.85 -258.5 Q24.2 -271.05 23.05 -280.45 L21.95 -280.45 21.65 -271.75 21.4 -264.85 21.85 -255.1 22.05 -251.0 21.05 -246.35 19.65 -246.35 Q19.1 -248.1 18.8 -251.5 L18.35 -251.5 Q17.95 -245.05 17.75 -235.05 L17.65 -228.2 17.55 -228.6 16.1 -228.6 Q15.5 -222.6 14.85 -213.7 12.8 -214.95 12.25 -218.05 L12.0 -224.8 Q12.0 -226.65 10.75 -231.2 L10.05 -233.85 10.05 -232.6 Q10.05 -226.45 9.15 -220.85 9.0 -219.8 6.3 -217.3 4.25 -215.35 5.5 -211.85 5.15 -211.85 4.35 -211.35 3.45 -210.8 2.65 -210.7 1.85 -212.35 1.45 -214.25 L1.2 -209.3 0.65 -200.1 -0.3 -191.4 Q-1.0 -198.0 -3.0 -204.35 L-4.6 -204.35 Q-6.0 -197.3 -6.0 -194.25 L-6.0 -194.05 Q-6.9 -190.4 -7.9 -187.65 L-8.25 -193.15 Q-9.85 -214.4 -13.5 -206.35 L-13.65 -187.35 -14.1 -189.75 Q-14.4 -192.75 -14.1 -198.55 L-14.15 -199.6 -14.85 -200.05 -19.1 -202.5 -21.1 -202.2 -21.05 -201.95 Q-21.9 -200.75 -21.75 -196.65 -21.6 -193.35 -24.6 -191.85 L-25.75 -193.65 -26.0 -191.3 -26.8 -191.1 Q-27.05 -186.9 -27.45 -184.05 L-28.6 -184.05 -29.4 -192.75 Q-29.55 -192.05 -29.85 -191.4 L-30.95 -189.35 -32.5 -188.85 Q-34.35 -191.65 -35.65 -197.15 -36.05 -190.8 -36.65 -186.85 L-37.8 -186.6 -38.95 -193.85 -39.5 -187.7 -40.5 -187.7 Q-41.65 -179.55 -41.65 -174.35 L-41.3 -169.5 -41.6 -169.25 Q-42.25 -168.8 -43.0 -168.6 -43.6 -171.8 -45.85 -199.15 L-46.1 -199.1 -46.0 -197.85 -46.2 -194.0 Q-46.5 -192.15 -47.5 -190.4 -49.75 -192.35 -50.85 -194.0 L-52.15 -177.4 -53.0 -176.95 -54.4 -176.1 Q-55.45 -177.25 -56.25 -180.7 -58.5 -160.75 -58.95 -159.15 L-59.95 -158.9 -61.85 -175.9 -62.8 -175.9 Q-63.6 -181.85 -63.65 -189.95 L-63.95 -187.4 -65.65 -173.55 -66.2 -172.95 Q-67.1 -175.35 -67.75 -178.65 -68.35 -181.8 -68.35 -184.05 L-68.3 -188.15 -68.65 -188.7 -70.65 -172.65 -71.45 -172.65 -72.2 -185.75 -73.0 -182.2 -73.45 -168.4 Q-73.45 -167.55 -74.45 -166.85 L-75.9 -177.0 Q-76.3 -176.7 -76.8 -176.45 L-77.2 -175.9 -78.55 -174.8 -78.6 -175.55 Q-79.1 -186.2 -79.85 -192.4 L-80.95 -192.4 -81.8 -177.05 -82.4 -177.5 Q-82.5 -173.4 -82.8 -170.95 L-83.7 -170.4 Q-84.45 -173.0 -84.8 -178.05 L-85.05 -181.7 -85.2 -182.2 Q-85.5 -181.55 -85.95 -181.15 L-86.6 -185.4 -87.7 -182.9 Q-88.45 -185.0 -89.65 -191.2 L-90.35 -194.6 Q-91.2 -198.3 -91.8 -200.2 -92.1 -201.15 -94.55 -203.55 -96.55 -205.5 -96.45 -208.05 L-96.2 -215.85 -96.45 -216.4 Q-96.6 -213.95 -97.6 -209.7 L-98.5 -205.25 -98.6 -205.15 Q-99.05 -210.7 -99.6 -214.45 L-100.7 -214.45 Q-101.3 -208.15 -101.65 -197.35 L-101.7 -195.15 -103.5 -202.0 -103.8 -203.4 Q-106.0 -212.35 -107.7 -216.4 L-107.75 -216.9 -108.25 -217.55 -109.35 -216.3 Q-109.85 -215.6 -110.4 -215.25 -111.8 -216.7 -112.45 -219.85 -112.9 -222.25 -114.35 -222.25 -116.1 -222.25 -115.7 -228.25 L-114.95 -238.75 -115.7 -239.2 Q-116.45 -239.7 -117.6 -239.7 -117.6 -238.2 -117.0 -234.45 -116.45 -230.75 -116.45 -229.3 -116.45 -227.6 -117.1 -226.55 L-118.45 -224.8 Q-119.0 -225.8 -119.05 -226.55 L-119.05 -229.3 Q-119.05 -236.35 -120.2 -242.7 -120.9 -254.65 -121.6 -262.0 L-122.9 -262.0 -123.2 -248.8 -124.2 -248.75 -125.7 -249.0 Q-124.85 -258.65 -124.85 -261.75 -124.85 -262.65 -125.9 -265.25 L-125.3 -268.3 -126.2 -269.2 Q-128.1 -270.5 -127.45 -276.25 -128.0 -276.25 -128.0 -275.65 L-128.7 -275.5 -131.25 -275.65 -131.25 -283.45 Q-131.75 -283.45 -132.1 -282.3 L-132.95 -279.9 -135.5 -279.9 -135.55 -280.3 Q-135.8 -279.9 -136.2 -279.65 -136.8 -282.75 -137.2 -287.55 L-137.25 -287.7 -137.25 -288.35 -137.4 -291.15 -137.7 -299.6 -137.6 -315.8 Q-137.3 -326.1 -136.0 -329.45 -135.3 -323.25 -134.95 -311.8 L-134.75 -302.4 -133.95 -312.6 -132.7 -329.65 Q-132.7 -334.3 -134.4 -346.5 L-135.4 -354.7 Q-135.55 -347.45 -136.95 -343.45 L-137.7 -343.45 Q-138.9 -347.2 -138.9 -356.25 L-138.85 -365.65 Q-138.55 -371.85 -136.95 -373.4 -136.4 -370.95 -136.0 -367.25 -135.75 -372.1 -134.75 -378.4 -132.85 -390.85 -129.4 -393.25 L-129.0 -386.45 Q-128.85 -388.75 -127.55 -390.25 -126.4 -391.6 -124.85 -391.75 L-124.6 -393.1 Q-123.3 -399.25 -121.6 -400.8 L-122.0 -394.45 Q-121.25 -395.6 -120.1 -396.25 L-120.45 -400.6 Q-120.45 -403.5 -120.2 -401.9 L-119.35 -401.9 -118.4 -400.9 Q-118.35 -407.7 -117.75 -414.7 L-116.9 -414.7 -116.3 -405.1 -116.25 -404.55 Q-115.8 -407.7 -114.95 -410.0 L-112.9 -409.75 -112.35 -414.95 -111.2 -414.95 -110.6 -412.8 -110.4 -409.7 -110.55 -406.0 Q-110.25 -406.25 -109.8 -406.3 L-109.5 -406.05 -108.9 -409.35 Q-106.9 -419.35 -106.55 -425.45 L-103.95 -425.6 -104.5 -412.75 Q-104.0 -417.85 -103.8 -424.35 L-103.45 -439.95 -101.7 -439.95 -100.2 -420.5 Q-100.15 -422.5 -98.95 -425.75 -97.8 -428.85 -97.05 -429.75 -96.05 -430.75 -94.95 -433.85 -93.8 -436.85 -93.45 -439.25 -93.05 -442.3 -92.5 -449.85 -92.0 -453.8 -90.8 -455.8 L-90.7 -448.85 -90.05 -425.6 -89.2 -425.6 Q-88.75 -431.3 -88.5 -439.9 L-87.7 -439.25 -84.4 -439.9 -82.2 -444.9 -82.0 -457.6 -80.95 -457.6 -80.6 -448.05 -80.2 -449.15 Q-79.55 -451.15 -79.55 -452.9 -79.2 -460.75 -77.45 -467.75 L-77.3 -468.45 Q-77.25 -458.95 -76.15 -454.0 L-74.6 -454.3 Q-73.9 -458.7 -73.7 -466.35 -72.75 -463.45 -72.05 -459.45 L-70.95 -452.3 Q-70.4 -451.0 -70.05 -449.0 L-69.55 -449.1 -69.2 -459.85 -68.35 -459.85 -67.9 -449.6 Q-63.75 -451.05 -61.45 -453.8 L-61.65 -458.15 -61.1 -470.35 -60.25 -470.35 -59.1 -458.2 Q-58.65 -459.75 -58.5 -461.55 L-58.3 -467.05 -58.3 -469.25 Q-58.05 -472.2 -56.85 -473.95 L-55.0 -458.15 -55.05 -457.85 -53.2 -457.6 -52.8 -453.8 -51.7 -452.5 -50.95 -447.55 Q-49.95 -446.2 -49.75 -445.35 -50.15 -443.95 -49.95 -443.25 -49.7 -442.05 -46.6 -443.65 L-46.25 -439.75 Q-45.85 -437.45 -45.05 -435.85 L-44.5 -435.85 -44.35 -441.4 -43.8 -444.7 -43.65 -446.5 -43.45 -445.95 -43.05 -447.05 Q-42.3 -444.8 -41.9 -441.6 L-39.6 -435.4 -39.6 -435.45 Q-39.4 -438.55 -36.95 -439.95 L-33.8 -441.0 Q-32.05 -441.4 -31.85 -442.25 L-31.1 -444.05 Q-30.45 -445.6 -30.3 -446.65 -29.1 -446.7 -28.4 -446.25 -27.75 -445.75 -27.75 -445.1 L-27.45 -445.1 -26.85 -456.0 Q-26.5 -459.9 -25.4 -462.8 L-25.25 -458.55 Q-24.65 -452.4 -22.15 -448.35 L-21.6 -449.4 -21.9 -445.1 Q-22.3 -440.75 -20.7 -434.45 L-17.6 -424.2 Q-16.95 -424.2 -16.5 -426.75 L-14.65 -427.2 -12.8 -420.7 Q-11.65 -416.7 -11.85 -413.55 -10.4 -414.4 -8.15 -414.4 L-8.15 -408.55 -7.15 -412.5 Q-6.6 -415.4 -6.6 -417.5 -5.9 -418.15 -4.3 -418.0 -2.7 -417.75 -1.85 -416.7 -1.35 -417.65 -0.55 -420.55 L0.4 -423.55 0.65 -420.2 2.65 -420.2 3.4 -422.45 Q3.75 -419.55 3.7 -414.15 3.65 -411.15 4.05 -408.9 4.6 -405.35 6.3 -403.6 L6.5 -403.75 M-79.1 -383.7 L-79.25 -386.15 -79.3 -386.45 -80.25 -385.85 -80.75 -385.3 -82.15 -405.1 -83.5 -405.0 Q-84.65 -397.55 -85.05 -391.65 -85.8 -391.55 -86.4 -391.05 -88.05 -389.9 -88.45 -386.55 -88.95 -382.1 -92.5 -381.8 L-92.65 -382.95 Q-92.9 -383.45 -93.2 -383.45 L-93.35 -380.55 -93.45 -380.55 -94.05 -380.4 Q-94.5 -379.35 -94.75 -377.2 L-95.35 -373.4 Q-95.35 -372.0 -95.95 -369.55 L-96.65 -365.95 -96.85 -365.95 Q-96.85 -368.65 -97.6 -369.9 L-99.15 -367.7 -99.15 -370.4 -100.35 -370.4 Q-101.95 -363.9 -102.85 -357.7 L-103.0 -358.0 -104.15 -357.55 -104.95 -357.35 -104.95 -360.85 Q-104.1 -362.05 -104.8 -363.35 -106.0 -362.7 -106.35 -361.0 L-106.45 -359.35 -105.5 -353.45 Q-104.95 -349.8 -106.8 -348.45 L-107.7 -352.85 -108.55 -352.65 -108.55 -348.35 Q-107.95 -345.25 -107.95 -339.65 -107.95 -338.6 -107.15 -335.3 L-105.95 -330.5 -104.8 -330.5 Q-104.3 -331.95 -103.5 -332.6 -103.2 -332.35 -102.35 -327.6 L-101.55 -322.1 Q-102.15 -321.4 -102.45 -319.8 -103.25 -315.95 -103.5 -315.45 L-103.95 -316.25 -104.8 -316.8 -104.95 -312.85 -105.1 -312.85 Q-105.1 -314.65 -105.55 -316.8 L-106.55 -316.8 -106.9 -312.9 -107.05 -311.2 -107.4 -311.2 -107.55 -308.7 -107.5 -307.8 -107.55 -307.6 Q-107.75 -307.15 -108.25 -307.0 L-109.15 -306.75 -109.15 -302.85 Q-109.15 -299.8 -108.55 -298.65 L-107.95 -299.75 -107.55 -300.45 -107.1 -298.0 -106.8 -295.7 Q-104.15 -295.45 -103.85 -291.45 -103.55 -287.5 -102.8 -287.5 -101.75 -287.5 -101.3 -285.5 -100.8 -283.05 -99.9 -282.3 -99.65 -282.35 -99.35 -282.85 L-98.85 -283.6 Q-97.1 -277.5 -95.9 -271.35 -95.0 -266.45 -94.4 -261.55 L-93.8 -261.55 Q-92.65 -264.2 -92.3 -268.05 L-90.55 -271.6 -89.85 -272.75 -89.4 -272.8 -89.4 -272.75 -88.7 -271.85 -86.8 -271.85 -86.05 -272.5 -84.15 -272.8 -84.15 -272.75 -84.1 -272.4 -83.35 -268.5 -82.15 -268.5 -81.9 -269.15 -81.45 -269.8 -81.35 -269.5 -81.15 -268.6 Q-80.95 -268.05 -80.15 -267.15 L-79.7 -267.65 -78.75 -273.25 Q-78.15 -276.45 -78.0 -278.45 L-77.9 -278.25 Q-77.0 -270.5 -76.7 -265.15 -76.6 -263.45 -75.4 -258.45 -74.3 -253.8 -74.35 -251.65 L-71.15 -251.5 Q-70.8 -249.55 -69.65 -248.65 L-68.1 -250.15 -66.6 -247.05 Q-66.4 -246.85 -66.65 -245.05 -66.85 -243.6 -66.0 -243.6 L-64.7 -243.3 -64.8 -239.8 Q-64.8 -238.7 -64.45 -237.85 -64.1 -236.95 -63.35 -236.55 -61.25 -237.15 -60.8 -238.7 L-60.05 -241.35 -59.85 -240.7 Q-60.05 -239.65 -59.65 -238.7 -59.2 -237.55 -58.15 -237.05 L-53.6 -249.25 -53.6 -248.5 Q-53.6 -247.2 -52.7 -245.4 L-52.2 -244.55 Q-51.7 -244.55 -51.45 -244.85 L-51.1 -245.45 -50.3 -245.0 Q-49.45 -244.45 -48.55 -244.45 -47.65 -244.45 -47.55 -244.7 L-47.6 -244.9 Q-47.25 -246.35 -45.95 -248.6 -44.8 -250.6 -44.65 -251.85 L-44.45 -254.0 -44.25 -254.0 Q-43.1 -254.0 -43.15 -253.35 -43.2 -252.15 -42.9 -251.55 L-41.3 -251.4 -40.7 -251.85 Q-40.55 -253.4 -39.25 -256.8 L-38.4 -259.15 -37.85 -260.85 -37.75 -258.85 -37.75 -258.5 -37.55 -256.9 -36.6 -257.75 -35.2 -258.9 -33.25 -260.7 Q-33.25 -259.1 -32.95 -258.6 L-31.45 -258.2 -31.15 -256.3 -30.6 -252.95 Q-30.1 -249.8 -28.8 -248.2 L-23.25 -264.15 -22.9 -266.3 -22.65 -268.5 Q-22.15 -270.7 -21.65 -271.4 L-20.85 -272.4 -17.45 -276.2 Q-17.1 -276.95 -16.9 -278.3 L-16.7 -280.4 Q-16.15 -279.2 -14.9 -278.25 -14.55 -281.65 -12.55 -289.85 -11.55 -293.95 -11.0 -297.0 L-10.75 -297.05 Q-10.4 -298.35 -10.05 -298.35 L-9.95 -296.8 -8.9 -295.0 -8.3 -295.4 Q-8.0 -296.45 -7.65 -298.8 L-7.05 -302.25 -6.75 -302.25 -5.9 -299.65 -4.0 -300.0 -2.95 -300.35 -2.95 -312.55 -3.3 -320.5 Q-3.35 -325.15 -4.2 -325.15 L-4.8 -325.05 -4.8 -325.2 -4.7 -332.6 -5.9 -332.6 Q-6.4 -331.6 -6.7 -330.05 L-7.05 -327.65 -7.15 -327.75 Q-7.15 -328.95 -7.45 -331.15 L-7.7 -334.05 -7.4 -339.5 Q-6.55 -338.85 -5.7 -338.8 -4.85 -338.7 -5.9 -339.15 L-5.9 -344.4 Q-6.3 -345.5 -7.6 -347.5 -8.65 -349.15 -8.75 -349.75 L-9.25 -353.0 -9.75 -355.8 -10.6 -355.1 -10.75 -356.9 Q-10.75 -363.95 -11.65 -368.2 L-12.1 -368.05 -12.15 -365.15 -14.9 -364.85 -16.2 -363.15 -16.85 -362.2 -18.35 -360.1 -19.2 -364.9 -20.85 -372.25 -22.8 -369.8 Q-23.55 -370.7 -24.4 -373.15 L-25.4 -376.6 Q-29.65 -380.1 -30.4 -385.25 L-31.2 -393.9 -32.65 -394.2 Q-34.25 -392.05 -34.65 -389.0 L-35.05 -384.3 -35.2 -383.25 Q-35.6 -381.75 -36.9 -379.9 L-40.5 -374.65 Q-42.35 -375.45 -42.85 -377.7 L-43.1 -378.55 Q-43.6 -379.95 -44.25 -380.2 -45.05 -379.8 -46.35 -377.45 L-47.2 -375.8 -48.0 -374.05 -48.15 -374.25 -49.75 -380.0 -52.05 -389.9 -52.95 -389.75 -53.5 -389.0 Q-53.75 -388.5 -54.1 -388.5 L-53.9 -390.45 Q-53.9 -391.7 -55.25 -392.4 L-56.45 -391.55 Q-56.5 -389.85 -57.05 -388.9 -57.45 -388.3 -58.0 -387.95 L-59.0 -388.6 -59.4 -388.85 -59.55 -388.95 -60.9 -389.05 -61.35 -390.05 -61.75 -390.7 -62.75 -391.8 -63.35 -391.3 Q-63.7 -390.95 -63.95 -390.95 -66.0 -398.35 -65.65 -409.65 L-66.85 -409.75 Q-68.0 -401.8 -68.0 -396.45 L-69.5 -393.85 -69.7 -393.2 -70.25 -391.3 -70.9 -387.85 -71.6 -384.4 -72.35 -384.25 -73.8 -384.1 -75.1 -384.4 -75.55 -384.7 Q-75.55 -386.4 -76.25 -387.25 L-76.7 -387.75 Q-77.85 -386.9 -78.2 -385.45 L-78.3 -385.1 -78.5 -383.2 -78.95 -383.15 -79.05 -383.45 -79.1 -383.7 M-63.1 -441.9 L-63.05 -441.9 -63.05 -441.95 -63.1 -441.9 M-112.35 -387.15 L-112.35 -386.75 -112.2 -387.05 -112.35 -387.15 M-100.5 -324.1 L-100.5 -324.15 -100.2 -324.6 Q-99.65 -323.9 -99.65 -322.7 L-99.7 -321.8 -100.2 -321.45 -100.65 -322.0 -100.8 -322.7 -100.5 -324.1 M-6.25 -212.15 L-7.0 -208.15 -7.3 -201.45 Q-6.4 -207.15 -6.25 -212.15 M-8.25 -196.1 L-7.9 -198.05 -8.25 -197.9 -8.25 -196.1" fill="#0fb8f0" fill-rule="evenodd" stroke="none"/>
    <path d="M-89.85 -272.75 L-90.55 -271.6 -92.3 -268.05 Q-92.65 -264.2 -93.8 -261.55 L-94.4 -261.55 Q-95.0 -266.45 -95.9 -271.35 -97.1 -277.5 -98.85 -283.6 L-99.35 -282.85 Q-99.65 -282.35 -99.9 -282.3 -100.8 -283.05 -101.3 -285.5 -101.75 -287.5 -102.8 -287.5 -103.55 -287.5 -103.85 -291.45 -104.15 -295.45 -106.8 -295.7 L-107.1 -298.0 -107.55 -300.45 -107.95 -299.75 -108.55 -298.65 Q-109.15 -299.8 -109.15 -302.85 L-109.15 -306.75 -108.25 -307.0 Q-107.75 -307.15 -107.55 -307.6 L-107.5 -307.8 -107.55 -308.7 -107.4 -311.2 -107.05 -311.2 -106.9 -312.9 -106.55 -316.8 -105.55 -316.8 Q-105.1 -314.65 -105.1 -312.85 L-104.95 -312.85 -104.8 -316.8 -103.95 -316.25 -103.5 -315.45 Q-103.25 -315.95 -102.45 -319.8 -102.15 -321.4 -101.55 -322.1 L-102.35 -327.6 Q-103.2 -332.35 -103.5 -332.6 -104.3 -331.95 -104.8 -330.5 L-105.95 -330.5 -107.15 -335.3 Q-107.95 -338.6 -107.95 -339.65 -107.95 -345.25 -108.55 -348.35 L-108.55 -352.65 -107.7 -352.85 -106.8 -348.45 Q-104.95 -349.8 -105.5 -353.45 L-106.45 -359.35 -106.35 -361.0 Q-106.0 -362.7 -104.8 -363.35 -104.1 -362.05 -104.95 -360.85 L-104.95 -357.35 -104.15 -357.55 -103.0 -358.0 -102.85 -357.7 Q-101.95 -363.9 -100.35 -370.4 L-99.15 -370.4 -99.15 -367.7 -97.6 -369.9 Q-96.85 -368.65 -96.85 -365.95 L-96.65 -365.95 -95.95 -369.55 Q-95.35 -372.0 -95.35 -373.4 L-94.75 -377.2 Q-94.5 -379.35 -94.05 -380.4 L-93.45 -380.55 -93.35 -380.55 -93.2 -383.45 Q-92.9 -383.45 -92.65 -382.95 L-92.5 -381.8 Q-88.95 -382.1 -88.45 -386.55 -88.05 -389.9 -86.4 -391.05 -85.8 -391.55 -85.05 -391.65 -84.65 -397.55 -83.5 -405.0 L-82.15 -405.1 -80.75 -385.3 -80.25 -385.85 -79.3 -386.45 -79.25 -386.15 -79.1 -383.7 -79.1 -383.45 -79.05 -383.45 -78.95 -383.15 -78.5 -383.2 -78.3 -385.1 -78.2 -385.45 Q-77.85 -386.9 -76.7 -387.75 L-76.25 -387.25 Q-75.55 -386.4 -75.55 -384.7 L-75.1 -384.4 -73.8 -384.1 -72.35 -384.25 -71.6 -384.4 -70.9 -387.85 -70.25 -391.3 -69.7 -393.2 -69.5 -393.85 -68.0 -396.45 Q-68.0 -401.8 -66.85 -409.75 L-65.65 -409.65 Q-66.0 -398.35 -63.95 -390.95 -63.7 -390.95 -63.35 -391.3 L-62.75 -391.8 -61.75 -390.7 -61.35 -390.05 -60.9 -389.05 -59.55 -388.95 -59.4 -388.85 -59.0 -388.6 -58.0 -387.95 Q-57.45 -388.3 -57.05 -388.9 -56.5 -389.85 -56.45 -391.55 L-55.25 -392.4 Q-53.9 -391.7 -53.9 -390.45 L-54.1 -388.5 Q-53.75 -388.5 -53.5 -389.0 L-52.95 -389.75 -52.05 -389.9 -49.75 -380.0 -48.15 -374.25 -48.0 -374.05 -47.2 -375.8 -46.35 -377.45 Q-45.05 -379.8 -44.25 -380.2 -43.6 -379.95 -43.1 -378.55 L-42.85 -377.7 Q-42.35 -375.45 -40.5 -374.65 L-36.9 -379.9 Q-35.6 -381.75 -35.2 -383.25 L-35.05 -384.3 -34.65 -389.0 Q-34.25 -392.05 -32.65 -394.2 L-31.2 -393.9 -30.4 -385.25 Q-29.65 -380.1 -25.4 -376.6 L-24.4 -373.15 Q-23.55 -370.7 -22.8 -369.8 L-20.85 -372.25 -19.2 -364.9 -18.35 -360.1 -16.85 -362.2 -16.2 -363.15 -14.9 -364.85 -12.15 -365.15 -12.1 -368.05 -11.65 -368.2 Q-10.75 -363.95 -10.75 -356.9 L-10.6 -355.1 -9.75 -355.8 -9.25 -353.0 -8.75 -349.75 Q-8.65 -349.15 -7.6 -347.5 -6.3 -345.5 -5.9 -344.4 L-5.9 -339.15 Q-4.85 -338.7 -5.7 -338.8 -6.55 -338.85 -7.4 -339.5 L-7.7 -334.05 -7.45 -331.15 Q-7.15 -328.95 -7.15 -327.75 L-7.05 -327.65 -6.7 -330.05 Q-6.4 -331.6 -5.9 -332.6 L-4.7 -332.6 -4.8 -325.2 -4.8 -325.05 -4.2 -325.15 Q-3.35 -325.15 -3.3 -320.5 L-2.95 -312.55 -2.95 -300.35 -4.0 -300.0 -5.9 -299.65 -6.75 -302.25 -7.05 -302.25 -7.65 -298.8 Q-8.0 -296.45 -8.3 -295.4 L-8.9 -295.0 -9.95 -296.8 -10.05 -298.35 Q-10.4 -298.35 -10.75 -297.05 L-11.0 -297.0 Q-11.55 -293.95 -12.55 -289.85 -14.55 -281.65 -14.9 -278.25 -16.15 -279.2 -16.7 -280.4 L-16.9 -278.3 Q-17.1 -276.95 -17.45 -276.2 L-20.85 -272.4 -21.65 -271.4 Q-22.15 -270.7 -22.65 -268.5 L-22.9 -266.3 -23.25 -264.15 -28.8 -248.2 Q-30.1 -249.8 -30.6 -252.95 L-31.15 -256.3 -31.45 -258.2 -32.95 -258.6 Q-33.25 -259.1 -33.25 -260.7 L-35.2 -258.9 -36.6 -257.75 -37.55 -256.9 -37.75 -258.5 -37.75 -258.85 -37.85 -260.85 -38.4 -259.15 -39.25 -256.8 Q-40.55 -253.4 -40.7 -251.85 L-41.3 -251.4 -42.9 -251.55 Q-43.2 -252.15 -43.15 -253.35 -43.1 -254.0 -44.25 -254.0 L-44.45 -254.0 -44.65 -251.85 Q-44.8 -250.6 -45.95 -248.6 -47.25 -246.35 -47.6 -244.9 L-47.55 -244.7 Q-47.65 -244.45 -48.55 -244.45 -49.45 -244.45 -50.3 -245.0 L-51.1 -245.45 -51.45 -244.85 Q-51.7 -244.55 -52.2 -244.55 L-52.7 -245.4 Q-53.6 -247.2 -53.6 -248.5 L-53.6 -249.25 -58.15 -237.05 Q-59.2 -237.55 -59.65 -238.7 -60.05 -239.65 -59.85 -240.7 L-60.05 -241.35 -60.8 -238.7 Q-61.25 -237.15 -63.35 -236.55 -64.1 -236.95 -64.45 -237.85 -64.8 -238.7 -64.8 -239.8 L-64.7 -243.3 -66.0 -243.6 Q-66.85 -243.6 -66.65 -245.05 -66.4 -246.85 -66.6 -247.05 L-68.1 -250.15 -69.65 -248.65 Q-70.8 -249.55 -71.15 -251.5 L-74.35 -251.65 Q-74.3 -253.8 -75.4 -258.45 -76.6 -263.45 -76.7 -265.15 -77.0 -270.5 -77.9 -278.25 L-78.0 -278.45 Q-78.15 -276.45 -78.75 -273.25 L-79.7 -267.65 -80.15 -267.15 Q-80.95 -268.05 -81.15 -268.6 L-81.35 -269.5 -81.45 -269.8 -81.9 -269.15 -82.15 -268.5 -83.35 -268.5 -84.1 -272.4 -84.15 -272.75 -84.15 -272.8 -86.05 -272.5 -86.8 -271.85 -88.7 -271.85 -89.4 -272.75 -89.4 -272.8 -89.7 -273.1 -89.85 -272.75 M-100.5 -324.1 L-100.8 -322.7 -100.65 -322.0 -100.2 -321.45 -99.7 -321.8 -99.65 -322.7 Q-99.65 -323.9 -100.2 -324.6 L-100.5 -324.15 -100.5 -324.1" fill="#2898f2" fill-rule="evenodd" stroke="none"/>
    <path d="M125.65 -100.75 L116.55 -97.05 115.6 -96.75 Q97.55 -90.7 77.0 -89.6 L68.25 -89.4 61.05 -88.0 49.0 -86.4 17.1 -84.55 4.2 -83.7 -21.5 -84.45 -22.65 -84.9 Q-23.8 -85.35 -23.8 -85.8 16.6 -83.35 72.0 -95.2 L74.35 -95.7 76.15 -96.1 92.55 -100.1 93.0 -100.25 Q102.35 -102.8 109.7 -105.5 L110.3 -105.7 113.9 -107.1 115.0 -107.55 115.05 -107.6 Q124.8 -111.75 124.8 -114.75 124.8 -115.95 121.5 -119.5 L121.5 -119.55 121.15 -119.85 121.05 -120.0 120.2 -120.95 107.75 -122.9 96.1 -123.95 95.55 -123.95 88.15 -124.3 80.15 -124.4 79.5 -124.4 72.9 -124.15 65.3 -123.5 64.45 -123.45 43.3 -120.7 Q12.2 -116.05 -17.85 -113.85 L-41.1 -113.4 -53.1 -112.55 -65.85 -112.05 Q-109.45 -112.05 -150.95 -119.7 -158.5 -121.1 -171.35 -123.85 L-176.35 -124.95 -181.6 -126.05 -190.05 -127.35 Q-199.25 -127.35 -208.2 -125.3 L-209.8 -124.65 -210.5 -124.35 Q-213.1 -123.25 -215.7 -121.75 L-218.3 -119.6 Q-222.35 -116.65 -222.85 -113.55 -219.3 -109.3 -216.55 -107.75 -217.7 -105.75 -220.25 -105.75 L-220.45 -105.75 Q-223.15 -105.8 -225.75 -107.15 L-227.45 -105.75 Q-229.55 -104.25 -231.95 -103.4 -229.4 -96.85 -224.15 -88.5 L-219.65 -81.55 -220.2 -81.75 Q-223.9 -83.15 -225.65 -86.85 L-225.65 -86.9 -225.7 -87.0 -225.7 -87.05 -225.75 -87.15 -226.25 -88.5 Q-236.05 -88.95 -240.75 -107.05 -243.2 -116.35 -243.65 -125.85 -243.65 -136.2 -230.2 -147.45 -218.05 -157.65 -200.75 -164.1 -183.3 -170.65 -171.35 -169.2 L-170.6 -169.1 -169.9 -169.0 -169.2 -168.85 -168.55 -168.7 Q-166.0 -168.15 -164.0 -167.05 L-163.2 -166.6 -162.55 -185.15 Q-162.55 -191.25 -160.7 -204.75 -158.85 -218.3 -158.85 -224.3 -158.85 -231.65 -160.45 -238.8 -162.1 -245.95 -162.1 -251.85 L-160.9 -270.25 -159.8 -288.65 Q-159.8 -293.2 -161.5 -321.6 L-163.1 -350.3 Q-162.35 -368.05 -162.35 -372.6 L-162.3 -378.4 -161.4 -402.95 Q-161.4 -408.85 -161.9 -417.1 -161.4 -445.3 -161.4 -460.55 -161.4 -461.65 -162.35 -473.05 L-163.25 -485.55 -164.85 -515.45 -164.85 -518.8 -164.75 -522.8 Q-163.9 -527.6 -163.9 -536.7 L-163.95 -539.2 -163.0 -555.0 Q-161.15 -581.35 -161.15 -594.1 -161.15 -599.55 -162.75 -616.05 -163.85 -631.25 -161.9 -636.85 L-161.9 -663.4 -161.7 -663.45 -161.7 -664.05 Q-161.7 -670.45 -156.75 -670.75 -154.85 -670.9 -153.4 -669.65 -151.85 -668.4 -151.85 -666.3 -151.85 -663.8 -153.1 -662.2 L-153.1 -634.0 -153.0 -632.45 -153.15 -630.45 -153.15 -626.45 -153.5 -626.45 -154.0 -621.5 Q-155.0 -611.1 -155.0 -605.95 L-154.6 -590.35 -154.4 -585.05 -153.3 -573.45 Q-152.05 -569.8 -150.55 -567.05 -144.55 -556.05 -131.0 -549.75 L-130.3 -549.85 Q-126.35 -547.9 -121.85 -547.9 -119.15 -547.9 -116.45 -548.65 L-115.4 -548.5 -111.0 -547.75 Q-106.8 -546.4 -101.55 -543.0 L-99.65 -541.75 -96.3 -541.1 Q-92.15 -541.1 -87.3 -542.9 -84.05 -545.55 -80.5 -547.45 L-78.5 -549.05 Q-72.45 -553.7 -70.6 -554.25 L-60.9 -556.75 -53.55 -558.05 Q-39.0 -558.55 -32.65 -557.05 -30.55 -556.55 -28.9 -555.7 L-26.5 -554.5 Q-17.8 -548.5 -11.4 -540.6 -8.9 -537.5 -6.7 -534.0 -4.45 -532.35 -1.05 -531.55 3.4 -532.6 7.6 -535.0 14.25 -540.2 20.55 -547.85 28.05 -557.05 32.65 -567.1 38.2 -573.7 41.85 -585.4 L41.85 -588.3 42.05 -589.1 42.2 -590.75 Q43.0 -599.5 45.75 -617.5 L45.75 -666.05 46.35 -665.9 Q46.3 -667.1 46.55 -668.4 46.55 -672.35 47.95 -674.45 49.25 -676.3 51.1 -676.1 52.95 -675.95 54.25 -674.0 55.65 -671.85 55.65 -668.65 55.65 -665.05 55.2 -663.65 L54.55 -662.25 55.35 -660.65 55.65 -657.45 Q55.65 -653.1 54.6 -645.85 L55.85 -626.9 57.0 -624.9 Q57.7 -622.9 57.7 -618.75 L55.85 -569.55 57.7 -530.1 Q57.7 -515.25 56.75 -507.8 L56.75 -402.75 Q55.95 -392.45 55.05 -369.6 L55.4 -362.0 55.4 -338.0 56.0 -331.95 Q57.5 -315.8 57.5 -309.9 L56.95 -300.9 Q56.45 -292.55 57.25 -288.0 58.7 -279.3 56.9 -275.95 L56.3 -274.8 56.0 -250.85 Q57.2 -245.85 57.95 -237.9 L58.6 -229.35 58.75 -227.2 Q59.25 -218.0 60.1 -208.05 L60.15 -207.4 60.15 -207.3 60.1 -201.9 Q60.25 -195.65 61.35 -189.65 63.3 -179.85 75.8 -176.4 L86.7 -174.25 Q93.55 -173.05 96.85 -171.9 113.7 -165.8 122.85 -159.0 L128.6 -153.8 128.75 -153.65 129.15 -153.05 Q132.35 -148.65 134.45 -143.9 L134.55 -143.7 Q137.75 -136.2 138.2 -127.95 L138.25 -127.65 138.25 -127.35 138.3 -127.0 138.3 -126.6 138.3 -125.95 138.3 -125.3 138.3 -124.0 137.9 -116.85 137.85 -116.45 137.65 -114.75 137.4 -113.6 Q136.6 -110.0 134.95 -106.85 131.65 -103.65 125.65 -100.75 M25.45 -503.1 L23.7 -499.45 23.55 -499.1 Q21.6 -495.25 17.45 -489.5 L16.1 -487.65 Q14.55 -481.55 13.1 -474.15 L13.1 -345.7 13.65 -328.75 13.65 -260.5 13.7 -260.4 Q14.6 -258.0 15.2 -257.5 17.25 -258.3 19.05 -259.95 22.95 -267.75 26.25 -277.1 28.7 -284.1 31.1 -292.45 32.3 -296.05 38.0 -318.0 L40.65 -332.1 40.7 -332.35 40.85 -333.2 Q42.75 -344.5 42.75 -346.1 42.75 -347.4 43.7 -357.75 L44.6 -369.45 44.65 -371.1 Q43.95 -381.85 43.95 -395.4 43.95 -411.8 44.2 -417.35 44.7 -429.95 46.7 -438.85 L46.7 -442.3 46.85 -447.65 Q46.85 -454.5 45.8 -460.85 L46.1 -465.25 46.55 -471.3 46.45 -473.25 46.55 -476.15 Q46.55 -484.85 45.2 -490.9 43.15 -499.95 37.9 -505.8 L36.75 -505.9 Q35.25 -507.45 34.3 -507.45 32.2 -507.45 29.7 -506.1 L26.0 -503.55 25.45 -503.1 M3.6 -478.4 Q1.0 -484.3 -1.3 -491.6 L-6.45 -509.5 Q-11.4 -527.15 -17.2 -538.85 -24.1 -547.35 -31.8 -550.55 -38.25 -553.2 -52.2 -553.2 -59.9 -553.2 -70.3 -548.85 -99.1 -534.2 -110.9 -488.1 -115.2 -471.45 -117.6 -448.55 L-118.45 -438.7 -118.5 -436.5 Q-117.3 -399.1 -116.9 -353.55 L-116.75 -328.25 Q-114.85 -318.0 -114.3 -304.15 -114.05 -298.0 -114.05 -276.0 -114.05 -255.65 -114.4 -247.65 -114.95 -234.0 -116.65 -225.4 -116.75 -191.6 -117.25 -168.2 -116.55 -163.2 -115.6 -160.35 -114.1 -155.8 -111.05 -152.25 -107.85 -150.9 -103.0 -149.5 L-95.85 -147.45 -22.5 -147.05 -18.65 -147.85 -5.75 -150.5 -5.25 -150.75 Q-2.7 -149.9 1.05 -149.6 4.45 -150.7 6.75 -152.95 8.75 -154.85 8.75 -156.15 8.75 -158.55 6.75 -161.35 4.35 -164.7 3.65 -167.85 L3.5 -168.2 3.7 -169.3 Q2.6 -176.65 2.6 -186.1 2.6 -192.45 3.0 -202.05 L2.6 -214.9 2.1 -234.8 Q2.1 -236.0 2.8 -240.8 L3.65 -248.7 4.45 -248.7 Q4.35 -242.65 4.65 -232.05 L5.25 -241.35 Q6.4 -258.4 7.7 -275.05 L7.7 -329.8 Q8.25 -357.1 8.25 -413.0 L8.0 -453.6 7.85 -453.6 Q5.95 -460.55 3.6 -478.4 M2.1 -287.0 L3.65 -287.0 4.35 -285.95 4.45 -283.5 4.3 -280.85 Q4.15 -280.15 3.4 -279.0 L2.1 -279.0 Q1.8 -280.6 1.8 -283.5 L1.85 -285.95 2.1 -287.0 M3.65 -260.25 Q3.65 -259.45 3.15 -258.95 2.8 -259.25 2.65 -259.9 L2.35 -261.05 2.35 -268.25 3.4 -268.25 Q4.15 -264.8 3.65 -260.25 M16.6 -254.5 L16.6 -254.65 16.45 -254.65 16.6 -254.5 M41.7 -197.6 Q37.55 -199.85 31.8 -199.85 24.1 -199.85 18.25 -183.6 L18.25 -183.5 17.1 -179.35 Q14.95 -171.45 14.55 -168.15 L14.4 -164.05 14.4 -163.75 Q15.95 -164.7 17.2 -164.1 22.0 -166.35 25.95 -169.25 38.2 -178.3 43.05 -194.35 L42.15 -196.75 41.7 -197.6 M30.45 -130.85 L26.75 -130.3 26.15 -130.6 Q26.0 -130.65 26.0 -129.9 L-7.45 -127.95 Q-72.45 -128.2 -72.95 -128.75 L-99.75 -129.8 -105.45 -130.1 -111.55 -130.85 -115.1 -131.2 Q-118.7 -131.6 -119.0 -132.0 L-124.2 -132.35 -129.8 -133.05 Q-137.1 -132.9 -146.65 -135.5 L-156.3 -137.9 -156.45 -137.7 -157.0 -138.0 Q-161.9 -140.55 -162.75 -140.55 -165.4 -140.55 -170.85 -142.6 -175.6 -143.3 -178.85 -137.25 -174.95 -134.65 -165.2 -131.6 -154.75 -128.3 -145.65 -127.15 L-145.25 -127.25 -137.55 -125.85 Q-113.95 -122.15 -70.9 -122.15 L-55.3 -121.25 -39.7 -120.35 Q-23.1 -120.35 6.95 -124.0 24.25 -126.1 34.3 -128.6 L64.1 -132.75 Q69.5 -133.85 71.65 -135.4 73.3 -136.6 73.75 -138.55 72.85 -139.2 70.35 -139.75 L66.25 -139.65 65.45 -138.6 Q63.9 -137.3 52.55 -135.25 42.15 -133.35 32.0 -132.3 L30.85 -131.3 30.45 -130.85 M-148.7 -511.75 L-149.15 -510.9 Q-152.2 -504.45 -153.0 -501.2 -154.2 -496.45 -154.2 -491.65 -154.2 -487.95 -154.85 -486.8 L-155.25 -486.3 -155.25 -435.9 -157.75 -408.25 -155.0 -388.05 Q-152.25 -367.8 -152.25 -366.4 L-152.45 -362.25 -152.0 -358.6 -151.1 -348.05 Q-150.6 -341.55 -149.95 -337.55 -146.95 -319.45 -145.0 -313.45 -139.7 -297.15 -130.35 -297.15 L-125.75 -297.65 -123.1 -301.7 -122.7 -302.65 -121.65 -400.25 -122.05 -405.25 -122.85 -418.65 Q-122.85 -425.75 -122.5 -431.95 L-122.85 -437.55 Q-122.85 -450.6 -120.45 -466.65 L-120.45 -467.25 -120.35 -467.25 -120.25 -468.0 Q-117.2 -487.45 -111.65 -503.45 -111.65 -507.5 -113.35 -511.2 L-119.7 -515.8 -120.4 -516.25 Q-126.55 -520.05 -130.85 -520.05 -142.15 -520.05 -148.7 -511.75 M-130.45 -253.85 Q-140.5 -252.05 -146.75 -239.9 L-147.85 -237.0 Q-149.9 -231.9 -150.15 -229.65 L-150.75 -224.15 -150.2 -217.95 -149.1 -204.85 -149.25 -199.85 -148.1 -191.5 Q-144.4 -170.75 -132.05 -166.9 -127.15 -167.55 -124.65 -171.85 L-123.95 -178.2 -123.1 -184.6 -123.1 -236.95 -123.4 -240.0 Q-124.15 -245.8 -125.1 -250.5 -127.1 -252.55 -130.45 -253.85 M-150.95 -229.15 L-150.95 -227.85 -150.4 -230.95 -150.95 -229.15 M-203.35 -101.7 L-187.75 -99.15 -172.7 -96.55 -170.45 -96.15 -166.95 -95.55 -157.65 -94.0 -114.95 -87.75 -104.1 -86.85 -98.9 -85.95 -115.85 -87.3 Q-122.6 -87.85 -132.3 -87.65 L-142.35 -87.3 Q-148.95 -87.3 -161.9 -90.05 L-172.8 -92.6 -175.65 -93.35 -176.0 -93.45 -177.4 -93.8 -178.5 -94.1 Q-195.55 -98.6 -203.35 -101.55 L-203.35 -101.7 M-67.7 -84.15 L-67.45 -84.6 -67.25 -84.9 -58.8 -84.7 -50.25 -84.15 Q-50.7 -84.0 -67.7 -84.15" fill="#a0f7fe" fill-rule="evenodd" stroke="none"/>
    <path d="M134.95 -106.85 Q133.7 -104.45 131.9 -102.25 129.8 -99.7 126.85 -97.25 L126.85 -97.3 Q126.85 -99.55 126.2 -101.0 L125.65 -100.75 Q131.65 -103.65 134.95 -106.85 M79.6 -105.4 L78.95 -105.75 79.4 -105.7 79.6 -105.4 M-188.65 -73.25 L-189.0 -73.35 -188.7 -73.45 -188.65 -73.25" fill="#13e1ec" fill-rule="evenodd" stroke="none"/>
  </g>
</svg>
