<?xml version="1.0" encoding="UTF-8" standalone="no"?>
<svg xmlns:ffdec="https://www.free-decompiler.com/flash" xmlns:xlink="http://www.w3.org/1999/xlink" ffdec:objectType="shape" height="588.8px" width="945.05px" xmlns="http://www.w3.org/2000/svg">
  <g transform="matrix(1.0, 0.0, 0.0, 1.0, 398.3, 782.85)">
    <path d="M540.0 -782.85 L542.15 -782.7 543.6 -782.45 543.9 -782.0 544.4 -782.25 546.55 -781.85 546.75 -781.25 541.85 -778.95 Q529.15 -772.95 522.75 -769.6 508.05 -761.95 489.75 -747.6 L462.75 -725.95 459.25 -722.95 468.25 -729.1 Q455.05 -719.6 439.85 -702.0 425.25 -685.05 412.4 -664.9 404.9 -653.1 399.25 -642.05 396.05 -635.55 393.95 -629.75 L393.75 -627.85 Q393.75 -625.6 390.8 -619.0 L390.75 -618.85 390.0 -614.6 389.75 -614.1 Q389.55 -614.0 389.55 -614.9 L388.9 -613.35 Q388.0 -611.6 388.0 -610.35 388.0 -609.4 385.05 -596.55 L381.0 -578.1 379.9 -568.75 380.0 -557.35 Q380.0 -554.5 378.0 -549.2 377.1 -526.25 355.65 -485.55 346.1 -467.5 335.8 -452.85 328.55 -442.6 322.65 -436.4 L317.95 -430.2 Q311.8 -422.4 306.8 -417.4 L304.3 -414.4 305.2 -415.9 Q301.45 -412.4 298.4 -410.55 278.7 -392.1 270.5 -383.85 258.45 -371.7 245.95 -354.15 238.3 -343.45 226.5 -324.75 L224.2 -321.0 Q207.45 -291.25 196.5 -257.55 190.85 -236.0 191.1 -216.0 L192.45 -214.25 190.45 -211.5 190.45 -212.7 190.25 -213.05 189.85 -210.55 189.3 -211.85 188.05 -213.3 188.1 -215.25 Q181.7 -220.1 160.15 -226.8 L141.9 -232.15 142.4 -229.65 Q126.65 -234.0 117.25 -235.75 L112.75 -236.05 107.75 -236.75 103.0 -237.05 97.8 -237.75 83.65 -240.65 81.65 -241.05 80.05 -241.0 73.1 -241.7 Q68.05 -242.4 67.6 -242.75 L63.6 -243.05 59.15 -243.75 50.2 -244.55 Q46.25 -245.1 45.75 -245.5 L41.35 -245.8 36.5 -246.5 26.45 -247.3 22.45 -247.75 4.95 -248.05 -13.0 -248.75 -18.9 -249.05 -25.25 -249.75 -28.3 -249.95 -29.6 -250.0 -29.5 -249.75 -29.8 -249.45 Q-30.2 -249.15 -30.85 -249.0 L-32.2 -249.2 -34.0 -249.75 -54.5 -250.75 -83.4 -251.65 -109.0 -251.5 -126.0 -250.6 -143.0 -249.75 -165.7 -249.35 -165.35 -249.6 -186.9 -249.25 Q-238.0 -244.85 -275.45 -236.6 -296.3 -232.05 -325.6 -223.55 L-325.65 -223.35 -325.7 -223.35 -326.15 -223.35 -324.8 -225.85 -324.85 -227.0 -324.15 -229.15 -324.1 -229.35 -323.9 -229.65 -322.6 -232.3 Q-320.35 -236.6 -320.35 -237.25 L-319.6 -237.25 -319.45 -236.45 Q-313.4 -245.8 -304.55 -254.7 L-298.35 -260.5 -295.0 -263.65 -295.6 -263.75 Q-285.25 -273.35 -270.4 -282.85 L-270.0 -283.1 Q-259.5 -290.35 -247.1 -297.5 L-245.55 -298.35 -244.25 -299.25 -244.7 -298.8 -243.4 -299.55 -234.8 -304.75 Q-228.2 -308.4 -211.3 -316.5 L-190.55 -326.25 -190.2 -325.75 Q-192.85 -324.05 -200.85 -319.7 -189.95 -324.8 -185.1 -327.5 -179.15 -330.75 -159.7 -342.55 -120.45 -370.55 -86.85 -410.25 -64.15 -437.1 -46.85 -465.75 L-50.4 -460.8 -48.0 -466.45 Q-44.95 -471.0 -42.85 -474.85 L-35.3 -488.45 -30.5 -500.7 Q-26.65 -510.2 -23.7 -516.1 -20.75 -522.1 -18.25 -532.45 L-16.9 -537.75 Q-16.5 -540.45 -16.4 -542.6 L-15.35 -564.15 Q-15.25 -574.3 -17.4 -583.5 -19.6 -592.95 -23.65 -603.1 -28.85 -615.9 -33.9 -621.1 L-38.0 -621.6 Q-45.2 -628.25 -49.2 -639.45 -50.55 -643.3 -53.95 -657.85 -54.45 -660.1 -56.25 -666.35 -57.55 -670.05 -58.25 -673.1 -61.55 -687.4 -60.85 -704.75 -61.2 -723.45 -58.25 -744.95 -57.0 -754.25 -55.2 -762.35 L-53.55 -772.0 -51.6 -779.4 -50.2 -781.35 -49.6 -782.25 -48.85 -782.1 -47.65 -782.15 -47.75 -781.75 518.65 -781.85 Q530.4 -782.05 534.95 -781.85 L537.3 -781.7 540.0 -782.85 M92.65 -241.05 L91.0 -241.0 90.45 -241.0 99.45 -239.25 101.35 -239.1 94.55 -240.65 92.65 -241.05 M-326.15 -194.35 L-326.15 -194.05 Q-329.25 -195.5 -331.65 -196.95 -329.2 -195.7 -326.15 -194.35 M-398.25 -235.6 L-396.6 -235.05 -398.3 -235.55 -398.25 -235.6" fill="#9383eb" fill-opacity="0.45882353" fill-rule="evenodd" stroke="none"/>
    <path d="M179.0 -632.85 L196.8 -629.7 Q208.05 -627.5 215.75 -626.6 L216.25 -626.1 229.5 -626.1 231.15 -627.15 231.4 -627.4 233.0 -627.1 Q236.4 -628.25 238.75 -625.4 242.75 -620.45 244.0 -619.6 L244.1 -619.7 Q250.8 -610.2 261.1 -601.65 L270.45 -594.15 Q274.25 -590.9 274.25 -589.25 274.25 -582.4 275.9 -579.6 278.95 -574.2 281.25 -565.6 282.9 -559.4 283.95 -548.35 L282.4 -544.15 Q283.25 -539.55 283.25 -534.75 283.25 -524.6 278.95 -515.5 278.2 -521.5 270.8 -526.2 263.0 -531.15 249.15 -533.6 L249.25 -533.6 249.25 -534.35 Q248.7 -534.75 245.15 -535.45 L241.25 -536.35 205.0 -536.6 205.0 -536.1 193.85 -535.0 197.25 -536.1 Q182.35 -534.65 172.8 -530.2 L168.55 -527.7 173.75 -529.8 181.8 -532.15 Q188.9 -534.4 193.5 -533.8 L196.8 -533.9 Q201.6 -534.55 205.0 -534.1 L222.55 -534.65 232.15 -533.15 232.3 -533.15 239.25 -532.85 Q259.85 -529.4 269.0 -521.15 272.9 -517.65 274.5 -513.5 274.45 -509.8 274.2 -508.45 L274.1 -508.05 273.5 -507.1 273.7 -506.9 271.6 -504.3 261.25 -495.7 239.6 -487.55 Q232.45 -485.0 225.35 -482.85 L227.1 -483.1 235.5 -484.3 Q244.35 -487.75 245.6 -487.75 L244.45 -486.85 Q252.4 -489.95 258.45 -493.2 L255.5 -490.6 Q257.5 -492.2 261.75 -494.8 244.1 -480.9 213.25 -472.85 185.2 -465.75 162.75 -457.85 128.45 -445.8 106.7 -432.3 L106.0 -432.35 Q101.9 -429.35 87.85 -421.35 L67.0 -409.35 Q53.65 -401.25 35.95 -391.35 L35.35 -391.0 35.0 -390.85 Q29.45 -389.05 26.45 -387.85 21.0 -385.7 20.0 -382.6 L21.5 -381.1 Q25.45 -380.05 28.4 -378.1 32.55 -376.3 45.25 -374.85 45.4 -374.55 49.35 -374.15 L53.25 -373.85 80.5 -372.85 73.0 -370.6 66.5 -370.6 50.5 -371.6 Q46.85 -371.7 40.65 -373.3 34.75 -374.85 25.75 -374.85 L21.0 -375.5 28.5 -375.6 12.3 -376.4 11.15 -376.55 6.0 -376.85 3.95 -376.8 -6.0 -377.35 Q-6.25 -377.1 -9.8 -376.6 L-13.65 -375.9 -14.5 -375.85 -48.5 -375.6 Q-48.75 -376.1 -57.5 -376.6 -79.45 -379.3 -94.05 -383.25 L-94.75 -384.1 Q-109.5 -386.85 -123.55 -397.9 -136.55 -408.05 -139.5 -417.1 -141.55 -423.5 -148.4 -436.75 L-155.7 -451.5 Q-156.65 -455.0 -161.25 -466.5 -167.0 -483.85 -167.0 -500.5 -167.0 -546.35 -140.55 -578.15 -102.25 -624.2 -11.45 -637.3 L9.4 -639.5 47.0 -642.1 70.2 -641.4 93.0 -641.1 103.7 -640.4 114.0 -640.1 118.7 -639.4 123.0 -639.1 Q123.6 -638.5 133.6 -637.85 L133.5 -637.6 135.65 -637.45 138.7 -637.15 139.05 -637.1 130.0 -637.35 130.0 -636.85 Q99.0 -635.7 94.25 -634.5 92.5 -632.8 84.0 -631.35 78.1 -630.4 70.85 -628.35 L61.0 -625.35 Q56.7 -624.1 47.55 -620.05 36.25 -615.05 36.25 -613.1 36.25 -611.55 37.15 -611.65 37.55 -611.7 38.0 -612.1 L55.0 -619.15 Q67.2 -624.2 76.4 -627.25 104.75 -636.6 129.0 -635.35 L143.05 -636.05 144.1 -636.05 151.95 -635.6 156.2 -635.15 161.0 -634.85 166.3 -634.15 171.25 -633.85 Q171.4 -633.55 175.2 -633.15 L179.0 -632.85 M129.75 -460.5 Q142.15 -466.55 156.05 -471.25 167.35 -475.05 187.75 -480.5 L187.6 -480.75 Q164.4 -475.65 154.3 -472.2 142.55 -468.2 129.75 -460.5" fill="#ffffff" fill-rule="evenodd" stroke="none"/>
    <path d="M172.75 -634.85 L195.3 -631.25 Q213.3 -628.1 217.25 -628.1 L228.75 -628.35 231.95 -628.65 231.95 -628.6 232.25 -628.8 234.0 -629.6 237.25 -629.35 239.95 -626.35 238.5 -629.1 239.25 -629.1 Q247.2 -615.35 257.0 -607.85 L262.75 -602.4 Q266.25 -598.8 268.0 -597.85 270.75 -596.25 272.5 -594.7 276.3 -591.35 275.75 -588.6 274.9 -584.2 277.9 -577.35 281.65 -569.8 282.75 -566.35 284.1 -562.05 284.95 -555.95 285.75 -550.1 285.75 -545.0 L285.6 -542.65 285.25 -541.6 284.65 -541.6 284.75 -534.35 Q284.75 -521.4 276.75 -509.7 L276.7 -509.15 276.65 -508.75 276.5 -505.85 275.5 -505.6 275.55 -505.9 Q273.6 -502.5 268.7 -499.05 L265.4 -497.05 257.25 -490.6 Q246.9 -483.2 234.75 -477.95 224.15 -473.35 217.0 -472.35 203.15 -470.4 193.2 -467.05 183.05 -463.1 177.0 -461.1 L159.15 -455.15 Q149.7 -451.85 145.0 -449.35 116.05 -433.9 97.0 -424.35 L95.5 -424.6 95.8 -424.8 87.75 -420.05 Q80.1 -415.25 68.0 -406.85 60.9 -401.95 48.25 -395.5 44.5 -392.85 39.0 -390.4 L27.8 -385.6 25.2 -384.3 23.75 -383.6 Q26.25 -382.25 32.5 -379.95 L36.55 -378.5 37.35 -378.35 38.85 -377.75 Q43.3 -376.4 46.75 -375.85 54.25 -375.35 54.75 -374.85 L84.25 -374.1 Q82.4 -372.6 78.75 -370.85 75.15 -369.1 74.0 -369.1 L68.8 -369.4 Q65.5 -369.75 65.5 -370.1 L57.5 -370.4 49.5 -371.1 24.25 -373.85 19.3 -374.15 14.0 -374.85 -17.0 -374.1 -19.0 -374.4 Q-49.5 -374.65 -49.5 -375.1 -58.5 -375.6 -58.5 -376.1 L-64.05 -376.4 -70.0 -377.1 -96.25 -382.65 Q-120.65 -384.0 -139.7 -414.7 -146.3 -425.35 -152.15 -439.5 L-155.85 -448.95 -156.0 -449.0 -156.5 -449.6 Q-164.8 -469.7 -166.55 -476.1 -169.0 -485.35 -169.0 -500.35 -169.0 -547.65 -142.7 -579.95 -107.3 -623.4 -27.05 -635.9 L-27.0 -636.1 Q-26.9 -636.55 -26.45 -636.8 -24.8 -637.75 -16.0 -638.35 L-2.85 -639.45 1.9 -640.6 Q8.1 -642.0 40.0 -642.85 L40.0 -643.35 48.0 -642.6 Q93.25 -642.1 94.0 -641.6 L115.0 -640.6 124.0 -639.6 135.0 -638.85 144.0 -637.85 148.55 -637.65 148.85 -637.45 152.0 -636.85 162.0 -635.85 172.75 -634.85 M179.0 -632.85 L175.2 -633.15 Q171.4 -633.55 171.25 -633.85 L166.3 -634.15 161.0 -634.85 156.2 -635.15 151.95 -635.6 144.1 -636.05 143.05 -636.05 129.0 -635.35 Q104.75 -636.6 76.4 -627.25 67.2 -624.2 55.0 -619.15 L38.0 -612.1 Q37.55 -611.7 37.15 -611.65 36.25 -611.55 36.25 -613.1 36.25 -615.05 47.55 -620.05 56.7 -624.1 61.0 -625.35 L70.85 -628.35 Q78.1 -630.4 84.0 -631.35 92.5 -632.8 94.25 -634.5 99.0 -635.7 130.0 -636.85 L130.0 -637.35 139.05 -637.1 138.7 -637.15 135.65 -637.45 133.5 -637.6 133.6 -637.85 Q123.6 -638.5 123.0 -639.1 L118.7 -639.4 114.0 -640.1 103.7 -640.4 93.0 -641.1 70.2 -641.4 47.0 -642.1 9.4 -639.5 -11.45 -637.3 Q-102.25 -624.2 -140.55 -578.15 -167.0 -546.35 -167.0 -500.5 -167.0 -483.85 -161.25 -466.5 -156.65 -455.0 -155.7 -451.5 L-148.4 -436.75 Q-141.55 -423.5 -139.5 -417.1 -136.55 -408.05 -123.55 -397.9 -109.5 -386.85 -94.75 -384.1 L-94.05 -383.25 Q-79.45 -379.3 -57.5 -376.6 -48.75 -376.1 -48.5 -375.6 L-14.5 -375.85 -13.65 -375.9 -9.8 -376.6 Q-6.25 -377.1 -6.0 -377.35 L3.95 -376.8 6.0 -376.85 11.15 -376.55 12.3 -376.4 28.5 -375.6 21.0 -375.5 25.75 -374.85 Q34.75 -374.85 40.65 -373.3 46.85 -371.7 50.5 -371.6 L66.5 -370.6 73.0 -370.6 80.5 -372.85 53.25 -373.85 49.35 -374.15 Q45.4 -374.55 45.25 -374.85 32.55 -376.3 28.4 -378.1 25.45 -380.05 21.5 -381.1 L20.0 -382.6 Q21.0 -385.7 26.45 -387.85 29.45 -389.05 35.0 -390.85 L35.35 -391.0 35.95 -391.35 Q53.65 -401.25 67.0 -409.35 L87.85 -421.35 Q101.9 -429.35 106.0 -432.35 L106.7 -432.3 Q128.45 -445.8 162.75 -457.85 185.2 -465.75 213.25 -472.85 244.1 -480.9 261.75 -494.8 257.5 -492.2 255.5 -490.6 L258.45 -493.2 Q252.4 -489.95 244.45 -486.85 L245.6 -487.75 Q244.35 -487.75 235.5 -484.3 L227.1 -483.1 225.35 -482.85 Q232.45 -485.0 239.6 -487.55 L261.25 -495.7 271.6 -504.3 273.7 -506.9 273.5 -507.1 274.1 -508.05 274.2 -508.45 Q274.45 -509.8 274.5 -513.5 272.9 -517.65 269.0 -521.15 259.85 -529.4 239.25 -532.85 L232.3 -533.15 232.15 -533.15 222.55 -534.65 205.0 -534.1 Q201.6 -534.55 196.8 -533.9 L193.5 -533.8 Q188.9 -534.4 181.8 -532.15 L173.75 -529.8 168.55 -527.7 172.8 -530.2 Q182.35 -534.65 197.25 -536.1 L193.85 -535.0 205.0 -536.1 205.0 -536.6 241.25 -536.35 245.15 -535.45 Q248.7 -534.75 249.25 -534.35 L249.25 -533.6 249.15 -533.6 Q263.0 -531.15 270.8 -526.2 278.2 -521.5 278.95 -515.5 283.25 -524.6 283.25 -534.75 283.25 -539.55 282.4 -544.15 L283.95 -548.35 Q282.9 -559.4 281.25 -565.6 278.95 -574.2 275.9 -579.6 274.25 -582.4 274.25 -589.25 274.25 -590.9 270.45 -594.15 L261.1 -601.65 Q250.8 -610.2 244.1 -619.7 L244.0 -619.6 Q242.75 -620.45 238.75 -625.4 236.4 -628.25 233.0 -627.1 L231.4 -627.4 231.15 -627.15 229.5 -626.1 216.25 -626.1 215.75 -626.6 Q208.05 -627.5 196.8 -629.7 L179.0 -632.85 M60.8 -624.35 L50.5 -619.85 Q54.0 -619.55 59.15 -621.65 L68.0 -625.35 69.5 -625.85 Q65.3 -626.0 60.8 -624.35 M129.75 -460.5 Q142.55 -468.2 154.3 -472.2 164.4 -475.65 187.6 -480.75 L187.75 -480.5 Q167.35 -475.05 156.05 -471.25 142.15 -466.55 129.75 -460.5 M277.0 -515.75 Q277.0 -521.35 268.45 -526.35 258.55 -532.2 241.5 -534.1 L239.85 -534.05 240.75 -533.85 Q252.65 -532.9 264.8 -525.4 275.3 -518.85 276.6 -513.35 277.0 -514.75 277.0 -515.75" fill="#ffffff" fill-opacity="0.9019608" fill-rule="evenodd" stroke="none"/>
  </g>
</svg>
