<?xml version="1.0" encoding="UTF-8" standalone="no"?>
<svg xmlns:ffdec="https://www.free-decompiler.com/flash" xmlns:xlink="http://www.w3.org/1999/xlink" ffdec:objectType="shape" height="65.6px" width="42.75px" xmlns="http://www.w3.org/2000/svg">
  <g transform="matrix(1.0, 0.0, 0.0, 1.0, 71.35, 178.6)">
    <path d="M-34.95 -156.25 Q-34.95 -158.55 -33.4 -158.6 L-32.25 -158.6 -32.15 -158.55 Q-30.0 -157.85 -29.35 -156.2 L-29.3 -155.95 -28.8 -154.5 -28.6 -153.8 -28.75 -153.05 -29.1 -152.35 -29.25 -152.1 Q-30.05 -151.15 -31.2 -150.95 L-31.8 -151.0 -32.4 -151.3 Q-33.15 -151.85 -34.1 -153.8 -35.05 -155.75 -34.95 -156.25 M-46.55 -178.15 L-45.75 -178.55 -44.9 -178.45 -43.45 -177.55 Q-42.9 -176.95 -42.9 -175.45 -42.8 -172.9 -45.8 -171.6 L-46.75 -171.55 -47.55 -172.05 -47.7 -172.2 -48.1 -172.55 Q-48.55 -172.9 -48.55 -174.55 -48.7 -175.15 -47.6 -176.75 L-46.55 -178.15 M-64.15 -164.5 L-64.05 -163.6 -64.5 -162.85 Q-64.85 -162.45 -66.15 -161.4 L-66.1 -161.4 Q-67.75 -159.95 -68.1 -160.0 L-68.65 -159.95 -69.1 -159.9 -69.3 -159.85 Q-70.55 -159.6 -71.1 -160.9 L-71.35 -162.15 Q-71.4 -164.5 -69.15 -165.55 L-69.1 -165.55 Q-66.95 -166.6 -64.75 -165.15 L-64.15 -164.5 M-67.65 -118.5 Q-67.1 -118.3 -66.85 -117.75 L-65.95 -115.7 -65.8 -115.05 Q-65.65 -114.3 -66.55 -113.6 -67.1 -113.2 -68.0 -113.0 L-68.65 -113.05 Q-69.0 -113.15 -69.25 -113.35 L-70.25 -114.2 -70.65 -114.7 -70.8 -115.35 Q-70.8 -118.0 -68.7 -118.55 L-67.65 -118.5" fill="#ffffff" fill-opacity="0.5019608" fill-rule="evenodd" stroke="none"/>
    <path d="M-30.75 -155.6 L-30.1 -153.75 -30.45 -153.05 Q-30.85 -152.55 -31.45 -152.45 -32.0 -152.9 -32.75 -154.45 L-33.45 -156.25 Q-33.45 -157.05 -33.05 -157.15 L-32.65 -157.15 Q-31.2 -156.65 -30.75 -155.6 M-47.05 -174.55 L-46.35 -175.95 -45.5 -177.1 -44.7 -176.65 Q-44.4 -176.35 -44.4 -175.45 -44.4 -173.85 -46.4 -173.0 L-46.9 -173.45 -47.05 -174.55 M-65.55 -163.9 L-67.1 -162.55 -68.5 -161.45 -69.5 -161.35 Q-69.85 -161.3 -69.85 -162.15 -69.85 -163.55 -68.5 -164.2 -67.05 -164.85 -65.55 -163.9 M-67.45 -114.85 Q-67.75 -114.6 -68.3 -114.5 L-69.3 -115.35 Q-69.3 -116.8 -68.25 -117.15 L-67.3 -115.05 -67.45 -114.85" fill="#ffffff" fill-rule="evenodd" stroke="none"/>
  </g>
</svg>
