<?xml version="1.0" encoding="UTF-8" standalone="no"?>
<svg xmlns:ffdec="https://www.free-decompiler.com/flash" xmlns:xlink="http://www.w3.org/1999/xlink" ffdec:objectType="shape" height="95.9px" width="70.2px" xmlns="http://www.w3.org/2000/svg">
  <g transform="matrix(1.0, 0.0, 0.0, 1.0, 84.85, 212.2)">
    <path d="M-66.2 -212.1 L-65.5 -211.45 Q-64.85 -210.4 -64.9 -209.55 L-64.95 -209.15 Q-65.0 -208.5 -66.45 -207.3 -66.8 -207.0 -67.2 -206.95 L-68.0 -207.05 -68.55 -207.3 -69.2 -207.9 -69.45 -208.7 Q-69.45 -209.65 -68.85 -210.65 -68.15 -212.05 -67.15 -212.15 L-66.2 -212.1 M-18.3 -186.55 L-17.05 -186.0 Q-16.15 -185.65 -16.15 -183.7 -16.0 -182.95 -17.3 -181.3 L-17.35 -181.25 Q-18.85 -179.5 -20.4 -179.35 L-21.2 -179.45 -21.8 -180.0 -22.1 -180.75 -22.15 -181.95 -22.15 -182.05 Q-22.2 -183.25 -21.1 -184.75 L-21.1 -184.7 -19.55 -186.3 -18.95 -186.55 -18.3 -186.55 M-64.85 -165.05 L-64.65 -165.05 Q-63.6 -165.4 -62.95 -164.3 -62.6 -163.95 -62.6 -162.65 -62.55 -161.5 -63.45 -160.45 L-63.5 -160.35 Q-64.55 -159.25 -66.2 -159.15 L-66.65 -159.2 -67.45 -159.35 -67.9 -159.55 Q-68.9 -159.8 -68.9 -161.9 -68.9 -163.65 -67.7 -164.45 L-67.7 -164.5 Q-66.75 -165.4 -64.85 -165.05 M-61.2 -155.2 Q-60.9 -154.85 -60.85 -154.35 -60.7 -153.25 -61.15 -152.8 L-61.2 -152.75 Q-61.45 -151.95 -63.45 -151.95 -65.8 -151.95 -67.2 -153.85 L-67.5 -154.6 -67.6 -155.8 Q-67.65 -156.35 -67.3 -156.8 L-66.5 -157.4 -63.5 -157.25 -63.5 -157.3 Q-62.85 -157.05 -61.2 -155.2 M-79.15 -119.7 L-78.9 -119.05 -79.0 -118.3 Q-79.55 -116.8 -80.9 -116.35 L-81.75 -116.35 -82.5 -116.8 Q-85.05 -119.65 -84.85 -120.65 -84.85 -122.35 -83.8 -122.95 L-83.75 -122.95 -83.7 -123.0 -82.85 -123.4 -82.1 -123.4 -81.45 -123.0 -80.1 -121.2 -80.1 -121.15 -79.15 -119.7 M-14.65 -137.55 Q-14.65 -136.0 -15.55 -134.55 L-15.55 -134.5 Q-16.85 -132.4 -19.1 -132.2 L-19.8 -132.3 Q-20.15 -132.45 -20.35 -132.7 L-21.25 -133.6 -21.4 -133.75 Q-22.25 -134.75 -22.15 -135.6 -22.15 -140.25 -19.0 -141.45 -16.7 -142.5 -15.6 -140.95 -14.65 -140.1 -14.65 -137.55 M-33.95 -119.25 Q-34.05 -118.45 -34.6 -117.8 -35.35 -116.85 -36.6 -116.75 L-37.35 -116.85 -38.05 -117.1 Q-38.25 -117.15 -38.45 -117.3 -39.45 -117.65 -39.45 -119.6 L-39.35 -121.0 -39.3 -121.15 -39.1 -121.75 -38.55 -122.45 -37.7 -122.75 -37.5 -122.75 -37.4 -122.8 -36.5 -122.85 Q-36.05 -122.7 -35.75 -122.35 L-34.2 -120.3 Q-33.9 -119.85 -33.95 -119.25" fill="#ffffff" fill-opacity="0.5019608" fill-rule="evenodd" stroke="none"/>
    <path d="M-66.4 -209.55 L-67.4 -208.45 -67.95 -208.7 Q-67.95 -209.3 -67.55 -209.95 L-66.8 -210.7 -66.4 -209.55 M-17.95 -184.8 Q-17.65 -184.6 -17.65 -183.7 -17.65 -183.3 -18.5 -182.25 -19.55 -181.0 -20.6 -180.85 L-20.65 -182.05 Q-20.65 -182.85 -19.9 -183.85 L-18.7 -185.1 -17.95 -184.8 M-64.6 -161.4 Q-65.25 -160.7 -66.3 -160.65 L-67.15 -160.85 Q-67.4 -161.0 -67.4 -161.9 -67.4 -162.85 -66.8 -163.3 L-64.6 -163.45 Q-64.1 -164.0 -64.1 -162.65 -64.1 -162.0 -64.6 -161.4 M-62.4 -153.65 L-63.45 -153.45 Q-65.05 -153.45 -66.0 -154.75 L-66.1 -155.95 Q-64.85 -156.3 -64.2 -155.95 -63.7 -155.7 -62.35 -154.2 -62.3 -153.8 -62.4 -153.65 M-16.85 -135.3 Q-17.7 -133.85 -19.25 -133.7 L-20.25 -134.7 Q-20.65 -135.2 -20.65 -135.6 -20.65 -139.1 -18.4 -140.1 -16.15 -141.1 -16.15 -137.55 -16.15 -136.4 -16.85 -135.3 M-35.8 -118.75 L-36.75 -118.25 -37.65 -118.55 Q-37.95 -118.75 -37.95 -119.6 L-37.9 -120.7 -37.7 -121.25 -36.9 -121.4 -35.45 -119.45 Q-35.5 -119.05 -35.8 -118.75 M-83.35 -120.65 Q-83.35 -121.45 -82.9 -121.75 L-82.5 -121.95 -81.4 -120.4 -80.4 -118.85 Q-80.7 -118.05 -81.4 -117.8 -83.35 -120.0 -83.35 -120.65" fill="#ffffff" fill-rule="evenodd" stroke="none"/>
  </g>
</svg>
