<?xml version="1.0" encoding="UTF-8" standalone="no"?>
<svg xmlns:ffdec="https://www.free-decompiler.com/flash" xmlns:xlink="http://www.w3.org/1999/xlink" ffdec:objectType="shape" height="37.4px" width="73.45px" xmlns="http://www.w3.org/2000/svg">
  <g transform="matrix(1.0, 0.0, 0.0, 1.0, 94.55, 172.0)">
    <path d="M-21.3 -155.8 L-21.2 -155.6 Q-20.8 -154.7 -21.7 -153.8 L-21.8 -153.7 Q-22.3 -153.1 -23.9 -153.1 -26.9 -153.1 -28.15 -154.8 -29.05 -155.95 -29.05 -157.2 -29.05 -159.65 -27.55 -159.95 -26.5 -160.6 -24.5 -159.3 L-24.5 -159.25 Q-22.15 -157.65 -21.3 -155.8 M-43.9 -170.85 L-43.65 -170.05 -43.65 -169.2 -44.1 -168.5 Q-46.45 -166.35 -47.35 -166.55 L-48.75 -166.7 -49.05 -166.85 Q-50.2 -166.9 -50.2 -169.25 -50.25 -171.05 -48.35 -171.7 L-45.15 -171.9 -44.4 -171.55 -43.9 -170.85 M-41.35 -138.5 L-41.35 -138.55 Q-41.35 -139.95 -40.05 -141.3 -38.1 -143.45 -35.7 -141.9 L-35.2 -141.35 -35.0 -140.65 -34.9 -140.4 Q-34.7 -139.9 -34.85 -139.35 L-35.65 -136.65 -35.55 -136.35 Q-35.35 -135.5 -36.35 -134.9 L-37.0 -134.65 -37.95 -134.6 Q-40.55 -134.6 -41.1 -136.75 L-41.1 -136.7 Q-41.4 -137.55 -41.35 -138.45 L-41.35 -138.5 M-93.45 -148.75 Q-92.2 -150.35 -90.55 -149.3 -89.75 -148.9 -88.85 -147.25 L-88.7 -146.6 -88.4 -141.45 -88.55 -140.65 -88.7 -140.35 -88.75 -140.25 Q-89.0 -139.3 -91.0 -139.3 -93.9 -139.1 -94.45 -142.9 L-94.45 -142.95 -94.5 -145.0 Q-94.5 -147.6 -93.45 -148.7 L-93.45 -148.75" fill="#ffffff" fill-opacity="0.5019608" fill-rule="evenodd" stroke="none"/>
    <path d="M-23.9 -154.6 Q-26.05 -154.6 -27.0 -155.75 -27.55 -156.45 -27.55 -157.2 -27.55 -159.5 -25.35 -158.05 -23.4 -156.7 -22.65 -155.15 L-22.75 -154.85 Q-23.05 -154.6 -23.9 -154.6 M-47.35 -168.05 Q-48.7 -168.05 -48.3 -168.4 L-48.5 -168.3 Q-48.7 -168.35 -48.7 -169.25 -48.7 -170.8 -45.35 -170.4 L-45.1 -169.6 Q-46.8 -168.05 -47.35 -168.05 M-37.3 -136.4 L-37.1 -136.25 -37.95 -136.1 Q-39.35 -136.1 -39.7 -137.2 L-39.85 -138.45 Q-39.85 -139.35 -38.95 -140.3 -37.85 -141.5 -36.5 -140.65 L-36.3 -139.8 -37.3 -136.4 M-91.0 -140.8 Q-92.65 -140.8 -93.0 -143.15 L-93.0 -144.9 Q-93.0 -146.9 -92.3 -147.8 -91.45 -148.85 -90.2 -146.55 L-89.9 -141.35 -90.05 -141.05 Q-90.2 -140.8 -91.0 -140.8" fill="#ffffff" fill-rule="evenodd" stroke="none"/>
  </g>
</svg>
