<?xml version="1.0" encoding="UTF-8" standalone="no"?>
<svg xmlns:ffdec="https://www.free-decompiler.com/flash" xmlns:xlink="http://www.w3.org/1999/xlink" ffdec:objectType="shape" height="606.65px" width="381.7px" xmlns="http://www.w3.org/2000/svg">
  <g transform="matrix(1.0, 0.0, 0.0, 1.0, 244.2, 672.1)">
    <path d="M3.55 -408.05 L4.5 -399.5 Q5.15 -394.55 7.75 -392.85 L7.75 -392.65 Q7.75 -391.75 8.1 -391.3 8.55 -390.65 10.05 -390.65 11.65 -390.65 12.45 -394.55 L12.55 -395.15 12.9 -395.75 12.8 -392.85 Q12.8 -390.45 14.15 -389.5 14.7 -389.65 15.3 -390.05 15.85 -393.9 15.85 -400.95 L15.85 -402.6 16.2 -401.95 Q16.25 -397.55 16.75 -394.5 L17.35 -389.25 17.5 -388.4 17.55 -384.0 Q17.95 -381.25 21.75 -376.75 L21.85 -375.75 Q22.1 -373.1 23.4 -373.1 L23.65 -373.1 23.85 -370.5 Q23.65 -367.9 23.75 -366.3 24.05 -363.5 25.8 -362.35 L26.7 -363.15 26.85 -367.65 26.9 -366.25 26.85 -364.8 Q27.45 -361.4 27.45 -359.45 L27.3 -356.15 28.05 -356.15 Q28.6 -354.3 28.6 -350.35 L29.0 -351.55 29.2 -353.15 30.05 -353.15 31.2 -340.65 31.75 -331.15 31.25 -322.0 30.6 -309.7 Q30.6 -308.85 29.75 -308.3 28.8 -311.4 28.6 -320.45 L28.25 -313.65 Q27.9 -308.0 27.2 -304.25 L27.2 -303.75 Q27.2 -301.75 25.55 -301.25 23.95 -300.65 23.95 -298.2 23.95 -295.95 23.35 -291.25 L22.25 -284.15 Q21.65 -279.8 21.65 -276.5 22.65 -268.65 22.6 -262.4 22.35 -250.1 16.95 -250.1 14.65 -250.1 14.45 -247.3 L14.7 -243.8 Q14.7 -241.3 12.4 -233.6 10.35 -226.6 9.7 -225.5 L8.3 -225.2 8.95 -228.85 8.3 -227.75 Q7.05 -225.6 6.1 -220.9 5.8 -219.7 1.55 -219.7 -0.05 -219.7 -0.35 -217.1 -0.8 -213.8 -1.85 -212.7 L-3.45 -212.7 Q-4.2 -218.9 -3.7 -226.6 L-3.95 -227.1 -4.85 -228.1 Q-4.85 -223.8 -5.8 -213.2 L-6.45 -204.25 -7.35 -196.35 Q-7.6 -196.1 -8.0 -196.0 L-8.15 -200.25 -8.2 -204.75 Q-8.4 -207.35 -9.85 -209.4 -11.25 -209.05 -11.25 -206.75 L-11.35 -203.25 Q-13.25 -203.4 -15.8 -202.5 L-16.85 -205.2 -17.6 -207.75 -18.55 -207.9 -20.75 -208.05 Q-21.9 -205.1 -21.9 -199.65 L-25.75 -198.85 -27.0 -198.35 -27.9 -191.1 -28.4 -191.1 -28.55 -194.65 Q-28.9 -194.0 -30.15 -193.7 L-30.35 -195.45 -30.65 -195.35 -31.0 -194.95 -31.35 -195.25 -31.6 -195.25 Q-34.3 -195.25 -34.95 -195.9 -36.5 -195.6 -37.35 -193.7 -38.5 -192.65 -39.15 -190.0 -39.8 -186.3 -40.3 -185.15 L-40.3 -184.9 -40.95 -184.9 -41.0 -184.9 Q-41.0 -188.15 -41.7 -189.65 -43.9 -191.1 -45.1 -190.55 -45.95 -190.15 -45.95 -188.9 L-48.1 -188.6 -51.85 -188.0 Q-54.75 -188.0 -54.4 -188.4 -55.0 -191.0 -55.0 -197.1 L-55.55 -197.1 Q-56.05 -190.85 -58.15 -183.15 L-58.65 -186.45 -58.65 -175.2 -58.8 -170.85 -59.0 -170.55 -59.4 -170.15 Q-59.8 -171.0 -60.05 -174.8 L-60.05 -193.35 Q-62.4 -192.75 -64.0 -188.2 L-64.95 -184.45 -65.05 -184.6 -65.05 -186.3 -68.55 -185.75 -68.7 -183.75 Q-69.05 -178.75 -69.5 -175.5 L-70.1 -175.25 Q-70.75 -179.05 -70.75 -185.25 L-71.2 -185.1 Q-71.55 -182.05 -71.25 -180.25 L-71.85 -180.15 -72.0 -181.15 Q-72.1 -174.55 -72.55 -170.85 L-73.0 -170.85 -73.3 -179.35 -73.6 -179.35 -74.25 -185.05 Q-75.55 -185.55 -76.2 -187.25 L-77.85 -191.3 -79.95 -189.05 Q-81.25 -187.65 -81.35 -185.9 -82.25 -183.65 -82.4 -178.45 L-82.9 -178.4 Q-83.1 -183.3 -83.4 -185.75 L-83.85 -192.95 Q-84.15 -195.7 -85.2 -197.65 L-85.15 -198.0 Q-85.2 -199.9 -86.35 -200.75 L-85.55 -190.65 -85.75 -189.55 -86.35 -189.45 Q-86.85 -190.85 -87.8 -199.75 L-87.95 -201.35 -88.2 -201.4 Q-88.2 -202.8 -89.5 -202.0 L-89.8 -201.35 -89.95 -201.35 -89.9 -201.15 -90.6 -197.4 -90.65 -197.4 Q-92.0 -198.1 -92.65 -199.15 L-92.8 -201.4 -92.55 -207.55 Q-92.55 -208.6 -92.7 -209.2 L-93.25 -210.4 Q-94.95 -207.7 -95.85 -196.8 L-96.25 -190.65 -96.55 -190.2 -96.85 -194.25 Q-96.85 -205.3 -98.6 -210.1 L-99.2 -209.95 -99.3 -202.85 Q-100.5 -208.0 -104.3 -211.6 -105.05 -212.35 -105.55 -214.35 -105.95 -216.0 -105.95 -217.55 -105.95 -218.65 -106.65 -219.9 L-108.25 -222.85 Q-109.15 -224.95 -109.35 -228.1 L-109.4 -234.2 -110.2 -234.7 Q-111.0 -235.35 -111.55 -235.6 -112.35 -233.35 -112.35 -227.2 L-112.9 -226.9 -113.8 -226.35 Q-117.2 -227.25 -116.95 -228.55 L-116.45 -231.9 -117.85 -233.9 Q-119.3 -235.9 -119.9 -237.85 -121.0 -241.45 -121.0 -249.25 -120.15 -252.6 -122.7 -255.6 L-125.45 -258.45 Q-126.6 -265.95 -126.6 -269.8 L-127.45 -270.4 Q-128.85 -267.35 -128.85 -264.3 L-129.55 -263.8 Q-130.35 -263.2 -131.25 -262.85 -132.55 -264.8 -132.9 -269.0 -133.2 -272.7 -134.65 -273.95 L-134.65 -288.75 -132.95 -288.85 -132.35 -285.75 -131.85 -281.9 -131.25 -281.9 Q-130.1 -286.6 -127.55 -294.0 -125.75 -300.45 -126.6 -307.2 L-126.85 -312.4 -127.15 -310.3 -129.4 -310.3 Q-130.0 -311.15 -130.0 -313.85 -130.25 -314.7 -130.25 -314.1 L-130.55 -313.65 -131.25 -313.2 -131.25 -303.6 -131.9 -303.1 Q-132.65 -302.55 -133.5 -302.2 -134.45 -304.15 -135.1 -306.75 -135.8 -309.55 -135.8 -311.55 -135.8 -313.1 -135.05 -316.5 -134.2 -320.25 -134.1 -321.95 L-133.25 -321.95 -132.0 -316.65 -132.35 -330.9 -132.1 -343.1 -130.85 -343.1 -130.05 -332.1 -129.3 -324.0 -129.4 -329.2 -129.15 -338.65 -128.95 -341.9 Q-129.7 -345.45 -129.7 -348.95 -129.7 -350.25 -130.85 -352.7 -132.05 -355.15 -132.1 -356.45 L-133.35 -357.5 Q-134.6 -358.55 -134.65 -359.55 L-134.65 -364.0 -134.4 -366.75 -135.25 -366.55 Q-135.25 -367.35 -135.8 -369.2 -136.4 -371.1 -136.4 -372.65 -136.4 -372.85 -134.8 -373.85 -133.25 -375.3 -133.25 -377.65 -133.25 -381.05 -132.35 -382.7 -131.4 -381.9 -131.4 -378.75 -129.65 -387.85 -128.25 -408.05 L-126.3 -408.05 Q-125.7 -402.75 -125.7 -391.0 L-124.25 -393.95 -124.2 -394.7 -123.7 -403.05 -122.9 -403.05 Q-122.2 -401.3 -122.0 -399.2 L-121.9 -397.95 Q-118.8 -403.25 -117.75 -406.3 -117.05 -408.45 -116.05 -414.8 -114.8 -420.2 -112.1 -421.05 -111.55 -416.7 -111.55 -408.3 L-109.6 -410.45 -107.95 -412.2 -107.95 -412.25 Q-107.95 -415.1 -106.25 -433.15 L-105.45 -433.15 -104.6 -427.45 -104.3 -434.7 -103.0 -434.7 -101.6 -425.75 -99.75 -425.6 Q-96.4 -425.6 -93.4 -431.9 -90.65 -437.75 -90.65 -443.1 L-90.15 -443.25 -90.15 -442.6 Q-89.85 -439.35 -88.95 -438.2 L-88.0 -438.55 -87.3 -441.85 -87.1 -436.1 Q-83.85 -437.0 -82.9 -438.55 L-81.4 -441.1 -78.45 -440.8 -78.15 -440.35 Q-78.05 -449.1 -77.6 -456.9 L-77.2 -456.9 -76.65 -445.75 Q-76.25 -447.25 -75.3 -447.25 L-74.8 -445.2 -74.45 -443.3 -73.05 -445.1 Q-71.8 -447.05 -71.25 -448.85 L-70.95 -448.75 Q-70.05 -448.75 -69.95 -449.0 L-69.95 -449.25 -69.75 -458.1 -69.75 -458.45 Q-69.5 -460.95 -69.5 -467.4 L-69.15 -467.6 -69.15 -467.05 -68.9 -465.8 -68.9 -463.8 -68.85 -459.4 Q-68.65 -457.1 -67.95 -456.2 L-67.75 -447.05 Q-65.35 -447.6 -64.35 -452.45 -63.75 -455.1 -63.4 -459.55 L-62.5 -459.85 -61.65 -454.75 Q-62.05 -453.3 -61.8 -450.9 L-61.6 -448.35 Q-61.55 -450.85 -61.1 -454.0 L-60.25 -454.0 Q-59.65 -451.7 -59.65 -448.95 L-59.0 -448.4 Q-58.65 -447.9 -57.0 -447.9 -55.25 -447.9 -55.25 -448.65 L-55.25 -450.05 -52.45 -450.05 -52.55 -447.5 -52.45 -447.05 Q-52.15 -447.8 -52.15 -451.2 -51.85 -451.2 -51.7 -451.55 L-51.3 -452.0 Q-49.6 -447.2 -48.75 -442.1 L-48.5 -440.65 -48.1 -451.05 -47.65 -451.05 Q-47.05 -445.7 -47.05 -438.3 L-47.05 -437.65 -46.9 -437.65 -46.75 -437.45 -46.35 -440.05 -45.9 -440.05 Q-45.3 -438.7 -45.3 -436.45 L-45.3 -436.0 -43.5 -436.4 Q-41.7 -441.9 -41.35 -448.35 L-40.5 -448.35 Q-39.95 -445.0 -39.95 -441.8 -39.95 -440.55 -41.0 -436.55 L-40.5 -436.55 -40.5 -436.7 -40.4 -437.25 -39.65 -438.4 Q-39.1 -437.85 -38.95 -437.05 L-38.9 -436.5 -38.25 -436.45 -37.8 -436.1 -37.45 -435.45 -35.55 -436.1 Q-35.25 -435.7 -35.0 -434.35 L-34.4 -432.0 Q-33.75 -434.6 -32.75 -441.1 L-31.3 -450.65 -31.3 -450.25 -30.8 -445.7 Q-31.0 -442.6 -30.75 -439.65 -30.6 -436.95 -30.1 -435.4 L-30.15 -432.4 Q-30.35 -431.3 -30.1 -430.4 L-29.65 -429.3 -29.65 -429.15 Q-29.25 -426.25 -28.65 -425.25 L-27.55 -426.2 Q-27.2 -426.75 -27.2 -427.75 L-27.2 -428.65 -26.75 -428.8 -26.25 -427.3 -26.1 -430.4 -25.6 -430.4 -25.05 -426.5 -25.0 -428.45 -24.25 -441.25 -23.85 -441.25 Q-23.3 -438.85 -23.3 -434.5 -23.3 -432.6 -23.6 -431.4 L-23.3 -431.4 -23.05 -429.3 -22.7 -432.1 -22.1 -432.1 Q-21.4 -426.95 -21.35 -420.75 -19.9 -419.2 -19.4 -417.6 L-18.45 -415.0 -18.0 -417.0 -17.5 -417.0 Q-17.1 -416.35 -17.1 -414.85 L-17.3 -412.85 -16.9 -412.2 -16.2 -426.15 -15.7 -426.15 Q-15.25 -421.05 -15.2 -414.1 L-15.15 -414.15 -14.95 -415.6 Q-14.75 -417.6 -15.0 -418.65 L-14.6 -418.65 Q-13.65 -417.3 -13.55 -415.0 -11.65 -412.95 -10.7 -411.05 -9.5 -408.75 -9.3 -405.75 -8.75 -410.4 -8.1 -420.65 L-7.5 -424.95 -7.4 -422.75 Q-7.05 -420.1 -5.5 -418.7 L-4.1 -419.3 -3.65 -430.05 Q-3.15 -424.65 -2.45 -421.3 L-2.6 -416.8 Q-2.6 -410.95 -2.25 -409.95 -1.15 -406.75 3.55 -408.05 M-71.5 -405.35 L-72.25 -402.1 -73.0 -398.35 -73.2 -397.65 Q-73.35 -400.1 -73.65 -401.95 L-74.25 -401.95 -74.55 -394.25 -75.5 -391.65 -76.1 -391.25 Q-76.15 -392.85 -76.7 -393.6 -77.3 -392.3 -77.4 -390.4 L-78.4 -389.75 -78.4 -395.35 -79.6 -395.45 -80.25 -395.35 Q-80.0 -392.05 -80.05 -389.35 L-80.1 -387.45 -80.65 -387.45 Q-80.7 -386.45 -81.25 -384.4 L-81.75 -385.4 -81.7 -386.35 Q-81.7 -387.4 -82.4 -390.25 L-82.8 -390.25 Q-83.75 -385.7 -83.9 -383.7 L-84.35 -383.45 -84.35 -384.7 -84.45 -386.25 -84.65 -387.3 -85.15 -387.3 Q-85.15 -386.4 -85.65 -384.1 L-86.15 -381.1 -86.15 -380.95 -86.45 -382.1 Q-87.05 -381.15 -87.5 -378.15 L-88.5 -378.1 Q-88.5 -377.7 -89.1 -376.8 L-90.5 -375.25 -90.6 -375.6 Q-90.6 -379.05 -91.2 -380.8 -92.5 -379.45 -92.8 -376.7 L-92.95 -372.5 -93.25 -372.6 Q-93.3 -375.95 -93.95 -379.2 L-94.45 -379.2 -95.35 -371.2 -96.1 -369.3 -96.35 -369.4 Q-96.4 -372.65 -96.7 -374.45 -98.75 -372.95 -98.9 -367.95 L-99.05 -368.5 -99.5 -368.5 -99.8 -370.5 -100.15 -370.5 Q-100.55 -367.9 -100.6 -364.2 L-100.7 -363.45 Q-101.3 -362.15 -101.85 -361.35 L-102.25 -361.3 Q-102.25 -364.6 -102.5 -366.3 L-103.25 -366.3 -103.95 -364.55 -104.1 -362.65 -103.95 -360.15 -103.85 -359.9 Q-104.2 -359.25 -104.2 -358.2 -104.25 -353.05 -105.5 -350.95 -105.8 -351.55 -106.6 -351.65 L-107.6 -351.55 -107.6 -344.5 Q-105.7 -341.95 -105.75 -337.2 -105.8 -331.1 -105.5 -329.8 -104.6 -330.4 -104.1 -331.9 L-104.1 -331.8 -104.0 -325.85 -104.25 -325.85 -105.0 -321.1 -106.25 -321.15 -106.55 -324.45 -107.25 -324.45 -107.5 -321.1 -107.6 -321.1 -107.75 -318.6 Q-107.9 -321.85 -108.45 -324.3 L-109.45 -324.15 -109.45 -313.45 -108.85 -306.4 -108.45 -306.4 Q-108.1 -308.65 -107.9 -311.35 L-107.6 -310.75 Q-107.55 -304.2 -107.15 -300.45 L-106.65 -300.45 -106.25 -305.45 -105.6 -304.5 -105.15 -298.1 -104.25 -298.1 -104.2 -298.25 -104.25 -296.9 -103.85 -291.0 -102.8 -282.75 -102.3 -283.5 -101.9 -287.65 -101.8 -287.05 -101.2 -282.75 -100.4 -278.0 Q-99.9 -275.35 -99.3 -274.2 -99.15 -274.3 -99.15 -274.85 -99.15 -275.25 -98.3 -275.25 -97.6 -275.25 -97.7 -274.7 -97.85 -274.2 -97.1 -274.2 -96.3 -274.2 -95.25 -275.55 L-95.05 -269.9 -94.45 -270.1 -94.2 -275.75 -93.85 -275.75 -93.35 -276.2 -92.9 -284.85 -91.95 -291.65 -91.95 -290.9 Q-91.95 -281.1 -91.5 -276.35 L-90.95 -276.45 -90.7 -281.7 -87.4 -281.45 -86.35 -281.6 -86.2 -281.8 -86.2 -283.15 -85.65 -282.9 Q-85.8 -281.25 -83.75 -279.65 -83.25 -279.85 -82.2 -281.65 L-82.2 -281.0 -81.45 -281.1 -81.1 -272.15 -80.65 -272.15 Q-80.15 -276.6 -80.05 -281.6 L-79.9 -281.6 -79.05 -275.75 -78.95 -275.35 Q-79.3 -272.8 -79.3 -269.1 -79.3 -265.15 -78.7 -263.0 L-78.1 -263.15 -77.65 -268.4 -77.3 -267.95 -76.45 -254.75 -76.0 -254.75 Q-75.4 -257.35 -75.4 -263.0 L-75.5 -265.55 -75.3 -265.05 -75.15 -261.85 Q-75.1 -259.95 -74.85 -258.95 -73.55 -259.05 -72.8 -259.7 L-71.95 -260.6 -71.35 -256.2 -70.35 -256.4 Q-70.15 -257.95 -70.1 -259.75 L-70.0 -259.4 Q-69.5 -257.9 -69.5 -256.8 L-69.65 -253.9 Q-69.55 -251.9 -68.0 -251.45 L-67.3 -251.95 Q-67.4 -250.85 -66.95 -249.2 -66.35 -247.05 -65.4 -246.8 L-64.4 -247.05 -64.0 -243.9 Q-63.6 -244.2 -63.6 -244.65 L-63.35 -248.4 -63.3 -248.15 Q-62.05 -240.75 -61.4 -239.1 L-60.8 -239.3 -60.9 -242.0 -60.5 -240.65 Q-59.5 -237.15 -58.2 -236.2 -56.95 -236.7 -56.45 -238.8 L-56.05 -241.55 Q-54.25 -241.4 -52.7 -242.35 -50.9 -243.5 -51.0 -245.4 -48.8 -244.4 -48.2 -246.1 -47.85 -246.95 -47.75 -248.8 L-46.4 -251.65 -46.1 -252.2 -45.9 -252.0 -44.8 -251.95 Q-43.9 -251.95 -43.85 -252.15 L-43.7 -252.75 Q-43.6 -252.75 -43.45 -252.15 L-42.95 -251.45 -41.9 -251.35 Q-41.6 -251.35 -41.6 -251.05 -41.1 -249.85 -41.1 -249.4 -40.95 -246.7 -40.0 -243.35 L-38.7 -243.5 -38.35 -243.7 -37.4 -248.4 -36.9 -251.0 -36.15 -250.5 -33.8 -253.7 -33.1 -255.3 -32.65 -254.45 -32.05 -254.75 -31.4 -262.85 -31.35 -262.4 -30.4 -254.75 Q-30.05 -254.9 -29.95 -255.25 L-29.9 -255.5 -29.45 -263.1 -29.65 -265.85 Q-29.2 -266.15 -29.05 -266.6 L-28.05 -257.8 Q-27.2 -261.4 -27.2 -265.9 L-27.2 -268.0 -26.65 -268.05 -26.55 -266.45 Q-26.2 -264.85 -24.85 -263.3 L-23.95 -263.45 Q-22.9 -265.65 -21.55 -270.6 -20.45 -274.7 -19.35 -276.9 L-19.1 -269.4 -18.5 -269.5 -18.2 -273.85 -17.3 -264.55 -16.8 -264.55 Q-16.15 -268.0 -16.15 -272.45 L-16.15 -273.0 -15.7 -272.95 -15.55 -271.6 -15.15 -271.6 -14.9 -272.9 -14.8 -272.9 Q-14.0 -272.9 -13.25 -279.35 L-12.8 -283.65 -12.35 -279.3 Q-12.05 -279.55 -12.05 -279.95 L-10.95 -292.15 -10.95 -292.5 -10.85 -292.95 Q-10.35 -294.75 -10.35 -295.7 L-9.35 -293.1 -8.25 -293.3 -7.65 -297.95 Q-7.15 -301.8 -6.7 -301.8 L-6.1 -301.8 -5.9 -301.2 -4.85 -301.35 Q-4.3 -301.9 -3.85 -303.25 L-3.3 -303.45 Q-2.7 -306.85 -2.7 -310.25 L-2.85 -322.6 Q-3.1 -335.05 -3.5 -341.7 L-4.1 -341.7 -4.4 -327.85 -6.05 -338.25 Q-6.1 -345.2 -6.45 -348.65 L-7.0 -348.65 -7.15 -339.5 -7.6 -338.85 -8.2 -344.05 -8.75 -344.05 -8.8 -341.9 -8.85 -342.2 -9.25 -349.05 -8.6 -355.8 Q-8.75 -360.8 -12.85 -360.85 -12.95 -365.6 -13.4 -368.3 L-14.0 -368.3 -14.2 -360.0 -14.4 -359.65 Q-14.4 -362.85 -15.55 -369.25 L-16.15 -369.0 -16.3 -371.5 -16.8 -378.2 Q-17.25 -377.5 -17.5 -372.45 L-18.75 -372.05 Q-18.8 -377.75 -19.2 -383.45 L-19.8 -383.45 -19.9 -373.85 -19.95 -374.05 Q-20.05 -379.2 -20.4 -383.45 L-20.9 -383.45 -20.95 -377.65 Q-21.6 -379.85 -21.5 -381.4 -21.3 -386.45 -21.95 -391.8 -23.85 -390.6 -24.05 -387.45 -23.95 -383.9 -24.1 -382.55 -24.15 -381.75 -27.15 -379.35 -29.25 -377.7 -30.1 -376.25 L-30.65 -380.1 -31.35 -380.1 -32.0 -375.5 -32.6 -376.55 -33.1 -377.4 -33.0 -378.35 Q-33.0 -379.2 -33.15 -379.25 L-33.85 -379.35 Q-35.85 -377.5 -36.5 -374.05 L-36.8 -371.2 -36.6 -376.6 Q-36.6 -378.05 -37.15 -378.75 L-37.75 -378.75 -38.7 -373.7 Q-39.25 -375.25 -40.3 -375.85 -41.6 -373.95 -41.6 -372.5 L-41.8 -372.5 Q-41.8 -373.8 -42.2 -374.65 -42.25 -378.35 -42.95 -381.7 L-43.55 -381.7 Q-43.9 -378.8 -43.9 -375.45 L-45.85 -384.4 -46.3 -384.4 -46.55 -382.95 -46.5 -382.45 -47.55 -386.9 -48.15 -386.9 -48.35 -385.55 -48.6 -383.75 -48.5 -381.95 -48.6 -381.95 Q-49.1 -384.35 -50.5 -385.3 L-50.6 -385.15 -50.7 -383.25 Q-51.45 -384.5 -51.45 -386.95 -51.4 -392.7 -52.9 -393.85 -54.05 -392.9 -54.3 -390.45 -54.35 -387.8 -54.55 -387.05 -56.5 -387.75 -57.3 -387.75 -57.3 -388.75 -58.4 -390.2 -59.45 -391.55 -59.95 -391.55 L-60.95 -391.25 -61.45 -395.0 -62.05 -395.0 -62.3 -391.9 -62.5 -392.85 -63.4 -392.7 -63.6 -386.75 -63.6 -386.4 -64.05 -386.1 Q-63.55 -389.15 -63.55 -390.05 -63.55 -391.5 -64.4 -393.1 -64.85 -392.65 -65.75 -389.1 L-66.0 -388.25 -66.1 -388.5 -66.15 -389.35 -66.75 -396.2 -67.3 -396.2 Q-67.65 -393.85 -67.65 -389.55 L-67.65 -389.0 -67.9 -388.9 -67.9 -390.5 Q-67.9 -397.5 -68.3 -400.95 L-69.2 -400.95 -69.35 -390.6 -69.3 -387.85 -69.4 -387.75 -69.7 -391.4 -70.5 -398.3 -70.4 -399.2 -70.15 -405.15 -71.5 -405.35 M-2.85 -436.45 L-3.35 -434.7 -3.45 -434.2 -3.45 -434.55 -3.6 -436.45 -2.85 -436.45 M-23.8 -430.9 L-23.85 -430.8 -23.85 -430.5 -23.8 -430.9 M-102.55 -332.95 L-102.0 -331.7 -102.25 -322.95 -102.85 -322.2 -102.55 -332.95 M-100.65 -328.8 L-100.85 -327.95 -100.9 -327.3 -100.9 -329.3 -100.65 -328.8 M-96.0 -366.8 L-96.1 -366.05 -96.3 -366.2 -96.3 -366.85 -96.0 -366.8 M-28.65 -196.45 L-28.9 -196.2 -28.55 -194.95 -28.6 -196.45 -28.65 -196.45 M-82.55 -177.9 L-82.9 -178.0 -82.9 -178.1 -82.55 -177.9" fill="#0fb8f0" fill-rule="evenodd" stroke="none"/>
    <path d="M-71.5 -405.35 L-70.15 -405.15 -70.4 -399.2 -70.5 -398.3 -69.7 -391.4 -69.4 -387.75 -69.3 -387.85 -69.35 -390.6 -69.2 -400.95 -68.3 -400.95 Q-67.9 -397.5 -67.9 -390.5 L-67.9 -388.9 -67.65 -389.0 -67.65 -389.55 Q-67.65 -393.85 -67.3 -396.2 L-66.75 -396.2 -66.15 -389.35 -66.1 -388.5 -66.0 -388.25 -65.75 -389.1 Q-64.85 -392.65 -64.4 -393.1 -63.55 -391.5 -63.55 -390.05 -63.55 -389.15 -64.05 -386.1 L-63.6 -386.4 -63.6 -386.75 -63.4 -392.7 -62.5 -392.85 -62.3 -391.9 -62.05 -395.0 -61.45 -395.0 -60.95 -391.25 -59.95 -391.55 Q-59.45 -391.55 -58.4 -390.2 -57.3 -388.75 -57.3 -387.75 -56.5 -387.75 -54.55 -387.05 -54.35 -387.8 -54.3 -390.45 -54.05 -392.9 -52.9 -393.85 -51.4 -392.7 -51.45 -386.95 -51.45 -384.5 -50.7 -383.25 L-50.6 -385.15 -50.5 -385.3 Q-49.1 -384.35 -48.6 -381.95 L-48.5 -381.95 -48.6 -383.75 -48.35 -385.55 -48.15 -386.9 -47.55 -386.9 -46.5 -382.45 -46.55 -382.95 -46.3 -384.4 -45.85 -384.4 -43.9 -375.45 Q-43.9 -378.8 -43.55 -381.7 L-42.95 -381.7 Q-42.25 -378.35 -42.2 -374.65 -41.8 -373.8 -41.8 -372.5 L-41.6 -372.5 Q-41.6 -373.95 -40.3 -375.85 -39.25 -375.25 -38.7 -373.7 L-37.75 -378.75 -37.15 -378.75 Q-36.6 -378.05 -36.6 -376.6 L-36.8 -371.2 -36.5 -374.05 Q-35.85 -377.5 -33.85 -379.35 L-33.15 -379.25 Q-33.0 -379.2 -33.0 -378.35 L-33.1 -377.4 -32.6 -376.55 -32.0 -375.5 -31.35 -380.1 -30.65 -380.1 -30.1 -376.25 Q-29.25 -377.7 -27.15 -379.35 -24.15 -381.75 -24.1 -382.55 -23.95 -383.9 -24.05 -387.45 -23.85 -390.6 -21.95 -391.8 -21.3 -386.45 -21.5 -381.4 -21.6 -379.85 -20.95 -377.65 L-20.9 -383.45 -20.4 -383.45 Q-20.05 -379.2 -19.95 -374.05 L-19.9 -373.85 -19.8 -383.45 -19.2 -383.45 Q-18.8 -377.75 -18.75 -372.05 L-17.5 -372.45 Q-17.25 -377.5 -16.8 -378.2 L-16.3 -371.5 -16.15 -369.0 -15.55 -369.25 Q-14.4 -362.85 -14.4 -359.65 L-14.2 -360.0 -14.0 -368.3 -13.4 -368.3 Q-12.95 -365.6 -12.85 -360.85 -8.75 -360.8 -8.6 -355.8 L-9.25 -349.05 -8.85 -342.2 -8.8 -341.9 -8.75 -344.05 -8.2 -344.05 -7.6 -338.85 -7.15 -339.5 -7.0 -348.65 -6.45 -348.65 Q-6.1 -345.2 -6.05 -338.25 L-4.4 -327.85 -4.1 -341.7 -3.5 -341.7 Q-3.1 -335.05 -2.85 -322.6 L-2.7 -310.25 Q-2.7 -306.85 -3.3 -303.45 L-3.85 -303.25 Q-4.3 -301.9 -4.85 -301.35 L-5.9 -301.2 -6.1 -301.8 -6.7 -301.8 Q-7.15 -301.8 -7.65 -297.95 L-8.25 -293.3 -9.35 -293.1 -10.35 -295.7 Q-10.35 -294.75 -10.85 -292.95 L-10.95 -292.5 -10.95 -292.15 -12.05 -279.95 Q-12.05 -279.55 -12.35 -279.3 L-12.8 -283.65 -13.25 -279.35 Q-14.0 -272.9 -14.8 -272.9 L-14.9 -272.9 -15.15 -271.6 -15.55 -271.6 -15.7 -272.95 -16.15 -273.0 -16.15 -272.45 Q-16.15 -268.0 -16.8 -264.55 L-17.3 -264.55 -18.2 -273.85 -18.5 -269.5 -19.1 -269.4 -19.35 -276.9 Q-20.45 -274.7 -21.55 -270.6 -22.9 -265.65 -23.95 -263.45 L-24.85 -263.3 Q-26.2 -264.85 -26.55 -266.45 L-26.65 -268.05 -27.2 -268.0 -27.2 -265.9 Q-27.2 -261.4 -28.05 -257.8 L-29.05 -266.6 Q-29.2 -266.15 -29.65 -265.85 L-29.45 -263.1 -29.9 -255.5 -29.95 -255.25 Q-30.05 -254.9 -30.4 -254.75 L-31.35 -262.4 -31.4 -262.85 -32.05 -254.75 -32.65 -254.45 -33.1 -255.3 -33.8 -253.7 -36.15 -250.5 -36.9 -251.0 -37.4 -248.4 -38.35 -243.7 -38.7 -243.5 -40.0 -243.35 Q-40.95 -246.7 -41.1 -249.4 -41.1 -249.85 -41.6 -251.05 -41.6 -251.35 -41.9 -251.35 L-42.95 -251.45 -43.45 -252.15 Q-43.6 -252.75 -43.7 -252.75 L-43.85 -252.15 Q-43.9 -251.95 -44.8 -251.95 L-45.9 -252.0 -46.1 -252.2 -46.4 -251.65 -47.75 -248.8 Q-47.85 -246.95 -48.2 -246.1 -48.8 -244.4 -51.0 -245.4 -50.9 -243.5 -52.7 -242.35 -54.25 -241.4 -56.05 -241.55 L-56.45 -238.8 Q-56.95 -236.7 -58.2 -236.2 -59.5 -237.15 -60.5 -240.65 L-60.9 -242.0 -60.8 -239.3 -61.4 -239.1 Q-62.05 -240.75 -63.3 -248.15 L-63.35 -248.4 -63.6 -244.65 Q-63.6 -244.2 -64.0 -243.9 L-64.4 -247.05 -65.4 -246.8 Q-66.35 -247.05 -66.95 -249.2 -67.4 -250.85 -67.3 -251.95 L-68.0 -251.45 Q-69.55 -251.9 -69.65 -253.9 L-69.5 -256.8 Q-69.5 -257.9 -70.0 -259.4 L-70.1 -259.75 Q-70.15 -257.95 -70.35 -256.4 L-71.35 -256.2 -71.95 -260.6 -72.8 -259.7 Q-73.55 -259.05 -74.85 -258.95 -75.1 -259.95 -75.15 -261.85 L-75.3 -265.05 -75.5 -265.55 -75.4 -263.0 Q-75.4 -257.35 -76.0 -254.75 L-76.45 -254.75 -77.3 -267.95 -77.65 -268.4 -78.1 -263.15 -78.7 -263.0 Q-79.3 -265.15 -79.3 -269.1 -79.3 -272.8 -78.95 -275.35 L-79.05 -275.75 -79.9 -281.6 -80.05 -281.6 Q-80.15 -276.6 -80.65 -272.15 L-81.1 -272.15 -81.45 -281.1 -82.2 -281.0 -82.2 -281.65 Q-83.25 -279.85 -83.75 -279.65 -85.8 -281.25 -85.65 -282.9 L-86.2 -283.15 -86.2 -281.8 -86.35 -281.6 -87.4 -281.45 -90.7 -281.7 -90.95 -276.45 -91.5 -276.35 Q-91.95 -281.1 -91.95 -290.9 L-91.95 -291.65 -92.9 -284.85 -93.35 -276.2 -93.85 -275.75 -94.2 -275.75 -94.45 -270.1 -95.05 -269.9 -95.25 -275.55 Q-96.3 -274.2 -97.1 -274.2 -97.85 -274.2 -97.7 -274.7 -97.6 -275.25 -98.3 -275.25 -99.15 -275.25 -99.15 -274.85 -99.15 -274.3 -99.3 -274.2 -99.9 -275.35 -100.4 -278.0 L-101.2 -282.75 -101.8 -287.05 -101.9 -287.65 -102.3 -283.5 -102.8 -282.75 -103.85 -291.0 -104.25 -296.9 -104.2 -298.25 -104.25 -298.1 -105.15 -298.1 -105.6 -304.5 -106.25 -305.45 -106.65 -300.45 -107.15 -300.45 Q-107.55 -304.2 -107.6 -310.75 L-107.9 -311.35 Q-108.1 -308.65 -108.45 -306.4 L-108.85 -306.4 -109.45 -313.45 -109.45 -324.15 -108.45 -324.3 Q-107.9 -321.85 -107.75 -318.6 L-107.6 -321.1 -107.5 -321.1 -107.25 -324.45 -106.55 -324.45 -106.25 -321.15 -105.0 -321.1 -104.25 -325.85 -104.0 -325.85 -104.1 -331.8 -104.1 -331.9 Q-104.6 -330.4 -105.5 -329.8 -105.8 -331.1 -105.75 -337.2 -105.7 -341.95 -107.6 -344.5 L-107.6 -351.55 -106.6 -351.65 Q-105.8 -351.55 -105.5 -350.95 -104.25 -353.05 -104.2 -358.2 -104.2 -359.25 -103.85 -359.9 L-103.95 -360.15 -104.1 -362.65 -103.95 -364.55 -103.25 -366.3 -102.5 -366.3 Q-102.25 -364.6 -102.25 -361.3 L-101.85 -361.35 Q-101.3 -362.15 -100.7 -363.45 L-100.6 -364.2 Q-100.55 -367.9 -100.15 -370.5 L-99.8 -370.5 -99.5 -368.5 -99.05 -368.5 -98.9 -367.95 Q-98.75 -372.95 -96.7 -374.45 -96.4 -372.65 -96.35 -369.4 L-96.1 -369.3 -95.35 -371.2 -94.45 -379.2 -93.95 -379.2 Q-93.3 -375.95 -93.25 -372.6 L-92.95 -372.5 -92.8 -376.7 Q-92.5 -379.45 -91.2 -380.8 -90.6 -379.05 -90.6 -375.6 L-90.5 -375.25 -89.1 -376.8 Q-88.5 -377.7 -88.5 -378.1 L-87.5 -378.15 Q-87.05 -381.15 -86.45 -382.1 L-86.15 -380.95 -86.15 -381.1 -85.65 -384.1 Q-85.15 -386.4 -85.15 -387.3 L-84.65 -387.3 -84.45 -386.25 -84.35 -384.7 -84.35 -383.45 -83.9 -383.7 Q-83.75 -385.7 -82.8 -390.25 L-82.4 -390.25 Q-81.7 -387.4 -81.7 -386.35 L-81.75 -385.4 -81.25 -384.4 Q-80.7 -386.45 -80.65 -387.45 L-80.1 -387.45 -80.05 -389.35 Q-80.0 -392.05 -80.25 -395.35 L-79.6 -395.45 -78.4 -395.35 -78.4 -389.75 -77.4 -390.4 Q-77.3 -392.3 -76.7 -393.6 -76.15 -392.85 -76.1 -391.25 L-75.5 -391.65 -74.55 -394.25 -74.25 -401.95 -73.65 -401.95 Q-73.35 -400.1 -73.2 -397.65 L-73.0 -398.35 -72.25 -402.1 -71.5 -405.35 M-96.0 -366.8 L-96.3 -366.85 -96.3 -366.2 -96.1 -366.05 -96.0 -366.8 M-100.65 -328.8 L-100.9 -329.3 -100.9 -327.3 -100.85 -327.95 -100.65 -328.8 M-102.55 -332.95 L-102.85 -322.2 -102.25 -322.95 -102.0 -331.7 -102.55 -332.95" fill="#2898f2" fill-rule="evenodd" stroke="none"/>
    <path d="M46.4 -671.45 L49.65 -672.0 54.85 -671.6 Q56.3 -664.15 56.3 -654.75 L56.25 -652.45 Q56.4 -650.85 56.7 -650.15 L56.7 -607.6 Q56.25 -598.75 57.45 -587.4 58.85 -574.5 58.85 -568.6 L58.6 -564.95 58.3 -564.9 58.35 -556.05 Q58.35 -553.25 58.8 -548.2 L59.4 -540.4 59.5 -521.35 59.4 -509.05 Q59.6 -485.75 59.4 -474.1 L58.35 -458.6 Q57.25 -443.8 57.25 -439.55 L57.6 -428.85 Q58.0 -418.3 58.35 -412.25 L58.4 -386.55 Q58.4 -383.7 57.45 -373.15 L57.0 -368.0 57.25 -366.05 57.25 -339.1 56.7 -337.95 56.7 -310.6 57.25 -309.4 57.25 -283.3 Q57.3 -273.05 58.35 -250.35 59.4 -228.0 59.4 -217.0 59.4 -205.75 59.9 -199.95 60.65 -191.15 62.8 -184.5 64.8 -181.9 68.35 -179.45 74.8 -175.05 84.15 -172.55 L99.6 -169.05 Q107.55 -167.3 111.35 -165.6 115.0 -164.0 119.0 -161.4 124.0 -158.15 124.85 -156.05 L124.85 -156.0 Q128.4 -152.85 130.9 -148.85 132.75 -145.9 135.85 -138.35 136.8 -136.0 137.25 -127.3 L137.5 -117.9 137.35 -114.55 137.35 -114.35 137.5 -114.05 Q137.0 -109.9 134.05 -105.3 L134.1 -104.9 133.45 -104.35 133.3 -104.1 133.2 -103.95 133.15 -103.95 Q131.9 -102.15 130.25 -100.3 124.1 -93.2 116.7 -89.4 L116.15 -89.15 Q115.6 -89.05 115.6 -89.9 115.6 -90.55 118.1 -92.9 L123.6 -97.95 Q131.55 -105.65 131.55 -110.8 131.55 -114.8 127.95 -116.35 125.8 -117.1 124.75 -117.55 124.25 -117.75 123.85 -118.0 L121.4 -118.7 98.95 -115.35 79.5 -109.35 Q64.45 -105.0 48.85 -102.2 43.2 -100.6 36.35 -99.85 L35.5 -99.95 35.55 -100.0 33.1 -99.65 32.8 -99.7 23.2 -98.3 20.7 -98.05 3.85 -96.25 -8.65 -96.1 -8.55 -96.7 Q-8.6 -97.15 -9.2 -97.6 L-9.85 -98.0 -13.75 -98.2 -18.45 -98.75 -0.6 -99.4 6.8 -99.95 Q18.6 -101.5 31.7 -104.75 38.3 -105.8 46.9 -108.25 L59.35 -111.6 Q70.05 -114.7 75.85 -117.0 L83.5 -119.4 Q89.3 -121.35 96.95 -124.5 L104.3 -127.45 Q107.0 -129.25 107.0 -130.9 107.0 -134.0 99.0 -135.85 L85.1 -135.7 79.55 -135.4 Q69.1 -130.8 60.7 -128.35 45.55 -123.95 15.45 -120.55 L10.65 -120.0 6.2 -119.85 1.55 -119.45 -4.45 -119.15 -6.55 -118.55 -13.3 -117.8 -38.55 -117.45 -39.05 -117.25 -43.35 -117.25 Q-83.8 -117.45 -84.05 -117.8 L-86.6 -117.95 -89.2 -118.3 -91.25 -118.4 -92.5 -118.5 -95.55 -118.45 -98.65 -118.7 -100.1 -118.9 -101.75 -119.25 -104.1 -119.4 -106.7 -119.8 -108.65 -119.95 -110.85 -120.3 -113.15 -120.45 -115.6 -120.85 -126.25 -122.1 -144.1 -125.25 -149.35 -125.8 -154.15 -126.35 -156.85 -126.9 -180.5 -133.1 -186.6 -133.9 -193.2 -135.0 Q-199.9 -134.1 -202.65 -131.5 -204.7 -129.6 -204.7 -126.25 -204.7 -124.15 -202.1 -122.0 -202.1 -122.55 -201.95 -121.85 -200.15 -120.4 -197.05 -118.9 L-194.6 -117.05 Q-191.95 -115.85 -188.55 -114.7 L-172.45 -109.9 -165.85 -108.1 Q-159.95 -105.65 -147.65 -103.8 L-147.25 -103.75 -146.7 -103.6 Q-141.35 -102.25 -133.0 -101.25 L-108.05 -99.65 -106.35 -99.45 -106.8 -99.85 -104.0 -99.55 -101.7 -99.35 -99.3 -98.9 -102.05 -98.85 -104.55 -99.0 -104.4 -98.9 -102.35 -98.7 -108.3 -99.05 -109.25 -99.05 -110.3 -98.75 -115.05 -98.2 -115.55 -98.1 -121.65 -97.65 -125.05 -98.1 -135.3 -98.95 -145.65 -100.65 -154.3 -101.5 -159.7 -102.05 Q-169.0 -103.35 -178.7 -105.7 L-195.25 -109.35 -195.85 -109.8 -196.0 -109.55 -199.15 -111.0 -202.8 -113.2 Q-204.55 -114.55 -208.5 -115.65 L-213.15 -116.6 Q-220.0 -116.6 -227.8 -114.35 -237.25 -111.6 -237.25 -107.65 -237.25 -104.0 -234.75 -100.85 -232.5 -98.05 -226.5 -93.6 -226.5 -92.9 -227.35 -92.7 L-230.7 -94.6 Q-233.1 -95.95 -234.55 -97.4 L-234.5 -96.75 Q-234.4 -96.25 -234.55 -96.1 L-234.9 -96.4 Q-231.55 -90.85 -227.35 -86.65 -235.0 -92.65 -239.8 -103.1 -244.2 -112.75 -244.2 -121.3 -244.2 -128.45 -239.2 -136.8 -234.1 -145.4 -225.5 -152.05 -214.9 -160.3 -200.3 -164.65 -192.05 -167.1 -179.3 -170.2 L-165.1 -173.9 Q-163.2 -177.0 -162.4 -181.25 L-160.6 -192.05 -160.6 -202.65 Q-160.45 -207.8 -159.5 -210.75 -159.0 -214.8 -159.0 -216.8 -159.0 -221.65 -160.6 -241.1 L-160.5 -265.0 Q-160.5 -268.65 -161.45 -276.65 -162.3 -284.0 -162.1 -288.1 L-162.1 -315.45 Q-162.65 -317.9 -162.65 -322.5 L-162.55 -328.45 -163.2 -341.55 -163.35 -370.25 -162.9 -394.55 -162.25 -416.25 -162.25 -456.15 -162.5 -456.15 -163.35 -484.65 -163.0 -490.4 -162.25 -498.75 -162.25 -538.1 Q-162.8 -539.65 -162.8 -543.4 L-162.8 -544.0 -163.05 -544.0 Q-163.35 -549.2 -163.35 -559.9 L-163.0 -571.1 -162.25 -588.55 -162.25 -617.1 Q-160.65 -625.15 -160.65 -640.2 L-161.7 -654.8 -161.4 -661.05 -161.05 -668.75 -161.45 -668.65 -161.5 -668.45 -161.55 -669.25 Q-161.55 -670.1 -161.1 -670.4 L-160.65 -670.5 -154.2 -670.1 -150.25 -669.6 -150.2 -668.85 Q-150.2 -668.5 -151.0 -668.5 L-151.15 -668.5 Q-150.0 -660.5 -149.65 -656.25 L-150.0 -656.35 -149.75 -655.9 Q-147.6 -652.35 -138.05 -651.3 -131.1 -651.25 -126.7 -651.5 L-122.85 -651.8 -122.85 -652.05 -120.75 -652.1 -120.45 -652.15 -120.2 -652.1 -118.2 -652.05 -110.3 -651.3 -95.45 -647.4 -88.6 -645.75 Q-88.55 -646.45 -88.3 -645.7 L-82.2 -644.5 -80.05 -644.25 -76.7 -644.55 Q-75.4 -645.9 -72.65 -646.7 L-60.85 -647.25 Q-55.35 -646.55 -50.95 -644.75 -44.9 -643.55 -38.25 -640.75 -27.05 -636.0 -18.7 -634.75 L-10.55 -634.4 1.0 -633.7 6.9 -633.8 12.8 -634.55 18.5 -636.55 Q23.8 -638.3 24.75 -638.8 L29.35 -641.4 34.2 -644.05 Q38.05 -645.95 42.0 -649.45 45.5 -653.2 46.2 -658.25 46.6 -660.95 45.95 -668.1 L45.95 -670.55 45.35 -670.9 45.95 -671.25 45.95 -671.45 46.4 -671.45 M45.8 -600.0 Q45.0 -601.2 42.35 -601.75 40.7 -600.65 39.1 -599.25 32.7 -593.05 29.0 -590.25 28.0 -589.55 24.95 -586.2 22.75 -583.55 18.55 -580.45 9.55 -573.85 -0.55 -573.85 -5.2 -573.85 -10.6 -575.85 -14.9 -576.65 -16.95 -577.65 L-19.4 -579.05 Q-20.9 -579.35 -26.4 -583.65 L-35.95 -591.35 Q-38.2 -593.15 -44.75 -596.0 -50.9 -598.65 -57.8 -601.0 -74.55 -600.9 -74.9 -600.6 L-79.75 -600.1 -93.95 -600.5 Q-99.35 -602.15 -102.8 -603.65 L-108.95 -606.1 Q-112.55 -607.35 -120.6 -609.1 L-132.25 -611.7 -139.2 -612.1 -139.15 -611.7 -139.0 -611.55 -139.7 -611.6 Q-144.15 -611.6 -147.35 -609.45 L-148.55 -608.6 Q-150.35 -607.05 -151.75 -604.75 L-153.25 -601.6 -153.95 -596.35 -154.3 -591.9 Q-154.3 -583.05 -152.9 -574.7 -151.3 -565.35 -151.0 -555.5 -150.55 -543.45 -150.45 -537.45 L-149.8 -526.75 -149.25 -519.6 Q-149.25 -518.45 -149.6 -516.05 L-149.95 -513.8 -149.25 -496.5 Q-149.25 -484.0 -152.0 -465.0 -154.75 -446.0 -154.75 -443.9 -154.75 -440.4 -153.1 -430.25 -151.5 -420.15 -151.5 -416.0 L-151.5 -415.3 -151.35 -415.3 -150.5 -400.3 -149.5 -398.8 Q-148.7 -397.45 -148.75 -396.65 L-147.75 -395.7 -145.4 -393.85 -144.0 -392.9 Q-138.9 -389.6 -132.35 -388.0 L-129.5 -388.2 Q-126.9 -389.7 -125.6 -392.75 L-125.55 -393.8 Q-124.65 -420.3 -124.65 -433.5 L-123.7 -449.65 Q-123.05 -459.4 -122.0 -466.15 -120.75 -473.95 -118.45 -480.4 -117.55 -495.55 -103.0 -526.7 -98.0 -537.3 -86.85 -545.2 -76.9 -552.2 -64.35 -555.65 -52.55 -558.85 -43.0 -557.85 -38.3 -557.35 -35.15 -555.9 -26.35 -556.5 -16.85 -549.6 -6.55 -542.1 -1.55 -531.8 2.55 -519.3 4.05 -513.3 6.9 -502.1 6.65 -494.8 6.1 -479.55 5.6 -449.8 L5.55 -446.3 5.5 -441.75 6.2 -379.45 6.65 -375.1 Q7.15 -371.15 6.85 -363.65 6.5 -355.75 6.85 -352.25 7.35 -346.9 9.6 -342.4 13.45 -342.65 17.35 -344.1 28.85 -354.05 35.95 -365.5 44.6 -379.35 44.65 -392.15 L45.0 -392.15 44.8 -394.25 Q43.35 -410.05 43.35 -415.55 43.35 -420.75 44.5 -429.55 L45.9 -440.3 46.5 -455.75 46.95 -475.05 Q47.1 -481.25 46.85 -493.95 46.65 -506.75 46.75 -513.2 L46.75 -551.75 Q46.2 -554.15 46.2 -559.2 46.2 -567.05 47.05 -572.45 47.9 -577.8 47.9 -582.7 L47.9 -587.35 Q47.85 -591.35 47.3 -593.55 47.0 -594.75 46.75 -598.4 46.2 -599.05 45.8 -600.0 M1.8 -487.2 Q1.8 -502.6 1.5 -504.5 1.15 -506.75 -4.2 -524.6 -7.3 -535.0 -16.75 -542.45 -22.65 -547.1 -31.15 -550.75 L-34.1 -550.3 Q-35.45 -550.3 -39.9 -551.35 L-45.65 -552.4 Q-57.25 -552.4 -72.75 -545.3 -85.5 -539.5 -89.1 -535.5 -94.1 -530.05 -97.2 -525.3 -100.55 -520.2 -103.0 -513.8 -107.2 -503.0 -109.75 -495.2 L-109.7 -494.9 Q-114.95 -480.3 -117.3 -461.6 -119.05 -447.75 -119.4 -428.65 -119.05 -406.2 -119.3 -395.2 L-119.5 -389.75 Q-117.5 -376.15 -117.3 -357.7 -117.6 -328.75 -116.9 -315.1 -116.0 -297.15 -115.05 -263.6 -114.3 -235.65 -114.3 -231.25 L-116.05 -206.55 Q-115.6 -203.05 -115.6 -200.8 -115.6 -197.6 -116.1 -190.85 L-116.65 -183.2 Q-116.65 -171.4 -113.9 -164.3 -111.7 -158.5 -106.5 -151.75 -104.3 -150.45 -102.0 -149.25 -97.55 -148.05 -91.95 -147.4 L-9.05 -147.0 -3.4 -147.5 Q-2.45 -147.85 -1.9 -148.55 L-1.05 -147.75 2.1 -147.75 Q8.9 -151.2 11.9 -154.45 L13.75 -158.6 14.4 -160.35 14.55 -161.4 15.0 -161.95 Q18.6 -172.5 18.9 -181.75 19.8 -189.2 20.65 -201.85 L21.35 -215.5 20.9 -226.9 Q20.55 -235.45 20.5 -240.75 L19.3 -248.65 Q17.4 -257.9 12.45 -265.15 8.3 -266.95 5.3 -275.0 L3.8 -279.3 3.65 -279.3 3.6 -280.1 Q2.35 -284.35 2.35 -287.4 L2.45 -297.3 1.95 -313.45 Q1.8 -321.5 1.8 -347.55 L2.05 -368.7 Q1.75 -375.0 1.6 -386.85 L1.05 -407.25 Q1.05 -433.75 1.8 -487.2 M44.1 -302.8 Q43.9 -304.35 43.2 -306.05 42.35 -308.3 41.25 -308.85 34.35 -306.8 29.7 -300.7 27.0 -297.15 24.3 -290.7 L23.2 -287.45 22.4 -281.5 Q21.35 -274.15 21.35 -272.85 21.35 -265.9 21.6 -263.3 22.15 -258.2 24.25 -252.0 L24.25 -246.3 24.4 -245.35 Q25.55 -237.55 25.55 -215.1 25.55 -196.45 23.95 -181.2 L24.95 -179.05 Q25.55 -177.45 26.1 -176.65 27.15 -176.2 30.45 -175.65 L31.15 -175.5 Q40.85 -186.3 45.15 -199.6 48.85 -210.9 49.2 -227.45 L48.05 -240.1 46.95 -253.05 Q46.55 -258.35 46.5 -265.65 L46.5 -278.35 45.2 -294.95 44.5 -302.95 44.1 -302.8 M7.25 -128.9 Q11.25 -128.9 17.75 -130.8 L23.65 -132.75 16.85 -131.45 Q10.8 -129.95 7.95 -129.7 L6.5 -129.85 6.45 -129.85 4.05 -129.45 4.7 -129.3 7.25 -128.9 M57.8 -140.9 L57.8 -141.2 46.0 -138.3 Q36.85 -135.95 33.55 -134.65 45.0 -135.65 49.9 -137.55 52.7 -138.6 57.8 -140.9 M7.7 -66.3 L8.3 -66.55 9.05 -66.3 Q33.3 -66.55 33.65 -66.75 L39.05 -66.75 Q40.25 -66.55 40.35 -66.2 L33.1 -65.45 8.8 -65.55 7.7 -66.3 M-152.75 -605.0 L-152.8 -604.75 -152.5 -605.25 -152.75 -605.0 M-140.65 -343.85 L-143.1 -343.45 -144.5 -343.1 -144.15 -343.1 Q-145.15 -342.7 -145.75 -342.1 L-145.85 -342.1 -147.9 -340.25 Q-148.4 -339.8 -148.7 -338.85 L-149.1 -338.85 -149.0 -339.2 -149.25 -338.9 Q-149.7 -335.05 -150.7 -328.95 L-151.0 -328.65 -151.3 -329.35 -151.15 -299.1 Q-151.65 -298.1 -151.65 -296.1 -151.65 -286.0 -150.95 -279.45 -149.75 -270.05 -148.8 -259.7 -148.5 -256.55 -149.0 -250.7 -149.5 -244.45 -149.35 -241.65 L-148.85 -232.6 -148.25 -223.6 Q-148.25 -217.55 -147.9 -214.55 -147.35 -209.4 -144.85 -205.45 -143.9 -203.95 -140.5 -201.35 L-136.55 -198.65 -134.4 -198.55 -131.5 -198.85 -130.55 -199.2 Q-127.0 -200.25 -125.8 -205.35 L-125.45 -206.85 -125.45 -207.6 -124.95 -208.15 -124.05 -221.85 -121.8 -252.5 -121.3 -252.5 -120.75 -268.85 -120.75 -253.8 -120.75 -252.5 -120.45 -252.5 Q-119.75 -245.75 -119.15 -234.9 L-119.55 -262.75 Q-120.1 -296.25 -120.75 -313.55 L-120.8 -315.4 -120.8 -297.65 -120.8 -277.7 -121.0 -284.45 Q-121.35 -298.3 -121.8 -306.05 L-122.35 -314.9 Q-122.85 -320.05 -123.9 -323.75 L-125.3 -328.0 -125.3 -333.65 Q-126.9 -338.35 -129.8 -342.1 -132.45 -343.5 -134.85 -344.2 L-140.65 -343.85 M-167.55 -76.3 L-152.2 -73.7 Q-151.35 -73.45 -151.25 -73.2 L-152.6 -72.8 Q-166.6 -74.05 -171.5 -75.5 -174.5 -76.4 -179.05 -78.55 L-179.05 -78.95 -178.2 -78.95 Q-177.2 -78.05 -167.55 -76.3 M-33.55 -99.05 L-33.3 -99.0 -31.35 -98.65 Q-30.0 -98.65 -28.85 -99.2 L-28.7 -99.2 -18.4 -98.55 -19.75 -98.35 -19.85 -98.3 -21.85 -98.2 -23.15 -98.25 -26.7 -98.1 -44.4 -97.55 -47.6 -97.55 -59.95 -96.9 Q-77.55 -97.0 -77.75 -97.35 L-81.8 -97.6 -85.9 -97.8 -90.85 -98.1 -91.6 -99.05 -91.55 -99.05 -91.05 -99.0 -90.95 -99.0 -85.85 -98.85 -80.3 -98.35 -77.0 -98.1 -59.5 -98.2 -53.6 -98.45 -47.25 -98.4 -46.75 -98.45 -43.9 -98.9 -35.2 -99.05 -33.55 -99.05 M-160.8 -138.05 Q-159.65 -136.75 -158.9 -136.2 -157.65 -135.25 -151.9 -134.65 L-151.55 -134.4 -147.25 -134.65 Q-148.8 -135.7 -153.15 -136.65 L-160.8 -138.05 M-104.15 -127.9 L-104.95 -128.1 Q-105.75 -128.3 -105.9 -128.45 L-111.65 -128.35 Q-110.1 -128.15 -109.75 -127.8 L-104.15 -127.9 M-107.6 -99.45 L-107.1 -99.45 -107.55 -99.5 -107.6 -99.45" fill="#a0f7fe" fill-rule="evenodd" stroke="none"/>
  </g>
</svg>
