<?xml version="1.0" encoding="UTF-8" standalone="no"?>
<svg xmlns:ffdec="https://www.free-decompiler.com/flash" xmlns:xlink="http://www.w3.org/1999/xlink" ffdec:objectType="shape" height="579.15px" width="838.05px" xmlns="http://www.w3.org/2000/svg">
  <g transform="matrix(1.0, 0.0, 0.0, 1.0, 325.8, 782.0)">
    <path d="M509.9 -781.55 L512.25 -781.55 512.25 -781.0 512.05 -780.85 511.1 -779.7 510.9 -779.7 Q505.45 -773.95 498.75 -765.05 482.75 -743.65 474.0 -720.35 L461.8 -686.65 Q455.85 -670.45 452.05 -663.55 L448.65 -654.45 Q444.6 -643.35 442.75 -635.35 428.55 -576.45 390.6 -522.3 L386.75 -518.6 385.7 -517.7 363.25 -488.2 Q346.8 -467.4 331.0 -450.85 L294.55 -414.85 Q272.25 -392.5 263.0 -377.75 L262.75 -377.25 Q262.5 -377.05 262.5 -378.6 L262.55 -379.25 250.25 -363.1 Q236.85 -345.0 231.75 -332.75 213.45 -291.75 205.5 -270.9 194.1 -241.15 191.3 -218.35 L191.3 -218.1 191.3 -215.8 192.7 -213.8 192.5 -211.5 Q192.4 -209.75 192.65 -208.15 L192.6 -208.0 192.65 -208.0 192.65 -207.65 Q192.7 -205.2 191.35 -202.85 L190.1 -204.0 189.05 -204.8 Q190.0 -206.4 190.0 -207.75 L189.95 -208.8 189.25 -211.25 189.25 -211.65 189.2 -214.3 Q183.8 -219.4 160.15 -226.8 L141.9 -232.15 142.4 -229.65 Q126.65 -234.0 117.25 -235.75 L112.75 -236.05 107.75 -236.75 103.0 -237.05 97.8 -237.75 83.65 -240.65 81.65 -241.05 80.05 -241.0 73.1 -241.7 Q68.05 -242.4 67.6 -242.75 L63.6 -243.05 59.15 -243.75 50.2 -244.55 Q46.25 -245.1 45.75 -245.5 L41.35 -245.8 36.5 -246.5 26.45 -247.3 22.45 -247.75 4.95 -248.05 -13.0 -248.75 -18.9 -249.05 -25.25 -249.75 -28.3 -249.95 -29.6 -250.0 -29.5 -249.75 -29.8 -249.45 Q-30.2 -249.15 -30.85 -249.0 L-32.2 -249.2 -34.0 -249.75 -54.5 -250.75 -83.4 -251.65 -109.0 -251.5 -126.0 -250.6 -143.0 -249.75 -165.75 -249.35 -165.35 -249.6 -186.9 -249.25 Q-238.0 -244.85 -275.45 -236.6 -294.85 -232.35 -321.6 -224.7 -322.45 -224.15 -323.6 -224.0 L-323.65 -224.1 -323.75 -224.1 -323.75 -224.3 -324.55 -225.85 Q-325.1 -227.0 -325.1 -228.5 -325.1 -234.25 -323.7 -239.95 L-325.7 -234.9 -325.8 -235.4 -323.1 -241.25 Q-320.1 -247.6 -320.1 -249.75 L-320.3 -251.6 Q-317.15 -257.75 -315.95 -259.25 L-302.8 -276.5 Q-295.4 -285.65 -289.6 -288.5 L-283.95 -293.8 Q-270.25 -306.3 -259.85 -313.5 -224.95 -337.55 -208.1 -348.2 -179.55 -366.35 -150.35 -381.25 L-155.5 -377.65 -125.0 -394.7 Q-101.0 -408.25 -83.75 -419.5 -73.75 -426.05 -61.55 -435.15 -47.3 -445.7 -38.65 -453.5 -33.8 -457.85 -22.75 -470.85 -17.2 -477.35 -13.1 -481.4 11.15 -514.5 15.7 -547.6 L17.8 -561.1 17.15 -559.6 16.4 -559.6 Q20.85 -575.8 20.55 -590.1 20.3 -601.95 16.45 -618.5 13.7 -630.3 10.55 -639.25 L8.9 -642.85 Q5.95 -649.2 2.1 -656.0 -1.45 -662.25 -5.75 -668.75 L-12.15 -676.9 -26.1 -695.1 Q-28.4 -698.25 -31.2 -703.65 -36.2 -711.6 -40.55 -720.8 -50.45 -741.6 -56.0 -765.5 -57.65 -772.6 -58.55 -780.05 L-58.85 -780.05 -57.6 -781.1 -56.6 -782.0 -56.55 -781.75 509.1 -781.85 509.25 -781.55 509.9 -781.55 M92.65 -241.05 L91.0 -241.0 90.45 -241.0 99.45 -239.25 101.35 -239.1 94.55 -240.65 92.65 -241.05" fill="#9383eb" fill-opacity="0.45882353" fill-rule="evenodd" stroke="none"/>
    <path d="M211.7 -646.35 Q212.7 -647.35 213.5 -648.85 221.45 -646.55 234.65 -634.35 249.4 -620.75 257.25 -606.6 262.5 -596.95 265.55 -581.8 268.25 -568.45 268.25 -556.35 268.25 -546.15 266.8 -539.6 L263.75 -536.5 Q260.45 -533.35 257.5 -533.35 L254.8 -533.45 254.0 -533.6 240.0 -534.6 Q239.25 -535.1 205.0 -535.35 174.8 -532.0 160.8 -527.05 157.8 -526.0 150.95 -522.95 145.35 -520.5 140.5 -519.1 L139.85 -518.1 146.0 -520.5 154.75 -523.85 Q159.5 -525.7 163.5 -526.8 174.8 -529.9 199.5 -532.3 L212.75 -531.65 212.8 -531.65 222.0 -531.85 226.8 -531.15 231.25 -530.85 Q231.4 -530.55 235.85 -530.15 L240.25 -529.85 248.8 -529.3 259.0 -529.1 Q261.4 -529.1 263.05 -530.1 258.9 -522.8 250.5 -514.6 246.95 -511.1 240.5 -503.75 234.0 -496.3 230.4 -492.8 219.55 -482.05 206.05 -476.35 L206.0 -476.35 Q174.0 -470.25 140.4 -453.15 136.0 -450.0 130.95 -447.25 125.9 -444.5 119.6 -441.8 L114.25 -438.3 Q102.5 -431.2 87.5 -421.6 L80.5 -417.35 81.25 -418.1 73.9 -413.95 Q67.2 -408.75 57.95 -404.4 L48.4 -400.35 Q34.85 -393.55 26.5 -390.6 L28.15 -390.45 26.5 -390.35 Q26.5 -390.05 27.8 -389.8 21.55 -386.7 19.4 -383.95 L19.25 -384.1 18.5 -384.1 Q18.5 -383.65 18.8 -383.05 18.25 -382.1 18.25 -381.25 18.25 -380.55 20.0 -378.35 23.2 -377.9 24.0 -377.1 L24.35 -377.1 Q21.05 -378.5 20.4 -380.65 L22.5 -378.6 26.0 -378.1 30.4 -377.45 34.5 -376.2 Q39.5 -374.5 48.0 -373.85 L64.8 -373.15 81.25 -372.85 Q80.0 -371.6 77.25 -370.85 77.1 -370.6 76.8 -370.75 L76.8 -370.45 61.75 -370.85 Q61.25 -371.35 53.75 -371.85 L43.9 -373.25 40.6 -372.85 35.35 -373.5 31.25 -374.35 24.35 -374.95 25.1 -374.85 -14.0 -374.85 -18.8 -375.05 Q-19.95 -375.4 -20.8 -375.85 L-21.15 -375.8 -24.85 -375.75 -21.3 -376.15 -22.15 -376.85 Q-29.85 -376.7 -30.0 -376.85 L-30.45 -377.3 -32.35 -377.05 -38.3 -377.0 -41.0 -377.35 -43.5 -377.6 Q-43.75 -378.1 -44.5 -378.1 L-44.5 -376.95 -60.0 -376.85 Q-107.85 -385.7 -123.6 -397.55 -129.9 -402.25 -134.75 -409.95 L-139.55 -417.95 -138.3 -416.4 -138.85 -417.55 -139.75 -419.65 -143.05 -423.95 -143.75 -425.1 -143.9 -425.1 -147.95 -431.4 Q-157.55 -447.55 -162.5 -468.85 -166.25 -485.05 -166.25 -497.75 -166.25 -514.8 -162.3 -532.05 -158.15 -550.3 -150.25 -565.6 -141.3 -582.85 -118.55 -598.95 -110.65 -604.55 -102.1 -609.25 -86.2 -617.0 -70.9 -622.2 -44.4 -631.2 -10.25 -636.6 L-2.0 -637.1 Q-1.5 -637.35 -1.25 -637.85 L7.0 -638.35 16.3 -639.35 40.0 -640.35 55.3 -640.9 70.0 -641.1 75.2 -640.4 80.0 -640.1 85.95 -639.4 91.5 -639.1 97.75 -638.4 104.0 -638.1 118.9 -636.7 127.0 -635.85 127.7 -635.6 124.5 -635.6 121.4 -635.85 111.0 -635.35 105.2 -634.65 100.0 -634.35 93.2 -633.65 87.0 -633.35 82.2 -632.65 78.0 -632.35 Q55.8 -629.0 45.2 -624.05 36.25 -618.6 29.25 -616.1 29.4 -615.65 30.7 -615.3 L32.0 -615.1 Q49.4 -621.6 62.6 -624.9 84.75 -630.45 116.0 -633.85 L142.65 -634.2 146.0 -634.1 146.6 -634.25 152.0 -634.35 163.1 -635.75 169.0 -636.1 Q197.55 -640.2 205.0 -642.7 209.55 -644.2 211.7 -646.35" fill="#ffffff" fill-rule="evenodd" stroke="none"/>
    <path d="M211.95 -650.8 L212.75 -651.35 212.65 -652.7 212.25 -657.1 213.25 -657.35 Q215.05 -651.35 223.2 -644.85 L230.9 -639.05 Q235.9 -635.25 239.25 -632.1 244.1 -627.5 250.0 -619.45 254.75 -612.9 258.5 -606.6 264.8 -595.85 267.55 -581.65 269.75 -570.2 269.75 -555.6 269.75 -544.7 267.9 -537.85 L267.75 -537.7 Q264.75 -534.9 264.75 -532.75 264.75 -532.25 265.45 -531.25 261.55 -523.3 253.25 -513.6 241.15 -499.6 228.05 -487.8 212.3 -473.6 206.5 -473.6 L203.8 -473.7 203.0 -473.85 202.85 -474.05 189.9 -470.35 172.0 -465.1 Q166.25 -463.25 158.45 -459.4 L144.0 -452.1 Q134.05 -447.2 125.65 -442.7 118.9 -437.45 108.3 -430.8 L89.65 -419.75 82.25 -414.95 78.5 -412.6 Q70.85 -406.5 56.15 -400.0 L46.75 -396.2 48.75 -396.35 Q42.1 -394.2 36.8 -392.1 L34.4 -391.1 37.5 -391.45 32.9 -389.4 30.65 -389.5 30.05 -389.25 Q21.25 -385.15 20.35 -382.35 20.55 -381.2 21.15 -380.65 22.2 -379.75 25.75 -379.05 L26.0 -379.35 Q29.55 -379.35 34.45 -377.85 L37.5 -377.6 39.2 -377.6 41.2 -376.95 41.6 -376.8 37.6 -376.95 Q42.85 -375.6 49.0 -374.85 L82.25 -375.1 82.75 -375.4 84.0 -375.85 85.65 -375.55 83.5 -373.45 80.25 -369.95 Q67.6 -369.5 51.95 -369.6 L48.75 -369.6 46.9 -369.85 Q42.45 -370.45 42.25 -370.85 L38.3 -371.15 Q34.3 -371.55 34.0 -371.85 L30.7 -372.15 27.0 -372.85 6.2 -373.15 -15.0 -373.85 -32.6 -374.55 -32.65 -374.6 -38.5 -375.1 -39.05 -375.2 -61.0 -375.85 Q-105.7 -382.25 -125.2 -397.2 -132.8 -403.05 -137.7 -411.0 -140.35 -415.3 -143.95 -423.85 L-147.0 -428.4 Q-151.55 -435.6 -154.5 -442.35 -161.85 -459.25 -164.65 -470.45 -167.75 -482.95 -167.75 -497.85 -167.75 -539.95 -149.7 -568.45 -133.0 -594.8 -100.15 -611.8 L-96.5 -613.65 -95.15 -614.3 -89.75 -616.8 -90.55 -616.25 Q-82.15 -619.65 -70.0 -623.35 -65.55 -624.75 -59.35 -627.25 -52.65 -629.95 -49.15 -631.1 -35.4 -635.65 -10.0 -638.6 6.85 -639.6 8.0 -640.35 L41.0 -642.35 Q70.25 -642.1 71.0 -641.6 L81.0 -640.6 92.5 -639.6 105.0 -638.6 119.2 -637.8 128.0 -636.85 Q136.25 -636.35 137.0 -635.85 L141.7 -636.05 147.0 -636.6 152.7 -636.9 159.0 -637.6 163.75 -637.85 164.4 -638.0 166.25 -638.1 166.3 -638.05 170.0 -638.6 Q193.3 -639.8 205.85 -646.7 208.3 -648.05 211.95 -650.8 M211.7 -646.35 Q209.55 -644.2 205.0 -642.7 197.55 -640.2 169.0 -636.1 L163.1 -635.75 152.0 -634.35 146.6 -634.25 146.0 -634.1 142.65 -634.2 116.0 -633.85 Q84.75 -630.45 62.6 -624.9 49.4 -621.6 32.0 -615.1 L30.7 -615.3 Q29.4 -615.65 29.25 -616.1 36.25 -618.6 45.2 -624.05 55.8 -629.0 78.0 -632.35 L82.2 -632.65 87.0 -633.35 93.2 -633.65 100.0 -634.35 105.2 -634.65 111.0 -635.35 121.4 -635.85 124.5 -635.6 127.7 -635.6 127.0 -635.85 118.9 -636.7 104.0 -638.1 97.75 -638.4 91.5 -639.1 85.95 -639.4 80.0 -640.1 75.2 -640.4 70.0 -641.1 55.3 -640.9 40.0 -640.35 16.3 -639.35 7.0 -638.35 -1.25 -637.85 Q-1.5 -637.35 -2.0 -637.1 L-10.25 -636.6 Q-44.4 -631.2 -70.9 -622.2 -86.2 -617.0 -102.1 -609.25 -110.65 -604.55 -118.55 -598.95 -141.3 -582.85 -150.25 -565.6 -158.15 -550.3 -162.3 -532.05 -166.25 -514.8 -166.25 -497.75 -166.25 -485.05 -162.5 -468.85 -157.55 -447.55 -147.95 -431.4 L-143.9 -425.1 -143.75 -425.1 -143.05 -423.95 -139.75 -419.65 -138.85 -417.55 -138.3 -416.4 -139.55 -417.95 -134.75 -409.95 Q-129.9 -402.25 -123.6 -397.55 -107.85 -385.7 -60.0 -376.85 L-44.5 -376.95 -44.5 -378.1 Q-43.75 -378.1 -43.5 -377.6 L-41.0 -377.35 -38.3 -377.0 -32.35 -377.05 -30.45 -377.3 -30.0 -376.85 Q-29.85 -376.7 -22.15 -376.85 L-21.3 -376.15 -24.85 -375.75 -21.15 -375.8 -20.8 -375.85 Q-19.95 -375.4 -18.8 -375.05 L-14.0 -374.85 25.1 -374.85 24.35 -374.95 31.25 -374.35 35.35 -373.5 40.6 -372.85 43.9 -373.25 53.75 -371.85 Q61.25 -371.35 61.75 -370.85 L76.8 -370.45 76.8 -370.75 Q77.1 -370.6 77.25 -370.85 80.0 -371.6 81.25 -372.85 L64.8 -373.15 48.0 -373.85 Q39.5 -374.5 34.5 -376.2 L30.4 -377.45 26.0 -378.1 22.5 -378.6 20.4 -380.65 Q21.05 -378.5 24.35 -377.1 L24.0 -377.1 Q23.2 -377.9 20.0 -378.35 18.25 -380.55 18.25 -381.25 18.25 -382.1 18.8 -383.05 18.5 -383.65 18.5 -384.1 L19.25 -384.1 19.4 -383.95 Q21.55 -386.7 27.8 -389.8 26.5 -390.05 26.5 -390.35 L28.15 -390.45 26.5 -390.6 Q34.85 -393.55 48.4 -400.35 L57.95 -404.4 Q67.2 -408.75 73.9 -413.95 L81.25 -418.1 80.5 -417.35 87.5 -421.6 Q102.5 -431.2 114.25 -438.3 L119.6 -441.8 Q125.9 -444.5 130.95 -447.25 136.0 -450.0 140.4 -453.15 174.0 -470.25 206.0 -476.35 L206.05 -476.35 Q219.55 -482.05 230.4 -492.8 234.0 -496.3 240.5 -503.75 246.95 -511.1 250.5 -514.6 258.9 -522.8 263.05 -530.1 261.4 -529.1 259.0 -529.1 L248.8 -529.3 240.25 -529.85 235.85 -530.15 Q231.4 -530.55 231.25 -530.85 L226.8 -531.15 222.0 -531.85 212.8 -531.65 212.75 -531.65 199.5 -532.3 Q174.8 -529.9 163.5 -526.8 159.5 -525.7 154.75 -523.85 L146.0 -520.5 139.85 -518.1 140.5 -519.1 Q145.35 -520.5 150.95 -522.95 157.8 -526.0 160.8 -527.05 174.8 -532.0 205.0 -535.35 239.25 -535.1 240.0 -534.6 L254.0 -533.6 254.8 -533.45 257.5 -533.35 Q260.45 -533.35 263.75 -536.5 L266.8 -539.6 Q268.25 -546.15 268.25 -556.35 268.25 -568.45 265.55 -581.8 262.5 -596.95 257.25 -606.6 249.4 -620.75 234.65 -634.35 221.45 -646.55 213.5 -648.85 212.7 -647.35 211.7 -646.35 M80.0 -630.35 L85.0 -630.85 78.0 -631.1 Q68.05 -630.05 58.0 -627.05 51.8 -625.15 46.5 -622.85 54.7 -623.7 62.9 -625.8 L80.0 -630.35 M248.5 -533.1 Q241.7 -532.95 239.0 -534.1 L204.75 -533.85 223.0 -532.85 232.75 -531.85 Q241.25 -531.35 241.75 -530.85 L258.25 -531.1 Q254.8 -533.2 248.5 -533.1" fill="#ffffff" fill-opacity="0.9019608" fill-rule="evenodd" stroke="none"/>
  </g>
</svg>
