<?xml version="1.0" encoding="UTF-8" standalone="no"?>
<svg xmlns:ffdec="https://www.free-decompiler.com/flash" xmlns:xlink="http://www.w3.org/1999/xlink" ffdec:objectType="shape" height="33.1px" width="152.6px" xmlns="http://www.w3.org/2000/svg">
  <g transform="matrix(1.0, 0.0, 0.0, 1.0, -193.35, 361.0)">
    <path d="M307.5 -346.6 L317.15 -345.85 317.15 -345.95 318.25 -345.85 321.6 -345.6 322.15 -345.5 324.1 -345.25 327.55 -344.85 338.15 -342.55 Q343.2 -341.3 345.75 -339.9 L345.95 -339.35 345.65 -339.15 344.55 -339.65 344.35 -339.6 343.5 -339.5 Q342.45 -337.3 341.9 -333.5 341.6 -331.7 341.0 -330.65 340.15 -329.3 338.4 -328.35 L338.15 -328.15 337.95 -328.15 337.35 -327.9 336.8 -328.1 333.85 -328.0 333.1 -328.15 332.5 -328.3 332.2 -328.4 332.0 -328.5 331.55 -328.45 329.25 -329.15 317.85 -332.5 317.15 -332.7 317.15 -332.85 Q312.8 -334.2 308.25 -335.15 L301.1 -336.35 Q296.25 -336.8 294.55 -337.5 L291.0 -337.8 290.8 -338.0 282.6 -339.15 260.25 -340.25 260.0 -340.5 252.7 -340.7 Q252.55 -340.55 252.1 -340.55 L250.0 -340.7 248.25 -341.0 247.1 -341.05 245.75 -341.3 239.25 -341.35 234.9 -342.05 230.25 -342.4 230.0 -342.6 Q220.6 -342.9 213.6 -344.05 L206.7 -344.85 206.35 -343.65 206.35 -343.25 206.35 -343.2 206.75 -343.0 206.25 -342.75 206.15 -342.75 206.0 -342.6 Q205.6 -342.25 205.05 -342.25 202.45 -342.25 200.6 -343.9 199.65 -344.75 198.6 -346.15 L193.9 -349.85 193.95 -349.9 193.7 -350.0 Q193.35 -350.4 193.35 -350.7 L193.85 -352.35 193.85 -352.65 Q193.85 -353.1 195.9 -357.65 196.3 -359.2 197.1 -360.3 197.95 -361.35 198.75 -360.85 L199.35 -361.0 199.35 -360.75 199.4 -360.45 199.4 -360.25 Q200.1 -360.15 200.7 -359.1 L202.3 -356.5 206.15 -354.85 206.55 -354.65 206.7 -354.65 206.8 -354.5 207.85 -353.75 208.95 -353.95 Q211.85 -352.05 216.25 -350.6 222.45 -348.55 233.0 -346.85 L235.0 -346.6 237.9 -346.35 249.75 -345.9 249.8 -345.85 251.8 -345.9 254.85 -345.5 264.4 -345.0 270.05 -345.3 275.4 -345.35 279.05 -345.65 285.1 -346.0 293.6 -346.35 300.3 -346.5 300.55 -346.6 307.5 -346.6 M279.35 -340.3 L291.3 -338.65 Q299.5 -338.0 307.6 -336.1 L318.4 -333.3 318.4 -333.2 319.25 -333.0 321.45 -332.45 Q323.75 -331.35 326.3 -330.55 329.0 -329.7 333.65 -328.75 L337.35 -328.85 337.55 -328.8 Q340.85 -330.8 341.35 -334.4 L341.75 -337.65 Q342.1 -339.3 343.1 -340.25 340.35 -341.35 337.2 -342.15 L325.5 -344.4 325.25 -344.4 322.85 -344.5 320.85 -344.75 317.75 -344.85 317.65 -345.05 312.1 -345.3 309.35 -345.5 305.45 -345.75 305.4 -345.75 304.0 -345.7 300.3 -345.5 296.9 -345.45 293.35 -345.25 289.55 -345.15 286.8 -344.65 284.0 -344.25 283.9 -344.25 274.05 -343.1 269.35 -342.9 262.65 -343.4 271.45 -343.85 266.25 -343.75 257.25 -344.25 247.0 -345.25 246.95 -345.25 245.3 -345.35 241.5 -345.5 239.05 -345.65 237.25 -345.8 235.85 -345.85 234.35 -346.05 232.6 -346.25 232.4 -346.4 Q225.05 -347.0 216.25 -349.7 210.2 -351.6 208.45 -352.85 L208.6 -351.7 Q209.0 -350.8 209.0 -348.8 209.0 -347.75 208.0 -347.0 L207.6 -346.75 207.5 -346.05 214.55 -344.9 Q228.85 -343.9 239.25 -342.05 L245.65 -342.05 246.45 -341.85 248.65 -341.5 251.35 -341.35 252.7 -341.5 260.5 -341.05 269.9 -341.05 276.5 -340.65 279.35 -340.3 M204.45 -353.8 L202.45 -355.0 204.65 -349.5 205.05 -348.35 205.75 -346.45 206.8 -347.85 206.75 -349.1 206.85 -349.05 207.3 -348.7 207.65 -349.45 207.75 -349.8 207.4 -351.3 206.3 -352.9 204.45 -353.8 M195.8 -354.5 L195.2 -352.75 195.2 -352.55 Q195.2 -351.9 195.85 -350.85 L196.55 -349.55 199.15 -347.65 199.55 -347.15 200.15 -346.4 200.4 -346.15 202.75 -344.1 202.85 -344.0 Q203.3 -343.8 203.75 -343.75 L204.1 -343.8 Q203.55 -344.45 203.05 -345.45 L202.95 -345.6 202.2 -346.95 202.15 -347.05 201.5 -348.1 201.6 -348.25 202.7 -347.25 203.05 -346.85 203.7 -346.0 204.2 -345.35 204.8 -344.35 204.85 -344.65 205.05 -345.05 205.05 -345.15 204.9 -346.0 204.8 -346.55 204.4 -347.95 203.9 -349.4 202.65 -352.3 Q200.45 -357.05 198.25 -359.7 L198.1 -359.55 197.15 -357.7 196.5 -356.25 195.8 -354.5 M337.8 -329.85 L337.3 -329.9 Q336.8 -329.95 336.65 -330.1 L336.85 -330.3 338.55 -330.55 338.8 -330.35 337.8 -329.85" fill="#480000" fill-rule="evenodd" stroke="none"/>
    <path d="M204.45 -353.8 L206.3 -352.9 207.4 -351.3 207.75 -349.8 207.65 -349.45 207.3 -348.7 206.85 -349.05 206.75 -349.1 206.8 -347.85 205.75 -346.45 205.05 -348.35 204.65 -349.5 202.45 -355.0 204.45 -353.8 M279.35 -340.3 L276.5 -340.65 269.9 -341.05 260.5 -341.05 252.7 -341.5 251.35 -341.35 248.65 -341.5 246.45 -341.85 245.65 -342.05 239.25 -342.05 Q228.85 -343.9 214.55 -344.9 L207.5 -346.05 207.6 -346.75 208.0 -347.0 Q209.0 -347.75 209.0 -348.8 209.0 -350.8 208.6 -351.7 L208.45 -352.85 Q210.2 -351.6 216.25 -349.7 225.05 -347.0 232.4 -346.4 L232.6 -346.25 234.35 -346.05 235.85 -345.85 237.25 -345.8 239.05 -345.65 241.5 -345.5 245.3 -345.35 246.95 -345.25 247.0 -345.25 257.25 -344.25 266.25 -343.75 271.45 -343.85 262.65 -343.4 269.35 -342.9 274.05 -343.1 283.9 -344.25 284.0 -344.25 286.8 -344.65 289.55 -345.15 293.35 -345.25 296.9 -345.45 300.3 -345.5 304.0 -345.7 305.4 -345.75 305.45 -345.75 309.35 -345.5 312.1 -345.3 317.65 -345.05 317.75 -344.85 320.85 -344.75 322.85 -344.5 325.25 -344.4 325.5 -344.4 337.2 -342.15 Q340.35 -341.35 343.1 -340.25 342.1 -339.3 341.75 -337.65 L341.35 -334.4 Q340.85 -330.8 337.55 -328.8 L337.35 -328.85 333.65 -328.75 Q329.0 -329.7 326.3 -330.55 323.75 -331.35 321.45 -332.45 L319.25 -333.0 318.4 -333.2 318.4 -333.3 307.6 -336.1 Q299.5 -338.0 291.3 -338.65 L279.35 -340.3 M204.9 -346.0 L204.35 -346.6 203.55 -347.55 203.25 -347.9 202.15 -349.0 Q198.65 -352.5 195.8 -354.5 L196.5 -356.25 197.15 -357.7 198.1 -359.55 198.25 -359.7 Q200.45 -357.05 202.65 -352.3 L203.9 -349.4 204.4 -347.95 204.8 -346.55 204.9 -346.0 M337.8 -329.85 L338.8 -330.35 338.55 -330.55 336.85 -330.3 336.65 -330.1 Q336.8 -329.95 337.3 -329.9 L337.8 -329.85" fill="#990000" fill-rule="evenodd" stroke="none"/>
    <path d="M204.9 -346.0 L205.05 -345.15 205.05 -345.05 204.85 -344.65 204.8 -344.35 204.2 -345.35 203.7 -346.0 203.05 -346.85 202.7 -347.25 201.6 -348.25 201.5 -348.1 202.15 -347.05 202.2 -346.95 202.95 -345.6 203.05 -345.45 Q203.55 -344.45 204.1 -343.8 L203.75 -343.75 Q203.3 -343.8 202.85 -344.0 L202.75 -344.1 200.4 -346.15 200.15 -346.4 199.55 -347.15 199.15 -347.65 196.55 -349.55 195.85 -350.85 Q195.2 -351.9 195.2 -352.55 L195.2 -352.75 195.8 -354.5 Q198.65 -352.5 202.15 -349.0 L203.25 -347.9 203.55 -347.55 204.35 -346.6 204.9 -346.0" fill="#720e3e" fill-rule="evenodd" stroke="none"/>
  </g>
</svg>
