<?xml version="1.0" encoding="UTF-8" standalone="no"?>
<svg xmlns:ffdec="https://www.free-decompiler.com/flash" xmlns:xlink="http://www.w3.org/1999/xlink" ffdec:objectType="shape" height="561.15px" width="182.05px" xmlns="http://www.w3.org/2000/svg">
  <g transform="matrix(1.0, 0.0, 0.0, 1.0, 139.0, 666.85)">
    <path d="M-139.0 -664.65 L-139.0 -666.85 -132.65 -666.8 -121.2 -666.05 -98.8 -665.05 -62.75 -664.8 Q-26.55 -664.55 -25.85 -664.3 L-12.4 -664.4 1.7 -664.8 22.0 -665.15 30.6 -665.75 39.05 -666.3 43.05 -666.25 43.05 -663.75 38.55 -663.75 30.0 -663.2 21.5 -662.7 18.0 -662.6 11.2 -662.5 0.25 -662.0 -12.95 -662.15 -27.0 -662.55 -99.15 -662.9 Q-105.6 -666.05 -114.7 -665.5 L-133.0 -664.7 -139.0 -664.65 M43.05 -347.5 L40.2 -352.5 43.05 -349.55 43.05 -347.5 M43.05 -355.4 L42.55 -355.45 Q42.25 -355.5 42.25 -356.55 42.25 -357.05 43.05 -357.9 L43.05 -355.4 M43.05 -121.95 L43.05 -116.7 Q30.4 -113.65 18.0 -111.45 -14.35 -105.7 -45.1 -105.7 -58.7 -105.7 -95.5 -113.05 -120.95 -118.1 -139.0 -122.65 L-139.0 -128.6 -131.15 -126.5 Q-104.15 -119.3 -78.25 -114.6 -54.6 -110.25 -45.1 -110.25 -16.85 -110.25 18.0 -116.7 L30.6 -119.2 43.05 -121.95" fill="#66685b" fill-rule="evenodd" stroke="none"/>
    <path d="M43.05 -647.2 Q34.6 -641.3 34.6 -632.25 34.6 -628.0 43.0 -622.35 L43.05 -622.3 43.05 -528.7 38.7 -526.65 Q34.25 -524.65 32.7 -523.05 30.65 -520.8 30.65 -516.75 30.65 -515.3 31.6 -513.75 33.2 -511.1 36.8 -511.1 39.95 -511.1 41.7 -514.45 42.45 -515.9 43.05 -518.05 L43.05 -490.95 Q41.2 -480.55 41.2 -471.65 41.4 -469.25 41.9 -466.9 L41.2 -466.9 Q40.3 -466.9 38.9 -467.6 37.45 -468.35 36.55 -468.35 34.25 -468.35 32.55 -466.9 30.85 -465.35 30.85 -463.1 30.85 -461.65 31.95 -459.85 33.65 -457.15 36.9 -457.15 L39.45 -457.65 Q38.55 -456.65 38.25 -455.75 37.9 -454.45 37.25 -444.5 36.55 -434.65 36.55 -431.55 36.55 -418.25 37.05 -410.45 37.8 -398.8 40.05 -389.95 40.65 -387.4 41.6 -379.25 42.35 -372.05 43.05 -367.65 L43.05 -357.9 Q42.25 -357.05 42.25 -356.55 42.25 -355.5 42.55 -355.45 L43.05 -355.4 43.05 -349.55 40.2 -352.5 43.05 -347.5 43.05 -341.6 Q35.75 -338.45 32.5 -336.05 32.1 -347.55 30.0 -375.25 27.6 -406.8 26.95 -411.3 L26.95 -440.45 23.75 -471.45 20.45 -502.5 18.0 -509.1 Q12.55 -522.45 5.3 -528.4 -2.3 -534.65 -10.7 -531.95 -16.8 -529.95 -21.5 -524.05 L-22.15 -523.2 -23.15 -521.75 -23.35 -521.5 -25.55 -517.6 -25.75 -517.2 Q-27.85 -512.8 -28.3 -508.2 -29.95 -511.8 -31.55 -514.6 L-32.1 -515.55 Q-44.5 -537.0 -59.5 -527.6 -71.3 -520.25 -74.95 -505.2 L-75.8 -505.8 -76.2 -505.9 Q-79.95 -505.9 -81.3 -508.95 L-82.25 -510.95 Q-84.1 -514.85 -85.05 -515.95 L-85.45 -516.1 -88.75 -517.4 -85.8 -520.0 -84.7 -520.9 -82.55 -523.0 -81.9 -523.95 Q-81.25 -525.05 -81.25 -525.95 -81.25 -541.05 -95.6 -530.5 -100.85 -526.65 -106.45 -520.45 -111.5 -514.9 -113.4 -511.5 -117.5 -504.1 -120.2 -495.35 -122.75 -487.25 -123.6 -479.65 -126.3 -455.85 -128.35 -415.45 L-131.45 -353.3 Q-133.35 -311.65 -133.35 -287.7 -133.35 -264.95 -132.65 -253.65 L-132.65 -221.25 -131.45 -205.65 Q-130.7 -196.0 -130.55 -190.05 L-130.15 -185.8 Q-132.35 -186.05 -133.85 -185.05 -136.2 -183.5 -136.2 -179.45 -136.6 -177.7 -135.85 -176.1 L-135.15 -175.0 Q-136.5 -174.55 -136.5 -173.95 -136.5 -172.85 -136.3 -172.85 L-136.15 -173.05 -130.45 -172.75 -131.75 -171.85 -130.0 -171.25 -128.9 -171.3 -139.0 -170.3 -139.0 -336.9 Q-138.6 -337.85 -138.6 -338.5 -138.6 -340.35 -139.0 -341.65 L-139.0 -346.45 Q-133.75 -350.6 -133.75 -351.55 -133.75 -358.5 -138.3 -357.05 L-139.0 -356.75 -139.0 -421.4 -137.65 -422.3 Q-136.0 -423.8 -136.0 -425.95 -136.0 -428.7 -137.7 -430.65 L-137.75 -430.7 -138.0 -431.0 -138.7 -431.6 -139.0 -431.8 -139.0 -565.75 -138.6 -565.9 -138.75 -566.1 -139.0 -566.25 -139.0 -664.65 -133.0 -664.7 -114.7 -665.5 Q-105.6 -666.05 -99.15 -662.9 L-27.0 -662.55 -12.95 -662.15 0.25 -662.0 11.2 -662.5 18.0 -662.6 21.5 -662.7 30.0 -663.2 38.55 -663.75 43.05 -663.75 43.05 -647.2 M32.6 -327.75 Q33.5 -327.4 34.7 -327.4 36.55 -327.4 39.7 -328.85 40.6 -323.9 43.05 -315.0 L43.05 -173.85 42.6 -173.95 42.45 -174.5 42.15 -175.5 Q41.1 -177.2 38.55 -177.5 L37.35 -177.6 30.85 -177.9 29.3 -178.4 26.3 -179.1 25.65 -179.2 Q28.4 -185.65 29.25 -195.45 29.9 -203.55 29.3 -222.0 28.7 -239.45 29.55 -246.8 31.65 -264.75 32.25 -289.05 32.6 -301.55 32.6 -327.75 M43.05 -160.3 L43.05 -155.0 39.05 -155.85 34.85 -155.85 Q36.35 -157.0 36.35 -158.45 36.35 -159.85 35.75 -160.6 L38.75 -160.5 43.05 -160.3 M43.05 -143.45 L43.05 -121.95 30.6 -119.2 18.0 -116.7 Q-16.85 -110.25 -45.1 -110.25 -54.6 -110.25 -78.25 -114.6 -104.15 -119.3 -131.15 -126.5 L-139.0 -128.6 -139.0 -163.7 -132.6 -164.75 -127.8 -164.9 -128.55 -164.25 Q-127.6 -163.75 -123.7 -163.3 L-123.2 -163.25 Q-131.25 -162.65 -131.8 -160.8 -133.5 -160.1 -133.5 -159.2 -133.5 -158.05 -129.75 -157.2 -125.1 -156.15 -116.75 -156.15 L-116.65 -156.15 -115.3 -155.95 -117.6 -155.85 -128.25 -156.6 Q-133.55 -156.55 -133.55 -152.45 L-133.5 -151.35 Q-135.6 -150.25 -135.6 -148.35 -135.6 -147.45 -135.35 -147.4 L-134.6 -147.35 -132.7 -147.95 -133.15 -147.35 Q-134.35 -145.8 -134.6 -144.9 -134.3 -144.5 -133.05 -143.9 -131.6 -143.25 -130.55 -143.25 L-121.9 -145.45 Q-113.95 -147.65 -111.05 -147.65 L-106.95 -147.2 -97.5 -147.15 -97.0 -146.85 Q-92.95 -144.45 -77.6 -144.45 L-72.85 -144.5 Q-64.95 -142.6 -53.9 -142.6 L-37.7 -143.6 Q-16.95 -141.45 -8.3 -141.45 -1.0 -141.45 8.65 -141.8 L18.0 -142.2 26.7 -143.1 42.0 -143.25 43.05 -143.45" fill="#989e8d" fill-rule="evenodd" stroke="none"/>
    <path d="M43.05 -647.2 L43.05 -644.35 41.95 -643.3 Q40.75 -642.05 39.95 -640.6 37.8 -637.05 37.8 -632.3 37.8 -629.1 43.05 -624.5 L43.05 -622.3 43.0 -622.35 Q34.6 -628.0 34.6 -632.25 34.6 -641.3 43.05 -647.2 M41.9 -466.9 Q41.4 -469.25 41.2 -471.65 41.2 -480.55 43.05 -490.95 L43.05 -463.1 42.4 -464.95 41.9 -466.9" fill="#779724" fill-rule="evenodd" stroke="none"/>
    <path d="M43.05 -624.5 Q37.8 -629.1 37.8 -632.3 37.8 -637.05 39.95 -640.6 L40.1 -640.7 43.05 -642.05 43.05 -624.5" fill="#91b52c" fill-rule="evenodd" stroke="none"/>
    <path d="M39.95 -640.6 Q40.75 -642.05 41.95 -643.3 L43.05 -644.35 43.05 -642.05 40.1 -640.7 39.95 -640.6" fill="#aec53f" fill-rule="evenodd" stroke="none"/>
    <path d="M-130.15 -185.8 L-130.55 -190.05 Q-130.7 -196.0 -131.45 -205.65 L-132.65 -221.25 -132.65 -253.65 Q-133.35 -264.95 -133.35 -287.7 -133.35 -311.65 -131.45 -353.3 L-128.35 -415.45 Q-126.3 -455.85 -123.6 -479.65 -122.75 -487.25 -120.2 -495.35 -117.5 -504.1 -113.4 -511.5 -111.5 -514.9 -106.45 -520.45 -100.85 -526.65 -95.6 -530.5 -81.25 -541.05 -81.25 -525.95 -81.25 -525.05 -81.9 -523.95 -82.55 -525.45 -83.6 -526.0 -86.8 -527.65 -91.5 -516.65 L-95.4 -507.6 Q-98.0 -501.6 -99.05 -498.4 -97.85 -490.75 -101.45 -479.5 -105.5 -466.8 -105.5 -460.85 -105.5 -454.95 -108.2 -436.4 -110.95 -417.85 -110.95 -411.25 -110.5 -369.4 -110.6 -348.95 -110.6 -346.6 -112.55 -320.1 -114.5 -293.65 -114.5 -285.85 L-114.05 -278.2 -113.05 -267.45 -113.05 -200.6 -113.35 -180.45 -113.9 -180.45 -114.45 -180.45 -115.55 -180.5 -120.95 -180.3 -121.45 -180.1 -121.5 -180.2 Q-122.1 -181.5 -123.5 -182.75 L-124.65 -183.7 Q-126.5 -185.0 -128.65 -185.55 L-130.15 -185.8 M-21.5 -524.05 Q-16.8 -529.95 -10.7 -531.95 -2.3 -534.65 5.3 -528.4 12.55 -522.45 18.0 -509.1 L20.45 -502.5 23.75 -471.45 26.95 -440.45 26.95 -411.3 Q27.6 -406.8 30.0 -375.25 32.1 -347.55 32.5 -336.05 29.95 -334.15 29.95 -332.65 29.95 -331.05 30.55 -329.85 31.2 -328.35 32.6 -327.75 32.6 -301.55 32.25 -289.05 31.65 -264.75 29.55 -246.8 28.7 -239.45 29.3 -222.0 29.9 -203.55 29.25 -195.45 28.4 -185.65 25.65 -179.2 L25.45 -179.25 18.0 -180.3 15.85 -180.5 10.75 -181.0 5.3 -181.1 5.3 -211.9 Q5.15 -220.55 5.65 -237.55 L4.85 -298.2 Q4.1 -352.7 4.25 -362.95 4.7 -390.5 1.05 -425.6 -0.4 -439.15 -4.65 -459.2 -7.85 -474.05 -7.85 -488.65 -7.85 -494.7 -7.5 -497.35 -7.6 -498.7 -10.4 -510.2 -12.1 -517.5 -14.7 -520.95 -18.55 -524.05 -21.5 -524.05 M-72.85 -144.5 L-55.95 -145.6 -42.4 -144.1 -37.7 -143.6 -53.9 -142.6 Q-64.95 -142.6 -72.85 -144.5" fill="#42433d" fill-rule="evenodd" stroke="none"/>
    <path d="M-139.0 -566.25 L-138.75 -566.1 -138.6 -565.9 -139.0 -565.75 -139.0 -566.25 M32.5 -336.05 Q35.75 -338.45 43.05 -341.6 L43.05 -330.65 39.7 -328.85 Q36.55 -327.4 34.7 -327.4 33.5 -327.4 32.6 -327.75 31.2 -328.35 30.55 -329.85 29.95 -331.05 29.95 -332.65 29.95 -334.15 32.5 -336.05 M43.05 -518.05 Q42.45 -515.9 41.7 -514.45 39.95 -511.1 36.8 -511.1 33.2 -511.1 31.6 -513.75 30.65 -515.3 30.65 -516.75 30.65 -520.8 32.7 -523.05 34.25 -524.65 38.7 -526.65 L43.05 -528.7 43.05 -518.05" fill="#acb19e" fill-rule="evenodd" stroke="none"/>
    <path d="M-137.7 -430.65 Q-136.0 -428.7 -136.0 -425.95 -136.0 -423.8 -137.65 -422.3 L-139.0 -421.4 -139.0 -422.85 -138.95 -423.1 -137.45 -430.35 -137.7 -430.65 M-138.3 -357.05 Q-133.75 -358.5 -133.75 -351.55 -133.75 -350.6 -139.0 -346.45 L-139.0 -355.0 -138.3 -357.05 M-139.0 -341.65 Q-138.6 -340.35 -138.6 -338.5 -138.6 -337.85 -139.0 -336.9 L-139.0 -341.65 M43.05 -367.65 Q42.35 -372.05 41.6 -379.25 40.65 -387.4 40.05 -389.95 37.8 -398.8 37.05 -410.45 36.55 -418.25 36.55 -431.55 36.55 -434.65 37.25 -444.5 37.9 -454.45 38.25 -455.75 38.55 -456.65 39.45 -457.65 L36.9 -457.15 Q33.65 -457.15 31.95 -459.85 30.85 -461.65 30.85 -463.1 30.85 -465.35 32.55 -466.9 34.25 -468.35 36.55 -468.35 37.45 -468.35 38.9 -467.6 40.3 -466.9 41.2 -466.9 L41.9 -466.9 42.4 -464.95 43.05 -463.1 43.05 -367.65 M39.7 -328.85 L43.05 -330.65 43.05 -315.0 Q40.6 -323.9 39.7 -328.85" fill="#818967" fill-rule="evenodd" stroke="none"/>
    <path d="M-81.9 -523.95 L-82.55 -523.0 Q-83.95 -523.15 -84.7 -520.9 L-85.8 -520.0 -88.75 -517.4 -85.45 -516.1 -85.55 -511.05 Q-85.5 -506.1 -88.5 -498.7 -91.5 -491.2 -91.5 -487.1 L-90.65 -478.45 -89.85 -469.85 Q-89.85 -465.7 -94.1 -450.55 L-98.85 -434.0 Q-99.1 -427.35 -100.45 -415.75 L-102.45 -397.85 -102.45 -366.5 -103.35 -354.55 Q-104.3 -342.9 -104.3 -340.1 -104.3 -317.6 -106.15 -294.4 L-108.05 -270.6 -107.7 -259.55 -106.75 -242.95 -106.75 -186.9 Q-106.45 -185.45 -106.55 -180.55 L-106.55 -180.35 -111.65 -180.4 -112.5 -180.45 -112.7 -180.45 -112.85 -180.45 -113.35 -180.45 -113.05 -200.6 -113.05 -267.45 -114.05 -278.2 -114.5 -285.85 Q-114.5 -293.65 -112.55 -320.1 -110.6 -346.6 -110.6 -348.95 -110.5 -369.4 -110.95 -411.25 -110.95 -417.85 -108.2 -436.4 -105.5 -454.95 -105.5 -460.85 -105.5 -466.8 -101.45 -479.5 -97.85 -490.75 -99.05 -498.4 -98.0 -501.6 -95.4 -507.6 L-91.5 -516.65 Q-86.8 -527.65 -83.6 -526.0 -82.55 -525.45 -81.9 -523.95 M-25.55 -517.6 L-23.35 -521.5 -23.15 -521.75 -22.15 -523.2 -21.5 -524.05 Q-18.55 -524.05 -14.7 -520.95 -12.1 -517.5 -10.4 -510.2 -7.6 -498.7 -7.5 -497.35 -7.85 -494.7 -7.85 -488.65 -7.85 -474.05 -4.65 -459.2 -0.4 -439.15 1.05 -425.6 4.7 -390.5 4.25 -362.95 4.1 -352.7 4.85 -298.2 L5.65 -237.55 Q5.15 -220.55 5.3 -211.9 L5.3 -181.1 -0.05 -181.2 0.05 -191.1 Q0.05 -201.3 -0.5 -206.15 L-0.5 -234.75 Q-0.35 -240.35 -1.7 -289.6 -3.2 -342.2 -3.2 -357.25 -3.2 -370.45 -2.65 -392.7 -2.65 -411.95 -5.25 -429.5 -6.4 -437.65 -11.6 -464.45 -16.15 -490.15 -16.15 -502.6 -16.15 -507.2 -18.7 -511.35 -20.9 -515.0 -24.25 -516.95 L-25.55 -517.6" fill="#373832" fill-rule="evenodd" stroke="none"/>
    <path d="M-130.45 -172.75 L-136.15 -173.05 -136.3 -172.85 Q-136.5 -172.85 -136.5 -173.95 -136.5 -174.55 -135.15 -175.0 -133.3 -172.95 -128.7 -172.95 L-128.25 -172.95 -128.05 -172.75 -130.45 -172.75 M43.05 -173.85 L43.05 -166.75 38.75 -167.3 24.05 -169.15 22.75 -169.3 31.15 -171.2 42.3 -174.45 42.45 -174.5 42.6 -173.95 43.05 -173.85 M15.85 -180.5 L18.0 -180.3 25.45 -179.25 25.65 -179.2 26.3 -179.1 29.3 -178.4 30.85 -177.9 37.35 -177.6 38.55 -177.5 35.85 -177.25 32.8 -177.2 31.8 -177.55 31.2 -177.8 27.95 -177.1 18.6 -176.9 18.0 -176.7 Q13.5 -175.6 -2.5 -174.35 L-2.05 -174.4 -20.1 -171.85 -57.45 -171.65 -63.35 -171.3 -80.75 -171.95 Q-92.45 -172.85 -102.75 -175.05 L-104.65 -175.05 Q-120.5 -175.05 -126.0 -177.45 -129.2 -178.8 -129.2 -181.7 L-129.05 -183.4 -128.6 -183.55 -129.4 -183.95 -126.85 -184.1 -124.65 -183.7 -123.5 -182.75 Q-122.1 -181.5 -121.5 -180.2 L-121.45 -180.1 -120.95 -180.3 -115.55 -180.5 -114.45 -180.45 -113.9 -180.45 -112.85 -180.45 -112.7 -180.45 -112.5 -180.45 -111.65 -180.4 -106.55 -180.35 -106.4 -180.35 -81.85 -176.15 -81.25 -176.35 -73.95 -176.0 -73.7 -175.95 -69.25 -175.45 -64.6 -175.35 -65.2 -175.2 Q-64.05 -175.4 -63.4 -176.0 L-37.35 -175.75 -27.0 -176.0 Q-13.25 -176.25 -8.35 -175.8 L-9.95 -175.95 Q6.55 -178.4 15.85 -180.5" fill="#1e3e4d" fill-rule="evenodd" stroke="none"/>
    <path d="M-139.0 -170.3 L-128.9 -171.3 -127.6 -171.4 -127.65 -171.15 Q-122.5 -168.55 -119.05 -167.9 L-118.3 -167.75 Q-125.2 -166.85 -127.8 -164.9 L-132.6 -164.75 -139.0 -163.7 -139.0 -170.3 M43.05 -166.75 L43.05 -166.65 38.8 -167.0 39.75 -167.15 38.75 -167.3 43.05 -166.75 M42.45 -174.5 L42.3 -174.45 35.45 -173.6 36.45 -174.55 Q36.2 -175.05 36.1 -175.7 L31.8 -177.55 32.8 -177.2 35.85 -177.25 38.55 -177.5 Q41.1 -177.2 42.15 -175.5 L42.45 -174.5 M27.95 -177.1 L18.0 -174.95 13.95 -174.1 18.0 -172.95 23.1 -172.15 24.15 -172.15 18.0 -171.4 Q-4.35 -168.7 -16.95 -168.3 L-23.55 -168.35 -24.6 -168.35 -30.15 -168.6 -52.75 -168.65 -51.5 -168.6 -60.95 -168.95 -77.1 -168.8 -79.35 -168.7 -78.85 -168.75 -81.6 -168.75 -93.25 -169.55 -98.5 -169.45 Q-115.55 -169.45 -119.55 -170.05 L-128.0 -172.75 -128.05 -172.75 -128.25 -172.95 -126.65 -173.05 -124.5 -173.55 -124.4 -173.6 -123.75 -173.5 -122.9 -173.5 -119.75 -173.7 -120.45 -173.8 Q-125.85 -174.7 -128.65 -175.85 L-129.85 -176.45 Q-132.8 -178.05 -132.8 -180.95 -132.8 -182.8 -131.75 -183.4 L-131.55 -183.5 -131.35 -183.55 -130.65 -183.75 -130.3 -183.85 -129.4 -183.95 -128.6 -183.55 -129.05 -183.4 -129.2 -181.7 Q-129.2 -178.8 -126.0 -177.45 -120.5 -175.05 -104.65 -175.05 L-102.75 -175.05 Q-92.45 -172.85 -80.75 -171.95 L-63.35 -171.3 -57.45 -171.65 -20.1 -171.85 -2.05 -174.4 -2.5 -174.35 Q13.5 -175.6 18.0 -176.7 L18.6 -176.9 27.95 -177.1 M-86.85 -164.5 L-87.75 -164.4 -89.55 -164.4 -86.85 -164.5" fill="#14507c" fill-rule="evenodd" stroke="none"/>
    <path d="M-128.9 -171.3 L-130.0 -171.25 -131.75 -171.85 -130.45 -172.75 -128.05 -172.75 -128.0 -172.75 -119.55 -170.05 Q-115.55 -169.45 -98.5 -169.45 L-93.25 -169.55 -81.6 -168.75 -78.85 -168.75 -79.35 -168.7 -77.1 -168.8 -60.95 -168.95 -51.5 -168.6 -52.75 -168.65 -30.15 -168.6 -24.6 -168.35 -23.55 -168.35 -16.95 -168.3 Q-4.35 -168.7 18.0 -171.4 L24.15 -172.15 28.7 -172.7 32.4 -172.75 Q34.3 -172.95 35.45 -173.6 L42.3 -174.45 31.15 -171.2 22.75 -169.3 24.05 -169.15 38.75 -167.3 39.75 -167.15 38.8 -167.0 43.05 -166.65 43.05 -160.3 38.75 -160.5 35.75 -160.6 35.25 -161.1 Q34.3 -161.75 31.55 -162.05 L18.0 -163.75 13.2 -164.6 -2.25 -164.6 -19.05 -164.9 -24.15 -164.75 -41.7 -164.75 -51.5 -164.65 -60.95 -164.6 -64.95 -164.65 -69.0 -164.7 -77.1 -164.75 -78.4 -164.75 -86.85 -164.5 -89.55 -164.4 -109.25 -164.4 -114.85 -163.5 -123.2 -163.25 -123.7 -163.3 Q-127.6 -163.75 -128.55 -164.25 L-127.8 -164.9 Q-125.2 -166.85 -118.3 -167.75 L-119.05 -167.9 Q-122.5 -168.55 -127.65 -171.15 L-127.6 -171.4 -128.9 -171.3" fill="#1e76b7" fill-rule="evenodd" stroke="none"/>
    <path d="M-135.15 -175.0 L-135.85 -176.1 Q-136.6 -177.7 -136.2 -179.45 -136.2 -183.5 -133.85 -185.05 -132.35 -186.05 -130.15 -185.8 L-128.65 -185.55 Q-126.5 -185.0 -124.65 -183.7 L-126.85 -184.1 -129.4 -183.95 -130.3 -183.85 -130.65 -183.75 -131.35 -183.55 -131.55 -183.5 -131.75 -183.4 Q-132.8 -182.8 -132.8 -180.95 -132.8 -178.05 -129.85 -176.45 L-128.65 -175.85 Q-125.85 -174.7 -120.45 -173.8 L-119.75 -173.7 -122.9 -173.5 -123.75 -173.5 -124.4 -173.6 -124.5 -173.55 -126.65 -173.05 -128.25 -172.95 -128.7 -172.95 Q-133.3 -172.95 -135.15 -175.0 M5.3 -181.1 L10.75 -181.0 15.85 -180.5 Q6.55 -178.4 -9.95 -175.95 L-8.35 -175.8 Q-13.25 -176.25 -27.0 -176.0 L-37.35 -175.75 -63.4 -176.0 Q-64.05 -175.4 -65.2 -175.2 L-64.6 -175.35 -69.25 -175.45 -73.7 -175.95 -73.95 -176.0 -80.2 -176.4 -81.25 -176.35 -81.85 -176.15 -106.4 -180.35 -95.95 -180.2 -92.75 -180.15 -81.6 -180.5 -80.6 -180.55 -65.45 -180.65 -65.15 -180.65 -37.35 -180.85 -34.05 -180.95 -20.05 -181.4 -13.65 -181.7 -12.0 -181.7 -7.85 -181.7 -6.65 -181.35 -0.05 -181.2 5.3 -181.1 M31.8 -177.55 L36.1 -175.7 Q36.2 -175.05 36.45 -174.55 L35.45 -173.6 Q34.3 -172.95 32.4 -172.75 L28.7 -172.7 24.15 -172.15 23.1 -172.15 18.0 -172.95 13.95 -174.1 18.0 -174.95 27.95 -177.1 31.2 -177.8 31.8 -177.55 M-112.85 -180.45 L-113.9 -180.45 -113.35 -180.45 -112.85 -180.45" fill="#1c2e35" fill-rule="evenodd" stroke="none"/>
    <path d="M34.85 -155.85 L19.8 -156.0 18.0 -156.15 12.75 -156.45 5.7 -156.9 -22.4 -157.05 -25.95 -157.3 -30.75 -157.6 -34.35 -157.55 -51.15 -157.2 -63.4 -157.1 -64.4 -157.35 -88.55 -157.35 -107.9 -156.35 -115.3 -155.95 -116.65 -156.15 -116.75 -156.15 Q-125.1 -156.15 -129.75 -157.2 -133.5 -158.05 -133.5 -159.2 -133.5 -160.1 -131.8 -160.8 -131.25 -162.65 -123.2 -163.25 L-114.85 -163.5 -109.25 -164.4 -89.55 -164.4 -87.75 -164.4 -86.85 -164.5 -78.4 -164.75 -77.1 -164.75 -69.0 -164.7 -64.95 -164.65 -60.95 -164.6 -51.5 -164.65 -41.7 -164.75 -24.15 -164.75 -19.05 -164.9 -2.25 -164.6 13.2 -164.6 18.0 -163.75 31.55 -162.05 Q34.3 -161.75 35.25 -161.1 L35.75 -160.6 Q36.35 -159.85 36.35 -158.45 36.35 -157.0 34.85 -155.85" fill="#2898f2" fill-rule="evenodd" stroke="none"/>
    <path d="M43.05 -155.0 L43.05 -143.45 42.0 -143.25 26.7 -143.1 18.0 -142.2 8.65 -141.8 Q-1.0 -141.45 -8.3 -141.45 -16.95 -141.45 -37.7 -143.6 L-42.4 -144.1 -55.95 -145.6 -72.85 -144.5 -77.6 -144.45 Q-92.95 -144.45 -97.0 -146.85 L-97.5 -147.15 -106.95 -147.2 -111.05 -147.65 Q-113.95 -147.65 -121.9 -145.45 L-130.55 -143.25 Q-131.6 -143.25 -133.05 -143.9 -134.3 -144.5 -134.6 -144.9 -134.35 -145.8 -133.15 -147.35 L-132.7 -147.95 -134.6 -147.35 -135.35 -147.4 Q-135.6 -147.45 -135.6 -148.35 -135.6 -150.25 -133.5 -151.35 L-133.55 -152.45 Q-133.55 -156.55 -128.25 -156.6 L-117.6 -155.85 -115.3 -155.95 -107.9 -156.35 -88.55 -157.35 -64.4 -157.35 -63.4 -157.1 -51.15 -157.2 -34.35 -157.55 -30.75 -157.6 -25.95 -157.3 -22.4 -157.05 5.7 -156.9 12.75 -156.45 18.0 -156.15 19.8 -156.0 34.85 -155.85 39.05 -155.85 43.05 -155.0" fill="#0fb8f0" fill-rule="evenodd" stroke="none"/>
    <path d="M-82.55 -523.0 L-84.7 -520.9 Q-83.95 -523.15 -82.55 -523.0 M-85.45 -516.1 L-85.05 -515.95 Q-84.1 -514.85 -82.25 -510.95 L-81.3 -508.95 Q-79.95 -505.9 -76.2 -505.9 L-75.8 -505.8 -74.95 -505.2 Q-71.3 -520.25 -59.5 -527.6 -44.5 -537.0 -32.1 -515.55 L-31.55 -514.6 Q-29.95 -511.8 -28.3 -508.2 -27.85 -512.8 -25.75 -517.2 L-25.55 -517.6 -24.25 -516.95 Q-20.9 -515.0 -18.7 -511.35 -16.15 -507.2 -16.15 -502.6 -16.15 -490.15 -11.6 -464.45 -6.4 -437.65 -5.25 -429.5 -2.65 -411.95 -2.65 -392.7 -3.2 -370.45 -3.2 -357.25 -3.2 -342.2 -1.7 -289.6 -0.35 -240.35 -0.5 -234.75 L-0.5 -206.15 Q0.05 -201.3 0.05 -191.1 L-0.05 -181.2 -6.65 -181.35 -7.85 -181.7 -12.0 -181.7 -10.9 -210.6 -11.9 -232.35 -12.95 -259.4 -12.5 -286.55 Q-12.2 -305.35 -12.6 -310.6 L-13.75 -333.6 Q-14.85 -356.8 -14.85 -362.15 -14.85 -392.45 -18.9 -429.5 L-23.0 -464.35 -23.75 -474.65 Q-24.55 -484.9 -24.55 -489.7 -24.55 -497.35 -28.35 -502.65 -33.75 -508.65 -37.85 -507.45 -40.3 -506.7 -41.0 -504.35 L-41.3 -502.25 -41.3 -501.95 -42.75 -504.05 Q-46.75 -509.45 -49.3 -509.85 -52.3 -510.3 -52.3 -503.7 -52.3 -501.55 -50.9 -498.65 L-50.35 -497.6 -49.25 -495.7 -49.2 -495.65 -48.9 -495.85 -49.3 -495.6 -49.2 -494.5 -51.5 -493.8 -52.4 -492.75 -53.55 -491.2 -53.7 -491.0 -54.5 -489.75 -56.25 -492.25 -58.7 -494.05 -60.4 -495.15 Q-64.3 -497.4 -66.7 -497.05 -65.6 -502.0 -65.6 -504.05 -65.6 -510.0 -68.05 -510.05 -70.25 -510.05 -73.4 -505.45 -76.6 -500.85 -78.8 -494.35 -81.25 -487.1 -81.25 -480.7 L-80.6 -476.15 -79.95 -471.6 -79.35 -465.65 -78.75 -459.7 Q-82.65 -440.0 -86.5 -415.9 -94.3 -367.7 -94.3 -334.3 -94.3 -323.6 -95.8 -280.85 L-97.3 -237.45 Q-97.3 -233.35 -96.65 -228.25 L-96.65 -195.9 -95.95 -193.7 -95.95 -180.2 -106.4 -180.35 -106.55 -180.35 -106.55 -180.55 Q-106.45 -185.45 -106.75 -186.9 L-106.75 -242.95 -107.7 -259.55 -108.05 -270.6 -106.15 -294.4 Q-104.3 -317.6 -104.3 -340.1 -104.3 -342.9 -103.35 -354.55 L-102.45 -366.5 -102.45 -397.85 -100.45 -415.75 Q-99.1 -427.35 -98.85 -434.0 L-94.1 -450.55 Q-89.85 -465.7 -89.85 -469.85 L-90.65 -478.45 -91.5 -487.1 Q-91.5 -491.2 -88.5 -498.7 -85.5 -506.1 -85.55 -511.05 L-85.45 -516.1" fill="#2e2f2b" fill-rule="evenodd" stroke="none"/>
    <path d="M-95.95 -180.2 L-95.95 -193.7 -96.65 -195.9 -96.65 -228.25 Q-97.3 -233.35 -97.3 -237.45 L-95.8 -280.85 Q-94.3 -323.6 -94.3 -334.3 -94.3 -367.7 -86.5 -415.9 -82.65 -440.0 -78.75 -459.7 L-79.35 -465.65 -79.95 -471.6 -80.6 -476.15 -81.25 -480.7 Q-81.25 -487.1 -78.8 -494.35 -76.6 -500.85 -73.4 -505.45 -70.25 -510.05 -68.05 -510.05 -65.6 -510.0 -65.6 -504.05 -65.6 -502.0 -66.7 -497.05 -64.3 -497.4 -60.4 -495.15 -63.2 -492.9 -64.85 -489.2 -67.2 -483.9 -67.2 -474.85 -67.2 -464.1 -72.6 -417.3 -78.05 -370.55 -78.05 -342.7 -78.05 -337.3 -77.7 -332.5 L-79.1 -318.75 Q-79.95 -309.0 -79.95 -289.95 L-78.6 -263.55 -79.3 -255.25 -80.15 -246.45 -81.35 -225.75 Q-81.5 -214.5 -80.95 -203.45 L-80.2 -193.55 -80.7 -189.45 -81.6 -180.5 -92.75 -180.15 -95.95 -180.2 M-50.9 -498.65 Q-52.3 -501.55 -52.3 -503.7 -52.3 -510.3 -49.3 -509.85 -46.75 -509.45 -42.75 -504.05 L-41.3 -501.95 -41.3 -502.25 -41.0 -504.35 Q-40.3 -506.7 -37.85 -507.45 -33.75 -508.65 -28.35 -502.65 -24.55 -497.35 -24.55 -489.7 -24.55 -484.9 -23.75 -474.65 L-23.0 -464.35 -18.9 -429.5 Q-14.85 -392.45 -14.85 -362.15 -14.85 -356.8 -13.75 -333.6 L-12.6 -310.6 Q-12.2 -305.35 -12.5 -286.55 L-12.95 -259.4 -11.9 -232.35 -10.9 -210.6 -12.0 -181.7 -13.65 -181.7 -20.05 -181.4 -20.4 -187.85 Q-21.85 -215.2 -21.85 -225.75 L-20.45 -285.95 Q-20.45 -300.45 -22.35 -327.45 -24.45 -356.55 -26.4 -362.75 -30.8 -376.75 -33.6 -440.2 L-33.05 -450.7 Q-32.65 -461.85 -33.45 -470.65 -35.85 -498.75 -48.9 -498.75 L-50.9 -498.65" fill="#282826" fill-rule="evenodd" stroke="none"/>
    <path d="M-60.4 -495.15 L-58.7 -494.05 -60.7 -490.75 -60.7 -456.8 -61.7 -449.65 -62.2 -444.4 Q-62.2 -432.0 -62.55 -429.1 -62.9 -426.2 -62.9 -412.35 L-62.15 -399.75 -61.4 -388.85 Q-61.4 -387.85 -62.3 -382.25 L-63.6 -374.85 -63.6 -339.2 Q-64.4 -335.45 -64.4 -328.2 -64.4 -321.9 -63.45 -316.05 -62.55 -310.15 -62.55 -308.4 -62.55 -301.6 -64.15 -286.6 -65.8 -271.6 -65.8 -264.25 -67.5 -252.95 -67.85 -241.5 L-67.95 -220.05 -67.7 -205.3 Q-66.7 -198.4 -65.25 -183.8 L-65.15 -180.65 -65.45 -180.65 -80.6 -180.55 -81.6 -180.5 -80.7 -189.45 -80.2 -193.55 -80.95 -203.45 Q-81.5 -214.5 -81.35 -225.75 L-80.15 -246.45 -79.3 -255.25 -78.6 -263.55 -79.95 -289.95 Q-79.95 -309.0 -79.1 -318.75 L-77.7 -332.5 Q-78.05 -337.3 -78.05 -342.7 -78.05 -370.55 -72.6 -417.3 -67.2 -464.1 -67.2 -474.85 -67.2 -483.9 -64.85 -489.2 -63.2 -492.9 -60.4 -495.15 M-50.35 -497.6 L-50.9 -498.65 -48.9 -498.75 Q-35.85 -498.75 -33.45 -470.65 -32.65 -461.85 -33.05 -450.7 L-33.6 -440.2 Q-30.8 -376.75 -26.4 -362.75 -24.45 -356.55 -22.35 -327.45 -20.45 -300.45 -20.45 -285.95 L-21.85 -225.75 Q-21.85 -215.2 -20.4 -187.85 L-20.05 -181.4 -34.05 -180.95 Q-34.15 -185.5 -34.8 -190.45 -34.8 -203.0 -34.1 -227.75 -34.1 -237.0 -36.75 -288.65 -39.4 -340.55 -40.6 -353.9 L-40.6 -390.05 Q-39.45 -393.8 -40.6 -396.45 -42.05 -399.9 -42.05 -400.65 L-41.8 -402.6 -41.3 -404.15 -41.3 -439.25 Q-40.6 -441.85 -40.6 -447.8 -40.6 -451.7 -41.4 -460.75 -42.5 -473.5 -44.4 -482.45 -46.4 -491.9 -48.9 -495.85 L-50.35 -497.6 M-81.25 -176.35 L-80.2 -176.4 -73.95 -176.0 -81.25 -176.35" fill="#21211f" fill-rule="evenodd" stroke="none"/>
    <path d="M-58.7 -494.05 L-56.25 -492.25 -54.5 -489.75 -53.7 -491.0 -53.55 -491.2 -52.4 -492.75 -51.5 -493.8 -49.2 -494.5 -49.3 -495.6 -48.9 -495.85 -49.2 -495.65 -49.25 -495.7 -50.35 -497.6 -48.9 -495.85 Q-46.4 -491.9 -44.4 -482.45 -42.5 -473.5 -41.4 -460.75 -40.6 -451.7 -40.6 -447.8 -40.6 -441.85 -41.3 -439.25 L-41.3 -404.15 -41.8 -402.6 -42.05 -400.65 Q-42.05 -399.9 -40.6 -396.45 -39.45 -393.8 -40.6 -390.05 L-40.6 -353.9 Q-39.4 -340.55 -36.75 -288.65 -34.1 -237.0 -34.1 -227.75 -34.8 -203.0 -34.8 -190.45 -34.15 -185.5 -34.05 -180.95 L-37.35 -180.85 -65.15 -180.65 -65.25 -183.8 Q-66.7 -198.4 -67.7 -205.3 L-67.95 -220.05 -67.85 -241.5 Q-67.5 -252.95 -65.8 -264.25 -65.8 -271.6 -64.15 -286.6 -62.55 -301.6 -62.55 -308.4 -62.55 -310.15 -63.45 -316.05 -64.4 -321.9 -64.4 -328.2 -64.4 -335.45 -63.6 -339.2 L-63.6 -374.85 -62.3 -382.25 Q-61.4 -387.85 -61.4 -388.85 L-62.15 -399.75 -62.9 -412.35 Q-62.9 -426.2 -62.55 -429.1 -62.2 -432.0 -62.2 -444.4 L-61.7 -449.65 -60.7 -456.8 -60.7 -490.75 -58.7 -494.05" fill="#1c1c1a" fill-rule="evenodd" stroke="none"/>
    <path d="M-139.0 -431.8 L-138.7 -431.6 -138.0 -431.0 -137.75 -430.7 -137.7 -430.65 -137.45 -430.35 -138.95 -423.1 -139.0 -422.85 -139.0 -431.8 M-139.0 -356.75 L-138.3 -357.05 -139.0 -355.0 -139.0 -356.75" fill="#757b5e" fill-rule="evenodd" stroke="none"/>
    <path d="M-63.6 -552.3 L-62.9 -552.6 -58.85 -554.45 -58.75 -554.45 -58.4 -554.5 -49.1 -555.2 -43.7 -555.65 -37.0 -554.45 Q-33.0 -553.35 -30.15 -552.25 L-27.8 -550.75 -26.85 -550.2 -27.0 -550.05 -26.75 -550.1 -22.95 -548.05 -21.95 -547.6 -21.45 -547.0 -20.3 -545.65 -27.05 -541.35 Q-38.25 -533.9 -38.25 -528.5 -38.25 -527.7 -39.7 -525.95 L-39.5 -525.7 -41.05 -522.4 -46.25 -522.4 Q-46.55 -522.9 -46.55 -521.15 -46.55 -520.1 -46.35 -520.05 L-46.2 -520.0 -40.95 -520.0 Q-40.15 -520.45 -39.6 -520.85 L-39.55 -519.85 Q-39.55 -518.95 -40.5 -518.2 -41.35 -517.55 -42.35 -517.5 L-43.5 -517.5 Q-46.05 -512.6 -47.2 -511.4 L-47.55 -511.5 Q-49.55 -514.85 -52.7 -522.85 L-55.15 -529.6 -58.0 -534.7 -58.85 -534.55 Q-62.0 -534.55 -63.35 -536.15 -62.45 -538.0 -60.2 -537.25 L-58.0 -536.15 -57.8 -536.3 Q-57.35 -536.65 -57.35 -537.25 -57.35 -539.2 -59.65 -543.6 L-62.55 -549.5 -63.6 -552.3 M-14.2 -539.55 L-13.2 -538.75 -13.1 -538.7 -11.35 -536.75 Q-13.05 -535.85 -14.7 -535.45 L-15.35 -535.6 -15.6 -536.4 Q-15.6 -538.05 -14.2 -539.55 M-46.0 -533.1 L-46.1 -533.2 -46.1 -533.15 -46.0 -533.1 M-67.15 -543.05 L-69.1 -542.95 -69.2 -543.0 -69.35 -543.7 Q-69.35 -544.85 -69.2 -544.45 L-67.05 -544.3 -66.8 -543.65 -67.15 -543.05 M-61.15 -523.1 L-60.35 -522.55 -56.5 -519.3 -56.85 -518.6 -57.45 -518.2 Q-60.2 -518.65 -62.1 -521.4 L-62.15 -521.5 -61.95 -522.1 -61.15 -523.1 M-21.0 -537.05 L-20.55 -536.05 -20.8 -535.1 -23.2 -534.95 -23.55 -536.0 -22.35 -536.85 -21.0 -537.05 M-39.7 -511.8 L-40.4 -512.4 -40.4 -513.35 -38.35 -513.5 Q-36.8 -513.4 -35.7 -512.75 -36.1 -511.55 -38.05 -511.55 L-39.7 -511.8" fill="#acb19e" fill-rule="evenodd" stroke="none"/>
    <path d="M-26.85 -550.2 L-26.75 -550.1 -27.0 -550.05 -26.85 -550.2 M-20.3 -545.65 Q-16.9 -541.7 -14.2 -539.55 -15.6 -538.05 -15.6 -536.4 L-15.35 -535.6 -14.7 -535.45 Q-13.05 -535.85 -11.35 -536.75 L-9.75 -535.05 -9.55 -534.85 -16.3 -528.65 -16.2 -527.2 Q-16.2 -526.05 -17.15 -524.25 -18.2 -522.35 -19.35 -521.65 -20.7 -523.05 -20.7 -523.8 L-20.65 -524.55 -23.85 -521.55 -31.6 -513.85 -31.65 -512.95 -32.5 -512.15 -40.5 -502.75 -42.35 -501.8 Q-42.9 -503.0 -44.25 -507.55 -45.5 -510.8 -47.2 -511.4 -46.05 -512.6 -43.5 -517.5 L-42.35 -517.5 Q-41.35 -517.55 -40.5 -518.2 -39.55 -518.95 -39.55 -519.85 L-39.6 -520.85 Q-40.15 -520.45 -40.95 -520.0 L-46.2 -520.0 -46.35 -520.05 Q-46.55 -520.1 -46.55 -521.15 -46.55 -522.9 -46.25 -522.4 L-41.05 -522.4 -39.5 -525.7 -39.7 -525.95 Q-38.25 -527.7 -38.25 -528.5 -38.25 -533.9 -27.05 -541.35 L-20.3 -545.65 M-6.5 -528.95 L-6.35 -528.5 Q-8.1 -527.35 -8.7 -527.2 L-6.5 -528.95 M-85.55 -540.75 L-83.6 -542.0 Q-78.1 -545.8 -68.1 -550.3 L-63.6 -552.3 -62.55 -549.5 -59.65 -543.6 Q-57.35 -539.2 -57.35 -537.25 -57.35 -536.65 -57.8 -536.3 L-58.0 -536.15 -60.2 -537.25 Q-62.45 -538.0 -63.35 -536.15 -62.0 -534.55 -58.85 -534.55 L-58.0 -534.7 -55.15 -529.6 -52.7 -522.85 Q-49.55 -514.85 -47.55 -511.5 L-48.1 -511.55 Q-49.4 -511.55 -56.0 -509.6 L-57.4 -509.65 -57.55 -509.7 -57.65 -509.15 -58.5 -508.45 -62.45 -517.2 -64.25 -521.05 -64.6 -521.45 -64.95 -518.1 -65.2 -517.9 Q-65.5 -517.7 -65.75 -517.65 -66.25 -518.9 -67.15 -524.7 L-70.65 -529.7 -75.3 -537.15 -75.9 -526.4 -75.85 -526.1 -75.95 -525.8 -78.2 -527.65 -83.8 -537.9 -85.55 -540.75 M-67.15 -543.05 L-66.8 -543.65 -67.05 -544.3 -69.2 -544.45 Q-69.35 -544.85 -69.35 -543.7 L-69.2 -543.0 -69.1 -542.95 -67.15 -543.05 M-61.15 -523.1 L-61.95 -522.1 -62.15 -521.5 -62.1 -521.4 Q-60.2 -518.65 -57.45 -518.2 L-56.85 -518.6 -56.5 -519.3 -60.35 -522.55 -61.15 -523.1 M-63.0 -508.9 L-64.3 -510.2 -64.85 -511.0 -64.8 -511.55 -63.05 -511.25 Q-62.2 -510.75 -62.2 -509.75 -62.4 -509.05 -63.0 -508.9 M-21.0 -537.05 L-22.35 -536.85 -23.55 -536.0 -23.2 -534.95 -20.8 -535.1 -20.55 -536.05 -21.0 -537.05 M-26.1 -514.3 Q-26.2 -514.0 -26.8 -513.8 L-27.55 -513.85 -27.2 -514.5 -26.65 -515.0 -26.35 -514.8 -26.1 -514.3 M-39.7 -511.8 L-38.05 -511.55 Q-36.1 -511.55 -35.7 -512.75 -36.8 -513.4 -38.35 -513.5 L-40.4 -513.35 -40.4 -512.4 -39.7 -511.8 M-83.7 -528.45 L-84.3 -528.65 -84.4 -530.0 -83.5 -530.05 Q-83.0 -529.55 -83.0 -529.0 L-83.15 -528.8 -83.7 -528.45" fill="#989e8d" fill-rule="evenodd" stroke="none"/>
    <path d="M-46.0 -533.1 L-46.1 -533.15 -46.1 -533.2 -46.0 -533.1" fill="#000000" fill-rule="evenodd" stroke="none"/>
    <path d="M-9.55 -534.85 L-8.8 -534.1 -7.65 -531.9 -6.7 -529.5 -6.5 -528.95 -8.7 -527.2 Q-8.1 -527.35 -6.35 -528.5 L-6.2 -528.0 -5.75 -526.6 -5.65 -526.25 -5.6 -526.1 -14.15 -520.7 -14.75 -520.3 -18.4 -517.9 -18.55 -517.8 -19.1 -517.45 -22.6 -514.0 -23.1 -513.5 -23.3 -513.3 Q-27.2 -509.4 -29.2 -508.4 L-31.05 -507.05 Q-31.2 -506.6 -31.9 -505.7 L-31.9 -505.65 -33.9 -503.2 -35.0 -501.9 -35.8 -500.9 -36.6 -500.05 -36.65 -499.7 -37.65 -498.95 Q-40.2 -501.4 -41.65 -502.15 L-44.8 -497.95 Q-47.8 -494.3 -52.2 -494.3 -52.85 -494.3 -55.05 -498.0 -57.45 -502.0 -58.15 -502.5 L-65.6 -502.9 -65.05 -501.85 -65.05 -501.4 -65.8 -502.35 Q-68.25 -505.1 -68.45 -502.45 L-68.4 -502.9 -71.75 -505.95 -71.5 -507.1 Q-71.15 -508.7 -71.15 -509.35 -71.15 -510.1 -71.45 -510.45 -71.65 -510.7 -72.2 -510.95 -72.7 -510.5 -73.45 -508.1 L-73.6 -507.65 -86.1 -518.8 Q-82.9 -520.2 -82.9 -520.6 -82.9 -521.3 -83.1 -521.4 L-83.7 -521.55 -89.55 -522.0 -94.85 -531.2 -93.05 -534.2 Q-91.8 -536.2 -90.45 -537.4 L-89.85 -537.9 -89.65 -538.05 -87.85 -539.25 -85.55 -540.75 -83.8 -537.9 -78.2 -527.65 -75.95 -525.8 -75.85 -526.1 -75.9 -526.4 -75.3 -537.15 -70.65 -529.7 -67.15 -524.7 Q-66.25 -518.9 -65.75 -517.65 -65.5 -517.7 -65.2 -517.9 L-64.95 -518.1 -64.6 -521.45 -64.25 -521.05 -62.45 -517.2 -58.5 -508.45 -57.65 -509.15 -57.55 -509.7 -57.4 -509.65 -56.0 -509.6 Q-49.4 -511.55 -48.1 -511.55 L-47.55 -511.5 -47.2 -511.4 Q-45.5 -510.8 -44.25 -507.55 -42.9 -503.0 -42.35 -501.8 L-40.5 -502.75 -32.5 -512.15 -31.65 -512.95 -31.6 -513.85 -23.85 -521.55 -20.65 -524.55 -20.7 -523.8 Q-20.7 -523.05 -19.35 -521.65 -18.2 -522.35 -17.15 -524.25 -16.2 -526.05 -16.2 -527.2 L-16.3 -528.65 -9.55 -534.85 M-63.0 -508.9 Q-62.4 -509.05 -62.2 -509.75 -62.2 -510.75 -63.05 -511.25 L-64.8 -511.55 -64.85 -511.0 -64.3 -510.2 -63.0 -508.9 M-79.1 -515.8 L-79.9 -515.5 -80.15 -514.5 Q-80.15 -513.75 -79.9 -513.55 L-79.1 -513.25 -78.05 -513.85 Q-78.05 -515.4 -79.1 -515.8 M-26.1 -514.3 L-26.35 -514.8 -26.65 -515.0 -27.2 -514.5 -27.55 -513.85 -26.8 -513.8 Q-26.2 -514.0 -26.1 -514.3 M-83.7 -528.45 L-83.15 -528.8 -83.0 -529.0 Q-83.0 -529.55 -83.5 -530.05 L-84.4 -530.0 -84.3 -528.65 -83.7 -528.45" fill="#818967" fill-rule="evenodd" stroke="none"/>
    <path d="M-97.25 -522.95 L-97.7 -523.5 -96.25 -527.35 -96.05 -528.0 -94.9 -531.1 -94.85 -531.2 -89.55 -522.0 -83.7 -521.55 -83.1 -521.4 Q-82.9 -521.3 -82.9 -520.6 -82.9 -520.2 -86.1 -518.8 L-73.6 -507.65 -73.45 -508.1 Q-72.7 -510.5 -72.2 -510.95 -71.65 -510.7 -71.45 -510.45 -71.15 -510.1 -71.15 -509.35 -71.15 -508.7 -71.5 -507.1 L-71.75 -505.95 -68.4 -502.9 -68.45 -502.45 Q-68.25 -505.1 -65.8 -502.35 L-65.05 -501.4 -65.05 -501.85 -65.6 -502.9 -58.15 -502.5 Q-57.45 -502.0 -55.05 -498.0 -52.85 -494.3 -52.2 -494.3 -47.8 -494.3 -44.8 -497.95 L-41.65 -502.15 Q-40.2 -501.4 -37.65 -498.95 L-40.1 -497.35 -42.35 -496.1 Q-44.7 -495.25 -47.6 -494.75 -51.95 -492.7 -56.05 -492.7 L-56.45 -492.7 -56.75 -492.7 -57.8 -492.9 Q-60.25 -493.6 -62.45 -496.05 L-63.45 -496.0 Q-64.6 -496.0 -65.9 -497.55 L-72.6 -500.35 Q-77.9 -503.05 -78.75 -505.45 -81.5 -507.95 -85.25 -512.55 L-88.55 -515.9 Q-90.65 -517.05 -93.25 -519.25 L-97.25 -522.95 M-79.1 -515.8 Q-78.05 -515.4 -78.05 -513.85 L-79.1 -513.25 -79.9 -513.55 Q-80.15 -513.75 -80.15 -514.5 L-79.9 -515.5 -79.1 -515.8 M-31.9 -505.7 Q-31.2 -506.6 -31.05 -507.05 L-29.2 -508.4 Q-27.2 -509.4 -23.3 -513.3 L-23.1 -513.5 -22.6 -514.0 -19.1 -517.45 -18.55 -517.8 -18.4 -517.9 -14.75 -520.3 -14.15 -520.7 Q-16.7 -518.4 -20.75 -514.95 L-31.9 -505.7" fill="#757b5e" fill-rule="evenodd" stroke="none"/>
    <path d="M-5.6 -526.1 L-5.5 -525.8 -6.15 -525.1 -8.4 -522.85 -9.9 -521.4 -11.85 -519.4 -12.4 -519.0 -15.4 -516.65 -19.65 -513.25 -29.7 -504.8 -31.6 -503.1 Q-32.6 -501.3 -32.6 -499.55 L-32.5 -499.45 -33.2 -499.05 Q-36.2 -497.35 -40.8 -495.15 -45.4 -492.95 -48.8 -491.5 L-51.55 -491.3 -57.75 -490.7 -58.15 -491.0 -59.45 -491.85 -59.55 -491.85 -61.6 -492.95 -63.4 -493.55 -63.7 -493.9 -64.05 -494.3 -70.25 -497.6 -72.15 -498.6 Q-77.7 -501.8 -80.75 -504.75 L-81.55 -505.55 -88.65 -512.45 -92.95 -516.3 -93.9 -517.1 -95.9 -518.95 Q-96.75 -521.05 -97.75 -523.0 L-97.25 -522.95 -93.25 -519.25 Q-90.65 -517.05 -88.55 -515.9 L-85.25 -512.55 Q-81.5 -507.95 -78.75 -505.45 -77.9 -503.05 -72.6 -500.35 L-65.9 -497.55 Q-64.6 -496.0 -63.45 -496.0 L-62.45 -496.05 Q-60.25 -493.6 -57.8 -492.9 L-56.75 -492.7 -56.45 -492.7 -56.05 -492.7 Q-51.95 -492.7 -47.6 -494.75 -44.7 -495.25 -42.35 -496.1 L-40.1 -497.35 -37.65 -498.95 -36.65 -499.7 -36.6 -500.05 -35.8 -500.9 -35.0 -501.9 -33.9 -503.2 -31.9 -505.65 -31.9 -505.7 -20.75 -514.95 Q-16.7 -518.4 -14.15 -520.7 L-5.6 -526.1" fill="#66685b" fill-rule="evenodd" stroke="none"/>
  </g>
</svg>
