<?xml version="1.0" encoding="UTF-8" standalone="no"?>
<svg xmlns:ffdec="https://www.free-decompiler.com/flash" xmlns:xlink="http://www.w3.org/1999/xlink" ffdec:objectType="shape" height="597.65px" width="380.0px" xmlns="http://www.w3.org/2000/svg">
  <g transform="matrix(1.0, 0.0, 0.0, 1.0, 241.7, 677.5)">
    <path d="M3.55 -408.05 L4.5 -399.5 Q5.15 -394.55 7.75 -392.85 L7.75 -392.65 Q7.75 -391.75 8.1 -391.3 8.55 -390.65 10.05 -390.65 11.65 -390.65 12.45 -394.55 L12.55 -395.15 12.9 -395.75 12.8 -392.85 Q12.8 -390.45 14.15 -389.5 14.7 -389.65 15.3 -390.05 15.85 -393.9 15.85 -400.95 L15.85 -402.6 16.2 -401.95 Q16.25 -397.55 16.75 -394.5 L17.35 -389.25 17.5 -388.4 17.55 -384.0 Q17.95 -381.25 21.75 -376.75 L21.85 -375.75 Q22.1 -373.1 23.4 -373.1 L23.65 -373.1 23.85 -370.5 Q23.65 -367.9 23.75 -366.3 24.05 -363.5 25.8 -362.35 L26.7 -363.15 26.85 -367.65 26.9 -366.25 26.85 -364.8 Q27.45 -361.4 27.45 -359.45 L27.3 -356.15 28.05 -356.15 Q28.6 -354.3 28.6 -350.35 L29.0 -351.55 29.2 -353.15 30.05 -353.15 31.2 -340.65 31.75 -331.15 31.25 -322.0 30.6 -309.7 Q30.6 -308.85 29.75 -308.3 28.8 -311.4 28.6 -320.45 L28.25 -313.65 Q27.9 -308.0 27.2 -304.25 L27.2 -303.75 Q27.2 -301.75 25.55 -301.25 23.95 -300.65 23.95 -298.2 23.95 -295.95 23.35 -291.25 L22.25 -284.15 Q21.65 -279.8 21.65 -276.5 22.65 -268.65 22.6 -262.4 22.35 -250.1 16.95 -250.1 14.65 -250.1 14.45 -247.3 L14.7 -243.8 Q14.7 -241.3 12.4 -233.6 10.35 -226.6 9.7 -225.5 L8.3 -225.2 8.95 -228.85 8.3 -227.75 Q7.05 -225.6 6.1 -220.9 5.8 -219.7 1.55 -219.7 -0.05 -219.7 -0.35 -217.1 -0.8 -213.8 -1.85 -212.7 L-3.45 -212.7 Q-4.2 -218.9 -3.7 -226.6 L-3.95 -227.1 -4.85 -228.1 Q-4.85 -223.8 -5.8 -213.2 L-6.45 -204.25 -7.35 -196.35 Q-7.6 -196.1 -8.0 -196.0 L-8.15 -200.25 -8.2 -204.75 Q-8.4 -207.35 -9.85 -209.4 -11.25 -209.05 -11.25 -206.75 L-11.35 -203.25 Q-13.25 -203.4 -15.8 -202.5 L-16.85 -205.2 -17.6 -207.75 -18.55 -207.9 -20.75 -208.05 Q-21.9 -205.1 -21.9 -199.65 L-25.75 -198.85 -27.0 -198.35 -27.9 -191.1 -28.4 -191.1 -28.55 -194.65 Q-28.9 -194.0 -30.15 -193.7 L-30.35 -195.45 -30.65 -195.35 -31.0 -194.95 -31.35 -195.25 -31.6 -195.25 Q-34.3 -195.25 -34.95 -195.9 -36.5 -195.6 -37.35 -193.7 -38.5 -192.65 -39.15 -190.0 -39.8 -186.3 -40.3 -185.15 L-40.3 -184.9 -40.95 -184.9 -41.0 -184.9 Q-41.0 -188.15 -41.7 -189.65 -43.9 -191.1 -45.1 -190.55 -45.95 -190.15 -45.95 -188.9 L-48.1 -188.6 -51.85 -188.0 Q-54.75 -188.0 -54.4 -188.4 -55.0 -191.0 -55.0 -197.1 L-55.55 -197.1 Q-56.05 -190.85 -58.15 -183.15 L-58.65 -186.45 -58.65 -175.2 -58.8 -170.85 -59.0 -170.55 -59.4 -170.15 Q-59.8 -171.0 -60.05 -174.8 L-60.05 -193.35 Q-62.4 -192.75 -64.0 -188.2 L-64.95 -184.45 -65.05 -184.6 -65.05 -186.3 -68.55 -185.75 -68.7 -183.75 Q-69.05 -178.75 -69.5 -175.5 L-70.1 -175.25 Q-70.75 -179.05 -70.75 -185.25 L-71.2 -185.1 Q-71.55 -182.05 -71.25 -180.25 L-71.85 -180.15 -72.0 -181.15 Q-72.1 -174.55 -72.55 -170.85 L-73.0 -170.85 -73.3 -179.35 -73.6 -179.35 -74.25 -185.05 Q-75.55 -185.55 -76.2 -187.25 L-77.85 -191.3 -79.95 -189.05 Q-81.25 -187.65 -81.35 -185.9 -82.25 -183.65 -82.4 -178.45 L-82.9 -178.4 Q-83.1 -183.3 -83.4 -185.75 L-83.85 -192.95 Q-84.15 -195.7 -85.2 -197.65 L-85.15 -198.0 Q-85.2 -199.9 -86.35 -200.75 L-85.55 -190.65 -85.75 -189.55 -86.35 -189.45 Q-86.85 -190.85 -87.8 -199.75 L-87.95 -201.35 -88.2 -201.4 Q-88.2 -202.8 -89.5 -202.0 L-89.8 -201.35 -89.95 -201.35 -89.9 -201.15 -90.6 -197.4 -90.65 -197.4 Q-92.0 -198.1 -92.65 -199.15 L-92.8 -201.4 -92.55 -207.55 Q-92.55 -208.6 -92.7 -209.2 L-93.25 -210.4 Q-94.95 -207.7 -95.85 -196.8 L-96.25 -190.65 -96.55 -190.2 -96.85 -194.25 Q-96.85 -205.3 -98.6 -210.1 L-99.2 -209.95 -99.3 -202.85 Q-100.5 -208.0 -104.3 -211.6 -105.05 -212.35 -105.55 -214.35 -105.95 -216.0 -105.95 -217.55 -105.95 -218.65 -106.65 -219.9 L-108.25 -222.85 Q-109.15 -224.95 -109.35 -228.1 L-109.4 -234.2 -110.2 -234.7 Q-111.0 -235.35 -111.55 -235.6 -112.35 -233.35 -112.35 -227.2 L-112.9 -226.9 -113.8 -226.35 Q-117.2 -227.25 -116.95 -228.55 L-116.45 -231.9 -117.85 -233.9 Q-119.3 -235.9 -119.9 -237.85 -121.0 -241.45 -121.0 -249.25 -120.15 -252.6 -122.7 -255.6 L-125.45 -258.45 Q-126.6 -265.95 -126.6 -269.8 L-127.45 -270.4 Q-128.85 -267.35 -128.85 -264.3 L-129.55 -263.8 Q-130.35 -263.2 -131.25 -262.85 -132.55 -264.8 -132.9 -269.0 -133.2 -272.7 -134.65 -273.95 L-134.65 -288.75 -132.95 -288.85 -132.35 -285.75 -131.85 -281.9 -131.25 -281.9 Q-130.1 -286.6 -127.55 -294.0 -125.75 -300.45 -126.6 -307.2 L-126.85 -312.4 -127.15 -310.3 -129.4 -310.3 Q-130.0 -311.15 -130.0 -313.85 -130.25 -314.7 -130.25 -314.1 L-130.55 -313.65 -131.25 -313.2 -131.25 -303.6 -131.9 -303.1 Q-132.65 -302.55 -133.5 -302.2 -134.45 -304.15 -135.1 -306.75 -135.8 -309.55 -135.8 -311.55 -135.8 -313.1 -135.05 -316.5 -134.2 -320.25 -134.1 -321.95 L-133.25 -321.95 -132.0 -316.65 -132.35 -330.9 -132.1 -343.1 -130.85 -343.1 -130.05 -332.1 -129.3 -324.0 -129.4 -329.2 -129.15 -338.65 -128.95 -341.9 Q-129.7 -345.45 -129.7 -348.95 -129.7 -350.25 -130.85 -352.7 -132.05 -355.15 -132.1 -356.45 L-133.35 -357.5 Q-134.6 -358.55 -134.65 -359.55 L-134.65 -364.0 -134.4 -366.75 -135.25 -366.55 Q-135.25 -367.35 -135.8 -369.2 -136.4 -371.1 -136.4 -372.65 -136.4 -372.85 -134.8 -373.85 -133.25 -375.3 -133.25 -377.65 -133.25 -381.05 -132.35 -382.7 -131.4 -381.9 -131.4 -378.75 -129.65 -387.85 -128.25 -408.05 L-126.3 -408.05 Q-125.7 -402.75 -125.7 -391.0 L-124.25 -393.95 -124.2 -394.7 -123.7 -403.05 -122.9 -403.05 Q-122.2 -401.3 -122.0 -399.2 L-121.9 -397.95 Q-118.8 -403.25 -117.75 -406.3 -117.05 -408.45 -116.05 -414.8 -114.8 -420.2 -112.1 -421.05 -111.55 -416.7 -111.55 -408.3 L-109.6 -410.45 -107.95 -412.2 -107.95 -412.25 Q-107.95 -415.1 -106.25 -433.15 L-105.45 -433.15 -104.6 -427.45 -104.3 -434.7 -103.0 -434.7 -101.6 -425.75 -99.75 -425.6 Q-96.4 -425.6 -93.4 -431.9 -90.65 -437.75 -90.65 -443.1 L-90.15 -443.25 -90.15 -442.6 Q-89.85 -439.35 -88.95 -438.2 L-88.0 -438.55 -87.3 -441.85 -87.1 -436.1 Q-83.85 -437.0 -82.9 -438.55 L-81.4 -441.1 -78.45 -440.8 -78.15 -440.35 Q-78.05 -449.1 -77.6 -456.9 L-77.2 -456.9 -76.65 -445.75 Q-76.25 -447.25 -75.3 -447.25 L-74.8 -445.2 -74.45 -443.3 -73.05 -445.1 Q-71.8 -447.05 -71.25 -448.85 L-70.95 -448.75 Q-70.05 -448.75 -69.95 -449.0 L-69.95 -449.25 -69.75 -458.1 -69.75 -458.45 Q-69.5 -460.95 -69.5 -467.4 L-69.15 -467.6 -69.15 -467.05 -68.9 -465.8 -68.9 -463.8 -68.85 -459.4 Q-68.65 -457.1 -67.95 -456.2 L-67.75 -447.05 Q-65.35 -447.6 -64.35 -452.45 -63.75 -455.1 -63.4 -459.55 L-62.5 -459.85 -61.65 -454.75 Q-62.05 -453.3 -61.8 -450.9 L-61.6 -448.35 Q-61.55 -450.85 -61.1 -454.0 L-60.25 -454.0 Q-59.65 -451.7 -59.65 -448.95 L-59.0 -448.4 Q-58.65 -447.9 -57.0 -447.9 -55.25 -447.9 -55.25 -448.65 L-55.25 -450.05 -52.45 -450.05 -52.55 -447.5 -52.45 -447.05 Q-52.15 -447.8 -52.15 -451.2 -51.85 -451.2 -51.7 -451.55 L-51.3 -452.0 Q-49.6 -447.2 -48.75 -442.1 L-48.5 -440.65 -48.1 -451.05 -47.65 -451.05 Q-47.05 -445.7 -47.05 -438.3 L-47.05 -437.65 -46.9 -437.65 -46.75 -437.45 -46.35 -440.05 -45.9 -440.05 Q-45.3 -438.7 -45.3 -436.45 L-45.3 -436.0 -43.5 -436.4 Q-41.7 -441.9 -41.35 -448.35 L-40.5 -448.35 Q-39.95 -445.0 -39.95 -441.8 -39.95 -440.55 -41.0 -436.55 L-40.5 -436.55 -40.5 -436.7 -40.4 -437.25 -39.65 -438.4 Q-39.1 -437.85 -38.95 -437.05 L-38.9 -436.5 -38.25 -436.45 -37.8 -436.1 -37.45 -435.45 -35.55 -436.1 Q-35.25 -435.7 -35.0 -434.35 L-34.4 -432.0 Q-33.75 -434.6 -32.75 -441.1 L-31.3 -450.65 -31.3 -450.25 -30.8 -445.7 Q-31.0 -442.6 -30.75 -439.65 -30.6 -436.95 -30.1 -435.4 L-30.15 -432.4 Q-30.35 -431.3 -30.1 -430.4 L-29.65 -429.3 -29.65 -429.15 Q-29.25 -426.25 -28.65 -425.25 L-27.55 -426.2 Q-27.2 -426.75 -27.2 -427.75 L-27.2 -428.65 -26.75 -428.8 -26.25 -427.3 -26.1 -430.4 -25.6 -430.4 -25.05 -426.5 -25.0 -428.45 -24.25 -441.25 -23.85 -441.25 Q-23.3 -438.85 -23.3 -434.5 -23.3 -432.6 -23.6 -431.4 L-23.3 -431.4 -23.05 -429.3 -22.7 -432.1 -22.1 -432.1 Q-21.4 -426.95 -21.35 -420.75 -19.9 -419.2 -19.4 -417.6 L-18.45 -415.0 -18.0 -417.0 -17.5 -417.0 Q-17.1 -416.35 -17.1 -414.85 L-17.3 -412.85 -16.9 -412.2 -16.2 -426.15 -15.7 -426.15 Q-15.25 -421.05 -15.2 -414.1 L-15.15 -414.15 -14.95 -415.6 Q-14.75 -417.6 -15.0 -418.65 L-14.6 -418.65 Q-13.65 -417.3 -13.55 -415.0 -11.65 -412.95 -10.7 -411.05 -9.5 -408.75 -9.3 -405.75 -8.75 -410.4 -8.1 -420.65 L-7.5 -424.95 -7.4 -422.75 Q-7.05 -420.1 -5.5 -418.7 L-4.1 -419.3 -3.65 -430.05 Q-3.15 -424.65 -2.45 -421.3 L-2.6 -416.8 Q-2.6 -410.95 -2.25 -409.95 -1.15 -406.75 3.55 -408.05 M-71.5 -405.35 L-72.25 -402.1 -73.0 -398.35 -73.2 -397.65 Q-73.35 -400.1 -73.65 -401.95 L-74.25 -401.95 -74.55 -394.25 -75.5 -391.65 -76.1 -391.25 Q-76.15 -392.85 -76.7 -393.6 -77.3 -392.3 -77.4 -390.4 L-78.4 -389.75 -78.4 -395.35 -79.6 -395.45 -80.25 -395.35 Q-80.0 -392.05 -80.05 -389.35 L-80.1 -387.45 -80.65 -387.45 Q-80.7 -386.45 -81.25 -384.4 L-81.75 -385.4 -81.7 -386.35 Q-81.7 -387.4 -82.4 -390.25 L-82.8 -390.25 Q-83.75 -385.7 -83.9 -383.7 L-84.35 -383.45 -84.35 -384.7 -84.45 -386.25 -84.65 -387.3 -85.15 -387.3 Q-85.15 -386.4 -85.65 -384.1 L-86.15 -381.1 -86.15 -380.95 -86.45 -382.1 Q-87.05 -381.15 -87.5 -378.15 L-88.5 -378.1 Q-88.5 -377.7 -89.1 -376.8 L-90.5 -375.25 -90.6 -375.6 Q-90.6 -379.05 -91.2 -380.8 -92.5 -379.45 -92.8 -376.7 L-92.95 -372.5 -93.25 -372.6 Q-93.3 -375.95 -93.95 -379.2 L-94.45 -379.2 -95.35 -371.2 -96.1 -369.3 -96.35 -369.4 Q-96.4 -372.65 -96.7 -374.45 -98.75 -372.95 -98.9 -367.95 L-99.05 -368.5 -99.5 -368.5 -99.8 -370.5 -100.15 -370.5 Q-100.55 -367.9 -100.6 -364.2 L-100.7 -363.45 Q-101.3 -362.15 -101.85 -361.35 L-102.25 -361.3 Q-102.25 -364.6 -102.5 -366.3 L-103.25 -366.3 -103.95 -364.55 -104.1 -362.65 -103.95 -360.15 -103.85 -359.9 Q-104.2 -359.25 -104.2 -358.2 -104.25 -353.05 -105.5 -350.95 -105.8 -351.55 -106.6 -351.65 L-107.6 -351.55 -107.6 -344.5 Q-105.7 -341.95 -105.75 -337.2 -105.8 -331.1 -105.5 -329.8 -104.6 -330.4 -104.1 -331.9 L-104.1 -331.8 -104.0 -325.85 -104.25 -325.85 -105.0 -321.1 -106.25 -321.15 -106.55 -324.45 -107.25 -324.45 -107.5 -321.1 -107.6 -321.1 -107.75 -318.6 Q-107.9 -321.85 -108.45 -324.3 L-109.45 -324.15 -109.45 -313.45 -108.85 -306.4 -108.45 -306.4 Q-108.1 -308.65 -107.9 -311.35 L-107.6 -310.75 Q-107.55 -304.2 -107.15 -300.45 L-106.65 -300.45 -106.25 -305.45 -105.6 -304.5 -105.15 -298.1 -104.25 -298.1 -104.2 -298.25 -104.25 -296.9 -103.85 -291.0 -102.8 -282.75 -102.3 -283.5 -101.9 -287.65 -101.8 -287.05 -101.2 -282.75 -100.4 -278.0 Q-99.9 -275.35 -99.3 -274.2 -99.15 -274.3 -99.15 -274.85 -99.15 -275.25 -98.3 -275.25 -97.6 -275.25 -97.7 -274.7 -97.85 -274.2 -97.1 -274.2 -96.3 -274.2 -95.25 -275.55 L-95.05 -269.9 -94.45 -270.1 -94.2 -275.75 -93.85 -275.75 -93.35 -276.2 -92.9 -284.85 -91.95 -291.65 -91.95 -290.9 Q-91.95 -281.1 -91.5 -276.35 L-90.95 -276.45 -90.7 -281.7 -87.4 -281.45 -86.35 -281.6 -86.2 -281.8 -86.2 -283.15 -85.65 -282.9 Q-85.8 -281.25 -83.75 -279.65 -83.25 -279.85 -82.2 -281.65 L-82.2 -281.0 -81.45 -281.1 -81.1 -272.15 -80.65 -272.15 Q-80.15 -276.6 -80.05 -281.6 L-79.9 -281.6 -79.05 -275.75 -78.95 -275.35 Q-79.3 -272.8 -79.3 -269.1 -79.3 -265.15 -78.7 -263.0 L-78.1 -263.15 -77.65 -268.4 -77.3 -267.95 -76.45 -254.75 -76.0 -254.75 Q-75.4 -257.35 -75.4 -263.0 L-75.5 -265.55 -75.3 -265.05 -75.15 -261.85 Q-75.1 -259.95 -74.85 -258.95 -73.55 -259.05 -72.8 -259.7 L-71.95 -260.6 -71.35 -256.2 -70.35 -256.4 Q-70.15 -257.95 -70.1 -259.75 L-70.0 -259.4 Q-69.5 -257.9 -69.5 -256.8 L-69.65 -253.9 Q-69.55 -251.9 -68.0 -251.45 L-67.3 -251.95 Q-67.4 -250.85 -66.95 -249.2 -66.35 -247.05 -65.4 -246.8 L-64.4 -247.05 -64.0 -243.9 Q-63.6 -244.2 -63.6 -244.65 L-63.35 -248.4 -63.3 -248.15 Q-62.05 -240.75 -61.4 -239.1 L-60.8 -239.3 -60.9 -242.0 -60.5 -240.65 Q-59.5 -237.15 -58.2 -236.2 -56.95 -236.7 -56.45 -238.8 L-56.05 -241.55 Q-54.25 -241.4 -52.7 -242.35 -50.9 -243.5 -51.0 -245.4 -48.8 -244.4 -48.2 -246.1 -47.85 -246.95 -47.75 -248.8 L-46.4 -251.65 -46.1 -252.2 -45.9 -252.0 -44.8 -251.95 Q-43.9 -251.95 -43.85 -252.15 L-43.7 -252.75 Q-43.6 -252.75 -43.45 -252.15 L-42.95 -251.45 -41.9 -251.35 Q-41.6 -251.35 -41.6 -251.05 -41.1 -249.85 -41.1 -249.4 -40.95 -246.7 -40.0 -243.35 L-38.7 -243.5 -38.35 -243.7 -37.4 -248.4 -36.9 -251.0 -36.15 -250.5 -33.8 -253.7 -33.1 -255.3 -32.65 -254.45 -32.05 -254.75 -31.4 -262.85 -31.35 -262.4 -30.4 -254.75 Q-30.05 -254.9 -29.95 -255.25 L-29.9 -255.5 -29.45 -263.1 -29.65 -265.85 Q-29.2 -266.15 -29.05 -266.6 L-28.05 -257.8 Q-27.2 -261.4 -27.2 -265.9 L-27.2 -268.0 -26.65 -268.05 -26.55 -266.45 Q-26.2 -264.85 -24.85 -263.3 L-23.95 -263.45 Q-22.9 -265.65 -21.55 -270.6 -20.45 -274.7 -19.35 -276.9 L-19.1 -269.4 -18.5 -269.5 -18.2 -273.85 -17.3 -264.55 -16.8 -264.55 Q-16.15 -268.0 -16.15 -272.45 L-16.15 -273.0 -15.7 -272.95 -15.55 -271.6 -15.15 -271.6 -14.9 -272.9 -14.8 -272.9 Q-14.0 -272.9 -13.25 -279.35 L-12.8 -283.65 -12.35 -279.3 Q-12.05 -279.55 -12.05 -279.95 L-10.95 -292.15 -10.95 -292.5 -10.85 -292.95 Q-10.35 -294.75 -10.35 -295.7 L-9.35 -293.1 -8.25 -293.3 -7.65 -297.95 Q-7.15 -301.8 -6.7 -301.8 L-6.1 -301.8 -5.9 -301.2 -4.85 -301.35 Q-4.3 -301.9 -3.85 -303.25 L-3.3 -303.45 Q-2.7 -306.85 -2.7 -310.25 L-2.85 -322.6 Q-3.1 -335.05 -3.5 -341.7 L-4.1 -341.7 -4.4 -327.85 -6.05 -338.25 Q-6.1 -345.2 -6.45 -348.65 L-7.0 -348.65 -7.15 -339.5 -7.6 -338.85 -8.2 -344.05 -8.75 -344.05 -8.8 -341.9 -8.85 -342.2 -9.25 -349.05 -8.6 -355.8 Q-8.75 -360.8 -12.85 -360.85 -12.95 -365.6 -13.4 -368.3 L-14.0 -368.3 -14.2 -360.0 -14.4 -359.65 Q-14.4 -362.85 -15.55 -369.25 L-16.15 -369.0 -16.3 -371.5 -16.8 -378.2 Q-17.25 -377.5 -17.5 -372.45 L-18.75 -372.05 Q-18.8 -377.75 -19.2 -383.45 L-19.8 -383.45 -19.9 -373.85 -19.95 -374.05 Q-20.05 -379.2 -20.4 -383.45 L-20.9 -383.45 -20.95 -377.65 Q-21.6 -379.85 -21.5 -381.4 -21.3 -386.45 -21.95 -391.8 -23.85 -390.6 -24.05 -387.45 -23.95 -383.9 -24.1 -382.55 -24.15 -381.75 -27.15 -379.35 -29.25 -377.7 -30.1 -376.25 L-30.65 -380.1 -31.35 -380.1 -32.0 -375.5 -32.6 -376.55 -33.1 -377.4 -33.0 -378.35 Q-33.0 -379.2 -33.15 -379.25 L-33.85 -379.35 Q-35.85 -377.5 -36.5 -374.05 L-36.8 -371.2 -36.6 -376.6 Q-36.6 -378.05 -37.15 -378.75 L-37.75 -378.75 -38.7 -373.7 Q-39.25 -375.25 -40.3 -375.85 -41.6 -373.95 -41.6 -372.5 L-41.8 -372.5 Q-41.8 -373.8 -42.2 -374.65 -42.25 -378.35 -42.95 -381.7 L-43.55 -381.7 Q-43.9 -378.8 -43.9 -375.45 L-45.85 -384.4 -46.3 -384.4 -46.55 -382.95 -46.5 -382.45 -47.55 -386.9 -48.15 -386.9 -48.35 -385.55 -48.6 -383.75 -48.5 -381.95 -48.6 -381.95 Q-49.1 -384.35 -50.5 -385.3 L-50.6 -385.15 -50.7 -383.25 Q-51.45 -384.5 -51.45 -386.95 -51.4 -392.7 -52.9 -393.85 -54.05 -392.9 -54.3 -390.45 -54.35 -387.8 -54.55 -387.05 -56.5 -387.75 -57.3 -387.75 -57.3 -388.75 -58.4 -390.2 -59.45 -391.55 -59.95 -391.55 L-60.95 -391.25 -61.45 -395.0 -62.05 -395.0 -62.3 -391.9 -62.5 -392.85 -63.4 -392.7 -63.6 -386.75 -63.6 -386.4 -64.05 -386.1 Q-63.55 -389.15 -63.55 -390.05 -63.55 -391.5 -64.4 -393.1 -64.85 -392.65 -65.75 -389.1 L-66.0 -388.25 -66.1 -388.5 -66.15 -389.35 -66.75 -396.2 -67.3 -396.2 Q-67.65 -393.85 -67.65 -389.55 L-67.65 -389.0 -67.9 -388.9 -67.9 -390.5 Q-67.9 -397.5 -68.3 -400.95 L-69.2 -400.95 -69.35 -390.6 -69.3 -387.85 -69.4 -387.75 -69.7 -391.4 -70.5 -398.3 -70.4 -399.2 -70.15 -405.15 -71.5 -405.35 M-2.85 -436.45 L-3.35 -434.7 -3.45 -434.2 -3.45 -434.55 -3.6 -436.45 -2.85 -436.45 M-23.8 -430.9 L-23.85 -430.8 -23.85 -430.5 -23.8 -430.9 M-102.55 -332.95 L-102.0 -331.7 -102.25 -322.95 -102.85 -322.2 -102.55 -332.95 M-100.65 -328.8 L-100.85 -327.95 -100.9 -327.3 -100.9 -329.3 -100.65 -328.8 M-96.0 -366.8 L-96.1 -366.05 -96.3 -366.2 -96.3 -366.85 -96.0 -366.8 M-28.65 -196.45 L-28.9 -196.2 -28.55 -194.95 -28.6 -196.45 -28.65 -196.45 M-82.55 -177.9 L-82.9 -178.0 -82.9 -178.1 -82.55 -177.9" fill="#0fb8f0" fill-rule="evenodd" stroke="none"/>
    <path d="M-71.5 -405.35 L-70.15 -405.15 -70.4 -399.2 -70.5 -398.3 -69.7 -391.4 -69.4 -387.75 -69.3 -387.85 -69.35 -390.6 -69.2 -400.95 -68.3 -400.95 Q-67.9 -397.5 -67.9 -390.5 L-67.9 -388.9 -67.65 -389.0 -67.65 -389.55 Q-67.65 -393.85 -67.3 -396.2 L-66.75 -396.2 -66.15 -389.35 -66.1 -388.5 -66.0 -388.25 -65.75 -389.1 Q-64.85 -392.65 -64.4 -393.1 -63.55 -391.5 -63.55 -390.05 -63.55 -389.15 -64.05 -386.1 L-63.6 -386.4 -63.6 -386.75 -63.4 -392.7 -62.5 -392.85 -62.3 -391.9 -62.05 -395.0 -61.45 -395.0 -60.95 -391.25 -59.95 -391.55 Q-59.45 -391.55 -58.4 -390.2 -57.3 -388.75 -57.3 -387.75 -56.5 -387.75 -54.55 -387.05 -54.35 -387.8 -54.3 -390.45 -54.05 -392.9 -52.9 -393.85 -51.4 -392.7 -51.45 -386.95 -51.45 -384.5 -50.7 -383.25 L-50.6 -385.15 -50.5 -385.3 Q-49.1 -384.35 -48.6 -381.95 L-48.5 -381.95 -48.6 -383.75 -48.35 -385.55 -48.15 -386.9 -47.55 -386.9 -46.5 -382.45 -46.55 -382.95 -46.3 -384.4 -45.85 -384.4 -43.9 -375.45 Q-43.9 -378.8 -43.55 -381.7 L-42.95 -381.7 Q-42.25 -378.35 -42.2 -374.65 -41.8 -373.8 -41.8 -372.5 L-41.6 -372.5 Q-41.6 -373.95 -40.3 -375.85 -39.25 -375.25 -38.7 -373.7 L-37.75 -378.75 -37.15 -378.75 Q-36.6 -378.05 -36.6 -376.6 L-36.8 -371.2 -36.5 -374.05 Q-35.85 -377.5 -33.85 -379.35 L-33.15 -379.25 Q-33.0 -379.2 -33.0 -378.35 L-33.1 -377.4 -32.6 -376.55 -32.0 -375.5 -31.35 -380.1 -30.65 -380.1 -30.1 -376.25 Q-29.25 -377.7 -27.15 -379.35 -24.15 -381.75 -24.1 -382.55 -23.95 -383.9 -24.05 -387.45 -23.85 -390.6 -21.95 -391.8 -21.3 -386.45 -21.5 -381.4 -21.6 -379.85 -20.95 -377.65 L-20.9 -383.45 -20.4 -383.45 Q-20.05 -379.2 -19.95 -374.05 L-19.9 -373.85 -19.8 -383.45 -19.2 -383.45 Q-18.8 -377.75 -18.75 -372.05 L-17.5 -372.45 Q-17.25 -377.5 -16.8 -378.2 L-16.3 -371.5 -16.15 -369.0 -15.55 -369.25 Q-14.4 -362.85 -14.4 -359.65 L-14.2 -360.0 -14.0 -368.3 -13.4 -368.3 Q-12.95 -365.6 -12.85 -360.85 -8.75 -360.8 -8.6 -355.8 L-9.25 -349.05 -8.85 -342.2 -8.8 -341.9 -8.75 -344.05 -8.2 -344.05 -7.6 -338.85 -7.15 -339.5 -7.0 -348.65 -6.45 -348.65 Q-6.1 -345.2 -6.05 -338.25 L-4.4 -327.85 -4.1 -341.7 -3.5 -341.7 Q-3.1 -335.05 -2.85 -322.6 L-2.7 -310.25 Q-2.7 -306.85 -3.3 -303.45 L-3.85 -303.25 Q-4.3 -301.9 -4.85 -301.35 L-5.9 -301.2 -6.1 -301.8 -6.7 -301.8 Q-7.15 -301.8 -7.65 -297.95 L-8.25 -293.3 -9.35 -293.1 -10.35 -295.7 Q-10.35 -294.75 -10.85 -292.95 L-10.95 -292.5 -10.95 -292.15 -12.05 -279.95 Q-12.05 -279.55 -12.35 -279.3 L-12.8 -283.65 -13.25 -279.35 Q-14.0 -272.9 -14.8 -272.9 L-14.9 -272.9 -15.15 -271.6 -15.55 -271.6 -15.7 -272.95 -16.15 -273.0 -16.15 -272.45 Q-16.15 -268.0 -16.8 -264.55 L-17.3 -264.55 -18.2 -273.85 -18.5 -269.5 -19.1 -269.4 -19.35 -276.9 Q-20.45 -274.7 -21.55 -270.6 -22.9 -265.65 -23.95 -263.45 L-24.85 -263.3 Q-26.2 -264.85 -26.55 -266.45 L-26.65 -268.05 -27.2 -268.0 -27.2 -265.9 Q-27.2 -261.4 -28.05 -257.8 L-29.05 -266.6 Q-29.2 -266.15 -29.65 -265.85 L-29.45 -263.1 -29.9 -255.5 -29.95 -255.25 Q-30.05 -254.9 -30.4 -254.75 L-31.35 -262.4 -31.4 -262.85 -32.05 -254.75 -32.65 -254.45 -33.1 -255.3 -33.8 -253.7 -36.15 -250.5 -36.9 -251.0 -37.4 -248.4 -38.35 -243.7 -38.7 -243.5 -40.0 -243.35 Q-40.95 -246.7 -41.1 -249.4 -41.1 -249.85 -41.6 -251.05 -41.6 -251.35 -41.9 -251.35 L-42.95 -251.45 -43.45 -252.15 Q-43.6 -252.75 -43.7 -252.75 L-43.85 -252.15 Q-43.9 -251.95 -44.8 -251.95 L-45.9 -252.0 -46.1 -252.2 -46.4 -251.65 -47.75 -248.8 Q-47.85 -246.95 -48.2 -246.1 -48.8 -244.4 -51.0 -245.4 -50.9 -243.5 -52.7 -242.35 -54.25 -241.4 -56.05 -241.55 L-56.45 -238.8 Q-56.95 -236.7 -58.2 -236.2 -59.5 -237.15 -60.5 -240.65 L-60.9 -242.0 -60.8 -239.3 -61.4 -239.1 Q-62.05 -240.75 -63.3 -248.15 L-63.35 -248.4 -63.6 -244.65 Q-63.6 -244.2 -64.0 -243.9 L-64.4 -247.05 -65.4 -246.8 Q-66.35 -247.05 -66.95 -249.2 -67.4 -250.85 -67.3 -251.95 L-68.0 -251.45 Q-69.55 -251.9 -69.65 -253.9 L-69.5 -256.8 Q-69.5 -257.9 -70.0 -259.4 L-70.1 -259.75 Q-70.15 -257.95 -70.35 -256.4 L-71.35 -256.2 -71.95 -260.6 -72.8 -259.7 Q-73.55 -259.05 -74.85 -258.95 -75.1 -259.95 -75.15 -261.85 L-75.3 -265.05 -75.5 -265.55 -75.4 -263.0 Q-75.4 -257.35 -76.0 -254.75 L-76.45 -254.75 -77.3 -267.95 -77.65 -268.4 -78.1 -263.15 -78.7 -263.0 Q-79.3 -265.15 -79.3 -269.1 -79.3 -272.8 -78.95 -275.35 L-79.05 -275.75 -79.9 -281.6 -80.05 -281.6 Q-80.15 -276.6 -80.65 -272.15 L-81.1 -272.15 -81.45 -281.1 -82.2 -281.0 -82.2 -281.65 Q-83.25 -279.85 -83.75 -279.65 -85.8 -281.25 -85.65 -282.9 L-86.2 -283.15 -86.2 -281.8 -86.35 -281.6 -87.4 -281.45 -90.7 -281.7 -90.95 -276.45 -91.5 -276.35 Q-91.95 -281.1 -91.95 -290.9 L-91.95 -291.65 -92.9 -284.85 -93.35 -276.2 -93.85 -275.75 -94.2 -275.75 -94.45 -270.1 -95.05 -269.9 -95.25 -275.55 Q-96.3 -274.2 -97.1 -274.2 -97.85 -274.2 -97.7 -274.7 -97.6 -275.25 -98.3 -275.25 -99.15 -275.25 -99.15 -274.85 -99.15 -274.3 -99.3 -274.2 -99.9 -275.35 -100.4 -278.0 L-101.2 -282.75 -101.8 -287.05 -101.9 -287.65 -102.3 -283.5 -102.8 -282.75 -103.85 -291.0 -104.25 -296.9 -104.2 -298.25 -104.25 -298.1 -105.15 -298.1 -105.6 -304.5 -106.25 -305.45 -106.65 -300.45 -107.15 -300.45 Q-107.55 -304.2 -107.6 -310.75 L-107.9 -311.35 Q-108.1 -308.65 -108.45 -306.4 L-108.85 -306.4 -109.45 -313.45 -109.45 -324.15 -108.45 -324.3 Q-107.9 -321.85 -107.75 -318.6 L-107.6 -321.1 -107.5 -321.1 -107.25 -324.45 -106.55 -324.45 -106.25 -321.15 -105.0 -321.1 -104.25 -325.85 -104.0 -325.85 -104.1 -331.8 -104.1 -331.9 Q-104.6 -330.4 -105.5 -329.8 -105.8 -331.1 -105.75 -337.2 -105.7 -341.95 -107.6 -344.5 L-107.6 -351.55 -106.6 -351.65 Q-105.8 -351.55 -105.5 -350.95 -104.25 -353.05 -104.2 -358.2 -104.2 -359.25 -103.85 -359.9 L-103.95 -360.15 -104.1 -362.65 -103.95 -364.55 -103.25 -366.3 -102.5 -366.3 Q-102.25 -364.6 -102.25 -361.3 L-101.85 -361.35 Q-101.3 -362.15 -100.7 -363.45 L-100.6 -364.2 Q-100.55 -367.9 -100.15 -370.5 L-99.8 -370.5 -99.5 -368.5 -99.05 -368.5 -98.9 -367.95 Q-98.75 -372.95 -96.7 -374.45 -96.4 -372.65 -96.35 -369.4 L-96.1 -369.3 -95.35 -371.2 -94.45 -379.2 -93.95 -379.2 Q-93.3 -375.95 -93.25 -372.6 L-92.95 -372.5 -92.8 -376.7 Q-92.5 -379.45 -91.2 -380.8 -90.6 -379.05 -90.6 -375.6 L-90.5 -375.25 -89.1 -376.8 Q-88.5 -377.7 -88.5 -378.1 L-87.5 -378.15 Q-87.05 -381.15 -86.45 -382.1 L-86.15 -380.95 -86.15 -381.1 -85.65 -384.1 Q-85.15 -386.4 -85.15 -387.3 L-84.65 -387.3 -84.45 -386.25 -84.35 -384.7 -84.35 -383.45 -83.9 -383.7 Q-83.75 -385.7 -82.8 -390.25 L-82.4 -390.25 Q-81.7 -387.4 -81.7 -386.35 L-81.75 -385.4 -81.25 -384.4 Q-80.7 -386.45 -80.65 -387.45 L-80.1 -387.45 -80.05 -389.35 Q-80.0 -392.05 -80.25 -395.35 L-79.6 -395.45 -78.4 -395.35 -78.4 -389.75 -77.4 -390.4 Q-77.3 -392.3 -76.7 -393.6 -76.15 -392.85 -76.1 -391.25 L-75.5 -391.65 -74.55 -394.25 -74.25 -401.95 -73.65 -401.95 Q-73.35 -400.1 -73.2 -397.65 L-73.0 -398.35 -72.25 -402.1 -71.5 -405.35 M-96.0 -366.8 L-96.3 -366.85 -96.3 -366.2 -96.1 -366.05 -96.0 -366.8 M-100.65 -328.8 L-100.9 -329.3 -100.9 -327.3 -100.85 -327.95 -100.65 -328.8 M-102.55 -332.95 L-102.85 -322.2 -102.25 -322.95 -102.0 -331.7 -102.55 -332.95" fill="#2898f2" fill-rule="evenodd" stroke="none"/>
    <path d="M49.95 -677.35 Q53.3 -677.95 55.1 -676.05 L55.1 -676.0 Q55.75 -675.25 56.2 -674.15 L55.95 -673.5 55.5 -673.25 56.15 -668.9 Q56.75 -664.5 56.75 -662.85 L55.65 -651.5 Q54.55 -641.55 54.55 -640.2 54.55 -631.6 56.2 -613.35 57.85 -595.15 57.85 -586.55 L56.75 -571.05 55.65 -555.6 Q55.65 -546.9 57.85 -521.8 60.05 -496.65 60.05 -491.0 60.05 -481.55 58.45 -462.8 56.9 -445.15 55.65 -437.8 L55.65 -389.25 Q56.4 -388.15 56.6 -386.55 L56.75 -383.05 56.75 -382.75 57.85 -376.85 57.85 -331.5 Q58.4 -322.0 58.4 -303.1 58.4 -284.1 58.95 -274.55 L58.95 -223.55 Q59.55 -218.5 60.8 -201.25 61.55 -191.1 62.6 -183.8 64.7 -180.15 72.0 -178.1 78.2 -176.35 95.0 -173.25 101.2 -171.7 110.95 -167.4 121.65 -162.75 123.75 -160.05 130.15 -152.0 134.15 -142.4 138.3 -132.45 138.3 -124.3 138.3 -114.65 134.85 -106.85 L134.85 -106.55 Q134.85 -104.75 132.8 -102.9 L130.15 -99.1 Q119.45 -85.5 96.1 -82.05 117.75 -89.9 127.2 -99.45 120.45 -96.25 107.75 -92.9 99.05 -90.6 66.45 -83.85 L59.35 -83.85 51.9 -82.65 Q33.45 -79.85 21.1 -79.85 L-15.6 -80.95 Q8.35 -81.3 23.35 -81.95 L23.65 -82.2 Q32.5 -82.85 48.35 -85.2 L52.5 -85.8 52.9 -85.95 Q57.8 -87.35 67.75 -88.4 72.65 -88.9 87.4 -92.25 L91.7 -93.45 106.4 -97.35 107.3 -97.65 Q113.9 -100.5 117.55 -102.95 121.8 -105.75 124.25 -108.95 126.6 -112.0 126.6 -114.5 126.6 -117.45 124.85 -119.55 122.4 -122.35 116.45 -124.0 L111.65 -124.25 111.65 -123.85 111.55 -123.8 110.45 -123.75 107.35 -124.2 102.0 -125.1 86.9 -125.1 52.8 -118.7 17.05 -112.75 11.55 -112.3 12.85 -111.9 12.65 -111.75 0.55 -110.65 -4.25 -110.0 -9.4 -109.0 -20.9 -108.25 -24.95 -108.6 -28.3 -108.0 -78.15 -108.25 -85.65 -108.7 -89.4 -109.2 -89.45 -109.2 -99.9 -109.45 -99.95 -109.45 -100.05 -109.45 -100.95 -109.45 -106.1 -109.75 -110.4 -110.25 -111.95 -110.45 -113.7 -110.8 -118.1 -111.35 -122.95 -111.9 -127.6 -112.45 -133.95 -113.0 -143.55 -113.55 Q-153.0 -114.35 -165.9 -117.45 L-172.7 -119.1 -171.8 -118.35 -171.8 -117.95 -180.55 -121.1 -181.0 -121.25 -181.05 -121.3 -182.95 -122.05 Q-190.55 -124.95 -197.75 -126.2 L-211.5 -126.2 -215.2 -125.2 -215.25 -125.2 Q-221.0 -121.6 -222.45 -119.75 L-224.05 -117.0 Q-225.35 -114.5 -225.35 -113.55 -225.35 -111.3 -224.0 -109.05 -222.25 -106.15 -218.75 -104.5 L-218.8 -104.25 -219.15 -103.8 -224.25 -104.85 Q-228.75 -105.95 -229.2 -106.4 -236.25 -105.9 -237.1 -104.7 -237.4 -104.25 -237.2 -103.45 L-236.9 -102.05 -236.9 -102.0 -231.0 -89.5 -231.35 -88.3 Q-231.65 -87.75 -232.35 -87.55 -237.95 -97.0 -239.3 -100.1 -241.7 -105.7 -241.7 -112.05 -241.7 -126.45 -240.15 -132.2 -236.7 -144.75 -224.65 -152.05 -216.95 -157.55 -212.35 -160.4 -204.05 -165.55 -195.5 -166.9 -173.55 -170.5 -166.6 -176.6 -164.8 -178.15 -163.8 -180.15 L-163.6 -181.35 Q-162.5 -187.25 -162.5 -190.0 -162.0 -192.3 -161.4 -197.85 L-160.15 -205.7 Q-160.15 -211.55 -160.7 -224.05 L-161.25 -237.05 -160.15 -263.65 -159.05 -290.25 -160.15 -312.85 -161.2 -334.85 -161.25 -334.8 -161.95 -334.8 -162.5 -337.25 -162.5 -408.9 Q-161.25 -428.7 -161.25 -469.15 -161.25 -476.2 -162.3 -503.35 L-163.35 -531.4 Q-163.35 -535.3 -161.75 -555.4 L-160.15 -575.4 Q-160.15 -582.45 -160.7 -596.85 -161.25 -611.3 -161.25 -618.3 L-161.25 -671.8 -160.15 -671.8 -159.6 -671.1 -159.6 -670.9 -152.6 -671.2 -151.8 -670.7 -151.35 -670.7 Q-150.8 -666.7 -150.8 -658.9 -150.8 -649.4 -151.9 -645.25 L-151.9 -602.35 Q-152.65 -594.05 -153.4 -580.25 L-154.1 -565.4 Q-154.55 -558.8 -154.35 -556.75 -154.15 -554.65 -150.8 -543.95 -150.4 -542.4 -147.3 -538.35 L-143.1 -533.2 Q-139.2 -528.2 -131.9 -527.5 -123.3 -527.45 -118.9 -526.35 L-114.7 -525.35 -109.8 -525.75 Q-104.75 -526.4 -103.0 -528.0 L-98.55 -531.4 -97.75 -531.95 -97.1 -532.85 Q-93.1 -538.3 -86.55 -543.65 -78.65 -550.1 -71.75 -552.15 -66.95 -554.45 -62.95 -555.65 -55.6 -557.8 -42.75 -557.0 -39.95 -555.9 -34.6 -554.95 -29.85 -554.15 -27.55 -552.95 L-24.6 -550.9 -21.65 -548.85 Q-9.45 -542.35 -2.85 -528.1 -0.65 -523.4 1.75 -515.9 L5.5 -504.5 7.05 -500.0 7.05 -499.95 Q8.05 -497.55 10.85 -497.55 L12.5 -497.7 Q18.1 -502.4 23.7 -508.7 27.9 -513.45 32.05 -519.15 L35.45 -524.25 Q39.55 -530.6 41.7 -535.3 L43.75 -540.6 Q44.55 -543.55 45.1 -547.8 L45.9 -556.2 Q46.1 -558.95 45.9 -564.8 46.1 -567.65 47.4 -569.5 L48.5 -600.45 48.4 -625.75 Q47.95 -643.6 46.05 -649.1 L46.05 -672.85 45.65 -673.1 Q45.35 -676.5 49.95 -677.35 M46.4 -457.7 Q45.5 -459.1 44.25 -461.95 42.1 -465.55 38.35 -465.55 33.65 -465.55 27.65 -459.25 L23.45 -454.2 22.65 -452.7 Q18.65 -444.8 16.95 -440.05 L17.05 -438.6 Q17.5 -433.3 16.85 -423.6 L16.45 -415.95 Q17.3 -407.65 17.3 -403.7 L16.8 -397.55 16.8 -397.45 17.35 -390.2 18.35 -377.6 17.05 -242.5 17.75 -240.4 17.9 -240.0 Q18.8 -239.25 20.3 -239.1 25.35 -241.25 28.9 -248.9 30.75 -252.9 31.6 -254.1 L33.0 -255.75 Q37.55 -266.15 41.1 -278.3 43.35 -286.0 46.3 -298.45 L46.3 -311.15 46.05 -311.65 45.2 -312.8 45.2 -355.7 Q47.5 -367.85 46.1 -388.25 44.1 -417.65 44.1 -421.15 44.1 -432.7 46.3 -456.6 L46.4 -457.7 M2.35 -481.25 L2.35 -481.4 Q1.5 -485.35 -0.6 -499.75 L-1.75 -508.0 Q-8.75 -532.1 -20.9 -543.0 -31.35 -552.4 -46.05 -552.4 -74.8 -552.4 -94.15 -527.1 -98.85 -520.95 -103.25 -512.55 -111.7 -490.25 -114.3 -460.8 -115.25 -450.45 -116.05 -431.05 -116.85 -410.7 -117.6 -401.35 -118.6 -389.25 -118.7 -371.95 L-118.75 -341.9 -118.75 -340.6 Q-116.9 -328.7 -116.4 -313.65 -116.15 -306.75 -116.15 -281.5 L-116.4 -252.25 -116.65 -252.05 -116.65 -248.05 Q-116.65 -242.0 -117.7 -239.65 L-117.7 -192.25 -118.6 -187.55 -118.35 -177.15 Q-118.2 -172.95 -116.7 -163.45 L-115.5 -155.9 -114.8 -154.9 Q-107.5 -149.25 -95.25 -148.55 L-93.85 -148.1 Q-93.65 -147.95 -93.55 -147.4 L-17.1 -147.05 Q-10.6 -150.0 -5.1 -149.8 L-2.5 -150.9 1.45 -152.4 Q4.25 -156.3 5.25 -159.6 L5.85 -162.6 Q6.05 -165.15 5.5 -169.2 4.7 -175.3 4.7 -178.5 4.7 -184.85 5.9 -196.55 L5.95 -197.6 5.75 -200.0 Q5.75 -209.1 7.35 -219.2 L8.7 -235.0 10.35 -254.05 10.35 -306.85 Q11.6 -310.7 11.15 -316.4 L11.15 -390.3 Q11.3 -393.9 12.0 -401.5 L12.35 -405.25 11.75 -413.9 Q10.75 -426.85 10.3 -436.3 9.1 -446.95 9.05 -451.1 6.3 -453.35 5.5 -457.1 4.9 -459.95 4.45 -465.65 3.7 -469.1 3.0 -474.25 2.35 -479.2 2.35 -481.25 M44.7 -197.5 Q43.5 -199.45 40.55 -199.85 29.05 -193.4 24.6 -184.1 22.6 -179.9 21.25 -173.5 L21.1 -172.65 Q22.75 -169.3 22.95 -167.05 L26.05 -167.7 30.2 -172.1 Q33.25 -175.65 38.6 -183.15 44.9 -191.95 45.0 -195.3 L44.7 -197.5 M7.25 -126.6 L6.25 -126.4 -12.65 -125.25 Q-23.55 -125.25 -24.25 -125.5 L-46.1 -125.8 -70.8 -127.0 -77.85 -127.4 -80.6 -127.45 -80.7 -127.55 -90.6 -128.15 -91.15 -128.25 -92.4 -128.4 -104.05 -129.35 -109.7 -129.5 -112.6 -130.0 -115.5 -130.45 -117.85 -130.65 -120.45 -131.0 -124.0 -131.3 -124.3 -131.7 -127.2 -131.9 -130.35 -132.25 Q-143.55 -133.8 -150.15 -136.35 -152.5 -137.3 -158.6 -141.1 L-164.65 -141.65 -175.75 -141.35 -180.65 -140.9 -182.35 -140.6 -183.5 -139.15 -184.0 -138.35 -183.9 -138.25 -183.25 -138.6 -183.4 -138.3 -183.6 -137.65 -183.2 -136.95 -181.65 -134.75 Q-176.7 -131.15 -158.75 -126.4 L-158.45 -126.3 -158.45 -126.5 -157.4 -126.05 -150.15 -124.2 -147.15 -123.65 -146.5 -123.35 -138.15 -121.6 -136.4 -121.4 -132.7 -121.25 -129.55 -120.55 Q-122.85 -119.2 -105.9 -118.6 L-89.4 -117.9 -85.95 -117.9 -85.4 -117.75 Q-77.3 -118.0 -66.85 -117.8 L-52.0 -117.9 Q-37.1 -118.05 -36.75 -118.25 L-18.7 -118.5 -5.0 -120.1 -4.95 -120.15 -4.3 -120.15 -3.5 -120.3 4.95 -121.65 7.3 -121.65 43.75 -127.5 Q69.15 -131.55 73.45 -135.7 L73.55 -136.5 72.0 -137.05 69.95 -137.5 69.75 -137.9 Q55.85 -137.0 51.2 -135.35 47.3 -133.35 42.65 -132.1 39.3 -131.25 23.4 -128.85 L7.7 -126.6 7.25 -126.6 M-121.05 -476.45 Q-121.3 -481.6 -122.65 -485.5 -125.95 -487.85 -128.55 -487.85 -145.0 -487.85 -150.7 -480.9 L-152.05 -478.8 -152.05 -478.05 Q-152.05 -476.25 -152.55 -476.15 L-152.6 -476.15 -152.4 -461.75 -151.9 -447.55 Q-151.9 -425.7 -153.0 -414.95 L-153.0 -371.35 -153.75 -370.45 Q-154.1 -369.8 -154.1 -368.05 -154.1 -363.1 -151.8 -344.75 L-149.3 -325.15 Q-149.05 -321.95 -149.3 -314.6 -149.6 -307.75 -149.15 -304.0 -148.0 -294.05 -140.75 -286.95 L-137.6 -284.45 Q-134.4 -285.7 -131.25 -285.95 -129.5 -288.6 -128.3 -290.9 -126.2 -292.5 -124.95 -296.3 L-124.4 -298.3 -123.9 -319.35 -123.9 -349.35 Q-124.1 -354.75 -123.65 -364.65 L-123.1 -375.2 Q-123.1 -377.85 -125.05 -426.55 -125.05 -430.45 -123.15 -445.25 L-121.25 -459.9 -121.85 -465.2 -120.8 -471.55 -121.05 -476.45 M-126.8 -224.55 Q-130.5 -227.1 -134.05 -228.5 L-141.2 -228.25 Q-145.9 -225.4 -148.15 -221.5 -149.1 -219.8 -150.85 -214.5 L-150.25 -205.05 Q-149.4 -193.25 -147.6 -185.7 -143.9 -169.95 -134.35 -165.0 -128.6 -166.1 -126.25 -170.05 L-126.35 -175.85 -125.7 -184.45 -124.25 -195.95 -124.25 -217.8 -124.4 -218.5 -126.15 -222.85 -126.8 -224.55 M-189.7 -94.7 Q-194.45 -96.25 -196.35 -97.75 L-196.1 -98.0 -192.75 -96.85 -183.5 -95.4 -166.0 -91.6 -143.9 -88.5 -121.8 -85.25 -121.95 -85.15 -120.2 -84.7 -116.7 -84.65 -111.05 -84.0 -111.5 -84.05 -120.95 -83.75 -121.3 -83.9 -124.55 -84.2 -129.85 -83.65 Q-137.6 -83.65 -171.35 -89.75 -179.95 -91.45 -184.85 -92.95 L-189.7 -94.7 M-107.1 -83.85 L-108.1 -83.9 -106.55 -83.9 -107.1 -83.85 M-69.9 -111.6 Q-70.4 -111.25 -70.4 -110.4 L-70.25 -109.55 -69.5 -109.1 -69.05 -108.95 -57.8 -108.95 Q-57.1 -109.1 -56.1 -109.85 L-54.7 -111.2 -55.0 -111.95 -56.15 -112.4 -69.05 -111.95 -69.9 -111.6 M-55.15 -81.1 L-54.9 -81.1 Q-53.65 -80.8 -53.55 -80.55 L-56.4 -80.25 -56.65 -80.25 -58.05 -80.1 -59.1 -80.15 -60.15 -80.15 -66.75 -80.55 -66.75 -80.9 -64.4 -81.1 Q-64.9 -81.25 -65.0 -81.35 L-64.5 -81.6 -64.2 -81.8 -55.0 -81.4 -55.15 -81.1" fill="#a0f7fe" fill-rule="evenodd" stroke="none"/>
  </g>
</svg>
