<?xml version="1.0" encoding="UTF-8" standalone="no"?>
<svg xmlns:ffdec="https://www.free-decompiler.com/flash" xmlns:xlink="http://www.w3.org/1999/xlink" ffdec:objectType="shape" height="32.45px" width="153.35px" xmlns="http://www.w3.org/2000/svg">
  <g transform="matrix(1.0, 0.0, 0.0, 1.0, -160.9, 506.3)">
    <path d="M161.75 -499.35 L163.25 -503.0 164.0 -503.75 166.55 -506.3 167.2 -505.65 Q169.65 -503.35 172.65 -503.35 L173.95 -503.5 174.0 -503.45 174.0 -503.25 176.7 -503.75 177.15 -503.7 177.9 -503.6 177.9 -503.0 Q177.8 -500.95 176.95 -498.75 176.6 -497.85 176.65 -496.15 L177.0 -496.0 177.0 -495.9 177.0 -495.5 Q181.95 -493.35 187.9 -491.95 195.15 -490.25 206.0 -489.05 L212.3 -488.9 215.45 -488.45 219.15 -487.9 220.95 -487.75 221.5 -487.75 223.75 -487.7 224.75 -487.55 234.55 -487.35 248.95 -488.1 262.7 -489.0 264.5 -489.25 268.55 -489.35 268.55 -489.5 273.45 -489.45 275.5 -489.5 288.9 -489.5 290.7 -489.3 297.8 -489.15 300.0 -488.9 308.3 -487.5 313.4 -485.8 313.9 -485.25 314.15 -485.1 314.25 -484.3 Q314.25 -483.65 313.7 -483.2 L312.55 -482.25 312.25 -481.8 310.55 -482.6 309.95 -479.25 Q309.25 -474.8 305.3 -474.15 L305.85 -474.0 305.05 -473.95 304.3 -473.85 276.05 -479.65 252.75 -482.0 252.6 -482.0 251.15 -481.85 215.95 -482.6 215.8 -482.6 215.4 -482.6 214.25 -482.65 211.9 -482.85 Q191.35 -484.2 180.95 -485.85 173.4 -487.0 169.0 -488.8 L168.05 -488.65 167.15 -488.45 167.1 -488.5 164.1 -488.9 164.1 -489.0 Q162.95 -489.3 162.2 -489.9 L162.05 -490.05 Q161.2 -490.6 160.95 -491.5 L160.9 -491.8 160.9 -491.85 161.1 -492.35 Q161.1 -492.65 161.4 -493.15 161.25 -493.45 161.25 -494.45 161.25 -497.25 161.95 -499.65 L161.85 -499.55 161.75 -499.35 M165.3 -498.6 L167.45 -500.35 Q169.25 -501.55 171.2 -502.35 L171.0 -502.35 Q169.55 -502.35 167.8 -503.4 L167.5 -503.6 Q166.75 -503.8 166.3 -504.25 L165.0 -503.45 165.05 -503.3 Q163.95 -502.45 163.3 -499.65 L163.15 -499.1 162.4 -494.6 163.0 -495.15 163.05 -495.25 163.05 -495.3 163.35 -496.05 163.55 -496.35 164.2 -497.4 164.7 -498.0 165.3 -498.6 M175.4 -496.05 L175.15 -496.7 Q176.3 -498.85 176.75 -500.75 L177.0 -502.9 Q171.8 -502.2 168.1 -499.15 164.7 -496.35 164.2 -493.2 L164.15 -492.8 164.1 -492.5 164.0 -492.45 163.75 -491.5 163.85 -491.05 166.3 -492.95 Q172.15 -497.35 173.9 -498.0 174.6 -497.7 174.75 -497.4 172.6 -496.4 167.35 -492.2 L165.05 -490.3 165.6 -490.3 167.0 -490.6 172.65 -491.75 173.3 -491.7 174.45 -492.25 175.1 -493.1 175.25 -492.95 Q175.8 -493.55 175.8 -494.25 L175.4 -496.05 M235.0 -484.8 L244.7 -485.95 247.95 -486.4 242.35 -486.25 241.5 -486.15 240.95 -486.2 240.35 -486.25 231.05 -486.45 224.55 -486.85 223.15 -486.9 219.25 -487.15 215.25 -487.3 212.0 -487.8 205.6 -488.0 202.35 -488.65 199.25 -488.85 Q197.85 -489.0 197.5 -489.3 L194.85 -489.55 183.05 -492.5 178.5 -493.95 176.75 -494.95 177.0 -492.85 176.5 -492.25 174.5 -491.05 174.3 -491.05 174.1 -491.2 174.0 -491.0 173.55 -490.75 173.45 -490.7 Q172.75 -490.25 171.7 -489.75 L172.0 -489.0 172.8 -488.8 180.5 -486.9 195.5 -485.0 208.35 -484.15 216.3 -483.45 225.9 -483.25 238.1 -483.0 243.8 -482.9 243.85 -483.0 252.4 -483.0 282.15 -479.95 Q295.05 -478.3 302.35 -476.5 L302.35 -476.3 303.2 -475.8 304.3 -475.0 Q307.1 -474.5 308.5 -476.75 309.5 -478.35 309.5 -480.5 309.5 -481.7 310.1 -482.8 L310.05 -482.85 310.65 -483.65 311.1 -484.2 312.25 -485.1 Q309.75 -486.35 308.8 -486.5 L299.5 -488.25 298.5 -488.3 297.4 -488.5 296.45 -488.5 297.85 -488.25 292.9 -488.65 291.05 -488.65 287.7 -488.65 282.0 -488.75 278.9 -488.4 272.1 -488.5 271.05 -488.3 264.3 -487.6 257.9 -487.15 Q245.15 -484.5 237.35 -484.5 L235.0 -484.8 M168.65 -488.9 L168.45 -488.9 168.8 -488.85 168.65 -488.9 M313.1 -484.5 Q311.55 -484.5 310.85 -483.35 L311.9 -482.75 312.45 -483.35 313.35 -484.3 Q313.75 -484.5 313.1 -484.5 M292.8 -477.2 L302.35 -474.85 302.2 -475.0 300.8 -476.05 296.0 -476.7 291.3 -477.65 289.35 -477.95 292.8 -477.2" fill="#480000" fill-rule="evenodd" stroke="none"/>
    <path d="M163.3 -499.65 Q163.95 -502.45 165.05 -503.3 L165.0 -503.45 166.3 -504.25 Q166.75 -503.8 167.5 -503.6 L167.8 -503.4 Q169.55 -502.35 171.0 -502.35 L171.2 -502.35 Q169.25 -501.55 167.45 -500.35 L165.3 -498.6 165.3 -499.25 165.1 -500.3 164.85 -500.55 163.3 -499.65 M176.75 -500.75 Q171.35 -498.3 165.4 -494.85 L164.5 -494.3 164.2 -493.2 Q164.7 -496.35 168.1 -499.15 171.8 -502.2 177.0 -502.9 L176.75 -500.75 M167.0 -490.6 L167.35 -490.8 175.4 -496.05 175.8 -494.25 Q175.8 -493.55 175.25 -492.95 L175.1 -493.1 174.45 -492.25 173.3 -491.7 172.65 -491.75 167.0 -490.6 M235.0 -484.8 L237.35 -484.5 Q245.15 -484.5 257.9 -487.15 L264.3 -487.6 271.05 -488.3 272.1 -488.5 278.9 -488.4 282.0 -488.75 287.7 -488.65 291.05 -488.65 292.9 -488.65 297.85 -488.25 296.45 -488.5 297.4 -488.5 298.5 -488.3 299.5 -488.25 308.8 -486.5 Q309.75 -486.35 312.25 -485.1 L311.1 -484.2 310.65 -483.65 310.05 -482.85 310.1 -482.8 Q309.5 -481.7 309.5 -480.5 309.5 -478.35 308.5 -476.75 307.1 -474.5 304.3 -475.0 L303.2 -475.8 302.35 -476.3 302.35 -476.5 Q295.05 -478.3 282.15 -479.95 L252.4 -483.0 243.85 -483.0 243.8 -482.9 238.1 -483.0 225.9 -483.25 216.3 -483.45 208.35 -484.15 195.5 -485.0 180.5 -486.9 172.8 -488.8 172.0 -489.0 171.7 -489.75 Q172.75 -490.25 173.45 -490.7 L173.55 -490.75 174.0 -491.0 174.1 -491.2 174.3 -491.05 174.5 -491.05 176.5 -492.25 177.0 -492.85 176.75 -494.95 178.5 -493.95 183.05 -492.5 194.85 -489.55 197.5 -489.3 Q197.85 -489.0 199.25 -488.85 L202.35 -488.65 205.6 -488.0 212.0 -487.8 215.25 -487.3 219.25 -487.15 223.15 -486.9 224.55 -486.85 231.05 -486.45 240.35 -486.25 240.95 -486.2 241.5 -486.15 242.35 -486.25 247.95 -486.4 244.7 -485.95 235.0 -484.8" fill="#990000" fill-rule="evenodd" stroke="none"/>
    <path d="M163.3 -499.65 L164.85 -500.55 165.1 -500.3 165.3 -499.25 165.3 -498.6 164.7 -498.0 164.2 -497.4 163.55 -496.35 163.35 -496.05 163.05 -495.3 163.05 -495.25 163.0 -495.15 162.4 -494.6 163.15 -499.1 163.3 -499.65 M176.75 -500.75 Q176.3 -498.85 175.15 -496.7 L175.4 -496.05 167.35 -490.8 167.0 -490.6 165.6 -490.3 165.05 -490.3 167.35 -492.2 Q172.6 -496.4 174.75 -497.4 174.6 -497.7 173.9 -498.0 172.15 -497.35 166.3 -492.95 L163.85 -491.05 163.75 -491.5 164.0 -492.45 164.1 -492.5 164.15 -492.8 164.2 -493.2 164.5 -494.3 165.4 -494.85 Q171.35 -498.3 176.75 -500.75 M292.8 -477.2 L289.35 -477.95 291.3 -477.65 296.0 -476.7 300.8 -476.05 302.2 -475.0 302.35 -474.85 292.8 -477.2 M313.1 -484.5 Q313.75 -484.5 313.35 -484.3 L312.45 -483.35 311.9 -482.75 310.85 -483.35 Q311.55 -484.5 313.1 -484.5" fill="#720e3e" fill-rule="evenodd" stroke="none"/>
  </g>
</svg>
