<?xml version="1.0" encoding="UTF-8" standalone="no"?>
<svg xmlns:ffdec="https://www.free-decompiler.com/flash" xmlns:xlink="http://www.w3.org/1999/xlink" ffdec:objectType="shape" height="33.75px" width="152.4px" xmlns="http://www.w3.org/2000/svg">
  <g transform="matrix(1.0, 0.0, 0.0, 1.0, -193.35, 361.0)">
    <path d="M245.4 -351.6 L237.4 -352.25 232.8 -352.35 229.4 -352.65 228.25 -352.75 212.65 -352.8 208.6 -351.75 208.6 -351.65 Q209.0 -350.75 209.0 -348.8 209.0 -347.75 208.0 -347.0 L207.75 -346.85 213.05 -346.4 222.55 -345.3 240.5 -343.5 251.6 -341.6 261.6 -339.8 262.1 -339.35 268.0 -338.05 278.85 -336.65 278.55 -336.75 276.5 -337.4 274.15 -338.1 274.3 -338.3 Q277.15 -337.55 279.3 -337.15 L284.7 -336.25 297.25 -335.65 304.5 -335.55 306.65 -335.25 308.9 -335.65 302.45 -336.75 Q296.55 -337.9 292.5 -339.1 L286.6 -341.2 282.0 -342.9 270.6 -346.85 Q263.6 -349.15 253.35 -350.55 L252.75 -350.65 253.3 -350.7 253.15 -350.75 250.65 -351.15 249.6 -351.2 248.5 -351.4 245.4 -351.6 M257.35 -350.85 Q270.3 -348.65 279.5 -345.05 L279.55 -345.05 280.15 -344.8 280.5 -344.65 281.0 -344.45 282.9 -343.75 287.85 -341.8 Q291.0 -340.65 295.25 -339.6 L305.25 -337.5 307.35 -337.1 310.5 -336.8 313.0 -336.6 313.65 -336.55 325.75 -338.9 334.7 -341.05 344.85 -342.3 344.6 -341.55 Q341.85 -340.75 340.85 -339.55 340.35 -338.95 340.15 -337.8 L342.4 -338.6 342.75 -338.7 343.0 -339.0 343.15 -338.85 345.4 -339.4 Q345.6 -339.3 345.75 -339.25 L345.5 -339.1 343.25 -336.5 342.45 -334.55 342.4 -332.9 342.05 -332.05 341.55 -331.35 341.7 -331.2 Q339.1 -329.9 337.25 -329.3 330.9 -327.25 322.25 -327.25 L321.25 -327.3 314.55 -327.4 314.35 -327.6 Q303.4 -329.35 294.1 -331.8 L287.25 -333.85 Q283.0 -335.0 276.75 -335.75 L276.05 -336.0 276.1 -336.0 269.6 -336.9 Q265.25 -337.6 258.75 -339.4 L239.15 -342.5 222.0 -344.4 207.25 -345.65 206.85 -345.2 206.35 -343.65 206.35 -343.25 206.35 -343.2 206.75 -343.0 206.25 -342.75 206.15 -342.75 206.0 -342.6 Q205.6 -342.25 205.05 -342.25 202.45 -342.25 200.6 -343.9 199.65 -344.75 198.6 -346.15 L193.9 -349.85 193.95 -349.9 193.7 -350.0 Q193.35 -350.4 193.35 -350.7 L193.85 -352.35 193.85 -352.65 Q193.85 -353.1 195.9 -357.65 196.3 -359.2 197.1 -360.3 197.95 -361.35 198.75 -360.85 L199.35 -361.0 199.35 -360.75 199.4 -360.45 199.4 -360.25 Q200.1 -360.15 200.7 -359.1 L202.3 -356.5 206.15 -354.85 206.55 -354.65 206.7 -354.65 206.8 -354.5 207.85 -353.75 208.55 -353.85 208.65 -353.9 208.8 -353.9 213.8 -354.35 213.8 -354.5 225.5 -354.4 226.0 -354.3 227.05 -354.3 227.9 -354.4 230.2 -354.0 235.0 -354.0 242.15 -353.05 245.7 -352.4 257.35 -350.85 M315.1 -335.3 L314.35 -335.25 312.75 -335.3 305.3 -334.25 303.5 -334.25 303.25 -334.35 297.35 -334.35 286.5 -335.05 300.05 -331.35 302.45 -330.7 Q308.25 -329.2 313.1 -328.6 L319.55 -328.15 328.15 -328.95 Q334.0 -329.75 335.65 -330.3 L340.25 -331.75 339.35 -334.3 339.25 -335.9 339.25 -336.05 339.25 -336.3 339.2 -337.55 339.35 -337.55 Q339.65 -339.95 341.1 -341.05 L341.75 -341.4 341.5 -341.4 332.3 -339.65 324.85 -337.8 317.75 -336.25 318.4 -336.2 319.25 -336.15 318.5 -336.0 315.1 -335.3 M204.45 -353.8 L202.45 -355.0 204.65 -349.5 205.1 -348.35 205.6 -346.9 205.75 -346.45 206.1 -346.9 206.8 -347.85 206.75 -349.1 206.85 -349.05 207.3 -348.7 207.65 -349.45 207.75 -349.8 207.4 -351.3 206.3 -352.9 204.45 -353.8 M204.9 -346.0 L204.7 -346.95 204.4 -347.95 203.9 -349.4 202.65 -352.3 Q200.45 -357.05 198.25 -359.7 L198.1 -359.55 197.15 -357.7 196.5 -356.25 195.8 -354.5 195.2 -352.75 195.2 -352.55 Q195.2 -351.9 195.85 -350.85 L196.55 -349.55 199.15 -347.65 199.55 -347.15 200.4 -346.15 200.6 -345.95 202.75 -344.1 202.85 -344.0 Q203.3 -343.8 203.75 -343.75 L204.1 -343.8 Q203.55 -344.45 203.05 -345.45 L202.85 -345.85 202.2 -347.0 202.15 -347.05 201.5 -348.1 201.6 -348.25 202.7 -347.25 202.9 -347.0 203.7 -346.0 203.85 -345.8 204.8 -344.35 204.85 -344.65 205.05 -345.05 204.95 -345.75 204.9 -346.0 M343.2 -337.9 L343.4 -338.1 343.25 -338.0 343.2 -337.9 M340.05 -336.35 L340.25 -334.75 340.4 -334.45 340.6 -333.3 341.0 -332.25 341.45 -335.4 Q341.55 -336.6 342.0 -337.55 L340.3 -337.25 340.25 -336.55 340.25 -336.45 340.05 -336.35" fill="#480000" fill-rule="evenodd" stroke="none"/>
    <path d="M245.4 -351.6 L248.5 -351.4 249.6 -351.2 250.65 -351.15 253.15 -350.75 253.3 -350.7 252.75 -350.65 253.35 -350.55 Q263.6 -349.15 270.6 -346.85 L282.0 -342.9 286.6 -341.2 292.5 -339.1 Q296.55 -337.9 302.45 -336.75 L308.9 -335.65 306.65 -335.25 304.5 -335.55 297.25 -335.65 284.7 -336.25 279.3 -337.15 Q277.15 -337.55 274.3 -338.3 L274.15 -338.1 276.5 -337.4 278.55 -336.75 278.85 -336.65 268.0 -338.05 262.1 -339.35 261.6 -339.8 251.6 -341.6 240.5 -343.5 222.55 -345.3 213.05 -346.4 207.75 -346.85 208.0 -347.0 Q209.0 -347.75 209.0 -348.8 209.0 -350.75 208.6 -351.65 L208.6 -351.75 212.65 -352.8 228.25 -352.75 229.4 -352.65 232.8 -352.35 237.4 -352.25 245.4 -351.6 M195.8 -354.5 L196.5 -356.25 197.15 -357.7 198.1 -359.55 198.25 -359.7 Q200.45 -357.05 202.65 -352.3 L203.9 -349.4 204.4 -347.95 204.7 -346.95 204.9 -346.0 204.05 -346.95 203.55 -347.55 203.25 -347.9 202.15 -349.0 Q198.65 -352.5 195.8 -354.5 M204.45 -353.8 L206.3 -352.9 207.4 -351.3 207.75 -349.8 207.65 -349.45 207.3 -348.7 206.85 -349.05 206.75 -349.1 206.8 -347.85 206.1 -346.9 205.75 -346.45 205.6 -346.9 205.1 -348.35 204.65 -349.5 202.45 -355.0 204.45 -353.8 M340.05 -336.35 L340.25 -336.45 340.25 -336.55 340.3 -337.25 342.0 -337.55 Q341.55 -336.6 341.45 -335.4 L341.0 -332.25 340.6 -333.3 340.4 -334.45 340.25 -334.75 340.05 -336.35" fill="#990000" fill-rule="evenodd" stroke="none"/>
    <path d="M315.1 -335.3 L318.5 -336.0 319.25 -336.15 318.4 -336.2 317.75 -336.25 324.85 -337.8 332.3 -339.65 341.5 -341.4 341.75 -341.4 341.1 -341.05 Q339.65 -339.95 339.35 -337.55 L339.2 -337.55 339.25 -336.3 339.25 -336.05 339.25 -335.9 339.35 -334.3 340.25 -331.75 335.65 -330.3 Q334.0 -329.75 328.15 -328.95 L319.55 -328.15 313.1 -328.6 Q308.25 -329.2 302.45 -330.7 L300.05 -331.35 286.5 -335.05 297.35 -334.35 303.25 -334.35 303.5 -334.25 305.3 -334.25 312.75 -335.3 314.35 -335.25 315.1 -335.3 M195.8 -354.5 Q198.65 -352.5 202.15 -349.0 L203.25 -347.9 203.55 -347.55 204.05 -346.95 204.9 -346.0 204.95 -345.75 205.05 -345.05 204.85 -344.65 204.8 -344.35 203.85 -345.8 203.7 -346.0 202.9 -347.0 202.7 -347.25 201.6 -348.25 201.5 -348.1 202.15 -347.05 202.2 -347.0 202.85 -345.85 203.05 -345.45 Q203.55 -344.45 204.1 -343.8 L203.75 -343.75 Q203.3 -343.8 202.85 -344.0 L202.75 -344.1 200.6 -345.95 200.4 -346.15 199.55 -347.15 199.15 -347.65 196.55 -349.55 195.85 -350.85 Q195.2 -351.9 195.2 -352.55 L195.2 -352.75 195.8 -354.5" fill="#720e3e" fill-rule="evenodd" stroke="none"/>
  </g>
</svg>
