<?xml version="1.0" encoding="UTF-8" standalone="no"?>
<svg xmlns:ffdec="https://www.free-decompiler.com/flash" xmlns:xlink="http://www.w3.org/1999/xlink" ffdec:objectType="shape" height="579.25px" width="889.6px" xmlns="http://www.w3.org/2000/svg">
  <g transform="matrix(1.0, 0.0, 0.0, 1.0, 388.6, 782.85)">
    <path d="M490.3 -781.9 L490.3 -781.8 491.05 -781.8 491.25 -781.5 491.45 -779.75 491.15 -779.75 Q496.1 -767.55 498.15 -759.5 501.0 -748.55 501.0 -736.75 501.0 -727.75 500.3 -723.75 L499.75 -721.15 Q499.6 -710.7 491.75 -687.1 484.9 -666.4 479.75 -656.6 473.25 -644.15 459.15 -624.7 442.75 -602.7 435.25 -592.1 L412.65 -559.7 Q399.0 -540.4 388.5 -527.6 381.2 -518.7 360.7 -495.9 342.95 -476.15 333.25 -463.6 299.25 -421.2 282.55 -399.4 253.25 -361.15 239.75 -334.75 L223.15 -302.9 Q213.3 -283.85 207.35 -270.3 194.4 -241.0 190.95 -218.0 L191.45 -215.6 192.45 -214.3 192.35 -213.8 190.95 -211.9 190.75 -212.3 Q190.05 -213.45 188.6 -214.25 L188.7 -214.75 Q182.8 -219.75 160.15 -226.8 L141.9 -232.15 142.4 -229.65 Q126.65 -234.0 117.25 -235.75 L112.75 -236.05 107.75 -236.75 103.0 -237.05 97.8 -237.75 83.65 -240.65 81.65 -241.05 80.05 -241.0 73.1 -241.7 Q68.05 -242.4 67.6 -242.75 L63.6 -243.05 59.15 -243.75 50.2 -244.55 Q46.25 -245.1 45.75 -245.5 L41.35 -245.8 36.5 -246.5 26.45 -247.3 22.45 -247.75 4.95 -248.05 -13.0 -248.75 -18.9 -249.05 -25.25 -249.75 -28.3 -249.95 -29.6 -250.0 -29.5 -249.75 -29.8 -249.45 Q-30.2 -249.15 -30.85 -249.0 L-32.2 -249.2 -34.0 -249.75 -54.5 -250.75 -83.4 -251.65 -109.0 -251.5 -126.0 -250.6 -143.0 -249.75 -165.75 -249.35 -165.35 -249.6 -186.9 -249.25 Q-238.0 -244.85 -275.45 -236.6 -295.1 -232.3 -322.3 -224.5 L-322.35 -223.75 Q-322.55 -223.6 -322.8 -223.5 L-324.35 -223.25 -324.6 -223.05 -324.85 -224.75 Q-324.85 -234.1 -322.0 -245.7 -320.65 -252.35 -317.05 -262.45 L-314.6 -270.5 Q-311.5 -280.55 -305.4 -293.4 L-301.45 -299.95 -299.35 -303.75 Q-295.5 -310.4 -289.45 -317.4 L-284.15 -323.9 -286.7 -321.45 -281.6 -328.2 Q-275.4 -333.8 -268.5 -339.0 L-255.75 -348.05 Q-245.6 -355.55 -236.0 -360.5 L-235.7 -360.45 Q-218.95 -369.95 -196.9 -379.25 L-184.8 -384.35 Q-176.2 -389.7 -160.05 -396.0 -155.5 -397.8 -145.75 -403.2 -135.25 -409.05 -129.65 -411.5 -119.2 -416.0 -102.3 -427.5 L-66.75 -459.35 Q-61.25 -464.35 -39.6 -482.35 -22.95 -496.25 -13.8 -505.6 L-3.6 -516.7 7.3 -528.85 Q15.6 -537.5 23.4 -552.1 39.35 -581.8 43.35 -599.5 47.9 -619.85 42.2 -644.35 38.5 -660.15 34.95 -669.35 30.7 -680.1 20.8 -697.6 17.5 -703.4 11.0 -711.4 L0.5 -724.6 -3.85 -730.65 Q-25.4 -749.05 -42.35 -772.5 L-47.65 -780.05 -48.8 -780.05 -46.25 -782.0 -46.05 -781.75 -45.5 -781.75 -45.75 -782.35 -45.2 -782.85 -44.5 -781.75 334.0 -781.85 333.95 -781.8 488.25 -781.8 488.2 -782.05 490.3 -781.9 M191.75 -205.0 L191.7 -207.75 192.65 -206.85 Q192.5 -205.2 191.75 -203.6 L191.75 -205.0 M92.65 -241.05 L91.0 -241.0 90.45 -241.0 99.45 -239.25 101.35 -239.1 94.55 -240.65 92.65 -241.05 M-45.0 -780.05 L-44.05 -778.6 -43.65 -778.05 -44.75 -780.05 -45.0 -780.05 M-326.95 -243.3 L-327.2 -242.0 -327.5 -243.25 -326.95 -243.3 M-388.6 -235.55 L-388.55 -235.6 -387.0 -235.05 -388.6 -235.55" fill="#9383eb" fill-opacity="0.45882353" fill-rule="evenodd" stroke="none"/>
  </g>
</svg>
