<?xml version="1.0" encoding="UTF-8" standalone="no"?>
<svg xmlns:ffdec="https://www.free-decompiler.com/flash" xmlns:xlink="http://www.w3.org/1999/xlink" ffdec:objectType="shape" height="28.45px" width="157.5px" xmlns="http://www.w3.org/2000/svg">
  <g transform="matrix(1.0, 0.0, 0.0, 1.0, -160.9, 506.3)">
    <path d="M161.75 -499.35 L163.25 -503.0 164.0 -503.75 166.55 -506.3 167.2 -505.65 Q169.65 -503.35 172.65 -503.35 L173.95 -503.5 174.0 -503.45 174.0 -503.25 176.7 -503.75 177.15 -503.7 177.9 -503.6 177.9 -503.0 Q177.8 -500.95 176.95 -498.75 L176.65 -496.8 Q178.35 -496.55 180.65 -495.55 L181.75 -495.35 182.8 -495.2 183.1 -495.15 183.15 -495.15 183.35 -495.1 190.0 -494.05 204.4 -492.4 204.4 -492.45 216.6 -490.95 217.2 -490.85 221.85 -490.15 238.35 -488.25 259.5 -485.9 267.55 -484.5 275.6 -483.3 279.5 -483.5 279.9 -483.75 284.85 -483.9 285.15 -484.0 288.85 -484.0 288.2 -484.1 291.85 -484.15 293.1 -484.45 294.4 -484.3 294.65 -484.1 301.75 -484.15 Q303.85 -484.35 305.25 -484.9 L306.9 -485.35 306.55 -485.0 306.75 -485.0 306.9 -484.75 305.6 -483.4 306.25 -483.3 309.7 -483.8 314.8 -484.25 317.4 -484.5 Q318.0 -484.15 318.0 -483.55 L318.05 -483.4 318.4 -482.4 318.1 -482.0 318.0 -482.05 318.0 -482.0 313.7 -482.0 313.25 -481.75 311.8 -481.05 311.5 -480.9 311.45 -480.95 311.3 -480.9 311.15 -480.85 310.6 -480.8 309.65 -480.7 307.65 -480.55 307.6 -480.55 304.3 -480.35 289.35 -478.5 288.65 -478.55 282.7 -478.2 282.4 -478.15 278.75 -477.85 278.2 -477.95 275.75 -477.85 271.45 -478.25 270.05 -478.6 265.45 -478.85 258.1 -479.25 251.4 -479.35 251.0 -479.6 245.45 -479.85 244.5 -479.65 Q242.35 -479.65 241.5 -480.15 L237.35 -480.4 232.75 -481.0 228.05 -481.15 Q218.0 -481.85 206.5 -483.95 L202.5 -484.1 202.0 -484.2 193.9 -485.5 177.55 -487.4 167.5 -488.55 167.15 -488.45 167.1 -488.5 164.1 -488.9 164.1 -489.0 Q162.95 -489.3 162.2 -489.9 L162.05 -490.05 Q161.2 -490.6 160.95 -491.5 L160.9 -491.8 160.9 -491.85 161.1 -492.35 Q161.1 -492.65 161.4 -493.15 161.25 -493.45 161.25 -494.45 161.25 -497.25 161.95 -499.65 L161.85 -499.55 161.75 -499.35 M165.3 -498.6 L167.45 -500.35 Q169.25 -501.55 171.2 -502.35 L171.0 -502.35 Q169.55 -502.35 167.8 -503.4 L167.5 -503.6 Q166.75 -503.8 166.3 -504.25 L165.0 -503.45 165.05 -503.3 Q163.95 -502.45 163.3 -499.65 L163.15 -499.1 162.4 -494.6 163.0 -495.15 163.05 -495.25 163.05 -495.3 163.35 -496.05 163.55 -496.35 164.2 -497.4 164.7 -498.0 165.3 -498.6 M177.05 -495.2 L176.7 -495.5 177.0 -492.85 176.5 -492.25 174.5 -491.05 174.3 -491.05 174.1 -491.2 174.0 -491.0 173.55 -490.75 173.45 -490.7 Q172.7 -490.2 171.6 -489.75 L170.55 -489.35 175.55 -488.6 179.85 -487.9 186.8 -487.1 190.1 -486.75 194.6 -486.35 202.7 -485.3 204.1 -485.1 215.75 -483.75 226.95 -482.45 227.8 -482.5 229.15 -482.35 231.75 -482.2 246.45 -482.0 255.75 -482.4 264.5 -482.55 265.15 -482.75 268.6 -482.9 269.25 -482.9 267.05 -483.5 258.1 -485.25 Q254.4 -486.2 241.55 -487.3 L227.15 -488.5 220.15 -489.3 213.75 -489.85 212.2 -490.1 210.6 -490.4 210.5 -490.4 209.5 -490.5 210.0 -490.5 207.3 -490.7 203.0 -491.2 199.75 -491.6 195.85 -492.05 192.75 -492.5 192.05 -492.55 189.15 -492.95 188.85 -493.0 186.7 -493.25 181.25 -494.05 178.65 -494.95 178.05 -495.2 177.0 -495.35 177.05 -495.2 M175.4 -496.05 L175.15 -496.7 Q176.3 -498.85 176.75 -500.75 L177.0 -502.9 Q171.8 -502.2 168.1 -499.15 164.7 -496.35 164.2 -493.2 L164.15 -492.8 164.1 -492.5 164.0 -492.45 163.75 -491.5 163.85 -491.05 166.3 -492.95 Q172.15 -497.35 173.9 -498.0 174.6 -497.7 174.75 -497.4 172.6 -496.4 167.35 -492.2 L165.05 -490.3 165.6 -490.3 167.0 -490.6 172.65 -491.75 173.3 -491.7 174.45 -492.25 175.1 -493.1 175.25 -492.95 Q175.8 -493.55 175.8 -494.25 L175.4 -496.05 M213.65 -491.0 L213.85 -490.95 214.35 -490.95 214.3 -491.0 213.65 -491.0 M317.3 -483.2 L316.8 -483.4 316.45 -483.35 315.55 -482.95 317.35 -482.9 317.3 -483.2 M304.85 -484.0 Q303.55 -483.45 301.9 -483.3 L300.45 -483.3 299.05 -483.25 278.1 -482.8 277.05 -482.7 276.75 -482.5 275.3 -482.35 275.25 -482.35 274.4 -482.55 272.85 -482.45 272.65 -482.25 271.65 -482.1 271.1 -482.3 270.8 -482.3 264.5 -481.6 255.75 -481.5 244.2 -480.9 245.65 -480.75 249.8 -480.6 252.35 -480.5 263.95 -480.4 267.4 -479.95 275.55 -479.3 278.5 -478.75 281.65 -479.0 281.85 -478.95 281.85 -479.0 291.1 -479.45 295.5 -480.15 305.6 -481.4 305.1 -481.85 Q304.3 -482.7 304.3 -483.15 304.3 -483.45 304.85 -484.0 M305.1 -483.0 L305.35 -482.9 305.2 -483.05 305.1 -483.0 M311.2 -482.9 L307.45 -482.5 307.0 -482.45 306.85 -482.4 306.7 -482.4 306.15 -482.3 306.55 -481.9 Q306.85 -481.7 307.3 -481.55 L307.9 -481.6 308.75 -481.3 308.75 -481.25 309.1 -481.2 309.0 -481.5 309.0 -481.9 309.6 -481.75 312.55 -482.8 312.65 -482.85 313.25 -483.05 311.2 -482.9" fill="#480000" fill-rule="evenodd" stroke="none"/>
    <path d="M163.3 -499.65 Q163.95 -502.45 165.05 -503.3 L165.0 -503.45 166.3 -504.25 Q166.75 -503.8 167.5 -503.6 L167.8 -503.4 Q169.55 -502.35 171.0 -502.35 L171.2 -502.35 Q169.25 -501.55 167.45 -500.35 L165.3 -498.6 165.3 -499.25 165.1 -500.3 164.85 -500.55 163.3 -499.65 M177.05 -495.2 L177.0 -495.35 178.05 -495.2 178.65 -494.95 181.25 -494.05 186.7 -493.25 188.85 -493.0 189.15 -492.95 192.05 -492.55 192.75 -492.5 195.85 -492.05 199.75 -491.6 203.0 -491.2 207.3 -490.7 210.0 -490.5 209.5 -490.5 210.5 -490.4 210.6 -490.4 212.2 -490.1 213.75 -489.85 220.15 -489.3 227.15 -488.5 241.55 -487.3 Q254.4 -486.2 258.1 -485.25 L267.05 -483.5 269.25 -482.9 268.6 -482.9 265.15 -482.75 264.5 -482.55 255.75 -482.4 246.45 -482.0 231.75 -482.2 229.15 -482.35 227.8 -482.5 226.95 -482.45 215.75 -483.75 204.1 -485.1 202.7 -485.3 194.6 -486.35 190.1 -486.75 186.8 -487.1 179.85 -487.9 175.55 -488.6 170.55 -489.35 171.6 -489.75 Q172.7 -490.2 173.45 -490.7 L173.55 -490.75 174.0 -491.0 174.1 -491.2 174.3 -491.05 174.5 -491.05 176.5 -492.25 177.0 -492.85 176.7 -495.5 177.05 -495.2 M176.75 -500.75 Q171.35 -498.3 165.4 -494.85 L164.5 -494.3 164.2 -493.2 Q164.7 -496.35 168.1 -499.15 171.8 -502.2 177.0 -502.9 L176.75 -500.75 M167.0 -490.6 L167.35 -490.8 175.4 -496.05 175.8 -494.25 Q175.8 -493.55 175.25 -492.95 L175.1 -493.1 174.45 -492.25 173.3 -491.7 172.65 -491.75 167.0 -490.6 M311.2 -482.9 L313.25 -483.05 312.65 -482.85 312.55 -482.8 309.6 -481.75 309.0 -481.9 309.0 -481.5 309.1 -481.2 308.75 -481.25 308.75 -481.3 307.9 -481.6 307.3 -481.55 Q306.85 -481.7 306.55 -481.9 L306.15 -482.3 306.7 -482.4 306.85 -482.4 307.0 -482.45 307.45 -482.5 311.2 -482.9" fill="#990000" fill-rule="evenodd" stroke="none"/>
    <path d="M163.3 -499.65 L164.85 -500.55 165.1 -500.3 165.3 -499.25 165.3 -498.6 164.7 -498.0 164.2 -497.4 163.55 -496.35 163.35 -496.05 163.05 -495.3 163.05 -495.25 163.0 -495.15 162.4 -494.6 163.15 -499.1 163.3 -499.65 M176.75 -500.75 Q176.3 -498.85 175.15 -496.7 L175.4 -496.05 167.35 -490.8 167.0 -490.6 165.6 -490.3 165.05 -490.3 167.35 -492.2 Q172.6 -496.4 174.75 -497.4 174.6 -497.7 173.9 -498.0 172.15 -497.35 166.3 -492.95 L163.85 -491.05 163.75 -491.5 164.0 -492.45 164.1 -492.5 164.15 -492.8 164.2 -493.2 164.5 -494.3 165.4 -494.85 Q171.35 -498.3 176.75 -500.75 M304.85 -484.0 Q304.3 -483.45 304.3 -483.15 304.3 -482.7 305.1 -481.85 L305.6 -481.4 295.5 -480.15 291.1 -479.45 281.85 -479.0 281.85 -478.95 281.65 -479.0 278.5 -478.75 275.55 -479.3 267.4 -479.95 263.95 -480.4 252.35 -480.5 249.8 -480.6 245.65 -480.75 244.2 -480.9 255.75 -481.5 264.5 -481.6 270.8 -482.3 271.1 -482.3 271.65 -482.1 272.65 -482.25 272.85 -482.45 274.4 -482.55 275.25 -482.35 275.3 -482.35 276.75 -482.5 277.05 -482.7 278.1 -482.8 299.05 -483.25 300.45 -483.3 301.9 -483.3 Q303.55 -483.45 304.85 -484.0 M317.3 -483.2 L317.35 -482.9 315.55 -482.95 316.45 -483.35 316.8 -483.4 317.3 -483.2" fill="#720e3e" fill-rule="evenodd" stroke="none"/>
  </g>
</svg>
