<?xml version="1.0" encoding="UTF-8" standalone="no"?>
<svg xmlns:ffdec="https://www.free-decompiler.com/flash" xmlns:xlink="http://www.w3.org/1999/xlink" ffdec:objectType="shape" height="584.65px" width="384.8px" xmlns="http://www.w3.org/2000/svg">
  <g transform="matrix(1.0, 0.0, 0.0, 1.0, 243.75, 672.25)">
    <path d="M3.25 -417.05 L4.5 -420.5 4.45 -416.55 Q4.45 -408.75 5.6 -404.4 L6.6 -404.55 6.85 -405.6 6.8 -401.95 Q6.8 -401.45 7.35 -398.45 7.85 -395.65 7.75 -394.3 L8.2 -395.0 8.95 -396.0 Q10.1 -395.5 10.65 -393.5 L10.95 -391.75 Q11.1 -394.05 11.7 -397.5 L13.1 -405.15 14.9 -405.15 14.6 -399.95 15.05 -393.85 Q15.1 -391.8 16.0 -391.4 16.9 -391.15 16.9 -389.55 L16.9 -388.5 16.75 -388.25 16.65 -388.2 17.55 -381.5 Q18.15 -382.1 18.95 -383.8 L19.5 -384.05 20.0 -382.65 Q20.3 -382.0 21.1 -382.4 L21.25 -374.65 Q21.6 -376.75 21.7 -383.2 22.2 -388.95 24.3 -390.85 L24.6 -380.1 Q24.6 -372.95 24.85 -369.5 25.0 -367.5 26.6 -358.65 L27.6 -352.7 27.6 -363.15 28.2 -363.15 Q29.2 -349.25 29.25 -345.45 L29.25 -345.35 29.25 -345.1 28.8 -340.75 28.3 -335.8 28.1 -333.2 27.6 -328.45 Q27.6 -327.45 28.65 -321.55 29.35 -317.7 28.05 -313.9 L28.05 -313.75 29.95 -313.6 Q30.75 -313.6 30.95 -313.15 L30.95 -312.95 31.3 -317.5 Q31.55 -320.75 32.65 -322.45 33.4 -321.55 33.4 -318.9 L32.55 -294.2 31.85 -294.05 31.25 -300.9 Q30.65 -299.75 30.35 -297.75 L29.8 -291.7 28.8 -291.55 Q28.6 -292.45 28.55 -294.1 L28.45 -293.7 28.65 -287.7 Q28.65 -284.2 28.25 -282.4 27.8 -282.4 27.45 -283.0 27.15 -283.6 26.35 -283.6 25.45 -283.6 25.45 -285.75 L25.5 -289.55 Q24.85 -286.1 24.95 -280.65 L25.2 -272.5 24.4 -251.45 24.0 -251.05 Q23.35 -251.95 23.0 -253.4 L22.55 -234.2 21.95 -234.1 21.65 -238.15 20.55 -237.1 20.15 -237.4 20.15 -236.55 Q20.15 -233.05 19.5 -229.9 L19.05 -229.9 18.25 -237.8 17.95 -243.6 18.0 -245.25 17.95 -245.25 17.75 -243.45 17.35 -243.05 17.35 -242.65 17.1 -241.3 16.9 -240.35 16.45 -240.15 15.8 -241.75 15.75 -241.0 Q15.3 -235.15 13.7 -234.1 L12.4 -235.4 12.7 -233.5 12.4 -229.55 11.8 -228.85 Q10.95 -230.55 10.4 -233.8 L9.7 -231.75 8.35 -227.95 Q8.1 -226.85 7.8 -224.15 7.6 -221.65 7.15 -220.3 6.35 -221.15 6.1 -222.15 L5.85 -223.2 5.75 -223.5 5.0 -223.15 3.1 -223.2 1.65 -210.6 0.95 -210.3 Q0.0 -211.4 0.15 -213.45 0.3 -216.0 0.1 -216.65 -0.3 -217.85 -1.65 -219.7 L-2.4 -221.1 -3.1 -220.45 -3.3 -220.5 -4.25 -217.2 -5.75 -212.75 -6.45 -212.75 -6.55 -213.25 Q-7.1 -212.65 -7.7 -212.35 L-7.65 -209.4 -7.95 -206.0 -8.2 -201.4 -8.45 -201.25 -8.95 -200.95 Q-9.95 -202.2 -10.85 -204.6 -11.75 -206.9 -12.0 -208.6 L-12.3 -208.95 -12.7 -207.4 Q-13.15 -206.15 -14.1 -205.75 -14.5 -206.5 -16.0 -207.5 L-16.5 -203.9 -16.9 -200.15 -16.9 -195.7 -16.9 -195.55 -18.0 -195.4 Q-18.95 -195.4 -20.2 -198.1 -21.3 -200.45 -21.35 -201.4 L-21.65 -201.7 -21.65 -198.65 -21.9 -198.5 -22.25 -198.2 Q-23.2 -199.25 -23.35 -199.75 L-23.45 -200.5 -24.05 -201.35 Q-24.55 -202.0 -24.55 -202.55 L-25.3 -207.8 -25.6 -201.6 Q-25.6 -200.7 -25.95 -200.25 L-26.9 -199.4 Q-28.4 -200.2 -28.5 -202.45 L-28.8 -206.15 Q-29.15 -202.05 -30.0 -198.45 L-32.05 -191.3 -33.3 -192.85 -33.25 -193.45 -33.25 -193.6 Q-33.65 -193.0 -35.2 -192.0 -36.1 -191.35 -36.1 -189.45 L-36.35 -186.55 -36.6 -183.7 -36.75 -183.45 -37.35 -183.0 Q-38.5 -183.75 -38.9 -186.1 L-39.1 -190.1 Q-39.15 -190.9 -39.95 -193.5 L-41.1 -197.1 -41.5 -197.3 -41.85 -195.0 Q-42.25 -193.5 -43.15 -193.15 -44.05 -193.5 -44.5 -195.2 L-45.05 -197.3 -46.0 -196.6 -45.9 -196.3 -49.05 -194.0 Q-50.45 -192.8 -52.2 -193.3 L-52.55 -189.25 -52.85 -184.75 -52.7 -184.5 -53.65 -184.3 Q-56.2 -184.3 -56.4 -188.0 -56.75 -194.5 -57.85 -197.5 L-59.5 -197.2 -60.85 -197.1 -61.25 -190.55 -61.7 -190.25 Q-63.3 -193.3 -63.55 -196.65 L-64.75 -199.3 -65.65 -201.35 Q-66.2 -198.35 -66.2 -196.9 L-66.0 -196.6 Q-65.95 -196.3 -66.9 -196.3 -67.6 -196.3 -68.2 -196.75 L-68.5 -196.8 -68.5 -196.3 -68.8 -196.0 -69.0 -195.9 -68.85 -195.45 -68.85 -188.1 -69.25 -187.9 Q-69.7 -187.6 -70.1 -187.5 L-70.85 -189.5 Q-71.35 -190.8 -71.35 -192.25 L-71.65 -192.0 -72.1 -191.55 Q-73.55 -192.3 -73.8 -194.0 -74.1 -196.15 -74.45 -196.65 L-75.45 -196.9 Q-75.8 -193.45 -76.5 -190.85 L-77.6 -190.85 Q-77.9 -192.15 -78.05 -195.6 L-80.75 -195.4 Q-82.2 -195.4 -82.0 -195.7 -82.0 -199.35 -82.6 -201.5 -83.45 -198.9 -83.15 -196.5 -83.05 -195.25 -83.45 -193.9 -83.9 -192.55 -84.6 -191.95 L-85.15 -191.95 -85.45 -192.5 -85.5 -193.7 -85.5 -193.8 -85.7 -193.05 Q-85.65 -190.8 -85.4 -190.3 L-85.55 -190.1 -86.2 -189.7 Q-87.15 -191.45 -87.15 -194.9 -87.45 -194.9 -88.0 -193.15 L-88.6 -193.15 -88.8 -195.05 -89.2 -197.1 -89.4 -197.4 Q-89.4 -193.95 -89.7 -192.15 L-90.0 -191.9 Q-92.35 -193.95 -92.75 -199.6 -93.25 -205.45 -95.65 -207.95 L-96.1 -206.25 Q-96.35 -205.2 -97.3 -204.65 -98.75 -206.15 -99.15 -209.35 L-99.8 -214.65 Q-100.2 -214.3 -100.85 -212.35 -101.5 -210.2 -102.25 -209.2 -103.1 -209.75 -103.35 -211.7 L-103.35 -211.95 -103.45 -212.0 -103.45 -211.8 Q-103.5 -211.45 -103.95 -211.15 -104.75 -212.05 -104.85 -213.45 -104.95 -214.95 -105.6 -215.75 L-105.75 -215.75 -105.85 -213.6 -106.6 -213.45 Q-108.05 -218.9 -110.35 -232.15 L-111.2 -227.85 Q-112.45 -229.05 -112.75 -230.15 L-112.95 -231.8 -113.2 -232.15 Q-113.7 -231.2 -114.3 -230.6 -114.8 -230.15 -115.0 -230.15 -117.05 -230.15 -117.6 -236.95 -117.85 -240.4 -117.75 -244.45 L-118.0 -244.45 -117.85 -239.15 -118.0 -238.95 -118.4 -238.9 -119.95 -238.85 -120.75 -245.0 -120.75 -245.2 Q-121.45 -246.4 -121.55 -248.85 L-121.95 -251.55 -121.9 -252.5 Q-122.15 -253.55 -122.65 -254.15 -124.8 -256.85 -125.45 -259.9 -125.85 -261.5 -125.85 -263.25 L-126.25 -263.55 -127.3 -262.25 -127.5 -260.85 -128.2 -260.6 Q-128.8 -260.35 -129.3 -260.25 -131.3 -266.15 -131.95 -269.7 -133.15 -276.95 -133.15 -278.85 L-132.85 -280.4 -132.9 -281.15 -133.15 -289.1 -132.8 -293.6 -132.25 -293.6 -131.4 -285.2 Q-130.65 -287.85 -130.65 -289.1 -130.65 -293.5 -130.9 -294.65 L-133.15 -301.65 -134.05 -301.35 Q-135.95 -303.4 -136.4 -306.8 L-136.55 -312.7 Q-136.55 -316.2 -137.15 -323.8 L-137.05 -325.65 -136.45 -327.05 Q-135.9 -326.15 -135.75 -325.05 -135.6 -324.35 -135.6 -322.75 L-134.65 -322.4 -133.75 -322.0 Q-132.85 -326.4 -132.85 -331.15 L-132.95 -332.95 -133.5 -335.35 Q-134.3 -339.9 -134.8 -341.45 L-135.25 -341.45 Q-135.25 -340.15 -135.55 -339.15 L-136.1 -339.15 -136.95 -346.6 -136.7 -350.45 Q-135.95 -349.85 -135.35 -348.45 L-134.55 -346.3 -134.05 -347.65 Q-133.8 -348.65 -133.25 -348.8 L-132.65 -349.2 -132.55 -350.65 -133.45 -362.95 Q-133.45 -366.9 -134.05 -374.55 -134.05 -377.35 -133.45 -378.45 -131.75 -375.7 -131.2 -370.95 L-131.2 -386.9 -131.65 -388.5 -131.45 -392.5 -131.1 -392.5 -131.0 -392.3 -130.25 -392.3 -130.1 -388.9 -129.6 -386.55 -129.6 -386.45 -128.9 -388.0 -129.2 -388.4 Q-129.6 -389.05 -129.6 -390.05 -129.6 -390.75 -128.35 -391.6 -126.9 -392.45 -125.5 -391.3 -125.35 -399.4 -124.1 -410.25 L-123.35 -410.25 Q-123.1 -405.5 -123.1 -395.1 -121.75 -398.15 -120.35 -406.7 -120.3 -406.7 -120.05 -406.85 L-120.05 -406.0 -119.7 -403.05 -119.05 -400.15 Q-118.75 -400.25 -118.6 -400.5 L-118.45 -400.8 -118.15 -403.5 -118.1 -403.6 Q-117.75 -397.1 -117.05 -394.25 L-116.3 -394.4 Q-115.95 -397.25 -115.55 -402.2 L-115.3 -407.95 -115.3 -414.9 Q-114.9 -413.9 -114.95 -412.35 L-115.0 -407.75 -114.7 -407.6 Q-114.45 -407.8 -114.15 -409.2 L-113.55 -403.2 -112.95 -403.4 -112.8 -405.0 -112.65 -406.8 -112.8 -411.95 -112.75 -412.0 -112.55 -408.75 -111.8 -397.45 -111.2 -397.6 Q-110.6 -402.35 -110.6 -407.55 L-110.8 -411.1 -110.35 -411.55 Q-109.35 -410.25 -109.35 -409.7 L-109.15 -406.2 -108.75 -406.2 Q-107.65 -410.65 -106.3 -418.0 L-105.15 -424.2 -105.15 -424.05 -104.95 -424.6 -104.3 -420.95 -103.7 -420.95 Q-102.85 -424.55 -102.55 -429.85 -101.2 -427.65 -101.6 -424.6 L-101.3 -424.45 -99.9 -430.5 -99.4 -434.05 Q-98.55 -435.3 -98.4 -440.1 -98.2 -438.0 -97.05 -436.45 -96.7 -436.5 -96.35 -436.75 L-95.85 -437.05 Q-95.4 -440.3 -95.1 -445.4 -94.55 -443.7 -94.45 -441.4 L-94.7 -432.55 Q-94.55 -432.55 -94.4 -433.05 L-94.3 -433.8 -93.55 -434.25 Q-92.25 -433.45 -92.25 -431.8 L-92.15 -429.2 -91.8 -428.45 Q-91.3 -430.45 -89.8 -433.8 -89.35 -434.25 -88.0 -434.25 -87.4 -433.45 -87.4 -431.2 L-86.7 -431.2 -86.15 -437.35 -85.75 -443.85 -85.15 -443.85 Q-84.65 -440.8 -84.65 -439.05 -84.45 -439.05 -84.35 -440.35 L-83.4 -440.5 Q-82.55 -440.5 -82.6 -439.35 L-82.55 -437.75 Q-81.7 -436.6 -81.4 -435.85 L-81.25 -435.0 -80.85 -432.75 -80.65 -418.5 -79.9 -418.5 -79.75 -421.35 -79.55 -417.1 -79.2 -417.1 Q-79.25 -425.25 -78.9 -429.75 -78.45 -437.05 -76.85 -442.8 L-75.9 -443.4 Q-74.85 -442.45 -74.85 -440.0 L-74.55 -439.65 Q-73.65 -441.75 -73.5 -447.85 -73.4 -451.45 -72.8 -453.45 -72.45 -449.8 -70.95 -447.0 L-70.65 -447.1 -70.65 -446.9 -70.0 -447.4 -70.35 -443.7 Q-70.35 -441.7 -69.2 -439.9 L-68.6 -440.35 -68.5 -440.6 Q-68.0 -443.6 -67.6 -448.2 L-67.3 -448.2 Q-65.9 -448.2 -65.9 -447.3 L-65.8 -446.65 -65.3 -447.75 -64.75 -448.15 -64.8 -447.7 Q-64.85 -445.4 -63.4 -444.4 L-62.5 -444.65 Q-61.25 -448.95 -61.25 -453.0 L-61.25 -455.1 -60.35 -455.0 Q-60.35 -452.2 -58.8 -446.65 -57.3 -441.15 -57.3 -438.2 L-57.15 -437.9 Q-56.7 -438.7 -56.8 -442.95 -56.85 -445.3 -56.0 -447.1 L-55.85 -443.45 -55.6 -437.15 -54.85 -437.3 Q-54.35 -438.75 -53.8 -446.0 L-53.75 -444.35 Q-53.8 -441.1 -53.4 -440.0 L-53.1 -440.65 -52.7 -441.1 -52.7 -439.85 Q-52.6 -437.55 -51.2 -435.85 -50.9 -435.9 -50.55 -436.1 L-50.25 -436.3 -49.95 -439.5 -49.75 -439.2 -47.55 -435.9 -46.35 -439.6 Q-45.45 -442.3 -45.25 -443.95 L-44.15 -437.05 -43.1 -437.15 -42.8 -438.35 Q-42.55 -439.1 -42.55 -440.0 -42.55 -442.7 -42.85 -446.85 L-42.8 -446.9 -42.7 -447.1 Q-41.95 -440.75 -40.5 -439.15 L-39.85 -440.25 Q-39.4 -439.0 -39.4 -437.5 -39.7 -434.1 -39.4 -432.55 L-37.75 -433.05 -36.6 -433.0 Q-36.5 -434.35 -36.8 -437.25 L-37.2 -440.9 -37.2 -440.95 -37.05 -440.35 Q-36.55 -440.9 -35.95 -443.15 L-35.25 -436.1 -34.65 -436.3 -34.35 -438.15 Q-34.05 -439.35 -34.05 -440.25 L-34.35 -449.5 Q-33.65 -446.0 -33.5 -441.75 L-33.6 -428.9 -33.05 -428.8 -32.65 -426.3 Q-32.3 -426.6 -32.3 -427.0 L-32.1 -428.7 -31.75 -422.8 Q-31.6 -417.1 -30.85 -414.1 L-30.5 -414.4 Q-30.05 -418.7 -30.05 -427.6 L-30.05 -428.75 -29.65 -428.75 -29.55 -424.9 -29.25 -423.6 -29.0 -416.85 Q-28.5 -416.95 -28.2 -417.25 L-28.05 -417.45 -27.9 -422.3 -27.2 -422.15 Q-26.8 -421.8 -26.7 -420.95 L-25.85 -423.6 -25.0 -425.65 -24.9 -424.45 Q-24.65 -419.35 -23.95 -418.6 -23.55 -418.75 -23.3 -419.05 L-23.05 -419.3 Q-22.85 -421.65 -22.8 -425.3 L-22.6 -424.0 Q-22.4 -420.85 -22.1 -420.1 L-21.85 -419.9 Q-21.3 -420.9 -20.55 -421.4 -20.4 -420.8 -18.95 -420.0 -17.7 -419.3 -17.65 -417.7 L-17.55 -415.5 -17.1 -412.95 Q-16.15 -410.15 -15.6 -403.8 L-15.3 -403.8 -15.0 -407.35 -14.8 -410.85 Q-14.9 -411.85 -14.05 -414.2 L-13.85 -409.05 -12.65 -409.05 Q-12.2 -412.75 -12.0 -417.45 -11.85 -416.2 -11.85 -413.35 L-10.55 -413.4 Q-9.45 -413.45 -9.05 -413.1 -7.8 -414.6 -7.75 -417.7 L-7.75 -422.95 -7.7 -422.95 -7.6 -421.05 Q-7.3 -416.65 -6.05 -415.7 L-5.55 -416.15 -5.45 -416.4 -5.45 -417.55 -5.0 -413.7 -1.55 -416.55 Q-0.25 -418.15 -1.35 -420.65 -1.35 -421.05 -0.5 -421.25 0.45 -420.0 0.7 -417.1 L1.05 -412.95 Q2.3 -413.9 3.25 -417.05 M-37.25 -378.35 L-37.4 -378.1 -37.35 -378.75 -37.25 -378.35 M-64.95 -397.25 L-65.4 -404.4 Q-66.4 -402.95 -67.0 -398.95 L-68.0 -392.85 -68.5 -392.85 -68.5 -395.85 -70.25 -396.0 -71.65 -395.7 Q-71.65 -393.1 -71.95 -392.3 L-72.1 -392.3 Q-72.1 -393.6 -72.45 -394.0 -73.25 -393.85 -73.85 -393.4 -73.85 -391.25 -74.1 -390.95 L-74.5 -391.55 -74.9 -392.4 -75.5 -391.9 Q-75.5 -390.25 -76.1 -390.0 L-76.5 -390.5 Q-76.8 -390.9 -77.2 -390.85 -78.2 -388.35 -78.5 -384.05 -78.5 -385.0 -80.2 -385.9 L-79.8 -388.1 Q-79.6 -389.4 -80.5 -389.4 L-81.35 -389.15 -81.4 -388.3 Q-81.6 -387.45 -82.55 -386.45 L-82.55 -390.05 Q-80.7 -394.9 -83.15 -395.85 -84.4 -393.75 -84.35 -390.2 L-84.35 -384.3 Q-85.85 -384.25 -86.4 -380.3 -87.0 -376.1 -89.2 -375.45 L-89.4 -377.35 Q-89.5 -378.45 -89.75 -378.9 L-90.6 -378.75 -91.8 -373.4 -92.15 -377.65 -92.65 -377.65 -93.3 -376.1 -93.55 -374.6 -93.7 -374.6 Q-93.7 -381.1 -94.1 -384.15 -95.35 -379.65 -96.55 -371.1 -96.75 -371.6 -97.6 -371.8 L-99.05 -371.85 -100.25 -368.3 -101.65 -364.55 -101.65 -364.75 Q-102.25 -369.3 -102.8 -371.55 L-103.35 -371.1 -104.15 -363.2 Q-104.6 -358.45 -107.0 -356.3 L-107.45 -357.5 Q-107.75 -358.35 -108.25 -358.6 -108.75 -357.55 -108.75 -356.1 L-108.7 -355.55 -108.75 -354.3 Q-108.2 -349.2 -108.6 -347.05 -108.6 -345.7 -109.05 -343.3 L-109.15 -350.15 -109.45 -350.45 -110.35 -350.4 -110.5 -340.75 -110.05 -333.15 -109.6 -333.15 Q-109.2 -335.4 -109.1 -338.3 L-108.3 -336.95 Q-106.85 -334.45 -106.85 -332.55 -106.85 -331.05 -107.95 -330.6 -109.15 -330.2 -109.15 -327.65 L-108.55 -323.75 -108.05 -319.85 Q-108.05 -318.9 -108.55 -318.35 L-108.75 -318.15 -109.05 -323.1 -109.6 -323.1 -109.6 -318.15 -109.85 -318.35 Q-110.5 -318.65 -110.85 -318.35 L-110.85 -313.55 -110.8 -313.15 -111.2 -313.15 -111.45 -308.15 Q-111.45 -305.75 -110.85 -304.6 L-110.5 -305.05 -110.35 -305.35 -110.35 -307.35 -108.85 -292.4 -108.25 -292.5 -108.05 -293.85 -107.85 -293.6 -108.05 -289.65 -106.0 -288.1 -105.45 -287.5 Q-105.45 -284.65 -104.85 -281.6 L-104.4 -281.6 -104.3 -281.85 -103.1 -277.8 -102.3 -277.95 -102.25 -278.95 -101.75 -279.05 -101.2 -277.2 Q-100.9 -276.25 -99.95 -275.4 L-99.2 -274.45 -98.95 -272.5 -98.7 -271.0 Q-98.7 -269.8 -98.4 -269.35 L-96.95 -267.75 -96.3 -268.25 -95.3 -270.45 -94.45 -271.7 Q-93.05 -271.05 -92.5 -271.7 -92.15 -272.05 -92.15 -272.75 L-92.05 -274.75 Q-92.0 -274.2 -91.35 -272.95 -90.75 -271.8 -90.75 -271.1 L-90.8 -269.4 Q-90.6 -268.1 -89.4 -267.1 L-87.2 -267.4 Q-87.1 -264.15 -86.6 -262.25 L-86.15 -262.65 Q-85.95 -264.4 -85.85 -267.7 L-85.65 -266.95 -85.05 -267.3 -84.65 -267.5 -84.55 -269.25 -84.4 -268.8 -84.4 -268.65 Q-84.4 -264.1 -83.75 -261.8 -83.1 -264.15 -83.0 -267.7 L-82.9 -267.6 Q-82.85 -265.85 -82.05 -264.3 -82.05 -261.05 -81.7 -259.4 L-81.2 -259.4 Q-80.85 -260.45 -80.75 -262.0 L-80.5 -261.35 -80.5 -260.7 -80.25 -257.9 Q-80.25 -254.6 -79.9 -252.85 L-79.2 -253.25 -79.05 -253.45 -78.95 -255.2 -78.55 -255.15 -78.5 -251.65 -77.6 -251.65 Q-77.15 -253.1 -77.0 -254.45 L-76.4 -253.25 Q-75.95 -251.0 -75.5 -250.5 L-73.55 -248.5 -73.6 -247.4 Q-73.6 -244.05 -72.65 -241.9 L-72.15 -242.3 -71.95 -242.5 -71.85 -246.95 -71.6 -246.8 -71.25 -243.35 -70.75 -243.35 -70.4 -245.7 -69.75 -245.05 -68.0 -247.05 Q-67.55 -246.15 -66.7 -245.2 -65.7 -244.05 -64.8 -243.6 L-64.55 -246.15 -64.1 -248.35 -63.5 -247.65 -63.1 -241.55 -62.5 -241.7 -62.35 -243.75 -62.2 -241.75 Q-61.85 -236.9 -59.95 -236.35 L-59.15 -236.8 Q-59.05 -238.1 -58.0 -241.35 -56.95 -244.35 -56.95 -246.2 -56.95 -247.2 -56.35 -249.8 -55.75 -252.35 -55.75 -253.7 L-55.45 -253.45 Q-55.45 -252.15 -55.15 -251.85 L-53.5 -250.25 Q-52.85 -251.45 -52.25 -253.6 -51.5 -255.45 -50.1 -256.8 L-48.45 -252.25 -46.95 -247.5 -46.0 -247.9 -45.85 -248.1 -45.7 -250.25 Q-44.05 -248.75 -43.1 -245.3 -42.15 -241.7 -41.1 -240.65 -40.75 -242.5 -40.75 -245.35 L-40.75 -250.0 -37.75 -246.9 Q-35.35 -246.9 -34.95 -248.95 L-34.95 -252.0 -35.0 -254.6 -33.95 -254.45 -32.25 -254.7 -31.35 -255.0 Q-31.35 -258.05 -30.7 -261.15 -30.05 -264.1 -29.05 -266.2 L-28.5 -265.3 -27.45 -264.35 Q-27.35 -264.4 -27.4 -265.05 -27.45 -265.65 -26.6 -265.65 -25.7 -265.65 -25.45 -265.25 L-25.3 -264.9 -25.2 -263.5 Q-25.1 -262.7 -23.95 -261.75 L-23.15 -262.4 Q-24.15 -266.85 -22.15 -268.75 -19.8 -271.05 -19.8 -273.95 L-19.8 -274.4 -19.65 -274.3 -18.75 -274.2 Q-17.95 -275.35 -17.3 -279.05 -16.3 -282.1 -13.55 -281.7 -13.55 -283.15 -12.95 -285.65 L-12.35 -288.75 -12.55 -292.05 -11.85 -290.05 -11.35 -290.4 -11.1 -290.7 -10.85 -294.0 -10.65 -296.8 -10.95 -302.9 -11.2 -305.7 -10.8 -305.35 -10.8 -304.8 Q-10.8 -299.8 -10.35 -297.65 L-9.75 -297.75 Q-9.4 -300.3 -9.35 -303.7 -8.65 -303.75 -8.2 -304.1 L-7.6 -304.75 Q-6.4 -310.15 -6.6 -313.45 -5.95 -314.0 -5.45 -314.85 L-5.15 -309.95 -4.7 -309.95 Q-4.1 -317.7 -4.1 -320.65 -4.1 -326.45 -4.7 -329.55 L-5.15 -329.55 -6.35 -337.75 -6.95 -337.75 -7.0 -337.45 Q-7.05 -341.4 -7.6 -344.5 L-8.2 -344.5 -8.4 -337.65 Q-10.55 -343.15 -11.75 -350.0 -13.5 -359.3 -12.8 -366.9 L-14.0 -366.9 -15.0 -360.95 -15.0 -361.1 Q-15.0 -366.35 -15.55 -370.2 L-16.5 -370.1 -16.75 -362.5 -16.8 -362.65 Q-17.85 -365.4 -17.9 -366.65 -17.9 -367.6 -18.5 -368.95 L-18.5 -370.7 Q-18.5 -375.75 -19.1 -378.9 L-19.8 -378.9 -20.1 -372.55 -20.4 -375.55 -20.1 -378.9 Q-19.95 -381.6 -20.15 -383.15 L-20.9 -383.15 Q-21.85 -383.15 -21.95 -382.15 L-21.95 -380.55 -22.1 -380.2 -22.7 -386.15 -23.15 -386.15 -23.4 -381.8 -23.7 -383.15 -24.55 -383.15 -24.8 -379.05 -24.9 -379.05 Q-25.7 -378.8 -26.55 -377.2 L-27.8 -374.15 -27.9 -374.15 -28.5 -377.0 Q-28.8 -378.85 -29.2 -379.8 -30.5 -378.15 -30.5 -376.75 L-30.65 -376.75 -32.4 -382.1 -32.4 -382.55 -32.5 -384.5 Q-32.85 -385.7 -34.35 -385.95 L-35.35 -381.85 -35.8 -379.75 -35.85 -379.8 -36.65 -379.15 -37.15 -379.8 -37.3 -379.95 -37.4 -379.8 -37.6 -379.8 -38.25 -378.55 -38.6 -377.65 -38.9 -379.0 -39.2 -380.8 -39.2 -382.0 -39.35 -382.4 -39.9 -382.4 -40.95 -378.45 -41.55 -374.85 -42.2 -378.8 Q-42.65 -381.75 -43.1 -383.0 L-43.5 -382.4 -43.7 -381.95 -43.9 -383.75 -44.3 -385.3 -45.55 -383.3 -45.95 -381.95 -46.15 -382.1 Q-46.15 -383.0 -46.45 -383.45 L-47.15 -382.8 -47.75 -382.4 -47.9 -382.85 Q-47.9 -384.15 -48.15 -384.65 L-48.75 -384.4 Q-48.75 -383.6 -48.9 -383.2 L-49.05 -383.45 -48.95 -385.35 Q-48.9 -386.5 -50.1 -387.05 L-50.4 -386.9 Q-50.5 -386.1 -51.15 -383.9 -51.8 -381.85 -51.8 -380.6 L-52.1 -380.6 Q-52.75 -382.4 -53.25 -382.4 -54.15 -380.6 -54.4 -380.6 L-55.15 -384.65 Q-57.65 -383.95 -57.5 -386.35 -57.35 -389.4 -58.75 -390.05 -59.35 -389.15 -59.35 -387.05 L-59.6 -387.05 Q-60.9 -388.7 -61.7 -389.15 L-61.85 -390.6 Q-62.0 -391.5 -62.8 -392.4 -63.4 -392.15 -63.4 -391.7 L-63.45 -390.95 -63.55 -390.85 Q-63.55 -391.7 -63.8 -392.15 L-64.4 -391.55 Q-64.4 -390.25 -64.7 -390.0 L-64.8 -390.05 -64.95 -397.25 M-130.9 -276.9 L-130.85 -276.65 -130.85 -276.9 -130.9 -276.9" fill="#0fb8f0" fill-rule="evenodd" stroke="none"/>
    <path d="M-64.95 -397.25 L-64.8 -390.05 -64.7 -390.0 Q-64.4 -390.25 -64.4 -391.55 L-63.8 -392.15 Q-63.55 -391.7 -63.55 -390.85 L-63.45 -390.95 -63.4 -391.7 Q-63.4 -392.15 -62.8 -392.4 -62.0 -391.5 -61.85 -390.6 L-61.7 -389.15 Q-60.9 -388.7 -59.6 -387.05 L-59.35 -387.05 Q-59.35 -389.15 -58.75 -390.05 -57.35 -389.4 -57.5 -386.35 -57.65 -383.95 -55.15 -384.65 L-54.4 -380.6 Q-54.15 -380.6 -53.25 -382.4 -52.75 -382.4 -52.1 -380.6 L-51.8 -380.6 Q-51.8 -381.85 -51.15 -383.9 -50.5 -386.1 -50.4 -386.9 L-50.1 -387.05 Q-48.9 -386.5 -48.95 -385.35 L-49.05 -383.45 -48.9 -383.2 Q-48.75 -383.6 -48.75 -384.4 L-48.15 -384.65 Q-47.9 -384.15 -47.9 -382.85 L-47.75 -382.4 -47.15 -382.8 -46.45 -383.45 Q-46.15 -383.0 -46.15 -382.1 L-45.95 -381.95 -45.55 -383.3 -44.3 -385.3 -43.9 -383.75 -43.7 -381.95 -43.5 -382.4 -43.1 -383.0 Q-42.65 -381.75 -42.2 -378.8 L-41.55 -374.85 -40.95 -378.45 -39.9 -382.4 -39.35 -382.4 -39.2 -382.0 -39.2 -380.8 -38.9 -379.0 -38.6 -377.65 -38.25 -378.55 -37.6 -379.8 -37.4 -379.8 -37.3 -379.95 -37.15 -379.8 -36.65 -379.15 -35.85 -379.8 -35.8 -379.75 -35.35 -381.85 -34.35 -385.95 Q-32.85 -385.7 -32.5 -384.5 L-32.4 -382.55 -32.4 -382.1 -30.65 -376.75 -30.5 -376.75 Q-30.5 -378.15 -29.2 -379.8 -28.8 -378.85 -28.5 -377.0 L-27.9 -374.15 -27.8 -374.15 -26.55 -377.2 Q-25.7 -378.8 -24.9 -379.05 L-24.8 -379.05 -24.55 -383.15 -23.7 -383.15 -23.4 -381.8 -23.15 -386.15 -22.7 -386.15 -22.1 -380.2 -21.95 -380.55 -21.95 -382.15 Q-21.85 -383.15 -20.9 -383.15 L-20.15 -383.15 Q-19.95 -381.6 -20.1 -378.9 L-20.4 -375.55 -20.1 -372.55 -19.8 -378.9 -19.1 -378.9 Q-18.5 -375.75 -18.5 -370.7 L-18.5 -368.95 Q-17.9 -367.6 -17.9 -366.65 -17.85 -365.4 -16.8 -362.65 L-16.75 -362.5 -16.5 -370.1 -15.55 -370.2 Q-15.0 -366.35 -15.0 -361.1 L-15.0 -360.95 -14.0 -366.9 -12.8 -366.9 Q-13.5 -359.3 -11.75 -350.0 -10.55 -343.15 -8.4 -337.65 L-8.2 -344.5 -7.6 -344.5 Q-7.05 -341.4 -7.0 -337.45 L-6.95 -337.75 -6.35 -337.75 -5.15 -329.55 -4.7 -329.55 Q-4.1 -326.45 -4.1 -320.65 -4.1 -317.7 -4.7 -309.95 L-5.15 -309.95 -5.45 -314.85 Q-5.95 -314.0 -6.6 -313.45 -6.4 -310.15 -7.6 -304.75 L-8.2 -304.1 Q-8.65 -303.75 -9.35 -303.7 -9.4 -300.3 -9.75 -297.75 L-10.35 -297.65 Q-10.8 -299.8 -10.8 -304.8 L-10.8 -305.35 -11.2 -305.7 -10.95 -302.9 -10.65 -296.8 -10.85 -294.0 -11.1 -290.7 -11.35 -290.4 -11.85 -290.05 -12.55 -292.05 -12.35 -288.75 -12.95 -285.65 Q-13.55 -283.15 -13.55 -281.7 -16.3 -282.1 -17.3 -279.05 -17.95 -275.35 -18.75 -274.2 L-19.65 -274.3 -19.8 -274.4 -19.8 -273.95 Q-19.8 -271.05 -22.15 -268.75 -24.15 -266.85 -23.15 -262.4 L-23.95 -261.75 Q-25.1 -262.7 -25.2 -263.5 L-25.3 -264.9 -25.45 -265.25 Q-25.7 -265.65 -26.6 -265.65 -27.45 -265.65 -27.4 -265.05 -27.35 -264.4 -27.45 -264.35 L-28.5 -265.3 -29.05 -266.2 Q-30.05 -264.1 -30.7 -261.15 -31.35 -258.05 -31.35 -255.0 L-32.25 -254.7 -33.95 -254.45 -35.0 -254.6 -34.95 -252.0 -34.95 -248.95 Q-35.35 -246.9 -37.75 -246.9 L-40.75 -250.0 -40.75 -245.35 Q-40.75 -242.5 -41.1 -240.65 -42.15 -241.7 -43.1 -245.3 -44.05 -248.75 -45.7 -250.25 L-45.85 -248.1 -46.0 -247.9 -46.95 -247.5 -48.45 -252.25 -50.1 -256.8 Q-51.5 -255.45 -52.25 -253.6 -52.85 -251.45 -53.5 -250.25 L-55.15 -251.85 Q-55.45 -252.15 -55.45 -253.45 L-55.75 -253.7 Q-55.75 -252.35 -56.35 -249.8 -56.95 -247.2 -56.95 -246.2 -56.95 -244.35 -58.0 -241.35 -59.05 -238.1 -59.15 -236.8 L-59.95 -236.35 Q-61.85 -236.9 -62.2 -241.75 L-62.35 -243.75 -62.5 -241.7 -63.1 -241.55 -63.5 -247.65 -64.1 -248.35 -64.55 -246.15 -64.8 -243.6 Q-65.7 -244.05 -66.7 -245.2 -67.55 -246.15 -68.0 -247.05 L-69.75 -245.05 -70.4 -245.7 -70.75 -243.35 -71.25 -243.35 -71.6 -246.8 -71.85 -246.95 -71.95 -242.5 -72.15 -242.3 -72.65 -241.9 Q-73.6 -244.05 -73.6 -247.4 L-73.55 -248.5 -75.5 -250.5 Q-75.95 -251.0 -76.4 -253.25 L-77.0 -254.45 Q-77.15 -253.1 -77.6 -251.65 L-78.5 -251.65 -78.55 -255.15 -78.95 -255.2 -79.05 -253.45 -79.2 -253.25 -79.9 -252.85 Q-80.25 -254.6 -80.25 -257.9 L-80.5 -260.7 -80.5 -261.35 -80.75 -262.0 Q-80.85 -260.45 -81.2 -259.4 L-81.7 -259.4 Q-82.05 -261.05 -82.05 -264.3 -82.85 -265.85 -82.9 -267.6 L-83.0 -267.7 Q-83.1 -264.15 -83.75 -261.8 -84.4 -264.1 -84.4 -268.65 L-84.4 -268.8 -84.55 -269.25 -84.65 -267.5 -85.05 -267.3 -85.65 -266.95 -85.85 -267.7 Q-85.95 -264.4 -86.15 -262.65 L-86.6 -262.25 Q-87.1 -264.15 -87.2 -267.4 L-89.4 -267.1 Q-90.6 -268.1 -90.8 -269.4 L-90.75 -271.1 Q-90.75 -271.8 -91.35 -272.95 -92.0 -274.2 -92.05 -274.75 L-92.15 -272.75 Q-92.15 -272.05 -92.5 -271.7 -93.05 -271.05 -94.45 -271.7 L-95.3 -270.45 -96.3 -268.25 -96.95 -267.75 -98.4 -269.35 Q-98.7 -269.8 -98.7 -271.0 L-98.95 -272.5 -99.2 -274.45 -99.95 -275.4 Q-100.9 -276.25 -101.2 -277.2 L-101.75 -279.05 -102.25 -278.95 -102.3 -277.95 -103.1 -277.8 -104.3 -281.85 -104.4 -281.6 -104.85 -281.6 Q-105.45 -284.65 -105.45 -287.5 L-106.0 -288.1 -108.05 -289.65 -107.85 -293.6 -108.05 -293.85 -108.25 -292.5 -108.85 -292.4 -110.35 -307.35 -110.35 -305.35 -110.5 -305.05 -110.85 -304.6 Q-111.45 -305.75 -111.45 -308.15 L-111.2 -313.15 -110.8 -313.15 -110.85 -313.55 -110.85 -318.35 Q-110.5 -318.65 -109.85 -318.35 L-109.6 -318.15 -109.6 -323.1 -109.05 -323.1 -108.75 -318.15 -108.55 -318.35 Q-108.05 -318.9 -108.05 -319.85 L-108.55 -323.75 -109.15 -327.65 Q-109.15 -330.2 -107.95 -330.6 -106.85 -331.05 -106.85 -332.55 -106.85 -334.45 -108.3 -336.95 L-109.1 -338.3 Q-109.2 -335.4 -109.6 -333.15 L-110.05 -333.15 -110.5 -340.75 -110.35 -350.4 -109.45 -350.45 -109.15 -350.15 -109.05 -343.3 Q-108.6 -345.7 -108.6 -347.05 -108.2 -349.2 -108.75 -354.3 L-108.7 -355.55 -108.75 -356.1 Q-108.75 -357.55 -108.25 -358.6 -107.75 -358.35 -107.45 -357.5 L-107.0 -356.3 Q-104.6 -358.45 -104.15 -363.2 L-103.35 -371.1 -102.8 -371.55 Q-102.25 -369.3 -101.65 -364.75 L-101.65 -364.55 -100.25 -368.3 -99.05 -371.85 -97.6 -371.8 Q-96.75 -371.6 -96.55 -371.1 -95.35 -379.65 -94.1 -384.15 -93.7 -381.1 -93.7 -374.6 L-93.55 -374.6 -93.3 -376.1 -92.65 -377.65 -92.15 -377.65 -91.8 -373.4 -90.6 -378.75 -89.75 -378.9 Q-89.5 -378.45 -89.4 -377.35 L-89.2 -375.45 Q-87.0 -376.1 -86.4 -380.3 -85.85 -384.25 -84.35 -384.3 L-84.35 -390.2 Q-84.4 -393.75 -83.15 -395.85 -80.7 -394.9 -82.55 -390.05 L-82.55 -386.45 Q-81.6 -387.45 -81.4 -388.3 L-81.35 -389.15 -80.5 -389.4 Q-79.6 -389.4 -79.8 -388.1 L-80.2 -385.9 Q-78.5 -385.0 -78.5 -384.05 -78.2 -388.35 -77.2 -390.85 -76.8 -390.9 -76.5 -390.5 L-76.1 -390.0 Q-75.5 -390.25 -75.5 -391.9 L-74.9 -392.4 -74.5 -391.55 -74.1 -390.95 Q-73.85 -391.25 -73.85 -393.4 -73.25 -393.85 -72.45 -394.0 -72.1 -393.6 -72.1 -392.3 L-71.95 -392.3 Q-71.65 -393.1 -71.65 -395.7 L-70.25 -396.0 -68.5 -395.85 -68.5 -392.85 -68.0 -392.85 -67.0 -398.95 Q-66.4 -402.95 -65.4 -404.4 L-64.95 -397.25 M-37.25 -378.35 L-37.35 -378.75 -37.4 -378.1 -37.25 -378.35" fill="#2898f2" fill-rule="evenodd" stroke="none"/>
    <path d="M54.5 -670.25 Q54.95 -669.25 54.95 -667.45 54.95 -663.0 53.9 -660.85 55.2 -655.15 55.25 -647.8 55.3 -640.55 53.65 -625.8 52.7 -616.45 52.85 -604.65 52.95 -597.55 53.65 -583.3 55.05 -556.25 55.55 -540.15 56.35 -516.0 56.05 -496.85 55.6 -461.55 56.0 -391.95 L56.5 -326.05 55.65 -276.1 56.3 -272.05 Q56.3 -262.2 57.1 -257.9 L57.8 -230.95 58.0 -217.15 58.5 -203.3 59.2 -196.6 60.2 -189.85 Q60.35 -188.85 61.05 -186.35 63.75 -181.9 69.2 -178.6 70.85 -177.65 81.6 -175.1 L94.6 -171.95 Q111.2 -166.85 114.35 -164.9 127.2 -157.05 134.35 -146.55 141.05 -136.65 141.05 -126.9 141.05 -120.3 135.05 -108.2 128.05 -94.1 120.4 -92.35 L126.1 -101.75 Q129.1 -106.55 130.15 -110.05 130.45 -111.05 131.9 -114.3 124.0 -108.05 105.8 -102.95 95.8 -100.15 84.4 -98.1 76.2 -95.9 59.9 -93.15 38.5 -89.5 29.65 -89.5 L25.75 -89.95 16.3 -88.55 Q5.4 -87.15 -10.3 -88.55 L-4.4 -87.85 -11.9 -88.05 -19.2 -88.55 -17.85 -89.4 -14.6 -89.05 Q-12.6 -89.05 -10.0 -90.35 L-8.4 -90.0 Q22.35 -92.35 42.5 -94.95 L51.85 -96.95 Q66.15 -100.1 75.25 -102.35 L83.6 -105.85 Q92.25 -109.3 104.3 -113.45 L106.9 -115.5 Q112.45 -119.7 112.45 -121.6 112.45 -123.25 107.0 -125.4 99.85 -128.25 88.8 -128.25 L87.4 -128.25 Q82.95 -127.0 67.4 -125.0 L30.15 -120.65 Q3.75 -117.55 -21.6 -116.75 L-55.2 -115.5 -56.6 -115.15 -87.85 -115.15 -89.5 -115.35 -98.2 -114.8 Q-115.45 -114.8 -150.4 -122.5 L-175.95 -128.35 -179.75 -129.15 -196.5 -130.35 Q-207.5 -130.35 -213.55 -126.6 -217.75 -123.95 -217.75 -121.6 -217.75 -120.25 -214.95 -115.65 -212.25 -111.2 -210.65 -109.6 L-210.7 -109.1 Q-211.05 -108.65 -212.55 -108.65 -213.95 -108.65 -215.6 -109.6 L-217.3 -110.55 -223.45 -111.8 -227.5 -112.45 -230.75 -112.05 -234.75 -111.5 Q-235.95 -110.65 -237.05 -108.0 L-237.8 -105.9 Q-236.85 -103.4 -234.05 -98.9 -230.05 -92.45 -227.25 -89.5 L-227.35 -89.1 Q-227.6 -88.7 -228.2 -88.55 -237.85 -96.25 -241.25 -104.15 -243.75 -110.0 -243.75 -119.45 -243.75 -129.75 -237.75 -139.05 -230.85 -149.75 -218.0 -155.65 -208.75 -161.0 -203.55 -163.3 -194.7 -167.2 -177.4 -169.55 -166.75 -171.0 -163.15 -176.4 L-162.65 -181.8 Q-161.95 -188.85 -161.95 -192.6 L-160.15 -215.8 Q-159.1 -230.0 -159.1 -232.95 L-161.25 -324.05 -163.4 -415.15 -161.5 -513.0 Q-161.0 -544.1 -161.95 -609.4 -161.95 -625.1 -160.85 -639.85 L-160.1 -648.05 Q-160.55 -650.6 -160.55 -657.6 -160.55 -667.7 -156.45 -669.8 -154.8 -670.65 -153.65 -669.1 -152.35 -667.4 -152.35 -663.65 -152.35 -662.9 -153.3 -658.35 L-153.9 -654.85 Q-150.45 -636.65 -150.1 -620.75 L-149.6 -619.4 -147.6 -612.55 Q-145.05 -603.8 -138.7 -598.7 -135.2 -595.9 -127.25 -594.0 L-112.6 -591.1 Q-103.9 -589.35 -99.95 -587.3 L-98.2 -586.25 -96.35 -585.25 -86.65 -578.4 -80.25 -575.9 -63.0 -573.0 Q-51.8 -571.0 -50.45 -570.1 L-48.7 -569.05 Q-42.7 -567.85 -37.7 -564.8 L-33.5 -561.8 Q-21.6 -558.6 -13.85 -558.6 L-9.35 -559.1 Q0.8 -561.8 10.1 -568.25 15.8 -572.2 22.45 -578.45 L33.0 -588.75 Q39.65 -595.05 43.05 -606.95 L45.5 -616.6 46.35 -619.6 45.55 -629.15 Q44.3 -649.0 47.6 -661.05 L47.2 -661.95 Q46.75 -663.2 46.75 -663.9 46.75 -668.25 47.55 -669.9 48.85 -672.55 52.8 -672.2 54.05 -671.25 54.5 -670.25 M31.45 -533.05 L23.95 -522.35 21.0 -518.35 Q18.4 -515.05 15.4 -512.65 L14.2 -511.7 13.55 -510.65 12.25 -508.2 Q11.9 -506.9 11.9 -506.2 11.9 -504.05 14.35 -473.7 16.8 -443.3 16.8 -434.3 16.8 -427.6 16.0 -419.85 L15.85 -419.65 15.9 -413.55 16.6 -403.2 Q18.1 -379.7 18.1 -369.2 L17.1 -352.35 16.65 -344.4 16.05 -318.8 16.1 -310.5 16.7 -302.75 16.75 -302.45 Q17.9 -297.15 20.45 -294.75 22.75 -295.7 26.65 -298.95 L30.4 -305.4 Q35.15 -313.15 41.1 -333.75 L43.15 -340.35 43.05 -342.95 Q43.05 -347.5 44.05 -352.8 44.6 -355.8 45.4 -357.85 L45.7 -392.35 Q46.2 -463.0 45.6 -499.2 45.45 -513.3 45.9 -531.1 45.6 -532.05 45.6 -532.55 L45.6 -532.8 45.5 -533.0 45.25 -533.8 43.7 -536.65 42.9 -537.85 41.3 -539.1 38.65 -539.15 36.35 -538.15 Q33.9 -536.05 31.45 -533.05 M1.55 -511.45 Q-0.75 -519.75 -4.55 -527.1 L-5.35 -527.45 Q-7.9 -532.5 -11.6 -536.4 -14.45 -539.4 -18.05 -541.85 -25.5 -548.65 -32.45 -549.1 L-33.5 -549.9 Q-36.0 -551.35 -43.65 -552.25 L-55.65 -553.45 Q-62.3 -552.55 -67.0 -550.0 L-68.15 -549.35 -73.2 -547.05 Q-78.0 -544.6 -81.45 -542.5 L-84.7 -540.55 Q-106.05 -517.4 -113.65 -488.95 -119.0 -469.0 -119.0 -435.85 L-118.9 -370.6 -118.75 -349.35 -118.75 -348.7 -118.75 -347.9 -118.7 -336.4 -118.35 -332.6 Q-116.4 -310.1 -116.4 -305.4 -116.4 -296.65 -117.05 -286.95 L-117.8 -278.9 Q-118.15 -273.85 -117.95 -271.0 L-117.95 -228.65 -117.6 -230.45 Q-117.05 -223.5 -116.6 -213.75 L-116.15 -235.85 -115.35 -235.85 Q-114.7 -216.4 -114.05 -178.95 L-113.7 -158.5 -113.3 -157.6 -111.5 -153.25 Q-108.55 -151.15 -103.8 -149.3 L-101.9 -148.5 -96.35 -147.45 -9.05 -147.0 -3.4 -147.5 Q-2.45 -147.85 -1.9 -148.55 L-1.05 -147.75 2.1 -147.75 Q8.9 -151.2 11.9 -154.45 L11.9 -155.4 Q11.9 -155.85 13.45 -158.0 L14.35 -159.75 14.55 -161.4 15.0 -161.95 15.2 -163.8 Q15.3 -165.15 16.05 -167.45 L17.05 -171.0 18.45 -178.6 19.8 -186.2 21.35 -194.0 22.7 -201.6 22.7 -202.75 21.45 -204.15 Q20.4 -205.1 19.35 -205.15 L16.55 -201.5 16.0 -200.8 16.0 -201.65 14.95 -200.8 Q11.05 -202.9 10.45 -207.75 L10.6 -216.3 10.85 -225.5 10.2 -225.7 9.25 -225.5 7.6 -224.85 Q8.0 -225.3 8.0 -226.0 L7.95 -226.85 7.7 -228.35 7.2 -228.1 7.2 -228.5 6.9 -233.95 Q6.35 -238.75 5.15 -240.45 L5.0 -241.8 4.5 -246.45 4.45 -252.75 3.95 -279.45 Q3.15 -280.95 2.6 -282.7 L2.6 -287.3 Q2.35 -292.25 2.65 -302.9 L2.5 -307.2 3.35 -298.2 Q4.2 -293.15 5.25 -290.15 6.4 -286.7 8.3 -285.15 L8.85 -286.75 Q10.4 -290.9 10.6 -292.15 L11.4 -297.2 11.4 -297.5 11.65 -315.1 11.85 -325.95 Q11.65 -334.9 10.7 -350.45 L9.55 -368.8 Q9.55 -382.4 10.8 -403.3 L11.9 -418.4 11.9 -423.65 Q11.9 -443.6 9.3 -463.35 6.95 -481.05 6.7 -493.85 5.65 -496.2 4.8 -499.0 3.6 -503.0 1.55 -511.45 M5.7 -358.65 L5.75 -357.75 Q5.75 -357.0 5.25 -356.3 4.7 -357.75 4.7 -360.15 L5.5 -360.15 5.7 -358.65 M5.8 -322.35 Q5.85 -321.0 5.5 -319.95 L4.7 -319.95 4.45 -321.55 4.7 -324.8 5.5 -324.8 5.8 -322.35 M4.7 -329.7 L3.65 -329.3 Q3.4 -330.05 3.4 -333.35 3.4 -335.7 3.65 -337.55 L4.45 -337.55 Q5.15 -334.15 4.7 -329.7 M6.25 -309.9 Q6.75 -306.65 7.45 -304.6 L6.65 -303.05 Q5.75 -302.25 4.7 -302.25 L4.25 -303.4 4.2 -305.9 Q4.2 -308.8 4.7 -315.1 L5.5 -315.1 6.25 -309.9 M28.8 -224.15 Q28.55 -221.7 27.7 -217.9 L26.25 -211.3 26.35 -207.2 Q26.35 -192.2 22.25 -172.7 L22.25 -172.55 Q23.05 -169.75 26.6 -168.7 L33.95 -175.0 Q35.9 -177.55 38.2 -184.7 39.25 -186.8 40.95 -187.9 L43.55 -199.5 Q44.05 -201.75 44.7 -203.65 L44.75 -206.35 45.6 -223.9 44.8 -226.15 43.8 -229.2 40.45 -230.9 Q39.1 -231.5 38.2 -232.0 32.3 -229.0 28.8 -224.15 M22.35 -209.1 L22.2 -209.95 21.8 -209.1 22.35 -209.1 M29.35 -131.55 Q25.55 -130.7 23.65 -129.55 L23.2 -129.35 22.7 -129.45 16.55 -128.75 -1.4 -126.95 -1.75 -126.75 -7.85 -126.65 Q-13.9 -125.15 -16.0 -125.15 L-17.75 -125.2 -17.95 -124.95 -25.65 -124.65 -44.1 -123.75 -44.05 -123.95 Q-44.85 -124.65 -49.95 -124.9 L-51.9 -124.25 -53.7 -124.05 Q-54.65 -124.7 -58.5 -125.15 L-106.3 -125.15 -109.25 -125.65 -122.45 -128.2 -122.75 -128.25 -123.1 -128.5 -123.2 -128.4 -123.4 -128.45 Q-128.65 -129.95 -133.6 -130.45 L-133.9 -130.95 -134.9 -131.55 -135.25 -131.7 -149.25 -134.7 Q-163.55 -138.25 -172.15 -138.5 L-173.6 -137.5 -173.1 -137.05 Q-173.6 -136.4 -173.6 -135.35 -172.95 -134.7 -170.45 -133.6 -168.6 -132.75 -167.65 -132.55 L-166.4 -131.5 -164.0 -131.1 Q-139.25 -126.95 -135.1 -126.55 L-135.05 -126.55 -134.95 -126.65 -134.9 -126.55 -126.25 -125.15 -119.45 -124.45 -117.7 -124.65 -110.4 -123.8 -89.25 -121.55 -88.7 -121.95 -83.35 -121.6 -73.7 -121.2 -63.35 -121.6 -57.45 -121.95 -55.2 -121.6 -54.05 -121.65 -51.0 -121.7 -49.95 -121.6 -47.35 -121.9 -34.1 -122.75 -24.45 -122.75 -10.8 -123.6 -10.8 -123.5 -7.45 -123.25 -0.75 -124.3 -0.5 -124.35 12.4 -125.45 25.05 -127.0 26.2 -127.5 Q29.1 -127.55 35.85 -129.0 L40.8 -130.15 42.6 -130.3 51.2 -132.4 Q67.2 -136.55 69.45 -139.15 L70.15 -140.6 64.75 -139.6 Q63.1 -138.6 60.7 -137.85 52.6 -135.75 45.85 -133.65 L39.7 -133.1 Q35.05 -131.55 29.35 -131.55 M-148.4 -547.35 Q-150.05 -544.7 -151.05 -541.75 -152.25 -538.1 -153.05 -532.15 L-153.2 -530.8 -152.0 -486.0 -150.1 -414.4 -151.05 -373.7 -149.85 -367.55 -147.35 -355.05 -144.7 -347.75 -142.95 -345.85 Q-138.4 -340.85 -131.95 -338.15 L-127.95 -337.95 Q-124.9 -339.55 -123.35 -342.7 L-123.25 -371.85 -122.85 -438.9 Q-122.55 -471.25 -117.2 -492.7 -113.5 -507.6 -104.0 -523.6 L-104.05 -524.7 Q-104.05 -525.85 -102.35 -529.1 -100.65 -532.4 -100.65 -533.5 -100.65 -535.3 -102.95 -539.25 L-105.55 -541.5 Q-108.05 -543.8 -115.2 -546.95 -125.4 -551.45 -134.65 -551.45 -140.75 -551.45 -148.4 -547.35 M-153.4 -544.45 L-153.55 -544.35 -153.55 -544.05 -153.4 -544.45 M-140.35 -276.65 L-146.75 -272.7 -147.05 -272.15 Q-149.0 -268.45 -150.75 -263.3 L-152.35 -258.2 -151.85 -226.4 -151.4 -201.65 Q-149.45 -195.85 -147.4 -192.0 -146.2 -189.75 -144.7 -187.75 L-144.6 -187.95 -141.8 -186.3 -135.7 -182.55 -130.55 -182.8 Q-127.3 -186.35 -125.45 -190.75 L-123.7 -235.0 -122.25 -264.7 Q-122.5 -267.45 -123.0 -269.35 -124.4 -274.5 -128.55 -277.6 L-136.55 -278.2 -137.9 -278.15 -140.35 -276.65 M-207.65 -108.15 L-206.7 -108.15 Q-194.95 -101.0 -139.4 -93.8 L-138.8 -93.55 -137.0 -93.5 -135.45 -93.3 -132.8 -92.45 Q-130.05 -91.2 -124.65 -90.95 L-119.8 -90.95 -115.9 -90.0 -115.85 -89.9 -122.1 -89.6 -128.0 -89.65 -131.55 -90.25 -143.15 -91.0 -153.3 -91.9 Q-161.05 -92.7 -165.05 -94.25 L-169.25 -95.0 Q-173.2 -95.7 -173.35 -95.95 -182.8 -97.65 -192.5 -100.65 -202.45 -103.75 -207.8 -106.75 L-207.65 -108.15 M-81.7 -90.25 Q-72.4 -90.25 -71.7 -89.5 L-59.75 -90.0 -45.75 -90.25 Q-41.0 -89.05 -39.15 -89.05 L-36.6 -89.15 -35.85 -89.3 Q-35.15 -89.45 -34.55 -89.7 L-34.4 -89.5 -39.95 -88.4 -46.15 -87.6 -58.05 -88.15 Q-68.9 -88.65 -77.25 -88.55 -78.65 -89.4 -81.15 -89.65 L-81.7 -90.25" fill="#a0f7fe" fill-rule="evenodd" stroke="none"/>
  </g>
</svg>
