<?xml version="1.0" encoding="UTF-8" standalone="no"?>
<svg xmlns:ffdec="https://www.free-decompiler.com/flash" xmlns:xlink="http://www.w3.org/1999/xlink" ffdec:objectType="shape" height="560.55px" width="149.95px" xmlns="http://www.w3.org/2000/svg">
  <g transform="matrix(1.0, 0.0, 0.0, 1.0, 125.25, 666.25)">
    <path d="M-125.25 -664.95 L-114.7 -665.5 Q-105.6 -666.05 -99.15 -662.9 L-27.0 -662.55 -12.95 -662.15 0.25 -662.0 11.2 -662.5 21.5 -662.7 23.65 -662.9 23.65 -424.0 24.7 -424.0 24.7 -117.95 23.65 -117.75 Q-14.55 -110.25 -45.1 -110.25 -54.6 -110.25 -78.25 -114.6 -101.3 -118.8 -125.25 -124.95 L-125.25 -664.95 M-3.45 -171.2 L-2.05 -180.45 0.35 -196.05 0.35 -224.6 Q1.1 -232.15 2.4 -254.0 3.9 -278.9 3.9 -288.55 3.9 -322.45 -5.9 -398.15 -14.55 -464.85 -19.65 -486.65 -20.1 -487.3 -23.75 -497.15 -27.8 -507.9 -31.55 -514.6 -44.15 -537.2 -59.5 -527.6 -71.6 -520.05 -75.15 -504.45 -76.1 -500.3 -77.25 -491.05 -78.3 -482.4 -79.45 -478.1 -84.5 -458.85 -88.3 -428.45 L-94.5 -378.75 -94.5 -314.1 Q-96.6 -300.65 -97.1 -286.2 L-97.35 -259.7 -97.2 -234.75 Q-96.85 -223.2 -95.2 -206.3 L-95.2 -176.65 Q-94.3 -174.95 -93.65 -167.9 L-93.6 -167.35 -93.05 -163.55 Q-92.35 -159.7 -91.1 -157.0 -94.5 -156.45 -96.15 -155.6 -98.6 -154.3 -98.6 -150.9 L-98.65 -148.95 Q-98.45 -147.7 -97.0 -146.85 -92.95 -144.45 -77.6 -144.45 L-72.85 -144.5 Q-64.95 -142.6 -53.9 -142.6 -35.65 -142.6 -23.7 -146.85 -14.45 -146.2 -6.7 -144.55 L1.15 -142.6 6.0 -141.75 Q7.85 -141.75 9.95 -143.2 12.25 -144.8 12.25 -146.7 12.25 -152.35 -9.55 -155.5 -6.15 -159.05 -4.95 -163.3 L-4.6 -164.75 -3.75 -169.4 -3.6 -170.45 -3.45 -171.2" fill="#989e8d" fill-rule="evenodd" stroke="none"/>
    <path d="M-125.25 -664.95 L-125.25 -666.25 -121.2 -666.05 -98.8 -665.05 -62.75 -664.8 Q-26.55 -664.55 -25.85 -664.3 L-12.4 -664.4 1.7 -664.8 22.0 -665.15 23.65 -665.35 23.65 -662.9 21.5 -662.7 11.2 -662.5 0.25 -662.0 -12.95 -662.15 -27.0 -662.55 -99.15 -662.9 Q-105.6 -666.05 -114.7 -665.5 L-125.25 -664.95 M24.7 -117.95 L24.7 -112.7 23.65 -112.5 Q-11.7 -105.7 -45.1 -105.7 -58.7 -105.7 -95.5 -113.05 L-125.25 -119.35 -125.25 -124.95 Q-101.3 -118.8 -78.25 -114.6 -54.6 -110.25 -45.1 -110.25 -14.55 -110.25 23.65 -117.75 L24.7 -117.95" fill="#66685b" fill-rule="evenodd" stroke="none"/>
    <path d="M-93.6 -167.35 L-93.65 -167.9 Q-94.3 -174.95 -95.2 -176.65 L-95.2 -206.3 Q-96.85 -223.2 -97.2 -234.75 L-97.35 -259.7 -97.1 -286.2 Q-96.6 -300.65 -94.5 -314.1 L-94.5 -378.75 -88.3 -428.45 Q-84.5 -458.85 -79.45 -478.1 -78.3 -482.4 -77.25 -491.05 -76.1 -500.3 -75.15 -504.45 -71.6 -520.05 -59.5 -527.6 -44.15 -537.2 -31.55 -514.6 -27.8 -507.9 -23.75 -497.15 -20.1 -487.3 -19.65 -486.65 -14.55 -464.85 -5.9 -398.15 3.9 -322.45 3.9 -288.55 3.9 -278.9 2.4 -254.0 1.1 -232.15 0.35 -224.6 L0.35 -196.05 -2.05 -180.45 -3.45 -171.2 -28.5 -171.2 Q-28.8 -174.45 -29.2 -176.65 L-29.2 -207.35 Q-28.8 -214.35 -28.8 -226.25 L-28.7 -245.05 -28.7 -278.15 Q-28.0 -280.9 -27.75 -286.35 -27.45 -291.9 -27.6 -298.5 -27.6 -310.2 -29.25 -323.05 -30.9 -335.9 -30.9 -352.2 -30.9 -364.0 -29.55 -376.4 -28.2 -388.85 -28.2 -392.45 -28.2 -400.4 -30.0 -407.45 -31.8 -414.5 -31.8 -421.4 -31.8 -430.25 -32.75 -466.7 L-32.7 -478.3 Q-32.6 -485.6 -32.75 -489.6 -32.95 -494.3 -34.05 -500.75 -36.75 -507.3 -40.0 -506.45 -41.05 -506.2 -41.7 -505.55 -42.95 -504.45 -42.95 -502.1 L-42.4 -494.8 Q-43.75 -496.3 -45.25 -496.6 -47.15 -497.0 -49.3 -495.6 L-49.55 -495.45 -51.5 -493.8 -52.4 -492.75 -53.55 -491.2 -53.7 -491.0 -55.45 -488.05 -56.15 -486.65 Q-54.4 -497.3 -54.0 -502.1 L-53.9 -504.5 Q-53.9 -513.6 -58.55 -509.05 -60.3 -507.35 -61.75 -504.5 -63.25 -501.6 -63.3 -499.8 -63.45 -495.75 -64.05 -491.05 -64.7 -486.0 -65.55 -482.55 -66.7 -477.85 -68.55 -463.4 L-70.2 -448.5 -69.5 -440.85 -68.85 -433.2 -71.85 -402.95 Q-72.05 -401.2 -71.7 -399.6 L-71.55 -399.0 -71.65 -396.0 Q-71.65 -382.35 -73.0 -365.4 -74.35 -348.45 -74.35 -337.45 L-72.85 -311.65 -75.25 -266.35 Q-75.25 -259.55 -73.45 -247.2 -71.65 -234.85 -71.65 -227.2 -71.65 -218.35 -73.6 -198.85 -75.6 -179.35 -75.6 -171.15 L-75.6 -170.9 -89.4 -169.9 -89.4 -169.45 Q-87.75 -168.75 -75.95 -168.35 L-75.25 -168.3 -75.6 -168.3 -75.6 -168.05 -74.35 -168.1 -93.6 -167.35 M-23.7 -146.85 Q-35.65 -142.6 -53.9 -142.6 -64.95 -142.6 -72.85 -144.5 L-53.4 -145.9 -37.35 -147.35 -23.7 -146.85" fill="#42433d" fill-rule="evenodd" stroke="none"/>
    <path d="M-9.55 -155.5 Q12.25 -152.35 12.25 -146.7 12.25 -144.8 9.95 -143.2 7.85 -141.75 6.0 -141.75 L1.15 -142.6 -6.7 -144.55 Q-14.45 -146.2 -23.7 -146.85 L-37.35 -147.35 -53.4 -145.9 -72.85 -144.5 -77.6 -144.45 Q-92.95 -144.45 -97.0 -146.85 -98.45 -147.7 -98.65 -148.95 L-98.6 -150.9 Q-98.6 -154.3 -96.15 -155.6 -94.5 -156.45 -91.1 -157.0 L-82.6 -157.75 -61.4 -157.9 Q-34.8 -158.85 -12.45 -155.9 L-9.55 -155.5" fill="#0fb8f0" fill-rule="evenodd" stroke="none"/>
    <path d="M-75.6 -170.9 L-75.6 -171.15 Q-75.6 -179.35 -73.6 -198.85 -71.65 -218.35 -71.65 -227.2 -71.65 -234.85 -73.45 -247.2 -75.25 -259.55 -75.25 -266.35 L-72.85 -311.65 -74.35 -337.45 Q-74.35 -348.45 -73.0 -365.4 -71.65 -382.35 -71.65 -396.0 L-71.55 -399.0 -71.7 -399.6 Q-72.05 -401.2 -71.85 -402.95 L-68.85 -433.2 -69.5 -440.85 -70.2 -448.5 -68.55 -463.4 Q-66.7 -477.85 -65.55 -482.55 -64.7 -486.0 -64.05 -491.05 -63.45 -495.75 -63.3 -499.8 -63.25 -501.6 -61.75 -504.5 -60.3 -507.35 -58.55 -509.05 -53.9 -513.6 -53.9 -504.5 L-54.0 -502.1 -54.7 -503.25 Q-57.25 -506.95 -60.05 -502.8 -61.2 -501.1 -60.8 -497.9 L-60.2 -492.9 Q-59.8 -481.15 -61.3 -470.7 -63.0 -459.2 -63.0 -451.7 -63.0 -445.1 -62.0 -438.1 -61.05 -431.1 -61.05 -421.1 L-61.2 -411.2 -61.25 -408.75 -63.05 -382.25 Q-66.2 -336.5 -66.2 -330.55 -66.2 -300.7 -64.25 -269.3 -62.3 -242.9 -62.3 -238.05 -62.3 -227.2 -64.25 -218.8 -66.2 -210.35 -66.2 -207.35 L-67.0 -187.65 Q-67.0 -183.2 -66.15 -177.2 L-65.35 -171.05 -65.35 -170.95 -75.15 -170.9 -75.6 -170.9 M-51.5 -493.8 L-49.55 -495.45 -49.3 -495.6 -49.2 -494.5 -51.5 -493.8 M-41.7 -505.55 Q-41.05 -506.2 -40.0 -506.45 -36.75 -507.3 -34.05 -500.75 -32.95 -494.3 -32.75 -489.6 -32.6 -485.6 -32.7 -478.3 L-32.75 -466.7 Q-31.8 -430.25 -31.8 -421.4 -31.8 -414.5 -30.0 -407.45 -28.2 -400.4 -28.2 -392.45 -28.2 -388.85 -29.55 -376.4 -30.9 -364.0 -30.9 -352.2 -30.9 -335.9 -29.25 -323.05 -27.6 -310.2 -27.6 -298.5 -27.45 -291.9 -27.75 -286.35 -28.0 -280.9 -28.7 -278.15 L-28.7 -245.05 -28.8 -226.25 Q-28.8 -214.35 -29.2 -207.35 L-29.2 -176.65 Q-28.8 -174.45 -28.5 -171.2 L-34.8 -171.15 -34.05 -171.15 -34.3 -175.75 -34.3 -227.5 Q-37.05 -273.0 -38.65 -336.15 L-38.8 -342.75 -37.8 -351.95 -36.05 -375.9 Q-36.05 -380.6 -38.65 -399.15 L-40.25 -411.0 -40.6 -427.65 -40.1 -433.5 -39.3 -442.15 -38.7 -448.4 -39.15 -463.85 Q-39.65 -479.4 -40.1 -487.85 -40.6 -497.55 -41.7 -505.55" fill="#373832" fill-rule="evenodd" stroke="none"/>
    <path d="M-54.0 -502.1 Q-54.4 -497.3 -56.15 -486.65 L-55.45 -488.05 Q-55.65 -482.95 -55.95 -480.35 -56.8 -472.3 -56.85 -456.8 L-56.75 -441.8 -55.35 -411.6 Q-55.35 -406.4 -56.55 -390.0 -57.75 -373.65 -57.75 -370.8 -57.75 -367.45 -58.9 -351.25 -60.05 -335.05 -60.05 -329.4 -60.05 -305.0 -57.15 -286.5 L-55.2 -274.2 Q-54.3 -267.85 -54.3 -262.1 -54.3 -249.3 -56.15 -223.9 -58.05 -198.5 -58.05 -185.75 -58.05 -174.15 -57.65 -171.15 L-57.6 -171.0 -65.35 -170.95 -65.35 -171.05 -66.15 -177.2 Q-67.0 -183.2 -67.0 -187.65 L-66.2 -207.35 Q-66.2 -210.35 -64.25 -218.8 -62.3 -227.2 -62.3 -238.05 -62.3 -242.9 -64.25 -269.3 -66.2 -300.7 -66.2 -330.55 -66.2 -336.5 -63.05 -382.25 L-61.25 -408.75 -61.2 -411.2 -61.05 -421.1 Q-61.05 -431.1 -62.0 -438.1 -63.0 -445.1 -63.0 -451.7 -63.0 -459.2 -61.3 -470.7 -59.8 -481.15 -60.2 -492.9 L-60.8 -497.9 Q-61.2 -501.1 -60.05 -502.8 -57.25 -506.95 -54.7 -503.25 L-54.0 -502.1 M-45.25 -496.6 Q-43.75 -496.3 -42.4 -494.8 L-42.95 -502.1 Q-42.95 -504.45 -41.7 -505.55 -40.6 -497.55 -40.1 -487.85 -39.65 -479.4 -39.15 -463.85 L-38.7 -448.4 -39.3 -442.15 -40.1 -433.5 -40.6 -427.65 -40.25 -411.0 -38.65 -399.15 Q-36.05 -380.6 -36.05 -375.9 L-37.8 -351.95 -38.8 -342.75 -38.65 -336.15 Q-37.05 -273.0 -34.3 -227.5 L-34.3 -175.75 -34.05 -171.15 -34.8 -171.15 -41.45 -171.1 -41.1 -184.95 Q-41.1 -191.6 -41.7 -195.05 L-41.7 -219.65 -43.8 -257.45 Q-45.75 -294.05 -45.75 -303.15 L-44.85 -324.3 -43.95 -345.45 Q-43.95 -351.75 -45.9 -382.35 L-45.9 -414.65 -46.65 -429.35 -47.0 -439.05 Q-47.0 -445.05 -45.55 -462.45 -44.1 -479.9 -44.1 -487.2 -44.1 -491.9 -45.25 -496.6" fill="#2e2f2b" fill-rule="evenodd" stroke="none"/>
    <path d="M-55.45 -488.05 L-53.7 -491.0 -53.55 -491.2 -52.4 -492.75 -51.5 -493.8 -49.2 -494.5 -49.3 -495.6 Q-47.15 -497.0 -45.25 -496.6 -44.1 -491.9 -44.1 -487.2 -44.1 -479.9 -45.55 -462.45 -47.0 -445.05 -47.0 -439.05 L-46.65 -429.35 -45.9 -414.65 -45.9 -382.35 Q-43.95 -351.75 -43.95 -345.45 L-44.85 -324.3 -45.75 -303.15 Q-45.75 -294.05 -43.8 -257.45 L-41.7 -219.65 -41.7 -195.05 Q-41.1 -191.6 -41.1 -184.95 L-41.45 -171.1 -57.6 -171.0 -57.65 -171.15 Q-58.05 -174.15 -58.05 -185.75 -58.05 -198.5 -56.15 -223.9 -54.3 -249.3 -54.3 -262.1 -54.3 -267.85 -55.2 -274.2 L-57.15 -286.5 Q-60.05 -305.0 -60.05 -329.4 -60.05 -335.05 -58.9 -351.25 -57.75 -367.45 -57.75 -370.8 -57.75 -373.65 -56.55 -390.0 -55.35 -406.4 -55.35 -411.6 L-56.75 -441.8 -56.85 -456.8 Q-56.8 -472.3 -55.95 -480.35 -55.65 -482.95 -55.45 -488.05" fill="#282826" fill-rule="evenodd" stroke="none"/>
    <path d="M-3.45 -171.2 L-3.6 -170.45 -3.75 -169.4 Q-63.35 -167.1 -83.35 -167.1 L-87.3 -167.1 Q-85.55 -165.75 -82.3 -164.75 L-83.35 -164.75 -93.05 -163.55 -93.6 -167.35 -74.35 -168.1 -73.25 -168.2 -72.9 -168.2 -75.05 -168.3 -75.25 -168.3 -75.95 -168.35 Q-87.75 -168.75 -89.4 -169.45 L-89.4 -169.9 -75.6 -170.9 -75.15 -170.9 -65.35 -170.95 -57.6 -171.0 -41.45 -171.1 -34.8 -171.15 -28.5 -171.2 -3.45 -171.2" fill="#14507c" fill-rule="evenodd" stroke="none"/>
    <path d="M-4.95 -163.3 Q-6.15 -159.05 -9.55 -155.5 L-12.45 -155.9 Q-34.8 -158.85 -61.4 -157.9 L-82.6 -157.75 -91.1 -157.0 Q-92.35 -159.7 -93.05 -163.55 L-83.35 -164.75 -82.3 -164.75 -17.9 -164.75 -4.95 -163.3" fill="#2898f2" fill-rule="evenodd" stroke="none"/>
    <path d="M-3.75 -169.4 L-4.6 -164.75 -4.95 -163.3 -17.9 -164.75 -82.3 -164.75 Q-85.55 -165.75 -87.3 -167.1 L-83.35 -167.1 Q-63.35 -167.1 -3.75 -169.4" fill="#1e76b7" fill-rule="evenodd" stroke="none"/>
    <path d="M-74.35 -168.1 L-75.6 -168.05 -75.6 -168.3 -75.25 -168.3 -75.05 -168.3 -72.9 -168.2 -73.25 -168.2 -74.35 -168.1" fill="#2b2c27" fill-rule="evenodd" stroke="none"/>
  </g>
</svg>
