<?xml version="1.0" encoding="UTF-8" standalone="no"?>
<svg xmlns:ffdec="https://www.free-decompiler.com/flash" xmlns:xlink="http://www.w3.org/1999/xlink" ffdec:objectType="shape" height="481.05px" width="159.35px" xmlns="http://www.w3.org/2000/svg">
  <g transform="matrix(1.0, 0.0, 0.0, 1.0, 133.35, 586.75)">
    <path d="M-3.45 -171.2 L-2.05 -180.45 0.35 -196.05 0.35 -224.6 Q1.1 -232.15 2.4 -254.0 3.9 -278.9 3.9 -288.55 3.9 -322.45 -5.9 -398.15 -14.55 -464.85 -19.65 -486.65 -20.1 -487.3 -23.75 -497.15 -27.8 -507.9 -31.55 -514.6 -44.15 -537.2 -59.5 -527.6 -71.6 -520.05 -75.15 -504.45 -76.1 -500.3 -77.25 -491.05 -78.3 -482.4 -79.45 -478.1 -84.5 -458.85 -88.3 -428.45 L-94.5 -378.75 -94.5 -314.1 Q-96.6 -300.65 -97.1 -286.2 L-97.35 -259.7 -97.2 -234.75 Q-96.85 -223.2 -95.2 -206.3 L-95.2 -176.65 Q-94.3 -174.95 -93.65 -167.9 L-93.6 -167.35 -93.05 -163.55 Q-92.35 -159.7 -91.1 -157.0 -94.5 -156.45 -96.15 -155.6 -98.6 -154.3 -98.6 -150.9 L-98.65 -148.95 Q-98.45 -147.7 -97.0 -146.85 -97.65 -145.65 -97.65 -143.7 -97.65 -139.55 -90.95 -137.55 -87.9 -136.6 -83.3 -135.9 -71.05 -132.8 -40.65 -132.8 -5.55 -132.8 5.25 -136.5 9.15 -137.8 10.2 -139.8 10.6 -140.55 10.6 -142.9 L10.6 -143.65 Q12.25 -145.05 12.25 -146.7 12.25 -152.35 -9.55 -155.5 -6.15 -159.05 -4.95 -163.3 L-4.6 -164.75 -3.75 -169.4 -3.6 -170.45 -3.45 -171.2 M26.0 -118.25 Q-13.6 -110.25 -45.1 -110.25 -54.6 -110.25 -78.25 -114.6 -104.15 -119.3 -131.15 -126.5 L-133.35 -127.1 -133.35 -586.75 26.0 -586.75 26.0 -118.25" fill="#989e8d" fill-rule="evenodd" stroke="none"/>
    <path d="M-93.6 -167.35 L-93.65 -167.9 Q-94.3 -174.95 -95.2 -176.65 L-95.2 -206.3 Q-96.85 -223.2 -97.2 -234.75 L-97.35 -259.7 -97.1 -286.2 Q-96.6 -300.65 -94.5 -314.1 L-94.5 -378.75 -88.3 -428.45 Q-84.5 -458.85 -79.45 -478.1 -78.3 -482.4 -77.25 -491.05 -76.1 -500.3 -75.15 -504.45 -71.6 -520.05 -59.5 -527.6 -44.15 -537.2 -31.55 -514.6 -27.8 -507.9 -23.75 -497.15 -20.1 -487.3 -19.65 -486.65 -14.55 -464.85 -5.9 -398.15 3.9 -322.45 3.9 -288.55 3.9 -278.9 2.4 -254.0 1.1 -232.15 0.35 -224.6 L0.35 -196.05 -2.05 -180.45 -3.45 -171.2 -28.5 -171.2 Q-28.8 -174.45 -29.2 -176.65 L-29.2 -207.35 Q-28.8 -214.35 -28.8 -226.25 L-28.7 -245.05 -28.7 -278.15 Q-28.0 -280.9 -27.75 -286.35 -27.45 -291.9 -27.6 -298.5 -27.6 -310.2 -29.25 -323.05 -30.9 -335.9 -30.9 -352.2 -30.9 -364.0 -29.55 -376.4 -28.2 -388.85 -28.2 -392.45 -28.2 -400.4 -30.0 -407.45 -31.8 -414.5 -31.8 -421.4 -31.8 -430.25 -32.75 -466.7 L-32.7 -478.3 Q-32.6 -485.6 -32.75 -489.6 -32.95 -494.3 -34.05 -500.75 -36.75 -507.3 -40.0 -506.45 -41.05 -506.2 -41.7 -505.55 -42.95 -504.45 -42.95 -502.1 L-42.4 -494.8 Q-43.75 -496.3 -45.25 -496.6 -47.15 -497.0 -49.3 -495.6 L-49.55 -495.45 -51.5 -493.8 -52.4 -492.75 -53.55 -491.2 -53.7 -491.0 -55.45 -488.05 -56.15 -486.65 Q-54.4 -497.3 -54.0 -502.1 L-53.9 -504.5 Q-53.9 -513.6 -58.55 -509.05 -60.3 -507.35 -61.75 -504.5 -63.25 -501.6 -63.3 -499.8 -63.45 -495.75 -64.05 -491.05 -64.7 -486.0 -65.55 -482.55 -66.7 -477.85 -68.55 -463.4 L-70.2 -448.5 -69.5 -440.85 -68.85 -433.2 -71.85 -402.95 Q-72.05 -401.2 -71.7 -399.6 L-71.55 -399.0 -71.65 -396.0 Q-71.65 -382.35 -73.0 -365.4 -74.35 -348.45 -74.35 -337.45 L-72.85 -311.65 -75.25 -266.35 Q-75.25 -259.55 -73.45 -247.2 -71.65 -234.85 -71.65 -227.2 -71.65 -218.35 -73.6 -198.85 -75.6 -179.35 -75.6 -171.15 L-75.6 -170.9 -89.4 -169.9 -89.4 -169.45 Q-87.75 -168.75 -75.95 -168.35 L-75.25 -168.3 -75.6 -168.3 -75.6 -168.05 -74.35 -168.1 -93.6 -167.35" fill="#42433d" fill-rule="evenodd" stroke="none"/>
    <path d="M26.0 -118.25 L26.0 -112.95 Q-10.6 -105.7 -45.1 -105.7 -58.7 -105.7 -95.5 -113.05 -117.1 -117.35 -133.35 -121.25 L-133.35 -127.1 -131.15 -126.5 Q-104.15 -119.3 -78.25 -114.6 -54.6 -110.25 -45.1 -110.25 -13.6 -110.25 26.0 -118.25" fill="#66685b" fill-rule="evenodd" stroke="none"/>
    <path d="M-9.55 -155.5 Q12.25 -152.35 12.25 -146.7 12.25 -145.05 10.6 -143.65 L10.6 -142.9 Q10.6 -140.55 10.2 -139.8 9.15 -137.8 5.25 -136.5 -5.55 -132.8 -40.65 -132.8 -71.05 -132.8 -83.3 -135.9 -87.9 -136.6 -90.95 -137.55 -97.65 -139.55 -97.65 -143.7 -97.65 -145.65 -97.0 -146.85 -98.45 -147.7 -98.65 -148.95 L-98.6 -150.9 Q-98.6 -154.3 -96.15 -155.6 -94.5 -156.45 -91.1 -157.0 L-82.6 -157.75 -61.4 -157.9 Q-34.8 -158.85 -12.45 -155.9 L-9.55 -155.5" fill="#0fb8f0" fill-rule="evenodd" stroke="none"/>
    <path d="M-75.6 -170.9 L-75.6 -171.15 Q-75.6 -179.35 -73.6 -198.85 -71.65 -218.35 -71.65 -227.2 -71.65 -234.85 -73.45 -247.2 -75.25 -259.55 -75.25 -266.35 L-72.85 -311.65 -74.35 -337.45 Q-74.35 -348.45 -73.0 -365.4 -71.65 -382.35 -71.65 -396.0 L-71.55 -399.0 -71.7 -399.6 Q-72.05 -401.2 -71.85 -402.95 L-68.85 -433.2 -69.5 -440.85 -70.2 -448.5 -68.55 -463.4 Q-66.7 -477.85 -65.55 -482.55 -64.7 -486.0 -64.05 -491.05 -63.45 -495.75 -63.3 -499.8 -63.25 -501.6 -61.75 -504.5 -60.3 -507.35 -58.55 -509.05 -53.9 -513.6 -53.9 -504.5 L-54.0 -502.1 -54.7 -503.25 Q-57.25 -506.95 -60.05 -502.8 -61.2 -501.1 -60.8 -497.9 L-60.2 -492.9 Q-59.8 -481.15 -61.3 -470.7 -63.0 -459.2 -63.0 -451.7 -63.0 -445.1 -62.0 -438.1 -61.05 -431.1 -61.05 -421.1 L-61.2 -411.2 -61.25 -408.75 -63.05 -382.25 Q-66.2 -336.5 -66.2 -330.55 -66.2 -300.7 -64.25 -269.3 -62.3 -242.9 -62.3 -238.05 -62.3 -227.2 -64.25 -218.8 -66.2 -210.35 -66.2 -207.35 L-67.0 -187.65 Q-67.0 -183.2 -66.15 -177.2 L-65.35 -171.05 -65.35 -170.95 -75.15 -170.9 -75.6 -170.9 M-51.5 -493.8 L-49.55 -495.45 -49.3 -495.6 -49.2 -494.5 -51.5 -493.8 M-41.7 -505.55 Q-41.05 -506.2 -40.0 -506.45 -36.75 -507.3 -34.05 -500.75 -32.95 -494.3 -32.75 -489.6 -32.6 -485.6 -32.7 -478.3 L-32.75 -466.7 Q-31.8 -430.25 -31.8 -421.4 -31.8 -414.5 -30.0 -407.45 -28.2 -400.4 -28.2 -392.45 -28.2 -388.85 -29.55 -376.4 -30.9 -364.0 -30.9 -352.2 -30.9 -335.9 -29.25 -323.05 -27.6 -310.2 -27.6 -298.5 -27.45 -291.9 -27.75 -286.35 -28.0 -280.9 -28.7 -278.15 L-28.7 -245.05 -28.8 -226.25 Q-28.8 -214.35 -29.2 -207.35 L-29.2 -176.65 Q-28.8 -174.45 -28.5 -171.2 L-34.8 -171.15 -34.05 -171.15 -34.3 -175.75 -34.3 -227.5 Q-37.05 -273.0 -38.65 -336.15 L-38.8 -342.75 -37.8 -351.95 -36.05 -375.9 Q-36.05 -380.6 -38.65 -399.15 L-40.25 -411.0 -40.6 -427.65 -40.1 -433.5 -39.3 -442.15 -38.7 -448.4 -39.15 -463.85 Q-39.65 -479.4 -40.1 -487.85 -40.6 -497.55 -41.7 -505.55" fill="#373832" fill-rule="evenodd" stroke="none"/>
    <path d="M-54.0 -502.1 Q-54.4 -497.3 -56.15 -486.65 L-55.45 -488.05 Q-55.65 -482.95 -55.95 -480.35 -56.8 -472.3 -56.85 -456.8 L-56.75 -441.8 -55.35 -411.6 Q-55.35 -406.4 -56.55 -390.0 -57.75 -373.65 -57.75 -370.8 -57.75 -367.45 -58.9 -351.25 -60.05 -335.05 -60.05 -329.4 -60.05 -305.0 -57.15 -286.5 L-55.2 -274.2 Q-54.3 -267.85 -54.3 -262.1 -54.3 -249.3 -56.15 -223.9 -58.05 -198.5 -58.05 -185.75 -58.05 -174.15 -57.65 -171.15 L-57.6 -171.0 -65.35 -170.95 -65.35 -171.05 -66.15 -177.2 Q-67.0 -183.2 -67.0 -187.65 L-66.2 -207.35 Q-66.2 -210.35 -64.25 -218.8 -62.3 -227.2 -62.3 -238.05 -62.3 -242.9 -64.25 -269.3 -66.2 -300.7 -66.2 -330.55 -66.2 -336.5 -63.05 -382.25 L-61.25 -408.75 -61.2 -411.2 -61.05 -421.1 Q-61.05 -431.1 -62.0 -438.1 -63.0 -445.1 -63.0 -451.7 -63.0 -459.2 -61.3 -470.7 -59.8 -481.15 -60.2 -492.9 L-60.8 -497.9 Q-61.2 -501.1 -60.05 -502.8 -57.25 -506.95 -54.7 -503.25 L-54.0 -502.1 M-45.25 -496.6 Q-43.75 -496.3 -42.4 -494.8 L-42.95 -502.1 Q-42.95 -504.45 -41.7 -505.55 -40.6 -497.55 -40.1 -487.85 -39.65 -479.4 -39.15 -463.85 L-38.7 -448.4 -39.3 -442.15 -40.1 -433.5 -40.6 -427.65 -40.25 -411.0 -38.65 -399.15 Q-36.05 -380.6 -36.05 -375.9 L-37.8 -351.95 -38.8 -342.75 -38.65 -336.15 Q-37.05 -273.0 -34.3 -227.5 L-34.3 -175.75 -34.05 -171.15 -34.8 -171.15 -41.45 -171.1 -41.1 -184.95 Q-41.1 -191.6 -41.7 -195.05 L-41.7 -219.65 -43.8 -257.45 Q-45.75 -294.05 -45.75 -303.15 L-44.85 -324.3 -43.95 -345.45 Q-43.95 -351.75 -45.9 -382.35 L-45.9 -414.65 -46.65 -429.35 -47.0 -439.05 Q-47.0 -445.05 -45.55 -462.45 -44.1 -479.9 -44.1 -487.2 -44.1 -491.9 -45.25 -496.6" fill="#2e2f2b" fill-rule="evenodd" stroke="none"/>
    <path d="M-55.45 -488.05 L-53.7 -491.0 -53.55 -491.2 -52.4 -492.75 -51.5 -493.8 -49.2 -494.5 -49.3 -495.6 Q-47.15 -497.0 -45.25 -496.6 -44.1 -491.9 -44.1 -487.2 -44.1 -479.9 -45.55 -462.45 -47.0 -445.05 -47.0 -439.05 L-46.65 -429.35 -45.9 -414.65 -45.9 -382.35 Q-43.95 -351.75 -43.95 -345.45 L-44.85 -324.3 -45.75 -303.15 Q-45.75 -294.05 -43.8 -257.45 L-41.7 -219.65 -41.7 -195.05 Q-41.1 -191.6 -41.1 -184.95 L-41.45 -171.1 -57.6 -171.0 -57.65 -171.15 Q-58.05 -174.15 -58.05 -185.75 -58.05 -198.5 -56.15 -223.9 -54.3 -249.3 -54.3 -262.1 -54.3 -267.85 -55.2 -274.2 L-57.15 -286.5 Q-60.05 -305.0 -60.05 -329.4 -60.05 -335.05 -58.9 -351.25 -57.75 -367.45 -57.75 -370.8 -57.75 -373.65 -56.55 -390.0 -55.35 -406.4 -55.35 -411.6 L-56.75 -441.8 -56.85 -456.8 Q-56.8 -472.3 -55.95 -480.35 -55.65 -482.95 -55.45 -488.05" fill="#282826" fill-rule="evenodd" stroke="none"/>
    <path d="M-3.45 -171.2 L-3.6 -170.45 -3.75 -169.4 Q-63.35 -167.1 -83.35 -167.1 L-87.3 -167.1 Q-85.55 -165.75 -82.3 -164.75 L-83.35 -164.75 -93.05 -163.55 -93.6 -167.35 -74.35 -168.1 -73.25 -168.2 -72.9 -168.2 -75.05 -168.3 -75.25 -168.3 -75.95 -168.35 Q-87.75 -168.75 -89.4 -169.45 L-89.4 -169.9 -75.6 -170.9 -75.15 -170.9 -65.35 -170.95 -57.6 -171.0 -41.45 -171.1 -34.8 -171.15 -28.5 -171.2 -3.45 -171.2" fill="#14507c" fill-rule="evenodd" stroke="none"/>
    <path d="M-4.95 -163.3 Q-6.15 -159.05 -9.55 -155.5 L-12.45 -155.9 Q-34.8 -158.85 -61.4 -157.9 L-82.6 -157.75 -91.1 -157.0 Q-92.35 -159.7 -93.05 -163.55 L-83.35 -164.75 -82.3 -164.75 -17.9 -164.75 -4.95 -163.3" fill="#2898f2" fill-rule="evenodd" stroke="none"/>
    <path d="M-3.75 -169.4 L-4.6 -164.75 -4.95 -163.3 -17.9 -164.75 -82.3 -164.75 Q-85.55 -165.75 -87.3 -167.1 L-83.35 -167.1 Q-63.35 -167.1 -3.75 -169.4" fill="#1e76b7" fill-rule="evenodd" stroke="none"/>
    <path d="M-74.35 -168.1 L-75.6 -168.05 -75.6 -168.3 -75.25 -168.3 -75.05 -168.3 -72.9 -168.2 -73.25 -168.2 -74.35 -168.1" fill="#2b2c27" fill-rule="evenodd" stroke="none"/>
    <path d="M-62.9 -548.2 L-58.85 -550.05 -58.75 -550.05 -58.4 -550.1 -49.1 -550.8 -43.7 -551.25 -37.0 -550.05 Q-33.0 -548.95 -30.15 -547.85 L-27.8 -546.35 -26.85 -545.8 -27.0 -545.65 -26.75 -545.7 -22.95 -543.65 -21.95 -543.2 -21.45 -542.6 -20.3 -541.25 -27.05 -536.95 Q-38.25 -529.5 -38.25 -524.1 -38.25 -523.3 -39.7 -521.55 L-39.5 -521.3 -41.05 -518.0 -46.25 -518.0 Q-46.55 -518.5 -46.55 -516.75 -46.55 -515.7 -46.35 -515.65 L-46.2 -515.6 -40.95 -515.6 Q-40.15 -516.05 -39.6 -516.45 L-39.55 -515.45 Q-39.55 -514.55 -40.5 -513.8 -41.35 -513.15 -42.35 -513.1 L-43.5 -513.1 Q-46.05 -508.2 -47.2 -507.0 L-47.55 -507.1 Q-49.55 -510.45 -52.7 -518.45 L-55.15 -525.2 -58.0 -530.3 -58.85 -530.15 Q-62.0 -530.15 -63.35 -531.75 -62.45 -533.6 -60.2 -532.85 L-58.0 -531.75 -57.8 -531.9 Q-57.35 -532.25 -57.35 -532.85 -57.35 -534.8 -59.65 -539.2 L-62.55 -545.1 -63.6 -547.9 -62.9 -548.2 M-14.2 -535.15 L-13.2 -534.35 -13.1 -534.3 -11.35 -532.35 Q-13.05 -531.45 -14.7 -531.05 L-15.35 -531.2 -15.6 -532.0 Q-15.6 -533.65 -14.2 -535.15 M-46.0 -528.7 L-46.1 -528.8 -46.1 -528.75 -46.0 -528.7 M-62.15 -517.1 L-61.95 -517.7 -61.15 -518.7 -60.35 -518.15 -56.5 -514.9 -56.85 -514.2 -57.45 -513.8 Q-60.2 -514.25 -62.1 -517.0 L-62.15 -517.1 M-21.0 -532.65 L-20.55 -531.65 -20.8 -530.7 -23.2 -530.55 -23.55 -531.6 -22.35 -532.45 -21.0 -532.65 M-35.7 -508.35 Q-36.1 -507.15 -38.05 -507.15 L-39.7 -507.4 -40.4 -508.0 -40.4 -508.95 -38.35 -509.1 Q-36.8 -509.0 -35.7 -508.35" fill="#acb19e" fill-rule="evenodd" stroke="none"/>
    <path d="M-20.3 -541.25 Q-16.9 -537.3 -14.2 -535.15 -15.6 -533.65 -15.6 -532.0 L-15.35 -531.2 -14.7 -531.05 Q-13.05 -531.45 -11.35 -532.35 L-9.75 -530.65 -9.55 -530.45 -16.3 -524.25 -16.2 -522.8 Q-16.2 -521.65 -17.15 -519.85 -18.2 -517.95 -19.35 -517.25 -20.7 -518.65 -20.7 -519.4 L-20.65 -520.15 -23.85 -517.15 -31.6 -509.45 -31.65 -508.55 -32.5 -507.75 -40.5 -498.35 -42.35 -497.4 Q-42.9 -498.6 -44.25 -503.15 -45.6 -506.7 -47.55 -507.1 L-48.1 -507.15 Q-49.4 -507.15 -56.0 -505.2 L-57.4 -505.25 -57.55 -505.3 -57.65 -504.75 -58.5 -504.05 -62.45 -512.8 -64.25 -516.65 -64.6 -517.05 -64.95 -513.7 -65.2 -513.5 Q-65.5 -513.3 -65.75 -513.25 -66.25 -514.5 -67.15 -520.3 L-70.65 -525.3 -75.3 -532.75 -75.9 -522.0 -75.85 -521.7 -75.95 -521.4 -78.2 -523.25 -83.8 -533.5 -85.55 -536.35 -83.6 -537.6 Q-78.1 -541.4 -68.1 -545.9 L-62.9 -548.2 -63.6 -547.9 -62.55 -545.1 -59.65 -539.2 Q-57.35 -534.8 -57.35 -532.85 -57.35 -532.25 -57.8 -531.9 L-58.0 -531.75 -60.2 -532.85 Q-62.45 -533.6 -63.35 -531.75 -62.0 -530.15 -58.85 -530.15 L-58.0 -530.3 -55.15 -525.2 -52.7 -518.45 Q-49.55 -510.45 -47.55 -507.1 L-47.2 -507.0 Q-46.05 -508.2 -43.5 -513.1 L-42.35 -513.1 Q-41.35 -513.15 -40.5 -513.8 -39.55 -514.55 -39.55 -515.45 L-39.6 -516.45 Q-40.15 -516.05 -40.95 -515.6 L-46.2 -515.6 -46.35 -515.65 Q-46.55 -515.7 -46.55 -516.75 -46.55 -518.5 -46.25 -518.0 L-41.05 -518.0 -39.5 -521.3 -39.7 -521.55 Q-38.25 -523.3 -38.25 -524.1 -38.25 -529.5 -27.05 -536.95 L-20.3 -541.25 M-67.15 -538.65 L-66.8 -539.25 -67.05 -539.9 -69.2 -540.05 Q-69.35 -540.45 -69.35 -539.3 L-69.2 -538.6 -69.1 -538.55 -67.15 -538.65 M-62.15 -517.1 L-62.1 -517.0 Q-60.2 -514.25 -57.45 -513.8 L-56.85 -514.2 -56.5 -514.9 -60.35 -518.15 -61.15 -518.7 -61.95 -517.7 -62.15 -517.1 M-62.2 -505.35 Q-62.4 -504.65 -63.0 -504.5 L-64.3 -505.8 -64.85 -506.6 -64.8 -507.15 -63.05 -506.85 Q-62.2 -506.35 -62.2 -505.35 M-21.0 -532.65 L-22.35 -532.45 -23.55 -531.6 -23.2 -530.55 -20.8 -530.7 -20.55 -531.65 -21.0 -532.65 M-35.7 -508.35 Q-36.8 -509.0 -38.35 -509.1 L-40.4 -508.95 -40.4 -508.0 -39.7 -507.4 -38.05 -507.15 Q-36.1 -507.15 -35.7 -508.35 M-84.4 -525.6 L-83.5 -525.65 Q-83.0 -525.15 -83.0 -524.6 L-83.15 -524.4 -83.7 -524.05 -84.3 -524.25 -84.4 -525.6" fill="#989e8d" fill-rule="evenodd" stroke="none"/>
    <path d="M-9.55 -530.45 L-8.8 -529.7 -7.65 -527.5 -6.7 -525.1 -6.5 -524.55 -8.7 -522.8 Q-8.1 -522.95 -6.35 -524.1 L-6.2 -523.6 -5.75 -522.2 -5.65 -521.85 -5.6 -521.7 -14.15 -516.3 -14.75 -515.9 -18.4 -513.5 -18.55 -513.4 -19.1 -513.05 -22.6 -509.6 -23.1 -509.1 -23.3 -508.9 Q-27.2 -505.0 -29.2 -504.0 L-31.05 -502.65 Q-31.2 -502.2 -31.9 -501.3 L-31.9 -501.25 -33.9 -498.8 -35.0 -497.5 -35.8 -496.5 -36.6 -495.65 -36.65 -495.3 -37.65 -494.55 Q-40.2 -497.0 -41.65 -497.75 L-44.8 -493.55 Q-47.8 -489.9 -52.2 -489.9 -52.85 -489.9 -55.05 -493.6 -57.45 -497.6 -58.15 -498.1 L-65.6 -498.5 -65.05 -497.45 -65.05 -497.0 -65.8 -497.95 Q-68.25 -500.7 -68.45 -498.05 L-68.4 -498.5 -71.75 -501.55 -71.5 -502.7 Q-71.15 -504.3 -71.15 -504.95 -71.15 -505.7 -71.45 -506.05 -71.65 -506.3 -72.2 -506.55 -72.7 -506.1 -73.45 -503.7 L-73.6 -503.25 -86.1 -514.4 Q-82.9 -515.8 -82.9 -516.2 -82.9 -516.9 -83.1 -517.0 L-83.7 -517.15 -89.55 -517.6 -94.85 -526.8 -94.9 -526.7 -93.05 -529.8 Q-91.8 -531.8 -90.45 -533.0 L-89.85 -533.5 -89.65 -533.65 -87.85 -534.85 -85.55 -536.35 -83.8 -533.5 -78.2 -523.25 -75.95 -521.4 -75.85 -521.7 -75.9 -522.0 -75.3 -532.75 -70.65 -525.3 -67.15 -520.3 Q-66.25 -514.5 -65.75 -513.25 -65.5 -513.3 -65.2 -513.5 L-64.95 -513.7 -64.6 -517.05 -64.25 -516.65 -62.45 -512.8 -58.5 -504.05 -57.65 -504.75 -57.55 -505.3 -57.4 -505.25 -56.0 -505.2 Q-49.4 -507.15 -48.1 -507.15 L-47.55 -507.1 Q-45.6 -506.7 -44.25 -503.15 -42.9 -498.6 -42.35 -497.4 L-40.5 -498.35 -32.5 -507.75 -31.65 -508.55 -31.6 -509.45 -23.85 -517.15 -20.65 -520.15 -20.7 -519.4 Q-20.7 -518.65 -19.35 -517.25 -18.2 -517.95 -17.15 -519.85 -16.2 -521.65 -16.2 -522.8 L-16.3 -524.25 -9.55 -530.45 M-80.15 -510.1 Q-80.15 -509.35 -79.9 -509.15 L-79.1 -508.85 -78.05 -509.45 Q-78.05 -511.0 -79.1 -511.4 L-79.9 -511.1 -80.15 -510.1 M-62.2 -505.35 Q-62.2 -506.35 -63.05 -506.85 L-64.8 -507.15 -64.85 -506.6 -64.3 -505.8 -63.0 -504.5 Q-62.4 -504.65 -62.2 -505.35 M-26.8 -509.4 Q-26.2 -509.6 -26.1 -509.9 L-26.35 -510.4 -26.65 -510.6 -27.2 -510.1 -27.55 -509.45 -26.8 -509.4 M-84.4 -525.6 L-84.3 -524.25 -83.7 -524.05 -83.15 -524.4 -83.0 -524.6 Q-83.0 -525.15 -83.5 -525.65 L-84.4 -525.6" fill="#818967" fill-rule="evenodd" stroke="none"/>
    <path d="M-97.25 -518.55 L-97.7 -519.1 -96.25 -522.95 -96.05 -523.6 -94.9 -526.7 -94.85 -526.8 -89.55 -517.6 -83.7 -517.15 -83.1 -517.0 Q-82.9 -516.9 -82.9 -516.2 -82.9 -515.8 -86.1 -514.4 L-73.6 -503.25 -73.45 -503.7 Q-72.7 -506.1 -72.2 -506.55 -71.65 -506.3 -71.45 -506.05 -71.15 -505.7 -71.15 -504.95 -71.15 -504.3 -71.5 -502.7 L-71.75 -501.55 -68.4 -498.5 -68.45 -498.05 Q-68.25 -500.7 -65.8 -497.95 L-65.05 -497.0 -65.05 -497.45 -65.6 -498.5 -58.15 -498.1 Q-57.45 -497.6 -55.05 -493.6 -52.85 -489.9 -52.2 -489.9 -47.8 -489.9 -44.8 -493.55 L-41.65 -497.75 Q-40.2 -497.0 -37.65 -494.55 L-40.1 -492.95 -42.35 -491.7 Q-44.7 -490.85 -47.6 -490.35 -51.95 -488.3 -56.05 -488.3 L-56.45 -488.3 -56.75 -488.3 -57.8 -488.5 Q-60.25 -489.2 -62.45 -491.65 L-63.45 -491.6 Q-64.6 -491.6 -65.9 -493.15 L-72.6 -495.95 Q-77.9 -498.65 -78.75 -501.05 -81.5 -503.55 -85.25 -508.15 L-88.55 -511.5 Q-90.65 -512.65 -93.25 -514.85 L-97.25 -518.55" fill="#757b5e" fill-rule="evenodd" stroke="none"/>
    <path d="M-5.6 -521.7 L-5.5 -521.4 -6.15 -520.7 -8.4 -518.45 -9.9 -517.0 -11.85 -515.0 -12.4 -514.6 -15.4 -512.25 -19.65 -508.85 -29.7 -500.4 -31.6 -498.7 Q-32.6 -496.9 -32.6 -495.15 L-32.5 -495.05 -33.2 -494.65 Q-36.2 -492.95 -40.8 -490.75 -45.4 -488.55 -48.8 -487.1 L-51.55 -486.9 -57.75 -486.3 -58.15 -486.6 -59.45 -487.45 -59.55 -487.45 -61.6 -488.55 -63.4 -489.15 -63.7 -489.5 -64.05 -489.9 -70.25 -493.2 -72.15 -494.2 Q-77.7 -497.4 -80.75 -500.35 L-81.55 -501.15 -88.65 -508.05 -92.95 -511.9 -93.9 -512.7 -95.9 -514.55 Q-96.75 -516.65 -97.75 -518.6 L-97.25 -518.55 -93.25 -514.85 Q-90.65 -512.65 -88.55 -511.5 L-85.25 -508.15 Q-81.5 -503.55 -78.75 -501.05 -77.9 -498.65 -72.6 -495.95 L-65.9 -493.15 Q-64.6 -491.6 -63.45 -491.6 L-62.45 -491.65 Q-60.25 -489.2 -57.8 -488.5 L-56.75 -488.3 -56.45 -488.3 -56.05 -488.3 Q-51.95 -488.3 -47.6 -490.35 -44.7 -490.85 -42.35 -491.7 L-40.1 -492.95 -37.65 -494.55 -36.65 -495.3 -36.6 -495.65 -35.8 -496.5 -35.0 -497.5 -33.9 -498.8 -31.9 -501.25 -31.9 -501.3 -20.75 -510.55 Q-16.7 -514.0 -14.15 -516.3 L-5.6 -521.7" fill="#66685b" fill-rule="evenodd" stroke="none"/>
  </g>
</svg>
