<?xml version="1.0" encoding="UTF-8" standalone="no"?>
<svg xmlns:ffdec="https://www.free-decompiler.com/flash" xmlns:xlink="http://www.w3.org/1999/xlink" ffdec:objectType="shape" height="108.7px" width="20.45px" xmlns="http://www.w3.org/2000/svg">
  <g transform="matrix(1.0, 0.0, 0.0, 1.0, -193.35, 362.85)">
    <path d="M203.9 -354.65 Q202.9 -355.25 202.45 -355.85 L202.4 -355.85 202.1 -355.85 205.15 -348.15 205.55 -347.05 205.65 -346.75 206.0 -346.55 206.1 -346.55 206.2 -346.75 207.75 -349.8 Q207.75 -351.95 204.95 -354.1 L203.9 -354.65 M206.1 -355.3 L206.6 -354.65 206.7 -354.65 208.05 -353.0 Q209.35 -353.15 209.35 -350.35 L209.05 -348.15 208.5 -347.25 207.9 -346.1 206.95 -345.45 206.25 -343.4 206.3 -343.25 206.2 -342.95 206.1 -342.85 205.9 -342.0 205.15 -341.95 205.1 -337.65 204.6 -327.9 Q204.6 -321.0 205.2 -311.6 L206.05 -306.0 206.8 -298.8 207.25 -291.6 Q207.45 -287.05 208.1 -284.35 208.8 -281.55 209.2 -277.1 L210.0 -269.85 210.05 -269.55 213.0 -257.35 213.1 -257.4 213.5 -255.9 213.8 -254.4 213.35 -254.15 213.1 -254.8 212.95 -254.75 212.9 -254.75 Q212.55 -254.75 212.25 -255.05 L210.4 -256.0 208.65 -256.45 207.65 -256.15 Q203.4 -256.15 200.3 -258.55 198.15 -260.2 197.85 -261.55 L197.55 -262.25 Q196.25 -264.0 195.85 -267.5 195.6 -269.4 195.6 -274.3 195.6 -277.4 196.35 -284.3 L197.7 -296.7 Q199.55 -311.4 199.55 -314.15 L200.45 -327.65 Q200.45 -329.0 201.0 -333.65 L201.5 -340.85 201.5 -342.8 200.25 -343.8 Q198.95 -344.95 198.4 -345.85 L197.85 -346.35 195.6 -348.25 193.85 -348.6 193.4 -349.05 193.35 -349.65 193.45 -350.4 193.35 -350.7 193.6 -351.65 193.5 -352.5 Q193.5 -354.45 194.95 -356.65 L196.7 -359.1 197.0 -360.25 Q197.55 -361.5 198.6 -361.45 199.35 -361.4 199.55 -360.85 L200.35 -360.15 201.85 -357.85 Q203.9 -357.05 205.05 -356.25 L206.1 -355.3 M195.75 -354.55 L195.4 -352.5 195.35 -351.9 195.85 -350.85 196.0 -350.6 196.45 -350.2 Q198.45 -347.8 199.25 -347.25 L200.05 -346.4 201.35 -345.3 202.65 -344.15 202.75 -344.1 Q203.65 -343.55 204.5 -343.25 L204.55 -343.8 204.7 -344.0 203.7 -345.55 202.5 -347.5 201.25 -349.5 201.5 -349.5 203.25 -347.85 203.4 -347.75 204.8 -346.15 204.9 -345.95 204.9 -346.0 204.35 -348.1 202.65 -352.3 Q200.5 -356.9 198.4 -359.55 L198.35 -359.55 197.75 -358.35 198.1 -358.35 Q198.55 -357.3 198.9 -357.0 197.8 -357.25 197.25 -357.65 L196.9 -357.15 195.85 -354.85 195.75 -354.55 M208.0 -349.25 L208.05 -349.4 208.05 -349.7 208.0 -349.25 M197.85 -362.55 L197.7 -362.85 197.9 -362.65 198.0 -362.6 197.85 -362.55 M194.5 -349.75 L194.45 -349.75 194.4 -349.75 194.5 -349.75 M200.5 -306.5 L198.85 -292.8 Q197.2 -278.5 197.2 -274.3 L197.45 -268.35 Q197.45 -267.45 198.0 -265.1 L198.35 -263.55 199.15 -261.45 201.5 -259.55 207.7 -257.8 Q209.8 -257.8 211.1 -257.05 L210.3 -259.75 208.8 -267.55 Q208.05 -271.65 207.1 -280.25 205.15 -296.4 204.75 -302.85 L203.75 -311.6 Q203.25 -317.05 203.25 -327.9 L203.65 -336.75 203.15 -334.05 Q202.9 -328.9 202.05 -322.55 201.7 -319.95 201.3 -314.65 L200.5 -306.5" fill="#480000" fill-rule="evenodd" stroke="none"/>
    <path d="M203.9 -354.65 L204.95 -354.1 Q207.75 -351.95 207.75 -349.8 L206.2 -346.75 206.1 -346.55 206.0 -346.55 205.65 -346.75 205.55 -347.05 205.15 -348.15 202.1 -355.85 202.4 -355.85 202.45 -355.85 Q202.9 -355.25 203.9 -354.65 M203.4 -347.75 L203.3 -347.85 203.25 -347.9 Q199.05 -352.2 195.75 -354.55 L195.85 -354.85 196.9 -357.15 197.25 -357.65 Q197.8 -357.25 198.9 -357.0 198.55 -357.3 198.1 -358.35 L197.75 -358.35 198.35 -359.55 198.4 -359.55 Q200.5 -356.9 202.65 -352.3 L204.35 -348.1 204.9 -346.0 204.8 -346.15 203.4 -347.75" fill="#990000" fill-rule="evenodd" stroke="none"/>
    <path d="M203.4 -347.75 L203.25 -347.85 201.5 -349.5 201.25 -349.5 202.5 -347.5 203.7 -345.55 204.7 -344.0 204.55 -343.8 204.5 -343.25 Q203.65 -343.55 202.75 -344.1 L202.65 -344.15 201.35 -345.3 200.05 -346.4 199.25 -347.25 Q198.45 -347.8 196.45 -350.2 L196.0 -350.6 195.85 -350.85 195.35 -351.9 195.4 -352.5 195.75 -354.55 Q199.05 -352.2 203.25 -347.9 L203.3 -347.85 203.4 -347.75 M204.9 -346.0 L204.9 -345.95 204.8 -346.15 204.9 -346.0 M200.5 -306.5 L201.3 -314.65 Q201.7 -319.95 202.05 -322.55 202.9 -328.9 203.15 -334.05 L203.65 -336.75 203.25 -327.9 Q203.25 -317.05 203.75 -311.6 L204.75 -302.85 Q205.15 -296.4 207.1 -280.25 208.05 -271.65 208.8 -267.55 L210.3 -259.75 211.1 -257.05 Q209.8 -257.8 207.7 -257.8 L201.5 -259.55 199.15 -261.45 198.35 -263.55 198.0 -265.1 Q197.45 -267.45 197.45 -268.35 L197.2 -274.3 Q197.2 -278.5 198.85 -292.8 L200.5 -306.5" fill="#720e3e" fill-rule="evenodd" stroke="none"/>
  </g>
</svg>
