<?xml version="1.0" encoding="UTF-8" standalone="no"?>
<svg xmlns:ffdec="https://www.free-decompiler.com/flash" xmlns:xlink="http://www.w3.org/1999/xlink" ffdec:objectType="shape" height="385.6px" width="65.65px" xmlns="http://www.w3.org/2000/svg">
  <g transform="matrix(1.0, 0.0, 0.0, 1.0, 83.95, 528.4)">
    <path d="M-49.55 -152.85 L-50.4 -152.8 -50.6 -150.8 -49.6 -150.4 Q-48.8 -150.8 -48.0 -152.0 L-48.4 -152.6 -49.55 -152.85 M-53.2 -164.0 L-54.35 -163.85 Q-54.8 -163.55 -54.8 -162.2 -54.8 -160.95 -54.55 -160.8 L-53.6 -160.6 -52.6 -161.25 -52.4 -161.6 Q-52.4 -163.2 -53.2 -164.0 M-75.2 -187.8 Q-73.95 -188.3 -73.2 -189.4 L-74.0 -190.6 Q-75.8 -190.6 -76.4 -190.0 -76.4 -188.3 -75.2 -187.8 M-69.5 -192.25 L-68.8 -192.2 -68.2 -192.6 -68.0 -193.8 Q-68.0 -194.4 -68.4 -195.0 L-69.4 -195.0 -69.55 -194.75 -69.6 -193.5 -69.5 -192.25 M-70.8 -207.6 L-70.0 -207.8 Q-69.65 -209.95 -70.2 -210.8 L-71.0 -210.6 Q-71.0 -208.2 -70.8 -207.6 M-74.2 -202.0 L-75.0 -202.0 -75.2 -200.6 -75.0 -199.75 -74.8 -199.4 Q-74.15 -199.5 -73.8 -199.85 L-73.6 -200.2 Q-73.6 -201.1 -74.2 -202.0 M-79.8 -341.8 Q-80.25 -341.65 -80.6 -340.5 -81.0 -339.35 -81.0 -337.9 L-80.95 -336.0 -80.6 -335.2 -79.6 -335.2 Q-79.15 -335.65 -79.05 -336.0 L-79.0 -337.9 Q-79.0 -339.35 -79.15 -340.15 L-79.8 -341.8 M-80.05 -350.05 L-79.8 -350.4 -79.85 -351.35 Q-80.0 -352.4 -80.4 -352.8 L-81.6 -352.8 -81.75 -352.4 -81.8 -351.1 -81.75 -349.8 Q-81.6 -349.9 -81.4 -349.6 -80.5 -349.7 -80.05 -350.05 M-80.0 -369.6 L-80.15 -369.2 -80.2 -367.9 -80.15 -366.6 Q-80.0 -366.7 -79.8 -366.4 -78.9 -366.5 -78.45 -366.85 L-78.2 -367.2 -78.25 -368.15 Q-78.4 -369.2 -78.8 -369.6 L-80.0 -369.6 M-57.45 -525.5 Q-55.25 -526.8 -49.35 -528.4 -46.05 -527.6 -42.95 -526.1 -37.6 -522.5 -32.7 -516.85 L-31.6 -514.5 -27.05 -506.6 -24.25 -499.7 Q-24.15 -491.1 -21.05 -473.3 -18.0 -455.7 -18.35 -446.5 L-18.35 -396.05 -18.85 -386.1 -19.0 -385.25 -19.8 -380.85 Q-20.25 -377.2 -20.3 -370.85 -21.35 -364.5 -21.35 -360.0 -21.35 -353.65 -20.4 -347.65 L-20.25 -345.9 -19.3 -333.4 Q-18.35 -321.65 -18.35 -320.35 L-19.6 -298.45 -20.85 -276.5 Q-19.55 -231.9 -19.4 -210.25 L-18.95 -193.3 Q-18.85 -183.25 -19.75 -176.2 -21.0 -167.05 -24.5 -159.35 -24.65 -154.75 -28.35 -150.05 -34.1 -142.8 -45.5 -142.8 -58.8 -142.8 -67.45 -145.95 -66.45 -146.3 -66.0 -147.0 L-66.2 -147.6 -69.1 -148.7 Q-68.55 -148.85 -68.15 -149.25 L-67.6 -150.4 Q-68.8 -151.6 -70.2 -153.8 L-72.1 -156.45 -72.45 -161.9 Q-73.65 -180.5 -74.0 -183.4 -75.8 -181.85 -76.15 -178.1 L-76.2 -171.8 Q-76.25 -169.15 -78.25 -164.6 L-78.9 -163.2 -78.95 -163.25 -79.25 -164.65 Q-80.35 -170.1 -81.25 -182.0 L-80.1 -188.85 Q-77.4 -207.15 -77.4 -228.6 L-78.05 -243.3 Q-78.75 -257.9 -78.75 -265.1 L-78.7 -268.15 -77.85 -269.95 Q-77.4 -271.2 -77.4 -272.45 L-77.0 -272.8 -77.0 -326.2 -76.2 -328.0 -76.8 -343.3 -77.4 -358.6 -78.0 -358.6 -78.8 -330.8 -79.2 -331.2 Q-80.4 -330.8 -80.4 -328.5 L-80.35 -327.35 -81.3 -324.7 -82.25 -334.35 -82.15 -337.15 Q-82.7 -341.9 -83.8 -349.45 L-83.9 -350.1 -83.45 -360.5 -83.55 -374.2 -83.95 -383.05 -83.6 -386.7 Q-83.3 -390.7 -83.3 -406.35 L-83.4 -424.1 Q-83.0 -426.05 -83.25 -429.3 L-83.35 -430.95 -82.75 -438.75 -82.4 -442.25 -81.6 -443.7 Q-81.6 -459.95 -81.3 -463.95 -80.4 -476.65 -76.25 -489.3 -75.1 -492.7 -72.65 -501.7 -70.2 -510.0 -67.95 -514.2 -65.95 -518.0 -63.7 -520.5 -61.15 -523.35 -57.45 -525.5" fill="#00ff00" fill-rule="evenodd" stroke="none"/>
  </g>
</svg>
