<?xml version="1.0" encoding="UTF-8" standalone="no"?>
<svg xmlns:ffdec="https://www.free-decompiler.com/flash" xmlns:xlink="http://www.w3.org/1999/xlink" ffdec:objectType="shape" height="109.95px" width="19.45px" xmlns="http://www.w3.org/2000/svg">
  <g transform="matrix(1.0, 0.0, 0.0, 1.0, -160.6, 506.3)">
    <path d="M161.85 -499.55 L161.75 -499.35 163.25 -503.0 164.0 -503.75 166.55 -506.3 167.2 -505.65 Q169.65 -503.35 172.65 -503.35 L173.15 -503.35 174.85 -503.75 Q176.65 -504.0 177.3 -504.35 L177.3 -504.5 177.6 -504.5 177.85 -504.65 177.7 -504.35 177.75 -503.65 177.75 -503.55 177.9 -503.5 177.9 -503.0 Q177.8 -500.95 176.95 -498.75 176.3 -497.0 177.05 -492.35 176.7 -491.8 175.9 -491.25 L176.0 -490.9 175.4 -487.5 174.75 -483.55 174.9 -478.9 Q175.1 -474.8 175.65 -469.3 L177.1 -455.35 177.45 -448.25 177.75 -441.1 178.4 -434.05 178.85 -427.2 Q178.85 -422.1 178.35 -415.35 L178.35 -414.3 178.3 -413.75 178.5 -413.9 179.05 -407.5 Q180.05 -402.25 180.05 -401.0 L179.0 -399.9 178.05 -399.25 177.6 -399.3 175.6 -397.75 175.3 -397.75 175.15 -397.2 174.8 -396.55 174.75 -396.4 174.7 -396.35 174.6 -397.0 174.75 -397.3 174.55 -397.15 Q173.85 -398.25 173.6 -399.9 L173.0 -400.3 172.35 -401.55 171.3 -402.5 170.35 -403.1 Q169.65 -404.0 169.3 -405.3 L168.75 -407.5 Q167.95 -410.1 167.75 -411.8 L167.65 -416.05 168.4 -425.7 169.5 -438.95 170.15 -450.4 170.7 -458.9 170.65 -463.7 170.85 -478.9 171.0 -488.35 170.6 -488.85 169.3 -489.0 168.9 -489.05 168.7 -489.05 165.75 -488.15 165.0 -488.1 164.9 -487.85 164.65 -487.8 164.75 -487.65 164.35 -487.6 162.35 -487.65 160.95 -488.3 160.6 -491.15 161.1 -492.35 Q161.1 -492.65 161.4 -493.15 161.25 -493.45 161.25 -494.45 161.25 -497.25 161.95 -499.65 L161.85 -499.55 M165.3 -498.6 L167.45 -500.35 Q169.25 -501.55 171.2 -502.35 L171.0 -502.35 Q169.55 -502.35 167.8 -503.4 L167.5 -503.6 Q166.75 -503.8 166.3 -504.25 L165.0 -503.45 165.05 -503.3 Q163.95 -502.45 163.3 -499.65 L163.15 -499.1 162.4 -494.6 163.0 -495.15 163.05 -495.25 163.05 -495.3 163.35 -496.05 163.55 -496.35 164.2 -497.4 164.7 -498.0 165.3 -498.6 M177.3 -503.85 L177.05 -503.7 177.25 -503.65 177.3 -503.85 M175.4 -496.05 L175.15 -496.7 Q176.3 -498.85 176.75 -500.75 L177.0 -502.9 Q171.8 -502.2 168.1 -499.15 164.7 -496.35 164.2 -493.2 L164.15 -492.8 164.1 -492.5 163.8 -492.45 163.25 -490.85 163.3 -490.65 166.3 -492.95 Q172.15 -497.35 173.9 -498.0 174.6 -497.7 174.75 -497.4 172.6 -496.4 167.35 -492.2 L164.25 -489.65 164.5 -489.65 165.65 -489.8 167.5 -490.2 Q175.8 -491.55 175.8 -494.25 L175.4 -496.05 M173.3 -484.0 L173.2 -483.7 173.3 -483.7 173.3 -484.0 M163.25 -492.35 L163.1 -491.8 163.3 -492.35 163.25 -492.35 M172.0 -485.25 L171.95 -484.65 172.0 -485.0 172.0 -485.25 M171.85 -478.9 L171.5 -463.7 Q171.5 -459.35 172.05 -450.9 L172.85 -438.7 173.55 -426.3 174.25 -413.85 174.25 -402.75 174.55 -401.85 174.65 -401.0 174.5 -400.15 Q174.45 -399.85 174.55 -399.6 174.75 -399.2 175.25 -399.1 L175.95 -400.0 Q176.7 -400.7 177.5 -400.35 178.5 -400.65 178.85 -401.0 L179.0 -402.1 178.5 -406.5 177.85 -411.4 177.65 -414.8 177.15 -418.7 176.55 -425.25 Q176.55 -426.7 177.0 -427.4 L177.55 -423.15 177.75 -427.25 177.0 -438.3 175.8 -453.1 174.2 -466.2 Q173.15 -473.95 173.15 -478.9 L173.15 -479.05 173.2 -481.7 172.85 -481.75 171.85 -479.65 171.85 -478.9 M171.0 -448.85 L170.15 -436.9 169.3 -426.15 168.6 -415.9 Q168.6 -414.85 169.1 -411.25 L169.6 -407.4 Q169.6 -406.95 170.15 -405.4 L170.8 -403.7 Q172.5 -403.2 173.25 -401.8 L173.25 -413.4 Q172.95 -421.75 171.65 -439.4 L171.05 -449.4 171.0 -448.85" fill="#480000" fill-rule="evenodd" stroke="none"/>
    <path d="M163.3 -499.65 Q163.95 -502.45 165.05 -503.3 L165.0 -503.45 166.3 -504.25 Q166.75 -503.8 167.5 -503.6 L167.8 -503.4 Q169.55 -502.35 171.0 -502.35 L171.2 -502.35 Q169.25 -501.55 167.45 -500.35 L165.3 -498.6 165.3 -499.25 165.1 -500.3 164.85 -500.55 163.3 -499.65 M176.75 -500.75 Q171.35 -498.3 165.4 -494.85 L164.5 -494.3 164.2 -493.2 Q164.7 -496.35 168.1 -499.15 171.8 -502.2 177.0 -502.9 L176.75 -500.75 M165.65 -489.8 L167.35 -490.8 175.4 -496.05 175.8 -494.25 Q175.8 -491.55 167.5 -490.2 L165.65 -489.8 M171.85 -478.9 L171.85 -479.65 172.85 -481.75 173.2 -481.7 173.15 -479.05 173.15 -478.9 Q173.15 -473.95 174.2 -466.2 L175.8 -453.1 177.0 -438.3 177.75 -427.25 177.55 -423.15 177.0 -427.4 Q176.55 -426.7 176.55 -425.25 L177.15 -418.7 177.65 -414.8 177.85 -411.4 178.5 -406.5 179.0 -402.1 178.85 -401.0 Q178.5 -400.65 177.5 -400.35 176.7 -400.7 175.95 -400.0 L175.25 -399.1 Q174.75 -399.2 174.55 -399.6 174.45 -399.85 174.5 -400.15 L174.65 -401.0 174.55 -401.85 174.25 -402.75 174.25 -413.85 173.55 -426.3 172.85 -438.7 172.05 -450.9 Q171.5 -459.35 171.5 -463.7 L171.85 -478.9" fill="#990000" fill-rule="evenodd" stroke="none"/>
    <path d="M163.3 -499.65 L164.85 -500.55 165.1 -500.3 165.3 -499.25 165.3 -498.6 164.7 -498.0 164.2 -497.4 163.55 -496.35 163.35 -496.05 163.05 -495.3 163.05 -495.25 163.0 -495.15 162.4 -494.6 163.15 -499.1 163.3 -499.65 M176.75 -500.75 Q176.3 -498.85 175.15 -496.7 L175.4 -496.05 167.35 -490.8 165.65 -489.8 164.5 -489.65 164.25 -489.65 167.35 -492.2 Q172.6 -496.4 174.75 -497.4 174.6 -497.7 173.9 -498.0 172.15 -497.35 166.3 -492.95 L163.3 -490.65 163.25 -490.85 163.8 -492.45 164.1 -492.5 164.15 -492.8 164.2 -493.2 164.5 -494.3 165.4 -494.85 Q171.35 -498.3 176.75 -500.75 M163.25 -492.35 L163.3 -492.35 163.1 -491.8 163.25 -492.35 M171.0 -448.85 L171.05 -449.4 171.65 -439.4 Q172.95 -421.75 173.25 -413.4 L173.25 -401.8 Q172.5 -403.2 170.8 -403.7 L170.15 -405.4 Q169.6 -406.95 169.6 -407.4 L169.1 -411.25 Q168.6 -414.85 168.6 -415.9 L169.3 -426.15 170.15 -436.9 171.0 -448.85" fill="#720e3e" fill-rule="evenodd" stroke="none"/>
  </g>
</svg>
