<?xml version="1.0" encoding="UTF-8" standalone="no"?>
<svg xmlns:ffdec="https://www.free-decompiler.com/flash" xmlns:xlink="http://www.w3.org/1999/xlink" ffdec:objectType="shape" height="584.65px" width="384.8px" xmlns="http://www.w3.org/2000/svg">
  <g transform="matrix(1.0, 0.0, 0.0, 1.0, 243.75, 672.25)">
    <path d="M-81.7 -424.25 Q-80.0 -422.55 -78.2 -421.95 -75.5 -420.95 -74.3 -420.25 -73.25 -421.4 -72.8 -427.1 -72.35 -432.4 -70.85 -433.3 -68.45 -434.7 -67.3 -438.5 L-66.6 -441.05 Q-65.85 -443.2 -64.7 -443.85 L-57.8 -425.95 -57.25 -428.9 Q-56.45 -430.85 -53.55 -431.4 L-53.3 -431.55 Q-53.1 -431.45 -53.05 -430.5 L-50.45 -431.65 -49.4 -433.95 Q-48.6 -435.35 -47.6 -435.65 -46.9 -433.55 -46.9 -428.55 L-46.55 -428.65 Q-46.05 -428.8 -45.2 -429.25 -42.95 -425.65 -41.95 -420.35 -41.05 -415.6 -41.55 -411.55 L-41.3 -411.55 -40.45 -416.2 Q-39.6 -419.55 -37.75 -420.85 L-34.75 -418.4 -32.3 -416.55 -31.65 -418.85 Q-31.05 -420.5 -29.65 -421.2 L-27.15 -414.75 -25.15 -409.65 -23.0 -409.2 Q-21.4 -406.05 -20.75 -404.0 -19.55 -400.3 -20.5 -396.85 -20.05 -396.5 -19.0 -397.05 -17.7 -397.8 -16.5 -397.8 -9.25 -387.95 -9.1 -382.45 L-9.0 -378.95 Q-8.65 -376.25 -7.45 -375.35 -5.3 -373.8 -5.3 -368.1 L-6.15 -357.85 Q-7.1 -347.9 -7.2 -342.55 L-7.65 -342.3 -8.4 -341.85 Q-9.45 -342.0 -9.9 -342.25 -10.45 -340.6 -12.0 -339.55 -14.5 -337.85 -14.8 -333.55 L-15.05 -333.15 -16.0 -332.35 Q-18.95 -332.65 -19.2 -333.8 -19.95 -332.45 -21.75 -331.0 L-22.15 -330.7 -22.05 -328.1 -22.45 -322.55 -23.0 -315.6 Q-23.0 -314.9 -23.5 -314.45 L-24.5 -321.85 -24.9 -328.05 -25.45 -327.1 -26.6 -324.4 Q-27.75 -321.6 -29.65 -319.75 -32.25 -317.2 -33.45 -315.4 L-33.7 -315.4 Q-33.7 -314.45 -38.8 -310.6 -44.2 -306.5 -44.85 -305.15 -47.15 -305.7 -47.65 -307.25 -47.95 -308.25 -52.1 -308.0 L-51.85 -316.9 -51.95 -319.6 Q-52.05 -320.55 -52.6 -321.55 L-52.8 -321.55 -53.55 -311.6 Q-53.55 -308.05 -54.75 -306.6 -56.15 -304.95 -59.95 -304.95 L-60.8 -303.6 Q-61.6 -302.3 -62.45 -302.3 -64.8 -302.3 -65.15 -303.1 L-66.1 -305.5 -66.65 -306.4 Q-67.2 -307.0 -68.4 -307.3 -68.75 -307.4 -69.1 -308.65 -69.45 -309.75 -70.05 -309.7 -70.7 -309.6 -71.4 -310.1 L-72.4 -311.1 -72.7 -310.2 -73.15 -308.25 -74.55 -308.25 Q-74.55 -309.3 -74.85 -310.65 L-75.5 -312.55 -77.15 -313.0 -77.6 -311.75 Q-77.9 -311.0 -78.35 -310.85 -81.4 -312.95 -81.3 -316.7 -81.25 -318.85 -80.25 -323.2 -79.65 -329.4 -80.95 -335.2 L-82.55 -335.55 -85.0 -335.7 -85.6 -329.3 -86.2 -323.0 -86.9 -322.5 Q-88.9 -324.95 -89.05 -331.1 -89.15 -337.95 -89.75 -339.25 L-90.9 -343.35 Q-91.3 -345.2 -92.5 -346.0 -94.9 -347.65 -95.3 -349.35 -95.85 -351.5 -97.25 -352.9 -97.75 -349.9 -99.15 -347.7 L-101.05 -347.9 Q-101.95 -353.4 -101.5 -362.15 -101.5 -364.3 -102.45 -368.95 -103.4 -373.55 -103.4 -375.6 L-104.1 -376.2 -104.95 -374.7 Q-105.4 -373.75 -105.8 -373.55 L-106.65 -374.85 -106.75 -377.15 -106.7 -379.55 -106.95 -381.3 -106.65 -381.25 -106.5 -384.15 -105.55 -384.15 Q-105.25 -383.5 -105.05 -380.8 L-104.35 -380.55 -102.2 -384.85 Q-101.05 -387.3 -101.05 -388.15 -101.05 -389.55 -102.0 -390.1 -102.95 -390.65 -102.95 -390.8 L-102.95 -397.55 -102.9 -402.5 Q-102.65 -405.75 -101.5 -407.05 L-100.55 -407.05 -100.05 -404.55 Q-99.7 -402.9 -99.15 -402.05 L-98.65 -401.85 Q-98.25 -403.6 -96.3 -405.65 -94.95 -403.95 -94.6 -402.75 L-94.15 -401.1 Q-92.0 -406.75 -91.1 -415.45 L-89.75 -430.45 -88.35 -430.7 Q-87.15 -425.45 -86.9 -422.15 L-86.65 -421.8 Q-84.35 -422.3 -83.95 -422.55 L-81.7 -424.25" fill="#0fb8f0" fill-rule="evenodd" stroke="none"/>
    <path d="M54.5 -670.25 Q54.95 -669.25 54.95 -667.45 54.95 -663.0 53.9 -660.85 55.2 -655.15 55.25 -647.8 55.3 -640.55 53.65 -625.8 52.7 -616.45 52.85 -604.65 52.95 -597.55 53.65 -583.3 55.05 -556.25 55.55 -540.15 56.35 -516.0 56.05 -496.85 55.6 -461.55 56.0 -391.95 L56.5 -326.05 55.65 -276.1 56.3 -272.05 Q56.3 -262.2 57.1 -257.9 L57.8 -230.95 58.0 -217.15 58.5 -203.3 59.2 -196.6 60.2 -189.85 Q60.35 -188.85 61.05 -186.35 63.75 -181.9 69.2 -178.6 70.85 -177.65 81.6 -175.1 L94.6 -171.95 Q111.2 -166.85 114.35 -164.9 127.2 -157.05 134.35 -146.55 141.05 -136.65 141.05 -126.9 141.05 -120.3 135.05 -108.2 128.05 -94.1 120.4 -92.35 L126.1 -101.75 Q129.1 -106.55 130.15 -110.05 130.45 -111.05 131.9 -114.3 124.0 -108.05 105.8 -102.95 95.8 -100.15 84.4 -98.1 76.2 -95.9 59.9 -93.15 38.5 -89.5 29.65 -89.5 L25.75 -89.95 16.3 -88.55 Q5.4 -87.15 -10.3 -88.55 L-4.4 -87.85 -11.9 -88.05 -19.2 -88.55 -17.85 -89.4 -14.6 -89.05 Q-12.6 -89.05 -10.0 -90.35 L-8.4 -90.0 Q22.35 -92.35 42.5 -94.95 L51.85 -96.95 Q66.15 -100.1 75.25 -102.35 L83.6 -105.85 Q92.25 -109.3 104.3 -113.45 L106.9 -115.5 Q112.45 -119.7 112.45 -121.6 112.45 -123.25 107.0 -125.4 99.85 -128.25 88.8 -128.25 L87.4 -128.25 Q82.95 -127.0 67.4 -125.0 L30.15 -120.65 Q3.75 -117.55 -21.6 -116.75 L-55.2 -115.5 -56.6 -115.15 -87.85 -115.15 -89.5 -115.35 -98.2 -114.8 Q-115.45 -114.8 -150.4 -122.5 L-175.95 -128.35 -179.75 -129.15 -196.5 -130.35 Q-207.5 -130.35 -213.55 -126.6 -217.75 -123.95 -217.75 -121.6 -217.75 -120.25 -214.95 -115.65 -212.25 -111.2 -210.65 -109.6 L-210.7 -109.1 Q-211.05 -108.65 -212.55 -108.65 -213.95 -108.65 -215.6 -109.6 L-217.3 -110.55 -223.45 -111.8 -227.5 -112.45 -230.75 -112.05 -234.75 -111.5 Q-235.95 -110.65 -237.05 -108.0 L-237.8 -105.9 Q-236.85 -103.4 -234.05 -98.9 -230.05 -92.45 -227.25 -89.5 L-227.35 -89.1 Q-227.6 -88.7 -228.2 -88.55 -237.85 -96.25 -241.25 -104.15 -243.75 -110.0 -243.75 -119.45 -243.75 -129.75 -237.75 -139.05 -230.85 -149.75 -218.0 -155.65 -208.75 -161.0 -203.55 -163.3 -194.7 -167.2 -177.4 -169.55 -166.75 -171.0 -163.15 -176.4 L-162.65 -181.8 Q-161.95 -188.85 -161.95 -192.6 L-160.15 -215.8 Q-159.1 -230.0 -159.1 -232.95 L-161.25 -324.05 -163.4 -415.15 -161.5 -513.0 Q-161.0 -544.1 -161.95 -609.4 -161.95 -625.1 -160.85 -639.85 L-160.1 -648.05 Q-160.55 -650.6 -160.55 -657.6 -160.55 -667.7 -156.45 -669.8 -154.8 -670.65 -153.65 -669.1 -152.35 -667.4 -152.35 -663.65 -152.35 -662.9 -153.3 -658.35 L-153.9 -654.85 Q-150.45 -636.65 -150.1 -620.75 L-149.6 -619.4 -147.6 -612.55 Q-145.05 -603.8 -138.7 -598.7 -135.2 -595.9 -127.25 -594.0 L-112.6 -591.1 Q-103.9 -589.35 -99.95 -587.3 L-98.2 -586.25 -96.35 -585.25 -86.65 -578.4 -80.25 -575.9 -63.0 -573.0 Q-51.8 -571.0 -50.45 -570.1 L-48.7 -569.05 Q-42.7 -567.85 -37.7 -564.8 L-33.5 -561.8 Q-21.6 -558.6 -13.85 -558.6 L-9.35 -559.1 Q0.8 -561.8 10.1 -568.25 15.8 -572.2 22.45 -578.45 L33.0 -588.75 Q39.65 -595.05 43.05 -606.95 L45.5 -616.6 46.35 -619.6 45.55 -629.15 Q44.3 -649.0 47.6 -661.05 L47.2 -661.95 Q46.75 -663.2 46.75 -663.9 46.75 -668.25 47.55 -669.9 48.85 -672.55 52.8 -672.2 54.05 -671.25 54.5 -670.25 M36.35 -538.15 Q33.9 -536.05 31.45 -533.05 L23.95 -522.35 21.0 -518.35 Q18.4 -515.05 15.4 -512.65 6.3 -505.4 -7.1 -505.4 -18.1 -505.4 -25.6 -508.35 -30.65 -510.35 -36.85 -515.2 -44.1 -520.9 -47.7 -522.85 -55.05 -526.85 -65.15 -528.3 -78.35 -530.2 -84.75 -529.8 L-88.8 -529.25 -91.75 -530.65 -96.15 -533.75 Q-98.9 -535.7 -105.55 -541.5 -108.05 -543.8 -115.2 -546.95 -125.4 -551.45 -134.65 -551.45 -140.75 -551.45 -148.4 -547.35 -150.05 -544.7 -151.05 -541.75 -152.25 -538.1 -153.05 -532.15 L-153.2 -530.8 -152.0 -486.0 -150.1 -414.4 -151.05 -373.7 -149.85 -367.55 -147.35 -355.05 -144.7 -347.75 -142.95 -345.85 Q-136.85 -339.15 -127.5 -336.65 -120.75 -334.45 -113.65 -326.25 -110.25 -322.35 -108.35 -319.0 L-99.85 -307.8 Q-93.05 -298.75 -90.25 -293.75 -88.7 -290.95 -85.0 -286.9 -81.25 -282.8 -77.4 -279.65 -74.75 -277.45 -66.25 -272.05 L-65.5 -271.55 -55.25 -266.6 Q-38.75 -259.1 -28.25 -259.1 -5.25 -259.1 9.85 -274.9 15.35 -280.65 21.15 -289.9 L30.4 -305.4 Q35.15 -313.15 41.1 -333.75 43.35 -341.45 45.3 -346.45 L45.7 -392.35 Q46.2 -463.0 45.6 -499.2 45.45 -513.3 45.9 -531.1 45.6 -532.05 45.6 -532.55 L45.6 -532.8 45.5 -533.0 45.25 -533.8 43.7 -536.65 42.9 -537.85 41.3 -539.1 38.65 -539.15 36.35 -538.15 M38.2 -232.0 Q30.6 -228.15 26.9 -221.15 25.75 -218.95 23.95 -214.2 22.3 -209.85 21.1 -207.8 19.95 -205.8 16.55 -201.5 13.15 -197.2 11.95 -195.1 10.1 -191.95 5.85 -189.5 2.0 -187.3 -3.05 -186.25 -6.4 -184.05 -10.3 -184.05 -15.5 -184.05 -20.35 -186.15 -26.5 -187.9 -30.85 -193.15 -33.65 -196.55 -40.35 -210.15 -44.35 -218.1 -50.95 -223.2 -58.15 -228.8 -67.95 -230.5 L-69.1 -230.25 Q-71.5 -229.95 -74.95 -230.85 L-75.0 -230.85 -75.1 -230.9 -78.1 -231.9 -78.3 -231.95 -80.0 -232.6 Q-91.9 -235.55 -98.8 -251.95 L-101.25 -257.7 Q-108.45 -266.1 -112.9 -270.0 -118.2 -274.55 -123.55 -276.4 -128.8 -278.2 -136.55 -278.2 L-137.9 -278.15 -140.35 -276.65 -146.75 -272.7 -147.05 -272.15 Q-149.0 -268.45 -150.75 -263.3 L-152.35 -258.2 -151.85 -226.4 -151.4 -201.65 Q-149.45 -195.85 -147.4 -192.0 -145.2 -187.9 -142.05 -184.65 L-141.4 -184.2 Q-131.3 -177.55 -113.75 -174.05 -96.2 -170.55 -64.8 -161.4 -43.45 -155.2 -30.15 -155.2 -3.65 -155.2 17.45 -163.85 21.55 -165.55 24.95 -167.25 L25.6 -167.85 33.95 -175.0 Q35.9 -177.55 38.2 -184.7 39.25 -186.8 40.95 -187.9 L43.55 -199.5 Q44.05 -201.75 44.7 -203.65 L44.75 -206.35 45.6 -223.9 44.8 -226.15 43.8 -229.2 40.45 -230.9 Q39.1 -231.5 38.2 -232.0 M23.65 -129.55 L23.2 -129.35 22.7 -129.45 16.55 -128.75 -1.4 -126.95 -1.75 -126.75 -7.85 -126.65 Q-13.9 -125.15 -16.0 -125.15 L-17.75 -125.2 -17.95 -124.95 -25.65 -124.65 -44.1 -123.75 -44.05 -123.95 Q-44.85 -124.65 -49.95 -124.9 L-51.9 -124.25 -53.7 -124.05 Q-54.65 -124.7 -58.5 -125.15 L-106.3 -125.15 -109.25 -125.65 -122.45 -128.2 -122.75 -128.25 -123.1 -128.5 -123.2 -128.4 -123.4 -128.45 Q-128.65 -129.95 -133.6 -130.45 L-133.9 -130.95 -134.9 -131.55 -135.25 -131.7 -149.25 -134.7 Q-163.55 -138.25 -172.15 -138.5 L-173.6 -137.5 -173.1 -137.05 Q-173.6 -136.4 -173.6 -135.35 -172.95 -134.7 -170.45 -133.6 -168.6 -132.75 -167.65 -132.55 L-166.4 -131.5 -164.0 -131.1 Q-139.25 -126.95 -135.1 -126.55 L-135.05 -126.55 -134.95 -126.65 -134.9 -126.55 -126.25 -125.15 -119.45 -124.45 -117.7 -124.65 -110.4 -123.8 -89.25 -121.55 -88.7 -121.95 -83.35 -121.6 -73.7 -121.2 -63.35 -121.6 -57.45 -121.95 -55.2 -121.6 -54.05 -121.65 -51.0 -121.7 -49.95 -121.6 -47.35 -121.9 -34.1 -122.75 -24.45 -122.75 -10.8 -123.6 -10.8 -123.5 -7.45 -123.25 -0.75 -124.3 -0.5 -124.35 12.4 -125.45 25.05 -127.0 26.2 -127.5 Q29.1 -127.55 35.85 -129.0 L40.8 -130.15 42.6 -130.3 51.2 -132.4 Q67.2 -136.55 69.45 -139.15 L70.15 -140.6 64.75 -139.6 Q63.1 -138.6 60.7 -137.85 52.6 -135.75 45.85 -133.65 L39.7 -133.1 Q35.05 -131.55 29.35 -131.55 25.55 -130.7 23.65 -129.55 M-153.4 -544.45 L-153.55 -544.35 -153.55 -544.05 -153.4 -544.45 M-207.65 -108.15 L-206.7 -108.15 Q-194.95 -101.0 -139.4 -93.8 L-138.8 -93.55 -137.0 -93.5 -135.45 -93.3 -132.8 -92.45 Q-130.05 -91.2 -124.65 -90.95 L-119.8 -90.95 -115.9 -90.0 -115.85 -89.9 -122.1 -89.6 -128.0 -89.65 -131.55 -90.25 -143.15 -91.0 -153.3 -91.9 Q-161.05 -92.7 -165.05 -94.25 L-169.25 -95.0 Q-173.2 -95.7 -173.35 -95.95 -182.8 -97.65 -192.5 -100.65 -202.45 -103.75 -207.8 -106.75 L-207.65 -108.15 M-81.7 -90.25 Q-72.4 -90.25 -71.7 -89.5 L-59.75 -90.0 -45.75 -90.25 Q-41.0 -89.05 -39.15 -89.05 L-36.6 -89.15 -35.85 -89.3 Q-35.15 -89.45 -34.55 -89.7 L-34.4 -89.5 -39.95 -88.4 -46.15 -87.6 -58.05 -88.15 Q-68.9 -88.65 -77.25 -88.55 -78.65 -89.4 -81.15 -89.65 L-81.7 -90.25" fill="#a0f7fe" fill-rule="evenodd" stroke="none"/>
  </g>
</svg>
