<?xml version="1.0" encoding="UTF-8" standalone="no"?>
<svg xmlns:ffdec="https://www.free-decompiler.com/flash" xmlns:xlink="http://www.w3.org/1999/xlink" ffdec:objectType="shape" height="108.8px" width="19.05px" xmlns="http://www.w3.org/2000/svg">
  <g transform="matrix(1.0, 0.0, 0.0, 1.0, -160.6, 506.3)">
    <path d="M161.85 -499.55 L161.75 -499.35 163.25 -503.0 164.0 -503.75 166.55 -506.3 167.2 -505.65 Q169.65 -503.35 172.65 -503.35 L173.15 -503.35 174.85 -503.75 Q176.65 -504.0 177.3 -504.35 L177.3 -504.5 177.6 -504.5 177.85 -504.65 177.7 -504.35 177.75 -503.65 177.75 -503.55 177.9 -503.5 177.9 -503.0 Q177.8 -500.95 176.95 -498.75 176.3 -497.0 177.05 -492.35 L176.2 -491.45 176.3 -491.0 176.0 -487.0 175.6 -483.05 Q175.35 -479.85 175.35 -475.25 175.35 -471.85 176.45 -461.0 L177.75 -449.3 179.3 -436.5 179.65 -428.7 179.65 -423.65 Q179.65 -415.25 179.45 -412.5 179.15 -408.0 178.25 -404.75 L178.25 -404.4 177.95 -403.1 177.45 -402.4 177.35 -402.25 177.25 -402.1 175.7 -400.75 Q172.85 -398.65 169.25 -398.75 L169.1 -398.3 168.85 -397.55 168.95 -398.1 168.9 -398.05 168.4 -397.5 168.15 -397.65 167.9 -397.7 167.85 -397.85 167.5 -398.15 167.5 -398.6 167.4 -398.9 167.5 -399.45 167.5 -399.5 167.55 -399.5 167.6 -399.55 168.05 -400.65 167.8 -401.25 Q167.65 -401.85 167.65 -402.5 167.65 -408.9 169.4 -422.6 170.35 -430.2 170.7 -435.45 L170.25 -442.85 Q169.35 -457.25 169.35 -470.15 L169.4 -474.45 Q169.45 -478.75 169.85 -481.0 L170.15 -483.7 170.75 -486.4 171.35 -489.35 171.45 -489.65 170.25 -489.55 165.75 -488.15 165.0 -488.1 164.9 -487.85 164.65 -487.8 164.75 -487.65 164.35 -487.6 162.35 -487.65 160.95 -488.3 160.6 -491.15 161.1 -492.35 Q161.1 -492.65 161.4 -493.15 161.25 -493.45 161.25 -494.45 161.25 -497.25 161.95 -499.65 L161.85 -499.55 M165.3 -498.6 L167.45 -500.35 Q169.25 -501.55 171.2 -502.35 L171.0 -502.35 Q169.55 -502.35 167.8 -503.4 L167.5 -503.6 Q166.75 -503.8 166.3 -504.25 L165.0 -503.45 165.05 -503.3 Q163.95 -502.45 163.3 -499.65 L163.15 -499.1 162.4 -494.6 163.0 -495.15 163.05 -495.25 163.05 -495.3 163.35 -496.05 163.55 -496.35 164.2 -497.4 164.7 -498.0 165.3 -498.6 M177.3 -503.85 L177.05 -503.7 177.25 -503.65 177.3 -503.85 M164.2 -493.2 L164.15 -492.8 164.1 -492.5 163.8 -492.45 163.25 -490.85 163.3 -490.65 166.3 -492.95 Q172.15 -497.35 173.9 -498.0 174.6 -497.7 174.75 -497.4 172.6 -496.4 167.35 -492.2 L164.25 -489.65 164.5 -489.65 165.65 -489.8 167.5 -490.2 Q175.8 -491.55 175.8 -494.25 L175.4 -496.05 175.15 -496.7 Q176.3 -498.85 176.75 -500.75 L177.0 -502.9 Q171.8 -502.2 168.1 -499.15 164.7 -496.35 164.2 -493.2 M173.55 -486.15 Q173.15 -485.75 172.7 -484.85 L171.85 -483.35 171.8 -483.05 Q171.25 -479.7 171.0 -475.85 L170.65 -466.95 170.55 -461.2 Q170.55 -453.75 171.3 -442.1 172.05 -430.5 172.05 -426.35 L172.0 -419.3 171.9 -416.5 172.0 -416.5 172.25 -413.15 172.25 -412.85 172.25 -412.1 172.2 -411.35 Q172.0 -408.8 171.25 -405.55 L170.65 -403.2 170.15 -401.25 169.8 -400.3 171.25 -400.45 172.4 -400.65 Q173.45 -400.85 174.15 -401.25 L175.1 -401.9 176.65 -403.65 176.7 -403.7 177.1 -406.2 177.55 -409.3 178.05 -423.65 Q178.05 -431.7 175.9 -449.9 173.95 -466.6 173.8 -474.1 173.5 -470.35 173.75 -468.35 L173.5 -468.0 Q173.1 -471.55 173.0 -479.25 L173.5 -484.6 173.55 -486.15 M163.25 -492.35 L163.1 -491.8 163.3 -492.35 163.25 -492.35 M170.05 -421.35 Q168.55 -409.75 168.55 -405.55 L168.75 -402.3 169.0 -402.95 169.95 -405.35 170.25 -406.8 170.55 -408.75 170.75 -412.9 171.15 -426.5 171.05 -429.8 170.05 -421.35" fill="#480000" fill-rule="evenodd" stroke="none"/>
    <path d="M163.3 -499.65 Q163.95 -502.45 165.05 -503.3 L165.0 -503.45 166.3 -504.25 Q166.75 -503.8 167.5 -503.6 L167.8 -503.4 Q169.55 -502.35 171.0 -502.35 L171.2 -502.35 Q169.25 -501.55 167.45 -500.35 L165.3 -498.6 165.3 -499.25 165.1 -500.3 164.85 -500.55 163.3 -499.65 M165.65 -489.8 L167.35 -490.8 175.4 -496.05 175.8 -494.25 Q175.8 -491.55 167.5 -490.2 L165.65 -489.8 M176.75 -500.75 Q171.35 -498.3 165.4 -494.85 L164.5 -494.3 164.2 -493.2 Q164.7 -496.35 168.1 -499.15 171.8 -502.2 177.0 -502.9 L176.75 -500.75 M173.55 -486.15 L173.5 -484.6 173.0 -479.25 Q173.1 -471.55 173.5 -468.0 L173.75 -468.35 Q173.5 -470.35 173.8 -474.1 173.95 -466.6 175.9 -449.9 178.05 -431.7 178.05 -423.65 L177.55 -409.3 177.1 -406.2 176.7 -403.7 176.65 -403.65 175.1 -401.9 174.15 -401.25 Q173.45 -400.85 172.4 -400.65 L171.25 -400.45 169.8 -400.3 170.15 -401.25 170.65 -403.2 171.25 -405.55 Q172.0 -408.8 172.2 -411.35 L172.25 -412.1 172.25 -412.85 172.25 -413.15 172.0 -416.5 171.9 -416.5 172.0 -419.3 172.05 -426.35 Q172.05 -430.5 171.3 -442.1 170.55 -453.75 170.55 -461.2 L170.65 -466.95 171.0 -475.85 Q171.25 -479.7 171.8 -483.05 L171.85 -483.35 172.7 -484.85 Q173.15 -485.75 173.55 -486.15" fill="#990000" fill-rule="evenodd" stroke="none"/>
    <path d="M163.3 -499.65 L164.85 -500.55 165.1 -500.3 165.3 -499.25 165.3 -498.6 164.7 -498.0 164.2 -497.4 163.55 -496.35 163.35 -496.05 163.05 -495.3 163.05 -495.25 163.0 -495.15 162.4 -494.6 163.15 -499.1 163.3 -499.65 M165.65 -489.8 L164.5 -489.65 164.25 -489.65 167.35 -492.2 Q172.6 -496.4 174.75 -497.4 174.6 -497.7 173.9 -498.0 172.15 -497.35 166.3 -492.95 L163.3 -490.65 163.25 -490.85 163.8 -492.45 164.1 -492.5 164.15 -492.8 164.2 -493.2 164.5 -494.3 165.4 -494.85 Q171.35 -498.3 176.75 -500.75 176.3 -498.85 175.15 -496.7 L175.4 -496.05 167.35 -490.8 165.65 -489.8 M163.25 -492.35 L163.3 -492.35 163.1 -491.8 163.25 -492.35 M170.05 -421.35 L171.05 -429.8 171.15 -426.5 170.75 -412.9 170.55 -408.75 170.25 -406.8 169.95 -405.35 169.0 -402.95 168.75 -402.3 168.55 -405.55 Q168.55 -409.75 170.05 -421.35" fill="#720e3e" fill-rule="evenodd" stroke="none"/>
  </g>
</svg>
