<?xml version="1.0" encoding="UTF-8" standalone="no"?>
<svg xmlns:ffdec="https://www.free-decompiler.com/flash" xmlns:xlink="http://www.w3.org/1999/xlink" ffdec:objectType="shape" height="107.55px" width="32.8px" xmlns="http://www.w3.org/2000/svg">
  <g transform="matrix(1.0, 0.0, 0.0, 1.0, -160.6, 506.3)">
    <path d="M161.85 -499.55 L161.75 -499.35 163.25 -503.0 164.0 -503.75 166.55 -506.3 167.2 -505.65 Q169.65 -503.35 172.65 -503.35 L173.15 -503.35 174.85 -503.75 Q176.65 -504.0 177.3 -504.35 L177.3 -504.5 177.6 -504.5 177.85 -504.65 177.7 -504.35 177.75 -503.65 177.75 -503.55 177.9 -503.5 177.9 -503.0 Q177.8 -500.95 176.95 -498.75 176.3 -497.0 177.05 -492.35 176.6 -491.6 175.3 -490.9 L175.35 -490.8 175.5 -490.3 175.4 -489.6 175.25 -485.6 174.85 -478.9 174.9 -478.9 175.05 -477.85 175.15 -477.85 177.0 -464.2 Q179.1 -452.1 179.1 -450.6 179.1 -449.65 180.0 -443.75 L180.15 -442.9 Q182.65 -429.75 184.1 -423.6 186.35 -414.15 189.2 -406.45 L190.25 -404.7 190.25 -404.5 190.5 -403.95 190.5 -403.55 190.3 -403.25 190.25 -403.2 190.25 -403.05 190.2 -402.95 193.25 -399.5 193.25 -399.3 193.4 -399.15 193.05 -398.75 189.75 -399.05 188.85 -399.25 188.6 -399.25 Q187.1 -399.25 185.65 -400.6 184.15 -401.5 184.05 -402.15 183.15 -403.2 182.5 -404.55 L181.75 -404.8 181.65 -404.8 180.5 -404.55 179.85 -404.65 179.6 -405.1 Q179.1 -405.7 178.25 -407.5 177.25 -409.7 176.75 -411.25 173.6 -419.05 172.3 -427.95 171.05 -436.4 171.05 -451.3 L171.1 -451.75 171.25 -451.75 171.15 -453.6 171.0 -458.35 170.8 -463.65 170.55 -466.4 170.75 -467.95 170.8 -471.6 Q170.45 -472.65 170.35 -474.05 L170.4 -477.05 170.3 -477.85 171.1 -483.3 171.35 -484.75 171.3 -485.2 171.3 -485.6 171.4 -487.75 171.3 -488.05 171.0 -489.25 171.05 -489.6 170.25 -489.55 165.75 -488.15 165.0 -488.1 164.9 -487.85 164.65 -487.8 164.75 -487.65 164.35 -487.6 162.35 -487.65 160.95 -488.3 160.6 -491.15 161.1 -492.35 Q161.1 -492.65 161.4 -493.15 161.25 -493.45 161.25 -494.45 161.25 -497.25 161.95 -499.65 L161.85 -499.55 M165.3 -498.6 L167.45 -500.35 Q169.25 -501.55 171.2 -502.35 L171.0 -502.35 Q169.55 -502.35 167.8 -503.4 L167.5 -503.6 Q166.75 -503.8 166.3 -504.25 L165.0 -503.45 165.05 -503.3 Q163.95 -502.45 163.3 -499.65 L163.15 -499.1 162.4 -494.6 163.0 -495.15 163.05 -495.25 163.05 -495.3 163.35 -496.05 163.55 -496.35 164.2 -497.4 164.7 -498.0 165.3 -498.6 M177.3 -503.85 L177.05 -503.7 177.25 -503.65 177.3 -503.85 M164.2 -493.2 L164.15 -492.8 164.1 -492.5 163.8 -492.45 163.25 -490.85 163.3 -490.65 166.3 -492.95 Q172.15 -497.35 173.9 -498.0 174.6 -497.7 174.75 -497.4 172.6 -496.4 167.35 -492.2 L164.25 -489.65 164.5 -489.65 165.65 -489.8 167.5 -490.2 Q175.8 -491.55 175.8 -494.25 L175.4 -496.05 175.15 -496.7 Q176.3 -498.85 176.75 -500.75 L177.0 -502.9 Q171.8 -502.2 168.1 -499.15 164.7 -496.35 164.2 -493.2 M173.9 -484.2 L173.4 -482.5 173.2 -481.95 172.75 -480.15 172.4 -479.0 172.4 -478.8 172.25 -477.6 172.25 -477.05 172.15 -476.55 172.0 -475.3 172.0 -475.2 172.0 -475.15 172.0 -465.6 172.2 -463.7 172.35 -458.5 172.35 -456.25 173.05 -448.15 Q173.6 -440.95 174.5 -436.35 L175.7 -430.6 176.75 -426.15 Q176.9 -425.1 177.35 -423.75 L178.6 -418.9 179.4 -417.0 180.3 -414.4 180.45 -414.05 180.55 -413.15 181.1 -411.65 182.75 -407.5 Q183.9 -404.1 184.3 -403.45 185.25 -401.9 186.95 -400.7 L187.9 -400.4 189.35 -399.85 191.2 -399.75 192.5 -399.6 Q189.5 -402.3 186.85 -405.75 183.9 -409.45 182.25 -412.9 L179.7 -419.2 179.35 -420.15 179.25 -420.15 178.25 -424.8 178.9 -423.05 178.95 -422.9 179.05 -422.75 179.25 -422.35 179.65 -421.2 Q180.1 -420.0 181.05 -418.5 L181.1 -418.4 182.85 -414.35 Q183.45 -412.85 185.25 -410.0 L188.1 -405.55 187.95 -405.65 188.95 -404.45 189.15 -404.95 186.8 -409.55 185.65 -412.35 184.65 -415.15 182.35 -426.25 Q180.05 -434.85 179.65 -439.75 L179.15 -441.55 178.6 -445.95 177.15 -454.75 175.55 -464.75 175.35 -467.3 174.8 -471.55 174.75 -471.35 174.35 -467.05 Q174.25 -465.3 174.3 -461.8 L174.35 -458.25 174.2 -454.9 174.6 -448.55 174.85 -445.5 174.7 -446.3 174.25 -448.6 174.1 -451.3 174.0 -453.8 173.9 -453.8 173.5 -462.25 173.55 -463.15 173.4 -467.45 Q173.4 -472.45 174.05 -479.3 L174.2 -483.85 173.9 -484.2 M174.2 -485.6 L174.25 -486.25 174.05 -485.6 174.2 -485.6 M163.25 -492.35 L163.1 -491.8 163.3 -492.35 163.25 -492.35 M173.0 -433.35 L173.75 -426.75 Q174.05 -424.35 174.75 -421.3 L176.1 -415.9 176.3 -415.35 Q177.85 -410.65 180.2 -406.0 L180.8 -405.9 182.0 -405.7 180.4 -410.0 Q179.2 -413.0 177.05 -419.7 L176.7 -420.95 175.1 -426.25 Q174.0 -430.55 172.65 -438.05 L173.0 -433.35" fill="#480000" fill-rule="evenodd" stroke="none"/>
    <path d="M163.3 -499.65 Q163.95 -502.45 165.05 -503.3 L165.0 -503.45 166.3 -504.25 Q166.75 -503.8 167.5 -503.6 L167.8 -503.4 Q169.55 -502.35 171.0 -502.35 L171.2 -502.35 Q169.25 -501.55 167.45 -500.35 L165.3 -498.6 165.3 -499.25 165.1 -500.3 164.85 -500.55 163.3 -499.65 M165.65 -489.8 L167.35 -490.8 175.4 -496.05 175.8 -494.25 Q175.8 -491.55 167.5 -490.2 L165.65 -489.8 M176.75 -500.75 Q171.35 -498.3 165.4 -494.85 L164.5 -494.3 164.2 -493.2 Q164.7 -496.35 168.1 -499.15 171.8 -502.2 177.0 -502.9 L176.75 -500.75 M173.9 -484.2 L174.2 -483.85 174.05 -479.3 Q173.4 -472.45 173.4 -467.45 L173.55 -463.15 173.5 -462.25 173.9 -453.8 174.0 -453.8 174.1 -451.3 174.25 -448.6 174.7 -446.3 174.85 -445.5 174.6 -448.55 174.2 -454.9 174.35 -458.25 174.3 -461.8 Q174.25 -465.3 174.35 -467.05 L174.75 -471.35 174.8 -471.55 175.35 -467.3 175.55 -464.75 177.15 -454.75 178.6 -445.95 179.15 -441.55 179.65 -439.75 Q180.05 -434.85 182.35 -426.25 L184.65 -415.15 185.65 -412.35 186.8 -409.55 189.15 -404.95 188.95 -404.45 187.95 -405.65 188.1 -405.55 185.25 -410.0 Q183.45 -412.85 182.85 -414.35 L181.1 -418.4 181.05 -418.5 Q180.1 -420.0 179.65 -421.2 L179.25 -422.35 179.05 -422.75 178.95 -422.9 178.9 -423.05 178.25 -424.8 179.25 -420.15 179.35 -420.15 179.7 -419.2 182.25 -412.9 Q183.9 -409.45 186.85 -405.75 189.5 -402.3 192.5 -399.6 L191.2 -399.75 189.35 -399.85 187.9 -400.4 186.95 -400.7 Q185.25 -401.9 184.3 -403.45 183.9 -404.1 182.75 -407.5 L181.1 -411.65 180.55 -413.15 180.45 -414.05 180.3 -414.4 179.4 -417.0 178.6 -418.9 177.35 -423.75 Q176.9 -425.1 176.75 -426.15 L175.7 -430.6 174.5 -436.35 Q173.6 -440.95 173.05 -448.15 L172.35 -456.25 172.35 -458.5 172.2 -463.7 172.0 -465.6 172.0 -475.15 172.0 -475.2 172.0 -475.3 172.15 -476.55 172.25 -477.05 172.25 -477.6 172.4 -478.8 172.4 -479.0 172.75 -480.15 173.2 -481.95 173.4 -482.5 173.9 -484.2" fill="#990000" fill-rule="evenodd" stroke="none"/>
    <path d="M163.3 -499.65 L164.85 -500.55 165.1 -500.3 165.3 -499.25 165.3 -498.6 164.7 -498.0 164.2 -497.4 163.55 -496.35 163.35 -496.05 163.05 -495.3 163.05 -495.25 163.0 -495.15 162.4 -494.6 163.15 -499.1 163.3 -499.65 M165.65 -489.8 L164.5 -489.65 164.25 -489.65 167.35 -492.2 Q172.6 -496.4 174.75 -497.4 174.6 -497.7 173.9 -498.0 172.15 -497.35 166.3 -492.95 L163.3 -490.65 163.25 -490.85 163.8 -492.45 164.1 -492.5 164.15 -492.8 164.2 -493.2 164.5 -494.3 165.4 -494.85 Q171.35 -498.3 176.75 -500.75 176.3 -498.85 175.15 -496.7 L175.4 -496.05 167.35 -490.8 165.65 -489.8 M163.25 -492.35 L163.3 -492.35 163.1 -491.8 163.25 -492.35 M173.0 -433.35 L172.65 -438.05 Q174.0 -430.55 175.1 -426.25 L176.7 -420.95 177.05 -419.7 Q179.2 -413.0 180.4 -410.0 L182.0 -405.7 180.8 -405.9 180.2 -406.0 Q177.85 -410.65 176.3 -415.35 L176.1 -415.9 174.75 -421.3 Q174.05 -424.35 173.75 -426.75 L173.0 -433.35" fill="#720e3e" fill-rule="evenodd" stroke="none"/>
  </g>
</svg>
