<?xml version="1.0" encoding="UTF-8" standalone="no"?>
<svg xmlns:ffdec="https://www.free-decompiler.com/flash" xmlns:xlink="http://www.w3.org/1999/xlink" ffdec:objectType="shape" height="606.65px" width="381.7px" xmlns="http://www.w3.org/2000/svg">
  <g transform="matrix(1.0, 0.0, 0.0, 1.0, 244.2, 672.1)">
    <path d="M46.4 -671.45 L49.65 -672.0 54.85 -671.6 Q56.3 -664.15 56.3 -654.75 L56.25 -652.45 Q56.4 -650.85 56.7 -650.15 L56.7 -607.6 Q56.25 -598.75 57.45 -587.4 58.85 -574.5 58.85 -568.6 L58.6 -564.95 58.3 -564.9 58.35 -556.05 Q58.35 -553.25 58.8 -548.2 L59.4 -540.4 59.5 -521.35 59.4 -509.05 Q59.6 -485.75 59.4 -474.1 L58.35 -458.6 Q57.25 -443.8 57.25 -439.55 L57.6 -428.85 Q58.0 -418.3 58.35 -412.25 L58.4 -386.55 Q58.4 -383.7 57.45 -373.15 L57.0 -368.0 57.25 -366.05 57.25 -339.1 56.7 -337.95 56.7 -310.6 57.25 -309.4 57.25 -283.3 Q57.3 -273.05 58.35 -250.35 59.4 -228.0 59.4 -217.0 59.4 -205.75 59.9 -199.95 60.65 -191.15 62.8 -184.5 64.8 -181.9 68.35 -179.45 74.8 -175.05 84.15 -172.55 L99.6 -169.05 Q107.55 -167.3 111.35 -165.6 115.0 -164.0 119.0 -161.4 124.0 -158.15 124.85 -156.05 L124.85 -156.0 Q128.4 -152.85 130.9 -148.85 132.75 -145.9 135.85 -138.35 136.8 -136.0 137.25 -127.3 L137.5 -117.9 137.35 -114.55 137.35 -114.35 137.5 -114.05 Q137.0 -109.9 134.05 -105.3 L134.1 -104.9 133.45 -104.35 133.3 -104.1 133.2 -103.95 133.15 -103.95 Q131.9 -102.15 130.25 -100.3 124.1 -93.2 116.7 -89.4 L116.15 -89.15 Q115.6 -89.05 115.6 -89.9 115.6 -90.55 118.1 -92.9 L123.6 -97.95 Q131.55 -105.65 131.55 -110.8 131.55 -114.8 127.95 -116.35 125.8 -117.1 124.75 -117.55 124.25 -117.75 123.85 -118.0 L121.4 -118.7 98.95 -115.35 79.5 -109.35 Q64.45 -105.0 48.85 -102.2 43.2 -100.6 36.35 -99.85 L35.5 -99.95 35.55 -100.0 33.1 -99.65 32.8 -99.7 23.2 -98.3 20.7 -98.05 3.85 -96.25 -8.65 -96.1 -8.55 -96.7 Q-8.6 -97.15 -9.2 -97.6 L-9.85 -98.0 -13.75 -98.2 -18.45 -98.75 -0.6 -99.4 6.8 -99.95 Q18.6 -101.5 31.7 -104.75 38.3 -105.8 46.9 -108.25 L59.35 -111.6 Q70.05 -114.7 75.85 -117.0 L83.5 -119.4 Q89.3 -121.35 96.95 -124.5 L104.3 -127.45 Q107.0 -129.25 107.0 -130.9 107.0 -134.0 99.0 -135.85 L85.1 -135.7 79.55 -135.4 Q69.1 -130.8 60.7 -128.35 45.55 -123.95 15.45 -120.55 L10.65 -120.0 6.2 -119.85 1.55 -119.45 -4.45 -119.15 -6.55 -118.55 -13.3 -117.8 -38.55 -117.45 -39.05 -117.25 -43.35 -117.25 Q-83.8 -117.45 -84.05 -117.8 L-86.6 -117.95 -89.2 -118.3 -91.25 -118.4 -92.5 -118.5 -95.55 -118.45 -98.65 -118.7 -100.1 -118.9 -101.75 -119.25 -104.1 -119.4 -106.7 -119.8 -108.65 -119.95 -110.85 -120.3 -113.15 -120.45 -115.6 -120.85 -126.25 -122.1 -144.1 -125.25 -149.35 -125.8 -154.15 -126.35 -156.85 -126.9 -180.5 -133.1 -186.6 -133.9 -193.2 -135.0 Q-199.9 -134.1 -202.65 -131.5 -204.7 -129.6 -204.7 -126.25 -204.7 -124.15 -202.1 -122.0 -202.1 -122.55 -201.95 -121.85 -200.15 -120.4 -197.05 -118.9 L-194.6 -117.05 Q-191.95 -115.85 -188.55 -114.7 L-172.45 -109.9 -165.85 -108.1 Q-159.95 -105.65 -147.65 -103.8 L-147.25 -103.75 -146.7 -103.6 Q-141.35 -102.25 -133.0 -101.25 L-108.05 -99.65 -106.35 -99.45 -106.8 -99.85 -104.0 -99.55 -101.7 -99.35 -99.3 -98.9 -102.05 -98.85 -104.55 -99.0 -104.4 -98.9 -102.35 -98.7 -108.3 -99.05 -109.25 -99.05 -110.3 -98.75 -115.05 -98.2 -115.55 -98.1 -121.65 -97.65 -125.05 -98.1 -135.3 -98.95 -145.65 -100.65 -154.3 -101.5 -159.7 -102.05 Q-169.0 -103.35 -178.7 -105.7 L-195.25 -109.35 -195.85 -109.8 -196.0 -109.55 -199.15 -111.0 -202.8 -113.2 Q-204.55 -114.55 -208.5 -115.65 L-213.15 -116.6 Q-220.0 -116.6 -227.8 -114.35 -237.25 -111.6 -237.25 -107.65 -237.25 -104.0 -234.75 -100.85 -232.5 -98.05 -226.5 -93.6 -226.5 -92.9 -227.35 -92.7 L-230.7 -94.6 Q-233.1 -95.95 -234.55 -97.4 L-234.5 -96.75 Q-234.4 -96.25 -234.55 -96.1 L-234.9 -96.4 Q-231.55 -90.85 -227.35 -86.65 -235.0 -92.65 -239.8 -103.1 -244.2 -112.75 -244.2 -121.3 -244.2 -128.45 -239.2 -136.8 -234.1 -145.4 -225.5 -152.05 -214.9 -160.3 -200.3 -164.65 -192.05 -167.1 -179.3 -170.2 L-165.1 -173.9 Q-163.2 -177.0 -162.4 -181.25 L-160.6 -192.05 -160.6 -202.65 Q-160.45 -207.8 -159.5 -210.75 -159.0 -214.8 -159.0 -216.8 -159.0 -221.65 -160.6 -241.1 L-160.5 -265.0 Q-160.5 -268.65 -161.45 -276.65 -162.3 -284.0 -162.1 -288.1 L-162.1 -315.45 Q-162.65 -317.9 -162.65 -322.5 L-162.55 -328.45 -163.2 -341.55 -163.35 -370.25 -162.9 -394.55 -162.25 -416.25 -162.25 -456.15 -162.5 -456.15 -163.35 -484.65 -163.0 -490.4 -162.25 -498.75 -162.25 -538.1 Q-162.8 -539.65 -162.8 -543.4 L-162.8 -544.0 -163.05 -544.0 Q-163.35 -549.2 -163.35 -559.9 L-163.0 -571.1 -162.25 -588.55 -162.25 -617.1 Q-160.65 -625.15 -160.65 -640.2 L-161.7 -654.8 -161.4 -661.05 -161.05 -668.75 -161.45 -668.65 -161.5 -668.45 -161.55 -669.25 Q-161.55 -670.1 -161.1 -670.4 L-160.65 -670.5 -154.2 -670.1 -150.25 -669.6 -150.2 -668.85 Q-150.2 -668.5 -151.0 -668.5 L-151.15 -668.5 Q-150.0 -660.5 -149.65 -656.25 L-150.0 -656.35 -149.75 -655.9 Q-147.6 -652.35 -138.05 -651.3 -131.1 -651.25 -126.7 -651.5 L-122.85 -651.8 -122.85 -652.05 -120.75 -652.1 -120.45 -652.15 -120.2 -652.1 -118.2 -652.05 -110.3 -651.3 -95.45 -647.4 -88.6 -645.75 Q-88.55 -646.45 -88.3 -645.7 L-82.2 -644.5 -80.05 -644.25 -76.7 -644.55 Q-75.4 -645.9 -72.65 -646.7 L-60.85 -647.25 Q-55.35 -646.55 -50.95 -644.75 -44.9 -643.55 -38.25 -640.75 -27.05 -636.0 -18.7 -634.75 L-10.55 -634.4 1.0 -633.7 6.9 -633.8 12.8 -634.55 18.5 -636.55 Q23.8 -638.3 24.75 -638.8 L29.35 -641.4 34.2 -644.05 Q38.05 -645.95 42.0 -649.45 45.5 -653.2 46.2 -658.25 46.6 -660.95 45.95 -668.1 L45.95 -670.55 45.35 -670.9 45.95 -671.25 45.95 -671.45 46.4 -671.45 M45.8 -600.0 Q45.0 -601.2 42.35 -601.75 40.7 -600.65 39.1 -599.25 32.7 -593.05 29.0 -590.25 28.0 -589.55 24.95 -586.2 22.75 -583.55 18.55 -580.45 9.55 -573.85 -0.55 -573.85 -5.2 -573.85 -10.6 -575.85 -14.9 -576.65 -16.95 -577.65 L-19.4 -579.05 Q-20.9 -579.35 -26.4 -583.65 L-35.95 -591.35 Q-38.2 -593.15 -44.75 -596.0 -50.9 -598.65 -57.8 -601.0 -74.55 -600.9 -74.9 -600.6 L-79.75 -600.1 -93.95 -600.5 Q-99.35 -602.15 -102.8 -603.65 L-108.95 -606.1 Q-112.55 -607.35 -120.6 -609.1 L-132.25 -611.7 -139.2 -612.1 -139.15 -611.7 -139.0 -611.55 -139.7 -611.6 Q-144.15 -611.6 -147.35 -609.45 L-148.55 -608.6 Q-150.35 -607.05 -151.75 -604.75 L-153.25 -601.6 -153.95 -596.35 -154.3 -591.9 Q-154.3 -583.05 -152.9 -574.7 -151.3 -565.35 -151.0 -555.5 -150.55 -543.45 -150.45 -537.45 L-149.8 -526.75 -149.25 -519.6 Q-149.25 -518.45 -149.6 -516.05 L-149.95 -513.8 -149.25 -496.5 Q-149.25 -484.0 -152.0 -465.0 -154.75 -446.0 -154.75 -443.9 -154.75 -440.4 -153.1 -430.25 -151.5 -420.15 -151.5 -416.0 L-151.5 -415.3 -151.35 -415.3 -150.5 -400.3 -149.5 -398.8 Q-148.7 -397.45 -148.75 -396.65 L-147.75 -395.7 -145.4 -393.85 -144.0 -392.9 Q-137.5 -388.7 -128.6 -387.3 -120.4 -387.35 -112.05 -380.9 -104.2 -376.35 -98.05 -369.8 -95.75 -367.35 -87.7 -356.95 -81.45 -348.95 -75.65 -344.1 L-74.5 -343.15 -71.35 -338.95 Q-66.95 -333.75 -62.45 -332.25 -54.05 -327.15 -41.0 -324.35 L-36.95 -324.55 -36.35 -324.35 -33.65 -324.35 -33.65 -324.25 -33.7 -324.15 Q-10.5 -326.2 3.2 -333.6 7.45 -335.9 12.95 -340.05 L12.9 -340.1 12.75 -340.3 Q27.5 -351.85 35.95 -365.5 44.6 -379.35 44.65 -392.15 L45.0 -392.15 44.8 -394.25 Q43.35 -410.05 43.35 -415.55 43.35 -420.75 44.5 -429.55 L45.9 -440.3 46.5 -455.75 46.95 -475.05 Q47.1 -481.25 46.85 -493.95 46.65 -506.75 46.75 -513.2 L46.75 -551.75 Q46.2 -554.15 46.2 -559.2 46.2 -567.05 47.05 -572.45 47.9 -577.8 47.9 -582.7 L47.9 -587.35 Q47.85 -591.35 47.3 -593.55 47.0 -594.75 46.75 -598.4 46.2 -599.05 45.8 -600.0 M44.1 -302.8 Q43.9 -304.35 43.2 -306.05 42.35 -308.3 41.25 -308.85 34.35 -306.8 29.7 -300.7 27.0 -297.15 24.3 -290.7 L20.9 -281.0 19.8 -278.25 Q18.7 -269.85 8.8 -261.3 4.6 -257.65 0.1 -255.25 -4.15 -253.0 -6.35 -253.0 L-16.15 -253.4 Q-30.75 -256.3 -39.8 -267.85 L-41.9 -269.95 Q-43.7 -271.4 -45.0 -273.0 L-49.75 -278.7 Q-57.65 -286.75 -61.9 -289.7 -64.15 -291.2 -65.65 -291.8 -69.4 -293.3 -75.45 -293.8 L-81.7 -293.35 Q-82.5 -293.25 -83.95 -294.1 -90.2 -294.45 -96.55 -304.2 -98.35 -306.35 -99.8 -308.85 L-100.7 -310.45 Q-105.4 -314.75 -111.65 -323.65 -118.2 -333.05 -123.05 -337.45 L-124.15 -338.3 Q-129.9 -342.8 -134.85 -344.2 L-140.65 -343.85 -143.1 -343.45 -144.5 -343.1 -144.15 -343.1 Q-145.15 -342.7 -145.75 -342.1 L-145.85 -342.1 -147.9 -340.25 Q-148.4 -339.8 -148.7 -338.85 L-149.1 -338.85 -149.0 -339.2 -149.25 -338.9 Q-149.7 -335.05 -150.7 -328.95 L-151.0 -328.65 -151.3 -329.35 -151.15 -299.1 Q-151.65 -298.1 -151.65 -296.1 -151.65 -286.0 -150.95 -279.45 -149.75 -270.05 -148.8 -259.7 -148.5 -256.55 -149.0 -250.7 -149.5 -244.45 -149.35 -241.65 L-148.85 -232.6 -148.25 -223.6 Q-148.25 -217.55 -147.9 -214.55 -147.35 -209.4 -144.85 -205.45 -143.9 -203.95 -140.5 -201.35 -136.9 -198.55 -134.4 -197.55 L-124.5 -194.8 -121.35 -193.2 -117.7 -191.15 Q-112.4 -187.4 -108.75 -182.2 L-102.4 -173.1 Q-99.9 -170.1 -90.85 -165.05 L-84.9 -160.8 Q-82.8 -159.4 -80.2 -158.45 L-80.2 -158.5 -79.5 -158.95 -68.0 -155.05 -68.8 -155.55 -62.3 -153.55 Q-56.85 -152.1 -44.55 -150.8 L-43.2 -150.7 -24.45 -151.9 Q-11.45 -153.15 -6.9 -154.6 -1.3 -156.4 4.25 -158.65 8.85 -160.4 17.9 -164.95 L22.5 -167.25 Q39.1 -180.95 45.15 -199.6 48.85 -210.9 49.2 -227.45 L48.05 -240.1 46.95 -253.05 Q46.55 -258.35 46.5 -265.65 L46.5 -278.35 45.2 -294.95 44.5 -302.95 44.1 -302.8 M4.7 -129.3 L7.25 -128.9 Q11.25 -128.9 17.75 -130.8 L23.65 -132.75 16.85 -131.45 Q10.8 -129.95 7.95 -129.7 L6.5 -129.85 6.45 -129.85 4.05 -129.45 4.7 -129.3 M57.8 -140.9 L57.8 -141.2 46.0 -138.3 Q36.85 -135.95 33.55 -134.65 45.0 -135.65 49.9 -137.55 52.7 -138.6 57.8 -140.9 M7.7 -66.3 L8.3 -66.55 9.05 -66.3 Q33.3 -66.55 33.65 -66.75 L39.05 -66.75 Q40.25 -66.55 40.35 -66.2 L33.1 -65.45 8.8 -65.55 7.7 -66.3 M-152.75 -605.0 L-152.8 -604.75 -152.5 -605.25 -152.75 -605.0 M-167.55 -76.3 L-152.2 -73.7 Q-151.35 -73.45 -151.25 -73.2 L-152.6 -72.8 Q-166.6 -74.05 -171.5 -75.5 -174.5 -76.4 -179.05 -78.55 L-179.05 -78.95 -178.2 -78.95 Q-177.2 -78.05 -167.55 -76.3 M-33.55 -99.05 L-33.3 -99.0 -31.35 -98.65 Q-30.0 -98.65 -28.85 -99.2 L-28.7 -99.2 -18.4 -98.55 -19.75 -98.35 -19.85 -98.3 -21.85 -98.2 -23.15 -98.25 -26.7 -98.1 -44.4 -97.55 -47.6 -97.55 -59.95 -96.9 Q-77.55 -97.0 -77.75 -97.35 L-81.8 -97.6 -85.9 -97.8 -90.85 -98.1 -91.6 -99.05 -91.55 -99.05 -91.05 -99.0 -90.95 -99.0 -85.85 -98.85 -80.3 -98.35 -77.0 -98.1 -59.5 -98.2 -53.6 -98.45 -47.25 -98.4 -46.75 -98.45 -43.9 -98.9 -35.2 -99.05 -33.55 -99.05 M-158.9 -136.2 Q-157.65 -135.25 -151.9 -134.65 L-151.55 -134.4 -147.25 -134.65 Q-148.8 -135.7 -153.15 -136.65 L-160.8 -138.05 Q-159.65 -136.75 -158.9 -136.2 M-105.9 -128.45 L-111.65 -128.35 Q-110.1 -128.15 -109.75 -127.8 L-104.15 -127.9 -104.95 -128.1 Q-105.75 -128.3 -105.9 -128.45 M-107.6 -99.45 L-107.1 -99.45 -107.55 -99.5 -107.6 -99.45" fill="#a0f7fe" fill-rule="evenodd" stroke="none"/>
  </g>
</svg>
