<?xml version="1.0" encoding="UTF-8" standalone="no"?>
<svg xmlns:ffdec="https://www.free-decompiler.com/flash" xmlns:xlink="http://www.w3.org/1999/xlink" ffdec:objectType="shape" height="108.2px" width="20.15px" xmlns="http://www.w3.org/2000/svg">
  <g transform="matrix(1.0, 0.0, 0.0, 1.0, -193.35, 362.85)">
    <path d="M203.9 -354.65 Q202.9 -355.25 202.45 -355.85 L202.4 -355.85 202.1 -355.85 205.15 -348.15 205.55 -347.05 205.65 -346.75 Q205.8 -346.6 206.1 -346.55 L206.2 -346.75 206.45 -347.1 207.75 -349.8 Q207.75 -351.95 204.95 -354.1 L203.9 -354.65 M206.6 -354.65 L206.7 -354.65 208.05 -353.0 Q209.35 -353.15 209.35 -350.35 L209.05 -348.15 208.5 -347.25 207.9 -346.1 206.95 -345.45 206.35 -343.8 206.3 -343.25 206.25 -342.25 206.05 -335.8 Q206.05 -333.55 207.7 -318.6 L209.6 -301.25 211.65 -285.1 Q213.25 -272.3 213.25 -266.9 L213.25 -264.9 213.5 -264.0 Q213.5 -262.8 212.9 -261.55 212.15 -260.05 210.7 -259.0 L209.35 -257.95 207.55 -257.0 203.7 -256.15 Q202.7 -255.5 202.45 -255.5 L201.95 -255.55 201.95 -255.65 201.9 -255.85 Q201.25 -255.4 200.95 -254.75 L200.55 -254.75 200.55 -254.65 200.5 -255.05 202.1 -259.5 203.45 -263.9 203.55 -268.8 Q203.55 -276.65 201.65 -291.15 199.7 -305.7 199.7 -321.15 L199.75 -328.0 Q199.9 -331.6 200.5 -334.55 L201.25 -339.4 201.2 -339.8 201.5 -341.5 201.5 -341.65 201.7 -342.7 200.25 -343.8 Q198.95 -344.95 198.4 -345.85 L197.85 -346.35 195.6 -348.25 193.85 -348.6 193.4 -349.05 193.35 -349.65 193.45 -350.4 193.35 -350.7 193.6 -351.65 193.5 -352.5 Q193.5 -354.45 194.95 -356.65 L196.7 -359.1 197.0 -360.25 Q197.55 -361.5 198.6 -361.45 199.35 -361.4 199.55 -360.85 L200.35 -360.15 201.85 -357.85 Q203.9 -357.05 205.05 -356.25 L206.1 -355.3 206.6 -354.65 M195.75 -354.55 L195.4 -352.5 195.35 -351.9 195.85 -350.85 196.0 -350.6 196.45 -350.2 Q198.45 -347.8 199.25 -347.25 L200.05 -346.4 201.95 -344.75 202.65 -344.15 202.75 -344.1 Q203.3 -343.75 203.9 -343.5 L204.15 -343.4 204.5 -343.25 204.55 -343.8 204.7 -344.0 203.7 -345.55 202.5 -347.5 201.25 -349.5 201.5 -349.5 203.25 -347.85 203.4 -347.75 204.8 -346.15 204.9 -345.95 204.9 -346.0 204.35 -348.1 202.65 -352.3 Q200.5 -356.9 198.4 -359.55 L198.35 -359.55 197.75 -358.35 198.1 -358.35 Q198.55 -357.3 198.9 -357.0 197.8 -357.25 197.25 -357.65 L196.9 -357.15 195.85 -354.85 195.75 -354.55 M208.0 -349.25 L208.05 -349.4 208.05 -349.7 208.0 -349.25 M197.7 -362.85 L197.9 -362.65 198.0 -362.6 197.85 -362.55 197.7 -362.85 M194.5 -349.75 L194.45 -349.75 194.4 -349.75 194.5 -349.75 M200.55 -323.75 L200.6 -321.1 Q200.6 -318.55 201.15 -308.0 201.65 -297.1 201.95 -294.85 L203.75 -281.8 204.35 -276.05 204.85 -273.25 204.85 -270.0 Q204.85 -265.6 204.55 -263.9 204.05 -261.3 202.1 -256.9 L202.55 -257.1 203.35 -257.3 203.65 -257.3 205.1 -257.65 Q209.0 -258.4 210.45 -259.85 L211.35 -261.15 212.15 -262.5 212.2 -266.8 Q212.2 -270.35 211.2 -278.65 210.2 -286.95 210.2 -290.25 L208.85 -300.15 Q207.45 -310.2 207.2 -313.1 L205.95 -325.7 205.65 -328.5 205.15 -330.25 205.1 -332.05 205.1 -334.25 205.05 -334.3 205.0 -335.0 204.45 -324.85 203.85 -314.6 203.7 -314.5 Q203.3 -315.5 203.3 -317.75 203.3 -322.15 203.7 -328.75 L203.85 -330.6 203.95 -335.0 203.8 -339.25 204.05 -341.8 203.05 -342.05 202.65 -341.55 Q201.6 -336.35 201.45 -334.05 L200.6 -327.4 Q200.5 -326.15 200.55 -323.75" fill="#480000" fill-rule="evenodd" stroke="none"/>
    <path d="M203.9 -354.65 L204.95 -354.1 Q207.75 -351.95 207.75 -349.8 L206.45 -347.1 206.2 -346.75 206.1 -346.55 Q205.8 -346.6 205.65 -346.75 L205.55 -347.05 205.15 -348.15 202.1 -355.85 202.4 -355.85 202.45 -355.85 Q202.9 -355.25 203.9 -354.65 M203.4 -347.75 L203.3 -347.85 203.25 -347.9 Q199.05 -352.2 195.75 -354.55 L195.85 -354.85 196.9 -357.15 197.25 -357.65 Q197.8 -357.25 198.9 -357.0 198.55 -357.3 198.1 -358.35 L197.75 -358.35 198.35 -359.55 198.4 -359.55 Q200.5 -356.9 202.65 -352.3 L204.35 -348.1 204.9 -346.0 204.8 -346.15 203.4 -347.75 M200.55 -323.75 Q200.5 -326.15 200.6 -327.4 L201.45 -334.05 Q201.6 -336.35 202.65 -341.55 L203.05 -342.05 204.05 -341.8 203.8 -339.25 203.95 -335.0 203.85 -330.6 203.7 -328.75 Q203.3 -322.15 203.3 -317.75 203.3 -315.5 203.7 -314.5 L203.85 -314.6 204.45 -324.85 205.0 -335.0 205.05 -334.3 205.1 -334.25 205.1 -332.05 205.15 -330.25 205.65 -328.5 205.95 -325.7 207.2 -313.1 Q207.45 -310.2 208.85 -300.15 L210.2 -290.25 Q210.2 -286.95 211.2 -278.65 212.2 -270.35 212.2 -266.8 L212.15 -262.5 211.35 -261.15 210.45 -259.85 Q209.0 -258.4 205.1 -257.65 L203.65 -257.3 203.35 -257.3 202.55 -257.1 202.1 -256.9 Q204.05 -261.3 204.55 -263.9 204.85 -265.6 204.85 -270.0 L204.85 -273.25 204.35 -276.05 203.75 -281.8 201.95 -294.85 Q201.65 -297.1 201.15 -308.0 200.6 -318.55 200.6 -321.1 L200.55 -323.75" fill="#990000" fill-rule="evenodd" stroke="none"/>
    <path d="M203.4 -347.75 L203.25 -347.85 201.5 -349.5 201.25 -349.5 202.5 -347.5 203.7 -345.55 204.7 -344.0 204.55 -343.8 204.5 -343.25 204.15 -343.4 203.9 -343.5 Q203.3 -343.75 202.75 -344.1 L202.65 -344.15 201.95 -344.75 200.05 -346.4 199.25 -347.25 Q198.45 -347.8 196.45 -350.2 L196.0 -350.6 195.85 -350.85 195.35 -351.9 195.4 -352.5 195.75 -354.55 Q199.05 -352.2 203.25 -347.9 L203.3 -347.85 203.4 -347.75 M204.9 -346.0 L204.9 -345.95 204.8 -346.15 204.9 -346.0" fill="#720e3e" fill-rule="evenodd" stroke="none"/>
  </g>
</svg>
