<?xml version="1.0" encoding="UTF-8" standalone="no"?>
<svg xmlns:ffdec="https://www.free-decompiler.com/flash" xmlns:xlink="http://www.w3.org/1999/xlink" ffdec:objectType="shape" height="419.15px" width="406.4px" xmlns="http://www.w3.org/2000/svg">
  <g transform="matrix(1.0, 0.0, 0.0, 1.0, 215.9, 450.55)">
    <path d="M24.1 -307.35 L24.0 -307.35 23.9 -308.65 24.0 -309.5 24.1 -307.35 M23.3 -318.25 L23.3 -318.3 23.35 -318.3 23.5 -317.05 23.3 -318.25 M67.65 -352.85 L67.6 -352.6 67.6 -352.75 67.65 -352.85 M8.6 -420.4 L9.15 -416.85 10.1 -412.1 10.55 -412.1 10.65 -415.2 10.3 -418.3 Q9.8 -421.3 9.05 -422.9 8.4 -422.65 8.6 -420.4 M7.3 -426.85 Q6.5 -431.6 5.8 -433.25 L5.05 -434.6 5.15 -437.8 5.2 -438.15 Q4.35 -439.75 2.5 -440.5 L-0.3 -441.45 -2.25 -441.45 -4.85 -441.15 -6.3 -440.7 -7.1 -440.4 -8.35 -439.15 -9.3 -437.85 -10.3 -435.1 -11.15 -432.35 -11.85 -426.9 -12.4 -421.65 Q-14.5 -420.3 -15.45 -416.95 L-16.7 -411.75 -17.45 -407.25 -17.25 -407.25 Q-18.2 -398.0 -17.5 -390.55 L-17.4 -388.45 Q-17.4 -387.85 -17.0 -387.6 L-16.25 -386.85 Q-16.0 -386.25 -16.05 -384.85 L-16.0 -382.7 Q-16.35 -379.85 -16.25 -374.05 L-18.1 -357.6 -18.15 -356.85 -18.6 -355.9 -18.9 -355.0 -13.7 -354.2 Q-11.15 -353.65 -9.6 -351.85 L-9.7 -351.5 -9.7 -351.45 -10.85 -351.75 -10.0 -349.3 -9.05 -346.75 -8.1 -341.9 -8.05 -341.9 -8.0 -343.0 -7.8 -343.0 -7.4 -340.1 -7.4 -330.5 -6.5 -316.2 Q-5.75 -303.4 -5.75 -301.0 L-5.8 -299.4 Q-5.65 -297.9 -5.9 -296.75 L-5.9 -286.25 -5.65 -285.65 -5.65 -273.75 Q-5.35 -273.25 -5.35 -272.6 -5.35 -269.45 -5.65 -265.75 -5.9 -262.75 -6.25 -260.65 L-6.15 -256.65 Q-6.15 -253.5 -6.4 -251.85 L-6.4 -241.0 -6.8 -236.85 -6.8 -223.65 -7.05 -222.9 -7.0 -207.4 -6.5 -201.9 -6.25 -195.65 -6.25 -193.95 -6.25 -193.75 -4.25 -192.55 -1.45 -191.9 1.0 -191.4 3.55 -190.65 6.45 -190.0 10.25 -189.05 Q11.55 -188.65 11.75 -188.3 L11.6 -188.15 15.75 -187.4 15.5 -188.0 15.75 -189.55 15.65 -189.55 15.5 -189.65 15.5 -190.1 16.4 -194.6 Q17.3 -198.95 17.3 -200.25 17.3 -201.8 17.75 -205.2 L18.15 -210.15 18.3 -210.25 Q19.0 -208.5 19.4 -207.85 20.95 -210.5 21.25 -215.15 L21.65 -222.9 21.65 -232.5 21.75 -235.4 21.55 -239.25 21.15 -241.2 21.0 -241.45 Q20.55 -242.25 20.5 -242.9 L20.25 -245.3 20.65 -253.4 21.2 -257.3 21.65 -261.5 21.4 -268.25 20.55 -271.6 Q19.9 -273.8 19.9 -274.8 19.9 -282.95 22.35 -285.3 23.55 -286.45 26.5 -287.85 L26.65 -287.9 27.35 -289.25 27.4 -289.35 Q27.25 -290.7 27.35 -292.1 27.25 -295.3 25.85 -299.65 L25.5 -305.25 25.35 -310.35 24.95 -316.65 Q24.45 -319.6 23.75 -321.85 L23.75 -324.5 Q23.75 -327.65 23.3 -330.35 L22.35 -334.5 20.0 -348.6 Q19.25 -352.3 18.0 -359.95 L17.05 -364.45 Q15.65 -378.75 14.9 -383.05 L14.25 -386.95 13.9 -388.75 Q13.35 -390.05 12.2 -390.15 11.45 -391.75 11.1 -393.75 L10.5 -397.45 Q9.85 -401.4 8.75 -412.95 L7.3 -426.85 M31.15 -428.3 L30.7 -428.3 Q31.0 -424.45 32.0 -417.5 L32.95 -410.5 34.2 -404.4 34.65 -401.1 Q35.0 -399.15 36.05 -398.05 L36.55 -398.3 34.3 -412.35 Q32.4 -423.7 31.15 -428.3 M21.9 -450.55 L30.15 -449.9 Q33.35 -448.85 37.15 -447.1 L37.3 -446.1 Q37.3 -444.55 36.4 -443.9 L34.45 -443.15 Q32.0 -442.35 31.9 -439.25 L32.05 -438.65 32.8 -434.5 32.65 -433.75 33.2 -431.55 Q34.15 -425.85 33.7 -422.65 L37.65 -398.85 37.8 -398.55 40.5 -382.35 40.55 -382.1 41.55 -376.25 42.7 -369.7 44.0 -361.25 Q44.7 -355.05 43.65 -354.05 42.15 -355.05 42.25 -356.45 L42.2 -356.45 43.35 -341.3 Q43.5 -338.3 44.55 -332.45 L45.6 -326.55 46.25 -322.3 Q46.85 -318.4 47.45 -316.4 48.55 -312.5 49.6 -310.5 50.45 -309.05 50.9 -306.4 L50.95 -305.5 69.1 -307.25 Q71.45 -307.5 75.25 -307.2 79.65 -306.9 82.0 -306.0 L82.0 -305.95 85.55 -305.85 89.65 -305.35 Q93.25 -304.7 94.65 -304.05 96.15 -303.4 96.15 -302.3 L95.8 -299.75 95.75 -299.6 Q96.1 -299.05 97.1 -298.75 L101.9 -296.8 Q105.15 -295.5 106.25 -294.8 107.75 -293.85 107.75 -292.8 107.75 -290.4 102.85 -288.25 99.75 -286.85 97.95 -286.55 99.1 -285.35 99.35 -283.65 L99.5 -280.35 100.0 -277.3 100.5 -274.05 Q100.6 -272.1 101.4 -267.75 L102.25 -261.25 Q102.35 -258.0 104.85 -246.65 L107.25 -235.65 108.5 -230.15 110.05 -222.75 Q110.35 -220.2 111.5 -216.45 L113.5 -210.1 113.65 -210.0 115.85 -210.3 117.15 -210.05 Q117.5 -209.75 118.05 -209.65 L125.3 -209.3 127.7 -209.35 132.4 -210.1 143.15 -210.2 146.8 -209.9 Q155.2 -209.0 159.05 -207.0 L163.6 -204.3 163.5 -203.0 Q163.5 -202.35 164.0 -201.95 L165.6 -200.15 165.6 -198.7 166.15 -198.3 166.65 -197.75 Q172.85 -196.45 174.6 -194.85 175.65 -193.9 175.7 -191.5 L176.1 -183.9 175.65 -169.4 175.05 -155.6 175.45 -155.95 175.35 -147.35 Q175.35 -144.45 175.8 -141.05 176.3 -137.4 177.15 -134.8 177.95 -132.3 177.95 -127.35 L177.85 -122.15 177.4 -115.1 176.65 -108.55 Q176.45 -106.9 176.55 -101.8 L176.35 -97.15 176.4 -96.4 185.6 -99.35 185.05 -98.8 185.4 -99.15 185.7 -99.25 186.2 -98.75 Q186.05 -98.0 184.45 -96.95 L185.25 -97.25 185.3 -97.25 186.15 -97.55 185.95 -97.15 185.1 -95.15 Q184.55 -94.4 184.1 -93.35 L183.55 -92.2 Q182.2 -89.4 182.2 -88.65 L182.3 -87.85 Q182.35 -87.35 182.5 -87.3 L182.7 -87.45 183.75 -87.7 186.3 -88.5 187.45 -88.9 190.5 -89.75 186.55 -86.4 182.85 -82.75 182.0 -82.35 179.3 -80.95 176.45 -78.9 174.5 -77.35 174.05 -76.85 174.15 -76.9 172.95 -75.85 172.05 -74.8 171.95 -74.7 171.75 -74.5 171.55 -74.25 171.5 -74.15 171.4 -74.1 170.2 -73.25 170.25 -73.2 170.3 -73.1 170.4 -72.95 169.85 -72.55 168.6 -71.55 168.15 -71.0 163.55 -67.55 161.15 -65.35 160.85 -65.05 158.45 -63.15 154.9 -60.05 153.55 -58.8 153.45 -58.65 Q149.85 -57.8 148.05 -56.85 L135.75 -53.4 130.15 -53.0 124.5 -52.9 121.15 -53.4 120.6 -53.5 117.15 -54.15 115.8 -53.9 115.8 -53.4 115.75 -52.9 115.8 -52.15 Q116.0 -51.55 118.0 -50.85 L114.6 -50.05 111.4 -49.2 110.15 -48.7 109.15 -48.5 109.05 -48.45 108.55 -48.3 108.25 -48.15 105.75 -47.4 105.15 -47.35 105.1 -47.35 104.05 -47.2 103.35 -47.1 103.3 -47.05 Q102.4 -46.0 98.35 -45.35 L98.15 -45.35 97.9 -45.35 97.7 -45.35 97.5 -45.35 94.05 -45.15 91.9 -44.75 86.25 -42.9 85.5 -42.7 Q84.6 -41.5 83.55 -41.35 L78.9 -41.5 77.55 -41.25 77.45 -41.25 77.15 -41.25 76.2 -41.25 75.9 -41.25 76.55 -41.35 63.1 -40.5 Q56.6 -39.0 55.5 -38.05 L44.0 -36.45 43.9 -36.45 43.75 -36.45 42.65 -36.45 36.0 -35.9 32.25 -35.5 29.25 -35.1 Q21.1 -34.1 18.0 -33.2 L7.85 -32.0 5.4 -31.7 2.9 -31.7 Q-1.45 -32.15 -4.9 -31.65 L-20.55 -31.55 -27.5 -31.9 -35.6 -31.6 -36.25 -31.55 -37.35 -31.4 -43.6 -32.0 -43.7 -32.3 Q-63.2 -32.65 -76.9 -34.35 L-85.2 -34.4 -87.0 -34.5 -85.6 -34.05 -88.95 -34.7 -89.7 -34.85 -90.0 -34.95 -95.0 -35.85 -100.7 -37.0 -98.5 -36.8 -99.9 -37.5 -101.3 -38.25 -102.5 -38.9 -105.0 -39.4 -114.15 -41.35 -118.1 -41.5 -120.55 -42.9 Q-123.25 -44.45 -125.55 -45.4 L-126.35 -45.7 -121.7 -45.45 Q-124.3 -47.55 -131.2 -49.45 -136.55 -51.05 -141.75 -51.5 -143.6 -53.0 -148.25 -54.65 L-148.5 -54.75 -149.3 -54.95 -149.45 -55.05 -154.25 -56.55 -157.35 -58.2 -158.4 -58.65 -157.8 -58.6 Q-158.95 -59.25 -161.25 -60.3 L-161.85 -60.6 -161.9 -60.6 -163.6 -61.35 -164.55 -61.7 -164.6 -61.7 -164.65 -61.55 -166.0 -61.95 -172.3 -64.0 -172.4 -64.0 -172.65 -64.1 -175.6 -64.9 -175.9 -64.9 -176.45 -65.05 -177.5 -65.4 -177.95 -65.55 Q-179.4 -66.1 -180.35 -66.7 L-180.75 -67.0 -181.85 -68.1 -182.05 -68.3 -183.1 -69.1 -183.3 -69.6 -182.6 -69.15 -182.4 -69.05 -180.25 -67.75 -180.25 -68.3 Q-181.55 -70.2 -183.15 -71.9 L-183.75 -72.55 Q-186.7 -75.6 -190.5 -78.35 L-191.75 -79.1 Q-192.7 -81.0 -194.9 -83.1 L-195.0 -83.15 Q-195.6 -83.8 -196.35 -84.3 L-196.45 -84.45 -197.4 -85.15 -197.95 -85.55 -205.15 -90.2 Q-202.8 -90.1 -199.7 -88.75 L-199.25 -88.8 -201.95 -91.2 -203.3 -92.5 -204.6 -93.95 -206.35 -95.05 -206.95 -95.45 -209.95 -96.95 -210.15 -97.3 -211.05 -97.85 -211.4 -97.8 -212.6 -99.45 -215.9 -103.9 -212.75 -104.8 -210.35 -105.55 -210.1 -105.65 -209.8 -106.15 -209.7 -106.15 -208.25 -112.0 -207.65 -115.25 -207.0 -118.5 Q-205.7 -122.5 -205.4 -125.3 -205.25 -126.85 -205.25 -131.45 -205.25 -133.55 -204.6 -135.4 -203.85 -137.65 -202.3 -139.1 -202.15 -138.9 -202.15 -138.55 L-202.0 -138.8 -202.05 -138.75 -202.1 -139.2 -201.25 -141.3 -200.0 -143.3 Q-198.25 -144.95 -198.5 -145.65 L-199.1 -147.3 Q-199.1 -148.1 -198.5 -148.55 L-197.75 -148.5 -197.45 -148.3 Q-197.3 -148.2 -197.3 -147.8 -197.3 -147.25 -197.8 -145.8 L-198.3 -144.1 -198.25 -143.7 -198.25 -143.8 -198.1 -143.6 Q-197.65 -144.1 -197.6 -144.8 L-197.5 -145.8 Q-197.5 -146.25 -196.9 -146.95 L-196.05 -148.0 -195.35 -150.25 Q-194.9 -151.85 -194.25 -152.75 -193.65 -153.5 -193.5 -155.0 L-193.25 -157.4 Q-192.75 -158.55 -191.75 -162.0 -190.75 -164.75 -189.5 -171.25 L-187.55 -179.0 -187.8 -179.0 -187.1 -182.0 -187.5 -184.55 -187.9 -187.15 -187.65 -190.6 -187.4 -193.55 -187.65 -195.8 Q-187.65 -198.1 -186.9 -201.75 L-185.75 -207.6 Q-184.25 -215.0 -182.6 -219.35 -182.2 -220.35 -181.95 -222.3 L-181.4 -225.3 -180.35 -228.1 Q-179.8 -229.8 -179.75 -231.1 L-179.4 -233.9 Q-179.15 -235.75 -179.25 -236.9 -179.3 -237.75 -178.6 -239.7 -177.8 -241.75 -177.8 -242.7 L-178.5 -244.4 Q-178.5 -245.05 -178.15 -245.4 L-177.25 -245.4 Q-176.75 -244.15 -177.1 -242.65 L-177.0 -242.5 Q-176.1 -243.3 -175.6 -245.0 L-174.85 -248.1 Q-174.35 -250.65 -174.35 -253.6 -174.35 -254.25 -174.7 -255.15 L-174.75 -255.05 -175.0 -255.0 -174.95 -255.6 -175.05 -255.75 -174.95 -255.75 -174.85 -264.75 -174.55 -264.55 -174.75 -267.15 -174.6 -269.7 -174.4 -272.25 -175.0 -272.35 -175.0 -274.35 -175.65 -273.25 -176.1 -271.9 -175.9 -269.5 Q-175.9 -268.8 -176.3 -267.9 -176.7 -267.05 -176.6 -265.8 -176.5 -263.2 -176.75 -262.25 L-176.8 -262.15 Q-177.55 -263.15 -177.5 -264.4 L-177.25 -266.5 -176.75 -279.4 -176.3 -291.05 -176.6 -290.9 -176.55 -293.75 -176.6 -296.4 Q-176.75 -297.55 -177.25 -298.4 -183.35 -299.65 -185.8 -302.7 L-188.05 -305.55 Q-189.55 -306.95 -192.15 -307.35 L-192.15 -307.45 -193.25 -307.75 -193.95 -308.9 -194.5 -310.05 Q-194.5 -311.5 -192.0 -312.4 -189.5 -313.3 -183.8 -313.9 L-174.5 -314.05 -170.8 -313.95 -169.75 -314.15 Q-167.95 -314.45 -165.0 -314.1 L-161.6 -313.85 -160.15 -313.6 -150.5 -312.1 -150.25 -313.0 -149.55 -312.9 -149.25 -313.3 -149.0 -314.0 -149.35 -314.8 Q-149.75 -315.4 -149.75 -315.75 L-149.55 -315.9 -148.75 -315.2 -148.0 -314.05 Q-147.55 -313.4 -146.25 -312.4 L-144.7 -315.1 Q-143.75 -316.85 -143.05 -317.4 -141.8 -318.45 -139.55 -322.05 -139.1 -322.75 -137.45 -327.2 -135.65 -331.9 -135.65 -332.65 L-135.7 -333.15 -135.8 -333.15 -136.3 -333.25 -136.45 -333.4 -136.5 -333.85 -133.85 -340.8 -130.25 -350.3 Q-129.85 -351.55 -129.35 -354.3 L-128.5 -358.55 -127.5 -362.75 Q-126.95 -364.65 -126.05 -365.8 L-125.1 -368.25 -123.5 -372.25 -121.25 -378.75 Q-119.8 -382.85 -119.55 -385.3 -119.45 -386.85 -117.15 -387.6 L-114.4 -388.25 -108.25 -390.05 -107.75 -390.0 Q-107.65 -391.25 -106.2 -392.1 -103.85 -393.5 -98.5 -393.5 L-93.9 -393.45 -89.25 -393.25 -82.9 -393.05 -81.9 -392.8 -77.9 -392.55 -75.9 -392.3 -73.65 -392.0 -72.8 -391.9 -72.2 -391.1 -72.0 -390.75 Q-72.0 -390.4 -72.5 -389.8 L-73.0 -389.25 Q-72.35 -387.9 -72.15 -385.95 L-71.9 -382.0 -71.5 -377.9 Q-70.6 -373.35 -70.0 -366.8 L-69.5 -360.25 Q-69.3 -358.6 -67.9 -357.05 L-66.9 -356.15 -62.85 -357.2 Q-58.55 -358.25 -52.75 -358.75 L-52.75 -358.85 -49.9 -358.8 -46.9 -358.65 -45.75 -358.4 -40.1 -358.05 Q-39.9 -358.0 -39.85 -357.85 L-27.0 -356.45 -26.95 -357.45 -26.75 -357.4 -26.6 -358.05 -26.35 -362.15 Q-25.75 -366.6 -25.8 -368.05 L-25.85 -373.8 Q-25.9 -377.6 -25.6 -379.95 L-25.15 -384.55 Q-24.7 -388.85 -23.6 -391.05 -22.5 -393.35 -21.65 -396.55 -20.85 -399.5 -20.55 -402.05 L-19.8 -409.6 -19.4 -409.3 -18.65 -421.35 -17.55 -434.1 -16.45 -440.75 Q-16.15 -442.85 -15.0 -443.65 -13.55 -444.7 -9.75 -445.55 L-9.85 -445.9 Q-9.55 -446.65 -8.7 -447.4 L-8.05 -447.75 -5.0 -449.0 -0.95 -449.9 -0.8 -449.9 -0.75 -449.9 Q7.15 -450.6 21.9 -450.55 M71.05 -281.85 Q57.0 -281.25 52.55 -279.5 50.75 -278.05 49.15 -277.5 46.4 -275.15 45.5 -272.45 44.85 -270.55 44.85 -266.0 L44.4 -259.1 44.5 -252.35 44.2 -245.65 Q44.25 -240.65 43.85 -237.9 L44.0 -233.0 Q44.0 -230.15 42.1 -228.25 L41.3 -228.25 41.0 -228.65 40.3 -228.75 39.95 -229.2 Q39.05 -228.3 38.65 -226.45 L38.25 -223.25 Q38.15 -222.05 38.2 -220.15 L38.25 -217.05 38.15 -209.5 38.0 -204.6 37.7 -203.1 37.8 -201.6 38.25 -201.3 38.75 -202.5 39.15 -202.55 39.65 -196.25 Q39.9 -192.55 40.75 -190.1 41.1 -190.15 42.0 -191.55 L42.8 -193.15 42.5 -193.9 42.15 -194.65 42.35 -195.55 43.0 -196.5 43.6 -196.5 43.5 -196.8 43.3 -196.8 Q42.75 -196.8 42.35 -197.55 L42.1 -198.3 42.5 -198.85 42.85 -199.25 44.05 -197.75 44.05 -197.5 44.2 -197.5 44.5 -197.95 Q44.7 -198.2 44.85 -197.85 L44.9 -197.5 44.7 -197.35 44.85 -197.1 44.65 -196.5 44.3 -196.35 44.8 -194.75 Q44.8 -194.15 44.45 -193.95 L43.8 -193.3 43.6 -191.9 Q43.6 -190.95 44.1 -190.05 L44.6 -188.65 Q44.6 -185.1 43.7 -184.1 42.75 -183.05 42.75 -180.15 L43.4 -175.95 44.0 -171.75 44.05 -163.45 Q44.05 -160.55 43.5 -159.05 44.2 -156.0 44.55 -151.35 L45.25 -142.15 Q46.65 -130.2 47.65 -124.0 48.7 -117.2 50.3 -111.75 L50.9 -111.5 Q55.95 -109.25 60.9 -109.25 71.25 -109.25 74.65 -110.85 L76.4 -112.0 Q77.25 -112.5 78.65 -112.5 L79.9 -112.35 81.15 -112.1 81.65 -111.35 82.05 -110.6 81.85 -110.45 83.85 -109.55 84.35 -108.95 86.15 -106.4 86.2 -106.3 86.45 -105.95 88.0 -103.0 88.6 -103.0 Q89.2 -102.1 90.45 -101.15 L90.6 -101.05 90.55 -103.4 91.25 -110.65 91.95 -118.9 91.95 -119.05 92.65 -119.2 93.55 -118.7 94.65 -117.6 Q96.9 -121.0 98.2 -124.85 99.7 -129.35 99.5 -133.3 100.7 -144.1 100.7 -149.7 L100.7 -154.0 Q100.55 -158.0 100.0 -160.15 99.8 -160.95 99.3 -161.2 98.7 -161.5 98.4 -162.25 98.1 -163.05 98.0 -164.9 97.6 -167.3 97.6 -169.9 97.2 -169.65 96.9 -168.85 L96.2 -167.6 95.6 -167.7 95.4 -167.9 Q95.2 -168.0 95.2 -168.6 L96.0 -183.2 96.3 -186.95 96.4 -190.65 Q96.15 -194.8 97.6 -197.8 L98.45 -198.05 98.45 -198.2 97.8 -198.45 98.0 -198.75 98.5 -198.85 98.6 -199.1 99.05 -199.4 100.05 -199.3 Q100.3 -199.55 100.35 -199.2 L103.75 -199.85 Q103.6 -200.2 103.75 -200.6 L104.0 -202.15 103.55 -204.45 102.85 -206.55 Q102.7 -207.3 102.7 -208.75 L102.6 -210.9 100.75 -219.4 Q100.35 -221.05 99.1 -227.9 98.1 -233.35 97.05 -236.5 L97.1 -236.6 97.4 -236.75 Q97.75 -236.0 98.65 -234.8 L99.65 -233.15 99.85 -233.15 100.05 -235.05 Q100.05 -237.45 98.25 -246.75 96.0 -258.05 94.0 -258.05 93.6 -258.05 92.45 -262.9 L90.5 -270.5 Q88.25 -277.3 84.7 -282.75 L83.55 -283.0 80.45 -282.7 77.3 -282.35 74.15 -282.1 71.05 -281.85 M43.85 -214.35 L43.4 -214.15 43.25 -214.55 43.3 -214.9 43.75 -214.9 43.85 -214.35 M42.95 -212.9 L43.3 -213.05 43.7 -212.9 43.85 -212.4 43.8 -211.8 43.3 -211.5 Q42.8 -211.75 42.8 -212.4 42.8 -212.8 42.95 -212.9 M42.85 -207.45 L43.1 -207.0 43.0 -206.35 Q42.9 -206.15 42.6 -206.05 42.0 -206.55 42.0 -207.15 L42.0 -207.75 Q42.55 -207.75 42.85 -207.45 M43.7 -204.25 L43.25 -204.3 43.25 -204.35 43.05 -204.4 43.0 -204.8 43.2 -205.35 43.55 -205.5 44.35 -204.75 44.25 -204.35 43.7 -204.25 M155.5 -192.2 L155.4 -192.2 153.55 -191.3 Q151.8 -190.65 150.6 -190.7 L143.45 -190.7 142.0 -190.3 140.0 -190.1 137.5 -190.35 135.6 -190.8 133.9 -190.9 132.0 -191.2 126.55 -191.4 126.25 -191.7 122.1 -191.4 Q119.1 -191.2 116.95 -190.45 L116.45 -189.7 116.15 -189.3 116.3 -189.05 116.35 -188.95 115.95 -189.0 115.15 -188.1 114.95 -188.1 Q114.2 -186.45 113.6 -181.75 L112.9 -174.35 112.35 -165.3 Q111.75 -159.0 111.75 -156.05 L112.5 -143.35 112.2 -141.45 113.0 -120.0 Q113.0 -114.7 112.6 -111.65 L112.25 -106.95 Q111.8 -104.2 110.15 -104.75 109.35 -102.05 109.35 -100.75 L109.45 -100.45 109.9 -95.7 113.65 -94.3 Q114.6 -94.8 115.75 -95.65 118.55 -97.75 119.1 -97.75 L119.3 -97.45 118.35 -96.4 116.95 -95.15 118.5 -94.95 119.2 -94.15 Q118.95 -93.4 118.5 -93.25 L117.35 -93.15 116.75 -92.75 120.0 -90.6 127.0 -88.2 131.45 -87.7 137.75 -87.25 143.65 -87.4 145.55 -87.85 Q147.55 -88.55 150.4 -89.75 L151.05 -90.0 Q151.15 -90.5 152.1 -91.8 153.3 -93.5 154.25 -93.85 L154.5 -92.0 154.5 -91.25 157.5 -92.0 Q157.55 -91.9 158.55 -91.15 L167.7 -93.8 167.7 -94.1 167.8 -96.6 167.8 -115.4 Q168.6 -122.0 168.6 -125.25 L168.85 -127.7 Q168.95 -129.3 169.3 -130.0 L170.1 -130.85 Q170.55 -131.15 170.6 -131.8 L171.0 -134.2 Q172.5 -142.7 172.65 -153.3 L172.85 -153.3 172.6 -158.4 172.0 -164.35 Q171.4 -168.2 169.45 -169.7 L169.55 -175.7 169.45 -181.95 168.95 -185.05 168.25 -188.2 167.45 -189.7 166.35 -191.1 165.55 -191.45 164.15 -192.0 161.6 -192.3 155.5 -192.2 M93.75 -125.4 Q93.75 -123.45 93.05 -121.35 L92.05 -122.0 91.85 -122.35 92.1 -125.7 Q92.45 -127.95 93.05 -128.35 93.75 -127.35 93.75 -125.4 M19.75 -156.3 L20.3 -155.15 20.15 -154.85 Q22.1 -154.55 22.45 -151.2 22.35 -146.15 22.5 -144.65 21.6 -142.25 22.15 -138.3 22.45 -136.05 23.5 -131.9 L23.5 -112.8 Q25.0 -96.6 25.0 -93.1 L25.0 -90.05 25.4 -89.5 26.5 -89.9 27.65 -90.35 28.15 -90.0 27.1 -88.85 28.95 -90.0 34.75 -92.35 35.05 -93.1 35.75 -94.25 Q37.2 -95.7 38.7 -96.4 41.05 -97.55 42.25 -95.85 L42.3 -95.75 Q43.25 -96.1 44.05 -96.6 44.3 -99.15 44.95 -100.8 45.55 -102.4 45.55 -104.0 L44.8 -122.0 Q44.8 -125.65 41.3 -147.3 40.45 -151.4 39.8 -159.65 38.55 -166.55 34.05 -171.5 L32.8 -171.8 Q28.55 -171.8 22.25 -166.45 16.55 -161.6 16.55 -160.05 16.65 -158.95 17.1 -157.95 17.95 -156.05 19.75 -156.3 M85.8 -43.1 L85.75 -43.15 85.7 -43.05 85.8 -43.1 M-23.3 -347.6 L-30.65 -346.5 -38.15 -345.15 -42.5 -344.8 -45.25 -344.8 -54.0 -345.1 -56.75 -345.25 -56.85 -345.4 -60.5 -345.25 -63.1 -344.85 -65.25 -344.1 -65.3 -344.15 Q-67.6 -342.35 -68.25 -339.95 L-69.05 -334.6 Q-70.2 -329.4 -71.0 -324.0 L-72.15 -313.3 -73.3 -302.65 Q-73.9 -298.5 -75.05 -291.95 L-77.0 -281.3 -77.7 -275.6 -77.85 -274.8 -77.9 -274.45 -78.0 -274.5 -79.5 -271.9 -79.6 -271.5 -79.65 -270.7 -80.35 -268.75 Q-80.5 -266.85 -80.75 -265.9 -81.05 -264.65 -80.85 -263.15 L-80.75 -262.4 -80.6 -262.75 Q-79.85 -264.3 -79.0 -264.75 -78.5 -265.05 -78.5 -266.0 L-78.8 -266.55 -79.1 -267.15 -78.85 -267.6 -78.65 -267.75 -78.0 -267.6 -77.8 -266.3 -77.85 -265.7 -77.8 -265.65 -77.75 -265.1 Q-77.75 -262.85 -78.75 -261.75 -79.8 -260.65 -79.8 -259.8 L-79.75 -258.75 Q-79.9 -258.5 -79.25 -258.5 -78.5 -258.5 -77.5 -259.1 L-77.05 -259.05 Q-76.9 -258.95 -76.9 -258.55 -76.9 -258.15 -77.85 -257.2 L-78.05 -256.95 -78.05 -256.65 Q-78.05 -256.05 -78.3 -255.7 L-77.95 -254.7 -77.75 -254.3 -77.85 -254.0 -77.85 -254.05 -77.85 -253.65 Q-77.85 -250.25 -83.0 -247.3 -88.4 -244.2 -97.75 -242.65 L-99.15 -242.4 Q-99.75 -237.2 -100.0 -228.15 L-100.2 -221.9 -100.2 -218.45 -100.25 -213.8 Q-100.5 -210.85 -101.4 -209.2 -101.85 -204.0 -101.45 -195.95 -100.95 -184.8 -101.5 -179.85 -101.7 -177.9 -103.15 -176.3 -104.55 -174.75 -104.65 -173.1 L-105.05 -169.05 -105.45 -165.05 -105.95 -148.95 Q-107.95 -121.65 -107.95 -117.15 L-107.9 -116.55 -107.85 -116.7 -107.85 -100.3 -107.15 -93.35 -106.85 -89.15 -106.7 -89.15 -106.6 -89.15 -102.9 -89.3 -102.9 -89.35 -99.55 -89.6 -99.55 -89.85 -99.55 -90.1 -99.9 -90.5 -99.6 -90.8 -99.5 -90.85 Q-99.45 -93.5 -98.9 -95.0 L-97.9 -94.85 Q-97.9 -94.45 -98.4 -93.75 -97.7 -93.05 -96.55 -92.6 L-96.3 -93.85 -95.85 -93.5 -95.8 -94.1 -95.3 -94.1 -95.05 -93.65 -94.9 -93.85 Q-94.6 -93.55 -93.5 -93.1 -92.25 -92.6 -91.4 -92.6 L-89.4 -92.7 -85.65 -93.85 Q-86.2 -95.2 -85.9 -95.4 L-85.55 -95.35 -86.9 -96.85 Q-86.9 -97.6 -86.4 -98.0 -83.7 -96.1 -82.9 -96.1 -81.85 -96.1 -80.0 -98.95 L-78.7 -100.7 -78.6 -103.95 Q-78.55 -106.6 -77.75 -108.15 L-77.6 -116.75 -77.4 -118.9 -77.6 -121.35 Q-77.6 -127.4 -77.25 -129.5 L-75.25 -139.9 -75.35 -144.5 Q-75.3 -147.15 -74.35 -148.9 L-73.65 -149.45 Q-73.15 -149.65 -73.0 -150.05 -72.85 -150.55 -72.85 -152.3 -72.35 -153.8 -72.35 -156.8 -72.35 -159.4 -72.5 -160.9 L-72.6 -159.9 -73.0 -159.3 -73.25 -159.6 -73.35 -160.6 -73.5 -160.55 -74.25 -160.55 -74.35 -160.45 -74.5 -161.3 Q-74.5 -163.35 -71.5 -167.2 L-68.75 -170.3 -66.0 -173.35 Q-62.45 -177.05 -60.1 -178.55 L-58.35 -180.95 Q-57.1 -182.0 -54.0 -182.8 L-47.3 -184.75 -41.5 -186.4 -34.65 -188.05 -29.35 -189.75 Q-21.4 -192.25 -18.0 -192.65 L-13.45 -193.3 -13.55 -193.55 -13.75 -193.5 -14.0 -193.65 -14.1 -194.15 -13.75 -195.8 -13.75 -196.0 -13.65 -196.1 Q-13.35 -197.25 -13.35 -198.0 L-13.3 -201.55 -12.75 -208.9 -13.35 -211.75 -14.0 -214.7 -13.5 -219.25 -14.0 -224.25 -13.8 -229.05 -14.3 -229.5 -14.9 -230.0 -15.1 -231.55 Q-15.1 -232.7 -14.7 -233.25 -14.2 -233.95 -13.9 -235.4 L-13.85 -237.3 Q-13.7 -238.5 -12.75 -239.15 L-12.25 -238.55 Q-12.25 -238.05 -12.7 -236.85 L-13.0 -236.0 -13.0 -235.5 -13.0 -235.35 Q-11.7 -236.95 -11.4 -240.25 L-10.65 -244.65 -10.65 -246.0 Q-10.65 -247.15 -11.1 -248.35 -11.55 -249.6 -11.55 -251.8 -11.15 -254.6 -11.55 -257.4 L-11.55 -280.0 Q-12.75 -283.25 -12.65 -285.35 L-12.25 -290.15 -13.65 -304.5 -13.05 -309.3 -12.95 -309.7 -13.2 -310.75 -13.4 -310.75 Q-13.4 -315.7 -14.2 -321.9 -15.0 -328.05 -15.0 -332.25 -15.0 -336.8 -16.2 -340.65 -18.25 -347.0 -22.85 -347.25 -23.1 -347.35 -23.3 -347.6 M-77.95 -349.65 L-78.4 -349.8 Q-79.25 -349.2 -80.0 -349.4 L-81.85 -346.2 Q-83.7 -340.85 -85.2 -334.3 L-87.65 -321.05 -90.0 -307.75 -90.65 -304.4 Q-90.65 -302.7 -91.15 -301.25 L-92.15 -298.05 Q-92.5 -296.4 -92.35 -295.15 L-91.85 -296.15 -91.0 -297.75 -90.65 -299.7 -90.5 -300.25 Q-90.2 -300.3 -89.95 -300.5 L-90.0 -300.95 -89.3 -301.65 -89.1 -301.55 -89.05 -301.1 -89.15 -300.5 -89.5 -300.3 -89.55 -300.3 -89.6 -299.95 -89.5 -299.05 -89.5 -298.5 -89.5 -298.25 -89.5 -297.75 -89.55 -297.6 -90.0 -294.0 -90.25 -293.75 -90.8 -293.75 -90.8 -293.85 Q-91.95 -290.4 -92.0 -289.0 -92.05 -285.85 -93.4 -280.4 L-94.1 -276.05 -94.55 -271.75 -95.3 -267.5 -95.75 -263.55 Q-92.85 -262.05 -88.75 -260.65 L-87.55 -260.25 -87.65 -260.4 -87.4 -260.65 -88.0 -261.3 Q-88.65 -262.0 -88.65 -262.5 L-88.3 -263.0 -87.25 -261.75 Q-85.75 -263.9 -84.8 -269.5 L-83.6 -275.05 -82.3 -283.9 -81.75 -288.5 -81.25 -293.1 Q-80.95 -296.7 -79.85 -302.15 L-78.05 -311.35 -75.05 -329.8 Q-74.5 -333.0 -73.95 -339.6 -73.3 -345.25 -71.85 -348.0 L-71.1 -348.05 -71.0 -348.25 Q-76.1 -349.0 -77.95 -349.65 M-80.75 -345.3 L-81.05 -345.25 -81.25 -345.8 -80.75 -345.75 -80.75 -345.3 M-97.5 -387.4 Q-99.3 -387.4 -102.75 -386.15 -105.15 -385.3 -106.55 -384.5 -111.8 -381.15 -113.65 -375.4 -114.95 -368.1 -116.0 -364.65 -117.1 -360.9 -118.35 -354.2 -119.85 -346.3 -120.5 -343.5 L-124.95 -322.15 -127.2 -310.4 -127.55 -307.9 -127.5 -307.5 -128.0 -302.4 -128.4 -284.05 -128.05 -276.75 -127.85 -270.55 -127.15 -270.6 -127.1 -270.4 -127.0 -270.4 -125.4 -270.0 -121.85 -269.85 -118.2 -269.6 -108.7 -268.75 -108.0 -269.65 Q-107.4 -270.35 -107.1 -271.1 L-106.65 -272.4 Q-105.25 -276.1 -104.8 -278.0 L-102.3 -289.25 Q-101.2 -293.65 -100.1 -300.35 L-98.25 -311.55 -95.8 -322.8 -94.95 -328.4 -94.0 -334.05 -92.75 -339.6 -91.5 -345.3 -90.75 -351.0 Q-90.85 -353.15 -90.55 -354.55 L-90.65 -356.0 Q-90.65 -358.25 -90.15 -361.4 L-89.55 -366.65 -89.25 -377.15 -89.5 -379.1 -89.75 -381.65 Q-89.75 -383.75 -91.25 -386.05 L-94.0 -386.8 -97.5 -387.4 M-161.55 -298.65 Q-162.65 -297.95 -162.85 -297.9 L-163.2 -297.9 -163.65 -296.75 -163.8 -295.05 -164.1 -293.35 Q-164.6 -292.3 -165.8 -292.5 L-167.4 -282.7 Q-168.4 -275.2 -168.4 -272.0 L-167.85 -259.3 -167.3 -261.35 Q-167.0 -262.65 -167.0 -263.75 -166.85 -263.75 -166.75 -263.85 L-166.5 -264.05 Q-166.25 -264.35 -166.25 -263.75 L-166.75 -259.9 Q-166.75 -258.15 -166.3 -257.6 L-165.6 -257.5 -165.25 -257.1 -165.0 -256.5 Q-165.0 -256.15 -165.55 -255.75 L-166.25 -254.8 -166.9 -253.35 -168.5 -250.7 Q-172.0 -234.45 -175.05 -224.6 L-175.55 -222.95 -177.25 -216.8 -179.5 -206.5 -181.95 -196.1 Q-183.45 -189.9 -183.65 -185.75 L-183.9 -185.65 -183.95 -186.25 Q-184.1 -183.5 -185.3 -179.55 -187.2 -173.3 -187.4 -171.15 -188.4 -161.8 -191.9 -154.35 L-191.95 -154.3 -192.75 -151.6 -194.85 -144.3 -196.5 -137.95 -198.0 -131.5 Q-198.4 -129.2 -201.05 -118.5 -202.75 -111.65 -202.95 -107.15 L-202.75 -106.65 -202.5 -106.7 -199.25 -104.2 -198.45 -103.55 -199.15 -104.55 -199.4 -104.95 -199.1 -104.7 Q-195.55 -102.3 -189.85 -98.85 -183.5 -95.05 -178.5 -92.75 L-178.3 -92.7 -177.5 -92.35 -177.3 -92.3 -177.15 -92.2 -176.9 -92.0 -176.0 -91.5 -175.6 -91.3 -175.45 -91.2 -173.05 -89.8 -172.8 -89.8 -171.9 -89.6 Q-169.3 -89.8 -169.3 -91.2 L-169.4 -93.35 -168.65 -93.35 -166.4 -89.6 -166.3 -90.5 Q-166.9 -90.85 -165.65 -90.85 L-162.3 -88.25 -160.95 -88.0 -160.8 -87.85 -144.65 -86.5 -138.5 -87.2 -138.4 -90.05 Q-137.9 -96.65 -137.9 -101.8 L-137.9 -102.25 -137.6 -104.2 Q-136.4 -114.05 -136.4 -117.9 -136.45 -130.75 -134.4 -145.05 -133.4 -151.6 -131.85 -170.2 -130.25 -190.3 -130.25 -199.3 L-130.3 -207.4 -130.45 -207.4 Q-131.5 -207.4 -132.15 -210.4 L-132.35 -211.55 -132.6 -211.7 -133.05 -211.65 Q-134.05 -212.05 -134.3 -212.9 L-134.3 -213.05 -134.45 -213.5 -134.45 -214.8 Q-134.45 -219.25 -133.85 -227.1 L-133.25 -235.5 Q-133.25 -236.7 -133.75 -239.5 L-134.5 -242.7 Q-146.35 -245.2 -149.85 -246.5 -155.9 -248.75 -155.9 -252.85 -155.9 -255.45 -152.2 -257.0 -146.65 -259.35 -145.55 -260.25 L-146.45 -260.8 -150.05 -261.45 -155.75 -261.45 -160.1 -261.75 -160.2 -261.95 -160.5 -261.85 -160.6 -262.3 -160.3 -262.65 -159.25 -263.6 -157.5 -264.85 -149.95 -265.55 -149.9 -265.7 Q-149.5 -266.35 -149.5 -267.55 L-149.5 -270.3 -149.75 -272.15 -150.15 -274.15 -150.5 -273.8 Q-151.15 -277.7 -151.5 -287.5 -151.6 -291.9 -152.5 -294.25 L-153.3 -297.6 Q-153.7 -298.9 -154.75 -299.85 L-161.55 -298.65 M-82.05 -341.0 L-81.3 -340.8 Q-81.3 -340.3 -81.75 -340.15 -82.05 -340.25 -82.05 -341.0 M-85.0 -323.55 L-84.9 -323.1 Q-84.9 -322.3 -85.3 -321.75 L-85.75 -321.75 -85.75 -322.65 Q-85.75 -323.45 -85.3 -323.55 L-85.0 -323.55 M-86.8 -313.4 Q-86.85 -313.3 -87.05 -313.25 L-87.45 -313.45 -87.75 -313.9 -87.4 -315.1 -86.55 -316.15 -86.5 -315.4 -86.75 -313.5 -86.8 -313.4 M-88.1 -308.2 L-87.9 -307.4 Q-87.9 -306.15 -88.15 -305.0 L-88.5 -303.95 -89.05 -304.05 -89.1 -304.2 -89.2 -304.2 -88.9 -305.75 -89.25 -305.5 -89.55 -305.55 -89.6 -305.55 -89.65 -306.0 Q-89.65 -306.75 -88.5 -308.9 L-88.1 -308.2 M-129.3 -236.4 Q-129.5 -238.25 -130.4 -238.9 -131.45 -238.0 -131.35 -236.2 -131.05 -234.05 -131.1 -233.05 L-131.5 -227.1 -131.35 -226.05 -130.8 -225.4 Q-130.5 -225.5 -130.3 -225.7 L-130.1 -225.9 Q-129.3 -231.8 -129.3 -234.55 L-129.3 -236.4 M-103.1 -236.2 Q-103.65 -231.25 -103.65 -223.55 L-103.45 -218.0 -103.3 -215.4 -103.25 -215.45 -102.6 -215.0 -102.4 -215.1 -102.1 -221.65 -102.05 -230.25 -102.15 -233.85 -102.6 -236.0 Q-102.8 -236.2 -103.1 -236.2 M-14.05 -278.5 L-14.05 -278.1 -14.1 -278.15 -14.75 -278.0 -14.7 -278.6 -14.25 -279.05 -14.1 -278.95 -14.05 -278.5 M-15.3 -276.55 L-15.55 -275.95 Q-15.85 -275.4 -16.25 -275.25 L-16.75 -275.9 -16.65 -276.65 Q-16.45 -277.05 -15.55 -277.0 -15.3 -277.2 -15.3 -276.55 M-14.35 -269.1 L-14.65 -269.0 Q-15.05 -269.1 -15.05 -269.6 -14.75 -269.9 -14.35 -269.6 L-14.3 -269.4 -14.35 -269.1 M-12.75 -266.6 Q-12.75 -266.15 -13.5 -265.6 L-13.9 -265.8 -14.05 -266.35 Q-14.05 -267.3 -13.4 -267.4 -12.75 -267.5 -12.75 -266.6 M-12.75 -260.6 Q-12.75 -260.15 -13.1 -258.55 L-13.5 -256.25 Q-13.0 -254.05 -13.0 -253.45 L-13.0 -252.25 -13.0 -252.15 -13.5 -252.05 Q-14.1 -252.05 -14.1 -252.25 L-14.35 -254.65 -13.85 -257.8 -14.1 -258.65 -14.35 -259.5 -14.3 -260.6 Q-14.15 -261.25 -13.5 -261.55 -12.9 -261.45 -12.8 -261.15 L-12.75 -260.6 M-11.5 -245.2 Q-11.5 -244.55 -12.0 -243.05 -12.65 -241.05 -13.5 -240.5 L-14.05 -240.65 -14.35 -241.75 -13.85 -243.25 Q-13.35 -244.15 -13.35 -245.0 L-12.75 -246.25 -12.0 -246.15 -11.6 -245.75 -11.5 -245.2 M-16.1 -245.5 L-16.8 -244.8 Q-17.3 -244.95 -17.3 -245.6 -17.3 -246.15 -16.25 -246.0 L-16.1 -245.5 M-179.8 -251.0 L-179.65 -250.95 -179.55 -250.5 -180.3 -249.75 -181.15 -249.5 -181.75 -249.4 -182.15 -249.5 -182.3 -249.8 -181.5 -250.85 -179.8 -251.0 M-178.3 -247.65 L-178.75 -246.95 -179.25 -246.55 -180.0 -246.75 -180.0 -247.3 -179.85 -248.15 -178.5 -248.25 Q-178.3 -248.3 -178.3 -247.65 M-167.5 -258.5 Q-167.3 -258.95 -167.25 -259.85 -167.3 -259.2 -167.5 -258.65 L-167.5 -258.5 M-196.25 -156.25 L-196.1 -156.75 -195.75 -157.0 -195.5 -156.6 -195.85 -156.1 -196.25 -156.25 M-196.5 -155.05 L-196.15 -154.9 Q-196.0 -154.8 -196.0 -154.4 L-196.05 -152.6 -196.25 -152.45 -196.8 -152.3 Q-197.3 -152.3 -197.65 -153.45 -197.65 -154.4 -197.05 -155.15 L-196.5 -155.05 M-39.1 -155.15 Q-39.95 -155.05 -40.4 -154.35 L-41.0 -153.55 -41.65 -153.55 Q-44.2 -150.15 -44.6 -145.3 L-44.6 -135.55 Q-44.9 -126.5 -46.6 -116.05 -47.8 -108.55 -47.4 -96.65 L-46.85 -83.05 -46.6 -82.95 -46.4 -82.45 -45.35 -82.0 -41.5 -82.0 Q-41.0 -81.8 -40.2 -80.55 L-39.7 -80.2 -37.85 -78.95 -36.0 -78.35 -36.0 -78.45 -35.8 -78.5 Q-31.85 -78.9 -30.5 -79.6 -29.35 -79.7 -26.75 -77.85 L-25.9 -77.2 -25.7 -77.25 -25.05 -77.35 -17.55 -78.4 -11.75 -79.05 -11.75 -79.15 -10.85 -79.25 Q-10.8 -82.9 -9.4 -90.5 -8.0 -98.5 -8.0 -109.65 -8.0 -115.35 -8.4 -121.3 -9.5 -121.3 -9.5 -121.55 L-10.0 -123.5 -10.85 -126.45 Q-11.3 -128.0 -11.25 -129.05 L-11.25 -129.1 -11.6 -134.3 Q-12.1 -138.85 -12.1 -146.65 L-12.05 -147.65 -12.8 -148.4 -13.6 -149.15 -37.0 -155.3 -39.1 -155.15 M-55.0 -160.65 L-58.5 -160.8 Q-65.15 -160.8 -67.95 -143.0 -68.85 -137.45 -69.25 -130.75 L-69.5 -125.1 Q-68.65 -113.3 -68.5 -107.65 L-68.6 -99.05 Q-68.55 -95.15 -67.5 -92.4 L-64.25 -92.0 -63.55 -90.65 -62.95 -89.7 -62.4 -89.5 -61.6 -90.25 -59.3 -90.1 -59.05 -89.0 -59.15 -88.4 -58.3 -88.15 -57.95 -95.6 Q-57.6 -103.9 -57.75 -108.05 -57.75 -108.9 -57.2 -110.4 L-57.25 -110.9 -57.05 -113.3 -56.7 -113.45 -57.0 -114.35 -56.8 -116.15 Q-56.5 -117.3 -56.05 -117.65 L-55.9 -115.9 -56.15 -113.3 -56.05 -113.0 -56.0 -113.1 Q-54.4 -116.4 -54.75 -117.9 L-53.95 -122.95 Q-53.6 -125.95 -54.5 -127.9 L-54.5 -130.5 -55.15 -130.75 -56.05 -128.5 -56.3 -128.5 -56.75 -138.55 -56.5 -146.5 -56.5 -147.6 -56.5 -148.55 -56.15 -154.35 Q-55.55 -157.35 -53.5 -159.15 L-55.0 -160.65 M-82.15 -94.75 L-82.65 -94.5 -82.55 -94.5 -82.15 -94.75 M-102.8 -94.1 L-102.8 -93.0 -103.3 -92.8 -104.3 -92.5 -105.05 -93.25 -104.3 -94.15 -103.15 -94.5 -102.8 -94.1 M-24.25 -83.65 L-24.35 -83.55 -24.85 -83.5 -25.25 -83.55 -25.45 -83.65 -25.5 -84.05 Q-25.5 -84.5 -25.15 -84.65 -24.75 -84.9 -24.25 -84.4 L-24.25 -83.65" fill="#9afaf0" fill-opacity="0.8" fill-rule="evenodd" stroke="none"/>
    <path d="M30.9 -440.75 Q30.55 -440.4 30.0 -440.4 L29.9 -440.3 29.8 -440.5 29.2 -440.45 Q28.6 -439.9 28.35 -439.9 27.9 -439.9 26.5 -440.7 25.05 -441.5 24.0 -441.5 20.85 -440.35 18.75 -440.05 L15.0 -440.4 14.35 -440.15 Q13.75 -439.7 13.0 -439.5 L11.2 -440.15 9.5 -440.5 8.35 -440.4 6.75 -439.0 Q5.75 -439.05 5.75 -440.75 L8.05 -441.1 10.25 -441.5 11.7 -441.1 12.85 -440.4 13.45 -441.55 Q13.9 -442.15 15.35 -442.3 L20.9 -442.8 22.9 -442.6 26.0 -442.3 27.8 -442.55 29.5 -443.05 29.85 -442.8 30.0 -442.3 30.4 -442.55 Q30.9 -441.95 30.9 -440.75 M42.5 -281.1 Q42.9 -280.35 42.6 -279.05 43.3 -278.45 44.3 -278.8 L46.0 -279.3 46.5 -279.0 45.15 -277.1 Q44.5 -276.05 43.8 -276.05 42.75 -276.05 40.15 -277.15 37.6 -278.2 36.0 -279.3 34.85 -280.05 31.35 -280.75 29.2 -281.15 28.05 -282.1 L27.0 -281.35 26.25 -281.65 26.05 -282.1 Q24.45 -281.5 21.75 -281.25 L21.6 -281.15 Q21.4 -281.2 21.4 -282.0 21.4 -282.4 22.05 -283.55 L23.25 -285.25 25.0 -284.75 Q24.95 -284.55 25.35 -284.6 L26.75 -284.75 Q28.8 -284.75 30.1 -283.8 L31.9 -282.25 36.6 -281.75 39.6 -281.25 40.9 -281.2 42.5 -281.1 M89.25 -280.65 Q88.5 -280.05 87.9 -279.9 L87.75 -280.15 Q87.55 -280.3 87.55 -281.05 87.55 -281.85 87.85 -282.1 L88.6 -282.5 Q91.35 -282.3 95.9 -283.75 L97.5 -283.85 Q98.0 -283.5 97.9 -281.75 L94.1 -281.4 90.5 -281.1 Q89.8 -281.1 89.25 -280.65 M112.7 -189.4 L112.9 -187.7 113.05 -187.4 Q112.95 -187.1 111.7 -187.1 111.55 -187.1 108.35 -188.65 L105.0 -190.2 Q103.5 -190.2 101.75 -191.85 100.3 -193.25 99.4 -195.0 L99.0 -193.8 98.2 -193.6 98.05 -193.95 98.0 -195.4 Q98.0 -196.6 98.3 -196.85 L98.6 -197.0 Q101.9 -194.4 105.2 -192.9 L112.7 -189.4 M0.25 -174.5 L-0.25 -174.0 -0.5 -174.05 -0.5 -174.75 0.1 -174.65 0.25 -174.5 M2.05 -171.1 L2.0 -171.5 Q2.0 -171.9 2.25 -171.9 L2.5 -171.9 3.0 -171.4 2.25 -171.0 2.05 -171.1 M1.75 -168.5 L2.35 -168.25 Q2.4 -167.35 1.4 -166.8 L-0.75 -165.75 -1.4 -165.8 -2.25 -166.0 -2.25 -166.5 -1.3 -166.25 Q-0.8 -166.25 0.1 -166.75 1.35 -167.5 1.4 -168.5 L1.75 -168.5 M3.0 -168.75 L2.85 -168.8 2.65 -169.15 3.25 -169.0 3.0 -168.75 M4.65 -149.75 L6.0 -151.05 7.05 -150.9 7.3 -150.7 7.45 -150.55 Q7.6 -150.85 8.0 -150.9 L8.8 -150.95 Q10.95 -151.3 12.3 -150.95 L13.5 -150.55 13.5 -152.4 14.15 -152.2 14.8 -151.8 Q15.15 -152.0 15.9 -153.75 16.65 -155.45 17.0 -155.55 19.2 -154.25 19.75 -153.3 L20.05 -151.35 20.0 -150.05 17.85 -150.55 Q16.55 -150.8 16.5 -150.15 16.35 -148.9 15.55 -149.25 L14.6 -149.9 10.8 -149.4 Q9.5 -149.4 9.25 -148.8 8.9 -147.8 7.55 -147.05 L3.5 -147.15 3.25 -146.05 1.0 -144.9 -1.25 -145.05 -3.85 -144.65 -6.5 -144.3 -9.25 -141.4 Q-10.6 -142.5 -10.6 -143.85 -10.6 -146.3 -9.75 -146.3 L-8.0 -145.8 -6.35 -146.1 -5.0 -146.65 Q-4.85 -146.7 -4.4 -146.4 L-3.9 -146.15 -4.0 -146.4 Q-3.25 -147.55 -1.5 -147.55 -0.3 -147.55 0.05 -148.05 L0.5 -149.05 1.65 -149.05 1.0 -150.4 1.25 -150.8 3.3 -149.45 4.05 -148.9 4.65 -149.75 M40.05 -169.75 Q39.65 -169.2 38.25 -169.05 L37.0 -170.15 37.7 -171.45 38.75 -172.65 Q39.75 -172.0 40.1 -171.35 L40.3 -170.8 40.05 -169.75 M52.5 -82.35 L52.15 -81.6 51.65 -81.35 51.25 -82.0 Q52.0 -82.9 52.5 -82.35 M45.3 -70.65 L45.05 -69.95 44.65 -69.5 44.2 -69.3 Q43.75 -69.25 43.75 -70.05 43.75 -70.7 44.25 -70.7 L45.3 -70.65 M4.05 -59.25 L5.4 -59.5 6.15 -59.0 5.4 -58.75 4.75 -58.85 4.05 -59.25 M34.75 -63.25 L33.45 -63.0 Q32.95 -63.0 32.85 -63.25 L34.1 -64.0 35.35 -64.25 34.75 -63.25 M173.95 -192.25 L174.0 -190.7 Q174.0 -188.8 172.75 -188.6 170.7 -188.2 169.8 -187.3 L169.65 -187.65 169.6 -189.1 Q169.6 -190.35 169.75 -190.6 170.05 -191.1 171.8 -192.2 L172.35 -191.35 172.6 -190.8 Q172.8 -191.2 172.8 -192.8 L173.6 -192.8 173.95 -192.25 M-7.65 -442.1 L-7.3 -441.35 -8.95 -440.3 -10.3 -439.55 Q-10.6 -439.55 -11.5 -440.8 -12.25 -441.75 -13.75 -440.65 -13.85 -441.4 -13.35 -442.1 L-13.5 -442.5 -13.9 -441.7 Q-14.35 -441.05 -15.15 -441.0 L-15.25 -440.9 -15.4 -441.75 Q-15.4 -442.65 -14.4 -443.15 -13.5 -443.65 -12.35 -443.55 -12.05 -443.0 -12.5 -442.25 L-11.3 -441.85 -10.55 -441.75 -9.1 -441.9 -7.65 -442.1 M-19.75 -348.35 L-19.5 -348.75 Q-17.7 -348.35 -16.3 -349.15 L-14.5 -350.65 -12.15 -350.8 Q-11.4 -350.15 -11.4 -349.3 L-11.45 -348.5 -11.8 -348.35 -13.55 -347.9 -15.65 -347.0 Q-15.85 -346.8 -15.7 -346.3 L-15.5 -345.6 -15.75 -345.25 -17.5 -346.55 Q-19.1 -347.95 -19.75 -348.35 M-12.0 -351.75 L-12.3 -351.95 -12.6 -352.55 -12.2 -352.6 -11.4 -352.3 -12.0 -351.75 M-74.8 -385.3 Q-73.75 -385.1 -73.1 -384.6 L-76.1 -382.5 -79.75 -383.65 Q-84.1 -384.5 -87.9 -383.15 L-88.15 -385.0 Q-85.8 -384.15 -82.45 -384.45 -78.5 -384.8 -77.9 -386.9 L-76.85 -386.15 Q-76.5 -385.8 -76.5 -385.25 L-74.8 -385.3 M-67.6 -344.05 Q-68.05 -343.4 -68.85 -343.4 -69.65 -343.4 -70.35 -343.95 L-71.85 -344.85 -71.75 -346.65 Q-70.7 -346.9 -69.45 -346.15 L-67.15 -344.85 -67.6 -344.05 M-110.05 -383.85 Q-111.75 -382.05 -112.0 -382.05 -113.2 -382.05 -114.25 -382.95 L-116.1 -383.05 -116.65 -383.65 -116.55 -384.6 -118.0 -383.65 -118.5 -383.85 Q-118.45 -385.7 -117.35 -386.15 L-114.15 -386.4 -115.25 -385.1 Q-113.75 -384.8 -113.75 -384.1 L-111.35 -383.9 -110.05 -383.85 M-148.4 -300.15 L-146.5 -300.15 Q-145.75 -300.15 -145.65 -299.6 L-145.6 -298.75 Q-145.15 -298.8 -144.95 -299.25 L-144.8 -300.0 -143.55 -300.4 -142.3 -300.55 -141.35 -300.5 -141.05 -300.15 -140.8 -299.5 -143.1 -299.35 -144.3 -298.5 -144.4 -298.0 -146.5 -298.15 Q-147.35 -298.2 -148.15 -298.6 L-148.85 -297.15 Q-149.1 -296.5 -150.3 -296.5 L-151.25 -297.55 -152.25 -299.1 -150.9 -299.1 Q-149.9 -298.95 -149.5 -298.6 L-149.25 -300.55 -148.7 -300.4 -148.4 -300.15 M-138.4 -300.15 L-138.75 -299.8 -139.5 -300.0 -139.6 -300.9 -138.65 -300.9 -138.4 -300.15 M-131.15 -237.75 Q-131.45 -236.85 -131.9 -236.55 L-132.25 -236.85 -132.6 -237.7 -132.4 -239.15 Q-131.9 -239.4 -130.7 -239.15 L-131.15 -237.75 M-126.9 -237.0 L-126.85 -238.1 Q-126.65 -238.0 -126.55 -238.2 L-125.95 -238.2 -125.8 -237.85 -124.7 -238.25 -121.7 -238.45 Q-121.0 -238.45 -118.35 -237.05 L-115.05 -235.1 Q-115.4 -234.75 -116.15 -234.9 -116.95 -235.05 -116.95 -235.6 L-117.3 -235.3 Q-118.0 -234.65 -119.45 -234.65 L-122.8 -235.45 -125.4 -236.3 -125.4 -236.05 -126.2 -235.6 -126.55 -235.3 Q-126.9 -235.3 -126.9 -236.75 L-126.9 -237.0 M-99.75 -236.05 Q-100.2 -236.05 -101.05 -234.85 -101.85 -235.5 -101.85 -237.25 L-99.85 -237.5 -99.75 -236.05 M-107.95 -237.3 L-105.65 -237.25 -105.45 -236.55 Q-105.65 -235.85 -106.55 -235.3 -107.7 -234.65 -109.35 -234.65 L-111.75 -235.1 -114.35 -236.3 -113.15 -237.45 -110.75 -237.7 -107.95 -237.3 M-165.25 -296.1 L-165.15 -294.25 -165.75 -293.8 Q-167.3 -294.85 -170.55 -294.85 L-171.7 -294.15 Q-172.8 -293.5 -173.0 -293.5 -174.65 -293.5 -175.15 -294.4 L-175.4 -295.4 Q-175.4 -296.75 -174.9 -297.05 L-173.5 -295.25 Q-171.85 -296.05 -167.5 -296.5 L-165.25 -296.1 M-163.25 -87.3 L-162.35 -87.9 -161.2 -87.75 Q-160.55 -87.55 -160.55 -86.75 L-160.75 -85.65 -161.15 -85.1 -162.15 -85.9 Q-162.75 -86.3 -163.25 -87.3 M-26.25 -162.0 Q-26.25 -162.85 -25.2 -162.3 -24.25 -161.8 -24.0 -161.25 L-23.9 -161.1 Q-23.85 -161.0 -24.25 -161.0 -25.25 -161.0 -26.25 -161.5 L-26.25 -162.0 M-27.25 -161.75 L-27.35 -161.8 -27.5 -162.15 -26.9 -162.0 -27.25 -161.75 M-21.05 -161.75 Q-21.15 -161.5 -22.25 -161.15 L-23.3 -161.25 -23.5 -161.5 -22.0 -162.0 -21.05 -161.75 M-32.75 -171.5 L-33.0 -171.4 -33.65 -171.5 -34.2 -170.55 -34.9 -169.65 -35.6 -169.15 -36.3 -168.25 -36.55 -168.25 -36.7 -168.35 -36.75 -168.75 -36.25 -170.0 -35.4 -171.25 -34.35 -171.75 -33.65 -171.5 -33.75 -171.75 -33.5 -172.0 -32.65 -171.75 -32.75 -171.5 M-35.55 -164.15 L-35.5 -165.0 -35.05 -165.0 -33.9 -163.75 Q-34.05 -163.5 -34.5 -163.3 L-35.5 -163.55 -35.55 -164.15 M-33.5 -162.8 L-34.0 -163.4 -33.3 -163.2 Q-32.6 -162.9 -31.5 -162.75 L-31.05 -162.4 -31.3 -162.25 -33.15 -162.5 -33.5 -162.8 M-8.8 -162.4 Q-9.75 -161.85 -11.3 -161.75 L-13.75 -161.65 -14.4 -161.75 -14.5 -162.25 Q-14.15 -162.2 -13.7 -162.6 L-10.75 -162.5 -10.0 -162.65 -8.8 -162.4 M-7.05 -163.4 Q-6.8 -163.25 -6.8 -162.75 L-7.2 -162.65 -8.25 -162.5 -8.3 -162.55 -8.4 -162.9 -8.3 -163.3 -7.05 -163.4 M-66.0 -162.9 Q-65.7 -162.65 -65.35 -161.15 L-64.0 -162.05 Q-63.25 -161.9 -62.85 -161.55 L-63.6 -160.25 -64.5 -158.55 -64.7 -158.45 -65.85 -158.4 Q-67.05 -158.4 -67.05 -159.45 -67.1 -160.55 -68.5 -160.55 -69.2 -160.55 -69.3 -161.1 L-69.5 -162.15 Q-69.6 -161.8 -70.05 -161.45 -70.6 -161.05 -71.25 -161.05 L-71.2 -161.8 -71.0 -162.55 -71.3 -162.35 -72.25 -162.05 -72.35 -161.95 -72.5 -162.8 Q-72.5 -163.45 -71.4 -164.7 -70.15 -166.15 -68.75 -166.3 -68.5 -167.0 -68.5 -165.75 -68.5 -165.0 -68.95 -164.55 L-69.5 -164.15 Q-70.1 -164.3 -69.4 -163.7 L-68.1 -162.65 Q-66.8 -162.35 -66.0 -162.9 M-51.25 -157.3 L-51.1 -156.35 Q-50.85 -155.25 -49.75 -154.8 L-48.8 -154.65 -48.0 -153.8 -45.5 -155.4 -44.7 -155.15 -44.5 -154.0 Q-44.5 -151.55 -46.25 -150.65 -46.45 -152.2 -46.0 -153.65 L-46.55 -153.25 -47.25 -152.55 Q-49.0 -152.45 -51.25 -153.5 L-54.25 -153.55 -54.45 -153.75 -54.5 -154.65 Q-54.5 -155.3 -53.9 -156.25 L-53.0 -157.4 -51.25 -157.3 M-97.25 -81.85 L-94.75 -83.5 -94.5 -82.9 -94.6 -82.0 Q-94.9 -82.0 -95.8 -81.4 L-96.45 -81.5 -97.25 -81.85 M-119.75 -75.5 L-119.9 -75.25 -120.5 -75.35 -121.25 -75.75 -120.9 -76.0 Q-119.8 -75.85 -119.75 -75.5 M-105.0 -78.0 Q-106.15 -77.2 -109.8 -76.75 L-110.4 -76.8 Q-111.05 -76.95 -111.1 -77.15 L-108.25 -77.9 -105.25 -78.35 -105.0 -78.0 M-135.1 -78.35 L-135.6 -79.0 -135.35 -79.25 -134.45 -78.8 -134.35 -78.85 -129.4 -77.65 -123.65 -76.3 -123.55 -76.0 -123.45 -75.8 -124.25 -75.6 Q-130.05 -75.6 -132.8 -77.0 -133.85 -77.55 -134.45 -78.2 L-135.1 -78.35 M-158.75 -84.25 L-158.5 -84.5 Q-157.4 -84.4 -157.4 -83.65 -157.3 -84.75 -157.3 -83.5 -157.3 -82.7 -157.5 -82.9 L-157.75 -83.25 -158.75 -84.25 M-144.25 -83.8 Q-143.95 -84.5 -143.4 -84.5 L-143.05 -83.6 Q-142.8 -82.9 -141.75 -81.85 L-142.1 -81.5 -144.25 -83.8 M-13.15 -60.5 L-13.9 -60.25 -14.55 -60.4 Q-15.2 -60.65 -15.25 -61.1 L-13.9 -61.0 Q-13.25 -60.75 -13.15 -60.5 M-4.25 -59.0 L-5.0 -58.75 -6.25 -58.85 -6.75 -59.6 -5.7 -59.65 -4.3 -59.25 -4.25 -59.0 M-53.3 -79.6 Q-50.45 -79.5 -46.25 -79.75 -45.1 -79.8 -44.4 -80.3 -44.15 -80.5 -43.5 -79.85 L-44.0 -79.15 -45.75 -78.5 -54.4 -78.5 -55.0 -79.5 -53.3 -79.6 M-56.9 -79.85 L-57.65 -79.5 -58.3 -79.6 Q-58.95 -79.75 -59.1 -80.0 -58.95 -80.55 -57.0 -80.25 L-56.9 -79.85 M-66.0 -88.05 L-66.45 -87.15 -66.75 -85.85 -65.75 -84.9 -64.35 -83.35 -65.1 -83.1 Q-66.9 -83.5 -67.35 -84.55 L-67.5 -86.05 -67.4 -87.05 Q-67.15 -87.7 -66.0 -88.05 M-65.5 -90.05 L-64.5 -90.25 -64.35 -89.8 -65.1 -89.25 Q-65.5 -89.5 -65.5 -90.05 M-64.1 -82.5 Q-63.9 -83.15 -62.6 -82.5 L-63.1 -81.85 -63.5 -82.0 -64.1 -82.5" fill="#ffffff" fill-rule="evenodd" stroke="none"/>
  </g>
</svg>
