<?xml version="1.0" encoding="UTF-8" standalone="no"?>
<svg xmlns:ffdec="https://www.free-decompiler.com/flash" xmlns:xlink="http://www.w3.org/1999/xlink" ffdec:objectType="shape" height="222.8px" width="509.9px" xmlns="http://www.w3.org/2000/svg">
  <g transform="matrix(1.0, 0.0, 0.0, 1.0, 127.5, 476.75)">
    <path d="M49.55 -449.05 L49.6 -449.05 Q51.45 -448.1 54.15 -448.1 L55.45 -448.15 55.9 -447.85 56.1 -447.7 57.2 -447.05 57.95 -446.6 Q55.25 -446.4 55.0 -445.55 54.8 -443.25 56.05 -441.55 56.6 -440.8 57.45 -440.2 L55.55 -440.6 52.0 -442.05 51.75 -441.75 Q53.0 -441.2 53.8 -440.35 L52.15 -441.0 Q51.05 -441.5 49.25 -443.4 L49.0 -443.4 Q48.5 -444.45 48.5 -446.0 L48.6 -447.45 Q48.75 -448.15 49.55 -449.05 M50.85 -459.4 L52.0 -460.4 54.6 -460.6 56.15 -460.2 Q56.55 -460.0 57.3 -459.55 L57.45 -459.3 57.5 -459.3 57.55 -459.55 Q58.45 -459.15 59.25 -459.1 L63.75 -455.9 61.25 -455.9 59.0 -456.15 58.75 -455.8 57.8 -456.15 57.05 -455.8 59.65 -453.5 62.0 -451.1 Q60.5 -450.8 60.45 -450.45 60.35 -449.65 59.8 -449.15 L57.85 -449.05 56.2 -449.8 55.0 -450.3 49.55 -452.0 48.35 -451.35 Q48.0 -451.7 48.0 -452.0 48.0 -452.7 48.5 -453.6 L49.6 -454.85 52.0 -455.1 52.55 -455.7 52.75 -456.4 51.5 -457.9 Q50.8 -458.8 50.8 -459.1 L50.85 -459.4 M51.1 -465.15 L51.35 -465.35 Q61.9 -464.45 66.8 -460.85 L70.7 -457.3 70.55 -457.35 Q70.55 -456.8 71.15 -455.55 L72.0 -454.1 70.35 -454.9 Q69.0 -455.7 68.45 -455.75 L65.95 -457.5 Q60.8 -460.9 56.25 -461.9 L51.5 -463.25 51.15 -463.3 50.9 -463.15 50.5 -464.15 Q50.5 -464.75 51.1 -465.15 M111.5 -405.8 Q111.3 -402.8 108.8 -399.8 104.85 -395.15 96.25 -391.75 L95.5 -390.2 Q95.25 -389.45 94.2 -388.75 L90.85 -386.9 Q89.85 -386.25 89.85 -385.65 L89.95 -384.5 93.2 -383.8 95.95 -383.45 98.55 -383.3 99.9 -382.95 102.25 -382.8 102.75 -383.05 102.6 -384.0 107.0 -382.85 111.45 -380.9 111.2 -380.55 Q107.25 -379.1 99.55 -377.2 L87.8 -374.25 65.05 -371.55 45.65 -369.3 44.85 -369.4 41.8 -369.7 24.7 -369.2 13.75 -369.7 6.3 -370.8 -0.25 -371.65 Q-22.1 -375.35 -31.3 -377.45 L-31.55 -377.6 -32.05 -378.15 -32.3 -379.4 -32.25 -380.55 Q-31.95 -381.2 -30.5 -381.65 -29.05 -382.1 -28.65 -382.85 -28.5 -383.2 -28.5 -383.95 L-28.55 -385.55 Q-27.4 -386.3 -27.4 -387.15 -27.4 -387.85 -27.7 -387.95 L-29.6 -392.65 -29.7 -392.85 -29.7 -393.0 Q-29.7 -393.95 -28.8 -397.1 L-28.05 -399.7 -22.9 -397.95 Q-16.65 -396.25 4.35 -392.7 L7.1 -392.35 9.7 -392.2 15.25 -391.9 20.7 -391.75 25.6 -391.4 30.35 -391.25 35.6 -390.9 41.55 -390.75 Q54.05 -390.75 62.8 -392.3 75.55 -393.6 90.15 -396.9 110.35 -401.5 111.5 -405.8 M80.65 -455.3 Q80.65 -456.05 79.8 -457.05 L80.05 -457.0 82.85 -456.65 83.8 -456.7 81.75 -454.6 79.85 -452.05 79.75 -452.4 Q79.75 -453.0 80.2 -453.85 L80.65 -455.3 M71.25 -462.3 L71.05 -462.05 69.75 -462.55 70.85 -460.9 71.75 -459.8 71.25 -459.65 Q70.8 -459.8 69.5 -460.6 L68.35 -461.35 65.2 -463.65 Q62.4 -465.55 59.9 -466.5 L62.6 -466.65 Q68.4 -466.65 73.1 -464.7 77.0 -463.1 77.0 -462.05 L77.0 -461.95 Q75.45 -463.25 72.95 -464.1 70.05 -465.05 68.1 -464.75 68.0 -465.15 68.0 -463.9 68.0 -463.1 68.15 -463.2 L68.25 -463.4 71.3 -462.3 71.25 -462.3 M-124.45 -397.65 L-124.8 -397.15 -125.2 -397.75 Q-121.3 -400.2 -115.25 -406.6 -109.2 -411.95 -101.3 -412.7 L-101.15 -410.8 Q-106.2 -410.25 -109.7 -406.9 L-112.0 -403.8 -114.5 -402.6 Q-118.9 -400.35 -121.7 -398.15 -121.8 -398.9 -122.2 -398.45 -123.65 -398.65 -124.45 -397.65 M-122.85 -410.2 L-122.9 -410.3 -123.05 -410.8 Q-116.85 -413.85 -111.8 -414.9 -111.65 -414.75 -111.0 -414.55 L-110.4 -414.4 -110.7 -413.7 -110.75 -411.9 Q-113.4 -409.95 -115.55 -408.95 L-121.3 -406.5 -123.6 -404.85 -123.45 -405.35 -123.2 -405.95 -123.2 -406.05 -122.65 -408.05 -120.6 -409.85 Q-118.1 -411.4 -114.7 -411.4 L-113.9 -411.25 Q-113.7 -411.05 -113.15 -411.0 L-112.95 -411.15 -113.45 -411.5 -114.0 -411.9 -115.05 -412.15 -121.05 -410.85 -122.85 -410.2 M318.6 -473.65 L316.3 -471.15 316.8 -471.15 Q317.35 -471.15 318.2 -471.65 L310.75 -465.1 Q301.7 -457.65 291.0 -453.55 272.9 -446.55 265.3 -444.15 252.75 -440.15 239.15 -437.4 245.0 -439.3 251.05 -442.3 257.0 -445.2 266.5 -451.15 281.4 -460.55 287.15 -467.75 287.15 -467.15 287.35 -467.15 L287.85 -467.05 Q289.1 -466.8 289.3 -466.55 L289.35 -466.55 288.5 -465.9 285.3 -462.9 Q282.95 -459.9 279.65 -457.5 L273.7 -453.4 266.65 -448.65 267.15 -448.4 274.15 -452.1 Q278.7 -454.55 280.65 -456.5 284.55 -459.05 286.7 -460.55 291.5 -464.0 294.8 -466.8 L295.35 -466.9 Q296.85 -468.15 303.2 -469.2 L306.75 -469.7 305.8 -469.1 Q304.8 -468.4 304.8 -468.0 304.8 -466.7 301.9 -464.5 L297.8 -461.35 298.55 -461.25 307.25 -467.15 Q311.0 -469.8 312.75 -471.15 L314.45 -471.8 Q317.4 -473.0 318.6 -473.9 L318.6 -473.65 M-98.25 -411.7 L-97.4 -413.45 Q-94.65 -415.0 -91.6 -415.75 -86.7 -416.95 -74.15 -418.25 L-56.9 -418.25 -54.4 -417.9 -52.05 -417.75 -49.55 -417.45 -47.25 -417.3 Q-42.85 -416.85 -39.8 -415.7 -36.65 -414.45 -35.2 -414.3 L-30.75 -409.95 Q-32.1 -407.95 -32.5 -406.15 L-32.6 -405.4 -32.65 -405.4 Q-33.1 -404.4 -32.75 -403.4 L-32.8 -400.65 Q-32.8 -395.5 -32.5 -394.55 L-31.75 -392.9 Q-33.4 -393.9 -35.7 -394.9 -39.4 -396.45 -44.0 -397.5 L-44.05 -397.45 Q-44.9 -397.4 -46.25 -397.95 L-46.3 -397.95 -58.25 -399.45 -77.5 -399.45 -77.5 -399.2 Q-91.4 -397.85 -97.85 -395.55 L-99.9 -394.7 -100.3 -395.6 Q-100.3 -398.0 -98.4 -401.05 -96.5 -404.15 -96.5 -405.55 -96.5 -406.7 -97.35 -408.1 -98.25 -409.5 -98.25 -411.7 M-116.4 -399.35 L-114.6 -400.5 -114.8 -400.05 Q-114.2 -400.25 -108.15 -403.05 -102.65 -405.65 -100.9 -405.95 -99.9 -405.9 -99.7 -405.5 L-99.85 -404.85 -100.55 -404.9 -101.55 -404.95 Q-106.0 -403.35 -108.7 -401.8 -111.25 -400.35 -111.25 -399.55 L-111.1 -398.7 -111.0 -398.8 -109.8 -398.45 -110.35 -396.3 -110.75 -394.15 Q-110.9 -393.4 -112.8 -392.2 L-115.55 -390.05 Q-115.4 -389.8 -114.5 -389.6 L-114.3 -389.55 -114.7 -389.55 Q-117.65 -389.55 -118.9 -390.3 -119.75 -391.1 -120.4 -391.25 -120.65 -392.25 -120.65 -391.0 -120.65 -390.35 -119.3 -389.65 -118.15 -388.45 -115.7 -387.8 -112.15 -386.9 -111.0 -386.15 L-113.15 -385.95 -114.45 -385.55 -115.05 -385.7 Q-117.0 -386.25 -119.1 -387.25 L-119.25 -387.3 -119.65 -387.5 -119.85 -387.6 Q-125.0 -390.15 -125.0 -392.2 L-124.95 -392.55 -122.65 -395.3 -121.8 -396.35 Q-119.55 -397.35 -116.4 -399.35" fill="#ffffff" fill-rule="evenodd" stroke="none"/>
    <path d="M60.55 -469.15 Q64.95 -469.55 72.35 -467.6 L77.0 -464.95 Q79.25 -463.6 79.25 -462.0 79.25 -461.65 78.55 -460.85 77.8 -460.1 77.8 -459.8 L77.8 -459.75 Q77.85 -459.2 78.75 -458.2 L79.1 -458.2 83.3 -458.35 Q84.75 -458.45 87.1 -459.35 L87.9 -459.65 Q96.35 -464.55 113.15 -465.75 L113.65 -466.15 115.9 -465.95 121.55 -465.85 129.35 -465.3 129.9 -464.8 Q140.65 -463.9 144.65 -462.5 146.25 -461.95 149.0 -460.45 151.85 -458.85 154.85 -457.75 156.6 -457.1 160.35 -455.25 163.95 -453.45 164.85 -453.15 L169.75 -451.55 Q171.9 -450.85 174.85 -449.55 180.1 -447.3 183.6 -446.1 188.7 -444.35 194.75 -443.05 L199.25 -441.75 Q202.25 -440.75 208.1 -439.4 L224.5 -438.0 235.45 -437.5 Q251.15 -442.4 265.8 -451.8 276.25 -458.55 287.2 -468.55 L287.25 -468.9 287.5 -469.25 287.85 -469.55 288.1 -469.35 288.75 -470.0 288.15 -469.05 288.0 -468.5 289.1 -467.95 290.05 -467.5 291.9 -467.8 294.75 -468.1 Q296.2 -469.55 303.1 -470.8 L310.9 -472.25 Q313.4 -473.25 320.9 -476.75 L323.0 -476.25 322.15 -475.1 Q317.1 -468.65 311.75 -464.2 303.5 -457.3 292.0 -452.5 272.55 -444.35 269.85 -443.4 257.35 -439.05 237.5 -435.25 L233.25 -435.25 228.7 -434.65 227.35 -433.8 221.6 -433.55 220.35 -433.55 200.4 -431.25 181.6 -431.25 Q163.4 -434.35 140.6 -441.15 113.6 -449.2 104.4 -451.25 L86.25 -451.1 83.15 -450.05 80.95 -449.1 81.15 -448.55 Q81.75 -446.95 81.75 -445.3 81.75 -443.75 81.4 -443.35 80.7 -442.45 77.8 -441.8 L78.5 -440.95 Q78.85 -440.4 78.85 -439.65 78.85 -438.4 73.95 -436.05 68.2 -433.25 62.35 -433.25 56.9 -433.25 53.95 -436.15 52.5 -437.55 52.15 -438.5 49.6 -438.85 48.5 -441.8 47.8 -443.65 47.8 -445.85 47.8 -447.95 47.95 -448.4 L48.45 -449.15 Q47.55 -449.5 47.05 -450.5 46.65 -451.2 46.6 -452.0 46.6 -452.85 47.45 -454.5 48.6 -456.6 50.05 -456.75 49.6 -457.45 49.55 -458.65 L49.55 -458.7 Q49.35 -459.0 49.35 -459.85 49.35 -460.45 49.75 -460.85 L49.0 -462.5 Q48.25 -464.0 48.25 -464.25 48.25 -465.6 49.3 -466.2 L51.25 -466.9 51.6 -466.85 Q53.9 -467.75 56.6 -467.35 57.3 -468.85 60.55 -469.15 M51.1 -465.15 Q50.5 -464.75 50.5 -464.15 L50.9 -463.15 51.15 -463.3 51.5 -463.25 56.25 -461.9 Q60.8 -460.9 65.95 -457.5 L68.45 -455.75 Q69.0 -455.7 70.35 -454.9 L72.0 -454.1 71.15 -455.55 Q70.55 -456.8 70.55 -457.35 L70.7 -457.3 66.8 -460.85 Q61.9 -464.45 51.35 -465.35 L51.1 -465.15 M50.85 -459.4 L50.8 -459.1 Q50.8 -458.8 51.5 -457.9 L52.75 -456.4 52.55 -455.7 52.0 -455.1 49.6 -454.85 48.5 -453.6 Q48.0 -452.7 48.0 -452.0 48.0 -451.7 48.35 -451.35 L49.55 -452.0 55.0 -450.3 56.2 -449.8 57.85 -449.05 59.8 -449.15 Q60.35 -449.65 60.45 -450.45 60.5 -450.8 62.0 -451.1 L59.65 -453.5 57.05 -455.8 57.8 -456.15 58.75 -455.8 59.0 -456.15 61.25 -455.9 63.75 -455.9 59.25 -459.1 Q58.45 -459.15 57.55 -459.55 L57.5 -459.3 57.45 -459.3 57.3 -459.55 Q56.55 -460.0 56.15 -460.2 L54.6 -460.6 52.0 -460.4 50.85 -459.4 M49.55 -449.05 Q48.75 -448.15 48.6 -447.45 L48.5 -446.0 Q48.5 -444.45 49.0 -443.4 L49.25 -443.4 Q51.05 -441.5 52.15 -441.0 L53.8 -440.35 Q53.0 -441.2 51.75 -441.75 L52.0 -442.05 55.55 -440.6 57.45 -440.2 Q56.6 -440.8 56.05 -441.55 54.8 -443.25 55.0 -445.55 55.25 -446.4 57.95 -446.6 L57.2 -447.05 56.1 -447.7 55.9 -447.85 55.45 -448.15 54.15 -448.1 Q51.45 -448.1 49.6 -449.05 L49.55 -449.05 M49.05 -450.75 L49.1 -450.7 49.2 -450.7 49.4 -450.7 49.05 -450.75 M58.75 -455.1 L58.65 -455.25 58.5 -455.25 58.75 -455.1 M59.5 -455.2 L59.4 -455.25 59.35 -455.25 59.35 -455.3 58.95 -455.25 59.5 -455.2 M71.25 -462.3 L71.3 -462.3 68.25 -463.4 68.15 -463.2 Q68.0 -463.1 68.0 -463.9 68.0 -465.15 68.1 -464.75 70.05 -465.05 72.95 -464.1 75.45 -463.25 77.0 -461.95 L77.0 -462.05 Q77.0 -463.1 73.1 -464.7 68.4 -466.65 62.6 -466.65 L59.9 -466.5 Q62.4 -465.55 65.2 -463.65 L68.35 -461.35 69.5 -460.6 Q70.8 -459.8 71.25 -459.65 L71.75 -459.8 70.85 -460.9 69.75 -462.55 71.05 -462.05 71.25 -462.3 M80.65 -455.3 L80.2 -453.85 Q79.75 -453.0 79.75 -452.4 L79.85 -452.05 81.75 -454.6 83.8 -456.7 82.85 -456.65 80.05 -457.0 79.8 -457.05 Q80.65 -456.05 80.65 -455.3 M111.5 -405.8 Q110.35 -401.5 90.15 -396.9 75.55 -393.6 62.8 -392.3 54.05 -390.75 41.55 -390.75 L35.6 -390.9 30.35 -391.25 25.6 -391.4 20.7 -391.75 15.25 -391.9 9.7 -392.2 7.1 -392.35 4.35 -392.7 Q-16.65 -396.25 -22.9 -397.95 L-28.05 -399.7 -28.8 -397.1 Q-29.7 -393.95 -29.7 -393.0 L-29.7 -392.85 -29.6 -392.65 -27.7 -387.95 Q-27.4 -387.85 -27.4 -387.15 -27.4 -386.3 -28.55 -385.55 L-28.5 -383.95 Q-28.5 -383.2 -28.65 -382.85 -29.05 -382.1 -30.5 -381.65 -31.95 -381.2 -32.25 -380.55 L-32.3 -379.4 -32.05 -378.15 -31.55 -377.6 -31.3 -377.45 Q-22.1 -375.35 -0.25 -371.65 L6.3 -370.8 13.75 -369.7 24.7 -369.2 41.8 -369.7 44.85 -369.4 45.65 -369.3 65.05 -371.55 87.8 -374.25 99.55 -377.2 Q107.25 -379.1 111.2 -380.55 L111.45 -380.9 107.0 -382.85 102.6 -384.0 102.75 -383.05 102.25 -382.8 99.9 -382.95 98.55 -383.3 95.95 -383.45 93.2 -383.8 89.95 -384.5 89.85 -385.65 Q89.85 -386.25 90.85 -386.9 L94.2 -388.75 Q95.25 -389.45 95.5 -390.2 L96.25 -391.75 Q104.85 -395.15 108.8 -399.8 111.3 -402.8 111.5 -405.8 M111.7 -409.4 L112.2 -407.6 112.5 -405.75 Q112.5 -399.85 104.9 -394.95 97.3 -391.05 97.3 -390.4 97.3 -389.35 94.7 -388.05 L90.55 -386.15 90.55 -385.4 93.95 -384.25 99.25 -383.8 102.2 -384.1 101.45 -384.25 100.25 -386.5 Q99.7 -386.8 97.2 -388.9 L97.8 -388.85 97.95 -388.95 110.2 -388.0 110.05 -387.45 Q109.75 -386.9 109.75 -386.2 109.75 -385.5 111.6 -384.05 113.45 -382.65 113.45 -381.5 L113.35 -380.4 Q113.05 -379.7 111.95 -379.55 L111.6 -379.65 Q109.85 -378.75 105.9 -377.4 99.35 -375.15 93.6 -374.05 L85.8 -372.15 74.8 -370.55 57.5 -368.8 45.45 -367.5 45.0 -367.75 37.7 -367.5 24.7 -367.5 21.4 -367.8 13.0 -368.5 7.1 -369.2 2.95 -369.95 0.85 -370.1 -1.45 -370.4 -3.75 -370.55 -6.25 -370.9 Q-26.65 -374.8 -35.25 -377.0 -50.0 -380.85 -50.0 -385.45 L-49.9 -386.5 -49.6 -386.65 -47.1 -390.8 Q-45.4 -394.0 -45.85 -396.6 L-51.05 -397.55 -53.65 -397.7 -56.4 -398.0 -77.5 -397.75 Q-87.6 -396.9 -95.6 -394.05 L-101.1 -392.1 -101.7 -391.7 -103.8 -390.7 Q-106.1 -389.25 -105.4 -386.15 L-105.2 -386.1 Q-105.05 -386.0 -105.05 -385.25 L-105.1 -385.1 -105.05 -385.0 -105.45 -384.75 -107.05 -383.85 Q-109.1 -382.9 -110.3 -382.9 -116.6 -382.9 -122.05 -386.6 -126.55 -389.6 -126.55 -391.25 L-126.05 -393.15 Q-125.55 -394.4 -125.55 -395.05 -125.55 -396.25 -127.5 -397.4 L-123.65 -400.9 Q-125.4 -401.2 -125.9 -402.15 L-126.05 -403.45 -124.95 -407.4 -125.05 -408.2 -124.75 -409.0 -124.8 -410.3 Q-124.45 -412.0 -122.3 -412.8 -120.9 -413.3 -113.65 -416.3 -110.25 -416.3 -108.65 -415.4 -106.9 -414.1 -105.3 -413.3 L-105.25 -413.15 Q-99.8 -415.5 -98.7 -414.0 -95.15 -415.95 -93.3 -416.5 -87.55 -418.25 -74.15 -419.45 -60.15 -419.45 -60.15 -419.65 L-56.2 -419.2 -46.55 -418.25 Q-40.65 -418.35 -34.8 -415.3 -30.6 -413.05 -29.75 -411.3 L-29.6 -411.5 -29.4 -411.2 -28.75 -410.05 -29.75 -408.55 Q-30.85 -407.0 -31.05 -405.15 L-31.25 -403.65 Q-29.2 -400.95 -21.0 -398.85 -14.6 -397.25 1.2 -394.15 L5.55 -393.65 10.35 -393.2 21.45 -392.7 31.05 -392.2 37.2 -392.2 59.25 -393.8 70.45 -395.4 70.6 -395.35 74.95 -396.05 93.1 -399.2 Q100.65 -400.8 106.1 -403.5 112.7 -406.8 109.75 -409.15 L110.9 -409.2 110.8 -409.4 111.7 -409.4 M318.6 -473.65 L318.6 -473.9 Q317.4 -473.0 314.45 -471.8 L312.75 -471.15 Q311.0 -469.8 307.25 -467.15 L298.55 -461.25 297.8 -461.35 301.9 -464.5 Q304.8 -466.7 304.8 -468.0 304.8 -468.4 305.8 -469.1 L306.75 -469.7 303.2 -469.2 Q296.85 -468.15 295.35 -466.9 L294.8 -466.8 Q291.5 -464.0 286.7 -460.55 284.55 -459.05 280.65 -456.5 278.7 -454.55 274.15 -452.1 L267.15 -448.4 266.65 -448.65 273.7 -453.4 279.65 -457.5 Q282.95 -459.9 285.3 -462.9 L288.5 -465.9 289.35 -466.55 289.3 -466.55 Q289.1 -466.8 287.85 -467.05 L287.35 -467.15 Q287.15 -467.15 287.15 -467.75 281.4 -460.55 266.5 -451.15 257.0 -445.2 251.05 -442.3 245.0 -439.3 239.15 -437.4 252.75 -440.15 265.3 -444.15 272.9 -446.55 291.0 -453.55 301.7 -457.65 310.75 -465.1 L318.2 -471.65 Q317.35 -471.15 316.8 -471.15 L316.3 -471.15 318.6 -473.65 M-122.85 -410.2 L-121.05 -410.85 -115.05 -412.15 -114.0 -411.9 -113.45 -411.5 -112.95 -411.15 -113.15 -411.0 Q-113.7 -411.05 -113.9 -411.25 L-114.7 -411.4 Q-118.1 -411.4 -120.6 -409.85 L-122.65 -408.05 -123.2 -406.05 -123.2 -405.95 -123.45 -405.35 -123.6 -404.85 -121.3 -406.5 -115.55 -408.95 Q-113.4 -409.95 -110.75 -411.9 L-110.7 -413.7 -110.4 -414.4 -111.0 -414.55 Q-111.65 -414.75 -111.8 -414.9 -116.85 -413.85 -123.05 -410.8 L-122.9 -410.3 -122.85 -410.2 M-124.45 -397.65 Q-123.65 -398.65 -122.2 -398.45 -121.8 -398.9 -121.7 -398.15 -118.9 -400.35 -114.5 -402.6 L-112.0 -403.8 -109.7 -406.9 Q-106.2 -410.25 -101.15 -410.8 L-101.3 -412.7 Q-109.2 -411.95 -115.25 -406.6 -121.3 -400.2 -125.2 -397.75 L-124.8 -397.15 -124.45 -397.65 M-122.7 -401.7 L-121.6 -402.6 -120.95 -403.1 -122.75 -401.85 -122.7 -401.75 -122.7 -401.7 M-116.4 -399.35 Q-119.55 -397.35 -121.8 -396.35 L-122.65 -395.3 -124.95 -392.55 -125.0 -392.2 Q-125.0 -390.15 -119.85 -387.6 L-119.65 -387.5 -119.25 -387.3 -119.1 -387.25 Q-117.0 -386.25 -115.05 -385.7 L-114.45 -385.55 -113.15 -385.95 -111.0 -386.15 Q-112.15 -386.9 -115.7 -387.8 -118.15 -388.45 -119.3 -389.65 -120.65 -390.35 -120.65 -391.0 -120.65 -392.25 -120.4 -391.25 -119.75 -391.1 -118.9 -390.3 -117.65 -389.55 -114.7 -389.55 L-114.3 -389.55 -114.5 -389.6 Q-115.4 -389.8 -115.55 -390.05 L-112.8 -392.2 Q-110.9 -393.4 -110.75 -394.15 L-110.35 -396.3 -109.8 -398.45 -111.0 -398.8 -111.1 -398.7 -111.25 -399.55 Q-111.25 -400.35 -108.7 -401.8 -106.0 -403.35 -101.55 -404.95 L-100.55 -404.9 -99.85 -404.85 -99.7 -405.5 Q-99.9 -405.9 -100.9 -405.95 -102.65 -405.65 -108.15 -403.05 -114.2 -400.25 -114.8 -400.05 L-114.6 -400.5 -116.4 -399.35 M-98.25 -411.7 Q-98.25 -409.5 -97.35 -408.1 -96.5 -406.7 -96.5 -405.55 -96.5 -404.15 -98.4 -401.05 -100.3 -398.0 -100.3 -395.6 L-99.9 -394.7 -97.85 -395.55 Q-91.4 -397.85 -77.5 -399.2 L-77.5 -399.45 -58.25 -399.45 -46.3 -397.95 -46.25 -397.95 Q-44.9 -397.4 -44.05 -397.45 L-44.0 -397.5 Q-39.4 -396.45 -35.7 -394.9 -33.4 -393.9 -31.75 -392.9 L-32.5 -394.55 Q-32.8 -395.5 -32.8 -400.65 L-32.75 -403.4 Q-33.1 -404.4 -32.65 -405.4 L-32.6 -405.4 -32.5 -406.15 Q-32.1 -407.95 -30.75 -409.95 L-35.2 -414.3 Q-36.65 -414.45 -39.8 -415.7 -42.85 -416.85 -47.25 -417.3 L-49.55 -417.45 -52.05 -417.75 -54.4 -417.9 -56.9 -418.25 -74.15 -418.25 Q-86.7 -416.95 -91.6 -415.75 -94.65 -415.0 -97.4 -413.45 L-98.25 -411.7 M-123.7 -395.65 L-123.8 -395.6 -124.0 -395.5 -123.95 -395.4 -123.7 -395.65" fill="#a9e8fa" fill-rule="evenodd" stroke="none"/>
    <path d="M60.55 -469.15 Q64.95 -469.55 72.35 -467.6 L77.0 -464.95 Q79.25 -463.6 79.25 -462.0 79.25 -461.65 78.55 -460.85 77.8 -460.1 77.8 -459.8 77.8 -459.25 78.75 -458.2 L79.1 -458.2 83.3 -458.35 Q84.75 -458.45 87.1 -459.35 L87.9 -459.65 Q96.35 -464.55 113.15 -465.75 L113.65 -466.15 115.9 -465.95 121.55 -465.85 129.35 -465.3 129.9 -464.8 Q140.65 -463.9 144.65 -462.5 146.25 -461.95 149.0 -460.45 151.85 -458.85 154.85 -457.75 156.6 -457.1 160.35 -455.25 163.95 -453.45 164.85 -453.15 L169.75 -451.55 Q171.9 -450.85 174.85 -449.55 180.1 -447.3 183.6 -446.1 188.7 -444.35 194.75 -443.05 L199.25 -441.75 Q202.25 -440.75 208.1 -439.4 L224.5 -438.0 235.45 -437.5 Q251.15 -442.4 265.8 -451.8 276.25 -458.55 287.2 -468.55 L287.25 -468.9 287.5 -469.25 287.85 -469.55 288.1 -469.35 288.75 -470.0 288.15 -469.05 288.0 -468.5 289.1 -467.95 290.05 -467.5 291.9 -467.8 294.75 -468.1 Q296.2 -469.55 303.1 -470.8 L310.9 -472.25 Q313.4 -473.25 320.9 -476.75 L323.0 -476.25 322.15 -475.1 Q317.1 -468.65 311.75 -464.2 303.5 -457.3 292.0 -452.5 272.55 -444.35 269.85 -443.4 257.35 -439.05 237.5 -435.25 L233.25 -435.25 228.7 -434.65 227.35 -433.8 221.6 -433.55 220.35 -433.55 200.4 -431.25 181.6 -431.25 Q163.4 -434.35 140.6 -441.15 113.6 -449.2 104.4 -451.25 L86.25 -451.1 83.15 -450.05 80.95 -449.1 81.15 -448.55 Q81.75 -446.95 81.75 -445.3 81.75 -443.75 81.4 -443.35 80.7 -442.45 77.8 -441.8 L78.5 -440.95 Q78.85 -440.4 78.85 -439.65 78.85 -438.4 73.95 -436.05 68.2 -433.25 62.35 -433.25 56.9 -433.25 53.95 -436.15 52.5 -437.55 52.15 -438.5 49.6 -438.85 48.5 -441.8 47.8 -443.65 47.8 -445.85 47.8 -447.95 47.95 -448.4 L48.45 -449.15 Q47.55 -449.5 47.05 -450.5 46.65 -451.2 46.6 -452.0 46.6 -452.85 47.45 -454.5 48.6 -456.6 50.05 -456.75 49.6 -457.45 49.55 -458.65 L49.55 -458.7 Q49.35 -459.0 49.35 -459.85 49.35 -460.45 49.75 -460.85 L49.0 -462.5 Q48.25 -464.0 48.25 -464.25 48.25 -465.6 49.3 -466.2 L51.25 -466.9 51.6 -466.85 Q53.9 -467.75 56.6 -467.35 57.3 -468.85 60.55 -469.15 M51.1 -465.15 Q50.5 -464.75 50.5 -464.15 L50.9 -463.15 51.2 -462.7 51.85 -461.6 Q54.15 -461.8 57.0 -460.85 L57.35 -460.75 Q57.55 -460.75 57.55 -460.0 L57.55 -459.55 57.5 -459.3 57.45 -459.3 57.3 -459.55 Q56.55 -460.0 56.15 -460.2 L54.6 -460.6 52.0 -460.4 50.85 -459.4 50.8 -459.1 Q50.8 -458.8 51.5 -457.9 L52.75 -456.4 52.55 -455.7 52.0 -455.1 49.6 -454.85 48.5 -453.6 Q48.0 -452.7 48.0 -452.0 48.0 -451.7 48.35 -451.35 L48.7 -451.05 49.05 -450.75 49.1 -450.7 49.2 -450.7 49.4 -450.7 51.8 -450.25 55.35 -449.0 Q56.5 -448.75 56.55 -448.5 56.15 -448.25 55.45 -448.15 L54.15 -448.1 Q51.45 -448.1 49.6 -449.05 L49.55 -449.05 Q48.75 -448.15 48.6 -447.45 L48.5 -446.0 Q48.5 -444.45 49.0 -443.4 L49.25 -443.4 Q51.05 -441.5 52.15 -441.0 L53.8 -440.35 58.25 -439.05 67.7 -439.4 70.75 -439.8 71.85 -439.55 72.0 -439.3 69.15 -438.5 67.95 -438.2 67.0 -438.0 57.3 -438.35 54.1 -439.0 55.35 -437.4 55.4 -437.3 55.45 -437.25 Q56.95 -435.75 60.3 -435.35 L60.35 -435.35 62.6 -435.25 65.95 -435.4 Q70.0 -435.85 72.95 -437.35 L76.25 -439.6 Q74.3 -440.8 73.4 -442.9 L73.35 -443.0 71.75 -447.25 Q69.7 -450.6 66.3 -452.25 L60.8 -454.85 60.15 -455.0 59.5 -455.2 59.4 -455.25 59.35 -455.25 59.35 -455.3 58.95 -455.25 58.9 -455.25 58.65 -455.25 58.5 -455.25 58.75 -455.1 60.15 -454.15 Q61.2 -453.4 61.4 -452.55 L61.15 -452.3 59.65 -453.5 57.05 -455.8 57.8 -456.15 58.75 -455.8 61.45 -454.95 62.9 -454.55 63.4 -454.4 64.8 -454.0 Q69.05 -452.7 70.3 -451.25 L73.45 -447.2 Q73.1 -446.65 73.1 -445.55 73.1 -444.0 75.0 -442.1 L75.2 -441.9 75.8 -441.35 75.75 -441.75 75.75 -441.9 Q75.8 -442.9 76.2 -443.25 77.0 -443.95 79.85 -444.35 80.05 -444.75 80.05 -445.85 L79.9 -446.65 78.6 -450.35 78.5 -450.4 78.55 -450.45 77.8 -452.35 78.55 -453.55 79.25 -455.05 Q79.25 -455.75 77.8 -456.85 76.9 -457.5 76.55 -458.1 L74.9 -459.7 74.75 -459.8 71.45 -461.85 71.05 -462.0 71.05 -462.05 71.25 -462.3 71.3 -462.3 Q72.55 -462.2 75.0 -460.85 L75.8 -460.35 75.85 -460.35 76.55 -459.85 76.6 -460.05 76.7 -460.35 77.0 -461.95 77.0 -462.05 Q77.0 -463.1 73.1 -464.7 68.4 -466.65 62.6 -466.65 L59.9 -466.5 Q62.4 -465.55 65.2 -463.65 L68.35 -461.35 Q73.3 -457.4 75.35 -453.4 73.2 -454.75 70.8 -457.2 L70.7 -457.3 66.8 -460.85 Q61.9 -464.45 51.35 -465.35 L51.1 -465.15 M80.65 -455.3 L80.2 -453.85 Q79.75 -453.0 79.75 -452.4 L79.85 -452.05 81.75 -454.6 83.8 -456.7 82.85 -456.65 80.05 -457.0 79.8 -457.05 Q80.65 -456.05 80.65 -455.3 M80.55 -450.3 L81.55 -450.85 85.75 -452.55 105.25 -452.5 Q116.9 -449.6 141.1 -442.35 163.95 -435.85 181.75 -433.4 L200.3 -433.4 209.4 -434.2 Q186.25 -437.1 174.65 -442.8 L174.85 -443.05 Q183.75 -438.7 212.6 -434.85 L215.25 -434.95 220.45 -435.75 Q208.45 -436.45 197.3 -439.65 190.9 -441.5 172.0 -449.05 161.45 -453.15 152.25 -457.6 145.5 -460.65 142.5 -461.35 L132.25 -463.2 122.25 -464.35 121.95 -464.35 Q98.45 -462.9 89.55 -458.55 86.4 -457.0 83.65 -454.35 L80.2 -451.1 80.55 -450.3 M111.5 -405.8 Q110.35 -401.5 90.15 -396.9 75.55 -393.6 62.8 -392.3 54.05 -390.75 41.55 -390.75 L35.6 -390.9 30.35 -391.25 25.6 -391.4 20.7 -391.75 15.25 -391.9 9.7 -392.2 7.1 -392.35 4.35 -392.7 Q-16.65 -396.25 -22.9 -397.95 -29.15 -399.7 -31.5 -401.7 L-31.55 -400.65 Q-31.55 -397.0 -29.6 -392.65 L-27.7 -387.95 Q-27.4 -387.85 -27.4 -387.15 -27.4 -386.0 -29.45 -385.15 -32.1 -384.05 -37.05 -384.05 L-41.3 -384.2 -44.8 -384.5 -48.0 -384.75 -48.8 -385.1 Q-48.65 -381.55 -31.85 -377.6 -22.75 -375.45 -0.25 -371.65 L6.3 -370.8 13.75 -369.7 24.7 -369.2 41.8 -369.7 44.85 -369.4 45.65 -369.3 65.05 -371.55 87.8 -374.25 99.55 -377.2 Q107.25 -379.1 111.2 -380.55 L111.45 -380.9 107.0 -382.85 102.6 -384.0 102.75 -383.05 102.25 -382.8 99.9 -382.95 98.55 -383.3 95.95 -383.45 93.2 -383.8 89.95 -384.5 89.85 -385.65 Q89.85 -386.25 90.85 -386.9 L94.2 -388.75 Q95.25 -389.45 95.5 -390.2 L96.25 -391.75 Q104.85 -395.15 108.8 -399.8 111.3 -402.8 111.5 -405.8 M112.2 -407.6 L112.5 -405.75 Q112.5 -399.85 104.9 -394.95 97.3 -391.05 97.3 -390.4 97.3 -389.35 94.7 -388.05 L90.55 -386.15 90.55 -385.4 93.95 -384.25 99.25 -383.8 102.2 -384.1 101.45 -384.25 100.25 -386.5 Q99.7 -386.8 97.2 -388.9 L97.8 -388.85 97.95 -388.95 110.2 -388.0 110.05 -387.45 Q109.75 -386.9 109.75 -386.2 109.75 -385.5 111.6 -384.05 113.45 -382.65 113.45 -381.5 L113.35 -380.4 Q113.05 -379.7 111.95 -379.55 L111.6 -379.65 Q109.85 -378.75 105.9 -377.4 99.35 -375.15 93.6 -374.05 L85.8 -372.15 74.8 -370.55 57.5 -368.8 45.45 -367.5 45.0 -367.75 37.7 -367.5 24.7 -367.5 21.4 -367.8 13.0 -368.5 7.1 -369.2 2.95 -369.95 0.85 -370.1 -1.45 -370.4 -3.75 -370.55 -6.25 -370.9 Q-26.65 -374.8 -35.25 -377.0 -50.0 -380.85 -50.0 -385.45 L-49.9 -386.5 -49.6 -386.65 -47.1 -390.8 Q-45.4 -394.0 -45.85 -396.6 L-51.05 -397.55 -53.65 -397.7 -56.4 -398.0 -77.5 -397.75 Q-87.6 -396.9 -95.6 -394.05 L-101.1 -392.1 -101.7 -391.7 -103.8 -390.7 Q-106.1 -389.25 -105.4 -386.15 L-105.2 -386.1 Q-105.05 -386.0 -105.05 -385.25 L-105.1 -385.1 -105.05 -385.0 -105.45 -384.75 -107.05 -383.85 Q-109.1 -382.9 -110.3 -382.9 -116.6 -382.9 -122.05 -386.6 -126.55 -389.6 -126.55 -391.25 L-126.05 -393.15 Q-125.55 -394.4 -125.55 -395.05 -125.55 -396.25 -127.5 -397.4 L-123.65 -400.9 Q-125.4 -401.2 -125.9 -402.15 L-126.05 -403.45 -124.95 -407.4 -125.05 -408.2 -124.75 -409.0 -124.8 -410.3 Q-124.45 -412.0 -122.3 -412.8 -120.9 -413.3 -113.65 -416.3 -110.25 -416.3 -108.65 -415.4 -106.9 -414.1 -105.3 -413.3 L-105.25 -413.15 Q-99.8 -415.5 -98.7 -414.0 -95.15 -415.95 -93.3 -416.5 -87.55 -418.25 -74.15 -419.45 -60.15 -419.45 -60.15 -419.65 L-56.2 -419.2 -46.55 -418.25 Q-40.65 -418.35 -34.8 -415.3 -30.6 -413.05 -29.75 -411.3 L-29.6 -411.5 -29.4 -411.2 -28.75 -410.05 -29.75 -408.55 Q-30.85 -407.0 -31.05 -405.15 L-31.25 -403.65 Q-29.2 -400.95 -21.0 -398.85 -14.6 -397.25 1.2 -394.15 L5.55 -393.65 10.35 -393.2 21.45 -392.7 31.05 -392.2 37.2 -392.2 59.25 -393.8 70.45 -395.4 70.6 -395.35 74.95 -396.05 93.1 -399.2 Q100.65 -400.8 106.1 -403.5 112.7 -406.8 109.75 -409.15 L110.9 -409.2 110.8 -409.4 111.7 -409.4 112.2 -407.6 M314.45 -471.8 L309.8 -470.15 303.2 -469.2 Q296.85 -468.15 295.35 -466.9 L294.8 -466.8 Q291.5 -464.0 286.7 -460.55 283.0 -458.0 274.35 -452.35 276.3 -454.05 280.0 -456.8 284.35 -459.9 286.55 -461.75 290.3 -464.75 292.8 -466.5 L292.0 -466.5 289.3 -466.55 Q289.1 -466.8 287.85 -467.05 L287.35 -467.15 Q287.15 -467.15 287.15 -467.75 281.4 -460.55 266.5 -451.15 257.0 -445.2 251.05 -442.3 245.0 -439.3 239.15 -437.4 252.75 -440.15 265.3 -444.15 272.9 -446.55 291.0 -453.55 301.7 -457.65 310.75 -465.1 L318.2 -471.65 Q317.35 -471.15 316.8 -471.15 L316.3 -471.15 318.6 -473.65 318.6 -473.9 Q317.4 -473.0 314.45 -471.8 M108.0 -384.05 L111.35 -382.65 109.65 -384.65 Q108.55 -386.2 108.7 -387.05 L103.2 -387.65 100.35 -387.95 Q102.3 -386.85 102.45 -385.65 L108.0 -384.05 M-122.9 -410.3 L-122.85 -410.2 -121.05 -410.85 -115.05 -412.15 -114.0 -411.9 -113.45 -411.5 -112.95 -411.15 -113.15 -411.0 Q-113.7 -411.05 -113.9 -411.25 L-114.7 -411.4 Q-118.1 -411.4 -120.6 -409.85 L-122.65 -408.05 -123.2 -406.05 -123.2 -405.95 -123.45 -405.35 -123.6 -404.85 -124.15 -403.55 -122.7 -401.75 -122.7 -401.7 -121.6 -402.6 -120.95 -403.1 -115.05 -408.0 -110.25 -410.7 -107.4 -412.15 -108.05 -412.55 -108.5 -412.85 Q-110.25 -414.0 -110.4 -414.4 L-111.0 -414.55 Q-111.65 -414.75 -111.8 -414.9 -116.85 -413.85 -123.05 -410.8 L-122.9 -410.3 M-124.8 -397.15 L-124.0 -395.5 -123.95 -395.4 -123.7 -395.65 -120.25 -398.4 -121.8 -396.35 -122.65 -395.3 -124.95 -392.55 -125.0 -392.2 Q-125.0 -390.15 -119.85 -387.6 L-119.65 -387.5 -119.25 -387.3 -119.1 -387.25 Q-117.0 -386.25 -115.05 -385.7 L-114.45 -385.55 -110.25 -385.0 Q-109.2 -385.0 -107.7 -385.65 L-106.6 -386.1 -106.8 -386.4 Q-107.65 -387.65 -107.65 -388.5 L-107.65 -388.55 -110.05 -388.25 Q-115.8 -388.25 -118.7 -389.4 L-119.3 -389.65 Q-120.65 -390.35 -120.65 -391.0 -120.65 -392.25 -120.4 -391.25 -119.75 -391.1 -118.9 -390.3 -117.65 -389.55 -114.7 -389.55 L-114.3 -389.55 Q-111.55 -389.65 -108.55 -390.75 L-105.25 -392.0 -104.95 -392.0 -103.5 -393.45 -103.65 -394.15 Q-103.65 -396.85 -102.25 -399.3 L-102.1 -399.55 -102.0 -399.7 -100.25 -403.55 -99.85 -404.85 -99.7 -405.5 Q-99.9 -405.9 -100.9 -405.95 -102.65 -405.65 -108.15 -403.05 -114.2 -400.25 -114.8 -400.05 L-114.6 -400.5 Q-113.35 -402.7 -106.0 -405.95 -102.75 -407.35 -100.75 -407.7 L-101.1 -409.75 -101.15 -410.8 -101.3 -412.7 Q-109.2 -411.95 -115.25 -406.6 -121.3 -400.2 -125.2 -397.75 L-124.8 -397.15 M-99.2 -410.55 L-99.75 -409.25 Q-99.2 -408.85 -98.8 -408.0 L-98.9 -407.75 Q-97.65 -407.5 -97.65 -406.15 -97.65 -402.65 -100.4 -399.45 -102.4 -397.1 -101.9 -396.1 L-101.05 -394.1 -97.85 -395.55 Q-91.4 -397.85 -77.5 -399.2 L-77.5 -399.45 -58.25 -399.45 -46.3 -397.95 -46.25 -397.95 Q-44.9 -397.4 -44.05 -397.45 L-44.0 -397.5 Q-39.4 -396.45 -35.7 -394.9 -33.4 -393.9 -31.75 -392.9 L-32.5 -394.55 Q-32.8 -395.5 -32.8 -400.65 L-32.75 -403.4 Q-33.1 -404.4 -32.65 -405.4 L-32.6 -405.4 -32.5 -406.15 Q-32.1 -407.95 -30.75 -409.95 L-35.2 -414.3 Q-36.65 -414.45 -39.8 -415.7 -42.85 -416.85 -47.25 -417.3 L-49.55 -417.45 -52.05 -417.75 -54.4 -417.9 -56.9 -418.25 -74.15 -418.25 Q-86.7 -416.95 -91.6 -415.75 -95.2 -414.85 -98.45 -412.85 -98.55 -412.0 -99.2 -410.55 M-28.8 -387.2 Q-28.8 -387.9 -29.1 -388.6 L-29.6 -389.15 Q-30.6 -391.25 -36.9 -393.8 -40.8 -395.35 -44.75 -396.3 -44.85 -394.7 -46.1 -391.5 -47.25 -388.55 -48.45 -386.45 L-44.7 -385.9 -40.8 -385.5 -32.05 -385.9 -31.45 -385.7 Q-30.2 -385.75 -29.5 -386.2 -28.8 -386.6 -28.8 -387.2" fill="#2f526f" fill-rule="evenodd" stroke="none"/>
    <path d="M166.65 -334.95 L166.8 -333.05 Q161.75 -332.5 158.25 -329.15 L155.95 -326.05 153.45 -324.85 Q149.05 -322.6 146.25 -320.4 146.15 -321.15 145.75 -320.7 144.3 -320.9 143.5 -319.9 L143.15 -319.4 142.75 -320.0 Q146.65 -322.45 152.7 -328.85 158.75 -334.2 166.65 -334.95 M168.1 -327.1 L167.4 -327.15 166.4 -327.2 Q161.95 -325.6 159.25 -324.05 156.7 -322.6 156.7 -321.8 156.7 -321.0 156.85 -320.95 L156.95 -321.05 158.15 -320.7 157.6 -318.55 157.2 -316.4 Q157.05 -315.65 155.15 -314.45 L152.4 -312.3 Q152.55 -312.05 153.45 -311.85 L153.65 -311.8 153.25 -311.8 Q150.3 -311.8 149.05 -312.55 148.2 -313.35 147.55 -313.5 147.3 -314.5 147.3 -313.25 147.3 -312.6 148.65 -311.9 149.8 -310.7 152.25 -310.05 155.8 -309.15 156.95 -308.4 L154.8 -308.2 153.5 -307.8 152.9 -307.95 Q150.95 -308.5 148.85 -309.5 L148.7 -309.55 148.3 -309.75 148.1 -309.85 Q142.95 -312.4 142.95 -314.45 L143.0 -314.8 145.3 -317.55 146.15 -318.6 Q148.4 -319.6 151.55 -321.6 L153.35 -322.75 153.15 -322.3 159.8 -325.3 Q165.3 -327.9 167.05 -328.2 168.05 -328.15 168.25 -327.75 L168.1 -327.1 M197.65 -325.4 L201.3 -325.1 204.8 -324.95 211.95 -324.6 218.9 -324.45 225.65 -324.45 Q234.65 -325.85 235.55 -328.0 L235.75 -324.9 235.9 -322.15 235.45 -318.25 234.95 -314.4 Q234.95 -312.55 235.85 -311.35 237.0 -309.9 239.15 -309.9 240.4 -309.9 240.95 -310.25 L242.75 -308.3 242.9 -308.05 Q242.25 -307.7 242.05 -307.7 242.35 -306.0 241.05 -304.6 238.65 -302.15 231.45 -302.15 221.35 -302.15 213.65 -303.5 L191.15 -307.4 Q176.8 -309.2 171.8 -310.25 L170.0 -310.6 169.8 -310.7 168.7 -311.65 Q169.3 -312.35 170.75 -312.95 L172.95 -314.0 Q172.75 -315.0 171.5 -316.55 170.45 -317.85 170.45 -319.4 L170.9 -321.05 171.55 -322.65 172.35 -324.3 Q172.9 -325.3 173.8 -325.95 L174.45 -326.15 174.55 -326.45 174.1 -327.3 173.65 -327.9 175.4 -327.8 178.8 -327.4 181.3 -327.05 183.65 -326.9 185.65 -326.55 187.45 -326.4 189.7 -326.05 191.8 -325.9 194.8 -325.55 197.65 -325.4 M248.5 -317.75 L243.25 -316.6 243.25 -316.65 242.5 -316.5 242.5 -316.4 Q237.75 -314.9 236.85 -312.6 L236.65 -314.05 237.15 -317.75 237.65 -321.45 Q236.45 -331.35 235.25 -334.1 244.4 -338.0 282.15 -339.25 L295.05 -339.5 298.8 -339.9 302.0 -339.55 305.05 -339.4 324.1 -336.3 Q340.15 -333.75 346.65 -332.15 L369.6 -326.5 Q369.25 -326.3 369.25 -325.7 L369.35 -324.8 369.65 -324.55 365.4 -324.4 364.9 -323.95 366.9 -322.15 365.9 -322.05 363.15 -323.0 359.15 -323.5 Q358.35 -323.2 357.75 -322.2 L357.2 -321.15 346.4 -321.15 Q345.85 -321.15 345.4 -320.7 345.1 -315.85 357.25 -311.65 364.1 -309.3 379.4 -304.95 L377.45 -304.7 Q377.8 -304.45 376.55 -304.45 375.4 -304.45 371.95 -305.7 368.15 -307.1 364.3 -307.45 L364.05 -307.7 358.4 -307.7 357.8 -307.0 358.15 -306.65 353.0 -306.4 Q352.15 -306.4 349.35 -307.65 L347.45 -308.5 347.4 -308.55 347.15 -308.6 346.15 -309.05 345.85 -309.0 328.85 -313.25 309.5 -317.65 Q266.3 -320.5 248.5 -317.75 M153.95 -334.15 L152.9 -334.4 146.9 -333.1 145.1 -332.45 145.05 -332.55 Q144.8 -332.9 144.9 -333.05 151.1 -336.1 156.15 -337.15 156.3 -337.0 156.95 -336.8 L157.55 -336.65 157.25 -335.95 157.2 -334.15 Q154.55 -332.2 152.4 -331.2 148.45 -329.65 146.65 -328.75 L144.35 -327.1 144.5 -327.6 144.75 -328.2 144.75 -328.3 145.3 -330.3 Q146.1 -331.3 147.35 -332.1 149.85 -333.65 153.25 -333.65 L154.05 -333.5 Q154.25 -333.3 154.8 -333.25 L155.0 -333.4 154.5 -333.75 153.95 -334.15 M8.15 -268.0 L7.9 -268.05 1.65 -267.25 -3.4 -267.2 -7.65 -267.7 Q-10.0 -268.25 -11.05 -269.0 L-10.4 -269.6 -12.4 -270.8 -3.3 -269.45 -1.0 -269.1 1.1 -268.95 3.3 -268.6 5.35 -268.45 8.2 -268.15 8.75 -268.1 8.15 -268.0 M41.25 -276.85 L44.8 -278.0 Q41.7 -275.85 39.45 -273.75 L33.3 -270.1 Q25.9 -265.45 23.3 -264.0 10.5 -256.85 -1.75 -256.85 L-7.15 -257.55 -10.2 -258.0 -13.6 -259.6 2.6 -264.75 Q7.75 -266.35 11.55 -267.7 L13.9 -268.25 Q16.95 -268.75 22.5 -270.45 L28.4 -272.05 Q28.35 -272.15 27.95 -272.25 L28.75 -272.55 41.25 -276.85 M-38.1 -280.25 L-36.4 -279.8 -31.9 -276.6 -34.4 -276.6 -36.65 -276.85 -36.9 -276.5 -37.85 -276.85 -38.6 -276.5 -36.0 -274.2 -33.65 -271.8 Q-35.15 -271.5 -35.2 -271.15 -35.3 -270.35 -35.85 -269.85 L-37.8 -269.75 -39.45 -270.5 -40.65 -271.0 Q-43.0 -271.9 -46.1 -272.7 L-47.3 -272.05 -47.65 -272.7 -47.15 -274.3 -46.05 -275.55 -43.65 -275.8 Q-43.3 -275.95 -43.1 -276.4 L-42.9 -277.1 -44.15 -278.6 -44.85 -279.8 -44.8 -280.1 -43.65 -281.1 -41.05 -281.3 -39.5 -280.9 -38.35 -280.25 -38.2 -280.0 -38.15 -280.0 -38.1 -280.25 M-18.65 -282.75 L-18.65 -282.65 Q-20.2 -283.95 -22.7 -284.8 -25.6 -285.75 -27.55 -285.45 L-27.65 -284.6 -27.5 -283.9 -27.4 -284.1 Q-26.2 -283.75 -24.35 -283.0 L-24.4 -283.0 -24.6 -282.75 -25.9 -283.25 -24.8 -281.6 -23.9 -280.5 -24.4 -280.35 -26.15 -281.3 -27.3 -282.05 -30.45 -284.35 Q-33.25 -286.25 -35.75 -287.2 L-33.05 -287.35 Q-27.25 -287.35 -22.55 -285.4 -18.65 -283.8 -18.65 -282.75 M-39.75 -268.55 L-39.55 -268.4 Q-39.1 -268.05 -38.45 -267.75 L-37.7 -267.3 Q-40.4 -267.1 -40.65 -266.25 -40.85 -263.95 -39.6 -262.25 L-38.2 -260.9 -40.1 -261.3 Q-42.85 -262.65 -43.65 -262.75 L-43.9 -262.45 -41.85 -261.05 -43.5 -261.7 Q-44.6 -262.2 -46.4 -264.1 L-46.65 -264.1 Q-47.15 -265.15 -47.15 -266.7 L-47.05 -268.15 -46.1 -269.75 -46.05 -269.75 Q-44.2 -268.8 -41.5 -268.8 L-40.2 -268.85 -39.75 -268.55 M-27.2 -276.45 L-29.7 -278.2 Q-34.85 -281.6 -39.4 -282.6 -41.4 -283.45 -44.15 -283.95 L-44.5 -284.0 -44.75 -283.85 Q-45.15 -284.5 -45.15 -284.85 -45.15 -285.45 -44.55 -285.85 L-44.3 -286.05 Q-33.75 -285.15 -28.85 -281.55 -27.55 -280.65 -24.95 -278.0 L-25.1 -278.05 Q-25.1 -277.5 -24.5 -276.25 L-23.65 -274.8 Q-23.85 -274.8 -25.3 -275.6 L-27.2 -276.45" fill="#ffffff" fill-rule="evenodd" stroke="none"/>
    <path d="M282.5 -340.95 L295.4 -341.2 295.7 -341.25 296.0 -341.45 299.5 -341.05 Q314.95 -340.1 328.95 -337.9 340.3 -336.15 348.55 -333.9 L363.6 -329.85 Q370.0 -328.05 373.4 -326.55 L376.25 -326.25 377.55 -325.2 377.65 -324.8 Q378.2 -324.45 376.95 -324.45 375.55 -324.45 373.15 -325.65 L371.05 -325.55 Q370.8 -325.35 370.9 -325.2 L371.15 -324.15 371.1 -323.35 371.05 -323.5 367.65 -323.15 368.95 -322.35 Q369.9 -321.9 370.8 -320.95 371.05 -321.7 371.05 -320.45 371.05 -319.65 370.9 -319.75 L370.7 -320.0 362.25 -322.05 359.65 -322.05 358.65 -321.15 359.25 -321.15 Q359.25 -320.25 358.65 -320.0 L349.5 -319.5 347.3 -319.25 Q348.5 -315.6 361.5 -311.7 380.4 -306.1 382.4 -305.2 382.4 -304.45 382.0 -304.15 L379.3 -303.4 376.95 -303.0 363.65 -307.0 359.0 -307.0 359.7 -306.65 Q361.15 -306.25 361.3 -305.9 L357.5 -305.35 352.9 -304.95 Q352.1 -304.95 349.7 -306.05 348.6 -306.55 347.65 -307.05 L347.55 -307.0 337.7 -309.4 325.75 -312.15 318.95 -313.2 Q315.9 -313.7 312.9 -314.7 309.8 -315.65 302.2 -316.45 L271.9 -317.65 255.35 -316.55 244.2 -314.9 244.95 -312.5 245.15 -308.3 245.0 -305.65 Q244.6 -304.25 242.75 -302.15 L242.15 -302.05 Q239.6 -300.15 236.0 -300.15 L228.35 -300.45 221.55 -300.9 200.0 -304.4 183.15 -307.65 180.6 -307.75 177.9 -308.05 175.3 -308.2 172.55 -308.55 Q168.55 -309.15 168.2 -309.5 L163.05 -309.35 162.4 -309.35 Q162.4 -308.9 162.55 -308.4 L162.75 -308.35 162.9 -307.5 162.85 -307.35 162.9 -307.25 162.5 -307.0 160.9 -306.1 Q158.85 -305.15 157.65 -305.15 151.35 -305.15 145.9 -308.85 141.4 -311.85 141.4 -313.5 141.4 -314.1 141.9 -315.4 L142.4 -317.3 Q142.4 -318.5 140.45 -319.65 141.7 -321.0 144.3 -323.15 142.55 -323.45 142.05 -324.4 141.9 -324.75 141.9 -325.7 L143.0 -329.65 142.9 -330.45 Q142.9 -330.85 143.2 -331.25 L143.15 -332.55 Q143.5 -334.25 145.65 -335.05 L154.3 -338.55 Q157.7 -338.55 159.3 -337.65 L162.65 -335.55 162.7 -335.4 Q169.5 -338.35 169.5 -335.3 169.5 -334.45 168.75 -332.8 L168.2 -331.5 169.15 -330.25 169.05 -330.0 169.4 -329.9 171.8 -329.5 183.95 -328.3 198.3 -326.65 205.55 -326.15 218.9 -326.15 Q227.75 -326.7 231.2 -327.7 232.95 -328.25 234.8 -329.75 L235.35 -329.45 233.25 -334.15 Q233.7 -335.1 234.15 -335.2 235.85 -337.1 244.35 -338.3 L282.5 -340.95 M248.5 -317.75 Q266.3 -320.5 309.5 -317.65 L328.85 -313.25 345.85 -309.0 346.15 -309.05 347.15 -308.6 347.4 -308.55 347.45 -308.5 349.35 -307.65 Q352.15 -306.4 353.0 -306.4 L358.15 -306.65 357.8 -307.0 358.4 -307.7 364.05 -307.7 364.3 -307.45 Q368.15 -307.1 371.95 -305.7 375.4 -304.45 376.55 -304.45 377.8 -304.45 377.45 -304.7 L379.4 -304.95 Q364.1 -309.3 357.25 -311.65 345.1 -315.85 345.4 -320.7 345.85 -321.15 346.4 -321.15 L357.2 -321.15 357.75 -322.2 Q358.35 -323.2 359.15 -323.5 L363.15 -323.0 365.9 -322.05 366.9 -322.15 364.9 -323.95 365.4 -324.4 369.65 -324.55 369.35 -324.8 369.25 -325.7 Q369.25 -326.3 369.6 -326.5 L346.65 -332.15 Q340.15 -333.75 324.1 -336.3 L305.05 -339.4 302.0 -339.55 298.8 -339.9 295.05 -339.5 282.15 -339.25 Q244.4 -338.0 235.25 -334.1 236.45 -331.35 237.65 -321.45 L237.15 -317.75 236.65 -314.05 236.85 -312.6 Q237.75 -314.9 242.5 -316.4 L242.5 -316.5 243.25 -316.65 243.25 -316.6 248.5 -317.75 M197.65 -325.4 L194.8 -325.55 191.8 -325.9 189.7 -326.05 187.45 -326.4 185.65 -326.55 183.65 -326.9 181.3 -327.05 178.8 -327.4 175.4 -327.8 173.65 -327.9 174.1 -327.3 174.55 -326.45 174.45 -326.15 173.8 -325.95 Q172.9 -325.3 172.35 -324.3 L171.55 -322.65 170.9 -321.05 170.45 -319.4 Q170.45 -317.85 171.5 -316.55 172.75 -315.0 172.95 -314.0 L170.75 -312.95 Q169.3 -312.35 168.7 -311.65 L169.8 -310.7 170.0 -310.6 171.8 -310.25 Q176.8 -309.2 191.15 -307.4 L213.65 -303.5 Q221.35 -302.15 231.45 -302.15 238.65 -302.15 241.05 -304.6 242.35 -306.0 242.05 -307.7 242.25 -307.7 242.9 -308.05 L242.75 -308.3 240.95 -310.25 Q240.4 -309.9 239.15 -309.9 237.0 -309.9 235.85 -311.35 234.95 -312.55 234.95 -314.4 L235.45 -318.25 235.9 -322.15 235.75 -324.9 235.55 -328.0 Q234.65 -325.85 225.65 -324.45 L218.9 -324.45 211.95 -324.6 204.8 -324.95 201.3 -325.1 197.65 -325.4 M168.1 -327.1 L168.25 -327.75 Q168.05 -328.15 167.05 -328.2 165.3 -327.9 159.8 -325.3 L153.15 -322.3 153.35 -322.75 151.55 -321.6 Q148.4 -319.6 146.15 -318.6 L145.3 -317.55 143.0 -314.8 142.95 -314.45 Q142.95 -312.4 148.1 -309.85 L148.3 -309.75 148.7 -309.55 148.85 -309.5 Q150.95 -308.5 152.9 -307.95 L153.5 -307.8 154.8 -308.2 156.95 -308.4 Q155.8 -309.15 152.25 -310.05 149.8 -310.7 148.65 -311.9 147.3 -312.6 147.3 -313.25 147.3 -314.5 147.55 -313.5 148.2 -313.35 149.05 -312.55 150.3 -311.8 153.25 -311.8 L153.65 -311.8 153.45 -311.85 Q152.55 -312.05 152.4 -312.3 L155.15 -314.45 Q157.05 -315.65 157.2 -316.4 L157.6 -318.55 158.15 -320.7 156.95 -321.05 156.85 -320.95 Q156.7 -321.0 156.7 -321.8 156.7 -322.6 159.25 -324.05 161.95 -325.6 166.4 -327.2 L167.4 -327.15 168.1 -327.1 M166.65 -334.95 Q158.75 -334.2 152.7 -328.85 146.65 -322.45 142.75 -320.0 L143.15 -319.4 143.5 -319.9 Q144.3 -320.9 145.75 -320.7 146.15 -321.15 146.25 -320.4 149.05 -322.6 153.45 -324.85 L155.95 -326.05 158.25 -329.15 Q161.75 -332.5 166.8 -333.05 L166.65 -334.95 M232.0 -277.7 L231.0 -277.85 Q229.35 -277.85 229.15 -277.15 L228.6 -275.7 222.2 -274.6 208.25 -272.45 207.15 -271.55 Q207.3 -271.1 208.25 -270.55 L209.7 -269.75 Q210.6 -269.2 213.2 -268.85 L214.85 -269.1 Q217.4 -269.35 218.1 -269.05 L218.25 -268.7 218.0 -268.5 218.6 -268.45 218.75 -268.2 218.0 -267.95 217.4 -268.0 217.2 -267.85 214.65 -267.35 214.1 -267.4 213.2 -267.35 Q203.35 -267.35 183.45 -273.1 L162.25 -279.8 Q157.25 -281.25 142.5 -286.5 L134.9 -288.45 126.85 -289.85 Q121.0 -291.2 118.6 -291.05 97.35 -290.05 75.8 -284.55 56.9 -279.8 42.7 -273.0 39.75 -271.6 35.3 -268.55 30.5 -265.3 27.9 -263.95 23.1 -260.95 18.05 -258.9 8.5 -254.95 -1.75 -254.95 -9.8 -254.95 -14.15 -256.0 -17.4 -256.75 -18.95 -258.2 L-21.7 -256.75 Q-27.0 -254.15 -32.4 -253.95 L-36.35 -254.2 Q-39.65 -254.85 -41.7 -256.85 -43.15 -258.25 -43.5 -259.2 -46.05 -259.55 -47.15 -262.5 -47.85 -264.35 -47.85 -266.55 L-47.7 -269.1 -47.2 -269.85 Q-48.1 -270.2 -48.6 -271.2 -49.0 -271.9 -49.05 -272.7 -49.05 -273.55 -48.2 -275.2 -47.05 -277.3 -45.6 -277.45 -46.05 -278.15 -46.1 -279.35 L-46.1 -279.4 Q-46.3 -279.7 -46.3 -280.55 -46.3 -281.15 -45.9 -281.55 L-46.65 -283.2 -47.4 -284.95 Q-47.4 -286.3 -46.35 -286.9 L-44.4 -287.6 -44.05 -287.55 Q-41.75 -288.45 -39.05 -288.05 -38.35 -289.55 -35.1 -289.85 -30.7 -290.25 -23.3 -288.3 L-18.65 -285.65 Q-16.4 -284.3 -16.4 -282.7 -16.4 -282.35 -17.1 -281.55 L-17.85 -280.5 Q-17.85 -279.8 -16.4 -278.35 -15.0 -276.95 -15.0 -276.0 -15.0 -275.35 -15.4 -274.6 L-14.05 -273.7 Q-12.85 -272.5 -12.1 -272.3 L-7.9 -271.45 -2.6 -270.6 1.75 -270.1 6.6 -269.7 Q15.9 -269.7 30.8 -274.6 L42.75 -278.4 48.65 -281.3 Q53.95 -283.85 58.6 -285.7 L65.25 -288.45 65.35 -288.4 69.75 -290.15 Q75.1 -291.75 88.85 -293.85 L88.85 -294.1 Q107.4 -293.95 107.75 -293.7 L109.3 -293.6 109.6 -294.1 111.35 -293.75 117.35 -293.5 125.2 -293.45 133.6 -293.85 143.35 -294.0 158.0 -293.85 Q191.65 -290.25 207.8 -286.8 222.25 -283.7 230.75 -278.85 L232.1 -278.45 232.35 -277.7 232.0 -277.7 M153.95 -334.15 L154.5 -333.75 155.0 -333.4 154.8 -333.25 Q154.25 -333.3 154.05 -333.5 L153.25 -333.65 Q149.85 -333.65 147.35 -332.1 146.1 -331.3 145.3 -330.3 L144.75 -328.3 144.75 -328.2 144.5 -327.6 144.35 -327.1 146.65 -328.75 Q148.45 -329.65 152.4 -331.2 154.55 -332.2 157.2 -334.15 L157.25 -335.95 157.55 -336.65 156.95 -336.8 Q156.3 -337.0 156.15 -337.15 151.1 -336.1 144.9 -333.05 144.8 -332.9 145.05 -332.55 L145.1 -332.45 146.9 -333.1 152.9 -334.4 153.95 -334.15 M145.25 -324.0 L145.25 -323.95 146.35 -324.85 147.0 -325.35 145.2 -324.1 145.25 -324.0 M144.15 -317.85 L143.95 -317.75 144.0 -317.65 144.25 -317.9 144.15 -317.85 M41.25 -276.85 L28.75 -272.55 27.95 -272.25 Q28.35 -272.15 28.4 -272.05 L22.5 -270.45 Q16.95 -268.75 13.9 -268.25 L11.55 -267.7 Q7.75 -266.35 2.6 -264.75 L-13.6 -259.6 -10.2 -258.0 -7.15 -257.55 -1.75 -256.85 Q10.5 -256.85 23.3 -264.0 25.9 -265.45 33.3 -270.1 L39.45 -273.75 Q41.7 -275.85 44.8 -278.0 L41.25 -276.85 M8.15 -268.0 L8.75 -268.1 8.2 -268.15 5.35 -268.45 3.3 -268.6 1.1 -268.95 -1.0 -269.1 -3.3 -269.45 -12.4 -270.8 -10.4 -269.6 -11.05 -269.0 Q-10.0 -268.25 -7.65 -267.7 L-3.4 -267.2 1.65 -267.25 7.9 -268.05 8.15 -268.0 M336.55 -347.2 L340.5 -346.95 339.6 -346.95 336.55 -347.2 M-18.65 -282.75 Q-18.65 -283.8 -22.55 -285.4 -27.25 -287.35 -33.05 -287.35 L-35.75 -287.2 Q-33.25 -286.25 -30.45 -284.35 L-27.3 -282.05 -26.15 -281.3 -24.4 -280.35 -23.9 -280.5 -24.8 -281.6 -25.9 -283.25 -24.6 -282.75 -24.4 -283.0 -24.35 -283.0 Q-26.2 -283.75 -27.4 -284.1 L-27.5 -283.9 -27.65 -284.6 -27.55 -285.45 Q-25.6 -285.75 -22.7 -284.8 -20.2 -283.95 -18.65 -282.65 L-18.65 -282.75 M-38.1 -280.25 L-38.15 -280.0 -38.2 -280.0 -38.35 -280.25 -39.5 -280.9 -41.05 -281.3 -43.65 -281.1 -44.8 -280.1 -44.85 -279.8 -44.15 -278.6 -42.9 -277.1 -43.1 -276.4 Q-43.3 -275.95 -43.65 -275.8 L-46.05 -275.55 -47.15 -274.3 -47.65 -272.7 -47.3 -272.05 -46.1 -272.7 Q-43.0 -271.9 -40.65 -271.0 L-39.45 -270.5 -37.8 -269.75 -35.85 -269.85 Q-35.3 -270.35 -35.2 -271.15 -35.15 -271.5 -33.65 -271.8 L-36.0 -274.2 -38.6 -276.5 -37.85 -276.85 -36.9 -276.5 -36.65 -276.85 -34.4 -276.6 -31.9 -276.6 -36.4 -279.8 -38.1 -280.25 M-37.0 -275.95 L-37.15 -275.95 -36.9 -275.8 -37.0 -275.95 M-36.15 -275.9 L-36.25 -275.95 -36.3 -275.95 -36.3 -276.0 -36.7 -275.95 -36.15 -275.9 M-27.2 -276.45 L-25.3 -275.6 Q-23.85 -274.8 -23.65 -274.8 L-24.5 -276.25 Q-25.1 -277.5 -25.1 -278.05 L-24.95 -278.0 Q-27.55 -280.65 -28.85 -281.55 -33.75 -285.15 -44.3 -286.05 L-44.55 -285.85 Q-45.15 -285.45 -45.15 -284.85 -45.15 -284.5 -44.75 -283.85 L-44.5 -284.0 -44.15 -283.95 Q-41.4 -283.45 -39.4 -282.6 -34.85 -281.6 -29.7 -278.2 L-27.2 -276.45 M-39.75 -268.55 L-40.2 -268.85 -41.5 -268.8 Q-44.2 -268.8 -46.05 -269.75 L-46.1 -269.75 -47.05 -268.15 -47.15 -266.7 Q-47.15 -265.15 -46.65 -264.1 L-46.4 -264.1 Q-44.6 -262.2 -43.5 -261.7 L-41.85 -261.05 -43.9 -262.45 -43.65 -262.75 Q-42.85 -262.65 -40.1 -261.3 L-38.2 -260.9 -39.6 -262.25 Q-40.85 -263.95 -40.65 -266.25 -40.4 -267.1 -37.7 -267.3 L-38.45 -267.75 Q-39.1 -268.05 -39.55 -268.4 L-39.75 -268.55 M-46.55 -271.4 L-46.45 -271.4 -46.25 -271.4 -46.6 -271.45 -46.55 -271.4" fill="#a9e8fa" fill-rule="evenodd" stroke="none"/>
    <path d="M244.2 -314.9 L244.95 -312.5 245.15 -308.3 245.0 -305.65 Q244.6 -304.25 242.75 -302.15 L242.15 -302.05 Q239.6 -300.15 236.0 -300.15 L228.35 -300.45 221.55 -300.9 200.0 -304.4 183.15 -307.65 180.6 -307.75 177.9 -308.05 175.3 -308.2 172.55 -308.55 Q168.55 -309.15 168.2 -309.5 L163.05 -309.35 162.4 -309.35 Q162.4 -308.9 162.55 -308.4 L162.75 -308.35 162.9 -307.5 162.85 -307.35 162.9 -307.25 162.5 -307.0 160.9 -306.1 Q158.85 -305.15 157.65 -305.15 151.35 -305.15 145.9 -308.85 141.4 -311.85 141.4 -313.5 141.4 -314.1 141.9 -315.4 L142.4 -317.3 Q142.4 -318.5 140.45 -319.65 141.7 -321.0 144.3 -323.15 142.55 -323.45 142.05 -324.4 141.9 -324.75 141.9 -325.7 L143.0 -329.65 142.9 -330.45 Q142.9 -330.85 143.2 -331.25 L143.15 -332.55 Q143.5 -334.25 145.65 -335.05 L154.3 -338.55 Q157.7 -338.55 159.3 -337.65 L162.65 -335.55 162.7 -335.4 Q169.5 -338.35 169.5 -335.3 169.5 -334.45 168.75 -332.8 L168.2 -331.5 169.15 -330.25 169.05 -330.0 169.4 -329.9 171.8 -329.5 183.95 -328.3 198.3 -326.65 205.55 -326.15 218.9 -326.15 Q227.75 -326.7 231.2 -327.7 232.95 -328.25 234.8 -329.75 L235.35 -329.45 233.25 -334.15 Q233.7 -335.1 234.15 -335.2 235.85 -337.1 244.35 -338.3 L282.5 -340.95 295.4 -341.2 295.7 -341.25 296.0 -341.45 299.5 -341.05 Q314.95 -340.1 328.95 -337.9 340.3 -336.15 348.55 -333.9 L363.6 -329.85 Q370.0 -328.05 373.4 -326.55 L376.25 -326.25 377.55 -325.2 377.65 -324.8 Q378.2 -324.45 376.95 -324.45 375.55 -324.45 373.15 -325.65 L371.05 -325.55 Q370.8 -325.35 370.9 -325.2 L371.15 -324.15 371.1 -323.35 371.05 -323.5 367.65 -323.15 368.95 -322.35 Q369.9 -321.9 370.8 -320.95 371.05 -321.7 371.05 -320.45 371.05 -319.65 370.9 -319.75 L370.7 -320.0 362.25 -322.05 359.65 -322.05 358.65 -321.15 359.25 -321.15 Q359.25 -320.25 358.65 -320.0 L349.5 -319.5 347.3 -319.25 Q348.5 -315.6 361.5 -311.7 380.4 -306.1 382.4 -305.2 382.4 -304.45 382.0 -304.15 L379.3 -303.4 376.95 -303.0 363.65 -307.0 359.0 -307.0 359.7 -306.65 Q361.15 -306.25 361.3 -305.9 L357.5 -305.35 352.9 -304.95 Q352.1 -304.95 349.7 -306.05 348.6 -306.55 347.65 -307.05 L347.55 -307.0 337.7 -309.4 325.75 -312.15 318.95 -313.2 Q315.9 -313.7 312.9 -314.7 309.8 -315.65 302.2 -316.45 L271.9 -317.65 255.35 -316.55 244.2 -314.9 M243.4 -312.45 L242.85 -314.6 242.65 -314.55 Q240.4 -313.95 238.9 -312.5 L237.9 -311.55 Q239.25 -311.0 242.75 -310.7 L243.75 -308.6 243.75 -308.95 243.4 -312.45 M243.25 -316.6 L248.5 -317.75 Q266.3 -320.5 309.5 -317.65 L328.85 -313.25 345.85 -309.0 346.15 -309.05 347.15 -308.6 347.4 -308.55 347.45 -308.5 349.35 -307.65 Q352.15 -306.4 353.0 -306.4 L358.15 -306.65 357.8 -307.0 358.4 -307.7 364.05 -307.7 364.3 -307.45 Q368.15 -307.1 371.95 -305.7 375.4 -304.45 376.55 -304.45 377.8 -304.45 377.45 -304.7 L379.4 -304.95 Q364.1 -309.3 357.25 -311.65 345.1 -315.85 345.4 -320.7 345.85 -321.15 346.4 -321.15 L357.2 -321.15 357.75 -322.2 Q358.35 -323.2 359.15 -323.5 L363.15 -323.0 365.9 -322.05 366.9 -322.15 364.9 -323.95 365.4 -324.4 369.65 -324.55 369.35 -324.8 369.25 -325.7 Q369.25 -326.3 369.6 -326.5 L346.65 -332.15 Q340.15 -333.75 324.1 -336.3 L305.05 -339.4 302.0 -339.55 298.8 -339.9 295.05 -339.5 282.15 -339.25 Q244.4 -338.0 235.25 -334.1 236.45 -331.35 237.65 -321.45 L237.15 -317.75 236.65 -314.05 236.85 -312.6 Q237.75 -314.9 242.5 -316.4 L242.5 -316.5 243.25 -316.65 243.25 -316.6 M197.65 -325.4 L194.8 -325.55 191.8 -325.9 189.7 -326.05 187.45 -326.4 185.65 -326.55 183.65 -326.9 181.3 -327.05 178.8 -327.4 175.4 -327.8 173.35 -327.95 171.15 -328.3 170.3 -328.4 Q170.3 -324.9 167.55 -321.7 165.55 -319.35 166.05 -318.35 L167.0 -316.15 167.15 -316.05 167.3 -315.2 Q167.3 -314.5 166.25 -313.95 L164.15 -312.95 Q162.65 -312.0 162.4 -310.35 L166.1 -310.75 171.8 -310.25 Q176.8 -309.2 191.15 -307.4 L213.65 -303.5 Q221.35 -302.15 231.45 -302.15 238.65 -302.15 241.05 -304.6 242.35 -306.0 242.05 -307.7 242.25 -307.7 242.9 -308.05 L242.75 -308.3 240.95 -310.25 Q240.4 -309.9 239.15 -309.9 237.0 -309.9 235.85 -311.35 234.95 -312.55 234.95 -314.4 L235.45 -318.25 235.9 -322.15 235.75 -324.9 235.55 -328.0 Q234.65 -325.85 225.65 -324.45 L218.9 -324.45 211.95 -324.6 204.8 -324.95 201.3 -325.1 197.65 -325.4 M166.8 -333.05 L166.65 -334.95 Q158.75 -334.2 152.7 -328.85 146.65 -322.45 142.75 -320.0 L143.15 -319.4 143.95 -317.75 144.0 -317.65 144.25 -317.9 147.7 -320.65 146.15 -318.6 145.3 -317.55 143.0 -314.8 142.95 -314.45 Q142.95 -312.4 148.1 -309.85 L148.3 -309.75 148.7 -309.55 148.85 -309.5 Q150.95 -308.5 152.9 -307.95 L153.5 -307.8 157.7 -307.25 Q158.75 -307.25 160.25 -307.9 L161.35 -308.35 161.15 -308.65 Q160.3 -309.9 160.3 -310.75 L160.3 -310.8 157.9 -310.5 Q152.15 -310.5 149.25 -311.65 L148.65 -311.9 Q147.3 -312.6 147.3 -313.25 147.3 -314.5 147.55 -313.5 148.2 -313.35 149.05 -312.55 150.3 -311.8 153.25 -311.8 L153.65 -311.8 Q156.4 -311.9 159.4 -313.0 L162.7 -314.25 163.0 -314.25 164.45 -315.7 164.3 -316.4 Q164.3 -319.1 165.7 -321.55 L165.85 -321.8 165.95 -321.95 167.7 -325.8 168.1 -327.1 168.25 -327.75 Q168.05 -328.15 167.05 -328.2 165.3 -327.9 159.8 -325.3 L153.15 -322.3 153.35 -322.75 Q154.6 -324.95 161.95 -328.2 165.2 -329.6 167.2 -329.95 166.9 -330.75 166.85 -332.0 L166.8 -333.05 M232.1 -278.45 L232.35 -277.7 232.0 -277.7 231.0 -277.85 Q229.35 -277.85 229.15 -277.15 L228.6 -275.7 222.2 -274.6 208.25 -272.45 207.15 -271.55 Q207.3 -271.1 208.25 -270.55 L209.7 -269.75 Q210.6 -269.2 213.2 -268.85 L214.85 -269.1 Q217.4 -269.35 218.1 -269.05 L218.25 -268.7 218.0 -268.5 218.6 -268.45 218.75 -268.2 218.0 -267.95 217.4 -268.0 217.2 -267.85 214.65 -267.35 214.1 -267.4 213.2 -267.35 Q203.35 -267.35 183.45 -273.1 L162.25 -279.8 Q157.25 -281.25 142.5 -286.5 L134.9 -288.45 126.85 -289.85 Q121.0 -291.2 118.6 -291.05 97.35 -290.05 75.8 -284.55 56.9 -279.8 42.7 -273.0 39.75 -271.6 35.3 -268.55 30.5 -265.3 27.9 -263.95 23.1 -260.95 18.05 -258.9 8.5 -254.95 -1.75 -254.95 -9.8 -254.95 -14.15 -256.0 -17.4 -256.75 -18.95 -258.2 L-21.7 -256.75 Q-27.0 -254.15 -32.4 -253.95 L-36.35 -254.2 Q-39.65 -254.85 -41.7 -256.85 -43.15 -258.25 -43.5 -259.2 -46.05 -259.55 -47.15 -262.5 -47.85 -264.35 -47.85 -266.55 L-47.7 -269.1 -47.2 -269.85 Q-48.1 -270.2 -48.6 -271.2 -49.0 -271.9 -49.05 -272.7 -49.05 -273.55 -48.2 -275.2 -47.05 -277.3 -45.6 -277.45 -46.05 -278.15 -46.1 -279.35 L-46.1 -279.4 Q-46.3 -279.7 -46.3 -280.55 -46.3 -281.15 -45.9 -281.55 L-46.65 -283.2 -47.4 -284.95 Q-47.4 -286.3 -46.35 -286.9 L-44.4 -287.6 -44.05 -287.55 Q-41.75 -288.45 -39.05 -288.05 -38.35 -289.55 -35.1 -289.85 -30.7 -290.25 -23.3 -288.3 L-18.65 -285.65 Q-16.4 -284.3 -16.4 -282.7 -16.4 -282.35 -17.1 -281.55 L-17.85 -280.5 Q-17.85 -279.8 -16.4 -278.35 -15.0 -276.95 -15.0 -276.0 -15.0 -275.35 -15.4 -274.6 L-14.05 -273.7 Q-12.85 -272.5 -12.1 -272.3 L-7.9 -271.45 -2.6 -270.6 1.75 -270.1 6.6 -269.7 Q15.9 -269.7 30.8 -274.6 L42.75 -278.4 48.65 -281.3 Q53.95 -283.85 58.6 -285.7 L65.25 -288.45 65.35 -288.4 69.75 -290.15 Q75.1 -291.75 88.85 -293.85 L88.85 -294.1 Q107.4 -293.95 107.75 -293.7 L109.3 -293.6 109.6 -294.1 111.35 -293.75 117.35 -293.5 125.2 -293.45 133.6 -293.85 143.35 -294.0 158.0 -293.85 Q191.65 -290.25 207.8 -286.8 222.25 -283.7 230.75 -278.85 L232.1 -278.45 M228.1 -277.75 Q228.1 -278.3 228.4 -278.55 L210.65 -284.35 196.1 -287.3 177.4 -290.6 166.75 -291.65 157.9 -292.7 143.35 -292.8 139.75 -292.65 143.45 -292.3 152.1 -291.2 Q157.0 -290.75 159.05 -290.1 L164.35 -288.45 163.2 -288.35 157.75 -289.0 151.4 -290.25 149.35 -290.4 147.1 -290.75 141.15 -291.2 Q139.05 -291.5 138.85 -291.7 L136.75 -291.85 134.5 -292.2 126.5 -292.25 127.5 -292.1 135.1 -290.35 136.0 -289.6 146.1 -286.75 164.65 -280.75 184.5 -274.85 Q195.7 -271.65 208.3 -269.45 205.95 -270.45 205.95 -271.7 205.95 -273.4 209.7 -273.9 L226.85 -276.2 228.4 -277.5 228.1 -277.75 M153.95 -334.15 L154.5 -333.75 155.0 -333.4 154.8 -333.25 Q154.25 -333.3 154.05 -333.5 L153.25 -333.65 Q149.85 -333.65 147.35 -332.1 146.1 -331.3 145.3 -330.3 L144.75 -328.3 144.75 -328.2 144.5 -327.6 144.35 -327.1 143.8 -325.8 145.25 -324.0 145.25 -323.95 146.35 -324.85 147.0 -325.35 152.9 -330.25 157.7 -332.95 160.55 -334.4 159.9 -334.8 159.45 -335.1 Q157.7 -336.25 157.55 -336.65 L156.95 -336.8 Q156.3 -337.0 156.15 -337.15 151.1 -336.1 144.9 -333.05 144.8 -332.9 145.05 -332.55 L145.1 -332.45 146.9 -333.1 152.9 -334.4 153.95 -334.15 M45.55 -276.7 Q58.75 -282.25 80.0 -286.95 94.9 -290.3 109.15 -292.3 L107.1 -292.5 88.85 -292.45 Q72.6 -289.85 60.5 -284.7 L52.15 -281.0 51.05 -280.3 51.1 -280.25 50.75 -280.1 47.9 -278.3 45.55 -276.7 M41.25 -276.85 L28.75 -272.55 27.95 -272.25 Q28.35 -272.15 28.4 -272.05 L22.5 -270.45 Q16.95 -268.75 13.9 -268.25 5.7 -266.25 -1.75 -265.05 L-7.5 -265.05 -8.1 -265.2 -8.75 -265.7 Q-0.2 -266.3 8.75 -268.1 L8.2 -268.15 5.35 -268.45 3.3 -268.6 1.1 -268.95 -1.0 -269.1 -3.3 -269.45 -14.15 -271.1 -15.85 -272.85 -15.5 -271.9 -14.5 -269.25 Q-13.9 -267.65 -13.9 -266.0 -13.9 -264.45 -14.25 -264.05 -14.95 -263.15 -17.85 -262.5 L-17.15 -261.65 Q-16.8 -261.1 -16.8 -260.35 -16.8 -259.9 -17.5 -259.25 L-17.15 -259.05 -15.15 -258.65 -13.15 -258.3 -7.15 -257.55 -1.75 -256.85 Q10.5 -256.85 23.3 -264.0 25.9 -265.45 33.3 -270.1 L39.45 -273.75 Q41.7 -275.85 44.8 -278.0 L41.25 -276.85 M336.55 -347.2 L340.5 -346.95 339.6 -346.95 336.55 -347.2 M-18.65 -282.75 Q-18.65 -283.8 -22.55 -285.4 -27.25 -287.35 -33.05 -287.35 L-35.75 -287.2 Q-33.25 -286.25 -30.45 -284.35 L-27.3 -282.05 Q-22.35 -278.1 -20.3 -274.1 -22.45 -275.45 -24.85 -277.9 L-24.95 -278.0 Q-27.55 -280.65 -28.85 -281.55 -33.75 -285.15 -44.3 -286.05 L-44.55 -285.85 Q-45.15 -285.45 -45.15 -284.85 -45.15 -284.5 -44.75 -283.85 L-44.45 -283.4 -43.8 -282.3 Q-41.5 -282.5 -38.65 -281.55 L-38.3 -281.45 Q-38.1 -281.45 -38.1 -280.7 L-38.1 -280.25 -38.15 -280.0 -38.2 -280.0 -38.35 -280.25 -39.5 -280.9 -41.05 -281.3 -43.65 -281.1 -44.8 -280.1 -44.85 -279.8 -44.15 -278.6 -42.9 -277.1 -43.1 -276.4 Q-43.3 -275.95 -43.65 -275.8 L-46.05 -275.55 -47.15 -274.3 -47.65 -272.7 -47.3 -272.05 -46.95 -271.75 -46.6 -271.45 -46.55 -271.4 -46.45 -271.4 -46.25 -271.4 -43.85 -270.95 -40.3 -269.7 Q-39.15 -269.45 -39.1 -269.2 -39.5 -268.95 -40.2 -268.85 L-41.5 -268.8 Q-44.2 -268.8 -46.05 -269.75 L-46.1 -269.75 -47.05 -268.15 -47.15 -266.7 Q-47.15 -265.15 -46.65 -264.1 L-46.4 -264.1 Q-44.6 -262.2 -43.5 -261.7 L-41.85 -261.05 -37.4 -259.75 -27.95 -260.1 -24.9 -260.5 -23.8 -260.25 -23.65 -260.0 -26.5 -259.2 -27.7 -258.9 -28.65 -258.7 -38.35 -259.05 -41.55 -259.7 -40.3 -258.1 -40.25 -258.0 -40.2 -257.95 Q-38.7 -256.45 -35.35 -256.05 L-35.3 -256.05 -33.05 -255.95 -29.7 -256.1 Q-25.65 -256.55 -22.7 -258.05 -20.8 -259.05 -19.4 -260.3 -21.35 -261.5 -22.25 -263.6 L-22.3 -263.7 -23.9 -267.95 Q-25.95 -271.3 -29.35 -272.95 L-34.85 -275.55 -35.5 -275.7 -36.15 -275.9 -36.25 -275.95 -36.3 -275.95 -36.3 -276.0 -36.7 -275.95 -37.15 -275.95 -36.9 -275.8 -35.5 -274.85 Q-34.45 -274.1 -34.25 -273.25 L-34.5 -273.0 -36.0 -274.2 -38.6 -276.5 -37.85 -276.85 -36.9 -276.5 -34.2 -275.65 -32.75 -275.25 -32.25 -275.1 -30.85 -274.7 Q-26.6 -273.4 -25.35 -271.95 -22.35 -268.5 -22.2 -267.9 -22.55 -267.35 -22.55 -266.25 -22.55 -264.7 -20.65 -262.8 L-20.45 -262.6 -19.85 -262.05 -19.9 -262.45 -19.9 -262.6 Q-19.85 -263.6 -19.45 -263.95 -18.65 -264.65 -15.8 -265.05 -15.6 -265.45 -15.6 -266.55 L-15.75 -267.35 -17.05 -271.1 -17.85 -273.05 -17.1 -274.25 Q-16.4 -275.35 -16.4 -275.75 -16.4 -276.45 -17.85 -277.55 L-19.1 -278.8 -20.75 -280.4 -20.9 -280.5 Q-22.5 -281.85 -24.2 -282.55 L-24.6 -282.7 -24.6 -282.75 -24.4 -283.0 -24.35 -283.0 Q-23.1 -282.9 -20.65 -281.55 L-19.85 -281.05 -19.8 -281.05 -19.1 -280.55 -19.05 -280.75 -18.95 -281.05 -18.65 -282.65 -18.65 -282.75" fill="#2f526f" fill-rule="evenodd" stroke="none"/>
  </g>
</svg>
