<?xml version="1.0" encoding="UTF-8" standalone="no"?>
<svg xmlns:ffdec="https://www.free-decompiler.com/flash" xmlns:xlink="http://www.w3.org/1999/xlink" ffdec:objectType="shape" height="220.8px" width="509.25px" xmlns="http://www.w3.org/2000/svg">
  <g transform="matrix(1.0, 0.0, 0.0, 1.0, 127.5, 472.4)">
    <path d="M50.85 -459.4 L52.0 -460.4 54.6 -460.6 56.15 -460.2 Q56.55 -460.0 57.3 -459.55 L57.45 -459.3 57.5 -459.3 57.55 -459.55 Q58.45 -459.15 59.25 -459.1 L63.75 -455.9 61.25 -455.9 59.0 -456.15 58.75 -455.8 57.8 -456.15 57.05 -455.8 59.65 -453.5 62.0 -451.1 Q60.5 -450.8 60.45 -450.45 60.35 -449.65 59.8 -449.15 L57.85 -449.05 56.2 -449.8 55.0 -450.3 49.55 -452.0 48.35 -451.35 Q48.0 -451.7 48.0 -452.0 48.0 -452.7 48.5 -453.6 L49.6 -454.85 52.0 -455.1 52.55 -455.7 52.75 -456.4 51.5 -457.9 Q50.8 -458.8 50.8 -459.1 L50.85 -459.4 M51.1 -465.15 L51.35 -465.35 Q61.9 -464.45 66.8 -460.85 L70.7 -457.3 70.55 -457.35 Q70.55 -456.8 71.15 -455.55 L72.0 -454.1 70.35 -454.9 Q69.0 -455.7 68.45 -455.75 L65.95 -457.5 Q60.8 -460.9 56.25 -461.9 L51.5 -463.25 51.15 -463.3 50.9 -463.15 50.5 -464.15 Q50.5 -464.75 51.1 -465.15 M49.55 -449.05 L49.6 -449.05 Q51.45 -448.1 54.15 -448.1 L55.45 -448.15 55.9 -447.85 56.1 -447.7 57.2 -447.05 57.95 -446.6 Q55.25 -446.4 55.0 -445.55 54.8 -443.25 56.05 -441.55 56.6 -440.8 57.45 -440.2 L55.55 -440.6 52.0 -442.05 51.75 -441.75 Q53.0 -441.2 53.8 -440.35 L52.15 -441.0 Q51.05 -441.5 49.25 -443.4 L49.0 -443.4 Q48.5 -444.45 48.5 -446.0 L48.6 -447.45 Q48.75 -448.15 49.55 -449.05 M109.0 -398.15 Q109.0 -397.35 109.15 -397.3 L109.25 -397.4 110.45 -397.15 Q108.9 -394.7 99.15 -390.6 90.1 -386.8 89.25 -383.5 L90.8 -382.45 93.4 -382.05 96.95 -381.65 Q96.95 -381.25 98.05 -380.5 L101.8 -380.25 107.9 -380.0 113.85 -379.9 114.75 -380.35 115.0 -379.95 110.6 -376.6 Q107.1 -374.45 101.45 -373.0 87.35 -369.35 47.35 -367.25 L33.0 -367.15 17.8 -368.95 17.7 -369.05 Q17.7 -370.0 19.85 -371.45 21.95 -372.9 21.95 -374.1 21.95 -375.5 19.25 -377.75 L14.45 -381.5 Q10.2 -385.15 8.7 -388.65 L15.45 -387.9 20.1 -387.55 24.55 -387.4 28.0 -387.05 31.3 -386.9 38.7 -386.65 45.95 -386.55 Q61.2 -387.6 75.2 -390.45 L94.05 -394.95 Q105.75 -397.85 109.0 -399.1 L109.95 -399.45 109.0 -398.15 M79.75 -452.4 Q79.75 -453.0 80.2 -453.85 L80.6 -454.7 82.65 -453.95 Q85.95 -452.95 89.0 -452.65 L89.55 -452.45 80.2 -451.1 80.15 -451.2 79.75 -452.4 M71.25 -462.3 L71.05 -462.05 69.75 -462.55 70.85 -460.9 71.75 -459.8 71.25 -459.65 Q70.8 -459.8 69.5 -460.6 L68.35 -461.35 65.2 -463.65 Q62.4 -465.55 59.9 -466.5 L62.6 -466.65 Q68.4 -466.65 73.1 -464.7 77.0 -463.1 77.0 -462.05 L77.0 -461.95 Q75.45 -463.25 72.95 -464.1 70.05 -465.05 68.1 -464.75 68.0 -465.15 68.0 -463.9 68.0 -463.1 68.15 -463.2 L68.25 -463.4 71.3 -462.3 71.25 -462.3 M-124.45 -397.65 L-124.8 -397.15 -125.2 -397.75 Q-121.3 -400.2 -115.25 -406.6 -109.2 -411.95 -101.3 -412.7 L-101.15 -410.8 Q-106.2 -410.25 -109.7 -406.9 L-112.0 -403.8 -114.5 -402.6 Q-118.9 -400.35 -121.7 -398.15 -121.8 -398.9 -122.2 -398.45 -123.65 -398.65 -124.45 -397.65 M-122.9 -410.3 L-123.05 -410.8 Q-116.85 -413.85 -111.8 -414.9 -111.65 -414.75 -111.0 -414.55 L-110.4 -414.4 -110.7 -413.7 -110.75 -411.9 Q-113.4 -409.95 -115.55 -408.95 L-121.3 -406.5 -123.6 -404.85 -123.45 -405.35 -123.2 -405.95 -123.2 -406.05 -122.65 -408.05 -120.6 -409.85 Q-118.1 -411.4 -114.7 -411.4 L-113.9 -411.25 Q-113.7 -411.05 -113.15 -411.0 L-112.95 -411.15 -113.45 -411.5 -114.0 -411.9 -115.05 -412.15 -121.05 -410.85 -122.85 -410.2 -122.9 -410.3 M-98.8 -398.15 Q-98.85 -399.15 -97.9 -402.15 L-97.05 -404.15 Q-96.5 -405.55 -96.5 -406.15 -96.5 -407.05 -96.85 -407.8 L-96.95 -408.0 -93.35 -408.9 -84.7 -411.2 -72.3 -413.35 -52.3 -415.8 -37.95 -416.05 -37.95 -416.15 -37.0 -416.3 Q-29.05 -416.3 -19.2 -414.1 -9.5 -412.0 -4.8 -409.0 L-4.8 -407.25 Q-3.7 -400.35 -2.3 -396.4 L-1.9 -395.4 -2.05 -395.45 -1.95 -395.15 -1.6 -394.6 Q-0.5 -392.05 1.05 -389.6 -1.55 -390.85 -5.5 -391.95 -18.4 -395.55 -42.65 -397.0 L-56.65 -397.5 -63.0 -397.9 -63.0 -397.65 -68.9 -397.0 Q-77.55 -395.95 -90.0 -393.1 L-100.4 -390.75 Q-100.5 -391.3 -99.85 -392.2 -98.7 -393.85 -98.7 -394.15 L-98.8 -398.15 M-114.6 -400.5 L-114.8 -400.05 Q-114.2 -400.25 -108.15 -403.05 -102.65 -405.65 -100.9 -405.95 -99.9 -405.9 -99.7 -405.5 L-99.85 -404.85 -100.55 -404.9 -101.55 -404.95 Q-106.0 -403.35 -108.7 -401.8 -111.25 -400.35 -111.25 -399.55 L-111.1 -398.7 -111.0 -398.8 -109.8 -398.45 -110.35 -396.3 -110.75 -394.15 Q-110.9 -393.4 -112.8 -392.2 L-115.55 -390.05 Q-115.4 -389.8 -114.5 -389.6 L-114.3 -389.55 -114.7 -389.55 Q-117.65 -389.55 -118.9 -390.3 -119.75 -391.1 -120.4 -391.25 -120.65 -392.25 -120.65 -391.0 -120.65 -390.35 -119.3 -389.65 -118.15 -388.45 -115.7 -387.8 -112.15 -386.9 -111.0 -386.15 L-113.15 -385.95 -114.45 -385.55 -115.05 -385.7 Q-117.0 -386.25 -119.1 -387.25 L-119.25 -387.3 -119.65 -387.5 -119.85 -387.6 Q-125.0 -390.15 -125.0 -392.2 L-124.95 -392.55 -122.65 -395.3 -121.8 -396.35 Q-119.55 -397.35 -116.4 -399.35 L-114.6 -400.5" fill="#ffffff" fill-rule="evenodd" stroke="none"/>
    <path d="M325.7 -458.2 Q321.45 -455.6 317.9 -454.75 L315.65 -454.3 Q313.65 -453.2 311.45 -452.4 L305.75 -450.35 305.7 -450.6 301.1 -449.4 293.9 -447.85 287.25 -445.35 280.9 -443.0 Q277.0 -441.7 261.25 -438.25 244.2 -434.5 240.4 -434.5 233.0 -434.5 230.75 -434.65 L230.4 -434.7 219.75 -436.25 208.25 -439.5 198.45 -442.5 197.05 -442.9 190.55 -446.25 Q180.45 -450.5 173.45 -452.65 164.3 -455.5 150.65 -458.0 L146.9 -458.15 143.0 -458.5 120.5 -457.25 117.25 -456.75 110.4 -452.85 Q100.55 -447.65 95.35 -447.65 L90.15 -447.75 89.2 -448.2 89.15 -448.2 Q85.2 -446.05 81.9 -443.85 L81.6 -443.75 81.4 -443.35 Q80.7 -442.45 77.8 -441.8 L78.5 -440.95 Q78.85 -440.4 78.85 -439.65 78.85 -438.4 73.95 -436.05 68.2 -433.25 62.35 -433.25 56.9 -433.25 53.95 -436.15 52.5 -437.55 52.15 -438.5 49.6 -438.85 48.5 -441.8 47.8 -443.65 47.8 -445.85 47.8 -447.95 47.95 -448.4 L48.45 -449.15 Q47.55 -449.5 47.05 -450.5 46.65 -451.2 46.6 -452.0 46.6 -452.85 47.45 -454.5 48.6 -456.6 50.05 -456.75 49.6 -457.45 49.55 -458.65 L49.55 -458.7 Q49.35 -459.0 49.35 -459.85 49.35 -460.45 49.75 -460.85 L49.0 -462.5 Q48.25 -464.0 48.25 -464.25 48.25 -465.6 49.3 -466.2 L51.25 -466.9 51.6 -466.85 Q53.9 -467.75 56.6 -467.35 57.3 -468.85 60.55 -469.15 64.95 -469.55 72.35 -467.6 L77.0 -464.95 Q79.25 -463.6 79.25 -462.0 79.25 -461.65 78.55 -460.85 77.8 -460.1 77.8 -459.8 77.8 -459.1 79.25 -457.65 L80.4 -456.15 83.8 -454.8 Q87.45 -453.6 89.75 -453.6 L95.5 -453.85 98.6 -454.65 Q104.7 -457.8 110.0 -459.75 L120.2 -463.55 129.1 -466.65 136.6 -469.35 Q142.35 -471.0 155.1 -472.15 L155.1 -472.4 167.3 -472.05 Q184.55 -470.15 194.3 -465.2 199.25 -462.65 206.9 -455.65 L206.85 -455.45 Q211.55 -452.85 219.85 -450.05 234.8 -445.0 248.65 -445.0 L274.5 -445.8 Q283.8 -446.65 290.35 -448.85 297.55 -451.3 299.3 -451.55 L298.6 -451.1 304.8 -452.1 307.2 -453.6 Q310.05 -455.45 313.25 -456.05 320.15 -457.35 325.15 -460.45 328.75 -462.7 331.15 -462.15 329.1 -460.25 325.7 -458.2 M51.1 -465.15 Q50.5 -464.75 50.5 -464.15 L50.9 -463.15 51.15 -463.3 51.5 -463.25 56.25 -461.9 Q60.8 -460.9 65.95 -457.5 L68.45 -455.75 Q69.0 -455.7 70.35 -454.9 L72.0 -454.1 71.15 -455.55 Q70.55 -456.8 70.55 -457.35 L70.7 -457.3 66.8 -460.85 Q61.9 -464.45 51.35 -465.35 L51.1 -465.15 M50.85 -459.4 L50.8 -459.1 Q50.8 -458.8 51.5 -457.9 L52.75 -456.4 52.55 -455.7 52.0 -455.1 49.6 -454.85 48.5 -453.6 Q48.0 -452.7 48.0 -452.0 48.0 -451.7 48.35 -451.35 L49.55 -452.0 55.0 -450.3 56.2 -449.8 57.85 -449.05 59.8 -449.15 Q60.35 -449.65 60.45 -450.45 60.5 -450.8 62.0 -451.1 L59.65 -453.5 57.05 -455.8 57.8 -456.15 58.75 -455.8 59.0 -456.15 61.25 -455.9 63.75 -455.9 59.25 -459.1 Q58.45 -459.15 57.55 -459.55 L57.5 -459.3 57.45 -459.3 57.3 -459.55 Q56.55 -460.0 56.15 -460.2 L54.6 -460.6 52.0 -460.4 50.85 -459.4 M49.05 -450.75 L49.1 -450.7 49.2 -450.7 49.4 -450.7 49.05 -450.75 M49.55 -449.05 Q48.75 -448.15 48.6 -447.45 L48.5 -446.0 Q48.5 -444.45 49.0 -443.4 L49.25 -443.4 Q51.05 -441.5 52.15 -441.0 L53.8 -440.35 Q53.0 -441.2 51.75 -441.75 L52.0 -442.05 55.55 -440.6 57.45 -440.2 Q56.6 -440.8 56.05 -441.55 54.8 -443.25 55.0 -445.55 55.25 -446.4 57.95 -446.6 L57.2 -447.05 56.1 -447.7 55.9 -447.85 55.45 -448.15 54.15 -448.1 Q51.45 -448.1 49.6 -449.05 L49.55 -449.05 M58.5 -455.25 L58.75 -455.1 58.65 -455.25 58.5 -455.25 M59.5 -455.2 L59.4 -455.25 59.35 -455.25 59.35 -455.3 58.95 -455.25 59.5 -455.2 M71.25 -462.3 L71.3 -462.3 68.25 -463.4 68.15 -463.2 Q68.0 -463.1 68.0 -463.9 68.0 -465.15 68.1 -464.75 70.05 -465.05 72.95 -464.1 75.45 -463.25 77.0 -461.95 L77.0 -462.05 Q77.0 -463.1 73.1 -464.7 68.4 -466.65 62.6 -466.65 L59.9 -466.5 Q62.4 -465.55 65.2 -463.65 L68.35 -461.35 69.5 -460.6 Q70.8 -459.8 71.25 -459.65 L71.75 -459.8 70.85 -460.9 69.75 -462.55 71.05 -462.05 71.25 -462.3 M79.75 -452.4 L80.15 -451.2 80.2 -451.1 89.55 -452.45 89.0 -452.65 Q85.95 -452.95 82.65 -453.95 L80.6 -454.7 80.2 -453.85 Q79.75 -453.0 79.75 -452.4 M109.0 -398.15 L109.95 -399.45 109.0 -399.1 Q105.75 -397.85 94.05 -394.95 L75.2 -390.45 Q61.2 -387.6 45.95 -386.55 L38.7 -386.65 31.3 -386.9 28.0 -387.05 24.55 -387.4 20.1 -387.55 15.45 -387.9 8.7 -388.65 Q10.2 -385.15 14.45 -381.5 L19.25 -377.75 Q21.95 -375.5 21.95 -374.1 21.95 -372.9 19.85 -371.45 17.7 -370.0 17.7 -369.05 L17.8 -368.95 33.0 -367.15 47.35 -367.25 Q87.35 -369.35 101.45 -373.0 107.1 -374.45 110.6 -376.6 L115.0 -379.95 114.75 -380.35 113.85 -379.9 107.9 -380.0 101.8 -380.25 98.05 -380.5 Q96.95 -381.25 96.95 -381.65 L93.4 -382.05 90.8 -382.45 89.25 -383.5 Q90.1 -386.8 99.15 -390.6 108.9 -394.7 110.45 -397.15 L109.25 -397.4 109.15 -397.3 Q109.0 -397.35 109.0 -398.15 M112.6 -400.85 L112.0 -400.0 Q111.1 -398.55 111.15 -398.0 L111.45 -397.15 Q111.45 -395.5 107.6 -393.15 103.9 -390.9 102.0 -390.9 100.9 -390.9 96.1 -387.9 L90.6 -384.15 91.3 -383.4 94.05 -382.9 98.7 -382.65 Q98.95 -382.25 98.45 -381.65 L102.75 -381.0 113.85 -381.15 112.85 -382.2 112.9 -382.4 113.05 -382.55 113.1 -383.05 113.65 -382.9 115.05 -382.65 Q115.8 -382.35 116.15 -381.45 L116.4 -380.35 116.6 -379.3 Q116.6 -374.8 101.05 -370.9 81.7 -366.15 47.8 -365.8 L40.1 -365.9 32.25 -366.15 30.2 -366.3 27.95 -366.65 17.7 -367.65 17.6 -367.65 17.1 -367.7 Q7.4 -369.0 1.55 -371.2 -6.1 -374.1 -6.3 -378.15 -6.45 -381.55 -8.2 -385.35 -10.2 -389.7 -13.25 -392.05 L-12.95 -392.1 -31.8 -395.55 -37.75 -395.7 -43.8 -396.05 -50.45 -396.2 -57.3 -396.55 -73.45 -395.2 -85.3 -393.15 -92.95 -391.0 Q-100.2 -389.05 -104.0 -389.05 L-105.25 -389.1 Q-105.8 -387.9 -105.4 -386.15 L-105.2 -386.1 Q-105.05 -386.0 -105.05 -385.25 L-105.1 -385.1 -105.05 -385.0 -105.45 -384.75 -107.05 -383.85 Q-109.1 -382.9 -110.3 -382.9 -116.6 -382.9 -122.05 -386.6 -126.55 -389.6 -126.55 -391.25 L-126.05 -393.15 Q-125.55 -394.4 -125.55 -395.05 -125.55 -396.25 -127.5 -397.4 L-123.65 -400.9 Q-125.4 -401.2 -125.9 -402.15 L-126.05 -403.45 -124.95 -407.4 -125.05 -408.2 -124.75 -409.0 -124.8 -410.3 Q-124.45 -412.0 -122.3 -412.8 -120.9 -413.3 -113.65 -416.3 -110.25 -416.3 -108.65 -415.4 -106.9 -414.1 -105.3 -413.3 L-105.25 -413.15 Q-98.45 -416.1 -98.45 -413.05 -98.45 -412.2 -99.2 -410.55 L-99.65 -409.45 -95.9 -410.65 -86.65 -413.15 Q-80.7 -414.8 -52.4 -417.95 L-38.05 -418.2 Q-30.85 -419.4 -16.7 -415.45 -7.75 -412.95 -4.7 -411.15 L-4.5 -411.15 -4.45 -411.1 -3.45 -410.2 -3.2 -409.75 Q-3.7 -409.35 -3.7 -408.35 L-3.55 -407.9 Q-2.65 -402.3 -1.45 -398.55 L0.3 -394.15 0.9 -393.65 Q2.4 -392.25 3.55 -391.65 8.35 -389.3 25.75 -388.4 L32.05 -387.9 45.95 -387.95 Q93.5 -393.5 115.5 -404.9 115.45 -402.7 112.6 -400.85 M-122.9 -410.3 L-122.85 -410.2 -121.05 -410.85 -115.05 -412.15 -114.0 -411.9 -113.45 -411.5 -112.95 -411.15 -113.15 -411.0 Q-113.7 -411.05 -113.9 -411.25 L-114.7 -411.4 Q-118.1 -411.4 -120.6 -409.85 L-122.65 -408.05 -123.2 -406.05 -123.2 -405.95 -123.45 -405.35 -123.6 -404.85 -121.3 -406.5 -115.55 -408.95 Q-113.4 -409.95 -110.75 -411.9 L-110.7 -413.7 -110.4 -414.4 -111.0 -414.55 Q-111.65 -414.75 -111.8 -414.9 -116.85 -413.85 -123.05 -410.8 L-122.9 -410.3 M-124.45 -397.65 Q-123.65 -398.65 -122.2 -398.45 -121.8 -398.9 -121.7 -398.15 -118.9 -400.35 -114.5 -402.6 L-112.0 -403.8 -109.7 -406.9 Q-106.2 -410.25 -101.15 -410.8 L-101.3 -412.7 Q-109.2 -411.95 -115.25 -406.6 -121.3 -400.2 -125.2 -397.75 L-124.8 -397.15 -124.45 -397.65 M-122.7 -401.75 L-122.7 -401.7 -121.6 -402.6 -120.95 -403.1 -122.75 -401.85 -122.7 -401.75 M-114.6 -400.5 L-116.4 -399.35 Q-119.55 -397.35 -121.8 -396.35 L-122.65 -395.3 -124.95 -392.55 -125.0 -392.2 Q-125.0 -390.15 -119.85 -387.6 L-119.65 -387.5 -119.25 -387.3 -119.1 -387.25 Q-117.0 -386.25 -115.05 -385.7 L-114.45 -385.55 -113.15 -385.95 -111.0 -386.15 Q-112.15 -386.9 -115.7 -387.8 -118.15 -388.45 -119.3 -389.65 -120.65 -390.35 -120.65 -391.0 -120.65 -392.25 -120.4 -391.25 -119.75 -391.1 -118.9 -390.3 -117.65 -389.55 -114.7 -389.55 L-114.3 -389.55 -114.5 -389.6 Q-115.4 -389.8 -115.55 -390.05 L-112.8 -392.2 Q-110.9 -393.4 -110.75 -394.15 L-110.35 -396.3 -109.8 -398.45 -111.0 -398.8 -111.1 -398.7 -111.25 -399.55 Q-111.25 -400.35 -108.7 -401.8 -106.0 -403.35 -101.55 -404.95 L-100.55 -404.9 -99.85 -404.85 -99.7 -405.5 Q-99.9 -405.9 -100.9 -405.95 -102.65 -405.65 -108.15 -403.05 -114.2 -400.25 -114.8 -400.05 L-114.6 -400.5 M-98.8 -398.15 L-98.7 -394.15 Q-98.7 -393.85 -99.85 -392.2 -100.5 -391.3 -100.4 -390.75 L-90.0 -393.1 Q-77.55 -395.95 -68.9 -397.0 L-63.0 -397.65 -63.0 -397.9 -56.65 -397.5 -42.65 -397.0 Q-18.4 -395.55 -5.5 -391.95 -1.55 -390.85 1.05 -389.6 -0.5 -392.05 -1.6 -394.6 L-1.95 -395.15 -2.05 -395.45 -1.9 -395.4 -2.3 -396.4 Q-3.7 -400.35 -4.8 -407.25 L-4.8 -409.0 Q-9.5 -412.0 -19.2 -414.1 -29.05 -416.3 -37.0 -416.3 L-37.95 -416.15 -37.95 -416.05 -52.3 -415.8 -72.3 -413.35 -84.7 -411.2 -93.35 -408.9 -96.95 -408.0 -96.85 -407.8 Q-96.5 -407.05 -96.5 -406.15 -96.5 -405.55 -97.05 -404.15 L-97.9 -402.15 Q-98.85 -399.15 -98.8 -398.15 M-123.7 -395.65 L-123.8 -395.6 -124.0 -395.5 -123.95 -395.4 -123.7 -395.65" fill="#a9e8fa" fill-rule="evenodd" stroke="none"/>
    <path d="M325.7 -458.2 Q321.45 -455.6 317.9 -454.75 L315.65 -454.3 Q313.65 -453.2 311.45 -452.4 L305.75 -450.35 305.7 -450.6 301.1 -449.4 293.9 -447.85 287.25 -445.35 280.9 -443.0 Q277.0 -441.7 261.25 -438.25 244.2 -434.5 240.4 -434.5 233.0 -434.5 230.75 -434.65 L230.4 -434.7 219.75 -436.25 208.25 -439.5 198.45 -442.5 197.05 -442.9 190.55 -446.25 Q180.45 -450.5 173.45 -452.65 164.3 -455.5 150.65 -458.0 L146.9 -458.15 143.0 -458.5 120.5 -457.25 117.25 -456.75 110.4 -452.85 Q100.55 -447.65 95.35 -447.65 L90.15 -447.75 89.2 -448.2 89.15 -448.2 Q85.2 -446.05 81.9 -443.85 L81.6 -443.75 81.4 -443.35 Q80.7 -442.45 77.8 -441.8 L78.5 -440.95 Q78.85 -440.4 78.85 -439.65 78.85 -438.4 73.95 -436.05 68.2 -433.25 62.35 -433.25 56.9 -433.25 53.95 -436.15 52.5 -437.55 52.15 -438.5 49.6 -438.85 48.5 -441.8 47.8 -443.65 47.8 -445.85 47.8 -447.95 47.95 -448.4 L48.45 -449.15 Q47.55 -449.5 47.05 -450.5 46.65 -451.2 46.6 -452.0 46.6 -452.85 47.45 -454.5 48.6 -456.6 50.05 -456.75 49.6 -457.45 49.55 -458.65 L49.55 -458.7 Q49.35 -459.0 49.35 -459.85 49.35 -460.45 49.75 -460.85 L49.0 -462.5 Q48.25 -464.0 48.25 -464.25 48.25 -465.6 49.3 -466.2 L51.25 -466.9 51.6 -466.85 Q53.9 -467.75 56.6 -467.35 57.3 -468.85 60.55 -469.15 64.95 -469.55 72.35 -467.6 L77.0 -464.95 Q79.25 -463.6 79.25 -462.0 79.25 -461.65 78.55 -460.85 77.8 -460.1 77.8 -459.8 77.8 -459.1 79.25 -457.65 L80.4 -456.15 83.8 -454.8 Q87.45 -453.6 89.75 -453.6 L95.5 -453.85 98.6 -454.65 Q104.7 -457.8 110.0 -459.75 L120.2 -463.55 129.1 -466.65 136.6 -469.35 Q142.35 -471.0 155.1 -472.15 L155.1 -472.4 167.3 -472.05 Q184.55 -470.15 194.3 -465.2 199.25 -462.65 206.9 -455.65 L206.85 -455.45 Q211.55 -452.85 219.85 -450.05 234.8 -445.0 248.65 -445.0 L274.5 -445.8 Q283.8 -446.65 290.35 -448.85 297.55 -451.3 299.3 -451.55 L298.6 -451.1 304.8 -452.1 307.2 -453.6 Q310.05 -455.45 313.25 -456.05 320.15 -457.35 325.15 -460.45 328.75 -462.7 331.15 -462.15 329.1 -460.25 325.7 -458.2 M51.1 -465.15 Q50.5 -464.75 50.5 -464.15 L50.9 -463.15 51.2 -462.7 51.85 -461.6 Q54.15 -461.8 57.0 -460.85 L57.35 -460.75 Q57.55 -460.75 57.55 -460.0 L57.55 -459.55 57.5 -459.3 57.45 -459.3 57.3 -459.55 Q56.55 -460.0 56.15 -460.2 L54.6 -460.6 52.0 -460.4 50.85 -459.4 50.8 -459.1 Q50.8 -458.8 51.5 -457.9 L52.75 -456.4 52.55 -455.7 52.0 -455.1 49.6 -454.85 48.5 -453.6 Q48.0 -452.7 48.0 -452.0 48.0 -451.7 48.35 -451.35 L48.7 -451.05 49.05 -450.75 49.1 -450.7 49.2 -450.7 49.4 -450.7 51.8 -450.25 55.35 -449.0 Q56.5 -448.75 56.55 -448.5 56.15 -448.25 55.45 -448.15 L54.15 -448.1 Q51.45 -448.1 49.6 -449.05 L49.55 -449.05 Q48.75 -448.15 48.6 -447.45 L48.5 -446.0 Q48.5 -444.45 49.0 -443.4 L49.25 -443.4 Q51.05 -441.5 52.15 -441.0 L53.8 -440.35 58.25 -439.05 67.7 -439.4 70.75 -439.8 71.85 -439.55 72.0 -439.3 69.15 -438.5 67.95 -438.2 67.0 -438.0 57.3 -438.35 54.1 -439.0 55.35 -437.4 55.4 -437.3 55.45 -437.25 Q56.95 -435.75 60.3 -435.35 L60.35 -435.35 62.6 -435.25 65.95 -435.4 Q70.0 -435.85 72.95 -437.35 L76.25 -439.6 Q74.3 -440.8 73.4 -442.9 L73.35 -443.0 71.75 -447.25 Q69.7 -450.6 66.3 -452.25 L60.8 -454.85 60.15 -455.0 59.5 -455.2 59.4 -455.25 59.35 -455.25 59.35 -455.3 58.95 -455.25 58.9 -455.25 58.65 -455.25 58.5 -455.25 58.75 -455.1 60.15 -454.15 Q61.2 -453.4 61.4 -452.55 L61.15 -452.3 59.65 -453.5 57.05 -455.8 57.8 -456.15 58.75 -455.8 61.45 -454.95 62.9 -454.55 63.4 -454.4 64.8 -454.0 Q69.05 -452.7 70.3 -451.25 L73.45 -447.2 Q73.1 -446.65 73.1 -445.55 73.1 -444.0 75.0 -442.1 L75.2 -441.9 75.8 -441.35 75.75 -441.75 75.75 -441.9 Q75.8 -442.9 76.2 -443.25 77.0 -443.95 79.85 -444.35 80.05 -444.75 80.05 -445.85 L79.9 -446.65 78.6 -450.3 78.1 -450.9 78.3 -451.1 77.8 -452.35 78.55 -453.55 79.25 -455.05 79.1 -455.55 79.0 -455.65 79.0 -455.7 77.8 -456.85 Q76.9 -457.5 76.55 -458.1 L74.9 -459.7 74.75 -459.8 71.45 -461.85 71.05 -462.0 71.05 -462.05 71.25 -462.3 71.3 -462.3 Q72.55 -462.2 75.0 -460.85 L75.8 -460.35 75.85 -460.35 76.55 -459.85 76.6 -460.05 76.7 -460.35 77.0 -461.95 77.0 -462.05 Q77.0 -463.1 73.1 -464.7 68.4 -466.65 62.6 -466.65 L59.9 -466.5 Q62.4 -465.55 65.2 -463.65 L68.35 -461.35 Q73.3 -457.4 75.35 -453.4 73.2 -454.75 70.8 -457.2 L70.7 -457.3 66.8 -460.85 Q61.9 -464.45 51.35 -465.35 L51.1 -465.15 M79.75 -452.4 L80.15 -451.2 80.2 -451.1 89.55 -452.45 89.0 -452.65 Q85.95 -452.95 82.65 -453.95 L80.6 -454.7 80.2 -453.85 Q79.75 -453.0 79.75 -452.4 M140.25 -465.75 L142.35 -465.35 Q131.1 -463.2 124.35 -460.55 L119.95 -458.6 120.15 -458.6 118.3 -457.4 132.5 -459.5 132.5 -459.75 144.15 -459.4 151.85 -458.9 Q167.45 -456.15 174.65 -454.2 184.75 -451.4 193.25 -446.65 199.1 -443.45 211.2 -440.2 L217.05 -438.65 217.05 -438.75 221.4 -437.45 225.65 -436.25 230.4 -435.8 Q246.5 -435.8 262.4 -439.4 270.1 -441.15 280.15 -444.6 L280.3 -444.65 275.1 -443.85 262.1 -443.85 257.55 -443.65 255.35 -443.5 248.95 -443.65 243.25 -444.0 216.85 -449.5 Q205.65 -452.45 203.3 -456.85 L203.35 -456.95 Q196.95 -461.95 194.1 -463.45 183.55 -469.05 166.55 -470.85 147.75 -472.5 117.8 -461.1 109.25 -457.9 102.05 -454.65 L111.8 -456.25 113.3 -456.5 114.15 -457.0 116.15 -457.9 Q118.65 -459.75 121.25 -460.85 127.1 -463.35 140.25 -465.5 L140.25 -465.75 M89.1 -449.35 L93.65 -452.0 94.2 -452.3 93.9 -452.3 92.95 -452.3 92.25 -452.1 Q85.5 -450.05 84.25 -450.05 L80.6 -450.1 81.15 -448.55 Q81.75 -446.95 81.75 -445.3 L81.75 -444.85 88.3 -448.85 88.6 -449.5 89.1 -449.35 M90.65 -449.0 Q97.55 -447.95 106.75 -452.9 L109.75 -454.5 101.45 -453.0 97.5 -452.5 90.65 -449.0 M109.0 -398.15 L109.95 -399.45 109.0 -399.1 Q105.75 -397.85 94.05 -394.95 L75.2 -390.45 Q61.2 -387.6 45.95 -386.55 L38.7 -386.65 31.3 -386.9 28.0 -387.05 24.55 -387.4 20.1 -387.55 15.45 -387.9 Q5.7 -388.5 2.25 -390.6 L4.4 -387.55 Q6.2 -386.0 6.2 -384.3 L6.2 -383.65 6.2 -383.6 6.15 -383.45 5.65 -383.1 4.8 -382.5 4.8 -382.65 2.8 -381.7 -1.2 -379.95 Q-5.6 -377.8 -3.05 -375.45 L-3.1 -375.35 Q-0.8 -373.1 3.95 -371.65 11.75 -369.3 33.0 -367.15 L47.35 -367.25 Q87.35 -369.35 101.45 -373.0 107.1 -374.45 110.6 -376.6 L115.0 -379.95 114.75 -380.35 113.85 -379.9 107.9 -380.0 101.8 -380.25 98.05 -380.5 Q96.95 -381.25 96.95 -381.65 L93.4 -382.05 90.8 -382.45 89.25 -383.5 Q90.1 -386.8 99.15 -390.6 108.9 -394.7 110.45 -397.15 L109.25 -397.4 109.15 -397.3 Q109.0 -397.35 109.0 -398.15 M112.6 -400.85 L112.0 -400.0 Q111.1 -398.55 111.15 -398.0 L111.45 -397.15 Q111.45 -395.5 107.6 -393.15 103.9 -390.9 102.0 -390.9 100.9 -390.9 96.1 -387.9 L90.6 -384.15 91.3 -383.4 94.05 -382.9 98.7 -382.65 Q98.95 -382.25 98.45 -381.65 L102.75 -381.0 113.85 -381.15 112.85 -382.2 112.9 -382.4 113.05 -382.55 113.1 -383.05 113.65 -382.9 115.05 -382.65 Q115.8 -382.35 116.15 -381.45 L116.4 -380.35 116.6 -379.3 Q116.6 -374.8 101.05 -370.9 81.7 -366.15 47.8 -365.8 L40.1 -365.9 32.25 -366.15 30.2 -366.3 27.95 -366.65 Q10.4 -367.9 1.55 -371.2 -6.1 -374.1 -6.3 -378.15 -6.45 -381.55 -8.2 -385.35 -10.2 -389.7 -13.25 -392.05 L-12.95 -392.1 -31.8 -395.55 -37.75 -395.7 -43.8 -396.05 -50.45 -396.2 -57.3 -396.55 -73.45 -395.2 -85.3 -393.15 -92.95 -391.0 Q-100.2 -389.05 -104.0 -389.05 L-105.25 -389.1 Q-105.8 -387.9 -105.4 -386.15 L-105.2 -386.1 Q-105.05 -386.0 -105.05 -385.25 L-105.1 -385.1 -105.05 -385.0 -105.45 -384.75 -107.05 -383.85 Q-109.1 -382.9 -110.3 -382.9 -116.6 -382.9 -122.05 -386.6 -126.55 -389.6 -126.55 -391.25 L-126.05 -393.15 Q-125.55 -394.4 -125.55 -395.05 -125.55 -396.25 -127.5 -397.4 L-123.65 -400.9 Q-125.4 -401.2 -125.9 -402.15 L-126.05 -403.45 -124.95 -407.4 -125.05 -408.2 -124.75 -409.0 -124.8 -410.3 Q-124.45 -412.0 -122.3 -412.8 -120.9 -413.3 -113.65 -416.3 -110.25 -416.3 -108.65 -415.4 -106.9 -414.1 -105.3 -413.3 L-105.25 -413.15 Q-98.45 -416.1 -98.45 -413.05 -98.45 -412.2 -99.2 -410.55 L-99.65 -409.45 -95.9 -410.65 -86.65 -413.15 Q-80.7 -414.8 -52.4 -417.95 L-38.05 -418.2 Q-30.85 -419.4 -16.7 -415.45 -7.75 -412.95 -4.7 -411.15 L-4.5 -411.15 -4.45 -411.1 -3.45 -410.2 -3.2 -409.75 Q-3.7 -409.35 -3.7 -408.35 L-3.55 -407.9 Q-2.65 -402.3 -1.45 -398.55 L0.3 -394.15 0.9 -393.65 Q2.4 -392.25 3.55 -391.65 8.35 -389.3 25.75 -388.4 L32.05 -387.9 45.95 -387.95 Q93.5 -393.5 115.5 -404.9 115.45 -402.7 112.6 -400.85 M310.75 -454.1 L309.75 -453.45 311.45 -454.15 310.75 -454.1 M4.75 -383.55 Q4.0 -387.55 -4.55 -390.1 L-11.4 -391.75 Q-10.45 -391.3 -9.4 -390.05 L-6.75 -386.15 Q-5.85 -384.7 -5.55 -382.35 L-5.05 -378.75 Q-4.0 -381.0 0.2 -382.4 L4.75 -383.55 M-122.9 -410.3 L-122.85 -410.2 -121.05 -410.85 -115.05 -412.15 -114.0 -411.9 -113.45 -411.5 -112.95 -411.15 -113.15 -411.0 Q-113.7 -411.05 -113.9 -411.25 L-114.7 -411.4 Q-118.1 -411.4 -120.6 -409.85 L-122.65 -408.05 -123.2 -406.05 -123.2 -405.95 -123.45 -405.35 -123.6 -404.85 -124.15 -403.55 -122.7 -401.75 -122.7 -401.7 -121.6 -402.6 -120.95 -403.1 -115.05 -408.0 -110.25 -410.7 -107.4 -412.15 -108.05 -412.55 -108.5 -412.85 Q-110.25 -414.0 -110.4 -414.4 L-111.0 -414.55 Q-111.65 -414.75 -111.8 -414.9 -116.85 -413.85 -123.05 -410.8 L-122.9 -410.3 M-124.8 -397.15 L-124.0 -395.5 -123.95 -395.4 -123.7 -395.65 -120.25 -398.4 -121.8 -396.35 -122.65 -395.3 -124.95 -392.55 -125.0 -392.2 Q-125.0 -390.15 -119.85 -387.6 L-119.65 -387.5 -119.25 -387.3 -119.1 -387.25 Q-117.0 -386.25 -115.05 -385.7 L-114.45 -385.55 -110.25 -385.0 Q-109.2 -385.0 -107.7 -385.65 L-106.6 -386.1 -106.8 -386.4 Q-107.65 -387.65 -107.65 -388.5 L-107.65 -388.55 -110.05 -388.25 Q-115.8 -388.25 -118.7 -389.4 L-119.3 -389.65 Q-120.65 -390.35 -120.65 -391.0 -120.65 -392.25 -120.4 -391.25 -119.75 -391.1 -118.9 -390.3 -117.65 -389.55 -114.7 -389.55 L-114.3 -389.55 Q-111.55 -389.65 -108.55 -390.75 L-105.25 -392.0 -104.95 -392.0 -103.5 -393.45 -103.65 -394.15 Q-103.65 -396.85 -102.25 -399.3 L-102.1 -399.55 -102.0 -399.7 -100.25 -403.55 -99.85 -404.85 -99.7 -405.5 Q-99.9 -405.9 -100.9 -405.95 -102.65 -405.65 -108.15 -403.05 -114.2 -400.25 -114.8 -400.05 L-114.6 -400.5 Q-113.35 -402.7 -106.0 -405.95 L-102.55 -407.25 -101.65 -407.15 -100.8 -407.3 -100.8 -408.4 -100.9 -409.55 -101.1 -410.25 -101.15 -410.8 -101.3 -412.7 Q-109.2 -411.95 -115.25 -406.6 -121.3 -400.2 -125.2 -397.75 L-124.8 -397.15 M-100.4 -399.45 Q-102.4 -397.1 -101.9 -396.1 L-100.95 -393.9 -100.8 -393.8 Q-100.65 -393.7 -100.65 -392.95 -100.65 -392.25 -101.7 -391.7 L-103.8 -390.7 -104.85 -389.75 -90.0 -393.1 Q-77.55 -395.95 -68.9 -397.0 L-63.0 -397.65 -63.0 -397.9 -56.65 -397.5 -42.65 -397.0 Q-18.4 -395.55 -5.5 -391.95 -1.55 -390.85 1.05 -389.6 -0.5 -392.05 -1.6 -394.6 L-1.95 -395.15 -2.05 -395.45 -1.9 -395.4 -2.3 -396.4 Q-3.7 -400.35 -4.8 -407.25 L-4.8 -409.0 Q-9.5 -412.0 -19.2 -414.1 -29.05 -416.3 -37.0 -416.3 L-37.95 -416.15 -37.95 -416.05 -52.3 -415.8 -72.3 -413.35 -84.7 -411.2 -93.35 -408.9 -98.75 -407.7 Q-97.65 -407.4 -97.65 -406.15 -97.65 -402.65 -100.4 -399.45" fill="#2f526f" fill-rule="evenodd" stroke="none"/>
    <path d="M166.65 -334.95 L166.8 -333.05 Q161.75 -332.5 158.25 -329.15 L155.95 -326.05 153.45 -324.85 Q149.05 -322.6 146.25 -320.4 146.15 -321.15 145.75 -320.7 144.3 -320.9 143.5 -319.9 L143.15 -319.4 142.75 -320.0 Q146.65 -322.45 152.7 -328.85 158.75 -334.2 166.65 -334.95 M168.25 -327.75 L168.1 -327.1 167.4 -327.15 166.4 -327.2 Q161.95 -325.6 159.25 -324.05 156.7 -322.6 156.7 -321.8 156.7 -321.0 156.85 -320.95 L156.95 -321.05 158.15 -320.7 157.6 -318.55 157.2 -316.4 Q157.05 -315.65 155.15 -314.45 L152.4 -312.3 Q152.55 -312.05 153.45 -311.85 L153.65 -311.8 153.25 -311.8 Q150.3 -311.8 149.05 -312.55 148.2 -313.35 147.55 -313.5 147.3 -314.5 147.3 -313.25 147.3 -312.6 148.65 -311.9 149.8 -310.7 152.25 -310.05 155.8 -309.15 156.95 -308.4 L154.8 -308.2 153.5 -307.8 152.9 -307.95 Q150.95 -308.5 148.85 -309.5 L148.7 -309.55 148.3 -309.75 148.1 -309.85 Q142.95 -312.4 142.95 -314.45 L143.0 -314.8 145.3 -317.55 146.15 -318.6 Q148.4 -319.6 151.55 -321.6 L153.35 -322.75 153.15 -322.3 159.8 -325.3 Q165.3 -327.9 167.05 -328.2 168.05 -328.15 168.25 -327.75 M270.2 -328.55 L270.2 -328.0 Q270.2 -325.3 267.8 -320.25 L265.4 -315.15 Q265.4 -314.4 265.5 -314.35 L265.65 -314.3 267.45 -312.05 Q269.4 -309.8 269.4 -309.4 269.4 -308.45 266.8 -306.8 L265.6 -305.95 264.3 -305.6 257.95 -303.5 Q254.95 -302.65 246.95 -301.25 236.3 -299.4 230.7 -299.4 219.15 -299.4 208.8 -301.05 203.55 -301.9 199.65 -303.0 L185.15 -307.0 Q179.3 -311.05 170.25 -312.95 L165.55 -313.6 166.25 -313.95 Q167.3 -314.5 167.3 -315.2 L167.15 -316.05 167.0 -316.15 166.05 -318.35 Q165.55 -319.35 167.55 -321.7 170.3 -324.9 170.3 -328.4 170.3 -329.75 169.05 -330.0 L169.15 -330.25 168.2 -331.5 168.7 -332.65 170.05 -332.8 187.25 -328.75 Q197.75 -326.45 209.15 -324.65 L213.7 -324.0 218.3 -323.5 219.9 -323.15 221.45 -322.8 234.7 -322.55 238.5 -322.15 243.0 -321.95 Q247.4 -321.95 262.9 -325.55 267.4 -326.6 269.05 -327.6 L270.2 -328.55 M269.4 -335.1 Q268.35 -336.35 268.25 -336.85 L274.75 -338.25 Q278.8 -339.3 289.25 -339.75 L321.9 -339.9 323.45 -339.55 324.8 -339.4 327.3 -339.05 329.65 -338.9 332.15 -338.6 334.45 -338.45 Q339.3 -337.95 342.15 -337.0 L344.65 -336.65 346.95 -336.5 364.3 -331.7 365.65 -331.25 365.85 -330.65 366.0 -330.3 365.75 -330.2 364.9 -329.65 365.6 -329.1 365.3 -328.7 365.4 -328.1 364.45 -327.95 353.55 -325.8 Q347.5 -324.5 347.15 -323.65 L350.8 -318.7 Q353.25 -315.8 356.25 -315.05 359.3 -314.3 360.5 -313.75 L362.5 -312.5 362.6 -312.3 362.7 -312.05 362.45 -311.5 362.65 -311.1 362.7 -311.05 361.95 -310.25 361.3 -309.55 Q356.6 -311.4 352.5 -312.4 L340.35 -315.75 Q331.5 -317.9 324.55 -317.9 L313.55 -318.95 301.8 -319.65 301.8 -319.4 Q281.25 -318.45 273.7 -317.1 L273.65 -317.15 272.75 -317.15 272.75 -316.95 272.3 -316.85 Q270.1 -316.4 268.65 -315.7 L268.05 -315.4 268.55 -316.15 267.0 -315.9 Q269.4 -319.35 270.35 -321.5 271.65 -324.5 271.65 -328.3 L271.65 -330.45 Q271.6 -331.8 271.2 -332.65 L269.4 -335.1 M153.95 -334.15 L152.9 -334.4 146.9 -333.1 145.1 -332.45 145.05 -332.55 Q144.8 -332.9 144.9 -333.05 151.1 -336.1 156.15 -337.15 156.3 -337.0 156.95 -336.8 L157.55 -336.65 157.25 -335.95 157.2 -334.15 Q154.55 -332.2 152.4 -331.2 148.45 -329.65 146.65 -328.75 L144.35 -327.1 144.5 -327.6 144.75 -328.2 144.75 -328.3 145.3 -330.3 Q146.1 -331.3 147.35 -332.1 149.85 -333.65 153.25 -333.65 L154.05 -333.5 Q154.25 -333.3 154.8 -333.25 L155.0 -333.4 154.5 -333.75 153.95 -334.15 M68.05 -273.1 L68.35 -273.2 Q62.7 -269.35 58.95 -267.4 L57.85 -266.75 55.4 -265.45 58.7 -266.95 59.95 -267.6 70.9 -272.9 Q83.45 -278.8 90.7 -281.3 L90.6 -281.45 89.45 -281.15 98.95 -284.3 113.7 -287.95 123.6 -289.25 126.65 -289.75 131.6 -290.1 134.65 -290.2 Q113.45 -286.3 100.95 -281.35 L88.6 -276.5 Q82.7 -274.05 78.65 -271.95 58.9 -261.55 50.7 -258.6 35.9 -253.25 18.6 -253.25 7.25 -253.25 -3.15 -258.45 L-3.15 -258.55 -2.15 -258.15 Q4.8 -255.45 12.05 -255.45 L12.85 -255.45 Q6.1 -256.4 2.35 -257.65 L-3.85 -260.05 -9.35 -262.7 3.45 -261.35 10.55 -261.0 17.45 -260.85 19.2 -260.6 21.65 -260.5 Q29.3 -260.5 42.6 -265.4 50.75 -268.45 72.0 -277.1 L82.8 -281.25 84.75 -281.95 75.1 -277.1 Q72.85 -276.05 68.05 -273.1 M-38.1 -280.25 L-36.4 -279.8 -31.9 -276.6 -34.4 -276.6 -36.65 -276.85 -36.9 -276.5 -37.85 -276.85 -38.6 -276.5 -36.0 -274.2 -33.65 -271.8 Q-35.15 -271.5 -35.2 -271.15 -35.3 -270.35 -35.85 -269.85 L-37.8 -269.75 -39.45 -270.5 -40.65 -271.0 Q-43.0 -271.9 -46.1 -272.7 L-47.3 -272.05 -47.65 -272.7 -47.15 -274.3 -46.05 -275.55 -43.65 -275.8 Q-43.3 -275.95 -43.1 -276.4 L-42.9 -277.1 -44.15 -278.6 -44.85 -279.8 -44.8 -280.1 -43.65 -281.1 -41.05 -281.3 -39.5 -280.9 -38.35 -280.25 -38.2 -280.0 -38.15 -280.0 -38.1 -280.25 M-18.65 -282.75 L-18.65 -282.65 Q-20.2 -283.95 -22.7 -284.8 -25.6 -285.75 -27.55 -285.45 L-27.65 -284.6 -27.5 -283.9 -27.4 -284.1 Q-26.2 -283.75 -24.35 -283.0 L-24.4 -283.0 -24.6 -282.75 -25.9 -283.25 -24.8 -281.6 -23.9 -280.5 -24.4 -280.35 -26.15 -281.3 -27.3 -282.05 -30.45 -284.35 Q-33.25 -286.25 -35.75 -287.2 L-33.05 -287.35 Q-27.25 -287.35 -22.55 -285.4 -18.65 -283.8 -18.65 -282.75 M-39.75 -268.55 L-39.55 -268.4 Q-39.1 -268.05 -38.45 -267.75 L-37.7 -267.3 Q-40.4 -267.1 -40.65 -266.25 -40.85 -263.95 -39.6 -262.25 L-38.2 -260.9 -40.1 -261.3 Q-42.85 -262.65 -43.65 -262.75 L-43.9 -262.45 -41.85 -261.05 -43.5 -261.7 Q-44.6 -262.2 -46.4 -264.1 L-46.65 -264.1 Q-47.15 -265.15 -47.15 -266.7 L-47.05 -268.15 -46.1 -269.75 -46.05 -269.75 Q-44.2 -268.8 -41.5 -268.8 L-40.2 -268.85 -39.75 -268.55 M-27.2 -276.45 L-29.7 -278.2 Q-34.85 -281.6 -39.4 -282.6 -41.4 -283.45 -44.15 -283.95 L-44.5 -284.0 -44.75 -283.85 Q-45.15 -284.5 -45.15 -284.85 -45.15 -285.45 -44.55 -285.85 L-44.3 -286.05 Q-33.75 -285.15 -28.85 -281.55 -27.55 -280.65 -24.95 -278.0 L-25.1 -278.05 Q-25.1 -277.5 -24.5 -276.25 L-23.65 -274.8 Q-23.85 -274.8 -25.3 -275.6 L-27.2 -276.45" fill="#ffffff" fill-rule="evenodd" stroke="none"/>
    <path d="M268.45 -338.55 Q272.9 -339.4 275.05 -340.2 L289.25 -341.2 289.25 -341.45 322.25 -341.4 Q322.9 -341.0 330.4 -340.15 L335.15 -339.65 Q352.55 -337.0 363.8 -333.8 373.5 -331.05 380.95 -327.15 L381.55 -326.75 Q382.2 -326.5 380.95 -326.5 380.4 -326.5 376.5 -327.8 L372.15 -329.4 370.85 -329.75 367.3 -329.4 367.7 -329.2 368.3 -328.7 Q368.3 -327.8 367.8 -327.25 L350.45 -323.9 348.9 -323.65 Q350.15 -322.75 350.7 -320.85 351.2 -319.0 352.5 -318.2 355.3 -316.4 362.5 -314.4 363.25 -314.2 368.05 -309.75 L371.4 -307.25 Q373.35 -306.05 373.45 -304.95 L373.15 -304.65 370.15 -305.15 367.65 -305.95 368.05 -305.65 Q368.2 -305.2 366.95 -305.2 L350.45 -310.95 Q339.95 -313.5 338.55 -314.15 336.85 -314.9 323.9 -316.9 L319.6 -317.05 315.15 -317.4 309.9 -318.3 Q291.1 -317.75 277.95 -316.0 L273.95 -315.25 Q273.95 -308.2 268.5 -305.65 264.3 -302.2 249.75 -299.65 237.35 -297.5 230.95 -297.5 206.5 -297.5 187.05 -304.7 171.7 -311.95 167.7 -311.95 L162.75 -311.5 Q162.1 -310.25 162.55 -308.4 L162.75 -308.35 162.9 -307.5 162.85 -307.35 162.9 -307.25 162.5 -307.0 160.9 -306.1 Q158.85 -305.15 157.65 -305.15 151.35 -305.15 145.9 -308.85 141.4 -311.85 141.4 -313.5 141.4 -314.1 141.9 -315.4 L142.4 -317.3 Q142.4 -318.5 140.45 -319.65 141.7 -321.0 144.3 -323.15 142.55 -323.45 142.05 -324.4 141.9 -324.75 141.9 -325.7 L143.0 -329.65 142.9 -330.45 Q142.9 -330.85 143.2 -331.25 L143.15 -332.55 Q143.5 -334.25 145.65 -335.05 L154.3 -338.55 Q157.7 -338.55 159.3 -337.65 L162.65 -335.55 162.7 -335.4 Q169.5 -338.35 169.5 -335.3 L169.45 -334.7 170.95 -334.45 171.3 -334.15 171.3 -333.7 187.3 -330.25 210.4 -325.55 217.0 -325.05 221.9 -324.2 235.05 -324.0 234.95 -323.85 235.8 -323.75 Q249.35 -323.75 260.1 -326.8 264.65 -328.1 269.8 -330.45 L268.3 -333.75 266.4 -336.8 266.4 -336.95 266.0 -337.25 Q266.0 -337.55 266.75 -338.3 L267.25 -338.35 Q267.65 -338.65 268.3 -338.8 L268.45 -338.55 M269.4 -335.1 L271.2 -332.65 Q271.6 -331.8 271.65 -330.45 L271.65 -328.3 Q271.65 -324.5 270.35 -321.5 269.4 -319.35 267.0 -315.9 L268.55 -316.15 268.05 -315.4 268.65 -315.7 Q270.1 -316.4 272.3 -316.85 L272.75 -316.95 272.75 -317.15 273.65 -317.15 273.7 -317.1 Q281.25 -318.45 301.8 -319.4 L301.8 -319.65 313.55 -318.95 324.55 -317.9 Q331.5 -317.9 340.35 -315.75 L352.5 -312.4 Q356.6 -311.4 361.3 -309.55 L361.95 -310.25 362.7 -311.05 362.65 -311.1 362.45 -311.5 362.7 -312.05 362.6 -312.3 362.5 -312.5 360.5 -313.75 Q359.3 -314.3 356.25 -315.05 353.25 -315.8 350.8 -318.7 L347.15 -323.65 Q347.5 -324.5 353.55 -325.8 L364.45 -327.95 365.4 -328.1 365.3 -328.7 365.6 -329.1 364.9 -329.65 365.75 -330.2 366.0 -330.3 365.85 -330.65 365.65 -331.25 364.3 -331.7 346.95 -336.5 344.65 -336.65 342.15 -337.0 Q339.3 -337.95 334.45 -338.45 L332.15 -338.6 329.65 -338.9 327.3 -339.05 324.8 -339.4 323.45 -339.55 321.9 -339.9 289.25 -339.75 Q278.8 -339.3 274.75 -338.25 L268.25 -336.85 Q268.35 -336.35 269.4 -335.1 M270.2 -328.55 L269.05 -327.6 Q267.4 -326.6 262.9 -325.55 247.4 -321.95 243.0 -321.95 L238.5 -322.15 234.7 -322.55 221.45 -322.8 219.9 -323.15 218.3 -323.5 213.7 -324.0 209.15 -324.65 Q197.75 -326.45 187.25 -328.75 L170.05 -332.8 168.7 -332.65 168.2 -331.5 169.15 -330.25 169.05 -330.0 Q170.3 -329.75 170.3 -328.4 170.3 -324.9 167.55 -321.7 165.55 -319.35 166.05 -318.35 L167.0 -316.15 167.15 -316.05 167.3 -315.2 Q167.3 -314.5 166.25 -313.95 L165.55 -313.6 170.25 -312.95 Q179.3 -311.05 185.15 -307.0 L199.65 -303.0 Q203.55 -301.9 208.8 -301.05 219.15 -299.4 230.7 -299.4 236.3 -299.4 246.95 -301.25 254.95 -302.65 257.95 -303.5 L264.3 -305.6 265.6 -305.95 266.8 -306.8 Q269.4 -308.45 269.4 -309.4 269.4 -309.8 267.45 -312.05 L265.65 -314.3 265.5 -314.35 Q265.4 -314.4 265.4 -315.15 L267.8 -320.25 Q270.2 -325.3 270.2 -328.0 L270.2 -328.55 M168.25 -327.75 Q168.05 -328.15 167.05 -328.2 165.3 -327.9 159.8 -325.3 L153.15 -322.3 153.35 -322.75 151.55 -321.6 Q148.4 -319.6 146.15 -318.6 L145.3 -317.55 143.0 -314.8 142.95 -314.45 Q142.95 -312.4 148.1 -309.85 L148.3 -309.75 148.7 -309.55 148.85 -309.5 Q150.95 -308.5 152.9 -307.95 L153.5 -307.8 154.8 -308.2 156.95 -308.4 Q155.8 -309.15 152.25 -310.05 149.8 -310.7 148.65 -311.9 147.3 -312.6 147.3 -313.25 147.3 -314.5 147.55 -313.5 148.2 -313.35 149.05 -312.55 150.3 -311.8 153.25 -311.8 L153.65 -311.8 153.45 -311.85 Q152.55 -312.05 152.4 -312.3 L155.15 -314.45 Q157.05 -315.65 157.2 -316.4 L157.6 -318.55 158.15 -320.7 156.95 -321.05 156.85 -320.95 Q156.7 -321.0 156.7 -321.8 156.7 -322.6 159.25 -324.05 161.95 -325.6 166.4 -327.2 L167.4 -327.15 168.1 -327.1 168.25 -327.75 M166.65 -334.95 Q158.75 -334.2 152.7 -328.85 146.65 -322.45 142.75 -320.0 L143.15 -319.4 143.5 -319.9 Q144.3 -320.9 145.75 -320.7 146.15 -321.15 146.25 -320.4 149.05 -322.6 153.45 -324.85 L155.95 -326.05 158.25 -329.15 Q161.75 -332.5 166.8 -333.05 L166.65 -334.95 M232.15 -280.45 L234.1 -280.0 234.15 -279.75 233.45 -279.5 232.0 -279.3 228.95 -279.65 227.85 -279.85 225.5 -279.75 Q225.65 -279.0 227.7 -277.6 229.65 -276.25 229.85 -275.45 229.3 -274.55 228.65 -274.35 L227.05 -274.35 226.7 -274.25 220.45 -274.25 214.2 -274.7 208.25 -275.2 Q198.65 -276.3 190.45 -279.4 182.8 -282.8 179.35 -283.85 172.75 -286.55 167.6 -287.7 159.85 -289.45 144.5 -289.65 119.85 -286.0 104.15 -280.55 98.4 -278.55 91.65 -275.6 84.35 -272.25 80.45 -270.6 77.55 -269.35 71.3 -265.7 65.2 -262.1 61.9 -260.75 48.2 -255.1 39.6 -253.15 32.6 -251.6 24.0 -251.6 L18.45 -252.0 13.6 -252.55 11.05 -252.7 8.35 -253.05 Q0.8 -253.8 -6.55 -258.0 L-8.05 -259.0 -8.35 -259.05 -9.65 -259.4 -11.0 -259.95 -16.8 -260.55 -16.8 -260.35 Q-16.8 -259.1 -21.7 -256.75 -27.0 -254.15 -32.4 -253.95 L-36.35 -254.2 Q-39.65 -254.85 -41.7 -256.85 -43.15 -258.25 -43.5 -259.2 -46.05 -259.55 -47.15 -262.5 -47.85 -264.35 -47.85 -266.55 L-47.7 -269.1 -47.2 -269.85 Q-48.1 -270.2 -48.6 -271.2 -49.0 -271.9 -49.05 -272.7 -49.05 -273.55 -48.2 -275.2 -47.05 -277.3 -45.6 -277.45 -46.05 -278.15 -46.1 -279.35 L-46.1 -279.4 Q-46.3 -279.7 -46.3 -280.55 -46.3 -281.15 -45.9 -281.55 L-46.65 -283.2 -47.4 -284.95 Q-47.4 -286.3 -46.35 -286.9 L-44.4 -287.6 -44.05 -287.55 Q-41.75 -288.45 -39.05 -288.05 -38.35 -289.55 -35.1 -289.85 -30.7 -290.25 -23.3 -288.3 L-18.65 -285.65 Q-16.4 -284.3 -16.4 -282.7 -16.4 -282.35 -17.1 -281.55 L-17.85 -280.5 Q-17.85 -279.8 -16.4 -278.35 -15.0 -276.95 -15.0 -276.0 -15.0 -275.35 -15.45 -274.55 L-15.9 -273.1 -15.5 -271.9 -14.5 -269.25 Q-13.95 -267.85 -13.9 -266.4 -12.8 -265.2 -11.35 -264.55 -7.8 -262.95 4.65 -262.3 L18.65 -261.8 21.1 -261.8 Q31.45 -261.7 49.45 -268.95 58.75 -272.75 70.1 -277.85 75.4 -279.55 80.3 -282.05 L88.1 -285.65 Q98.7 -289.55 129.35 -292.7 L129.35 -292.95 146.5 -292.1 146.95 -291.65 148.15 -291.45 Q160.5 -292.8 175.45 -290.6 L175.6 -290.75 204.35 -285.7 Q223.2 -282.45 231.8 -280.5 L232.1 -280.5 232.15 -280.45 M153.95 -334.15 L154.5 -333.75 155.0 -333.4 154.8 -333.25 Q154.25 -333.3 154.05 -333.5 L153.25 -333.65 Q149.85 -333.65 147.35 -332.1 146.1 -331.3 145.3 -330.3 L144.75 -328.3 144.75 -328.2 144.5 -327.6 144.35 -327.1 146.65 -328.75 Q148.45 -329.65 152.4 -331.2 154.55 -332.2 157.2 -334.15 L157.25 -335.95 157.55 -336.65 156.95 -336.8 Q156.3 -337.0 156.15 -337.15 151.1 -336.1 144.9 -333.05 144.8 -332.9 145.05 -332.55 L145.1 -332.45 146.9 -333.1 152.9 -334.4 153.95 -334.15 M145.25 -324.0 L145.25 -323.95 146.35 -324.85 147.0 -325.35 145.2 -324.1 145.25 -324.0 M144.15 -317.85 L143.95 -317.75 144.0 -317.65 144.25 -317.9 144.15 -317.85 M68.05 -273.1 Q72.85 -276.05 75.1 -277.1 L84.75 -281.95 82.8 -281.25 72.0 -277.1 Q50.75 -268.45 42.6 -265.4 29.3 -260.5 21.65 -260.5 L19.2 -260.6 17.45 -260.85 10.55 -261.0 3.45 -261.35 -9.35 -262.7 -3.85 -260.05 2.35 -257.65 Q6.1 -256.4 12.85 -255.45 L12.05 -255.45 Q4.8 -255.45 -2.15 -258.15 L-3.15 -258.55 -3.15 -258.45 Q7.25 -253.25 18.6 -253.25 35.9 -253.25 50.7 -258.6 58.9 -261.55 78.65 -271.95 82.7 -274.05 88.6 -276.5 L100.95 -281.35 Q113.45 -286.3 134.65 -290.2 L131.6 -290.1 126.65 -289.75 123.6 -289.25 113.7 -287.95 98.95 -284.3 89.45 -281.15 90.6 -281.45 90.7 -281.3 Q83.45 -278.8 70.9 -272.9 L59.95 -267.6 58.7 -266.95 55.4 -265.45 57.85 -266.75 58.95 -267.4 Q62.7 -269.35 68.35 -273.2 L68.05 -273.1 M336.55 -347.2 L340.5 -346.95 339.6 -346.95 336.55 -347.2 M-18.65 -282.75 Q-18.65 -283.8 -22.55 -285.4 -27.25 -287.35 -33.05 -287.35 L-35.75 -287.2 Q-33.25 -286.25 -30.45 -284.35 L-27.3 -282.05 -26.15 -281.3 -24.4 -280.35 -23.9 -280.5 -24.8 -281.6 -25.9 -283.25 -24.6 -282.75 -24.4 -283.0 -24.35 -283.0 Q-26.2 -283.75 -27.4 -284.1 L-27.5 -283.9 -27.65 -284.6 -27.55 -285.45 Q-25.6 -285.75 -22.7 -284.8 -20.2 -283.95 -18.65 -282.65 L-18.65 -282.75 M-38.1 -280.25 L-38.15 -280.0 -38.2 -280.0 -38.35 -280.25 -39.5 -280.9 -41.05 -281.3 -43.65 -281.1 -44.8 -280.1 -44.85 -279.8 -44.15 -278.6 -42.9 -277.1 -43.1 -276.4 Q-43.3 -275.95 -43.65 -275.8 L-46.05 -275.55 -47.15 -274.3 -47.65 -272.7 -47.3 -272.05 -46.1 -272.7 Q-43.0 -271.9 -40.65 -271.0 L-39.45 -270.5 -37.8 -269.75 -35.85 -269.85 Q-35.3 -270.35 -35.2 -271.15 -35.15 -271.5 -33.65 -271.8 L-36.0 -274.2 -38.6 -276.5 -37.85 -276.85 -36.9 -276.5 -36.65 -276.85 -34.4 -276.6 -31.9 -276.6 -36.4 -279.8 -38.1 -280.25 M-37.15 -275.95 L-36.9 -275.8 -37.0 -275.95 -37.15 -275.95 M-36.15 -275.9 L-36.25 -275.95 -36.3 -275.95 -36.3 -276.0 -36.7 -275.95 -36.15 -275.9 M-27.2 -276.45 L-25.3 -275.6 Q-23.85 -274.8 -23.65 -274.8 L-24.5 -276.25 Q-25.1 -277.5 -25.1 -278.05 L-24.95 -278.0 Q-27.55 -280.65 -28.85 -281.55 -33.75 -285.15 -44.3 -286.05 L-44.55 -285.85 Q-45.15 -285.45 -45.15 -284.85 -45.15 -284.5 -44.75 -283.85 L-44.5 -284.0 -44.15 -283.95 Q-41.4 -283.45 -39.4 -282.6 -34.85 -281.6 -29.7 -278.2 L-27.2 -276.45 M-39.75 -268.55 L-40.2 -268.85 -41.5 -268.8 Q-44.2 -268.8 -46.05 -269.75 L-46.1 -269.75 -47.05 -268.15 -47.15 -266.7 Q-47.15 -265.15 -46.65 -264.1 L-46.4 -264.1 Q-44.6 -262.2 -43.5 -261.7 L-41.85 -261.05 -43.9 -262.45 -43.65 -262.75 Q-42.85 -262.65 -40.1 -261.3 L-38.2 -260.9 -39.6 -262.25 Q-40.85 -263.95 -40.65 -266.25 -40.4 -267.1 -37.7 -267.3 L-38.45 -267.75 Q-39.1 -268.05 -39.55 -268.4 L-39.75 -268.55 M-46.45 -271.4 L-46.25 -271.4 -46.6 -271.45 -46.55 -271.4 -46.45 -271.4" fill="#a9e8fa" fill-rule="evenodd" stroke="none"/>
    <path d="M268.45 -338.55 Q272.9 -339.4 275.05 -340.2 L289.25 -341.2 289.25 -341.45 322.25 -341.4 Q322.9 -341.0 330.4 -340.15 L335.15 -339.65 Q352.55 -337.0 363.8 -333.8 373.5 -331.05 380.95 -327.15 L381.55 -326.75 Q382.2 -326.5 380.95 -326.5 380.4 -326.5 376.5 -327.8 L372.15 -329.4 370.85 -329.75 367.3 -329.4 367.7 -329.2 368.3 -328.7 Q368.3 -327.8 367.8 -327.25 L350.45 -323.9 348.9 -323.65 Q350.15 -322.75 350.7 -320.85 351.2 -319.0 352.5 -318.2 355.3 -316.4 362.5 -314.4 363.25 -314.2 368.05 -309.75 L371.4 -307.25 Q373.35 -306.05 373.45 -304.95 L373.15 -304.65 370.15 -305.15 367.65 -305.95 368.05 -305.65 Q368.2 -305.2 366.95 -305.2 L350.45 -310.95 Q339.95 -313.5 338.55 -314.15 336.85 -314.9 323.9 -316.9 L319.6 -317.05 315.15 -317.4 309.9 -318.3 Q291.1 -317.75 277.95 -316.0 L273.95 -315.25 Q273.95 -308.2 268.5 -305.65 264.3 -302.2 249.75 -299.65 237.35 -297.5 230.95 -297.5 206.5 -297.5 187.05 -304.7 171.7 -311.95 167.7 -311.95 L162.75 -311.5 Q162.1 -310.25 162.55 -308.4 L162.75 -308.35 162.9 -307.5 162.85 -307.35 162.9 -307.25 162.5 -307.0 160.9 -306.1 Q158.85 -305.15 157.65 -305.15 151.35 -305.15 145.9 -308.85 141.4 -311.85 141.4 -313.5 141.4 -314.1 141.9 -315.4 L142.4 -317.3 Q142.4 -318.5 140.45 -319.65 141.7 -321.0 144.3 -323.15 142.55 -323.45 142.05 -324.4 141.9 -324.75 141.9 -325.7 L143.0 -329.65 142.9 -330.45 Q142.9 -330.85 143.2 -331.25 L143.15 -332.55 Q143.5 -334.25 145.65 -335.05 L154.3 -338.55 Q157.7 -338.55 159.3 -337.65 L162.65 -335.55 162.7 -335.4 Q169.5 -338.35 169.5 -335.3 L169.45 -334.7 170.95 -334.45 171.3 -334.15 171.3 -333.7 187.3 -330.25 210.4 -325.55 217.0 -325.05 221.9 -324.2 235.05 -324.0 234.95 -323.85 235.8 -323.75 Q249.35 -323.75 260.1 -326.8 264.65 -328.1 269.8 -330.45 L268.3 -333.75 266.4 -336.8 266.4 -336.95 266.0 -337.25 Q266.0 -337.55 266.75 -338.3 L267.25 -338.35 Q267.65 -338.65 268.3 -338.8 L268.45 -338.55 M269.4 -335.1 L271.2 -332.65 Q271.6 -331.8 271.65 -330.45 L271.65 -328.3 Q271.65 -324.5 270.35 -321.5 269.4 -319.35 267.0 -315.9 L268.55 -316.15 268.05 -315.4 268.65 -315.7 Q270.1 -316.4 272.3 -316.85 L272.75 -316.95 272.75 -317.15 273.65 -317.15 273.7 -317.1 Q281.25 -318.45 301.8 -319.4 L301.8 -319.65 313.55 -318.95 324.55 -317.9 Q331.5 -317.9 340.35 -315.75 L352.5 -312.4 Q356.65 -311.4 361.45 -309.5 364.35 -308.35 365.9 -307.4 L366.4 -307.65 369.9 -306.65 370.7 -306.75 Q366.2 -309.0 363.95 -311.2 362.1 -313.0 360.5 -313.75 359.3 -314.3 356.25 -315.05 353.25 -315.8 350.8 -318.7 L347.15 -323.65 Q347.5 -324.5 353.55 -325.8 L364.45 -327.95 366.9 -328.45 Q365.2 -329.25 364.9 -329.65 L365.75 -330.2 366.4 -330.65 367.9 -330.6 364.3 -331.7 346.95 -336.5 344.65 -336.65 342.15 -337.0 Q339.3 -337.95 334.45 -338.45 L332.15 -338.6 329.65 -338.9 327.3 -339.05 324.8 -339.4 323.45 -339.55 321.9 -339.9 289.25 -339.75 Q278.8 -339.3 274.75 -338.25 L268.25 -336.85 Q268.35 -336.35 269.4 -335.1 M270.2 -328.55 L269.05 -327.6 Q267.4 -326.6 262.9 -325.55 247.4 -321.95 243.0 -321.95 L238.5 -322.15 234.7 -322.55 221.45 -322.8 219.9 -323.15 218.3 -323.5 213.7 -324.0 209.15 -324.65 Q197.75 -326.45 187.25 -328.75 L170.05 -332.8 168.7 -332.65 168.2 -331.5 169.15 -330.25 169.05 -330.0 Q170.3 -329.75 170.3 -328.4 170.3 -324.9 167.55 -321.7 165.55 -319.35 166.05 -318.35 L167.0 -316.15 167.15 -316.05 167.3 -315.2 Q167.3 -314.5 166.25 -313.95 L165.55 -313.6 170.25 -312.95 Q179.3 -311.05 185.15 -307.0 L199.65 -303.0 Q203.55 -301.9 208.8 -301.05 219.15 -299.4 230.7 -299.4 236.3 -299.4 246.95 -301.25 254.95 -302.65 257.95 -303.5 L264.3 -305.6 265.6 -305.95 266.8 -306.8 Q269.4 -308.45 269.4 -309.4 269.4 -309.8 267.45 -312.05 L265.65 -314.3 265.5 -314.35 Q265.4 -314.4 265.4 -315.15 L267.8 -320.25 Q270.2 -325.3 270.2 -328.0 L270.2 -328.55 M272.65 -315.05 L267.55 -314.15 269.4 -312.15 Q270.45 -310.75 270.65 -309.8 272.25 -312.0 272.65 -315.05 M166.8 -333.05 L166.65 -334.95 Q158.75 -334.2 152.7 -328.85 146.65 -322.45 142.75 -320.0 L143.15 -319.4 143.95 -317.75 144.0 -317.65 144.25 -317.9 147.7 -320.65 146.15 -318.6 145.3 -317.55 143.0 -314.8 142.95 -314.45 Q142.95 -312.4 148.1 -309.85 L148.3 -309.75 148.7 -309.55 148.85 -309.5 Q150.95 -308.5 152.9 -307.95 L153.5 -307.8 157.7 -307.25 Q158.75 -307.25 160.25 -307.9 L161.35 -308.35 161.15 -308.65 Q160.3 -309.9 160.3 -310.75 L160.3 -310.8 157.9 -310.5 Q152.15 -310.5 149.25 -311.65 L148.65 -311.9 Q147.3 -312.6 147.3 -313.25 147.3 -314.5 147.55 -313.5 148.2 -313.35 149.05 -312.55 150.3 -311.8 153.25 -311.8 L153.65 -311.8 Q156.4 -311.9 159.4 -313.0 L162.7 -314.25 163.0 -314.25 164.45 -315.7 164.3 -316.4 Q164.3 -319.1 165.7 -321.55 L165.85 -321.8 165.95 -321.95 167.7 -325.8 168.1 -327.1 168.25 -327.75 Q168.05 -328.15 167.05 -328.2 165.3 -327.9 159.8 -325.3 L153.15 -322.3 153.35 -322.75 Q154.6 -324.95 161.95 -328.2 165.2 -329.6 167.2 -329.95 166.9 -330.75 166.85 -332.0 L166.8 -333.05 M232.15 -280.45 L234.1 -280.0 234.15 -279.75 233.45 -279.5 232.0 -279.3 228.95 -279.65 227.85 -279.85 225.5 -279.75 Q225.65 -279.0 227.7 -277.6 229.65 -276.25 229.85 -275.45 229.3 -274.55 228.65 -274.35 L227.05 -274.35 226.7 -274.25 220.45 -274.25 214.2 -274.7 208.25 -275.2 Q198.65 -276.3 190.45 -279.4 182.8 -282.8 179.35 -283.85 172.75 -286.55 167.6 -287.7 159.85 -289.45 144.5 -289.65 119.85 -286.0 104.15 -280.55 98.4 -278.55 91.65 -275.6 84.35 -272.25 80.45 -270.6 77.55 -269.35 71.3 -265.7 65.2 -262.1 61.9 -260.75 48.2 -255.1 39.6 -253.15 32.6 -251.6 24.0 -251.6 L18.45 -252.0 13.6 -252.55 11.05 -252.7 8.35 -253.05 Q0.8 -253.8 -6.55 -258.0 L-8.05 -259.0 -8.35 -259.05 -9.65 -259.4 -11.0 -259.95 -16.8 -260.55 -16.8 -260.35 Q-16.8 -259.1 -21.7 -256.75 -27.0 -254.15 -32.4 -253.95 L-36.35 -254.2 Q-39.65 -254.85 -41.7 -256.85 -43.15 -258.25 -43.5 -259.2 -46.05 -259.55 -47.15 -262.5 -47.85 -264.35 -47.85 -266.55 L-47.7 -269.1 -47.2 -269.85 Q-48.1 -270.2 -48.6 -271.2 -49.0 -271.9 -49.05 -272.7 -49.05 -273.55 -48.2 -275.2 -47.05 -277.3 -45.6 -277.45 -46.05 -278.15 -46.1 -279.35 L-46.1 -279.4 Q-46.3 -279.7 -46.3 -280.55 -46.3 -281.15 -45.9 -281.55 L-46.65 -283.2 -47.4 -284.95 Q-47.4 -286.3 -46.35 -286.9 L-44.4 -287.6 -44.05 -287.55 Q-41.75 -288.45 -39.05 -288.05 -38.35 -289.55 -35.1 -289.85 -30.7 -290.25 -23.3 -288.3 L-18.65 -285.65 Q-16.4 -284.3 -16.4 -282.7 -16.4 -282.35 -17.1 -281.55 L-17.85 -280.5 Q-17.85 -279.8 -16.4 -278.35 -15.0 -276.95 -15.0 -276.0 -15.0 -275.35 -15.45 -274.55 L-15.9 -273.1 -15.5 -271.9 -14.5 -269.25 Q-13.95 -267.85 -13.9 -266.4 -12.8 -265.2 -11.35 -264.55 -7.8 -262.95 4.65 -262.3 L18.65 -261.8 21.1 -261.8 Q31.45 -261.7 49.45 -268.95 58.75 -272.75 70.1 -277.85 75.4 -279.55 80.3 -282.05 L88.1 -285.65 Q98.7 -289.55 129.35 -292.7 L129.35 -292.95 146.5 -292.1 146.95 -291.65 148.15 -291.45 Q160.5 -292.8 175.45 -290.6 L175.6 -290.75 204.35 -285.7 Q223.2 -282.45 231.8 -280.5 L232.1 -280.5 232.15 -280.45 M224.55 -280.55 L199.15 -285.4 208.75 -282.6 224.9 -277.6 225.0 -277.35 Q225.65 -277.25 224.4 -277.25 222.4 -277.25 210.65 -280.6 L197.9 -284.25 Q186.05 -287.0 183.7 -287.85 181.55 -288.7 172.85 -289.55 L161.55 -290.25 162.15 -289.9 Q163.2 -289.5 166.2 -289.05 171.05 -288.4 174.8 -287.1 L181.15 -284.85 Q183.15 -284.2 187.55 -282.05 191.4 -280.15 194.15 -279.55 L203.7 -277.35 217.5 -276.2 226.55 -275.95 227.35 -276.05 224.85 -278.35 Q224.15 -278.95 224.15 -279.5 224.15 -280.25 224.55 -280.55 M153.95 -334.15 L154.5 -333.75 155.0 -333.4 154.8 -333.25 Q154.25 -333.3 154.05 -333.5 L153.25 -333.65 Q149.85 -333.65 147.35 -332.1 146.1 -331.3 145.3 -330.3 L144.75 -328.3 144.75 -328.2 144.5 -327.6 144.35 -327.1 143.8 -325.8 145.25 -324.0 145.25 -323.95 146.35 -324.85 147.0 -325.35 152.9 -330.25 157.7 -332.95 160.55 -334.4 159.9 -334.8 159.45 -335.1 Q157.7 -336.25 157.55 -336.65 L156.95 -336.8 Q156.3 -337.0 156.15 -337.15 151.1 -336.1 144.9 -333.05 144.8 -332.9 145.05 -332.55 L145.1 -332.45 146.9 -333.1 152.9 -334.4 153.95 -334.15 M42.6 -265.4 Q29.3 -260.5 21.65 -260.5 L19.2 -260.6 17.45 -260.85 10.55 -261.0 3.45 -261.35 Q-8.55 -261.95 -12.1 -263.6 L-12.15 -263.6 -11.5 -263.25 -5.25 -259.6 Q-3.85 -259.15 -3.15 -258.7 L-3.15 -258.45 Q7.25 -253.25 18.6 -253.25 35.9 -253.25 50.7 -258.6 58.9 -261.55 78.65 -271.95 82.7 -274.05 88.6 -276.5 L100.95 -281.35 Q113.85 -286.5 136.1 -290.45 L128.9 -290.5 110.7 -288.95 Q103.75 -287.8 93.7 -284.95 L82.8 -281.25 72.0 -277.1 Q50.75 -268.45 42.6 -265.4 M336.55 -347.2 L340.5 -346.95 339.6 -346.95 336.55 -347.2 M-18.65 -282.75 Q-18.65 -283.8 -22.55 -285.4 -27.25 -287.35 -33.05 -287.35 L-35.75 -287.2 Q-33.25 -286.25 -30.45 -284.35 L-27.3 -282.05 Q-22.35 -278.1 -20.3 -274.1 -22.45 -275.45 -24.85 -277.9 L-24.95 -278.0 Q-27.55 -280.65 -28.85 -281.55 -33.75 -285.15 -44.3 -286.05 L-44.55 -285.85 Q-45.15 -285.45 -45.15 -284.85 -45.15 -284.5 -44.75 -283.85 L-44.45 -283.4 -43.8 -282.3 Q-41.5 -282.5 -38.65 -281.55 L-38.3 -281.45 Q-38.1 -281.45 -38.1 -280.7 L-38.1 -280.25 -38.15 -280.0 -38.2 -280.0 -38.35 -280.25 -39.5 -280.9 -41.05 -281.3 -43.65 -281.1 -44.8 -280.1 -44.85 -279.8 -44.15 -278.6 -42.9 -277.1 -43.1 -276.4 Q-43.3 -275.95 -43.65 -275.8 L-46.05 -275.55 -47.15 -274.3 -47.65 -272.7 -47.3 -272.05 -46.95 -271.75 -46.6 -271.45 -46.55 -271.4 -46.45 -271.4 -46.25 -271.4 -43.85 -270.95 -40.3 -269.7 Q-39.15 -269.45 -39.1 -269.2 -39.5 -268.95 -40.2 -268.85 L-41.5 -268.8 Q-44.2 -268.8 -46.05 -269.75 L-46.1 -269.75 -47.05 -268.15 -47.15 -266.7 Q-47.15 -265.15 -46.65 -264.1 L-46.4 -264.1 Q-44.6 -262.2 -43.5 -261.7 L-41.85 -261.05 -37.4 -259.75 -27.95 -260.1 -24.9 -260.5 -23.8 -260.25 -23.65 -260.0 -26.5 -259.2 -27.7 -258.9 -28.65 -258.7 -38.35 -259.05 -41.55 -259.7 -40.3 -258.1 -40.25 -258.0 -40.2 -257.95 Q-38.7 -256.45 -35.35 -256.05 L-35.3 -256.05 -33.05 -255.95 -29.7 -256.1 Q-25.65 -256.55 -22.7 -258.05 -20.8 -259.05 -19.4 -260.3 -21.35 -261.5 -22.25 -263.6 L-22.3 -263.7 -23.9 -267.95 Q-25.95 -271.3 -29.35 -272.95 L-34.85 -275.55 -35.5 -275.7 -36.15 -275.9 -36.25 -275.95 -36.3 -275.95 -36.3 -276.0 -36.7 -275.95 -37.15 -275.95 -36.9 -275.8 -35.5 -274.85 Q-34.45 -274.1 -34.25 -273.25 L-34.5 -273.0 -36.0 -274.2 -38.6 -276.5 -37.85 -276.85 -36.9 -276.5 -34.2 -275.65 -32.75 -275.25 -32.25 -275.1 -30.85 -274.7 Q-26.6 -273.4 -25.35 -271.95 -22.35 -268.5 -22.2 -267.9 -22.55 -267.35 -22.55 -266.25 -22.55 -264.7 -20.65 -262.8 L-20.45 -262.6 -19.85 -262.05 -19.9 -262.45 -19.9 -262.6 Q-19.85 -263.6 -19.45 -263.95 L-17.6 -264.7 -17.6 -264.75 Q-17.45 -265.1 -16.65 -265.1 L-15.9 -265.0 -15.8 -265.05 Q-15.6 -265.45 -15.6 -266.55 L-15.6 -266.6 -16.05 -267.25 -15.85 -267.45 -15.75 -267.45 -17.05 -271.1 -17.85 -273.05 -17.1 -274.25 Q-16.4 -275.35 -16.4 -275.75 -16.4 -276.45 -17.85 -277.55 L-19.1 -278.8 -20.75 -280.4 -20.9 -280.5 Q-22.5 -281.85 -24.2 -282.55 L-24.6 -282.7 -24.6 -282.75 -24.4 -283.0 -24.35 -283.0 Q-23.1 -282.9 -20.65 -281.55 L-19.85 -281.05 -19.8 -281.05 -19.1 -280.55 -19.05 -280.75 -18.95 -281.05 -18.65 -282.65 -18.65 -282.75 M-17.25 -261.8 L-11.45 -261.1 Q-13.6 -262.4 -15.3 -263.3 -16.25 -262.85 -17.85 -262.5 L-17.25 -261.8" fill="#2f526f" fill-rule="evenodd" stroke="none"/>
  </g>
</svg>
