<?xml version="1.0" encoding="UTF-8" standalone="no"?>
<svg xmlns:ffdec="https://www.free-decompiler.com/flash" xmlns:xlink="http://www.w3.org/1999/xlink" ffdec:objectType="shape" height="313.5px" width="188.2px" xmlns="http://www.w3.org/2000/svg">
  <g transform="matrix(1.0, 0.0, 0.0, 1.0, 148.65, 552.0)">
    <path d="M0.3 -460.4 L0.55 -460.4 -0.15 -428.55 -0.6 -401.9 Q-0.6 -398.7 0.2 -390.65 L0.15 -389.25 Q0.15 -374.2 5.4 -348.2 L10.65 -325.05 Q10.65 -318.35 20.35 -291.9 26.6 -275.05 30.1 -266.8 29.25 -266.4 28.5 -265.4 26.5 -262.9 25.2 -262.2 24.65 -261.9 18.45 -260.55 14.1 -259.55 12.2 -258.6 L1.3 -288.9 Q-4.9 -307.2 -7.05 -320.7 -10.45 -342.85 -11.65 -352.25 -13.9 -370.0 -14.45 -383.9 L-14.9 -383.9 -15.2 -374.75 Q-15.2 -366.4 -13.3 -352.6 L-13.35 -347.85 Q-13.35 -338.85 -11.55 -328.3 -9.75 -317.7 -9.75 -315.95 -9.75 -310.1 -7.7 -300.25 L-4.05 -285.15 Q-1.7 -274.5 -0.15 -269.25 2.2 -261.1 5.9 -255.6 L3.15 -255.8 -1.2 -255.3 Q-8.55 -254.65 -11.95 -253.45 -14.75 -252.55 -17.1 -252.25 L-18.0 -253.95 -18.9 -253.65 -19.0 -253.55 Q-27.75 -281.15 -32.15 -307.25 -36.9 -335.45 -36.75 -363.45 L-37.2 -363.45 -37.5 -349.2 Q-37.5 -342.65 -36.8 -334.6 L-36.9 -331.55 Q-36.9 -328.65 -35.35 -311.05 -33.85 -294.0 -33.35 -290.45 -31.3 -277.0 -29.7 -269.35 -27.5 -258.75 -24.65 -250.75 L-25.65 -249.75 -39.35 -247.35 -48.6 -245.4 Q-54.75 -244.2 -59.95 -242.3 -65.9 -240.75 -81.55 -239.65 L-81.45 -242.4 Q-81.45 -243.5 -84.15 -261.2 -86.85 -278.95 -86.85 -280.8 -86.85 -294.65 -88.5 -306.6 -89.65 -314.85 -90.05 -321.1 L-90.05 -321.45 -90.2 -325.35 -90.2 -326.3 Q-90.2 -328.4 -89.6 -329.55 L-89.6 -353.75 -89.75 -357.7 -90.05 -361.65 -90.5 -361.65 -90.8 -354.15 -90.8 -337.0 -91.15 -328.95 -91.35 -326.7 -91.15 -323.5 -90.85 -314.9 -90.2 -299.55 -90.2 -270.5 -88.3 -254.5 -86.75 -240.65 -90.85 -240.1 -96.45 -239.6 Q-104.7 -239.6 -113.5 -242.35 -129.05 -247.15 -133.85 -248.3 L-139.35 -280.05 Q-143.1 -303.9 -143.1 -315.35 -143.1 -320.6 -143.9 -331.95 -144.75 -343.3 -144.75 -348.75 -144.8 -361.4 -145.1 -370.65 L-144.9 -370.85 Q-146.6 -411.9 -146.95 -439.35 L-146.9 -439.35 -146.95 -439.8 -147.05 -453.15 -146.9 -454.85 -146.9 -456.15 Q-147.35 -455.45 -147.7 -452.2 -147.8 -460.2 -146.75 -468.95 -145.25 -481.95 -141.05 -498.2 -139.15 -505.8 -135.6 -512.9 -131.4 -521.2 -125.4 -527.6 -115.9 -537.8 -107.85 -541.75 -99.1 -546.1 -82.2 -549.4 L-81.85 -549.35 -80.25 -549.15 -78.45 -549.35 -73.8 -549.75 -63.15 -550.2 -60.5 -549.8 -57.95 -549.6 Q-45.5 -546.4 -41.95 -545.75 -30.95 -540.85 -21.25 -531.05 -9.6 -519.4 -5.25 -507.45 0.85 -491.0 0.8 -471.3 L0.65 -465.7 0.3 -460.4" fill="#ffffff" fill-rule="evenodd" stroke="none"/>
    <path d="M0.3 -460.4 L0.65 -465.7 0.8 -471.3 Q0.85 -491.0 -5.25 -507.45 -9.6 -519.4 -21.25 -531.05 -30.95 -540.85 -41.95 -545.75 -45.5 -546.4 -57.95 -549.6 L-60.5 -549.8 -63.15 -550.2 -73.8 -549.75 -78.45 -549.35 -80.25 -549.15 -81.85 -549.35 -82.2 -549.4 Q-99.1 -546.1 -107.85 -541.75 -115.9 -537.8 -125.4 -527.6 -131.4 -521.2 -135.6 -512.9 -139.15 -505.8 -141.05 -498.2 -145.25 -481.95 -146.75 -468.95 -147.8 -460.2 -147.7 -452.2 -147.35 -455.45 -146.9 -456.15 L-146.9 -454.85 -147.05 -453.15 -146.95 -439.8 -146.9 -439.35 -146.95 -439.35 Q-146.6 -411.9 -144.9 -370.85 L-145.1 -370.65 Q-144.8 -361.4 -144.75 -348.75 -144.75 -343.3 -143.9 -331.95 -143.1 -320.6 -143.1 -315.35 -143.1 -303.9 -139.35 -280.05 L-133.85 -248.3 Q-129.05 -247.15 -113.5 -242.35 -104.7 -239.6 -96.45 -239.6 L-90.85 -240.1 -86.75 -240.65 -88.3 -254.5 -90.2 -270.5 -90.2 -299.55 -90.85 -314.9 -91.15 -323.5 -91.35 -326.7 -91.15 -328.95 -90.8 -337.0 -90.8 -354.15 -90.5 -361.65 -90.05 -361.65 -89.75 -357.7 -89.6 -353.75 -89.6 -329.55 Q-90.2 -328.4 -90.2 -326.3 L-90.2 -325.35 -90.05 -321.45 -90.05 -321.1 Q-89.65 -314.85 -88.5 -306.6 -86.85 -294.65 -86.85 -280.8 -86.85 -278.95 -84.15 -261.2 -81.45 -243.5 -81.45 -242.4 L-81.55 -239.65 Q-65.9 -240.75 -59.95 -242.3 -54.75 -244.2 -48.6 -245.4 L-39.35 -247.35 -25.65 -249.75 -24.65 -250.75 Q-27.5 -258.75 -29.7 -269.35 -31.3 -277.0 -33.35 -290.45 -33.85 -294.0 -35.35 -311.05 -36.9 -328.65 -36.9 -331.55 L-36.8 -334.6 Q-37.5 -342.65 -37.5 -349.2 L-37.2 -363.45 -36.75 -363.45 Q-36.9 -335.45 -32.15 -307.25 -27.75 -281.15 -19.0 -253.55 L-18.9 -253.65 -18.0 -253.95 -17.1 -252.25 Q-14.75 -252.55 -11.95 -253.45 -8.55 -254.65 -1.2 -255.3 L3.15 -255.8 5.9 -255.6 Q2.2 -261.1 -0.15 -269.25 -1.7 -274.5 -4.05 -285.15 L-7.7 -300.25 Q-9.75 -310.1 -9.75 -315.95 -9.75 -317.7 -11.55 -328.3 -13.35 -338.85 -13.35 -347.85 L-13.3 -352.6 Q-15.2 -366.4 -15.2 -374.75 L-14.9 -383.9 -14.45 -383.9 Q-13.9 -370.0 -11.65 -352.25 -10.45 -342.85 -7.05 -320.7 -4.9 -307.2 1.3 -288.9 L12.2 -258.6 Q14.1 -259.55 18.45 -260.55 24.65 -261.9 25.2 -262.2 26.5 -262.9 28.5 -265.4 29.25 -266.4 30.1 -266.8 26.6 -275.05 20.35 -291.9 10.65 -318.35 10.65 -325.05 L5.4 -348.2 Q0.15 -374.2 0.15 -389.25 L0.2 -390.65 Q-0.6 -398.7 -0.6 -401.9 L-0.15 -428.55 0.55 -460.4 0.3 -460.4 M1.55 -462.7 Q1.5 -457.45 0.95 -452.45 L0.95 -429.6 1.0 -428.9 0.95 -427.4 1.15 -399.45 Q1.45 -387.65 2.25 -380.4 L2.45 -380.4 Q3.9 -368.25 8.35 -353.2 11.85 -341.4 18.0 -325.5 23.6 -311.05 39.55 -270.9 L37.75 -273.35 37.0 -274.3 Q32.4 -284.75 26.8 -299.45 L17.7 -323.55 Q13.55 -333.7 9.15 -346.95 3.35 -364.4 2.15 -373.5 7.75 -322.0 31.3 -267.15 L31.65 -267.15 31.55 -266.55 31.65 -266.3 31.2 -265.5 Q29.4 -261.05 22.15 -259.1 L12.6 -257.45 12.6 -257.4 Q12.45 -256.95 11.4 -256.8 7.95 -264.6 0.6 -286.65 -3.95 -300.1 -7.05 -316.1 -10.4 -333.45 -12.1 -344.25 L-12.15 -344.5 Q-10.85 -325.65 -7.2 -306.5 -2.25 -280.6 6.75 -255.45 L6.95 -255.45 6.85 -255.15 6.95 -254.85 6.75 -254.4 6.35 -254.95 -1.2 -253.8 Q-9.25 -253.65 -10.95 -252.6 -12.6 -251.55 -15.2 -251.55 L-16.95 -251.6 Q-17.7 -251.15 -18.45 -251.0 L-18.75 -250.65 -18.9 -250.95 -19.05 -250.95 -19.4 -251.2 -19.5 -252.0 Q-25.1 -262.75 -31.15 -295.1 -33.5 -307.65 -34.95 -318.25 L-34.85 -316.3 Q-34.0 -303.6 -32.75 -294.0 L-30.9 -282.8 -28.65 -271.55 -25.7 -259.15 -23.8 -251.5 -23.5 -251.25 -23.4 -250.2 -23.45 -250.0 -23.4 -249.8 Q-23.4 -248.85 -23.55 -248.9 L-23.7 -249.15 -24.0 -248.85 -24.15 -249.35 Q-26.3 -248.15 -34.25 -246.7 L-45.8 -244.95 -59.55 -241.4 -69.15 -239.1 Q-79.05 -239.1 -81.7 -239.35 L-82.05 -239.15 -82.1 -239.4 -82.65 -239.6 -82.1 -239.6 -84.8 -255.8 Q-87.15 -270.2 -87.15 -275.55 -87.15 -279.85 -88.1 -288.55 -89.1 -297.25 -89.1 -301.5 L-89.3 -303.55 -89.1 -300.0 -89.1 -271.4 -87.0 -256.3 Q-85.35 -243.5 -85.35 -241.1 L-85.35 -240.95 -85.05 -240.5 -85.35 -240.2 -85.4 -239.55 -85.8 -238.5 -87.15 -238.55 Q-87.85 -238.65 -88.2 -238.85 L-90.5 -238.5 Q-100.7 -238.5 -113.1 -241.25 -123.55 -243.6 -133.7 -247.4 L-135.15 -247.25 -136.8 -255.6 Q-137.7 -260.25 -137.7 -263.55 -137.7 -265.4 -140.6 -281.55 -141.2 -284.5 -141.85 -290.3 L-142.95 -299.55 Q-143.8 -305.1 -144.35 -317.55 -144.9 -328.25 -145.6 -334.05 L-145.65 -331.95 -145.85 -312.5 -145.6 -282.15 Q-144.95 -264.75 -142.6 -255.65 L-142.2 -255.75 -141.9 -254.8 -141.6 -253.55 -142.65 -253.4 -142.8 -254.75 Q-142.95 -254.6 -143.25 -254.55 -146.0 -263.3 -146.75 -282.05 -147.05 -289.85 -147.05 -312.6 L-146.15 -362.85 -145.75 -362.85 Q-145.75 -368.3 -146.05 -372.55 -146.65 -375.0 -146.7 -378.85 -146.8 -385.85 -147.2 -387.75 -147.9 -391.1 -147.85 -396.25 L-147.75 -404.85 -148.25 -425.75 -148.5 -439.2 -148.25 -445.95 -148.65 -452.1 Q-148.65 -487.45 -138.5 -510.15 -121.45 -548.3 -77.3 -551.7 L-77.3 -552.0 -71.9 -551.55 -71.75 -551.25 -71.95 -551.2 -68.15 -551.15 -62.25 -550.8 -57.45 -550.2 Q-51.35 -549.85 -46.2 -548.25 L-40.85 -546.3 -40.75 -546.05 Q-31.65 -542.25 -23.05 -534.65 -11.25 -524.3 -7.2 -514.05 -4.2 -510.35 -0.8 -493.65 2.3 -478.7 2.3 -473.15 L2.2 -466.9 Q2.05 -464.55 1.55 -462.7" fill="#ffffff" fill-opacity="0.9019608" fill-rule="evenodd" stroke="none"/>
  </g>
</svg>
