<?xml version="1.0" encoding="UTF-8" standalone="no"?>
<svg xmlns:ffdec="https://www.free-decompiler.com/flash" xmlns:xlink="http://www.w3.org/1999/xlink" ffdec:objectType="shape" height="275.15px" width="406.4px" xmlns="http://www.w3.org/2000/svg">
  <g transform="matrix(1.0, 0.0, 0.0, 1.0, 215.9, 306.55)">
    <path d="M165.1 -201.9 Q166.15 -199.1 166.75 -198.35 170.5 -197.55 173.05 -195.85 174.9 -194.65 175.3 -193.45 175.85 -192.45 175.8 -190.85 175.7 -187.75 176.15 -186.8 L176.15 -170.7 Q175.65 -165.8 175.65 -159.25 175.65 -154.9 176.3 -145.9 L176.95 -133.0 176.55 -116.7 Q176.45 -113.4 176.5 -107.0 L176.55 -100.6 176.6 -96.45 185.6 -99.35 185.05 -98.8 185.4 -99.15 185.7 -99.25 186.2 -98.75 Q186.05 -98.0 184.45 -96.95 L185.25 -97.25 185.3 -97.25 186.15 -97.55 185.95 -97.15 185.1 -95.15 Q184.55 -94.4 184.1 -93.35 L183.55 -92.2 Q182.2 -89.4 182.2 -88.65 L182.3 -87.85 Q182.35 -87.35 182.5 -87.3 L182.7 -87.45 183.75 -87.7 186.3 -88.5 187.45 -88.9 190.5 -89.75 186.55 -86.4 182.85 -82.75 182.0 -82.35 179.3 -80.95 176.45 -78.9 174.5 -77.35 174.05 -76.85 174.15 -76.9 172.95 -75.85 172.05 -74.8 171.95 -74.7 171.75 -74.5 171.55 -74.25 171.5 -74.15 171.4 -74.1 170.2 -73.25 170.25 -73.2 170.3 -73.1 170.4 -72.95 169.85 -72.55 168.6 -71.55 168.15 -71.0 163.55 -67.55 161.15 -65.35 160.85 -65.05 158.45 -63.15 154.9 -60.05 153.55 -58.8 153.45 -58.65 Q149.85 -57.8 148.05 -56.85 L135.75 -53.4 130.15 -53.0 124.5 -52.9 121.15 -53.4 120.6 -53.5 117.15 -54.15 115.8 -53.9 115.8 -53.4 115.75 -52.9 115.8 -52.15 Q116.0 -51.55 118.0 -50.85 L114.6 -50.05 111.4 -49.2 110.15 -48.7 109.15 -48.5 109.05 -48.45 108.55 -48.3 108.25 -48.15 105.75 -47.4 105.15 -47.35 105.1 -47.35 104.05 -47.2 103.35 -47.1 103.3 -47.05 Q102.4 -46.0 98.35 -45.35 L98.15 -45.35 97.9 -45.35 97.7 -45.35 97.5 -45.35 94.05 -45.15 91.9 -44.75 86.25 -42.9 85.5 -42.7 Q84.6 -41.5 83.55 -41.35 L78.9 -41.5 77.55 -41.25 77.45 -41.25 77.15 -41.25 76.2 -41.25 75.9 -41.25 76.55 -41.35 63.1 -40.5 Q56.6 -39.0 55.5 -38.05 L44.0 -36.45 43.9 -36.45 43.75 -36.45 42.65 -36.45 36.0 -35.9 32.25 -35.5 29.25 -35.1 Q21.1 -34.1 18.0 -33.2 L7.85 -32.0 5.4 -31.7 2.9 -31.7 Q-1.45 -32.15 -4.9 -31.65 L-20.55 -31.55 -27.5 -31.9 -35.6 -31.6 -36.25 -31.55 -37.35 -31.4 -43.6 -32.0 -43.7 -32.3 Q-63.2 -32.65 -76.9 -34.35 L-85.2 -34.4 -87.0 -34.5 -85.6 -34.05 -88.95 -34.7 -89.7 -34.85 -90.0 -34.95 -95.0 -35.85 -100.7 -37.0 -98.5 -36.8 -99.9 -37.5 -101.3 -38.25 -102.5 -38.9 -105.0 -39.4 -114.15 -41.35 -118.1 -41.5 -120.55 -42.9 Q-123.25 -44.45 -125.55 -45.4 L-126.35 -45.7 -121.7 -45.45 Q-124.3 -47.55 -131.2 -49.45 -136.55 -51.05 -141.75 -51.5 -143.6 -53.0 -148.25 -54.65 L-148.5 -54.75 -149.3 -54.95 -149.45 -55.05 -154.25 -56.55 -157.35 -58.2 -158.4 -58.65 -157.8 -58.6 Q-158.95 -59.25 -161.25 -60.3 L-161.85 -60.6 -161.9 -60.6 -163.6 -61.35 -164.55 -61.7 -164.6 -61.7 -164.65 -61.55 -166.0 -61.95 -172.3 -64.0 -172.4 -64.0 -172.65 -64.1 -175.6 -64.9 -175.9 -64.9 -176.45 -65.05 -177.5 -65.4 -177.95 -65.55 Q-179.4 -66.1 -180.35 -66.7 L-180.75 -67.0 -181.85 -68.1 -182.05 -68.3 -183.1 -69.1 -183.3 -69.6 -182.6 -69.15 -182.4 -69.05 -180.25 -67.75 -180.25 -68.3 Q-181.55 -70.2 -183.15 -71.9 L-183.75 -72.55 Q-186.7 -75.6 -190.5 -78.35 L-191.75 -79.1 Q-192.7 -81.0 -194.9 -83.1 L-195.0 -83.15 Q-195.6 -83.8 -196.35 -84.3 L-196.45 -84.45 -197.4 -85.15 -197.95 -85.55 -205.15 -90.2 Q-202.8 -90.1 -199.7 -88.75 L-199.25 -88.8 -201.95 -91.2 -203.3 -92.5 -204.6 -93.95 -206.35 -95.05 -206.95 -95.45 -209.95 -96.95 -210.15 -97.3 -211.05 -97.85 -211.4 -97.8 -212.6 -99.45 -215.9 -103.9 -212.75 -104.8 -210.35 -105.55 -210.1 -105.65 -209.8 -106.15 -202.5 -106.7 -199.25 -104.2 -198.45 -103.55 -199.15 -104.55 -199.4 -104.95 -199.1 -104.7 Q-195.55 -102.3 -189.85 -98.85 -183.5 -95.05 -178.5 -92.75 L-178.3 -92.7 -177.5 -92.35 -177.3 -92.3 -177.15 -92.2 -176.9 -92.0 -176.0 -91.5 -175.6 -91.3 -175.45 -91.2 -172.95 -89.75 -172.8 -89.5 -172.3 -89.4 -171.9 -89.15 -171.65 -89.0 -170.7 -88.5 -170.05 -88.45 -167.4 -88.1 -165.5 -88.25 -164.8 -88.2 -164.65 -88.2 -163.8 -88.7 -163.4 -88.9 -161.65 -89.85 -161.35 -89.95 -155.9 -90.35 Q-152.8 -89.1 -149.8 -88.2 -144.85 -86.75 -139.25 -86.5 L-139.25 -86.6 Q-139.65 -87.3 -139.65 -88.15 L-139.3 -89.85 -138.9 -91.5 Q-139.15 -92.4 -138.6 -93.0 -137.95 -93.8 -137.85 -94.25 L-137.15 -97.55 Q-136.75 -99.7 -136.75 -100.9 -136.75 -108.0 -136.4 -114.1 L-134.35 -140.65 -134.15 -140.85 Q-133.8 -140.2 -133.6 -139.0 -133.4 -137.8 -133.5 -137.1 -132.25 -141.55 -132.0 -148.1 L-131.75 -159.25 -131.3 -164.7 -131.05 -170.25 Q-130.6 -171.75 -130.95 -175.75 -131.2 -178.25 -130.9 -179.75 L-131.1 -179.75 -131.15 -181.25 -130.75 -183.9 -130.35 -186.75 -130.1 -192.0 -129.9 -199.25 -129.9 -218.15 Q-129.6 -223.7 -130.6 -227.15 L-131.0 -227.0 -132.0 -227.0 Q-132.65 -228.35 -133.1 -233.2 L-132.8 -234.95 -132.5 -236.75 Q-132.5 -239.2 -134.35 -241.6 -136.7 -242.6 -145.75 -245.1 -155.0 -247.65 -155.0 -250.9 -155.0 -254.4 -154.15 -255.3 -153.3 -256.2 -145.85 -260.5 -147.25 -260.8 -147.5 -261.6 -149.1 -262.2 -158.5 -261.85 L-159.85 -261.9 -159.95 -261.85 -160.05 -262.3 Q-160.05 -262.9 -157.75 -264.2 -155.5 -265.4 -154.4 -265.5 L-146.1 -266.7 -141.15 -267.9 Q-137.0 -269.0 -132.5 -270.5 -130.0 -271.35 -125.35 -270.6 -122.25 -270.15 -120.65 -269.5 L-117.75 -269.05 -110.0 -268.3 -103.5 -268.25 Q-101.45 -267.4 -97.45 -264.7 -93.95 -262.3 -90.85 -261.4 L-81.8 -258.25 Q-77.9 -256.55 -77.9 -253.85 -77.9 -251.95 -79.15 -250.1 -80.55 -248.1 -83.0 -247.1 -86.25 -245.75 -92.05 -244.1 L-98.35 -242.25 -98.95 -241.7 Q-99.4 -241.2 -99.4 -240.5 L-99.4 -238.3 -99.5 -234.0 -99.5 -233.5 Q-99.35 -231.0 -99.35 -226.85 L-99.4 -211.0 Q-99.6 -207.05 -100.0 -204.85 L-100.75 -201.8 Q-100.95 -200.85 -101.65 -200.15 L-102.75 -199.1 -103.15 -199.1 -103.55 -199.25 -103.8 -198.5 -103.75 -198.5 -103.55 -198.1 Q-104.05 -195.2 -104.15 -191.3 L-104.1 -186.6 -104.05 -184.85 -104.35 -179.45 Q-104.7 -174.5 -105.25 -173.05 L-105.45 -173.05 -105.5 -171.55 -105.75 -166.0 -105.75 -151.65 Q-105.9 -149.0 -106.4 -145.0 L-106.4 -134.75 Q-106.25 -134.25 -106.25 -133.25 -106.25 -130.35 -106.75 -128.9 -107.6 -126.55 -108.0 -123.9 -108.75 -118.9 -108.75 -114.8 -108.75 -112.9 -108.4 -111.1 L-108.4 -108.35 Q-108.0 -108.45 -107.75 -108.15 -106.6 -106.8 -106.65 -104.7 L-106.85 -101.1 -107.05 -94.05 -106.15 -88.3 Q-102.65 -88.8 -100.6 -89.45 L-99.65 -89.45 -99.4 -89.5 -99.4 -89.55 Q-97.85 -90.3 -96.8 -90.8 L-96.05 -92.1 Q-95.1 -93.8 -91.85 -94.2 L-88.05 -94.35 -87.75 -94.45 -86.0 -95.15 -85.35 -95.8 -85.55 -95.9 -85.4 -96.1 -84.5 -95.8 -84.4 -95.9 Q-82.1 -97.6 -81.75 -98.05 -81.0 -98.9 -80.45 -100.1 -79.8 -101.45 -79.9 -102.25 L-79.3 -106.4 Q-78.65 -109.3 -78.55 -110.65 -78.1 -113.3 -77.55 -118.95 L-76.55 -127.3 Q-76.1 -130.3 -75.75 -135.75 L-75.05 -144.25 Q-74.8 -146.1 -74.6 -152.65 L-74.15 -158.15 -74.25 -159.8 Q-74.25 -161.65 -73.5 -163.5 -72.8 -165.35 -71.65 -166.0 -70.45 -167.85 -67.7 -170.55 L-62.0 -176.3 Q-59.1 -179.9 -56.2 -182.0 -51.45 -185.45 -45.2 -186.35 L-43.6 -186.9 -40.25 -187.9 -31.25 -190.25 Q-28.75 -190.8 -23.5 -192.6 -18.7 -194.2 -15.25 -194.8 -10.25 -195.15 -3.4 -193.0 6.35 -189.95 7.25 -189.8 L15.15 -187.5 15.2 -187.75 15.85 -190.0 16.25 -192.0 16.5 -194.15 Q16.35 -195.35 17.15 -198.3 17.9 -201.25 17.75 -202.5 L17.9 -206.65 18.05 -210.8 18.55 -219.1 18.8 -219.1 19.35 -217.2 19.35 -217.35 19.55 -217.35 19.6 -215.9 19.75 -215.85 Q20.8 -217.7 20.9 -221.0 L21.1 -226.5 21.35 -230.0 21.2 -233.45 21.15 -233.7 21.1 -235.4 21.1 -235.6 21.1 -235.8 21.15 -235.8 21.65 -241.8 21.2 -243.95 Q20.85 -244.7 20.8 -245.9 L20.7 -245.85 20.75 -246.5 20.75 -246.65 20.25 -251.55 Q20.25 -253.45 21.35 -259.55 L21.85 -262.25 22.0 -269.5 22.0 -269.55 21.95 -270.3 21.55 -271.65 21.15 -272.85 21.0 -272.9 Q20.65 -272.9 20.6 -274.2 L20.5 -276.5 Q20.25 -277.8 20.25 -279.8 20.25 -283.85 22.9 -286.25 24.7 -287.85 29.5 -289.05 33.85 -290.15 34.3 -291.0 L33.75 -291.35 Q34.05 -292.05 35.1 -292.6 L36.65 -293.5 37.15 -293.85 Q37.55 -294.2 37.5 -294.65 L37.45 -294.95 35.6 -296.8 Q35.0 -297.4 35.0 -298.55 35.0 -301.25 40.9 -303.0 48.15 -305.1 66.25 -306.5 L66.25 -306.55 71.65 -306.35 77.6 -306.15 83.75 -306.0 84.0 -305.85 Q89.0 -305.25 91.35 -304.45 L94.65 -303.0 Q95.95 -302.45 95.95 -301.0 L96.05 -299.0 Q96.75 -298.0 99.7 -297.0 L103.5 -295.9 Q105.1 -295.25 106.05 -294.25 107.05 -293.3 107.05 -292.35 L106.4 -291.05 105.5 -289.75 105.05 -289.65 104.95 -289.7 104.3 -289.35 Q102.6 -288.45 97.05 -286.75 98.45 -285.35 98.85 -283.1 L99.15 -279.5 99.8 -275.95 100.25 -272.65 101.3 -265.75 Q102.0 -260.35 102.65 -257.75 L104.3 -249.75 105.6 -241.85 Q107.7 -231.05 109.35 -225.75 L111.35 -217.9 113.25 -212.85 113.25 -212.5 113.55 -211.9 Q114.45 -212.75 115.0 -212.9 L115.0 -212.3 114.9 -211.55 114.9 -210.9 115.5 -210.8 115.85 -210.55 115.9 -210.35 116.8 -210.65 Q117.35 -210.55 117.4 -210.25 L116.65 -209.65 122.25 -209.6 127.25 -209.0 127.35 -209.0 133.25 -209.9 133.25 -210.1 137.7 -209.8 144.65 -209.5 145.9 -209.55 Q149.05 -209.55 150.15 -208.7 156.9 -207.6 159.5 -206.45 161.5 -205.55 162.7 -203.85 164.25 -203.5 165.1 -201.9 M71.3 -282.5 Q63.2 -282.4 57.7 -281.2 52.35 -280.05 48.6 -277.75 46.4 -274.95 45.8 -270.65 45.4 -265.4 44.75 -263.0 L44.75 -253.6 44.6 -249.0 44.3 -244.35 44.3 -242.05 44.0 -239.65 43.65 -239.35 43.3 -239.05 43.3 -238.5 43.1 -237.5 Q42.75 -235.95 42.3 -235.95 L41.1 -236.25 Q39.55 -236.25 39.15 -230.3 39.0 -228.4 39.0 -222.25 L38.75 -213.65 38.5 -208.1 Q38.5 -206.4 39.3 -203.6 L40.25 -199.75 40.4 -199.65 40.5 -199.4 41.15 -201.1 Q41.25 -201.9 42.1 -202.55 L42.35 -205.9 42.5 -207.05 Q42.7 -208.0 43.0 -208.35 44.05 -207.65 44.05 -206.9 L43.8 -206.1 43.55 -205.25 Q43.55 -204.85 44.05 -203.75 L44.5 -202.05 44.5 -198.85 44.15 -192.0 43.75 -186.0 44.15 -183.65 44.4 -181.3 Q43.75 -172.75 43.75 -170.1 L43.75 -158.75 43.4 -158.55 43.85 -154.9 44.6 -150.85 45.0 -146.8 Q45.0 -144.05 45.5 -138.75 46.25 -131.8 48.35 -122.65 L50.0 -114.7 Q50.6 -112.0 51.4 -109.85 L53.0 -109.3 54.3 -108.65 54.95 -108.55 58.7 -107.9 59.05 -107.9 59.8 -107.95 63.55 -108.0 63.7 -108.0 64.1 -108.05 66.55 -108.55 66.85 -108.6 67.1 -108.6 67.4 -108.6 72.4 -109.9 76.8 -111.15 77.5 -111.4 Q82.05 -110.8 83.85 -109.55 L84.35 -108.95 86.15 -106.4 86.2 -106.3 86.45 -105.95 87.1 -104.65 87.25 -104.55 87.8 -104.2 Q89.25 -103.25 91.45 -102.55 L91.45 -106.0 91.85 -108.55 92.25 -111.95 Q92.25 -115.35 92.55 -117.1 L92.65 -121.45 92.6 -124.8 92.5 -125.1 Q92.15 -126.4 92.15 -127.6 L92.35 -129.1 92.65 -130.75 92.95 -130.9 93.65 -131.15 93.8 -128.2 93.75 -125.9 Q93.75 -124.55 94.05 -124.5 94.55 -124.4 95.05 -123.0 98.75 -128.5 99.05 -138.0 L100.1 -145.25 100.6 -153.1 100.2 -157.55 99.8 -163.95 Q99.8 -170.3 97.55 -174.7 L97.25 -173.5 Q96.5 -173.7 96.3 -174.55 L96.25 -175.9 96.4 -177.8 Q96.25 -180.5 96.25 -185.3 L96.2 -191.5 Q96.4 -195.3 97.75 -197.35 98.6 -198.65 105.05 -200.05 L104.45 -201.35 Q103.8 -202.6 103.8 -203.05 L103.5 -206.0 Q102.6 -208.45 102.6 -209.05 L102.1 -212.0 Q101.35 -217.0 99.65 -223.85 L97.05 -235.8 94.55 -247.75 95.0 -247.75 Q94.9 -247.2 95.55 -246.0 96.3 -244.7 96.25 -244.1 L96.5 -244.35 97.05 -243.8 97.3 -243.8 97.35 -244.4 Q97.35 -246.25 95.35 -254.3 93.4 -262.3 92.25 -265.05 91.8 -264.1 92.25 -262.85 L92.0 -262.65 Q91.55 -263.0 91.35 -263.8 90.7 -264.8 90.7 -266.25 L90.5 -268.65 88.85 -273.5 Q88.3 -274.95 87.5 -278.2 86.8 -280.2 85.75 -281.7 L85.65 -281.6 85.5 -281.75 Q85.05 -282.0 84.45 -282.55 L83.05 -283.3 78.35 -283.0 71.3 -282.5 M19.6 -222.05 L19.85 -221.75 20.0 -221.15 Q20.0 -220.65 19.5 -220.15 18.6 -220.45 18.35 -220.75 L18.25 -221.25 18.3 -221.8 19.0 -222.15 19.6 -222.05 M44.0 -219.75 L44.3 -218.9 44.15 -218.25 43.8 -218.1 43.0 -218.15 Q42.6 -218.85 42.6 -219.75 42.6 -220.1 42.75 -220.05 L42.85 -220.0 43.5 -219.9 44.0 -219.75 M44.3 -213.75 L44.3 -212.05 43.8 -211.75 43.0 -211.85 42.95 -212.9 Q42.9 -213.75 42.35 -213.75 42.0 -213.75 42.0 -213.85 L42.1 -214.45 42.15 -215.2 42.9 -215.25 43.5 -215.1 44.3 -213.75 M92.05 -255.9 Q92.05 -256.55 92.6 -256.55 L92.9 -255.65 92.5 -255.25 92.15 -255.35 Q92.05 -255.45 92.05 -255.9 M92.75 -251.65 Q92.75 -252.3 93.05 -253.0 L93.25 -253.0 94.35 -249.4 93.9 -249.1 93.2 -250.25 Q92.75 -251.15 92.75 -251.65 M111.5 -215.35 Q110.85 -216.65 110.5 -218.25 L110.2 -219.6 110.0 -220.0 110.0 -219.9 110.65 -215.95 Q111.15 -213.95 112.2 -212.9 L111.5 -215.35 M151.3 -191.15 Q147.45 -189.6 144.95 -189.6 L141.35 -189.7 138.3 -190.0 132.95 -190.85 129.25 -191.6 Q119.5 -191.6 116.75 -189.4 115.95 -188.8 115.3 -187.55 L114.55 -186.35 Q113.6 -182.9 113.4 -178.55 L113.45 -168.9 113.45 -168.3 113.55 -166.55 113.3 -163.2 113.15 -160.65 113.1 -160.6 112.9 -158.3 Q112.4 -153.1 113.25 -150.15 L113.25 -124.5 Q112.45 -123.65 112.55 -123.4 112.8 -123.0 111.75 -121.1 L110.95 -119.55 110.55 -117.9 Q109.75 -112.65 109.75 -110.75 109.75 -109.1 110.6 -103.0 L111.4 -96.4 111.65 -94.9 111.55 -93.4 125.55 -88.7 127.25 -88.15 Q132.65 -86.85 140.15 -86.85 L141.2 -86.85 147.7 -88.35 150.0 -88.95 150.85 -89.15 150.75 -89.25 151.55 -90.0 152.6 -90.1 152.8 -89.6 153.3 -89.75 168.05 -93.85 168.2 -114.6 Q168.2 -118.55 168.75 -125.9 L169.5 -137.9 170.2 -137.6 Q172.95 -148.1 172.95 -156.5 L172.7 -164.1 Q172.15 -168.9 170.0 -170.3 169.5 -173.95 169.8 -181.5 169.6 -187.05 167.1 -190.8 L165.6 -191.35 161.75 -192.4 Q155.0 -192.6 151.3 -191.15 M40.85 -158.9 Q40.55 -162.55 39.35 -165.2 L39.35 -165.15 39.25 -165.05 Q38.25 -166.0 36.95 -168.75 35.25 -171.05 31.25 -171.8 26.7 -171.25 21.45 -166.5 15.75 -161.4 15.75 -159.05 15.75 -157.85 17.0 -156.6 18.35 -155.25 19.75 -155.25 20.45 -155.25 20.95 -153.65 L21.5 -151.5 22.25 -147.75 22.75 -140.3 22.8 -139.25 22.65 -138.3 22.1 -137.75 22.0 -136.75 21.75 -133.3 21.7 -129.55 Q21.8 -128.0 22.2 -127.1 L22.3 -127.7 Q22.45 -128.3 22.85 -128.4 L23.0 -124.3 22.35 -115.55 Q22.35 -108.2 23.65 -99.45 L24.9 -91.0 24.85 -90.05 25.1 -89.85 Q30.45 -90.15 34.1 -94.6 L38.0 -94.85 38.1 -94.8 40.0 -95.25 41.8 -95.6 42.15 -95.8 43.8 -96.65 43.9 -96.85 45.0 -98.65 Q45.5 -100.4 45.5 -102.25 L45.9 -109.05 44.65 -123.4 43.8 -130.5 42.9 -137.65 41.8 -144.75 Q41.0 -149.4 41.0 -151.9 L40.85 -158.9 M28.85 -93.5 L29.1 -93.15 29.0 -92.75 28.25 -92.65 28.1 -93.05 28.15 -93.5 28.85 -93.5 M148.0 -91.1 Q146.75 -91.1 146.75 -93.25 L149.1 -93.35 149.35 -92.35 149.05 -91.45 Q148.8 -91.1 148.0 -91.1 M-101.8 -232.6 L-101.55 -234.0 Q-101.55 -235.4 -102.1 -237.5 -103.2 -237.2 -103.5 -235.7 L-103.55 -233.55 -103.55 -232.45 Q-103.4 -231.35 -102.6 -231.35 -102.15 -231.35 -101.8 -232.6 M85.8 -43.1 L85.75 -43.15 85.7 -43.05 85.8 -43.1 M-39.3 -155.75 Q-41.2 -154.9 -42.35 -153.5 L-43.5 -151.55 Q-43.5 -151.0 -43.85 -149.75 L-44.25 -148.0 Q-44.25 -145.6 -44.65 -144.4 -45.1 -143.15 -45.1 -140.9 -45.05 -138.5 -45.15 -137.5 L-45.6 -131.05 -45.9 -123.5 -45.45 -116.7 -45.05 -109.9 Q-45.05 -107.2 -46.2 -98.5 -47.4 -89.8 -47.4 -86.4 L-47.15 -83.85 -47.0 -83.6 Q-43.95 -84.85 -42.35 -82.4 L-41.25 -80.15 -40.2 -79.7 -33.95 -77.6 -31.3 -77.85 -29.45 -78.15 -28.4 -79.0 Q-26.45 -80.25 -23.5 -80.1 L-20.95 -78.25 -20.55 -77.95 -17.55 -78.4 -13.15 -78.9 -12.5 -78.9 -10.8 -79.1 -11.0 -82.3 Q-11.0 -88.65 -9.95 -101.5 -8.9 -114.35 -8.9 -117.85 L-8.95 -123.5 Q-9.05 -129.25 -9.5 -132.25 -9.7 -133.85 -10.65 -135.7 L-12.5 -139.05 Q-13.3 -140.7 -13.45 -142.75 L-13.5 -146.15 Q-13.5 -148.4 -13.65 -148.8 -13.9 -149.4 -14.85 -150.35 L-15.0 -150.3 -16.5 -150.9 -17.05 -151.2 -17.25 -151.0 -19.3 -151.6 -25.0 -152.5 -27.25 -153.1 -29.25 -153.75 -33.0 -155.0 -36.75 -155.5 -39.3 -155.75 M-73.55 -156.9 L-73.25 -154.3 -73.25 -154.25 -72.65 -160.05 Q-72.3 -163.65 -70.55 -166.0 -71.55 -165.95 -72.7 -163.4 L-73.6 -160.7 -73.5 -160.15 -73.55 -156.9 M-53.65 -158.55 L-53.7 -159.1 -53.5 -159.9 -54.5 -160.55 Q-55.7 -161.15 -57.15 -161.15 L-60.95 -160.7 Q-66.25 -157.3 -67.65 -146.3 -68.15 -142.5 -68.15 -129.15 -68.15 -125.05 -68.65 -118.25 L-68.7 -117.65 -68.75 -117.05 -68.95 -111.4 -69.0 -106.95 -68.55 -101.55 -68.05 -96.3 Q-67.95 -94.15 -66.75 -91.5 L-64.35 -90.45 -63.8 -90.75 Q-62.9 -91.05 -62.3 -90.75 L-62.15 -90.45 -61.0 -90.35 -59.8 -88.45 -58.6 -87.9 -58.4 -87.75 Q-57.7 -91.2 -57.6 -95.75 L-57.55 -104.3 -57.2 -108.55 Q-56.8 -111.6 -56.75 -112.75 -56.55 -115.2 -55.75 -117.05 L-55.5 -117.75 -55.5 -136.55 -55.65 -140.55 -55.65 -140.6 -55.75 -141.5 -56.0 -145.9 -55.8 -151.3 -55.9 -152.0 Q-55.9 -153.7 -54.85 -156.15 L-53.65 -158.55 M-53.8 -148.05 Q-53.95 -149.9 -54.55 -150.25 L-54.9 -147.0 -55.25 -143.65 -55.0 -140.15 -54.75 -139.9 Q-54.0 -140.7 -53.8 -142.45 L-53.75 -145.1 -53.8 -148.05 M-132.85 -144.8 L-132.9 -143.65 -133.05 -143.55 -133.6 -143.5 -134.25 -143.55 -134.3 -144.8 -134.25 -145.95 Q-134.0 -146.55 -133.0 -146.4 L-132.85 -144.8 M-133.95 -136.95 L-133.85 -138.0 -133.9 -138.05 -133.95 -136.95 M-82.65 -99.35 L-82.3 -99.45 -82.7 -99.2 -82.65 -99.35 M-98.3 -97.1 L-98.3 -96.0 -99.4 -95.35 -100.8 -95.5 -100.9 -95.3 -101.05 -96.05 Q-101.05 -96.75 -99.95 -97.2 L-98.65 -97.5 -98.3 -97.1 M-19.7 -83.85 Q-20.1 -83.5 -20.5 -83.5 L-21.25 -83.9 -21.25 -84.35 Q-21.25 -85.35 -20.25 -85.4 -19.25 -85.45 -19.25 -84.65 -19.25 -84.2 -19.7 -83.85" fill="#9afaf0" fill-opacity="0.8" fill-rule="evenodd" stroke="none"/>
    <path d="M47.25 -281.6 L48.05 -281.6 Q48.4 -281.55 48.4 -280.75 48.4 -279.8 46.5 -278.6 44.7 -277.5 43.8 -277.5 43.25 -277.5 43.0 -278.0 L42.35 -279.1 Q40.8 -280.75 34.3 -280.75 34.0 -281.1 34.0 -281.5 L31.4 -282.25 Q30.6 -282.4 29.5 -283.0 L27.4 -281.6 Q26.75 -281.65 26.35 -282.05 L25.35 -282.35 Q24.75 -282.35 24.6 -281.85 24.45 -281.35 23.8 -281.35 22.7 -281.35 22.2 -282.2 21.9 -282.75 21.9 -283.25 21.9 -284.1 22.55 -284.8 23.35 -285.65 24.55 -285.25 L27.45 -284.15 29.5 -284.35 Q33.25 -283.6 35.35 -282.25 L37.1 -282.7 38.5 -283.05 43.1 -281.55 Q46.3 -280.45 47.25 -281.6 M87.7 -280.5 Q87.05 -281.6 87.05 -282.25 L88.4 -282.35 90.25 -282.25 92.55 -283.2 Q94.85 -284.1 95.6 -284.15 97.4 -284.3 97.4 -283.25 L97.0 -281.75 95.1 -281.9 Q94.6 -282.0 93.0 -281.25 89.25 -279.3 89.05 -279.3 88.45 -279.3 87.7 -280.5 M112.95 -186.6 L111.3 -186.3 109.7 -186.45 Q108.45 -187.05 109.0 -189.2 106.7 -189.65 105.2 -190.45 104.05 -191.05 102.45 -191.3 L102.2 -191.0 Q101.45 -191.25 100.05 -192.0 L98.75 -192.8 97.4 -192.8 97.2 -194.0 Q97.2 -194.45 97.65 -195.2 98.35 -196.35 99.6 -196.8 L99.8 -195.9 99.5 -195.5 Q100.85 -194.15 102.2 -192.2 L102.6 -193.0 107.25 -192.15 109.8 -192.2 Q110.2 -192.2 113.5 -188.1 L113.5 -187.1 112.95 -186.6 M39.05 -174.55 L39.95 -173.35 40.5 -172.4 40.25 -172.05 Q38.55 -173.35 38.55 -173.75 38.55 -175.0 38.75 -174.55 L39.05 -174.55 M1.0 -170.65 L0.5 -171.0 Q0.65 -171.8 0.95 -171.95 1.3 -172.15 1.75 -171.25 L1.0 -170.65 M1.25 -169.0 L1.4 -168.9 1.5 -168.5 0.25 -166.55 -2.0 -166.15 -2.4 -166.15 -2.5 -166.5 Q-2.5 -166.95 -1.8 -167.15 L-0.05 -167.5 0.0 -168.9 1.25 -169.0 M3.5 -149.05 L3.8 -149.7 4.05 -150.4 Q4.6 -150.4 5.25 -149.3 L6.15 -150.25 Q6.65 -150.75 7.5 -151.05 L9.05 -151.15 10.55 -150.8 11.5 -152.0 Q12.55 -152.9 14.25 -153.05 L13.65 -153.8 13.25 -154.9 16.75 -154.4 Q18.6 -154.15 19.0 -151.4 L18.75 -150.95 17.75 -150.8 16.75 -150.05 Q15.7 -149.3 15.5 -149.3 15.1 -149.3 14.4 -149.85 L13.55 -150.65 Q13.3 -150.1 11.5 -148.65 11.05 -149.05 9.8 -149.05 6.5 -149.05 5.95 -147.95 5.5 -147.05 2.75 -147.3 2.55 -147.05 2.55 -145.15 L2.75 -144.95 2.0 -144.8 Q1.4 -144.8 0.9 -145.35 0.4 -145.9 -0.25 -145.9 -3.25 -145.9 -4.7 -144.75 -5.9 -143.85 -9.35 -144.4 L-9.35 -144.3 -9.75 -143.9 -10.75 -143.8 -11.85 -143.9 -12.05 -144.25 -12.1 -145.25 Q-12.1 -147.75 -10.7 -146.9 -9.9 -146.4 -9.55 -145.6 -9.4 -147.1 -7.35 -147.45 L-3.5 -147.55 Q-0.8 -147.7 0.55 -148.7 L2.0 -150.05 2.85 -149.55 Q3.3 -149.1 3.5 -149.05 M39.8 -168.3 L39.5 -168.05 Q38.85 -168.25 38.15 -169.25 37.5 -170.2 37.5 -170.9 37.5 -171.65 37.75 -172.15 L38.05 -172.8 Q38.75 -172.8 39.65 -172.2 40.5 -171.6 40.5 -171.1 L40.15 -169.5 39.8 -168.3 M75.15 -102.9 L74.75 -102.75 Q74.35 -102.75 74.35 -103.4 74.35 -104.75 75.95 -104.2 75.65 -103.3 75.15 -102.9 M74.85 -98.15 L75.35 -98.15 76.05 -96.35 75.55 -95.85 74.9 -96.25 Q74.65 -96.55 74.65 -97.25 74.65 -98.25 74.85 -98.15 M50.0 -82.15 L49.9 -81.45 49.65 -81.6 49.2 -81.4 Q48.75 -81.3 48.75 -82.1 48.75 -82.9 49.1 -83.05 L49.75 -83.1 49.95 -82.95 50.0 -82.15 M43.8 -71.65 L43.9 -71.1 43.35 -70.45 42.5 -69.75 42.4 -69.6 Q42.25 -69.6 42.25 -70.4 42.25 -71.65 43.8 -71.65 M2.15 -60.0 L2.4 -60.35 4.9 -60.35 6.65 -60.0 4.9 -59.35 3.15 -59.5 2.15 -60.0 M28.25 -63.25 L27.0 -63.5 34.5 -66.4 Q39.5 -68.3 40.3 -68.25 L40.5 -68.0 36.05 -65.6 Q32.2 -63.65 28.25 -63.25 M108.15 -83.1 Q107.6 -83.15 107.35 -83.35 L106.95 -83.8 Q106.95 -84.35 107.95 -84.2 L108.45 -83.6 108.15 -83.1 M84.0 -90.2 L84.4 -89.0 Q83.5 -89.0 82.7 -89.8 L83.1 -90.3 84.0 -90.2 M100.6 -83.6 L100.1 -83.7 Q99.55 -83.8 99.5 -84.0 L100.6 -84.2 Q101.1 -84.0 101.2 -83.8 L100.6 -83.6 M174.0 -193.0 L174.0 -188.2 173.4 -187.9 169.8 -187.9 Q169.6 -188.15 169.45 -188.05 L169.4 -189.3 Q169.4 -190.2 170.9 -191.3 L173.6 -193.6 174.0 -193.0 M-130.25 -238.3 L-128.6 -238.45 -126.35 -238.25 Q-125.9 -238.05 -125.6 -237.5 L-128.05 -235.6 Q-129.2 -234.85 -130.0 -234.85 L-130.25 -236.35 -130.5 -238.2 -130.25 -238.3 M-124.4 -238.25 L-124.2 -238.45 -105.9 -238.45 Q-104.5 -236.1 -104.5 -235.6 L-104.7 -234.85 -113.15 -234.85 Q-120.1 -236.45 -124.65 -236.75 L-124.65 -238.2 -124.4 -238.25 M-99.35 -237.0 L-100.1 -236.55 -100.5 -236.85 Q-100.9 -237.25 -100.9 -237.7 L-100.7 -239.15 Q-100.2 -239.15 -100.05 -238.95 -99.8 -238.7 -99.75 -237.7 -99.35 -237.7 -99.35 -237.0 M-0.75 -173.65 L-1.0 -173.3 -1.75 -173.25 -1.8 -173.3 -1.9 -173.65 Q-1.9 -174.25 -1.05 -174.25 L-0.75 -173.65 M-24.25 -162.65 Q-24.65 -162.25 -25.25 -162.25 L-25.65 -162.55 Q-25.5 -163.65 -24.4 -163.0 L-24.25 -162.65 -24.25 -162.75 -24.15 -163.25 -23.0 -163.25 -21.75 -163.15 -21.65 -162.6 -21.75 -162.0 -22.5 -161.9 Q-23.3 -161.9 -24.15 -162.3 L-24.2 -162.3 -24.25 -162.65 M-20.8 -162.55 Q-21.1 -162.55 -21.25 -162.75 -21.05 -163.05 -20.5 -162.75 L-20.8 -162.55 M-35.1 -168.1 Q-35.4 -167.5 -36.15 -167.4 L-36.35 -167.5 -36.4 -168.0 Q-36.4 -169.25 -34.9 -168.75 L-35.1 -168.1 M-33.65 -169.4 Q-34.0 -169.05 -35.05 -169.0 L-35.15 -168.95 -35.25 -169.4 Q-35.25 -170.1 -34.25 -171.0 L-33.5 -171.0 -32.75 -170.5 -33.65 -169.4 M-32.3 -164.75 L-32.1 -164.65 -32.05 -164.25 -32.1 -163.75 -32.3 -163.65 -33.25 -163.55 -34.2 -164.05 Q-34.55 -164.3 -34.55 -164.85 L-34.1 -165.55 -33.55 -165.75 Q-33.15 -165.2 -33.5 -164.65 L-33.25 -164.65 -32.9 -164.8 -32.3 -164.75 M-31.5 -164.15 Q-31.1 -164.0 -31.0 -163.65 -31.15 -163.2 -31.5 -163.05 L-31.9 -163.05 -32.05 -163.4 -31.85 -164.0 -31.5 -164.15 M-9.25 -163.8 L-7.65 -163.55 -7.55 -163.4 -9.0 -162.8 -9.75 -163.5 -9.25 -163.8 M-14.0 -163.5 Q-14.0 -164.1 -13.05 -164.2 L-10.65 -163.75 -10.5 -163.4 Q-10.8 -163.1 -12.0 -162.75 L-13.25 -162.5 -13.65 -162.5 -13.9 -162.65 -14.0 -163.5 M-14.65 -162.65 L-14.8 -163.25 Q-14.3 -163.25 -14.05 -162.9 L-14.65 -162.65 M-68.35 -165.3 L-69.05 -164.15 -68.6 -164.15 Q-68.6 -164.95 -67.5 -164.8 L-65.25 -164.4 Q-65.0 -163.95 -65.15 -163.1 L-65.5 -161.8 -64.6 -161.75 -64.0 -162.15 -63.65 -162.25 Q-63.35 -162.2 -63.35 -161.4 -63.35 -161.05 -64.35 -159.9 L-65.5 -158.8 Q-66.75 -158.8 -67.75 -160.8 L-68.75 -158.9 -69.35 -158.9 -70.0 -161.2 -70.0 -160.8 -70.15 -160.65 -70.5 -160.4 -71.3 -160.55 Q-71.5 -160.7 -71.5 -161.5 -71.5 -162.95 -70.75 -164.1 -69.85 -165.5 -68.35 -165.3 M-51.95 -152.2 Q-52.5 -153.35 -54.0 -153.9 L-53.45 -155.05 -52.5 -156.3 -52.2 -155.9 -51.75 -155.3 Q-51.55 -155.25 -51.05 -155.55 L-49.75 -155.9 Q-49.3 -155.9 -48.2 -154.2 -47.35 -152.85 -44.85 -154.05 L-44.75 -153.5 -45.15 -151.6 -45.35 -149.9 -45.55 -149.7 Q-45.8 -149.5 -46.35 -149.4 -47.3 -151.05 -48.9 -151.2 L-51.35 -150.8 -51.95 -152.2 M-99.65 -81.95 Q-99.95 -82.0 -99.95 -83.45 -99.95 -85.0 -98.9 -85.2 L-97.0 -85.0 Q-97.0 -84.4 -97.3 -83.55 -97.7 -82.65 -98.2 -82.15 L-99.65 -81.95 M-105.45 -80.35 Q-105.6 -79.9 -109.1 -79.25 L-113.15 -78.7 Q-112.7 -79.95 -111.7 -80.75 L-106.85 -80.85 Q-105.8 -80.85 -105.45 -80.35 M-136.3 -80.8 L-135.6 -80.8 -133.55 -80.95 -131.7 -80.15 Q-129.9 -79.05 -123.7 -78.7 L-122.3 -78.7 Q-120.15 -78.25 -119.9 -77.75 L-123.05 -77.6 Q-125.8 -77.75 -125.95 -78.25 L-125.6 -78.4 -125.25 -78.6 -132.7 -79.05 Q-133.15 -79.3 -133.8 -79.9 -134.6 -80.45 -136.3 -80.75 L-136.3 -80.8 M-140.8 -79.75 Q-141.8 -79.75 -143.0 -80.7 L-144.25 -82.0 Q-146.9 -82.3 -148.25 -83.8 L-149.4 -83.95 Q-150.6 -84.2 -150.65 -84.4 L-150.3 -84.65 -147.3 -84.5 Q-147.1 -83.95 -144.25 -82.2 -141.9 -80.75 -140.0 -79.8 L-139.95 -79.75 -140.8 -79.75 M-154.85 -87.4 L-157.55 -87.4 Q-157.55 -88.9 -155.8 -88.9 -155.05 -88.1 -154.85 -87.4 M-154.55 -85.25 L-154.6 -85.5 -153.5 -86.4 -151.5 -85.7 -151.3 -85.2 -152.7 -85.0 -154.55 -85.25 M-24.8 -68.75 Q-25.75 -68.8 -25.75 -69.55 -25.4 -69.95 -24.5 -69.05 L-24.55 -68.9 -24.8 -68.75 M-13.9 -62.5 L-12.45 -61.8 -11.15 -61.0 -11.45 -60.95 -12.65 -61.0 -13.65 -61.35 -14.25 -62.1 -13.9 -62.35 -13.9 -62.5 M-4.75 -60.5 L-0.25 -60.0 Q-0.5 -59.85 -5.25 -60.0 L-5.35 -60.15 -6.25 -60.5 -6.0 -60.85 Q-4.8 -60.75 -4.75 -60.5 M-46.75 -79.6 L-48.0 -79.0 -54.9 -79.75 -55.7 -80.2 Q-56.4 -80.5 -56.4 -80.75 L-50.75 -80.4 -45.5 -80.85 -45.25 -80.5 -46.75 -79.6 M-63.4 -87.05 L-63.85 -85.65 Q-63.85 -85.15 -62.85 -84.2 L-61.35 -82.6 -61.45 -82.4 Q-61.65 -82.25 -61.85 -82.25 L-62.85 -82.6 -63.75 -83.85 -64.5 -85.05 Q-64.5 -87.85 -63.0 -88.05 L-63.4 -87.05" fill="#ffffff" fill-rule="evenodd" stroke="none"/>
  </g>
</svg>
