<?xml version="1.0" encoding="UTF-8" standalone="no"?>
<svg xmlns:ffdec="https://www.free-decompiler.com/flash" xmlns:xlink="http://www.w3.org/1999/xlink" ffdec:objectType="shape" height="275.35px" width="406.4px" xmlns="http://www.w3.org/2000/svg">
  <g transform="matrix(1.0, 0.0, 0.0, 1.0, 215.9, 306.75)">
    <path d="M165.4 -199.4 L165.2 -199.0 169.0 -198.25 173.8 -196.55 Q175.6 -195.6 175.9 -194.4 L176.0 -192.1 176.9 -183.3 176.7 -180.6 176.75 -179.75 176.5 -155.6 Q176.5 -152.4 176.1 -149.65 L175.3 -147.4 Q174.7 -145.9 174.8 -144.45 175.0 -142.1 174.7 -137.5 L174.4 -132.7 174.45 -125.75 Q174.65 -122.75 175.5 -117.9 L175.8 -117.8 176.3 -119.8 176.65 -119.9 Q177.45 -113.35 177.55 -96.75 L185.6 -99.35 185.05 -98.8 185.4 -99.15 185.7 -99.25 186.2 -98.75 Q186.05 -98.0 184.45 -96.95 L185.25 -97.25 185.3 -97.25 186.15 -97.55 185.95 -97.15 185.1 -95.15 Q184.55 -94.4 184.1 -93.35 L183.55 -92.2 Q182.2 -89.4 182.2 -88.65 L182.3 -87.85 Q182.35 -87.35 182.5 -87.3 L182.7 -87.45 183.75 -87.7 186.3 -88.5 187.45 -88.9 190.5 -89.75 186.55 -86.4 182.85 -82.75 182.0 -82.35 179.3 -80.95 176.45 -78.9 174.5 -77.35 174.05 -76.85 174.15 -76.9 172.95 -75.85 172.05 -74.8 171.95 -74.7 171.75 -74.5 171.55 -74.25 171.5 -74.15 171.4 -74.1 170.2 -73.25 170.25 -73.2 170.3 -73.1 170.4 -72.95 169.85 -72.55 168.6 -71.55 168.15 -71.0 163.55 -67.55 161.15 -65.35 160.85 -65.05 158.45 -63.15 154.9 -60.05 153.55 -58.8 153.45 -58.65 Q149.85 -57.8 148.05 -56.85 L135.75 -53.4 130.15 -53.0 124.5 -52.9 121.15 -53.4 120.6 -53.5 117.15 -54.15 115.8 -53.9 115.8 -53.4 115.75 -52.9 115.8 -52.15 Q116.0 -51.55 118.0 -50.85 L114.6 -50.05 111.4 -49.2 110.15 -48.7 109.15 -48.5 109.05 -48.45 108.55 -48.3 108.25 -48.15 105.75 -47.4 105.15 -47.35 105.1 -47.35 104.05 -47.2 103.35 -47.1 103.3 -47.05 Q102.4 -46.0 98.35 -45.35 L98.15 -45.35 97.9 -45.35 97.7 -45.35 97.5 -45.35 94.05 -45.15 91.9 -44.75 86.25 -42.9 85.5 -42.7 Q84.6 -41.5 83.55 -41.35 L78.9 -41.5 77.55 -41.25 77.45 -41.25 77.15 -41.25 76.2 -41.25 75.9 -41.25 76.55 -41.35 63.1 -40.5 Q56.6 -39.0 55.5 -38.05 L44.0 -36.45 43.9 -36.45 43.75 -36.45 42.65 -36.45 36.0 -35.9 32.25 -35.5 29.25 -35.1 Q21.1 -34.1 18.0 -33.2 L7.85 -32.0 5.4 -31.7 2.9 -31.7 Q-1.45 -32.15 -4.9 -31.65 L-20.55 -31.55 -27.5 -31.9 -35.6 -31.6 -36.25 -31.55 -37.35 -31.4 -43.6 -32.0 -43.7 -32.3 Q-63.2 -32.65 -76.9 -34.35 L-85.2 -34.4 -87.0 -34.5 -85.6 -34.05 -88.95 -34.7 -89.7 -34.85 -90.0 -34.95 -95.0 -35.85 -100.7 -37.0 -98.5 -36.8 -99.9 -37.5 -101.3 -38.25 -102.5 -38.9 -105.0 -39.4 -114.15 -41.35 -118.1 -41.5 -120.55 -42.9 Q-123.25 -44.45 -125.55 -45.4 L-126.35 -45.7 -121.7 -45.45 Q-124.3 -47.55 -131.2 -49.45 -136.55 -51.05 -141.75 -51.5 -143.6 -53.0 -148.25 -54.65 L-148.5 -54.75 -149.3 -54.95 -149.45 -55.05 -154.25 -56.55 -157.35 -58.2 -158.4 -58.65 -157.8 -58.6 Q-158.95 -59.25 -161.25 -60.3 L-161.85 -60.6 -161.9 -60.6 -163.6 -61.35 -164.55 -61.7 -164.6 -61.7 -164.65 -61.55 -166.0 -61.95 -172.3 -64.0 -172.4 -64.0 -172.65 -64.1 -175.6 -64.9 -175.9 -64.9 -176.45 -65.05 -177.5 -65.4 -177.95 -65.55 Q-179.4 -66.1 -180.35 -66.7 L-180.75 -67.0 -181.85 -68.1 -182.05 -68.3 -183.1 -69.1 -183.3 -69.6 -182.6 -69.15 -182.4 -69.05 -180.25 -67.75 -180.25 -68.3 Q-181.55 -70.2 -183.15 -71.9 L-183.75 -72.55 Q-186.7 -75.6 -190.5 -78.35 L-191.75 -79.1 Q-192.7 -81.0 -194.9 -83.1 L-195.0 -83.15 Q-195.6 -83.8 -196.35 -84.3 L-196.45 -84.45 -197.4 -85.15 -197.95 -85.55 -205.15 -90.2 Q-202.8 -90.1 -199.7 -88.75 L-199.25 -88.8 -201.95 -91.2 -203.3 -92.5 -204.6 -93.95 -206.35 -95.05 -206.95 -95.45 -209.95 -96.95 -210.15 -97.3 -211.05 -97.85 -211.4 -97.8 -212.6 -99.45 -215.9 -103.9 -212.75 -104.8 -210.35 -105.55 -210.1 -105.65 -209.8 -106.15 -202.5 -106.7 -199.25 -104.2 -198.45 -103.55 -199.15 -104.55 -199.4 -104.95 -199.1 -104.7 Q-195.55 -102.3 -189.85 -98.85 -183.5 -95.05 -178.5 -92.75 L-178.3 -92.7 -177.5 -92.35 -177.3 -92.3 -177.15 -92.2 -176.9 -92.0 -176.0 -91.5 -175.6 -91.3 -175.45 -91.2 -171.9 -89.15 -171.65 -89.0 -170.7 -88.5 -164.8 -88.2 -155.7 -87.45 -152.1 -87.6 -148.0 -88.05 -143.15 -87.65 -142.95 -87.85 -143.15 -87.95 Q-144.35 -88.6 -146.5 -90.6 L-146.35 -90.8 -147.35 -91.75 -147.35 -92.1 Q-146.6 -92.25 -145.75 -91.75 -144.65 -91.2 -143.75 -91.1 L-143.0 -91.1 -142.1 -91.25 Q-142.75 -91.8 -142.75 -92.45 -142.75 -93.35 -142.1 -93.8 L-139.15 -93.1 -138.7 -95.45 Q-138.25 -97.05 -138.25 -97.8 -138.25 -100.55 -139.1 -104.05 L-139.55 -107.1 -139.85 -110.05 Q-139.85 -112.9 -138.25 -124.65 L-137.45 -131.95 -136.65 -139.15 -136.65 -139.25 Q-136.65 -140.9 -136.0 -142.05 L-135.25 -142.05 Q-135.1 -141.85 -135.1 -141.15 -135.1 -139.8 -135.7 -137.5 -136.3 -135.15 -136.3 -133.25 L-136.4 -132.05 -136.3 -130.65 Q-136.15 -130.2 -135.85 -130.25 -135.5 -130.35 -135.35 -129.85 L-135.5 -128.8 -135.25 -128.4 -134.75 -127.75 Q-133.75 -128.3 -133.85 -129.9 -133.95 -131.6 -133.0 -132.35 L-132.4 -137.05 Q-132.25 -140.1 -132.75 -146.45 L-132.7 -148.65 -132.75 -148.65 -133.0 -149.0 -132.75 -151.1 -132.5 -154.0 -132.45 -154.7 -132.5 -155.0 -131.95 -161.0 Q-131.4 -167.25 -131.4 -171.25 L-131.4 -173.2 -131.5 -174.25 -131.4 -175.25 -131.45 -179.1 Q-131.6 -182.8 -132.1 -186.15 L-132.15 -186.15 -132.75 -186.15 -132.8 -186.1 -132.85 -186.3 -132.9 -186.3 -133.05 -187.15 -133.05 -188.0 -133.1 -188.8 -133.25 -191.85 -132.25 -208.25 -131.65 -216.4 Q-131.25 -221.4 -131.25 -224.45 -131.25 -230.0 -132.0 -234.4 -132.9 -239.5 -134.6 -241.45 L-135.95 -242.05 -138.15 -243.0 -141.15 -243.65 -147.5 -244.9 Q-151.8 -245.55 -153.95 -247.65 -155.5 -249.25 -155.5 -251.05 -155.5 -253.45 -152.85 -255.85 -150.9 -257.65 -146.25 -260.3 L-146.35 -260.4 -146.95 -260.7 -150.75 -261.1 -151.0 -261.3 -156.4 -261.65 -156.6 -261.5 -159.25 -261.25 -159.9 -261.3 -160.0 -261.25 -160.15 -261.65 Q-160.15 -262.15 -159.75 -262.45 L-159.3 -262.6 -158.9 -263.8 Q-157.75 -265.05 -154.0 -265.0 L-152.25 -265.2 -150.4 -265.4 Q-143.45 -265.9 -140.3 -266.75 L-134.85 -268.15 -132.05 -268.9 -128.65 -269.55 -123.0 -269.35 -120.15 -268.5 -112.75 -267.9 -108.3 -267.5 -101.9 -267.25 -100.8 -266.6 -100.85 -266.3 Q-99.25 -265.6 -95.55 -263.6 -91.15 -261.25 -87.9 -260.4 L-82.45 -258.85 Q-80.2 -258.0 -79.5 -257.0 L-78.0 -254.55 -77.75 -253.5 -77.55 -252.85 Q-77.55 -250.25 -83.1 -246.75 -84.55 -245.8 -99.5 -242.6 L-99.5 -242.25 -99.55 -242.05 -99.5 -239.75 -99.55 -237.3 Q-99.75 -235.65 -100.5 -234.55 L-101.4 -233.95 -102.0 -233.6 -102.35 -232.35 -102.3 -231.1 -102.1 -229.85 -102.85 -225.15 -102.85 -220.6 -103.25 -211.6 -103.75 -202.35 -103.95 -197.05 -104.0 -193.45 -104.0 -188.25 -103.75 -185.35 -103.5 -183.25 Q-104.05 -177.8 -104.0 -175.05 -104.0 -170.0 -104.75 -167.1 L-104.75 -156.8 -104.85 -152.65 -104.75 -149.75 -105.25 -145.25 -105.15 -142.95 -105.0 -141.15 Q-105.0 -137.85 -105.75 -132.25 L-105.95 -132.25 -106.0 -131.4 -105.5 -126.9 -105.75 -125.45 -106.0 -124.0 Q-106.0 -123.35 -105.5 -122.75 -105.1 -122.95 -104.55 -124.35 L-104.05 -125.8 -104.3 -126.3 -104.55 -126.8 Q-104.55 -127.6 -103.35 -130.7 -102.15 -133.85 -102.15 -134.4 L-102.35 -135.35 -102.6 -136.25 Q-102.6 -136.8 -102.95 -137.15 L-103.35 -137.75 -102.85 -138.5 -101.75 -138.85 -101.4 -135.35 Q-101.4 -134.75 -101.75 -133.95 L-102.15 -132.15 -102.05 -130.7 -102.0 -129.25 -102.5 -123.3 -102.75 -123.25 -102.75 -123.35 -102.9 -121.55 -102.75 -118.5 Q-102.6 -116.2 -102.35 -115.9 L-102.35 -102.9 Q-101.8 -101.15 -101.8 -100.55 L-102.1 -98.1 -100.25 -98.95 -96.8 -100.85 Q-96.0 -100.8 -95.9 -100.6 L-98.8 -97.3 -101.25 -94.15 Q-101.05 -93.25 -101.15 -93.05 L-100.55 -93.0 Q-100.05 -92.5 -100.05 -91.8 L-100.45 -90.55 Q-100.1 -90.15 -100.1 -89.5 L-100.1 -89.45 -99.95 -89.45 -94.35 -91.0 Q-93.05 -91.9 -90.85 -92.95 L-88.05 -94.35 -87.75 -94.45 -86.0 -95.15 -85.35 -95.8 -85.55 -95.9 -85.4 -96.1 -84.65 -95.8 -83.4 -96.85 -83.2 -98.05 -82.65 -98.35 -82.25 -98.3 -82.15 -97.85 -81.0 -99.05 Q-80.35 -99.9 -80.05 -101.0 L-79.5 -103.0 Q-79.0 -104.35 -78.7 -107.0 L-78.15 -111.05 Q-77.45 -114.3 -77.15 -119.0 L-76.75 -124.9 -76.8 -125.7 -76.3 -133.45 -75.55 -141.3 Q-74.95 -144.8 -74.65 -149.1 L-74.25 -156.9 -74.1 -160.8 -73.55 -164.75 Q-73.35 -165.6 -72.0 -166.7 L-69.55 -168.55 -67.7 -170.4 -65.55 -172.3 Q-61.7 -175.1 -58.4 -180.0 -57.25 -181.75 -52.55 -183.9 -49.45 -185.3 -46.8 -186.1 L-42.8 -187.6 -33.0 -189.9 Q-31.95 -190.15 -29.9 -191.1 L-27.5 -192.15 -22.5 -193.4 -15.75 -194.25 Q-9.5 -194.4 -8.0 -194.15 L-4.9 -193.5 Q-3.25 -193.3 -2.4 -192.9 L-0.75 -192.15 5.0 -190.3 Q7.6 -189.7 13.25 -187.75 L15.1 -187.25 15.9 -189.0 Q16.85 -190.8 16.75 -191.55 L17.35 -196.4 Q17.35 -198.4 17.65 -201.25 L18.15 -206.15 Q18.8 -212.1 18.8 -216.0 L18.85 -217.0 18.75 -217.65 18.95 -218.15 19.15 -220.65 19.5 -225.7 19.15 -229.05 18.85 -231.35 18.8 -232.25 18.8 -232.4 19.0 -234.5 19.1 -235.6 19.35 -239.0 19.25 -241.15 19.7 -252.95 20.2 -261.7 20.0 -263.6 Q20.0 -264.4 20.35 -264.8 21.0 -264.35 20.95 -263.2 L20.9 -261.35 Q21.75 -262.35 21.55 -264.3 L21.1 -267.55 21.8 -276.6 21.7 -281.1 Q21.75 -282.05 22.05 -282.7 L22.1 -283.5 Q22.05 -284.85 23.35 -286.2 24.8 -287.65 27.15 -288.3 28.6 -288.7 32.75 -290.25 34.85 -291.0 35.3 -291.85 L35.0 -291.85 34.6 -291.9 34.6 -292.0 34.5 -292.05 34.5 -292.45 Q34.5 -292.95 35.0 -293.3 L35.9 -293.35 36.5 -294.15 36.8 -295.05 Q36.8 -295.95 36.1 -297.2 35.35 -298.45 35.35 -299.15 35.35 -300.0 36.75 -300.9 37.8 -301.6 38.85 -301.7 L43.2 -303.05 Q49.1 -304.55 52.35 -304.75 L59.65 -305.65 72.0 -306.6 72.0 -306.75 84.9 -305.7 87.55 -305.2 Q91.85 -304.85 93.55 -303.15 94.95 -302.4 95.65 -301.1 L96.3 -299.15 Q96.65 -298.05 99.2 -297.15 L103.15 -295.55 Q106.75 -293.2 106.75 -291.8 106.75 -290.9 105.75 -290.0 104.65 -289.0 102.9 -288.6 L99.4 -287.35 96.75 -286.2 Q97.7 -285.6 97.95 -284.6 97.95 -282.7 98.25 -281.9 L98.65 -279.45 98.9 -276.75 Q99.8 -271.25 101.35 -266.8 L101.4 -266.75 101.4 -266.7 101.5 -266.4 101.25 -266.25 101.2 -266.1 101.05 -266.15 100.65 -265.65 100.6 -264.5 Q100.6 -261.35 101.75 -256.15 102.9 -251.2 104.05 -248.65 L104.5 -248.65 Q104.5 -249.75 104.65 -250.25 L104.9 -250.25 107.65 -235.6 108.15 -232.0 Q108.5 -229.7 109.1 -228.25 110.0 -226.1 110.4 -223.35 L110.5 -223.35 112.65 -216.1 114.55 -212.3 Q114.65 -211.3 115.25 -210.65 116.35 -209.5 120.0 -209.5 L124.85 -210.15 126.5 -209.95 130.15 -209.8 130.4 -209.65 130.5 -209.65 130.75 -209.55 131.65 -209.65 145.95 -209.75 Q154.7 -208.75 160.4 -205.95 165.65 -203.35 165.65 -200.75 L165.4 -199.4 M69.6 -283.0 Q59.35 -282.2 53.85 -280.65 L49.65 -279.0 Q48.5 -278.1 47.7 -277.05 L47.75 -277.1 47.55 -276.9 Q46.2 -275.1 45.7 -272.85 L44.8 -266.55 Q44.3 -264.2 44.35 -260.55 L44.4 -254.3 44.4 -252.5 44.1 -252.1 Q43.35 -252.65 43.35 -253.15 L43.35 -253.45 43.25 -253.4 43.15 -254.05 42.85 -254.85 Q40.65 -249.55 40.65 -241.15 40.65 -239.6 41.2 -237.2 L42.1 -232.85 42.25 -232.8 Q42.9 -234.45 43.15 -236.2 L43.1 -236.25 43.0 -236.9 43.25 -237.55 43.25 -237.95 43.1 -242.25 Q43.1 -244.1 43.55 -245.0 44.55 -244.25 44.55 -241.5 L44.1 -239.05 43.85 -238.05 44.05 -237.7 44.25 -237.05 44.15 -236.15 43.75 -235.9 43.95 -234.85 44.3 -232.05 43.65 -225.85 42.85 -220.25 42.95 -217.25 42.75 -214.3 42.55 -213.45 42.5 -213.15 42.0 -211.25 Q41.75 -210.1 41.75 -208.55 41.75 -203.4 42.5 -200.9 L42.5 -198.55 42.2 -198.45 42.25 -195.0 Q42.25 -193.5 42.7 -191.0 L43.15 -187.55 42.85 -184.7 42.15 -181.25 Q42.2 -181.0 41.55 -181.0 41.2 -181.0 41.15 -181.25 L41.0 -181.65 40.4 -179.5 40.25 -179.35 40.2 -179.4 40.95 -175.55 Q41.6 -172.45 42.75 -170.6 L42.75 -170.45 Q43.7 -169.05 43.65 -166.3 43.55 -162.05 44.0 -160.8 L44.15 -161.0 45.1 -160.35 45.15 -159.55 Q45.15 -158.65 44.55 -156.75 L44.45 -156.5 44.4 -155.6 Q44.4 -154.95 43.85 -154.65 L43.8 -154.45 44.05 -151.7 44.9 -142.8 45.75 -138.3 46.35 -133.8 Q46.45 -131.55 47.9 -125.0 L49.65 -116.1 Q50.4 -112.65 51.35 -109.85 L52.85 -109.35 Q52.95 -110.0 53.35 -110.35 53.8 -110.85 54.55 -110.75 L55.2 -108.75 55.3 -108.5 58.7 -107.9 59.05 -107.9 59.8 -107.95 60.6 -107.95 60.75 -108.1 Q63.45 -108.15 67.4 -110.25 L67.7 -110.4 Q68.45 -109.85 68.1 -108.75 L72.4 -109.9 76.8 -111.15 77.5 -111.4 Q82.05 -110.8 83.85 -109.55 L84.35 -108.95 86.15 -106.4 86.2 -106.3 86.45 -105.95 87.2 -104.55 89.05 -102.8 90.8 -101.85 Q90.9 -101.8 91.05 -101.7 L91.2 -102.45 91.55 -103.75 92.2 -103.7 94.65 -115.25 94.45 -119.05 94.25 -124.35 94.4 -126.95 Q94.35 -128.45 93.55 -128.7 92.5 -129.0 92.6 -129.55 92.6 -129.85 92.95 -130.5 L92.85 -131.3 92.65 -132.45 Q92.65 -136.05 93.35 -147.5 L94.25 -160.15 94.85 -160.15 95.05 -158.95 94.95 -157.45 Q95.1 -155.7 95.35 -154.8 L95.45 -154.8 97.3 -170.65 Q98.95 -185.2 98.95 -187.9 L98.6 -189.45 Q98.25 -190.45 98.25 -190.9 L98.15 -191.1 97.15 -187.5 96.45 -187.5 96.25 -189.75 96.65 -191.35 97.15 -193.15 97.15 -196.15 97.55 -197.15 97.55 -197.2 97.6 -197.2 98.25 -197.9 101.05 -198.65 103.95 -199.7 103.65 -200.75 Q103.4 -202.1 103.55 -203.75 103.9 -206.55 103.5 -208.6 L100.65 -218.25 99.0 -223.05 Q98.55 -224.25 97.9 -227.75 L97.1 -232.0 Q96.4 -236.15 96.4 -237.3 L96.5 -237.9 96.8 -237.7 97.05 -237.3 97.2 -237.35 97.3 -237.8 Q97.3 -238.45 95.5 -244.1 95.1 -244.5 95.05 -245.05 L95.15 -246.75 93.1 -255.75 92.15 -260.2 91.15 -264.8 88.55 -275.15 Q86.95 -280.05 85.1 -282.1 L79.65 -283.85 69.6 -283.0 M44.05 -249.3 Q44.5 -248.9 44.5 -247.75 L44.05 -247.4 Q43.4 -248.05 43.4 -248.45 L43.75 -248.9 44.05 -249.3 M88.9 -276.75 L90.55 -272.3 90.9 -272.6 91.0 -274.8 90.55 -276.65 Q89.95 -277.95 88.9 -277.8 L88.9 -276.75 M153.35 -191.3 L145.95 -190.1 141.65 -190.15 137.2 -190.4 135.1 -190.5 132.85 -190.8 130.35 -191.5 Q128.3 -192.15 128.05 -192.4 122.35 -191.75 119.8 -190.6 119.4 -190.45 115.75 -188.1 L115.65 -188.1 115.3 -185.55 114.7 -181.4 Q114.4 -176.7 114.4 -174.25 L114.4 -167.35 114.0 -160.25 113.4 -156.65 Q112.95 -154.35 112.85 -153.1 112.8 -152.3 112.0 -151.3 L110.65 -149.5 110.5 -149.05 109.8 -142.1 Q109.05 -135.35 109.05 -133.4 L109.15 -128.9 108.9 -126.15 108.95 -124.75 108.75 -121.15 Q108.75 -119.0 110.35 -117.6 110.95 -119.1 111.35 -122.65 L111.95 -122.75 112.75 -97.1 112.75 -95.85 112.95 -94.95 112.75 -94.15 112.75 -93.0 128.45 -87.65 128.75 -87.55 129.3 -87.35 134.45 -85.4 134.55 -85.5 134.7 -85.55 136.2 -85.85 136.65 -85.9 136.85 -85.95 139.45 -86.45 139.3 -86.55 139.2 -86.7 138.85 -86.85 138.6 -87.25 139.2 -87.95 139.95 -88.65 140.0 -88.75 140.1 -88.75 142.6 -89.1 142.8 -88.6 Q144.0 -88.4 144.75 -87.85 L143.45 -87.35 147.7 -88.35 150.0 -88.95 153.3 -89.75 169.4 -94.25 169.35 -96.1 168.6 -106.4 168.6 -119.55 168.45 -116.6 Q167.85 -121.8 167.85 -123.75 167.85 -125.65 168.2 -126.55 L168.2 -142.35 Q171.1 -157.5 171.1 -167.3 171.1 -169.8 169.7 -180.2 L168.35 -190.0 166.0 -191.25 163.75 -192.0 162.1 -192.1 160.25 -192.4 153.35 -191.3 M87.0 -112.5 L86.9 -111.25 86.1 -111.05 85.2 -111.25 85.2 -113.0 Q85.8 -113.85 86.3 -114.0 L86.6 -113.75 86.6 -113.9 Q86.6 -114.55 86.95 -114.75 L87.7 -114.9 88.1 -114.0 Q87.9 -113.4 87.5 -113.2 L86.95 -113.25 87.0 -112.5 M53.3 -172.35 L52.75 -172.3 52.7 -172.3 Q52.6 -172.35 52.6 -172.75 52.6 -173.25 53.25 -173.25 L53.5 -172.65 53.3 -172.35 M51.25 -168.65 L51.25 -168.25 51.15 -168.05 50.7 -168.0 50.25 -168.05 50.25 -168.1 50.15 -168.15 50.15 -168.55 50.5 -168.7 Q50.8 -168.85 50.8 -169.3 L51.15 -169.15 51.25 -168.65 M50.85 -164.75 L49.85 -164.6 49.75 -165.25 49.95 -166.3 50.4 -167.3 51.3 -166.35 51.15 -165.5 50.85 -164.75 M45.35 -162.5 L45.65 -163.0 46.55 -163.55 46.6 -164.4 Q46.7 -164.95 47.55 -164.6 L47.6 -163.9 47.15 -162.7 Q46.6 -161.8 45.8 -161.8 L45.45 -162.0 45.35 -162.5 M47.65 -166.0 Q46.75 -166.45 47.0 -167.0 L47.65 -167.3 Q48.25 -167.05 48.25 -166.6 L48.05 -166.3 47.65 -166.0 M47.15 -158.75 Q46.6 -157.4 45.75 -157.0 L45.3 -157.1 Q45.15 -157.25 45.15 -157.7 45.15 -158.9 46.15 -159.5 47.15 -160.05 47.15 -158.75 M19.6 -159.15 Q21.95 -155.75 22.65 -153.65 23.15 -152.05 23.15 -148.95 L22.75 -143.55 Q22.15 -141.65 22.0 -140.4 21.9 -138.95 21.2 -138.95 20.55 -138.9 20.5 -137.25 L20.75 -115.25 22.25 -102.4 23.05 -96.1 Q23.45 -93.25 23.45 -91.15 24.05 -90.2 24.6 -89.85 L28.65 -89.9 34.15 -92.1 36.5 -93.6 Q37.1 -94.65 39.15 -95.05 L41.1 -95.2 42.15 -95.8 43.75 -96.65 44.45 -98.15 45.75 -101.25 46.15 -103.9 46.5 -106.5 46.85 -106.5 47.1 -104.55 47.25 -104.3 Q47.45 -105.15 48.15 -106.25 L48.15 -106.5 47.9 -110.2 47.4 -113.75 46.95 -115.45 46.0 -117.25 Q45.7 -117.8 45.65 -118.85 L45.6 -120.55 Q44.85 -126.25 43.15 -134.65 L42.05 -141.7 41.15 -148.75 39.0 -162.65 38.65 -164.0 38.25 -165.2 Q38.25 -165.5 38.5 -165.45 L38.75 -165.75 Q38.75 -169.3 35.8 -172.1 L35.35 -171.95 35.4 -171.6 35.75 -171.3 35.65 -171.0 35.25 -171.0 Q34.75 -171.0 34.1 -171.5 L32.9 -172.0 Q27.95 -172.0 22.95 -167.9 18.7 -164.4 17.7 -161.05 L18.1 -160.4 Q18.8 -159.45 19.6 -159.15 M59.25 -119.2 Q59.8 -120.55 60.65 -120.85 L60.85 -120.55 60.9 -119.55 60.7 -118.55 Q60.35 -117.85 59.15 -117.1 L59.05 -117.0 58.5 -116.75 57.9 -116.35 57.05 -116.3 Q56.8 -116.3 56.8 -117.05 56.8 -117.7 57.7 -118.3 58.5 -118.85 59.15 -118.85 L59.25 -119.2 M54.65 -113.8 Q54.65 -114.6 54.9 -114.9 L55.4 -115.1 56.65 -115.0 56.85 -114.4 57.15 -113.85 55.9 -112.75 54.95 -112.85 Q54.65 -113.0 54.65 -113.8 M64.3 -116.75 L64.4 -117.5 65.65 -117.5 66.15 -116.75 65.65 -116.0 64.55 -116.0 64.3 -116.75 M61.8 -112.85 Q63.0 -113.95 64.3 -113.75 L64.4 -113.0 Q64.15 -112.6 62.9 -112.35 L62.45 -112.45 Q61.95 -112.65 61.8 -112.85 M161.9 -98.75 L162.25 -98.9 162.95 -98.35 Q163.5 -97.85 163.35 -97.2 L162.65 -96.7 Q161.55 -97.75 161.55 -97.95 161.55 -98.55 161.9 -98.75 M138.25 -91.15 L139.0 -91.5 Q140.0 -91.1 140.25 -90.5 L140.1 -89.35 Q139.75 -89.0 138.6 -88.85 L138.05 -89.1 Q137.75 -89.25 137.75 -90.0 137.75 -90.8 138.25 -91.15 M85.7 -43.05 L85.8 -43.1 85.75 -43.15 85.7 -43.05 M163.9 -102.15 Q163.7 -101.9 163.05 -101.9 162.45 -101.9 162.25 -102.2 L161.95 -102.7 162.05 -103.8 Q163.95 -103.8 164.05 -102.6 L163.9 -102.15 M165.7 -101.9 Q165.55 -101.95 165.55 -102.55 165.55 -103.55 165.65 -103.2 L166.75 -103.1 167.1 -102.5 Q166.7 -102.0 166.25 -101.9 L165.7 -101.9 M163.25 -95.35 L162.65 -94.85 Q161.95 -94.95 161.65 -95.25 L162.05 -95.7 162.85 -95.9 163.25 -95.35 M-159.5 -261.95 L-159.6 -261.85 -159.6 -261.65 -159.4 -261.7 -159.55 -261.75 -159.5 -261.95 M-36.5 -155.5 Q-39.1 -155.5 -41.25 -153.9 L-42.95 -152.25 -43.75 -149.0 -44.3 -146.1 Q-44.55 -145.2 -44.95 -144.6 L-46.0 -143.3 Q-47.05 -142.2 -47.2 -139.45 -47.1 -136.5 -47.25 -135.5 L-47.4 -127.75 -47.9 -124.25 -47.8 -120.85 -48.3 -112.7 -48.1 -105.85 -47.55 -97.4 -46.9 -95.5 -46.5 -93.55 Q-46.15 -92.1 -46.15 -89.8 L-45.7 -85.8 -45.6 -85.25 -45.35 -85.0 -43.25 -84.35 Q-43.1 -84.15 -43.3 -83.6 L-43.55 -82.85 -43.5 -82.0 Q-40.65 -82.25 -38.8 -81.4 L-37.0 -80.0 Q-36.5 -79.5 -34.25 -78.85 -31.2 -78.0 -27.5 -78.0 L-23.05 -78.9 Q-20.05 -79.75 -14.95 -79.8 -15.7 -80.7 -16.3 -82.25 L-16.3 -83.0 -16.0 -83.35 -14.2 -82.25 Q-12.55 -81.2 -12.5 -81.0 L-11.3 -81.1 -10.5 -83.35 -9.7 -83.3 -9.45 -90.0 Q-9.2 -96.05 -9.3 -97.25 L-9.3 -120.15 -9.4 -122.45 Q-9.55 -123.7 -10.15 -124.65 -10.55 -125.25 -10.55 -126.7 -10.55 -128.35 -10.8 -129.0 L-10.8 -142.25 Q-10.9 -144.55 -11.9 -146.85 -12.75 -148.85 -14.15 -150.45 -17.3 -152.45 -23.0 -153.25 L-26.5 -153.5 -29.25 -153.75 -31.5 -154.0 -36.5 -155.5 M-63.5 -155.0 L-63.95 -153.4 Q-64.25 -152.45 -64.75 -151.75 -64.85 -151.6 -65.35 -151.4 L-66.0 -150.8 -66.5 -149.3 -66.85 -143.15 -67.15 -137.0 -68.4 -124.55 -68.7 -118.8 -68.9 -112.25 -68.75 -105.7 -68.4 -100.25 Q-68.0 -98.3 -67.65 -94.3 L-67.45 -92.35 Q-67.05 -92.65 -66.6 -92.35 L-66.25 -92.5 -65.8 -92.1 -66.3 -91.35 -66.3 -91.3 -58.6 -87.9 -57.45 -87.1 -56.75 -87.3 Q-55.75 -88.6 -55.7 -91.05 L-55.55 -94.8 -55.55 -105.15 -55.0 -122.6 Q-55.0 -127.75 -55.5 -130.65 L-56.0 -131.4 Q-56.5 -131.95 -56.5 -132.55 L-56.75 -134.5 -57.1 -137.25 -57.4 -140.05 Q-57.4 -146.0 -56.5 -150.5 -56.55 -151.45 -56.0 -152.85 L-55.95 -153.5 -55.65 -154.3 -55.1 -155.35 -54.35 -156.45 -54.3 -156.55 -53.75 -158.25 -53.95 -159.2 -54.5 -159.85 Q-55.85 -161.15 -57.75 -161.15 L-58.75 -161.05 Q-60.55 -160.15 -61.9 -158.15 L-63.5 -155.0 M-77.8 -129.6 Q-77.65 -129.45 -77.65 -129.0 -77.65 -127.85 -78.5 -127.65 L-79.0 -128.15 -79.0 -128.65 Q-79.0 -129.3 -78.25 -129.75 L-77.8 -129.6 M-77.3 -119.4 L-78.0 -119.05 -78.4 -119.35 -78.55 -119.95 -78.5 -120.75 -77.3 -120.75 -77.25 -120.15 -77.3 -119.4 M-102.85 -152.2 L-102.6 -153.15 -101.5 -153.25 -101.4 -152.55 -101.5 -151.9 -101.75 -151.75 -102.5 -151.75 -102.75 -151.8 -102.85 -152.2 M-135.25 -176.65 L-135.25 -176.25 -135.3 -176.35 -135.6 -176.05 Q-136.1 -176.45 -136.1 -176.9 L-135.5 -177.1 -135.3 -177.05 -135.25 -176.65 M-134.75 -165.9 Q-134.75 -165.15 -135.35 -164.3 L-136.25 -164.4 -136.3 -165.4 Q-136.3 -166.55 -135.6 -167.1 L-135.05 -167.0 -134.75 -165.9 M-134.55 -148.6 L-134.85 -147.75 -135.15 -146.9 -134.95 -145.85 -134.75 -145.9 -134.5 -145.75 -134.4 -145.25 Q-134.4 -144.9 -134.5 -144.9 L-134.6 -144.85 -134.9 -144.75 -135.45 -144.8 -135.55 -145.3 -135.55 -145.35 Q-136.0 -145.65 -135.95 -146.0 L-135.6 -147.0 -135.95 -147.75 -136.35 -148.4 Q-136.35 -149.55 -135.45 -149.55 -134.55 -149.5 -134.55 -148.6 M-96.85 -133.55 Q-97.5 -133.55 -97.5 -133.75 L-97.55 -134.4 -97.5 -135.0 -96.25 -135.0 -96.15 -134.85 -96.05 -134.4 Q-96.05 -133.55 -96.85 -133.55 M-101.6 -146.2 L-101.25 -145.4 -101.85 -145.15 -102.5 -144.75 -102.6 -144.5 -101.75 -144.4 -101.65 -143.8 -101.85 -143.1 -102.25 -142.55 -102.95 -143.0 -103.5 -143.65 -103.35 -144.2 -103.25 -145.55 Q-103.25 -146.25 -102.25 -147.05 L-101.6 -146.2 M-91.55 -118.15 Q-91.4 -118.15 -91.4 -117.5 -91.4 -116.85 -91.9 -116.45 -92.35 -116.15 -93.0 -116.15 L-93.75 -116.55 -93.75 -117.05 Q-93.75 -117.7 -93.2 -118.05 L-91.55 -118.15 M-89.15 -100.05 Q-89.15 -101.3 -88.9 -100.6 L-87.65 -100.6 -87.15 -99.85 Q-87.15 -99.15 -87.9 -98.85 L-88.9 -99.05 -89.15 -100.05 M-82.9 -104.0 L-82.15 -104.0 Q-81.8 -103.6 -81.8 -102.1 L-81.9 -101.9 -82.4 -101.5 -82.95 -101.7 -83.05 -102.65 -82.9 -104.0 M-89.15 -98.6 L-88.4 -97.5 Q-88.75 -96.95 -89.4 -96.75 L-90.8 -97.0 -91.35 -97.2 -92.15 -97.75 Q-91.5 -98.8 -90.3 -98.85 L-89.15 -98.6 M-11.9 -90.65 L-11.8 -90.25 Q-11.8 -89.65 -12.15 -89.25 -12.45 -88.9 -12.85 -88.9 -13.65 -88.9 -13.65 -89.9 L-13.4 -90.6 -12.0 -90.75 -11.9 -90.65" fill="#9afaf0" fill-opacity="0.8" fill-rule="evenodd" stroke="none"/>
    <path d="M45.95 -279.8 L47.3 -280.05 45.65 -277.7 43.55 -275.0 42.45 -276.1 39.85 -277.4 38.25 -278.4 Q36.95 -279.45 36.8 -280.4 L35.25 -279.15 Q34.4 -278.6 33.65 -278.6 32.75 -278.6 32.05 -279.2 L30.8 -280.05 Q29.55 -280.45 28.15 -281.5 L26.85 -281.5 25.65 -281.35 Q24.9 -281.35 24.8 -281.95 L24.65 -282.75 24.55 -282.0 22.75 -281.75 22.65 -281.75 Q22.5 -281.85 22.5 -282.6 22.5 -283.45 23.55 -284.75 24.6 -286.15 25.5 -286.3 L26.6 -286.25 Q26.6 -284.8 26.1 -284.0 L26.2 -284.15 27.0 -284.35 Q27.65 -284.35 29.5 -282.75 L30.7 -282.65 32.0 -282.75 Q32.7 -282.75 33.4 -282.2 L34.05 -281.25 Q34.45 -281.3 35.05 -281.6 L37.55 -282.75 39.55 -280.6 Q41.05 -279.25 44.4 -279.25 45.0 -279.25 45.95 -279.8 M97.45 -284.65 L97.55 -283.8 Q97.55 -283.4 95.9 -282.55 94.25 -281.75 93.5 -281.75 92.15 -281.75 91.65 -282.2 L91.65 -281.85 91.1 -281.65 90.25 -281.35 90.05 -281.5 90.0 -282.15 Q89.15 -281.15 88.15 -280.75 L86.8 -280.9 86.55 -281.6 86.75 -282.75 90.05 -282.55 90.1 -282.7 91.25 -283.3 91.65 -283.0 91.65 -282.55 Q92.85 -283.95 97.05 -284.85 L97.45 -284.65 M92.6 -273.65 L92.6 -271.5 92.0 -271.1 Q91.55 -271.25 91.2 -271.55 L90.65 -272.1 Q90.65 -273.3 92.1 -274.75 L92.6 -273.65 M113.5 -191.55 Q113.7 -191.45 113.7 -190.2 L113.5 -187.75 112.5 -185.5 111.35 -185.85 Q110.6 -186.1 109.8 -185.5 108.75 -187.55 106.65 -188.7 L102.6 -188.6 Q101.7 -190.6 100.9 -191.1 100.2 -191.55 99.6 -193.4 99.6 -194.2 100.6 -195.2 L102.45 -193.9 Q104.15 -192.7 105.8 -192.0 L109.95 -191.45 113.3 -191.4 113.5 -191.55 M37.55 -175.5 Q40.05 -176.0 40.05 -172.6 L40.05 -171.85 40.0 -172.05 39.55 -171.65 Q38.55 -171.65 38.55 -172.8 L38.5 -172.05 Q38.3 -171.65 37.75 -171.55 L36.5 -172.15 Q35.85 -172.35 35.3 -172.9 L35.15 -172.75 Q35.0 -172.7 35.0 -173.5 35.0 -175.0 37.55 -175.5 M24.7 -182.75 L25.75 -183.05 26.25 -182.3 25.5 -181.65 25.0 -181.75 Q24.45 -181.95 24.25 -182.15 24.25 -182.45 24.7 -182.75 M4.55 -149.45 L5.25 -149.65 5.25 -150.9 5.0 -152.55 5.5 -152.9 Q6.1 -152.2 7.55 -151.3 9.05 -150.4 10.25 -150.15 L10.6 -151.15 Q11.1 -151.85 12.5 -152.3 L15.8 -153.15 Q16.05 -153.15 16.5 -154.05 L17.25 -153.5 Q18.2 -154.1 19.55 -154.3 19.3 -154.65 19.3 -156.4 L20.25 -156.4 21.1 -154.35 21.55 -152.65 21.05 -151.4 Q20.5 -150.3 20.05 -149.9 L19.25 -151.8 Q16.6 -149.65 14.05 -148.9 L13.3 -149.65 14.05 -150.45 11.25 -149.4 Q10.1 -148.85 8.65 -148.6 L7.55 -147.5 6.0 -146.3 5.05 -146.2 Q4.8 -146.25 4.8 -147.0 L4.95 -147.55 1.55 -146.35 1.5 -145.55 0.7 -145.45 -0.6 -145.55 -2.15 -144.95 Q-3.1 -144.4 -3.75 -144.4 L-3.9 -144.4 -6.0 -143.55 -6.3 -143.55 -6.5 -143.4 -6.9 -143.5 -7.5 -143.9 -7.2 -144.25 -7.5 -144.65 Q-7.5 -143.65 -8.25 -143.55 -9.5 -145.4 -9.5 -146.9 L-9.25 -147.3 Q-9.0 -147.05 -7.9 -146.45 L-6.75 -145.9 Q-6.5 -145.9 -5.3 -146.45 L-5.65 -146.55 -6.35 -147.05 Q-5.6 -147.8 -5.0 -147.4 -4.3 -147.3 -4.05 -146.95 L-1.25 -147.4 1.8 -148.4 3.05 -148.9 2.55 -149.3 3.75 -149.9 4.55 -149.55 4.55 -149.45 M79.6 -103.9 L79.55 -103.8 Q78.75 -101.85 78.45 -99.7 L77.75 -99.7 77.65 -100.6 Q77.65 -101.05 78.5 -102.4 L79.5 -103.8 79.6 -103.9 M80.8 -95.9 Q82.1 -94.4 82.1 -93.9 82.1 -93.25 81.9 -93.4 L81.7 -93.65 Q80.05 -93.95 79.9 -94.45 79.8 -94.75 80.0 -95.45 L79.25 -96.45 Q78.45 -97.4 78.45 -98.85 L78.85 -98.85 Q79.3 -97.55 80.8 -95.9 M42.25 -81.25 Q41.75 -82.15 41.3 -83.6 L42.5 -83.85 Q42.75 -84.35 42.75 -83.1 42.75 -81.95 42.25 -81.25 M37.0 -76.35 Q34.1 -73.4 25.95 -70.95 16.55 -68.15 3.9 -67.3 L-2.0 -66.8 -7.4 -67.15 -9.05 -67.3 -10.9 -67.8 -11.15 -68.15 -9.15 -67.75 -6.9 -67.4 -3.85 -67.5 -1.5 -67.8 1.3 -67.95 4.4 -68.3 Q15.3 -69.6 26.3 -73.2 L36.85 -76.6 37.0 -76.35 M38.4 -86.75 Q37.5 -86.95 37.5 -87.25 L38.25 -87.3 Q39.35 -87.25 39.5 -86.8 L38.4 -86.75 M114.5 -87.8 L114.2 -87.95 113.75 -88.3 Q113.85 -88.85 114.9 -88.3 L114.5 -87.8 M110.95 -87.5 L111.55 -87.0 Q109.7 -86.35 108.95 -85.6 L106.35 -85.7 105.9 -86.0 105.45 -86.4 106.95 -86.6 Q107.7 -86.55 106.85 -86.3 L108.65 -86.4 108.95 -87.3 109.65 -87.3 110.95 -87.5 M92.75 -88.3 Q95.2 -88.4 97.4 -87.1 L98.0 -86.6 Q98.5 -86.5 97.5 -86.5 95.7 -86.5 94.5 -87.1 L92.75 -88.3 M90.85 -89.4 L90.65 -89.2 88.85 -89.3 86.3 -91.05 Q84.25 -92.2 84.0 -92.65 L84.3 -92.95 87.5 -91.2 Q89.0 -90.2 90.85 -89.4 M101.0 -86.0 L100.3 -86.1 Q99.55 -86.2 99.5 -86.4 L100.75 -86.65 101.2 -86.5 101.0 -86.0 M175.0 -191.0 L174.8 -189.4 173.3 -189.15 171.0 -188.6 Q170.2 -189.0 169.4 -191.4 170.5 -192.15 171.9 -192.4 L174.4 -192.8 Q175.0 -191.9 175.0 -191.0 M183.7 -96.65 Q182.95 -94.45 180.95 -93.25 L180.35 -93.35 180.25 -93.8 Q180.25 -94.4 180.55 -94.85 L181.15 -95.65 Q181.6 -96.3 181.4 -96.6 L181.05 -97.15 Q182.05 -97.7 182.4 -97.5 L183.7 -96.65 M172.4 -90.55 L170.4 -90.05 169.9 -90.65 170.2 -90.95 171.05 -90.9 172.3 -90.75 172.4 -90.55 M174.15 -90.35 L173.15 -90.45 173.05 -91.05 173.0 -91.1 173.65 -91.15 175.45 -91.9 Q177.15 -92.6 178.25 -92.35 L178.65 -91.75 Q176.8 -91.5 175.95 -90.85 175.2 -90.35 174.15 -90.35 M164.45 -92.95 L163.25 -92.15 162.75 -92.75 Q163.5 -93.25 164.35 -93.25 L164.45 -92.95 M164.2 -92.2 Q165.35 -92.95 165.9 -92.85 L168.4 -90.55 Q168.2 -90.35 167.8 -90.25 L165.6 -90.85 163.85 -90.75 163.3 -90.7 Q163.15 -90.7 163.15 -91.3 L164.2 -92.2 M-127.2 -234.35 Q-127.75 -232.95 -128.1 -232.75 -129.75 -233.85 -129.75 -237.25 L-128.7 -237.05 Q-128.35 -236.7 -128.35 -236.3 L-128.45 -237.1 Q-128.6 -237.7 -127.15 -237.7 -125.95 -237.7 -122.95 -236.75 -119.9 -235.8 -118.75 -235.8 -117.45 -235.8 -116.1 -236.6 -114.55 -237.55 -113.6 -237.7 L-111.8 -237.5 -108.4 -237.0 -108.15 -237.9 -107.9 -238.45 Q-106.15 -238.1 -106.45 -237.0 -106.6 -236.45 -102.8 -237.5 L-102.35 -235.1 -105.15 -235.2 -109.25 -235.6 Q-110.15 -235.6 -113.2 -234.25 L-116.25 -232.95 -119.05 -233.4 Q-119.95 -233.7 -121.35 -234.65 -122.6 -235.6 -125.0 -235.6 -126.5 -235.6 -127.2 -234.35 M-56.6 -180.15 Q-56.6 -181.15 -55.4 -181.65 L-53.75 -181.8 -53.25 -181.4 -54.5 -180.25 Q-54.95 -179.55 -55.5 -179.3 L-56.35 -179.3 Q-56.6 -179.35 -56.6 -180.15 M-69.05 -164.45 L-69.0 -163.3 -67.25 -163.8 Q-66.95 -163.3 -67.1 -162.65 -66.65 -162.7 -64.9 -162.0 L-63.0 -161.3 Q-62.25 -162.05 -62.25 -160.8 -62.25 -160.3 -63.35 -159.2 L-64.5 -158.05 -65.25 -158.15 -65.15 -158.7 -64.95 -159.05 -65.5 -159.05 Q-66.15 -159.05 -66.9 -159.7 -68.05 -160.65 -69.1 -161.15 L-69.9 -160.0 Q-70.2 -159.35 -71.0 -159.05 L-71.9 -161.35 Q-72.5 -163.1 -72.5 -163.8 -72.5 -164.15 -71.9 -164.65 L-71.0 -165.4 -69.25 -165.3 -69.05 -164.45 M-51.0 -157.8 Q-50.5 -157.7 -50.35 -157.25 -50.2 -156.8 -50.5 -156.55 -45.25 -154.3 -45.0 -153.9 -45.35 -153.65 -46.25 -153.15 L-47.35 -152.55 Q-47.95 -152.55 -48.55 -153.1 -49.1 -153.65 -49.75 -153.65 L-51.0 -153.05 -52.25 -152.05 Q-53.1 -152.4 -53.55 -153.25 L-53.85 -154.25 Q-53.85 -154.85 -52.75 -156.15 L-51.0 -157.8 M-103.4 -88.7 L-108.4 -88.35 Q-109.05 -88.75 -109.45 -89.65 -109.8 -90.45 -109.8 -91.3 -108.25 -91.3 -106.4 -90.6 L-102.6 -89.05 -103.4 -88.7 M-130.3 -88.05 L-130.15 -88.1 -128.6 -85.95 -128.8 -85.25 -131.45 -85.25 -132.55 -86.0 -133.3 -86.45 -133.45 -86.45 -134.45 -86.9 Q-135.1 -87.25 -135.4 -87.5 L-136.1 -87.65 Q-137.0 -88.05 -137.0 -89.5 -137.0 -90.85 -138.0 -91.85 L-139.25 -93.45 -138.45 -93.65 -134.4 -89.65 -133.6 -90.1 -132.05 -90.45 -132.5 -91.55 -132.05 -91.75 -132.05 -92.0 Q-130.25 -91.65 -130.25 -88.9 L-130.4 -88.4 -130.3 -88.05 M-123.1 -88.9 Q-122.75 -88.1 -122.75 -87.4 L-123.6 -86.5 -124.3 -85.95 -125.75 -86.2 -125.95 -87.25 -124.5 -88.5 -123.1 -88.9 M-135.6 -86.9 L-135.35 -86.45 -135.85 -86.3 -137.95 -86.2 Q-137.95 -86.9 -138.45 -88.9 -137.45 -89.1 -135.6 -86.9 M-18.25 -71.15 Q-18.1 -70.05 -17.6 -69.4 -18.7 -70.15 -18.75 -70.6 L-18.6 -71.15 -18.25 -71.15 M-58.5 -86.75 L-58.25 -85.65 -58.15 -85.75 -57.65 -85.85 Q-56.5 -85.75 -56.15 -85.35 L-55.75 -85.0 -56.5 -84.25 -58.4 -84.25 -58.45 -84.05 -58.5 -84.8 -58.45 -85.3 -58.5 -85.25 -59.3 -85.55 -60.0 -86.1 -59.6 -86.85 -58.5 -86.75 M-53.9 -83.35 L-55.9 -82.75 -56.35 -82.85 -56.5 -83.65 Q-56.5 -84.55 -55.55 -84.7 L-54.5 -84.75 -53.9 -83.35 M-51.3 -82.6 Q-51.65 -82.1 -52.9 -82.1 L-53.15 -84.25 -52.45 -84.15 Q-51.8 -83.95 -51.3 -83.35 L-51.3 -82.6 M-49.05 -82.1 L-49.75 -81.5 -50.4 -81.6 -50.5 -81.5 -50.65 -82.35 -50.05 -83.3 Q-49.45 -83.85 -49.0 -83.85 -48.75 -84.55 -48.75 -83.3 -48.75 -82.5 -49.05 -82.1 M-46.75 -82.1 L-46.85 -81.9 -47.25 -81.5 Q-48.25 -82.25 -48.25 -83.85 L-47.0 -84.0 Q-46.55 -83.6 -46.55 -83.25 L-46.75 -82.1" fill="#ffffff" fill-rule="evenodd" stroke="none"/>
  </g>
</svg>
