<?xml version="1.0" encoding="UTF-8" standalone="no"?>
<svg xmlns:ffdec="https://www.free-decompiler.com/flash" xmlns:xlink="http://www.w3.org/1999/xlink" ffdec:objectType="shape" height="178.6px" width="406.4px" xmlns="http://www.w3.org/2000/svg">
  <g transform="matrix(1.0, 0.0, 0.0, 1.0, 215.9, 210.0)">
    <path d="M165.35 -199.5 Q164.95 -199.2 164.95 -198.7 164.95 -197.7 167.05 -196.95 L168.7 -196.35 170.9 -195.9 174.3 -194.7 Q175.6 -193.95 175.95 -192.3 L176.05 -189.95 175.75 -186.45 176.1 -171.95 176.25 -159.2 176.15 -153.8 175.5 -153.45 175.75 -151.45 175.75 -135.95 Q176.7 -135.55 176.9 -133.3 L176.95 -129.85 Q176.95 -123.55 176.0 -113.25 L175.0 -102.55 175.0 -98.35 Q175.0 -97.2 175.7 -96.2 L185.6 -99.35 185.05 -98.8 185.4 -99.15 185.7 -99.25 186.2 -98.75 Q186.05 -98.0 184.45 -96.95 L185.25 -97.25 185.3 -97.25 186.15 -97.55 185.95 -97.15 185.1 -95.15 Q184.55 -94.4 184.1 -93.35 L183.55 -92.2 Q182.2 -89.4 182.2 -88.65 L182.3 -87.85 Q182.35 -87.35 182.5 -87.3 L182.7 -87.45 183.75 -87.7 186.3 -88.5 187.45 -88.9 190.5 -89.75 186.55 -86.4 182.85 -82.75 182.0 -82.35 179.3 -80.95 176.45 -78.9 174.5 -77.35 174.05 -76.85 174.15 -76.9 172.95 -75.85 172.05 -74.8 171.95 -74.7 171.75 -74.5 171.55 -74.25 171.5 -74.15 171.4 -74.1 170.2 -73.25 170.25 -73.2 170.3 -73.1 170.4 -72.95 169.85 -72.55 168.6 -71.55 168.15 -71.0 163.55 -67.55 161.15 -65.35 160.85 -65.05 158.45 -63.15 154.9 -60.05 153.55 -58.8 153.45 -58.65 Q149.85 -57.8 148.05 -56.85 L135.75 -53.4 130.15 -53.0 124.5 -52.9 121.15 -53.4 120.6 -53.5 117.15 -54.15 115.8 -53.9 115.8 -53.4 115.75 -52.9 115.8 -52.15 Q116.0 -51.55 118.0 -50.85 L114.6 -50.05 111.4 -49.2 110.15 -48.7 109.15 -48.5 109.05 -48.45 108.55 -48.3 108.25 -48.15 105.75 -47.4 105.15 -47.35 105.1 -47.35 104.05 -47.2 103.35 -47.1 103.3 -47.05 Q102.4 -46.0 98.35 -45.35 L98.15 -45.35 97.9 -45.35 97.7 -45.35 97.5 -45.35 94.05 -45.15 91.9 -44.75 86.25 -42.9 85.5 -42.7 Q84.6 -41.5 83.55 -41.35 L78.9 -41.5 77.55 -41.25 77.45 -41.25 77.15 -41.25 76.2 -41.25 75.9 -41.25 76.55 -41.35 63.1 -40.5 Q56.6 -39.0 55.5 -38.05 L44.0 -36.45 43.9 -36.45 43.75 -36.45 42.65 -36.45 36.0 -35.9 32.25 -35.5 29.25 -35.1 Q21.1 -34.1 18.0 -33.2 L7.85 -32.0 5.4 -31.7 2.9 -31.7 Q-1.45 -32.15 -4.9 -31.65 L-20.55 -31.55 -27.5 -31.9 -35.6 -31.6 -36.25 -31.55 -37.35 -31.4 -43.6 -32.0 -43.7 -32.3 Q-63.2 -32.65 -76.9 -34.35 L-85.2 -34.4 -87.0 -34.5 -85.6 -34.05 -88.95 -34.7 -89.7 -34.85 -90.0 -34.95 -95.0 -35.85 -100.7 -37.0 -98.5 -36.8 -99.9 -37.5 -101.3 -38.25 -102.5 -38.9 -105.0 -39.4 -114.15 -41.35 -118.1 -41.5 -120.55 -42.9 Q-123.25 -44.45 -125.55 -45.4 L-126.35 -45.7 -121.7 -45.45 Q-124.3 -47.55 -131.2 -49.45 -136.55 -51.05 -141.75 -51.5 -143.6 -53.0 -148.25 -54.65 L-148.5 -54.75 -149.3 -54.95 -149.45 -55.05 -154.25 -56.55 -157.35 -58.2 -158.4 -58.65 -157.8 -58.6 Q-158.95 -59.25 -161.25 -60.3 L-161.85 -60.6 -161.9 -60.6 -163.6 -61.35 -164.55 -61.7 -164.6 -61.7 -164.65 -61.55 -166.0 -61.95 -172.3 -64.0 -172.4 -64.0 -172.65 -64.1 -175.6 -64.9 -175.9 -64.9 -176.45 -65.05 -177.5 -65.4 -177.95 -65.55 Q-179.4 -66.1 -180.35 -66.7 L-180.75 -67.0 -181.85 -68.1 -182.05 -68.3 -183.1 -69.1 -183.3 -69.6 -182.6 -69.15 -182.4 -69.05 -180.25 -67.75 -180.25 -68.3 Q-181.55 -70.2 -183.15 -71.9 L-183.75 -72.55 Q-186.7 -75.6 -190.5 -78.35 L-191.75 -79.1 Q-192.7 -81.0 -194.9 -83.1 L-195.0 -83.15 Q-195.6 -83.8 -196.35 -84.3 L-196.45 -84.45 -197.4 -85.15 -197.95 -85.55 -205.15 -90.2 Q-202.8 -90.1 -199.7 -88.75 L-199.25 -88.8 -201.95 -91.2 -203.3 -92.5 -204.6 -93.95 -206.35 -95.05 -206.95 -95.45 -209.95 -96.95 -210.15 -97.3 -211.05 -97.85 -211.4 -97.8 -212.6 -99.45 -215.9 -103.9 -212.75 -104.8 -210.35 -105.55 -210.1 -105.65 -209.8 -106.15 -202.5 -106.7 -199.25 -104.2 -198.45 -103.55 -199.15 -104.55 -199.4 -104.95 -199.1 -104.7 Q-195.55 -102.3 -189.85 -98.85 -183.5 -95.05 -178.5 -92.75 L-178.3 -92.7 -177.65 -92.4 -169.7 -90.0 -161.7 -87.95 -155.7 -87.45 -152.1 -87.6 -148.0 -88.05 -146.3 -87.95 -145.85 -88.1 -144.35 -88.65 -144.3 -88.65 Q-140.1 -90.0 -134.15 -89.5 L-132.6 -89.15 -125.25 -88.5 -108.7 -89.05 Q-107.0 -89.55 -104.6 -90.7 L-103.55 -91.1 -103.15 -92.35 Q-102.8 -92.35 -102.4 -91.95 L-101.9 -91.25 Q-100.5 -93.6 -99.65 -93.85 L-98.8 -92.3 -98.65 -92.35 -96.3 -90.85 -94.2 -91.05 -90.85 -92.95 -88.05 -94.35 -87.75 -94.45 -86.0 -95.15 -85.75 -95.4 -85.25 -95.3 -83.2 -95.65 Q-81.9 -96.0 -81.5 -96.3 -80.4 -97.1 -79.85 -97.6 L-79.7 -97.65 -79.45 -98.15 -79.35 -98.35 -79.0 -99.0 -78.5 -101.4 -78.0 -106.25 -77.55 -111.15 -77.3 -116.0 Q-77.35 -119.35 -76.75 -125.85 -76.15 -132.6 -76.15 -135.7 -76.15 -137.85 -76.3 -138.25 -76.75 -139.2 -78.75 -139.75 L-78.4 -140.5 -77.25 -140.65 -76.3 -141.3 -76.25 -142.25 -76.5 -143.05 -76.75 -143.9 -76.7 -144.25 -76.75 -144.6 -76.25 -145.3 -76.15 -145.35 Q-75.75 -146.25 -75.75 -147.3 L-76.4 -149.9 Q-76.4 -150.5 -76.25 -150.15 L-75.2 -149.3 -74.35 -148.35 -73.45 -148.7 Q-73.15 -148.85 -73.0 -149.8 L-73.0 -151.4 -73.25 -154.15 -73.5 -154.3 -74.05 -152.5 -74.3 -152.5 -74.75 -157.8 -74.45 -161.75 -74.5 -162.3 Q-74.5 -163.8 -66.25 -172.5 L-60.85 -177.85 Q-57.45 -181.15 -56.15 -181.5 L-34.25 -188.3 -20.0 -192.45 Q-12.9 -194.25 -9.35 -194.05 L-8.9 -194.1 Q-6.6 -194.15 -5.5 -193.55 0.2 -192.2 8.6 -189.45 18.85 -186.1 24.5 -184.8 28.95 -183.85 34.9 -179.55 36.95 -178.1 38.6 -176.3 39.8 -174.95 40.4 -173.8 42.45 -171.1 42.95 -167.55 43.15 -161.7 43.5 -159.0 L44.4 -150.55 45.05 -146.35 45.75 -142.15 47.1 -133.5 Q47.9 -127.45 48.4 -125.05 L49.2 -115.9 Q49.4 -113.35 50.05 -111.5 L52.9 -111.5 Q54.85 -110.75 55.6 -109.8 L61.65 -109.25 Q68.9 -109.25 72.75 -110.7 74.7 -111.45 75.9 -112.35 L77.9 -112.35 78.8 -111.8 80.15 -111.1 80.4 -110.9 Q82.7 -110.35 83.85 -109.55 L84.35 -108.95 86.15 -106.4 86.2 -106.3 86.45 -105.95 86.6 -105.65 89.3 -103.45 89.6 -103.2 90.6 -102.2 90.7 -103.05 90.65 -104.95 91.25 -108.05 92.25 -106.7 Q93.0 -105.15 93.85 -104.3 L94.85 -104.1 Q97.7 -111.75 98.85 -119.05 99.8 -125.35 99.8 -133.65 99.8 -137.55 99.25 -143.35 98.65 -149.15 98.65 -154.8 L98.65 -155.0 Q97.1 -153.1 96.8 -148.8 96.5 -144.15 95.25 -142.05 L94.85 -142.05 94.85 -144.15 Q94.85 -145.35 94.25 -145.35 L93.55 -145.5 93.55 -146.45 Q93.55 -148.95 94.4 -154.2 95.25 -159.8 95.35 -162.25 L95.4 -170.35 Q95.45 -172.6 95.75 -174.4 L95.75 -174.95 96.2 -179.95 96.75 -187.3 96.55 -193.25 Q96.85 -197.0 99.8 -198.95 L103.7 -199.15 105.6 -199.95 Q105.8 -200.45 105.8 -199.7 107.75 -200.45 111.35 -201.25 113.45 -201.7 114.25 -202.85 L115.65 -204.6 Q119.75 -207.1 120.85 -207.45 124.95 -208.75 136.8 -209.8 L136.8 -210.0 143.95 -209.7 Q153.6 -209.95 160.35 -205.95 165.75 -202.8 165.75 -200.35 165.75 -199.85 165.35 -199.5 M157.3 -191.85 L155.8 -191.5 Q155.15 -191.3 154.9 -190.95 154.25 -190.15 151.5 -190.55 L148.95 -190.55 145.15 -190.3 135.3 -190.5 133.6 -190.95 131.65 -191.15 128.45 -191.55 Q118.15 -190.75 115.2 -187.95 L114.5 -186.95 Q112.85 -184.4 112.55 -176.95 L111.45 -164.4 110.9 -149.2 110.45 -139.55 Q110.45 -135.75 110.95 -132.5 L110.95 -131.6 111.1 -127.75 111.65 -122.45 111.85 -122.35 112.45 -122.25 113.15 -117.2 113.35 -115.35 Q114.15 -107.75 114.15 -101.2 L113.95 -95.5 113.8 -94.55 114.75 -94.5 Q115.85 -94.4 118.65 -93.2 118.95 -93.5 119.35 -93.5 119.1 -93.85 119.1 -94.35 119.3 -94.65 120.5 -94.95 L121.25 -94.8 122.2 -94.45 122.3 -94.15 Q122.2 -93.95 121.3 -93.65 L120.1 -93.25 120.2 -93.15 120.0 -92.65 120.05 -92.55 122.6 -91.35 127.8 -88.7 Q133.1 -86.6 139.5 -86.6 L140.35 -86.65 147.7 -88.35 149.55 -88.8 149.55 -88.85 150.05 -89.2 152.8 -90.2 154.8 -91.0 158.0 -91.25 161.85 -93.55 Q164.75 -94.85 167.4 -94.65 L167.4 -94.95 Q167.4 -100.25 169.3 -115.75 169.55 -115.1 170.2 -114.75 172.4 -116.6 172.4 -123.45 L172.05 -133.35 172.3 -143.8 Q172.3 -147.3 171.5 -150.65 L171.0 -154.4 Q170.5 -156.45 168.8 -156.5 L168.7 -156.8 168.7 -182.15 Q168.3 -183.05 168.3 -184.7 L168.4 -186.65 168.3 -188.1 Q168.0 -189.05 165.75 -190.4 163.05 -192.05 160.5 -192.05 L157.3 -191.85 M18.0 -157.8 L18.0 -157.6 Q20.3 -155.35 21.0 -154.05 21.75 -152.6 21.75 -149.1 L21.5 -143.05 21.0 -137.1 22.1 -129.85 23.35 -120.25 Q23.85 -112.05 23.85 -103.35 L24.4 -97.15 24.75 -91.0 24.75 -90.55 Q25.3 -91.4 26.4 -92.1 28.65 -93.55 29.85 -91.6 L32.6 -91.45 Q35.4 -92.6 37.85 -93.7 L37.85 -93.75 Q37.85 -94.5 43.0 -99.1 L44.6 -98.75 45.35 -99.9 Q45.85 -100.85 45.85 -105.05 L45.35 -111.0 Q45.25 -112.8 45.5 -116.6 L44.75 -122.85 Q44.0 -129.55 44.0 -132.75 44.0 -134.85 42.65 -143.3 L41.25 -152.0 Q40.9 -158.1 40.0 -161.55 38.9 -165.75 36.5 -169.4 L36.35 -169.4 Q35.8 -170.35 34.65 -171.1 33.25 -172.0 31.5 -172.0 29.45 -172.0 25.35 -169.05 L21.5 -166.0 Q19.75 -164.55 18.65 -162.8 17.5 -160.95 17.5 -159.5 L17.75 -158.65 18.0 -157.8 M117.5 -94.6 Q117.5 -95.3 117.65 -95.5 L117.45 -96.25 Q117.45 -97.25 119.0 -97.8 120.7 -98.45 121.9 -96.55 L118.9 -95.45 119.5 -94.95 Q119.0 -94.2 118.5 -94.05 L117.75 -94.0 Q117.5 -94.0 117.5 -94.6 M85.7 -43.05 L85.8 -43.1 85.75 -43.15 85.7 -43.05 M-165.3 -93.1 L-165.3 -92.35 -165.6 -92.15 -166.8 -91.85 -167.25 -92.1 -167.4 -93.0 Q-167.4 -93.8 -166.85 -93.9 L-166.15 -93.85 -165.3 -93.1 M-167.3 -95.6 L-168.05 -93.5 -168.4 -93.35 -168.9 -93.2 Q-169.4 -93.2 -169.4 -94.0 -169.4 -95.65 -167.3 -95.6 M-27.5 -153.75 L-31.75 -154.0 -33.5 -154.25 Q-42.15 -155.5 -44.05 -146.5 -44.6 -143.75 -44.7 -139.0 -44.75 -133.9 -44.9 -132.9 L-46.0 -127.3 Q-46.6 -124.1 -46.65 -122.0 L-47.1 -112.8 -47.15 -110.85 -47.25 -109.15 Q-47.25 -106.0 -46.9 -103.6 L-46.0 -96.9 -45.5 -89.85 -45.25 -84.75 -45.4 -81.9 -45.05 -81.85 -43.65 -81.25 -43.0 -81.2 -43.0 -81.25 -42.85 -81.2 -39.25 -81.0 -39.15 -80.15 Q-38.5 -79.95 -37.75 -79.1 L-37.5 -79.25 Q-33.1 -79.35 -30.75 -77.85 L-29.25 -76.6 -29.2 -76.6 -25.7 -77.25 -25.05 -77.35 -17.7 -78.35 -18.0 -78.75 Q-17.6 -79.5 -16.15 -80.45 -14.5 -81.55 -13.8 -81.1 -12.0 -80.3 -12.0 -79.05 L-12.0 -78.95 -10.75 -79.1 -10.4 -80.2 -9.25 -83.55 -9.25 -93.5 -9.15 -96.9 Q-9.15 -100.45 -9.95 -107.15 -10.75 -113.85 -10.75 -118.0 L-10.6 -121.65 -10.25 -124.8 -10.05 -126.85 -9.55 -127.5 Q-9.05 -130.4 -9.05 -133.05 -9.05 -137.95 -9.75 -142.0 -10.45 -146.2 -11.7 -148.2 L-11.75 -148.15 Q-12.4 -148.9 -19.5 -151.25 L-22.6 -152.55 Q-24.85 -153.4 -27.5 -153.75 M-64.75 -152.6 L-66.05 -144.9 Q-66.55 -142.45 -66.55 -137.2 -66.55 -131.95 -67.05 -129.5 -68.3 -123.4 -68.8 -114.15 L-69.15 -104.85 -69.25 -98.9 -69.0 -93.9 -68.95 -93.45 Q-67.7 -93.65 -65.6 -91.8 L-63.85 -90.2 -60.05 -88.55 -60.05 -88.8 -60.0 -90.35 Q-59.25 -90.35 -58.5 -89.8 L-58.35 -89.7 -58.05 -90.75 Q-57.85 -91.65 -58.0 -92.25 -58.35 -93.4 -57.85 -95.4 L-57.25 -98.4 -57.5 -99.4 -57.75 -100.5 -57.75 -102.5 Q-57.75 -105.4 -57.4 -106.9 L-57.05 -106.9 -56.75 -102.65 -56.5 -98.5 -56.4 -98.4 -56.25 -98.8 -55.9 -98.75 -55.95 -98.5 -55.8 -98.25 Q-54.75 -98.8 -54.25 -102.05 L-54.0 -106.05 Q-54.0 -108.2 -54.5 -111.8 L-54.8 -114.7 Q-55.3 -116.8 -57.0 -117.0 L-56.75 -125.55 -57.25 -140.95 -56.9 -145.65 -56.5 -150.3 -56.0 -155.0 Q-55.45 -156.65 -54.05 -157.6 -52.9 -158.4 -52.9 -159.3 -52.9 -159.85 -53.55 -160.6 -54.2 -161.3 -54.75 -161.4 -57.2 -161.25 -59.25 -160.45 L-60.85 -159.75 Q-63.65 -156.75 -64.75 -152.6 M-87.8 -101.6 L-87.65 -100.65 Q-87.95 -99.5 -88.9 -98.75 L-89.85 -98.95 Q-90.15 -99.15 -90.15 -100.0 -90.15 -100.8 -89.7 -101.25 L-88.9 -101.75 -87.8 -101.6" fill="#9afaf0" fill-opacity="0.8" fill-rule="evenodd" stroke="none"/>
    <path d="M113.5 -191.85 Q114.1 -191.85 114.1 -190.6 L112.4 -189.05 109.8 -187.1 Q108.8 -188.45 108.75 -189.55 L109.0 -190.8 Q108.0 -189.2 107.4 -188.8 L106.75 -189.65 Q106.2 -190.2 105.0 -190.2 L102.65 -190.6 100.6 -191.0 99.6 -192.2 Q100.35 -193.65 101.65 -194.0 102.9 -194.35 104.2 -193.6 105.75 -192.0 108.1 -192.2 109.8 -192.35 110.3 -190.2 L111.25 -190.8 Q112.2 -191.5 112.9 -191.6 L113.5 -191.85 M100.4 -196.8 Q100.8 -195.6 100.8 -194.4 L99.4 -193.4 98.25 -193.4 Q98.0 -193.5 98.0 -194.8 98.0 -196.1 98.85 -196.55 L100.4 -196.8 M88.5 -103.15 L88.3 -104.1 Q89.4 -105.6 90.05 -104.65 90.8 -102.85 91.5 -101.8 L91.35 -101.6 91.55 -101.65 92.7 -101.6 93.4 -101.0 92.95 -100.1 92.3 -99.4 91.1 -99.6 Q90.75 -100.15 90.7 -101.2 L90.0 -101.3 89.75 -100.95 Q89.35 -100.55 88.7 -100.4 L87.5 -101.6 87.5 -103.1 88.5 -103.15 M95.4 -100.8 L95.7 -99.6 96.0 -98.4 Q96.0 -98.0 95.4 -97.8 94.2 -98.0 93.0 -99.2 93.0 -100.75 93.8 -101.0 L95.4 -100.8 M40.75 -170.25 L39.8 -170.4 39.75 -169.7 Q39.65 -168.8 38.75 -168.05 L38.05 -169.1 Q37.5 -169.75 37.5 -170.5 L37.5 -171.25 38.4 -171.05 Q39.65 -171.05 39.0 -171.4 L38.85 -172.5 38.55 -173.55 39.0 -173.8 Q40.8 -172.0 40.8 -171.05 L40.75 -170.25 M0.6 -174.55 Q0.35 -174.55 0.25 -174.75 L0.25 -174.9 1.0 -174.75 Q0.9 -174.55 0.6 -174.55 M3.75 -171.65 L3.6 -171.5 3.0 -171.5 2.9 -171.75 3.35 -172.2 3.75 -172.0 3.75 -171.65 M0.0 -165.15 L-0.4 -165.15 -0.5 -165.5 Q-0.5 -166.4 1.6 -166.25 L0.9 -165.6 0.0 -165.15 M1.75 -167.05 L2.0 -167.15 2.25 -167.05 2.35 -166.9 1.85 -166.5 1.75 -167.05 M7.85 -149.55 Q8.8 -149.55 10.65 -150.45 L14.55 -150.2 14.5 -150.85 15.75 -151.6 Q16.9 -152.8 16.25 -155.15 L18.2 -155.1 Q19.25 -154.1 19.25 -152.9 L19.0 -149.15 18.45 -148.95 18.0 -148.55 Q17.05 -149.35 17.5 -150.3 L16.15 -150.2 14.75 -150.3 14.7 -150.15 15.05 -150.05 Q14.2 -149.45 11.85 -148.7 L9.3 -147.9 Q7.25 -147.15 7.1 -146.05 6.95 -145.3 6.0 -145.3 5.4 -145.3 4.9 -145.9 4.4 -146.55 3.75 -146.55 3.0 -146.55 -0.3 -145.2 -3.4 -143.95 -3.75 -144.05 L-5.75 -143.9 -6.1 -143.2 -6.5 -142.4 -7.45 -143.75 -7.5 -144.4 -8.05 -145.15 -8.35 -146.35 -8.25 -147.25 -8.0 -147.3 Q-6.95 -146.7 -6.5 -145.8 L-5.85 -146.2 -5.0 -146.9 Q-4.85 -146.2 -4.25 -145.8 L-3.1 -145.3 Q-2.3 -147.0 0.25 -147.15 0.95 -147.15 1.5 -147.55 L2.55 -148.3 Q3.3 -148.65 5.8 -147.8 5.55 -150.4 6.05 -150.3 L7.85 -149.55 M23.55 -90.45 L24.4 -91.75 24.65 -91.15 24.05 -89.85 26.25 -91.95 Q28.15 -93.9 30.25 -93.4 L25.05 -87.1 23.5 -87.4 22.25 -87.75 Q21.5 -87.75 21.4 -87.35 L21.3 -86.75 20.05 -86.85 Q20.9 -89.15 21.9 -89.65 L23.3 -89.8 23.55 -90.45 M10.1 -84.35 L10.65 -83.65 12.0 -83.6 Q11.6 -82.75 9.95 -82.25 L6.5 -81.25 4.65 -81.25 4.55 -82.35 Q4.55 -84.55 5.5 -85.1 L5.85 -83.9 6.25 -82.85 8.25 -83.85 10.1 -84.35 M0.5 -80.1 Q-0.05 -80.25 -0.25 -80.5 L1.45 -81.1 Q2.35 -81.3 1.55 -80.35 L1.3 -80.2 1.0 -80.0 0.5 -80.1 M15.35 -84.5 L14.95 -84.6 14.35 -85.0 16.7 -86.8 Q17.15 -87.0 18.1 -85.85 16.85 -84.95 15.35 -84.5 M112.9 -97.8 L111.8 -96.6 110.7 -95.4 Q110.7 -94.25 111.5 -93.6 L112.7 -92.4 112.3 -91.8 111.1 -93.55 Q110.65 -94.25 107.0 -94.0 L105.3 -94.8 Q104.2 -95.45 103.8 -96.2 L103.8 -96.4 104.8 -96.3 105.1 -96.3 104.2 -97.4 104.4 -98.4 111.3 -98.6 112.1 -98.95 Q112.9 -99.05 112.9 -97.8 M174.25 -190.2 L174.6 -188.4 Q174.35 -188.35 174.35 -188.5 L173.2 -188.8 Q171.95 -188.8 170.8 -188.25 L169.0 -187.3 Q168.6 -189.65 168.0 -190.6 L171.25 -191.15 Q173.05 -191.35 173.6 -192.0 L174.25 -190.2 M-36.05 -170.4 L-36.15 -170.25 -36.6 -170.25 -37.1 -170.3 -37.15 -170.5 -36.5 -170.75 -36.05 -170.4 M-37.4 -170.05 Q-36.8 -169.9 -36.75 -169.75 L-36.8 -169.5 -37.2 -169.55 -37.75 -169.75 -37.65 -170.05 -37.4 -170.05 M-36.5 -164.4 Q-36.5 -165.05 -36.25 -164.9 -35.75 -164.7 -35.75 -164.4 L-35.8 -164.0 -36.3 -164.0 -36.4 -163.95 -36.5 -164.4 M-35.0 -161.55 L-35.8 -161.65 Q-35.4 -162.6 -35.4 -163.3 L-35.15 -163.3 Q-34.8 -163.1 -34.8 -162.4 L-33.5 -162.4 Q-34.25 -161.55 -35.0 -161.55 M-33.05 -161.55 Q-33.35 -161.55 -33.5 -161.75 L-33.15 -162.0 -32.75 -161.75 -33.05 -161.55 M-22.25 -159.9 L-23.15 -160.15 Q-22.7 -160.8 -21.55 -160.5 L-22.25 -159.9 M-24.75 -160.25 L-25.25 -160.15 -26.15 -160.75 -25.05 -161.0 -24.75 -160.4 -24.75 -160.25 M-7.8 -161.75 L-8.15 -161.75 -8.25 -162.4 -7.65 -162.25 Q-7.65 -161.9 -7.8 -161.75 M-11.95 -160.95 L-12.0 -161.35 -12.0 -161.7 Q-11.95 -161.65 -11.9 -161.75 L-11.5 -161.75 Q-11.5 -162.05 -11.4 -161.75 L-11.25 -161.75 -10.05 -161.55 -11.25 -160.9 -11.9 -161.0 -11.95 -160.95 M-12.55 -161.15 L-13.25 -160.65 Q-13.75 -160.8 -13.75 -161.3 -13.4 -161.55 -12.65 -161.3 L-12.55 -161.15 M-69.6 -164.6 Q-69.6 -163.85 -70.1 -163.45 L-70.6 -163.05 -70.6 -162.9 -68.9 -163.15 -67.75 -163.3 Q-66.95 -163.3 -66.9 -162.85 L-67.1 -162.15 -63.35 -160.55 -63.25 -160.0 -64.4 -158.9 Q-64.95 -158.2 -65.75 -158.05 -66.3 -159.3 -68.45 -160.25 -70.35 -161.15 -71.75 -161.15 -72.45 -161.15 -72.4 -161.4 L-72.35 -161.8 -72.5 -162.35 -71.45 -164.05 -69.85 -165.15 Q-69.6 -165.85 -69.6 -164.6 M-52.75 -156.15 L-51.85 -156.3 -51.3 -155.6 Q-51.15 -156.1 -51.1 -155.3 L-50.5 -154.65 Q-49.35 -153.45 -47.0 -154.9 L-46.65 -153.8 -46.6 -152.8 -46.25 -153.4 Q-46.0 -153.9 -45.25 -153.9 L-44.25 -153.8 Q-44.0 -154.5 -44.0 -153.25 -44.0 -152.65 -44.8 -151.1 L-45.75 -149.55 -45.75 -150.2 Q-45.75 -150.55 -46.5 -150.55 -46.9 -150.55 -49.6 -152.15 L-51.65 -153.5 -52.25 -152.55 -52.75 -152.55 -53.0 -152.9 -53.0 -153.8 -53.25 -153.05 -54.25 -153.05 -54.35 -152.95 -54.5 -153.8 -54.3 -154.55 -54.35 -154.9 -52.85 -156.55 -52.75 -156.15 M-11.65 -84.6 L-10.15 -83.4 -8.05 -81.5 -8.25 -81.55 -9.15 -81.75 -9.15 -81.6 -8.7 -81.25 -8.4 -81.0 -8.2 -80.85 -7.8 -80.6 -7.85 -80.4 -7.65 -80.05 Q-7.0 -79.0 -7.0 -78.4 L-11.9 -78.0 -12.55 -78.15 -13.25 -78.65 Q-12.9 -78.95 -12.95 -79.65 L-12.9 -79.7 -14.5 -80.7 Q-16.6 -81.15 -17.5 -81.75 L-17.6 -82.1 -15.25 -82.15 -14.0 -82.0 -11.3 -82.1 -10.95 -82.3 Q-10.65 -82.35 -10.65 -83.1 -10.65 -83.85 -11.1 -84.2 L-11.65 -84.6 M-12.9 -80.95 L-12.9 -81.0 -13.0 -81.0 -12.9 -80.95 M-3.75 -78.65 L-4.85 -78.85 -5.75 -79.35 -4.4 -80.5 -2.85 -80.1 Q-3.05 -79.6 -3.75 -78.65 M-56.4 -78.5 L-56.9 -78.15 -57.65 -78.2 Q-58.45 -78.3 -58.6 -78.5 L-58.15 -79.0 -56.4 -78.5 M-52.55 -78.15 L-47.5 -77.4 -47.75 -77.25 -51.15 -77.15 -52.05 -77.25 Q-52.95 -77.4 -53.05 -77.65 L-52.55 -78.15 M-45.25 -77.65 L-45.9 -77.75 -46.55 -78.15 -45.5 -78.5 -44.5 -78.4 Q-44.85 -77.8 -45.25 -77.65 M-67.55 -90.5 L-67.55 -89.75 -68.55 -89.05 -69.05 -89.3 -68.8 -90.05 Q-68.5 -90.55 -67.55 -90.5 M-69.5 -87.6 Q-69.5 -86.65 -69.05 -85.75 L-68.3 -84.35 -68.15 -84.3 -68.9 -84.25 Q-69.85 -84.25 -70.5 -86.3 -70.5 -87.55 -70.3 -87.6 L-69.5 -87.6 M-67.05 -83.85 L-66.75 -82.35 -66.85 -82.15 -67.3 -81.85 -68.55 -83.35 -68.3 -83.75 -68.05 -84.0 -67.05 -83.85" fill="#ffffff" fill-rule="evenodd" stroke="none"/>
  </g>
</svg>
