<?xml version="1.0" encoding="UTF-8" standalone="no"?>
<svg xmlns:ffdec="https://www.free-decompiler.com/flash" xmlns:xlink="http://www.w3.org/1999/xlink" ffdec:objectType="shape" height="178.55px" width="406.4px" xmlns="http://www.w3.org/2000/svg">
  <g transform="matrix(1.0, 0.0, 0.0, 1.0, 215.9, 209.95)">
    <path d="M165.45 -199.5 L167.85 -198.15 Q169.7 -197.25 174.4 -196.55 L175.45 -195.55 176.0 -194.45 175.5 -193.7 175.5 -193.65 175.65 -190.5 Q175.65 -186.4 174.7 -178.55 173.7 -170.7 173.7 -161.6 173.7 -150.9 175.55 -143.4 177.35 -135.85 177.35 -124.9 177.35 -118.95 176.7 -113.05 175.95 -106.7 175.7 -98.9 L177.35 -101.0 178.35 -100.9 178.55 -100.7 178.55 -100.0 178.25 -98.4 177.95 -96.9 185.6 -99.35 185.05 -98.8 185.4 -99.15 185.7 -99.25 186.2 -98.75 Q186.05 -98.0 184.45 -96.95 L185.25 -97.25 185.3 -97.25 186.15 -97.55 185.95 -97.15 185.1 -95.15 Q184.55 -94.4 184.1 -93.35 L183.55 -92.2 Q182.2 -89.4 182.2 -88.65 L182.3 -87.85 Q182.35 -87.35 182.5 -87.3 L182.7 -87.45 183.75 -87.7 186.3 -88.5 187.45 -88.9 190.5 -89.75 186.55 -86.4 182.85 -82.75 182.0 -82.35 179.3 -80.95 176.45 -78.9 174.5 -77.35 174.05 -76.85 174.15 -76.9 172.95 -75.85 172.05 -74.8 171.95 -74.7 171.75 -74.5 171.55 -74.25 171.5 -74.15 171.4 -74.1 170.2 -73.25 170.25 -73.2 170.3 -73.1 170.4 -72.95 169.85 -72.55 168.6 -71.55 168.15 -71.0 163.55 -67.55 161.15 -65.35 160.85 -65.05 158.45 -63.15 154.9 -60.05 153.55 -58.8 153.45 -58.65 Q149.85 -57.8 148.05 -56.85 L135.75 -53.4 130.15 -53.0 124.5 -52.9 121.15 -53.4 120.6 -53.5 117.15 -54.15 115.8 -53.9 115.8 -53.4 115.75 -52.9 115.8 -52.15 Q116.0 -51.55 118.0 -50.85 L114.6 -50.05 111.4 -49.2 110.15 -48.7 109.15 -48.5 109.05 -48.45 108.55 -48.3 108.25 -48.15 105.75 -47.4 105.15 -47.35 105.1 -47.35 104.05 -47.2 103.35 -47.1 103.3 -47.05 Q102.4 -46.0 98.35 -45.35 L98.15 -45.35 97.9 -45.35 97.7 -45.35 97.5 -45.35 94.05 -45.15 91.9 -44.75 86.25 -42.9 85.5 -42.7 Q84.6 -41.5 83.55 -41.35 L78.9 -41.5 77.55 -41.25 77.45 -41.25 77.15 -41.25 76.2 -41.25 75.9 -41.25 76.55 -41.35 63.1 -40.5 Q56.6 -39.0 55.5 -38.05 L44.0 -36.45 43.9 -36.45 43.75 -36.45 42.65 -36.45 36.0 -35.9 32.25 -35.5 29.25 -35.1 Q21.1 -34.1 18.0 -33.2 L7.85 -32.0 5.4 -31.7 2.9 -31.7 Q-1.45 -32.15 -4.9 -31.65 L-20.55 -31.55 -27.5 -31.9 -35.6 -31.6 -36.25 -31.55 -37.35 -31.4 -43.6 -32.0 -43.7 -32.3 Q-63.2 -32.65 -76.9 -34.35 L-85.2 -34.4 -87.0 -34.5 -85.6 -34.05 -88.95 -34.7 -89.7 -34.85 -90.0 -34.95 -95.0 -35.85 -100.7 -37.0 -98.5 -36.8 -99.9 -37.5 -101.3 -38.25 -102.5 -38.9 -105.0 -39.4 -114.15 -41.35 -118.1 -41.5 -120.55 -42.9 Q-123.25 -44.45 -125.55 -45.4 L-126.35 -45.7 -121.7 -45.45 Q-124.3 -47.55 -131.2 -49.45 -136.55 -51.05 -141.75 -51.5 -143.6 -53.0 -148.25 -54.65 L-148.5 -54.75 -149.3 -54.95 -149.45 -55.05 -154.25 -56.55 -157.35 -58.2 -158.4 -58.65 -157.8 -58.6 Q-158.95 -59.25 -161.25 -60.3 L-161.85 -60.6 -161.9 -60.6 -163.6 -61.35 -164.55 -61.7 -164.6 -61.7 -164.65 -61.55 -166.0 -61.95 -172.3 -64.0 -172.4 -64.0 -172.65 -64.1 -175.6 -64.9 -175.9 -64.9 -176.45 -65.05 -177.5 -65.4 -177.95 -65.55 Q-179.4 -66.1 -180.35 -66.7 L-180.75 -67.0 -181.85 -68.1 -182.05 -68.3 -183.1 -69.1 -183.3 -69.6 -182.6 -69.15 -182.4 -69.05 -180.25 -67.75 -180.25 -68.3 Q-181.55 -70.2 -183.15 -71.9 L-183.75 -72.55 Q-186.7 -75.6 -190.5 -78.35 L-191.75 -79.1 Q-192.7 -81.0 -194.9 -83.1 L-195.0 -83.15 Q-195.6 -83.8 -196.35 -84.3 L-196.45 -84.45 -197.4 -85.15 -197.95 -85.55 -205.15 -90.2 Q-202.8 -90.1 -199.7 -88.75 L-199.25 -88.8 -201.95 -91.2 -203.3 -92.5 -204.6 -93.95 -206.35 -95.05 -206.95 -95.45 -209.95 -96.95 -210.15 -97.3 -211.05 -97.85 -211.4 -97.8 -212.6 -99.45 -215.9 -103.9 -213.15 -104.7 -211.8 -105.5 -211.75 -105.5 -209.4 -105.7 -203.5 -106.85 -203.4 -106.85 -202.95 -106.6 -202.5 -106.7 -199.25 -104.2 -198.45 -103.55 -199.15 -104.55 -199.4 -104.95 -199.1 -104.7 Q-195.55 -102.3 -189.85 -98.85 -183.5 -95.05 -178.5 -92.75 L-178.3 -92.7 -177.5 -92.35 -177.3 -92.3 -177.15 -92.2 -176.9 -92.0 -176.0 -91.5 -175.6 -91.3 -175.45 -91.2 -173.5 -90.05 -170.55 -89.05 -164.35 -88.15 -155.7 -87.45 -152.1 -87.6 -151.05 -87.65 -142.85 -89.1 -133.5 -90.25 -127.4 -89.3 -122.3 -88.6 -122.1 -88.55 -113.45 -90.1 -112.2 -90.55 -112.15 -90.55 Q-109.2 -89.35 -108.3 -89.35 L-97.3 -90.25 Q-95.8 -90.55 -94.05 -91.2 L-90.85 -92.95 -88.05 -94.35 -87.75 -94.45 -86.0 -95.15 -85.35 -95.8 -85.55 -95.9 -85.4 -96.1 -84.5 -95.8 Q-82.0 -97.2 -80.4 -97.5 L-79.7 -98.4 Q-78.55 -99.55 -78.0 -101.3 -77.25 -103.65 -77.25 -105.65 -76.7 -110.25 -76.55 -114.05 -76.5 -116.75 -76.75 -122.6 -76.7 -126.8 -75.65 -129.6 L-76.1 -130.1 -76.5 -130.4 Q-77.35 -130.4 -81.5 -127.75 -82.0 -128.05 -82.0 -128.8 -82.0 -129.75 -79.05 -130.7 -76.15 -131.65 -76.15 -133.3 L-76.4 -133.7 -76.65 -134.1 -76.5 -134.7 -76.15 -135.0 -76.25 -135.3 -76.4 -135.9 -75.95 -136.85 Q-75.5 -137.6 -75.5 -138.0 L-76.6 -139.2 Q-77.75 -140.2 -77.75 -140.75 -77.75 -141.4 -77.5 -141.25 L-75.15 -139.1 Q-75.15 -142.55 -74.55 -146.3 -74.0 -150.2 -74.0 -151.7 L-74.5 -159.25 Q-74.5 -164.8 -71.55 -167.35 L-67.05 -170.85 -61.1 -175.9 -61.25 -176.0 Q-60.05 -178.95 -55.4 -181.75 -50.65 -184.65 -43.75 -186.5 -42.0 -186.95 -37.5 -188.55 L-31.25 -190.65 Q-22.45 -193.1 -14.0 -194.55 L-14.0 -194.7 -12.35 -194.65 -6.05 -194.2 -5.75 -194.05 -5.0 -193.75 -5.0 -193.7 0.1 -192.15 7.75 -189.15 15.0 -186.75 23.25 -184.15 Q32.1 -181.25 36.0 -178.9 36.8 -178.5 38.95 -175.7 41.0 -173.0 41.25 -171.75 L42.25 -168.85 Q42.95 -166.2 43.25 -162.0 L43.9 -155.1 44.5 -148.45 Q44.5 -147.15 45.3 -143.05 L46.25 -138.4 46.2 -138.35 46.45 -136.75 46.85 -133.05 46.85 -132.4 48.25 -123.15 Q49.35 -115.8 50.9 -110.2 51.85 -109.6 52.9 -109.6 L54.25 -110.4 55.4 -111.35 56.1 -110.9 56.3 -110.5 58.75 -113.5 Q60.0 -115.45 60.65 -115.85 61.05 -113.3 61.45 -112.7 62.8 -110.5 66.8 -110.5 L72.25 -110.9 77.9 -111.5 78.7 -111.2 81.9 -110.45 Q81.5 -110.85 81.5 -111.55 81.5 -112.2 81.75 -112.35 L82.3 -112.5 84.0 -112.5 84.3 -111.6 Q83.45 -110.15 82.9 -110.15 L82.75 -110.15 83.85 -109.55 84.35 -108.95 86.15 -106.4 86.2 -106.3 86.4 -106.0 87.6 -105.85 87.8 -105.1 87.75 -104.8 89.05 -103.75 90.25 -102.8 90.35 -103.0 91.95 -102.9 92.35 -102.3 92.25 -101.7 93.25 -102.6 93.25 -102.55 93.85 -104.6 Q93.6 -106.15 93.95 -109.2 93.95 -110.15 93.2 -111.05 92.4 -112.0 92.25 -113.35 L92.15 -112.55 91.85 -112.35 Q91.15 -114.2 91.15 -114.95 L91.55 -121.2 91.85 -125.4 Q91.35 -127.85 91.35 -130.5 91.35 -135.65 92.15 -143.95 93.05 -153.1 93.15 -156.9 93.6 -172.9 95.8 -182.85 96.0 -181.95 95.85 -180.4 L95.7 -177.75 Q96.55 -179.6 97.0 -182.75 L97.85 -188.3 Q99.2 -195.15 104.35 -198.85 L102.2 -198.95 100.8 -197.85 100.7 -198.3 Q101.45 -199.35 102.4 -199.75 L101.6 -199.9 Q102.75 -200.55 106.5 -201.2 L110.95 -202.0 Q113.7 -202.8 114.2 -203.3 L115.15 -204.7 Q116.75 -206.5 119.85 -207.3 126.1 -208.95 127.65 -209.55 L139.2 -209.75 139.6 -209.95 146.85 -209.65 Q155.2 -208.35 158.25 -207.3 163.2 -205.65 165.45 -202.2 L165.45 -199.5 M151.1 -190.05 L147.55 -190.05 136.3 -190.75 134.8 -190.85 133.1 -191.15 Q128.45 -191.35 126.5 -192.1 L125.6 -192.4 Q116.9 -191.7 114.4 -183.35 113.55 -180.65 113.0 -175.25 112.4 -169.75 111.85 -167.75 L111.85 -151.0 Q111.25 -147.35 111.15 -139.7 111.05 -131.8 110.55 -128.35 110.25 -126.15 110.45 -122.8 L110.65 -120.85 110.45 -114.45 110.35 -114.1 109.75 -111.35 109.75 -108.5 110.15 -105.15 110.2 -104.95 Q110.3 -102.7 110.9 -99.45 L111.9 -95.05 111.95 -95.0 112.05 -94.45 Q112.55 -92.45 113.4 -91.7 L113.05 -91.4 Q117.45 -90.25 120.75 -90.25 L122.5 -90.3 123.15 -90.25 132.5 -89.6 133.05 -89.5 Q133.2 -90.1 133.75 -89.35 135.05 -89.15 136.2 -88.35 138.1 -87.6 143.75 -87.6 L144.55 -87.6 147.7 -88.35 150.0 -88.95 153.3 -89.75 166.55 -93.45 166.5 -93.5 Q165.95 -94.0 165.95 -94.3 165.95 -94.85 166.2 -94.8 L166.95 -94.7 Q166.05 -95.7 165.3 -97.1 164.4 -98.7 164.45 -99.5 L164.45 -99.9 Q164.45 -100.1 165.05 -100.1 166.1 -100.1 168.15 -98.9 L170.8 -96.95 170.8 -97.3 Q170.8 -97.8 171.4 -98.15 L171.5 -99.25 Q171.5 -101.2 170.5 -109.15 169.45 -117.4 168.9 -119.1 L168.0 -118.6 167.4 -133.05 167.75 -138.45 167.7 -142.2 Q167.7 -148.05 167.85 -150.0 168.05 -153.25 169.1 -158.45 L169.75 -167.0 170.0 -174.55 Q170.0 -179.65 169.05 -184.25 168.15 -188.75 166.6 -190.7 L166.25 -190.45 163.85 -191.35 162.25 -191.85 156.0 -191.1 151.1 -190.05 M96.3 -188.35 Q96.3 -191.05 97.25 -193.65 98.35 -196.8 100.3 -197.75 98.75 -195.7 98.05 -192.35 97.2 -188.35 96.6 -187.1 L96.35 -187.4 96.3 -188.35 M111.05 -149.05 L111.0 -151.15 Q110.8 -152.45 109.95 -153.4 109.05 -152.7 109.05 -149.4 109.05 -146.6 109.45 -144.65 L110.65 -145.05 111.05 -149.05 M88.9 -112.25 Q90.35 -111.1 90.35 -110.2 L90.25 -109.15 90.15 -109.0 89.45 -108.85 Q88.4 -108.85 87.8 -110.25 L87.4 -111.6 Q87.4 -113.35 88.9 -112.25 M40.9 -157.75 Q40.55 -161.55 38.55 -166.25 36.1 -172.05 33.5 -172.05 29.75 -172.05 27.05 -169.9 L24.0 -167.0 Q22.2 -165.65 21.15 -164.2 20.15 -162.75 20.15 -161.5 22.0 -159.6 22.0 -155.55 20.75 -139.8 20.75 -136.65 20.75 -132.55 21.25 -128.6 L22.4 -119.3 23.25 -115.0 Q23.35 -114.35 24.0 -113.05 L25.0 -110.8 Q26.0 -108.05 26.0 -102.3 L25.6 -92.55 25.45 -91.1 25.5 -91.05 26.0 -90.35 Q27.6 -90.3 29.0 -91.1 30.25 -91.85 30.5 -91.75 L32.35 -91.35 37.95 -93.75 41.75 -96.5 Q42.65 -97.05 44.35 -99.3 L45.9 -101.15 46.0 -102.0 46.25 -105.55 46.35 -112.75 45.9 -117.75 45.4 -122.9 Q44.6 -124.6 44.6 -127.75 L44.85 -131.0 45.0 -131.0 45.4 -129.0 45.4 -129.15 45.9 -131.75 Q45.9 -133.4 45.15 -137.9 L44.4 -141.05 43.6 -142.7 43.4 -143.05 43.35 -143.05 43.3 -143.25 Q43.15 -143.7 43.15 -144.05 L43.15 -144.15 42.05 -150.4 Q41.2 -154.8 40.9 -157.75 M44.0 -132.25 L43.6 -132.0 43.15 -132.05 Q43.0 -132.25 43.0 -132.85 43.0 -133.6 43.4 -133.8 43.8 -134.0 44.25 -132.65 L44.0 -132.25 M59.85 -112.95 L59.9 -113.25 59.8 -113.5 59.85 -112.95 M32.8 -96.75 L32.15 -96.1 31.65 -96.1 31.4 -96.25 31.3 -97.05 Q31.3 -98.3 31.4 -97.85 L32.15 -97.85 Q32.8 -97.3 32.8 -96.75 M123.7 -94.65 L124.3 -94.75 124.7 -93.85 124.6 -93.25 Q124.3 -92.95 123.8 -92.95 L123.55 -93.15 123.5 -93.85 123.7 -94.65 M125.5 -94.55 L124.7 -94.35 Q124.5 -94.65 124.5 -95.75 L125.1 -95.75 125.5 -94.55 M85.7 -43.05 L85.8 -43.1 85.75 -43.15 85.7 -43.05 M-37.75 -153.25 L-38.3 -153.25 Q-43.05 -151.35 -44.65 -144.9 L-45.8 -135.4 Q-45.9 -134.6 -46.45 -133.15 L-47.15 -130.9 -47.9 -126.4 Q-48.4 -122.35 -48.4 -117.65 -48.5 -112.1 -48.05 -109.3 -47.25 -103.65 -46.25 -101.25 -44.95 -98.0 -44.5 -93.2 L-44.3 -85.05 -44.3 -82.85 Q-43.45 -81.7 -42.15 -80.9 -39.55 -79.3 -32.9 -77.65 -30.0 -77.4 -25.7 -77.55 L-24.2 -77.95 Q-17.2 -79.6 -16.5 -80.1 L-12.5 -79.85 Q-10.6 -80.25 -9.55 -81.55 -8.5 -86.55 -8.5 -87.6 -8.5 -89.9 -9.55 -93.75 -10.8 -98.15 -11.0 -100.3 L-11.45 -104.55 Q-10.85 -104.1 -10.0 -104.1 -8.9 -104.1 -7.75 -107.75 -6.8 -110.85 -6.8 -112.4 -6.8 -128.7 -8.3 -136.45 L-8.25 -139.45 -8.75 -143.9 Q-8.75 -145.0 -10.45 -147.3 -12.05 -149.4 -12.75 -149.75 L-14.9 -151.25 Q-16.4 -152.15 -20.25 -152.25 L-26.9 -152.85 -31.5 -153.9 -37.25 -153.4 -37.3 -153.3 -37.75 -153.25 M-64.5 -148.75 L-65.25 -140.95 -65.65 -134.95 Q-65.65 -134.2 -66.35 -131.4 L-67.05 -127.65 -67.5 -124.25 -68.0 -121.15 -68.55 -117.95 -69.05 -114.75 Q-69.55 -108.25 -69.55 -102.2 L-69.6 -99.95 -69.55 -97.3 -68.5 -95.2 -65.3 -90.85 -58.6 -87.9 -58.5 -87.8 -58.3 -88.0 -57.5 -88.2 -57.5 -90.9 Q-56.9 -91.05 -56.9 -90.55 -55.5 -93.25 -55.15 -96.85 -55.0 -98.35 -55.0 -103.25 L-55.25 -109.15 -56.25 -115.0 -55.75 -124.25 -56.5 -148.25 Q-56.5 -152.55 -54.7 -155.45 -52.9 -158.35 -52.9 -158.9 -52.9 -159.5 -53.45 -160.65 -54.25 -162.15 -55.25 -162.15 L-57.85 -161.5 -59.5 -160.95 Q-62.4 -158.85 -63.4 -155.8 L-64.5 -148.75 M-96.15 -94.6 L-96.9 -95.35 -96.55 -96.1 Q-96.15 -96.55 -95.65 -96.6 L-94.65 -95.5 -94.8 -95.1 -96.15 -94.6 M-10.05 -79.3 L-10.3 -79.2 -10.1 -79.2 -10.05 -79.3 M-57.75 -96.5 L-58.25 -96.25 -58.6 -96.3 -58.75 -96.8 -58.45 -97.35 -58.05 -97.5 -57.8 -97.3 -57.75 -96.8 -57.75 -96.5 M-58.25 -94.75 Q-57.25 -94.35 -57.25 -93.55 -57.25 -92.95 -57.5 -92.55 -57.8 -92.0 -58.35 -92.0 -59.55 -92.0 -59.25 -93.25 -59.25 -93.95 -58.65 -94.5 L-58.25 -94.75 M-69.5 -93.4 L-69.55 -93.5 -69.4 -93.1 -69.3 -93.05 -69.5 -93.4" fill="#9afaf0" fill-opacity="0.8" fill-rule="evenodd" stroke="none"/>
    <path d="M114.25 -190.3 Q115.95 -191.6 117.1 -191.8 114.25 -187.4 113.7 -187.1 L112.5 -187.3 112.3 -188.5 112.1 -188.4 110.1 -188.6 Q108.35 -191.6 106.9 -191.95 L105.0 -191.8 Q103.95 -191.8 103.2 -192.2 102.35 -192.7 101.4 -192.8 L101.2 -193.7 103.6 -196.0 Q104.45 -194.15 105.05 -194.05 L108.6 -193.8 110.2 -193.2 111.9 -191.8 112.7 -191.5 114.7 -191.0 114.1 -190.15 114.25 -190.3 M85.0 -102.25 Q85.0 -101.8 83.5 -101.7 L83.4 -101.5 84.05 -100.65 85.7 -99.7 Q85.15 -99.15 84.4 -98.95 L84.8 -98.45 87.1 -98.15 88.1 -97.75 Q87.35 -97.4 86.5 -97.35 L87.3 -96.6 Q88.35 -94.9 88.55 -94.75 88.85 -94.45 90.5 -93.55 L91.15 -93.15 91.45 -93.35 92.25 -93.45 Q93.25 -93.45 93.7 -92.6 94.1 -91.75 95.55 -91.75 L96.0 -92.35 96.65 -93.05 97.2 -91.8 97.0 -91.15 97.3 -90.85 104.1 -90.0 Q104.7 -90.0 104.85 -90.5 L105.1 -91.45 105.95 -90.3 Q106.2 -89.8 106.8 -89.8 L108.85 -90.2 110.55 -90.75 110.95 -90.6 111.65 -90.85 Q110.95 -91.55 110.95 -92.05 111.35 -92.15 111.35 -92.25 L114.2 -90.4 113.55 -89.5 111.85 -89.5 111.05 -89.9 110.45 -89.4 Q109.25 -88.6 107.35 -88.6 L102.4 -88.7 96.25 -90.5 93.9 -90.7 Q93.2 -90.7 92.55 -91.55 L91.9 -92.25 88.85 -93.15 88.3 -93.65 Q88.0 -94.0 88.0 -94.65 88.0 -95.0 86.0 -96.15 84.05 -97.3 83.2 -97.45 82.75 -97.9 82.35 -98.95 81.9 -99.95 81.9 -100.4 81.9 -101.65 83.0 -102.55 84.2 -103.6 85.7 -102.9 85.0 -102.8 85.0 -102.25 M82.9 -100.15 L82.85 -100.6 82.7 -100.5 82.9 -100.15 M41.5 -168.8 L41.3 -167.65 39.25 -167.55 Q38.6 -167.55 38.55 -168.3 38.5 -169.25 38.05 -169.55 39.9 -170.85 39.25 -172.55 L39.55 -172.55 Q40.35 -172.15 40.8 -170.65 L41.5 -168.8 M10.05 -149.3 L10.95 -149.45 12.25 -149.8 Q12.85 -149.95 13.25 -150.8 13.7 -151.7 13.5 -152.8 L17.0 -152.55 Q17.5 -152.55 18.25 -153.5 19.0 -154.45 19.0 -155.3 L19.75 -155.3 20.2 -154.75 20.5 -153.6 20.25 -152.2 19.8 -151.15 Q19.45 -151.1 19.2 -151.4 L19.0 -151.8 17.3 -150.7 Q15.8 -149.8 15.0 -149.8 14.25 -149.8 14.25 -149.25 L14.3 -148.15 10.8 -147.35 6.5 -145.9 6.1 -146.0 5.5 -146.4 6.85 -147.55 Q7.85 -148.3 8.3 -148.3 9.0 -148.3 9.35 -148.8 L10.05 -149.3 M3.95 -145.2 Q3.25 -144.45 1.8 -145.55 1.55 -145.55 1.55 -144.4 L-0.85 -144.35 -1.5 -144.65 -3.6 -143.7 Q-5.75 -142.75 -6.25 -142.65 -6.45 -144.35 -6.85 -144.9 L-6.25 -145.65 Q-5.6 -145.65 -5.6 -144.9 L-3.9 -145.6 -2.1 -146.05 Q-0.6 -146.05 1.75 -148.3 2.3 -147.45 3.0 -147.05 3.65 -146.65 5.0 -146.4 L3.95 -145.2 M32.75 -87.5 Q32.5 -87.1 30.75 -87.0 L30.35 -87.15 Q29.95 -87.4 29.9 -87.6 L30.45 -87.8 30.75 -88.0 32.75 -87.5 M28.65 -80.75 Q30.7 -80.85 31.25 -81.25 32.0 -81.8 32.55 -82.75 L33.0 -83.85 32.9 -84.7 32.85 -84.85 32.15 -85.0 Q31.4 -85.25 31.25 -85.5 L31.9 -86.15 34.0 -85.85 34.5 -85.25 34.75 -84.0 Q34.75 -82.65 33.05 -81.05 30.9 -79.0 27.75 -79.0 25.0 -76.85 19.75 -75.75 13.5 -74.45 11.85 -73.65 5.4 -73.15 4.6 -72.55 3.8 -71.9 -3.0 -71.3 -9.7 -71.85 -10.65 -72.9 L-11.15 -72.5 Q-11.65 -72.25 -11.65 -73.05 -11.65 -74.3 -11.4 -73.3 L-9.5 -72.5 Q-8.15 -71.9 -6.0 -71.9 -3.4 -71.9 -3.0 -72.3 L2.55 -72.55 4.4 -75.5 5.9 -74.05 9.45 -74.45 Q11.45 -74.75 11.35 -75.0 12.5 -75.1 12.75 -75.8 L21.0 -76.65 Q21.45 -77.0 21.4 -78.0 L25.3 -78.65 26.05 -80.75 28.65 -80.75 M174.0 -189.6 Q174.0 -188.45 173.15 -188.45 171.95 -188.45 171.2 -187.3 170.3 -187.55 169.85 -188.25 L169.0 -190.0 Q169.7 -190.65 171.3 -191.0 172.7 -191.3 173.6 -192.6 174.0 -191.4 174.0 -189.6 M180.25 -95.95 Q181.55 -95.75 181.7 -95.45 L181.55 -95.15 177.15 -95.05 176.8 -95.6 176.75 -95.55 176.35 -95.2 176.65 -95.1 178.35 -94.25 179.55 -93.75 178.15 -93.7 176.75 -93.85 Q176.15 -93.85 175.8 -93.5 L175.35 -93.05 173.05 -93.15 Q172.15 -93.15 171.85 -92.25 171.5 -91.05 171.0 -90.75 L170.2 -92.1 Q169.6 -93.05 168.85 -93.05 L166.7 -92.5 164.4 -91.95 163.65 -92.0 163.65 -92.05 163.55 -92.5 Q164.2 -93.0 168.2 -95.35 L168.25 -95.35 168.35 -95.5 167.5 -95.8 166.4 -96.15 165.55 -97.45 Q165.0 -98.25 165.1 -98.7 L166.95 -97.2 Q167.85 -96.55 169.0 -96.55 L169.8 -96.35 170.25 -96.05 170.3 -96.05 Q170.4 -96.25 170.45 -96.05 L172.05 -96.0 172.1 -96.1 172.95 -96.15 173.8 -96.05 173.9 -96.0 174.3 -95.95 Q174.4 -96.6 175.25 -97.0 L176.6 -97.35 176.8 -98.15 Q177.35 -99.8 178.25 -99.9 L177.4 -96.25 180.25 -95.95 M174.15 -94.2 L174.55 -94.05 174.55 -94.3 174.15 -94.2 M168.95 -94.0 L168.75 -94.05 168.5 -93.85 169.5 -93.9 168.95 -94.0 M170.95 -93.85 L171.2 -92.95 172.1 -93.9 170.95 -93.85 M-62.25 -161.8 L-65.0 -158.55 -67.5 -160.9 Q-68.8 -161.15 -69.4 -161.5 -70.5 -162.2 -70.85 -163.8 L-72.75 -162.15 -72.85 -162.75 Q-72.4 -164.15 -71.5 -164.8 L-70.35 -165.05 Q-68.65 -163.55 -67.45 -162.75 -65.25 -161.3 -63.0 -162.15 -62.35 -162.05 -62.25 -161.8 M-51.85 -155.6 Q-51.25 -155.35 -50.55 -154.6 -49.4 -153.4 -48.75 -153.4 -47.95 -153.4 -47.2 -153.8 L-46.0 -154.55 -45.15 -154.5 Q-44.85 -154.45 -44.85 -153.65 -44.85 -153.0 -45.35 -152.8 L-45.8 -152.25 -45.75 -152.35 -45.5 -152.4 -44.25 -152.4 -44.1 -152.5 -44.0 -151.75 Q-44.0 -151.15 -44.15 -150.7 L-44.1 -150.05 -44.0 -149.9 -44.25 -149.45 -45.25 -149.3 Q-45.95 -149.3 -47.45 -150.55 L-49.5 -152.3 -51.75 -152.65 -52.1 -153.45 -52.35 -154.05 -52.5 -153.9 -53.05 -154.0 -53.5 -153.55 -54.25 -153.65 -54.35 -154.4 -54.25 -155.55 -52.5 -155.8 -51.85 -155.65 -51.85 -155.6 M-47.8 -100.7 L-46.8 -97.9 -46.75 -97.6 -47.5 -97.5 Q-48.1 -97.5 -48.95 -97.95 L-50.0 -98.15 -50.05 -99.5 Q-50.05 -100.3 -49.5 -101.7 L-48.55 -103.5 -47.8 -100.7 M-52.05 -99.65 L-50.9 -98.4 -52.15 -97.65 Q-52.55 -97.9 -52.55 -99.65 L-52.05 -99.65 M-53.05 -100.0 Q-52.8 -99.4 -52.8 -97.75 L-53.65 -97.15 -54.0 -97.35 -54.05 -98.35 -53.9 -99.9 -53.05 -100.0 M-15.75 -76.15 L-13.75 -73.15 -13.9 -72.9 Q-15.6 -73.15 -16.05 -73.85 -16.25 -74.1 -16.25 -75.0 L-16.1 -76.15 -15.75 -76.15" fill="#ffffff" fill-rule="evenodd" stroke="none"/>
  </g>
</svg>
