<?xml version="1.0" encoding="UTF-8" standalone="no"?>
<svg xmlns:ffdec="https://www.free-decompiler.com/flash" xmlns:xlink="http://www.w3.org/1999/xlink" ffdec:objectType="shape" height="162.9px" width="406.4px" xmlns="http://www.w3.org/2000/svg">
  <g transform="matrix(1.0, 0.0, 0.0, 1.0, 215.9, 194.3)">
    <path d="M86.2 -106.3 L86.45 -105.95 88.0 -103.0 88.6 -103.0 Q89.2 -102.1 90.45 -101.15 92.25 -99.8 94.75 -99.05 97.55 -97.8 100.95 -97.75 108.6 -96.6 114.3 -94.0 117.4 -92.6 120.0 -90.6 L127.0 -88.2 131.45 -87.7 137.75 -87.25 143.65 -87.4 145.55 -87.85 Q147.55 -88.55 150.4 -89.75 L151.05 -90.0 Q151.15 -90.5 152.1 -91.8 153.3 -93.5 154.25 -93.85 L154.5 -92.0 154.5 -91.25 157.5 -92.0 Q157.55 -91.9 158.55 -91.15 L171.95 -95.05 185.6 -99.35 185.05 -98.8 185.4 -99.15 185.7 -99.25 186.2 -98.75 Q186.05 -98.0 184.45 -96.95 L185.25 -97.25 185.3 -97.25 186.15 -97.55 185.95 -97.15 185.1 -95.15 Q184.55 -94.4 184.1 -93.35 L183.55 -92.2 Q182.2 -89.4 182.2 -88.65 L182.3 -87.85 Q182.35 -87.35 182.5 -87.3 L182.7 -87.45 183.75 -87.7 186.3 -88.5 187.45 -88.9 190.5 -89.75 186.55 -86.4 182.85 -82.75 182.0 -82.35 179.3 -80.95 176.45 -78.9 174.5 -77.35 174.05 -76.85 174.15 -76.9 172.95 -75.85 172.05 -74.8 171.95 -74.7 171.75 -74.5 171.55 -74.25 171.5 -74.15 171.4 -74.1 170.2 -73.25 170.25 -73.2 170.3 -73.1 170.4 -72.95 169.85 -72.55 168.6 -71.55 168.15 -71.0 163.55 -67.55 161.15 -65.35 160.85 -65.05 158.45 -63.15 154.9 -60.05 153.55 -58.8 153.45 -58.65 Q149.85 -57.8 148.05 -56.85 L135.75 -53.4 130.15 -53.0 124.5 -52.9 121.15 -53.4 120.6 -53.5 117.15 -54.15 115.8 -53.9 115.8 -53.4 115.75 -52.9 115.8 -52.15 Q116.0 -51.55 118.0 -50.85 L114.6 -50.05 111.4 -49.2 110.15 -48.7 109.15 -48.5 109.05 -48.45 108.55 -48.3 108.25 -48.15 105.75 -47.4 105.15 -47.35 105.1 -47.35 104.05 -47.2 103.35 -47.1 103.3 -47.05 Q102.4 -46.0 98.35 -45.35 L98.15 -45.35 97.9 -45.35 97.7 -45.35 97.5 -45.35 94.05 -45.15 91.9 -44.75 86.25 -42.9 85.5 -42.7 Q84.6 -41.5 83.55 -41.35 L78.9 -41.5 77.55 -41.25 77.45 -41.25 77.15 -41.25 76.2 -41.25 75.9 -41.25 76.55 -41.35 63.1 -40.5 Q56.6 -39.0 55.5 -38.05 L44.0 -36.45 43.9 -36.45 43.75 -36.45 42.65 -36.45 36.0 -35.9 32.25 -35.5 29.25 -35.1 Q21.1 -34.1 18.0 -33.2 L7.85 -32.0 5.4 -31.7 2.9 -31.7 Q-1.45 -32.15 -4.9 -31.65 L-20.55 -31.55 -27.5 -31.9 -35.6 -31.6 -36.25 -31.55 -37.35 -31.4 -43.6 -32.0 -43.7 -32.3 Q-63.2 -32.65 -76.9 -34.35 L-85.2 -34.4 -87.0 -34.5 -85.6 -34.05 -88.95 -34.7 -89.7 -34.85 -90.0 -34.95 -95.0 -35.85 -100.7 -37.0 -98.5 -36.8 -99.9 -37.5 -101.3 -38.25 -102.5 -38.9 -105.0 -39.4 -114.15 -41.35 -118.1 -41.5 -120.55 -42.9 Q-123.25 -44.45 -125.55 -45.4 L-126.35 -45.7 -121.7 -45.45 Q-124.3 -47.55 -131.2 -49.45 -136.55 -51.05 -141.75 -51.5 -143.6 -53.0 -148.25 -54.65 L-148.5 -54.75 -149.3 -54.95 -149.45 -55.05 -154.25 -56.55 -157.35 -58.2 -158.4 -58.65 -157.8 -58.6 Q-158.95 -59.25 -161.25 -60.3 L-161.85 -60.6 -161.9 -60.6 -163.6 -61.35 -164.55 -61.7 -164.6 -61.7 -164.65 -61.55 -166.0 -61.95 -172.3 -64.0 -172.4 -64.0 -172.65 -64.1 -175.6 -64.9 -175.9 -64.9 -176.45 -65.05 -177.5 -65.4 -177.95 -65.55 Q-179.4 -66.1 -180.35 -66.7 L-180.75 -67.0 -181.85 -68.1 -182.05 -68.3 -183.1 -69.1 -183.3 -69.6 -182.6 -69.15 -182.4 -69.05 -180.25 -67.75 -180.25 -68.3 Q-181.55 -70.2 -183.15 -71.9 L-183.75 -72.55 Q-186.7 -75.6 -190.5 -78.35 L-191.75 -79.1 Q-192.7 -81.0 -194.9 -83.1 L-195.0 -83.15 Q-195.6 -83.8 -196.35 -84.3 L-196.45 -84.45 -197.4 -85.15 -197.95 -85.55 -205.15 -90.2 Q-202.8 -90.1 -199.7 -88.75 L-199.25 -88.8 -201.95 -91.2 -203.3 -92.5 -204.6 -93.95 -206.35 -95.05 -206.95 -95.45 -209.95 -96.95 -210.15 -97.3 -211.05 -97.85 -211.4 -97.8 -212.6 -99.45 -215.9 -103.9 -212.75 -104.8 -210.35 -105.55 -210.1 -105.65 -209.8 -106.15 -202.5 -106.7 -199.25 -104.2 -198.45 -103.55 -199.15 -104.55 -199.4 -104.95 -199.1 -104.7 Q-195.55 -102.3 -189.85 -98.85 -183.5 -95.05 -178.5 -92.75 L-178.3 -92.7 -177.5 -92.35 -177.3 -92.3 -177.15 -92.2 -176.9 -92.0 -176.0 -91.5 -175.6 -91.3 -175.45 -91.2 -173.05 -89.8 -172.8 -89.8 -171.9 -89.6 Q-169.3 -89.8 -169.3 -91.2 L-169.4 -93.35 -168.65 -93.35 -166.4 -89.6 -166.3 -90.5 Q-166.9 -90.85 -165.65 -90.85 L-162.3 -88.25 -160.95 -88.0 -160.8 -87.85 -144.65 -86.5 Q-139.75 -86.5 -135.0 -88.3 L-106.7 -89.15 -106.6 -89.15 -102.9 -89.3 -102.9 -89.35 -99.55 -89.6 -99.55 -89.85 -99.55 -90.1 -99.9 -90.5 -99.6 -90.8 -99.5 -90.85 Q-99.45 -93.5 -98.9 -95.0 L-97.9 -94.85 Q-97.9 -94.45 -98.4 -93.75 -97.7 -93.05 -96.55 -92.6 L-96.3 -93.85 -95.85 -93.5 -95.8 -94.1 -95.3 -94.1 -95.05 -93.65 -94.9 -93.85 Q-94.6 -93.55 -93.5 -93.1 -92.25 -92.6 -91.4 -92.6 L-89.4 -92.7 -85.65 -93.85 Q-86.2 -95.2 -85.9 -95.4 L-85.55 -95.35 -86.9 -96.85 Q-86.9 -97.6 -86.4 -98.0 -83.7 -96.1 -82.9 -96.1 -81.85 -96.1 -80.0 -98.95 L-78.7 -100.7 -78.6 -103.95 Q-78.55 -106.6 -77.75 -108.15 L-77.6 -116.75 -77.4 -118.9 -77.6 -121.35 Q-77.6 -127.4 -77.25 -129.5 L-75.25 -139.9 -75.35 -144.5 Q-75.3 -147.15 -74.35 -148.9 L-73.65 -149.45 Q-73.15 -149.65 -73.0 -150.05 -72.85 -150.55 -72.85 -152.3 -72.35 -153.8 -72.35 -156.8 -72.35 -159.4 -72.5 -160.9 L-72.6 -159.9 -73.0 -159.3 -73.25 -159.6 -73.35 -160.6 -73.5 -160.55 -74.25 -160.55 -74.35 -160.45 -74.5 -161.3 Q-74.5 -163.35 -71.5 -167.2 L-68.75 -170.3 -66.0 -173.35 Q-62.45 -177.05 -60.1 -178.55 L-58.35 -180.95 Q-57.1 -182.0 -54.0 -182.8 L-47.3 -184.75 -41.5 -186.4 -34.65 -188.05 -29.35 -189.75 Q-21.4 -192.25 -18.0 -192.65 L-8.1 -194.3 Q-7.0 -194.45 -4.25 -192.55 L-1.45 -191.9 1.0 -191.4 3.55 -190.65 6.45 -190.0 10.25 -189.05 Q11.55 -188.65 11.75 -188.3 L11.6 -188.15 Q20.35 -186.8 27.4 -183.7 35.25 -180.25 39.55 -175.25 L39.45 -174.65 Q41.05 -172.8 41.9 -169.25 L43.05 -160.55 Q44.1 -157.25 44.55 -151.35 L45.25 -142.15 Q46.65 -130.2 47.65 -124.0 48.7 -117.2 50.3 -111.75 L50.9 -111.5 Q55.95 -109.25 60.9 -109.25 71.25 -109.25 74.65 -110.85 L76.4 -112.0 Q77.25 -112.5 78.65 -112.5 L79.9 -112.35 81.15 -112.1 81.65 -111.35 82.05 -110.6 81.85 -110.45 83.85 -109.55 84.35 -108.95 86.15 -106.4 86.2 -106.3 M19.75 -156.3 L20.3 -155.15 20.15 -154.85 Q22.1 -154.55 22.45 -151.2 22.35 -146.15 22.5 -144.65 21.6 -142.25 22.15 -138.3 22.45 -136.05 23.5 -131.9 L23.5 -112.8 Q25.0 -96.6 25.0 -93.1 L25.0 -90.05 25.4 -89.5 26.5 -89.9 27.65 -90.35 28.15 -90.0 27.1 -88.85 28.95 -90.0 34.75 -92.35 35.05 -93.1 35.75 -94.25 Q37.2 -95.7 38.7 -96.4 41.05 -97.55 42.25 -95.85 L42.3 -95.75 Q43.25 -96.1 44.05 -96.6 44.3 -99.15 44.95 -100.8 45.55 -102.4 45.55 -104.0 L44.8 -122.0 Q44.8 -125.65 41.3 -147.3 40.45 -151.4 39.8 -159.65 38.55 -166.55 34.05 -171.5 L32.8 -171.8 Q28.55 -171.8 22.25 -166.45 16.55 -161.6 16.55 -160.05 16.65 -158.95 17.1 -157.95 17.95 -156.05 19.75 -156.3 M85.8 -43.1 L85.75 -43.15 85.7 -43.05 85.8 -43.1 M-40.4 -154.35 L-41.0 -153.55 -41.65 -153.55 Q-44.2 -150.15 -44.6 -145.3 L-44.6 -135.55 Q-44.9 -126.5 -46.6 -116.05 -47.8 -108.55 -47.4 -96.65 L-46.85 -83.05 -46.6 -82.95 -46.4 -82.45 -45.35 -82.0 -41.5 -82.0 Q-41.0 -81.8 -40.2 -80.55 L-39.7 -80.2 -37.85 -78.95 -36.0 -78.35 -36.0 -78.45 -35.8 -78.5 Q-31.85 -78.9 -30.5 -79.6 -29.35 -79.7 -26.75 -77.85 L-25.9 -77.2 -25.7 -77.25 -25.05 -77.35 -17.55 -78.4 -11.75 -79.05 -11.75 -79.15 -10.85 -79.25 Q-10.8 -82.9 -9.4 -90.5 -8.0 -98.5 -8.0 -109.65 -8.0 -115.35 -8.4 -121.3 -9.5 -121.3 -9.5 -121.55 L-10.0 -123.5 -10.85 -126.45 Q-11.3 -128.0 -11.25 -129.05 L-11.25 -129.1 -11.6 -134.3 Q-12.1 -138.85 -12.1 -146.65 L-12.05 -147.65 -12.8 -148.4 -13.6 -149.15 -37.0 -155.3 -39.1 -155.15 Q-39.95 -155.05 -40.4 -154.35 M-55.0 -160.65 L-58.5 -160.8 Q-65.15 -160.8 -67.95 -143.0 -68.85 -137.45 -69.25 -130.75 L-69.5 -125.1 Q-68.65 -113.3 -68.5 -107.65 L-68.6 -99.05 Q-68.55 -95.15 -67.5 -92.4 L-64.25 -92.0 -63.55 -90.65 -62.95 -89.7 -62.4 -89.5 -61.6 -90.25 -59.3 -90.1 -59.05 -89.0 -59.15 -88.4 -58.3 -88.15 -57.95 -95.6 Q-57.6 -103.9 -57.75 -108.05 -57.75 -108.9 -57.2 -110.4 L-57.25 -110.9 -57.05 -113.3 -56.7 -113.45 -57.0 -114.35 -56.8 -116.15 Q-56.5 -117.3 -56.05 -117.65 L-55.9 -115.9 -56.15 -113.3 -56.05 -113.0 -56.0 -113.1 Q-54.4 -116.4 -54.75 -117.9 L-53.95 -122.95 Q-53.6 -125.95 -54.5 -127.9 L-54.5 -130.5 -55.15 -130.75 -56.05 -128.5 -56.3 -128.5 -56.75 -138.55 -56.5 -146.5 -56.5 -147.6 -56.5 -148.55 -56.15 -154.35 Q-55.55 -157.35 -53.5 -159.15 L-55.0 -160.65 M-82.55 -94.5 L-82.15 -94.75 -82.65 -94.5 -82.55 -94.5 M-102.8 -94.1 L-102.8 -93.0 -103.3 -92.8 -104.3 -92.5 -105.05 -93.25 -104.3 -94.15 -103.15 -94.5 -102.8 -94.1 M-24.25 -83.65 L-24.35 -83.55 -24.85 -83.5 -25.25 -83.55 -25.45 -83.65 -25.5 -84.05 Q-25.5 -84.5 -25.15 -84.65 -24.75 -84.9 -24.25 -84.4 L-24.25 -83.65" fill="#9afaf0" fill-opacity="0.8" fill-rule="evenodd" stroke="none"/>
    <path d="M0.25 -174.5 L-0.25 -174.0 -0.5 -174.05 -0.5 -174.75 0.1 -174.65 0.25 -174.5 M2.05 -171.1 L2.0 -171.5 Q2.0 -171.9 2.25 -171.9 L2.5 -171.9 3.0 -171.4 2.25 -171.0 2.05 -171.1 M2.35 -168.25 Q2.4 -167.35 1.4 -166.8 L-0.75 -165.75 -1.4 -165.8 -2.25 -166.0 -2.25 -166.5 -1.3 -166.25 Q-0.8 -166.25 0.1 -166.75 1.35 -167.5 1.4 -168.5 L1.75 -168.5 2.35 -168.25 M3.0 -168.75 L2.85 -168.8 2.65 -169.15 3.25 -169.0 3.0 -168.75 M4.65 -149.75 L6.0 -151.05 7.05 -150.9 7.3 -150.7 7.45 -150.55 Q7.6 -150.85 8.0 -150.9 L8.8 -150.95 Q10.95 -151.3 12.3 -150.95 L13.5 -150.55 13.5 -152.4 14.15 -152.2 14.8 -151.8 Q15.15 -152.0 15.9 -153.75 16.65 -155.45 17.0 -155.55 19.2 -154.25 19.75 -153.3 L20.05 -151.35 20.0 -150.05 17.85 -150.55 Q16.55 -150.8 16.5 -150.15 16.35 -148.9 15.55 -149.25 L14.6 -149.9 10.8 -149.4 Q9.5 -149.4 9.25 -148.8 8.9 -147.8 7.55 -147.05 L3.5 -147.15 3.25 -146.05 1.0 -144.9 -1.25 -145.05 -3.85 -144.65 -6.5 -144.3 -9.25 -141.4 Q-10.6 -142.5 -10.6 -143.85 -10.6 -146.3 -9.75 -146.3 L-8.0 -145.8 -6.35 -146.1 -5.0 -146.65 Q-4.85 -146.7 -4.4 -146.4 L-3.9 -146.15 -4.0 -146.4 Q-3.25 -147.55 -1.5 -147.55 -0.3 -147.55 0.05 -148.05 L0.5 -149.05 1.65 -149.05 1.0 -150.4 1.25 -150.8 3.3 -149.45 4.05 -148.9 4.65 -149.75 M40.05 -169.75 Q39.65 -169.2 38.25 -169.05 L37.0 -170.15 37.7 -171.45 38.75 -172.65 Q39.75 -172.0 40.1 -171.35 L40.3 -170.8 40.05 -169.75 M52.15 -81.6 L51.65 -81.35 51.25 -82.0 Q52.0 -82.9 52.5 -82.35 L52.15 -81.6 M45.3 -70.65 L45.05 -69.95 44.65 -69.5 44.2 -69.3 Q43.75 -69.25 43.75 -70.05 43.75 -70.7 44.25 -70.7 L45.3 -70.65 M4.75 -58.85 L4.05 -59.25 5.4 -59.5 6.15 -59.0 5.4 -58.75 4.75 -58.85 M34.75 -63.25 L33.45 -63.0 Q32.95 -63.0 32.85 -63.25 L34.1 -64.0 35.35 -64.25 34.75 -63.25 M-27.25 -161.75 L-27.35 -161.8 -27.5 -162.15 -26.9 -162.0 -27.25 -161.75 M-26.25 -162.0 Q-26.25 -162.85 -25.2 -162.3 -24.25 -161.8 -24.0 -161.25 L-23.9 -161.1 Q-23.85 -161.0 -24.25 -161.0 -25.25 -161.0 -26.25 -161.5 L-26.25 -162.0 M-21.05 -161.75 Q-21.15 -161.5 -22.25 -161.15 L-23.3 -161.25 -23.5 -161.5 -22.0 -162.0 -21.05 -161.75 M-32.75 -171.5 L-33.0 -171.4 -33.65 -171.5 -34.2 -170.55 -34.9 -169.65 -35.6 -169.15 -36.3 -168.25 -36.55 -168.25 -36.7 -168.35 -36.75 -168.75 -36.25 -170.0 -35.4 -171.25 -34.35 -171.75 -33.65 -171.5 -33.75 -171.75 -33.5 -172.0 -32.65 -171.75 -32.75 -171.5 M-35.55 -164.15 L-35.5 -165.0 -35.05 -165.0 -33.9 -163.75 Q-34.05 -163.5 -34.5 -163.3 L-35.5 -163.55 -35.55 -164.15 M-34.0 -163.4 L-33.3 -163.2 Q-32.6 -162.9 -31.5 -162.75 L-31.05 -162.4 -31.3 -162.25 -33.15 -162.5 -33.5 -162.8 -34.0 -163.4 M-7.05 -163.4 Q-6.8 -163.25 -6.8 -162.75 L-7.2 -162.65 -8.25 -162.5 -8.3 -162.55 -8.4 -162.9 -8.3 -163.3 -7.05 -163.4 M-8.8 -162.4 Q-9.75 -161.85 -11.3 -161.75 L-13.75 -161.65 -14.4 -161.75 -14.5 -162.25 Q-14.15 -162.2 -13.7 -162.6 L-10.75 -162.5 -10.0 -162.65 -8.8 -162.4 M-66.0 -162.9 Q-65.7 -162.65 -65.35 -161.15 L-64.0 -162.05 Q-63.25 -161.9 -62.85 -161.55 L-63.6 -160.25 -64.5 -158.55 -64.7 -158.45 -65.85 -158.4 Q-67.05 -158.4 -67.05 -159.45 -67.1 -160.55 -68.5 -160.55 -69.2 -160.55 -69.3 -161.1 L-69.5 -162.15 Q-69.6 -161.8 -70.05 -161.45 -70.6 -161.05 -71.25 -161.05 L-71.2 -161.8 -71.0 -162.55 -71.3 -162.35 -72.25 -162.05 -72.35 -161.95 -72.5 -162.8 Q-72.5 -163.45 -71.4 -164.7 -70.15 -166.15 -68.75 -166.3 -68.5 -167.0 -68.5 -165.75 -68.5 -165.0 -68.95 -164.55 L-69.5 -164.15 Q-70.1 -164.3 -69.4 -163.7 L-68.1 -162.65 Q-66.8 -162.35 -66.0 -162.9 M-51.25 -157.3 L-51.1 -156.35 Q-50.85 -155.25 -49.75 -154.8 L-48.8 -154.65 -48.0 -153.8 -45.5 -155.4 -44.7 -155.15 -44.5 -154.0 Q-44.5 -151.55 -46.25 -150.65 -46.45 -152.2 -46.0 -153.65 L-46.55 -153.25 -47.25 -152.55 Q-49.0 -152.45 -51.25 -153.5 L-54.25 -153.55 -54.45 -153.75 -54.5 -154.65 Q-54.5 -155.3 -53.9 -156.25 L-53.0 -157.4 -51.25 -157.3 M-13.15 -60.5 L-13.9 -60.25 -14.55 -60.4 Q-15.2 -60.65 -15.25 -61.1 L-13.9 -61.0 Q-13.25 -60.75 -13.15 -60.5 M-4.25 -59.0 L-5.0 -58.75 -6.25 -58.85 -6.75 -59.6 -5.7 -59.65 -4.3 -59.25 -4.25 -59.0 M-56.9 -79.85 L-57.65 -79.5 -58.3 -79.6 Q-58.95 -79.75 -59.1 -80.0 -58.95 -80.55 -57.0 -80.25 L-56.9 -79.85 M-53.3 -79.6 Q-50.45 -79.5 -46.25 -79.75 -45.1 -79.8 -44.4 -80.3 -44.15 -80.5 -43.5 -79.85 L-44.0 -79.15 -45.75 -78.5 -54.4 -78.5 -55.0 -79.5 -53.3 -79.6 M-64.35 -89.8 L-65.1 -89.25 Q-65.5 -89.5 -65.5 -90.05 L-64.5 -90.25 -64.35 -89.8 M-66.45 -87.15 L-66.75 -85.85 -65.75 -84.9 -64.35 -83.35 -65.1 -83.1 Q-66.9 -83.5 -67.35 -84.55 L-67.5 -86.05 -67.4 -87.05 Q-67.15 -87.7 -66.0 -88.05 L-66.45 -87.15 M-62.6 -82.5 L-63.1 -81.85 -63.5 -82.0 -64.1 -82.5 Q-63.9 -83.15 -62.6 -82.5" fill="#ffffff" fill-rule="evenodd" stroke="none"/>
  </g>
</svg>
