<?xml version="1.0" encoding="UTF-8" standalone="no"?>
<svg xmlns:ffdec="https://www.free-decompiler.com/flash" xmlns:xlink="http://www.w3.org/1999/xlink" ffdec:objectType="shape" height="163.5px" width="406.4px" xmlns="http://www.w3.org/2000/svg">
  <g transform="matrix(1.0, 0.0, 0.0, 1.0, 215.9, 194.9)">
    <path d="M86.2 -106.3 L86.45 -105.95 88.0 -103.0 88.4 -103.0 Q91.4 -99.0 103.55 -94.0 118.35 -87.85 128.85 -87.3 L129.45 -87.5 132.85 -88.35 Q132.85 -89.1 133.1 -89.5 135.5 -89.95 135.5 -90.1 138.3 -89.9 140.2 -88.2 L141.35 -86.9 147.7 -88.35 150.0 -88.95 153.3 -89.75 Q161.8 -92.0 171.95 -95.05 L185.6 -99.35 185.05 -98.8 185.4 -99.15 185.7 -99.25 186.2 -98.75 Q186.05 -98.0 184.45 -96.95 L185.25 -97.25 185.3 -97.25 186.15 -97.55 185.95 -97.15 185.1 -95.15 Q184.55 -94.4 184.1 -93.35 L183.55 -92.2 Q182.2 -89.4 182.2 -88.65 L182.3 -87.85 Q182.35 -87.35 182.5 -87.3 L182.7 -87.45 183.75 -87.7 186.3 -88.5 187.45 -88.9 190.5 -89.75 186.55 -86.4 182.85 -82.75 182.0 -82.35 179.3 -80.95 176.45 -78.9 174.5 -77.35 174.05 -76.85 174.15 -76.9 172.95 -75.85 172.05 -74.8 171.95 -74.7 171.75 -74.5 171.55 -74.25 171.5 -74.15 171.4 -74.1 170.2 -73.25 170.25 -73.2 170.3 -73.1 170.4 -72.95 169.85 -72.55 168.6 -71.55 168.15 -71.0 163.55 -67.55 161.15 -65.35 160.85 -65.05 158.45 -63.15 154.9 -60.05 153.55 -58.8 153.45 -58.65 Q149.85 -57.8 148.05 -56.85 L135.75 -53.4 130.15 -53.0 124.5 -52.9 121.15 -53.4 120.6 -53.5 117.15 -54.15 115.8 -53.9 115.8 -53.4 115.75 -52.9 115.8 -52.15 Q116.0 -51.55 118.0 -50.85 L114.6 -50.05 111.4 -49.2 110.15 -48.7 109.15 -48.5 109.05 -48.45 108.55 -48.3 108.25 -48.15 105.75 -47.4 105.15 -47.35 105.1 -47.35 104.05 -47.2 103.35 -47.1 103.3 -47.05 Q102.4 -46.0 98.35 -45.35 L98.15 -45.35 97.9 -45.35 97.7 -45.35 97.5 -45.35 94.05 -45.15 91.9 -44.75 86.25 -42.9 85.5 -42.7 Q84.6 -41.5 83.55 -41.35 L78.9 -41.5 77.55 -41.25 77.45 -41.25 77.15 -41.25 76.2 -41.25 75.9 -41.25 76.55 -41.35 63.1 -40.5 Q56.6 -39.0 55.5 -38.05 L44.0 -36.45 43.9 -36.45 43.75 -36.45 42.65 -36.45 36.0 -35.9 32.25 -35.5 29.25 -35.1 Q21.1 -34.1 18.0 -33.2 L7.85 -32.0 5.4 -31.7 2.9 -31.7 Q-1.45 -32.15 -4.9 -31.65 L-20.55 -31.55 -27.5 -31.9 -35.6 -31.6 -36.25 -31.55 -37.35 -31.4 -43.6 -32.0 -43.7 -32.3 Q-63.2 -32.65 -76.9 -34.35 L-85.2 -34.4 -87.0 -34.5 -85.6 -34.05 -88.95 -34.7 -89.7 -34.85 -90.0 -34.95 -95.0 -35.85 -100.7 -37.0 -98.5 -36.8 -99.9 -37.5 -101.3 -38.25 -102.5 -38.9 -105.0 -39.4 -114.15 -41.35 -118.1 -41.5 -120.55 -42.9 Q-123.25 -44.45 -125.55 -45.4 L-126.35 -45.7 -121.7 -45.45 Q-124.3 -47.55 -131.2 -49.45 -136.55 -51.05 -141.75 -51.5 -143.6 -53.0 -148.25 -54.65 L-148.5 -54.75 -149.3 -54.95 -149.45 -55.05 -154.25 -56.55 -157.35 -58.2 -158.4 -58.65 -157.8 -58.6 Q-158.95 -59.25 -161.25 -60.3 L-161.85 -60.6 -161.9 -60.6 -163.6 -61.35 -164.55 -61.7 -164.6 -61.7 -164.65 -61.55 -166.0 -61.95 -172.3 -64.0 -172.4 -64.0 -172.65 -64.1 -175.6 -64.9 -175.9 -64.9 -176.45 -65.05 -177.5 -65.4 -177.95 -65.55 Q-179.4 -66.1 -180.35 -66.7 L-180.75 -67.0 -181.85 -68.1 -182.05 -68.3 -183.1 -69.1 -183.3 -69.6 -182.6 -69.15 -182.4 -69.05 -180.25 -67.75 -180.25 -68.3 Q-181.55 -70.2 -183.15 -71.9 L-183.75 -72.55 Q-186.7 -75.6 -190.5 -78.35 L-191.75 -79.1 Q-192.7 -81.0 -194.9 -83.1 L-195.0 -83.15 Q-195.6 -83.8 -196.35 -84.3 L-196.45 -84.45 -197.4 -85.15 -197.95 -85.55 -205.15 -90.2 Q-202.8 -90.1 -199.7 -88.75 L-199.25 -88.8 -201.95 -91.2 -203.3 -92.5 -204.6 -93.95 -206.35 -95.05 -206.95 -95.45 -209.95 -96.95 -210.15 -97.3 -211.05 -97.85 -211.4 -97.8 -212.6 -99.45 -215.9 -103.9 -212.75 -104.8 -210.35 -105.55 -210.1 -105.65 -209.8 -106.15 -202.5 -106.7 -199.25 -104.2 -198.45 -103.55 -199.15 -104.55 -199.4 -104.95 -199.1 -104.7 Q-195.55 -102.3 -189.85 -98.85 -183.5 -95.05 -178.5 -92.75 L-178.3 -92.7 -177.5 -92.35 -177.3 -92.3 -177.15 -92.2 -176.9 -92.0 -176.0 -91.5 -175.6 -91.3 -175.45 -91.2 -171.9 -89.15 -171.65 -89.0 -170.7 -88.5 -164.8 -88.2 -155.7 -87.45 -152.1 -87.6 -148.65 -87.9 -147.75 -87.85 Q-134.4 -87.85 -128.55 -89.35 L-124.6 -90.7 -120.6 -89.75 -116.5 -88.75 -115.95 -88.75 -114.85 -88.55 -105.15 -88.1 Q-101.75 -88.1 -96.4 -89.85 -92.9 -91.0 -91.6 -91.95 L-89.9 -92.55 -84.95 -94.0 Q-84.2 -94.5 -83.4 -95.1 L-83.4 -95.5 Q-85.45 -95.8 -85.9 -96.5 L-84.6 -96.95 -82.65 -97.35 -81.1 -99.65 Q-80.55 -100.7 -80.9 -101.85 L-80.15 -101.85 -79.7 -100.9 Q-79.4 -100.35 -79.4 -99.6 L-79.4 -99.25 -78.8 -100.65 Q-77.75 -103.3 -77.75 -104.9 L-77.85 -111.7 -77.85 -121.8 -79.75 -122.15 -79.85 -122.9 -78.2 -125.4 -77.0 -127.35 -77.55 -128.9 -78.85 -131.4 Q-78.0 -132.75 -77.3 -132.6 -76.7 -132.45 -76.35 -133.55 L-75.8 -135.2 -75.35 -136.9 Q-74.8 -140.35 -75.0 -143.3 L-74.6 -146.45 -74.75 -148.05 -74.5 -156.3 Q-74.2 -160.3 -73.25 -164.9 -72.95 -166.3 -69.7 -168.9 L-63.35 -173.55 Q-61.4 -175.0 -59.3 -178.45 L-58.55 -179.4 Q-58.2 -181.55 -52.05 -184.3 -46.45 -186.85 -41.5 -187.8 -36.05 -188.9 -26.65 -191.65 -19.65 -193.65 -12.0 -194.65 L-12.0 -194.9 Q-6.8 -194.55 -0.8 -192.5 L6.45 -189.7 6.65 -189.65 12.0 -188.3 25.55 -183.15 Q35.8 -179.25 38.2 -177.45 40.95 -175.3 41.3 -170.95 42.1 -167.85 42.55 -163.4 L43.5 -153.3 44.65 -143.3 Q45.3 -138.05 46.0 -134.55 L46.05 -134.55 Q46.25 -135.05 46.25 -133.8 L46.25 -133.45 46.25 -133.4 46.1 -132.55 47.65 -123.35 48.45 -119.2 Q49.3 -115.0 50.25 -111.9 L50.85 -109.85 51.0 -109.95 53.0 -109.3 54.3 -108.65 54.95 -108.55 55.6 -108.45 56.75 -109.85 Q57.6 -111.05 57.6 -112.0 L57.55 -112.0 56.8 -112.1 Q56.05 -112.25 55.9 -112.5 56.6 -113.1 57.9 -113.75 57.05 -114.85 57.65 -116.55 L58.65 -119.25 Q61.0 -119.3 60.9 -117.65 L60.8 -114.35 63.65 -114.35 Q63.9 -115.05 63.9 -113.8 63.9 -113.15 63.4 -112.5 62.75 -111.6 61.55 -111.6 L61.45 -111.6 61.1 -110.75 61.05 -110.6 Q61.05 -108.9 64.05 -108.05 L64.1 -108.05 66.55 -108.55 66.85 -108.6 67.1 -108.6 67.4 -108.6 72.4 -109.9 76.8 -111.15 77.5 -111.4 Q82.05 -110.8 83.85 -109.55 L84.35 -108.95 86.15 -106.4 86.2 -106.3 M19.35 -158.6 Q21.45 -156.85 22.75 -152.8 L23.5 -148.95 23.8 -145.85 Q23.8 -143.7 22.75 -138.8 21.8 -134.25 22.0 -131.8 22.2 -127.4 22.5 -124.65 22.65 -123.45 21.85 -121.25 21.0 -118.95 21.0 -117.9 L23.15 -104.8 25.25 -91.15 25.25 -89.6 26.5 -89.25 28.1 -89.4 28.95 -90.0 32.5 -91.4 32.75 -91.95 Q33.55 -93.4 34.5 -93.75 L37.65 -93.6 39.45 -94.45 41.7 -95.55 Q44.0 -96.2 45.6 -97.9 L45.75 -100.85 46.0 -107.9 46.05 -113.9 Q46.05 -114.95 46.55 -116.95 L47.0 -119.55 46.8 -121.55 46.3 -124.55 45.2 -131.2 44.25 -131.3 Q43.2 -134.4 42.75 -140.45 42.2 -147.3 41.55 -150.05 40.2 -156.1 40.0 -159.4 39.8 -161.6 38.6 -164.85 37.5 -167.95 37.5 -168.4 L37.5 -168.9 Q35.95 -170.8 34.0 -171.65 L30.3 -171.65 Q28.15 -170.6 22.8 -165.5 17.5 -160.6 17.5 -159.85 L19.35 -158.6 M64.3 -116.5 L63.4 -115.85 Q62.65 -116.15 62.65 -117.25 63.15 -117.75 64.15 -117.25 L64.15 -116.85 64.3 -116.5 M36.05 -95.6 Q35.8 -95.35 35.4 -95.25 L34.45 -95.25 Q34.15 -95.3 34.15 -96.1 34.15 -96.9 34.4 -97.1 L34.9 -97.25 Q35.65 -97.1 36.05 -96.75 L36.15 -96.15 36.05 -95.6 M85.8 -43.1 L85.75 -43.15 85.7 -43.05 85.8 -43.1 M-36.65 -154.8 Q-40.4 -153.5 -43.05 -149.6 -45.1 -146.55 -45.85 -143.15 L-46.1 -142.1 Q-46.55 -138.15 -46.75 -137.35 -47.3 -134.85 -48.45 -133.15 L-48.6 -130.6 -49.75 -115.05 -49.05 -105.8 -48.1 -97.8 -46.3 -93.7 Q-44.95 -90.8 -45.0 -89.15 -45.05 -87.65 -44.55 -84.35 L-44.15 -81.45 -40.2 -79.7 -30.8 -76.55 -29.4 -76.6 -29.2 -76.6 -25.7 -77.25 -25.05 -77.35 -24.0 -77.5 -20.8 -78.6 Q-19.2 -79.55 -17.3 -79.25 -16.45 -79.1 -13.55 -79.3 L-12.2 -79.4 -11.75 -82.0 -12.05 -87.25 Q-12.05 -89.05 -11.0 -92.0 L-10.0 -91.85 Q-10.0 -89.75 -9.1 -87.1 L-9.1 -87.75 Q-8.45 -89.4 -8.25 -91.6 L-8.05 -98.6 Q-7.55 -102.65 -7.55 -112.5 L-8.1 -119.05 -8.8 -128.6 -9.05 -137.05 Q-9.25 -139.9 -9.8 -142.1 L-9.75 -142.4 Q-9.75 -144.95 -11.15 -147.55 -12.4 -149.85 -14.35 -151.3 L-14.55 -151.45 -15.25 -151.9 -15.0 -152.15 -15.45 -152.5 Q-17.45 -153.3 -30.35 -152.55 -30.75 -152.55 -33.35 -153.65 L-35.9 -154.75 -36.1 -154.75 -36.25 -154.8 -36.65 -154.8 M-65.25 -149.8 Q-65.25 -143.3 -66.25 -137.05 L-67.45 -130.65 -68.6 -124.3 Q-69.75 -113.7 -69.75 -111.55 -69.75 -102.45 -69.35 -99.2 L-67.8 -91.65 -58.4 -87.8 -58.35 -88.15 Q-57.9 -87.3 -57.1 -87.3 -55.7 -87.3 -55.1 -92.0 -54.75 -94.55 -54.75 -97.2 L-54.85 -100.6 -54.85 -100.8 Q-54.7 -102.2 -54.85 -103.15 -54.35 -110.65 -54.35 -119.5 -54.35 -126.05 -55.15 -135.5 L-56.0 -146.3 Q-56.0 -150.75 -54.7 -154.7 -54.0 -156.95 -53.0 -158.3 L-53.2 -158.85 Q-53.65 -160.35 -54.5 -161.15 L-54.8 -161.45 Q-55.2 -161.8 -56.0 -161.8 -60.35 -161.8 -63.2 -156.15 -65.25 -152.1 -65.25 -149.8 M-88.25 -139.0 L-88.9 -139.75 -88.45 -140.2 -87.4 -140.25 Q-87.25 -140.35 -87.25 -139.75 -87.25 -139.45 -87.6 -139.2 -87.95 -138.95 -88.25 -139.0 M-85.9 -124.45 Q-86.55 -123.75 -87.0 -123.55 L-87.75 -124.6 Q-87.75 -125.25 -86.5 -125.95 -85.25 -126.65 -85.25 -125.4 -85.25 -125.15 -85.9 -124.45 M-10.25 -96.85 Q-10.25 -96.05 -10.6 -95.8 L-11.25 -95.35 -11.8 -95.35 -12.0 -95.25 Q-12.25 -95.3 -12.25 -96.1 -12.25 -97.15 -10.75 -97.6 -10.25 -98.1 -10.25 -96.85 M-9.5 -84.55 L-9.4 -85.05 -9.55 -85.1 -9.5 -84.55" fill="#9afaf0" fill-opacity="0.8" fill-rule="evenodd" stroke="none"/>
    <path d="M5.75 -152.3 L7.25 -150.8 Q8.15 -151.45 11.35 -152.65 L17.3 -154.55 17.35 -155.3 17.0 -156.4 17.05 -156.8 Q17.75 -156.8 18.7 -156.15 L20.0 -154.65 20.5 -153.15 20.8 -151.5 20.7 -150.7 20.25 -150.8 Q19.55 -151.75 19.5 -152.65 17.85 -152.65 15.35 -151.7 L13.05 -150.8 10.9 -149.85 Q9.05 -148.9 8.35 -148.9 7.55 -148.9 7.0 -149.3 L6.0 -150.15 Q6.2 -148.9 4.95 -148.35 4.45 -148.1 -1.1 -146.4 L-4.4 -145.6 -7.0 -144.55 -7.65 -145.25 -8.5 -146.3 Q-7.7 -147.0 -6.0 -147.15 L-4.0 -147.55 Q-3.3 -148.05 -1.5 -148.25 L1.0 -148.55 3.0 -149.25 5.0 -149.55 Q5.0 -151.15 5.75 -152.3 M37.25 -86.8 L37.2 -86.05 37.1 -86.25 36.85 -85.85 Q36.45 -85.85 35.75 -87.0 35.9 -87.35 37.0 -87.35 37.25 -88.05 37.25 -86.8 M38.2 -84.15 L38.25 -83.25 38.05 -82.1 37.35 -81.35 37.0 -81.35 36.9 -81.15 Q36.75 -81.1 36.75 -81.9 L37.0 -83.45 37.35 -84.35 38.0 -84.35 38.2 -84.15 M32.05 -76.35 Q28.5 -74.35 23.3 -73.15 L9.1 -70.15 -0.5 -68.55 -11.15 -69.3 -11.7 -69.7 -12.25 -70.25 -12.2 -70.45 -11.9 -70.9 -10.55 -70.05 -2.5 -69.75 Q12.35 -71.4 22.75 -74.35 31.2 -76.75 35.35 -79.6 35.25 -78.2 32.05 -76.35 M-62.35 -161.05 Q-62.8 -160.2 -63.65 -159.4 -64.75 -158.35 -65.75 -158.05 -66.05 -159.15 -67.95 -160.65 L-70.6 -162.55 -72.25 -161.05 -72.35 -160.95 -72.5 -161.8 Q-71.0 -165.0 -70.5 -165.4 L-69.5 -165.3 -69.6 -164.35 Q-69.1 -162.75 -67.2 -162.25 -65.65 -161.9 -63.75 -162.3 -63.55 -162.0 -63.6 -161.4 -63.6 -160.8 -63.75 -160.8 L-63.3 -160.85 Q-62.85 -160.9 -62.85 -161.05 L-62.35 -161.05 M-52.5 -152.9 L-53.3 -153.05 Q-53.5 -153.2 -53.5 -154.0 -53.5 -156.05 -50.25 -155.3 -46.5 -154.05 -45.5 -154.05 L-44.4 -153.8 -42.85 -153.55 -44.05 -151.1 Q-45.15 -149.3 -45.75 -149.3 -47.5 -149.3 -47.7 -149.9 -48.15 -151.25 -48.85 -151.9 L-50.2 -152.7 Q-50.7 -152.95 -51.1 -154.15 L-52.5 -152.9 M-15.05 -70.75 L-16.1 -71.15 -17.05 -71.95 -17.4 -72.1 -18.1 -72.55 -18.1 -72.65 -17.55 -72.45 -17.85 -73.05 Q-17.85 -74.7 -17.35 -74.9 -16.85 -73.75 -16.15 -72.95 -14.85 -71.45 -12.25 -71.15 L-12.15 -70.9 Q-13.0 -70.55 -13.9 -70.55 L-15.05 -70.75 M-48.5 -89.25 L-47.85 -89.1 -46.75 -89.25 Q-46.3 -88.5 -46.3 -87.0 L-46.05 -86.8 Q-45.95 -86.6 -46.75 -86.6 -48.35 -86.6 -50.4 -87.75 L-50.55 -88.3 -50.15 -89.25 Q-49.05 -89.25 -48.8 -88.5 -48.6 -88.5 -48.5 -89.25 M-55.0 -88.55 L-53.9 -90.75 -52.85 -89.9 -51.4 -88.05 -55.0 -88.55" fill="#ffffff" fill-rule="evenodd" stroke="none"/>
  </g>
</svg>
