<?xml version="1.0" encoding="UTF-8" standalone="no"?>
<svg xmlns:ffdec="https://www.free-decompiler.com/flash" xmlns:xlink="http://www.w3.org/1999/xlink" ffdec:objectType="shape" height="162.85px" width="284.05px" xmlns="http://www.w3.org/2000/svg">
  <g transform="matrix(1.0, 0.0, 0.0, 1.0, -50.75, 18.55)">
    <path d="M73.2 -2.0 L73.3 -2.45 73.4 -2.55 73.9 -2.5 74.0 -2.55 75.6 -2.6 75.45 -2.3 79.65 -1.9 80.9 -1.45 89.25 1.45 89.4 1.2 89.8 1.65 90.85 2.0 92.1 3.2 91.45 3.45 109.4 23.65 130.25 47.1 129.95 47.55 Q123.6 42.5 117.3 36.15 L117.6 41.55 Q117.6 45.2 116.15 47.5 115.0 49.4 111.95 51.6 L105.25 56.4 Q100.5 60.05 96.3 64.5 92.7 68.35 81.1 75.6 66.25 84.9 58.35 84.9 56.45 84.9 55.05 82.9 54.9 85.55 55.05 87.15 54.15 88.05 53.0 88.05 L53.4 81.95 52.55 84.45 Q52.25 83.95 51.5 81.6 50.75 79.05 50.75 78.15 50.75 74.25 51.85 67.95 52.05 65.45 52.7 61.65 L53.0 61.6 53.0 38.65 53.0 38.75 53.45 32.95 56.25 23.25 56.3 23.15 55.8 23.9 56.1 22.75 56.5 21.2 57.05 20.2 57.3 19.2 56.9 19.5 57.4 16.95 57.85 16.35 59.85 14.25 59.95 14.05 59.95 14.15 66.55 6.15 69.45 2.55 70.3 1.15 73.2 -2.0 M76.5 -0.8 L74.75 -1.25 74.45 -0.75 74.3 -1.05 73.25 -0.15 Q70.8 2.2 65.2 9.35 61.75 13.75 59.9 16.65 L58.75 18.5 58.55 18.85 58.5 18.95 Q57.6 20.65 57.6 21.5 L57.65 22.1 57.35 23.15 55.1 31.15 54.6 32.9 54.6 62.85 54.85 64.95 54.9 65.25 Q55.55 67.8 55.75 70.5 L55.8 72.6 55.65 73.8 Q56.55 77.55 57.9 80.1 61.95 78.9 66.1 77.15 70.35 75.35 74.75 72.95 L74.75 72.9 79.15 70.35 86.75 65.35 93.4 60.3 94.5 59.45 97.25 57.2 98.1 56.45 99.4 55.3 99.6 55.1 99.8 54.95 103.9 51.05 105.25 49.65 Q108.0 46.55 109.75 43.9 112.5 39.55 112.5 36.15 L112.35 33.15 Q112.05 31.9 110.4 29.55 L110.5 28.95 107.4 25.4 Q102.2 19.3 94.1 8.65 L90.05 3.2 88.3 2.75 80.7 0.45 76.5 -0.8 M125.3 -4.4 L125.65 -4.4 132.5 -4.45 136.05 -1.8 Q139.65 0.85 141.05 1.7 L142.55 2.65 Q143.85 1.75 147.65 3.8 153.35 6.85 154.25 9.8 L155.3 12.95 157.45 14.8 155.75 14.15 156.4 16.05 Q157.6 19.7 157.6 21.85 145.3 43.4 134.5 43.4 132.5 43.4 131.65 37.35 L131.15 31.15 130.7 27.95 130.55 27.95 125.9 10.95 123.15 0.2 125.3 -4.4 M135.75 -0.7 Q134.85 -1.35 134.1 -1.9 L132.2 -3.1 130.2 -2.8 126.55 -2.55 126.2 -2.55 126.0 -2.35 Q125.1 -1.25 124.9 -0.6 L124.85 -0.3 Q124.85 1.5 127.35 10.9 L129.15 17.65 Q130.2 20.2 132.0 27.25 133.7 33.95 135.25 36.95 L139.25 34.55 139.5 34.35 144.3 30.8 145.05 30.2 Q152.6 24.3 152.6 22.1 152.6 14.55 147.25 8.8 L145.95 7.5 143.55 5.55 141.85 4.4 141.85 4.15 135.75 -0.7 M232.3 -4.5 Q237.85 -8.25 244.05 -14.3 L248.25 -18.55 250.95 -15.05 251.5 -14.4 Q252.7 -11.8 254.1 -9.35 257.6 -3.1 261.15 0.6 L261.45 1.65 Q261.45 5.75 260.2 18.9 L260.1 20.4 260.4 22.85 Q260.4 24.6 259.55 26.25 L258.75 34.25 257.7 34.4 Q257.15 33.0 257.15 29.75 L257.25 29.05 Q254.35 31.5 249.5 31.5 241.65 31.5 230.7 28.15 221.1 25.2 221.1 24.45 221.1 22.1 226.1 10.65 230.05 1.6 231.85 -1.45 L232.15 -3.55 232.3 -4.5 M249.65 -14.0 L248.9 -15.05 248.3 -16.0 248.15 -16.2 247.65 -15.95 244.8 -13.8 246.6 -14.3 244.7 -13.1 Q240.45 -10.35 237.4 -6.85 L237.3 -6.75 235.85 -4.95 Q233.05 -1.2 231.45 3.3 228.95 14.7 226.1 21.15 L227.2 22.1 Q228.95 23.05 233.45 24.4 L237.35 25.45 237.65 25.5 237.7 25.55 244.15 26.6 244.85 26.7 249.8 26.9 250.7 26.9 Q255.65 26.65 257.1 23.8 L256.95 23.2 256.7 21.0 Q256.7 19.65 257.05 17.85 257.45 15.65 258.15 14.55 L258.55 15.35 259.2 5.7 Q259.2 3.2 258.75 1.05 258.25 -1.35 257.2 -3.35 L256.55 -4.4 255.8 -5.6 255.3 -6.3 Q253.15 -8.65 250.85 -12.15 L249.65 -14.0" fill="#0091bb" fill-rule="evenodd" stroke="none"/>
    <path d="M57.35 23.15 L57.65 22.1 57.6 21.5 Q57.6 20.65 58.5 18.95 L58.55 18.85 58.75 18.5 59.9 16.65 Q61.75 13.75 65.2 9.35 70.8 2.2 73.25 -0.15 L74.3 -1.05 74.45 -0.75 74.75 -1.25 76.5 -0.8 78.8 5.2 80.1 5.15 Q82.2 5.15 85.1 8.7 88.3 12.6 89.4 12.95 L90.0 9.65 90.35 6.65 Q90.35 5.85 88.3 2.75 L90.05 3.2 94.1 8.65 Q93.05 8.4 91.7 7.8 91.15 10.55 91.4 15.15 L90.75 15.75 92.35 19.8 92.7 20.75 Q91.3 19.6 89.6 19.45 L89.65 19.55 88.3 14.45 87.1 13.55 Q84.5 11.6 83.1 11.6 80.05 10.65 78.2 9.45 L76.45 11.7 76.4 12.0 Q76.4 12.75 76.85 13.6 77.25 14.45 77.25 15.2 L77.45 15.75 78.15 16.9 77.7 16.25 76.55 17.3 73.35 20.7 73.5 20.75 Q71.75 20.05 69.95 19.8 L69.95 19.75 Q67.4 23.35 67.1 25.2 L67.05 25.45 66.3 25.65 66.75 28.6 66.8 28.95 66.35 29.2 Q63.5 30.95 61.9 32.5 L61.65 32.25 55.55 34.05 Q55.95 39.0 62.6 52.95 L62.6 53.0 62.9 53.55 62.95 53.7 67.2 62.7 67.25 62.35 67.75 59.1 Q69.3 62.85 71.0 62.85 L72.75 62.5 Q74.75 70.1 74.75 70.85 L74.75 72.9 74.75 72.95 Q70.35 75.35 66.1 77.15 L65.85 75.5 66.0 73.8 65.9 74.5 Q63.15 73.55 59.8 65.95 57.25 60.2 55.35 53.25 55.35 57.6 55.95 67.7 L55.75 70.5 Q55.55 67.8 54.9 65.25 L54.85 64.95 54.6 62.85 54.6 32.9 55.1 31.15 56.7 30.65 Q63.15 28.75 63.15 27.75 63.15 25.5 60.65 21.6 L57.35 23.15 M99.4 55.3 L98.1 56.45 97.35 56.1 97.25 57.2 94.5 59.45 94.2 59.45 Q91.4 59.45 86.15 55.6 L87.1 55.75 Q89.45 55.75 92.6 52.2 L93.55 51.1 94.2 51.55 95.85 52.65 94.75 49.5 95.4 48.5 97.6 53.05 99.4 55.3 M127.35 10.9 Q124.85 1.5 124.85 -0.3 L124.9 -0.6 Q125.1 -1.25 126.0 -2.35 L126.2 -2.55 126.55 -2.55 130.2 -2.8 132.2 -3.1 134.1 -1.9 Q134.85 -1.35 135.75 -0.7 L135.9 1.8 135.7 2.2 Q135.45 2.55 134.55 2.55 L134.25 2.55 134.75 3.45 134.7 3.45 135.05 4.1 135.35 4.8 135.4 4.9 135.65 5.5 137.7 10.5 140.0 17.0 Q142.35 23.95 144.3 30.8 L139.5 34.35 139.25 34.55 Q138.25 31.85 137.25 26.75 138.7 29.3 140.0 29.3 140.75 29.3 141.3 28.8 141.9 28.25 141.9 27.35 141.9 21.4 136.45 9.5 134.15 4.5 132.7 3.3 L132.65 3.25 132.35 2.25 Q130.2 1.75 127.2 0.45 L127.0 0.35 126.95 0.4 Q126.3 1.4 126.3 2.7 L127.35 10.9 M248.8 -9.7 L245.2 -7.55 Q242.05 -5.15 241.65 -4.05 L240.3 -2.45 239.6 -1.4 239.6 -1.35 238.9 -1.85 Q236.55 -0.55 236.55 0.0 236.55 0.75 237.1 2.3 L237.25 2.75 Q236.35 4.6 235.6 6.7 L235.35 7.4 Q234.55 5.75 233.15 5.15 L230.85 10.7 228.35 19.1 227.2 22.1 226.1 21.15 Q228.95 14.7 231.45 3.3 233.05 -1.2 235.85 -4.95 L237.3 -6.75 237.4 -6.85 Q240.45 -10.35 244.7 -13.1 L246.6 -14.3 244.8 -13.8 247.65 -15.95 248.15 -16.2 248.3 -16.0 248.9 -15.05 249.65 -14.0 248.8 -9.7 M251.75 -2.45 L255.8 -5.6 256.55 -4.4 257.2 -3.35 Q258.25 -1.35 258.75 1.05 256.1 -1.05 253.35 -1.05 L252.9 -0.8 251.7 0.0 252.35 -0.45 251.75 -2.45 M244.15 26.6 L237.7 25.55 237.65 25.5 237.35 25.45 236.65 20.0 238.25 19.65 239.25 19.25 239.35 21.2 Q239.8 22.8 241.75 22.8 242.6 22.8 244.1 16.7 L244.15 17.2 244.65 21.45 244.65 21.6 244.25 25.8 244.25 26.05 244.15 26.6" fill="#d7ffff" fill-rule="evenodd" stroke="none"/>
    <path d="M76.5 -0.8 L80.7 0.45 88.3 2.75 Q90.35 5.85 90.35 6.65 L90.0 9.65 89.4 12.95 Q88.3 12.6 85.1 8.7 82.2 5.15 80.1 5.15 L78.8 5.2 76.5 -0.8 M94.1 8.65 Q102.2 19.3 107.4 25.4 L110.5 28.95 110.4 29.55 Q112.05 31.9 112.35 33.15 L112.5 36.15 Q112.5 39.55 109.75 43.9 L107.65 41.0 100.95 32.55 Q95.2 23.5 92.35 19.8 L90.75 15.75 91.4 15.15 Q91.15 10.55 91.7 7.8 93.05 8.4 94.1 8.65 M105.25 49.65 L103.9 51.05 99.55 42.05 99.7 42.35 Q102.75 46.9 105.25 49.65 M98.1 56.45 L97.25 57.2 97.35 56.1 98.1 56.45 M94.5 59.45 L93.4 60.3 86.75 65.35 83.4 53.5 86.15 55.6 Q91.4 59.45 94.2 59.45 L94.5 59.45 M79.15 70.35 L74.75 72.9 74.75 70.85 Q74.75 70.1 72.75 62.5 L72.2 60.4 71.25 56.9 74.05 60.7 Q76.05 62.95 76.4 65.1 76.85 67.45 78.7 69.85 L79.15 70.35 M66.1 77.15 Q61.95 78.9 57.9 80.1 56.55 77.55 55.65 73.8 L55.8 72.6 55.75 70.5 55.95 67.7 Q55.35 57.6 55.35 53.25 57.25 60.2 59.8 65.95 63.15 73.55 65.9 74.5 L66.0 73.8 65.85 75.5 66.1 77.15 M55.1 31.15 L57.35 23.15 60.65 21.6 Q63.15 25.5 63.15 27.75 63.15 28.75 56.7 30.65 L55.1 31.15 M127.35 10.9 L126.3 2.7 Q126.3 1.4 126.95 0.4 L127.0 0.35 127.2 0.45 Q130.2 1.75 132.35 2.25 L132.65 3.25 133.0 4.5 Q129.0 2.55 129.0 6.9 129.0 8.1 131.5 16.55 134.25 25.95 135.75 25.95 136.5 25.95 137.0 25.5 L137.15 26.25 137.25 26.75 Q138.25 31.85 139.25 34.55 L135.25 36.95 Q133.7 33.95 132.0 27.25 130.2 20.2 129.15 17.65 L127.35 10.9 M144.3 30.8 Q142.35 23.95 140.0 17.0 L137.7 10.5 138.0 11.3 138.25 11.65 Q143.65 18.3 145.55 18.3 146.1 18.3 148.35 16.5 L141.0 8.05 Q137.3 4.1 134.75 3.45 L134.25 2.55 134.55 2.55 Q135.45 2.55 135.7 2.2 L135.9 1.8 135.75 -0.7 141.85 4.15 141.85 4.4 143.55 5.55 145.95 7.5 147.25 8.8 Q152.6 14.55 152.6 22.1 152.6 24.3 145.05 30.2 L144.3 30.8 M248.8 -9.7 L249.65 -14.0 250.85 -12.15 Q253.15 -8.65 255.3 -6.3 L255.8 -5.6 251.75 -2.45 251.55 -2.3 Q250.45 -5.6 248.55 -8.65 L248.75 -9.6 248.8 -9.7 M227.2 22.1 L228.35 19.1 230.85 10.7 233.15 5.15 Q234.55 5.75 235.35 7.4 236.0 8.75 236.25 10.75 236.65 13.85 236.55 19.4 L236.6 19.55 236.65 20.0 237.35 25.45 233.45 24.4 Q228.95 23.05 227.2 22.1 M237.25 2.75 L237.1 2.3 Q236.55 0.75 236.55 0.0 236.55 -0.55 238.9 -1.85 L239.6 -1.35 Q238.25 0.85 237.4 3.35 L237.25 2.75 M252.9 -0.8 L253.35 -1.05 Q256.1 -1.05 258.75 1.05 259.2 3.2 259.2 5.7 L258.55 15.35 258.15 14.55 Q257.45 15.65 257.05 17.85 256.7 19.65 256.7 21.0 L256.95 23.2 257.1 23.8 Q255.65 26.65 250.7 26.9 L251.2 24.1 Q251.7 20.65 251.7 16.65 253.5 4.65 253.5 2.15 253.5 0.85 252.9 -0.8 M244.85 26.7 L244.15 26.6 244.25 26.05 244.8 26.1 244.85 26.7 M77.45 15.75 L77.25 15.2 Q77.25 14.45 76.85 13.6 76.4 12.75 76.4 12.0 L76.45 11.7 78.2 9.45 Q80.05 10.65 83.1 11.6 84.5 11.6 87.1 13.55 L88.3 14.45 89.65 19.55 Q87.3 18.5 84.55 17.55 80.2 16.1 77.45 15.75 M73.5 20.75 L73.6 20.8 Q70.55 24.0 66.75 28.6 L66.3 25.65 67.05 25.45 67.1 25.2 Q67.4 23.35 69.95 19.75 L69.95 19.8 Q71.75 20.05 73.5 20.75 M93.85 47.15 L94.75 49.5 95.85 52.65 94.2 51.55 94.05 47.65 93.85 47.15 M61.9 32.5 L62.85 33.45 Q62.85 37.2 62.25 44.7 62.25 49.1 62.6 52.95 55.95 39.0 55.55 34.05 L61.65 32.25 61.9 32.5" fill="#00ffff" fill-rule="evenodd" stroke="none"/>
    <path d="M103.9 51.05 L99.8 54.95 99.6 55.1 99.4 55.3 97.6 53.05 95.4 48.5 94.75 49.5 93.85 47.15 Q91.7 41.9 88.95 37.05 L88.1 35.6 Q83.8 28.35 79.3 24.4 L78.85 24.05 Q77.6 22.95 76.3 22.2 74.95 21.35 73.6 20.8 L73.5 20.75 73.35 20.7 76.55 17.3 77.7 16.25 78.15 16.9 80.35 19.65 80.45 19.8 80.55 19.9 80.8 20.2 81.1 20.55 81.15 20.65 81.3 20.75 81.45 20.95 Q85.9 26.1 87.75 26.1 89.9 26.1 91.0 24.0 L90.8 23.4 89.65 19.55 89.6 19.45 Q91.3 19.6 92.7 20.75 L93.05 21.8 94.0 25.0 Q97.25 36.5 97.85 38.1 L99.55 42.05 103.9 51.05 M132.65 3.25 L132.7 3.3 Q134.15 4.5 136.45 9.5 141.9 21.4 141.9 27.35 141.9 28.25 141.3 28.8 140.75 29.3 140.0 29.3 138.7 29.3 137.25 26.75 L137.15 26.25 137.0 25.5 Q135.9 19.6 135.15 13.55 135.15 11.7 133.4 5.75 L133.1 4.75 133.0 4.5 132.65 3.25 M239.6 -1.35 L239.6 -1.4 240.3 -2.45 241.65 -4.05 Q242.05 -5.15 245.2 -7.55 L248.8 -9.7 248.75 -9.6 248.55 -8.65 248.2 -6.9 247.6 -4.4 247.65 -3.95 Q247.9 -1.2 250.05 -1.2 L251.55 -2.3 251.75 -2.45 252.35 -0.45 251.7 0.0 249.5 1.5 249.25 1.65 249.15 1.7 248.9 1.9 248.65 2.05 246.85 3.3 245.3 4.35 244.95 6.05 Q244.05 9.95 243.9 11.6 L243.85 12.4 Q243.8 14.05 244.1 16.7 242.6 22.8 241.75 22.8 239.8 22.8 239.35 21.2 L239.25 19.25 238.25 19.65 236.65 20.0 236.6 19.55 236.55 19.4 Q236.65 13.85 236.25 10.75 236.0 8.75 235.35 7.4 L235.6 6.7 Q236.35 4.6 237.25 2.75 L237.4 3.35 237.6 4.55 241.0 15.75 Q243.15 8.4 243.15 3.0 L242.75 0.8 239.6 -1.35 M93.55 51.1 L92.6 52.2 Q89.45 55.75 87.1 55.75 L86.15 55.6 83.4 53.5 81.05 51.5 Q71.9 43.55 69.0 43.55 L68.3 43.7 68.6 45.9 Q69.2 49.05 71.25 56.9 L72.2 60.4 72.75 62.5 71.0 62.85 Q69.3 62.85 67.75 59.1 L67.75 59.05 67.85 58.1 67.85 58.05 Q67.85 50.6 66.05 37.85 L65.5 37.0 62.85 33.45 61.9 32.5 Q63.5 30.95 66.35 29.2 L66.8 28.95 66.95 30.15 67.1 30.35 69.75 33.15 70.95 34.25 77.85 39.85 93.55 51.1" fill="#a4ffff" fill-rule="evenodd" stroke="none"/>
    <path d="M109.75 43.9 Q108.0 46.55 105.25 49.65 102.75 46.9 99.7 42.35 L99.55 42.05 97.85 38.1 Q97.25 36.5 94.0 25.0 L93.05 21.8 92.7 20.75 92.35 19.8 Q95.2 23.5 100.95 32.55 L107.65 41.0 109.75 43.9 M86.75 65.35 L79.15 70.35 78.7 69.85 Q76.85 67.45 76.4 65.1 76.05 62.95 74.05 60.7 L71.25 56.9 Q69.2 49.05 68.6 45.9 L68.3 43.7 69.0 43.55 Q71.9 43.55 81.05 51.5 L83.4 53.5 86.75 65.35 M137.7 10.5 L135.65 5.5 135.4 4.9 135.35 4.8 135.05 4.1 134.7 3.45 134.75 3.45 Q137.3 4.1 141.0 8.05 L148.35 16.5 Q146.1 18.3 145.55 18.3 143.65 18.3 138.25 11.65 L138.0 11.3 137.7 10.5 M239.6 -1.35 L242.75 0.8 243.15 3.0 Q243.15 8.4 241.0 15.75 L237.6 4.55 237.4 3.35 Q238.25 0.85 239.6 -1.35 M248.55 -8.65 Q250.45 -5.6 251.55 -2.3 L250.05 -1.2 Q247.9 -1.2 247.65 -3.95 L247.6 -4.4 248.2 -6.9 248.55 -8.65 M251.7 0.0 L252.9 -0.8 Q253.5 0.85 253.5 2.15 253.5 4.65 251.7 16.65 251.7 20.65 251.2 24.1 L250.7 26.9 249.8 26.9 244.85 26.7 244.8 26.1 244.25 26.05 244.25 25.8 244.65 21.6 244.65 21.45 244.15 17.2 244.1 16.7 Q243.8 14.05 243.85 12.4 L243.9 11.6 Q244.05 9.95 244.95 6.05 L245.3 4.35 246.85 3.3 248.65 2.05 248.9 1.9 249.15 1.7 249.25 1.65 249.5 1.5 251.7 0.0 M133.0 4.5 L133.1 4.75 133.4 5.75 Q135.15 11.7 135.15 13.55 135.9 19.6 137.0 25.5 136.5 25.95 135.75 25.95 134.25 25.95 131.5 16.55 129.0 8.1 129.0 6.9 129.0 2.55 133.0 4.5 M77.45 15.75 Q80.2 16.1 84.55 17.55 87.3 18.5 89.65 19.55 L90.8 23.4 91.0 24.0 Q89.9 26.1 87.75 26.1 85.9 26.1 81.45 20.95 L81.3 20.75 81.15 20.65 81.1 20.55 80.8 20.2 80.55 19.9 80.45 19.8 80.35 19.65 78.15 16.9 77.45 15.75 M73.6 20.8 Q74.95 21.35 76.3 22.2 77.6 22.95 78.85 24.05 L79.3 24.4 Q83.8 28.35 88.1 35.6 L88.95 37.05 Q91.7 41.9 93.85 47.15 L94.05 47.65 94.2 51.55 93.55 51.1 77.85 39.85 70.95 34.25 69.75 33.15 67.1 30.35 66.95 30.15 66.8 28.95 66.75 28.6 Q70.55 24.0 73.6 20.8 M62.85 33.45 L65.5 37.0 66.05 37.85 Q67.85 50.6 67.85 58.05 L67.85 58.1 67.75 59.05 67.75 59.1 67.25 62.35 67.2 62.7 62.95 53.7 62.9 53.55 62.6 53.0 62.6 52.95 Q62.25 49.1 62.25 44.7 62.85 37.2 62.85 33.45" fill="#01c2e4" fill-rule="evenodd" stroke="none"/>
    <path d="M323.45 44.1 L327.1 42.15 327.7 41.65 328.3 40.75 328.5 40.9 330.35 38.35 Q331.45 36.35 331.9 33.45 L332.1 32.5 332.15 31.95 332.2 31.6 332.25 31.4 332.55 29.7 332.85 26.85 Q332.85 25.0 332.35 23.25 331.3 18.1 327.55 14.65 324.0 11.35 319.05 10.4 L316.2 10.0 Q309.6 9.55 304.85 12.7 301.75 14.75 300.55 17.75 300.25 18.4 300.1 19.1 297.9 22.15 297.9 25.75 L297.85 28.65 Q298.05 32.05 299.25 34.8 L300.6 37.3 302.6 35.1 306.85 30.8 306.6 29.65 Q306.6 25.25 309.3 22.45 311.75 19.95 315.25 19.7 317.35 19.6 319.05 20.3 L321.2 21.65 Q323.9 24.1 323.9 28.5 323.9 33.35 319.05 34.8 L315.3 35.4 314.8 35.4 314.0 35.4 313.65 35.4 311.95 37.05 311.5 37.75 311.15 37.75 309.05 39.6 308.8 39.85 309.15 40.15 309.65 40.4 310.75 40.9 311.65 41.0 311.7 41.0 Q315.95 41.0 319.05 40.0 L319.8 39.75 Q323.9 38.15 325.9 34.65 L326.45 33.65 Q328.0 30.55 328.0 26.45 328.0 21.75 326.3 19.5 325.3 18.15 323.65 17.25 321.85 15.6 319.35 15.6 L319.05 15.6 318.4 15.6 315.25 15.3 314.95 15.25 313.6 15.25 313.3 15.25 309.8 15.6 Q308.3 16.05 308.2 17.2 306.25 18.25 304.7 19.65 L305.55 18.35 Q308.85 14.45 318.95 13.9 L319.05 13.95 Q322.55 15.8 325.15 18.1 327.95 20.55 329.3 23.05 L328.8 27.1 Q328.8 32.0 327.2 35.4 324.75 40.6 319.05 41.9 L315.0 42.3 311.05 42.2 309.5 41.9 308.8 41.15 308.2 40.35 307.7 40.75 305.15 42.85 305.25 42.95 Q306.85 44.05 309.25 44.65 L309.55 44.75 315.3 45.3 319.05 45.1 Q321.45 44.8 323.45 44.1 M288.8 18.2 L290.0 17.45 Q291.05 16.85 292.65 16.3 L292.75 16.3 Q293.8 14.6 296.5 12.75 301.7 9.2 307.65 10.1 311.3 8.55 315.85 8.8 L319.05 9.2 Q324.6 10.25 328.85 14.15 334.8 19.6 334.8 27.85 334.8 33.45 331.1 39.1 L331.15 39.1 330.25 40.3 327.95 43.8 326.9 44.4 326.7 44.55 325.5 45.25 323.3 46.7 322.7 46.2 Q321.0 46.9 319.05 47.2 L315.4 47.5 311.65 47.15 311.65 47.2 311.15 47.45 309.6 47.5 Q304.5 47.5 302.1 46.4 L301.45 45.9 296.85 49.85 Q292.7 54.2 282.7 63.25 L276.85 68.55 278.35 72.55 Q278.35 73.65 277.85 74.6 277.15 75.95 275.65 75.95 274.05 75.95 272.3 72.15 270.65 72.15 269.95 70.95 L271.4 69.95 270.75 68.0 268.35 64.95 267.0 66.15 Q266.7 65.55 266.7 64.75 L267.65 64.05 264.8 60.05 264.6 60.0 264.7 59.95 264.4 59.5 Q258.2 50.6 258.2 49.6 258.2 45.3 260.9 45.8 262.0 46.0 263.45 47.0 263.9 40.8 268.8 50.2 273.0 47.0 279.75 42.45 L289.1 35.95 290.5 33.75 291.45 32.45 290.7 30.25 290.5 29.8 Q289.7 27.85 289.65 26.35 L286.5 26.15 287.1 25.45 287.75 25.5 289.2 25.15 291.5 25.65 292.95 25.5 292.0 29.25 292.3 31.25 292.3 31.85 292.9 33.1 293.0 32.9 293.15 33.65 293.45 34.2 295.2 37.35 295.5 37.1 295.8 37.7 295.5 37.95 295.8 38.5 296.7 38.8 296.95 39.1 297.35 39.8 297.3 40.05 296.75 40.3 296.85 40.5 297.0 40.55 299.9 38.0 Q296.85 32.85 296.85 29.05 296.85 26.6 297.2 24.4 L295.8 24.85 295.7 24.8 Q294.35 26.15 293.85 26.2 L293.0 25.5 Q295.95 24.75 297.7 21.0 L297.95 20.45 298.85 19.25 299.85 16.8 299.4 16.8 Q300.0 15.35 300.7 14.6 L300.75 14.6 300.95 15.3 Q301.75 14.2 302.8 13.25 304.5 11.65 306.5 10.65 301.2 12.0 297.8 14.2 297.0 14.7 296.2 15.35 293.6 16.1 291.6 17.2 L290.35 18.0 290.85 18.0 289.65 18.05 288.8 18.2 M329.6 118.9 L330.05 121.35 329.9 121.5 330.1 122.95 330.05 125.85 330.15 125.9 330.0 126.45 330.0 126.9 Q330.2 136.45 332.45 142.55 332.15 143.05 331.15 143.45 329.25 144.3 325.45 144.3 322.95 144.3 321.35 143.1 320.15 142.15 320.15 141.45 L320.55 135.9 320.95 130.3 Q320.9 127.9 321.35 124.6 321.9 120.85 323.0 119.15 L322.85 119.35 Q324.3 120.3 326.1 120.3 328.1 120.3 329.6 118.9 M328.85 124.3 L327.9 122.4 327.5 122.5 327.3 122.45 326.9 122.5 Q326.0 122.5 325.35 122.0 L324.5 121.85 324.35 121.65 323.95 121.6 322.65 121.35 322.55 126.15 322.8 126.25 Q323.65 126.7 324.0 127.2 L324.8 127.2 327.75 126.4 328.15 126.25 328.25 126.1 328.5 126.15 329.35 125.9 328.85 124.3 M323.85 127.9 L322.5 127.55 322.3 130.45 321.9 136.95 Q321.95 139.75 322.3 140.35 323.25 142.0 327.1 142.0 329.55 142.0 330.15 138.95 L330.2 135.75 Q330.05 129.95 329.6 127.15 L329.3 127.45 Q328.65 128.05 327.9 128.2 L327.35 128.25 324.35 128.0 323.85 127.9 M300.95 28.3 L300.75 25.8 Q300.75 24.8 302.1 22.4 303.55 19.8 304.75 19.3 L304.5 19.85 304.05 20.25 Q301.6 22.75 301.6 24.85 L301.7 25.85 301.75 26.8 Q301.5 27.6 301.4 28.4 L300.95 28.4 300.95 28.3 M310.55 23.0 L310.15 23.3 Q307.75 25.1 307.75 27.6 307.75 28.35 308.4 29.35 L308.6 29.2 308.3 29.05 308.5 28.7 308.65 28.6 309.15 28.7 312.8 25.7 315.75 23.9 315.7 23.85 315.95 23.85 316.6 23.6 316.85 23.75 Q318.05 24.7 318.45 25.8 L318.6 26.3 318.7 28.0 317.5 30.45 317.65 31.2 317.55 31.35 314.65 34.45 Q317.15 34.35 319.05 33.35 L320.45 32.45 321.1 31.8 Q322.95 29.85 322.95 27.95 L322.75 25.9 Q322.2 23.75 320.6 22.55 319.9 22.0 319.05 21.7 L315.35 21.3 Q312.6 21.55 310.55 23.0 M297.45 23.1 L297.45 23.05 297.45 23.1 M297.6 22.4 L297.4 22.85 297.5 22.95 297.6 22.4 M301.8 27.2 L301.8 27.35 302.25 28.5 302.25 28.8 Q302.25 29.85 302.65 30.9 L303.6 32.9 Q302.15 32.25 301.75 30.8 301.6 30.25 301.6 29.0 L301.8 27.2 M291.8 33.95 L291.95 33.85 291.95 33.75 291.8 33.95 M275.6 63.45 L276.2 65.35 276.55 66.3 Q285.85 59.35 294.3 51.1 L300.5 44.7 300.5 44.65 300.55 44.65 301.8 43.3 303.7 41.7 304.15 41.35 309.7 36.35 311.9 34.15 312.15 33.95 312.15 33.45 Q312.15 32.15 311.1 30.95 L310.25 30.15 Q302.55 36.1 292.95 45.45 L276.95 57.65 274.45 59.7 275.2 61.4 275.5 62.7 275.6 63.45 M293.95 39.05 Q281.75 47.8 271.7 55.45 L272.8 57.05 274.15 59.15 277.6 56.55 282.6 52.8 287.2 48.85 295.45 41.95 295.95 41.5 Q295.5 41.5 294.95 40.7 L294.9 40.65 294.9 40.6 294.4 39.75 294.35 39.7 293.95 39.05 M292.25 34.7 L281.85 42.4 269.3 51.15 270.9 54.4 270.95 54.45 271.2 54.8 Q280.15 47.9 293.7 38.35 L292.25 34.7 M317.45 27.8 L317.3 26.75 316.85 25.45 316.8 25.45 316.85 25.4 316.85 25.35 316.75 25.45 316.05 25.35 315.75 25.7 315.7 25.65 Q314.95 25.9 313.9 26.55 312.8 27.25 312.55 27.8 L312.45 28.15 312.45 28.45 Q311.8 28.9 311.1 29.45 312.8 30.55 313.25 32.95 L317.55 28.5 317.45 27.8 M304.35 43.55 L302.65 44.95 305.15 45.1 306.95 45.4 304.35 43.55" fill="#432e12" fill-rule="evenodd" stroke="none"/>
    <path d="M300.55 17.75 Q301.75 14.75 304.85 12.7 309.6 9.55 316.2 10.0 L319.05 10.4 Q324.0 11.35 327.55 14.65 331.3 18.1 332.35 23.25 332.85 25.0 332.85 26.85 L332.55 29.7 332.25 31.4 332.2 31.6 332.15 31.95 332.1 32.5 331.9 33.45 Q331.45 36.35 330.35 38.35 L328.5 40.9 328.3 40.75 327.7 41.65 327.1 42.15 323.45 44.1 322.05 44.5 324.2 41.1 Q328.8 34.0 329.55 31.0 L330.95 26.3 Q329.65 20.45 327.0 17.4 323.05 12.9 315.25 12.9 310.35 12.9 306.5 15.5 302.7 18.1 301.9 18.1 L300.55 17.75 M319.8 39.75 L319.05 40.0 Q315.95 41.0 311.7 41.0 L313.45 38.25 314.45 36.6 315.3 35.4 319.05 34.8 Q323.9 33.35 323.9 28.5 323.9 24.1 321.2 21.65 L319.05 20.3 Q317.35 19.6 315.25 19.7 311.75 19.95 309.3 22.45 306.6 25.25 306.6 29.65 L306.85 30.8 302.6 35.1 300.75 29.4 300.9 28.05 300.95 28.3 300.95 28.4 301.4 28.4 Q301.5 27.6 301.75 26.8 L301.7 25.85 Q302.7 23.9 304.85 22.15 308.75 18.95 313.85 18.2 319.35 17.4 322.85 20.1 326.95 23.3 326.95 30.45 326.95 33.9 323.3 37.3 321.7 38.75 319.8 39.75 M323.95 121.6 L324.35 121.65 324.5 121.85 325.35 122.0 Q326.0 122.5 326.9 122.5 L327.3 122.45 327.5 122.5 327.9 122.4 328.85 124.3 Q328.25 126.55 326.1 126.55 324.65 126.55 324.1 125.3 323.75 124.55 323.75 123.65 L323.95 121.6 M327.9 128.2 L327.4 132.7 Q326.8 138.5 326.45 139.15 324.75 137.35 324.0 129.85 L323.85 127.9 324.35 128.0 327.35 128.25 327.9 128.2 M301.8 27.2 L301.6 29.0 Q301.6 30.25 301.75 30.8 302.15 32.25 303.6 32.9 L302.65 30.9 Q302.25 29.85 302.25 28.8 L302.25 28.5 301.8 27.35 301.8 27.2 M275.2 61.4 L274.45 59.7 276.95 57.65 292.95 45.45 Q302.55 36.1 310.25 30.15 L311.1 30.95 311.2 31.05 300.15 39.8 Q282.8 53.4 275.2 61.4" fill="#9f7535" fill-rule="evenodd" stroke="none"/>
    <path d="M300.55 17.75 L301.9 18.1 Q302.7 18.1 306.5 15.5 310.35 12.9 315.25 12.9 323.05 12.9 327.0 17.4 329.65 20.45 330.95 26.3 L329.55 31.0 Q328.8 34.0 324.2 41.1 L322.05 44.5 323.45 44.1 Q321.45 44.8 319.05 45.1 L315.3 45.3 309.55 44.75 311.05 42.2 315.0 42.3 319.05 41.9 Q324.75 40.6 327.2 35.4 328.8 32.0 328.8 27.1 L329.3 23.05 Q327.95 20.55 325.15 18.1 322.55 15.8 319.05 13.95 L318.95 13.9 Q308.85 14.45 305.55 18.35 L304.7 19.65 Q306.25 18.25 308.2 17.2 308.3 16.05 309.8 15.6 L313.3 15.25 313.6 15.25 314.95 15.25 315.25 15.3 318.4 15.6 319.05 15.6 319.35 15.6 Q321.85 15.6 323.65 17.25 325.3 18.15 326.3 19.5 328.0 21.75 328.0 26.45 328.0 30.55 326.45 33.65 L325.9 34.65 Q323.9 38.15 319.8 39.75 321.7 38.75 323.3 37.3 326.95 33.9 326.95 30.45 326.95 23.3 322.85 20.1 319.35 17.4 313.85 18.2 308.75 18.95 304.85 22.15 302.7 23.9 301.7 25.85 L301.6 24.85 Q301.6 22.75 304.05 20.25 L304.5 19.85 304.75 19.3 Q303.55 19.8 302.1 22.4 300.75 24.8 300.75 25.8 L300.95 28.3 300.9 28.05 300.75 29.4 302.6 35.1 300.6 37.3 299.25 34.8 Q298.05 32.05 297.85 28.65 L297.9 25.75 Q297.9 22.15 300.1 19.1 300.25 18.4 300.55 17.75 M296.2 15.35 Q297.0 14.7 297.8 14.2 301.2 12.0 306.5 10.65 304.5 11.65 302.8 13.25 301.75 14.2 300.95 15.3 L300.75 14.6 300.7 14.6 300.2 14.45 300.0 14.4 299.8 14.0 299.55 14.1 299.45 14.2 299.2 14.1 298.45 14.75 298.0 15.15 297.8 15.4 296.4 15.85 295.75 15.7 295.9 15.6 296.25 15.35 296.2 15.35 M323.95 121.6 L323.75 123.65 Q323.75 124.55 324.1 125.3 324.65 126.55 326.1 126.55 328.25 126.55 328.85 124.3 L329.35 125.9 328.5 126.15 328.25 126.1 328.15 126.25 327.75 126.4 324.8 127.2 324.0 127.2 Q323.65 126.7 322.8 126.25 L322.55 126.15 322.65 121.35 323.95 121.6 M327.9 128.2 Q328.65 128.05 329.3 127.45 L329.6 127.15 Q330.05 129.95 330.2 135.75 L330.15 138.95 Q329.55 142.0 327.1 142.0 323.25 142.0 322.3 140.35 321.95 139.75 321.9 136.95 L322.3 130.45 322.5 127.55 323.85 127.9 324.0 129.85 Q324.75 137.35 326.45 139.15 326.8 138.5 327.4 132.7 L327.9 128.2 M275.6 63.45 L275.5 62.7 275.2 61.4 Q282.8 53.4 300.15 39.8 L311.2 31.05 311.1 30.95 Q312.15 32.15 312.15 33.45 L312.15 33.95 311.9 34.15 309.7 36.35 310.35 35.7 296.3 46.5 Q282.25 57.45 275.6 63.45" fill="#7b5d2a" fill-rule="evenodd" stroke="none"/>
    <path d="M288.8 18.2 L289.65 18.05 290.85 18.0 290.35 18.0 291.6 17.2 Q293.6 16.1 296.2 15.35 L296.25 15.35 295.9 15.6 295.75 15.7 296.4 15.85 297.8 15.4 298.0 15.15 298.45 14.75 298.85 14.7 297.95 15.6 297.05 16.8 297.35 17.45 Q296.8 17.7 296.3 18.1 294.65 19.35 294.65 20.2 294.65 21.2 294.8 21.3 L295.3 21.5 Q296.9 21.35 297.95 20.45 L297.7 21.0 Q295.95 24.75 293.0 25.5 L292.95 25.5 291.5 25.65 289.2 25.15 287.75 25.5 287.1 25.45 286.5 26.15 Q284.9 26.6 282.85 27.95 L280.25 29.95 Q277.6 29.0 273.7 29.9 L277.15 26.6 Q279.6 24.6 279.85 23.7 L281.25 22.0 280.8 21.0 Q277.9 21.0 275.35 24.15 L275.3 24.2 275.35 23.85 275.2 22.85 274.6 22.65 Q273.7 22.95 272.9 24.3 L271.75 26.2 272.35 27.05 273.45 26.25 Q272.15 27.85 272.15 28.8 272.15 30.45 272.5 29.55 L273.05 29.35 273.15 29.85 273.6 29.9 272.4 30.2 Q270.75 30.65 269.5 31.2 L265.1 30.6 265.1 30.45 Q265.1 28.15 267.35 25.6 L269.7 23.5 270.3 24.05 Q271.3 23.8 274.55 22.15 L276.6 21.05 277.3 21.2 277.75 21.35 278.8 20.5 279.05 20.6 282.7 19.15 282.75 19.15 283.7 19.95 285.75 19.5 285.85 19.45 288.15 18.5 288.3 18.45 288.45 18.4 288.8 18.2 M300.7 14.6 Q300.0 15.35 299.4 16.8 L298.85 16.9 299.1 16.6 Q300.05 15.65 300.05 15.1 L300.05 14.45 300.2 14.45 300.7 14.6 M323.3 46.7 L325.5 45.25 Q325.0 45.75 325.0 46.45 325.0 47.45 325.25 47.5 L326.1 47.5 Q327.15 47.25 328.15 45.8 L329.1 43.85 326.9 44.45 326.7 44.55 326.9 44.4 327.95 43.8 330.25 40.3 331.15 39.1 331.85 39.15 Q332.2 39.25 332.2 40.3 L332.15 41.1 332.15 41.3 332.05 42.0 332.2 42.95 Q332.2 44.7 330.65 48.1 L330.5 48.45 330.65 50.25 330.5 51.75 330.3 53.0 329.8 54.8 Q330.4 55.75 330.45 57.2 330.5 59.25 330.2 61.0 330.6 61.6 330.65 62.45 330.75 64.95 330.25 67.2 L330.25 67.5 Q330.9 68.95 331.0 71.8 331.05 74.0 329.95 77.7 L329.15 80.05 329.55 80.45 Q330.7 81.7 330.8 84.05 330.85 85.6 329.65 88.85 L329.05 90.3 328.9 90.6 Q329.45 91.05 329.85 92.0 330.4 93.4 330.6 95.95 L330.6 96.0 330.6 96.1 330.55 97.8 Q330.9 98.45 331.05 100.25 L331.1 100.9 330.75 106.75 330.75 106.85 330.75 107.0 330.7 107.55 330.6 108.75 Q330.1 114.9 329.6 116.7 L329.55 116.9 329.45 118.25 329.6 118.9 Q328.1 120.3 326.1 120.3 324.3 120.3 322.85 119.35 L323.0 119.15 Q323.45 118.4 324.0 118.05 L324.05 118.0 324.1 117.95 324.1 117.85 Q324.7 118.5 325.8 118.5 327.6 118.5 328.8 116.1 329.95 113.7 329.1 112.25 328.1 112.15 326.0 113.95 L323.95 115.95 323.95 113.45 325.45 114.15 Q328.65 111.7 328.65 110.5 328.65 109.45 328.35 109.0 L327.8 108.35 328.15 107.8 329.85 104.85 328.95 103.35 327.2 106.05 Q325.65 108.4 323.9 109.1 L324.35 109.6 324.45 109.75 325.55 109.9 325.2 110.35 Q324.55 111.35 324.05 112.6 L324.35 110.6 323.7 108.85 323.1 105.05 Q323.0 103.25 323.65 101.75 L323.75 102.0 324.35 102.2 Q325.5 102.05 327.8 99.4 330.0 96.85 330.0 96.25 L329.75 95.1 Q329.35 95.05 329.1 94.8 328.25 95.2 325.95 97.7 L324.0 100.1 323.8 97.65 Q323.65 95.55 324.05 94.0 L323.9 93.8 Q323.7 93.3 323.65 92.0 L323.55 91.05 323.8 91.5 324.8 91.95 327.5 90.05 Q328.8 88.8 328.8 87.5 L328.75 86.45 328.45 86.2 Q327.85 86.2 327.2 86.5 L328.35 85.35 Q329.3 84.05 329.3 82.85 L329.05 81.7 328.15 81.45 Q327.0 81.95 325.25 83.35 L323.95 84.55 Q324.1 81.9 325.2 80.7 L325.15 80.6 325.45 80.65 Q327.25 79.9 328.45 78.25 329.6 76.65 329.6 75.15 L329.55 74.1 Q329.35 74.15 329.1 73.9 327.6 74.2 325.7 76.7 L324.45 78.5 324.2 75.95 324.2 74.9 325.45 76.25 328.1 73.25 Q330.2 70.5 330.2 69.85 330.2 68.9 329.9 68.7 L329.6 68.4 Q327.5 68.65 325.45 71.45 L324.25 73.2 Q324.45 71.0 325.1 69.4 L324.6 68.05 324.45 65.15 324.45 64.05 Q324.05 63.5 323.9 62.6 L323.8 59.8 Q323.7 58.15 323.95 56.95 L323.9 56.6 323.75 55.4 323.8 53.65 323.9 53.95 324.25 54.1 325.75 54.25 325.4 55.1 324.1 58.95 Q324.55 59.45 325.45 59.8 328.8 56.3 328.8 54.0 L328.55 52.65 Q330.0 51.1 330.0 49.7 L329.75 48.55 329.1 48.15 Q327.6 48.4 325.55 50.0 L323.95 51.6 323.6 50.85 323.45 49.05 Q323.45 47.85 323.8 46.9 L323.5 46.8 323.3 46.7 M323.6 89.75 Q323.7 88.55 324.05 87.6 L324.0 86.75 325.8 86.9 326.75 86.75 325.05 88.05 323.6 89.75 M329.55 92.1 Q329.55 91.1 329.15 90.95 L328.15 90.75 325.95 93.15 Q324.1 95.45 324.1 96.1 324.1 97.1 324.45 97.25 L325.45 97.5 Q327.25 96.2 329.55 92.1 M330.0 63.7 L329.1 62.7 Q327.9 63.0 326.3 64.75 324.8 66.45 324.8 67.15 324.8 68.2 325.05 68.3 L325.3 68.25 326.75 68.7 Q329.05 67.6 330.0 63.7 M328.45 57.25 Q327.5 57.8 325.9 60.25 324.4 62.6 324.4 63.25 324.4 64.25 324.85 64.3 L326.1 64.35 328.1 61.7 329.55 59.3 Q329.55 58.3 329.2 57.9 L328.45 57.25 M326.9 100.7 L324.35 104.7 Q324.45 105.75 326.45 105.75 L329.35 101.9 Q330.7 99.85 329.85 98.15 328.05 98.6 326.9 100.7 M289.8 24.35 L293.05 21.1 295.5 17.3 294.85 16.25 Q293.45 16.05 291.55 18.8 L288.4 23.45 Q288.8 24.05 289.8 24.35 M283.8 24.5 L285.2 23.15 Q284.9 23.7 284.9 24.1 284.9 25.75 285.25 24.85 286.6 24.95 288.45 22.85 290.1 20.95 290.1 20.3 L289.95 19.15 289.45 18.85 Q288.55 19.1 286.8 21.0 L286.65 19.8 Q286.35 19.75 286.05 19.5 284.2 20.2 281.3 23.55 278.65 26.5 278.65 26.95 278.65 28.0 278.9 27.95 L279.15 27.7 Q280.6 27.55 283.8 24.5" fill="#656741" fill-rule="evenodd" stroke="none"/>
    <path d="M299.4 16.8 L299.85 16.8 298.85 19.25 297.95 20.45 Q296.9 21.35 295.3 21.5 L294.8 21.3 Q294.65 21.2 294.65 20.2 294.65 19.35 296.3 18.1 296.8 17.7 297.35 17.45 L297.05 16.8 297.95 15.6 298.85 14.7 299.45 14.2 299.55 14.1 299.8 14.0 300.0 14.4 300.05 14.45 300.05 15.1 Q300.05 15.65 299.1 16.6 L298.85 16.9 299.4 16.8 M325.5 45.25 L326.7 44.55 326.9 44.45 329.1 43.85 328.15 45.8 Q327.15 47.25 326.1 47.5 L325.25 47.5 Q325.0 47.45 325.0 46.45 325.0 45.75 325.5 45.25 M324.1 117.85 L324.0 117.75 323.45 116.65 323.95 115.95 326.0 113.95 Q328.1 112.15 329.1 112.25 329.95 113.7 328.8 116.1 327.6 118.5 325.8 118.5 324.7 118.5 324.1 117.85 M323.95 113.45 L323.75 113.3 324.05 112.6 Q324.55 111.35 325.2 110.35 L325.55 109.9 324.45 109.75 324.35 109.6 323.9 109.1 Q325.65 108.4 327.2 106.05 L328.95 103.35 329.85 104.85 328.15 107.8 327.8 108.35 328.35 109.0 Q328.65 109.45 328.65 110.5 328.65 111.7 325.45 114.15 L323.95 113.45 M323.65 101.75 L323.6 100.95 Q323.6 100.65 324.0 100.1 L325.95 97.7 Q328.25 95.2 329.1 94.8 329.35 95.05 329.75 95.1 L330.0 96.25 Q330.0 96.85 327.8 99.4 325.5 102.05 324.35 102.2 L323.75 102.0 323.65 101.75 M323.55 91.05 L323.45 90.1 323.6 89.75 325.05 88.05 326.75 86.75 325.8 86.9 324.0 86.75 323.9 86.75 323.7 86.55 Q323.45 86.35 323.45 85.35 L323.95 84.55 325.25 83.35 Q327.0 81.95 328.15 81.45 L329.05 81.7 329.3 82.85 Q329.3 84.05 328.35 85.35 L327.2 86.5 Q327.85 86.2 328.45 86.2 L328.75 86.45 328.8 87.5 Q328.8 88.8 327.5 90.05 L324.8 91.95 323.8 91.5 323.55 91.05 M325.15 80.6 L324.45 80.45 Q324.1 80.3 324.1 79.3 L324.45 78.5 325.7 76.7 Q327.6 74.2 329.1 73.9 329.35 74.15 329.55 74.1 L329.6 75.15 Q329.6 76.65 328.45 78.25 327.25 79.9 325.45 80.65 L325.15 80.6 M324.2 74.9 L323.75 74.4 Q323.75 74.0 324.25 73.2 L325.45 71.45 Q327.5 68.65 329.6 68.4 L329.9 68.7 Q330.2 68.9 330.2 69.85 330.2 70.5 328.1 73.25 L325.45 76.25 324.2 74.9 M323.8 53.65 L323.75 53.6 Q323.6 53.35 323.6 52.4 323.6 52.05 323.95 51.6 L325.55 50.0 Q327.6 48.4 329.1 48.15 L329.75 48.55 330.0 49.7 Q330.0 51.1 328.55 52.65 L328.8 54.0 Q328.8 56.3 325.45 59.8 324.55 59.45 324.1 58.95 L325.4 55.1 325.75 54.25 324.25 54.1 323.9 53.95 323.8 53.65 M328.45 57.25 L329.2 57.9 Q329.55 58.3 329.55 59.3 L328.1 61.7 326.1 64.35 324.85 64.3 Q324.4 64.25 324.4 63.25 324.4 62.6 325.9 60.25 327.5 57.8 328.45 57.25 M330.0 63.7 Q329.05 67.6 326.75 68.7 L325.3 68.25 325.05 68.3 Q324.8 68.2 324.8 67.15 324.8 66.45 326.3 64.75 327.9 63.0 329.1 62.7 L330.0 63.7 M329.55 92.1 Q327.25 96.2 325.45 97.5 L324.45 97.25 Q324.1 97.1 324.1 96.1 324.1 95.45 325.95 93.15 L328.15 90.75 329.15 90.95 Q329.55 91.1 329.55 92.1 M326.9 100.7 Q328.05 98.6 329.85 98.15 330.7 99.85 329.35 101.9 L326.45 105.75 Q324.45 105.75 324.35 104.7 L326.9 100.7 M273.6 29.9 L273.15 29.85 273.05 29.35 272.5 29.55 Q272.15 30.45 272.15 28.8 272.15 27.85 273.45 26.25 L272.35 27.05 271.75 26.2 272.9 24.3 Q273.7 22.95 274.6 22.65 L275.2 22.85 275.35 23.85 275.3 24.2 275.35 24.15 Q277.9 21.0 280.8 21.0 L281.25 22.0 279.85 23.7 Q279.6 24.6 277.15 26.6 L273.7 29.9 273.65 29.9 273.6 29.9 M283.8 24.5 Q280.6 27.55 279.15 27.7 L278.9 27.95 Q278.65 28.0 278.65 26.95 278.65 26.5 281.3 23.55 284.2 20.2 286.05 19.5 286.35 19.75 286.65 19.8 L286.8 21.0 Q288.55 19.1 289.45 18.85 L289.95 19.15 290.1 20.3 Q290.1 20.95 288.45 22.85 286.6 24.95 285.25 24.85 284.9 25.75 284.9 24.1 284.9 23.7 285.2 23.15 L283.8 24.5 M289.8 24.35 Q288.8 24.05 288.4 23.45 L291.55 18.8 Q293.45 16.05 294.85 16.25 L295.5 17.3 293.05 21.1 289.8 24.35" fill="#a5a774" fill-rule="evenodd" stroke="none"/>
    <path d="M312.8 25.7 L309.15 28.7 308.65 28.6 308.5 28.7 308.3 29.05 308.6 29.2 308.4 29.35 Q307.75 28.35 307.75 27.6 307.75 25.1 310.15 23.3 L310.55 23.0 Q310.75 24.7 311.95 25.35 L312.8 25.7 M322.75 25.9 L322.95 27.95 Q322.95 29.85 321.1 31.8 L320.45 32.45 317.55 31.35 317.65 31.2 317.5 30.45 318.7 28.0 318.6 26.3 319.05 26.3 322.75 25.9 M312.55 27.8 Q313.3 28.9 315.0 28.9 316.1 28.9 317.0 28.15 L317.45 27.8 317.55 28.5 313.25 32.95 Q312.8 30.55 311.1 29.45 311.8 28.9 312.45 28.45 L312.45 28.15 312.55 27.8" fill="#82846f" fill-rule="evenodd" stroke="none"/>
    <path d="M312.8 25.7 L311.95 25.35 Q310.75 24.7 310.55 23.0 312.6 21.55 315.35 21.3 L319.05 21.7 Q319.9 22.0 320.6 22.55 322.2 23.75 322.75 25.9 L319.05 26.3 318.6 26.3 318.45 25.8 Q318.05 24.7 316.85 23.75 L316.6 23.6 315.95 23.85 315.7 23.85 315.75 23.9 312.8 25.7 M312.55 27.8 Q312.8 27.25 313.9 26.55 314.95 25.9 315.7 25.65 L315.75 25.7 316.05 25.35 316.75 25.45 316.85 25.35 316.85 25.4 316.8 25.45 316.85 25.45 317.3 26.75 317.45 27.8 317.0 28.15 Q316.1 28.9 315.0 28.9 313.3 28.9 312.55 27.8" fill="#9b9d8a" fill-rule="evenodd" stroke="none"/>
    <path d="M265.1 30.6 L269.5 31.2 Q267.15 32.2 266.15 33.5 265.55 33.05 265.25 32.35 L265.1 30.6 M300.0 14.4 L300.2 14.45 300.05 14.45 300.0 14.4 M298.45 14.75 L299.2 14.1 299.45 14.2 298.85 14.7 298.45 14.75" fill="#000000" fill-rule="evenodd" stroke="none"/>
    <path d="M309.55 44.75 L309.25 44.65 Q306.85 44.05 305.25 42.95 L305.15 42.85 307.7 40.75 308.8 41.15 309.5 41.9 311.05 42.2 309.55 44.75 M311.7 41.0 L311.65 41.0 310.75 40.9 309.65 40.4 309.15 40.15 308.8 39.85 309.05 39.6 311.15 37.75 311.5 37.75 311.95 37.05 313.65 35.4 314.0 35.4 314.8 35.4 315.3 35.4 314.45 36.6 313.45 38.25 311.7 41.0 M293.0 25.5 L293.85 26.2 Q294.35 26.15 295.7 24.8 L295.8 24.85 297.2 24.4 Q296.85 26.6 296.85 29.05 296.85 32.85 299.9 38.0 L297.0 40.55 296.85 40.5 296.75 40.3 297.3 40.05 297.35 39.8 296.95 39.1 296.7 38.8 295.8 38.5 295.5 37.95 295.8 37.7 295.5 37.1 295.2 37.35 293.45 34.2 293.15 33.65 293.0 32.9 292.9 33.1 292.3 31.85 292.3 31.25 292.0 29.25 292.95 25.5 293.0 25.5 M309.7 36.35 L304.15 41.35 303.7 41.7 301.8 43.3 300.55 44.65 300.5 44.65 300.5 44.7 294.3 51.1 Q285.85 59.35 276.55 66.3 L276.2 65.35 275.6 63.45 Q282.25 57.45 296.3 46.5 L310.35 35.7 309.7 36.35 M292.25 34.7 L293.7 38.35 Q280.15 47.9 271.2 54.8 L270.95 54.45 270.9 54.4 269.3 51.15 281.85 42.4 292.25 34.7 M304.35 43.55 L306.95 45.4 305.15 45.1 302.65 44.95 304.35 43.55" fill="#64451c" fill-rule="evenodd" stroke="none"/>
    <path d="M320.45 32.45 L319.05 33.35 Q317.15 34.35 314.65 34.45 L317.55 31.35 320.45 32.45" fill="#606152" fill-rule="evenodd" stroke="none"/>
    <path d="M307.7 40.75 L308.2 40.35 308.8 41.15 307.7 40.75" fill="#a5722e" fill-rule="evenodd" stroke="none"/>
  </g>
</svg>
