<?xml version="1.0" encoding="UTF-8" standalone="no"?>
<svg xmlns:ffdec="https://www.free-decompiler.com/flash" xmlns:xlink="http://www.w3.org/1999/xlink" ffdec:objectType="shape" height="337.3px" width="135.9px" xmlns="http://www.w3.org/2000/svg">
  <g transform="matrix(1.0, 0.0, 0.0, 1.0, 12.0, 504.2)">
    <path d="M87.75 -501.85 L87.8 -502.55 88.3 -503.05 91.7 -504.0 94.7 -503.75 95.75 -503.5 96.2 -503.7 Q97.3 -504.25 97.6 -502.6 L97.65 -501.35 Q97.8 -499.85 94.7 -497.35 L94.65 -497.3 91.0 -494.7 90.6 -494.5 90.2 -494.5 88.9 -494.75 Q86.95 -495.3 86.85 -496.05 86.7 -496.35 86.8 -496.65 L87.05 -497.15 89.4 -499.45 88.9 -500.1 88.85 -500.15 87.75 -501.85 M92.0 -500.1 L91.8 -500.05 92.0 -498.8 92.8 -499.3 92.0 -500.1 M56.35 -502.15 Q57.85 -500.75 67.1 -494.3 L67.45 -493.85 67.5 -493.3 67.25 -492.8 65.45 -490.95 66.55 -490.1 71.7 -490.95 72.3 -490.75 72.65 -490.2 72.65 -489.6 72.25 -489.1 Q60.7 -482.15 55.55 -478.5 47.05 -472.65 47.3 -468.55 L47.2 -467.95 46.75 -467.55 46.2 -467.45 Q45.85 -467.5 45.65 -467.7 44.6 -468.55 44.4 -470.65 L43.2 -470.55 40.2 -467.6 39.5 -467.35 34.3 -467.45 Q34.0 -467.45 33.8 -467.6 L33.4 -468.0 Q33.3 -468.0 32.75 -468.3 L32.8 -468.3 Q31.35 -469.05 31.25 -469.75 L31.2 -470.35 31.55 -470.9 32.15 -471.1 34.6 -472.35 Q35.45 -472.8 35.95 -473.3 L31.2 -476.4 Q27.45 -478.6 27.5 -482.0 27.3 -485.75 39.45 -494.65 45.25 -498.95 51.25 -502.55 L51.85 -502.7 55.75 -502.45 56.35 -502.15 M50.85 -459.55 Q50.6 -459.3 50.25 -459.25 48.35 -458.95 46.2 -459.8 L45.7 -460.25 45.45 -460.7 45.4 -460.75 Q45.05 -461.5 45.05 -462.15 L45.05 -462.3 45.3 -463.95 45.65 -464.55 46.3 -464.8 47.25 -464.8 47.7 -464.7 49.15 -463.2 50.95 -460.8 51.1 -460.15 50.85 -459.55 M59.95 -454.85 Q62.1 -460.25 66.65 -460.55 L66.75 -460.55 Q72.45 -460.4 77.2 -457.2 81.9 -454.15 81.75 -451.45 81.75 -449.45 80.05 -449.05 L79.85 -448.6 Q80.05 -447.9 83.75 -444.85 88.8 -440.75 89.75 -439.15 L89.7 -439.2 Q91.25 -437.1 91.65 -433.8 91.95 -430.65 93.15 -428.5 L93.25 -427.8 93.0 -426.65 92.75 -426.25 92.35 -425.95 Q91.5 -425.55 90.0 -426.35 89.15 -426.8 88.75 -427.25 L85.6 -427.05 Q79.85 -425.0 74.85 -416.9 70.4 -409.7 70.35 -405.25 70.35 -398.35 73.95 -396.0 L80.45 -395.35 Q80.85 -395.3 81.1 -395.0 L88.45 -385.9 Q89.45 -384.4 89.45 -378.55 89.45 -372.95 88.9 -372.0 L88.8 -371.8 83.65 -364.8 83.65 -361.9 84.7 -361.8 88.95 -361.5 89.2 -361.45 Q92.25 -360.65 94.85 -355.45 97.0 -351.15 96.95 -348.5 L96.95 -346.35 97.4 -345.85 97.5 -345.15 97.15 -344.6 Q96.65 -344.1 93.95 -343.7 92.1 -342.65 90.2 -336.7 88.4 -331.05 88.4 -328.1 88.45 -327.25 89.85 -324.1 91.75 -320.0 94.3 -316.7 L95.4 -315.3 97.4 -313.85 97.4 -313.8 98.55 -312.6 98.6 -312.55 Q100.4 -311.35 108.85 -310.8 L109.5 -310.5 109.95 -310.0 110.1 -310.05 110.65 -310.05 111.15 -309.75 119.95 -299.7 119.95 -299.65 Q122.0 -296.95 122.0 -291.85 122.0 -290.75 122.95 -285.85 123.9 -280.75 123.9 -279.5 123.9 -274.15 121.7 -272.05 L121.75 -272.05 Q119.55 -269.7 118.4 -262.6 L118.15 -254.0 Q117.95 -248.6 114.75 -245.35 114.45 -245.1 114.1 -245.05 113.7 -245.0 113.4 -245.25 110.1 -247.8 109.25 -250.85 L109.25 -250.9 108.75 -250.85 Q107.9 -250.65 105.75 -247.1 103.75 -243.85 102.6 -240.9 L102.55 -240.85 Q101.9 -239.55 100.9 -236.05 99.8 -232.4 99.8 -231.05 99.85 -229.5 102.55 -224.35 105.5 -218.65 105.5 -212.4 105.5 -206.6 104.55 -202.9 103.95 -200.75 102.25 -196.85 L102.2 -196.8 Q99.05 -190.05 97.45 -180.25 L97.45 -180.2 97.5 -179.8 97.4 -179.4 97.3 -179.3 96.8 -175.45 96.55 -174.9 96.0 -174.6 95.8 -174.55 Q95.25 -173.4 94.35 -172.5 94.15 -172.35 93.95 -172.3 L90.0 -171.4 89.4 -171.35 Q88.3 -170.25 87.05 -170.0 L86.55 -170.05 86.15 -170.3 85.7 -170.85 85.25 -171.0 85.2 -171.0 83.95 -171.95 75.85 -169.45 Q67.35 -166.9 63.1 -166.9 L58.75 -167.35 54.7 -167.75 43.45 -169.2 43.4 -169.2 37.45 -170.75 36.85 -170.6 36.2 -170.15 36.05 -170.1 35.25 -169.5 34.7 -169.4 Q32.55 -169.5 31.1 -169.95 L31.1 -169.9 28.5 -170.55 28.05 -170.8 Q25.2 -173.3 23.55 -176.65 L23.45 -177.25 23.75 -177.8 23.95 -177.95 22.5 -181.8 17.85 -194.3 Q13.1 -203.95 13.1 -216.0 13.1 -225.55 18.0 -231.9 L21.2 -236.3 21.15 -236.3 Q22.5 -238.9 22.5 -242.35 22.45 -243.55 20.75 -247.35 L20.75 -247.3 18.2 -252.1 18.0 -252.55 18.0 -252.75 18.05 -253.0 13.1 -253.0 10.05 -250.05 9.3 -249.8 4.05 -250.1 0.05 -250.15 -4.6 -245.55 Q-4.9 -245.25 -5.3 -245.25 L-7.95 -245.25 Q-8.4 -245.25 -8.65 -245.55 -11.35 -248.3 -11.8 -249.85 -12.0 -250.45 -12.0 -253.65 -12.0 -254.65 -11.0 -259.95 -10.1 -265.1 -10.1 -267.4 L-10.05 -273.9 -10.05 -273.95 Q-9.85 -277.75 -9.1 -280.5 L-7.9 -286.45 -7.9 -286.5 Q-6.95 -290.9 -5.15 -293.9 0.0 -302.75 14.1 -304.45 17.1 -306.1 20.4 -313.2 23.6 -320.05 23.7 -323.8 L22.35 -329.4 Q21.25 -332.75 19.85 -334.45 L19.4 -334.5 17.95 -334.95 17.4 -335.4 Q17.2 -335.75 17.3 -336.1 L17.4 -336.35 17.3 -336.65 17.1 -337.75 17.1 -338.25 17.4 -338.7 17.7 -338.95 17.75 -338.95 17.8 -338.95 17.95 -339.3 17.7 -340.2 17.7 -340.15 Q15.8 -345.0 15.85 -345.2 15.85 -349.85 17.65 -352.25 L17.65 -352.3 Q18.65 -353.7 21.5 -355.5 23.8 -356.9 24.7 -358.3 L24.7 -358.35 Q26.15 -360.65 26.15 -365.0 26.15 -370.05 21.6 -381.85 L21.6 -381.8 Q16.75 -394.15 16.8 -399.2 16.8 -408.25 20.2 -413.45 23.95 -419.3 36.1 -427.45 44.55 -433.2 49.05 -440.75 53.25 -447.9 52.55 -454.35 L52.7 -454.95 Q52.85 -455.25 53.2 -455.35 L53.8 -455.4 54.35 -455.05 55.75 -451.6 Q56.15 -450.25 57.1 -449.5 58.3 -450.7 59.95 -454.85" fill="#cdffb4" fill-opacity="0.5019608" fill-rule="evenodd" stroke="none"/>
    <path d="M89.15 -495.75 Q87.9 -496.1 87.75 -496.45 L90.6 -499.3 89.65 -500.75 88.7 -502.15 91.85 -503.05 94.05 -502.9 96.15 -502.4 96.4 -502.75 Q96.65 -502.8 96.65 -501.35 96.65 -500.2 94.05 -498.15 L90.35 -495.5 89.15 -495.75 M92.4 -499.3 L92.0 -499.45 92.0 -499.1 92.4 -499.3 M55.65 -501.45 Q57.15 -500.0 66.5 -493.5 L64.0 -490.9 Q66.05 -489.0 66.75 -489.15 L71.7 -489.95 Q60.15 -483.0 54.95 -479.35 45.85 -473.0 46.3 -468.45 45.35 -469.3 45.35 -471.75 L42.75 -471.55 39.5 -468.35 34.3 -468.45 33.25 -469.2 Q32.3 -469.7 32.15 -470.1 L35.0 -471.45 Q36.75 -472.3 37.25 -473.45 36.2 -474.7 31.7 -477.3 28.5 -479.15 28.5 -482.0 28.5 -485.4 40.05 -493.85 L51.75 -501.7 55.65 -501.45 M46.05 -462.15 L46.3 -463.8 47.25 -463.8 48.35 -462.6 50.1 -460.25 Q48.45 -460.0 46.55 -460.75 L46.3 -461.2 Q46.05 -461.7 46.05 -462.15 M57.1 -448.25 Q58.7 -449.05 60.85 -454.5 62.75 -459.25 66.7 -459.55 72.15 -459.4 76.65 -456.4 80.75 -453.7 80.75 -451.45 80.75 -450.3 79.8 -450.05 78.85 -449.8 78.85 -448.6 78.85 -447.6 83.1 -444.1 87.95 -440.15 88.9 -438.65 90.3 -436.7 90.65 -433.7 91.0 -430.35 92.25 -428.05 L92.0 -426.9 Q91.45 -426.7 90.45 -427.25 89.4 -427.8 89.4 -428.3 L85.35 -428.05 Q79.25 -425.95 74.0 -417.45 69.35 -409.9 69.35 -405.25 69.35 -397.5 73.6 -395.05 L80.35 -394.35 87.6 -385.4 Q88.45 -384.0 88.45 -378.55 88.45 -373.35 88.0 -372.45 L82.65 -365.15 82.65 -361.0 84.55 -360.8 88.9 -360.5 Q91.6 -359.7 93.95 -355.0 95.95 -350.95 95.95 -348.5 L95.9 -346.3 95.8 -345.7 96.5 -345.4 Q96.05 -345.05 93.65 -344.7 91.4 -343.75 89.25 -337.0 87.4 -331.15 87.4 -328.1 87.4 -327.15 88.95 -323.7 90.9 -319.5 93.5 -316.1 L94.8 -314.5 96.65 -313.15 98.0 -311.75 Q99.9 -310.4 108.75 -309.8 L109.65 -308.85 110.4 -309.1 119.15 -299.1 Q121.0 -296.55 121.0 -291.85 121.0 -290.7 121.95 -285.7 L122.9 -279.5 Q122.9 -274.65 121.0 -272.75 118.6 -270.3 117.4 -262.75 L117.15 -254.05 Q116.95 -249.05 114.0 -246.05 111.0 -248.35 110.2 -251.15 L110.4 -251.5 Q110.25 -251.85 108.75 -251.85 107.45 -251.85 104.9 -247.65 102.85 -244.3 101.65 -241.3 101.0 -239.95 99.95 -236.35 98.8 -232.45 98.8 -231.05 98.8 -229.35 101.65 -223.9 104.5 -218.4 104.5 -212.4 104.5 -206.75 103.55 -203.15 103.0 -201.05 101.3 -197.25 98.05 -190.25 96.45 -180.1 L96.5 -179.9 96.35 -179.55 95.8 -175.6 95.1 -175.45 Q94.55 -174.15 93.65 -173.25 L89.85 -172.4 88.95 -172.3 Q88.0 -171.25 86.85 -171.0 L86.3 -171.7 85.7 -171.9 84.15 -173.05 75.55 -170.4 Q67.25 -167.9 63.1 -167.9 L59.05 -168.35 54.95 -168.75 43.6 -170.2 37.55 -171.75 36.3 -171.45 35.75 -171.05 35.7 -171.1 34.75 -170.4 31.35 -170.9 28.7 -171.55 Q26.05 -173.9 24.45 -177.1 L25.25 -177.35 23.45 -182.15 18.75 -194.75 Q14.1 -204.2 14.1 -216.0 14.1 -225.2 18.8 -231.3 L22.05 -235.85 Q23.5 -238.65 23.5 -242.35 23.5 -243.65 21.65 -247.75 19.9 -251.5 19.0 -252.7 L19.2 -253.05 18.05 -254.0 12.7 -254.0 9.35 -250.8 4.1 -251.1 -0.35 -251.15 -5.3 -246.25 -7.95 -246.25 Q-10.4 -248.75 -10.85 -250.15 L-11.0 -253.65 -10.05 -259.8 Q-9.1 -265.05 -9.1 -267.4 L-9.05 -273.9 Q-8.85 -277.6 -8.15 -280.25 L-6.95 -286.3 Q-6.0 -290.5 -4.3 -293.4 0.7 -301.85 14.35 -303.5 17.7 -305.05 21.3 -312.8 24.7 -320.0 24.7 -323.95 L23.3 -329.75 Q21.9 -333.95 20.0 -335.7 L19.7 -335.45 18.25 -335.9 18.85 -336.55 18.25 -336.85 18.05 -337.95 18.4 -338.25 18.75 -338.75 19.1 -338.75 18.6 -340.55 16.85 -345.2 Q16.85 -349.45 18.45 -351.7 19.4 -353.0 22.0 -354.65 24.55 -356.2 25.55 -357.8 27.15 -360.3 27.15 -365.0 27.15 -370.15 22.5 -382.2 17.8 -394.25 17.8 -399.2 17.8 -407.9 21.05 -412.9 24.75 -418.6 36.65 -426.65 45.3 -432.5 49.9 -440.25 54.3 -447.7 53.55 -454.45 L54.8 -451.3 Q55.45 -449.2 57.1 -448.25" fill="#ffffff" fill-rule="evenodd" stroke="none"/>
    <path d="M53.35 -427.1 L53.8 -427.75 53.4 -426.7 53.4 -426.6 Q52.45 -425.0 52.45 -423.75 52.45 -418.95 57.45 -407.35 L64.25 -392.65 Q68.5 -383.2 70.35 -378.4 72.4 -374.55 73.35 -371.65 74.6 -367.8 74.6 -363.35 74.6 -360.55 73.9 -357.45 73.2 -354.35 73.2 -352.6 73.2 -343.9 73.75 -339.9 74.6 -333.7 77.55 -326.25 82.1 -314.6 89.65 -305.15 L90.0 -305.25 Q99.05 -296.3 106.7 -280.95 112.5 -269.3 114.15 -260.35 L114.0 -255.45 113.9 -252.15 Q112.45 -259.3 105.75 -264.0 100.2 -267.95 95.55 -267.95 L93.4 -267.9 93.45 -267.85 Q88.3 -266.4 86.45 -260.7 85.35 -257.35 85.35 -251.35 85.35 -245.75 87.35 -236.75 89.75 -226.05 90.15 -222.0 L91.7 -207.6 Q92.5 -198.95 92.5 -192.7 L92.5 -192.4 93.0 -189.9 Q93.0 -184.95 91.8 -179.5 90.1 -171.65 86.85 -171.0 L86.3 -171.7 85.7 -171.9 84.15 -173.05 75.55 -170.4 Q67.25 -167.9 63.1 -167.9 L59.05 -168.35 54.95 -168.75 43.6 -170.2 37.55 -171.75 36.3 -171.45 35.75 -171.05 35.25 -171.5 34.8 -171.3 Q31.25 -175.2 30.55 -181.3 30.15 -184.8 29.9 -192.05 29.1 -198.7 28.95 -212.85 L29.0 -215.35 Q28.6 -216.5 28.6 -218.5 28.6 -219.6 29.5 -225.75 L30.6 -232.65 Q30.6 -237.25 31.3 -246.3 31.3 -251.0 28.95 -257.0 25.1 -266.85 17.3 -266.85 6.35 -266.85 -1.3 -259.2 L-4.7 -255.2 -5.85 -253.75 -7.65 -251.2 -7.65 -251.3 -7.25 -257.1 -6.55 -259.9 -6.3 -261.25 -5.8 -262.65 Q-2.75 -270.85 -1.35 -273.4 2.4 -280.4 13.05 -293.15 L21.05 -303.2 28.95 -313.3 Q31.95 -317.2 34.35 -322.95 L35.95 -327.15 36.65 -332.55 37.4 -339.05 Q37.4 -346.6 35.4 -357.45 33.4 -368.3 33.4 -374.7 33.4 -382.45 34.9 -386.7 L40.05 -401.7 Q41.7 -407.5 46.05 -415.45 49.1 -421.0 52.3 -425.6 52.6 -426.95 53.3 -427.25 L53.35 -427.1" fill="#cdffb4" fill-rule="evenodd" stroke="none"/>
    <path d="M43.25 -401.85 L43.3 -402.65 46.25 -402.4 46.65 -402.0 Q47.95 -401.55 49.2 -400.1 51.25 -397.65 51.25 -396.05 L51.2 -395.2 51.0 -394.85 50.05 -394.8 49.85 -395.25 48.0 -395.2 Q44.35 -397.45 43.7 -398.6 43.25 -399.3 43.25 -401.85 M59.0 -397.45 Q59.0 -399.45 63.25 -401.75 65.15 -402.85 66.25 -402.7 L67.75 -402.8 67.5 -401.1 67.5 -400.85 Q67.5 -399.85 66.85 -398.95 L66.6 -398.55 Q64.85 -395.75 60.0 -395.25 L59.1 -395.35 58.0 -395.65 59.0 -397.4 59.0 -397.45 M67.25 -351.1 L68.4 -351.1 Q69.15 -350.2 69.95 -349.95 L71.3 -349.5 75.1 -356.2 74.55 -354.45 Q74.25 -353.45 74.25 -352.85 L74.75 -351.75 75.2 -350.45 74.8 -346.4 74.35 -342.4 Q74.35 -338.5 75.75 -332.75 77.35 -326.2 79.25 -324.45 L78.75 -324.0 73.85 -327.75 68.6 -331.5 66.6 -331.45 66.25 -330.2 Q66.1 -329.45 65.75 -329.05 62.55 -334.7 62.55 -339.1 62.55 -340.1 64.45 -345.45 L64.1 -346.15 Q63.7 -346.4 63.7 -346.9 63.7 -347.25 65.35 -348.95 L67.25 -351.1 M35.7 -355.85 Q36.1 -355.05 36.75 -354.65 37.95 -353.05 39.5 -351.8 41.1 -350.5 41.7 -348.75 43.15 -346.3 43.7 -343.4 44.1 -341.2 44.1 -335.8 44.1 -333.9 43.15 -330.95 L42.75 -330.95 Q42.6 -331.25 42.6 -332.35 L42.55 -332.55 42.2 -332.95 Q39.65 -330.7 37.3 -326.2 34.9 -321.65 32.8 -319.75 L31.85 -319.85 Q35.25 -330.1 35.6 -334.8 35.85 -337.35 35.65 -343.4 L34.4 -346.7 Q33.75 -348.9 33.75 -350.8 L33.8 -354.05 Q34.0 -355.2 34.55 -355.8 33.7 -357.3 34.0 -358.3 L34.1 -358.85 34.4 -358.85 35.35 -356.9 35.7 -355.85 M80.9 -255.9 Q82.0 -259.1 84.8 -262.55 L85.3 -262.55 85.45 -261.9 85.1 -260.4 84.7 -259.05 84.8 -258.95 85.8 -260.85 Q86.2 -262.25 87.15 -263.7 89.2 -266.75 92.5 -267.55 L92.8 -267.25 91.85 -266.45 92.15 -266.3 90.85 -265.45 Q89.55 -264.1 88.75 -262.4 L88.75 -262.0 Q88.75 -260.9 87.45 -257.45 86.15 -254.0 86.15 -252.8 86.15 -251.95 87.2 -249.5 88.2 -247.05 88.2 -244.2 L88.15 -243.6 88.65 -243.5 89.05 -242.95 87.65 -242.65 87.55 -242.55 85.55 -241.05 85.5 -241.05 Q84.95 -240.25 84.8 -239.1 L85.15 -233.95 85.05 -232.65 84.6 -232.55 Q83.8 -233.8 82.9 -236.8 L82.7 -238.9 82.55 -241.05 81.45 -243.1 Q80.5 -244.5 80.35 -245.3 80.0 -246.85 80.0 -249.25 80.0 -253.1 80.9 -255.9 M26.5 -274.5 Q30.75 -276.1 35.8 -273.05 L35.9 -272.75 34.8 -273.0 34.45 -273.3 Q32.25 -273.45 30.95 -271.9 29.95 -270.75 29.95 -269.8 29.95 -268.35 31.65 -266.15 33.55 -263.75 33.8 -262.85 35.05 -258.15 35.05 -256.5 L34.45 -252.65 33.7 -249.55 Q32.55 -250.2 32.25 -251.95 L31.65 -254.95 Q30.5 -258.0 28.25 -260.5 24.5 -264.7 21.85 -265.7 20.15 -266.35 19.15 -267.1 L16.2 -266.75 14.15 -266.35 Q14.8 -267.25 16.4 -267.8 L18.1 -268.2 Q17.5 -268.95 16.65 -270.65 L16.65 -272.35 17.35 -272.35 18.45 -272.1 Q20.6 -272.1 22.85 -273.0 L26.5 -274.5 M27.5 -229.8 L28.0 -231.95 Q28.25 -233.25 28.95 -234.0 29.65 -234.8 30.65 -233.5 31.55 -232.35 31.55 -231.65 L31.55 -231.15 Q33.05 -228.75 34.1 -226.05 35.7 -221.95 35.7 -218.35 L35.7 -217.5 35.5 -217.25 35.2 -217.25 35.0 -218.65 Q34.55 -218.0 34.55 -216.0 34.55 -213.65 35.15 -211.55 L36.8 -206.7 Q37.2 -205.55 38.4 -204.8 L40.3 -203.1 41.45 -200.9 Q42.2 -199.3 42.2 -198.6 L42.0 -198.3 40.85 -199.15 Q40.7 -199.3 40.7 -199.7 39.9 -197.8 39.9 -196.5 40.65 -193.45 42.0 -190.55 44.45 -185.4 47.25 -184.8 48.75 -184.15 51.05 -184.15 L52.2 -184.2 53.3 -184.15 Q61.05 -184.15 67.15 -189.8 72.25 -194.55 72.25 -198.1 L72.25 -198.55 72.65 -199.7 75.05 -201.3 Q75.75 -201.75 78.45 -202.45 79.95 -202.85 80.7 -204.8 L82.9 -210.45 Q83.7 -212.55 84.1 -215.9 L84.75 -221.45 Q85.55 -220.95 85.85 -220.05 L86.2 -218.1 86.25 -217.95 Q86.35 -217.75 86.55 -217.7 88.0 -220.05 88.95 -223.5 L90.0 -228.0 89.95 -228.5 Q89.95 -229.1 90.45 -229.55 91.05 -230.1 91.65 -229.3 L92.15 -227.9 92.8 -226.2 Q94.0 -224.05 94.6 -220.0 L95.6 -213.9 Q96.2 -210.1 96.2 -207.7 96.2 -204.95 95.2 -199.85 L94.4 -196.3 94.85 -192.7 Q94.85 -184.5 93.65 -180.7 91.75 -174.6 86.3 -174.6 L81.95 -174.95 79.8 -174.95 73.15 -173.65 63.3 -171.85 57.1 -171.95 56.9 -172.35 56.55 -172.8 54.75 -172.95 52.75 -173.25 46.5 -174.0 46.0 -173.45 Q42.25 -174.95 41.95 -175.15 41.45 -175.55 41.45 -177.05 L40.7 -177.9 39.55 -178.65 Q38.75 -179.6 38.95 -179.85 L39.3 -180.3 Q39.3 -181.05 37.25 -181.95 35.35 -182.85 34.65 -182.75 L33.45 -182.6 Q33.25 -183.15 33.25 -182.15 33.25 -181.6 33.8 -180.2 L34.3 -178.5 Q34.3 -177.85 34.0 -177.8 L32.9 -177.7 33.0 -176.25 Q33.4 -175.8 32.4 -175.8 30.7 -175.8 29.8 -178.95 29.3 -180.6 28.95 -182.95 28.5 -184.4 27.3 -186.65 L25.45 -190.3 Q24.65 -192.2 23.95 -197.3 23.35 -202.0 23.35 -205.0 23.35 -208.15 24.45 -213.15 L26.4 -221.6 27.0 -225.5 27.5 -229.8 M29.8 -233.25 L29.6 -232.85 29.75 -233.0 29.9 -233.05 29.8 -233.25 M91.1 -200.0 L89.8 -194.65 Q88.8 -191.25 87.45 -190.95 L86.3 -190.9 Q83.65 -187.4 81.85 -183.95 79.8 -179.95 79.5 -177.05 79.55 -176.85 79.9 -176.55 L80.15 -176.25 80.9 -176.3 82.45 -176.7 84.55 -177.85 87.75 -179.35 Q89.15 -180.5 90.2 -181.95 L90.25 -182.15 91.4 -184.15 Q92.65 -186.75 92.95 -189.85 L92.7 -191.1 92.45 -192.65 92.2 -192.65 Q92.05 -192.7 92.05 -193.3 L92.4 -194.55 91.1 -200.1 91.1 -200.0" fill="#ffffff" fill-rule="evenodd" stroke="none"/>
  </g>
</svg>
