<?xml version="1.0" encoding="UTF-8" standalone="no"?>
<svg xmlns:ffdec="https://www.free-decompiler.com/flash" xmlns:xlink="http://www.w3.org/1999/xlink" ffdec:objectType="shape" height="20.7px" width="11.2px" xmlns="http://www.w3.org/2000/svg">
  <g transform="matrix(1.0, 0.0, 0.0, 1.0, -1596.5, -875.9)">
    <path d="M1603.1 876.2 L1603.3 875.9 1606.7 876.55 Q1606.8 877.1 1607.6 877.5 1607.9 878.3 1607.3 878.65 L1606.75 878.95 1606.2 879.25 1604.0 880.25 1603.95 880.25 Q1603.4 880.5 1602.9 880.95 1602.1 881.85 1604.2 882.1 L1604.0 881.8 1604.55 881.75 1604.65 881.75 1604.75 881.8 1604.75 883.5 1602.45 882.9 Q1601.3 882.65 1600.9 881.55 1600.65 880.6 1601.45 880.1 L1603.0 879.2 Q1604.45 878.35 1604.0 877.35 1602.5 877.25 1603.1 876.2 M1604.75 883.6 L1604.75 885.2 1603.9 885.2 1604.75 885.6 1604.75 887.3 1604.35 887.4 1602.15 887.55 1600.25 887.2 1601.55 886.3 1602.4 885.7 1603.1 885.15 1601.55 884.95 1600.55 884.55 Q1602.6 883.95 1604.75 883.6 M1603.85 890.85 L1604.3 891.35 1604.75 891.85 1604.75 894.95 Q1603.0 896.2 1600.3 896.55 L1599.05 896.6 Q1597.55 896.45 1596.5 895.35 1602.4 894.8 1601.9 891.9 1601.7 890.7 1602.9 890.15 L1603.85 890.85" fill="#91b52c" fill-rule="evenodd" stroke="none"/>
  </g>
</svg>
