<?xml version="1.0" encoding="UTF-8" standalone="no"?>
<svg xmlns:ffdec="https://www.free-decompiler.com/flash" xmlns:xlink="http://www.w3.org/1999/xlink" ffdec:objectType="shape" height="51.0px" width="29.5px" xmlns="http://www.w3.org/2000/svg">
  <g transform="matrix(1.0, 0.0, 0.0, 1.0, 15.5, 108.0)">
    <path d="M0.5 -94.0 Q-2.7 -92.4 -7.05 -88.95 L-14.0 -83.5 -15.3 -83.6 Q-15.5 -83.7 -15.5 -86.75 -15.5 -90.8 -11.1 -96.25 -8.6 -99.35 0.0 -108.0 4.4 -102.3 5.2 -90.3 5.25 -76.25 5.5 -70.0 L12.5 -68.5 13.65 -67.55 Q14.0 -67.1 14.0 -64.0 14.0 -60.75 13.3 -59.7 L11.5 -58.0 Q9.0 -57.0 4.0 -57.0 L-6.5 -57.5 -7.35 -58.45 -7.5 -62.0 Q-7.5 -65.2 -6.7 -66.4 -6.25 -67.1 -5.0 -68.0 L-0.95 -69.45 Q2.5 -70.6 2.5 -71.5 L2.5 -80.5 2.4 -86.7 Q2.2 -89.4 1.5 -92.5 L0.5 -94.0" fill="#99ff33" fill-rule="evenodd" stroke="none"/>
  </g>
</svg>
