<?xml version="1.0" encoding="UTF-8" standalone="no"?>
<svg xmlns:ffdec="https://www.free-decompiler.com/flash" xmlns:xlink="http://www.w3.org/1999/xlink" ffdec:objectType="shape" height="71.55px" width="169.75px" xmlns="http://www.w3.org/2000/svg">
  <g transform="matrix(1.0, 0.0, 0.0, 1.0, 161.0, 281.35)">
    <path d="M-6.25 -223.6 L-5.8 -223.95 -5.25 -223.45 -3.65 -223.0 Q-3.35 -222.4 -3.35 -221.5 L-3.35 -221.3 -1.5 -221.45 Q-0.45 -220.9 2.45 -220.55 L4.55 -220.25 6.6 -219.85 7.7 -219.25 8.75 -218.9 1.05 -218.25 Q-7.35 -216.8 -13.6 -214.75 -20.7 -212.45 -30.05 -212.15 L-42.8 -211.1 -64.6 -209.8 -68.9 -210.0 -81.9 -210.1 Q-99.2 -209.95 -115.05 -211.95 -123.0 -213.0 -128.4 -214.2 L-130.9 -215.1 -132.8 -215.6 Q-135.15 -216.05 -135.95 -216.8 L-136.5 -217.4 -137.85 -217.75 -142.8 -218.65 -145.5 -218.95 -146.9 -219.75 -148.25 -219.7 Q-147.3 -220.05 -145.85 -220.75 -142.0 -221.1 -140.1 -221.85 L-138.4 -221.9 -138.35 -221.95 -137.6 -221.7 -135.1 -220.7 -132.7 -219.3 -130.95 -218.05 Q-128.9 -216.85 -125.45 -216.0 L-119.2 -214.85 -110.9 -214.0 -107.15 -213.8 -99.8 -213.45 -98.75 -213.45 -95.55 -213.35 -93.1 -213.3 -85.9 -213.25 -83.3 -213.25 -76.3 -213.0 -72.9 -212.95 -65.6 -213.45 -60.3 -213.3 -58.1 -213.65 -53.95 -213.8 -52.9 -213.8 -49.25 -213.85 -46.05 -213.9 -45.2 -213.95 -44.25 -213.95 -37.3 -214.85 -35.1 -215.15 -32.9 -215.45 -32.35 -215.55 -30.05 -215.95 -23.1 -217.2 -19.4 -218.0 -18.8 -218.2 Q-16.9 -218.8 -14.8 -219.55 L-12.7 -220.35 -12.65 -220.4 -10.25 -221.4 Q-7.55 -222.65 -6.25 -223.6 M-160.2 -219.55 L-160.65 -219.55 -161.0 -219.7 -160.2 -219.55 M-153.8 -219.75 L-152.8 -219.4 -154.65 -219.45 -154.2 -219.6 -153.8 -219.75" fill="#403d56" fill-rule="evenodd" stroke="none"/>
    <path d="M-6.25 -223.6 Q-7.55 -222.65 -10.25 -221.4 L-12.1 -235.95 -18.65 -249.15 -19.0 -249.8 -21.55 -254.3 Q-24.6 -258.0 -28.6 -261.3 L-30.6 -262.95 -34.0 -265.45 Q-52.05 -277.65 -72.65 -276.95 -93.25 -277.65 -111.3 -265.45 L-114.7 -262.95 -116.7 -261.3 Q-120.7 -258.0 -123.7 -254.3 L-126.25 -249.8 -126.6 -249.15 Q-130.35 -241.2 -133.15 -235.95 -133.65 -231.05 -135.1 -220.7 L-137.6 -221.7 Q-137.4 -225.15 -135.7 -231.95 -133.15 -242.1 -129.1 -250.7 -126.55 -256.15 -123.6 -260.45 L-123.3 -260.7 Q-115.55 -267.1 -112.5 -269.15 -106.3 -273.35 -99.1 -276.1 L-97.65 -276.15 Q-96.35 -276.15 -89.5 -278.5 -82.7 -280.8 -73.75 -280.7 L-69.95 -281.35 -51.05 -279.15 -49.85 -278.8 -34.95 -271.9 Q-33.55 -271.25 -32.25 -270.6 -26.35 -265.55 -21.15 -258.15 -14.05 -248.05 -9.55 -235.4 -7.0 -228.1 -6.25 -223.6" fill="#493d6d" fill-rule="evenodd" stroke="none"/>
    <path d="M-10.25 -221.4 L-12.65 -220.4 -12.7 -220.35 -13.15 -223.1 Q-14.3 -230.8 -17.95 -240.1 L-18.65 -241.85 -20.0 -244.6 -19.9 -244.15 -20.45 -244.3 -20.6 -245.2 -20.95 -246.55 -21.9 -248.55 -21.9 -249.05 -24.65 -252.1 Q-24.85 -247.45 -26.6 -242.55 L-29.25 -236.6 -30.3 -234.85 Q-31.75 -232.35 -34.35 -228.75 L-36.7 -225.6 -36.95 -225.3 -37.85 -224.1 -40.45 -220.9 -42.85 -218.0 -43.2 -217.5 -43.55 -217.1 -45.5 -214.65 -46.05 -213.9 -49.25 -213.85 -47.45 -216.2 -47.15 -216.6 -45.35 -218.65 -43.8 -220.35 -39.85 -224.7 -39.1 -225.5 -38.5 -226.15 -38.35 -226.3 -38.1 -226.6 -37.6 -227.2 -37.3 -227.5 -37.35 -227.5 -35.7 -229.6 -35.6 -229.8 Q-33.45 -232.95 -32.35 -235.85 L-31.7 -237.45 Q-30.75 -240.25 -29.15 -246.55 L-29.05 -246.65 -28.9 -247.5 -28.9 -248.1 -29.05 -252.85 Q-29.15 -254.35 -30.95 -258.1 L-31.55 -258.65 -39.55 -264.5 Q-54.9 -274.2 -72.65 -274.6 L-77.6 -274.3 Q-91.45 -272.9 -103.7 -265.65 L-104.95 -264.85 -105.05 -264.8 -105.15 -264.75 -105.35 -264.65 -110.9 -260.85 -111.1 -260.7 -111.3 -260.55 -111.5 -260.4 -112.0 -260.0 -112.5 -259.6 -113.7 -258.65 -114.3 -258.1 Q-116.15 -254.35 -116.2 -252.85 L-116.35 -248.2 -116.35 -248.1 -116.35 -247.5 -116.15 -246.55 -113.85 -238.35 -112.9 -235.85 Q-111.8 -232.85 -109.5 -229.65 L-109.35 -229.4 -107.65 -227.2 -107.05 -226.5 -106.85 -226.25 -106.75 -226.15 -103.15 -222.35 -102.95 -222.1 -100.5 -219.35 -99.6 -218.3 -98.2 -216.7 -98.15 -216.6 -98.1 -216.55 -97.9 -216.35 -95.55 -213.35 -98.75 -213.45 -100.15 -215.15 -102.2 -217.75 -102.45 -218.0 -102.85 -218.55 -103.1 -218.8 -103.3 -219.1 -103.55 -219.4 -103.85 -219.75 -107.7 -224.6 -108.1 -225.05 -108.3 -225.3 -108.5 -225.55 -109.2 -226.55 -110.85 -228.75 -115.0 -234.85 -115.7 -236.15 Q-118.6 -241.4 -119.85 -246.3 -120.55 -249.25 -120.6 -252.1 L-123.35 -249.05 -123.35 -248.55 -123.75 -247.6 -124.05 -246.95 -124.15 -246.75 -124.2 -246.7 -124.3 -246.55 -124.65 -245.0 -125.3 -244.35 -125.35 -244.05 -125.3 -244.6 -126.6 -241.85 -127.35 -240.1 Q-130.95 -230.8 -132.15 -223.1 L-132.7 -219.3 -135.1 -220.7 Q-133.65 -231.05 -133.15 -235.95 -130.35 -241.2 -126.6 -249.15 L-126.25 -249.8 -123.7 -254.3 Q-120.7 -258.0 -116.7 -261.3 L-114.7 -262.95 -111.3 -265.45 Q-93.25 -277.65 -72.65 -276.95 -52.05 -277.65 -34.0 -265.45 L-30.6 -262.95 -28.6 -261.3 Q-24.6 -258.0 -21.55 -254.3 L-19.0 -249.8 -18.65 -249.15 -12.1 -235.95 -10.25 -221.4" fill="#6c7054" fill-rule="evenodd" stroke="none"/>
    <path d="M-12.7 -220.35 L-14.8 -219.55 Q-15.2 -228.25 -20.25 -236.85 -20.0 -239.2 -19.9 -241.85 L-19.9 -242.15 -19.9 -243.0 -19.9 -243.45 -19.9 -243.55 -19.9 -244.15 -20.0 -244.6 -18.65 -241.85 -17.95 -240.1 Q-14.3 -230.8 -13.15 -223.1 L-12.7 -220.35 M-18.8 -218.2 L-19.4 -218.0 -23.1 -217.2 -23.8 -217.35 -29.5 -217.8 -29.6 -217.8 -29.5 -217.85 -25.8 -221.5 -25.4 -221.5 -24.75 -221.55 Q-22.4 -221.55 -19.25 -218.65 L-18.8 -218.2 M-45.2 -213.95 L-46.05 -213.9 -45.5 -214.65 -43.55 -217.1 -43.2 -217.5 -42.85 -218.0 -40.45 -220.9 -37.85 -224.1 -36.95 -225.3 -36.7 -225.6 -34.35 -228.75 Q-31.75 -232.35 -30.3 -234.85 L-29.25 -236.6 -26.6 -242.55 Q-24.85 -247.45 -24.65 -252.1 L-21.9 -249.05 -21.9 -248.55 -20.95 -246.55 -20.6 -245.2 -20.65 -245.2 -21.0 -244.3 -20.45 -243.0 Q-20.6 -241.2 -21.5 -238.75 L-21.6 -238.45 -21.8 -238.1 -24.3 -233.1 -25.05 -231.75 -25.3 -231.3 -28.85 -226.05 -28.6 -227.75 -28.75 -228.25 -31.2 -226.45 -34.45 -224.0 -36.5 -222.3 Q-40.05 -219.35 -43.05 -216.2 L-45.2 -213.95 M-49.25 -213.85 L-52.9 -213.8 -50.75 -216.5 -50.3 -217.1 -45.25 -223.25 -41.7 -227.75 -41.1 -228.5 -38.85 -231.5 -38.5 -232.05 Q-33.15 -240.2 -33.15 -247.25 -33.15 -272.15 -77.6 -274.3 L-72.65 -274.6 Q-54.9 -274.2 -39.55 -264.5 L-31.55 -258.65 -30.95 -258.1 Q-29.15 -254.35 -29.05 -252.85 L-28.9 -248.1 -28.9 -247.5 -29.05 -246.65 -29.15 -246.55 Q-30.75 -240.25 -31.7 -237.45 L-32.35 -235.85 Q-33.45 -232.95 -35.6 -229.8 L-35.7 -229.6 -37.35 -227.5 -37.3 -227.5 -37.6 -227.2 -38.1 -226.6 -38.35 -226.3 -38.5 -226.15 -39.1 -225.5 -39.85 -224.7 -43.8 -220.35 -45.35 -218.65 -47.15 -216.6 -47.45 -216.2 -49.25 -213.85 M-93.1 -213.3 L-95.55 -213.35 -97.9 -216.35 -98.1 -216.55 -98.15 -216.6 -98.2 -216.7 -99.6 -218.3 -100.5 -219.35 -102.95 -222.1 -103.15 -222.35 -106.75 -226.15 -106.85 -226.25 -107.05 -226.5 -107.65 -227.2 -109.35 -229.4 -109.5 -229.65 Q-111.8 -232.85 -112.9 -235.85 L-113.85 -238.35 -116.15 -246.55 -116.35 -247.5 -116.35 -248.1 -116.35 -248.2 -116.2 -252.85 Q-116.15 -254.35 -114.3 -258.1 L-113.7 -258.65 -112.5 -259.6 -112.0 -260.0 -111.5 -260.4 -111.3 -260.55 -111.1 -260.7 -110.9 -260.85 -105.35 -264.65 -105.15 -264.75 -105.05 -264.8 -104.95 -264.85 -104.75 -265.0 Q-108.55 -261.95 -111.1 -258.55 -113.9 -254.85 -113.9 -252.6 -113.9 -242.75 -111.9 -238.7 L-106.75 -231.3 -104.45 -228.25 -101.85 -224.75 -100.65 -223.2 -95.8 -216.85 -93.1 -213.3 M-98.75 -213.45 L-99.8 -213.45 -100.0 -213.7 -103.7 -217.7 -109.45 -223.6 -110.0 -224.15 -110.2 -224.35 -112.65 -227.5 -113.4 -228.8 -113.45 -228.85 Q-116.05 -231.4 -118.45 -234.9 -122.65 -241.3 -124.2 -246.7 L-124.15 -246.75 -124.05 -246.95 -123.75 -247.6 -123.35 -248.55 -123.35 -249.05 -120.6 -252.1 Q-120.55 -249.25 -119.85 -246.3 -118.6 -241.4 -115.7 -236.15 L-115.0 -234.85 -110.85 -228.75 -109.2 -226.55 -108.5 -225.55 -108.3 -225.3 -108.1 -225.05 -107.7 -224.6 -103.85 -219.75 -103.55 -219.4 -103.3 -219.1 -103.1 -218.8 -102.85 -218.55 -102.45 -218.0 -102.2 -217.75 -100.15 -215.15 -98.75 -213.45 M-125.45 -216.0 Q-128.9 -216.85 -130.95 -218.05 L-132.7 -219.3 -132.15 -223.1 Q-130.95 -230.8 -127.35 -240.1 L-126.6 -241.85 -125.3 -244.6 -125.35 -244.05 -125.35 -241.8 -125.3 -240.85 Q-127.5 -238.9 -129.2 -233.55 L-131.15 -224.9 -131.2 -221.8 Q-131.1 -220.5 -129.8 -219.85 -127.95 -218.95 -120.65 -218.65 L-116.45 -218.55 -115.7 -217.85 -115.6 -217.75 -114.6 -216.95 -114.5 -216.85 -116.0 -216.95 -116.8 -217.0 -121.4 -216.85 -125.45 -216.0" fill="url(#gradient0)" fill-rule="evenodd" stroke="none"/>
    <path d="M-14.8 -219.55 Q-16.9 -218.8 -18.8 -218.2 L-19.25 -218.65 Q-22.4 -221.55 -24.75 -221.55 L-25.4 -221.5 -25.8 -221.5 -25.6 -221.7 -24.05 -223.8 -23.9 -224.0 Q-23.15 -225.25 -22.45 -226.85 -21.15 -230.1 -20.55 -234.4 L-20.25 -236.6 -20.25 -236.85 Q-15.2 -228.25 -14.8 -219.55 M-37.3 -214.85 L-44.25 -213.95 -45.2 -213.95 -43.05 -216.2 Q-40.05 -219.35 -36.5 -222.3 L-34.45 -224.0 -31.2 -226.45 -28.75 -228.25 -28.6 -227.75 -28.85 -226.05 -29.5 -225.1 -30.2 -224.1 -30.2 -224.05 -31.8 -221.9 -33.75 -219.4 -34.5 -218.35 -36.05 -216.4 -36.85 -215.45 -37.3 -214.85 M-52.9 -213.8 L-53.95 -213.8 -58.1 -213.65 -60.3 -213.3 -65.6 -213.45 -72.9 -212.95 -76.3 -213.0 -77.7 -216.25 -77.9 -216.65 -78.25 -217.45 -80.2 -221.2 -80.25 -221.4 -80.4 -221.55 -80.85 -222.55 -80.95 -222.6 -81.3 -223.25 -81.5 -223.55 -81.65 -223.85 -82.65 -225.65 -82.7 -225.75 -83.6 -227.3 -84.65 -229.1 -85.35 -230.15 -85.55 -230.4 -85.65 -230.55 -86.2 -231.25 -88.55 -234.4 -88.75 -234.65 -88.85 -234.9 -89.05 -235.1 -89.45 -235.75 -89.85 -236.25 -90.75 -237.6 -90.95 -237.9 -91.95 -239.55 -92.0 -239.75 Q-93.35 -242.1 -94.2 -244.45 L-95.35 -249.05 -95.45 -249.7 -95.8 -253.3 -95.8 -253.45 -95.8 -253.6 -95.8 -253.8 Q-95.8 -255.45 -95.1 -257.35 L-94.15 -259.2 -94.1 -259.25 -93.95 -259.5 -93.45 -260.15 -93.55 -260.15 -91.7 -262.45 Q-85.9 -269.35 -76.2 -269.6 -60.95 -270.15 -54.5 -262.5 -52.7 -260.35 -51.8 -257.75 L-51.75 -257.6 -51.65 -257.35 -51.55 -257.05 -51.5 -256.85 -51.45 -256.65 -51.3 -256.35 -51.25 -256.1 -51.2 -255.85 -51.15 -255.55 -50.95 -254.7 -50.75 -252.95 -50.7 -252.0 -50.7 -251.25 -50.75 -249.85 -50.75 -249.75 Q-51.0 -247.05 -52.1 -244.35 -53.05 -242.0 -54.7 -239.55 L-55.55 -238.25 -57.2 -235.4 -57.35 -235.2 -57.55 -234.95 -57.65 -234.75 -57.9 -234.15 -58.35 -233.15 -58.75 -231.6 -58.6 -230.9 Q-58.2 -231.1 -57.8 -230.9 -56.7 -231.5 -55.7 -232.05 L-53.85 -233.15 -53.35 -233.45 -53.25 -233.5 -53.2 -233.55 -52.55 -233.95 -49.25 -236.35 Q-46.15 -238.85 -44.75 -241.15 L-44.65 -241.4 Q-43.6 -243.45 -43.2 -246.75 L-43.2 -247.0 -43.15 -247.6 -43.0 -251.15 -43.0 -251.45 -43.0 -251.8 -43.25 -254.6 -43.25 -254.65 -43.55 -256.2 -43.85 -257.35 Q-46.0 -263.15 -52.65 -267.3 -61.25 -272.6 -73.5 -273.1 -85.95 -273.6 -94.45 -268.8 -102.0 -264.6 -103.4 -257.35 L-103.4 -257.3 -103.6 -256.05 -103.85 -253.45 -103.85 -252.95 -103.85 -252.65 -103.85 -252.35 -103.4 -247.7 -103.05 -245.75 -101.95 -241.6 Q-101.15 -239.25 -99.95 -236.95 L-99.85 -236.65 -99.0 -235.15 -97.95 -233.4 -97.6 -232.85 -97.15 -232.15 -97.1 -232.1 -96.2 -230.75 -95.8 -230.15 -95.0 -228.65 -93.55 -226.05 -92.6 -224.4 -92.3 -223.95 -91.95 -223.3 -91.4 -222.35 -90.5 -220.9 -89.4 -219.0 -88.7 -217.85 -87.9 -216.6 -85.9 -213.25 -93.1 -213.3 -95.8 -216.85 -100.65 -223.2 -101.85 -224.75 -104.45 -228.25 -106.75 -231.3 -111.9 -238.7 Q-113.9 -242.75 -113.9 -252.6 -113.9 -254.85 -111.1 -258.55 -108.55 -261.95 -104.75 -265.0 L-104.95 -264.85 -103.7 -265.65 Q-91.45 -272.9 -77.6 -274.3 -33.15 -272.15 -33.15 -247.25 -33.15 -240.2 -38.5 -232.05 L-38.85 -231.5 -41.1 -228.5 -41.7 -227.75 -45.25 -223.25 -50.3 -217.1 -50.75 -216.5 -52.9 -213.8 M-99.8 -213.45 L-107.15 -213.8 -107.85 -214.65 -107.95 -214.85 -108.15 -215.1 -108.45 -215.45 -108.75 -215.8 -112.1 -220.15 -113.45 -221.9 -114.0 -222.65 -115.7 -224.95 -115.8 -225.1 -116.55 -226.25 -120.35 -232.1 -121.2 -233.6 -121.65 -234.35 -122.05 -235.2 -122.25 -235.5 Q-124.45 -239.75 -124.75 -242.55 L-124.75 -242.9 -124.8 -243.5 -124.65 -245.0 -124.3 -246.55 -124.2 -246.7 Q-122.65 -241.3 -118.45 -234.9 -116.05 -231.4 -113.45 -228.85 L-113.4 -228.8 -112.65 -227.5 -110.2 -224.35 -110.0 -224.15 -109.45 -223.6 -103.7 -217.7 -100.0 -213.7 -99.8 -213.45 M-82.45 -256.4 L-82.45 -256.05 Q-82.4 -254.45 -81.7 -253.2 -79.6 -249.35 -71.5 -249.35 -67.55 -249.35 -65.55 -251.75 L-64.9 -252.55 -64.45 -253.3 -64.35 -253.7 -63.9 -255.35 -63.9 -255.6 -63.9 -255.9 -63.9 -256.35 -63.9 -256.5 -63.9 -256.65 -63.95 -257.2 -63.95 -257.3 -65.5 -260.65 -66.35 -261.5 -66.75 -261.85 Q-68.2 -263.0 -70.05 -263.5 L-71.3 -263.75 -73.1 -263.85 -74.95 -263.75 -75.1 -263.65 -76.95 -263.3 Q-78.4 -262.9 -79.55 -262.05 L-79.8 -261.85 -79.7 -261.85 -80.8 -260.85 Q-82.2 -259.25 -82.4 -257.15 L-82.4 -257.0 -82.45 -256.65 -82.45 -256.6 -82.45 -256.4 M-125.3 -240.85 L-125.2 -239.55 -125.15 -238.3 Q-124.85 -233.7 -123.85 -230.05 -122.9 -226.55 -121.35 -224.0 L-119.2 -221.25 -117.95 -220.0 -116.45 -218.55 -120.65 -218.65 Q-127.95 -218.95 -129.8 -219.85 -131.1 -220.5 -131.2 -221.8 L-131.15 -224.9 -129.2 -233.55 Q-127.5 -238.9 -125.3 -240.85" fill="url(#gradient1)" fill-rule="evenodd" stroke="none"/>
    <path d="M-32.35 -215.55 L-32.9 -215.45 -35.1 -215.15 -37.3 -214.85 -36.85 -215.45 -36.05 -216.4 -34.5 -218.35 -33.75 -219.4 -31.8 -221.9 -30.2 -224.05 -30.2 -224.1 -29.5 -225.1 -28.85 -226.05 -25.3 -231.3 -25.05 -231.75 -24.3 -233.1 -24.65 -232.4 -24.45 -232.4 Q-22.65 -232.4 -20.55 -234.4 -21.15 -230.1 -22.45 -226.85 -23.15 -225.25 -23.9 -224.0 L-24.05 -223.8 -25.6 -221.7 -25.8 -221.5 -29.5 -217.85 -29.6 -217.8 -30.45 -217.1 -32.35 -215.55 M-76.3 -213.0 L-83.3 -213.25 -85.9 -213.25 -87.9 -216.6 -88.7 -217.85 -89.4 -219.0 -90.5 -220.9 -91.4 -222.35 -91.95 -223.3 -92.3 -223.95 -92.6 -224.4 -93.55 -226.05 -95.0 -228.65 -95.8 -230.15 -96.2 -230.75 -97.1 -232.1 -97.15 -232.15 -97.6 -232.85 -97.95 -233.4 -99.0 -235.15 -99.85 -236.65 -99.95 -236.95 Q-101.15 -239.25 -101.95 -241.6 L-103.05 -245.75 -103.4 -247.7 -103.85 -252.35 -103.85 -252.65 -103.85 -252.95 -103.85 -253.45 -103.6 -256.05 -103.4 -257.3 -103.4 -257.35 Q-102.0 -264.6 -94.45 -268.8 -85.95 -273.6 -73.5 -273.1 -61.25 -272.6 -52.65 -267.3 -46.0 -263.15 -43.85 -257.35 L-43.55 -256.2 -43.25 -254.65 -43.25 -254.6 -43.0 -251.8 -43.0 -251.45 -43.0 -251.15 -43.15 -247.6 -43.2 -247.0 -43.2 -246.75 Q-43.6 -243.45 -44.65 -241.4 L-44.75 -241.15 Q-46.15 -238.85 -49.25 -236.35 L-52.55 -233.95 -53.2 -233.55 -53.25 -233.5 -53.35 -233.45 -53.85 -233.15 -55.7 -232.05 Q-56.7 -231.5 -57.8 -230.9 -58.2 -231.1 -58.6 -230.9 L-58.75 -231.6 -58.35 -233.15 -57.9 -234.15 -57.65 -234.75 -57.55 -234.95 -57.35 -235.2 -57.2 -235.4 -55.55 -238.25 -54.7 -239.55 Q-53.05 -242.0 -52.1 -244.35 -51.0 -247.05 -50.75 -249.75 L-50.75 -249.85 -50.7 -251.25 -50.7 -252.0 -50.75 -252.95 -50.95 -254.7 -51.15 -255.55 -51.2 -255.85 -51.25 -256.1 -51.3 -256.35 -51.45 -256.65 -51.5 -256.85 -51.55 -257.05 -51.65 -257.35 -51.75 -257.6 -51.8 -257.75 Q-52.7 -260.35 -54.5 -262.5 -60.95 -270.15 -76.2 -269.6 -85.9 -269.35 -91.7 -262.45 L-93.55 -260.15 -93.45 -260.15 -93.95 -259.5 -94.1 -259.25 -94.15 -259.2 -95.1 -257.35 Q-95.8 -255.45 -95.8 -253.8 L-95.8 -253.6 -95.8 -253.45 -95.8 -253.3 -95.45 -249.7 -95.35 -249.05 -94.2 -244.45 Q-93.35 -242.1 -92.0 -239.75 L-91.95 -239.55 -90.95 -237.9 -90.75 -237.6 -89.85 -236.25 -89.45 -235.75 -89.05 -235.1 -88.85 -234.9 -88.75 -234.65 -88.55 -234.4 -86.2 -231.25 -85.65 -230.55 -85.55 -230.4 -85.35 -230.15 -84.65 -229.1 -83.6 -227.3 -82.7 -225.75 -82.65 -225.65 -81.65 -223.85 -81.5 -223.55 -81.3 -223.25 -80.95 -222.6 -80.85 -222.55 -80.4 -221.55 -80.25 -221.4 -80.2 -221.2 -78.25 -217.45 -77.9 -216.65 -77.7 -216.25 -76.3 -213.0 M-107.15 -213.8 L-110.9 -214.0 -111.4 -214.4 -111.9 -214.8 -112.05 -214.9 -113.1 -215.75 -113.45 -216.0 -113.85 -216.35 -114.45 -216.85 -114.5 -216.85 -114.6 -216.95 -115.6 -217.75 -115.7 -217.85 -116.45 -218.55 -117.95 -220.0 -119.2 -221.25 -121.35 -224.0 Q-122.9 -226.55 -123.85 -230.05 -124.85 -233.7 -125.15 -238.3 -123.85 -235.5 -122.2 -232.95 -119.5 -228.9 -116.55 -226.25 L-115.8 -225.1 -115.7 -224.95 -114.0 -222.65 -113.45 -221.9 -112.1 -220.15 -108.75 -215.8 -108.45 -215.45 -108.15 -215.1 -107.95 -214.85 -107.85 -214.65 -107.15 -213.8 M-82.45 -256.4 L-82.45 -256.6 -82.45 -256.65 -82.4 -257.0 -82.4 -257.15 Q-82.2 -259.25 -80.8 -260.85 L-79.7 -261.85 -79.8 -261.85 -79.55 -262.05 Q-78.4 -262.9 -76.95 -263.3 L-75.1 -263.65 -74.95 -263.75 -73.1 -263.85 -71.3 -263.75 -70.05 -263.5 Q-68.2 -263.0 -66.75 -261.85 L-66.35 -261.5 -65.5 -260.65 -63.95 -257.3 -63.95 -257.2 -63.9 -256.65 -63.9 -256.5 -63.9 -256.35 -63.9 -255.9 -63.9 -255.6 -63.9 -255.35 -64.35 -253.7 -64.45 -253.3 -64.9 -252.55 -65.55 -251.75 Q-67.55 -249.35 -71.5 -249.35 -79.6 -249.35 -81.7 -253.2 -82.4 -254.45 -82.45 -256.05 L-82.45 -256.4" fill="url(#gradient2)" fill-rule="evenodd" stroke="none"/>
    <path d="M-124.65 -245.0 L-124.8 -243.5 -124.75 -242.9 -124.75 -242.55 Q-124.45 -239.75 -122.25 -235.5 L-122.05 -235.2 -121.65 -234.35 -121.2 -233.6 -120.35 -232.1 -116.55 -226.25 Q-119.5 -228.9 -122.2 -232.95 -123.85 -235.5 -125.15 -238.3 L-125.2 -239.55 -125.3 -240.85 -125.35 -241.8 -125.35 -244.05 -125.3 -244.35 -124.65 -245.0 M-19.9 -244.15 L-19.9 -243.55 -19.9 -243.45 -19.9 -243.0 -19.9 -242.15 -19.9 -241.85 Q-20.0 -239.2 -20.25 -236.85 L-20.25 -236.6 -20.55 -234.4 Q-22.65 -232.4 -24.45 -232.4 L-24.65 -232.4 -24.3 -233.1 -21.8 -238.1 -21.6 -238.45 -21.5 -238.75 Q-20.6 -241.2 -20.45 -243.0 L-20.45 -243.5 -20.45 -244.3 -19.9 -244.15" fill="#f7552d" fill-rule="evenodd" stroke="none"/>
    <path d="M-23.1 -217.2 L-30.05 -215.95 -32.35 -215.55 -30.45 -217.1 -29.6 -217.8 -29.5 -217.8 -23.8 -217.35 -23.1 -217.2 M-110.9 -214.0 L-119.2 -214.85 -125.45 -216.0 -121.4 -216.85 -116.8 -217.0 -116.0 -216.95 -114.5 -216.85 -114.45 -216.85 -113.85 -216.35 -113.45 -216.0 -113.1 -215.75 -112.05 -214.9 -111.9 -214.8 -111.4 -214.4 -110.9 -214.0" fill="#b5c987" fill-rule="evenodd" stroke="none"/>
    <path d="M-20.45 -244.3 L-20.45 -243.5 -20.45 -243.0 -21.0 -244.3 -20.65 -245.2 -20.6 -245.2 -20.45 -244.3" fill="#ecedb6" fill-rule="evenodd" stroke="none"/>
  </g>
  <defs>
    <radialGradient cx="0" cy="0" gradientTransform="matrix(0.0, 0.0, 0.0, 0.0, 0.0, 302.55)" gradientUnits="userSpaceOnUse" id="gradient0" r="819.2" spreadMethod="pad">
      <stop offset="0.0" stop-color="#ffffff"/>
      <stop offset="0.9921568627450981" stop-color="#f5f7db"/>
    </radialGradient>
    <radialGradient cx="0" cy="0" gradientTransform="matrix(0.122, 0.0, 0.0, 0.122, -73.6, -255.2)" gradientUnits="userSpaceOnUse" id="gradient1" r="819.2" spreadMethod="pad">
      <stop offset="0.09803921568627451" stop-color="#fffde7"/>
      <stop offset="0.9921568627450981" stop-color="#ecedb6"/>
    </radialGradient>
    <radialGradient cx="0" cy="0" gradientTransform="matrix(0.1139, 0.0, 0.0, 0.1139, -74.5, -268.15)" gradientUnits="userSpaceOnUse" id="gradient2" r="819.2" spreadMethod="pad">
      <stop offset="0.0" stop-color="#ffb69a"/>
      <stop offset="0.9921568627450981" stop-color="#ee062f"/>
    </radialGradient>
  </defs>
</svg>
