<?xml version="1.0" encoding="UTF-8" standalone="no"?>
<svg xmlns:ffdec="https://www.free-decompiler.com/flash" xmlns:xlink="http://www.w3.org/1999/xlink" ffdec:objectType="shape" height="86.05px" width="527.25px" xmlns="http://www.w3.org/2000/svg">
  <g transform="matrix(1.0, 0.0, 0.0, 1.0, 336.85, 250.65)">
    <path d="M131.95 -180.6 Q134.1 -183.6 133.35 -186.65 132.65 -189.6 129.15 -192.7 119.45 -201.35 90.5 -207.85 L83.9 -209.3 Q70.1 -212.1 52.55 -214.5 14.8 -219.6 -29.65 -221.25 L-57.25 -221.95 -62.1 -222.0 -63.35 -222.0 -71.9 -222.05 -73.25 -222.05 -88.05 -221.95 -109.2 -221.5 Q-158.05 -220.05 -198.95 -214.5 -215.5 -212.25 -228.65 -209.6 L-236.9 -207.85 Q-244.35 -206.2 -250.5 -204.35 -268.4 -199.1 -275.65 -192.7 -278.05 -190.55 -279.15 -188.45 -281.25 -184.45 -278.4 -180.6 -326.6 -190.2 -335.05 -202.1 -337.7 -205.85 -336.45 -209.85 -335.95 -211.45 -334.85 -212.95 -323.8 -228.35 -252.7 -239.15 -176.8 -250.65 -73.25 -250.65 L-72.75 -250.65 Q30.5 -250.6 106.25 -239.15 184.4 -227.25 190.0 -209.85 195.25 -193.2 131.95 -180.6 M-122.85 -212.85 L-121.3 -213.8 -118.55 -213.2 -118.55 -213.25 Q-116.7 -215.15 -115.8 -215.0 -113.85 -214.05 -112.0 -212.1 L-111.3 -212.6 Q-110.8 -213.05 -110.25 -213.95 -109.05 -215.0 -103.0 -211.2 -103.95 -209.6 -105.7 -208.25 -106.9 -207.3 -106.9 -206.1 -106.9 -205.85 -107.85 -204.95 -109.0 -203.85 -110.2 -203.8 L-110.45 -203.8 -109.65 -203.35 Q-107.9 -202.25 -107.9 -200.8 L-107.9 -200.6 Q-106.85 -200.15 -106.7 -199.8 -107.8 -199.25 -108.85 -198.85 L-108.85 -198.8 -104.3 -198.3 -103.8 -197.3 -102.0 -196.9 Q-101.4 -196.3 -101.4 -194.5 -98.25 -193.6 -96.25 -192.7 L-93.7 -191.4 -92.35 -190.9 -87.4 -190.6 Q-85.7 -190.15 -85.4 -189.6 L-87.4 -189.0 -94.9 -189.2 -95.9 -190.4 -99.45 -191.15 Q-103.95 -192.3 -108.5 -192.7 L-108.8 -193.05 -109.1 -193.9 -111.6 -194.5 -111.8 -194.35 -112.0 -195.25 -113.0 -195.5 -113.35 -195.85 -113.4 -196.55 -115.05 -197.5 -115.8 -197.5 -117.45 -197.75 -119.7 -198.3 Q-120.8 -199.65 -120.85 -200.5 -120.85 -201.1 -120.3 -201.85 -124.6 -204.8 -124.6 -205.9 -124.6 -207.05 -123.8 -207.9 L-124.0 -211.3 Q-124.0 -211.95 -122.85 -212.85 M-94.1 -209.1 Q-94.1 -210.9 -91.6 -211.95 -89.1 -213.0 -86.2 -212.4 L-65.2 -212.6 -57.5 -212.8 Q-55.6 -212.2 -55.1 -211.25 L-54.9 -209.5 Q-54.9 -208.1 -55.1 -207.7 -55.35 -207.2 -56.05 -206.7 L-48.8 -206.7 -47.1 -205.35 Q-46.1 -204.5 -46.1 -204.0 -46.2 -203.45 -46.6 -202.85 -47.4 -201.65 -48.8 -201.2 L-52.55 -201.1 Q-53.4 -200.25 -54.3 -200.2 L-58.35 -200.15 -59.2 -198.3 Q-59.85 -196.8 -62.2 -195.9 L-65.45 -195.9 Q-65.0 -196.7 -65.0 -198.3 -65.0 -199.3 -65.75 -199.45 L-66.15 -199.6 Q-64.75 -200.25 -62.6 -201.4 L-62.8 -202.0 -65.6 -202.7 -65.6 -203.4 Q-65.6 -204.8 -65.9 -205.35 L-66.9 -206.1 -67.95 -206.25 -64.5 -206.4 -60.2 -206.9 Q-60.3 -207.25 -60.95 -207.65 L-62.0 -208.3 -66.9 -208.5 Q-66.9 -208.35 -75.65 -208.3 L-84.7 -208.3 Q-84.7 -207.9 -81.25 -207.55 L-77.8 -207.3 Q-77.7 -207.05 -77.75 -206.1 L-77.6 -204.9 -77.25 -204.85 -77.7 -204.3 -79.5 -204.4 -82.35 -201.2 Q-82.9 -200.65 -82.9 -200.1 -82.9 -198.85 -82.7 -198.9 L-82.5 -199.2 -81.1 -199.1 -81.1 -198.7 Q-81.1 -197.3 -79.95 -196.35 L-79.15 -195.8 -81.1 -196.5 -86.6 -196.5 -88.05 -197.15 Q-88.6 -197.65 -88.6 -199.0 -88.6 -200.05 -87.5 -200.75 L-88.0 -201.85 -88.2 -203.2 -91.3 -203.4 Q-93.35 -204.6 -93.9 -206.45 -94.1 -207.1 -94.1 -209.1 M-41.3 -210.5 Q-41.3 -213.15 -37.65 -213.75 L-27.6 -215.4 -24.4 -215.4 -22.8 -214.1 Q-22.4 -213.5 -22.4 -212.1 -22.4 -211.2 -23.6 -209.35 L-24.8 -207.3 Q-24.8 -206.7 -23.6 -204.35 L-22.4 -201.7 Q-22.4 -199.65 -25.6 -198.85 L-25.6 -198.3 Q-25.6 -194.6 -35.9 -190.85 -44.65 -187.65 -52.0 -187.0 L-53.2 -187.2 -44.05 -191.15 -36.0 -194.3 Q-35.4 -194.8 -34.9 -195.6 L-35.85 -195.35 Q-40.9 -193.9 -44.5 -193.9 L-47.4 -194.3 -47.8 -194.9 Q-46.3 -196.5 -42.25 -198.75 -38.4 -200.85 -37.0 -201.0 L-39.05 -203.1 Q-40.6 -204.8 -40.6 -205.7 -40.6 -206.95 -39.9 -207.25 L-38.6 -207.5 -40.6 -209.15 Q-41.3 -209.85 -41.3 -210.5" fill="#403d56" fill-rule="evenodd" stroke="none"/>
    <path d="M-278.4 -180.6 Q-281.25 -184.45 -279.15 -188.45 -278.05 -190.55 -275.65 -192.7 -268.4 -199.1 -250.5 -204.35 -244.35 -206.2 -236.9 -207.85 L-228.65 -209.6 Q-215.5 -212.25 -198.95 -214.5 -158.05 -220.05 -109.2 -221.5 L-88.05 -221.95 -73.25 -222.05 -71.9 -222.05 -63.35 -222.0 -62.1 -222.0 -57.25 -221.95 -29.65 -221.25 Q14.8 -219.6 52.55 -214.5 70.1 -212.1 83.9 -209.3 L90.5 -207.85 Q119.45 -201.35 129.15 -192.7 132.65 -189.6 133.35 -186.65 134.1 -183.6 131.95 -180.6 L119.95 -178.4 Q41.85 -164.65 -72.75 -164.6 L-73.25 -164.6 Q-188.2 -164.6 -266.45 -178.4 L-278.4 -180.6 M-41.3 -210.5 Q-41.3 -209.85 -40.6 -209.15 L-38.6 -207.5 -39.9 -207.25 Q-40.6 -206.95 -40.6 -205.7 -40.6 -204.8 -39.05 -203.1 L-37.0 -201.0 Q-38.4 -200.85 -42.25 -198.75 -46.3 -196.5 -47.8 -194.9 L-47.4 -194.3 -44.5 -193.9 Q-40.9 -193.9 -35.85 -195.35 L-34.9 -195.6 Q-35.4 -194.8 -36.0 -194.3 L-44.05 -191.15 -53.2 -187.2 -52.0 -187.0 Q-44.65 -187.65 -35.9 -190.85 -25.6 -194.6 -25.6 -198.3 L-25.6 -198.85 Q-22.4 -199.65 -22.4 -201.7 L-23.6 -204.35 Q-24.8 -206.7 -24.8 -207.3 L-23.6 -209.35 Q-22.4 -211.2 -22.4 -212.1 -22.4 -213.5 -22.8 -214.1 L-24.4 -215.4 -27.6 -215.4 -37.65 -213.75 Q-41.3 -213.15 -41.3 -210.5 M-94.1 -209.1 Q-94.1 -207.1 -93.9 -206.45 -93.35 -204.6 -91.3 -203.4 L-88.2 -203.2 -88.0 -201.85 -87.5 -200.75 Q-88.6 -200.05 -88.6 -199.0 -88.6 -197.65 -88.05 -197.15 L-86.6 -196.5 -81.1 -196.5 -79.15 -195.8 -79.95 -196.35 Q-81.1 -197.3 -81.1 -198.7 L-81.1 -199.1 -82.5 -199.2 -82.7 -198.9 Q-82.9 -198.85 -82.9 -200.1 -82.9 -200.65 -82.35 -201.2 L-79.5 -204.4 -77.7 -204.3 -77.25 -204.85 -77.6 -204.9 -77.75 -206.1 Q-77.7 -207.05 -77.8 -207.3 L-81.25 -207.55 Q-84.7 -207.9 -84.7 -208.3 L-75.65 -208.3 Q-66.9 -208.35 -66.9 -208.5 L-62.0 -208.3 -60.95 -207.65 Q-60.3 -207.25 -60.2 -206.9 L-64.5 -206.4 -67.95 -206.25 -66.9 -206.1 -65.9 -205.35 Q-65.6 -204.8 -65.6 -203.4 L-65.6 -202.7 -62.8 -202.0 -62.6 -201.4 Q-64.75 -200.25 -66.15 -199.6 L-65.75 -199.45 Q-65.0 -199.3 -65.0 -198.3 -65.0 -196.7 -65.45 -195.9 L-62.2 -195.9 Q-59.85 -196.8 -59.2 -198.3 L-58.35 -200.15 -54.3 -200.2 Q-53.4 -200.25 -52.55 -201.1 L-48.8 -201.2 Q-47.4 -201.65 -46.6 -202.85 -46.2 -203.45 -46.1 -204.0 -46.1 -204.5 -47.1 -205.35 L-48.8 -206.7 -56.05 -206.7 Q-55.35 -207.2 -55.1 -207.7 -54.9 -208.1 -54.9 -209.5 L-55.1 -211.25 Q-55.6 -212.2 -57.5 -212.8 L-65.2 -212.6 -86.2 -212.4 Q-89.1 -213.0 -91.6 -211.95 -94.1 -210.9 -94.1 -209.1 M-122.85 -212.85 Q-124.0 -211.95 -124.0 -211.3 L-123.8 -207.9 Q-124.6 -207.05 -124.6 -205.9 -124.6 -204.8 -120.3 -201.85 -120.85 -201.1 -120.85 -200.5 -120.8 -199.65 -119.7 -198.3 L-117.45 -197.75 -115.8 -197.5 -115.05 -197.5 -113.4 -196.55 -113.35 -195.85 -113.0 -195.5 -112.0 -195.25 -111.8 -194.35 -111.6 -194.5 -109.1 -193.9 -108.8 -193.05 -108.5 -192.7 Q-103.95 -192.3 -99.45 -191.15 L-95.9 -190.4 -94.9 -189.2 -87.4 -189.0 -85.4 -189.6 Q-85.7 -190.15 -87.4 -190.6 L-92.35 -190.9 -93.7 -191.4 -96.25 -192.7 Q-98.25 -193.6 -101.4 -194.5 -101.4 -196.3 -102.0 -196.9 L-103.8 -197.3 -104.3 -198.3 -108.85 -198.8 -108.85 -198.85 Q-107.8 -199.25 -106.7 -199.8 -106.85 -200.15 -107.9 -200.6 L-107.9 -200.8 Q-107.9 -202.25 -109.65 -203.35 L-110.45 -203.8 -110.2 -203.8 Q-109.0 -203.85 -107.85 -204.95 -106.9 -205.85 -106.9 -206.1 -106.9 -207.3 -105.7 -208.25 -103.95 -209.6 -103.0 -211.2 -109.05 -215.0 -110.25 -213.95 -110.8 -213.05 -111.3 -212.6 L-112.0 -212.1 Q-113.85 -214.05 -115.8 -215.0 -116.7 -215.15 -118.55 -213.25 L-118.55 -213.2 -121.3 -213.8 -122.85 -212.85" fill="#302e41" fill-rule="evenodd" stroke="none"/>
  </g>
</svg>
