<?xml version="1.0" encoding="UTF-8" standalone="no"?>
<svg xmlns:ffdec="https://www.free-decompiler.com/flash" xmlns:xlink="http://www.w3.org/1999/xlink" ffdec:objectType="shape" height="43.75px" width="167.65px" xmlns="http://www.w3.org/2000/svg">
  <g transform="matrix(1.0, 0.0, 0.0, 1.0, -244.75, -668.75)">
    <path d="M253.35 675.0 L254.55 674.6 254.9 674.75 Q259.35 676.6 265.15 679.55 L265.15 678.8 Q263.65 676.65 260.25 674.8 L270.6 675.75 Q272.1 675.75 272.8 674.95 L273.6 673.6 272.85 673.25 276.2 673.5 278.65 673.75 278.75 673.75 279.7 674.0 282.8 674.75 283.1 674.8 284.0 674.65 284.5 674.6 Q290.8 675.65 296.35 677.35 L301.7 679.35 301.15 680.6 Q300.2 682.5 298.4 683.2 L298.95 683.4 299.25 683.5 304.2 684.7 303.6 685.0 Q301.65 686.05 299.3 686.05 294.8 686.05 286.85 683.75 278.95 681.45 269.45 681.45 260.0 681.45 254.95 683.65 251.55 685.8 250.35 685.8 L247.85 684.95 247.55 684.85 Q247.0 684.25 246.9 683.4 L251.5 683.95 Q253.05 683.95 253.55 683.4 L253.9 682.25 Q251.85 680.6 249.6 679.75 L254.45 679.75 254.85 679.55 Q254.4 679.45 254.7 679.05 256.0 679.0 256.35 678.35 L256.6 677.15 253.35 675.0 M311.75 704.1 Q306.9 703.2 303.35 701.6 L302.1 701.05 301.3 700.6 294.85 700.6 291.55 700.6 291.35 700.6 Q286.8 699.75 282.65 696.95 L277.6 693.15 278.05 691.15 281.4 690.7 284.6 690.3 Q289.1 690.45 303.05 694.5 L313.95 693.6 327.55 693.55 338.45 693.6 358.25 693.7 Q360.3 693.7 361.5 694.7 L361.65 694.85 Q362.5 695.75 362.5 696.75 L362.3 698.1 364.75 698.4 Q366.8 699.0 368.55 701.1 366.45 703.45 364.7 704.35 360.25 706.65 351.75 706.65 343.3 706.65 335.6 704.5 L325.55 705.15 311.75 704.1 M403.95 689.9 Q412.4 691.6 412.4 693.6 412.4 696.75 409.3 698.25 L406.4 699.2 Q400.1 693.35 384.45 694.6 L375.5 695.7 Q371.05 692.3 359.8 689.35 361.8 688.35 366.8 687.9 374.35 687.2 385.4 687.8 396.3 688.4 403.95 689.9" fill="#966f38" fill-rule="evenodd" stroke="none"/>
    <path d="M254.55 674.6 L253.35 675.0 250.95 673.65 252.8 673.9 254.55 674.6 M246.9 683.4 Q247.0 684.25 247.55 684.85 L246.2 684.5 245.8 684.45 244.75 683.0 246.9 683.4 M250.35 685.8 Q251.55 685.8 254.95 683.65 260.0 681.45 269.45 681.45 278.95 681.45 286.85 683.75 294.8 686.05 299.3 686.05 301.65 686.05 303.6 685.0 L304.2 684.7 324.4 688.85 326.25 689.35 Q333.9 691.35 338.45 693.6 L327.55 693.55 Q325.75 692.8 322.0 692.15 L316.8 690.8 310.8 689.85 309.75 689.7 298.25 688.7 Q287.2 688.1 279.65 688.8 271.2 689.6 271.2 691.75 271.2 693.3 272.35 694.6 272.55 696.5 275.1 697.5 L277.0 698.05 277.55 698.5 Q280.5 700.3 291.35 700.6 L291.55 700.6 294.85 700.6 302.1 701.05 303.35 701.6 Q306.9 703.2 311.75 704.1 L312.4 704.7 Q307.5 703.25 305.75 703.25 L306.65 704.4 304.5 704.1 304.3 704.35 Q304.05 704.5 304.05 704.75 L307.55 705.1 Q309.7 706.7 314.45 708.75 L314.2 708.75 295.4 707.0 290.8 706.35 291.7 705.75 292.0 704.95 Q281.9 700.75 279.55 700.7 277.8 700.7 273.45 702.25 272.0 701.7 270.85 701.15 L271.1 701.15 Q273.45 701.15 274.55 700.3 L267.85 699.35 Q265.55 697.65 262.25 694.4 L260.5 692.8 263.0 692.95 Q264.6 692.95 265.3 692.3 265.7 691.9 266.1 690.6 262.85 687.95 256.25 687.05 L252.6 686.8 250.35 685.8 M301.7 679.35 L296.35 677.35 Q290.8 675.65 284.5 674.6 L284.0 674.65 286.05 674.3 286.2 673.6 Q284.3 670.95 279.4 668.75 287.05 668.9 292.9 670.45 300.35 672.4 301.65 675.85 L304.1 676.7 301.9 676.6 301.95 677.4 301.7 679.35 M278.65 673.75 L276.2 673.5 272.85 673.25 Q267.95 670.9 263.55 669.7 L264.0 669.6 268.1 670.95 278.65 673.75" fill="#9f7e3c" fill-rule="evenodd" stroke="none"/>
    <path d="M312.4 704.7 L311.75 704.1 325.55 705.15 335.6 704.5 Q343.3 706.65 351.75 706.65 360.25 706.65 364.7 704.35 366.45 703.45 368.55 701.1 366.8 699.0 364.75 698.4 L362.3 698.1 362.5 696.75 Q362.5 695.75 361.65 694.85 L361.5 694.7 Q368.95 695.6 372.85 699.2 375.3 701.45 376.35 704.75 L376.15 705.1 Q379.85 706.4 379.85 707.6 379.85 709.95 377.85 711.25 375.85 712.5 372.3 712.5 357.85 712.5 341.0 709.2 L331.75 707.1 322.45 708.05 322.35 708.05 317.95 706.45 312.4 704.7 M302.1 701.05 L294.85 700.6 301.3 700.6 302.1 701.05 M291.35 700.6 Q280.5 700.3 277.55 698.5 L277.0 698.05 275.1 697.5 Q272.55 696.5 272.35 694.6 L272.3 694.2 Q272.3 689.65 285.95 689.25 293.5 689.0 308.65 689.65 L309.75 689.7 310.8 689.85 Q312.35 690.1 313.4 690.85 L313.8 691.15 321.2 692.0 322.0 692.15 Q325.75 692.8 327.55 693.55 L313.95 693.6 303.05 694.5 Q289.1 690.45 284.6 690.3 L281.4 690.7 278.05 691.15 277.6 693.15 282.65 696.95 Q286.8 699.75 291.35 700.6" fill="#a4853e" fill-rule="evenodd" stroke="none"/>
  </g>
</svg>
