<?xml version="1.0" encoding="UTF-8" standalone="no"?>
<svg xmlns:ffdec="https://www.free-decompiler.com/flash" xmlns:xlink="http://www.w3.org/1999/xlink" ffdec:objectType="shape" height="24.3px" width="221.35px" xmlns="http://www.w3.org/2000/svg">
  <g transform="matrix(1.0, 0.0, 0.0, 1.0, -29.4, -250.95)">
    <path d="M146.4 271.15 Q144.35 271.15 136.65 273.2 128.95 275.25 121.65 275.25 98.25 275.25 83.35 271.75 67.4 268.0 56.35 259.8 L56.0 259.9 Q41.9 265.6 37.4 265.6 32.5 265.6 30.5 261.65 L29.4 257.4 29.65 254.65 29.85 253.5 30.05 253.1 Q30.45 252.65 31.75 252.65 33.8 252.65 34.55 255.6 35.25 258.5 37.4 258.5 42.35 258.5 52.05 256.25 L48.75 252.95 49.15 250.95 55.45 253.05 59.2 254.45 Q69.85 251.8 74.15 251.8 L74.35 252.3 63.9 256.7 Q65.15 257.3 66.4 258.05 67.95 258.65 70.6 260.85 73.1 262.95 76.5 264.15 87.55 267.95 121.95 267.95 L129.2 267.1 128.9 266.35 Q128.75 265.85 128.75 264.55 128.75 262.2 130.05 261.25 131.45 260.2 135.0 260.2 L144.8 261.15 154.55 262.1 156.5 261.9 183.25 261.8 Q200.5 261.9 221.3 258.65 L240.0 255.3 Q243.45 255.3 244.75 257.45 245.4 258.5 245.4 259.85 245.4 261.35 244.25 262.65 L249.45 263.25 250.05 263.75 250.75 264.35 242.35 265.05 240.35 265.15 Q237.75 266.25 233.85 267.15 219.4 270.4 183.25 271.65 L157.45 271.85 150.75 271.65 146.4 271.15" fill="#966f38" fill-rule="evenodd" stroke="none"/>
  </g>
</svg>
