<?xml version="1.0" encoding="UTF-8" standalone="no"?>
<svg xmlns:ffdec="https://www.free-decompiler.com/flash" xmlns:xlink="http://www.w3.org/1999/xlink" ffdec:objectType="shape" height="128.05px" width="112.3px" xmlns="http://www.w3.org/2000/svg">
  <g transform="matrix(1.0, 0.0, 0.0, 1.0, 49.2, 247.55)">
    <path d="M56.25 -166.7 Q56.25 -164.7 54.25 -163.95 52.3 -163.2 47.0 -163.2 44.8 -163.2 43.6 -163.75 L41.8 -163.05 Q38.45 -162.0 34.95 -162.0 28.05 -162.0 26.0 -163.35 25.45 -163.7 25.3 -164.35 23.9 -163.35 19.75 -162.4 13.95 -161.1 9.0 -161.1 3.8 -161.1 1.6 -162.45 L1.35 -162.6 -0.45 -162.1 Q-5.0 -161.1 -15.0 -161.1 -17.4 -161.1 -18.35 -162.05 -23.0 -160.8 -27.5 -160.8 -35.0 -160.8 -37.15 -161.9 -38.25 -162.5 -38.25 -164.1 -38.25 -164.6 -34.3 -165.75 L-25.6 -167.55 Q-15.9 -169.0 -13.65 -167.0 L-7.2 -167.8 Q2.9 -168.55 4.35 -166.5 8.3 -167.65 13.05 -168.2 24.6 -169.65 25.85 -166.25 27.7 -167.95 35.5 -168.7 L39.5 -168.9 37.8 -169.85 Q32.6 -172.95 32.6 -174.6 32.6 -177.9 43.35 -175.4 51.85 -173.4 53.65 -170.8 56.25 -169.9 56.25 -166.7 M53.8 -166.8 L53.9 -166.9 Q54.75 -167.4 54.75 -168.0 54.75 -171.05 47.5 -172.35 L47.1 -172.4 Q43.05 -174.45 40.35 -174.45 L37.85 -174.05 Q37.0 -173.6 37.0 -172.25 37.0 -171.6 42.8 -168.3 48.85 -164.8 51.1 -164.8 52.35 -164.8 53.1 -165.65 L53.8 -166.8 M-23.85 -170.95 L-24.1 -170.55 Q-24.75 -169.5 -25.75 -169.5 -28.05 -169.5 -29.5 -171.75 L-32.8 -170.7 Q-39.0 -169.0 -45.55 -169.0 -47.25 -169.0 -49.2 -175.5 -49.2 -178.55 -45.95 -178.55 L-33.5 -178.0 Q-30.8 -178.0 -29.0 -176.55 L-26.9 -177.35 Q-23.2 -178.5 -18.35 -178.85 L-9.0 -178.45 Q-8.3 -179.6 -6.95 -179.4 L4.2 -178.8 10.65 -177.7 Q11.15 -179.15 12.6 -179.4 14.2 -179.65 20.55 -179.3 30.6 -179.3 30.6 -175.35 30.6 -174.25 29.8 -173.4 28.9 -172.4 27.3 -172.15 L28.0 -173.05 Q28.4 -173.8 28.4 -174.7 28.4 -177.95 20.15 -178.25 14.15 -178.5 12.5 -177.1 L12.5 -176.7 12.15 -173.6 11.85 -170.65 11.75 -169.4 10.9 -169.0 10.55 -170.6 Q10.15 -172.65 10.15 -175.25 L10.2 -175.95 7.05 -176.75 Q1.35 -177.9 -4.25 -177.9 -7.4 -177.9 -8.35 -177.2 -9.1 -176.65 -9.1 -174.9 L-8.9 -173.45 Q-8.5 -172.1 -7.25 -172.1 -6.65 -172.1 -6.15 -172.55 -5.65 -173.05 -5.1 -173.05 L1.05 -171.8 4.75 -171.15 4.65 -171.15 -4.15 -170.45 -6.6 -169.75 Q-8.55 -169.75 -9.35 -170.85 -11.25 -169.2 -12.45 -169.2 L-16.55 -170.2 Q-19.35 -171.1 -19.95 -171.55 L-16.3 -172.4 Q-9.95 -174.0 -9.95 -174.9 -9.95 -178.15 -20.05 -177.25 -30.15 -176.35 -30.15 -173.7 -30.2 -172.9 -29.75 -172.2 -28.9 -170.8 -26.6 -170.8 L-23.85 -170.95 M17.2 -172.35 L16.0 -171.9 12.85 -170.9 12.55 -170.9 13.25 -171.45 Q14.0 -172.25 14.0 -173.25 15.25 -172.7 17.2 -172.35 M-30.9 -173.55 Q-30.9 -176.65 -39.45 -176.7 -48.0 -176.7 -48.0 -174.0 -48.0 -172.45 -45.5 -171.55 -42.85 -170.55 -37.8 -170.55 -30.9 -170.55 -30.9 -173.55" fill="#663300" fill-rule="evenodd" stroke="none"/>
    <path d="M53.8 -166.8 L53.1 -165.65 Q52.35 -164.8 51.1 -164.8 48.85 -164.8 42.8 -168.3 37.0 -171.6 37.0 -172.25 37.0 -173.6 37.85 -174.05 L40.35 -174.45 Q43.05 -174.45 47.1 -172.4 L47.5 -172.35 Q54.75 -171.05 54.75 -168.0 54.75 -167.4 53.9 -166.9 L53.8 -166.8" fill="#844b13" fill-rule="evenodd" stroke="none"/>
    <path d="M27.3 -172.15 L25.75 -171.75 17.2 -172.35 Q15.25 -172.7 14.0 -173.25 14.0 -172.25 13.25 -171.45 L12.55 -170.9 11.85 -170.65 12.15 -173.6 12.5 -176.7 12.5 -177.1 Q14.15 -178.5 20.15 -178.25 28.4 -177.95 28.4 -174.7 28.4 -173.8 28.0 -173.05 L27.3 -172.15 M10.55 -170.6 L4.75 -171.15 1.05 -171.8 -5.1 -173.05 Q-5.65 -173.05 -6.15 -172.55 -6.65 -172.1 -7.25 -172.1 -8.5 -172.1 -8.9 -173.45 L-9.1 -174.9 Q-9.1 -176.65 -8.35 -177.2 -7.4 -177.9 -4.25 -177.9 1.35 -177.9 7.05 -176.75 L10.2 -175.95 10.15 -175.25 Q10.15 -172.65 10.55 -170.6 M-19.95 -171.55 L-23.85 -170.95 -26.6 -170.8 Q-28.9 -170.8 -29.75 -172.2 -30.2 -172.9 -30.15 -173.7 -30.15 -176.35 -20.05 -177.25 -9.95 -178.15 -9.95 -174.9 -9.95 -174.0 -16.3 -172.4 L-19.95 -171.55 M-30.9 -173.55 Q-30.9 -170.55 -37.8 -170.55 -42.85 -170.55 -45.5 -171.55 -48.0 -172.45 -48.0 -174.0 -48.0 -176.7 -39.45 -176.7 -30.9 -176.65 -30.9 -173.55" fill="#d1b03f" fill-rule="evenodd" stroke="none"/>
    <path d="M45.75 -157.75 Q46.1 -167.25 48.2 -191.0 50.7 -219.5 50.7 -227.95 L51.45 -234.85 52.15 -244.0 Q52.15 -244.55 50.85 -245.15 L49.05 -245.9 48.95 -246.55 49.05 -247.35 Q50.05 -247.9 52.25 -246.9 54.55 -245.8 54.55 -244.4 L53.7 -235.1 Q52.8 -226.65 52.8 -219.1 L50.5 -180.75 49.05 -158.1 46.85 -158.05 46.45 -158.0 46.35 -157.95 45.75 -157.75" fill="#403c02" fill-rule="evenodd" stroke="none"/>
    <path d="M50.8 -157.7 Q52.15 -157.25 53.55 -156.25 56.65 -154.0 58.65 -149.75 60.45 -146.05 60.2 -143.35 L62.15 -142.9 62.3 -142.75 62.35 -142.6 63.1 -142.95 Q62.0 -140.35 61.1 -136.45 L60.95 -135.95 Q58.85 -131.65 58.55 -129.4 L58.6 -128.8 56.9 -123.25 56.5 -121.8 Q51.0 -118.9 43.6 -119.65 36.2 -120.4 34.0 -121.95 L33.9 -122.1 34.3 -122.6 33.75 -126.65 33.3 -129.65 33.4 -130.95 32.7 -137.75 Q32.4 -140.6 32.7 -143.55 32.85 -145.1 34.35 -145.35 L34.8 -145.4 35.15 -148.9 Q36.95 -151.4 39.9 -154.0 L41.35 -155.25 Q43.55 -157.1 45.75 -157.75 L46.35 -157.95 46.45 -158.0 46.85 -158.05 46.8 -157.4 Q46.05 -155.4 45.65 -153.85 L45.4 -153.0 Q45.0 -153.4 44.75 -154.0 L44.75 -154.1 41.95 -153.3 Q40.45 -151.9 39.7 -150.2 L38.2 -144.9 38.25 -144.9 38.35 -144.55 38.6 -144.55 40.35 -144.15 45.35 -144.55 45.85 -144.55 48.2 -144.45 54.9 -143.65 56.4 -143.65 55.65 -147.5 Q54.4 -153.85 51.0 -154.15 L50.3 -154.25 49.35 -152.95 48.7 -152.5 48.25 -152.3 48.75 -153.2 50.8 -157.7 M45.5 -143.35 L45.3 -143.35 45.2 -143.35 Q42.05 -143.15 38.5 -142.15 L35.9 -141.35 35.85 -141.3 35.6 -141.1 35.3 -140.8 35.3 -140.75 35.25 -140.75 35.25 -140.7 Q34.9 -140.25 34.85 -139.8 34.5 -136.75 35.0 -133.75 34.8 -130.9 34.9 -128.1 35.05 -124.95 35.55 -123.4 L36.8 -123.75 37.1 -123.85 40.0 -124.3 43.15 -124.55 46.05 -124.5 49.6 -124.05 50.3 -123.45 51.15 -123.45 52.0 -123.6 52.1 -123.45 53.85 -123.5 54.75 -123.5 Q56.35 -125.55 57.0 -129.9 58.1 -136.65 58.5 -137.7 L59.0 -138.95 58.9 -138.95 56.15 -140.25 50.0 -143.1 48.1 -143.25 45.75 -143.35 45.5 -143.35" fill="#4a4a42" fill-rule="evenodd" stroke="none"/>
    <path d="M49.05 -158.1 L49.45 -158.05 50.8 -157.7 48.75 -153.2 48.25 -152.3 47.15 -152.25 Q46.15 -152.35 45.6 -152.8 L45.4 -153.0 45.65 -153.85 Q46.05 -155.4 46.8 -157.4 L46.85 -158.05 49.05 -158.1" fill="#333333" fill-rule="evenodd" stroke="none"/>
    <path d="M35.25 -140.7 L35.25 -140.75 35.3 -140.75 35.3 -140.8 35.6 -141.1 35.85 -141.3 35.9 -141.35 38.5 -142.15 Q42.05 -143.15 45.2 -143.35 L45.3 -143.35 45.5 -143.35 45.3 -142.95 43.9 -140.65 Q42.0 -138.05 41.8 -135.95 41.7 -134.95 42.35 -131.05 L43.05 -125.9 43.15 -124.55 40.0 -124.3 37.1 -123.85 37.1 -127.45 36.9 -133.8 Q36.7 -137.05 35.25 -140.7" fill="#666666" fill-rule="evenodd" stroke="none"/>
    <path d="M45.5 -143.35 L45.75 -143.35 Q45.65 -142.25 46.5 -140.65 47.05 -139.65 47.85 -139.0 48.65 -138.35 49.75 -138.05 48.05 -137.85 47.9 -136.25 47.8 -135.3 49.15 -132.8 L50.75 -129.2 Q49.55 -128.45 47.05 -127.6 45.75 -127.1 45.65 -126.25 45.55 -125.4 46.05 -124.5 L43.15 -124.55 43.05 -125.9 42.35 -131.05 Q41.7 -134.95 41.8 -135.95 42.0 -138.05 43.9 -140.65 L45.3 -142.95 45.5 -143.35 M56.15 -140.25 L58.9 -138.95 59.0 -138.95 58.5 -137.7 Q58.1 -136.65 57.0 -129.9 56.35 -125.55 54.75 -123.5 L53.85 -123.5 Q52.15 -126.45 52.45 -129.05 L53.4 -133.05 54.25 -137.05 54.2 -138.2 54.75 -138.5 Q55.7 -139.15 56.15 -140.25 M37.1 -123.85 L36.8 -123.75 35.55 -123.4 Q35.05 -124.95 34.9 -128.1 34.8 -130.9 35.0 -133.75 34.5 -136.75 34.85 -139.8 34.9 -140.25 35.25 -140.7 36.7 -137.05 36.9 -133.8 L37.1 -127.45 37.1 -123.85" fill="#999999" fill-rule="evenodd" stroke="none"/>
    <path d="M45.75 -143.35 L48.1 -143.25 50.0 -143.1 56.15 -140.25 Q55.7 -139.15 54.75 -138.5 L54.2 -138.2 54.25 -137.05 53.4 -133.05 52.45 -129.05 Q52.15 -126.45 53.85 -123.5 L52.1 -123.45 52.0 -123.6 51.15 -123.45 50.3 -123.45 49.6 -124.05 46.05 -124.5 Q45.55 -125.4 45.65 -126.25 45.75 -127.1 47.05 -127.6 49.55 -128.45 50.75 -129.2 L49.15 -132.8 Q47.8 -135.3 47.9 -136.25 48.05 -137.85 49.75 -138.05 48.65 -138.35 47.85 -139.0 47.05 -139.65 46.5 -140.65 45.65 -142.25 45.75 -143.35" fill="#cccccc" fill-rule="evenodd" stroke="none"/>
  </g>
</svg>
