<?xml version="1.0" encoding="UTF-8" standalone="no"?>
<svg xmlns:ffdec="https://www.free-decompiler.com/flash" xmlns:xlink="http://www.w3.org/1999/xlink" ffdec:objectType="shape" height="78.2px" width="37.95px" xmlns="http://www.w3.org/2000/svg">
  <g transform="matrix(1.0, 0.0, 0.0, 1.0, 43.35, 256.1)">
    <path d="M-30.15 -225.8 Q-29.85 -234.2 -28.15 -253.65 L-27.85 -253.6 Q-27.25 -254.85 -25.6 -255.7 -22.4 -257.25 -19.3 -253.05 -19.35 -251.95 -21.35 -251.95 -22.05 -251.95 -22.5 -252.5 -22.95 -253.1 -23.65 -253.1 -24.2 -253.1 -24.95 -252.35 L-25.2 -252.1 -25.4 -248.8 -26.85 -226.15 -29.05 -226.1 -29.45 -226.05 -29.55 -226.0 -30.15 -225.8 M-5.8 -235.95 L-5.4 -235.95 -6.4 -229.55 Q-7.45 -223.5 -7.45 -220.0 L-8.15 -207.9 -9.1 -192.0 Q-9.1 -189.85 -9.8 -177.9 L-11.2 -178.25 -12.15 -178.25 -11.55 -189.5 -10.6 -204.3 Q-9.65 -219.6 -9.65 -235.45 L-9.6 -236.05 -7.7 -236.05 -5.8 -235.95" fill="#403c02" fill-rule="evenodd" stroke="none"/>
    <path d="M-30.15 -225.8 L-29.55 -226.0 -29.45 -226.05 -29.05 -226.1 -29.1 -225.45 -30.25 -221.9 -30.5 -221.05 -31.15 -222.05 -31.15 -222.15 -33.95 -221.35 Q-35.45 -219.95 -36.2 -218.25 L-37.7 -212.95 -37.65 -212.95 -37.55 -212.6 -37.3 -212.6 -35.55 -212.2 -30.55 -212.6 -30.05 -212.6 -27.7 -212.5 -21.0 -211.7 -19.5 -211.7 -20.25 -215.55 Q-21.5 -221.9 -24.9 -222.2 L-25.6 -222.3 Q-25.85 -221.55 -26.55 -221.0 L-27.2 -220.55 -27.65 -220.35 -27.15 -221.25 -25.1 -225.75 Q-23.75 -225.3 -22.35 -224.3 -19.25 -222.05 -17.25 -217.8 -15.45 -214.1 -15.7 -211.4 L-13.75 -210.95 -13.6 -210.8 -13.55 -210.65 -12.8 -211.0 Q-13.9 -208.4 -14.8 -204.5 L-14.95 -204.0 Q-17.05 -199.7 -17.35 -197.45 L-17.3 -196.85 -19.0 -191.3 -19.4 -189.85 Q-24.9 -186.95 -32.3 -187.7 -39.7 -188.45 -41.9 -190.0 L-42.0 -190.15 -41.6 -190.65 -42.15 -194.7 -42.6 -197.7 -42.5 -199.0 Q-42.7 -202.05 -43.2 -205.8 -43.5 -208.65 -43.2 -211.6 -43.05 -213.15 -41.55 -213.4 L-41.1 -213.45 -40.75 -216.95 Q-38.95 -219.45 -36.0 -222.05 L-34.55 -223.3 Q-32.35 -225.15 -30.15 -225.8 M-30.4 -211.4 L-30.6 -211.4 -30.7 -211.4 Q-33.85 -211.2 -37.4 -210.2 L-40.0 -209.4 -40.05 -209.35 -40.3 -209.15 -40.6 -208.85 -40.6 -208.8 -40.65 -208.8 -40.65 -208.75 -41.05 -207.85 Q-41.4 -204.8 -40.9 -201.8 L-41.0 -196.15 Q-40.85 -193.0 -40.35 -191.45 L-39.1 -191.8 -38.8 -191.9 -35.9 -192.35 -32.75 -192.6 -29.85 -192.55 -26.3 -192.1 -25.6 -191.5 -24.75 -191.5 -23.9 -191.65 -23.8 -191.5 -22.05 -191.55 -21.15 -191.55 Q-19.55 -193.6 -18.9 -197.95 L-17.4 -205.75 -16.9 -207.0 -17.0 -207.0 -19.75 -208.3 -25.9 -211.15 -27.8 -211.3 -30.15 -211.4 -30.4 -211.4" fill="#4a4a42" fill-rule="evenodd" stroke="none"/>
    <path d="M-30.4 -211.4 L-30.15 -211.4 Q-30.25 -210.3 -29.4 -208.7 -28.85 -207.7 -28.05 -207.05 -27.25 -206.4 -26.15 -206.1 -27.85 -205.9 -28.0 -204.3 -28.1 -203.35 -26.75 -200.85 -25.3 -198.05 -25.15 -197.25 -26.35 -196.5 -28.85 -195.65 -30.15 -195.15 -30.25 -194.3 -30.35 -193.45 -29.85 -192.55 L-32.75 -192.6 -32.85 -193.95 -33.55 -199.1 Q-34.2 -203.0 -34.1 -204.0 -33.9 -206.1 -32.0 -208.7 L-30.6 -211.0 -30.4 -211.4 M-19.75 -208.3 L-17.0 -207.0 -16.9 -207.0 -17.4 -205.75 -18.9 -197.95 Q-19.55 -193.6 -21.15 -191.55 L-22.05 -191.55 Q-23.75 -194.5 -23.45 -197.1 L-22.5 -201.1 -21.65 -205.1 Q-21.6 -205.75 -21.7 -206.25 L-21.15 -206.55 Q-20.2 -207.2 -19.75 -208.3 M-38.8 -191.9 L-39.1 -191.8 -40.35 -191.45 Q-40.85 -193.0 -41.0 -196.15 L-40.9 -201.8 Q-41.4 -204.8 -41.05 -207.85 L-40.65 -208.75 Q-39.2 -205.1 -39.0 -201.85 L-38.8 -195.5 -38.8 -191.9" fill="#999999" fill-rule="evenodd" stroke="none"/>
    <path d="M-40.65 -208.75 L-40.65 -208.8 -40.6 -208.8 -40.6 -208.85 -40.3 -209.15 -40.05 -209.35 -40.0 -209.4 -37.4 -210.2 Q-33.85 -211.2 -30.7 -211.4 L-30.6 -211.4 -30.4 -211.4 -30.6 -211.0 -32.0 -208.7 Q-33.9 -206.1 -34.1 -204.0 -34.2 -203.0 -33.55 -199.1 L-32.85 -193.95 -32.75 -192.6 -35.9 -192.35 -38.8 -191.9 -38.8 -195.5 -39.0 -201.85 Q-39.2 -205.1 -40.65 -208.75" fill="#666666" fill-rule="evenodd" stroke="none"/>
    <path d="M-29.05 -226.1 L-26.85 -226.15 -26.45 -226.1 -25.1 -225.75 -27.15 -221.25 -27.65 -220.35 -28.75 -220.3 Q-29.75 -220.4 -30.3 -220.85 L-30.5 -221.05 -30.25 -221.9 -29.1 -225.45 -29.05 -226.1" fill="#333333" fill-rule="evenodd" stroke="none"/>
    <path d="M-30.15 -211.4 L-27.8 -211.3 -25.9 -211.15 -19.75 -208.3 Q-20.2 -207.2 -21.15 -206.55 L-21.7 -206.25 Q-21.6 -205.75 -21.65 -205.1 L-22.5 -201.1 -23.45 -197.1 Q-23.75 -194.5 -22.05 -191.55 L-23.8 -191.5 -23.9 -191.65 -24.75 -191.5 -25.6 -191.5 -26.3 -192.1 -29.85 -192.55 Q-30.35 -193.45 -30.25 -194.3 -30.15 -195.15 -28.85 -195.65 -26.35 -196.5 -25.15 -197.25 -25.3 -198.05 -26.75 -200.85 -28.1 -203.35 -28.0 -204.3 -27.85 -205.9 -26.15 -206.1 -27.25 -206.4 -28.05 -207.05 -28.85 -207.7 -29.4 -208.7 -30.25 -210.3 -30.15 -211.4" fill="#cccccc" fill-rule="evenodd" stroke="none"/>
  </g>
</svg>
