<?xml version="1.0" encoding="UTF-8" standalone="no"?>
<svg xmlns:ffdec="https://www.free-decompiler.com/flash" xmlns:xlink="http://www.w3.org/1999/xlink" ffdec:objectType="shape" height="110.65px" width="507.0px" xmlns="http://www.w3.org/2000/svg">
  <g transform="matrix(1.0, 0.0, 0.0, 1.0, 326.5, 279.9)">
    <path d="M180.4 -210.75 L180.5 -210.2 Q180.5 -207.9 179.1 -205.9 178.25 -204.7 175.15 -201.65 L174.8 -201.3 Q174.4 -200.55 172.6 -199.75 L172.1 -199.55 170.45 -198.75 163.5 -195.65 Q163.45 -195.55 163.4 -195.6 L163.3 -195.8 162.9 -195.6 Q161.9 -194.8 158.35 -193.6 154.95 -192.5 154.35 -192.5 L154.3 -192.5 Q146.7 -189.7 143.5 -189.0 L128.05 -185.3 Q126.6 -184.25 125.2 -184.05 L120.25 -184.0 110.75 -181.9 105.5 -181.25 104.7 -180.95 Q102.4 -180.15 99.75 -179.8 L97.75 -179.55 96.0 -179.3 93.6 -179.15 93.85 -179.5 101.5 -180.55 100.85 -180.65 Q103.8 -181.9 109.15 -182.9 L116.5 -184.15 123.8 -185.6 127.55 -185.85 Q129.15 -186.5 131.7 -187.25 L140.15 -189.55 Q148.6 -191.9 155.9 -193.45 L158.2 -194.25 158.8 -194.45 Q162.15 -195.95 163.85 -196.35 L165.55 -197.4 169.75 -199.75 170.9 -200.25 171.55 -200.8 Q173.3 -202.1 174.4 -202.2 L175.25 -202.8 Q177.95 -204.75 179.2 -206.85 180.0 -208.2 180.0 -209.35 179.5 -211.8 177.15 -214.8 174.65 -218.0 171.6 -219.8 L163.75 -224.4 158.85 -226.15 155.1 -227.9 155.25 -228.05 159.1 -226.4 161.25 -225.85 164.25 -224.75 168.45 -222.45 Q170.8 -221.1 172.0 -220.65 174.2 -219.8 177.3 -216.2 180.4 -212.6 180.4 -210.9 L180.4 -210.75 M166.3 -213.75 Q165.6 -212.7 165.6 -211.15 L166.0 -209.5 166.35 -208.0 Q166.35 -207.25 165.35 -206.65 L163.15 -205.15 Q162.55 -204.55 162.25 -203.75 162.1 -203.4 160.9 -203.0 L155.8 -201.25 150.9 -199.25 Q145.95 -196.75 137.95 -194.55 132.6 -192.15 128.3 -190.9 122.75 -189.3 114.75 -187.9 L112.25 -187.25 102.95 -185.9 96.7 -185.25 82.9 -183.2 54.3 -179.4 53.5 -179.3 49.75 -178.75 49.65 -178.8 46.5 -178.55 43.55 -178.65 39.25 -178.3 32.75 -177.25 31.5 -177.4 30.65 -177.65 25.25 -177.75 23.0 -177.55 20.4 -177.15 19.7 -177.0 19.75 -177.0 19.85 -176.9 17.5 -176.5 15.0 -176.5 13.9 -176.5 3.05 -175.5 -4.75 -174.8 Q-17.25 -174.75 -17.5 -174.55 L-27.75 -174.0 -28.55 -174.15 -30.4 -174.4 -40.75 -174.25 -49.75 -173.7 -56.0 -173.05 -63.0 -173.25 -70.5 -173.75 -74.9 -173.65 -76.5 -173.4 -78.25 -173.25 -83.1 -173.0 -85.6 -173.1 -88.0 -173.25 -90.5 -173.3 -97.0 -173.55 -104.15 -173.5 -112.75 -174.0 -116.5 -174.55 -120.4 -174.8 -122.05 -174.9 -122.25 -174.8 -123.15 -174.95 -123.05 -174.9 -123.75 -174.75 -125.0 -174.8 -133.75 -174.75 -137.35 -174.8 -137.75 -174.8 -138.15 -174.85 -138.2 -174.85 -138.45 -174.85 -143.75 -175.25 -147.15 -175.5 Q-158.65 -175.65 -158.75 -175.75 L-159.3 -175.75 -160.25 -175.75 -167.45 -176.6 -169.05 -176.8 -171.9 -177.0 -171.95 -177.1 -174.35 -177.25 -178.65 -177.45 -179.85 -177.5 -182.65 -177.5 -182.7 -177.5 -183.7 -177.55 -184.5 -177.5 -185.0 -177.6 -185.45 -177.65 -192.25 -177.75 -196.0 -178.25 -197.65 -178.4 -197.9 -178.65 -198.0 -178.65 -210.65 -180.4 -210.75 -180.4 -215.5 -180.65 -219.0 -181.15 -221.75 -181.4 -223.75 -181.65 Q-229.0 -182.45 -231.85 -183.25 L-233.95 -183.9 -234.25 -184.0 Q-243.9 -185.05 -250.35 -186.55 L-250.75 -186.5 -265.75 -189.3 -267.75 -189.55 Q-277.15 -191.45 -282.3 -193.05 -286.4 -194.3 -289.5 -195.9 L-295.3 -197.6 Q-300.75 -199.45 -301.75 -201.0 L-303.15 -201.4 -303.5 -202.25 Q-308.65 -204.05 -310.0 -208.05 L-311.0 -211.05 Q-311.15 -212.0 -311.75 -212.8 L-312.3 -213.9 Q-312.3 -214.5 -311.5 -215.55 -310.9 -216.45 -310.4 -216.05 L-310.3 -216.15 -310.55 -216.15 Q-309.65 -217.7 -306.6 -220.45 L-301.75 -224.75 Q-301.15 -225.3 -298.5 -226.1 L-294.5 -227.4 -291.1 -229.0 Q-289.45 -229.75 -288.45 -229.7 -281.8 -232.4 -277.15 -233.5 -278.0 -232.8 -282.75 -231.25 -287.3 -229.8 -288.25 -228.75 -290.85 -227.55 -295.0 -225.9 L-300.3 -223.0 Q-304.6 -220.8 -306.75 -216.7 -308.4 -213.5 -308.4 -210.05 -308.4 -208.3 -305.7 -205.85 -303.3 -203.65 -300.65 -202.5 -297.75 -201.25 -294.25 -199.05 -292.35 -197.9 -289.05 -196.85 L-285.7 -195.95 -284.1 -195.8 -280.35 -195.0 Q-278.0 -193.7 -276.05 -193.15 L-269.2 -191.45 -260.9 -189.75 -253.85 -188.25 Q-249.9 -187.25 -246.55 -186.75 L-228.6 -184.0 -227.65 -183.95 -226.4 -183.75 -224.0 -183.25 -220.9 -183.0 -218.45 -182.4 -216.15 -181.75 -214.65 -181.8 -204.75 -181.5 -201.35 -181.0 -199.55 -181.0 -193.65 -179.8 -192.45 -179.75 -191.15 -179.55 -188.6 -179.35 -187.35 -179.15 -187.3 -179.15 -184.65 -178.75 -178.8 -178.4 -178.5 -178.65 -177.0 -178.5 -172.65 -178.45 -168.15 -178.25 -164.65 -178.0 Q-160.2 -177.05 -152.5 -176.4 L-149.4 -176.3 -148.4 -176.25 -147.05 -176.25 -140.75 -176.05 -138.15 -176.15 -137.75 -176.4 -136.3 -176.2 -135.0 -176.25 -133.35 -176.1 -131.9 -175.8 -124.25 -176.3 -121.0 -176.2 -110.5 -176.75 -105.55 -176.5 -105.15 -176.0 -102.0 -175.4 -98.25 -174.95 -88.5 -175.0 -76.0 -175.0 -72.95 -174.8 -69.5 -174.65 -62.0 -174.55 -55.3 -174.85 -49.1 -175.0 -41.75 -174.9 -41.25 -175.0 -30.3 -174.9 -1.75 -177.3 -1.75 -177.5 1.0 -177.25 6.25 -177.0 8.0 -177.0 8.25 -177.15 13.75 -177.4 15.75 -177.65 22.55 -178.6 23.5 -178.75 24.35 -178.75 Q28.4 -178.75 33.1 -179.9 L38.35 -180.0 38.5 -179.75 Q49.25 -179.8 49.5 -180.0 L50.9 -179.95 51.15 -180.0 Q55.8 -180.1 59.4 -181.15 L65.1 -181.85 Q66.75 -182.3 68.0 -183.0 L70.9 -183.8 73.5 -184.45 78.85 -185.35 Q80.2 -184.75 83.0 -184.75 L86.6 -185.0 90.9 -185.45 93.25 -185.55 102.25 -186.9 102.35 -187.0 105.4 -187.15 105.4 -187.5 113.7 -189.45 121.5 -191.4 Q123.7 -191.4 130.45 -193.3 L137.3 -195.05 Q138.9 -195.8 140.0 -196.5 L142.25 -197.3 Q144.55 -198.05 147.9 -199.65 L153.0 -202.15 155.3 -203.25 Q156.65 -203.95 157.75 -204.8 L160.45 -207.45 160.3 -207.5 160.25 -208.0 161.35 -209.25 Q162.5 -210.3 162.6 -211.55 L163.15 -213.35 163.65 -215.15 Q163.65 -215.8 161.25 -217.95 L158.5 -220.4 Q157.65 -221.6 156.0 -222.7 L154.55 -223.0 151.9 -223.75 149.35 -225.05 146.25 -226.2 Q144.95 -226.7 144.15 -227.2 L143.05 -227.65 141.5 -228.25 135.15 -230.85 135.6 -230.8 133.1 -231.65 133.1 -232.0 140.75 -229.25 Q146.35 -228.15 148.05 -226.3 L152.25 -225.0 153.15 -224.7 154.1 -224.5 154.7 -224.05 155.65 -223.5 156.5 -223.25 156.75 -223.25 157.25 -223.0 Q158.45 -222.55 159.45 -221.8 L161.85 -219.65 164.7 -217.95 Q167.0 -216.45 167.0 -215.8 167.0 -214.75 166.3 -213.75 M55.3 -254.9 L67.05 -251.4 70.75 -250.25 70.0 -249.65 68.7 -249.75 Q68.35 -249.55 66.85 -249.3 66.5 -244.85 61.15 -242.3 55.5 -239.55 41.5 -237.55 L24.35 -233.05 Q9.6 -229.05 5.25 -229.05 L2.0 -229.25 -0.5 -229.65 -7.5 -229.4 -8.4 -229.55 -8.6 -229.7 -15.85 -228.75 -18.35 -228.75 -39.25 -226.9 -47.05 -225.9 -58.5 -226.4 -61.15 -225.9 -64.5 -225.9 -73.5 -226.3 -83.55 -227.05 -111.1 -228.3 -115.05 -228.95 -119.65 -228.55 -123.3 -228.95 -123.3 -228.8 -124.6 -229.1 -129.95 -229.85 -139.2 -231.3 -144.0 -231.4 -150.45 -232.55 Q-159.95 -233.75 -164.25 -232.5 -167.75 -233.4 -170.7 -234.8 -178.85 -238.65 -185.9 -239.65 -191.75 -240.5 -199.15 -244.55 -206.55 -248.6 -206.55 -251.1 -206.55 -251.9 -206.1 -252.5 L-205.3 -253.55 -207.15 -253.55 -207.3 -254.35 -207.2 -254.75 -197.7 -257.5 -191.55 -259.45 -191.05 -259.3 Q-192.55 -257.65 -196.6 -255.95 L-199.65 -254.5 -200.15 -253.95 -200.7 -253.1 Q-201.05 -252.5 -201.05 -251.9 -201.05 -251.15 -200.7 -250.45 -199.1 -248.45 -193.65 -246.35 -189.3 -244.65 -178.8 -241.9 L-178.55 -241.8 -174.3 -241.05 -174.0 -240.6 -173.9 -240.65 -169.2 -239.2 Q-167.95 -239.75 -165.9 -239.2 -158.5 -237.2 -153.65 -236.8 L-148.6 -236.25 -142.9 -235.9 -140.1 -235.0 -136.45 -235.2 Q-132.2 -235.1 -128.65 -233.9 L-118.75 -232.75 -106.9 -231.55 -103.3 -231.15 -102.35 -231.1 -99.75 -230.95 -98.9 -231.3 -92.15 -231.3 Q-87.7 -229.15 -73.15 -229.15 -62.45 -229.15 -56.7 -230.25 -55.55 -229.5 -52.7 -229.1 L-49.6 -229.25 -38.1 -229.95 -29.0 -230.4 Q-29.65 -230.55 -29.65 -230.65 L-20.4 -231.4 -20.4 -231.65 -18.9 -231.6 -16.2 -232.1 -11.4 -232.3 -0.3 -232.65 1.0 -232.8 11.8 -233.95 13.0 -235.05 Q26.1 -236.3 43.3 -240.55 L51.35 -242.7 55.45 -245.15 61.6 -249.0 61.3 -250.65 61.2 -251.7 60.65 -252.0 57.75 -253.05 57.2 -253.55 Q55.5 -254.25 55.25 -254.9 L55.3 -254.9 M71.5 -200.65 L67.15 -200.4 54.65 -199.05 42.85 -197.15 38.2 -195.4 Q33.9 -193.9 30.5 -193.9 L23.25 -194.0 14.2 -193.15 3.5 -192.15 Q0.55 -191.25 -4.4 -190.85 L-11.25 -190.15 -19.25 -190.35 -19.25 -190.3 -20.5 -189.9 -26.55 -191.15 -29.2 -191.3 -32.05 -191.65 -46.05 -192.3 -63.15 -191.25 -69.5 -190.75 -79.95 -189.75 -92.25 -188.9 -97.5 -189.15 -102.0 -189.55 -103.9 -189.7 -106.0 -190.05 -107.4 -190.2 -108.3 -190.35 -108.3 -190.3 -112.5 -190.3 -117.15 -190.65 -119.55 -191.15 -121.45 -191.3 -123.55 -191.65 -127.8 -191.9 -128.25 -192.3 -135.55 -192.8 -138.45 -192.95 -141.55 -193.3 -143.2 -193.45 -145.05 -193.8 -149.85 -194.0 -152.95 -194.15 -152.8 -194.05 Q-152.75 -193.9 -152.85 -193.8 L-153.8 -193.55 -157.55 -193.85 -160.55 -194.3 -163.15 -194.45 -165.9 -194.8 -167.05 -194.95 -168.4 -195.3 -170.4 -195.45 -172.55 -195.8 Q-188.8 -195.8 -189.05 -196.05 -193.1 -195.5 -195.75 -196.5 -197.45 -197.15 -198.35 -198.3 L-215.1 -201.25 -232.4 -204.55 -234.05 -206.15 -235.45 -206.3 -237.05 -206.65 Q-250.75 -207.75 -261.85 -211.65 -273.15 -215.65 -273.15 -219.65 L-272.2 -221.55 Q-271.3 -223.1 -271.3 -223.8 L-271.95 -224.9 Q-272.65 -225.65 -272.65 -226.05 -272.65 -226.85 -272.15 -227.5 L-271.4 -228.3 -272.3 -228.2 Q-272.55 -228.25 -272.55 -229.0 -272.55 -231.0 -267.0 -234.25 L-263.55 -236.15 -263.15 -236.5 -260.5 -237.6 -260.35 -237.65 -260.25 -237.65 -261.15 -237.0 -261.65 -236.4 -262.7 -235.7 -264.05 -234.8 Q-265.55 -233.25 -266.5 -231.15 -268.05 -227.9 -268.05 -224.35 -268.05 -220.2 -261.55 -216.65 -255.5 -213.3 -245.55 -211.4 L-236.6 -209.0 Q-228.9 -206.8 -224.4 -205.9 L-215.25 -204.35 Q-209.75 -203.3 -207.65 -202.05 L-207.7 -201.95 -200.45 -200.25 -192.9 -200.65 -184.25 -199.6 -177.15 -198.55 -176.65 -198.15 -163.75 -197.4 -159.3 -196.05 Q-155.95 -195.0 -147.45 -195.15 L-138.8 -194.65 -131.7 -194.5 -124.3 -194.15 -117.8 -193.65 -113.3 -193.3 -93.4 -193.15 -93.05 -193.05 -80.4 -193.15 -76.25 -193.05 -71.8 -192.8 Q-65.0 -193.0 -62.1 -193.75 L-45.5 -194.9 -45.5 -195.15 -31.35 -194.5 -17.8 -193.65 -6.6 -194.3 7.0 -195.15 8.05 -194.85 15.0 -194.95 15.0 -195.05 17.2 -195.05 17.5 -195.05 18.4 -195.3 19.6 -195.05 Q21.0 -195.9 29.0 -197.15 29.7 -197.35 31.05 -198.4 34.0 -199.45 43.5 -199.9 60.5 -200.75 67.8 -201.95 72.15 -202.6 78.0 -204.15 92.15 -207.15 97.0 -208.7 105.0 -211.25 105.0 -214.15 117.3 -217.25 121.45 -219.4 126.35 -221.95 126.35 -226.15 126.35 -229.05 122.45 -231.7 L120.4 -232.8 119.1 -233.6 113.2 -236.5 118.05 -235.15 121.05 -234.05 Q123.3 -233.15 127.1 -231.15 129.25 -230.1 131.25 -228.3 133.5 -226.35 133.5 -225.15 133.5 -224.7 132.3 -222.55 L130.5 -219.55 Q129.7 -218.0 116.75 -215.8 L116.9 -215.9 Q113.6 -215.05 111.2 -213.75 109.4 -212.8 105.3 -209.45 98.0 -203.55 83.5 -202.15 L78.5 -201.65 Q72.0 -201.15 71.5 -200.65 M86.0 -178.65 L87.05 -178.7 88.25 -178.9 89.75 -179.0 89.75 -179.15 90.35 -178.9 90.1 -178.65 88.0 -178.25 86.0 -178.0 80.85 -177.0 73.0 -176.75 59.6 -175.5 50.25 -174.3 49.6 -174.4 52.6 -175.4 60.5 -176.5 74.25 -177.8 83.15 -178.3 86.0 -178.65 M8.6 -194.05 L8.2 -194.05 8.05 -193.95 8.6 -194.05 M1.7 -171.1 L-2.25 -170.75 -8.45 -170.95 -16.55 -170.9 Q-16.45 -171.25 -14.0 -171.5 L-13.75 -171.75 -0.3 -171.75 5.0 -172.25 15.6 -172.25 20.25 -172.75 23.5 -172.8 24.5 -172.75 24.6 -172.65 15.0 -171.25 5.0 -171.05 4.6 -171.0 1.7 -171.1 M26.1 -172.9 Q30.65 -174.3 48.25 -174.25 47.85 -173.35 38.7 -173.1 L27.25 -172.8 26.1 -172.9 M-326.5 -210.0 Q-326.5 -211.7 -325.4 -213.4 -324.25 -215.2 -322.15 -216.5 L-318.75 -219.35 Q-316.5 -221.35 -314.25 -222.3 -311.7 -223.4 -309.3 -225.15 -307.5 -226.4 -304.5 -227.25 L-291.15 -231.25 -291.4 -230.9 Q-304.4 -226.55 -312.55 -222.4 -325.5 -215.75 -325.5 -210.0 L-325.0 -209.45 Q-324.5 -208.95 -324.5 -208.4 -324.5 -207.75 -323.9 -206.75 -322.8 -204.65 -321.3 -203.25 -319.2 -201.2 -311.05 -196.75 L-311.0 -196.65 Q-311.0 -196.55 -311.2 -196.55 L-307.25 -194.9 -306.7 -194.75 -307.05 -194.9 -307.0 -195.05 Q-304.35 -193.85 -297.9 -192.8 -291.75 -191.8 -290.4 -191.05 -285.45 -188.35 -274.8 -185.9 L-273.8 -185.65 -274.0 -185.55 Q-278.35 -186.15 -285.0 -188.1 L-292.5 -190.25 Q-295.35 -190.7 -296.55 -191.3 -298.0 -192.0 -299.3 -192.3 -302.6 -193.05 -304.35 -193.75 -305.25 -194.05 -306.55 -194.65 L-306.75 -194.55 Q-307.75 -194.55 -309.3 -195.25 L-311.8 -196.3 -312.1 -196.6 -312.15 -196.65 Q-313.95 -197.15 -317.6 -199.55 -320.95 -201.8 -322.5 -203.15 -323.2 -203.7 -324.0 -205.0 L-324.95 -205.75 -325.8 -206.55 Q-326.0 -207.15 -325.65 -208.5 -326.25 -208.7 -326.45 -209.2 L-326.5 -210.0 M-114.15 -276.4 L-112.7 -275.1 Q-111.2 -274.0 -110.4 -273.8 L-110.35 -273.65 -108.75 -272.95 Q-104.25 -271.25 -96.15 -270.55 L-94.7 -270.85 Q-92.95 -271.1 -91.15 -270.2 -87.25 -270.05 -82.65 -270.05 L-76.4 -269.8 -76.1 -269.75 -68.15 -270.3 -63.75 -270.05 -60.15 -269.65 -50.3 -269.85 -50.3 -269.9 -48.7 -270.35 -49.0 -270.65 -46.9 -271.05 -44.8 -271.0 -41.3 -271.35 -39.6 -271.45 -38.05 -272.15 -33.4 -273.65 -32.75 -274.15 -31.75 -275.45 -31.8 -276.8 -31.6 -277.0 -33.1 -277.45 -35.65 -278.3 Q-25.7 -277.1 -15.9 -275.1 -17.55 -274.85 -18.3 -274.3 -19.55 -272.6 -21.3 -271.8 L-31.95 -268.8 -35.45 -267.65 -37.55 -267.8 Q-43.15 -266.0 -49.7 -265.95 L-63.9 -266.05 -86.4 -265.9 -87.5 -266.2 -89.4 -266.05 -93.75 -266.55 -98.15 -267.05 Q-101.9 -267.05 -108.7 -269.05 L-114.5 -270.8 -116.05 -271.3 Q-119.85 -271.95 -121.2 -274.0 -122.3 -275.65 -124.9 -275.55 L-125.25 -275.7 -125.8 -276.15 -125.6 -276.4 -125.9 -276.4 -127.1 -276.65 -125.25 -276.95 Q-119.75 -278.65 -108.4 -279.9 -109.0 -279.65 -114.35 -278.55 L-114.45 -277.7 Q-114.5 -276.85 -114.15 -276.4 M-178.05 -173.55 L-173.5 -173.75 -170.2 -173.4 -169.55 -173.05 -161.15 -172.5 -160.9 -172.15 -170.25 -172.5 -172.25 -172.65 -182.25 -173.25 -185.85 -173.4 -189.0 -173.65 -192.25 -174.0 -196.3 -174.25 -197.55 -174.4 -197.5 -174.55 -196.05 -174.4 -188.65 -174.0 -178.3 -173.75 -178.05 -173.55 M-198.8 -174.5 L-198.75 -174.4 -199.15 -174.3 Q-199.95 -174.3 -202.5 -175.0 L-205.15 -175.65 -209.5 -175.4 -211.85 -175.75 -213.05 -176.25 -214.95 -176.55 -218.8 -176.9 -219.3 -177.0 -215.0 -177.25 -210.75 -176.75 -207.1 -177.0 -199.15 -174.65 -198.8 -174.5 M-194.9 -178.9 L-196.15 -179.1 -196.35 -179.1 -196.25 -179.05 -195.4 -178.9 -194.9 -178.9 M-221.65 -176.9 L-221.75 -176.8 -222.25 -176.75 -224.3 -177.05 -228.25 -177.65 -230.25 -177.9 -232.7 -178.4 -235.0 -178.8 -241.2 -179.9 -245.0 -180.55 -253.25 -181.3 -255.55 -181.75 -258.65 -182.25 -258.75 -182.4 -261.25 -182.65 -266.8 -183.8 Q-264.65 -184.05 -260.9 -183.0 -246.2 -182.65 -236.9 -179.55 L-234.65 -179.3 -231.15 -178.75 -229.75 -178.25 -227.75 -178.0 -224.65 -177.5 -224.3 -177.3 -224.0 -177.5 -221.65 -177.25 -221.65 -176.9 M-268.3 -184.4 L-269.2 -184.25 -273.3 -185.55 -269.05 -185.0 -268.3 -184.4 M-34.5 -169.8 L-41.75 -169.55 -44.75 -170.05 -50.1 -169.95 -53.25 -169.75 -57.75 -169.5 -59.25 -169.5 -59.65 -169.6 Q-60.05 -169.7 -60.05 -169.8 L-57.75 -170.15 -55.55 -170.2 -53.25 -170.4 -49.0 -170.55 -46.7 -170.7 -44.4 -170.55 -42.65 -170.4 -41.75 -170.55 -25.5 -170.9 -18.9 -170.75 -18.8 -170.65 -20.05 -170.4 -21.5 -170.4 -25.25 -170.15 -32.75 -170.05 -34.5 -169.8 M-64.0 -169.65 L-71.5 -169.4 -75.0 -169.55 -78.25 -169.8 Q-79.95 -169.7 -84.15 -169.75 L-90.9 -170.0 -92.25 -170.0 -92.55 -169.9 -92.0 -170.4 Q-89.45 -170.2 -80.25 -170.4 L-77.65 -170.3 -74.65 -170.05 -70.0 -170.25 -63.55 -170.15 -62.1 -169.95 -60.4 -169.75 -60.3 -169.65 -61.85 -169.55 -64.0 -169.65 M-85.05 -173.9 L-85.05 -173.85 -84.75 -173.9 -85.05 -173.9 M-114.5 -170.15 L-119.25 -170.3 -126.35 -170.05 -132.4 -170.4 -142.05 -170.9 -142.0 -171.05 -118.9 -170.8 -114.15 -170.5 -107.05 -170.35 -101.0 -170.25 -100.15 -170.2 -100.15 -170.25 -95.5 -170.15 -94.8 -169.9 -94.9 -169.8 -95.5 -169.75 -97.75 -169.75 -97.55 -169.65 -97.75 -169.55 -107.35 -169.25 -111.45 -169.6 -114.5 -170.15 M-141.2 -175.8 L-141.5 -175.8 -141.25 -175.8 -141.2 -175.8 M-138.8 -175.65 L-139.2 -175.65 -138.75 -175.6 -138.8 -175.65 M-132.2 -175.15 L-131.75 -175.15 -130.7 -175.1 -131.7 -175.2 -132.2 -175.15 M-151.05 -171.0 L-152.2 -171.25 -158.05 -171.5 -158.05 -171.75 -160.05 -172.0 -160.55 -172.15 -160.5 -172.3 -157.8 -171.9 -149.1 -171.9 -143.4 -171.5 -143.75 -171.15 Q-144.05 -171.0 -144.25 -171.0 L-147.05 -170.95 -149.6 -170.75 -151.05 -171.0" fill="#000000" fill-rule="evenodd" stroke="none"/>
  </g>
</svg>
