<?xml version="1.0" encoding="UTF-8" standalone="no"?>
<svg xmlns:ffdec="https://www.free-decompiler.com/flash" xmlns:xlink="http://www.w3.org/1999/xlink" ffdec:objectType="shape" height="126.05px" width="116.65px" xmlns="http://www.w3.org/2000/svg">
  <g transform="matrix(1.0, 0.0, 0.0, 1.0, 41.65, 132.4)">
    <path d="M12.8 -101.0 L12.8 -100.9 Q16.8 -76.8 16.8 -72.25 L16.55 -67.2 16.2 -66.6 15.55 -66.35 15.25 -66.35 Q14.85 -66.35 14.6 -66.6 L14.25 -67.25 13.75 -74.25 13.7 -74.2 13.8 -67.4 13.75 -64.95 13.55 -64.4 13.05 -64.05 12.55 -63.9 11.95 -63.9 11.75 -64.0 11.5 -62.45 11.4 -62.25 10.95 -61.8 Q10.65 -61.5 10.25 -61.5 L9.3 -61.5 Q8.9 -61.5 8.65 -61.75 L8.3 -62.4 8.05 -64.55 8.1 -65.2 8.55 -65.65 10.25 -66.1 10.7 -66.0 11.15 -65.75 9.7 -81.1 8.95 -88.25 9.0 -88.2 Q7.35 -97.75 3.2 -109.35 -1.95 -123.9 -7.65 -128.0 L-7.85 -128.2 -8.2 -128.6 -12.8 -128.55 -13.15 -128.3 Q-18.2 -126.5 -22.25 -122.5 L-22.25 -122.45 Q-25.9 -118.9 -26.85 -115.55 L-27.25 -115.05 -27.6 -114.85 -28.9 -111.4 -29.65 -109.25 -29.9 -108.65 Q-31.15 -106.0 -31.65 -101.95 -33.3 -95.75 -33.65 -91.1 L-33.75 -90.75 Q-34.05 -89.45 -34.75 -89.0 L-40.75 -89.0 Q-41.45 -89.85 -41.6 -91.3 L-41.65 -93.85 Q-41.65 -97.1 -40.2 -102.1 L-37.65 -110.5 Q-36.3 -115.55 -32.7 -120.85 -28.95 -126.25 -26.7 -126.0 L-26.75 -126.4 -26.5 -127.0 Q-23.5 -130.45 -20.65 -131.55 -15.9 -133.55 -4.8 -130.8 L-1.25 -130.2 -0.7 -129.95 Q5.05 -123.9 8.5 -115.35 10.25 -110.95 12.8 -101.0 M22.8 -102.85 L23.05 -103.45 Q24.55 -105.35 26.05 -105.25 L26.65 -105.05 27.0 -104.55 27.2 -103.95 27.25 -103.4 27.05 -102.5 26.85 -102.1 26.5 -101.85 25.4 -101.3 24.8 -101.25 24.15 -101.45 24.1 -101.5 Q23.2 -101.9 23.0 -102.25 L22.8 -102.85 M73.35 -95.9 L73.2 -95.85 71.25 -95.6 70.8 -95.7 70.4 -96.05 Q70.0 -96.65 70.0 -97.75 L70.15 -98.25 70.55 -98.6 73.9 -98.85 Q74.3 -98.8 74.6 -98.4 L74.85 -98.05 75.0 -97.5 74.85 -96.95 Q74.5 -96.3 73.35 -95.9 M36.55 -75.45 L37.1 -75.4 37.6 -75.05 Q38.2 -74.55 37.45 -72.3 L37.15 -71.8 36.6 -71.6 35.95 -71.5 35.7 -71.4 35.15 -71.45 Q34.3 -71.4 34.3 -73.25 34.3 -74.75 35.3 -75.15 L35.75 -75.3 36.55 -75.45 M2.5 -50.5 L3.75 -50.5 4.2 -50.4 4.55 -50.1 4.85 -49.7 5.05 -49.3 5.05 -48.85 4.05 -47.35 3.7 -47.1 3.25 -47.0 2.7 -47.0 Q2.45 -46.65 2.05 -46.75 1.45 -46.65 1.05 -47.25 L0.85 -47.75 0.8 -48.55 Q0.8 -50.2 2.3 -50.45 L2.5 -50.5 M24.6 -53.45 L24.5 -53.8 Q24.5 -54.5 25.05 -55.1 25.7 -55.8 26.5 -55.5 27.65 -54.7 27.85 -53.7 L28.05 -53.75 28.25 -53.7 28.65 -53.55 Q32.6 -50.7 33.75 -44.65 L33.6 -43.95 33.05 -43.55 32.55 -43.4 32.0 -43.35 31.55 -43.65 28.95 -47.85 27.1 -51.2 27.05 -51.3 26.6 -51.25 25.95 -51.3 25.75 -51.3 25.7 -51.35 Q24.95 -51.5 24.7 -52.05 L24.6 -53.15 24.6 -53.45 M30.05 -30.6 L30.6 -30.4 31.0 -29.95 Q31.55 -28.65 31.55 -25.85 L31.5 -22.8 31.2 -22.15 31.15 -22.1 30.55 -21.4 29.85 -21.25 Q29.4 -21.35 29.2 -21.65 28.3 -22.85 28.3 -25.65 28.3 -29.9 29.5 -30.4 L30.05 -30.6 M3.25 -36.35 L3.55 -35.7 3.4 -35.0 2.65 -34.1 2.65 -34.05 Q1.85 -33.2 0.8 -32.9 L0.35 -32.85 -0.35 -32.95 -0.45 -32.95 Q-1.7 -33.3 -1.9 -33.75 L-2.1 -34.2 -2.0 -34.7 Q-1.8 -35.6 -0.05 -36.15 L-0.1 -36.15 2.55 -36.6 3.25 -36.35 M2.6 -26.7 Q3.3 -26.9 3.75 -26.2 L4.05 -24.85 Q4.05 -23.4 3.3 -22.95 L3.2 -22.9 2.65 -22.55 1.9 -22.35 1.25 -22.3 1.05 -22.3 Q-0.2 -22.0 -0.2 -24.05 -0.2 -25.3 0.35 -25.85 L0.4 -25.9 Q0.9 -26.5 2.2 -26.6 L2.6 -26.7 M18.05 -33.75 L18.65 -33.55 19.0 -33.0 20.05 -28.4 Q20.05 -26.15 18.75 -22.65 L18.5 -22.25 18.1 -22.0 17.55 -21.85 16.9 -21.9 16.45 -22.25 16.25 -22.85 16.5 -27.65 16.55 -32.65 16.65 -33.2 17.05 -33.6 17.55 -33.75 18.05 -33.75 M38.05 -11.0 L37.75 -10.4 35.35 -8.5 35.35 -8.45 32.25 -6.45 31.5 -6.35 30.9 -6.8 Q30.7 -7.15 30.8 -7.55 31.05 -9.1 32.95 -10.85 L32.95 -10.8 Q35.05 -12.85 36.9 -12.5 L37.55 -12.1 37.85 -11.7 38.05 -11.0 M50.2 -26.25 L50.2 -26.3 50.15 -26.4 Q50.0 -26.75 50.1 -27.15 50.4 -28.5 52.25 -28.5 L52.75 -28.35 53.1 -28.05 54.1 -26.55 54.25 -26.05 54.15 -25.55 Q53.65 -24.5 52.85 -24.3 L52.4 -24.25 51.95 -24.4 Q50.3 -25.55 50.3 -25.75 L50.2 -26.25 M-26.05 -125.4 L-26.5 -125.65 -26.5 -125.5 Q-26.5 -125.15 -28.35 -122.0 L-30.75 -118.0 Q-29.9 -117.85 -29.75 -117.4 L-28.75 -118.25 -26.35 -121.65 -26.3 -121.75 Q-25.0 -123.9 -23.8 -124.65 L-23.8 -124.7 -17.9 -128.8 Q-20.75 -128.45 -21.8 -127.9 L-21.85 -127.9 -23.0 -126.9 -23.05 -126.9 Q-23.95 -125.95 -25.4 -125.4 L-26.05 -125.4 M-19.55 -80.35 L-20.55 -79.25 -20.9 -79.05 -21.5 -78.85 -21.6 -78.8 -23.25 -78.6 -23.7 -78.7 -24.1 -79.05 -24.35 -79.45 -24.5 -80.15 -24.45 -80.25 -24.5 -80.45 -24.35 -81.0 -23.95 -81.35 -21.95 -82.15 -21.9 -82.15 -21.85 -82.15 -21.9 -82.15 -20.9 -82.45 -20.65 -82.5 -19.85 -82.6 -19.25 -82.4 -18.9 -81.9 -18.9 -81.3 Q-19.0 -80.85 -19.55 -80.35 M-12.6 -45.55 Q-12.3 -45.5 -12.1 -45.25 L-11.85 -44.75 -11.75 -44.2 Q-11.7 -43.95 -11.8 -43.65 L-13.8 -38.65 -14.05 -38.25 Q-14.25 -38.1 -14.45 -38.05 L-14.95 -37.9 -15.5 -37.85 -15.95 -38.15 -16.2 -38.6 -16.45 -39.75 -16.35 -40.45 -15.6 -42.7 -15.55 -42.75 Q-14.65 -45.15 -13.15 -45.55 L-12.6 -45.55" fill="#ffff00" fill-opacity="0.5019608" fill-rule="evenodd" stroke="none"/>
    <path d="M11.8 -100.75 Q15.8 -76.75 15.8 -72.25 L15.55 -67.35 15.25 -67.35 13.95 -82.45 Q13.7 -78.0 12.7 -74.35 L12.8 -67.4 12.75 -65.0 12.25 -64.85 10.7 -81.2 9.95 -88.4 Q8.3 -98.0 4.15 -109.7 -1.15 -124.65 -7.1 -128.85 L-7.85 -129.6 -13.5 -129.25 Q-18.75 -127.35 -22.95 -123.2 -26.85 -119.4 -27.85 -115.85 L-28.25 -115.85 -26.4 -119.45 Q-33.8 -107.5 -35.4 -90.35 L-35.5 -90.35 -40.4 -90.05 -40.6 -92.25 Q-40.6 -99.5 -37.05 -109.4 -34.75 -115.85 -32.0 -119.95 L-31.3 -120.95 Q-29.65 -123.2 -27.85 -124.6 L-30.55 -121.0 -31.45 -119.05 -32.75 -116.75 -32.25 -116.7 -31.35 -116.75 Q-31.2 -116.35 -31.4 -115.4 L-31.5 -114.7 -30.35 -116.1 Q-30.6 -115.55 -31.6 -113.95 L-31.6 -113.75 -31.5 -113.5 -30.2 -115.05 -28.35 -117.1 -28.65 -116.5 -25.5 -121.15 Q-24.3 -123.15 -23.25 -123.85 -19.7 -126.15 -15.7 -129.25 L-12.9 -130.2 Q-20.35 -129.85 -22.3 -128.8 L-23.75 -127.6 Q-24.5 -126.8 -25.75 -126.35 -22.95 -129.6 -20.3 -130.65 -15.7 -132.5 -4.95 -129.8 L-1.45 -129.25 Q4.2 -123.35 7.55 -115.0 9.3 -110.6 11.8 -100.75 M26.05 -104.25 L26.25 -103.65 26.05 -102.75 25.0 -102.25 24.5 -102.4 Q23.95 -102.65 23.8 -102.85 24.95 -104.25 26.05 -104.25 M74.0 -97.5 Q73.75 -97.1 73.0 -96.85 L71.25 -96.6 Q71.0 -97.0 71.0 -97.75 L73.75 -97.85 74.0 -97.5 M36.75 -74.5 Q37.0 -74.15 36.5 -72.6 L35.55 -72.5 35.45 -72.4 Q35.3 -72.45 35.3 -73.25 35.3 -74.05 35.75 -74.3 L36.75 -74.5 M10.6 -64.9 L10.75 -64.0 10.6 -62.9 10.25 -62.5 9.3 -62.5 9.0 -64.75 10.25 -65.1 10.6 -64.9 M26.25 -54.1 L26.65 -53.8 27.05 -53.6 27.0 -53.05 27.0 -53.0 26.8 -52.45 26.5 -52.0 25.7 -52.1 Q25.5 -52.2 25.5 -53.05 L25.55 -54.0 26.25 -54.1 M28.05 -52.75 Q31.7 -50.1 32.75 -44.5 L32.25 -44.35 29.8 -48.4 Q28.1 -51.2 27.55 -52.6 L28.05 -52.75 M30.05 -29.6 Q30.55 -28.4 30.55 -25.85 L30.5 -22.85 30.3 -22.65 30.0 -22.25 Q29.3 -23.25 29.3 -25.65 29.3 -29.1 30.05 -29.6 M1.8 -48.55 Q1.8 -49.35 2.5 -49.5 L3.75 -49.5 4.05 -49.1 3.25 -48.0 2.05 -48.0 1.95 -47.8 Q1.8 -47.75 1.8 -48.55 M2.55 -35.6 L1.9 -34.75 Q1.3 -34.1 0.5 -33.85 L-0.2 -33.95 -1.1 -34.35 Q-0.9 -34.85 0.25 -35.2 L2.55 -35.6 M2.55 -25.6 Q3.05 -26.1 3.05 -24.85 3.05 -24.05 2.7 -23.8 L2.0 -23.35 1.05 -23.3 Q0.8 -23.3 0.8 -24.05 0.8 -24.85 1.1 -25.2 1.5 -25.6 2.55 -25.6 M17.55 -32.75 L18.05 -32.75 Q19.05 -29.4 19.05 -28.4 19.05 -26.3 17.8 -23.0 L17.25 -22.85 17.5 -27.6 17.55 -32.75 M37.05 -11.1 L34.75 -9.3 Q32.65 -7.85 31.75 -7.35 32.0 -8.65 33.6 -10.1 35.3 -11.7 36.75 -11.5 L37.05 -11.1 M53.25 -26.0 L52.5 -25.25 51.2 -26.2 51.05 -26.85 Q51.25 -27.5 52.25 -27.5 L53.25 -26.0 M-21.65 -81.2 L-21.5 -81.25 -20.75 -81.5 -20.7 -81.45 -19.85 -81.6 -20.3 -81.0 -21.25 -80.0 -21.85 -79.8 -23.25 -79.6 -23.5 -80.0 -23.3 -80.15 -23.5 -80.5 -21.65 -81.2 M-12.75 -44.05 L-14.75 -39.0 -15.25 -38.85 -15.5 -40.0 -14.65 -42.4 Q-13.95 -44.25 -12.85 -44.6 L-12.75 -44.05" fill="#ffffff" fill-rule="evenodd" stroke="none"/>
  </g>
</svg>
