<?xml version="1.0" encoding="UTF-8" standalone="no"?>
<svg xmlns:ffdec="https://www.free-decompiler.com/flash" xmlns:xlink="http://www.w3.org/1999/xlink" ffdec:objectType="shape" height="107.35px" width="83.55px" xmlns="http://www.w3.org/2000/svg">
  <g transform="matrix(1.0, 0.0, 0.0, 1.0, 21.75, 96.3)">
    <path d="M61.65 -94.45 Q60.15 -91.35 56.5 -86.7 L56.45 -86.65 56.35 -86.5 49.95 -78.8 49.85 -78.7 37.5 -63.35 37.4 -63.25 37.35 -63.2 Q37.15 -63.05 36.95 -63.0 L36.8 -62.9 35.9 -63.05 35.9 -63.0 36.0 -62.5 36.0 -62.45 Q36.1 -61.75 34.5 -59.8 L34.45 -59.75 33.8 -59.3 33.75 -59.3 33.7 -59.0 33.65 -58.9 33.6 -58.75 31.2 -55.2 31.15 -55.2 28.3 -51.55 28.15 -51.35 27.75 -51.15 27.7 -51.1 27.4 -51.05 27.25 -51.05 27.35 -50.5 27.35 -50.15 27.3 -49.65 27.3 -49.6 27.1 -49.35 26.75 -49.05 26.7 -49.05 25.35 -48.65 24.8 -48.8 24.75 -48.85 24.25 -49.35 24.2 -49.45 24.1 -49.9 24.1 -49.95 24.15 -50.65 24.15 -50.7 Q24.15 -51.35 24.6 -51.6 L25.4 -51.9 25.7 -51.9 25.6 -52.35 25.85 -53.15 Q30.4 -59.55 31.85 -60.5 L32.05 -60.65 32.0 -60.8 32.0 -60.9 Q32.05 -61.5 32.75 -62.35 33.65 -63.85 34.7 -63.75 L34.75 -63.75 35.25 -63.7 35.2 -63.8 35.1 -64.3 35.35 -64.95 Q40.55 -72.4 47.0 -80.65 53.75 -89.3 59.55 -95.75 L60.2 -96.25 Q60.65 -96.45 61.25 -96.05 L61.75 -95.3 61.75 -95.35 Q61.9 -94.95 61.65 -94.45 M18.75 -76.05 Q19.25 -76.05 19.6 -75.7 L20.0 -75.15 20.0 -75.05 20.25 -72.7 19.85 -69.05 19.55 -68.45 19.35 -68.25 19.15 -68.1 19.1 -68.05 18.85 -67.95 18.15 -67.9 18.0 -67.95 Q17.45 -68.1 17.4 -68.45 17.1 -68.75 17.1 -69.05 L17.1 -69.1 17.0 -70.45 17.0 -70.55 17.25 -74.8 Q17.25 -75.5 17.7 -75.75 L18.5 -76.05 18.75 -76.05 M18.55 -67.65 Q19.05 -67.7 19.45 -67.25 19.85 -66.95 19.85 -65.9 L19.6 -63.75 19.55 -63.55 19.2 -63.1 19.15 -63.05 18.65 -62.7 17.8 -62.75 17.75 -62.8 17.7 -62.8 17.4 -63.05 17.3 -63.1 17.3 -63.15 Q16.75 -63.75 16.75 -65.15 16.75 -66.95 17.55 -67.25 18.05 -67.75 18.5 -67.65 L18.55 -67.65 M9.75 -59.75 Q10.35 -60.85 11.25 -60.5 12.2 -60.25 12.75 -59.2 L13.05 -58.45 13.9 -56.3 14.35 -52.25 14.3 -51.9 14.4 -50.9 14.4 -50.05 Q14.25 -49.55 13.75 -49.25 L12.25 -49.25 Q10.3 -51.05 10.25 -53.6 L10.2 -53.75 Q9.25 -55.9 9.25 -57.8 9.25 -58.85 9.75 -59.75 M0.2 -55.75 L0.3 -55.7 0.35 -55.65 3.75 -52.2 3.8 -52.1 4.1 -51.6 4.15 -51.05 5.1 -50.55 5.3 -50.4 5.55 -50.1 5.6 -50.05 5.65 -49.65 5.65 -49.35 5.65 -49.2 5.65 -49.1 Q5.35 -48.3 4.8 -48.1 L4.2 -48.0 4.15 -48.0 Q2.5 -48.2 2.5 -49.75 L2.5 -49.8 2.0 -50.05 -0.1 -51.75 -0.4 -51.95 Q-2.15 -53.65 -2.05 -54.75 L-2.05 -54.8 -2.0 -55.15 -2.5 -55.0 Q-2.9 -55.0 -3.15 -55.2 L-3.3 -55.25 Q-6.35 -57.7 -10.95 -62.6 L-18.65 -70.9 Q-19.05 -71.25 -19.05 -71.75 -19.05 -72.25 -18.65 -72.65 -18.3 -73.0 -17.8 -73.0 L-17.65 -73.0 -16.9 -72.75 -16.75 -72.7 Q-6.15 -63.2 -1.6 -57.1 L-1.55 -57.05 -1.45 -56.95 -1.3 -56.2 -1.3 -55.9 -0.8 -56.0 -0.65 -56.0 -0.05 -55.9 0.15 -55.8 0.2 -55.75 M26.25 -69.0 L26.3 -69.0 Q26.95 -69.15 27.4 -68.45 L27.65 -67.4 Q27.8 -66.65 26.65 -64.75 L26.6 -64.75 26.45 -64.6 25.2 -62.8 25.15 -62.55 25.1 -62.5 23.6 -58.85 23.6 -58.9 23.45 -58.6 22.55 -55.95 23.15 -56.55 23.2 -56.6 23.6 -56.9 Q24.45 -57.4 25.1 -56.65 25.5 -56.45 25.5 -55.4 L25.5 -55.35 Q25.6 -54.4 23.75 -51.55 L23.7 -51.45 22.25 -49.45 22.65 -47.85 22.7 -47.75 Q23.7 -45.8 26.6 -44.1 L26.65 -44.05 Q27.1 -43.9 27.2 -43.4 L27.25 -42.85 27.25 -42.7 27.25 -42.6 26.9 -42.1 26.8 -42.0 26.65 -41.8 26.6 -41.8 26.5 -41.7 26.4 -41.6 26.1 -41.35 26.0 -40.1 26.35 -39.55 26.35 -39.5 26.45 -39.0 26.5 -37.6 26.5 -36.55 29.35 -35.4 Q32.6 -34.0 33.05 -33.15 L33.1 -33.05 Q33.35 -32.8 33.25 -32.35 33.4 -31.8 33.0 -31.45 32.75 -31.15 32.1 -31.0 L32.05 -31.0 31.95 -31.0 31.5 -31.0 31.0 -31.15 Q27.6 -32.6 25.8 -33.75 L25.2 -32.45 25.2 -32.35 24.1 -30.6 24.5 -29.75 Q24.75 -30.65 25.75 -30.6 L25.85 -30.6 26.65 -30.45 Q27.1 -30.45 27.4 -30.0 L27.65 -29.65 27.7 -29.6 27.85 -28.9 27.85 -28.55 28.05 -28.55 Q28.4 -28.65 28.75 -28.3 L31.8 -25.55 32.15 -24.9 32.25 -24.8 Q38.6 -20.3 46.45 -12.15 L46.5 -12.0 46.75 -11.25 46.75 -10.9 46.6 -10.2 46.55 -10.15 46.4 -10.0 46.35 -9.95 45.8 -9.65 45.7 -9.65 45.55 -9.65 Q45.15 -9.65 44.9 -9.9 41.65 -12.05 37.45 -16.25 L30.65 -22.6 30.25 -23.1 30.2 -23.2 30.2 -23.3 Q29.4 -23.45 28.2 -24.65 27.1 -25.8 26.75 -26.75 L26.7 -26.85 26.6 -27.25 26.5 -27.25 25.85 -27.25 32.05 -17.7 32.05 -17.6 32.25 -17.4 32.25 -17.35 32.4 -16.95 32.4 -16.9 32.4 -16.75 32.4 -16.5 32.4 -16.35 32.4 -16.3 Q32.25 -15.7 31.45 -15.25 L31.05 -15.15 30.75 -15.15 30.55 -15.2 30.5 -15.25 30.0 -15.5 30.0 -15.55 23.75 -21.6 22.5 -22.65 22.75 -21.9 22.75 -21.8 22.75 -21.65 22.75 -21.35 22.75 -21.2 22.75 -21.15 22.65 -20.8 22.65 -20.75 22.5 -20.55 22.4 -20.4 22.1 -20.0 22.05 -19.95 21.85 -19.75 21.65 -19.6 21.6 -19.55 20.8 -19.55 20.25 -19.85 Q19.05 -20.95 18.45 -23.4 L17.8 -25.75 17.15 -25.7 17.15 -25.25 17.0 -24.6 16.85 -24.45 16.85 -24.35 16.25 -23.9 15.9 -23.8 15.6 -23.8 Q15.5 -23.8 15.35 -23.9 L14.85 -24.25 14.75 -24.3 Q14.15 -25.2 13.7 -26.35 13.0 -25.2 12.35 -24.9 L12.3 -24.85 11.9 -24.75 11.4 -24.7 10.8 -24.85 Q10.1 -24.95 10.1 -26.35 10.05 -27.1 11.05 -29.0 L10.9 -29.15 Q10.3 -29.6 8.8 -31.45 L8.7 -31.65 Q7.6 -33.05 7.4 -34.05 L7.4 -34.0 7.3 -34.3 4.95 -33.5 1.85 -33.0 -0.35 -33.3 -0.55 -33.4 -0.85 -33.65 -0.95 -33.75 -1.0 -33.8 -1.25 -34.5 -1.25 -34.75 -1.0 -35.5 -0.2 -35.95 3.5 -36.75 Q5.55 -36.95 6.75 -36.75 L6.8 -36.75 6.9 -36.75 7.1 -36.65 Q7.15 -45.5 14.15 -47.75 L17.65 -54.8 Q22.85 -64.9 25.15 -68.1 L25.5 -68.6 Q25.8 -69.05 26.25 -69.0 M35.35 -41.95 L35.45 -41.85 35.5 -41.8 35.65 -41.35 35.75 -40.95 35.75 -40.9 35.75 -40.75 35.75 -40.55 35.75 -40.2 35.5 -39.4 Q35.45 -39.1 34.8 -38.9 L34.65 -38.8 33.85 -38.75 33.75 -38.75 33.3 -38.8 32.9 -38.95 32.8 -39.0 32.4 -39.3 Q32.0 -39.65 32.0 -40.15 L32.0 -40.55 32.15 -41.4 Q32.25 -41.9 32.65 -42.15 L33.35 -42.4 34.75 -42.25 35.35 -41.95 M25.85 -27.25 L25.75 -27.35 25.75 -27.25 25.85 -27.25 M0.5 -39.55 Q-1.05 -39.55 -1.3 -40.35 L-1.5 -40.85 -1.5 -40.9 -1.55 -41.45 -1.55 -41.55 Q-1.55 -42.75 -0.85 -43.1 L-0.8 -43.15 Q-0.2 -43.75 0.9 -43.35 L1.0 -43.3 2.35 -42.3 2.4 -42.2 2.55 -42.05 2.55 -42.0 2.6 -41.65 2.6 -41.4 2.6 -41.3 Q2.4 -39.55 0.5 -39.55 M4.25 -26.65 L4.95 -26.9 6.0 -26.75 6.05 -26.75 6.2 -26.75 6.65 -26.35 Q7.0 -26.1 7.0 -25.5 L6.95 -25.0 6.9 -24.9 6.9 -24.8 6.4 -24.05 6.35 -24.05 6.25 -23.95 5.6 -23.5 5.55 -23.5 5.0 -23.5 5.0 -23.45 5.1 -23.2 5.1 -23.1 5.1 -22.9 5.1 -22.7 5.0 -22.25 5.0 -22.15 4.5 -21.3 4.45 -21.25 4.0 -20.8 3.9 -20.75 3.7 -20.65 3.65 -20.65 3.3 -20.5 3.2 -20.5 3.1 -20.35 Q1.05 -16.85 -1.75 -14.05 -2.15 -13.65 -2.65 -13.65 L-2.65 -13.55 Q-2.55 -13.1 -2.75 -12.7 L-2.75 -12.55 Q-10.25 -0.85 -19.55 10.55 L-19.65 10.65 -19.7 10.7 -20.1 10.9 -20.25 11.0 -21.1 10.85 -21.25 10.8 -21.75 10.0 -21.6 9.15 -21.5 9.05 -21.5 9.0 Q-18.8 4.2 -13.8 -2.55 L-4.9 -13.95 -4.8 -14.1 -4.1 -14.5 -4.05 -14.5 -3.95 -14.5 -4.0 -14.6 -3.9 -15.3 Q-3.5 -16.6 -1.35 -18.9 L1.0 -21.75 1.7 -22.25 1.75 -22.25 Q1.8 -22.9 2.35 -23.45 L3.0 -24.0 3.75 -24.25 4.05 -24.25 4.0 -24.3 Q3.75 -24.55 3.75 -24.9 L3.75 -25.35 3.75 -26.0 Q3.8 -26.4 4.25 -26.65 M15.15 -12.85 L15.55 -12.5 15.6 -12.4 Q16.0 -11.75 16.0 -10.95 16.0 -9.95 15.55 -9.35 L15.15 -8.95 15.0 -8.9 14.5 -8.8 14.35 -8.8 13.8 -8.95 13.75 -9.0 13.25 -9.45 Q13.0 -9.8 13.0 -11.05 13.0 -12.0 13.35 -12.45 13.7 -13.15 14.6 -13.0 L15.0 -12.95 15.15 -12.9 15.15 -12.85 M4.5 -24.0 L4.35 -23.85 4.4 -23.85 4.5 -23.8 4.45 -23.8 4.6 -23.7 4.75 -23.6 4.9 -23.55 4.95 -23.55 4.5 -24.05 4.45 -24.05 4.5 -24.0 M15.75 -7.35 L16.0 -5.15 15.6 -0.4 15.3 0.3 15.1 0.5 14.9 0.65 14.85 0.7 14.65 0.75 14.6 0.8 14.3 0.85 14.0 0.85 13.8 0.8 13.75 0.75 13.25 0.5 13.25 0.45 12.85 -0.25 12.85 -0.3 12.75 -2.55 13.1 -7.1 13.1 -7.15 Q13.1 -7.7 13.65 -7.95 13.95 -8.25 14.35 -8.25 L14.5 -8.25 15.25 -8.0 15.75 -7.35" fill="#ffff00" fill-opacity="0.5019608" fill-rule="evenodd" stroke="none"/>
    <path d="M60.95 -94.75 Q59.45 -91.65 55.75 -87.0 L55.75 -86.95 49.25 -79.2 49.25 -79.15 36.9 -63.8 36.6 -63.65 36.25 -63.7 36.1 -63.8 35.9 -64.0 35.85 -64.3 35.95 -64.5 Q41.15 -71.95 47.6 -80.2 54.35 -88.85 60.15 -95.3 L60.45 -95.5 60.8 -95.4 61.0 -95.1 60.95 -94.75 M18.15 -75.15 L18.5 -75.3 18.75 -75.3 19.1 -75.15 19.25 -74.9 19.5 -72.7 19.1 -69.15 19.0 -68.95 18.8 -68.75 18.55 -68.65 18.25 -68.65 18.0 -68.8 17.85 -69.1 17.75 -70.5 17.75 -70.55 18.0 -74.8 18.15 -75.15 M19.1 -65.9 L18.85 -63.85 18.7 -63.65 18.6 -63.55 18.35 -63.4 18.1 -63.4 17.85 -63.6 Q17.5 -64.05 17.5 -65.15 17.5 -66.4 17.95 -66.65 18.55 -67.15 18.9 -66.65 L19.1 -65.9 M0.1 -52.45 Q-1.35 -53.85 -1.3 -54.75 L-1.15 -55.1 -0.8 -55.25 -0.65 -55.25 -0.45 -55.2 -0.25 -55.1 3.2 -51.6 3.35 -51.35 3.3 -51.0 3.2 -50.8 3.0 -50.6 2.75 -50.55 2.45 -50.65 0.15 -52.45 0.1 -52.45 M3.55 -50.2 Q3.9 -50.5 4.7 -49.9 L4.9 -49.65 4.9 -49.35 4.5 -48.8 4.2 -48.75 Q3.25 -48.85 3.25 -49.75 L3.35 -50.0 3.55 -50.2 M10.4 -59.1 L10.6 -59.4 10.95 -59.5 Q12.35 -59.4 13.1 -55.65 13.65 -53.1 13.65 -51.05 L13.4 -50.1 13.15 -49.9 12.85 -49.9 12.6 -50.1 Q12.05 -50.95 11.15 -54.35 10.25 -57.6 10.25 -58.5 L10.4 -59.1 M35.2 -62.7 L35.25 -62.45 Q35.25 -61.9 33.9 -60.25 L33.55 -60.05 Q33.35 -60.0 33.2 -60.15 L32.95 -60.35 32.8 -60.55 32.75 -60.8 33.35 -61.95 Q34.0 -63.0 34.7 -63.0 L35.0 -62.95 35.2 -62.7 M25.95 -65.15 L25.9 -65.15 24.45 -63.0 24.45 -62.95 22.85 -59.1 22.8 -59.1 Q21.85 -56.8 21.5 -54.95 L21.3 -52.55 21.5 -53.05 Q22.6 -55.2 23.65 -56.0 L23.7 -56.05 23.9 -56.2 Q24.3 -56.45 24.6 -56.05 L24.75 -55.35 Q24.8 -54.55 23.05 -51.9 L21.4 -49.65 Q21.55 -48.35 21.95 -47.45 23.05 -45.25 26.25 -43.4 L26.45 -43.2 26.5 -42.85 26.35 -42.6 26.0 -42.25 25.95 -42.2 25.4 -41.7 Q25.25 -41.4 25.25 -39.9 L25.65 -39.15 25.7 -38.95 25.75 -37.6 25.65 -36.0 29.05 -34.7 Q32.0 -33.45 32.35 -32.75 L32.4 -32.6 32.45 -32.25 Q32.65 -31.85 31.95 -31.75 L31.5 -31.75 31.3 -31.8 Q27.2 -33.55 25.4 -34.85 L24.5 -32.7 23.2 -30.75 Q23.9 -29.0 25.05 -27.0 L31.35 -17.25 31.4 -17.15 31.55 -17.0 31.65 -16.75 31.65 -16.5 31.05 -15.9 30.75 -15.9 30.5 -16.05 24.2 -22.15 20.8 -24.9 22.0 -21.65 22.0 -21.35 21.9 -21.0 21.8 -20.85 21.5 -20.45 21.3 -20.25 21.0 -20.25 20.75 -20.4 Q19.7 -21.4 19.1 -23.6 L18.4 -26.35 17.8 -26.5 16.3 -26.4 16.25 -26.15 16.4 -25.25 16.3 -24.95 16.15 -24.75 15.9 -24.55 15.6 -24.55 15.35 -24.75 Q14.4 -26.05 13.95 -28.0 L14.0 -27.95 13.85 -28.45 13.7 -28.05 Q12.75 -25.85 11.95 -25.55 L11.85 -25.5 11.4 -25.45 Q11.2 -25.45 11.05 -25.6 10.85 -25.65 10.85 -26.4 10.8 -27.1 12.0 -29.3 L11.4 -29.65 11.35 -29.7 Q10.85 -30.05 9.35 -31.9 L9.4 -31.9 Q8.3 -33.25 8.05 -34.25 7.85 -34.8 7.85 -36.55 7.85 -45.05 14.65 -47.15 L18.3 -54.45 Q23.55 -64.6 25.8 -67.75 L25.95 -68.0 Q26.1 -68.25 26.3 -68.2 26.6 -68.3 26.8 -67.95 L26.9 -67.3 Q26.95 -66.7 25.95 -65.15 M25.05 -51.0 L25.4 -51.15 26.45 -50.85 26.6 -50.5 26.6 -50.15 26.55 -49.85 26.35 -49.7 25.35 -49.4 25.1 -49.45 24.9 -49.65 24.85 -49.9 24.9 -50.65 25.05 -51.0 M27.15 -51.8 L26.75 -51.9 Q26.55 -51.95 26.45 -52.05 L26.35 -52.35 26.45 -52.7 Q30.85 -58.95 32.2 -59.9 L32.55 -60.0 32.85 -59.85 33.0 -59.55 32.95 -59.2 30.5 -55.65 27.65 -51.95 27.4 -51.8 27.15 -51.8 M34.55 -41.5 L34.8 -41.4 34.9 -41.15 35.0 -40.75 35.0 -40.55 34.95 -40.2 34.8 -39.75 34.45 -39.55 33.85 -39.5 33.8 -39.5 33.35 -39.55 Q33.25 -39.55 33.15 -39.65 L33.1 -39.65 32.9 -39.8 32.75 -40.15 32.75 -40.55 32.9 -41.25 33.05 -41.55 33.35 -41.65 34.55 -41.5 M26.5 -29.7 L26.75 -29.55 27.0 -29.2 27.1 -28.9 27.05 -28.6 27.0 -28.5 26.85 -28.15 26.5 -28.0 25.75 -28.0 25.6 -28.0 Q25.1 -28.0 25.1 -28.9 25.1 -29.8 25.75 -29.85 L25.85 -29.85 26.5 -29.7 M27.5 -27.55 L27.7 -27.7 27.85 -27.75 28.1 -27.8 28.3 -27.7 31.25 -25.0 31.4 -24.65 31.4 -24.5 31.35 -24.25 31.6 -24.3 31.8 -24.2 Q38.1 -19.7 45.85 -11.6 L46.0 -11.25 46.0 -10.9 45.9 -10.55 45.55 -10.4 Q45.35 -10.4 45.25 -10.5 42.1 -12.65 37.95 -16.75 33.05 -21.6 31.05 -23.25 L30.9 -23.4 30.85 -23.65 30.95 -24.0 30.5 -24.0 Q29.85 -23.95 28.7 -25.15 27.75 -26.15 27.4 -27.05 L27.35 -27.3 27.5 -27.55 M1.75 -41.8 L1.85 -41.65 1.85 -41.4 Q1.7 -40.3 0.5 -40.3 -0.45 -40.3 -0.65 -40.7 L-0.75 -40.95 -0.8 -41.5 -0.8 -41.55 Q-0.8 -42.25 -0.45 -42.5 L0.6 -42.6 Q1.25 -42.4 1.75 -41.8 M6.95 -35.75 L7.1 -35.5 7.05 -35.2 6.9 -34.95 4.7 -34.25 1.85 -33.75 -0.15 -34.0 -0.4 -34.2 -0.5 -34.5 -0.5 -34.75 -0.4 -35.05 -0.15 -35.2 3.55 -36.0 Q5.45 -36.2 6.6 -36.0 L6.85 -35.85 6.95 -35.75 M4.65 -26.05 L4.95 -26.15 5.85 -26.0 6.15 -25.8 6.25 -25.5 6.2 -25.2 5.7 -24.45 5.35 -24.25 5.0 -24.3 4.75 -24.45 4.6 -24.65 4.5 -24.9 4.5 -25.5 4.5 -25.8 4.65 -26.05 M3.75 -23.5 L4.05 -23.4 4.25 -23.15 4.35 -22.9 4.35 -22.7 4.3 -22.5 3.8 -21.65 3.55 -21.4 3.35 -21.35 3.05 -21.25 Q2.5 -21.1 2.5 -22.15 2.5 -22.55 2.85 -22.9 L3.45 -23.4 3.75 -23.5 M1.95 -21.5 L2.3 -21.4 2.5 -21.1 2.45 -20.75 Q0.45 -17.3 -2.3 -14.55 -2.45 -14.4 -2.65 -14.4 L-2.8 -14.4 -3.1 -14.5 -3.25 -14.75 -3.25 -15.05 Q-2.85 -16.2 -0.85 -18.4 L1.6 -21.3 1.95 -21.5 M14.75 -12.2 L14.9 -12.05 15.25 -10.95 Q15.25 -10.2 14.9 -9.75 L14.75 -9.6 14.5 -9.55 14.35 -9.55 14.1 -9.6 13.9 -9.8 Q13.75 -10.05 13.75 -11.05 13.75 -12.4 14.5 -12.25 L14.75 -12.2 M14.05 -7.35 L14.35 -7.5 14.5 -7.5 14.8 -7.4 15.0 -7.15 15.25 -5.15 14.85 -0.45 14.75 -0.2 14.55 0.0 14.3 0.1 14.0 0.1 13.75 -0.05 13.6 -0.3 13.5 -2.55 13.85 -7.05 14.05 -7.35 M-18.15 -71.4 L-18.3 -71.75 -18.15 -72.1 -17.8 -72.25 -17.65 -72.25 -17.3 -72.1 Q-6.7 -62.6 -2.15 -56.55 L-2.05 -56.2 Q-2.05 -56.0 -2.2 -55.9 -2.35 -55.75 -2.5 -55.75 L-2.85 -55.85 Q-5.9 -58.25 -10.45 -63.1 L-18.15 -71.4 M-3.95 -13.75 L-3.6 -13.65 -3.4 -13.35 -3.45 -12.95 Q-10.85 -1.3 -20.15 10.1 L-20.45 10.25 -20.8 10.2 -21.0 9.9 -20.95 9.5 Q-18.25 4.7 -13.2 -2.1 L-4.3 -13.55 -3.95 -13.75" fill="#ffffff" fill-rule="evenodd" stroke="none"/>
  </g>
</svg>
