<?xml version="1.0" encoding="UTF-8" standalone="no"?>
<svg xmlns:ffdec="https://www.free-decompiler.com/flash" xmlns:xlink="http://www.w3.org/1999/xlink" ffdec:objectType="shape" height="124.35px" width="107.4px" xmlns="http://www.w3.org/2000/svg">
  <g transform="matrix(1.0, 0.0, 0.0, 1.0, 36.15, 109.0)">
    <path d="M70.05 -108.85 L70.1 -108.85 Q71.25 -108.85 71.25 -107.35 71.4 -106.45 70.4 -105.45 L69.15 -104.4 69.15 -104.35 69.05 -104.3 69.0 -104.25 68.8 -104.15 68.4 -104.05 68.15 -104.05 68.05 -104.05 68.0 -104.05 67.6 -104.15 Q67.1 -104.35 66.85 -104.7 L66.6 -105.45 66.6 -105.5 Q66.65 -106.35 67.55 -107.55 68.5 -108.9 69.25 -108.95 L69.95 -108.95 70.05 -108.9 70.05 -108.85 M56.4 -86.0 Q56.4 -85.15 55.9 -84.4 55.25 -83.5 53.85 -83.25 L52.5 -83.25 Q51.8 -83.5 51.8 -84.05 51.8 -86.5 53.15 -87.45 L53.2 -87.45 Q54.8 -88.6 55.75 -87.7 56.4 -87.1 56.4 -86.0 M35.85 -84.35 Q37.0 -84.35 37.0 -82.85 37.2 -82.1 35.75 -80.4 L35.6 -80.25 35.5 -80.15 34.25 -78.95 34.2 -78.9 Q33.9 -78.55 33.5 -78.5 L33.55 -78.5 Q32.7 -78.35 32.3 -79.05 32.0 -79.4 32.0 -80.1 31.9 -80.95 33.0 -82.55 34.0 -84.15 34.75 -84.4 35.2 -84.7 35.75 -84.4 L35.85 -84.35 M4.5 -76.05 Q4.5 -76.55 4.8 -76.85 5.05 -77.3 5.75 -77.3 7.4 -77.55 8.35 -75.6 L8.35 -75.5 Q8.85 -74.45 8.85 -73.3 L8.85 -73.1 Q9.05 -72.15 7.9 -71.65 L7.85 -71.6 7.55 -71.55 7.35 -71.55 6.8 -71.7 Q6.3 -71.95 5.45 -73.55 4.45 -75.2 4.5 -75.7 L4.5 -76.05 M32.15 -69.0 L33.0 -69.15 33.05 -69.15 33.25 -69.1 33.4 -69.05 Q34.4 -69.1 34.4 -67.4 L34.25 -66.75 34.15 -66.65 33.7 -65.95 33.5 -65.7 33.15 -65.4 33.0 -65.35 32.5 -65.25 31.85 -65.25 Q31.45 -65.25 31.15 -65.55 30.6 -65.8 30.5 -66.8 30.25 -67.3 31.25 -68.3 L31.5 -68.45 32.15 -69.0 M38.8 -65.9 Q39.45 -65.45 39.65 -64.8 L39.65 -64.7 39.65 -64.55 39.65 -64.25 39.65 -64.1 39.65 -64.05 39.3 -63.5 39.25 -63.5 39.25 -63.45 Q39.2 -62.7 37.65 -62.5 L37.55 -62.5 37.05 -62.6 36.85 -62.7 36.45 -62.95 36.25 -63.1 35.9 -63.6 Q35.55 -64.2 36.0 -64.75 37.05 -66.65 38.3 -66.15 L38.8 -65.9 M22.5 -38.25 Q22.55 -37.5 21.65 -36.45 L20.85 -35.6 21.55 -32.9 21.55 -32.8 Q21.6 -31.95 21.9 -31.3 L22.15 -29.95 Q22.15 -28.95 21.55 -28.65 L21.5 -28.6 Q20.0 -28.05 19.35 -28.05 L19.15 -28.05 16.35 -27.9 Q12.85 -27.9 12.9 -29.65 L13.15 -31.15 13.3 -32.6 13.55 -35.35 12.95 -37.05 Q12.2 -38.8 12.2 -39.5 12.2 -40.55 12.75 -41.6 L13.65 -42.9 Q13.65 -43.55 15.2 -44.0 L18.25 -44.4 Q22.7 -44.15 22.7 -39.75 L22.7 -39.7 22.5 -38.25 M5.8 -12.45 L6.55 -12.0 6.6 -11.95 6.75 -11.3 6.75 -11.25 6.2 -9.1 6.0 -8.8 6.15 -7.75 5.7 -4.8 5.65 -4.65 Q5.0 -1.9 4.2 -1.45 L3.4 -1.25 3.05 -1.3 Q2.35 -1.25 2.05 -1.8 1.75 -2.15 1.75 -2.9 1.75 -3.75 2.35 -4.95 L2.4 -5.05 2.65 -5.8 2.65 -5.95 Q2.7 -6.55 3.1 -7.55 L3.1 -7.5 Q3.35 -8.55 3.75 -9.0 3.4 -9.7 3.4 -10.25 3.3 -11.65 4.95 -12.35 L5.1 -12.45 5.8 -12.45 M39.35 -14.85 L39.7 -15.45 Q40.0 -15.8 40.5 -15.8 L40.75 -15.8 41.5 -15.55 41.65 -15.5 42.95 -14.0 Q43.8 -12.65 43.65 -11.8 L43.65 -11.5 Q43.65 -11.0 43.3 -10.65 L43.15 -10.5 43.05 -10.4 42.6 -10.1 42.55 -10.05 42.25 -10.0 41.95 -10.0 Q41.85 -10.0 41.75 -10.1 40.65 -10.35 39.85 -11.95 L39.75 -12.2 39.4 -13.2 39.4 -13.25 39.35 -13.35 39.25 -13.55 39.25 -13.6 39.15 -13.95 39.15 -14.05 39.15 -14.1 39.25 -14.75 39.35 -14.85 M26.4 -9.4 Q27.25 -9.15 27.25 -7.4 L27.05 -6.7 27.2 -6.45 28.65 -2.45 28.65 -2.4 28.55 -1.5 28.35 -1.1 28.1 -0.8 Q27.6 -0.25 26.6 -0.25 L25.8 -0.3 25.7 -0.35 25.65 -0.4 25.45 -0.5 25.3 -0.6 24.8 -1.1 24.75 -1.2 24.65 -1.65 24.6 -3.6 24.5 -3.8 24.5 -3.9 24.6 -5.0 24.7 -5.2 24.65 -5.75 24.65 -6.35 24.6 -6.4 24.55 -6.45 Q24.15 -6.8 24.15 -7.3 L24.15 -7.7 Q24.15 -8.6 24.6 -9.05 L24.55 -9.05 Q25.0 -9.7 25.9 -9.55 L26.4 -9.4 M44.85 -24.9 Q45.85 -24.6 47.15 -22.95 48.6 -21.05 48.4 -19.8 L48.4 -19.7 48.4 -19.55 48.4 -19.5 Q48.0 -18.25 46.5 -18.25 46.0 -18.25 45.75 -18.5 L45.75 -18.55 Q44.75 -19.35 44.05 -20.8 L44.0 -20.9 44.0 -20.95 43.15 -23.05 43.0 -23.55 43.2 -24.2 43.25 -24.3 Q43.5 -24.85 43.9 -24.9 44.3 -25.2 44.85 -24.9 M41.85 -3.75 L42.85 -2.4 42.95 -2.35 43.0 -2.3 43.0 -2.2 44.25 -0.75 Q45.15 0.35 45.15 1.7 L45.1 2.75 Q44.95 3.45 44.25 3.65 42.45 4.4 41.05 1.4 39.9 -0.95 39.9 -2.25 39.9 -2.95 41.0 -3.8 L41.85 -3.75 M13.75 4.0 L14.45 4.2 Q15.4 4.15 15.4 5.85 L15.4 6.35 15.4 6.45 15.4 6.5 Q15.3 7.35 14.7 7.4 L14.5 7.5 14.45 7.5 13.7 7.65 13.6 7.65 13.35 7.55 Q12.75 7.35 12.15 6.4 L12.15 6.45 11.9 5.8 12.0 5.25 12.05 5.2 Q12.3 4.5 13.25 4.1 L13.75 4.0 M-35.15 -87.35 Q-34.45 -87.6 -32.0 -86.5 L-31.9 -86.4 Q-29.35 -85.3 -28.75 -84.2 L-28.75 -84.15 -28.65 -83.55 -28.65 -83.4 -28.8 -82.75 -28.8 -82.7 -29.3 -82.25 -29.7 -82.15 -30.05 -82.15 Q-30.15 -82.15 -30.3 -82.25 -36.0 -83.95 -36.15 -85.95 L-36.15 -86.0 -35.9 -86.75 Q-35.65 -87.3 -35.15 -87.35 M-7.5 -62.05 L-7.45 -62.05 Q-6.35 -61.6 -6.1 -61.3 L-6.05 -61.3 -5.95 -61.2 -5.75 -60.4 -5.75 -60.15 Q-5.45 -59.55 -6.35 -58.8 L-6.4 -58.75 -6.6 -58.7 -6.65 -58.7 -7.75 -58.5 -8.2 -58.5 -8.3 -58.5 -8.4 -58.55 -8.55 -58.55 Q-9.75 -58.5 -9.75 -60.25 -9.75 -61.4 -9.15 -61.75 L-8.7 -61.95 -8.45 -62.05 Q-8.0 -62.3 -7.5 -62.05 M-7.95 -44.8 L-7.85 -44.8 Q-6.45 -44.75 -6.1 -44.05 L-6.0 -44.0 -5.9 -43.85 -5.9 -43.7 -5.8 -43.15 -5.85 -42.65 -5.9 -42.55 -5.9 -42.5 Q-6.4 -41.5 -8.05 -41.5 L-8.8 -41.55 Q-9.2 -41.55 -9.35 -41.7 L-9.4 -41.75 -9.9 -42.25 -10.0 -42.45 -10.05 -42.55 -10.15 -43.0 -9.9 -43.65 Q-9.35 -44.7 -8.1 -44.8 L-8.05 -44.8 -7.95 -44.8 M-10.15 -32.5 L-9.65 -32.15 -9.3 -31.6 -9.3 -31.5 -9.3 -31.35 -9.3 -31.1 -9.3 -31.0 Q-9.35 -30.05 -11.4 -28.95 L-11.55 -28.9 -11.65 -28.9 -13.6 -27.9 -14.2 -27.75 -14.75 -27.9 -15.0 -28.0 -15.05 -28.05 -15.6 -28.5 -15.7 -28.7 -15.8 -29.2 -15.45 -29.95 -15.4 -30.0 -13.65 -31.35 -13.55 -31.45 Q-11.5 -32.85 -10.3 -32.5 L-10.25 -32.5 -10.15 -32.5 M-29.85 -3.45 L-29.85 -3.5 -29.25 -3.6 Q-28.8 -3.85 -27.95 -3.15 L-27.9 -3.15 -26.6 -1.8 -25.4 -0.5 -25.35 -0.5 -24.65 0.85 Q-23.25 3.9 -23.15 5.7 -22.8 5.8 -22.6 6.2 L-22.55 6.4 -22.15 7.2 -22.1 7.35 -22.0 7.9 -22.05 8.35 -22.15 8.55 -22.3 8.75 -22.3 8.8 Q-22.55 9.15 -23.3 9.4 L-23.4 9.4 -23.55 9.4 -23.8 9.4 -24.05 9.3 -24.6 8.9 Q-25.5 7.75 -25.5 6.85 L-25.5 6.8 Q-26.3 6.25 -27.25 4.6 L-27.75 3.55 -28.8 2.0 -28.8 1.95 Q-30.3 -0.45 -30.3 -2.7 -30.3 -3.25 -29.9 -3.45 L-29.85 -3.45 M-10.95 -7.15 L-10.9 -7.15 Q-10.65 -7.5 -10.15 -7.5 L-9.4 -7.25 Q-9.0 -7.1 -8.9 -6.55 L-8.8 -6.2 -8.8 -6.15 -8.8 -6.0 -8.8 -5.75 -8.85 -5.45 -9.15 -5.05 -9.15 -5.0 -9.25 -4.9 -9.9 -4.4 -10.05 -3.9 -10.15 -3.7 -12.0 -0.75 Q-13.45 1.6 -14.25 2.55 L-14.35 2.65 -14.4 2.7 -14.8 2.9 -15.15 3.0 -15.7 2.9 -15.9 2.8 -16.1 2.65 -16.6 2.0 Q-16.9 1.45 -16.6 1.05 -14.55 -3.8 -11.95 -5.4 L-12.0 -5.8 Q-12.0 -6.5 -11.45 -6.75 L-10.95 -7.15 M-19.65 11.9 L-19.05 12.5 -19.0 13.15 -19.05 13.75 Q-19.15 14.15 -19.7 14.5 L-19.8 14.55 -21.05 14.75 -21.25 14.95 -21.3 15.0 -22.65 15.35 -22.7 15.35 Q-23.3 15.35 -23.55 14.75 L-23.55 14.7 -23.7 14.05 -23.7 14.0 Q-24.95 13.95 -25.25 13.15 L-25.25 13.1 -25.35 12.3 Q-25.35 11.05 -24.35 10.95 -23.55 10.8 -21.95 11.6 L-21.85 11.7 -21.85 11.75 -21.05 11.65 -19.65 11.85 -19.65 11.9" fill="#ffff00" fill-opacity="0.5019608" fill-rule="evenodd" stroke="none"/>
    <path d="M69.85 -106.0 L68.6 -104.9 68.4 -104.8 68.15 -104.8 67.75 -104.9 67.45 -105.1 67.35 -105.45 Q67.4 -106.1 68.15 -107.1 68.9 -108.15 69.4 -108.2 L69.65 -108.2 70.0 -108.1 Q70.5 -108.05 70.5 -107.25 70.55 -106.65 69.85 -106.0 M55.3 -87.0 L55.5 -86.25 Q55.55 -84.55 53.5 -84.15 L53.45 -84.15 53.05 -84.05 Q52.5 -84.05 52.5 -85.0 52.45 -85.45 53.25 -86.3 L53.25 -86.25 Q53.95 -87.15 54.65 -87.25 L55.0 -87.2 55.2 -87.1 55.3 -87.0 M36.25 -82.75 Q36.3 -82.2 35.15 -80.85 L35.1 -80.85 33.7 -79.45 33.65 -79.4 Q33.5 -79.25 33.3 -79.25 32.75 -79.1 32.75 -80.15 32.7 -80.8 33.6 -82.1 34.45 -83.45 35.05 -83.7 L35.4 -83.7 35.75 -83.6 Q36.25 -83.55 36.25 -82.75 M5.75 -76.55 Q6.95 -76.65 7.65 -75.25 L8.1 -73.3 8.1 -73.0 Q8.15 -72.55 7.55 -72.3 L7.35 -72.3 7.15 -72.35 Q6.85 -72.45 6.05 -73.9 5.2 -75.3 5.25 -75.6 L5.25 -76.05 5.4 -76.4 5.75 -76.55 M33.05 -68.35 L33.3 -68.3 Q33.65 -68.25 33.65 -67.4 L33.55 -67.1 32.95 -66.2 32.75 -66.05 32.5 -66.0 31.85 -66.0 Q31.65 -66.0 31.5 -66.15 31.25 -66.3 31.25 -67.0 L31.75 -67.75 31.8 -67.75 32.5 -68.3 32.85 -68.4 33.05 -68.35 M38.3 -65.3 L38.9 -64.55 38.9 -64.25 38.7 -64.0 38.5 -63.7 38.5 -63.65 Q38.45 -63.35 37.55 -63.25 L37.25 -63.3 36.75 -63.6 36.55 -63.9 36.6 -64.3 Q37.35 -65.65 38.1 -65.4 L38.3 -65.3 M21.65 -40.0 Q21.65 -37.55 19.95 -36.2 L20.1 -35.0 20.35 -33.7 20.4 -33.5 20.4 -33.45 20.9 -30.55 Q21.0 -29.15 19.05 -28.85 L18.0 -28.55 16.45 -28.7 14.85 -29.0 14.7 -29.1 14.65 -29.15 14.65 -29.1 14.55 -29.1 14.25 -29.15 Q13.85 -29.2 13.85 -30.05 L14.1 -31.9 14.5 -36.0 14.55 -36.15 13.85 -36.95 Q13.05 -38.1 13.1 -38.9 13.1 -40.7 13.8 -41.5 14.6 -43.35 17.25 -43.45 19.6 -43.55 20.5 -42.2 L21.0 -41.85 20.95 -41.85 Q21.65 -41.2 21.65 -40.0 M5.45 -9.35 L5.3 -9.1 5.0 -9.05 4.85 -9.05 4.6 -9.1 4.4 -9.3 4.15 -10.25 Q4.1 -11.2 5.3 -11.7 L5.65 -11.7 5.9 -11.55 6.0 -11.25 5.45 -9.35 M5.2 -8.5 L5.4 -7.75 4.95 -4.95 4.95 -5.0 Q4.4 -2.45 3.8 -2.1 L3.45 -2.0 3.1 -2.05 3.05 -2.05 Q2.5 -1.95 2.5 -2.9 2.5 -3.6 3.0 -4.6 L3.4 -5.8 3.4 -5.85 3.75 -7.3 Q4.1 -8.5 4.5 -8.65 L4.8 -8.75 5.1 -8.6 5.2 -8.5 M39.9 -13.95 L40.0 -14.6 40.2 -14.9 40.5 -15.05 40.75 -15.05 41.1 -14.9 42.25 -13.55 Q42.95 -12.5 42.9 -11.9 L42.9 -11.5 42.75 -11.15 42.55 -11.0 42.5 -10.9 42.25 -10.75 41.95 -10.75 Q41.1 -11.0 40.5 -12.25 L40.5 -12.35 40.0 -13.6 39.95 -13.75 39.9 -13.95 M25.85 -6.5 L26.0 -6.5 26.3 -6.4 26.45 -6.2 27.9 -2.2 27.85 -1.8 27.65 -1.4 27.55 -1.35 Q27.25 -1.0 26.6 -1.0 L25.95 -1.05 25.8 -1.1 25.65 -1.2 25.45 -1.4 25.4 -1.65 25.25 -3.8 25.25 -3.9 25.35 -4.95 25.35 -5.9 25.4 -6.15 25.6 -6.4 25.85 -6.5 M26.0 -8.7 Q26.5 -8.55 26.5 -7.4 L26.35 -7.05 Q26.1 -6.75 25.5 -6.75 L25.05 -6.95 24.9 -7.3 24.9 -7.7 Q24.9 -8.9 25.75 -8.8 L26.0 -8.7 M46.2 -19.1 Q45.35 -19.8 44.7 -21.1 L44.7 -21.15 43.8 -23.35 43.75 -23.55 43.8 -23.75 43.9 -23.95 44.15 -24.2 44.5 -24.2 Q45.35 -23.95 46.55 -22.5 47.75 -20.9 47.65 -19.85 L47.65 -19.7 Q47.4 -19.0 46.5 -19.0 L46.2 -19.1 M42.35 -1.75 L42.3 -1.5 42.2 -1.3 Q42.95 -1.1 43.6 -0.1 L44.35 1.45 44.4 1.65 44.35 2.15 44.3 2.3 Q44.15 2.75 43.35 2.75 42.65 2.85 41.85 1.05 L41.25 -0.65 41.25 -0.9 41.3 -1.0 41.1 -1.05 40.9 -1.3 Q40.75 -1.65 40.75 -2.05 L40.85 -2.3 41.1 -2.5 Q41.9 -2.85 42.3 -1.95 L42.35 -1.75 M12.65 5.8 L12.7 5.55 Q12.9 5.1 13.55 4.8 L13.8 4.75 14.05 4.85 14.2 4.95 14.3 4.95 Q14.65 5.0 14.65 5.85 L14.65 6.35 14.45 6.65 14.15 6.8 13.75 6.9 13.6 6.9 Q13.2 6.75 12.75 6.05 L12.65 5.8 M-35.0 -86.6 Q-34.55 -86.8 -32.35 -85.8 -30.0 -84.75 -29.45 -83.8 L-29.4 -83.55 -29.4 -83.4 -29.5 -83.1 -29.7 -82.9 -30.05 -82.9 Q-35.2 -84.45 -35.4 -86.05 L-35.3 -86.4 -35.0 -86.6 M-6.9 -59.4 L-7.75 -59.25 -8.2 -59.25 -8.45 -59.3 -8.5 -59.3 Q-9.0 -59.35 -9.0 -60.25 -9.0 -61.0 -8.6 -61.15 L-8.55 -61.2 -8.15 -61.35 -7.8 -61.35 -6.65 -60.75 -6.5 -60.4 -6.5 -60.0 Q-6.4 -59.75 -6.85 -59.4 L-6.9 -59.4 M-7.95 -44.05 Q-6.95 -44.0 -6.75 -43.6 L-6.7 -43.55 -6.6 -43.4 -6.55 -43.15 -6.6 -42.85 Q-6.95 -42.25 -8.05 -42.25 L-8.8 -42.3 -9.05 -42.35 -9.25 -42.55 -9.35 -42.75 -9.4 -43.0 -9.3 -43.25 Q-8.9 -43.95 -8.05 -44.05 L-7.95 -44.05 M-10.2 -31.6 L-10.05 -31.35 -10.05 -31.1 Q-10.2 -30.45 -11.8 -29.6 L-11.85 -29.6 -14.0 -28.55 -14.2 -28.5 -14.45 -28.55 -14.75 -28.7 -15.0 -28.9 -15.05 -29.2 -14.9 -29.45 -13.2 -30.8 Q-11.4 -31.95 -10.45 -31.75 L-10.2 -31.6 M-29.0 -2.7 L-28.9 -2.7 -28.65 -2.55 -28.5 -2.3 Q-26.9 -1.05 -25.85 1.15 L-24.3 5.25 -24.3 5.6 -24.55 5.85 -24.75 5.95 -25.15 6.0 -25.45 5.75 -27.65 2.35 Q-29.6 -0.7 -29.55 -1.85 L-29.5 -2.35 -29.4 -2.55 -29.0 -2.7 M-10.15 -6.75 L-9.85 -6.65 -9.65 -6.35 -9.55 -6.0 -9.55 -5.75 -9.7 -5.55 -9.85 -5.35 Q-10.15 -5.0 -10.55 -5.0 L-10.75 -5.05 -10.95 -5.2 -11.15 -5.45 -11.25 -5.8 -11.05 -6.1 -10.45 -6.6 -10.15 -6.75 M-10.75 -4.8 L-10.65 -4.5 -10.75 -4.15 -12.7 -1.1 -14.85 2.1 -15.15 2.25 -15.5 2.2 -15.75 2.05 -15.95 1.75 -15.95 1.4 Q-13.9 -3.35 -11.4 -4.9 L-11.05 -5.0 -10.75 -4.8 M-19.9 13.3 L-20.0 13.65 -20.2 13.9 -20.5 14.0 -21.4 14.0 -21.5 14.0 -22.05 14.55 -22.35 14.6 -22.55 14.55 Q-23.0 14.5 -23.0 13.6 L-23.0 13.35 -22.9 13.05 -22.6 12.85 -22.15 12.75 -21.85 12.8 -21.75 12.75 -21.7 12.7 -21.65 12.65 -21.45 12.45 -21.15 12.4 Q-20.25 12.55 -20.05 12.8 L-19.9 13.05 -19.9 13.3 M-23.3 6.6 L-22.8 7.65 -22.75 7.9 -22.8 8.15 -22.85 8.25 -22.95 8.35 Q-23.1 8.55 -23.55 8.65 L-23.8 8.65 -24.0 8.5 Q-24.75 7.6 -24.75 6.85 L-24.65 6.55 -24.35 6.35 -23.9 6.25 -23.55 6.35 -23.3 6.6 M-23.3 11.75 Q-23.1 11.75 -22.95 11.9 L-22.8 12.05 -22.65 12.35 -22.7 12.65 -23.2 13.35 -23.5 13.4 -23.75 13.35 -24.5 12.55 -24.5 12.25 Q-24.5 11.75 -23.3 11.75" fill="#ffffff" fill-rule="evenodd" stroke="none"/>
  </g>
</svg>
