<?xml version="1.0" encoding="UTF-8" standalone="no"?>
<svg xmlns:ffdec="https://www.free-decompiler.com/flash" xmlns:xlink="http://www.w3.org/1999/xlink" ffdec:objectType="shape" height="87.35px" width="25.3px" xmlns="http://www.w3.org/2000/svg">
  <g transform="matrix(1.0, 0.0, 0.0, 1.0, -20.35, 80.4)">
    <path d="M34.95 -79.7 L35.35 -79.15 35.35 -78.4 35.25 -78.2 34.65 -77.45 Q34.35 -77.15 33.4 -77.15 L33.25 -77.15 32.1 -77.3 Q31.6 -77.3 31.25 -77.7 L31.2 -77.7 30.95 -78.15 30.9 -78.25 Q30.75 -78.45 30.75 -78.7 30.65 -79.65 31.7 -80.15 L33.65 -80.4 34.15 -80.35 34.3 -80.3 34.3 -80.25 34.5 -80.2 34.55 -80.15 34.65 -80.05 34.75 -79.95 34.95 -79.7 M32.55 -70.55 Q33.35 -70.7 34.3 -69.8 35.25 -68.95 35.05 -68.3 35.05 -67.4 34.4 -67.0 34.0 -66.65 33.15 -66.7 L33.05 -66.7 33.0 -66.7 32.75 -66.75 Q32.25 -66.9 32.05 -67.25 31.15 -68.35 31.05 -68.85 L31.1 -68.85 31.0 -69.2 Q31.0 -69.7 31.3 -69.9 31.65 -70.55 32.55 -70.55 M31.15 -46.6 L31.15 -46.55 31.1 -46.05 31.05 -45.7 30.95 -45.45 Q30.7 -44.95 29.5 -44.65 L29.45 -44.65 29.35 -44.65 29.1 -44.65 28.8 -44.75 Q28.55 -44.85 28.4 -45.05 L28.35 -45.1 27.95 -45.45 Q27.5 -45.95 27.5 -46.75 27.5 -47.9 28.15 -48.3 L28.15 -48.35 28.4 -48.45 29.05 -48.7 29.65 -48.7 Q30.05 -48.7 30.35 -48.3 31.2 -47.4 31.15 -46.85 L31.15 -46.75 31.15 -46.6 M27.0 -33.25 L27.5 -33.2 27.65 -33.15 27.65 -33.1 28.05 -32.7 Q29.1 -31.5 29.4 -28.4 L29.4 -28.3 29.4 -28.15 29.4 -28.1 Q29.35 -27.3 28.4 -26.65 L28.3 -26.6 27.5 -26.5 26.85 -26.9 26.8 -27.0 Q25.9 -28.1 25.75 -29.85 L25.6 -32.0 Q25.6 -32.5 26.0 -32.9 26.35 -33.25 26.85 -33.25 L27.0 -33.25 M38.05 -23.65 L38.25 -22.6 Q38.25 -21.7 37.55 -21.25 37.15 -20.95 36.4 -21.0 L36.3 -21.0 36.25 -21.0 36.0 -21.05 35.9 -21.1 35.85 -21.15 35.65 -21.25 35.15 -21.75 34.9 -22.6 35.15 -23.45 Q35.4 -24.0 35.85 -24.1 L37.05 -24.25 37.1 -24.25 37.75 -23.95 37.9 -23.8 38.0 -23.7 38.05 -23.65 M40.25 -15.5 L40.25 -15.6 Q40.45 -17.0 41.85 -16.95 42.35 -17.1 43.45 -16.55 L44.3 -16.15 Q45.85 -15.3 45.6 -14.3 L45.6 -14.25 45.6 -14.15 45.6 -14.1 45.55 -13.95 45.25 -13.2 45.15 -13.1 44.9 -12.95 44.75 -12.85 44.7 -12.8 44.3 -12.7 44.2 -12.7 44.05 -12.7 43.75 -12.7 43.5 -12.8 Q41.7 -13.45 40.65 -14.6 L40.6 -14.6 40.35 -15.15 40.25 -15.5 M39.35 -2.05 Q39.35 -3.1 39.95 -3.5 L40.5 -3.75 40.55 -3.8 41.0 -3.9 41.75 -3.65 41.8 -3.65 Q42.95 -2.8 42.75 -1.85 42.75 -1.05 42.4 -0.65 42.0 -0.1 41.1 -0.15 39.7 -0.2 39.45 -1.35 L39.35 -2.05 M38.35 2.5 Q38.75 3.3 38.6 3.6 L38.6 3.7 38.55 3.85 38.45 4.35 38.2 4.65 38.05 4.8 38.0 4.85 37.0 5.1 36.9 5.1 36.8 5.1 36.75 5.1 36.5 5.05 36.4 5.0 36.35 4.95 36.15 4.85 35.65 4.35 35.1 3.05 Q34.9 2.1 36.1 1.4 36.45 1.1 36.75 1.2 L37.05 1.25 Q37.65 1.15 38.3 2.3 L38.35 2.5 M26.6 5.25 Q26.65 5.95 25.8 6.45 L23.9 6.9 23.4 6.75 22.3 6.95 21.05 6.75 20.95 6.7 Q20.45 6.45 20.4 6.0 L20.35 5.4 Q20.35 4.65 20.5 4.5 20.85 4.0 21.8 3.95 L21.8 3.9 Q21.75 3.55 22.3 3.35 L22.3 3.3 22.9 3.15 23.05 3.2 23.25 3.35 24.0 2.85 24.1 2.8 Q25.45 2.5 26.15 3.85 L26.15 3.8 26.6 5.25" fill="#ffff00" fill-opacity="0.5019608" fill-rule="evenodd" stroke="none"/>
    <path d="M34.45 -79.15 L34.6 -78.9 34.6 -78.6 34.2 -78.05 33.4 -77.9 33.35 -77.9 32.1 -78.05 Q31.9 -78.05 31.75 -78.2 L31.6 -78.45 31.5 -78.75 Q31.4 -79.65 33.65 -79.65 L33.9 -79.6 34.1 -79.5 34.2 -79.4 34.45 -79.15 M33.75 -69.25 L34.3 -68.35 Q34.3 -67.85 33.95 -67.6 L33.2 -67.45 33.15 -67.45 32.9 -67.5 32.6 -67.7 Q31.85 -68.65 31.8 -69.0 L31.75 -69.2 31.85 -69.4 Q32.05 -69.8 32.6 -69.8 33.1 -69.85 33.75 -69.25 M30.4 -46.6 L30.35 -46.1 30.3 -45.85 Q30.15 -45.55 29.35 -45.4 L29.1 -45.4 28.9 -45.55 28.65 -45.75 28.6 -45.8 Q28.25 -46.1 28.25 -46.75 28.25 -47.45 28.55 -47.7 L28.7 -47.8 29.25 -47.95 29.5 -47.95 29.75 -47.8 30.4 -46.75 30.4 -46.6 M27.25 -32.45 L27.4 -32.3 Q28.35 -31.15 28.65 -28.3 L28.65 -28.15 Q28.6 -27.65 28.0 -27.3 L27.65 -27.25 Q27.45 -27.3 27.35 -27.4 26.6 -28.35 26.5 -29.9 L26.35 -32.0 26.5 -32.35 26.85 -32.5 27.0 -32.5 27.25 -32.45 M37.35 -23.25 L37.5 -22.6 Q37.5 -22.1 37.15 -21.9 L36.45 -21.75 36.4 -21.75 36.15 -21.8 35.95 -21.9 35.8 -22.05 35.65 -22.6 35.8 -23.1 36.05 -23.35 37.0 -23.5 37.2 -23.4 37.35 -23.25 M40.4 -2.9 L40.6 -3.0 40.85 -3.1 41.05 -3.15 41.3 -3.05 Q42.05 -2.5 42.0 -1.95 42.0 -0.8 41.15 -0.9 40.3 -0.9 40.15 -1.55 40.05 -1.75 40.1 -2.05 40.1 -2.65 40.4 -2.9 M41.9 -16.2 L43.05 -15.85 43.9 -15.45 Q44.95 -14.9 44.85 -14.35 L44.85 -14.25 44.8 -13.95 44.7 -13.7 44.45 -13.55 44.05 -13.45 43.75 -13.45 Q42.15 -14.05 41.15 -15.1 L41.05 -15.3 41.0 -15.5 Q41.1 -16.25 41.9 -16.2 M36.7 1.95 L36.9 2.0 37.6 2.7 37.6 2.75 37.85 3.45 37.85 3.55 37.8 3.85 37.75 4.05 37.6 4.2 37.0 4.35 36.9 4.35 36.65 4.3 36.45 4.2 36.3 4.05 35.85 2.95 Q35.8 2.45 36.5 2.05 L36.7 1.95 M25.5 4.65 L25.65 4.8 25.8 5.05 25.85 5.35 25.75 5.6 25.5 5.8 24.4 6.15 24.15 6.15 23.9 6.1 23.6 5.9 23.5 5.55 23.65 5.05 23.65 5.0 23.55 4.75 23.55 4.4 23.55 4.35 23.85 4.1 23.95 4.0 Q24.0 3.4 24.8 3.6 L24.9 3.6 Q25.1 3.6 25.25 3.75 25.45 3.85 25.45 4.3 L25.35 4.6 25.5 4.65 M22.75 3.95 L22.9 4.05 22.95 4.1 22.45 3.95 22.7 3.9 22.75 3.95 M22.4 4.8 L22.9 4.95 23.05 5.0 23.25 5.25 23.3 5.35 23.35 5.65 23.2 5.9 Q22.75 6.35 22.1 6.35 L21.4 6.05 21.25 5.7 Q21.25 5.25 21.5 5.05 L21.55 5.05 21.75 4.95 22.35 4.8 22.4 4.8" fill="#ffffff" fill-rule="evenodd" stroke="none"/>
  </g>
</svg>
