<?xml version="1.0" encoding="UTF-8" standalone="no"?>
<svg xmlns:ffdec="https://www.free-decompiler.com/flash" xmlns:xlink="http://www.w3.org/1999/xlink" ffdec:objectType="shape" height="204.9px" width="160.6px" xmlns="http://www.w3.org/2000/svg">
  <g transform="matrix(1.0, 0.0, 0.0, 1.0, 131.8, 272.3)">
    <path d="M8.25 -272.3 L15.45 -266.1 Q22.6 -259.75 23.1 -258.0 23.4 -257.0 26.15 -252.55 27.7 -249.95 28.8 -248.75 26.9 -243.5 23.75 -230.95 20.25 -217.1 16.65 -209.65 L2.65 -186.3 Q-7.25 -169.95 -8.4 -165.9 L-8.55 -165.55 Q-10.9 -161.55 -10.5 -160.3 L-10.45 -160.15 -10.15 -157.85 -10.1 -157.7 -8.65 -153.1 -7.55 -149.6 -6.4 -147.2 4.05 -112.95 5.3 -110.3 Q7.75 -101.45 9.55 -95.6 L11.65 -88.85 11.9 -88.2 12.05 -88.25 12.1 -87.75 14.7 -80.8 15.15 -79.6 Q13.7 -80.35 11.5 -80.3 L10.1 -80.25 Q6.05 -79.8 6.05 -78.2 L6.15 -77.4 6.5 -77.2 10.9 -76.55 Q7.9 -75.55 5.15 -71.15 L3.65 -70.25 2.0 -68.85 1.6 -68.35 -3.75 -67.8 -11.45 -67.4 Q-13.75 -67.4 -21.9 -72.65 L-25.25 -74.7 -27.8 -76.15 -27.65 -76.2 -27.75 -76.5 -27.7 -76.75 -27.9 -77.05 -28.2 -78.05 -29.85 -83.6 -34.9 -99.5 -34.85 -99.6 -36.2 -105.35 -38.55 -113.25 -39.4 -115.8 -40.45 -119.3 -41.65 -123.0 -42.1 -124.5 -46.1 -136.45 -50.4 -149.75 -51.1 -150.25 Q-51.4 -152.6 -53.55 -155.25 L-52.9 -155.15 -52.65 -154.9 -52.25 -155.15 -52.05 -155.2 -52.2 -155.25 -52.05 -155.5 -52.2 -155.55 Q-52.4 -156.45 -53.5 -157.75 L-53.95 -158.25 -55.4 -160.3 -55.5 -160.45 Q-55.25 -163.3 -58.5 -166.45 L-58.5 -166.95 Q-58.5 -169.2 -62.1 -172.45 -65.8 -175.7 -70.15 -175.15 -68.1 -176.2 -67.15 -176.2 L-65.5 -175.95 -63.7 -176.2 Q-64.85 -181.05 -72.5 -179.3 L-75.8 -178.35 Q-77.0 -179.5 -79.85 -179.6 -83.1 -179.65 -84.4 -180.45 -81.8 -181.3 -81.4 -181.6 -80.85 -181.95 -80.85 -183.0 -80.85 -183.7 -81.1 -183.8 L-81.65 -184.05 -87.35 -183.85 -88.65 -184.75 Q-90.15 -185.65 -92.25 -185.65 -93.85 -185.65 -96.35 -184.4 L-96.35 -184.6 Q-96.35 -188.4 -96.85 -190.15 L-99.7 -187.0 Q-101.6 -184.55 -104.55 -184.4 L-104.05 -184.7 -102.35 -186.5 Q-101.7 -187.2 -101.7 -187.85 -101.7 -189.0 -101.9 -188.55 L-105.55 -187.65 -110.4 -186.8 Q-114.0 -186.8 -116.9 -188.5 L-117.6 -189.85 -119.85 -194.5 -118.05 -194.55 Q-117.65 -194.6 -117.65 -195.35 -117.65 -197.5 -121.4 -200.25 L-123.65 -201.55 Q-123.85 -202.9 -125.65 -205.15 -127.7 -207.65 -129.5 -208.2 L-129.65 -207.95 -131.35 -208.6 -131.7 -210.8 Q-132.2 -212.55 -129.85 -221.8 L-127.3 -231.0 Q-114.85 -209.85 -97.0 -203.5 -93.1 -202.1 -82.7 -201.15 -76.65 -200.55 -72.75 -199.35 L-70.95 -198.5 -68.5 -196.25 -68.55 -195.85 Q-65.95 -192.9 -59.1 -188.3 L-54.9 -185.6 -51.15 -183.3 -47.75 -181.25 -43.1 -179.65 -36.3 -177.0 Q-34.2 -180.65 -30.6 -185.75 L-30.25 -186.25 -28.25 -190.35 -27.05 -193.25 Q-23.95 -198.9 -21.3 -210.2 L-20.45 -213.9 -19.4 -215.6 Q-16.85 -218.75 -12.2 -222.65 -4.05 -229.25 -1.6 -232.6 9.7 -247.85 8.25 -272.3" fill="#252927" fill-rule="evenodd" stroke="none"/>
  </g>
</svg>
