<?xml version="1.0" encoding="UTF-8" standalone="no"?>
<svg xmlns:ffdec="https://www.free-decompiler.com/flash" xmlns:xlink="http://www.w3.org/1999/xlink" ffdec:objectType="shape" height="124.8px" width="376.95px" xmlns="http://www.w3.org/2000/svg">
  <g transform="matrix(1.0, 0.0, 0.0, 1.0, 270.7, 163.9)">
    <path d="M61.65 -64.35 Q62.6 -65.1 63.75 -65.3 L63.7 -64.75 63.45 -64.15 63.75 -63.8 64.35 -64.4 Q64.9 -64.9 65.6 -64.95 65.8 -64.65 65.45 -64.1 64.75 -64.0 65.65 -64.0 65.9 -64.0 69.5 -65.9 72.9 -67.8 74.1 -67.65 L68.6 -64.1 Q70.35 -64.4 71.45 -63.5 L70.55 -62.95 78.05 -62.5 Q82.15 -62.25 87.65 -60.6 95.05 -58.4 100.4 -55.0 L101.9 -53.95 102.1 -53.95 102.1 -53.85 103.85 -52.45 Q106.25 -50.25 106.25 -48.3 106.25 -46.75 104.95 -46.0 104.0 -45.4 102.65 -45.4 100.05 -45.4 95.25 -47.75 L92.1 -49.25 Q90.35 -49.5 86.9 -50.75 L83.7 -49.95 83.75 -49.0 Q83.75 -45.95 81.45 -43.8 75.95 -44.0 71.3 -45.4 L71.05 -45.45 75.85 -45.65 Q76.9 -44.6 77.45 -44.6 79.7 -44.6 80.95 -45.55 82.0 -46.3 82.0 -47.25 82.0 -48.0 81.25 -48.5 L80.1 -49.05 79.0 -48.75 78.25 -48.8 78.05 -49.05 78.2 -49.25 75.85 -49.15 74.6 -49.05 74.5 -49.05 74.45 -49.05 74.05 -49.05 74.0 -49.05 72.6 -49.05 Q71.25 -49.05 70.9 -49.4 L73.35 -50.7 72.5 -50.6 65.6 -49.7 65.05 -49.75 Q64.45 -49.8 64.3 -50.0 L68.05 -50.85 67.9 -51.3 67.9 -52.7 66.35 -53.1 64.35 -53.35 65.35 -53.95 66.0 -54.3 65.65 -54.4 63.65 -55.05 66.85 -56.7 67.45 -57.05 62.45 -56.95 60.65 -57.1 59.4 -57.5 61.65 -58.2 64.5 -58.5 64.5 -58.6 64.55 -58.65 Q61.65 -58.6 58.65 -58.7 L52.25 -59.0 51.7 -59.3 59.7 -60.1 58.15 -60.2 50.4 -59.65 50.0 -59.65 38.75 -59.45 34.95 -59.5 34.25 -59.45 29.25 -59.65 29.0 -59.8 28.75 -59.85 22.25 -59.5 17.9 -59.65 12.3 -60.1 6.7 -60.55 4.9 -60.7 4.5 -60.75 3.95 -60.8 1.85 -61.0 -0.7 -61.2 -1.3 -61.3 -8.9 -62.0 -14.75 -62.6 -22.55 -62.3 -37.1 -63.4 -45.1 -64.65 -51.2 -65.15 -53.2 -65.05 -53.4 -65.15 -54.8 -65.55 -55.25 -65.6 -65.05 -65.6 -78.7 -66.7 -81.6 -66.85 Q-83.55 -67.8 -86.95 -68.1 L-101.15 -69.8 -109.0 -70.2 -119.45 -71.7 -125.8 -73.6 -136.05 -75.3 Q-160.4 -79.75 -170.05 -84.0 -170.2 -83.85 -170.6 -83.8 L-172.4 -84.65 -172.95 -84.4 Q-176.65 -86.15 -177.35 -87.2 -177.6 -87.55 -177.65 -88.8 L-177.85 -87.3 -178.5 -87.2 -178.8 -88.4 -179.05 -89.6 Q-179.05 -90.65 -178.2 -91.05 L-177.6 -90.95 -177.5 -91.55 Q-177.2 -92.35 -175.6 -93.3 L-174.85 -93.1 -174.85 -93.05 -174.2 -93.45 Q-172.15 -94.85 -171.25 -94.65 L-172.55 -93.65 -168.45 -95.9 -150.9 -103.4 Q-139.05 -108.4 -133.4 -111.95 -129.45 -114.45 -127.5 -116.8 L-127.75 -116.8 -127.85 -116.65 -128.0 -117.25 -127.9 -118.8 -128.6 -118.7 -128.85 -119.35 -129.35 -118.95 -130.25 -119.05 -130.25 -120.75 Q-129.35 -120.75 -128.95 -120.15 L-128.95 -120.2 -128.6 -120.85 -129.7 -122.45 -127.7 -121.95 -127.65 -122.8 Q-129.45 -124.45 -133.25 -125.4 L-135.7 -125.95 -143.45 -126.9 Q-166.9 -129.6 -176.4 -133.25 L-176.9 -133.45 -178.85 -133.8 -178.85 -133.85 -179.75 -133.9 -179.85 -133.9 -181.15 -134.1 Q-186.55 -134.95 -194.2 -137.5 -200.25 -139.5 -203.4 -140.1 L-206.65 -140.6 -207.15 -140.7 -210.8 -142.55 Q-215.05 -144.8 -215.05 -148.05 L-214.75 -149.2 -214.1 -150.15 Q-210.4 -152.5 -198.05 -155.75 L-197.95 -155.55 -198.1 -155.45 -196.95 -155.8 -191.95 -157.2 -185.8 -158.3 -184.85 -160.35 -189.0 -160.45 Q-183.4 -161.65 -183.4 -162.05 L-183.35 -162.5 -183.2 -162.85 -178.35 -162.45 -178.35 -162.4 -178.55 -162.2 -178.2 -162.2 -177.7 -161.4 -179.8 -160.6 Q-180.4 -160.0 -181.6 -159.7 L-181.8 -159.65 Q-182.3 -158.0 -185.55 -157.5 L-185.8 -157.45 -186.15 -157.45 -189.2 -157.35 -192.1 -156.45 Q-194.45 -155.15 -200.1 -153.15 -206.35 -150.95 -210.4 -149.9 L-211.1 -148.85 Q-209.5 -144.0 -197.15 -140.3 -187.95 -137.55 -165.9 -133.9 -142.15 -130.0 -134.65 -128.1 -120.45 -124.45 -120.45 -119.75 -120.45 -117.6 -124.4 -114.7 -126.3 -112.95 -130.25 -110.9 -133.1 -109.4 -138.05 -107.2 L-146.25 -103.5 Q-157.25 -98.85 -160.3 -97.2 -166.65 -93.8 -166.65 -91.1 -166.65 -86.1 -159.25 -82.95 -153.5 -80.6 -141.05 -78.55 L-118.05 -75.1 -108.2 -73.2 -85.55 -70.3 -82.7 -70.3 -82.45 -70.3 -76.95 -70.25 -25.95 -65.45 7.65 -62.3 11.25 -62.2 15.25 -61.9 15.15 -62.0 25.0 -61.65 31.45 -61.45 37.65 -61.7 42.5 -61.65 50.65 -62.1 60.35 -62.85 60.1 -63.05 61.65 -64.35 M69.9 -68.5 Q69.1 -67.5 68.45 -67.25 L67.95 -67.25 67.9 -67.9 Q67.9 -68.85 70.8 -70.0 L69.9 -68.5 M65.45 -66.9 L65.9 -67.35 66.55 -66.9 Q66.4 -66.65 66.0 -66.65 65.6 -66.65 65.45 -66.9 M92.0 -56.35 L92.15 -55.8 91.75 -55.05 Q92.2 -55.05 92.3 -55.2 L92.6 -55.55 92.0 -56.35 92.4 -56.45 Q92.5 -56.4 92.75 -56.3 L93.8 -56.45 93.75 -57.05 89.75 -58.5 89.35 -58.6 90.05 -58.15 Q91.5 -57.3 92.0 -56.35 M-189.85 -162.8 L-201.5 -161.55 -209.55 -160.75 -210.1 -160.6 -210.3 -160.55 -213.3 -160.35 -221.05 -158.65 -232.35 -156.1 -242.45 -153.45 Q-248.45 -151.95 -251.6 -151.55 L-257.35 -148.95 Q-264.5 -145.3 -267.35 -142.0 L-265.95 -140.9 Q-265.7 -139.6 -264.05 -137.45 -261.8 -134.6 -258.4 -132.05 -253.8 -128.65 -248.7 -126.95 -249.4 -126.05 -249.2 -124.85 L-248.95 -124.2 -250.1 -124.65 -258.6 -127.85 -257.6 -131.0 -257.35 -131.15 Q-263.25 -130.45 -267.6 -133.15 -266.0 -131.0 -262.75 -129.05 -265.2 -129.75 -267.6 -132.9 L-267.75 -133.05 -268.05 -133.45 Q-270.7 -137.1 -270.7 -139.35 -270.7 -143.05 -267.05 -145.6 -262.5 -150.3 -249.1 -153.85 -241.9 -156.0 -229.45 -158.35 L-221.85 -159.7 -217.35 -160.5 -211.1 -161.45 -202.7 -162.4 -196.95 -162.95 Q-192.1 -164.05 -189.15 -163.85 L-190.8 -163.5 -189.4 -163.6 Q-189.4 -162.9 -189.85 -162.8 M-183.5 -105.55 L-182.9 -106.3 -182.95 -106.35 -182.5 -107.25 -182.9 -107.7 -182.7 -108.25 Q-181.6 -108.5 -181.0 -107.7 L-180.65 -107.1 -180.55 -107.55 -180.95 -108.35 Q-180.25 -108.6 -179.95 -107.95 -179.7 -107.25 -180.05 -106.8 L-179.25 -106.75 Q-179.1 -106.45 -179.1 -105.95 -179.0 -106.65 -179.2 -107.4 L-178.95 -107.55 Q-178.5 -107.35 -178.5 -106.4 L-178.55 -105.4 -179.55 -104.2 -179.7 -104.5 Q-179.85 -103.4 -180.85 -103.1 L-181.3 -103.0 -182.3 -101.9 -186.3 -100.65 -185.75 -101.35 -186.1 -101.3 -186.65 -101.3 -187.4 -101.15 -190.35 -100.55 Q-194.5 -99.15 -201.05 -97.45 -210.1 -95.1 -220.6 -92.85 -228.6 -90.4 -233.4 -86.5 -238.85 -82.1 -236.6 -78.2 L-236.85 -77.95 -237.6 -77.9 Q-238.65 -77.9 -238.85 -79.2 L-238.85 -80.6 Q-238.85 -85.2 -234.35 -88.65 -230.25 -91.85 -221.05 -94.9 -217.5 -96.1 -199.25 -100.5 -185.1 -103.9 -183.65 -105.65 L-183.5 -105.55 M-172.8 -85.45 L-172.65 -85.2 -172.65 -85.35 -172.8 -85.45 M-195.75 -57.4 L-176.35 -56.3 -159.2 -55.3 Q-154.1 -52.1 -138.05 -48.9 -127.4 -46.8 -111.65 -44.8 L-103.05 -44.8 Q-103.3 -43.25 -105.3 -40.85 L-107.15 -39.1 Q-130.1 -42.5 -154.35 -47.3 -179.5 -52.3 -196.4 -57.35 L-195.75 -57.4" fill="#a0f7fe" fill-rule="evenodd" stroke="none"/>
  </g>
</svg>
