<?xml version="1.0" encoding="UTF-8" standalone="no"?>
<svg xmlns:ffdec="https://www.free-decompiler.com/flash" xmlns:xlink="http://www.w3.org/1999/xlink" ffdec:objectType="shape" height="124.8px" width="376.95px" xmlns="http://www.w3.org/2000/svg">
  <g transform="matrix(1.0, 0.0, 0.0, 1.0, 270.7, 163.9)">
    <path d="M62.25 -63.5 Q62.25 -64.4 62.5 -64.35 L63.35 -64.15 Q63.95 -64.15 64.05 -65.7 L64.3 -68.3 64.85 -68.3 65.15 -64.75 66.85 -64.45 68.35 -65.25 Q69.6 -66.05 70.15 -66.05 L70.3 -65.75 69.05 -64.8 72.65 -65.6 Q72.2 -64.75 70.6 -63.65 L69.5 -62.95 78.05 -62.5 Q82.15 -62.25 87.65 -60.6 95.05 -58.4 100.4 -55.0 L101.9 -53.95 102.1 -53.95 102.1 -53.85 103.85 -52.45 Q106.25 -50.25 106.25 -48.3 106.25 -46.75 104.95 -46.0 104.0 -45.4 102.65 -45.4 100.05 -45.4 95.25 -47.75 L92.1 -49.25 90.75 -49.5 91.4 -49.95 85.15 -49.0 76.85 -47.8 Q76.3 -47.45 76.15 -47.45 75.95 -47.45 75.45 -47.7 L72.2 -47.35 70.55 -47.6 Q70.3 -47.7 70.15 -48.3 L70.95 -48.8 69.85 -49.15 72.4 -50.25 72.55 -50.55 69.4 -50.55 68.8 -51.1 69.6 -51.55 67.9 -51.6 Q67.7 -51.85 68.05 -52.4 L67.6 -52.6 Q67.1 -52.8 66.95 -53.0 L67.05 -53.25 61.2 -53.65 Q61.4 -54.2 62.85 -54.9 L64.85 -55.95 62.8 -55.8 Q62.45 -56.35 62.45 -57.5 L63.25 -57.65 63.2 -57.8 58.2 -58.15 58.2 -58.65 64.95 -59.55 59.15 -59.75 59.05 -59.65 Q58.95 -59.7 58.95 -60.25 L52.15 -60.0 49.95 -59.65 38.75 -59.45 34.95 -59.5 34.25 -59.45 29.25 -59.65 29.0 -59.8 28.75 -59.85 22.25 -59.5 17.9 -59.65 12.3 -60.1 6.7 -60.55 4.9 -60.7 4.5 -60.75 3.95 -60.8 1.85 -61.0 -0.7 -61.2 -1.3 -61.3 -8.9 -62.0 -14.75 -62.6 -22.55 -62.3 -37.1 -63.4 -45.1 -64.65 -51.2 -65.15 -53.2 -65.05 -53.4 -65.15 -54.8 -65.55 -55.25 -65.6 -65.05 -65.6 -78.7 -66.7 -81.6 -66.85 Q-83.55 -67.8 -86.95 -68.1 L-101.15 -69.8 -109.0 -70.2 -119.45 -71.7 -125.8 -73.6 -136.05 -75.3 Q-166.2 -80.75 -173.8 -86.05 L-173.85 -86.0 Q-173.9 -85.8 -174.05 -85.7 -175.7 -86.2 -176.6 -87.1 L-177.0 -87.6 -177.3 -87.6 Q-178.1 -87.6 -178.3 -88.4 L-178.3 -89.25 -178.2 -90.55 -177.0 -91.6 -177.0 -91.65 -176.95 -92.05 -176.95 -92.1 Q-174.95 -93.1 -173.5 -93.95 L-172.85 -93.7 -173.3 -93.2 Q-171.45 -94.45 -168.45 -95.9 L-150.9 -103.4 Q-139.05 -108.4 -133.4 -111.95 -130.65 -113.7 -128.85 -115.4 L-128.85 -115.75 -128.25 -117.3 -128.5 -117.3 -128.5 -117.35 Q-128.95 -116.7 -130.1 -115.95 L-130.65 -116.05 -129.55 -118.35 Q-129.05 -119.1 -129.05 -119.75 -129.05 -120.55 -129.85 -121.75 L-130.65 -122.9 Q-130.65 -123.85 -130.45 -123.0 L-130.45 -123.1 Q-129.0 -123.25 -128.45 -122.35 L-128.3 -122.4 Q-129.2 -123.4 -130.1 -123.5 -129.8 -123.8 -129.8 -124.2 -131.25 -124.9 -133.25 -125.4 L-135.7 -125.95 -143.45 -126.9 Q-166.9 -129.6 -176.4 -133.25 L-176.9 -133.45 -178.85 -133.8 -178.85 -133.85 -179.75 -133.9 -179.85 -133.9 -181.15 -134.1 Q-186.55 -134.95 -194.2 -137.5 -200.25 -139.5 -203.4 -140.1 L-206.65 -140.6 -207.15 -140.7 -210.8 -142.55 Q-215.05 -144.8 -215.05 -148.05 L-214.75 -149.2 -214.1 -150.15 Q-210.4 -152.5 -198.05 -155.75 L-197.95 -155.55 -198.1 -155.45 -196.95 -155.8 -191.95 -157.2 -185.8 -158.3 -184.85 -160.35 -189.0 -160.45 Q-183.4 -161.65 -183.4 -162.05 L-183.35 -162.5 -183.2 -162.85 -178.35 -162.45 -178.35 -162.4 -178.55 -162.2 -178.2 -162.2 -177.7 -161.4 -179.8 -160.6 Q-180.4 -160.0 -181.6 -159.7 L-181.8 -159.65 Q-182.3 -158.0 -185.55 -157.5 L-185.8 -157.45 -186.15 -157.45 -189.2 -157.35 -192.1 -156.45 Q-194.45 -155.15 -200.1 -153.15 -206.35 -150.95 -210.4 -149.9 L-211.1 -148.85 Q-209.5 -144.0 -197.15 -140.3 -187.95 -137.55 -165.9 -133.9 -142.15 -130.0 -134.65 -128.1 -120.45 -124.45 -120.45 -119.75 -120.45 -117.6 -124.4 -114.7 -126.3 -112.95 -130.25 -110.9 -133.1 -109.4 -138.05 -107.2 L-146.25 -103.5 Q-157.25 -98.85 -160.3 -97.2 -166.65 -93.8 -166.65 -91.1 -166.65 -86.1 -159.25 -82.95 -153.5 -80.6 -141.05 -78.55 L-118.05 -75.1 -108.2 -73.2 -85.55 -70.3 -82.7 -70.3 -82.45 -70.3 -76.95 -70.25 -25.95 -65.45 7.65 -62.3 11.25 -62.2 15.25 -61.9 15.15 -62.0 25.0 -61.65 31.45 -61.45 37.65 -61.7 42.5 -61.65 50.65 -62.1 62.3 -62.95 62.25 -63.5 M78.2 -71.8 L78.1 -71.2 77.65 -71.15 Q77.45 -71.4 77.45 -71.95 L78.2 -71.8 M77.45 -44.6 Q79.7 -44.6 80.95 -45.55 82.0 -46.3 82.0 -47.25 L83.6 -47.45 Q83.15 -45.35 81.45 -43.8 75.95 -44.0 71.3 -45.4 L71.05 -45.45 75.85 -45.65 Q76.9 -44.6 77.45 -44.6 M92.4 -56.45 Q92.5 -56.4 92.75 -56.3 L93.8 -56.45 93.75 -57.05 89.75 -58.5 89.2 -58.6 89.55 -58.1 89.7 -57.95 Q91.35 -57.55 92.35 -56.4 L92.4 -56.45 M87.1 -58.75 L86.5 -58.9 85.25 -58.7 85.35 -58.6 87.1 -58.75 M92.2 -53.15 Q92.1 -52.5 90.35 -52.4 L92.8 -51.6 93.0 -52.8 92.9 -53.8 91.55 -54.1 92.15 -53.55 92.2 -53.15 M-189.85 -162.8 L-201.5 -161.55 -209.55 -160.75 -210.1 -160.6 -210.3 -160.55 -213.3 -160.35 -221.05 -158.65 -232.35 -156.1 -242.45 -153.45 Q-248.45 -151.95 -251.6 -151.55 L-257.35 -148.95 Q-264.5 -145.3 -267.35 -142.0 L-265.95 -140.9 Q-265.7 -139.6 -264.05 -137.45 -261.8 -134.6 -258.4 -132.05 -253.8 -128.65 -248.7 -126.95 -249.4 -126.05 -249.2 -124.85 L-248.95 -124.2 -250.1 -124.65 -258.6 -127.85 -257.6 -131.0 -257.35 -131.15 Q-263.25 -130.45 -267.6 -133.15 -266.0 -131.0 -262.75 -129.05 -265.2 -129.75 -267.6 -132.9 L-267.75 -133.05 -268.05 -133.45 Q-270.7 -137.1 -270.7 -139.35 -270.7 -143.05 -267.05 -145.6 -262.5 -150.3 -249.1 -153.85 -241.9 -156.0 -229.45 -158.35 L-221.85 -159.7 -217.35 -160.5 -211.1 -161.45 -202.7 -162.4 -196.95 -162.95 Q-192.1 -164.05 -189.15 -163.85 L-190.8 -163.5 -189.4 -163.6 Q-189.4 -162.9 -189.85 -162.8 M-194.0 -98.85 L-194.3 -98.6 -197.2 -98.4 -200.1 -97.65 -200.05 -97.7 -201.05 -97.45 Q-210.1 -95.1 -220.6 -92.85 -228.6 -90.4 -233.4 -86.5 -238.85 -82.1 -236.6 -78.2 L-236.85 -77.95 -237.6 -77.9 Q-238.65 -77.9 -238.85 -79.2 L-238.85 -80.6 Q-238.85 -85.2 -234.35 -88.65 -230.25 -91.85 -221.05 -94.9 -217.5 -96.1 -199.25 -100.5 -190.15 -102.65 -186.3 -104.15 L-185.15 -105.65 Q-183.4 -106.65 -182.65 -107.8 L-184.05 -108.05 -184.15 -108.35 -181.8 -108.8 Q-180.3 -108.75 -180.3 -107.5 L-180.3 -107.25 -180.25 -107.2 -180.2 -107.8 -178.8 -107.65 Q-178.45 -107.25 -178.4 -106.7 L-177.75 -106.95 Q-177.35 -106.55 -177.35 -105.55 L-177.65 -105.25 -178.5 -105.25 -178.6 -105.15 -178.65 -105.25 -178.95 -104.8 Q-179.6 -104.0 -181.95 -102.9 L-182.35 -102.75 -182.7 -103.1 Q-184.2 -102.05 -185.35 -102.05 L-186.05 -102.15 -186.3 -102.45 -186.25 -102.5 -186.65 -102.35 -187.65 -101.6 Q-190.6 -100.35 -195.5 -98.95 L-194.0 -98.85 M-195.75 -57.4 L-176.35 -56.3 -159.2 -55.3 Q-154.1 -52.1 -138.05 -48.9 -127.4 -46.8 -111.65 -44.8 L-103.05 -44.8 Q-103.3 -43.25 -105.3 -40.85 L-107.15 -39.1 Q-130.1 -42.5 -154.35 -47.3 -179.5 -52.3 -196.4 -57.35 L-195.75 -57.4" fill="#a0f7fe" fill-rule="evenodd" stroke="none"/>
  </g>
</svg>
