<?xml version="1.0" encoding="UTF-8" standalone="no"?>
<svg xmlns:ffdec="https://www.free-decompiler.com/flash" xmlns:xlink="http://www.w3.org/1999/xlink" ffdec:objectType="shape" height="130.8px" width="376.95px" xmlns="http://www.w3.org/2000/svg">
  <g transform="matrix(1.0, 0.0, 0.0, 1.0, 270.7, 164.3)">
    <path d="M88.3 -50.25 Q93.8 -53.2 93.8 -55.15 L93.8 -55.35 94.1 -55.9 93.7 -56.3 Q93.45 -57.05 92.9 -57.25 L92.55 -57.3 90.45 -59.05 Q87.7 -60.3 79.15 -61.35 L76.7 -61.45 74.45 -61.25 Q74.05 -61.55 74.05 -62.05 L68.05 -62.2 68.05 -62.0 59.6 -61.35 59.55 -61.35 59.3 -61.3 59.15 -61.35 59.55 -61.35 55.4 -61.4 54.0 -61.25 43.2 -61.1 42.85 -61.25 40.6 -61.35 40.6 -61.15 40.1 -61.1 39.5 -61.1 39.3 -61.05 26.15 -60.3 29.65 -59.9 30.35 -59.85 Q28.15 -59.3 26.1 -58.2 27.4 -56.95 35.25 -55.5 L31.8 -55.25 Q32.75 -54.25 36.8 -53.1 30.5 -53.95 27.1 -53.25 L27.1 -52.4 Q29.0 -51.55 35.1 -50.15 41.4 -48.75 45.9 -48.5 L44.75 -47.7 43.0 -47.3 42.4 -46.8 42.95 -46.05 46.85 -45.95 Q45.5 -45.35 45.15 -44.8 45.3 -44.6 46.5 -44.5 L48.35 -44.35 57.8 -44.85 60.3 -45.5 62.8 -45.3 63.55 -45.45 63.7 -45.8 63.75 -46.1 64.45 -46.05 64.5 -46.0 Q65.9 -45.35 68.45 -45.35 L71.0 -45.4 71.15 -45.4 Q77.85 -45.85 83.7 -48.1 83.45 -45.6 81.45 -43.8 80.25 -42.65 78.35 -41.75 73.4 -39.45 61.9 -38.15 L34.25 -36.1 -4.95 -33.5 -36.15 -33.5 -38.1 -33.9 -67.4 -34.05 Q-86.75 -36.0 -107.15 -39.1 -130.1 -42.5 -154.35 -47.3 -179.5 -52.3 -196.4 -57.35 -207.9 -60.85 -215.6 -64.3 -216.85 -62.95 -218.7 -62.95 -225.45 -62.95 -232.2 -71.6 -234.4 -74.4 -236.25 -77.7 L-237.25 -79.6 -237.7 -80.7 Q-237.7 -86.15 -230.6 -89.8 -220.6 -93.75 -214.75 -96.35 -212.3 -97.45 -206.4 -98.7 L-195.75 -100.85 Q-182.7 -103.65 -182.7 -107.2 -182.7 -109.65 -188.8 -111.2 -194.9 -112.8 -194.9 -115.8 -194.9 -116.6 -194.55 -117.15 L-194.5 -117.2 -194.75 -117.2 -194.8 -117.2 Q-201.5 -119.05 -209.35 -119.05 -210.85 -119.05 -212.25 -118.45 L-219.8 -119.2 -235.55 -121.4 -238.0 -121.2 Q-241.0 -121.2 -248.95 -124.2 L-250.1 -124.65 -258.6 -127.85 -262.1 -128.9 -262.75 -129.05 Q-265.2 -129.75 -267.6 -132.9 L-267.75 -133.05 -268.05 -133.45 Q-270.7 -137.1 -270.7 -139.35 -270.7 -143.05 -267.05 -145.6 -261.15 -151.7 -240.8 -155.75 L-236.65 -156.55 Q-235.6 -157.05 -233.95 -157.25 L-232.3 -157.3 -230.15 -157.6 -229.85 -157.7 -228.25 -157.9 Q-224.95 -159.3 -217.35 -160.5 L-211.1 -161.45 -198.0 -162.75 -190.3 -163.85 -193.0 -163.3 Q-198.05 -162.05 -200.85 -161.85 L-206.9 -161.05 Q-217.15 -160.85 -221.85 -159.35 L-223.5 -158.7 -224.35 -158.5 Q-226.35 -158.0 -227.5 -157.5 L-227.4 -157.35 -225.7 -155.95 -224.85 -155.05 -222.5 -153.15 -220.4 -151.2 -217.6 -150.05 Q-214.8 -148.9 -213.6 -147.95 L-213.4 -148.2 -213.1 -148.0 -212.2 -148.25 -211.95 -148.4 -211.85 -149.65 Q-209.55 -151.05 -203.8 -152.95 -200.45 -154.05 -198.35 -155.0 -194.5 -156.2 -192.3 -157.1 L-191.95 -157.2 -185.8 -158.3 -184.85 -160.35 -187.0 -160.4 -187.25 -160.8 -188.15 -162.2 Q-186.85 -162.7 -186.65 -163.35 L-185.95 -163.0 -178.35 -162.45 -178.35 -162.4 -178.55 -162.2 -175.7 -162.25 -177.7 -161.4 -179.8 -160.6 Q-180.4 -160.0 -181.6 -159.7 L-181.8 -159.65 Q-182.3 -158.0 -185.55 -157.5 L-185.8 -157.45 -186.15 -157.45 -189.2 -157.35 -192.1 -156.45 Q-194.45 -155.15 -200.1 -153.15 -206.35 -150.95 -210.4 -149.9 L-211.1 -148.85 Q-209.5 -144.0 -197.15 -140.3 -187.95 -137.55 -165.9 -133.9 -142.15 -130.0 -134.65 -128.1 -120.45 -124.45 -120.45 -119.75 -120.45 -117.6 -124.4 -114.7 -126.3 -112.95 -130.25 -110.9 -133.1 -109.4 -138.05 -107.2 L-146.25 -103.5 Q-157.25 -98.85 -160.3 -97.2 -166.65 -93.8 -166.65 -91.1 -166.65 -86.1 -159.25 -82.95 -153.5 -80.6 -141.05 -78.55 L-118.05 -75.1 Q-109.05 -73.6 -102.5 -71.85 L-100.1 -71.2 -89.9 -70.35 -82.7 -70.3 -82.45 -70.3 -76.95 -70.25 -25.95 -65.45 7.65 -62.3 11.25 -62.2 Q27.9 -61.05 37.65 -61.7 L54.75 -61.5 68.75 -62.95 74.05 -62.35 74.9 -62.45 Q79.95 -62.9 87.65 -60.6 95.05 -58.4 100.4 -55.0 L101.9 -53.95 102.1 -53.95 102.1 -53.85 103.85 -52.45 Q106.25 -50.25 106.25 -48.3 106.25 -46.75 104.95 -46.0 104.0 -45.4 102.65 -45.4 100.05 -45.4 95.25 -47.75 L92.1 -49.25 88.3 -50.25 M-227.55 -154.65 L-227.75 -154.9 -227.45 -154.45 -227.55 -154.65 M-230.8 -143.25 L-231.1 -142.9 -230.75 -142.65 -230.65 -142.65 -230.8 -143.25 M-181.6 -104.1 L-181.4 -105.4 -181.5 -106.0 -181.8 -106.1 -186.35 -103.5 -187.25 -102.95 -192.7 -101.1 -205.3 -98.3 -206.5 -97.85 -212.65 -96.8 Q-213.9 -96.4 -216.85 -94.8 L-221.7 -93.1 -224.75 -91.6 Q-229.4 -90.45 -232.4 -87.8 -233.7 -87.3 -235.1 -85.95 -237.6 -83.45 -237.6 -81.7 L-237.45 -80.95 -236.9 -80.8 -236.95 -80.75 -237.25 -79.75 -233.2 -81.5 -227.8 -83.85 Q-219.5 -84.1 -211.25 -85.8 -202.35 -87.65 -200.7 -89.6 -202.25 -90.75 -205.85 -90.95 L-199.6 -92.5 -196.65 -93.3 -196.8 -92.95 -196.7 -92.3 -196.55 -92.35 Q-195.7 -92.25 -194.5 -92.8 L-194.7 -92.25 Q-194.7 -91.1 -194.25 -90.95 L-193.15 -90.8 -190.2 -92.95 Q-187.6 -94.85 -186.95 -96.1 L-187.15 -96.1 -187.1 -96.15 -186.2 -96.9 -186.25 -97.05 -184.25 -97.05 -183.1 -97.85 -182.6 -98.25 Q-181.4 -98.85 -181.4 -100.15 L-181.55 -100.7 -180.3 -101.5 Q-177.75 -103.15 -177.75 -104.3 -177.75 -105.25 -178.0 -104.85 -179.25 -104.05 -181.65 -103.75 L-181.6 -104.1" fill="#13e1ec" fill-rule="evenodd" stroke="none"/>
    <path d="M83.7 -48.1 Q77.85 -45.85 71.15 -45.4 L71.0 -45.4 68.45 -45.35 Q65.9 -45.35 64.5 -46.0 L64.45 -46.05 63.75 -46.1 63.7 -45.8 63.55 -45.45 62.8 -45.3 60.3 -45.5 57.8 -44.85 48.35 -44.35 46.5 -44.5 Q45.3 -44.6 45.15 -44.8 45.5 -45.35 46.85 -45.95 L42.95 -46.05 42.4 -46.8 43.0 -47.3 44.75 -47.7 45.9 -48.5 Q41.4 -48.75 35.1 -50.15 29.0 -51.55 27.1 -52.4 L27.1 -53.25 Q30.5 -53.95 36.8 -53.1 32.75 -54.25 31.8 -55.25 L35.25 -55.5 Q27.4 -56.95 26.1 -58.2 28.15 -59.3 30.35 -59.85 L29.65 -59.9 26.15 -60.3 39.3 -61.05 39.5 -61.1 40.1 -61.1 40.6 -61.15 40.6 -61.35 42.85 -61.25 43.2 -61.1 54.0 -61.25 55.4 -61.4 59.55 -61.35 59.15 -61.35 59.3 -61.3 59.55 -61.35 59.6 -61.35 68.05 -62.0 68.05 -62.2 74.05 -62.05 Q74.05 -61.55 74.45 -61.25 L76.7 -61.45 79.15 -61.35 Q87.7 -60.3 90.45 -59.05 L92.55 -57.3 92.9 -57.25 Q93.45 -57.05 93.7 -56.3 L94.1 -55.9 93.8 -55.35 93.8 -55.15 Q93.8 -53.2 88.3 -50.25 L86.85 -49.5 83.7 -48.1 M-186.65 -163.35 Q-186.85 -162.7 -188.15 -162.2 L-187.25 -160.8 -187.0 -160.4 -184.85 -160.35 -185.8 -158.3 -191.95 -157.2 -192.3 -157.1 Q-194.5 -156.2 -198.35 -155.0 -200.45 -154.05 -203.8 -152.95 -209.55 -151.05 -211.85 -149.65 L-211.95 -148.4 -212.2 -148.25 -213.1 -148.0 -213.4 -148.2 -213.6 -147.95 Q-214.8 -148.9 -217.6 -150.05 L-220.4 -151.2 -222.5 -153.15 -224.85 -155.05 -225.7 -155.95 -227.4 -157.35 -227.5 -157.5 Q-226.35 -158.0 -224.35 -158.5 L-223.5 -158.7 -221.85 -159.35 Q-217.15 -160.85 -206.9 -161.05 L-200.85 -161.85 Q-198.05 -162.05 -193.0 -163.3 L-190.3 -163.85 -186.85 -164.3 -186.75 -164.2 -186.65 -163.6 -186.65 -163.35 M-227.55 -154.65 L-227.45 -154.45 -227.75 -154.9 -227.55 -154.65 M-181.6 -104.1 L-181.65 -103.75 Q-179.25 -104.05 -178.0 -104.85 -177.75 -105.25 -177.75 -104.3 -177.75 -103.15 -180.3 -101.5 L-181.55 -100.7 -181.4 -100.15 Q-181.4 -98.85 -182.6 -98.25 L-183.1 -97.85 -184.25 -97.05 -186.25 -97.05 -186.2 -96.9 -187.1 -96.15 -187.15 -96.1 -186.95 -96.1 Q-187.6 -94.85 -190.2 -92.95 L-193.15 -90.8 -194.25 -90.95 Q-194.7 -91.1 -194.7 -92.25 L-194.5 -92.8 Q-195.7 -92.25 -196.55 -92.35 L-196.7 -92.3 -196.8 -92.95 -196.65 -93.3 -199.6 -92.5 -205.85 -90.95 Q-202.25 -90.75 -200.7 -89.6 -202.35 -87.65 -211.25 -85.8 -219.5 -84.1 -227.8 -83.85 L-233.2 -81.5 -237.25 -79.75 -236.95 -80.75 -236.9 -80.8 -237.45 -80.95 -237.6 -81.7 Q-237.6 -83.45 -235.1 -85.95 -233.7 -87.3 -232.4 -87.8 -229.4 -90.45 -224.75 -91.6 L-221.7 -93.1 -216.85 -94.8 Q-213.9 -96.4 -212.65 -96.8 L-206.5 -97.85 -205.3 -98.3 -192.7 -101.1 -187.25 -102.95 -186.35 -103.5 -181.8 -106.1 -181.5 -106.0 -181.4 -105.4 -181.6 -104.1" fill="#0fb8f0" fill-rule="evenodd" stroke="none"/>
    <path d="M-212.25 -118.45 Q-210.85 -119.05 -209.35 -119.05 -201.5 -119.05 -194.8 -117.2 L-196.85 -117.3 -211.6 -118.4 -212.25 -118.45" fill="#a0f7fe" fill-rule="evenodd" stroke="none"/>
  </g>
</svg>
