<?xml version="1.0" encoding="UTF-8" standalone="no"?>
<svg xmlns:ffdec="https://www.free-decompiler.com/flash" xmlns:xlink="http://www.w3.org/1999/xlink" ffdec:objectType="shape" height="124.8px" width="376.95px" xmlns="http://www.w3.org/2000/svg">
  <g transform="matrix(1.0, 0.0, 0.0, 1.0, 270.7, 163.9)">
    <path d="M60.85 -63.9 L62.15 -63.7 Q62.95 -63.7 63.65 -65.45 64.35 -67.25 64.7 -67.35 65.45 -66.5 65.25 -65.75 L64.95 -64.95 65.45 -65.2 66.3 -64.85 66.35 -64.4 66.35 -64.25 70.65 -64.25 71.25 -64.15 71.15 -64.0 Q70.6 -63.35 69.4 -63.0 L78.05 -62.5 Q82.05 -62.25 87.35 -60.7 88.55 -60.7 90.25 -59.75 96.0 -57.8 100.4 -55.0 L101.9 -53.95 102.1 -53.95 102.1 -53.85 103.85 -52.45 Q106.25 -50.25 106.25 -48.3 106.25 -46.75 104.95 -46.0 104.0 -45.4 102.65 -45.4 100.05 -45.4 95.25 -47.75 L93.15 -48.75 93.25 -49.1 Q93.8 -50.9 93.8 -52.35 93.8 -53.85 93.45 -55.0 L92.65 -54.05 91.4 -52.85 92.65 -51.8 93.45 -51.15 Q93.45 -49.55 89.1 -48.2 86.1 -47.3 79.7 -46.2 L73.35 -46.2 72.1 -47.0 69.75 -47.55 71.1 -48.7 72.85 -50.25 72.5 -50.55 66.65 -50.75 66.45 -51.6 64.0 -51.85 63.95 -51.75 Q63.85 -51.8 63.85 -52.4 63.45 -52.8 66.0 -53.65 L64.7 -54.7 64.85 -54.95 Q64.85 -55.35 63.65 -55.95 L60.65 -56.0 Q60.5 -56.2 60.5 -56.65 60.5 -57.1 60.65 -57.1 L60.85 -57.3 59.8 -57.05 58.5 -57.05 Q58.2 -57.1 58.2 -57.7 L58.25 -58.2 Q58.35 -58.15 58.4 -58.25 61.15 -58.85 63.5 -60.35 L54.6 -59.75 52.65 -58.65 50.15 -58.75 Q47.6 -59.0 47.4 -59.4 L47.55 -59.55 38.75 -59.45 34.95 -59.5 34.25 -59.45 29.25 -59.65 29.0 -59.8 28.75 -59.85 22.25 -59.5 17.9 -59.65 12.3 -60.1 6.7 -60.55 4.9 -60.7 4.5 -60.75 3.95 -60.8 1.85 -61.0 -0.7 -61.2 -1.3 -61.3 -8.9 -62.0 -14.75 -62.6 -22.55 -62.3 -37.1 -63.4 -45.1 -64.65 -51.2 -65.15 -53.2 -65.05 -53.4 -65.15 -54.8 -65.55 -55.25 -65.6 -65.05 -65.6 -78.7 -66.7 -81.6 -66.85 Q-83.55 -67.8 -86.95 -68.1 L-89.8 -68.45 Q-91.95 -69.85 -94.85 -69.0 L-101.15 -69.8 -109.0 -70.2 -119.45 -71.7 -125.8 -73.6 -136.05 -75.3 Q-164.3 -80.45 -172.75 -85.4 L-173.3 -85.15 Q-176.0 -85.6 -176.8 -87.55 L-177.65 -87.3 -178.05 -88.5 -178.3 -89.85 Q-178.3 -90.75 -177.9 -91.55 -177.3 -92.65 -176.5 -92.35 L-176.45 -92.05 -176.35 -92.3 Q-175.35 -93.85 -173.9 -93.6 L-173.6 -93.3 -173.75 -92.9 Q-171.8 -94.25 -168.45 -95.9 L-150.9 -103.4 Q-139.05 -108.4 -133.4 -111.95 -129.4 -114.5 -127.4 -116.9 L-128.85 -115.8 -128.95 -115.7 -129.05 -116.35 -128.15 -117.9 -127.75 -118.6 -128.85 -118.4 -129.05 -118.7 -129.05 -121.4 -128.35 -121.35 -127.85 -121.2 -128.95 -122.55 -128.1 -122.85 -127.75 -122.9 -129.0 -123.75 -129.15 -123.75 Q-130.25 -123.75 -131.2 -124.7 L-131.2 -124.75 -133.25 -125.4 -135.7 -125.95 -143.45 -126.9 Q-166.9 -129.6 -176.4 -133.25 L-176.9 -133.45 -178.85 -133.8 -178.85 -133.85 -179.75 -133.9 -179.85 -133.9 -181.15 -134.1 Q-186.55 -134.95 -194.2 -137.5 -200.25 -139.5 -203.4 -140.1 L-206.65 -140.6 -207.15 -140.7 -210.8 -142.55 Q-213.3 -143.95 -214.35 -145.6 L-214.6 -145.6 Q-215.2 -146.8 -215.2 -147.4 L-214.95 -148.7 -214.9 -148.75 -214.75 -149.2 -214.1 -150.15 Q-211.6 -151.75 -205.1 -153.7 L-205.4 -153.85 -203.6 -154.2 -199.15 -155.45 -198.05 -155.75 -197.95 -155.55 -198.1 -155.45 -196.95 -155.8 -191.95 -157.2 -185.8 -158.3 -184.85 -160.35 -189.0 -160.45 Q-183.4 -161.65 -183.4 -162.05 L-183.35 -162.5 -183.2 -162.85 -178.35 -162.45 -178.35 -162.4 -178.55 -162.2 -178.2 -162.2 -177.7 -161.4 -179.8 -160.6 Q-180.4 -160.0 -181.6 -159.7 L-181.8 -159.65 Q-182.3 -158.0 -185.55 -157.5 L-185.8 -157.45 -186.15 -157.45 -189.2 -157.35 -192.1 -156.45 Q-194.45 -155.15 -200.1 -153.15 -206.35 -150.95 -210.4 -149.9 L-211.1 -148.85 Q-209.5 -144.0 -197.15 -140.3 -187.95 -137.55 -165.9 -133.9 -142.15 -130.0 -134.65 -128.1 -120.45 -124.45 -120.45 -119.75 -120.45 -117.6 -124.4 -114.7 -126.3 -112.95 -130.25 -110.9 -133.1 -109.4 -138.05 -107.2 L-146.25 -103.5 Q-157.25 -98.85 -160.3 -97.2 -166.65 -93.8 -166.65 -91.1 -166.65 -86.1 -159.25 -82.95 -153.5 -80.6 -141.05 -78.55 L-118.05 -75.1 -108.2 -73.2 -85.55 -70.3 -82.7 -70.3 -82.45 -70.3 -76.95 -70.25 -25.95 -65.45 7.65 -62.3 11.25 -62.2 15.25 -61.9 15.15 -62.0 25.0 -61.65 31.45 -61.45 37.65 -61.7 42.5 -61.65 50.65 -62.1 61.0 -62.85 Q60.85 -63.3 60.85 -63.9 M79.25 -71.5 L79.9 -71.5 80.65 -70.65 80.55 -70.4 80.1 -70.1 Q79.15 -70.25 79.15 -70.75 L79.25 -71.5 M85.15 -65.65 L84.7 -65.95 Q85.15 -67.0 86.2 -67.0 L86.4 -66.45 Q86.2 -65.8 85.35 -65.5 L85.15 -65.65 M-189.85 -162.8 L-201.5 -161.55 -205.75 -161.15 -206.55 -160.85 -206.7 -160.9 -211.8 -160.45 -213.3 -160.35 -221.05 -158.65 -232.35 -156.1 -242.45 -153.45 Q-248.45 -151.95 -251.6 -151.55 L-257.35 -148.95 -261.0 -146.95 -261.0 -146.9 -262.3 -146.05 Q-264.2 -144.65 -265.0 -143.6 L-265.45 -143.9 -267.35 -142.0 -265.95 -140.9 Q-265.7 -139.6 -264.05 -137.45 -261.8 -134.6 -258.4 -132.05 -253.8 -128.65 -248.7 -126.95 -249.4 -126.05 -249.2 -124.85 L-248.95 -124.2 -250.1 -124.65 -258.6 -127.85 -257.6 -131.0 -257.35 -131.15 Q-263.25 -130.45 -267.6 -133.15 -266.0 -131.0 -262.75 -129.05 -265.2 -129.75 -267.6 -132.9 L-267.75 -133.05 -268.05 -133.45 Q-270.7 -137.1 -270.7 -139.35 -270.7 -143.05 -267.05 -145.6 -262.5 -150.3 -249.1 -153.85 -241.9 -156.0 -229.45 -158.35 L-221.85 -159.7 -217.35 -160.5 -211.1 -161.45 -202.7 -162.4 -196.95 -162.95 Q-192.1 -164.05 -189.15 -163.85 L-190.8 -163.5 -189.4 -163.6 Q-189.4 -162.9 -189.85 -162.8 M-182.05 -109.2 L-182.0 -108.95 -180.9 -108.9 Q-180.65 -108.6 -180.65 -108.0 L-179.6 -107.4 -179.25 -108.35 Q-178.8 -108.0 -178.2 -106.9 L-178.1 -106.75 -177.65 -107.4 -177.4 -107.2 -177.35 -106.45 Q-177.35 -105.8 -178.15 -104.9 L-180.1 -103.3 -180.45 -103.4 Q-180.85 -103.55 -181.05 -103.75 L-184.6 -102.15 -185.9 -102.15 -185.95 -102.15 -187.45 -101.7 -187.65 -101.6 Q-192.1 -99.75 -201.05 -97.45 -210.1 -95.1 -220.6 -92.85 -228.6 -90.4 -233.4 -86.5 -238.85 -82.1 -236.6 -78.2 L-236.85 -77.95 -237.6 -77.9 Q-238.65 -77.9 -238.85 -79.2 L-238.85 -80.6 Q-238.85 -85.2 -234.35 -88.65 -230.25 -91.85 -221.05 -94.9 -217.5 -96.1 -199.25 -100.5 -189.45 -102.85 -185.75 -104.4 -184.7 -105.75 -184.4 -106.7 -183.55 -107.8 -184.05 -108.8 L-183.2 -109.15 -182.05 -109.2 M-195.75 -57.4 L-176.35 -56.3 -159.2 -55.3 Q-154.1 -52.1 -138.05 -48.9 -127.4 -46.8 -111.65 -44.8 L-103.05 -44.8 Q-103.3 -43.25 -105.3 -40.85 L-107.15 -39.1 Q-130.1 -42.5 -154.35 -47.3 -179.5 -52.3 -196.4 -57.35 L-195.75 -57.4 M-129.05 -122.1 L-129.6 -121.9 -130.55 -122.35 -130.65 -123.2 Q-129.95 -123.2 -129.15 -122.55 L-129.05 -122.1 M-128.85 -117.45 L-128.75 -117.2 Q-129.15 -116.6 -129.5 -116.6 L-129.7 -117.45 -128.85 -117.45" fill="#a0f7fe" fill-rule="evenodd" stroke="none"/>
  </g>
</svg>
