<?xml version="1.0" encoding="UTF-8" standalone="no"?>
<svg xmlns:ffdec="https://www.free-decompiler.com/flash" xmlns:xlink="http://www.w3.org/1999/xlink" ffdec:objectType="shape" height="152.0px" width="141.1px" xmlns="http://www.w3.org/2000/svg">
  <g transform="matrix(1.0, 0.0, 0.0, 1.0, 3.95, 309.0)">
    <path d="M78.8 -308.95 L79.0 -308.75 Q79.55 -307.9 79.25 -306.65 L79.1 -306.4 78.7 -306.05 78.35 -305.95 Q78.15 -305.95 78.0 -306.1 77.65 -306.4 77.45 -307.2 L77.2 -308.3 77.25 -308.5 77.45 -308.7 78.55 -309.0 78.8 -308.95 M47.35 -266.25 L47.35 -266.0 Q47.0 -264.7 44.15 -264.15 L43.9 -264.15 43.65 -264.35 43.5 -264.35 Q43.0 -264.4 43.0 -266.05 43.0 -266.75 43.15 -267.05 43.45 -267.75 44.05 -267.6 L44.6 -267.35 Q46.6 -267.15 47.2 -266.5 L47.35 -266.25 M49.65 -248.95 Q50.55 -248.1 50.55 -246.35 L50.55 -246.15 Q50.3 -245.45 49.1 -244.95 L48.9 -244.9 48.7 -244.95 48.0 -245.1 47.7 -245.2 Q47.3 -245.35 47.3 -246.9 47.3 -248.5 47.9 -248.85 L49.3 -249.1 49.65 -248.95 M0.25 -215.2 L0.05 -214.85 -2.0 -213.65 -2.05 -213.6 -2.6 -213.35 -2.75 -213.3 Q-3.4 -213.2 -3.7 -213.75 L-3.95 -214.85 Q-3.95 -216.55 -2.75 -216.55 L-2.65 -216.55 -1.7 -216.5 -1.5 -216.55 -1.3 -216.5 0.2 -215.55 0.25 -215.2 M16.15 -198.15 L16.35 -198.05 Q20.55 -194.45 21.65 -193.05 L21.75 -192.75 21.65 -192.45 21.4 -192.25 Q19.6 -191.7 17.1 -194.15 15.0 -196.15 14.7 -197.45 L14.7 -197.75 14.85 -197.95 15.1 -198.1 15.95 -198.2 16.15 -198.15 M123.55 -287.2 L123.8 -287.4 Q124.25 -287.7 124.5 -287.1 L124.55 -286.75 124.6 -285.8 Q124.7 -285.05 122.85 -283.75 121.3 -282.65 119.6 -281.9 L119.25 -281.85 118.95 -282.1 118.95 -282.5 Q119.25 -283.5 120.9 -285.15 122.45 -286.7 123.45 -287.05 L123.55 -287.2 M136.6 -278.0 L136.9 -277.9 137.05 -277.65 Q137.3 -276.9 137.05 -276.15 L136.8 -275.9 Q134.25 -274.45 132.2 -273.8 128.7 -272.7 119.8 -272.5 L118.05 -272.7 Q115.8 -273.1 115.9 -273.9 L116.05 -274.25 116.4 -274.4 Q129.25 -274.4 136.35 -277.95 L136.6 -278.0 M121.0 -244.6 L121.25 -244.45 121.85 -243.9 122.0 -243.65 122.0 -243.35 120.55 -241.0 120.4 -240.85 120.15 -240.8 119.4 -240.8 119.15 -240.85 119.0 -241.0 Q118.35 -242.0 118.35 -243.0 L118.35 -243.1 118.55 -244.2 118.75 -244.45 119.05 -244.6 119.6 -244.65 121.0 -244.6 M98.2 -229.65 L100.75 -226.75 100.9 -226.4 100.9 -225.8 100.8 -225.45 100.5 -225.3 100.2 -225.35 Q98.35 -226.3 96.55 -228.1 L94.2 -230.55 94.05 -230.9 94.05 -231.45 94.2 -231.8 94.55 -231.95 Q95.95 -232.0 98.15 -229.7 L98.2 -229.65 M103.15 -173.55 L103.15 -173.2 101.35 -170.8 101.05 -170.65 99.0 -170.0 98.8 -169.9 98.6 -169.9 96.7 -170.3 96.4 -170.5 96.3 -170.9 96.55 -171.2 99.45 -172.65 102.55 -173.85 102.9 -173.85 103.15 -173.55 M93.45 -174.5 L93.75 -174.65 95.0 -174.85 95.25 -174.8 95.75 -174.6 95.85 -174.5 Q96.1 -174.4 96.1 -172.95 L96.1 -172.05 96.1 -171.75 96.05 -171.6 95.85 -171.35 Q95.55 -171.15 95.3 -171.35 L93.9 -170.85 93.6 -170.9 93.35 -171.15 92.9 -172.3 92.85 -172.55 93.0 -172.8 Q93.5 -173.45 93.35 -173.95 L93.3 -174.25 93.45 -174.5 M42.95 -157.6 L42.8 -157.9 42.9 -158.2 Q43.15 -158.85 45.05 -159.1 L51.15 -159.5 51.35 -159.45 Q53.35 -158.65 53.5 -158.15 L53.55 -157.85 53.45 -157.6 53.2 -157.45 51.3 -157.0 51.15 -157.0 45.15 -157.0 45.05 -157.0 43.2 -157.45 42.95 -157.6 M10.4 -187.85 L10.4 -187.6 Q10.2 -186.7 8.55 -185.8 8.15 -185.45 7.8 -185.4 L7.85 -185.4 Q7.15 -185.25 6.85 -185.8 6.6 -186.15 6.6 -186.9 6.6 -188.55 7.7 -188.75 L7.7 -188.8 9.4 -188.8 9.7 -188.65 10.25 -188.1 10.4 -187.85 M6.15 -193.1 L8.05 -191.6 8.3 -191.4 8.35 -191.15 8.25 -190.85 8.05 -190.65 6.95 -190.25 6.7 -190.25 Q5.5 -190.45 3.95 -191.0 L3.75 -191.15 Q2.25 -192.65 1.95 -193.55 L1.95 -193.9 2.2 -194.2 2.5 -194.35 2.6 -194.5 2.8 -194.7 3.05 -194.75 Q4.1 -194.75 6.1 -193.15 L6.15 -193.1 M18.95 -168.05 Q24.15 -166.65 26.05 -165.2 L26.9 -164.7 Q27.55 -164.45 27.45 -164.05 27.55 -163.35 25.75 -163.35 22.7 -163.35 20.9 -164.9 L18.35 -166.75 18.1 -166.9 17.95 -167.2 18.0 -167.5 18.25 -167.7 18.35 -167.75 18.4 -167.85 18.65 -168.05 18.95 -168.05 M18.4 -167.75 L18.45 -167.8 18.4 -167.75" fill="#cdffb4" fill-opacity="0.3019608" fill-rule="evenodd" stroke="none"/>
    <path d="M78.75 -306.8 L78.35 -306.45 77.9 -307.35 77.7 -308.3 78.55 -308.5 Q79.0 -307.8 78.75 -306.8 M43.65 -264.85 Q43.5 -264.9 43.5 -266.05 43.5 -267.2 43.95 -267.1 L44.4 -266.9 Q46.3 -266.7 46.85 -266.15 46.5 -265.1 44.05 -264.65 L43.65 -264.85 M49.3 -248.6 Q50.05 -247.85 50.05 -246.35 49.85 -245.8 48.9 -245.4 L48.0 -245.6 Q47.8 -245.75 47.8 -246.9 47.8 -248.15 48.2 -248.45 L49.3 -248.6 M136.55 -276.35 Q134.05 -274.9 132.05 -274.3 128.6 -273.2 119.8 -273.0 L118.1 -273.2 Q116.4 -273.5 116.4 -273.9 129.4 -273.9 136.55 -277.5 136.75 -276.9 136.55 -276.35 M123.95 -286.95 L124.1 -285.8 Q124.1 -285.25 122.55 -284.15 121.05 -283.1 119.4 -282.35 119.7 -283.25 121.25 -284.8 122.85 -286.4 123.75 -286.65 L123.95 -286.95 M120.9 -244.1 L121.5 -243.55 120.15 -241.3 119.4 -241.3 Q118.85 -242.15 118.85 -243.0 L119.05 -244.1 119.65 -244.15 120.9 -244.1 M94.55 -230.9 L94.55 -231.45 Q95.8 -231.45 97.8 -229.35 L100.4 -226.4 100.4 -225.8 Q98.65 -226.7 96.9 -228.45 L94.55 -230.9 M95.5 -174.15 L95.6 -172.95 95.55 -171.8 95.5 -172.1 Q94.75 -171.55 93.8 -171.35 L93.35 -172.5 Q94.1 -173.4 93.8 -174.15 L95.05 -174.35 Q95.4 -174.2 95.5 -174.15 M99.65 -172.2 L102.65 -173.4 Q102.4 -172.75 100.95 -171.15 99.25 -170.8 98.7 -170.4 L96.8 -170.8 Q97.45 -171.25 99.65 -172.2 M53.05 -157.95 L51.15 -157.5 45.15 -157.5 43.3 -157.95 Q43.55 -158.4 45.1 -158.6 L51.15 -159.0 Q52.9 -158.3 53.05 -157.95 M15.15 -197.6 L16.0 -197.7 21.25 -192.75 Q19.7 -192.3 17.45 -194.5 15.5 -196.4 15.15 -197.6 M2.7 -193.9 L3.0 -194.25 Q3.95 -194.2 5.8 -192.75 L7.85 -191.15 6.75 -190.75 Q5.6 -190.95 4.1 -191.5 2.7 -192.9 2.4 -193.75 L2.7 -193.9 M9.9 -187.75 Q9.7 -187.0 8.25 -186.25 L7.7 -185.9 Q7.1 -185.75 7.1 -186.9 7.1 -188.1 7.8 -188.3 L9.35 -188.3 9.9 -187.75 M18.8 -167.6 Q23.9 -166.2 25.75 -164.8 L26.7 -164.25 26.95 -164.05 25.75 -163.85 Q22.9 -163.85 21.2 -165.3 L18.45 -167.25 18.65 -167.35 18.8 -167.6 M-0.25 -215.3 L-2.25 -214.1 -2.85 -213.8 Q-3.45 -213.7 -3.45 -214.85 -3.45 -216.0 -2.75 -216.05 -1.85 -215.9 -1.5 -216.05 L-0.25 -215.3" fill="#ffffff" fill-opacity="0.5019608" fill-rule="evenodd" stroke="none"/>
  </g>
</svg>
