<?xml version="1.0" encoding="UTF-8" standalone="no"?>
<svg xmlns:ffdec="https://www.free-decompiler.com/flash" xmlns:xlink="http://www.w3.org/1999/xlink" ffdec:objectType="shape" height="389.45px" width="376.1px" xmlns="http://www.w3.org/2000/svg">
  <g transform="matrix(1.0, 0.0, 0.0, 1.0, 72.45, 488.4)">
    <path d="M161.05 -483.45 Q170.15 -485.6 193.5 -488.4 L226.8 -488.4 Q244.6 -486.55 255.2 -482.85 261.85 -480.5 273.05 -474.05 275.85 -472.4 278.1 -469.6 L281.25 -465.45 Q285.1 -464.15 289.1 -450.5 290.8 -444.75 291.7 -440.2 294.35 -432.4 296.6 -422.7 303.65 -392.35 303.65 -365.8 303.65 -356.65 302.7 -344.95 L300.65 -323.4 300.55 -321.5 300.55 -321.55 300.5 -321.05 Q299.65 -308.95 298.85 -302.4 298.1 -296.2 296.8 -290.95 295.1 -279.5 292.55 -270.9 291.25 -266.55 287.4 -258.5 L282.65 -248.4 Q278.75 -237.45 272.85 -226.6 265.35 -212.75 255.15 -200.05 L245.0 -187.05 Q238.5 -179.05 232.15 -173.4 226.2 -168.1 214.45 -160.55 209.05 -156.35 200.15 -151.85 L191.65 -146.8 Q177.65 -138.1 169.7 -133.6 155.65 -125.6 141.9 -120.4 130.4 -115.65 125.1 -113.85 121.1 -112.45 116.35 -111.35 107.1 -107.95 90.25 -104.3 68.1 -99.55 61.5 -99.55 L59.45 -99.75 52.5 -98.95 52.4 -98.95 51.9 -100.9 51.15 -103.4 50.0 -106.85 49.6 -108.25 Q45.55 -120.05 41.85 -131.8 L41.2 -132.25 Q40.9 -134.45 38.9 -136.95 L39.5 -136.85 39.75 -136.6 40.1 -136.85 40.3 -136.9 40.15 -136.95 40.3 -137.15 40.15 -137.2 Q40.0 -138.05 38.95 -139.25 L38.55 -139.75 37.2 -141.65 37.1 -141.8 Q37.3 -144.45 34.3 -147.4 L34.3 -147.85 Q34.3 -149.95 30.95 -152.95 27.45 -156.0 23.35 -155.5 25.3 -156.45 26.15 -156.45 L27.7 -156.25 29.4 -156.45 Q28.3 -161.0 21.2 -159.35 L18.1 -158.5 Q17.0 -159.55 14.3 -159.65 11.3 -159.7 10.1 -160.45 L12.85 -161.5 Q13.4 -161.85 13.4 -162.8 L13.15 -163.55 12.65 -163.8 7.3 -163.6 6.1 -164.45 Q4.7 -165.3 2.75 -165.3 1.25 -165.3 -1.05 -164.1 L-1.05 -164.3 Q-1.05 -167.85 -1.55 -169.5 L-4.2 -166.55 Q-5.95 -164.25 -8.7 -164.1 L-8.25 -164.4 -6.65 -166.1 Q-6.05 -166.75 -6.05 -167.35 -6.05 -168.4 -6.25 -168.0 L-9.65 -167.15 -14.2 -166.35 Q-17.55 -166.35 -20.25 -167.95 L-20.9 -169.2 -23.0 -173.55 -21.3 -173.6 Q-20.95 -173.65 -20.95 -174.35 -20.95 -176.35 -24.45 -178.9 L-26.55 -180.1 Q-26.75 -181.4 -28.4 -183.5 L-30.45 -185.5 -30.5 -185.5 -30.5 -185.55 Q-31.3 -186.1 -32.05 -186.35 L-32.2 -186.1 -33.75 -186.7 Q-33.95 -188.3 -34.1 -188.75 -34.55 -190.4 -32.4 -199.0 L-31.75 -201.35 -31.8 -202.55 -32.2 -211.05 -34.65 -220.15 Q-37.6 -231.3 -39.85 -238.0 -42.85 -246.8 -52.1 -260.25 L-53.7 -262.55 Q-55.3 -263.2 -55.55 -265.1 L-56.25 -265.7 -56.65 -265.95 Q-59.2 -267.25 -61.9 -269.25 L-66.75 -273.2 -70.4 -277.6 -71.5 -279.1 -71.5 -278.95 -71.95 -280.2 -72.45 -281.05 Q-72.05 -292.45 -65.15 -309.65 -59.75 -323.15 -51.0 -338.8 -43.15 -352.9 -29.95 -368.3 -17.35 -383.1 -1.0 -397.65 34.35 -429.2 84.75 -456.9 97.25 -463.8 112.85 -469.25 122.0 -472.45 138.0 -476.9 L161.05 -483.45 M285.6 -454.95 L285.25 -455.95 285.35 -455.45 285.6 -454.95" fill="#b6ffff" fill-opacity="0.5019608" fill-rule="evenodd" stroke="none"/>
  </g>
</svg>
