<?xml version="1.0" encoding="UTF-8" standalone="no"?>
<svg xmlns:ffdec="https://www.free-decompiler.com/flash" xmlns:xlink="http://www.w3.org/1999/xlink" ffdec:objectType="shape" height="309.9px" width="384.25px" xmlns="http://www.w3.org/2000/svg">
  <g transform="matrix(1.0, 0.0, 0.0, 1.0, 152.2, 448.2)">
    <path d="M145.7 -448.15 L145.95 -447.9 Q146.9 -446.05 147.9 -445.25 L147.95 -445.25 Q148.75 -444.6 150.7 -444.0 L150.75 -444.15 151.05 -444.3 151.35 -444.3 153.25 -443.45 156.3 -443.0 Q160.05 -442.5 162.15 -441.05 L162.2 -441.0 165.25 -438.65 Q170.0 -435.9 171.75 -432.2 172.85 -429.9 173.05 -425.7 L173.65 -417.85 175.2 -408.6 176.3 -405.7 177.5 -402.45 177.8 -402.4 177.95 -402.35 Q178.6 -402.3 178.6 -401.0 L178.45 -400.55 178.45 -400.4 178.3 -400.1 178.15 -400.0 177.5 -399.2 177.5 -399.15 176.0 -397.5 175.8 -397.15 175.6 -397.0 175.15 -397.05 170.35 -391.65 Q163.6 -384.45 162.4 -383.6 L162.4 -383.55 161.6 -383.1 Q157.15 -379.15 150.4 -375.65 143.4 -372.0 127.3 -365.8 122.95 -364.15 118.85 -360.95 L118.8 -360.95 111.55 -355.2 Q103.4 -349.5 89.05 -346.7 L82.75 -344.05 Q72.15 -339.3 65.4 -335.1 L65.1 -335.05 55.25 -335.05 55.1 -335.05 50.55 -335.45 45.95 -335.9 46.05 -335.85 43.6 -336.05 40.9 -336.4 Q37.75 -336.4 35.9 -337.45 34.2 -338.4 32.45 -338.4 L32.15 -338.5 Q30.0 -340.1 28.1 -342.0 L24.15 -341.65 23.95 -341.6 22.4 -341.15 22.2 -341.05 22.15 -341.05 Q17.3 -337.6 13.85 -331.95 L11.75 -328.05 Q10.55 -325.65 9.6 -322.85 L9.6 -322.9 Q8.3 -319.15 5.85 -309.15 3.5 -299.8 3.5 -298.9 3.5 -297.7 3.75 -296.55 L3.75 -296.4 3.75 -296.15 3.9 -295.95 4.05 -295.55 4.05 -295.4 4.05 -291.2 3.9 -290.85 3.05 -290.75 2.55 -290.85 Q0.8 -288.8 0.25 -285.3 L-0.5 -280.7 Q-0.35 -278.2 0.5 -276.75 L0.55 -276.4 0.4 -276.1 -0.05 -275.7 -0.3 -275.6 -0.6 -275.65 Q-1.55 -276.05 -1.8 -278.25 L-1.8 -278.35 -2.1 -278.4 -2.35 -278.6 -2.4 -278.95 -1.85 -282.45 -1.8 -285.1 -0.7 -288.8 -0.65 -288.9 -0.65 -289.0 -0.45 -289.55 Q0.3 -291.8 2.05 -293.05 0.8 -296.15 0.8 -299.75 0.8 -308.45 7.85 -323.75 L9.35 -326.85 9.35 -326.9 Q10.8 -330.55 13.25 -334.05 L13.2 -334.0 Q17.65 -341.6 22.15 -345.6 L22.4 -345.75 37.65 -348.1 47.85 -349.45 47.9 -349.55 48.1 -349.75 48.35 -349.8 Q50.65 -349.65 51.15 -349.2 L52.35 -348.5 52.4 -348.45 52.7 -348.2 53.7 -347.7 53.75 -347.7 55.7 -346.55 73.7 -346.75 82.8 -348.85 85.35 -350.6 85.4 -350.6 Q87.1 -351.6 90.8 -351.6 L93.8 -351.85 95.9 -352.45 98.05 -353.1 99.9 -354.05 100.3 -354.1 100.6 -353.9 Q108.25 -356.45 112.1 -358.45 L115.3 -360.75 115.3 -360.8 Q116.6 -362.3 120.5 -364.8 124.6 -367.6 127.85 -369.05 129.6 -369.85 133.15 -372.0 L133.2 -372.05 Q136.6 -373.85 139.2 -373.85 144.05 -373.9 162.85 -386.25 164.45 -387.4 170.15 -393.7 175.7 -400.05 175.8 -400.85 175.75 -401.4 174.6 -402.2 L174.65 -402.2 Q172.95 -403.3 172.6 -407.05 172.4 -409.15 172.3 -413.3 L171.8 -418.9 170.3 -426.8 Q169.9 -429.25 168.2 -431.65 166.45 -434.15 163.75 -435.95 158.9 -439.25 152.35 -442.15 148.35 -443.05 147.0 -444.1 145.95 -445.0 145.2 -445.05 L145.1 -445.0 144.85 -444.95 Q144.25 -444.85 144.25 -446.3 144.25 -447.5 144.75 -447.8 L145.35 -448.15 145.7 -448.15 M230.6 -222.85 L231.95 -221.7 232.05 -221.45 232.0 -221.15 Q231.05 -219.4 229.25 -218.65 L227.35 -218.0 227.0 -217.85 226.45 -218.0 225.75 -218.55 225.7 -218.85 225.85 -219.15 Q226.95 -220.3 228.1 -220.5 L229.35 -220.75 228.95 -221.2 228.9 -221.25 Q228.55 -221.7 228.55 -222.4 228.55 -223.45 228.75 -223.5 L229.15 -223.7 229.25 -223.7 229.55 -223.7 229.8 -223.45 230.6 -222.85 M81.1 -345.45 L78.45 -345.55 77.35 -345.6 73.3 -344.9 57.4 -345.0 57.4 -344.9 57.3 -344.65 57.1 -344.45 56.85 -344.35 56.6 -344.35 Q53.9 -344.75 51.5 -346.75 49.85 -348.1 48.05 -347.75 L47.75 -347.8 47.7 -347.8 38.65 -346.3 35.2 -345.3 28.85 -344.5 26.55 -343.55 30.2 -343.0 30.4 -342.9 30.55 -342.75 Q31.7 -340.8 33.4 -339.9 35.75 -338.7 41.65 -337.7 L55.25 -336.6 64.5 -336.75 Q68.0 -339.65 80.3 -345.05 L81.25 -345.45 81.2 -345.45 81.1 -345.45 M81.35 -144.05 L80.4 -144.25 80.05 -144.0 79.2 -142.6 79.35 -142.0 79.35 -142.05 81.25 -141.85 81.55 -141.75 81.75 -141.5 81.85 -141.2 81.9 -141.0 81.9 -140.0 81.9 -139.05 81.75 -138.7 81.7 -138.55 81.55 -138.35 81.25 -138.3 80.85 -138.3 Q80.65 -138.3 80.5 -138.45 80.35 -138.6 80.35 -138.8 L80.35 -140.35 79.15 -140.5 Q79.0 -140.5 78.85 -140.65 L78.25 -141.25 77.45 -141.6 77.2 -141.75 77.05 -142.0 77.1 -142.3 78.3 -144.3 79.65 -146.2 79.85 -146.3 80.05 -146.35 Q80.6 -146.3 81.4 -145.65 L82.25 -144.9 82.45 -144.55 82.4 -144.2 Q82.2 -143.9 81.85 -143.9 L81.35 -144.05 M-152.2 -204.4 L-152.15 -204.65 Q-151.75 -205.45 -150.55 -205.5 -149.3 -205.65 -148.85 -204.3 L-147.75 -204.1 -147.2 -204.25 -146.85 -203.9 -146.8 -203.05 Q-146.8 -202.0 -147.3 -201.7 L-147.3 -201.75 -147.45 -201.85 -147.6 -201.5 Q-147.75 -201.35 -147.95 -201.35 -148.15 -201.35 -148.3 -201.5 L-148.65 -202.5 -149.5 -202.2 -149.85 -202.15 -150.15 -202.4 -150.25 -203.35 -150.25 -203.4 -150.45 -203.4 -151.05 -203.5 -151.15 -203.5 Q-152.05 -203.8 -152.15 -204.15 L-152.2 -204.4" fill="#00ffff" fill-opacity="0.5019608" fill-rule="evenodd" stroke="none"/>
    <path d="M145.05 -447.45 L145.5 -447.7 Q146.5 -445.7 147.6 -444.85 148.55 -444.1 150.9 -443.45 L151.0 -443.6 151.15 -443.85 153.15 -442.95 156.25 -442.5 Q159.85 -442.05 161.85 -440.65 L165.0 -438.25 Q169.6 -435.55 171.3 -432.0 172.35 -429.75 172.55 -425.7 L173.15 -417.75 174.7 -408.5 175.8 -405.55 Q176.6 -403.05 177.3 -401.75 L177.4 -401.95 177.8 -401.9 Q178.1 -401.8 178.1 -401.0 L177.9 -400.6 177.95 -400.5 177.9 -400.55 177.1 -399.5 175.55 -397.75 175.45 -397.5 Q175.3 -397.45 175.3 -398.05 L169.95 -392.0 Q163.3 -384.85 162.1 -384.0 L161.35 -383.55 Q156.9 -379.6 150.15 -376.1 143.2 -372.45 127.1 -366.3 122.7 -364.6 118.5 -361.35 L111.25 -355.6 Q103.15 -349.95 88.85 -347.15 L82.55 -344.5 Q71.9 -339.75 65.1 -335.55 L55.25 -335.55 50.55 -335.95 46.05 -336.35 43.65 -336.55 41.0 -336.9 Q37.95 -336.9 36.15 -337.9 34.35 -338.9 32.45 -338.9 30.25 -340.55 28.3 -342.5 L23.85 -342.1 Q22.45 -341.8 22.1 -341.55 L22.0 -341.55 Q17.0 -338.05 13.4 -332.2 L11.3 -328.25 Q10.1 -325.85 9.1 -323.05 7.85 -319.3 5.35 -309.3 3.0 -299.8 3.0 -298.9 3.0 -297.65 3.25 -296.45 L3.2 -295.8 3.4 -295.8 3.55 -295.4 3.55 -291.2 3.3 -291.2 2.3 -291.35 Q0.35 -289.2 -0.25 -285.4 L-1.0 -280.75 Q-0.85 -278.05 0.05 -276.5 L-0.4 -276.1 Q-1.1 -276.45 -1.3 -278.3 L-1.3 -279.0 -1.35 -278.95 -1.9 -278.85 -1.35 -282.4 -1.3 -285.05 -0.25 -288.65 -0.65 -286.8 Q0.2 -289.95 1.95 -291.3 0.55 -291.15 -0.15 -288.85 L0.0 -289.4 Q0.75 -291.5 2.35 -292.7 L2.6 -292.95 Q1.3 -296.1 1.3 -299.75 1.3 -308.4 8.3 -323.55 L9.8 -326.65 Q11.2 -330.3 13.65 -333.75 18.05 -341.3 22.45 -345.25 L37.7 -347.6 48.3 -349.0 48.3 -349.3 Q50.65 -349.15 50.8 -348.8 L52.05 -348.1 52.45 -347.75 53.45 -347.3 55.55 -346.05 73.8 -346.25 83.0 -348.4 85.65 -350.2 Q87.25 -351.1 90.8 -351.1 L93.9 -351.35 96.05 -352.0 98.2 -352.65 100.15 -353.65 98.85 -352.85 Q108.0 -355.75 112.35 -358.0 L115.6 -360.4 Q116.85 -361.85 120.75 -364.4 124.85 -367.15 128.05 -368.6 129.85 -369.4 133.4 -371.6 136.7 -373.35 139.2 -373.35 144.15 -373.35 163.1 -385.85 164.75 -387.0 170.5 -393.4 176.3 -399.95 176.3 -400.85 176.3 -401.6 174.9 -402.6 173.4 -403.65 173.1 -407.1 172.9 -409.2 172.8 -413.35 L172.3 -419.0 170.8 -426.9 Q170.4 -429.45 168.6 -431.95 166.8 -434.5 164.0 -436.4 159.1 -439.7 152.45 -442.65 148.6 -443.5 147.3 -444.5 145.9 -445.65 144.95 -445.6 L144.85 -445.45 Q144.75 -445.45 144.75 -446.3 144.75 -447.2 145.05 -447.45 M176.9 -401.15 L177.0 -401.3 176.4 -402.0 176.9 -401.15 M81.1 -345.95 L78.45 -346.05 77.35 -346.1 73.25 -345.4 55.55 -345.5 56.9 -344.95 56.65 -344.85 Q54.1 -345.25 51.8 -347.15 50.0 -348.65 47.95 -348.25 L48.15 -348.4 38.55 -346.8 35.1 -345.8 28.7 -345.0 Q26.55 -344.25 24.65 -343.2 L30.1 -342.5 Q31.35 -340.4 33.15 -339.45 35.55 -338.2 41.55 -337.2 L55.25 -336.1 64.65 -336.25 Q68.05 -339.15 80.5 -344.6 L84.95 -346.5 81.1 -345.95 M81.95 -144.5 Q81.85 -144.35 81.6 -144.5 L80.4 -144.75 79.6 -144.3 78.65 -142.75 78.9 -141.8 Q79.2 -141.25 81.25 -141.35 L81.4 -141.0 81.4 -140.0 81.4 -139.05 81.25 -138.8 80.85 -138.8 80.85 -140.8 79.2 -141.0 78.6 -141.6 Q78.25 -141.95 77.55 -142.1 L78.7 -144.05 80.0 -145.85 81.05 -145.3 81.95 -144.5" fill="#ffffff" fill-rule="evenodd" stroke="none"/>
    <path d="M229.35 -223.25 L230.3 -222.45 231.55 -221.4 Q230.7 -219.8 229.05 -219.15 L227.0 -218.35 226.65 -218.45 Q226.3 -218.6 226.2 -218.8 227.2 -219.8 228.2 -220.0 229.75 -220.3 230.25 -220.55 L229.3 -221.55 Q229.05 -221.9 229.05 -222.4 L229.1 -223.15 229.35 -223.1 229.35 -223.25 M-150.55 -205.0 Q-149.55 -205.1 -149.25 -203.85 L-147.5 -203.55 Q-147.3 -204.15 -147.3 -203.05 -147.3 -202.35 -147.6 -202.15 L-147.95 -201.85 -148.2 -203.0 -149.7 -202.65 -149.75 -203.35 -149.7 -204.05 Q-149.9 -204.5 -150.4 -203.9 L-151.0 -204.0 -151.7 -204.4 Q-151.4 -204.95 -150.55 -205.0" fill="#ffffff" fill-opacity="0.9019608" fill-rule="evenodd" stroke="none"/>
  </g>
</svg>
