<?xml version="1.0" encoding="UTF-8" standalone="no"?>
<svg xmlns:ffdec="https://www.free-decompiler.com/flash" xmlns:xlink="http://www.w3.org/1999/xlink" ffdec:objectType="shape" height="331.7px" width="392.6px" xmlns="http://www.w3.org/2000/svg">
  <g transform="matrix(1.0, 0.0, 0.0, 1.0, 157.75, 452.6)">
    <path d="M147.2 -446.1 Q154.95 -446.7 157.5 -449.0 L158.9 -450.85 Q159.6 -452.15 160.4 -452.55 L160.6 -452.6 160.85 -452.55 162.75 -450.45 Q164.3 -448.65 165.45 -447.95 L165.45 -448.0 169.1 -446.2 Q171.45 -445.05 172.25 -443.9 173.85 -441.7 175.95 -433.25 179.7 -417.5 179.7 -412.6 179.75 -411.1 172.85 -402.3 L163.3 -390.1 159.4 -384.3 157.95 -381.45 157.95 -381.4 155.3 -375.15 155.15 -375.0 154.2 -373.95 Q153.25 -372.65 153.1 -371.5 L152.9 -371.15 151.15 -370.0 151.1 -369.95 148.75 -368.95 Q145.2 -367.3 142.8 -365.35 L142.75 -365.35 142.2 -365.0 142.05 -364.75 141.5 -364.25 141.25 -364.1 140.95 -364.1 140.7 -364.25 140.65 -364.25 140.45 -364.35 138.75 -364.7 134.85 -364.5 Q134.75 -364.35 134.55 -364.35 L133.05 -364.15 132.95 -364.15 131.1 -363.95 130.1 -363.6 129.8 -363.6 129.55 -363.7 124.6 -361.9 124.65 -361.9 Q119.3 -359.3 112.8 -354.6 L112.5 -354.5 112.45 -354.5 107.55 -351.0 96.1 -343.4 Q93.5 -341.85 91.2 -342.3 L89.15 -341.9 89.2 -341.9 Q85.0 -340.5 82.35 -338.2 L78.9 -335.05 Q76.7 -333.3 74.0 -332.15 L73.9 -332.1 72.0 -331.7 71.7 -331.7 71.5 -331.9 71.4 -332.2 71.5 -332.45 72.05 -333.25 72.3 -333.45 Q75.95 -334.65 76.95 -335.3 L76.9 -335.3 Q77.6 -335.85 78.2 -337.35 L78.25 -337.5 Q79.55 -339.15 81.85 -340.55 L78.65 -340.0 64.7 -337.6 57.05 -337.25 54.85 -337.15 54.7 -337.0 54.45 -336.95 50.15 -336.75 49.6 -336.7 Q30.55 -329.7 19.25 -311.4 L19.05 -311.0 18.7 -310.8 14.5 -304.4 12.65 -302.65 12.6 -302.65 12.0 -302.25 11.4 -301.25 11.35 -300.75 11.25 -300.4 11.25 -299.6 Q11.25 -297.6 10.15 -296.85 L10.15 -296.8 Q7.55 -295.1 6.7 -294.3 L6.4 -293.75 Q4.9 -291.1 3.55 -288.05 L1.35 -283.05 Q0.6 -280.15 0.8 -277.2 L0.7 -276.85 -0.25 -276.1 -0.4 -275.95 Q-0.55 -275.8 -0.75 -275.8 -1.45 -275.65 -1.45 -277.2 -1.45 -279.55 -0.25 -283.25 L-0.15 -283.55 Q0.45 -288.1 4.9 -295.05 L8.35 -300.0 9.25 -302.2 9.25 -302.15 Q10.8 -306.2 10.8 -308.25 10.8 -310.9 9.65 -314.6 8.2 -319.05 6.25 -319.45 6.05 -319.5 5.95 -319.6 5.8 -319.75 5.8 -319.95 L5.8 -324.15 5.85 -324.35 6.75 -327.9 Q7.3 -330.55 7.95 -331.1 L8.25 -331.4 Q8.6 -331.65 8.9 -331.25 L9.0 -331.0 9.05 -330.0 8.8 -327.75 8.5 -325.35 Q8.5 -324.35 8.05 -323.8 L8.0 -323.8 7.4 -323.1 7.4 -320.9 8.45 -320.7 8.75 -320.5 Q10.0 -319.15 11.2 -314.75 L11.2 -314.8 Q12.35 -310.75 12.35 -308.4 12.35 -306.65 11.85 -304.65 L12.5 -305.55 12.8 -305.75 12.95 -305.75 Q17.45 -317.45 31.65 -329.15 38.35 -334.75 44.35 -337.4 L46.55 -338.25 46.6 -338.3 46.75 -338.45 46.95 -338.5 47.3 -338.5 Q51.25 -339.75 53.95 -339.0 L68.95 -340.5 68.9 -340.5 70.9 -340.95 Q76.4 -342.3 81.75 -342.85 L81.8 -342.85 83.7 -343.1 87.1 -343.8 87.2 -343.8 87.35 -343.8 89.1 -344.15 90.8 -344.5 90.75 -344.45 Q95.65 -345.95 100.25 -348.9 L108.65 -355.3 Q114.85 -360.15 121.4 -363.05 L121.6 -363.1 Q122.25 -363.15 123.6 -363.85 L123.7 -364.05 Q123.9 -364.45 127.7 -365.5 L132.15 -366.8 132.35 -366.95 132.6 -367.0 132.9 -367.0 133.1 -367.05 133.25 -367.1 135.25 -367.1 Q143.8 -368.05 152.05 -377.5 154.5 -380.35 158.55 -386.0 L160.65 -388.85 162.5 -391.9 170.7 -401.75 170.65 -401.75 Q178.1 -410.9 178.15 -413.15 178.15 -419.4 174.65 -431.8 171.25 -443.6 169.4 -444.75 166.45 -445.3 163.6 -447.5 161.7 -448.85 160.6 -450.3 L159.2 -448.95 157.35 -447.05 157.35 -447.0 Q156.55 -446.3 153.25 -445.3 L149.5 -444.45 146.4 -444.55 146.1 -444.65 145.0 -445.95 145.05 -445.95 144.3 -447.3 Q144.2 -447.5 144.25 -447.65 L144.45 -447.9 144.75 -448.05 145.05 -447.95 Q146.6 -446.9 147.2 -446.1 M232.15 -229.25 Q232.05 -229.85 233.75 -230.85 L233.9 -231.0 234.4 -231.15 234.75 -230.85 234.85 -229.95 234.8 -228.9 234.6 -228.65 234.3 -228.55 234.2 -228.55 234.25 -228.5 233.9 -228.1 233.7 -227.95 233.45 -227.95 232.95 -228.05 232.9 -228.0 232.55 -228.05 Q232.15 -228.1 232.15 -229.25 M26.4 -344.6 L26.6 -344.4 27.1 -344.15 27.1 -344.1 27.9 -343.5 28.0 -343.25 27.95 -342.95 Q27.4 -341.9 26.55 -341.7 L26.25 -341.7 26.0 -341.9 25.9 -342.2 25.55 -343.0 24.1 -343.0 Q22.85 -342.95 22.0 -343.55 L20.25 -342.4 20.05 -342.25 19.75 -342.25 19.55 -342.4 19.3 -342.7 19.15 -342.95 19.2 -343.25 Q20.15 -345.35 21.4 -345.05 L26.15 -344.65 26.4 -344.6 M61.3 -328.95 L61.05 -329.05 60.9 -329.3 60.9 -329.6 60.95 -329.75 61.45 -330.3 61.6 -330.35 63.4 -330.7 63.4 -330.65 64.7 -330.7 64.9 -330.6 65.05 -330.4 65.15 -330.15 65.15 -329.8 64.9 -329.55 63.65 -328.8 63.45 -328.7 63.25 -328.7 61.3 -328.95 M59.0 -330.8 L59.05 -330.4 58.8 -330.1 Q58.55 -329.9 54.7 -330.05 54.5 -330.05 54.35 -330.2 L54.2 -330.55 Q54.15 -331.1 54.8 -331.4 L55.05 -331.45 Q58.85 -331.3 59.0 -330.8 M9.05 -294.4 L9.4 -294.3 9.55 -294.2 9.75 -293.9 9.7 -293.55 9.55 -293.25 9.3 -293.05 9.0 -293.0 8.7 -293.2 8.6 -293.5 8.6 -293.9 8.75 -294.2 9.05 -294.4 M15.05 -199.85 L16.45 -201.05 Q17.7 -202.0 18.05 -202.05 L18.35 -202.05 18.6 -201.95 18.7 -201.7 18.8 -201.15 18.75 -200.75 17.9 -199.75 17.9 -199.7 17.3 -198.4 17.1 -198.2 16.85 -198.1 16.55 -198.15 15.45 -198.45 Q15.25 -198.5 15.15 -198.6 L15.0 -198.85 14.9 -199.4 14.95 -199.65 15.05 -199.85 M140.45 -264.95 Q141.55 -265.35 142.1 -266.05 L142.3 -266.2 142.5 -266.25 145.2 -266.25 145.5 -266.15 145.7 -265.9 146.65 -264.0 147.25 -262.85 148.85 -263.25 150.35 -263.85 Q150.45 -264.85 151.45 -265.85 152.25 -266.7 152.3 -267.05 L152.4 -267.3 152.6 -267.5 152.9 -267.55 155.65 -266.85 155.6 -266.9 156.55 -266.95 156.85 -267.0 Q158.35 -266.75 158.5 -266.4 L158.6 -266.1 158.55 -265.8 158.3 -265.6 Q157.35 -265.25 157.15 -265.1 L156.95 -264.95 156.75 -264.9 Q155.75 -264.95 155.3 -265.6 L154.9 -265.8 Q152.25 -264.05 151.75 -262.6 L151.6 -262.35 151.35 -262.25 Q148.7 -261.7 148.2 -261.15 L148.0 -261.0 147.75 -261.0 146.35 -261.15 146.15 -261.2 146.0 -261.35 144.45 -262.9 144.3 -263.05 144.25 -263.3 144.25 -264.65 143.05 -264.6 142.35 -263.8 Q141.15 -262.75 140.7 -262.65 L138.7 -262.3 137.75 -261.75 137.45 -261.7 Q137.25 -261.7 137.15 -261.85 L137.0 -262.15 137.1 -262.45 137.55 -263.5 137.55 -263.55 137.9 -264.5 138.15 -264.75 138.45 -264.8 140.45 -264.95 M84.35 -129.6 L84.7 -129.5 84.75 -129.5 Q85.3 -129.4 85.3 -128.15 85.3 -127.0 84.85 -126.65 L84.65 -126.7 84.55 -126.4 84.3 -126.2 83.75 -126.05 83.35 -126.1 83.15 -126.4 Q83.0 -126.85 82.95 -128.05 L77.75 -129.05 Q75.75 -129.0 73.6 -125.45 L73.6 -125.4 Q72.15 -123.2 71.55 -121.25 L71.3 -120.95 70.95 -120.9 68.1 -121.8 68.05 -121.85 67.15 -122.15 67.05 -122.2 65.75 -122.45 65.6 -122.45 Q64.9 -122.7 62.75 -121.9 L62.7 -121.9 Q59.65 -120.9 57.75 -120.9 54.1 -120.9 52.0 -122.15 50.9 -122.8 49.5 -123.9 45.15 -125.45 44.3 -127.5 L43.8 -127.65 42.75 -127.65 Q41.4 -127.65 41.4 -128.4 L40.5 -129.5 40.35 -129.75 40.35 -130.1 Q40.9 -131.3 41.8 -131.25 L42.15 -131.1 42.3 -130.75 Q42.35 -130.15 42.55 -129.9 43.1 -129.45 45.25 -128.9 L45.45 -128.8 45.55 -128.65 Q46.5 -126.65 49.95 -124.8 L50.05 -124.7 50.6 -124.45 Q54.15 -122.65 56.3 -122.6 L64.1 -124.05 64.45 -124.15 66.25 -124.0 66.55 -123.85 67.4 -123.15 70.35 -123.15 71.55 -125.25 71.5 -125.25 Q72.35 -126.8 72.55 -127.95 L72.7 -128.2 72.9 -128.35 75.15 -129.7 Q77.0 -130.9 77.75 -130.85 L80.85 -130.4 84.1 -129.75 84.35 -129.6 M-154.1 -208.05 L-153.15 -206.55 -152.6 -205.6 -152.5 -205.3 Q-152.45 -204.95 -152.85 -204.65 -153.2 -204.4 -153.85 -204.35 L-154.05 -204.35 -154.25 -204.5 -155.0 -205.7 -155.3 -206.55 -156.15 -206.7 Q-157.75 -207.05 -157.7 -207.5 L-157.65 -207.9 -157.35 -208.1 -157.3 -208.1 -157.3 -208.15 -157.1 -208.35 -156.85 -208.4 -154.45 -208.25 -154.25 -208.2 -154.1 -208.05" fill="#00ffff" fill-opacity="0.5019608" fill-rule="evenodd" stroke="none"/>
    <path d="M158.8 -449.3 L157.0 -447.4 Q156.25 -446.75 153.1 -445.8 150.2 -444.95 149.5 -444.95 L146.4 -445.05 Q145.85 -445.45 145.45 -446.2 L144.75 -447.55 146.95 -445.6 Q155.2 -446.15 157.85 -448.65 L159.3 -450.6 Q159.95 -451.75 160.6 -452.1 L162.35 -450.15 Q164.0 -448.25 165.2 -447.55 L168.85 -445.75 Q171.1 -444.65 171.85 -443.6 173.4 -441.45 175.45 -433.15 179.2 -417.45 179.2 -412.6 179.2 -411.2 172.45 -402.6 L162.9 -390.4 158.95 -384.55 157.5 -381.65 154.85 -375.35 153.8 -374.25 Q152.8 -372.85 152.6 -371.55 L150.9 -370.4 148.55 -369.4 Q144.9 -367.75 142.5 -365.75 L141.65 -365.2 141.75 -365.15 141.15 -364.6 140.9 -364.7 140.65 -364.85 138.75 -365.2 134.5 -364.85 133.0 -364.65 130.95 -364.45 129.9 -364.1 130.15 -364.4 Q127.2 -363.55 124.4 -362.35 119.0 -359.7 112.5 -355.0 L112.75 -355.35 107.25 -351.45 95.8 -343.85 Q93.35 -342.3 91.15 -342.8 L89.05 -342.4 Q84.7 -340.95 82.0 -338.6 L78.55 -335.45 Q76.45 -333.7 73.8 -332.6 L71.9 -332.2 72.45 -333.0 Q76.2 -334.2 77.2 -334.9 78.0 -335.5 78.65 -337.2 80.6 -339.7 85.0 -341.65 L78.55 -340.5 64.6 -338.1 57.0 -337.75 54.45 -337.45 50.1 -337.25 49.5 -337.2 Q30.2 -330.15 18.8 -311.6 L18.7 -311.35 18.6 -311.65 Q16.45 -308.0 14.05 -304.7 13.5 -303.85 12.35 -303.1 L11.65 -302.6 10.9 -301.4 10.85 -300.75 10.7 -300.6 10.75 -299.6 Q10.75 -297.9 9.85 -297.25 L6.35 -294.7 5.95 -294.0 Q4.45 -291.35 3.1 -288.25 L0.9 -283.2 Q0.1 -280.2 0.3 -277.2 L-0.55 -276.5 -0.75 -276.3 Q-0.95 -276.3 -0.95 -277.2 -0.95 -279.5 0.2 -283.1 L0.35 -283.5 Q0.95 -287.95 5.3 -294.8 L8.75 -299.75 9.7 -302.0 Q11.3 -306.15 11.3 -308.25 11.3 -310.95 10.1 -314.75 8.55 -319.6 6.3 -319.95 L6.3 -324.15 7.25 -327.8 Q7.8 -330.4 8.35 -330.8 8.55 -331.35 8.55 -330.0 L8.3 -327.85 8.0 -325.35 Q8.0 -324.55 7.65 -324.15 L6.9 -323.3 6.9 -320.5 8.35 -320.2 Q9.55 -318.85 10.7 -314.65 11.85 -310.7 11.85 -308.4 11.85 -306.0 10.8 -303.1 L11.65 -303.55 12.9 -305.25 12.3 -303.8 12.85 -304.0 Q16.9 -316.35 31.95 -328.8 38.6 -334.3 44.55 -336.95 L46.85 -337.85 46.95 -338.0 47.4 -338.0 Q51.3 -339.25 53.9 -338.5 L69.05 -340.0 71.0 -340.5 Q76.5 -341.8 81.8 -342.35 L83.8 -342.6 87.2 -343.3 87.45 -343.3 89.2 -343.65 90.9 -344.0 Q95.9 -345.5 100.5 -348.5 L108.95 -354.9 Q115.1 -359.75 121.6 -362.6 122.5 -362.65 124.2 -363.65 L124.3 -363.7 124.05 -363.75 127.8 -365.05 132.6 -366.4 132.55 -366.5 132.9 -366.5 133.25 -366.6 135.3 -366.6 Q144.0 -367.55 152.4 -377.2 L158.95 -385.7 161.05 -388.55 162.9 -391.65 171.05 -401.45 Q178.65 -410.8 178.65 -413.15 178.65 -419.45 175.1 -431.95 171.55 -444.4 169.5 -445.25 166.65 -445.8 163.9 -447.9 161.85 -449.4 160.7 -451.0 160.0 -450.65 158.8 -449.3 M97.35 -345.7 L99.0 -346.55 97.25 -345.65 97.35 -345.7 M22.0 -344.15 L19.9 -342.75 19.65 -343.05 Q20.4 -344.7 21.3 -344.55 L26.15 -344.15 26.85 -343.7 27.5 -343.2 Q27.05 -342.35 26.4 -342.2 26.4 -342.7 25.85 -343.45 L24.05 -343.5 Q22.8 -343.45 22.0 -344.15 M21.0 -315.85 L23.25 -318.9 Q27.1 -323.9 28.5 -325.3 23.45 -320.8 21.45 -316.8 L21.0 -315.85 M64.55 -330.25 L64.65 -330.0 63.3 -329.2 61.35 -329.45 61.4 -329.6 61.65 -329.85 63.5 -330.2 64.55 -330.25 M58.55 -330.55 Q58.3 -330.4 54.7 -330.55 L55.0 -330.95 58.55 -330.55 M9.25 -293.8 L9.1 -293.5 9.1 -293.9 9.25 -293.8 M140.6 -264.5 Q141.9 -264.95 142.5 -265.75 L145.2 -265.75 146.2 -263.75 Q147.05 -262.35 147.25 -262.35 148.0 -262.35 149.05 -262.8 L150.8 -263.45 Q150.8 -264.5 151.8 -265.5 152.8 -266.55 152.8 -267.05 L155.5 -266.4 156.75 -266.5 158.1 -266.1 156.75 -265.4 Q156.05 -265.45 155.7 -265.9 155.45 -266.3 154.75 -266.3 151.8 -264.4 151.25 -262.75 148.35 -262.15 147.8 -261.5 L146.4 -261.65 144.75 -263.3 144.75 -265.2 143.05 -265.1 142.0 -264.2 140.55 -263.15 138.65 -262.8 137.5 -262.2 138.0 -263.4 138.35 -264.3 140.6 -264.5 M84.55 -129.05 L84.8 -128.15 Q84.8 -127.3 84.5 -127.05 L84.15 -126.7 83.6 -126.55 Q83.45 -127.05 83.45 -128.45 L77.75 -129.55 Q75.5 -129.55 73.15 -125.7 71.7 -123.4 71.05 -121.4 70.05 -121.6 68.25 -122.3 L67.3 -122.65 70.65 -122.65 71.95 -125.0 Q72.85 -126.65 73.05 -127.9 L75.4 -129.3 Q77.1 -130.35 77.75 -130.35 L80.75 -129.9 84.0 -129.25 84.55 -129.05 M45.1 -128.45 Q46.05 -126.35 49.7 -124.35 L50.35 -124.0 Q54.15 -122.1 56.35 -122.1 L64.4 -123.65 66.2 -123.5 67.15 -122.7 65.75 -122.95 Q65.0 -123.25 62.55 -122.4 59.6 -121.4 57.75 -121.4 54.25 -121.4 52.25 -122.6 L49.7 -124.35 Q45.4 -125.9 44.65 -127.9 L43.8 -128.15 42.75 -128.15 Q41.95 -128.15 41.9 -128.5 41.8 -129.15 40.8 -129.9 41.2 -130.75 41.8 -130.75 41.85 -129.85 42.2 -129.55 42.8 -129.0 45.1 -128.45" fill="#ffffff" fill-rule="evenodd" stroke="none"/>
    <path d="M232.75 -228.5 L232.65 -229.25 Q232.65 -229.65 234.1 -230.45 234.35 -231.05 234.35 -229.95 L234.3 -229.05 234.2 -229.05 233.9 -228.85 233.55 -228.45 232.8 -228.6 232.75 -228.5 M18.3 -201.05 L17.5 -200.05 16.8 -198.6 15.5 -198.95 15.4 -199.5 16.75 -200.65 18.2 -201.6 18.3 -201.05 M-154.5 -207.75 L-153.6 -206.35 -153.0 -205.3 -153.15 -205.1 Q-153.4 -204.9 -153.9 -204.85 L-154.55 -205.9 -154.95 -207.0 -156.05 -207.2 Q-157.2 -207.45 -157.25 -207.65 L-157.05 -207.7 -156.9 -207.9 -154.5 -207.75" fill="#ffffff" fill-opacity="0.9019608" fill-rule="evenodd" stroke="none"/>
  </g>
</svg>
