<?xml version="1.0" encoding="UTF-8" standalone="no"?>
<svg xmlns:ffdec="https://www.free-decompiler.com/flash" xmlns:xlink="http://www.w3.org/1999/xlink" ffdec:objectType="shape" height="222.1px" width="375.9px" xmlns="http://www.w3.org/2000/svg">
  <g transform="matrix(1.0, 0.0, 0.0, 1.0, 182.85, 307.5)">
    <path d="M169.2 -297.65 L169.35 -298.0 169.7 -298.15 174.75 -298.65 175.7 -299.9 175.7 -299.95 175.85 -300.15 175.9 -300.75 175.0 -301.8 174.8 -302.1 174.9 -302.45 175.15 -302.65 176.0 -302.95 Q176.55 -304.0 179.05 -304.1 L179.3 -304.05 179.4 -303.95 183.65 -304.1 183.8 -304.15 184.0 -304.2 186.35 -304.1 186.5 -304.05 187.35 -303.55 187.5 -303.5 187.8 -303.35 188.35 -302.75 188.45 -302.6 188.55 -302.5 188.6 -302.5 188.75 -302.2 188.65 -301.85 188.5 -301.7 188.5 -301.65 188.6 -299.25 188.35 -296.85 188.05 -294.45 187.9 -294.1 187.55 -293.95 186.75 -294.15 186.0 -293.65 Q185.35 -293.15 185.3 -292.7 L185.5 -292.35 Q186.4 -292.15 186.4 -291.05 186.4 -290.0 186.05 -289.6 L186.0 -289.6 185.85 -289.55 185.75 -289.25 185.5 -289.05 184.95 -288.9 184.65 -288.9 184.4 -289.1 184.3 -289.4 184.1 -290.55 Q183.75 -291.55 183.75 -292.35 183.75 -294.7 185.65 -295.75 187.05 -296.7 187.05 -299.1 L186.8 -300.8 185.9 -302.2 183.95 -302.45 183.9 -302.45 183.1 -302.45 179.35 -302.3 179.15 -302.15 178.95 -302.1 178.6 -302.1 177.95 -302.0 177.85 -301.65 178.3 -301.1 Q178.75 -300.55 178.75 -299.5 178.8 -298.75 177.85 -297.95 L177.8 -297.95 175.9 -296.35 175.55 -296.25 174.9 -296.25 174.9 -296.2 174.6 -296.0 172.35 -295.85 170.05 -295.95 Q167.8 -295.95 164.95 -294.75 L164.9 -294.75 157.65 -290.6 157.7 -290.6 154.05 -288.25 Q148.1 -284.45 143.05 -282.45 137.7 -280.45 133.35 -280.45 L125.85 -280.6 125.55 -280.7 Q124.35 -281.75 124.25 -283.65 L123.45 -283.95 123.2 -284.15 123.1 -284.45 123.1 -284.8 122.35 -285.05 122.1 -285.25 122.0 -285.55 Q121.9 -285.85 122.55 -286.25 L122.55 -286.8 121.7 -287.1 121.65 -287.15 Q120.55 -288.15 120.4 -289.7 119.0 -289.7 117.1 -290.5 114.85 -291.45 112.85 -291.45 L110.35 -291.3 Q108.35 -290.7 107.95 -289.95 L108.0 -287.75 Q108.1 -285.7 103.95 -285.55 100.1 -285.45 97.45 -284.35 L97.05 -283.7 97.0 -283.7 96.3 -282.55 Q96.3 -281.65 96.85 -280.6 L96.85 -280.65 97.9 -278.85 99.0 -276.8 99.25 -276.95 99.45 -277.0 Q101.35 -277.05 102.95 -274.2 L103.0 -274.15 Q104.1 -273.55 106.2 -271.55 107.1 -270.75 109.0 -270.75 L109.3 -270.65 Q112.2 -268.35 112.45 -266.55 L113.55 -266.2 113.6 -266.2 115.2 -265.1 115.2 -264.75 114.95 -264.5 113.75 -264.45 112.75 -264.75 111.3 -265.05 111.05 -265.15 110.95 -265.4 110.0 -268.0 Q106.7 -269.0 105.2 -270.1 L105.15 -270.15 104.35 -270.95 105.2 -269.3 105.3 -269.1 105.3 -268.85 104.75 -268.15 104.5 -268.1 102.5 -268.2 102.2 -268.3 102.05 -268.55 Q101.85 -268.8 102.3 -269.55 L102.55 -270.65 102.1 -271.85 100.85 -273.9 100.8 -273.9 100.25 -275.15 99.45 -274.9 98.15 -274.95 98.0 -275.0 97.8 -275.1 97.6 -275.25 97.5 -275.5 Q97.4 -276.3 96.1 -278.85 94.7 -281.6 94.75 -282.4 L94.8 -283.2 94.75 -283.25 94.65 -283.6 94.65 -284.25 94.65 -284.55 94.8 -284.9 96.2 -286.15 96.25 -286.15 103.4 -286.6 104.35 -286.75 105.35 -287.25 105.9 -288.7 105.9 -289.7 106.0 -289.95 106.2 -290.15 108.55 -292.1 Q110.05 -293.6 110.75 -293.55 L114.75 -292.45 Q118.5 -291.4 121.3 -291.3 L121.5 -291.2 121.7 -291.05 124.75 -285.95 Q126.25 -283.5 126.75 -282.15 139.8 -283.4 145.25 -284.9 L151.1 -288.3 153.55 -289.7 153.45 -289.65 153.75 -289.9 153.8 -289.95 159.5 -293.3 159.75 -293.45 159.95 -293.6 162.75 -295.3 165.25 -296.55 165.15 -296.5 167.0 -297.5 167.35 -297.6 169.25 -297.35 169.2 -297.65 M191.35 -298.85 L191.55 -299.1 191.85 -299.2 192.1 -299.1 192.8 -298.55 192.95 -298.45 193.0 -298.35 193.05 -298.0 192.9 -297.1 192.7 -296.8 192.4 -296.7 192.05 -296.85 Q191.85 -297.0 191.4 -298.4 L191.4 -298.35 191.35 -298.55 191.35 -298.85 M12.15 -214.3 L12.4 -214.15 14.0 -212.75 14.15 -212.55 14.15 -212.25 14.05 -211.9 13.85 -211.65 13.55 -211.55 9.0 -211.55 Q8.8 -211.55 8.65 -211.7 8.5 -211.85 8.5 -212.05 L8.5 -212.2 8.35 -212.35 8.2 -212.05 Q8.05 -211.9 7.85 -211.9 7.55 -211.9 7.3 -212.05 L7.35 -212.05 Q6.6 -212.35 6.7 -212.85 L6.85 -213.2 7.2 -213.35 8.15 -213.5 8.25 -213.5 Q9.0 -213.5 9.6 -213.0 L10.45 -213.1 Q10.7 -213.7 11.85 -214.25 L12.15 -214.3 M3.95 -211.3 L4.2 -211.5 5.35 -212.0 5.4 -212.0 6.55 -212.3 6.8 -212.25 7.0 -212.05 7.2 -211.75 7.25 -211.45 7.15 -211.15 Q3.4 -207.15 3.35 -205.9 L3.7 -205.6 3.75 -205.6 Q4.55 -205.1 4.55 -203.9 L4.45 -203.6 4.2 -203.25 3.95 -203.05 3.65 -203.05 3.4 -203.25 2.35 -204.45 Q1.5 -205.45 1.55 -205.85 1.5 -206.7 2.75 -208.3 3.6 -209.35 3.45 -210.15 L3.5 -210.55 3.95 -211.3 M146.3 -289.1 L146.6 -289.0 146.8 -288.7 146.9 -288.3 146.9 -288.1 Q146.7 -286.7 144.75 -286.7 144.55 -286.7 144.4 -286.85 L144.25 -287.2 Q144.25 -288.0 144.95 -288.55 L144.95 -288.6 Q145.55 -289.1 146.3 -289.1 M136.35 -291.1 L136.35 -290.8 135.75 -289.95 135.75 -289.9 Q135.2 -289.4 134.75 -289.45 L134.45 -289.55 134.25 -289.85 134.1 -290.6 134.05 -290.8 Q134.05 -291.35 134.85 -291.45 L135.9 -291.45 136.2 -291.3 136.35 -291.1 M129.25 -274.7 L130.25 -274.6 130.5 -274.45 130.75 -273.35 130.75 -273.2 130.85 -272.9 130.75 -272.55 Q130.3 -272.1 129.65 -271.8 L129.35 -271.75 129.1 -271.9 129.05 -271.9 128.85 -272.1 128.75 -273.35 Q128.75 -274.65 129.25 -274.7 M141.2 -271.4 L141.35 -270.55 141.35 -270.5 Q141.4 -269.65 140.35 -269.55 L140.05 -269.6 139.85 -269.8 139.25 -271.25 Q139.15 -271.8 139.95 -271.9 L140.8 -271.85 141.05 -271.7 141.2 -271.4 M145.25 -270.75 L145.55 -270.6 145.7 -270.35 145.8 -269.0 145.7 -268.7 145.45 -268.5 144.9 -268.35 144.65 -268.35 144.4 -268.5 144.3 -268.7 144.05 -269.25 Q143.65 -269.9 143.7 -270.1 143.6 -270.65 144.4 -270.75 L145.25 -270.75 M145.85 -202.75 L146.1 -202.95 Q146.95 -203.4 148.3 -202.05 149.5 -200.8 149.45 -199.85 149.5 -199.15 148.7 -198.25 147.9 -197.35 147.15 -197.4 146.15 -197.4 145.65 -197.95 L145.4 -197.25 145.2 -197.1 144.95 -197.05 144.45 -197.05 Q144.25 -197.05 144.1 -197.2 143.95 -197.35 143.95 -197.55 L143.65 -198.25 Q143.5 -198.4 143.5 -198.6 143.5 -199.7 144.1 -199.95 L144.4 -200.05 146.3 -199.8 147.45 -199.6 147.45 -199.65 147.3 -200.1 146.55 -200.2 146.25 -200.25 146.05 -200.45 Q145.75 -200.85 145.75 -202.5 L145.85 -202.75 M125.35 -100.85 L126.85 -101.05 126.65 -101.8 126.65 -101.9 126.85 -102.95 127.05 -103.2 127.35 -103.35 127.8 -103.35 128.1 -103.25 128.25 -103.05 128.5 -102.85 128.6 -102.8 Q129.05 -102.4 129.05 -101.45 129.05 -100.6 128.7 -100.0 L128.65 -99.95 128.1 -99.15 127.85 -99.0 127.6 -98.95 126.6 -99.1 126.45 -98.55 126.35 -98.35 126.1 -98.25 125.65 -98.15 125.4 -98.15 125.15 -98.35 125.05 -98.6 124.95 -100.35 125.05 -100.7 125.35 -100.85 M64.9 -179.7 L65.1 -179.45 65.1 -179.15 64.95 -178.6 65.7 -178.35 65.9 -178.25 66.95 -177.2 67.1 -176.85 67.0 -176.5 65.1 -175.1 65.15 -175.1 63.35 -173.95 63.15 -173.75 62.85 -173.65 Q62.25 -173.5 62.25 -174.85 62.2 -176.25 64.0 -176.55 L64.75 -176.65 Q63.1 -177.55 63.2 -178.3 63.2 -179.35 63.75 -179.6 L64.6 -179.8 64.9 -179.7 M70.9 -106.15 L71.15 -105.95 71.2 -105.65 Q70.95 -102.9 73.25 -100.6 75.1 -98.75 79.0 -96.75 L79.25 -96.45 79.2 -96.1 78.95 -95.85 78.6 -95.8 Q76.3 -96.6 74.6 -97.65 70.85 -100.05 69.25 -104.1 67.25 -103.55 64.15 -101.2 60.65 -98.55 60.55 -97.1 60.65 -96.05 63.8 -94.6 L64.0 -94.4 64.05 -94.15 64.0 -93.9 62.0 -91.75 59.85 -89.4 59.65 -89.25 59.4 -89.2 58.0 -89.35 57.8 -89.4 57.8 -89.1 57.7 -89.0 59.4 -86.45 59.45 -86.1 59.35 -85.75 59.15 -85.5 58.85 -85.4 58.55 -85.5 55.85 -87.85 Q55.1 -88.6 54.7 -89.35 L54.65 -89.35 54.45 -89.4 54.3 -89.6 Q53.6 -90.7 53.65 -91.05 L53.7 -91.25 53.75 -91.3 53.65 -92.1 Q53.65 -93.15 54.3 -94.05 L55.35 -95.4 55.95 -96.45 Q56.55 -97.5 57.05 -97.75 L57.4 -97.85 57.7 -97.65 57.8 -97.25 Q57.6 -95.85 56.4 -92.4 L56.9 -92.3 57.15 -92.15 57.25 -91.85 57.1 -90.8 57.1 -90.75 57.0 -90.5 57.6 -90.0 57.6 -90.05 57.85 -90.3 59.95 -92.05 61.55 -93.65 60.75 -93.8 60.6 -93.85 Q60.05 -94.05 59.3 -95.45 L59.35 -95.45 58.65 -97.0 Q58.55 -99.95 64.05 -103.1 67.4 -105.1 70.55 -106.15 L70.9 -106.15 M79.8 -96.45 L80.95 -96.55 82.5 -96.75 82.85 -96.85 Q83.95 -96.8 84.1 -95.0 L84.45 -94.8 Q87.35 -94.95 88.7 -95.55 89.7 -96.0 89.8 -96.85 L89.95 -97.15 90.3 -97.3 93.05 -97.4 94.05 -97.35 94.45 -97.25 94.75 -97.35 95.1 -97.35 Q95.65 -97.25 95.65 -95.95 L95.55 -95.45 95.6 -95.4 95.75 -94.95 95.75 -94.1 94.8 -90.6 93.5 -86.95 93.35 -86.8 93.15 -86.7 92.6 -86.6 92.3 -86.65 92.1 -86.85 92.0 -87.15 Q92.1 -88.1 93.6 -91.75 L93.3 -92.65 91.6 -91.4 91.3 -91.35 91.05 -91.5 90.9 -91.75 90.95 -92.05 Q91.8 -94.2 92.6 -95.45 92.35 -95.6 92.2 -95.7 L91.1 -95.6 89.45 -94.25 88.0 -93.15 87.75 -93.1 83.6 -93.25 83.35 -93.3 83.2 -93.45 82.5 -94.8 79.65 -95.5 79.4 -95.7 79.3 -96.0 79.45 -96.3 79.8 -96.45 M-31.45 -298.5 L-31.6 -298.7 -31.65 -298.75 Q-32.45 -299.15 -32.45 -300.0 -32.5 -302.0 -30.0 -302.15 L-29.95 -302.15 -26.85 -302.0 -26.45 -302.5 -26.45 -302.55 -26.35 -303.5 -26.55 -303.85 Q-27.25 -304.25 -27.25 -305.15 L-26.2 -306.4 Q-25.3 -307.25 -24.6 -307.45 L-24.25 -307.45 -23.95 -307.2 -23.95 -306.8 -24.6 -305.0 -24.6 -304.95 -24.7 -303.2 Q-24.7 -301.65 -25.9 -300.3 L-26.1 -300.15 -26.35 -300.15 -28.3 -300.25 -29.7 -300.5 -30.55 -300.2 -30.3 -299.85 Q-29.75 -299.15 -29.75 -298.4 -29.75 -297.3 -30.15 -296.35 L-30.35 -296.1 -30.7 -296.05 -31.0 -296.25 Q-31.6 -297.15 -31.55 -297.85 L-31.55 -297.9 -31.45 -298.5 M-178.75 -225.9 L-177.55 -224.55 -177.45 -224.15 -177.55 -223.45 -177.7 -223.2 -178.0 -222.9 -178.85 -222.6 -179.15 -222.65 -179.4 -222.85 Q-179.65 -223.2 -179.35 -223.85 L-180.95 -224.7 -182.75 -226.35 -182.85 -226.55 -182.8 -226.8 Q-182.55 -227.75 -181.9 -227.65 L-181.6 -227.55 -180.95 -227.1 -180.15 -226.95 Q-179.8 -227.05 -178.7 -225.9 L-178.75 -225.9" fill="#00ffff" fill-opacity="0.5019608" fill-rule="evenodd" stroke="none"/>
    <path d="M170.45 -297.15 Q169.7 -297.35 169.7 -297.65 L175.0 -298.2 176.1 -299.65 176.35 -300.0 176.4 -300.75 Q176.4 -301.25 175.3 -302.2 L176.4 -302.55 Q176.75 -303.5 179.05 -303.6 L179.15 -303.45 183.8 -303.6 183.95 -303.7 186.3 -303.6 187.15 -303.05 187.4 -303.0 187.95 -302.4 187.75 -302.5 187.6 -302.55 187.75 -302.3 188.2 -302.15 188.25 -302.1 187.75 -302.3 188.0 -301.55 188.1 -299.25 187.85 -296.95 187.55 -294.45 186.85 -294.85 185.7 -294.05 Q184.8 -293.35 184.8 -292.7 184.8 -292.05 185.35 -291.9 185.9 -291.75 185.9 -291.05 L185.65 -289.95 185.35 -289.55 184.8 -289.4 184.55 -290.7 Q184.25 -291.6 184.25 -292.35 184.25 -294.4 185.9 -295.35 187.55 -296.35 187.55 -299.1 L187.25 -301.0 186.2 -302.65 183.95 -302.95 183.05 -302.95 178.95 -302.6 178.6 -302.6 177.65 -302.45 Q177.3 -301.95 177.25 -301.25 L177.4 -301.4 177.9 -300.8 Q178.25 -300.35 178.25 -299.5 178.25 -298.95 177.5 -298.35 L175.55 -296.75 174.65 -296.75 174.45 -296.5 172.35 -296.35 170.05 -296.45 Q167.65 -296.45 164.7 -295.2 L157.4 -291.05 153.75 -288.7 Q147.85 -284.9 142.85 -282.95 137.65 -280.95 133.35 -280.95 L125.85 -281.1 Q124.75 -282.1 124.75 -284.0 L123.6 -284.45 123.6 -285.2 122.5 -285.55 122.8 -285.85 123.05 -286.8 121.95 -287.55 Q120.85 -288.55 120.85 -290.25 119.4 -290.05 117.3 -290.95 114.95 -291.95 112.8 -291.95 L110.3 -291.8 Q107.8 -291.1 107.45 -290.1 L107.5 -287.75 Q107.5 -286.2 103.9 -286.05 99.85 -285.95 97.1 -284.75 L96.6 -284.0 95.8 -282.55 Q95.8 -281.55 96.4 -280.4 L97.45 -278.6 98.7 -276.35 99.45 -276.5 Q101.2 -276.5 102.65 -273.65 L102.75 -273.75 105.85 -271.2 Q106.85 -270.25 109.0 -270.25 111.95 -267.9 111.95 -266.2 L113.4 -265.75 114.7 -264.95 113.8 -264.95 Q113.05 -265.05 113.05 -265.2 L111.4 -265.55 Q110.85 -267.6 110.3 -268.45 107.0 -269.4 105.5 -270.5 L102.95 -273.0 Q104.25 -269.65 104.8 -269.0 L104.5 -268.6 102.5 -268.7 102.7 -269.3 Q103.05 -269.85 103.05 -270.65 L102.5 -272.1 101.25 -274.15 100.1 -275.9 Q99.9 -275.4 99.45 -275.4 L98.2 -275.45 98.0 -275.55 96.55 -279.1 Q95.25 -281.65 95.25 -282.4 95.25 -283.25 95.4 -283.85 L95.15 -283.6 95.15 -284.25 95.15 -284.55 96.4 -285.7 103.4 -286.1 104.6 -286.35 105.7 -286.8 106.4 -288.65 106.4 -289.7 Q107.35 -290.15 108.9 -291.75 110.2 -293.05 110.75 -293.05 L114.6 -292.0 Q118.45 -290.9 121.25 -290.8 L124.3 -285.7 Q126.0 -282.95 126.4 -281.65 139.95 -282.9 145.45 -284.45 L151.35 -287.9 153.8 -289.3 154.05 -289.55 159.75 -292.9 160.0 -293.05 160.2 -293.15 163.0 -294.9 165.4 -296.05 167.25 -297.1 169.5 -296.85 170.95 -297.0 170.45 -297.15 M185.3 -303.0 L186.1 -302.75 185.95 -303.0 185.3 -303.0 M191.8 -298.7 L192.5 -298.15 192.55 -298.1 192.4 -297.2 Q192.25 -297.35 191.85 -298.55 L191.8 -298.7 M171.65 -296.9 L171.1 -296.85 171.0 -296.8 171.9 -296.85 171.65 -296.9 M146.4 -288.2 Q146.2 -287.2 144.75 -287.2 144.75 -287.8 145.25 -288.2 145.7 -288.6 146.3 -288.6 L146.4 -288.2 M145.7 -284.5 L147.05 -285.0 Q149.65 -286.0 152.75 -288.45 L145.7 -284.5 M134.55 -290.75 L135.85 -290.95 135.4 -290.3 Q135.05 -289.95 134.75 -289.95 L134.55 -290.75 M130.1 -274.15 L130.25 -273.35 Q130.25 -272.9 130.35 -272.9 130.0 -272.5 129.45 -272.25 L129.3 -272.35 129.25 -273.35 Q129.25 -274.2 129.45 -274.25 L130.1 -274.15 M140.85 -270.5 Q140.85 -270.1 140.3 -270.05 L139.75 -271.25 140.7 -271.35 140.85 -270.5 M145.3 -269.0 L144.75 -268.85 144.45 -269.5 144.2 -270.1 145.2 -270.25 145.3 -269.0 M72.9 -100.25 Q74.8 -98.35 78.75 -96.3 76.5 -97.05 74.85 -98.1 71.1 -100.5 69.55 -104.7 67.4 -104.3 63.85 -101.6 60.05 -98.75 60.05 -97.1 60.05 -95.8 63.55 -94.15 L61.65 -92.1 59.45 -89.7 58.05 -89.85 60.3 -91.7 62.45 -93.9 62.45 -94.05 60.8 -94.3 Q60.4 -94.5 59.75 -95.7 L59.15 -97.0 Q59.15 -99.7 64.3 -102.7 67.6 -104.65 70.7 -105.7 70.4 -102.75 72.9 -100.25 M56.35 -96.2 L57.3 -97.35 Q57.1 -95.8 55.6 -91.8 L56.75 -91.85 56.6 -90.95 56.3 -90.35 57.2 -89.7 57.3 -89.3 56.75 -89.35 57.0 -89.05 58.95 -86.25 58.85 -85.9 56.2 -88.2 Q55.4 -89.0 55.05 -89.8 L54.7 -89.85 Q54.15 -90.75 54.15 -91.05 L54.3 -91.15 Q54.15 -91.5 54.15 -92.1 54.15 -93.0 54.7 -93.75 L55.8 -95.25 56.35 -96.2 M94.9 -96.9 L95.15 -95.95 Q95.15 -95.6 94.55 -94.8 L95.15 -95.15 95.25 -94.95 95.25 -94.1 94.3 -90.75 93.05 -87.2 92.5 -87.1 Q92.6 -88.0 94.05 -91.6 94.2 -92.1 93.55 -93.25 L93.55 -93.65 Q92.25 -92.2 91.4 -91.85 92.45 -94.35 93.35 -95.65 L93.2 -95.7 Q92.5 -96.0 92.5 -96.25 L90.85 -96.1 89.15 -94.65 87.75 -93.6 83.6 -93.75 82.8 -95.25 79.8 -95.95 81.0 -96.05 82.8 -96.35 Q83.6 -96.25 83.6 -94.6 84.05 -94.6 84.15 -94.3 87.45 -94.45 88.9 -95.1 90.2 -95.65 90.3 -96.8 L93.05 -96.9 94.05 -96.8 94.25 -96.6 94.6 -96.8 94.9 -96.9" fill="#ffffff" fill-rule="evenodd" stroke="none"/>
    <path d="M13.65 -212.4 L13.55 -212.05 9.0 -212.05 9.0 -212.4 8.9 -212.65 7.85 -212.4 7.55 -212.5 Q7.2 -212.65 7.2 -212.85 L8.25 -213.0 Q8.9 -213.0 9.45 -212.5 L10.85 -212.65 Q10.85 -213.2 12.05 -213.8 L13.65 -212.4 M6.55 -211.8 L6.75 -211.5 Q2.85 -207.25 2.85 -205.9 2.85 -205.55 3.45 -205.2 4.05 -204.8 4.05 -203.9 L3.8 -203.55 2.7 -204.8 Q2.05 -205.55 2.05 -205.85 2.05 -206.6 3.15 -208.0 4.15 -209.3 3.9 -210.3 L4.35 -211.05 5.55 -211.55 6.55 -211.8 M145.2 -198.2 L144.95 -197.55 144.45 -197.55 144.0 -198.6 Q144.0 -199.35 144.35 -199.55 L146.2 -199.3 147.7 -199.1 147.85 -198.95 147.95 -199.65 Q147.95 -200.9 146.45 -200.7 146.25 -201.05 146.25 -202.5 146.9 -202.75 147.95 -201.7 148.95 -200.65 148.95 -199.85 148.95 -199.3 148.3 -198.6 147.7 -197.9 147.15 -197.9 146.1 -197.9 145.8 -198.75 145.4 -198.65 145.2 -198.2 M127.8 -102.85 L128.25 -102.45 128.55 -101.45 128.25 -100.25 127.65 -99.45 126.15 -99.8 126.0 -98.75 125.55 -98.65 125.45 -100.4 126.65 -100.6 Q126.9 -100.4 127.35 -100.4 127.55 -100.65 127.35 -101.1 L127.15 -101.8 127.35 -102.85 127.8 -102.85 M64.6 -179.3 L64.4 -178.25 65.55 -177.9 66.6 -176.85 64.85 -175.55 62.9 -174.3 62.85 -174.15 Q62.75 -174.15 62.75 -174.85 62.75 -175.85 64.05 -176.05 65.6 -176.25 65.9 -176.65 63.7 -177.65 63.7 -178.3 63.7 -179.0 64.0 -179.2 L64.6 -179.3 M-30.7 -299.55 Q-30.25 -299.0 -30.25 -298.4 -30.25 -297.4 -30.6 -296.55 -31.1 -297.3 -31.05 -297.85 L-30.95 -298.45 Q-30.95 -299.0 -31.45 -299.2 -31.95 -299.45 -31.95 -300.0 -31.95 -301.55 -30.0 -301.65 L-26.65 -301.55 -26.0 -302.35 Q-25.85 -302.7 -25.85 -303.5 -25.85 -304.05 -26.3 -304.3 -26.75 -304.55 -26.75 -305.15 L-25.9 -306.05 -24.45 -307.0 -25.1 -305.1 -25.2 -303.2 Q-25.2 -301.85 -26.3 -300.65 L-28.3 -300.75 -29.7 -301.05 -31.2 -300.4 -30.7 -299.55 M-181.25 -226.7 L-180.15 -226.45 -179.1 -225.55 -177.95 -224.25 -178.05 -223.55 -178.3 -223.35 Q-178.6 -223.15 -178.95 -223.1 -179.1 -223.4 -178.65 -224.1 L-180.7 -225.15 Q-181.65 -225.75 -182.35 -226.65 L-181.9 -227.15 -181.25 -226.7" fill="#ffffff" fill-opacity="0.9019608" fill-rule="evenodd" stroke="none"/>
  </g>
</svg>
