<?xml version="1.0" encoding="UTF-8" standalone="no"?>
<svg xmlns:ffdec="https://www.free-decompiler.com/flash" xmlns:xlink="http://www.w3.org/1999/xlink" ffdec:objectType="shape" height="211.25px" width="182.35px" xmlns="http://www.w3.org/2000/svg">
  <g transform="matrix(1.0, 0.0, 0.0, 1.0, 31.5, 340.55)">
    <path d="M110.25 -330.2 L110.05 -330.7 110.1 -331.25 Q110.95 -333.65 115.75 -336.15 L121.6 -338.7 121.65 -338.7 Q124.75 -340.2 126.65 -340.45 L126.7 -340.45 Q129.85 -340.9 133.0 -339.15 L132.75 -339.25 135.85 -337.15 Q137.0 -336.4 140.1 -336.1 L140.25 -336.1 Q140.9 -336.45 141.45 -335.8 L141.7 -335.35 141.75 -334.3 Q141.8 -333.5 141.15 -332.15 L140.75 -330.9 Q140.8 -329.3 142.5 -328.1 146.2 -325.45 148.1 -323.15 150.55 -320.15 150.85 -318.3 L150.85 -318.1 150.8 -313.9 150.7 -310.7 150.7 -310.75 Q150.35 -308.3 148.65 -306.9 148.4 -306.7 148.1 -306.65 L147.55 -306.75 Q146.8 -307.05 146.6 -308.15 L145.05 -308.4 Q134.35 -308.4 127.4 -301.75 L127.95 -301.25 128.05 -300.55 Q127.95 -300.2 127.65 -299.95 123.25 -296.9 121.2 -292.45 L121.0 -291.85 120.8 -291.45 Q119.9 -289.15 119.55 -286.5 L119.2 -285.9 118.55 -285.65 118.25 -285.65 117.7 -285.8 117.3 -286.3 117.3 -286.95 Q117.45 -287.75 116.7 -289.15 116.5 -289.5 116.6 -289.8 L116.9 -290.4 117.1 -290.6 Q117.3 -291.0 117.3 -292.05 L116.95 -293.6 116.9 -294.15 117.05 -296.05 117.0 -296.6 116.25 -297.55 115.9 -297.7 115.45 -298.1 Q115.25 -298.4 115.3 -298.75 L115.2 -298.9 Q114.9 -299.4 114.9 -302.0 114.9 -304.5 115.7 -306.0 L115.75 -306.05 Q116.7 -307.75 119.55 -310.05 L120.05 -310.3 Q122.7 -310.6 124.05 -311.85 124.0 -317.5 123.1 -321.95 121.25 -330.65 116.5 -330.8 L114.0 -330.2 110.75 -329.95 Q110.45 -330.0 110.25 -330.2 M113.75 -331.2 L116.5 -331.8 Q122.0 -331.8 124.05 -322.15 125.05 -317.5 125.05 -311.5 L125.05 -311.4 Q123.5 -309.65 120.15 -309.3 117.5 -307.15 116.6 -305.55 115.9 -304.2 115.9 -302.0 115.9 -299.75 116.1 -299.3 L116.45 -298.8 116.3 -298.65 116.8 -298.4 Q117.7 -297.85 117.95 -296.85 L118.05 -296.05 117.85 -293.95 118.3 -292.05 Q118.3 -290.55 117.9 -290.0 L117.55 -289.65 Q118.6 -287.75 118.25 -286.65 L118.55 -286.65 Q118.95 -289.6 120.0 -292.15 L120.05 -292.15 120.25 -292.75 Q122.4 -297.55 127.05 -300.8 124.75 -299.85 122.6 -297.5 123.8 -299.35 125.45 -301.2 132.95 -309.4 145.05 -309.4 L147.55 -308.9 Q147.55 -307.9 148.0 -307.65 149.4 -308.85 149.7 -310.9 L149.8 -313.9 149.85 -318.15 Q149.55 -319.8 147.3 -322.55 145.5 -324.75 141.9 -327.3 139.75 -328.8 139.75 -330.9 139.75 -331.5 140.25 -332.6 L140.75 -334.3 Q140.75 -335.55 140.55 -335.05 136.65 -335.35 135.25 -336.35 L132.5 -338.3 Q129.65 -339.85 126.8 -339.45 125.0 -339.2 122.0 -337.8 L116.2 -335.25 Q111.85 -333.0 111.0 -330.9 L113.75 -331.2 M58.15 -297.65 L56.7 -295.6 55.9 -293.75 55.2 -290.75 56.05 -291.5 Q57.35 -292.4 58.5 -292.65 60.1 -292.95 61.0 -291.95 L61.85 -290.3 63.05 -287.15 63.25 -284.15 Q63.25 -281.25 61.6 -277.1 L63.65 -278.5 Q68.3 -283.3 72.0 -284.05 73.0 -283.35 73.0 -282.85 L73.0 -282.6 73.4 -283.9 73.9 -286.9 Q73.9 -289.45 72.8 -290.85 L70.15 -294.35 Q68.8 -295.5 67.5 -295.8 L67.25 -296.05 66.0 -296.0 Q64.7 -296.0 64.15 -296.9 L63.95 -298.2 63.75 -299.9 63.65 -301.15 63.25 -301.9 63.25 -302.0 63.2 -302.0 62.75 -302.25 62.85 -302.0 62.5 -302.05 60.0 -300.35 58.15 -297.65 M59.15 -300.85 L59.35 -301.1 62.05 -302.95 62.25 -303.1 62.95 -303.2 63.65 -302.9 63.95 -302.7 64.2 -302.3 64.6 -301.4 64.65 -301.4 64.75 -299.8 64.95 -298.35 65.1 -297.3 Q65.4 -297.0 66.0 -297.0 L67.15 -297.05 67.7 -296.95 68.0 -296.7 Q69.4 -296.3 70.8 -295.1 L70.95 -294.95 73.6 -291.45 Q74.9 -289.85 74.9 -286.9 L74.9 -286.7 74.4 -283.75 73.85 -282.05 73.4 -281.65 72.75 -281.6 72.2 -282.0 72.0 -282.6 72.0 -282.85 71.8 -282.95 Q68.5 -282.05 64.4 -277.8 L64.2 -277.65 62.2 -276.25 61.6 -276.1 Q61.25 -276.1 61.0 -276.3 L60.65 -276.85 60.7 -277.45 Q62.25 -281.4 62.25 -284.15 L62.1 -286.95 60.95 -289.85 60.25 -291.25 Q59.65 -291.85 58.7 -291.65 L58.75 -291.65 Q57.75 -291.45 56.65 -290.65 L55.95 -290.1 Q55.75 -289.85 55.4 -289.75 L54.8 -289.85 54.3 -290.3 54.25 -290.95 Q54.75 -293.6 55.0 -294.1 L55.0 -294.15 55.8 -296.0 55.85 -296.15 57.35 -298.25 59.15 -300.85 M44.45 -289.95 L37.5 -291.8 Q36.15 -291.0 35.0 -290.8 35.05 -288.2 31.4 -285.75 27.6 -283.6 25.85 -282.25 L25.5 -282.3 Q20.05 -277.3 20.05 -275.25 20.05 -274.5 20.25 -274.45 L21.0 -274.55 21.9 -274.8 24.25 -275.05 Q27.75 -268.5 27.75 -263.05 L27.45 -258.8 26.8 -253.3 Q26.15 -248.55 23.55 -243.55 21.95 -240.3 17.1 -235.55 L15.5 -235.05 Q16.15 -237.4 10.0 -234.45 2.65 -230.55 0.55 -229.55 -2.45 -228.1 -6.6 -224.6 -10.55 -221.25 -12.25 -218.9 -18.4 -210.55 -20.4 -206.9 -24.1 -200.3 -24.1 -194.75 L-24.15 -193.5 -24.1 -192.65 Q-24.0 -192.05 -23.2 -191.6 L-22.1 -190.9 -20.4 -188.5 Q-19.05 -186.9 -17.5 -186.5 L-14.75 -183.55 Q-7.6 -182.1 -7.6 -179.15 -7.6 -178.55 -8.4 -177.4 -9.1 -176.4 -9.5 -176.15 L-11.5 -176.05 Q-13.9 -176.05 -16.85 -177.95 -20.2 -180.1 -21.5 -180.4 -25.5 -179.2 -28.25 -173.6 -30.5 -169.0 -30.5 -165.5 -30.5 -163.5 -29.35 -161.0 -28.0 -157.95 -25.75 -156.55 L-24.45 -156.45 -23.85 -155.9 Q-15.45 -153.55 -9.05 -150.5 -4.45 -148.25 2.05 -144.05 5.15 -141.95 8.5 -136.9 9.65 -134.75 12.0 -133.35 17.1 -130.3 27.0 -130.3 32.4 -130.3 38.4 -134.95 46.3 -141.1 50.9 -144.3 52.2 -144.7 56.1 -147.15 61.25 -150.4 61.25 -152.4 61.25 -153.45 60.65 -154.2 61.3 -154.7 62.0 -154.8 L62.75 -154.8 62.7 -154.55 62.5 -153.6 Q62.5 -151.9 64.1 -149.8 65.05 -148.5 66.2 -147.7 67.05 -146.8 68.25 -146.15 L77.05 -145.9 Q78.35 -145.95 79.7 -145.3 81.2 -144.55 83.5 -144.55 85.75 -144.55 89.4 -146.25 L95.3 -149.4 Q97.3 -150.55 99.65 -153.0 L102.75 -156.3 Q104.85 -158.1 108.45 -164.3 110.05 -167.0 112.15 -168.75 L114.25 -171.1 Q118.65 -175.6 123.9 -176.9 L125.3 -178.9 Q127.15 -180.75 128.3 -183.95 L130.25 -189.05 Q131.4 -191.3 132.6 -198.2 133.8 -205.1 133.8 -209.3 133.8 -213.7 132.45 -217.1 130.35 -222.45 125.5 -222.8 L123.25 -222.5 121.3 -222.4 Q119.7 -223.1 119.05 -224.25 L119.5 -224.4 119.5 -225.0 119.25 -225.9 Q120.2 -225.95 119.75 -226.3 L118.7 -228.05 118.3 -229.1 Q118.3 -234.65 119.35 -239.4 120.45 -244.2 123.05 -250.3 124.7 -254.1 126.6 -257.35 L126.75 -257.4 Q128.25 -260.35 132.75 -264.85 138.2 -270.3 142.3 -270.75 L143.0 -270.8 143.25 -270.8 145.5 -270.3 Q146.0 -269.3 146.5 -269.05 L147.0 -269.65 147.0 -273.4 144.4 -281.0 Q142.8 -283.3 137.5 -283.3 135.7 -283.3 131.75 -280.9 127.5 -278.35 123.8 -277.9 121.3 -278.55 119.6 -280.65 118.15 -282.5 118.05 -284.15 L115.7 -284.85 112.0 -285.15 108.35 -284.8 Q105.9 -284.55 104.5 -284.8 97.9 -281.75 94.0 -277.4 L91.85 -275.45 Q90.3 -274.1 90.0 -273.4 L88.55 -271.05 Q87.35 -269.25 86.55 -268.55 L87.1 -268.15 87.5 -268.05 87.6 -268.15 87.8 -268.15 87.25 -267.8 90.55 -268.7 94.05 -269.55 Q95.85 -268.5 97.0 -266.3 98.05 -264.25 98.05 -262.3 98.05 -259.5 96.65 -256.35 94.85 -252.25 91.5 -250.4 89.6 -249.35 85.25 -243.85 L84.3 -242.6 83.65 -242.0 Q81.05 -239.5 78.75 -238.9 L78.15 -238.7 77.5 -238.9 75.85 -237.9 Q71.7 -236.15 68.4 -232.55 64.55 -228.35 62.9 -224.6 62.05 -222.6 61.65 -220.35 60.5 -216.7 60.5 -214.3 L61.4 -211.75 62.25 -208.3 Q62.25 -206.55 61.3 -203.95 L54.6 -194.35 53.35 -193.5 Q50.9 -191.75 46.0 -191.55 44.9 -192.3 42.65 -195.95 40.5 -199.45 40.5 -200.25 40.5 -200.85 41.0 -201.75 L41.5 -203.25 Q41.5 -204.5 41.25 -203.8 L39.35 -203.45 38.85 -204.3 Q37.95 -205.75 37.6 -206.75 37.1 -208.3 37.1 -210.9 L37.75 -216.05 Q37.75 -216.7 37.2 -217.35 L36.3 -219.4 Q35.3 -220.85 35.3 -222.6 35.3 -224.85 37.75 -227.6 L41.5 -231.8 Q42.8 -232.4 44.25 -232.8 L47.05 -232.8 48.25 -231.65 Q50.45 -233.4 51.0 -235.2 L51.2 -236.25 51.3 -236.45 52.0 -238.25 52.55 -240.25 53.0 -242.15 Q53.0 -244.55 52.65 -246.3 52.35 -247.95 51.7 -248.9 51.15 -249.65 51.15 -250.75 51.15 -251.2 51.6 -252.3 L50.75 -252.3 50.35 -252.5 Q49.55 -252.65 49.0 -254.1 48.5 -255.35 48.5 -256.45 L48.5 -256.6 48.3 -256.65 49.15 -261.05 50.25 -265.3 Q50.45 -265.9 51.85 -267.1 53.15 -268.2 53.25 -268.9 L53.6 -271.2 53.6 -275.15 53.6 -275.45 53.6 -275.55 53.6 -279.75 Q51.8 -285.7 49.95 -288.25 L49.65 -288.4 49.4 -288.65 44.45 -289.95 M50.0 -289.45 L50.2 -289.25 50.4 -289.15 50.75 -288.85 Q52.65 -286.2 54.55 -280.05 L54.6 -279.75 54.6 -275.55 54.6 -275.35 54.6 -275.2 54.6 -275.15 54.6 -271.2 54.6 -271.1 54.25 -268.7 54.25 -268.75 Q54.2 -267.75 52.5 -266.3 L52.5 -266.35 51.2 -264.95 50.15 -260.85 49.4 -257.05 49.5 -256.6 49.5 -256.45 Q49.5 -255.55 49.95 -254.45 L50.5 -253.45 50.85 -253.35 51.0 -253.3 51.6 -253.3 52.2 -253.1 52.55 -252.55 52.5 -251.9 52.15 -250.75 Q52.15 -250.0 52.5 -249.5 L52.55 -249.45 Q53.3 -248.4 53.65 -246.5 54.0 -244.65 54.0 -242.15 L53.55 -240.0 52.95 -237.9 52.2 -235.95 51.95 -234.85 51.95 -234.9 Q51.35 -232.85 48.9 -230.85 48.6 -230.65 48.2 -230.65 47.85 -230.65 47.55 -230.9 L46.65 -231.8 44.35 -231.8 42.1 -230.95 38.5 -226.95 38.5 -226.9 Q36.35 -224.55 36.3 -222.6 36.3 -221.15 37.15 -219.95 37.85 -218.9 38.15 -217.8 38.8 -216.9 38.75 -216.05 L38.75 -215.9 38.1 -210.9 Q38.1 -208.5 38.55 -207.05 38.85 -206.15 39.7 -204.8 L39.9 -204.55 40.6 -204.65 40.6 -204.7 Q41.1 -205.25 41.6 -205.0 L42.35 -204.4 42.5 -203.25 Q42.5 -202.4 41.85 -201.25 L41.9 -201.25 41.5 -200.25 Q41.6 -199.6 43.5 -196.45 45.35 -193.45 46.35 -192.55 50.6 -192.8 52.8 -194.3 L53.85 -195.05 60.4 -204.4 Q61.25 -206.7 61.25 -208.3 L60.45 -211.4 59.5 -214.3 Q59.5 -216.85 60.7 -220.65 61.1 -222.95 62.0 -225.0 63.7 -228.9 67.7 -233.2 71.05 -236.9 75.3 -238.75 L75.35 -238.75 77.05 -239.75 77.75 -239.85 78.15 -239.75 78.5 -239.85 Q80.6 -240.45 82.95 -242.7 L83.6 -243.35 84.45 -244.45 84.5 -244.45 Q89.0 -250.2 91.05 -251.25 94.1 -253.0 95.75 -256.75 97.05 -259.7 97.05 -262.3 97.05 -264.05 96.1 -265.85 L96.15 -265.8 Q95.2 -267.6 93.85 -268.5 L90.85 -267.7 87.25 -266.8 Q86.9 -266.8 86.65 -267.0 86.4 -267.15 86.3 -267.4 L85.7 -268.0 Q85.5 -268.35 85.6 -268.7 L85.9 -269.3 87.75 -271.6 89.1 -273.8 89.1 -273.85 Q89.45 -274.7 91.2 -276.2 L93.25 -278.0 93.25 -278.05 Q97.25 -282.55 104.1 -285.7 L104.7 -285.75 Q106.0 -285.55 108.25 -285.8 L108.3 -285.8 111.9 -286.15 111.95 -286.15 115.95 -285.8 118.4 -285.1 118.85 -284.75 119.05 -284.2 Q119.15 -282.85 120.4 -281.25 121.8 -279.5 123.9 -278.9 127.3 -279.4 131.25 -281.75 135.5 -284.35 137.5 -284.3 143.45 -284.3 145.25 -281.55 145.7 -280.9 147.95 -273.7 L148.0 -273.4 148.0 -269.65 147.9 -269.15 147.15 -268.25 146.65 -268.05 146.05 -268.15 Q145.4 -268.4 144.8 -269.5 L143.25 -269.8 143.2 -269.8 143.05 -269.8 142.45 -269.75 142.4 -269.75 Q138.6 -269.3 133.45 -264.15 129.1 -259.8 127.65 -256.95 L127.35 -256.6 127.25 -256.55 Q125.5 -253.45 124.0 -249.9 121.4 -243.9 120.35 -239.15 119.3 -234.55 119.3 -229.1 L119.6 -228.55 119.55 -228.55 120.55 -226.9 120.85 -226.45 Q121.1 -225.75 120.5 -225.25 L120.5 -225.0 120.5 -224.4 120.45 -224.1 121.5 -223.4 123.2 -223.5 125.05 -223.7 125.6 -223.8 Q131.05 -223.45 133.4 -217.45 134.8 -213.9 134.8 -209.3 134.8 -205.05 133.6 -198.0 132.35 -190.9 131.15 -188.6 L129.25 -183.6 Q128.05 -180.3 126.15 -178.3 L124.7 -176.35 124.15 -175.95 Q119.2 -174.7 115.0 -170.4 L112.95 -168.1 112.8 -167.95 Q110.8 -166.3 109.3 -163.8 L109.35 -163.8 Q105.6 -157.4 103.4 -155.55 L100.4 -152.3 Q97.9 -149.75 95.8 -148.5 L89.85 -145.35 Q85.9 -143.55 83.5 -143.55 80.95 -143.55 79.25 -144.4 L79.3 -144.4 Q78.15 -144.95 77.1 -144.9 L77.05 -144.9 68.25 -145.15 67.8 -145.25 65.5 -146.95 Q64.3 -147.8 63.3 -149.2 62.5 -150.25 62.05 -151.25 61.15 -149.15 56.65 -146.3 L51.4 -143.45 39.05 -134.15 Q32.7 -129.25 27.0 -129.3 16.75 -129.3 11.5 -132.5 8.9 -134.05 7.65 -136.4 4.45 -141.2 1.5 -143.2 -4.95 -147.35 -9.5 -149.6 L-9.45 -149.6 Q-15.8 -152.6 -24.1 -154.9 L-24.5 -155.15 -24.85 -155.5 -25.8 -155.55 -26.25 -155.7 Q-28.8 -157.25 -30.25 -160.6 L-30.25 -160.55 Q-31.5 -163.3 -31.5 -165.5 -31.5 -169.2 -29.15 -174.05 -26.15 -180.1 -21.75 -181.35 L-21.25 -181.35 Q-19.85 -181.1 -16.3 -178.8 -13.7 -177.1 -11.55 -177.05 L-9.85 -177.1 -9.2 -177.95 Q-8.65 -178.75 -8.6 -179.15 -8.8 -181.35 -14.95 -182.55 L-15.45 -182.85 -18.05 -185.6 Q-19.65 -186.15 -21.1 -187.8 L-21.15 -187.85 -22.95 -190.35 -23.6 -190.7 -23.7 -190.7 Q-24.95 -191.45 -25.05 -192.4 L-25.15 -193.6 -25.1 -194.75 Q-25.1 -200.55 -21.25 -207.4 L-21.25 -207.35 Q-19.25 -211.05 -13.05 -219.5 L-13.05 -219.45 Q-11.3 -221.9 -7.25 -225.35 -2.95 -228.95 0.15 -230.45 L9.55 -235.3 9.6 -235.35 Q12.85 -236.95 14.35 -237.05 15.65 -237.2 16.1 -236.6 L16.35 -236.35 16.4 -236.25 16.6 -236.45 Q21.1 -240.95 22.65 -244.0 L22.7 -244.0 Q25.2 -248.85 25.8 -253.4 L25.8 -253.45 26.45 -258.9 26.75 -263.05 Q26.75 -268.05 23.7 -274.0 L22.2 -273.85 21.2 -273.55 20.25 -273.45 20.0 -273.45 Q19.05 -273.4 19.05 -275.25 18.9 -277.6 24.85 -283.0 L25.2 -283.25 25.6 -283.3 Q27.35 -284.6 30.9 -286.6 L30.85 -286.55 Q33.95 -288.65 34.0 -290.75 L34.25 -291.4 Q34.45 -291.7 34.85 -291.75 35.8 -291.95 37.0 -292.65 L37.6 -292.8 44.75 -290.9 49.6 -289.65 50.0 -289.45 M51.35 -238.75 L51.3 -238.65 51.3 -238.75 51.35 -238.75" fill="#b6ffff" fill-opacity="0.9019608" fill-rule="evenodd" stroke="none"/>
    <path d="M116.2 -335.25 L122.0 -337.8 Q125.0 -339.2 126.8 -339.45 129.65 -339.85 132.5 -338.3 L135.25 -336.35 Q136.65 -335.35 140.55 -335.05 140.75 -335.55 140.75 -334.3 L140.25 -332.6 Q139.75 -331.5 139.75 -330.9 139.75 -328.8 141.9 -327.3 145.5 -324.75 147.3 -322.55 149.55 -319.8 149.85 -318.15 L149.8 -313.9 149.7 -310.9 Q149.4 -308.85 148.0 -307.65 147.55 -307.9 147.55 -308.9 L145.05 -309.4 Q132.95 -309.4 125.45 -301.2 123.8 -299.35 122.6 -297.5 124.75 -299.85 127.05 -300.8 122.4 -297.55 120.25 -292.75 L120.05 -292.15 120.0 -292.15 Q118.95 -289.6 118.55 -286.65 L118.25 -286.65 Q118.6 -287.75 117.55 -289.65 L117.9 -290.0 Q118.3 -290.55 118.3 -292.05 L117.85 -293.95 118.05 -296.05 117.95 -296.85 Q117.7 -297.85 116.8 -298.4 L116.3 -298.65 116.45 -298.8 116.1 -299.3 Q115.9 -299.75 115.9 -302.0 115.9 -304.2 116.6 -305.55 117.5 -307.15 120.15 -309.3 123.5 -309.65 125.05 -311.4 L125.05 -311.5 Q125.05 -317.5 124.05 -322.15 122.0 -331.8 116.5 -331.8 L113.75 -331.2 111.0 -330.9 Q111.85 -333.0 116.2 -335.25 M51.35 -238.75 L51.3 -238.75 51.3 -238.65 51.35 -238.75 M49.65 -288.4 L49.95 -288.25 Q51.8 -285.7 53.6 -279.75 L53.6 -275.55 53.6 -275.45 53.6 -275.15 53.6 -271.2 53.25 -268.9 Q53.15 -268.2 51.85 -267.1 50.45 -265.9 50.25 -265.3 L49.15 -261.05 48.3 -256.65 48.5 -256.6 48.5 -256.45 Q48.5 -255.35 49.0 -254.1 49.55 -252.65 50.35 -252.5 L50.75 -252.3 51.6 -252.3 Q51.15 -251.2 51.15 -250.75 51.15 -249.65 51.7 -248.9 52.35 -247.95 52.65 -246.3 53.0 -244.55 53.0 -242.15 L52.55 -240.25 52.0 -238.25 51.3 -236.45 51.2 -236.25 51.0 -235.2 Q50.45 -233.4 48.25 -231.65 L47.05 -232.8 44.25 -232.8 Q42.8 -232.4 41.5 -231.8 L37.75 -227.6 Q35.3 -224.85 35.3 -222.6 35.3 -220.85 36.3 -219.4 L37.2 -217.35 Q37.75 -216.7 37.75 -216.05 L37.1 -210.9 Q37.1 -208.3 37.6 -206.75 37.95 -205.75 38.85 -204.3 L39.35 -203.45 41.25 -203.8 Q41.5 -204.5 41.5 -203.25 L41.0 -201.75 Q40.5 -200.85 40.5 -200.25 40.5 -199.45 42.65 -195.95 44.9 -192.3 46.0 -191.55 50.9 -191.75 53.35 -193.5 L54.6 -194.35 61.3 -203.95 Q62.25 -206.55 62.25 -208.3 L61.4 -211.75 60.5 -214.3 Q60.5 -216.7 61.65 -220.35 62.05 -222.6 62.9 -224.6 64.55 -228.35 68.4 -232.55 71.7 -236.15 75.85 -237.9 L77.5 -238.9 78.15 -238.7 78.75 -238.9 Q81.05 -239.5 83.65 -242.0 L84.3 -242.6 85.25 -243.85 Q89.6 -249.35 91.5 -250.4 94.85 -252.25 96.65 -256.35 98.05 -259.5 98.05 -262.3 98.05 -264.25 97.0 -266.3 95.85 -268.5 94.05 -269.55 L90.55 -268.7 87.25 -267.8 87.8 -268.15 87.6 -268.15 87.5 -268.05 87.1 -268.15 86.55 -268.55 Q87.35 -269.25 88.55 -271.05 L90.0 -273.4 Q90.3 -274.1 91.85 -275.45 L94.0 -277.4 Q97.9 -281.75 104.5 -284.8 105.9 -284.55 108.35 -284.8 L112.0 -285.15 115.7 -284.85 118.05 -284.15 Q118.15 -282.5 119.6 -280.65 121.3 -278.55 123.8 -277.9 127.5 -278.35 131.75 -280.9 135.7 -283.3 137.5 -283.3 142.8 -283.3 144.4 -281.0 L147.0 -273.4 147.0 -269.65 146.5 -269.05 Q146.0 -269.3 145.5 -270.3 L143.25 -270.8 143.0 -270.8 142.3 -270.75 Q138.2 -270.3 132.75 -264.85 128.25 -260.35 126.75 -257.4 L126.6 -257.35 Q124.7 -254.1 123.05 -250.3 120.45 -244.2 119.35 -239.4 118.3 -234.65 118.3 -229.1 L118.7 -228.05 119.75 -226.3 Q120.2 -225.95 119.25 -225.9 L119.5 -225.0 119.5 -224.4 119.05 -224.25 Q119.7 -223.1 121.3 -222.4 L123.25 -222.5 125.5 -222.8 Q130.35 -222.45 132.45 -217.1 133.8 -213.7 133.8 -209.3 133.8 -205.1 132.6 -198.2 131.4 -191.3 130.25 -189.05 L128.3 -183.95 Q127.15 -180.75 125.3 -178.9 L123.9 -176.9 Q118.65 -175.6 114.25 -171.1 L112.15 -168.75 Q110.05 -167.0 108.45 -164.3 104.85 -158.1 102.75 -156.3 L99.65 -153.0 Q97.3 -150.55 95.3 -149.4 L89.4 -146.25 Q85.75 -144.55 83.5 -144.55 81.2 -144.55 79.7 -145.3 78.35 -145.95 77.05 -145.9 L68.25 -146.15 Q67.05 -146.8 66.2 -147.7 65.05 -148.5 64.1 -149.8 62.5 -151.9 62.5 -153.6 L62.7 -154.55 62.75 -154.8 62.0 -154.8 Q61.3 -154.7 60.65 -154.2 61.25 -153.45 61.25 -152.4 61.25 -150.4 56.1 -147.15 52.2 -144.7 50.9 -144.3 46.3 -141.1 38.4 -134.95 32.4 -130.3 27.0 -130.3 17.1 -130.3 12.0 -133.35 9.65 -134.75 8.5 -136.9 5.15 -141.95 2.05 -144.05 -4.45 -148.25 -9.05 -150.5 -15.45 -153.55 -23.85 -155.9 L-24.45 -156.45 -25.75 -156.55 Q-28.0 -157.95 -29.35 -161.0 -30.5 -163.5 -30.5 -165.5 -30.5 -169.0 -28.25 -173.6 -25.5 -179.2 -21.5 -180.4 -20.2 -180.1 -16.85 -177.95 -13.9 -176.05 -11.5 -176.05 L-9.5 -176.15 Q-9.1 -176.4 -8.4 -177.4 -7.6 -178.55 -7.6 -179.15 -7.6 -182.1 -14.75 -183.55 L-17.5 -186.5 Q-19.05 -186.9 -20.4 -188.5 L-22.1 -190.9 -23.2 -191.6 Q-24.0 -192.05 -24.1 -192.65 L-24.15 -193.5 -24.1 -194.75 Q-24.1 -200.3 -20.4 -206.9 -18.4 -210.55 -12.25 -218.9 -10.55 -221.25 -6.6 -224.6 -2.45 -228.1 0.55 -229.55 2.65 -230.55 10.0 -234.45 16.15 -237.4 15.5 -235.05 L17.1 -235.55 Q21.95 -240.3 23.55 -243.55 26.15 -248.55 26.8 -253.3 L27.45 -258.8 27.75 -263.05 Q27.75 -268.5 24.25 -275.05 L21.9 -274.8 21.0 -274.55 20.25 -274.45 Q20.05 -274.5 20.05 -275.25 20.05 -277.3 25.5 -282.3 L25.85 -282.25 Q27.6 -283.6 31.4 -285.75 35.05 -288.2 35.0 -290.8 36.15 -291.0 37.5 -291.8 L44.45 -289.95 49.4 -288.65 49.65 -288.4 M58.15 -297.65 L60.0 -300.35 62.5 -302.05 62.85 -302.0 62.75 -302.25 63.2 -302.0 63.25 -302.0 63.25 -301.9 63.65 -301.15 63.75 -299.9 63.95 -298.2 64.15 -296.9 Q64.7 -296.0 66.0 -296.0 L67.25 -296.05 67.5 -295.8 Q68.8 -295.5 70.15 -294.35 L72.8 -290.85 Q73.9 -289.45 73.9 -286.9 L73.4 -283.9 73.0 -282.6 73.0 -282.85 Q73.0 -283.35 72.0 -284.05 68.3 -283.3 63.65 -278.5 L61.6 -277.1 Q63.25 -281.25 63.25 -284.15 L63.05 -287.15 61.85 -290.3 61.0 -291.95 Q60.1 -292.95 58.5 -292.65 57.35 -292.4 56.05 -291.5 L55.2 -290.75 55.9 -293.75 56.7 -295.6 58.15 -297.65" fill="#00ffff" fill-opacity="0.6" fill-rule="evenodd" stroke="none"/>
  </g>
</svg>
