<?xml version="1.0" encoding="UTF-8" standalone="no"?>
<svg xmlns:ffdec="https://www.free-decompiler.com/flash" xmlns:xlink="http://www.w3.org/1999/xlink" ffdec:objectType="shape" height="154.4px" width="136.0px" xmlns="http://www.w3.org/2000/svg">
  <g transform="matrix(1.0, 0.0, 0.0, 1.0, 8.75, 312.15)">
    <path d="M93.15 -311.65 Q93.25 -312.05 93.45 -312.05 93.8 -312.3 94.15 -311.85 L94.25 -311.6 94.3 -310.3 Q94.4 -309.2 88.4 -305.05 L82.05 -300.75 81.75 -300.7 79.5 -300.7 79.2 -300.8 79.05 -301.05 79.05 -301.4 79.25 -301.6 Q84.8 -304.8 86.15 -305.7 89.35 -307.9 93.15 -311.65 M70.5 -272.65 L70.6 -272.55 70.8 -272.7 76.1 -273.75 82.1 -274.5 82.2 -274.5 Q84.3 -274.2 84.5 -273.4 L84.5 -273.15 84.4 -272.9 84.15 -272.75 80.65 -271.8 77.65 -271.25 74.7 -270.7 74.5 -270.7 71.1 -271.05 70.9 -271.15 70.8 -271.35 70.7 -271.25 Q69.3 -270.7 66.25 -270.7 L61.45 -271.25 57.7 -272.0 52.95 -272.65 52.65 -272.85 51.4 -273.4 51.2 -273.55 51.1 -273.75 50.9 -274.6 50.85 -274.85 50.95 -275.05 51.7 -275.9 51.7 -275.95 51.8 -276.0 51.95 -276.3 52.25 -276.5 52.6 -276.4 Q53.75 -275.55 56.4 -274.9 L70.3 -272.75 70.5 -272.65 M57.4 -293.3 L55.3 -291.45 54.95 -291.4 53.75 -291.6 Q53.55 -291.65 53.45 -291.75 L53.3 -292.05 53.4 -292.35 Q54.05 -293.45 56.2 -294.95 58.4 -296.55 59.6 -296.75 L59.9 -296.75 60.15 -296.55 60.2 -296.25 60.1 -295.95 57.4 -293.3 M41.9 -247.9 L41.9 -247.7 41.6 -246.85 41.5 -246.8 39.6 -245.7 39.25 -245.65 Q39.05 -245.7 38.95 -245.8 L38.85 -246.15 38.75 -246.5 38.75 -246.45 38.5 -247.5 38.5 -247.55 38.65 -248.65 38.85 -248.95 39.15 -249.1 39.7 -249.15 39.75 -249.15 41.25 -248.85 41.5 -248.65 41.85 -248.1 41.9 -247.9 M127.25 -244.1 L126.4 -242.85 126.35 -242.8 Q125.55 -242.1 124.8 -241.9 L124.5 -241.9 124.3 -242.05 123.75 -242.65 123.6 -243.0 123.75 -243.3 125.2 -244.85 125.2 -244.9 Q125.95 -245.45 126.4 -245.3 127.0 -245.3 127.25 -244.4 L127.25 -244.1 M82.4 -158.25 L82.4 -158.3 Q81.1 -157.75 79.85 -157.75 L76.4 -158.2 76.1 -158.4 76.0 -158.65 76.1 -158.95 76.35 -159.15 79.0 -160.55 79.05 -160.55 Q82.2 -161.75 84.1 -160.3 L84.25 -160.1 84.45 -159.65 84.5 -159.3 84.3 -159.05 84.0 -158.95 82.4 -158.25 M61.0 -185.15 L60.8 -185.0 58.75 -184.8 52.9 -184.95 48.1 -185.4 39.15 -185.55 Q38.95 -185.55 38.8 -185.7 L38.65 -186.05 Q38.6 -185.8 38.0 -186.05 L38.05 -186.0 Q36.6 -186.6 36.7 -187.2 L36.85 -187.55 37.2 -187.7 41.4 -187.9 49.7 -187.5 Q61.35 -187.25 61.85 -186.15 L61.9 -185.9 61.85 -185.6 61.65 -185.45 61.0 -185.15 M53.15 -161.2 L53.15 -161.5 53.3 -161.8 53.85 -162.2 54.15 -162.3 62.0 -162.6 62.1 -162.8 62.35 -163.0 62.65 -163.0 Q64.65 -162.55 64.85 -162.05 L64.9 -161.75 64.8 -161.5 64.6 -161.3 61.95 -160.5 57.3 -160.0 57.2 -160.0 55.45 -160.25 Q53.3 -160.6 53.15 -161.2 M80.75 -167.2 L80.75 -166.95 80.6 -166.7 80.2 -166.3 Q80.05 -166.15 79.85 -166.15 L73.75 -166.0 73.65 -166.0 72.7 -166.25 Q71.5 -166.65 71.3 -167.15 L71.2 -167.5 71.4 -167.8 Q72.3 -168.5 77.6 -168.5 L77.7 -168.5 Q80.55 -168.05 80.75 -167.2 M6.7 -173.7 L6.95 -173.85 7.25 -173.85 9.9 -173.0 13.2 -171.0 13.35 -170.8 13.4 -170.6 13.4 -170.05 13.35 -169.75 13.1 -169.55 12.8 -169.55 9.3 -170.1 Q9.1 -170.1 9.0 -170.25 L8.05 -171.35 6.7 -173.15 6.6 -173.45 6.7 -173.7 M-4.75 -220.0 L-4.8 -219.7 -5.15 -219.15 -5.4 -219.0 -6.15 -218.65 -6.15 -218.6 -7.65 -218.2 -7.75 -218.15 Q-7.85 -218.05 -8.0 -218.05 L-8.25 -218.1 Q-8.75 -218.2 -8.75 -219.8 L-8.6 -220.8 Q-8.35 -221.55 -7.8 -221.4 L-7.3 -221.2 Q-5.2 -221.0 -4.8 -220.25 L-4.75 -220.0" fill="#cdffb4" fill-opacity="0.3019608" fill-rule="evenodd" stroke="none"/>
    <path d="M93.8 -310.3 Q93.8 -309.4 88.1 -305.45 84.25 -302.75 81.75 -301.2 L79.5 -301.2 86.4 -305.3 Q89.7 -307.55 93.55 -311.4 93.8 -312.15 93.8 -310.3 M55.0 -291.9 L53.8 -292.1 Q54.45 -293.1 56.5 -294.55 58.6 -296.05 59.7 -296.3 L57.05 -293.7 55.0 -291.9 M52.3 -276.0 Q53.5 -275.1 56.25 -274.45 L70.2 -272.25 70.5 -271.75 Q69.15 -271.2 66.25 -271.2 L61.5 -271.75 57.8 -272.5 53.05 -273.15 51.55 -273.9 51.35 -274.75 52.05 -275.6 52.3 -276.0 M41.4 -247.85 L41.15 -247.15 39.35 -246.15 39.2 -246.65 39.0 -247.5 39.15 -248.6 39.75 -248.65 41.05 -248.4 41.4 -247.85 M70.95 -272.25 L76.15 -273.25 82.1 -274.0 Q83.8 -273.75 84.0 -273.25 L80.4 -272.25 77.55 -271.75 74.5 -271.2 71.25 -271.55 70.95 -272.25 M126.0 -243.2 Q125.3 -242.55 124.65 -242.4 L124.1 -243.0 125.5 -244.5 Q126.5 -245.25 126.75 -244.3 L126.0 -243.2 M84.0 -159.45 L82.2 -158.75 Q81.0 -158.25 79.85 -158.25 L76.5 -158.7 79.2 -160.1 83.8 -159.9 84.0 -159.45 M48.15 -185.9 L39.15 -186.05 38.2 -186.5 Q37.2 -186.9 37.2 -187.2 L41.4 -187.4 49.65 -187.0 Q60.9 -186.75 61.4 -185.9 L60.65 -185.5 58.75 -185.3 52.9 -185.45 48.15 -185.9 M54.15 -161.8 L62.5 -162.15 62.5 -162.55 Q64.2 -162.15 64.4 -161.8 L61.8 -161.0 57.25 -160.5 55.5 -160.75 Q53.75 -161.05 53.6 -161.4 L54.15 -161.8 M80.25 -167.05 L79.85 -166.65 73.75 -166.5 72.85 -166.75 Q71.9 -167.05 71.7 -167.4 72.55 -168.0 77.6 -168.0 80.05 -167.6 80.25 -167.05 M12.9 -170.05 L9.35 -170.6 8.4 -171.7 7.1 -173.4 9.7 -172.55 Q11.0 -172.0 12.9 -170.6 L12.9 -170.05 M-5.25 -220.0 L-5.6 -219.45 -6.35 -219.1 -7.85 -218.7 -8.05 -218.55 Q-8.25 -218.65 -8.25 -219.8 -8.25 -220.95 -7.85 -220.9 L-7.5 -220.75 Q-5.6 -220.55 -5.25 -220.0" fill="#ffffff" fill-opacity="0.5019608" fill-rule="evenodd" stroke="none"/>
  </g>
</svg>
