<?xml version="1.0" encoding="UTF-8" standalone="no"?>
<svg xmlns:ffdec="https://www.free-decompiler.com/flash" xmlns:xlink="http://www.w3.org/1999/xlink" ffdec:objectType="shape" height="263.35px" width="407.65px" xmlns="http://www.w3.org/2000/svg">
  <g transform="matrix(1.0, 0.0, 0.0, 1.0, 204.15, 339.2)">
    <path d="M194.4 -337.85 Q195.35 -336.55 195.3 -335.8 195.3 -335.1 196.15 -333.1 L196.2 -333.15 Q196.85 -333.65 197.85 -333.65 200.35 -333.75 201.4 -329.7 201.9 -327.6 201.9 -324.7 201.9 -323.1 202.7 -320.5 203.5 -317.7 203.5 -316.35 203.5 -315.25 203.15 -315.0 L202.95 -314.8 202.8 -314.7 202.25 -314.45 201.95 -314.4 201.65 -314.6 Q201.1 -315.35 201.25 -316.1 L201.4 -317.45 200.95 -319.4 Q200.35 -321.0 200.35 -321.65 L200.4 -323.7 200.3 -325.7 200.35 -325.65 199.85 -327.8 199.3 -329.8 199.3 -329.75 Q198.3 -331.85 197.8 -331.9 L196.75 -331.0 Q194.2 -331.0 193.65 -333.6 193.15 -336.1 192.5 -337.15 L189.2 -333.85 189.15 -333.85 185.1 -329.95 185.1 -330.0 Q182.95 -328.5 182.0 -325.7 181.05 -323.1 179.15 -321.75 L180.9 -319.35 Q181.45 -318.3 181.45 -317.25 181.45 -316.25 181.0 -315.2 L180.1 -313.5 179.55 -312.05 179.55 -312.1 178.75 -310.55 175.45 -308.55 171.75 -306.5 Q163.45 -300.35 158.8 -298.6 153.05 -296.6 147.05 -298.2 L144.2 -298.35 143.95 -298.4 Q137.75 -297.75 135.5 -295.65 L135.55 -295.7 133.6 -293.75 Q132.35 -292.8 130.3 -292.4 L130.2 -292.1 130.7 -291.55 131.4 -290.5 131.4 -290.25 131.25 -290.05 Q130.15 -288.9 127.5 -287.55 124.1 -285.9 120.65 -285.4 L120.55 -285.4 101.95 -285.55 101.7 -285.6 Q99.25 -287.2 92.85 -290.05 87.6 -292.75 86.6 -295.6 84.55 -295.0 81.4 -289.7 78.1 -284.15 78.05 -282.0 L78.25 -281.05 78.35 -280.95 79.7 -280.7 79.9 -280.6 80.05 -280.45 80.7 -279.1 Q81.8 -278.85 82.95 -277.65 L83.1 -277.4 83.1 -277.15 Q82.9 -276.45 82.35 -276.4 L82.25 -276.4 80.85 -276.45 80.55 -276.55 80.05 -276.95 79.3 -276.7 79.0 -276.75 78.8 -276.9 78.7 -277.2 Q78.7 -277.7 78.85 -278.05 L78.7 -278.3 78.75 -278.55 78.85 -278.75 78.75 -279.2 77.45 -279.45 77.2 -279.6 77.05 -279.95 76.85 -280.4 76.85 -280.35 Q76.5 -281.0 76.5 -282.0 76.5 -285.2 80.0 -290.85 83.6 -296.8 86.55 -297.5 L86.8 -297.5 87.0 -297.4 Q90.3 -294.25 93.35 -292.05 97.5 -289.15 102.4 -287.1 120.4 -287.25 120.75 -287.45 L121.05 -287.6 Q123.1 -287.85 128.45 -289.35 L129.15 -289.8 129.3 -290.45 129.15 -290.75 Q128.2 -291.0 128.2 -292.1 128.1 -293.85 131.25 -295.2 L134.2 -296.4 Q135.85 -298.15 137.5 -298.8 L137.55 -298.8 Q140.25 -299.9 146.3 -300.15 L146.5 -300.1 146.65 -300.0 146.95 -299.7 150.1 -299.6 Q159.2 -300.6 164.2 -303.0 165.95 -303.9 170.75 -307.9 L174.5 -310.2 Q177.25 -311.8 177.75 -312.65 L178.85 -314.9 179.9 -317.25 179.1 -318.85 177.3 -320.65 177.15 -320.85 177.05 -321.1 Q177.05 -323.2 178.4 -324.25 179.3 -324.95 179.35 -325.45 179.25 -326.95 191.35 -339.05 L191.55 -339.15 191.75 -339.2 193.05 -339.05 Q193.4 -339.15 194.4 -337.85 M5.2 -218.3 L5.0 -218.3 3.9 -218.65 Q3.4 -219.0 3.4 -220.1 3.4 -221.2 3.9 -221.15 L4.5 -220.7 6.05 -219.9 6.25 -219.6 6.2 -219.2 Q5.65 -218.45 5.2 -218.3 M9.7 -218.3 L9.85 -218.0 9.95 -217.3 9.9 -217.0 9.7 -216.8 9.05 -216.45 8.85 -216.4 8.65 -216.4 7.95 -216.65 7.75 -216.8 7.6 -217.05 7.65 -217.3 8.25 -218.05 8.3 -218.1 9.35 -218.45 9.7 -218.3 M0.45 -220.0 L0.55 -219.8 0.7 -218.85 0.6 -218.55 -0.35 -217.3 -0.5 -217.15 -0.75 -217.1 -1.1 -217.1 Q-1.3 -217.1 -1.45 -217.25 L-1.6 -217.6 -1.6 -219.0 -1.6 -219.1 Q-1.55 -219.85 -0.05 -220.15 L0.2 -220.15 0.45 -220.0 M0.1 -211.3 Q-0.25 -211.0 -0.9 -211.0 L-0.95 -211.0 -2.1 -211.1 Q-2.3 -211.1 -2.4 -211.25 L-2.55 -211.6 -2.6 -211.6 -2.75 -211.95 Q-2.9 -212.55 -1.55 -212.55 -0.9 -212.6 -0.75 -213.55 L-0.65 -214.6 -1.25 -214.8 -1.5 -215.0 -1.6 -215.3 -1.6 -216.0 -1.45 -216.3 -1.2 -216.5 -0.85 -216.45 Q0.7 -215.6 0.7 -214.0 0.7 -213.05 0.3 -211.55 L0.1 -211.3 M140.7 -210.75 L142.4 -210.4 142.3 -210.7 142.3 -211.05 142.45 -211.3 142.75 -211.4 143.1 -211.4 143.3 -211.35 Q144.7 -210.9 144.8 -210.6 L144.85 -210.25 Q144.7 -209.15 143.75 -208.25 L143.6 -208.1 143.4 -208.1 Q142.45 -208.15 141.9 -208.6 L141.9 -208.55 141.55 -208.85 141.5 -208.8 141.8 -208.45 141.85 -208.25 141.8 -208.05 Q141.6 -207.45 140.45 -207.3 L140.25 -207.3 140.05 -207.45 139.0 -208.5 Q138.85 -208.65 138.85 -208.85 L139.0 -209.2 139.05 -209.55 139.1 -209.65 Q139.4 -210.35 140.5 -210.7 L140.7 -210.75 M89.8 -107.05 L89.8 -107.35 89.9 -107.6 90.15 -107.75 90.65 -107.85 91.05 -107.75 91.25 -107.45 91.75 -105.45 Q92.0 -104.6 92.8 -103.8 L92.9 -103.5 92.85 -103.15 Q92.1 -102.1 90.85 -102.1 90.65 -102.1 90.5 -102.25 L90.35 -102.6 Q90.35 -105.5 89.8 -107.05 M121.2 -107.7 Q121.2 -109.05 122.15 -109.2 L122.25 -109.25 123.8 -109.25 124.1 -110.0 124.35 -111.3 124.5 -111.65 124.85 -111.8 125.55 -111.8 125.8 -111.75 125.95 -111.6 126.2 -111.2 126.3 -110.1 Q126.3 -108.15 124.65 -107.7 122.9 -107.2 122.25 -106.65 L122.05 -106.45 121.75 -106.4 Q121.55 -106.45 121.45 -106.55 121.2 -106.7 121.2 -107.7 M68.1 -195.5 Q68.9 -196.0 69.75 -196.05 L70.05 -195.95 70.25 -195.7 70.25 -195.4 70.05 -195.15 Q68.35 -193.85 68.25 -191.2 L68.25 -191.1 68.5 -187.4 Q68.5 -186.55 67.85 -185.9 L67.35 -185.45 Q67.1 -184.8 66.75 -184.95 66.1 -184.8 66.1 -186.15 L66.5 -189.95 66.9 -193.65 Q66.9 -194.8 68.1 -195.5 M49.35 -108.8 L49.7 -108.95 50.1 -108.95 50.45 -108.8 50.6 -108.55 50.7 -108.1 51.6 -107.9 Q51.85 -108.15 52.15 -107.9 L52.35 -107.65 52.4 -107.45 52.4 -106.55 Q52.5 -105.25 49.85 -104.3 L49.6 -104.3 49.35 -104.45 49.2 -104.75 49.25 -105.05 50.25 -106.4 49.65 -106.5 Q49.45 -106.55 49.35 -106.65 49.2 -106.8 49.2 -107.0 L49.2 -108.45 49.35 -108.8 M69.7 -85.1 L70.1 -85.1 70.45 -84.95 70.6 -84.7 70.8 -83.95 70.8 -83.85 71.15 -83.7 71.3 -83.35 Q71.3 -82.7 70.85 -82.25 70.7 -82.1 70.5 -82.1 L70.15 -82.2 Q69.2 -83.1 69.2 -84.6 L69.35 -84.95 69.7 -85.1 M64.15 -77.8 L64.3 -78.15 64.65 -78.3 65.3 -78.3 65.6 -78.55 Q66.05 -78.85 66.25 -78.15 L66.25 -78.0 66.25 -77.1 66.25 -76.35 66.1 -76.0 65.75 -75.85 65.45 -75.95 Q64.6 -76.05 64.35 -76.6 L64.3 -76.65 Q64.15 -76.95 64.15 -77.8 M89.85 -85.75 L90.05 -85.8 Q91.25 -85.6 91.25 -84.25 L91.1 -83.9 90.75 -83.75 90.7 -83.75 90.3 -83.25 90.1 -83.1 89.9 -83.1 89.1 -83.2 88.8 -83.35 88.65 -83.7 Q88.65 -85.55 89.85 -85.75 M98.75 -82.35 L99.7 -82.3 100.0 -82.1 100.1 -81.8 100.15 -80.55 Q100.15 -79.8 99.8 -79.5 L99.55 -79.35 99.25 -79.4 Q98.8 -79.6 98.4 -80.3 98.05 -81.05 98.05 -81.65 98.0 -82.25 98.75 -82.35 M93.45 -79.15 L93.55 -77.8 93.45 -77.5 93.2 -77.3 92.65 -77.15 92.35 -77.15 92.1 -77.35 Q91.4 -78.2 91.45 -78.9 L91.55 -79.15 91.7 -79.3 91.9 -79.45 92.15 -79.55 93.05 -79.55 Q93.2 -79.5 93.3 -79.4 L93.45 -79.15 M195.8 -171.45 L195.85 -170.55 195.9 -170.5 196.75 -169.75 196.8 -169.7 Q197.2 -169.2 197.2 -168.3 197.25 -167.25 195.9 -166.3 194.9 -165.65 193.85 -165.4 L193.35 -165.25 193.25 -165.25 Q192.6 -165.25 192.6 -166.5 192.5 -167.1 193.7 -167.4 L193.65 -167.4 195.05 -168.35 Q195.0 -169.1 194.5 -169.55 193.6 -170.45 193.65 -171.0 L193.85 -172.5 194.0 -172.8 194.3 -172.9 194.6 -172.9 Q195.7 -172.95 195.8 -171.45 M-24.05 -322.6 L-23.0 -322.5 -22.8 -322.4 -22.65 -322.3 -21.95 -320.95 -21.4 -320.7 -21.15 -320.5 -21.1 -320.2 -21.2 -319.95 Q-21.75 -319.2 -22.0 -319.1 L-22.25 -319.05 -22.5 -319.1 -23.95 -319.75 -24.95 -320.5 -25.45 -319.9 -26.05 -319.1 Q-26.05 -318.25 -25.2 -317.35 -23.65 -315.6 -22.95 -314.45 L-22.9 -314.15 -23.0 -313.85 -23.25 -313.7 -23.6 -313.7 Q-25.65 -314.55 -28.1 -318.2 L-28.2 -318.5 Q-28.25 -319.6 -26.7 -321.1 -25.2 -322.65 -24.1 -322.6 L-24.05 -322.6 M-4.25 -211.5 L-4.05 -211.55 Q-2.8 -211.35 -2.55 -210.95 L-2.45 -210.6 -2.6 -210.25 -3.25 -209.45 -3.3 -209.4 -3.3 -208.3 -3.3 -208.2 Q-3.3 -207.85 -3.55 -207.65 L-4.2 -207.25 -4.55 -207.3 -4.8 -207.6 -5.05 -207.95 -5.1 -208.05 -5.3 -209.35 Q-5.3 -210.85 -4.45 -211.45 L-4.25 -211.5 M-203.7 -200.75 L-202.4 -202.3 -202.05 -202.4 -201.7 -202.2 -201.6 -201.9 Q-201.6 -200.7 -202.35 -199.6 -201.2 -198.45 -200.4 -196.8 L-200.35 -196.6 -200.4 -196.2 -200.4 -196.25 -200.8 -195.55 -200.95 -195.4 -201.2 -195.4 -202.55 -195.55 -202.85 -195.65 -203.0 -195.95 -202.95 -196.25 -202.2 -197.0 -202.45 -197.35 -202.5 -197.4 -203.8 -198.4 -204.0 -198.5 -204.05 -198.7 Q-204.35 -199.55 -203.75 -200.7 L-203.7 -200.75 M-186.95 -183.45 L-186.65 -183.6 -186.35 -183.6 -186.1 -183.4 -186.1 -183.35 -186.0 -183.3 -185.65 -183.05 -185.5 -182.85 -185.45 -182.65 -185.4 -182.55 -185.4 -182.2 -185.65 -181.95 Q-186.8 -181.35 -187.9 -180.8 L-188.15 -180.75 -188.4 -180.8 -189.65 -181.7 -189.75 -181.55 Q-190.25 -180.65 -190.8 -180.35 L-191.05 -180.3 -191.3 -180.35 -191.5 -180.55 Q-191.9 -181.4 -191.65 -181.9 -191.5 -182.55 -190.65 -182.8 L-190.7 -182.8 Q-189.45 -183.4 -187.95 -182.55 L-187.05 -183.2 -186.95 -183.45" fill="#00ffff" fill-opacity="0.5019608" fill-rule="evenodd" stroke="none"/>
    <path d="M194.0 -337.55 Q194.8 -336.45 194.8 -335.8 194.8 -334.95 195.9 -332.45 L196.5 -332.75 197.85 -333.15 Q200.0 -333.15 200.9 -329.6 201.4 -327.55 201.4 -324.7 201.4 -323.05 202.2 -320.35 203.0 -317.65 203.0 -316.35 L202.8 -315.35 202.6 -315.15 202.05 -314.9 Q201.65 -315.45 201.75 -316.0 L201.9 -317.45 201.4 -319.6 Q200.85 -321.05 200.85 -321.65 L200.9 -323.7 200.8 -325.8 200.35 -327.9 199.75 -330.0 Q198.4 -332.75 197.5 -332.4 L196.75 -331.5 Q194.6 -331.5 194.15 -333.7 193.5 -336.9 192.6 -337.9 191.75 -337.35 188.8 -334.2 185.8 -331.05 184.8 -330.4 182.55 -328.85 181.5 -325.9 180.5 -323.1 178.4 -321.85 179.9 -320.2 180.45 -319.15 180.95 -318.2 180.95 -317.25 180.95 -316.35 180.55 -315.4 L179.6 -313.7 179.05 -312.25 178.4 -310.95 Q177.95 -310.45 175.2 -309.0 L171.45 -306.9 Q163.25 -300.8 158.6 -299.1 153.0 -297.1 147.1 -298.7 L144.2 -298.85 144.25 -298.95 Q137.5 -298.3 135.15 -296.05 L133.3 -294.15 Q132.05 -293.2 129.9 -292.85 L129.65 -292.05 130.3 -291.2 130.9 -290.4 Q129.85 -289.3 127.25 -288.0 123.95 -286.4 120.55 -285.9 L101.95 -286.05 Q99.5 -287.65 93.05 -290.5 87.7 -293.25 86.95 -296.2 84.6 -296.05 80.95 -289.95 77.55 -284.25 77.55 -282.0 77.55 -281.15 77.85 -280.75 L78.1 -280.5 79.6 -280.2 80.3 -278.65 80.55 -278.6 Q81.55 -278.4 82.6 -277.3 L82.25 -276.9 80.85 -276.95 80.05 -277.6 Q79.7 -277.3 79.2 -277.2 79.2 -277.75 79.5 -278.1 L79.2 -278.4 79.55 -278.55 Q79.2 -279.0 79.2 -279.65 L77.55 -279.95 77.3 -280.6 Q77.0 -281.15 77.0 -282.0 77.0 -285.1 80.4 -290.6 83.9 -296.3 86.65 -297.05 90.0 -293.85 93.05 -291.65 97.3 -288.7 102.3 -286.6 120.75 -286.75 121.1 -287.1 123.2 -287.35 128.7 -288.95 128.85 -289.15 129.35 -289.35 129.8 -289.6 129.8 -290.45 129.8 -291.1 129.25 -291.25 128.7 -291.4 128.7 -292.1 128.7 -293.55 131.45 -294.75 L134.5 -296.0 Q136.1 -297.7 137.7 -298.35 140.4 -299.4 146.3 -299.65 L146.75 -299.2 150.15 -299.1 Q159.35 -300.1 164.4 -302.55 166.2 -303.45 171.05 -307.55 L174.75 -309.8 Q177.7 -311.5 178.2 -312.45 L179.3 -314.7 180.4 -317.25 Q180.4 -317.95 179.5 -319.15 L177.55 -321.1 Q177.55 -322.95 178.7 -323.85 179.85 -324.75 179.85 -325.45 179.85 -326.85 191.7 -338.7 L193.05 -338.55 194.0 -337.55 M91.25 -105.3 Q91.55 -104.35 92.4 -103.45 91.85 -102.6 90.85 -102.6 90.85 -105.6 90.25 -107.25 L90.75 -107.35 91.25 -105.3 M50.25 -107.65 L51.8 -107.35 51.9 -106.55 Q51.9 -105.55 49.7 -104.8 50.3 -105.9 51.35 -106.8 L49.7 -107.0 49.7 -108.45 50.1 -108.45 50.25 -107.65 M70.5 -82.6 Q69.7 -83.35 69.7 -84.6 L70.1 -84.6 70.3 -83.8 Q70.45 -83.35 70.8 -83.35 L70.5 -82.6 M65.75 -76.35 L65.55 -76.45 Q64.95 -76.5 64.75 -76.85 L64.65 -77.8 65.7 -77.85 65.75 -77.1 65.75 -76.35 M90.75 -84.25 Q90.45 -84.25 90.3 -84.05 L89.95 -83.6 89.15 -83.7 Q89.15 -85.1 89.95 -85.3 90.75 -85.15 90.75 -84.25 M99.65 -80.55 Q99.65 -80.05 99.45 -79.85 L98.85 -80.55 Q98.55 -81.15 98.55 -81.65 98.55 -82.0 99.6 -81.8 L99.65 -80.55 M92.95 -79.05 L93.05 -77.8 92.5 -77.65 Q91.95 -78.35 91.95 -78.9 L92.25 -79.1 92.95 -79.05 M-203.3 -200.5 L-202.1 -201.9 Q-202.1 -200.65 -203.05 -199.55 -201.75 -198.35 -200.85 -196.6 L-200.9 -196.35 -201.15 -195.9 -202.5 -196.05 Q-202.25 -196.55 -201.4 -196.75 L-202.1 -197.7 -203.6 -198.85 Q-203.8 -199.55 -203.3 -200.5 M-186.55 -183.15 L-186.3 -182.9 -185.95 -182.65 -185.9 -182.4 -188.15 -181.25 -189.55 -182.3 -190.2 -181.8 Q-190.6 -181.05 -191.05 -180.8 -191.6 -181.95 -190.5 -182.35 -189.35 -182.85 -187.95 -181.95 L-186.55 -182.95 -186.55 -183.15" fill="#ffffff" fill-rule="evenodd" stroke="none"/>
    <path d="M8.8 -216.9 L8.1 -217.15 8.55 -217.7 9.35 -217.95 9.45 -217.25 8.8 -216.9 M0.2 -218.85 L-0.75 -217.6 -1.1 -217.6 -1.1 -219.0 Q-1.0 -219.45 0.05 -219.7 L0.2 -218.85 M4.2 -219.05 Q3.9 -219.3 3.9 -220.1 3.9 -221.2 4.15 -220.15 L4.15 -220.3 5.75 -219.5 5.05 -218.8 4.2 -219.05 M140.65 -210.25 L142.2 -209.95 142.85 -209.55 Q143.2 -209.7 142.75 -210.9 L143.1 -210.9 144.35 -210.35 Q144.2 -209.4 143.4 -208.6 142.65 -208.65 142.15 -209.0 L141.75 -209.4 140.3 -208.85 140.9 -208.55 141.35 -208.25 Q141.2 -207.9 140.4 -207.8 L139.35 -208.85 139.55 -209.45 Q139.8 -209.95 140.65 -210.25 M125.75 -111.0 L125.8 -110.1 Q125.8 -108.55 124.5 -108.2 122.5 -107.6 121.85 -107.0 L121.8 -106.9 121.7 -107.7 Q121.7 -108.6 122.25 -108.75 L123.8 -108.75 Q124.2 -108.75 124.55 -109.85 L124.85 -111.3 125.55 -111.3 125.75 -111.0 M67.75 -191.15 L68.0 -187.4 Q68.0 -186.75 67.5 -186.3 L66.85 -185.6 66.75 -185.45 Q66.6 -185.45 66.6 -186.15 L67.0 -189.9 67.4 -193.65 Q67.4 -194.55 68.35 -195.1 L69.75 -195.55 Q67.85 -194.1 67.75 -191.15 M194.3 -172.4 L194.6 -172.4 Q195.25 -172.4 195.3 -171.45 195.3 -170.35 195.55 -170.15 L196.4 -169.4 196.7 -168.3 Q196.7 -167.5 195.6 -166.75 194.65 -166.1 193.6 -165.9 L193.35 -165.75 Q193.1 -165.8 193.1 -166.5 193.1 -166.75 193.8 -166.95 194.75 -167.3 195.55 -168.2 195.55 -169.3 194.85 -169.95 194.15 -170.6 194.15 -171.0 194.15 -171.8 194.3 -172.4 M-23.05 -322.0 L-22.4 -320.75 -21.6 -320.25 -22.25 -319.55 -23.8 -320.25 Q-24.55 -320.55 -24.9 -321.3 L-25.85 -320.2 -26.55 -319.1 Q-26.55 -318.1 -25.6 -317.05 L-23.4 -314.2 Q-25.35 -315.0 -27.7 -318.5 -27.7 -319.45 -26.35 -320.75 -25.05 -322.1 -24.1 -322.1 L-23.05 -322.0 M-1.1 -215.3 L-1.1 -216.0 Q0.2 -215.3 0.2 -214.0 0.2 -213.1 -0.2 -211.7 L-0.9 -211.5 -2.05 -211.6 -2.25 -211.95 -1.55 -212.05 Q-0.5 -212.05 -0.25 -213.45 -0.1 -214.15 -0.2 -214.95 L-1.1 -215.3 M-2.95 -210.65 L-3.75 -209.65 Q-4.0 -209.15 -3.8 -208.2 L-3.9 -208.05 -4.35 -207.75 -4.65 -208.25 -4.8 -209.35 Q-4.8 -210.55 -4.15 -211.05 -3.15 -210.9 -2.95 -210.65" fill="#ffffff" fill-opacity="0.9019608" fill-rule="evenodd" stroke="none"/>
  </g>
</svg>
