<?xml version="1.0" encoding="UTF-8" standalone="no"?>
<svg xmlns:ffdec="https://www.free-decompiler.com/flash" xmlns:xlink="http://www.w3.org/1999/xlink" ffdec:objectType="shape" height="229.3px" width="422.8px" xmlns="http://www.w3.org/2000/svg">
  <g transform="matrix(1.0, 0.0, 0.0, 1.0, 211.95, 339.2)">
    <path d="M197.2 -335.45 Q199.4 -336.95 204.85 -339.15 L205.1 -339.2 206.9 -339.05 207.15 -338.95 207.35 -338.7 Q207.6 -338.0 207.1 -337.35 L207.3 -337.1 209.2 -336.85 209.5 -336.65 Q210.9 -335.05 210.85 -333.95 L210.8 -333.75 210.7 -333.55 Q209.8 -332.75 209.25 -332.8 209.05 -332.8 208.9 -332.95 L208.75 -333.3 Q208.75 -334.7 208.4 -335.3 L206.4 -335.6 Q206.15 -335.65 206.05 -335.8 205.55 -336.45 205.45 -337.35 L202.1 -335.95 197.9 -334.0 193.5 -332.75 190.6 -331.7 190.55 -331.7 189.55 -330.45 189.6 -330.3 189.55 -329.95 182.8 -320.1 Q178.4 -315.0 171.05 -311.15 L170.65 -311.1 170.4 -311.3 167.95 -310.45 Q166.5 -310.0 157.1 -304.35 149.0 -299.5 145.05 -299.55 143.6 -298.65 143.45 -297.8 L143.6 -296.1 Q143.7 -294.5 140.8 -293.25 L140.8 -293.2 Q137.6 -292.0 136.1 -291.15 L130.85 -288.9 Q126.15 -287.15 124.95 -287.15 L118.85 -287.35 116.7 -287.15 Q106.65 -287.15 102.65 -288.25 99.95 -288.95 98.65 -290.75 97.55 -292.25 95.8 -292.7 L83.65 -293.3 83.45 -293.3 83.25 -293.45 82.75 -293.95 Q82.6 -294.0 82.6 -294.6 77.35 -293.1 71.8 -289.85 65.8 -286.4 65.7 -284.4 65.7 -283.7 65.95 -283.2 L66.75 -282.15 66.8 -281.9 66.75 -281.6 66.55 -281.3 66.3 -281.1 66.0 -281.1 65.7 -281.25 64.55 -283.0 Q64.1 -283.9 64.15 -284.2 64.05 -287.85 70.95 -291.65 75.5 -294.2 82.05 -296.35 L82.25 -296.4 84.05 -296.3 84.3 -296.2 84.5 -295.95 84.6 -295.0 Q93.25 -294.8 96.8 -293.7 98.95 -293.05 100.35 -291.3 101.45 -290.0 103.7 -289.55 107.5 -288.85 117.25 -289.25 L117.3 -289.25 120.9 -288.8 121.75 -288.85 125.15 -289.1 125.35 -289.2 136.6 -292.95 Q141.6 -295.1 141.45 -297.95 L141.6 -298.3 142.8 -299.65 144.45 -301.05 144.5 -301.05 149.35 -302.0 Q150.4 -302.2 153.0 -303.7 L157.35 -306.3 Q163.85 -310.0 174.45 -315.05 177.1 -316.4 180.05 -320.25 L183.7 -325.5 184.0 -325.75 184.95 -327.4 184.9 -327.4 Q187.0 -331.25 188.9 -332.8 189.9 -333.75 193.2 -334.4 196.35 -334.95 197.2 -335.45 M207.9 -327.95 Q207.85 -327.25 207.1 -326.8 L206.95 -326.75 206.95 -326.7 206.9 -326.3 206.4 -324.95 205.65 -323.05 205.45 -322.85 205.2 -322.8 204.8 -322.8 204.45 -322.95 204.3 -323.3 204.3 -325.8 204.4 -326.05 204.6 -326.25 Q205.25 -326.5 205.35 -326.8 L205.45 -327.1 205.4 -327.2 205.55 -327.55 Q206.35 -328.5 207.4 -328.5 L207.7 -328.4 207.85 -328.2 207.9 -327.95 M70.45 -280.7 L70.3 -281.0 70.4 -281.3 71.4 -282.45 71.65 -282.5 73.5 -282.4 73.85 -282.25 Q75.0 -280.95 76.05 -280.4 L76.3 -280.1 76.3 -279.8 76.05 -279.5 75.8 -279.35 75.5 -279.3 73.6 -279.45 73.55 -279.45 72.75 -279.6 Q72.25 -279.9 72.3 -280.45 L72.3 -280.5 72.35 -280.6 71.9 -280.55 70.7 -280.55 70.45 -280.7 M139.95 -214.95 L140.2 -215.0 141.55 -214.9 141.6 -214.95 Q141.85 -215.2 142.1 -215.1 L142.45 -214.8 142.55 -213.9 142.5 -212.85 142.3 -212.6 142.0 -212.5 141.9 -212.5 141.6 -212.5 141.5 -211.65 141.35 -211.35 141.0 -211.25 140.75 -211.05 Q140.6 -210.9 140.4 -210.9 L139.05 -210.9 138.75 -211.0 Q137.8 -211.85 137.8 -212.85 L137.95 -213.2 138.3 -213.35 139.3 -213.2 139.3 -213.8 Q139.4 -214.75 139.95 -214.95 M120.3 -112.9 L120.55 -113.1 121.9 -113.2 122.15 -113.1 122.6 -112.75 122.8 -112.5 122.8 -112.2 122.65 -111.95 121.95 -111.5 121.85 -111.45 Q121.45 -111.15 120.95 -111.1 L120.75 -111.1 120.55 -111.25 Q120.15 -111.65 120.15 -112.6 L120.3 -112.9 M126.55 -115.25 L126.8 -115.0 126.95 -114.7 127.1 -113.6 126.65 -112.1 Q126.1 -111.05 125.6 -110.7 L125.35 -110.65 125.15 -110.65 123.4 -111.2 Q122.9 -110.1 122.55 -109.95 L122.25 -109.9 121.95 -110.0 121.8 -110.3 121.7 -110.85 121.75 -111.1 121.9 -111.3 122.7 -112.0 122.85 -112.05 122.9 -112.1 123.15 -112.25 123.05 -112.25 124.45 -112.55 124.55 -113.7 124.55 -113.75 Q124.8 -114.7 126.15 -115.25 L126.55 -115.25 M71.65 -194.1 L71.65 -194.05 Q70.6 -192.8 69.6 -192.85 68.55 -192.85 68.35 -193.55 L68.35 -193.6 68.15 -193.5 68.05 -193.45 66.95 -193.45 66.7 -193.6 66.55 -193.9 66.65 -194.2 67.1 -194.9 67.3 -195.1 68.5 -195.65 68.8 -195.7 69.65 -195.1 70.2 -196.1 70.2 -196.15 70.05 -197.45 70.15 -197.8 70.45 -198.0 70.8 -198.0 71.05 -197.7 71.4 -196.85 71.4 -196.8 72.35 -195.95 72.55 -195.6 72.5 -195.3 71.65 -194.1 M43.4 -163.75 L43.3 -163.5 43.1 -163.35 42.4 -163.05 42.2 -163.0 38.25 -163.15 38.05 -163.2 37.85 -163.35 Q37.2 -164.15 37.2 -165.95 L37.35 -166.3 37.7 -166.45 38.8 -166.3 39.05 -166.05 39.1 -165.7 38.95 -164.9 40.55 -164.8 43.0 -164.45 43.25 -164.2 43.35 -164.0 43.4 -163.75 M199.65 -180.25 L199.95 -180.25 200.2 -180.1 200.3 -179.8 199.9 -178.9 199.85 -178.85 199.4 -178.5 199.4 -177.3 201.25 -177.05 201.5 -176.9 201.65 -176.6 201.75 -175.9 201.75 -175.85 Q201.75 -175.35 201.35 -174.8 200.7 -174.1 199.0 -173.7 198.7 -172.75 197.8 -171.7 L197.5 -171.55 195.15 -171.2 194.55 -170.35 194.4 -170.2 194.15 -170.15 193.8 -170.15 193.5 -170.25 193.3 -170.55 193.2 -171.1 193.3 -171.45 194.6 -172.95 194.9 -173.1 196.7 -173.3 Q197.45 -174.2 198.25 -174.5 L198.25 -174.55 198.3 -174.55 198.35 -174.6 199.85 -175.7 198.4 -175.9 198.1 -176.05 Q197.95 -176.2 197.95 -176.4 L197.95 -179.35 198.05 -179.65 Q198.15 -179.8 198.3 -179.8 L199.65 -180.25 M-20.1 -325.15 Q-20.3 -324.25 -21.0 -323.75 L-21.35 -323.7 -21.95 -323.8 -22.75 -324.0 -23.05 -324.25 -22.95 -324.0 -22.6 -323.05 Q-22.3 -322.05 -22.3 -321.3 L-22.55 -319.75 -22.55 -319.7 -22.9 -318.7 -23.05 -318.5 -23.3 -318.35 -23.75 -318.25 -24.0 -318.25 -24.2 -318.4 -24.35 -318.65 -24.3 -321.5 Q-24.35 -323.15 -25.2 -323.8 L-25.35 -324.0 -25.4 -324.3 -25.25 -324.55 Q-23.6 -326.2 -22.35 -326.15 L-22.2 -326.1 -20.5 -325.75 -20.25 -325.6 -20.1 -325.4 -20.1 -325.15 M-200.65 -195.45 Q-199.8 -194.25 -199.8 -193.15 L-199.9 -192.85 -200.1 -192.6 -200.2 -192.45 -201.4 -192.2 -201.75 -192.35 -201.9 -192.7 Q-201.9 -193.5 -201.55 -193.95 -203.05 -195.55 -203.0 -196.2 -203.0 -198.0 -202.45 -197.9 L-202.3 -197.85 -201.65 -197.9 -201.35 -197.9 -201.1 -197.7 -201.05 -197.35 Q-201.2 -196.25 -200.65 -195.45 M-194.7 -180.8 L-194.55 -181.1 Q-194.4 -181.35 -193.05 -181.6 L-193.05 -181.55 -190.45 -182.15 -190.2 -182.15 -190.0 -182.05 -189.6 -181.6 -189.5 -181.75 -189.2 -181.95 -187.85 -181.75 -187.65 -181.45 Q-187.45 -180.85 -188.25 -179.55 L-188.45 -179.4 -190.25 -178.35 -190.6 -178.3 -190.9 -178.55 Q-191.4 -179.4 -191.35 -180.15 L-192.1 -179.85 -192.1 -179.8 -193.2 -179.15 Q-193.3 -179.05 -193.45 -179.05 L-193.7 -179.1 -193.9 -179.3 -194.6 -180.5 -194.7 -180.8 M-199.9 -175.7 L-199.55 -175.55 -198.9 -174.5 -198.9 -174.55 -198.25 -173.55 -198.15 -173.25 -198.25 -172.9 Q-198.35 -172.8 -198.55 -172.75 L-198.9 -172.8 Q-200.85 -173.9 -200.8 -175.2 L-200.65 -175.55 -200.3 -175.7 -199.9 -175.7 M-210.95 -191.9 L-210.6 -191.75 -210.45 -191.4 -210.4 -190.4 -209.65 -190.1 -209.45 -189.95 Q-209.0 -189.3 -208.35 -188.8 L-208.15 -188.45 -208.25 -188.1 -208.55 -187.9 -210.25 -188.2 -211.3 -188.35 -211.6 -188.35 -211.85 -188.55 -211.95 -188.85 -211.95 -191.4 -211.8 -191.75 -211.45 -191.9 -210.95 -191.9" fill="#00ffff" fill-opacity="0.5019608" fill-rule="evenodd" stroke="none"/>
    <path d="M197.7 -334.5 L193.35 -333.25 Q190.6 -332.45 190.2 -332.05 188.85 -330.55 187.05 -327.85 188.6 -329.85 189.1 -330.25 L182.4 -320.45 Q178.1 -315.4 170.8 -311.6 173.1 -312.85 175.25 -314.45 172.1 -312.3 167.8 -310.95 166.35 -310.5 156.85 -304.8 148.75 -299.95 144.9 -300.05 143.05 -298.95 142.9 -297.8 L143.1 -296.1 Q143.1 -294.8 140.6 -293.7 137.35 -292.45 135.85 -291.6 L130.65 -289.4 Q126.1 -287.65 124.95 -287.65 L118.85 -287.85 116.7 -287.65 Q106.75 -287.65 102.75 -288.75 100.25 -289.4 99.05 -291.05 97.85 -292.7 95.9 -293.2 L83.6 -293.8 83.1 -294.3 83.05 -295.25 Q77.5 -293.75 71.55 -290.3 65.2 -286.65 65.2 -284.4 65.2 -283.5 65.55 -282.9 L66.3 -281.9 66.1 -281.6 65.0 -283.25 Q64.65 -283.95 64.65 -284.2 64.65 -287.6 71.2 -291.25 75.7 -293.75 82.2 -295.9 L84.0 -295.8 84.0 -294.55 Q93.05 -294.35 96.65 -293.25 98.65 -292.6 99.95 -291.0 101.15 -289.55 103.6 -289.05 107.45 -288.35 117.25 -288.75 L120.85 -288.3 121.75 -288.35 125.5 -288.75 136.8 -292.5 Q142.2 -294.85 141.95 -298.0 L143.15 -299.3 144.65 -300.6 149.45 -301.5 Q150.55 -301.7 153.25 -303.3 L157.6 -305.9 Q164.1 -309.55 174.65 -314.6 177.4 -316.0 180.45 -319.95 L184.1 -325.25 184.15 -325.0 185.35 -327.15 Q187.4 -330.9 189.2 -332.45 190.2 -333.3 193.3 -333.9 196.6 -334.5 197.45 -335.05 199.65 -336.5 205.05 -338.7 L206.85 -338.55 Q207.05 -337.95 206.45 -337.35 L207.0 -336.65 209.1 -336.35 Q210.35 -334.9 210.35 -333.95 209.65 -333.3 209.25 -333.3 209.25 -335.1 208.65 -335.8 L206.45 -336.1 Q205.9 -336.85 205.9 -338.0 204.7 -337.75 201.85 -336.4 L197.7 -334.5 M177.85 -316.65 Q180.25 -318.9 182.3 -321.65 L182.1 -321.65 178.3 -317.15 177.85 -316.65 M205.9 -327.25 Q206.55 -328.0 207.4 -328.0 207.35 -327.55 206.85 -327.25 L206.35 -327.25 206.45 -326.6 Q206.2 -326.2 205.9 -325.1 L205.2 -323.3 204.8 -323.3 204.8 -325.8 Q205.75 -326.2 205.85 -326.7 L206.1 -327.25 205.9 -327.25 M73.45 -281.9 Q74.7 -280.55 75.8 -279.95 L75.55 -279.8 73.6 -279.95 Q72.75 -279.95 72.8 -280.4 L73.05 -281.15 71.8 -281.05 70.8 -281.05 71.6 -282.0 73.45 -281.9 M-201.05 -195.15 Q-200.3 -194.1 -200.3 -193.15 L-200.5 -192.9 -201.4 -192.7 Q-201.4 -193.6 -200.85 -193.9 -202.5 -195.6 -202.5 -196.2 L-202.45 -197.4 -201.55 -197.45 Q-201.75 -196.1 -201.05 -195.15 M-194.2 -180.75 L-192.95 -181.1 -190.35 -181.7 Q-189.65 -181.05 -189.85 -179.85 -189.35 -180.2 -189.25 -180.75 L-189.15 -181.45 -188.15 -181.35 Q-188.05 -180.9 -188.7 -179.85 L-190.5 -178.8 Q-191.25 -180.1 -190.5 -181.0 L-192.3 -180.3 -193.5 -179.55 -194.2 -180.75 M-199.35 -174.3 L-198.65 -173.25 Q-200.3 -174.15 -200.3 -175.2 L-199.9 -175.2 -199.35 -174.3 M-210.9 -190.05 L-209.85 -189.65 -208.65 -188.4 -210.05 -188.65 -211.45 -188.85 -211.45 -191.4 -210.95 -191.4 -210.9 -190.05" fill="#ffffff" fill-rule="evenodd" stroke="none"/>
    <path d="M140.15 -214.5 L141.8 -214.4 Q142.05 -215.0 142.05 -213.9 L142.0 -213.0 141.9 -213.0 Q141.5 -213.0 141.0 -213.5 L141.0 -211.75 Q140.75 -211.75 140.4 -211.4 L139.05 -211.4 Q138.3 -212.05 138.3 -212.85 L139.95 -212.55 Q139.75 -213.15 139.8 -213.75 139.85 -214.35 140.15 -214.5 M120.65 -112.6 L121.85 -112.7 122.3 -112.35 121.65 -111.9 Q121.3 -111.65 120.9 -111.6 120.65 -111.9 120.65 -112.6 M126.5 -114.5 L126.6 -113.6 126.2 -112.35 Q125.75 -111.45 125.3 -111.15 L123.2 -111.7 123.3 -111.8 124.95 -112.05 125.0 -113.6 Q125.25 -114.35 126.35 -114.8 L126.5 -114.5 M122.2 -110.95 L123.0 -111.6 Q122.55 -110.55 122.3 -110.4 L122.2 -110.95 M72.05 -195.55 L71.25 -194.4 Q70.4 -193.35 69.6 -193.35 68.95 -193.35 68.8 -193.75 L68.7 -194.3 67.9 -193.95 67.05 -193.95 67.5 -194.65 68.7 -195.2 69.3 -194.75 69.6 -194.3 Q70.7 -195.55 70.7 -196.1 L70.55 -197.55 70.95 -196.6 72.05 -195.55 M42.8 -164.0 L42.9 -163.8 42.2 -163.5 38.25 -163.65 Q37.7 -164.35 37.7 -165.95 L38.6 -165.85 38.4 -164.45 40.5 -164.3 42.8 -164.0 M198.9 -176.85 L201.15 -176.55 201.25 -175.85 200.95 -175.15 Q200.35 -174.5 198.55 -174.15 198.4 -173.15 197.4 -172.05 L194.85 -171.7 194.15 -170.65 193.8 -170.65 193.7 -171.2 194.95 -172.6 196.95 -172.85 198.45 -174.1 198.55 -174.15 200.25 -175.4 200.8 -176.0 200.8 -176.1 198.45 -176.4 198.45 -179.35 199.8 -179.8 199.5 -179.25 198.9 -178.75 198.9 -176.85 M-20.6 -325.25 Q-20.75 -324.55 -21.3 -324.2 L-21.9 -324.3 Q-22.55 -324.4 -22.6 -324.55 L-23.65 -324.45 -23.1 -322.9 Q-22.8 -322.0 -22.8 -321.3 -22.8 -320.65 -23.05 -319.9 L-23.4 -318.85 -23.85 -318.75 -23.8 -321.55 Q-23.85 -323.45 -24.9 -324.2 -23.45 -325.65 -22.35 -325.65 L-20.6 -325.25" fill="#ffffff" fill-opacity="0.9019608" fill-rule="evenodd" stroke="none"/>
  </g>
</svg>
