<?xml version="1.0" encoding="UTF-8" standalone="no"?>
<svg xmlns:ffdec="https://www.free-decompiler.com/flash" xmlns:xlink="http://www.w3.org/1999/xlink" ffdec:objectType="shape" height="231.75px" width="423.9px" xmlns="http://www.w3.org/2000/svg">
  <g transform="matrix(1.0, 0.0, 0.0, 1.0, 209.7, 344.65)">
    <path d="M191.4 -326.75 Q193.6 -329.35 195.75 -330.5 L198.05 -332.95 198.25 -333.05 198.45 -333.1 199.15 -333.0 201.35 -335.15 204.4 -338.0 Q204.95 -338.95 206.35 -340.0 208.25 -341.5 210.6 -342.2 211.35 -343.4 212.65 -344.5 L213.0 -344.65 213.3 -344.5 214.15 -343.4 214.2 -343.2 214.15 -343.0 Q213.6 -341.65 212.1 -340.8 211.0 -340.25 210.35 -340.25 208.75 -340.2 205.2 -336.75 L200.7 -332.55 200.8 -332.35 200.8 -332.0 200.55 -331.75 Q198.7 -330.8 195.85 -328.5 L192.95 -323.9 Q190.75 -320.6 187.85 -318.55 L187.85 -318.6 Q185.35 -316.9 178.05 -313.7 170.55 -310.45 168.95 -310.45 167.2 -310.45 166.5 -311.0 L165.6 -311.85 143.85 -306.55 Q129.55 -303.15 126.4 -301.25 120.0 -297.5 116.7 -295.2 112.4 -292.4 108.1 -289.0 L107.85 -288.9 107.55 -288.95 107.35 -289.1 107.15 -288.9 Q105.75 -288.35 102.4 -287.7 L102.3 -287.7 86.4 -287.8 86.35 -287.8 Q75.95 -289.15 72.85 -292.0 71.1 -293.65 70.95 -297.5 68.8 -296.25 66.65 -294.2 L66.65 -294.15 Q63.7 -291.45 64.0 -289.9 L64.8 -289.5 65.05 -289.2 65.15 -287.5 64.9 -285.65 64.6 -284.55 64.6 -284.35 64.6 -283.9 Q64.6 -283.35 64.2 -282.95 L63.95 -282.8 63.65 -282.85 63.4 -283.05 63.1 -284.2 63.05 -284.4 63.05 -284.65 63.05 -285.2 63.15 -285.5 63.35 -286.5 63.6 -288.15 62.85 -288.35 62.6 -288.55 62.5 -288.85 62.5 -291.75 62.6 -292.0 Q63.95 -294.5 67.05 -296.95 69.65 -299.0 72.15 -300.1 L72.45 -300.15 72.7 -300.0 72.85 -299.75 72.7 -298.25 72.45 -296.75 Q72.5 -294.5 75.05 -292.65 78.7 -290.05 86.4 -289.35 L86.45 -289.35 Q101.6 -289.45 101.95 -289.65 L102.25 -289.8 103.9 -289.95 105.1 -289.85 105.2 -290.1 105.4 -290.3 105.7 -290.35 107.1 -289.9 107.15 -289.95 Q110.0 -293.1 115.45 -296.6 119.5 -299.3 126.5 -303.05 128.85 -304.3 132.5 -305.5 137.9 -307.35 144.05 -308.35 145.2 -308.5 152.85 -311.1 161.15 -313.65 165.6 -313.65 L166.75 -313.55 Q167.65 -313.35 167.4 -312.75 L167.4 -312.25 Q172.45 -312.8 180.7 -316.95 189.15 -321.2 189.25 -323.45 189.2 -324.2 191.4 -326.75 M70.25 -283.3 L70.6 -282.9 70.8 -282.95 71.25 -282.95 71.6 -282.8 71.9 -282.7 Q72.25 -282.7 72.4 -282.1 L72.45 -282.1 72.8 -282.0 73.0 -281.7 72.95 -281.35 72.7 -281.15 72.45 -281.05 72.4 -280.65 72.25 -280.3 Q71.95 -279.9 71.55 -280.15 L71.4 -280.3 71.3 -280.45 Q70.6 -280.65 70.4 -281.55 L70.1 -281.5 69.7 -281.6 69.75 -281.6 68.45 -281.5 68.3 -281.5 66.3 -281.65 Q66.05 -281.65 65.95 -281.8 65.8 -281.95 65.8 -282.15 L65.95 -282.5 Q67.1 -283.65 68.85 -283.65 69.8 -283.65 70.25 -283.3 M73.1 -198.75 L73.3 -198.5 73.3 -198.2 73.25 -197.65 73.75 -196.9 74.65 -195.6 74.65 -195.3 74.25 -194.6 Q73.85 -194.15 72.9 -194.15 L71.8 -194.3 71.05 -194.65 70.85 -194.8 70.75 -195.1 70.65 -195.35 70.65 -195.4 70.3 -195.9 70.15 -196.15 70.2 -196.45 70.4 -196.65 70.7 -196.75 71.85 -196.65 72.15 -196.55 72.3 -196.35 72.5 -196.25 Q72.0 -196.75 71.75 -197.2 L71.65 -197.4 71.7 -197.6 72.05 -198.5 72.25 -198.75 72.5 -198.85 72.8 -198.85 73.1 -198.75 M139.5 -218.7 L139.8 -218.75 140.75 -218.6 141.05 -218.4 141.15 -218.1 Q141.15 -216.9 141.45 -216.25 L141.5 -216.0 141.45 -215.75 Q141.15 -215.35 140.6 -215.45 L140.5 -215.5 139.7 -215.65 139.15 -215.4 138.75 -214.75 138.55 -214.55 138.3 -214.5 137.4 -214.6 Q136.25 -214.8 136.05 -215.15 L135.95 -215.5 136.15 -215.8 139.3 -218.5 139.5 -218.7 M120.8 -114.4 L121.05 -114.65 121.35 -114.7 Q122.4 -114.55 124.1 -115.9 125.65 -117.25 126.0 -118.25 L126.15 -118.55 126.45 -118.65 126.8 -118.65 127.05 -118.6 127.15 -118.5 Q127.55 -118.4 127.55 -117.3 L127.5 -117.1 127.4 -116.9 123.4 -113.05 123.2 -112.9 123.0 -112.9 121.35 -113.0 121.0 -113.1 120.85 -113.4 120.75 -114.1 120.8 -114.4 M41.05 -164.2 Q40.9 -164.05 40.7 -164.05 L39.75 -163.7 39.55 -163.6 39.35 -163.6 38.65 -163.75 38.5 -163.8 38.35 -163.7 38.0 -163.6 36.85 -163.75 Q36.65 -163.75 36.55 -163.9 L35.35 -165.25 Q35.2 -165.4 35.2 -166.2 L34.1 -167.25 34.0 -167.45 33.95 -167.7 34.05 -168.25 34.25 -168.5 34.55 -168.65 34.9 -168.65 35.2 -168.55 Q36.9 -167.3 37.3 -165.95 L37.3 -165.9 Q37.5 -165.15 38.4 -164.7 L39.2 -165.4 40.35 -165.95 40.7 -165.95 40.95 -165.75 41.2 -164.55 41.05 -164.2 M199.5 -181.1 Q200.15 -182.15 201.35 -181.95 L201.65 -181.75 201.75 -181.45 201.65 -181.1 200.8 -180.0 200.85 -180.0 200.35 -179.35 200.7 -179.3 200.7 -179.25 Q201.5 -178.8 201.85 -178.35 L201.9 -178.25 202.05 -177.95 202.1 -177.65 201.95 -177.35 201.6 -177.25 201.2 -177.25 Q201.15 -176.55 200.25 -175.55 L200.2 -175.5 199.15 -174.45 198.95 -174.25 198.7 -174.2 198.05 -174.3 197.2 -174.55 195.95 -174.6 195.7 -174.15 195.6 -173.85 195.35 -173.65 194.9 -173.5 194.6 -173.5 194.35 -173.7 194.25 -174.0 Q194.25 -174.7 194.6 -175.35 L194.65 -175.35 195.75 -176.3 195.95 -176.35 198.05 -176.15 198.95 -176.9 199.85 -177.65 199.75 -177.7 199.6 -177.75 199.2 -178.05 Q198.9 -178.25 198.9 -179.25 198.9 -180.45 199.55 -181.15 L199.5 -181.1 M-19.9 -330.65 L-19.75 -330.4 -19.55 -329.5 Q-19.5 -329.3 -19.6 -329.1 L-21.7 -326.1 Q-21.1 -325.9 -21.0 -325.55 L-20.95 -325.35 Q-20.95 -324.8 -21.2 -324.5 L-21.25 -324.45 -21.4 -324.3 -21.6 -324.15 -21.8 -324.15 -23.0 -324.3 -23.1 -324.3 -23.5 -324.45 Q-24.0 -324.5 -24.0 -325.65 -24.0 -326.6 -23.2 -327.35 L-23.2 -327.4 -22.05 -328.25 -21.45 -329.55 -21.5 -329.5 -20.5 -330.7 -20.2 -330.8 -19.9 -330.65 M-25.35 -323.5 Q-24.6 -324.25 -22.95 -323.5 L-22.9 -323.45 -21.15 -322.5 -20.9 -322.25 -20.85 -321.9 Q-20.95 -321.25 -22.25 -321.25 -23.5 -321.25 -23.5 -321.9 L-23.7 -322.2 -26.55 -320.05 -26.6 -320.05 Q-27.75 -319.15 -29.7 -319.15 -31.2 -319.05 -33.7 -314.85 -35.95 -311.05 -36.0 -310.4 -36.0 -305.75 -30.85 -295.7 -24.9 -284.1 -24.25 -281.35 -23.6 -278.6 -23.4 -274.15 L-23.05 -266.65 Q-22.95 -265.25 -23.0 -262.9 L-23.0 -262.85 -23.05 -259.15 Q-22.95 -258.0 -21.45 -256.3 L-21.4 -256.3 -18.45 -253.4 Q-15.45 -255.4 -14.45 -255.7 L-14.2 -255.75 -13.95 -255.6 Q-13.5 -255.15 -13.6 -255.0 L-13.55 -254.15 Q-13.55 -252.8 -13.9 -252.65 L-14.2 -252.6 -15.4 -252.6 Q-16.55 -252.6 -17.3 -251.65 L-17.5 -251.5 -17.75 -251.5 -19.2 -251.7 -19.4 -251.75 -19.55 -251.9 -22.6 -255.3 Q-24.75 -257.75 -24.7 -259.35 L-24.65 -263.15 Q-24.6 -265.4 -24.7 -266.8 L-24.75 -274.1 Q-24.85 -278.5 -25.75 -281.35 -27.5 -286.5 -32.35 -295.85 L-35.7 -303.9 Q-38.0 -309.9 -37.95 -310.5 -38.0 -311.2 -34.9 -315.4 L-31.25 -320.5 -30.95 -320.75 -30.6 -320.75 Q-29.25 -320.3 -27.85 -321.25 L-27.9 -321.25 Q-27.0 -321.9 -25.4 -323.5 L-25.35 -323.5 M-201.25 -195.1 L-201.05 -194.85 -201.05 -194.55 -201.25 -193.5 -199.9 -191.85 -199.8 -191.7 -199.8 -191.5 -199.85 -191.25 -199.9 -191.1 Q-200.15 -190.65 -200.75 -190.55 L-201.0 -190.55 -201.2 -190.65 Q-202.75 -192.1 -203.0 -193.4 L-203.0 -193.5 Q-203.0 -194.8 -202.6 -195.0 L-201.55 -195.2 -201.25 -195.1 M-194.1 -183.05 L-193.75 -183.05 -193.45 -182.85 -192.8 -182.15 -192.65 -181.95 -192.6 -181.75 -192.6 -181.05 -192.65 -180.75 -192.85 -180.6 -193.9 -180.3 -194.65 -180.05 -194.8 -179.9 -195.0 -179.9 -196.4 -180.0 Q-196.65 -180.0 -196.75 -180.15 L-196.9 -180.5 -196.5 -181.95 Q-196.05 -183.05 -195.45 -182.95 L-195.15 -182.85 -195.0 -182.65 -194.85 -182.15 -194.35 -182.75 -194.1 -183.05 M-199.7 -179.75 L-199.4 -179.8 -198.15 -179.55 -198.0 -179.5 -197.75 -179.35 -197.6 -179.0 -197.6 -178.1 Q-197.55 -177.0 -199.7 -174.95 L-199.9 -174.85 -200.15 -174.85 -200.95 -175.0 -201.2 -175.15 -201.35 -175.5 -201.2 -175.8 -199.3 -177.8 -200.1 -178.6 -200.25 -178.95 -200.1 -179.3 -200.0 -179.35 -199.9 -179.55 -199.7 -179.75 M-208.0 -188.4 Q-206.95 -187.8 -206.4 -188.0 L-206.1 -188.1 -205.8 -187.95 -204.2 -186.0 -204.25 -185.25 -204.35 -184.95 Q-204.65 -184.55 -205.0 -184.7 L-205.05 -184.75 -205.4 -185.1 -208.15 -186.25 -208.2 -186.3 Q-209.7 -187.0 -209.7 -188.55 L-209.65 -189.2 -209.6 -189.5 Q-209.35 -190.15 -208.85 -189.8 L-208.75 -189.7 Q-208.1 -189.55 -208.0 -189.05 -207.85 -188.8 -208.0 -188.4" fill="#00ffff" fill-opacity="0.5019608" fill-rule="evenodd" stroke="none"/>
    <path d="M191.75 -326.45 Q193.95 -328.95 196.05 -330.1 L198.4 -332.6 199.35 -332.5 Q199.85 -333.25 201.65 -334.8 L204.8 -337.75 Q205.35 -338.6 206.65 -339.6 208.55 -341.1 210.9 -341.8 L212.95 -344.15 213.7 -343.2 Q213.2 -342.0 211.85 -341.25 210.9 -340.75 210.35 -340.75 208.6 -340.75 204.85 -337.1 201.15 -333.45 199.65 -332.45 L200.3 -332.2 Q198.4 -331.25 195.5 -328.85 L192.5 -324.2 Q190.4 -320.95 187.55 -319.0 185.1 -317.3 177.85 -314.15 170.5 -310.95 168.95 -310.95 167.4 -310.95 166.75 -311.45 L165.75 -312.45 143.7 -307.05 Q129.3 -303.6 126.15 -301.7 119.75 -297.9 116.4 -295.65 L107.8 -289.4 107.5 -289.6 Q110.35 -292.7 115.7 -296.2 119.75 -298.85 126.7 -302.6 129.05 -303.85 132.65 -305.05 138.0 -306.85 144.1 -307.85 145.3 -308.0 153.0 -310.65 161.2 -313.15 165.6 -313.15 166.95 -313.15 166.9 -312.85 166.8 -312.15 167.1 -311.75 172.25 -312.15 180.9 -316.5 189.75 -320.95 189.75 -323.45 189.75 -324.1 191.75 -326.45 M72.2 -298.4 L71.95 -296.75 Q71.95 -294.25 74.75 -292.25 78.5 -289.55 86.4 -288.85 L102.3 -289.3 103.95 -289.45 105.6 -289.85 106.95 -289.4 Q105.6 -288.85 102.3 -288.2 L86.4 -288.3 Q76.25 -289.6 73.2 -292.4 71.4 -294.1 71.4 -298.4 68.85 -297.0 66.3 -294.55 62.9 -291.4 63.55 -289.55 L64.55 -289.05 64.65 -287.5 64.4 -285.8 64.1 -284.55 64.05 -284.5 64.1 -283.9 63.85 -283.3 Q63.65 -283.7 63.6 -284.4 L63.55 -284.4 63.55 -284.65 63.55 -285.2 63.65 -285.2 63.85 -286.45 64.1 -288.5 63.0 -288.85 63.0 -291.75 Q64.35 -294.15 67.35 -296.55 69.9 -298.55 72.35 -299.65 L72.2 -298.4 M70.2 -282.15 L70.2 -282.0 69.85 -282.1 68.3 -282.0 66.3 -282.15 Q67.3 -283.15 68.85 -283.15 70.35 -283.15 70.2 -282.15 M71.75 -282.25 Q71.95 -282.2 71.95 -281.5 L72.5 -281.6 72.15 -281.45 71.95 -281.5 71.95 -281.35 71.8 -280.6 71.6 -280.9 Q70.8 -281.05 70.8 -282.45 L71.25 -282.45 71.75 -282.25 M-23.55 -322.9 L-26.9 -320.45 Q-27.95 -319.65 -29.7 -319.65 -31.45 -319.65 -34.15 -315.1 -36.5 -311.1 -36.5 -310.4 -36.5 -305.65 -31.3 -295.5 -25.4 -283.95 -24.75 -281.25 -24.1 -278.5 -23.9 -274.15 L-23.55 -266.65 Q-23.45 -265.25 -23.5 -262.9 L-23.55 -259.15 Q-23.5 -257.8 -21.8 -255.95 L-18.55 -252.75 Q-15.3 -254.9 -14.3 -255.25 L-14.1 -255.0 -14.05 -254.15 Q-14.05 -253.2 -14.2 -253.1 L-15.4 -253.1 Q-16.8 -253.1 -17.7 -252.0 L-19.15 -252.2 -22.25 -255.65 Q-24.2 -257.9 -24.2 -259.35 L-24.15 -263.15 Q-24.1 -265.4 -24.2 -266.85 L-24.25 -274.1 Q-24.35 -278.6 -25.3 -281.5 -27.05 -286.7 -31.9 -296.1 L-35.25 -304.1 Q-37.45 -309.9 -37.45 -310.5 -37.45 -311.1 -34.5 -315.1 L-30.8 -320.3 Q-29.2 -319.75 -27.6 -320.85 L-25.05 -323.15 -23.15 -323.05 Q-21.75 -322.2 -21.35 -322.05 -21.45 -321.75 -22.25 -321.75 -23.0 -321.75 -23.0 -322.05 L-23.55 -322.9 M-201.65 -193.2 L-200.3 -191.6 -200.35 -191.35 Q-200.5 -191.1 -200.85 -191.05 -202.25 -192.35 -202.5 -193.5 -202.5 -194.45 -202.3 -194.6 L-201.55 -194.7 Q-201.9 -193.55 -201.65 -193.2 M-195.45 -182.45 Q-195.2 -181.85 -195.85 -181.2 -195.4 -181.2 -194.8 -181.6 -194.1 -182.0 -193.9 -182.6 L-193.1 -181.75 -193.1 -181.05 -194.05 -180.8 -195.0 -180.4 -196.4 -180.5 -196.05 -181.75 -195.45 -182.45 M-198.25 -179.05 L-198.1 -179.0 -198.1 -178.1 Q-198.1 -177.15 -200.05 -175.35 L-200.85 -175.5 -198.65 -177.7 -199.75 -178.95 -199.6 -179.05 -199.5 -179.3 -198.25 -179.05 M-208.65 -188.2 Q-206.95 -187.1 -206.15 -187.6 L-204.7 -186.0 Q-204.7 -185.15 -204.85 -185.2 L-205.05 -185.45 -208.0 -186.75 Q-209.2 -187.3 -209.2 -188.55 L-209.1 -189.35 -209.0 -189.25 Q-208.1 -189.1 -208.65 -188.2" fill="#ffffff" fill-rule="evenodd" stroke="none"/>
    <path d="M72.8 -198.35 L72.75 -197.65 73.35 -196.6 74.15 -195.45 73.9 -194.95 Q73.6 -194.65 72.9 -194.65 L72.0 -194.75 71.25 -195.1 71.1 -195.6 70.65 -196.25 71.85 -196.15 Q71.95 -195.95 72.9 -195.55 L73.55 -196.0 Q72.55 -196.8 72.15 -197.45 L72.5 -198.35 72.8 -198.35 M140.65 -218.1 Q140.65 -216.75 141.0 -216.05 L140.7 -215.95 139.7 -216.15 Q139.05 -216.15 138.7 -215.65 L138.3 -215.0 137.45 -215.1 136.45 -215.45 139.7 -218.25 140.65 -218.1 M121.25 -114.2 Q122.5 -114.0 124.4 -115.55 126.15 -117.0 126.45 -118.15 L126.8 -118.15 127.0 -118.0 127.05 -117.3 123.0 -113.4 121.35 -113.5 121.25 -114.2 M40.7 -164.55 Q40.05 -164.55 39.45 -164.1 L38.75 -164.25 39.45 -165.0 Q40.0 -165.35 40.5 -165.5 L40.7 -164.55 M34.55 -168.15 L34.9 -168.15 Q36.45 -167.0 36.8 -165.8 37.05 -164.8 38.25 -164.25 L38.05 -164.1 36.9 -164.25 35.75 -165.6 35.7 -166.2 34.45 -167.6 34.55 -168.15 M200.4 -180.3 L199.85 -179.35 200.45 -178.85 201.45 -178.05 201.6 -177.75 200.8 -177.9 199.85 -178.2 199.55 -178.4 Q199.4 -178.55 199.4 -179.25 199.4 -180.25 199.9 -180.85 200.4 -181.6 201.25 -181.45 L200.4 -180.3 M195.65 -175.15 L195.2 -174.15 194.75 -174.0 Q194.75 -174.55 195.05 -175.1 L195.9 -175.85 198.2 -175.65 199.25 -176.55 Q200.3 -177.5 200.7 -177.5 200.75 -176.85 199.85 -175.9 L198.7 -174.7 198.1 -174.8 Q197.5 -174.9 197.4 -175.05 L195.65 -175.15 M-20.05 -329.4 Q-22.2 -326.05 -22.7 -325.8 L-22.0 -325.65 Q-21.55 -325.55 -21.45 -325.35 -21.45 -325.0 -21.6 -324.8 L-21.75 -324.65 -22.95 -324.8 -23.35 -324.95 -23.5 -325.65 Q-23.5 -326.4 -22.85 -327.05 L-21.65 -327.9 -21.05 -329.3 -20.25 -330.3 -20.05 -329.4" fill="#ffffff" fill-opacity="0.9019608" fill-rule="evenodd" stroke="none"/>
  </g>
</svg>
