<?xml version="1.0" encoding="UTF-8" standalone="no"?>
<svg xmlns:ffdec="https://www.free-decompiler.com/flash" xmlns:xlink="http://www.w3.org/1999/xlink" ffdec:objectType="shape" height="227.55px" width="417.15px" xmlns="http://www.w3.org/2000/svg">
  <g transform="matrix(1.0, 0.0, 0.0, 1.0, 205.2, 342.9)">
    <path d="M201.0 -334.6 L201.2 -334.35 201.25 -334.0 Q200.85 -332.8 199.45 -330.8 L197.75 -328.4 197.6 -328.25 197.4 -328.15 196.15 -327.95 195.75 -327.1 195.55 -326.85 195.25 -326.75 194.95 -326.8 Q194.4 -326.9 194.1 -327.2 L194.05 -327.3 193.8 -327.75 193.7 -328.05 193.85 -328.35 194.15 -328.5 194.6 -329.05 194.6 -329.1 Q195.1 -329.9 196.55 -330.0 L196.85 -331.15 197.05 -332.45 197.2 -332.75 197.5 -332.95 Q198.5 -333.1 199.05 -333.65 L199.05 -333.7 Q199.75 -334.5 200.65 -334.65 L201.0 -334.6 M190.15 -323.35 L190.25 -323.15 190.25 -322.2 190.25 -321.55 190.2 -321.35 190.1 -321.15 189.75 -320.95 189.5 -321.0 189.45 -321.0 188.6 -321.15 188.3 -321.3 188.15 -321.65 188.15 -322.9 188.3 -323.25 188.65 -323.4 189.3 -323.4 189.65 -323.65 Q189.95 -323.8 190.15 -323.35 M176.8 -315.7 L177.0 -315.85 177.25 -315.9 Q178.95 -315.7 179.1 -315.1 L179.15 -314.7 178.9 -314.45 173.05 -311.6 172.8 -311.55 171.2 -311.65 Q169.9 -311.8 169.45 -312.1 L164.75 -312.2 Q164.55 -312.2 164.4 -312.35 L164.25 -312.7 164.25 -313.55 164.4 -313.9 164.75 -314.05 Q165.35 -314.05 165.65 -313.7 L169.9 -313.1 172.75 -313.3 Q174.85 -315.25 176.75 -315.6 L176.8 -315.7 M188.4 -320.45 L188.45 -320.05 Q188.25 -319.0 186.8 -318.9 L186.7 -318.8 Q185.3 -316.85 184.75 -316.6 L184.4 -316.55 183.6 -316.7 183.3 -316.9 183.2 -317.25 183.4 -317.55 184.3 -318.65 184.35 -318.7 Q185.15 -319.45 185.95 -319.55 L185.95 -320.25 186.05 -320.6 188.1 -320.65 188.4 -320.45 M211.95 -341.95 L211.75 -341.65 209.05 -340.15 Q206.65 -338.85 206.45 -338.9 L206.15 -339.0 205.95 -339.35 206.05 -339.7 Q208.65 -343.1 211.35 -342.9 L211.6 -342.8 211.75 -342.6 211.9 -342.3 211.95 -341.95 M110.65 -298.8 Q111.65 -299.6 114.4 -300.45 L114.8 -301.15 Q115.2 -302.05 115.85 -302.45 L116.0 -302.55 119.75 -302.7 Q120.15 -302.6 120.25 -301.6 123.5 -301.25 123.55 -300.6 L123.55 -300.35 123.4 -300.1 Q123.25 -300.0 123.15 -300.0 L120.8 -299.85 120.65 -299.95 118.85 -300.95 116.55 -300.65 116.2 -300.15 116.2 -300.1 115.35 -298.9 115.1 -298.75 Q112.9 -298.25 109.65 -295.85 L106.2 -292.9 105.85 -292.75 105.5 -292.9 105.35 -293.25 Q105.3 -294.55 106.55 -296.1 L106.85 -296.25 108.35 -296.65 110.6 -298.75 110.65 -298.8 M126.4 -302.0 L127.15 -302.05 Q127.3 -302.45 127.7 -302.5 L127.75 -302.55 130.1 -303.05 130.9 -303.35 Q132.55 -304.4 133.4 -304.3 L136.75 -304.6 136.9 -304.65 137.1 -304.7 137.3 -304.75 Q138.95 -304.6 139.1 -304.05 L139.15 -303.7 138.9 -303.4 138.6 -303.25 138.3 -303.2 137.2 -303.3 137.15 -303.25 134.75 -302.7 131.85 -302.1 131.6 -302.1 131.55 -302.1 130.3 -301.1 130.0 -301.0 129.25 -301.0 128.8 -300.65 128.45 -300.55 127.4 -300.6 Q125.75 -300.75 125.9 -301.5 L126.05 -301.85 126.4 -302.0 M141.2 -304.85 L143.4 -305.55 Q145.15 -307.3 145.4 -307.8 L145.4 -308.65 145.35 -308.8 Q145.25 -309.3 146.75 -310.2 L148.05 -311.05 148.0 -311.1 147.6 -311.45 Q147.4 -311.8 147.65 -312.15 L149.25 -313.05 149.3 -313.05 150.45 -313.4 152.4 -313.15 152.35 -313.2 Q154.5 -312.9 154.65 -312.35 L154.7 -312.1 154.6 -311.8 154.35 -311.65 154.05 -311.55 153.7 -311.6 151.7 -311.95 Q150.6 -311.85 147.65 -308.3 L147.65 -308.25 144.2 -303.85 143.95 -303.75 142.55 -303.3 142.15 -303.2 140.25 -303.35 Q140.05 -303.35 139.95 -303.5 L139.8 -303.85 Q139.65 -304.35 141.2 -304.85 M156.55 -313.1 L156.55 -313.4 156.6 -313.55 157.1 -314.15 157.2 -314.2 159.5 -314.65 159.8 -314.6 160.0 -314.45 161.15 -313.25 161.35 -313.0 161.35 -312.75 161.2 -312.5 159.8 -312.35 159.75 -312.35 156.95 -312.75 Q156.8 -312.75 156.7 -312.85 L156.55 -313.1 M49.95 -301.25 L50.15 -301.05 50.2 -300.75 50.1 -300.5 49.8 -300.15 49.45 -300.0 Q49.25 -300.0 49.1 -300.1 L48.4 -300.75 47.4 -301.1 Q47.15 -301.1 47.05 -301.25 46.9 -301.4 46.9 -301.6 46.9 -303.0 47.65 -303.05 L48.0 -303.0 49.15 -302.05 49.2 -302.05 49.95 -301.25 M59.1 -298.45 L59.65 -298.3 Q60.2 -298.35 60.2 -297.0 L60.15 -296.25 60.05 -295.9 Q59.7 -295.5 59.3 -295.75 L59.1 -295.95 59.1 -296.0 Q58.1 -296.25 58.1 -298.0 L58.25 -298.35 58.6 -298.5 58.95 -298.5 59.1 -298.45 M70.6 -301.0 L70.4 -301.0 66.8 -301.55 Q65.45 -301.45 64.65 -297.85 L64.05 -293.7 64.2 -293.55 64.25 -293.5 Q65.0 -293.15 65.65 -291.8 L65.7 -291.6 65.7 -287.4 65.6 -287.1 65.4 -286.85 65.15 -286.65 64.8 -286.7 64.6 -286.9 64.2 -287.7 Q63.9 -288.5 63.95 -289.4 L63.95 -289.45 64.15 -290.8 63.5 -291.6 63.45 -291.65 Q62.45 -292.75 62.5 -293.7 62.5 -295.65 63.35 -298.8 64.55 -303.75 66.65 -303.65 68.1 -303.65 68.1 -302.75 L68.1 -302.65 69.9 -302.7 Q70.3 -303.95 70.85 -304.15 L71.1 -304.2 71.35 -304.1 72.4 -302.65 72.4 -302.6 72.8 -301.25 72.85 -300.9 72.65 -300.65 72.35 -300.55 Q71.85 -300.45 71.15 -301.45 L70.8 -301.05 70.6 -301.0 M70.5 -297.05 L70.55 -297.0 70.55 -297.05 70.5 -297.05 M70.85 -299.8 L71.7 -300.15 72.05 -300.05 72.3 -299.8 Q72.45 -299.45 72.05 -298.95 71.9 -298.75 71.9 -298.2 L72.15 -297.75 73.35 -296.95 73.55 -296.6 73.5 -296.25 73.55 -296.3 73.9 -296.2 75.15 -296.35 76.55 -296.8 76.9 -296.8 77.2 -296.6 77.5 -295.1 77.45 -294.8 77.2 -294.6 76.2 -294.5 75.9 -294.45 75.75 -294.3 75.55 -294.3 73.6 -294.4 Q73.4 -294.4 73.25 -294.55 L73.1 -294.9 73.1 -295.8 73.2 -296.05 73.1 -296.05 71.95 -296.1 Q70.65 -296.25 70.6 -296.9 L70.55 -297.0 Q70.3 -297.1 70.3 -298.3 70.3 -299.5 70.85 -299.8 M77.7 -293.65 L77.9 -293.85 78.2 -294.0 78.55 -294.0 Q78.7 -294.0 78.85 -293.8 L79.1 -293.1 80.25 -292.95 80.55 -292.8 80.65 -292.5 80.6 -292.15 80.0 -291.2 80.0 -291.15 Q79.7 -290.65 79.7 -289.95 L79.7 -289.4 80.0 -289.3 81.4 -288.95 81.5 -288.95 83.05 -288.05 83.25 -287.8 83.4 -287.3 83.4 -287.0 83.2 -286.75 82.9 -286.65 Q82.25 -286.65 81.15 -287.0 L79.05 -287.8 78.8 -288.0 78.7 -288.25 Q78.5 -290.7 78.1 -291.9 L77.6 -293.4 77.7 -293.65 M61.85 -288.5 L62.15 -288.05 62.3 -288.0 62.25 -287.95 62.3 -287.9 62.2 -287.95 61.7 -287.35 61.1 -288.65 60.4 -290.4 61.55 -288.95 61.85 -288.5 M63.1 -287.25 L63.1 -287.6 63.2 -287.75 63.4 -287.3 63.65 -287.0 63.75 -286.85 63.65 -286.9 63.4 -287.05 63.15 -286.9 63.1 -287.25 M65.05 -284.15 L65.2 -283.95 65.6 -283.5 65.65 -283.35 65.6 -283.25 65.3 -283.1 65.2 -283.1 65.1 -283.1 65.15 -283.0 65.15 -282.95 65.15 -282.7 65.0 -282.45 64.8 -282.3 64.35 -282.75 64.1 -282.95 64.45 -282.8 64.65 -283.15 64.75 -283.25 64.55 -283.45 64.25 -283.7 65.0 -284.25 65.05 -284.15 M63.55 -282.8 L63.45 -283.15 63.9 -282.8 63.7 -282.8 63.55 -282.8 M57.55 -291.9 L57.7 -292.2 57.7 -292.25 57.95 -292.4 58.25 -292.35 59.25 -291.05 59.2 -291.0 58.4 -290.45 57.65 -291.6 57.55 -291.9 M52.2 -294.4 L52.3 -294.15 52.4 -292.9 52.3 -292.55 52.05 -292.35 51.5 -292.2 51.15 -292.25 50.9 -292.45 50.6 -293.1 50.55 -293.1 50.3 -294.0 50.4 -294.3 50.65 -294.45 51.95 -294.55 52.2 -294.4 M60.6 -288.3 L61.1 -287.9 60.55 -287.35 60.45 -287.2 60.05 -287.65 59.9 -287.85 59.55 -288.3 59.6 -288.35 60.1 -288.45 60.15 -288.45 60.4 -288.4 60.6 -288.3 M73.7 -198.1 Q73.75 -197.25 72.75 -196.65 L72.5 -196.6 72.15 -196.6 71.85 -196.7 71.65 -197.0 71.55 -197.5 71.65 -197.85 Q72.05 -198.6 72.5 -198.7 73.05 -199.05 73.6 -198.4 L73.7 -198.1 M107.85 -292.95 Q107.6 -290.7 105.5 -289.0 L105.45 -288.95 104.8 -288.4 104.8 -288.45 Q104.15 -288.15 103.85 -288.65 103.65 -288.9 103.65 -289.55 103.5 -289.8 104.7 -290.5 105.45 -291.05 105.95 -291.95 106.8 -293.6 107.35 -293.5 L107.65 -293.4 107.8 -293.2 107.85 -292.95 M102.2 -288.5 L101.4 -287.75 101.1 -287.7 99.65 -287.8 Q99.45 -287.8 99.3 -287.95 L99.15 -288.25 99.3 -288.6 Q99.55 -289.0 100.75 -289.55 L102.3 -290.1 102.6 -290.05 102.8 -289.85 102.85 -289.6 Q102.9 -289.3 102.25 -288.5 L102.2 -288.5 M92.8 -288.2 L92.25 -287.4 92.1 -287.25 91.85 -287.2 88.6 -287.2 88.25 -287.35 88.1 -287.7 88.1 -288.2 88.25 -288.55 88.6 -288.7 92.35 -289.0 92.7 -288.9 92.9 -288.55 92.8 -288.2 M95.35 -287.5 L95.45 -287.75 Q96.5 -288.8 97.5 -288.4 L97.65 -288.35 Q98.25 -287.95 98.4 -287.25 L98.35 -286.95 98.2 -286.7 97.9 -286.65 Q95.8 -286.65 95.5 -287.0 L95.35 -287.25 95.35 -287.5 M121.25 -117.15 L121.35 -117.45 Q121.45 -117.85 122.55 -117.85 123.5 -117.85 123.95 -117.35 L124.0 -117.3 124.05 -117.2 124.7 -117.85 125.5 -118.95 125.65 -119.2 126.15 -119.35 126.55 -119.05 126.65 -118.15 Q126.65 -117.25 126.05 -116.5 L124.8 -115.45 124.5 -115.35 123.2 -115.35 123.0 -115.4 122.8 -115.55 122.35 -116.0 121.5 -116.75 121.4 -116.85 Q121.25 -116.95 121.25 -117.15 M32.1 -171.05 L32.4 -170.95 32.6 -170.7 33.4 -169.35 33.45 -169.35 Q34.15 -168.3 34.1 -167.7 L34.6 -167.35 36.05 -167.05 36.4 -166.9 36.55 -166.55 Q36.6 -165.95 36.0 -165.55 L35.75 -165.45 35.45 -165.5 33.5 -166.05 33.3 -166.15 33.15 -166.3 32.0 -167.95 31.95 -168.0 Q31.25 -169.1 31.25 -170.55 L31.4 -170.9 31.75 -171.05 32.1 -171.05 M203.15 -185.85 L203.4 -185.65 203.5 -185.35 203.4 -183.75 Q203.5 -183.15 204.75 -182.4 L205.0 -182.1 204.95 -181.75 Q204.7 -181.25 203.1 -180.25 L202.6 -179.25 Q201.9 -178.0 200.75 -177.5 L200.55 -177.45 196.5 -177.7 196.25 -177.9 196.15 -178.15 Q196.05 -178.9 196.2 -179.2 L196.5 -179.7 197.1 -179.75 197.15 -179.75 198.55 -179.25 200.45 -179.5 Q201.15 -180.6 203.05 -181.65 L202.3 -182.35 Q201.65 -183.1 201.65 -184.2 201.65 -185.2 202.15 -185.5 L202.25 -185.6 202.8 -185.85 203.15 -185.85 M-19.75 -334.65 L-19.9 -334.25 -20.1 -334.05 -20.4 -333.95 Q-21.25 -333.95 -21.75 -334.6 L-22.15 -335.2 -23.35 -335.2 -26.55 -332.65 -23.05 -331.9 -22.85 -331.8 -22.7 -331.6 -21.75 -329.7 Q-21.7 -330.35 -21.25 -330.65 L-21.2 -330.7 -20.15 -330.95 -19.9 -330.9 -19.75 -330.75 Q-19.5 -330.5 -19.5 -329.7 L-19.4 -328.85 -19.45 -328.55 Q-19.8 -327.65 -20.85 -327.55 -20.55 -326.35 -20.75 -325.4 -19.9 -324.9 -19.75 -324.4 L-19.8 -324.0 -19.95 -323.7 -20.1 -323.5 -20.4 -323.45 Q-20.85 -323.4 -22.1 -324.05 L-22.35 -324.25 -22.4 -324.6 Q-22.15 -325.85 -22.65 -327.35 L-22.65 -327.4 -23.9 -330.2 Q-25.1 -330.5 -25.65 -331.1 L-26.25 -331.45 -30.0 -329.55 -30.3 -329.5 -30.35 -329.5 Q-34.8 -325.55 -34.9 -323.95 L-33.95 -322.5 Q-32.75 -320.95 -32.6 -319.7 L-32.5 -316.25 Q-32.5 -313.6 -35.0 -304.25 -37.55 -295.15 -37.55 -290.7 -37.55 -284.95 -34.7 -282.05 L-32.6 -279.95 -32.45 -279.6 -32.6 -279.25 -32.9 -279.1 -33.25 -279.2 -33.4 -279.3 Q-37.6 -283.0 -38.55 -285.55 -39.1 -286.85 -39.1 -290.7 -39.1 -297.3 -36.55 -305.25 -34.1 -313.0 -34.1 -316.45 -34.1 -319.6 -34.4 -320.7 -35.1 -323.0 -37.3 -322.35 L-37.6 -322.35 -37.85 -322.55 -37.95 -322.85 -37.85 -323.15 -34.5 -327.2 Q-32.3 -329.8 -31.15 -330.5 -29.55 -331.6 -24.2 -336.95 L-24.0 -337.05 -23.8 -337.1 -21.45 -336.85 -21.25 -336.75 Q-20.2 -336.15 -19.75 -335.0 L-19.75 -334.65 M-31.55 -278.85 Q-26.55 -273.6 -24.1 -270.25 L-23.95 -270.25 -23.8 -270.3 -22.0 -270.2 -21.7 -270.05 Q-18.35 -267.0 -16.3 -262.4 L-16.25 -262.35 -13.3 -255.5 -13.05 -255.55 Q-12.75 -255.7 -12.55 -255.25 L-12.45 -254.2 -12.5 -253.45 -12.6 -253.15 Q-12.9 -252.75 -13.25 -252.9 L-13.3 -252.95 -13.65 -253.25 Q-14.45 -253.5 -14.65 -254.3 -15.65 -255.35 -16.1 -257.55 -16.6 -260.5 -17.8 -261.85 -18.4 -262.45 -20.25 -265.85 -22.1 -268.5 -24.15 -268.35 L-24.4 -268.4 -24.6 -268.6 -24.7 -268.85 Q-26.5 -270.15 -29.05 -273.85 L-32.3 -278.2 -32.45 -278.55 -32.25 -278.9 -31.9 -279.0 -31.55 -278.85 M-198.2 -189.0 Q-197.55 -187.85 -197.6 -187.3 L-197.65 -187.05 -197.8 -186.9 -198.95 -185.65 -199.15 -185.55 -199.35 -185.5 -199.75 -185.5 -200.1 -185.65 -200.25 -186.0 -199.5 -187.65 -199.85 -187.7 -200.1 -187.85 -200.25 -188.2 -200.25 -190.2 -200.1 -190.55 -199.75 -190.7 -199.35 -190.7 -199.0 -190.55 -198.85 -190.25 -198.2 -189.0 M-200.65 -186.1 L-200.5 -185.75 -200.5 -185.1 -200.6 -184.8 Q-200.8 -184.4 -202.05 -184.4 -202.65 -184.4 -202.85 -184.85 L-203.0 -185.25 -204.55 -184.85 -204.85 -184.85 -205.1 -185.05 -205.2 -185.35 -205.2 -188.0 -205.05 -188.35 -204.7 -188.5 -204.35 -188.5 -204.0 -188.35 -203.85 -188.05 -203.6 -186.9 -202.05 -186.85 -201.8 -186.75 -201.6 -186.5 Q-201.5 -186.25 -201.0 -186.25 L-200.65 -186.1 M-195.95 -184.05 L-195.65 -183.9 -195.5 -183.6 -195.35 -182.75 Q-195.3 -182.6 -195.4 -182.4 L-196.3 -181.15 Q-196.85 -180.45 -197.6 -180.15 -197.65 -179.25 -198.3 -178.45 L-199.15 -177.35 Q-199.3 -177.2 -199.5 -177.2 L-199.85 -177.35 -200.2 -178.05 -200.25 -179.3 Q-200.25 -180.35 -199.8 -181.0 L-198.85 -181.75 -198.75 -181.75 -198.3 -181.7 -198.0 -182.25 Q-197.45 -183.25 -196.25 -183.95 L-195.95 -184.05" fill="#00ffff" fill-opacity="0.5019608" fill-rule="evenodd" stroke="none"/>
    <path d="M189.65 -322.95 L189.75 -322.2 189.7 -321.45 189.5 -321.5 188.65 -321.65 188.65 -322.9 189.65 -322.95 M199.4 -333.35 Q200.0 -334.0 200.75 -334.15 200.4 -333.0 199.05 -331.1 L197.3 -328.65 195.9 -328.45 195.25 -327.25 195.0 -327.3 Q194.65 -327.35 194.45 -327.55 L194.2 -328.0 195.0 -328.8 Q195.5 -329.5 197.0 -329.55 L197.3 -331.0 197.55 -332.45 Q198.8 -332.65 199.4 -333.35 M177.2 -315.4 Q178.5 -315.25 178.65 -314.9 173.45 -312.45 172.8 -312.05 L171.25 -312.15 Q169.7 -312.3 169.7 -312.6 L172.95 -312.85 Q175.1 -314.85 177.0 -315.15 L177.2 -315.4 M169.7 -312.7 L169.5 -312.6 164.75 -312.7 164.75 -313.55 Q165.2 -313.55 165.3 -313.25 L169.7 -312.7 M184.5 -317.05 L183.7 -317.2 184.7 -318.35 Q185.5 -319.1 186.3 -319.1 185.0 -317.3 184.5 -317.05 M186.45 -320.3 L187.95 -320.2 Q187.75 -319.4 186.45 -319.4 L186.45 -320.3 M211.45 -342.1 L208.8 -340.6 Q206.6 -339.4 206.45 -339.4 208.85 -342.55 211.3 -342.4 L211.45 -342.1 M118.9 -301.5 L116.35 -301.15 115.75 -300.35 115.0 -299.25 Q112.7 -298.75 109.35 -296.25 L105.85 -293.25 Q105.85 -294.4 106.95 -295.8 L108.6 -296.2 110.95 -298.4 Q111.95 -299.2 114.7 -300.05 L115.25 -300.95 Q115.6 -301.7 116.1 -302.05 L119.5 -302.3 119.75 -301.15 123.05 -300.5 121.0 -300.3 118.9 -301.5 M130.0 -301.5 L129.0 -301.55 129.0 -301.5 128.45 -301.05 127.45 -301.1 Q126.4 -301.2 126.4 -301.5 L127.5 -301.6 127.55 -301.8 127.8 -302.05 130.25 -302.6 131.15 -302.9 Q132.6 -303.85 133.35 -303.8 L136.85 -304.15 136.85 -303.7 134.65 -303.2 131.7 -302.6 131.45 -302.65 130.0 -301.5 M141.35 -304.4 L143.65 -305.1 145.85 -307.6 Q146.05 -308.0 145.85 -308.8 145.85 -309.1 147.0 -309.8 148.5 -310.7 149.15 -311.35 147.8 -311.5 148.05 -311.85 L149.45 -312.6 150.5 -312.9 152.25 -312.7 154.2 -312.15 153.9 -312.05 151.7 -312.45 Q150.45 -312.45 147.25 -308.6 L143.85 -304.25 142.2 -303.7 140.3 -303.85 141.35 -304.4 M137.25 -304.25 Q138.5 -304.15 138.65 -303.85 L138.35 -303.7 136.95 -303.85 Q136.95 -304.15 137.25 -304.25 M160.85 -312.85 Q160.7 -312.7 159.85 -312.85 L157.0 -313.25 157.05 -313.4 157.3 -313.7 159.6 -314.15 Q160.3 -313.25 160.85 -312.85 M48.8 -301.7 L49.7 -300.85 49.4 -300.5 48.7 -301.15 Q48.15 -301.55 47.4 -301.6 47.4 -302.5 47.75 -302.6 L48.8 -301.7 M59.5 -297.85 Q59.7 -297.8 59.7 -297.0 L59.55 -296.2 59.4 -296.5 Q58.6 -296.55 58.6 -298.0 L58.95 -298.0 59.5 -297.85 M54.0 -297.45 Q56.35 -293.95 58.85 -290.75 L58.05 -291.9 Q59.2 -291.35 61.45 -288.2 L61.85 -287.6 62.15 -287.55 60.25 -292.3 60.7 -292.45 62.95 -287.0 63.3 -286.6 Q63.65 -286.6 63.65 -286.9 L63.55 -287.4 Q64.45 -287.2 64.9 -286.0 L65.2 -284.4 65.2 -283.6 65.0 -283.7 64.55 -284.1 64.6 -283.9 65.2 -283.15 65.1 -282.7 64.45 -283.3 64.65 -282.8 64.1 -282.7 63.9 -283.3 63.7 -283.3 Q62.5 -283.3 62.1 -285.0 61.6 -287.05 59.7 -287.85 L60.25 -287.95 60.85 -287.5 57.9 -291.05 Q54.3 -295.3 53.6 -297.3 L54.0 -297.45 M70.25 -302.25 Q70.6 -303.5 71.05 -303.7 L71.9 -302.5 Q72.15 -301.5 72.35 -301.05 71.9 -301.05 71.05 -302.6 L70.5 -301.5 66.8 -302.05 Q65.05 -302.05 64.15 -297.95 L63.55 -293.7 Q63.55 -293.35 64.0 -293.1 64.65 -292.8 65.2 -291.6 L65.2 -287.4 65.0 -287.15 Q64.4 -288.2 64.45 -289.4 L64.65 -290.8 63.85 -291.95 Q63.0 -292.9 63.0 -293.7 63.0 -295.6 63.8 -298.7 64.9 -303.15 66.65 -303.15 67.55 -303.15 67.6 -302.7 L67.5 -302.15 70.25 -302.25 M71.65 -299.3 Q71.4 -299.0 71.4 -298.2 71.4 -297.7 71.85 -297.35 L73.05 -296.55 72.0 -296.6 Q71.15 -296.7 71.05 -297.05 L70.9 -297.35 70.8 -298.3 Q70.8 -299.15 71.15 -299.4 L71.8 -299.65 71.65 -299.3 M77.0 -295.1 L76.15 -295.0 75.55 -294.8 73.6 -294.9 73.6 -295.8 75.25 -295.9 76.75 -296.35 77.0 -295.1 M78.65 -292.7 L80.15 -292.45 79.55 -291.4 Q79.2 -290.8 79.2 -289.95 79.2 -289.1 79.4 -288.95 L79.75 -288.85 81.25 -288.5 82.75 -287.65 82.9 -287.15 81.3 -287.5 79.2 -288.3 Q79.0 -290.85 78.55 -292.1 L78.1 -293.4 78.4 -293.55 78.65 -292.7 M51.9 -292.85 L51.35 -292.7 51.0 -293.35 50.8 -294.0 51.8 -294.1 51.9 -292.85 M107.35 -293.0 Q107.1 -290.9 105.05 -289.3 L104.6 -288.9 Q104.15 -288.7 104.15 -289.55 L104.95 -290.1 Q105.85 -290.7 106.4 -291.75 107.05 -293.0 107.35 -293.0 M101.85 -288.85 L101.1 -288.2 99.65 -288.3 100.95 -289.1 102.35 -289.6 101.85 -288.85 M97.9 -287.15 L95.8 -287.4 Q96.6 -288.2 97.35 -287.95 97.8 -287.65 97.9 -287.15 M91.85 -287.7 L88.6 -287.7 88.6 -288.2 92.4 -288.5 91.85 -287.7 M-23.55 -335.7 L-28.0 -332.1 -26.9 -332.25 -23.15 -331.4 -21.65 -328.25 Q-20.9 -326.45 -21.35 -325.15 -20.4 -324.7 -20.25 -324.25 L-20.4 -323.95 -21.9 -324.5 Q-21.6 -325.85 -22.2 -327.55 -22.4 -328.2 -23.55 -330.65 -24.75 -330.9 -25.3 -331.45 -25.75 -331.95 -26.4 -331.95 L-30.25 -330.0 -29.95 -330.5 Q-35.4 -325.8 -35.4 -323.95 L-34.35 -322.2 Q-33.25 -320.75 -33.1 -319.65 L-33.0 -316.25 Q-33.0 -313.65 -35.5 -304.4 -38.05 -295.2 -38.05 -290.7 -38.05 -284.7 -35.05 -281.7 L-32.95 -279.6 -33.1 -279.7 Q-37.15 -283.25 -38.1 -285.75 -38.6 -287.0 -38.6 -290.7 -38.6 -297.25 -36.1 -305.1 -33.6 -312.95 -33.6 -316.45 -33.6 -319.7 -33.95 -320.85 -34.75 -323.6 -37.45 -322.85 L-34.15 -326.9 Q-32.0 -329.4 -30.9 -330.1 -29.25 -331.2 -23.85 -336.6 L-21.5 -336.35 Q-20.6 -335.8 -20.25 -334.85 L-20.4 -334.45 Q-21.0 -334.45 -21.35 -334.9 L-21.9 -335.7 -23.55 -335.7 M-31.95 -278.5 Q-26.65 -272.95 -24.2 -269.55 L-24.4 -269.25 Q-26.15 -270.5 -28.65 -274.15 L-31.95 -278.5 M-23.85 -269.8 L-22.05 -269.7 Q-18.75 -266.7 -16.75 -262.2 -14.95 -257.5 -13.6 -255.0 L-13.2 -254.75 Q-12.95 -255.6 -12.95 -254.2 -12.95 -253.35 -13.1 -253.4 L-13.3 -253.65 Q-14.05 -253.85 -14.25 -254.55 -15.2 -255.5 -15.6 -257.65 -16.15 -260.75 -17.45 -262.2 L-19.85 -266.1 Q-21.9 -269.05 -24.2 -268.85 -24.2 -269.7 -23.85 -269.8 M-198.65 -188.75 Q-198.1 -187.75 -198.1 -187.3 L-199.35 -186.0 -199.75 -186.0 Q-199.75 -186.6 -198.65 -188.0 L-199.75 -188.2 -199.75 -190.2 -199.35 -190.2 -198.65 -188.75 M-201.0 -185.75 L-201.0 -185.1 -202.05 -184.9 Q-202.6 -184.9 -202.45 -185.65 L-204.7 -185.35 -204.7 -188.0 -204.35 -188.0 -203.95 -186.45 -202.1 -186.35 Q-201.9 -185.75 -201.0 -185.75 M-195.85 -182.7 L-196.7 -181.45 Q-197.3 -180.7 -198.1 -180.5 L-198.1 -180.3 Q-198.1 -179.5 -198.7 -178.75 L-199.5 -177.7 -199.7 -178.05 -199.75 -179.3 Q-199.75 -180.2 -199.4 -180.75 L-198.8 -181.25 -198.25 -181.2 Q-198.1 -181.15 -198.1 -180.5 L-197.6 -182.0 -196.0 -183.55 -195.85 -182.7" fill="#ffffff" fill-rule="evenodd" stroke="none"/>
    <path d="M125.9 -118.65 Q126.15 -119.3 126.15 -118.15 126.15 -117.45 125.65 -116.85 L124.5 -115.85 123.2 -115.85 122.6 -116.45 121.85 -117.1 121.75 -117.2 122.55 -117.35 Q123.25 -117.35 123.6 -117.0 L123.8 -116.55 Q124.55 -116.8 125.1 -117.6 L125.9 -118.65 M72.15 -197.1 L72.05 -197.6 Q72.7 -198.7 73.2 -198.1 73.2 -197.5 72.5 -197.1 L72.15 -197.1 M31.75 -170.55 L32.1 -170.55 33.0 -169.1 Q33.6 -168.2 33.6 -167.7 33.6 -167.05 34.5 -166.85 L36.05 -166.55 Q36.05 -166.2 35.7 -165.95 L33.6 -166.55 32.35 -168.3 Q31.75 -169.25 31.75 -170.55 M202.9 -183.75 Q202.9 -182.9 204.5 -182.0 204.25 -181.55 202.65 -180.6 L202.15 -179.5 Q201.55 -178.4 200.55 -177.95 L196.65 -178.2 Q196.5 -179.45 196.95 -179.3 198.2 -178.75 198.55 -178.75 200.55 -178.75 200.85 -179.25 201.65 -180.4 203.9 -181.55 L202.65 -182.7 Q202.15 -183.3 202.15 -184.2 202.15 -184.9 202.45 -185.15 L203.0 -185.4 202.9 -183.75 M-20.0 -329.7 L-19.9 -328.75 Q-20.2 -328.05 -21.15 -328.05 L-21.2 -328.35 -21.3 -329.25 Q-21.3 -330.0 -20.95 -330.3 L-20.15 -330.45 Q-20.0 -330.25 -20.0 -329.7" fill="#ffffff" fill-opacity="0.9019608" fill-rule="evenodd" stroke="none"/>
  </g>
</svg>
