<?xml version="1.0" encoding="UTF-8" standalone="no"?>
<svg xmlns:ffdec="https://www.free-decompiler.com/flash" xmlns:xlink="http://www.w3.org/1999/xlink" ffdec:objectType="shape" height="264.95px" width="220.55px" xmlns="http://www.w3.org/2000/svg">
  <g transform="matrix(1.0, 0.0, 0.0, 1.0, 32.15, 390.7)">
    <path d="M183.35 -378.05 L183.2 -379.95 181.6 -382.55 Q181.3 -383.05 181.05 -384.95 180.8 -386.55 180.0 -387.25 176.7 -387.6 174.2 -389.2 L171.1 -389.3 168.5 -387.4 Q167.05 -386.35 164.85 -385.8 159.45 -380.3 156.5 -376.15 L155.1 -374.9 155.75 -374.8 156.5 -375.05 159.5 -376.9 Q161.4 -378.0 164.25 -378.8 L166.6 -379.0 167.35 -378.6 167.95 -378.4 169.05 -377.55 170.25 -376.3 171.35 -375.15 Q171.4 -375.0 173.0 -374.0 175.75 -372.25 177.35 -369.0 180.25 -363.25 180.35 -359.75 L180.25 -359.25 180.1 -358.6 Q180.1 -358.15 180.6 -356.75 L181.35 -354.1 180.75 -347.8 Q180.75 -343.6 178.35 -339.25 175.15 -333.4 169.5 -333.25 L169.15 -333.5 165.5 -333.8 165.5 -333.75 162.2 -333.4 160.5 -332.85 159.4 -332.5 156.0 -332.15 154.25 -331.9 152.6 -331.75 146.5 -331.65 146.5 -331.75 145.9 -331.3 145.25 -330.75 Q142.65 -331.25 139.55 -330.0 L133.6 -327.0 129.7 -324.75 130.35 -325.25 130.25 -325.6 Q127.6 -323.6 126.0 -322.65 122.5 -320.6 119.0 -318.05 L115.05 -315.6 Q112.65 -314.35 111.4 -313.4 L112.25 -314.25 107.75 -310.8 Q104.95 -308.45 103.0 -307.4 L100.7 -306.15 Q99.15 -305.1 98.65 -303.8 L97.65 -301.55 Q97.1 -300.2 97.1 -299.5 97.1 -298.65 98.1 -296.45 99.1 -294.2 99.1 -291.9 L99.0 -290.3 Q98.9 -290.05 98.95 -289.55 L99.25 -288.55 Q99.5 -289.0 100.85 -289.0 103.1 -288.05 104.45 -285.8 105.6 -283.85 105.6 -282.0 L105.5 -275.8 Q105.55 -273.85 104.75 -269.65 L103.5 -263.5 102.55 -260.6 101.5 -259.0 100.0 -256.4 Q96.4 -252.25 91.4 -252.25 90.8 -252.25 90.0 -252.85 89.15 -253.45 89.15 -254.05 L89.0 -255.15 Q87.95 -254.3 83.9 -252.2 79.15 -249.75 76.7 -248.15 67.5 -242.2 67.5 -235.1 L67.85 -229.45 67.6 -228.9 67.75 -228.9 67.85 -229.0 67.85 -228.9 68.0 -228.9 68.05 -229.15 68.35 -229.5 70.1 -229.5 Q71.25 -228.7 71.95 -226.3 72.5 -224.35 72.5 -222.8 72.5 -219.4 70.85 -215.45 L67.0 -207.5 65.15 -203.45 Q64.0 -200.95 63.1 -199.8 L61.45 -197.8 Q60.3 -196.7 59.0 -196.25 57.2 -195.65 55.1 -195.4 L51.25 -195.0 Q50.15 -194.85 49.1 -194.3 L48.35 -193.85 47.15 -195.2 Q46.25 -195.9 44.75 -196.25 42.7 -196.65 41.8 -197.45 L40.6 -198.8 Q39.55 -199.95 38.9 -202.1 38.35 -203.9 38.35 -205.5 L38.2 -207.95 37.25 -211.75 37.1 -211.75 37.1 -211.7 Q36.25 -214.35 37.8 -217.5 39.5 -221.1 43.35 -223.75 L45.5 -223.75 47.0 -222.55 Q52.2 -227.7 53.85 -230.7 55.65 -233.95 55.65 -238.5 55.65 -239.3 55.25 -240.3 54.75 -241.4 54.0 -241.5 L53.6 -241.9 Q51.2 -241.6 50.2 -243.8 49.65 -245.1 49.65 -246.75 49.65 -251.7 52.55 -257.65 56.2 -265.25 61.9 -265.9 L63.0 -265.9 64.35 -263.8 65.05 -264.5 65.05 -264.4 65.25 -264.4 65.95 -266.15 66.0 -266.35 66.0 -266.5 66.0 -267.75 65.65 -273.75 65.15 -279.5 64.3 -285.5 Q63.45 -289.15 60.75 -291.5 L59.45 -291.45 59.0 -291.65 Q56.0 -290.6 52.25 -286.7 L46.0 -280.25 37.75 -274.3 Q34.75 -272.0 34.75 -268.45 L35.5 -262.4 35.35 -261.45 33.25 -261.65 Q30.95 -260.3 29.7 -258.45 28.55 -256.7 28.75 -255.25 29.15 -253.9 28.4 -251.85 27.45 -249.65 27.25 -248.75 L27.95 -248.2 28.45 -246.85 28.6 -245.05 28.85 -245.15 28.9 -245.4 29.0 -244.4 Q29.0 -241.8 25.45 -236.4 21.2 -230.0 16.75 -230.0 L15.95 -230.15 15.15 -230.5 Q14.6 -230.75 14.55 -231.25 L14.55 -231.5 14.75 -231.5 14.85 -231.65 14.55 -231.7 14.5 -232.0 14.35 -232.0 14.3 -231.75 11.4 -232.15 9.0 -232.25 Q0.2 -230.75 -5.05 -227.0 -10.05 -222.4 -12.75 -220.25 L-14.0 -218.55 -15.25 -216.75 Q-16.8 -215.1 -17.65 -213.05 -19.4 -206.9 -19.4 -205.75 L-18.65 -204.75 Q-18.65 -203.4 -20.4 -199.5 -22.15 -195.65 -22.15 -191.7 L-22.1 -190.0 Q-21.9 -189.35 -20.55 -187.8 L-18.3 -185.9 Q-17.1 -185.0 -17.05 -184.05 L-16.45 -183.9 -16.3 -183.8 -13.75 -183.75 -11.9 -183.9 Q-11.15 -183.4 -10.7 -182.45 L-10.05 -181.25 Q-8.9 -181.1 -8.7 -180.35 L-8.4 -179.0 -8.25 -179.0 -8.85 -178.35 Q-10.05 -177.5 -13.35 -177.5 -14.75 -177.5 -15.75 -179.1 -16.75 -180.7 -19.75 -180.65 L-19.9 -180.5 Q-21.7 -181.15 -23.75 -179.75 L-27.4 -176.5 Q-28.8 -175.15 -29.65 -172.0 -31.15 -167.25 -31.15 -162.85 -31.15 -160.55 -29.95 -158.45 -28.5 -155.85 -25.6 -154.8 L-25.3 -154.5 Q-18.9 -153.0 -15.45 -150.95 -13.4 -149.7 -9.5 -146.05 L-4.7 -140.6 Q-2.8 -138.35 -0.95 -137.0 L0.8 -134.95 Q3.3 -132.3 7.75 -130.9 L8.9 -130.7 10.0 -130.65 Q10.25 -129.85 12.45 -128.7 14.55 -127.6 17.0 -127.0 L20.75 -126.75 23.1 -127.1 Q24.2 -127.35 24.9 -127.75 L25.0 -127.75 Q30.3 -129.2 34.25 -132.95 36.55 -135.1 40.15 -139.65 L44.15 -142.95 Q46.95 -144.95 48.9 -145.8 L54.4 -148.05 56.2 -149.4 57.65 -151.05 60.5 -151.65 Q61.9 -151.0 64.2 -149.25 65.2 -148.45 66.05 -148.15 L66.55 -147.6 Q67.45 -146.85 68.65 -146.9 L73.75 -146.7 78.75 -146.65 79.55 -146.45 80.25 -146.4 83.9 -146.25 87.5 -146.25 Q94.75 -147.75 100.5 -152.25 103.9 -154.9 105.85 -157.75 109.7 -161.55 112.4 -165.55 L116.7 -170.8 Q119.75 -174.2 120.75 -175.9 L123.5 -181.1 126.4 -186.25 130.15 -191.4 131.1 -193.0 Q132.15 -194.2 132.5 -196.5 L133.0 -200.25 Q133.75 -203.6 133.75 -207.8 L133.5 -211.85 133.15 -215.25 Q132.7 -217.5 132.65 -219.0 L132.3 -220.9 131.9 -223.0 Q131.55 -226.25 126.4 -230.5 L126.25 -230.6 123.05 -234.35 121.0 -237.3 120.75 -237.75 120.7 -237.75 120.6 -237.9 Q119.85 -239.7 119.85 -241.25 119.85 -242.1 120.35 -243.0 L120.4 -242.85 Q120.45 -242.7 120.6 -242.75 L120.65 -243.4 Q120.65 -243.95 118.65 -247.6 L116.55 -251.15 116.5 -251.25 115.65 -254.25 115.3 -257.35 114.9 -260.8 Q114.9 -266.7 117.7 -273.05 120.75 -279.95 126.15 -285.0 127.55 -284.85 128.85 -287.65 L130.85 -292.4 131.85 -296.5 132.1 -298.55 Q132.1 -299.15 132.5 -299.8 L133.0 -300.65 Q134.85 -304.4 143.15 -308.35 151.25 -312.25 158.25 -313.0 L160.25 -313.25 164.5 -313.5 Q164.75 -313.2 165.8 -312.9 L166.9 -312.65 167.0 -312.65 Q168.45 -311.9 169.1 -310.5 169.65 -308.55 170.25 -307.8 176.95 -309.6 181.35 -313.05 185.65 -316.45 185.65 -319.8 L183.9 -322.7 Q182.15 -326.0 182.15 -329.55 L182.25 -331.0 Q182.15 -331.4 182.2 -332.35 L182.25 -333.6 Q182.25 -338.0 183.0 -341.0 183.65 -343.75 185.0 -345.75 L185.0 -351.9 185.2 -351.95 185.25 -352.4 Q185.25 -353.65 185.55 -355.8 186.45 -358.65 187.4 -358.5 L187.4 -363.55 187.1 -364.8 Q186.85 -365.6 186.2 -365.8 L186.0 -366.25 Q184.95 -368.0 184.25 -370.5 183.8 -372.2 183.6 -374.2 L183.3 -377.35 183.35 -378.05 M182.45 -383.1 L184.15 -380.35 Q184.35 -379.95 184.35 -378.05 L184.35 -377.95 184.3 -377.3 184.6 -374.3 Q184.8 -372.4 185.25 -370.75 185.85 -368.4 186.85 -366.75 L187.0 -366.55 Q187.7 -366.1 188.05 -365.1 L188.1 -365.0 188.35 -363.85 188.4 -363.55 188.4 -358.5 188.25 -357.95 Q188.1 -357.7 187.8 -357.6 L187.25 -357.5 186.55 -355.6 Q186.25 -353.6 186.25 -352.4 L186.0 -351.3 186.0 -345.75 185.85 -345.2 Q184.6 -343.3 184.0 -340.75 183.25 -337.85 183.25 -333.6 L183.25 -333.55 183.2 -332.35 183.2 -332.3 Q183.15 -331.6 183.25 -331.25 L183.25 -331.0 183.25 -330.9 183.15 -329.55 Q183.15 -326.25 184.8 -323.15 L184.75 -323.25 Q186.8 -320.1 186.65 -319.8 186.75 -316.05 182.0 -312.25 177.45 -308.7 170.5 -306.8 L169.95 -306.85 169.5 -307.15 Q168.75 -308.0 168.15 -310.2 L168.2 -310.1 Q167.7 -311.1 166.7 -311.65 L165.55 -311.95 164.15 -312.45 160.3 -312.25 159.1 -312.45 158.8 -312.15 158.35 -312.0 Q151.5 -311.25 143.6 -307.45 135.7 -303.7 133.9 -300.2 L133.85 -300.1 133.4 -299.3 133.35 -299.25 133.1 -298.55 132.85 -296.3 Q132.15 -292.75 131.75 -291.95 L129.75 -287.2 Q128.25 -284.0 126.5 -283.95 121.5 -279.15 118.65 -272.65 115.9 -266.5 115.9 -260.8 L116.3 -257.5 116.65 -254.4 117.45 -251.6 119.55 -248.05 Q121.75 -244.05 121.65 -243.4 L121.65 -243.3 121.6 -242.75 121.4 -242.15 120.95 -241.8 120.85 -241.25 Q120.85 -239.95 121.45 -238.5 L121.65 -238.2 121.85 -237.8 121.85 -237.85 123.9 -234.9 123.85 -234.95 126.9 -231.35 127.05 -231.25 Q132.6 -226.7 132.9 -223.1 L132.9 -223.05 133.3 -221.15 133.65 -219.0 134.15 -215.45 134.5 -211.9 134.75 -207.8 Q134.75 -203.55 134.0 -200.1 L133.5 -196.35 Q133.1 -193.8 131.95 -192.45 L131.0 -190.85 130.95 -190.8 127.25 -185.7 Q126.05 -183.95 124.4 -180.65 L121.65 -175.4 121.6 -175.4 Q120.6 -173.65 117.45 -170.1 114.25 -166.55 113.25 -165.0 110.5 -160.95 106.6 -157.1 104.6 -154.2 101.15 -151.45 95.2 -146.8 87.7 -145.25 L87.5 -145.25 83.9 -145.25 80.0 -145.55 80.25 -145.4 79.45 -145.45 78.5 -145.65 73.75 -145.7 68.35 -146.1 68.7 -145.9 Q67.1 -145.85 65.9 -146.8 L65.95 -146.8 65.45 -147.3 63.6 -148.45 60.35 -150.6 58.25 -150.15 57.1 -148.95 56.9 -148.7 Q55.75 -147.55 54.8 -147.1 L49.3 -144.85 Q47.4 -144.05 44.75 -142.1 L40.95 -139.0 Q37.25 -134.4 34.95 -132.2 30.8 -128.3 25.3 -126.75 L25.2 -126.75 23.35 -126.1 20.75 -125.75 16.7 -126.05 16.75 -126.0 Q14.2 -126.65 12.0 -127.8 10.05 -128.8 9.4 -129.65 L8.8 -129.7 7.2 -130.0 Q2.65 -131.5 0.1 -134.25 L-1.65 -136.3 Q-3.5 -137.7 -5.45 -139.95 L-10.15 -145.3 Q-14.0 -148.9 -15.95 -150.1 -19.3 -152.05 -25.5 -153.5 L-26.0 -153.8 -26.1 -153.9 Q-29.2 -155.1 -30.8 -157.95 -32.15 -160.3 -32.15 -162.85 -32.15 -167.4 -30.6 -172.3 L-30.6 -172.25 Q-29.7 -175.75 -28.1 -177.2 -25.5 -179.8 -24.3 -180.55 -22.05 -182.1 -20.05 -181.6 L-19.75 -181.65 Q-16.1 -181.7 -14.9 -179.6 -14.25 -178.55 -13.35 -178.5 -10.6 -178.5 -9.5 -179.1 L-9.65 -180.1 -10.15 -180.25 Q-10.5 -180.3 -10.75 -180.55 L-11.6 -182.0 -12.2 -182.9 -13.15 -182.95 -13.75 -182.75 -16.3 -182.8 -16.85 -182.95 -17.0 -183.05 -16.9 -183.0 -17.15 -183.05 Q-17.55 -183.1 -17.75 -183.35 L-18.05 -184.0 Q-18.15 -184.55 -18.9 -185.1 L-21.3 -187.1 -21.3 -187.15 Q-22.85 -188.95 -23.05 -189.7 L-23.05 -189.75 -23.15 -191.7 Q-23.15 -195.85 -21.3 -199.9 -19.7 -203.5 -19.65 -204.75 L-20.1 -205.05 -20.4 -205.75 Q-20.4 -206.95 -18.6 -213.3 L-18.55 -213.4 Q-17.65 -215.65 -15.95 -217.4 L-15.95 -217.45 -14.85 -219.05 -13.4 -221.0 -13.35 -221.0 -5.7 -227.7 -5.6 -227.8 Q-0.35 -231.6 8.35 -233.15 L9.1 -233.3 9.65 -233.3 11.5 -233.15 13.9 -232.85 14.35 -233.0 14.5 -233.0 15.2 -232.7 15.4 -232.45 15.65 -232.25 15.85 -231.65 15.8 -231.3 16.4 -231.05 16.75 -231.0 Q20.75 -231.1 24.65 -236.95 27.85 -241.85 28.0 -244.25 L27.9 -244.35 Q27.65 -244.55 27.65 -244.85 L27.45 -246.65 27.1 -247.7 26.85 -247.85 26.35 -248.3 26.3 -248.95 Q26.45 -249.9 27.45 -252.2 28.05 -253.9 27.8 -254.95 L27.75 -255.1 Q27.45 -256.9 28.9 -259.0 30.25 -261.05 32.75 -262.5 L33.2 -262.65 33.65 -262.55 Q34.5 -262.2 34.6 -262.05 L34.65 -262.15 Q34.5 -262.15 34.5 -262.4 L33.8 -268.3 33.75 -268.45 Q33.75 -272.5 37.15 -275.1 L45.35 -281.0 51.55 -287.4 Q55.5 -291.5 58.7 -292.6 L59.3 -292.6 59.55 -292.5 61.0 -292.45 61.4 -292.25 Q64.35 -289.7 65.3 -285.7 L65.3 -285.6 66.15 -279.65 66.65 -273.8 67.0 -267.75 67.0 -266.65 67.0 -266.3 67.0 -266.25 66.95 -265.95 Q66.85 -265.25 66.15 -263.9 L65.7 -263.5 65.4 -263.4 65.05 -263.05 Q64.85 -262.85 64.55 -262.8 L63.95 -262.85 63.5 -263.25 62.45 -264.9 62.05 -264.9 Q56.85 -264.25 53.45 -257.2 50.65 -251.5 50.65 -246.75 50.65 -245.3 51.15 -244.2 L51.1 -244.2 Q51.8 -242.7 53.5 -242.9 L53.9 -242.85 54.3 -242.65 54.5 -242.45 Q55.5 -242.2 56.15 -240.7 L56.2 -240.65 56.65 -238.5 Q56.65 -233.65 54.75 -230.2 53.05 -227.15 47.7 -221.85 47.45 -221.6 47.05 -221.55 L46.4 -221.75 45.15 -222.75 43.7 -222.75 Q40.25 -220.3 38.7 -217.05 37.5 -214.6 37.9 -212.5 L38.25 -211.95 39.2 -208.2 39.2 -208.15 39.35 -205.5 Q39.35 -204.05 39.85 -202.4 40.45 -200.5 41.35 -199.45 L41.4 -199.35 Q41.95 -198.6 42.45 -198.2 L42.5 -198.2 Q43.25 -197.55 44.95 -197.2 L45.0 -197.2 Q46.75 -196.8 47.8 -196.0 L47.75 -196.0 48.6 -195.15 48.65 -195.15 48.7 -195.2 Q49.85 -195.8 51.15 -196.0 L55.0 -196.4 58.7 -197.2 Q59.75 -197.6 60.75 -198.5 L60.8 -198.5 62.3 -200.35 62.35 -200.4 64.25 -203.85 64.25 -203.9 66.1 -207.9 69.95 -215.9 Q71.5 -219.6 71.5 -222.8 71.5 -224.25 71.0 -226.0 70.5 -227.75 69.75 -228.5 L68.95 -228.5 68.65 -228.15 68.0 -227.9 67.85 -227.9 67.75 -227.9 67.6 -227.9 Q67.2 -227.9 66.9 -228.2 66.6 -228.5 66.6 -228.9 66.55 -229.3 66.85 -229.75 L66.5 -235.0 66.5 -235.1 Q66.4 -242.7 76.15 -249.0 L76.15 -248.95 Q78.65 -250.6 83.45 -253.1 87.35 -255.1 88.4 -255.9 L88.85 -256.15 89.4 -256.05 89.8 -255.75 Q90.15 -255.45 90.15 -254.05 L90.6 -253.65 Q91.05 -253.3 91.4 -253.25 95.95 -253.25 99.2 -257.0 L100.6 -259.45 101.7 -261.15 102.55 -263.8 103.8 -269.8 Q104.55 -273.9 104.5 -275.75 L104.6 -282.0 Q104.6 -283.6 103.6 -285.3 L103.6 -285.25 Q102.45 -287.15 100.6 -288.0 L100.15 -288.05 99.65 -287.6 99.0 -287.6 Q98.65 -287.7 98.45 -287.95 98.05 -288.5 97.95 -289.45 L98.05 -290.55 98.1 -291.9 Q98.1 -294.0 97.2 -296.05 L97.2 -296.0 Q96.05 -298.5 96.1 -299.5 96.1 -300.35 96.75 -301.9 L96.75 -301.95 97.75 -304.2 97.75 -304.15 Q98.3 -305.7 100.15 -306.95 L100.2 -307.0 102.55 -308.3 102.55 -308.25 107.1 -311.55 Q110.25 -314.2 111.75 -315.1 L112.4 -315.2 114.6 -316.45 Q116.8 -317.7 118.4 -318.85 121.95 -321.45 125.5 -323.5 L129.65 -326.4 130.35 -326.6 130.7 -326.5 133.15 -327.85 Q137.95 -330.45 139.2 -330.9 142.3 -332.2 144.95 -331.8 L145.25 -332.05 145.2 -332.0 Q145.9 -332.7 146.25 -332.7 L146.9 -332.65 146.95 -332.65 152.6 -332.75 154.15 -332.9 155.45 -332.95 155.9 -333.15 159.25 -333.5 160.25 -333.8 160.2 -333.8 161.85 -334.35 162.05 -334.4 165.15 -334.7 165.55 -334.8 169.3 -334.5 169.65 -334.35 169.85 -334.25 Q174.65 -334.6 177.5 -339.7 179.75 -343.85 179.75 -347.8 L180.35 -354.1 179.65 -356.4 Q179.05 -358.05 179.1 -358.6 L179.35 -359.65 179.35 -359.7 Q179.2 -363.1 176.45 -368.55 175.0 -371.55 172.5 -373.15 L170.5 -374.65 170.45 -374.7 169.6 -375.5 169.6 -375.55 168.35 -376.8 168.3 -376.85 167.6 -377.45 166.95 -377.65 166.85 -377.75 166.35 -378.0 166.0 -377.9 164.85 -377.95 164.55 -377.8 Q161.8 -377.05 160.0 -376.0 L160.05 -376.05 157.0 -374.15 156.6 -374.05 156.5 -374.1 156.2 -373.9 155.6 -373.8 154.95 -373.9 154.3 -374.3 Q154.05 -374.6 154.1 -375.0 154.15 -375.4 154.5 -375.65 L155.75 -376.85 155.7 -376.75 Q158.65 -380.95 164.15 -386.5 L164.6 -386.75 Q166.6 -387.25 167.95 -388.2 L167.9 -388.2 170.6 -390.15 170.65 -390.15 174.75 -390.05 Q177.05 -388.55 180.1 -388.25 L180.65 -388.0 Q181.7 -387.15 182.05 -385.1 L182.05 -385.05 182.45 -383.05 182.45 -383.1 M159.75 -332.55 L161.0 -332.8 162.1 -333.0 159.75 -332.55" fill="#b6ffff" fill-opacity="0.9019608" fill-rule="evenodd" stroke="none"/>
    <path d="M183.35 -378.05 L183.3 -377.35 183.6 -374.2 Q183.8 -372.2 184.25 -370.5 184.95 -368.0 186.0 -366.25 L186.2 -365.8 Q186.85 -365.6 187.1 -364.8 L187.4 -363.55 187.4 -358.5 Q186.45 -358.65 185.55 -355.8 185.25 -353.65 185.25 -352.4 L185.2 -351.95 185.0 -351.9 185.0 -345.75 Q183.65 -343.75 183.0 -341.0 182.25 -338.0 182.25 -333.6 L182.2 -332.35 Q182.15 -331.4 182.25 -331.0 L182.15 -329.55 Q182.15 -326.0 183.9 -322.7 L185.65 -319.8 Q185.65 -316.45 181.35 -313.05 176.95 -309.6 170.25 -307.8 169.65 -308.55 169.1 -310.5 168.45 -311.9 167.0 -312.65 L166.9 -312.65 165.8 -312.9 Q164.75 -313.2 164.5 -313.5 L160.25 -313.25 158.25 -313.0 Q151.25 -312.25 143.15 -308.35 134.85 -304.4 133.0 -300.65 L132.5 -299.8 Q132.1 -299.15 132.1 -298.55 L131.85 -296.5 130.85 -292.4 128.85 -287.65 Q127.55 -284.85 126.15 -285.0 120.75 -279.95 117.7 -273.05 114.9 -266.7 114.9 -260.8 L115.3 -257.35 115.65 -254.25 116.5 -251.25 116.55 -251.15 118.65 -247.6 Q120.65 -243.95 120.65 -243.4 L120.6 -242.75 Q120.45 -242.7 120.4 -242.85 L120.35 -243.0 Q119.85 -242.1 119.85 -241.25 119.85 -239.7 120.6 -237.9 L120.7 -237.75 120.75 -237.75 121.0 -237.3 123.05 -234.35 126.25 -230.6 126.4 -230.5 Q131.55 -226.25 131.9 -223.0 L132.3 -220.9 132.65 -219.0 Q132.7 -217.5 133.15 -215.25 L133.5 -211.85 133.75 -207.8 Q133.75 -203.6 133.0 -200.25 L132.5 -196.5 Q132.15 -194.2 131.1 -193.0 L130.15 -191.4 126.4 -186.25 123.5 -181.1 120.75 -175.9 Q119.75 -174.2 116.7 -170.8 L112.4 -165.55 Q109.7 -161.55 105.85 -157.75 103.9 -154.9 100.5 -152.25 94.75 -147.75 87.5 -146.25 L83.9 -146.25 80.25 -146.4 79.55 -146.45 78.75 -146.65 73.75 -146.7 68.65 -146.9 Q67.45 -146.85 66.55 -147.6 L66.05 -148.15 Q65.2 -148.45 64.2 -149.25 61.9 -151.0 60.5 -151.65 L57.65 -151.05 56.2 -149.4 54.4 -148.05 48.9 -145.8 Q46.95 -144.95 44.15 -142.95 L40.15 -139.65 Q36.55 -135.1 34.25 -132.95 30.3 -129.2 25.0 -127.75 L24.9 -127.75 Q24.2 -127.35 23.1 -127.1 L20.75 -126.75 17.0 -127.0 Q14.55 -127.6 12.45 -128.7 10.25 -129.85 10.0 -130.65 L8.9 -130.7 7.75 -130.9 Q3.3 -132.3 0.8 -134.95 L-0.95 -137.0 Q-2.8 -138.35 -4.7 -140.6 L-9.5 -146.05 Q-13.4 -149.7 -15.45 -150.95 -18.9 -153.0 -25.3 -154.5 L-25.6 -154.8 Q-28.5 -155.85 -29.95 -158.45 -31.15 -160.55 -31.15 -162.85 -31.15 -167.25 -29.65 -172.0 -28.8 -175.15 -27.4 -176.5 L-23.75 -179.75 Q-21.7 -181.15 -19.9 -180.5 L-19.75 -180.65 Q-16.75 -180.7 -15.75 -179.1 -14.75 -177.5 -13.35 -177.5 -10.05 -177.5 -8.85 -178.35 L-8.25 -179.0 -8.4 -179.0 -8.7 -180.35 Q-8.9 -181.1 -10.05 -181.25 L-10.7 -182.45 Q-11.15 -183.4 -11.9 -183.9 L-13.75 -183.75 -16.3 -183.8 -16.45 -183.9 -17.05 -184.05 Q-17.1 -185.0 -18.3 -185.9 L-20.55 -187.8 Q-21.9 -189.35 -22.1 -190.0 L-22.15 -191.7 Q-22.15 -195.65 -20.4 -199.5 -18.65 -203.4 -18.65 -204.75 L-19.4 -205.75 Q-19.4 -206.9 -17.65 -213.05 -16.8 -215.1 -15.25 -216.75 L-14.0 -218.55 -12.75 -220.25 Q-10.05 -222.4 -5.05 -227.0 0.2 -230.75 9.0 -232.25 L11.4 -232.15 14.3 -231.75 14.35 -232.0 14.5 -232.0 14.55 -231.7 14.85 -231.65 14.75 -231.5 14.55 -231.5 14.55 -231.25 Q14.6 -230.75 15.15 -230.5 L15.95 -230.15 16.75 -230.0 Q21.2 -230.0 25.45 -236.4 29.0 -241.8 29.0 -244.4 L28.9 -245.4 28.85 -245.15 28.6 -245.05 28.45 -246.85 27.95 -248.2 27.25 -248.75 Q27.45 -249.65 28.4 -251.85 29.15 -253.9 28.75 -255.25 28.55 -256.7 29.7 -258.45 30.95 -260.3 33.25 -261.65 L35.35 -261.45 35.5 -262.4 34.75 -268.45 Q34.75 -272.0 37.75 -274.3 L46.0 -280.25 52.25 -286.7 Q56.0 -290.6 59.0 -291.65 L59.45 -291.45 60.75 -291.5 Q63.45 -289.15 64.3 -285.5 L65.15 -279.5 65.65 -273.75 66.0 -267.75 66.0 -266.5 66.0 -266.35 65.95 -266.15 65.25 -264.4 65.05 -264.4 65.05 -264.5 64.35 -263.8 63.0 -265.9 61.9 -265.9 Q56.2 -265.25 52.55 -257.65 49.65 -251.7 49.65 -246.75 49.65 -245.1 50.2 -243.8 51.2 -241.6 53.6 -241.9 L54.0 -241.5 Q54.75 -241.4 55.25 -240.3 55.65 -239.3 55.65 -238.5 55.65 -233.95 53.85 -230.7 52.2 -227.7 47.0 -222.55 L45.5 -223.75 43.35 -223.75 Q39.5 -221.1 37.8 -217.5 36.25 -214.35 37.1 -211.7 L37.1 -211.75 37.25 -211.75 38.2 -207.95 38.35 -205.5 Q38.35 -203.9 38.9 -202.1 39.55 -199.95 40.6 -198.8 L41.8 -197.45 Q42.7 -196.65 44.75 -196.25 46.25 -195.9 47.15 -195.2 L48.35 -193.85 49.1 -194.3 Q50.15 -194.85 51.25 -195.0 L55.1 -195.4 Q57.2 -195.65 59.0 -196.25 60.3 -196.7 61.45 -197.8 L63.1 -199.8 Q64.0 -200.95 65.15 -203.45 L67.0 -207.5 70.85 -215.45 Q72.5 -219.4 72.5 -222.8 72.5 -224.35 71.95 -226.3 71.25 -228.7 70.1 -229.5 L68.35 -229.5 68.05 -229.15 68.0 -228.9 67.85 -228.9 67.85 -229.0 67.75 -228.9 67.6 -228.9 67.85 -229.45 67.5 -235.1 Q67.5 -242.2 76.7 -248.15 79.15 -249.75 83.9 -252.2 87.95 -254.3 89.0 -255.15 L89.15 -254.05 Q89.15 -253.45 90.0 -252.85 90.8 -252.25 91.4 -252.25 96.4 -252.25 100.0 -256.4 L101.5 -259.0 102.55 -260.6 103.5 -263.5 104.75 -269.65 Q105.55 -273.85 105.5 -275.8 L105.6 -282.0 Q105.6 -283.85 104.45 -285.8 103.1 -288.05 100.85 -289.0 99.5 -289.0 99.25 -288.55 L98.95 -289.55 Q98.9 -290.05 99.0 -290.3 L99.1 -291.9 Q99.1 -294.2 98.1 -296.45 97.1 -298.65 97.1 -299.5 97.1 -300.2 97.65 -301.55 L98.65 -303.8 Q99.15 -305.1 100.7 -306.15 L103.0 -307.4 Q104.95 -308.45 107.75 -310.8 L112.25 -314.25 111.4 -313.4 Q112.65 -314.35 115.05 -315.6 L119.0 -318.05 Q122.5 -320.6 126.0 -322.65 127.6 -323.6 130.25 -325.6 L130.35 -325.25 129.7 -324.75 133.6 -327.0 139.55 -330.0 Q142.65 -331.25 145.25 -330.75 L145.9 -331.3 146.5 -331.75 146.5 -331.65 152.6 -331.75 154.25 -331.9 156.0 -332.15 159.4 -332.5 160.5 -332.85 162.2 -333.4 165.5 -333.75 165.5 -333.8 169.15 -333.5 169.5 -333.25 Q175.15 -333.4 178.35 -339.25 180.75 -343.6 180.75 -347.8 L181.35 -354.1 180.6 -356.75 Q180.1 -358.15 180.1 -358.6 L180.25 -359.25 180.35 -359.75 Q180.25 -363.25 177.35 -369.0 175.75 -372.25 173.0 -374.0 171.4 -375.0 171.35 -375.15 L170.25 -376.3 169.05 -377.55 167.95 -378.4 167.35 -378.6 166.6 -379.0 164.25 -378.8 Q161.4 -378.0 159.5 -376.9 L156.5 -375.05 155.75 -374.8 155.1 -374.9 156.5 -376.15 Q159.45 -380.3 164.85 -385.8 167.05 -386.35 168.5 -387.4 L171.1 -389.3 174.2 -389.2 Q176.7 -387.6 180.0 -387.25 180.8 -386.55 181.05 -384.95 181.3 -383.05 181.6 -382.55 L183.2 -379.95 183.35 -378.05 M159.75 -332.55 L162.1 -333.0 161.0 -332.8 159.75 -332.55" fill="#00ffff" fill-opacity="0.6" fill-rule="evenodd" stroke="none"/>
  </g>
</svg>
