<?xml version="1.0" encoding="UTF-8" standalone="no"?>
<svg xmlns:ffdec="https://www.free-decompiler.com/flash" xmlns:xlink="http://www.w3.org/1999/xlink" ffdec:objectType="shape" height="80.65px" width="456.0px" xmlns="http://www.w3.org/2000/svg">
  <g transform="matrix(1.0, 0.0, 0.0, 1.0, 231.95, 211.2)">
    <path d="M220.5 -211.2 L220.7 -211.15 Q221.4 -210.95 221.4 -210.0 L221.4 -209.95 221.4 -209.35 221.95 -209.5 222.2 -209.7 222.5 -209.7 222.75 -209.55 Q224.1 -207.75 224.05 -207.35 224.15 -206.5 222.2 -204.8 L219.85 -203.15 219.65 -203.1 219.45 -203.1 218.2 -203.15 218.25 -203.15 Q217.8 -203.05 217.65 -202.8 L217.45 -202.65 217.2 -202.65 216.5 -202.75 Q216.3 -202.75 216.15 -202.9 L216.05 -203.3 216.2 -203.6 217.95 -204.9 218.9 -204.7 219.5 -205.25 220.4 -206.1 220.4 -206.15 221.85 -207.2 221.8 -207.65 221.5 -207.65 221.4 -207.65 220.25 -207.75 220.0 -207.85 219.85 -208.05 219.65 -209.5 Q219.65 -210.4 219.8 -210.65 L219.8 -210.7 220.3 -211.15 220.5 -211.2 M125.95 -135.95 Q126.35 -136.1 126.55 -135.55 L126.65 -134.65 Q126.7 -133.95 125.75 -132.45 L125.7 -132.45 Q124.65 -130.95 123.65 -130.55 L123.4 -130.55 122.25 -130.65 Q122.05 -130.65 121.95 -130.8 121.8 -130.9 121.8 -131.1 L121.7 -132.15 121.75 -132.4 121.95 -132.6 122.2 -132.7 122.85 -132.6 125.5 -135.6 Q125.7 -136.0 125.95 -135.95 M9.9 -182.25 L9.9 -182.4 Q10.05 -182.9 10.4 -182.75 10.6 -182.85 10.8 -182.6 L11.05 -182.55 Q11.7 -182.2 12.35 -181.05 L12.35 -181.0 Q12.6 -180.55 12.95 -180.5 13.45 -180.6 14.2 -181.65 L14.4 -181.8 14.6 -181.85 Q16.85 -181.85 16.95 -181.05 L16.95 -180.75 16.75 -180.55 16.45 -180.45 15.1 -179.7 Q13.7 -178.85 13.0 -178.8 L12.9 -178.8 11.75 -178.9 11.55 -178.95 11.35 -179.15 10.5 -180.15 10.45 -180.2 Q9.8 -181.05 9.85 -181.5 L9.9 -182.25 M-201.75 -182.8 L-201.6 -182.45 -201.85 -181.45 -201.9 -181.4 Q-202.15 -180.8 -202.5 -180.55 L-202.65 -180.45 -202.9 -180.45 -203.35 -180.55 -203.4 -180.55 Q-204.1 -180.8 -204.35 -181.2 L-204.4 -181.25 -204.6 -181.65 -204.65 -181.95 -204.55 -182.2 -204.3 -182.35 -202.1 -182.95 -201.75 -182.8 M-200.15 -178.45 Q-199.8 -177.9 -199.8 -176.6 L-199.85 -176.3 -200.05 -176.15 -200.35 -176.0 -200.65 -175.95 -202.0 -176.1 -202.3 -176.25 -202.45 -176.6 -202.85 -177.5 -203.0 -177.85 -202.85 -178.15 -202.3 -178.8 -202.15 -178.95 -201.95 -179.0 -201.1 -178.55 -200.85 -178.6 -200.6 -178.7 -200.35 -178.65 -200.15 -178.45 M-212.85 -175.65 Q-210.75 -177.7 -207.9 -179.45 L-207.6 -179.55 -207.35 -179.45 -206.55 -178.45 -206.5 -178.35 -206.25 -178.1 -206.25 -177.8 -206.45 -177.55 -206.75 -177.45 -207.55 -177.45 Q-209.6 -177.4 -212.0 -174.05 -214.1 -171.2 -214.55 -169.25 L-214.7 -169.0 -214.55 -168.9 -214.4 -168.6 Q-214.35 -168.1 -214.65 -167.35 L-214.95 -166.1 -214.65 -164.95 -213.75 -163.8 -213.7 -163.5 -213.85 -163.2 -214.15 -162.9 -214.4 -162.75 -214.65 -162.75 -214.9 -162.95 -216.85 -165.55 -216.95 -165.85 Q-216.95 -166.8 -216.25 -167.8 L-215.8 -168.55 -215.65 -168.9 -215.4 -169.05 -215.75 -169.7 -215.8 -170.9 Q-215.85 -172.8 -212.85 -175.65 M-205.45 -180.65 L-205.25 -180.85 -204.95 -180.9 -203.7 -180.65 -203.4 -180.45 -203.3 -180.15 -203.4 -179.85 -203.95 -179.1 -204.1 -178.95 -204.35 -178.9 Q-204.75 -178.85 -205.6 -179.7 L-205.75 -180.05 -205.55 -180.5 -205.45 -180.65 M-225.45 -155.3 L-224.85 -155.15 -224.6 -155.0 Q-224.0 -154.45 -223.9 -153.85 L-223.9 -153.6 -224.05 -153.4 -224.7 -152.75 -224.9 -152.6 -225.1 -152.6 -225.65 -152.55 -225.8 -152.55 Q-226.4 -152.45 -226.4 -153.9 -226.4 -155.35 -225.75 -155.35 L-225.45 -155.3 M-228.4 -151.6 L-228.3 -151.35 -225.6 -151.2 -225.3 -151.2 -225.1 -151.0 -225.0 -150.75 -225.05 -150.35 -225.1 -150.25 -225.7 -149.5 Q-225.85 -149.4 -226.05 -149.4 L-227.85 -149.7 -229.25 -149.95 -229.3 -149.95 -229.35 -149.95 -229.9 -149.35 -230.05 -149.05 -228.0 -148.55 Q-225.55 -148.0 -224.5 -147.1 L-223.45 -147.2 -222.55 -147.9 -222.25 -148.0 Q-219.15 -147.95 -217.45 -148.75 L-215.6 -149.65 -216.3 -150.45 -216.4 -150.8 -216.25 -151.1 -215.9 -151.25 Q-215.1 -151.25 -214.25 -150.85 -213.25 -150.45 -213.15 -149.95 L-213.15 -149.65 -214.1 -148.25 -214.45 -148.1 -218.45 -147.15 Q-221.7 -146.25 -223.15 -145.4 L-223.45 -145.35 Q-228.5 -145.85 -228.15 -146.9 L-230.95 -147.2 -231.15 -147.25 -231.25 -147.35 -231.45 -147.4 Q-231.95 -147.5 -231.95 -148.75 -231.95 -149.95 -230.8 -150.85 L-228.95 -151.75 -228.65 -151.75 -228.4 -151.6 M-215.45 -161.75 L-215.15 -161.65 -215.0 -161.45 -214.8 -159.7 Q-214.8 -158.1 -216.4 -157.1 -217.15 -156.7 -218.35 -156.2 L-219.85 -154.9 -219.95 -154.8 Q-219.8 -154.3 -219.8 -153.65 -219.8 -152.8 -220.25 -151.4 L-220.9 -149.5 -221.05 -149.3 -221.35 -149.0 -221.6 -148.85 -221.85 -148.85 -222.1 -149.05 Q-222.45 -149.5 -222.4 -149.7 L-222.45 -150.9 -221.7 -153.4 -220.9 -155.05 -220.7 -155.2 -220.65 -155.5 -219.6 -157.05 -219.55 -157.05 -217.05 -159.2 Q-216.2 -159.95 -216.4 -161.15 L-216.35 -161.45 -216.15 -161.65 -215.9 -161.75 -215.45 -161.75 M-218.5 -151.7 Q-217.55 -152.4 -217.15 -152.35 L-216.8 -152.2 -216.65 -151.85 Q-216.6 -151.0 -218.1 -149.8 L-218.3 -149.7 -218.55 -149.7 -219.35 -149.95 -219.6 -150.15 -219.7 -150.4 -219.6 -150.7 -218.5 -151.7" fill="#00ffff" fill-opacity="0.5019608" fill-rule="evenodd" stroke="none"/>
    <path d="M-200.3 -176.6 L-200.6 -176.45 -201.95 -176.6 Q-201.95 -177.25 -202.5 -177.85 L-201.95 -178.5 -201.4 -178.15 -200.6 -178.2 Q-200.3 -177.7 -200.3 -176.6 M-202.35 -181.65 L-202.8 -180.95 -203.25 -181.05 Q-203.75 -181.2 -203.95 -181.5 L-204.15 -181.9 -202.1 -182.45 -202.35 -181.65 M-205.05 -180.4 L-203.8 -180.15 -204.35 -179.4 Q-204.6 -179.4 -205.25 -180.05 L-205.15 -180.15 -205.05 -180.4 M-207.65 -179.05 L-207.0 -178.25 -206.75 -177.95 -207.55 -177.95 Q-209.8 -177.95 -212.4 -174.35 -214.55 -171.4 -215.05 -169.4 L-215.25 -169.7 -215.3 -170.9 Q-215.3 -172.65 -212.5 -175.3 -210.45 -177.3 -207.65 -179.05 M-228.9 -150.9 L-225.5 -150.75 -225.55 -150.5 -226.05 -149.9 Q-227.55 -149.9 -227.55 -150.2 L-229.2 -150.45 -228.9 -150.9 M-229.7 -150.3 L-230.35 -149.65 -230.75 -148.8 -228.1 -148.05 Q-225.6 -147.5 -224.7 -146.6 L-223.3 -146.7 -222.25 -147.5 Q-219.0 -147.45 -217.25 -148.3 L-214.75 -149.5 -215.9 -150.75 -214.45 -150.4 -213.65 -149.8 -214.5 -148.6 -218.6 -147.65 Q-221.9 -146.7 -223.4 -145.85 -227.85 -146.3 -227.7 -146.75 -227.55 -147.25 -230.9 -147.7 L-231.25 -147.85 Q-231.45 -147.95 -231.45 -148.75 -231.45 -149.7 -230.5 -150.45 L-228.8 -151.3 -229.7 -150.3 M-224.4 -153.75 L-225.05 -153.1 -225.8 -153.05 -225.9 -153.9 Q-225.9 -154.8 -225.65 -154.85 L-224.95 -154.65 Q-224.5 -154.2 -224.4 -153.75 M-215.1 -167.55 L-215.45 -166.1 Q-215.45 -165.2 -215.05 -164.6 L-214.2 -163.55 -214.5 -163.25 -216.45 -165.85 Q-216.45 -166.65 -215.85 -167.55 L-215.3 -168.55 -214.9 -168.55 Q-214.85 -168.15 -215.1 -167.55 M-215.45 -161.25 Q-215.3 -160.9 -215.3 -159.7 -215.3 -158.35 -216.65 -157.55 L-218.65 -156.6 -220.2 -155.25 -219.2 -156.75 -216.75 -158.85 Q-215.65 -159.75 -215.9 -161.25 L-215.45 -161.25 M-221.95 -150.9 L-221.25 -153.2 -220.45 -154.8 Q-220.3 -154.3 -220.3 -153.65 -220.3 -152.85 -220.75 -151.6 L-221.4 -149.65 -221.7 -149.35 -221.9 -149.7 -221.95 -150.9 M-219.2 -150.45 L-218.25 -151.3 -217.15 -151.85 Q-217.15 -151.2 -218.4 -150.2 L-219.2 -150.45" fill="#ffffff" fill-rule="evenodd" stroke="none"/>
    <path d="M220.5 -210.7 Q220.9 -210.55 220.9 -210.0 L220.85 -208.85 Q222.1 -208.85 222.35 -209.25 L223.55 -207.35 Q223.55 -206.65 221.85 -205.2 L219.6 -203.6 218.05 -203.65 217.25 -203.15 216.55 -203.25 217.95 -204.4 218.9 -204.2 Q219.1 -204.2 219.85 -204.9 L220.75 -205.8 222.6 -207.1 Q222.1 -207.5 222.5 -208.15 L221.45 -208.15 220.3 -208.25 Q220.15 -208.6 220.15 -209.5 L220.25 -210.5 220.5 -210.7 M126.15 -134.65 Q126.15 -134.05 125.3 -132.75 124.35 -131.4 123.45 -131.05 L122.3 -131.15 122.2 -132.2 122.9 -132.0 125.9 -135.35 Q126.15 -135.75 126.15 -134.65 M10.8 -182.1 Q11.35 -181.8 11.9 -180.8 12.3 -180.0 12.95 -180.0 13.65 -180.0 14.6 -181.35 16.35 -181.35 16.45 -180.95 16.0 -180.95 14.8 -180.15 13.55 -179.35 12.95 -179.3 L11.8 -179.4 10.85 -180.5 Q10.35 -181.15 10.35 -181.5 L10.4 -182.1 10.8 -182.1" fill="#ffffff" fill-opacity="0.9019608" fill-rule="evenodd" stroke="none"/>
  </g>
</svg>
