<?xml version="1.0" encoding="UTF-8" standalone="no"?>
<svg xmlns:ffdec="https://www.free-decompiler.com/flash" xmlns:xlink="http://www.w3.org/1999/xlink" ffdec:objectType="shape" height="150.4px" width="348.5px" xmlns="http://www.w3.org/2000/svg">
  <g transform="matrix(1.0, 0.0, 0.0, 1.0, 303.15, 227.95)">
    <path d="M39.9 -114.95 L38.9 -116.05 38.75 -116.4 38.9 -116.75 Q39.25 -117.3 40.0 -116.55 40.25 -116.35 40.65 -116.3 L41.8 -117.4 Q43.7 -119.25 44.1 -119.15 L44.45 -119.0 45.2 -118.25 45.35 -118.0 45.35 -117.75 Q45.0 -116.6 43.65 -115.9 L41.9 -114.8 41.85 -114.8 41.7 -114.65 41.45 -114.65 40.2 -114.8 39.9 -114.95 M14.65 -79.65 Q14.85 -80.25 15.4 -80.1 L15.45 -80.05 16.0 -79.85 16.05 -79.8 Q16.9 -79.2 16.85 -78.4 L16.85 -78.2 16.2 -77.55 16.05 -77.55 15.1 -77.55 Q14.5 -77.55 14.5 -78.9 14.5 -79.4 14.65 -79.65 M-81.65 -224.3 Q-80.7 -225.9 -80.65 -227.15 L-80.5 -227.5 -80.2 -227.65 -77.4 -227.9 -75.3 -227.75 -75.1 -227.55 -75.05 -227.3 -75.05 -226.9 -75.1 -226.65 Q-75.25 -226.35 -75.6 -226.35 L-76.0 -226.45 -76.8 -226.55 -78.0 -226.2 -78.0 -226.15 -79.0 -225.95 Q-78.9 -224.95 -79.65 -223.95 L-81.35 -221.45 -81.55 -221.2 -81.85 -221.15 -82.3 -221.2 -82.35 -221.2 Q-83.15 -221.4 -83.25 -221.85 L-83.3 -222.15 -83.15 -222.4 -81.65 -224.3 M-262.65 -224.6 Q-262.65 -225.75 -261.95 -226.25 -261.35 -226.8 -260.15 -226.7 L-257.35 -225.85 -257.1 -225.65 -257.05 -225.4 -257.1 -225.15 Q-257.25 -224.65 -258.25 -224.75 L-258.3 -224.75 -259.55 -225.05 -260.2 -225.1 -260.2 -224.3 -260.05 -223.4 Q-260.05 -222.25 -260.55 -222.05 L-260.6 -222.05 -260.7 -222.05 -260.75 -222.0 -261.0 -221.8 -261.5 -221.65 -261.8 -221.65 -262.0 -221.8 -262.15 -222.05 -262.4 -223.0 -262.4 -223.05 -262.65 -224.6 M-302.05 -187.75 L-301.7 -187.75 -301.45 -187.55 -300.6 -185.75 Q-300.2 -184.3 -300.85 -183.45 -298.35 -181.85 -297.0 -181.8 L-296.7 -181.65 -296.55 -181.3 -296.55 -180.65 -296.7 -180.3 Q-296.85 -180.15 -297.05 -180.15 L-297.55 -179.7 -297.75 -179.55 -298.0 -179.55 Q-299.15 -179.8 -301.1 -181.25 -303.25 -182.85 -303.15 -183.65 -303.15 -186.05 -302.35 -187.5 L-302.05 -187.75 M-37.6 -174.75 L-37.65 -174.7 -40.0 -173.9 -42.15 -169.7 -41.9 -169.2 Q-41.05 -168.7 -41.15 -168.4 L-41.15 -167.1 Q-41.15 -166.35 -41.8 -163.9 L-42.05 -163.6 -42.4 -163.5 -42.7 -163.7 -42.8 -164.1 Q-42.65 -165.2 -42.65 -167.35 -42.65 -167.8 -43.0 -168.25 L-43.05 -168.3 Q-43.65 -169.05 -43.65 -169.85 -43.65 -172.05 -41.7 -174.25 -39.8 -176.4 -37.5 -176.85 -37.0 -178.15 -36.3 -178.05 L-35.95 -177.9 -35.8 -177.6 Q-35.6 -175.6 -37.6 -174.75 M-43.1 -162.4 L-42.7 -162.45 -42.45 -162.2 -42.4 -161.8 -43.45 -158.9 -43.7 -158.7 -44.0 -158.65 -44.75 -158.8 -44.8 -158.8 -47.15 -156.2 Q-49.6 -153.5 -49.65 -152.4 -49.65 -151.05 -48.55 -148.2 L-48.55 -148.0 -48.6 -147.75 Q-49.2 -146.9 -50.0 -146.65 L-50.3 -146.65 -50.5 -146.8 -50.65 -147.1 -51.15 -152.4 Q-51.2 -154.25 -49.0 -156.7 -47.1 -158.95 -45.0 -160.0 L-44.65 -160.0 Q-43.85 -161.05 -43.35 -162.15 L-43.1 -162.4 M-47.25 -150.1 L-47.05 -150.25 -46.8 -150.3 Q-45.35 -150.1 -45.2 -149.5 L-45.15 -149.25 -45.25 -149.0 -46.2 -148.45 -47.15 -148.3 -47.45 -148.4 -47.6 -148.65 -47.75 -149.2 -47.75 -149.45 -47.65 -149.65 -47.25 -150.1 M-41.35 -148.4 Q-39.9 -148.3 -39.25 -147.35 L-39.15 -147.1 -39.2 -146.8 -39.55 -146.4 Q-39.9 -146.1 -40.6 -146.05 L-40.8 -146.05 -41.0 -146.2 -41.7 -146.55 Q-42.7 -146.95 -42.75 -147.35 L-42.75 -147.7 -42.55 -147.95 -41.5 -148.4 -41.35 -148.4" fill="#00ffff" fill-opacity="0.5019608" fill-rule="evenodd" stroke="none"/>
    <path d="M39.25 -116.4 L39.65 -116.2 Q40.05 -115.8 40.75 -115.8 L40.85 -115.8 42.15 -117.05 44.1 -118.65 44.85 -117.9 Q44.55 -116.95 43.4 -116.35 L41.55 -115.15 41.5 -115.15 40.25 -115.3 39.25 -116.4 M16.35 -78.4 L16.0 -78.05 15.2 -78.05 Q15.0 -78.1 15.0 -78.9 15.0 -79.65 15.3 -79.6 L15.75 -79.4 Q16.35 -78.95 16.35 -78.4 M-82.25 -221.7 Q-82.7 -221.8 -82.8 -222.05 -81.95 -222.9 -81.25 -224.05 -80.2 -225.75 -80.15 -227.15 L-77.4 -227.4 -75.55 -227.3 -75.55 -226.9 -75.75 -226.9 -76.8 -227.05 -78.2 -226.65 -79.65 -226.55 Q-79.2 -225.4 -80.05 -224.25 L-81.8 -221.65 -82.25 -221.7 M-257.55 -225.4 Q-257.65 -225.2 -258.25 -225.25 -258.85 -225.25 -259.4 -225.55 L-260.65 -225.65 -260.7 -224.2 -260.55 -223.4 Q-260.55 -222.65 -260.8 -222.5 L-261.15 -222.3 -261.65 -222.15 -261.95 -223.2 -262.15 -224.6 Q-262.15 -226.4 -260.2 -226.2 -259.05 -226.1 -257.55 -225.4 M-301.1 -185.6 Q-300.65 -184.1 -301.65 -183.4 -298.6 -181.35 -297.05 -181.3 L-297.05 -180.65 -297.9 -180.05 Q-298.95 -180.3 -300.8 -181.65 -302.65 -183.05 -302.65 -183.65 -302.65 -185.9 -301.9 -187.3 L-301.1 -185.6 M-37.8 -175.2 L-40.3 -174.3 -42.65 -169.85 Q-42.65 -169.1 -42.15 -168.8 L-41.65 -168.4 -41.65 -167.1 Q-41.65 -166.4 -42.3 -164.0 -42.15 -165.15 -42.15 -167.35 -42.15 -167.95 -42.65 -168.6 -43.15 -169.2 -43.15 -169.85 -43.15 -171.9 -41.35 -173.95 -39.45 -176.05 -37.15 -176.4 -36.75 -177.55 -36.3 -177.55 -36.15 -175.9 -37.8 -175.2 M-44.65 -159.3 Q-43.5 -160.55 -42.9 -161.95 L-43.9 -159.15 -44.65 -159.3 M-47.15 -148.8 L-47.3 -149.35 -46.9 -149.8 Q-45.8 -149.65 -45.65 -149.3 -45.8 -149.1 -46.35 -148.95 L-47.15 -148.8 M-44.8 -159.55 L-47.55 -156.55 Q-50.15 -153.6 -50.15 -152.4 -50.15 -151.0 -49.05 -148.05 -49.5 -147.35 -50.15 -147.15 L-50.65 -152.4 Q-50.65 -154.1 -48.65 -156.4 -46.8 -158.55 -44.8 -159.55 M-41.5 -147.0 L-42.3 -147.55 -41.4 -147.9 Q-40.2 -147.8 -39.65 -147.05 L-39.85 -146.85 Q-40.1 -146.6 -40.65 -146.55 L-41.5 -147.0" fill="#ffffff" fill-opacity="0.9019608" fill-rule="evenodd" stroke="none"/>
  </g>
</svg>
