<?xml version="1.0" encoding="UTF-8" standalone="no"?>
<svg xmlns:ffdec="https://www.free-decompiler.com/flash" xmlns:xlink="http://www.w3.org/1999/xlink" ffdec:objectType="shape" height="240.0px" width="182.45px" xmlns="http://www.w3.org/2000/svg">
  <g transform="matrix(1.0, 0.0, 0.0, 1.0, 63.4, 343.65)">
    <path d="M117.5 -343.6 L118.75 -343.5 119.0 -343.25 119.05 -342.85 Q118.7 -341.85 116.95 -341.45 L117.0 -341.4 117.05 -341.4 117.75 -340.55 117.8 -340.3 117.75 -340.05 116.25 -338.45 116.0 -338.3 115.65 -338.35 115.45 -338.6 Q115.05 -339.5 115.05 -341.65 115.05 -342.65 115.2 -342.85 L115.4 -343.05 115.65 -343.2 115.85 -343.3 117.5 -343.55 117.5 -343.6 M82.65 -192.05 Q82.65 -193.25 83.25 -193.35 L83.4 -193.45 83.65 -193.55 84.05 -193.55 84.35 -193.45 84.55 -193.15 84.65 -191.9 Q84.65 -190.6 84.25 -189.95 L84.2 -189.95 Q83.6 -189.1 81.45 -187.7 L81.1 -187.65 80.8 -187.75 80.65 -188.05 80.55 -188.65 80.6 -188.9 80.7 -189.1 83.05 -191.25 82.7 -191.8 82.65 -192.05 M-61.65 -263.9 L-61.3 -263.95 -61.3 -264.15 Q-61.5 -265.55 -60.45 -266.0 L-60.1 -266.0 -57.95 -266.05 -57.55 -265.95 -57.35 -265.65 -57.25 -264.4 -57.35 -263.15 -57.55 -262.9 -57.85 -262.8 -58.25 -262.8 Q-58.45 -262.8 -58.6 -262.95 L-58.75 -263.3 -58.75 -264.2 -59.8 -264.0 -60.25 -262.6 -60.4 -262.45 -60.55 -262.3 -60.75 -262.15 -62.0 -262.05 -63.25 -262.35 -63.35 -263.1 Q-63.3 -263.75 -62.85 -263.8 L-61.65 -263.9 M-34.6 -108.6 L-34.4 -108.4 -34.2 -108.1 -34.15 -108.0 -34.1 -106.85 Q-34.05 -105.15 -36.2 -103.7 L-36.5 -103.65 -36.8 -103.75 -37.15 -104.0 -37.3 -104.15 -37.35 -104.4 Q-37.35 -105.3 -36.8 -106.1 L-36.8 -106.15 -36.7 -106.2 -37.3 -106.3 -37.5 -106.35 -37.75 -106.45 -37.95 -106.5 Q-38.35 -106.55 -38.35 -107.75 L-38.3 -108.6 Q-38.2 -109.5 -37.6 -109.15 L-37.4 -109.05 -37.35 -109.05 -37.05 -108.95 -36.85 -108.65 -36.75 -108.15 Q-36.45 -108.65 -34.85 -108.65 L-34.6 -108.6" fill="#00ffff" fill-opacity="0.5019608" fill-rule="evenodd" stroke="none"/>
    <path d="M118.55 -343.05 Q118.2 -342.1 116.15 -341.8 116.15 -341.55 116.65 -341.05 L117.3 -340.3 115.9 -338.8 Q115.55 -339.65 115.55 -341.65 L115.65 -342.65 115.9 -342.8 117.6 -343.1 118.55 -343.05 M84.15 -191.9 Q84.15 -190.8 83.8 -190.25 83.2 -189.45 81.15 -188.15 L81.05 -188.75 83.55 -191.05 83.15 -192.05 Q83.15 -192.8 83.4 -192.9 L83.65 -193.05 84.05 -193.05 84.15 -191.9 M-60.8 -264.2 Q-60.95 -265.2 -60.25 -265.55 -59.25 -265.3 -57.85 -265.55 L-57.75 -264.4 -57.85 -263.3 -58.25 -263.3 -58.25 -264.65 Q-59.75 -264.95 -60.25 -264.3 L-60.75 -262.8 -60.9 -262.65 -62.0 -262.55 -62.85 -262.65 -62.85 -263.05 -62.7 -263.35 -61.65 -263.4 Q-60.7 -263.4 -60.8 -264.2 M-34.65 -107.85 L-34.6 -106.85 Q-34.6 -105.4 -36.5 -104.15 L-36.85 -104.4 -36.4 -105.85 -35.35 -107.15 Q-35.6 -107.4 -36.0 -106.65 L-37.25 -106.8 -37.75 -106.95 -37.85 -107.75 -37.75 -108.55 -37.35 -108.55 -37.1 -107.4 -36.7 -107.45 Q-36.3 -107.55 -36.35 -107.8 -36.25 -108.15 -34.85 -108.15 L-34.65 -107.85" fill="#ffffff" fill-opacity="0.9019608" fill-rule="evenodd" stroke="none"/>
  </g>
</svg>
