<?xml version="1.0" encoding="UTF-8" standalone="no"?>
<svg xmlns:ffdec="https://www.free-decompiler.com/flash" xmlns:xlink="http://www.w3.org/1999/xlink" ffdec:objectType="shape" height="226.65px" width="413.1px" xmlns="http://www.w3.org/2000/svg">
  <g transform="matrix(1.0, 0.0, 0.0, 1.0, 315.3, 314.45)">
    <path d="M94.0 -313.25 L94.05 -312.95 93.95 -311.65 Q94.1 -311.1 95.4 -310.9 L95.7 -310.7 95.8 -310.4 95.8 -310.05 95.75 -309.75 Q95.4 -309.25 94.6 -308.9 L94.3 -308.9 93.05 -309.15 92.8 -309.3 Q92.65 -309.45 92.65 -309.65 L92.65 -312.1 92.3 -312.2 92.25 -312.2 Q91.45 -312.5 91.25 -312.75 L91.0 -312.65 90.65 -312.55 92.35 -310.95 92.55 -310.6 92.45 -310.25 91.9 -309.35 91.9 -309.3 Q91.5 -308.6 91.65 -307.6 L91.65 -307.4 Q91.55 -306.7 90.2 -306.55 L89.95 -306.6 89.75 -306.75 89.4 -307.2 89.3 -307.3 Q89.05 -307.8 89.05 -308.75 89.05 -309.35 89.45 -309.55 89.7 -309.85 90.3 -309.8 L90.4 -309.8 90.4 -309.9 89.95 -310.55 89.9 -310.6 88.4 -311.85 88.25 -312.05 88.15 -312.3 Q88.1 -313.05 89.05 -314.0 L89.2 -314.1 91.7 -314.25 93.55 -313.55 93.85 -313.45 94.0 -313.25 M94.8 -176.9 L95.15 -177.05 95.55 -177.05 95.75 -177.0 95.95 -176.85 Q96.75 -175.95 97.35 -174.1 L97.35 -174.05 97.8 -171.1 97.8 -170.45 97.7 -170.2 Q97.4 -169.65 97.0 -169.95 L96.85 -170.05 96.75 -170.05 96.5 -170.25 95.8 -171.5 95.65 -172.0 Q95.15 -172.0 95.1 -172.3 L95.05 -172.65 95.25 -172.9 95.85 -173.4 Q96.15 -173.75 96.15 -174.25 L95.65 -174.7 Q94.65 -175.4 94.65 -176.55 L94.8 -176.9 M39.45 -130.45 Q39.1 -130.85 39.1 -131.55 L39.2 -131.8 39.35 -131.95 Q39.95 -132.45 41.05 -131.7 L41.25 -131.4 41.2 -131.0 40.6 -130.4 40.75 -130.35 Q41.25 -130.35 41.25 -129.1 41.25 -128.0 40.05 -126.7 38.95 -125.5 37.85 -125.3 L37.5 -125.35 37.25 -125.7 37.35 -126.05 39.3 -130.25 39.45 -130.45 M11.25 -96.55 L11.35 -95.6 Q11.35 -94.6 10.8 -94.1 L10.75 -94.05 10.3 -93.7 11.2 -93.55 11.45 -93.4 11.6 -93.2 Q11.9 -92.25 12.8 -91.7 13.85 -91.05 13.85 -89.65 13.85 -88.55 13.3 -88.2 L13.25 -88.15 12.8 -87.85 12.45 -87.8 Q12.3 -87.8 12.2 -87.9 11.55 -88.45 10.85 -89.9 L10.85 -89.95 Q10.25 -91.25 10.15 -92.1 L9.15 -92.3 Q9.05 -92.3 8.95 -92.4 L8.8 -92.6 Q8.35 -93.5 9.0 -94.95 9.55 -96.15 10.2 -96.5 L10.35 -96.7 Q10.6 -97.0 10.85 -96.9 L11.25 -96.55 M-81.5 -238.45 L-81.3 -238.3 Q-79.95 -238.1 -79.65 -237.6 L-79.55 -237.3 Q-79.55 -236.65 -80.1 -236.25 L-80.3 -236.15 -80.55 -236.15 -80.85 -236.25 -81.2 -236.3 -81.3 -236.25 -81.45 -236.15 Q-82.0 -235.9 -82.2 -236.65 L-82.3 -237.4 -82.25 -238.0 -82.1 -238.35 -81.5 -238.45 M-84.1 -236.5 L-83.85 -236.3 -83.8 -236.0 -83.95 -235.7 Q-85.05 -234.6 -86.85 -233.35 L-87.15 -233.3 -87.45 -233.4 -87.6 -233.65 -87.6 -233.95 Q-87.35 -234.75 -86.0 -235.6 L-84.45 -236.5 -84.1 -236.5 M-89.65 -230.3 Q-89.65 -231.4 -89.15 -231.7 L-89.1 -231.75 -88.4 -232.0 -88.05 -232.0 -87.8 -231.7 -87.65 -231.3 -87.65 -231.15 -87.65 -228.9 -87.75 -228.55 -88.05 -228.4 -88.55 -228.3 -88.85 -228.35 -89.05 -228.5 -89.35 -228.85 -89.45 -228.95 Q-89.65 -229.35 -89.65 -230.3 M-87.7 -227.05 L-87.45 -226.9 -86.3 -225.75 -86.15 -225.4 -86.3 -225.05 -86.55 -224.8 -86.75 -224.65 -86.95 -224.65 -87.95 -224.8 -88.25 -224.95 -88.4 -225.3 -88.6 -226.25 -88.6 -226.6 -88.35 -226.85 -88.0 -227.0 -87.7 -227.05 M-57.4 -249.35 L-57.4 -249.4 -57.05 -250.0 -56.85 -250.2 -56.65 -250.25 -54.85 -250.0 -53.4 -249.85 Q-52.2 -249.85 -52.0 -248.9 L-52.0 -248.8 -51.95 -248.25 -51.9 -248.0 Q-51.9 -246.9 -53.0 -246.6 L-53.35 -246.6 -53.55 -246.85 -54.45 -247.6 -55.85 -247.9 Q-55.9 -247.3 -55.55 -246.15 L-55.55 -245.8 -55.75 -245.6 -56.05 -245.5 Q-56.2 -245.5 -56.3 -245.6 L-57.35 -246.8 -57.35 -246.85 -57.65 -248.05 -57.4 -249.35 M-314.15 -198.15 Q-315.35 -199.65 -315.3 -200.6 -315.4 -201.25 -313.55 -202.45 L-313.3 -202.55 -313.0 -202.45 -312.8 -202.2 Q-312.7 -201.9 -312.95 -201.35 L-313.0 -201.3 -313.15 -200.55 -312.4 -200.0 Q-311.1 -199.3 -310.55 -197.55 L-310.55 -197.25 -310.8 -196.5 -310.95 -196.25 -311.2 -196.15 -311.45 -196.15 Q-312.9 -196.7 -314.1 -198.15 L-314.15 -198.15 M-271.65 -238.65 Q-270.3 -238.7 -268.25 -237.3 L-268.1 -237.1 -268.05 -236.9 -268.05 -234.65 -268.1 -234.4 -268.2 -234.2 -268.3 -234.1 Q-268.6 -233.8 -269.0 -233.65 L-269.25 -233.65 -269.5 -233.8 Q-270.2 -234.55 -270.25 -235.95 -270.5 -235.75 -271.2 -235.45 L-271.2 -235.4 -271.7 -235.2 -271.8 -235.2 Q-272.4 -235.1 -272.65 -235.5 L-272.9 -236.4 Q-272.9 -237.35 -272.5 -237.8 L-272.45 -237.8 -272.1 -238.3 -271.95 -238.55 -271.65 -238.65" fill="#00ffff" fill-opacity="0.5019608" fill-rule="evenodd" stroke="none"/>
    <path d="M92.4 -312.7 Q91.65 -312.95 91.65 -313.15 L91.65 -313.55 90.9 -313.15 89.65 -312.9 Q91.25 -311.15 92.05 -310.55 L91.45 -309.55 Q91.0 -308.7 91.15 -307.55 91.05 -307.15 90.15 -307.05 L89.75 -307.55 89.55 -308.75 Q89.55 -309.35 90.25 -309.3 90.9 -309.25 90.9 -309.9 L90.3 -310.9 Q89.55 -311.75 88.65 -312.3 88.65 -312.9 89.4 -313.65 L91.5 -313.8 Q93.4 -313.05 93.55 -313.05 L93.45 -311.6 Q93.55 -310.7 95.3 -310.4 L95.3 -310.05 94.4 -309.4 93.15 -309.65 93.15 -312.55 92.4 -312.7 M95.55 -176.55 Q96.3 -175.7 96.85 -173.95 L97.3 -171.1 97.2 -170.4 96.9 -170.55 Q95.9 -172.1 96.2 -172.15 L96.65 -172.0 Q96.65 -172.75 96.15 -172.6 L95.55 -172.55 96.15 -173.05 Q96.65 -173.5 96.65 -174.25 96.65 -174.7 95.9 -175.15 95.15 -175.65 95.15 -176.55 L95.55 -176.55 M39.6 -131.55 Q40.0 -131.8 40.75 -131.3 L40.0 -130.65 Q39.6 -130.9 39.6 -131.55 M37.75 -125.8 L39.75 -130.05 40.1 -130.05 40.6 -129.9 40.75 -129.1 Q40.75 -128.15 39.7 -127.05 38.7 -126.0 37.75 -125.8 M10.85 -95.6 Q10.85 -94.85 10.45 -94.45 L9.75 -93.9 9.75 -93.3 11.1 -93.05 Q11.45 -91.95 12.5 -91.3 13.35 -90.75 13.35 -89.65 13.35 -88.85 13.0 -88.6 L12.5 -88.3 Q11.95 -88.8 11.3 -90.15 10.6 -91.65 10.6 -92.55 L9.25 -92.8 Q8.9 -93.55 9.45 -94.75 10.0 -95.9 10.6 -96.15 10.85 -96.85 10.85 -95.6 M-84.3 -236.05 L-87.15 -233.8 -85.75 -235.2 -84.3 -236.05 M-81.6 -236.65 Q-81.8 -236.6 -81.8 -237.4 L-81.7 -238.0 -81.4 -237.65 -81.4 -237.8 Q-80.3 -237.65 -80.05 -237.3 -80.05 -236.9 -80.4 -236.65 L-80.7 -236.75 -81.4 -236.8 -81.6 -236.65 M-89.15 -230.3 L-88.85 -231.35 -88.3 -231.55 -88.15 -231.15 -88.15 -228.9 -88.65 -228.8 -89.0 -229.2 -89.15 -230.3 M-86.65 -225.4 L-86.9 -225.15 -87.9 -225.3 -88.15 -226.4 -87.8 -226.55 -86.65 -225.4 M-52.5 -248.8 L-52.4 -248.0 Q-52.4 -247.3 -53.15 -247.1 -53.65 -247.95 -54.4 -248.1 -55.65 -248.3 -56.15 -248.6 -56.6 -247.9 -56.05 -246.0 L-56.9 -247.05 -57.15 -248.05 -56.95 -249.2 -56.65 -249.75 -55.0 -249.55 -53.4 -249.35 Q-52.65 -249.35 -52.5 -248.8 M-313.4 -201.6 L-313.65 -200.55 Q-313.65 -200.1 -312.65 -199.55 -311.5 -198.95 -311.05 -197.4 L-311.3 -196.65 Q-312.6 -197.15 -313.75 -198.5 -314.8 -199.8 -314.8 -200.6 -314.8 -201.05 -313.3 -202.05 L-313.4 -201.6 M-271.4 -235.9 L-271.9 -235.7 Q-272.4 -235.6 -272.4 -236.4 -272.4 -237.15 -272.1 -237.5 L-271.65 -238.15 Q-270.4 -238.15 -268.55 -236.9 L-268.55 -234.65 -268.65 -234.45 -269.15 -234.15 Q-269.8 -234.9 -269.8 -236.4 -269.9 -236.55 -271.4 -235.9" fill="#ffffff" fill-opacity="0.9019608" fill-rule="evenodd" stroke="none"/>
  </g>
</svg>
