<?xml version="1.0" encoding="UTF-8" standalone="no"?>
<svg xmlns:ffdec="https://www.free-decompiler.com/flash" xmlns:xlink="http://www.w3.org/1999/xlink" ffdec:objectType="shape" height="240.9px" width="174.8px" xmlns="http://www.w3.org/2000/svg">
  <g transform="matrix(1.0, 0.0, 0.0, 1.0, 61.0, 331.05)">
    <path d="M110.95 -329.65 L111.3 -329.5 111.65 -330.55 111.8 -330.9 112.15 -331.05 112.55 -331.05 112.8 -330.95 113.2 -330.75 113.3 -330.7 Q113.8 -330.55 113.8 -329.4 113.8 -328.35 113.2 -327.9 112.6 -327.45 111.5 -327.55 L111.45 -327.55 109.65 -328.05 Q108.9 -328.05 108.75 -327.6 L108.9 -326.7 108.85 -326.45 108.7 -326.2 108.4 -326.15 107.65 -326.15 107.35 -326.25 107.2 -326.5 Q107.05 -326.95 107.05 -327.8 107.05 -328.85 107.5 -329.2 L107.55 -329.2 108.25 -329.6 108.4 -329.65 110.8 -329.7 110.95 -329.65 M88.05 -189.15 L88.3 -189.1 89.45 -188.35 Q89.8 -187.9 89.8 -186.85 89.8 -185.5 89.05 -184.45 88.25 -183.3 86.75 -183.05 L86.8 -182.9 86.9 -182.35 86.9 -182.15 86.8 -181.55 86.75 -181.35 86.6 -181.2 86.2 -180.95 85.85 -180.9 Q85.65 -180.95 85.55 -181.05 L85.4 -181.4 Q85.3 -181.3 84.85 -181.7 L84.85 -181.75 Q84.0 -182.65 84.05 -183.15 L84.25 -183.95 84.35 -184.15 Q84.9 -184.95 86.8 -185.05 L88.05 -186.9 87.8 -187.6 Q86.95 -188.2 87.05 -188.4 L87.1 -188.55 Q87.25 -189.15 88.05 -189.15 M-60.9 -257.8 L-60.4 -258.45 -59.0 -258.8 Q-58.1 -258.8 -57.6 -258.15 L-57.25 -257.85 Q-56.85 -258.65 -56.85 -259.65 L-56.7 -260.0 -56.35 -260.15 -55.85 -260.15 -55.65 -260.1 -55.2 -259.9 -55.1 -259.85 Q-54.6 -259.7 -54.6 -258.55 -54.6 -256.65 -56.45 -256.4 L-60.0 -255.6 -60.35 -255.55 -60.65 -255.75 Q-61.0 -256.15 -61.0 -257.55 L-60.9 -257.8 M-34.6 -99.1 L-34.45 -98.95 Q-34.2 -98.65 -34.1 -97.75 L-33.0 -97.8 Q-32.0 -97.9 -30.9 -96.05 -30.05 -94.55 -30.1 -94.15 L-30.1 -94.05 Q-30.15 -93.6 -30.55 -93.1 -31.1 -92.5 -32.05 -92.35 L-31.8 -91.1 -31.75 -90.75 -31.95 -90.5 -32.15 -90.35 -32.3 -90.25 -33.25 -90.15 -33.55 -90.25 -33.7 -90.5 -33.85 -92.15 -33.7 -93.75 -33.6 -94.0 -33.35 -94.1 -32.3 -94.35 -32.5 -94.7 -32.5 -94.65 -33.2 -95.55 -34.75 -95.65 -34.95 -95.7 -35.15 -95.85 Q-35.85 -96.7 -35.85 -98.65 L-35.7 -99.0 -35.35 -99.15 -34.85 -99.15 -34.6 -99.1" fill="#00ffff" fill-opacity="0.5019608" fill-rule="evenodd" stroke="none"/>
    <path d="M108.25 -327.6 L108.4 -326.65 107.65 -326.65 107.55 -327.8 Q107.55 -328.6 107.85 -328.85 108.0 -329.0 108.4 -329.15 L110.8 -329.2 111.4 -328.8 Q112.1 -329.65 112.15 -330.55 L112.55 -330.55 Q112.9 -330.35 113.05 -330.3 L113.3 -329.4 Q113.3 -327.85 111.55 -328.05 L109.65 -328.55 Q108.35 -328.55 108.25 -327.6 M89.05 -188.05 L89.3 -186.85 Q89.3 -185.65 88.65 -184.75 87.6 -183.3 85.3 -183.55 L85.75 -183.2 86.3 -182.8 86.4 -182.25 86.3 -181.65 85.9 -181.4 85.2 -182.1 Q84.55 -182.8 84.55 -183.15 L84.7 -183.85 Q85.25 -184.5 87.05 -184.55 L88.55 -186.9 Q88.55 -187.65 88.05 -188.0 L87.55 -188.4 88.05 -188.65 89.05 -188.05 M-55.1 -258.55 Q-55.1 -257.1 -56.55 -256.9 L-60.25 -256.05 -60.5 -257.55 -60.15 -258.0 -59.0 -258.3 Q-58.35 -258.3 -58.0 -257.85 -57.6 -257.35 -57.0 -257.3 -56.35 -258.3 -56.35 -259.65 L-55.85 -259.65 -55.35 -259.45 Q-55.1 -259.3 -55.1 -258.55 M-34.75 -96.15 Q-35.35 -96.9 -35.35 -98.65 L-34.85 -98.65 Q-34.6 -98.3 -34.6 -97.15 L-33.0 -97.3 Q-32.25 -97.3 -31.35 -95.8 -30.6 -94.5 -30.6 -94.15 L-30.95 -93.45 Q-31.5 -92.85 -32.6 -92.8 -32.6 -91.65 -32.25 -90.9 L-32.45 -90.75 -33.25 -90.65 -33.35 -92.15 -33.25 -93.65 -31.5 -94.05 -32.1 -94.95 -33.0 -96.05 -34.75 -96.15" fill="#ffffff" fill-opacity="0.9019608" fill-rule="evenodd" stroke="none"/>
  </g>
</svg>
