<?xml version="1.0" encoding="UTF-8" standalone="no"?>
<svg xmlns:ffdec="https://www.free-decompiler.com/flash" xmlns:xlink="http://www.w3.org/1999/xlink" ffdec:objectType="shape" height="139.25px" width="401.0px" xmlns="http://www.w3.org/2000/svg">
  <g transform="matrix(1.0, 0.0, 0.0, 1.0, 384.0, 183.7)">
    <path d="M1.65 -71.8 Q6.75 -69.9 10.8 -67.35 L12.4 -66.25 12.6 -66.25 12.6 -66.2 12.6 -66.1 14.45 -64.65 Q17.0 -62.3 17.0 -60.2 17.0 -58.55 15.65 -57.75 14.65 -57.15 13.2 -57.15 10.4 -57.15 5.3 -59.65 L1.95 -61.25 Q0.8 -61.4 -1.1 -62.0 L-0.85 -62.1 3.1 -63.7 Q5.8 -64.45 7.9 -67.9 L1.65 -71.8 M-7.0 -59.55 Q-7.45 -57.2 -9.35 -55.4 -10.65 -54.2 -12.65 -53.25 -17.95 -50.8 -30.15 -49.4 L-59.6 -47.25 -101.3 -44.45 -134.45 -44.45 -136.55 -44.9 -167.7 -45.05 Q-188.3 -47.15 -210.0 -50.4 -234.4 -54.05 -260.2 -59.15 -286.95 -64.45 -304.95 -69.85 -317.2 -73.55 -325.4 -77.25 -326.7 -75.8 -328.65 -75.8 -335.85 -75.8 -343.05 -85.0 -345.4 -88.0 -347.35 -91.5 L-348.05 -92.85 Q-344.95 -96.25 -329.05 -99.65 -311.85 -103.25 -310.9 -103.9 L-311.1 -104.5 Q-311.95 -104.55 -312.15 -104.85 L-312.7 -105.7 Q-311.3 -107.1 -310.25 -107.6 -308.05 -108.6 -303.8 -108.6 L-302.75 -108.3 -302.3 -107.9 -302.65 -106.5 Q-302.7 -105.7 -301.6 -105.4 -297.3 -108.15 -292.95 -112.2 L-285.7 -119.35 -285.9 -120.1 -285.85 -120.2 -286.6 -120.3 -288.0 -120.0 -289.1 -119.9 -288.9 -120.95 Q-288.8 -121.6 -289.0 -122.0 -290.0 -121.5 -291.3 -120.95 -290.4 -121.9 -290.4 -122.9 -290.4 -125.5 -296.85 -127.15 -303.35 -128.85 -303.35 -132.0 L-303.0 -133.45 -302.95 -133.5 -303.25 -133.5 Q-310.4 -135.5 -318.75 -135.5 L-321.8 -134.85 -329.85 -135.65 -346.6 -138.0 -349.2 -137.75 Q-352.4 -137.75 -360.85 -140.95 L-362.1 -141.45 -371.1 -144.85 -374.85 -145.95 -375.55 -146.1 Q-378.15 -146.85 -380.7 -150.2 L-380.85 -150.35 -381.15 -150.8 Q-384.0 -154.7 -384.0 -157.1 -384.0 -161.0 -380.1 -163.7 -373.85 -170.2 -352.2 -174.55 L-347.75 -175.35 Q-346.65 -175.9 -344.9 -176.1 L-343.15 -176.15 -340.85 -176.5 -340.55 -176.6 -338.85 -176.8 Q-335.35 -178.3 -327.25 -179.6 L-320.6 -180.6 -307.55 -181.9 -337.9 -176.9 -338.1 -176.0 Q-337.45 -175.6 -335.25 -172.85 -333.75 -170.9 -329.4 -170.0 -329.05 -169.15 -327.2 -167.85 -324.9 -166.2 -322.8 -166.2 L-320.05 -168.05 -320.6 -167.2 Q-318.9 -162.05 -305.75 -158.1 -295.95 -155.15 -272.5 -151.3 -247.25 -147.15 -239.25 -145.1 -224.15 -141.2 -224.15 -136.2 -224.15 -133.95 -228.35 -130.85 -230.4 -129.0 -234.6 -126.8 -237.6 -125.2 -242.85 -122.9 -246.55 -121.15 -251.6 -118.95 -263.3 -114.0 -266.55 -112.25 -273.3 -108.6 -273.3 -105.75 -273.3 -100.45 -265.45 -97.1 -259.3 -94.55 -246.05 -92.4 L-221.6 -88.7 Q-212.0 -87.15 -205.05 -85.25 L-202.5 -84.55 -191.65 -83.65 -184.0 -83.6 -183.75 -83.6 -177.9 -83.55 -123.6 -78.45 -87.9 -75.1 -84.05 -75.0 Q-66.35 -73.8 -55.95 -74.45 L-50.45 -74.4 -56.4 -74.3 -68.0 -73.8 -68.6 -73.85 Q-68.9 -73.85 -68.9 -73.25 L-68.8 -72.65 -68.7 -72.8 -65.6 -72.4 -65.4 -72.1 Q-65.65 -71.75 -66.25 -71.45 L-66.9 -70.7 Q-61.7 -68.9 -60.4 -67.6 L-61.6 -67.2 -64.4 -67.0 -65.55 -66.15 -65.7 -65.35 Q-65.55 -64.3 -63.5 -63.3 -59.5 -61.4 -50.0 -61.4 L-48.75 -61.65 -47.2 -61.6 Q-47.65 -60.9 -48.65 -60.1 -49.3 -59.55 -49.3 -59.0 L-49.4 -57.9 Q-49.3 -57.0 -48.2 -56.3 -44.9 -54.3 -32.8 -54.3 -23.6 -54.3 -14.3 -57.1 -10.65 -58.15 -7.0 -59.55 M-345.9 -101.2 Q-344.15 -102.9 -341.35 -104.35 L-340.95 -104.5 Q-343.95 -102.85 -345.9 -101.2 M-327.4 -110.05 Q-325.85 -110.75 -324.45 -111.35 -321.85 -112.5 -315.6 -113.85 L-311.8 -114.55 -324.9 -110.85 -327.4 -110.05 M-296.8 -183.45 L-294.8 -183.6 -294.7 -183.5 -294.6 -182.85 -294.6 -182.6 -293.85 -182.25 -285.75 -181.65 -285.75 -181.6 -285.95 -181.4 -282.95 -181.45 -285.05 -180.55 -287.3 -179.7 Q-287.95 -179.05 -289.2 -178.7 L-289.4 -178.65 Q-289.95 -176.9 -293.4 -176.4 L-293.7 -176.35 -294.05 -176.35 -297.3 -176.25 -300.4 -175.25 Q-302.9 -173.9 -308.9 -171.75 -315.35 -169.45 -319.6 -168.35 L-317.6 -169.8 -312.1 -171.5 -307.8 -172.8 -300.05 -175.45 Q-295.5 -177.05 -293.7 -178.7 -294.15 -180.05 -295.25 -181.45 L-296.8 -183.45 M-32.6 -74.9 L-31.5 -75.0 -32.1 -74.9 -32.6 -74.9 M-30.95 -75.05 L-27.6 -75.45 -27.6 -75.3 -30.95 -75.05 M-27.1 -75.5 L-22.85 -75.8 -19.25 -75.5 -27.1 -75.5 M-15.4 -75.3 Q-10.25 -75.55 -2.75 -73.3 L-2.15 -73.1 Q-7.05 -74.4 -15.4 -75.3 M-338.3 -173.6 L-338.0 -173.15 -338.1 -173.35 -338.3 -173.6 M-341.85 -160.85 L-341.5 -160.6 -341.4 -160.6 -341.55 -161.25 -341.85 -160.85" fill="#13e1ec" fill-rule="evenodd" stroke="none"/>
    <path d="M-1.1 -62.0 L-4.7 -60.5 -7.0 -59.55 Q-10.65 -58.15 -14.3 -57.1 -23.6 -54.3 -32.8 -54.3 -44.9 -54.3 -48.2 -56.3 -49.3 -57.0 -49.4 -57.9 L-49.3 -59.0 Q-49.3 -59.55 -48.65 -60.1 -47.65 -60.9 -47.2 -61.6 L-48.75 -61.65 -50.0 -61.4 Q-59.5 -61.4 -63.5 -63.3 -65.55 -64.3 -65.7 -65.35 L-65.55 -66.15 -64.4 -67.0 -61.6 -67.2 -60.4 -67.6 Q-61.7 -68.9 -66.9 -70.7 L-66.25 -71.45 Q-65.65 -71.75 -65.4 -72.1 L-65.6 -72.4 -68.7 -72.8 -68.8 -72.65 -68.9 -73.25 Q-68.9 -73.85 -68.6 -73.85 L-68.0 -73.8 -56.4 -74.3 -50.45 -74.4 -49.8 -74.4 -42.8 -74.7 -32.6 -74.9 -32.1 -74.9 -31.5 -75.0 -31.25 -75.05 -30.95 -75.05 -27.6 -75.3 -27.6 -75.45 -27.6 -75.5 -27.1 -75.5 -19.25 -75.5 -17.2 -75.5 -15.4 -75.3 Q-7.05 -74.4 -2.15 -73.1 L1.2 -72.05 1.65 -71.8 7.9 -67.9 Q5.8 -64.45 3.1 -63.7 L-0.85 -62.1 -1.1 -62.0 M-348.05 -92.85 L-348.2 -92.7 Q-349.4 -93.6 -349.4 -95.25 -349.4 -98.25 -345.9 -101.2 -343.95 -102.85 -340.95 -104.5 -335.8 -107.3 -327.4 -110.05 L-324.9 -110.85 -311.8 -114.55 -304.85 -116.55 Q-296.05 -119.1 -291.3 -120.95 -290.0 -121.5 -289.0 -122.0 -288.8 -121.6 -288.9 -120.95 L-289.1 -119.9 -288.0 -120.0 -286.6 -120.3 -285.85 -120.2 -285.9 -120.1 -285.7 -119.35 -292.95 -112.2 Q-297.3 -108.15 -301.6 -105.4 -302.7 -105.7 -302.65 -106.5 L-302.3 -107.9 -302.75 -108.3 -303.8 -108.6 Q-308.05 -108.6 -310.25 -107.6 -311.3 -107.1 -312.7 -105.7 L-312.15 -104.85 Q-311.95 -104.55 -311.1 -104.5 L-310.9 -103.9 Q-311.85 -103.25 -329.05 -99.65 -344.95 -96.25 -348.05 -92.85 M-307.55 -181.9 L-304.65 -182.4 -301.55 -182.9 -297.0 -183.7 -296.8 -183.45 -295.25 -181.45 Q-294.15 -180.05 -293.7 -178.7 -295.5 -177.05 -300.05 -175.45 L-307.8 -172.8 -312.1 -171.5 -317.6 -169.8 -319.6 -168.35 -320.05 -168.05 -322.8 -166.2 Q-324.9 -166.2 -327.2 -167.85 -329.05 -169.15 -329.4 -170.0 -333.75 -170.9 -335.25 -172.85 -337.45 -175.6 -338.1 -176.0 L-337.9 -176.9 -307.55 -181.9 M-338.3 -173.6 L-338.1 -173.35 -338.0 -173.15 -338.3 -173.6" fill="#0fb8f0" fill-rule="evenodd" stroke="none"/>
    <path d="M-303.25 -133.5 L-303.2 -133.5 -305.45 -133.6 -321.1 -134.8 -321.8 -134.85 -318.75 -135.5 Q-310.4 -135.5 -303.25 -133.5" fill="#a0f7fe" fill-rule="evenodd" stroke="none"/>
  </g>
</svg>
