<?xml version="1.0" encoding="UTF-8" standalone="no"?>
<svg xmlns:ffdec="https://www.free-decompiler.com/flash" xmlns:xlink="http://www.w3.org/1999/xlink" ffdec:objectType="shape" height="241.35px" width="427.2px" xmlns="http://www.w3.org/2000/svg">
  <g transform="matrix(1.0, 0.0, 0.0, 1.0, 319.65, 325.65)">
    <path d="M102.05 -325.65 L102.3 -325.6 102.5 -325.4 103.05 -323.8 103.05 -323.85 103.45 -323.1 Q105.05 -324.7 106.2 -325.25 L106.4 -325.3 106.6 -325.25 107.25 -325.0 107.5 -324.75 107.55 -324.35 Q107.25 -323.6 106.0 -322.35 104.65 -321.0 103.6 -320.55 L103.3 -320.55 103.05 -320.7 101.85 -321.9 101.4 -322.55 101.1 -322.15 Q102.1 -321.75 102.15 -321.25 L102.15 -321.0 Q101.3 -318.5 101.3 -317.6 101.4 -317.35 100.5 -316.45 L100.55 -316.45 99.7 -315.6 99.5 -315.55 99.25 -315.55 98.5 -315.8 98.25 -316.0 98.15 -316.3 98.25 -316.55 Q99.15 -317.95 99.25 -318.45 L99.2 -318.9 99.15 -319.1 Q99.15 -320.0 99.9 -320.4 L99.95 -320.45 100.15 -320.7 99.5 -320.8 Q99.15 -321.0 99.15 -321.65 99.1 -321.85 100.15 -323.5 101.2 -325.2 101.8 -325.55 L102.05 -325.65 M88.95 -181.45 L88.9 -181.4 Q89.35 -182.05 90.75 -182.05 L91.2 -183.45 91.2 -183.55 91.05 -183.9 91.1 -184.5 91.25 -184.85 91.85 -184.95 92.1 -184.75 92.6 -184.7 92.9 -184.6 Q93.3 -184.4 93.3 -183.25 93.3 -182.65 92.9 -181.8 L92.9 -181.75 91.75 -180.15 91.5 -180.05 90.2 -179.6 89.4 -179.15 90.05 -178.7 90.25 -178.55 90.3 -178.3 Q90.3 -177.35 90.0 -176.85 L89.8 -176.7 89.5 -176.65 Q89.35 -176.65 89.25 -176.75 88.45 -177.35 87.7 -177.3 L87.45 -177.35 87.25 -177.5 87.15 -177.8 Q87.15 -178.6 87.7 -180.2 L87.95 -180.5 88.95 -181.45 M7.45 -108.4 L7.6 -108.15 7.75 -107.6 7.7 -107.25 6.85 -106.6 6.8 -106.6 6.45 -106.5 7.25 -105.5 Q8.0 -104.8 8.7 -104.65 L9.0 -104.45 Q9.35 -104.0 9.35 -103.05 L9.3 -102.75 9.05 -102.35 8.8 -102.2 8.5 -102.15 8.25 -102.3 6.6 -103.7 Q4.7 -105.45 4.75 -106.4 4.75 -107.2 5.1 -107.45 L5.1 -107.5 Q5.45 -107.9 6.9 -108.5 L7.2 -108.55 7.45 -108.4 M-54.4 -254.6 L-54.05 -254.55 -53.85 -254.3 -53.8 -254.0 -54.05 -252.5 -54.15 -252.3 -54.4 -251.95 -54.55 -251.8 -54.8 -251.75 -56.15 -251.75 -56.45 -251.85 -58.05 -253.35 -58.05 -252.75 -58.15 -252.45 -58.4 -252.25 -59.0 -252.1 -59.35 -252.15 -59.6 -252.35 -59.8 -252.4 Q-60.3 -252.6 -60.3 -253.75 -60.3 -254.9 -59.7 -255.15 L-59.65 -255.2 -58.9 -255.35 -57.25 -255.25 -56.95 -255.1 Q-56.55 -254.8 -55.45 -254.35 L-55.5 -254.35 -55.3 -254.3 -54.4 -254.6 M-316.6 -206.1 L-316.45 -206.0 -316.3 -206.05 -316.0 -205.95 -315.8 -205.65 -315.65 -205.1 -315.65 -204.9 -315.7 -204.75 Q-315.9 -204.4 -316.75 -203.9 L-316.8 -203.85 -315.85 -204.25 -315.55 -204.3 -315.25 -204.1 Q-314.65 -203.4 -314.55 -202.85 L-314.4 -202.5 Q-314.2 -201.95 -314.9 -201.75 L-315.65 -201.65 -316.9 -201.7 -318.15 -201.8 -318.35 -201.85 -318.55 -202.0 -319.0 -202.3 -319.1 -202.4 Q-319.65 -202.9 -319.65 -203.9 L-319.65 -204.3 -319.65 -204.35 -319.5 -204.85 -319.2 -205.1 -318.6 -205.7 -318.65 -205.7 Q-317.75 -206.55 -316.6 -206.1 M-273.1 -238.1 L-273.6 -237.5 -273.95 -237.4 -275.15 -237.65 Q-276.15 -237.9 -276.25 -238.35 L-276.3 -238.6 -276.2 -238.8 -275.1 -240.25 -274.75 -240.25 Q-274.1 -240.15 -273.15 -238.85 L-273.05 -238.55 -273.1 -238.15 -273.1 -238.1 M-29.05 -90.15 Q-28.25 -90.0 -28.25 -88.75 L-28.25 -88.1 -28.3 -87.9 -28.4 -87.7 Q-28.55 -87.5 -28.75 -87.5 L-29.0 -87.55 -29.1 -87.5 -29.1 -87.25 -29.25 -87.0 -29.85 -86.45 -29.6 -85.5 -29.65 -85.2 Q-29.85 -84.75 -30.15 -84.45 L-30.4 -84.3 -30.7 -84.35 -30.9 -84.5 Q-32.0 -86.15 -31.75 -87.0 L-31.7 -87.0 -31.6 -87.35 -31.8 -87.4 Q-32.85 -87.8 -32.85 -89.55 L-32.75 -89.8 -32.55 -90.0 -32.25 -90.05 -31.35 -89.55 -31.3 -89.5 Q-31.4 -89.8 -30.75 -90.2 L-30.45 -90.3 -29.1 -90.2 -29.05 -90.15" fill="#00ffff" fill-opacity="0.5019608" fill-rule="evenodd" stroke="none"/>
    <path d="M102.55 -323.75 Q102.7 -323.15 103.4 -322.4 105.2 -324.2 106.4 -324.8 L107.05 -324.55 Q106.8 -323.85 105.65 -322.7 104.4 -321.45 103.4 -321.05 L102.2 -322.25 101.4 -323.65 100.3 -321.9 Q101.55 -321.55 101.65 -321.15 100.8 -318.55 100.8 -317.6 L100.15 -316.8 99.4 -316.05 98.65 -316.3 Q99.7 -317.85 99.75 -318.4 L99.65 -319.1 Q99.65 -319.7 100.15 -320.0 100.65 -320.25 100.65 -320.9 100.65 -321.5 100.15 -321.25 99.65 -321.0 99.65 -321.65 L100.55 -323.25 Q101.55 -324.8 102.05 -325.15 L102.55 -323.75 M88.65 -179.4 Q88.65 -178.95 89.8 -178.3 L89.55 -177.15 Q88.6 -177.9 87.65 -177.8 87.65 -178.55 88.15 -180.05 L89.3 -181.1 Q89.7 -181.6 91.05 -181.55 L91.7 -183.45 91.55 -183.9 Q91.55 -184.65 91.65 -184.5 L91.9 -184.15 91.9 -184.3 92.6 -184.2 92.8 -183.25 92.45 -182.0 91.4 -180.55 89.95 -180.05 Q88.85 -179.45 88.65 -179.4 M7.1 -108.05 L7.25 -107.5 6.7 -107.1 5.75 -106.9 Q6.05 -105.95 6.9 -105.15 7.8 -104.3 8.6 -104.15 L8.85 -103.05 8.6 -102.65 6.9 -104.1 Q5.25 -105.6 5.25 -106.4 L5.45 -107.15 Q5.75 -107.5 7.1 -108.05 M-55.35 -253.7 L-54.3 -254.1 -54.55 -252.6 -54.8 -252.25 -56.15 -252.25 -57.8 -253.85 Q-58.9 -253.85 -58.55 -253.5 L-58.55 -252.75 -59.15 -252.6 -59.55 -252.85 -59.8 -253.75 Q-59.8 -254.55 -59.45 -254.75 L-58.9 -254.85 -57.3 -254.75 Q-56.85 -254.35 -55.65 -253.9 L-55.35 -253.7 M-316.3 -205.55 L-316.15 -205.0 -317.0 -204.35 -317.8 -203.8 -318.25 -203.95 -318.95 -204.25 -318.9 -204.05 -318.9 -204.15 -317.65 -203.45 Q-317.15 -203.1 -315.65 -203.8 -315.05 -203.1 -315.05 -202.65 L-314.9 -202.4 Q-314.85 -202.15 -315.65 -202.15 L-316.85 -202.2 -318.15 -202.3 -318.75 -202.75 Q-319.15 -203.15 -319.15 -203.9 L-319.15 -204.3 -319.0 -204.5 -318.3 -205.35 Q-317.65 -205.95 -316.8 -205.65 L-316.3 -205.55 M-273.55 -238.55 L-273.6 -238.3 -273.9 -237.9 -275.05 -238.15 Q-275.7 -238.3 -275.8 -238.55 L-274.9 -239.8 Q-274.35 -239.65 -273.55 -238.55 M-28.75 -88.75 L-28.8 -88.0 -28.85 -88.15 Q-30.0 -87.8 -29.6 -87.4 -30.4 -86.7 -30.4 -86.4 L-30.1 -85.4 -30.5 -84.8 Q-31.4 -86.2 -31.25 -86.9 L-30.85 -87.8 -31.6 -87.85 Q-32.35 -88.2 -32.35 -89.55 L-31.65 -89.15 -30.5 -89.8 -29.2 -89.7 Q-28.75 -89.55 -28.75 -88.75" fill="#ffffff" fill-opacity="0.9019608" fill-rule="evenodd" stroke="none"/>
  </g>
</svg>
