<?xml version="1.0" encoding="UTF-8" standalone="no"?>
<svg xmlns:ffdec="https://www.free-decompiler.com/flash" xmlns:xlink="http://www.w3.org/1999/xlink" ffdec:objectType="shape" height="139.15px" width="401.0px" xmlns="http://www.w3.org/2000/svg">
  <g transform="matrix(1.0, 0.0, 0.0, 1.0, 384.0, 183.6)">
    <path d="M-320.2 -167.85 L-320.6 -167.2 Q-318.9 -162.05 -305.75 -158.1 -295.95 -155.15 -272.5 -151.3 -247.25 -147.15 -239.25 -145.1 -224.15 -141.2 -224.15 -136.2 -224.15 -133.95 -228.35 -130.85 -230.4 -129.0 -234.6 -126.8 -237.6 -125.2 -242.85 -122.9 -246.55 -121.15 -251.6 -118.95 -263.3 -114.0 -266.55 -112.25 -273.3 -108.6 -273.3 -105.75 -273.3 -100.45 -265.45 -97.1 -259.3 -94.55 -246.05 -92.4 L-221.6 -88.7 Q-212.0 -87.15 -205.05 -85.25 L-202.5 -84.55 -191.65 -83.65 -184.0 -83.6 -183.75 -83.6 -177.9 -83.55 -123.6 -78.45 -87.9 -75.1 -84.05 -75.0 Q-66.35 -73.8 -55.95 -74.45 L-37.75 -74.25 -22.85 -75.8 -17.25 -75.15 -16.35 -75.25 Q-10.95 -75.75 -2.75 -73.3 5.1 -70.95 10.8 -67.35 L12.4 -66.25 12.6 -66.25 12.6 -66.2 12.6 -66.1 14.45 -64.65 Q17.0 -62.3 17.0 -60.2 17.0 -58.55 15.65 -57.75 14.65 -57.15 13.2 -57.15 10.4 -57.15 5.3 -59.65 L1.95 -61.25 -2.05 -62.3 Q3.8 -65.4 3.8 -67.5 L3.8 -67.7 4.1 -68.3 3.65 -68.7 Q3.4 -69.5 2.8 -69.75 L2.45 -69.8 0.2 -71.65 Q-2.7 -73.0 -11.8 -74.1 L-14.4 -74.2 -16.8 -74.0 Q-17.25 -74.3 -17.25 -74.85 L-23.6 -75.0 -23.6 -74.8 -32.6 -74.1 -32.65 -74.1 -32.95 -74.05 -33.1 -74.1 -32.65 -74.1 -37.1 -74.15 -38.55 -74.0 -50.05 -73.85 -50.4 -74.0 -52.8 -74.1 -52.8 -73.9 -53.35 -73.85 -54.0 -73.85 -54.2 -73.8 -68.2 -73.0 -64.45 -72.55 -63.75 -72.5 Q-66.05 -71.9 -68.25 -70.75 -66.85 -69.4 -58.5 -67.85 L-62.2 -67.6 Q-61.15 -66.55 -56.85 -65.3 -63.55 -66.2 -67.2 -65.5 L-67.2 -64.55 Q-65.15 -63.65 -58.65 -62.2 -51.95 -60.7 -47.2 -60.4 L-48.4 -59.6 -50.25 -59.15 -50.9 -58.6 -50.3 -57.8 -46.15 -57.7 -48.0 -56.5 -46.55 -56.15 -44.6 -56.0 -34.5 -56.55 -31.85 -57.25 -29.2 -57.0 -28.4 -57.2 -28.25 -57.55 -28.2 -57.85 -27.45 -57.8 -27.4 -57.75 Q-25.9 -57.1 -23.2 -57.1 L-20.5 -57.15 -20.15 -57.15 -20.3 -57.15 Q-13.2 -57.6 -6.95 -60.0 -7.25 -57.35 -9.35 -55.4 -10.65 -54.2 -12.65 -53.25 -17.95 -50.8 -30.15 -49.4 L-59.6 -47.25 -101.3 -44.45 -134.45 -44.45 -136.55 -44.9 -167.7 -45.05 Q-188.3 -47.15 -210.0 -50.4 -234.4 -54.05 -260.2 -59.15 -286.95 -64.45 -304.95 -69.85 -317.2 -73.55 -325.4 -77.25 -326.7 -75.8 -328.65 -75.8 -335.85 -75.8 -343.05 -85.0 -345.4 -88.0 -347.35 -91.5 L-347.5 -91.75 Q-346.2 -92.45 -343.55 -94.1 -338.85 -97.1 -335.6 -97.6 -329.3 -98.65 -322.55 -100.4 L-311.8 -102.8 -311.1 -103.7 Q-311.5 -104.9 -312.5 -106.1 -311.4 -107.2 -310.35 -107.65 -308.6 -108.45 -303.3 -108.6 -302.4 -107.7 -302.15 -106.75 L-301.9 -105.6 Q-300.2 -106.4 -293.15 -112.5 -285.9 -118.85 -285.9 -120.0 L-286.0 -120.9 -288.5 -121.15 -289.6 -121.4 Q-289.1 -122.35 -290.0 -123.1 L-290.4 -122.9 Q-290.4 -125.5 -296.85 -127.15 -303.35 -128.85 -303.35 -132.0 L-303.0 -133.45 -302.95 -133.5 -303.25 -133.5 Q-310.4 -135.5 -318.75 -135.5 L-321.8 -134.85 -329.85 -135.65 -346.6 -138.0 -349.2 -137.75 Q-352.4 -137.75 -360.85 -140.95 L-362.1 -141.45 -371.1 -144.85 -374.85 -145.95 -375.55 -146.1 Q-378.15 -146.85 -380.7 -150.2 L-380.85 -150.35 -381.15 -150.8 Q-384.0 -154.7 -384.0 -157.1 -384.0 -161.0 -380.1 -163.7 -373.85 -170.2 -352.2 -174.55 L-347.75 -175.35 Q-346.65 -175.9 -344.9 -176.1 L-343.15 -176.15 -340.85 -176.5 -340.55 -176.6 -338.85 -176.8 Q-335.35 -178.3 -327.25 -179.6 L-320.6 -180.6 -308.35 -181.85 -322.8 -179.85 Q-338.2 -177.45 -338.2 -175.7 -327.9 -166.5 -323.45 -166.5 L-320.2 -167.85 M-348.1 -98.25 Q-346.95 -100.7 -344.05 -102.7 L-348.1 -98.25 M-334.15 -107.2 L-324.45 -111.35 Q-321.85 -112.5 -315.6 -113.85 L-311.3 -114.65 -322.8 -110.8 -334.15 -107.2 M-297.55 -183.3 L-294.8 -183.6 -294.7 -183.5 -294.6 -182.85 -294.6 -182.6 -293.85 -182.25 -285.75 -181.65 -285.75 -181.6 -285.95 -181.4 -282.95 -181.45 -285.05 -180.55 -287.3 -179.7 Q-287.95 -179.05 -289.2 -178.7 L-289.4 -178.65 Q-289.95 -176.9 -293.4 -176.4 L-293.7 -176.35 -294.05 -176.35 -296.3 -176.25 Q-293.3 -177.5 -293.3 -179.25 -293.3 -180.15 -294.15 -181.35 -295.05 -182.65 -296.2 -183.3 L-297.55 -183.3 M-301.35 -174.75 Q-303.9 -173.55 -308.9 -171.75 L-317.75 -168.85 -309.3 -172.4 -301.35 -174.75 M-338.3 -173.6 L-338.0 -173.15 -338.1 -173.35 -338.3 -173.6 M-341.55 -161.25 L-341.85 -160.85 -341.5 -160.6 -341.4 -160.6 -341.55 -161.25" fill="#13e1ec" fill-rule="evenodd" stroke="none"/>
    <path d="M-2.05 -62.3 L-3.6 -61.5 Q-5.25 -60.7 -6.95 -60.0 -13.2 -57.6 -20.3 -57.15 L-20.15 -57.15 -20.5 -57.15 -23.2 -57.1 Q-25.9 -57.1 -27.4 -57.75 L-27.45 -57.8 -28.2 -57.85 -28.25 -57.55 -28.4 -57.2 -29.2 -57.0 -31.85 -57.25 -34.5 -56.55 -44.6 -56.0 -46.55 -56.15 -48.0 -56.5 -46.15 -57.7 -50.3 -57.8 -50.9 -58.6 -50.25 -59.15 -48.4 -59.6 -47.2 -60.4 Q-51.95 -60.7 -58.65 -62.2 -65.15 -63.65 -67.2 -64.55 L-67.2 -65.5 Q-63.55 -66.2 -56.85 -65.3 -61.15 -66.55 -62.2 -67.6 L-58.5 -67.85 Q-66.85 -69.4 -68.25 -70.75 -66.05 -71.9 -63.75 -72.5 L-64.45 -72.55 -68.2 -73.0 -54.2 -73.8 -54.0 -73.85 -53.35 -73.85 -52.8 -73.9 -52.8 -74.1 -50.4 -74.0 -50.05 -73.85 -38.55 -74.0 -37.1 -74.15 -32.65 -74.1 -33.1 -74.1 -32.95 -74.05 -32.65 -74.1 -32.6 -74.1 -23.6 -74.8 -23.6 -75.0 -17.25 -74.85 Q-17.25 -74.3 -16.8 -74.0 L-14.4 -74.2 -11.8 -74.1 Q-2.7 -73.0 0.2 -71.65 L2.45 -69.8 2.8 -69.75 Q3.4 -69.5 3.65 -68.7 L4.1 -68.3 3.8 -67.7 3.8 -67.5 Q3.8 -65.4 -2.05 -62.3 M-347.5 -91.75 L-348.6 -91.3 Q-349.7 -91.3 -350.1 -92.6 L-350.3 -94.05 Q-350.3 -95.45 -348.1 -98.25 L-344.05 -102.7 -343.7 -103.1 Q-342.35 -104.45 -335.05 -106.95 L-334.15 -107.2 -322.8 -110.8 -311.3 -114.65 -304.5 -117.15 Q-294.4 -120.85 -290.4 -122.9 L-290.0 -123.1 Q-289.1 -122.35 -289.6 -121.4 L-288.5 -121.15 -286.0 -120.9 -285.9 -120.0 Q-285.9 -118.85 -293.15 -112.5 -300.2 -106.4 -301.9 -105.6 L-302.15 -106.75 Q-302.4 -107.7 -303.3 -108.6 -308.6 -108.45 -310.35 -107.65 -311.4 -107.2 -312.5 -106.1 -311.5 -104.9 -311.1 -103.7 L-311.8 -102.8 -322.55 -100.4 Q-329.3 -98.65 -335.6 -97.6 -338.85 -97.1 -343.55 -94.1 -346.2 -92.45 -347.5 -91.75 M-308.35 -181.85 L-304.95 -182.35 -300.4 -183.05 -299.6 -183.2 -297.55 -183.3 -296.2 -183.3 Q-295.05 -182.65 -294.15 -181.35 -293.3 -180.15 -293.3 -179.25 -293.3 -177.5 -296.3 -176.25 L-298.15 -175.65 -301.35 -174.75 -309.3 -172.4 -317.75 -168.85 -320.2 -167.85 -323.45 -166.5 Q-327.9 -166.5 -338.2 -175.7 -338.2 -177.45 -322.8 -179.85 L-308.35 -181.85 M-338.3 -173.6 L-338.1 -173.35 -338.0 -173.15 -338.3 -173.6 M-348.9 -94.0 L-348.3 -92.8 -348.1 -92.95 -348.4 -93.5 -348.75 -94.2 -348.9 -94.0" fill="#0fb8f0" fill-rule="evenodd" stroke="none"/>
    <path d="M-303.25 -133.5 L-303.2 -133.5 -305.45 -133.6 -321.1 -134.8 -321.8 -134.85 -318.75 -135.5 Q-310.4 -135.5 -303.25 -133.5" fill="#a0f7fe" fill-rule="evenodd" stroke="none"/>
  </g>
</svg>
