<?xml version="1.0" encoding="UTF-8" standalone="no"?>
<svg xmlns:ffdec="https://www.free-decompiler.com/flash" xmlns:xlink="http://www.w3.org/1999/xlink" ffdec:objectType="shape" height="239.15px" width="179.55px" xmlns="http://www.w3.org/2000/svg">
  <g transform="matrix(1.0, 0.0, 0.0, 1.0, 62.25, 339.8)">
    <path d="M112.4 -334.75 Q112.05 -335.8 112.05 -336.5 112.05 -338.35 113.45 -339.1 114.55 -339.8 116.8 -339.8 L117.1 -339.7 117.3 -339.45 117.3 -339.15 117.15 -338.9 Q116.65 -338.5 115.0 -337.8 L114.0 -336.85 114.15 -336.75 115.2 -335.55 115.3 -335.3 Q115.35 -334.8 114.35 -333.25 L114.1 -333.1 113.85 -333.05 113.0 -333.15 Q112.85 -333.15 112.75 -333.25 L112.6 -333.45 112.55 -333.7 112.4 -334.75 M83.1 -192.7 L83.25 -192.95 83.6 -193.2 83.9 -193.3 85.05 -193.3 85.4 -193.15 85.7 -192.9 85.65 -192.95 Q86.15 -192.7 86.15 -191.6 L86.05 -191.3 85.8 -191.1 85.65 -191.1 Q85.35 -190.75 85.15 -189.05 L85.15 -189.0 84.9 -187.5 Q84.7 -186.7 84.8 -186.1 L84.75 -185.85 84.6 -185.6 84.3 -185.55 83.95 -185.3 83.75 -185.2 83.55 -185.15 81.15 -185.15 80.85 -185.25 80.65 -185.55 80.55 -186.3 80.55 -186.45 80.45 -186.65 80.1 -187.9 80.1 -188.15 80.2 -188.4 80.45 -188.55 80.95 -188.65 81.2 -188.6 81.4 -188.5 82.4 -187.0 Q83.4 -187.55 83.45 -188.85 83.55 -190.75 83.85 -191.7 83.05 -191.95 83.05 -192.45 L83.1 -192.7 M-61.9 -260.3 L-62.15 -260.5 -62.25 -260.8 Q-62.25 -261.4 -61.85 -261.95 L-61.15 -262.85 -60.95 -263.0 -59.0 -263.2 -57.4 -263.05 -57.15 -263.0 -56.95 -262.85 -56.35 -262.1 -56.25 -261.8 Q-56.2 -261.55 -56.9 -260.35 L-57.1 -260.2 -57.35 -260.15 Q-58.15 -260.05 -58.15 -261.1 L-58.15 -261.35 -58.35 -261.45 -59.35 -261.65 -59.8 -261.55 Q-60.05 -260.7 -61.6 -260.3 L-61.9 -260.3 M-36.85 -106.1 L-36.6 -106.0 -35.2 -104.75 Q-34.6 -104.35 -34.6 -103.4 -34.6 -102.5 -34.95 -101.85 L-35.4 -100.9 -35.55 -100.7 -35.85 -100.65 -36.25 -100.65 -36.55 -100.75 -36.75 -101.05 Q-36.95 -102.65 -36.55 -103.35 L-37.4 -104.05 -37.45 -104.1 -37.85 -104.8 Q-37.85 -105.95 -37.55 -106.05 L-36.85 -106.1" fill="#00ffff" fill-opacity="0.5019608" fill-rule="evenodd" stroke="none"/>
    <path d="M114.8 -338.25 Q113.75 -337.8 113.4 -336.65 L113.85 -336.35 114.8 -335.3 Q114.8 -334.9 113.9 -333.55 L113.05 -333.65 112.85 -334.9 Q112.55 -335.85 112.55 -336.5 112.55 -338.05 113.7 -338.7 114.7 -339.3 116.8 -339.3 116.35 -338.9 114.8 -338.25 M83.9 -192.8 L85.05 -192.8 85.35 -192.55 Q85.65 -192.35 85.65 -191.6 L85.3 -191.45 Q84.9 -191.05 84.65 -189.05 L84.4 -187.6 Q84.2 -186.7 84.3 -186.05 83.9 -186.05 83.55 -185.65 L81.15 -185.65 81.05 -186.4 81.15 -186.5 80.9 -186.9 80.55 -188.05 81.05 -188.15 82.05 -186.55 82.3 -186.4 Q83.9 -187.05 83.95 -188.85 84.05 -191.25 84.55 -192.05 L84.1 -192.15 83.55 -192.55 83.9 -192.8 M-61.45 -261.65 L-60.75 -262.55 -59.1 -262.7 -57.35 -262.55 -56.75 -261.8 -57.35 -260.65 Q-57.65 -260.65 -57.65 -261.15 L-57.5 -261.65 -58.15 -261.9 -59.35 -262.15 Q-60.15 -262.15 -60.3 -261.7 -60.5 -261.1 -61.75 -260.8 L-61.45 -261.65 M-37.0 -105.65 L-35.5 -104.35 Q-35.1 -104.05 -35.1 -103.4 -35.1 -102.65 -35.4 -102.1 L-35.85 -101.15 -36.25 -101.15 Q-36.5 -102.95 -35.85 -103.4 L-37.1 -104.45 -37.35 -104.8 -37.25 -105.65 -37.0 -105.65" fill="#ffffff" fill-opacity="0.9019608" fill-rule="evenodd" stroke="none"/>
  </g>
</svg>
