<?xml version="1.0" encoding="UTF-8" standalone="no"?>
<svg xmlns:ffdec="https://www.free-decompiler.com/flash" xmlns:xlink="http://www.w3.org/1999/xlink" ffdec:objectType="shape" height="132.8px" width="401.0px" xmlns="http://www.w3.org/2000/svg">
  <g transform="matrix(1.0, 0.0, 0.0, 1.0, 384.0, 183.2)">
    <path d="M12.6 -66.1 L14.45 -64.65 Q17.0 -62.3 17.0 -60.2 17.0 -58.55 15.65 -57.75 14.65 -57.15 13.2 -57.15 10.4 -57.15 5.3 -59.65 L1.95 -61.25 Q0.1 -61.5 -3.55 -62.8 L-6.95 -61.95 -6.9 -60.95 Q-6.9 -57.7 -9.35 -55.4 -15.2 -55.65 -20.15 -57.15 L-20.4 -57.2 -15.3 -57.4 Q-14.2 -56.3 -13.6 -56.3 -11.25 -56.3 -9.9 -57.3 -8.8 -58.1 -8.8 -59.1 -8.8 -59.9 -9.55 -60.45 L-10.8 -61.0 -11.95 -60.7 -12.75 -60.75 -13.0 -61.0 -12.8 -61.2 -15.3 -61.1 -16.65 -61.0 -16.75 -61.0 -16.8 -61.0 -17.3 -61.0 -17.25 -61.0 -18.8 -61.0 Q-20.2 -61.0 -20.6 -61.4 -20.35 -61.5 -18.0 -62.75 L-18.9 -62.65 -26.2 -61.7 -26.8 -61.75 Q-27.45 -61.8 -27.6 -62.0 L-23.6 -62.95 -23.8 -63.4 -23.8 -64.9 -25.45 -65.3 -27.55 -65.6 -26.5 -66.2 -25.8 -66.6 -26.15 -66.7 -28.3 -67.4 -24.9 -69.15 -24.25 -69.5 -29.6 -69.4 -31.5 -69.6 -32.8 -70.0 -30.4 -70.75 -27.4 -71.05 -27.4 -71.15 -27.35 -71.25 -33.6 -71.3 -40.4 -71.6 -41.0 -71.9 -32.5 -72.75 -34.15 -72.85 -42.4 -72.3 -42.8 -72.3 -54.8 -72.1 -58.85 -72.15 -59.6 -72.1 -64.9 -72.3 -65.15 -72.45 -65.4 -72.5 -72.35 -72.15 -76.95 -72.3 -82.95 -72.75 -88.9 -73.25 -90.8 -73.4 -91.25 -73.45 -91.8 -73.5 -94.05 -73.7 -96.75 -73.95 -97.4 -74.05 -105.5 -74.8 -111.7 -75.4 -120.0 -75.1 -135.5 -76.3 -144.0 -77.6 -150.5 -78.15 -152.6 -78.05 -152.8 -78.15 -154.3 -78.55 -154.8 -78.6 -165.2 -78.6 -179.75 -79.8 -182.8 -79.95 Q-184.9 -80.95 -188.5 -81.3 L-203.6 -83.1 -211.95 -83.5 -223.1 -85.1 -229.85 -87.15 -240.75 -88.95 Q-266.65 -93.65 -276.9 -98.2 L-277.5 -98.0 -279.4 -98.9 -280.0 -98.6 Q-283.95 -100.5 -284.7 -101.6 -284.95 -101.95 -285.0 -103.3 L-285.2 -101.7 -285.9 -101.6 -286.25 -102.85 -286.5 -104.15 Q-286.5 -105.25 -285.6 -105.7 L-284.95 -105.6 -284.85 -106.25 Q-284.55 -107.1 -282.8 -108.1 L-282.05 -107.85 -282.0 -107.8 -281.35 -108.25 Q-279.15 -109.75 -278.2 -109.5 L-279.6 -108.45 -275.2 -110.85 -256.55 -118.85 Q-243.95 -124.15 -237.95 -127.95 -233.75 -130.6 -231.65 -133.1 L-231.9 -133.1 -232.05 -132.95 -232.2 -133.55 -232.1 -135.2 -232.8 -135.1 -233.1 -135.8 -233.6 -135.4 -234.6 -135.5 -234.6 -137.3 Q-233.6 -137.3 -233.2 -136.65 L-233.2 -136.7 -232.8 -137.4 -234.0 -139.1 -231.85 -138.55 -231.8 -139.45 Q-233.75 -141.2 -237.75 -142.25 L-240.35 -142.8 -248.6 -143.85 Q-273.55 -146.7 -283.65 -150.6 L-284.2 -150.8 -286.3 -151.15 -286.3 -151.2 -287.25 -151.3 -287.35 -151.3 -288.75 -151.5 Q-294.45 -152.4 -302.6 -155.1 -309.05 -157.25 -312.4 -157.85 L-315.85 -158.4 -316.4 -158.5 -320.25 -160.5 Q-324.8 -162.9 -324.8 -166.35 L-324.45 -167.55 -323.8 -168.55 Q-319.85 -171.05 -306.7 -174.5 L-306.6 -174.3 -306.75 -174.2 -305.55 -174.6 -300.2 -176.05 -293.7 -177.25 -292.65 -179.4 -297.1 -179.5 Q-291.1 -180.8 -291.1 -181.2 L-291.05 -181.7 -290.9 -182.1 -285.75 -181.65 -285.75 -181.6 -285.95 -181.4 -285.6 -181.4 -285.05 -180.55 -287.3 -179.7 Q-287.95 -179.05 -289.2 -178.7 L-289.4 -178.65 Q-289.95 -176.9 -293.4 -176.4 L-293.7 -176.35 -294.05 -176.35 -297.3 -176.25 -300.4 -175.25 Q-302.9 -173.9 -308.9 -171.75 -315.55 -169.4 -319.85 -168.3 L-320.6 -167.2 Q-318.9 -162.05 -305.75 -158.1 -295.95 -155.15 -272.5 -151.3 -247.25 -147.15 -239.25 -145.1 -224.15 -141.2 -224.15 -136.2 -224.15 -133.95 -228.35 -130.85 -230.4 -129.0 -234.6 -126.8 -237.6 -125.2 -242.85 -122.9 -246.55 -121.15 -251.6 -118.95 -263.3 -114.0 -266.55 -112.25 -273.3 -108.6 -273.3 -105.75 -273.3 -100.45 -265.45 -97.1 -259.3 -94.55 -246.05 -92.4 L-221.6 -88.7 -211.1 -86.7 -187.05 -83.6 -184.0 -83.6 -183.75 -83.6 -177.9 -83.55 -123.6 -78.45 -87.9 -75.1 -84.05 -75.0 -79.8 -74.7 -79.9 -74.8 -69.4 -74.4 -62.55 -74.2 -55.95 -74.45 -50.8 -74.4 -42.15 -74.9 -31.8 -75.7 -32.1 -75.9 Q-31.5 -76.35 -30.4 -77.3 -29.4 -78.1 -28.2 -78.3 -28.05 -78.1 -28.25 -77.7 L-28.5 -77.1 -28.2 -76.7 -27.55 -77.35 Q-26.95 -77.85 -26.2 -77.9 -26.0 -77.6 -26.4 -77.0 -27.15 -76.9 -26.15 -76.9 -25.9 -76.9 -22.1 -78.95 -18.45 -80.95 -17.2 -80.8 L-23.05 -77.0 Q-21.15 -77.35 -20.0 -76.4 -20.3 -76.1 -20.95 -75.8 L-13.0 -75.3 Q-8.6 -75.05 -2.75 -73.3 5.1 -70.95 10.8 -67.35 L12.4 -66.25 12.6 -66.25 12.6 -66.2 12.6 -66.1 M3.8 -68.9 L3.7 -69.5 Q0.85 -70.75 -0.55 -71.05 L-0.95 -71.15 -0.2 -70.7 Q1.75 -69.5 2.0 -68.2 L1.6 -67.4 2.2 -67.55 2.5 -67.9 1.8 -68.8 2.3 -68.9 2.65 -68.7 3.8 -68.9 M-332.0 -178.75 L-327.25 -179.6 -320.6 -180.6 -311.65 -181.6 -305.55 -182.2 Q-300.4 -183.35 -297.25 -183.15 L-299.0 -182.75 -297.5 -182.9 Q-297.5 -182.15 -298.0 -182.0 L-310.35 -180.7 -318.95 -179.85 -319.5 -179.7 -319.55 -179.7 -319.75 -179.65 -322.95 -179.4 -331.15 -177.6 -343.2 -174.9 -353.95 -172.1 Q-360.3 -170.5 -363.7 -170.05 -366.8 -168.85 -369.8 -167.3 -377.4 -163.4 -380.45 -159.9 L-378.95 -158.75 Q-378.7 -157.35 -376.9 -155.05 -374.55 -152.0 -370.9 -149.3 -366.0 -145.7 -360.6 -143.9 -361.35 -142.95 -361.1 -141.65 L-360.85 -140.95 -362.1 -141.45 -371.1 -144.85 -370.05 -148.2 -369.8 -148.35 Q-376.05 -147.6 -380.7 -150.5 -379.0 -148.2 -375.55 -146.1 -378.15 -146.85 -380.7 -150.2 L-380.85 -150.35 -381.15 -150.8 Q-384.0 -154.7 -384.0 -157.1 -384.0 -161.0 -380.1 -163.7 -375.25 -168.75 -361.0 -172.5 -353.35 -174.8 -340.1 -177.3 L-332.0 -178.75 M-331.2 -109.8 L-308.0 -115.75 Q-292.95 -119.35 -291.4 -121.2 L-291.25 -121.1 -290.6 -121.9 -290.65 -121.95 Q-290.65 -122.5 -290.15 -122.95 L-290.6 -123.4 -290.4 -124.0 Q-289.2 -124.25 -288.55 -123.4 L-288.2 -122.75 -288.1 -123.25 Q-288.1 -123.75 -288.5 -124.1 -287.75 -124.35 -287.45 -123.65 -287.2 -122.95 -287.55 -122.45 L-286.7 -122.4 Q-286.55 -122.1 -286.55 -121.55 -286.45 -122.3 -286.65 -123.1 L-286.4 -123.25 Q-285.9 -123.05 -285.9 -122.0 L-285.95 -120.95 -287.0 -119.7 -287.2 -120.0 Q-287.35 -118.85 -288.4 -118.5 L-288.9 -118.4 Q-289.6 -117.45 -289.95 -117.25 -290.4 -117.0 -294.2 -115.9 L-293.6 -116.65 -294.0 -116.6 -294.6 -116.6 -295.4 -116.45 -298.5 -115.8 Q-302.95 -114.3 -309.9 -112.5 -319.5 -110.0 -330.7 -107.6 -339.2 -105.0 -344.3 -100.85 -350.1 -96.15 -347.7 -92.0 L-348.0 -91.75 -348.8 -91.7 Q-349.9 -91.7 -350.1 -93.1 L-350.1 -94.6 Q-350.1 -99.45 -345.35 -103.15 -340.95 -106.55 -331.2 -109.8 M-279.85 -99.75 L-279.7 -99.45 -279.7 -99.65 -279.85 -99.75 M-283.6 -68.7 L-265.35 -67.65 Q-259.95 -64.25 -242.85 -60.85 -231.55 -58.6 -214.8 -56.5 L-205.65 -56.5 Q-205.9 -54.85 -208.05 -52.3 L-210.0 -50.4 Q-234.4 -54.05 -260.2 -59.15 -286.95 -64.45 -304.95 -69.85 L-304.25 -69.9 -283.6 -68.7 M-21.65 -81.7 Q-22.5 -80.65 -23.2 -80.4 L-23.7 -80.4 -23.8 -81.05 Q-23.8 -82.05 -20.7 -83.3 L-21.65 -81.7 M-26.4 -80.0 L-25.9 -80.5 -25.2 -80.0 Q-25.35 -79.75 -25.8 -79.75 -26.25 -79.75 -26.4 -80.0" fill="#a0f7fe" fill-rule="evenodd" stroke="none"/>
  </g>
</svg>
