<?xml version="1.0" encoding="UTF-8" standalone="no"?>
<svg xmlns:ffdec="https://www.free-decompiler.com/flash" xmlns:xlink="http://www.w3.org/1999/xlink" ffdec:objectType="shape" height="127.15px" width="373.4px" xmlns="http://www.w3.org/2000/svg">
  <g transform="matrix(1.0, 0.0, 0.0, 1.0, 366.15, 180.65)">
    <path d="M-281.5 -82.5 L-281.8 -82.8 Q-283.7 -82.8 -286.7 -80.1 -286.7 -79.45 -285.95 -79.5 L-285.2 -79.7 Q-284.0 -80.9 -282.95 -80.25 -282.4 -79.85 -281.5 -82.5 M-263.3 -125.5 L-263.2 -125.6 -263.3 -125.5 M-254.05 -130.0 L-254.5 -130.0 -254.55 -129.15 -254.55 -128.7 -254.4 -128.65 -253.9 -128.8 -253.85 -128.75 -253.8 -129.15 -254.05 -130.0 M-328.9 -102.05 L-329.6 -101.45 -329.65 -100.65 -329.55 -99.5 -329.05 -99.5 Q-328.75 -99.85 -328.75 -100.75 -328.75 -101.6 -328.9 -102.05 M-364.3 -157.25 L-364.05 -157.65 Q-364.35 -158.75 -365.05 -158.55 -365.1 -157.95 -364.3 -157.25 M-354.2 -164.2 L-353.6 -164.1 -353.35 -164.3 Q-352.9 -164.4 -352.45 -164.7 L-351.9 -165.3 Q-354.05 -166.15 -355.0 -166.0 L-354.9 -164.6 Q-354.75 -164.4 -354.2 -164.3 L-354.2 -164.2 M-349.8 -164.7 L-349.9 -165.0 Q-350.2 -165.3 -351.2 -165.4 L-352.0 -164.6 -351.65 -164.4 -351.75 -164.35 -352.3 -163.95 -352.2 -163.35 -352.15 -163.4 -351.4 -163.3 Q-350.8 -163.3 -350.55 -163.55 L-350.15 -164.2 Q-349.75 -164.25 -349.7 -164.45 L-349.8 -164.7 M-352.2 -168.15 L-350.0 -169.35 -341.25 -171.3 -329.75 -173.75 -314.0 -176.25 -303.45 -178.9 -298.15 -180.2 -296.7 -180.5 -295.75 -180.65 -295.95 -180.5 -294.7 -180.2 Q-292.75 -179.5 -292.75 -178.45 L-292.85 -178.1 -292.55 -178.15 -292.5 -178.0 -293.0 -177.85 -293.85 -177.2 Q-294.95 -176.55 -296.0 -176.55 L-296.45 -176.6 -296.55 -176.8 -296.2 -177.1 -316.75 -172.0 -327.35 -169.45 -340.25 -165.8 -344.55 -165.4 -348.9 -164.5 -349.0 -163.7 Q-349.0 -163.25 -348.05 -163.1 L-348.15 -163.0 -348.35 -162.8 -349.0 -162.4 -348.8 -162.9 Q-349.7 -163.0 -350.35 -162.0 L-350.5 -161.75 -350.3 -162.25 -350.4 -162.5 Q-351.15 -162.2 -351.5 -161.5 L-352.05 -161.3 Q-352.7 -160.9 -352.75 -160.05 L-353.05 -160.05 -353.05 -159.0 Q-353.0 -158.75 -352.55 -158.45 L-352.5 -158.2 Q-352.4 -157.7 -351.75 -157.4 L-351.5 -157.05 -351.5 -156.9 -350.85 -156.2 -349.9 -155.5 -349.5 -155.6 -349.4 -155.7 -349.25 -155.55 Q-347.35 -153.75 -346.0 -153.75 L-345.3 -153.75 -345.25 -154.0 -345.9 -154.85 Q-343.05 -153.4 -338.55 -151.9 L-321.25 -147.1 -315.45 -146.0 -306.55 -143.75 Q-298.2 -142.0 -282.75 -139.95 L-282.75 -140.05 -282.05 -139.9 Q-268.0 -139.0 -255.65 -136.9 -246.05 -135.25 -242.0 -133.55 -239.7 -133.8 -239.05 -132.4 -238.8 -131.9 -238.8 -130.3 -238.8 -127.45 -246.8 -124.05 -251.05 -122.25 -255.4 -121.15 -256.8 -120.3 -259.45 -119.45 L-263.35 -118.25 -263.4 -118.3 -266.6 -118.0 -266.65 -117.95 Q-267.5 -118.5 -268.7 -117.95 L-269.9 -117.25 -270.75 -117.25 Q-270.45 -117.55 -270.3 -117.9 L-272.1 -117.6 -272.15 -117.55 -272.3 -117.65 -272.35 -117.65 -271.9 -118.0 Q-272.15 -118.4 -273.35 -118.4 L-273.8 -118.3 -273.4 -118.75 -273.8 -119.2 -273.3 -119.9 -273.55 -119.85 -270.65 -121.35 Q-267.45 -123.05 -264.75 -124.65 L-264.25 -124.55 -263.4 -125.15 -263.35 -125.0 -263.3 -125.05 Q-261.65 -125.45 -260.5 -126.2 L-260.4 -125.95 -260.0 -125.9 -259.55 -126.3 -259.25 -126.65 -258.85 -126.9 -258.8 -126.65 -258.5 -126.5 -257.75 -127.2 -257.6 -127.0 Q-257.55 -126.75 -257.25 -126.75 L-256.65 -127.15 -256.25 -127.65 -255.9 -127.4 Q-255.75 -127.95 -255.2 -128.3 L-254.9 -129.15 -254.85 -129.25 -255.6 -129.25 Q-255.8 -129.25 -256.6 -130.7 L-256.9 -130.45 -257.25 -130.0 -259.0 -131.0 -259.4 -130.65 -259.45 -130.5 -259.95 -130.8 Q-261.5 -131.7 -262.15 -131.65 L-261.65 -131.2 -262.35 -131.1 Q-263.1 -131.65 -264.0 -131.8 L-264.05 -131.75 -263.75 -131.4 Q-265.95 -132.4 -268.8 -133.0 L-269.75 -133.15 -277.25 -133.65 -281.25 -133.95 -282.5 -134.0 Q-294.25 -135.25 -303.35 -137.2 L-314.35 -139.5 -314.05 -139.4 -314.0 -139.35 -314.4 -139.3 -329.2 -142.8 Q-343.9 -146.35 -348.05 -147.55 -351.7 -148.65 -357.6 -151.55 -363.35 -154.35 -365.05 -156.4 L-364.8 -156.5 -364.65 -157.0 -365.3 -159.0 Q-365.65 -159.75 -366.15 -159.8 -365.4 -163.05 -359.5 -165.95 L-357.85 -166.7 -357.8 -166.6 -357.55 -166.55 -357.5 -166.4 -357.4 -166.5 -355.9 -166.3 -355.85 -166.3 -355.35 -166.45 -355.1 -166.6 -355.1 -166.65 -352.2 -168.15 M6.05 -65.7 L7.25 -64.9 Q5.3 -63.95 -5.15 -61.45 -13.35 -59.5 -16.05 -59.1 -22.0 -57.6 -36.05 -56.4 L-74.0 -53.5 -83.5 -53.5 -86.65 -53.7 -87.6 -53.75 -88.0 -53.75 -91.8 -53.85 -95.5 -54.05 -102.5 -54.25 -135.5 -57.25 -155.25 -57.0 -156.8 -57.0 Q-157.05 -56.75 -157.5 -56.75 L-179.75 -58.5 -205.4 -61.15 -205.55 -61.3 -209.75 -61.9 -212.0 -62.15 -212.7 -62.2 -213.5 -62.4 -216.75 -62.65 -217.45 -62.7 -218.25 -62.9 -220.75 -63.15 -222.1 -63.2 -222.05 -63.15 -223.6 -63.0 Q-226.8 -63.0 -240.0 -65.45 -251.9 -67.65 -258.4 -69.5 L-259.0 -69.5 Q-261.7 -69.5 -273.8 -72.9 L-287.15 -76.9 -292.55 -78.65 -291.2 -78.6 -290.8 -79.2 -294.2 -79.5 -294.2 -79.4 -295.35 -79.5 -298.7 -80.55 Q-302.2 -81.8 -304.65 -82.95 L-304.75 -82.9 -319.05 -89.7 Q-328.8 -94.85 -330.7 -98.55 L-330.5 -98.5 -330.05 -98.55 -330.05 -98.65 -329.55 -102.75 Q-327.7 -104.6 -323.45 -106.05 -312.65 -108.85 -306.4 -111.0 -301.2 -112.8 -286.7 -116.1 L-282.5 -117.1 -282.55 -117.05 -281.75 -116.8 -279.6 -117.5 -279.45 -117.5 -278.65 -117.65 -276.35 -117.25 -276.2 -117.2 -276.15 -117.0 -275.75 -117.0 -275.75 -116.75 -275.3 -116.1 -274.6 -116.0 -274.5 -116.0 -273.85 -115.6 -274.55 -115.05 Q-274.85 -114.9 -274.25 -114.9 L-273.35 -114.95 -275.8 -114.1 Q-279.85 -112.65 -283.4 -111.65 -295.0 -108.3 -300.0 -105.95 -304.05 -104.05 -305.9 -102.0 L-306.05 -102.25 Q-307.1 -101.95 -307.7 -101.05 L-308.0 -100.4 -308.75 -100.5 -309.4 -100.35 -309.5 -99.5 Q-309.5 -98.9 -308.75 -98.15 L-308.25 -98.8 -308.2 -98.15 Q-308.0 -97.35 -307.25 -97.0 -307.15 -97.0 -306.95 -97.15 L-306.8 -96.65 Q-305.4 -93.7 -297.4 -90.7 L-284.1 -86.4 -283.05 -85.4 -282.0 -84.7 -281.6 -85.0 -281.55 -85.1 -281.45 -85.15 -280.95 -85.3 -265.9 -80.3 -256.65 -77.3 -242.6 -74.25 -231.15 -71.8 Q-229.9 -71.0 -227.6 -70.45 L-222.9 -69.7 -223.3 -69.6 -199.75 -67.7 -184.75 -66.1 Q-181.6 -66.55 -178.25 -66.05 L-168.5 -64.4 -160.9 -64.15 -146.25 -64.4 -135.0 -63.75 -134.9 -63.7 -134.15 -63.65 -122.05 -63.5 -107.5 -61.95 -91.35 -60.35 -89.95 -60.55 -86.0 -60.75 -85.15 -60.65 -76.5 -60.5 -75.25 -60.35 -74.5 -60.25 -58.3 -61.0 -46.75 -62.5 -46.6 -62.45 -39.75 -63.7 -19.75 -66.4 -19.15 -66.5 -17.0 -66.5 -10.6 -66.85 -10.55 -66.3 Q-10.35 -65.55 -8.5 -65.85 L-8.35 -65.9 -8.25 -65.6 -6.45 -65.75 -6.5 -65.4 -6.3 -64.5 -6.1 -64.5 Q-9.3 -63.4 -9.75 -62.85 L-9.0 -62.75 -2.25 -63.85 -1.5 -63.85 -0.75 -64.2 0.45 -64.5 4.0 -64.5 4.65 -64.9 4.75 -64.85 Q5.55 -64.85 5.8 -65.2 L6.05 -65.7" fill="#13e1ec" fill-rule="evenodd" stroke="none"/>
  </g>
</svg>
