<?xml version="1.0" encoding="UTF-8" standalone="no"?>
<svg xmlns:ffdec="https://www.free-decompiler.com/flash" xmlns:xlink="http://www.w3.org/1999/xlink" ffdec:objectType="shape" height="268.35px" width="327.8px" xmlns="http://www.w3.org/2000/svg">
  <g transform="matrix(1.0, 0.0, 0.0, 1.0, 165.35, 239.9)">
    <path d="M64.0 -233.0 L63.75 -232.5 63.7 -232.45 63.65 -232.4 Q63.45 -231.6 62.05 -231.6 60.95 -231.55 60.05 -232.85 L58.3 -234.5 Q57.05 -235.25 55.2 -235.65 L51.75 -236.35 51.4 -236.35 51.15 -236.5 Q51.0 -236.6 51.15 -236.65 50.15 -237.45 50.35 -238.2 50.3 -238.6 50.55 -238.9 L51.05 -239.35 Q55.8 -240.65 60.15 -238.9 64.5 -236.9 64.15 -234.15 L64.0 -233.4 64.0 -233.0 M17.6 -21.05 L21.4 -18.45 21.85 -18.2 Q22.05 -17.9 21.85 -17.5 L21.45 -17.3 20.8 -17.3 Q19.95 -17.2 16.95 -19.0 13.55 -21.1 12.55 -22.7 12.35 -22.95 12.5 -22.95 L12.65 -23.4 13.05 -23.5 13.55 -23.55 13.95 -23.5 17.6 -21.05 M149.3 -54.9 Q151.95 -56.65 155.95 -59.85 L161.55 -64.25 Q161.65 -64.45 161.9 -64.4 L162.35 -64.25 162.45 -64.0 162.4 -63.55 Q158.15 -56.3 135.85 -44.55 L135.3 -44.45 Q135.0 -44.55 134.95 -44.7 134.75 -44.95 134.9 -45.15 L135.2 -45.5 141.85 -50.1 Q146.15 -53.1 149.3 -54.9 M23.35 25.75 L22.35 27.4 21.1 28.4 20.85 28.45 20.5 28.45 20.3 28.4 Q19.7 28.35 19.85 27.55 19.7 27.1 20.7 26.2 21.4 25.35 22.25 24.95 22.4 24.75 22.7 24.75 L23.0 24.95 Q23.35 24.9 23.35 25.75 M-162.4 -34.45 L-162.55 -34.25 -162.9 -34.05 -163.05 -33.95 -163.3 -33.85 -163.65 -33.9 -164.55 -34.3 -165.2 -35.35 Q-165.75 -36.9 -164.55 -37.0 L-164.15 -37.0 -163.15 -36.3 -163.05 -36.3 -162.55 -35.55 -162.35 -35.15 -162.4 -34.45 M-49.7 -18.95 L-58.3 -16.25 -58.6 -16.25 -58.9 -16.4 -59.05 -16.55 -59.35 -16.8 -59.3 -17.2 -59.1 -17.4 Q-56.9 -18.9 -51.15 -20.75 -44.3 -23.2 -41.95 -24.2 -29.1 -30.0 -25.2 -31.4 L-24.85 -31.4 -24.5 -31.15 Q-24.35 -31.0 -24.35 -30.75 L-24.5 -30.45 Q-26.2 -28.65 -32.5 -25.8 L-42.15 -21.75 -42.2 -21.7 -49.7 -18.95 M-30.35 -46.0 L-30.55 -45.95 -31.15 -46.0 -31.2 -46.0 Q-32.65 -46.1 -32.5 -46.65 L-32.55 -47.1 -32.35 -47.3 Q-31.75 -47.7 -29.45 -48.3 L-26.6 -49.05 -26.1 -49.05 -25.85 -48.7 -25.7 -48.3 -25.95 -47.95 -27.7 -46.85 -30.35 -46.0 M-117.45 21.95 L-117.05 22.05 -113.5 23.75 -109.2 25.7 -108.9 26.0 -108.8 26.35 -109.1 26.6 -109.5 26.6 -113.25 25.0 -117.05 23.2 -117.1 23.2 -117.85 22.45 -117.75 22.05 -117.45 21.95 M-125.7 16.5 L-125.45 16.3 -125.1 16.3 Q-124.35 16.4 -123.3 17.65 L-123.2 17.95 -123.3 18.2 -123.45 18.45 -123.7 18.6 -124.1 18.6 -124.35 18.45 -125.3 17.65 -125.35 17.65 Q-125.7 17.35 -125.7 16.8 L-125.7 16.5" fill="#66ff66" fill-opacity="0.34901962" fill-rule="evenodd" stroke="none"/>
    <path d="M63.1 -233.45 L63.0 -232.95 62.15 -232.6 Q61.35 -232.75 60.6 -233.55 59.55 -235.05 58.7 -235.45 57.45 -236.3 55.4 -236.65 L51.85 -237.5 51.55 -237.65 51.2 -238.2 Q55.7 -239.55 59.75 -237.75 63.3 -236.2 63.3 -234.15 L63.1 -233.3 63.1 -233.45 M20.8 -17.8 Q20.05 -17.8 17.3 -19.5 14.15 -21.4 13.1 -22.9 L13.6 -22.95 17.2 -20.5 21.2 -18.0 Q21.55 -17.8 20.8 -17.8 M149.6 -54.35 L156.35 -59.4 161.8 -63.75 Q157.5 -56.7 135.55 -45.1 137.8 -46.8 142.1 -49.6 146.45 -52.55 149.6 -54.35 M21.1 26.55 Q21.85 25.7 22.6 25.3 L22.65 25.4 22.7 25.75 21.85 27.05 20.85 27.95 20.5 27.95 Q20.3 27.9 20.45 27.55 20.35 27.2 21.1 26.55 M-164.15 -36.35 L-163.6 -36.0 -163.1 -35.3 -163.1 -34.65 Q-163.3 -34.7 -163.55 -34.4 L-164.15 -34.65 -164.5 -35.35 Q-164.85 -36.4 -164.15 -36.35 M-41.7 -23.55 Q-28.85 -29.45 -25.05 -30.85 -26.65 -29.05 -32.8 -26.3 L-42.5 -22.2 -50.0 -19.55 Q-53.1 -18.5 -58.55 -16.8 L-58.65 -16.9 Q-56.5 -18.4 -50.95 -20.25 L-41.7 -23.55 M-28.0 -47.4 L-30.6 -46.6 -31.2 -46.65 -31.9 -46.8 -29.2 -47.7 -26.45 -48.4 Q-27.05 -47.8 -28.0 -47.4 M-116.85 22.8 L-117.2 22.45 Q-116.25 22.8 -113.75 24.1 L-109.35 26.15 -113.1 24.55 -116.85 22.8 M-123.8 17.85 L-124.0 18.1 -124.9 17.45 -125.15 16.8 Q-124.6 16.9 -123.8 17.85" fill="#ffffff" fill-rule="evenodd" stroke="none"/>
  </g>
</svg>
