<?xml version="1.0" encoding="UTF-8" standalone="no"?>
<svg xmlns:ffdec="https://www.free-decompiler.com/flash" xmlns:xlink="http://www.w3.org/1999/xlink" ffdec:objectType="shape" height="141.95px" width="340.65px" xmlns="http://www.w3.org/2000/svg">
  <g transform="matrix(1.0, 0.0, 0.0, 1.0, 153.4, 96.85)">
    <path d="M65.65 -76.4 L66.1 -76.3 66.35 -75.8 66.25 -75.3 Q64.95 -73.6 60.1 -71.65 52.6 -69.0 51.05 -68.2 L51.1 -68.2 43.1 -64.0 Q37.9 -61.35 34.55 -60.25 L34.05 -60.35 33.7 -60.65 33.75 -61.2 34.05 -61.55 50.05 -70.1 Q61.0 -75.85 65.65 -76.4 M185.8 -96.7 L185.95 -96.75 186.35 -96.75 Q186.5 -96.85 186.65 -96.55 187.45 -95.2 187.15 -94.1 186.75 -92.85 186.05 -91.9 L185.75 -91.6 185.35 -91.5 184.8 -91.5 Q184.45 -91.5 184.35 -91.7 L184.2 -92.1 184.25 -93.6 Q184.15 -94.75 184.35 -95.3 184.45 -96.0 184.65 -96.0 L184.75 -96.25 185.15 -96.55 Q185.5 -96.9 185.8 -96.7 M33.1 44.1 L33.15 44.3 33.05 44.55 32.4 45.0 32.1 45.05 30.8 44.7 30.7 44.45 Q30.6 44.15 31.1 43.8 L31.15 43.75 31.2 43.75 31.25 43.7 Q31.3 43.55 31.5 43.6 L31.8 43.55 32.15 43.6 Q32.85 43.65 33.0 44.0 L33.1 44.1 M-115.3 -59.7 Q-115.15 -59.8 -114.85 -59.55 L-114.65 -59.05 -114.75 -58.6 Q-119.55 -53.0 -127.4 -46.5 -134.95 -40.6 -137.9 -39.65 L-138.4 -39.65 -138.7 -39.95 -138.95 -40.45 -138.75 -40.7 -127.2 -50.6 Q-120.0 -56.85 -115.75 -59.7 -115.65 -59.9 -115.3 -59.7 M-151.6 -3.65 L-149.55 -1.3 -147.0 1.25 -146.8 1.55 -146.85 1.85 -147.0 2.2 -147.3 2.3 -147.6 2.3 Q-149.9 1.55 -151.4 0.05 -152.95 -1.35 -153.3 -2.55 -153.65 -3.25 -152.65 -3.95 L-152.3 -4.0 -151.95 -3.95 -151.6 -3.65 M-2.25 -46.6 L-1.8 -46.45 Q-1.05 -45.85 -0.95 -44.55 L-1.05 -44.2 -1.2 -44.0 -1.45 -43.75 -1.75 -43.7 Q-3.3 -43.65 -3.3 -45.25 L-3.25 -45.85 -3.15 -46.2 -2.9 -46.55 -2.4 -46.6 -2.25 -46.6 M-25.0 34.85 L-22.15 34.75 -21.75 34.75 -21.55 35.05 -21.5 35.25 -21.65 35.55 Q-22.7 36.2 -26.0 36.75 L-31.0 37.1 -32.75 37.05 -34.35 36.9 -34.65 36.75 -34.8 36.5 -34.8 36.2 -34.5 36.1 Q-33.45 35.55 -31.05 35.4 L-28.4 35.25 -25.0 34.85 M-30.55 39.55 L-30.2 39.55 -29.9 39.75 -29.75 39.85 Q-29.55 39.95 -29.5 40.55 L-30.8 42.8 -32.3 44.9 -32.5 45.05 -32.8 45.1 Q-33.85 45.05 -33.9 44.55 L-33.85 44.2 Q-32.2 41.35 -30.8 39.75 -30.85 39.55 -30.55 39.55" fill="#66ff66" fill-opacity="0.34901962" fill-rule="evenodd" stroke="none"/>
    <path d="M42.8 -64.55 Q37.7 -62.0 34.35 -60.95 L50.3 -69.5 Q61.15 -75.2 65.75 -75.75 64.45 -74.1 59.95 -72.4 52.3 -69.6 50.85 -68.75 45.55 -66.1 42.8 -64.55 M185.0 -93.8 Q184.9 -94.8 185.1 -95.3 185.35 -96.3 185.35 -95.9 L185.95 -96.05 Q186.7 -95.0 186.4 -94.1 L185.6 -92.2 184.95 -92.2 185.0 -93.8 M32.0 44.05 Q32.4 44.0 32.5 44.2 L32.6 44.4 32.15 44.65 31.25 44.45 Q31.15 44.25 31.45 44.1 L31.65 44.05 32.0 44.05 M-149.95 -1.0 L-147.4 1.5 -147.6 1.85 Q-149.65 1.15 -151.05 -0.15 -152.35 -1.45 -152.7 -2.55 -152.85 -2.95 -152.1 -3.5 -151.7 -2.7 -149.95 -1.0 M-138.25 -40.25 L-126.65 -50.1 Q-119.55 -56.25 -115.35 -59.1 -120.05 -53.45 -127.95 -47.05 -135.3 -41.15 -138.25 -40.25 M-1.6 -44.55 L-1.8 -44.25 Q-2.65 -44.4 -2.6 -45.25 -2.75 -46.05 -2.55 -45.95 L-2.25 -45.95 Q-1.75 -45.55 -1.6 -44.55 M-24.95 35.3 L-22.05 35.2 Q-23.05 35.8 -26.2 36.3 L-31.0 36.65 -32.75 36.55 -34.25 36.45 Q-33.2 35.95 -31.0 35.8 L-28.3 35.65 -24.95 35.3 M-33.35 44.45 Q-31.75 41.65 -30.35 40.0 -30.3 40.0 -30.2 40.1 L-30.05 40.55 -31.25 42.55 -32.85 44.65 -33.35 44.45" fill="#ffffff" fill-rule="evenodd" stroke="none"/>
  </g>
</svg>
