<?xml version="1.0" encoding="UTF-8" standalone="no"?>
<svg xmlns:ffdec="https://www.free-decompiler.com/flash" xmlns:xlink="http://www.w3.org/1999/xlink" ffdec:objectType="shape" height="132.9px" width="243.6px" xmlns="http://www.w3.org/2000/svg">
  <g transform="matrix(1.0, 0.0, 0.0, 1.0, 150.45, 88.65)">
    <path d="M76.2 -79.4 L72.7 -77.95 Q63.0 -73.85 58.25 -71.5 L57.75 -71.45 Q57.45 -71.6 57.3 -71.7 57.2 -72.0 57.35 -72.2 57.25 -72.5 57.55 -72.65 59.55 -74.2 64.1 -76.4 64.3 -76.6 71.75 -80.05 L71.8 -80.05 72.3 -80.3 Q75.25 -82.05 80.7 -84.25 86.85 -86.85 92.4 -88.55 L92.8 -88.55 93.1 -88.25 93.15 -87.75 92.9 -87.4 Q91.25 -86.05 83.2 -82.45 L83.1 -82.45 80.15 -81.15 76.1 -79.4 76.2 -79.4 M5.25 33.6 L5.1 33.75 4.85 33.85 -2.65 35.05 -13.8 36.0 -14.2 35.9 -14.4 35.65 -14.35 35.25 Q-14.3 35.05 -14.05 35.1 L-5.05 33.8 3.6 33.05 Q3.65 32.85 4.0 32.85 L4.4 32.85 Q5.2 32.95 5.25 33.35 L5.25 33.6 M38.7 41.15 L38.95 41.25 39.05 41.35 39.1 41.5 39.1 41.75 38.9 41.95 36.6 43.2 34.35 44.25 33.95 44.25 32.9 43.7 32.8 43.45 Q32.8 43.25 32.95 43.2 33.05 43.0 33.3 43.0 L35.7 41.9 Q37.95 40.85 38.7 41.15 M-96.5 -76.15 L-96.0 -76.2 -95.55 -76.0 -95.35 -75.45 -95.4 -75.0 Q-99.55 -70.3 -108.05 -63.2 L-123.55 -50.85 -123.95 -50.75 -124.5 -50.8 -125.05 -51.05 -125.3 -51.5 -125.15 -51.85 Q-118.75 -58.45 -111.25 -64.85 -103.15 -71.75 -96.5 -76.15 M-149.6 -0.35 L-144.75 2.25 -139.7 5.45 -139.5 5.7 -139.55 6.0 -139.8 6.2 -140.1 6.25 Q-143.15 5.5 -146.4 3.55 -149.8 1.5 -150.35 0.25 L-150.35 -0.15 -150.05 -0.45 -149.6 -0.35 M-26.65 32.3 L-26.5 32.3 Q-26.3 32.05 -26.1 32.15 L-25.95 32.2 Q-25.4 32.05 -25.35 33.05 L-26.65 36.0 -28.95 39.35 -29.3 39.45 -29.7 39.4 -29.85 39.35 -30.15 39.0 Q-30.35 38.9 -30.15 38.8 L-28.7 35.5 Q-27.8 33.35 -26.65 32.3 M-92.4 36.4 L-92.1 36.55 -91.8 36.9 -91.7 37.15 -91.7 37.45 -91.9 37.7 -92.1 37.75 -92.3 37.8 -92.9 37.8 -93.2 37.75 -93.5 37.5 -93.9 37.0 -93.95 36.65 -93.8 36.45 -92.4 36.4" fill="#66ff66" fill-opacity="0.34901962" fill-rule="evenodd" stroke="none"/>
    <path d="M57.9 -72.1 Q59.9 -73.6 64.35 -75.8 L72.0 -79.4 72.6 -79.7 Q75.45 -81.4 80.85 -83.6 87.0 -86.2 92.5 -87.85 90.85 -86.6 82.95 -83.1 L80.0 -81.9 75.95 -80.05 72.5 -78.65 Q62.7 -74.5 57.9 -72.1 M4.3 33.35 L4.65 33.4 -2.75 34.55 -13.8 35.55 -4.95 34.3 4.0 33.4 4.0 33.35 4.3 33.35 M34.2 43.8 L33.4 43.45 Q33.35 43.35 35.95 42.3 37.9 41.35 38.5 41.6 L38.55 41.65 36.35 42.8 34.2 43.8 M-108.55 -63.8 L-124.1 -51.35 -124.6 -51.45 Q-118.25 -57.95 -110.7 -64.25 -102.65 -71.2 -96.05 -75.55 -100.1 -70.85 -108.55 -63.8 M-29.4 39.0 L-29.6 38.95 -28.25 35.65 Q-27.25 33.65 -26.15 32.7 L-26.05 32.65 -25.9 33.05 -27.1 35.7 Q-28.55 38.15 -29.4 39.0 M-92.25 37.1 L-92.45 37.35 -93.05 37.35 -93.4 36.75 Q-93.2 36.55 -92.55 36.75 L-92.25 37.1 M-146.05 3.2 Q-149.25 1.35 -149.85 0.05 -147.5 1.2 -145.0 2.7 L-140.1 5.7 Q-143.05 5.0 -146.05 3.2" fill="#ffffff" fill-rule="evenodd" stroke="none"/>
  </g>
</svg>
