<?xml version="1.0" encoding="UTF-8" standalone="no"?>
<svg xmlns:ffdec="https://www.free-decompiler.com/flash" xmlns:xlink="http://www.w3.org/1999/xlink" ffdec:objectType="shape" height="78.75px" width="320.1px" xmlns="http://www.w3.org/2000/svg">
  <g transform="matrix(1.0, 0.0, 0.0, 1.0, 274.45, 452.3)">
    <path d="M40.3 -447.6 Q42.95 -447.2 43.7 -445.6 L43.8 -445.4 Q44.15 -444.1 44.6 -443.35 L44.75 -442.8 Q44.9 -441.4 42.85 -440.75 L42.45 -440.55 Q42.75 -439.6 43.75 -438.25 45.3 -436.25 45.55 -435.05 L45.6 -434.45 Q45.6 -433.95 45.05 -433.6 L44.6 -433.4 44.4 -433.05 43.95 -432.6 43.3 -432.5 42.75 -432.85 41.95 -433.8 Q40.9 -434.4 39.6 -435.8 L37.6 -438.05 37.4 -438.65 Q37.35 -439.8 38.4 -441.3 L38.5 -441.45 38.8 -442.75 38.7 -442.9 Q37.75 -443.9 37.8 -444.95 37.8 -446.35 38.75 -447.0 L38.8 -447.0 39.8 -447.5 40.3 -447.6 M2.05 -433.4 L2.35 -432.65 Q3.3 -432.45 3.3 -431.75 3.5 -431.1 2.95 -430.6 L2.3 -430.3 1.1 -430.25 Q-1.15 -430.25 -1.1 -431.65 L-1.25 -432.75 -1.95 -432.8 -2.25 -432.45 -2.3 -432.45 Q-3.25 -431.5 -4.6 -431.35 L-4.85 -431.35 -6.25 -431.6 -6.85 -431.95 -7.05 -432.3 -7.3 -432.65 Q-7.65 -433.4 -6.85 -433.9 L-6.35 -434.1 -5.55 -434.15 -4.7 -434.8 -4.7 -434.85 -3.95 -435.55 -3.15 -435.8 -2.65 -435.7 -1.1 -435.4 -1.05 -435.4 0.35 -435.0 0.8 -434.75 2.05 -433.45 2.05 -433.4 M6.3 -427.7 L6.5 -427.1 6.55 -426.2 6.6 -426.2 7.1 -424.3 7.0 -423.6 Q6.8 -423.25 6.45 -423.1 L5.6 -422.8 5.25 -422.75 3.75 -422.9 3.6 -423.0 Q2.85 -423.2 2.85 -424.9 2.85 -425.9 3.45 -426.7 L3.5 -426.7 3.5 -426.75 Q3.35 -427.05 3.45 -427.3 L3.8 -427.85 4.4 -428.1 4.6 -428.1 5.75 -428.05 6.3 -427.7 M8.35 -420.65 Q9.5 -420.25 9.7 -419.65 L9.8 -419.05 9.6 -418.55 9.1 -418.25 8.3 -418.0 7.85 -417.95 7.15 -418.05 7.05 -418.1 Q5.65 -418.5 5.6 -419.1 5.45 -419.5 5.6 -419.85 5.85 -421.2 8.2 -420.7 L8.35 -420.65 M-15.45 -452.3 Q-13.6 -452.3 -13.25 -451.15 L-13.15 -450.55 Q-13.2 -450.25 -13.4 -450.05 L-13.95 -449.75 Q-14.65 -449.6 -15.5 -448.8 L-15.55 -448.75 -18.0 -446.3 Q-18.2 -446.1 -18.5 -446.05 L-19.1 -446.1 -19.45 -446.4 -19.9 -446.85 Q-20.1 -447.15 -20.1 -448.35 -20.1 -449.75 -19.55 -450.4 -18.95 -451.3 -17.65 -451.2 L-17.6 -451.2 Q-16.7 -451.15 -16.35 -451.65 L-16.0 -452.1 -15.45 -452.3 M-18.0 -445.65 L-17.45 -445.45 -17.05 -445.0 -16.05 -443.9 -16.1 -443.9 -14.35 -442.3 -14.15 -441.7 -14.3 -441.1 Q-14.5 -440.85 -14.8 -440.75 L-15.65 -440.45 -16.15 -440.4 -17.5 -440.65 -17.95 -440.85 -18.25 -441.2 -18.45 -441.15 -18.6 -441.25 Q-19.55 -442.0 -19.55 -443.35 L-19.55 -444.3 -19.45 -444.75 -19.3 -445.0 -18.95 -445.45 -18.4 -445.65 -18.0 -445.65 M-9.05 -436.85 Q-7.85 -436.55 -8.15 -435.8 -7.85 -434.7 -10.0 -434.7 -13.0 -434.65 -13.45 -437.8 L-13.3 -438.5 Q-13.1 -438.8 -12.7 -438.9 L-12.0 -438.85 -10.95 -438.35 -10.5 -438.05 -9.1 -436.85 -9.05 -436.85 M-257.1 -394.3 L-258.75 -392.35 -258.8 -392.35 Q-260.4 -390.7 -261.1 -390.65 L-261.3 -390.65 -262.65 -390.7 -263.1 -390.8 -263.45 -391.1 Q-263.75 -391.35 -263.85 -392.65 L-264.85 -392.45 -266.45 -392.0 -269.15 -389.0 -271.0 -386.85 -270.55 -386.7 -270.15 -386.5 -269.85 -386.1 Q-268.8 -383.5 -269.05 -380.0 -269.2 -377.7 -268.8 -376.55 L-267.95 -375.1 -268.0 -374.5 -268.35 -374.05 -268.75 -373.75 Q-268.95 -373.6 -269.2 -373.55 L-269.7 -373.6 Q-273.45 -375.05 -272.85 -378.75 L-271.8 -383.15 -271.8 -384.0 -271.85 -384.15 -273.05 -384.45 -273.25 -384.55 Q-274.45 -384.25 -274.45 -386.35 -274.6 -387.7 -267.9 -394.75 L-267.3 -395.05 -266.5 -395.2 -266.45 -395.2 -265.7 -395.4 -265.0 -395.6 -263.2 -395.45 -262.5 -395.1 -261.65 -394.05 -260.6 -394.8 Q-258.7 -396.15 -257.8 -395.9 -257.45 -395.85 -257.2 -395.55 -257.0 -395.3 -256.95 -394.95 -256.95 -394.6 -257.1 -394.3 M-273.25 -384.55 L-273.3 -384.55 -273.25 -384.55" fill="#66ff66" fill-opacity="0.5294118" fill-rule="evenodd" stroke="none"/>
  </g>
</svg>
