<?xml version="1.0" encoding="UTF-8" standalone="no"?>
<svg xmlns:ffdec="https://www.free-decompiler.com/flash" xmlns:xlink="http://www.w3.org/1999/xlink" ffdec:objectType="shape" height="76.75px" width="318.05px" xmlns="http://www.w3.org/2000/svg">
  <g transform="matrix(1.0, 0.0, 0.0, 1.0, 273.45, 451.3)">
    <path d="M40.15 -446.6 Q42.2 -446.3 42.8 -445.15 43.2 -443.65 43.75 -442.8 43.75 -442.05 42.4 -441.65 41.45 -441.15 41.35 -440.75 41.55 -439.55 42.95 -437.65 44.4 -435.75 44.55 -434.75 44.8 -434.4 43.9 -434.35 L43.5 -433.5 42.6 -434.6 Q41.6 -435.1 40.3 -436.5 L38.4 -438.65 Q38.4 -439.55 39.2 -440.75 L39.45 -441.1 Q39.5 -441.8 39.9 -442.85 L39.4 -443.6 Q38.8 -444.25 38.8 -444.95 38.8 -445.8 39.35 -446.2 L40.15 -446.6 M1.1 -431.8 L2.3 -431.5 1.1 -431.25 Q-0.05 -431.25 -0.1 -431.8 L-0.3 -433.25 Q-0.6 -433.8 -1.95 -433.8 -2.4 -433.8 -3.0 -433.15 -3.7 -432.45 -4.7 -432.35 L-6.1 -432.6 -6.35 -433.0 -5.55 -433.15 Q-4.85 -433.15 -3.95 -434.2 -3.25 -435.05 -3.15 -434.75 L-1.35 -434.45 0.1 -434.05 1.2 -432.9 Q1.45 -432.5 1.1 -431.8 M4.75 -427.15 L5.5 -427.1 5.6 -425.95 6.1 -424.05 5.25 -423.75 4.1 -423.85 Q3.85 -424.0 3.85 -424.9 3.85 -425.6 4.3 -426.2 4.6 -426.7 4.4 -427.1 L4.75 -427.15 M8.8 -419.2 L8.0 -418.95 7.3 -419.05 Q6.6 -419.25 6.5 -419.5 6.7 -420.0 8.0 -419.75 L8.8 -419.2 M-14.15 -450.75 Q-15.1 -450.55 -16.25 -449.5 L-18.7 -447.05 -19.0 -447.3 -19.1 -448.35 Q-19.1 -450.3 -17.7 -450.2 -15.95 -450.1 -15.45 -451.3 -14.4 -451.3 -14.15 -450.75 M-10.0 -435.7 Q-12.15 -435.7 -12.45 -437.95 L-11.3 -437.45 Q-10.6 -436.5 -9.35 -435.9 L-9.15 -435.8 -10.0 -435.7 M-18.0 -444.65 Q-17.75 -444.05 -16.75 -443.15 L-15.15 -441.7 -16.0 -441.4 -17.35 -441.65 -18.0 -442.05 Q-18.55 -442.5 -18.55 -443.35 L-18.55 -444.3 -18.4 -444.65 -18.0 -444.65 M-262.85 -392.85 Q-263.0 -393.65 -263.85 -393.65 L-265.2 -393.4 -266.95 -392.95 -269.9 -389.65 -272.7 -386.55 Q-272.3 -386.15 -270.8 -385.75 -269.8 -383.3 -270.05 -380.1 -270.25 -377.35 -269.7 -376.1 -269.05 -375.25 -268.95 -374.85 L-269.35 -374.55 Q-272.3 -375.7 -271.85 -378.65 L-270.8 -383.05 -270.85 -384.25 -271.2 -385.05 -272.8 -385.45 -273.25 -385.55 Q-273.45 -385.55 -273.45 -386.35 -273.45 -387.5 -267.2 -394.05 L-266.25 -394.25 Q-265.3 -394.45 -265.1 -394.6 L-263.3 -394.45 -261.85 -392.7 -260.05 -394.0 Q-258.6 -395.0 -257.95 -394.9 L-259.5 -393.05 -261.3 -391.65 -262.65 -391.7 -262.85 -392.85" fill="#ffffff" fill-rule="evenodd" stroke="none"/>
  </g>
</svg>
