<?xml version="1.0" encoding="UTF-8" standalone="no"?>
<svg xmlns:ffdec="https://www.free-decompiler.com/flash" xmlns:xlink="http://www.w3.org/1999/xlink" ffdec:objectType="shape" height="316.4px" width="650.7px" xmlns="http://www.w3.org/2000/svg">
  <g transform="matrix(1.0, 0.0, 0.0, 1.0, 363.85, 468.0)">
    <path d="M286.85 -166.75 Q286.85 -165.3 285.8 -165.0 L285.1 -165.0 283.3 -165.95 283.35 -165.9 282.25 -166.2 281.4 -165.55 281.4 -165.5 Q280.15 -164.45 277.4 -164.45 L274.45 -164.55 Q274.1 -164.55 273.9 -164.75 273.65 -164.9 273.55 -165.2 273.05 -166.45 272.7 -168.7 L272.75 -168.7 272.15 -172.2 272.15 -172.6 272.3 -173.0 Q272.7 -173.95 274.25 -173.25 L275.25 -173.0 276.1 -173.05 276.2 -173.1 275.95 -174.75 Q275.95 -176.35 276.75 -176.7 L276.85 -176.8 277.7 -177.05 278.0 -177.1 Q280.65 -176.95 280.95 -176.0 L281.05 -175.5 280.9 -174.95 279.65 -174.15 279.95 -172.6 Q280.2 -171.15 277.35 -170.15 L275.7 -169.7 275.7 -167.7 Q277.6 -167.95 281.85 -169.5 L282.2 -169.6 Q282.55 -169.65 284.45 -168.75 L286.7 -167.3 286.85 -166.75 M270.1 -160.05 L270.45 -159.55 270.55 -159.25 270.6 -158.8 270.4 -158.35 269.0 -156.85 268.85 -156.7 268.75 -156.2 268.85 -155.35 268.9 -155.3 269.3 -154.9 270.25 -154.9 270.35 -155.15 270.4 -155.15 271.1 -156.25 Q271.4 -156.55 271.8 -156.55 L273.8 -156.55 274.1 -156.5 Q275.5 -156.15 277.05 -154.0 L277.2 -153.65 277.2 -153.2 Q277.0 -152.15 275.75 -151.9 L275.25 -151.95 Q275.0 -152.0 274.85 -152.15 L273.1 -153.9 272.95 -153.65 271.55 -151.8 270.9 -151.6 268.45 -151.65 267.9 -151.8 Q266.3 -152.8 265.9 -154.15 L265.9 -154.25 Q265.75 -154.8 265.75 -156.4 265.75 -157.7 266.0 -158.6 L266.25 -159.1 266.7 -159.35 267.75 -159.8 267.8 -159.8 268.6 -160.1 268.7 -160.1 269.5 -160.25 270.1 -160.05 M-146.85 -467.25 L-146.8 -466.7 Q-146.9 -466.15 -148.55 -464.0 L-150.7 -461.2 Q-150.15 -460.6 -148.9 -459.85 -146.7 -458.45 -146.8 -456.8 L-147.05 -454.55 -146.15 -452.85 -146.15 -452.15 Q-146.5 -451.15 -147.85 -450.5 L-148.3 -450.45 -148.8 -450.6 Q-150.15 -451.5 -150.7 -452.3 L-150.9 -452.95 -150.6 -453.6 -150.2 -454.0 -150.0 -456.4 -150.85 -456.8 -150.9 -456.8 -153.3 -458.0 Q-153.7 -458.15 -153.9 -458.5 -154.2 -459.0 -154.2 -460.6 -154.2 -463.35 -152.25 -465.7 -150.15 -468.25 -147.7 -467.95 -147.4 -467.9 -147.15 -467.7 L-146.85 -467.25 M-41.0 -398.8 Q-41.0 -400.3 -40.4 -400.55 L-40.25 -400.65 -40.05 -400.75 -39.6 -400.85 -39.05 -400.85 -38.4 -401.55 -38.4 -401.5 Q-36.85 -403.25 -35.2 -404.05 L-34.5 -404.1 Q-34.15 -404.0 -33.9 -403.7 L-33.3 -402.5 Q-32.45 -402.35 -31.9 -401.65 L-31.85 -401.6 Q-31.3 -401.0 -30.25 -400.9 L-28.1 -401.15 -25.95 -401.15 -25.55 -401.0 -23.7 -400.55 Q-23.4 -400.5 -23.15 -400.25 L-22.9 -399.65 -22.2 -395.7 Q-21.65 -392.9 -21.65 -392.2 -21.45 -391.4 -24.8 -388.7 -27.8 -386.35 -29.0 -382.7 L-29.45 -382.2 -30.1 -382.05 Q-30.95 -382.2 -31.4 -382.75 L-31.55 -382.65 -31.65 -382.6 Q-32.6 -382.15 -33.5 -381.85 L-32.8 -381.0 Q-32.5 -380.8 -32.45 -380.4 -32.4 -380.0 -32.6 -379.7 L-32.8 -379.4 Q-33.05 -379.05 -33.4 -378.95 L-34.15 -379.05 Q-35.05 -379.6 -36.0 -380.6 L-37.0 -381.65 -37.3 -382.2 -37.2 -382.8 -36.8 -383.2 Q-30.75 -386.65 -29.3 -388.4 -28.15 -390.0 -28.15 -393.9 L-28.2 -397.45 Q-29.65 -397.1 -30.5 -396.6 L-31.1 -396.5 -31.7 -396.8 -32.75 -398.7 -34.05 -399.1 -37.2 -397.85 -37.3 -397.55 -37.35 -397.5 Q-37.65 -396.8 -38.15 -396.7 L-38.65 -396.65 -39.1 -396.85 -40.3 -397.85 Q-40.6 -397.95 -40.8 -398.2 L-41.0 -398.8 M-334.65 -306.6 Q-333.2 -308.05 -330.65 -308.6 L-330.35 -308.65 Q-328.15 -308.45 -328.15 -307.45 L-328.15 -306.8 -328.65 -306.3 Q-333.7 -303.75 -334.8 -302.35 L-335.15 -302.05 -335.2 -302.0 -335.15 -301.65 Q-335.15 -301.35 -335.3 -301.1 L-337.25 -299.15 -338.25 -298.0 -338.0 -297.45 -338.05 -297.5 Q-337.25 -296.7 -337.25 -295.6 -337.2 -294.55 -338.35 -293.0 L-338.45 -292.95 -339.8 -291.45 -340.2 -291.2 -340.65 -291.15 -341.5 -291.25 Q-341.9 -291.3 -342.1 -291.55 L-342.4 -292.15 -342.2 -292.8 Q-340.45 -295.45 -340.3 -296.0 L-340.75 -297.65 -340.8 -297.95 Q-340.85 -299.55 -339.35 -300.95 -338.3 -301.95 -336.9 -302.45 L-337.05 -302.8 -336.9 -303.45 -334.65 -306.6 M-330.95 -298.05 Q-330.6 -298.85 -329.4 -299.4 L-329.35 -299.45 -327.55 -299.95 -326.9 -299.7 -326.55 -299.15 -326.5 -298.9 -326.6 -298.25 Q-326.75 -297.95 -327.05 -297.8 L-328.55 -296.95 -328.9 -296.65 -329.4 -296.55 -330.15 -296.6 Q-330.5 -296.6 -330.75 -296.85 L-331.05 -297.4 -330.95 -298.05 M-344.2 -289.75 L-344.7 -289.2 -345.8 -288.7 Q-345.95 -288.55 -346.2 -288.45 L-346.65 -288.4 -348.0 -288.6 Q-348.35 -288.65 -348.6 -288.95 L-348.65 -289.0 -348.8 -289.25 -348.85 -289.6 -348.6 -290.3 Q-348.2 -290.8 -346.9 -291.4 L-346.4 -291.5 Q-344.4 -291.35 -344.25 -290.55 -344.05 -290.15 -344.2 -289.75 M-350.35 -289.2 L-349.8 -288.75 -349.75 -288.7 -349.65 -288.5 -349.65 -288.0 -349.8 -287.5 Q-350.6 -285.25 -352.3 -285.65 -353.2 -285.75 -353.95 -284.75 L-354.1 -283.05 Q-354.3 -281.25 -355.9 -280.3 L-356.25 -279.9 Q-357.05 -279.4 -357.65 -280.1 L-357.9 -280.7 -357.95 -281.5 Q-358.0 -282.2 -357.3 -283.85 -356.55 -285.8 -355.5 -286.8 -354.5 -287.8 -353.05 -288.35 L-353.05 -288.3 -351.1 -289.15 -350.65 -289.25 -350.35 -289.2 M-360.5 -272.35 Q-361.5 -270.45 -360.9 -269.4 L-360.75 -268.8 -360.95 -268.2 -361.45 -267.85 -362.0 -267.7 -362.65 -267.75 -363.1 -268.15 -363.7 -269.15 -363.75 -269.35 -363.85 -270.85 Q-363.85 -272.35 -362.6 -273.1 -362.25 -273.45 -362.25 -274.2 -362.25 -277.05 -360.15 -277.85 L-359.5 -277.9 -358.95 -277.55 -358.75 -276.95 Q-358.7 -275.8 -360.5 -272.3 L-360.5 -272.35 M-42.65 -316.9 Q-43.65 -316.0 -46.4 -314.55 L-46.35 -314.55 Q-48.05 -313.65 -49.2 -311.85 L-49.5 -311.55 -49.9 -311.4 -51.6 -311.15 -52.05 -311.2 -52.45 -311.45 -52.55 -311.5 -52.8 -311.6 Q-53.55 -311.8 -53.55 -313.4 L-53.4 -313.9 -52.7 -315.1 Q-52.2 -316.0 -52.15 -316.65 L-51.9 -317.25 -51.35 -317.6 Q-43.15 -319.3 -38.15 -323.1 L-35.4 -327.15 -33.85 -330.05 -34.9 -331.3 -35.1 -331.95 -34.8 -332.55 -33.05 -334.35 Q-32.2 -335.3 -31.85 -336.4 L-31.05 -338.8 -31.05 -338.9 Q-30.35 -339.95 -29.45 -339.8 -28.7 -339.9 -27.85 -338.95 L-27.6 -338.4 -27.7 -337.85 -29.55 -333.5 -29.5 -332.05 -28.25 -332.2 -27.8 -332.15 -27.45 -331.9 Q-26.95 -331.65 -26.95 -329.65 -26.95 -328.8 -27.8 -325.75 -28.85 -322.15 -29.8 -321.3 L-30.15 -321.05 -37.7 -318.7 -42.65 -316.9 M-122.15 -347.6 L-121.5 -347.4 Q-120.75 -346.85 -119.5 -346.45 L-119.0 -346.1 -118.8 -345.55 Q-118.65 -342.15 -118.65 -335.75 L-115.3 -334.85 Q-113.95 -334.7 -112.5 -335.75 L-111.9 -335.95 -108.65 -335.95 -108.55 -335.95 Q-106.55 -335.75 -106.4 -334.8 L-106.4 -334.15 -107.1 -331.15 -106.9 -328.8 Q-106.85 -327.25 -108.2 -324.35 L-108.55 -323.95 -109.1 -323.8 -110.05 -323.8 -110.7 -324.05 -111.05 -324.7 -111.1 -325.25 -110.9 -325.9 -110.0 -326.95 -109.95 -326.95 -109.4 -327.75 -109.4 -332.55 -113.9 -332.7 -119.25 -333.05 -119.9 -333.45 Q-121.35 -335.25 -121.4 -339.3 L-121.4 -339.35 -121.25 -344.15 -121.2 -344.65 -121.7 -344.3 Q-122.9 -343.2 -123.35 -341.35 L-123.35 -341.4 -123.95 -336.5 Q-124.6 -330.95 -128.65 -329.0 L-131.1 -328.0 -131.15 -328.0 -131.55 -327.8 Q-131.55 -327.0 -130.95 -325.6 L-130.7 -325.3 Q-130.3 -324.75 -130.3 -323.6 L-130.4 -323.15 -130.8 -322.65 -130.85 -322.6 -130.9 -322.5 Q-131.35 -322.15 -132.0 -322.15 L-132.5 -322.3 -132.85 -322.65 Q-133.6 -324.05 -133.55 -324.4 L-133.45 -324.8 -133.5 -324.9 -133.55 -324.95 Q-134.1 -326.55 -134.1 -327.8 -134.25 -329.3 -131.45 -331.05 L-131.5 -331.0 -127.8 -333.3 -127.9 -333.25 Q-127.1 -333.85 -126.8 -334.9 L-126.8 -334.95 -126.25 -337.45 -125.35 -342.25 Q-124.8 -345.5 -122.75 -347.3 L-122.15 -347.6 M-84.4 -229.0 L-82.5 -229.3 Q-81.1 -231.05 -80.15 -230.9 L-79.65 -230.75 -79.25 -230.35 -79.15 -229.85 Q-79.2 -228.1 -79.45 -227.45 -79.7 -226.35 -81.65 -225.95 L-81.35 -225.75 -81.05 -225.4 -80.95 -224.95 -80.95 -222.5 Q-80.95 -222.1 -81.25 -221.8 L-81.35 -221.65 -82.4 -221.0 -83.15 -221.05 -83.6 -221.55 -84.65 -224.2 Q-85.6 -226.5 -85.55 -227.2 -85.55 -229.2 -84.55 -228.95 L-84.4 -229.0 M-250.75 -366.6 L-251.2 -364.65 -251.2 -364.55 Q-250.55 -364.45 -250.3 -364.1 -250.0 -363.8 -250.0 -363.4 -250.0 -363.0 -250.25 -362.7 L-250.9 -362.0 -251.55 -361.7 -252.25 -361.9 Q-254.25 -363.5 -254.1 -364.5 -254.1 -365.55 -253.7 -366.7 L-253.7 -366.65 -253.2 -367.75 -253.7 -368.15 -253.8 -368.15 -253.8 -368.25 -253.75 -368.3 -253.8 -368.3 -254.65 -366.85 -255.0 -366.55 -255.5 -366.5 -256.95 -366.6 -257.0 -366.6 -257.1 -366.55 -257.7 -366.5 -258.15 -366.6 -258.35 -366.65 Q-259.3 -367.1 -259.4 -367.65 L-259.45 -368.3 -259.1 -368.8 -258.5 -369.05 Q-257.4 -369.15 -255.65 -370.6 L-255.6 -370.65 Q-253.75 -372.25 -250.9 -370.0 L-250.55 -369.4 Q-250.35 -368.35 -250.75 -366.6 M-306.8 -320.0 Q-305.15 -321.4 -303.15 -321.5 L-303.05 -321.5 Q-299.35 -321.35 -299.25 -320.55 L-299.15 -319.95 Q-299.2 -319.65 -299.4 -319.4 L-299.9 -319.1 -304.7 -317.55 -307.0 -316.65 -307.65 -316.45 -308.25 -316.65 -308.6 -317.2 -308.55 -317.85 Q-308.1 -318.95 -306.85 -320.0 L-306.8 -320.0 M-309.45 -311.05 Q-311.0 -311.65 -310.75 -312.5 L-310.45 -313.2 -309.8 -313.5 -307.5 -313.6 -307.35 -313.6 Q-304.7 -313.3 -304.6 -312.55 -304.4 -312.15 -304.55 -311.75 L-305.05 -311.2 -308.45 -310.85 -308.65 -310.85 -309.3 -311.0 -309.45 -311.05 M-305.8 -309.75 Q-304.7 -310.75 -304.05 -310.65 L-303.35 -310.35 -303.05 -309.7 -303.25 -309.0 -305.25 -306.45 Q-305.5 -306.2 -305.9 -306.1 L-306.6 -306.25 -307.0 -306.85 -307.15 -307.5 -307.1 -308.2 Q-306.75 -308.95 -305.8 -309.7 L-305.8 -309.75 M-319.35 -314.25 L-319.0 -314.5 -318.55 -314.55 -317.4 -314.45 -317.35 -314.45 Q-315.25 -314.2 -315.3 -313.45 L-315.3 -312.75 -315.8 -312.25 -319.4 -310.5 -319.45 -310.45 -321.25 -309.5 Q-321.6 -309.25 -321.95 -309.3 L-323.25 -309.45 Q-323.6 -309.5 -323.85 -309.75 L-324.15 -310.35 -324.0 -311.0 -323.45 -311.4 Q-322.7 -311.7 -321.2 -312.8 L-321.2 -312.85 -319.35 -314.25 M-315.2 -300.85 L-314.8 -301.35 -312.95 -302.0 -312.9 -302.05 -312.3 -302.55 -312.3 -302.6 Q-311.6 -303.4 -310.85 -303.65 L-310.1 -303.6 -309.55 -303.05 Q-309.4 -302.7 -309.55 -302.3 L-310.45 -300.8 -311.35 -299.45 -311.75 -299.1 -312.25 -299.05 -313.25 -299.15 -313.3 -299.15 Q-315.1 -299.45 -315.15 -300.15 L-315.2 -300.85 M-292.25 -319.0 L-292.3 -319.05 -290.9 -317.6 -290.75 -316.85 -290.8 -316.65 Q-290.9 -316.35 -291.15 -316.15 -291.4 -315.95 -291.7 -315.9 L-292.3 -316.05 Q-292.6 -316.2 -293.5 -316.9 L-293.45 -316.85 Q-294.25 -317.4 -294.65 -317.55 L-295.1 -317.95 -295.3 -318.5 Q-295.4 -319.35 -294.45 -319.8 L-293.95 -319.9 -293.5 -319.75 -292.25 -319.0 M-297.2 -300.25 Q-295.45 -304.55 -293.75 -305.15 L-293.1 -305.2 -292.55 -304.85 -292.35 -304.25 -292.55 -303.65 Q-293.7 -302.05 -294.95 -298.8 L-297.25 -293.35 -297.6 -292.95 -298.15 -292.8 -298.55 -292.8 -299.15 -293.0 -299.5 -293.5 -299.45 -294.15 -297.25 -300.2 -297.2 -300.25 M-290.25 -298.3 L-289.65 -298.15 -289.2 -297.65 -289.2 -297.0 -290.65 -290.75 -290.65 -290.7 -292.25 -284.6 -292.5 -284.15 -292.9 -283.9 -293.45 -283.75 -294.2 -283.85 -294.65 -284.35 -294.7 -285.1 Q-294.35 -286.0 -293.55 -291.55 -292.9 -296.0 -290.85 -298.0 L-290.25 -298.3 M-208.45 -258.8 L-208.25 -258.2 -208.45 -257.55 -209.4 -256.65 Q-207.95 -253.45 -208.0 -252.65 -208.0 -251.5 -208.75 -250.0 L-208.75 -250.05 Q-209.6 -248.45 -211.1 -247.05 L-211.85 -246.8 Q-212.25 -246.8 -212.5 -247.1 L-212.8 -247.8 Q-212.75 -249.6 -211.6 -251.15 L-211.55 -251.15 Q-210.85 -252.05 -210.8 -252.55 L-211.5 -254.3 Q-212.45 -256.2 -212.4 -256.95 -212.4 -258.55 -210.85 -259.1 L-209.0 -259.15 -208.45 -258.8" fill="#66ff66" fill-opacity="0.5294118" fill-rule="evenodd" stroke="none"/>
  </g>
</svg>
