<?xml version="1.0" encoding="UTF-8" standalone="no"?>
<svg xmlns:ffdec="https://www.free-decompiler.com/flash" xmlns:xlink="http://www.w3.org/1999/xlink" ffdec:objectType="shape" height="75.2px" width="318.8px" xmlns="http://www.w3.org/2000/svg">
  <g transform="matrix(1.0, 0.0, 0.0, 1.0, 274.45, 448.2)">
    <path d="M38.75 -447.9 L39.45 -448.2 Q41.0 -448.2 42.3 -447.15 43.75 -446.0 43.65 -444.85 43.75 -444.0 42.35 -442.4 L41.55 -441.5 42.65 -440.2 Q44.4 -438.45 44.35 -436.95 44.35 -433.25 41.75 -430.5 41.25 -429.9 41.0 -428.25 L41.0 -428.2 Q40.55 -425.8 39.3 -424.7 39.05 -424.5 38.8 -424.45 L38.25 -424.5 37.8 -424.85 Q37.4 -425.3 37.2 -427.45 L37.05 -429.95 Q37.0 -431.3 35.8 -434.65 34.4 -438.5 34.45 -440.0 34.45 -441.8 35.95 -443.0 36.8 -443.8 37.0 -445.7 L37.1 -446.05 Q37.1 -446.25 38.2 -447.05 L38.25 -447.05 38.45 -447.2 Q38.45 -447.6 38.75 -447.9 M38.95 -434.75 L39.85 -431.95 40.1 -432.3 Q41.3 -433.9 41.4 -434.7 41.4 -437.0 40.25 -438.55 38.65 -440.65 38.7 -441.45 L37.35 -439.45 Q37.5 -438.05 38.95 -434.75 M-261.3 -396.05 Q-260.4 -397.95 -258.0 -397.15 -257.7 -397.05 -257.5 -396.75 L-257.35 -396.1 -257.6 -395.5 Q-258.7 -394.35 -260.45 -390.3 L-260.5 -390.3 Q-262.1 -386.75 -264.9 -386.3 L-265.25 -386.3 Q-266.3 -386.45 -267.05 -386.85 L-268.4 -383.85 -268.4 -383.8 Q-269.55 -380.9 -269.6 -379.7 -269.6 -377.95 -268.55 -374.95 L-268.5 -374.4 Q-268.7 -373.55 -269.35 -373.15 L-269.95 -373.0 -271.8 -373.1 -272.35 -373.3 -272.7 -373.75 Q-273.15 -375.1 -273.55 -375.45 -274.5 -376.1 -274.45 -377.05 L-274.4 -377.3 Q-269.3 -395.55 -261.85 -395.35 L-261.3 -396.05" fill="#66ff66" fill-opacity="0.5294118" fill-rule="evenodd" stroke="none"/>
  </g>
</svg>
