<?xml version="1.0" encoding="UTF-8" standalone="no"?>
<svg xmlns:ffdec="https://www.free-decompiler.com/flash" xmlns:xlink="http://www.w3.org/1999/xlink" ffdec:objectType="shape" height="285.8px" width="517.0px" xmlns="http://www.w3.org/2000/svg">
  <g transform="matrix(1.0, 0.0, 0.0, 1.0, 248.25, 469.45)">
    <path d="M221.85 -267.55 L222.35 -267.65 223.7 -267.5 224.15 -267.3 224.5 -267.0 Q226.45 -263.45 229.85 -260.1 233.25 -256.75 237.1 -254.75 L238.05 -254.8 Q240.05 -256.3 240.9 -260.0 242.05 -265.15 243.1 -265.95 L243.8 -266.2 244.45 -265.9 244.75 -265.25 Q245.05 -261.9 249.95 -258.0 255.65 -253.45 255.5 -250.8 L255.4 -250.3 253.35 -246.35 Q251.4 -242.6 251.35 -241.5 251.35 -236.0 252.1 -232.35 L252.1 -232.4 253.95 -224.55 255.55 -222.5 Q258.65 -218.65 258.6 -215.7 258.6 -214.2 257.75 -211.55 L257.75 -211.5 Q257.0 -209.35 257.0 -208.3 257.05 -205.25 260.3 -196.85 262.35 -195.75 264.3 -193.9 268.9 -189.5 268.75 -187.1 268.75 -185.75 268.35 -185.25 L268.35 -185.3 267.6 -184.55 266.95 -184.35 266.25 -184.35 265.7 -184.5 265.35 -185.0 Q265.0 -185.6 265.45 -186.9 L265.5 -186.95 265.8 -188.0 262.35 -191.7 264.55 -185.8 264.55 -184.9 264.35 -184.25 Q264.1 -184.0 263.8 -183.9 L263.55 -183.9 263.45 -183.8 262.7 -183.7 Q262.3 -183.85 262.1 -184.2 258.25 -190.65 256.05 -195.75 253.9 -196.4 252.2 -195.4 L251.6 -195.25 249.2 -195.4 248.75 -195.5 248.45 -195.8 Q247.7 -196.75 247.7 -199.65 247.7 -201.2 248.85 -205.5 L249.1 -205.9 249.45 -206.2 Q251.55 -206.95 252.65 -208.5 L251.9 -214.05 251.95 -214.05 Q250.95 -220.15 249.6 -223.55 248.25 -226.85 243.6 -233.35 L236.65 -243.1 Q233.25 -248.65 229.05 -254.35 L227.7 -256.15 227.15 -256.4 227.1 -256.4 Q225.5 -257.15 225.4 -257.25 225.0 -257.2 224.55 -256.7 L224.5 -256.7 Q223.9 -255.95 221.55 -255.7 L221.85 -248.9 221.85 -248.85 Q221.95 -248.05 221.3 -247.6 L221.2 -247.35 220.75 -246.9 220.15 -246.8 Q218.95 -247.0 215.55 -249.6 213.6 -251.15 213.05 -251.05 L212.45 -250.95 211.15 -251.1 Q210.75 -251.15 210.5 -251.4 210.25 -251.7 210.25 -252.1 L210.25 -256.5 210.3 -256.8 210.75 -259.2 211.1 -261.75 211.45 -262.3 212.05 -262.55 Q212.75 -262.75 214.95 -260.15 216.35 -258.55 218.75 -258.45 L219.35 -261.15 Q220.5 -266.1 221.45 -267.25 L221.85 -267.55 M222.55 -258.55 L223.25 -259.3 223.65 -259.65 224.15 -259.8 224.75 -259.75 223.0 -261.5 Q222.15 -260.2 221.8 -258.55 L222.55 -258.55 M212.75 -253.75 Q214.9 -253.75 217.2 -252.05 L217.3 -251.95 218.45 -250.85 Q218.15 -252.3 218.15 -253.6 L218.3 -255.6 Q216.2 -255.85 213.85 -257.6 L213.2 -258.1 212.75 -256.1 212.75 -253.75 M252.5 -251.05 L250.65 -253.6 248.05 -256.75 Q246.6 -257.55 244.65 -259.8 L243.85 -260.8 243.05 -257.6 Q242.0 -254.65 240.2 -253.1 244.0 -250.75 244.95 -247.6 L245.0 -247.45 Q245.55 -243.7 246.8 -241.75 247.8 -240.3 248.6 -237.6 L248.7 -241.1 248.75 -241.3 Q249.25 -243.75 251.05 -247.8 L252.5 -251.05 M250.25 -199.75 L250.3 -198.3 250.4 -197.95 250.75 -198.0 251.6 -198.1 252.1 -198.35 255.0 -198.45 Q253.85 -201.55 253.4 -204.05 L253.1 -205.55 Q250.25 -203.05 250.25 -199.75 M18.95 -198.75 L18.95 -199.25 19.2 -199.65 Q20.75 -201.4 25.6 -205.6 L25.25 -205.85 24.95 -206.45 25.1 -207.05 Q25.6 -208.0 28.95 -210.15 32.0 -212.25 33.75 -212.7 L33.8 -212.75 Q34.25 -213.25 34.75 -213.05 35.2 -213.05 35.5 -212.45 L35.65 -211.2 Q35.85 -210.45 30.25 -205.55 L25.25 -201.1 25.65 -200.85 25.65 -200.9 Q26.45 -200.35 27.5 -199.95 L27.55 -200.05 27.6 -200.1 28.35 -200.75 28.55 -200.95 Q29.2 -201.45 29.75 -200.95 L30.15 -200.4 30.25 -199.2 Q30.25 -197.75 29.55 -197.3 L29.35 -197.15 28.9 -196.9 28.3 -196.75 Q26.0 -196.85 23.55 -197.9 L23.5 -197.95 Q22.75 -198.2 21.4 -197.4 L20.75 -197.25 19.9 -197.4 Q19.6 -197.45 19.4 -197.65 L19.1 -198.15 18.95 -198.75 M-194.1 -455.9 Q-193.35 -457.3 -192.25 -457.45 L-191.65 -457.4 -191.2 -457.05 -191.05 -456.45 -191.25 -455.9 -191.8 -454.55 -192.15 -452.7 Q-192.25 -452.35 -192.5 -452.15 L-193.15 -451.95 -195.15 -452.3 -195.35 -452.4 -195.4 -452.35 -195.5 -452.2 Q-196.05 -451.8 -197.3 -451.8 -199.55 -451.8 -200.05 -453.4 L-200.1 -453.65 -200.35 -453.45 -199.75 -452.65 -199.7 -452.6 Q-198.75 -450.95 -198.85 -450.45 -198.85 -449.4 -199.0 -448.7 L-199.05 -448.55 -199.6 -447.4 -199.85 -447.05 -200.2 -446.85 -200.75 -446.7 -201.4 -446.75 -201.85 -447.1 -202.05 -447.7 -201.8 -449.3 -201.65 -450.3 -202.0 -450.45 -202.35 -450.65 -203.1 -451.9 -203.25 -453.55 Q-203.25 -457.35 -199.7 -457.3 -198.2 -457.35 -197.45 -455.7 L-197.4 -455.65 -197.2 -454.95 -197.0 -455.15 -196.95 -455.15 Q-195.8 -456.35 -195.35 -456.2 L-194.15 -455.9 -194.1 -455.9 M-145.95 -464.15 Q-146.0 -463.8 -146.3 -463.55 -146.55 -463.35 -146.85 -463.3 -147.5 -462.8 -147.8 -462.9 L-149.1 -462.95 -149.15 -462.95 -149.9 -463.05 -151.25 -459.1 Q-152.05 -456.8 -152.15 -455.15 -151.0 -454.6 -149.45 -454.5 L-146.25 -453.95 -145.8 -453.45 -145.7 -452.75 -146.2 -451.65 Q-146.8 -450.65 -148.25 -450.65 -151.65 -450.65 -153.6 -452.55 L-153.6 -452.6 Q-155.15 -454.15 -155.05 -455.3 -155.05 -457.15 -154.05 -459.95 L-154.05 -460.0 Q-153.05 -462.75 -152.9 -464.8 L-152.7 -465.3 -152.3 -465.65 -151.65 -465.95 -151.25 -466.05 -149.6 -465.95 -149.3 -466.1 Q-149.85 -466.8 -150.2 -467.8 L-150.15 -468.55 -149.6 -469.05 -149.55 -469.1 -149.2 -469.35 -148.65 -469.45 Q-146.6 -469.15 -146.1 -468.0 -145.85 -467.6 -145.85 -466.3 L-145.95 -464.15 M-118.0 -346.65 Q-116.75 -346.25 -115.6 -344.6 L-115.55 -344.55 Q-114.35 -342.9 -114.4 -341.55 L-114.4 -340.75 Q-114.4 -340.35 -114.7 -340.05 -115.0 -339.75 -115.4 -339.75 L-115.75 -339.8 -116.8 -339.65 -116.95 -338.55 Q-116.95 -338.15 -117.25 -337.85 L-117.55 -337.55 -117.9 -337.3 -118.3 -337.25 -119.0 -337.3 Q-120.6 -337.4 -120.7 -338.1 L-120.75 -338.8 -120.35 -339.35 -119.6 -340.8 Q-119.25 -341.85 -117.6 -342.35 L-117.95 -342.9 -119.6 -341.6 Q-119.8 -341.45 -120.1 -341.4 L-120.6 -341.5 Q-120.9 -341.6 -121.05 -341.85 L-121.6 -342.7 -121.75 -343.2 -121.6 -343.75 -121.2 -344.1 -119.8 -345.4 -119.75 -345.4 -119.2 -346.2 -118.65 -346.65 -118.0 -346.65 M-133.8 -346.65 L-133.55 -346.25 -133.5 -345.75 -133.65 -344.95 -133.75 -344.7 -134.3 -344.1 Q-134.8 -343.75 -135.75 -343.75 L-136.35 -343.95 -136.7 -344.5 -136.65 -345.2 -136.85 -345.75 -136.85 -345.8 Q-137.4 -347.2 -137.4 -348.0 -137.5 -349.8 -135.0 -352.15 -133.4 -353.7 -131.75 -354.55 L-131.6 -354.8 -130.9 -355.1 -130.55 -355.1 -130.4 -355.05 -130.15 -355.05 -125.45 -354.05 -125.05 -353.85 -123.85 -352.6 Q-123.5 -352.05 -123.5 -350.8 -123.35 -350.4 -124.45 -349.0 L-125.05 -348.0 -123.65 -345.8 -123.5 -345.3 Q-123.5 -345.0 -123.65 -344.75 L-124.05 -344.4 -125.4 -343.7 -125.95 -343.6 -127.25 -343.75 Q-127.6 -343.8 -127.8 -344.0 L-128.1 -344.55 -128.05 -345.2 -127.8 -345.7 -127.7 -345.9 -127.4 -346.25 -127.6 -347.85 Q-127.6 -349.0 -126.7 -349.8 L-126.75 -349.75 -126.5 -350.25 -126.6 -351.3 -126.6 -351.4 -126.7 -351.6 -128.5 -351.95 -130.85 -352.3 -132.5 -350.55 Q-134.45 -348.55 -134.6 -347.8 L-134.5 -347.25 -133.8 -346.65 M-90.0 -335.2 L-89.95 -334.5 Q-90.1 -334.15 -90.4 -333.95 L-90.3 -332.05 Q-90.25 -330.4 -91.7 -328.55 L-92.15 -328.25 -92.7 -328.2 -93.15 -328.45 -95.5 -331.15 -95.6 -331.1 -96.4 -330.45 -96.9 -330.35 -97.4 -330.5 -97.8 -330.9 Q-98.2 -331.55 -97.6 -332.15 L-97.65 -332.6 -98.55 -334.55 -98.65 -335.0 Q-98.65 -337.8 -98.05 -337.95 L-97.35 -338.15 -96.0 -338.0 -95.35 -337.7 -95.1 -337.1 Q-95.0 -336.15 -94.15 -334.55 L-94.15 -334.6 -93.4 -333.2 Q-93.3 -335.05 -91.8 -335.6 L-91.65 -335.65 -91.15 -335.8 -90.45 -335.7 -90.0 -335.2 M-72.7 -245.05 L-72.75 -244.45 -73.4 -243.15 -73.4 -243.1 Q-73.65 -242.6 -74.95 -242.3 L-74.25 -241.55 -74.05 -240.9 Q-74.05 -239.9 -74.9 -239.35 L-75.3 -239.2 -75.75 -239.25 -77.45 -239.65 -78.0 -239.95 -78.5 -240.45 -78.55 -240.5 Q-79.0 -240.9 -79.0 -242.3 -79.0 -243.6 -78.6 -244.05 L-77.9 -244.75 -77.6 -244.9 -75.1 -245.7 -73.45 -245.8 -72.95 -245.55 -72.7 -245.05 M-237.6 -365.05 L-238.0 -364.85 -238.4 -364.85 -240.1 -365.4 -240.1 -365.1 -240.2 -364.65 -240.5 -364.3 -241.45 -363.6 Q-241.7 -363.4 -242.05 -363.4 L-242.6 -363.55 -242.95 -363.8 -243.35 -364.3 -243.45 -365.75 Q-243.45 -367.65 -242.1 -368.6 L-241.7 -368.75 -241.25 -368.75 -237.05 -367.65 -236.65 -367.25 -236.5 -366.7 -236.65 -366.15 -237.6 -365.05 M-247.35 -293.0 Q-246.9 -293.3 -244.95 -292.5 -243.6 -291.95 -242.4 -291.95 L-241.8 -291.75 -241.45 -291.25 -241.45 -290.6 Q-241.7 -289.8 -242.4 -289.15 L-242.75 -288.9 -243.15 -288.85 -244.95 -288.9 -245.05 -288.65 Q-245.9 -287.3 -247.05 -287.4 L-247.55 -287.55 -247.95 -287.95 Q-248.25 -288.45 -248.25 -290.05 L-248.0 -292.25 -247.8 -292.7 -247.35 -293.0" fill="#66ff66" fill-opacity="0.5294118" fill-rule="evenodd" stroke="none"/>
  </g>
</svg>
