<?xml version="1.0" encoding="UTF-8" standalone="no"?>
<svg xmlns:ffdec="https://www.free-decompiler.com/flash" xmlns:xlink="http://www.w3.org/1999/xlink" ffdec:objectType="shape" height="287.55px" width="514.55px" xmlns="http://www.w3.org/2000/svg">
  <g transform="matrix(1.0, 0.0, 0.0, 1.0, 245.05, 470.25)">
    <path d="M215.8 -260.7 Q217.45 -260.5 217.9 -259.7 L219.0 -257.95 221.05 -258.05 223.3 -258.35 223.95 -258.25 223.4 -257.45 218.75 -257.45 Q217.8 -257.8 216.95 -259.25 216.5 -260.0 215.25 -259.05 L215.15 -258.75 Q215.05 -258.65 215.05 -259.5 215.05 -260.35 215.35 -260.55 L215.8 -260.7 M210.1 -252.95 Q209.55 -254.0 209.55 -254.65 209.55 -255.35 210.1 -256.25 210.65 -257.1 210.65 -257.7 210.65 -259.85 212.2 -260.35 L210.4 -254.75 Q210.4 -254.05 210.65 -253.5 L210.85 -252.35 Q213.65 -252.15 217.55 -250.8 L217.7 -250.5 217.7 -249.55 217.7 -248.55 217.55 -248.3 217.15 -248.3 217.15 -250.25 214.6 -250.7 211.25 -251.4 Q210.65 -251.95 210.1 -252.95 M242.85 -263.2 L243.3 -262.95 243.65 -262.4 246.45 -262.1 247.15 -260.9 Q247.45 -260.05 247.7 -259.7 L249.15 -259.3 Q250.05 -259.05 250.55 -257.95 250.9 -257.15 250.9 -256.35 L250.9 -255.45 250.8 -255.3 250.35 -255.3 250.2 -257.3 Q249.6 -258.85 247.15 -259.05 246.6 -259.8 246.6 -261.3 L243.3 -261.55 241.65 -262.0 242.85 -263.2 M228.8 -265.75 Q231.8 -263.85 233.9 -261.25 235.95 -258.75 235.95 -256.95 L235.15 -254.65 Q234.3 -252.3 234.3 -250.45 234.3 -247.35 234.55 -246.65 235.15 -244.85 238.15 -242.1 L241.1 -241.75 246.5 -236.05 Q250.8 -231.25 250.8 -230.1 L250.7 -229.25 250.55 -229.45 250.25 -229.05 Q248.85 -230.45 246.5 -234.85 244.75 -238.2 241.2 -240.1 234.6 -243.7 233.9 -244.95 233.5 -245.65 233.55 -247.05 L233.75 -250.5 Q233.75 -251.95 234.25 -253.9 234.8 -255.95 235.4 -256.5 235.75 -258.05 233.35 -260.85 231.45 -263.15 228.8 -265.1 L225.15 -264.85 224.4 -264.4 224.25 -264.1 Q224.1 -264.0 224.1 -264.85 224.1 -265.75 225.2 -265.8 L228.8 -265.75 M253.55 -250.55 L253.95 -250.8 254.55 -249.85 254.65 -248.5 Q254.65 -247.05 253.3 -244.45 252.5 -244.5 252.5 -245.4 251.65 -244.6 251.15 -242.45 L250.35 -238.8 249.8 -238.7 Q249.8 -239.95 250.75 -242.35 251.6 -244.65 251.45 -245.9 L252.75 -246.05 Q254.1 -246.75 254.0 -248.15 L253.55 -250.55 M253.85 -224.7 L255.45 -224.7 Q257.25 -222.6 258.4 -219.75 259.6 -216.85 259.6 -214.25 L259.5 -212.35 Q259.1 -210.8 257.85 -210.15 L257.15 -211.3 256.9 -211.3 256.65 -210.45 Q256.4 -209.95 256.4 -209.2 256.4 -208.5 256.95 -206.9 L257.45 -204.6 256.95 -202.25 Q256.4 -200.6 256.4 -199.9 256.4 -193.0 264.3 -186.0 L264.1 -185.65 Q258.6 -190.05 256.95 -193.1 255.6 -195.6 255.6 -200.3 255.6 -201.0 256.1 -202.45 L256.6 -204.6 256.1 -207.0 Q255.6 -208.7 255.6 -209.4 255.6 -210.1 255.85 -210.85 L256.05 -212.15 Q257.7 -212.3 258.05 -211.65 L258.65 -212.5 258.8 -214.0 Q258.8 -215.3 258.3 -216.55 L257.15 -219.75 Q256.9 -220.75 255.7 -222.45 254.35 -224.35 253.45 -224.5 L253.85 -224.7 M27.4 -204.7 L27.55 -203.15 27.5 -201.95 27.25 -201.6 25.8 -201.5 27.0 -203.2 27.0 -204.7 27.4 -204.7 M23.4 -201.35 L21.65 -200.4 Q21.65 -199.95 22.15 -199.25 L22.85 -198.1 28.9 -202.3 30.55 -202.15 31.15 -202.0 31.4 -201.15 Q31.4 -199.5 30.85 -199.5 29.65 -199.5 28.9 -198.95 L28.55 -198.95 28.5 -199.85 28.7 -200.55 26.6 -199.35 23.5 -197.2 22.2 -197.45 21.6 -198.45 Q21.1 -199.15 21.1 -199.9 L21.3 -201.05 21.65 -201.5 Q23.75 -202.2 25.05 -201.45 L23.4 -201.35 M30.1 -201.35 L29.65 -201.1 29.95 -201.2 30.1 -201.35 M266.5 -185.2 L266.8 -186.2 268.5 -185.15 269.5 -184.25 269.25 -183.0 268.85 -182.7 266.5 -185.2 M-191.4 -459.25 L-190.75 -459.9 -190.95 -460.3 Q-190.3 -461.05 -189.6 -460.85 L-189.55 -460.8 -189.4 -460.85 -189.35 -460.75 -188.2 -460.0 -188.4 -459.85 -189.5 -459.75 -189.55 -459.75 -190.6 -458.15 -192.1 -458.75 Q-192.95 -459.3 -193.6 -459.45 L-194.4 -458.4 -195.0 -457.5 -193.85 -456.8 -193.35 -456.15 -193.7 -454.8 -194.35 -454.2 -194.35 -454.45 Q-194.2 -454.85 -194.2 -455.6 -194.2 -456.1 -195.0 -456.55 -195.8 -456.95 -195.8 -457.5 -195.8 -459.75 -193.8 -460.55 L-192.05 -460.45 -191.4 -459.25 M-148.85 -469.0 L-148.05 -468.05 -148.7 -467.25 -149.25 -467.7 -149.8 -468.45 -151.95 -465.1 -153.2 -462.2 Q-153.2 -461.35 -152.8 -460.95 L-152.2 -460.55 -150.25 -460.25 Q-149.35 -458.9 -148.75 -456.0 -148.2 -453.25 -147.25 -451.95 L-147.5 -451.55 Q-149.25 -452.7 -149.65 -455.4 -150.2 -458.6 -150.8 -459.45 L-152.9 -459.8 -153.7 -460.95 Q-154.05 -461.65 -154.05 -462.6 -154.05 -463.45 -152.3 -466.6 -150.55 -469.75 -149.9 -470.25 L-148.85 -469.0 M-133.85 -354.3 L-132.0 -353.85 -134.65 -353.3 -135.05 -352.85 -134.35 -352.35 Q-133.95 -351.95 -133.95 -351.1 L-134.0 -350.2 -134.25 -350.1 -134.85 -349.8 Q-135.85 -351.0 -135.85 -352.95 -135.85 -353.85 -135.2 -354.1 L-133.85 -354.3 M-132.55 -353.0 L-131.2 -352.9 -129.8 -352.6 -130.1 -352.4 -132.0 -352.2 -132.55 -353.0 M-125.25 -353.0 Q-126.1 -353.0 -126.5 -352.55 L-126.8 -352.0 -127.65 -352.2 Q-126.55 -353.8 -125.1 -353.5 -123.7 -353.25 -123.95 -351.45 L-124.2 -351.15 Q-124.4 -351.45 -124.4 -352.6 L-124.45 -352.8 -125.25 -353.0 M-124.75 -347.15 L-125.25 -346.8 -125.65 -347.6 Q-124.9 -348.5 -124.35 -347.9 L-124.75 -347.15 M-115.05 -340.85 L-116.7 -340.15 -116.95 -339.85 Q-117.25 -339.75 -117.25 -340.65 -117.25 -341.6 -116.9 -341.7 L-115.05 -341.65 -115.05 -340.85 M-116.05 -343.1 L-117.25 -344.25 -118.45 -345.5 Q-116.9 -346.15 -115.5 -343.85 -115.6 -343.5 -116.05 -343.1 M-71.6 -249.15 L-72.25 -246.85 -71.2 -247.25 -70.45 -247.3 Q-70.25 -247.25 -70.25 -246.4 -70.25 -245.35 -70.8 -244.0 -71.55 -242.05 -72.8 -242.05 L-74.65 -242.2 -74.9 -243.4 Q-74.45 -243.85 -73.65 -243.9 L-72.35 -243.65 -72.05 -244.5 -71.8 -245.6 -73.05 -245.95 -73.2 -246.1 -73.25 -247.0 -72.85 -248.1 -71.6 -249.15 M-232.3 -369.55 L-234.0 -368.6 Q-235.25 -368.7 -235.7 -369.0 -236.0 -369.15 -236.15 -369.6 -238.1 -366.95 -238.8 -366.4 L-239.2 -366.55 -239.8 -366.95 -238.75 -367.6 Q-238.15 -368.15 -238.15 -369.9 -237.6 -369.9 -236.6 -370.45 -235.75 -370.4 -235.5 -370.0 -235.3 -369.65 -234.6 -369.65 -234.15 -369.65 -232.95 -370.45 -231.75 -371.3 -230.65 -371.3 L-230.5 -370.7 Q-230.95 -370.3 -232.3 -369.55 M-243.9 -290.8 L-244.5 -289.05 -244.95 -289.05 -245.05 -290.65 Q-245.05 -292.35 -244.5 -292.95 -243.65 -293.8 -241.35 -293.2 -241.1 -292.35 -241.1 -290.4 L-240.35 -290.4 Q-240.15 -292.5 -238.8 -293.35 L-238.15 -293.15 -238.7 -292.25 Q-239.05 -291.5 -238.95 -290.25 L-239.8 -289.4 -241.2 -289.4 Q-242.2 -290.6 -242.95 -292.35 L-243.65 -292.3 Q-243.5 -291.85 -243.9 -290.8" fill="#ffffff" fill-rule="evenodd" stroke="none"/>
  </g>
</svg>
