<?xml version="1.0" encoding="UTF-8" standalone="no"?>
<svg xmlns:ffdec="https://www.free-decompiler.com/flash" xmlns:xlink="http://www.w3.org/1999/xlink" ffdec:objectType="shape" height="257.65px" width="288.55px" xmlns="http://www.w3.org/2000/svg">
  <g transform="matrix(1.0, 0.0, 0.0, 1.0, 258.95, 470.7)">
    <path d="M28.8 -230.35 L28.8 -230.3 Q29.65 -228.55 29.6 -227.7 29.8 -226.35 26.15 -223.55 23.6 -221.6 21.8 -221.1 L22.3 -220.8 22.45 -220.7 22.75 -220.4 23.2 -220.05 Q23.7 -219.4 23.25 -218.85 L22.7 -218.4 21.5 -218.3 19.15 -218.75 19.1 -218.75 17.05 -219.2 Q16.8 -219.2 16.6 -219.35 15.45 -220.0 15.15 -220.55 14.7 -221.2 14.7 -222.5 14.7 -223.7 15.2 -224.55 15.5 -225.2 16.5 -225.95 16.8 -226.25 17.2 -226.2 L18.9 -226.05 19.45 -225.8 19.75 -225.35 20.4 -224.65 20.45 -224.6 20.6 -224.15 Q22.6 -224.2 24.65 -225.75 26.25 -226.95 26.4 -227.6 L26.0 -228.85 25.55 -230.15 21.9 -230.0 18.45 -230.05 18.3 -230.05 Q16.95 -230.3 16.3 -231.55 L16.35 -231.45 15.85 -232.75 15.85 -233.4 16.2 -233.9 16.8 -234.1 17.25 -234.1 17.9 -233.85 19.05 -232.85 20.05 -232.95 21.3 -233.05 Q21.55 -233.3 21.95 -233.3 L26.45 -233.15 27.1 -232.85 Q27.9 -232.15 28.8 -230.35 M18.7 -222.05 L18.05 -223.0 17.45 -222.3 18.7 -222.05 M-179.95 -470.3 L-179.45 -470.2 -180.35 -468.55 -180.45 -468.65 -180.7 -469.15 -180.65 -469.7 -180.3 -470.15 -180.0 -470.35 -179.95 -470.3 M-177.9 -470.45 L-177.3 -470.25 -178.8 -469.2 -178.85 -469.55 -178.9 -470.25 -178.9 -470.55 -178.65 -470.55 -177.9 -470.45 M-176.45 -469.75 L-175.95 -469.45 -175.65 -468.9 -175.65 -468.65 -176.05 -468.3 -176.0 -468.35 -176.75 -467.95 -176.1 -468.9 -176.4 -469.45 -176.45 -469.55 -176.9 -469.8 -176.5 -469.75 -176.45 -469.75 M-149.25 -470.7 Q-147.8 -470.8 -144.15 -468.3 L-143.8 -467.95 -143.7 -467.5 -143.7 -465.05 -143.95 -464.4 Q-144.2 -464.15 -144.55 -464.05 L-146.7 -463.7 -146.6 -463.7 Q-148.6 -463.25 -149.5 -462.3 -151.25 -460.3 -151.35 -459.15 L-150.7 -457.75 -149.95 -456.9 -149.85 -456.85 Q-148.35 -455.75 -148.25 -454.85 L-147.75 -454.65 -147.35 -454.25 -147.2 -453.75 Q-147.2 -452.6 -148.0 -451.5 L-148.45 -451.15 -149.05 -451.1 -149.55 -451.45 Q-150.05 -451.9 -150.45 -454.15 -150.7 -454.5 -151.9 -454.6 -152.2 -454.65 -152.4 -454.8 L-152.7 -455.2 -153.45 -456.8 -153.45 -456.85 -153.9 -459.0 Q-153.95 -461.65 -151.25 -464.0 -150.1 -465.05 -147.35 -466.6 L-147.7 -466.85 -147.9 -466.6 -148.4 -466.35 -148.9 -466.25 -149.55 -466.35 -150.0 -466.85 -150.25 -469.7 -149.95 -470.4 Q-149.65 -470.7 -149.25 -470.7 M-39.05 -348.6 L-38.6 -348.2 -38.45 -347.6 Q-38.5 -347.3 -38.7 -347.05 -40.0 -345.55 -42.9 -343.2 L-42.9 -343.15 Q-44.5 -341.85 -47.3 -341.65 -49.25 -341.55 -50.15 -340.7 L-50.15 -340.65 Q-51.4 -339.45 -52.3 -337.35 -53.3 -335.2 -53.3 -333.5 -53.2 -332.55 -51.85 -331.4 -49.5 -329.35 -49.7 -328.9 L-49.7 -328.45 -46.1 -331.5 Q-44.95 -332.55 -44.5 -334.65 -44.1 -336.95 -41.75 -339.3 -38.8 -342.15 -35.6 -341.7 L-35.05 -341.4 -34.8 -341.15 -34.5 -340.55 -34.65 -339.9 Q-34.85 -339.6 -35.2 -339.5 -36.8 -338.9 -38.45 -336.15 L-41.2 -331.75 Q-43.25 -329.25 -45.2 -327.3 -48.55 -323.95 -49.5 -324.55 -49.85 -324.6 -50.05 -324.8 L-59.8 -320.7 -60.15 -320.5 -60.55 -320.35 -60.65 -320.3 -60.8 -320.25 -60.7 -320.3 -61.2 -320.1 -61.8 -320.05 -62.55 -320.2 -63.05 -320.5 -63.3 -321.0 -63.3 -321.4 -63.35 -322.35 Q-63.45 -324.5 -60.6 -325.8 L-60.0 -325.85 -59.5 -325.6 -58.9 -325.0 -57.75 -325.5 -54.85 -326.6 -53.0 -328.4 -54.9 -330.75 Q-55.85 -331.6 -55.85 -333.5 -55.85 -341.5 -51.25 -343.05 L-51.15 -343.05 Q-48.55 -343.8 -46.95 -344.45 -44.25 -345.65 -41.95 -348.0 L-41.45 -348.25 -39.65 -348.65 -39.05 -348.6 M-59.15 -383.2 L-58.95 -383.15 -57.6 -383.35 -54.0 -383.8 Q-49.9 -383.8 -48.45 -382.7 L-48.25 -382.5 -46.85 -380.8 Q-45.5 -379.4 -43.8 -378.9 L-43.25 -378.5 -43.1 -377.85 -43.4 -377.25 -44.3 -375.85 Q-45.2 -374.5 -46.55 -374.15 L-47.15 -374.2 -47.6 -374.6 -47.8 -375.15 Q-47.75 -376.45 -48.55 -376.95 L-48.55 -377.0 Q-50.0 -377.85 -55.75 -379.15 L-62.3 -379.55 -67.9 -377.3 -67.9 -377.35 Q-75.0 -374.15 -75.2 -371.85 L-75.0 -371.85 Q-73.75 -371.2 -73.7 -370.5 L-73.75 -369.8 -74.25 -369.3 -80.3 -366.45 -81.65 -365.75 -83.65 -363.85 Q-85.4 -362.5 -85.45 -361.4 -85.4 -361.05 -85.65 -360.7 L-86.3 -360.35 -87.95 -360.6 -87.95 -360.55 -88.3 -360.5 -88.9 -360.35 -89.5 -360.55 -89.8 -360.8 -90.1 -361.25 -90.1 -361.8 -89.85 -362.3 Q-88.35 -363.8 -87.15 -365.9 L-87.15 -365.85 Q-86.05 -368.0 -86.0 -369.45 L-86.25 -370.2 Q-87.05 -371.25 -87.05 -372.25 -87.15 -375.35 -82.95 -377.85 L-76.05 -382.0 Q-71.1 -386.1 -68.2 -385.95 -65.9 -386.0 -62.9 -382.8 L-62.8 -382.75 -62.65 -382.85 Q-62.3 -383.0 -62.1 -383.1 L-61.6 -383.25 -59.4 -383.25 -59.15 -383.2 M-76.95 -374.9 Q-75.05 -377.75 -69.25 -380.2 L-69.2 -380.25 -67.75 -380.75 Q-73.55 -380.55 -78.3 -377.3 -83.05 -374.15 -83.15 -370.6 L-82.4 -369.75 -82.4 -369.7 -81.9 -369.2 Q-80.75 -369.85 -79.85 -370.05 -78.1 -370.55 -77.85 -371.55 L-77.8 -371.55 Q-77.3 -374.65 -76.95 -374.9 M-74.8 -254.5 Q-74.95 -255.15 -73.65 -256.3 L-73.65 -256.35 -71.35 -257.8 Q-70.75 -258.1 -70.15 -258.9 L-69.65 -259.45 -69.25 -259.75 -68.2 -259.6 Q-67.85 -259.45 -67.85 -258.8 L-67.75 -258.35 Q-67.7 -258.1 -67.8 -257.8 -68.25 -256.7 -68.75 -255.95 -69.55 -254.85 -71.05 -254.1 L-70.7 -252.85 -70.7 -252.8 -70.3 -250.85 -70.25 -250.25 -70.6 -249.8 Q-71.1 -249.25 -72.5 -249.25 L-73.1 -249.45 -73.45 -250.0 -74.15 -251.95 -74.15 -251.9 Q-74.8 -253.5 -74.8 -254.5 M-220.2 -381.15 Q-219.6 -379.95 -219.2 -376.95 L-219.3 -376.4 -219.65 -376.0 -220.2 -375.85 -220.55 -375.4 -221.15 -375.25 -221.7 -375.4 -222.1 -375.9 Q-222.75 -377.85 -223.7 -378.1 L-223.65 -378.1 Q-225.7 -378.25 -225.7 -380.85 -225.7 -382.95 -224.55 -384.05 L-223.95 -384.35 -223.3 -384.15 Q-221.0 -382.65 -220.2 -381.15 M-234.6 -299.3 L-234.2 -299.5 -233.7 -299.5 -231.85 -298.85 -231.8 -298.8 -231.05 -298.15 -230.9 -298.3 -230.5 -298.6 -230.05 -298.65 -229.4 -298.55 -228.9 -298.3 -228.6 -297.85 -228.4 -297.2 -228.45 -296.45 -229.3 -294.75 -229.7 -294.3 -230.25 -294.2 Q-232.05 -294.3 -233.15 -295.5 -233.65 -294.65 -234.35 -293.95 L-234.4 -293.95 -234.8 -293.6 -235.1 -293.4 Q-236.1 -293.05 -236.6 -293.95 L-236.85 -295.05 -236.4 -297.05 Q-236.35 -297.95 -234.6 -299.3 M-250.0 -224.15 Q-249.8 -223.5 -250.45 -222.1 L-250.4 -222.15 -250.5 -221.9 -250.2 -221.8 -250.1 -221.8 -250.2 -221.8 Q-249.85 -221.8 -249.55 -221.5 -249.25 -221.2 -249.25 -220.8 L-249.25 -219.9 -249.25 -219.8 -249.35 -218.5 -249.65 -217.85 -250.35 -217.6 -250.3 -217.5 -250.4 -217.45 Q-251.15 -217.1 -252.2 -217.1 -253.8 -217.1 -254.5 -217.5 L-254.5 -216.7 -254.65 -214.95 -254.65 -214.9 -254.85 -214.05 Q-254.85 -213.65 -255.15 -213.35 -255.45 -213.05 -255.85 -213.05 L-256.5 -213.05 -257.05 -213.25 -257.45 -213.7 Q-257.85 -214.95 -257.65 -216.1 L-258.0 -216.15 -258.55 -216.45 -258.85 -217.05 -258.95 -218.3 -258.95 -218.4 Q-259.05 -219.1 -257.95 -220.55 L-258.0 -220.5 Q-256.8 -222.3 -255.95 -222.1 -255.1 -222.15 -253.55 -221.2 L-253.5 -221.2 -253.55 -221.5 -253.55 -221.55 Q-253.6 -222.4 -252.8 -223.5 L-251.5 -224.8 -250.9 -224.95 -250.35 -224.7 -250.0 -224.15 M-252.5 -220.45 L-253.5 -221.2 -253.5 -220.25 -253.4 -219.85 -253.25 -219.6 -252.7 -219.3 -252.6 -219.3 -251.1 -219.1 -251.85 -219.9 -251.85 -219.85 -251.9 -219.85 -252.0 -219.75 -252.0 -219.85 -253.3 -219.8 -252.5 -220.35 -252.4 -220.35 -252.5 -220.45 M-252.3 -220.25 L-252.0 -220.0 -252.0 -220.1 -251.85 -219.9 -251.2 -220.7 -252.4 -220.35 -252.3 -220.25" fill="#66ff66" fill-opacity="0.5294118" fill-rule="evenodd" stroke="none"/>
  </g>
</svg>
