<?xml version="1.0" encoding="UTF-8" standalone="no"?>
<svg xmlns:ffdec="https://www.free-decompiler.com/flash" xmlns:xlink="http://www.w3.org/1999/xlink" ffdec:objectType="shape" height="78.1px" width="317.55px" xmlns="http://www.w3.org/2000/svg">
  <g transform="matrix(1.0, 0.0, 0.0, 1.0, 271.9, 449.35)">
    <path d="M43.85 -445.8 Q44.8 -444.25 44.8 -443.3 L43.75 -441.15 Q42.65 -439.45 42.65 -438.55 42.65 -437.95 44.0 -436.3 45.4 -434.45 45.65 -432.85 L44.95 -432.2 Q43.9 -433.9 43.9 -435.7 L42.2 -437.1 Q41.85 -437.5 41.85 -438.4 41.85 -439.55 42.8 -441.15 43.75 -442.8 43.75 -443.6 L43.3 -444.25 Q42.7 -445.05 42.35 -446.25 41.9 -446.2 41.2 -445.65 L40.15 -444.95 39.9 -444.95 39.85 -445.75 40.55 -446.5 41.8 -447.6 Q42.8 -447.4 43.85 -445.8 M25.35 -447.7 L25.6 -446.65 25.35 -443.8 Q24.8 -442.0 22.85 -441.15 L22.5 -440.2 Q22.1 -439.7 20.9 -439.7 L19.5 -438.45 19.9 -437.3 20.2 -435.7 Q20.2 -433.4 18.6 -430.6 16.95 -427.75 16.95 -426.7 16.95 -425.35 18.4 -423.5 19.8 -421.6 19.8 -420.45 L19.75 -418.05 21.0 -418.0 22.25 -416.9 Q23.0 -416.4 25.55 -416.0 L25.95 -415.55 24.95 -415.4 24.05 -415.25 Q21.2 -415.15 20.7 -416.45 20.45 -417.2 19.45 -417.35 L18.55 -416.35 18.7 -416.1 Q18.1 -415.35 17.35 -415.25 17.15 -415.45 17.1 -416.0 L17.1 -416.1 17.1 -416.4 17.2 -416.4 17.9 -418.15 18.7 -420.25 18.6 -421.0 17.1 -421.05 16.65 -424.0 Q16.15 -426.05 16.15 -426.7 16.15 -428.55 17.75 -431.35 19.35 -434.15 19.35 -435.8 19.35 -436.45 18.8 -437.05 18.25 -437.65 18.25 -438.35 18.25 -439.5 21.45 -440.65 L22.25 -442.15 Q22.75 -443.1 23.4 -442.4 24.75 -443.5 24.75 -443.9 24.75 -444.95 24.15 -446.55 L23.0 -448.9 23.35 -449.2 Q23.55 -449.3 23.55 -449.35 L25.35 -447.7 M19.65 -447.45 L19.3 -446.95 19.3 -447.8 19.65 -447.45 M4.5 -399.0 Q6.9 -394.85 6.9 -394.35 L6.1 -392.95 Q5.25 -391.7 5.25 -391.1 5.25 -390.2 7.45 -386.55 9.6 -382.9 9.6 -380.25 9.6 -379.55 8.5 -378.8 L4.65 -376.3 Q4.35 -376.1 3.8 -374.35 3.3 -372.75 2.65 -372.45 L2.2 -372.5 Q2.1 -372.55 2.1 -373.35 2.1 -376.45 5.3 -378.2 L8.5 -380.1 Q8.5 -381.85 6.4 -385.5 4.25 -389.15 4.25 -390.95 4.25 -391.55 5.05 -392.8 5.8 -394.0 5.8 -394.55 5.8 -396.0 0.1 -404.25 -4.8 -406.9 -6.95 -407.85 -13.2 -410.75 -16.55 -410.75 L-18.95 -410.6 Q-20.7 -409.95 -21.25 -407.1 -21.8 -404.25 -24.05 -403.4 L-25.85 -403.75 -29.7 -404.0 -31.3 -405.15 Q-32.5 -405.85 -33.0 -406.6 L-32.05 -403.55 Q-30.55 -399.3 -30.55 -397.5 -30.55 -396.6 -33.1 -393.25 L-34.9 -392.95 -35.9 -391.8 Q-36.5 -391.1 -36.5 -390.55 L-36.3 -390.55 -36.15 -389.55 -35.95 -389.35 -35.45 -388.55 -35.7 -388.1 -35.95 -386.95 -35.8 -386.4 -35.7 -386.55 Q-35.55 -386.85 -35.2 -386.95 L-33.9 -385.45 Q-32.95 -384.35 -32.75 -383.65 -32.2 -381.9 -32.2 -380.5 L-32.2 -379.95 -32.1 -379.7 -31.35 -378.9 -30.5 -378.1 -30.85 -377.9 -32.3 -377.7 -32.35 -376.5 -32.65 -376.25 -33.1 -375.75 -33.15 -376.35 -32.9 -377.7 -32.9 -378.3 Q-33.4 -379.2 -33.7 -380.9 L-34.5 -383.8 Q-35.35 -384.95 -36.6 -385.3 L-36.75 -386.7 -36.7 -387.95 Q-37.3 -389.45 -37.3 -390.35 -37.3 -391.95 -34.35 -394.05 -31.4 -396.1 -31.4 -397.5 -31.4 -399.9 -32.75 -402.2 -34.1 -404.5 -34.1 -409.2 L-33.5 -414.95 Q-33.85 -418.75 -38.8 -418.55 L-38.85 -418.3 -38.9 -419.15 -38.55 -419.8 -38.8 -419.65 -38.9 -420.2 Q-37.45 -422.6 -34.7 -425.3 L-33.95 -426.0 -33.8 -426.5 Q-33.45 -427.7 -33.45 -428.55 -33.45 -429.9 -35.55 -431.65 L-39.3 -434.75 -42.15 -437.85 -44.4 -440.3 -52.15 -439.95 -56.95 -439.55 Q-56.95 -439.95 -55.9 -440.15 L-48.5 -440.75 -48.3 -440.8 -48.15 -441.0 -44.25 -440.85 -32.55 -429.25 -32.5 -429.25 Q-31.75 -428.65 -31.55 -427.95 L-30.35 -428.55 -34.45 -423.85 -36.35 -421.8 -36.85 -420.7 -36.9 -419.95 -35.1 -418.5 Q-33.3 -416.95 -33.3 -414.8 L-33.2 -412.1 -33.3 -409.2 Q-33.4 -408.4 -33.1 -407.05 -32.05 -406.85 -31.05 -406.15 L-29.4 -404.85 -24.9 -405.1 -24.75 -404.35 Q-22.45 -405.35 -22.05 -408.3 -21.65 -411.1 -19.25 -411.7 -11.35 -410.1 -5.8 -408.0 -0.95 -406.15 0.85 -404.45 1.95 -403.4 4.5 -399.0 M29.95 -416.65 L30.8 -416.55 29.95 -415.8 29.55 -415.85 Q29.1 -416.0 29.0 -416.25 L29.95 -416.65 M-251.95 -399.15 L-251.0 -399.15 Q-251.5 -397.7 -252.0 -394.05 -252.45 -390.3 -252.85 -389.1 L-254.55 -383.8 Q-255.9 -381.05 -257.95 -381.8 -259.05 -382.0 -260.5 -381.05 -262.35 -379.8 -263.0 -379.6 -263.9 -375.5 -264.25 -372.35 -265.65 -372.35 -265.9 -373.05 -266.2 -373.75 -268.15 -373.75 L-268.25 -373.6 -268.4 -374.1 Q-269.6 -374.75 -269.55 -376.05 L-269.2 -378.8 Q-269.35 -379.75 -270.65 -381.75 L-271.9 -384.0 Q-271.9 -385.5 -270.75 -387.7 -269.6 -390.0 -268.4 -390.8 L-263.45 -394.25 Q-262.05 -395.1 -260.15 -395.1 L-257.45 -394.9 -257.5 -394.05 -260.25 -394.1 Q-263.15 -394.1 -266.8 -390.0 -268.65 -387.9 -271.15 -384.0 -269.15 -382.95 -268.5 -378.95 -268.05 -376.25 -267.05 -375.8 L-265.1 -375.55 Q-263.85 -379.1 -263.25 -379.75 L-259.9 -382.65 -257.5 -382.8 Q-254.05 -388.3 -253.9 -388.75 -253.65 -389.45 -253.65 -393.9 L-252.8 -396.3 Q-251.95 -398.55 -251.95 -399.15 M-92.1 -434.35 L-90.75 -434.2 Q-89.95 -433.05 -87.1 -431.2 L-83.65 -428.7 Q-82.8 -427.8 -80.85 -423.05 -80.55 -422.45 -79.4 -417.7 -78.15 -412.75 -78.15 -411.85 -78.15 -408.2 -79.75 -407.1 L-81.25 -408.5 -84.15 -403.6 Q-85.1 -401.85 -85.1 -399.6 L-83.4 -393.85 -81.5 -388.0 Q-79.9 -383.45 -77.1 -382.5 -73.35 -381.15 -71.0 -379.65 L-67.4 -377.3 -64.8 -377.75 Q-63.9 -378.1 -63.55 -378.5 L-58.85 -378.6 Q-54.2 -377.35 -51.4 -375.4 -48.6 -373.45 -49.25 -371.8 L-49.4 -371.55 Q-49.6 -371.3 -50.05 -371.25 -49.85 -373.55 -53.0 -375.15 -56.0 -376.65 -61.7 -377.4 L-63.6 -376.85 -65.0 -376.1 -67.85 -376.1 Q-70.5 -377.7 -78.3 -381.8 -81.05 -383.85 -82.55 -387.85 L-85.1 -394.1 Q-86.2 -397.1 -86.2 -399.75 -86.2 -402.4 -84.9 -405.2 -83.2 -408.85 -80.15 -409.8 -79.2 -410.4 -79.2 -411.7 -79.2 -415.8 -82.55 -423.35 L-83.5 -425.9 Q-84.4 -427.9 -85.65 -428.85 -91.4 -433.45 -91.75 -433.35 L-92.15 -432.75 Q-92.55 -432.2 -93.7 -432.2 L-102.05 -433.4 -109.1 -441.95 Q-108.05 -442.15 -105.15 -438.75 L-101.6 -434.5 -96.8 -434.05 -92.1 -434.35 M-35.95 -386.2 L-35.9 -386.2 -35.95 -386.25 -35.95 -386.2" fill="#ffffff" fill-rule="evenodd" stroke="none"/>
  </g>
</svg>
