<?xml version="1.0" encoding="UTF-8" standalone="no"?>
<svg xmlns:ffdec="https://www.free-decompiler.com/flash" xmlns:xlink="http://www.w3.org/1999/xlink" ffdec:objectType="shape" height="341.6px" width="137.45px" xmlns="http://www.w3.org/2000/svg">
  <g transform="matrix(1.0, 0.0, 0.0, 1.0, 12.25, 509.3)">
    <path d="M54.1 -509.25 L58.55 -509.05 58.45 -509.1 Q64.3 -507.85 66.65 -506.25 67.9 -505.35 69.7 -502.45 L69.7 -502.4 72.15 -499.45 Q74.75 -496.1 74.65 -494.85 L74.45 -494.2 74.2 -493.9 74.15 -493.85 73.9 -492.15 Q73.95 -489.6 77.3 -485.0 81.15 -479.75 81.1 -476.8 L81.1 -476.05 80.8 -475.35 80.6 -475.2 80.2 -474.9 79.65 -474.75 79.1 -474.8 Q78.8 -474.85 78.65 -475.05 L78.4 -475.55 Q77.9 -477.85 76.45 -480.6 74.65 -484.15 72.95 -484.3 72.55 -484.15 72.45 -483.25 L72.45 -481.4 Q72.45 -479.8 73.2 -476.7 L74.0 -473.25 74.0 -472.7 73.7 -472.25 73.6 -472.1 Q73.35 -471.65 73.35 -470.65 73.35 -469.9 73.5 -469.15 L73.55 -469.1 73.65 -468.4 73.7 -468.35 73.7 -468.3 74.25 -466.85 74.75 -466.9 75.45 -466.95 75.9 -466.65 75.95 -466.6 76.05 -466.55 76.2 -466.4 76.25 -466.35 Q76.8 -465.85 76.95 -464.7 L77.3 -464.2 77.35 -464.15 Q78.95 -462.05 82.8 -462.85 L83.3 -462.85 83.7 -462.6 Q88.85 -457.75 89.85 -453.75 L89.85 -453.7 Q90.15 -452.45 90.15 -445.4 L89.9 -437.45 89.8 -437.05 89.5 -436.7 Q88.8 -436.0 87.2 -436.9 L87.15 -436.95 86.55 -437.35 84.5 -434.75 Q83.1 -430.7 82.55 -425.8 L80.55 -409.7 80.55 -409.65 78.1 -398.9 77.7 -391.95 Q77.7 -389.45 79.55 -385.05 L80.1 -383.6 84.5 -383.75 85.15 -383.8 85.65 -383.5 86.5 -382.3 86.7 -382.05 86.85 -381.7 86.85 -381.8 Q88.4 -379.05 90.05 -373.5 92.0 -366.95 92.05 -363.55 92.7 -361.1 93.6 -359.1 94.75 -356.4 95.7 -356.2 96.25 -356.25 96.8 -356.8 98.05 -358.05 98.85 -357.95 L99.1 -357.9 Q100.8 -357.5 100.95 -356.85 L101.05 -356.25 100.75 -355.7 Q98.85 -353.8 98.8 -352.05 98.85 -351.15 100.35 -347.3 L102.05 -342.75 102.1 -342.3 101.95 -341.85 101.7 -341.5 101.2 -341.15 100.65 -341.1 Q100.35 -341.2 100.15 -341.4 99.4 -342.15 98.8 -344.55 98.25 -345.7 96.8 -345.7 93.85 -345.65 91.0 -342.55 88.95 -340.4 87.65 -337.65 86.5 -335.25 86.25 -333.5 86.1 -332.6 86.1 -329.85 L86.15 -329.0 86.95 -325.0 87.1 -324.4 Q88.25 -321.95 90.2 -319.25 94.9 -312.55 98.4 -312.4 98.8 -312.4 99.45 -312.7 L101.25 -313.2 Q103.65 -313.2 105.15 -312.5 L106.2 -312.0 106.25 -312.0 106.85 -312.35 107.35 -312.65 Q108.2 -313.2 108.7 -312.0 L108.8 -310.95 Q108.85 -310.15 108.25 -309.0 L108.25 -308.95 107.9 -308.05 109.0 -304.45 109.0 -304.4 Q110.2 -300.25 110.2 -298.55 110.2 -295.1 109.5 -294.15 108.4 -292.35 107.7 -290.1 107.05 -288.0 107.05 -282.65 L107.25 -274.7 107.25 -273.65 Q109.85 -259.35 109.85 -251.15 L108.35 -244.1 108.05 -242.95 107.8 -242.5 106.6 -241.25 Q106.3 -241.0 105.9 -241.0 L103.6 -241.0 102.95 -241.2 102.65 -241.8 102.6 -242.1 100.1 -244.5 98.1 -246.2 Q96.55 -245.75 95.2 -244.4 L93.95 -243.35 93.65 -242.5 Q91.15 -236.3 91.1 -234.5 91.1 -228.25 95.05 -217.95 99.05 -207.3 99.05 -200.3 99.05 -190.25 97.15 -185.05 94.0 -176.25 84.2 -170.5 L83.7 -170.35 80.0 -170.35 79.7 -170.4 Q78.7 -170.7 78.0 -171.2 69.25 -167.7 56.35 -167.7 47.9 -167.7 42.85 -169.05 L42.3 -168.85 39.5 -168.45 Q31.4 -168.2 23.95 -193.15 20.35 -205.25 18.25 -217.7 L18.2 -217.9 Q18.2 -223.5 21.55 -232.15 24.6 -240.35 24.65 -242.6 24.65 -247.15 23.8 -250.6 22.9 -253.9 21.4 -255.35 18.4 -254.95 15.6 -253.7 L15.75 -253.75 Q11.05 -250.75 7.3 -247.0 4.65 -244.4 2.85 -241.8 L2.9 -241.85 Q1.85 -240.1 1.15 -238.25 L0.75 -237.8 0.6 -237.7 0.55 -237.7 0.2 -237.45 -1.4 -237.1 Q-1.8 -237.0 -3.9 -238.1 L-4.15 -238.3 -4.25 -238.4 -5.6 -240.7 -5.6 -240.75 Q-6.3 -242.45 -6.3 -244.95 L-5.8 -250.4 -5.8 -252.6 -5.8 -252.65 Q-6.05 -256.35 -7.75 -258.9 -7.9 -258.8 -8.0 -258.8 L-8.5 -258.7 -8.95 -258.85 Q-10.05 -259.35 -10.2 -261.75 L-10.15 -261.65 -10.25 -264.05 Q-10.25 -266.55 -8.85 -270.4 L-8.8 -270.4 Q-7.65 -273.55 -7.9 -276.7 L-7.75 -277.3 -4.95 -283.75 -4.95 -283.8 -4.9 -283.95 -4.3 -285.55 Q-2.2 -291.0 1.75 -295.15 L1.75 -295.2 Q3.2 -296.85 8.35 -298.0 10.1 -298.45 11.05 -300.05 11.5 -304.05 12.2 -306.2 13.0 -311.45 16.25 -319.5 L16.35 -319.85 18.0 -325.1 19.55 -330.75 19.55 -331.85 19.55 -331.95 19.7 -332.8 19.7 -334.7 20.0 -335.4 20.7 -335.7 21.4 -335.7 21.7 -335.65 22.0 -335.85 Q23.05 -336.7 25.05 -339.6 L28.75 -345.65 28.75 -345.7 28.9 -345.85 Q32.6 -358.35 32.6 -365.95 32.6 -371.05 29.75 -376.3 26.55 -381.95 26.55 -389.6 L26.3 -397.0 26.3 -397.15 Q26.45 -399.1 29.6 -406.95 32.15 -413.55 33.5 -415.9 34.65 -418.0 36.05 -419.4 38.65 -423.55 42.35 -427.3 L42.4 -427.35 45.5 -432.9 Q50.35 -441.4 50.4 -446.55 50.4 -448.75 49.45 -451.3 48.5 -454.1 47.05 -455.55 L47.0 -455.55 46.95 -455.85 Q46.3 -455.1 45.0 -455.1 L44.4 -455.3 Q44.15 -455.5 44.05 -455.8 L43.9 -456.3 43.9 -456.95 44.3 -457.4 48.3 -460.85 48.35 -460.85 Q52.65 -464.4 54.15 -464.3 L56.85 -464.1 59.7 -463.65 60.15 -463.4 Q60.95 -462.7 61.1 -461.1 64.5 -461.3 65.9 -465.7 66.8 -468.4 66.8 -471.45 66.8 -472.9 65.8 -475.95 L65.8 -475.9 65.3 -477.3 65.15 -477.4 64.9 -477.7 63.75 -478.85 63.7 -478.95 Q62.7 -480.15 62.65 -481.25 L62.65 -481.3 62.95 -483.0 63.15 -484.25 Q63.05 -486.55 59.6 -490.45 L59.6 -490.4 Q55.7 -494.8 52.25 -494.9 L45.8 -494.85 45.3 -495.0 Q40.5 -495.0 37.3 -491.25 L36.9 -491.0 36.4 -490.9 35.85 -491.0 Q35.5 -491.05 35.25 -491.35 35.0 -491.65 35.0 -492.0 L35.25 -492.65 38.7 -497.0 Q40.35 -499.5 40.55 -501.25 40.75 -504.7 42.8 -505.95 L42.8 -506.0 Q45.25 -507.6 54.0 -509.2 L54.1 -509.25 M74.2 -466.9 L74.2 -466.85 74.25 -466.85 74.2 -466.9 M121.9 -364.65 L121.85 -364.5 121.95 -364.45 121.9 -364.65 M125.2 -364.6 L125.15 -364.1 124.25 -363.2 Q123.85 -363.05 123.5 -363.2 122.05 -363.8 121.95 -364.45 L119.5 -364.4 118.75 -363.8 117.7 -362.75 117.7 -362.7 117.65 -361.7 116.8 -359.5 115.8 -357.6 115.45 -357.3 115.0 -357.2 114.45 -357.25 Q113.35 -357.4 113.15 -358.05 L113.05 -358.5 113.15 -358.95 114.45 -361.9 114.45 -362.0 114.5 -364.05 Q114.5 -366.55 113.85 -368.0 112.9 -369.95 110.5 -371.5 L105.75 -371.15 Q105.4 -370.6 104.9 -370.8 103.75 -370.5 103.75 -372.5 103.55 -374.25 107.1 -376.15 L107.05 -376.15 Q110.55 -378.2 114.25 -377.45 L114.9 -377.05 Q115.5 -376.2 116.1 -373.45 116.5 -371.45 117.3 -370.45 L117.35 -370.4 Q118.0 -369.7 120.8 -368.2 124.0 -366.5 125.0 -365.1 L125.2 -364.6 M89.85 -358.65 L91.25 -358.7 89.95 -359.2 89.85 -358.65 M8.25 -380.5 L11.85 -374.65 Q13.65 -371.75 13.65 -368.9 13.65 -363.95 12.3 -362.25 11.35 -360.85 11.35 -358.3 L11.35 -358.25 Q11.25 -355.55 11.8 -353.05 12.7 -348.8 15.05 -348.65 L15.75 -349.05 Q16.95 -349.9 17.6 -349.85 L18.2 -349.65 18.55 -349.15 18.85 -346.7 Q18.85 -344.95 17.75 -343.55 L17.7 -343.55 Q16.6 -342.25 16.05 -340.1 L16.05 -340.05 15.55 -337.15 15.3 -333.85 14.95 -333.2 14.25 -333.0 Q13.85 -333.0 13.6 -333.3 12.8 -334.05 12.45 -335.5 L12.45 -335.45 Q12.15 -336.5 12.15 -337.2 12.1 -337.8 12.7 -339.8 L13.1 -341.9 Q13.0 -343.4 9.35 -349.9 6.5 -351.6 5.3 -353.15 3.75 -355.0 3.95 -356.8 L5.3 -356.9 4.3 -357.85 4.25 -357.8 4.25 -357.9 4.3 -357.85 4.35 -358.2 4.2 -357.85 4.0 -356.95 4.2 -357.05 3.95 -356.85 3.95 -356.8 Q1.85 -354.8 0.25 -351.05 -1.4 -347.4 -1.4 -344.9 L-0.6 -339.55 -0.6 -339.5 -0.65 -336.85 -0.85 -334.65 Q-0.85 -333.7 0.05 -330.85 L0.1 -330.45 0.0 -330.05 -0.2 -329.7 -0.7 -329.25 -1.35 -329.2 Q-1.7 -329.3 -1.9 -329.55 -2.65 -330.55 -3.65 -333.2 L-3.65 -333.15 Q-4.55 -335.4 -5.55 -336.65 L-5.55 -336.7 -7.6 -340.15 Q-8.85 -341.6 -10.1 -341.1 L-10.65 -341.0 -11.15 -341.2 -11.5 -341.7 Q-12.25 -344.05 -12.25 -346.95 -12.3 -351.1 -9.0 -358.75 L-9.0 -358.7 Q-6.0 -365.9 -6.0 -371.15 L-6.05 -373.5 Q-6.2 -374.1 -6.6 -374.1 L-7.35 -374.25 -7.75 -374.9 -7.85 -375.4 -7.75 -376.05 -7.25 -376.5 Q-6.2 -377.0 -2.7 -381.6 L-2.55 -381.75 Q2.35 -386.1 8.05 -380.75 L8.25 -380.5 M0.75 -323.75 L1.1 -323.3 Q2.0 -320.8 2.0 -319.65 L2.0 -319.55 1.9 -318.65 1.75 -318.2 Q1.3 -317.45 0.35 -317.25 L-0.4 -317.4 -0.8 -318.05 -1.25 -319.4 -1.25 -319.45 -1.55 -321.3 -1.4 -323.15 -1.05 -323.7 -0.45 -323.95 0.15 -323.95 0.75 -323.75" fill="#cdffb4" fill-opacity="0.5019608" fill-rule="evenodd" stroke="none"/>
    <path d="M58.25 -508.15 Q63.85 -506.95 66.05 -505.45 67.2 -504.6 68.85 -501.9 L71.35 -498.85 Q73.65 -495.9 73.65 -494.85 L73.4 -494.5 73.35 -494.55 Q72.9 -493.2 72.9 -492.15 72.9 -489.35 76.5 -484.4 80.1 -479.5 80.1 -476.8 L80.1 -476.05 79.9 -475.9 79.35 -475.75 Q78.85 -478.15 77.35 -481.05 75.2 -485.3 72.95 -485.3 71.7 -485.3 71.45 -483.4 L71.45 -481.4 Q71.45 -479.7 72.2 -476.5 L73.05 -473.0 72.7 -472.6 Q72.35 -471.95 72.35 -470.6 L72.55 -468.95 72.7 -468.15 72.75 -468.05 73.4 -466.3 Q73.75 -465.85 74.2 -465.85 L75.15 -466.0 75.15 -465.95 75.35 -465.8 75.5 -465.7 75.5 -465.65 Q75.9 -465.25 76.0 -464.35 L76.5 -463.6 Q78.4 -460.9 83.0 -461.9 87.9 -457.25 88.85 -453.5 89.15 -452.25 89.15 -445.4 L88.9 -437.55 Q88.55 -437.3 87.65 -437.8 86.75 -438.35 86.55 -438.9 L83.6 -435.2 Q82.15 -431.05 81.55 -425.95 L79.55 -409.9 77.1 -399.05 76.7 -391.95 Q76.7 -389.3 78.6 -384.7 L79.35 -382.85 Q81.85 -381.5 84.9 -382.85 L85.8 -381.6 85.95 -381.3 Q87.5 -378.6 89.1 -373.25 91.05 -366.7 91.05 -363.4 91.7 -360.8 92.65 -358.7 94.2 -355.2 95.7 -355.2 96.6 -355.2 97.5 -356.1 L98.85 -356.95 Q99.9 -356.7 100.05 -356.4 97.8 -354.15 97.8 -352.05 97.8 -351.05 99.4 -346.95 L101.1 -342.45 100.85 -342.1 Q100.25 -342.75 99.75 -344.9 99.0 -346.7 96.8 -346.7 93.45 -346.7 90.25 -343.25 88.1 -340.95 86.75 -338.1 85.55 -335.5 85.25 -333.65 85.1 -332.7 85.1 -329.85 L85.15 -328.95 85.95 -324.8 86.15 -324.1 Q87.35 -321.55 89.35 -318.7 94.5 -311.4 98.4 -311.4 L99.85 -311.8 Q100.7 -312.2 101.25 -312.2 103.4 -312.2 104.75 -311.6 L105.9 -310.95 106.65 -311.1 107.55 -311.6 Q107.8 -312.05 107.8 -310.95 L107.35 -309.45 Q106.85 -308.5 106.85 -307.95 L108.05 -304.15 Q109.2 -300.15 109.2 -298.55 109.2 -295.55 108.65 -294.7 107.5 -292.8 106.75 -290.4 106.05 -288.2 106.05 -282.65 L106.25 -274.7 106.25 -273.65 Q108.85 -259.35 108.85 -251.15 L107.35 -244.35 107.1 -243.2 105.9 -242.0 103.6 -242.0 103.5 -242.65 100.8 -245.25 98.25 -247.25 Q96.25 -246.85 94.5 -245.15 L93.15 -243.95 92.7 -242.9 Q90.1 -236.4 90.1 -234.5 90.1 -228.1 94.1 -217.6 98.05 -207.15 98.05 -200.3 98.05 -190.5 96.2 -185.4 93.15 -176.9 83.7 -171.35 L80.0 -171.35 Q78.8 -171.7 78.2 -172.35 69.45 -168.7 56.35 -168.7 47.75 -168.7 42.75 -170.1 L41.95 -169.8 39.5 -169.45 Q32.05 -169.45 24.9 -193.45 21.3 -205.5 19.2 -217.9 19.2 -223.35 22.45 -231.8 25.65 -240.25 25.65 -242.6 25.65 -247.3 24.75 -250.85 23.7 -254.85 21.75 -256.4 18.3 -256.0 15.2 -254.6 10.45 -251.55 6.6 -247.7 3.9 -245.05 2.05 -242.35 0.95 -240.55 0.2 -238.65 L-0.05 -238.65 -0.15 -238.35 -1.4 -238.1 Q-1.7 -238.1 -3.45 -239.0 -4.25 -240.0 -4.7 -241.1 -5.3 -242.65 -5.3 -244.95 L-4.8 -250.3 -4.8 -252.65 Q-5.1 -257.45 -7.7 -260.55 L-8.15 -260.1 -8.45 -259.7 Q-9.1 -260.1 -9.2 -261.8 L-9.25 -264.05 Q-9.25 -266.4 -7.9 -270.05 -6.65 -273.4 -6.9 -276.8 -6.6 -277.3 -4.05 -283.4 L-4.0 -283.5 -3.4 -285.2 Q-1.35 -290.45 2.45 -294.5 3.85 -295.95 8.55 -297.05 10.85 -297.6 12.05 -299.75 12.5 -303.85 13.15 -306.0 L13.2 -306.05 Q13.95 -311.25 17.15 -319.15 L17.35 -319.55 18.95 -324.8 20.55 -330.7 20.55 -331.85 20.7 -332.65 20.7 -334.7 21.4 -334.7 21.45 -334.6 21.55 -334.6 21.85 -334.85 22.05 -334.7 Q23.35 -335.35 25.85 -339.05 L29.6 -345.15 29.8 -345.4 Q33.6 -358.2 33.6 -365.95 33.6 -371.3 30.6 -376.8 27.55 -382.25 27.55 -389.6 L27.3 -397.1 Q27.45 -398.95 30.5 -406.6 33.05 -413.1 34.35 -415.4 35.5 -417.4 36.85 -418.75 39.4 -422.9 43.1 -426.65 L46.35 -432.4 Q51.4 -441.2 51.4 -446.55 51.4 -448.9 50.4 -451.65 49.35 -454.7 47.7 -456.3 L46.3 -456.65 Q45.9 -456.1 45.0 -456.1 L44.85 -456.6 48.95 -460.1 Q52.85 -463.3 54.15 -463.3 L56.75 -463.1 59.45 -462.7 Q60.15 -462.0 60.15 -460.25 L60.2 -460.1 60.95 -460.1 Q65.15 -460.1 66.85 -465.4 67.8 -468.25 67.8 -471.45 67.8 -473.0 66.75 -476.25 L66.0 -478.2 65.7 -478.25 64.45 -479.6 Q63.7 -480.5 63.65 -481.3 L63.9 -482.75 64.15 -484.25 Q64.15 -486.8 60.35 -491.1 56.1 -495.9 52.25 -495.9 L45.8 -495.85 45.6 -496.0 Q40.15 -496.15 36.55 -491.9 L36.0 -492.0 Q38.5 -494.95 39.5 -496.45 41.4 -499.25 41.55 -501.2 41.7 -504.05 43.35 -505.15 45.7 -506.65 54.15 -508.25 L58.25 -508.15 M123.85 -364.15 Q123.0 -364.5 122.9 -364.8 L122.1 -365.45 119.35 -365.4 Q118.65 -365.2 118.0 -364.5 L117.0 -363.45 116.7 -362.9 116.65 -361.7 115.9 -359.95 115.0 -358.2 114.6 -358.25 Q114.15 -358.3 114.05 -358.5 L115.4 -361.75 115.5 -364.05 Q115.5 -366.8 114.75 -368.45 113.65 -370.75 110.7 -372.5 L105.0 -371.95 104.9 -371.8 Q104.75 -371.8 104.75 -372.5 104.75 -373.75 107.55 -375.3 110.7 -377.15 114.05 -376.5 114.6 -375.7 115.1 -373.25 115.6 -370.95 116.55 -369.8 117.25 -369.0 120.3 -367.35 123.25 -365.75 124.2 -364.5 L123.85 -364.15 M90.75 -358.85 L90.75 -358.7 90.8 -358.75 90.75 -358.85 M11.0 -374.15 Q12.65 -371.5 12.65 -368.9 12.65 -364.4 11.5 -362.85 10.35 -361.25 10.35 -358.3 10.25 -355.45 10.8 -352.85 11.9 -347.65 15.05 -347.65 15.45 -347.65 16.3 -348.25 17.15 -348.85 17.6 -348.85 L17.85 -346.7 Q17.85 -345.3 16.95 -344.2 15.7 -342.75 15.05 -340.35 L14.55 -337.2 14.3 -334.0 Q13.7 -334.6 13.4 -335.75 L13.15 -337.2 13.65 -339.55 14.1 -341.9 Q14.1 -343.55 10.1 -350.6 7.25 -352.3 6.05 -353.8 4.35 -355.8 5.25 -357.8 L5.25 -357.9 3.5 -357.8 Q1.1 -355.65 -0.7 -351.45 -2.4 -347.55 -2.4 -344.9 L-1.6 -339.4 -1.65 -336.95 -1.85 -334.65 Q-1.85 -333.6 -0.9 -330.55 L-1.1 -330.2 Q-1.8 -331.1 -2.75 -333.55 -3.7 -335.95 -4.75 -337.3 L-6.75 -340.65 Q-8.6 -343.0 -10.55 -342.0 -11.25 -344.2 -11.25 -346.95 -11.25 -350.95 -8.1 -358.35 -5.0 -365.75 -5.0 -371.15 L-5.1 -373.7 Q-5.45 -375.35 -6.8 -375.1 L-6.9 -375.6 Q-5.7 -376.05 -1.9 -381.0 2.4 -384.7 7.35 -380.05 L11.0 -374.15 M0.15 -318.25 L-0.3 -319.75 -0.55 -321.3 -0.45 -322.95 0.15 -322.95 Q1.0 -320.7 1.0 -319.65 L0.9 -318.75 0.15 -318.25" fill="#ffffff" fill-rule="evenodd" stroke="none"/>
    <path d="M72.7 -444.45 L74.55 -436.6 76.2 -428.45 Q76.2 -422.45 73.6 -408.8 L73.3 -407.15 73.35 -406.75 73.35 -406.3 72.8 -404.5 Q70.95 -394.1 70.95 -388.7 70.95 -366.7 73.25 -351.55 75.15 -338.9 79.8 -324.55 L90.25 -294.5 Q97.75 -272.3 104.05 -248.05 L103.3 -248.05 Q102.15 -249.25 99.05 -256.5 95.25 -263.2 89.2 -263.2 83.5 -263.2 81.85 -258.95 81.05 -256.9 81.05 -251.3 81.05 -249.45 87.25 -226.75 L90.55 -214.55 Q91.55 -204.7 91.55 -202.1 L91.2 -196.25 Q91.1 -193.45 91.35 -191.4 L90.05 -185.4 87.25 -181.0 Q84.4 -176.95 84.4 -176.2 L84.4 -175.8 Q74.55 -168.7 56.35 -168.7 43.4 -168.7 38.5 -171.95 L37.95 -172.35 37.05 -175.3 33.65 -189.35 Q29.6 -207.7 29.6 -220.95 29.6 -227.0 31.15 -235.4 32.7 -243.75 32.7 -247.45 L32.1 -250.0 Q31.3 -252.8 30.1 -255.2 26.2 -262.7 19.95 -262.7 16.45 -262.7 7.85 -253.9 -0.65 -244.55 -2.05 -243.45 L-2.3 -244.45 Q1.5 -256.45 7.75 -271.1 L18.9 -295.95 Q32.3 -325.9 35.45 -344.55 36.6 -351.4 38.6 -370.75 40.2 -386.5 42.4 -395.7 49.1 -423.45 72.7 -444.45" fill="#cdffb4" fill-rule="evenodd" stroke="none"/>
    <path d="M54.8 -397.8 Q54.4 -397.25 53.05 -397.25 50.4 -397.25 49.25 -400.65 48.7 -402.25 48.65 -403.35 48.65 -410.95 51.55 -407.55 54.3 -404.4 55.15 -399.25 L54.8 -397.8 M69.85 -409.5 L70.25 -408.9 70.6 -408.15 70.65 -407.8 70.65 -407.35 Q70.75 -406.9 70.25 -405.7 L69.9 -404.85 Q69.45 -403.0 68.8 -401.75 68.2 -400.65 67.25 -399.85 L66.75 -399.05 66.65 -399.0 65.5 -397.9 62.5 -397.9 Q62.15 -398.0 61.9 -398.25 L61.05 -398.4 60.95 -398.25 Q60.85 -398.2 60.8 -398.7 L60.5 -398.9 Q60.55 -400.65 62.0 -402.75 62.35 -403.6 63.05 -404.35 L63.45 -404.7 64.1 -405.95 64.15 -406.0 67.55 -408.35 69.5 -409.55 69.85 -409.5 M89.85 -309.1 L90.15 -309.1 Q89.9 -307.55 89.7 -301.95 L90.6 -301.95 Q93.8 -298.6 96.15 -293.45 98.5 -288.35 98.5 -284.85 L97.45 -281.4 Q96.55 -279.05 97.2 -276.6 97.0 -276.05 96.45 -275.85 L97.4 -274.05 Q97.4 -273.45 97.8 -273.2 L98.15 -272.9 97.95 -272.75 Q96.5 -274.45 94.4 -277.7 92.2 -281.05 91.25 -283.1 L89.55 -287.55 Q87.8 -292.2 87.8 -293.3 L87.95 -296.85 88.05 -301.75 87.7 -306.2 Q87.8 -309.2 89.85 -309.1 M17.85 -292.0 L17.9 -291.95 17.8 -291.8 16.7 -288.95 Q16.55 -288.45 16.55 -285.65 16.55 -283.0 16.95 -281.4 L17.1 -279.2 16.95 -277.3 Q16.95 -275.6 17.7 -273.9 L18.45 -272.1 18.1 -273.2 17.7 -274.55 17.9 -277.05 18.15 -277.05 Q18.4 -273.15 21.55 -267.75 24.65 -262.5 24.65 -260.7 L24.55 -259.85 24.3 -259.55 23.05 -261.65 21.85 -260.3 Q21.05 -260.75 21.0 -262.0 L20.9 -264.15 19.1 -268.1 18.15 -269.85 17.9 -269.9 Q17.15 -270.65 15.9 -272.65 L15.4 -273.45 14.05 -274.8 13.6 -274.1 Q13.1 -273.3 13.1 -272.9 L13.2 -272.4 13.15 -271.6 Q13.55 -269.7 14.3 -267.65 L15.45 -265.2 Q12.4 -267.85 10.9 -271.45 10.45 -272.55 8.95 -278.3 L8.95 -280.0 9.3 -280.1 9.65 -280.3 9.9 -280.45 9.9 -280.35 10.05 -280.35 Q10.85 -280.35 11.2 -281.65 11.65 -283.1 12.05 -283.3 L12.35 -282.45 12.4 -282.35 14.0 -287.5 Q15.1 -290.85 16.55 -292.3 L16.75 -292.3 16.85 -292.95 Q17.25 -294.5 18.45 -293.55 L17.85 -292.0 M31.75 -250.05 Q32.6 -248.55 32.8 -245.3 33.0 -241.7 33.65 -240.15 L35.05 -236.9 40.8 -228.65 Q45.95 -221.3 46.9 -217.05 L46.85 -217.1 Q48.75 -213.85 49.25 -211.9 50.4 -207.05 50.4 -203.15 L50.35 -198.05 49.9 -194.85 48.9 -197.85 48.5 -200.3 Q48.1 -202.75 47.3 -204.15 L46.5 -205.7 46.15 -206.2 44.65 -208.6 44.65 -208.85 43.45 -210.05 43.45 -209.8 Q42.95 -210.15 42.55 -210.65 41.3 -211.3 39.95 -211.3 L35.25 -210.75 Q32.9 -209.75 31.75 -207.05 31.2 -205.8 30.05 -199.65 L29.4 -199.35 Q28.65 -200.3 28.65 -201.4 28.65 -202.35 28.8 -203.2 L27.9 -202.95 Q24.8 -203.95 23.4 -210.2 22.45 -214.25 22.45 -218.6 22.45 -221.2 23.1 -224.1 L24.8 -230.15 Q25.1 -231.25 26.1 -233.05 L27.6 -236.1 28.7 -239.0 Q29.65 -240.85 31.3 -241.45 L31.5 -241.45 31.3 -245.65 31.4 -247.7 31.4 -250.05 31.75 -250.05 M91.7 -200.0 Q93.4 -200.55 94.15 -198.75 94.95 -196.25 94.95 -194.25 L95.0 -189.7 94.5 -188.05 94.8 -188.05 95.05 -187.75 95.15 -186.9 Q95.15 -183.9 89.8 -179.25 87.4 -177.15 84.65 -175.75 L83.05 -175.05 Q78.6 -173.25 73.3 -173.25 L69.1 -173.45 64.65 -173.8 64.4 -174.0 63.3 -173.8 61.05 -173.8 60.5 -174.2 48.35 -174.4 48.3 -174.45 40.9 -173.65 Q35.75 -173.65 34.4 -176.0 L34.15 -176.45 31.85 -176.85 31.4 -177.1 30.9 -177.5 Q30.9 -178.05 31.65 -178.55 L32.15 -178.05 32.4 -177.6 33.95 -177.2 Q33.75 -178.0 33.85 -178.9 L33.1 -181.95 32.6 -184.6 32.7 -188.7 33.35 -188.7 32.6 -191.15 31.1 -197.1 31.4 -197.2 33.5 -191.2 Q34.85 -187.45 36.1 -185.05 37.3 -182.7 37.85 -182.0 39.15 -180.4 41.85 -179.1 L44.65 -177.65 Q46.85 -176.55 47.7 -176.35 L49.55 -176.45 51.65 -176.85 51.95 -176.65 52.2 -176.65 53.35 -176.45 54.3 -176.0 54.9 -176.85 55.4 -178.25 57.55 -176.55 59.5 -175.5 61.05 -175.5 65.0 -175.9 68.35 -176.4 Q75.9 -179.2 80.95 -184.05 86.7 -189.5 86.7 -194.55 86.7 -195.1 88.65 -197.15 L90.1 -198.55 Q90.3 -199.6 91.7 -200.0 M49.8 -191.4 Q50.15 -192.45 50.6 -192.75 50.8 -191.15 51.8 -188.45 L53.45 -184.0 53.25 -183.7 Q52.65 -184.0 51.05 -186.5 49.45 -189.0 49.45 -189.8 49.45 -190.45 49.8 -191.4 M41.55 -175.35 L39.4 -175.65 41.45 -175.35 41.55 -175.35" fill="#ffffff" fill-rule="evenodd" stroke="none"/>
  </g>
</svg>
