<?xml version="1.0" encoding="UTF-8" standalone="no"?>
<svg xmlns:ffdec="https://www.free-decompiler.com/flash" xmlns:xlink="http://www.w3.org/1999/xlink" ffdec:objectType="shape" height="267.8px" width="274.55px" xmlns="http://www.w3.org/2000/svg">
  <g transform="matrix(1.0, 0.0, 0.0, 1.0, 251.45, 494.5)">
    <path d="M21.65 -340.35 L21.95 -339.75 22.6 -336.55 23.1 -333.5 Q23.1 -327.3 21.75 -324.55 19.55 -319.95 13.9 -321.95 13.65 -321.8 13.65 -321.3 13.65 -320.8 14.05 -320.25 L14.5 -319.6 16.25 -319.45 16.7 -319.3 17.0 -318.95 17.4 -317.65 17.65 -316.75 17.7 -316.1 17.35 -315.55 16.8 -315.35 Q16.45 -315.3 16.15 -315.5 L14.7 -316.7 13.45 -316.9 Q13.2 -316.95 13.0 -317.1 L12.7 -317.5 11.7 -319.1 Q10.8 -320.55 10.85 -321.25 10.85 -323.05 12.3 -324.85 12.4 -325.05 12.65 -325.15 L13.05 -325.25 Q13.75 -325.3 14.75 -324.6 L15.5 -324.4 Q19.05 -324.4 20.15 -327.9 20.65 -329.55 20.65 -333.5 L20.15 -335.8 19.65 -337.9 17.25 -337.55 17.0 -337.55 15.05 -337.8 14.65 -337.95 14.35 -338.2 Q14.0 -338.6 13.45 -340.4 L13.45 -340.35 12.85 -342.0 12.65 -342.1 12.7 -342.1 Q12.35 -342.25 12.15 -342.4 5.85 -342.2 2.55 -340.65 L2.0 -340.55 1.55 -340.7 1.2 -340.95 0.8 -341.5 0.85 -342.15 1.3 -342.65 Q3.5 -343.9 5.25 -344.35 L13.0 -344.95 13.45 -344.8 Q14.7 -344.15 15.25 -342.7 L15.3 -342.55 15.75 -340.95 15.75 -340.9 19.0 -340.75 19.35 -340.8 21.05 -340.65 21.65 -340.35 M9.1 -272.85 Q9.25 -271.95 10.3 -269.7 11.5 -267.25 11.45 -265.9 11.65 -265.25 10.0 -263.85 L10.0 -263.8 9.55 -263.45 9.6 -263.4 9.8 -261.85 9.5 -261.15 9.0 -260.85 8.95 -260.85 8.8 -260.85 8.95 -260.85 Q8.2 -260.3 8.0 -260.45 L7.85 -260.45 Q6.7 -260.65 6.55 -260.95 6.1 -261.2 6.05 -262.45 L5.45 -261.75 Q4.95 -261.3 4.95 -260.75 5.0 -259.25 6.5 -257.55 8.2 -255.7 10.25 -255.65 L10.65 -255.55 11.0 -255.25 Q12.05 -253.95 12.05 -253.1 L12.05 -252.9 Q12.0 -251.9 10.75 -251.5 L10.3 -251.5 9.9 -251.65 Q9.2 -252.15 8.85 -252.6 8.85 -252.45 8.5 -252.45 6.0 -252.45 4.95 -254.75 4.5 -255.65 4.3 -256.7 L3.65 -257.2 Q2.55 -258.0 2.45 -258.95 L2.4 -259.15 2.4 -260.8 2.4 -262.4 2.45 -262.65 Q2.7 -263.9 4.15 -263.95 3.55 -264.0 3.6 -265.7 L3.65 -265.85 Q4.25 -269.7 7.35 -273.35 L8.0 -273.7 8.7 -273.5 9.1 -272.85 M7.4 -267.65 Q6.6 -266.35 6.6 -265.0 L6.55 -264.2 7.5 -265.2 7.55 -265.25 Q8.3 -266.0 8.35 -266.75 L8.0 -268.5 8.0 -268.65 7.35 -267.6 7.4 -267.65 M-162.25 -492.2 L-161.4 -493.2 -159.7 -494.45 -159.0 -494.4 -158.5 -493.95 -158.4 -493.25 Q-159.15 -490.6 -159.3 -489.05 -158.9 -488.1 -160.25 -487.75 L-161.15 -487.7 Q-163.0 -487.7 -163.4 -489.0 L-164.05 -489.0 -165.1 -487.4 Q-165.3 -485.85 -165.8 -484.35 L-166.1 -483.9 Q-166.3 -483.7 -166.55 -483.65 L-166.9 -483.6 -166.85 -483.6 -166.5 -483.1 -165.95 -482.3 -165.65 -481.85 -165.65 -481.35 Q-165.85 -480.7 -166.35 -480.2 L-166.8 -479.9 -167.3 -479.9 -168.6 -480.25 -169.05 -480.55 -169.3 -481.0 -169.45 -481.65 -169.45 -482.1 -169.3 -482.5 -168.65 -483.2 -167.9 -483.75 -168.25 -484.35 -168.4 -485.2 -168.45 -485.4 Q-168.45 -487.15 -167.9 -488.85 -167.35 -490.5 -166.65 -491.2 L-166.2 -491.5 -164.6 -491.9 -164.55 -491.9 -162.25 -492.2 M-171.4 -483.75 L-171.2 -483.8 -171.35 -483.75 -171.8 -483.05 -171.65 -483.55 -171.5 -483.7 -171.4 -483.75 M-143.75 -467.15 L-143.05 -466.55 -142.7 -466.05 -142.7 -465.45 Q-143.15 -463.55 -147.15 -462.1 -149.5 -461.3 -149.6 -459.65 L-148.6 -457.15 -146.5 -452.85 -146.4 -452.35 -146.4 -452.1 -146.6 -451.5 Q-146.8 -451.25 -147.1 -451.15 L-147.95 -450.9 -148.65 -450.9 Q-150.7 -451.8 -150.95 -453.65 L-150.9 -455.65 -150.9 -455.7 Q-151.0 -456.75 -151.55 -457.55 -152.45 -459.0 -152.35 -459.45 -152.4 -460.7 -151.1 -462.75 L-149.1 -465.35 Q-149.8 -466.1 -149.7 -466.7 L-149.6 -467.6 Q-149.2 -468.85 -148.25 -468.45 L-147.8 -468.25 -147.75 -468.2 -147.0 -467.55 -146.75 -467.6 -145.25 -468.2 -144.55 -468.15 -144.05 -467.7 -143.75 -467.15 M-146.25 -465.55 L-146.2 -465.4 -146.15 -465.4 -145.9 -465.85 -146.25 -465.55 -146.4 -465.45 -146.25 -465.4 -146.25 -465.5 -146.25 -465.55 M-66.05 -276.8 L-64.95 -276.95 -64.05 -276.9 -63.9 -276.85 -62.25 -276.35 -61.65 -276.0 Q-61.4 -275.65 -61.45 -275.25 -61.5 -274.85 -61.85 -274.6 -62.65 -273.95 -64.4 -273.7 L-66.55 -273.25 -66.55 -271.7 -65.9 -271.25 -65.95 -271.3 Q-65.05 -270.85 -64.6 -269.3 L-64.6 -268.65 -64.75 -268.3 -65.2 -267.8 -65.9 -267.7 Q-68.55 -268.25 -69.05 -269.8 L-69.3 -272.25 -69.1 -274.25 -69.1 -274.2 Q-68.9 -275.3 -68.05 -276.0 -67.5 -276.55 -66.6 -276.35 L-66.55 -276.45 -66.05 -276.85 -66.05 -276.8 M-66.1 -276.15 L-66.0 -276.05 -65.7 -276.55 -66.4 -276.25 -66.1 -276.15 M-64.95 -276.95 L-65.7 -276.55 -65.25 -276.65 Q-64.85 -276.7 -64.55 -276.4 L-64.25 -276.05 Q-64.4 -276.6 -64.75 -276.75 L-64.95 -276.95 M-197.25 -389.85 Q-199.7 -387.2 -200.25 -387.4 -201.5 -387.4 -202.1 -387.95 L-202.05 -387.65 -202.15 -387.1 Q-202.25 -386.8 -202.5 -386.65 L-203.05 -386.5 Q-203.05 -386.45 -203.45 -386.35 L-203.6 -386.3 Q-204.55 -386.15 -205.1 -386.3 L-205.7 -386.7 -205.9 -387.35 -205.6 -388.0 -204.85 -389.45 -203.6 -391.55 -202.9 -391.8 -200.0 -391.6 -199.7 -391.5 -198.0 -391.55 -197.3 -391.25 Q-197.0 -391.0 -197.0 -390.55 -197.0 -390.15 -197.25 -389.85 M-202.1 -388.9 L-202.1 -388.8 -202.1 -388.7 -201.7 -388.7 -202.1 -389.1 -202.1 -388.9 M-248.35 -235.4 L-247.85 -235.2 Q-246.55 -234.3 -246.0 -233.25 L-245.25 -232.2 -244.9 -231.55 -245.05 -230.85 -246.65 -229.2 -246.65 -229.15 -248.4 -227.15 -249.0 -226.7 -249.7 -226.8 Q-250.6 -227.3 -250.9 -227.7 L-250.95 -227.8 Q-251.45 -228.4 -251.45 -229.75 -251.5 -230.45 -250.4 -232.75 -249.35 -235.25 -248.9 -235.3 L-248.35 -235.4 M-189.75 -289.2 Q-189.6 -288.75 -190.95 -287.2 L-190.95 -287.15 -192.15 -285.95 -192.8 -285.75 -194.2 -285.85 -194.85 -286.15 -195.15 -286.85 -195.15 -287.25 -196.4 -287.5 Q-196.8 -287.6 -197.0 -287.85 L-197.25 -288.5 -196.9 -290.55 -197.2 -290.6 -198.6 -291.0 -198.7 -291.0 -198.75 -290.6 -198.95 -289.5 Q-198.95 -289.05 -198.6 -288.7 -197.75 -287.65 -197.85 -287.1 L-197.95 -286.65 -198.2 -286.3 -198.5 -285.95 -198.55 -285.85 Q-199.15 -285.1 -199.7 -285.25 L-199.75 -285.25 -200.55 -285.3 Q-200.9 -285.3 -201.15 -285.55 L-201.5 -286.15 -201.35 -286.8 -200.75 -287.65 -201.2 -288.45 -201.5 -290.45 Q-201.5 -292.85 -200.2 -293.5 L-199.65 -293.65 -197.6 -293.35 -195.2 -293.05 -194.6 -292.8 -194.3 -292.2 Q-194.15 -291.3 -194.4 -289.95 L-193.5 -289.75 -193.0 -289.5 -192.95 -289.5 -192.8 -289.65 -192.75 -289.65 -192.0 -290.45 -191.95 -290.5 Q-191.5 -291.2 -190.95 -291.1 L-190.7 -291.05 Q-189.75 -291.15 -189.75 -289.2" fill="#66ff66" fill-opacity="0.5294118" fill-rule="evenodd" stroke="none"/>
  </g>
</svg>
