<?xml version="1.0" encoding="UTF-8" standalone="no"?>
<svg xmlns:ffdec="https://www.free-decompiler.com/flash" xmlns:xlink="http://www.w3.org/1999/xlink" ffdec:objectType="shape" height="265.8px" width="272.55px" xmlns="http://www.w3.org/2000/svg">
  <g transform="matrix(1.0, 0.0, 0.0, 1.0, 250.45, 493.5)">
    <path d="M20.55 -339.1 L17.1 -338.55 15.15 -338.8 Q14.9 -339.15 14.4 -340.7 L13.6 -342.75 13.1 -343.0 12.55 -343.4 Q5.7 -343.25 2.1 -341.55 L1.75 -341.8 Q3.85 -342.95 5.5 -343.4 L12.95 -343.95 Q13.9 -343.45 14.3 -342.35 L14.8 -340.6 Q15.45 -338.7 19.25 -339.8 L20.95 -339.65 21.6 -336.35 22.1 -333.5 Q22.1 -327.6 20.85 -325.0 18.9 -321.1 13.85 -323.05 12.65 -322.85 12.65 -321.3 12.65 -320.5 13.2 -319.7 L13.85 -318.65 16.15 -318.45 16.4 -317.5 16.7 -316.35 15.55 -317.25 Q15.5 -317.4 15.6 -317.55 L13.6 -317.9 12.55 -319.65 Q11.85 -320.75 11.85 -321.25 11.85 -322.75 13.05 -324.25 L14.15 -323.8 Q14.8 -323.4 15.5 -323.4 19.8 -323.4 21.1 -327.6 21.65 -329.35 21.65 -333.5 L21.1 -336.1 Q20.55 -338.1 20.55 -339.1 M6.5 -268.15 Q5.6 -266.6 5.6 -265.0 5.6 -263.2 4.8 -262.5 3.95 -261.75 3.95 -260.75 3.95 -258.9 5.75 -256.9 7.75 -254.7 10.2 -254.65 11.0 -253.65 11.05 -253.05 L10.45 -252.5 9.55 -253.4 8.5 -253.45 Q6.65 -253.45 5.85 -255.2 5.4 -256.1 5.25 -257.15 L4.2 -258.05 Q3.5 -258.55 3.4 -259.15 L3.4 -260.8 3.4 -262.4 Q3.55 -262.95 4.25 -262.95 4.55 -262.95 4.6 -265.7 5.2 -269.3 8.1 -272.7 8.25 -271.7 9.4 -269.3 10.45 -267.1 10.45 -265.9 L9.35 -264.6 7.8 -263.35 7.8 -262.55 8.2 -262.75 8.65 -263.0 8.8 -261.85 8.4 -261.7 8.0 -261.45 7.25 -261.65 Q7.05 -261.85 7.05 -262.8 7.05 -263.45 8.2 -264.5 9.35 -265.6 9.35 -266.75 9.35 -267.55 8.95 -268.8 L8.25 -270.9 8.25 -271.15 6.5 -268.15 M-164.5 -490.0 Q-165.8 -488.6 -166.1 -487.55 -166.3 -486.05 -166.75 -484.65 L-167.3 -484.55 -167.45 -485.4 Q-167.45 -487.0 -166.95 -488.55 L-165.95 -490.55 -164.35 -490.95 -161.7 -491.25 -160.7 -492.5 Q-159.85 -493.35 -159.4 -493.5 L-160.35 -489.1 -160.35 -488.9 Q-160.3 -488.7 -161.15 -488.7 -162.55 -488.7 -162.55 -490.0 L-164.5 -490.0 M-170.8 -483.05 Q-169.6 -482.9 -169.45 -482.5 L-169.7 -482.25 -170.4 -482.35 Q-171.1 -482.5 -171.15 -482.8 L-170.95 -482.85 -170.8 -483.05 M-167.05 -480.9 L-168.35 -481.25 -168.5 -481.9 -167.45 -482.8 -166.65 -481.6 -167.05 -480.9 M-143.65 -465.75 Q-144.1 -464.25 -147.5 -463.05 -150.6 -461.95 -150.6 -459.65 L-149.55 -456.75 -147.4 -452.35 -147.4 -452.1 -148.25 -451.85 Q-149.75 -452.5 -149.95 -453.8 L-149.9 -455.6 Q-150.0 -457.0 -150.7 -458.1 L-151.35 -459.45 Q-151.35 -460.5 -150.25 -462.25 -149.25 -463.85 -148.25 -464.75 L-146.15 -464.4 -145.3 -465.05 -145.25 -465.5 Q-145.5 -465.75 -146.25 -465.5 L-147.25 -464.95 -148.05 -465.7 Q-148.7 -466.3 -148.7 -466.7 L-148.45 -467.5 -148.25 -467.35 -147.8 -466.9 -147.65 -466.45 -146.4 -466.7 -144.95 -467.25 -144.6 -466.6 -143.65 -465.75 M-66.0 -274.7 L-66.0 -275.15 Q-65.85 -275.6 -65.15 -275.65 -66.15 -275.65 -65.6 -275.95 -65.25 -276.15 -65.15 -275.65 L-65.15 -275.25 -65.05 -275.65 Q-64.9 -276.05 -64.25 -275.95 L-62.45 -275.4 Q-63.1 -274.9 -64.55 -274.7 L-67.55 -274.0 -67.55 -271.25 -66.45 -270.45 Q-65.85 -270.1 -65.55 -269.05 L-65.7 -268.7 Q-67.7 -269.1 -68.15 -270.2 L-68.3 -272.25 -68.15 -274.0 -67.4 -275.25 Q-67.1 -275.5 -66.55 -275.25 -66.0 -275.0 -66.0 -274.7 M-198.0 -390.55 Q-199.95 -388.4 -200.25 -388.4 -201.7 -388.4 -201.7 -389.7 L-203.05 -389.7 -203.1 -388.9 -203.05 -387.5 -203.75 -387.3 -204.9 -387.3 -203.95 -389.05 -202.95 -390.8 -200.15 -390.6 -198.0 -390.55 M-247.8 -233.5 L-248.45 -232.65 -249.15 -231.3 -249.15 -231.0 Q-248.15 -231.75 -247.4 -232.0 L-247.8 -233.5 M-245.9 -231.45 L-247.35 -229.9 -249.25 -227.7 Q-249.9 -228.05 -250.15 -228.35 -250.45 -228.8 -250.45 -229.75 -250.45 -230.35 -249.5 -232.35 L-248.45 -234.4 Q-247.35 -233.65 -246.9 -232.8 -246.4 -231.85 -245.9 -231.45 M-191.15 -289.95 L-190.95 -290.1 Q-190.75 -290.05 -190.75 -289.2 -190.75 -288.95 -191.7 -287.85 L-192.75 -286.75 -194.15 -286.85 -194.15 -288.1 -196.25 -288.5 -195.7 -291.35 -197.05 -291.6 Q-198.4 -291.85 -198.4 -292.05 L-199.85 -291.8 Q-199.6 -291.4 -199.75 -290.85 L-199.95 -289.5 Q-199.95 -288.7 -199.4 -288.05 -198.85 -287.4 -198.85 -287.1 L-199.35 -286.5 -199.7 -286.25 -200.5 -286.3 -199.4 -287.65 -200.25 -288.8 -200.5 -290.45 Q-200.5 -292.15 -199.7 -292.65 L-197.8 -292.4 -195.3 -292.05 Q-195.1 -290.95 -195.7 -289.2 L-193.7 -288.8 -193.6 -287.65 -192.1 -288.95 -191.15 -289.95" fill="#ffffff" fill-rule="evenodd" stroke="none"/>
  </g>
</svg>
