<?xml version="1.0" encoding="UTF-8" standalone="no"?>
<svg xmlns:ffdec="https://www.free-decompiler.com/flash" xmlns:xlink="http://www.w3.org/1999/xlink" ffdec:objectType="shape" height="77.7px" width="322.7px" xmlns="http://www.w3.org/2000/svg">
  <g transform="matrix(1.0, 0.0, 0.0, 1.0, 274.55, 449.5)">
    <path d="M20.6 -448.65 Q20.65 -447.5 19.4 -446.3 L16.8 -443.95 Q15.25 -442.95 14.7 -441.95 L13.3 -440.0 12.15 -440.05 11.0 -440.3 9.35 -440.25 Q8.05 -438.25 6.95 -435.65 L5.05 -431.8 Q5.05 -430.95 5.6 -430.65 L8.25 -429.5 Q10.4 -428.6 10.75 -428.55 L11.55 -424.6 11.55 -422.15 Q11.55 -421.45 11.85 -420.4 L12.15 -418.8 13.5 -418.55 14.05 -417.35 14.7 -416.1 14.3 -415.6 Q14.05 -415.3 13.6 -415.25 L13.1 -416.4 Q12.85 -417.1 12.95 -417.55 L11.55 -418.0 Q11.0 -420.0 11.0 -423.25 11.0 -425.2 10.45 -428.0 L7.6 -429.15 5.05 -429.95 4.7 -430.4 4.5 -431.6 Q4.5 -432.9 9.05 -441.1 L11.55 -440.65 13.1 -440.75 Q14.15 -443.25 14.15 -444.8 16.55 -444.05 18.45 -445.95 20.2 -447.8 19.5 -449.45 L19.75 -449.5 20.45 -449.45 20.6 -448.65 M39.4 -446.35 L39.6 -446.6 40.8 -446.35 Q42.1 -443.65 42.1 -441.3 L42.2 -441.5 43.35 -441.7 44.9 -441.45 46.75 -441.1 47.7 -439.0 48.15 -437.3 Q48.15 -436.9 47.45 -436.8 46.5 -436.65 45.65 -435.35 45.65 -434.85 46.2 -435.05 L46.3 -433.8 45.5 -433.15 Q44.3 -434.3 44.3 -434.75 L44.5 -436.3 Q45.05 -437.35 47.05 -437.85 46.2 -439.1 46.2 -440.25 43.35 -440.8 42.8 -440.3 L41.45 -440.55 41.15 -443.5 Q40.7 -445.25 39.15 -446.25 L39.4 -446.35 M4.4 -402.85 Q4.4 -404.3 0.0 -408.9 -4.45 -413.6 -6.1 -413.6 L-11.4 -413.35 -12.05 -412.95 -13.1 -412.25 -13.3 -412.05 -13.45 -412.05 Q-14.2 -411.65 -14.95 -411.4 L-15.45 -411.15 Q-15.9 -411.05 -15.95 -411.7 L-18.85 -414.55 -20.65 -415.85 -23.4 -418.05 -24.2 -418.65 -26.05 -419.95 -25.45 -423.2 -25.4 -423.4 Q-27.6 -421.0 -28.2 -416.7 L-28.25 -416.2 Q-28.95 -412.5 -31.05 -411.2 L-31.35 -411.05 Q-33.7 -409.85 -34.85 -408.1 L-36.3 -404.9 -36.35 -404.85 -37.25 -401.5 -37.6 -398.45 Q-37.6 -394.8 -33.95 -393.05 -30.35 -391.3 -30.35 -386.85 -30.35 -385.7 -30.9 -382.8 L-30.9 -382.3 -31.05 -381.95 -31.35 -380.7 -32.2 -380.7 -32.2 -380.9 -32.9 -380.35 -33.05 -383.0 Q-33.05 -383.95 -33.95 -385.65 -34.75 -387.25 -35.5 -388.0 -36.2 -388.7 -36.95 -390.4 -37.95 -391.8 -40.4 -392.25 L-40.4 -392.05 -40.45 -392.9 -39.6 -396.05 Q-38.8 -398.45 -38.8 -400.6 -39.0 -401.7 -37.1 -404.0 L-36.75 -405.8 Q-36.55 -408.65 -34.7 -409.95 L-30.9 -412.5 Q-29.8 -413.55 -29.35 -415.7 L-28.7 -419.4 -28.1 -421.1 -28.15 -421.85 -27.65 -423.6 Q-27.15 -424.65 -27.15 -425.35 -27.15 -427.35 -28.2 -429.95 L-29.0 -431.65 -36.75 -438.45 -40.95 -438.45 -46.8 -436.3 Q-49.4 -435.3 -50.05 -434.8 L-50.05 -434.75 -50.3 -434.6 -57.55 -435.9 -61.2 -436.7 -64.2 -436.75 Q-66.35 -436.75 -67.35 -437.85 L-68.65 -440.35 Q-70.55 -444.15 -77.3 -444.7 L-77.55 -445.35 -77.25 -445.75 -77.1 -446.05 Q-74.3 -445.65 -72.35 -444.45 -70.55 -443.4 -66.75 -443.05 L-65.3 -442.1 -65.15 -441.7 -66.55 -442.15 Q-64.75 -441.3 -62.75 -439.9 -60.35 -438.25 -51.45 -437.0 -49.2 -436.6 -45.85 -438.05 L-41.8 -439.55 -36.3 -439.45 -29.95 -433.85 Q-29.1 -433.7 -28.35 -432.5 L-28.1 -432.25 Q-24.05 -428.75 -23.3 -425.35 L-22.85 -425.35 -23.6 -423.3 Q-24.2 -421.9 -24.2 -421.15 -24.2 -420.1 -22.0 -418.4 L-20.9 -418.0 -20.65 -417.55 Q-18.8 -416.5 -16.95 -416.4 L-16.1 -414.8 Q-15.5 -413.9 -14.55 -413.9 L-13.5 -413.9 -13.25 -414.0 -12.15 -414.7 -12.05 -414.3 -10.65 -414.75 -10.1 -415.15 Q-8.65 -416.4 -8.0 -416.4 -3.0 -416.4 1.8 -409.75 5.8 -404.2 5.8 -401.7 5.8 -399.65 4.7 -395.6 L3.75 -391.7 3.85 -391.5 Q4.7 -389.6 5.15 -389.4 7.75 -388.85 8.4 -387.4 L11.85 -387.3 12.0 -384.5 11.9 -380.65 Q11.4 -378.05 9.35 -376.85 L9.05 -378.7 6.5 -376.8 Q5.15 -375.8 3.4 -375.2 4.15 -376.15 6.0 -377.5 L9.05 -379.4 Q9.75 -379.2 10.0 -377.95 L10.75 -379.85 11.45 -382.25 11.45 -386.65 9.6 -386.4 8.25 -386.5 Q7.5 -387.6 5.55 -388.7 4.05 -389.55 3.55 -390.05 L3.55 -389.8 Q3.55 -389.1 4.1 -387.7 L4.65 -385.6 Q2.1 -377.5 0.55 -375.7 L0.15 -375.7 0.1 -376.6 0.9 -380.45 Q1.7 -384.2 1.7 -385.4 1.7 -387.35 0.7 -390.5 -0.3 -393.65 -0.3 -394.6 -0.3 -396.25 2.05 -399.1 4.4 -401.9 4.4 -402.85 M-256.6 -399.95 L-256.5 -399.4 Q-254.1 -399.75 -252.95 -400.25 -252.15 -400.6 -251.55 -401.25 L-250.75 -401.3 Q-250.45 -401.25 -250.45 -400.4 -250.45 -399.4 -250.7 -399.15 L-252.0 -399.0 -253.75 -398.75 -256.6 -398.3 -256.5 -397.7 -256.2 -397.2 Q-259.7 -396.5 -262.95 -393.2 -266.25 -389.8 -266.25 -386.7 -266.25 -386.0 -265.7 -384.45 -265.2 -382.9 -265.2 -382.25 -265.2 -380.35 -266.4 -378.1 -266.9 -377.1 -269.35 -373.45 L-271.2 -373.55 Q-271.5 -374.05 -271.6 -375.6 -271.75 -377.1 -272.35 -377.95 L-273.65 -380.1 -274.55 -382.0 Q-274.55 -383.15 -273.5 -385.85 -272.4 -388.7 -272.3 -389.6 -271.2 -389.6 -270.95 -389.25 -270.65 -388.95 -270.05 -388.95 -268.0 -388.95 -265.8 -392.05 L-263.7 -395.5 -261.7 -397.0 Q-259.75 -398.4 -259.15 -399.0 L-258.15 -400.4 Q-257.25 -401.6 -256.35 -401.95 -256.05 -401.55 -256.6 -399.95 M-97.65 -434.6 L-99.45 -430.45 Q-100.8 -427.35 -102.3 -427.35 -103.65 -427.35 -104.75 -426.5 -102.9 -428.2 -101.55 -429.95 L-103.15 -429.2 Q-104.8 -428.4 -105.6 -428.3 L-106.65 -424.7 -105.4 -425.95 Q-106.2 -425.15 -106.8 -423.85 L-107.0 -423.0 Q-107.8 -418.95 -107.8 -416.65 -107.8 -414.15 -107.5 -413.7 L-104.8 -410.6 -102.2 -407.35 Q-100.4 -405.4 -99.2 -405.4 L-96.75 -406.95 -94.15 -408.5 -83.95 -408.45 -83.8 -407.95 Q-83.75 -407.45 -82.8 -406.85 L-80.3 -405.25 -77.6 -403.45 -76.75 -403.1 -75.3 -402.55 -73.2 -401.9 -73.0 -401.65 -72.8 -401.6 Q-71.4 -400.95 -70.4 -400.05 -69.0 -400.15 -67.3 -398.65 -64.35 -395.4 -63.0 -394.4 -62.4 -393.15 -59.0 -389.4 L-55.8 -385.8 Q-55.8 -385.1 -56.3 -384.85 -56.85 -384.6 -56.85 -383.95 -56.85 -383.35 -51.65 -378.2 L-45.75 -372.6 -45.95 -372.4 -47.0 -372.35 -48.05 -372.6 -47.75 -372.2 -48.15 -371.8 -54.15 -377.1 -59.5 -381.7 Q-60.3 -382.4 -60.45 -384.2 -60.6 -386.35 -60.9 -386.9 -62.2 -389.55 -64.45 -391.7 L-68.65 -396.15 -71.85 -399.35 -72.05 -399.35 -71.9 -399.45 -72.9 -400.3 -76.75 -401.75 Q-82.8 -404.15 -84.6 -405.4 -91.4 -405.2 -93.1 -404.25 L-95.15 -402.45 -97.3 -402.6 -99.85 -403.0 Q-107.4 -408.75 -108.15 -409.7 -109.55 -411.45 -109.55 -416.25 -109.55 -420.7 -107.35 -423.75 L-106.25 -429.25 Q-101.8 -430.45 -100.0 -432.2 L-98.9 -434.6 -98.9 -434.7 Q-98.9 -435.3 -99.65 -436.9 L-100.4 -438.6 Q-100.4 -440.0 -100.1 -438.75 L-100.1 -438.9 Q-98.1 -437.0 -98.1 -434.95 L-97.65 -434.6 M-21.2 -416.45 L-19.95 -415.5 -21.0 -416.45 -21.45 -416.65 -21.2 -416.45 M-25.15 -420.5 Q-25.15 -422.8 -25.4 -423.2 L-25.4 -420.65 -25.15 -420.5 M-17.9 -415.6 L-18.3 -415.7 -18.2 -415.6 -18.0 -415.45 -17.9 -415.6 M-262.0 -395.65 L-263.55 -394.05 -263.55 -393.8 -262.55 -394.65 Q-261.75 -395.2 -261.45 -395.65 L-262.0 -395.65 M-271.45 -388.85 Q-273.75 -383.75 -273.75 -382.35 -273.75 -380.85 -271.85 -378.7 -270.3 -376.9 -271.15 -374.85 L-271.15 -374.55 Q-269.4 -375.4 -267.7 -378.05 -265.95 -380.7 -265.95 -382.65 -265.95 -383.3 -266.5 -384.65 L-267.05 -386.65 -266.75 -388.4 -266.5 -389.95 -268.5 -388.6 Q-270.5 -387.5 -271.45 -388.85" fill="#ffffff" fill-rule="evenodd" stroke="none"/>
  </g>
</svg>
