<?xml version="1.0" encoding="UTF-8" standalone="no"?>
<svg xmlns:ffdec="https://www.free-decompiler.com/flash" xmlns:xlink="http://www.w3.org/1999/xlink" ffdec:objectType="shape" height="236.45px" width="436.8px" xmlns="http://www.w3.org/2000/svg">
  <g transform="matrix(1.0, 0.0, 0.0, 1.0, 382.05, 469.3)">
    <path d="M49.2 -349.75 L48.55 -349.3 48.6 -349.25 49.5 -346.8 49.5 -345.95 49.35 -345.4 49.1 -345.05 48.6 -344.8 48.1 -344.7 47.55 -344.75 Q47.3 -344.85 47.1 -345.1 L46.9 -345.6 46.35 -346.8 Q45.65 -348.15 45.65 -349.1 45.65 -351.55 47.6 -352.2 L51.15 -353.5 51.85 -353.45 52.35 -353.0 52.45 -352.3 Q52.0 -350.75 51.9 -349.8 51.95 -348.95 53.35 -348.75 L53.6 -348.7 Q54.25 -349.0 54.65 -348.05 L54.75 -347.6 54.75 -346.55 54.75 -346.45 54.65 -345.2 54.35 -344.55 53.6 -343.85 52.9 -343.4 52.7 -343.35 Q51.8 -343.2 51.35 -344.05 L51.15 -345.15 51.25 -346.05 51.4 -346.4 Q50.1 -346.95 49.75 -348.4 L49.55 -349.8 49.2 -349.75 M52.55 -346.95 L52.6 -346.9 52.4 -346.95 52.55 -346.95 52.3 -347.0 52.8 -346.45 53.4 -346.75 53.25 -346.8 52.55 -346.95 M9.35 -353.6 L10.15 -355.2 10.25 -355.35 Q11.2 -356.75 12.65 -357.2 L12.7 -357.2 Q14.7 -357.9 17.0 -355.75 L17.0 -355.8 Q19.05 -353.9 19.0 -351.9 19.0 -350.55 18.4 -348.3 L18.9 -348.05 19.25 -347.45 Q19.6 -345.45 21.6 -337.55 22.75 -332.95 22.75 -327.8 22.85 -327.0 21.4 -324.65 L19.9 -322.3 19.95 -322.4 18.65 -320.0 Q19.0 -319.25 19.0 -318.3 L18.9 -316.9 18.65 -316.55 18.6 -316.45 18.25 -316.05 17.7 -315.9 Q17.05 -315.75 16.65 -316.4 L16.45 -316.1 Q15.45 -314.45 13.55 -314.25 L13.15 -314.3 12.75 -314.55 12.6 -314.65 12.35 -314.85 Q11.95 -315.0 11.95 -316.5 L12.05 -317.3 12.45 -323.8 12.45 -323.85 Q12.4 -326.3 10.8 -332.3 9.5 -337.1 8.1 -338.85 L7.4 -339.45 7.35 -339.45 7.05 -339.55 6.7 -339.45 6.4 -338.8 5.95 -338.35 5.35 -338.25 Q3.45 -338.55 3.0 -340.35 L3.0 -340.3 Q2.85 -340.7 2.85 -342.5 2.8 -343.65 3.8 -345.85 L3.65 -346.35 3.65 -347.05 3.9 -347.7 Q4.1 -347.95 4.5 -348.0 L4.9 -348.1 6.3 -349.75 6.6 -349.95 6.65 -350.15 6.95 -350.55 Q8.5 -352.05 9.35 -353.55 L9.35 -353.6 M7.2 -347.25 L7.15 -347.2 7.2 -347.2 7.2 -347.25 M10.05 -348.7 L10.15 -348.7 Q14.1 -348.65 14.2 -347.2 L14.85 -347.25 15.15 -347.15 15.3 -347.6 15.7 -348.1 15.9 -348.6 16.35 -350.2 Q16.25 -350.8 15.4 -351.6 14.15 -352.7 13.45 -354.05 12.55 -353.2 11.95 -351.65 L11.95 -351.7 Q11.1 -349.55 9.85 -348.65 L10.05 -348.7 M15.65 -342.05 Q14.5 -343.35 13.0 -343.5 L12.6 -343.6 12.25 -343.9 11.5 -344.85 8.25 -344.95 7.15 -345.0 Q8.05 -344.3 8.9 -342.6 L8.95 -342.5 9.35 -341.55 Q12.1 -339.4 14.0 -331.45 15.0 -327.3 15.4 -323.65 L15.8 -325.75 15.4 -334.3 15.4 -334.4 16.05 -337.75 16.6 -340.65 15.7 -342.05 15.65 -342.05 M5.65 -342.6 L5.65 -342.55 5.7 -342.55 5.65 -342.6 M4.15 -289.75 L4.5 -290.2 5.0 -290.4 5.55 -290.25 Q6.55 -289.95 7.8 -283.85 L7.8 -283.65 Q7.85 -282.2 5.95 -279.65 5.15 -278.6 5.45 -278.0 L5.65 -277.35 5.4 -276.7 5.0 -276.25 4.4 -275.95 3.7 -276.1 Q2.75 -276.75 1.95 -277.75 L1.95 -277.8 1.2 -279.0 1.15 -279.1 1.1 -279.2 0.55 -279.2 -1.3 -279.45 -3.5 -279.9 Q-3.85 -279.95 -4.05 -280.15 L-5.2 -281.35 -5.15 -281.3 -6.05 -282.85 -6.1 -283.5 -5.8 -284.05 -3.85 -286.2 -1.65 -288.8 Q-0.85 -290.05 -0.1 -290.35 1.1 -290.95 2.0 -289.9 L2.1 -289.65 Q2.4 -289.1 2.1 -288.95 L3.1 -289.1 Q3.85 -289.35 4.15 -289.75 M0.35 -286.4 L-0.9 -284.9 -2.4 -283.1 -2.25 -282.85 -2.25 -282.8 -2.15 -282.6 Q0.1 -282.3 1.25 -281.8 L1.25 -281.85 2.05 -281.5 Q2.05 -281.5 2.15 -281.45 L2.2 -281.45 3.3 -280.75 4.05 -281.55 Q4.65 -282.5 4.7 -283.3 L4.6 -286.1 3.1 -285.9 3.2 -285.95 2.1 -285.65 Q1.0 -285.65 0.35 -286.4 M-183.95 -402.5 L-181.95 -401.65 -180.85 -401.4 -180.15 -401.1 -179.85 -400.4 -179.85 -400.35 -178.2 -400.6 -177.5 -400.3 -177.2 -399.65 Q-177.15 -399.25 -177.4 -398.95 -179.2 -396.85 -179.7 -396.9 L-179.95 -396.9 -181.8 -397.05 Q-182.15 -397.1 -182.35 -397.25 L-182.45 -397.35 -182.5 -397.25 -182.95 -396.85 -185.55 -394.8 Q-187.2 -393.5 -189.6 -393.05 L-190.35 -393.2 Q-190.7 -393.4 -190.75 -393.8 L-190.9 -394.4 Q-191.05 -394.8 -190.8 -395.15 L-190.2 -395.6 Q-187.3 -396.4 -186.45 -398.7 L-186.45 -398.75 Q-185.15 -402.35 -184.8 -402.35 L-184.4 -402.55 -183.95 -402.5 M-180.4 -400.25 L-180.15 -399.8 -180.1 -399.75 Q-179.9 -400.0 -179.85 -400.35 L-180.4 -400.25 M-145.85 -464.3 Q-145.8 -463.9 -146.15 -463.5 L-147.0 -462.9 -147.6 -462.95 Q-149.8 -463.9 -150.5 -463.3 -150.95 -461.35 -151.25 -460.7 L-151.3 -460.65 Q-152.7 -457.5 -152.75 -456.7 L-152.75 -456.1 -149.7 -455.9 -149.2 -455.7 -148.85 -455.2 -148.2 -453.1 -147.4 -453.6 -146.65 -453.55 -146.15 -453.0 -146.15 -452.3 Q-146.9 -450.4 -147.45 -449.7 L-147.85 -449.4 -148.35 -449.35 -149.75 -449.5 Q-150.1 -449.55 -150.35 -449.75 L-150.65 -450.35 -151.1 -453.1 -154.1 -453.4 -154.75 -453.75 Q-155.45 -454.6 -155.5 -455.2 L-155.45 -455.1 -155.6 -456.8 -155.35 -459.4 Q-155.05 -460.55 -153.75 -462.85 L-153.75 -462.9 Q-152.1 -465.8 -149.9 -466.2 L-150.15 -466.6 -150.25 -467.15 -150.0 -467.7 Q-148.45 -469.45 -147.65 -469.3 -147.25 -469.3 -146.95 -469.0 L-146.15 -468.2 Q-145.85 -467.9 -145.85 -467.5 L-145.85 -464.3 M-147.3 -465.9 L-147.65 -466.0 -147.75 -466.05 -147.65 -465.95 -147.55 -465.8 -147.65 -465.7 -148.0 -465.5 -148.55 -465.55 -148.65 -465.55 -148.65 -464.95 -147.3 -465.9 M-375.65 -260.5 Q-375.0 -259.45 -374.8 -258.5 L-372.8 -258.7 -371.2 -258.65 -370.65 -258.25 -370.65 -258.2 Q-370.35 -257.9 -370.35 -257.5 L-370.35 -256.55 -370.35 -255.6 -370.45 -255.15 -370.6 -254.85 -370.95 -254.45 -371.5 -254.3 -371.9 -254.3 -372.6 -254.6 -372.9 -255.3 -372.9 -256.1 -376.15 -255.9 -376.8 -256.1 -377.15 -256.65 -377.1 -257.35 -377.5 -258.35 -378.05 -259.45 -378.4 -258.9 -378.4 -258.85 -378.9 -257.6 -379.1 -256.6 -379.05 -256.55 Q-377.1 -256.15 -377.4 -255.3 -377.35 -254.95 -377.8 -254.05 L-377.75 -254.15 -378.0 -253.4 Q-378.1 -253.05 -378.35 -252.85 L-379.0 -252.65 -379.95 -252.65 -380.6 -252.85 -380.9 -253.45 -380.8 -254.15 -380.4 -254.8 -380.65 -254.85 -381.05 -255.0 -381.1 -255.0 Q-382.05 -254.95 -382.05 -256.85 -382.05 -257.9 -381.35 -258.9 L-380.9 -259.6 -380.9 -259.65 -381.05 -260.3 -381.1 -260.65 Q-381.35 -262.05 -379.05 -262.35 L-379.1 -262.3 Q-377.05 -262.75 -375.65 -260.45 L-375.65 -260.5 M-58.1 -290.85 Q-57.85 -290.55 -57.85 -289.3 -57.8 -288.8 -58.4 -287.65 -59.3 -285.95 -60.5 -286.1 L-60.65 -286.1 -60.6 -285.45 -60.6 -285.25 -60.35 -285.05 -59.55 -283.8 -59.5 -283.4 -59.6 -282.75 -59.8 -282.25 -60.25 -281.95 -61.55 -281.3 -62.15 -281.2 -63.45 -281.35 -63.95 -281.55 -64.25 -281.95 Q-64.7 -282.85 -64.7 -285.55 L-64.7 -285.65 -64.5 -287.25 -64.45 -287.3 Q-64.1 -289.5 -63.1 -290.3 -62.85 -290.6 -62.45 -290.6 L-60.7 -290.4 -60.6 -290.55 Q-59.95 -291.65 -59.25 -291.5 L-58.7 -291.35 -58.1 -290.85 M-183.4 -303.9 Q-181.35 -304.85 -179.2 -303.55 L-178.85 -303.2 -178.75 -302.7 Q-178.75 -302.15 -179.1 -301.4 L-179.05 -301.5 -179.8 -300.45 -180.2 -300.25 -180.6 -300.25 -180.6 -300.05 Q-180.4 -299.75 -181.65 -298.4 L-181.7 -298.35 -182.7 -297.45 Q-183.0 -297.15 -183.4 -297.15 -183.8 -297.15 -184.1 -297.45 L-184.4 -298.15 -184.35 -298.6 -184.55 -298.65 -185.1 -298.9 -185.4 -299.4 -185.55 -300.9 Q-185.6 -303.0 -183.35 -303.9 L-183.4 -303.9 M-182.6 -301.7 L-182.65 -301.7 -182.95 -301.6 -183.05 -301.6 -183.0 -301.6 -184.05 -301.35 -182.8 -300.4 -182.8 -300.55 Q-182.7 -300.45 -182.3 -300.7 L-182.0 -300.95 -182.15 -301.1 -182.1 -301.1 -182.3 -301.3 -182.8 -301.05 -182.5 -301.6 -182.6 -301.7 M-245.45 -241.6 L-244.75 -241.9 -243.9 -241.9 -243.45 -241.8 -243.1 -241.5 Q-242.45 -240.7 -242.3 -240.1 L-242.3 -240.05 -242.1 -238.25 Q-242.1 -235.85 -242.8 -235.35 L-242.75 -235.35 -245.7 -233.05 -246.35 -232.85 Q-246.75 -232.9 -247.0 -233.15 L-247.05 -233.15 -247.5 -233.5 Q-247.85 -233.8 -247.85 -235.15 -248.05 -235.55 -246.6 -236.9 -245.9 -237.6 -245.75 -238.3 L-245.75 -240.9 -245.45 -241.6" fill="#66ff66" fill-opacity="0.5294118" fill-rule="evenodd" stroke="none"/>
  </g>
</svg>
