<?xml version="1.0" encoding="UTF-8" standalone="no"?>
<svg xmlns:ffdec="https://www.free-decompiler.com/flash" xmlns:xlink="http://www.w3.org/1999/xlink" ffdec:objectType="shape" height="79.8px" width="293.35px" xmlns="http://www.w3.org/2000/svg">
  <g transform="matrix(1.0, 0.0, 0.0, 1.0, 274.0, 450.0)">
    <path d="M12.95 -446.25 Q12.95 -446.55 14.55 -447.65 L16.6 -448.7 16.55 -449.2 Q16.55 -450.0 16.85 -450.0 L17.1 -449.9 Q19.0 -449.55 19.35 -448.9 L19.1 -448.25 18.15 -448.15 17.9 -448.2 Q17.7 -447.6 16.4 -446.8 L15.25 -446.15 14.95 -445.75 12.15 -444.95 Q11.75 -444.1 9.6 -441.95 9.0 -442.4 7.6 -442.4 6.75 -442.4 4.8 -440.3 L4.8 -440.25 Q5.85 -439.95 6.2 -439.25 L6.35 -437.65 Q6.35 -436.95 5.8 -435.6 5.2 -434.25 5.2 -433.6 5.2 -432.85 6.7 -431.1 8.25 -429.25 8.35 -428.45 8.4 -427.7 8.95 -426.0 L9.45 -423.7 Q9.45 -423.05 8.45 -421.2 L7.45 -419.35 7.2 -418.05 Q6.95 -417.55 7.05 -416.95 L6.35 -416.55 5.45 -416.55 Q5.2 -416.6 5.2 -417.5 5.2 -419.2 6.95 -420.7 8.65 -422.25 8.65 -423.75 8.65 -425.25 6.55 -429.0 4.4 -432.8 4.4 -433.5 4.4 -434.2 4.95 -434.8 5.5 -435.45 5.5 -436.15 5.5 -437.15 4.7 -438.3 L3.2 -440.1 3.2 -440.55 4.1 -440.4 5.0 -441.7 Q6.0 -443.15 6.9 -443.3 L8.65 -443.3 10.2 -443.6 Q10.2 -444.8 10.65 -445.5 L12.1 -445.9 12.75 -446.1 13.0 -445.9 12.95 -446.25 M1.2 -407.8 Q-1.8 -412.8 -6.35 -415.15 -14.05 -414.95 -17.65 -413.15 L-19.5 -413.15 Q-22.1 -414.95 -24.15 -418.4 -25.5 -420.65 -25.85 -422.4 L-26.25 -419.7 Q-26.95 -416.65 -28.7 -418.4 L-29.85 -417.55 -30.8 -416.45 -31.05 -417.7 -31.35 -418.8 -31.35 -418.85 Q-40.4 -411.7 -40.4 -403.75 -40.4 -402.2 -36.7 -399.55 -33.0 -396.85 -32.9 -394.4 L-32.75 -389.6 -32.2 -387.2 Q-31.65 -385.65 -31.65 -385.0 -31.65 -384.1 -31.85 -384.2 L-32.1 -384.5 Q-33.9 -385.9 -33.65 -389.25 L-33.45 -394.35 Q-34.3 -398.3 -37.8 -400.15 -40.95 -401.85 -40.95 -403.55 -40.95 -407.6 -38.8 -411.0 L-32.65 -419.65 -30.9 -419.4 -30.25 -418.1 Q-29.1 -418.9 -27.15 -418.8 L-26.8 -421.3 -26.6 -423.6 Q-26.6 -424.6 -28.45 -427.8 -30.3 -431.05 -31.35 -431.85 -28.7 -431.2 -27.1 -428.35 -26.3 -426.85 -26.0 -425.3 L-25.95 -425.9 -25.55 -425.9 Q-25.25 -423.45 -23.75 -419.4 -23.1 -417.6 -20.75 -415.6 -18.8 -413.9 -18.4 -413.9 -17.7 -413.9 -16.7 -414.6 -15.8 -415.25 -15.4 -415.15 L-8.55 -415.85 Q-2.55 -415.85 1.4 -409.2 4.5 -404.0 4.5 -399.55 4.5 -397.85 3.15 -396.0 L2.3 -396.1 3.45 -398.1 3.95 -399.5 Q3.95 -403.3 1.2 -407.8 M2.35 -389.15 L2.85 -386.9 Q2.85 -385.95 1.65 -382.15 L0.0 -377.85 -0.15 -377.55 Q-0.3 -377.45 -0.3 -378.3 L1.0 -382.25 Q2.3 -385.9 2.3 -386.9 2.3 -387.75 1.7 -389.3 0.95 -391.05 0.75 -392.15 L1.15 -392.15 2.35 -389.15 M-261.3 -399.95 Q-261.2 -399.2 -260.4 -397.95 -259.7 -396.85 -259.7 -396.3 -259.15 -396.45 -256.5 -397.65 L-255.8 -397.5 Q-257.6 -396.0 -259.7 -394.65 L-261.2 -396.7 Q-262.3 -398.55 -262.45 -400.05 L-267.4 -389.7 Q-273.25 -380.85 -273.25 -379.5 -273.25 -377.85 -271.65 -376.9 -270.6 -376.25 -269.9 -376.25 L-267.6 -376.1 Q-267.9 -374.6 -269.0 -373.75 L-270.7 -372.6 Q-271.9 -373.1 -274.0 -379.7 -274.0 -381.75 -271.0 -386.55 -268.55 -390.55 -267.2 -391.9 -265.3 -393.8 -264.1 -397.85 L-262.25 -403.55 Q-261.45 -401.2 -261.3 -399.95 M-112.05 -424.7 Q-112.05 -421.95 -110.95 -421.15 L-106.55 -419.1 -105.4 -417.9 Q-104.55 -417.1 -100.65 -415.85 -96.1 -413.9 -95.6 -413.9 L-93.0 -416.0 Q-90.5 -418.1 -87.3 -418.1 -84.85 -418.1 -82.25 -417.15 L-87.2 -417.3 Q-90.8 -417.3 -92.65 -415.55 -94.05 -413.55 -94.7 -413.15 L-96.65 -413.3 -97.35 -414.45 Q-101.45 -415.05 -101.45 -415.7 L-104.15 -415.9 Q-104.45 -416.05 -106.4 -418.05 -107.85 -419.55 -111.1 -420.25 -112.25 -421.45 -112.2 -424.65 -112.1 -428.0 -112.85 -429.0 L-114.3 -429.25 -114.85 -430.1 -112.3 -429.75 -111.3 -428.95 Q-110.95 -428.55 -110.95 -427.65 -110.95 -427.0 -111.5 -426.2 -112.05 -425.4 -112.05 -424.7 M-43.75 -437.55 Q-41.75 -438.7 -38.0 -439.2 L-36.7 -437.8 Q-35.85 -436.9 -34.75 -435.25 -34.0 -434.2 -31.9 -433.05 -29.45 -431.75 -29.15 -431.5 L-29.4 -431.3 Q-35.3 -432.95 -38.5 -438.35 L-40.15 -437.25 -40.55 -437.45 -42.0 -437.65 -46.25 -435.65 Q-50.9 -433.6 -54.0 -433.5 L-58.6 -433.65 -60.6 -435.65 -60.75 -436.05 -58.35 -434.2 -56.3 -434.25 -54.0 -434.6 Q-49.75 -434.9 -46.75 -436.05 -45.95 -436.35 -43.75 -437.55 M-77.55 -413.85 Q-80.15 -415.4 -80.95 -416.6 -78.8 -415.6 -76.6 -413.95 -71.5 -410.15 -71.5 -407.85 -71.5 -407.2 -72.05 -405.65 -72.6 -404.1 -72.6 -403.25 -72.6 -402.65 -73.1 -401.45 L-73.6 -399.5 -73.3 -398.6 -74.15 -398.85 Q-74.15 -400.3 -73.1 -403.95 L-72.05 -407.85 Q-72.05 -408.3 -73.55 -410.25 -75.45 -412.65 -77.55 -413.85 M-72.9 -398.05 Q-72.25 -397.45 -72.35 -397.1 L-72.7 -396.1 -72.9 -394.75 Q-72.9 -390.4 -65.5 -380.8 -57.7 -370.7 -52.85 -370.7 L-52.7 -370.45 -53.45 -370.2 Q-61.6 -372.95 -68.6 -383.85 -75.15 -394.1 -73.15 -398.3 L-72.9 -398.05" fill="#ffffff" fill-rule="evenodd" stroke="none"/>
  </g>
</svg>
