<?xml version="1.0" encoding="UTF-8" standalone="no"?>
<svg xmlns:ffdec="https://www.free-decompiler.com/flash" xmlns:xlink="http://www.w3.org/1999/xlink" ffdec:objectType="shape" height="228.3px" width="425.1px" xmlns="http://www.w3.org/2000/svg">
  <g transform="matrix(1.0, 0.0, 0.0, 1.0, 383.1, 468.35)">
    <path d="M42.0 -347.9 L41.3 -347.45 Q40.9 -347.2 40.4 -347.05 L40.85 -346.35 41.45 -345.7 40.7 -344.6 Q36.9 -343.9 36.35 -343.5 L34.5 -343.8 33.4 -344.2 Q33.5 -344.7 34.25 -345.45 L35.4 -346.6 Q36.45 -347.9 36.1 -348.6 L35.5 -349.15 Q35.5 -350.55 35.8 -349.3 L35.8 -349.45 36.75 -349.25 Q37.15 -349.0 37.15 -348.15 37.15 -347.3 36.05 -346.3 35.1 -345.35 33.95 -344.9 L34.75 -344.2 38.75 -344.9 39.1 -345.05 40.8 -345.4 39.95 -345.7 39.85 -346.75 Q39.85 -347.65 40.4 -348.0 L41.25 -348.45 42.0 -347.9 M19.45 -354.85 Q19.25 -354.8 19.25 -355.6 19.25 -357.0 19.35 -356.25 L19.9 -356.4 20.95 -355.2 21.1 -354.95 19.65 -354.8 19.45 -354.85 M11.3 -351.45 Q11.3 -352.25 11.55 -352.3 L11.75 -352.25 13.85 -351.75 15.6 -351.0 Q17.1 -349.5 17.7 -347.45 L16.2 -348.55 Q15.1 -349.55 15.1 -350.25 L12.85 -350.75 11.45 -350.65 11.4 -350.5 11.3 -351.45 M22.45 -352.1 L22.45 -352.25 23.3 -351.6 23.4 -350.35 Q23.4 -348.4 22.35 -347.7 21.2 -346.95 21.1 -345.3 L20.55 -345.15 20.45 -346.55 Q20.45 -347.2 21.05 -347.55 21.9 -348.05 22.6 -349.45 22.8 -349.8 22.65 -350.5 L22.45 -352.1 M18.95 -340.75 L16.6 -338.5 Q15.65 -337.35 15.7 -335.25 L15.15 -335.05 Q14.5 -336.7 15.7 -338.65 16.85 -340.6 18.8 -341.4 L18.95 -340.75 M19.1 -343.2 Q18.55 -342.75 17.9 -342.65 18.25 -343.4 18.25 -345.15 L18.8 -345.15 Q19.1 -344.75 19.1 -343.2 M2.75 -341.2 Q2.75 -340.5 1.95 -337.95 L1.0 -335.05 0.7 -335.2 0.6 -336.15 0.5 -339.2 Q0.7 -342.1 2.3 -342.65 L2.65 -342.25 2.75 -341.2 M9.2 -337.15 L9.65 -337.15 10.3 -335.2 10.65 -333.15 10.6 -331.8 10.5 -331.5 Q10.45 -331.1 10.1 -330.85 9.05 -333.9 9.05 -335.35 9.05 -336.7 9.2 -337.15 M17.1 -331.9 Q18.3 -331.9 18.55 -330.95 L18.55 -329.75 18.4 -327.8 Q18.15 -327.35 17.6 -327.1 L17.7 -329.15 17.6 -330.4 15.7 -330.65 15.6 -331.75 16.0 -331.8 17.1 -331.9 M11.3 -329.75 L11.0 -329.75 10.9 -330.15 Q10.75 -330.55 10.75 -331.35 10.75 -331.95 11.7 -332.85 L12.95 -333.85 11.3 -329.75 M14.55 -325.45 L13.05 -325.85 Q11.7 -326.2 11.3 -326.7 L11.45 -327.35 12.35 -326.55 Q13.05 -326.0 14.7 -325.9 L14.55 -325.45 M18.0 -324.75 L17.15 -323.4 16.8 -323.4 16.75 -323.25 16.7 -324.15 Q16.7 -325.0 17.05 -325.25 L17.7 -325.35 18.0 -324.75 M17.0 -318.85 L16.7 -318.45 16.25 -318.45 16.1 -318.85 16.0 -320.0 Q16.0 -321.4 16.15 -321.6 L16.7 -321.6 17.0 -321.15 17.1 -320.0 17.0 -318.85 M1.7 -304.25 Q0.85 -303.1 0.85 -302.55 1.4 -302.05 2.65 -302.95 3.05 -303.7 3.05 -302.35 3.05 -302.1 1.7 -300.4 L-0.2 -298.15 Q-0.8 -297.5 -2.15 -296.95 L-6.35 -296.7 -7.6 -294.65 Q-6.2 -293.4 -5.1 -293.05 L-2.6 -292.8 Q-1.85 -292.8 -1.15 -292.0 -0.6 -291.35 -0.6 -291.05 L-0.65 -290.1 -0.75 -289.85 -1.0 -289.6 Q-1.0 -290.45 -1.3 -290.75 L-2.2 -291.5 -2.55 -291.35 Q-2.9 -290.95 -3.7 -290.95 -4.25 -290.95 -5.05 -291.65 -5.95 -292.45 -7.2 -292.65 L-7.9 -293.15 Q-8.35 -293.6 -8.35 -294.45 -8.35 -295.25 -7.25 -296.7 L-5.25 -298.7 Q-5.05 -298.4 -5.15 -297.95 -5.2 -297.5 -5.5 -297.2 L-3.45 -297.45 -1.95 -297.85 Q1.3 -299.55 1.05 -300.6 L0.1 -302.75 1.65 -305.4 1.0 -305.35 Q-0.2 -305.35 -0.45 -306.45 -0.7 -307.5 -0.2 -308.0 L-2.6 -307.45 -2.95 -307.2 Q-3.3 -307.15 -3.3 -308.05 -3.3 -310.25 -0.15 -309.45 3.0 -308.6 0.85 -307.0 L1.95 -306.8 Q2.5 -306.5 2.5 -305.65 2.5 -305.35 1.7 -304.25 M-164.75 -409.9 Q-165.5 -408.25 -167.75 -409.05 -167.6 -408.5 -167.6 -406.3 -167.6 -404.9 -168.65 -404.35 -169.3 -404.0 -171.35 -403.4 L-172.15 -403.7 -171.3 -404.65 -169.15 -406.2 -170.0 -406.5 -170.25 -407.45 -168.6 -410.3 -166.5 -410.3 -165.4 -411.25 -164.2 -412.0 Q-164.35 -410.8 -164.75 -409.9 M-146.55 -467.5 L-148.55 -466.05 Q-149.55 -465.4 -150.7 -465.3 -147.85 -469.5 -145.8 -467.9 -144.1 -466.6 -144.1 -463.55 L-144.15 -461.9 Q-144.4 -461.35 -145.75 -461.35 -146.9 -461.35 -147.75 -459.45 -148.45 -457.7 -148.25 -456.5 L-147.4 -451.65 -148.2 -451.55 Q-149.35 -454.7 -149.35 -456.8 -149.35 -458.55 -147.2 -461.35 L-145.1 -463.9 -145.5 -465.35 Q-146.05 -466.8 -146.55 -467.5 M-370.6 -261.25 L-370.7 -260.9 -370.8 -261.65 Q-370.8 -263.15 -369.2 -262.75 L-367.25 -262.0 -367.1 -261.25 Q-367.45 -260.5 -368.7 -259.7 L-367.2 -257.7 -366.05 -255.75 Q-366.15 -254.85 -366.85 -254.5 L-367.55 -254.6 Q-368.35 -254.8 -368.6 -255.05 L-368.8 -255.45 -368.5 -256.3 -367.5 -255.6 -366.7 -256.0 -368.2 -257.85 -369.25 -259.65 -369.05 -260.25 -367.8 -261.25 -367.65 -261.45 -369.05 -261.95 -369.35 -262.55 -370.0 -261.85 -370.6 -261.25 M-378.4 -261.25 L-380.25 -259.05 -382.1 -256.9 -382.25 -257.05 -382.25 -257.95 -382.1 -258.95 Q-381.65 -259.8 -379.95 -259.7 -379.95 -260.45 -378.95 -261.35 -380.35 -261.95 -383.1 -261.8 L-382.65 -262.55 Q-381.5 -263.25 -380.75 -262.95 L-378.5 -262.0 -378.4 -261.25 M-53.35 -305.35 Q-53.05 -304.5 -53.65 -303.1 L-52.3 -302.8 -51.7 -302.4 Q-51.45 -302.1 -51.45 -301.25 -51.45 -300.35 -51.6 -300.15 L-51.9 -300.05 -54.15 -299.75 -54.15 -298.55 -56.0 -298.25 -57.6 -298.0 Q-58.4 -298.0 -58.7 -298.6 L-58.95 -299.25 -59.3 -298.2 -59.5 -296.7 -59.35 -295.55 -57.1 -294.8 Q-56.85 -295.4 -56.85 -294.0 L-56.9 -293.05 -57.1 -292.8 Q-57.65 -292.8 -57.65 -294.0 L-59.15 -294.25 Q-60.35 -295.45 -60.35 -297.1 L-60.25 -298.95 Q-59.95 -300.05 -58.85 -300.3 -58.4 -300.2 -58.1 -299.7 L-57.85 -298.95 Q-55.85 -300.0 -55.75 -299.9 L-55.25 -299.5 Q-54.45 -299.5 -54.55 -300.0 L-54.55 -300.85 -52.3 -301.1 -52.95 -301.65 Q-53.55 -301.85 -54.3 -301.65 L-54.35 -301.8 -54.45 -302.95 Q-54.45 -303.9 -54.05 -304.65 L-53.35 -305.35 M-173.35 -310.85 Q-172.55 -310.05 -172.55 -308.05 L-172.8 -307.65 -178.05 -307.65 -178.2 -309.3 Q-178.2 -311.35 -177.4 -311.85 -176.35 -312.5 -173.35 -310.85 M-177.35 -309.55 L-175.55 -310.05 Q-175.95 -310.55 -176.55 -310.6 -177.15 -310.6 -177.35 -310.2 L-177.35 -309.55 M-174.65 -310.75 L-174.65 -308.6 -173.35 -308.6 Q-173.35 -309.1 -173.9 -309.8 L-174.65 -310.75 M-261.8 -290.4 L-261.6 -290.15 -261.55 -289.2 Q-261.55 -288.6 -261.75 -288.35 -262.15 -287.9 -263.75 -287.65 -262.0 -286.05 -261.0 -284.75 L-262.85 -285.65 -264.25 -286.85 -264.0 -288.4 -262.1 -288.65 -262.1 -290.4 -261.8 -290.4 M-244.15 -240.2 L-244.2 -241.1 -243.9 -243.55 -243.65 -246.45 -241.85 -246.15 -238.55 -245.85 -238.4 -245.8 Q-238.25 -245.7 -238.25 -244.85 -238.25 -243.05 -239.55 -242.2 -240.45 -241.65 -243.9 -240.05 L-244.15 -240.2 M-242.65 -243.1 L-242.65 -242.35 -242.55 -242.6 -241.6 -243.15 Q-240.9 -243.5 -240.1 -243.5 L-240.0 -243.55 -239.9 -243.95 -242.55 -244.45 -242.55 -244.3 -242.65 -243.1" fill="#ffffff" fill-rule="evenodd" stroke="none"/>
  </g>
</svg>
