<?xml version="1.0" encoding="UTF-8" standalone="no"?>
<svg xmlns:ffdec="https://www.free-decompiler.com/flash" xmlns:xlink="http://www.w3.org/1999/xlink" ffdec:objectType="shape" height="254.85px" width="416.05px" xmlns="http://www.w3.org/2000/svg">
  <g transform="matrix(1.0, 0.0, 0.0, 1.0, 383.1, 468.4)">
    <path d="M26.75 -355.0 L27.7 -356.05 28.4 -356.3 31.15 -356.2 31.75 -355.95 32.1 -355.45 32.2 -355.05 32.25 -355.0 32.45 -354.7 32.75 -354.25 32.8 -353.7 32.5 -353.25 Q31.95 -352.5 31.05 -352.95 L31.45 -350.55 31.5 -349.05 Q32.45 -349.1 32.65 -348.4 L32.7 -348.35 32.85 -348.05 32.95 -347.45 32.65 -346.9 31.8 -346.05 31.1 -345.75 29.7 -345.75 29.05 -346.0 Q28.75 -346.25 28.7 -346.6 28.6 -347.15 28.95 -348.3 L28.95 -348.35 29.25 -349.8 29.05 -350.95 28.9 -351.5 26.85 -351.8 26.25 -352.15 26.0 -352.8 Q25.95 -353.8 26.7 -354.95 L26.75 -355.0 M29.8 -354.65 L29.8 -354.55 29.9 -354.1 27.6 -354.3 28.45 -353.35 28.5 -353.65 28.5 -353.3 28.9 -353.5 30.2 -353.6 29.9 -354.1 30.1 -354.1 30.6 -353.9 29.8 -354.65 M28.9 -353.5 L28.7 -353.5 29.1 -353.6 28.9 -353.5 M10.55 -322.85 L11.0 -323.0 11.3 -323.0 11.9 -322.8 12.25 -322.35 Q12.75 -321.1 12.45 -318.6 L12.15 -318.05 11.9 -317.8 11.45 -317.5 10.9 -317.55 10.45 -317.85 Q9.75 -318.6 9.75 -320.4 L9.8 -321.6 Q9.75 -321.95 10.2 -322.55 10.3 -322.75 10.55 -322.85 M3.45 -318.65 L4.0 -318.35 4.3 -317.85 4.95 -313.35 Q4.95 -311.55 3.75 -310.05 L3.7 -310.05 Q3.1 -309.2 3.3 -307.3 L3.25 -306.85 3.0 -306.5 2.8 -306.3 2.2 -306.0 -1.6 -305.55 -2.35 -305.45 -2.75 -305.55 -2.95 -305.65 Q-3.75 -306.05 -3.9 -306.6 L-3.95 -307.25 Q-4.0 -307.95 -2.75 -308.3 L-2.65 -308.3 0.4 -308.75 Q0.65 -309.95 1.5 -311.35 2.35 -312.7 2.4 -313.35 L2.2 -314.95 2.2 -314.9 2.0 -315.6 1.35 -314.65 Q0.6 -312.3 -0.7 -312.05 L-0.9 -312.0 -3.25 -311.75 -3.25 -311.65 -3.0 -310.3 -2.95 -309.75 -3.25 -309.25 Q-3.55 -308.9 -5.9 -307.7 L-6.45 -307.6 Q-8.75 -307.8 -11.7 -308.75 L-12.85 -309.1 -12.95 -309.1 -15.25 -309.75 -15.4 -309.6 -15.35 -309.55 -13.55 -309.0 -13.1 -308.8 -12.8 -308.4 -12.6 -306.9 -12.8 -306.25 -13.05 -305.95 -13.45 -305.65 -14.5 -305.35 Q-15.25 -305.25 -15.45 -305.55 -16.2 -305.9 -15.75 -306.75 L-15.8 -306.75 Q-16.25 -306.8 -16.5 -307.15 L-16.55 -307.2 -17.0 -307.3 Q-17.35 -307.4 -17.55 -307.65 L-17.8 -308.3 -17.8 -311.55 -17.8 -311.65 Q-18.1 -312.55 -16.85 -312.85 L-16.0 -312.95 Q-15.75 -313.05 -13.9 -312.0 -12.7 -311.4 -12.2 -311.0 L-7.05 -310.55 Q-6.5 -310.65 -6.15 -311.5 L-6.2 -311.45 Q-5.35 -313.95 -4.95 -314.25 L-4.3 -314.55 -1.55 -314.75 Q-0.5 -317.4 0.9 -318.6 L1.25 -318.85 1.7 -318.9 3.45 -318.65 M-163.0 -419.15 Q-162.5 -420.1 -161.05 -420.4 L-160.65 -421.05 -160.8 -421.05 -161.35 -421.15 -161.75 -421.55 -162.0 -422.0 -162.15 -422.45 -162.05 -422.95 -161.6 -424.4 Q-161.5 -425.25 -159.95 -426.25 L-159.25 -426.45 -158.6 -426.05 Q-158.0 -425.3 -157.5 -424.2 L-157.45 -424.15 Q-156.95 -422.85 -156.95 -421.9 -156.9 -421.0 -157.85 -419.5 L-157.85 -419.45 -159.4 -417.65 Q-159.65 -417.45 -159.95 -417.4 -160.95 -417.25 -160.95 -417.75 L-161.1 -417.15 -161.6 -416.8 -162.15 -416.6 -162.9 -416.65 -163.4 -417.2 Q-163.6 -417.6 -163.4 -417.95 L-163.1 -418.9 -163.0 -419.15 M-150.9 -460.3 L-148.65 -456.8 -148.65 -456.75 Q-147.25 -454.55 -146.75 -453.1 L-146.6 -452.8 -146.5 -452.15 -146.8 -451.6 Q-147.05 -451.4 -147.35 -451.35 L-148.45 -451.2 -149.0 -451.25 -149.4 -451.6 -149.6 -452.1 Q-149.75 -453.7 -150.75 -455.15 -152.2 -457.15 -154.9 -457.9 L-155.0 -457.9 -155.45 -457.95 Q-156.3 -457.9 -156.3 -459.85 -156.35 -461.05 -154.05 -465.15 L-154.0 -465.25 -152.85 -467.6 -152.9 -467.55 Q-151.55 -469.3 -149.05 -467.4 -147.25 -466.9 -147.1 -466.1 L-147.05 -465.6 -147.25 -465.1 Q-147.55 -464.45 -149.35 -464.6 L-149.4 -464.6 -150.65 -464.8 -152.4 -460.95 -151.65 -460.85 -151.2 -460.65 -150.9 -460.3 M-361.75 -260.35 L-362.7 -260.5 -362.75 -261.35 -361.75 -260.35 M-363.9 -260.8 Q-364.6 -261.05 -364.75 -261.2 L-363.4 -261.35 -363.9 -260.8 M-360.8 -256.85 L-361.55 -256.25 -361.2 -255.4 -362.25 -256.0 -362.65 -256.45 -362.75 -256.8 -362.25 -256.85 -361.65 -256.85 -360.8 -256.85 M-360.9 -257.95 L-361.6 -258.0 -361.9 -258.1 -361.85 -258.2 -361.9 -258.15 -361.7 -258.8 -360.8 -258.05 -360.85 -257.95 -361.0 -257.95 -360.9 -257.95 M-367.75 -267.3 Q-367.4 -267.3 -367.1 -267.0 L-366.8 -266.4 Q-366.7 -265.85 -367.0 -264.95 L-367.2 -263.9 -366.05 -262.75 -365.55 -262.25 -365.4 -262.0 -365.25 -261.7 -365.15 -261.1 -365.15 -261.05 -365.4 -260.55 -365.9 -260.25 -367.15 -259.95 -367.45 -259.95 -368.65 -260.0 -369.25 -260.25 -369.55 -260.85 -369.7 -262.65 -369.95 -262.5 -370.5 -262.35 -371.15 -262.4 -371.6 -262.75 -371.8 -263.35 -372.2 -264.25 -372.35 -264.75 -372.2 -265.2 -371.65 -266.2 -371.25 -266.65 -369.95 -267.3 -369.45 -267.4 -367.75 -267.3 M-378.1 -261.55 L-377.9 -261.5 Q-376.7 -261.25 -376.65 -261.05 -376.15 -260.75 -376.15 -259.25 -376.15 -257.9 -376.4 -257.7 L-376.75 -257.2 -377.4 -257.0 -377.8 -256.8 Q-378.1 -256.5 -378.45 -256.45 -378.85 -256.4 -379.2 -256.65 -379.85 -256.95 -379.7 -258.0 L-381.1 -258.05 -381.6 -258.2 -381.95 -258.6 -382.8 -259.55 -383.1 -260.25 -382.8 -260.95 -382.5 -261.25 -381.8 -261.55 -378.1 -261.55 M-61.95 -308.3 L-62.05 -308.75 -62.05 -311.55 -61.75 -312.25 -61.5 -312.5 Q-61.05 -313.1 -59.65 -313.1 -57.9 -313.1 -57.85 -311.7 L-57.7 -311.7 -57.65 -312.25 -57.65 -313.9 -57.4 -315.5 -57.2 -315.75 -56.7 -316.1 -56.15 -316.25 -53.85 -316.15 Q-53.45 -316.15 -53.2 -315.85 -51.55 -314.2 -51.7 -313.55 L-51.75 -313.2 -51.9 -312.8 -52.25 -312.3 -52.85 -312.15 Q-53.4 -312.0 -54.15 -312.9 L-54.05 -312.8 -54.35 -313.05 -54.25 -312.05 -54.3 -311.5 -53.45 -311.6 -52.25 -311.45 -52.15 -311.5 -52.1 -311.55 Q-50.95 -312.25 -49.8 -311.8 L-49.65 -311.75 -49.7 -312.55 -49.55 -313.05 -49.2 -313.45 -48.7 -313.6 -47.9 -313.6 -47.4 -313.45 -47.0 -313.05 -46.7 -312.5 -46.6 -312.05 Q-46.55 -311.5 -47.15 -309.85 -48.1 -307.35 -49.2 -307.6 -50.2 -307.6 -50.8 -307.95 L-50.9 -307.8 -51.1 -307.55 -51.45 -307.3 -51.9 -307.2 Q-52.85 -307.2 -53.4 -307.95 L-54.75 -306.8 Q-55.05 -306.55 -55.4 -306.55 L-59.65 -306.55 Q-60.0 -306.55 -60.3 -306.8 L-61.7 -308.0 -61.95 -308.3 M-48.9 -310.85 L-48.9 -310.9 -48.9 -310.85 M-3.5 -324.65 Q-2.75 -326.65 -2.0 -327.15 -1.7 -327.45 -1.3 -327.4 L-0.6 -327.05 Q-0.35 -326.75 -0.4 -326.3 -0.7 -322.6 -1.35 -320.85 L-1.6 -320.45 -2.0 -320.2 -2.55 -320.05 -3.25 -320.15 -3.75 -320.6 -3.85 -320.85 -3.95 -320.95 Q-4.15 -321.25 -4.15 -322.5 L-3.5 -324.65 M-173.4 -322.85 Q-172.25 -324.1 -170.25 -324.15 L-169.75 -324.0 -169.4 -323.65 -169.35 -323.55 -169.25 -323.5 -169.3 -323.55 Q-168.55 -323.0 -168.5 -322.6 L-168.45 -322.05 -168.75 -321.6 Q-168.95 -321.25 -169.7 -321.2 L-169.45 -320.75 Q-169.0 -320.1 -167.85 -319.35 L-167.4 -318.75 -167.5 -318.05 Q-168.05 -316.95 -168.95 -315.95 L-169.3 -315.7 -169.7 -315.65 Q-171.1 -315.65 -171.55 -315.15 L-171.95 -314.8 -172.5 -314.7 -173.35 -314.8 -173.9 -315.05 -174.2 -315.6 -174.15 -316.2 Q-173.7 -317.3 -173.25 -317.6 L-173.3 -317.55 Q-172.9 -318.0 -172.2 -318.25 -172.85 -318.95 -172.85 -319.45 L-173.75 -319.75 -174.25 -320.05 -174.5 -320.6 -174.4 -321.15 -173.45 -322.8 -173.4 -322.85 M-264.7 -301.7 L-264.5 -301.15 -264.6 -300.6 Q-265.15 -299.7 -264.95 -299.05 L-264.95 -299.1 Q-264.65 -298.35 -265.05 -297.5 L-265.1 -297.4 -265.45 -296.95 -265.05 -296.5 -263.3 -296.55 -262.6 -296.55 Q-261.05 -296.0 -261.1 -294.55 -261.1 -294.25 -261.25 -293.95 L-261.75 -293.6 Q-262.9 -293.2 -263.3 -292.85 L-263.7 -292.65 -264.1 -292.6 -265.45 -292.75 -265.85 -292.9 -266.15 -293.2 -267.4 -294.45 Q-268.5 -295.55 -268.5 -297.0 -268.5 -298.5 -267.85 -298.8 L-268.1 -299.05 -268.5 -299.7 -268.3 -300.45 Q-267.55 -301.5 -265.8 -302.05 L-265.2 -302.05 -264.7 -301.7 M-234.45 -256.85 L-234.55 -256.2 -234.6 -256.1 -234.6 -255.6 -234.25 -255.2 -234.2 -255.15 Q-233.3 -254.2 -233.05 -253.4 L-233.0 -252.85 -233.25 -252.4 Q-234.1 -251.55 -236.4 -250.2 -238.6 -248.95 -239.45 -248.8 L-239.95 -248.85 -240.4 -249.15 -240.6 -249.6 -240.75 -250.45 -240.8 -250.65 Q-240.8 -252.0 -240.15 -252.55 L-239.95 -252.7 -239.3 -253.05 -238.75 -253.3 Q-238.05 -253.45 -237.7 -252.9 L-237.6 -252.95 -237.3 -252.9 -237.3 -252.85 -237.15 -253.05 -237.25 -253.25 Q-237.7 -254.0 -237.7 -255.1 -237.7 -258.0 -235.45 -257.85 L-234.75 -257.55 Q-234.45 -257.25 -234.45 -256.85 M-213.8 -230.05 Q-213.1 -230.85 -212.4 -231.2 L-211.9 -231.35 -211.4 -231.2 -211.05 -230.8 Q-210.8 -230.5 -210.95 -229.5 L-210.3 -229.55 Q-209.1 -229.85 -209.1 -227.75 -209.05 -225.6 -211.35 -223.85 L-211.3 -223.85 -214.05 -221.75 -214.4 -221.5 -214.9 -221.45 -215.6 -221.55 -215.65 -221.55 -216.45 -221.8 -216.7 -221.95 -216.7 -221.8 -216.3 -220.5 Q-215.6 -219.0 -214.3 -218.6 L-214.05 -218.5 -213.45 -218.0 Q-213.2 -217.7 -213.2 -216.45 L-213.25 -215.15 -213.45 -214.75 Q-213.7 -214.15 -214.05 -213.85 -214.3 -213.6 -214.65 -213.55 L-215.3 -213.7 -215.7 -214.25 -216.05 -215.4 -217.2 -216.85 -217.25 -216.9 -218.5 -218.2 Q-220.0 -219.8 -219.9 -220.75 L-219.45 -222.6 -219.2 -223.55 -219.2 -223.95 -218.9 -224.65 -218.2 -224.95 Q-217.45 -224.95 -217.1 -224.6 L-216.05 -224.4 -216.05 -224.5 -215.8 -225.15 -215.15 -225.5 Q-214.1 -225.6 -213.75 -225.15 L-213.0 -225.85 -212.95 -225.85 -212.7 -226.2 -213.45 -226.25 -213.95 -226.4 -214.3 -226.8 -214.4 -227.05 -214.45 -227.1 Q-214.65 -227.45 -214.65 -228.5 -214.75 -229.0 -213.85 -230.05 L-213.8 -230.05" fill="#66ff66" fill-opacity="0.5294118" fill-rule="evenodd" stroke="none"/>
  </g>
</svg>
