<?xml version="1.0" encoding="UTF-8" standalone="no"?>
<svg xmlns:ffdec="https://www.free-decompiler.com/flash" xmlns:xlink="http://www.w3.org/1999/xlink" ffdec:objectType="shape" height="556.35px" width="915.85px" xmlns="http://www.w3.org/2000/svg">
  <g transform="matrix(1.0, 0.0, 0.0, 1.0, 505.85, 718.15)">
    <path d="M305.55 -718.15 Q284.35 -683.55 273.3 -652.15 271.05 -648.25 268.45 -641.7 266.1 -635.6 265.35 -631.4 L264.75 -630.8 264.2 -630.7 262.65 -625.3 Q254.95 -596.9 256.45 -581.1 256.8 -577.6 256.15 -570.45 255.25 -562.0 255.3 -559.95 255.25 -556.1 255.7 -549.9 256.05 -544.0 256.55 -540.05 257.45 -532.75 259.75 -518.5 262.0 -504.0 262.55 -502.65 262.7 -502.15 265.8 -497.75 268.85 -493.5 269.15 -492.55 L271.85 -485.55 275.15 -477.6 275.3 -478.85 276.1 -475.0 Q278.65 -467.5 279.6 -458.35 L280.2 -456.35 280.55 -453.15 280.6 -452.2 279.9 -455.4 280.15 -449.9 Q280.65 -438.7 278.95 -419.6 L278.2 -418.95 278.2 -420.15 Q275.55 -390.55 264.9 -360.4 256.8 -337.4 251.45 -324.7 243.3 -305.3 232.95 -287.35 L228.35 -279.0 Q226.65 -275.9 223.75 -271.8 L217.4 -264.3 Q213.7 -260.15 211.3 -255.95 208.15 -250.45 198.2 -239.85 191.1 -232.55 183.35 -225.55 L183.75 -225.5 182.0 -223.85 179.55 -221.5 172.65 -216.9 Q166.0 -212.4 165.0 -211.85 L153.65 -206.0 Q152.9 -201.25 143.95 -194.95 137.25 -190.15 130.75 -187.8 L129.4 -187.3 126.05 -186.4 90.85 -177.15 Q71.35 -172.15 63.2 -172.25 L58.45 -171.05 Q48.0 -168.65 31.9 -166.75 L3.8 -164.2 -21.6 -163.8 -22.15 -163.45 -22.25 -163.4 -47.2 -163.55 -50.95 -163.6 -58.2 -162.65 -66.6 -162.0 -74.8 -161.8 -76.0 -161.8 -76.4 -161.8 -80.4 -161.85 -81.2 -161.85 -83.25 -161.95 -89.5 -162.4 -93.1 -162.65 -96.9 -163.2 -117.0 -164.0 -139.1 -165.0 Q-151.05 -165.2 -151.75 -166.0 L-170.5 -166.8 -175.4 -167.3 -176.0 -167.45 -177.9 -167.3 Q-182.95 -167.3 -183.45 -167.9 L-190.05 -168.7 -202.85 -170.35 -205.85 -171.05 -210.25 -172.1 -216.9 -172.9 -223.4 -173.2 -225.65 -173.6 -247.0 -179.15 Q-261.8 -182.8 -270.0 -185.5 -275.3 -187.25 -279.7 -189.15 -296.65 -196.45 -300.65 -206.15 L-300.65 -207.45 -302.55 -210.3 -303.65 -211.15 -305.3 -214.85 -306.15 -216.5 -308.4 -221.05 Q-315.05 -233.65 -326.9 -251.9 -336.4 -266.45 -356.35 -294.85 L-372.9 -314.1 Q-388.35 -331.8 -394.7 -340.9 L-409.75 -362.3 Q-418.45 -375.7 -422.15 -385.05 L-421.2 -383.65 Q-441.85 -421.2 -454.2 -468.25 L-457.5 -481.7 Q-460.95 -496.15 -463.5 -508.7 -470.05 -541.2 -468.95 -552.35 -468.9 -560.45 -466.9 -573.5 -465.4 -583.65 -463.6 -590.95 L-463.55 -591.45 Q-462.65 -595.55 -458.6 -606.1 -452.3 -622.55 -443.6 -632.85 L-441.25 -635.65 -439.9 -636.8 Q-436.5 -640.15 -432.75 -642.65 L-432.55 -642.4 Q-429.65 -644.6 -429.35 -645.35 -427.4 -650.5 -417.35 -696.15 L-416.75 -699.4 -416.55 -703.25 Q-415.95 -708.7 -416.0 -710.05 L-415.55 -716.85 -415.35 -718.15 305.55 -718.15 M170.75 -636.35 Q168.8 -641.25 164.35 -656.85 160.85 -669.2 157.0 -675.85 L157.0 -675.6 Q155.7 -662.15 151.3 -650.0 145.9 -635.3 136.75 -625.35 131.7 -619.85 120.6 -612.85 L103.25 -602.6 93.95 -597.3 Q87.35 -594.65 74.0 -593.35 65.6 -592.6 55.4 -588.6 46.4 -584.65 45.0 -584.35 39.6 -576.05 36.75 -562.7 34.25 -547.65 32.75 -540.85 30.8 -532.3 26.4 -519.2 L18.75 -497.35 Q12.9 -480.65 -1.75 -453.85 -7.05 -444.0 -7.7 -443.1 -12.35 -436.5 -20.5 -432.35 -25.85 -429.55 -31.7 -422.5 -37.7 -415.2 -34.75 -414.25 L-39.7 -401.95 -39.85 -401.55 Q-42.5 -393.7 -42.5 -388.0 L-43.5 -387.75 -43.5 -387.9 -43.6 -389.4 -43.75 -391.85 Q-43.75 -392.9 -42.35 -397.2 L-40.8 -401.85 -40.75 -402.0 -41.0 -402.5 Q-43.7 -398.5 -45.7 -393.15 -47.75 -387.55 -47.75 -383.75 L-46.95 -377.75 Q-46.3 -373.4 -47.0 -369.5 L-47.0 -369.0 Q-44.75 -369.6 -42.65 -371.85 -40.4 -374.2 -38.0 -375.0 -35.8 -373.7 -33.0 -373.9 -30.25 -374.1 -26.95 -375.75 L-11.95 -385.05 Q13.55 -401.0 42.0 -401.0 57.35 -401.0 63.45 -400.45 72.5 -399.65 78.2 -396.9 84.3 -394.0 89.5 -387.55 94.45 -381.45 100.75 -369.5 105.35 -360.65 107.2 -353.05 109.0 -345.75 109.0 -336.5 L108.0 -326.15 107.0 -315.85 Q107.0 -314.5 107.8 -309.65 L109.0 -302.0 Q109.2 -299.85 108.65 -295.15 L108.0 -289.25 108.05 -287.55 108.5 -287.5 113.0 -290.25 114.85 -287.7 Q115.0 -287.2 114.25 -286.25 L114.25 -285.75 Q120.45 -289.3 122.85 -290.75 130.65 -295.5 133.25 -298.0 137.75 -302.5 146.25 -310.0 149.5 -312.9 165.0 -321.75 168.6 -323.85 172.85 -327.2 L180.75 -333.75 Q190.55 -341.8 208.75 -358.5 210.5 -360.05 215.65 -370.65 220.75 -381.25 220.75 -383.25 220.75 -385.8 216.55 -395.3 212.2 -405.3 211.75 -409.5 210.15 -409.35 207.5 -408.45 L203.25 -407.0 Q203.0 -407.35 202.8 -407.25 L202.75 -408.85 Q202.75 -410.15 209.5 -421.1 215.75 -431.3 218.75 -435.35 222.35 -440.35 225.4 -448.15 L230.0 -461.6 Q239.0 -488.45 239.0 -513.0 239.0 -537.65 232.5 -553.75 224.7 -573.15 202.75 -595.1 176.8 -621.05 170.75 -636.35 M261.0 -501.8 L261.0 -501.7 261.05 -501.65 261.0 -501.8 M278.0 -672.5 L275.1 -664.2 278.4 -672.25 278.95 -673.5 278.0 -672.5 M10.05 -360.0 L13.15 -371.4 13.65 -372.15 Q8.0 -372.0 0.85 -369.25 L-11.1 -364.65 -14.6 -364.9 -15.05 -366.4 -15.35 -367.9 -17.15 -367.35 -19.1 -366.65 -23.6 -366.9 -24.15 -368.75 Q-24.45 -370.1 -24.85 -370.4 -28.25 -369.9 -32.15 -368.2 -35.3 -366.85 -37.35 -365.4 L-42.1 -361.7 Q-45.25 -359.35 -48.1 -357.9 -51.85 -355.95 -62.65 -350.75 L-77.35 -343.65 Q-80.7 -341.9 -106.0 -332.15 -134.55 -321.15 -139.1 -321.15 L-145.85 -321.85 -147.35 -322.1 Q-150.8 -322.75 -151.1 -323.15 L-159.1 -323.15 Q-158.2 -322.1 -150.75 -317.4 L-142.1 -311.65 -136.8 -306.1 -131.6 -300.4 Q-126.55 -295.35 -112.3 -288.9 -96.9 -281.9 -88.35 -281.9 -62.05 -281.9 -36.45 -294.5 -9.4 -307.8 -4.35 -325.65 -3.4 -329.2 1.2 -337.4 5.95 -345.8 6.9 -348.9 L10.05 -360.0 M154.85 -209.65 L154.5 -209.25 154.95 -209.55 154.85 -209.65 M-311.85 -449.85 L-326.45 -451.95 -341.35 -454.35 Q-343.75 -455.3 -348.15 -457.85 L-354.1 -461.1 Q-361.9 -464.3 -374.55 -486.3 -386.0 -506.15 -386.8 -514.65 L-386.85 -514.6 -388.2 -516.35 -387.6 -514.1 Q-389.7 -515.8 -390.3 -521.9 -390.8 -526.85 -393.85 -526.85 -396.45 -526.85 -402.45 -519.95 -407.9 -513.6 -408.85 -510.85 L-411.95 -502.7 Q-413.95 -497.45 -414.85 -493.6 -416.35 -487.45 -418.1 -477.25 -420.35 -464.5 -420.35 -459.1 -420.35 -457.55 -418.7 -457.45 L-414.6 -457.35 Q-416.25 -438.9 -412.65 -418.55 -409.15 -399.05 -401.1 -379.5 L-392.95 -360.35 Q-387.7 -349.0 -381.8 -340.45 -366.25 -317.75 -339.85 -305.25 -338.8 -305.7 -338.05 -306.9 L-336.85 -308.75 Q-331.35 -308.5 -329.85 -307.0 -326.15 -308.2 -326.2 -310.8 L-326.45 -313.1 Q-326.65 -314.55 -326.35 -315.5 L-325.55 -316.1 Q-324.4 -316.75 -322.85 -316.75 -310.1 -316.75 -299.2 -312.85 -285.55 -307.1 -274.5 -303.5 -239.7 -292.2 -222.5 -288.0 L-193.75 -288.25 Q-191.0 -289.75 -190.15 -293.6 -189.25 -297.7 -188.0 -298.75 -185.95 -300.35 -171.05 -301.95 -155.3 -303.6 -151.0 -305.75 L-149.75 -306.0 Q-155.4 -308.6 -174.0 -315.9 -191.45 -323.1 -198.75 -328.5 -205.0 -333.1 -219.0 -341.65 -235.9 -352.05 -242.25 -356.25 -259.15 -367.45 -268.55 -383.5 -272.7 -390.55 -280.75 -411.75 -282.25 -415.75 -284.6 -425.8 -287.45 -434.8 -293.0 -438.85 L-302.15 -445.55 Q-306.55 -448.4 -311.85 -449.85 M-128.55 -420.7 Q-129.7 -420.65 -130.1 -420.0 L-128.85 -420.05 Q-127.65 -420.2 -127.4 -420.5 L-128.55 -420.7" fill="#9383eb" fill-opacity="0.45882353" fill-rule="evenodd" stroke="none"/>
    <path d="M170.75 -636.35 Q176.8 -621.05 202.75 -595.1 224.7 -573.15 232.5 -553.75 239.0 -537.65 239.0 -513.0 239.0 -488.45 230.0 -461.6 L225.4 -448.15 Q222.35 -440.35 218.75 -435.35 215.75 -431.3 209.5 -421.1 202.75 -410.15 202.75 -408.85 L202.8 -407.25 Q203.0 -407.35 203.25 -407.0 L207.5 -408.45 Q210.15 -409.35 211.75 -409.5 212.2 -405.3 216.55 -395.3 220.75 -385.8 220.75 -383.25 220.75 -381.25 215.65 -370.65 210.5 -360.05 208.75 -358.5 190.55 -341.8 180.75 -333.75 L172.85 -327.2 Q168.6 -323.85 165.0 -321.75 149.5 -312.9 146.25 -310.0 137.75 -302.5 133.25 -298.0 130.65 -295.5 122.85 -290.75 120.45 -289.3 114.25 -285.75 L114.25 -286.25 Q115.0 -287.2 114.85 -287.7 L113.0 -290.25 108.5 -287.5 108.05 -287.55 108.0 -289.25 108.65 -295.15 Q109.2 -299.85 109.0 -302.0 L107.8 -309.65 Q107.0 -314.5 107.0 -315.85 L108.0 -326.15 109.0 -336.5 Q109.0 -345.75 107.2 -353.05 105.35 -360.65 100.75 -369.5 94.45 -381.45 89.5 -387.55 84.3 -394.0 78.2 -396.9 72.5 -399.65 63.45 -400.45 57.35 -401.0 42.0 -401.0 13.55 -401.0 -11.95 -385.05 L-26.95 -375.75 Q-30.25 -374.1 -33.0 -373.9 -35.8 -373.7 -38.0 -375.0 -40.4 -374.2 -42.65 -371.85 -44.75 -369.6 -47.0 -369.0 L-47.0 -369.5 Q-46.3 -373.4 -46.95 -377.75 L-47.75 -383.75 Q-47.75 -387.55 -45.7 -393.15 -43.7 -398.5 -41.0 -402.5 L-40.75 -402.0 -40.8 -401.85 -42.35 -397.2 Q-43.75 -392.9 -43.75 -391.85 L-43.6 -389.4 -43.5 -387.9 -43.5 -387.75 -42.5 -388.0 Q-42.5 -393.7 -39.85 -401.55 L-39.7 -401.95 -34.75 -414.25 Q-37.7 -415.2 -31.7 -422.5 -25.85 -429.55 -20.5 -432.35 -12.35 -436.5 -7.7 -443.1 -7.05 -444.0 -1.75 -453.85 12.9 -480.65 18.75 -497.35 L26.4 -519.2 Q30.8 -532.3 32.75 -540.85 34.25 -547.65 36.75 -562.7 39.6 -576.05 45.0 -584.35 46.4 -584.65 55.4 -588.6 65.6 -592.6 74.0 -593.35 87.35 -594.65 93.95 -597.3 L103.25 -602.6 120.6 -612.85 Q131.7 -619.85 136.75 -625.35 145.9 -635.3 151.3 -650.0 155.7 -662.15 157.0 -675.6 L157.0 -675.85 Q160.85 -669.2 164.35 -656.85 168.8 -641.25 170.75 -636.35 M10.05 -360.0 L6.9 -348.9 Q5.95 -345.8 1.2 -337.4 -3.4 -329.2 -4.35 -325.65 -9.4 -307.8 -36.45 -294.5 -62.05 -281.9 -88.35 -281.9 -96.9 -281.9 -112.3 -288.9 -126.55 -295.35 -131.6 -300.4 L-136.8 -306.1 -142.1 -311.65 -150.75 -317.4 Q-158.2 -322.1 -159.1 -323.15 L-151.1 -323.15 Q-150.8 -322.75 -147.35 -322.1 L-145.85 -321.85 -139.1 -321.15 Q-134.55 -321.15 -106.0 -332.15 -80.7 -341.9 -77.35 -343.65 L-62.65 -350.75 Q-51.85 -355.95 -48.1 -357.9 -45.25 -359.35 -42.1 -361.7 L-37.35 -365.4 Q-35.3 -366.85 -32.15 -368.2 -28.25 -369.9 -24.85 -370.4 -24.45 -370.1 -24.15 -368.75 L-23.6 -366.9 -19.1 -366.65 -17.15 -367.35 -15.35 -367.9 -15.05 -366.4 -14.6 -364.9 -11.1 -364.65 0.85 -369.25 Q8.0 -372.0 13.65 -372.15 L13.15 -371.4 10.05 -360.0 M-311.85 -449.85 Q-306.55 -448.4 -302.15 -445.55 L-293.0 -438.85 Q-287.45 -434.8 -284.6 -425.8 -282.25 -415.75 -280.75 -411.75 -272.7 -390.55 -268.55 -383.5 -259.15 -367.45 -242.25 -356.25 -235.9 -352.05 -219.0 -341.65 -205.0 -333.1 -198.75 -328.5 -191.45 -323.1 -174.0 -315.9 -155.4 -308.6 -149.75 -306.0 L-151.0 -305.75 Q-155.3 -303.6 -171.05 -301.95 -185.95 -300.35 -188.0 -298.75 -189.25 -297.7 -190.15 -293.6 -191.0 -289.75 -193.75 -288.25 L-222.5 -288.0 Q-239.7 -292.2 -274.5 -303.5 -285.55 -307.1 -299.2 -312.85 -310.1 -316.75 -322.85 -316.75 -324.4 -316.75 -325.55 -316.1 L-326.35 -315.5 Q-326.65 -314.55 -326.45 -313.1 L-326.2 -310.8 Q-326.15 -308.2 -329.85 -307.0 -331.35 -308.5 -336.85 -308.75 L-338.05 -306.9 Q-338.8 -305.7 -339.85 -305.25 -366.25 -317.75 -381.8 -340.45 -387.7 -349.0 -392.95 -360.35 L-401.1 -379.5 Q-409.15 -399.05 -412.65 -418.55 -416.25 -438.9 -414.6 -457.35 L-418.7 -457.45 Q-420.35 -457.55 -420.35 -459.1 -420.35 -464.5 -418.1 -477.25 -416.35 -487.45 -414.85 -493.6 -413.95 -497.45 -411.95 -502.7 L-408.85 -510.85 Q-407.9 -513.6 -402.45 -519.95 -396.45 -526.85 -393.85 -526.85 -390.8 -526.85 -390.3 -521.9 -389.7 -515.8 -387.6 -514.1 L-388.2 -516.35 -386.85 -514.6 -386.8 -514.65 Q-386.0 -506.15 -374.55 -486.3 -361.9 -464.3 -354.1 -461.1 L-348.15 -457.85 Q-343.75 -455.3 -341.35 -454.35 L-326.45 -451.95 -311.85 -449.85" fill="#b9b0eb" fill-opacity="0.45882353" fill-rule="evenodd" stroke="none"/>
    <path d="M305.55 -718.15 L410.0 -718.15 392.4 -686.0 Q377.1 -654.85 363.3 -630.75 360.55 -625.0 355.1 -616.15 346.1 -601.8 343.4 -596.25 L332.3 -574.95 Q324.9 -561.15 320.75 -551.55 317.55 -544.1 314.8 -535.15 311.5 -524.6 308.75 -511.95 L306.85 -502.35 306.25 -494.0 306.05 -484.4 305.7 -481.5 Q303.9 -465.2 305.5 -447.75 305.8 -444.6 306.7 -414.8 307.05 -403.8 308.3 -395.55 L308.3 -386.6 Q309.5 -369.5 308.95 -359.0 307.85 -341.05 301.75 -325.3 L300.65 -322.6 301.3 -325.45 301.15 -325.3 300.35 -322.65 299.2 -319.05 Q294.15 -307.35 283.4 -289.0 L274.0 -273.3 Q265.05 -256.3 244.15 -238.95 L238.7 -234.45 228.3 -226.15 Q220.15 -221.9 219.6 -221.1 L216.95 -220.05 212.2 -217.55 205.55 -215.3 Q203.4 -214.15 199.7 -212.75 L198.15 -212.1 Q196.25 -211.0 194.7 -209.65 L193.2 -208.25 193.3 -206.9 Q193.3 -201.85 181.9 -194.95 173.95 -190.15 166.35 -187.8 L164.75 -187.3 160.8 -186.4 119.5 -177.15 Q96.6 -172.15 87.0 -172.25 L81.4 -171.05 Q69.2 -168.65 50.3 -166.75 L17.3 -164.2 -12.6 -163.8 -13.3 -163.4 -22.15 -163.45 -21.6 -163.8 3.8 -164.2 31.9 -166.75 Q48.0 -168.65 58.45 -171.05 L63.2 -172.25 Q71.35 -172.15 90.85 -177.15 L126.05 -186.4 129.4 -187.3 130.75 -187.8 Q137.25 -190.15 143.95 -194.95 152.9 -201.25 153.65 -206.0 L165.0 -211.85 Q166.0 -212.4 172.65 -216.9 L179.55 -221.5 182.0 -223.85 183.75 -225.5 183.35 -225.55 Q191.1 -232.55 198.2 -239.85 208.15 -250.45 211.3 -255.95 213.7 -260.15 217.4 -264.3 L223.75 -271.8 Q226.65 -275.9 228.35 -279.0 L232.95 -287.35 Q243.3 -305.3 251.45 -324.7 256.8 -337.4 264.9 -360.4 275.55 -390.55 278.2 -420.15 L278.2 -418.95 278.95 -419.6 Q280.65 -438.7 280.15 -449.9 L279.9 -455.4 280.6 -452.2 280.55 -453.15 280.2 -456.35 279.6 -458.35 Q278.65 -467.5 276.1 -475.0 L275.3 -478.85 275.15 -477.6 271.85 -485.55 269.15 -492.55 Q268.85 -493.5 265.8 -497.75 262.7 -502.15 262.55 -502.65 262.0 -504.0 259.75 -518.5 257.45 -532.75 256.55 -540.05 256.05 -544.0 255.7 -549.9 255.25 -556.1 255.3 -559.95 255.25 -562.0 256.15 -570.45 256.8 -577.6 256.45 -581.1 254.95 -596.9 262.65 -625.3 L264.2 -630.7 264.75 -630.8 265.35 -631.4 Q266.1 -635.6 268.45 -641.7 271.05 -648.25 273.3 -652.15 284.35 -683.55 305.55 -718.15 M-47.2 -163.55 L-55.5 -162.65 -65.75 -162.05 -66.6 -162.0 -58.2 -162.65 -50.95 -163.6 -47.2 -163.55 M-81.2 -161.85 L-84.95 -161.95 -92.3 -162.4 -96.5 -162.65 -101.0 -163.2 -124.6 -164.0 -150.6 -165.0 -165.4 -166.0 -187.4 -166.8 -193.15 -167.3 -193.9 -167.45 -196.1 -167.3 Q-202.0 -167.3 -202.6 -167.9 L-210.4 -168.7 -225.4 -170.35 -228.9 -171.05 -234.1 -172.1 -241.9 -172.9 -249.5 -173.2 -252.2 -173.6 -277.3 -179.15 Q-294.6 -182.8 -304.3 -185.5 -310.5 -187.25 -315.65 -189.15 -335.55 -196.45 -340.25 -206.15 L-340.25 -206.2 -342.1 -206.9 Q-354.5 -213.45 -360.7 -217.9 L-363.25 -219.9 Q-398.6 -243.7 -416.05 -260.7 -427.6 -272.05 -446.0 -297.1 -455.75 -310.45 -464.05 -324.2 L-469.9 -334.2 -471.2 -336.55 -470.6 -335.2 -470.05 -334.05 -464.8 -323.75 -471.0 -333.35 -471.85 -334.65 -475.8 -340.7 -477.55 -344.5 -477.8 -344.6 -483.15 -356.85 -483.25 -356.9 -483.85 -358.55 Q-489.4 -372.4 -493.6 -386.7 L-496.8 -395.95 Q-503.7 -418.25 -503.65 -431.6 L-502.85 -429.2 -503.2 -431.65 Q-506.05 -452.7 -505.85 -473.7 L-505.0 -474.95 -504.85 -473.95 -504.7 -472.75 -504.65 -474.85 Q-504.3 -487.15 -503.05 -500.7 -498.9 -545.7 -487.35 -571.6 L-484.0 -578.7 Q-482.6 -581.55 -480.85 -583.75 L-478.75 -587.35 Q-475.7 -591.35 -471.35 -592.7 L-471.05 -593.75 -469.25 -595.8 -468.35 -594.0 -468.35 -595.8 Q-469.1 -638.9 -474.0 -667.15 -478.6 -693.5 -487.9 -718.15 L-415.35 -718.15 -415.55 -716.85 -416.0 -710.05 Q-415.95 -708.7 -416.55 -703.25 L-416.75 -699.4 -417.35 -696.15 Q-427.4 -650.5 -429.35 -645.35 -429.65 -644.6 -432.55 -642.4 L-432.75 -642.65 Q-436.5 -640.15 -439.9 -636.8 L-441.25 -635.65 -443.6 -632.85 Q-452.3 -622.55 -458.6 -606.1 -462.65 -595.55 -463.55 -591.45 L-463.6 -590.95 Q-465.4 -583.65 -466.9 -573.5 -468.9 -560.45 -468.95 -552.35 -470.05 -541.2 -463.5 -508.7 -460.95 -496.15 -457.5 -481.7 L-454.2 -468.25 Q-441.85 -421.2 -421.2 -383.65 L-422.15 -385.05 Q-418.45 -375.7 -409.75 -362.3 L-394.7 -340.9 Q-388.35 -331.8 -372.9 -314.1 L-356.35 -294.85 Q-336.4 -266.45 -326.9 -251.9 -315.05 -233.65 -308.4 -221.05 L-306.15 -216.5 -305.3 -214.85 -303.65 -211.15 -302.55 -210.3 -300.65 -207.45 -300.65 -206.15 Q-296.65 -196.45 -279.7 -189.15 -275.3 -187.25 -270.0 -185.5 -261.8 -182.8 -247.0 -179.15 L-225.65 -173.6 -223.4 -173.2 -216.9 -172.9 -210.25 -172.1 -205.85 -171.05 -202.85 -170.35 -190.05 -168.7 -183.45 -167.9 Q-182.95 -167.3 -177.9 -167.3 L-176.0 -167.45 -175.4 -167.3 -170.5 -166.8 -151.75 -166.0 Q-151.05 -165.2 -139.1 -165.0 L-117.0 -164.0 -96.9 -163.2 -93.1 -162.65 -89.5 -162.4 -83.25 -161.95 -81.2 -161.85 M278.0 -672.5 L278.95 -673.5 278.4 -672.25 275.1 -664.2 278.0 -672.5 M261.0 -501.8 L261.05 -501.65 261.0 -501.7 261.0 -501.8 M314.8 -534.9 L314.8 -535.1 316.1 -538.25 Q315.7 -536.75 315.55 -535.25 L314.8 -534.9 M154.85 -209.65 L154.95 -209.55 154.5 -209.25 154.85 -209.65 M-128.55 -420.7 L-127.4 -420.5 Q-127.65 -420.2 -128.85 -420.05 L-130.1 -420.0 Q-129.7 -420.65 -128.55 -420.7 M-502.2 -443.45 L-502.15 -443.0 -502.1 -443.05 -502.2 -443.45 M-488.0 -565.05 L-488.6 -563.5 -488.4 -563.4 -488.0 -565.05" fill="#9383eb" fill-opacity="0.7490196" fill-rule="evenodd" stroke="none"/>
    <path d="M46.1 -477.25 L47.05 -477.7 Q46.1 -471.75 38.9 -461.25 29.35 -447.45 27.95 -444.65 L27.5 -444.7 Q22.85 -438.4 19.35 -435.85 L18.8 -435.85 20.95 -437.85 19.55 -437.35 23.2 -443.1 Q21.05 -441.75 18.6 -439.3 L13.35 -433.35 12.25 -433.55 12.4 -434.4 12.8 -435.2 12.25 -435.5 9.35 -431.15 Q8.65 -431.15 8.1 -432.8 6.9 -429.6 6.4 -427.55 L5.75 -427.55 5.45 -428.15 5.4 -429.75 Q5.4 -431.8 9.2 -445.55 L9.75 -445.95 10.5 -440.65 12.35 -441.0 12.25 -441.8 12.25 -442.8 13.55 -443.55 13.7 -442.05 Q14.4 -442.9 14.95 -444.2 16.6 -448.15 17.9 -448.9 L18.8 -451.4 19.35 -451.55 19.55 -449.9 19.9 -449.55 Q21.65 -450.75 22.75 -454.6 L23.6 -458.3 24.2 -456.6 Q24.35 -456.3 25.7 -455.55 L26.85 -457.55 27.4 -457.4 27.8 -458.65 Q29.15 -462.45 30.35 -461.95 30.85 -464.15 31.15 -468.3 31.4 -468.3 31.7 -468.6 L32.3 -469.4 32.8 -468.75 32.85 -467.2 Q32.85 -465.85 31.75 -462.85 L32.65 -465.15 Q33.4 -465.4 33.4 -464.3 L34.2 -465.4 34.85 -467.0 35.25 -468.25 Q35.35 -468.55 36.25 -467.75 L34.45 -462.85 42.6 -478.45 42.8 -478.15 42.8 -476.95 Q42.8 -472.55 39.45 -466.8 L39.15 -466.35 39.2 -465.9 39.35 -466.0 Q41.4 -470.1 43.1 -475.3 47.15 -488.15 49.2 -491.55 L49.35 -489.35 Q49.35 -485.0 46.1 -477.25 M40.3 -471.9 L40.15 -471.7 Q39.2 -470.3 39.2 -469.05 L39.9 -470.35 40.3 -471.9 M27.95 -452.95 L28.05 -452.85 28.4 -453.9 27.95 -452.95 M0.3 -424.9 L-0.25 -424.3 -0.8 -424.3 Q-0.8 -425.9 -1.55 -428.1 -5.8 -425.1 -12.4 -419.3 L-23.35 -409.35 Q-28.4 -404.65 -31.2 -398.8 L-35.15 -388.65 -35.7 -388.65 Q-33.6 -396.85 -31.95 -400.3 -28.9 -406.55 -22.6 -411.4 -21.7 -412.1 -10.3 -423.1 0.7 -432.5 0.7 -426.45 0.7 -425.35 0.3 -424.9 M-202.25 -482.8 L-201.7 -482.8 Q-197.95 -471.2 -196.0 -466.4 -193.6 -460.3 -190.85 -455.3 -192.3 -458.2 -193.0 -460.6 L-193.0 -464.15 -192.25 -464.15 -190.05 -458.6 -189.95 -459.4 -189.65 -459.6 -192.1 -467.55 -191.5 -467.55 Q-187.2 -457.55 -184.25 -451.9 L-182.45 -448.5 Q-180.85 -447.25 -178.95 -444.6 -179.55 -446.6 -181.25 -449.8 L-184.25 -455.55 -184.05 -456.1 Q-181.75 -453.65 -178.1 -446.8 -176.35 -443.55 -174.6 -441.2 L-175.9 -444.85 Q-177.0 -447.8 -178.2 -449.7 L-178.2 -452.95 -177.65 -452.95 Q-177.05 -448.5 -173.65 -442.05 L-173.5 -441.8 Q-174.25 -443.7 -174.25 -445.0 L-174.1 -446.55 -173.15 -446.85 -171.2 -442.1 Q-169.95 -439.55 -167.3 -437.55 -167.05 -437.55 -167.0 -437.95 L-166.95 -439.2 -166.2 -439.75 -162.05 -436.8 Q-160.65 -438.0 -160.5 -438.45 L-159.65 -441.15 -157.7 -438.8 Q-157.6 -440.35 -157.85 -444.75 L-157.9 -451.2 Q-156.55 -448.7 -154.15 -440.0 -152.0 -431.95 -149.5 -428.3 L-150.45 -427.45 -151.7 -426.65 -154.2 -426.8 Q-155.3 -428.5 -156.05 -428.85 -156.7 -426.65 -157.0 -426.4 L-159.0 -425.35 -161.3 -427.9 Q-163.3 -429.55 -163.3 -429.05 L-163.35 -428.1 Q-163.95 -428.1 -165.5 -429.3 L-166.05 -429.0 -167.7 -427.9 -168.15 -427.9 -168.25 -427.75 Q-168.95 -427.8 -169.75 -428.35 L-170.6 -429.0 -170.65 -429.05 -171.35 -429.75 -173.1 -430.9 -171.6 -428.6 Q-169.55 -425.5 -169.55 -424.5 -169.55 -423.35 -169.7 -423.5 L-169.9 -423.85 -171.6 -424.9 -173.5 -425.35 Q-176.5 -425.35 -184.05 -436.6 -191.0 -447.1 -193.55 -453.9 L-194.35 -456.1 Q-196.75 -461.35 -198.65 -467.35 L-198.1 -467.55 -197.8 -466.95 -198.7 -469.8 Q-202.25 -481.3 -202.25 -482.05 L-202.25 -482.8 M-188.15 -454.95 L-188.9 -457.1 -188.95 -457.2 -188.95 -457.0 -188.15 -454.95 M-170.35 -438.3 L-170.85 -439.0 -170.85 -438.8 -169.55 -436.5 -170.35 -438.3 M-179.1 -434.25 L-179.15 -434.3 -179.15 -434.1 -178.95 -433.85 -179.1 -434.25 M-177.15 -431.35 L-177.15 -431.3 -175.1 -429.15 -177.15 -431.35 M-139.55 -425.6 Q-133.75 -422.45 -127.45 -416.9 -122.65 -412.65 -116.8 -406.15 -113.45 -402.5 -111.8 -395.45 -110.35 -387.4 -109.15 -383.7 L-109.85 -383.6 Q-110.7 -385.3 -113.6 -394.55 -115.75 -401.35 -119.85 -406.5 -124.35 -412.15 -129.85 -417.15 -135.75 -422.55 -140.85 -425.5 L-141.05 -425.5 Q-143.05 -425.35 -143.7 -424.8 L-145.0 -424.9 Q-145.5 -425.15 -145.5 -426.35 -145.5 -429.65 -142.65 -428.35 L-139.15 -426.1 -138.95 -425.7 -139.55 -425.6 M-160.4 -429.5 L-160.25 -429.7 -160.8 -429.6 -160.75 -429.5 -160.4 -429.5 M-24.05 -361.7 L-32.8 -355.35 Q-38.05 -351.65 -40.8 -350.05 L-39.3 -351.55 -40.95 -350.8 Q-42.6 -350.25 -45.5 -350.25 L-48.75 -350.45 -48.95 -352.9 -49.45 -355.35 -49.45 -359.2 -48.9 -359.2 -48.3 -355.8 -47.9 -352.45 -45.75 -352.25 -40.4 -352.45 -40.35 -352.45 -40.4 -353.0 -40.4 -353.4 -41.9 -353.0 -46.8 -353.2 -47.3 -354.8 -47.55 -357.0 Q-47.55 -359.15 -45.3 -359.05 L-40.8 -358.3 -40.3 -357.7 -40.25 -357.0 -39.85 -360.15 Q-39.15 -364.8 -38.0 -365.75 -38.75 -360.5 -37.85 -353.2 L-38.2 -352.5 -33.9 -356.05 -25.8 -362.45 Q-24.25 -362.25 -24.05 -361.7 M-35.8 -349.95 Q-35.5 -349.75 -35.5 -348.6 -35.5 -348.1 -36.35 -347.3 L-37.8 -346.25 -37.25 -346.25 Q-36.9 -345.7 -36.9 -345.15 L-37.1 -344.05 -37.3 -343.75 Q-37.75 -343.4 -38.55 -343.3 L-39.2 -343.5 Q-39.5 -343.6 -39.5 -344.7 -39.5 -345.8 -38.8 -346.15 L-40.8 -346.25 -40.95 -347.4 -38.7 -348.45 Q-37.5 -348.9 -38.4 -347.55 -37.55 -347.9 -37.25 -348.55 -37.1 -349.05 -37.1 -350.45 L-36.65 -350.45 -35.8 -349.95 M-39.3 -351.55 Q-39.2 -351.65 -39.05 -351.7 L-39.45 -351.8 -39.3 -351.55 M-65.55 -385.0 Q-64.0 -383.75 -63.35 -382.55 L-62.2 -379.55 -73.85 -379.35 -81.15 -379.55 Q-82.45 -379.75 -83.2 -380.8 L-80.35 -383.9 Q-78.55 -385.6 -77.45 -385.9 L-65.55 -385.0 M-64.95 -363.55 Q-63.65 -362.6 -62.05 -362.05 -63.85 -358.85 -64.45 -358.3 L-69.15 -358.1 -72.0 -358.45 -72.95 -358.65 Q-73.3 -358.75 -73.3 -359.85 -73.3 -361.1 -72.8 -361.8 L-71.65 -362.8 -68.6 -363.2 Q-67.95 -363.5 -67.65 -363.95 L-67.3 -364.45 Q-65.95 -364.35 -64.95 -363.55 M-61.15 -362.05 L-61.1 -360.95 -61.4 -358.45 -61.65 -355.7 -65.8 -355.35 Q-67.3 -355.5 -67.3 -356.05 L-73.5 -356.45 Q-74.05 -357.0 -75.7 -357.35 -75.7 -360.15 -76.45 -361.15 L-76.45 -364.3 -75.9 -364.3 -75.3 -360.7 Q-74.75 -358.1 -73.1 -357.55 L-62.75 -357.9 -62.25 -359.85 -61.45 -362.25 -61.15 -362.05 M-49.85 -359.2 L-53.55 -359.2 -53.95 -359.35 -54.1 -358.85 -54.35 -359.5 -54.55 -359.6 -54.45 -359.65 -54.85 -360.7 -55.3 -362.8 -54.75 -362.8 -53.95 -362.2 -53.15 -361.5 -53.7 -360.15 -52.05 -360.8 Q-49.65 -360.6 -49.45 -360.15 -49.45 -359.6 -49.85 -359.2 M-46.0 -332.9 Q-44.75 -335.85 -43.3 -336.5 L-41.8 -336.3 -41.4 -331.8 -40.95 -328.1 -41.35 -326.1 Q-41.0 -319.85 -40.8 -310.75 L-40.6 -297.25 -40.9 -291.3 -40.65 -288.0 -40.05 -288.75 -35.15 -292.45 -34.95 -292.7 -34.8 -292.2 -33.15 -294.55 -32.4 -299.55 -31.35 -307.2 -32.5 -309.65 -33.15 -310.7 Q-33.55 -310.9 -33.6 -311.25 L-33.6 -311.3 -34.95 -312.35 -35.1 -312.3 -36.0 -311.9 -36.65 -312.25 -37.75 -311.2 Q-38.45 -309.8 -38.95 -309.35 L-39.3 -312.6 Q-40.15 -314.2 -40.35 -317.0 -40.55 -319.2 -40.4 -321.5 L-39.95 -327.6 Q-39.45 -332.6 -38.95 -335.0 L-37.25 -335.0 -37.1 -334.1 -37.25 -328.8 -36.9 -328.05 Q-36.35 -326.85 -36.35 -325.7 -36.35 -324.5 -36.6 -324.0 L-36.65 -323.9 Q-36.65 -322.1 -35.45 -319.6 -34.35 -317.2 -32.9 -316.25 L-32.4 -317.35 Q-31.65 -317.25 -31.25 -316.85 L-31.25 -319.2 -30.7 -319.2 -30.55 -315.7 -30.55 -315.65 -30.55 -312.65 -30.6 -309.3 -30.55 -309.1 -30.55 -307.55 -31.0 -301.5 -32.0 -292.8 -32.6 -292.45 -33.1 -291.85 -33.3 -291.5 -33.5 -292.15 -36.4 -287.95 -40.4 -281.9 -40.4 -281.6 -40.7 -281.3 -40.8 -281.15 -41.1 -281.05 Q-43.15 -279.9 -50.95 -276.65 -62.1 -271.9 -65.8 -271.9 -68.7 -271.9 -74.75 -273.7 L-84.4 -276.45 Q-86.6 -278.65 -86.6 -279.05 L-86.55 -279.6 Q-88.75 -281.05 -90.95 -283.75 -92.5 -285.8 -96.55 -289.25 L-101.05 -293.4 -100.0 -293.35 -99.5 -293.65 -99.15 -293.9 -99.2 -294.2 -99.15 -294.45 -99.35 -296.1 -99.55 -296.3 -99.75 -297.3 Q-98.55 -298.3 -98.15 -299.35 -97.85 -300.1 -97.85 -302.7 -97.85 -305.95 -98.6 -306.9 L-101.9 -310.55 -103.25 -313.0 -102.75 -312.75 -103.45 -313.4 -104.15 -314.5 -104.7 -315.35 -100.5 -311.2 -100.35 -311.15 -99.2 -309.7 -95.85 -306.35 Q-91.1 -301.2 -86.2 -295.25 L-77.15 -283.8 -74.15 -280.75 -73.35 -279.9 -73.3 -279.95 -74.75 -282.2 Q-76.55 -283.95 -79.85 -288.15 -85.05 -294.55 -87.35 -298.05 -89.1 -300.75 -94.7 -306.7 -100.15 -312.45 -102.0 -315.5 L-101.15 -315.85 Q-100.75 -316.0 -100.75 -316.05 L-96.95 -315.7 Q-93.1 -311.7 -85.8 -299.1 -83.3 -294.85 -80.6 -291.25 L-80.8 -292.45 Q-80.4 -292.45 -80.05 -292.05 L-79.0 -292.15 -76.95 -293.0 Q-74.35 -293.7 -73.1 -294.1 -69.9 -295.1 -62.95 -297.7 L-50.95 -302.1 -44.75 -304.1 -46.3 -315.65 Q-47.15 -322.6 -47.15 -328.45 -47.15 -330.2 -46.0 -332.9 M-64.45 -323.35 L-61.85 -323.2 Q-59.65 -321.9 -59.05 -319.45 -58.15 -315.85 -57.85 -315.35 -58.3 -314.9 -60.8 -313.0 L-62.45 -311.55 -56.2 -314.05 Q-56.45 -313.6 -59.2 -312.0 L-62.95 -309.9 -64.05 -310.05 -63.35 -311.1 Q-65.1 -312.4 -66.95 -315.65 L-69.5 -320.4 -67.3 -322.1 Q-65.95 -323.1 -64.45 -323.35 M-77.65 -312.2 Q-77.65 -311.3 -78.1 -310.25 L-78.55 -308.6 Q-78.55 -307.45 -78.95 -306.95 L-80.05 -305.9 -83.65 -302.75 Q-83.15 -304.25 -82.05 -305.55 -82.05 -306.6 -84.4 -306.85 -86.6 -309.6 -86.6 -310.15 L-86.25 -310.6 Q-86.25 -311.55 -86.95 -312.0 -87.7 -312.45 -87.7 -313.4 -87.7 -314.5 -86.1 -315.85 -84.3 -317.4 -81.9 -317.55 L-80.05 -317.35 Q-78.3 -315.6 -77.8 -314.25 -77.65 -313.7 -77.65 -312.2 M-41.9 -317.3 L-41.95 -323.9 Q-42.5 -322.0 -42.35 -320.95 L-41.9 -317.3 M-32.95 -326.15 L-30.0 -325.05 Q-30.9 -322.25 -31.65 -321.15 -33.75 -321.15 -34.9 -322.7 -35.8 -323.9 -35.8 -325.2 -35.8 -327.05 -35.6 -327.15 -35.2 -327.15 -32.95 -326.15 M-25.15 -323.0 L-22.6 -320.8 -22.45 -320.0 Q-22.45 -319.65 -23.6 -319.65 -25.85 -319.65 -27.65 -321.5 -29.15 -323.0 -29.15 -323.75 -29.15 -324.85 -28.95 -325.1 L-28.8 -325.2 Q-27.1 -324.65 -25.15 -323.0 M-37.25 -321.05 L-37.4 -321.8 -37.45 -321.15 -37.25 -321.05 M-37.6 -312.8 L-37.5 -312.85 -37.6 -312.95 -37.6 -312.8 M-102.95 -360.4 L-100.65 -360.15 Q-100.25 -359.75 -98.4 -359.4 L-98.4 -355.55 Q-98.35 -354.15 -97.6 -353.6 L-97.7 -354.6 -97.25 -356.8 -96.75 -359.2 -96.2 -359.2 Q-95.95 -358.45 -94.8 -358.45 L-94.95 -357.45 -94.25 -357.9 -90.2 -357.35 -86.6 -357.9 -86.6 -360.2 -88.25 -358.65 -94.65 -358.45 -95.1 -359.85 -94.05 -361.55 -91.3 -363.35 -90.1 -363.1 -86.6 -361.9 -86.6 -364.3 -86.05 -364.3 -85.85 -363.75 -85.85 -357.35 -87.5 -356.95 -89.1 -356.45 -95.15 -356.55 -95.45 -354.8 -96.0 -350.8 -96.4 -350.45 -99.15 -349.9 -100.8 -349.7 -106.25 -350.05 Q-108.8 -353.5 -112.85 -356.25 L-119.3 -360.4 -119.3 -360.6 Q-111.15 -356.85 -106.55 -352.55 L-106.55 -352.75 -106.25 -365.0 -105.7 -365.0 -105.2 -354.15 -104.85 -355.75 -105.15 -356.8 Q-105.15 -357.75 -104.45 -358.9 -103.8 -360.0 -102.95 -360.4 M-107.3 -348.1 L-105.95 -347.95 Q-105.35 -347.75 -105.35 -346.55 -105.35 -345.45 -105.8 -344.8 L-106.45 -344.05 -108.6 -343.85 -108.75 -344.35 Q-108.95 -344.7 -108.95 -345.8 -108.95 -347.0 -108.4 -347.5 L-107.3 -348.1 M-105.25 -351.25 L-104.8 -350.8 -101.9 -351.15 -100.1 -351.55 -96.95 -351.3 -97.15 -352.1 -97.6 -352.05 -100.1 -351.7 -101.15 -352.1 -101.45 -351.9 -105.15 -352.05 -105.25 -351.25 M-105.7 -342.5 Q-105.45 -339.0 -105.7 -334.8 L-106.25 -334.8 -106.25 -339.35 -106.9 -339.15 Q-106.9 -340.5 -106.25 -340.85 L-106.25 -342.5 -105.7 -342.5 M-103.85 -329.55 L-104.55 -328.75 -105.15 -328.1 Q-105.9 -328.6 -106.85 -330.4 -108.05 -332.55 -107.65 -333.7 L-106.45 -333.9 -104.8 -333.35 -104.35 -331.45 -103.85 -329.55 M-109.85 -325.4 Q-109.85 -325.7 -108.4 -326.25 -108.4 -326.95 -109.15 -327.7 L-108.95 -327.9 -108.75 -328.1 -107.1 -327.9 -106.9 -325.7 -107.6 -325.5 -108.0 -325.2 -109.85 -325.4 M-114.2 -297.7 Q-114.95 -298.8 -114.95 -299.7 L-114.75 -299.45 Q-114.6 -299.15 -113.45 -299.15 -111.85 -299.15 -111.1 -300.4 L-110.25 -302.2 -108.4 -302.1 -107.85 -301.0 Q-108.0 -299.35 -108.4 -298.8 L-112.35 -297.5 -114.2 -297.7 M-101.75 -308.1 L-101.45 -307.95 Q-98.4 -306.9 -98.4 -303.35 -98.4 -300.7 -99.8 -298.45 L-100.35 -298.45 Q-99.8 -300.1 -99.8 -300.65 L-100.0 -301.0 Q-102.2 -299.0 -102.95 -298.45 L-104.75 -300.4 -105.6 -301.85 Q-105.6 -302.9 -103.8 -304.1 -102.0 -305.35 -102.0 -307.0 -102.0 -308.15 -101.75 -308.1 M-85.05 -278.6 L-85.25 -278.75 -85.5 -278.85 -85.25 -278.6 -85.05 -278.6 M-86.25 -279.35 L-86.25 -279.3 -86.2 -279.3 -86.25 -279.35 M-42.2 -292.95 Q-56.5 -289.2 -63.45 -285.5 -67.6 -283.35 -71.75 -279.75 L-71.1 -279.05 Q-68.85 -276.5 -66.5 -274.95 L-56.4 -278.4 Q-46.8 -281.6 -42.7 -283.15 L-42.35 -285.2 -42.35 -285.5 -42.2 -292.95 M-41.35 -282.25 L-41.2 -282.3 -41.35 -282.35 -41.35 -282.25 M-41.0 -282.35 L-40.9 -282.4 -40.9 -282.5 -41.0 -282.35 M-43.2 -281.5 L-43.1 -281.7 -43.9 -281.15 -43.2 -281.5 M-72.2 -281.05 L-72.75 -280.95 -72.55 -280.75 -72.2 -281.05" fill="#ffffff" fill-rule="evenodd" stroke="none"/>
  </g>
</svg>
