<?xml version="1.0" encoding="UTF-8" standalone="no"?>
<svg xmlns:ffdec="https://www.free-decompiler.com/flash" xmlns:xlink="http://www.w3.org/1999/xlink" ffdec:objectType="shape" height="281.95px" width="275.85px" xmlns="http://www.w3.org/2000/svg">
  <g transform="matrix(1.0, 0.0, 0.0, 1.0, 96.95, 539.6)">
    <path d="M139.6 -511.5 L139.75 -511.45 Q139.8 -509.05 139.25 -506.55 L138.35 -504.3 Q137.95 -502.35 139.45 -501.95 140.7 -501.6 142.4 -504.35 L143.95 -507.3 143.85 -508.15 Q143.7 -508.65 143.8 -509.05 144.35 -511.15 149.55 -513.8 153.65 -516.0 156.7 -516.8 L157.85 -516.35 157.8 -515.7 161.05 -516.75 Q163.3 -517.5 164.75 -518.4 165.8 -519.05 166.5 -520.3 L167.6 -522.85 167.85 -522.8 169.1 -523.95 169.8 -523.75 169.5 -523.25 168.4 -521.0 Q168.15 -520.1 168.55 -517.8 L169.05 -515.85 169.6 -516.4 Q170.05 -517.65 170.95 -517.7 L170.75 -517.15 170.7 -516.7 170.5 -516.3 Q170.25 -515.1 170.4 -513.85 L170.4 -513.8 170.5 -513.8 171.2 -514.0 Q171.4 -512.1 171.05 -510.75 169.85 -506.2 163.7 -503.9 158.5 -501.95 157.1 -499.4 L156.9 -498.7 Q156.7 -497.85 154.3 -496.85 151.1 -495.5 150.95 -495.35 146.1 -496.15 141.6 -493.6 137.5 -491.25 136.65 -488.2 136.45 -487.4 136.7 -486.5 136.9 -485.65 136.6 -484.65 136.2 -483.0 132.55 -479.8 129.65 -477.35 129.45 -475.2 L129.45 -475.15 129.4 -474.8 129.4 -474.6 129.35 -474.55 129.2 -473.8 Q128.35 -470.75 124.7 -469.45 121.45 -468.2 120.2 -467.55 L119.75 -466.9 119.4 -466.95 Q119.6 -468.15 120.45 -470.15 120.9 -471.85 120.6 -473.45 120.25 -475.05 120.6 -476.4 L121.4 -478.65 Q121.7 -479.2 124.1 -481.4 L124.05 -480.5 123.95 -480.4 124.3 -480.25 Q125.85 -479.85 127.15 -481.4 128.05 -482.55 128.4 -483.9 129.0 -486.2 128.55 -488.85 L127.95 -491.25 Q127.55 -492.9 126.85 -493.9 L125.1 -494.1 124.6 -493.65 Q124.3 -494.6 124.6 -495.75 125.35 -498.55 127.85 -502.0 130.85 -506.0 133.45 -506.7 135.4 -505.75 137.5 -508.15 139.25 -510.0 139.6 -511.5 M176.8 -539.6 Q179.0 -537.2 178.9 -535.65 178.4 -533.05 178.85 -532.05 L178.25 -529.75 178.1 -529.65 178.1 -530.95 Q178.0 -532.15 177.4 -532.7 174.85 -533.8 172.1 -531.15 169.45 -528.75 169.8 -527.0 L169.4 -527.1 170.15 -530.05 Q170.35 -530.95 170.7 -531.65 L170.8 -531.95 Q171.0 -532.75 171.85 -533.55 L172.3 -534.05 172.55 -534.15 Q175.15 -536.75 176.8 -539.6 M1.3 -285.35 L2.2 -285.8 Q1.5 -284.65 0.25 -284.55 -1.15 -284.45 -3.2 -283.45 -5.2 -282.5 -6.05 -281.6 -7.7 -279.85 -9.05 -276.45 L-9.0 -274.15 Q-8.75 -271.2 -9.0 -270.2 L-10.25 -268.1 -10.3 -268.0 -10.35 -267.95 -11.35 -266.65 -12.8 -264.75 -12.95 -263.95 -13.4 -262.55 -13.95 -260.25 -14.4 -258.95 -14.8 -257.95 -15.2 -257.65 -15.8 -257.8 -16.65 -258.7 -16.65 -258.9 Q-17.35 -259.2 -17.5 -260.35 L-17.9 -262.25 -18.65 -263.65 Q-19.15 -264.4 -19.85 -264.55 -21.9 -265.8 -22.6 -267.9 L-22.75 -268.45 -22.55 -269.4 Q-22.45 -270.1 -22.5 -270.75 L-22.3 -271.0 -22.5 -271.1 -22.55 -271.55 -22.55 -271.6 Q-22.7 -272.45 -23.1 -273.1 L-23.2 -273.15 -23.35 -273.6 Q-23.75 -273.95 -24.3 -274.1 L-24.8 -274.35 -25.1 -274.55 -25.5 -275.0 -25.85 -277.95 -25.75 -278.2 -25.75 -279.5 -25.7 -280.4 -25.7 -280.5 -25.8 -280.55 -25.8 -280.6 -25.75 -280.65 -25.95 -281.7 -25.55 -281.1 -25.45 -281.15 -25.3 -280.95 -24.95 -280.35 -24.75 -280.3 -23.9 -279.05 Q-21.9 -278.5 -20.75 -282.95 L-20.45 -284.3 -21.05 -285.9 -21.3 -285.75 -21.45 -285.5 -21.85 -285.7 Q-21.5 -287.0 -21.3 -289.75 L-20.2 -291.95 -18.45 -293.95 -17.15 -294.75 -15.6 -295.05 -15.0 -294.95 -15.2 -295.15 -15.05 -295.1 -14.95 -295.05 -14.5 -294.8 -14.3 -294.75 -14.0 -294.45 -13.6 -293.8 -13.35 -293.65 -13.4 -293.45 Q-13.3 -293.3 -13.7 -293.35 L-13.75 -293.35 -13.9 -293.4 -14.05 -293.45 -14.3 -293.0 -14.2 -292.85 -11.65 -292.75 -11.7 -292.8 Q-8.55 -295.05 -8.2 -296.9 -7.95 -298.25 -6.55 -299.15 -5.05 -300.15 -3.1 -299.95 L-2.9 -298.35 -3.0 -298.45 -3.45 -298.75 Q-4.1 -298.9 -4.6 -297.85 L-4.95 -296.6 Q-5.4 -294.85 -5.15 -293.65 -4.75 -292.25 -3.4 -292.2 L-3.35 -292.25 -3.1 -292.6 -3.0 -292.6 -2.85 -292.35 -2.8 -292.4 Q-1.4 -292.2 -0.4 -290.2 0.4 -288.5 0.2 -287.8 L-0.85 -286.8 -1.5 -286.15 -1.25 -285.2 1.3 -285.35 M-60.1 -322.35 Q-60.8 -322.4 -61.4 -322.05 L-61.75 -321.65 -62.05 -321.55 Q-62.45 -321.5 -63.75 -322.25 -63.75 -322.85 -64.8 -323.65 L-65.05 -324.0 Q-64.05 -323.45 -63.5 -323.4 L-62.95 -323.35 -62.0 -323.3 -61.9 -323.3 Q-59.45 -323.05 -59.1 -322.65 L-58.65 -322.65 -58.45 -323.0 -58.2 -323.35 -57.8 -323.4 -54.95 -322.15 Q-53.4 -321.35 -53.0 -320.55 L-53.15 -320.5 -53.2 -320.4 -53.2 -320.05 -52.75 -319.4 -52.55 -318.85 -52.55 -318.2 -52.85 -318.15 -53.45 -318.5 -54.0 -318.8 -54.4 -319.05 -54.7 -319.25 -54.9 -319.5 -54.75 -319.7 -54.75 -319.85 Q-54.8 -320.55 -55.9 -321.45 -57.2 -322.45 -58.55 -322.25 L-58.95 -322.35 -59.15 -322.25 -59.4 -322.0 -59.45 -322.0 Q-59.5 -322.25 -60.1 -322.35 M-90.95 -292.1 Q-90.0 -292.2 -89.3 -291.4 L-88.6 -290.3 -88.55 -289.35 Q-90.4 -289.95 -90.9 -290.5 L-91.1 -291.7 -91.05 -292.05 -90.95 -292.1 M-60.95 -311.35 L-61.25 -310.8 -61.4 -311.4 Q-61.5 -313.1 -61.05 -313.1 L-60.4 -313.55 Q-59.95 -314.0 -59.25 -314.15 L-58.9 -313.75 -58.85 -313.7 -58.6 -313.4 -58.35 -313.2 -58.0 -312.9 Q-58.0 -312.65 -58.15 -312.7 L-57.45 -311.85 -55.75 -311.2 Q-54.6 -310.8 -54.45 -310.2 L-53.8 -310.2 -53.7 -310.6 -53.6 -310.8 -53.7 -311.25 -53.7 -311.5 -53.65 -311.55 Q-53.05 -311.7 -52.5 -310.9 L-51.75 -309.85 Q-52.6 -310.05 -52.45 -308.75 -52.35 -307.3 -53.2 -307.15 L-53.5 -307.6 -54.3 -306.85 -54.5 -306.25 Q-54.5 -305.9 -54.0 -305.45 L-53.25 -304.75 Q-51.6 -304.6 -50.85 -303.55 -50.35 -302.85 -50.3 -302.05 -50.25 -301.4 -50.45 -301.2 L-51.35 -301.05 -52.15 -299.8 -52.75 -298.7 -53.75 -298.3 Q-54.35 -298.05 -54.55 -297.8 L-56.2 -297.3 -56.85 -296.5 -57.55 -295.7 -58.35 -295.45 -59.55 -295.4 -60.05 -295.0 Q-60.4 -294.75 -61.1 -294.65 L-62.35 -295.25 -62.55 -295.8 Q-62.8 -296.2 -63.3 -296.15 L-64.4 -295.2 Q-64.6 -294.6 -64.9 -294.4 L-65.9 -294.3 -67.55 -294.05 -68.9 -294.45 -70.25 -294.9 -70.5 -294.35 -71.0 -294.1 -72.4 -293.9 -72.85 -294.2 -73.35 -294.3 -73.8 -293.65 -74.0 -292.5 Q-74.4 -291.7 -76.05 -291.3 -76.8 -291.15 -77.5 -290.2 L-78.5 -288.7 Q-80.0 -288.4 -80.65 -287.65 L-81.0 -287.25 -80.95 -287.25 Q-81.3 -286.65 -82.5 -285.95 L-84.0 -284.8 Q-84.55 -283.85 -85.05 -283.4 L-86.2 -282.3 -88.9 -282.15 Q-89.5 -281.25 -90.55 -280.85 L-92.35 -280.4 -94.2 -280.05 -96.2 -279.8 -96.5 -280.05 -96.7 -280.35 -96.95 -280.45 -96.75 -280.85 Q-95.25 -281.0 -93.75 -283.05 -92.4 -284.85 -92.45 -285.6 L-92.1 -286.5 -91.0 -287.3 -90.25 -287.35 -88.9 -287.25 -88.1 -287.05 Q-87.6 -287.1 -87.45 -287.45 L-87.1 -288.15 -87.0 -288.05 -86.75 -287.6 -86.4 -287.8 -86.0 -288.3 -85.1 -288.7 Q-84.7 -288.85 -84.7 -289.25 L-84.85 -289.9 -84.65 -290.8 -84.15 -291.75 -83.7 -292.4 Q-83.3 -292.15 -83.0 -292.2 -82.8 -292.55 -82.85 -293.25 L-83.1 -294.55 Q-83.5 -295.85 -84.15 -295.85 L-84.3 -295.55 -84.4 -295.65 -84.4 -295.9 -84.0 -296.35 Q-82.6 -296.2 -81.7 -295.65 -80.85 -295.15 -80.8 -294.5 L-81.0 -294.15 -81.15 -293.85 -81.05 -293.45 -80.75 -293.4 Q-80.5 -293.6 -80.0 -294.55 L-79.75 -295.3 -79.75 -295.5 -79.7 -297.55 -78.1 -300.0 -76.95 -300.9 Q-76.4 -301.05 -76.2 -301.75 -75.7 -303.1 -75.75 -304.15 -76.0 -309.05 -78.65 -311.45 L-79.45 -311.45 -79.7 -311.35 -79.85 -310.55 -80.0 -310.85 -80.15 -311.25 -80.15 -311.35 Q-79.5 -311.65 -79.15 -312.85 L-78.95 -314.35 -79.0 -315.0 -78.35 -315.7 -78.0 -316.1 -77.8 -316.75 -77.85 -317.2 -77.75 -317.55 -76.55 -317.35 -75.55 -317.05 Q-74.6 -317.1 -72.9 -315.05 -71.3 -313.15 -71.3 -312.5 L-71.4 -310.95 Q-72.7 -311.6 -73.4 -309.3 L-73.9 -308.1 -74.15 -306.85 -73.4 -304.45 -72.5 -302.25 Q-72.0 -301.7 -71.2 -301.55 -70.4 -301.45 -70.05 -300.95 L-69.75 -300.15 -69.7 -300.15 -68.55 -299.05 Q-67.45 -299.15 -66.7 -300.6 -66.15 -301.75 -66.2 -302.55 L-66.45 -303.5 -67.0 -303.45 -66.95 -303.35 -67.3 -303.05 -67.35 -303.15 Q-66.45 -305.4 -65.15 -306.25 L-62.85 -306.05 Q-62.15 -305.85 -62.15 -305.45 L-62.15 -304.8 -62.05 -304.6 Q-61.45 -306.45 -60.2 -306.5 L-60.0 -306.3 -59.1 -307.0 Q-58.8 -307.25 -58.85 -307.7 L-58.85 -308.45 -59.05 -309.75 -60.35 -311.4 -60.95 -311.35" fill="#ffffff" fill-rule="evenodd" stroke="none"/>
  </g>
</svg>
