<?xml version="1.0" encoding="UTF-8" standalone="no"?>
<svg xmlns:ffdec="https://www.free-decompiler.com/flash" xmlns:xlink="http://www.w3.org/1999/xlink" ffdec:objectType="shape" height="272.0px" width="267.9px" xmlns="http://www.w3.org/2000/svg">
  <g transform="matrix(1.0, 0.0, 0.0, 1.0, 95.9, 531.5)">
    <path d="M151.35 -521.8 L151.9 -521.6 Q149.35 -520.5 147.55 -518.95 145.6 -517.2 145.2 -515.45 L145.65 -515.4 145.95 -515.3 145.95 -514.8 144.45 -513.35 143.0 -512.15 Q141.55 -511.85 140.3 -511.15 139.05 -510.35 138.6 -510.1 L138.1 -511.05 137.65 -510.5 137.25 -510.8 137.65 -512.3 139.35 -515.7 140.7 -517.15 142.05 -518.5 142.0 -519.1 141.7 -519.45 Q142.75 -519.9 144.25 -520.85 145.5 -521.6 147.05 -521.7 148.3 -521.3 148.15 -520.9 L149.25 -520.75 Q149.6 -520.85 151.35 -521.8 M161.65 -522.7 L162.85 -522.1 163.65 -521.65 Q165.65 -521.1 167.5 -522.4 L169.3 -523.9 169.0 -523.05 168.6 -522.1 Q168.25 -520.9 169.3 -520.65 170.6 -520.3 170.7 -519.0 L170.55 -517.75 170.1 -516.45 168.8 -514.75 168.15 -512.35 169.05 -512.2 169.25 -512.35 169.3 -512.2 169.5 -512.25 169.55 -512.0 169.05 -511.5 168.65 -511.05 168.2 -510.2 Q168.0 -509.55 168.2 -508.45 L168.2 -506.85 Q167.3 -503.5 163.25 -502.35 L157.8 -501.45 Q155.95 -501.0 152.3 -499.25 148.0 -497.25 147.7 -496.25 147.65 -495.95 147.85 -495.6 L148.0 -495.0 Q147.7 -493.8 146.05 -492.45 144.05 -490.95 142.5 -491.7 139.6 -491.3 137.35 -489.6 L136.6 -488.95 136.6 -488.9 135.65 -486.4 Q136.05 -485.4 136.05 -484.65 L135.6 -482.8 135.25 -481.5 134.05 -480.05 133.1 -479.95 132.05 -479.85 Q130.7 -479.25 129.3 -477.75 L127.0 -475.3 126.85 -475.25 Q126.9 -475.15 127.1 -475.15 127.4 -475.15 127.3 -474.75 127.1 -474.05 124.55 -471.3 L123.9 -470.6 123.85 -470.65 121.85 -468.5 121.45 -468.7 122.4 -470.15 123.25 -471.4 123.45 -471.65 124.15 -473.05 124.0 -473.55 124.0 -474.3 124.15 -474.8 124.15 -474.95 124.55 -476.2 Q126.2 -480.05 126.15 -480.75 126.25 -483.65 125.6 -485.6 125.1 -486.95 125.65 -489.0 126.35 -491.6 127.55 -493.15 129.0 -494.95 132.25 -496.7 L132.55 -496.6 132.85 -497.1 Q132.95 -496.55 133.8 -496.15 L134.7 -496.05 135.0 -496.2 134.95 -496.1 Q136.7 -496.85 138.05 -497.75 L139.0 -499.0 Q139.9 -500.25 140.15 -501.15 140.35 -501.9 140.1 -502.5 139.8 -503.2 139.95 -503.85 140.45 -505.7 142.35 -507.75 143.95 -509.35 145.7 -510.4 L145.75 -510.45 146.6 -510.85 Q146.95 -510.9 146.75 -510.6 L146.45 -509.9 146.45 -509.8 146.45 -509.65 146.95 -509.35 147.7 -509.3 148.45 -509.4 149.8 -510.4 149.85 -510.55 Q150.35 -512.35 152.9 -514.45 155.45 -516.65 157.6 -516.75 L158.5 -516.35 160.1 -517.95 161.25 -519.7 161.45 -521.45 160.15 -521.55 159.85 -521.45 Q159.6 -521.45 159.75 -521.9 L159.85 -522.05 160.1 -522.2 161.65 -522.7 M145.9 -510.2 L145.9 -510.1 145.95 -510.15 145.9 -510.2 M146.1 -509.6 L146.2 -509.95 146.1 -509.65 146.1 -509.6 M123.7 -470.9 L123.55 -471.1 123.5 -470.9 123.7 -470.9 M171.55 -531.25 Q172.05 -530.85 172.0 -530.25 L171.75 -529.4 170.8 -527.0 Q170.25 -527.15 170.3 -527.25 L169.5 -527.5 Q167.95 -526.6 166.8 -524.8 166.55 -525.15 166.8 -526.3 167.05 -527.15 166.35 -527.4 L168.55 -529.75 170.7 -531.5 171.55 -531.25 M0.1 -302.85 L-1.45 -301.3 Q-2.0 -300.5 -2.9 -299.9 -4.05 -299.1 -5.15 -299.25 -5.25 -299.15 -5.35 -299.15 L-5.45 -299.55 -3.85 -300.6 Q-2.25 -301.75 -1.85 -303.3 L-1.9 -304.35 -1.9 -305.4 Q-1.7 -306.3 -0.15 -306.9 L2.05 -307.6 Q1.35 -306.65 1.2 -306.0 L1.2 -305.05 1.2 -304.15 Q1.1 -303.65 0.1 -302.85 M-64.15 -319.4 L-61.75 -317.45 -59.4 -315.5 -59.9 -315.4 Q-61.6 -315.7 -62.7 -317.1 -64.0 -318.9 -64.6 -319.2 L-64.15 -319.4 M-80.3 -326.4 Q-80.35 -326.85 -80.2 -326.65 L-80.1 -326.7 -79.8 -326.5 -79.35 -327.35 -79.25 -327.35 -77.8 -325.3 Q-76.9 -324.25 -75.45 -323.7 L-75.25 -323.15 -75.0 -322.55 -73.75 -321.5 -74.05 -321.4 -74.65 -321.6 -76.6 -322.95 -78.55 -324.15 -79.1 -324.15 -79.1 -323.95 -79.4 -323.75 -79.75 -323.85 -80.3 -326.4 M-61.5 -316.5 L-61.5 -316.55 -61.6 -316.5 -61.5 -316.5 M-71.95 -306.05 L-71.9 -306.15 -72.05 -306.05 -71.95 -306.05 M-76.6 -310.65 L-76.25 -311.1 -75.6 -311.0 Q-75.35 -310.9 -74.9 -309.6 L-75.2 -310.05 -75.5 -309.9 -75.8 -309.85 -75.35 -309.3 -74.7 -308.75 -74.55 -308.65 -74.1 -308.65 -74.5 -309.0 -74.05 -308.8 -73.9 -308.85 -73.9 -308.75 -72.05 -308.55 -71.7 -308.9 -72.45 -309.9 -72.0 -310.0 -71.95 -310.0 -71.55 -310.05 -71.0 -309.25 -71.0 -309.2 -70.9 -309.15 -70.5 -308.1 Q-70.5 -307.4 -70.95 -306.9 L-71.55 -306.35 -71.95 -306.0 -72.55 -305.45 -73.3 -305.35 -74.2 -304.15 Q-74.5 -303.5 -74.4 -303.05 L-74.6 -303.1 -74.65 -304.25 Q-74.7 -304.8 -73.9 -305.4 L-73.5 -305.6 -74.4 -305.65 -74.8 -305.1 Q-74.9 -305.8 -76.25 -306.9 L-76.75 -305.95 Q-77.3 -304.95 -77.25 -304.2 L-77.05 -303.05 -76.6 -302.6 -76.2 -302.2 Q-76.2 -302.0 -76.35 -301.9 L-76.55 -301.6 -76.15 -300.75 Q-75.65 -300.15 -74.8 -300.2 -74.25 -300.2 -74.0 -301.05 L-73.9 -302.25 -73.6 -300.85 Q-73.25 -299.6 -72.75 -299.65 L-71.45 -298.9 Q-70.25 -298.15 -68.05 -298.25 -67.55 -298.25 -67.0 -298.9 L-66.5 -299.55 -66.6 -299.5 -66.9 -299.8 Q-66.2 -300.15 -65.15 -301.35 L-63.4 -303.35 -62.7 -303.4 -62.1 -303.55 -61.45 -303.5 Q-61.0 -303.7 -60.6 -305.15 -60.25 -306.5 -60.3 -307.2 L-60.35 -307.7 -60.55 -308.0 -60.9 -308.05 Q-60.45 -308.4 -60.1 -308.4 L-59.75 -307.75 Q-59.55 -307.2 -58.8 -307.25 -57.9 -307.3 -57.9 -309.8 L-57.95 -310.6 -58.8 -311.5 -58.5 -312.3 -57.85 -313.1 -57.0 -313.15 -56.6 -312.8 -56.2 -313.0 -56.35 -313.35 -54.25 -313.3 -53.15 -312.65 -52.25 -311.9 -52.6 -311.75 -52.45 -311.6 Q-51.35 -311.0 -51.1 -310.5 -50.9 -310.2 -50.85 -309.45 L-50.85 -308.8 Q-51.45 -309.05 -51.85 -308.0 L-52.2 -306.4 -51.9 -305.35 -51.5 -304.35 -50.85 -304.3 -50.4 -303.45 Q-49.9 -302.75 -49.2 -302.8 L-48.8 -302.95 -48.15 -303.1 -48.15 -303.05 -48.0 -303.1 -48.25 -302.75 -48.25 -302.7 -49.25 -302.2 -49.7 -301.65 -50.1 -301.6 -50.45 -301.7 -50.1 -301.25 -49.9 -300.85 Q-49.85 -300.65 -49.95 -300.4 L-50.0 -300.05 -51.25 -299.4 -52.0 -298.7 -52.8 -298.55 -55.05 -298.6 -56.05 -298.3 -56.2 -298.25 Q-56.5 -297.25 -56.75 -297.0 L-58.0 -296.55 Q-58.5 -296.2 -59.0 -296.2 L-59.95 -296.05 -60.8 -296.0 -60.9 -296.0 -61.1 -296.2 -63.55 -296.3 -63.75 -296.2 -65.3 -295.75 -65.65 -295.6 -66.1 -295.75 -68.2 -296.05 -68.25 -296.05 Q-68.4 -295.75 -68.65 -295.85 L-68.7 -295.95 -69.4 -295.2 Q-69.8 -293.95 -71.45 -293.85 L-74.35 -294.05 Q-75.1 -294.0 -75.5 -293.55 -75.95 -292.95 -76.45 -292.85 -76.5 -291.35 -76.8 -290.55 -77.45 -289.2 -80.15 -288.7 L-80.25 -288.9 -80.6 -289.05 -81.35 -288.55 Q-81.8 -287.95 -82.15 -287.85 L-82.2 -287.8 -82.25 -287.85 Q-84.7 -288.2 -85.45 -286.2 L-86.2 -286.05 -86.65 -285.2 -87.05 -284.7 -88.55 -283.9 -89.3 -282.95 -90.05 -281.75 Q-90.65 -281.15 -91.6 -281.1 L-92.25 -281.15 -93.1 -281.25 -93.75 -280.8 Q-94.2 -280.45 -94.55 -280.45 L-95.2 -280.6 -95.6 -280.75 -95.75 -280.75 -95.9 -280.9 -95.75 -281.05 -95.5 -281.05 Q-94.7 -281.45 -94.05 -282.2 -93.3 -283.05 -93.3 -283.75 L-93.55 -283.9 Q-93.7 -283.85 -93.75 -284.0 -93.75 -284.65 -92.55 -285.35 -91.35 -286.1 -91.35 -286.75 L-91.2 -286.75 -91.25 -285.55 Q-91.15 -284.85 -90.5 -284.6 L-89.75 -284.65 -89.0 -285.25 -88.95 -286.05 -89.15 -286.85 -88.7 -288.15 -88.0 -289.3 Q-87.15 -290.3 -86.3 -290.35 L-86.0 -290.25 -85.45 -290.45 Q-85.3 -290.65 -85.3 -291.35 L-85.45 -291.75 -85.7 -292.15 -85.85 -292.15 -85.9 -292.2 -85.85 -292.3 -85.9 -292.35 -85.75 -292.4 -85.5 -292.65 Q-85.4 -292.85 -85.15 -292.9 L-84.4 -292.95 -82.85 -292.05 -82.6 -291.6 -82.5 -291.45 -82.5 -291.6 -80.7 -292.85 Q-79.9 -293.35 -79.9 -293.95 L-80.15 -294.8 Q-80.2 -295.25 -79.6 -296.0 -79.35 -296.35 -79.2 -297.0 L-79.05 -297.95 -78.95 -298.0 -78.85 -297.5 Q-78.6 -297.15 -77.95 -297.15 L-77.75 -297.2 -77.7 -298.15 -77.85 -299.15 -78.65 -300.5 -78.95 -300.3 -79.0 -300.4 -79.15 -302.15 -79.1 -303.1 -79.1 -303.2 -77.9 -306.55 -77.9 -309.2 -78.2 -310.7 Q-77.8 -310.55 -77.65 -309.35 L-76.6 -310.65 M-4.05 -299.95 L-4.05 -299.85 -4.0 -299.8 -4.05 -299.95 M-6.45 -285.2 L-6.55 -283.3 -6.8 -281.3 -8.75 -281.15 Q-10.4 -280.2 -11.5 -278.9 L-12.95 -276.6 -14.3 -273.7 -14.65 -271.9 -14.6 -270.85 -14.7 -270.45 Q-14.8 -269.2 -14.0 -268.6 -13.1 -267.95 -13.65 -263.95 -13.85 -263.0 -14.65 -261.7 L-15.7 -260.15 -15.65 -260.1 -15.95 -259.55 -16.15 -259.5 -16.2 -259.75 -16.35 -259.75 -16.45 -259.9 -16.4 -260.1 -16.9 -261.1 -17.8 -261.1 -18.2 -261.0 Q-19.45 -261.55 -19.8 -262.75 L-20.15 -264.4 -20.2 -264.5 -20.35 -265.6 -20.3 -268.65 Q-21.0 -271.55 -22.55 -273.15 L-24.6 -273.85 Q-25.4 -274.05 -25.85 -275.95 L-26.15 -277.9 -25.5 -279.1 Q-25.6 -279.75 -25.3 -280.95 L-24.9 -282.15 -22.95 -283.55 -20.95 -282.95 Q-19.95 -282.7 -18.4 -284.65 L-16.95 -286.6 Q-16.75 -287.2 -16.5 -289.2 L-16.8 -290.55 -17.35 -291.85 -17.8 -292.25 Q-18.7 -292.05 -19.1 -292.6 -19.35 -293.0 -19.25 -293.4 -18.85 -294.9 -17.2 -295.7 L-13.55 -296.85 -12.5 -296.4 -12.25 -296.35 -12.1 -296.45 -11.6 -296.25 -11.55 -296.25 -11.3 -296.1 -11.15 -295.95 -11.2 -295.8 -11.45 -295.95 -11.5 -295.95 -11.7 -295.9 -12.3 -296.15 -13.2 -294.75 Q-13.45 -293.75 -12.7 -291.8 -11.7 -289.5 -9.9 -289.0 L-8.6 -288.7 Q-7.5 -289.0 -7.4 -289.45 L-7.35 -289.9 -6.95 -289.4 -6.6 -287.9 Q-6.3 -286.5 -6.4 -285.6 L-6.45 -285.2 M-12.6 -296.1 L-12.5 -296.2 -12.8 -296.3 -12.6 -296.1" fill="#ffffff" fill-rule="evenodd" stroke="none"/>
  </g>
</svg>
