<?xml version="1.0" encoding="UTF-8" standalone="no"?>
<svg xmlns:ffdec="https://www.free-decompiler.com/flash" xmlns:xlink="http://www.w3.org/1999/xlink" ffdec:objectType="shape" height="277.5px" width="274.6px" xmlns="http://www.w3.org/2000/svg">
  <g transform="matrix(1.0, 0.0, 0.0, 1.0, 93.25, 539.2)">
    <path d="M159.8 -519.95 L160.3 -519.5 Q161.25 -520.05 161.4 -520.5 161.45 -521.05 161.65 -521.25 L162.4 -521.8 163.85 -522.35 Q165.4 -523.0 166.05 -523.85 L167.1 -525.6 167.1 -525.65 167.3 -526.15 Q167.6 -527.15 167.6 -529.6 167.65 -531.05 166.35 -531.65 L166.0 -531.75 166.3 -532.8 168.5 -535.25 Q169.6 -536.0 170.85 -535.9 L171.1 -536.1 171.95 -536.35 173.1 -535.95 173.65 -535.15 173.9 -535.05 Q174.65 -535.35 174.9 -536.05 L175.45 -537.25 175.5 -537.45 174.05 -537.55 173.65 -537.5 174.1 -537.85 175.7 -539.05 Q177.45 -539.75 178.15 -537.25 178.4 -536.45 179.5 -534.85 180.3 -533.75 179.95 -532.5 L178.15 -529.8 177.4 -528.35 177.5 -528.4 177.0 -527.5 176.8 -526.95 176.7 -526.95 175.95 -525.65 175.7 -524.2 175.15 -522.65 174.05 -521.4 172.9 -520.1 Q171.8 -518.15 171.6 -517.4 171.5 -517.0 171.75 -516.9 L172.05 -516.85 168.4 -513.85 167.9 -513.35 168.15 -513.55 168.5 -513.8 169.1 -514.2 168.05 -512.7 Q167.45 -512.15 167.35 -511.65 167.15 -511.0 167.25 -510.5 L167.65 -510.65 167.7 -510.65 167.65 -510.35 Q168.5 -509.0 168.4 -508.6 168.1 -507.5 166.5 -506.45 165.65 -505.85 163.4 -504.8 L159.65 -503.15 159.45 -503.1 Q159.05 -502.55 158.8 -502.7 L158.15 -502.65 158.65 -503.0 158.3 -503.4 Q158.0 -503.5 156.95 -502.65 L155.75 -501.85 154.85 -501.9 153.6 -501.7 Q152.85 -501.45 152.1 -501.0 L153.15 -501.8 152.05 -501.2 151.15 -500.45 150.1 -499.05 150.25 -499.15 150.25 -499.1 150.2 -498.75 150.55 -499.35 Q150.3 -498.9 150.4 -498.5 L150.15 -498.5 150.1 -498.3 150.0 -498.2 Q149.9 -497.85 150.2 -497.4 L150.3 -496.7 Q150.0 -495.5 147.05 -493.85 144.4 -492.35 143.1 -492.25 140.1 -493.5 139.65 -493.3 138.85 -493.15 138.35 -493.3 L138.15 -494.1 137.4 -494.3 Q135.45 -493.45 134.5 -492.05 L134.5 -492.0 134.45 -491.95 133.75 -490.7 Q133.6 -490.75 133.2 -490.45 L133.0 -490.55 133.1 -491.0 Q133.4 -492.2 134.85 -494.55 L136.45 -497.6 136.85 -499.4 Q136.8 -500.45 135.35 -500.65 L135.25 -500.6 Q135.1 -500.65 135.25 -501.1 135.7 -502.8 137.25 -504.2 138.6 -505.55 141.3 -507.1 L144.15 -506.3 144.0 -505.4 144.9 -505.05 145.75 -504.95 Q149.4 -507.75 149.9 -508.8 150.15 -509.35 150.85 -509.6 151.85 -509.9 152.3 -510.15 153.1 -510.65 153.55 -512.35 153.75 -513.2 153.55 -514.7 L153.05 -515.15 152.0 -515.2 Q151.35 -515.6 151.55 -516.35 151.95 -517.8 153.6 -519.6 156.0 -522.05 158.55 -521.35 L159.95 -520.95 159.8 -519.95 M134.35 -493.0 L134.35 -493.05 134.3 -493.0 134.35 -493.0 M132.7 -487.35 L132.65 -486.65 132.65 -486.55 133.15 -485.3 Q133.55 -484.4 133.4 -483.75 133.15 -482.85 132.4 -482.3 L130.7 -481.05 130.15 -480.1 Q128.7 -477.6 125.0 -473.65 L124.65 -473.3 124.5 -473.4 124.65 -473.95 125.85 -475.45 127.05 -477.35 127.1 -479.15 Q126.95 -480.3 127.1 -480.85 127.4 -482.0 128.2 -482.0 129.25 -482.0 130.5 -483.75 130.9 -484.2 131.3 -485.15 L132.25 -487.45 132.35 -487.8 132.5 -487.8 132.7 -487.35 M171.2 -522.05 L171.15 -522.35 170.9 -521.95 170.75 -520.25 Q170.2 -519.0 170.55 -518.5 L171.15 -519.15 171.75 -520.2 171.75 -521.7 172.2 -522.4 172.25 -522.8 171.2 -522.05 M180.95 -526.6 Q181.2 -526.15 181.05 -524.7 L181.25 -524.0 181.3 -523.0 Q181.05 -522.0 179.65 -521.45 177.35 -520.5 176.2 -519.8 176.65 -520.7 177.75 -521.65 178.75 -522.4 178.9 -523.1 L178.85 -523.95 178.8 -524.85 Q178.95 -525.35 179.7 -525.95 L180.95 -526.6 M-67.35 -321.95 L-67.45 -322.35 -66.5 -321.7 -65.65 -320.95 -65.95 -320.95 -66.15 -320.75 -64.9 -319.4 -63.6 -318.45 Q-63.6 -318.2 -63.75 -318.2 L-63.9 -318.25 -65.25 -319.1 -66.3 -319.75 -66.9 -319.85 -68.1 -320.65 -68.15 -320.75 -67.1 -321.55 -67.35 -321.95 M-65.4 -319.4 L-64.35 -318.65 -65.35 -319.45 -65.4 -319.4 M-61.4 -312.9 L-62.55 -313.5 -63.0 -313.3 -63.15 -313.1 -63.6 -313.8 -63.35 -314.4 -62.1 -314.25 Q-61.6 -314.6 -61.2 -314.25 L-60.6 -313.7 -60.95 -313.55 -59.95 -312.3 -60.3 -312.2 -61.4 -312.9 M-68.6 -310.3 L-68.3 -310.7 -67.85 -311.35 -67.05 -311.1 -66.55 -310.8 -66.75 -310.8 -66.9 -310.6 Q-66.85 -309.95 -65.6 -309.3 L-64.1 -308.45 -64.35 -308.4 Q-65.3 -309.3 -66.3 -309.35 L-67.3 -309.3 -67.75 -309.2 -68.05 -309.5 -68.25 -309.85 -68.6 -310.3 M-62.05 -318.0 L-61.45 -317.6 -61.45 -317.7 -60.15 -316.9 -59.25 -316.65 Q-59.0 -316.65 -58.8 -316.9 L-58.25 -317.05 Q-57.8 -317.1 -56.2 -316.0 L-54.65 -314.6 -54.9 -314.6 -55.1 -314.6 -55.1 -314.55 -53.3 -311.25 Q-51.45 -311.1 -49.8 -308.65 -48.15 -306.15 -48.55 -304.15 -49.7 -304.4 -50.1 -303.0 L-49.6 -302.85 -49.3 -302.85 -48.75 -303.1 -48.05 -303.4 -48.75 -302.45 -49.35 -301.75 -49.35 -301.65 Q-49.45 -301.25 -49.9 -300.85 L-50.55 -300.75 -50.6 -300.55 -51.0 -300.45 -51.25 -300.5 -51.7 -300.4 -52.45 -299.85 -53.15 -299.8 -54.0 -299.15 Q-53.5 -298.9 -53.5 -298.6 -53.45 -298.25 -53.65 -298.1 -54.1 -297.7 -54.7 -297.2 L-55.1 -297.05 -55.85 -297.5 -56.8 -297.45 -58.0 -297.05 Q-58.25 -296.8 -59.0 -296.85 L-59.4 -296.15 -60.45 -295.95 -61.5 -295.8 -62.65 -295.75 -63.8 -296.0 -64.55 -296.1 -65.3 -296.15 -64.1 -296.45 -63.35 -297.25 -63.1 -297.8 Q-60.95 -297.75 -61.05 -299.55 L-61.45 -300.85 -62.1 -301.8 -62.55 -301.6 -62.9 -303.2 Q-63.05 -304.2 -63.55 -304.8 -63.2 -304.9 -62.65 -303.9 -62.05 -302.75 -61.0 -302.6 L-60.85 -303.0 Q-60.7 -303.3 -60.4 -303.3 L-60.05 -303.3 -59.7 -303.65 -59.55 -303.6 -59.55 -303.5 -57.5 -304.45 Q-56.75 -304.75 -56.8 -305.7 L-57.0 -306.65 Q-57.15 -307.2 -57.5 -307.15 L-57.75 -307.55 -57.6 -308.15 Q-57.3 -308.7 -57.35 -308.9 L-57.55 -309.3 -58.0 -310.0 -58.1 -310.1 -57.85 -310.05 -57.4 -309.95 -56.45 -309.75 -55.25 -310.2 Q-54.95 -310.65 -55.0 -311.05 -55.8 -314.3 -57.6 -314.25 L-57.85 -314.05 Q-57.85 -314.45 -58.2 -315.0 L-59.0 -315.9 -60.4 -316.8 -61.15 -317.15 -62.1 -317.8 -62.05 -318.0 M-76.1 -313.6 L-76.3 -314.0 -76.2 -313.9 -76.1 -313.6 M-88.55 -290.0 L-88.4 -289.65 Q-88.4 -289.4 -88.5 -289.45 L-88.55 -289.5 -88.6 -289.6 -88.75 -289.6 -88.8 -289.75 Q-89.1 -289.0 -88.15 -288.0 -87.05 -286.95 -85.25 -287.2 L-84.3 -286.75 -83.3 -286.8 -83.2 -286.8 -83.1 -286.9 -82.6 -287.3 -82.35 -287.6 -82.1 -287.5 -82.2 -287.35 -82.1 -287.15 -82.4 -286.75 -82.15 -286.75 -82.1 -286.6 -83.7 -285.1 Q-83.75 -285.1 -84.35 -284.8 L-85.85 -284.5 -86.65 -284.35 Q-87.15 -283.85 -89.6 -283.05 -91.8 -282.3 -92.4 -281.55 L-92.5 -281.65 -91.8 -282.85 -90.7 -284.15 -91.3 -284.9 -91.3 -285.1 -91.1 -285.2 -90.15 -285.2 -90.05 -285.65 Q-90.1 -286.95 -91.65 -287.95 -93.15 -289.0 -93.2 -290.1 L-93.2 -290.85 -92.1 -291.85 -90.75 -291.05 Q-89.1 -290.95 -88.75 -290.55 L-88.55 -290.0 M-91.0 -291.05 L-90.85 -291.05 -91.15 -291.2 -91.0 -291.05 M-81.5 -306.0 L-81.35 -305.3 -81.25 -304.2 -81.3 -304.1 -81.4 -303.8 -81.6 -302.4 -81.5 -301.45 -81.5 -300.3 Q-82.15 -300.5 -82.5 -299.9 L-82.9 -299.0 Q-83.1 -298.0 -84.4 -297.1 L-84.55 -297.2 -84.25 -298.1 -84.0 -298.9 Q-84.0 -299.85 -83.35 -300.65 -82.65 -301.35 -82.25 -302.25 L-81.65 -303.85 -82.05 -303.85 -82.35 -303.55 -82.35 -303.3 -82.5 -303.3 -82.55 -303.6 -81.7 -305.95 -81.5 -306.0 M-47.5 -304.1 L-46.95 -304.45 -46.85 -304.25 Q-46.8 -303.95 -46.9 -303.9 L-47.25 -303.9 -47.5 -304.1 M-59.45 -316.4 L-59.35 -316.3 -59.35 -316.4 -59.45 -316.4 M-74.8 -303.35 L-74.9 -303.75 -74.95 -304.05 -74.65 -304.05 -74.55 -303.05 Q-74.3 -302.25 -73.75 -302.3 L-72.85 -302.4 -72.5 -302.7 -71.8 -303.05 Q-71.45 -303.65 -71.5 -304.25 L-71.9 -305.35 -71.75 -305.45 -70.25 -303.65 Q-69.55 -302.85 -69.55 -302.0 L-69.7 -301.25 -69.8 -300.35 Q-69.75 -299.65 -69.3 -298.65 -69.0 -297.9 -68.55 -297.5 L-68.65 -297.65 -67.8 -297.55 -67.65 -296.95 -67.4 -296.85 -66.65 -296.5 -66.1 -296.55 -65.7 -296.3 -66.0 -296.3 -65.9 -296.2 Q-65.9 -295.95 -66.05 -296.0 L-66.2 -296.1 -66.7 -296.25 -67.4 -296.1 -67.35 -295.6 -68.15 -295.2 -69.3 -294.85 -70.15 -295.2 -72.5 -295.45 -73.0 -295.25 Q-73.2 -295.35 -73.2 -294.9 L-73.15 -294.3 -73.75 -293.3 -75.7 -293.2 -77.4 -291.4 -78.65 -290.7 -79.6 -290.2 -79.9 -290.25 -79.6 -290.45 Q-79.4 -290.9 -79.45 -292.25 L-79.6 -293.5 -80.85 -295.05 -81.2 -294.85 -81.3 -296.15 -81.05 -297.1 Q-80.95 -297.65 -80.25 -297.75 -80.25 -297.4 -80.05 -297.45 L-79.95 -297.65 -79.0 -299.2 Q-78.3 -300.15 -78.35 -300.9 -78.4 -301.55 -78.85 -302.3 -79.25 -303.1 -79.95 -303.5 L-80.2 -303.05 Q-80.4 -302.65 -80.5 -303.0 L-80.0 -304.0 Q-79.65 -304.35 -79.65 -304.95 L-79.65 -305.15 -79.85 -305.85 -79.7 -305.7 -79.65 -305.85 -79.55 -305.85 -79.5 -305.15 -79.5 -305.1 -79.5 -305.0 -79.25 -303.9 Q-78.85 -302.75 -77.1 -302.15 L-75.65 -302.2 Q-74.8 -303.05 -74.8 -303.35 M-7.6 -288.45 L-8.8 -286.8 Q-9.9 -285.35 -10.3 -284.3 L-10.55 -284.25 -10.65 -283.8 -10.55 -283.8 -10.7 -283.65 -11.15 -281.9 -11.2 -281.85 -11.3 -279.7 -11.75 -278.9 -11.85 -278.75 -12.65 -277.5 -14.1 -275.0 -14.2 -272.7 Q-14.8 -272.8 -14.55 -274.15 L-14.45 -274.75 -14.55 -274.3 Q-14.85 -273.25 -14.65 -271.9 L-14.25 -269.55 Q-13.95 -267.45 -14.6 -265.15 -14.9 -264.0 -16.35 -262.1 L-16.5 -261.8 -16.55 -261.8 -16.7 -261.75 -16.75 -261.7 -16.85 -261.7 -16.95 -261.75 -17.6 -261.9 -18.3 -263.7 Q-19.0 -264.9 -20.75 -265.65 -21.8 -266.7 -21.75 -267.3 L-21.4 -268.35 Q-21.25 -268.9 -21.7 -269.65 -22.2 -270.75 -23.45 -271.45 -25.1 -272.45 -24.75 -273.05 L-23.85 -274.2 Q-23.8 -274.95 -25.15 -275.35 L-25.2 -276.55 -24.95 -277.35 Q-24.75 -277.95 -25.15 -278.55 L-25.3 -278.65 -25.35 -278.45 -25.45 -278.4 -25.5 -278.7 -25.75 -278.9 -25.8 -279.05 -25.95 -279.45 -26.25 -279.85 -26.4 -280.6 -26.3 -281.55 Q-26.35 -282.35 -26.55 -282.7 L-26.45 -282.65 -26.5 -282.9 -26.35 -282.85 -26.0 -282.15 -24.45 -280.95 -23.4 -281.85 -22.7 -281.95 -21.9 -281.5 Q-21.4 -281.1 -21.1 -281.05 -20.0 -280.75 -19.25 -282.85 L-19.3 -284.5 -19.05 -285.55 -18.15 -284.05 -16.7 -283.65 Q-15.4 -283.8 -15.3 -284.4 L-15.25 -285.1 -15.55 -285.05 -15.25 -286.45 Q-14.75 -288.45 -12.1 -288.4 L-12.0 -288.45 -11.9 -288.4 Q-10.1 -288.45 -9.3 -287.95 L-8.4 -288.45 -7.85 -288.65 -7.0 -289.35 -7.35 -288.8 -7.35 -288.65 -7.6 -288.45 M-79.05 -290.75 L-79.1 -290.85 -79.15 -290.7 -79.05 -290.75" fill="#ffffff" fill-rule="evenodd" stroke="none"/>
  </g>
</svg>
