<?xml version="1.0" encoding="UTF-8" standalone="no"?>
<svg xmlns:ffdec="https://www.free-decompiler.com/flash" xmlns:xlink="http://www.w3.org/1999/xlink" ffdec:objectType="shape" height="524.3px" width="449.9px" xmlns="http://www.w3.org/2000/svg">
  <g transform="matrix(1.0, 0.0, 0.0, 1.0, 130.75, 711.05)">
    <path d="M303.05 -710.55 Q307.5 -709.7 309.65 -707.85 312.3 -705.6 312.8 -705.4 314.95 -704.6 315.95 -702.75 L317.15 -699.3 318.15 -697.7 Q318.8 -696.7 318.65 -695.9 318.15 -693.9 318.15 -692.65 L318.65 -689.0 319.15 -685.35 318.9 -683.95 318.65 -682.9 318.15 -682.8 Q318.0 -691.65 315.35 -696.45 311.0 -704.45 299.05 -706.9 L293.5 -706.9 Q289.9 -706.7 288.0 -704.9 L286.25 -702.65 286.15 -702.55 Q286.05 -702.6 286.05 -703.4 286.05 -704.5 287.05 -706.2 L288.55 -709.05 289.35 -708.8 289.8 -708.4 Q292.1 -708.7 296.8 -710.5 299.65 -711.6 303.05 -710.55 M242.65 -657.8 L243.2 -658.15 245.75 -659.9 246.0 -660.1 Q248.8 -661.85 252.15 -662.55 L261.55 -663.65 267.65 -661.8 271.9 -654.05 Q273.3 -651.05 273.3 -647.15 273.3 -644.6 272.8 -641.9 272.45 -641.65 271.9 -642.55 267.3 -640.05 265.25 -635.8 L262.4 -628.4 Q261.95 -627.45 260.8 -621.65 259.55 -615.6 259.55 -613.8 L259.4 -606.8 Q259.35 -603.7 259.8 -597.3 260.05 -593.85 261.5 -588.8 262.8 -584.2 262.8 -581.35 262.8 -578.75 256.65 -566.9 L254.75 -562.3 Q254.25 -556.25 251.75 -549.85 L244.8 -533.8 Q243.3 -530.15 239.55 -525.85 L231.8 -518.05 229.35 -515.85 Q226.3 -512.0 222.35 -508.3 214.25 -500.65 206.5 -498.05 L205.25 -498.15 205.05 -498.9 203.05 -499.5 201.05 -499.9 198.0 -499.55 Q188.6 -497.85 184.3 -496.55 L182.25 -495.8 Q176.45 -490.95 172.8 -486.4 162.6 -473.9 158.05 -466.15 149.3 -451.1 147.45 -430.8 L147.5 -429.1 Q147.5 -423.45 145.1 -414.9 141.75 -403.25 141.3 -400.8 140.3 -395.55 135.45 -386.95 129.7 -377.4 127.5 -373.05 126.0 -370.15 124.45 -369.0 122.75 -367.75 119.8 -367.65 112.7 -367.45 110.05 -366.05 107.95 -364.25 105.8 -363.55 99.45 -361.4 91.8 -352.05 L86.45 -345.1 84.7 -342.25 Q84.0 -340.15 84.0 -338.15 L83.5 -334.0 83.0 -329.9 Q83.0 -326.4 85.2 -316.55 L86.35 -311.75 86.8 -310.95 87.05 -310.5 Q87.0 -309.35 87.7 -308.25 88.5 -307.05 89.85 -306.6 L90.0 -306.4 89.75 -306.05 89.5 -306.15 89.3 -304.8 Q89.4 -304.55 89.05 -304.45 L89.05 -304.0 89.05 -303.75 90.75 -302.4 90.25 -302.05 89.0 -301.8 88.9 -301.85 Q88.0 -294.75 80.85 -287.7 69.1 -277.7 62.0 -270.65 L54.1 -263.15 Q48.9 -258.65 43.25 -255.3 L38.25 -252.25 Q27.65 -245.7 18.25 -238.65 7.65 -230.75 -9.85 -221.5 -17.55 -217.45 -23.95 -214.5 -31.6 -211.05 -37.35 -209.15 -53.2 -203.95 -79.1 -194.85 -97.45 -188.8 -106.95 -188.35 L-107.5 -187.25 -108.0 -186.75 -109.25 -188.3 Q-111.4 -188.45 -112.6 -189.2 -112.05 -190.1 -111.9 -191.2 L-111.75 -193.25 -113.2 -197.95 Q-115.5 -207.35 -116.75 -209.75 -118.6 -213.3 -123.4 -220.85 -125.1 -223.85 -126.05 -226.4 -128.65 -230.6 -129.65 -234.75 -130.75 -239.3 -130.75 -247.1 L-130.2 -251.4 -130.25 -253.35 Q-130.25 -257.95 -128.35 -263.3 L-127.55 -266.65 -126.05 -271.55 -125.6 -274.95 Q-124.0 -287.25 -124.0 -290.0 -124.0 -294.2 -122.7 -300.85 -124.4 -308.4 -124.5 -315.25 -124.6 -324.65 -125.35 -333.15 L-123.75 -338.15 Q-121.65 -345.45 -119.95 -349.95 -117.4 -356.65 -113.85 -362.55 -107.1 -373.75 -89.75 -386.25 -73.1 -398.3 -54.0 -406.4 -39.95 -406.15 -32.3 -407.6 L-25.6 -409.45 -23.25 -409.4 Q-18.0 -409.4 -13.5 -411.65 -8.5 -414.1 0.25 -421.4 3.55 -424.15 6.65 -428.35 L8.55 -431.1 Q11.2 -434.55 14.95 -442.15 21.55 -455.65 21.55 -463.35 21.55 -470.35 20.1 -472.8 19.35 -474.3 18.35 -474.65 L18.1 -475.0 18.1 -475.4 Q18.1 -475.9 23.0 -483.05 L29.8 -492.65 Q34.3 -498.45 44.85 -509.55 52.6 -517.7 66.0 -526.55 81.4 -536.7 94.7 -541.0 L94.75 -541.15 95.5 -540.55 95.65 -540.55 95.85 -540.2 98.7 -538.55 Q101.1 -536.65 103.05 -536.65 112.15 -536.65 114.65 -537.85 L116.5 -538.25 118.95 -539.35 120.25 -539.85 122.65 -541.45 137.55 -550.4 Q147.05 -556.25 167.05 -566.8 L170.4 -568.45 Q181.3 -577.25 187.75 -589.7 194.75 -603.2 194.75 -616.8 L194.6 -619.6 Q194.25 -621.2 192.75 -622.4 L190.25 -622.65 190.05 -623.25 Q193.8 -626.25 201.45 -632.95 208.6 -638.5 215.55 -640.55 227.9 -644.2 233.95 -648.3 L240.55 -653.95 240.55 -654.3 Q240.55 -655.05 240.2 -654.95 L239.55 -654.9 Q239.95 -655.15 242.95 -657.9 L242.65 -657.8 M317.65 -675.3 L317.3 -674.05 317.3 -673.6 Q317.3 -672.7 316.6 -671.6 L315.95 -669.55 Q314.75 -665.8 313.55 -663.3 L313.15 -663.3 Q314.35 -665.25 314.6 -667.8 L314.65 -672.3 Q314.65 -672.95 315.65 -674.35 316.75 -675.85 317.55 -676.05 L317.65 -675.3" fill="#ff9a2b" fill-rule="evenodd" stroke="none"/>
    <path d="M198.55 -613.1 L198.6 -613.1 198.5 -613.8 198.8 -613.8 198.85 -612.95 198.9 -612.3 Q199.2 -610.95 199.85 -609.15 L201.3 -605.25 Q205.0 -604.6 207.15 -599.3 208.7 -595.35 208.7 -592.0 208.7 -587.55 205.9 -580.7 202.85 -573.45 199.75 -571.7 195.6 -569.45 193.6 -567.15 191.3 -564.35 190.55 -562.1 L189.0 -557.0 Q188.25 -553.9 188.45 -551.95 L188.45 -551.85 Q188.9 -549.55 189.75 -548.05 192.25 -543.6 202.05 -541.8 206.15 -542.45 207.8 -544.45 L210.15 -547.8 210.35 -547.85 211.25 -547.95 Q213.1 -547.95 216.25 -544.2 L219.45 -539.95 Q221.55 -537.25 222.15 -535.35 222.6 -534.0 222.6 -531.45 222.6 -528.7 221.65 -526.75 L218.9 -522.65 215.85 -517.35 Q214.6 -515.15 213.75 -514.65 L213.75 -513.65 213.15 -513.2 212.65 -513.35 213.0 -513.8 213.25 -514.5 213.15 -514.5 213.25 -514.65 212.25 -516.15 210.9 -516.5 Q207.4 -516.5 199.3 -514.2 192.25 -512.2 188.2 -510.5 L181.6 -507.45 178.55 -505.65 178.35 -505.05 178.4 -504.7 177.0 -503.8 173.9 -501.75 172.6 -500.5 Q170.9 -499.05 165.9 -498.2 164.25 -497.95 161.35 -496.15 158.8 -494.65 157.7 -493.55 L150.5 -487.5 Q147.35 -484.75 147.35 -481.85 147.35 -477.7 141.85 -471.3 137.2 -465.9 132.75 -463.05 125.55 -458.5 119.4 -453.6 117.1 -451.75 114.1 -448.35 L109.8 -443.8 109.7 -444.1 109.0 -443.3 Q107.8 -441.9 107.8 -440.85 107.8 -439.6 107.15 -438.15 106.4 -436.5 105.05 -435.45 L99.45 -431.4 Q96.0 -428.6 96.0 -426.15 96.0 -425.7 96.35 -424.55 L96.7 -422.95 Q96.7 -421.4 94.2 -417.2 L91.05 -412.35 Q89.7 -410.3 86.65 -407.5 L81.45 -402.95 Q75.7 -397.9 62.65 -384.65 L62.45 -384.55 51.15 -372.2 Q44.55 -364.25 41.2 -357.25 38.2 -350.95 28.9 -340.35 21.55 -331.9 21.55 -327.35 21.55 -325.55 24.95 -323.65 L29.65 -323.65 36.7 -328.2 38.95 -331.5 39.0 -331.6 Q39.65 -335.55 42.7 -341.15 L43.85 -343.05 44.65 -344.2 Q46.8 -347.2 49.05 -348.05 L49.7 -348.5 Q55.1 -352.05 61.05 -353.85 69.1 -356.25 80.3 -360.15 L90.5 -363.75 Q95.9 -366.75 97.05 -367.05 92.9 -362.05 84.4 -357.8 L81.65 -355.7 76.35 -351.25 Q75.25 -350.3 73.65 -348.0 L72.95 -346.95 71.0 -344.15 Q68.7 -340.65 68.7 -336.7 L68.6 -336.55 68.45 -333.9 Q68.45 -329.65 69.55 -328.3 73.2 -323.75 75.0 -320.6 76.55 -317.85 77.4 -314.1 78.15 -310.7 78.15 -307.3 L78.05 -304.0 77.85 -303.1 78.55 -303.0 80.15 -301.9 80.8 -300.05 80.95 -298.4 Q80.95 -295.85 80.15 -294.6 78.5 -292.5 76.8 -289.8 75.95 -288.45 75.15 -285.45 74.45 -282.75 73.35 -281.4 69.65 -276.9 65.2 -273.25 59.75 -268.85 52.25 -264.95 50.3 -263.95 45.75 -260.8 L39.25 -256.35 32.5 -252.1 Q28.7 -249.7 25.75 -248.15 17.05 -243.55 8.65 -240.05 -1.1 -236.0 -4.55 -236.0 -11.05 -236.0 -14.8 -240.15 L-15.3 -240.7 -16.05 -241.75 -16.1 -241.85 Q-16.9 -242.95 -17.2 -244.0 L-17.55 -244.8 Q-18.7 -246.75 -20.85 -249.35 -21.35 -249.95 -21.9 -251.65 L-22.55 -254.15 -22.45 -256.6 -22.2 -258.6 Q-22.2 -260.5 -22.5 -261.15 L-24.65 -263.9 Q-29.15 -265.15 -30.25 -267.1 -30.65 -267.85 -30.65 -270.55 -30.8 -270.7 -31.2 -270.25 L-31.4 -269.9 -31.75 -268.85 -31.7 -267.9 Q-31.7 -267.3 -31.85 -267.05 -33.65 -264.35 -36.65 -263.25 -41.15 -261.6 -42.85 -259.95 -44.25 -258.55 -44.25 -256.5 L-43.55 -254.25 Q-42.9 -252.65 -42.9 -251.35 L-42.7 -246.3 -42.95 -245.0 -43.05 -244.65 -43.05 -244.5 Q-43.05 -242.45 -44.75 -239.95 -46.75 -237.1 -49.9 -235.55 -53.25 -233.8 -58.0 -232.75 -59.35 -232.45 -60.35 -231.1 L-61.85 -228.7 Q-63.6 -228.15 -64.85 -227.4 L-66.75 -226.3 Q-70.8 -226.5 -72.8 -224.35 -74.5 -221.75 -75.95 -220.9 L-78.0 -220.15 -79.9 -219.5 Q-84.35 -219.3 -85.05 -218.75 L-86.9 -217.45 Q-88.05 -216.8 -89.85 -216.1 L-89.7 -216.0 -90.25 -215.95 -90.55 -215.95 Q-91.45 -215.45 -92.1 -215.45 -94.95 -215.45 -96.0 -217.55 L-98.35 -221.8 Q-99.4 -222.9 -99.65 -224.75 L-99.75 -228.2 Q-99.75 -232.95 -99.05 -236.05 -98.45 -238.7 -97.8 -239.85 L-97.4 -240.75 -96.8 -241.85 Q-95.8 -242.85 -95.3 -242.7 L-94.85 -242.3 Q-94.3 -242.3 -94.25 -242.5 -94.15 -242.9 -93.3 -243.3 -92.9 -244.0 -92.4 -247.15 -91.95 -250.15 -91.95 -251.55 -91.95 -253.15 -92.45 -254.3 -93.0 -255.5 -93.0 -256.25 -93.0 -266.1 -84.95 -271.95 L-84.45 -271.65 Q-84.45 -271.45 -84.0 -271.45 -82.5 -271.45 -81.6 -273.5 L-81.6 -274.0 -81.15 -276.5 -80.15 -279.15 -80.6 -279.4 -80.75 -278.6 -81.1 -278.45 -81.4 -279.95 -82.25 -280.7 -84.8 -280.6 -84.8 -281.4 -86.0 -281.25 Q-88.4 -281.25 -91.2 -279.6 -93.95 -277.95 -95.1 -277.95 L-96.45 -278.1 -96.5 -277.95 -96.75 -277.65 -98.95 -277.7 -100.95 -279.35 -103.0 -281.1 Q-103.45 -281.55 -105.3 -282.55 -107.2 -283.5 -107.55 -283.9 L-110.35 -287.15 Q-111.95 -289.15 -112.7 -290.7 L-116.3 -298.35 -116.35 -304.15 -116.25 -308.9 Q-116.0 -311.35 -114.8 -314.15 L-114.75 -314.15 -113.95 -317.2 Q-113.15 -320.75 -113.15 -322.8 L-113.9 -330.5 -114.25 -334.3 -115.0 -336.0 -115.4 -336.9 -115.5 -336.35 -115.85 -336.25 -116.0 -338.15 Q-116.0 -346.45 -107.1 -359.6 L-101.65 -367.05 Q-97.05 -373.45 -93.3 -377.05 -85.45 -384.65 -72.8 -390.8 -65.7 -395.0 -61.4 -396.6 -54.65 -399.2 -37.7 -401.45 L-28.25 -401.55 -27.55 -401.55 Q-25.7 -402.5 -21.65 -403.75 L-14.35 -406.15 -8.2 -409.25 Q-4.3 -411.25 -1.8 -412.75 3.4 -415.9 6.95 -420.4 8.1 -421.85 11.9 -427.85 L11.95 -427.7 12.8 -429.2 14.9 -432.6 Q15.05 -432.95 15.05 -432.05 L14.0 -430.1 Q12.95 -428.55 12.95 -427.4 12.95 -426.9 13.1 -426.6 L13.3 -426.1 14.15 -426.2 16.0 -426.15 Q17.85 -424.3 18.0 -421.6 L18.35 -417.45 18.05 -415.35 17.75 -413.25 16.7 -410.8 15.55 -408.7 Q15.25 -408.7 15.25 -409.7 15.65 -409.9 14.75 -409.9 12.45 -409.9 8.2 -405.15 L4.1 -400.05 Q3.15 -398.8 2.45 -396.95 L1.4 -393.95 Q0.75 -392.5 0.95 -390.9 L1.25 -388.15 Q1.25 -386.15 0.1 -383.05 -1.5 -378.85 -3.9 -378.85 L-5.9 -378.55 -5.85 -378.4 Q-17.6 -372.35 -19.75 -357.85 L-19.9 -357.85 -19.65 -355.95 Q-19.25 -354.6 -17.85 -353.15 L-17.05 -352.9 -16.2 -352.8 Q-10.2 -352.8 -1.15 -362.3 L3.5 -367.5 8.75 -378.5 Q12.0 -385.45 13.2 -387.2 L16.6 -392.15 Q18.7 -394.95 21.5 -397.05 L24.3 -398.8 31.0 -400.75 Q32.2 -401.05 34.0 -402.7 L34.3 -402.95 Q35.5 -406.7 39.35 -411.8 L44.65 -418.35 Q47.1 -422.1 48.7 -426.7 L50.95 -435.05 50.95 -436.55 49.6 -436.65 Q55.4 -446.75 61.85 -452.6 64.4 -454.95 65.95 -455.9 68.4 -457.4 72.55 -458.5 76.5 -459.55 79.05 -461.8 L79.95 -462.55 Q81.8 -465.35 84.5 -470.8 87.3 -475.65 91.45 -478.8 95.6 -482.0 99.2 -486.5 103.25 -491.65 103.25 -494.65 L102.95 -495.4 Q102.6 -495.75 102.6 -496.2 102.6 -497.4 105.35 -504.25 105.85 -505.9 107.55 -508.2 109.15 -510.4 111.1 -512.1 L120.15 -520.05 Q122.6 -522.75 122.6 -527.25 L122.55 -529.2 Q122.3 -530.0 121.25 -530.25 L121.75 -532.0 122.15 -533.0 122.15 -533.1 Q122.15 -535.0 127.35 -538.8 L134.5 -543.6 Q141.35 -548.6 152.1 -553.45 173.25 -563.0 181.3 -573.05 L185.6 -578.1 Q188.15 -581.25 189.0 -583.45 189.65 -585.25 191.5 -588.55 L194.3 -593.6 Q196.85 -598.5 197.95 -603.85 198.65 -607.4 198.65 -610.75 L198.65 -610.85 198.55 -612.15 198.5 -612.75 198.55 -612.75 198.55 -613.1 M103.1 -398.9 L102.6 -397.9 102.1 -396.9 Q102.1 -394.95 105.7 -392.7 109.7 -390.2 110.1 -389.3 L112.6 -384.55 Q113.5 -382.9 113.5 -380.8 113.5 -378.0 112.95 -377.1 112.45 -376.35 111.05 -376.1 105.85 -375.35 102.2 -372.6 L101.35 -372.75 102.0 -373.55 102.35 -374.5 Q102.35 -375.85 100.05 -377.3 96.9 -379.4 95.95 -380.45 94.65 -381.95 94.35 -383.7 L94.25 -386.8 Q94.25 -391.4 95.6 -393.55 97.25 -396.05 102.95 -399.25 103.1 -399.75 103.1 -398.9 M-14.9 -371.15 L-13.05 -373.6 Q-15.4 -371.2 -16.45 -369.25 L-17.45 -367.25 -14.9 -371.15 M-58.85 -294.85 L-60.0 -296.1 -60.2 -296.25 -61.0 -296.45 Q-65.0 -296.45 -65.95 -295.3 -66.35 -293.9 -66.9 -293.3 -67.25 -292.95 -69.65 -292.05 L-72.5 -290.85 -72.75 -290.7 Q-72.9 -290.65 -72.95 -290.8 L-74.3 -289.15 -75.3 -287.4 -73.2 -289.45 Q-70.95 -291.25 -69.8 -291.45 -66.9 -292.75 -64.45 -289.55 L-62.05 -285.45 -60.25 -285.6 -59.4 -286.2 Q-58.45 -286.95 -57.45 -288.4 L-56.95 -288.1 -56.7 -287.7 Q-55.6 -288.4 -55.4 -288.85 L-55.3 -290.3 -55.4 -291.8 Q-55.65 -292.55 -56.7 -293.75 -57.9 -293.95 -58.85 -294.85" fill="#ffff66" fill-rule="evenodd" stroke="none"/>
  </g>
</svg>
