<?xml version="1.0" encoding="UTF-8" standalone="no"?>
<svg xmlns:ffdec="https://www.free-decompiler.com/flash" xmlns:xlink="http://www.w3.org/1999/xlink" ffdec:objectType="shape" height="277.7px" width="283.45px" xmlns="http://www.w3.org/2000/svg">
  <g transform="matrix(1.0, 0.0, 0.0, 1.0, 97.65, 539.45)">
    <path d="M157.15 -520.65 L156.65 -520.4 156.75 -521.0 Q157.0 -521.95 158.9 -523.35 161.1 -524.95 162.75 -524.55 L164.75 -523.9 165.0 -524.0 165.45 -523.1 165.7 -522.45 165.95 -522.35 168.0 -524.55 168.25 -524.8 168.3 -524.8 Q169.05 -524.95 170.0 -526.05 171.45 -526.75 172.2 -529.5 L173.9 -533.7 Q174.05 -534.35 173.6 -534.9 L173.55 -535.1 173.5 -535.1 172.8 -535.65 170.5 -535.75 170.05 -535.85 173.45 -537.3 174.55 -538.35 175.65 -539.25 177.8 -539.4 178.0 -539.4 178.75 -538.65 179.8 -537.0 179.8 -536.75 179.75 -536.35 179.6 -536.15 179.25 -535.5 179.45 -533.45 179.7 -532.05 Q179.95 -531.85 180.25 -531.8 L179.85 -529.8 Q179.5 -528.55 178.95 -527.7 L178.15 -526.45 177.6 -526.6 Q177.25 -526.7 176.65 -525.95 L176.1 -525.1 Q175.95 -524.55 176.15 -522.7 L176.0 -519.9 175.65 -518.85 174.45 -517.65 173.75 -516.85 Q173.4 -516.6 172.45 -516.85 L170.65 -515.0 Q169.9 -514.15 169.65 -513.35 169.55 -512.85 169.75 -511.85 169.95 -510.95 169.7 -510.1 169.3 -508.5 165.65 -505.4 164.5 -505.85 162.2 -504.8 L160.9 -504.1 160.9 -503.9 159.5 -502.85 159.25 -502.5 159.2 -502.6 158.55 -502.2 Q156.35 -500.65 155.65 -500.25 155.5 -500.55 154.8 -500.7 153.75 -501.0 153.3 -499.25 L152.65 -497.0 150.45 -495.7 148.4 -494.5 148.3 -494.5 148.2 -494.45 147.95 -494.3 146.3 -494.6 145.6 -494.6 143.6 -494.9 143.5 -494.85 142.65 -494.8 142.0 -494.65 141.2 -494.3 Q139.35 -495.05 136.55 -493.65 L134.95 -492.75 134.9 -492.7 134.55 -492.05 134.3 -491.3 134.3 -490.9 134.3 -490.0 Q135.55 -488.95 134.75 -486.05 134.5 -485.05 133.2 -483.95 L133.0 -483.4 132.7 -483.45 132.65 -483.55 131.85 -482.95 131.65 -483.0 Q129.95 -481.55 128.75 -478.9 L128.75 -478.75 128.7 -478.7 128.6 -478.3 128.6 -478.25 127.9 -476.25 126.85 -475.05 125.75 -473.95 125.6 -474.0 125.6 -474.05 128.05 -478.5 128.3 -479.4 128.3 -480.1 128.45 -481.75 128.45 -483.2 128.55 -484.5 Q128.9 -485.85 129.85 -486.95 130.6 -487.75 131.2 -487.7 L131.7 -487.9 132.75 -488.8 132.7 -489.05 132.65 -490.05 132.95 -490.95 132.85 -491.0 133.0 -491.5 133.2 -491.85 133.35 -491.95 133.35 -492.0 Q133.95 -493.9 137.4 -496.65 140.95 -499.55 141.45 -501.35 L141.5 -502.5 141.3 -504.35 141.0 -504.3 140.4 -504.05 139.75 -504.0 139.95 -504.15 139.6 -504.05 139.45 -504.2 140.2 -504.45 Q140.95 -505.35 141.55 -507.45 142.1 -509.4 144.25 -510.15 L144.2 -510.0 145.45 -509.6 Q146.75 -509.25 150.0 -511.2 L150.55 -511.5 Q151.55 -511.45 152.15 -510.7 153.0 -509.7 153.55 -509.55 156.6 -508.75 157.85 -510.8 L158.35 -511.6 158.2 -511.65 157.6 -513.1 157.85 -514.3 Q158.0 -514.85 159.0 -515.8 L159.0 -517.0 159.05 -517.15 159.0 -518.75 Q158.75 -519.95 158.0 -520.45 L157.15 -520.65 M124.3 -472.55 L123.65 -471.45 123.55 -470.8 Q123.45 -470.4 122.85 -470.45 L121.1 -468.75 119.4 -467.1 119.3 -467.15 Q119.3 -467.4 119.85 -467.9 L120.6 -468.6 121.5 -470.2 Q123.0 -472.5 124.3 -472.8 L124.3 -472.55 M184.95 -531.2 L184.25 -531.85 184.35 -532.0 184.9 -532.25 Q185.95 -530.45 185.8 -530.0 L184.9 -528.45 183.8 -526.95 183.75 -527.15 184.2 -527.8 184.9 -529.15 185.15 -530.15 184.95 -530.9 184.95 -531.2 M-66.6 -316.25 Q-66.25 -316.0 -66.15 -316.05 L-66.1 -315.4 -65.7 -314.9 -66.0 -314.8 -67.1 -315.45 -67.25 -315.95 -67.15 -316.5 -66.6 -316.25 M-62.7 -318.85 L-61.05 -318.65 Q-59.9 -318.1 -59.9 -317.7 -59.9 -317.45 -60.05 -317.4 L-60.15 -317.45 -61.6 -317.9 -63.15 -317.95 -64.5 -318.8 Q-65.55 -319.4 -65.6 -319.7 L-64.85 -319.25 Q-63.9 -318.8 -62.7 -318.85 M-69.9 -322.35 L-70.0 -321.85 -69.35 -321.05 Q-70.0 -321.15 -70.85 -321.85 L-70.7 -322.0 -70.7 -322.15 -70.6 -322.45 -70.2 -322.45 -69.6 -322.7 -69.6 -322.5 -69.9 -322.35 M-70.35 -321.8 L-70.3 -321.85 -70.35 -321.85 -70.35 -321.8 M171.2 -523.45 L171.45 -522.9 171.85 -521.95 171.55 -520.25 170.7 -518.05 170.65 -517.5 171.05 -517.25 172.8 -518.85 173.45 -520.5 Q173.8 -521.8 173.65 -522.3 L173.45 -522.65 173.45 -523.05 173.7 -524.0 Q174.45 -525.6 172.95 -525.05 171.45 -524.35 171.2 -523.45 M-71.3 -303.2 L-71.35 -303.1 -71.35 -303.2 -71.3 -303.2 M-80.3 -303.15 L-80.85 -302.75 -81.5 -301.5 Q-81.55 -300.9 -82.0 -300.75 L-82.9 -300.05 -82.95 -300.15 Q-82.3 -300.8 -81.85 -302.2 -81.4 -303.55 -80.95 -303.9 L-80.3 -303.15 M-80.3 -307.25 L-80.7 -306.8 -80.95 -305.9 -81.1 -306.3 -81.25 -306.75 -80.8 -308.0 -80.95 -308.35 -81.2 -308.75 -81.2 -308.95 -81.1 -309.0 Q-80.0 -308.25 -80.0 -307.75 -79.95 -307.5 -80.3 -307.25 M-73.7 -303.5 Q-73.75 -303.9 -73.6 -303.7 -72.75 -303.75 -72.65 -304.3 -72.5 -304.7 -72.75 -305.1 L-72.3 -304.95 -70.95 -303.7 Q-71.7 -303.9 -71.9 -303.4 L-72.05 -302.2 -71.8 -301.55 -71.8 -301.4 -71.8 -301.3 -71.5 -300.75 Q-70.45 -299.2 -68.9 -298.6 L-68.35 -298.65 -68.2 -298.75 -68.1 -298.75 -67.95 -298.8 -67.9 -298.85 -67.55 -298.95 Q-66.7 -298.95 -66.55 -298.05 -66.4 -297.1 -65.55 -297.0 L-64.3 -297.0 -63.85 -297.35 -63.9 -297.35 -63.9 -297.4 -63.55 -297.8 -63.05 -298.1 -61.35 -298.0 -61.4 -298.55 -60.95 -299.05 Q-59.9 -299.0 -59.7 -299.7 L-59.6 -300.75 -60.05 -302.15 -60.75 -303.2 -61.0 -302.85 -61.25 -303.0 -61.05 -303.35 -60.15 -304.45 -58.8 -304.85 -57.85 -304.9 -57.4 -303.95 Q-57.05 -303.5 -55.75 -303.35 L-55.25 -303.85 -54.85 -304.45 Q-54.9 -305.05 -55.5 -306.1 L-56.1 -307.25 Q-56.1 -307.75 -55.7 -308.1 L-55.25 -308.3 Q-55.6 -309.05 -55.35 -309.85 L-55.05 -309.5 -54.55 -309.2 -54.0 -309.25 -53.3 -309.6 Q-52.9 -309.8 -52.95 -310.15 L-52.95 -310.5 -53.05 -310.6 -52.9 -310.85 -52.8 -311.2 Q-52.8 -311.65 -53.6 -312.5 L-54.7 -313.7 Q-54.0 -313.5 -52.95 -312.6 -52.0 -311.75 -50.55 -311.35 -49.65 -311.15 -49.1 -309.55 -48.7 -308.35 -48.65 -307.2 -48.6 -306.7 -49.2 -306.35 -49.8 -306.05 -49.75 -305.35 L-49.2 -304.25 Q-48.65 -303.65 -48.15 -303.65 L-47.25 -304.4 -46.4 -305.1 -46.35 -305.0 -46.55 -304.75 -46.35 -304.8 -46.35 -304.75 -46.55 -304.55 -47.1 -304.2 -47.4 -303.7 -47.85 -302.6 -48.45 -301.55 Q-48.85 -300.95 -49.5 -300.6 L-50.65 -300.3 -50.85 -300.45 -51.35 -300.55 Q-52.1 -300.25 -52.2 -299.8 -52.1 -299.35 -52.25 -299.1 L-52.85 -298.35 -53.65 -297.65 -54.4 -297.55 -54.85 -297.9 -55.4 -298.0 -56.1 -297.75 -57.1 -297.5 Q-57.1 -297.35 -57.5 -297.2 L-58.25 -296.55 -58.75 -296.15 -59.15 -295.75 -61.7 -295.6 -62.55 -295.9 -64.0 -296.15 -64.35 -296.05 -64.45 -296.1 -64.35 -296.15 -65.7 -296.05 Q-65.8 -295.25 -66.4 -295.0 L-68.2 -294.9 -69.5 -295.2 -71.1 -295.65 -71.75 -295.45 -71.9 -295.3 Q-71.25 -294.55 -71.8 -293.85 -72.45 -293.1 -74.75 -293.1 L-76.5 -292.25 Q-76.5 -291.8 -77.2 -291.15 -78.35 -290.85 -79.15 -290.3 L-79.3 -290.1 -79.2 -289.5 Q-79.25 -289.25 -79.95 -288.7 L-80.1 -288.65 -80.15 -288.65 -80.5 -288.55 -81.05 -287.55 -81.1 -287.5 Q-81.5 -286.3 -82.8 -285.3 L-83.45 -285.3 -83.7 -285.4 -84.2 -285.5 -85.65 -284.35 -85.7 -284.05 -85.9 -283.6 Q-86.3 -283.25 -87.5 -283.05 L-87.8 -283.0 -88.55 -282.85 -89.3 -282.75 -89.85 -282.6 -91.6 -281.95 -93.1 -281.45 -93.25 -281.6 -91.75 -282.55 Q-90.8 -283.15 -90.7 -283.7 -90.7 -284.25 -89.75 -284.8 L-89.25 -285.2 Q-89.0 -285.45 -89.0 -285.75 L-89.15 -286.0 -89.4 -286.3 -89.2 -286.5 -89.05 -286.75 -89.6 -287.35 -90.0 -288.15 -89.95 -288.3 -89.8 -288.35 -88.8 -287.4 Q-87.9 -286.7 -86.05 -286.75 L-85.9 -287.0 -85.9 -287.75 -85.3 -288.35 -84.25 -288.45 Q-83.9 -288.45 -83.8 -288.25 L-83.35 -288.1 Q-82.6 -288.15 -81.4 -288.9 -80.4 -289.05 -79.75 -289.55 -79.4 -290.0 -79.4 -290.3 L-79.55 -290.8 Q-79.1 -291.3 -78.9 -291.95 L-78.45 -293.45 -77.85 -294.0 -77.35 -294.7 Q-77.2 -295.0 -77.2 -295.75 L-77.4 -295.75 -77.4 -296.0 -77.45 -297.3 -77.55 -297.8 -77.6 -297.95 -78.55 -298.95 -78.6 -298.95 -78.85 -298.95 -78.85 -299.05 Q-78.65 -300.35 -77.25 -300.6 L-76.9 -300.3 -76.45 -300.8 -76.4 -300.85 -76.2 -301.8 -76.3 -301.8 -76.35 -301.95 -76.2 -302.0 -76.25 -302.6 -76.8 -303.8 Q-75.9 -303.6 -75.65 -302.9 L-75.25 -302.0 -74.75 -301.7 -74.2 -301.7 -73.75 -302.6 -73.65 -302.85 -73.7 -303.5 M-7.3 -298.3 L-7.65 -297.75 -7.95 -297.45 -8.0 -296.7 -8.95 -295.35 -10.15 -293.95 -10.25 -294.6 Q-11.6 -294.25 -12.85 -292.95 L-13.3 -292.15 -13.65 -290.8 -13.6 -290.6 -13.55 -289.4 -13.2 -289.25 -13.15 -289.25 -13.05 -288.9 -12.2 -289.25 -12.8 -288.7 -13.0 -288.4 -13.05 -288.35 -13.4 -287.6 -13.55 -287.65 -13.5 -287.8 -14.3 -286.85 -14.3 -286.8 -15.6 -283.8 Q-16.25 -281.45 -16.2 -279.45 -16.05 -277.3 -15.1 -274.15 -13.75 -273.65 -13.65 -271.75 -13.5 -270.35 -13.85 -269.05 -14.1 -268.2 -14.5 -268.05 -15.0 -267.85 -15.25 -266.95 L-15.2 -265.55 Q-14.95 -264.7 -15.15 -264.1 -15.5 -262.7 -16.3 -261.85 L-16.55 -261.9 -16.9 -261.75 Q-17.05 -262.65 -18.25 -263.65 -19.5 -264.6 -19.65 -265.35 L-19.95 -267.0 Q-20.25 -268.2 -21.2 -269.1 L-22.0 -269.05 Q-22.9 -269.15 -23.7 -270.6 -24.35 -271.9 -24.25 -272.35 L-23.7 -273.25 -23.2 -273.85 -23.1 -274.5 Q-23.2 -275.0 -24.1 -275.2 -24.45 -275.5 -24.5 -276.25 L-24.75 -277.3 Q-26.8 -278.25 -26.8 -279.85 L-26.5 -281.7 -26.8 -281.85 Q-26.7 -281.8 -26.7 -282.1 L-25.55 -281.9 Q-25.3 -282.35 -25.0 -283.55 L-24.85 -283.55 -24.8 -283.45 -24.6 -284.95 -23.75 -286.4 -22.6 -287.6 -21.95 -287.7 -20.95 -287.4 -20.4 -286.35 -18.9 -286.05 Q-16.7 -286.9 -15.3 -289.45 L-14.6 -290.8 Q-14.55 -291.3 -14.8 -292.25 L-15.05 -293.7 Q-14.6 -295.25 -13.15 -296.35 -11.7 -297.5 -11.55 -298.1 -11.45 -298.4 -12.3 -299.2 L-10.35 -300.15 Q-9.15 -300.8 -7.55 -299.85 -7.15 -298.9 -7.3 -298.3 M-95.2 -294.1 L-94.85 -294.05 -94.65 -293.8 -94.7 -293.55 -94.7 -293.6 -95.2 -293.55 Q-95.15 -292.8 -94.4 -292.2 L-93.4 -291.4 -92.35 -291.0 -92.55 -290.75 -92.7 -290.4 -92.2 -289.7 -91.7 -288.75 -91.95 -288.65 -93.2 -290.0 Q-94.15 -290.85 -95.7 -290.95 -95.7 -290.6 -96.0 -290.5 L-97.15 -291.7 Q-97.6 -292.35 -97.6 -293.15 L-97.6 -293.9 -96.55 -294.8 Q-96.05 -294.3 -95.3 -294.3 L-95.3 -294.1 -95.2 -294.1 M-11.9 -289.55 L-12.0 -289.45 -11.95 -289.55 -11.9 -289.55 M-22.25 -282.95 Q-22.65 -283.05 -22.8 -282.5 -22.95 -281.9 -22.75 -281.75 -22.2 -281.7 -22.05 -282.25 -21.9 -282.85 -22.25 -282.95" fill="#ffffff" fill-rule="evenodd" stroke="none"/>
  </g>
</svg>
