<?xml version="1.0" encoding="UTF-8" standalone="no"?>
<svg xmlns:ffdec="https://www.free-decompiler.com/flash" xmlns:xlink="http://www.w3.org/1999/xlink" ffdec:objectType="shape" height="284.55px" width="278.75px" xmlns="http://www.w3.org/2000/svg">
  <g transform="matrix(1.0, 0.0, 0.0, 1.0, 96.7, 542.8)">
    <path d="M139.1 -499.85 Q142.3 -499.35 143.85 -499.9 L145.35 -500.4 147.15 -501.7 149.2 -503.35 Q151.65 -505.75 151.95 -506.85 L151.85 -507.7 153.15 -509.8 153.0 -511.3 152.45 -511.5 Q151.95 -511.95 152.1 -512.55 L151.2 -512.45 151.2 -512.4 151.2 -512.55 152.1 -513.55 153.0 -514.35 154.15 -514.5 154.7 -514.9 155.2 -515.8 156.8 -517.6 159.4 -518.45 Q160.65 -517.8 161.4 -517.95 L161.55 -518.0 161.35 -518.0 161.25 -518.1 163.15 -519.1 164.35 -520.15 Q165.7 -521.75 165.9 -522.45 L165.9 -523.6 165.85 -523.85 165.8 -524.15 165.75 -524.35 165.85 -524.45 165.85 -525.3 165.95 -525.3 166.0 -526.9 Q166.05 -528.75 165.55 -528.85 L164.9 -528.65 164.85 -528.6 164.85 -528.8 165.55 -529.8 166.45 -530.95 166.85 -531.05 167.55 -531.05 168.0 -531.6 168.7 -532.05 169.25 -532.05 170.05 -531.4 169.95 -531.75 170.0 -531.8 170.1 -531.6 170.15 -531.55 170.2 -531.5 170.4 -530.85 170.45 -530.65 170.55 -530.65 171.1 -530.75 Q171.95 -532.45 173.35 -533.3 L173.15 -533.6 Q173.45 -533.9 174.7 -534.15 L176.05 -534.4 176.6 -534.2 176.75 -533.1 176.7 -533.05 177.25 -532.9 Q177.5 -532.9 178.15 -533.35 L177.8 -532.6 Q177.55 -532.2 177.95 -531.75 L179.0 -531.1 Q179.3 -531.05 179.4 -531.3 L179.5 -531.2 178.85 -530.5 177.2 -530.35 Q175.75 -529.15 175.85 -528.2 L175.55 -528.3 Q176.0 -528.75 175.3 -530.6 L174.75 -530.6 173.55 -531.25 173.1 -531.3 171.45 -530.3 170.6 -528.95 170.45 -529.0 170.45 -529.15 170.2 -529.25 170.3 -529.5 170.2 -529.3 170.05 -528.85 Q169.85 -528.1 170.25 -527.5 L170.4 -526.85 170.15 -526.35 170.05 -525.6 Q170.1 -525.25 170.6 -524.85 L170.6 -523.1 170.5 -521.45 170.05 -521.55 169.65 -521.55 168.4 -518.55 168.1 -516.85 168.4 -515.95 168.45 -515.1 168.05 -514.35 167.95 -514.35 167.65 -513.65 167.55 -512.5 Q167.4 -511.8 167.75 -511.3 L168.1 -511.05 169.0 -510.8 169.8 -511.25 169.55 -510.4 168.45 -509.2 166.95 -507.9 165.1 -506.9 164.15 -506.15 Q164.05 -505.7 162.4 -504.25 L160.85 -502.8 Q160.3 -502.15 158.35 -501.45 156.45 -500.75 156.2 -500.45 L154.9 -498.7 152.85 -497.2 150.1 -496.6 149.1 -496.35 148.1 -496.3 Q147.1 -495.9 146.7 -495.9 L143.6 -495.35 141.05 -494.25 Q139.2 -493.3 138.95 -492.65 L138.2 -492.35 136.7 -491.4 Q136.05 -491.0 135.95 -490.45 L136.0 -489.85 135.95 -489.55 136.15 -489.35 Q135.9 -488.7 137.15 -487.8 L137.15 -487.25 137.2 -487.15 137.1 -485.65 137.05 -485.5 136.15 -483.9 134.9 -483.1 133.75 -482.75 132.3 -481.2 Q132.0 -480.95 131.85 -480.4 L131.75 -479.6 131.85 -479.65 131.7 -479.45 131.6 -479.35 131.4 -479.15 131.45 -479.25 130.0 -478.3 129.5 -477.9 128.65 -476.95 128.65 -476.7 128.35 -475.35 128.2 -474.9 127.7 -473.9 127.1 -473.15 126.85 -472.75 125.8 -471.75 124.9 -471.25 124.5 -471.0 Q123.4 -470.25 123.15 -469.95 L123.1 -470.0 123.0 -470.0 123.1 -470.1 123.0 -470.05 Q122.35 -469.7 121.35 -468.7 L119.9 -467.3 119.8 -467.3 119.8 -467.5 120.55 -468.6 121.3 -469.55 122.1 -471.7 Q122.55 -473.3 122.35 -474.2 L122.25 -474.75 121.95 -475.55 121.5 -475.75 121.3 -476.1 Q120.9 -477.0 120.95 -478.75 120.85 -479.65 121.35 -481.4 L121.85 -482.95 121.9 -483.0 122.1 -483.35 122.15 -483.45 122.25 -483.65 122.25 -483.8 123.45 -485.9 Q124.7 -487.8 125.55 -488.25 L125.65 -488.3 125.6 -487.9 125.7 -487.35 126.1 -487.25 Q126.5 -487.35 127.5 -488.1 128.4 -488.85 128.95 -489.0 L129.75 -488.95 130.0 -489.05 130.0 -488.95 130.05 -488.9 130.1 -489.1 Q130.65 -488.9 131.55 -489.85 L132.4 -490.4 134.55 -492.1 Q136.9 -494.4 137.15 -495.3 L137.15 -495.8 137.45 -496.45 137.15 -497.65 137.55 -498.1 138.05 -498.8 138.55 -500.05 139.1 -499.85 M122.25 -483.25 L122.05 -482.9 122.05 -482.75 122.25 -483.25 M135.65 -492.7 L135.6 -492.6 135.65 -492.55 135.65 -492.7 M126.75 -487.15 L126.7 -487.1 126.75 -487.1 126.75 -487.15 M121.4 -469.1 L121.45 -469.1 121.45 -469.15 121.4 -469.1 M181.25 -541.95 L181.45 -541.85 Q181.25 -541.2 181.35 -540.8 L181.25 -540.2 181.05 -539.9 181.2 -539.4 181.3 -538.85 181.8 -538.4 182.05 -536.5 181.3 -533.75 181.15 -533.7 181.1 -534.4 Q180.5 -534.25 179.85 -533.25 L179.4 -532.45 179.45 -531.9 179.35 -531.6 Q179.0 -533.3 179.4 -534.85 L180.05 -536.05 180.0 -538.4 Q179.85 -540.15 179.45 -540.65 L178.15 -540.75 177.95 -540.8 178.9 -542.2 Q179.0 -542.5 178.75 -542.6 L179.5 -542.8 180.2 -542.1 181.25 -541.95 M178.3 -526.75 L178.25 -526.15 178.0 -525.7 177.9 -525.65 177.7 -526.45 Q177.5 -527.1 177.1 -527.2 L176.95 -527.95 177.15 -528.0 177.6 -527.8 177.95 -527.65 178.3 -526.75 M-74.75 -306.1 L-74.8 -306.1 -74.8 -306.05 -74.75 -306.05 -74.75 -306.1 M-74.55 -305.45 L-74.55 -304.95 -74.35 -304.7 -74.2 -304.45 -74.0 -304.3 Q-73.5 -303.95 -73.35 -303.45 L-73.4 -302.4 -73.0 -300.9 -72.9 -301.05 -72.85 -301.05 -72.65 -300.4 -72.5 -300.3 -72.55 -300.25 -71.95 -299.5 Q-70.45 -298.1 -68.5 -298.15 L-67.45 -298.3 -67.45 -298.35 Q-67.05 -298.35 -66.95 -298.55 -66.85 -298.6 -66.9 -298.85 L-66.5 -299.0 -65.75 -298.95 -65.6 -299.15 -65.2 -299.55 -64.85 -299.6 -64.5 -300.15 -64.4 -300.5 -64.2 -300.75 -63.65 -300.15 -63.15 -300.05 -62.4 -300.05 -62.45 -300.15 -62.05 -300.4 Q-61.85 -300.5 -61.75 -300.55 -61.3 -300.75 -61.0 -301.25 -60.6 -301.8 -60.6 -302.2 L-59.9 -303.15 Q-59.7 -303.35 -59.75 -304.15 -59.8 -304.85 -60.15 -305.2 -60.55 -305.55 -60.55 -305.85 L-60.45 -306.25 -60.1 -306.75 Q-59.95 -306.95 -59.95 -307.2 L-59.75 -307.65 -58.75 -306.75 -58.2 -306.6 -58.15 -306.7 -58.0 -306.75 -57.4 -306.6 Q-57.0 -306.65 -56.95 -306.75 L-56.5 -306.65 -56.3 -306.9 Q-56.4 -306.15 -55.25 -305.7 -55.0 -305.75 -54.6 -306.05 -54.15 -306.45 -54.05 -306.75 -53.85 -307.35 -53.9 -308.1 -53.9 -308.65 -54.45 -309.55 -55.0 -310.55 -55.6 -310.85 L-55.95 -310.85 -56.0 -310.75 Q-56.35 -310.85 -56.4 -311.3 L-56.2 -311.7 -56.3 -312.2 Q-55.9 -312.25 -55.7 -312.55 L-55.55 -313.0 -55.75 -313.4 -55.9 -314.0 -55.8 -314.15 -55.65 -314.2 -54.8 -314.0 -54.75 -313.65 -53.6 -313.6 -52.55 -313.0 -51.75 -312.5 -51.8 -312.4 -52.1 -312.25 -52.05 -312.05 -51.4 -310.8 -50.65 -309.9 -50.35 -308.7 -50.3 -307.55 -50.95 -306.7 -51.1 -305.5 Q-51.05 -304.6 -50.7 -304.4 L-50.45 -304.4 -50.1 -303.7 -50.0 -303.15 -50.1 -302.6 -50.05 -302.2 -49.8 -302.15 -49.75 -302.0 Q-50.25 -301.85 -50.5 -301.4 L-51.05 -300.7 -51.55 -300.65 -52.25 -299.25 Q-52.7 -298.45 -54.0 -298.05 L-54.1 -298.15 -54.7 -298.2 -54.75 -298.15 -56.15 -297.6 -56.75 -297.15 -57.45 -296.45 Q-57.85 -296.1 -58.55 -295.95 L-59.3 -295.8 -59.35 -295.9 -60.1 -295.9 -60.15 -295.75 -61.15 -295.7 -62.5 -295.9 -63.9 -296.1 Q-64.7 -296.05 -65.75 -295.35 -66.8 -294.65 -68.75 -294.6 L-69.75 -294.8 -70.9 -294.95 -72.05 -294.45 Q-72.75 -293.9 -73.65 -293.95 L-73.7 -293.9 -74.15 -293.85 -74.3 -293.75 -74.55 -293.65 -74.6 -293.6 -75.3 -293.15 -75.5 -292.8 -75.75 -292.4 -76.9 -290.9 -76.95 -290.9 -77.45 -290.45 -77.9 -290.0 -78.0 -289.9 -78.65 -289.6 Q-79.55 -289.15 -79.95 -289.05 L-81.35 -288.55 -81.65 -288.2 -81.6 -288.2 -81.8 -288.05 -82.4 -287.15 Q-82.9 -286.0 -83.6 -285.45 L-84.25 -285.05 -84.9 -284.9 -86.6 -284.7 -87.3 -284.2 -87.45 -283.9 -87.4 -283.65 Q-87.35 -283.05 -87.75 -282.45 -88.3 -281.7 -89.3 -281.65 L-90.25 -281.4 -91.95 -281.25 -92.6 -281.15 -92.6 -281.2 -92.9 -281.25 -93.3 -281.0 -94.6 -280.8 -94.6 -280.7 -95.25 -280.65 -96.4 -280.75 -96.3 -281.3 -96.2 -281.8 -96.25 -282.0 -96.45 -282.1 -96.7 -282.5 -95.9 -284.05 -94.6 -285.6 -95.25 -284.7 -95.45 -283.95 -95.35 -283.5 -95.0 -283.4 -94.0 -283.3 Q-92.65 -283.35 -91.75 -283.9 -91.25 -284.25 -91.2 -284.55 L-91.05 -284.6 Q-90.95 -285.4 -90.65 -285.75 -90.1 -286.35 -88.4 -286.75 L-87.75 -286.5 -87.35 -286.0 -87.25 -286.0 -87.3 -286.15 -87.25 -286.35 Q-86.75 -286.2 -86.5 -286.95 L-86.2 -288.2 -85.85 -289.4 -85.5 -290.25 -85.55 -290.3 -85.05 -290.95 -84.95 -291.0 -84.6 -290.55 -84.25 -290.4 -83.95 -290.35 -83.45 -290.5 -82.75 -290.1 -81.85 -290.05 -81.45 -290.35 Q-80.55 -290.95 -80.05 -291.65 -79.65 -292.35 -79.45 -293.4 L-79.4 -294.15 -79.25 -294.95 Q-78.8 -296.2 -78.8 -296.7 L-79.0 -297.6 -79.9 -298.6 -80.3 -298.6 -80.4 -298.65 -80.2 -300.45 Q-80.05 -301.55 -79.15 -302.1 L-79.2 -302.0 -77.75 -303.0 Q-76.75 -303.75 -76.45 -304.25 L-76.1 -304.2 Q-75.9 -304.2 -75.6 -304.5 L-75.35 -304.95 -74.95 -305.5 -74.9 -305.7 -74.9 -306.35 Q-74.5 -306.25 -74.55 -305.45 M-13.15 -292.25 Q-13.4 -291.45 -13.1 -291.1 L-12.6 -290.9 -12.85 -289.9 -13.2 -288.75 Q-13.55 -288.2 -14.3 -288.25 L-15.1 -287.45 -15.8 -286.85 -16.05 -286.9 -15.1 -288.4 -14.65 -290.1 -14.9 -290.25 -14.8 -290.65 -15.15 -290.65 Q-15.4 -290.3 -15.9 -290.25 L-15.95 -290.7 -14.7 -292.3 -13.7 -293.1 -12.6 -293.25 -11.9 -292.95 -12.65 -292.95 -12.9 -292.9 -13.15 -292.25 M-16.75 -289.9 L-16.4 -289.75 Q-17.15 -289.45 -17.3 -288.8 L-17.45 -288.25 -17.6 -287.75 -17.8 -287.5 -18.8 -286.45 -19.35 -285.85 -19.45 -285.85 -19.65 -285.55 -19.7 -285.6 -19.65 -285.6 -19.5 -285.85 -19.45 -285.95 -18.7 -286.95 -18.6 -287.2 -18.0 -288.45 -18.15 -288.7 -17.4 -289.45 -16.75 -289.9 M-17.2 -284.9 L-17.25 -284.2 -17.3 -283.45 -17.25 -282.75 -17.05 -282.35 -16.8 -281.95 -16.4 -280.5 -16.5 -279.85 -16.75 -279.25 -16.8 -278.55 -16.15 -278.15 -13.75 -277.85 -14.0 -277.95 -14.0 -278.15 -12.65 -278.25 -12.15 -278.55 -11.95 -278.75 -11.9 -278.7 -11.1 -279.4 Q-10.25 -280.25 -10.15 -280.8 L-10.05 -281.9 -10.35 -282.0 -9.8 -282.85 -9.65 -283.15 -9.6 -283.2 -9.45 -283.4 -9.4 -283.55 -9.3 -283.55 -9.4 -282.95 Q-9.8 -280.95 -9.65 -280.15 L-8.7 -278.2 -7.4 -276.3 -7.3 -276.25 -7.25 -276.1 -7.15 -275.9 -7.15 -275.85 -7.0 -274.7 -7.15 -273.85 Q-7.55 -272.45 -8.25 -271.8 L-9.25 -270.85 -9.9 -270.55 -10.35 -270.2 Q-11.45 -270.05 -12.55 -268.95 -13.65 -267.85 -13.9 -266.85 -14.35 -265.3 -13.8 -264.05 -13.35 -262.6 -13.45 -261.25 L-13.45 -261.1 -13.45 -261.05 -14.35 -260.15 Q-15.3 -259.55 -15.75 -258.5 L-15.7 -258.35 -15.8 -258.25 -16.3 -258.85 Q-17.7 -259.1 -18.45 -260.85 L-18.8 -262.55 Q-18.95 -264.5 -20.1 -265.8 L-20.4 -266.6 -20.8 -267.65 -21.5 -268.95 -21.7 -269.2 -23.75 -270.2 -24.15 -271.65 -24.75 -273.2 -24.65 -274.6 -24.9 -275.85 -25.35 -277.35 -25.95 -278.2 -26.3 -278.95 -25.8 -280.2 -26.0 -280.8 -26.05 -280.95 -26.1 -281.05 -26.15 -281.2 -26.2 -281.2 -26.25 -281.25 -26.2 -281.25 -26.2 -281.55 -26.1 -281.55 Q-25.85 -281.05 -25.4 -281.25 L-24.95 -281.0 -24.8 -280.95 -23.6 -281.4 -23.75 -281.0 -23.25 -280.35 Q-22.25 -280.1 -19.75 -282.05 L-17.6 -284.3 -17.3 -284.95 -17.2 -284.9 M-21.25 -283.95 L-20.75 -284.5 -20.05 -285.0 -22.45 -282.85 -22.55 -282.85 -21.9 -283.4 -21.25 -283.95 M-21.65 -269.2 L-21.6 -269.2 -21.65 -269.25 -21.65 -269.2 M-25.75 -280.9 L-25.75 -281.0 -25.95 -281.05 -25.75 -280.9" fill="#ffffff" fill-rule="evenodd" stroke="none"/>
  </g>
</svg>
