<?xml version="1.0" encoding="UTF-8" standalone="no"?>
<svg xmlns:ffdec="https://www.free-decompiler.com/flash" xmlns:xlink="http://www.w3.org/1999/xlink" ffdec:objectType="shape" height="530.05px" width="438.1px" xmlns="http://www.w3.org/2000/svg">
  <g transform="matrix(1.0, 0.0, 0.0, 1.0, 20.25, 748.5)">
    <path d="M417.85 -745.0 Q319.65 -726.05 266.2 -687.3 245.65 -672.4 229.35 -652.9 219.9 -641.6 205.35 -619.7 197.8 -608.3 190.35 -586.95 180.7 -559.3 177.85 -553.15 171.75 -539.85 172.85 -520.0 175.35 -497.65 175.35 -486.6 175.35 -464.15 165.55 -443.45 158.0 -427.5 142.6 -409.15 L116.15 -379.25 Q101.7 -362.3 96.0 -349.4 L87.45 -332.05 Q81.75 -320.65 79.75 -313.75 L75.4 -296.35 Q72.3 -285.3 67.85 -279.1 L55.2 -261.5 Q46.95 -250.65 40.35 -244.7 L32.9 -241.7 Q25.65 -238.95 24.75 -238.15 L18.9 -233.4 Q15.55 -230.9 14.75 -230.65 10.45 -229.15 7.4 -227.0 L2.75 -223.55 Q-3.15 -219.75 -19.6 -218.45 -19.9 -219.4 -19.9 -223.15 L-18.15 -231.85 -18.05 -232.15 -19.6 -231.9 Q-20.05 -233.2 -20.15 -234.45 L-20.25 -238.0 Q-20.25 -243.35 -15.8 -254.7 -12.7 -267.9 -1.4 -285.6 L-0.6 -287.2 Q0.95 -290.15 3.75 -293.3 19.1 -315.45 39.25 -334.6 L67.2 -360.15 Q83.2 -374.6 87.5 -379.6 93.7 -386.85 100.7 -403.25 L102.8 -408.15 Q105.45 -418.5 106.55 -428.65 106.15 -436.4 103.75 -446.55 101.3 -456.85 97.85 -465.65 96.7 -468.6 92.4 -474.8 88.25 -480.65 87.4 -483.45 86.1 -487.3 86.0 -494.15 L86.15 -502.65 Q86.15 -540.25 108.55 -578.2 127.8 -610.85 161.25 -640.15 190.4 -665.7 222.75 -682.6 L226.55 -684.55 222.85 -683.75 Q234.5 -690.4 258.2 -701.05 281.7 -711.65 289.75 -716.25 L305.55 -726.4 Q315.4 -732.9 321.9 -735.95 L330.05 -740.5 Q335.9 -743.75 340.7 -745.5 355.45 -750.85 373.15 -746.6 382.55 -745.95 383.5 -745.35 L405.05 -744.4 405.15 -744.2 414.75 -745.35 414.75 -745.95 Q417.55 -745.65 417.85 -745.0" fill="#ffffff" fill-opacity="0.44705883" fill-rule="evenodd" stroke="none"/>
  </g>
</svg>
