<?xml version="1.0" encoding="UTF-8" standalone="no"?>
<svg xmlns:ffdec="https://www.free-decompiler.com/flash" xmlns:xlink="http://www.w3.org/1999/xlink" ffdec:objectType="shape" height="520.6px" width="461.5px" xmlns="http://www.w3.org/2000/svg">
  <g transform="matrix(1.0, 0.0, 0.0, 1.0, 19.75, 748.7)">
    <path d="M441.75 -747.2 L441.7 -746.15 Q441.55 -745.75 440.25 -745.7 L440.25 -744.1 Q440.25 -717.8 395.4 -680.45 L388.95 -675.2 Q384.5 -671.55 379.75 -668.0 L368.45 -659.95 367.05 -659.0 Q347.45 -645.2 321.5 -629.2 L281.75 -603.95 282.0 -603.7 268.95 -595.45 251.05 -583.55 237.55 -574.15 204.55 -550.8 Q185.15 -536.15 169.15 -522.2 122.95 -481.8 101.9 -444.6 97.15 -433.15 91.0 -414.35 86.6 -400.8 85.0 -383.45 84.1 -373.1 83.8 -352.05 83.5 -331.1 82.55 -320.55 81.45 -308.3 78.9 -297.85 L79.5 -296.1 77.0 -290.9 76.5 -289.35 76.2 -289.45 Q64.9 -270.1 34.9 -249.65 21.1 -240.25 8.15 -234.05 -4.4 -228.1 -9.85 -228.1 L-12.9 -228.4 -18.25 -229.1 -19.2 -230.3 Q-19.75 -231.25 -19.75 -232.85 L-19.7 -233.75 -19.75 -234.6 -19.5 -236.6 Q-18.55 -241.35 -14.15 -253.5 L-8.5 -268.35 Q-5.55 -273.45 -2.85 -279.3 3.1 -285.85 12.15 -311.4 19.95 -333.3 21.75 -345.0 L22.05 -345.9 Q26.25 -357.8 26.25 -359.35 26.25 -359.7 33.2 -384.0 40.3 -408.85 41.75 -413.35 45.4 -424.75 53.35 -440.3 L57.25 -447.7 59.75 -451.5 61.8 -453.65 Q66.8 -463.25 75.75 -473.5 80.2 -478.6 85.15 -483.25 L93.15 -492.85 93.55 -493.2 95.35 -494.45 Q119.8 -516.8 160.0 -542.6 183.2 -557.55 209.3 -572.7 L217.8 -577.65 Q286.7 -623.0 300.75 -630.35 L300.15 -629.85 Q327.35 -648.65 350.9 -668.1 406.75 -714.25 406.75 -737.2 406.75 -738.15 405.0 -742.8 L402.75 -748.2 403.2 -748.45 403.5 -748.7 404.6 -747.45 Q410.3 -747.7 441.0 -747.95 L441.75 -747.2" fill="#ffffff" fill-opacity="0.44705883" fill-rule="evenodd" stroke="none"/>
  </g>
</svg>
