<?xml version="1.0" encoding="UTF-8" standalone="no"?>
<svg xmlns:ffdec="https://www.free-decompiler.com/flash" xmlns:xlink="http://www.w3.org/1999/xlink" ffdec:objectType="shape" height="20.9px" width="35.65px" xmlns="http://www.w3.org/2000/svg">
  <g transform="matrix(1.0, 0.0, 0.0, 1.0, 18.3, 47.9)">
    <path d="M4.55 -43.0 Q6.0 -42.15 7.3 -42.9 7.05 -43.95 6.0 -44.65 6.15 -44.9 6.35 -45.1 6.55 -45.4 6.9 -45.6 L7.9 -46.15 8.4 -45.15 Q8.2 -44.9 8.2 -44.55 8.15 -43.65 8.4 -42.8 8.8 -41.95 9.8 -41.5 10.95 -41.0 12.2 -41.1 L12.65 -41.15 Q12.65 -39.2 12.2 -37.3 13.8 -36.85 14.4 -39.7 14.75 -41.15 14.65 -42.4 16.6 -40.5 14.6 -37.0 12.25 -32.95 8.05 -34.7 7.85 -34.55 7.55 -34.5 6.95 -34.3 6.5 -34.7 6.65 -35.85 8.05 -36.5 8.65 -36.8 9.2 -36.45 9.5 -36.85 10.05 -36.9 L10.1 -36.95 10.4 -37.2 Q10.6 -37.35 10.75 -37.6 10.95 -38.2 10.8 -38.7 10.05 -38.95 9.4 -39.5 8.95 -39.9 8.45 -40.0 8.25 -39.9 8.2 -39.45 L8.15 -39.25 Q7.65 -38.95 6.95 -38.85 6.5 -38.85 6.05 -39.2 5.65 -39.75 5.95 -40.3 5.95 -40.35 5.95 -40.45 4.85 -40.9 3.55 -40.7 3.6 -40.35 3.25 -40.1 L2.6 -39.65 Q2.4 -39.3 2.6 -38.9 2.85 -38.4 2.35 -38.25 1.25 -38.1 0.6 -39.35 0.45 -39.65 0.4 -39.95 L-0.15 -40.0 0.4 -40.3 0.45 -40.45 Q0.3 -40.8 -0.1 -41.05 -0.5 -41.25 -0.75 -41.55 0.15 -43.4 2.7 -43.85 L3.15 -43.95 Q3.8 -43.4 4.55 -43.0 M8.0 -45.0 L8.2 -44.75 Q8.15 -44.9 8.0 -45.0 M8.7 -42.25 Q8.8 -42.1 8.85 -41.95 L8.9 -41.95 Q8.8 -42.1 8.7 -42.25 M11.25 -38.45 L11.4 -38.5 11.25 -38.55 11.25 -38.45 M-15.0 -40.2 Q-13.8 -39.35 -11.85 -41.35 L-10.95 -42.4 -10.8 -42.4 Q-9.35 -43.05 -7.7 -43.2 -7.4 -42.9 -7.4 -42.45 -6.85 -42.25 -6.25 -41.75 -4.65 -40.5 -4.05 -39.1 -3.7 -38.9 -3.3 -38.8 -3.0 -39.15 -3.25 -39.55 -3.65 -40.1 -3.15 -40.55 L-3.05 -40.6 Q-1.1 -40.4 -2.3 -38.1 -2.8 -37.2 -3.75 -37.15 -4.45 -38.35 -5.45 -39.3 -6.2 -39.85 -7.0 -40.55 -7.85 -41.05 -8.8 -41.3 L-9.15 -41.2 Q-9.35 -40.85 -9.65 -40.7 L-9.95 -40.85 -9.85 -40.95 Q-9.9 -40.9 -10.0 -40.9 -11.8 -41.9 -12.8 -39.45 -12.15 -38.7 -11.45 -37.7 -10.85 -36.8 -10.0 -36.5 -9.05 -35.9 -8.1 -35.45 L-7.7 -35.35 Q-6.55 -35.15 -6.15 -34.25 -6.15 -33.85 -6.4 -33.6 L-6.45 -33.5 Q-6.75 -33.1 -7.3 -33.05 -7.8 -32.95 -8.15 -32.55 -7.55 -31.3 -6.1 -31.0 -5.4 -31.45 -4.55 -31.85 -3.9 -32.1 -3.2 -32.3 L-3.3 -32.1 -3.0 -32.15 Q-3.3 -31.7 -3.6 -31.3 -3.0 -31.65 -2.8 -32.3 L-2.7 -32.4 Q-2.5 -32.3 -2.4 -32.1 -2.35 -32.0 -2.35 -31.9 L-2.4 -31.9 Q-3.1 -31.05 -4.0 -30.8 -6.25 -28.45 -9.8 -28.75 L-9.95 -28.75 -10.8 -28.9 Q-11.25 -28.95 -11.75 -29.4 -14.85 -31.85 -14.95 -35.3 -14.35 -35.05 -13.8 -34.65 L-14.05 -34.4 Q-13.05 -33.2 -11.75 -32.15 -10.35 -31.0 -8.75 -30.75 -8.5 -32.45 -10.25 -33.7 L-10.6 -34.0 Q-13.3 -36.9 -16.3 -39.05 -16.5 -39.2 -16.55 -39.35 -15.55 -40.4 -14.4 -41.1 L-15.0 -40.2 M-6.4 -30.85 L-6.4 -30.75 -6.35 -30.75 -6.4 -30.85 -6.25 -30.95 -6.8 -31.15 Q-7.55 -31.5 -7.95 -31.8 -7.75 -31.6 -7.4 -31.45 -6.95 -31.2 -6.45 -31.0 L-6.4 -30.85" fill="#ffffff" fill-rule="evenodd" stroke="none"/>
    <path d="M4.55 -43.0 Q6.0 -42.15 7.3 -42.9 7.05 -43.95 6.0 -44.65 6.15 -44.9 6.35 -45.1 6.55 -45.4 6.9 -45.6 L7.9 -46.15 8.4 -45.15 Q8.2 -44.9 8.2 -44.55 8.15 -43.65 8.4 -42.8 8.8 -41.95 9.8 -41.5 10.95 -41.0 12.2 -41.1 L12.65 -41.15 Q12.65 -39.2 12.2 -37.3 13.8 -36.85 14.4 -39.7 14.75 -41.15 14.65 -42.4 16.6 -40.5 14.6 -37.0 12.25 -32.95 8.05 -34.7 7.85 -34.55 7.55 -34.5 6.95 -34.3 6.5 -34.7 6.65 -35.85 8.05 -36.5 8.65 -36.8 9.2 -36.45 9.5 -36.85 10.05 -36.9 L10.1 -36.95 10.4 -37.2 Q10.6 -37.35 10.75 -37.6 10.95 -38.2 10.8 -38.7 10.05 -38.95 9.4 -39.5 8.95 -39.9 8.45 -40.0 8.25 -39.9 8.2 -39.45 L8.15 -39.25 Q7.65 -38.95 6.95 -38.85 6.5 -38.85 6.05 -39.2 5.65 -39.75 5.95 -40.3 5.95 -40.35 5.95 -40.45 4.85 -40.9 3.55 -40.7 3.6 -40.35 3.25 -40.1 L2.6 -39.65 Q2.4 -39.3 2.6 -38.9 2.85 -38.4 2.35 -38.25 1.25 -38.1 0.6 -39.35 0.45 -39.65 0.4 -39.95 L-0.15 -40.0 0.4 -40.3 0.45 -40.45 Q0.3 -40.8 -0.1 -41.05 -0.5 -41.25 -0.75 -41.55 0.15 -43.4 2.7 -43.85 L3.15 -43.95 Q3.8 -43.4 4.55 -43.0 M-15.0 -40.2 L-14.4 -41.1 Q-15.55 -40.4 -16.55 -39.35 -16.5 -39.2 -16.3 -39.05 -13.3 -36.9 -10.6 -34.0 L-10.25 -33.7 Q-8.5 -32.45 -8.75 -30.75 -10.35 -31.0 -11.75 -32.15 -13.05 -33.2 -14.05 -34.4 L-13.8 -34.65 Q-14.35 -35.05 -14.95 -35.3 -14.85 -31.85 -11.75 -29.4 -11.25 -28.95 -10.8 -28.9 L-9.95 -28.75 -9.8 -28.75 Q-6.25 -28.45 -4.0 -30.8 -3.1 -31.05 -2.4 -31.9 L-2.35 -31.9 Q-2.35 -32.0 -2.4 -32.1 -2.5 -32.3 -2.7 -32.4 L-2.8 -32.3 Q-3.0 -31.65 -3.6 -31.3 -3.3 -31.7 -3.0 -32.15 L-3.3 -32.1 -3.2 -32.3 Q-3.9 -32.1 -4.55 -31.85 -5.4 -31.45 -6.1 -31.0 -7.55 -31.3 -8.15 -32.55 -7.8 -32.95 -7.3 -33.05 -6.75 -33.1 -6.45 -33.5 L-6.4 -33.6 Q-6.15 -33.85 -6.15 -34.25 -6.55 -35.15 -7.7 -35.35 L-8.1 -35.45 Q-9.05 -35.9 -10.0 -36.5 -10.85 -36.8 -11.45 -37.7 -12.15 -38.7 -12.8 -39.45 -11.8 -41.9 -10.0 -40.9 -9.9 -40.9 -9.85 -40.95 L-9.95 -40.85 -9.65 -40.7 Q-9.35 -40.85 -9.15 -41.2 L-8.8 -41.3 Q-7.85 -41.05 -7.0 -40.55 -6.2 -39.85 -5.45 -39.3 -4.45 -38.35 -3.75 -37.15 -2.8 -37.2 -2.3 -38.1 -1.1 -40.4 -3.05 -40.6 L-3.15 -40.55 Q-3.65 -40.1 -3.25 -39.55 -3.0 -39.15 -3.3 -38.8 -3.7 -38.9 -4.05 -39.1 -4.65 -40.5 -6.25 -41.75 -6.85 -42.25 -7.4 -42.45 -7.4 -42.9 -7.7 -43.2 -9.35 -43.05 -10.8 -42.4 L-10.95 -42.4 -11.85 -41.35 Q-13.8 -39.35 -15.0 -40.2 Z" fill="none" stroke="#ffffff" stroke-linecap="round" stroke-linejoin="round" stroke-opacity="0.3019608" stroke-width="1.1500000000000001"/>
  </g>
</svg>
