<?xml version="1.0" encoding="UTF-8" standalone="no"?>
<svg xmlns:ffdec="https://www.free-decompiler.com/flash" xmlns:xlink="http://www.w3.org/1999/xlink" ffdec:objectType="shape" height="33.5px" width="22.55px" xmlns="http://www.w3.org/2000/svg">
  <g transform="matrix(1.0, 0.0, 0.0, 1.0, 12.1, 60.6)">
    <path d="M4.05 -58.0 Q3.5 -57.6 2.9 -57.3 L2.8 -57.65 Q1.25 -57.4 -0.3 -56.8 -2.0 -56.2 -3.0 -54.95 -1.7 -53.85 0.3 -54.7 L0.7 -54.9 Q4.55 -55.7 7.95 -57.2 8.15 -57.3 8.35 -57.3 8.7 -55.9 8.75 -54.55 L8.3 -55.5 Q6.95 -54.9 7.7 -52.2 7.85 -51.5 8.1 -50.9 L8.05 -50.8 Q7.85 -49.2 7.15 -47.7 6.7 -47.6 6.35 -47.85 5.9 -47.45 5.2 -47.2 3.25 -46.45 1.8 -46.65 1.4 -46.45 1.15 -46.2 1.3 -45.7 1.8 -45.75 2.45 -45.8 2.55 -45.15 L2.55 -45.0 Q1.4 -43.45 0.05 -45.65 -0.5 -46.5 -0.05 -47.4 1.35 -47.4 2.65 -47.75 3.55 -48.15 4.5 -48.45 5.4 -48.9 6.05 -49.6 L6.15 -50.0 Q6.0 -50.35 6.0 -50.7 L6.25 -50.85 6.3 -50.75 6.3 -50.85 Q8.1 -51.9 6.55 -54.0 L4.35 -53.75 Q3.2 -53.65 2.55 -53.05 1.6 -52.6 0.65 -52.0 L0.4 -51.7 Q-0.35 -50.8 -1.3 -50.9 -1.7 -51.1 -1.75 -51.5 L-1.85 -51.55 Q-2.0 -52.0 -1.8 -52.5 -1.65 -53.0 -1.8 -53.5 -3.2 -53.6 -4.15 -52.55 -4.1 -51.7 -4.2 -50.8 -4.3 -50.1 -4.5 -49.35 L-4.65 -49.55 -4.75 -49.3 Q-5.0 -49.75 -5.15 -50.25 -5.15 -49.55 -4.7 -49.0 L-4.7 -48.9 Q-4.85 -48.8 -5.1 -48.8 L-5.3 -48.85 -5.3 -48.9 Q-5.6 -49.95 -5.35 -50.85 -6.25 -53.95 -4.2 -56.85 L-4.1 -56.95 -3.55 -57.65 Q-3.3 -57.95 -2.65 -58.2 1.0 -59.6 4.05 -58.0 M0.75 -37.3 Q-0.75 -36.45 -0.75 -34.95 0.25 -34.65 1.45 -35.2 1.6 -34.95 1.65 -34.7 1.8 -34.35 1.8 -33.95 L1.8 -32.8 0.65 -32.85 Q0.55 -33.15 0.25 -33.35 -0.5 -33.85 -1.35 -34.05 -2.3 -34.15 -3.2 -33.5 -4.2 -32.8 -4.75 -31.7 L-4.95 -31.25 Q-6.65 -32.2 -8.05 -33.65 -9.2 -32.5 -7.1 -30.45 -6.0 -29.5 -4.9 -28.95 -7.5 -28.2 -9.5 -31.7 -11.8 -35.8 -8.15 -38.45 -8.15 -38.75 -8.1 -39.05 -7.95 -39.6 -7.35 -39.8 -6.45 -39.1 -6.6 -37.55 -6.65 -36.9 -7.25 -36.6 -7.05 -36.15 -7.25 -35.65 L-7.3 -35.6 Q-7.2 -35.4 -7.2 -35.2 -7.15 -34.9 -7.05 -34.7 -6.6 -34.25 -6.1 -34.1 -5.5 -34.6 -4.7 -34.9 -4.15 -35.1 -3.8 -35.5 -3.8 -35.7 -4.15 -35.95 L-4.3 -36.1 Q-4.3 -36.7 -4.0 -37.3 -3.8 -37.75 -3.3 -37.9 -2.6 -38.0 -2.3 -37.45 L-2.1 -37.35 Q-1.2 -38.1 -0.7 -39.3 -1.05 -39.4 -1.05 -39.85 -1.05 -40.3 -1.15 -40.7 -1.35 -41.0 -1.75 -41.05 -2.3 -41.1 -2.25 -41.6 -1.75 -42.6 -0.4 -42.5 -0.05 -42.5 0.25 -42.4 0.4 -42.65 0.6 -42.85 L0.5 -42.2 0.65 -42.15 Q1.05 -42.05 1.4 -42.3 1.85 -42.55 2.2 -42.55 3.35 -40.85 2.45 -38.45 L2.25 -38.0 Q1.5 -37.75 0.75 -37.3 M0.75 -33.35 L0.4 -33.25 Q0.6 -33.2 0.75 -33.35 M-4.15 -52.85 L-4.15 -52.65 -3.65 -53.05 Q-3.0 -53.5 -2.5 -53.7 -2.8 -53.6 -3.1 -53.45 L-4.0 -52.8 -4.15 -52.85 -4.25 -52.9 -4.25 -52.85 -4.15 -52.85 M-6.45 -33.8 L-6.55 -33.85 -6.55 -33.7 -6.45 -33.8 M-2.0 -34.1 L-2.35 -34.1 -2.35 -34.05 -2.0 -34.1" fill="#ffffff" fill-rule="evenodd" stroke="none"/>
    <path d="M4.05 -58.0 Q1.0 -59.6 -2.65 -58.2 -3.3 -57.95 -3.55 -57.65 L-4.1 -56.95 -4.2 -56.85 Q-6.25 -53.95 -5.35 -50.85 -5.6 -49.95 -5.3 -48.9 L-5.3 -48.85 -5.1 -48.8 Q-4.85 -48.8 -4.7 -48.9 L-4.7 -49.0 Q-5.15 -49.55 -5.15 -50.25 -5.0 -49.75 -4.75 -49.3 L-4.65 -49.55 -4.5 -49.35 Q-4.3 -50.1 -4.2 -50.8 -4.1 -51.7 -4.15 -52.55 -3.2 -53.6 -1.8 -53.5 -1.65 -53.0 -1.8 -52.5 -2.0 -52.0 -1.85 -51.55 L-1.75 -51.5 Q-1.7 -51.1 -1.3 -50.9 -0.35 -50.8 0.4 -51.7 L0.65 -52.0 Q1.6 -52.6 2.55 -53.05 3.2 -53.65 4.35 -53.75 L6.55 -54.0 Q8.1 -51.9 6.3 -50.85 L6.3 -50.75 6.25 -50.85 6.0 -50.7 Q6.0 -50.35 6.15 -50.0 L6.05 -49.6 Q5.4 -48.9 4.5 -48.45 3.55 -48.15 2.65 -47.75 1.35 -47.4 -0.05 -47.4 -0.5 -46.5 0.05 -45.65 1.4 -43.45 2.55 -45.0 L2.55 -45.15 Q2.45 -45.8 1.8 -45.75 1.3 -45.7 1.15 -46.2 1.4 -46.45 1.8 -46.65 3.25 -46.45 5.2 -47.2 5.9 -47.45 6.35 -47.85 6.7 -47.6 7.15 -47.7 7.85 -49.2 8.05 -50.8 L8.1 -50.9 Q7.85 -51.5 7.7 -52.2 6.95 -54.9 8.3 -55.5 L8.75 -54.55 Q8.7 -55.9 8.35 -57.3 8.15 -57.3 7.95 -57.2 4.55 -55.7 0.7 -54.9 L0.3 -54.7 Q-1.7 -53.85 -3.0 -54.95 -2.0 -56.2 -0.3 -56.8 1.25 -57.4 2.8 -57.65 L2.9 -57.3 Q3.5 -57.6 4.05 -58.0 M0.75 -37.3 Q-0.75 -36.45 -0.75 -34.95 0.25 -34.65 1.45 -35.2 1.6 -34.95 1.65 -34.7 1.8 -34.35 1.8 -33.95 L1.8 -32.8 0.65 -32.85 Q0.55 -33.15 0.25 -33.35 -0.5 -33.85 -1.35 -34.05 -2.3 -34.15 -3.2 -33.5 -4.2 -32.8 -4.75 -31.7 L-4.95 -31.25 Q-6.65 -32.2 -8.05 -33.65 -9.2 -32.5 -7.1 -30.45 -6.0 -29.5 -4.9 -28.95 -7.5 -28.2 -9.5 -31.7 -11.8 -35.8 -8.15 -38.45 -8.15 -38.75 -8.1 -39.05 -7.95 -39.6 -7.35 -39.8 -6.45 -39.1 -6.6 -37.55 -6.65 -36.9 -7.25 -36.6 -7.05 -36.15 -7.25 -35.65 L-7.3 -35.6 Q-7.2 -35.4 -7.2 -35.2 -7.15 -34.9 -7.05 -34.7 -6.6 -34.25 -6.1 -34.1 -5.5 -34.6 -4.7 -34.9 -4.15 -35.1 -3.8 -35.5 -3.8 -35.7 -4.15 -35.95 L-4.3 -36.1 Q-4.3 -36.7 -4.0 -37.3 -3.8 -37.75 -3.3 -37.9 -2.6 -38.0 -2.3 -37.45 L-2.1 -37.35 Q-1.2 -38.1 -0.7 -39.3 -1.05 -39.4 -1.05 -39.85 -1.05 -40.3 -1.15 -40.7 -1.35 -41.0 -1.75 -41.05 -2.3 -41.1 -2.25 -41.6 -1.75 -42.6 -0.4 -42.5 -0.05 -42.5 0.25 -42.4 0.4 -42.65 0.6 -42.85 L0.5 -42.2 0.65 -42.15 Q1.05 -42.05 1.4 -42.3 1.85 -42.55 2.2 -42.55 3.35 -40.85 2.45 -38.45 L2.25 -38.0 Q1.5 -37.75 0.75 -37.3 M0.75 -33.35 L0.4 -33.25 Q0.6 -33.2 0.75 -33.35 M-6.45 -33.8 L-6.55 -33.85 -6.55 -33.7 -6.45 -33.8 M-2.0 -34.1 L-2.35 -34.1 -2.35 -34.05 -2.0 -34.1 Z" fill="none" stroke="#ffffff" stroke-linecap="round" stroke-linejoin="round" stroke-opacity="0.3019608" stroke-width="1.1500000000000001"/>
  </g>
</svg>
