<?xml version="1.0" encoding="UTF-8" standalone="no"?>
<svg xmlns:ffdec="https://www.free-decompiler.com/flash" xmlns:xlink="http://www.w3.org/1999/xlink" ffdec:objectType="shape" height="36.8px" width="67.7px" xmlns="http://www.w3.org/2000/svg">
  <g transform="matrix(1.0, 0.0, 0.0, 1.0, 54.75, 47.05)">
    <path d="M0.9 -43.45 L1.05 -43.6 1.2 -43.65 1.25 -43.7 1.45 -43.8 1.65 -43.8 1.75 -43.75 1.95 -43.8 2.55 -43.85 2.7 -43.85 2.85 -43.7 3.1 -43.55 3.25 -43.35 3.3 -43.2 3.3 -43.15 3.35 -43.1 3.55 -42.8 3.85 -42.65 4.1 -42.45 4.45 -42.25 4.85 -42.0 5.2 -41.9 5.4 -41.85 5.4 -41.9 5.45 -41.95 5.5 -42.05 5.5 -42.15 5.55 -42.25 5.6 -42.3 5.6 -42.45 5.7 -42.5 5.8 -42.6 6.0 -42.7 6.1 -42.8 6.2 -42.85 6.9 -42.85 7.25 -42.75 7.35 -42.65 7.5 -42.6 7.55 -42.55 7.7 -42.5 7.9 -42.45 8.25 -42.1 8.3 -42.1 8.35 -42.05 8.65 -41.95 8.75 -41.85 8.95 -41.75 9.05 -41.65 9.2 -41.4 9.45 -41.05 9.65 -40.8 9.7 -40.7 9.7 -40.3 9.75 -40.25 9.75 -40.15 9.8 -40.1 9.8 -40.05 9.85 -39.95 9.95 -39.9 10.1 -39.9 10.25 -39.95 10.75 -39.95 11.65 -39.8 11.8 -39.75 12.0 -39.55 12.05 -39.4 12.1 -39.35 12.15 -39.1 12.15 -38.4 12.2 -38.3 12.3 -38.25 12.35 -38.15 12.4 -38.1 12.4 -37.95 12.5 -37.85 12.5 -37.3 12.55 -37.2 12.55 -37.15 12.6 -37.0 12.6 -36.45 12.7 -36.35 12.7 -36.2 12.75 -36.1 12.75 -35.6 12.8 -35.5 12.8 -35.45 12.85 -35.35 12.85 -34.95 12.95 -34.85 12.95 -34.3 12.9 -34.2 12.85 -34.15 12.85 -33.85 12.8 -33.8 12.7 -33.75 12.55 -33.6 12.25 -33.55 12.2 -33.5 12.1 -33.45 12.1 -33.4 11.8 -33.3 11.55 -33.15 11.4 -33.15 11.25 -33.0 11.2 -33.0 11.1 -32.95 10.8 -32.9 10.4 -33.1 10.3 -33.2 10.15 -33.25 10.0 -33.4 9.9 -33.45 9.75 -33.55 9.45 -33.85 9.3 -33.9 9.25 -33.95 9.05 -34.0 9.0 -34.05 8.8 -34.05 8.65 -34.1 8.55 -34.15 8.45 -34.25 8.25 -34.35 8.15 -34.45 8.0 -34.5 7.9 -34.6 7.8 -34.65 7.75 -34.7 7.75 -34.9 7.7 -35.0 7.65 -35.05 7.65 -35.1 6.9 -35.1 6.8 -35.05 6.7 -34.95 6.7 -34.85 6.75 -34.75 6.8 -34.7 6.8 -34.6 6.85 -34.55 6.85 -34.3 6.8 -34.2 6.75 -34.15 6.6 -33.95 6.6 -33.85 6.5 -33.75 6.45 -33.65 6.2 -33.4 6.2 -33.35 6.15 -33.25 6.05 -33.2 6.0 -33.15 5.8 -33.05 5.75 -33.0 5.65 -32.95 5.35 -32.95 5.2 -33.0 4.95 -33.1 4.65 -33.2 4.6 -33.15 4.45 -33.05 4.35 -33.0 4.2 -32.95 3.9 -32.95 3.45 -33.1 3.0 -33.2 2.65 -33.15 1.9 -33.1 1.7 -33.05 1.45 -33.05 1.15 -33.15 1.05 -33.25 0.95 -33.3 0.9 -33.35 0.85 -33.45 0.75 -33.5 0.7 -33.6 0.7 -33.8 0.65 -33.85 0.65 -33.9 0.6 -34.0 0.6 -34.2 0.55 -34.25 0.5 -34.35 0.45 -34.4 0.3 -34.45 0.3 -33.55 0.25 -33.5 0.2 -33.4 0.0 -33.25 -0.1 -33.2 -0.3 -33.15 -0.6 -33.15 -0.65 -33.05 -0.75 -32.95 -0.8 -32.85 -0.9 -32.8 -1.05 -32.75 -1.15 -32.7 -2.35 -32.7 -2.55 -32.75 -2.65 -32.85 -2.8 -32.9 -3.1 -32.95 -3.25 -33.0 -3.4 -33.15 -3.4 -33.2 -3.45 -33.3 -3.7 -33.55 -3.7 -33.6 -3.75 -33.65 -4.0 -33.6 -3.95 -33.5 -3.95 -32.95 -3.9 -32.9 -3.9 -32.8 -3.85 -32.75 -3.85 -32.7 -3.9 -32.6 -4.0 -32.5 -4.05 -32.4 -4.15 -32.35 -4.3 -32.25 -4.35 -32.25 -4.65 -32.2 -4.75 -32.1 -4.8 -32.1 -4.8 -32.05 -5.05 -32.0 -5.1 -31.95 -5.2 -31.9 -5.25 -31.9 -5.4 -31.85 -5.45 -31.75 -5.6 -31.6 -5.6 -31.4 -5.65 -31.35 -5.75 -31.3 -5.9 -31.2 -6.05 -31.15 -6.2 -31.0 -6.45 -30.95 -6.55 -30.9 -6.7 -30.85 -6.8 -30.8 -7.0 -30.75 -7.05 -30.65 -7.15 -30.6 -7.2 -30.55 -7.25 -30.55 -6.95 -30.45 -6.85 -30.4 -6.45 -30.0 -6.4 -29.9 -5.95 -29.75 -5.5 -29.65 -5.4 -29.55 -5.2 -29.45 -5.05 -29.3 -3.3 -29.25 -3.1 -29.2 -3.05 -29.1 -2.95 -29.05 -2.9 -29.0 -2.85 -28.85 -2.85 -28.8 -2.75 -28.8 -2.65 -28.85 -2.55 -28.85 -2.25 -28.9 -2.05 -29.1 -2.0 -29.2 -1.8 -29.25 -1.75 -29.3 -1.55 -29.4 -1.2 -29.4 -1.05 -29.35 -0.85 -29.25 -0.75 -29.1 -0.7 -28.95 -0.6 -28.9 -0.55 -28.8 -0.55 -28.75 -0.5 -28.7 -0.5 -28.6 -0.4 -28.5 -0.3 -28.35 -0.15 -28.2 -0.15 -28.15 0.15 -27.85 0.2 -27.75 0.2 -27.6 0.3 -27.55 0.35 -27.45 0.4 -27.4 0.4 -26.7 0.35 -26.65 0.3 -26.55 0.3 -26.5 0.25 -26.45 0.15 -26.3 0.0 -26.1 -0.05 -26.0 -0.15 -25.9 -0.15 -25.75 -0.2 -25.7 -0.25 -25.6 -0.3 -25.55 -0.3 -25.5 -0.35 -25.4 -0.4 -25.35 -0.4 -25.2 -0.45 -25.15 -0.45 -25.05 -0.1 -24.7 0.3 -24.5 0.35 -24.45 0.4 -24.35 0.4 -24.3 0.45 -24.25 0.45 -24.15 0.5 -23.9 0.5 -23.2 0.45 -23.15 0.45 -23.05 0.4 -22.95 0.4 -22.35 0.35 -22.25 0.3 -22.2 0.3 -22.0 0.25 -21.9 0.15 -21.8 0.15 -21.15 Q0.15 -21.05 0.05 -20.95 L-0.25 -20.7 -0.35 -20.55 -0.2 -20.4 -0.2 -20.25 -0.15 -20.2 -0.15 -20.1 -0.1 -20.05 -0.1 -19.9 -0.05 -19.85 -0.05 -19.45 0.0 -19.35 0.1 -19.3 0.15 -19.25 0.2 -19.15 0.2 -19.1 0.4 -18.9 0.4 -18.3 0.35 -18.2 0.35 -18.15 0.3 -18.05 0.3 -17.75 0.35 -17.75 0.55 -17.85 0.7 -17.95 0.8 -18.0 0.85 -18.05 0.9 -18.15 0.95 -18.2 1.0 -18.3 1.0 -18.35 1.05 -18.4 1.05 -18.55 1.1 -18.6 1.15 -18.7 1.2 -18.75 1.35 -18.75 1.8 -18.8 2.1 -18.7 2.2 -18.65 2.35 -18.55 2.4 -18.55 2.45 -18.5 2.6 -18.45 2.7 -18.4 2.75 -18.35 2.9 -18.25 3.1 -18.05 3.2 -18.0 3.2 -17.85 3.25 -17.75 3.3 -17.7 3.3 -17.1 Q3.35 -16.95 3.45 -16.9 L3.75 -16.6 3.9 -16.4 4.1 -16.2 Q4.15 -16.15 4.25 -16.15 L4.25 -16.05 4.35 -15.95 4.4 -15.85 4.4 -15.05 4.05 -14.7 3.95 -14.65 3.9 -14.55 3.85 -14.55 3.7 -14.5 3.4 -14.45 3.4 -14.4 2.8 -14.4 2.7 -14.45 2.65 -14.45 2.45 -14.4 2.35 -14.3 2.35 -14.25 2.4 -14.2 2.4 -14.0 2.45 -13.9 2.45 -13.85 2.5 -13.75 2.5 -13.55 2.45 -13.5 2.45 -13.45 2.4 -13.35 2.4 -13.1 2.35 -13.05 2.3 -12.95 2.3 -12.9 2.25 -12.8 2.2 -12.75 2.2 -12.7 2.15 -12.6 2.1 -12.55 2.0 -12.5 1.95 -12.45 1.95 -12.4 1.8 -12.35 1.75 -12.3 1.55 -12.3 1.4 -12.15 1.25 -12.1 0.95 -11.8 0.7 -11.75 0.7 -11.65 0.65 -11.6 0.55 -11.55 0.4 -11.5 0.25 -11.4 0.05 -11.3 -0.05 -11.2 -0.3 -11.05 -0.4 -11.0 -0.7 -10.7 -0.7 -10.55 -0.8 -10.45 -0.8 -10.4 -0.95 -10.35 -1.05 -10.25 -1.1 -10.25 -1.2 -10.3 -1.25 -10.3 -1.2 -10.45 -1.2 -10.6 -1.15 -10.65 -1.15 -10.95 -1.1 -11.0 -1.1 -11.05 -0.95 -11.35 -0.6 -11.7 -0.45 -11.8 -0.35 -12.0 -0.2 -12.15 -0.05 -12.25 0.05 -12.35 0.05 -12.45 0.2 -12.55 0.35 -12.7 0.6 -13.2 0.6 -13.25 0.55 -13.3 0.5 -13.4 0.5 -13.5 0.45 -13.6 0.45 -13.65 0.4 -13.75 0.4 -13.85 0.35 -14.0 0.3 -14.05 0.3 -14.15 0.25 -14.2 0.15 -14.35 0.15 -14.5 0.1 -14.55 0.0 -14.6 -0.05 -14.7 -0.15 -14.8 -0.15 -15.15 -0.1 -15.25 0.0 -15.35 0.15 -15.45 0.2 -15.5 0.3 -15.55 0.4 -15.65 0.7 -15.75 0.8 -15.8 1.2 -15.85 1.35 -15.85 1.5 -15.8 1.6 -15.75 1.95 -15.75 2.45 -15.8 2.35 -15.95 2.3 -16.0 2.25 -16.15 2.15 -16.3 2.15 -16.45 2.05 -16.55 2.05 -16.7 1.95 -16.8 1.7 -16.55 1.35 -16.35 1.2 -16.25 0.9 -16.15 0.6 -16.1 0.55 -16.05 -0.45 -16.05 -0.55 -16.0 -1.25 -16.0 -1.3 -16.05 -1.4 -16.1 -1.4 -16.2 -1.5 -16.3 -1.55 -16.4 -1.6 -16.55 -1.6 -17.35 -1.55 -17.4 -1.55 -17.5 -1.5 -17.55 -1.5 -17.7 -1.45 -17.75 -1.4 -17.9 -1.4 -18.45 -1.5 -18.55 -1.5 -18.5 -1.6 -18.45 -1.8 -18.4 -1.9 -18.35 -2.0 -18.35 -2.2 -18.3 -2.35 -18.35 -2.7 -18.45 -2.8 -18.55 -3.1 -18.6 Q-3.3 -18.65 -3.5 -18.75 L-3.7 -18.8 -3.8 -18.85 -3.8 -18.9 -3.85 -18.95 -3.95 -19.0 -4.2 -19.2 -4.5 -19.55 -4.7 -19.8 -4.7 -19.95 -4.85 -19.9 -4.85 -19.3 -4.9 -19.25 -4.95 -19.15 -4.95 -19.1 -5.0 -19.0 -5.0 -18.95 Q-4.9 -18.8 -4.8 -18.7 -4.55 -18.5 -4.4 -18.25 L-4.25 -18.0 -4.25 -17.4 -4.3 -17.25 Q-4.4 -17.15 -4.5 -17.05 L-4.8 -16.8 -4.9 -16.7 -5.9 -16.65 -5.45 -16.6 -5.3 -16.55 -5.2 -16.5 -5.05 -16.35 -4.95 -16.2 -4.9 -16.15 -4.85 -16.05 -4.85 -16.0 -4.8 -15.95 -4.8 -15.85 -4.6 -15.75 -4.45 -15.6 -4.35 -15.6 -4.2 -15.55 -4.1 -15.5 -4.05 -15.4 -4.05 -15.3 -4.0 -15.2 -3.95 -15.15 -3.95 -14.85 -3.85 -14.75 -3.85 -14.55 -3.9 -14.45 -3.9 -14.4 -3.95 -14.3 -3.95 -13.85 -4.0 -13.8 -4.0 -13.7 -4.05 -13.65 -4.1 -13.55 -4.15 -13.5 -4.15 -13.15 -4.2 -13.1 -4.2 -13.05 -4.25 -12.95 -4.25 -12.9 -4.3 -12.8 -4.35 -12.75 -4.35 -12.55 -4.4 -12.5 -4.4 -12.4 -4.45 -12.35 -4.5 -12.25 -4.5 -12.2 -4.55 -12.15 -4.6 -12.05 -4.65 -12.0 -4.65 -11.95 -4.7 -11.85 -4.75 -11.8 -4.75 -11.75 -4.8 -11.65 -4.8 -11.5 -4.85 -11.4 -4.9 -11.35 -5.1 -11.35 -5.2 -11.4 -5.25 -11.5 -5.3 -11.55 -5.3 -11.7 -5.4 -11.8 -5.45 -11.9 -5.5 -11.95 -5.5 -12.15 -5.55 -12.25 -5.55 -12.3 -5.6 -12.35 -5.6 -12.45 -5.7 -12.55 -5.7 -12.65 -5.75 -12.8 -5.85 -12.9 -5.85 -13.8 -5.8 -13.85 -5.8 -14.05 -5.75 -14.15 -5.7 -14.2 -5.7 -14.35 -5.65 -14.4 -5.6 -14.5 -5.7 -14.6 -5.7 -14.7 -5.8 -14.8 -5.85 -14.9 -5.95 -14.95 -6.0 -15.0 -6.05 -15.0 -6.15 -15.05 -6.3 -15.2 -6.5 -15.3 -6.8 -15.4 -7.05 -15.5 -7.15 -15.45 -7.15 -15.4 -7.6 -15.45 -7.7 -15.5 -7.8 -15.65 -7.95 -15.8 -7.95 -16.4 -7.85 -16.55 -7.8 -16.65 -7.8 -16.75 -7.75 -16.8 -7.75 -16.85 -7.7 -16.95 -7.7 -17.35 -7.6 -17.45 -7.4 -17.7 -7.25 -17.8 -7.1 -17.85 -6.45 -17.85 -6.3 -17.8 -6.1 -17.8 Q-6.15 -18.0 -6.35 -18.15 -6.55 -18.35 -6.7 -18.55 L-6.8 -18.7 -6.8 -19.2 -6.7 -19.3 -6.5 -19.55 -6.35 -19.65 -6.3 -19.75 -6.3 -19.8 -6.25 -19.85 -6.25 -20.05 -6.2 -20.15 -6.15 -20.2 -6.15 -20.4 Q-6.1 -20.6 -5.9 -20.75 -5.7 -20.95 -5.5 -21.15 L-5.35 -21.3 -4.85 -21.3 -4.75 -21.2 -4.7 -21.2 -4.3 -21.15 -4.1 -21.1 Q-3.9 -20.9 -3.75 -20.65 -3.5 -20.3 -3.15 -20.15 L-3.05 -20.1 -3.1 -20.2 -3.15 -20.25 -3.15 -20.65 -3.1 -20.75 -3.05 -20.8 -3.1 -20.85 -3.1 -20.95 -3.15 -21.05 -3.15 -21.55 -3.1 -21.6 -3.05 -21.7 -2.95 -21.8 -2.95 -21.9 -2.85 -21.95 -2.8 -22.05 -2.75 -22.1 -2.55 -22.2 -1.9 -22.25 -1.75 -22.2 -1.5 -22.15 Q-1.45 -22.3 -1.45 -22.5 L-1.45 -22.55 -1.5 -22.6 -1.5 -23.15 -1.55 -23.25 -1.55 -23.3 -1.6 -23.35 -1.6 -23.5 -1.65 -23.55 -1.7 -23.65 -1.7 -23.7 -1.75 -23.8 -1.8 -23.85 -1.8 -23.9 -2.6 -24.0 -2.75 -24.1 -2.9 -24.35 -3.05 -24.55 -3.05 -24.95 -3.15 -25.05 -3.15 -25.55 Q-3.1 -25.75 -2.95 -25.9 -2.7 -26.15 -2.35 -26.3 L-2.15 -26.35 -2.05 -26.4 -2.1 -26.5 -2.15 -26.55 -2.15 -26.8 -2.1 -26.85 -2.4 -26.8 -2.8 -26.8 -2.95 -26.95 -2.95 -27.4 -2.9 -27.45 -3.55 -27.45 -3.95 -27.35 -4.1 -27.3 -4.3 -27.3 -4.45 -27.35 -4.55 -27.45 -4.55 -27.5 -4.6 -27.55 -4.65 -27.65 -4.7 -27.7 Q-4.7 -27.8 -4.9 -27.8 L-5.55 -27.75 -5.7 -27.7 -6.05 -27.7 -6.55 -28.0 -6.55 -28.05 -6.6 -28.1 -6.6 -28.3 -6.65 -28.4 -6.8 -28.45 -6.95 -28.55 -7.05 -28.55 -7.5 -28.6 -7.8 -28.9 -7.8 -29.05 -7.9 -29.15 -8.5 -29.25 -8.55 -29.3 -9.15 -29.35 -9.25 -29.4 -9.3 -29.5 -9.4 -29.6 -9.4 -29.75 -9.45 -29.85 -9.5 -29.9 -9.5 -30.35 -9.45 -30.5 Q-9.4 -30.65 -9.3 -30.7 L-9.15 -30.85 -9.05 -30.9 -9.05 -31.25 -9.0 -31.3 -9.0 -31.4 -8.95 -31.45 -8.85 -31.6 -8.8 -31.65 -8.0 -31.8 -7.75 -31.9 -7.7 -31.95 -7.55 -32.05 -7.45 -32.1 -7.3 -32.25 Q-7.25 -32.25 -7.2 -32.3 L-7.1 -32.45 -6.95 -32.55 -6.75 -32.7 -6.45 -33.0 -6.3 -33.05 -6.3 -33.1 -6.25 -33.2 -6.15 -33.25 -6.1 -33.35 -6.05 -33.4 -5.95 -33.55 -5.95 -33.6 -6.0 -33.65 -6.0 -33.75 -6.05 -33.8 -6.05 -34.35 -6.0 -34.4 -5.95 -34.5 -5.95 -34.55 -5.9 -34.6 -5.85 -34.7 -5.75 -34.75 -5.7 -34.8 -5.65 -34.8 -5.55 -34.85 -5.3 -35.1 -5.1 -35.2 -5.05 -35.25 -4.95 -35.3 -4.9 -35.35 -4.85 -35.35 -4.8 -35.4 -4.7 -35.45 -4.55 -35.45 -4.55 -35.5 -4.2 -35.6 -3.55 -35.6 -3.4 -35.55 -3.3 -35.5 -3.25 -35.4 -3.2 -35.35 -3.1 -35.2 -3.05 -35.1 -3.05 -35.0 -3.0 -34.95 -3.0 -34.85 -2.95 -34.8 -2.95 -34.75 -2.9 -34.65 -2.8 -34.55 -2.65 -34.45 -1.95 -34.45 Q-1.9 -34.45 -1.8 -34.5 L-1.7 -34.6 -1.8 -34.7 -1.8 -34.9 -1.75 -35.0 -1.7 -35.05 -1.7 -35.2 -1.65 -35.35 -1.5 -35.55 -1.2 -35.8 -1.1 -35.85 -0.6 -35.85 -0.45 -36.0 -0.3 -36.05 1.0 -36.05 1.15 -36.0 1.25 -35.95 1.45 -35.9 Q1.5 -35.9 1.55 -35.85 L1.7 -35.8 1.75 -35.7 1.8 -35.65 1.9 -35.6 1.95 -35.5 1.95 -35.35 2.05 -35.25 2.1 -35.15 2.15 -35.1 2.15 -34.85 2.2 -34.75 2.2 -34.6 2.75 -34.65 3.9 -34.85 4.45 -34.85 Q4.85 -34.85 5.15 -35.0 L4.95 -35.2 Q4.9 -35.2 4.85 -35.25 L4.75 -35.35 4.75 -35.4 4.7 -35.45 4.7 -35.8 4.65 -36.0 Q4.65 -36.1 4.7 -36.2 L4.75 -36.3 4.8 -36.35 4.95 -36.4 5.05 -36.5 5.8 -36.5 5.95 -36.45 6.45 -36.45 6.5 -36.55 6.5 -36.65 6.55 -36.75 6.65 -36.85 6.65 -36.95 6.7 -37.0 6.75 -37.1 6.75 -37.15 6.85 -37.2 7.05 -37.35 7.15 -37.4 7.65 -37.4 7.75 -37.35 7.9 -37.3 8.0 -37.25 8.1 -37.15 8.2 -37.0 8.3 -36.9 8.45 -36.7 8.5 -36.6 8.7 -36.5 8.75 -36.4 8.8 -36.35 9.05 -36.15 9.35 -35.8 9.6 -35.55 9.65 -35.55 9.95 -35.45 10.05 -35.4 10.1 -35.35 10.3 -35.25 10.6 -35.15 Q10.7 -35.1 10.75 -35.1 L10.9 -34.95 10.95 -34.85 10.95 -34.8 11.0 -34.75 11.0 -34.65 11.05 -34.7 11.15 -34.75 11.15 -35.05 11.05 -35.15 11.05 -35.3 11.0 -35.35 10.95 -35.45 10.9 -35.5 10.85 -35.6 10.8 -35.65 10.7 -35.7 10.65 -35.8 10.6 -35.85 10.6 -36.05 Q10.6 -36.25 10.65 -36.4 L10.65 -36.65 10.6 -36.75 10.6 -36.85 10.55 -36.95 10.5 -37.0 10.5 -37.4 10.45 -37.45 10.25 -37.45 10.15 -37.4 10.0 -37.35 9.45 -37.35 9.3 -37.4 9.15 -37.55 8.9 -37.75 Q8.75 -37.85 8.7 -38.0 L8.6 -38.15 8.6 -38.75 8.4 -38.85 8.35 -38.95 8.3 -39.0 8.3 -39.1 8.15 -39.25 8.05 -39.25 7.9 -39.4 7.8 -39.45 7.75 -39.6 7.7 -39.65 7.7 -39.7 7.6 -39.75 7.6 -39.85 7.5 -39.95 7.45 -40.05 7.35 -40.15 7.25 -40.15 7.15 -40.1 7.1 -40.05 7.0 -40.0 6.85 -40.05 6.8 -40.1 6.6 -39.9 6.55 -39.9 5.8 -39.85 5.65 -39.8 5.1 -39.7 4.85 -39.7 4.8 -39.75 4.5 -39.9 4.45 -39.95 4.25 -40.0 4.15 -40.05 3.95 -40.1 3.9 -40.1 3.75 -40.15 3.7 -40.25 3.65 -40.3 3.6 -40.3 3.4 -40.4 3.35 -40.45 3.35 -40.5 3.25 -40.55 3.15 -40.55 2.85 -40.7 2.35 -41.2 2.25 -41.35 2.2 -41.4 2.2 -41.55 2.15 -41.65 2.0 -41.8 2.0 -41.9 1.95 -41.95 1.95 -42.0 1.9 -42.05 1.9 -42.1 1.7 -42.1 1.65 -42.05 1.6 -41.95 1.5 -41.9 1.4 -41.8 1.0 -41.7 0.6 -41.7 0.5 -41.75 0.3 -41.8 0.25 -41.85 0.05 -41.9 0.0 -41.95 -0.15 -42.0 -0.25 -42.05 -0.3 -42.1 -0.5 -42.15 -0.65 -42.3 -0.75 -42.35 -0.75 -42.45 -0.85 -42.55 -1.05 -42.8 -1.2 -42.9 -1.3 -43.05 -1.3 -43.65 -1.25 -43.75 -1.25 -43.85 -1.3 -43.9 -1.3 -43.95 -1.75 -43.95 -1.9 -44.0 -2.0 -44.1 -2.0 -44.15 -2.05 -44.2 -2.1 -44.3 -2.3 -44.5 -2.65 -44.5 -2.8 -44.55 -2.95 -44.65 -3.05 -44.7 -3.1 -44.75 -3.7 -44.75 -3.8 -44.7 -4.2 -44.65 -4.3 -44.6 -4.35 -44.55 -4.45 -44.5 -5.3 -44.5 -5.45 -44.45 -5.8 -44.4 -5.8 -44.35 -5.95 -44.3 -6.05 -44.25 -6.45 -44.2 -6.7 -44.15 -6.7 -44.1 -6.95 -44.05 -7.0 -44.0 -7.15 -44.0 -7.25 -43.95 -7.3 -43.85 -7.4 -43.75 -7.5 -43.6 -7.5 -43.55 -7.55 -43.45 -7.55 -43.4 -7.65 -43.25 -7.85 -43.0 -8.0 -42.85 -8.15 -42.85 -8.2 -42.75 -8.6 -42.35 -8.7 -42.3 -8.7 -42.25 -8.85 -42.2 -9.0 -42.05 -9.15 -42.0 -9.15 -41.95 -9.5 -41.9 -9.55 -41.85 -9.7 -41.8 -9.8 -41.7 -10.0 -41.6 -10.25 -41.55 -10.25 -41.5 -10.35 -41.5 -10.35 -41.45 -10.5 -41.45 -10.6 -41.35 -10.7 -41.35 -10.75 -41.45 -10.8 -41.5 Q-10.9 -41.55 -11.0 -41.6 L-11.1 -41.7 -11.15 -41.8 -11.15 -41.95 -11.3 -42.0 -11.35 -42.05 -11.6 -42.05 -11.75 -42.0 -11.95 -41.95 -12.2 -41.85 -12.3 -41.8 -12.35 -41.75 -12.65 -41.6 -12.8 -41.55 -12.9 -41.45 -13.1 -41.3 -13.15 -41.25 -13.6 -41.1 -13.85 -40.95 -13.9 -40.9 -14.1 -40.8 -14.7 -40.75 -14.8 -40.7 -14.95 -40.65 -15.0 -40.6 -15.25 -40.55 -16.2 -40.55 -16.35 -40.6 -16.45 -40.65 -16.5 -40.7 -16.5 -41.2 -16.45 -41.25 -16.4 -41.35 -16.7 -41.45 -16.8 -41.5 -17.35 -41.55 -17.45 -41.6 -17.6 -41.55 -17.65 -41.55 Q-17.75 -41.5 -17.9 -41.45 L-18.75 -41.4 -18.75 -41.35 -18.8 -41.25 -18.8 -40.65 -18.75 -40.6 -18.7 -40.5 -18.7 -40.25 -18.65 -40.15 -18.55 -40.05 -18.55 -39.9 -18.5 -39.85 -18.45 -39.75 -18.35 -39.6 -18.25 -39.4 -18.25 -39.3 -18.2 -39.2 -18.15 -39.15 -18.15 -39.1 -18.2 -39.0 -18.2 -38.8 -18.25 -38.75 -18.25 -38.65 -18.3 -38.55 -18.3 -38.0 -18.35 -37.9 -18.4 -37.85 -18.45 -37.7 -18.45 -37.3 -18.5 -37.25 -18.55 -37.15 -18.55 -36.95 -18.6 -36.9 -18.6 -36.85 -18.65 -36.75 -18.65 -36.55 -18.7 -36.5 -18.75 -36.4 -18.75 -36.1 -18.8 -36.0 -18.8 -35.95 -18.85 -35.85 -18.85 -35.55 -18.9 -35.45 -18.9 -35.35 -18.95 -35.25 -19.0 -35.2 -19.0 -35.05 -19.05 -35.0 -19.05 -34.9 -19.15 -34.8 -19.15 -34.7 -19.2 -34.65 -19.25 -34.55 -19.25 -34.5 -19.3 -34.45 -19.35 -34.35 -19.55 -34.15 -19.55 -34.05 -19.6 -33.95 -19.6 -33.6 -19.7 -33.5 -19.75 -33.4 -19.8 -33.35 -19.8 -32.35 -19.85 -32.25 -19.85 -32.2 -19.95 -32.05 -20.0 -31.9 -20.1 -31.8 -20.15 -31.7 -20.25 -31.65 -20.25 -30.6 -20.3 -30.55 -20.3 -30.5 -20.35 -30.4 -20.35 -30.0 -20.4 -29.95 -20.4 -29.85 -20.6 -29.75 -20.6 -29.55 -20.65 -29.45 -20.8 -29.3 -20.8 -29.25 -21.1 -29.2 -21.2 -29.15 -21.25 -29.1 -21.35 -29.1 -21.45 -29.05 -21.6 -29.1 -21.7 -29.2 -21.85 -29.2 -22.0 -29.15 -22.25 -29.1 -22.25 -28.5 -22.2 -28.45 -22.15 -28.35 -22.15 -28.3 -22.1 -28.25 -22.1 -28.15 -22.05 -28.1 -22.05 -27.95 -22.0 -27.9 -21.95 -27.8 -21.9 -27.75 -21.85 -27.6 -21.8 -27.55 -21.8 -27.5 -21.6 -27.3 -21.3 -27.25 -20.85 -27.25 -20.7 -27.2 -20.55 -27.1 -20.35 -27.0 -20.35 -26.8 -20.3 -26.7 -20.25 -26.65 -20.25 -26.15 -20.35 -26.05 -20.4 -25.9 -20.4 -25.55 -20.45 -25.5 -20.45 -25.4 -20.5 -25.35 -20.5 -24.55 -20.55 -24.4 -20.55 -24.35 -20.6 -24.25 -20.6 -24.2 -20.65 -24.1 -20.75 -24.0 -20.8 -23.9 -20.9 -23.8 -20.9 -23.7 -21.0 -23.55 Q-21.1 -23.35 -21.25 -23.2 L-21.5 -22.95 -21.5 -22.8 -21.55 -22.75 -21.55 -22.7 -21.6 -22.6 -21.65 -22.55 -21.75 -22.5 -21.85 -22.35 -21.95 -22.3 -22.1 -22.25 -22.35 -22.2 -22.45 -22.1 -22.55 -22.05 -22.6 -22.0 -23.0 -22.0 -23.15 -22.05 -23.25 -22.1 -23.3 -22.15 -23.3 -22.25 -23.35 -22.3 -23.35 -22.35 -23.4 -22.35 -23.5 -22.4 -23.8 -22.7 -23.85 -22.8 -24.0 -22.8 Q-24.2 -22.85 -24.4 -22.95 L-24.7 -22.95 -24.7 -22.9 -24.85 -22.85 -24.9 -22.8 -25.1 -22.7 -25.15 -22.65 -25.4 -22.55 -25.75 -22.5 -25.8 -22.4 -26.0 -22.3 -26.15 -22.2 -26.15 -22.15 -26.4 -22.1 Q-26.5 -22.05 -26.65 -22.05 L-27.0 -21.9 -27.15 -21.95 -27.25 -22.05 -27.3 -22.05 -27.35 -21.95 -27.35 -21.8 -27.45 -21.6 Q-27.5 -21.5 -27.6 -21.4 L-27.8 -21.2 -28.05 -21.1 -28.1 -21.05 -28.8 -21.05 -28.9 -21.0 -29.4 -20.95 -29.55 -20.9 -30.4 -20.85 -30.55 -20.8 -31.35 -20.8 -31.4 -20.9 -31.45 -20.95 -31.5 -21.05 -31.5 -21.45 -31.4 -21.55 -31.7 -21.7 -31.7 -21.75 -31.75 -21.75 -31.85 -21.8 -32.0 -21.8 -32.1 -21.75 -32.15 -21.7 -32.25 -21.55 -32.45 -21.4 -32.6 -21.3 -32.9 -21.0 -33.05 -20.95 -33.1 -20.9 -33.35 -20.9 -33.4 -21.0 -33.5 -21.1 -33.8 -21.2 -34.55 -21.1 -34.65 -21.05 -34.65 -20.55 -34.7 -20.5 -34.7 -20.35 Q-34.7 -20.2 -34.75 -20.1 -34.85 -19.95 -35.0 -19.85 L-35.25 -19.65 -35.5 -19.55 -35.55 -19.55 -36.45 -19.4 -36.5 -19.3 -36.55 -19.25 -36.65 -19.2 -38.35 -19.3 -38.55 -19.5 -38.6 -19.5 -38.7 -19.55 -38.85 -19.7 -38.9 -19.8 -38.95 -19.85 -38.95 -20.05 -39.0 -20.1 -39.05 -20.2 -39.05 -20.3 -39.1 -20.4 -39.15 -20.45 -39.15 -20.5 -39.25 -20.55 Q-39.75 -20.35 -40.35 -20.3 L-40.65 -20.3 Q-40.75 -20.3 -40.8 -20.35 L-40.85 -20.35 -41.0 -20.4 -41.05 -20.5 -41.2 -20.6 -41.3 -20.75 -41.3 -20.9 -41.35 -20.95 -41.4 -21.05 -41.4 -21.15 -41.45 -21.25 -41.45 -21.45 -41.5 -21.5 -41.5 -21.55 -41.55 -21.65 -41.55 -22.4 -41.5 -22.45 -41.45 -22.55 -41.45 -22.6 -41.4 -22.65 Q-41.35 -22.75 -41.35 -22.85 L-41.4 -23.05 -41.4 -23.4 -41.35 -23.5 -41.3 -23.55 -41.3 -23.7 -41.4 -23.8 -41.4 -24.8 -41.05 -25.15 -41.05 -25.3 -41.1 -25.3 -41.1 -25.4 -41.15 -25.45 -41.2 -25.55 -41.2 -25.6 -41.4 -25.7 -41.6 -25.75 -41.65 -25.85 -41.75 -25.9 -41.8 -25.95 -41.85 -26.1 -41.85 -26.5 -41.75 -26.65 -41.6 -26.8 -41.45 -26.9 -41.4 -27.0 -41.4 -27.05 -41.35 -27.1 -41.35 -27.25 -41.4 -27.3 -41.4 -27.75 -41.45 -27.75 -41.65 -27.85 -41.8 -27.85 -41.9 -27.95 -42.1 -28.05 -42.15 -28.15 -42.2 -28.2 -42.25 -28.3 -42.25 -28.55 -42.2 -28.6 -42.15 -28.7 -42.1 -28.75 -41.9 -28.8 -41.9 -29.55 -41.85 -29.65 -41.8 -29.7 -41.8 -29.9 -41.75 -30.0 -41.55 -30.2 -41.4 -30.3 -41.4 -30.35 -41.3 -30.4 -41.2 -30.4 -41.05 -30.5 -39.9 -30.55 -39.8 -30.5 -39.45 -30.45 -39.2 -30.45 -39.05 -30.55 -39.0 -30.6 -38.8 -30.7 -38.7 -30.8 -38.7 -30.85 -38.75 -30.95 -38.8 -31.0 -38.8 -31.2 -38.75 -31.3 -38.6 -31.4 -38.45 -31.55 -38.3 -31.6 -38.15 -31.6 -38.15 -31.8 -38.1 -31.85 -38.1 -31.95 -38.05 -32.0 -38.05 -32.1 -37.95 -32.15 -37.9 -32.2 -37.85 -32.3 -37.55 -32.45 -37.5 -32.5 -37.35 -32.55 Q-37.85 -32.7 -38.45 -32.7 L-38.65 -32.75 -38.7 -32.8 -38.8 -32.85 -38.8 -32.9 -38.85 -32.95 -38.95 -32.9 -39.1 -32.9 -39.3 -32.85 -39.4 -32.75 -39.6 -32.65 -39.65 -32.6 -40.2 -32.6 -40.4 -32.5 -40.45 -32.45 -40.55 -32.4 -40.75 -32.35 -41.25 -32.35 -41.55 -32.45 -41.6 -32.55 -41.7 -32.6 -41.85 -32.75 -41.85 -32.8 -41.9 -32.85 -41.95 -32.95 -42.0 -33.0 -42.05 -33.1 -42.15 -33.15 -42.2 -33.2 Q-42.45 -33.3 -42.6 -33.5 L-42.8 -33.7 Q-42.9 -33.8 -43.05 -33.9 L-43.15 -33.95 -43.2 -34.05 -43.2 -34.25 -43.25 -34.3 -43.25 -34.35 -43.3 -34.45 -43.4 -34.5 -43.45 -34.6 -43.5 -34.65 -43.5 -34.7 -43.55 -34.75 -43.65 -34.8 -44.25 -34.9 -44.4 -35.05 -44.45 -34.95 -44.65 -34.85 -44.8 -34.7 -44.85 -34.6 -44.9 -34.55 -44.9 -34.5 -45.0 -34.4 -45.2 -34.3 -45.3 -34.2 -45.4 -34.15 -45.45 -34.1 -46.0 -34.1 -46.3 -34.2 -46.4 -34.25 -47.0 -34.25 -47.15 -34.3 -47.25 -34.35 -47.3 -34.45 -47.3 -34.5 -47.45 -34.5 -47.55 -34.45 -47.75 -34.4 -48.0 -34.35 Q-48.15 -34.2 -48.35 -34.1 L-48.65 -33.9 -48.7 -33.85 -48.8 -33.8 -48.95 -33.7 -49.15 -33.6 -49.3 -33.55 -49.4 -33.55 -49.5 -33.5 -49.5 -33.45 -49.45 -33.35 -49.35 -33.25 -49.35 -32.9 -49.4 -32.85 -49.4 -32.55 -49.45 -32.4 -49.45 -32.15 -49.55 -31.95 Q-49.65 -31.8 -49.75 -31.65 L-49.9 -31.55 -50.1 -31.35 -50.25 -31.25 -50.35 -31.2 -50.85 -31.2 -51.05 -31.3 -51.1 -31.35 -51.55 -31.4 -51.8 -31.45 -51.95 -31.6 -52.0 -31.5 -52.05 -31.45 -52.1 -31.35 -52.15 -31.3 -52.25 -31.15 -52.5 -30.9 -52.55 -30.8 -52.65 -30.7 -52.7 -30.6 -52.8 -30.55 -52.9 -30.45 -53.05 -30.4 -53.35 -30.1 -53.45 -30.05 -53.65 -30.0 -53.7 -29.95 -53.7 -29.9 -54.2 -29.85 -54.5 -29.85 -54.6 -29.9 -54.65 -30.0 -54.65 -30.1 -54.7 -30.2 -54.7 -30.75 -54.6 -30.85 -54.6 -30.95 -54.5 -31.0 -54.5 -31.1 -54.45 -31.15 -54.45 -31.3 -54.25 -31.5 -54.2 -31.5 -54.15 -31.55 -54.0 -31.75 -53.95 -31.85 -53.9 -31.9 -53.75 -31.95 -53.7 -31.95 -53.65 -32.05 -53.5 -32.15 -53.4 -32.3 -53.35 -32.45 -53.3 -32.5 -53.25 -32.65 -53.25 -32.7 -53.15 -32.85 -53.15 -32.9 -53.1 -33.0 -52.9 -33.1 -52.75 -33.25 -52.45 -33.25 -52.4 -33.2 -52.3 -33.3 -52.1 -33.3 -51.8 -33.15 -51.65 -33.1 -51.35 -32.95 -50.9 -32.95 -50.75 -33.0 -50.65 -33.05 -50.65 -33.3 -50.7 -33.35 -50.75 -33.45 -50.75 -33.5 -50.8 -33.6 -50.85 -33.65 -50.85 -33.7 -50.9 -33.8 -51.0 -33.85 -51.05 -33.9 -51.05 -34.55 -50.95 -34.65 -50.95 -34.85 -50.9 -34.95 -50.85 -35.0 -50.8 -35.1 -50.75 -35.15 -50.65 -35.2 -50.45 -35.2 -50.35 -35.15 -50.3 -35.15 -50.15 -35.3 -50.05 -35.35 -50.05 -35.4 -50.0 -35.45 -49.9 -35.6 -49.8 -35.65 -49.75 -35.75 -49.7 -35.8 -49.55 -35.8 -49.55 -35.85 -49.4 -35.85 -49.25 -35.8 -49.15 -35.7 -48.75 -35.8 -48.4 -35.8 -48.3 -35.75 -48.1 -35.75 -48.05 -35.8 -47.95 -35.85 -47.8 -35.85 -47.65 -35.9 -47.3 -35.9 -47.15 -35.85 -47.05 -35.8 -46.35 -35.8 -46.2 -35.95 -46.2 -36.0 -46.15 -36.1 -46.15 -36.4 -46.1 -36.5 -46.05 -36.55 -46.05 -36.7 -45.95 -36.8 -45.9 -36.9 -45.85 -36.95 -45.75 -37.0 -45.65 -37.0 -45.65 -37.05 -45.45 -37.05 -45.35 -37.0 -44.65 -36.9 -44.5 -36.85 -43.9 -36.85 -43.85 -36.9 -43.65 -37.0 -43.55 -37.0 -43.4 -36.95 -43.35 -36.9 -43.25 -36.85 -43.2 -36.75 -43.1 -36.6 -43.1 -36.55 -43.0 -36.4 -43.0 -36.3 -42.95 -36.2 -42.85 -36.1 -42.8 -36.0 -42.65 -35.85 -42.45 -35.75 -42.4 -35.65 -42.15 -35.5 -42.0 -35.35 -41.95 -35.25 Q-41.8 -35.1 -41.7 -34.9 L-41.55 -34.6 -41.55 -34.5 -41.5 -34.45 -41.45 -34.35 -41.45 -34.3 -41.3 -34.3 -41.0 -34.2 -40.85 -34.2 -40.55 -34.1 -40.4 -34.1 -40.35 -34.0 -40.15 -34.0 -39.95 -34.1 -39.9 -34.2 -39.7 -34.4 -39.6 -34.45 -39.55 -34.55 -39.4 -34.55 -39.4 -34.6 -39.2 -34.6 -38.9 -34.5 Q-38.7 -34.4 -38.5 -34.3 L-38.15 -34.1 -38.1 -34.05 -37.75 -34.05 -37.6 -34.0 -37.55 -33.95 -36.95 -33.65 -36.9 -33.6 -36.85 -33.6 -36.7 -33.55 -36.6 -33.5 -36.55 -33.4 -36.55 -33.35 -36.4 -33.2 -36.4 -33.15 -36.35 -33.15 -36.25 -33.1 -36.1 -33.05 -35.95 -32.95 -35.7 -32.7 -35.65 -32.6 -35.6 -32.55 -35.6 -32.4 -35.65 -32.35 -35.65 -32.3 -35.7 -32.2 -35.7 -31.95 -35.75 -31.85 -35.8 -31.8 -35.8 -31.75 -35.85 -31.65 -35.9 -31.6 -35.9 -31.45 -36.0 -31.35 -36.05 -31.25 -36.15 -31.2 -36.2 -31.1 -36.25 -31.1 -36.4 -31.05 -37.05 -31.0 -37.05 -30.75 -37.1 -30.65 -37.1 -30.6 -37.15 -30.55 -37.15 -30.35 -37.2 -30.25 -37.2 -30.2 -37.25 -30.1 -37.25 -29.85 -37.3 -29.8 -37.35 -29.7 -37.6 -29.45 -37.65 -29.35 -37.65 -29.3 -37.8 -29.15 -37.95 -29.1 -39.95 -29.0 -39.9 -28.95 -39.9 -28.45 -39.85 -28.4 -39.85 -28.3 -39.8 -28.25 -39.8 -28.1 -39.7 -28.0 -39.7 -27.1 -39.75 -27.05 -39.8 -26.95 -39.9 -26.9 -40.05 -26.75 -40.05 -26.7 -40.0 -26.6 -40.0 -26.55 -39.95 -26.5 -39.95 -26.35 -39.9 -26.3 -39.9 -25.95 -39.95 -25.85 -39.95 -25.35 -39.9 -25.25 -39.9 -25.1 -39.8 -25.0 -39.8 -24.35 -39.7 -24.25 -39.7 -23.7 -39.65 -23.6 -39.6 -23.55 -39.6 -22.55 -39.15 -22.55 -39.0 -22.6 -38.9 -22.6 -38.75 -22.55 -38.65 -22.5 -38.6 -22.4 -38.4 -22.25 -38.25 -22.15 -38.1 -22.0 -38.0 -21.85 -37.95 -21.8 -37.95 -21.65 -37.9 -21.6 -37.9 -21.55 -37.85 -21.45 -37.8 -21.4 -37.8 -21.3 -37.6 -21.2 -36.6 -21.1 -36.45 -21.15 -36.35 -21.25 -36.3 -21.35 -36.1 -21.55 -36.1 -21.7 -36.2 -21.8 -36.25 -21.9 -36.3 -21.95 -36.35 -22.05 -36.35 -22.15 -36.4 -22.25 -36.5 -22.3 -36.5 -23.25 -36.4 -23.4 -36.4 -23.45 -36.35 -23.55 -36.25 -23.65 -36.15 -23.8 -36.05 -23.85 -35.45 -23.85 -35.3 -23.8 -35.2 -23.75 -35.0 -23.7 -34.85 -23.65 -34.75 -23.55 -34.7 -23.45 -34.6 -23.3 -34.35 -23.05 -34.3 -22.9 -34.2 -22.85 -34.05 -22.8 -33.55 -22.8 -33.5 -22.9 -33.5 -23.05 -33.4 -23.15 -33.4 -23.3 -33.35 -23.35 -33.3 -23.45 -33.25 -23.5 -33.15 -23.55 -33.1 -23.65 -32.9 -23.7 -32.8 -23.7 -32.75 -23.75 -32.55 -23.85 -32.45 -23.85 -32.35 -23.9 -31.2 -23.9 -31.05 -23.85 -30.35 -23.8 -30.25 -23.8 -30.15 -23.75 -29.7 -23.6 -29.6 -23.5 -29.6 -23.45 -29.55 -23.4 -29.55 -23.0 -29.6 -22.9 -29.6 -22.8 -29.2 -22.75 -29.05 -22.7 -28.8 -22.6 -28.65 -22.55 -28.6 -22.55 -28.55 -22.6 -28.5 -22.7 -28.4 -22.75 -28.4 -22.8 -28.45 -22.85 -28.5 -22.95 -28.5 -23.55 -28.45 -23.6 -28.4 -23.7 -28.25 -23.8 -28.05 -24.0 -27.9 -24.05 -27.55 -24.1 -27.25 -24.15 -27.2 -24.25 -27.1 -24.25 -27.0 -24.35 -26.95 -24.35 -26.85 -24.4 -26.55 -24.5 -26.3 -24.6 -26.15 -24.6 -26.1 -24.7 -26.05 -24.75 -25.9 -24.8 -25.85 -24.8 -25.75 -24.85 -25.1 -25.0 Q-24.85 -25.05 -24.65 -25.1 L-24.0 -25.1 -23.85 -25.05 -23.8 -25.05 -23.7 -25.0 -23.5 -24.8 -23.3 -24.7 -23.1 -24.65 -22.95 -24.6 -22.85 -24.55 -22.85 -24.5 -22.75 -24.5 -22.65 -24.45 -22.6 -24.5 -22.55 -24.6 -22.5 -24.65 -22.5 -24.7 -22.45 -24.8 -22.4 -24.85 -22.3 -25.0 -22.2 -25.1 Q-22.15 -25.2 -22.1 -25.3 L-22.05 -25.4 -22.05 -25.6 -22.0 -25.65 -22.0 -25.75 -21.95 -25.8 -21.95 -25.95 -21.9 -26.0 -22.25 -26.0 Q-22.7 -25.95 -23.25 -26.05 L-23.35 -26.15 -23.35 -26.2 -23.4 -26.3 -23.4 -26.6 -23.45 -26.7 -23.45 -26.75 -23.5 -26.85 -23.6 -26.95 -23.65 -27.05 -23.7 -27.1 -23.7 -28.1 -23.75 -28.2 -23.75 -28.35 -23.8 -28.8 -23.8 -30.6 -23.75 -30.65 -23.75 -30.7 -23.7 -30.8 -23.7 -31.25 -23.65 -31.3 -23.6 -31.4 -23.6 -31.95 -23.55 -32.0 -23.5 -32.1 -23.5 -32.15 -23.35 -32.3 -23.2 -32.35 -23.1 -32.35 -22.95 -32.3 -22.85 -32.2 -22.8 -32.2 -22.5 -32.1 -22.25 -32.0 -22.15 -31.95 -22.1 -31.85 -22.0 -31.8 -21.85 -31.75 -21.8 -31.75 -21.8 -31.95 -21.75 -32.0 -21.75 -32.1 -21.65 -32.2 -21.65 -32.3 -21.6 -32.35 -21.5 -32.4 -21.45 -32.5 -21.3 -32.6 -21.15 -32.75 -21.1 -32.85 -21.05 -32.9 -21.05 -32.95 -21.0 -33.05 -21.0 -33.1 -21.05 -33.15 -21.05 -33.25 -21.15 -33.35 -21.15 -33.45 -21.2 -33.5 -21.25 -33.6 -21.25 -34.25 -21.2 -34.4 -21.2 -34.45 -21.15 -34.55 -21.15 -34.6 -21.1 -34.65 -21.1 -34.75 -21.05 -34.8 -21.05 -34.85 -21.0 -34.95 -20.9 -35.1 -20.9 -35.2 -20.85 -35.3 -20.85 -35.4 -20.8 -35.5 -20.8 -35.55 -20.6 -35.75 -20.6 -35.8 -20.55 -35.9 -20.55 -35.95 -20.5 -36.05 -20.4 -36.15 -20.4 -36.3 -20.35 -36.35 -20.3 -36.45 -20.25 -36.5 -20.2 -36.65 -20.1 -36.85 -20.05 -36.9 -20.05 -37.05 -20.0 -37.1 -19.95 -37.2 -19.95 -37.4 -19.9 -37.45 -19.85 -37.55 -19.85 -37.65 -19.8 -37.75 -19.8 -37.95 -19.75 -38.0 -19.75 -38.1 -19.7 -38.15 -19.7 -38.4 -19.75 -38.5 -19.8 -38.55 -19.8 -38.6 -19.85 -38.7 -19.85 -38.9 -19.9 -38.95 -19.95 -39.05 -20.05 -39.15 -20.05 -39.25 -20.15 -39.35 -20.15 -40.2 -20.25 -40.25 -20.3 -40.35 -20.4 -40.4 -20.45 -40.45 -20.5 -40.55 -20.55 -40.6 -20.55 -40.65 -20.6 -40.75 -20.6 -41.1 -20.55 -41.15 -20.55 -41.2 -20.5 -41.3 -20.45 -41.35 -20.45 -41.4 -20.4 -41.5 -20.4 -41.7 -20.35 -41.75 -20.35 -42.15 -20.2 -42.45 -20.05 -42.7 -19.95 -42.85 -19.8 -43.1 -19.6 -43.3 -19.45 -43.3 -18.55 -43.35 -18.35 -43.4 -17.55 -43.55 -17.35 -43.6 -16.45 -43.6 -16.35 -43.55 -16.2 -43.5 -16.1 -43.4 -16.0 -43.35 -15.95 -43.3 -15.9 -43.2 -15.85 -43.2 -15.55 -43.15 -15.4 -43.1 -15.15 -43.0 Q-15.0 -42.95 -14.85 -42.85 L-14.7 -42.8 -14.65 -42.7 -14.55 -42.6 -14.5 -42.5 -14.5 -42.45 -14.2 -42.6 -14.15 -42.65 -14.1 -42.75 Q-14.05 -42.75 -14.05 -42.8 L-13.85 -42.85 -13.8 -42.9 -13.7 -42.95 -13.65 -43.05 -13.55 -43.1 -13.5 -43.15 -13.45 -43.25 -13.35 -43.3 -13.3 -43.35 -13.1 -43.45 -13.05 -43.55 -13.0 -43.6 -12.85 -43.65 -12.8 -43.75 -12.7 -43.8 -12.55 -43.85 -12.35 -43.85 -12.15 -43.75 -12.1 -43.7 -11.95 -43.7 -11.8 -43.75 -11.65 -43.9 -11.55 -43.95 -11.5 -44.0 -11.35 -44.05 -11.3 -44.05 -11.15 -44.0 -10.95 -43.8 -10.9 -43.7 -10.7 -43.6 Q-10.65 -43.6 -10.6 -43.65 L-10.6 -43.7 -10.55 -43.75 -10.55 -43.8 -10.5 -43.9 -10.4 -43.95 -10.35 -44.05 -10.25 -44.1 -10.1 -44.15 -10.0 -44.2 Q-9.85 -44.35 -9.7 -44.55 L-9.25 -45.2 -9.0 -45.65 -8.75 -45.9 -8.65 -45.95 -8.2 -45.95 -7.9 -45.85 -7.8 -45.8 -7.35 -45.85 -7.2 -45.9 -7.1 -45.95 -6.0 -46.0 -4.9 -46.2 -4.85 -46.35 -4.8 -46.45 -4.6 -46.7 -4.35 -46.9 -4.3 -46.95 -4.2 -46.95 -3.9 -47.05 -3.75 -47.05 -3.45 -46.95 -3.35 -46.9 -3.3 -46.95 -3.2 -47.0 -3.0 -47.0 -3.0 -47.05 -2.9 -47.0 -2.75 -46.85 -2.65 -46.7 -2.55 -46.5 -2.3 -46.25 -2.25 -46.15 -2.15 -46.05 -2.1 -45.95 -2.1 -45.9 -1.9 -45.85 -1.6 -45.7 Q-1.5 -45.6 -1.4 -45.55 L-1.2 -45.5 -1.05 -45.45 -0.65 -45.1 -0.3 -44.7 -0.15 -44.4 -0.15 -44.15 -0.1 -44.1 -0.1 -44.0 -0.05 -43.95 -0.05 -43.85 0.05 -43.75 0.1 -43.65 0.1 -43.55 0.15 -43.45 0.25 -43.35 0.35 -43.35 0.6 -43.3 0.7 -43.35 0.8 -43.35 0.9 -43.45 M0.15 -42.65 Q0.25 -42.6 0.35 -42.55 L0.7 -42.4 0.9 -42.45 1.15 -42.45 1.15 -42.55 1.2 -42.6 1.3 -42.65 1.4 -42.75 1.55 -42.8 2.0 -42.8 2.15 -42.75 2.55 -42.35 2.6 -42.25 2.6 -42.2 2.75 -41.9 2.9 -41.65 Q3.0 -41.5 3.15 -41.35 L3.3 -41.25 Q3.4 -41.2 3.45 -41.15 L3.6 -41.1 3.85 -40.95 4.05 -40.85 4.8 -40.55 4.9 -40.5 4.95 -40.45 5.0 -40.45 6.25 -40.55 6.3 -40.6 6.3 -40.85 6.55 -41.1 6.75 -41.15 7.2 -41.15 7.35 -41.1 7.45 -41.05 7.6 -41.0 7.7 -40.95 7.75 -40.85 8.0 -40.45 8.2 -40.25 8.2 -40.2 8.25 -40.15 8.55 -39.8 8.6 -39.8 8.75 -39.7 9.05 -39.4 9.05 -39.3 9.15 -39.25 9.35 -38.95 9.4 -38.9 9.4 -38.7 9.45 -38.6 9.55 -38.5 9.55 -38.4 9.6 -38.35 9.85 -38.35 10.05 -38.45 10.25 -38.5 10.65 -38.5 10.8 -38.45 10.9 -38.4 11.05 -38.35 11.15 -38.3 11.2 -38.25 11.2 -38.15 11.25 -38.1 11.25 -37.85 11.3 -37.75 11.3 -37.7 11.35 -37.6 11.45 -37.5 11.5 -37.4 11.5 -37.3 11.55 -37.2 11.65 -37.1 11.7 -37.0 11.75 -36.85 11.75 -36.65 11.8 -36.6 11.8 -36.55 11.85 -36.45 11.85 -35.5 11.9 -35.45 11.95 -35.35 11.95 -34.9 11.9 -34.85 11.95 -34.75 11.95 -34.35 11.75 -34.15 11.65 -34.15 11.65 -34.1 11.6 -34.05 11.55 -33.95 11.45 -33.9 11.4 -33.85 11.65 -34.0 11.8 -34.1 12.1 -34.25 Q12.15 -34.25 12.2 -34.3 L12.25 -34.35 12.25 -34.55 12.3 -34.6 12.25 -34.7 12.25 -35.1 12.2 -35.15 12.15 -35.25 12.15 -35.85 12.1 -35.9 12.05 -36.0 12.05 -36.1 12.0 -36.2 11.95 -36.25 11.95 -36.85 11.9 -36.95 11.85 -37.1 11.85 -37.6 11.8 -37.7 11.7 -37.75 11.65 -37.85 11.6 -37.9 11.5 -38.05 Q11.5 -38.15 11.5 -38.25 L11.5 -39.0 11.4 -39.1 11.35 -39.05 11.25 -39.0 11.1 -38.85 11.0 -38.85 10.95 -38.75 10.85 -38.7 10.75 -38.6 10.45 -38.6 10.3 -38.65 10.05 -38.7 Q9.85 -38.85 9.7 -39.05 9.6 -39.3 9.35 -39.45 L9.15 -39.65 9.15 -39.95 9.1 -40.0 9.05 -40.1 9.0 -40.15 9.0 -40.2 8.95 -40.3 8.95 -40.35 8.2 -41.1 8.1 -41.15 8.05 -41.25 8.0 -41.3 7.9 -41.35 7.8 -41.45 7.7 -41.5 7.65 -41.55 7.6 -41.55 7.4 -41.6 7.25 -41.75 7.15 -41.9 7.1 -41.95 7.05 -42.05 6.9 -41.9 6.75 -41.9 6.5 -41.85 6.4 -41.75 6.4 -41.65 6.35 -41.55 6.3 -41.5 6.3 -41.35 6.25 -41.3 6.25 -41.2 6.2 -41.15 6.2 -41.1 6.15 -41.0 6.1 -40.95 5.95 -40.85 5.9 -40.85 5.85 -40.8 5.65 -40.75 5.55 -40.7 5.25 -40.7 5.15 -40.75 4.95 -40.8 4.9 -40.85 4.75 -40.9 4.7 -40.95 4.5 -41.0 4.4 -41.05 4.35 -41.1 4.15 -41.15 4.05 -41.25 3.95 -41.3 3.9 -41.35 3.75 -41.45 3.6 -41.6 3.5 -41.65 3.3 -41.8 3.2 -41.9 3.05 -42.0 2.95 -42.05 2.9 -42.1 2.85 -42.2 2.85 -42.25 2.7 -42.4 2.7 -42.45 2.65 -42.55 2.6 -42.6 2.6 -43.0 2.55 -43.1 2.5 -43.1 2.3 -43.2 2.2 -43.15 1.8 -43.05 1.7 -43.05 1.55 -43.1 1.45 -43.0 1.35 -42.95 1.3 -42.9 1.25 -42.8 1.15 -42.75 1.1 -42.7 0.9 -42.65 0.85 -42.6 0.3 -42.6 0.25 -42.65 0.1 -42.7 0.15 -42.65 M6.0 -35.8 L5.75 -35.8 5.35 -35.85 5.35 -35.75 5.5 -35.7 5.55 -35.6 5.65 -35.55 5.75 -35.45 5.8 -35.55 5.85 -35.6 Q5.85 -35.7 6.0 -35.8 M7.2 -35.8 L7.75 -35.8 7.9 -35.75 7.95 -35.65 8.05 -35.6 8.3 -35.35 8.3 -35.25 8.35 -35.2 8.4 -35.1 8.45 -35.05 8.6 -35.0 8.7 -34.95 8.75 -34.85 8.85 -34.8 9.0 -34.75 9.5 -34.55 9.65 -34.5 9.9 -34.35 10.15 -34.15 10.25 -34.05 10.5 -33.9 10.7 -33.75 10.75 -33.65 10.8 -33.6 10.8 -33.65 11.1 -33.8 11.4 -33.85 10.7 -33.85 10.5 -33.95 10.45 -34.05 10.45 -34.45 10.4 -34.45 10.35 -34.5 10.05 -34.6 10.0 -34.65 9.9 -34.7 9.75 -34.75 9.65 -34.8 9.65 -34.85 9.3 -34.9 8.95 -35.25 8.8 -35.45 8.7 -35.5 8.5 -35.7 8.5 -35.8 8.35 -35.85 8.25 -35.9 8.2 -36.0 7.9 -36.3 7.75 -36.3 7.75 -36.25 7.6 -36.2 7.45 -36.05 7.0 -36.0 7.15 -35.85 7.2 -35.85 7.2 -35.8 M5.75 -34.95 L5.75 -34.55 5.7 -34.45 5.5 -34.25 5.25 -34.2 5.2 -34.15 5.0 -34.15 4.85 -34.2 4.7 -34.2 4.55 -34.15 4.35 -34.15 4.2 -34.2 4.05 -34.2 3.25 -34.1 Q2.8 -34.05 2.4 -33.85 L1.85 -33.9 1.75 -33.95 1.7 -34.05 1.6 -34.15 1.6 -34.35 1.55 -34.45 1.5 -34.5 1.5 -34.85 1.4 -34.95 1.35 -34.9 1.25 -34.85 1.1 -34.8 1.05 -34.8 1.1 -34.75 1.2 -34.6 1.2 -34.4 1.25 -34.35 1.25 -34.25 1.3 -34.2 1.3 -34.05 1.45 -33.9 1.45 -33.85 1.5 -33.8 1.65 -33.75 1.8 -33.8 2.45 -33.85 2.65 -33.85 3.25 -33.95 3.55 -33.95 3.7 -33.9 3.8 -33.85 3.85 -33.8 3.85 -33.75 4.05 -33.65 4.2 -33.7 4.3 -33.75 4.4 -33.85 5.0 -33.85 5.1 -33.75 5.2 -33.7 5.25 -33.7 5.4 -33.65 5.6 -33.75 5.65 -33.8 5.7 -33.9 5.75 -33.95 5.75 -34.1 5.8 -34.15 5.85 -34.25 5.85 -34.8 5.8 -34.85 5.8 -34.9 5.75 -34.95 M1.5 -17.85 L1.4 -17.7 1.25 -17.5 0.95 -17.25 0.75 -17.2 0.65 -17.15 0.55 -17.05 0.4 -17.0 -0.15 -17.0 -0.25 -17.05 -0.3 -17.1 -0.3 -18.35 -0.25 -18.4 -0.25 -18.5 -0.2 -18.55 -0.3 -18.7 -0.4 -18.9 -0.5 -18.95 -0.55 -19.05 -0.65 -19.15 -0.65 -19.65 -0.7 -19.7 -0.75 -19.8 -0.75 -20.0 -0.8 -20.0 -0.8 -19.9 -1.15 -19.9 -1.7 -20.0 -1.75 -20.05 -1.85 -20.1 -1.95 -20.25 -1.95 -20.6 -1.9 -20.65 -1.9 -20.7 -1.95 -20.8 -1.95 -20.9 -1.9 -21.0 -1.85 -21.05 -1.85 -21.2 -1.75 -21.3 -1.7 -21.4 -1.7 -21.45 -1.75 -21.45 -2.05 -21.55 -2.3 -21.55 -2.35 -21.5 -2.4 -21.4 -2.45 -21.35 -2.45 -21.2 -2.4 -21.15 -2.35 -21.05 -2.3 -21.0 -2.3 -20.65 -2.4 -20.55 -2.4 -19.35 -2.55 -19.2 -2.5 -19.2 -2.4 -19.1 -2.35 -19.1 -2.2 -19.05 -2.2 -19.15 -2.15 -19.25 -2.1 -19.3 -1.25 -19.3 -1.1 -19.15 -1.1 -19.05 -0.95 -18.9 -0.9 -18.8 -0.85 -18.75 -0.85 -18.7 -0.8 -18.6 -0.8 -17.55 -0.85 -17.45 -0.85 -17.25 -0.9 -17.2 -0.9 -17.1 -0.95 -17.05 -0.95 -16.85 -0.85 -16.8 -0.8 -16.7 -0.75 -16.7 Q-0.7 -16.75 -0.65 -16.75 L-0.55 -16.75 -0.3 -16.8 -0.1 -16.75 0.55 -16.75 0.85 -16.8 0.95 -16.9 1.05 -16.95 1.15 -17.05 1.25 -17.1 1.6 -17.45 1.75 -17.55 1.8 -17.55 1.9 -17.6 2.1 -17.6 2.25 -17.55 2.45 -17.35 2.55 -17.3 2.6 -17.2 2.65 -17.15 2.65 -17.05 2.7 -17.0 2.7 -17.35 2.65 -17.45 2.65 -17.5 2.5 -17.55 2.45 -17.65 2.25 -17.85 2.05 -17.95 2.0 -18.0 1.95 -18.0 1.75 -18.1 1.65 -18.1 1.5 -17.85 M2.9 -16.45 L2.95 -16.3 3.0 -16.25 3.1 -16.1 3.2 -16.0 3.2 -15.25 3.15 -15.15 3.05 -15.1 3.2 -15.1 3.35 -15.15 3.55 -15.2 3.6 -15.25 3.7 -15.3 3.75 -15.4 3.75 -15.5 3.7 -15.6 Q3.55 -15.7 3.45 -15.9 L3.3 -16.1 2.95 -16.4 2.9 -16.5 2.9 -16.45 M0.75 -15.05 L0.7 -14.95 0.7 -14.8 0.75 -14.75 0.75 -14.6 0.8 -14.55 0.9 -14.5 0.95 -14.4 0.95 -14.3 1.0 -14.2 1.05 -14.15 1.05 -14.0 1.1 -13.95 1.15 -13.85 1.15 -13.65 1.2 -13.6 1.2 -12.9 1.3 -12.9 Q1.45 -13.0 1.55 -13.05 L1.7 -13.2 1.7 -13.25 1.75 -13.3 1.75 -13.85 1.6 -13.9 1.5 -13.95 1.45 -14.05 1.4 -14.1 1.4 -14.55 1.45 -14.65 1.5 -14.7 1.65 -14.8 1.85 -14.9 2.45 -15.1 2.15 -15.1 2.1 -15.05 1.4 -15.05 1.3 -15.15 1.1 -15.15 0.9 -15.1 0.75 -15.05 M-52.65 -32.7 L-52.65 -32.65 -52.7 -32.6 -52.75 -32.5 -52.8 -32.45 -52.85 -32.3 -52.9 -32.25 -52.95 -32.1 -53.0 -32.05 -53.0 -31.95 -53.1 -31.9 -53.15 -31.85 -53.2 -31.85 -53.3 -31.8 -53.55 -31.55 -53.55 -31.4 -53.6 -31.35 -53.65 -31.25 -53.7 -31.2 -53.75 -31.1 -53.95 -31.0 -54.0 -30.9 -54.05 -30.85 -54.05 -30.8 -54.2 -30.6 -54.15 -30.5 -54.1 -30.5 -54.0 -30.55 -53.7 -30.8 Q-53.6 -30.9 -53.55 -31.0 L-53.4 -31.2 -53.2 -31.35 -53.2 -31.4 -53.15 -31.5 -52.95 -31.6 Q-52.8 -31.85 -52.55 -31.95 L-52.3 -32.1 -52.0 -32.25 -51.95 -32.3 -51.75 -32.3 -51.6 -32.25 -51.5 -32.2 -51.5 -32.1 -51.45 -32.05 -51.35 -32.0 -50.9 -31.95 -50.8 -32.0 -50.7 -32.1 -50.55 -32.15 -50.5 -32.2 -50.3 -32.3 -50.25 -32.35 -50.35 -32.3 -50.45 -32.2 -51.4 -32.2 -51.45 -32.25 -51.65 -32.35 -51.75 -32.35 -52.05 -32.4 -52.1 -32.45 -52.2 -32.5 -52.35 -32.6 -52.45 -32.65 -52.5 -32.7 -52.65 -32.7 M-46.8 -34.9 L-46.3 -34.85 -46.0 -34.75 -45.9 -34.7 -45.75 -34.7 -45.65 -34.8 -45.55 -34.85 -45.4 -34.9 -45.4 -35.1 -45.35 -35.2 -45.2 -35.35 -44.95 -35.45 -44.45 -35.7 -44.4 -35.75 -44.2 -35.75 -44.05 -35.7 -43.95 -35.65 -43.9 -35.6 -43.9 -35.5 -43.65 -35.5 -43.5 -35.45 -43.4 -35.4 -43.25 -35.35 -43.15 -35.3 -43.05 -35.2 -43.05 -35.15 -43.0 -35.05 -42.7 -34.75 -42.65 -34.65 -42.65 -34.55 -42.6 -34.45 -42.6 -34.35 -42.55 -34.35 -42.4 -34.3 -42.5 -34.35 -42.55 -34.5 -42.6 -34.6 -42.6 -34.65 -42.7 -34.8 -42.7 -34.85 -43.1 -35.25 -43.2 -35.4 -43.2 -35.45 -43.4 -35.55 -43.55 -35.7 -43.65 -35.85 -43.7 -35.9 -43.8 -36.1 -43.85 -36.1 -44.05 -36.15 -44.1 -36.2 -44.75 -36.2 -44.9 -36.25 -45.55 -36.25 -45.55 -35.9 -45.65 -35.8 -45.65 -35.65 -45.7 -35.55 -45.7 -35.5 -45.75 -35.45 -45.8 -35.35 -45.9 -35.25 -46.05 -35.2 -47.2 -35.15 -47.2 -35.2 -47.35 -35.25 -47.45 -35.35 -47.6 -35.3 -47.8 -35.25 -47.85 -35.25 -48.15 -35.15 -48.2 -35.1 -48.65 -35.05 -49.3 -35.05 -49.4 -35.1 -49.55 -35.05 -49.55 -34.9 -49.6 -34.85 -49.6 -34.8 -49.65 -34.7 -49.65 -34.65 Q-49.05 -34.85 -48.45 -34.95 -48.15 -35.0 -47.85 -35.2 L-47.65 -35.2 -47.5 -35.15 -47.1 -35.1 -46.95 -35.1 -46.9 -35.0 -46.8 -34.9 M-49.95 -34.45 L-50.35 -34.4 -50.4 -34.35 -50.4 -34.3 -50.45 -34.2 -50.35 -34.1 -50.3 -34.0 -50.3 -33.95 -50.25 -33.85 -50.15 -33.75 -50.05 -33.85 -50.05 -34.2 -50.0 -34.3 -49.95 -34.35 -49.95 -34.45 M-10.95 -43.0 L-10.95 -43.05 -11.15 -43.1 -11.35 -42.9 -11.9 -42.85 -12.0 -42.8 -12.3 -42.75 -12.45 -42.7 -12.55 -42.65 -12.6 -42.6 -12.8 -42.6 -12.95 -42.5 -13.05 -42.45 -13.1 -42.45 -13.25 -42.4 -13.35 -42.35 -13.65 -42.3 -13.75 -42.3 -14.05 -42.15 -14.15 -42.05 -14.3 -42.0 -14.35 -42.0 -14.45 -41.95 -14.6 -42.0 -14.6 -41.95 -14.7 -41.9 -15.05 -41.9 -15.15 -41.95 -15.2 -42.05 -15.25 -42.1 -15.25 -42.15 -15.3 -42.25 -15.35 -42.3 -15.45 -42.35 -15.85 -42.45 -16.35 -42.55 -16.4 -42.6 -16.65 -42.6 -16.8 -42.65 -16.9 -42.6 -17.2 -42.5 -17.35 -42.5 -17.45 -42.45 -17.6 -42.5 -17.7 -42.6 -17.7 -42.65 -17.75 -42.7 -17.75 -42.8 -17.8 -42.8 -18.25 -42.75 -18.35 -42.7 -19.25 -42.65 -19.3 -42.6 -19.35 -42.5 -19.4 -42.45 -19.45 -42.35 -19.45 -42.3 -19.5 -42.25 -19.55 -42.15 -19.6 -42.1 -19.6 -42.05 -19.65 -41.95 -19.7 -41.9 -19.7 -41.55 -19.75 -41.5 -19.8 -41.4 -19.8 -41.2 -19.85 -41.15 -19.85 -41.0 -19.9 -40.95 -19.85 -40.9 -19.85 -40.8 -19.7 -40.75 -19.55 -40.6 -19.55 -40.55 -19.5 -40.45 -19.5 -39.6 -19.45 -39.5 -19.35 -39.45 -19.35 -39.3 -19.3 -39.25 -19.25 -39.15 -19.25 -39.05 -19.2 -38.95 -19.1 -38.85 -19.1 -38.75 -19.05 -38.7 -19.05 -37.85 -19.1 -37.8 -19.1 -37.75 -19.15 -37.65 -19.15 -37.55 -19.2 -37.45 -19.25 -37.4 -19.25 -37.25 -19.3 -37.2 -19.3 -37.1 -19.35 -37.05 -19.35 -36.9 -19.4 -36.85 -19.4 -36.7 -19.45 -36.65 -19.45 -36.6 -19.5 -36.5 -19.55 -36.45 -19.55 -36.35 -19.65 -36.25 -19.7 -36.15 -19.7 -36.1 -19.75 -36.05 -19.8 -35.95 -19.8 -35.9 -19.85 -35.85 -19.9 -35.75 -19.9 -35.7 -19.95 -35.6 -20.0 -35.55 -20.0 -35.5 -20.05 -35.4 -20.15 -35.3 -20.2 -35.2 -20.25 -35.15 -20.25 -34.95 -20.3 -34.85 -20.35 -34.8 -20.35 -34.65 -20.4 -34.6 -20.4 -34.55 -20.5 -34.45 -20.5 -34.35 -20.55 -34.25 -20.6 -34.2 -20.6 -33.8 -20.55 -33.7 -20.5 -33.65 -20.4 -33.45 -20.4 -33.55 -20.35 -33.6 -20.3 -33.7 -20.3 -33.75 -20.25 -33.85 -20.2 -33.9 -20.2 -34.25 -20.15 -34.3 -20.05 -34.45 -19.85 -34.65 -19.85 -34.8 -19.75 -34.9 -19.6 -35.2 -19.55 -35.25 -19.55 -35.4 -19.5 -35.45 -19.45 -35.55 -19.45 -35.65 -19.4 -35.75 -19.4 -35.8 -19.35 -35.85 -19.35 -36.35 -19.3 -36.4 -19.3 -36.7 -19.25 -36.75 -19.2 -36.85 -19.2 -37.0 -19.1 -37.1 -19.1 -37.35 -19.05 -37.45 -19.0 -37.5 -19.0 -37.9 -18.95 -38.0 -18.9 -38.05 -18.9 -38.2 -18.85 -38.25 -18.85 -38.75 -18.8 -38.95 -18.8 -39.0 -18.85 -39.1 -18.85 -39.2 -18.9 -39.3 -19.0 -39.4 -19.1 -39.55 -19.1 -39.7 -19.3 -39.9 -19.3 -40.3 -19.35 -40.35 -19.35 -40.45 -19.4 -40.6 -19.4 -41.55 -19.3 -41.65 -19.25 -41.75 -19.2 -41.8 -19.2 -41.85 -19.05 -42.0 -19.05 -42.15 -19.0 -42.2 -18.95 -42.3 -18.9 -42.35 -18.75 -42.4 -18.65 -42.4 -18.5 -42.35 -18.0 -42.25 -17.15 -42.25 -17.0 -42.3 -16.3 -42.3 -16.15 -42.25 -16.05 -42.2 -16.05 -42.15 -16.0 -42.05 -16.0 -42.0 -15.95 -41.95 -15.85 -41.9 -15.7 -41.75 -15.6 -41.6 -15.55 -41.5 -15.55 -41.3 -15.6 -41.2 -15.6 -41.15 -15.65 -41.15 -15.3 -41.25 Q-15.1 -41.3 -14.95 -41.35 L-14.8 -41.4 -14.3 -41.45 -14.2 -41.5 Q-14.15 -41.55 -14.1 -41.55 L-14.0 -41.6 -13.75 -41.7 Q-13.55 -41.8 -13.35 -41.9 L-13.3 -41.95 -13.0 -42.15 -12.5 -42.4 -12.45 -42.45 -12.4 -42.45 -12.15 -42.55 -11.65 -42.65 -11.3 -42.65 -10.85 -42.5 -10.6 -42.4 -10.55 -42.35 -10.5 -42.25 -10.35 -42.25 -10.25 -42.3 -10.2 -42.35 -10.1 -42.4 -9.8 -42.7 Q-9.6 -42.85 -9.4 -42.95 L-9.3 -42.95 Q-9.1 -43.05 -8.9 -43.15 L-8.6 -43.35 Q-8.55 -43.5 -8.4 -43.65 -8.15 -43.85 -8.0 -44.1 L-7.95 -44.2 -7.95 -44.35 -7.75 -44.45 -7.55 -44.65 -7.35 -44.7 -7.1 -44.7 -7.0 -44.65 -6.9 -44.7 -6.75 -44.75 -6.55 -44.85 -6.45 -44.85 -6.2 -44.9 -6.1 -44.95 -6.05 -45.0 -5.9 -45.05 -5.0 -45.2 -4.75 -45.2 -4.6 -45.25 -4.55 -45.3 -4.5 -45.3 -3.9 -45.4 -3.0 -45.4 -2.85 -45.35 -2.75 -45.3 -2.7 -45.25 -2.55 -45.2 -2.4 -45.2 -2.8 -45.6 -2.85 -45.6 -3.05 -45.7 -3.1 -45.8 -3.1 -46.05 -3.35 -46.05 -3.55 -46.1 -3.6 -46.15 -3.75 -46.15 -3.85 -46.05 -3.9 -45.95 -3.95 -45.9 -4.2 -45.75 -4.3 -45.65 -4.35 -45.65 -4.45 -45.6 -4.6 -45.55 -4.6 -45.5 -4.75 -45.45 -4.8 -45.4 -5.05 -45.35 -6.15 -45.3 -6.55 -45.1 -6.6 -45.0 -6.8 -44.95 -6.9 -44.9 -7.0 -44.9 -7.15 -44.85 -7.3 -44.75 -7.45 -44.7 -7.65 -44.7 -7.95 -44.55 -8.1 -44.5 -8.2 -44.4 -8.3 -44.35 -8.45 -44.35 -8.7 -44.1 -8.8 -44.05 -9.0 -43.9 -9.15 -43.75 -9.25 -43.7 -9.55 -43.65 -9.6 -43.6 -9.7 -43.55 -9.7 -43.1 -9.8 -43.0 -9.8 -42.85 -9.9 -42.8 -10.0 -42.7 -10.7 -42.7 -10.9 -42.9 -10.95 -43.0 M-1.2 -44.6 L-1.1 -44.55 -1.15 -44.65 -1.25 -44.65 -1.3 -44.6 -1.2 -44.6 M-0.55 -43.45 L-0.65 -43.4 -0.6 -43.35 -0.55 -43.25 -0.4 -43.1 -0.4 -43.15 -0.45 -43.2 -0.5 -43.3 -0.5 -43.35 -0.55 -43.4 -0.55 -43.45 M-0.1 -42.8 L0.0 -42.75 -0.15 -42.8 -0.1 -42.8 M-21.0 -31.95 L-21.05 -31.85 -21.1 -31.8 -21.1 -31.75 -21.15 -31.65 -21.15 -31.4 -21.2 -31.35 -21.25 -31.25 -21.3 -31.2 -21.35 -31.1 -21.5 -31.05 -21.6 -31.0 -21.75 -30.95 -21.9 -30.95 -22.1 -31.0 -22.15 -31.1 -22.2 -31.1 -22.2 -31.15 -22.35 -31.2 -22.45 -31.25 -22.5 -31.35 -22.55 -31.35 -22.55 -31.4 -22.65 -31.4 -22.8 -31.45 -22.95 -31.45 -22.95 -31.2 -23.0 -31.1 -23.0 -31.05 -23.05 -31.0 -23.05 -30.65 -23.1 -30.6 -23.1 -30.5 -23.15 -30.45 -23.15 -28.55 -23.1 -28.45 -23.1 -28.4 -23.05 -28.3 -23.05 -27.45 -23.0 -27.4 -22.95 -27.3 -22.9 -27.25 -22.9 -27.15 -22.8 -27.05 -22.8 -26.9 -22.75 -26.85 -22.7 -26.75 -22.6 -26.65 -22.45 -26.65 -22.3 -26.7 -21.9 -26.7 -22.05 -26.8 -22.1 -26.85 -22.2 -26.9 -22.4 -27.2 -22.4 -27.25 -22.45 -27.3 -22.5 -27.4 -22.55 -27.45 -22.6 -27.55 -22.7 -27.65 -22.7 -27.85 -22.75 -27.95 -22.8 -28.0 -22.8 -28.15 -22.85 -28.2 -22.85 -29.45 -22.8 -29.5 -22.8 -29.7 -22.75 -29.8 -22.7 -29.85 -22.7 -29.9 -22.6 -30.05 -22.6 -30.4 -22.55 -30.45 -22.5 -30.55 -22.4 -30.6 -22.3 -30.6 -22.0 -30.5 -21.8 -30.3 -21.8 -30.15 -21.55 -30.15 -21.35 -30.2 -21.2 -30.25 -20.95 -30.35 -20.95 -30.8 -20.9 -30.9 -20.9 -31.05 -20.85 -31.25 -20.85 -31.9 -20.8 -32.0 -20.6 -32.2 Q-20.5 -32.25 -20.5 -32.4 L-20.5 -32.45 -20.8 -32.15 -20.9 -32.1 -21.0 -32.0 -21.0 -31.95 M-20.4 -32.65 L-20.4 -32.6 -20.4 -32.65 M-6.0 -32.25 L-6.15 -32.2 -6.1 -32.2 -6.05 -32.15 -5.95 -32.25 -5.95 -32.3 -6.0 -32.25 M-5.8 -32.45 L-5.65 -32.5 -5.45 -32.55 -5.4 -32.6 -5.4 -32.7 -5.25 -32.8 -5.15 -32.95 -5.05 -33.05 -5.05 -33.15 -5.0 -33.25 -4.9 -33.35 -4.8 -33.6 -4.8 -33.8 -4.75 -33.85 -4.75 -33.9 -4.4 -34.25 -4.25 -34.35 -4.15 -34.35 -4.1 -34.4 -3.8 -34.4 -3.65 -34.35 -3.55 -34.35 -3.5 -34.3 -3.55 -34.4 -3.65 -34.55 -3.7 -34.6 -3.7 -34.9 -4.1 -34.9 -4.3 -34.85 -4.35 -34.75 -4.45 -34.7 -4.6 -34.65 -4.7 -34.55 -4.75 -34.45 -4.75 -34.4 -4.8 -34.35 -4.8 -34.2 -4.85 -34.1 -4.9 -34.05 -4.9 -34.0 Q-5.0 -34.0 -5.05 -33.95 L-5.15 -33.95 -5.15 -34.1 -5.2 -34.15 -5.2 -34.25 -5.25 -34.3 -5.25 -34.35 -5.45 -34.15 -5.45 -34.1 -5.4 -34.0 -5.35 -33.95 -5.35 -33.4 Q-5.35 -33.3 -5.35 -33.2 L-5.4 -33.15 -5.45 -33.05 -5.7 -32.8 -5.7 -32.7 -5.75 -32.65 -5.75 -32.6 -5.8 -32.5 -5.85 -32.45 -5.8 -32.45 M-8.75 -30.25 L-8.8 -30.2 -8.8 -30.0 -8.5 -29.95 -8.5 -30.15 -8.45 -30.25 -8.25 -30.55 -8.2 -30.65 -8.05 -30.9 -7.95 -31.05 -8.0 -31.05 -8.4 -31.0 -8.4 -30.75 -8.45 -30.65 -8.45 -30.6 -8.5 -30.55 -8.55 -30.45 -8.65 -30.4 -8.7 -30.35 -8.75 -30.25 M-7.3 -29.55 L-7.2 -29.5 -7.15 -29.35 -6.8 -29.25 -6.65 -29.2 -6.3 -28.95 Q-6.1 -28.85 -6.0 -28.7 L-5.95 -28.65 -5.95 -28.5 -5.9 -28.45 Q-5.45 -28.35 -5.0 -28.5 L-4.9 -28.5 -4.45 -28.4 -4.3 -28.35 -4.2 -28.3 -4.15 -28.25 -4.15 -28.15 -4.05 -28.05 -4.0 -28.05 -3.8 -28.1 -3.65 -28.15 -3.15 -28.15 -3.2 -28.2 -3.3 -28.25 -3.5 -28.45 -3.5 -28.5 -5.2 -28.6 -5.35 -28.65 -5.45 -28.7 -5.5 -28.8 -5.7 -29.0 -5.75 -29.0 -6.25 -29.05 -6.3 -29.1 -6.5 -29.2 -6.55 -29.25 -6.85 -29.35 -6.95 -29.4 -7.05 -29.5 -7.05 -29.6 -7.1 -29.7 -7.15 -29.75 -7.55 -29.75 -7.4 -29.7 -7.35 -29.6 -7.3 -29.55 M-0.8 -34.05 L-0.65 -34.05 -0.5 -34.0 -0.4 -34.0 -0.4 -34.2 -0.35 -34.3 -0.45 -34.4 -0.45 -34.45 -0.65 -34.35 -0.7 -34.3 -0.7 -34.25 -0.75 -34.15 -0.8 -34.1 -0.9 -34.05 -0.8 -34.05 M-1.25 -33.7 L-1.2 -33.8 -1.05 -33.95 -1.45 -33.9 Q-1.75 -33.8 -2.0 -33.7 L-2.3 -33.7 -2.4 -33.75 -2.85 -33.8 -3.0 -33.85 -3.1 -33.95 -3.05 -33.85 -2.95 -33.75 -2.85 -33.6 -2.75 -33.55 -2.7 -33.55 -2.45 -33.5 -2.3 -33.45 -2.2 -33.4 Q-2.2 -33.35 -2.15 -33.35 L-1.35 -33.35 -1.3 -33.45 -1.25 -33.5 -1.25 -33.7 M-1.55 -28.35 L-2.2 -28.25 -2.5 -28.2 -2.6 -28.15 -2.1 -28.15 -1.8 -28.05 -1.7 -27.95 -1.55 -27.9 -1.5 -27.8 -1.3 -27.8 -1.1 -27.75 -1.05 -27.65 -0.95 -27.55 -0.95 -27.2 -1.0 -27.1 -1.05 -27.05 -1.15 -26.9 -1.15 -26.8 -1.2 -26.7 -1.4 -26.5 -1.4 -26.05 -1.45 -25.95 -1.5 -25.9 -1.55 -25.8 -1.6 -25.8 -2.0 -25.65 Q-2.2 -25.6 -2.35 -25.45 L-2.4 -25.4 -2.45 -25.3 -2.45 -25.25 -2.4 -25.2 -2.4 -25.05 -2.35 -25.0 -2.35 -24.9 -2.3 -24.85 -2.3 -24.65 -1.55 -24.55 -1.45 -24.5 -1.3 -24.4 -1.3 -24.35 -1.25 -24.3 -1.2 -24.2 -1.15 -24.15 -1.1 -24.05 -1.05 -24.0 -1.0 -23.85 -0.95 -23.8 -0.95 -23.6 -0.9 -23.55 -0.85 -23.45 -0.85 -22.9 -0.8 -22.85 -0.8 -22.65 -0.75 -22.6 -0.7 -22.5 -0.7 -22.35 -0.6 -22.25 -0.6 -21.9 -0.65 -21.8 -0.7 -21.75 -0.7 -21.6 -0.95 -21.35 Q-0.95 -21.25 -1.05 -21.15 L-1.1 -21.1 -1.0 -21.15 -0.8 -21.15 -0.65 -21.25 -0.55 -21.35 -0.5 -21.45 -0.5 -22.1 -0.45 -22.2 -0.35 -22.3 -0.35 -22.4 -0.3 -22.45 -0.3 -22.6 -0.25 -22.65 -0.25 -23.3 -0.15 -23.4 -0.15 -23.9 -0.2 -23.95 -0.25 -24.05 -0.45 -24.15 -0.55 -24.25 -0.65 -24.3 -0.8 -24.45 -0.8 -24.5 -0.85 -24.55 -1.1 -24.55 -1.25 -24.6 -1.3 -24.7 -1.4 -24.75 -1.4 -25.25 -1.35 -25.3 -1.35 -25.35 -1.3 -25.45 -1.3 -25.55 -1.2 -25.75 -1.1 -25.9 -1.05 -26.0 -0.9 -26.2 -0.8 -26.3 -0.8 -26.55 -0.7 -26.65 -0.7 -26.8 -0.65 -26.85 -0.6 -26.95 -0.6 -27.05 -0.65 -27.15 -0.7 -27.2 -0.7 -27.35 -0.75 -27.4 -0.8 -27.5 -1.0 -27.6 -1.0 -27.7 -1.1 -27.8 -1.25 -28.1 -1.35 -28.25 -1.45 -28.35 -1.55 -28.35 M-41.25 -33.6 L-41.35 -33.55 -41.45 -33.55 -41.4 -33.45 -41.35 -33.4 -41.25 -33.35 -40.55 -33.35 -40.65 -33.4 -40.75 -33.5 -40.75 -33.55 -40.9 -33.6 -41.0 -33.6 -41.2 -33.65 -41.25 -33.65 -41.25 -33.6 M-40.9 -29.35 L-40.85 -29.4 -41.15 -29.4 -41.2 -29.35 -41.2 -29.25 -41.25 -29.2 -41.25 -29.1 -41.2 -29.05 -41.2 -28.85 -41.15 -28.8 -41.1 -28.7 -41.0 -28.65 -40.95 -28.55 -40.9 -28.5 -40.9 -28.35 -40.85 -28.35 -40.65 -28.3 -40.6 -28.2 -40.6 -28.45 -40.9 -28.6 -40.9 -28.65 -40.95 -28.75 -40.95 -29.2 -40.9 -29.3 -40.9 -29.35 M-37.55 -33.25 L-37.65 -33.35 -37.85 -33.4 -37.9 -33.4 -38.35 -33.45 -38.4 -33.55 -38.45 -33.6 -38.6 -33.65 -38.65 -33.7 -38.8 -33.75 -38.85 -33.75 -38.95 -33.85 -39.0 -33.85 -39.25 -33.9 -39.35 -33.85 -39.4 -33.75 -39.55 -33.6 -39.65 -33.55 -39.8 -33.5 -39.9 -33.4 -40.0 -33.35 -40.1 -33.35 -40.0 -33.3 -39.85 -33.3 -39.7 -33.35 -39.6 -33.45 -39.5 -33.5 -39.4 -33.5 -39.1 -33.6 -38.65 -33.6 -38.5 -33.55 -38.4 -33.5 -38.35 -33.4 -38.3 -33.35 -38.15 -33.35 -38.0 -33.4 -37.9 -33.35 -37.75 -33.35 -37.6 -33.3 -37.55 -33.25 M-36.4 -32.3 L-36.45 -32.25 -36.45 -32.15 -36.5 -32.1 -36.6 -31.95 -36.75 -31.9 -36.85 -31.85 -37.0 -31.8 -37.4 -31.75 -37.25 -31.6 -36.55 -31.75 -36.5 -31.8 -36.5 -31.95 -36.45 -32.0 -36.45 -32.1 -36.35 -32.2 -36.35 -32.35 -36.4 -32.4 -36.45 -32.4 -36.45 -32.35 -36.4 -32.3 M-37.8 -30.6 L-37.8 -30.75 -37.9 -30.75 -37.9 -30.35 -37.85 -30.4 -37.85 -30.55 -37.8 -30.6 M-37.9 -30.2 L-37.9 -30.25 -37.95 -30.15 -38.05 -30.0 -38.0 -30.0 -37.95 -30.1 -37.9 -30.15 -37.9 -30.2 M-38.1 -29.95 L-38.05 -29.95 -38.15 -29.85 -38.25 -29.8 -38.3 -29.75 -38.25 -29.75 -38.15 -29.85 -38.1 -29.95 M-26.95 -23.55 L-27.1 -23.5 -27.3 -23.3 -27.4 -23.15 -27.55 -23.05 -27.55 -22.65 -27.45 -22.75 -27.3 -22.85 -27.05 -23.0 -26.75 -23.1 -26.6 -23.05 -26.2 -23.05 -26.0 -23.35 -25.85 -23.5 -25.75 -23.55 -25.45 -23.65 -24.9 -23.65 -24.75 -23.6 -24.55 -23.6 -24.4 -23.7 -24.3 -23.75 -23.35 -23.75 -23.25 -23.7 -23.1 -23.65 -23.0 -23.5 -22.8 -23.35 -22.7 -23.3 -22.65 -23.25 -22.6 -23.15 -22.5 -23.1 -22.45 -23.05 -22.45 -22.85 -22.3 -22.9 -22.15 -23.05 -22.15 -23.2 -22.05 -23.3 -22.0 -23.4 -21.9 -23.5 Q-21.75 -23.7 -21.6 -23.95 L-21.4 -24.2 -21.25 -24.4 -21.25 -24.55 -21.2 -24.6 -21.15 -24.7 -21.15 -25.45 -21.1 -25.55 -21.1 -25.65 -21.05 -25.7 -21.05 -26.2 -21.0 -26.25 -21.0 -26.3 -20.95 -26.4 -20.9 -26.45 -21.0 -26.55 -21.1 -26.55 -21.2 -26.5 -21.3 -26.5 -21.3 -26.45 -21.25 -26.4 -21.25 -25.8 -21.3 -25.7 -21.3 -25.65 -21.35 -25.55 -21.35 -25.5 -21.4 -25.45 -21.4 -25.35 -21.45 -25.3 -21.45 -25.15 -21.5 -25.1 -21.6 -24.95 -21.65 -24.75 -21.75 -24.7 -21.8 -24.6 -21.8 -24.55 -21.85 -24.5 -21.95 -24.35 -21.95 -24.3 -22.05 -24.2 -22.0 -24.1 -22.0 -23.85 -22.05 -23.8 -22.1 -23.7 -22.15 -23.65 -22.45 -23.65 -22.7 -23.75 -22.75 -23.8 -23.4 -23.8 -23.55 -23.9 -23.65 -23.95 -23.85 -24.15 -24.1 -24.2 -24.35 -24.3 -24.35 -24.25 Q-24.8 -24.1 -25.25 -24.05 L-25.7 -23.95 -25.8 -23.9 -26.05 -23.85 -26.1 -23.8 -26.6 -23.75 -26.65 -23.7 Q-26.7 -23.65 -26.8 -23.65 L-26.95 -23.55 M-28.45 -21.9 L-28.8 -21.9 -28.85 -21.95 -29.35 -22.15 -29.85 -22.15 -29.9 -22.2 -29.95 -22.2 -30.05 -22.25 -30.2 -22.4 -30.2 -22.45 -30.25 -22.55 -30.5 -22.8 -30.6 -22.8 -30.65 -22.85 -31.95 -22.8 -32.1 -22.8 -32.2 -22.75 -32.35 -22.7 -32.7 -22.7 -32.7 -22.35 -32.85 -22.2 -33.0 -22.15 -33.3 -22.15 -33.65 -22.1 -33.7 -22.05 -33.6 -22.0 -33.6 -21.95 -33.55 -21.85 -33.5 -21.8 -33.35 -21.85 -33.3 -21.85 -33.15 -21.8 -33.05 -21.75 -32.95 -21.8 -32.75 -22.0 -32.65 -22.15 -32.45 -22.35 -32.0 -22.5 -31.85 -22.5 -31.7 -22.45 -31.4 -22.3 -30.85 -22.2 -30.7 -22.15 -30.6 -22.1 -30.55 -22.05 -30.55 -21.75 -30.6 -21.7 -30.6 -21.6 -30.55 -21.6 -30.1 -21.65 -28.25 -21.7 -28.1 -21.85 -28.1 -21.9 -28.05 -21.95 -28.35 -21.95 -28.45 -21.9 M-34.65 -22.3 L-34.7 -22.35 -34.8 -22.35 -35.5 -22.3 -35.6 -22.2 -35.6 -22.15 -35.55 -22.05 -35.45 -21.95 -35.45 -21.85 -35.4 -21.8 -35.4 -21.5 -35.35 -21.55 -35.2 -21.65 -35.1 -21.75 -35.05 -21.85 -34.95 -21.9 -34.9 -22.0 -34.75 -22.05 -34.65 -22.1 -34.3 -22.15 -34.2 -22.1 -34.3 -22.2 -34.5 -22.25 -34.65 -22.3 M-40.4 -27.95 L-40.4 -27.8 -40.35 -27.75 -40.35 -27.8 -40.4 -27.85 -40.4 -27.95 M-40.25 -23.15 L-40.25 -23.2 -40.3 -23.3 -40.35 -23.35 -40.35 -22.85 -40.4 -22.75 -40.45 -22.7 -40.5 -22.6 -40.5 -22.55 -40.55 -22.5 -40.6 -22.4 -40.6 -22.2 -40.7 -22.1 -40.75 -22.0 -40.8 -21.95 -40.7 -21.8 -40.6 -21.6 -40.55 -21.55 -40.5 -21.45 -40.5 -21.4 -39.9 -21.35 -39.85 -21.45 -39.75 -21.5 -39.65 -21.5 -39.45 -21.55 -39.3 -21.6 -39.1 -21.6 -38.95 -21.55 -38.85 -21.5 -38.7 -21.4 -38.6 -21.3 -38.55 -21.2 -38.5 -21.15 -38.5 -21.0 -38.45 -20.95 -38.4 -20.85 -38.3 -20.75 -38.25 -20.65 -38.25 -20.55 -38.2 -20.45 -38.05 -20.3 -38.05 -20.25 -38.0 -20.2 -38.0 -20.05 -38.05 -20.0 -37.0 -20.0 -36.4 -20.05 -36.2 -20.35 -36.05 -20.5 -35.85 -20.6 -35.65 -20.8 -35.65 -20.9 -35.6 -20.95 -35.6 -21.05 -35.75 -20.9 -35.85 -20.7 -36.0 -20.55 -36.2 -20.45 -36.8 -20.45 -36.85 -20.5 -37.9 -20.55 -37.95 -20.55 -38.05 -20.6 -38.2 -20.75 -38.3 -20.9 -38.4 -21.0 -38.6 -21.3 -38.6 -21.45 -38.7 -21.55 -38.75 -21.65 -38.95 -21.85 -39.85 -21.85 -40.0 -21.9 -40.2 -22.1 -40.25 -22.25 -40.25 -23.15 M-40.65 -26.3 L-40.7 -26.25 -40.65 -26.15 -40.6 -26.15 -40.6 -26.35 -40.65 -26.3 M-6.05 -18.95 L-6.05 -18.9 -6.0 -18.9 -5.8 -18.95 -5.7 -18.9 -5.7 -19.2 -5.65 -19.3 -5.6 -19.35 -5.6 -19.5 -5.5 -19.6 -5.5 -20.05 -5.55 -19.95 -5.55 -19.9 -5.6 -19.8 -5.6 -19.6 Q-5.6 -19.5 -5.65 -19.4 L-5.85 -19.15 -6.05 -18.95 M-6.25 -15.95 L-6.1 -15.9 -6.0 -15.85 -5.85 -15.8 -5.8 -15.7 -5.55 -15.65 -5.45 -15.55 -5.4 -15.55 -5.4 -15.6 -5.45 -15.7 -5.55 -15.8 -5.6 -15.9 -6.05 -15.95 -6.15 -16.0 -6.35 -16.05 -6.25 -15.95 M-3.8 -19.7 L-3.65 -19.65 -3.6 -19.55 -3.45 -19.45 -3.4 -19.45 -3.5 -19.5 -3.7 -19.7 -3.85 -19.75 -3.8 -19.7 M-5.15 -18.1 L-5.1 -18.05 -5.05 -17.95 -5.0 -17.9 -4.95 -17.8 -4.95 -17.6 -4.9 -17.65 -4.9 -17.7 -4.95 -17.8 -4.95 -17.85 -5.0 -17.9 -5.05 -18.0 -5.15 -18.1 M-5.0 -15.15 L-5.1 -15.2 -5.15 -15.25 -5.1 -15.15 -5.05 -15.1 -5.05 -14.9 -5.0 -14.8 -5.0 -14.75 -4.95 -14.6 -4.95 -14.2 -5.0 -14.15 -5.0 -14.05 -5.05 -14.0 -5.05 -13.95 -5.1 -13.85 -5.1 -13.8 -5.15 -13.75 -5.15 -13.55 -5.2 -13.45 -5.25 -13.4 -5.2 -13.3 -5.2 -13.25 -5.15 -13.2 -5.15 -13.05 -5.1 -13.0 -5.05 -12.9 -5.0 -12.85 -5.0 -12.8 -4.95 -12.7 -4.95 -12.9 -4.9 -13.0 -4.85 -13.05 -4.85 -13.2 -4.8 -13.25 -4.8 -13.75 -4.7 -13.85 -4.7 -14.0 -4.65 -14.05 -4.6 -14.15 -4.6 -14.95 -4.65 -14.95 -4.8 -15.0 -4.9 -15.05 -5.0 -15.15" fill="#8ce6e6" fill-opacity="0.7529412" fill-rule="evenodd" stroke="none"/>
  </g>
</svg>
