<?xml version="1.0" encoding="UTF-8" standalone="no"?>
<svg xmlns:ffdec="https://www.free-decompiler.com/flash" xmlns:xlink="http://www.w3.org/1999/xlink" ffdec:objectType="shape" height="36.85px" width="21.45px" xmlns="http://www.w3.org/2000/svg">
  <g transform="matrix(1.0, 0.0, 0.0, 1.0, 10.55, 38.15)">
    <path d="M4.3 -35.55 Q3.5 -34.0 1.25 -34.3 L0.75 -34.35 Q-0.2 -35.2 -2.15 -34.85 L-2.25 -34.25 Q-2.25 -33.75 -2.2 -33.2 -1.55 -32.0 -0.35 -31.45 L-0.25 -31.1 Q0.0 -31.1 0.2 -31.25 L0.35 -31.2 Q1.55 -30.9 1.55 -31.85 L1.55 -32.5 Q3.15 -32.75 4.7 -32.25 7.45 -31.3 8.45 -29.25 9.35 -27.85 9.1 -26.1 8.3 -27.6 7.8 -29.25 7.6 -29.55 7.35 -29.7 7.15 -29.85 6.95 -30.05 L6.9 -30.15 6.7 -29.1 Q6.6 -28.6 6.6 -28.1 L6.65 -28.1 Q7.15 -26.8 7.5 -25.45 L7.4 -25.5 7.1 -25.55 Q6.95 -24.8 6.8 -23.95 6.75 -23.05 6.6 -22.1 L6.55 -21.65 6.5 -21.25 Q6.45 -20.5 5.95 -20.0 5.6 -19.25 5.05 -18.6 L5.25 -19.55 Q5.05 -19.45 4.8 -19.45 5.1 -20.45 5.55 -21.85 5.85 -25.8 4.55 -29.6 L4.5 -29.65 Q3.55 -30.35 2.05 -30.4 L1.95 -30.4 Q0.65 -29.85 -0.45 -28.85 -0.9 -28.25 -0.8 -27.6 -0.8 -27.35 -0.7 -27.15 -0.55 -26.6 -0.1 -26.0 0.6 -25.05 -0.15 -24.6 -1.65 -25.2 -3.25 -25.95 -3.8 -26.2 -4.45 -26.0 -5.1 -25.8 -5.35 -26.4 L-5.35 -26.45 Q-5.3 -27.35 -4.4 -27.85 -3.95 -28.1 -3.45 -28.2 L-3.0 -28.6 Q-2.85 -29.25 -2.8 -29.9 L-2.8 -30.1 Q-2.75 -30.85 -2.75 -31.55 -3.25 -33.0 -3.85 -34.4 L-3.95 -34.65 -3.85 -35.15 -3.65 -35.6 Q-1.8 -36.55 0.5 -36.4 2.5 -36.25 4.3 -35.55 M2.15 -11.0 Q3.25 -9.3 5.2 -8.5 L5.05 -8.45 Q1.0 -7.7 0.35 -3.75 L0.45 -3.55 0.3 -3.1 0.35 -3.0 0.15 -3.15 Q-1.05 -4.2 -2.0 -5.5 -2.7 -5.5 -3.05 -5.95 L-2.65 -6.15 Q-1.45 -5.95 -0.35 -5.45 -0.15 -6.2 -0.4 -6.7 L-0.05 -6.85 0.05 -7.25 -0.7 -7.2 Q-1.25 -7.75 -2.55 -7.95 -5.05 -8.4 -6.95 -7.55 L-7.1 -7.6 -7.35 -7.65 -8.15 -7.9 -8.65 -9.2 -8.75 -9.45 -8.8 -9.45 Q-8.95 -10.65 -8.65 -11.7 -8.45 -11.0 -8.35 -10.3 -8.2 -9.5 -7.55 -9.55 -6.45 -10.9 -6.95 -13.0 L-7.2 -14.0 Q-6.3 -15.0 -5.3 -15.8 -4.9 -15.75 -4.55 -15.45 -4.4 -15.3 -4.15 -15.25 L-3.0 -15.2 -2.85 -15.2 -2.6 -15.4 -2.85 -15.15 -2.7 -15.1 Q-2.7 -13.9 -3.8 -13.85 -4.65 -12.2 -4.0 -10.1 -3.75 -9.3 -2.6 -9.45 L0.95 -10.1 1.1 -10.2 Q1.5 -10.55 1.45 -11.1 1.4 -11.45 1.75 -11.65 L2.3 -11.65 2.2 -11.4 2.15 -11.0 M0.7 -9.0 L0.65 -9.0 0.7 -8.95 0.7 -9.0 M-1.0 -28.3 L-0.95 -28.1 -0.85 -28.45 -1.0 -28.3 M-4.55 -13.8 L-4.45 -13.9 -4.55 -13.9 -4.55 -13.8" fill="#ffffff" fill-rule="evenodd" stroke="none"/>
    <path d="M4.3 -35.55 Q3.5 -34.0 1.25 -34.3 L0.75 -34.35 Q-0.2 -35.2 -2.15 -34.85 L-2.25 -34.25 Q-2.25 -33.75 -2.2 -33.2 -1.55 -32.0 -0.35 -31.45 L-0.25 -31.1 Q0.0 -31.1 0.2 -31.25 L0.35 -31.2 Q1.55 -30.9 1.55 -31.85 L1.55 -32.5 Q3.15 -32.75 4.7 -32.25 7.45 -31.3 8.45 -29.25 9.35 -27.85 9.1 -26.1 8.3 -27.6 7.8 -29.25 7.6 -29.55 7.35 -29.7 7.15 -29.85 6.95 -30.05 L6.9 -30.15 6.7 -29.1 Q6.6 -28.6 6.6 -28.1 L6.65 -28.1 Q7.15 -26.8 7.5 -25.45 L7.4 -25.5 7.1 -25.55 Q6.95 -24.8 6.8 -23.95 6.75 -23.05 6.6 -22.1 L6.55 -21.65 6.5 -21.25 Q6.45 -20.5 5.95 -20.0 5.6 -19.25 5.05 -18.6 L5.25 -19.55 Q5.05 -19.45 4.8 -19.45 5.1 -20.45 5.55 -21.85 5.85 -25.8 4.55 -29.6 L4.5 -29.65 Q3.55 -30.35 2.05 -30.4 L1.95 -30.4 Q0.65 -29.85 -0.45 -28.85 -0.9 -28.25 -0.8 -27.6 -0.8 -27.35 -0.7 -27.15 -0.55 -26.6 -0.1 -26.0 0.6 -25.05 -0.15 -24.6 -1.65 -25.2 -3.25 -25.95 -3.8 -26.2 -4.45 -26.0 -5.1 -25.8 -5.35 -26.4 L-5.35 -26.45 Q-5.3 -27.35 -4.4 -27.85 -3.95 -28.1 -3.45 -28.2 L-3.0 -28.6 Q-2.85 -29.25 -2.8 -29.9 L-2.8 -30.1 Q-2.75 -30.85 -2.75 -31.55 -3.25 -33.0 -3.85 -34.4 L-3.95 -34.65 -3.85 -35.15 -3.65 -35.6 Q-1.8 -36.55 0.5 -36.4 2.5 -36.25 4.3 -35.55 M2.15 -11.0 Q3.25 -9.3 5.2 -8.5 L5.05 -8.45 Q1.0 -7.7 0.35 -3.75 L0.45 -3.55 0.3 -3.1 0.35 -3.0 0.15 -3.15 Q-1.05 -4.2 -2.0 -5.5 -2.7 -5.5 -3.05 -5.95 L-2.65 -6.15 Q-1.45 -5.95 -0.35 -5.45 -0.15 -6.2 -0.4 -6.7 L-0.05 -6.85 0.05 -7.25 -0.7 -7.2 Q-1.25 -7.75 -2.55 -7.95 -5.05 -8.4 -6.95 -7.55 L-7.1 -7.6 -7.35 -7.65 -8.15 -7.9 -8.65 -9.2 -8.75 -9.45 -8.8 -9.45 Q-8.95 -10.65 -8.65 -11.7 -8.45 -11.0 -8.35 -10.3 -8.2 -9.5 -7.55 -9.55 -6.45 -10.9 -6.95 -13.0 L-7.2 -14.0 Q-6.3 -15.0 -5.3 -15.8 -4.9 -15.75 -4.55 -15.45 -4.4 -15.3 -4.15 -15.25 L-3.0 -15.2 -2.85 -15.2 -2.6 -15.4 -2.85 -15.15 -2.7 -15.1 Q-2.7 -13.9 -3.8 -13.85 -4.65 -12.2 -4.0 -10.1 -3.75 -9.3 -2.6 -9.45 L0.95 -10.1 1.1 -10.2 Q1.5 -10.55 1.45 -11.1 1.4 -11.45 1.75 -11.65 L2.3 -11.65 2.2 -11.4 2.15 -11.0 M0.7 -9.0 L0.65 -9.0 0.7 -8.95 0.7 -9.0 M-4.55 -13.8 L-4.45 -13.9 -4.55 -13.9 -4.55 -13.8 Z" fill="none" stroke="#ffffff" stroke-linecap="round" stroke-linejoin="round" stroke-opacity="0.3019608" stroke-width="1.1500000000000001"/>
  </g>
</svg>
