<?xml version="1.0" encoding="UTF-8" standalone="no"?>
<svg xmlns:ffdec="https://www.free-decompiler.com/flash" xmlns:xlink="http://www.w3.org/1999/xlink" ffdec:objectType="shape" height="22.4px" width="33.6px" xmlns="http://www.w3.org/2000/svg">
  <g transform="matrix(1.0, 0.0, 0.0, 1.0, -9.45, 46.2)">
    <path d="M32.75 -36.65 Q33.6 -35.15 35.15 -35.2 35.4 -36.2 34.85 -37.35 35.1 -37.5 35.4 -37.6 35.7 -37.7 36.1 -37.7 L37.25 -37.75 Q37.2 -37.15 37.2 -36.6 36.9 -36.45 36.7 -36.15 36.25 -35.4 36.05 -34.55 35.95 -33.6 36.6 -32.75 37.3 -31.7 38.45 -31.15 38.65 -31.05 38.9 -31.0 37.9 -29.3 36.55 -27.9 37.7 -26.7 39.7 -28.85 40.65 -29.95 41.2 -31.1 41.95 -28.45 38.45 -26.4 34.4 -24.1 31.65 -27.7 L31.1 -27.8 Q30.55 -27.95 30.35 -28.5 31.05 -29.4 32.55 -29.25 33.25 -29.2 33.55 -28.65 34.0 -28.85 34.5 -28.65 L34.55 -28.6 34.95 -28.7 Q35.2 -28.75 35.45 -28.85 35.9 -29.3 36.0 -29.8 35.5 -30.4 35.2 -31.2 35.0 -31.75 34.65 -32.1 34.4 -32.1 34.15 -31.75 L34.05 -31.6 Q33.4 -31.6 32.8 -31.85 32.35 -32.1 32.2 -32.6 32.1 -33.25 32.6 -33.6 L32.7 -33.75 Q31.95 -34.7 30.8 -35.15 30.65 -34.85 30.2 -34.8 L29.4 -34.75 Q29.1 -34.5 29.05 -34.1 29.0 -33.55 28.5 -33.6 27.45 -34.05 27.55 -35.45 27.55 -35.75 27.7 -36.05 L27.2 -36.4 27.85 -36.35 27.95 -36.5 Q28.0 -36.9 27.75 -37.25 27.5 -37.65 27.5 -38.05 29.15 -39.2 31.6 -38.3 L32.05 -38.15 Q32.3 -37.4 32.75 -36.65 M24.85 -38.35 L25.0 -38.35 Q26.6 -37.2 24.4 -35.85 23.55 -35.3 22.65 -35.75 22.65 -37.15 22.25 -38.4 21.9 -39.35 21.55 -40.3 21.1 -41.15 20.35 -41.85 L20.0 -41.95 Q19.65 -41.75 19.3 -41.75 L19.15 -42.05 19.25 -42.05 19.15 -42.1 Q18.05 -43.9 16.0 -42.25 16.15 -41.25 16.25 -40.05 16.35 -38.95 16.95 -38.3 17.45 -37.3 18.05 -36.4 L18.3 -36.15 Q19.25 -35.4 19.15 -34.45 18.95 -34.05 18.6 -33.95 L18.5 -33.9 17.55 -33.95 Q17.05 -34.1 16.55 -33.95 16.45 -32.55 17.55 -31.6 L19.3 -31.55 20.7 -31.3 20.55 -31.15 20.8 -31.05 Q20.35 -30.75 19.85 -30.6 20.55 -30.6 21.1 -31.05 L21.2 -31.05 Q21.3 -30.9 21.3 -30.65 21.3 -30.55 21.25 -30.5 L21.2 -30.5 Q20.15 -30.15 19.25 -30.4 16.15 -29.45 13.2 -31.5 L13.1 -31.6 Q12.75 -31.8 12.4 -32.1 12.1 -32.4 11.85 -33.05 10.4 -36.65 12.0 -39.7 12.4 -39.2 12.7 -38.6 L12.35 -38.5 Q12.6 -36.95 13.2 -35.4 13.85 -33.7 15.15 -32.7 16.2 -34.0 15.35 -36.0 L15.15 -36.45 Q14.3 -40.3 12.75 -43.65 12.65 -43.9 12.65 -44.05 14.05 -44.45 15.4 -44.5 L14.45 -44.0 Q15.05 -42.65 17.75 -43.45 L19.05 -43.85 Q19.1 -43.85 19.15 -43.85 20.75 -43.65 22.25 -42.95 22.4 -42.5 22.15 -42.15 22.55 -41.7 22.8 -41.0 23.55 -39.05 23.35 -37.6 23.6 -37.2 23.85 -36.95 24.35 -37.1 24.3 -37.6 24.2 -38.25 24.85 -38.35 M36.75 -36.65 L36.8 -36.35 Q36.85 -36.5 36.75 -36.65 M36.0 -33.9 L36.0 -33.6 36.05 -33.55 Q36.0 -33.75 36.0 -33.9 M36.3 -29.35 L36.45 -29.35 36.35 -29.45 36.3 -29.35 M17.05 -32.1 Q16.55 -32.7 16.4 -33.2 16.45 -32.9 16.65 -32.6 16.9 -32.2 17.25 -31.75 L17.2 -31.6 17.15 -31.5 17.25 -31.5 17.2 -31.6 17.4 -31.6 17.05 -32.1" fill="#ffffff" fill-rule="evenodd" stroke="none"/>
    <path d="M32.75 -36.65 Q33.6 -35.15 35.15 -35.2 35.4 -36.2 34.85 -37.35 35.1 -37.5 35.4 -37.6 35.7 -37.7 36.1 -37.7 L37.25 -37.75 Q37.2 -37.15 37.2 -36.6 36.9 -36.45 36.7 -36.15 36.25 -35.4 36.05 -34.55 35.95 -33.6 36.6 -32.75 37.3 -31.7 38.45 -31.15 38.65 -31.05 38.9 -31.0 37.9 -29.3 36.55 -27.9 37.7 -26.7 39.7 -28.85 40.65 -29.95 41.2 -31.1 41.95 -28.45 38.45 -26.4 34.4 -24.1 31.65 -27.7 L31.1 -27.8 Q30.55 -27.95 30.35 -28.5 31.05 -29.4 32.55 -29.25 33.25 -29.2 33.55 -28.65 34.0 -28.85 34.5 -28.65 L34.55 -28.6 34.95 -28.7 Q35.2 -28.75 35.45 -28.85 35.9 -29.3 36.0 -29.8 35.5 -30.4 35.2 -31.2 35.0 -31.75 34.65 -32.1 34.4 -32.1 34.15 -31.75 L34.05 -31.6 Q33.4 -31.6 32.8 -31.85 32.35 -32.1 32.2 -32.6 32.1 -33.25 32.6 -33.6 L32.7 -33.75 Q31.95 -34.7 30.8 -35.15 30.65 -34.85 30.2 -34.8 L29.4 -34.75 Q29.1 -34.5 29.05 -34.1 29.0 -33.55 28.5 -33.6 27.45 -34.05 27.55 -35.45 27.55 -35.75 27.7 -36.05 L27.2 -36.4 27.85 -36.35 27.95 -36.5 Q28.0 -36.9 27.75 -37.25 27.5 -37.65 27.5 -38.05 29.15 -39.2 31.6 -38.3 L32.05 -38.15 Q32.3 -37.4 32.75 -36.65 M24.85 -38.35 Q24.2 -38.25 24.3 -37.6 24.35 -37.1 23.85 -36.95 23.6 -37.2 23.35 -37.6 23.55 -39.05 22.8 -41.0 22.55 -41.7 22.15 -42.15 22.4 -42.5 22.25 -42.95 20.75 -43.65 19.15 -43.85 19.1 -43.85 19.05 -43.85 L17.75 -43.45 Q15.05 -42.65 14.45 -44.0 L15.4 -44.5 Q14.05 -44.45 12.65 -44.05 12.65 -43.9 12.75 -43.65 14.3 -40.3 15.15 -36.45 L15.35 -36.0 Q16.2 -34.0 15.15 -32.7 13.85 -33.7 13.2 -35.4 12.6 -36.95 12.35 -38.5 L12.7 -38.6 Q12.4 -39.2 12.0 -39.7 10.4 -36.65 11.85 -33.05 12.1 -32.4 12.4 -32.1 12.75 -31.8 13.1 -31.6 L13.2 -31.5 Q16.15 -29.45 19.25 -30.4 20.15 -30.15 21.2 -30.5 L21.25 -30.5 Q21.3 -30.55 21.3 -30.65 21.3 -30.9 21.2 -31.05 L21.1 -31.05 Q20.55 -30.6 19.85 -30.6 20.35 -30.75 20.8 -31.05 L20.55 -31.15 20.7 -31.3 19.3 -31.55 17.55 -31.6 Q16.45 -32.55 16.55 -33.95 17.05 -34.1 17.55 -33.95 L18.5 -33.9 18.6 -33.95 Q18.95 -34.05 19.15 -34.45 19.25 -35.4 18.3 -36.15 L18.05 -36.4 Q17.45 -37.3 16.95 -38.3 16.35 -38.95 16.25 -40.05 16.15 -41.25 16.0 -42.25 18.05 -43.9 19.15 -42.1 L19.25 -42.05 19.15 -42.05 19.3 -41.75 Q19.65 -41.75 20.0 -41.95 L20.35 -41.85 Q21.1 -41.15 21.55 -40.3 21.9 -39.35 22.25 -38.4 22.65 -37.15 22.65 -35.75 23.55 -35.3 24.4 -35.85 26.6 -37.2 25.0 -38.35 L24.85 -38.35 Z" fill="none" stroke="#ffffff" stroke-linecap="round" stroke-linejoin="round" stroke-opacity="0.3019608" stroke-width="1.1500000000000001"/>
  </g>
</svg>
