<?xml version="1.0" encoding="UTF-8" standalone="no"?>
<svg xmlns:ffdec="https://www.free-decompiler.com/flash" xmlns:xlink="http://www.w3.org/1999/xlink" ffdec:objectType="shape" height="33.1px" width="28.85px" xmlns="http://www.w3.org/2000/svg">
  <g transform="matrix(1.0, 0.0, 0.0, 1.0, -29.15, 52.1)">
    <path d="M44.7 -48.3 L44.85 -48.25 Q48.7 -46.75 51.3 -49.75 L51.35 -49.95 51.7 -50.25 51.75 -50.35 51.8 -50.15 Q52.3 -48.6 52.4 -47.05 53.0 -46.65 53.05 -46.1 L52.55 -46.15 Q51.7 -46.95 51.0 -47.95 50.45 -47.4 50.4 -46.85 L50.0 -46.9 49.75 -46.65 50.4 -46.3 Q50.55 -45.5 51.5 -44.65 53.4 -42.95 55.45 -42.65 L55.55 -42.5 55.75 -42.35 56.3 -41.7 56.15 -41.0 56.0 -40.35 56.0 -40.05 Q55.5 -38.95 54.7 -38.25 54.9 -38.9 55.2 -39.55 55.5 -40.3 54.9 -40.65 53.25 -40.1 52.55 -38.05 L52.25 -37.05 Q50.95 -36.75 49.65 -36.55 49.35 -36.8 49.25 -37.25 49.15 -37.5 49.0 -37.65 L48.05 -38.3 47.95 -38.4 47.6 -38.35 47.9 -38.4 47.85 -38.5 Q48.5 -39.55 49.45 -39.0 51.05 -39.95 51.6 -42.05 51.85 -42.9 50.8 -43.35 L47.45 -44.7 47.25 -44.7 Q46.75 -44.6 46.5 -44.15 46.3 -43.8 45.95 -43.8 45.7 -43.9 45.55 -44.05 L45.5 -44.15 45.95 -44.6 Q45.95 -46.6 44.7 -48.3 M33.8 -35.15 L34.0 -34.95 35.1 -36.15 Q35.6 -36.9 36.25 -37.6 L36.55 -37.9 36.8 -38.25 Q37.25 -38.85 37.9 -39.0 38.65 -39.45 39.45 -39.7 L38.75 -39.0 39.2 -38.85 Q38.4 -38.15 37.3 -37.25 34.9 -34.05 34.0 -30.15 L34.0 -30.1 Q34.4 -29.0 35.65 -28.15 L35.7 -28.1 Q37.15 -27.85 38.6 -28.1 39.25 -28.4 39.55 -29.0 39.7 -29.2 39.75 -29.45 39.9 -29.95 39.85 -30.7 39.75 -31.9 40.6 -31.85 41.55 -30.55 42.55 -29.1 42.85 -28.55 43.5 -28.4 44.15 -28.2 44.05 -27.55 43.5 -26.8 42.5 -26.85 42.0 -26.9 41.5 -27.05 L40.9 -27.0 40.05 -25.95 39.9 -25.8 Q39.5 -25.2 39.1 -24.6 38.75 -23.15 38.5 -21.6 L38.45 -21.35 38.1 -20.95 Q37.9 -20.8 37.7 -20.7 35.65 -20.9 33.75 -22.25 32.15 -23.4 31.05 -25.0 32.55 -25.85 34.25 -24.4 L34.65 -24.1 Q35.0 -22.9 36.85 -22.15 37.1 -22.35 37.25 -22.6 37.55 -23.0 37.75 -23.5 37.85 -24.85 37.1 -25.95 L37.25 -26.3 Q37.0 -26.45 36.75 -26.4 L36.65 -26.55 Q35.85 -27.5 35.3 -26.65 L34.95 -26.1 Q33.45 -26.75 32.45 -28.0 30.65 -30.25 30.9 -32.55 30.9 -34.2 32.0 -35.55 31.85 -33.85 31.4 -32.15 31.4 -31.85 31.55 -31.55 31.7 -31.35 31.7 -31.05 L31.7 -30.95 32.45 -31.75 Q32.8 -32.1 33.05 -32.5 L33.0 -32.55 Q33.3 -33.9 33.7 -35.25 L33.8 -35.15 M39.4 -28.5 L39.15 -28.25 39.35 -28.3 39.4 -28.5 M48.3 -45.5 L48.25 -45.55 48.2 -45.5 48.3 -45.5 M50.1 -38.65 L50.0 -38.6 50.05 -38.55 50.1 -38.65" fill="#ffffff" fill-rule="evenodd" stroke="none"/>
    <path d="M44.7 -48.3 L44.85 -48.25 Q48.7 -46.75 51.3 -49.75 L51.35 -49.95 51.7 -50.25 51.75 -50.35 51.8 -50.15 Q52.3 -48.6 52.4 -47.05 53.0 -46.65 53.05 -46.1 L52.55 -46.15 Q51.7 -46.95 51.0 -47.95 50.45 -47.4 50.4 -46.85 L50.0 -46.9 49.75 -46.65 50.4 -46.3 Q50.55 -45.5 51.5 -44.65 53.4 -42.95 55.45 -42.65 L55.55 -42.5 55.75 -42.35 56.3 -41.7 56.15 -41.0 56.0 -40.35 56.0 -40.05 Q55.5 -38.95 54.7 -38.25 54.9 -38.9 55.2 -39.55 55.5 -40.3 54.9 -40.65 53.25 -40.1 52.55 -38.05 L52.25 -37.05 Q50.95 -36.75 49.65 -36.55 49.35 -36.8 49.25 -37.25 49.15 -37.5 49.0 -37.65 L48.05 -38.3 47.95 -38.4 47.6 -38.35 47.9 -38.4 47.85 -38.5 Q48.5 -39.55 49.45 -39.0 51.05 -39.95 51.6 -42.05 51.85 -42.9 50.8 -43.35 L47.45 -44.7 47.25 -44.7 Q46.75 -44.6 46.5 -44.15 46.3 -43.8 45.95 -43.8 45.7 -43.9 45.55 -44.05 L45.5 -44.15 45.95 -44.6 Q45.95 -46.6 44.7 -48.3 M33.8 -35.15 L34.0 -34.95 35.1 -36.15 Q35.6 -36.9 36.25 -37.6 L36.55 -37.9 36.8 -38.25 Q37.25 -38.85 37.9 -39.0 38.65 -39.45 39.45 -39.7 L38.75 -39.0 39.2 -38.85 Q38.4 -38.15 37.3 -37.25 34.9 -34.05 34.0 -30.15 L34.0 -30.1 Q34.4 -29.0 35.65 -28.15 L35.7 -28.1 Q37.15 -27.85 38.6 -28.1 39.25 -28.4 39.55 -29.0 39.7 -29.2 39.75 -29.45 39.9 -29.95 39.85 -30.7 39.75 -31.9 40.6 -31.85 41.55 -30.55 42.55 -29.1 42.85 -28.55 43.5 -28.4 44.15 -28.2 44.05 -27.55 43.5 -26.8 42.5 -26.85 42.0 -26.9 41.5 -27.05 L40.9 -27.0 40.05 -25.95 39.9 -25.8 Q39.5 -25.2 39.1 -24.6 38.75 -23.15 38.5 -21.6 L38.45 -21.35 38.1 -20.95 Q37.9 -20.8 37.7 -20.7 35.65 -20.9 33.75 -22.25 32.15 -23.4 31.05 -25.0 32.55 -25.85 34.25 -24.4 L34.65 -24.1 Q35.0 -22.9 36.85 -22.15 37.1 -22.35 37.25 -22.6 37.55 -23.0 37.75 -23.5 37.85 -24.85 37.1 -25.95 L37.25 -26.3 Q37.0 -26.45 36.75 -26.4 L36.65 -26.55 Q35.85 -27.5 35.3 -26.65 L34.95 -26.1 Q33.45 -26.75 32.45 -28.0 30.65 -30.25 30.9 -32.55 30.9 -34.2 32.0 -35.55 31.85 -33.85 31.4 -32.15 31.4 -31.85 31.55 -31.55 31.7 -31.35 31.7 -31.05 L31.7 -30.95 32.45 -31.75 Q32.8 -32.1 33.05 -32.5 L33.0 -32.55 Q33.3 -33.9 33.7 -35.25 L33.8 -35.15 M48.3 -45.5 L48.25 -45.55 48.2 -45.5 48.3 -45.5 M50.1 -38.65 L50.0 -38.6 50.05 -38.55 50.1 -38.65 Z" fill="none" stroke="#ffffff" stroke-linecap="round" stroke-linejoin="round" stroke-opacity="0.3019608" stroke-width="1.1500000000000001"/>
  </g>
</svg>
