<?xml version="1.0" encoding="UTF-8" standalone="no"?>
<svg xmlns:ffdec="https://www.free-decompiler.com/flash" xmlns:xlink="http://www.w3.org/1999/xlink" ffdec:objectType="shape" height="18.8px" width="36.05px" xmlns="http://www.w3.org/2000/svg">
  <g transform="matrix(1.0, 0.0, 0.0, 1.0, -26.25, 45.85)">
    <path d="M34.1 -42.95 Q33.5 -42.6 32.85 -42.35 32.1 -42.0 32.3 -41.35 33.9 -40.65 35.8 -41.65 L36.7 -42.15 Q37.9 -41.5 38.95 -40.75 39.0 -40.35 38.8 -39.95 38.65 -39.75 38.7 -39.45 38.8 -38.9 38.95 -38.35 L38.95 -38.2 38.9 -38.05 Q37.7 -37.75 37.4 -38.8 35.6 -39.25 33.75 -38.1 33.0 -37.65 33.5 -36.55 34.2 -34.9 34.95 -33.25 L35.1 -33.15 Q35.55 -32.9 36.05 -33.05 36.4 -33.15 36.65 -32.9 36.75 -32.7 36.75 -32.45 L36.8 -32.35 36.1 -32.35 Q34.75 -30.85 34.45 -28.8 L34.4 -28.9 Q32.65 -32.65 28.65 -32.25 L28.5 -32.1 28.05 -32.2 27.95 -32.15 28.05 -32.35 Q28.75 -33.75 29.75 -35.0 29.55 -35.65 29.9 -36.1 L30.25 -35.75 Q30.35 -34.55 30.15 -33.4 30.9 -33.4 31.35 -33.75 L31.6 -33.4 31.95 -33.45 31.7 -34.15 Q32.15 -34.85 32.05 -36.15 31.8 -38.65 30.55 -40.25 L30.55 -40.45 30.5 -40.7 Q30.5 -41.15 30.6 -41.55 L31.7 -42.35 31.9 -42.5 31.9 -42.55 Q33.05 -43.0 34.1 -42.95 M33.85 -33.25 L33.8 -33.3 33.8 -33.25 33.85 -33.25 M37.2 -39.5 L37.3 -39.45 37.3 -39.55 37.2 -39.5 M44.2 -31.4 L45.15 -31.45 Q45.05 -31.65 45.0 -31.85 L47.45 -31.75 Q51.35 -32.45 54.75 -34.65 L54.8 -34.7 Q55.25 -35.75 54.9 -37.25 L54.9 -37.3 Q54.05 -38.45 52.75 -39.3 52.1 -39.55 51.45 -39.3 L51.05 -39.1 Q50.6 -38.8 50.1 -38.25 49.35 -37.3 48.75 -37.95 48.95 -39.55 49.25 -41.25 49.4 -41.9 49.05 -42.45 48.7 -43.05 49.2 -43.45 50.1 -43.6 50.85 -42.85 51.2 -42.5 51.4 -42.05 L51.9 -41.65 53.2 -41.85 53.4 -41.85 Q54.15 -42.0 54.85 -42.2 56.1 -43.0 57.35 -43.95 L57.55 -44.1 58.05 -44.15 58.55 -44.05 Q59.9 -42.5 60.35 -40.2 60.7 -38.25 60.45 -36.35 58.75 -36.75 58.5 -39.0 L58.4 -39.5 Q59.0 -40.6 58.15 -42.45 L57.55 -42.4 Q57.05 -42.25 56.6 -42.05 55.6 -41.15 55.35 -39.8 L55.0 -39.65 Q55.1 -39.4 55.3 -39.25 L55.3 -39.1 Q55.25 -37.85 56.2 -38.05 56.55 -38.15 56.85 -38.25 57.45 -36.75 57.35 -35.15 57.1 -32.25 55.35 -30.75 54.25 -29.55 52.45 -29.35 53.75 -30.5 55.25 -31.35 55.45 -31.65 55.55 -31.9 55.6 -32.2 55.8 -32.4 L55.85 -32.5 54.8 -32.45 Q54.3 -32.4 53.8 -32.25 52.7 -31.4 51.5 -30.7 L51.45 -30.85 Q51.45 -31.0 51.45 -31.15 L49.8 -31.0 Q48.95 -30.85 48.0 -30.75 L47.55 -30.75 47.15 -30.65 Q46.4 -30.55 45.8 -30.9 44.95 -31.05 44.2 -31.4 M52.15 -39.65 Q52.05 -39.6 51.95 -39.55 L52.3 -39.55 52.15 -39.65" fill="#ffffff" fill-rule="evenodd" stroke="none"/>
    <path d="M34.1 -42.95 Q33.5 -42.6 32.85 -42.35 32.1 -42.0 32.3 -41.35 33.9 -40.65 35.8 -41.65 L36.7 -42.15 Q37.9 -41.5 38.95 -40.75 39.0 -40.35 38.8 -39.95 38.65 -39.75 38.7 -39.45 38.8 -38.9 38.95 -38.35 L38.95 -38.2 38.9 -38.05 Q37.7 -37.75 37.4 -38.8 35.6 -39.25 33.75 -38.1 33.0 -37.65 33.5 -36.55 34.2 -34.9 34.95 -33.25 L35.1 -33.15 Q35.55 -32.9 36.05 -33.05 36.4 -33.15 36.65 -32.9 36.75 -32.7 36.75 -32.45 L36.8 -32.35 36.1 -32.35 Q34.75 -30.85 34.45 -28.8 L34.4 -28.9 Q32.65 -32.65 28.65 -32.25 L28.5 -32.1 28.05 -32.2 27.95 -32.15 28.05 -32.35 Q28.75 -33.75 29.75 -35.0 29.55 -35.65 29.9 -36.1 L30.25 -35.75 Q30.35 -34.55 30.15 -33.4 30.9 -33.4 31.35 -33.75 L31.6 -33.4 31.95 -33.45 31.7 -34.15 Q32.15 -34.85 32.05 -36.15 31.8 -38.65 30.55 -40.25 L30.55 -40.45 30.5 -40.7 Q30.5 -41.15 30.6 -41.55 L31.7 -42.35 31.9 -42.5 31.9 -42.55 Q33.05 -43.0 34.1 -42.95 M33.85 -33.25 L33.8 -33.3 33.8 -33.25 33.85 -33.25 M37.2 -39.5 L37.3 -39.45 37.3 -39.55 37.2 -39.5 M44.2 -31.4 L45.15 -31.45 Q45.05 -31.65 45.0 -31.85 L47.45 -31.75 Q51.35 -32.45 54.75 -34.65 L54.8 -34.7 Q55.25 -35.75 54.9 -37.25 L54.9 -37.3 Q54.05 -38.45 52.75 -39.3 52.1 -39.55 51.45 -39.3 L51.05 -39.1 Q50.6 -38.8 50.1 -38.25 49.35 -37.3 48.75 -37.95 48.95 -39.55 49.25 -41.25 49.4 -41.9 49.05 -42.45 48.7 -43.05 49.2 -43.45 50.1 -43.6 50.85 -42.85 51.2 -42.5 51.4 -42.05 L51.9 -41.65 53.2 -41.85 53.4 -41.85 Q54.15 -42.0 54.85 -42.2 56.1 -43.0 57.35 -43.95 L57.55 -44.1 58.05 -44.15 58.55 -44.05 Q59.9 -42.5 60.35 -40.2 60.7 -38.25 60.45 -36.35 58.75 -36.75 58.5 -39.0 L58.4 -39.5 Q59.0 -40.6 58.15 -42.45 L57.55 -42.4 Q57.05 -42.25 56.6 -42.05 55.6 -41.15 55.35 -39.8 L55.0 -39.65 Q55.1 -39.4 55.3 -39.25 L55.3 -39.1 Q55.25 -37.85 56.2 -38.05 56.55 -38.15 56.85 -38.25 57.45 -36.75 57.35 -35.15 57.1 -32.25 55.35 -30.75 54.25 -29.55 52.45 -29.35 53.75 -30.5 55.25 -31.35 55.45 -31.65 55.55 -31.9 55.6 -32.2 55.8 -32.4 L55.85 -32.5 54.8 -32.45 Q54.3 -32.4 53.8 -32.25 52.7 -31.4 51.5 -30.7 L51.45 -30.85 Q51.45 -31.0 51.45 -31.15 L49.8 -31.0 Q48.95 -30.85 48.0 -30.75 L47.55 -30.75 47.15 -30.65 Q46.4 -30.55 45.8 -30.9 44.95 -31.05 44.2 -31.4 Z" fill="none" stroke="#ffffff" stroke-linecap="round" stroke-linejoin="round" stroke-opacity="0.3019608" stroke-width="1.1500000000000001"/>
  </g>
</svg>
