<?xml version="1.0" encoding="UTF-8" standalone="no"?>
<svg xmlns:ffdec="https://www.free-decompiler.com/flash" xmlns:xlink="http://www.w3.org/1999/xlink" ffdec:objectType="shape" height="33.55px" width="26.05px" xmlns="http://www.w3.org/2000/svg">
  <g transform="matrix(1.0, 0.0, 0.0, 1.0, -33.7, 52.9)">
    <path d="M38.35 -43.25 Q39.0 -43.95 39.1 -45.0 39.2 -46.25 38.7 -47.4 L38.45 -47.8 Q40.25 -48.5 42.25 -48.7 42.1 -50.35 39.2 -49.95 37.75 -49.75 36.6 -49.25 37.7 -51.75 41.7 -51.05 46.3 -50.25 46.05 -45.75 46.25 -45.55 46.45 -45.3 46.8 -44.85 46.6 -44.3 45.5 -44.05 44.4 -45.1 43.9 -45.55 44.05 -46.2 43.55 -46.35 43.3 -46.85 L43.25 -46.9 Q43.1 -46.95 42.9 -47.05 42.7 -47.2 42.4 -47.25 41.8 -47.2 41.4 -46.9 41.4 -46.1 41.1 -45.3 40.9 -44.75 41.0 -44.25 L41.55 -44.25 Q41.65 -44.25 41.8 -44.25 42.25 -43.85 42.55 -43.25 42.75 -42.85 42.55 -42.3 42.2 -41.75 41.55 -41.8 41.5 -41.8 41.4 -41.75 41.4 -40.55 42.0 -39.45 42.3 -39.65 42.65 -39.35 42.95 -39.1 43.35 -38.9 43.7 -38.85 44.0 -39.15 44.4 -39.55 44.7 -39.2 45.25 -38.2 44.3 -37.15 44.05 -36.95 43.8 -36.8 43.9 -36.5 43.95 -36.2 L43.45 -36.65 43.3 -36.6 Q43.05 -36.35 42.95 -35.9 42.9 -35.45 42.7 -35.15 40.65 -35.35 39.35 -37.55 L39.1 -38.0 Q39.4 -38.75 39.5 -39.6 39.8 -41.25 38.65 -42.2 37.8 -41.65 37.45 -40.4 37.15 -40.45 36.9 -40.55 36.6 -40.65 36.25 -40.9 L35.4 -41.6 36.15 -42.45 Q36.45 -42.35 36.8 -42.45 37.65 -42.75 38.35 -43.25 M39.0 -44.0 L38.95 -44.05 38.75 -43.75 38.8 -43.75 39.0 -44.0 M41.35 -47.35 L41.45 -47.4 41.35 -47.5 41.35 -47.35 M36.6 -42.4 Q36.45 -42.3 36.45 -42.1 L36.6 -42.4 M54.75 -33.6 L54.7 -33.65 54.65 -33.55 54.5 -33.65 54.5 -33.05 Q54.45 -32.25 54.25 -31.75 54.4 -32.05 54.45 -32.4 L54.55 -33.45 54.65 -33.55 54.75 -33.6 M44.4 -29.9 Q45.0 -31.85 46.15 -32.9 46.2 -33.3 46.15 -33.7 45.7 -33.85 45.4 -33.45 45.05 -32.9 44.45 -33.2 L44.35 -33.3 Q43.9 -35.2 46.45 -34.85 47.45 -34.7 47.85 -33.85 46.95 -32.75 46.4 -31.55 46.15 -30.6 45.8 -29.65 45.6 -28.7 45.7 -27.7 L45.95 -27.4 Q46.3 -27.3 46.55 -27.1 L46.5 -26.75 46.5 -26.75 Q46.15 -24.65 48.8 -24.6 49.3 -25.45 50.0 -26.4 50.6 -27.35 50.6 -28.25 50.85 -29.3 50.95 -30.35 L50.9 -30.75 Q50.65 -31.9 51.35 -32.6 51.8 -32.75 52.1 -32.6 L52.2 -32.6 Q52.65 -32.4 52.9 -31.95 53.15 -31.5 53.65 -31.3 54.6 -32.35 54.4 -33.75 53.75 -34.25 53.1 -34.9 52.6 -35.4 52.2 -36.0 L52.4 -36.0 52.25 -36.25 53.25 -36.0 Q52.75 -36.45 52.0 -36.4 L51.95 -36.45 Q51.95 -36.65 52.1 -36.85 52.15 -36.95 52.25 -36.95 L52.3 -36.95 Q53.35 -36.55 53.85 -35.8 56.85 -34.5 57.8 -31.05 L57.8 -30.95 58.0 -30.1 Q58.05 -29.65 57.85 -29.0 56.65 -25.3 53.45 -24.0 53.5 -24.65 53.65 -25.3 53.8 -25.2 53.95 -25.2 54.75 -26.5 55.3 -28.1 55.9 -29.8 55.55 -31.35 53.9 -31.05 53.3 -28.95 L53.15 -28.5 Q51.35 -25.0 50.4 -21.45 50.35 -21.2 50.2 -21.1 48.9 -21.7 47.8 -22.55 L48.85 -22.25 Q49.2 -23.7 46.7 -24.8 L45.4 -25.35 45.35 -25.4 Q44.25 -26.6 43.55 -28.05 43.75 -28.45 44.2 -28.6 44.15 -29.2 44.4 -29.9" fill="#ffffff" fill-rule="evenodd" stroke="none"/>
    <path d="M38.35 -43.25 Q39.0 -43.95 39.1 -45.0 39.2 -46.25 38.7 -47.4 L38.45 -47.8 Q40.25 -48.5 42.25 -48.7 42.1 -50.35 39.2 -49.95 37.75 -49.75 36.6 -49.25 37.7 -51.75 41.7 -51.05 46.3 -50.25 46.05 -45.75 46.25 -45.55 46.45 -45.3 46.8 -44.85 46.6 -44.3 45.5 -44.05 44.4 -45.1 43.9 -45.55 44.05 -46.2 43.55 -46.35 43.3 -46.85 L43.25 -46.9 Q43.1 -46.95 42.9 -47.05 42.7 -47.2 42.4 -47.25 41.8 -47.2 41.4 -46.9 41.4 -46.1 41.1 -45.3 40.9 -44.75 41.0 -44.25 L41.55 -44.25 Q41.65 -44.25 41.8 -44.25 42.25 -43.85 42.55 -43.25 42.75 -42.85 42.55 -42.3 42.2 -41.75 41.55 -41.8 41.5 -41.8 41.4 -41.75 41.4 -40.55 42.0 -39.45 42.3 -39.65 42.65 -39.35 42.95 -39.1 43.35 -38.9 43.7 -38.85 44.0 -39.15 44.4 -39.55 44.7 -39.2 45.25 -38.2 44.3 -37.15 44.05 -36.95 43.8 -36.8 43.9 -36.5 43.95 -36.2 L43.45 -36.65 43.3 -36.6 Q43.05 -36.35 42.95 -35.9 42.9 -35.45 42.7 -35.15 40.65 -35.35 39.35 -37.55 L39.1 -38.0 Q39.4 -38.75 39.5 -39.6 39.8 -41.25 38.65 -42.2 37.8 -41.65 37.45 -40.4 37.15 -40.45 36.9 -40.55 36.6 -40.65 36.25 -40.9 L35.4 -41.6 36.15 -42.45 Q36.45 -42.35 36.8 -42.45 37.65 -42.75 38.35 -43.25 M39.0 -44.0 L38.95 -44.05 38.75 -43.75 38.8 -43.75 39.0 -44.0 M41.35 -47.35 L41.45 -47.4 41.35 -47.5 41.35 -47.35 M36.6 -42.4 Q36.45 -42.3 36.45 -42.1 L36.6 -42.4 M44.4 -29.9 Q44.15 -29.2 44.2 -28.6 43.75 -28.45 43.55 -28.05 44.25 -26.6 45.35 -25.4 L45.4 -25.35 46.7 -24.8 Q49.2 -23.7 48.85 -22.25 L47.8 -22.55 Q48.9 -21.7 50.2 -21.1 50.35 -21.2 50.4 -21.45 51.35 -25.0 53.15 -28.5 L53.3 -28.95 Q53.9 -31.05 55.55 -31.35 55.9 -29.8 55.3 -28.1 54.75 -26.5 53.95 -25.2 53.8 -25.2 53.65 -25.3 53.5 -24.65 53.45 -24.0 56.65 -25.3 57.85 -29.0 58.05 -29.65 58.0 -30.1 L57.8 -30.95 57.8 -31.05 Q56.85 -34.5 53.85 -35.8 53.35 -36.55 52.3 -36.95 L52.25 -36.95 Q52.15 -36.95 52.1 -36.85 51.95 -36.65 51.95 -36.45 L52.0 -36.4 Q52.75 -36.45 53.25 -36.0 L52.25 -36.25 52.4 -36.0 52.2 -36.0 Q52.6 -35.4 53.1 -34.9 53.75 -34.25 54.4 -33.75 54.6 -32.35 53.65 -31.3 53.15 -31.5 52.9 -31.95 52.65 -32.4 52.2 -32.6 L52.1 -32.6 Q51.8 -32.75 51.35 -32.6 50.65 -31.9 50.9 -30.75 L50.95 -30.35 Q50.85 -29.3 50.6 -28.25 50.6 -27.35 50.0 -26.4 49.3 -25.45 48.8 -24.6 46.15 -24.65 46.5 -26.75 L46.5 -26.75 46.55 -27.1 Q46.3 -27.3 45.95 -27.4 L45.7 -27.7 Q45.6 -28.7 45.8 -29.65 46.15 -30.6 46.4 -31.55 46.95 -32.75 47.85 -33.85 47.45 -34.7 46.45 -34.85 43.9 -35.2 44.35 -33.3 L44.45 -33.2 Q45.05 -32.9 45.4 -33.45 45.7 -33.85 46.15 -33.7 46.2 -33.3 46.15 -32.9 45.0 -31.85 44.4 -29.9 M54.75 -33.6 L54.65 -33.55 54.55 -33.45 54.45 -32.4 Q54.4 -32.05 54.25 -31.75 54.45 -32.25 54.5 -33.05 L54.5 -33.65 54.65 -33.55 54.7 -33.65 54.75 -33.6 Z" fill="none" stroke="#ffffff" stroke-linecap="round" stroke-linejoin="round" stroke-opacity="0.3019608" stroke-width="1.1500000000000001"/>
  </g>
</svg>
