<?xml version="1.0" encoding="UTF-8" standalone="no"?>
<svg xmlns:ffdec="https://www.free-decompiler.com/flash" xmlns:xlink="http://www.w3.org/1999/xlink" ffdec:objectType="shape" height="36.45px" width="53.15px" xmlns="http://www.w3.org/2000/svg">
  <g transform="matrix(1.0, 0.0, 0.0, 1.0, -24.8, 55.3)">
    <path d="M41.25 -51.9 Q41.65 -52.6 42.3 -52.2 41.0 -49.65 38.4 -48.9 37.1 -48.5 36.15 -49.05 L36.1 -49.05 Q34.8 -49.25 34.15 -50.3 L33.7 -50.3 Q33.4 -50.35 33.2 -50.5 31.8 -50.35 31.0 -51.45 L30.65 -51.9 Q30.5 -50.95 29.9 -49.8 29.7 -49.4 29.55 -48.95 L29.4 -49.0 27.9 -49.35 Q28.1 -50.65 28.55 -51.9 29.0 -53.2 30.2 -53.55 31.5 -53.2 32.5 -52.0 32.6 -51.85 32.75 -51.75 L32.95 -51.8 Q33.35 -51.85 33.65 -51.95 L34.0 -52.3 Q34.4 -52.65 34.9 -52.65 36.0 -52.4 36.3 -51.25 36.55 -50.45 36.85 -49.7 L37.6 -49.6 Q37.9 -49.7 38.25 -49.85 39.8 -50.55 41.1 -51.6 L41.25 -51.9 M35.55 -43.45 L34.65 -43.6 Q34.3 -44.05 34.45 -44.65 34.6 -45.45 35.3 -45.55 L35.3 -45.6 35.5 -45.6 35.8 -45.5 36.0 -45.35 Q36.15 -45.15 36.15 -44.9 36.15 -44.5 36.3 -44.1 36.4 -44.0 36.4 -43.85 36.1 -43.35 35.55 -43.45 M27.6 -47.55 L27.65 -47.55 Q28.4 -47.35 29.1 -47.3 L29.1 -47.15 29.2 -47.1 Q28.7 -46.7 28.3 -46.2 L28.1 -46.0 Q27.95 -46.1 27.8 -46.2 L27.85 -46.4 27.35 -46.45 27.6 -47.55 M29.25 -45.4 Q30.1 -46.15 30.7 -46.85 31.8 -46.4 32.5 -45.15 32.55 -45.1 32.5 -45.05 L31.15 -44.95 31.1 -44.9 30.75 -45.0 Q30.0 -45.1 29.25 -45.4 M33.15 -40.05 Q33.45 -41.75 34.55 -42.85 34.8 -42.55 34.95 -42.2 34.45 -41.65 34.25 -40.8 33.9 -39.25 34.8 -38.05 35.25 -37.85 35.8 -37.95 L36.2 -38.0 Q36.8 -38.85 37.0 -40.0 37.85 -40.75 38.8 -41.4 39.45 -41.85 40.4 -41.8 L41.55 -40.05 Q41.85 -39.6 42.3 -39.2 42.45 -38.9 42.45 -38.55 L42.7 -37.9 Q42.9 -37.3 43.6 -37.3 44.0 -38.45 44.4 -39.7 L44.55 -41.7 Q44.75 -45.25 47.8 -46.6 48.0 -46.3 48.0 -45.85 L48.2 -46.0 48.15 -45.95 Q49.35 -46.95 50.75 -47.2 51.6 -46.85 50.6 -45.75 49.95 -45.1 49.7 -44.3 50.9 -43.85 52.0 -45.1 52.3 -45.4 52.55 -45.8 55.55 -45.4 55.75 -42.2 54.45 -40.55 54.35 -38.05 54.25 -35.2 55.0 -32.85 54.4 -30.0 52.65 -28.85 L52.7 -29.15 Q51.75 -28.5 50.5 -29.05 50.5 -29.55 49.95 -29.9 49.05 -29.6 48.55 -28.75 48.1 -27.95 48.55 -27.25 49.2 -27.0 49.7 -27.45 50.7 -26.55 51.0 -25.3 51.5 -24.45 51.3 -23.2 51.15 -22.4 50.75 -22.05 50.55 -21.7 50.3 -21.45 L50.3 -21.2 Q50.35 -20.9 50.25 -20.6 49.65 -20.5 49.35 -20.95 L48.75 -20.9 Q48.75 -21.55 49.05 -22.2 49.05 -22.4 49.05 -22.55 L49.3 -22.8 49.35 -22.9 Q49.8 -23.65 49.7 -24.4 49.6 -24.7 49.6 -24.95 49.25 -25.45 48.65 -25.75 L48.35 -25.95 47.9 -26.1 Q47.1 -26.0 46.5 -26.45 46.25 -27.9 47.15 -29.35 L48.75 -31.95 Q48.9 -32.2 49.15 -32.25 49.95 -31.5 50.75 -30.6 L51.15 -30.15 Q52.35 -29.8 53.15 -31.05 53.7 -33.55 53.85 -36.1 53.95 -37.05 54.1 -37.95 53.4 -38.75 53.3 -40.2 53.2 -42.05 55.1 -42.9 55.1 -43.5 54.7 -43.8 L53.9 -44.4 Q52.3 -42.6 50.0 -41.55 49.35 -41.25 48.75 -41.7 48.4 -41.95 48.45 -42.3 48.45 -42.65 48.4 -42.9 46.5 -44.05 47.6 -45.4 46.1 -44.45 45.7 -42.55 45.35 -40.5 46.1 -39.45 L46.0 -39.2 45.95 -39.05 Q45.0 -37.85 44.2 -36.35 43.8 -35.55 43.5 -34.75 43.25 -35.35 42.9 -35.9 41.45 -38.3 39.25 -39.9 L39.2 -39.9 39.2 -39.95 39.1 -39.85 38.55 -39.7 Q38.25 -39.6 38.3 -39.3 L38.3 -39.2 Q37.05 -38.15 35.7 -36.85 34.65 -35.8 33.4 -36.6 32.8 -38.3 33.15 -40.05 M26.5 -29.85 L26.65 -30.0 Q27.75 -29.85 29.3 -30.95 30.35 -31.75 31.1 -32.65 30.85 -31.95 30.3 -31.3 L30.2 -31.45 Q30.0 -31.35 29.85 -31.25 29.7 -31.2 29.6 -31.0 L29.5 -30.85 Q29.3 -29.55 29.55 -28.3 30.1 -25.7 31.65 -25.4 31.7 -25.05 31.75 -24.7 31.95 -25.05 32.3 -25.4 L32.7 -25.5 32.6 -25.75 Q32.85 -26.0 33.15 -26.2 34.0 -26.8 34.9 -27.05 36.15 -25.85 36.4 -24.05 36.55 -22.7 36.1 -21.5 35.85 -21.55 35.65 -21.65 35.5 -21.25 35.15 -21.0 34.8 -21.85 34.8 -22.9 34.8 -23.2 34.8 -23.55 34.75 -24.3 34.3 -24.95 30.8 -19.35 28.8 -25.5 L28.5 -26.45 Q28.0 -27.1 27.55 -27.8 26.85 -28.8 26.5 -29.85 M72.75 -43.85 Q72.75 -42.6 71.75 -41.75 71.1 -41.2 70.6 -40.55 72.3 -41.05 73.6 -42.3 73.95 -42.6 74.3 -42.85 74.0 -44.1 74.55 -45.4 75.05 -46.55 75.85 -46.25 76.1 -45.45 76.15 -44.7 76.1 -44.0 76.2 -43.35 76.15 -42.55 75.9 -41.8 74.5 -41.75 73.0 -40.9 71.1 -39.8 70.3 -38.5 69.9 -38.65 69.5 -38.85 68.7 -39.3 68.0 -40.25 68.15 -40.9 68.6 -41.3 L68.8 -41.55 69.15 -41.25 Q69.6 -41.75 69.95 -42.35 70.55 -43.4 69.65 -44.35 68.9 -45.05 67.8 -45.2 67.15 -45.25 66.75 -44.7 66.7 -44.5 66.75 -44.35 L67.0 -43.85 Q65.6 -42.5 63.35 -43.25 61.6 -43.85 60.75 -45.15 59.55 -45.9 59.4 -47.3 L59.95 -47.05 59.95 -47.3 60.15 -47.0 Q61.65 -46.45 63.45 -45.7 L64.2 -45.35 64.75 -45.3 Q65.3 -45.2 65.95 -45.3 66.3 -45.8 66.25 -46.35 66.2 -47.1 66.85 -47.55 69.8 -46.75 72.25 -44.4 L72.75 -43.85 M70.65 -43.1 L70.25 -43.55 70.45 -42.65 70.65 -43.1 M48.85 -53.0 Q50.4 -52.4 51.55 -51.1 52.4 -50.1 51.55 -49.15 50.95 -50.35 49.7 -51.1 48.05 -52.05 48.85 -53.0 M61.35 -28.8 Q61.45 -29.1 61.65 -29.3 63.7 -29.75 65.7 -30.45 65.95 -30.25 66.3 -30.25 L66.7 -30.3 Q66.95 -30.6 67.1 -30.95 L67.6 -31.1 67.8 -31.2 67.9 -31.35 Q67.65 -31.6 67.6 -31.95 L67.3 -32.25 Q67.2 -33.8 65.7 -34.1 65.1 -34.15 64.75 -33.7 64.7 -34.0 64.85 -34.3 65.2 -35.3 66.1 -35.5 67.1 -35.3 67.7 -34.7 L67.85 -34.25 Q68.8 -31.7 70.25 -32.75 70.35 -29.85 67.15 -29.0 66.8 -29.4 66.2 -29.35 65.55 -29.3 64.9 -29.45 L64.9 -29.4 Q63.55 -29.0 63.45 -27.55 L63.25 -27.5 63.45 -27.1 Q63.5 -26.55 63.75 -26.3 L63.85 -25.8 Q64.0 -25.3 64.05 -24.8 64.25 -24.45 64.6 -24.35 65.0 -24.15 65.1 -23.8 64.45 -23.15 64.0 -23.65 L63.85 -23.5 Q61.75 -23.45 61.35 -25.7 61.05 -27.25 61.35 -28.8" fill="#ffffff" fill-rule="evenodd" stroke="none"/>
    <path d="M41.25 -51.9 Q41.65 -52.6 42.3 -52.2 41.0 -49.65 38.4 -48.9 37.1 -48.5 36.15 -49.05 L36.1 -49.05 Q34.8 -49.25 34.15 -50.3 L33.7 -50.3 Q33.4 -50.35 33.2 -50.5 31.8 -50.35 31.0 -51.45 L30.65 -51.9 Q30.5 -50.95 29.9 -49.8 29.7 -49.4 29.55 -48.95 L29.4 -49.0 27.9 -49.35 Q28.1 -50.65 28.55 -51.9 29.0 -53.2 30.2 -53.55 31.5 -53.2 32.5 -52.0 32.6 -51.85 32.75 -51.75 L32.95 -51.8 Q33.35 -51.85 33.65 -51.95 L34.0 -52.3 Q34.4 -52.65 34.9 -52.65 36.0 -52.4 36.3 -51.25 36.55 -50.45 36.85 -49.7 L37.6 -49.6 Q37.9 -49.7 38.25 -49.85 39.8 -50.55 41.1 -51.6 L41.25 -51.9 M35.55 -43.45 L34.65 -43.6 Q34.3 -44.05 34.45 -44.65 34.6 -45.45 35.3 -45.55 L35.3 -45.6 35.5 -45.6 35.8 -45.5 36.0 -45.35 Q36.15 -45.15 36.15 -44.9 36.15 -44.5 36.3 -44.1 36.4 -44.0 36.4 -43.85 36.1 -43.35 35.55 -43.45 M27.6 -47.55 L27.65 -47.55 Q28.4 -47.35 29.1 -47.3 L29.1 -47.15 29.2 -47.1 Q28.7 -46.7 28.3 -46.2 L28.1 -46.0 Q27.95 -46.1 27.8 -46.2 L27.85 -46.4 27.35 -46.45 27.6 -47.55 M29.25 -45.4 Q30.1 -46.15 30.7 -46.85 31.8 -46.4 32.5 -45.15 32.55 -45.1 32.5 -45.05 L31.15 -44.95 31.1 -44.9 30.75 -45.0 Q30.0 -45.1 29.25 -45.4 M33.15 -40.05 Q33.45 -41.75 34.55 -42.85 34.8 -42.55 34.95 -42.2 34.45 -41.65 34.25 -40.8 33.9 -39.25 34.8 -38.05 35.25 -37.85 35.8 -37.95 L36.2 -38.0 Q36.8 -38.85 37.0 -40.0 37.85 -40.75 38.8 -41.4 39.45 -41.85 40.4 -41.8 L41.55 -40.05 Q41.85 -39.6 42.3 -39.2 42.45 -38.9 42.45 -38.55 L42.7 -37.9 Q42.9 -37.3 43.6 -37.3 44.0 -38.45 44.4 -39.7 L44.55 -41.7 Q44.75 -45.25 47.8 -46.6 48.0 -46.3 48.0 -45.85 L48.2 -46.0 48.15 -45.95 Q49.35 -46.95 50.75 -47.2 51.6 -46.85 50.6 -45.75 49.95 -45.1 49.7 -44.3 50.9 -43.85 52.0 -45.1 52.3 -45.4 52.55 -45.8 55.55 -45.4 55.75 -42.2 54.45 -40.55 54.35 -38.05 54.25 -35.2 55.0 -32.85 54.4 -30.0 52.65 -28.85 L52.7 -29.15 Q51.75 -28.5 50.5 -29.05 50.5 -29.55 49.95 -29.9 49.05 -29.6 48.55 -28.75 48.1 -27.95 48.55 -27.25 49.2 -27.0 49.7 -27.45 50.7 -26.55 51.0 -25.3 51.5 -24.45 51.3 -23.2 51.15 -22.4 50.75 -22.05 50.55 -21.7 50.3 -21.45 L50.3 -21.2 Q50.35 -20.9 50.25 -20.6 49.65 -20.5 49.35 -20.95 L48.75 -20.9 Q48.75 -21.55 49.05 -22.2 49.05 -22.4 49.05 -22.55 L49.3 -22.8 49.35 -22.9 Q49.8 -23.65 49.7 -24.4 49.6 -24.7 49.6 -24.95 49.25 -25.45 48.65 -25.75 L48.35 -25.95 47.9 -26.1 Q47.1 -26.0 46.5 -26.45 46.25 -27.9 47.15 -29.35 L48.75 -31.95 Q48.9 -32.2 49.15 -32.25 49.95 -31.5 50.75 -30.6 L51.15 -30.15 Q52.35 -29.8 53.15 -31.05 53.7 -33.55 53.85 -36.1 53.95 -37.05 54.1 -37.95 53.4 -38.75 53.3 -40.2 53.2 -42.05 55.1 -42.9 55.1 -43.5 54.7 -43.8 L53.9 -44.4 Q52.3 -42.6 50.0 -41.55 49.35 -41.25 48.75 -41.7 48.4 -41.95 48.45 -42.3 48.45 -42.65 48.4 -42.9 46.5 -44.05 47.6 -45.4 46.1 -44.45 45.7 -42.55 45.35 -40.5 46.1 -39.45 L46.0 -39.2 45.95 -39.05 Q45.0 -37.85 44.2 -36.35 43.8 -35.55 43.5 -34.75 43.25 -35.35 42.9 -35.9 41.45 -38.3 39.25 -39.9 L39.2 -39.9 39.2 -39.95 39.1 -39.85 38.55 -39.7 Q38.25 -39.6 38.3 -39.3 L38.3 -39.2 Q37.05 -38.15 35.7 -36.85 34.65 -35.8 33.4 -36.6 32.8 -38.3 33.15 -40.05 M26.5 -29.85 Q26.85 -28.8 27.55 -27.8 28.0 -27.1 28.5 -26.45 L28.8 -25.5 Q30.8 -19.35 34.3 -24.95 34.75 -24.3 34.8 -23.55 34.8 -23.2 34.8 -22.9 34.8 -21.85 35.15 -21.0 35.5 -21.25 35.65 -21.65 35.85 -21.55 36.1 -21.5 36.55 -22.7 36.4 -24.05 36.15 -25.85 34.9 -27.05 34.0 -26.8 33.15 -26.2 32.85 -26.0 32.6 -25.75 L32.7 -25.5 32.3 -25.4 Q31.95 -25.05 31.75 -24.7 31.7 -25.05 31.65 -25.4 30.1 -25.7 29.55 -28.3 29.3 -29.55 29.5 -30.85 L29.6 -31.0 Q29.7 -31.2 29.85 -31.25 30.0 -31.35 30.2 -31.45 L30.3 -31.3 Q30.85 -31.95 31.1 -32.65 30.35 -31.75 29.3 -30.95 27.75 -29.85 26.65 -30.0 L26.5 -29.85 M72.75 -43.85 Q72.75 -42.6 71.75 -41.75 71.1 -41.2 70.6 -40.55 72.3 -41.05 73.6 -42.3 73.95 -42.6 74.3 -42.85 74.0 -44.1 74.55 -45.4 75.05 -46.55 75.85 -46.25 76.1 -45.45 76.15 -44.7 76.1 -44.0 76.2 -43.35 76.15 -42.55 75.9 -41.8 74.5 -41.75 73.0 -40.9 71.1 -39.8 70.3 -38.5 69.9 -38.65 69.5 -38.85 68.7 -39.3 68.0 -40.25 68.15 -40.9 68.6 -41.3 L68.8 -41.55 69.15 -41.25 Q69.6 -41.75 69.95 -42.35 70.55 -43.4 69.65 -44.35 68.9 -45.05 67.8 -45.2 67.15 -45.25 66.75 -44.7 66.7 -44.5 66.75 -44.35 L67.0 -43.85 Q65.6 -42.5 63.35 -43.25 61.6 -43.85 60.75 -45.15 59.55 -45.9 59.4 -47.3 L59.95 -47.05 59.95 -47.3 60.15 -47.0 Q61.65 -46.45 63.45 -45.7 L64.2 -45.35 64.75 -45.3 Q65.3 -45.2 65.95 -45.3 66.3 -45.8 66.25 -46.35 66.2 -47.1 66.85 -47.55 69.8 -46.75 72.25 -44.4 L72.75 -43.85 M48.85 -53.0 Q50.4 -52.4 51.55 -51.1 52.4 -50.1 51.55 -49.15 50.95 -50.35 49.7 -51.1 48.05 -52.05 48.85 -53.0 M61.35 -28.8 Q61.05 -27.25 61.35 -25.7 61.75 -23.45 63.85 -23.5 L64.0 -23.65 Q64.45 -23.15 65.1 -23.8 65.0 -24.15 64.6 -24.35 64.25 -24.45 64.05 -24.8 64.0 -25.3 63.85 -25.8 L63.75 -26.3 Q63.5 -26.55 63.45 -27.1 L63.25 -27.5 63.45 -27.55 Q63.55 -29.0 64.9 -29.4 L64.9 -29.45 Q65.55 -29.3 66.2 -29.35 66.8 -29.4 67.15 -29.0 70.35 -29.85 70.25 -32.75 68.8 -31.7 67.85 -34.25 L67.7 -34.7 Q67.1 -35.3 66.1 -35.5 65.2 -35.3 64.85 -34.3 64.7 -34.0 64.75 -33.7 65.1 -34.15 65.7 -34.1 67.2 -33.8 67.3 -32.25 L67.6 -31.95 Q67.65 -31.6 67.9 -31.35 L67.8 -31.2 67.6 -31.1 67.1 -30.95 Q66.95 -30.6 66.7 -30.3 L66.3 -30.25 Q65.95 -30.25 65.7 -30.45 63.7 -29.75 61.65 -29.3 61.45 -29.1 61.35 -28.8 Z" fill="none" stroke="#ffffff" stroke-linecap="round" stroke-linejoin="round" stroke-opacity="0.3019608" stroke-width="1.1500000000000001"/>
  </g>
</svg>
