<?xml version="1.0" encoding="UTF-8" standalone="no"?>
<svg xmlns:ffdec="https://www.free-decompiler.com/flash" xmlns:xlink="http://www.w3.org/1999/xlink" ffdec:objectType="shape" height="31.9px" width="29.05px" xmlns="http://www.w3.org/2000/svg">
  <g transform="matrix(1.0, 0.0, 0.0, 1.0, -0.2, 47.7)">
    <path d="M13.9 -43.95 L13.25 -43.95 13.85 -43.05 Q14.1 -42.65 14.45 -42.3 L14.5 -42.3 Q15.75 -41.75 16.95 -41.05 L16.85 -40.95 16.65 -40.8 Q17.05 -40.15 17.55 -39.45 18.15 -38.75 18.7 -38.0 L18.9 -37.6 19.2 -37.3 Q19.7 -36.7 19.65 -36.05 19.95 -35.2 20.0 -34.35 19.75 -34.8 19.5 -35.2 19.4 -35.0 19.25 -34.85 18.75 -35.75 18.1 -37.05 15.55 -40.1 11.95 -41.9 L11.85 -41.9 Q10.75 -41.75 9.6 -40.75 L9.55 -40.7 Q9.0 -39.35 8.9 -37.85 9.0 -37.15 9.55 -36.75 9.7 -36.6 9.9 -36.45 10.4 -36.2 11.15 -36.1 12.3 -35.9 12.1 -35.05 10.6 -34.45 8.95 -33.85 8.35 -33.6 8.05 -33.05 7.7 -32.45 7.1 -32.7 6.5 -33.4 6.8 -34.4 6.9 -34.9 7.2 -35.3 L7.3 -35.9 6.5 -36.95 6.35 -37.15 5.35 -38.2 Q4.0 -38.85 2.6 -39.5 L2.35 -39.6 Q2.15 -39.8 2.05 -40.05 1.95 -40.25 1.9 -40.45 2.55 -42.45 4.3 -43.95 5.8 -45.25 7.6 -46.0 8.15 -44.3 6.3 -42.95 L5.9 -42.65 Q4.65 -42.6 3.5 -40.95 3.6 -40.7 3.85 -40.45 4.2 -40.1 4.6 -39.75 5.9 -39.4 7.15 -39.85 L7.5 -39.6 Q7.65 -39.8 7.7 -40.05 L7.85 -40.15 Q8.9 -40.75 8.25 -41.45 L7.75 -41.9 Q8.75 -43.2 10.2 -43.9 12.85 -45.15 15.0 -44.35 16.6 -44.0 17.7 -42.6 16.05 -43.1 14.5 -43.95 L13.9 -43.95 M9.1 -37.0 L8.9 -37.35 8.9 -37.1 9.1 -37.0 M23.05 -25.45 L23.05 -25.6 Q23.05 -26.15 22.65 -26.5 22.4 -26.75 22.5 -27.1 22.6 -27.3 22.8 -27.4 L22.9 -27.5 23.0 -27.3 23.25 -26.9 Q25.25 -26.45 27.15 -27.25 L27.1 -27.15 Q24.7 -23.75 27.05 -20.5 L27.25 -20.45 27.45 -20.0 27.5 -19.95 27.3 -19.9 Q25.7 -19.85 24.15 -20.1 23.65 -19.6 23.05 -19.65 L23.2 -20.1 Q24.2 -20.8 25.35 -21.2 24.95 -21.85 24.45 -22.1 L24.55 -22.45 24.35 -22.75 23.9 -22.2 Q23.1 -22.25 22.0 -21.5 19.95 -20.05 19.15 -18.1 L19.0 -18.0 18.8 -17.9 Q18.45 -17.65 18.05 -17.5 L17.4 -17.8 16.8 -18.1 16.55 -18.2 16.5 -18.15 Q15.55 -18.9 15.05 -19.9 L16.2 -19.1 Q16.85 -18.6 17.35 -19.1 17.15 -20.85 15.35 -22.0 L14.45 -22.55 Q14.45 -23.9 14.55 -25.15 14.9 -25.4 15.3 -25.4 15.6 -25.4 15.8 -25.6 L16.6 -26.35 16.75 -26.4 16.8 -26.75 16.75 -26.45 16.9 -26.45 Q17.75 -25.6 17.0 -24.8 17.55 -23.0 19.45 -22.0 20.25 -21.55 20.9 -22.5 L23.05 -25.45 M16.45 -24.35 L16.5 -24.25 16.5 -24.35 16.45 -24.35 M23.6 -24.5 L23.6 -24.45 23.65 -24.45 23.6 -24.5" fill="#ffffff" fill-rule="evenodd" stroke="none"/>
    <path d="M13.9 -43.95 L13.25 -43.95 13.85 -43.05 Q14.1 -42.65 14.45 -42.3 L14.5 -42.3 Q15.75 -41.75 16.95 -41.05 L16.85 -40.95 16.65 -40.8 Q17.05 -40.15 17.55 -39.45 18.15 -38.75 18.7 -38.0 L18.9 -37.6 19.2 -37.3 Q19.7 -36.7 19.65 -36.05 19.95 -35.2 20.0 -34.35 19.75 -34.8 19.5 -35.2 19.4 -35.0 19.25 -34.85 18.75 -35.75 18.1 -37.05 15.55 -40.1 11.95 -41.9 L11.85 -41.9 Q10.75 -41.75 9.6 -40.75 L9.55 -40.7 Q9.0 -39.35 8.9 -37.85 9.0 -37.15 9.55 -36.75 9.7 -36.6 9.9 -36.45 10.4 -36.2 11.15 -36.1 12.3 -35.9 12.1 -35.05 10.6 -34.45 8.95 -33.85 8.35 -33.6 8.05 -33.05 7.7 -32.45 7.1 -32.7 6.5 -33.4 6.8 -34.4 6.9 -34.9 7.2 -35.3 L7.3 -35.9 6.5 -36.95 6.35 -37.15 5.35 -38.2 Q4.0 -38.85 2.6 -39.5 L2.35 -39.6 Q2.15 -39.8 2.05 -40.05 1.95 -40.25 1.9 -40.45 2.55 -42.45 4.3 -43.95 5.8 -45.25 7.6 -46.0 8.15 -44.3 6.3 -42.95 L5.9 -42.65 Q4.65 -42.6 3.5 -40.95 3.6 -40.7 3.85 -40.45 4.2 -40.1 4.6 -39.75 5.9 -39.4 7.15 -39.85 L7.5 -39.6 Q7.65 -39.8 7.7 -40.05 L7.85 -40.15 Q8.9 -40.75 8.25 -41.45 L7.75 -41.9 Q8.75 -43.2 10.2 -43.9 12.85 -45.15 15.0 -44.35 16.6 -44.0 17.7 -42.6 16.05 -43.1 14.5 -43.95 L13.9 -43.95 M23.05 -25.45 L23.05 -25.6 Q23.05 -26.15 22.65 -26.5 22.4 -26.75 22.5 -27.1 22.6 -27.3 22.8 -27.4 L22.9 -27.5 23.0 -27.3 23.25 -26.9 Q25.25 -26.45 27.15 -27.25 L27.1 -27.15 Q24.7 -23.75 27.05 -20.5 L27.25 -20.45 27.45 -20.0 27.5 -19.95 27.3 -19.9 Q25.7 -19.85 24.15 -20.1 23.65 -19.6 23.05 -19.65 L23.2 -20.1 Q24.2 -20.8 25.35 -21.2 24.95 -21.85 24.45 -22.1 L24.55 -22.45 24.35 -22.75 23.9 -22.2 Q23.1 -22.25 22.0 -21.5 19.95 -20.05 19.15 -18.1 L19.0 -18.0 18.8 -17.9 Q18.45 -17.65 18.05 -17.5 L17.4 -17.8 16.8 -18.1 16.55 -18.2 16.5 -18.15 Q15.55 -18.9 15.05 -19.9 L16.2 -19.1 Q16.85 -18.6 17.35 -19.1 17.15 -20.85 15.35 -22.0 L14.45 -22.55 Q14.45 -23.9 14.55 -25.15 14.9 -25.4 15.3 -25.4 15.6 -25.4 15.8 -25.6 L16.6 -26.35 16.75 -26.4 16.8 -26.75 16.75 -26.45 16.9 -26.45 Q17.75 -25.6 17.0 -24.8 17.55 -23.0 19.45 -22.0 20.25 -21.55 20.9 -22.5 L23.05 -25.45 M16.45 -24.35 L16.5 -24.25 16.5 -24.35 16.45 -24.35 M23.6 -24.5 L23.6 -24.45 23.65 -24.45 23.6 -24.5 Z" fill="none" stroke="#ffffff" stroke-linecap="round" stroke-linejoin="round" stroke-opacity="0.3019608" stroke-width="1.1500000000000001"/>
  </g>
</svg>
