<?xml version="1.0" encoding="UTF-8" standalone="no"?>
<svg xmlns:ffdec="https://www.free-decompiler.com/flash" xmlns:xlink="http://www.w3.org/1999/xlink" ffdec:objectType="shape" height="1.5px" width="8.9px" xmlns="http://www.w3.org/2000/svg">
  <g transform="matrix(1.0, 0.0, 0.0, 1.0, 4.3, 1.5)">
    <path d="M0.25 -0.2 L-0.15 -0.2 M2.15 -1.3 L2.7 -1.25 M1.6 -0.25 L1.3 -0.2 M3.1 -1.2 L3.15 -1.2 3.7 -1.1 M3.2 -0.35 L3.15 -0.35 2.8 -0.3 M4.25 -0.95 Q4.4 -0.85 4.4 -0.75 4.4 -0.55 3.45 -0.4 M-3.55 -1.05 L-3.25 -1.1 M-3.8 -0.55 Q-4.1 -0.65 -4.1 -0.75 -4.1 -0.9 -3.8 -1.0 M-3.2 -0.4 L-3.35 -0.45 M-2.55 -0.35 L-2.85 -0.35 M-2.75 -1.2 L-2.1 -1.25 M-0.35 -0.2 L-1.0 -0.2" fill="none" stroke="#ffffff" stroke-linecap="round" stroke-linejoin="round" stroke-width="0.15000000000000002"/>
  </g>
</svg>
