<?xml version="1.0" encoding="UTF-8" standalone="no"?>
<svg xmlns:ffdec="https://www.free-decompiler.com/flash" xmlns:xlink="http://www.w3.org/1999/xlink" ffdec:objectType="shape" height="84.0px" width="56.35px" xmlns="http://www.w3.org/2000/svg">
  <g transform="matrix(1.0, 0.0, 0.0, 1.0, 22.85, 76.4)">
    <path d="M14.5 -74.85 L14.6 -74.6 Q14.6 -74.35 14.5 -74.2 L14.35 -73.95 Q13.55 -73.95 13.2 -74.4 13.0 -74.5 12.9 -74.7 12.85 -74.9 12.85 -75.15 12.85 -75.5 13.1 -75.7 L13.15 -75.7 13.2 -75.85 Q13.45 -76.35 13.6 -76.4 13.65 -76.4 14.05 -75.65 L14.25 -75.5 Q14.5 -75.25 14.5 -74.9 L14.5 -74.85 M13.9 -74.3 L13.9 -74.25 13.95 -74.3 13.9 -74.3 M11.65 -73.2 Q12.4 -73.0 13.05 -72.4 13.7 -72.1 13.8 -71.5 14.35 -70.75 14.8 -69.6 15.25 -68.45 15.55 -67.05 L15.65 -66.35 Q15.85 -66.1 15.85 -65.95 L15.75 -65.6 15.6 -65.25 Q15.4 -64.7 15.25 -64.6 L15.15 -64.6 15.15 -65.1 14.85 -65.2 15.15 -64.5 15.0 -64.45 14.6 -65.35 Q14.35 -65.6 14.2 -66.1 L14.1 -66.45 Q13.7 -67.3 13.35 -67.85 13.15 -68.15 13.1 -68.65 L13.0 -69.45 12.95 -69.7 13.05 -69.85 Q12.55 -71.55 11.75 -71.65 11.45 -71.7 11.25 -71.4 11.0 -71.05 11.0 -70.4 L11.0 -69.8 10.95 -69.55 Q11.0 -69.1 11.25 -68.75 L11.45 -68.95 11.5 -68.9 11.8 -69.2 12.0 -69.35 Q12.5 -69.3 12.65 -69.15 12.75 -68.75 13.0 -68.4 L12.95 -68.25 12.9 -68.25 Q12.7 -68.45 12.35 -68.4 L12.15 -68.35 Q12.15 -68.55 12.35 -68.85 L12.2 -68.95 12.1 -68.3 11.85 -68.1 Q11.65 -67.9 11.6 -67.65 L11.25 -67.6 Q10.8 -67.6 10.55 -68.05 10.45 -68.3 10.45 -68.5 L10.45 -68.75 10.35 -68.7 10.3 -68.8 10.6 -67.9 10.45 -67.85 Q10.0 -68.8 9.2 -71.45 8.5 -73.9 8.5 -74.2 8.5 -74.45 8.65 -74.55 L8.9 -74.6 9.65 -74.6 Q9.8 -74.4 10.45 -74.05 L11.6 -73.35 11.65 -73.2 M1.5 -70.7 Q1.7 -70.5 1.75 -70.0 L1.8 -68.95 1.8 -68.9 Q2.0 -68.4 2.35 -68.1 3.2 -67.45 3.45 -66.9 L3.85 -65.7 3.75 -65.6 Q3.5 -66.0 3.0 -66.5 L2.9 -66.3 Q2.75 -66.05 2.6 -66.05 2.4 -66.05 2.0 -66.35 L1.95 -66.3 Q1.8 -66.4 1.7 -66.55 L1.55 -66.7 Q0.85 -67.3 0.7 -67.3 0.5 -67.3 0.25 -67.1 0.05 -66.85 -0.2 -66.85 -0.6 -66.85 -0.7 -66.95 L-0.75 -67.15 -0.75 -67.7 -1.0 -68.0 Q-1.05 -68.1 -1.05 -68.25 -1.05 -68.6 -0.7 -69.5 -0.35 -70.4 -0.35 -70.8 -0.15 -71.65 0.45 -71.7 1.1 -71.8 1.5 -70.75 L1.5 -70.7 M0.9 -71.0 L0.8 -70.8 Q0.75 -70.7 0.7 -70.55 L0.95 -70.85 Q0.9 -70.9 0.9 -71.0 M9.25 -73.2 L9.2 -73.05 Q9.2 -72.9 9.2 -72.65 9.2 -72.4 9.3 -71.95 9.25 -72.3 9.25 -72.7 L9.25 -73.2 M4.2 -62.0 L3.8 -62.05 3.7 -62.05 3.7 -62.3 Q3.65 -62.5 3.65 -62.75 L3.95 -63.15 Q4.3 -63.5 4.3 -63.95 4.55 -63.8 4.8 -63.35 5.0 -63.0 5.8 -62.75 5.4 -62.55 5.1 -62.2 5.0 -62.0 4.2 -62.0 M0.75 -56.85 Q0.85 -56.7 0.85 -56.45 L0.8 -55.85 Q0.8 -55.7 1.45 -54.05 L2.1 -52.4 Q2.1 -52.2 1.85 -51.85 1.5 -51.4 1.4 -50.95 L1.25 -50.85 1.05 -50.7 0.9 -50.8 0.9 -51.1 Q0.8 -51.3 0.75 -51.6 0.6 -52.15 0.4 -52.35 L0.2 -52.35 Q0.15 -52.25 0.2 -51.9 0.2 -51.5 0.15 -51.35 0.1 -50.95 -0.35 -50.9 L-0.6 -50.7 Q-0.95 -50.5 -1.25 -50.5 -1.25 -50.1 -1.2 -49.55 -1.1 -48.7 -1.1 -48.5 -1.55 -46.75 -2.15 -46.4 L-2.75 -46.6 -2.8 -46.8 -2.8 -47.25 Q-2.8 -47.9 -2.4 -48.85 L-2.15 -49.4 Q-2.1 -49.75 -2.1 -49.95 -2.1 -50.15 -2.35 -51.1 -2.65 -52.05 -2.65 -52.3 L-2.6 -52.45 -2.65 -52.65 Q-2.65 -52.8 -2.55 -52.95 -2.5 -53.35 -2.35 -53.8 -1.95 -55.05 -1.05 -55.1 -0.95 -55.35 -0.95 -55.55 -0.95 -55.7 -1.1 -56.3 -1.3 -56.55 -1.6 -56.9 -2.4 -57.7 -2.4 -58.25 -2.4 -59.05 -1.95 -59.35 -1.6 -59.55 -1.25 -59.15 -1.1 -59.2 -0.85 -58.95 -0.5 -58.55 -0.35 -57.95 L-0.3 -57.85 -0.2 -57.7 0.15 -57.35 Q0.6 -57.05 0.75 -56.85 M8.25 -60.3 Q8.6 -60.2 8.85 -60.0 9.1 -59.75 9.1 -59.5 9.1 -59.3 9.0 -59.1 8.75 -58.7 8.4 -58.7 7.9 -58.7 7.6 -59.2 7.45 -59.45 7.4 -59.7 7.4 -60.1 7.65 -60.25 7.9 -60.35 8.25 -60.3 M7.2 -62.15 Q7.25 -62.0 7.25 -61.9 7.2 -61.65 6.95 -61.55 6.75 -61.7 6.6 -61.85 L6.45 -62.05 Q6.45 -62.1 6.65 -62.25 6.8 -62.35 6.95 -62.4 7.1 -62.3 7.2 -62.15 M17.8 -69.1 Q17.25 -69.1 16.95 -69.55 16.75 -69.9 16.75 -70.1 16.75 -70.4 17.0 -70.65 17.25 -70.9 17.55 -70.95 18.4 -71.05 18.4 -69.8 18.4 -69.1 17.8 -69.1 M12.35 -65.2 L12.45 -65.1 Q12.55 -65.0 12.55 -64.75 L12.5 -64.5 12.5 -64.6 Q12.4 -64.45 12.15 -64.45 L12.1 -64.45 Q12.05 -64.45 12.05 -64.7 12.05 -65.2 12.35 -65.2 M14.95 -63.1 L15.0 -62.7 14.9 -62.65 14.85 -62.7 Q14.8 -62.75 14.8 -62.85 L14.8 -63.1 14.95 -63.1 M14.35 -62.65 L14.4 -62.4 Q14.4 -62.2 14.25 -61.25 L14.1 -61.15 Q13.9 -61.05 13.65 -61.05 L13.3 -61.1 13.2 -61.15 13.15 -61.25 Q13.1 -61.4 13.1 -61.6 13.1 -61.8 13.35 -62.35 13.65 -63.0 13.9 -63.1 L14.2 -63.0 Q14.35 -62.9 14.35 -62.65 M15.0 -59.2 L14.6 -59.2 14.6 -59.25 14.5 -59.45 Q14.55 -59.5 14.65 -59.55 L15.0 -59.6 15.05 -59.35 15.0 -59.2 M15.75 -56.65 L15.65 -56.25 15.55 -56.15 Q15.45 -56.05 15.2 -56.05 14.95 -56.05 14.75 -56.45 14.65 -56.7 14.6 -56.9 14.6 -57.75 15.05 -57.5 15.5 -57.3 15.75 -56.65 M15.65 -54.3 Q15.6 -54.5 15.6 -54.6 L15.95 -54.65 Q16.1 -54.55 16.1 -54.4 16.05 -54.2 15.9 -54.05 L15.7 -54.05 15.65 -54.3 M8.75 -51.85 Q8.2 -51.85 8.05 -52.2 7.95 -52.35 8.0 -52.5 8.0 -52.9 8.2 -53.15 8.45 -53.35 8.75 -53.35 9.05 -53.3 9.25 -53.1 9.5 -52.85 9.5 -52.4 9.5 -51.85 8.75 -51.85 M4.6 -53.7 Q4.65 -53.8 4.8 -53.85 L5.1 -53.7 Q5.2 -53.6 5.2 -53.3 L5.2 -52.95 5.05 -52.85 Q4.9 -52.8 4.8 -52.75 4.6 -52.85 4.55 -52.9 4.45 -53.0 4.45 -53.3 4.45 -53.6 4.6 -53.7 M0.85 -53.25 L0.65 -53.1 Q0.75 -52.95 0.8 -52.7 L0.95 -53.1 Q1.2 -53.65 1.2 -53.75 1.2 -54.4 1.1 -54.7 L1.0 -54.9 Q1.1 -54.45 1.1 -54.0 1.1 -53.55 0.85 -53.25 M0.8 -50.2 Q1.0 -50.0 1.0 -49.55 1.0 -48.7 0.35 -48.7 -0.2 -48.7 -0.3 -49.1 -0.35 -49.3 -0.3 -49.55 -0.3 -49.9 -0.1 -50.15 0.1 -50.35 0.35 -50.4 0.65 -50.4 0.8 -50.2 M3.5 -46.1 L3.35 -46.05 Q3.2 -46.0 2.95 -46.0 2.45 -46.0 2.2 -46.45 2.05 -46.7 2.0 -46.85 2.0 -47.85 2.75 -47.35 3.3 -47.0 3.55 -46.5 L3.5 -46.1 M11.35 -29.85 L11.35 -29.8 11.3 -29.65 11.45 -29.65 11.35 -29.85 M12.0 -35.6 Q12.15 -34.85 12.15 -34.45 L12.1 -33.65 Q12.2 -32.65 12.2 -31.3 12.2 -28.95 12.15 -28.45 12.0 -27.05 11.4 -25.95 L11.4 -25.45 Q11.4 -25.1 11.7 -24.55 12.05 -23.95 12.1 -23.25 12.1 -22.85 12.0 -22.05 11.85 -21.25 11.85 -21.15 11.85 -20.8 12.35 -18.1 12.8 -15.4 12.8 -13.55 12.8 -13.4 13.4 -11.0 L14.25 -7.45 14.35 -7.45 Q14.4 -8.15 14.55 -9.35 L14.8 -11.35 14.95 -11.35 Q15.1 -10.9 15.15 -10.25 15.4 -11.25 15.8 -11.85 16.45 -10.55 16.85 -8.65 17.4 -6.0 17.6 -5.25 17.95 -4.15 18.4 -3.55 19.1 -2.55 20.35 -2.15 21.5 -1.75 23.3 -0.95 23.85 -0.7 25.2 -0.7 25.85 -0.7 26.3 -0.4 26.6 -0.15 26.6 0.0 26.6 0.15 26.15 0.55 26.15 0.6 26.2 0.6 26.25 0.6 26.25 0.85 26.25 1.4 24.9 2.2 23.5 3.0 21.3 3.75 16.95 5.2 12.4 5.5 L12.15 5.65 10.85 5.65 9.7 5.6 8.95 5.55 6.8 5.45 5.2 5.3 3.3 5.2 1.4 5.05 0.0 4.9 -1.4 4.8 -1.6 4.95 -8.2 4.9 Q-9.4 4.65 -11.5 4.3 -12.5 4.05 -13.3 3.7 -13.75 3.55 -14.15 3.25 L-14.35 3.05 Q-14.8 2.65 -14.8 2.3 L-13.25 1.4 Q-11.5 0.4 -10.75 -0.65 L-9.55 -2.75 Q-8.6 -4.3 -8.0 -4.3 -7.0 -4.3 -7.1 -3.6 -7.4 -2.8 -7.4 -2.6 -5.8 -5.2 -5.05 -9.25 -4.9 -10.15 -4.55 -12.75 -4.25 -15.0 -3.95 -16.3 L-3.7 -16.45 Q-2.8 -14.0 -2.7 -11.7 -2.7 -10.95 -2.75 -9.6 L-2.8 -7.3 Q-2.8 -7.15 -2.5 -6.4 L-2.15 -5.65 Q-0.4 -10.9 1.0 -15.65 L1.95 -19.3 Q1.95 -20.35 2.55 -23.15 2.8 -24.6 3.05 -25.7 L3.25 -26.5 3.4 -27.25 3.45 -27.1 Q3.6 -27.4 3.7 -27.3 4.0 -27.0 4.0 -23.65 L3.95 -23.05 3.95 -21.6 4.0 -21.4 Q4.2 -20.65 4.05 -20.25 L3.95 -20.0 3.95 -14.6 Q4.35 -12.15 4.55 -11.15 5.0 -9.2 5.55 -7.75 6.3 -10.45 7.2 -14.9 L8.75 -22.2 Q9.3 -24.65 10.2 -29.5 11.15 -34.3 11.65 -36.65 11.85 -36.45 12.0 -35.6 M23.55 1.65 L23.1 1.9 23.1 1.95 23.45 1.85 Q23.75 1.7 23.9 1.55 23.75 1.55 23.55 1.65 M6.5 5.0 L6.55 4.85 1.25 4.4 -0.25 4.4 Q-0.55 4.45 -0.9 4.6 L0.05 4.65 1.65 4.8 6.05 5.05 6.55 5.1 6.5 5.0 M-0.2 -68.85 Q-0.35 -68.8 -0.45 -68.7 L-0.3 -68.7 -0.2 -68.85 M-0.7 -67.8 L-0.7 -67.8 M-1.1 -58.4 L-1.1 -58.4 M-0.9 -58.35 L-0.9 -58.35 M-0.9 -58.7 L-0.95 -58.7 -0.9 -58.65 -0.9 -58.7 M-1.2 -54.8 L-1.25 -54.8 -1.3 -54.65 -1.2 -54.8 M-0.3 -52.6 Q-0.4 -52.45 -0.5 -52.25 -0.35 -52.45 -0.25 -52.65 L-0.3 -52.6 M-1.95 -50.75 Q-1.85 -50.35 -1.85 -50.1 L-1.7 -50.5 -1.65 -50.55 -1.95 -50.75 M-5.1 -46.0 Q-5.1 -45.9 -5.25 -45.75 -5.4 -45.6 -5.55 -45.5 -5.85 -45.6 -5.85 -46.1 -5.65 -46.3 -5.25 -46.3 L-5.1 -46.0 M-0.3 -43.45 Q-0.25 -43.4 -0.25 -43.15 -0.25 -42.85 -0.3 -42.8 L-0.4 -42.75 -0.8 -42.7 -1.15 -42.7 -1.15 -42.75 -1.3 -42.85 -1.35 -43.15 Q-1.35 -43.4 -1.05 -43.5 -0.75 -43.65 -0.35 -43.45 L-0.3 -43.45 M-6.95 -34.95 Q-6.8 -34.9 -6.65 -34.75 -6.5 -34.6 -6.5 -34.5 L-6.6 -33.95 -6.85 -33.85 -7.15 -33.7 Q-7.6 -34.15 -7.6 -34.3 -7.6 -34.45 -7.25 -34.65 -6.95 -34.8 -6.95 -34.95 M-9.15 -31.5 Q-9.0 -31.35 -9.0 -31.25 L-9.1 -30.85 -9.2 -30.75 Q-9.35 -30.7 -9.45 -30.65 -9.95 -31.1 -9.95 -31.2 -9.95 -31.5 -9.7 -31.65 L-9.45 -31.75 Q-9.3 -31.7 -9.15 -31.5" fill="#7fffb6" fill-opacity="0.5019608" fill-rule="evenodd" stroke="none"/>
    <path d="M14.15 -75.8 Q14.2 -75.8 14.2 -75.55 L14.2 -75.2 14.15 -75.2 14.05 -75.1 Q13.95 -75.05 13.7 -75.05 L13.25 -75.05 13.15 -75.1 13.0 -75.55 Q13.25 -75.75 13.5 -75.85 L14.15 -75.85 14.15 -75.8 M13.35 -71.45 Q13.55 -71.45 13.7 -71.2 L14.15 -71.1 14.7 -69.5 Q14.95 -68.55 14.95 -67.95 L14.95 -67.5 14.8 -67.45 14.7 -67.35 14.75 -67.2 14.7 -67.05 14.6 -67.35 14.55 -67.3 Q14.05 -67.95 14.1 -68.4 L14.15 -68.45 13.85 -69.15 13.35 -70.3 Q13.05 -70.6 13.05 -70.65 13.05 -70.85 13.1 -70.95 13.0 -71.2 12.95 -71.45 L13.35 -71.45 M18.4 -70.85 Q18.45 -70.75 18.45 -70.5 18.45 -70.15 18.25 -69.9 18.0 -69.65 17.7 -69.65 17.2 -69.65 17.1 -69.95 17.05 -70.05 17.05 -70.25 17.05 -70.65 17.25 -70.85 17.6 -71.2 18.3 -71.0 L18.4 -70.85 M1.0 -71.35 Q1.15 -71.2 1.25 -70.3 1.4 -69.55 1.4 -69.25 1.4 -69.0 1.2 -68.8 1.0 -68.55 0.6 -68.55 0.0 -68.55 -0.15 -69.2 -0.2 -69.5 -0.15 -69.65 -0.15 -70.35 0.05 -70.85 0.35 -71.6 1.0 -71.35 M9.0 -71.7 Q9.0 -72.0 9.1 -72.35 9.1 -72.5 8.7 -73.05 8.25 -73.55 8.25 -73.85 8.25 -75.15 9.8 -74.25 10.35 -73.9 10.85 -73.45 11.35 -73.0 11.35 -72.8 11.35 -72.35 10.9 -71.75 10.4 -71.05 9.9 -71.05 9.1 -71.05 9.0 -71.7 M1.1 -67.4 Q1.05 -67.45 1.0 -67.5 0.95 -67.55 0.95 -67.8 L0.95 -68.1 1.0 -68.2 1.35 -68.25 2.0 -68.2 Q2.0 -68.1 2.1 -67.8 L1.95 -67.55 Q1.8 -67.3 1.5 -67.3 L1.15 -67.35 1.1 -67.4 M5.1 -63.5 Q5.2 -63.4 5.2 -63.15 5.2 -62.6 4.55 -62.6 L4.1 -62.65 4.0 -62.7 3.95 -62.8 Q3.95 -62.85 3.95 -63.1 3.95 -63.55 4.25 -63.6 L5.05 -63.6 5.1 -63.5 M8.65 -59.9 Q8.55 -59.75 8.4 -59.65 L8.2 -59.7 Q8.05 -59.75 7.95 -59.85 7.95 -59.95 8.1 -60.05 8.3 -60.15 8.5 -60.15 L8.65 -59.9 M24.0 -45.6 L23.9 -45.55 23.8 -45.4 23.6 -45.55 Q23.45 -45.7 23.4 -45.75 23.4 -45.85 23.6 -45.95 23.85 -46.05 24.0 -46.0 L24.0 -45.6 M21.4 -48.35 L21.45 -48.1 Q21.45 -47.8 21.1 -47.6 20.85 -47.45 20.65 -47.45 20.2 -47.45 19.8 -47.95 19.55 -48.3 19.55 -48.5 19.55 -48.85 19.85 -49.05 L20.1 -49.1 20.15 -49.15 Q20.35 -49.3 20.65 -49.3 21.45 -49.35 21.45 -48.55 L21.4 -48.35 M21.8 -43.15 L21.7 -42.9 21.05 -42.8 21.0 -43.1 21.0 -43.4 21.75 -43.3 21.8 -43.15 M0.35 -54.85 L-0.1 -55.15 Q-0.2 -55.25 -0.2 -55.3 -0.2 -55.55 0.1 -55.75 L0.35 -55.9 0.65 -55.8 Q0.8 -55.7 0.8 -55.4 0.8 -55.15 0.75 -55.1 L0.7 -54.95 0.35 -54.85 M0.8 -49.75 Q0.8 -49.5 0.65 -49.35 0.4 -49.1 0.1 -49.1 -0.35 -49.1 -0.5 -49.2 L-0.55 -49.35 Q-0.6 -49.45 -0.6 -49.75 -0.6 -50.35 0.1 -50.35 0.8 -50.35 0.8 -49.75 M21.45 -38.95 Q21.35 -38.85 21.15 -38.8 21.0 -39.05 21.0 -39.2 L21.2 -39.3 Q21.3 -39.3 21.55 -39.15 21.5 -39.0 21.45 -38.95 M3.4 -26.0 Q3.6 -25.9 3.7 -25.85 3.8 -25.7 3.8 -25.4 L3.75 -25.0 3.75 -24.95 Q3.7 -24.95 3.6 -24.85 3.5 -24.8 3.4 -24.75 3.2 -24.8 3.1 -24.9 3.0 -25.05 3.0 -25.35 3.0 -25.65 3.1 -25.8 3.15 -25.9 3.4 -26.0 M9.8 -12.3 Q9.9 -11.65 9.9 -11.35 9.9 -11.05 9.8 -11.1 L9.75 -11.2 Q9.75 -11.3 9.6 -11.5 L9.35 -11.75 9.35 -13.8 9.5 -13.8 Q9.6 -13.35 9.8 -12.3 M11.35 -9.1 Q11.65 -8.1 11.65 -7.25 11.65 -7.05 11.35 -6.75 11.0 -6.5 11.0 -6.05 L10.8 -6.0 Q10.8 -6.15 10.95 -6.5 11.05 -6.85 11.05 -7.1 11.05 -7.45 10.45 -8.1 9.85 -8.7 9.85 -8.95 9.85 -9.1 10.05 -9.35 10.2 -9.65 10.4 -9.8 11.0 -10.2 11.35 -9.1 M1.9 -8.45 Q1.95 -8.65 1.85 -9.1 1.75 -9.6 1.75 -9.8 1.75 -10.1 1.8 -10.2 1.9 -10.3 2.0 -10.3 2.2 -9.75 2.7 -9.05 3.0 -8.65 3.0 -8.0 2.95 -7.6 2.75 -7.25 2.35 -6.55 1.6 -6.65 L1.25 -6.75 Q1.15 -6.85 1.15 -7.15 1.15 -7.4 1.5 -7.6 1.85 -7.85 1.9 -8.45 M0.35 -5.05 Q0.2 -5.3 0.2 -5.75 0.2 -6.55 0.9 -6.55 1.2 -6.55 1.4 -6.35 1.6 -6.2 1.6 -5.85 1.6 -5.4 1.45 -4.95 1.35 -4.5 1.05 -4.25 0.55 -4.65 0.35 -5.05 M2.45 -2.25 Q2.45 -2.5 2.6 -2.95 2.75 -3.4 2.75 -3.6 L2.9 -3.6 Q3.0 -3.3 3.3 -2.75 3.55 -2.2 3.7 -1.8 L3.6 -1.4 3.55 -1.35 3.85 -0.55 Q4.35 0.6 4.4 1.35 L4.4 1.65 Q4.65 1.9 5.0 2.55 5.55 3.55 5.95 3.55 7.65 3.55 8.85 2.25 L9.65 1.3 Q10.1 0.8 10.35 0.65 L10.4 0.7 Q10.35 0.3 10.15 -0.35 9.85 -1.3 9.85 -1.55 9.85 -1.8 10.4 -2.85 10.8 -3.7 10.45 -4.05 L10.6 -4.35 10.75 -4.35 10.7 -4.05 Q10.8 -3.75 10.8 -3.25 L10.75 -2.5 Q11.2 -2.1 11.35 -1.7 11.35 -1.6 11.35 -1.1 11.35 -0.55 11.95 1.4 12.6 3.5 13.05 3.5 15.1 3.5 16.2 2.4 17.25 1.35 16.8 0.2 L16.95 0.1 Q17.05 0.0 17.35 0.0 17.5 0.0 17.9 0.3 L18.75 1.0 Q19.3 1.4 19.8 1.6 20.3 1.45 21.0 1.4 21.75 1.35 22.6 1.4 L22.65 1.5 Q23.5 1.1 23.7 1.1 24.65 1.1 24.65 1.85 24.65 2.6 24.0 2.75 L22.95 2.85 Q22.4 3.8 19.5 4.4 16.7 5.0 13.95 5.0 L10.85 5.45 Q7.8 5.9 6.5 5.9 3.4 5.9 3.0 5.8 0.35 5.25 -1.45 4.95 L-5.95 4.8 -8.5 5.0 Q-9.8 5.0 -10.8 4.55 -11.55 4.25 -11.8 3.85 -12.05 3.75 -12.2 3.45 -12.45 3.0 -12.3 2.7 -11.65 2.85 -10.85 2.5 L-9.75 1.85 Q-9.3 1.55 -9.2 1.7 -9.1 1.9 -9.45 3.0 -8.6 3.2 -7.95 3.2 -7.65 3.2 -7.5 2.7 -7.35 2.25 -7.05 2.25 -6.4 2.25 -6.35 2.95 -6.3 3.25 -6.3 3.7 L-5.65 3.75 Q-4.6 3.2 -4.2 2.1 -4.05 1.75 -3.8 0.15 L-3.5 0.15 -3.35 0.3 Q-3.3 0.4 -3.3 0.7 -3.3 0.95 -3.5 1.75 -3.65 2.5 -3.65 2.75 -3.65 3.05 -2.85 3.4 -2.1 3.75 -2.1 3.95 L-2.1 4.15 -2.0 4.2 -2.0 4.0 Q-2.0 3.65 -1.8 3.35 -1.45 2.9 -1.2 2.5 -0.8 2.5 -0.4 2.8 L0.3 3.4 Q0.6 3.65 0.9 3.75 L1.75 3.0 Q3.2 1.8 3.3 0.65 L3.45 0.65 3.45 0.95 Q3.65 0.6 3.65 0.3 3.65 -0.35 3.55 -0.65 L3.2 -1.25 3.05 -1.25 Q2.65 -1.25 2.5 -1.75 2.45 -2.0 2.45 -2.25 M10.95 -5.8 L11.0 -5.85 Q11.05 -5.8 11.05 -5.55 L11.0 -5.1 11.0 -5.0 10.7 -4.75 10.7 -4.7 Q10.65 -4.65 10.65 -4.95 10.65 -5.2 10.7 -5.45 L10.75 -5.8 10.95 -5.8 M32.9 -0.1 Q33.1 0.1 33.1 0.7 33.1 0.95 32.95 1.15 32.8 1.45 32.45 1.6 L31.9 1.15 Q31.8 1.05 31.8 1.0 31.8 0.65 32.0 0.3 32.2 -0.05 32.45 -0.15 32.7 -0.3 32.9 -0.1 M20.3 2.45 L20.45 2.4 20.4 2.35 20.3 2.45 M19.25 2.7 L19.35 2.65 19.25 2.65 19.25 2.7 M11.75 4.0 L11.5 4.15 11.95 4.1 Q11.8 4.0 11.75 4.0 M11.45 3.1 L11.35 2.7 11.2 2.35 11.25 3.1 11.45 3.1 M3.3 2.95 L3.3 2.8 3.25 2.95 3.3 2.95 M0.0 4.4 L0.0 4.4 M4.5 4.75 L4.7 4.75 4.55 4.65 4.5 4.75 M4.65 7.45 Q4.1 7.35 4.05 7.2 4.65 6.75 5.4 6.7 6.15 6.6 6.7 7.05 6.5 7.4 6.35 7.45 6.15 7.6 5.55 7.6 L4.65 7.45 M-0.2 -56.95 Q-0.4 -56.65 -0.7 -56.65 -1.75 -56.65 -2.0 -57.45 -2.15 -57.8 -2.1 -58.15 -2.1 -58.95 -1.8 -59.2 -1.5 -59.4 -1.1 -59.15 -0.7 -58.9 -0.4 -58.4 -0.05 -57.85 -0.05 -57.35 -0.05 -57.15 -0.2 -56.95 M-0.4 -53.3 Q-0.4 -52.85 -0.4 -52.65 -0.55 -52.1 -1.05 -52.1 L-1.0 -52.1 -0.9 -51.65 -1.0 -51.45 -1.0 -51.35 Q-1.05 -51.3 -1.15 -51.3 L-1.3 -51.4 Q-1.4 -51.45 -1.4 -51.7 -1.4 -52.0 -1.25 -52.05 L-1.05 -52.1 Q-1.55 -52.1 -1.95 -52.9 -2.25 -53.55 -2.25 -53.85 -2.25 -54.45 -2.0 -54.7 -1.7 -54.9 -1.3 -54.8 -0.95 -54.7 -0.65 -54.3 -0.4 -53.9 -0.4 -53.3 M-21.9 2.15 Q-22.1 2.25 -22.2 2.25 -22.6 2.0 -22.75 1.8 L-22.85 1.6 -22.75 1.1 Q-22.45 1.1 -22.2 1.3 -21.85 1.55 -21.65 2.05 -21.75 2.05 -21.9 2.15" fill="#8cffd1" fill-opacity="0.7529412" fill-rule="evenodd" stroke="none"/>
    <path d="M13.95 -75.35 Q13.85 -75.1 13.6 -74.95 L13.45 -75.05 Q13.3 -75.1 13.25 -75.2 13.25 -75.4 13.35 -75.55 13.5 -75.75 13.7 -75.75 13.85 -75.55 13.95 -75.35 M1.05 -71.05 Q1.1 -71.0 1.1 -70.75 1.1 -70.55 0.9 -70.2 0.7 -69.9 0.55 -69.75 L0.0 -69.9 -0.05 -70.0 Q-0.15 -70.05 -0.15 -70.3 -0.15 -70.55 0.1 -70.8 0.4 -71.15 1.0 -71.15 L1.05 -71.05 M11.0 -71.95 Q10.8 -71.8 10.55 -71.8 9.85 -71.8 9.15 -72.55 8.55 -73.2 8.55 -73.35 8.55 -74.15 8.95 -74.3 9.3 -74.4 9.9 -74.1 10.4 -73.75 10.8 -73.3 11.2 -72.8 11.2 -72.5 11.2 -72.15 11.0 -71.95 M5.0 -63.35 Q5.0 -63.2 4.95 -63.1 4.85 -63.0 4.55 -63.0 L4.25 -63.0 Q4.2 -63.05 4.25 -63.05 L4.15 -63.05 Q4.1 -63.05 4.1 -63.35 L4.4 -63.4 Q4.65 -63.45 4.65 -63.85 4.8 -63.8 4.9 -63.6 L5.0 -63.35 M18.2 -69.95 Q18.15 -69.85 17.95 -69.8 L17.8 -70.1 Q17.65 -70.3 17.65 -70.5 L18.15 -70.55 Q18.3 -70.4 18.3 -70.25 18.3 -70.05 18.2 -69.95 M14.25 -69.05 L14.15 -68.65 Q13.45 -69.2 13.2 -70.55 13.6 -70.85 13.95 -70.3 14.25 -69.85 14.25 -69.55 L14.25 -69.05 M21.45 -48.25 L21.3 -48.2 Q21.1 -48.1 20.9 -48.05 L20.45 -48.4 Q20.3 -48.55 20.3 -48.65 20.3 -49.05 20.6 -49.25 20.95 -49.45 21.55 -48.65 L21.45 -48.25 M0.45 -50.05 Q0.4 -49.85 0.25 -49.75 L0.0 -49.6 -0.1 -49.65 -0.3 -49.8 -0.05 -50.1 Q0.15 -50.25 0.25 -50.3 L0.45 -50.05 M11.2 -8.55 Q11.3 -8.4 11.3 -8.2 L11.15 -7.95 10.9 -7.8 Q10.5 -8.25 10.5 -8.3 10.5 -8.6 10.6 -8.7 L10.9 -8.8 Q11.1 -8.75 11.2 -8.55 M2.8 -8.35 Q2.8 -8.3 2.8 -8.0 L2.8 -7.6 2.75 -7.55 2.7 -7.45 Q2.6 -7.3 2.3 -7.3 1.95 -7.3 1.85 -7.7 1.8 -7.85 1.85 -8.05 1.85 -8.2 2.1 -8.3 2.3 -8.4 2.3 -8.7 2.7 -8.6 2.8 -8.35 M33.45 0.8 L33.45 1.1 Q33.4 1.15 33.4 1.25 33.35 1.25 33.2 1.35 L32.9 1.5 32.5 1.15 Q32.3 0.95 32.3 0.8 32.3 0.55 32.35 0.45 32.45 0.15 32.9 0.25 L33.45 0.8 M21.6 2.45 Q21.6 2.2 21.8 2.05 22.0 1.85 22.3 1.8 22.95 1.65 22.95 2.35 22.95 3.1 22.25 3.1 L21.85 3.05 21.75 3.0 21.65 2.85 Q21.6 2.7 21.6 2.45 M20.6 2.95 Q20.5 2.9 20.5 2.65 20.5 2.35 20.75 2.3 L21.2 2.3 21.35 2.45 Q21.3 2.55 21.2 2.7 21.05 2.9 20.9 2.95 L20.6 2.95 M19.95 2.7 Q19.95 2.95 19.75 2.95 19.55 2.95 19.55 3.2 19.55 3.55 18.65 4.05 17.75 4.55 17.15 4.55 16.4 4.55 16.25 4.25 16.2 4.15 16.2 3.85 16.2 3.6 16.5 3.25 16.9 2.9 17.05 2.45 L17.15 1.85 Q17.2 1.5 17.4 1.25 17.85 1.25 18.9 1.8 19.95 2.35 19.95 2.7 M14.15 4.75 Q13.95 4.7 13.85 4.55 13.75 4.35 13.75 4.15 13.85 4.05 14.0 4.0 L14.3 3.95 Q14.55 4.05 14.65 4.3 L14.35 4.6 14.15 4.75 M12.1 4.5 Q12.1 5.0 11.5 5.35 10.9 5.65 10.2 5.65 8.55 5.65 7.9 5.2 7.55 4.95 7.55 4.7 7.55 3.9 8.9 3.9 9.35 3.5 9.55 2.5 9.65 2.05 9.7 1.85 9.85 1.6 10.15 1.6 11.0 1.7 11.05 2.4 11.1 2.85 11.0 3.65 11.7 4.0 11.9 4.15 12.1 4.3 12.1 4.5 M7.25 4.85 Q7.15 4.95 6.85 4.95 6.6 4.95 6.5 4.9 L6.35 4.75 6.35 4.45 6.7 4.4 Q6.95 4.4 7.25 4.55 L7.35 4.7 7.25 4.85 M0.4 4.75 Q0.25 4.9 -0.1 4.9 -0.55 4.9 -0.85 4.4 L-1.05 3.95 Q-1.05 2.85 -0.3 3.4 0.0 3.65 0.6 4.35 0.5 4.55 0.4 4.75 M4.6 5.3 Q4.35 5.5 3.85 5.5 L2.45 5.4 Q2.25 5.1 1.8 4.6 2.85 2.4 3.65 2.4 4.5 2.45 5.1 4.85 L4.6 5.3 M-0.75 -57.7 Q-0.95 -57.45 -1.45 -57.45 -2.05 -57.45 -2.25 -57.85 -2.3 -58.0 -2.25 -58.25 -2.25 -58.75 -2.0 -59.05 -1.75 -59.3 -1.4 -59.3 -1.05 -59.3 -0.8 -59.05 -0.55 -58.75 -0.55 -58.3 -0.55 -57.9 -0.75 -57.7 M-1.35 -53.2 Q-1.9 -53.2 -2.05 -53.5 -2.1 -53.55 -2.1 -53.8 -2.1 -54.75 -1.3 -54.6 -1.05 -54.55 -0.8 -54.3 -0.55 -54.1 -0.55 -53.85 -0.55 -53.45 -0.9 -53.3 -1.1 -53.2 -1.35 -53.2 M-4.65 3.4 L-3.95 3.45 Q-3.95 3.7 -3.85 4.1 -3.9 4.15 -4.2 4.25 L-4.65 4.4 -4.95 4.3 Q-5.05 4.2 -5.05 3.95 L-5.05 3.6 -5.0 3.45 -4.65 3.4 M-10.0 2.9 Q-9.65 3.2 -9.15 3.7 L-8.75 4.1 Q-8.65 4.1 -8.05 3.85 -7.45 3.6 -7.3 3.6 L-7.1 3.65 Q-7.0 3.7 -7.0 3.95 -7.0 4.1 -7.25 4.4 -7.45 4.65 -7.5 4.65 -8.5 4.65 -9.8 4.3 -11.25 3.9 -11.25 3.5 -11.25 2.0 -10.0 2.9" fill="#bfffe6" fill-opacity="0.7529412" fill-rule="evenodd" stroke="none"/>
    <path d="M0.65 -70.75 L0.6 -70.45 Q0.55 -70.4 0.35 -70.35 L0.1 -70.35 Q0.0 -70.35 0.0 -70.65 0.0 -70.9 0.05 -70.95 L0.6 -70.95 0.65 -70.75 M9.2 -72.6 Q8.7 -72.6 8.55 -72.85 8.55 -72.95 8.55 -73.2 8.55 -73.8 8.75 -74.1 8.95 -74.35 9.25 -74.35 9.55 -74.35 9.75 -74.1 9.95 -73.8 9.95 -73.35 9.95 -72.6 9.2 -72.6 M4.5 -63.7 Q4.75 -63.7 4.9 -63.6 L4.9 -63.45 4.65 -63.25 Q4.4 -63.3 4.3 -63.4 4.25 -63.5 4.25 -63.7 L4.5 -63.7 M18.65 -70.55 Q18.55 -70.35 18.3 -70.3 L17.9 -70.3 Q18.05 -70.65 18.5 -70.65 L18.65 -70.55 M14.0 -70.05 Q14.15 -70.0 14.15 -69.7 14.15 -69.45 14.1 -69.35 L14.05 -69.25 13.85 -69.2 13.7 -69.5 Q13.6 -69.7 13.6 -69.95 13.6 -70.4 13.65 -70.15 L13.8 -70.2 14.0 -70.05 M21.25 -48.9 Q21.2 -48.75 21.1 -48.65 20.95 -48.5 20.75 -48.45 20.5 -48.45 20.45 -48.5 20.35 -48.55 20.35 -48.85 20.35 -49.3 20.4 -49.05 20.55 -49.2 21.0 -49.15 L21.25 -48.9 M33.45 1.1 L33.2 1.15 Q33.1 1.0 33.1 0.7 L33.35 0.65 Q33.45 0.7 33.5 0.8 L33.45 1.1 M22.55 3.25 L22.2 3.15 Q22.15 3.1 22.15 2.75 22.15 2.45 22.25 2.4 L22.55 2.25 Q22.7 2.35 22.85 2.5 22.95 2.7 22.95 2.9 22.8 3.15 22.55 3.25 M19.3 3.1 Q19.3 3.5 18.95 3.95 18.6 4.35 18.15 4.35 17.5 4.35 17.3 3.85 17.2 3.6 17.2 3.15 17.2 2.85 17.55 2.65 17.85 2.4 18.25 2.35 18.7 2.3 18.95 2.45 19.3 2.65 19.3 3.1 M11.05 4.65 Q11.05 5.15 10.95 5.3 10.8 5.65 10.2 5.65 9.45 5.65 9.2 5.35 9.1 5.2 9.1 4.8 9.1 4.45 9.4 4.1 9.7 3.75 10.05 3.6 10.45 3.45 10.75 3.7 11.05 3.95 11.05 4.65 M4.0 5.15 Q3.75 5.3 3.4 5.3 2.75 5.3 2.6 4.95 2.55 4.85 2.55 4.55 2.55 4.1 2.8 3.7 3.1 3.3 3.45 3.25 3.8 3.15 4.05 3.4 4.35 3.75 4.35 4.45 4.35 4.9 4.0 5.15 M-1.1 -59.2 Q-1.0 -59.05 -1.0 -58.75 -1.0 -58.5 -1.0 -58.4 L-1.0 -58.35 -1.45 -58.25 Q-1.85 -58.65 -1.85 -58.8 -1.85 -59.3 -1.45 -59.4 -1.2 -59.3 -1.1 -59.2 M-2.05 -54.05 Q-2.15 -54.2 -2.15 -54.3 -2.15 -54.45 -2.0 -54.6 -1.8 -54.75 -1.6 -54.85 -1.05 -55.0 -1.05 -54.3 L-1.1 -53.95 -1.1 -53.9 -1.3 -53.8 Q-1.45 -53.7 -1.6 -53.7 L-2.05 -54.05 M-9.4 4.2 Q-9.55 4.35 -9.8 4.35 -10.15 4.35 -10.35 3.95 -10.5 3.75 -10.5 3.55 -10.5 2.9 -9.85 3.05 -9.25 3.2 -9.25 3.75 -9.25 4.2 -9.3 4.1 L-9.4 4.2 M-7.25 4.5 L-7.3 4.6 -7.5 4.75 -7.65 4.7 Q-7.85 4.65 -7.95 4.55 -7.9 4.35 -7.65 4.3 L-7.25 4.25 -7.25 4.5 M-22.25 1.75 Q-22.25 1.85 -22.25 1.95 -22.3 2.0 -22.4 2.05 -22.7 2.0 -22.8 1.85 -22.75 1.7 -22.55 1.65 -22.35 1.6 -22.25 1.75" fill="#ffffff" fill-rule="evenodd" stroke="none"/>
    <path d="M6.05 7.05 Q5.2 7.2 4.9 7.4 4.0 7.3 3.9 7.15 4.3 6.9 5.0 6.85 L6.0 6.9 6.05 7.05" fill="#59a5ff" fill-opacity="0.5019608" fill-rule="evenodd" stroke="none"/>
    <path d="M32.7 -0.25 Q32.95 0.3 32.95 0.75 32.95 1.3 32.5 1.7 32.15 2.05 31.65 2.05 L31.15 2.0 Q31.05 1.9 30.95 1.9 L31.25 0.4 Q31.5 -0.5 31.85 -1.1 32.4 -0.95 32.7 -0.25 M27.75 3.25 Q27.25 3.5 25.8 3.75 26.0 3.4 27.05 3.05 27.95 2.75 28.2 2.8 28.05 3.1 27.75 3.25 M12.95 6.8 Q12.55 7.15 12.4 7.25 11.75 7.6 10.35 7.6 L9.7 7.55 9.45 7.55 9.0 7.45 Q8.5 7.35 8.5 7.25 10.65 7.3 11.7 6.7 L12.2 6.4 Q12.45 6.3 12.8 6.45 L12.95 6.8 M3.7 7.3 Q3.95 7.35 4.0 7.45 3.7 7.55 1.85 7.25 -0.05 6.95 -0.7 6.65 L1.35 6.4 Q2.65 6.35 3.5 7.2 L3.7 7.3 M-14.45 6.05 L-14.5 5.75 Q-14.2 5.55 -12.65 6.1 L-9.35 7.2 Q-10.05 7.15 -11.9 6.7 L-14.45 6.05 M-20.55 2.55 Q-20.55 2.6 -20.9 2.6 -21.65 2.6 -22.05 2.1 -22.3 1.75 -22.3 1.4 -22.3 -0.2 -21.55 0.85 -20.95 1.65 -20.65 2.5 L-20.55 2.55" fill="#59ffa1" fill-opacity="0.5019608" fill-rule="evenodd" stroke="none"/>
  </g>
</svg>
