<?xml version="1.0" encoding="UTF-8" standalone="no"?>
<svg xmlns:ffdec="https://www.free-decompiler.com/flash" xmlns:xlink="http://www.w3.org/1999/xlink" ffdec:objectType="shape" height="58.3px" width="16.55px" xmlns="http://www.w3.org/2000/svg">
  <g transform="matrix(1.0, 0.0, 0.0, 1.0, 9.7, 35.75)">
    <path d="M6.7 1.15 L6.8 1.2 6.8 1.25 Q6.85 1.3 6.85 1.6 6.85 2.7 5.95 9.8 L5.6 12.35 Q5.75 12.7 5.8 13.2 5.85 13.85 5.8 14.5 5.8 15.25 5.5 16.35 5.15 17.85 4.45 19.05 2.5 22.55 -1.2 22.55 -3.05 22.55 -4.6 21.55 -5.1 21.2 -5.5 20.8 L-5.8 20.5 Q-5.8 20.2 -5.55 20.05 -5.35 19.9 -5.1 19.9 -5.95 19.3 -6.8 18.35 -7.4 17.6 -7.9 16.7 -8.3 16.05 -8.3 15.95 -8.3 15.25 -7.9 15.1 -7.55 15.0 -6.8 15.35 -7.45 14.45 -8.0 13.0 -8.75 11.05 -9.15 9.0 -9.15 8.2 -9.0 7.8 -8.85 7.35 -8.5 7.15 L-8.4 6.95 Q-8.3 6.75 -8.15 6.7 -7.1 7.95 -5.2 9.95 L-5.1 10.1 -5.25 9.8 Q-6.0 7.95 -6.0 5.7 -6.0 -0.85 -4.2 1.5 -3.55 2.35 -2.5 4.6 L-1.6 6.45 Q-1.5 4.6 -0.7 2.55 0.35 -0.1 2.05 -1.3 2.85 -0.5 3.1 1.2 L3.25 2.6 Q3.3 3.4 3.4 3.85 L3.4 3.9 Q3.65 3.5 4.7 2.45 5.95 1.1 6.25 1.1 L6.7 1.15" fill="#73afff" fill-opacity="0.5019608" fill-rule="evenodd" stroke="none"/>
    <path d="M6.05 3.0 Q6.0 4.0 5.85 5.25 L5.25 9.25 Q4.9 11.35 4.7 13.15 L4.75 14.0 4.95 16.25 Q5.05 18.9 3.55 19.3 L3.45 19.35 3.4 19.35 2.9 20.1 2.85 20.25 Q2.8 20.4 2.55 20.55 L2.5 20.65 Q1.85 21.6 1.4 22.15 L1.3 22.0 Q0.65 22.45 -1.25 22.2 -2.45 22.0 -3.3 21.55 -4.15 21.5 -4.55 21.25 L-4.65 20.9 -4.35 20.85 -4.45 20.8 Q-4.55 20.7 -4.25 20.55 L-3.55 20.6 Q-2.9 20.45 -2.05 20.3 L-2.4 20.2 Q-4.0 19.7 -6.4 18.0 L-6.95 17.2 Q-7.45 17.0 -7.9 16.75 L-7.25 16.9 -7.3 16.8 -7.35 16.65 Q-7.4 16.5 -7.3 16.4 L-4.7 16.75 -3.6 17.0 Q-4.7 16.45 -4.9 16.15 L-5.9 14.85 Q-6.6 13.85 -6.55 13.8 -8.3 10.55 -8.5 10.0 -8.6 9.55 -8.5 9.25 L-8.45 9.1 -8.5 9.0 -8.5 8.7 -8.4 8.55 -8.2 8.7 -8.1 8.6 Q-7.65 8.95 -7.35 9.5 L-5.25 11.55 Q-3.7 12.45 -2.15 13.55 -4.9 9.7 -5.35 5.85 -5.6 3.7 -5.2 2.25 L-4.85 2.25 -4.7 3.0 -4.2 3.65 -0.7 9.75 Q-1.3 7.75 -0.3 4.75 0.15 3.3 0.85 1.95 1.4 0.85 1.55 0.75 L2.0 0.45 2.05 0.45 2.1 0.2 2.15 0.15 2.2 0.45 Q2.25 0.45 2.35 0.5 L2.25 0.65 Q2.45 2.65 2.8 6.7 2.95 6.2 3.2 5.65 4.05 3.55 5.35 2.65 5.65 2.45 5.9 2.3 L6.05 1.8 6.05 2.25 6.4 2.2 6.05 3.0 M3.2 18.25 L3.2 18.25" fill="#8cc1ff" fill-opacity="0.7529412" fill-rule="evenodd" stroke="none"/>
    <path d="M0.9 -25.15 L0.75 -25.25 Q0.6 -25.35 0.55 -25.4 L0.55 -25.7 Q0.9 -25.7 1.05 -25.55 L1.1 -25.3 0.9 -25.15 M0.4 -24.4 L0.95 -23.85 0.95 -23.55 0.9 -23.4 Q0.85 -23.4 0.7 -23.3 L0.4 -23.1 0.05 -23.5 Q-0.15 -23.7 -0.15 -23.85 L-0.1 -24.15 Q-0.05 -24.2 0.0 -24.3 L0.4 -24.3 0.4 -24.4 M0.3 -22.0 Q0.3 -21.55 -0.05 -21.35 -0.3 -21.2 -0.6 -21.2 -1.15 -21.2 -1.3 -21.55 -1.35 -21.65 -1.35 -21.95 -1.35 -22.35 -1.1 -22.6 -0.9 -22.8 -0.55 -22.8 -0.2 -22.8 0.0 -22.6 0.3 -22.35 0.3 -22.0 M0.05 -19.25 L0.1 -19.8 0.25 -19.8 Q0.25 -19.3 0.4 -18.55 L0.7 -17.3 0.6 -17.2 Q0.2 -17.6 0.1 -18.0 0.0 -18.2 0.0 -18.6 0.0 -18.9 0.05 -19.25 M1.5 -15.65 Q1.5 -14.95 0.9 -14.15 0.25 -13.4 0.25 -12.9 0.25 -12.6 0.45 -12.4 L0.75 -12.15 0.65 -11.6 0.15 -11.4 0.05 -10.95 0.0 -10.7 Q0.0 -10.4 0.05 -10.05 L0.3 -8.2 0.1 -8.15 -0.05 -8.75 -0.05 -8.4 Q0.05 -8.1 0.65 -7.5 L1.25 -7.8 Q1.6 -7.95 1.95 -7.95 2.8 -7.95 3.4 -6.65 3.6 -6.2 3.7 -5.75 L3.85 -5.3 Q3.85 -4.65 3.4 -3.6 2.9 -2.55 2.9 -2.05 2.9 -0.95 3.05 0.35 3.2 1.7 3.2 3.15 3.2 3.4 3.4 4.75 3.6 6.1 3.6 6.35 3.6 7.0 3.0 8.1 2.35 9.2 2.35 9.45 2.35 9.75 3.05 10.85 3.75 11.9 3.75 12.7 3.75 13.0 3.6 13.3 L3.5 13.5 Q3.95 13.55 4.3 14.0 L5.1 15.0 Q5.3 15.2 5.3 15.5 5.3 16.05 5.1 16.35 4.85 16.65 4.4 16.65 4.45 17.05 4.45 17.45 4.45 18.7 3.9 19.55 3.25 20.65 1.4 21.7 L0.2 21.7 Q-0.95 21.65 -1.25 20.35 L-1.35 19.9 Q-1.9 19.45 -2.25 18.0 -2.4 17.3 -2.55 16.5 L-2.6 15.8 -2.6 14.65 Q-2.55 14.3 -2.3 14.05 L-1.75 13.7 -2.0 13.1 Q-2.0 12.8 -1.55 12.4 -0.95 11.85 -0.75 11.55 -1.55 11.15 -2.5 9.8 -3.4 8.5 -3.4 8.05 -3.4 7.15 -3.1 6.4 -2.6 5.25 -2.35 4.25 L-2.2 4.25 Q-1.9 4.8 -1.9 6.15 -1.85 7.5 -1.6 8.1 -0.9 9.55 0.1 10.2 L0.15 10.25 Q-0.35 8.95 -0.35 8.2 L-0.35 7.75 Q-0.35 7.45 -0.2 7.2 0.2 6.5 1.75 6.3 L2.0 5.5 Q2.2 4.95 2.2 4.6 L1.2 1.75 Q0.25 -1.05 0.25 -1.2 0.25 -1.7 0.7 -2.3 1.2 -2.9 1.2 -3.25 L1.05 -4.0 Q-1.35 -3.65 -1.45 -4.35 -1.45 -4.55 -1.25 -5.0 -1.05 -5.5 -1.05 -5.7 -1.05 -6.7 -1.4 -7.25 -1.8 -7.8 -1.8 -8.6 -1.8 -9.75 -1.5 -10.25 -1.35 -10.45 -0.95 -10.75 -0.65 -10.9 -0.5 -11.15 L-0.55 -11.55 -0.7 -11.6 Q-0.7 -12.0 -0.75 -12.85 L-0.8 -13.95 -0.6 -14.5 -0.55 -15.1 -0.35 -15.1 Q0.05 -15.95 0.35 -16.5 1.5 -18.4 1.5 -15.65 M3.8 -10.85 Q3.5 -10.5 2.85 -10.5 2.3 -10.5 2.15 -10.95 2.05 -11.15 2.1 -11.4 2.1 -11.95 2.4 -12.2 2.65 -12.45 3.05 -12.4 3.45 -12.35 3.75 -12.1 4.05 -11.85 4.05 -11.5 4.05 -11.1 3.8 -10.85 M5.35 1.1 Q5.7 1.4 5.7 1.85 5.7 2.1 5.55 2.3 5.35 2.6 4.9 2.6 4.35 2.6 3.85 2.05 3.4 1.6 3.4 1.4 3.4 0.95 3.75 0.8 4.1 0.6 4.55 0.7 5.0 0.8 5.35 1.1 M5.15 6.3 Q5.65 6.0 6.25 6.95 L6.15 7.45 6.0 7.55 Q5.85 7.7 5.55 7.7 5.25 7.7 5.15 7.6 5.0 7.5 4.85 7.45 4.8 7.5 4.8 6.95 4.8 6.5 5.15 6.3 M3.05 3.85 L2.9 3.55 3.3 5.25 Q3.25 4.45 3.05 3.85 M3.15 7.2 L3.15 7.25 3.1 7.45 3.15 7.45 3.15 7.2 M2.6 12.05 L2.75 12.5 Q2.7 12.1 2.6 11.8 L2.6 12.05 M0.4 12.35 L0.2 12.65 0.85 12.3 0.75 11.85 Q0.65 12.05 0.4 12.35 M3.05 13.9 L2.95 14.35 Q3.25 14.6 3.55 14.9 L3.75 15.2 Q4.0 14.85 4.0 14.55 4.0 14.4 3.8 14.2 L3.3 13.8 3.1 13.95 3.05 13.9 M-7.75 -35.6 L-7.75 -35.15 -7.9 -35.05 Q-8.1 -34.95 -8.2 -34.95 L-8.35 -35.0 -8.6 -35.2 Q-8.6 -35.3 -8.5 -35.5 -8.4 -35.7 -8.2 -35.75 -7.95 -35.7 -7.75 -35.6 M-7.65 -30.95 Q-7.55 -31.15 -7.25 -31.25 L-6.7 -31.3 -7.0 -31.0 Q-7.2 -30.85 -7.55 -30.85 L-7.65 -30.95 M-4.7 -34.0 Q-4.5 -34.15 -4.25 -34.05 -3.55 -33.85 -3.6 -32.95 -3.65 -32.65 -3.7 -32.55 -3.75 -32.4 -4.1 -32.4 -4.7 -32.4 -4.85 -33.0 -4.95 -33.25 -4.9 -33.45 -4.9 -33.85 -4.7 -34.0 M-3.2 -30.4 Q-2.9 -30.25 -2.8 -29.9 L-2.75 -29.75 -2.85 -29.65 Q-3.0 -29.55 -3.2 -29.55 L-3.7 -30.0 Q-3.9 -30.15 -3.9 -30.25 -3.9 -30.55 -3.85 -30.55 L-3.8 -30.45 -3.2 -30.4 M-4.5 -28.8 Q-4.45 -28.7 -4.45 -28.4 -4.45 -27.95 -4.65 -27.7 -4.85 -27.5 -5.1 -27.5 -5.6 -27.5 -5.75 -27.9 -5.8 -28.1 -5.8 -28.25 -5.8 -28.8 -5.35 -28.95 -5.1 -29.0 -4.55 -28.9 L-4.5 -28.8 M-1.05 -24.95 Q-1.05 -24.35 -1.3 -24.1 -1.55 -23.9 -1.95 -23.9 -2.6 -23.9 -2.75 -24.2 -2.8 -24.3 -2.8 -24.6 -2.8 -25.25 -2.55 -25.65 -2.3 -26.0 -1.95 -26.05 -1.6 -26.05 -1.35 -25.8 -1.05 -25.5 -1.05 -24.95 M-4.0 -26.75 Q-4.0 -26.45 -4.1 -26.3 L-4.45 -26.25 -4.55 -26.15 Q-4.6 -26.15 -4.6 -26.5 -4.6 -27.0 -4.55 -26.85 L-4.35 -26.9 Q-4.1 -26.85 -4.0 -26.75 M-4.5 -23.4 Q-4.7 -23.05 -5.1 -23.05 -5.75 -23.05 -6.0 -23.65 -6.1 -23.9 -6.1 -24.15 -6.1 -24.65 -5.85 -24.85 -5.6 -25.05 -5.25 -24.95 -4.9 -24.85 -4.6 -24.6 -4.35 -24.3 -4.35 -24.0 -4.35 -23.6 -4.5 -23.4 M-9.7 -24.05 Q-9.7 -24.25 -9.45 -24.5 -9.2 -24.7 -9.0 -24.7 -9.0 -24.25 -9.05 -23.9 -9.15 -23.9 -9.25 -23.85 L-9.45 -23.7 -9.65 -23.7 Q-9.7 -23.7 -9.7 -24.05 M-2.45 -19.85 L-2.45 -19.5 -2.55 -19.35 -2.65 -19.25 Q-2.75 -19.15 -3.1 -19.15 -3.55 -19.15 -3.8 -19.55 -3.9 -19.75 -3.9 -19.9 -3.9 -20.25 -3.65 -20.4 -3.45 -20.6 -3.15 -20.55 -2.9 -20.55 -2.7 -20.35 -2.45 -20.15 -2.45 -19.85 M-1.55 -17.85 Q-1.4 -17.65 -1.4 -17.6 L-1.5 -17.05 Q-1.6 -17.05 -1.75 -16.95 -1.95 -16.85 -2.05 -16.85 L-2.35 -16.9 Q-2.45 -16.95 -2.45 -17.25 L-2.2 -17.65 Q-1.9 -18.05 -1.8 -18.1 -1.65 -18.0 -1.55 -17.85 M-1.1 -18.45 L-1.1 -18.3 Q-1.1 -18.1 -1.2 -18.0 -1.3 -18.3 -1.3 -18.75 L-1.15 -18.75 Q-1.15 -18.65 -1.1 -18.45 M-3.15 -14.95 Q-2.8 -14.95 -2.55 -14.7 -2.3 -14.5 -2.3 -14.05 -2.3 -13.7 -2.7 -13.3 -3.1 -12.95 -3.25 -12.95 -3.75 -12.95 -3.95 -13.5 -4.05 -13.8 -4.05 -14.15 -4.05 -14.5 -3.75 -14.75 -3.5 -14.95 -3.15 -14.95 M-2.2 -12.8 L-2.0 -11.3 -2.0 -11.35 Q-1.85 -11.05 -1.8 -10.65 L-1.75 -9.95 Q-1.8 -9.85 -1.85 -9.8 L-1.85 -9.25 Q-1.85 -8.35 -2.95 -7.3 L-2.95 -7.25 -2.9 -7.1 Q-2.9 -6.95 -3.1 -6.7 -3.4 -6.4 -3.95 -6.1 -3.65 -5.7 -3.5 -5.2 -3.35 -4.8 -3.35 -4.65 -3.35 -4.1 -3.4 -3.8 L-2.6 -2.35 Q-1.2 0.1 -1.2 1.45 -1.2 2.05 -1.55 2.55 -2.1 3.4 -2.35 3.95 L-2.55 4.0 -2.7 3.55 Q-2.75 3.3 -2.75 2.95 -2.75 2.75 -2.4 2.45 -2.0 2.15 -2.0 2.0 -2.0 0.05 -3.4 -1.7 L-4.35 -2.9 -4.35 -2.95 -4.5 -2.9 Q-5.5 -2.9 -5.9 -4.5 -6.1 -5.25 -6.1 -6.1 -6.1 -6.7 -5.6 -7.2 -5.15 -7.65 -4.5 -7.8 L-3.7 -7.9 Q-3.2 -8.65 -2.95 -9.45 L-2.75 -10.0 -2.75 -10.1 Q-2.75 -10.4 -2.6 -10.7 -2.45 -11.6 -2.35 -12.8 L-2.2 -12.8 M-0.2 -9.5 L-0.25 -9.05 Q-0.25 -8.6 -0.1 -8.25 -0.1 -8.7 -0.2 -9.25 L-0.2 -9.5 M-1.65 -1.7 L-2.35 -1.95 Q-2.4 -2.05 -2.4 -2.55 -2.4 -2.95 -2.15 -3.2 -1.95 -3.45 -1.65 -3.45 -1.3 -3.45 -1.1 -3.2 -0.85 -2.95 -0.85 -2.55 -0.85 -1.95 -1.65 -1.7 M-3.75 1.8 L-3.95 1.85 -4.3 2.05 -4.8 1.6 Q-4.9 1.5 -4.9 1.3 -4.9 0.85 -4.65 0.65 -4.3 0.4 -3.6 1.15 L-3.75 1.8 M-6.65 6.65 Q-6.8 6.45 -6.85 6.2 -6.85 5.55 -6.35 5.45 -5.8 5.3 -5.0 6.15 -5.4 7.05 -5.95 7.05 -6.4 7.05 -6.65 6.65 M-4.55 13.7 Q-4.1 13.75 -3.75 14.0 -3.4 14.25 -3.4 14.65 -3.4 14.85 -3.75 15.1 -4.05 15.35 -4.4 15.35 -5.3 15.35 -5.6 14.8 -5.7 14.6 -5.7 14.4 L-5.7 14.3 Q-5.7 13.95 -5.35 13.75 -5.0 13.6 -4.55 13.7" fill="#bfdbff" fill-opacity="0.8" fill-rule="evenodd" stroke="none"/>
    <path d="M0.25 -23.2 L0.2 -23.3 Q0.15 -23.45 0.15 -23.55 0.3 -23.75 0.8 -23.45 0.7 -23.25 0.25 -23.2 M3.65 -11.8 L3.65 -11.1 3.6 -10.9 Q3.5 -10.9 3.4 -10.85 L3.1 -10.65 2.8 -10.75 Q2.65 -10.8 2.65 -11.15 2.65 -11.45 2.9 -11.6 3.15 -11.8 3.6 -11.85 L3.65 -11.8 M0.1 -13.25 Q-0.05 -13.15 -0.4 -13.15 -0.8 -13.15 -0.95 -13.55 -1.05 -13.8 -1.05 -14.05 L-1.05 -14.35 Q-1.0 -14.35 -0.95 -14.45 -0.3 -14.5 -0.05 -14.1 0.1 -13.95 0.25 -13.3 0.2 -13.25 0.1 -13.25 M0.65 -7.25 Q0.7 -7.15 0.7 -6.85 L0.5 -6.75 0.2 -6.65 0.1 -6.7 Q-0.05 -6.8 -0.15 -6.9 0.05 -7.15 0.15 -7.25 L0.65 -7.25 M2.85 -6.1 Q3.2 -5.7 3.2 -5.2 3.2 -4.35 2.35 -4.35 1.75 -4.35 1.25 -4.85 0.85 -5.3 0.85 -5.65 0.85 -6.1 1.2 -6.3 1.55 -6.5 2.05 -6.45 2.5 -6.4 2.85 -6.1 M0.7 -6.65 Q0.85 -6.5 0.95 -6.15 L0.85 -5.85 Q0.7 -5.7 0.3 -5.7 L0.25 -5.75 Q0.25 -5.85 0.25 -6.15 0.25 -6.5 0.35 -6.6 L0.7 -6.65 M0.6 -4.5 Q0.55 -4.35 0.4 -4.3 L0.15 -4.4 0.25 -4.85 0.45 -4.85 0.7 -4.7 0.6 -4.5 M2.35 -2.4 L3.15 -2.3 3.2 -1.85 3.15 -1.35 2.8 -1.3 2.45 -1.15 2.0 -1.55 Q1.85 -1.75 1.85 -1.9 L1.85 -2.2 Q1.9 -2.25 1.95 -2.35 L2.35 -2.4 M6.25 6.8 Q6.35 6.95 6.35 7.05 L6.25 7.6 6.0 7.65 5.75 7.75 5.45 7.6 Q5.35 7.5 5.35 7.15 5.35 6.95 5.65 6.75 5.9 6.5 5.95 6.55 6.1 6.6 6.25 6.8 M3.6 2.0 Q3.6 1.7 3.9 1.55 4.25 1.3 5.0 1.45 5.0 1.55 5.1 1.75 L5.2 2.0 5.05 2.55 4.85 2.65 4.4 2.7 Q3.85 2.7 3.7 2.4 3.6 2.25 3.6 2.0 M1.9 0.9 Q2.05 1.1 2.1 1.45 L2.25 2.0 Q2.2 2.15 1.95 2.2 L1.6 1.85 Q1.5 1.7 1.5 1.35 1.5 1.0 1.7 0.95 L1.9 0.9 M2.6 8.0 Q2.6 8.25 2.15 8.75 1.65 9.2 1.4 9.2 0.8 9.2 0.65 8.75 L0.65 8.25 Q0.65 7.7 0.95 7.4 1.2 7.15 1.65 7.2 2.0 7.2 2.3 7.45 2.6 7.7 2.6 8.0 M2.3 12.5 Q2.2 12.8 2.05 12.9 1.8 12.75 1.8 12.55 L1.9 12.15 2.15 12.15 2.3 12.5 M2.0 15.15 L2.1 15.4 2.0 15.9 1.75 16.0 1.7 16.0 1.85 15.95 Q2.25 15.9 2.5 16.05 2.8 16.25 2.8 16.65 3.4 16.35 3.8 16.6 4.45 17.0 4.45 18.65 4.45 19.6 3.65 20.45 2.75 21.3 1.5 21.3 0.7 21.3 0.5 20.65 0.45 20.45 0.4 20.2 L0.45 19.95 Q0.45 19.35 1.05 18.35 1.35 17.95 1.65 17.6 1.05 17.6 0.9 17.25 0.85 17.2 0.85 16.9 0.85 16.55 1.15 16.25 1.35 16.15 1.55 16.05 L1.4 16.1 0.95 15.7 Q0.75 15.5 0.75 15.35 0.75 15.05 1.0 14.9 1.35 14.65 1.95 14.85 1.95 14.9 2.0 15.15 M0.55 18.5 Q0.55 18.95 0.15 19.15 -0.05 19.25 -0.3 19.25 -0.95 19.25 -1.1 18.95 -1.15 18.85 -1.15 18.55 -1.15 18.15 -0.9 17.95 -0.65 17.75 -0.3 17.75 0.05 17.75 0.3 17.9 0.55 18.15 0.55 18.5 M-4.5 -33.1 L-4.05 -33.15 -3.95 -32.85 -4.05 -32.65 -4.3 -32.5 -4.5 -32.6 Q-4.7 -32.7 -4.8 -32.8 -4.75 -33.0 -4.5 -33.1 M-4.45 -28.4 Q-4.55 -28.05 -4.9 -27.8 L-5.2 -27.8 Q-5.3 -27.8 -5.3 -28.1 -5.3 -28.45 -5.25 -28.5 L-5.25 -28.45 -4.8 -28.5 Q-4.6 -28.5 -4.45 -28.4 M-1.1 -24.85 Q-1.1 -24.6 -1.3 -24.4 -1.55 -24.15 -1.95 -24.15 -2.55 -24.15 -2.7 -24.55 -2.8 -24.75 -2.75 -24.85 -2.75 -25.2 -2.5 -25.4 -2.25 -25.55 -1.95 -25.55 -1.6 -25.55 -1.35 -25.4 -1.1 -25.2 -1.1 -24.85 M-4.35 -23.65 Q-4.65 -23.25 -4.9 -23.05 -5.4 -23.5 -5.5 -23.8 -5.4 -23.9 -5.1 -24.0 -4.8 -24.1 -4.6 -24.1 -4.45 -23.9 -4.35 -23.65 M-0.3 -21.5 Q-0.45 -21.4 -0.75 -21.35 L-0.8 -21.45 Q-0.85 -21.6 -0.85 -21.75 L-0.65 -21.75 Q-0.45 -21.75 -0.2 -21.55 L-0.3 -21.5 M-3.25 -19.1 L-3.75 -19.45 Q-3.85 -19.55 -3.85 -19.65 -3.85 -20.0 -3.6 -20.05 L-3.15 -20.0 Q-3.15 -19.9 -3.0 -19.65 -2.9 -19.45 -2.9 -19.35 L-3.0 -19.25 -3.25 -19.1 M-2.55 -13.7 Q-2.7 -13.5 -3.1 -13.4 L-3.25 -13.5 Q-3.5 -13.55 -3.6 -13.65 -3.5 -13.9 -3.25 -14.0 L-2.75 -14.05 Q-2.6 -13.9 -2.55 -13.7 M-1.1 -8.85 Q-1.25 -9.0 -1.25 -9.05 -1.25 -9.2 -1.1 -9.35 -0.95 -9.5 -0.75 -9.55 -0.2 -9.6 0.0 -8.75 -0.15 -8.5 -0.4 -8.4 L-1.1 -8.85 M-4.05 -6.75 L-4.25 -6.55 Q-4.35 -6.45 -4.5 -6.4 L-4.8 -6.45 Q-4.85 -6.45 -4.85 -6.75 L-4.85 -7.1 -4.8 -7.05 -4.6 -7.1 -4.25 -7.05 Q-4.1 -6.9 -4.05 -6.75 M-4.8 -5.95 Q-4.55 -6.05 -4.45 -6.2 L-4.15 -5.55 Q-3.95 -5.1 -3.95 -4.8 -3.95 -3.75 -4.7 -3.75 -5.2 -3.75 -5.5 -4.4 -5.7 -4.8 -5.7 -5.05 -5.7 -5.65 -5.2 -5.8 L-4.8 -5.95 M-2.95 -3.05 Q-3.1 -2.85 -3.25 -2.75 L-3.45 -2.8 Q-3.7 -2.9 -3.8 -2.95 -3.8 -3.1 -3.6 -3.2 -3.4 -3.35 -3.2 -3.35 -2.95 -3.2 -2.95 -3.05 M-0.5 -2.55 L-0.6 -2.05 -1.1 -1.95 -1.35 -2.0 Q-1.6 -2.1 -1.7 -2.2 L-1.75 -2.5 -1.35 -2.85 Q-1.05 -3.0 -0.7 -2.9 -0.5 -2.7 -0.5 -2.55 M-1.5 1.7 L-1.75 1.5 Q-1.75 1.4 -1.65 1.2 -1.55 1.05 -1.4 0.95 -1.05 1.1 -0.95 1.35 -1.1 1.85 -1.3 1.9 -1.35 1.8 -1.5 1.7 M-4.0 0.8 L-3.8 1.0 -4.2 1.45 Q-4.6 1.8 -4.7 1.85 L-5.0 1.75 Q-5.1 1.7 -5.1 1.35 -5.1 1.1 -4.9 0.9 -4.7 0.75 -4.3 0.6 -4.15 0.65 -4.0 0.8 M-4.55 6.15 Q-4.55 6.5 -4.8 6.7 -5.05 6.9 -5.35 6.9 -5.9 6.9 -6.05 6.6 -6.1 6.5 -6.1 6.2 -6.1 5.8 -5.85 5.6 -5.65 5.4 -5.35 5.4 -5.0 5.4 -4.8 5.6 -4.55 5.8 -4.55 6.15 M-2.4 7.9 L-2.2 7.9 Q-2.1 8.05 -1.45 8.6 -0.95 9.0 -0.95 9.45 -0.95 9.8 -1.35 10.05 -1.7 10.2 -1.95 10.2 -2.6 10.2 -2.75 9.8 -2.8 9.7 -2.8 9.3 -2.8 9.05 -2.6 8.6 -2.4 8.15 -2.4 7.9 M-0.4 13.75 Q-0.15 13.9 -0.05 14.2 0.0 14.35 0.0 14.8 -0.05 14.8 -0.15 14.85 -0.3 14.95 -0.4 15.0 L-0.7 14.85 Q-0.8 14.75 -0.8 14.4 -0.8 14.05 -0.65 13.9 -0.6 13.8 -0.4 13.75 M-1.85 17.3 Q-1.85 17.15 -1.7 17.05 -1.55 16.95 -1.35 17.0 -1.45 17.3 -1.65 17.4 L-1.85 17.3 M-3.65 15.25 L-3.85 15.4 Q-4.0 15.5 -4.3 15.5 L-4.7 15.45 -4.95 15.25 Q-5.0 15.3 -5.0 14.8 -5.0 14.15 -4.6 14.0 -4.1 13.85 -3.6 14.8 L-3.65 15.25" fill="#ffffff" fill-rule="evenodd" stroke="none"/>
  </g>
</svg>
