<?xml version="1.0" encoding="UTF-8" standalone="no"?>
<svg xmlns:ffdec="https://www.free-decompiler.com/flash" xmlns:xlink="http://www.w3.org/1999/xlink" ffdec:objectType="shape" height="61.1px" width="92.95px" xmlns="http://www.w3.org/2000/svg">
  <g transform="matrix(1.0, 0.0, 0.0, 1.0, 45.55, 45.55)">
    <path d="M12.55 -45.15 Q12.4 -44.75 12.15 -44.65 12.1 -44.7 12.05 -44.75 11.9 -44.8 11.85 -44.9 L11.8 -45.15 Q11.8 -45.25 12.0 -45.4 L12.15 -45.55 Q12.45 -45.45 12.55 -45.15 M9.5 -43.9 Q9.2 -43.7 9.15 -43.7 L8.9 -43.8 Q8.85 -43.85 8.85 -44.15 8.85 -44.55 9.15 -44.6 9.5 -44.6 10.0 -44.3 9.8 -44.15 9.5 -43.9 M11.25 -40.6 L12.05 -40.55 12.35 -40.2 Q12.45 -40.05 12.45 -39.75 12.45 -39.5 12.35 -39.2 12.25 -38.8 12.0 -38.6 L11.3 -38.5 10.85 -38.45 Q10.45 -38.45 10.25 -38.75 10.15 -38.95 10.15 -39.15 10.15 -39.35 10.6 -39.95 11.0 -40.5 11.25 -40.6 M1.65 -31.7 Q1.7 -31.65 1.7 -31.4 1.7 -31.15 1.35 -30.75 0.95 -30.35 0.65 -30.3 L0.0 -30.45 -0.05 -30.6 Q-0.1 -30.65 -0.1 -30.95 -0.1 -31.15 0.4 -31.55 1.0 -32.0 1.6 -31.8 L1.65 -31.7 M2.2 -29.95 L2.2 -30.4 Q2.2 -31.85 2.55 -32.65 3.3 -32.7 3.5 -32.2 3.55 -32.05 3.55 -31.45 3.55 -30.95 3.25 -30.35 3.0 -29.75 2.7 -29.75 L2.3 -29.8 2.25 -29.85 2.2 -29.95 M5.7 -31.55 Q5.95 -31.5 6.15 -31.35 6.3 -31.15 6.3 -30.9 L6.3 -30.55 6.25 -30.5 6.0 -30.4 5.15 -30.4 Q5.1 -30.45 5.1 -30.7 5.1 -31.6 5.7 -31.55 M10.1 -31.3 Q10.3 -31.3 10.4 -31.2 10.4 -30.95 10.0 -30.85 L9.9 -31.0 Q9.85 -31.1 9.85 -31.3 L10.1 -31.3 M10.95 -30.3 Q11.05 -30.35 11.25 -30.4 L12.05 -30.35 12.4 -30.0 Q12.45 -29.85 12.45 -29.55 12.45 -29.25 12.25 -29.1 12.05 -28.95 12.0 -28.95 11.5 -28.95 11.1 -29.35 10.8 -29.7 10.8 -29.85 10.8 -30.15 10.95 -30.3 M11.85 -39.05 L11.85 -39.0 Q11.9 -39.0 11.95 -39.1 L11.85 -39.05 M16.05 -34.45 Q16.4 -34.5 16.7 -34.25 16.95 -34.0 16.95 -33.55 16.95 -33.2 16.9 -33.05 16.7 -32.7 15.9 -32.75 L15.55 -32.7 Q15.2 -32.7 15.2 -33.0 15.2 -33.3 15.25 -33.5 L15.25 -33.65 Q15.25 -34.05 15.45 -34.25 15.65 -34.45 15.95 -34.45 L16.05 -34.45 M12.55 -31.5 Q12.4 -31.2 12.15 -31.1 L11.95 -31.2 12.0 -31.65 12.2 -31.65 12.45 -31.6 12.55 -31.5 M19.05 -19.1 Q19.05 -19.35 19.3 -19.45 L19.5 -19.5 Q19.75 -19.4 19.9 -19.15 L19.85 -18.85 19.75 -18.65 Q19.65 -18.55 19.5 -18.5 19.2 -18.6 19.15 -18.65 19.05 -18.75 19.05 -19.1 M18.1 -16.0 Q18.45 -16.85 19.1 -17.3 20.2 -18.05 22.2 -17.8 L22.95 -17.1 Q23.45 -16.55 23.45 -16.25 23.45 -15.9 23.3 -15.55 23.05 -15.15 22.7 -15.15 L21.0 -15.45 Q19.3 -15.75 18.4 -15.75 L18.1 -16.0 M6.65 -22.25 Q6.35 -22.1 6.1 -22.1 5.45 -22.1 5.1 -22.4 4.85 -22.6 4.85 -22.8 4.85 -23.5 5.25 -24.05 5.6 -24.5 6.15 -24.75 6.65 -24.95 7.0 -24.85 7.4 -24.75 7.4 -24.3 7.4 -24.05 7.25 -23.55 7.05 -23.05 7.05 -22.8 7.05 -22.5 6.65 -22.25 M4.1 -25.15 Q4.1 -25.3 4.25 -25.55 4.45 -25.9 4.7 -26.1 4.95 -26.0 5.0 -25.95 5.1 -25.8 5.1 -25.5 L5.1 -25.1 5.05 -25.0 5.0 -24.95 Q4.95 -24.9 4.7 -24.9 4.4 -24.9 4.25 -24.95 L4.1 -25.15 M11.3 -7.7 L11.1 -7.5 11.3 -7.35 Q11.25 -7.5 11.3 -7.7 M1.2 -7.4 Q1.3 -6.7 1.3 -6.3 L0.9 -5.45 Q0.75 -5.2 0.7 -5.0 L1.5 -3.85 Q1.9 -3.3 1.9 -2.5 L2.5 -1.6 Q3.85 0.4 4.55 0.4 4.65 0.4 5.35 -0.4 L5.25 -0.45 Q5.2 -0.5 5.2 -0.75 L5.2 -0.9 Q5.1 -1.35 5.1 -1.8 5.1 -2.35 5.4 -3.2 5.7 -4.15 6.1 -4.75 7.1 -6.1 8.0 -4.6 8.5 -4.6 8.9 -4.85 L9.6 -5.75 Q9.85 -6.2 10.05 -6.95 10.4 -8.0 10.6 -8.3 11.0 -8.75 11.65 -8.35 11.85 -7.95 13.3 -6.05 14.2 -4.9 14.5 -4.05 L14.45 -5.9 Q14.45 -7.15 14.5 -7.85 15.1 -7.45 15.5 -6.65 L16.25 -5.15 Q17.35 -3.3 20.85 -2.75 L24.3 -2.95 Q26.4 -3.0 26.75 -3.4 26.55 -3.7 26.15 -4.0 L25.4 -4.45 Q24.55 -5.05 24.4 -6.0 L24.45 -6.05 Q24.55 -6.15 24.85 -6.15 25.05 -6.15 25.2 -5.9 L25.45 -5.45 Q26.05 -4.75 28.2 -4.75 29.9 -4.75 30.9 -5.65 31.2 -6.0 31.5 -6.4 L31.75 -6.85 31.75 -8.4 Q30.7 -9.0 30.4 -9.15 30.2 -9.3 30.1 -9.5 L29.95 -9.5 Q29.05 -9.6 28.7 -9.8 28.55 -9.95 28.55 -10.05 28.55 -10.75 29.05 -11.0 29.2 -11.1 29.35 -11.15 L29.4 -11.25 Q29.75 -11.75 30.25 -11.75 31.05 -11.75 31.75 -11.35 32.45 -10.95 33.15 -10.95 33.6 -10.95 34.0 -11.3 34.65 -11.85 35.05 -12.05 L36.15 -12.05 38.15 -10.3 Q39.75 -8.95 39.9 -8.95 41.55 -8.95 42.15 -10.85 42.4 -11.75 42.4 -13.1 42.4 -13.7 42.85 -13.95 43.3 -14.2 43.3 -14.75 L43.3 -14.85 42.4 -16.45 Q42.2 -16.85 41.75 -17.1 L41.5 -17.1 Q41.1 -17.0 40.9 -17.0 40.55 -17.0 40.15 -17.35 40.05 -17.4 39.75 -17.95 39.4 -18.5 39.1 -18.85 38.75 -19.25 38.3 -19.5 37.1 -19.6 35.65 -19.55 L34.8 -19.6 Q34.7 -19.65 34.65 -19.7 34.1 -19.45 33.7 -19.05 L33.35 -18.7 33.25 -18.8 Q33.6 -19.4 34.55 -19.95 L34.55 -20.05 Q34.55 -20.65 34.8 -20.85 35.05 -21.0 35.75 -20.95 L37.2 -20.8 39.2 -20.95 Q40.3 -20.9 40.65 -20.95 L41.85 -20.9 Q42.5 -20.75 42.8 -20.35 L43.25 -18.95 Q43.6 -18.0 44.1 -17.9 45.75 -17.6 46.05 -17.45 46.25 -17.35 46.55 -16.9 L46.7 -16.75 Q47.0 -16.65 47.2 -16.2 47.4 -15.8 47.4 -15.55 47.4 -14.9 46.65 -13.7 L46.15 -12.45 Q45.0 -9.55 44.95 -8.9 44.9 -8.4 44.15 -7.45 43.35 -6.45 42.25 -5.5 39.3 -3.05 36.7 -3.05 36.35 -3.05 36.0 -3.25 L35.8 -2.9 Q35.65 -2.65 35.45 -2.65 35.4 -2.65 33.95 -3.2 L33.75 -2.85 Q34.8 -2.1 35.6 -1.25 36.4 -0.45 36.85 0.35 37.35 0.1 37.35 1.65 L37.4 2.15 Q37.4 2.85 37.05 3.8 36.8 4.45 36.25 5.5 L36.1 5.5 35.85 6.05 Q35.25 7.2 34.6 8.0 34.05 8.8 33.6 9.3 34.35 8.95 35.0 7.85 34.45 9.15 34.15 9.55 33.7 10.15 33.0 10.3 L30.85 10.45 Q27.8 10.45 26.1 9.4 L25.8 9.15 Q25.25 8.8 24.9 8.3 L24.8 8.15 Q24.65 9.0 23.95 9.7 22.9 10.65 21.35 10.65 L20.65 10.6 20.25 10.6 19.65 10.1 19.65 10.35 Q19.65 11.05 18.75 11.9 17.6 12.95 15.85 12.95 15.1 12.95 15.05 12.7 15.2 12.6 15.35 12.55 L15.85 12.5 15.45 12.2 14.6 13.15 Q14.2 13.55 13.5 13.7 L13.4 13.6 Q15.4 11.85 16.85 10.25 L16.95 10.3 17.05 9.75 Q17.15 9.35 17.15 9.05 17.15 8.6 16.85 7.85 16.5 7.9 15.05 8.5 L13.65 9.05 12.1 8.9 Q10.55 8.65 10.15 8.05 9.1 8.85 9.0 9.2 8.95 9.5 9.05 10.2 9.05 10.5 8.4 10.95 7.75 11.4 7.45 11.4 6.95 11.4 6.7 12.1 6.5 12.55 6.5 12.95 6.5 13.45 6.75 13.8 7.25 14.55 7.45 14.95 L7.3 15.4 6.75 15.55 Q3.45 15.0 3.0 12.95 2.95 12.5 2.95 11.2 2.95 10.25 2.8 9.75 L2.7 9.75 2.4 9.5 Q2.2 9.3 1.9 9.3 L0.8 9.85 Q-0.3 10.35 -0.7 10.35 -1.35 10.35 -1.65 9.6 L-1.9 9.1 Q-2.05 8.85 -2.3 8.85 -3.65 8.85 -4.4 9.85 -4.75 10.35 -4.85 10.9 -4.85 11.3 -4.7 11.85 -4.45 12.75 -3.85 13.05 L-3.85 13.5 -4.0 13.45 Q-4.05 13.4 -4.35 13.4 -4.5 13.4 -4.6 13.45 L-4.8 13.65 Q-5.0 13.9 -5.8 13.9 -6.8 13.9 -7.3 13.2 -7.45 12.95 -7.55 12.7 L-7.6 12.45 -7.6 12.3 -7.8 11.7 Q-8.15 12.45 -9.05 13.05 -10.45 14.0 -12.45 14.0 -12.95 14.0 -13.1 13.85 L-13.0 13.7 Q-11.7 13.8 -10.55 12.6 -10.15 12.2 -9.85 11.65 -9.65 11.25 -9.65 11.0 -9.65 10.85 -10.5 9.6 -11.35 8.4 -11.45 8.35 -11.75 8.35 -13.6 8.8 -15.4 9.25 -15.75 9.25 -16.55 9.25 -17.15 8.8 -17.55 8.5 -18.0 7.85 -18.5 7.05 -18.7 6.9 -19.1 6.45 -19.65 6.45 -20.15 6.45 -20.65 7.9 -21.1 9.1 -21.1 9.4 -21.1 9.8 -20.35 11.35 -19.6 12.85 -19.25 13.25 L-19.25 13.65 -19.55 13.7 Q-21.1 13.4 -22.05 12.25 -22.75 11.4 -22.75 10.6 -22.75 9.1 -22.3 7.8 L-22.1 7.25 -23.05 7.65 -23.4 7.8 -23.55 8.0 Q-24.05 8.6 -24.9 9.1 -26.9 10.3 -29.35 10.3 L-31.25 10.2 Q-31.35 10.15 -31.45 9.95 -31.55 9.75 -31.75 9.55 L-31.8 9.55 Q-33.2 9.85 -34.85 7.7 -35.45 6.9 -35.9 6.0 -36.3 5.15 -36.3 4.8 -36.3 3.15 -35.05 1.05 -34.5 0.15 -33.9 -0.6 -33.6 -1.05 -33.1 -1.95 L-32.9 -2.25 -33.0 -2.35 Q-33.65 -2.9 -33.85 -2.9 -34.4 -2.9 -35.75 -2.15 -37.35 -1.2 -37.85 -1.05 L-40.85 -1.05 Q-41.2 -1.15 -41.9 -1.95 -42.55 -2.6 -43.1 -2.55 -44.15 -2.45 -44.9 -3.1 -45.5 -3.65 -45.5 -4.15 -45.5 -4.95 -44.8 -6.8 -44.15 -8.65 -44.15 -8.85 L-44.15 -9.15 -44.2 -9.2 -44.95 -9.4 Q-45.4 -9.65 -45.5 -10.0 L-45.55 -10.55 Q-45.55 -10.8 -44.5 -12.5 -43.45 -14.3 -43.25 -15.25 -43.15 -15.7 -42.6 -16.45 -41.95 -17.2 -41.25 -17.5 -40.75 -17.75 -40.05 -17.6 -39.5 -17.8 -39.0 -17.2 L-38.4 -16.95 -38.05 -16.8 -37.7 -16.85 -37.35 -16.75 -35.85 -17.35 Q-34.55 -17.95 -33.95 -18.45 -33.7 -18.75 -33.45 -19.1 -33.15 -19.85 -32.8 -20.45 L-32.7 -20.7 -32.7 -20.75 Q-32.7 -21.4 -32.3 -22.0 L-32.15 -22.6 Q-31.95 -23.55 -30.8 -23.85 -29.45 -24.2 -27.65 -23.3 -26.95 -22.8 -26.55 -21.9 -26.05 -21.35 -26.05 -21.0 L-26.05 -20.7 -25.95 -20.45 -26.0 -20.35 -25.75 -20.2 -25.75 -20.15 -26.1 -20.15 Q-26.4 -20.15 -27.15 -20.8 L-27.7 -21.1 Q-28.5 -21.6 -29.1 -21.7 L-30.25 -21.7 Q-30.45 -21.5 -31.05 -21.15 L-31.3 -20.9 -31.3 -20.7 -31.6 -19.7 Q-31.9 -18.7 -31.9 -18.4 L-31.9 -18.25 -31.6 -17.5 Q-31.25 -16.5 -31.25 -16.2 -31.25 -15.85 -31.5 -15.55 L-31.85 -15.25 Q-32.4 -15.3 -33.15 -15.25 L-34.1 -15.25 Q-34.55 -15.25 -34.8 -15.3 L-34.9 -15.45 -35.65 -15.4 Q-36.75 -15.4 -37.25 -15.55 L-37.5 -15.4 Q-37.95 -15.15 -38.25 -14.9 -38.3 -14.7 -38.3 -14.35 -38.3 -14.05 -39.35 -12.9 -40.45 -11.65 -40.6 -11.3 -40.75 -10.7 -40.8 -9.65 L-40.8 -8.45 Q-40.6 -7.85 -39.95 -6.6 L-39.55 -5.85 Q-39.05 -5.45 -38.35 -5.15 L-37.9 -5.0 -37.7 -5.0 Q-36.9 -5.0 -36.35 -4.55 -35.5 -4.4 -34.55 -4.4 L-34.15 -4.35 -34.1 -4.3 -34.1 -4.25 Q-33.6 -4.55 -33.45 -4.55 -33.0 -4.55 -32.4 -3.65 L-32.2 -3.4 -31.95 -3.75 Q-31.45 -4.45 -31.0 -4.7 -31.15 -4.85 -31.2 -5.05 -31.3 -5.3 -31.25 -5.6 -31.4 -5.9 -31.4 -6.35 -31.4 -7.25 -30.3 -7.35 -29.9 -7.4 -29.55 -7.25 -29.2 -7.1 -29.2 -6.85 -29.2 -6.3 -29.35 -5.7 -29.35 -5.35 -29.45 -5.1 L-29.5 -4.9 Q-29.25 -4.8 -29.0 -4.65 L-28.95 -4.45 Q-28.95 -4.35 -29.15 -4.25 -29.3 -4.2 -29.3 -3.9 -29.3 -3.45 -28.3 -2.95 -27.25 -2.45 -26.15 -2.45 L-25.5 -2.45 -25.15 -2.5 Q-24.6 -3.05 -22.7 -4.15 -20.85 -5.2 -20.5 -5.2 -19.4 -5.2 -19.3 -4.05 -19.25 -3.7 -19.25 -3.15 -19.3 -2.6 -19.3 -2.5 -18.5 -2.4 -16.9 -2.9 -15.45 -3.4 -15.2 -3.65 -14.85 -3.95 -14.55 -4.7 -14.3 -5.2 -13.95 -5.2 -13.45 -5.2 -13.25 -4.6 L-13.0 -3.35 Q-12.85 -2.5 -12.45 -2.05 -11.95 -1.5 -10.95 -1.5 -10.7 -1.5 -10.45 -1.6 -10.05 -1.8 -9.7 -1.85 -9.45 -2.25 -8.65 -3.1 -7.95 -3.85 -7.85 -3.85 -7.75 -3.85 -7.3 -3.25 L-6.3 -1.95 Q-4.65 -0.1 -3.3 -0.1 -2.5 -0.1 -1.65 -1.7 -1.95 -2.05 -1.95 -2.4 -1.95 -3.0 -1.2 -4.15 L-1.05 -4.35 -0.75 -4.95 Q0.3 -6.9 0.75 -8.5 1.0 -8.35 1.2 -7.4 M1.1 -10.7 Q0.85 -10.4 0.75 -10.35 0.5 -10.6 0.4 -10.9 0.3 -11.1 0.3 -11.5 0.3 -11.95 0.35 -11.95 1.35 -12.3 1.35 -11.1 1.35 -11.0 1.1 -10.7 M7.9 -3.6 Q7.7 -3.45 7.55 -3.25 7.45 -3.1 7.3 -2.8 L7.9 -3.6 M14.85 -6.95 Q14.85 -6.5 15.05 -6.15 15.1 -6.3 15.0 -6.6 14.95 -6.85 14.85 -7.05 L14.85 -6.95 M40.1 -20.65 L38.7 -20.65 39.95 -20.6 40.1 -20.65 M25.05 -15.3 Q25.1 -15.25 25.1 -15.0 24.65 -13.85 24.35 -13.65 L23.5 -13.8 Q23.6 -14.75 23.9 -15.6 24.1 -15.45 24.0 -15.35 L25.0 -15.35 25.05 -15.3 M33.8 -18.95 Q34.25 -19.25 34.7 -19.5 34.25 -19.2 33.9 -18.85 L33.8 -18.95 M27.75 -0.6 Q27.75 -0.15 28.85 0.7 30.0 1.55 30.0 1.95 30.0 2.6 29.4 3.6 28.75 4.6 28.75 4.7 28.75 5.75 29.8 6.15 30.4 6.4 31.55 6.4 33.45 6.4 34.6 5.05 L34.7 4.85 Q34.95 4.2 35.4 2.8 35.5 2.4 35.8 1.8 L35.95 1.5 35.95 1.3 Q36.0 0.6 35.95 0.15 L35.35 -0.9 Q34.6 -2.0 33.7 -2.75 L33.7 -2.7 33.35 -2.15 Q33.1 -2.25 32.9 -2.8 L32.85 -3.1 32.8 -3.1 32.25 -3.4 Q30.0 -3.4 28.65 -2.15 28.2 -1.7 27.95 -1.2 27.75 -0.8 27.75 -0.6 M36.3 0.9 L36.25 0.8 36.25 0.95 36.3 0.9 M29.25 2.15 Q29.25 2.0 28.95 1.75 L29.25 2.15 M-27.25 -22.65 L-27.05 -22.45 Q-27.6 -23.1 -28.25 -23.4 -27.75 -23.1 -27.25 -22.65 M-30.4 -23.6 L-30.8 -23.55 -30.95 -23.25 Q-30.65 -23.45 -30.4 -23.6 M-33.35 -16.0 L-33.35 -16.0 M-23.4 -18.7 Q-23.4 -19.0 -23.2 -19.35 -23.0 -19.65 -22.7 -19.75 L-22.2 -19.75 Q-21.95 -19.55 -21.95 -19.05 -21.95 -18.7 -22.15 -18.3 -22.35 -17.9 -22.65 -17.9 -23.1 -17.9 -23.3 -18.25 -23.4 -18.5 -23.4 -18.7 M-38.55 -16.7 L-38.7 -16.8 -38.65 -16.7 -38.55 -16.7 M-45.15 -10.65 Q-45.15 -10.35 -45.05 -10.2 L-44.8 -9.9 -44.75 -9.9 Q-45.1 -10.2 -45.15 -10.75 L-45.15 -10.65 M-40.6 -2.0 L-40.35 -2.0 Q-40.55 -2.1 -40.75 -2.25 L-40.6 -2.0 M-5.25 -21.25 Q-5.4 -21.1 -5.8 -21.1 -6.25 -21.1 -6.4 -21.15 L-6.45 -21.2 -6.45 -21.6 Q-6.45 -22.5 -5.8 -22.6 -5.5 -22.65 -5.3 -22.45 -5.1 -22.25 -5.1 -21.9 -5.1 -21.45 -5.25 -21.25 M-10.2 -23.45 L-10.1 -23.25 Q-10.15 -23.05 -10.35 -22.95 L-10.7 -22.8 -11.0 -22.9 Q-11.1 -22.95 -11.1 -23.25 -11.1 -23.55 -10.85 -23.6 L-10.25 -23.6 -10.2 -23.45 M-22.6 -21.3 Q-22.65 -21.05 -22.65 -20.8 L-22.65 -20.75 -22.25 -20.95 Q-22.5 -21.05 -22.6 -21.25 L-22.6 -21.3 M-21.8 -23.2 Q-21.25 -23.45 -20.4 -23.3 L-20.15 -23.25 Q-19.5 -23.2 -19.25 -23.1 -19.0 -22.9 -18.8 -22.85 -18.55 -22.7 -18.0 -22.7 -17.3 -22.7 -16.85 -21.9 -17.55 -21.05 -19.9 -20.65 L-21.55 -20.35 Q-22.4 -20.2 -22.65 -20.05 L-23.05 -20.1 -23.05 -21.65 -22.6 -22.35 -22.5 -22.45 Q-22.35 -22.9 -21.95 -23.1 L-21.85 -23.15 -21.8 -23.2 M-12.65 -20.35 L-12.65 -19.95 -12.7 -19.75 -12.95 -19.65 -13.2 -19.6 -13.85 -19.75 -13.9 -19.75 -13.9 -20.15 Q-13.9 -20.3 -13.75 -20.5 -13.5 -20.85 -13.1 -21.1 -12.75 -20.95 -12.65 -20.7 -12.65 -20.6 -12.65 -20.35 M-5.2 13.25 L-5.05 13.15 -5.15 12.95 Q-5.15 13.1 -5.2 13.25 M-32.9 1.75 L-33.0 1.65 -33.0 1.75 -32.9 1.75 M-34.0 5.05 Q-34.0 5.65 -33.95 5.9 -33.85 6.25 -33.6 6.5 -33.15 6.85 -30.8 7.7 L-30.4 7.6 -30.45 7.5 Q-30.5 7.4 -30.5 7.1 -30.5 6.85 -30.45 6.85 -30.4 6.9 -30.3 6.85 L-30.2 7.1 Q-30.1 7.25 -29.8 7.25 -29.5 7.25 -29.35 7.15 L-29.15 6.95 Q-29.6 6.1 -31.0 4.75 -32.6 3.15 -33.0 2.6 -33.35 2.8 -33.7 3.75 -34.0 4.6 -34.0 5.05 M-35.45 4.0 Q-35.15 3.45 -35.2 2.5 L-35.45 4.1 -35.45 4.0" fill="#59a5ff" fill-opacity="0.5019608" fill-rule="evenodd" stroke="none"/>
    <path d="M10.6 -38.2 Q10.55 -38.3 10.55 -38.6 10.55 -39.4 11.45 -39.3 11.8 -39.25 12.05 -39.05 12.3 -38.85 12.3 -38.65 12.3 -38.3 11.95 -38.05 11.65 -37.9 11.35 -37.9 10.75 -37.9 10.6 -38.2 M2.2 -30.5 Q2.2 -30.85 2.35 -31.05 2.65 -31.45 3.4 -31.15 L3.45 -31.05 Q3.5 -31.0 3.5 -30.75 3.5 -30.45 3.35 -30.2 3.2 -29.75 2.8 -29.75 2.4 -29.75 2.25 -30.1 2.2 -30.2 2.2 -30.5 M0.95 -30.8 Q0.95 -30.65 0.75 -30.5 0.6 -30.35 0.4 -30.35 L0.35 -30.35 Q0.3 -30.35 0.3 -30.65 L0.35 -30.9 Q0.55 -31.0 0.85 -30.9 L0.95 -30.8 M15.7 -33.05 Q15.7 -33.35 16.15 -33.4 L16.75 -33.45 Q16.75 -33.4 16.8 -33.25 L16.85 -32.85 16.8 -32.55 Q16.75 -32.5 16.75 -32.45 L16.65 -32.35 Q16.6 -32.3 16.3 -32.3 15.95 -32.3 15.8 -32.65 15.7 -32.85 15.7 -33.05 M11.9 -28.9 L11.8 -28.9 Q11.65 -28.95 11.6 -29.0 L11.6 -29.3 Q12.05 -29.3 12.1 -29.15 12.1 -29.0 11.9 -28.9 M22.6 -15.7 Q22.35 -15.4 22.1 -15.4 21.1 -15.4 20.5 -15.9 19.95 -16.3 19.95 -16.8 19.95 -17.3 20.4 -17.45 20.8 -17.6 21.4 -17.45 21.95 -17.35 22.35 -17.0 22.8 -16.7 22.8 -16.3 22.8 -16.0 22.6 -15.7 M6.8 -22.0 Q6.65 -21.75 6.15 -21.6 L5.5 -21.85 5.5 -21.95 Q5.5 -22.1 5.5 -22.4 5.5 -22.75 5.7 -23.0 5.9 -23.2 6.2 -23.2 6.45 -23.2 6.65 -23.0 6.85 -22.75 6.85 -22.4 6.85 -22.1 6.8 -22.0 M10.7 -2.35 Q10.7 -3.05 11.1 -3.55 11.4 -4.0 11.9 -4.15 12.35 -4.3 12.7 -4.0 13.05 -3.7 13.05 -3.05 13.05 -2.5 12.85 -2.05 12.5 -1.35 11.8 -1.35 11.05 -1.35 10.8 -1.85 L10.7 -2.35 M15.85 -2.4 Q16.2 -2.6 16.7 -2.25 L17.8 -1.35 Q18.55 -0.7 19.15 -0.4 L23.8 0.15 25.0 0.3 25.25 0.25 Q25.15 0.1 25.15 0.0 25.15 -1.1 25.85 -1.9 L26.6 -2.7 Q27.1 -3.25 27.5 -3.85 L27.75 -3.85 28.15 -3.8 Q29.05 -4.3 30.25 -4.3 L30.9 -4.4 31.05 -4.4 Q31.4 -4.95 31.9 -5.9 32.6 -7.05 33.7 -7.35 33.45 -7.5 33.25 -7.85 33.05 -8.2 33.05 -8.45 33.05 -8.75 33.15 -8.85 L33.25 -9.05 Q34.6 -8.5 34.95 -8.15 35.15 -7.9 35.15 -7.1 L35.15 -7.05 Q35.8 -7.05 36.9 -6.25 37.9 -5.45 38.35 -4.75 40.1 -5.5 41.35 -6.7 L42.15 -7.9 Q42.75 -8.85 42.95 -9.3 43.15 -9.75 43.2 -10.75 43.25 -11.65 43.4 -11.95 L44.4 -13.4 Q45.0 -14.2 45.05 -14.6 L45.05 -14.65 Q45.05 -14.8 44.85 -15.05 L44.35 -15.6 43.95 -16.05 43.35 -16.6 Q42.1 -17.85 41.9 -18.1 41.5 -18.7 41.5 -19.7 41.5 -19.9 40.95 -19.95 40.0 -20.1 39.3 -20.35 L39.15 -20.55 39.1 -20.5 39.0 -20.8 40.45 -20.85 Q40.55 -21.55 41.05 -21.55 41.5 -21.55 42.15 -20.95 42.75 -20.4 43.2 -19.65 43.65 -18.85 43.6 -18.3 45.9 -18.0 46.5 -17.2 46.75 -16.9 46.75 -16.4 L46.75 -15.95 Q47.0 -15.85 47.0 -15.4 47.0 -15.3 46.75 -14.75 46.7 -14.4 46.55 -14.15 L46.55 -14.1 46.4 -14.05 Q46.3 -13.0 45.95 -12.3 45.75 -12.0 45.45 -11.65 45.5 -11.45 45.5 -11.25 45.5 -10.15 45.15 -9.1 44.7 -8.0 43.8 -6.85 43.5 -6.55 42.55 -6.1 41.6 -5.7 41.3 -5.15 41.1 -4.65 40.5 -4.2 39.35 -3.2 37.4 -3.2 35.6 -3.2 35.05 -3.55 L34.75 -3.75 Q34.55 -3.85 34.25 -3.85 34.05 -3.85 33.7 -3.65 33.35 -3.4 33.1 -3.4 32.5 -3.4 32.3 -3.75 L32.3 -3.85 Q32.05 -3.65 31.85 -3.65 31.6 -3.65 31.35 -3.75 L28.9 -2.1 Q27.35 -1.0 27.2 -0.15 27.65 -0.8 28.35 -0.45 29.0 -0.15 29.6 0.7 30.15 1.5 30.15 1.95 30.15 3.35 28.95 4.8 28.0 6.0 27.0 6.5 L24.15 8.35 Q21.9 9.8 20.9 9.8 20.65 9.8 20.25 9.6 L19.65 9.3 Q19.55 9.8 18.7 10.45 17.9 11.0 17.5 11.0 16.75 11.0 16.75 10.3 L16.9 9.6 Q16.9 9.35 16.75 8.8 16.55 8.3 16.6 8.1 L16.55 8.0 Q16.5 7.95 16.35 7.9 15.6 8.2 14.65 8.5 13.05 8.95 12.05 8.95 11.3 8.95 10.6 8.45 10.05 8.0 10.0 8.0 9.05 8.0 8.35 8.95 L7.75 9.75 Q7.45 10.15 7.1 10.35 6.8 10.55 6.05 10.65 5.5 10.85 5.6 11.5 5.65 11.95 5.6 12.2 5.45 12.55 5.05 12.55 4.15 12.55 3.85 12.05 3.8 12.0 3.6 10.95 3.4 10.25 2.85 9.9 2.05 9.4 0.3 9.4 -1.25 9.4 -2.1 8.65 -2.4 8.4 -2.6 8.05 L-2.8 7.75 Q-2.95 7.85 -4.25 8.4 -5.2 8.85 -5.3 9.2 -5.35 9.4 -5.2 10.1 -5.15 10.75 -6.0 11.1 L-7.1 11.1 Q-8.45 10.2 -9.1 9.4 L-9.7 8.4 Q-9.9 8.0 -10.4 7.85 L-12.85 7.75 -13.1 7.7 -13.35 7.95 Q-14.1 8.6 -14.6 8.6 -16.75 8.6 -18.1 7.2 L-18.95 6.2 Q-19.4 5.75 -19.8 5.75 -20.0 5.75 -20.2 5.95 -20.1 6.1 -20.1 6.25 -20.1 6.05 -20.65 7.8 -21.2 9.55 -21.2 9.8 -21.2 10.2 -21.35 10.4 -21.55 10.8 -22.1 11.0 L-22.75 10.75 -22.9 9.85 Q-23.0 9.25 -23.0 9.0 -23.0 8.55 -22.8 8.1 L-22.45 7.25 -22.45 7.1 -24.65 8.55 Q-25.4 9.05 -25.9 9.3 L-26.05 9.4 -26.25 9.5 -26.3 9.55 -26.4 9.6 Q-27.5 10.05 -28.2 10.05 -28.8 10.05 -28.95 9.7 -29.0 9.6 -29.0 9.25 -29.0 8.45 -27.95 8.25 L-27.35 8.15 Q-27.15 8.0 -26.75 8.0 L-26.7 8.0 Q-25.95 7.85 -25.4 7.7 L-25.35 7.4 -26.2 7.65 Q-26.9 7.85 -27.2 7.85 -30.1 7.85 -32.45 4.75 -33.1 3.8 -33.65 2.75 -34.0 3.65 -34.0 4.4 -34.0 5.9 -33.7 6.6 -33.2 7.7 -31.6 9.0 -34.05 8.9 -35.1 7.5 -35.95 6.45 -35.95 4.8 -35.95 3.1 -34.75 1.4 L-34.25 0.8 Q-34.25 0.05 -34.05 -1.0 -34.2 -1.3 -34.25 -1.65 -34.25 -3.1 -33.6 -2.6 L-33.55 -2.65 -33.4 -2.45 Q-32.7 -1.65 -32.5 -1.65 -32.05 -1.65 -31.55 -1.95 -31.0 -2.2 -30.75 -2.25 L-29.6 -2.25 Q-28.85 -1.6 -28.35 -0.8 -27.95 0.1 -27.7 0.45 -27.25 1.1 -26.5 1.35 -25.6 1.65 -23.8 1.65 L-23.2 1.65 -23.0 1.6 Q-22.3 1.2 -22.3 0.45 L-22.35 -0.2 Q-22.4 -0.6 -22.35 -0.95 L-22.4 -1.0 Q-22.4 -1.05 -22.1 -1.05 L-21.75 -1.0 -21.1 -0.9 -20.65 0.4 Q-20.25 1.45 -19.55 1.45 -18.6 1.45 -17.65 1.0 L-16.05 0.15 -15.2 -0.7 Q-14.45 -1.5 -14.15 -1.5 -13.95 -1.5 -13.75 -0.8 L-13.4 0.8 Q-13.05 2.25 -12.65 3.05 L-12.3 3.05 Q-11.65 3.05 -11.2 3.5 -10.9 3.95 -10.85 3.95 L-10.35 3.9 -9.35 3.75 Q-8.9 3.3 -8.55 2.5 L-8.05 1.2 Q-7.75 0.55 -7.45 0.4 -7.1 0.2 -6.55 0.65 -5.95 1.25 -5.85 1.35 -5.65 1.6 -5.15 2.55 -4.95 2.95 -4.85 3.5 -4.75 3.95 -4.75 4.45 L-4.65 4.5 -4.2 4.6 -3.6 4.35 -3.0 4.0 -2.85 4.05 Q-2.35 3.45 -1.7 2.4 L-0.8 0.85 Q-0.3 0.15 -0.1 0.15 0.55 0.15 1.15 0.95 1.55 1.45 2.1 2.7 2.8 4.1 3.0 4.45 3.5 5.25 3.9 5.25 4.2 5.25 6.45 2.35 8.7 -0.55 8.9 -0.55 9.85 -0.55 10.3 0.0 10.6 0.35 10.85 1.25 11.1 2.15 11.4 2.45 11.85 3.05 12.9 3.05 13.45 3.05 14.2 1.3 14.5 0.6 15.1 -1.2 15.4 -2.2 15.85 -2.4 M34.55 -2.2 Q36.1 -1.5 36.85 0.1 37.45 1.3 37.45 2.6 37.45 3.15 36.85 4.4 36.2 5.7 35.3 6.95 32.85 10.25 30.9 10.25 L30.55 10.25 Q30.35 10.35 30.1 10.35 28.45 10.35 27.75 9.2 L27.5 8.7 27.45 8.7 27.25 8.5 Q27.1 8.3 27.1 8.0 27.1 7.4 27.75 7.1 28.15 6.7 28.75 6.7 L28.75 6.8 Q30.1 6.6 33.3 6.75 33.95 4.95 35.0 3.65 35.35 3.2 35.5 2.85 35.7 2.4 35.7 1.6 35.7 1.35 35.9 1.1 36.15 0.85 36.15 0.6 36.15 0.2 35.4 -0.7 34.6 -1.8 34.5 -2.05 L34.55 -2.2 M39.3 -7.65 Q38.9 -6.95 37.9 -6.95 36.3 -6.95 35.55 -8.45 35.3 -8.95 35.2 -9.5 35.1 -9.9 35.1 -10.05 35.1 -10.95 35.8 -11.15 36.4 -11.3 37.3 -10.9 38.15 -10.5 38.8 -9.85 39.5 -9.15 39.5 -8.6 39.5 -8.05 39.3 -7.65 M22.8 1.75 L23.25 1.75 22.75 1.7 22.8 1.75 M-27.35 -21.25 Q-27.5 -21.15 -27.75 -21.15 -28.0 -21.15 -28.45 -21.45 -28.9 -21.7 -29.35 -21.7 -30.65 -21.7 -31.45 -21.1 -32.0 -20.7 -32.5 -19.7 L-32.7 -19.3 -32.55 -19.95 Q-32.3 -20.7 -32.25 -21.25 -32.05 -22.85 -31.2 -23.45 -30.5 -23.9 -29.45 -23.65 -28.55 -23.4 -27.8 -22.75 -27.05 -22.15 -27.05 -21.75 -27.05 -21.45 -27.35 -21.25 M-32.8 -17.05 Q-33.15 -16.6 -33.15 -16.5 -33.15 -16.2 -32.95 -16.2 L-32.7 -16.25 -34.3 -15.95 Q-35.0 -15.95 -35.15 -16.35 -35.2 -16.45 -35.2 -16.8 -35.2 -17.0 -34.75 -17.4 -34.35 -17.8 -33.85 -18.05 -32.45 -18.75 -32.45 -17.6 -32.45 -17.5 -32.8 -17.05 M-23.45 -21.6 Q-23.45 -22.25 -22.85 -22.65 -22.3 -23.0 -21.45 -23.05 -20.7 -23.1 -20.1 -22.9 -19.45 -22.7 -19.45 -22.35 -19.45 -21.75 -20.6 -21.15 -21.55 -20.65 -22.1 -20.65 -22.8 -20.65 -23.2 -21.05 -23.45 -21.3 -23.45 -21.6 M-40.65 -16.9 Q-40.05 -17.0 -38.65 -16.7 L-38.3 -16.6 Q-38.2 -16.5 -38.2 -16.2 L-40.5 -13.4 Q-42.85 -10.5 -42.85 -9.9 -42.85 -9.5 -42.7 -8.8 -42.1 -8.65 -41.55 -7.35 -41.1 -6.8 -40.6 -5.9 -40.05 -4.9 -39.8 -4.55 -38.8 -3.2 -36.75 -3.1 L-35.95 -2.85 -35.85 -2.55 Q-36.0 -2.35 -36.7 -2.0 -37.55 -1.55 -38.15 -1.55 L-39.05 -1.65 -39.95 -1.8 Q-41.9 -1.8 -43.3 -3.65 -43.8 -4.3 -44.15 -5.05 -44.4 -5.65 -44.4 -5.9 -44.4 -6.4 -44.15 -7.15 -43.9 -7.95 -43.55 -8.4 -43.3 -8.65 -43.05 -8.75 -43.0 -9.75 -42.9 -11.1 L-43.25 -11.4 Q-43.55 -11.65 -43.55 -11.8 -43.55 -12.4 -43.45 -12.7 -43.35 -12.9 -43.1 -13.15 -42.5 -13.8 -42.15 -15.2 -41.75 -16.65 -40.65 -16.9 M-5.35 -21.5 Q-5.25 -21.35 -5.25 -21.3 L-5.35 -20.95 Q-5.3 -20.9 -5.3 -20.85 -5.3 -20.8 -5.6 -20.8 -5.9 -20.8 -5.9 -20.85 L-6.0 -21.05 Q-6.0 -21.25 -5.85 -21.5 -5.75 -21.7 -5.6 -21.75 -5.45 -21.7 -5.35 -21.5 M-20.25 -4.2 L-20.6 -4.6 Q-20.7 -4.7 -20.7 -4.8 -20.7 -5.15 -20.5 -5.25 -20.3 -5.35 -19.8 -5.25 L-19.75 -5.15 Q-19.7 -5.1 -19.7 -4.85 -19.7 -4.55 -19.8 -4.4 L-19.95 -4.3 -20.25 -4.2" fill="#8cc1ff" fill-opacity="0.7529412" fill-rule="evenodd" stroke="none"/>
    <path d="M45.35 -17.95 Q45.95 -17.65 46.35 -17.2 46.8 -16.65 46.8 -16.2 46.8 -15.85 46.4 -15.35 45.95 -14.85 45.55 -14.85 44.5 -14.85 44.1 -16.2 43.9 -16.9 43.9 -17.6 43.9 -18.15 44.35 -18.2 44.8 -18.3 45.35 -17.95 M42.45 -19.65 Q42.35 -19.35 42.4 -19.15 L42.35 -19.05 Q42.25 -18.95 42.05 -18.95 41.5 -19.4 41.4 -19.7 41.35 -19.85 41.35 -20.25 41.35 -20.95 41.95 -20.9 42.55 -20.85 42.55 -20.25 42.55 -20.05 42.45 -19.65 M33.6 -4.7 Q33.6 -6.15 35.85 -5.85 36.75 -5.7 37.75 -5.3 38.75 -4.9 39.4 -4.35 L39.45 -4.25 Q38.95 -3.95 38.4 -3.7 37.4 -3.2 36.85 -3.2 L35.45 -3.3 34.75 -3.4 Q34.05 -3.4 33.75 -4.05 L33.6 -4.7 M45.7 -11.9 Q45.7 -9.5 44.1 -9.15 L44.1 -9.4 Q44.1 -9.65 43.9 -9.75 43.65 -9.9 43.65 -10.1 43.65 -11.25 43.95 -12.05 44.25 -12.8 44.7 -13.05 45.1 -13.3 45.4 -13.05 45.7 -12.7 45.7 -11.9 M43.45 -7.5 Q43.85 -7.4 43.85 -6.9 43.85 -6.4 43.1 -6.0 42.4 -5.7 41.85 -5.7 L41.8 -5.7 Q41.7 -5.75 41.65 -5.85 41.75 -6.15 41.8 -6.6 41.85 -7.0 42.25 -7.25 43.0 -7.65 43.45 -7.5 M38.6 -7.6 Q38.2 -7.15 37.75 -7.15 37.05 -7.15 36.75 -7.95 36.6 -8.4 36.6 -8.8 36.6 -9.55 36.95 -9.85 37.3 -10.2 37.8 -10.1 38.25 -10.0 38.6 -9.6 38.95 -9.15 38.95 -8.5 38.95 -8.0 38.6 -7.6 M40.15 -4.55 Q40.05 -4.55 40.05 -4.85 40.05 -5.15 40.65 -5.45 41.25 -5.75 41.65 -5.75 L41.7 -5.65 41.7 -5.25 Q41.7 -5.0 41.5 -4.9 41.35 -4.8 40.5 -4.55 L40.15 -4.55 M36.75 -0.15 Q37.1 0.2 37.35 0.8 37.65 1.4 37.65 1.9 37.65 3.25 37.25 4.1 36.8 5.25 35.45 6.15 35.3 6.25 34.75 6.9 L33.65 8.25 Q32.1 10.05 31.3 10.05 30.4 10.05 30.05 9.65 29.85 9.4 29.85 9.05 29.85 8.45 30.5 7.7 31.3 6.8 32.35 6.8 33.6 6.8 33.25 7.85 33.95 6.5 34.65 5.45 35.0 4.85 35.55 4.1 35.95 3.5 36.05 2.95 36.25 2.3 36.25 1.2 36.25 0.95 36.05 0.65 35.85 0.35 35.85 0.15 35.85 -0.5 36.1 -0.55 36.35 -0.6 36.75 -0.15 M29.4 2.25 Q29.4 2.9 28.85 3.95 28.3 5.15 27.35 6.15 24.9 8.95 21.55 8.95 20.1 8.95 19.65 8.1 19.45 7.8 19.4 7.2 18.85 8.0 18.45 8.0 17.55 8.0 17.3 7.4 L17.05 6.85 Q16.85 6.45 16.5 6.2 L15.65 6.15 Q15.45 6.55 14.6 6.85 L14.65 6.85 Q14.85 6.9 14.9 6.95 L14.2 7.2 Q13.95 7.25 13.65 7.45 13.1 7.4 12.85 7.25 12.6 7.1 12.4 7.1 11.8 7.1 10.75 7.45 9.65 7.8 9.45 7.8 9.4 7.8 9.05 7.65 8.7 7.6 8.35 7.3 L7.75 7.4 7.1 7.5 6.7 7.85 6.65 8.2 Q6.65 8.75 6.6 8.95 6.35 9.9 4.95 9.9 4.05 9.9 2.8 8.65 L1.25 8.8 0.1 8.95 Q-2.7 8.95 -3.15 7.75 L-3.15 7.65 Q-3.75 7.1 -3.85 6.5 L-3.9 6.55 -4.2 6.5 Q-4.3 6.45 -4.3 6.15 -4.3 6.05 -4.05 5.9 L-3.8 5.7 Q-3.65 5.3 -3.35 4.95 -2.85 4.45 -2.15 4.4 -1.45 4.35 -0.95 4.85 -0.75 5.05 -0.65 5.3 0.0 4.75 0.35 4.75 1.5 4.75 2.9 6.05 L3.8 6.95 Q4.2 7.35 4.4 7.35 5.3 7.35 6.0 6.45 6.5 5.85 7.05 4.45 7.7 2.9 8.05 2.45 8.6 1.55 9.4 1.55 10.1 1.55 10.35 2.25 10.4 2.45 10.55 3.9 10.7 4.95 11.1 5.5 11.65 6.2 12.95 6.2 13.8 6.2 15.1 4.15 16.25 2.3 16.55 1.05 16.7 0.4 17.0 0.3 17.25 0.25 17.65 0.55 L18.35 1.2 Q18.85 1.6 19.15 1.7 19.7 1.9 20.15 3.05 L20.25 3.3 Q20.75 2.85 21.55 2.85 23.35 2.85 24.15 3.45 24.55 3.7 24.9 4.45 26.75 0.25 28.15 0.05 28.75 -0.05 29.05 0.6 29.4 1.2 29.4 2.25 M8.2 7.1 L7.95 6.7 7.5 7.15 7.7 7.15 8.2 7.1 M11.65 6.55 Q11.35 6.35 11.0 6.3 11.3 6.4 11.65 6.55 M-30.95 -21.5 L-31.2 -21.65 -31.25 -21.7 -31.25 -22.05 Q-31.25 -22.6 -30.95 -22.8 -30.6 -23.1 -29.75 -23.0 L-29.65 -22.55 -29.8 -21.85 Q-30.0 -21.4 -30.55 -21.4 -30.85 -21.4 -30.95 -21.5 M-34.05 -16.35 Q-34.3 -16.15 -34.5 -16.15 -35.0 -16.15 -35.15 -16.55 -35.2 -16.65 -35.2 -16.95 -35.2 -17.35 -34.95 -17.55 -34.75 -17.75 -34.45 -17.75 -34.15 -17.7 -33.95 -17.5 -33.7 -17.25 -33.7 -16.85 -33.7 -16.55 -34.05 -16.35 M-39.55 -14.65 Q-39.75 -14.0 -40.5 -13.7 -41.35 -13.4 -41.9 -12.65 -42.1 -12.3 -42.25 -12.2 -42.5 -12.05 -42.95 -12.05 -43.25 -12.05 -43.3 -12.1 L-43.55 -12.35 Q-43.6 -12.4 -43.6 -12.7 -43.6 -13.05 -42.95 -14.15 -42.25 -15.25 -41.5 -16.1 -40.6 -17.1 -40.05 -17.1 -39.4 -17.15 -39.4 -15.7 -39.4 -15.0 -39.55 -14.65 M-43.55 -4.0 Q-44.0 -5.05 -44.0 -6.2 -44.0 -7.7 -42.7 -6.7 -42.3 -6.35 -41.75 -5.8 L-41.3 -5.3 Q-40.9 -5.0 -40.75 -4.55 -40.65 -4.35 -40.5 -3.75 -40.3 -2.85 -39.5 -2.65 L-39.95 -2.2 Q-40.15 -2.0 -40.5 -2.0 -42.7 -2.0 -43.55 -4.0 M-38.55 -2.25 Q-38.55 -2.1 -38.8 -2.0 -39.05 -1.85 -39.2 -1.85 L-39.3 -1.9 -39.55 -2.1 -39.35 -2.6 Q-39.15 -2.75 -38.6 -2.4 L-38.55 -2.25 M-31.3 -0.95 Q-31.25 -0.95 -31.2 -1.0 -30.6 -0.5 -28.3 2.3 -27.35 3.5 -26.7 4.05 L-26.7 3.95 Q-26.7 3.55 -26.35 3.45 -26.05 3.35 -25.45 3.45 L-25.35 3.6 Q-25.3 3.65 -25.3 3.95 -25.3 4.5 -25.95 4.5 L-26.1 4.5 -25.8 4.55 Q-25.4 4.55 -24.9 4.3 -24.45 4.05 -24.3 4.05 -24.0 4.05 -23.8 4.2 -23.8 3.05 -23.3 2.75 -22.6 2.3 -20.95 3.85 -21.15 4.25 -21.05 5.1 -21.1 5.75 -22.3 5.75 -22.95 5.75 -23.35 5.5 -23.35 5.9 -23.5 6.3 -23.6 6.7 -23.75 6.9 -23.7 7.15 -23.7 7.4 -23.7 8.3 -24.25 8.7 -24.8 9.1 -26.05 9.1 -26.75 9.1 -26.75 8.5 -26.7 8.1 -26.5 7.7 -26.75 7.55 -27.15 7.55 L-27.85 7.6 Q-30.3 7.6 -32.4 4.1 -33.15 2.85 -33.65 1.5 -34.1 0.3 -34.1 -0.15 -34.1 -0.85 -33.7 -1.2 -33.35 -1.55 -32.8 -1.55 -32.3 -1.6 -31.85 -1.35 -31.5 -1.15 -31.3 -0.9 L-31.3 -0.95 M-21.9 -21.55 Q-22.05 -21.45 -22.3 -21.45 -22.6 -21.45 -22.7 -21.5 L-22.95 -21.75 Q-22.95 -21.85 -22.95 -22.1 -22.95 -22.7 -22.55 -22.85 -22.15 -22.95 -21.65 -22.1 L-21.75 -21.7 -21.9 -21.55 M-9.05 4.05 Q-8.3 3.65 -7.2 4.05 -6.15 4.5 -5.4 5.5 -4.55 6.65 -4.55 8.05 -4.55 8.9 -4.75 9.4 -5.05 10.25 -6.0 10.25 -8.5 10.25 -9.4 8.1 -9.9 7.0 -9.9 5.8 -9.9 4.5 -9.05 4.05 M-10.0 6.85 Q-10.0 7.55 -10.35 7.9 -10.75 8.3 -11.7 8.3 -12.6 8.3 -13.2 7.2 -13.5 6.7 -13.6 6.15 -13.6 5.45 -13.05 5.1 -12.55 4.8 -11.8 4.95 -11.05 5.1 -10.55 5.55 -10.0 6.1 -10.0 6.85 M-15.05 4.6 Q-15.05 4.25 -14.8 3.9 -14.4 3.35 -13.5 3.5 L-13.45 3.6 Q-13.4 3.65 -13.4 3.9 -13.4 4.15 -13.5 4.6 -13.6 5.05 -13.6 5.35 L-13.65 5.45 Q-13.75 5.55 -14.05 5.55 -14.65 5.55 -14.9 5.1 -15.05 4.9 -15.05 4.6 M-14.65 5.7 Q-13.35 6.65 -13.35 7.0 -13.35 7.45 -13.75 7.75 -14.15 8.0 -14.8 8.0 -17.85 8.0 -19.1 5.9 -19.8 4.75 -19.8 3.35 -19.8 2.75 -19.75 2.4 -19.55 1.7 -19.05 1.7 -18.8 1.7 -18.5 1.9 -18.2 2.1 -18.1 2.15 -17.85 1.55 -17.6 1.5 -17.2 1.8 -17.05 2.95 -16.9 4.1 -16.3 4.55 L-14.65 5.7 M-21.2 6.3 Q-20.9 6.65 -20.9 7.65 -20.9 8.3 -21.15 9.2 -21.5 10.5 -22.1 10.5 -22.75 10.5 -22.9 9.3 L-22.95 8.0 Q-22.95 7.45 -22.65 6.9 -22.35 6.35 -21.9 6.15 -21.5 5.95 -21.2 6.3 M-33.8 5.25 Q-33.7 5.55 -33.7 6.4 -33.7 7.15 -33.75 7.3 -33.9 7.75 -34.5 7.75 -35.35 7.75 -35.8 5.85 -36.05 4.9 -36.1 4.0 -36.1 3.65 -35.85 3.25 -35.65 2.8 -35.35 2.6 -34.55 2.05 -34.25 3.5 -34.05 4.5 -33.8 5.25" fill="#bfdcff" fill-opacity="0.7529412" fill-rule="evenodd" stroke="none"/>
    <path d="M11.2 -38.25 Q11.2 -38.55 11.3 -38.65 11.35 -38.7 11.6 -38.8 11.95 -38.7 12.0 -38.45 11.95 -38.25 11.9 -38.1 11.8 -37.95 11.6 -37.9 L11.3 -37.95 Q11.2 -37.95 11.2 -38.25 M2.8 -30.2 Q2.7 -29.9 2.4 -29.8 L2.3 -29.85 Q2.15 -29.95 2.05 -30.05 2.2 -30.25 2.35 -30.35 L2.65 -30.45 2.8 -30.2 M15.95 -32.6 L15.95 -32.7 Q15.9 -32.8 15.9 -32.9 L16.1 -33.05 Q16.2 -33.05 16.35 -32.75 16.2 -32.6 15.95 -32.6 M21.95 -15.95 L21.35 -15.6 20.7 -15.85 20.65 -16.25 Q20.65 -16.6 20.9 -16.85 21.15 -17.05 21.45 -17.15 21.8 -17.2 22.0 -17.05 22.25 -16.85 22.25 -16.45 22.25 -16.2 21.95 -15.95 M6.3 -21.9 L6.25 -21.6 6.15 -21.45 Q6.35 -21.4 5.9 -21.4 L5.55 -21.45 Q5.5 -21.45 5.5 -21.75 5.5 -21.8 5.6 -21.9 5.75 -22.1 6.1 -22.25 6.3 -22.1 6.3 -21.9 M41.65 -19.8 Q41.75 -19.95 42.0 -20.05 42.3 -20.15 42.6 -20.1 42.6 -19.9 42.85 -19.7 L42.6 -19.45 42.2 -19.15 Q41.75 -19.5 41.65 -19.8 M45.85 -17.6 Q46.65 -17.6 46.65 -16.55 46.65 -16.15 46.5 -15.9 46.3 -15.6 45.95 -15.6 45.5 -15.6 45.25 -16.25 L45.05 -16.85 Q45.05 -17.15 45.3 -17.35 45.5 -17.55 45.85 -17.6 M45.9 -11.85 Q45.9 -11.3 45.5 -10.5 45.05 -9.6 44.6 -9.6 44.05 -9.6 43.9 -10.0 43.85 -10.2 43.9 -10.45 43.9 -11.2 44.25 -11.75 44.5 -12.25 44.9 -12.5 45.3 -12.7 45.6 -12.55 45.9 -12.35 45.9 -11.85 M43.0 -7.25 Q43.25 -7.05 43.25 -6.7 43.25 -6.3 42.9 -6.15 42.7 -6.05 42.45 -6.05 41.9 -6.05 41.7 -6.35 41.65 -6.45 41.65 -6.7 41.65 -7.05 41.9 -7.25 42.15 -7.4 42.45 -7.4 42.8 -7.4 43.0 -7.25 M37.35 -7.8 Q37.35 -8.0 37.35 -8.3 37.35 -8.85 37.6 -9.2 37.8 -9.55 38.15 -9.6 38.45 -9.65 38.7 -9.45 38.95 -9.25 38.95 -8.75 38.95 -8.65 38.6 -8.05 38.2 -7.45 38.05 -7.35 L37.4 -7.6 37.35 -7.8 M37.65 -3.85 Q37.05 -3.4 36.2 -3.4 35.1 -3.4 34.8 -3.85 34.75 -4.0 34.7 -4.15 34.7 -4.25 34.75 -4.35 34.75 -4.8 35.1 -4.9 L35.9 -4.95 Q36.3 -4.95 36.8 -5.1 L37.5 -5.3 Q38.15 -5.45 38.15 -4.65 38.15 -4.2 37.65 -3.85 M41.35 -4.45 L41.1 -4.4 40.9 -4.3 Q40.45 -4.75 40.45 -4.9 40.45 -5.25 40.75 -5.25 41.1 -5.25 41.5 -4.85 L41.35 -4.45 M37.4 1.6 Q37.65 1.9 37.65 2.4 37.65 3.05 37.0 4.4 36.3 6.0 35.5 6.0 L35.05 5.95 34.95 5.9 34.9 5.8 Q34.85 5.75 34.85 5.5 34.85 5.25 35.5 4.05 36.1 2.9 36.1 2.65 36.15 2.0 36.35 1.6 36.6 1.3 36.9 1.3 37.2 1.3 37.4 1.6 M28.65 3.5 Q28.65 4.0 28.4 4.5 28.05 5.35 27.2 5.35 26.7 5.35 26.6 5.05 26.55 4.95 26.55 4.7 26.55 4.55 26.7 3.95 26.85 3.4 26.85 3.25 26.85 2.8 27.15 2.55 27.4 2.3 27.75 2.35 28.1 2.4 28.35 2.7 28.65 3.0 28.65 3.5 M23.75 6.05 L24.05 6.15 Q24.8 6.05 25.1 5.65 25.4 5.2 25.85 5.15 26.45 5.6 26.45 5.75 26.45 8.0 21.65 8.0 20.6 8.0 20.35 7.65 20.3 7.55 20.3 7.2 20.3 6.6 21.0 5.8 21.6 5.1 22.45 4.75 23.3 4.3 23.7 4.6 24.15 4.9 23.75 6.05 M33.3 7.5 L33.35 7.95 Q33.35 8.4 32.9 8.8 L31.5 9.9 30.85 9.65 Q30.8 9.55 30.8 9.05 30.8 8.65 31.5 7.95 32.35 7.15 33.25 7.2 33.25 7.25 33.3 7.5 M20.25 3.35 L20.3 3.7 20.35 4.2 Q20.3 4.2 20.15 4.3 L19.85 4.4 Q19.4 3.95 19.4 3.8 19.4 3.45 19.6 3.35 19.8 3.3 20.25 3.35 M19.55 5.2 Q19.35 5.55 18.95 5.55 L18.85 5.55 Q19.1 6.1 19.1 6.45 19.1 6.65 18.95 6.9 18.8 7.25 18.35 7.25 17.0 7.25 16.55 5.85 16.4 5.4 16.35 4.9 L16.35 4.45 Q16.35 3.35 16.75 3.25 17.15 3.15 17.7 3.75 18.0 4.1 18.25 4.45 18.3 4.3 18.45 4.2 18.65 4.0 18.95 4.0 19.2 3.95 19.4 4.15 19.65 4.4 19.65 4.8 19.65 5.0 19.55 5.2 M14.05 6.3 Q14.3 6.15 14.55 6.15 14.7 6.3 14.7 6.55 L14.7 6.75 Q14.6 6.8 14.3 6.8 L13.95 6.8 13.95 6.75 13.8 6.6 Q13.8 6.5 14.05 6.3 M11.9 7.05 Q11.3 7.45 10.6 7.45 9.55 7.45 8.65 7.15 7.55 6.8 7.55 6.15 7.55 5.9 8.05 5.25 8.65 4.45 9.2 4.8 9.85 5.15 11.2 5.65 12.35 6.15 12.6 6.3 12.35 6.75 11.9 7.05 M2.4 8.3 L1.05 8.4 1.05 8.3 -1.4 7.55 Q-3.85 6.75 -3.85 6.15 -3.85 4.95 0.55 6.4 2.75 7.15 5.05 8.1 5.45 8.1 5.65 8.45 5.8 8.65 5.8 8.8 5.8 9.3 5.45 9.6 5.1 9.9 4.75 9.9 4.15 9.9 3.75 9.25 3.45 8.6 3.35 8.5 3.05 8.25 2.4 8.3 M-31.1 -21.6 L-31.35 -21.85 -31.35 -22.2 Q-31.35 -22.35 -31.15 -22.55 -31.0 -22.7 -30.75 -22.75 -30.2 -22.9 -30.2 -22.2 -30.2 -21.9 -30.2 -21.85 L-30.2 -21.8 -30.35 -21.65 Q-30.45 -21.55 -30.75 -21.55 -31.0 -21.55 -31.1 -21.6 M-34.2 -17.15 Q-34.2 -16.95 -34.35 -16.7 L-34.35 -16.65 -34.7 -16.6 Q-34.95 -16.6 -35.0 -16.65 L-35.1 -16.8 -35.15 -17.1 Q-35.15 -17.2 -35.0 -17.35 -34.8 -17.5 -34.7 -17.5 -34.4 -17.4 -34.2 -17.15 M-42.3 -15.3 Q-41.95 -15.85 -41.5 -16.15 -41.05 -16.5 -40.7 -16.35 -40.35 -16.25 -40.35 -15.55 -40.35 -15.15 -40.9 -14.4 -41.45 -13.6 -41.9 -13.6 -42.5 -13.6 -42.65 -13.9 L-42.65 -14.25 Q-42.65 -14.75 -42.3 -15.3 M-42.35 -12.75 Q-42.35 -12.65 -42.45 -12.55 L-42.7 -12.55 Q-42.8 -12.65 -42.8 -12.8 L-42.8 -13.05 -42.6 -13.05 Q-42.45 -13.05 -42.3 -12.95 L-42.35 -12.75 M-42.2 -2.1 Q-42.8 -2.1 -43.5 -3.45 -44.1 -4.6 -44.1 -4.85 -44.1 -6.2 -43.65 -6.3 -43.3 -6.4 -42.7 -5.65 -42.2 -5.05 -41.75 -4.15 -41.3 -3.3 -41.3 -3.0 -41.3 -2.1 -42.2 -2.1 M-22.3 -22.5 Q-22.4 -22.25 -22.7 -22.1 L-23.1 -22.25 -23.15 -22.2 Q-23.2 -22.2 -23.2 -22.45 -23.2 -22.75 -23.0 -22.8 L-22.7 -22.85 Q-22.4 -22.75 -22.3 -22.5 M-7.8 6.25 Q-6.9 7.0 -5.95 8.2 -5.95 9.9 -6.75 9.9 -8.25 9.9 -9.15 8.2 -9.55 7.35 -9.7 6.55 -9.7 4.7 -7.8 6.25 M-6.0 6.55 Q-6.2 6.45 -6.25 6.3 -6.2 6.25 -6.05 6.25 -5.9 6.2 -5.75 6.3 L-5.8 6.4 -6.0 6.55 M-11.1 7.95 Q-11.3 8.2 -11.7 8.2 -12.35 8.2 -12.8 7.4 -13.0 7.0 -13.05 6.7 -13.05 6.25 -12.75 6.15 -12.4 6.0 -12.0 6.15 -11.55 6.25 -11.25 6.6 -10.9 6.95 -10.9 7.4 -10.9 7.75 -11.1 7.95 M-15.05 6.95 Q-15.05 7.4 -15.4 7.55 -15.6 7.65 -15.85 7.65 -18.25 7.65 -19.1 5.8 -19.55 4.85 -19.55 3.85 -19.55 2.0 -17.3 4.25 -16.15 5.4 -15.05 6.95 M-14.25 5.2 Q-14.35 5.25 -14.6 5.3 -14.7 5.15 -14.7 4.85 L-14.45 4.9 Q-14.25 4.95 -14.15 5.1 L-14.25 5.2 M-21.85 5.45 Q-22.15 5.95 -22.6 5.95 -23.25 5.95 -23.4 5.45 L-23.4 4.85 Q-23.4 4.45 -23.1 4.15 -22.85 3.9 -22.5 3.85 -22.15 3.8 -21.9 4.0 -21.6 4.2 -21.6 4.65 -21.6 5.05 -21.85 5.45 M-21.65 9.15 Q-22.05 9.7 -22.3 9.9 -22.85 9.8 -22.95 9.25 L-23.0 8.5 Q-23.0 7.85 -22.75 7.45 -22.5 7.1 -22.15 7.1 -21.8 7.1 -21.55 7.4 -21.25 7.7 -21.25 8.25 -21.25 8.55 -21.65 9.15 M-28.55 4.2 Q-28.7 4.35 -29.05 4.55 L-29.4 4.45 Q-28.55 5.35 -27.8 5.75 -27.65 5.6 -27.35 5.6 -26.75 5.6 -26.75 6.2 -26.75 6.6 -26.95 6.8 -27.1 6.95 -27.35 6.95 -27.8 6.95 -27.9 6.65 -27.95 6.5 -27.95 6.25 L-27.95 6.15 Q-28.25 6.3 -28.6 6.4 L-29.45 6.5 Q-31.45 6.5 -32.55 3.95 -32.95 3.1 -33.15 2.1 -33.3 1.4 -33.3 1.1 -33.3 -0.6 -32.2 0.55 -31.95 0.85 -30.7 2.65 -30.4 3.35 -29.7 4.15 L-29.7 3.85 Q-29.7 3.45 -29.5 3.25 -29.35 3.05 -29.05 3.05 -28.8 3.1 -28.6 3.3 -28.4 3.55 -28.4 3.85 -28.4 4.05 -28.55 4.2 M-24.6 8.3 Q-24.8 8.4 -25.0 8.4 -25.6 8.4 -25.75 8.1 -25.8 8.0 -25.8 7.75 -25.8 7.35 -25.55 7.15 -25.35 6.95 -25.0 7.0 -24.7 7.0 -24.5 7.15 -24.25 7.35 -24.25 7.7 -24.25 8.15 -24.6 8.3 M-34.9 4.8 Q-34.75 5.25 -34.75 5.45 -34.75 6.05 -34.8 6.25 -34.9 6.7 -35.4 6.7 -35.85 6.7 -36.15 5.7 L-36.35 4.6 Q-36.35 4.3 -36.05 4.05 -35.9 3.95 -35.4 3.7 -35.2 4.15 -34.9 4.8" fill="#ffffff" fill-rule="evenodd" stroke="none"/>
  </g>
</svg>
