<?xml version="1.0" encoding="UTF-8" standalone="no"?>
<svg xmlns:ffdec="https://www.free-decompiler.com/flash" xmlns:xlink="http://www.w3.org/1999/xlink" ffdec:objectType="shape" height="47.7px" width="103.5px" xmlns="http://www.w3.org/2000/svg">
  <g transform="matrix(1.0, 0.0, 0.0, 1.0, 52.5, 27.3)">
    <path d="M21.45 -21.4 Q21.35 -21.5 21.35 -21.75 21.35 -22.15 21.9 -22.25 22.35 -22.35 22.65 -22.25 L22.7 -22.3 Q22.7 -22.25 22.7 -21.95 L22.7 -21.6 Q22.7 -21.5 22.7 -21.4 L22.55 -21.3 Q22.4 -21.15 22.1 -21.15 L21.65 -21.2 21.55 -21.25 21.45 -21.4 M41.9 -23.55 Q41.6 -23.85 41.6 -24.0 41.6 -24.2 41.85 -24.4 41.95 -24.5 42.2 -24.7 43.75 -25.0 45.55 -23.6 46.25 -23.1 46.7 -22.5 47.15 -21.95 47.15 -21.65 47.15 -21.35 47.05 -21.2 L46.85 -20.95 Q46.5 -21.1 46.0 -21.6 L45.4 -22.2 Q44.05 -22.05 42.75 -22.9 42.25 -23.2 41.9 -23.55 M31.25 -22.05 Q31.45 -22.25 31.8 -22.25 32.1 -22.25 32.3 -22.05 L32.45 -21.9 33.0 -21.8 33.2 -21.65 Q33.35 -21.55 33.65 -21.45 33.45 -21.4 32.85 -20.9 32.3 -20.45 31.95 -20.45 31.3 -20.45 30.5 -20.9 29.85 -21.2 29.35 -21.65 29.35 -21.75 29.4 -21.9 29.5 -22.1 29.6 -22.15 L31.2 -22.05 31.25 -22.05 M24.8 -20.1 Q24.8 -19.7 24.75 -19.4 L24.55 -19.3 Q24.35 -19.4 24.3 -19.5 24.15 -19.65 24.15 -19.95 24.15 -20.25 24.25 -20.25 L24.35 -20.25 24.8 -20.1 M33.3 -19.95 L33.75 -19.95 33.9 -19.7 33.65 -19.25 33.4 -19.25 33.35 -19.2 Q33.25 -19.25 33.25 -19.55 33.25 -20.0 33.3 -19.95 M33.0 -0.8 Q33.85 -0.65 33.9 -0.55 L34.45 -0.65 Q34.55 -0.7 34.7 -0.8 L34.5 -1.1 Q34.4 -1.25 34.4 -1.55 34.4 -1.9 34.7 -2.3 35.1 -2.7 35.4 -2.7 L35.9 -2.45 36.2 -2.2 Q36.55 -2.6 37.0 -2.3 37.3 -2.1 37.5 -1.75 37.65 -1.4 37.65 -1.1 37.65 0.05 36.05 0.45 34.3 0.65 34.1 0.9 33.75 1.65 32.65 2.5 31.4 3.4 30.25 3.4 L28.8 3.2 27.3 2.95 Q26.65 2.95 25.95 3.4 L24.65 4.45 Q22.65 6.0 19.95 6.0 19.65 6.0 19.45 5.85 19.1 5.65 18.95 5.6 17.5 5.45 17.4 5.35 L16.0 5.2 15.05 5.05 14.85 4.75 14.6 4.4 13.7 4.5 13.1 4.55 11.8 4.4 10.5 4.2 Q9.3 4.2 8.7 4.7 8.45 4.9 8.2 5.25 L7.7 5.85 Q7.1 6.6 6.15 7.0 4.8 7.5 2.45 7.5 1.7 7.5 1.2 7.05 0.65 6.6 0.2 6.6 -1.3 6.6 -2.2 6.95 L-2.8 7.2 Q-3.05 7.35 -3.35 7.35 -4.4 7.35 -5.55 6.7 -6.4 6.3 -6.8 5.9 L-7.7 5.85 -8.25 5.85 Q-8.7 5.85 -8.8 5.6 L-9.05 5.15 -9.9 5.05 -11.1 4.95 Q-11.6 4.95 -13.35 5.7 -15.05 6.45 -15.95 6.45 -16.65 6.45 -18.2 6.75 -19.6 7.05 -19.6 7.1 L-19.6 7.15 Q-21.1 7.05 -21.95 6.45 -22.55 6.0 -23.2 4.9 -23.9 3.75 -24.4 3.3 -25.35 2.6 -27.0 2.6 L-28.1 2.45 -29.9 2.2 -31.85 0.35 Q-33.1 -0.85 -33.1 -0.95 L-33.05 -1.05 Q-33.85 -1.45 -33.85 -1.6 -33.85 -1.85 -33.65 -2.15 L-33.7 -2.45 Q-33.8 -3.15 -33.8 -3.45 L-33.8 -4.05 Q-33.95 -4.4 -34.2 -4.65 -33.6 -5.35 -33.3 -5.35 L-33.3 -5.3 Q-33.1 -5.0 -33.0 -4.45 -32.9 -3.8 -32.8 -3.5 -32.5 -2.35 -31.0 -1.9 L-29.2 -0.55 Q-27.9 0.4 -27.65 0.85 -24.6 1.05 -23.95 1.8 -23.8 2.0 -23.55 2.6 -23.35 3.2 -23.0 3.6 L-21.25 3.7 -19.45 3.85 -16.85 3.8 -16.35 3.3 Q-15.95 2.95 -15.35 2.95 -14.6 2.95 -14.15 3.35 L-13.9 3.65 Q-13.75 3.8 -13.65 3.8 L-9.95 2.9 Q-8.4 2.9 -7.45 3.5 -7.1 3.7 -6.9 3.95 L-6.7 4.15 Q-6.05 4.2 -5.35 4.35 L-4.55 4.5 -3.15 4.15 Q-1.6 3.8 -1.0 3.8 -0.4 3.8 1.15 4.5 2.7 5.25 3.1 5.25 L6.5 3.75 Q10.0 2.25 11.25 2.25 11.55 2.25 12.7 2.5 13.3 2.55 13.8 2.7 L13.95 2.8 14.85 3.0 Q17.95 3.8 18.25 3.8 19.45 3.8 20.25 3.45 20.65 3.3 21.5 2.8 22.3 2.3 22.95 2.1 24.0 1.8 25.5 1.8 L26.65 1.7 Q27.85 1.5 28.5 1.2 L28.35 1.1 28.35 0.8 Q28.35 0.35 29.35 -0.25 30.5 -0.95 31.85 -0.95 L33.0 -0.8 M40.65 -8.4 Q40.25 -7.5 39.45 -7.5 L39.0 -7.5 38.9 -7.55 38.8 -7.55 Q38.75 -7.55 38.75 -7.85 38.75 -8.0 39.05 -8.85 39.35 -9.65 39.35 -9.9 39.25 -9.8 39.15 -9.5 39.1 -9.25 39.1 -9.05 L38.95 -8.95 Q38.9 -9.05 38.85 -9.15 38.8 -9.3 38.8 -9.6 38.8 -10.5 39.1 -11.0 39.4 -11.5 39.85 -11.55 40.25 -11.55 40.55 -11.15 40.9 -10.7 40.9 -9.85 40.9 -9.05 40.65 -8.4 M39.85 -10.4 Q39.95 -10.35 39.95 -10.05 39.95 -9.8 39.8 -9.2 39.6 -8.65 39.4 -8.4 L39.4 -8.35 Q39.8 -8.55 40.0 -9.2 40.1 -9.65 40.1 -10.1 40.1 -10.6 39.7 -10.5 L39.85 -10.4 M39.9 -3.1 Q39.9 -4.3 40.7 -3.45 41.0 -3.1 41.3 -2.6 41.55 -2.15 41.6 -1.9 L41.5 -1.35 Q41.45 -1.35 41.3 -1.25 41.1 -1.1 40.85 -1.1 40.45 -1.1 40.1 -2.2 39.95 -2.75 39.9 -3.1 M43.1 -4.9 Q43.1 -4.6 43.2 -4.5 43.25 -4.45 43.5 -4.35 L42.95 -3.75 Q42.5 -3.25 42.05 -3.25 41.75 -3.25 41.4 -3.4 41.1 -3.5 41.0 -3.65 41.15 -4.35 42.05 -4.85 42.6 -5.2 43.15 -5.35 43.2 -5.3 43.15 -5.25 43.1 -5.2 43.1 -4.9 M42.15 -4.25 Q41.7 -4.05 41.6 -3.95 42.05 -3.95 42.45 -4.05 L42.95 -4.25 Q43.0 -4.35 42.9 -4.5 L42.75 -4.75 Q42.55 -4.45 42.15 -4.25 M48.95 -19.45 Q49.1 -19.25 49.1 -18.9 L49.1 -18.6 Q49.1 -18.55 49.05 -18.4 L49.05 -18.3 Q49.0 -18.2 48.7 -18.2 48.3 -18.2 48.15 -18.75 48.1 -19.05 48.05 -19.5 48.65 -19.8 48.95 -19.45 M51.0 -11.65 Q51.0 -10.0 49.6 -8.9 49.3 -8.6 48.45 -8.1 47.7 -7.6 47.4 -7.35 47.15 -7.5 47.05 -7.6 46.95 -7.8 46.95 -8.1 46.95 -8.35 47.6 -9.3 48.25 -10.35 49.0 -11.2 49.85 -12.2 50.4 -12.4 51.0 -12.65 51.0 -11.65 M37.25 10.15 Q37.0 10.55 36.6 10.95 36.95 10.75 37.1 10.45 L37.25 10.15 M37.85 9.4 L37.9 9.85 Q37.9 10.8 36.5 11.7 35.3 12.45 33.5 12.7 32.75 12.9 31.95 12.9 L31.25 12.8 31.05 12.8 30.8 12.75 30.75 12.8 Q30.7 12.8 30.7 12.65 30.15 12.5 29.7 12.15 L29.45 11.95 29.05 11.65 Q28.75 11.45 28.75 11.3 28.75 11.1 28.8 10.95 L28.75 10.7 Q28.8 10.7 28.75 10.6 28.75 10.55 28.85 10.55 L28.9 10.15 29.1 10.05 Q29.25 9.95 29.55 9.95 29.85 9.95 29.95 10.0 L30.05 10.2 Q30.2 10.45 31.6 10.45 34.2 10.45 35.7 9.75 L36.65 9.25 Q37.15 9.05 37.75 9.05 L37.85 9.4 M24.25 11.2 Q25.65 10.8 25.65 11.8 25.65 12.25 25.3 12.45 25.0 12.65 24.35 12.65 L23.8 12.6 Q23.6 12.55 23.5 12.45 23.45 12.45 23.65 12.35 L24.6 11.85 Q24.4 11.75 24.25 11.6 L24.25 11.2 M15.8 11.5 L15.0 12.0 Q14.35 12.35 13.75 12.35 L12.9 12.25 Q12.35 12.15 12.25 12.05 13.45 10.7 15.75 11.3 L15.8 11.5 M20.8 12.7 Q21.2 12.5 21.2 13.4 21.2 13.95 21.0 14.45 L20.45 15.6 20.3 16.1 Q20.15 16.4 20.0 16.6 19.55 17.25 18.35 17.5 L18.2 17.45 Q18.45 17.15 18.85 16.95 L18.75 16.85 Q18.7 16.8 18.7 16.55 18.7 16.3 19.1 15.4 19.5 14.5 19.95 13.75 20.5 12.9 20.8 12.7 M9.95 12.4 Q9.5 12.6 9.25 12.6 8.75 12.6 8.6 12.4 L8.4 12.05 Q8.5 11.95 8.8 11.7 9.15 11.4 9.5 11.3 10.5 10.9 10.6 12.0 L9.95 12.4 M1.2 16.4 Q1.45 16.55 2.0 17.05 2.5 17.45 2.65 17.5 L4.35 18.35 Q5.4 18.9 5.4 19.55 5.4 19.65 5.2 20.0 5.0 20.4 4.85 20.4 2.25 20.4 1.05 19.1 0.3 18.25 0.3 17.0 0.3 15.8 1.2 16.4 M-47.85 -22.75 L-47.9 -22.75 Q-48.0 -22.75 -48.0 -23.05 -48.0 -24.25 -47.0 -24.85 -45.8 -25.6 -42.35 -26.0 L-41.0 -25.95 -40.75 -25.8 Q-40.6 -25.65 -40.6 -25.6 L-40.6 -25.3 Q-40.7 -25.25 -40.75 -25.35 L-40.8 -25.55 Q-40.55 -24.6 -43.25 -23.75 -44.7 -23.3 -47.4 -22.65 L-47.85 -22.75 M-49.35 -19.1 Q-49.35 -18.8 -49.4 -18.7 -49.45 -18.7 -49.6 -18.6 L-49.85 -18.45 -50.4 -18.4 Q-50.5 -18.4 -50.5 -18.7 -50.5 -19.1 -49.85 -19.6 L-49.45 -19.25 -49.35 -19.1 M-51.9 -15.45 L-51.95 -14.95 Q-51.95 -14.65 -51.8 -14.5 L-51.55 -14.15 Q-51.1 -13.65 -51.15 -12.4 -51.2 -11.85 -50.95 -11.15 -50.65 -10.35 -50.5 -9.9 -50.25 -9.0 -49.4 -7.3 -48.85 -6.25 -48.85 -4.95 -48.85 -4.45 -49.5 -4.45 -50.95 -4.45 -51.5 -6.55 -51.75 -7.6 -51.7 -8.75 L-52.5 -13.0 -52.25 -14.2 Q-52.0 -15.4 -52.0 -15.8 L-51.85 -15.8 Q-51.85 -15.65 -51.9 -15.45 M-51.65 -13.15 L-51.6 -13.1 Q-51.55 -13.15 -51.55 -13.1 L-51.55 -13.4 Q-51.55 -13.75 -51.7 -14.0 -51.8 -14.2 -52.0 -14.3 -51.9 -14.15 -51.8 -13.75 L-51.65 -13.15 M-23.3 -25.3 Q-23.3 -25.7 -22.9 -25.9 -22.55 -26.1 -21.9 -26.05 L-21.85 -25.95 Q-21.8 -25.9 -21.8 -25.65 -21.8 -25.3 -22.1 -25.05 -22.35 -24.9 -22.7 -24.9 -23.15 -24.9 -23.15 -25.0 -23.2 -25.05 -23.25 -25.05 -23.3 -25.05 -23.3 -25.3 M-28.6 -26.45 Q-28.75 -26.65 -28.75 -26.9 L-28.6 -27.0 Q-28.5 -27.05 -28.5 -27.1 L-27.25 -27.0 Q-27.15 -26.95 -27.1 -26.75 L-27.0 -26.45 Q-27.15 -26.1 -27.65 -26.1 -28.35 -26.1 -28.6 -26.45 M-34.15 -24.15 L-35.8 -23.0 -36.2 -23.05 -36.2 -24.0 Q-35.7 -24.95 -34.7 -25.7 -33.5 -26.55 -33.5 -25.3 -33.5 -24.7 -34.15 -24.15 M-39.95 -25.1 Q-39.25 -24.9 -39.25 -24.3 -39.25 -23.85 -39.4 -23.65 -39.6 -23.35 -40.0 -23.35 L-40.4 -23.4 -40.4 -23.45 Q-40.6 -24.15 -40.6 -24.75 -40.6 -25.0 -40.4 -25.05 L-39.95 -25.1 M-39.05 -7.15 L-39.15 -7.35 -39.15 -7.8 Q-39.15 -8.5 -38.65 -8.8 -38.55 -8.85 -36.8 -9.55 -36.7 -9.45 -36.7 -9.35 L-36.7 -8.9 Q-36.7 -8.4 -37.0 -7.85 -37.55 -7.05 -38.7 -7.05 L-39.05 -7.1 Q-39.1 -7.15 -39.05 -7.15 M-44.6 -0.95 Q-44.6 -1.25 -44.5 -1.3 L-44.2 -1.45 -43.9 -1.15 -43.65 -0.95 Q-43.7 -0.8 -43.9 -0.7 -44.1 -0.55 -44.2 -0.55 L-44.5 -0.6 Q-44.6 -0.65 -44.6 -0.95 M-41.85 -0.1 Q-41.15 0.3 -41.15 0.6 -41.15 1.0 -41.55 1.25 -41.75 1.4 -41.95 1.45 -42.45 1.45 -42.75 1.05 -42.95 0.8 -42.95 0.6 -42.95 0.5 -42.8 0.4 L-42.4 0.1 -42.6 -0.1 Q-42.75 -0.2 -43.25 -0.4 -42.65 -0.5 -41.85 -0.1 M-16.75 -26.4 Q-16.85 -26.3 -17.15 -26.3 -17.7 -26.3 -17.9 -26.4 -18.05 -26.45 -18.3 -26.9 L-18.3 -27.3 Q-18.0 -27.3 -17.6 -27.2 -17.05 -27.0 -16.7 -26.65 -16.7 -26.5 -16.75 -26.4 M-16.6 6.4 L-17.7 6.6 -16.8 6.5 -16.45 6.35 -16.6 6.4 M-19.0 6.6 L-19.0 6.65 -18.85 6.65 -19.0 6.6 M-20.1 11.3 Q-20.1 10.65 -18.95 10.95 -17.7 11.4 -17.45 11.4 -15.6 11.4 -14.8 11.7 -14.2 11.95 -13.9 12.5 -13.65 12.35 -14.05 12.75 -14.4 13.05 -14.6 13.05 L-15.55 13.0 -17.85 12.8 Q-18.05 12.8 -18.6 12.6 -19.2 12.4 -19.6 12.35 -20.1 11.7 -20.1 11.3 M-11.95 18.95 Q-12.0 18.85 -12.0 18.55 -12.0 18.35 -11.75 18.0 -11.45 17.65 -11.05 17.45 -9.95 16.85 -9.1 17.75 -9.25 18.3 -10.0 18.75 -10.75 19.15 -11.25 19.15 L-11.95 19.05 -11.95 18.95 M-8.9 16.75 Q-8.1 16.55 -7.3 17.3 -6.75 17.75 -6.25 18.55 L-6.2 18.6 -6.5 18.65 Q-6.75 18.65 -6.9 18.5 -7.05 18.3 -7.3 18.3 -7.9 18.3 -8.45 17.95 -8.95 17.6 -8.95 17.25 L-8.95 16.95 -8.9 16.75 M-11.35 18.4 L-11.5 18.55 -11.55 18.65 -11.35 18.55 -11.35 18.4 M-34.45 2.65 Q-33.9 3.1 -32.15 4.9 -30.5 6.7 -30.5 6.8 -30.5 7.15 -30.8 7.5 -31.1 7.9 -31.5 7.9 -32.4 7.9 -33.55 5.6 -34.5 3.7 -34.65 2.7 L-34.45 2.65 M-34.05 4.2 L-33.9 4.45 Q-33.9 4.3 -34.0 4.1 -34.05 3.95 -34.15 3.85 L-34.15 3.9 -34.05 4.2 M-32.85 6.3 Q-32.55 6.75 -31.6 7.0 L-32.15 6.65 Q-32.65 6.4 -32.85 6.3 M-33.0 12.5 Q-31.5 12.2 -28.95 12.95 L-28.75 13.15 Q-28.65 13.25 -28.65 13.55 -28.65 13.85 -30.55 14.0 L-32.4 14.2 -33.5 14.2 Q-34.95 14.1 -35.3 13.75 L-35.3 13.35 -34.15 12.85 Q-33.55 12.6 -33.0 12.5 M-26.8 12.35 Q-25.95 12.7 -25.75 13.6 -25.65 13.9 -25.65 14.85 -25.65 15.2 -25.75 15.6 -25.85 16.0 -26.0 16.35 -26.1 16.25 -26.55 14.75 -26.95 13.3 -26.95 13.0 -26.95 12.7 -26.95 12.55 -26.9 12.4 -26.8 12.35 M-41.0 3.5 Q-40.6 3.9 -40.6 4.05 -40.6 4.25 -40.75 4.7 -40.85 5.1 -40.85 5.4 L-40.95 5.5 Q-41.05 5.55 -41.3 5.55 -41.65 5.55 -41.85 5.1 L-41.95 4.7 Q-42.1 4.6 -42.1 4.5 -42.1 4.2 -41.95 4.05 L-41.9 4.0 Q-41.8 3.6 -41.6 3.05 -41.4 3.05 -41.0 3.5 M-41.35 4.45 L-41.4 4.45 -41.3 4.8 Q-41.3 4.6 -41.25 4.45 L-41.35 4.45 M-36.8 8.9 L-36.95 8.95 -37.3 9.1 -37.95 8.9 -38.0 8.75 Q-38.05 8.6 -38.05 8.35 -38.05 7.7 -37.6 7.7 -37.1 7.7 -36.7 8.4 L-36.8 8.9 M-26.35 14.85 L-26.2 15.2 -26.2 15.1 -26.45 14.4 -26.35 14.85" fill="#59a5ff" fill-opacity="0.5019608" fill-rule="evenodd" stroke="none"/>
    <path d="M44.9 -22.7 Q43.85 -22.7 43.4 -23.3 43.3 -23.45 43.2 -23.7 L43.2 -23.85 Q43.2 -24.3 43.6 -24.45 L44.55 -24.4 Q45.05 -24.25 45.45 -24.0 45.9 -23.7 45.9 -23.4 45.9 -22.7 44.9 -22.7 M31.25 -21.65 Q31.25 -22.1 31.3 -22.05 31.65 -22.05 32.1 -21.85 32.65 -21.6 32.85 -21.2 L32.3 -21.1 31.7 -21.0 31.4 -21.3 Q31.25 -21.5 31.25 -21.65 M33.0 -0.35 Q33.8 -0.25 33.8 0.15 33.8 0.9 33.0 1.65 31.85 2.75 29.6 2.75 28.95 2.75 28.8 2.4 28.75 2.3 28.75 1.95 28.75 1.2 29.55 0.6 30.2 0.1 31.25 -0.2 32.25 -0.45 33.0 -0.35 M40.9 -8.8 Q40.8 -8.6 40.5 -8.6 40.05 -8.6 39.95 -9.0 L39.95 -9.4 Q39.95 -10.0 40.1 -10.3 40.25 -10.6 40.5 -10.6 40.75 -10.65 40.9 -10.35 41.05 -10.0 41.05 -9.45 41.05 -9.0 40.9 -8.8 M37.1 -0.35 Q36.65 0.3 36.0 0.3 35.6 0.3 35.05 0.15 34.35 -0.1 34.35 -0.5 34.35 -0.9 34.85 -1.3 35.3 -1.65 35.9 -1.75 36.55 -1.9 36.95 -1.75 37.45 -1.55 37.45 -1.0 37.45 -0.8 37.1 -0.35 M42.15 -4.65 Q42.25 -4.65 43.05 -4.65 43.05 -4.6 43.1 -4.5 43.2 -4.4 43.2 -4.15 43.2 -3.75 42.8 -3.5 42.55 -3.3 42.35 -3.3 41.95 -3.3 41.8 -3.65 41.75 -3.8 41.75 -4.05 41.75 -4.55 42.15 -4.65 M41.55 -2.0 L41.35 -1.65 41.0 -2.15 Q40.75 -2.6 40.75 -2.8 40.75 -3.25 40.75 -3.2 41.25 -3.15 41.45 -2.85 41.6 -2.65 41.6 -2.45 41.6 -2.15 41.55 -2.0 M50.35 -10.7 Q50.5 -10.6 50.5 -10.3 50.5 -9.85 50.1 -9.3 49.65 -8.6 49.05 -8.6 L48.6 -8.65 48.55 -8.7 48.5 -8.8 Q48.45 -8.85 48.45 -9.15 48.45 -9.6 48.8 -10.0 49.2 -10.4 50.05 -10.8 L50.35 -10.7 M36.35 11.0 Q36.0 11.5 35.6 11.9 34.7 12.7 33.35 12.7 31.7 12.7 31.15 12.3 31.0 12.15 31.0 12.0 L31.0 11.85 Q31.0 11.5 31.2 11.3 31.4 11.1 31.95 11.0 L36.1 10.7 36.35 11.0 M24.35 3.55 Q24.35 3.7 23.1 4.65 21.75 5.75 21.1 5.75 20.6 5.75 20.4 5.55 L20.15 5.55 Q19.55 5.55 19.4 5.2 19.35 5.1 19.35 4.75 19.35 3.95 20.2 4.0 20.45 4.0 20.6 4.1 L20.9 3.75 Q21.5 3.2 22.3 2.9 23.1 2.6 23.7 2.75 24.35 2.9 24.35 3.55 M14.6 4.3 Q14.3 4.45 13.95 4.45 12.75 4.45 11.6 4.05 10.55 3.7 10.55 3.4 10.55 2.8 11.2 2.6 11.8 2.45 12.7 2.6 13.55 2.7 14.2 3.05 14.9 3.4 14.9 3.7 14.9 4.1 14.6 4.3 M13.85 12.25 L13.55 11.95 Q13.3 11.7 13.3 11.65 13.3 11.5 13.6 11.25 13.9 11.05 14.25 10.95 15.2 10.65 15.2 11.5 15.2 11.9 13.85 12.25 M21.05 14.15 Q21.15 14.2 21.15 14.5 21.15 14.7 20.9 15.15 20.6 15.75 20.25 15.95 20.0 15.9 19.9 15.8 19.8 15.65 19.8 15.3 19.8 15.15 20.2 14.65 20.6 14.2 20.8 14.05 L21.05 14.15 M7.3 5.6 Q7.0 6.1 6.45 6.5 5.05 7.65 3.35 7.65 3.15 7.65 2.7 7.1 L1.85 7.05 1.35 6.7 Q1.15 6.55 1.15 6.4 1.15 5.95 1.4 5.85 L2.1 5.8 Q3.55 5.85 4.85 5.05 6.1 4.25 6.85 4.25 7.65 4.2 7.65 4.95 7.65 5.2 7.3 5.6 M10.45 12.7 Q10.4 12.7 10.25 12.8 L9.95 12.95 9.45 12.55 Q9.4 12.45 9.4 12.25 9.4 12.15 9.55 11.95 9.75 11.8 9.95 11.7 10.5 11.55 10.5 12.3 10.5 12.75 10.45 12.7 M3.0 19.65 Q2.75 19.8 2.4 19.8 1.4 19.8 0.85 18.85 0.65 18.55 0.55 18.15 L0.45 17.85 Q0.45 16.05 1.85 17.4 2.55 18.1 3.25 19.15 3.25 19.45 3.0 19.65 M-46.45 -24.35 Q-46.45 -24.75 -45.95 -25.1 -45.55 -25.45 -44.9 -25.55 -44.25 -25.7 -43.85 -25.55 -43.35 -25.4 -43.35 -24.9 -43.35 -24.5 -44.45 -24.05 -45.35 -23.7 -45.75 -23.7 -46.25 -23.7 -46.4 -24.0 -46.45 -24.05 -46.45 -24.35 M-51.4 -13.15 Q-51.35 -13.15 -51.35 -12.85 -51.35 -12.6 -51.4 -12.35 L-51.4 -12.25 -51.45 -12.15 Q-51.5 -12.05 -51.7 -12.05 -51.75 -12.1 -51.85 -12.15 -51.95 -12.2 -51.95 -12.45 -51.95 -12.8 -51.8 -13.0 -51.65 -13.15 -51.5 -13.2 L-51.4 -13.15 M-51.3 -7.45 Q-52.1 -7.45 -52.3 -8.95 -52.4 -9.7 -52.3 -10.5 -52.3 -11.0 -51.95 -11.35 -51.8 -11.2 -51.25 -9.9 -50.65 -8.6 -50.65 -8.35 -50.65 -7.8 -50.75 -7.65 L-50.85 -7.55 Q-50.35 -6.75 -50.3 -6.5 L-50.45 -6.3 Q-50.5 -6.25 -50.65 -6.2 -50.85 -6.4 -51.05 -6.8 -51.25 -7.2 -51.25 -7.4 L-51.25 -7.45 -51.3 -7.45 M-34.35 -24.75 L-34.5 -24.55 -34.85 -24.25 -35.3 -24.6 -35.4 -24.75 -35.35 -25.05 Q-35.25 -25.35 -34.85 -25.25 L-34.5 -24.95 -34.35 -24.75 M-33.35 -1.85 Q-33.35 -3.55 -32.4 -2.75 -31.9 -2.3 -31.1 -1.05 -30.7 -0.8 -30.05 -0.4 L-29.0 0.2 Q-27.75 0.95 -27.6 1.65 L-27.75 1.8 Q-27.85 1.9 -28.15 1.9 -30.0 1.9 -31.8 0.3 -32.45 -0.3 -32.9 -0.9 -33.35 -1.5 -33.35 -1.85 M-3.05 5.0 Q-2.25 4.4 -1.85 4.35 L-0.75 4.35 Q0.0 4.95 0.0 5.35 0.0 5.6 -2.0 6.1 -4.0 6.55 -4.7 6.55 -5.4 6.55 -6.0 5.85 -6.5 5.3 -6.5 5.0 -6.5 3.85 -5.25 4.55 -4.85 4.8 -4.4 5.2 -4.0 5.55 -3.95 5.65 L-3.05 5.0 M-9.9 4.05 Q-9.7 4.1 -9.65 4.15 -9.85 4.25 -10.2 4.4 -10.75 4.55 -11.05 4.55 -12.65 4.55 -12.65 4.4 L-10.8 4.2 Q-10.2 4.1 -10.1 4.0 L-9.9 4.05 M-14.3 5.25 Q-14.8 5.5 -15.5 5.75 -17.5 6.5 -19.5 6.5 -21.6 6.5 -22.4 5.75 -22.8 5.35 -22.8 4.75 L-22.8 4.3 -22.75 4.2 -22.55 4.1 Q-22.4 3.95 -22.1 3.95 -21.8 3.95 -21.65 4.1 L-21.3 4.35 Q-20.5 4.65 -17.45 4.35 L-16.7 4.45 -16.0 4.55 Q-15.95 4.55 -15.55 4.25 -15.05 3.95 -14.8 3.85 -13.85 3.45 -13.85 4.9 -13.85 5.0 -14.3 5.25 M-18.65 12.5 L-18.7 12.05 Q-18.7 11.7 -18.1 11.45 -17.6 11.25 -16.85 11.25 -16.15 11.25 -15.6 11.45 -15.05 11.65 -15.05 12.05 -15.05 12.9 -18.0 12.9 -18.55 12.9 -18.65 12.5 M-8.15 17.0 Q-7.7 17.05 -7.55 17.8 -7.6 18.05 -7.65 18.05 -7.75 18.2 -8.05 18.2 -8.35 18.2 -8.5 17.85 L-8.6 17.5 Q-8.6 17.0 -8.15 17.0 M-11.1 18.3 Q-11.1 17.75 -10.35 17.65 -9.65 17.55 -9.65 18.15 -9.65 18.45 -10.5 19.0 L-10.95 18.6 Q-11.1 18.45 -11.1 18.3 M-31.7 6.75 Q-31.85 7.05 -32.25 7.05 -32.75 7.05 -33.45 6.0 -34.0 5.1 -34.0 4.85 L-33.95 4.6 Q-33.9 4.55 -33.9 4.5 -33.05 4.45 -32.25 5.1 -31.55 5.7 -31.55 6.15 -31.55 6.5 -31.7 6.75 M-31.15 13.75 Q-31.5 14.1 -32.45 14.1 -32.9 14.1 -33.05 13.7 L-33.15 13.3 Q-33.15 12.95 -32.8 12.75 -32.5 12.55 -32.0 12.55 -31.55 12.6 -31.25 12.75 -30.9 12.9 -30.9 13.2 -30.9 13.55 -31.15 13.75" fill="#8cc1ff" fill-opacity="0.7529412" fill-rule="evenodd" stroke="none"/>
    <path d="M45.15 -23.7 Q45.15 -23.5 45.05 -23.25 L44.6 -23.1 Q44.1 -23.55 44.1 -23.7 44.1 -24.05 44.25 -24.2 44.45 -24.4 45.05 -24.25 L45.15 -23.7 M36.5 -0.35 Q36.25 0.0 36.0 0.15 35.75 -0.05 35.65 -0.2 35.55 -0.3 35.45 -0.5 35.55 -0.6 35.8 -0.7 36.1 -0.8 36.3 -0.8 36.4 -0.65 36.5 -0.35 M50.05 -9.75 L50.1 -9.7 Q50.15 -9.65 50.15 -9.4 L50.15 -9.05 50.1 -9.05 49.85 -8.95 49.5 -8.85 49.2 -8.85 Q49.05 -8.85 49.05 -9.15 49.05 -9.35 49.35 -9.55 49.6 -9.75 50.05 -9.75 M31.85 1.75 Q31.6 2.0 31.1 2.0 30.45 2.0 30.25 1.6 30.2 1.5 30.2 1.2 30.2 0.35 31.1 0.5 31.45 0.55 31.75 0.8 32.0 1.0 32.0 1.25 32.0 1.6 31.85 1.75 M34.1 11.5 Q34.45 11.8 34.45 12.2 34.45 12.55 34.1 12.75 33.85 12.9 33.45 12.9 32.5 12.9 32.2 12.35 32.1 12.2 32.1 12.05 L32.1 11.95 Q32.1 11.5 32.45 11.35 32.8 11.15 33.3 11.2 33.75 11.25 34.1 11.5 M22.25 4.95 Q21.85 5.4 21.55 5.4 21.05 5.4 20.9 5.0 20.85 4.9 20.85 4.55 20.85 4.25 21.1 4.0 21.4 3.8 21.75 3.7 22.1 3.6 22.35 3.75 22.65 3.9 22.65 4.3 22.65 4.6 22.25 4.95 M12.15 2.95 Q12.35 3.0 12.45 3.1 L12.6 3.3 12.5 3.6 Q12.35 3.75 12.05 3.8 L11.8 3.7 Q11.75 3.65 11.75 3.35 L11.75 3.1 11.85 3.0 Q12.15 3.0 12.15 2.95 M5.8 5.8 Q5.85 5.9 5.85 6.15 5.85 6.4 5.1 6.95 4.35 7.5 3.9 7.5 3.5 7.5 3.35 7.1 3.3 7.0 3.3 6.7 3.3 6.35 4.1 5.9 4.95 5.4 5.7 5.65 L5.8 5.8 M2.15 19.1 L1.75 19.15 Q1.15 19.15 1.0 18.65 L0.95 18.15 Q0.95 17.7 1.15 17.55 L1.7 17.55 Q2.0 17.7 2.25 18.0 2.5 18.3 2.5 18.55 2.5 18.95 2.15 19.1 M21.15 14.8 L21.2 14.85 Q21.25 14.9 21.25 15.15 21.25 15.6 21.2 15.5 L21.1 15.6 20.7 15.65 20.35 15.6 20.2 15.4 20.15 15.15 Q20.4 14.85 20.45 14.8 L21.15 14.8 M-44.7 -24.35 Q-44.95 -24.05 -45.2 -24.05 -45.4 -24.05 -45.6 -24.3 L-45.85 -24.7 -45.75 -25.25 -44.9 -25.3 Q-44.5 -25.15 -44.5 -24.75 -44.5 -24.6 -44.7 -24.35 M-33.1 -1.35 Q-33.1 -2.7 -31.95 -1.7 -30.95 -0.8 -30.45 0.3 L-30.5 0.4 Q-31.6 -0.05 -32.15 -0.35 -33.1 -0.9 -33.1 -1.35 M-4.4 6.3 Q-4.6 6.5 -4.85 6.5 -5.4 6.5 -5.55 6.2 -5.55 6.1 -5.55 5.85 -5.55 5.5 -5.35 5.3 -5.15 5.1 -4.85 5.1 -4.55 5.1 -4.35 5.3 -4.15 5.5 -4.15 5.8 -4.15 6.1 -4.4 6.3 M-16.5 5.1 Q-16.4 5.2 -16.4 5.3 L-16.6 5.55 Q-16.8 5.7 -16.85 5.7 L-17.2 5.7 Q-17.3 5.7 -17.3 5.4 -17.3 5.1 -17.05 5.05 L-16.6 5.0 -16.5 5.1 M-18.2 6.1 Q-18.5 6.3 -19.3 6.3 -20.15 6.3 -20.85 6.0 -21.55 5.65 -21.55 5.3 -21.55 5.05 -21.0 4.9 -20.5 4.7 -19.8 4.7 -18.05 4.6 -18.05 5.5 -18.05 5.95 -18.2 6.1 M-17.75 12.25 Q-17.75 11.9 -17.5 11.65 -17.3 11.5 -16.95 11.5 -16.65 11.5 -16.4 11.65 -16.15 11.85 -16.15 12.2 -16.15 12.6 -16.55 12.8 -16.75 12.9 -16.95 12.9 -17.55 12.9 -17.7 12.6 L-17.75 12.25" fill="#bfdcff" fill-opacity="0.7529412" fill-rule="evenodd" stroke="none"/>
    <path d="M45.1 -23.85 L44.9 -23.6 44.5 -23.6 44.4 -23.65 Q44.35 -23.75 44.35 -23.8 L44.45 -24.3 44.85 -24.3 45.1 -23.85 M36.2 -0.35 Q36.1 -0.1 35.8 0.0 35.6 -0.1 35.45 -0.25 35.6 -0.45 35.75 -0.55 L36.05 -0.65 36.2 -0.35 M50.05 -9.1 L49.75 -9.1 Q49.65 -9.1 49.65 -9.4 49.65 -9.7 49.9 -9.75 L50.3 -9.8 Q50.3 -9.4 50.05 -9.1 M31.6 2.0 Q31.4 2.2 31.15 2.2 30.6 2.2 30.45 1.9 30.4 1.8 30.4 1.55 30.4 1.2 30.65 1.0 30.85 0.8 31.1 0.8 31.4 0.8 31.6 1.0 31.8 1.2 31.8 1.5 31.8 1.8 31.6 2.0 M33.0 11.65 Q33.3 11.65 33.5 11.85 33.7 12.1 33.7 12.45 33.7 12.7 33.6 12.9 33.4 13.15 33.0 13.25 L32.35 13.0 32.3 12.85 32.3 12.45 Q32.3 12.1 32.5 11.85 32.7 11.65 33.0 11.65 M22.05 4.5 Q22.05 5.0 22.05 4.95 L21.9 5.05 21.55 5.2 21.15 4.8 Q21.05 4.7 21.05 4.6 21.05 4.45 21.3 4.3 21.55 4.1 21.55 3.85 L21.85 4.15 Q22.05 4.4 22.05 4.5 M5.55 6.85 L5.4 6.95 5.05 7.1 4.6 6.7 Q4.5 6.6 4.5 6.45 4.5 6.3 4.65 6.15 4.85 5.95 5.05 5.9 5.6 5.75 5.6 6.45 5.6 6.9 5.55 6.85 M2.2 18.45 L2.15 18.8 2.1 19.05 1.9 19.1 1.5 19.25 0.85 19.05 Q0.8 18.9 0.8 18.45 0.8 18.1 1.0 17.85 1.2 17.65 1.5 17.65 1.8 17.65 2.0 17.85 2.2 18.1 2.2 18.45 M-44.95 -24.35 Q-45.0 -24.25 -45.1 -24.15 -45.25 -24.0 -45.4 -23.95 L-45.7 -24.05 Q-45.8 -24.1 -45.8 -24.4 -45.8 -24.45 -45.65 -24.6 -45.5 -24.8 -45.3 -24.95 -45.05 -24.8 -44.95 -24.35 M-31.95 -0.8 Q-32.05 -0.7 -32.35 -0.7 -32.55 -0.7 -32.75 -0.9 L-33.05 -1.25 -32.95 -1.7 Q-32.0 -1.7 -31.8 -1.15 L-31.95 -0.8 M-19.55 4.9 Q-19.4 5.0 -19.4 5.3 -19.4 5.75 -19.45 5.7 L-19.6 5.8 -19.85 5.9 Q-20.35 5.45 -20.35 5.3 -20.35 5.0 -20.15 4.9 -20.15 4.85 -19.85 4.75 L-19.55 4.9 M-17.8 12.7 Q-17.85 12.65 -17.85 12.3 -17.85 12.0 -17.7 11.9 -17.65 11.85 -17.45 11.8 -17.15 11.9 -17.0 12.3 L-17.15 12.7 -17.45 12.8 -17.8 12.7" fill="#ffffff" fill-rule="evenodd" stroke="none"/>
  </g>
</svg>
