<?xml version="1.0" encoding="UTF-8" standalone="no"?>
<svg xmlns:ffdec="https://www.free-decompiler.com/flash" xmlns:xlink="http://www.w3.org/1999/xlink" ffdec:objectType="shape" height="49.05px" width="56.9px" xmlns="http://www.w3.org/2000/svg">
  <g transform="matrix(1.0, 0.0, 0.0, 1.0, 31.6, 25.6)">
    <path d="M12.15 -21.2 L15.35 -18.9 Q17.9 -16.75 19.65 -14.25 20.5 -13.0 21.5 -11.15 22.9 -9.65 24.05 -5.05 25.3 -0.05 25.3 3.35 25.3 7.05 24.7 9.25 24.0 11.95 21.65 15.8 21.05 16.85 19.65 18.9 L18.25 20.9 17.95 21.05 Q16.4 21.9 14.75 22.25 13.55 22.55 8.05 23.1 L4.75 23.45 4.85 23.35 4.3 23.3 3.85 23.2 1.75 23.35 -0.35 23.45 -7.3 23.3 -10.4 23.3 -12.1 23.25 -13.65 23.2 Q-18.9 22.85 -21.85 22.1 L-23.55 21.6 Q-24.25 21.4 -24.7 21.35 L-27.0 18.15 Q-29.0 15.4 -29.95 11.5 L-29.95 11.5 -30.05 11.65 Q-30.7 10.75 -31.05 9.1 -31.45 6.8 -31.6 6.45 L-31.6 3.7 -31.5 3.7 Q-31.35 5.25 -30.85 7.6 L-30.65 8.55 Q-30.9 7.1 -31.0 5.35 L-31.2 3.9 -31.2 2.95 -31.15 2.95 -31.15 1.0 Q-31.15 -4.95 -28.4 -10.3 -25.85 -15.2 -21.35 -18.9 -17.15 -22.45 -12.1 -24.15 -7.8 -25.6 -3.9 -25.4 2.85 -26.3 8.2 -23.65 10.0 -22.75 12.15 -21.2 M10.85 -5.25 Q10.85 -6.55 10.3 -8.2 9.65 -10.1 8.5 -11.7 5.55 -15.85 0.85 -16.25 -6.75 -17.05 -10.05 -12.35 -11.2 -10.75 -11.75 -8.55 -12.1 -7.1 -12.1 -5.75 -12.1 -5.0 -11.75 -3.55 -11.2 -1.35 -10.15 0.5 -6.95 6.05 -0.35 6.05 1.3 6.05 3.15 5.4 5.15 4.65 6.8 3.3 10.85 0.0 10.85 -5.25" fill="url(#gradient0)" fill-rule="evenodd" stroke="none"/>
    <path d="M2.7 -13.05 Q2.5 -13.25 2.1 -13.5 L1.65 -13.7 Q2.1 -14.0 2.5 -13.8 2.8 -13.7 3.1 -13.2 3.05 -13.05 2.7 -13.05 M6.4 -11.55 Q6.4 -13.75 7.4 -11.4 7.75 -10.55 8.05 -9.5 8.35 -8.5 8.35 -8.25 8.35 -8.0 8.75 -7.35 9.15 -6.7 9.15 -6.45 9.05 -6.25 8.65 -5.95 8.25 -6.35 8.25 -6.8 8.25 -7.05 8.35 -7.35 8.35 -7.75 7.95 -8.9 7.5 -10.05 7.5 -10.15 L6.95 -10.7 Q6.4 -11.25 6.4 -11.55 M5.4 -6.0 Q5.4 -6.55 5.75 -7.95 L5.9 -7.95 6.1 -7.85 Q6.2 -7.75 6.2 -7.45 6.2 -7.05 6.0 -6.45 5.8 -5.9 5.55 -5.5 L5.45 -5.6 Q5.4 -5.7 5.4 -6.0 M3.2 -3.4 Q3.55 -3.7 4.95 -4.55 4.8 -4.2 4.5 -3.85 4.1 -3.45 3.55 -3.15 L3.4 -3.2 Q3.25 -3.3 3.2 -3.4 M8.4 -0.5 Q8.4 0.0 7.25 1.45 5.95 3.0 5.1 3.0 4.8 3.0 4.6 2.5 4.45 2.1 4.45 1.9 4.45 1.5 6.05 -0.25 7.75 -2.2 8.65 -2.3 L8.75 -1.75 Q8.75 -1.05 8.6 -0.9 8.4 -0.75 8.4 -0.5 M-3.5 -15.2 L-4.85 -14.3 -5.05 -14.25 Q-5.2 -14.25 -5.2 -14.55 -5.2 -14.75 -3.35 -15.45 -1.45 -16.1 -0.5 -16.05 L-0.45 -15.85 -0.35 -15.6 -0.5 -15.2 -2.05 -15.3 -3.5 -15.2 M-5.0 -10.7 L-4.95 -10.75 Q-4.85 -10.75 -4.85 -10.45 -4.85 -10.2 -5.0 -9.6 L-5.25 -8.55 -5.3 -8.5 Q-5.35 -8.35 -5.45 -8.3 -5.95 -9.0 -5.95 -9.25 -5.95 -9.5 -5.6 -10.05 -5.2 -10.6 -5.0 -10.7 M-6.0 -13.65 Q-5.6 -13.6 -5.55 -13.5 -9.1 -11.35 -9.6 -10.2 -9.8 -9.7 -9.8 -8.9 -9.7 -7.85 -9.7 -7.1 -9.7 -6.4 -9.75 -6.2 -9.9 -5.55 -10.45 -5.2 L-10.9 -6.05 Q-11.0 -6.3 -11.0 -6.8 -11.0 -7.25 -10.4 -8.95 -9.8 -10.7 -9.8 -10.8 -9.8 -12.65 -8.55 -13.15 -8.1 -13.3 -7.3 -13.45 L-6.0 -13.65 M-8.9 -0.95 Q-8.9 -2.7 -6.85 -0.6 -6.1 0.1 -5.35 1.05 -4.7 1.95 -4.6 2.25 -4.7 2.4 -4.95 2.55 -5.2 2.75 -5.45 2.75 -6.8 2.75 -8.0 0.95 -8.35 0.35 -8.7 -0.35 L-8.9 -0.95 M-5.35 -5.0 Q-5.3 -4.7 -4.55 -4.05 -3.55 -3.15 -3.3 -2.8 -3.35 -2.8 -3.85 -2.65 L-4.6 -2.4 Q-4.85 -3.05 -5.35 -3.65 -5.7 -4.0 -5.7 -4.45 -5.7 -4.9 -5.65 -5.0 L-5.35 -5.0 M-2.7 2.95 Q-2.7 3.05 -3.0 3.05 L-3.35 3.0 -3.45 2.85 -3.45 2.6 -3.2 2.6 Q-3.0 2.65 -2.7 2.75 L-2.7 2.95" fill="#ffffff" fill-opacity="0.5019608" fill-rule="evenodd" stroke="none"/>
  </g>
  <defs>
    <linearGradient gradientTransform="matrix(0.0, -0.0347, 0.03, 0.0, -3.15, -1.1)" gradientUnits="userSpaceOnUse" id="gradient0" spreadMethod="pad" x1="-819.2" x2="819.2">
      <stop offset="0.0" stop-color="#99ffc5" stop-opacity="0.0"/>
      <stop offset="1.0" stop-color="#ffffff" stop-opacity="0.7529412"/>
    </linearGradient>
  </defs>
</svg>
