<?xml version="1.0" encoding="UTF-8" standalone="no"?>
<svg xmlns:ffdec="https://www.free-decompiler.com/flash" xmlns:xlink="http://www.w3.org/1999/xlink" ffdec:objectType="shape" height="32.2px" width="56.2px" xmlns="http://www.w3.org/2000/svg">
  <g transform="matrix(1.0, 0.0, 0.0, 1.0, 31.0, 25.6)">
    <path d="M3.85 -24.1 L2.75 -24.45 1.55 -24.55 Q0.6 -24.65 0.3 -24.8 L0.25 -25.1 Q2.65 -25.95 4.4 -25.3 5.0 -25.1 5.95 -24.55 7.2 -23.85 7.7 -23.65 L7.75 -23.5 5.85 -23.6 Q5.4 -23.75 5.05 -23.75 4.75 -23.75 3.85 -24.1 M11.9 -21.2 L10.3 -22.0 Q8.7 -22.75 8.35 -23.15 L8.35 -23.2 Q8.65 -23.2 10.2 -22.35 11.65 -21.6 11.95 -21.35 L11.9 -21.2 M23.95 -5.15 L24.35 -4.2 24.75 -3.3 24.75 -2.45 24.55 -2.4 Q24.55 -2.85 24.3 -3.75 L23.8 -5.1 23.95 -5.15 M25.15 -0.75 Q25.15 -0.6 25.0 -0.5 24.75 -0.75 24.75 -1.15 L24.9 -1.15 25.0 -0.9 Q25.05 -0.75 25.15 -0.75 M19.35 -12.95 Q16.5 -17.0 15.5 -18.25 16.9 -17.15 19.25 -13.6 22.0 -9.5 22.85 -8.55 21.6 -9.75 19.35 -12.95 M25.2 4.45 Q25.2 4.75 25.1 5.1 L24.85 5.7 24.75 5.35 Q24.65 5.15 24.65 4.85 24.65 4.6 24.8 4.1 L24.95 3.35 25.1 3.35 Q25.2 3.9 25.2 4.45 M-30.2 -2.6 L-30.2 -2.25 Q-30.2 -1.45 -30.45 0.35 -30.75 2.15 -30.75 2.95 -30.75 4.25 -30.7 4.4 L-30.0 6.35 -30.05 6.6 -30.2 6.6 Q-30.35 5.2 -30.75 4.5 -31.0 3.95 -31.0 3.0 L-30.7 0.45 Q-30.4 -2.0 -30.4 -2.7 L-30.25 -2.7 -30.2 -2.6 M-8.6 -24.35 Q-9.0 -24.45 -9.6 -24.2 L-10.25 -24.25 Q-9.75 -24.4 -9.15 -24.85 -8.45 -25.35 -8.15 -25.5 -7.95 -25.6 -6.3 -25.5 L-4.6 -25.4 -3.3 -25.3 Q-2.35 -25.25 -2.25 -25.15 L-2.2 -25.0 -2.45 -25.05 -2.85 -25.1 Q-4.75 -25.1 -5.55 -24.6 -6.4 -24.15 -7.6 -24.15 -7.95 -24.15 -8.6 -24.35 M-26.1 -13.1 L-26.25 -13.1 Q-26.2 -14.85 -23.6 -17.1 -22.9 -17.7 -19.15 -20.35 -22.0 -17.8 -22.95 -16.85 -24.75 -15.05 -26.1 -13.1 M-27.05 -11.5 Q-27.35 -10.6 -28.2 -8.95 L-28.5 -8.95 Q-28.3 -9.3 -27.8 -10.5 -27.45 -11.4 -27.05 -11.5 M-29.25 -6.35 Q-29.25 -6.25 -29.35 -6.05 L-29.5 -5.8 -29.65 -5.8 Q-29.65 -5.95 -29.55 -6.25 L-29.45 -6.6 -29.3 -6.6 -29.25 -6.35" fill="url(#gradient0)" fill-rule="evenodd" stroke="none"/>
  </g>
  <defs>
    <linearGradient gradientTransform="matrix(0.0343, 0.0, 0.0, 0.0197, -2.9, -9.5)" gradientUnits="userSpaceOnUse" id="gradient0" spreadMethod="pad" x1="-819.2" x2="819.2">
      <stop offset="0.0" stop-color="#99ffc5" stop-opacity="0.0"/>
      <stop offset="1.0" stop-color="#ffffff" stop-opacity="0.7529412"/>
    </linearGradient>
  </defs>
</svg>
