<?xml version="1.0" encoding="UTF-8" standalone="no"?>
<svg xmlns:ffdec="https://www.free-decompiler.com/flash" xmlns:xlink="http://www.w3.org/1999/xlink" ffdec:objectType="shape" height="23.05px" width="21.1px" xmlns="http://www.w3.org/2000/svg">
  <g transform="matrix(1.0, 0.0, 0.0, 1.0, 11.6, 18.95)">
    <path d="M0.1 -1.3 L0.35 -1.3 Q0.15 -1.1 0.1 -1.3 M4.25 -12.15 L4.1 -12.15 4.0 -12.2 Q2.75 -13.35 0.35 -14.05 -2.0 -13.9 -3.55 -12.15 -7.75 -7.5 -2.35 -4.35 -3.15 -4.4 -3.95 -4.95 L-4.4 -5.45 Q-5.35 -6.75 -6.15 -8.15 -5.8 -9.8 -5.15 -11.35 -4.1 -13.7 -1.65 -14.35 2.6 -15.45 4.25 -12.15 M9.4 -6.3 Q9.2 -2.75 7.4 -0.4 5.15 2.95 0.55 3.9 -3.0 4.65 -6.2 2.65 -13.1 -1.6 -11.2 -10.0 -10.05 -15.05 -5.05 -17.0 -2.1 -18.15 0.55 -18.95 10.3 -15.65 9.4 -6.7 L9.4 -6.3 M-1.8 -15.7 Q-3.6 -15.35 -4.9 -13.9 -9.35 -8.8 -6.4 -3.2 -5.1 -0.75 -5.3 -1.3 -5.1 -1.75 -4.0 -1.3 4.5 1.95 6.05 -6.6 7.65 -15.85 -1.8 -15.7" fill="#ffff33" fill-rule="evenodd" stroke="none"/>
  </g>
</svg>
