<?xml version="1.0" encoding="UTF-8" standalone="no"?>
<svg xmlns:ffdec="https://www.free-decompiler.com/flash" xmlns:xlink="http://www.w3.org/1999/xlink" ffdec:objectType="shape" height="20.8px" width="19.4px" xmlns="http://www.w3.org/2000/svg">
  <g transform="matrix(1.0, 0.0, 0.0, 1.0, 10.25, 18.2)">
    <path d="M9.1 -8.35 Q9.3 -3.55 5.8 -0.45 -0.2 4.9 -7.15 0.9 -9.3 -0.3 -9.8 -2.65 -12.45 -15.25 0.25 -18.2 8.75 -16.7 9.1 -8.35 M7.35 -11.4 L7.25 -11.4 Q6.2 -16.1 0.0 -17.3 -9.25 -15.3 -8.55 -6.0 -8.4 -3.65 -6.55 -2.15 L-5.3 -1.25 Q-5.25 -1.15 -5.25 -1.2 1.75 3.55 6.1 -3.95 6.95 -5.45 7.25 -7.1 7.6 -9.35 7.3 -11.15 7.55 -11.0 7.7 -10.7 L7.8 -10.45 7.8 -10.3 Q7.9 -9.95 7.95 -10.25 L7.95 -10.55 Q8.0 -10.85 7.75 -11.1 L7.55 -11.3 Q7.45 -11.35 7.35 -11.4" fill="#ffff33" fill-rule="evenodd" stroke="none"/>
  </g>
</svg>
