<?xml version="1.0" encoding="UTF-8" standalone="no"?>
<svg xmlns:ffdec="https://www.free-decompiler.com/flash" xmlns:xlink="http://www.w3.org/1999/xlink" ffdec:objectType="shape" height="19.7px" width="17.3px" xmlns="http://www.w3.org/2000/svg">
  <g transform="matrix(1.0, 0.0, 0.0, 1.0, 8.95, 17.85)">
    <path d="M7.55 -11.3 L7.45 -11.35 Q6.55 -16.5 -0.25 -17.55 L0.9 -17.85 Q11.1 -14.05 7.3 -4.45 4.25 3.45 -3.95 1.45 -7.9 0.5 -8.6 -3.2 -10.05 -10.95 -5.7 -14.8 -8.5 -12.2 -8.6 -8.1 -8.65 -7.1 -8.55 -6.0 -8.5 -5.05 -8.15 -4.2 L-8.05 -3.85 Q-7.25 -0.65 -4.05 0.2 5.15 2.65 7.2 -6.85 7.7 -9.15 7.5 -11.0 L7.7 -10.7 7.8 -10.45 7.8 -10.3 Q7.9 -9.95 7.95 -10.25 L7.95 -10.55 Q8.0 -10.85 7.75 -11.1 L7.55 -11.3" fill="#ffff33" fill-rule="evenodd" stroke="none"/>
  </g>
</svg>
