<?xml version="1.0" encoding="UTF-8" standalone="no"?>
<svg xmlns:ffdec="https://www.free-decompiler.com/flash" xmlns:xlink="http://www.w3.org/1999/xlink" ffdec:objectType="shape" height="19.55px" width="18.9px" xmlns="http://www.w3.org/2000/svg">
  <g transform="matrix(1.0, 0.0, 0.0, 1.0, 9.5, 16.35)">
    <path d="M4.1 -15.05 Q8.6 -13.15 9.3 -7.25 10.0 -1.75 5.55 1.2 0.4 4.65 -5.2 2.1 -8.2 0.7 -8.65 -1.65 -9.9 -3.55 -9.3 -6.65 -7.8 -14.35 -0.15 -16.35 1.3 -16.25 2.65 -15.75 L3.0 -15.6 3.4 -15.5 Q3.9 -15.35 4.1 -15.05 M6.8 -1.4 Q7.8 -3.3 7.95 -6.1 8.3 -13.7 0.7 -14.6 -0.7 -14.45 -1.85 -14.1 L-2.25 -13.95 Q-3.2 -13.5 -4.0 -13.2 -7.2 -11.35 -8.3 -7.05 L-8.45 -6.5 Q-8.8 -4.3 -7.95 -2.1 -5.0 2.95 1.45 1.45 5.05 0.6 6.8 -1.4 M-5.85 -11.9 L-5.85 -11.95 Q-6.45 -11.3 -6.95 -10.45 -7.9 -8.85 -8.3 -7.3 L-8.25 -7.45 Q-7.2 -11.05 -4.65 -13.0 L-4.95 -12.9 Q-5.45 -12.45 -5.85 -11.9" fill="#ffff33" fill-rule="evenodd" stroke="none"/>
  </g>
</svg>
