<?xml version="1.0" encoding="UTF-8" standalone="no"?>
<svg xmlns:ffdec="https://www.free-decompiler.com/flash" xmlns:xlink="http://www.w3.org/1999/xlink" ffdec:objectType="shape" height="4.4px" width="39.45px" xmlns="http://www.w3.org/2000/svg">
  <g transform="matrix(1.0, 0.0, 0.0, 1.0, 19.95, 4.4)">
    <path d="M8.0 -3.6 Q7.7 -3.6 7.5 -3.75 L7.45 -3.8 7.45 -3.95 Q7.5 -4.1 7.65 -4.15 L8.4 -4.3 8.5 -4.3 Q9.45 -4.45 10.3 -4.05 11.05 -3.75 11.85 -3.75 12.6 -3.7 13.25 -3.4 L13.35 -3.4 Q13.4 -3.4 13.45 -3.45 L13.5 -3.5 13.55 -3.5 13.55 -3.55 13.65 -3.55 13.75 -3.5 14.0 -3.4 Q14.1 -3.3 14.15 -3.2 L14.15 -3.05 14.1 -2.85 Q14.05 -2.75 14.0 -2.7 12.6 -2.75 11.2 -3.05 9.6 -3.35 8.0 -3.6 M16.6 -2.65 Q17.2 -2.4 17.85 -2.2 18.5 -2.05 19.05 -1.8 19.5 -1.65 19.5 -1.2 19.15 -0.75 18.55 -1.1 18.0 -1.4 17.4 -1.7 L16.45 -2.1 16.4 -2.15 16.4 -2.2 16.35 -2.3 16.3 -2.35 16.3 -2.5 16.45 -2.65 16.6 -2.65 M15.75 -2.75 L15.7 -2.7 Q15.5 -2.55 15.25 -2.55 14.95 -2.55 14.65 -2.65 L14.6 -2.7 14.6 -2.8 Q14.6 -2.9 14.65 -2.95 14.75 -3.05 14.9 -3.05 L15.35 -3.05 Q15.55 -3.05 15.65 -2.85 15.7 -2.8 15.75 -2.75 M-17.65 -1.9 L-17.55 -1.85 -17.4 -1.7 Q-17.75 -1.35 -18.15 -1.0 L-18.9 -0.35 Q-19.15 -0.1 -19.45 0.0 -19.55 -0.3 -19.35 -0.5 L-18.75 -1.0 -18.3 -1.45 Q-18.3 -1.55 -18.2 -1.65 -18.05 -1.85 -17.8 -1.85 L-17.65 -1.9 M-15.45 -2.6 Q-15.4 -2.45 -15.45 -2.35 -15.65 -1.9 -16.2 -1.75 L-17.1 -1.7 -17.15 -1.7 -17.15 -1.75 Q-17.15 -2.0 -16.95 -2.2 L-16.55 -2.5 Q-16.35 -2.6 -16.15 -2.65 L-15.65 -2.65 -15.45 -2.6 M-13.95 -2.6 Q-14.0 -2.6 -14.05 -2.65 -13.7 -3.45 -12.6 -3.6 -11.95 -3.65 -11.35 -3.95 -10.9 -4.2 -10.45 -4.15 -9.35 -4.1 -8.3 -4.2 L-7.35 -4.35 -6.85 -4.35 -6.35 -4.4 Q-6.05 -4.4 -6.0 -4.15 L-6.0 -4.05 -6.05 -4.0 -6.05 -3.95 -6.1 -3.9 -6.25 -3.9 -6.75 -3.85 Q-8.7 -3.2 -10.9 -3.2 -12.0 -3.2 -12.95 -2.8 -13.45 -2.6 -13.95 -2.6" fill="#ccfffe" fill-opacity="0.7529412" fill-rule="evenodd" stroke="none"/>
    <path d="M9.6 -3.65 L8.4 -3.85 Q7.85 -3.95 7.4 -4.1 7.55 -4.2 7.7 -4.15 L7.8 -4.15 8.3 -4.2 9.1 -4.15 Q9.5 -4.05 9.9 -3.9 10.15 -3.8 10.35 -3.65 10.05 -3.55 9.6 -3.65 M11.1 -3.55 Q11.7 -3.45 12.25 -3.55 12.85 -3.65 13.1 -3.2 12.65 -2.95 12.15 -3.15 11.55 -3.4 10.95 -3.5 10.35 -3.6 10.15 -3.85 10.65 -3.65 11.1 -3.55 M15.1 -2.75 Q14.55 -2.75 14.8 -2.9 L15.15 -2.85 15.4 -2.75 15.45 -2.7 15.4 -2.7 15.1 -2.75 M17.1 -2.2 Q17.4 -2.0 17.85 -1.85 18.45 -1.7 18.75 -1.2 18.3 -1.4 17.7 -1.7 17.1 -1.95 16.45 -2.15 15.85 -2.35 16.05 -2.6 16.6 -2.5 17.1 -2.2 M-19.65 -0.5 Q-19.8 -0.45 -19.95 -0.4 -19.85 -0.55 -19.6 -0.7 L-19.2 -0.95 Q-19.1 -1.05 -19.0 -1.1 L-18.95 -1.1 Q-19.05 -0.9 -19.25 -0.75 L-19.65 -0.5 M-18.05 -1.65 Q-18.1 -1.55 -18.2 -1.55 -18.35 -1.5 -18.45 -1.4 -18.6 -1.25 -18.7 -1.35 -18.7 -1.4 -18.6 -1.45 -18.4 -1.5 -18.25 -1.6 L-18.05 -1.65 M-11.85 -3.8 L-11.6 -3.8 -11.4 -3.85 -11.1 -3.8 -11.05 -3.8 -10.75 -3.75 Q-10.7 -3.75 -10.7 -3.7 -10.35 -4.0 -9.8 -3.85 -9.35 -3.9 -8.9 -4.05 L-8.45 -4.15 -7.0 -4.3 -6.9 -4.3 -6.8 -4.25 -6.7 -4.25 Q-7.15 -3.9 -7.95 -3.9 -8.45 -3.9 -8.95 -3.75 -9.35 -3.65 -9.5 -3.75 L-9.75 -3.75 -10.65 -3.7 -10.65 -3.65 Q-10.95 -3.55 -11.35 -3.45 L-11.95 -3.35 Q-12.35 -3.3 -12.45 -3.45 -12.45 -3.4 -12.55 -3.35 L-12.85 -3.25 Q-13.0 -3.15 -13.1 -3.25 -13.1 -3.4 -12.95 -3.45 L-12.65 -3.5 -12.55 -3.55 -12.45 -3.45 -12.5 -3.55 Q-12.35 -3.8 -11.95 -3.75 L-11.85 -3.8 M-16.55 -2.15 Q-16.8 -2.05 -17.05 -2.0 L-17.4 -1.95 Q-17.35 -2.2 -17.1 -2.25 L-16.45 -2.4 Q-16.35 -2.4 -16.25 -2.45 -16.2 -2.3 -16.55 -2.15 M-13.55 -3.2 L-13.35 -3.2 Q-13.45 -3.05 -13.7 -3.0 L-14.05 -2.95 Q-14.25 -2.9 -14.35 -3.05 L-14.0 -3.15 -13.7 -3.2 -13.55 -3.2" fill="#ffffff" fill-rule="evenodd" stroke="none"/>
  </g>
</svg>
