<?xml version="1.0" encoding="UTF-8" standalone="no"?>
<svg xmlns:ffdec="https://www.free-decompiler.com/flash" xmlns:xlink="http://www.w3.org/1999/xlink" ffdec:objectType="shape" height="23.65px" width="38.6px" xmlns="http://www.w3.org/2000/svg">
  <g transform="matrix(1.0, 0.0, 0.0, 1.0, 19.15, 23.45)">
    <path d="M6.2 -15.35 L6.2 -15.2 Q6.2 -13.95 6.0 -12.75 5.8 -11.4 5.0 -10.35 4.9 -11.35 4.35 -12.1 3.0 -13.8 0.95 -12.95 -4.0 -11.0 -2.9 -6.1 -2.6 -4.7 -1.2 -4.6 3.1 -4.15 4.85 -8.0 5.1 -8.55 5.3 -9.15 6.2 -12.0 6.45 -15.1 7.45 -13.85 7.85 -11.9 9.1 -5.6 4.8 -1.25 3.8 -0.2 2.25 -0.05 -1.1 0.15 -4.35 -0.05 -6.55 -0.15 -7.9 -1.9 -11.8 -7.05 -8.0 -11.8 -6.9 -13.15 -4.95 -12.95 -4.45 -12.9 -4.05 -13.25 -1.65 -15.5 1.2 -17.05 4.5 -17.15 6.2 -15.35" fill="#ccfffe" fill-opacity="0.5019608" fill-rule="evenodd" stroke="none"/>
    <path d="M14.55 -23.45 L14.8 -23.45 14.95 -23.4 15.05 -23.35 Q15.15 -19.75 12.85 -16.9 11.45 -15.15 9.75 -13.7 L9.9 -13.8 Q11.2 -14.95 12.85 -16.0 15.35 -17.6 18.0 -18.9 L18.85 -19.25 Q19.95 -18.45 19.0 -17.15 17.7 -15.35 15.9 -14.05 14.0 -12.7 11.75 -12.1 11.25 -11.85 10.7 -11.65 8.8 -10.95 7.15 -11.15 L7.15 -11.25 Q7.25 -11.5 7.45 -11.6 L7.9 -11.9 Q8.45 -12.6 9.15 -13.2 8.25 -12.5 7.25 -11.85 5.6 -10.8 3.7 -10.45 3.4 -12.25 5.15 -13.7 L5.95 -14.3 Q6.85 -15.4 7.85 -16.45 10.15 -18.75 12.25 -21.2 13.2 -22.3 14.2 -23.15 L14.5 -23.45 14.55 -23.45 M12.3 -19.65 L10.15 -17.3 9.95 -17.05 9.95 -17.25 6.35 -13.65 Q5.35 -12.65 4.55 -11.45 6.85 -13.2 9.05 -15.15 10.9 -16.8 12.35 -18.85 12.9 -19.65 13.15 -20.45 12.7 -20.1 12.3 -19.65 M16.75 -17.6 L16.65 -17.55 16.5 -17.4 16.4 -17.35 16.6 -17.4 16.75 -17.55 16.75 -17.6 M13.6 -14.45 Q12.8 -14.0 12.0 -13.5 13.95 -13.95 15.65 -14.95 16.8 -15.6 17.6 -16.65 L18.6 -17.95 Q17.3 -17.15 16.1 -16.15 14.95 -15.15 13.6 -14.45 M10.55 -15.4 L10.3 -15.1 11.05 -15.85 Q11.25 -16.0 11.2 -16.05 L10.55 -15.4 M7.7 -13.0 Q7.95 -13.2 7.85 -13.25 7.65 -13.15 7.45 -13.05 L7.0 -12.6 7.3 -12.75 7.7 -13.0 M11.35 -7.6 L10.9 -7.45 10.65 -7.4 10.55 -7.35 Q11.3 -6.05 9.15 -5.8 7.45 -5.55 6.1 -6.3 L7.05 -5.2 7.75 -4.35 Q6.2 -2.9 4.7 -4.3 3.85 -5.1 3.65 -6.3 3.6 -6.8 3.65 -7.35 L3.65 -7.4 3.7 -7.5 3.75 -7.55 3.95 -7.65 4.1 -7.7 Q4.4 -7.6 4.65 -7.45 4.1 -8.2 4.4 -9.2 4.45 -9.25 4.5 -9.3 5.75 -8.85 7.05 -8.45 8.35 -8.05 9.7 -8.0 10.65 -8.0 11.35 -7.6 M6.05 -9.9 Q7.2 -10.8 9.15 -10.75 10.4 -10.75 11.65 -11.15 14.25 -11.95 16.65 -13.2 17.2 -11.2 14.9 -9.8 12.8 -8.55 10.3 -8.6 7.8 -8.6 6.05 -9.9 M2.45 -13.3 L2.5 -13.25 2.55 -13.15 2.55 -12.95 Q2.2 -12.2 1.55 -11.9 2.8 -11.2 1.9 -9.4 L1.9 -9.3 Q3.35 -7.75 2.25 -5.65 L1.8 -4.95 1.95 -4.8 Q3.5 -2.85 2.1 -0.65 1.95 -0.4 1.75 -0.25 L1.5 0.2 1.2 0.15 Q1.05 0.15 1.0 0.0 1.4 -1.65 0.55 -2.9 L0.0 -2.1 Q-0.55 -1.3 -0.8 -0.45 -0.65 -0.35 -0.5 -0.25 -0.35 -0.2 -0.35 0.0 -1.25 0.6 -1.9 -0.8 -2.8 -2.75 -1.25 -4.35 L-1.2 -4.4 Q-2.05 -5.0 -2.35 -5.85 L-2.45 -5.55 Q-2.85 -3.95 -4.6 -3.5 -5.75 -3.25 -6.75 -3.8 -6.85 -4.95 -5.55 -5.55 -5.05 -5.75 -4.65 -6.25 -5.0 -6.05 -5.4 -5.9 -6.9 -5.35 -8.55 -5.7 -9.9 -6.0 -10.6 -7.1 -10.75 -7.3 -10.7 -7.5 -7.65 -8.2 -4.5 -9.0 L-4.1 -9.05 -3.85 -9.0 -3.7 -9.0 -3.5 -8.9 Q-3.3 -8.05 -3.6 -7.4 L-3.5 -7.45 Q-2.9 -7.4 -2.6 -7.05 L-2.55 -7.5 Q-2.45 -8.8 -1.55 -9.45 -1.8 -11.2 -0.85 -11.85 -1.8 -12.15 -2.25 -13.2 -2.35 -13.45 -2.0 -13.6 -1.1 -13.9 -0.15 -13.9 0.4 -13.85 0.95 -13.9 1.5 -13.95 2.1 -13.9 2.55 -13.8 2.6 -13.5 L2.6 -13.45 2.5 -13.4 2.45 -13.35 2.45 -13.3 M0.65 -12.85 L0.25 -12.8 0.2 -12.8 Q-0.05 -12.65 0.75 -12.8 L1.25 -12.9 0.95 -12.9 0.65 -12.85 M1.75 -8.25 Q1.75 -6.95 0.75 -5.9 L0.85 -5.8 1.45 -5.35 Q1.55 -5.65 1.55 -6.0 1.95 -6.5 2.0 -7.1 2.1 -7.75 1.75 -8.25 M1.25 -8.45 Q0.5 -7.75 -0.55 -8.2 -0.45 -7.15 0.25 -6.35 L0.7 -7.15 1.25 -8.45 M0.8 -10.55 Q0.65 -10.85 0.4 -10.95 0.05 -10.65 -0.1 -10.2 -0.2 -9.75 -0.05 -9.3 0.05 -9.0 0.25 -8.8 0.65 -9.05 0.85 -9.6 1.0 -10.05 0.8 -10.55 M4.85 -5.0 Q4.85 -4.85 4.95 -4.8 5.05 -4.75 5.0 -4.9 4.9 -5.0 4.85 -5.0 M1.35 -3.8 L1.5 -3.65 1.5 -3.6 1.4 -3.4 1.5 -3.25 1.65 -3.0 Q1.7 -2.9 1.65 -2.75 L1.6 -2.7 1.35 -2.7 Q1.65 -2.35 1.8 -1.9 L1.85 -1.95 Q2.3 -2.9 1.85 -3.8 1.7 -4.1 1.5 -4.35 L1.2 -3.9 1.35 -3.8 M15.3 -11.75 L13.95 -11.2 Q13.3 -10.9 12.65 -10.7 L11.75 -10.4 11.9 -10.35 12.1 -10.25 12.15 -10.2 12.2 -10.1 Q12.25 -9.7 13.15 -10.0 13.9 -10.3 14.6 -10.75 15.15 -11.1 15.4 -11.7 15.45 -11.8 15.3 -11.75 M-10.1 -16.7 L-10.1 -16.9 Q-10.1 -17.0 -10.0 -17.1 L-9.9 -17.15 Q-8.7 -16.3 -7.7 -15.0 -6.7 -13.7 -5.35 -12.9 -7.0 -14.55 -8.75 -16.65 -10.05 -18.25 -11.2 -19.95 -11.65 -20.6 -12.15 -21.05 -11.95 -20.1 -11.65 -19.2 -11.35 -18.3 -10.8 -17.45 -10.45 -16.9 -10.1 -16.7 M-13.2 -22.75 L-13.15 -22.8 -13.0 -22.85 Q-10.7 -20.75 -8.65 -18.3 -6.65 -15.85 -4.45 -13.5 L-1.95 -10.95 -2.0 -10.8 Q-2.0 -10.75 -2.05 -10.7 -2.2 -10.6 -2.3 -10.45 L-2.35 -10.3 Q-6.85 -11.45 -10.15 -14.9 -12.3 -17.1 -13.05 -20.0 -13.4 -21.3 -13.3 -22.7 L-13.2 -22.75 M-17.6 -16.25 Q-17.35 -15.75 -16.95 -15.4 L-16.45 -15.1 Q-16.85 -15.5 -17.15 -16.0 L-17.7 -16.8 -18.05 -17.2 Q-17.85 -16.7 -17.6 -16.25 M-18.7 -19.25 Q-16.35 -17.85 -14.05 -16.15 -11.85 -14.5 -9.35 -13.25 -7.85 -12.55 -6.7 -11.65 -8.0 -10.75 -9.5 -10.9 L-7.85 -10.65 Q-6.55 -10.55 -5.8 -9.75 -8.9 -7.4 -12.95 -8.7 -14.65 -9.25 -15.6 -10.7 -16.25 -11.65 -16.45 -12.8 -16.55 -13.2 -16.15 -13.3 -14.15 -12.6 -12.1 -11.75 L-11.4 -11.45 Q-14.55 -12.75 -17.2 -14.9 -18.8 -16.2 -19.1 -18.2 -19.2 -18.95 -18.7 -19.25 M-15.35 -15.9 Q-14.85 -15.5 -14.45 -15.1 -14.15 -14.8 -14.05 -14.45 -12.65 -13.6 -11.15 -13.05 L-9.35 -12.4 -12.85 -14.55 Q-13.95 -15.15 -14.9 -15.9 -15.6 -16.4 -16.2 -16.75 -15.85 -16.25 -15.35 -15.9 M-14.2 -11.0 L-14.05 -10.7 -13.75 -10.25 Q-13.05 -10.05 -12.95 -10.35 L-12.95 -10.45 Q-13.0 -11.0 -13.75 -11.0 L-14.2 -11.0 M-14.85 -11.75 Q-14.65 -11.9 -14.45 -11.9 -14.7 -12.15 -15.05 -12.3 -15.4 -12.4 -15.7 -12.4 L-15.45 -11.9 -15.15 -11.4 -14.95 -11.05 -15.0 -11.35 Q-15.0 -11.6 -14.85 -11.75 M-5.0 -7.55 L-5.2 -7.45 -5.15 -7.4 Q-5.05 -7.45 -4.95 -7.5 -4.85 -7.55 -4.85 -7.65 L-4.9 -7.65 -5.0 -7.55 M-6.4 -12.65 L-6.3 -12.6 -6.15 -12.5 -6.1 -12.5 -6.2 -12.55 -6.25 -12.6 -6.45 -12.75 -6.4 -12.65 M-10.3 -10.35 L-9.9 -10.25 -9.5 -10.2 -9.85 -10.3 -10.1 -10.35 -10.7 -10.45 -10.3 -10.35 M-7.0 -7.65 Q-7.45 -7.5 -7.95 -7.45 L-8.9 -7.4 Q-9.5 -7.3 -9.85 -7.05 L-9.8 -7.0 Q-9.65 -6.85 -9.5 -6.95 -9.05 -7.2 -8.55 -7.25 L-7.65 -7.25 Q-7.15 -7.25 -6.95 -7.65 L-7.0 -7.65 M-6.05 -4.25 Q-5.9 -4.2 -5.8 -4.2 L-5.25 -4.2 -5.3 -4.3 -5.35 -4.45 -5.35 -4.55 Q-5.3 -4.7 -5.25 -4.75 L-5.3 -4.75 -5.5 -4.65 -5.7 -4.5 Q-5.85 -4.45 -6.0 -4.3 L-6.05 -4.25 M-7.8 -6.65 Q-7.6 -6.65 -7.5 -6.7 -7.4 -6.8 -7.6 -6.7 L-7.8 -6.65 M-1.75 -6.7 L-1.65 -6.75 -1.65 -6.8 Q-1.8 -7.35 -1.65 -7.9 -1.85 -7.55 -1.8 -7.05 L-1.75 -6.7 M-1.15 -5.05 L-1.15 -5.05 M-0.45 -4.2 L-0.7 -4.5 -0.7 -4.45 -0.45 -4.2 M-0.8 -2.4 L0.0 -3.5 Q-0.35 -3.85 -0.85 -4.15 -1.45 -3.15 -1.5 -1.9 -1.5 -1.3 -1.25 -0.9 -1.35 -1.6 -0.8 -2.4" fill="#ccfffe" fill-opacity="0.7529412" fill-rule="evenodd" stroke="none"/>
  </g>
</svg>
