<?xml version="1.0" encoding="UTF-8" standalone="no"?>
<svg xmlns:ffdec="https://www.free-decompiler.com/flash" xmlns:xlink="http://www.w3.org/1999/xlink" ffdec:objectType="shape" height="19.1px" width="48.9px" xmlns="http://www.w3.org/2000/svg">
  <g transform="matrix(1.0, 0.0, 0.0, 1.0, 24.4, 5.0)">
    <path d="M7.1 -3.9 L7.2 -4.0 7.2 -4.05 7.25 -4.1 7.3 -4.1 7.3 -4.05 Q7.5 -3.95 7.7 -4.0 L7.95 -4.05 Q8.15 -4.2 8.45 -4.25 L11.05 -4.45 11.85 -4.5 12.25 -4.6 12.95 -4.5 13.6 -4.35 Q13.8 -4.3 13.8 -4.1 L13.8 -4.05 13.75 -4.0 Q13.7 -3.95 13.65 -3.95 L13.35 -3.85 Q14.15 -3.7 14.85 -3.95 L14.85 -4.0 15.0 -4.15 15.75 -4.05 Q16.1 -3.95 16.3 -3.65 L16.3 -3.6 Q17.3 -3.6 18.2 -3.3 L19.75 -2.8 Q19.9 -2.75 19.85 -2.6 L19.8 -2.45 Q21.2 -2.65 21.9 -1.65 22.3 -1.15 22.8 -0.7 24.95 1.15 24.4 3.9 24.0 6.1 21.8 7.0 19.0 8.1 16.25 9.45 15.1 10.0 13.8 9.65 12.4 9.25 10.95 9.55 9.8 9.8 8.65 10.35 7.25 11.0 5.8 10.7 5.55 10.7 5.45 10.45 L5.35 10.4 5.3 10.4 5.2 10.3 5.2 10.1 5.25 10.05 5.3 10.05 5.4 10.0 Q5.4 9.85 5.45 9.75 4.75 9.75 4.1 10.0 4.75 10.5 5.1 11.2 5.75 12.35 5.25 13.55 4.95 14.3 4.0 14.05 L3.85 13.9 3.65 13.75 3.6 13.65 Q4.15 12.95 3.65 12.15 3.05 11.15 2.15 10.75 L-1.15 10.45 Q-2.5 10.7 -3.5 11.75 -4.65 12.95 -6.15 13.45 -7.75 13.95 -8.05 12.8 L-8.05 12.7 -8.0 12.6 -7.85 12.45 Q-6.85 12.15 -5.9 11.65 -5.5 11.4 -5.2 11.05 L-4.8 10.5 -5.1 10.55 -5.9 10.5 Q-6.4 10.55 -6.55 10.2 -6.65 10.05 -6.75 9.9 -7.45 10.3 -8.4 10.1 L-9.6 9.95 -11.75 9.8 -12.5 9.85 Q-13.5 9.9 -14.4 9.45 -14.7 9.3 -14.7 9.05 L-14.7 9.0 -14.6 8.9 -14.5 8.9 -14.1 9.0 Q-14.4 8.7 -14.8 8.5 -15.75 8.1 -16.65 8.35 L-17.65 8.35 Q-19.55 8.5 -20.5 7.05 L-20.35 6.9 -20.25 6.9 -20.15 6.85 Q-20.2 6.8 -20.25 6.7 L-20.5 6.5 -20.7 6.35 Q-21.25 6.2 -21.8 5.85 L-22.25 5.6 Q-21.8 6.1 -21.2 6.5 -22.0 6.7 -22.8 5.85 -24.2 4.45 -24.35 2.6 -24.45 1.75 -23.9 1.05 L-21.95 -1.45 Q-20.15 -3.65 -17.15 -3.35 L-16.4 -3.3 Q-16.1 -3.3 -15.85 -3.45 -13.45 -4.9 -10.65 -5.0 L-10.3 -5.0 -10.15 -4.9 -10.1 -4.9 -10.1 -4.85 Q-10.05 -4.75 -10.1 -4.65 -10.2 -4.5 -10.35 -4.35 -10.4 -4.35 -10.35 -4.25 -8.65 -3.8 -6.8 -4.5 -6.0 -4.8 -5.55 -4.35 L-5.5 -4.3 -5.5 -4.15 -5.55 -4.05 -5.55 -4.0 Q-5.6 -4.0 -5.65 -3.95 L-6.65 -3.7 Q-7.05 -3.0 -7.95 -2.6 -9.15 -2.1 -10.45 -2.05 L-12.95 -2.0 -13.05 -2.1 -13.05 -2.15 Q-14.3 -2.05 -15.15 -1.2 -15.5 -0.85 -15.85 -0.6 -16.7 -0.05 -17.55 0.45 -18.0 0.7 -18.1 1.05 -18.15 1.95 -17.3 2.25 -17.15 2.2 -17.1 2.15 -16.4 1.6 -15.85 2.25 -15.8 2.35 -15.85 2.45 L-15.85 2.5 Q-16.05 2.65 -16.35 2.65 L-16.4 2.65 -16.4 2.7 -16.45 2.8 Q-16.45 2.9 -16.45 3.0 L-16.45 3.15 Q-15.9 3.55 -15.2 3.3 -14.25 3.05 -14.0 3.75 -13.95 3.95 -14.15 4.1 -13.0 4.25 -11.8 4.6 -11.3 4.7 -10.75 4.75 -9.9 4.8 -9.2 5.0 L-7.6 5.2 Q-6.7 5.3 -5.8 5.25 -4.7 5.15 -4.35 5.95 L-4.4 6.0 -4.5 6.05 -4.55 6.1 -5.0 6.1 -5.1 6.15 Q-4.8 6.35 -4.45 6.4 L-4.15 6.4 -4.4 6.15 -4.35 6.05 -4.25 5.95 -4.0 5.95 -3.85 6.0 -3.65 6.2 -3.65 6.25 -3.6 6.2 Q-3.55 6.05 -3.4 5.95 L-3.2 5.9 -2.95 5.85 Q-2.8 5.6 -2.75 5.25 -2.75 4.55 -3.2 4.1 -3.55 4.05 -3.85 3.8 L-3.95 3.65 -3.95 3.6 Q-4.7 3.3 -5.45 3.1 L-5.85 3.0 -5.7 2.85 Q-5.5 2.6 -5.25 2.55 L-5.1 2.5 -4.75 2.45 Q-3.9 2.7 -3.1 3.05 -2.6 3.2 -2.1 3.5 -1.6 3.9 -1.25 4.4 L-0.95 4.85 Q-0.45 5.5 0.35 5.5 0.55 5.3 0.55 5.05 L0.55 4.7 Q0.6 4.4 0.8 4.15 1.1 3.85 1.55 3.7 1.75 3.75 1.8 3.95 L1.8 4.2 1.85 4.45 Q1.85 4.65 1.8 4.8 L1.7 5.2 Q2.4 4.8 2.9 4.1 3.55 3.2 4.65 2.75 5.75 2.25 6.25 2.95 6.1 3.3 5.65 3.45 L5.55 3.5 Q5.5 3.75 5.25 4.05 4.8 4.65 4.5 5.35 L4.65 5.55 4.65 5.7 4.6 5.85 Q5.8 5.45 7.15 5.5 L7.45 5.5 Q10.3 5.45 13.05 4.9 14.9 4.55 16.45 3.6 17.1 3.2 17.8 2.9 19.35 2.25 18.55 0.9 18.2 0.3 17.65 -0.15 16.4 -1.25 14.75 -1.75 14.35 -1.85 14.0 -2.05 13.55 -2.3 13.0 -2.45 12.25 -2.45 11.55 -2.6 L12.2 -2.55 Q11.9 -2.6 11.6 -2.75 10.0 -3.35 8.35 -3.45 7.95 -3.45 7.75 -3.65 L7.8 -3.7 7.4 -3.8 7.05 -3.8 7.05 -3.85 7.1 -3.9 M12.7 -3.75 L12.7 -3.75 M13.3 -2.85 L13.2 -2.85 13.75 -2.7 14.2 -2.55 Q13.8 -2.8 13.3 -2.85 M13.8 -3.0 L13.25 -3.1 13.4 -3.0 13.35 -2.9 14.5 -2.7 14.6 -2.8 13.95 -2.9 Q13.85 -2.9 13.8 -3.0 M15.75 -2.45 L15.95 -2.45 Q15.75 -2.5 15.6 -2.65 L15.6 -2.45 15.75 -2.45 M19.35 -2.35 L19.35 -2.3 19.4 -2.2 19.65 -2.1 19.45 -2.2 Q19.4 -2.3 19.35 -2.35 M20.05 -0.7 L20.35 -0.5 20.35 -0.6 20.4 -0.65 Q19.85 -0.9 19.35 -1.1 19.35 -1.5 18.75 -1.4 L18.95 -1.3 Q19.5 -1.0 20.05 -0.7 M21.25 1.95 L21.3 1.9 21.25 1.9 21.05 1.95 20.9 2.1 21.0 2.25 21.25 1.95 M20.6 2.45 L20.5 2.6 20.65 2.55 20.6 2.45 M22.65 3.2 L22.5 3.35 22.4 3.4 22.25 3.55 Q22.2 3.65 22.2 3.75 L22.35 3.65 22.5 3.45 22.65 3.2 M18.85 0.0 L18.9 0.1 19.0 0.1 18.85 0.0 M19.4 1.2 L19.3 1.1 19.05 1.0 Q19.2 1.45 19.2 2.0 L19.45 1.45 Q19.45 1.3 19.4 1.2 M19.45 4.2 Q19.6 4.1 19.8 4.05 L19.85 3.95 Q20.0 3.85 20.05 3.75 20.05 3.65 20.05 3.7 L19.45 4.2 M17.55 4.5 L17.95 4.45 18.0 4.3 17.55 4.5 M17.85 6.7 Q17.9 6.55 18.0 6.45 17.75 6.5 17.55 6.65 17.4 6.85 17.1 6.95 L17.1 7.0 Q17.2 7.3 17.15 7.5 L17.7 7.2 17.65 7.15 Q17.65 7.05 17.7 7.0 17.8 6.9 17.85 6.7 M17.75 5.35 L17.7 5.3 17.25 5.55 17.4 5.55 Q17.6 5.4 17.75 5.35 M7.1 6.15 L7.1 6.15 M1.2 6.1 L1.15 6.05 1.1 6.1 1.2 6.1 M1.0 6.8 Q0.05 6.85 -0.85 7.3 -1.2 7.5 -1.6 7.55 L-1.45 7.6 -0.7 7.55 -0.6 7.55 Q-0.5 7.5 -0.6 7.3 L-0.55 7.3 -0.55 7.25 -0.45 7.15 0.1 7.1 0.5 7.05 Q0.75 6.85 1.0 6.8 M2.65 6.9 L2.65 6.9 M9.45 9.05 L7.45 9.4 Q8.15 9.45 8.8 9.25 9.15 9.1 9.45 9.05 M-20.4 -0.95 L-19.5 -1.25 Q-18.9 -1.4 -18.35 -1.7 L-18.65 -1.65 -19.05 -1.5 -19.75 -1.15 Q-20.1 -1.05 -20.4 -0.95 M-20.3 -0.4 Q-20.5 -0.25 -20.7 -0.15 L-20.8 -0.05 -20.8 0.0 -20.75 0.0 -20.4 -0.2 -20.3 -0.4 M-15.3 -2.5 Q-15.5 -2.4 -15.7 -2.4 L-15.7 -2.35 -15.55 -2.4 -14.25 -2.65 -14.4 -2.8 -14.35 -2.95 -14.6 -2.85 -15.15 -2.7 -15.15 -2.6 Q-15.2 -2.55 -15.3 -2.5 M-5.05 2.8 L-4.85 2.85 -4.75 2.85 Q-4.85 2.8 -5.05 2.8 M-7.4 9.05 Q-8.05 8.9 -8.75 8.95 L-7.9 9.05 Q-7.65 9.1 -7.45 9.2 L-6.8 9.2 -7.4 9.05 M-2.8 7.75 L-3.0 7.85 -3.75 8.1 -3.6 8.25 -3.65 8.35 -3.65 8.45 Q-3.4 8.35 -3.05 8.35 L-2.9 8.3 -2.4 8.25 -2.25 8.2 Q-2.3 8.15 -2.35 8.1 L-2.45 8.1 -2.6 8.0 -2.7 7.9 -2.7 7.85 -2.8 7.75 M-4.5 9.05 L-4.5 9.05 M-5.7 12.3 Q-5.9 12.35 -5.9 12.45 L-5.7 12.4 Q-5.4 12.25 -5.7 12.3 M-14.75 4.3 L-14.55 4.3 -14.65 4.25 -14.75 4.3 M-18.95 2.7 L-18.95 2.75 -18.8 2.85 -18.95 2.7 M-20.15 3.1 L-20.05 3.05 -20.2 2.55 Q-20.25 2.65 -20.35 2.65 L-20.15 3.05 -20.15 3.1 M-21.0 1.3 L-21.0 1.3 M-20.75 5.85 Q-21.05 5.65 -21.35 5.5 L-21.4 5.5 -21.45 5.55 Q-21.1 5.65 -20.8 5.8 L-20.75 5.85" fill="#ccfffe" fill-opacity="0.7529412" fill-rule="evenodd" stroke="none"/>
    <path d="M9.9 -3.9 Q10.15 -3.8 10.35 -3.65 10.05 -3.55 9.6 -3.65 L8.4 -3.85 Q7.85 -3.95 7.4 -4.1 7.55 -4.2 7.7 -4.15 L7.8 -4.15 8.3 -4.2 9.1 -4.15 Q9.5 -4.05 9.9 -3.9 M10.5 -3.9 L10.55 -3.9 Q11.8 -3.75 13.1 -3.5 L13.15 -3.5 Q13.45 -3.5 13.7 -3.4 L13.8 -3.35 14.9 -3.15 Q15.15 -3.2 15.45 -3.15 15.7 -3.1 15.95 -3.0 L16.2 -2.95 Q16.9 -2.85 17.3 -2.55 L17.4 -2.6 Q18.3 -2.35 19.15 -2.0 L19.3 -1.95 19.4 -1.9 Q20.1 -1.6 20.8 -1.25 21.7 -1.15 22.3 -0.5 L22.5 -0.4 Q22.8 -0.25 23.05 0.0 24.35 1.25 24.05 3.2 L24.05 3.25 24.0 3.25 23.95 3.3 23.85 3.3 Q23.8 4.0 23.15 4.55 22.4 5.15 21.55 5.65 20.75 6.1 19.95 6.35 19.25 6.65 18.55 6.9 17.55 7.25 16.6 7.4 L16.6 7.45 16.55 7.5 13.6 8.15 13.4 8.2 Q11.7 8.65 9.95 8.8 9.95 9.25 9.3 9.25 5.7 9.25 2.1 9.25 1.55 9.3 0.95 9.25 L-4.95 9.65 Q-5.0 9.65 -5.05 9.6 -5.2 9.4 -5.45 9.3 L-6.8 9.2 -11.45 8.75 -11.45 8.7 Q-11.4 8.55 -11.25 8.5 -13.0 8.3 -14.75 7.7 L-15.75 7.35 -15.75 7.4 Q-16.55 7.75 -17.7 7.25 -18.85 6.75 -19.95 6.2 -20.85 5.75 -21.55 5.15 -22.15 5.0 -22.7 4.45 L-23.2 3.95 Q-24.15 2.85 -23.5 1.45 -23.15 0.7 -22.55 0.2 -22.2 -0.1 -21.8 -0.35 L-21.5 -0.6 Q-21.35 -0.65 -21.2 -0.7 L-20.55 -1.05 Q-20.1 -1.3 -19.65 -1.55 -18.8 -1.95 -17.9 -2.25 -17.6 -2.35 -17.2 -2.45 -16.65 -2.7 -16.1 -2.85 L-15.9 -2.8 -15.75 -2.75 Q-15.35 -3.1 -14.75 -3.2 L-12.9 -3.5 -12.45 -3.55 Q-12.35 -3.8 -11.95 -3.75 L-11.85 -3.8 -11.6 -3.8 -11.4 -3.85 -11.1 -3.8 -11.05 -3.8 -10.75 -3.75 -10.65 -3.75 Q-10.3 -3.95 -9.8 -3.85 L-9.65 -3.9 -9.6 -3.9 -8.9 -4.05 -8.45 -4.15 -7.0 -4.3 -6.9 -4.3 -6.8 -4.25 -6.7 -4.25 Q-7.15 -3.9 -7.95 -3.9 -8.45 -3.9 -8.95 -3.75 L-9.5 -3.75 Q-10.55 -3.45 -11.6 -3.35 -13.1 -2.8 -14.8 -2.4 -15.35 -2.25 -15.85 -2.05 -16.9 -1.5 -17.9 -0.95 L-18.45 -0.55 -18.4 -0.5 Q-18.35 -0.5 -18.25 -0.5 L-18.15 -0.45 -18.1 -0.45 -18.35 -0.15 -18.6 0.25 Q-18.7 0.45 -18.85 0.6 -18.75 0.85 -18.7 1.1 L-18.3 2.0 Q-18.1 2.45 -17.8 2.85 L-15.2 4.35 Q-14.95 4.5 -14.7 4.7 -13.6 4.8 -12.4 5.0 -11.1 5.25 -9.85 5.65 L-9.8 5.7 -9.5 5.65 -9.1 5.55 Q-8.3 5.55 -7.65 5.95 -7.25 6.25 -6.75 6.1 -5.95 5.9 -5.35 6.25 L-5.3 6.35 Q-5.25 6.75 -4.5 6.75 -0.4 6.7 3.65 6.3 4.35 6.25 5.0 6.05 6.4 5.65 7.9 5.85 L10.35 6.05 11.95 5.8 Q12.6 5.2 13.55 5.05 15.2 4.75 16.75 4.05 L17.75 3.55 Q17.8 3.15 18.2 2.9 18.6 2.6 18.85 2.2 19.05 1.85 19.15 1.45 19.3 1.15 19.35 0.8 L19.4 0.5 Q19.3 0.45 19.25 0.35 L19.2 0.3 Q18.65 -0.05 18.25 -0.6 L17.95 -1.0 16.95 -1.5 16.95 -1.6 16.75 -1.65 Q15.6 -1.9 14.7 -2.45 L15.1 -2.5 14.95 -2.5 14.65 -2.55 Q13.05 -2.85 11.55 -3.25 11.1 -3.4 10.75 -3.55 10.45 -3.6 10.3 -3.7 10.2 -3.75 10.1 -3.8 L10.15 -3.85 10.45 -3.9 10.5 -3.9 M19.25 -0.4 L19.4 -0.2 19.35 -0.3 19.35 -0.4 19.25 -0.45 19.25 -0.4 M22.0 -0.25 L21.95 -0.25 21.9 -0.3 22.0 -0.25 M23.3 1.95 L23.3 1.85 23.25 1.85 23.3 2.0 23.3 1.95 M22.5 1.65 Q22.5 1.75 22.55 1.8 L22.6 1.4 22.55 1.55 22.5 1.65 M21.35 1.65 L21.35 1.7 Q21.35 1.8 21.4 1.8 21.5 1.8 21.45 1.75 L21.35 1.65 M21.65 0.45 L21.75 0.45 Q21.7 0.35 21.6 0.4 L21.55 0.4 21.6 0.45 21.65 0.45 M20.6 1.7 L20.55 1.7 20.35 2.05 20.15 2.25 20.35 2.1 20.6 1.75 20.6 1.7 M18.55 4.45 L18.6 4.45 18.7 4.35 18.55 4.45 M17.65 6.6 L17.4 6.7 17.45 6.7 17.55 6.8 Q17.55 6.65 17.65 6.6 M17.55 6.8 L17.5 6.85 17.6 6.8 17.55 6.8 M21.5 3.75 L21.5 3.75 M21.0 3.75 L20.8 3.9 20.85 3.95 20.85 4.0 21.0 3.75 M13.3 6.15 L13.3 6.15 M13.7 5.9 L13.7 5.9 M15.15 5.75 L15.3 5.75 15.4 5.8 15.4 5.75 15.15 5.75 M16.15 5.5 Q16.25 5.4 16.2 5.4 L16.1 5.45 Q16.05 5.6 16.15 5.5 M13.4 7.6 L13.8 7.5 13.8 7.45 13.65 7.5 13.45 7.55 13.4 7.6 M9.6 6.7 L9.75 6.7 Q10.2 6.65 10.6 6.7 L9.6 6.7 M-18.95 -0.1 L-19.05 0.15 -19.15 0.25 -19.1 0.3 -18.85 -0.1 -18.55 -0.45 -18.95 -0.1 M-10.9 5.9 L-10.9 5.9 M-7.7 7.55 L-7.55 7.6 -7.6 7.55 -7.8 7.5 -7.7 7.55 M-8.15 8.6 L-8.1 8.6 -8.3 8.55 -8.6 8.55 -8.4 8.6 -8.15 8.6 M-4.65 8.7 L-4.5 8.65 -6.05 8.65 -5.0 8.7 -4.5 8.75 -4.65 8.7 M-14.6 5.8 L-14.6 5.75 -14.65 5.8 -14.6 5.8 M-13.2 5.7 L-13.2 5.7 M-14.45 5.9 L-14.45 5.9 M-20.2 1.7 Q-20.15 1.7 -20.15 1.6 L-20.2 1.7 M-19.9 1.0 L-19.95 1.05 -20.0 1.15 -19.9 1.2 -19.9 1.0 M-19.15 1.5 L-19.15 1.5 M-19.6 2.45 L-19.65 2.45 -19.55 2.5 -19.6 2.4 -19.6 2.45 M-20.05 2.9 L-20.05 2.9 M-22.3 1.95 L-22.35 1.6 -22.4 1.95 -22.3 1.95 M-22.2 3.3 L-21.95 3.6 -22.15 3.3 -22.2 3.3 M-22.55 2.8 L-22.5 2.9 -22.5 2.75 -22.55 2.75 -22.55 2.8 M-22.9 3.7 L-23.1 3.4 -23.15 3.3 Q-23.15 3.25 -23.2 3.25 L-23.2 3.3 -23.1 3.6 Q-23.0 3.7 -22.9 3.7 M-13.85 7.25 L-14.3 7.15 -14.3 7.2 -14.4 7.25 -13.85 7.25 M-23.3 3.05 Q-23.3 3.15 -23.25 3.15 -23.2 3.05 -23.25 3.0 L-23.3 2.8 Q-23.3 2.7 -23.35 2.7 L-23.3 2.9 Q-23.3 3.0 -23.3 3.05" fill="#ffffff" fill-rule="evenodd" stroke="none"/>
  </g>
</svg>
