<?xml version="1.0" encoding="UTF-8" standalone="no"?>
<svg xmlns:ffdec="https://www.free-decompiler.com/flash" xmlns:xlink="http://www.w3.org/1999/xlink" ffdec:objectType="shape" height="22.9px" width="40.8px" xmlns="http://www.w3.org/2000/svg">
  <g transform="matrix(1.0, 0.0, 0.0, 1.0, 20.25, 22.85)">
    <path d="M11.15 -22.6 L11.2 -22.45 11.1 -22.2 Q10.9 -21.9 10.55 -22.05 10.4 -22.15 10.4 -22.3 L10.4 -22.55 Q10.45 -22.7 10.55 -22.8 L10.75 -22.85 10.95 -22.8 11.15 -22.6 M6.5 -17.05 Q6.75 -17.0 6.8 -16.8 6.9 -16.65 6.85 -16.45 6.85 -16.3 6.75 -16.2 L6.5 -16.15 Q6.3 -16.15 6.1 -16.25 6.0 -16.25 5.95 -16.35 5.95 -16.45 6.0 -16.5 L6.25 -16.9 Q6.35 -17.05 6.5 -17.05 M-7.0 -19.6 L-6.85 -19.55 -6.7 -19.55 Q-6.85 -19.45 -6.95 -19.3 L-7.1 -19.05 -7.15 -19.0 -7.35 -18.95 Q-7.6 -18.9 -7.75 -19.1 L-7.8 -19.25 -7.8 -19.35 Q-7.75 -19.5 -7.65 -19.65 -7.5 -19.75 -7.35 -19.75 L-7.15 -19.7 -7.0 -19.6" fill="#ccfffe" fill-opacity="0.7529412" fill-rule="evenodd" stroke="none"/>
    <path d="M15.3 -20.8 Q14.95 -17.45 12.45 -14.85 11.75 -14.1 10.95 -13.4 13.5 -14.95 16.1 -16.45 L20.2 -18.75 Q21.1 -17.55 19.9 -16.1 17.8 -13.55 14.75 -12.05 12.2 -10.8 9.3 -10.4 L8.8 -10.4 Q8.65 -10.35 8.4 -10.3 7.25 -10.25 7.4 -11.1 5.35 -10.15 3.05 -10.2 3.4 -11.3 4.55 -12.35 7.45 -14.9 10.35 -17.4 12.55 -19.25 14.9 -20.85 L15.1 -20.9 15.3 -20.8 M14.2 -19.0 Q13.9 -18.65 13.75 -18.25 13.65 -17.8 13.45 -17.45 L13.15 -17.0 Q13.5 -17.3 13.65 -17.75 L14.05 -18.55 14.2 -19.0 M15.55 -15.0 Q14.95 -14.65 14.4 -14.3 L13.25 -13.45 12.55 -12.9 Q13.1 -13.05 13.75 -13.45 14.4 -13.9 15.0 -14.35 15.5 -14.75 15.55 -15.0 M15.9 -14.35 L15.05 -13.65 Q16.05 -14.05 16.9 -14.75 17.7 -15.4 18.4 -16.1 18.8 -16.5 18.85 -16.75 18.0 -16.25 17.3 -15.6 L15.9 -14.35 M13.0 -18.15 Q11.4 -16.6 9.6 -15.25 7.75 -13.85 5.9 -12.55 4.95 -11.9 4.05 -10.9 6.9 -11.75 9.55 -13.7 11.2 -14.95 12.25 -16.65 12.75 -17.45 13.0 -18.15 M10.6 -12.35 Q10.6 -12.3 10.7 -12.35 10.85 -12.45 10.7 -12.4 L10.6 -12.35 M11.15 -12.7 L10.85 -12.5 11.5 -12.6 Q11.8 -12.65 11.85 -12.9 11.85 -13.05 11.8 -13.1 L11.55 -12.95 Q11.35 -12.85 11.15 -12.7 M6.4 -9.65 L6.4 -9.8 Q11.05 -10.35 15.5 -12.0 L16.65 -12.45 16.85 -12.45 17.0 -12.4 17.05 -12.35 Q16.9 -9.9 14.5 -8.8 12.25 -7.7 9.7 -7.75 8.75 -7.8 8.05 -8.5 L7.85 -8.75 7.3 -8.9 7.25 -8.95 6.85 -9.0 Q6.6 -9.05 6.45 -9.2 L6.4 -9.3 6.4 -9.65 M8.35 -9.45 Q10.85 -9.35 13.15 -10.4 14.35 -10.9 15.35 -10.65 L15.4 -10.6 Q15.4 -10.45 15.5 -10.6 L15.7 -10.75 Q15.85 -10.9 15.95 -11.1 L16.1 -11.25 Q16.2 -11.35 16.2 -11.45 16.25 -11.5 16.2 -11.5 L16.1 -11.5 13.2 -10.5 Q11.8 -10.0 10.35 -9.75 9.35 -9.55 8.35 -9.45 M2.15 -12.7 Q1.65 -12.25 1.05 -12.0 2.5 -11.05 2.0 -9.75 L2.05 -9.75 Q2.1 -9.7 2.15 -9.7 2.9 -7.75 2.15 -5.85 L1.7 -4.95 Q2.8 -3.85 2.4 -2.1 2.2 -1.05 1.6 -0.4 L1.5 -0.05 1.25 0.0 1.05 0.0 Q0.95 -0.05 0.9 -0.1 1.4 -1.75 0.45 -2.95 L0.0 -2.35 Q-0.6 -1.6 -0.4 -0.7 -0.3 -0.4 -0.45 -0.15 -2.7 0.15 -2.2 -2.1 -1.95 -3.35 -1.4 -4.5 -2.0 -5.1 -2.35 -5.8 -2.45 -5.45 -2.65 -5.05 -3.4 -3.8 -4.8 -3.25 -5.5 -2.95 -6.25 -3.4 -6.6 -4.65 -5.2 -5.4 -4.75 -5.7 -4.45 -6.15 L-4.45 -6.2 Q-4.95 -5.75 -5.7 -5.4 -7.65 -4.55 -9.55 -5.5 -10.75 -6.1 -10.85 -7.1 -7.25 -7.25 -3.85 -8.45 L-3.7 -8.4 -3.4 -8.25 Q-3.5 -7.5 -3.9 -6.9 -3.55 -7.2 -3.1 -7.4 L-3.1 -7.45 -2.95 -7.45 -2.85 -7.4 Q-2.9 -8.75 -1.6 -9.5 -1.8 -10.2 -1.1 -11.2 -0.85 -11.55 -0.45 -11.75 -1.15 -11.85 -1.9 -12.2 -2.2 -12.35 -2.15 -12.7 -2.15 -13.9 -0.65 -13.95 1.35 -14.45 2.25 -13.15 2.4 -12.95 2.15 -12.7 M0.65 -11.25 L0.35 -11.3 0.3 -11.3 Q0.05 -11.1 -0.1 -10.8 -0.2 -10.5 -0.25 -10.15 L-0.25 -9.7 Q0.3 -9.65 0.75 -10.2 1.1 -10.65 0.8 -11.1 L0.75 -11.25 0.65 -11.25 M1.1 -9.1 L1.2 -9.25 1.35 -9.45 1.3 -9.45 1.2 -9.3 1.1 -9.2 1.0 -9.05 1.1 -9.1 M1.25 -8.65 Q0.65 -8.0 -0.2 -8.3 -0.55 -8.45 -0.85 -8.65 -1.1 -7.2 0.0 -6.2 0.55 -6.45 0.9 -7.25 1.2 -7.9 1.25 -8.65 M4.35 -9.2 Q7.65 -7.85 11.35 -7.45 11.65 -7.4 11.55 -7.05 11.1 -5.4 9.1 -5.35 L6.3 -5.5 5.85 -5.6 Q6.2 -5.15 6.65 -4.7 L7.5 -3.9 7.5 -3.5 7.45 -3.45 Q4.95 -2.5 3.8 -4.8 3.25 -5.85 3.55 -6.9 3.65 -7.35 4.05 -7.5 3.8 -8.4 4.35 -9.2 M4.65 -5.95 L4.55 -6.05 4.65 -5.9 4.7 -5.8 4.8 -5.7 4.75 -5.8 4.65 -5.95 M4.95 -5.45 L5.1 -5.15 Q5.2 -5.0 5.35 -4.9 5.45 -4.75 5.6 -4.65 L5.4 -4.95 Q5.3 -5.05 5.2 -5.2 L4.95 -5.5 4.95 -5.45 M4.85 -4.3 Q5.0 -4.15 5.25 -4.05 5.1 -4.3 4.85 -4.5 4.65 -4.7 4.55 -4.95 4.45 -5.15 4.35 -5.2 4.35 -4.9 4.55 -4.7 L4.85 -4.3 M1.75 -6.3 Q1.75 -6.2 1.75 -6.35 1.75 -6.45 1.8 -6.5 1.9 -6.6 1.85 -6.65 L1.8 -6.65 1.8 -6.55 1.75 -6.4 1.75 -6.3 M0.9 -3.55 Q1.45 -2.85 1.6 -1.95 1.75 -2.55 1.75 -3.1 1.75 -3.8 1.4 -4.35 L0.9 -3.55 M0.3 -5.25 L-0.2 -4.85 -0.4 -4.7 -0.25 -4.65 0.0 -4.45 0.3 -4.9 0.5 -5.15 0.3 -5.25 M8.9 -6.7 L8.45 -6.7 8.5 -6.55 8.5 -6.35 8.45 -6.25 Q8.35 -6.15 8.2 -6.2 7.95 -6.25 7.9 -6.1 9.25 -5.7 10.55 -6.5 L10.75 -6.7 Q9.9 -6.65 8.9 -6.7 M6.05 -4.25 L5.8 -4.4 5.85 -4.35 6.05 -4.2 6.15 -4.1 6.05 -4.25 M13.85 -9.75 L13.4 -9.6 Q13.3 -9.55 13.8 -9.7 L14.65 -10.0 Q14.8 -10.05 14.85 -10.15 14.6 -10.1 14.35 -10.0 14.1 -9.85 13.85 -9.75 M-10.3 -15.75 L-10.35 -15.7 Q-10.4 -15.65 -10.45 -15.65 L-10.55 -15.6 -10.6 -15.6 -7.85 -13.05 Q-6.15 -11.55 -4.05 -10.8 L-3.25 -10.65 Q-6.2 -12.95 -8.95 -15.55 L-9.05 -15.65 -9.15 -15.55 Q-9.3 -15.5 -9.45 -15.55 L-9.6 -15.65 -9.65 -15.65 Q-9.7 -15.6 -9.8 -15.55 -9.95 -15.5 -10.1 -15.65 L-10.25 -15.75 -10.3 -15.75 M-20.2 -18.6 L-20.1 -18.7 -19.95 -18.7 -19.75 -18.75 Q-17.0 -17.3 -14.3 -15.8 -12.95 -15.05 -11.6 -14.2 -12.2 -14.75 -12.7 -15.35 -14.7 -17.6 -14.45 -20.5 -14.45 -21.0 -14.0 -21.2 -11.55 -19.2 -9.25 -16.9 -7.0 -14.6 -4.6 -12.55 -3.15 -11.3 -1.95 -10.2 -3.55 -9.65 -5.4 -10.35 L-6.15 -10.65 -6.4 -10.65 Q-6.75 -10.7 -7.0 -10.45 L-7.8 -10.45 -7.35 -10.4 Q-6.55 -10.35 -6.0 -9.9 L-6.0 -9.85 -5.95 -9.8 -5.95 -9.55 Q-5.85 -9.5 -5.75 -9.35 -5.7 -9.25 -5.7 -9.1 -5.75 -9.0 -5.8 -8.95 -6.05 -8.75 -6.35 -8.8 -6.5 -8.8 -6.6 -8.85 L-6.65 -8.95 -6.65 -9.0 Q-9.05 -7.85 -11.9 -7.9 -14.05 -7.95 -15.65 -9.45 -16.65 -10.35 -17.55 -11.4 L-17.55 -11.6 -17.5 -11.65 -17.5 -11.7 -17.45 -11.75 Q-17.55 -12.0 -17.75 -12.2 L-18.0 -12.5 Q-18.1 -12.7 -18.05 -12.9 -17.95 -13.2 -17.7 -13.2 L-17.35 -13.1 Q-19.05 -14.25 -19.9 -16.15 -20.4 -17.3 -20.2 -18.6 M-15.05 -14.25 L-16.15 -15.05 -17.15 -15.8 Q-17.35 -15.95 -17.45 -16.0 L-16.65 -15.15 Q-16.25 -14.7 -15.7 -14.45 -15.35 -14.3 -15.05 -14.25 M-13.3 -14.3 L-13.05 -13.95 Q-12.9 -13.75 -12.7 -13.65 L-12.4 -13.55 -12.45 -13.55 -12.5 -13.65 -12.5 -13.7 -12.55 -13.75 -12.55 -13.95 -13.05 -14.2 -13.3 -14.3 M-14.65 -11.75 L-13.85 -11.55 Q-15.0 -11.9 -16.1 -12.4 -15.45 -12.0 -14.65 -11.75 M-12.65 -9.2 L-12.6 -9.0 Q-10.55 -8.65 -8.45 -9.1 L-8.3 -9.15 Q-8.95 -9.4 -9.55 -9.15 L-10.4 -9.15 Q-10.85 -9.25 -11.25 -9.4 L-11.35 -9.35 -11.45 -9.25 -11.55 -9.2 Q-11.9 -9.15 -12.25 -9.3 L-12.45 -9.35 Q-12.55 -9.4 -12.6 -9.45 L-12.85 -9.5 -12.9 -9.5 -12.8 -9.4 -12.65 -9.2 M-5.5 -7.15 L-5.85 -7.2 -5.9 -7.2 Q-6.5 -6.85 -7.2 -6.75 L-8.2 -6.7 -9.65 -6.6 -9.85 -6.55 -9.1 -5.95 Q-8.85 -5.8 -8.6 -5.75 -7.0 -5.45 -5.7 -6.3 L-5.15 -6.6 -5.1 -6.65 -5.2 -6.65 -5.35 -6.7 -5.45 -6.75 -5.5 -6.8 -5.5 -7.15 M-1.0 -6.15 L-0.95 -6.25 -1.25 -6.55 Q-1.15 -6.35 -1.0 -6.15 M-0.9 -5.25 Q-1.05 -5.35 -1.15 -5.4 L-0.95 -5.2 -0.9 -5.25 M-1.1 -3.6 Q-0.85 -3.7 -0.65 -3.85 L-0.9 -4.05 -1.1 -3.6 M-3.7 -5.9 Q-4.0 -5.5 -4.35 -5.1 -4.7 -4.7 -5.15 -4.4 -5.4 -4.25 -5.5 -3.95 -4.8 -4.05 -4.15 -4.65 -3.85 -4.95 -3.7 -5.4 -3.6 -5.7 -3.7 -5.9 M-1.2 -2.5 Q-1.45 -2.1 -1.4 -1.6 -1.35 -1.25 -1.15 -1.05 -1.1 -1.3 -1.05 -1.6 -1.05 -2.05 -0.85 -2.5 L-0.5 -3.2 Q-0.95 -2.95 -1.2 -2.5" fill="#ccfffe" fill-opacity="0.7529412" fill-rule="evenodd" stroke="none"/>
  </g>
</svg>
