<?xml version="1.0" encoding="UTF-8" standalone="no"?>
<svg xmlns:ffdec="https://www.free-decompiler.com/flash" xmlns:xlink="http://www.w3.org/1999/xlink" ffdec:objectType="shape" height="29.9px" width="45.15px" xmlns="http://www.w3.org/2000/svg">
  <g transform="matrix(1.0, 0.0, 0.0, 1.0, 22.15, 29.3)">
    <path d="M12.35 -28.65 L12.45 -28.75 12.65 -28.8 Q14.7 -27.8 14.0 -25.25 13.2 -22.45 11.95 -19.8 10.2 -16.2 6.7 -13.9 5.95 -13.45 5.1 -13.45 4.75 -13.45 4.45 -13.65 5.35 -16.9 7.4 -19.8 9.4 -22.6 11.0 -25.65 11.75 -27.05 12.3 -28.6 L12.35 -28.65 M22.0 -24.6 Q23.75 -23.15 22.45 -20.8 20.7 -17.6 17.45 -15.8 14.1 -13.95 10.9 -14.7 L10.9 -14.75 11.1 -14.95 11.25 -15.05 Q13.4 -17.95 16.55 -20.15 18.85 -21.75 20.85 -23.75 21.35 -24.3 22.0 -24.6 M12.15 -23.8 Q12.0 -23.55 11.9 -23.25 11.85 -23.05 11.7 -22.85 12.25 -22.9 12.35 -23.5 L12.45 -24.2 Q12.5 -24.45 12.4 -24.4 12.3 -24.1 12.15 -23.8 M14.9 -17.45 Q16.5 -18.35 18.3 -19.15 19.55 -19.75 20.25 -21.0 20.6 -21.65 20.7 -22.05 L18.45 -20.25 16.2 -18.5 14.9 -17.45 M20.75 -14.5 L20.6 -14.4 20.4 -14.3 Q19.95 -14.1 20.7 -14.35 L20.9 -14.55 Q21.0 -14.65 20.85 -14.55 L20.75 -14.5 M10.7 -22.95 Q9.85 -21.7 9.1 -20.35 8.4 -18.95 7.5 -17.7 L6.5 -16.2 Q7.6 -17.25 8.45 -18.65 9.3 -20.0 10.0 -21.35 10.5 -22.25 10.7 -22.95 M11.05 -23.5 Q11.05 -23.4 11.1 -23.65 11.2 -23.8 11.1 -23.75 11.05 -23.6 11.05 -23.5 M10.4 -8.75 Q11.6 -8.4 12.9 -8.3 14.1 -8.25 15.3 -8.3 16.15 -8.4 16.85 -8.1 17.0 -7.45 17.0 -6.7 17.05 -5.7 15.95 -5.35 12.0 -4.25 9.75 -7.0 9.45 -7.3 9.55 -7.8 9.65 -8.6 10.4 -8.75 M0.85 -12.0 Q2.2 -11.25 1.5 -9.55 3.3 -8.15 2.1 -5.85 L1.75 -5.2 Q2.75 -4.2 2.7 -2.6 2.6 -1.6 2.1 -0.9 2.0 -0.5 1.7 -0.05 L1.4 -0.1 Q1.25 -0.15 1.1 -0.25 L1.0 -0.4 Q1.6 -2.05 0.55 -3.1 L-0.2 -1.85 Q-0.8 -0.9 -0.7 0.1 L-0.55 0.35 Q-0.5 0.45 -0.55 0.6 -2.9 -0.05 -2.15 -2.7 -1.9 -3.6 -1.5 -4.45 -2.75 -5.4 -2.8 -6.95 -2.85 -8.4 -1.65 -8.9 -2.1 -9.45 -2.1 -10.25 -2.05 -11.55 -1.1 -12.15 -1.6 -12.35 -2.1 -12.8 -2.55 -13.25 -2.0 -13.65 -1.5 -14.0 -0.95 -14.05 L0.45 -14.0 Q1.15 -13.95 1.8 -13.75 2.2 -13.65 2.45 -13.3 2.5 -12.9 2.2 -12.7 1.5 -12.2 0.85 -12.0 M1.2 -8.95 L1.4 -8.55 1.2 -9.0 1.2 -8.95 Q0.6 -8.0 -0.25 -8.1 -0.25 -7.7 -0.3 -7.2 -0.3 -6.9 -0.2 -6.65 L0.2 -7.15 Q0.95 -8.0 1.2 -8.95 M0.85 -10.3 Q0.7 -10.55 0.4 -10.65 L-0.3 -10.75 -0.45 -10.45 Q-0.5 -10.35 -0.5 -10.2 L-0.5 -9.95 Q-0.45 -9.75 -0.25 -9.65 -0.1 -9.55 -0.1 -9.4 L-0.1 -9.25 Q0.2 -9.05 0.55 -9.6 L0.75 -10.05 0.85 -10.3 M5.2 -6.8 L5.2 -6.85 Q5.9 -6.9 6.4 -6.5 6.9 -6.0 7.15 -5.35 7.3 -4.95 7.65 -4.65 7.5 -4.3 8.0 -3.8 8.5 -3.35 8.85 -2.75 9.1 -2.25 8.85 -1.75 L8.75 -1.65 Q6.8 -1.45 5.3 -2.6 4.3 -3.4 4.4 -4.65 4.4 -5.05 4.75 -5.25 L4.75 -6.35 Q4.75 -6.45 4.8 -6.6 L4.9 -6.7 5.0 -6.75 5.2 -6.8 M0.1 -5.05 L-0.05 -4.9 0.55 -4.35 0.75 -4.65 0.55 -4.75 0.1 -5.05 M1.0 -3.85 Q1.4 -3.35 1.7 -2.8 1.65 -3.3 1.45 -3.75 1.35 -4.0 1.2 -4.2 L1.0 -3.85 M1.2 -5.7 L1.45 -6.5 Q1.6 -7.0 1.6 -7.5 1.55 -6.65 0.9 -5.85 L1.2 -5.7 M11.7 -11.25 Q12.2 -12.2 13.3 -12.6 17.65 -14.0 21.65 -16.05 23.45 -14.8 21.55 -12.75 17.55 -8.3 12.0 -10.4 11.45 -10.65 11.7 -11.25 M13.8 -6.75 Q13.65 -6.65 13.55 -6.45 13.5 -6.35 13.6 -6.2 15.05 -5.65 16.35 -6.75 L16.35 -6.8 Q15.35 -7.35 14.1 -7.05 L13.8 -6.75 M-11.5 -15.25 Q-16.4 -15.35 -19.4 -19.2 -20.6 -20.75 -21.6 -22.45 -22.6 -24.2 -21.75 -25.4 -17.2 -23.5 -13.65 -19.85 -11.7 -17.85 -11.25 -15.45 -11.2 -15.25 -11.5 -15.25 M-10.05 -18.5 L-9.75 -18.15 -9.4 -17.75 Q-9.4 -17.95 -9.5 -18.15 L-9.7 -18.55 Q-9.85 -18.75 -10.05 -18.9 -10.25 -18.75 -10.05 -18.5 M-5.45 -14.6 Q-10.05 -15.5 -12.6 -19.65 -14.55 -22.8 -15.0 -26.5 -15.25 -28.4 -13.85 -29.3 -11.05 -27.3 -9.9 -23.95 -8.75 -20.75 -6.8 -17.95 -5.75 -16.4 -5.4 -14.75 -5.35 -14.7 -5.45 -14.6 M-21.1 -24.15 L-20.95 -23.75 -20.8 -23.3 -20.65 -22.95 -20.6 -22.95 Q-20.55 -23.05 -20.55 -23.15 L-20.55 -23.4 Q-20.35 -23.6 -20.1 -23.65 L-19.75 -23.7 Q-20.2 -23.95 -20.65 -24.15 L-21.1 -24.15 M-19.4 -15.6 Q-18.65 -14.25 -17.45 -13.35 -16.2 -12.45 -14.65 -12.25 -14.05 -12.15 -13.4 -12.5 -13.2 -12.6 -13.0 -12.75 -14.85 -13.2 -16.65 -13.95 -17.9 -14.5 -18.95 -15.5 -19.15 -15.7 -19.4 -15.6 M-20.35 -16.9 Q-18.45 -16.7 -16.85 -15.7 -15.3 -14.75 -13.65 -14.15 -12.6 -13.8 -11.5 -13.75 -9.6 -11.8 -12.25 -11.15 -16.85 -10.05 -19.45 -13.8 L-20.45 -15.25 Q-21.2 -16.3 -20.35 -16.9 M-11.7 -7.25 L-10.85 -7.3 -11.2 -7.35 -11.45 -7.3 -11.6 -7.25 -11.7 -7.25 M-12.65 -8.85 Q-9.9 -9.25 -8.75 -7.55 -8.55 -7.3 -8.85 -7.0 -12.0 -4.0 -15.25 -6.3 -17.0 -7.55 -15.4 -8.25 -14.15 -8.75 -12.65 -8.85 M-1.9 -7.15 Q-2.4 -6.4 -1.45 -5.85 L-0.95 -5.55 -0.8 -5.8 Q-1.65 -6.8 -1.35 -8.3 -1.5 -7.8 -1.9 -7.15 M-8.35 -1.0 Q-8.35 -2.3 -7.2 -3.1 -6.05 -3.95 -5.15 -5.05 -4.8 -5.45 -4.4 -5.6 -2.65 -4.55 -3.7 -2.55 -4.55 -0.9 -6.3 -0.5 -7.5 -0.25 -8.35 -1.0 M-0.7 -3.95 Q-1.3 -2.9 -1.25 -1.65 L-1.25 -1.6 Q-1.0 -2.4 -0.25 -3.25 L0.0 -3.55 Q-0.25 -3.75 -0.6 -3.9 L-0.7 -3.95 M-4.8 -3.6 L-4.9 -3.4 -4.95 -3.25 -5.0 -3.05 -4.95 -3.1 Q-4.9 -3.2 -4.85 -3.35 L-4.75 -3.6 -4.8 -3.6" fill="#ccfffe" fill-opacity="0.7529412" fill-rule="evenodd" stroke="none"/>
  </g>
</svg>
