<?xml version="1.0" encoding="UTF-8" standalone="no"?>
<svg xmlns:ffdec="https://www.free-decompiler.com/flash" xmlns:xlink="http://www.w3.org/1999/xlink" ffdec:objectType="shape" height="31.5px" width="47.95px" xmlns="http://www.w3.org/2000/svg">
  <g transform="matrix(1.0, 0.0, 0.0, 1.0, 23.75, 30.95)">
    <path d="M13.95 -29.45 Q14.45 -29.25 14.75 -28.85 15.0 -28.5 14.95 -28.15 14.85 -28.0 14.7 -27.95 L14.05 -27.65 Q13.3 -27.3 12.55 -27.75 L12.5 -27.7 12.35 -27.6 Q12.3 -27.55 12.2 -27.55 12.1 -27.55 12.0 -27.6 11.95 -27.65 11.9 -27.7 L11.85 -27.8 Q11.8 -27.9 11.8 -28.05 L11.8 -28.3 Q11.75 -28.55 11.6 -28.8 11.5 -29.0 11.6 -29.2 L11.65 -29.3 11.8 -29.35 12.2 -29.5 12.9 -29.65 Q13.45 -29.7 13.95 -29.45 M17.7 -23.35 Q17.6 -23.45 17.55 -23.6 17.55 -23.9 17.8 -24.0 L18.0 -24.1 Q20.1 -23.85 19.9 -22.1 19.75 -20.85 19.5 -19.7 19.4 -19.2 19.15 -18.75 18.7 -17.9 18.0 -18.0 L18.0 -18.3 18.05 -18.55 Q18.1 -18.7 18.25 -18.8 18.45 -19.1 18.8 -19.25 L19.05 -19.45 Q19.05 -19.75 19.1 -20.05 19.25 -20.65 18.7 -21.05 17.95 -21.65 18.15 -22.65 L18.15 -22.8 Q18.15 -22.95 17.95 -23.1 17.8 -23.2 17.7 -23.35 M19.0 -22.65 L19.2 -22.45 Q19.25 -22.35 19.2 -22.5 19.1 -22.7 19.0 -22.65 M22.5 -24.25 L23.65 -23.5 Q24.4 -22.95 23.7 -22.3 23.25 -21.9 22.75 -22.2 22.65 -22.55 22.55 -22.9 22.5 -23.2 22.3 -23.5 21.85 -24.05 22.5 -24.25 M21.45 -21.35 Q22.85 -20.35 23.35 -19.15 23.75 -18.5 24.0 -17.7 L24.1 -17.0 24.2 -16.9 24.15 -16.65 Q24.15 -15.25 23.25 -14.0 22.7 -13.3 22.0 -13.0 20.9 -12.1 19.35 -11.5 L19.55 -11.5 Q21.9 -11.65 23.25 -13.35 23.3 -13.1 23.25 -12.85 23.8 -11.0 21.9 -9.25 19.6 -7.05 16.25 -7.65 L9.9 -8.6 Q9.45 -8.65 9.0 -8.85 9.75 -9.65 10.7 -10.15 L9.7 -10.15 Q7.6 -10.25 6.05 -10.75 L6.85 -10.7 Q6.6 -10.9 6.35 -11.15 8.75 -11.35 10.85 -12.95 12.25 -14.0 13.6 -13.45 16.0 -13.7 17.25 -15.65 18.25 -17.2 19.75 -16.05 L20.05 -16.1 20.25 -16.15 Q21.05 -17.2 21.2 -18.4 21.4 -19.65 21.0 -20.75 20.65 -21.55 20.95 -22.0 21.25 -21.7 21.45 -21.35 M13.1 -16.95 L12.95 -17.05 12.8 -17.1 12.5 -16.9 12.1 -16.55 Q11.9 -16.45 11.65 -16.4 L11.7 -16.75 Q11.75 -17.05 11.95 -17.25 L12.35 -17.65 Q12.5 -17.85 12.65 -17.85 13.05 -17.9 13.3 -17.65 13.55 -17.45 13.7 -17.15 13.8 -16.95 14.05 -16.95 14.15 -16.95 14.25 -17.0 L14.35 -17.15 Q14.4 -17.35 14.6 -17.4 L14.8 -17.45 Q15.0 -17.45 15.15 -17.35 L15.65 -16.95 Q15.9 -16.7 15.7 -16.65 15.2 -16.6 14.75 -16.05 14.2 -15.45 13.55 -16.05 13.25 -16.4 13.35 -16.8 L13.25 -16.9 13.1 -16.95 M9.35 -13.55 Q9.2 -13.4 9.0 -13.35 8.8 -13.25 8.6 -13.25 8.65 -13.5 8.95 -13.6 L9.45 -13.85 9.6 -13.9 9.35 -13.55 M9.15 -7.4 L9.2 -7.45 9.5 -7.85 Q9.65 -8.05 9.95 -8.1 10.35 -8.1 10.65 -8.25 12.4 -8.15 14.0 -7.45 15.65 -6.7 17.5 -7.2 L18.95 -7.5 Q19.25 -7.6 19.45 -7.35 19.7 -6.4 18.75 -5.75 16.2 -3.95 13.05 -4.7 10.75 -5.3 9.35 -7.1 9.25 -7.25 9.15 -7.4 M0.6 -10.95 Q0.25 -11.3 -0.25 -11.1 -0.5 -10.9 -0.65 -10.6 -0.75 -10.4 -0.75 -10.1 L-0.65 -10.1 -0.5 -10.0 -0.45 -9.9 -0.65 -9.45 Q0.5 -8.5 0.85 -10.05 1.0 -10.6 0.6 -10.95 M2.15 -12.75 Q1.5 -12.3 0.75 -12.0 2.5 -11.1 1.4 -9.0 L1.45 -9.0 1.65 -9.05 1.65 -9.1 Q3.55 -7.65 2.0 -5.5 L1.7 -5.1 Q2.7 -4.0 2.5 -2.3 2.35 -0.9 1.5 0.25 L1.45 0.3 1.3 0.3 1.0 0.25 Q0.9 0.2 0.85 0.15 1.35 -1.6 0.3 -2.9 L-0.2 -1.95 Q-0.6 -1.1 -0.65 -0.2 L-0.4 0.1 -0.5 0.25 -0.75 0.45 -0.95 0.55 Q-2.4 -0.55 -2.3 -2.15 -2.35 -1.85 -2.5 -1.5 -2.9 -0.65 -3.75 -0.15 -6.15 1.35 -7.9 -0.45 -8.1 -0.65 -8.05 -0.85 L-8.35 -1.05 Q-8.5 -1.15 -8.5 -1.4 -7.2 -2.0 -6.2 -3.15 -5.55 -3.9 -5.05 -4.8 L-4.85 -5.1 -4.75 -5.15 -4.6 -5.2 -4.5 -5.25 Q-4.35 -5.1 -4.3 -4.85 L-4.35 -5.0 Q-4.35 -5.2 -4.25 -5.35 L-3.9 -5.45 -3.65 -5.5 -3.45 -5.5 -3.45 -5.55 Q-2.05 -4.4 -2.15 -2.9 L-2.0 -3.35 Q-1.8 -3.85 -1.55 -4.35 -3.6 -5.8 -2.8 -8.15 -2.5 -9.0 -1.85 -9.6 -2.5 -10.95 -1.3 -11.95 -1.85 -12.15 -2.3 -12.75 -2.6 -13.15 -2.2 -13.65 -1.7 -14.2 -0.95 -14.15 L-0.35 -14.2 Q0.45 -14.3 1.2 -14.1 2.1 -13.9 2.2 -13.1 2.2 -12.9 2.15 -12.75 M4.95 -6.25 L5.15 -6.2 5.25 -6.15 5.25 -5.75 Q5.9 -5.2 6.45 -4.45 L7.55 -2.9 Q7.8 -2.55 7.95 -2.15 L8.75 -1.7 Q8.65 -1.6 8.5 -1.55 7.2 0.4 4.65 -1.45 3.45 -2.3 3.45 -3.8 3.5 -4.85 4.15 -5.6 4.3 -6.0 4.6 -6.25 L4.95 -6.25 M0.1 -5.0 L-0.2 -5.15 -0.4 -4.85 -0.35 -4.8 0.2 -4.35 0.45 -4.8 0.1 -5.0 M0.8 -3.75 L1.15 -3.35 Q1.55 -2.85 1.8 -2.3 1.8 -3.0 1.5 -3.6 1.35 -3.95 1.1 -4.2 L0.8 -3.75 M0.65 -5.9 L1.0 -5.7 1.4 -6.55 Q1.7 -7.1 1.65 -7.7 1.55 -6.8 0.6 -5.95 L0.65 -5.9 M9.25 -5.65 Q10.25 -4.6 11.75 -4.9 12.3 -5.0 12.55 -4.7 L12.45 -4.5 12.4 -4.45 Q12.3 -4.4 12.2 -4.4 11.95 -4.4 11.8 -4.2 L11.75 -4.0 Q12.1 -4.2 12.45 -4.5 13.0 -4.9 13.3 -4.35 11.2 -1.35 7.6 -3.6 6.7 -4.15 6.35 -5.0 6.1 -5.55 6.2 -6.0 5.5 -7.2 6.85 -7.75 8.2 -7.45 8.9 -6.1 9.0 -5.9 9.25 -5.65 M7.95 -1.55 L8.3 -1.55 8.05 -1.6 7.95 -1.6 7.95 -1.55 M0.9 -8.2 Q0.1 -7.4 -0.9 -8.35 -0.95 -7.3 -0.15 -6.5 L0.25 -6.95 Q0.75 -7.55 0.9 -8.2 M22.3 -11.6 L22.3 -11.6 M18.6 -10.7 L18.95 -10.7 18.6 -10.75 18.6 -10.7 M-12.4 -29.55 L-12.4 -30.1 Q-12.45 -30.45 -12.25 -30.7 -12.05 -30.9 -11.85 -30.95 -11.5 -31.0 -11.25 -30.8 -11.05 -30.65 -10.9 -30.65 -10.6 -30.55 -10.5 -30.25 -10.4 -29.95 -10.65 -29.75 -11.05 -29.4 -11.5 -29.2 -11.9 -29.0 -12.3 -29.3 -12.4 -29.4 -12.4 -29.55 M-23.3 -15.5 Q-22.4 -14.75 -21.5 -13.75 -20.8 -12.95 -19.75 -12.7 -21.7 -14.15 -22.8 -16.65 -23.45 -18.0 -23.3 -19.55 -23.15 -21.85 -22.05 -23.9 -21.55 -24.75 -20.65 -25.15 -20.4 -25.6 -20.0 -25.85 -19.75 -25.05 -20.4 -23.8 -20.8 -23.1 -20.8 -22.15 L-20.8 -22.1 Q-20.7 -20.5 -20.0 -19.1 -19.65 -18.3 -19.0 -17.65 -15.0 -18.2 -12.8 -15.25 -10.1 -11.7 -5.45 -11.95 -4.75 -12.0 -4.65 -11.3 L-4.4 -11.35 -4.6 -11.15 Q-4.6 -11.0 -4.7 -10.85 L-4.85 -10.8 -5.15 -10.8 Q-6.5 -9.9 -8.4 -9.95 L-8.35 -9.75 -8.3 -9.6 -7.7 -9.7 Q-8.0 -9.5 -8.35 -9.35 -8.45 -9.15 -8.75 -9.05 L-8.85 -9.1 -9.35 -8.85 -8.95 -8.9 Q-8.05 -9.05 -7.3 -8.65 L-7.2 -8.55 -6.55 -8.75 -6.5 -8.7 Q-8.5 -6.45 -11.5 -5.35 -13.15 -4.7 -14.75 -4.8 -10.5 -4.3 -7.2 -7.05 -6.65 -7.5 -5.9 -7.5 L-5.85 -7.45 -5.75 -7.95 Q-5.75 -8.05 -5.7 -8.05 -4.75 -5.1 -7.3 -3.4 -8.4 -2.55 -9.85 -2.3 -11.45 -1.9 -13.25 -2.15 -15.1 -2.45 -16.05 -3.9 -15.7 -3.95 -15.3 -3.9 -15.65 -4.25 -15.95 -4.75 -16.05 -4.85 -16.0 -5.0 -17.2 -5.25 -18.3 -6.0 -19.65 -6.8 -20.4 -7.95 L-18.8 -8.05 -19.05 -8.15 Q-22.9 -9.45 -23.65 -13.4 -23.95 -14.7 -23.3 -15.5 M-8.8 -16.75 Q-8.45 -16.5 -8.3 -16.1 -8.7 -15.6 -9.25 -15.95 -9.65 -16.25 -10.05 -16.6 -10.35 -16.9 -10.55 -17.2 -10.9 -17.5 -11.4 -17.35 L-12.25 -17.3 Q-12.45 -17.35 -12.5 -17.55 -12.55 -17.8 -12.3 -17.85 -11.95 -17.9 -11.6 -18.0 -11.2 -18.15 -10.75 -18.15 -10.15 -18.05 -9.7 -17.6 -9.25 -17.15 -8.8 -16.75 M-7.15 -15.2 L-7.75 -15.65 Q-8.1 -15.9 -7.75 -15.95 L-7.35 -15.7 -7.0 -15.45 Q-6.8 -15.3 -6.7 -15.05 -6.9 -15.0 -7.15 -15.2 M-6.4 -14.35 L-6.25 -14.4 -6.05 -14.35 -5.95 -14.25 -5.9 -14.1 Q-5.85 -13.95 -5.75 -13.85 -5.55 -13.75 -5.5 -13.55 L-5.5 -13.45 -6.05 -13.4 Q-6.45 -13.45 -6.65 -13.8 L-6.7 -13.95 -6.7 -14.0 -6.65 -14.2 Q-6.55 -14.3 -6.4 -14.35 M-17.05 -24.2 Q-17.45 -23.65 -17.75 -23.05 -18.3 -22.0 -18.65 -23.2 -19.35 -25.9 -17.15 -27.35 -17.0 -27.45 -16.8 -27.5 -15.45 -26.15 -17.05 -24.2 M-17.6 -21.4 L-17.45 -21.4 Q-17.25 -21.25 -17.4 -21.05 -17.5 -20.9 -17.45 -20.7 -17.45 -20.55 -17.3 -20.45 -16.55 -20.9 -15.75 -20.3 -15.5 -20.1 -15.5 -19.75 L-15.5 -19.4 Q-15.4 -19.15 -15.3 -19.05 -15.15 -18.9 -15.15 -18.75 -15.15 -18.6 -15.1 -18.45 -14.9 -18.3 -14.65 -18.25 -14.3 -18.15 -14.05 -17.9 -14.7 -17.8 -15.35 -18.45 -15.65 -18.75 -15.85 -19.1 -16.05 -19.4 -16.4 -19.6 -17.35 -19.15 -17.95 -19.95 -18.15 -20.25 -18.1 -20.6 L-18.0 -21.2 -17.75 -21.35 -17.6 -21.4 M-14.0 -4.1 L-13.6 -3.95 -12.6 -3.9 -12.3 -3.95 -13.0 -4.05 -14.05 -4.1 -14.0 -4.1 M-6.75 -5.85 Q-6.8 -5.8 -6.65 -6.0 -6.5 -6.2 -6.6 -6.15 -6.7 -6.0 -6.75 -5.85 M-0.9 -5.5 L-1.85 -5.95 -1.0 -5.3 -0.9 -5.5 M-4.6 -3.7 Q-5.1 -2.95 -5.75 -2.4 -6.2 -2.05 -6.15 -1.75 -5.5 -2.15 -5.0 -2.75 -4.35 -3.5 -4.3 -4.5 -4.35 -4.1 -4.6 -3.7 M-3.65 -1.25 L-3.75 -1.15 Q-3.7 -1.15 -3.6 -1.25 -3.45 -1.35 -3.65 -1.25 M-3.75 -2.8 Q-3.8 -2.6 -3.65 -2.95 -3.55 -3.2 -3.65 -3.15 -3.75 -3.0 -3.75 -2.8 M-0.3 -3.5 L-0.95 -3.95 Q-1.3 -3.05 -1.3 -2.0 L-1.25 -1.55 Q-1.1 -2.25 -0.6 -3.05 L-0.3 -3.5 M-2.8 -2.75 Q-2.8 -2.55 -2.75 -2.8 -2.75 -3.05 -2.8 -3.0 L-2.8 -2.75" fill="#ccfffe" fill-opacity="0.7529412" fill-rule="evenodd" stroke="none"/>
  </g>
</svg>
