<?xml version="1.0" encoding="UTF-8" standalone="no"?>
<svg xmlns:ffdec="https://www.free-decompiler.com/flash" xmlns:xlink="http://www.w3.org/1999/xlink" ffdec:objectType="shape" height="20.45px" width="78.4px" xmlns="http://www.w3.org/2000/svg">
  <g transform="matrix(1.0, 0.0, 0.0, 1.0, 38.9, 16.95)">
    <path d="M2.9 -1.15 Q2.6 -0.8 2.45 -1.15 2.3 -1.5 2.7 -1.5 3.15 -1.4 2.9 -1.15 M31.0 -7.4 L31.05 -7.55 31.15 -7.6 31.3 -7.65 31.45 -7.65 31.55 -7.7 Q32.15 -7.45 31.7 -6.75 L31.1 -5.9 Q30.8 -5.55 30.4 -5.6 30.35 -5.75 30.35 -5.85 30.35 -5.95 30.45 -6.05 L30.85 -6.45 30.85 -6.9 30.9 -7.1 31.0 -7.4 M27.05 -1.8 Q26.55 -1.25 25.75 -1.35 25.3 -1.4 25.0 -1.6 25.95 -1.7 26.7 -2.35 27.05 -2.65 27.35 -2.95 L27.4 -2.95 Q27.55 -2.3 27.05 -1.8 M38.5 -11.65 Q38.55 -11.85 38.8 -11.9 39.05 -11.85 39.2 -11.75 39.4 -11.6 39.35 -11.35 39.35 -11.25 39.25 -11.2 39.25 -11.1 39.3 -11.1 L39.4 -10.95 39.5 -10.85 39.5 -10.55 39.25 -10.45 38.7 -10.45 Q38.55 -10.6 38.55 -10.8 38.6 -11.05 38.55 -11.25 38.45 -11.45 38.5 -11.65 M36.45 -9.8 Q36.15 -9.35 36.0 -9.95 35.95 -10.3 36.25 -10.4 36.75 -10.3 36.45 -9.8 M36.2 -4.4 Q36.25 -3.8 35.65 -3.5 35.35 -3.35 35.0 -3.45 34.9 -3.7 35.1 -4.1 35.25 -4.45 35.3 -4.8 35.35 -5.15 35.65 -5.2 36.2 -5.0 36.2 -4.4 M27.2 1.9 Q26.9 2.4 26.3 2.45 25.8 2.55 25.85 2.2 26.45 2.05 26.85 1.6 27.05 1.35 27.2 1.05 27.2 0.95 27.3 0.95 L27.35 0.95 Q27.5 1.4 27.2 1.9 M8.8 2.7 Q9.25 2.75 9.05 3.1 8.85 3.4 8.5 3.4 L8.45 3.4 Q8.2 3.5 8.15 3.35 L8.05 3.45 Q7.5 3.6 7.0 3.45 6.8 3.4 6.65 3.25 L6.5 3.1 6.55 3.0 Q6.55 2.85 6.65 2.8 L6.8 2.7 7.05 2.6 7.2 2.6 7.7 2.7 8.05 2.8 Q8.15 2.85 8.25 2.95 L8.4 2.85 Q8.6 2.75 8.75 2.7 L8.8 2.7 M8.2 2.45 Q8.1 2.2 8.35 2.15 8.85 2.15 8.6 2.5 8.35 2.8 8.2 2.45 M-35.8 -16.65 Q-35.8 -16.35 -36.05 -16.25 -36.3 -16.2 -36.5 -16.35 L-36.6 -16.45 Q-36.6 -16.55 -36.55 -16.65 L-36.4 -16.85 -36.2 -16.95 Q-35.8 -17.05 -35.8 -16.65 M-38.8 -14.05 Q-39.05 -14.25 -38.75 -14.35 -38.4 -14.3 -38.45 -14.1 -38.55 -13.8 -38.8 -14.05 M-28.7 -9.15 L-28.65 -9.05 -28.65 -8.5 Q-28.7 -8.4 -28.8 -8.35 -29.05 -8.25 -29.3 -8.2 L-29.55 -8.2 -29.6 -8.3 -29.65 -8.5 -29.7 -8.75 -29.75 -8.95 -29.7 -9.05 Q-29.6 -9.15 -29.45 -9.25 L-29.15 -9.4 -29.15 -9.45 -28.95 -9.35 Q-28.85 -9.3 -28.8 -9.25 L-28.7 -9.15 M-19.9 -6.45 Q-19.65 -6.35 -19.8 -6.15 -19.95 -6.05 -20.1 -5.95 L-20.4 -6.05 Q-20.55 -6.15 -20.5 -6.35 L-20.45 -6.55 Q-20.35 -6.65 -20.25 -6.65 L-20.15 -6.65 -19.9 -6.45 M-11.8 -1.85 L-11.45 -1.1 Q-11.3 -0.7 -11.6 -0.55 -12.15 -0.6 -12.3 -1.1 -12.45 -1.55 -12.55 -2.0 -12.65 -2.35 -12.3 -2.4 -12.0 -2.2 -11.8 -1.85 M-1.95 -0.35 Q-1.85 -0.15 -1.9 0.05 -1.9 0.25 -2.1 0.3 L-2.35 0.25 -2.6 0.1 -2.75 -0.05 -2.75 -0.15 -2.65 -0.35 Q-2.55 -0.5 -2.4 -0.55 L-2.25 -0.6 Q-2.0 -0.6 -1.95 -0.35" fill="#ccfffe" fill-opacity="0.7529412" fill-rule="evenodd" stroke="none"/>
    <path d="M0.6 -12.45 Q0.55 -12.35 0.45 -12.3 0.05 -12.15 -0.4 -12.3 L-0.55 -12.45 -0.55 -12.6 Q-0.5 -12.7 -0.45 -12.7 L-0.35 -12.75 0.35 -12.75 Q0.6 -12.75 0.65 -12.55 L0.6 -12.45 M0.15 -9.8 L0.1 -9.75 Q0.05 -9.55 0.05 -9.35 0.1 -9.2 0.0 -9.1 L-0.05 -9.15 Q0.0 -9.0 0.0 -8.9 -0.3 -9.0 -0.35 -9.35 -0.45 -9.75 -0.3 -10.1 -0.15 -10.45 0.25 -10.5 0.75 -10.55 0.9 -10.0 1.0 -9.5 0.75 -9.1 0.6 -8.85 0.3 -8.85 0.25 -8.9 0.25 -9.0 0.25 -9.15 0.3 -9.3 L0.4 -9.7 Q0.4 -9.8 0.3 -9.9 L0.2 -9.85 0.15 -9.8 M2.0 -7.1 L2.05 -7.05 Q2.2 -6.8 2.05 -6.5 L1.7 -5.9 1.45 -5.5 1.35 -5.5 Q1.2 -5.5 1.1 -5.6 L1.0 -5.75 Q1.1 -6.05 1.25 -6.35 L1.6 -6.9 Q1.7 -7.1 1.9 -7.15 L2.0 -7.1 M0.3 -6.05 L0.25 -6.0 0.3 -6.0 0.3 -6.05 M1.4 -4.05 Q1.85 -4.0 1.85 -3.55 1.9 -3.15 1.85 -2.8 1.8 -2.55 1.55 -2.6 1.4 -2.8 1.3 -3.0 1.2 -3.35 1.15 -3.65 1.15 -4.0 1.4 -4.05 M22.15 -13.6 Q22.4 -13.55 22.45 -13.3 22.45 -13.0 22.2 -12.85 L21.8 -12.85 21.75 -12.95 Q21.7 -13.05 21.7 -13.15 L21.75 -13.3 21.85 -13.5 21.9 -13.55 22.0 -13.55 22.1 -13.6 22.15 -13.6 M13.75 -1.15 Q13.95 -1.15 14.05 -0.95 14.15 -0.75 14.05 -0.55 14.0 -0.45 13.85 -0.4 L13.6 -0.4 Q13.35 -0.45 13.25 -0.65 L13.25 -0.8 13.4 -1.0 Q13.5 -1.15 13.75 -1.15 M28.4 -13.1 L28.4 -13.15 Q28.4 -13.25 28.5 -13.3 L28.65 -13.4 Q29.0 -13.4 29.0 -13.1 29.0 -12.8 28.75 -12.8 28.55 -12.8 28.4 -13.0 L28.4 -13.1 M25.8 -9.0 Q25.8 -8.65 25.45 -8.65 25.2 -8.7 25.1 -8.9 L25.1 -9.0 25.15 -9.1 Q25.15 -9.15 25.25 -9.25 L25.45 -9.3 Q25.8 -9.35 25.8 -9.0 M28.75 -7.45 Q29.1 -7.4 29.1 -7.05 29.05 -6.7 28.75 -6.7 28.5 -6.65 28.45 -6.9 L28.35 -7.1 Q28.3 -7.25 28.45 -7.35 28.6 -7.45 28.75 -7.45 M25.85 -4.8 Q25.45 -4.5 25.55 -4.9 25.6 -5.15 25.8 -5.2 26.2 -5.05 25.85 -4.8 M24.9 -2.15 Q24.55 -2.0 24.6 -2.25 24.65 -2.5 24.9 -2.5 25.1 -2.3 24.9 -2.15 M-25.75 -14.2 Q-25.6 -14.05 -25.75 -13.8 -25.85 -13.6 -26.1 -13.75 -26.3 -13.8 -26.15 -13.95 L-25.9 -14.2 -25.75 -14.2 M-26.55 -8.05 L-26.6 -7.95 -26.65 -7.8 -26.75 -7.6 -26.75 -7.5 Q-27.0 -7.55 -27.2 -7.85 -27.35 -8.05 -27.2 -8.35 -27.15 -8.55 -27.0 -8.55 L-26.8 -8.4 -26.65 -8.2 -26.55 -8.05 M-26.75 -5.65 Q-26.7 -5.85 -26.5 -5.9 -26.0 -5.7 -26.35 -5.45 -26.8 -5.15 -26.75 -5.65 M-23.65 -3.25 L-23.5 -3.2 Q-23.35 -3.1 -23.3 -3.0 -23.2 -2.85 -23.35 -2.75 L-23.45 -2.65 Q-23.5 -2.55 -23.65 -2.55 -24.0 -2.6 -24.0 -2.95 -23.95 -3.15 -23.8 -3.2 L-23.65 -3.25 M-20.5 -13.1 Q-20.7 -12.9 -20.8 -13.15 -20.85 -13.25 -20.7 -13.3 -20.35 -13.25 -20.5 -13.1 M-22.15 -2.35 Q-22.4 -2.0 -22.45 -2.5 -22.5 -2.8 -22.25 -2.85 -21.9 -2.7 -22.15 -2.35 M-21.9 -2.05 Q-22.15 -2.0 -22.1 -2.2 -22.0 -2.4 -21.85 -2.35 -21.7 -2.15 -21.9 -2.05 M-0.2 -9.4 L-0.2 -9.5 -0.15 -9.6 -0.2 -9.6 -0.2 -9.55 Q-0.2 -9.5 -0.2 -9.4 M-1.65 -7.15 L-1.6 -7.15 -1.5 -7.1 -1.45 -7.05 Q-1.35 -6.9 -1.35 -6.65 -1.35 -6.5 -1.3 -6.3 L-1.1 -6.15 Q-0.85 -6.05 -0.95 -5.8 -1.3 -5.6 -1.55 -5.9 -1.7 -6.0 -1.8 -6.2 -1.95 -6.5 -1.9 -6.9 -1.85 -7.1 -1.7 -7.15 L-1.65 -7.15 M-0.95 -3.05 L-0.9 -3.05 -0.7 -2.95 -0.7 -2.9 Q-0.7 -2.7 -0.8 -2.45 -0.95 -2.25 -1.0 -2.0 -1.05 -1.75 -1.3 -1.65 -1.6 -1.8 -1.55 -2.15 -1.5 -2.5 -1.35 -2.75 -1.2 -3.0 -0.95 -3.05 M-10.8 1.0 Q-10.65 1.1 -10.65 1.25 -10.6 1.4 -10.65 1.5 -10.95 1.6 -11.1 1.35 -11.2 1.2 -11.2 1.05 -11.2 0.9 -11.1 0.85 L-11.0 0.85 -10.8 1.0 M-10.5 2.3 L-10.45 2.1 Q-10.45 1.95 -10.25 1.85 L-10.05 1.8 -9.85 1.85 -9.7 1.95 Q-9.65 2.05 -9.6 2.15 L-9.6 2.2 -9.65 2.4 Q-9.75 2.65 -10.05 2.65 -10.4 2.65 -10.5 2.35 L-10.5 2.3" fill="#ffffff" fill-rule="evenodd" stroke="none"/>
  </g>
</svg>
