<?xml version="1.0" encoding="UTF-8" standalone="no"?>
<svg xmlns:ffdec="https://www.free-decompiler.com/flash" xmlns:xlink="http://www.w3.org/1999/xlink" ffdec:objectType="shape" height="23.65px" width="28.1px" xmlns="http://www.w3.org/2000/svg">
  <g transform="matrix(1.0, 0.0, 0.0, 1.0, 38.4, 35.2)">
    <path d="M-29.85 -27.35 L-29.8 -26.6 Q-29.9 -26.45 -29.85 -26.35 -29.7 -26.1 -29.05 -26.1 -28.7 -26.1 -28.55 -26.35 -28.35 -26.65 -27.95 -26.75 -26.5 -26.7 -25.7 -25.35 -25.15 -24.4 -25.15 -23.55 -25.15 -23.3 -25.7 -22.0 L-26.25 -20.7 Q-26.25 -20.5 -26.2 -20.45 L-26.1 -20.5 -26.15 -20.45 -25.75 -20.4 Q-25.45 -20.4 -25.0 -20.55 -24.55 -20.7 -24.3 -20.7 -23.15 -20.7 -22.65 -19.7 L-22.35 -18.95 Q-22.15 -18.55 -21.85 -18.5 -21.25 -19.0 -20.75 -19.5 -20.75 -18.8 -20.5 -18.2 -20.0 -16.6 -18.4 -15.75 -18.2 -15.9 -17.9 -15.95 L-17.85 -16.05 Q-17.65 -16.3 -17.8 -16.7 -17.9 -17.0 -17.9 -17.3 L-17.7 -17.4 -17.1 -17.1 Q-15.95 -16.6 -15.95 -15.85 -15.95 -15.7 -16.2 -15.2 -16.4 -14.7 -16.4 -14.5 -16.4 -14.35 -15.9 -14.2 -15.2 -13.95 -14.8 -13.85 -13.25 -13.3 -13.25 -12.45 -13.25 -12.25 -13.45 -11.8 L-13.5 -11.6 -13.6 -11.6 Q-18.85 -12.5 -23.35 -14.1 -27.25 -14.8 -30.75 -16.7 -32.9 -17.85 -31.15 -19.0 L-31.1 -19.2 -30.9 -19.35 Q-30.55 -19.6 -30.05 -19.7 -30.25 -19.95 -30.4 -20.2 -30.9 -20.95 -30.15 -21.5 -35.5 -22.3 -37.85 -25.35 -38.75 -26.45 -38.2 -27.5 L-38.1 -28.0 -38.0 -28.15 Q-37.65 -28.5 -37.05 -28.5 L-37.05 -28.55 -36.25 -28.4 -36.1 -28.45 -35.8 -28.5 -35.25 -28.55 Q-35.75 -29.55 -36.05 -30.55 L-36.3 -30.9 Q-38.0 -33.3 -37.05 -35.2 -34.75 -32.4 -32.65 -29.3 L-30.05 -25.55 Q-30.05 -25.95 -30.05 -26.4 -30.0 -26.85 -29.85 -27.3 L-29.85 -27.35 M-23.9 -17.4 L-22.85 -17.05 Q-21.9 -16.65 -21.9 -16.0 -21.9 -15.85 -22.15 -15.7 -22.35 -15.5 -22.35 -15.35 -22.35 -15.1 -22.25 -15.05 L-21.85 -15.0 Q-21.05 -15.2 -20.7 -15.65 -20.45 -15.95 -20.45 -16.45 -20.45 -17.3 -21.55 -17.8 -22.9 -18.4 -25.2 -17.95 -24.65 -17.65 -23.9 -17.4 M-33.4 -26.1 Q-32.3 -25.25 -32.3 -24.8 -32.3 -24.65 -32.65 -24.25 -32.95 -23.8 -32.95 -23.7 -32.95 -23.55 -32.85 -23.45 -32.65 -23.2 -32.25 -23.2 L-30.9 -23.15 Q-30.7 -23.1 -30.65 -23.0 -30.65 -22.75 -30.5 -22.65 -30.2 -22.35 -29.35 -22.05 -29.05 -22.25 -28.85 -22.45 -28.75 -22.65 -28.75 -22.8 -28.75 -23.25 -29.3 -23.7 -30.0 -24.35 -31.3 -24.25 L-31.25 -25.25 Q-31.3 -25.95 -31.55 -26.4 -32.25 -27.75 -35.1 -27.05 -34.5 -26.95 -33.4 -26.1" fill="#666666" fill-rule="evenodd" stroke="none"/>
    <path d="M-20.75 -19.5 Q-21.25 -19.0 -21.85 -18.5 -22.15 -18.55 -22.35 -18.95 L-22.65 -19.7 Q-23.15 -20.7 -24.3 -20.7 -24.55 -20.7 -25.0 -20.55 -25.45 -20.4 -25.75 -20.4 L-26.15 -20.45 -26.1 -20.5 -26.2 -20.45 Q-26.25 -20.5 -26.25 -20.7 L-25.7 -22.0 Q-25.15 -23.3 -25.15 -23.55 -25.15 -24.4 -25.7 -25.35 -26.5 -26.7 -27.95 -26.75 -28.35 -26.65 -28.55 -26.35 -28.7 -26.1 -29.05 -26.1 -29.7 -26.1 -29.85 -26.35 -29.9 -26.45 -29.8 -26.6 L-29.85 -27.35 -29.6 -27.45 -28.55 -28.0 -28.35 -28.1 Q-27.95 -28.2 -27.55 -28.35 L-27.25 -28.4 Q-18.4 -27.2 -20.4 -21.25 L-20.55 -20.9 -20.7 -20.15 -20.75 -19.5 M-13.5 -11.6 L-13.45 -11.8 Q-13.25 -12.25 -13.25 -12.45 -13.25 -13.3 -14.8 -13.85 -15.2 -13.95 -15.9 -14.2 -16.4 -14.35 -16.4 -14.5 -16.4 -14.7 -16.2 -15.2 -15.95 -15.7 -15.95 -15.85 -15.95 -16.6 -17.1 -17.1 L-17.7 -17.4 -17.4 -17.55 Q-17.1 -17.65 -16.75 -17.75 L-16.45 -17.8 -15.75 -17.75 Q-14.55 -17.6 -13.7 -17.0 -12.9 -16.35 -13.15 -15.65 -12.45 -15.4 -12.1 -15.0 -11.65 -14.75 -11.25 -14.5 -9.45 -13.2 -11.15 -11.75 L-12.05 -11.75 -12.2 -11.7 Q-12.65 -11.45 -13.5 -11.6 M-33.4 -26.1 Q-34.5 -26.95 -35.1 -27.05 -32.25 -27.75 -31.55 -26.4 -31.3 -25.95 -31.25 -25.25 L-31.3 -24.25 Q-30.0 -24.35 -29.3 -23.7 -28.75 -23.25 -28.75 -22.8 -28.75 -22.65 -28.85 -22.45 -29.05 -22.25 -29.35 -22.05 -30.2 -22.35 -30.5 -22.65 -30.65 -22.75 -30.65 -23.0 -30.7 -23.1 -30.9 -23.15 L-32.25 -23.2 Q-32.65 -23.2 -32.85 -23.45 -32.95 -23.55 -32.95 -23.7 -32.95 -23.8 -32.65 -24.25 -32.3 -24.65 -32.3 -24.8 -32.3 -25.25 -33.4 -26.1 M-23.9 -17.4 Q-24.65 -17.65 -25.2 -17.95 -22.9 -18.4 -21.55 -17.8 -20.45 -17.3 -20.45 -16.45 -20.45 -15.95 -20.7 -15.65 -21.05 -15.2 -21.85 -15.0 L-22.25 -15.05 Q-22.35 -15.1 -22.35 -15.35 -22.35 -15.5 -22.15 -15.7 -21.9 -15.85 -21.9 -16.0 -21.9 -16.65 -22.85 -17.05 L-23.9 -17.4" fill="#cccccc" fill-rule="evenodd" stroke="none"/>
  </g>
</svg>
