<?xml version="1.0" encoding="UTF-8" standalone="no"?>
<svg xmlns:ffdec="https://www.free-decompiler.com/flash" xmlns:xlink="http://www.w3.org/1999/xlink" ffdec:objectType="shape" height="11.05px" width="46.25px" xmlns="http://www.w3.org/2000/svg">
  <g transform="matrix(1.0, 0.0, 0.0, 1.0, 22.0, 34.35)">
    <path d="M21.85 -23.65 L21.1 -23.6 Q19.65 -24.05 18.1 -24.45 L17.85 -24.3 Q18.25 -25.05 18.25 -25.65 18.25 -26.45 17.2 -27.2 16.25 -27.9 14.9 -28.35 13.5 -28.8 12.55 -28.7 12.15 -28.65 11.9 -28.5 14.05 -28.4 15.0 -27.2 15.55 -26.5 15.55 -25.55 15.55 -24.6 15.1 -23.85 14.95 -23.55 14.7 -23.35 L14.65 -23.3 13.9 -23.35 Q12.1 -23.45 10.1 -24.45 8.75 -25.15 8.45 -25.8 L8.25 -25.75 8.4 -25.8 8.6 -26.0 Q9.15 -26.75 9.15 -27.55 9.15 -28.5 8.3 -28.95 7.6 -29.35 6.5 -29.2 5.45 -29.05 4.7 -28.5 4.5 -28.35 4.35 -28.2 4.6 -28.3 4.85 -28.3 5.4 -28.4 5.8 -28.1 6.25 -27.8 6.25 -27.2 6.25 -26.65 6.0 -26.35 5.6 -25.8 4.6 -25.8 L4.15 -25.8 Q4.45 -25.35 5.15 -25.15 L4.3 -25.05 Q0.85 -24.6 0.5 -26.85 -10.1 -27.7 -20.85 -27.95 L-20.65 -28.15 -22.0 -28.2 -21.55 -28.25 -20.25 -28.25 -16.35 -28.45 -13.45 -28.45 Q-10.3 -28.95 -7.1 -29.25 L-6.65 -29.5 Q-6.3 -30.25 -5.05 -30.45 -4.7 -30.5 -4.5 -30.55 -3.4 -30.6 -2.35 -30.35 -0.9 -30.25 0.45 -29.85 L0.6 -29.8 1.1 -29.8 1.1 -30.35 0.85 -30.7 0.55 -31.25 Q0.5 -31.3 0.5 -31.4 0.5 -31.55 0.6 -31.7 0.7 -31.85 0.8 -31.9 L1.15 -32.25 1.45 -32.6 Q3.0 -33.1 4.45 -32.95 4.1 -32.8 3.8 -32.6 3.2 -32.15 3.2 -31.65 3.2 -31.15 3.55 -30.75 4.2 -30.1 5.75 -30.1 L6.1 -30.15 6.0 -30.15 Q5.0 -30.15 4.65 -30.55 4.55 -30.7 4.55 -31.0 4.55 -31.25 4.9 -31.5 5.3 -31.8 5.75 -31.9 6.25 -32.05 6.6 -31.9 6.95 -31.75 6.95 -31.25 6.95 -30.95 6.9 -30.75 7.3 -31.3 7.3 -31.75 L7.25 -32.1 Q8.1 -31.8 8.85 -31.75 8.8 -32.0 8.85 -32.25 8.95 -32.6 9.2 -32.9 L9.85 -33.1 Q11.6 -33.75 12.8 -33.7 17.1 -33.95 18.75 -31.8 19.7 -30.55 19.7 -28.6 L19.7 -28.55 19.65 -28.5 19.7 -28.5 Q19.65 -28.1 19.3 -27.5 L19.1 -27.25 19.05 -27.3 19.25 -27.15 Q20.8 -27.65 21.6 -26.9 22.25 -26.25 22.25 -25.15 22.25 -24.4 21.95 -23.9 L21.75 -23.65 21.85 -23.65 M9.35 -33.0 Q10.7 -34.25 12.75 -34.35 11.15 -33.9 9.35 -33.0 M1.9 -28.6 Q1.9 -29.0 1.55 -29.2 1.25 -29.4 0.8 -29.35 0.4 -29.25 0.1 -29.0 -0.25 -28.7 -0.25 -28.25 L-0.25 -27.85 Q-0.1 -27.5 0.5 -27.5 1.0 -27.5 1.45 -27.9 1.9 -28.25 1.9 -28.6" fill="#666666" fill-rule="evenodd" stroke="none"/>
    <path d="M19.7 -28.5 L19.95 -28.5 20.15 -28.55 20.3 -28.55 21.2 -28.65 Q24.3 -28.0 24.25 -26.2 24.3 -26.0 24.2 -25.8 24.15 -25.55 24.05 -25.25 23.5 -23.95 22.25 -23.8 L22.2 -23.75 21.85 -23.65 21.75 -23.65 21.95 -23.9 Q22.25 -24.4 22.25 -25.15 22.25 -26.25 21.6 -26.9 20.8 -27.65 19.25 -27.15 L19.05 -27.3 19.1 -27.25 19.3 -27.5 Q19.65 -28.1 19.7 -28.5 M17.85 -24.3 Q16.35 -23.4 14.7 -23.35 14.95 -23.55 15.1 -23.85 15.55 -24.6 15.55 -25.55 15.55 -26.5 15.0 -27.2 14.05 -28.4 11.9 -28.5 12.15 -28.65 12.55 -28.7 13.5 -28.8 14.9 -28.35 16.25 -27.9 17.2 -27.2 18.25 -26.45 18.25 -25.65 18.25 -25.05 17.85 -24.3 M8.25 -25.75 L5.15 -25.15 Q4.45 -25.35 4.15 -25.8 L4.6 -25.8 Q5.6 -25.8 6.0 -26.35 6.25 -26.65 6.25 -27.2 6.25 -27.8 5.8 -28.1 5.4 -28.4 4.85 -28.3 4.6 -28.3 4.35 -28.2 4.5 -28.35 4.7 -28.5 5.45 -29.05 6.5 -29.2 7.6 -29.35 8.3 -28.95 9.15 -28.5 9.15 -27.55 9.15 -26.75 8.6 -26.0 L8.4 -25.8 8.25 -25.75 M4.45 -32.95 Q5.45 -32.85 6.4 -32.45 L6.45 -32.45 6.6 -32.4 6.65 -32.35 7.25 -32.1 7.3 -31.75 Q7.3 -31.3 6.9 -30.75 6.95 -30.95 6.95 -31.25 6.95 -31.75 6.6 -31.9 6.25 -32.05 5.75 -31.9 5.3 -31.8 4.9 -31.5 4.55 -31.25 4.55 -31.0 4.55 -30.7 4.65 -30.55 5.0 -30.15 6.0 -30.15 L6.1 -30.15 5.75 -30.1 Q4.2 -30.1 3.55 -30.75 3.2 -31.15 3.2 -31.65 3.2 -32.15 3.8 -32.6 4.1 -32.8 4.45 -32.95 M9.2 -32.9 L9.25 -32.9 9.25 -32.95 9.35 -33.0 Q11.15 -33.9 12.75 -34.35 L14.15 -34.25 Q19.65 -34.3 20.25 -30.8 20.5 -29.3 19.7 -28.55 L19.7 -28.6 Q19.7 -30.55 18.75 -31.8 17.1 -33.95 12.8 -33.7 11.6 -33.75 9.85 -33.1 L9.2 -32.9 M1.9 -28.6 Q1.9 -28.25 1.45 -27.9 1.0 -27.5 0.5 -27.5 -0.1 -27.5 -0.25 -27.85 L-0.25 -28.25 Q-0.25 -28.7 0.1 -29.0 0.4 -29.25 0.8 -29.35 1.25 -29.4 1.55 -29.2 1.9 -29.0 1.9 -28.6" fill="#cccccc" fill-rule="evenodd" stroke="none"/>
  </g>
</svg>
