<?xml version="1.0" encoding="UTF-8" standalone="no"?>
<svg xmlns:ffdec="https://www.free-decompiler.com/flash" xmlns:xlink="http://www.w3.org/1999/xlink" ffdec:objectType="shape" height="19.35px" width="34.75px" xmlns="http://www.w3.org/2000/svg">
  <g transform="matrix(1.0, 0.0, 0.0, 1.0, -17.15, 10.85)">
    <path d="M17.3 -10.4 L17.35 -10.45 Q17.75 -10.65 18.2 -10.7 L19.15 -10.85 Q20.45 -10.75 20.8 -9.95 20.95 -9.6 20.7 -9.3 19.65 -8.85 18.6 -8.95 L18.8 -9.25 Q19.15 -9.9 19.15 -10.1 19.15 -10.5 18.7 -10.6 18.35 -10.7 17.8 -10.55 17.55 -10.5 17.3 -10.4 M29.45 -0.5 L29.85 -0.5 Q30.7 -0.45 31.2 -0.1 31.4 0.05 31.5 0.2 L31.55 0.3 31.55 0.45 31.5 0.7 Q31.5 0.8 31.4 0.85 L31.2 1.0 31.05 1.15 Q29.5 1.65 28.1 1.3 L28.25 1.35 Q28.8 0.95 29.6 -0.05 L29.55 -0.35 Q29.45 -0.4 29.45 -0.5 M17.75 -4.65 Q18.15 -4.75 18.6 -4.8 L18.85 -4.75 Q19.35 -4.55 19.55 -4.25 19.6 -4.1 19.6 -4.0 19.1 -3.45 18.15 -3.6 17.45 -3.7 17.35 -4.15 17.25 -4.5 17.75 -4.65 M37.85 -0.5 L37.85 -0.7 36.95 -2.4 37.4 -2.7 Q37.85 -3.0 37.85 -3.15 L37.85 -3.3 Q38.65 -2.95 39.25 -2.35 40.15 -1.45 39.15 -0.65 38.45 -0.45 37.85 -0.5 M49.55 2.65 L49.1 1.9 Q48.65 1.15 48.65 1.0 48.65 0.8 49.35 0.25 50.05 -0.3 50.05 -0.6 L50.05 -0.7 Q51.4 -0.25 51.8 0.8 52.15 1.7 51.4 2.45 50.4 2.75 49.55 2.65 M47.65 -0.5 Q47.35 -0.35 47.15 -0.1 46.95 0.1 46.85 0.25 46.9 -0.2 47.65 -0.5 M46.9 2.75 L48.65 4.35 Q49.25 4.5 49.85 4.7 L49.95 4.7 50.1 4.75 Q50.35 4.85 50.4 5.0 50.45 5.1 50.45 5.25 49.35 5.65 48.05 5.5 L46.95 5.35 Q44.5 5.75 41.7 5.6 L41.2 5.6 Q41.85 5.95 41.8 6.45 L41.7 6.95 Q41.5 6.6 40.9 6.6 L40.05 6.65 39.25 6.75 Q38.9 6.75 37.9 6.25 L36.1 5.3 Q35.0 4.75 34.5 4.75 33.8 4.8 33.8 5.6 33.8 5.75 33.85 5.9 33.25 5.55 32.6 5.25 30.65 4.95 28.75 4.35 28.7 4.25 28.75 4.15 29.1 4.25 29.75 4.25 31.85 4.25 32.7 3.8 33.25 3.5 33.35 3.45 33.75 3.35 34.5 3.35 34.85 3.35 35.65 3.55 36.45 3.8 36.8 3.8 L37.55 3.75 37.7 3.7 Q37.7 3.65 37.8 3.6 L37.85 3.55 38.0 4.05 Q38.4 4.05 38.85 4.05 40.05 4.1 41.3 4.1 L41.65 4.1 42.05 3.95 Q41.6 3.55 41.05 3.25 L39.75 2.75 39.2 2.5 Q38.2 2.2 37.7 1.8 36.15 1.0 34.85 0.1 L35.25 0.1 Q37.65 0.55 39.9 1.45 L40.05 1.55 41.15 1.95 41.2 2.1 41.75 2.05 42.65 2.0 Q43.5 2.0 44.9 2.45 L46.45 2.95 47.05 2.9 46.9 2.75 M40.95 8.2 Q40.2 8.7 38.9 8.35 L39.35 8.35 Q40.35 8.35 40.95 8.2 M34.35 2.2 Q35.7 2.0 36.6 2.3 35.85 2.15 34.75 2.2 L34.35 2.2 M49.2 6.2 L49.3 6.2 Q49.7 6.2 50.05 6.4 L50.85 6.8 Q51.05 6.9 51.15 7.0 51.25 7.5 50.75 7.75 49.55 8.45 48.2 8.35 48.5 8.15 48.95 7.45 49.45 6.55 49.45 6.6 49.45 6.35 49.2 6.2 M47.2 8.15 L47.15 8.1 Q47.0 7.95 46.95 7.8 L47.05 7.95 47.2 8.15" fill="#666666" fill-rule="evenodd" stroke="none"/>
    <path d="M17.3 -10.4 Q17.55 -10.5 17.8 -10.55 18.35 -10.7 18.7 -10.6 19.15 -10.5 19.15 -10.1 19.15 -9.9 18.8 -9.25 L18.6 -8.95 Q17.9 -9.05 17.25 -9.35 17.15 -9.55 17.15 -9.75 L17.25 -10.2 17.25 -10.25 17.3 -10.4 M29.45 -0.5 Q29.45 -0.4 29.55 -0.35 L29.6 -0.05 Q28.8 0.95 28.25 1.35 L28.1 1.3 27.9 1.25 Q27.45 1.1 27.0 0.9 L26.95 0.85 Q26.4 0.6 26.65 0.2 27.15 -0.4 28.3 -0.45 L29.45 -0.5 M37.85 -3.3 L37.85 -3.15 Q37.85 -3.0 37.4 -2.7 L36.95 -2.4 37.85 -0.7 37.85 -0.5 Q36.95 -0.6 36.25 -1.25 35.2 -2.3 36.0 -3.3 36.3 -3.4 36.65 -3.5 L37.2 -3.55 Q37.55 -3.45 37.85 -3.3 M50.05 -0.7 L50.05 -0.6 Q50.05 -0.3 49.35 0.25 48.65 0.8 48.65 1.0 48.65 1.15 49.1 1.9 L49.55 2.65 Q48.5 2.55 47.7 1.85 46.75 0.9 46.85 0.25 46.95 0.1 47.15 -0.1 47.35 -0.35 47.65 -0.5 48.25 -0.8 49.3 -0.9 49.7 -0.85 50.05 -0.7 M41.15 1.95 Q41.25 1.25 43.1 0.65 43.3 0.65 43.6 0.75 45.4 1.4 46.45 2.35 L46.9 2.75 47.05 2.9 46.45 2.95 44.9 2.45 Q43.5 2.0 42.65 2.0 L41.75 2.05 41.2 2.1 41.15 1.95 M41.7 6.95 Q41.5 7.8 40.95 8.2 40.35 8.35 39.35 8.35 L38.9 8.35 38.65 8.3 Q37.6 7.95 36.15 7.15 L36.1 7.1 Q35.0 6.45 33.85 5.9 33.8 5.75 33.8 5.6 33.8 4.8 34.5 4.75 35.0 4.75 36.1 5.3 L37.9 6.25 Q38.9 6.75 39.25 6.75 L40.05 6.65 40.9 6.6 Q41.5 6.6 41.7 6.95 M28.75 4.15 Q28.8 4.05 28.95 4.0 30.9 3.15 33.2 2.5 33.8 2.3 34.35 2.2 L34.75 2.2 Q35.85 2.15 36.6 2.3 L36.7 2.35 36.75 2.4 37.8 3.5 37.85 3.55 37.8 3.6 Q37.7 3.65 37.7 3.7 L37.55 3.75 36.8 3.8 Q36.45 3.8 35.65 3.55 34.85 3.35 34.5 3.35 33.75 3.35 33.35 3.45 33.25 3.5 32.7 3.8 31.85 4.25 29.75 4.25 29.1 4.25 28.75 4.15 M49.2 6.2 Q49.45 6.35 49.45 6.6 49.45 6.55 48.95 7.45 48.5 8.15 48.2 8.35 L47.25 8.15 47.2 8.15 47.05 7.95 46.95 7.8 Q46.75 7.4 47.15 6.95 47.8 6.2 49.2 6.2" fill="#cccccc" fill-rule="evenodd" stroke="none"/>
  </g>
</svg>
