<?xml version="1.0" encoding="UTF-8" standalone="no"?>
<svg xmlns:ffdec="https://www.free-decompiler.com/flash" xmlns:xlink="http://www.w3.org/1999/xlink" ffdec:objectType="shape" height="24.5px" width="68.05px" xmlns="http://www.w3.org/2000/svg">
  <g transform="matrix(1.0, 0.0, 0.0, 1.0, 8.2, 8.15)">
    <path d="M53.9 -7.95 Q54.05 -8.0 54.25 -8.1 54.4 -8.15 54.6 -8.15 55.35 -8.1 56.0 -7.95 56.65 -7.8 56.85 -7.35 56.6 -6.3 54.95 -6.3 53.55 -6.3 53.65 -7.25 L53.65 -7.6 Q53.65 -7.65 53.7 -7.75 L53.9 -7.95 M54.9 -6.5 Q55.4 -6.5 55.65 -6.6 L55.7 -6.65 Q55.75 -6.7 55.75 -6.9 55.75 -7.2 55.3 -7.4 54.6 -7.6 54.25 -7.75 L54.0 -7.7 Q53.9 -7.65 53.9 -7.4 53.9 -6.5 54.9 -6.5 M57.9 1.2 Q57.65 0.95 57.65 0.5 57.7 -0.3 58.8 -0.4 59.1 -0.35 59.3 -0.25 L59.85 0.05 Q59.8 0.45 59.85 0.75 59.95 1.4 59.1 1.65 58.55 1.6 58.25 1.45 L58.45 1.5 59.25 1.4 59.3 1.35 Q59.35 1.3 59.35 1.1 59.35 0.85 58.95 0.65 58.5 0.4 57.8 0.55 L57.8 0.6 Q57.75 0.6 57.75 0.8 57.75 1.0 57.85 1.2 L57.9 1.2 M46.6 1.15 L46.4 0.8 Q46.15 0.25 47.25 0.25 47.95 0.4 48.65 0.65 49.2 0.8 49.15 1.3 48.7 1.65 48.3 1.8 L48.4 1.75 Q48.0 1.0 47.25 0.9 46.9 0.9 46.7 1.0 46.65 1.05 46.6 1.15 M27.2 9.9 L27.1 10.0 Q27.95 10.05 29.1 9.95 L29.1 9.9 Q29.1 9.75 29.15 9.6 29.5 8.85 30.4 8.3 30.8 8.1 31.15 8.05 L32.75 8.1 Q33.55 8.2 33.6 8.7 L33.5 9.0 Q34.0 8.85 34.55 8.75 L34.95 8.7 35.25 8.6 Q37.4 7.9 39.5 7.6 L39.65 7.75 40.25 7.65 39.75 7.9 Q40.15 9.0 35.8 9.9 L33.15 10.45 Q31.75 10.85 29.9 11.2 L28.65 11.5 Q28.0 11.6 27.4 11.6 L27.15 11.65 Q27.35 11.85 27.45 12.0 27.05 11.65 26.55 11.65 26.15 11.65 26.05 11.95 L26.05 12.3 23.75 12.45 22.75 12.5 Q22.6 12.5 21.85 12.25 L20.5 11.8 Q18.75 11.3 18.75 12.0 18.75 12.2 19.3 12.55 19.7 12.8 20.3 13.05 L19.9 12.95 Q17.4 13.35 14.7 13.65 16.3 14.9 15.7 15.6 L15.7 15.4 15.65 15.05 Q15.65 14.65 15.3 14.2 14.95 13.8 14.5 13.55 14.0 13.3 13.7 13.35 13.3 13.4 13.3 13.85 13.3 14.0 13.65 14.45 13.95 14.85 13.95 14.95 L13.9 15.1 Q13.85 15.2 13.6 15.25 L10.5 15.35 Q4.45 15.35 2.45 14.95 1.7 14.8 0.8 14.5 -0.55 14.05 -1.15 13.85 L-1.3 13.8 Q-1.5 13.8 -1.5 14.0 -1.5 14.35 -0.85 14.8 -0.1 15.3 1.3 15.75 L1.9 15.9 2.0 15.9 1.5 15.85 0.45 15.7 Q-1.85 15.55 -3.85 15.2 -5.25 15.5 -6.9 15.3 L-8.2 15.5 Q-7.7 15.35 -7.15 15.15 -7.45 14.9 -7.65 14.55 -8.45 13.25 -6.65 12.6 -5.85 12.35 -5.15 12.2 L-3.2 12.2 Q-2.35 12.15 -1.7 12.4 -0.65 11.7 0.05 10.8 L0.05 10.85 Q0.05 11.05 0.1 11.1 0.2 11.2 0.55 11.4 0.85 11.2 1.35 10.35 1.95 9.25 2.3 8.85 3.9 6.85 6.55 6.85 9.25 6.85 11.0 8.15 L11.7 8.75 Q11.7 9.65 10.95 10.55 12.6 10.45 14.3 10.15 L18.05 8.45 18.2 8.4 Q16.9 9.15 15.45 10.1 L15.45 10.15 Q15.5 10.25 15.6 10.25 17.3 9.55 17.75 9.45 18.1 9.4 19.25 9.45 19.55 9.45 20.0 9.15 L20.95 8.4 Q22.5 7.35 24.5 7.35 25.65 7.35 26.15 7.8 26.5 8.1 26.55 8.7 L26.7 9.6 Q26.8 9.9 27.1 9.95 L27.2 9.9 M6.0 5.65 L6.45 5.55 6.9 5.5 6.8 5.55 6.0 5.65 M44.3 7.6 L44.4 7.65 Q44.75 8.05 44.8 8.45 L44.65 8.05 44.4 7.65 44.3 7.6 M41.35 11.1 Q40.3 11.4 39.2 11.5 38.85 11.25 39.2 10.95 39.95 10.4 40.95 10.05 41.15 9.95 41.1 9.85 41.1 9.7 40.95 9.5 40.8 9.35 40.75 9.15 40.7 8.85 40.9 8.6 41.35 7.95 42.3 7.55 42.6 7.4 42.75 7.35 L43.4 7.4 Q43.3 7.8 43.3 8.6 L43.3 9.2 Q43.2 9.45 43.0 9.65 42.5 10.05 40.5 10.7 40.95 10.95 41.35 11.1 M29.8 4.95 Q29.45 4.65 29.2 4.2 28.6 3.3 29.35 2.85 29.25 3.2 29.25 3.8 29.25 4.3 29.75 4.9 L29.8 4.95 M30.5 2.7 Q31.6 2.85 32.3 3.55 33.0 4.25 32.6 5.2 32.1 5.4 31.6 5.45 L31.9 5.3 Q32.05 5.15 32.05 4.95 31.35 3.6 30.65 2.85 L30.5 2.7 M27.4 10.0 L27.4 10.0 M31.95 9.5 L32.35 9.35 Q32.2 9.35 32.05 9.3 L31.95 9.5 M5.85 9.5 Q3.5 8.2 2.55 9.45 2.2 9.9 2.1 10.6 2.05 11.2 2.15 11.65 1.15 11.65 0.65 12.05 0.3 12.3 0.3 12.5 0.3 12.7 0.35 12.75 0.45 12.75 0.45 12.8 L0.75 12.9 Q1.25 12.75 2.15 12.6 L3.8 12.35 Q3.85 12.4 3.85 12.05 3.85 11.9 3.6 11.55 3.4 11.2 3.4 11.05 3.4 10.8 3.8 10.55 4.2 10.3 5.8 9.65 L5.85 9.5 M9.55 11.05 L9.55 11.1 9.6 11.1 9.55 11.05 M-0.6 13.3 L-0.4 13.25 -0.45 13.25 -0.6 13.3 M-1.7 14.95 L-1.7 14.95" fill="#666666" fill-rule="evenodd" stroke="none"/>
    <path d="M54.9 -6.5 Q53.9 -6.5 53.9 -7.4 53.9 -7.65 54.0 -7.7 L54.25 -7.75 Q54.6 -7.6 55.3 -7.4 55.75 -7.2 55.75 -6.9 55.75 -6.7 55.7 -6.65 L55.65 -6.6 Q55.4 -6.5 54.9 -6.5 M58.25 1.45 L58.2 1.45 Q58.0 1.4 57.9 1.2 L57.85 1.2 Q57.75 1.0 57.75 0.8 57.75 0.6 57.8 0.6 L57.8 0.55 Q58.5 0.4 58.95 0.65 59.35 0.85 59.35 1.1 59.35 1.3 59.3 1.35 L59.25 1.4 58.45 1.5 58.25 1.45 M46.6 1.15 Q46.65 1.05 46.7 1.0 46.9 0.9 47.25 0.9 48.0 1.0 48.4 1.75 L48.3 1.8 Q47.25 2.2 46.6 1.15 M27.45 12.0 L27.5 12.1 25.6 13.45 23.6 13.45 20.4 13.05 20.3 13.05 Q19.7 12.8 19.3 12.55 18.75 12.2 18.75 12.0 18.75 11.3 20.5 11.8 L21.85 12.25 Q22.6 12.5 22.75 12.5 L23.75 12.45 26.05 12.3 26.05 11.95 Q26.15 11.65 26.55 11.65 27.05 11.65 27.45 12.0 M15.7 15.6 Q15.0 16.35 11.25 16.35 L10.95 16.35 9.8 16.3 9.05 16.3 2.0 15.9 1.9 15.9 1.3 15.75 Q-0.1 15.3 -0.85 14.8 -1.5 14.35 -1.5 14.0 -1.5 13.8 -1.3 13.8 L-1.15 13.85 Q-0.55 14.05 0.8 14.5 1.7 14.8 2.45 14.95 4.45 15.35 10.5 15.35 L13.6 15.25 Q13.85 15.2 13.9 15.1 L13.95 14.95 Q13.95 14.85 13.65 14.45 13.3 14.0 13.3 13.85 13.3 13.4 13.7 13.35 14.0 13.3 14.5 13.55 14.95 13.8 15.3 14.2 15.65 14.65 15.65 15.05 L15.7 15.4 15.7 15.6 M0.05 10.8 Q0.65 10.05 1.0 9.2 2.1 6.6 5.95 5.65 L6.0 5.65 6.8 5.55 6.9 5.5 Q10.1 5.45 11.3 7.55 L11.4 7.7 11.4 7.75 11.45 7.75 Q11.65 8.25 11.7 8.75 L11.0 8.15 Q9.25 6.85 6.55 6.85 3.9 6.85 2.3 8.85 1.95 9.25 1.35 10.35 0.85 11.2 0.55 11.4 0.2 11.2 0.1 11.1 0.05 11.05 0.05 10.85 L0.05 10.8 M18.2 8.4 L18.3 8.35 Q20.85 7.2 23.6 6.4 L23.8 6.3 23.9 6.3 24.4 6.15 Q27.85 6.1 27.95 7.9 L28.0 8.1 Q28.2 8.85 27.65 9.35 27.45 9.65 27.2 9.9 L27.1 9.95 Q26.8 9.9 26.7 9.6 L26.55 8.7 Q26.5 8.1 26.15 7.8 25.65 7.35 24.5 7.35 22.5 7.35 20.95 8.4 L20.0 9.15 Q19.55 9.45 19.25 9.45 18.1 9.4 17.75 9.45 17.3 9.55 15.6 10.25 15.5 10.25 15.45 10.15 L15.45 10.1 Q16.9 9.15 18.2 8.4 M44.8 8.45 L44.85 8.55 44.0 10.0 43.95 10.0 43.7 10.2 43.5 10.3 43.45 10.3 43.35 10.4 43.3 10.4 43.15 10.45 42.95 10.55 42.3 10.8 42.25 10.8 41.35 11.1 Q40.95 10.95 40.5 10.7 42.5 10.05 43.0 9.65 43.2 9.45 43.3 9.2 L43.3 8.6 Q43.3 7.8 43.4 7.4 L43.65 7.45 43.75 7.45 44.3 7.6 44.4 7.65 44.65 8.05 44.8 8.45 M29.35 2.85 Q29.55 2.7 29.9 2.65 L30.0 2.65 30.5 2.7 30.65 2.85 Q31.35 3.6 32.05 4.95 32.05 5.15 31.9 5.3 L31.6 5.45 31.35 5.45 29.8 4.95 29.75 4.9 Q29.25 4.3 29.25 3.8 29.25 3.2 29.35 2.85 M27.4 10.0 L27.4 10.0 M5.85 9.5 L5.8 9.65 Q4.2 10.3 3.8 10.55 3.4 10.8 3.4 11.05 3.4 11.2 3.6 11.55 3.85 11.9 3.85 12.05 3.85 12.4 3.8 12.35 L2.15 12.6 Q1.25 12.75 0.75 12.9 L0.45 12.8 Q0.45 12.75 0.35 12.75 0.3 12.7 0.3 12.5 0.3 12.3 0.65 12.05 1.15 11.65 2.15 11.65 2.05 11.2 2.1 10.6 2.2 9.9 2.55 9.45 3.5 8.2 5.85 9.5" fill="#cccccc" fill-rule="evenodd" stroke="none"/>
  </g>
</svg>
