<?xml version="1.0" encoding="UTF-8" standalone="no"?>
<svg xmlns:ffdec="https://www.free-decompiler.com/flash" xmlns:xlink="http://www.w3.org/1999/xlink" ffdec:objectType="shape" height="25.55px" width="20.2px" xmlns="http://www.w3.org/2000/svg">
  <g transform="matrix(1.0, 0.0, 0.0, 1.0, 49.9, -10.15)">
    <path d="M-35.65 13.6 Q-35.4 13.4 -35.4 13.35 -35.4 13.05 -35.6 12.75 -35.7 12.6 -36.0 12.3 -36.65 11.55 -36.75 10.35 L-36.95 10.45 Q-36.7 10.25 -36.3 10.15 -34.3 10.3 -34.25 11.85 -34.25 12.95 -35.35 13.6 L-35.65 13.6 M-36.15 19.7 L-35.75 19.9 Q-35.05 20.15 -34.4 20.15 -33.6 20.15 -33.25 19.9 -33.05 19.75 -33.05 19.6 -33.05 19.0 -33.5 19.05 -33.75 19.1 -34.1 19.2 -34.3 19.2 -35.2 19.05 L-36.15 18.9 Q-35.95 18.4 -35.15 18.15 L-34.7 18.05 Q-33.8 17.95 -33.0 18.2 -32.35 18.45 -32.3 18.9 -32.25 19.6 -33.2 19.95 -34.75 20.45 -36.05 19.9 L-36.15 19.7 M-34.95 23.2 Q-35.0 23.0 -35.0 22.8 -34.95 22.65 -34.8 22.5 -34.5 22.2 -34.1 21.95 -33.75 21.7 -33.4 21.7 -31.85 21.6 -30.7 22.3 -29.95 22.8 -29.7 23.55 -30.15 24.2 -30.85 24.45 -30.85 24.4 -32.55 23.7 -34.35 22.95 -34.85 22.95 L-34.9 23.1 -34.95 23.2 M-33.4 24.5 L-33.85 24.35 Q-34.05 24.3 -34.2 24.2 -34.4 24.05 -34.55 23.85 L-34.6 23.8 Q-34.3 24.0 -33.75 24.3 L-33.4 24.5 M-44.9 24.4 Q-44.4 24.65 -44.4 25.1 -45.8 26.3 -46.3 24.8 -46.5 24.15 -45.6 24.1 -45.25 24.25 -44.9 24.4 M-40.55 21.9 Q-40.2 22.5 -40.8 22.95 -41.35 23.25 -41.95 22.95 L-42.75 22.45 -42.7 21.75 Q-42.65 21.1 -41.75 21.1 L-41.75 21.05 Q-40.95 21.25 -40.55 21.9 M-42.25 26.75 Q-41.75 27.0 -41.75 27.4 -43.25 28.65 -43.75 27.2 -44.0 26.5 -43.05 26.45 -42.65 26.6 -42.25 26.75 M-44.85 35.55 Q-45.1 35.3 -45.3 34.85 -45.7 34.2 -45.95 34.2 L-46.1 34.4 Q-46.15 34.5 -46.15 34.75 L-46.15 34.8 -46.2 34.75 Q-46.2 34.5 -46.25 34.25 -46.35 33.7 -45.8 33.4 -45.5 33.25 -45.3 33.2 -43.8 33.2 -43.3 34.25 -42.9 34.95 -43.55 35.55 -44.0 35.75 -44.55 35.65 L-44.85 35.55 M-48.3 23.3 L-48.05 23.15 Q-47.95 23.05 -47.95 23.0 -47.95 22.95 -48.3 22.55 -48.7 22.05 -49.05 21.7 -49.6 21.2 -49.9 21.25 L-49.9 21.2 Q-49.85 19.95 -48.5 19.5 -46.85 19.95 -46.9 21.55 -46.95 22.65 -47.55 23.4 L-48.3 23.3 M-49.5 22.55 L-49.45 22.65 -49.1 22.95 Q-49.35 22.8 -49.5 22.55" fill="#666666" fill-rule="evenodd" stroke="none"/>
    <path d="M-36.95 10.45 L-36.75 10.35 Q-36.65 11.55 -36.0 12.3 -35.7 12.6 -35.6 12.75 -35.4 13.05 -35.4 13.35 -35.4 13.4 -35.65 13.6 L-35.7 13.55 -36.75 13.3 -36.8 13.3 -36.8 13.25 -36.9 13.25 -37.0 13.15 Q-37.2 13.0 -37.35 12.8 L-37.35 12.75 -37.4 12.75 -37.4 12.7 -37.45 12.65 -37.45 12.6 -37.5 12.55 -37.5 12.5 -37.55 12.4 -37.55 12.3 -37.6 12.25 -37.6 11.95 -37.65 11.9 -37.65 11.8 -37.6 11.5 -37.55 11.3 -37.45 11.05 -37.45 10.95 -37.4 10.95 -37.4 10.9 -36.95 10.45 M-36.15 19.7 L-36.2 19.35 Q-36.2 19.15 -36.15 18.9 L-35.2 19.05 Q-34.3 19.2 -34.1 19.2 -33.75 19.1 -33.5 19.05 -33.05 19.0 -33.05 19.6 -33.05 19.75 -33.25 19.9 -33.6 20.15 -34.4 20.15 -35.05 20.15 -35.75 19.9 L-36.15 19.7 M-30.85 24.45 Q-31.85 24.85 -33.4 24.5 L-33.75 24.3 Q-34.3 24.0 -34.6 23.8 L-34.65 23.75 -34.9 23.3 -34.95 23.2 -34.9 23.1 -34.85 22.95 Q-34.35 22.95 -32.55 23.7 -30.85 24.4 -30.85 24.45 M-46.15 34.8 L-46.15 34.75 Q-46.15 34.5 -46.1 34.4 L-45.95 34.2 Q-45.7 34.2 -45.3 34.85 -45.1 35.3 -44.85 35.55 L-45.05 35.45 -45.65 35.2 -45.95 34.95 -46.0 34.95 -46.0 34.9 -46.05 34.9 -46.15 34.8 M-49.9 21.25 Q-49.6 21.2 -49.05 21.7 -48.7 22.05 -48.3 22.55 -47.95 22.95 -47.95 23.0 -47.95 23.05 -48.05 23.15 L-48.3 23.3 -48.35 23.3 -48.7 23.15 -49.0 23.05 -49.1 22.95 -49.45 22.65 -49.5 22.55 Q-49.8 22.15 -49.85 21.5 L-49.9 21.25" fill="#cccccc" fill-rule="evenodd" stroke="none"/>
  </g>
</svg>
