<?xml version="1.0" encoding="UTF-8" standalone="no"?>
<svg xmlns:ffdec="https://www.free-decompiler.com/flash" xmlns:xlink="http://www.w3.org/1999/xlink" ffdec:objectType="shape" height="24.65px" width="18.1px" xmlns="http://www.w3.org/2000/svg">
  <g transform="matrix(1.0, 0.0, 0.0, 1.0, 50.55, -11.2)">
    <path d="M-36.15 11.85 Q-36.05 12.3 -36.3 12.7 -38.0 13.2 -37.75 11.85 -37.65 11.3 -36.95 11.2 -36.3 11.35 -36.15 11.85 M-34.95 19.15 Q-34.35 19.4 -34.6 19.85 -36.0 20.8 -36.75 19.55 -37.15 18.85 -36.15 18.75 L-34.95 19.15 M-33.2 23.05 Q-32.55 23.25 -32.45 23.75 -32.35 24.55 -33.4 24.7 -34.7 24.9 -35.0 24.1 L-35.05 23.75 Q-35.15 23.3 -34.65 23.05 -34.35 22.9 -34.05 22.85 L-33.2 23.05 M-41.7 22.25 Q-41.5 22.6 -41.85 22.95 -42.75 23.45 -43.3 22.55 -43.75 21.75 -42.75 21.6 -42.0 21.75 -41.7 22.25 M-44.0 34.6 Q-43.45 34.8 -43.55 35.25 -44.45 36.45 -45.5 35.15 -46.05 34.45 -45.0 34.4 L-45.0 34.35 Q-44.45 34.45 -44.0 34.6 M-49.15 22.7 Q-50.7 22.5 -50.55 21.15 -50.5 20.35 -49.45 20.2 -48.35 20.6 -48.25 21.5 -48.15 22.4 -49.15 22.7" fill="#666666" fill-rule="evenodd" stroke="none"/>
  </g>
</svg>
