<?xml version="1.0" encoding="UTF-8" standalone="no"?>
<svg xmlns:ffdec="https://www.free-decompiler.com/flash" xmlns:xlink="http://www.w3.org/1999/xlink" ffdec:objectType="shape" height="77.15px" width="77.15px" xmlns="http://www.w3.org/2000/svg">
  <g transform="matrix(1.0, 0.0, 0.0, 1.0, 38.6, 38.55)">
    <path d="M0.0 -37.15 Q-15.4 -37.15 -26.25 -26.25 -37.15 -15.4 -37.15 0.0 -37.15 15.4 -26.25 26.25 -15.4 37.15 0.0 37.15 15.4 37.15 26.25 26.25 37.15 15.4 37.15 0.0 37.15 -15.4 26.25 -26.25 15.4 -37.15 0.0 -37.15 M0.0 -38.55 Q15.95 -38.55 27.25 -27.25 38.55 -15.95 38.55 0.0 38.55 16.0 27.25 27.25 15.95 38.6 0.0 38.6 -16.0 38.6 -27.3 27.25 -38.6 16.0 -38.6 0.0 -38.6 -15.95 -27.3 -27.25 -16.0 -38.55 0.0 -38.55" fill="#ffff33" fill-opacity="0.047058824" fill-rule="evenodd" stroke="none"/>
  </g>
</svg>
