<?xml version="1.0" encoding="UTF-8" standalone="no"?>
<svg xmlns:ffdec="https://www.free-decompiler.com/flash" xmlns:xlink="http://www.w3.org/1999/xlink" ffdec:objectType="shape" height="49.0px" width="26.4px" xmlns="http://www.w3.org/2000/svg">
  <g transform="matrix(1.0, 0.0, 0.0, 1.0, 10.9, 48.15)">
    <path d="M6.9 -46.45 Q7.1 -46.2 8.3 -45.2 L8.35 -45.1 8.35 -45.05 Q8.35 -45.0 8.15 -45.0 L7.9 -45.05 7.7 -45.15 Q7.6 -45.2 7.6 -45.4 5.65 -45.5 5.65 -46.15 5.65 -46.55 5.85 -46.75 6.15 -47.0 6.9 -46.45 M10.7 -45.45 L10.8 -45.15 Q10.7 -45.0 10.45 -44.95 L10.0 -44.85 Q9.95 -44.85 9.95 -45.05 9.95 -45.25 10.1 -45.45 L10.7 -45.45 M9.85 -40.45 Q9.35 -40.1 9.25 -40.1 8.85 -40.1 8.75 -40.3 8.7 -40.4 8.7 -40.55 8.7 -41.3 9.55 -41.5 L10.15 -41.45 Q10.4 -41.35 10.4 -41.0 10.4 -40.85 9.85 -40.45 M13.95 -38.95 L13.8 -38.9 Q13.65 -38.8 13.5 -38.8 13.2 -38.8 12.9 -39.15 12.75 -39.45 12.75 -39.55 L13.25 -40.05 Q13.75 -39.95 14.05 -39.35 L13.95 -38.95 M1.0 -2.65 Q0.95 -2.45 0.95 -2.3 0.95 -2.15 1.1 -1.55 1.25 -0.9 1.25 -0.75 L0.8 -0.3 0.55 -0.3 0.3 0.1 Q0.0 0.35 -0.45 0.35 -1.05 0.35 -1.5 -0.4 -1.75 -0.75 -1.85 -1.05 -1.85 -1.35 -1.55 -1.65 -1.25 -2.0 -1.0 -1.85 -0.9 -1.8 -0.55 -1.25 -0.3 -0.85 0.2 -0.75 L0.15 -0.8 Q0.1 -1.1 0.15 -1.4 0.15 -2.0 0.2 -2.1 0.3 -2.35 0.95 -2.85 1.0 -2.75 1.0 -2.65 M-6.85 -0.35 L-6.75 -0.45 Q-6.5 -0.7 -6.2 -0.7 -5.8 -0.7 -5.75 -0.4 L-5.75 0.1 -5.4 -0.3 Q-5.1 -0.5 -4.65 -0.45 -4.65 -0.95 -4.6 -1.25 -4.5 -1.8 -3.95 -1.65 -3.8 -1.5 -3.4 -0.8 -3.0 -0.2 -3.0 -0.15 -3.0 0.15 -3.35 0.3 L-4.35 0.5 -5.35 0.5 -5.7 0.6 -6.3 0.55 -6.8 0.5 -7.0 0.55 Q-7.45 0.55 -7.7 0.3 L-7.75 0.35 Q-7.7 0.4 -7.55 0.45 L-7.2 0.55 -7.4 0.6 -7.65 0.7 -8.0 0.65 -8.0 0.15 -7.85 0.1 Q-8.0 -0.1 -8.0 -0.3 -8.0 -0.85 -7.5 -1.55 -7.45 -1.5 -7.45 -1.1 -7.45 -0.85 -7.25 -0.75 L-6.85 -0.35" fill="#ffdc45" fill-rule="evenodd" stroke="none"/>
    <path d="M4.6 -46.4 L5.0 -46.35 5.3 -46.25 5.4 -46.15 Q5.5 -46.05 5.5 -45.9 5.5 -45.75 5.45 -45.65 L5.3 -45.45 Q5.2 -45.4 5.1 -45.4 4.85 -45.4 4.7 -45.5 L4.45 -45.5 4.4 -45.55 Q4.4 -45.65 4.4 -45.8 L4.4 -46.1 Q4.4 -46.4 4.55 -46.35 L4.6 -46.4 M5.05 -46.65 Q5.0 -46.75 5.0 -46.95 5.0 -47.2 5.15 -47.6 5.4 -48.15 5.75 -48.15 6.35 -48.15 6.7 -47.9 7.0 -47.55 7.15 -47.5 7.85 -47.15 8.2 -46.8 L9.85 -46.95 Q10.75 -46.95 11.05 -46.4 11.15 -46.2 11.2 -46.0 L11.2 -45.5 Q11.15 -45.3 10.95 -45.2 L10.05 -45.4 9.45 -45.35 9.3 -45.25 Q9.15 -45.15 9.1 -45.15 8.5 -45.2 8.05 -45.45 7.75 -45.6 7.35 -46.0 L6.8 -46.4 6.2 -46.85 5.9 -46.8 5.8 -46.6 Q5.75 -46.5 5.65 -46.45 5.2 -46.55 5.05 -46.65 M0.25 -43.95 Q0.25 -44.35 1.1 -44.8 1.95 -45.25 2.8 -45.3 L3.1 -45.3 3.25 -45.2 3.4 -45.05 3.3 -45.05 3.35 -45.0 3.35 -44.95 Q3.45 -44.9 3.55 -44.8 3.55 -44.7 3.55 -44.5 3.55 -44.25 3.5 -44.1 3.35 -43.95 2.95 -43.85 2.6 -43.9 2.45 -44.05 L1.7 -43.85 Q1.1 -43.65 0.95 -43.65 L0.3 -43.7 0.25 -43.8 0.25 -43.95 M5.55 -43.4 L5.85 -43.2 5.9 -43.1 Q5.85 -42.95 5.75 -42.9 5.5 -42.8 5.3 -42.8 L5.0 -42.85 4.65 -42.95 4.55 -43.05 Q4.5 -43.1 4.5 -43.25 4.5 -43.55 4.7 -43.65 L4.9 -43.65 5.3 -43.6 Q5.35 -43.55 5.55 -43.4 M10.0 -42.5 L10.15 -42.2 Q10.3 -41.95 10.3 -41.8 10.3 -41.65 10.2 -41.5 L10.1 -41.2 10.1 -41.15 Q10.1 -41.1 9.95 -41.1 9.8 -41.1 9.85 -41.2 L9.85 -41.3 8.85 -40.85 Q7.85 -40.4 7.6 -40.4 7.25 -40.4 6.8 -40.15 L6.65 -40.1 6.5 -39.95 6.25 -39.75 5.7 -39.75 5.6 -39.8 5.6 -39.95 5.8 -40.4 6.0 -40.9 Q6.15 -41.15 6.45 -41.25 L7.1 -41.4 Q8.0 -41.65 8.45 -42.1 8.55 -42.2 8.65 -42.55 8.9 -42.9 9.6 -42.8 L9.9 -42.6 10.05 -42.55 10.0 -42.5 M11.15 -41.8 L11.15 -42.35 Q11.8 -42.55 12.1 -42.25 12.3 -42.05 12.3 -41.7 12.3 -41.5 12.25 -41.4 12.15 -41.3 11.95 -41.3 11.9 -41.3 11.55 -41.5 L11.15 -41.8 M6.9 -36.35 Q6.9 -36.25 6.95 -36.1 L6.9 -35.95 Q6.8 -35.85 6.65 -35.85 L6.45 -35.9 6.4 -35.95 Q6.35 -36.0 6.35 -36.1 L6.35 -36.25 6.4 -36.35 6.9 -36.35 M6.15 -35.7 Q6.15 -35.25 5.35 -35.25 4.95 -35.25 4.25 -35.95 3.6 -36.7 3.25 -36.65 L3.2 -36.65 Q3.1 -36.7 3.1 -36.75 3.1 -36.8 3.15 -36.85 L3.25 -36.95 Q3.7 -36.95 4.15 -36.75 4.5 -36.6 5.7 -36.7 5.95 -36.55 6.05 -36.25 6.15 -36.05 6.15 -35.7 M8.05 -35.65 L8.2 -35.65 8.35 -35.6 8.35 -35.4 8.3 -35.05 Q8.3 -35.0 8.05 -35.0 L7.85 -35.0 7.75 -35.1 Q7.75 -35.15 7.75 -35.3 7.75 -35.5 7.85 -35.6 L8.05 -35.65 M4.85 -40.95 L4.6 -40.9 4.35 -40.95 Q4.1 -41.15 3.95 -41.4 L4.15 -41.6 4.3 -41.7 4.65 -41.7 4.9 -41.45 Q5.0 -41.25 5.0 -41.15 5.0 -41.0 4.85 -40.95 M3.5 -41.7 L3.45 -41.4 3.15 -41.3 1.45 -41.5 1.4 -41.6 1.4 -41.8 Q1.4 -42.05 1.6 -42.3 2.65 -42.55 3.15 -42.25 3.5 -42.05 3.5 -41.7 M1.8 -37.55 Q1.8 -37.7 2.0 -37.8 L2.45 -37.8 Q2.45 -37.7 2.55 -37.6 L2.5 -37.35 1.9 -37.3 1.85 -37.35 Q1.8 -37.45 1.8 -37.55 M1.3 -37.35 Q1.5 -37.2 1.5 -36.9 1.5 -36.65 1.45 -36.6 1.35 -36.4 1.05 -36.35 0.75 -36.45 0.35 -36.3 -0.05 -36.1 -0.3 -36.05 -0.45 -35.65 -0.55 -35.45 L-0.8 -35.3 Q-1.0 -35.25 -1.1 -35.25 -1.3 -35.5 -1.3 -36.05 -1.3 -36.7 -1.15 -36.85 -1.0 -37.0 0.2 -37.8 1.05 -37.5 1.3 -37.35 M5.4 -33.15 Q5.2 -33.3 5.05 -33.45 5.0 -33.55 5.0 -33.6 L5.15 -33.75 5.5 -33.9 5.75 -33.9 Q5.85 -33.85 5.9 -33.8 5.95 -33.75 5.95 -33.6 5.95 -33.4 5.9 -33.35 L5.75 -33.15 5.4 -33.15 M1.55 -33.9 Q1.25 -33.95 1.15 -34.1 L1.15 -34.3 Q1.15 -34.9 1.95 -34.8 2.25 -34.8 2.5 -34.6 2.75 -34.45 2.75 -34.2 2.75 -33.85 2.45 -33.85 L1.9 -33.85 1.55 -33.9 M2.3 -29.6 L2.1 -29.65 2.05 -29.7 Q2.05 -29.75 2.05 -29.9 2.05 -30.3 2.55 -30.35 3.1 -30.45 3.1 -30.1 3.1 -30.05 2.95 -29.85 L2.7 -29.6 2.3 -29.6 M4.85 -30.25 Q5.1 -29.85 5.1 -29.6 L5.05 -29.5 4.75 -29.5 4.6 -29.65 Q4.45 -29.7 4.2 -29.75 L3.8 -29.9 3.7 -30.0 Q3.65 -30.1 3.65 -30.25 3.65 -30.4 3.7 -30.45 L3.75 -30.45 4.35 -30.35 4.85 -30.25 M5.55 -28.7 Q5.5 -28.75 5.45 -28.8 5.4 -28.9 5.4 -28.95 L5.5 -29.05 5.7 -29.05 5.75 -28.9 Q5.7 -28.75 5.55 -28.7 M11.4 -35.1 L11.55 -34.9 11.55 -34.0 Q11.55 -33.95 11.4 -33.95 L11.25 -34.1 Q11.05 -34.25 10.3 -34.3 10.05 -34.4 9.95 -34.5 9.95 -34.55 9.95 -34.75 9.95 -34.9 9.95 -34.95 10.0 -35.05 10.2 -35.15 L10.65 -35.25 Q10.85 -35.3 11.3 -35.25 L11.4 -35.1 M9.95 -33.1 Q9.95 -33.55 10.35 -33.45 10.8 -33.35 10.8 -33.0 10.8 -32.75 10.65 -32.65 10.5 -32.55 10.4 -32.55 10.05 -32.55 10.0 -32.8 9.95 -32.85 9.95 -33.1 M8.6 -33.65 Q8.6 -33.5 8.5 -33.45 L8.35 -33.4 7.7 -33.4 7.65 -33.45 7.4 -33.55 7.35 -33.6 7.35 -34.0 8.2 -34.05 Q8.6 -33.75 8.6 -33.65 M7.0 -33.6 Q7.05 -33.6 7.05 -33.45 7.05 -33.25 6.85 -33.0 6.65 -32.7 6.5 -32.7 L6.3 -32.7 6.25 -32.75 6.25 -32.7 Q6.2 -32.7 6.2 -32.85 6.2 -33.15 6.3 -33.3 6.4 -33.55 6.8 -33.6 L7.0 -33.6 M14.7 -39.6 Q14.6 -39.9 14.45 -40.0 L13.75 -39.6 Q13.15 -39.3 13.0 -39.3 12.55 -39.3 12.35 -39.55 12.2 -39.7 12.2 -39.9 12.2 -40.1 12.3 -40.25 12.4 -40.55 12.65 -40.55 12.8 -40.55 12.75 -40.45 12.75 -40.35 12.85 -40.35 12.95 -40.35 13.35 -40.75 13.85 -41.25 14.4 -41.55 14.95 -41.55 15.25 -41.1 15.5 -40.8 15.5 -40.55 15.5 -40.15 15.4 -39.85 15.35 -39.55 15.15 -39.2 14.85 -39.3 14.7 -39.6 M14.5 -33.3 Q14.3 -33.4 13.8 -33.55 L13.75 -33.55 13.75 -33.7 Q13.75 -33.85 13.95 -34.0 14.15 -34.15 14.25 -34.05 L14.55 -33.35 14.5 -33.3 M15.0 -31.9 L14.85 -31.65 14.4 -31.65 14.3 -31.9 Q14.2 -32.15 14.0 -32.25 L12.4 -32.25 12.3 -32.3 Q12.25 -32.35 12.25 -32.5 L12.25 -32.7 12.3 -32.75 Q12.6 -32.85 13.3 -33.2 13.65 -33.4 14.2 -33.25 L14.7 -32.8 Q15.05 -32.4 15.05 -32.2 L15.0 -31.9 M14.4 -28.05 L14.4 -27.95 14.35 -27.9 14.35 -27.85 14.05 -27.85 14.0 -27.95 14.0 -28.05 Q14.05 -28.2 14.2 -28.25 14.35 -28.2 14.4 -28.05 M14.15 -25.95 L14.1 -26.05 Q14.1 -26.15 14.2 -26.3 14.25 -26.4 14.3 -26.4 14.5 -26.35 14.55 -26.25 L14.45 -26.0 14.45 -25.95 14.15 -25.95 M14.3 -24.0 L14.4 -24.0 14.55 -23.95 14.55 -23.8 Q14.5 -23.7 14.35 -23.7 L14.3 -23.65 Q14.25 -23.65 14.25 -23.8 14.25 -24.05 14.3 -24.0 M12.95 -22.65 L13.1 -22.65 13.25 -22.5 Q13.2 -22.35 13.05 -22.3 L12.95 -22.3 Q12.9 -22.35 12.9 -22.45 12.9 -22.6 12.95 -22.65 M12.2 -19.4 L12.1 -19.45 Q12.05 -19.5 12.0 -19.5 L12.1 -19.65 Q12.15 -19.65 12.3 -19.5 L12.2 -19.4 M9.55 -24.85 L9.55 -24.7 9.6 -24.6 9.55 -24.35 9.45 -24.3 9.3 -24.25 9.1 -24.3 9.0 -24.35 Q8.9 -24.4 8.9 -24.55 8.9 -24.8 9.1 -24.85 L9.55 -24.85 M7.6 -23.35 L7.35 -23.55 7.3 -23.6 Q7.3 -23.8 7.45 -23.9 L7.9 -23.9 7.9 -23.85 7.95 -23.7 7.9 -23.45 Q7.8 -23.35 7.6 -23.35 M7.15 -24.3 Q7.0 -24.15 6.8 -24.2 L6.6 -24.35 Q6.5 -24.45 6.5 -24.5 6.5 -24.8 6.85 -24.85 7.25 -24.85 7.25 -24.5 7.25 -24.4 7.15 -24.3 M6.15 -21.75 L6.6 -21.7 6.7 -21.6 Q6.8 -21.55 6.8 -21.4 6.8 -21.3 6.55 -21.05 6.3 -20.8 6.05 -20.8 L5.8 -20.8 Q5.5 -21.0 5.5 -21.25 5.5 -21.45 5.95 -21.75 L6.15 -21.75 M9.2 -22.65 Q9.4 -22.6 9.4 -22.4 L9.3 -22.35 9.1 -22.3 Q9.05 -22.35 9.05 -22.45 9.05 -22.6 9.15 -22.65 L9.2 -22.65 M3.95 -25.85 L3.9 -25.65 3.75 -25.55 3.6 -25.55 Q3.55 -25.6 3.55 -25.75 3.55 -25.9 3.6 -25.95 3.65 -26.0 3.75 -26.05 3.9 -25.95 3.95 -25.85 M5.3 -26.05 Q5.25 -25.9 5.15 -25.9 4.85 -25.9 4.7 -26.05 4.6 -26.15 4.6 -26.3 4.6 -26.55 4.8 -26.5 5.0 -26.5 5.4 -26.25 L5.3 -26.05 M2.6 -21.8 L2.35 -21.95 Q2.3 -22.0 2.3 -22.05 2.3 -22.15 2.45 -22.25 L2.6 -22.4 2.95 -22.4 3.3 -22.15 Q3.0 -22.1 2.85 -22.05 L2.6 -21.8 M5.65 -20.45 L5.65 -20.25 Q5.65 -20.15 5.6 -20.05 L5.55 -19.95 5.4 -19.9 Q5.1 -20.15 5.1 -20.2 5.1 -20.4 5.2 -20.45 L5.6 -20.5 5.65 -20.45 M3.1 -20.0 L3.05 -19.8 2.65 -19.75 2.6 -19.8 Q2.55 -19.85 2.55 -20.0 2.55 -20.25 2.6 -20.15 2.8 -20.2 3.05 -20.15 3.05 -20.1 3.1 -20.0 M1.55 -19.95 L1.5 -19.9 1.35 -19.85 Q1.35 -19.65 1.2 -19.4 1.05 -19.2 0.9 -19.2 0.6 -19.2 0.55 -19.65 0.55 -19.75 0.7 -19.9 0.95 -20.1 1.25 -20.1 L1.5 -20.1 1.55 -19.95 M8.75 -20.0 L8.55 -19.8 8.15 -19.8 7.85 -20.05 7.65 -20.25 7.65 -20.65 Q8.0 -20.8 8.4 -20.55 8.8 -20.4 8.8 -20.1 L8.75 -20.0 M10.2 -20.9 Q10.2 -21.2 10.45 -21.25 10.7 -21.25 10.85 -20.95 L10.75 -20.8 Q10.65 -20.65 10.45 -20.65 L10.25 -20.8 Q10.2 -20.85 10.2 -20.9 M9.7 -17.7 Q10.1 -17.45 10.1 -17.3 L10.1 -17.15 10.05 -17.1 Q10.0 -17.05 9.85 -17.0 L9.5 -16.95 Q9.15 -16.95 9.0 -17.15 8.95 -17.3 8.9 -17.5 L8.9 -18.0 Q9.3 -18.0 9.7 -17.7 M6.05 -15.0 Q6.05 -15.3 6.45 -15.35 6.8 -15.4 6.8 -15.05 6.8 -14.6 6.5 -14.6 6.3 -14.6 6.15 -14.75 6.05 -14.85 6.05 -15.0 M7.05 -14.7 Q7.05 -14.9 7.05 -14.85 L7.25 -14.85 7.45 -14.7 Q7.45 -14.6 7.35 -14.6 L7.1 -14.55 7.05 -14.55 7.05 -14.7 M8.1 -15.7 Q8.1 -16.1 8.5 -16.1 8.9 -16.1 8.9 -15.75 8.9 -15.55 8.7 -15.45 8.6 -15.4 8.5 -15.4 8.2 -15.4 8.1 -15.55 8.1 -15.6 8.1 -15.7 M9.8 -13.55 L9.8 -13.45 9.75 -13.2 9.65 -13.15 9.2 -13.15 9.15 -13.2 9.15 -13.25 Q9.1 -13.35 9.1 -13.45 9.1 -13.6 9.2 -13.7 L9.75 -13.7 9.8 -13.55 M5.45 -13.85 L5.35 -13.8 5.2 -13.75 Q5.15 -13.8 5.15 -14.0 5.35 -14.05 5.45 -13.95 L5.45 -13.85 M0.55 -3.95 Q0.3 -3.95 0.25 -4.1 0.2 -4.15 0.2 -4.3 0.2 -4.7 0.6 -4.65 1.0 -4.65 1.0 -4.3 1.0 -4.2 0.9 -4.1 0.8 -3.95 0.55 -3.95 M0.4 -0.4 Q0.55 -0.6 0.55 -0.9 0.55 -1.2 0.6 -1.35 0.75 -1.7 1.25 -1.55 L1.7 -1.25 Q2.05 -1.05 2.5 -1.15 2.65 -1.05 2.8 -0.85 2.9 -0.7 2.9 -0.6 2.9 -0.45 2.8 -0.35 L2.6 -0.2 Q2.1 -0.1 1.4 0.15 L0.7 0.4 Q0.4 0.4 0.3 0.2 0.25 0.1 0.25 0.0 0.25 -0.2 0.4 -0.4 M-8.0 -29.15 L-8.0 -28.9 -8.05 -28.95 -8.25 -28.8 -8.45 -28.95 -8.35 -29.05 -8.45 -29.15 Q-8.3 -29.4 -8.1 -29.4 -8.05 -29.35 -8.0 -29.2 L-8.0 -29.15 M-7.25 -28.9 L-7.15 -28.85 -7.25 -28.65 -7.4 -28.6 -7.55 -28.65 Q-7.6 -28.7 -7.6 -28.85 -7.6 -29.0 -7.55 -29.0 L-7.5 -29.0 -7.4 -29.05 Q-7.3 -29.05 -7.25 -28.9 M-3.15 -32.0 L-3.15 -31.95 Q-3.1 -31.95 -3.1 -31.8 L-3.1 -31.65 -3.15 -31.65 -3.2 -31.6 -3.4 -31.55 Q-3.65 -31.55 -3.6 -31.6 L-3.65 -31.65 -3.7 -31.8 Q-3.7 -31.95 -3.55 -32.0 L-3.15 -32.0 M-2.25 -26.3 L-2.3 -26.5 Q-2.3 -26.8 -2.05 -26.8 -1.8 -26.85 -1.6 -26.5 L-1.65 -26.3 -1.75 -26.25 -1.95 -26.25 Q-2.2 -26.25 -2.25 -26.3 M-3.25 -27.5 L-3.2 -27.45 Q-3.15 -27.4 -3.15 -27.25 L-3.2 -27.1 -3.45 -27.0 -3.75 -27.25 Q-3.75 -27.4 -3.65 -27.5 L-3.25 -27.5 M-3.75 -21.45 L-3.8 -21.25 -4.1 -21.15 -4.25 -21.2 Q-4.3 -21.25 -4.3 -21.4 -4.3 -21.65 -3.8 -21.65 L-3.75 -21.45 M-7.65 -21.45 Q-7.45 -21.35 -7.45 -21.15 -7.45 -21.05 -7.75 -20.85 L-7.95 -21.1 -8.05 -21.15 -8.0 -21.4 -7.65 -21.45 M-7.15 -21.25 L-7.15 -21.45 Q-7.15 -21.55 -7.0 -21.65 L-6.6 -21.6 Q-6.55 -21.55 -6.55 -21.45 L-6.6 -21.25 -6.65 -21.2 Q-6.7 -21.2 -6.85 -21.2 -7.1 -21.2 -7.05 -21.25 L-7.15 -21.25 M-2.45 -18.55 Q-2.4 -18.55 -2.4 -18.4 L-2.45 -18.25 Q-2.5 -18.2 -2.6 -18.15 L-2.7 -18.2 Q-2.75 -18.25 -2.75 -18.4 -2.75 -18.55 -2.7 -18.6 L-2.6 -18.6 -2.45 -18.55 M-2.35 -10.4 Q-2.45 -10.15 -2.7 -10.2 L-3.0 -10.25 -3.0 -10.3 -3.05 -10.45 Q-3.05 -10.9 -2.65 -11.0 -2.3 -11.1 -2.3 -10.65 -2.3 -10.5 -2.35 -10.4 M-6.35 -4.75 Q-6.6 -4.75 -6.65 -5.0 -6.7 -5.15 -6.65 -5.25 -6.65 -5.75 -6.3 -5.7 -5.95 -5.6 -5.95 -5.1 -5.95 -5.0 -6.05 -4.85 -6.15 -4.75 -6.35 -4.75 M-9.45 -0.55 L-9.0 -0.9 -8.7 -0.9 Q-8.45 -0.7 -8.4 -0.5 L-8.35 -0.15 Q-8.3 0.0 -7.95 0.1 -7.6 0.2 -7.6 0.4 -7.6 0.5 -7.7 0.65 -7.8 0.85 -8.0 0.85 -8.65 0.85 -9.7 -0.15 -9.7 -0.3 -9.45 -0.55 M-9.0 -2.75 Q-9.0 -3.1 -8.55 -2.95 L-8.5 -2.95 Q-8.5 -2.9 -8.5 -2.75 L-8.5 -2.55 -8.6 -2.5 Q-8.7 -2.45 -8.75 -2.45 L-8.95 -2.65 -9.0 -2.75 M-5.8 -0.6 Q-5.65 -0.85 -5.3 -1.15 -4.55 -0.75 -4.35 -0.45 -4.25 -0.3 -4.25 0.1 -4.25 0.3 -4.65 0.45 -4.9 0.6 -5.1 0.6 -5.65 0.6 -5.85 0.3 -5.95 0.2 -5.95 -0.05 -5.95 -0.35 -5.8 -0.6 M-3.85 -4.4 Q-3.95 -4.5 -3.95 -4.6 -3.95 -5.55 -3.35 -5.65 -3.15 -5.7 -2.95 -5.5 -2.8 -5.3 -2.8 -4.9 -2.8 -4.7 -3.0 -4.5 -3.25 -4.25 -3.55 -4.25 -3.7 -4.25 -3.85 -4.4 M-3.2 -3.3 Q-3.1 -3.45 -3.0 -3.5 -2.7 -2.55 -2.45 -2.05 -2.0 -1.15 -1.0 -0.75 -0.8 -0.55 -0.8 -0.2 -0.8 0.2 -1.25 0.45 -1.65 0.7 -2.25 0.7 -3.45 0.7 -3.45 -0.1 -3.45 -0.8 -3.35 -1.35 -3.3 -1.85 -3.3 -2.9 -3.3 -3.1 -3.2 -3.3 M0.0 -2.05 Q0.0 -1.4 -0.45 -1.4 -0.8 -1.4 -0.9 -1.8 -0.95 -2.0 -0.9 -2.25 -0.9 -2.85 -0.45 -2.65 0.0 -2.5 0.0 -2.05 M-10.4 0.4 L-10.5 0.55 -10.65 0.65 -10.9 0.4 -10.9 0.2 Q-10.85 0.1 -10.65 0.1 -10.45 0.25 -10.4 0.4" fill="#ffff66" fill-rule="evenodd" stroke="none"/>
    <path d="M5.5 -47.75 Q5.5 -47.95 5.6 -48.0 L5.95 -48.05 Q6.2 -48.05 6.4 -47.9 6.6 -47.7 6.5 -47.4 6.45 -47.3 6.4 -47.3 L6.1 -47.25 Q5.9 -47.25 5.75 -47.35 L5.55 -47.55 5.5 -47.55 5.5 -47.75 M2.75 -44.4 Q2.65 -44.35 2.6 -44.3 L2.35 -44.55 Q2.25 -44.7 2.25 -44.75 2.25 -44.95 2.4 -45.05 2.55 -45.1 2.85 -45.05 2.85 -44.95 2.95 -44.75 L2.85 -44.45 2.75 -44.4 M10.0 -46.15 Q9.5 -46.15 9.15 -46.45 9.35 -46.95 9.85 -47.2 10.45 -47.5 10.45 -46.7 10.45 -46.55 10.35 -46.4 10.25 -46.15 10.0 -46.15 M8.85 -42.05 Q8.75 -42.1 8.75 -42.3 8.75 -42.7 9.1 -42.65 9.4 -42.65 9.75 -42.3 9.65 -42.05 9.45 -42.0 L9.05 -42.0 8.85 -42.05 M6.4 -40.8 L6.3 -40.9 Q6.4 -41.2 6.7 -41.25 7.05 -41.3 7.35 -40.95 7.0 -40.75 6.65 -40.75 L6.4 -40.8 M0.25 -37.05 L0.0 -37.25 Q0.1 -37.5 0.3 -37.55 0.5 -37.6 0.8 -37.3 L0.85 -37.05 0.85 -37.0 Q0.85 -36.95 0.65 -36.95 0.45 -36.95 0.25 -37.05 M5.75 -36.35 L5.7 -36.25 5.7 -36.15 Q5.65 -36.1 5.45 -36.1 5.3 -36.1 5.15 -36.25 L4.95 -36.45 Q4.95 -36.75 5.15 -36.8 L5.7 -36.85 5.75 -36.75 5.75 -36.35 M1.85 -34.75 L2.05 -34.8 Q2.3 -34.7 2.35 -34.5 L2.4 -34.25 Q2.35 -34.2 2.2 -34.15 L1.95 -34.1 1.85 -34.2 Q1.8 -34.3 1.8 -34.5 L1.8 -34.7 1.85 -34.75 M3.65 -30.2 L3.75 -30.6 4.15 -30.6 Q4.45 -30.45 4.55 -30.2 L4.4 -30.0 Q4.25 -29.85 4.1 -29.85 L3.8 -29.9 3.75 -29.9 3.65 -30.2 M11.45 -34.9 L11.35 -34.75 Q11.25 -34.65 11.15 -34.6 L10.8 -34.95 Q10.8 -35.05 10.95 -35.15 11.05 -35.25 11.15 -35.25 11.35 -35.2 11.45 -34.9 M14.85 -40.55 Q14.7 -40.45 14.55 -40.45 14.25 -40.45 14.15 -40.75 14.1 -40.85 14.1 -40.95 14.1 -41.4 14.55 -41.3 15.0 -41.2 15.0 -40.85 15.0 -40.7 14.85 -40.55 M14.5 -33.2 L14.55 -32.95 Q14.55 -32.65 14.3 -32.55 L13.8 -32.5 13.5 -32.5 13.45 -32.55 Q13.4 -32.65 13.4 -32.85 13.4 -33.1 13.65 -33.25 13.95 -33.45 14.45 -33.3 L14.5 -33.2 M6.4 -21.3 Q6.35 -21.25 6.1 -21.2 L5.85 -21.25 Q5.75 -21.35 5.75 -21.55 5.75 -21.8 6.0 -21.8 6.25 -21.75 6.5 -21.55 L6.4 -21.3 M9.1 -18.2 Q9.85 -18.5 9.85 -17.75 9.85 -17.3 9.45 -17.25 9.15 -17.3 9.1 -17.5 9.05 -17.55 9.05 -17.75 L9.05 -18.0 9.1 -18.2 M8.4 -20.7 Q8.5 -20.65 8.6 -20.55 L8.7 -20.35 Q8.6 -20.2 8.4 -20.1 L8.25 -20.1 Q8.15 -20.15 8.15 -20.35 8.15 -20.55 8.25 -20.6 L8.4 -20.7 M1.75 -0.15 Q1.5 0.1 1.15 0.1 0.7 0.1 0.6 -0.1 0.55 -0.15 0.55 -0.35 0.55 -1.25 1.25 -1.35 1.5 -1.4 1.7 -1.2 1.9 -1.0 1.9 -0.65 1.9 -0.35 1.75 -0.15 M-8.95 -0.45 Q-8.65 -0.45 -8.25 -0.1 -8.35 0.15 -8.45 0.25 -8.55 0.3 -8.8 0.3 L-9.25 0.25 -9.25 -0.1 Q-9.25 -0.45 -8.95 -0.45 M-3.05 -0.55 Q-3.05 -1.65 -2.15 -1.0 -1.75 -0.7 -1.3 -0.15 -1.3 0.05 -1.45 0.2 -1.7 0.4 -2.35 0.4 -2.85 0.15 -2.95 -0.05 -3.05 -0.2 -3.05 -0.55 M-5.2 -0.55 Q-4.8 -0.55 -4.7 0.0 L-4.75 0.3 -4.9 0.35 Q-5.0 0.4 -5.2 0.4 -5.5 0.4 -5.6 0.15 -5.6 0.05 -5.6 -0.1 -5.6 -0.55 -5.2 -0.55" fill="#ffffff" fill-rule="evenodd" stroke="none"/>
  </g>
</svg>
