<?xml version="1.0" encoding="UTF-8" standalone="no"?>
<svg xmlns:ffdec="https://www.free-decompiler.com/flash" xmlns:xlink="http://www.w3.org/1999/xlink" ffdec:objectType="shape" height="30.95px" width="18.75px" xmlns="http://www.w3.org/2000/svg">
  <g transform="matrix(1.0, 0.0, 0.0, 1.0, 12.0, 8.8)">
    <path d="M1.15 -0.5 L1.1 -0.35 1.0 -0.35 1.0 -0.4 0.95 -0.5 Q0.95 -0.6 1.0 -0.6 L1.1 -0.6 1.15 -0.5 M2.5 -1.1 Q2.5 -1.45 2.95 -1.4 3.4 -1.4 3.4 -1.15 3.4 -1.0 3.3 -0.9 3.15 -0.8 3.0 -0.8 2.75 -0.8 2.6 -0.95 2.5 -1.05 2.5 -1.1 M1.75 -1.55 L1.7 -1.55 1.55 -1.5 Q1.35 -1.5 1.25 -1.7 L1.2 -1.9 Q1.2 -2.15 1.5 -2.0 1.8 -1.9 1.8 -1.7 L1.75 -1.55 M3.75 -0.2 L3.8 -0.05 Q3.8 0.0 3.7 0.05 L3.6 -0.05 Q3.6 -0.2 3.75 -0.2 M3.7 0.3 L3.75 0.5 Q3.75 0.7 3.7 0.85 3.55 1.1 3.2 1.1 2.8 1.1 2.7 0.9 L2.7 0.7 Q2.7 0.4 2.75 0.35 2.9 0.15 3.3 0.3 3.3 0.2 3.35 0.1 L3.6 0.1 3.7 0.3 M3.6 2.55 L3.55 2.5 Q3.5 2.45 3.5 2.3 3.5 2.1 3.75 2.1 4.0 2.1 4.0 2.3 4.0 2.4 3.9 2.5 3.85 2.55 3.75 2.55 L3.6 2.55 M2.95 2.85 L3.0 2.75 3.2 2.6 Q3.65 2.65 3.8 2.75 3.9 2.85 3.9 2.95 L3.85 3.15 Q3.8 3.25 3.7 3.25 3.3 3.25 3.1 3.1 2.95 2.95 2.95 2.85 M2.55 0.45 Q2.45 0.55 2.3 0.55 2.15 0.55 2.1 0.4 L2.1 0.25 Q2.1 0.0 2.35 0.0 2.6 0.0 2.6 0.25 2.6 0.4 2.55 0.45 M1.6 1.35 Q1.35 1.35 1.2 1.15 1.05 0.9 0.95 0.8 L0.7 0.55 Q0.65 0.5 0.65 0.35 0.65 0.0 0.85 -0.05 1.1 -0.1 1.3 0.15 L1.75 0.55 Q2.1 0.85 2.1 0.9 2.1 1.0 2.0 1.0 1.95 1.0 1.95 1.1 1.95 1.2 1.8 1.3 L1.6 1.35 M0.85 3.35 Q0.65 3.6 0.35 3.6 -0.05 3.6 -0.2 3.4 L-0.25 3.15 Q-0.25 2.75 0.4 2.65 1.0 2.55 1.0 3.0 1.0 3.2 0.85 3.35 M0.05 2.05 Q0.0 2.1 -0.1 2.1 -0.25 2.1 -0.2 2.1 L-0.25 1.95 -0.2 1.85 Q-0.2 1.75 -0.05 1.75 L0.15 1.95 0.05 2.05 M1.15 2.45 L1.0 2.5 Q0.95 2.45 0.95 2.35 L1.05 2.3 1.15 2.35 1.15 2.45 M1.75 4.3 Q2.1 4.45 2.1 4.65 2.1 5.0 1.2 5.0 0.85 5.0 0.65 4.7 L0.55 4.35 Q0.55 4.1 0.65 4.0 0.85 3.85 1.3 3.95 1.45 4.0 1.55 4.1 L1.75 4.3 M2.05 3.8 Q2.3 3.7 2.3 3.95 2.3 4.05 2.2 4.1 2.15 4.2 2.05 4.2 L1.9 4.15 1.75 4.05 Q1.85 3.9 2.05 3.8 M4.65 5.05 L4.85 5.1 4.9 5.25 4.7 5.35 4.6 5.3 Q4.55 5.3 4.55 5.15 4.55 5.1 4.65 5.05 M4.3 4.75 Q4.25 4.75 4.25 4.8 L4.2 4.85 4.15 4.6 4.1 4.4 4.3 4.6 4.3 4.75 M4.1 5.0 L4.0 5.1 Q3.95 5.2 3.95 5.25 3.95 5.35 4.05 5.45 L4.3 5.7 4.5 5.95 Q4.55 6.05 4.55 6.2 4.55 6.35 4.45 6.5 4.25 6.75 3.9 6.75 3.3 6.65 3.3 5.75 3.3 5.55 3.45 5.35 3.6 5.1 3.85 5.1 3.95 5.1 4.0 5.05 4.05 5.0 4.1 5.0 M3.8 6.0 L4.0 6.2 Q3.95 6.15 4.0 6.05 L3.8 6.0 M1.65 8.65 L1.7 8.95 Q1.75 8.8 1.7 8.6 L1.7 8.65 1.65 8.65 M1.9 8.35 L1.9 8.65 Q1.9 8.7 1.95 8.9 2.05 9.05 2.05 9.15 2.05 9.55 1.85 9.7 1.95 9.8 2.05 10.05 2.15 10.35 2.65 10.25 L2.65 10.45 Q2.65 10.75 2.3 11.0 2.0 11.2 1.8 11.2 1.5 11.2 1.35 10.8 L1.2 10.4 Q1.2 10.1 1.4 9.85 L1.5 9.7 Q1.35 9.6 1.2 9.25 L1.05 8.75 Q1.05 8.45 1.4 8.15 1.75 7.85 1.95 8.15 L1.9 8.35 M2.5 8.3 Q2.75 8.35 2.75 8.65 L2.7 8.8 Q2.6 8.85 2.5 8.85 L2.3 8.8 2.25 8.6 Q2.25 8.25 2.5 8.3 M0.15 7.85 L0.1 8.0 Q0.15 8.05 0.0 8.05 L-0.1 8.0 -0.15 7.95 -0.15 7.85 -0.1 7.8 Q-0.05 7.75 0.0 7.75 0.1 7.75 0.15 7.85 M2.75 9.25 Q2.95 9.45 3.1 9.75 3.1 10.0 2.85 10.0 2.55 10.0 2.45 9.75 L2.4 9.5 Q2.4 8.9 2.75 9.25 M1.7 10.35 L1.75 10.5 1.85 10.5 Q1.75 10.4 1.7 10.35 M2.15 12.0 Q2.15 11.85 2.25 11.85 L2.6 11.9 2.5 12.1 Q2.45 12.2 2.3 12.2 L2.15 12.0 M0.8 12.15 L0.8 12.25 Q0.8 12.35 0.7 12.5 0.55 12.65 0.5 12.75 L0.35 13.0 Q0.3 13.1 0.15 13.1 L-0.15 13.0 -0.2 12.85 Q-0.2 12.5 0.2 12.25 0.55 12.0 0.8 12.1 L0.8 12.15 M0.6 13.6 Q0.65 13.45 0.8 13.35 L1.15 13.1 1.75 13.15 1.95 12.95 Q2.25 12.75 2.5 12.85 2.75 13.0 2.8 13.15 2.85 13.25 2.85 13.4 L2.85 13.55 2.65 13.8 2.6 13.85 Q3.1 13.85 3.3 14.15 3.5 14.35 3.5 14.55 3.5 14.75 3.35 14.85 3.05 15.05 2.9 15.2 2.8 15.3 2.35 15.55 1.85 15.75 1.7 15.75 1.2 15.75 1.0 15.2 0.9 14.8 0.95 14.45 0.7 14.35 0.6 14.15 L0.6 13.6 M1.05 13.8 L1.5 14.4 1.45 14.6 1.7 15.25 Q2.4 15.05 2.45 14.9 L1.8 14.25 Q1.8 13.85 1.7 13.8 L1.55 13.85 1.05 13.8 M5.3 11.3 Q5.3 11.7 4.8 11.85 4.5 12.0 4.2 12.0 3.65 12.0 3.55 11.75 L3.5 11.5 Q3.5 11.0 4.0 10.85 4.8 10.55 5.1 10.3 L5.1 10.8 Q5.1 10.95 5.2 11.05 5.3 11.2 5.3 11.3 M4.05 11.45 L4.25 11.45 4.45 11.4 4.15 11.4 4.05 11.45 M3.65 13.75 Q3.5 13.75 3.4 13.6 3.35 13.55 3.35 13.45 3.35 13.25 3.6 13.25 3.85 13.25 3.85 13.45 3.85 13.75 3.65 13.75 M0.1 18.65 L0.0 18.75 Q-0.05 18.85 -0.15 18.85 L-0.25 18.65 -0.25 18.55 0.0 18.55 0.1 18.65 M-1.0 -8.2 L-0.95 -8.1 Q-0.95 -8.0 -1.05 -7.9 L-1.2 -7.85 -1.3 -7.9 -1.35 -8.05 Q-1.35 -8.25 -1.0 -8.2 M-2.35 0.0 L-2.3 0.0 -2.25 0.1 -2.3 0.15 Q-2.35 0.25 -2.35 0.05 L-2.35 0.0 M-2.3 0.35 L-2.35 0.45 -2.4 0.45 -2.4 0.3 -2.3 0.3 -2.3 0.35 M-2.3 0.5 L-2.2 0.6 Q-2.15 0.65 -2.15 0.75 -2.15 0.85 -2.25 0.95 L-2.65 1.0 -2.7 0.7 Q-2.7 0.55 -2.45 0.45 L-2.3 0.5 M-0.15 2.45 Q-0.15 3.05 -0.7 3.05 -1.05 3.05 -1.15 2.85 L-1.2 2.6 Q-1.2 2.45 -1.0 2.25 -0.8 2.0 -0.7 2.0 L-0.45 2.0 Q-0.2 2.05 -0.15 2.25 L-0.15 2.45 M-6.95 9.95 Q-6.7 9.7 -6.05 9.7 L-5.4 9.75 Q-5.25 9.85 -5.15 9.85 L-4.05 10.05 Q-3.95 10.1 -3.7 10.35 -3.45 10.6 -3.45 10.7 -3.45 10.95 -3.55 11.25 L-3.6 11.4 -3.55 11.45 Q-2.9 11.8 -2.65 11.8 -1.8 11.85 -1.55 12.1 -1.45 12.25 -1.45 12.55 -1.45 12.85 -1.6 13.15 -1.7 13.4 -1.7 13.55 -1.7 13.75 -1.6 14.1 -1.45 14.45 -1.45 14.85 -1.45 15.25 -1.5 15.35 -1.6 15.65 -2.0 15.8 L-2.3 15.8 Q-2.45 15.8 -2.5 15.7 L-2.6 15.65 -2.7 15.5 Q-3.05 15.7 -3.3 16.1 L-3.45 16.4 -3.4 16.45 Q-2.9 16.7 -2.9 16.85 -2.85 17.45 -2.85 17.7 -2.85 17.9 -3.0 18.25 -3.25 18.7 -3.55 18.7 -3.75 18.7 -3.85 18.6 L-4.0 18.45 Q-4.25 18.8 -4.5 19.0 -4.35 19.1 -4.25 19.25 L-4.2 19.55 Q-4.15 19.75 -4.1 19.85 L-3.6 19.6 Q-3.35 19.45 -3.0 19.45 -2.25 19.45 -2.05 19.65 L-1.8 19.95 Q-1.6 20.2 -1.3 20.4 L-1.1 20.4 -0.95 20.2 Q-0.9 20.15 -0.8 20.15 -0.7 20.15 -0.65 20.25 -0.6 20.3 -0.6 20.35 -0.6 20.65 -1.0 21.3 -1.55 22.15 -2.25 22.15 -2.8 22.15 -3.25 21.75 L-3.55 21.35 Q-3.85 21.35 -4.2 21.5 L-4.55 21.6 -4.6 21.7 Q-4.6 21.85 -4.8 22.0 -5.0 22.15 -5.25 22.15 -5.8 22.15 -6.15 21.6 -6.5 21.05 -6.25 20.75 L-6.3 20.65 -6.75 20.6 Q-6.85 20.6 -6.85 20.5 L-6.3 20.15 Q-5.8 20.2 -5.8 20.6 L-5.8 21.15 -5.3 21.6 -3.4 20.8 Q-2.9 20.8 -2.55 21.2 -2.25 21.55 -2.0 21.55 L-1.45 21.4 Q-1.35 21.15 -1.15 20.9 -1.5 21.0 -1.95 20.6 L-2.4 20.0 -4.05 20.6 -4.7 20.3 -4.85 20.0 -6.4 19.7 Q-6.8 19.7 -7.05 19.35 -7.3 19.05 -8.0 19.05 -8.05 19.05 -8.15 19.1 L-8.35 19.15 Q-8.9 19.15 -9.15 18.75 L-9.3 18.3 Q-9.3 18.0 -9.2 17.8 -8.95 17.45 -8.85 17.1 L-8.8 17.0 -8.9 17.05 Q-9.15 17.2 -9.45 17.3 L-9.5 17.35 Q-9.55 17.45 -9.7 17.45 L-9.85 17.4 Q-9.65 17.55 -9.6 17.8 -9.6 17.95 -9.6 18.35 -9.6 18.6 -9.7 19.15 L-9.2 19.25 Q-9.1 19.25 -8.95 19.4 L-8.75 19.55 -8.55 19.6 Q-8.05 19.55 -7.8 19.8 -7.65 20.0 -7.65 20.2 -7.65 20.65 -8.35 20.9 -9.05 21.15 -10.05 21.1 L-8.55 20.05 -10.15 19.4 -10.85 18.65 -11.0 19.25 -11.3 19.6 Q-11.45 19.3 -11.45 19.15 -11.2 18.15 -11.1 18.1 L-10.8 18.05 Q-10.6 18.0 -10.55 17.95 L-10.55 17.7 Q-10.55 17.55 -10.4 17.4 -10.3 17.3 -10.1 17.3 -10.4 17.25 -10.7 17.1 -11.1 16.85 -11.2 16.6 L-11.35 15.95 Q-11.45 15.85 -11.45 15.8 -11.45 15.55 -11.0 15.3 -10.5 15.0 -10.35 14.8 -10.2 14.5 -9.4 14.45 L-8.75 14.5 Q-8.65 14.3 -8.65 14.1 -8.65 13.75 -8.95 13.6 -9.2 13.4 -9.2 13.15 -9.2 12.9 -8.85 12.5 -8.55 12.15 -8.3 12.05 -8.0 11.85 -7.85 11.55 -7.65 11.15 -7.55 10.95 -7.4 10.7 -7.15 10.4 L-7.1 10.4 Q-7.1 10.1 -6.95 9.95 M-6.05 10.35 L-6.3 10.35 Q-7.1 11.2 -7.25 11.45 L-8.45 15.3 Q-8.05 15.4 -7.95 15.5 L-7.9 15.7 Q-7.9 16.3 -8.15 16.85 L-7.35 18.4 -7.3 18.05 -7.2 17.65 Q-7.1 18.2 -6.7 18.75 L-4.5 17.25 -4.55 17.0 -4.45 16.6 -4.3 16.3 Q-4.2 16.2 -3.6 15.6 L-3.25 15.05 -2.55 14.6 -1.95 12.55 -3.85 11.8 Q-4.25 11.5 -4.35 11.35 L-4.3 10.95 -4.2 11.05 -4.25 10.9 Q-4.45 10.55 -4.7 10.6 L-5.65 10.85 -6.05 10.35 M-0.6 7.45 Q-0.5 7.5 -0.7 7.5 -0.8 7.5 -0.8 7.45 L-0.85 7.35 -0.95 7.45 -1.0 7.6 -0.65 7.95 Q-0.25 8.25 -0.25 8.3 -0.25 8.45 -0.55 8.55 -0.85 8.65 -1.05 8.65 -1.35 8.65 -1.55 8.3 -1.65 8.1 -1.65 7.95 -1.65 7.8 -1.35 7.55 L-0.95 7.2 Q-0.8 7.25 -0.8 7.3 L-0.65 7.4 -0.6 7.45 M-1.5 9.45 Q-1.4 9.4 -1.3 9.35 L-1.25 9.25 -1.15 9.15 Q-0.8 8.85 -0.5 9.35 L-0.8 9.3 Q-1.0 9.35 -1.0 9.45 -0.95 9.55 -0.9 9.8 L-0.9 10.0 Q-0.85 10.45 -0.5 10.45 -0.3 10.45 -0.3 10.2 -0.3 10.05 -0.35 9.9 L-0.3 9.85 Q-0.2 9.95 -0.2 10.25 -0.2 10.55 -0.45 10.8 L-1.05 11.3 Q-1.65 11.3 -1.8 10.9 -1.85 10.8 -1.85 10.3 L-1.85 10.05 Q-1.85 9.85 -1.75 9.75 L-1.5 9.45 M-4.45 13.15 Q-4.5 13.35 -4.5 13.5 -4.6 13.7 -4.75 13.85 -4.85 14.0 -4.85 14.05 -4.85 14.2 -4.65 14.45 L-4.55 14.4 Q-4.5 14.4 -4.5 14.3 -4.5 14.2 -4.55 14.15 -4.6 14.05 -4.6 13.95 -4.6 13.8 -4.55 13.75 -4.4 13.65 -4.05 13.55 -4.0 13.5 -3.95 13.25 L-3.85 12.9 -4.25 12.85 -4.4 12.8 -4.45 13.15 M-4.9 12.85 L-4.35 12.15 -3.45 12.7 -3.55 13.65 -4.15 14.65 -4.8 14.95 -5.25 14.5 -5.2 13.65 -4.9 12.85 M-0.4 11.1 Q0.1 10.9 0.1 11.3 0.1 11.4 -0.15 11.7 -0.45 12.0 -0.55 12.0 L-0.95 11.65 Q-0.95 11.3 -0.4 11.1 M-1.25 12.9 Q-1.25 12.8 -1.2 12.75 -1.1 12.65 -0.9 12.75 L-0.9 12.8 Q-0.85 12.8 -0.85 12.9 -0.85 13.05 -1.05 13.15 L-1.2 13.0 -1.25 12.9 M-0.95 13.75 Q-0.5 13.8 -0.5 14.15 -0.5 14.25 -0.7 14.4 -0.85 14.55 -0.95 14.55 -1.2 14.55 -1.3 14.35 L-1.35 14.1 Q-1.35 13.75 -0.95 13.75 M-0.8 13.5 L-0.8 13.6 -0.9 13.6 -0.9 13.4 -0.8 13.4 -0.8 13.5 M-2.35 17.0 Q-2.05 17.05 -2.05 17.4 -2.05 17.6 -2.15 17.75 -2.25 17.9 -2.4 17.9 -2.6 17.9 -2.65 17.7 L-2.65 17.5 Q-2.65 16.95 -2.35 17.0 M-0.75 19.35 Q-0.8 19.45 -1.0 19.45 -1.25 19.45 -1.3 19.35 L-1.3 19.2 Q-1.3 19.0 -1.15 18.95 -0.95 18.85 -0.65 19.1 -0.7 19.3 -0.75 19.35 M-9.35 15.0 L-9.65 15.0 Q-9.85 14.95 -9.9 15.05 L-10.6 15.65 Q-10.8 15.8 -10.8 15.95 L-10.25 16.65 -10.1 16.75 -9.0 16.5 -9.35 15.85 -9.0 15.1 -9.0 15.0 -9.35 15.0 M-9.95 17.3 L-9.95 17.3 M-7.5 19.3 Q-7.4 19.35 -7.35 19.45 L-7.25 19.55 Q-7.25 19.65 -7.35 19.75 -7.4 19.85 -7.5 19.85 -7.65 19.85 -7.8 19.75 -7.95 19.65 -7.95 19.55 L-7.9 19.45 Q-7.8 19.35 -7.7 19.3 L-7.5 19.3" fill="#ffdc45" fill-rule="evenodd" stroke="none"/>
    <path d="M2.75 -1.3 L3.15 -1.3 3.2 -1.15 3.15 -0.95 3.0 -0.85 2.7 -0.9 Q2.65 -0.9 2.65 -1.05 2.65 -1.25 2.75 -1.3 M5.0 -2.2 L5.1 -2.25 Q5.2 -2.35 5.4 -2.3 L5.4 -1.9 5.25 -1.8 5.15 -1.75 5.1 -1.8 5.05 -1.8 5.05 -1.85 5.0 -1.85 Q4.95 -1.85 4.95 -2.0 L4.95 -2.2 5.0 -2.2 M6.55 0.25 L6.5 0.25 Q6.4 0.25 6.4 0.05 6.45 0.0 6.6 0.05 L6.55 0.25 M6.75 2.9 L6.75 3.0 Q6.7 3.1 6.45 3.15 L6.35 3.1 Q6.35 3.05 6.35 2.95 6.35 2.7 6.65 2.75 L6.75 2.9 M3.15 1.05 Q2.95 1.0 2.9 0.95 L3.1 0.8 3.3 0.7 3.15 0.75 2.85 0.8 2.7 0.75 2.75 0.75 2.7 0.6 Q2.75 0.5 2.95 0.45 3.3 0.25 3.45 0.4 3.5 0.45 3.5 0.65 L3.5 0.85 Q3.45 1.05 3.15 1.05 M3.75 2.95 L3.75 3.2 Q3.85 3.2 3.65 3.2 L3.3 3.1 Q3.1 3.05 3.0 2.95 3.1 2.75 3.25 2.8 3.4 2.8 3.75 2.95 M1.55 0.6 Q1.9 0.85 2.0 1.0 1.9 1.2 1.75 1.25 L1.5 1.25 Q1.35 1.1 0.95 0.85 0.75 0.75 0.75 0.5 0.75 0.35 0.8 0.35 L0.85 0.3 Q1.1 0.35 1.35 0.5 L1.45 0.55 1.5 0.6 1.55 0.6 M0.15 3.4 L-0.05 3.4 -0.2 3.35 Q-0.1 3.2 0.2 3.05 L0.6 2.85 0.65 2.95 0.65 3.1 0.55 3.15 Q0.45 3.2 0.45 3.25 0.45 3.35 0.4 3.4 L0.15 3.4 M1.1 4.35 Q1.3 4.55 1.6 4.65 L1.6 4.75 Q1.6 4.8 1.5 4.8 1.3 4.8 1.1 4.65 L0.65 4.4 Q0.65 4.35 0.75 4.2 L0.85 4.05 1.1 4.35 M3.45 5.65 L4.0 5.9 Q4.25 6.05 4.25 6.2 4.25 6.3 4.1 6.45 L3.9 6.65 Q3.65 6.65 3.5 6.25 3.35 6.0 3.35 5.85 3.35 5.75 3.4 5.7 L3.45 5.65 M3.75 9.45 L3.8 9.7 3.65 9.9 3.45 10.05 3.35 10.0 Q3.3 10.0 3.3 9.85 3.3 9.75 3.4 9.65 3.5 9.5 3.75 9.45 M1.05 8.9 Q1.05 8.8 1.35 8.6 1.65 8.45 1.65 8.7 1.65 8.8 1.75 8.95 1.85 9.05 1.85 9.15 L1.8 9.45 1.7 9.5 1.75 9.55 Q1.7 9.65 1.55 9.65 L1.5 9.5 Q1.4 9.5 1.35 9.45 L1.2 9.35 Q1.05 9.1 1.05 8.9 M1.35 10.2 Q1.4 10.05 1.45 9.95 1.65 9.95 1.9 10.2 L2.15 10.45 Q2.1 10.4 2.1 10.3 L2.5 10.25 Q2.75 10.25 2.75 10.55 L2.7 10.75 2.65 10.9 2.4 10.95 Q2.4 10.8 2.25 10.7 L2.2 10.65 2.2 10.7 2.15 10.95 Q2.15 11.0 2.15 11.1 L2.0 11.2 1.75 11.25 Q1.45 11.25 1.35 10.9 L1.3 10.5 Q1.3 10.35 1.35 10.2 M0.1 13.25 Q-0.25 13.0 -0.25 12.7 L-0.25 12.5 Q0.15 12.45 0.2 12.7 L0.35 13.15 0.1 13.25 M0.7 13.65 Q0.95 13.45 1.35 13.5 1.6 13.65 1.7 13.85 L1.85 14.25 Q2.05 14.55 2.85 14.25 3.05 14.3 3.2 14.4 L3.45 14.6 Q3.25 14.95 2.75 15.3 2.1 15.7 1.6 15.7 0.85 15.7 1.05 14.4 L0.65 14.25 0.55 14.2 Q0.5 14.15 0.5 14.05 0.5 13.85 0.7 13.65 M2.05 13.9 L1.75 13.9 1.75 13.85 Q1.75 13.8 1.75 13.7 1.75 13.25 2.15 13.2 2.55 13.15 2.55 13.45 2.55 13.9 2.05 13.9 M4.8 11.85 Q4.55 12.0 4.3 12.0 3.95 12.0 3.8 11.8 3.7 11.7 3.7 11.55 L3.7 11.45 3.75 11.45 Q3.85 11.45 4.0 11.45 L4.2 11.5 4.15 11.4 4.25 11.25 4.75 11.2 Q4.95 11.3 5.0 11.35 5.1 11.4 5.1 11.5 5.1 11.7 4.8 11.85 M-0.9 -8.75 Q-0.9 -8.7 -0.9 -8.6 -0.9 -8.5 -0.9 -8.45 L-1.0 -8.35 -1.1 -8.3 -1.25 -8.35 -1.25 -8.5 Q-1.25 -8.65 -1.2 -8.7 L-1.1 -8.8 -0.9 -8.75 M-2.25 0.8 L-2.25 0.95 Q-2.25 1.0 -2.35 1.1 L-2.5 1.25 -2.7 1.15 -2.7 0.95 Q-2.7 0.85 -2.65 0.8 -2.55 0.75 -2.3 0.8 L-2.25 0.8 M-0.65 2.8 L-1.15 2.85 Q-1.2 2.85 -1.2 2.65 -1.2 2.55 -1.05 2.35 -0.95 2.2 -0.8 2.25 -0.6 2.35 -0.55 2.45 L-0.35 2.75 -0.65 2.8 M-5.8 10.0 Q-5.6 10.05 -5.55 10.15 -5.5 10.25 -5.5 10.45 L-5.5 10.55 -5.4 10.5 -5.05 10.45 -4.75 10.25 -4.25 10.3 Q-4.2 10.4 -4.0 10.85 -4.0 11.2 -4.2 11.65 L-4.15 11.7 Q-4.15 11.6 -4.0 11.6 L-3.7 11.65 -3.5 11.75 -3.35 11.95 -3.0 11.95 -2.7 11.9 -2.5 11.9 -2.2 11.95 Q-1.8 12.4 -1.8 12.8 L-1.95 13.55 Q-1.95 13.75 -1.75 15.1 -1.75 15.3 -1.85 15.45 -2.0 15.65 -2.15 15.65 -2.35 15.65 -2.45 15.3 -2.6 14.95 -2.75 14.9 L-3.0 14.95 Q-3.2 15.05 -3.35 15.65 -3.45 16.15 -4.1 16.3 L-4.3 16.7 Q-4.45 17.05 -4.45 17.15 -4.45 17.25 -4.25 17.55 -4.0 17.85 -4.0 17.95 -4.0 18.1 -4.8 18.7 -5.65 19.25 -5.95 19.25 -6.5 19.25 -6.9 19.0 -7.1 18.95 -7.35 18.8 L-7.45 18.6 -7.65 18.65 -7.9 18.7 Q-8.25 18.7 -8.6 18.55 -8.95 18.35 -8.95 18.15 -8.95 18.05 -8.5 17.15 -8.05 16.25 -8.05 16.05 -8.05 15.95 -8.1 15.9 L-8.2 15.75 -8.5 15.7 -8.75 15.35 Q-8.8 15.25 -8.8 15.05 -8.8 14.95 -8.7 14.8 -8.65 14.6 -8.45 14.5 L-8.3 14.35 -8.55 13.95 Q-8.75 13.7 -8.75 13.55 -8.75 13.3 -8.65 13.2 L-8.55 13.1 -8.65 13.1 -8.15 12.75 Q-7.95 12.55 -7.95 12.3 -7.95 12.0 -7.55 11.45 L-7.0 10.7 Q-6.6 10.25 -6.15 9.95 L-5.8 10.0 M-1.45 7.9 Q-1.3 7.9 -1.0 8.05 -0.7 8.15 -0.6 8.3 L-0.6 8.45 -0.75 8.5 -1.1 8.5 -1.45 8.15 -1.45 7.9 M-1.25 9.95 L-1.2 10.3 Q-1.15 10.5 -1.05 10.65 -0.9 10.8 -0.9 10.9 L-0.9 11.1 Q-0.95 11.2 -1.15 11.25 L-1.65 11.25 Q-1.9 11.15 -2.0 11.0 L-2.0 10.75 Q-2.0 10.5 -1.8 10.05 -1.55 9.6 -1.4 9.65 -1.3 9.75 -1.25 9.95 M-4.7 12.85 Q-4.95 13.1 -5.0 13.25 -4.95 13.5 -5.05 13.75 -5.2 14.1 -5.2 14.15 -5.2 14.3 -5.1 14.5 L-4.95 14.8 -4.7 14.9 -4.35 14.5 Q-4.35 14.4 -4.45 14.3 -4.5 14.15 -4.5 14.05 -4.5 13.75 -4.3 13.75 L-3.95 13.85 Q-3.8 13.85 -3.7 13.45 -3.65 13.2 -3.65 13.0 -3.65 12.85 -3.75 12.75 -3.9 12.6 -4.0 12.4 L-4.4 12.4 Q-4.45 12.55 -4.7 12.85 M-0.95 12.0 L-1.0 11.8 -0.95 11.55 -0.5 11.5 -0.5 12.0 -0.7 12.05 -0.9 12.05 -0.95 12.0 M-12.0 16.5 Q-12.0 16.25 -11.75 16.05 -11.6 15.95 -11.15 15.65 L-10.4 15.2 -9.9 14.85 Q-9.8 14.85 -9.75 14.95 -9.75 15.0 -9.65 15.0 -9.45 15.0 -9.35 14.75 -9.3 14.6 -9.3 14.45 L-9.25 14.45 Q-9.15 14.45 -9.15 14.55 -9.15 14.75 -9.1 14.9 L-9.0 15.05 Q-8.95 15.15 -8.95 15.25 -8.95 15.45 -9.0 15.55 L-9.2 15.9 -9.15 15.95 -8.9 15.95 Q-8.8 16.05 -8.75 16.15 -8.7 16.25 -8.7 16.4 -8.7 16.45 -8.8 16.55 -8.9 16.65 -9.0 16.8 L-10.5 16.95 Q-10.55 16.95 -10.7 16.85 L-10.8 16.75 -11.15 16.85 -11.55 16.95 Q-11.85 16.95 -11.95 16.75 -12.0 16.65 -12.0 16.5 M-3.6 16.75 L-3.6 16.85 -3.55 16.8 -3.6 16.75 M-3.9 16.9 Q-3.85 16.65 -3.7 16.5 L-3.5 16.55 Q-3.45 16.65 -3.3 16.9 L-3.2 17.0 Q-3.1 17.2 -3.1 17.4 L-3.1 17.45 -3.05 17.5 Q-3.05 17.55 -3.15 17.85 L-3.3 18.15 -3.55 18.15 Q-3.85 17.8 -3.9 17.65 -3.9 17.6 -3.9 17.25 L-3.9 16.9 M-3.65 17.15 L-3.65 17.15 M-4.85 19.3 Q-4.6 19.55 -4.6 19.7 -4.6 19.85 -4.65 19.9 L-4.8 20.05 Q-4.75 20.05 -4.65 20.2 -4.5 20.3 -4.25 20.3 -3.8 20.3 -3.25 20.1 -2.7 19.9 -2.5 19.9 L-2.1 19.95 Q-2.0 20.1 -1.95 20.45 -1.5 20.5 -1.35 20.6 -1.15 20.65 -1.15 20.8 -1.15 20.9 -1.45 21.45 L-1.85 22.1 -2.4 22.05 Q-2.3 21.75 -2.7 21.5 L-3.5 21.0 Q-4.15 21.05 -4.6 21.5 L-5.15 22.0 -5.55 22.0 Q-6.0 21.75 -6.15 21.2 -6.25 20.6 -6.3 20.35 L-6.65 20.35 -6.6 20.45 -6.65 20.55 Q-6.7 20.6 -6.85 20.6 -7.05 20.6 -7.15 20.4 L-7.2 20.15 Q-7.2 20.0 -6.95 19.85 L-6.5 19.65 -5.55 19.25 -4.85 19.3 M-10.0 19.1 Q-10.0 19.5 -9.75 19.5 L-9.2 19.45 Q-8.95 19.45 -8.85 19.6 L-8.8 19.8 -8.45 19.8 -8.2 20.05 Q-8.05 20.2 -8.05 20.3 -8.05 20.35 -8.15 20.45 L-8.3 20.65 Q-8.55 20.8 -8.9 20.8 -9.0 20.8 -9.55 21.0 L-10.1 21.25 -10.4 21.15 Q-10.6 21.05 -10.7 21.05 -10.8 21.05 -10.9 21.15 -10.95 21.25 -11.1 21.25 L-11.45 21.25 -11.55 21.1 Q-11.65 20.95 -11.65 20.85 -11.65 20.6 -11.5 20.45 -11.35 20.3 -11.35 20.15 -11.35 20.05 -11.45 19.85 -11.55 19.65 -11.55 19.55 -11.55 19.05 -11.5 18.95 L-11.25 18.55 Q-11.05 18.35 -11.0 18.35 -10.85 18.35 -10.8 18.4 L-10.65 18.55 Q-10.55 18.5 -10.45 18.05 -10.35 17.6 -10.1 17.55 -9.85 17.85 -9.9 18.3 L-10.0 19.1" fill="#ffff66" fill-rule="evenodd" stroke="none"/>
    <path d="M1.75 0.85 L1.75 1.0 1.7 1.05 1.5 1.1 1.35 1.05 Q1.3 1.0 1.3 0.9 1.3 0.8 1.4 0.75 L1.7 0.7 1.75 0.75 1.75 0.85 M3.75 5.95 Q4.0 5.95 4.1 6.35 4.1 6.55 3.95 6.55 3.65 6.55 3.6 6.35 L3.55 6.25 Q3.55 6.0 3.75 5.95 M2.15 10.8 L2.2 10.85 2.0 11.1 Q1.9 11.2 1.75 11.2 1.5 11.2 1.4 11.0 L1.35 10.8 Q1.35 10.5 1.6 10.45 1.85 10.4 2.15 10.75 L2.15 10.8 M0.1 12.85 L0.15 13.0 -0.05 12.95 Q-0.15 12.9 -0.15 12.85 -0.15 12.75 -0.05 12.7 L0.0 12.7 0.1 12.85 M1.95 13.75 L1.95 13.6 Q1.95 13.45 2.05 13.4 L2.4 13.4 2.4 13.45 2.45 13.55 Q2.45 13.8 2.2 13.8 L2.0 13.75 1.95 13.75 M4.7 11.8 Q4.6 11.95 4.45 11.95 4.2 11.95 4.2 11.65 4.2 11.45 4.5 11.35 4.8 11.3 4.8 11.6 4.8 11.7 4.7 11.8 M2.1 15.45 Q1.8 15.6 1.6 15.6 1.4 15.6 1.3 15.45 1.3 15.4 1.3 15.2 1.3 14.2 1.85 14.55 2.1 14.75 2.4 15.05 2.4 15.3 2.1 15.45 M-6.0 10.3 Q-5.7 10.3 -5.7 10.7 L-5.7 10.75 Q-5.7 10.8 -5.55 10.8 L-5.4 10.75 -5.3 10.65 Q-5.2 10.4 -4.8 10.5 -4.25 10.6 -4.25 10.95 -4.25 11.15 -4.4 11.45 -4.55 11.7 -4.7 11.75 -4.9 11.8 -5.0 11.9 L-5.25 12.3 Q-5.45 12.65 -5.8 12.8 -5.9 12.95 -5.9 13.25 L-5.8 14.35 Q-5.8 14.5 -5.55 15.0 -5.35 15.5 -5.35 15.55 -5.35 15.7 -5.55 15.75 -5.8 15.8 -6.05 15.65 L-6.1 15.6 -6.1 15.75 Q-6.1 15.9 -6.0 16.15 -5.9 16.5 -5.7 16.55 -4.7 16.1 -4.6 15.95 -4.6 15.85 -4.65 15.7 L-4.7 15.4 Q-4.7 15.2 -4.45 15.15 L-4.1 15.1 Q-3.9 14.7 -3.35 14.85 -3.35 15.0 -3.35 15.1 -3.45 15.3 -3.7 15.35 -4.0 15.45 -4.0 15.6 L-4.05 15.85 Q-4.2 16.4 -4.45 16.95 L-4.55 16.95 -4.55 17.0 Q-4.55 17.1 -4.7 17.25 -4.9 17.45 -4.95 17.45 L-5.55 17.35 Q-5.65 17.4 -5.9 17.8 -6.15 18.2 -6.55 18.2 -7.3 18.2 -7.6 17.6 -7.75 17.3 -7.75 16.85 -7.75 16.35 -7.45 16.0 -7.2 15.65 -7.2 15.6 -7.2 15.55 -7.3 15.45 L-7.5 15.3 Q-7.8 15.35 -7.75 15.7 L-7.8 15.8 Q-8.0 15.75 -8.05 15.6 L-8.1 15.4 Q-8.1 14.75 -7.7 14.55 -7.65 14.6 -7.55 14.65 -7.5 14.7 -7.45 14.7 -7.3 14.7 -7.2 14.5 L-7.15 14.25 -7.35 13.7 Q-7.55 13.15 -7.55 12.95 -7.55 12.6 -7.35 12.2 -7.05 11.7 -6.85 11.3 -6.8 11.25 -6.8 10.85 -6.8 10.55 -6.6 10.45 -6.25 10.25 -6.0 10.3 M-1.4 10.6 L-1.25 10.8 -1.2 10.95 Q-1.2 11.2 -1.55 11.2 -1.8 11.2 -1.85 11.0 L-1.9 10.85 Q-1.9 10.7 -1.75 10.4 -1.6 10.0 -1.55 10.2 -1.5 10.25 -1.45 10.4 L-1.4 10.6 M-3.25 12.9 Q-3.15 12.65 -2.75 12.85 L-2.6 13.0 Q-2.5 13.2 -2.65 13.3 L-2.35 13.6 Q-2.35 13.9 -2.7 13.9 -3.2 13.9 -3.3 13.7 L-3.35 13.3 Q-3.35 13.0 -3.25 12.9 M-3.4 17.55 L-3.4 17.6 -3.55 17.6 Q-3.75 17.6 -3.8 17.45 L-3.85 17.3 Q-3.85 17.1 -3.75 17.05 -3.6 17.0 -3.35 17.35 L-3.4 17.55 M-4.95 21.15 Q-5.3 21.35 -5.45 21.35 -5.7 21.35 -5.85 20.9 L-5.9 20.5 Q-5.9 19.65 -5.25 20.2 L-4.7 20.7 -4.45 20.95 -4.55 20.95 Q-4.6 20.95 -4.95 21.15 M-2.75 20.75 Q-2.75 20.2 -2.35 20.5 -1.95 20.8 -1.95 21.1 -1.95 21.4 -2.3 21.4 -2.55 21.4 -2.7 21.05 L-2.75 20.75 M-9.95 15.65 Q-9.95 15.3 -9.55 15.45 L-9.5 15.6 -9.5 15.8 -9.55 15.85 -9.7 15.9 -9.85 15.9 -9.9 15.8 -9.95 15.65 M-10.2 15.75 L-10.15 15.85 -10.15 16.05 Q-10.15 16.25 -10.2 16.15 L-10.2 16.2 Q-10.15 16.2 -10.1 16.3 L-10.1 16.45 -9.75 16.4 -9.7 16.4 -9.7 16.5 Q-9.7 16.7 -9.75 16.65 L-9.9 16.7 Q-10.05 16.7 -10.2 16.45 L-10.2 16.5 Q-10.2 16.75 -10.6 16.75 -11.1 16.75 -11.35 16.6 -11.55 16.45 -11.55 16.25 -11.55 16.05 -11.45 15.9 -11.35 15.65 -11.1 15.6 -11.05 15.6 -10.9 15.6 -10.75 15.65 -10.7 15.7 L-10.5 15.75 -10.2 15.75 M-10.25 16.2 L-10.25 16.15 -10.35 16.1 -10.25 16.25 -10.25 16.2 M-10.7 19.2 Q-10.65 19.4 -10.45 19.75 L-10.15 20.25 -10.1 20.1 Q-10.05 19.95 -9.85 19.95 -9.65 19.95 -9.55 20.15 -9.45 20.25 -9.45 20.35 -9.45 20.5 -9.6 20.7 -9.8 20.9 -10.05 20.9 -10.2 20.9 -10.5 20.75 -10.65 20.7 -10.85 20.7 -11.15 20.65 -11.1 20.25 -11.1 19.95 -11.2 19.8 -11.35 19.65 -11.35 19.45 -11.35 19.15 -11.1 18.85 -10.8 18.6 -10.7 19.2" fill="#ffffff" fill-rule="evenodd" stroke="none"/>
  </g>
</svg>
