<?xml version="1.0" encoding="UTF-8" standalone="no"?>
<svg xmlns:ffdec="https://www.free-decompiler.com/flash" xmlns:xlink="http://www.w3.org/1999/xlink" ffdec:objectType="shape" height="25.0px" width="23.5px" xmlns="http://www.w3.org/2000/svg">
  <g transform="matrix(1.0, 0.0, 0.0, 1.0, 8.4, 21.1)">
    <path d="M11.7 -19.85 Q11.55 -19.65 11.4 -19.65 11.2 -19.65 11.1 -19.8 11.1 -19.9 11.1 -20.0 11.1 -20.35 11.45 -20.45 L11.8 -20.15 Q11.8 -20.0 11.7 -19.85 M4.5 -17.85 L4.5 -17.9 Q4.5 -17.95 4.5 -18.05 4.5 -18.2 4.6 -18.35 4.8 -18.5 5.1 -18.4 L5.1 -18.35 5.15 -18.15 Q5.15 -18.0 4.8 -17.8 L4.5 -17.85 M2.8 -17.45 L2.7 -17.2 Q2.6 -17.0 2.4 -17.0 2.15 -17.0 2.1 -17.1 2.05 -17.15 2.05 -17.25 2.05 -17.45 2.3 -17.45 L2.8 -17.45 M8.9 -20.5 L8.9 -20.45 8.85 -20.4 8.5 -20.4 8.45 -20.45 8.4 -20.6 Q8.4 -20.85 8.65 -20.9 8.9 -20.95 8.9 -20.65 L8.9 -20.5 M11.15 -9.45 L11.0 -9.55 Q10.95 -9.6 10.95 -9.65 L11.4 -9.85 11.85 -9.85 11.85 -9.8 11.9 -9.7 Q11.9 -9.6 11.8 -9.5 11.7 -9.45 11.55 -9.45 L11.15 -9.45 M3.45 -7.4 Q3.45 -7.75 3.8 -7.6 4.2 -7.45 4.2 -7.2 4.2 -6.9 3.85 -6.9 3.65 -6.9 3.5 -7.15 3.45 -7.3 3.45 -7.4 M4.75 -6.3 L4.7 -6.25 4.7 -6.2 Q4.7 -6.15 4.55 -6.15 4.4 -6.15 4.3 -6.3 L4.25 -6.45 4.3 -6.7 Q4.75 -6.7 4.75 -6.45 L4.75 -6.3 M9.9 -5.5 Q9.75 -5.35 9.7 -5.35 9.5 -5.35 9.45 -5.5 9.4 -5.6 9.4 -5.7 9.4 -6.15 9.75 -6.05 10.05 -5.95 10.05 -5.75 10.05 -5.65 9.9 -5.5 M14.05 -9.6 Q13.95 -9.5 13.9 -9.5 L13.7 -9.55 13.65 -9.55 13.6 -9.6 Q13.6 -9.65 13.6 -9.75 13.6 -10.1 13.8 -10.1 13.95 -10.15 14.25 -9.75 L14.05 -9.6 M10.05 1.05 L10.1 1.2 Q10.1 1.4 9.95 1.5 9.85 1.6 9.7 1.6 L9.5 1.6 9.45 1.55 Q9.45 1.5 9.45 1.4 9.45 1.25 9.6 1.1 9.75 0.85 10.05 1.0 L10.05 1.05 M5.95 0.95 Q5.75 1.1 5.65 1.1 5.35 1.1 5.25 0.9 L5.25 0.65 Q5.25 -0.25 6.2 0.65 6.2 0.8 5.95 0.95 M-7.75 -2.2 Q-7.85 -2.1 -8.0 -2.05 L-8.25 -2.15 -8.3 -2.4 Q-8.3 -2.75 -7.95 -2.75 -7.65 -2.75 -7.65 -2.4 -7.65 -2.3 -7.75 -2.2 M-6.0 3.8 L-6.1 3.85 Q-6.15 3.9 -6.25 3.9 -6.55 3.9 -6.7 3.6 L-6.75 3.4 Q-6.75 2.85 -6.35 3.0 -5.95 3.15 -5.95 3.55 -5.95 3.75 -6.0 3.8" fill="#ffdc45" fill-rule="evenodd" stroke="none"/>
    <path d="M11.85 -20.1 L11.65 -20.05 Q11.5 -20.2 11.35 -20.35 L11.25 -20.45 Q11.25 -20.65 11.55 -20.55 11.8 -20.5 11.9 -20.25 L11.85 -20.1 M11.8 -16.05 L11.85 -16.1 12.2 -16.05 12.2 -15.95 12.1 -15.85 11.95 -15.9 Q11.8 -15.9 11.75 -15.95 L11.8 -16.05 M4.65 -18.3 L4.6 -18.4 Q4.75 -18.5 4.85 -18.45 5.0 -18.45 5.1 -18.3 L5.05 -18.2 Q5.0 -18.15 4.85 -18.15 L4.65 -18.15 4.65 -18.3 M2.45 -17.35 L2.3 -17.3 Q2.1 -17.4 2.05 -17.45 L2.05 -17.5 Q2.15 -17.6 2.45 -17.45 L2.45 -17.35 M8.5 -20.9 Q8.4 -20.9 8.35 -20.95 L8.35 -21.05 8.6 -21.1 8.8 -21.05 8.65 -20.9 8.5 -20.9 M11.2 -17.4 Q11.2 -17.3 11.05 -17.3 10.9 -17.3 10.7 -17.65 L10.95 -17.65 Q11.1 -17.6 11.2 -17.45 L11.2 -17.4 M5.8 -11.2 L5.65 -11.15 Q5.55 -11.15 5.5 -11.2 L5.4 -11.3 5.4 -11.4 5.55 -11.5 5.75 -11.5 5.85 -11.35 5.8 -11.2 M8.0 -10.9 L7.9 -10.9 Q7.85 -10.95 7.75 -11.0 L7.6 -11.1 Q7.7 -11.35 7.9 -11.25 L7.95 -11.2 Q8.0 -11.15 8.0 -11.0 L8.0 -10.9 M11.0 -9.9 L11.6 -9.85 11.9 -9.75 11.95 -9.65 11.45 -9.7 Q11.2 -9.7 10.9 -9.5 L10.85 -9.55 Q10.8 -9.55 10.8 -9.7 10.8 -9.85 11.0 -9.9 M4.1 -7.2 Q4.0 -7.05 3.85 -7.0 L3.8 -7.0 3.75 -7.1 3.8 -7.3 3.9 -7.35 4.05 -7.3 4.1 -7.2 M4.7 -6.35 L4.45 -6.25 4.25 -6.3 Q4.2 -6.3 4.2 -6.4 4.2 -6.6 4.4 -6.65 4.55 -6.7 4.75 -6.5 L4.7 -6.35 M14.3 -9.8 Q14.35 -9.75 14.15 -9.75 14.05 -9.75 13.9 -9.9 13.75 -10.05 13.75 -10.15 13.9 -10.25 14.1 -10.15 14.25 -10.1 14.3 -9.95 L14.3 -9.8 M14.7 -6.65 Q14.45 -6.8 14.45 -6.85 14.45 -7.1 14.7 -7.1 14.9 -7.1 15.1 -6.9 14.9 -6.7 14.7 -6.65 M14.6 -4.15 Q14.55 -4.05 14.4 -4.0 14.3 -4.05 14.25 -4.1 14.35 -4.3 14.5 -4.7 14.6 -5.0 14.85 -5.1 L14.95 -4.95 14.95 -4.35 14.9 -4.35 Q14.75 -4.4 14.7 -4.7 14.65 -4.6 14.65 -4.55 L14.65 -4.3 14.6 -4.15 M6.05 0.95 L5.7 0.95 5.35 0.75 Q5.65 0.4 5.9 0.4 6.15 0.4 6.15 0.8 6.15 0.9 6.05 0.95 M9.9 1.5 L9.75 1.65 Q9.65 1.6 9.55 1.5 9.55 1.3 9.65 1.25 9.75 1.2 10.0 1.35 L9.9 1.5 M1.4 1.95 Q1.35 2.05 1.25 2.05 L0.95 2.1 0.9 2.1 0.9 1.95 Q0.9 1.8 1.3 1.8 L1.4 1.95 M-3.25 -19.85 L-3.3 -19.75 Q-3.35 -19.75 -3.45 -19.75 L-3.65 -19.75 -3.75 -19.85 -3.6 -19.95 -3.3 -19.95 -3.25 -19.85 M-1.0 -10.9 L-1.2 -11.0 -1.1 -11.05 -0.95 -11.05 Q-0.95 -10.95 -1.0 -10.9 M-5.9 -13.1 L-5.9 -13.0 -6.0 -12.95 -6.2 -13.0 -6.25 -12.95 -6.25 -13.05 Q-6.25 -13.2 -6.2 -13.2 L-6.15 -13.2 Q-6.05 -13.2 -5.9 -13.1 M-7.8 -2.6 L-7.85 -2.5 Q-7.9 -2.45 -8.05 -2.45 L-8.35 -2.45 -8.4 -2.5 -8.4 -2.75 -7.9 -2.75 -7.8 -2.6 M-2.8 1.25 Q-2.8 1.15 -2.75 1.15 L-2.7 1.15 Q-2.45 1.25 -2.35 1.4 L-2.35 1.45 -2.45 1.5 -2.65 1.45 -2.75 1.4 Q-2.8 1.4 -2.8 1.25 M-4.45 2.2 L-4.4 2.25 -4.4 2.6 -4.45 2.65 -4.6 2.65 -4.6 2.2 -4.45 2.2 M-6.05 3.65 Q-6.1 3.75 -6.2 3.75 L-6.3 3.75 -6.45 3.65 Q-6.25 3.45 -6.15 3.45 -6.05 3.55 -6.05 3.65" fill="#ffff66" fill-rule="evenodd" stroke="none"/>
    <path d="M5.85 0.95 L5.7 0.9 5.65 0.85 Q5.6 0.8 5.6 0.65 5.6 0.4 5.9 0.4 6.2 0.4 6.2 0.65 6.1 0.95 5.85 0.95" fill="#ffffff" fill-rule="evenodd" stroke="none"/>
  </g>
</svg>
