<?xml version="1.0" encoding="UTF-8" standalone="no"?>
<svg xmlns:ffdec="https://www.free-decompiler.com/flash" xmlns:xlink="http://www.w3.org/1999/xlink" ffdec:objectType="shape" height="21.25px" width="20.95px" xmlns="http://www.w3.org/2000/svg">
  <g transform="matrix(1.0, 0.0, 0.0, 1.0, 4.3, 35.35)">
    <path d="M5.35 -34.3 Q4.95 -34.15 4.9 -33.65 L4.85 -33.45 Q5.25 -33.85 5.85 -33.95 L5.7 -34.05 Q5.45 -34.2 5.35 -34.3 M4.35 -34.6 Q4.7 -35.65 5.65 -35.25 6.0 -35.1 6.8 -34.3 6.8 -34.1 6.65 -34.0 7.5 -33.9 7.9 -33.45 L8.15 -33.1 Q8.25 -32.9 8.35 -32.9 8.6 -32.9 9.25 -33.45 9.9 -34.0 10.5 -34.0 11.55 -34.0 12.05 -32.6 12.25 -32.15 12.3 -31.7 12.35 -31.4 12.35 -31.0 L12.35 -30.95 12.45 -31.55 Q12.6 -32.05 13.25 -32.05 13.55 -32.05 13.7 -31.85 L13.9 -31.35 Q14.25 -30.5 14.85 -30.15 15.85 -29.6 16.2 -29.25 16.6 -28.85 16.6 -28.35 L16.45 -28.1 15.4 -28.9 12.65 -30.1 12.25 -30.1 Q12.1 -29.95 11.9 -29.95 11.55 -29.95 11.45 -30.4 L11.4 -30.9 Q10.95 -31.15 9.85 -31.45 9.6 -31.55 9.55 -31.65 L9.55 -32.45 Q9.35 -32.45 9.3 -32.6 L7.7 -32.45 Q7.55 -32.25 7.4 -32.25 L6.35 -32.45 6.2 -32.65 5.3 -31.05 5.75 -30.7 Q6.7 -29.85 6.7 -29.4 6.7 -29.05 6.0 -28.4 5.2 -27.65 4.4 -27.65 L3.8 -27.85 Q3.75 -27.75 3.5 -27.55 L2.85 -26.95 Q2.75 -26.6 2.35 -26.6 L1.85 -26.7 Q1.75 -25.9 1.45 -25.45 L-0.95 -25.25 -1.3 -25.65 Q-1.75 -25.8 -2.1 -25.4 L-1.75 -24.15 Q-1.15 -23.75 -1.15 -23.45 L-1.4 -22.85 -1.7 -22.35 Q-2.15 -21.95 -2.6 -21.95 L-2.55 -21.9 Q-2.2 -21.55 -1.8 -21.6 L-1.7 -21.5 Q-1.55 -21.35 -1.5 -21.2 -1.6 -21.25 -1.75 -21.35 L-1.8 -20.55 Q-1.35 -20.55 -1.35 -20.15 -1.35 -19.9 -1.75 -19.65 L-1.55 -19.35 Q-1.25 -19.05 -1.0 -18.45 L-0.7 -17.45 -0.3 -17.5 0.6 -18.0 0.55 -18.45 0.1 -19.35 0.35 -19.95 Q0.7 -20.45 1.25 -20.45 1.9 -20.45 2.2 -20.25 L2.7 -19.75 3.15 -18.6 Q3.45 -17.9 3.9 -17.5 L3.95 -17.75 4.95 -19.25 6.6 -18.85 Q7.1 -18.65 7.1 -18.2 L7.0 -16.65 7.35 -16.65 7.8 -17.1 Q8.05 -17.25 8.45 -17.4 L9.6 -16.75 9.75 -16.25 Q9.95 -15.95 10.0 -15.4 L11.0 -15.6 11.1 -15.5 Q11.55 -15.55 11.8 -15.35 11.9 -15.2 11.9 -15.1 L11.9 -14.85 Q12.1 -14.9 12.45 -15.15 L12.95 -15.55 13.25 -15.25 Q13.25 -14.75 12.7 -14.4 12.2 -14.1 11.65 -14.1 11.25 -14.1 11.0 -14.45 10.85 -14.65 10.7 -14.95 10.2 -14.7 9.9 -14.3 9.75 -14.1 9.2 -14.1 8.3 -14.1 8.05 -14.7 7.9 -15.05 7.95 -15.4 7.95 -15.95 8.05 -16.1 8.2 -16.5 8.95 -16.7 L9.0 -16.75 Q8.55 -16.65 8.05 -16.25 7.6 -15.9 7.2 -15.9 L6.65 -15.95 Q6.9 -15.55 6.9 -15.15 6.9 -14.9 6.85 -14.7 6.8 -14.25 6.5 -14.25 6.1 -14.25 5.7 -14.85 5.55 -15.05 5.35 -15.45 L5.0 -16.2 Q4.95 -16.3 4.95 -16.75 L5.05 -17.5 Q4.9 -17.55 4.8 -17.65 L4.7 -17.4 Q4.6 -17.2 4.6 -17.05 L4.5 -16.95 Q4.4 -16.6 4.35 -16.45 4.2 -16.2 3.9 -16.2 3.25 -16.2 2.9 -16.5 2.65 -16.65 2.5 -17.1 L2.25 -17.9 2.1 -18.15 Q1.85 -18.4 1.45 -18.6 L1.35 -18.6 1.3 -18.4 Q1.2 -18.2 1.1 -18.15 1.15 -17.95 1.35 -17.4 1.55 -16.65 1.55 -16.4 1.55 -16.05 1.3 -15.8 0.95 -15.55 0.1 -15.35 L-0.85 -15.35 Q-2.05 -15.95 -2.15 -17.3 L-2.15 -18.35 Q-2.2 -18.6 -2.25 -18.8 -2.3 -18.9 -2.35 -19.0 L-2.5 -19.25 Q-3.8 -19.2 -4.15 -19.9 -4.3 -20.2 -4.3 -20.9 -4.3 -21.45 -4.05 -21.95 -3.7 -22.65 -3.3 -22.55 L-2.9 -22.35 Q-2.75 -22.35 -2.55 -22.45 L-2.2 -22.6 Q-1.9 -22.75 -1.8 -23.0 L-1.65 -23.45 Q-1.75 -23.6 -2.25 -23.85 -2.6 -24.05 -2.65 -24.25 L-2.8 -24.6 Q-2.85 -24.85 -2.85 -25.0 -2.85 -25.25 -2.5 -25.65 -2.15 -26.2 -1.75 -26.15 L-1.15 -26.15 Q-1.0 -26.1 -0.7 -25.85 -0.4 -25.5 -0.25 -25.45 L0.25 -25.45 Q1.1 -25.7 1.3 -26.35 1.4 -26.7 1.4 -27.4 1.5 -28.1 1.65 -28.45 1.95 -29.1 2.6 -29.1 3.05 -29.1 3.65 -28.65 4.3 -28.15 4.35 -28.15 5.05 -28.15 5.65 -28.7 6.15 -29.15 6.15 -29.45 6.15 -29.55 5.85 -29.8 L5.35 -30.15 5.25 -30.15 Q4.9 -30.15 4.6 -30.9 4.2 -31.45 4.2 -32.05 L4.25 -32.35 4.15 -32.25 Q3.75 -31.8 3.35 -31.8 L3.15 -31.85 3.1 -31.85 Q3.05 -32.0 3.05 -32.25 3.05 -32.5 3.1 -32.55 3.2 -32.75 3.7 -32.75 3.9 -33.05 4.1 -33.65 L4.35 -34.6 M0.3 -33.05 Q0.05 -32.65 -0.15 -32.5 -0.4 -32.3 -0.5 -32.0 -0.6 -31.8 -0.6 -31.5 -0.55 -30.95 -0.55 -30.5 -0.65 -29.6 -1.2 -29.6 -1.55 -29.6 -1.7 -29.85 -1.8 -30.05 -1.8 -30.25 -1.8 -30.85 -1.6 -31.3 L-1.25 -32.65 Q-1.35 -33.0 -1.1 -33.4 -0.85 -33.75 -0.45 -33.95 L0.2 -34.1 Q0.5 -34.05 0.5 -33.65 0.5 -33.4 0.3 -33.05 M14.85 -26.7 L16.1 -26.8 Q15.9 -26.6 15.4 -26.5 L14.9 -26.35 Q14.95 -26.05 15.1 -25.65 L15.1 -24.9 15.0 -24.8 Q14.85 -24.85 14.55 -25.15 14.2 -25.45 14.05 -25.5 14.05 -24.55 13.95 -24.1 L14.0 -24.05 Q14.0 -24.0 13.85 -24.0 13.8 -24.0 13.3 -24.4 12.8 -24.75 12.65 -24.85 L12.7 -24.4 12.7 -23.85 Q12.7 -23.5 12.55 -23.25 L12.4 -23.0 Q12.25 -23.1 11.55 -23.45 L10.9 -23.75 Q11.1 -23.5 11.2 -23.05 L11.35 -22.2 11.3 -22.1 Q11.25 -22.05 11.2 -22.05 11.05 -22.1 10.85 -22.4 10.7 -22.65 10.3 -22.6 L10.3 -20.95 10.4 -20.75 Q10.5 -20.6 10.55 -20.5 L11.05 -20.4 Q11.35 -20.3 11.35 -20.1 L11.25 -19.9 10.9 -19.6 10.85 -19.6 11.15 -19.55 11.7 -19.55 Q11.75 -19.55 11.75 -19.35 L11.6 -19.15 11.35 -18.8 11.25 -18.7 Q11.45 -18.7 11.7 -18.85 12.05 -18.8 12.1 -18.75 12.1 -18.55 11.9 -18.4 L11.5 -18.05 11.45 -18.0 Q11.65 -18.0 11.95 -18.25 12.2 -18.5 12.5 -18.35 L12.4 -18.15 12.3 -17.9 12.65 -18.25 12.9 -18.2 12.95 -18.25 13.0 -18.1 Q13.0 -18.0 12.85 -17.5 L12.65 -17.0 12.6 -16.95 Q12.75 -16.95 13.15 -17.25 L13.7 -17.65 Q13.75 -17.55 13.8 -17.4 L13.8 -17.1 13.7 -16.65 Q13.6 -16.35 13.6 -16.25 13.6 -16.1 13.7 -16.0 13.8 -15.9 13.8 -15.75 L13.8 -15.55 13.7 -15.4 12.85 -16.35 13.15 -16.75 Q13.35 -16.75 13.4 -16.45 13.5 -16.7 13.5 -17.1 L13.05 -16.8 Q12.75 -16.55 12.45 -16.4 L12.3 -16.45 Q12.2 -16.5 12.2 -16.65 L12.65 -17.75 11.7 -17.1 Q11.65 -17.1 11.65 -17.25 11.65 -17.3 11.8 -17.5 L11.0 -17.75 11.4 -18.35 11.15 -18.3 10.75 -18.25 10.65 -18.35 Q11.1 -19.0 11.3 -19.15 L10.15 -19.4 9.95 -20.75 9.95 -23.0 10.85 -22.9 10.6 -24.1 12.2 -23.6 12.25 -24.75 12.05 -25.35 12.0 -25.45 Q12.0 -25.5 12.15 -25.5 12.25 -25.5 12.95 -25.05 L13.65 -25.1 13.7 -25.55 13.5 -26.05 Q13.5 -26.2 13.65 -26.25 14.05 -26.1 14.35 -25.75 14.75 -25.4 14.9 -25.3 L14.6 -26.4 14.85 -26.7 M15.6 -23.6 L15.75 -23.55 Q15.8 -23.5 15.8 -23.3 15.8 -23.25 15.7 -23.1 15.6 -22.95 15.5 -22.9 15.25 -23.15 15.25 -23.25 15.25 -23.3 15.45 -23.35 15.6 -23.45 15.6 -23.6 M5.95 -17.85 L5.95 -17.9 5.9 -17.85 5.95 -17.85" fill="#ffdc45" fill-rule="evenodd" stroke="none"/>
    <path d="M5.75 -35.15 L6.05 -34.8 6.55 -34.75 Q6.65 -34.7 6.7 -34.55 L6.7 -34.35 6.6 -34.25 5.8 -34.35 5.75 -34.45 Q5.6 -34.6 5.45 -34.7 4.9 -34.75 4.75 -34.6 4.75 -34.55 4.75 -34.3 4.7 -34.2 4.75 -34.1 L4.8 -34.05 Q4.65 -33.7 4.4 -33.25 3.95 -32.45 3.4 -32.15 L3.2 -32.2 Q3.05 -32.25 2.95 -32.25 L2.95 -32.35 3.1 -32.3 3.4 -32.3 3.95 -33.0 Q4.4 -33.6 4.35 -33.85 4.2 -34.55 4.45 -34.75 L4.75 -34.9 Q4.95 -35.0 5.1 -35.2 L5.75 -35.15 M5.05 -32.9 Q5.4 -33.4 5.7 -33.55 6.05 -33.5 6.5 -33.35 L7.2 -33.1 Q7.45 -33.05 7.6 -32.85 L7.9 -32.6 Q8.25 -32.6 8.85 -32.8 9.4 -33.0 9.95 -33.0 10.85 -33.0 11.4 -32.3 11.8 -31.8 11.8 -31.55 L11.65 -31.25 Q11.55 -30.95 11.55 -30.85 11.55 -30.7 11.6 -30.65 L11.7 -30.5 12.9 -30.6 12.95 -30.8 13.0 -30.75 13.45 -30.7 Q13.7 -30.6 13.9 -30.45 14.25 -30.25 14.55 -29.8 L14.6 -29.75 Q15.1 -29.55 15.85 -29.05 16.65 -28.4 16.65 -28.1 16.65 -27.9 16.55 -27.6 16.45 -27.25 16.35 -27.1 16.05 -26.7 15.5 -26.8 15.0 -26.85 14.75 -26.4 15.0 -26.4 15.0 -26.35 L14.75 -26.3 14.7 -26.35 14.75 -26.1 14.95 -25.4 14.9 -25.35 14.75 -25.3 14.2 -25.7 Q13.65 -26.05 13.55 -26.05 13.75 -25.45 13.75 -25.1 L13.7 -24.65 Q13.7 -24.55 13.6 -24.55 13.55 -24.75 13.15 -24.9 12.8 -25.1 12.4 -25.15 L12.15 -25.2 Q12.15 -25.35 12.15 -25.1 12.15 -24.95 12.25 -24.7 12.35 -24.45 12.35 -24.35 L12.3 -23.95 12.2 -23.6 12.05 -23.55 Q11.95 -23.6 11.75 -23.7 11.5 -23.8 11.45 -23.8 L10.85 -23.8 11.05 -23.45 11.15 -23.1 11.15 -22.9 11.05 -22.85 10.55 -22.95 Q10.35 -23.0 10.3 -23.05 L10.05 -23.0 Q9.95 -22.7 9.95 -22.15 9.95 -21.25 10.05 -20.95 10.25 -20.1 11.05 -20.1 L10.8 -19.8 10.5 -19.5 11.2 -19.45 Q11.5 -19.4 11.55 -19.35 L10.8 -18.6 Q11.6 -18.55 11.65 -18.45 L11.4 -18.1 11.45 -18.05 12.2 -18.25 Q12.3 -17.85 12.1 -17.6 L12.4 -17.75 Q12.55 -17.9 12.7 -17.95 L12.75 -17.9 12.75 -17.7 12.65 -17.35 12.45 -16.9 Q12.95 -17.0 13.5 -17.45 L13.55 -17.35 13.55 -17.15 Q13.55 -16.8 13.4 -16.6 L13.0 -16.25 13.5 -16.05 Q13.75 -15.9 13.75 -15.55 13.75 -15.3 13.5 -15.2 13.05 -15.0 12.75 -14.75 L12.05 -14.85 11.35 -14.8 11.3 -14.8 11.4 -15.15 10.8 -15.15 Q10.6 -15.15 10.45 -14.9 10.3 -14.65 10.15 -14.65 9.4 -14.65 9.05 -15.25 8.85 -15.6 8.85 -15.95 8.85 -16.2 8.9 -16.25 9.0 -16.45 9.4 -16.7 L9.1 -16.85 8.7 -16.95 Q8.4 -16.95 8.05 -16.8 L8.0 -16.75 Q7.9 -16.6 7.7 -16.55 7.65 -16.55 7.6 -16.6 L7.55 -16.6 7.5 -16.5 7.35 -16.35 7.3 -16.35 Q6.9 -16.4 6.7 -16.65 6.5 -16.85 6.5 -17.1 6.5 -17.25 6.7 -17.75 6.9 -18.3 6.9 -18.4 6.9 -18.55 6.75 -18.65 6.6 -18.8 6.4 -18.8 L5.5 -18.4 Q5.2 -18.4 5.15 -18.65 5.15 -18.8 5.2 -19.05 L5.25 -19.1 Q4.8 -18.85 4.4 -18.25 3.95 -17.55 3.75 -17.35 L3.1 -17.35 Q2.55 -18.0 2.2 -19.25 2.1 -19.65 1.95 -19.8 1.7 -20.0 1.2 -20.0 0.75 -20.0 0.5 -19.7 0.3 -19.5 0.3 -19.35 0.3 -19.2 0.75 -18.6 1.2 -18.0 1.2 -17.45 1.2 -17.05 1.05 -16.95 0.9 -16.8 0.0 -16.55 L-0.15 -16.65 -0.25 -16.65 Q-0.35 -16.75 -0.4 -16.75 -0.55 -16.8 -0.75 -16.85 -1.5 -17.4 -1.6 -18.35 -1.65 -18.85 -1.7 -19.05 -1.85 -19.45 -2.2 -19.7 L-2.95 -19.75 Q-3.25 -19.85 -3.3 -20.05 L-3.3 -20.35 Q-3.3 -20.5 -3.1 -21.05 -2.9 -21.55 -2.9 -21.85 -2.9 -22.05 -2.6 -22.3 -2.2 -22.6 -1.8 -22.5 L-1.6 -22.65 Q-1.4 -22.8 -1.4 -22.9 -1.4 -23.15 -1.9 -23.85 -2.4 -24.5 -2.4 -24.75 -2.4 -25.2 -2.2 -25.45 -1.9 -25.8 -1.3 -25.8 -0.45 -25.45 -0.35 -25.4 L0.05 -25.4 Q0.95 -25.65 1.6 -26.25 L1.75 -26.45 Q1.7 -26.45 1.7 -26.6 2.05 -28.35 2.6 -28.35 2.75 -28.35 3.05 -28.15 3.4 -27.95 3.65 -27.95 4.5 -27.95 5.4 -28.15 L5.9 -28.3 6.05 -28.6 Q6.0 -28.65 6.0 -28.8 6.0 -28.85 6.05 -28.9 L6.1 -28.8 Q6.2 -29.35 6.0 -29.8 L6.05 -29.8 Q5.85 -30.25 5.45 -30.65 5.05 -31.05 4.95 -31.3 4.7 -31.75 4.7 -32.3 4.7 -32.45 5.05 -32.9 M0.0 -33.9 Q-0.25 -33.9 -0.45 -33.75 L-0.45 -33.8 Q-0.8 -33.45 -0.9 -32.9 -0.95 -32.3 -1.0 -32.0 -1.0 -31.9 -1.15 -31.55 -1.3 -31.3 -1.3 -31.1 L-1.25 -30.7 Q-1.2 -30.4 -1.2 -30.25 -1.2 -29.8 -1.4 -29.55 L-1.95 -29.75 -2.3 -30.4 -2.3 -30.85 Q-2.3 -31.45 -2.1 -31.7 L-1.75 -32.15 Q-1.6 -32.35 -1.65 -32.5 -1.45 -32.75 -1.45 -33.3 -1.5 -33.8 -0.95 -34.05 L-0.25 -34.15 0.25 -34.2 Q0.3 -34.15 0.55 -34.1 L0.7 -33.9 0.55 -33.85 0.1 -33.9 0.0 -33.9 M6.05 -28.35 L6.1 -28.35 6.1 -28.4 6.2 -28.65 6.05 -28.35 M6.8 -27.1 Q6.15 -26.75 5.55 -26.15 L5.0 -25.25 5.15 -25.05 5.65 -24.95 Q6.5 -24.95 6.95 -25.6 L7.2 -26.75 6.8 -27.1 M5.65 -16.9 L5.85 -16.15 Q5.9 -15.95 6.4 -15.45 6.85 -15.0 6.85 -14.85 L6.8 -14.6 Q6.75 -14.35 6.4 -14.3 L5.8 -14.3 Q5.55 -14.4 5.5 -15.0 L5.5 -15.05 Q5.5 -15.2 5.3 -15.4 5.15 -15.65 5.1 -15.75 L4.9 -16.5 Q4.8 -16.9 4.8 -17.1 4.8 -17.3 5.2 -17.65 5.5 -17.4 5.65 -16.9" fill="#ffff66" fill-rule="evenodd" stroke="none"/>
    <path d="M5.65 -30.95 Q5.65 -31.45 5.85 -31.95 6.05 -32.45 6.45 -32.8 7.3 -32.7 7.55 -32.4 7.7 -32.25 7.65 -31.9 L7.6 -31.3 Q7.65 -30.9 7.9 -30.9 8.1 -30.9 8.25 -31.15 L8.25 -31.25 Q8.25 -31.75 8.6 -32.15 9.05 -32.65 9.85 -32.5 10.3 -32.35 10.45 -31.95 10.55 -31.55 10.7 -31.4 L10.7 -31.3 Q10.7 -31.25 10.55 -31.25 L10.4 -31.35 Q10.25 -31.4 10.15 -31.45 L9.7 -31.45 Q9.25 -31.2 9.15 -30.9 9.1 -30.75 9.1 -30.4 9.1 -30.05 9.25 -29.7 9.55 -29.3 10.0 -29.1 L10.3 -29.1 10.95 -29.65 Q11.35 -30.05 11.7 -30.05 11.8 -30.05 12.1 -29.95 12.4 -30.0 12.6 -29.85 12.7 -29.75 12.75 -29.65 L12.8 -29.4 Q12.8 -28.7 13.4 -28.45 14.1 -28.45 14.45 -28.65 L14.95 -29.0 15.2 -29.0 Q16.05 -28.0 16.05 -27.9 16.05 -27.55 15.9 -27.45 15.8 -27.3 15.3 -27.05 14.9 -26.95 14.75 -27.1 14.7 -27.15 14.75 -27.2 L14.55 -27.2 Q14.25 -26.95 14.25 -26.7 L14.3 -26.65 14.3 -26.6 14.5 -26.4 14.4 -26.35 14.4 -25.95 Q14.35 -25.9 14.25 -25.9 L13.5 -26.3 12.35 -26.85 Q12.25 -27.0 12.25 -26.8 12.25 -26.7 12.55 -26.35 L13.05 -25.75 Q12.75 -25.5 12.45 -25.35 L12.2 -25.4 11.3 -25.95 11.0 -25.95 Q11.3 -25.6 11.5 -25.1 L11.8 -24.3 11.8 -24.2 Q11.75 -24.2 11.7 -24.15 11.65 -24.15 11.5 -24.25 11.35 -24.35 11.1 -24.35 L10.7 -24.35 10.3 -24.4 Q10.3 -24.2 10.45 -23.85 L10.55 -23.5 10.55 -23.3 10.4 -23.25 10.05 -23.3 9.7 -23.7 Q9.5 -23.95 9.3 -24.05 9.45 -23.6 9.05 -23.45 8.95 -23.4 8.9 -23.3 L8.9 -23.25 8.8 -23.2 Q8.75 -23.05 8.8 -22.8 L8.65 -22.95 Q8.6 -23.0 8.6 -23.2 L8.65 -23.25 Q8.5 -23.3 8.35 -23.6 8.25 -23.9 8.25 -24.0 L8.4 -24.2 Q8.55 -24.4 8.55 -24.45 8.55 -24.6 8.4 -24.85 8.2 -25.05 8.05 -25.05 L7.8 -25.0 7.45 -24.9 Q7.1 -24.35 7.15 -24.05 7.25 -23.7 7.25 -23.35 7.25 -23.0 7.1 -22.8 L7.05 -22.7 7.1 -22.6 7.05 -22.6 6.95 -22.65 Q6.85 -22.6 6.75 -22.6 L6.6 -22.5 Q6.5 -22.35 6.5 -22.3 L6.6 -22.1 Q6.7 -21.85 6.7 -21.65 L6.7 -21.05 Q6.7 -20.65 6.7 -20.45 6.75 -20.1 7.0 -19.85 L7.5 -19.85 Q7.55 -19.9 7.6 -20.4 7.6 -20.75 8.1 -20.85 L8.15 -20.9 8.2 -20.8 8.7 -20.75 Q8.7 -20.0 8.65 -19.65 L8.6 -19.55 Q8.6 -19.5 8.75 -19.5 8.8 -19.5 9.3 -19.75 9.8 -20.0 9.85 -20.05 L9.95 -20.05 Q10.0 -20.0 10.0 -19.9 10.0 -19.8 9.75 -19.45 9.55 -19.1 9.45 -19.05 L9.45 -19.0 10.15 -19.05 10.65 -19.15 10.7 -19.15 10.75 -19.0 Q10.75 -18.95 10.55 -18.6 L10.4 -18.25 10.35 -18.2 Q10.8 -18.25 10.85 -18.3 L11.05 -18.25 11.15 -18.25 11.15 -18.15 Q11.15 -17.95 10.75 -17.5 L10.65 -17.4 Q11.1 -17.4 11.4 -17.5 L11.6 -17.5 11.7 -17.45 Q11.75 -17.45 11.75 -17.35 11.75 -17.2 11.65 -17.05 L11.4 -16.75 11.35 -16.75 Q11.6 -16.7 11.9 -16.95 12.05 -17.05 12.2 -17.2 L12.3 -17.2 Q12.35 -17.2 12.35 -17.05 12.35 -16.9 12.25 -16.7 L12.0 -16.35 12.0 -16.3 Q12.1 -16.25 12.35 -16.4 L12.65 -16.6 Q12.8 -16.5 12.8 -16.3 12.75 -16.1 12.75 -16.0 12.75 -15.9 12.85 -15.85 12.9 -15.8 12.9 -15.7 12.9 -15.55 12.75 -15.35 12.6 -15.1 12.35 -15.1 11.7 -15.1 11.5 -15.25 11.35 -15.35 11.25 -15.5 L10.9 -15.55 10.7 -15.35 Q10.55 -15.3 10.35 -15.45 L10.25 -15.15 Q10.15 -14.95 9.95 -14.9 9.5 -14.95 9.3 -15.25 9.15 -15.45 9.15 -15.75 L9.15 -15.95 9.25 -16.05 9.3 -16.15 9.4 -16.1 9.45 -16.15 9.5 -16.05 9.95 -15.6 10.15 -16.0 10.25 -16.25 Q10.25 -16.4 9.8 -17.05 9.3 -17.1 9.2 -17.5 L9.1 -17.9 Q9.0 -18.1 8.85 -18.25 7.8 -18.05 7.85 -17.55 L7.95 -17.15 Q8.0 -16.9 7.85 -16.75 7.85 -16.7 7.65 -16.7 7.1 -16.7 7.1 -17.25 7.1 -17.45 7.3 -17.7 L7.45 -17.9 Q7.1 -18.15 7.05 -19.25 6.3 -19.05 6.05 -19.65 5.85 -20.0 5.9 -20.45 5.9 -20.7 5.8 -21.3 L5.7 -21.7 Q5.65 -21.45 5.45 -21.15 5.0 -20.4 4.2 -20.4 3.8 -20.4 3.45 -20.85 3.15 -21.25 3.15 -21.6 L3.15 -22.25 Q3.05 -22.45 2.7 -22.45 L2.4 -22.45 2.4 -22.5 Q2.35 -22.5 2.35 -22.65 2.35 -22.75 2.45 -22.85 2.35 -23.0 2.35 -23.25 2.35 -23.45 2.55 -23.55 2.85 -23.65 3.0 -23.9 3.15 -24.15 3.15 -24.65 3.15 -24.9 2.95 -25.4 L2.8 -25.8 2.75 -25.8 2.8 -25.85 2.7 -26.05 2.9 -26.1 2.9 -26.15 Q2.55 -26.25 2.5 -26.5 2.45 -26.6 2.45 -26.85 2.45 -27.1 2.6 -27.4 2.8 -27.8 3.15 -27.8 3.35 -27.8 3.5 -27.7 3.7 -27.55 4.05 -27.5 4.25 -27.5 4.4 -27.35 5.9 -27.45 6.75 -28.0 7.0 -28.5 7.2 -28.8 7.3 -28.95 7.3 -29.45 L7.05 -30.5 7.05 -30.55 Q6.9 -30.75 6.75 -30.85 L6.5 -30.55 Q6.35 -30.3 6.3 -30.3 L6.0 -30.3 Q5.75 -30.4 5.7 -30.6 5.65 -30.7 5.65 -30.95 M6.8 -27.05 Q5.95 -26.6 5.45 -25.95 L5.05 -25.3 5.1 -25.25 5.35 -25.05 Q7.05 -25.1 7.05 -26.45 L7.0 -26.75 6.8 -27.05 M5.85 -24.2 L5.75 -24.2 Q5.3 -23.5 5.3 -23.45 5.3 -23.2 5.55 -22.85 5.7 -22.65 5.75 -22.45 5.8 -22.6 5.95 -22.75 6.25 -23.1 6.25 -23.35 6.25 -23.6 6.1 -23.85 L5.8 -24.2 5.85 -24.2 M6.25 -22.2 L6.25 -22.2 M8.35 -21.7 Q8.25 -21.45 7.95 -21.45 7.75 -21.45 7.65 -21.7 7.55 -21.85 7.55 -22.05 7.55 -22.6 7.95 -22.75 8.35 -22.85 8.35 -22.15 L8.35 -21.7 M0.4 -23.05 L0.4 -22.7 Q0.4 -22.2 0.7 -21.95 0.9 -21.8 1.4 -21.7 1.9 -21.6 2.05 -21.5 2.35 -21.3 2.35 -20.9 2.35 -20.75 2.25 -20.5 2.1 -20.25 1.9 -20.25 1.45 -20.25 0.65 -20.7 0.3 -20.95 -0.05 -21.15 -0.45 -21.35 -0.65 -21.8 -0.85 -22.2 -0.85 -22.55 -0.85 -22.85 -0.65 -23.1 -0.45 -23.45 0.0 -23.45 L0.4 -23.45 Q0.45 -23.3 0.4 -23.05 M3.2 -17.95 Q2.95 -17.95 2.7 -18.35 2.55 -18.65 2.55 -18.8 2.55 -19.05 2.55 -19.1 L3.0 -19.1 Q3.45 -19.0 3.6 -18.9 3.8 -18.8 3.8 -18.65 3.8 -17.95 3.2 -17.95 M0.65 -17.7 Q0.65 -17.5 0.55 -17.3 0.4 -17.1 0.15 -17.1 L-0.25 -17.15 Q-0.55 -17.25 -0.9 -17.7 -1.2 -18.2 -1.2 -18.45 -1.2 -18.7 -1.15 -18.8 -1.05 -18.95 -0.7 -18.8 L-0.65 -18.4 Q-0.55 -18.1 -0.25 -18.1 -0.15 -18.1 0.0 -18.25 L0.25 -18.4 Q0.45 -18.4 0.6 -18.05 0.65 -17.85 0.65 -17.7 M5.55 -15.55 L5.6 -15.55 6.1 -15.2 Q6.35 -15.0 6.35 -14.75 L6.3 -14.65 6.3 -14.55 6.2 -14.5 6.0 -14.5 Q5.65 -14.5 5.6 -14.9 L5.55 -15.55 M5.5 -15.85 Q5.4 -15.8 5.3 -15.8 5.1 -15.8 5.0 -16.15 L4.9 -16.45 Q4.9 -16.9 5.3 -16.7 5.65 -16.5 5.65 -16.05 5.65 -15.95 5.5 -15.85 M-1.0 -33.15 Q-1.2 -33.15 -1.25 -33.3 L-1.25 -33.45 Q-1.25 -33.8 -1.0 -33.75 -0.7 -33.75 -0.7 -33.45 -0.7 -33.35 -0.8 -33.25 -0.85 -33.15 -1.0 -33.15 M-1.65 -31.15 Q-1.55 -30.9 -1.55 -30.35 L-1.6 -30.2 -1.65 -30.15 Q-1.75 -30.15 -1.85 -30.15 -2.1 -30.15 -2.15 -30.4 L-2.15 -30.7 Q-2.15 -31.0 -2.1 -31.1 -2.0 -31.4 -1.65 -31.15 M-1.1 -25.25 Q-1.0 -25.1 -1.0 -24.85 L-0.95 -24.4 -0.85 -24.05 -0.8 -23.7 -0.8 -23.55 -0.85 -23.55 -0.95 -23.5 -1.15 -23.5 Q-1.45 -23.5 -1.65 -24.1 L-1.8 -24.7 Q-1.8 -25.1 -1.65 -25.45 -1.4 -25.9 -1.1 -25.25 M-1.75 -21.9 Q-1.5 -21.35 -1.5 -20.5 L-1.5 -19.95 -1.65 -19.95 Q-1.95 -19.95 -2.0 -20.1 -2.15 -20.3 -2.4 -20.5 -2.6 -20.65 -2.65 -20.85 L-2.7 -21.2 Q-2.7 -21.5 -2.35 -21.95 -1.95 -22.45 -1.75 -21.9" fill="#ffffff" fill-rule="evenodd" stroke="none"/>
  </g>
</svg>
