<?xml version="1.0" encoding="UTF-8" standalone="no"?>
<svg xmlns:ffdec="https://www.free-decompiler.com/flash" xmlns:xlink="http://www.w3.org/1999/xlink" ffdec:objectType="shape" height="27.75px" width="37.6px" xmlns="http://www.w3.org/2000/svg">
  <g transform="matrix(1.0, 0.0, 0.0, 1.0, 7.25, 37.4)">
    <path d="M25.0 -29.5 Q25.3 -30.1 25.95 -30.1 26.6 -30.1 27.05 -29.7 27.8 -29.05 27.95 -28.95 28.15 -28.85 28.25 -28.45 28.35 -27.9 28.4 -27.8 L28.7 -26.6 Q28.9 -25.9 29.4 -25.5 29.85 -25.25 30.1 -25.0 30.35 -24.65 30.35 -24.05 30.35 -23.65 30.25 -23.45 30.05 -23.05 29.45 -23.05 L28.9 -23.15 28.4 -23.25 28.25 -22.65 Q28.05 -22.25 27.65 -22.15 L27.55 -22.2 27.5 -22.1 Q27.35 -22.2 27.0 -22.6 L26.55 -23.2 Q26.55 -22.85 26.4 -22.4 26.25 -21.9 26.1 -21.75 26.0 -21.85 25.65 -22.3 25.3 -22.75 25.05 -22.85 25.05 -22.5 24.95 -22.2 24.75 -21.7 24.35 -21.45 24.2 -21.5 23.95 -21.9 23.75 -22.25 23.5 -22.3 L23.35 -21.6 23.4 -21.6 Q23.6 -21.5 23.7 -21.3 23.75 -21.15 23.6 -20.95 L24.15 -21.1 24.4 -21.05 Q24.5 -21.05 24.5 -20.85 24.5 -20.75 23.95 -20.3 L24.25 -20.35 24.75 -20.3 24.8 -20.15 24.6 -19.95 Q24.4 -19.8 24.35 -19.65 L24.65 -19.95 Q24.95 -20.2 25.05 -20.25 25.2 -20.1 25.2 -19.75 L25.3 -19.85 Q25.4 -19.95 25.55 -19.95 25.8 -19.95 25.75 -19.9 L25.85 -19.55 25.9 -19.2 26.05 -19.55 Q26.15 -19.8 26.3 -19.85 L26.6 -19.9 Q26.95 -19.7 27.0 -19.4 27.05 -19.0 27.1 -18.8 27.2 -18.5 27.4 -18.2 27.5 -18.05 27.5 -17.75 27.5 -17.35 27.35 -17.2 L27.4 -17.1 Q27.45 -17.05 27.45 -16.95 27.45 -16.65 26.85 -16.35 26.25 -16.05 25.85 -16.35 25.9 -15.65 25.25 -15.0 24.5 -14.25 23.5 -14.45 L23.15 -13.75 Q22.85 -13.25 22.55 -13.25 21.9 -13.25 21.7 -13.8 21.65 -14.05 21.65 -14.3 21.65 -14.5 21.8 -14.95 21.95 -15.4 21.95 -15.55 21.95 -15.7 21.75 -15.9 L21.1 -16.45 21.1 -16.3 Q21.1 -16.2 21.05 -15.95 20.95 -15.35 20.85 -14.9 20.7 -14.35 20.45 -14.1 20.55 -13.95 20.55 -13.6 20.55 -12.8 19.3 -12.4 18.4 -12.1 17.35 -12.1 16.75 -12.1 16.4 -12.4 16.2 -12.6 16.2 -12.75 16.2 -12.9 16.3 -13.35 L16.4 -13.9 16.35 -14.15 16.25 -14.35 16.3 -14.4 Q16.35 -14.45 16.15 -14.45 16.05 -14.45 15.9 -14.35 15.7 -14.25 15.6 -14.25 14.9 -14.25 14.6 -14.8 14.35 -15.25 14.35 -15.8 14.35 -16.0 14.6 -16.2 15.1 -16.55 15.35 -16.8 L14.7 -17.35 14.25 -16.55 Q13.95 -16.05 13.15 -15.7 L12.65 -15.8 Q12.6 -15.55 12.25 -15.55 11.75 -15.6 11.65 -15.25 11.55 -14.85 11.55 -14.4 11.55 -14.2 11.7 -13.95 11.85 -13.6 12.15 -13.6 L12.6 -13.7 13.0 -13.8 Q13.6 -13.8 13.8 -13.4 13.9 -13.2 13.9 -13.0 13.9 -12.5 13.35 -12.15 12.8 -11.8 12.15 -11.8 11.0 -11.8 10.25 -12.7 9.85 -13.15 9.7 -13.65 L9.45 -13.7 Q9.25 -13.55 8.95 -13.45 8.55 -13.25 8.25 -13.25 7.6 -13.6 7.45 -13.85 7.3 -14.05 7.3 -14.5 7.3 -14.75 7.5 -15.35 7.7 -16.15 8.0 -16.75 L8.1 -16.9 Q7.65 -16.7 7.0 -16.65 5.7 -17.5 5.5 -17.65 5.1 -18.05 5.1 -18.65 5.1 -19.6 5.7 -20.1 L5.1 -20.2 Q4.95 -19.7 4.4 -19.0 3.8 -18.25 3.6 -18.15 2.8 -18.3 2.5 -19.0 2.35 -19.35 2.35 -20.0 2.35 -20.65 3.1 -20.9 3.45 -21.05 4.4 -21.1 4.4 -21.25 4.4 -21.4 4.4 -21.65 4.55 -21.9 L4.65 -22.25 Q4.65 -22.4 4.5 -22.65 L4.15 -22.95 Q3.3 -22.9 3.0 -23.5 2.85 -23.8 2.85 -24.6 L2.85 -25.25 Q3.0 -25.7 3.6 -25.7 4.0 -25.7 4.5 -25.45 L4.9 -25.2 5.55 -25.25 Q5.95 -26.1 5.95 -26.2 5.95 -26.35 5.75 -26.55 L5.4 -26.8 Q4.35 -26.8 4.05 -27.15 3.9 -27.3 3.9 -27.65 3.9 -28.1 4.25 -28.65 4.75 -29.4 5.55 -29.4 5.9 -29.4 6.2 -29.25 6.65 -29.1 7.2 -29.0 7.5 -29.15 7.65 -29.45 L7.85 -30.0 Q8.1 -30.7 8.95 -30.85 9.4 -30.65 10.25 -30.1 10.7 -29.75 11.45 -29.75 L11.8 -29.8 12.6 -29.85 12.85 -30.15 Q13.0 -30.3 13.1 -30.4 11.3 -30.95 11.3 -32.2 11.3 -32.75 11.65 -33.1 12.2 -33.75 13.65 -33.7 14.2 -35.4 15.5 -34.95 16.0 -34.75 16.35 -34.35 16.75 -33.9 16.75 -33.55 16.75 -33.0 16.45 -32.7 15.85 -32.1 14.4 -32.4 L14.8 -31.8 15.05 -31.25 Q15.05 -30.95 14.8 -30.5 14.5 -30.1 14.5 -29.95 L14.5 -29.65 Q14.55 -29.4 14.85 -29.4 15.35 -29.4 15.4 -29.95 L15.5 -30.35 15.65 -30.5 15.7 -30.65 Q16.05 -31.55 16.85 -31.55 17.2 -31.55 17.45 -31.3 17.55 -31.2 17.7 -30.85 18.0 -30.1 18.65 -30.1 L18.85 -30.15 18.95 -30.2 19.0 -30.25 19.0 -30.4 Q19.0 -30.65 18.8 -30.85 L18.25 -31.15 Q17.45 -31.6 17.45 -32.2 L17.45 -32.45 Q17.45 -32.7 17.6 -32.85 18.0 -33.4 19.45 -33.05 L20.2 -32.5 Q20.6 -32.2 20.9 -31.75 L21.25 -32.05 Q21.4 -32.15 21.6 -32.15 21.95 -32.15 22.75 -31.15 L23.0 -30.85 23.1 -30.7 23.4 -30.35 Q23.5 -30.15 24.35 -29.45 L24.85 -29.05 25.0 -29.5 M7.6 -36.8 Q7.45 -36.6 7.3 -36.6 7.15 -36.6 7.0 -36.8 L6.9 -37.0 Q6.9 -37.4 7.25 -37.4 7.65 -37.45 7.65 -37.15 7.65 -37.0 7.6 -36.8 M5.2 -33.05 Q5.6 -33.35 5.55 -33.8 L5.55 -34.4 Q5.55 -34.8 5.95 -34.85 7.1 -35.0 7.75 -34.55 8.2 -34.2 8.2 -33.85 L8.2 -33.6 8.25 -33.35 Q8.25 -33.2 8.05 -33.0 7.8 -32.7 7.3 -32.7 L7.35 -32.55 Q7.25 -32.2 6.8 -31.45 L6.7 -31.2 6.7 -31.1 Q6.7 -30.6 6.5 -30.35 6.25 -30.05 5.85 -30.05 L5.35 -30.05 4.5 -30.8 Q4.3 -31.0 4.3 -31.5 4.3 -31.9 4.35 -32.0 4.4 -32.15 4.7 -32.65 4.8 -32.8 5.2 -33.05 M5.25 -32.1 L5.05 -31.5 Q5.05 -31.35 5.25 -31.1 L5.35 -30.9 5.35 -31.15 5.5 -32.0 5.8 -32.35 5.8 -32.5 5.25 -32.1 M2.25 -31.85 Q2.25 -31.55 2.2 -31.35 2.1 -31.05 1.85 -31.05 1.5 -31.05 1.4 -31.3 1.35 -31.4 1.35 -31.55 1.35 -32.05 1.8 -32.15 2.25 -32.25 2.25 -31.85 M2.1 -33.55 Q1.85 -33.2 1.6 -33.2 1.1 -33.2 1.0 -33.45 0.95 -33.6 1.0 -33.75 1.0 -34.35 1.65 -34.65 1.9 -34.75 2.1 -34.65 2.3 -34.5 2.3 -34.15 2.3 -33.85 2.1 -33.55 M11.1 -33.65 Q11.1 -33.35 10.95 -33.0 10.8 -32.55 10.5 -32.55 10.25 -32.55 10.1 -32.85 10.05 -32.95 10.05 -33.1 10.05 -33.4 10.3 -33.75 10.65 -34.15 11.05 -33.9 L11.1 -33.85 11.1 -33.65 M11.0 -34.5 Q11.0 -34.8 11.15 -34.85 11.35 -34.9 11.7 -34.6 11.5 -34.2 11.35 -34.2 L11.1 -34.25 11.05 -34.25 11.05 -34.3 Q11.0 -34.35 11.0 -34.5 M7.55 -30.15 Q7.35 -29.85 7.1 -29.85 6.75 -29.85 6.65 -30.1 6.6 -30.2 6.65 -30.35 6.65 -31.0 7.2 -31.1 7.45 -31.15 7.6 -31.05 7.75 -30.95 7.75 -30.65 7.75 -30.45 7.55 -30.15 M6.15 -28.5 L5.95 -27.55 6.45 -27.5 Q6.3 -27.45 6.05 -27.25 L6.65 -26.65 6.4 -25.05 5.35 -23.9 Q5.55 -23.8 5.6 -23.5 L5.4 -22.55 5.4 -22.2 5.3 -21.85 Q5.15 -21.55 5.15 -21.4 5.15 -21.3 5.2 -21.15 5.3 -20.95 5.45 -20.85 L6.15 -20.85 6.8 -21.6 Q7.35 -22.2 7.8 -22.2 9.2 -22.2 9.8 -21.7 10.1 -21.45 10.1 -21.05 10.1 -20.5 9.55 -20.3 L9.95 -19.8 Q10.3 -20.15 10.95 -20.15 11.55 -20.15 12.0 -19.8 L12.6 -19.25 12.85 -18.3 12.8 -17.75 12.25 -17.0 12.2 -16.95 13.25 -17.05 13.95 -18.05 16.5 -18.85 17.4 -17.75 Q17.4 -16.3 16.5 -16.3 L16.1 -16.5 Q15.95 -16.25 15.7 -16.1 L15.3 -15.85 15.15 -15.7 Q15.15 -15.45 15.2 -15.35 L15.2 -15.3 Q15.25 -15.4 15.4 -15.4 15.6 -15.5 16.05 -15.4 L16.35 -15.25 Q16.65 -15.1 16.9 -14.6 L17.75 -13.0 18.35 -13.05 19.5 -13.65 18.4 -13.65 17.45 -14.35 17.25 -14.95 Q17.25 -16.45 18.6 -16.45 L21.75 -17.0 22.75 -16.65 Q22.9 -16.65 23.5 -16.4 24.2 -16.1 24.3 -15.85 L25.05 -16.75 26.75 -17.3 27.0 -17.75 26.65 -18.05 Q26.45 -18.2 26.45 -18.35 L26.65 -18.85 26.65 -18.9 26.4 -18.75 26.25 -19.0 25.5 -18.35 25.4 -18.4 25.35 -18.55 Q25.35 -18.7 25.45 -18.85 L25.35 -19.2 25.05 -18.9 24.75 -18.9 24.55 -19.1 Q24.55 -19.25 24.65 -19.35 L24.45 -19.2 Q24.1 -18.9 23.85 -18.9 L23.6 -19.0 23.6 -19.15 23.7 -19.4 23.9 -19.65 23.05 -20.0 23.1 -20.15 22.8 -20.2 22.6 -20.4 21.95 -21.65 Q21.95 -21.95 22.1 -22.05 L22.95 -22.0 23.3 -23.0 Q23.5 -23.0 23.9 -22.65 24.25 -22.25 24.35 -22.0 24.6 -22.2 24.65 -22.65 L24.75 -23.45 26.15 -22.4 26.15 -23.85 26.8 -23.35 Q27.4 -22.8 27.45 -22.55 L27.55 -23.05 Q27.6 -23.45 27.6 -23.7 L27.8 -23.7 27.95 -23.85 Q28.1 -23.95 28.25 -23.95 L28.7 -23.9 Q28.95 -23.8 29.05 -23.7 L27.6 -27.7 25.95 -28.2 23.5 -28.55 22.6 -29.2 Q22.4 -29.35 22.25 -29.75 L20.05 -31.05 19.55 -31.15 Q19.75 -30.85 19.75 -30.45 L19.6 -29.85 Q19.35 -29.35 18.7 -29.35 18.4 -29.35 18.05 -29.55 L14.6 -28.65 13.3 -28.9 Q12.9 -28.65 12.8 -28.65 L12.45 -28.85 Q12.35 -28.9 12.35 -29.0 L12.35 -29.05 11.2 -28.95 Q10.25 -28.95 9.7 -29.4 L8.8 -30.05 8.4 -29.05 Q8.0 -28.2 7.25 -28.2 7.05 -28.2 6.45 -28.4 L6.15 -28.5 M14.55 -33.85 L14.25 -33.3 15.9 -33.35 15.6 -34.0 14.95 -34.25 14.55 -33.85 M12.65 -32.9 L12.05 -32.2 Q12.05 -31.75 12.55 -31.5 L13.85 -30.7 14.25 -31.15 Q14.25 -31.3 14.1 -31.5 L13.85 -31.9 13.65 -33.0 12.65 -32.9 M19.65 -31.95 L19.55 -32.0 19.4 -32.15 Q19.45 -32.05 19.65 -31.95 M17.8 -29.5 L18.0 -28.2 17.1 -26.7 Q16.7 -26.05 16.25 -26.05 L16.3 -27.6 16.7 -28.7 17.8 -29.5 M13.85 -21.8 Q14.1 -22.0 14.45 -21.9 L15.35 -20.8 Q15.35 -20.6 15.25 -20.35 15.05 -20.0 14.65 -20.0 L13.9 -20.65 13.55 -21.3 Q13.55 -21.65 13.85 -21.8 M11.75 -21.7 L11.3 -21.55 Q10.9 -21.55 10.75 -22.25 L10.65 -22.95 Q10.65 -23.5 11.0 -23.65 L11.9 -22.8 11.75 -21.7 M11.6 -18.95 Q11.15 -19.35 10.95 -19.35 10.6 -19.35 10.0 -18.95 9.4 -18.55 8.75 -18.65 8.5 -18.75 8.3 -18.95 L8.25 -18.8 Q8.5 -18.75 8.65 -18.55 8.75 -18.4 8.75 -18.3 L8.7 -17.85 Q9.3 -18.45 10.0 -18.2 10.45 -18.05 10.55 -17.8 L10.6 -17.65 Q10.85 -17.7 11.2 -17.55 L11.7 -17.55 Q11.95 -17.85 12.05 -17.95 12.1 -18.1 12.1 -18.3 12.1 -18.55 11.6 -18.95 M14.35 -14.4 Q14.4 -14.3 14.4 -14.15 14.4 -14.05 14.25 -13.8 14.05 -13.55 13.85 -13.55 13.6 -13.55 13.45 -13.85 13.35 -14.1 13.35 -14.2 13.35 -14.45 13.55 -14.55 L13.85 -14.6 Q14.25 -14.6 14.35 -14.4 M16.2 -17.2 L16.2 -17.2 M18.2 -15.3 L18.3 -15.3 18.25 -15.15 18.4 -15.0 Q18.55 -14.8 18.6 -14.65 18.9 -14.95 18.9 -15.15 18.9 -15.45 18.75 -15.6 18.55 -15.85 18.1 -15.45 18.15 -15.35 18.2 -15.3 M10.6 -26.55 L9.45 -25.3 8.55 -25.75 Q8.4 -26.0 8.4 -26.3 L8.9 -27.15 10.0 -27.85 10.3 -27.85 10.75 -27.55 Q10.8 -27.5 10.8 -27.2 L10.6 -26.55 M7.9 -21.35 Q7.7 -21.35 7.5 -21.15 L7.15 -20.75 6.85 -20.4 6.95 -20.4 Q7.6 -20.3 8.05 -19.9 8.1 -20.15 8.3 -20.4 8.65 -20.85 9.35 -21.0 L9.0 -21.25 Q8.65 -21.35 7.9 -21.35 M2.15 -25.55 Q2.1 -25.7 2.15 -25.8 2.15 -26.35 2.55 -26.3 3.0 -26.3 3.0 -25.85 3.0 -25.35 2.55 -25.35 2.25 -25.35 2.15 -25.55 M1.05 -27.25 Q1.05 -26.65 0.65 -25.85 0.25 -25.1 0.25 -25.0 0.25 -24.9 0.4 -24.55 0.55 -24.2 0.55 -24.0 L0.5 -23.65 Q0.4 -23.35 0.4 -23.2 0.4 -23.15 0.2 -23.05 -0.05 -22.9 -0.3 -22.85 -0.25 -22.4 -0.3 -22.1 -0.4 -21.45 -1.05 -21.45 -1.9 -21.45 -2.25 -22.2 -2.4 -22.55 -2.4 -22.9 L-2.4 -23.4 Q-2.35 -23.75 -2.15 -23.95 L-2.75 -24.55 Q-3.1 -24.95 -3.1 -25.2 L-2.95 -25.65 -2.75 -26.2 Q-2.55 -26.55 -2.05 -26.7 -1.45 -26.95 -1.3 -27.05 -1.05 -27.3 -1.0 -28.05 -0.75 -28.7 0.3 -28.7 0.6 -28.55 0.85 -27.95 1.05 -27.5 1.05 -27.25 M1.2 -24.65 Q1.35 -24.85 1.85 -24.8 2.35 -24.6 3.0 -23.25 3.0 -23.0 2.8 -22.65 2.55 -22.25 2.25 -22.15 1.55 -22.25 1.25 -23.25 1.1 -23.75 1.1 -24.3 1.1 -24.55 1.2 -24.65 M0.8 -21.55 Q0.8 -21.95 1.15 -22.0 1.5 -22.0 1.5 -21.55 1.5 -21.35 1.45 -21.2 1.35 -21.05 1.15 -21.05 0.9 -21.05 0.85 -21.25 0.8 -21.35 0.8 -21.55 M0.45 -21.1 Q0.7 -20.8 0.85 -20.8 1.55 -20.65 1.75 -20.1 L2.0 -19.1 2.05 -18.65 Q2.05 -18.4 2.15 -18.2 L2.4 -17.75 Q2.5 -17.6 2.5 -17.4 2.5 -17.0 2.25 -16.75 1.9 -16.4 1.15 -16.4 -0.25 -16.4 -0.8 -17.35 -1.05 -17.85 -1.05 -18.35 -1.05 -18.65 -0.65 -19.3 -0.2 -20.05 -0.15 -20.1 -0.1 -20.25 -0.05 -20.55 -0.05 -20.85 0.05 -21.0 0.25 -21.35 0.45 -21.1 M0.25 -19.25 L-0.25 -18.25 Q-0.25 -18.0 0.0 -17.65 0.35 -17.15 0.8 -17.15 L1.35 -17.25 Q0.55 -17.25 0.35 -18.05 0.3 -18.5 0.25 -19.25 M0.45 -14.5 Q0.45 -14.3 0.3 -14.0 0.15 -13.65 -0.15 -13.65 -0.55 -13.65 -0.65 -14.05 -0.7 -14.25 -0.65 -14.45 -0.65 -15.25 -0.1 -15.15 0.1 -15.1 0.3 -14.95 0.45 -14.75 0.45 -14.5 M4.75 -14.45 Q4.75 -14.25 4.55 -14.1 4.45 -14.0 4.35 -14.0 4.1 -14.0 4.0 -14.25 L4.0 -14.55 Q4.0 -15.05 4.35 -15.0 4.75 -14.95 4.75 -14.45 M5.4 -14.5 Q5.4 -15.0 5.9 -15.0 6.4 -15.0 6.4 -14.65 6.4 -14.4 6.2 -14.2 6.0 -14.0 5.8 -14.0 5.6 -14.0 5.5 -14.15 5.4 -14.25 5.4 -14.5 M7.0 -19.5 L6.15 -19.25 5.95 -19.05 6.4 -17.95 Q7.0 -17.35 7.2 -17.35 L7.7 -17.95 Q7.35 -17.95 7.3 -18.6 7.25 -18.95 7.25 -19.25 L7.0 -19.5 M8.15 -14.25 Q8.25 -14.05 8.4 -14.05 8.5 -14.05 8.9 -14.3 L9.45 -14.5 Q10.35 -14.5 10.55 -14.0 10.65 -13.8 10.65 -13.55 L11.25 -12.8 12.5 -12.8 Q10.65 -13.0 10.65 -15.0 10.65 -15.25 10.75 -15.55 10.35 -15.65 10.15 -16.0 9.8 -15.5 9.35 -15.5 L8.75 -15.95 8.8 -16.5 Q8.05 -14.9 8.05 -14.5 L8.15 -14.25 M8.0 -12.45 Q7.9 -12.15 7.6 -12.15 7.35 -12.15 7.15 -12.6 7.05 -12.8 7.05 -13.05 7.05 -13.65 7.55 -13.6 8.05 -13.5 8.05 -12.9 8.05 -12.6 8.0 -12.45 M6.25 -10.25 Q6.25 -10.9 6.8 -10.75 7.35 -10.55 7.35 -10.15 7.35 -10.05 7.3 -9.9 7.2 -9.65 6.9 -9.65 L6.6 -9.65 Q6.35 -9.7 6.3 -9.9 6.25 -9.95 6.25 -10.25 M3.8 -13.05 Q3.65 -12.7 3.25 -12.7 2.95 -12.7 2.85 -12.9 2.85 -13.0 2.85 -13.1 2.85 -13.9 3.35 -14.05 3.55 -14.15 3.7 -14.0 3.85 -13.85 3.85 -13.5 3.85 -13.2 3.8 -13.05 M3.8 -12.0 Q3.8 -12.55 4.3 -12.4 4.75 -12.25 4.75 -11.7 4.75 -11.55 4.65 -11.45 4.5 -11.3 4.3 -11.3 4.05 -11.3 3.9 -11.65 3.8 -11.85 3.8 -12.0 M-2.3 -25.2 L-1.65 -24.6 -1.35 -25.4 Q-1.15 -26.0 -1.05 -26.25 L-1.25 -26.2 Q-1.45 -26.1 -1.8 -26.0 L-2.2 -25.65 Q-2.3 -25.45 -2.3 -25.2 M-3.75 -26.55 Q-3.75 -26.3 -3.9 -26.15 -4.0 -25.95 -4.35 -25.95 -4.75 -25.95 -4.85 -26.4 -4.9 -26.6 -4.9 -26.8 -4.9 -27.0 -4.55 -27.15 L-4.3 -27.15 Q-4.05 -27.05 -3.9 -26.85 -3.75 -26.65 -3.75 -26.55 M-5.55 -21.55 Q-5.7 -21.45 -5.85 -21.45 -6.25 -21.45 -6.45 -22.1 -6.6 -22.4 -6.6 -22.7 -6.6 -23.0 -6.45 -23.1 -6.85 -23.15 -6.95 -23.55 -7.05 -23.8 -7.0 -24.05 L-6.95 -24.6 Q-6.85 -24.9 -6.4 -25.1 L-6.15 -25.1 Q-5.8 -24.9 -5.65 -24.75 -5.55 -24.6 -5.55 -24.45 -5.55 -24.25 -5.8 -23.75 -6.0 -23.3 -6.15 -23.2 -5.85 -23.15 -5.55 -22.8 -5.4 -22.15 -5.4 -21.8 -5.4 -21.65 -5.55 -21.55 M-1.45 -23.55 L-1.6 -23.3 Q-1.65 -23.15 -1.65 -23.0 L-1.05 -22.5 Q-1.05 -22.6 -1.15 -22.95 L-1.45 -23.55 M-1.1 -19.95 Q-1.25 -19.7 -1.5 -19.7 -1.8 -19.7 -1.9 -19.9 L-1.9 -20.1 Q-1.9 -20.5 -1.45 -20.7 -1.0 -20.95 -1.0 -20.4 -1.0 -20.15 -1.1 -19.95 M-1.45 -15.6 Q-1.55 -15.4 -1.75 -15.4 -2.25 -15.4 -2.4 -15.55 -2.5 -15.65 -2.5 -15.9 -2.5 -16.95 -1.95 -16.85 -1.75 -16.8 -1.6 -16.55 -1.4 -16.3 -1.4 -15.9 -1.4 -15.75 -1.45 -15.6" fill="#ffdc45" fill-rule="evenodd" stroke="none"/>
    <path d="M25.95 -28.55 L26.65 -28.6 27.4 -28.6 Q27.95 -28.15 28.15 -27.45 28.4 -26.45 28.45 -26.3 28.5 -26.2 28.95 -25.75 L29.5 -25.2 Q29.55 -25.15 29.65 -24.65 L29.7 -24.5 29.7 -24.45 Q29.85 -24.25 29.85 -24.15 29.85 -23.95 29.7 -23.75 29.5 -23.45 29.2 -23.45 L28.75 -23.45 28.45 -23.5 27.9 -23.6 27.65 -23.65 Q27.65 -23.55 27.7 -23.4 L27.75 -23.15 Q27.75 -23.0 27.6 -22.8 L27.4 -22.45 Q27.2 -22.9 26.75 -23.3 L26.2 -23.75 Q26.3 -23.45 26.3 -23.1 L26.25 -22.75 26.2 -22.3 26.15 -22.25 25.95 -22.2 Q25.9 -22.2 25.8 -22.45 L25.6 -22.75 25.2 -23.0 Q24.9 -23.2 24.85 -23.25 L24.75 -22.6 Q24.65 -22.2 24.25 -21.95 24.05 -22.05 23.9 -22.25 23.8 -22.5 23.45 -22.65 L23.2 -22.65 23.15 -22.15 Q23.1 -21.75 22.85 -21.75 22.4 -21.75 22.3 -21.85 L22.15 -22.0 22.1 -22.0 22.1 -21.9 Q22.1 -21.8 22.2 -21.5 L22.3 -21.15 22.55 -21.2 22.9 -21.4 23.2 -21.3 Q22.9 -20.8 22.85 -20.6 23.15 -20.75 23.6 -20.7 L23.75 -20.65 Q23.75 -20.75 23.75 -20.55 L23.55 -20.3 Q23.4 -20.15 23.3 -20.0 L23.4 -20.05 24.1 -20.0 24.3 -19.9 Q24.15 -19.75 24.0 -19.25 24.3 -19.35 25.0 -19.8 L25.0 -19.3 25.05 -19.35 25.45 -19.65 Q25.65 -19.25 25.65 -18.9 25.65 -18.75 25.55 -18.55 L25.9 -18.9 Q26.2 -19.3 26.3 -19.4 26.5 -19.25 26.65 -18.9 26.85 -18.55 26.65 -18.3 L27.05 -18.25 Q27.25 -18.15 27.25 -18.0 L27.3 -17.75 Q27.3 -17.45 27.2 -17.3 27.1 -17.1 26.65 -16.85 L25.55 -16.8 Q25.3 -16.35 25.0 -15.95 24.45 -15.15 24.05 -15.15 24.0 -15.15 23.8 -15.35 L23.55 -15.55 Q23.15 -15.55 22.9 -15.75 22.8 -15.85 22.6 -16.15 22.2 -16.8 21.4 -16.8 20.45 -16.8 20.3 -16.5 20.25 -16.4 20.3 -16.2 L20.3 -16.0 20.2 -15.75 20.05 -15.5 Q20.0 -15.45 20.05 -15.35 L20.05 -15.1 Q20.05 -14.9 19.9 -14.7 L20.0 -14.7 20.0 -14.6 19.7 -14.4 Q19.45 -14.25 19.35 -14.25 19.1 -14.25 19.0 -14.45 18.9 -14.6 18.9 -14.75 18.9 -15.0 19.0 -15.1 19.1 -15.35 19.55 -15.45 L19.45 -15.65 19.35 -15.8 Q19.25 -15.8 18.95 -15.95 L18.65 -16.15 Q18.15 -16.15 17.85 -15.5 L17.65 -15.1 Q17.8 -14.2 18.85 -14.05 L19.75 -14.0 19.9 -13.85 Q19.75 -13.55 19.25 -13.25 18.75 -12.95 18.4 -12.95 17.15 -12.95 16.95 -13.35 16.9 -13.5 16.95 -13.65 L17.0 -13.8 Q17.0 -14.05 16.85 -14.15 16.6 -14.3 16.35 -14.7 15.9 -14.75 15.55 -14.95 15.25 -15.15 15.2 -15.4 L15.0 -15.45 15.0 -15.4 Q14.95 -15.4 14.95 -15.5 14.95 -16.05 15.25 -16.3 15.5 -16.45 16.0 -16.55 16.55 -16.6 16.75 -16.7 17.05 -16.85 17.05 -17.3 17.05 -17.55 16.9 -17.95 16.7 -18.3 16.45 -18.55 L16.15 -18.55 15.7 -18.15 15.4 -17.8 15.0 -17.8 Q14.9 -17.85 14.65 -18.05 L14.45 -18.2 Q14.4 -18.2 13.65 -17.45 L13.65 -17.25 Q13.65 -17.15 13.4 -16.75 13.15 -16.3 12.95 -16.25 L12.5 -16.25 Q12.3 -16.4 12.05 -16.7 L12.05 -16.75 11.95 -16.75 11.65 -16.6 11.3 -16.6 Q11.1 -16.8 11.05 -17.0 11.05 -17.05 11.9 -17.4 12.75 -17.9 12.75 -18.45 12.75 -18.8 12.35 -19.2 11.9 -19.65 11.4 -19.65 11.15 -19.65 10.65 -19.5 10.2 -19.4 9.85 -19.4 9.55 -19.4 9.45 -19.65 9.4 -19.8 9.4 -19.95 9.4 -20.25 9.65 -20.45 L9.75 -20.7 Q9.9 -20.95 9.9 -21.05 L9.8 -21.4 Q9.75 -21.65 9.6 -21.65 9.4 -21.65 9.0 -21.55 8.55 -21.4 8.35 -21.4 8.2 -21.4 7.9 -21.55 7.65 -21.75 7.4 -21.75 L7.25 -21.7 7.05 -21.65 6.65 -21.25 Q6.3 -21.0 5.95 -21.0 5.4 -21.0 5.2 -21.35 5.1 -21.5 5.1 -21.7 5.1 -22.15 5.2 -22.8 L5.3 -23.5 Q5.3 -23.65 5.15 -23.85 L4.85 -24.15 4.7 -24.15 4.55 -24.05 Q4.25 -23.9 4.1 -23.9 3.85 -23.9 3.75 -24.05 L3.75 -24.1 3.65 -24.15 3.75 -24.2 Q3.7 -24.3 3.7 -24.4 3.7 -24.7 3.9 -24.85 4.2 -25.15 5.0 -24.85 5.7 -25.1 6.05 -25.75 L6.2 -26.05 6.1 -26.1 6.3 -26.4 Q6.4 -26.55 6.4 -26.65 6.4 -26.85 5.8 -27.2 5.15 -27.5 5.15 -27.85 5.15 -28.1 5.35 -28.4 5.65 -28.8 6.15 -28.8 L6.7 -28.7 7.2 -28.6 Q7.9 -28.6 8.25 -29.45 8.45 -29.85 8.6 -30.0 8.8 -30.25 9.1 -30.15 9.55 -30.15 9.85 -29.75 10.1 -29.4 10.25 -29.35 L11.5 -29.15 12.5 -29.2 13.05 -29.45 13.85 -29.8 Q13.8 -30.3 12.85 -30.85 11.9 -31.45 11.9 -32.0 11.9 -32.35 12.1 -32.75 12.35 -33.1 12.6 -33.3 L13.05 -33.25 13.35 -33.2 13.3 -33.25 13.35 -33.3 13.4 -33.2 Q13.4 -33.1 13.45 -33.1 L13.65 -33.1 Q14.05 -33.4 14.3 -33.8 L14.75 -34.5 15.1 -34.5 15.4 -34.45 Q15.65 -34.15 15.95 -33.9 16.1 -33.8 16.1 -33.45 16.1 -33.25 15.9 -33.05 15.6 -32.75 14.8 -33.0 14.2 -32.95 13.95 -32.6 13.85 -32.45 13.85 -32.1 13.85 -31.9 14.05 -31.55 14.3 -31.2 14.3 -31.1 14.3 -30.95 14.15 -30.55 L14.0 -30.2 13.95 -29.85 Q14.3 -29.85 14.45 -29.45 L14.65 -28.95 15.1 -28.9 15.65 -29.05 Q16.2 -29.15 16.35 -29.25 16.5 -29.35 16.5 -29.85 16.5 -30.15 16.7 -30.5 17.0 -31.0 17.5 -30.7 17.65 -30.65 18.3 -30.05 18.5 -29.9 18.75 -29.9 L18.8 -29.95 18.95 -30.05 19.15 -30.2 19.2 -30.3 Q19.2 -30.75 18.8 -31.0 18.45 -31.25 18.45 -31.55 18.45 -31.95 18.6 -32.1 18.85 -32.4 19.7 -32.4 20.1 -32.15 20.5 -31.6 20.85 -31.0 21.05 -30.8 L22.1 -30.75 Q22.2 -30.6 22.3 -30.1 22.45 -29.6 22.85 -29.4 L23.85 -28.8 24.45 -28.45 25.15 -28.45 Q25.5 -28.4 25.95 -28.55 M7.55 -36.9 L7.5 -36.85 Q7.4 -36.8 7.3 -36.8 L7.15 -36.8 7.05 -36.9 7.05 -37.05 Q7.05 -37.3 7.2 -37.35 7.35 -37.4 7.55 -37.05 L7.55 -36.9 M4.85 -32.2 Q4.85 -32.45 5.35 -32.8 L5.9 -33.1 5.95 -33.15 5.9 -33.2 Q5.85 -33.2 5.85 -33.35 5.85 -33.45 5.9 -33.6 L6.0 -33.85 Q6.0 -34.05 6.0 -34.2 6.0 -34.3 6.1 -34.4 L6.05 -34.4 Q5.85 -34.4 5.8 -34.55 L5.8 -34.7 Q5.8 -35.15 6.1 -35.05 6.4 -34.95 6.4 -34.65 L6.35 -34.5 6.65 -34.4 6.85 -34.4 6.85 -34.3 Q7.2 -34.15 7.4 -34.35 7.65 -34.35 7.8 -34.15 7.9 -33.95 7.9 -33.85 L7.9 -33.65 Q7.8 -33.5 7.55 -33.4 7.2 -33.25 6.25 -33.15 6.35 -33.05 6.35 -32.9 L6.05 -32.0 Q6.0 -31.8 6.05 -31.5 L6.05 -31.1 Q6.05 -30.85 5.85 -30.65 5.65 -30.35 5.45 -30.35 5.1 -30.35 4.9 -30.95 4.8 -31.25 4.75 -31.55 4.75 -31.8 4.85 -32.0 4.85 -32.1 4.85 -32.2 M1.7 -33.95 Q1.7 -33.85 1.6 -33.75 1.55 -33.6 1.35 -33.6 L1.1 -33.65 1.05 -33.8 Q1.05 -34.35 1.4 -34.35 1.7 -34.3 1.7 -33.95 M1.8 -31.6 L1.8 -31.45 Q1.7 -31.35 1.6 -31.35 1.45 -31.55 1.45 -31.6 1.45 -31.65 1.5 -31.75 L1.65 -31.9 1.75 -31.8 Q1.8 -31.7 1.8 -31.6 M10.95 -34.8 Q11.1 -34.85 11.35 -34.8 L11.4 -34.8 11.4 -34.65 Q11.4 -34.4 11.15 -34.4 L10.95 -34.4 10.95 -34.45 10.9 -34.5 Q10.9 -34.55 10.9 -34.7 L10.9 -34.8 10.95 -34.8 M10.6 -33.1 Q10.5 -32.95 10.35 -32.9 10.05 -33.15 10.05 -33.25 10.05 -33.6 10.35 -33.65 10.65 -33.65 10.65 -33.35 10.65 -33.25 10.6 -33.1 M6.3 -32.3 Q6.4 -32.65 6.65 -32.65 7.05 -32.65 7.1 -32.3 7.1 -32.05 7.0 -31.8 6.9 -31.4 6.65 -31.4 6.35 -31.4 6.25 -31.6 6.2 -31.75 6.2 -31.85 6.2 -32.1 6.3 -32.3 M7.4 -30.4 L7.4 -30.2 7.3 -30.15 7.15 -30.1 Q6.95 -30.1 6.9 -30.3 6.85 -30.4 6.85 -30.5 6.85 -30.65 6.95 -30.8 7.05 -30.95 7.35 -30.9 L7.4 -30.4 M16.95 -28.55 Q16.85 -28.25 16.8 -28.15 L16.5 -27.75 Q16.35 -27.55 16.35 -27.4 16.35 -27.2 16.35 -27.15 L16.4 -27.1 16.7 -27.1 16.85 -27.45 Q16.95 -27.65 17.25 -27.8 17.4 -27.9 17.6 -28.15 17.8 -28.4 17.8 -28.55 L17.7 -29.05 Q17.5 -29.15 17.15 -29.0 17.0 -28.85 16.95 -28.55 M20.5 -27.1 L18.7 -26.65 17.9 -26.1 18.25 -25.75 Q18.6 -25.45 18.8 -25.3 20.15 -25.45 20.4 -26.05 L20.5 -27.1 M13.9 -21.35 L13.85 -21.3 13.8 -21.1 Q13.8 -20.95 14.0 -20.65 14.25 -20.3 14.4 -20.3 L14.6 -20.3 14.8 -20.35 Q14.95 -20.45 15.0 -20.55 L15.1 -20.7 Q15.1 -21.05 14.9 -21.25 14.6 -21.5 14.15 -21.4 L13.9 -21.35 M12.9 -16.55 L13.0 -16.6 13.05 -16.65 12.85 -16.6 12.7 -16.55 12.9 -16.55 M10.3 -27.1 Q10.3 -27.2 10.1 -27.45 L9.85 -27.75 Q9.75 -27.7 9.6 -27.4 L9.3 -26.95 8.8 -26.55 Q8.5 -26.25 8.5 -26.1 L8.5 -25.85 8.95 -25.85 Q9.4 -25.85 9.5 -26.1 9.7 -26.45 9.8 -26.5 10.0 -26.55 10.15 -26.75 10.3 -26.95 10.3 -27.1 M11.1 -23.1 Q11.15 -23.0 11.1 -22.85 11.05 -22.45 11.05 -22.2 L11.15 -22.2 Q11.65 -22.2 11.65 -22.65 11.65 -22.75 11.5 -22.9 11.35 -23.05 11.25 -23.05 L11.15 -23.15 11.1 -23.1 M0.25 -25.8 Q0.25 -25.7 -0.15 -25.35 L-0.6 -25.0 -1.0 -25.05 Q-1.15 -25.15 -1.3 -25.35 L-1.5 -25.15 Q-1.6 -25.0 -1.6 -24.95 L-1.3 -24.15 Q-1.0 -23.35 -1.0 -23.2 -1.0 -23.15 -0.85 -22.65 L-0.65 -22.2 Q-0.65 -21.8 -0.8 -21.6 L-1.5 -21.6 -1.75 -21.65 -2.2 -22.1 Q-2.35 -22.25 -2.35 -22.5 L-2.3 -22.85 -2.25 -23.15 -2.2 -23.6 Q-2.2 -23.7 -2.0 -23.8 -1.9 -23.9 -1.9 -23.95 -1.9 -24.35 -2.45 -24.75 -3.0 -25.1 -3.0 -25.3 -3.0 -26.05 -2.05 -26.35 L-1.3 -26.6 Q-0.95 -26.75 -0.85 -27.0 -0.85 -27.1 -0.85 -27.55 -0.9 -27.9 -0.7 -28.05 -0.35 -28.4 -0.05 -28.4 0.25 -28.45 0.65 -28.2 L0.65 -28.1 Q0.65 -28.05 0.45 -27.95 0.25 -27.9 0.15 -27.65 0.1 -27.55 0.15 -27.35 L0.15 -27.0 Q0.25 -26.25 0.25 -25.8 M1.95 -23.95 Q2.3 -23.85 2.4 -23.6 L2.65 -23.25 Q2.75 -23.1 2.75 -23.0 2.75 -22.8 2.55 -22.6 2.4 -22.4 2.15 -22.3 L1.75 -22.3 Q1.4 -22.35 1.1 -22.95 0.85 -23.45 0.85 -23.8 0.85 -24.1 1.1 -24.4 1.35 -24.7 1.7 -24.65 1.7 -24.55 1.7 -24.45 L1.65 -24.25 Q1.65 -24.1 1.95 -23.95 M0.0 -23.8 Q-0.15 -23.4 -0.4 -23.4 -0.65 -23.4 -0.85 -23.75 -0.9 -23.9 -0.95 -24.1 L-0.85 -24.4 Q-0.75 -24.7 -0.55 -24.85 -0.1 -24.75 0.1 -24.3 0.1 -24.05 0.0 -23.8 M5.0 -20.6 Q4.25 -20.25 4.2 -19.95 4.0 -19.35 4.0 -19.1 4.0 -19.0 3.8 -18.8 3.65 -18.55 3.55 -18.55 L3.2 -18.55 Q2.8 -18.8 2.35 -19.95 2.35 -20.1 2.5 -20.4 2.7 -20.65 2.85 -20.75 3.15 -20.8 3.25 -20.65 3.4 -20.55 3.5 -20.55 L3.75 -20.6 Q3.8 -20.7 4.0 -20.8 L4.55 -20.9 4.75 -20.9 5.0 -20.6 M5.55 -19.35 Q5.8 -19.8 6.3 -19.65 6.35 -19.95 6.75 -20.0 7.1 -20.0 7.25 -19.65 7.4 -19.4 7.35 -19.15 7.25 -18.85 7.25 -18.75 7.25 -18.45 7.75 -18.3 8.3 -18.2 8.3 -17.8 8.3 -17.55 7.85 -17.3 7.45 -17.05 7.1 -17.05 6.65 -17.05 6.0 -17.85 5.4 -18.55 5.4 -18.65 5.4 -19.05 5.55 -19.35 M1.0 -20.85 L1.2 -20.8 Q0.85 -20.65 0.85 -20.35 0.9 -19.9 0.9 -19.7 L0.8 -18.6 Q0.8 -17.8 1.35 -17.55 L1.7 -17.35 Q1.9 -17.25 1.9 -16.95 L1.8 -16.75 Q1.7 -16.6 1.6 -16.55 L1.1 -16.55 Q0.95 -16.75 0.45 -17.0 0.0 -17.25 -0.15 -17.45 -0.4 -17.7 -0.45 -17.95 L-0.5 -18.35 Q-0.5 -18.5 -0.3 -18.95 L0.0 -19.25 Q0.3 -19.45 0.3 -19.55 0.35 -19.7 0.3 -20.05 0.3 -20.45 0.6 -20.7 0.8 -20.75 0.9 -20.8 L1.0 -20.85 M4.7 -14.6 Q4.7 -14.45 4.65 -14.4 L4.5 -14.25 4.4 -14.35 4.35 -14.55 4.4 -14.75 Q4.45 -14.85 4.65 -14.8 L4.7 -14.6 M10.0 -18.1 L10.0 -18.0 10.05 -17.9 Q10.05 -17.75 9.85 -17.65 L9.8 -17.6 9.45 -16.8 Q9.15 -16.2 9.15 -16.1 L9.2 -15.85 9.25 -15.7 9.8 -16.0 Q10.55 -15.85 10.8 -15.35 10.85 -15.25 11.0 -14.6 11.0 -14.1 11.1 -13.85 11.25 -13.4 11.85 -13.15 L12.05 -13.15 12.25 -13.2 12.4 -13.2 12.65 -13.15 Q12.75 -13.0 12.85 -12.55 L12.75 -12.45 12.6 -12.35 12.4 -12.4 12.35 -12.35 Q12.3 -12.4 12.3 -12.5 L12.05 -12.3 Q11.9 -12.25 11.7 -12.25 11.2 -12.25 10.5 -13.1 10.15 -13.5 9.85 -14.0 L8.05 -13.95 Q7.85 -14.0 7.8 -14.45 7.75 -14.7 7.75 -15.05 7.75 -15.3 7.95 -15.65 L8.4 -16.25 Q8.5 -16.45 8.65 -16.85 8.7 -16.95 8.8 -17.15 8.95 -17.35 9.15 -17.5 L9.25 -17.55 Q9.25 -17.7 9.4 -17.9 9.6 -18.2 9.95 -18.1 L10.0 -18.1 M8.3 -18.85 Q8.15 -18.7 7.95 -18.7 7.7 -18.7 7.6 -19.05 7.55 -19.25 7.55 -19.4 7.55 -19.8 8.0 -19.8 8.45 -19.8 8.45 -19.3 8.45 -19.05 8.3 -18.85 M8.65 -16.6 L8.65 -16.6 M6.0 -14.2 L5.8 -14.25 5.8 -14.45 Q5.8 -14.65 5.8 -14.6 L6.0 -14.55 6.25 -14.5 6.2 -14.35 6.15 -14.25 6.0 -14.2 M10.45 -16.9 Q10.4 -16.75 10.2 -16.75 10.0 -16.75 9.9 -16.95 9.8 -17.1 9.8 -17.2 9.8 -17.8 10.55 -17.2 10.5 -17.15 10.45 -16.9 M7.3 -12.9 Q7.25 -13.0 7.25 -13.05 7.25 -13.45 7.6 -13.3 8.0 -13.15 8.0 -12.95 8.0 -12.8 7.85 -12.75 7.75 -12.7 7.65 -12.7 7.4 -12.7 7.3 -12.9 M6.3 -10.3 Q6.3 -10.75 6.7 -10.65 7.1 -10.5 7.1 -10.1 7.1 -9.95 7.05 -9.9 6.95 -9.8 6.85 -9.8 6.6 -9.8 6.45 -10.05 L6.3 -10.3 M3.25 -13.85 Q3.4 -13.75 3.5 -13.55 L3.55 -13.35 3.55 -13.2 3.5 -13.2 3.45 -13.15 Q3.4 -13.1 3.25 -13.1 L3.1 -13.15 3.0 -13.2 3.0 -13.4 Q3.0 -13.5 3.1 -13.65 L3.25 -13.85 M4.1 -11.6 Q3.95 -11.6 3.8 -11.8 3.65 -12.05 3.65 -12.15 L4.0 -12.15 Q4.35 -12.1 4.4 -11.85 L4.35 -11.65 4.3 -11.65 4.1 -11.6 M0.05 -14.1 L-0.1 -14.1 Q-0.5 -14.1 -0.5 -14.4 -0.5 -14.6 -0.15 -14.65 0.2 -14.65 0.2 -14.35 0.2 -14.2 0.05 -14.1 M-1.7 -28.15 L-1.6 -28.05 Q-1.55 -27.95 -1.55 -27.85 -1.65 -27.75 -1.7 -27.7 L-1.85 -27.75 -1.9 -27.95 Q-1.9 -28.05 -1.85 -28.1 L-1.7 -28.15 M-4.1 -26.65 L-4.05 -26.4 Q-4.05 -26.3 -4.1 -26.25 L-4.15 -26.25 -4.35 -26.2 Q-4.5 -26.2 -4.6 -26.55 L-4.65 -26.8 Q-4.65 -26.95 -4.55 -27.0 -4.4 -27.05 -4.2 -26.9 L-4.1 -26.65 M-6.7 -24.85 Q-6.5 -24.9 -6.35 -24.8 L-6.25 -24.8 -6.15 -24.7 Q-6.15 -24.65 -6.15 -24.5 -6.15 -24.4 -6.2 -24.25 L-6.25 -24.05 -6.35 -23.7 Q-6.35 -23.55 -6.5 -23.4 -6.6 -23.3 -6.75 -23.3 -7.1 -23.3 -7.15 -23.6 L-7.2 -23.85 Q-7.25 -24.0 -7.25 -24.05 -7.25 -24.35 -6.95 -24.8 -6.55 -25.35 -6.2 -25.25 L-6.15 -25.25 Q-6.5 -25.15 -6.85 -24.8 L-6.7 -24.85 M-7.15 -24.3 L-7.2 -24.1 -7.15 -24.05 -7.15 -24.3 M-6.35 -22.15 L-6.4 -22.25 -6.45 -22.4 -6.55 -22.35 Q-6.55 -22.25 -6.4 -22.15 L-6.35 -22.15 M-6.0 -22.15 L-6.0 -21.7 -6.15 -21.7 Q-6.5 -21.7 -6.6 -22.1 L-6.7 -22.45 -6.65 -22.8 Q-6.35 -22.8 -6.15 -22.5 -6.0 -22.25 -6.0 -22.15 M-1.3 -20.2 Q-1.4 -20.05 -1.55 -20.05 L-1.65 -20.05 -1.7 -20.2 Q-1.7 -20.55 -1.45 -20.65 -1.25 -20.75 -1.25 -20.45 -1.25 -20.3 -1.3 -20.2 M-1.6 -15.9 Q-1.6 -15.7 -1.85 -15.5 -2.25 -15.4 -2.4 -15.8 -2.45 -15.95 -2.45 -16.15 -2.45 -16.6 -2.0 -16.5 -1.6 -16.4 -1.6 -15.9" fill="#ffff66" fill-rule="evenodd" stroke="none"/>
    <path d="M5.55 -31.2 Q5.4 -31.1 5.3 -31.1 4.95 -31.1 4.9 -31.45 4.85 -31.6 4.9 -31.7 4.9 -32.5 5.3 -32.4 5.7 -32.3 5.7 -31.45 5.7 -31.3 5.55 -31.2 M6.25 -33.5 Q6.4 -33.7 6.65 -33.8 6.9 -33.9 7.05 -33.9 L7.15 -33.8 7.2 -33.7 Q7.15 -33.65 6.9 -33.45 6.65 -33.3 6.6 -33.3 6.35 -33.3 6.25 -33.5 M8.6 -28.95 Q8.6 -29.4 9.05 -29.55 9.5 -29.65 9.5 -29.2 9.25 -28.45 8.95 -28.45 L8.75 -28.5 8.6 -28.6 8.6 -28.95 M11.1 -29.2 L12.6 -28.95 Q13.0 -28.8 13.0 -28.5 13.0 -28.25 12.4 -28.15 11.7 -28.1 11.55 -27.95 L11.3 -27.6 Q11.05 -27.3 10.75 -27.3 10.25 -27.3 10.1 -27.7 10.05 -27.9 10.1 -28.1 10.1 -28.5 10.3 -28.7 10.5 -29.05 11.1 -29.2 M15.4 -34.0 L15.5 -34.0 Q15.55 -34.0 15.55 -33.85 15.55 -33.65 15.35 -33.5 15.15 -33.35 15.0 -33.35 L14.75 -33.4 14.65 -33.4 14.65 -33.45 Q14.6 -33.5 14.6 -33.65 14.6 -33.85 14.8 -33.9 L15.4 -34.0 M13.25 -32.8 L13.25 -32.6 13.2 -32.35 Q13.2 -32.25 13.3 -32.15 13.4 -32.1 13.4 -31.95 13.4 -31.75 13.2 -31.5 12.95 -31.3 12.8 -31.3 12.45 -31.3 12.35 -31.65 12.3 -31.8 12.3 -32.0 12.3 -32.4 12.4 -32.6 12.6 -32.95 13.25 -32.8 M19.3 -31.05 Q19.0 -31.05 18.9 -31.25 L18.85 -31.45 Q18.85 -31.9 19.35 -32.0 19.8 -32.1 19.8 -31.5 19.8 -31.35 19.65 -31.2 19.5 -31.05 19.3 -31.05 M18.65 -29.35 Q19.0 -29.7 19.5 -29.4 20.1 -29.35 20.4 -29.1 20.6 -28.9 20.7 -28.5 20.85 -28.05 20.95 -27.9 21.15 -27.65 21.65 -27.65 L22.65 -27.5 Q23.4 -27.35 23.55 -27.25 L24.0 -26.9 Q24.15 -26.75 24.3 -26.5 L24.5 -26.55 24.4 -26.7 24.6 -26.7 24.7 -26.65 24.75 -26.65 24.85 -26.7 Q24.9 -26.75 24.9 -26.65 L25.05 -26.6 25.4 -26.9 25.5 -27.05 Q25.5 -27.25 25.35 -27.35 24.95 -27.6 24.75 -27.8 L24.75 -28.05 25.35 -28.05 25.35 -28.1 Q26.25 -28.05 27.0 -27.6 27.65 -27.15 27.65 -26.85 L27.5 -26.3 Q27.3 -25.85 27.3 -25.7 27.3 -25.55 27.35 -25.5 L27.4 -25.4 Q28.15 -25.45 28.55 -24.85 28.8 -24.5 28.8 -24.1 L28.85 -24.1 28.9 -24.05 Q28.9 -23.95 28.85 -23.9 L28.55 -23.8 Q28.25 -23.75 27.85 -23.95 L27.75 -24.0 Q27.75 -23.5 27.45 -23.25 L27.3 -23.25 Q27.25 -23.25 27.25 -23.4 L26.95 -23.75 Q26.6 -24.1 26.3 -24.25 26.0 -24.15 26.0 -23.75 L25.9 -23.05 25.8 -23.0 Q25.65 -23.15 25.6 -23.25 L25.5 -23.45 Q25.3 -23.5 25.1 -23.65 L24.65 -23.6 24.5 -22.95 Q24.4 -22.55 24.05 -22.35 24.0 -22.4 23.65 -22.75 23.35 -23.05 23.1 -23.15 22.85 -23.0 22.8 -22.8 22.75 -22.65 22.7 -22.25 22.6 -22.2 22.5 -22.2 L22.3 -22.25 22.35 -22.2 22.25 -22.15 22.05 -22.15 Q21.85 -22.15 21.7 -22.25 L21.7 -22.5 21.55 -22.5 Q21.3 -22.5 21.2 -22.95 21.1 -23.4 20.8 -23.4 20.7 -23.4 20.45 -23.25 L20.2 -23.1 Q19.15 -23.1 18.55 -24.4 L17.65 -24.35 17.2 -23.9 Q17.1 -23.8 17.1 -23.65 17.1 -23.45 17.15 -23.35 L17.35 -23.2 Q18.2 -23.0 18.8 -22.5 19.3 -22.05 19.3 -21.7 19.3 -21.45 18.8 -20.95 18.3 -20.45 18.3 -20.25 18.3 -20.05 18.6 -19.8 18.85 -19.65 18.95 -19.65 19.5 -19.65 19.8 -20.2 20.1 -20.75 20.45 -20.8 L20.8 -20.75 Q20.85 -20.65 20.85 -20.3 20.85 -20.05 21.05 -19.9 21.3 -20.0 21.4 -20.5 21.45 -20.7 21.55 -20.85 L21.55 -20.95 21.6 -20.9 Q21.7 -21.0 21.75 -21.0 L21.8 -20.9 21.8 -20.75 Q22.55 -20.3 22.8 -20.3 L23.0 -20.25 23.0 -20.2 Q22.9 -20.1 22.65 -20.0 L22.3 -19.85 22.2 -19.8 23.0 -19.6 23.6 -19.6 23.7 -19.55 23.7 -19.4 Q23.7 -19.25 23.65 -19.15 L23.5 -19.05 23.5 -19.0 23.9 -19.05 24.35 -19.1 24.8 -19.05 Q24.85 -19.0 24.8 -18.9 24.8 -18.75 24.75 -18.75 L24.75 -18.7 Q24.9 -18.75 25.25 -18.9 25.4 -18.75 25.45 -18.5 L25.45 -18.15 25.9 -18.55 26.25 -18.95 26.3 -18.95 Q26.4 -18.95 26.4 -18.9 L26.35 -18.8 26.35 -18.75 26.3 -18.5 Q26.3 -18.35 26.35 -18.3 L26.55 -18.3 Q26.75 -18.3 26.85 -18.15 L26.9 -17.95 Q26.65 -17.15 26.15 -17.15 26.05 -17.15 25.95 -17.25 25.9 -17.35 25.75 -17.35 25.1 -17.35 25.0 -17.05 24.8 -16.45 24.5 -16.15 L24.3 -16.1 Q24.2 -16.05 24.15 -16.0 L23.45 -16.2 Q22.85 -16.4 22.75 -16.5 22.9 -16.7 23.35 -17.0 23.65 -17.2 23.65 -17.5 23.65 -17.75 23.35 -17.85 L21.9 -18.15 21.55 -18.15 21.55 -18.1 Q21.6 -18.05 21.75 -18.0 L21.9 -17.95 Q21.95 -17.9 21.95 -17.75 L21.65 -17.45 20.95 -17.3 20.35 -17.3 Q20.05 -17.35 20.0 -17.65 19.95 -17.8 19.95 -18.0 19.95 -18.2 20.0 -18.3 L20.25 -18.8 20.3 -18.85 20.3 -18.95 19.8 -19.0 19.7 -18.95 Q19.5 -18.75 19.25 -18.8 L19.0 -18.6 19.25 -18.3 19.4 -18.05 Q19.4 -18.0 19.3 -17.9 L19.0 -17.75 Q18.95 -17.6 18.75 -17.5 18.55 -17.35 18.35 -17.35 17.95 -17.35 17.8 -17.7 17.75 -17.9 17.75 -18.05 L17.35 -18.9 Q17.1 -19.45 16.6 -19.75 L16.4 -19.85 Q16.3 -19.8 16.0 -19.25 15.8 -18.85 15.25 -18.85 15.0 -18.85 14.8 -19.15 14.7 -19.35 14.7 -19.45 14.7 -19.75 15.15 -20.3 15.6 -20.8 15.6 -21.1 15.6 -21.35 15.05 -21.7 L14.5 -22.05 Q14.35 -22.0 13.95 -21.7 13.6 -21.45 13.15 -21.5 12.85 -21.65 12.75 -21.8 L12.75 -22.1 Q12.75 -22.3 12.85 -22.55 13.0 -22.8 13.25 -22.95 L13.2 -23.05 Q13.05 -23.05 12.95 -22.9 12.8 -22.75 12.65 -22.7 L12.45 -22.9 Q12.4 -23.0 12.4 -23.05 12.4 -23.4 12.7 -23.55 L12.8 -23.6 Q12.95 -23.7 12.95 -23.85 12.95 -24.0 12.4 -24.9 11.85 -25.8 11.85 -26.0 11.85 -26.7 12.3 -27.2 12.65 -27.7 13.25 -27.9 13.85 -28.15 14.25 -28.0 14.7 -27.85 14.7 -27.3 L14.3 -26.9 Q13.9 -26.45 13.9 -26.15 13.9 -25.8 13.9 -25.7 13.95 -25.5 14.15 -25.2 15.8 -25.45 16.45 -26.0 L16.9 -26.4 16.95 -26.6 17.3 -26.75 Q17.4 -26.85 17.55 -26.95 L17.85 -27.15 Q18.15 -27.45 18.15 -27.95 18.2 -28.15 18.2 -28.3 18.25 -28.95 18.65 -29.35 M22.4 -29.55 L22.55 -29.35 22.6 -29.05 Q22.6 -28.75 22.45 -28.5 22.3 -28.2 21.9 -28.2 21.6 -28.2 21.45 -28.6 21.35 -28.8 21.35 -29.05 21.35 -29.45 21.45 -29.55 21.65 -29.7 22.4 -29.55 M20.25 -26.8 L20.25 -26.85 Q19.45 -26.8 18.85 -26.55 18.3 -26.25 18.0 -26.1 L17.95 -26.0 Q18.25 -25.4 19.0 -25.4 19.95 -25.4 20.2 -25.8 20.35 -26.0 20.35 -26.35 20.35 -26.5 20.3 -26.65 L20.25 -26.8 M13.2 -17.1 Q13.2 -16.85 12.95 -16.65 12.75 -16.5 12.6 -16.5 12.35 -16.5 12.2 -16.8 12.1 -17.0 12.1 -17.1 12.1 -17.35 12.25 -17.45 12.45 -17.65 12.85 -17.5 13.2 -17.4 13.2 -17.1 M17.1 -15.25 Q17.1 -15.0 17.0 -14.85 16.85 -14.65 16.55 -14.65 16.05 -14.65 15.75 -15.1 15.55 -15.35 15.5 -15.65 15.5 -16.5 16.3 -16.05 16.6 -15.9 16.85 -15.6 17.1 -15.35 17.1 -15.25 M10.55 -24.85 L10.9 -23.75 Q11.0 -23.6 11.0 -23.05 11.0 -22.7 10.8 -22.3 10.6 -21.75 10.15 -21.75 9.75 -21.75 9.75 -22.35 9.75 -22.6 9.85 -22.95 9.85 -23.45 9.55 -23.7 9.25 -23.95 9.25 -24.45 9.25 -25.05 9.65 -25.3 10.1 -25.6 10.55 -24.85 M7.35 -27.5 Q7.4 -27.25 7.3 -27.0 7.15 -26.7 6.8 -26.7 6.4 -26.7 6.25 -27.1 6.15 -27.3 6.15 -27.5 6.15 -28.1 6.5 -28.2 L7.8 -28.45 7.55 -28.05 Q7.35 -27.75 7.35 -27.5 M6.15 -22.5 Q6.1 -22.05 5.75 -22.05 5.5 -22.05 5.35 -22.5 5.2 -22.85 5.2 -23.0 5.2 -24.0 5.7 -24.0 6.15 -24.0 6.15 -23.05 L6.15 -22.5 M7.0 -24.05 Q7.0 -24.5 7.0 -24.6 7.1 -24.95 7.55 -24.95 8.05 -24.95 8.45 -24.6 L8.7 -24.2 Q8.7 -24.1 8.55 -23.95 8.35 -23.8 8.35 -23.65 L8.4 -23.05 Q8.45 -22.75 8.4 -22.5 8.3 -22.0 7.9 -22.0 7.35 -22.0 7.15 -22.95 7.0 -23.5 7.0 -24.05 M10.8 -21.5 Q11.1 -21.45 11.3 -21.15 11.55 -20.8 11.55 -20.35 L11.55 -19.95 Q11.5 -19.75 11.2 -19.7 L10.7 -19.7 Q10.25 -20.1 10.15 -20.25 10.05 -20.4 10.05 -20.75 10.05 -21.2 10.3 -21.4 10.5 -21.55 10.8 -21.5 M1.55 -22.7 Q1.15 -22.7 0.95 -23.05 0.85 -23.25 0.85 -23.35 0.85 -23.95 1.4 -23.7 1.9 -23.45 1.9 -23.1 1.9 -22.95 1.85 -22.85 1.75 -22.7 1.55 -22.7 M3.5 -19.2 Q3.5 -19.0 3.3 -18.9 L3.1 -18.85 Q2.9 -18.85 2.75 -19.2 2.7 -19.35 2.65 -19.55 2.65 -20.25 3.1 -20.0 3.5 -19.75 3.5 -19.2 M0.7 -17.75 Q0.85 -17.7 0.85 -17.55 0.85 -17.15 0.35 -17.15 -0.05 -17.15 -0.2 -17.6 -0.25 -17.8 -0.25 -17.95 -0.25 -18.2 -0.1 -18.5 0.15 -18.85 0.4 -18.45 0.4 -18.15 0.45 -17.95 0.5 -17.85 0.7 -17.75 M6.85 -17.8 Q6.75 -17.65 6.5 -17.65 6.15 -17.65 5.85 -18.2 5.75 -18.5 5.65 -18.75 5.65 -19.6 6.3 -18.9 L6.75 -18.35 6.95 -18.0 Q6.95 -17.95 6.85 -17.8 M8.35 -15.45 Q8.7 -15.6 9.1 -14.85 L9.4 -14.85 Q9.6 -14.85 9.8 -14.75 9.95 -14.6 9.95 -14.5 9.95 -14.25 9.6 -14.1 9.35 -13.95 9.05 -13.95 8.35 -13.95 8.1 -14.25 8.0 -14.4 8.0 -14.75 8.0 -15.3 8.35 -15.45 M10.75 -13.1 Q10.55 -13.35 10.6 -13.65 L10.65 -13.8 11.05 -13.4 Q11.4 -13.05 11.4 -12.85 11.0 -12.75 10.75 -13.1 M18.4 -13.1 L18.15 -13.05 Q17.95 -13.05 17.75 -13.25 L17.5 -13.5 Q17.7 -13.9 18.15 -13.85 18.65 -13.75 18.65 -13.45 18.65 -13.2 18.4 -13.1 M-0.25 -26.7 Q-0.35 -26.5 -0.45 -26.45 L-0.55 -26.45 Q-0.65 -26.45 -0.65 -26.5 L-0.6 -26.75 Q-0.55 -26.9 -0.35 -26.8 L-0.25 -26.7 M-2.25 -25.45 Q-2.25 -26.35 -1.45 -26.15 -1.2 -26.1 -0.95 -25.9 -0.7 -25.75 -0.7 -25.65 -0.7 -25.5 -0.85 -25.35 -1.0 -25.15 -1.25 -25.15 -1.45 -25.15 -1.55 -25.25 L-1.7 -25.45 -1.85 -25.3 Q-1.95 -25.2 -2.05 -25.15 L-2.2 -25.2 Q-2.25 -25.25 -2.25 -25.45 M-0.95 -22.5 Q-0.95 -22.3 -1.05 -22.15 -1.2 -21.95 -1.4 -21.95 -1.7 -21.95 -1.8 -22.2 -1.9 -22.4 -1.9 -22.5 -1.9 -23.25 -1.45 -23.0 L-1.1 -22.75 Q-0.95 -22.6 -0.95 -22.5 M-6.7 -23.7 Q-7.05 -23.7 -7.1 -23.95 -7.1 -24.05 -7.1 -24.2 -7.1 -24.75 -6.7 -24.75 -6.35 -24.75 -6.35 -24.2 -6.35 -23.7 -6.7 -23.7" fill="#ffffff" fill-rule="evenodd" stroke="none"/>
  </g>
</svg>
