<?xml version="1.0" encoding="UTF-8" standalone="no"?>
<svg xmlns:ffdec="https://www.free-decompiler.com/flash" xmlns:xlink="http://www.w3.org/1999/xlink" ffdec:objectType="shape" height="15.8px" width="10.3px" xmlns="http://www.w3.org/2000/svg">
  <g transform="matrix(1.0, 0.0, 0.0, 1.0, 2.85, 10.7)">
    <path d="M4.15 -8.55 L3.2 -8.55 Q1.8 -8.55 1.2 -8.9 0.9 -9.1 0.85 -9.3 0.85 -9.5 0.9 -9.65 1.0 -9.75 1.2 -9.85 1.85 -10.1 3.7 -9.75 4.25 -9.55 4.25 -9.05 4.25 -8.75 4.15 -8.55 M5.9 1.65 Q6.4 1.65 6.4 2.4 6.4 2.8 5.7 3.7 5.05 4.6 4.8 4.6 4.4 4.6 4.3 4.3 4.25 4.2 4.25 4.0 5.0 2.75 5.75 1.8 L5.9 1.65" fill="#3f5923" fill-rule="evenodd" stroke="none"/>
    <path d="M0.9 -9.65 Q1.0 -9.9 1.2 -10.1 1.55 -10.5 2.15 -10.65 3.75 -10.95 6.3 -9.5 L6.3 -9.4 Q6.05 -9.5 5.7 -9.7 5.65 -9.55 5.65 -9.2 5.6 -8.95 5.5 -8.85 5.25 -8.6 4.15 -8.55 4.25 -8.75 4.25 -9.05 4.25 -9.55 3.7 -9.75 1.85 -10.1 1.2 -9.85 1.0 -9.75 0.9 -9.65 M5.45 -3.3 Q5.55 -3.55 5.7 -3.65 5.8 -3.75 5.85 -3.75 6.1 -3.65 6.15 -3.4 6.1 -3.3 5.95 -3.2 5.8 -3.1 5.7 -3.1 5.55 -3.2 5.45 -3.3 M5.9 1.65 Q7.45 -0.25 7.45 1.3 7.45 2.25 6.8 3.45 6.0 5.1 4.8 5.1 4.25 5.1 4.1 4.7 L4.05 4.25 4.25 4.0 Q4.25 4.2 4.3 4.3 4.4 4.6 4.8 4.6 5.05 4.6 5.7 3.7 6.4 2.8 6.4 2.4 6.4 1.65 5.9 1.65 M-2.85 -4.5 Q-2.85 -4.85 -2.6 -5.05 -2.3 -5.3 -1.8 -5.15 L-1.75 -5.0 Q-1.7 -4.95 -1.7 -4.7 -1.7 -4.5 -1.95 -4.25 -2.15 -4.05 -2.35 -4.05 -2.7 -4.05 -2.8 -4.15 L-2.8 -4.25 -2.85 -4.5 M-2.05 -0.45 Q-2.0 -0.35 -2.0 -0.15 -2.0 0.1 -2.05 0.15 L-2.2 0.25 -2.45 0.35 -2.8 0.0 -2.85 -0.1 Q-2.85 -0.85 -2.1 -0.55 L-2.05 -0.45" fill="#608c38" fill-rule="evenodd" stroke="none"/>
  </g>
</svg>
