<?xml version="1.0" encoding="UTF-8" standalone="no"?>
<svg xmlns:ffdec="https://www.free-decompiler.com/flash" xmlns:xlink="http://www.w3.org/1999/xlink" ffdec:objectType="shape" height="2.9px" width="3.05px" xmlns="http://www.w3.org/2000/svg">
  <g transform="matrix(1.0, 0.0, 0.0, 1.0, 1.6, 2.35)">
    <path d="M-0.85 -2.25 L-0.9 -2.25 Q-1.05 -2.25 -1.05 -2.35 -0.9 -2.35 -0.85 -2.3 L-0.85 -2.25 M-0.4 -0.8 Q-0.4 -0.75 -0.5 -0.75 -0.65 -0.75 -0.6 -0.8 L-0.6 -0.85 Q-0.45 -0.9 -0.4 -0.8 M-1.25 0.0 L-1.2 0.1 Q-1.2 0.2 -1.25 0.2 L-1.4 0.25 -1.6 0.2 -1.6 0.0 Q-1.45 -0.05 -1.25 0.0 M-0.55 0.35 L-0.55 0.45 -0.7 0.5 -0.85 0.45 -0.9 0.35 Q-0.9 0.3 -0.8 0.25 L-0.55 0.25 -0.55 0.35 M1.4 0.05 L1.45 0.15 Q1.45 0.25 1.45 0.2 L1.4 0.2 1.3 0.25 1.2 0.2 Q1.15 0.25 1.15 0.15 1.15 0.1 1.25 0.05 L1.35 0.0 1.4 0.05 M0.4 0.35 L0.35 0.45 Q0.25 0.55 0.05 0.55 L-0.1 0.4 Q-0.1 0.25 0.0 0.2 0.15 0.2 0.4 0.35" fill="#007643" fill-rule="evenodd" stroke="none"/>
  </g>
</svg>
