<?xml version="1.0" encoding="UTF-8" standalone="no"?>
<svg xmlns:ffdec="https://www.free-decompiler.com/flash" xmlns:xlink="http://www.w3.org/1999/xlink" ffdec:objectType="shape" height="16.8px" width="6.75px" xmlns="http://www.w3.org/2000/svg">
  <g transform="matrix(1.0, 0.0, 0.0, 1.0, -1.35, 12.45)">
    <path d="M1.9 -11.5 Q1.85 -11.6 1.8 -11.6 1.75 -11.65 1.75 -11.9 L1.75 -12.15 1.8 -12.25 Q2.15 -12.35 2.6 -12.25 2.6 -12.15 2.7 -11.9 L2.55 -11.65 Q2.5 -11.55 2.4 -11.5 L1.9 -11.5" fill="#004728" fill-rule="evenodd" stroke="none"/>
    <path d="M2.4 -11.5 Q2.5 -11.55 2.55 -11.65 L2.7 -11.9 Q2.6 -12.15 2.6 -12.25 2.15 -12.35 1.8 -12.25 L1.75 -12.15 1.75 -11.9 Q1.75 -11.65 1.8 -11.6 1.85 -11.6 1.9 -11.5 L1.7 -11.5 1.45 -11.55 1.4 -11.6 Q1.35 -11.65 1.35 -11.85 1.35 -12.25 1.65 -12.4 L2.2 -12.45 2.55 -12.45 2.85 -12.4 2.9 -12.3 2.95 -12.0 2.9 -11.7 2.85 -11.55 2.4 -11.5 M8.05 3.4 L8.1 3.75 Q8.1 4.15 7.95 4.3 L7.65 4.35 7.3 4.3 7.25 4.25 7.2 4.15 Q7.2 4.1 7.2 3.85 7.2 3.45 7.4 3.25 7.65 3.05 8.05 3.2 L8.05 3.4" fill="#007643" fill-rule="evenodd" stroke="none"/>
  </g>
</svg>
