<?xml version="1.0" encoding="UTF-8" standalone="no"?>
<svg xmlns:ffdec="https://www.free-decompiler.com/flash" xmlns:xlink="http://www.w3.org/1999/xlink" ffdec:objectType="shape" height="9.15px" width="14.45px" xmlns="http://www.w3.org/2000/svg">
  <g transform="matrix(1.0, 0.0, 0.0, 1.0, 8.15, 8.95)">
    <path d="M3.45 -4.7 Q3.55 -5.0 3.8 -5.15 4.15 -5.4 4.65 -5.25 5.2 -5.1 5.6 -4.7 6.1 -4.25 6.3 -3.65 L6.2 -3.2 6.05 -3.1 Q6.0 -3.0 5.9 -3.0 5.8 -3.45 5.5 -3.9 5.1 -4.35 4.55 -4.65 4.05 -4.95 3.65 -4.85 L3.5 -4.8 3.45 -4.7 M0.25 -7.0 L0.25 -7.05 Q0.25 -7.5 -0.5 -7.7 L-2.05 -7.8 Q-3.0 -7.7 -3.65 -7.35 L-3.7 -7.35 -3.7 -7.4 Q-3.7 -7.95 -2.95 -8.4 -2.3 -8.8 -1.35 -8.9 -0.4 -9.05 0.3 -8.8 1.0 -8.6 1.0 -8.0 1.0 -7.35 0.35 -7.05 L0.25 -7.0 M-6.35 -3.45 L-6.65 -3.5 Q-7.25 -3.5 -7.6 -3.15 -8.0 -2.75 -8.0 -1.95 -8.0 -1.5 -7.6 -0.95 -7.1 -0.25 -6.3 -0.25 -6.2 -0.25 -6.05 -0.35 L-6.0 -0.45 -6.05 -0.35 Q-6.15 0.2 -6.75 0.2 -8.15 0.2 -8.15 -1.8 -8.15 -3.4 -7.8 -4.15 -7.5 -4.75 -7.1 -4.55 -6.65 -4.35 -6.35 -3.5 L-6.35 -3.45 M-5.25 -5.5 Q-5.25 -5.75 -5.15 -5.85 L-4.9 -5.95 Q-4.75 -5.85 -4.6 -5.7 -4.5 -5.55 -4.5 -5.35 -4.7 -5.1 -4.9 -5.0 L-5.2 -5.1 Q-5.25 -5.2 -5.25 -5.5" fill="#edff9c" fill-rule="evenodd" stroke="none"/>
    <path d="M5.9 -3.0 L5.75 -3.0 Q5.1 -3.0 4.2 -3.6 3.4 -4.15 3.4 -4.4 L3.45 -4.7 3.5 -4.8 3.65 -4.85 Q4.05 -4.95 4.55 -4.65 5.1 -4.35 5.5 -3.9 5.8 -3.45 5.9 -3.0 M-3.7 -7.35 L-3.65 -7.35 Q-3.0 -7.7 -2.05 -7.8 L-0.5 -7.7 Q0.25 -7.5 0.25 -7.05 L0.25 -7.0 Q-0.75 -6.55 -3.05 -6.55 -3.5 -6.55 -3.65 -6.95 -3.7 -7.1 -3.7 -7.35 M-6.0 -0.45 L-6.05 -0.35 Q-6.2 -0.25 -6.3 -0.25 -7.1 -0.25 -7.6 -0.95 -8.0 -1.5 -8.0 -1.95 -8.0 -2.75 -7.6 -3.15 -7.25 -3.5 -6.65 -3.5 L-6.35 -3.45 Q-6.0 -2.55 -6.0 -1.4 L-6.0 -0.45" fill="#c4d96a" fill-rule="evenodd" stroke="none"/>
  </g>
</svg>
