<?xml version="1.0" encoding="UTF-8" standalone="no"?>
<svg xmlns:ffdec="https://www.free-decompiler.com/flash" xmlns:xlink="http://www.w3.org/1999/xlink" ffdec:objectType="shape" height="10.85px" width="10.25px" xmlns="http://www.w3.org/2000/svg">
  <g transform="matrix(1.0, 0.0, 0.0, 1.0, 2.3, 8.75)">
    <path d="M1.05 -7.65 Q1.35 -7.95 1.8 -8.2 2.8 -8.75 4.2 -8.75 5.6 -8.7 6.55 -8.05 7.6 -7.25 7.6 -5.9 L7.55 -4.95 Q7.5 -4.7 7.3 -4.55 7.3 -4.75 6.25 -5.55 5.15 -6.45 4.0 -7.1 1.8 -8.25 1.05 -7.65 M2.2 -0.55 L3.3 -0.7 Q2.75 -0.55 2.2 -0.55 M6.45 -2.45 L6.55 -2.95 Q7.95 -3.5 7.95 -2.0 7.95 -0.8 6.95 0.45 5.65 2.1 3.35 2.1 2.55 2.1 2.0 1.9 L2.1 1.9 Q3.35 1.9 5.1 0.55 6.8 -0.75 6.8 -1.65 6.8 -2.5 6.5 -2.55 L6.45 -2.45 M6.25 -3.15 Q6.25 -3.35 6.05 -3.55 5.85 -3.75 5.6 -3.8 L5.45 -3.8 5.7 -3.85 Q6.25 -3.8 6.25 -3.15 M7.35 -4.05 L7.35 -4.0 7.4 -3.7 7.4 -3.35 7.35 -3.35 7.25 -3.25 7.0 -3.2 Q6.6 -3.55 6.6 -3.7 6.6 -4.0 6.8 -4.05 6.95 -4.15 7.35 -4.05 M7.8 -1.45 L7.7 -1.7 7.45 -1.65 Q7.3 -1.55 7.15 -1.35 7.3 -1.2 7.5 -1.15 7.75 -1.25 7.8 -1.45 M-0.2 -4.45 L-0.35 -4.5 -0.85 -4.5 Q-1.65 -4.15 -1.65 -3.2 L-1.65 -2.85 Q-1.55 -2.7 -1.4 -2.65 L-1.3 -2.7 -1.8 -2.6 Q-2.2 -2.6 -2.3 -2.9 L-2.3 -3.25 Q-2.3 -3.8 -1.95 -4.35 -1.65 -4.85 -1.25 -5.1 -0.8 -5.3 -0.55 -5.15 -0.25 -5.0 -0.2 -4.45 M-1.15 -1.85 L-1.55 -1.9 Q-1.75 -1.85 -1.75 -1.55 -1.75 -1.3 -1.7 -1.25 L-1.45 -1.2 Q-1.25 -1.25 -1.15 -1.3 -1.05 -1.4 -1.0 -1.6 L-1.05 -1.65 Q-0.9 -1.4 -0.8 -1.05 L-0.9 -0.65 -1.0 -0.6 -1.3 -0.55 Q-1.95 -0.55 -2.2 -0.95 -2.3 -1.2 -2.3 -1.45 -2.3 -2.55 -1.7 -2.25 -1.4 -2.15 -1.15 -1.85" fill="#edff9c" fill-rule="evenodd" stroke="none"/>
    <path d="M7.3 -4.55 Q7.1 -4.45 6.85 -4.45 6.4 -4.45 6.3 -4.55 L6.1 -4.85 Q5.7 -5.25 3.25 -5.25 1.55 -5.25 1.0 -5.95 0.75 -6.25 0.75 -6.75 0.75 -7.25 1.05 -7.65 1.8 -8.25 4.0 -7.1 5.15 -6.45 6.25 -5.55 7.3 -4.75 7.3 -4.55 M3.3 -0.7 L3.7 -0.75 Q4.95 -0.95 5.6 -1.3 L5.8 -1.45 6.1 -1.75 6.45 -2.45 6.5 -2.55 Q6.8 -2.5 6.8 -1.65 6.8 -0.75 5.1 0.55 3.35 1.9 2.1 1.9 L2.0 1.9 Q1.45 1.7 1.2 1.3 1.0 1.0 1.0 0.4 1.0 -0.25 1.85 -0.45 L2.2 -0.55 Q2.75 -0.55 3.3 -0.7 M5.45 -3.8 L5.6 -3.8 Q5.85 -3.75 6.05 -3.55 6.25 -3.35 6.25 -3.15 L6.25 -3.1 Q6.25 -2.95 6.15 -2.8 L6.15 -2.75 6.1 -2.75 Q6.05 -2.6 5.9 -2.55 L5.85 -2.55 5.7 -2.5 Q5.3 -2.5 5.15 -2.85 L5.15 -3.3 Q5.15 -3.5 5.2 -3.6 L5.3 -3.7 5.45 -3.8 M7.8 -1.45 Q7.75 -1.25 7.5 -1.15 7.3 -1.2 7.15 -1.35 7.3 -1.55 7.45 -1.65 L7.7 -1.7 7.8 -1.45 M-0.2 -4.45 L-0.2 -4.3 Q-0.2 -3.75 -0.55 -3.25 L-0.55 -3.2 -1.3 -2.7 -1.4 -2.65 Q-1.55 -2.7 -1.65 -2.85 L-1.65 -3.2 Q-1.65 -4.15 -0.85 -4.5 L-0.35 -4.5 -0.2 -4.45 M-1.05 -1.65 L-1.0 -1.6 Q-1.05 -1.4 -1.15 -1.3 -1.25 -1.25 -1.45 -1.2 L-1.7 -1.25 Q-1.75 -1.3 -1.75 -1.55 -1.75 -1.85 -1.55 -1.9 L-1.15 -1.85 -1.05 -1.7 -1.05 -1.65" fill="#c4d96a" fill-rule="evenodd" stroke="none"/>
  </g>
</svg>
