<?xml version="1.0" encoding="UTF-8" standalone="no"?>
<svg xmlns:ffdec="https://www.free-decompiler.com/flash" xmlns:xlink="http://www.w3.org/1999/xlink" ffdec:objectType="shape" height="2.9px" width="2.55px" xmlns="http://www.w3.org/2000/svg">
  <g transform="matrix(1.0, 0.0, 0.0, 1.0, 1.35, 2.35)">
    <path d="M-0.7 -2.25 L-0.75 -2.25 Q-0.85 -2.25 -0.85 -2.35 -0.7 -2.35 -0.7 -2.3 L-0.7 -2.25 M-0.3 -0.8 Q-0.3 -0.75 -0.45 -0.75 -0.55 -0.75 -0.5 -0.8 L-0.5 -0.85 Q-0.35 -0.9 -0.3 -0.8 M-1.05 0.0 L-1.0 0.0 -1.0 0.2 Q-1.05 0.2 -1.15 0.25 L-1.3 0.2 -1.35 0.1 -1.3 0.0 Q-1.2 -0.05 -1.05 0.0 M-0.45 0.35 L-0.45 0.45 -0.6 0.5 -0.7 0.45 -0.75 0.35 Q-0.75 0.3 -0.65 0.25 L-0.45 0.25 -0.45 0.35 M1.15 0.05 L1.2 0.15 Q1.2 0.25 1.15 0.2 L1.05 0.25 1.0 0.2 Q0.95 0.25 0.95 0.15 0.95 0.1 1.05 0.05 L1.1 0.0 1.15 0.05 M0.35 0.35 L0.3 0.45 Q0.2 0.55 0.05 0.55 L-0.1 0.4 Q-0.1 0.25 0.0 0.2 0.1 0.2 0.35 0.35" fill="#ddf578" fill-rule="evenodd" stroke="none"/>
  </g>
</svg>
