<?xml version="1.0" encoding="UTF-8" standalone="no"?>
<svg xmlns:ffdec="https://www.free-decompiler.com/flash" xmlns:xlink="http://www.w3.org/1999/xlink" ffdec:objectType="shape" height="8.2px" width="7.85px" xmlns="http://www.w3.org/2000/svg">
  <g transform="matrix(1.0, 0.0, 0.0, 1.0, 1.75, 7.45)">
    <path d="M1.25 -1.2 L1.3 -1.2 Q1.45 -1.35 1.7 -1.45 1.6 -1.35 1.25 -1.2" fill="#edff9c" fill-rule="evenodd" stroke="none"/>
    <path d="M2.75 0.65 L2.4 0.65 2.2 0.75 Q1.45 0.75 1.1 0.35 0.95 0.2 0.95 0.0 0.95 -0.85 1.25 -1.2 1.6 -1.35 1.7 -1.45 L2.05 -1.55 Q2.65 -1.7 2.85 -1.9 3.2 -2.25 3.2 -3.05 3.2 -3.35 3.0 -3.6 L2.25 -4.15 Q2.15 -4.2 2.0 -4.3 L1.85 -4.35 Q1.05 -4.65 0.9 -4.75 0.45 -4.95 0.45 -5.25 L0.45 -5.4 0.4 -5.45 0.35 -5.4 Q0.35 -5.45 0.3 -5.6 0.35 -6.5 1.05 -6.75 1.75 -6.95 2.7 -6.5 3.7 -6.05 4.35 -5.2 5.1 -4.25 5.1 -3.15 5.1 -3.0 4.85 -2.35 4.55 -1.65 4.15 -0.95 3.45 0.2 2.75 0.65 M0.25 -3.6 L0.3 -3.45 0.3 -3.3 Q0.3 -2.85 0.05 -2.2 -0.3 -1.25 -0.85 -1.25 L-1.05 -1.3 Q-1.2 -1.4 -1.3 -1.65 -1.4 -1.85 -1.4 -2.1 -1.4 -2.55 -1.1 -2.95 -0.8 -3.4 -0.45 -3.6 -0.05 -3.8 0.25 -3.65 L0.25 -3.6" fill="#ff9900" fill-rule="evenodd" stroke="none"/>
    <path d="M0.3 -5.6 L0.3 -5.65 Q0.3 -6.1 0.55 -6.4 L0.65 -6.5 1.05 -6.8 1.1 -6.8 1.4 -6.9 Q3.4 -8.1 4.75 -6.75 5.35 -6.15 5.7 -5.25 L5.8 -4.95 Q6.1 -4.4 6.1 -3.7 L6.1 -3.3 Q6.0 -2.25 5.55 -1.25 4.65 0.5 2.75 0.65 3.45 0.2 4.15 -0.95 4.55 -1.65 4.85 -2.35 5.1 -3.0 5.1 -3.15 5.1 -4.25 4.35 -5.2 3.7 -6.05 2.7 -6.5 1.75 -6.95 1.05 -6.75 0.35 -6.5 0.3 -5.6 M0.25 -3.6 L0.25 -3.65 Q-0.05 -3.8 -0.45 -3.6 -0.8 -3.4 -1.1 -2.95 -1.4 -2.55 -1.4 -2.1 -1.4 -1.85 -1.3 -1.65 -1.2 -1.4 -1.05 -1.3 -1.4 -1.35 -1.6 -1.8 -1.75 -2.1 -1.75 -2.35 -1.75 -3.0 -1.45 -3.5 -1.15 -3.95 -0.75 -4.15 -0.3 -4.35 -0.05 -4.15 0.2 -4.0 0.25 -3.6" fill="#ffff33" fill-rule="evenodd" stroke="none"/>
  </g>
</svg>
