<?xml version="1.0" encoding="UTF-8" standalone="no"?>
<svg xmlns:ffdec="https://www.free-decompiler.com/flash" xmlns:xlink="http://www.w3.org/1999/xlink" ffdec:objectType="shape" height="13.05px" width="16.85px" xmlns="http://www.w3.org/2000/svg">
  <g transform="matrix(1.0, 0.0, 0.0, 1.0, 4.4, 14.05)">
    <path d="M1.55 -3.75 L1.4 -3.65 Q0.4 -3.05 -0.35 -3.05 L-0.45 -3.05 -0.45 -3.1 -0.55 -3.05 -0.6 -3.05 -0.65 -3.0 Q-1.4 -3.15 -1.75 -3.45 -1.95 -3.65 -2.15 -3.9 -2.3 -3.85 -2.3 -3.7 -2.25 -3.55 -2.25 -3.45 L-2.25 -3.15 -2.3 -2.75 -2.35 -2.75 Q-2.35 -2.7 -2.45 -2.7 -2.6 -2.7 -2.75 -2.9 L-2.95 -3.15 Q-2.95 -3.05 -2.95 -2.95 -3.0 -2.8 -3.1 -2.7 L-3.7 -2.7 Q-3.8 -2.7 -3.9 -2.75 L-4.0 -2.8 -4.25 -2.8 Q-4.3 -2.8 -4.3 -2.9 -4.3 -2.95 -4.2 -3.1 L-4.1 -3.2 -3.95 -3.2 -3.95 -3.25 -3.85 -3.3 -3.65 -3.25 Q-3.7 -3.45 -4.0 -3.9 -4.2 -4.35 -4.15 -4.6 L-4.1 -4.65 -3.75 -4.5 -3.35 -4.3 -3.8 -5.0 Q-4.25 -5.7 -4.25 -5.85 -4.25 -5.95 -4.2 -6.0 L-4.1 -6.05 Q-4.0 -6.1 -3.65 -5.95 -3.3 -5.65 -3.15 -5.6 L-3.0 -5.55 -3.05 -5.8 -3.3 -6.15 Q-4.4 -7.7 -4.4 -9.15 -4.4 -9.3 -4.35 -9.4 -4.35 -9.5 -4.25 -9.6 L-3.9 -9.6 Q-3.45 -9.2 -3.1 -8.5 -2.7 -7.7 -2.5 -7.3 L-2.55 -7.25 -2.8 -7.6 Q-3.05 -7.9 -3.15 -7.9 -2.65 -7.3 -2.45 -6.95 L-2.45 -6.9 -2.8 -7.4 Q-3.05 -7.7 -3.3 -7.8 L-3.4 -7.7 -3.4 -7.6 Q-3.4 -7.3 -3.05 -6.6 -2.7 -5.95 -2.2 -5.2 L-2.05 -5.0 Q-1.55 -4.35 -0.85 -3.65 -0.6 -3.45 -0.35 -3.4 L-0.3 -3.35 Q0.35 -3.7 0.95 -4.4 1.4 -4.95 2.2 -6.15 2.95 -7.1 3.25 -7.85 3.7 -9.0 3.8 -9.1 3.9 -9.2 4.0 -9.2 L4.35 -9.2 Q4.5 -9.2 4.7 -9.55 4.85 -9.85 4.9 -10.05 4.95 -10.25 4.95 -10.5 L5.0 -10.95 Q5.0 -11.05 4.95 -11.05 L4.85 -11.1 4.55 -11.1 4.4 -10.95 Q4.25 -10.8 4.2 -10.8 L4.2 -10.85 4.05 -10.65 Q4.15 -10.85 4.3 -11.2 4.5 -11.5 4.6 -11.7 5.0 -12.25 5.9 -12.45 6.0 -12.25 6.0 -11.9 6.0 -11.0 4.75 -8.5 4.5 -7.95 3.45 -5.95 L3.85 -6.25 4.45 -6.6 5.0 -7.0 Q5.1 -7.1 5.7 -7.7 L5.75 -7.7 6.3 -8.35 6.45 -8.35 Q6.5 -8.25 6.5 -8.15 6.55 -8.1 6.55 -8.0 6.6 -7.95 6.6 -7.9 L6.7 -7.8 Q7.25 -7.8 7.85 -8.85 8.3 -9.6 8.4 -10.05 8.5 -10.25 8.55 -10.4 L8.6 -10.5 8.7 -10.6 Q8.85 -10.75 8.9 -11.0 9.1 -11.65 9.15 -12.1 L9.15 -12.25 Q9.1 -12.3 9.05 -12.3 L8.9 -12.25 8.8 -12.2 8.55 -12.05 8.3 -12.05 8.25 -12.0 8.25 -12.1 Q8.25 -12.15 8.3 -12.3 8.6 -12.85 9.0 -13.25 L9.2 -13.45 9.4 -13.6 9.45 -13.65 9.7 -13.85 Q10.05 -14.1 10.4 -14.05 10.55 -13.9 10.6 -13.8 10.65 -13.7 10.65 -13.5 10.65 -13.05 9.7 -11.05 L9.3 -10.25 9.4 -10.3 9.4 -10.35 Q9.65 -10.7 9.95 -10.9 L10.1 -10.9 Q10.15 -10.9 10.2 -10.8 L10.2 -10.75 Q10.4 -10.9 10.65 -11.1 L10.8 -11.25 10.95 -11.45 Q11.35 -12.1 11.75 -12.1 L12.3 -12.1 12.45 -11.95 12.45 -11.55 Q12.4 -11.25 12.35 -11.1 L12.0 -10.7 12.0 -10.65 Q11.6 -9.9 11.45 -9.75 L11.4 -9.8 11.65 -10.2 11.6 -10.2 11.55 -10.05 11.6 -10.35 11.65 -10.55 11.65 -10.8 11.7 -10.85 Q11.4 -10.95 10.9 -10.15 10.4 -9.4 10.4 -9.2 10.4 -9.1 10.5 -9.0 L10.55 -8.85 Q10.55 -8.7 10.2 -8.05 L9.95 -7.6 9.95 -7.5 10.05 -7.4 Q10.35 -7.45 10.75 -7.8 11.1 -8.15 11.6 -8.1 L11.6 -7.95 11.65 -7.75 Q11.65 -7.5 11.6 -7.35 L11.3 -6.75 11.25 -6.75 11.25 -6.9 11.2 -6.8 Q11.15 -6.85 11.15 -6.9 11.15 -7.0 11.05 -7.1 10.5 -7.05 9.8 -6.3 L9.0 -5.35 8.25 -4.4 Q7.7 -3.7 7.45 -3.45 L7.6 -3.45 7.65 -3.4 7.65 -3.3 Q7.65 -2.9 7.3 -2.6 6.95 -2.3 6.0 -1.9 5.8 -1.8 5.2 -1.65 L4.45 -1.4 Q4.3 -1.3 3.45 -1.15 L2.35 -1.0 Q2.25 -1.05 2.2 -1.15 L2.1 -1.15 2.0 -1.25 Q2.1 -1.4 3.1 -1.65 L4.3 -2.0 Q4.55 -2.1 5.0 -2.45 5.5 -2.75 5.8 -3.0 L5.85 -3.1 5.55 -3.0 5.25 -2.85 5.15 -2.85 Q5.1 -2.9 5.1 -3.0 5.1 -3.05 5.55 -3.55 L5.9 -4.0 5.9 -4.1 Q5.9 -4.25 5.9 -4.3 L6.0 -4.4 6.0 -4.45 5.9 -4.45 5.55 -4.35 Q5.15 -4.2 5.05 -4.05 L4.75 -4.05 Q4.75 -4.15 4.75 -4.25 L4.8 -4.5 Q4.4 -4.45 3.8 -4.05 3.35 -3.8 3.2 -3.6 L3.2 -3.55 3.15 -3.45 3.05 -3.5 2.15 -3.5 2.15 -3.65 Q2.15 -3.8 2.2 -3.9 L2.45 -4.25 2.45 -4.3 Q2.95 -4.85 2.95 -5.1 2.95 -5.25 2.95 -5.3 L2.85 -5.35 Q2.5 -5.45 2.0 -4.7 1.55 -4.1 1.55 -3.75 M9.35 -12.15 L9.4 -12.25 9.35 -12.25 9.3 -12.35 9.25 -12.35 9.25 -12.3 Q9.35 -12.2 9.35 -12.15 M5.05 -5.55 L5.15 -5.65 5.2 -5.5 5.25 -5.2 Q5.25 -5.15 5.4 -5.1 L5.55 -5.05 5.6 -4.9 Q5.65 -4.75 5.8 -4.75 6.25 -4.75 6.85 -5.55 L7.55 -6.45 7.55 -6.3 7.15 -5.5 Q6.8 -4.8 6.8 -4.7 6.8 -4.5 6.85 -4.5 L6.85 -4.55 7.1 -4.45 7.2 -4.45 6.9 -4.0 Q6.75 -3.75 6.65 -3.65 L6.25 -3.3 Q6.0 -3.15 6.0 -2.95 6.0 -2.8 6.05 -2.75 L6.15 -2.7 6.3 -2.65 Q6.45 -2.7 6.5 -2.7 6.6 -2.85 7.2 -3.95 7.85 -5.05 7.85 -5.15 L7.85 -5.35 7.6 -5.35 Q7.55 -5.25 7.35 -5.1 L7.1 -4.85 7.1 -4.8 Q7.1 -4.75 7.1 -4.95 7.1 -5.15 7.75 -6.2 8.45 -7.2 8.45 -7.65 8.45 -7.8 8.4 -7.9 L8.25 -8.1 7.9 -8.1 Q7.2 -7.55 7.0 -7.35 6.45 -6.85 6.2 -6.3 L6.15 -6.5 Q6.1 -6.7 6.0 -6.8 L5.65 -6.8 Q5.55 -6.65 5.4 -6.5 5.25 -7.15 4.25 -5.95 3.85 -5.45 3.4 -4.75 3.05 -4.2 3.0 -4.1 L3.15 -3.95 4.25 -4.85 5.05 -5.55 M5.5 -10.8 Q5.55 -10.85 5.55 -11.2 5.55 -11.55 5.5 -11.6 5.45 -11.75 5.1 -11.5 5.1 -11.0 5.1 -10.7 5.1 -10.55 5.15 -10.55 L5.25 -10.55 Q5.45 -10.6 5.5 -10.8 M-0.55 -3.3 L-0.5 -3.25 -0.4 -3.3 -0.65 -3.45 -0.55 -3.3" fill="#523e59" fill-rule="evenodd" stroke="none"/>
    <path d="M2.45 -4.25 L2.45 -4.35 1.6 -3.75 1.55 -3.75 Q1.55 -4.1 2.0 -4.7 2.5 -5.45 2.85 -5.35 L2.95 -5.3 Q2.95 -5.25 2.95 -5.1 2.95 -4.85 2.45 -4.3 L2.45 -4.25 M5.5 -10.8 Q5.45 -10.6 5.25 -10.55 L5.15 -10.55 Q5.1 -10.55 5.1 -10.7 5.1 -11.0 5.1 -11.5 5.45 -11.75 5.5 -11.6 5.55 -11.55 5.55 -11.2 5.55 -10.85 5.5 -10.8 M5.05 -5.55 L4.25 -4.85 3.15 -3.95 3.0 -4.1 Q3.05 -4.2 3.4 -4.75 3.85 -5.45 4.25 -5.95 5.25 -7.15 5.4 -6.5 5.55 -6.65 5.65 -6.8 L6.0 -6.8 Q6.1 -6.7 6.15 -6.5 L6.2 -6.3 Q6.45 -6.85 7.0 -7.35 7.2 -7.55 7.9 -8.1 L8.25 -8.1 8.4 -7.9 Q8.45 -7.8 8.45 -7.65 8.45 -7.2 7.75 -6.2 7.1 -5.15 7.1 -4.95 7.1 -4.75 7.1 -4.8 L7.1 -4.85 7.35 -5.1 Q7.55 -5.25 7.6 -5.35 L7.85 -5.35 7.85 -5.15 Q7.85 -5.05 7.2 -3.95 6.6 -2.85 6.5 -2.7 6.45 -2.7 6.3 -2.65 L6.15 -2.7 6.05 -2.75 Q6.0 -2.8 6.0 -2.95 6.0 -3.15 6.25 -3.3 L6.65 -3.65 Q6.75 -3.75 6.9 -4.0 L7.2 -4.45 7.1 -4.45 6.85 -4.55 6.85 -4.5 Q6.8 -4.5 6.8 -4.7 6.8 -4.8 7.15 -5.5 L7.55 -6.3 7.55 -6.45 6.85 -5.55 Q6.25 -4.75 5.8 -4.75 5.65 -4.75 5.6 -4.9 L5.55 -5.05 5.4 -5.1 Q5.25 -5.15 5.25 -5.2 L5.2 -5.5 5.15 -5.65 5.05 -5.55" fill="#ba5fbf" fill-rule="evenodd" stroke="none"/>
  </g>
</svg>
