<?xml version="1.0" encoding="UTF-8" standalone="no"?>
<svg xmlns:ffdec="https://www.free-decompiler.com/flash" xmlns:xlink="http://www.w3.org/1999/xlink" ffdec:objectType="shape" height="21.05px" width="13.05px" xmlns="http://www.w3.org/2000/svg">
  <g transform="matrix(1.0, 0.0, 0.0, 1.0, 9.45, 21.05)">
    <path d="M-7.55 -7.65 L-7.6 -7.55 -7.6 -7.5 -7.65 -7.5 Q-7.65 -7.6 -7.65 -7.7 L-7.6 -7.7 Q-7.55 -7.8 -7.55 -7.65" fill="#ffffff" fill-rule="evenodd" stroke="none"/>
    <path d="M-8.0 -4.75 Q-8.05 -5.35 -8.05 -5.8 L-8.05 -6.35 Q-8.0 -6.35 -7.95 -6.3 -8.0 -5.85 -8.0 -5.5 -8.0 -5.2 -8.0 -4.85 L-8.0 -4.75 M-6.95 -7.55 L-7.0 -7.45 -7.05 -7.55 -6.95 -7.55 M-7.2 -8.0 L-7.4 -8.45 -7.35 -9.05 -7.35 -9.0 Q-7.35 -8.7 -7.25 -8.25 L-7.2 -8.0 M-7.5 -12.65 L-7.4 -12.9 -7.45 -12.65 -7.5 -12.65 M-4.95 -16.6 L-5.0 -16.6 -4.95 -16.65 -4.95 -16.6 M0.45 -18.95 Q0.4 -18.95 0.4 -19.0 L0.5 -19.05 0.5 -19.0 0.45 -18.95 M-2.1 -17.15 L-2.1 -17.15 M-0.7 -17.95 L-0.8 -17.85 -0.7 -18.0 -0.7 -17.95 M-7.45 -11.25 L-7.4 -11.2 -7.4 -11.15 -7.45 -11.2 -7.45 -11.25 M-3.35 -4.95 L-3.45 -5.1 -3.45 -5.2 Q-3.6 -5.9 -3.7 -6.45 -3.75 -6.9 -3.8 -7.3 L-3.65 -6.55 Q-3.5 -5.45 -3.4 -5.0 L-3.35 -4.95" fill="#d08ae6" fill-rule="evenodd" stroke="none"/>
    <path d="M-6.85 -14.1 L-6.95 -13.95 -7.0 -13.95 -7.0 -14.1 Q-7.0 -14.25 -7.1 -14.25 -7.3 -14.25 -7.55 -13.75 -7.75 -13.4 -7.8 -13.2 L-7.85 -13.2 -7.85 -13.35 Q-7.85 -13.45 -7.8 -13.65 L-7.8 -13.7 -7.75 -13.75 -7.75 -13.8 Q-7.65 -14.05 -7.2 -15.1 -7.05 -15.7 -6.55 -16.65 -6.0 -17.7 -5.8 -17.7 -5.65 -17.7 -5.6 -17.45 L-5.55 -17.15 Q-5.35 -17.35 -5.1 -17.95 -4.85 -18.55 -4.65 -18.7 L-4.5 -18.7 Q-4.35 -18.55 -4.4 -18.2 -4.45 -17.85 -4.45 -17.7 L-4.45 -17.25 -4.4 -16.9 Q-3.6 -18.9 -2.5 -20.35 L-2.3 -20.35 Q-2.2 -20.25 -2.15 -20.1 -2.1 -19.95 -2.1 -19.8 -1.85 -19.85 -1.65 -20.15 -1.45 -20.45 -1.25 -20.5 L-1.1 -20.5 Q-1.05 -20.45 -1.0 -20.25 L-0.95 -20.0 Q-0.95 -19.9 -1.15 -19.25 L-1.35 -18.55 -1.35 -18.15 -0.75 -19.05 Q-0.55 -19.4 0.2 -20.2 0.9 -21.0 1.05 -21.0 1.5 -21.0 1.3 -20.4 L1.3 -20.35 Q1.5 -20.45 2.15 -20.95 2.75 -21.3 2.75 -20.75 2.75 -20.5 2.45 -20.2 2.05 -19.8 1.95 -19.65 1.8 -19.45 1.65 -19.1 L1.4 -18.55 Q2.05 -18.8 2.65 -18.85 3.4 -18.9 3.45 -18.6 L3.55 -18.6 3.6 -18.55 Q3.55 -18.45 3.0 -18.15 2.35 -17.8 2.15 -17.6 1.9 -17.4 1.45 -17.05 L0.75 -16.45 Q0.2 -16.0 -0.35 -15.25 L-1.15 -14.05 Q-1.8 -13.1 -2.15 -11.5 -2.35 -10.35 -2.35 -9.25 -2.35 -8.3 -2.15 -7.3 -2.05 -6.8 -1.75 -5.85 L-1.55 -6.55 -1.4 -6.95 Q-1.25 -7.2 -1.1 -7.4 -0.85 -7.65 -0.7 -7.75 -0.4 -7.95 -0.4 -7.6 -0.4 -7.55 -0.5 -7.3 L-0.7 -6.85 Q-0.95 -6.1 -0.95 -5.4 -0.95 -4.4 -0.6 -3.5 -0.15 -2.4 0.65 -1.7 L0.9 -1.7 Q1.15 -1.8 1.1 -2.1 L1.1 -2.35 Q1.05 -2.5 1.1 -2.6 1.1 -2.75 1.1 -3.05 1.1 -3.4 1.1 -3.55 L1.15 -3.6 Q1.2 -3.6 1.3 -3.6 1.45 -3.6 1.65 -2.95 L1.9 -1.95 Q2.0 -1.55 2.35 -1.05 L2.7 -0.6 2.8 -0.55 Q3.05 -0.45 3.15 -0.3 3.15 -0.2 3.1 -0.2 3.05 -0.15 2.9 -0.15 L2.8 -0.15 2.75 -0.25 Q2.5 -0.6 2.3 -0.75 L1.95 -1.25 Q1.65 -1.75 1.5 -1.75 1.4 -1.75 1.35 -1.7 L1.3 -1.65 Q1.3 -1.4 1.3 -1.0 L1.1 -1.0 Q0.05 -1.25 -0.45 -1.85 -0.8 -2.3 -0.95 -3.05 L-1.2 -4.65 Q-1.4 -5.65 -1.65 -5.65 L-1.8 -5.6 -1.85 -5.6 Q-1.85 -5.25 -1.9 -4.7 L-1.95 -4.15 -2.05 -4.1 Q-2.5 -5.0 -2.85 -6.9 -3.2 -8.75 -3.2 -10.15 -3.2 -10.65 -2.4 -12.8 L-2.2 -13.35 -2.15 -13.45 Q-1.7 -14.1 -1.25 -14.7 -0.85 -15.15 -0.15 -16.1 0.55 -17.15 0.55 -17.25 L0.55 -17.4 0.2 -17.4 Q0.25 -17.6 0.65 -18.45 0.95 -19.2 0.95 -19.3 L0.95 -19.45 0.9 -19.45 0.7 -19.5 Q0.0 -19.35 -0.75 -18.55 L-1.3 -17.95 Q-1.6 -17.65 -1.8 -17.5 -1.8 -17.6 -1.8 -17.9 L-1.8 -18.3 -1.75 -18.75 Q-1.7 -19.1 -1.95 -19.1 -2.05 -19.1 -2.2 -18.9 -2.35 -18.75 -2.45 -18.75 -2.5 -18.75 -2.55 -18.85 -2.6 -18.95 -2.7 -18.95 -3.0 -18.95 -3.85 -17.55 L-4.45 -16.5 Q-4.75 -15.95 -4.9 -15.85 -4.9 -15.95 -4.8 -16.25 -4.75 -16.55 -4.75 -16.65 -4.75 -16.75 -4.75 -16.85 -4.85 -17.05 -5.0 -17.05 -5.15 -17.05 -5.5 -16.45 -5.85 -15.85 -6.0 -15.75 -6.4 -15.55 -6.65 -15.1 -6.95 -14.6 -6.95 -14.25 L-6.95 -14.1 -6.85 -14.1 M-8.6 -0.5 L-9.4 -0.5 Q-9.45 -0.55 -9.45 -0.7 -9.4 -0.75 -9.2 -0.75 -9.25 -1.0 -9.3 -1.3 -9.35 -1.55 -9.35 -1.85 L-9.35 -2.05 Q-9.3 -2.2 -9.3 -2.3 L-9.25 -2.35 -8.95 -1.7 Q-8.7 -1.1 -8.6 -1.1 L-8.5 -1.1 -8.45 -1.45 Q-8.45 -1.8 -8.55 -2.4 -8.65 -2.95 -8.65 -3.35 -8.65 -3.7 -8.65 -3.8 -8.6 -4.1 -8.5 -4.25 -8.35 -4.25 -8.3 -4.05 L-8.3 -3.75 Q-8.25 -3.5 -8.2 -3.25 -8.1 -3.05 -8.0 -2.75 -7.9 -2.45 -7.75 -2.25 -7.7 -2.3 -7.7 -2.4 L-7.7 -2.45 -7.65 -1.95 -7.75 -2.15 Q-7.85 -2.25 -7.95 -2.25 L-8.1 -2.2 -8.15 -2.2 -8.2 -1.75 Q-8.2 -1.55 -8.2 -1.45 -8.25 -1.35 -8.45 -1.05 -8.6 -0.75 -8.6 -0.7 -8.6 -0.6 -8.6 -0.55 L-8.6 -0.5 M-7.8 -8.65 L-7.95 -9.7 Q-8.1 -9.6 -8.2 -9.15 -8.3 -8.8 -8.3 -8.55 -8.45 -8.8 -8.45 -9.0 L-8.45 -9.5 Q-8.45 -11.65 -8.05 -12.55 L-8.05 -12.65 -7.9 -12.8 -7.9 -12.6 Q-7.9 -12.55 -7.9 -12.45 L-7.9 -11.95 Q-7.9 -11.8 -7.9 -11.7 L-7.85 -11.7 Q-7.75 -11.85 -7.6 -12.35 L-7.5 -12.65 Q-7.7 -11.55 -7.75 -11.0 L-7.8 -10.9 Q-7.9 -10.7 -7.9 -10.3 -7.9 -10.1 -7.8 -9.85 L-7.8 -8.65" fill="#523e59" fill-rule="evenodd" stroke="none"/>
    <path d="M2.8 -0.15 L2.4 -0.1 1.95 -0.1 1.35 -0.05 -0.15 0.0 -0.6 0.0 Q-1.15 0.0 -1.5 -0.1 L-2.0 -0.35 -4.75 -0.35 Q-4.85 -0.35 -5.25 -0.35 L-5.6 -0.35 -6.9 -0.4 -7.15 -0.4 -8.6 -0.5 -8.6 -0.55 Q-8.6 -0.6 -8.6 -0.7 -8.6 -0.75 -8.45 -1.05 -8.25 -1.35 -8.2 -1.45 -8.2 -1.55 -8.2 -1.75 L-8.15 -2.2 -8.1 -2.2 -7.95 -2.25 Q-7.85 -2.25 -7.75 -2.15 L-7.65 -1.95 -7.7 -2.45 -7.7 -2.65 Q-7.7 -2.9 -7.75 -3.35 L-7.95 -4.55 -7.95 -4.6 -8.0 -4.75 -8.0 -4.85 Q-8.0 -5.2 -8.0 -5.5 -8.0 -5.85 -7.95 -6.3 L-7.95 -6.25 -7.85 -6.0 -7.85 -5.95 -7.75 -5.4 Q-7.65 -5.2 -7.55 -4.85 L-7.3 -4.25 -7.25 -4.25 -7.25 -5.15 -7.3 -5.35 Q-7.4 -5.7 -7.4 -5.85 -7.4 -5.95 -7.35 -5.95 L-7.3 -6.0 Q-7.25 -6.0 -7.15 -5.75 -7.1 -5.5 -7.1 -5.45 L-7.1 -5.2 -6.7 -4.2 Q-6.2 -2.9 -6.05 -2.9 L-5.95 -2.9 -5.9 -2.95 -5.9 -3.35 Q-5.9 -3.4 -5.95 -3.9 L-6.05 -4.4 -6.0 -4.55 Q-5.95 -4.55 -5.85 -4.5 L-5.5 -3.55 Q-5.15 -2.75 -4.95 -2.75 -4.85 -2.75 -4.8 -2.85 -4.75 -2.95 -4.75 -3.05 L-4.95 -4.1 -5.2 -5.35 -5.4 -6.8 Q-5.55 -7.7 -5.7 -7.7 L-5.8 -7.7 -5.85 -7.65 -5.85 -7.0 Q-5.9 -7.4 -6.15 -8.55 L-6.3 -9.55 -6.35 -10.15 -6.35 -10.2 -6.4 -10.1 -6.45 -10.1 Q-6.65 -10.1 -6.7 -9.8 L-6.7 -9.15 Q-6.75 -8.85 -6.75 -8.75 -6.8 -8.25 -6.85 -7.8 -6.9 -7.65 -6.95 -7.55 L-7.05 -7.55 -7.2 -7.95 -7.2 -8.0 -7.25 -8.25 Q-7.35 -8.7 -7.35 -9.0 L-7.35 -9.05 -7.4 -8.45 -7.4 -8.5 Q-7.45 -8.65 -7.5 -9.25 -7.55 -9.4 -7.65 -9.55 L-7.6 -9.45 Q-7.6 -9.15 -7.6 -9.05 L-7.6 -8.55 -7.65 -7.85 -7.7 -7.85 -7.8 -8.65 -7.8 -9.85 Q-7.9 -10.1 -7.9 -10.3 -7.9 -10.7 -7.8 -10.9 L-7.75 -11.0 Q-7.7 -11.55 -7.5 -12.65 L-7.45 -12.65 -7.4 -12.9 -7.3 -13.15 -7.3 -12.9 Q-7.3 -12.85 -7.15 -12.85 -7.05 -12.85 -6.6 -13.75 -6.15 -14.65 -6.15 -14.75 L-6.15 -14.9 -6.35 -14.85 -6.3 -14.95 -6.35 -15.0 -6.4 -14.85 Q-6.45 -14.8 -6.55 -14.7 L-6.65 -14.5 -6.7 -14.45 -6.7 -14.4 -6.85 -14.1 -6.95 -14.1 -6.95 -14.25 Q-6.95 -14.6 -6.65 -15.1 -6.4 -15.55 -6.0 -15.75 -5.85 -15.85 -5.5 -16.45 -5.15 -17.05 -5.0 -17.05 -4.85 -17.05 -4.75 -16.85 -4.75 -16.75 -4.75 -16.65 -4.75 -16.55 -4.8 -16.25 -4.9 -15.95 -4.9 -15.85 -4.75 -15.95 -4.45 -16.5 L-3.85 -17.55 Q-3.0 -18.95 -2.7 -18.95 -2.6 -18.95 -2.55 -18.85 -2.5 -18.75 -2.45 -18.75 -2.35 -18.75 -2.2 -18.9 -2.05 -19.1 -1.95 -19.1 -1.7 -19.1 -1.75 -18.75 L-1.8 -18.3 -1.8 -17.9 Q-1.8 -17.6 -1.8 -17.5 -1.6 -17.65 -1.3 -17.95 L-0.75 -18.55 Q0.0 -19.35 0.7 -19.5 L0.9 -19.45 0.95 -19.45 0.95 -19.3 Q0.95 -19.2 0.65 -18.45 0.25 -17.6 0.2 -17.4 L0.55 -17.4 0.55 -17.25 Q0.55 -17.15 -0.15 -16.1 -0.85 -15.15 -1.25 -14.7 -1.7 -14.1 -2.15 -13.45 L-2.2 -13.35 -2.4 -12.8 Q-3.2 -10.65 -3.2 -10.15 -3.2 -8.75 -2.85 -6.9 -2.5 -5.0 -2.05 -4.1 L-1.95 -4.15 -1.9 -4.7 Q-1.85 -5.25 -1.85 -5.6 L-1.8 -5.6 -1.65 -5.65 Q-1.4 -5.65 -1.2 -4.65 L-0.95 -3.05 Q-0.8 -2.3 -0.45 -1.85 0.05 -1.25 1.1 -1.0 L1.3 -1.0 Q1.3 -1.4 1.3 -1.65 L1.35 -1.7 Q1.4 -1.75 1.5 -1.75 1.65 -1.75 1.95 -1.25 L2.3 -0.75 Q2.5 -0.6 2.75 -0.25 L2.8 -0.15 M0.45 -18.95 L0.5 -19.0 0.5 -19.05 0.4 -19.0 Q0.4 -18.95 0.45 -18.95 M-4.95 -16.6 L-4.95 -16.65 -5.0 -16.6 -4.95 -16.6 M-4.85 -15.0 Q-4.95 -15.0 -5.15 -14.75 L-5.15 -14.65 -5.2 -14.6 -5.35 -14.25 -5.4 -14.15 Q-5.5 -13.85 -5.5 -13.7 L-5.45 -13.7 -5.5 -13.65 -5.5 -13.55 -5.35 -13.5 Q-5.2 -13.5 -5.1 -13.65 L-5.1 -13.45 Q-5.3 -12.95 -5.45 -12.5 -5.55 -11.95 -5.55 -11.5 -5.6 -11.25 -5.6 -11.1 -5.6 -11.05 -5.6 -11.0 L-5.55 -11.05 -5.55 -10.85 -5.5 -10.85 -5.45 -11.1 -5.35 -11.35 -5.35 -11.0 Q-5.3 -11.1 -5.3 -11.2 L-5.25 -11.4 -5.25 -11.55 -5.15 -11.85 -4.7 -13.1 -4.25 -14.25 Q-4.05 -14.65 -3.9 -14.95 L-3.45 -15.65 Q-3.5 -15.7 -3.55 -15.75 L-3.6 -15.75 -3.55 -15.8 Q-3.8 -15.7 -4.15 -15.2 -4.5 -14.8 -4.65 -14.8 -4.75 -14.8 -4.75 -14.85 -4.75 -15.0 -4.85 -15.0 M-0.7 -17.95 L-0.7 -18.0 -0.8 -17.85 -0.7 -17.95 M-2.1 -17.15 L-2.1 -17.15 M-7.45 -11.25 L-7.45 -11.2 -7.4 -11.15 -7.4 -11.2 -7.45 -11.25 M-7.9 -7.05 Q-7.9 -6.95 -7.95 -6.9 L-8.0 -6.75 Q-8.15 -6.95 -8.2 -7.1 -8.2 -7.15 -8.2 -7.45 -8.2 -7.65 -8.1 -7.75 -8.05 -7.7 -7.95 -7.4 -7.9 -7.15 -7.9 -7.05 M-7.55 -7.1 Q-7.45 -6.65 -7.4 -6.45 L-7.45 -6.45 Q-7.5 -6.5 -7.5 -6.7 -7.55 -6.9 -7.6 -7.0 L-7.6 -7.1 -7.55 -7.1 M-6.75 -6.75 Q-6.6 -6.55 -6.5 -6.35 -6.45 -6.2 -6.4 -5.9 L-6.45 -5.8 -6.5 -5.8 -6.45 -5.75 -6.5 -5.7 -6.55 -5.7 -6.6 -5.8 Q-6.65 -5.85 -6.75 -6.2 -6.8 -6.4 -6.85 -6.6 -6.85 -6.7 -6.8 -6.7 L-6.75 -6.75 M-6.4 -5.35 L-6.45 -5.4 -6.4 -5.45 Q-6.35 -5.4 -6.3 -5.35 L-6.35 -5.35 Q-6.3 -5.3 -6.25 -5.2 -6.3 -5.15 -6.35 -5.1 -6.35 -5.2 -6.4 -5.35 M-3.35 -4.95 L-3.4 -5.0 Q-3.5 -5.45 -3.65 -6.55 L-3.8 -7.3 Q-3.75 -6.9 -3.7 -6.45 -3.6 -5.9 -3.45 -5.2 L-3.45 -5.1 -3.35 -4.95" fill="#ba5fbf" fill-rule="evenodd" stroke="none"/>
  </g>
</svg>
