<?xml version="1.0" encoding="UTF-8" standalone="no"?>
<svg xmlns:ffdec="https://www.free-decompiler.com/flash" xmlns:xlink="http://www.w3.org/1999/xlink" ffdec:objectType="shape" height="13.4px" width="9.9px" xmlns="http://www.w3.org/2000/svg">
  <g transform="matrix(1.0, 0.0, 0.0, 1.0, 13.95, 19.25)">
    <path d="M-9.5 -17.5 Q-9.2 -17.5 -9.05 -17.4 L-9.5 -17.3 -10.2 -17.4 -11.35 -17.5 -11.35 -17.6 -11.4 -17.7 -10.7 -17.6 Q-10.2 -17.5 -9.5 -17.5 M-7.1 -17.35 L-7.15 -17.25 -7.5 -17.2 -7.8 -17.25 -7.85 -17.3 -7.75 -17.45 -7.15 -17.45 -7.1 -17.35 M-4.2 -17.45 L-4.05 -17.4 -4.55 -17.4 -4.5 -17.45 -4.2 -17.45 M-13.45 -18.7 Q-13.45 -18.45 -12.8 -18.15 L-11.95 -17.8 -12.0 -17.8 -12.15 -17.75 Q-12.8 -17.75 -13.45 -18.15 -13.95 -18.45 -13.95 -18.6 -13.95 -18.95 -13.65 -19.05 L-13.0 -19.25 -13.35 -18.95 Q-13.45 -18.85 -13.45 -18.7 M-12.0 -7.15 Q-11.5 -6.65 -11.15 -6.45 -11.6 -6.5 -12.1 -6.9 -12.65 -7.3 -12.7 -7.6 -12.45 -7.5 -12.0 -7.15 M-9.45 -5.9 L-9.55 -5.85 -9.95 -5.85 -9.95 -5.95 -10.0 -6.0 -9.85 -6.0 -9.5 -5.95 -9.45 -5.9" fill="#ffb74c" fill-rule="evenodd" stroke="none"/>
  </g>
</svg>
