<?xml version="1.0" encoding="UTF-8" standalone="no"?>
<svg xmlns:ffdec="https://www.free-decompiler.com/flash" xmlns:xlink="http://www.w3.org/1999/xlink" ffdec:objectType="shape" height="18.95px" width="10.9px" xmlns="http://www.w3.org/2000/svg">
  <g transform="matrix(1.0, 0.0, 0.0, 1.0, 22.7, 19.35)">
    <path d="M-13.6 -19.15 Q-13.6 -19.1 -14.2 -18.5 -14.85 -17.9 -14.85 -17.5 -14.85 -17.3 -14.45 -16.65 -14.1 -16.0 -14.1 -15.8 -14.1 -15.35 -14.2 -14.75 -14.3 -14.15 -14.3 -13.9 -14.3 -12.55 -13.95 -11.45 -13.7 -10.8 -13.05 -9.8 -12.4 -8.8 -12.2 -8.25 -11.8 -7.3 -11.8 -6.15 -11.8 -5.95 -11.85 -5.55 -12.1 -5.0 -12.6 -3.95 -13.25 -2.6 -13.25 -1.85 -13.25 -1.2 -12.3 -0.4 L-12.85 -0.4 -14.5 -0.85 Q-14.8 -1.0 -15.0 -1.15 -14.05 -1.55 -13.45 -2.4 -12.65 -3.5 -12.65 -4.5 -12.55 -4.95 -12.55 -5.4 -12.55 -5.5 -12.6 -5.95 L-12.7 -6.75 -12.9 -7.1 Q-12.95 -7.4 -13.1 -7.7 -13.3 -8.25 -13.9 -9.1 -14.55 -9.95 -14.75 -10.45 -15.1 -11.3 -15.1 -12.3 -15.1 -12.85 -14.95 -14.0 -14.8 -15.1 -14.8 -15.4 -14.8 -15.7 -15.15 -16.25 -15.5 -16.8 -15.5 -17.25 -15.5 -17.6 -15.35 -17.9 L-14.95 -18.65 -15.05 -18.7 -15.4 -18.55 Q-15.65 -18.4 -15.95 -18.4 -16.1 -18.4 -16.05 -18.45 L-15.0 -19.0 Q-14.45 -19.25 -13.65 -19.35 -13.6 -19.3 -13.6 -19.15 M-19.3 -8.85 Q-19.3 -8.8 -19.4 -8.8 -19.5 -8.8 -19.9 -9.0 -20.25 -9.2 -20.35 -9.3 L-20.35 -9.35 Q-20.05 -9.3 -19.7 -9.15 -19.4 -9.0 -19.35 -8.9 L-19.3 -8.85 M-20.0 -4.1 L-20.0 -4.0 -20.1 -4.0 -20.9 -4.05 -21.1 -4.25 -20.85 -4.3 -20.2 -4.25 -20.0 -4.1 M-22.7 -0.65 L-22.35 -0.6 -22.35 -0.55 -22.45 -0.55 Q-22.65 -0.55 -22.7 -0.6 L-22.7 -0.65 M-12.4 -2.0 L-12.35 -1.7 Q-12.4 -1.85 -12.4 -2.0" fill="#ffffff" fill-opacity="0.7372549" fill-rule="evenodd" stroke="none"/>
  </g>
</svg>
