<?xml version="1.0" encoding="UTF-8" standalone="no"?>
<svg xmlns:ffdec="https://www.free-decompiler.com/flash" xmlns:xlink="http://www.w3.org/1999/xlink" ffdec:objectType="shape" height="14.85px" width="0.75px" xmlns="http://www.w3.org/2000/svg">
  <g transform="matrix(1.0, 0.0, 0.0, 1.0, 21.0, 16.95)">
    <path d="M-20.45 -16.85 Q-20.45 -16.75 -20.5 -16.7 L-20.55 -16.55 -20.6 -16.6 -20.6 -16.7 Q-20.6 -16.85 -20.55 -16.9 L-20.5 -16.9 Q-20.45 -17.0 -20.45 -16.85 M-20.85 -11.2 L-20.85 -11.15 -20.9 -11.15 Q-20.95 -11.25 -21.0 -11.35 L-21.0 -11.8 Q-20.95 -12.0 -20.85 -12.05 L-20.85 -11.2 M-20.25 -2.25 L-20.3 -2.15 -20.4 -2.1 -20.55 -2.15 -20.6 -2.2 -20.6 -2.3 Q-20.6 -2.4 -20.55 -2.45 L-20.5 -2.45 -20.25 -2.25" fill="#ffffff" fill-opacity="0.7372549" fill-rule="evenodd" stroke="none"/>
  </g>
</svg>
