<?xml version="1.0" encoding="UTF-8" standalone="no"?>
<svg xmlns:ffdec="https://www.free-decompiler.com/flash" xmlns:xlink="http://www.w3.org/1999/xlink" ffdec:objectType="shape" height="41.5px" width="49.85px" xmlns="http://www.w3.org/2000/svg">
  <g transform="matrix(1.0, 0.0, 0.0, 1.0, 15.9, 40.35)">
    <path d="M7.15 -38.3 Q7.15 -38.6 7.15 -38.45 7.45 -38.5 7.65 -38.4 7.85 -38.25 7.95 -38.15 L8.0 -37.95 7.9 -37.9 7.7 -37.85 Q7.45 -37.85 7.25 -38.05 7.15 -38.25 7.15 -38.3 M17.45 -39.65 Q17.7 -39.4 18.75 -39.15 19.55 -38.95 19.55 -38.45 19.55 -38.25 19.5 -38.1 L19.3 -37.85 Q18.6 -37.95 18.0 -38.55 17.55 -39.0 17.3 -39.5 L16.9 -39.5 16.4 -39.6 16.4 -39.65 17.45 -39.65 M21.05 -35.05 Q20.9 -34.9 20.75 -34.9 L20.65 -35.15 20.55 -35.5 20.85 -35.55 Q21.0 -35.4 21.1 -35.2 L21.05 -35.05 M8.1 -31.4 L8.15 -31.15 Q8.15 -30.95 8.0 -30.85 L7.7 -30.8 7.4 -30.8 7.3 -30.95 7.3 -31.1 Q7.65 -31.4 8.1 -31.45 L8.1 -31.4 M8.4 -27.2 L8.3 -27.2 Q8.2 -27.15 8.2 -27.35 8.2 -27.45 8.75 -27.9 L9.35 -27.9 Q9.95 -27.15 11.5 -27.15 L12.4 -27.1 Q12.75 -27.0 12.75 -26.65 12.75 -26.45 12.7 -26.3 L12.6 -26.1 Q12.55 -26.15 12.35 -26.6 12.2 -26.95 11.75 -26.95 L9.7 -27.15 Q9.5 -27.15 9.35 -27.3 L9.15 -27.45 Q8.85 -27.45 8.4 -27.2 M5.1 -25.05 Q4.95 -25.1 4.9 -25.15 4.85 -25.25 4.85 -25.45 4.85 -25.95 5.55 -25.9 6.05 -25.85 6.35 -25.65 5.3 -25.1 5.1 -25.05 M14.2 -25.5 Q14.4 -25.25 14.4 -25.1 14.4 -24.9 14.2 -24.7 14.05 -24.5 13.9 -24.5 L13.7 -24.5 13.6 -24.55 13.55 -24.6 Q13.5 -24.6 13.5 -24.8 13.5 -24.95 13.65 -24.95 13.75 -24.95 13.75 -25.1 13.75 -25.2 13.45 -25.55 L13.5 -25.75 13.5 -25.8 13.65 -25.8 Q14.0 -25.8 14.2 -25.5 M13.8 -0.7 L13.6 -0.75 Q13.7 -0.85 15.25 -1.5 16.65 -2.1 16.8 -2.3 L16.4 -2.75 Q16.05 -3.2 16.05 -3.35 16.05 -4.75 16.95 -3.75 17.4 -3.25 17.85 -2.45 17.85 -1.75 16.5 -1.35 14.85 -0.95 14.15 -0.65 L13.8 -0.7 M21.8 -11.25 L21.45 -12.25 21.0 -13.5 Q21.6 -13.95 22.15 -13.05 22.6 -12.35 22.6 -11.85 22.6 -10.9 22.0 -10.3 21.45 -9.7 19.5 -8.6 L19.3 -8.55 Q19.2 -8.55 19.2 -8.75 L20.5 -9.75 Q21.8 -10.75 21.8 -11.25 M33.65 -15.05 Q33.35 -14.8 33.3 -14.45 L33.15 -14.45 Q33.25 -15.4 33.05 -16.1 33.3 -16.45 33.65 -16.15 33.95 -15.85 33.95 -15.55 33.95 -15.25 33.65 -15.05 M33.35 -5.6 Q33.2 -5.15 32.65 -5.0 32.75 -5.25 32.6 -5.8 L32.3 -6.65 32.4 -6.9 Q32.75 -6.9 33.15 -6.65 33.45 -6.4 33.45 -6.15 33.45 -5.8 33.35 -5.6 M-6.8 -38.4 Q-6.8 -38.6 -6.6 -38.65 -6.4 -38.7 -6.25 -38.6 L-6.45 -38.25 Q-6.55 -38.1 -6.7 -38.05 L-6.75 -38.15 -6.8 -38.4 M-0.45 -40.35 Q-0.4 -40.4 -0.4 -40.1 -0.4 -39.8 -0.6 -39.8 -0.8 -39.75 -0.85 -39.55 L-0.9 -39.8 -1.55 -39.65 -2.1 -39.45 Q-2.4 -39.7 -2.4 -39.8 -2.4 -40.15 -1.7 -40.3 L-0.45 -40.35 M-2.4 -37.3 Q-2.5 -37.1 -2.65 -37.05 L-2.85 -37.05 Q-2.95 -37.1 -2.95 -37.3 -2.95 -37.45 -2.85 -37.45 L-2.8 -37.4 Q-2.6 -37.4 -2.4 -37.3 M-7.7 -30.9 L-7.7 -30.75 -7.75 -30.45 -8.15 -30.35 -8.7 -30.45 -8.75 -30.5 -8.75 -30.7 Q-8.75 -30.95 -8.55 -31.05 -8.35 -31.1 -7.75 -31.05 L-7.7 -30.9 M-15.35 -23.0 Q-15.7 -22.8 -15.8 -22.75 L-15.9 -22.85 Q-15.75 -23.1 -15.3 -23.25 L-14.9 -23.3 -15.35 -23.0 M-15.1 -8.9 Q-15.1 -9.35 -14.7 -10.0 -14.2 -10.85 -13.45 -10.85 L-12.95 -10.7 -12.45 -10.6 Q-11.9 -10.6 -11.55 -11.2 -11.25 -11.75 -10.9 -11.75 -11.15 -10.75 -12.45 -9.9 -13.1 -9.55 -13.3 -9.3 -13.65 -8.9 -13.65 -8.3 -13.65 -7.8 -13.35 -7.55 -12.8 -7.1 -12.6 -6.85 -12.25 -6.4 -11.55 -6.15 -11.05 -6.0 -11.05 -5.7 -11.05 -5.25 -11.2 -4.85 L-11.35 -4.8 Q-11.6 -4.85 -11.6 -5.05 L-11.6 -5.25 Q-11.6 -5.75 -12.1 -5.8 L-12.8 -5.8 Q-13.3 -5.8 -13.65 -5.9 -14.05 -6.05 -14.05 -6.35 -14.05 -6.5 -13.45 -6.9 -13.55 -7.2 -13.8 -7.6 -14.05 -8.0 -14.2 -8.0 -14.8 -8.15 -15.0 -8.4 -15.1 -8.55 -15.1 -8.9 M-6.25 -16.7 Q-6.0 -16.55 -5.95 -16.4 L-6.0 -16.2 -6.0 -16.15 -6.2 -16.1 Q-6.4 -16.1 -6.45 -16.25 L-6.5 -16.4 Q-6.7 -16.3 -6.9 -15.8 L-7.35 -14.9 Q-8.0 -13.7 -8.75 -13.7 -9.25 -13.7 -9.4 -14.0 -9.45 -14.1 -9.45 -14.4 -9.45 -14.9 -9.15 -14.85 -8.75 -14.65 -8.6 -14.65 -8.05 -14.65 -7.6 -15.6 -7.05 -16.65 -6.9 -16.7 L-6.25 -16.7 M-11.75 -1.3 Q-11.25 -1.95 -10.75 -1.95 L-10.75 -1.9 Q-10.7 -1.85 -10.7 -1.7 -10.7 -1.6 -10.85 -1.25 L-11.1 -0.7 Q-10.75 -0.6 -10.25 -0.25 L-9.45 0.3 Q-8.45 0.95 -7.7 0.55 -7.9 0.8 -8.7 1.0 L-9.5 1.15 Q-10.6 1.15 -11.45 0.5 -12.2 -0.05 -12.2 -0.55 -12.2 -0.75 -11.75 -1.3" fill="#8cc1ff" fill-opacity="0.7529412" fill-rule="evenodd" stroke="none"/>
  </g>
</svg>
