<?xml version="1.0" encoding="UTF-8" standalone="no"?>
<svg xmlns:ffdec="https://www.free-decompiler.com/flash" xmlns:xlink="http://www.w3.org/1999/xlink" ffdec:objectType="shape" height="41.6px" width="39.35px" xmlns="http://www.w3.org/2000/svg">
  <g transform="matrix(1.0, 0.0, 0.0, 1.0, 15.75, 40.35)">
    <path d="M19.6 -38.4 L19.55 -38.35 Q19.45 -38.25 19.25 -38.25 18.85 -38.25 18.7 -38.7 18.6 -38.85 18.65 -39.0 18.65 -39.45 19.0 -39.45 19.4 -39.4 19.7 -38.7 L19.6 -38.4 M9.5 -28.15 L9.55 -27.95 Q9.55 -27.6 9.05 -27.6 8.75 -27.6 8.5 -27.75 L8.45 -27.95 8.75 -28.15 Q9.0 -28.35 9.45 -28.2 L9.5 -28.15 M14.55 -25.0 L14.55 -25.05 14.35 -24.9 Q14.2 -25.05 14.1 -25.25 L13.95 -25.6 Q14.4 -25.65 14.55 -25.2 L14.55 -25.0 M22.95 -11.4 L22.85 -12.25 22.7 -13.2 22.8 -13.5 Q23.3 -13.7 23.5 -13.2 23.6 -12.9 23.6 -12.45 23.6 -11.35 22.95 -11.4 M17.85 -2.0 L17.85 -1.75 Q17.85 -1.45 17.55 -1.3 L16.7 -1.0 16.5 -1.05 Q16.4 -1.1 16.4 -1.3 16.4 -1.6 16.85 -1.8 17.25 -2.05 17.8 -2.1 L17.85 -2.0 M-1.1 -40.2 L-1.3 -40.05 Q-1.45 -40.0 -1.65 -40.0 -1.85 -40.0 -1.85 -40.05 L-1.85 -40.1 -1.9 -40.2 Q-1.85 -40.3 -1.65 -40.35 L-1.2 -40.3 -1.1 -40.2 M-8.4 -31.35 Q-8.75 -31.05 -8.9 -31.0 L-9.0 -31.2 Q-8.9 -31.55 -8.45 -31.45 L-8.4 -31.35 M-15.4 -9.65 Q-15.4 -10.25 -14.85 -10.75 -14.35 -11.15 -13.45 -11.45 L-13.3 -11.45 Q-13.25 -11.45 -13.25 -11.25 L-13.25 -10.85 -13.35 -10.85 Q-13.35 -11.1 -13.4 -11.2 -14.05 -10.85 -14.25 -10.4 -14.4 -10.1 -14.4 -9.35 -14.4 -9.1 -14.8 -8.35 -15.15 -7.65 -15.0 -7.35 L-15.15 -7.2 Q-15.25 -7.15 -15.4 -7.15 -15.65 -7.15 -15.75 -7.3 L-15.75 -7.55 Q-15.75 -7.7 -15.35 -8.1 -14.95 -8.5 -14.95 -8.7 -14.95 -8.8 -15.15 -9.15 -15.4 -9.55 -15.4 -9.65 M-7.9 -15.95 L-7.9 -15.75 Q-7.9 -15.45 -8.25 -15.1 -8.55 -14.8 -8.9 -14.8 -9.2 -14.8 -9.45 -15.6 -9.45 -15.9 -9.45 -15.95 L-8.0 -16.0 -7.9 -15.95 M-12.25 -0.5 Q-11.9 -0.3 -11.4 -0.05 -11.25 0.1 -10.5 0.35 -9.85 0.55 -9.85 0.9 -9.85 1.05 -9.95 1.15 -10.05 1.25 -10.2 1.25 -10.55 1.25 -11.65 0.55 L-12.9 -0.2 Q-12.4 -0.55 -12.25 -0.5" fill="#8cc1ff" fill-opacity="0.7529412" fill-rule="evenodd" stroke="none"/>
  </g>
</svg>
