<?xml version="1.0" encoding="UTF-8" standalone="no"?>
<svg xmlns:ffdec="https://www.free-decompiler.com/flash" xmlns:xlink="http://www.w3.org/1999/xlink" ffdec:objectType="shape" height="49.55px" width="51.15px" xmlns="http://www.w3.org/2000/svg">
  <g transform="matrix(1.0, 0.0, 0.0, 1.0, 28.4, 44.55)">
    <path d="M4.85 -42.95 L5.0 -41.8 Q5.1 -41.15 5.35 -40.8 6.6 -39.1 6.85 -38.55 7.2 -37.8 7.2 -36.55 7.2 -35.55 6.55 -33.4 5.85 -31.2 5.85 -30.9 5.85 -30.75 5.95 -30.2 L6.05 -29.5 6.2 -29.25 6.35 -29.1 Q7.0 -29.1 8.5 -30.15 9.25 -30.7 10.0 -31.3 11.25 -32.2 12.35 -31.05 12.75 -30.6 13.0 -30.05 13.25 -29.6 13.25 -29.35 13.25 -28.9 13.1 -28.4 L13.25 -28.55 13.3 -27.9 Q13.3 -27.45 12.9 -26.6 12.55 -25.95 12.25 -25.75 L12.25 -25.15 12.45 -24.75 12.3 -24.6 Q12.25 -24.6 12.2 -24.7 L12.15 -23.85 12.1 -23.55 12.1 -23.35 12.05 -23.3 Q11.95 -23.25 11.8 -23.25 11.75 -23.25 10.9 -24.0 L10.05 -24.8 8.9 -24.5 9.6 -24.6 Q6.9 -23.75 5.45 -21.75 L5.45 -21.7 Q5.0 -20.7 4.5 -19.95 4.2 -19.05 4.2 -18.1 4.2 -17.5 4.85 -16.4 5.55 -15.3 5.55 -15.2 5.55 -14.9 5.45 -14.85 5.35 -14.75 5.15 -14.75 5.05 -14.75 4.7 -14.95 4.3 -14.95 3.9 -15.25 L3.65 -15.5 Q3.25 -15.0 3.2 -14.4 3.15 -14.1 3.2 -13.2 L3.1 -13.2 3.15 -13.1 Q3.35 -12.1 3.7 -11.25 4.7 -8.65 6.3 -8.65 10.25 -8.65 12.2 -9.75 12.9 -10.15 13.55 -10.8 L14.05 -12.1 Q14.45 -13.25 14.45 -13.8 14.45 -14.55 14.35 -14.7 L13.4 -16.05 Q14.3 -16.45 15.0 -15.35 15.55 -14.5 15.55 -13.9 L15.55 -13.85 Q15.8 -14.5 15.8 -14.85 15.8 -16.15 14.4 -17.6 L13.45 -18.5 Q13.0 -18.9 13.0 -18.95 L13.0 -19.0 12.75 -19.0 12.05 -19.75 Q11.7 -20.15 11.7 -20.55 L11.75 -20.75 11.8 -20.7 11.85 -20.55 Q11.9 -20.45 11.95 -20.4 12.1 -20.55 12.2 -20.8 L12.25 -21.05 Q12.25 -21.25 12.3 -21.4 12.4 -21.5 12.45 -21.5 12.45 -21.4 12.35 -21.3 12.55 -21.15 12.65 -20.9 L12.75 -20.6 Q12.85 -20.35 13.5 -20.5 L13.7 -20.55 Q13.95 -20.55 13.95 -20.35 13.95 -20.25 13.85 -20.0 14.7 -20.6 15.85 -21.0 18.85 -21.95 20.6 -20.1 21.4 -19.6 22.1 -17.9 22.75 -16.35 22.75 -15.4 22.75 -15.15 22.55 -14.45 22.3 -13.65 21.9 -12.9 20.85 -10.85 19.5 -10.85 L19.45 -10.85 19.35 -10.75 17.9 -9.6 Q16.05 -8.15 16.05 -6.9 16.05 -6.55 16.45 -6.1 16.7 -5.85 17.35 -5.25 18.6 -4.0 18.6 -2.5 18.6 -1.45 18.0 -0.95 17.7 -0.7 17.3 -0.55 17.6 -0.45 18.0 -0.3 18.7 -0.05 19.0 0.2 19.5 0.7 20.2 0.75 20.45 0.75 20.5 0.8 20.6 0.85 20.6 1.1 20.6 1.85 19.6 2.45 18.9 2.85 16.8 3.55 L14.55 3.8 12.3 4.0 Q11.8 4.0 11.05 4.25 L9.85 4.7 Q8.4 5.15 7.7 4.4 L6.95 4.3 6.45 4.25 5.5 4.4 4.5 4.55 Q3.55 4.55 3.35 4.3 3.3 4.2 3.3 4.1 L3.35 4.0 Q3.35 3.8 3.85 2.85 4.35 1.85 4.35 1.35 4.35 1.05 3.05 -0.05 1.65 -1.2 1.45 -1.65 L1.35 -1.6 1.5 -2.15 Q1.6 -2.5 1.6 -2.7 1.6 -3.05 1.5 -3.15 1.35 -3.35 0.9 -3.35 0.7 -3.35 0.65 -3.3 L0.65 -3.25 0.6 -3.15 Q0.55 -3.1 0.55 -2.9 0.55 -2.7 0.85 -2.4 1.15 -2.1 1.15 -1.95 1.15 -1.4 0.5 -0.15 -0.2 1.15 -0.65 1.45 -1.2 2.0 -1.7 2.0 -2.1 2.0 -2.55 1.75 -2.95 1.45 -3.4 1.45 -3.75 1.45 -4.25 2.15 -4.0 2.35 -3.75 2.6 -3.4 3.05 -3.4 3.35 -3.4 4.6 -5.95 4.65 L-5.55 4.5 -6.35 4.55 -9.15 4.8 -10.75 4.85 -11.85 4.9 -12.85 5.0 Q-13.55 5.0 -14.95 4.15 -16.4 3.35 -17.3 3.4 -17.6 3.2 -17.8 3.0 -18.05 2.7 -18.05 2.55 -18.05 2.3 -17.5 1.6 L-17.0 0.95 Q-17.25 0.8 -17.5 0.75 -17.9 1.6 -19.65 1.6 -20.3 1.6 -22.3 1.0 -24.15 0.4 -24.5 0.45 L-24.7 0.4 Q-24.65 0.35 -24.35 0.25 L-24.0 0.15 -24.2 0.1 -24.7 0.0 Q-24.75 0.0 -25.15 0.4 -25.55 0.75 -26.15 0.75 -27.35 0.75 -27.95 -0.25 -28.4 -0.9 -28.4 -1.5 -28.4 -1.95 -28.1 -2.5 -27.8 -3.2 -27.35 -3.55 -26.0 -4.55 -24.2 -2.7 L-23.9 -3.0 -23.9 -3.05 -23.8 -3.25 -23.65 -3.5 -23.6 -3.65 Q-24.55 -4.2 -24.95 -5.6 -25.35 -6.85 -25.25 -8.25 -25.25 -9.6 -25.2 -9.75 -25.1 -10.15 -24.1 -11.65 -23.65 -12.3 -22.6 -13.15 -21.2 -14.25 -20.15 -14.25 -19.45 -14.25 -19.1 -14.1 -18.65 -13.9 -17.35 -13.7 L-16.8 -12.95 Q-16.4 -12.4 -16.35 -12.05 L-16.1 -10.9 -16.0 -10.75 -16.0 -10.6 -16.05 -10.55 -16.0 -10.5 -16.05 -10.45 Q-16.05 -10.4 -16.1 -10.4 L-16.2 -10.5 -16.25 -10.5 Q-17.15 -10.5 -17.6 -10.95 -17.8 -10.85 -18.0 -10.2 -18.2 -9.6 -18.2 -9.35 -18.2 -8.9 -17.4 -7.7 -16.65 -6.55 -16.25 -6.3 L-15.15 -6.15 -14.55 -6.0 Q-10.9 -6.0 -8.25 -8.0 -6.7 -9.15 -6.15 -10.2 L-6.15 -10.3 -7.45 -10.1 -7.65 -10.1 Q-7.7 -10.15 -7.7 -10.35 -7.7 -10.8 -7.45 -11.2 -7.3 -11.4 -6.9 -11.8 -5.85 -12.7 -5.45 -13.6 -4.45 -15.9 -4.45 -16.8 -4.45 -17.85 -5.0 -19.1 -5.3 -19.75 -5.65 -20.2 -6.0 -20.4 -6.5 -20.4 L-7.35 -20.3 -7.9 -20.25 Q-8.05 -19.95 -8.25 -19.3 -8.5 -18.55 -8.95 -18.2 -9.6 -17.65 -10.85 -17.65 -12.5 -17.65 -13.35 -19.3 -13.9 -20.35 -13.9 -21.2 -13.9 -23.1 -12.85 -24.65 -11.95 -26.1 -10.45 -26.75 -8.95 -27.45 -7.55 -27.1 -6.45 -26.8 -5.7 -25.95 -6.05 -26.9 -6.3 -27.9 -6.3 -30.4 -6.15 -31.4 -6.05 -32.0 -5.95 -32.5 L-5.9 -32.7 Q-5.9 -34.45 -5.1 -35.2 -4.45 -35.85 -3.35 -35.7 -2.4 -35.55 -1.6 -34.85 L-1.55 -34.75 -1.55 -34.95 Q-1.55 -36.95 -0.2 -39.9 0.9 -42.3 2.45 -44.55 4.45 -44.3 4.85 -42.95 M13.5 -20.25 Q13.7 -20.25 13.75 -20.3 L13.5 -20.3 13.35 -20.25 13.5 -20.25 M-5.35 -20.0 Q-5.15 -19.6 -4.9 -19.1 L-4.45 -18.05 -4.55 -18.45 Q-4.8 -19.5 -5.35 -20.0" fill="#ffe24c" fill-rule="evenodd" stroke="none"/>
    <path d="M3.8 -39.65 Q3.85 -38.65 3.9 -38.4 4.2 -37.45 4.65 -36.95 5.05 -36.55 5.05 -36.0 L4.55 -34.25 Q4.05 -32.5 4.05 -30.95 4.05 -30.1 4.4 -28.5 4.75 -26.85 4.75 -26.15 4.75 -25.3 4.45 -24.7 4.3 -24.4 3.75 -23.65 3.35 -23.15 3.1 -22.5 L2.95 -21.55 Q2.5 -18.25 2.25 -18.25 1.8 -18.25 1.8 -18.8 1.8 -19.1 1.95 -19.7 1.95 -19.9 1.65 -20.3 L1.2 -20.95 0.1 -21.0 -0.4 -20.95 Q-0.75 -20.65 -1.0 -20.15 -1.2 -19.65 -1.2 -19.3 -1.2 -19.1 -1.45 -18.25 L-1.5 -18.0 -1.45 -17.7 Q-1.35 -17.1 -0.95 -16.7 -0.45 -16.85 0.0 -17.05 0.6 -17.35 0.95 -17.45 L1.75 -17.45 Q2.6 -16.85 2.75 -16.55 2.9 -16.3 2.9 -15.7 2.9 -15.1 2.8 -14.85 2.75 -14.65 2.5 -14.4 1.4 -13.5 0.8 -12.65 0.55 -13.1 0.55 -13.55 0.55 -14.05 1.3 -14.65 2.05 -15.3 2.05 -15.45 2.05 -15.7 1.85 -16.05 1.55 -16.5 1.15 -16.5 0.9 -16.5 0.25 -16.2 -0.45 -15.95 -0.95 -15.95 -2.2 -15.95 -2.6 -17.15 -2.8 -17.75 -2.75 -18.35 -2.75 -18.6 -2.6 -19.15 L-2.4 -19.75 -2.4 -20.05 Q-2.4 -20.5 -2.0 -21.7 -1.8 -22.25 -1.6 -22.6 -1.45 -23.2 -1.15 -23.45 -0.85 -23.75 -0.3 -23.4 L0.35 -22.85 Q1.05 -22.7 1.4 -22.45 L1.95 -22.0 Q2.45 -22.25 2.8 -23.0 L3.0 -23.85 3.25 -25.1 3.25 -25.55 3.35 -25.55 3.35 -25.6 Q3.35 -26.7 3.2 -27.2 3.1 -27.5 2.8 -27.8 2.55 -28.05 2.4 -28.45 2.25 -29.1 2.25 -30.4 2.25 -30.85 2.45 -32.05 2.7 -33.3 2.7 -33.75 2.7 -34.8 2.65 -34.9 L1.85 -36.4 Q1.5 -36.15 1.3 -35.45 1.15 -34.9 0.65 -34.9 0.35 -34.9 0.1 -36.05 0.1 -36.75 0.35 -37.55 L0.3 -37.8 0.55 -38.65 Q0.85 -39.6 1.15 -40.25 2.25 -42.45 3.5 -40.85 3.75 -40.45 3.8 -39.65 M9.5 -28.4 Q8.3 -28.4 7.3 -27.0 7.0 -26.55 6.6 -25.85 L6.1 -24.85 5.75 -24.8 5.7 -24.8 Q5.65 -24.8 5.65 -25.0 5.65 -25.9 6.65 -27.15 7.55 -28.35 8.8 -29.25 10.1 -30.2 10.95 -30.25 11.9 -30.3 11.9 -29.15 11.9 -28.65 11.7 -28.15 11.45 -27.5 11.05 -27.35 10.6 -27.45 10.6 -27.7 10.55 -28.05 10.25 -28.35 L9.5 -28.4 M16.85 -20.0 L17.5 -20.0 Q19.6 -20.0 20.7 -18.05 21.1 -17.35 21.3 -16.55 21.45 -16.0 21.45 -15.65 21.45 -14.95 21.2 -14.5 20.75 -13.9 20.35 -13.25 19.95 -12.55 18.55 -12.15 17.8 -11.95 17.55 -11.85 17.05 -11.6 16.85 -11.25 16.7 -10.95 16.75 -10.0 16.75 -9.2 16.3 -8.85 15.9 -8.5 15.3 -8.3 14.85 -8.15 14.7 -7.85 L14.6 -7.25 Q14.55 -6.9 14.15 -6.8 L13.95 -6.85 Q13.9 -6.9 13.9 -7.15 13.9 -7.6 14.2 -8.05 L14.95 -8.95 Q16.0 -10.2 16.0 -11.7 16.0 -12.6 16.5 -13.1 16.8 -13.4 17.6 -13.75 18.4 -14.1 18.75 -14.4 19.2 -14.9 19.25 -15.7 19.35 -16.1 19.35 -16.65 19.35 -17.65 18.6 -18.3 18.05 -18.8 17.2 -18.9 L17.1 -18.9 Q16.35 -18.65 15.75 -18.65 14.7 -18.65 14.6 -18.9 L14.6 -19.2 Q14.55 -19.4 14.4 -19.55 L14.4 -19.6 14.65 -19.65 Q14.85 -19.65 14.9 -19.5 L14.95 -19.25 Q15.05 -19.25 15.05 -19.4 15.5 -19.2 16.1 -19.55 L16.5 -19.8 Q16.55 -20.0 16.85 -20.0 M1.0 -21.4 L1.3 -21.3 1.35 -21.45 1.0 -21.4 M13.8 -0.4 L16.2 0.0 Q17.15 0.3 17.15 1.15 17.15 1.75 16.25 2.05 15.45 2.3 13.6 2.45 13.25 2.45 11.35 3.0 9.55 3.45 8.95 3.45 L8.5 3.4 Q8.35 3.35 8.1 3.25 L8.05 3.05 Q8.4 2.6 10.15 2.3 11.85 2.0 12.05 1.6 11.85 1.5 11.7 1.3 11.55 1.1 11.5 0.9 L11.8 0.85 Q12.15 0.9 12.65 1.2 12.9 1.3 13.6 1.3 13.9 1.3 14.2 1.0 14.35 0.8 14.45 0.65 14.45 0.35 14.2 0.15 L13.8 -0.15 13.8 -0.4 M-3.4 -32.85 Q-3.05 -32.75 -2.7 -32.1 -2.25 -31.05 -2.05 -30.65 L-1.85 -29.95 Q-0.65 -27.45 -0.65 -26.75 -0.65 -26.5 -0.7 -26.3 L-0.75 -26.1 Q-0.75 -25.85 -0.75 -25.65 L-0.75 -25.0 -0.85 -24.95 -1.05 -24.8 Q-1.65 -25.35 -2.0 -26.3 -2.15 -26.85 -2.35 -27.95 L-2.35 -28.0 -2.75 -27.95 -2.75 -26.6 -2.7 -25.6 Q-2.7 -24.6 -2.75 -24.4 -2.9 -24.05 -3.3 -23.65 L-3.55 -22.55 -3.75 -22.45 Q-3.85 -22.9 -3.85 -23.6 L-3.85 -23.75 -3.8 -24.85 Q-3.8 -25.1 -4.05 -26.05 -4.35 -27.05 -4.35 -27.15 -4.35 -27.6 -4.2 -27.8 L-4.0 -28.1 Q-4.15 -29.35 -4.15 -29.8 L-4.6 -30.45 Q-4.6 -30.75 -4.3 -31.75 -3.95 -32.85 -3.65 -32.85 L-3.45 -32.95 -3.4 -32.85 M-23.55 -10.7 Q-22.85 -11.85 -21.65 -12.4 -20.6 -12.9 -19.75 -12.75 -18.9 -12.6 -18.9 -11.85 -18.9 -11.65 -19.2 -11.45 L-19.9 -11.05 Q-21.1 -10.4 -21.6 -9.0 L-22.05 -7.5 Q-22.4 -6.35 -22.4 -5.9 -22.4 -5.7 -22.3 -5.5 -22.1 -5.2 -22.0 -4.8 L-22.15 -4.6 Q-22.35 -4.4 -22.45 -4.4 -23.65 -4.4 -24.15 -5.95 -24.4 -6.7 -24.45 -7.5 -24.45 -9.35 -23.55 -10.7 M-10.65 -24.05 Q-10.05 -24.9 -8.95 -25.05 -8.05 -25.25 -7.25 -24.9 -6.5 -24.6 -6.5 -24.1 L-6.5 -23.8 -6.55 -23.75 Q-6.6 -23.7 -6.8 -23.7 -7.0 -23.7 -7.2 -23.95 -7.4 -24.15 -7.55 -24.15 -8.05 -24.15 -8.4 -23.55 -8.6 -23.25 -9.0 -22.25 -9.35 -21.35 -9.65 -20.95 -10.1 -20.35 -10.7 -20.35 -10.95 -20.35 -11.45 -21.4 -11.45 -23.1 -10.65 -24.05 M-8.35 -20.45 L-8.75 -20.4 -8.85 -20.75 -8.8 -21.05 -8.55 -21.1 -8.15 -21.05 -8.1 -20.75 -8.15 -20.45 -8.35 -20.45 M-1.2 -20.15 L-1.35 -19.7 -1.15 -20.2 -1.0 -20.55 -1.2 -20.15 M-2.6 -18.55 L-2.6 -18.4 -2.55 -18.55 -2.6 -18.6 -2.6 -18.55 M-2.4 -19.15 L-2.4 -19.4 -2.45 -19.2 -2.45 -19.15 -2.4 -19.15 M-17.7 -2.95 Q-17.7 -2.5 -19.4 -1.85 -20.3 -1.55 -21.65 -1.15 -19.35 -1.3 -18.75 -1.15 -18.35 -0.95 -17.7 -0.9 L-18.85 -0.65 -19.25 -0.6 -18.3 -0.55 -17.4 -0.5 Q-17.75 -0.15 -18.4 0.0 L-20.45 0.15 Q-21.95 0.15 -23.0 -0.4 -23.85 -0.85 -23.85 -1.3 -23.85 -1.6 -21.0 -2.4 -18.3 -3.2 -17.8 -3.2 L-17.75 -3.15 Q-17.7 -3.15 -17.7 -2.95 M-12.75 -0.15 L-13.1 0.35 Q-13.65 1.05 -14.1 1.55 -14.05 1.85 -13.6 1.95 L-12.7 1.95 Q-12.55 1.95 -11.9 1.25 L-11.1 0.4 -11.0 0.5 Q-10.95 0.5 -10.95 0.75 -10.95 0.8 -11.25 1.65 -11.6 2.55 -11.75 2.7 L-10.15 2.75 -6.5 2.85 -6.2 2.9 -6.15 2.95 Q-6.55 3.05 -7.3 3.55 -8.2 3.95 -9.8 3.95 -13.5 3.95 -15.35 3.25 -16.65 2.8 -16.65 2.25 -16.65 2.05 -16.1 1.55 -16.25 1.5 -16.3 1.45 -15.3 1.05 -13.85 -0.2 L-12.35 -1.5 -12.25 -1.4 -12.25 -1.2 Q-12.25 -1.05 -12.3 -0.8 L-12.25 -0.8 -12.25 -0.55 Q-12.25 -0.5 -12.75 -0.15 M-11.7 -2.95 Q-9.9 -2.9 -8.8 -3.95 -8.5 -4.2 -8.15 -4.75 L-7.7 -5.25 Q-5.85 -6.5 -4.55 -6.1 -4.05 -5.95 -3.75 -5.55 -3.5 -5.25 -3.5 -4.9 L-3.5 -4.6 -3.6 -4.5 Q-3.65 -4.4 -3.85 -4.4 -4.05 -4.4 -4.35 -4.7 L-4.7 -4.95 Q-5.15 -4.95 -5.7 -4.5 L-6.75 -3.45 Q-8.3 -1.95 -10.25 -1.95 -10.75 -1.95 -11.2 -2.15 -11.5 -2.3 -11.75 -2.55 L-11.7 -2.95 M-11.35 3.15 L-10.7 3.25 -9.6 3.25 -10.15 3.15 -10.8 3.2 -11.35 3.15" fill="#fff9d9" fill-rule="evenodd" stroke="none"/>
  </g>
</svg>
