<?xml version="1.0" encoding="UTF-8" standalone="no"?>
<svg xmlns:ffdec="https://www.free-decompiler.com/flash" xmlns:xlink="http://www.w3.org/1999/xlink" ffdec:objectType="shape" height="32.0px" width="39.9px" xmlns="http://www.w3.org/2000/svg">
  <g transform="matrix(1.0, 0.0, 0.0, 1.0, 13.75, 31.4)">
    <path d="M4.85 -29.85 Q4.85 -30.05 4.9 -30.05 5.65 -30.3 5.95 -29.7 6.15 -28.95 6.25 -28.9 5.95 -29.05 5.95 -29.1 L5.95 -29.25 5.9 -29.1 Q5.9 -29.05 5.95 -29.05 L5.9 -28.95 Q5.65 -29.05 5.25 -29.35 4.85 -29.7 4.85 -29.85 M10.0 -30.7 L9.85 -30.7 Q9.6 -30.7 9.4 -30.55 L9.1 -30.4 Q8.85 -30.65 8.85 -30.7 8.85 -30.85 9.05 -31.0 9.25 -31.1 9.5 -31.05 10.15 -31.0 10.15 -30.45 10.15 -30.3 10.35 -30.05 10.6 -29.75 10.65 -29.6 L10.6 -29.55 10.15 -30.05 Q9.9 -30.4 10.05 -30.65 L10.0 -30.7 M13.75 -30.7 Q14.25 -30.45 14.65 -30.0 15.0 -29.6 15.0 -29.35 L14.95 -28.95 14.8 -28.4 14.8 -28.35 Q14.65 -28.55 14.7 -28.85 L14.75 -29.25 Q14.75 -29.6 14.35 -29.9 L13.4 -30.45 12.95 -30.45 Q12.45 -30.45 12.35 -30.3 12.25 -30.2 12.1 -30.2 L12.05 -30.3 Q12.5 -31.4 13.75 -30.7 M17.75 -23.45 L17.45 -23.15 17.35 -23.25 Q17.25 -23.3 17.25 -23.45 17.25 -23.6 17.5 -23.7 17.7 -23.85 18.0 -23.75 17.95 -23.4 18.05 -23.2 18.2 -22.85 18.95 -22.9 18.65 -22.75 18.45 -22.75 18.05 -22.75 17.85 -23.05 17.75 -23.25 17.75 -23.45 M21.0 -23.6 Q21.2 -23.45 21.65 -22.8 22.05 -22.15 22.05 -21.95 L22.05 -21.85 22.0 -21.85 21.95 -21.8 Q21.65 -21.9 21.55 -22.45 21.4 -23.0 21.0 -23.3 20.3 -23.3 20.1 -23.4 L20.3 -23.55 21.0 -23.6 M16.35 -27.2 L16.2 -27.4 15.6 -27.4 Q15.55 -27.4 15.55 -27.55 15.55 -27.9 15.9 -27.75 16.25 -27.6 16.4 -27.3 L16.35 -27.2 M22.4 -20.65 L22.8 -20.65 23.3 -20.75 Q23.7 -20.75 23.8 -20.4 L23.85 -20.1 23.85 -19.75 23.55 -19.6 Q23.4 -19.7 23.35 -19.85 L23.35 -20.15 Q23.25 -20.5 22.35 -20.35 L22.25 -20.6 22.3 -20.9 22.4 -20.9 22.4 -20.65 M6.65 -23.9 Q6.4 -23.75 6.15 -23.75 L5.95 -23.8 5.85 -23.8 5.85 -24.0 Q5.85 -24.3 6.2 -24.3 L6.95 -24.35 7.05 -24.1 6.65 -23.9 M5.2 -22.7 L5.2 -22.6 Q5.15 -22.6 5.15 -22.45 5.15 -22.25 5.25 -22.0 L5.5 -21.45 Q4.85 -21.4 4.85 -22.2 4.85 -22.65 5.0 -22.75 L5.2 -22.7 M4.5 -18.6 Q4.2 -18.2 4.0 -18.2 3.75 -18.2 3.65 -18.35 3.6 -18.4 3.6 -18.55 3.6 -18.8 4.0 -19.3 4.45 -19.8 4.85 -19.8 4.95 -19.8 5.15 -19.65 5.35 -19.55 5.45 -19.55 5.65 -19.55 6.1 -20.15 6.6 -20.8 6.7 -20.85 7.25 -21.05 7.75 -20.55 8.15 -20.2 8.25 -19.8 8.4 -19.35 8.85 -19.3 9.6 -19.2 9.85 -19.1 10.45 -18.85 10.65 -18.5 10.75 -18.25 10.75 -17.8 10.75 -17.65 10.6 -17.35 10.45 -17.05 10.35 -17.0 10.15 -17.55 9.85 -17.95 9.4 -18.45 8.8 -18.65 8.75 -18.95 8.7 -19.05 8.55 -19.3 8.05 -19.3 7.75 -19.3 7.25 -19.65 L6.65 -20.15 Q6.55 -19.95 5.95 -19.6 5.4 -19.25 5.15 -19.15 4.8 -19.05 4.5 -18.6 M10.4 -0.85 L10.25 -0.9 Q10.15 -0.95 10.15 -1.1 10.15 -1.25 10.25 -1.3 L10.4 -1.3 Q11.25 -1.35 12.0 -1.7 12.7 -2.05 12.7 -2.35 L12.35 -2.85 Q11.95 -3.3 11.95 -3.7 11.95 -4.4 12.25 -5.05 12.55 -5.65 13.25 -6.45 13.45 -6.7 14.0 -6.95 L14.15 -7.0 Q14.65 -7.5 15.4 -8.05 16.0 -8.55 16.0 -9.15 16.0 -9.3 15.55 -9.85 15.05 -10.4 15.05 -10.5 15.05 -10.7 15.1 -10.75 L15.3 -10.75 15.35 -11.1 15.45 -11.1 Q15.45 -10.85 15.5 -10.65 L15.75 -10.45 16.1 -9.9 16.55 -9.55 Q16.75 -9.4 16.75 -9.15 L16.75 -8.85 16.8 -8.55 Q16.8 -8.1 16.0 -7.45 15.35 -6.9 14.65 -6.8 13.65 -6.15 13.2 -5.7 12.55 -5.0 12.55 -4.05 12.55 -3.5 13.15 -2.9 13.8 -2.35 13.8 -2.3 13.8 -1.7 13.1 -1.4 L11.2 -0.85 10.4 -0.85 M22.4 -12.6 Q22.95 -12.45 23.4 -12.45 24.85 -12.45 25.9 -12.65 26.1 -12.65 26.15 -12.45 L26.15 -11.65 Q26.15 -11.45 25.9 -11.05 25.6 -10.5 25.2 -10.5 24.95 -10.5 24.9 -10.65 24.9 -10.75 24.9 -10.85 24.9 -11.05 25.15 -11.25 25.35 -11.4 25.35 -11.65 25.35 -11.9 25.1 -12.0 L24.45 -12.0 Q23.25 -12.0 22.4 -12.55 L22.4 -12.6 M23.2 -5.0 Q23.2 -5.25 23.2 -5.15 23.85 -5.2 24.8 -4.95 25.8 -4.7 25.8 -4.45 25.8 -4.05 25.65 -3.7 25.35 -3.1 24.8 -3.1 L24.55 -3.15 24.5 -3.15 24.5 -3.25 Q24.5 -3.35 24.5 -3.5 24.5 -3.6 24.6 -3.75 24.7 -3.95 24.7 -4.05 L24.65 -4.3 Q24.6 -4.4 24.65 -4.45 24.1 -4.7 23.5 -4.8 23.2 -4.85 23.2 -5.0 M-5.25 -29.6 Q-5.25 -29.95 -4.85 -30.2 -4.45 -30.4 -4.25 -30.0 -4.25 -29.65 -4.15 -29.45 -3.95 -29.05 -3.25 -29.1 L-3.35 -29.05 Q-3.4 -29.0 -3.55 -29.0 -4.1 -29.0 -4.25 -29.35 -4.35 -29.55 -4.35 -29.9 L-4.5 -29.4 Q-4.5 -29.25 -4.9 -29.25 L-5.1 -29.3 -5.2 -29.35 -5.25 -29.4 -5.25 -29.6 M0.0 -30.1 L-0.05 -30.05 Q-0.05 -29.95 -0.1 -29.9 L-0.25 -30.55 Q-0.45 -31.05 -0.85 -31.05 -1.1 -31.05 -2.05 -30.2 L-3.15 -29.3 -1.75 -31.0 Q-1.0 -31.65 -0.45 -31.2 0.0 -30.85 0.0 -30.35 L0.0 -30.1 M-5.75 -23.2 L-6.15 -23.1 Q-6.5 -23.1 -6.65 -23.2 -6.75 -23.3 -6.75 -23.5 -6.75 -24.0 -6.15 -23.95 -5.6 -23.9 -5.35 -23.25 L-5.75 -23.2 M-2.4 -26.7 L-2.6 -26.65 Q-2.7 -26.65 -2.85 -26.75 L-3.05 -26.95 Q-2.9 -27.4 -2.55 -27.25 -2.25 -27.15 -2.25 -26.9 -2.25 -26.75 -2.4 -26.7 M-7.6 -22.15 L-7.55 -22.05 -8.1 -22.05 Q-8.15 -22.0 -8.15 -21.85 -8.15 -21.75 -8.05 -21.7 -7.9 -21.65 -7.9 -21.5 -7.9 -21.3 -8.15 -20.85 -8.35 -20.55 -8.55 -20.25 L-8.6 -20.25 Q-8.5 -20.55 -8.55 -21.4 -8.45 -22.15 -7.7 -22.2 L-7.6 -22.15 M-11.2 -17.45 L-11.65 -17.5 -12.25 -16.95 -12.35 -16.95 Q-12.3 -17.1 -12.25 -17.25 L-12.25 -17.55 Q-12.25 -18.1 -11.65 -18.1 -11.05 -18.1 -10.7 -17.4 L-11.2 -17.45 M-13.75 -15.65 L-13.75 -15.8 Q-13.75 -16.05 -13.4 -16.1 -13.0 -16.15 -12.8 -16.05 -12.95 -16.0 -13.3 -15.85 -13.6 -15.7 -13.75 -15.7 L-13.75 -15.65 M-12.25 -14.3 Q-11.95 -14.3 -11.85 -14.1 -11.8 -14.0 -11.8 -13.85 -11.8 -13.65 -12.05 -13.6 -12.2 -13.5 -12.4 -13.5 -12.6 -13.5 -12.7 -13.7 L-12.75 -13.9 Q-12.75 -14.05 -12.55 -14.15 -12.4 -14.3 -12.25 -14.3 M-5.75 -11.15 Q-5.75 -11.75 -5.3 -12.25 -4.65 -13.0 -3.35 -12.1 L-3.25 -11.95 Q-3.4 -11.8 -3.55 -11.7 L-3.8 -11.8 Q-3.9 -11.7 -4.05 -11.65 -4.6 -11.4 -4.85 -11.2 L-4.9 -11.2 -4.95 -10.9 Q-5.05 -10.2 -5.15 -9.95 -5.3 -9.5 -5.6 -9.5 L-5.65 -9.5 -5.9 -8.9 Q-6.2 -8.0 -6.5 -7.75 L-6.25 -7.65 -6.55 -7.75 Q-6.65 -7.65 -6.75 -7.65 L-7.3 -7.7 Q-8.25 -7.55 -8.95 -6.95 L-9.0 -6.9 Q-9.15 -6.6 -9.15 -6.4 -9.15 -5.9 -8.75 -5.45 -8.5 -5.15 -7.9 -4.7 -7.25 -4.25 -7.0 -4.0 -6.6 -3.55 -6.6 -3.05 -6.6 -2.7 -6.85 -2.2 L-7.05 -1.7 Q-7.05 -1.2 -5.85 -0.8 -4.55 -0.4 -3.1 -0.5 L-3.0 -0.45 -2.95 -0.3 Q-2.95 -0.2 -3.7 0.15 -4.5 0.5 -4.9 0.5 -5.15 0.5 -5.8 0.3 L-5.9 0.3 -5.7 0.4 Q-6.3 0.6 -6.55 0.6 -6.8 0.6 -7.3 0.35 L-7.85 0.3 Q-8.4 0.2 -8.55 0.1 -8.8 0.0 -8.95 -0.2 -9.1 -0.35 -9.1 -0.45 -9.1 -0.8 -8.55 -0.9 -8.05 -1.05 -8.05 -1.3 -8.05 -1.4 -8.1 -1.65 L-8.2 -2.0 -8.05 -2.45 -7.85 -2.85 Q-7.85 -3.25 -8.3 -3.65 -8.5 -3.85 -9.3 -4.35 -10.7 -5.35 -10.7 -6.2 -10.7 -7.1 -10.15 -7.9 -9.4 -9.05 -8.05 -8.65 L-7.5 -8.65 Q-7.15 -8.9 -6.55 -9.9 -6.15 -10.65 -5.8 -10.75 L-5.75 -11.15 M-4.65 -11.6 L-4.0 -11.8 Q-4.35 -11.85 -4.6 -11.7 L-4.65 -11.6 M-9.85 -5.75 L-9.85 -5.75 M-7.5 -1.05 L-7.45 -1.05 -7.45 -1.1 -7.5 -1.05 M-4.7 -0.05 Q-4.8 0.0 -4.95 0.05 L-4.1 -0.05 -3.85 -0.1 -4.7 -0.05" fill="#ffe24c" fill-rule="evenodd" stroke="none"/>
  </g>
</svg>
