<?xml version="1.0" encoding="UTF-8" standalone="no"?>
<svg xmlns:ffdec="https://www.free-decompiler.com/flash" xmlns:xlink="http://www.w3.org/1999/xlink" ffdec:objectType="shape" height="16.5px" width="21.1px" xmlns="http://www.w3.org/2000/svg">
  <g transform="matrix(1.0, 0.0, 0.0, 1.0, 13.75, 17.25)">
    <path d="M0.35 -12.95 Q0.25 -13.05 0.25 -13.1 0.25 -13.2 0.05 -13.3 -0.15 -13.45 -0.3 -13.45 -0.45 -13.45 -0.65 -13.1 -0.85 -12.75 -1.0 -12.75 L-1.3 -12.8 -1.35 -12.95 -1.4 -13.0 Q-1.15 -12.95 -0.85 -13.15 L-0.4 -13.5 Q-0.15 -13.7 0.0 -13.65 0.2 -13.55 0.45 -13.0 L0.35 -12.95 M2.15 -11.05 L2.15 -11.0 2.05 -11.0 Q2.1 -11.1 2.0 -11.2 L1.75 -11.4 Q1.5 -11.3 1.5 -11.0 1.5 -10.7 1.45 -10.6 1.15 -10.35 1.1 -10.15 L1.1 -9.8 1.0 -9.75 Q0.95 -9.85 0.9 -10.0 L0.9 -10.2 Q0.9 -10.5 1.05 -10.6 1.2 -10.7 1.3 -11.05 1.4 -11.4 1.8 -11.5 2.15 -11.55 2.15 -11.2 L2.15 -11.05 M4.45 -9.65 L4.35 -9.6 Q4.15 -9.65 4.15 -9.85 4.15 -10.05 3.95 -10.05 3.75 -10.05 3.5 -9.9 L3.25 -9.7 2.95 -9.75 Q2.95 -9.9 2.85 -10.1 L2.95 -9.95 3.0 -9.85 Q3.15 -9.85 3.35 -10.0 3.6 -10.2 4.0 -10.2 4.25 -10.2 4.4 -10.1 4.55 -9.95 4.55 -9.85 4.55 -9.75 4.45 -9.65 M5.8 -6.85 L5.55 -6.65 5.45 -6.65 5.4 -6.75 Q6.1 -7.3 6.3 -7.0 6.4 -6.9 6.4 -6.3 6.4 -6.15 6.5 -5.75 L6.5 -5.7 Q6.4 -5.8 6.25 -6.45 6.15 -6.95 5.95 -6.95 L5.8 -6.85 M2.35 -9.65 L2.35 -9.55 2.2 -9.55 2.1 -9.65 Q1.95 -9.75 1.9 -9.75 1.8 -9.75 1.75 -9.65 1.65 -9.55 1.55 -9.55 L1.4 -9.65 1.35 -9.7 Q1.35 -9.8 1.5 -9.95 1.65 -10.05 1.85 -10.1 2.4 -10.2 2.4 -9.75 L2.35 -9.65 M0.45 -9.85 L0.4 -9.8 0.25 -9.75 Q0.25 -9.85 0.2 -9.95 0.1 -10.1 0.0 -10.15 L-0.15 -9.9 Q-0.3 -9.75 -0.55 -9.65 L-0.65 -9.6 Q-0.75 -9.6 -0.75 -9.7 L-0.75 -9.8 -0.7 -9.85 Q-0.65 -9.85 -0.45 -10.0 L-0.05 -10.3 Q0.45 -10.55 0.45 -9.95 L0.45 -9.85 M1.55 -6.7 L1.45 -6.65 1.4 -6.8 Q1.4 -6.85 1.4 -6.95 1.4 -7.5 2.05 -7.3 2.65 -7.15 3.05 -6.55 L2.9 -6.5 2.7 -6.5 Q2.55 -6.5 2.5 -6.65 L2.45 -6.95 2.4 -7.1 Q2.2 -7.1 2.15 -7.15 L2.05 -7.2 Q1.75 -7.2 1.6 -6.95 L1.55 -6.7 M3.45 -7.95 Q3.2 -7.7 3.05 -7.65 2.85 -7.8 2.85 -7.85 2.85 -8.15 3.2 -8.2 3.55 -8.2 3.6 -7.8 L3.6 -7.75 Q3.55 -7.75 3.55 -7.8 L3.45 -7.95 M4.35 -5.5 Q4.3 -5.35 4.1 -5.35 3.95 -5.35 3.9 -5.5 3.85 -5.6 3.85 -5.65 3.7 -5.65 3.5 -5.4 L3.55 -5.75 Q3.55 -6.1 3.95 -6.0 4.35 -5.95 4.35 -5.65 L4.35 -5.5 M2.65 -4.7 Q2.6 -4.8 2.6 -4.85 L2.6 -4.9 2.65 -4.95 2.7 -4.8 Q2.7 -4.75 2.8 -4.75 3.05 -4.75 3.2 -4.85 3.0 -4.6 2.9 -4.6 2.7 -4.6 2.65 -4.7 M3.1 -3.55 L3.15 -3.5 2.75 -3.4 Q2.4 -3.35 2.3 -3.3 L2.25 -3.3 Q2.25 -3.45 2.35 -3.55 2.6 -3.75 3.05 -3.65 3.05 -3.6 3.1 -3.55 M6.95 -4.25 L6.8 -4.4 6.8 -4.45 7.15 -4.5 Q7.35 -4.45 7.35 -4.3 7.35 -4.2 7.3 -4.1 L7.25 -4.0 7.2 -3.95 Q7.1 -4.25 6.95 -4.25 M6.55 -2.5 Q6.6 -2.65 6.7 -2.7 L6.75 -2.75 6.75 -2.45 6.7 -2.3 6.55 -2.2 6.5 -2.2 6.5 -2.3 Q6.5 -2.4 6.55 -2.5 M-8.25 -17.2 Q-7.9 -17.4 -7.25 -16.9 L-7.3 -16.95 -7.5 -16.95 Q-7.35 -16.9 -7.2 -16.8 -7.1 -16.7 -7.05 -16.6 -7.65 -16.6 -7.7 -16.95 -8.35 -16.85 -8.7 -15.6 L-8.95 -14.75 Q-9.1 -14.35 -9.3 -14.35 -9.45 -14.35 -9.5 -14.4 L-9.5 -14.65 Q-9.5 -15.05 -9.25 -15.3 -8.9 -15.6 -8.75 -16.25 -8.5 -17.0 -8.25 -17.2 M-8.0 -17.05 L-7.8 -17.1 -7.9 -17.1 -8.05 -17.0 -8.0 -17.05 M-5.45 -16.5 L-5.85 -16.45 -6.2 -16.35 -6.35 -16.4 Q-6.1 -16.6 -5.35 -16.6 -4.6 -16.65 -4.6 -16.25 -4.6 -16.15 -4.7 -15.9 -4.8 -15.65 -4.8 -15.45 L-4.75 -15.1 Q-4.7 -14.85 -4.65 -14.65 -4.95 -14.8 -5.15 -15.05 -5.3 -15.25 -5.3 -15.4 -5.3 -15.6 -5.1 -15.8 -4.9 -15.95 -4.9 -16.15 -4.9 -16.25 -5.1 -16.35 -5.35 -16.5 -5.45 -16.5 M-6.35 -14.5 Q-6.35 -14.4 -6.85 -14.0 -7.3 -13.65 -7.45 -13.6 L-7.5 -13.6 -7.5 -13.7 Q-7.5 -14.0 -7.2 -14.4 -6.8 -14.9 -6.4 -14.65 L-6.35 -14.6 -6.35 -14.5 M-7.05 -14.95 L-7.1 -14.95 -7.2 -14.9 Q-7.25 -14.85 -7.25 -14.95 -7.25 -15.15 -7.2 -15.1 L-7.15 -15.1 -7.05 -15.05 -7.05 -14.95 M-8.1 -11.25 L-8.6 -10.6 Q-8.9 -10.2 -8.65 -9.9 L-8.65 -9.85 -8.75 -9.85 Q-8.95 -10.35 -8.95 -10.55 -8.95 -10.9 -8.7 -11.05 -8.5 -11.25 -8.1 -11.25 M-6.45 -11.5 L-6.4 -11.3 Q-6.45 -11.25 -6.6 -11.1 -6.8 -10.9 -7.0 -10.85 -7.35 -10.7 -7.3 -10.55 -7.2 -10.4 -7.2 -10.3 -7.2 -10.15 -7.25 -10.2 L-7.3 -10.15 Q-7.4 -10.35 -7.4 -10.55 -7.4 -10.95 -7.15 -11.0 -6.75 -11.1 -6.5 -11.5 L-6.45 -11.5 M-3.65 -14.55 Q-3.8 -14.3 -4.0 -14.3 L-4.3 -14.35 -4.3 -14.45 -4.25 -14.45 Q-4.25 -14.4 -4.15 -14.4 -3.85 -14.4 -3.65 -14.7 L-3.45 -14.95 Q-3.15 -14.95 -2.95 -14.9 -2.65 -14.8 -2.75 -14.5 L-2.8 -14.5 -2.9 -14.4 -3.15 -14.65 Q-3.25 -14.8 -3.45 -14.8 -3.5 -14.8 -3.65 -14.55 M-2.6 -12.9 Q-2.6 -12.55 -3.1 -12.45 -2.85 -12.6 -2.85 -13.15 -2.85 -13.65 -2.55 -13.65 -2.6 -13.5 -2.6 -13.25 L-2.6 -12.9 M-2.1 -13.5 Q-2.3 -13.6 -2.35 -13.6 -2.1 -13.75 -1.9 -13.7 -1.75 -13.65 -1.65 -13.4 L-1.75 -13.4 -1.9 -13.35 -2.1 -13.5 M-1.65 -12.0 Q-1.8 -11.95 -1.85 -11.95 L-2.05 -11.95 -2.05 -12.05 -2.1 -12.15 Q-1.95 -12.25 -1.8 -12.2 L-1.4 -12.1 -1.65 -12.0 M-11.25 -12.15 Q-11.2 -12.15 -11.15 -12.0 L-11.45 -12.1 -11.75 -12.15 -12.1 -12.1 -12.25 -12.05 Q-12.25 -11.85 -12.25 -11.7 -12.25 -11.5 -12.35 -11.35 -12.5 -11.2 -12.55 -10.95 -12.55 -10.65 -12.6 -10.6 -12.75 -10.35 -13.3 -10.3 L-13.1 -10.0 Q-12.9 -9.7 -12.9 -9.6 L-13.1 -8.5 Q-13.1 -8.4 -12.95 -8.15 L-12.7 -7.9 -12.7 -7.85 -12.85 -7.85 Q-13.05 -7.85 -13.2 -8.15 -13.3 -8.3 -13.3 -8.4 L-13.2 -8.7 Q-13.15 -8.9 -13.15 -9.0 -13.15 -9.35 -13.45 -9.5 -13.75 -9.7 -13.75 -10.1 -13.75 -10.3 -13.3 -10.45 -12.8 -10.65 -12.7 -11.0 -12.7 -11.15 -12.7 -11.5 L-12.8 -11.9 Q-12.8 -12.25 -12.4 -12.25 L-11.45 -12.2 -11.25 -12.15 M-10.5 -11.9 Q-10.4 -11.85 -10.1 -11.75 -9.8 -11.65 -9.45 -11.65 -9.35 -11.65 -9.25 -11.5 L-9.2 -11.35 Q-9.2 -11.25 -9.3 -11.2 -9.4 -11.1 -9.5 -11.1 L-9.85 -11.1 Q-10.05 -11.2 -10.25 -11.45 L-10.5 -11.9 M-10.15 -8.65 Q-9.95 -8.85 -9.7 -8.9 -9.4 -9.0 -9.25 -8.85 -9.1 -8.75 -9.15 -8.35 L-9.2 -8.35 -9.3 -8.6 Q-9.35 -8.8 -9.4 -8.85 L-9.5 -8.8 -9.65 -8.8 -9.65 -8.65 -9.6 -8.45 Q-9.6 -8.3 -9.75 -8.15 -9.85 -8.0 -10.1 -8.0 -10.3 -8.0 -10.35 -8.15 L-10.35 -8.25 Q-10.35 -8.45 -10.15 -8.65 M-10.75 -6.1 L-10.85 -6.15 Q-10.85 -6.35 -10.6 -6.55 -10.35 -6.8 -10.15 -6.45 -10.4 -6.4 -10.5 -6.25 L-10.75 -6.1 M-10.7 -5.8 L-10.7 -5.7 Q-10.7 -5.55 -10.8 -5.45 -10.9 -5.3 -11.0 -5.3 L-10.95 -5.2 -10.85 -4.9 Q-10.85 -4.85 -11.05 -4.8 L-11.25 -4.9 -11.25 -5.25 Q-11.25 -5.4 -11.2 -5.5 -11.15 -5.65 -10.8 -5.6 L-10.75 -5.8 -10.7 -5.8 M-9.2 -1.1 Q-9.2 -1.4 -8.9 -1.3 -8.6 -1.25 -8.5 -1.0 L-8.55 -0.85 -8.6 -0.8 Q-8.65 -0.75 -8.75 -0.75 -8.95 -0.75 -9.1 -0.85 -9.2 -1.0 -9.2 -1.1 M-0.35 -8.25 L-0.3 -8.15 Q-0.7 -8.35 -0.8 -8.05 -0.9 -7.95 -0.9 -7.75 L-0.9 -7.6 Q-0.9 -7.55 -0.95 -7.55 L-1.05 -7.7 Q-1.1 -7.85 -1.1 -7.95 -1.1 -8.2 -0.95 -8.3 -0.75 -8.5 -0.35 -8.25 M-2.45 -7.5 Q-2.15 -7.5 -2.05 -7.35 L-2.6 -7.15 -2.7 -7.15 -2.7 -7.3 Q-2.7 -7.5 -2.45 -7.5 M-4.05 -6.9 Q-3.95 -6.9 -4.05 -6.8 L-3.65 -7.05 Q-3.3 -7.2 -3.3 -6.85 -3.3 -6.75 -3.35 -6.5 L-3.4 -6.2 Q-3.4 -6.1 -3.45 -6.0 L-3.45 -5.8 -3.55 -5.7 -3.65 -5.8 Q-3.7 -5.85 -3.7 -5.95 -3.7 -6.05 -3.6 -6.2 -3.55 -6.4 -3.55 -6.45 L-3.55 -6.75 -3.75 -6.55 Q-3.85 -6.45 -3.95 -6.45 -4.25 -6.45 -4.25 -6.75 L-4.2 -6.9 -4.05 -6.9 M-4.95 -9.25 Q-5.05 -9.15 -5.15 -9.15 -5.3 -9.15 -5.3 -9.25 L-5.35 -9.25 -5.35 -9.35 -4.75 -9.45 Q-4.4 -9.45 -4.4 -9.2 -4.4 -9.05 -4.6 -8.8 -4.7 -8.95 -4.6 -9.2 L-4.65 -9.25 Q-4.65 -9.3 -4.75 -9.3 -4.85 -9.3 -4.95 -9.25 M-6.0 -7.05 Q-5.8 -6.9 -5.7 -6.9 L-5.8 -6.75 Q-5.9 -6.65 -6.05 -6.65 -6.25 -6.65 -6.4 -6.85 L-6.5 -7.05 Q-6.5 -7.15 -6.4 -7.25 -6.3 -7.4 -6.1 -7.35 L-6.2 -7.25 Q-6.15 -7.15 -6.0 -7.05 M-5.6 -5.7 Q-5.5 -5.5 -5.3 -5.4 -5.05 -5.35 -4.6 -5.4 L-4.45 -5.35 -4.45 -5.1 -4.55 -5.05 -4.7 -5.05 Q-5.35 -5.05 -5.7 -5.3 L-5.65 -5.55 -5.65 -5.7 -5.6 -5.7 M-8.75 -5.25 Q-8.75 -5.6 -8.4 -5.65 -8.05 -5.7 -8.05 -5.35 L-8.15 -5.35 Q-8.25 -5.35 -8.4 -5.2 -8.55 -5.05 -8.6 -5.05 L-8.7 -5.1 Q-8.75 -5.15 -8.75 -5.25" fill="#ffc900" fill-opacity="0.7529412" fill-rule="evenodd" stroke="none"/>
    <path d="M3.15 -8.25 L3.25 -8.3 3.45 -8.1 3.25 -8.0 3.15 -8.0 Q3.1 -8.05 3.1 -8.15 3.1 -8.25 3.15 -8.25 M3.7 -5.8 L3.7 -5.95 Q3.7 -6.05 3.8 -6.1 L4.05 -6.1 4.05 -6.0 4.1 -5.95 4.05 -5.75 3.9 -5.7 3.7 -5.75 3.7 -5.8 M-6.6 -14.85 Q-6.55 -14.8 -6.55 -14.7 -6.6 -14.6 -6.7 -14.5 -6.95 -14.3 -7.1 -14.2 L-7.15 -14.2 Q-7.2 -14.2 -7.2 -14.3 -7.2 -14.5 -7.05 -14.6 L-6.65 -14.85 -6.6 -14.85 M-3.5 -7.1 Q-3.55 -6.9 -3.6 -6.8 -3.7 -6.75 -3.8 -6.75 L-4.0 -6.75 Q-4.05 -6.8 -4.05 -6.9 -4.05 -7.05 -3.55 -7.1 L-3.5 -7.1 M-5.35 -5.6 Q-5.2 -5.65 -5.0 -5.45 -4.95 -5.4 -5.05 -5.3 -5.15 -5.25 -5.25 -5.25 -5.4 -5.25 -5.45 -5.45 -5.45 -5.6 -5.35 -5.6" fill="#ffffff" fill-rule="evenodd" stroke="none"/>
  </g>
</svg>
