<?xml version="1.0" encoding="UTF-8" standalone="no"?>
<svg xmlns:ffdec="https://www.free-decompiler.com/flash" xmlns:xlink="http://www.w3.org/1999/xlink" ffdec:objectType="shape" height="24.45px" width="29.8px" xmlns="http://www.w3.org/2000/svg">
  <g transform="matrix(1.0, 0.0, 0.0, 1.0, 11.35, 24.1)">
    <path d="M14.7 -23.05 Q14.75 -22.95 14.75 -22.55 14.75 -21.95 14.35 -21.0 13.85 -19.8 13.8 -19.45 L13.75 -19.4 Q13.75 -19.35 13.9 -19.35 L14.6 -19.55 Q14.7 -19.55 15.6 -18.5 15.6 -18.1 15.15 -17.3 14.6 -16.5 14.2 -16.4 L14.2 -16.55 14.3 -17.05 14.45 -17.65 14.1 -18.05 13.65 -18.0 Q13.45 -18.0 13.35 -18.2 13.25 -18.5 13.05 -18.6 12.8 -18.45 12.7 -18.05 L12.6 -17.7 12.7 -17.55 Q13.0 -17.25 13.0 -17.15 13.0 -16.9 12.85 -16.6 12.65 -16.2 12.3 -16.15 L12.15 -16.25 Q12.2 -16.3 12.45 -16.45 12.55 -16.55 12.55 -16.7 12.55 -17.15 12.25 -17.15 11.95 -17.15 11.95 -17.7 11.95 -17.9 12.05 -19.0 12.05 -19.05 12.25 -19.45 12.45 -19.8 12.45 -19.95 L12.4 -20.25 Q12.25 -20.15 11.9 -19.9 L11.55 -19.95 11.5 -19.95 11.5 -20.15 11.4 -20.2 Q11.75 -21.0 12.4 -21.9 12.95 -22.6 13.8 -23.5 14.5 -23.45 14.7 -23.05 M11.75 -16.45 L11.75 -16.2 11.7 -16.2 11.5 -16.15 Q11.25 -16.15 11.25 -16.45 11.25 -16.5 11.35 -16.6 L11.7 -16.6 11.75 -16.45 M15.5 -15.15 Q15.25 -14.95 15.05 -14.95 L14.9 -14.95 14.75 -15.05 14.7 -15.1 14.7 -15.25 Q14.7 -15.5 16.95 -17.6 17.7 -17.75 17.95 -17.55 18.15 -17.45 18.15 -17.2 18.15 -15.95 17.55 -15.25 L17.2 -14.75 Q17.0 -14.5 17.0 -14.2 17.0 -14.0 17.2 -13.85 17.4 -13.65 17.75 -13.85 17.9 -13.75 18.2 -13.2 L18.45 -12.65 Q18.45 -12.25 18.1 -11.8 17.7 -11.3 17.05 -11.0 L17.0 -11.05 17.0 -11.2 Q17.0 -11.35 17.15 -11.7 17.3 -12.05 17.3 -12.25 17.3 -12.7 16.65 -12.95 16.0 -13.2 16.0 -13.6 16.0 -13.8 16.1 -14.15 16.25 -14.5 16.25 -14.75 L16.2 -15.25 16.1 -15.3 15.9 -15.35 Q15.7 -15.35 15.5 -15.15 M8.45 -23.85 Q9.15 -24.55 9.45 -23.25 L9.65 -23.25 9.85 -23.2 10.05 -23.4 Q10.25 -23.55 10.35 -23.55 L10.6 -23.5 10.65 -23.35 10.7 -23.15 Q10.7 -22.95 10.2 -22.0 9.7 -21.05 9.65 -20.9 9.8 -20.8 10.15 -20.75 10.35 -20.7 10.35 -20.45 L10.25 -19.6 10.15 -18.6 Q10.1 -18.55 9.95 -18.55 9.65 -18.8 9.7 -18.9 L9.9 -19.25 9.85 -19.4 9.85 -19.45 9.35 -19.45 9.05 -19.4 8.85 -19.4 8.75 -19.45 8.7 -19.9 8.65 -20.3 Q8.65 -20.35 8.8 -20.6 8.9 -20.8 8.9 -20.95 L8.75 -21.25 8.5 -21.45 8.35 -21.45 8.2 -21.4 8.2 -21.1 Q8.2 -20.6 7.9 -20.55 L6.9 -20.6 Q6.4 -20.6 6.2 -20.05 6.0 -19.45 5.9 -19.35 5.7 -19.55 5.65 -19.7 5.6 -19.75 5.6 -19.95 5.6 -20.25 5.85 -20.65 6.05 -21.05 6.35 -21.25 6.75 -21.55 7.0 -21.75 L7.55 -22.45 7.9 -23.1 Q8.2 -23.6 8.45 -23.85 M9.05 -18.05 Q9.05 -17.75 9.4 -17.7 9.75 -17.6 9.75 -17.3 9.55 -15.5 9.05 -15.5 8.9 -15.5 8.8 -15.65 8.75 -15.7 8.75 -15.75 L9.05 -16.9 Q9.05 -17.05 8.75 -17.4 8.4 -17.7 8.4 -18.0 8.4 -18.15 8.6 -18.4 8.8 -18.75 9.1 -18.75 9.15 -18.65 9.1 -18.4 L9.05 -18.05 M7.9 -14.3 L7.6 -13.95 7.55 -13.6 Q7.5 -13.35 7.2 -13.35 6.95 -13.35 6.9 -13.6 6.85 -13.7 6.9 -13.8 L6.95 -14.2 7.0 -14.65 Q7.0 -15.15 7.55 -15.05 8.15 -14.95 8.15 -14.7 8.15 -14.55 7.9 -14.3 M9.4 -16.8 Q9.35 -16.55 9.35 -16.4 9.4 -16.5 9.45 -16.65 L9.4 -16.85 9.4 -16.8 M11.4 -15.25 Q11.4 -15.05 11.55 -14.5 11.75 -13.95 11.75 -13.75 11.75 -13.35 11.5 -13.1 11.4 -13.0 11.1 -12.85 11.4 -12.75 11.4 -12.55 11.4 -12.45 11.1 -12.15 10.75 -11.8 10.55 -11.8 10.4 -11.8 10.1 -11.95 10.0 -11.75 9.95 -11.55 9.85 -11.6 9.7 -11.9 9.6 -12.2 9.6 -12.3 L9.8 -12.5 9.95 -12.75 Q9.95 -12.8 9.85 -13.05 9.75 -13.25 9.75 -13.35 9.75 -13.7 9.95 -14.0 10.15 -14.4 10.5 -14.45 10.35 -14.9 10.7 -15.45 11.0 -15.9 11.3 -16.05 11.45 -15.8 11.45 -15.6 11.4 -15.35 11.4 -15.25 M9.1 -13.75 Q9.25 -13.6 9.25 -13.5 9.25 -13.35 9.1 -13.3 9.0 -13.25 8.9 -13.25 8.8 -13.25 8.75 -13.35 L8.65 -13.5 8.7 -13.75 9.1 -13.75 M6.45 -13.1 L6.6 -13.0 Q6.7 -12.9 6.7 -12.85 6.7 -12.75 6.55 -12.3 L6.5 -12.2 Q6.5 -11.75 6.25 -11.7 L5.1 -11.75 Q4.8 -11.75 4.65 -11.55 4.55 -11.45 4.5 -11.35 L4.45 -11.35 4.4 -11.85 Q4.4 -12.1 4.8 -12.55 5.2 -13.0 5.3 -12.45 L6.4 -12.45 6.35 -12.6 Q6.3 -12.8 6.3 -12.9 6.3 -13.05 6.35 -13.05 L6.45 -13.1 M11.05 -10.55 Q11.25 -10.75 11.5 -10.8 12.2 -10.95 12.2 -9.95 11.35 -8.6 10.75 -8.6 10.65 -8.6 10.5 -8.7 L10.55 -8.6 Q10.55 -8.3 10.35 -8.2 10.15 -8.05 9.8 -8.05 L9.55 -8.05 9.8 -7.85 Q10.15 -7.6 10.15 -7.5 10.15 -7.4 9.6 -6.8 9.05 -6.2 8.95 -5.85 L8.9 -5.8 Q8.85 -6.3 8.95 -6.5 9.05 -6.95 9.6 -7.2 9.55 -7.3 9.35 -7.7 L9.1 -8.15 9.15 -8.5 Q9.15 -8.7 9.25 -8.8 L9.25 -8.95 Q9.25 -9.25 9.45 -9.25 L10.65 -9.3 10.8 -9.3 11.0 -9.35 Q11.05 -9.35 11.05 -9.5 11.05 -9.55 10.95 -9.75 10.85 -9.95 10.85 -10.0 10.85 -10.3 11.05 -10.55 M4.35 -11.1 L4.2 -10.35 Q4.1 -9.85 4.15 -9.5 L4.15 -9.45 Q4.15 -8.45 3.95 -8.1 3.8 -7.8 3.35 -7.65 2.65 -7.4 2.5 -7.3 L2.3 -7.2 Q2.75 -7.6 2.95 -7.95 L3.55 -8.85 3.9 -9.4 3.75 -9.5 3.75 -10.05 4.0 -10.65 Q4.15 -11.05 4.35 -11.1 M0.0 -4.35 L-0.1 -4.35 -0.1 -4.4 -0.15 -4.55 Q-0.15 -4.8 0.3 -5.0 L0.7 -5.15 Q0.6 -4.3 0.15 -4.3 L0.0 -4.35 M5.05 -0.5 Q5.05 -0.4 5.1 -0.25 5.2 -0.15 5.2 -0.05 5.2 0.1 5.1 0.2 4.95 0.3 4.85 0.3 4.7 0.3 4.5 0.1 4.3 -0.05 4.3 -0.1 4.3 -0.2 4.7 -0.65 5.05 -1.1 5.3 -1.25 L5.15 -0.9 Q5.05 -0.6 5.05 -0.5 M6.95 -2.95 L6.95 -2.8 Q6.85 -2.7 6.75 -2.7 6.7 -2.8 6.7 -2.85 6.8 -3.0 6.95 -2.95 M11.5 -1.0 Q11.85 -1.55 12.05 -1.5 12.05 -1.45 11.9 -0.6 11.85 -0.05 11.5 -0.05 11.15 -0.05 11.15 -0.3 11.15 -0.5 11.5 -1.0 M15.7 -12.45 Q15.7 -12.15 15.5 -11.95 15.2 -11.55 14.5 -11.55 14.0 -11.55 14.0 -11.9 L14.0 -12.1 Q13.9 -12.0 13.75 -12.0 13.5 -12.0 13.4 -12.3 13.35 -12.5 13.35 -12.65 13.35 -12.85 13.7 -13.05 14.0 -13.25 14.45 -13.3 15.5 -13.45 15.5 -12.85 15.5 -12.75 15.6 -12.65 15.7 -12.55 15.7 -12.45 M14.0 -12.45 L14.05 -12.35 14.05 -12.45 14.0 -12.45 M12.5 -11.25 Q12.45 -11.3 12.5 -11.45 12.5 -11.85 12.85 -11.85 13.25 -11.8 13.25 -11.5 13.25 -11.35 13.15 -11.25 13.05 -11.05 12.75 -11.05 12.55 -11.05 12.5 -11.25 M14.1 -10.05 Q14.1 -9.85 13.85 -9.7 13.5 -9.45 13.4 -9.25 L13.2 -9.2 13.2 -9.35 Q13.15 -9.4 13.15 -9.55 13.15 -9.75 13.45 -10.15 13.75 -10.55 14.0 -10.5 13.95 -10.45 14.0 -10.3 L14.1 -10.05 M13.65 -7.85 Q14.25 -8.0 14.25 -7.35 14.25 -7.15 14.15 -6.9 13.95 -6.5 13.6 -6.5 13.25 -6.5 13.1 -6.8 13.05 -6.95 13.05 -7.15 13.05 -7.7 13.65 -7.85 M13.7 -8.65 Q13.7 -9.15 14.05 -9.3 14.8 -9.65 15.0 -9.75 L15.35 -9.75 Q15.65 -9.35 15.7 -9.1 L15.75 -9.05 15.95 -9.05 Q16.1 -9.05 16.3 -9.2 16.45 -9.35 16.6 -9.35 16.95 -9.35 17.15 -8.9 L17.3 -8.4 17.0 -8.05 Q16.75 -7.75 16.75 -7.45 16.75 -7.25 16.45 -6.95 16.15 -6.6 15.9 -6.55 L15.85 -6.65 15.85 -6.8 Q15.85 -6.9 15.95 -7.2 L16.05 -7.55 Q16.05 -7.65 15.7 -8.35 L15.25 -8.35 15.1 -8.6 Q15.0 -8.75 14.95 -8.85 14.55 -8.9 14.4 -8.75 L14.1 -8.45 13.75 -8.45 13.7 -8.5 13.7 -8.65 M14.5 -7.3 Q14.5 -7.65 14.8 -7.6 15.15 -7.55 15.15 -7.2 15.15 -6.8 14.85 -6.8 14.6 -6.8 14.55 -7.1 14.5 -7.2 14.5 -7.3 M12.7 -5.55 Q12.5 -5.75 12.5 -5.8 L12.5 -6.0 12.8 -6.0 Q12.95 -5.95 13.0 -5.8 12.95 -5.7 12.7 -5.55 M13.2 -3.25 L13.2 -3.2 Q13.2 -3.15 13.1 -3.15 13.0 -3.15 12.8 -3.2 12.65 -3.3 12.6 -3.35 12.65 -3.5 12.7 -3.5 L13.15 -3.55 Q13.15 -3.35 13.2 -3.25 M-3.0 -10.05 Q-2.75 -10.5 -2.2 -10.5 -1.75 -10.5 -1.75 -10.15 L-1.6 -9.95 -1.45 -9.8 -1.25 -9.65 Q-1.15 -9.5 -1.15 -9.25 -1.15 -9.0 -1.2 -8.9 -1.3 -8.7 -1.8 -8.5 -2.05 -8.65 -2.05 -9.2 -2.1 -9.7 -2.6 -9.7 L-2.65 -9.7 -2.85 -9.5 -2.85 -9.4 -2.95 -9.2 Q-3.15 -9.05 -3.45 -9.1 L-3.8 -9.15 Q-3.9 -9.15 -3.95 -9.1 -4.05 -9.0 -4.1 -9.0 L-4.2 -9.0 Q-4.25 -9.0 -4.25 -9.15 -4.25 -9.55 -3.75 -9.7 -3.4 -9.75 -3.2 -9.85 -3.1 -9.95 -3.0 -10.05 M-3.35 -9.35 L-3.4 -9.3 -3.3 -9.3 -3.35 -9.35 M-3.15 -8.15 Q-3.15 -8.65 -2.8 -8.7 -2.45 -8.75 -2.45 -8.15 -2.45 -7.9 -2.55 -7.8 -2.65 -7.75 -2.8 -7.75 -3.1 -7.75 -3.15 -7.95 -3.15 -8.05 -3.15 -8.15 M-1.95 -9.65 L-2.15 -9.7 -2.25 -9.75 -2.05 -9.45 -2.0 -9.4 -1.95 -9.65 M-1.9 -10.25 Q-2.0 -10.4 -2.2 -10.4 -2.1 -10.4 -1.9 -10.25 M-7.25 -6.3 L-7.25 -6.25 Q-7.3 -6.2 -7.4 -6.2 -7.7 -6.2 -8.35 -6.95 -8.35 -7.5 -7.8 -7.2 -7.25 -6.9 -7.25 -6.45 L-7.25 -6.3 M-8.0 -4.4 Q-7.75 -4.4 -7.65 -4.2 -7.65 -4.1 -7.65 -3.9 L-7.65 -3.75 -7.8 -3.7 Q-8.15 -3.7 -8.3 -3.85 -8.35 -3.95 -8.35 -4.05 -8.35 -4.25 -8.25 -4.35 -8.2 -4.4 -8.0 -4.4 M-10.55 -1.0 L-11.0 -1.1 Q-11.25 -1.15 -11.3 -1.2 L-11.35 -1.25 -10.7 -1.6 Q-10.2 -1.8 -9.9 -1.65 L-9.9 -1.1 Q-9.95 -1.0 -10.55 -1.0 M-2.35 -4.65 Q-2.35 -5.5 -1.75 -5.3 -1.5 -5.2 -1.3 -5.0 -1.1 -4.75 -1.1 -4.5 -1.1 -4.2 -1.2 -4.05 L-1.75 -3.55 -2.15 -4.15 Q-2.35 -4.45 -2.35 -4.65 M-3.9 -6.05 L-4.55 -5.8 -4.6 -5.8 -4.6 -5.95 Q-4.6 -6.05 -4.1 -6.45 -3.65 -6.85 -3.65 -6.3 -3.65 -6.1 -3.9 -6.05 M-3.25 -5.55 Q-3.25 -5.8 -2.95 -5.8 -2.65 -5.75 -2.65 -5.45 -2.65 -5.1 -2.9 -5.1 -3.15 -5.1 -3.25 -5.55 M-5.0 -0.65 Q-4.05 -0.65 -3.75 -1.1 L-3.55 -1.5 Q-3.45 -1.7 -3.3 -1.75 L-3.25 -1.75 -3.25 -1.6 Q-3.25 -1.5 -3.45 -1.15 L-3.6 -0.75 Q-3.6 -0.5 -3.2 -0.4 -2.75 -0.3 -2.75 -0.05 -2.75 0.15 -3.0 0.25 L-3.9 0.35 Q-4.65 0.35 -4.95 -0.05 -5.15 -0.25 -5.3 -0.55 L-5.3 -0.7 -5.2 -0.7 -5.0 -0.65 M-2.2 -2.85 L-2.15 -2.7 -2.15 -2.55 -2.35 -2.5 -2.5 -2.5 -2.5 -2.7 -2.4 -2.85 -2.3 -2.95 Q-2.2 -2.95 -2.2 -2.85" fill="#ffc900" fill-opacity="0.7529412" fill-rule="evenodd" stroke="none"/>
    <path d="M13.2 -18.8 Q12.9 -18.8 12.8 -18.95 12.7 -19.05 12.7 -19.2 12.7 -19.9 13.2 -19.9 13.7 -19.85 13.7 -19.2 13.7 -18.95 13.5 -18.85 13.35 -18.8 13.2 -18.8 M16.75 -14.75 Q16.6 -14.4 16.5 -14.05 16.8 -13.85 17.05 -13.75 17.15 -13.65 17.15 -13.45 L17.1 -13.2 Q17.0 -12.95 16.8 -12.95 16.6 -12.95 16.35 -13.35 16.15 -13.7 16.15 -13.8 16.15 -13.9 16.25 -14.0 16.35 -14.15 16.35 -14.25 16.35 -14.35 16.0 -14.95 L15.65 -15.5 Q15.65 -15.9 15.85 -16.05 16.0 -16.2 16.25 -16.1 16.8 -15.95 16.8 -15.15 16.8 -14.9 16.75 -14.75 M7.55 -14.35 Q7.5 -14.45 7.5 -14.6 7.5 -14.85 7.65 -14.95 7.85 -15.1 8.15 -14.85 8.0 -14.75 7.9 -14.55 7.8 -14.35 7.65 -14.25 L7.55 -14.35 M9.8 -17.35 L9.7 -16.9 9.6 -16.4 Q9.6 -16.3 9.5 -16.1 9.4 -15.9 9.25 -15.85 L9.1 -15.85 Q9.05 -15.85 9.05 -16.0 L9.2 -16.85 Q9.2 -17.05 9.3 -17.3 9.45 -17.6 9.75 -17.6 L9.8 -17.35 M11.4 -14.85 Q11.9 -14.1 11.9 -13.85 11.9 -13.6 11.75 -13.4 11.6 -13.2 11.35 -13.2 11.1 -13.2 10.95 -14.0 10.9 -14.45 10.9 -14.75 10.9 -15.6 11.4 -14.85 M11.35 -9.9 Q11.35 -11.05 11.8 -10.9 11.95 -10.85 12.1 -10.6 12.25 -10.4 12.25 -10.15 12.25 -9.95 12.1 -9.75 12.0 -9.55 11.8 -9.55 11.55 -9.55 11.4 -9.7 11.35 -9.75 11.35 -9.9 M4.9 -0.25 L4.75 -0.1 4.65 -0.1 Q4.6 -0.1 4.6 -0.25 4.6 -0.45 4.65 -0.4 L4.75 -0.4 4.85 -0.35 4.9 -0.25 M11.25 -0.3 L11.25 -0.45 Q11.25 -0.8 11.55 -0.8 11.85 -0.85 11.85 -0.45 11.85 -0.35 11.8 -0.25 11.75 -0.15 11.55 -0.15 11.35 -0.15 11.25 -0.3 M14.5 -13.05 Q14.5 -13.45 15.0 -13.35 15.5 -13.3 15.5 -12.85 15.5 -12.3 14.95 -12.3 14.75 -12.3 14.6 -12.65 14.5 -12.85 14.5 -13.05 M13.95 -7.1 Q13.75 -7.1 13.6 -7.4 L13.5 -7.65 Q13.5 -8.05 13.9 -8.0 14.25 -8.0 14.25 -7.6 14.25 -7.1 13.95 -7.1 M16.45 -9.35 Q17.0 -9.45 17.0 -8.85 17.0 -8.25 16.55 -8.25 16.2 -8.25 16.2 -8.45 16.15 -8.6 16.2 -8.75 16.2 -8.9 16.1 -8.85 L15.95 -8.8 15.9 -8.85 15.9 -9.0 Q15.9 -9.05 16.1 -9.2 16.25 -9.3 16.45 -9.35 M-1.45 -9.25 L-1.5 -9.2 Q-1.55 -9.15 -1.7 -9.15 -1.75 -9.15 -1.95 -9.35 L-2.2 -9.6 Q-2.2 -9.9 -1.85 -9.9 -1.55 -9.95 -1.4 -9.45 L-1.45 -9.25 M-1.65 -4.6 L-1.7 -4.65 -1.7 -4.85 Q-1.7 -5.25 -1.4 -5.25 -1.1 -5.25 -1.1 -4.85 -1.1 -4.7 -1.15 -4.6 L-1.2 -4.55 Q-1.3 -4.5 -1.4 -4.5 L-1.6 -4.5 -1.65 -4.6 M-3.65 -0.05 Q-3.65 0.1 -3.8 0.2 L-4.15 0.25 Q-4.55 0.25 -4.65 0.05 L-4.65 -0.15 Q-4.65 -0.55 -4.15 -0.5 -3.65 -0.4 -3.65 -0.05" fill="#ffffff" fill-rule="evenodd" stroke="none"/>
  </g>
</svg>
