<?xml version="1.0" encoding="UTF-8" standalone="no"?>
<svg xmlns:ffdec="https://www.free-decompiler.com/flash" xmlns:xlink="http://www.w3.org/1999/xlink" ffdec:objectType="shape" height="16.15px" width="17.05px" xmlns="http://www.w3.org/2000/svg">
  <g transform="matrix(1.0, 0.0, 0.0, 1.0, 12.7, 17.0)">
    <path d="M4.2 -10.75 Q4.15 -10.65 4.1 -10.65 L3.95 -10.65 Q3.9 -10.65 3.9 -10.75 3.9 -10.85 3.95 -10.85 L4.0 -10.8 Q4.15 -10.8 4.2 -10.75 M3.05 -8.35 L3.3 -8.3 3.15 -8.3 Q3.05 -8.3 3.05 -8.35 M1.85 -7.8 L1.8 -7.65 Q1.85 -7.6 1.7 -7.6 L1.6 -7.65 Q1.7 -7.8 1.85 -7.8 M4.2 -6.0 L4.15 -6.0 Q4.05 -6.05 4.05 -6.1 4.15 -6.2 4.2 -6.15 L4.35 -6.05 4.2 -6.0 M-4.85 -16.95 L-4.85 -16.85 -4.95 -16.85 -5.05 -16.9 Q-5.1 -16.9 -5.15 -16.95 -5.1 -17.0 -5.05 -17.0 L-4.9 -17.0 -4.85 -16.95 M-6.9 -11.55 L-6.95 -11.5 -7.05 -11.5 -7.05 -11.7 -6.95 -11.65 -6.9 -11.55 M-12.55 -12.35 Q-12.55 -12.25 -12.65 -12.25 L-12.7 -12.35 -12.65 -12.45 -12.6 -12.45 -12.55 -12.35 M-10.15 -8.9 L-10.2 -8.85 -10.25 -9.0 Q-10.15 -9.05 -10.1 -9.0 L-10.15 -8.9 M-8.95 -0.9 L-9.0 -0.9 -9.1 -0.85 Q-9.15 -0.9 -9.15 -1.05 L-8.95 -1.05 -8.95 -0.9 M-3.35 -7.35 Q-3.45 -7.25 -3.5 -7.2 L-3.6 -7.25 -3.55 -7.45 -3.4 -7.45 -3.35 -7.35" fill="#ffc900" fill-opacity="0.7529412" fill-rule="evenodd" stroke="none"/>
  </g>
</svg>
