<?xml version="1.0" encoding="UTF-8" standalone="no"?>
<svg xmlns:ffdec="https://www.free-decompiler.com/flash" xmlns:xlink="http://www.w3.org/1999/xlink" ffdec:objectType="shape" height="24.15px" width="23.05px" xmlns="http://www.w3.org/2000/svg">
  <g transform="matrix(1.0, 0.0, 0.0, 1.0, 6.75, 16.15)">
    <path d="M5.7 -15.0 Q5.7 -15.4 6.05 -15.7 6.35 -16.0 6.8 -16.1 7.2 -16.2 7.5 -16.05 7.85 -15.85 7.85 -15.45 7.85 -15.15 7.65 -14.9 L7.75 -14.85 Q8.35 -14.7 8.35 -14.0 L8.35 -13.75 Q8.75 -13.65 8.75 -13.2 8.75 -13.0 8.6 -12.85 8.45 -12.7 8.2 -12.7 7.85 -12.7 7.7 -12.95 7.65 -13.1 7.65 -13.25 L7.65 -13.4 Q7.35 -13.45 7.2 -13.85 7.15 -14.05 7.15 -14.25 7.15 -14.4 7.2 -14.55 6.85 -14.4 6.4 -14.4 5.9 -14.4 5.75 -14.7 5.7 -14.85 5.7 -15.0 M7.25 -9.05 Q7.0 -9.05 6.9 -9.1 6.7 -9.2 6.45 -9.55 L6.4 -9.7 Q6.8 -10.1 7.15 -9.75 7.3 -9.6 7.5 -9.15 7.5 -9.05 7.25 -9.05 M8.1 -8.9 Q8.3 -8.7 8.3 -8.5 L8.3 -8.35 8.25 -8.25 8.25 -8.2 Q8.2 -8.1 8.05 -8.1 7.85 -8.1 7.75 -8.4 7.6 -8.65 7.6 -8.75 L7.65 -8.9 7.65 -9.0 Q7.9 -9.1 8.1 -8.9 M10.45 -9.45 Q10.3 -9.35 10.1 -9.35 9.65 -9.35 9.4 -9.7 9.3 -9.9 9.25 -10.05 9.25 -10.85 9.95 -10.55 10.25 -10.45 10.45 -10.25 10.65 -10.05 10.65 -9.9 10.65 -9.6 10.45 -9.45 M3.2 -13.6 Q3.2 -13.9 3.45 -14.1 3.65 -14.3 4.0 -14.25 4.3 -14.25 4.5 -14.05 4.75 -13.85 4.7 -13.5 L4.65 -13.25 Q4.0 -13.1 3.7 -13.1 3.4 -13.1 3.25 -13.35 3.2 -13.5 3.2 -13.6 M2.25 -9.05 Q2.25 -8.95 1.95 -8.7 L1.6 -8.45 1.35 -8.7 Q1.3 -8.75 1.3 -8.8 1.3 -9.05 1.45 -9.15 1.65 -9.35 2.1 -9.25 L2.2 -9.25 Q2.25 -9.2 2.25 -9.05 M1.25 -7.1 L1.15 -7.25 1.1 -7.5 Q1.1 -7.85 1.5 -8.1 L1.6 -7.95 Q1.5 -7.5 1.45 -7.2 L1.4 -7.15 1.25 -7.1 M0.8 -4.1 Q0.8 -4.65 1.2 -4.25 1.6 -3.9 1.6 -3.65 L1.6 -3.4 1.5 -3.3 Q1.45 -3.25 1.3 -3.25 1.0 -3.25 0.9 -3.65 0.8 -3.9 0.8 -4.1 M2.65 -2.75 Q2.75 -2.65 2.8 -2.4 L2.75 -2.3 2.55 -2.3 Q2.4 -2.3 2.2 -2.55 2.0 -2.7 1.95 -2.85 L2.2 -2.85 Q2.5 -2.85 2.65 -2.75 M5.65 -1.5 Q5.6 -1.55 5.6 -1.7 5.6 -1.85 5.65 -1.9 L5.65 -1.95 Q5.8 -1.95 6.0 -1.85 6.2 -1.75 6.3 -1.6 L6.2 -1.45 Q6.15 -1.3 6.05 -1.3 L5.8 -1.35 5.65 -1.45 5.65 -1.5 M3.4 0.0 Q3.4 0.25 3.25 0.4 3.15 0.5 2.95 0.5 2.6 0.5 2.55 0.3 L2.5 0.05 Q2.5 -0.6 2.95 -0.55 3.4 -0.55 3.4 0.0 M8.85 -3.6 L8.55 -3.4 Q8.4 -3.45 8.35 -3.5 8.6 -3.75 8.8 -3.7 L8.85 -3.6 M9.8 -4.3 Q9.75 -4.15 9.65 -3.95 9.45 -3.6 9.15 -3.6 8.9 -3.6 8.75 -3.8 8.65 -3.95 8.65 -4.0 8.65 -4.6 9.25 -4.75 9.8 -4.9 9.8 -4.3 M7.95 -6.3 Q7.8 -6.1 7.65 -6.1 L7.45 -6.15 Q7.4 -6.2 7.4 -6.35 7.4 -6.55 7.55 -6.55 L7.8 -6.55 7.95 -6.3 M13.8 -9.35 L13.3 -9.25 12.85 -9.2 Q12.4 -9.2 12.3 -9.5 L12.3 -9.7 Q12.3 -9.85 12.5 -10.15 12.7 -10.45 13.0 -10.7 13.85 -11.25 14.85 -10.45 15.1 -10.3 15.1 -9.95 15.15 -9.6 15.3 -9.5 L16.15 -8.95 Q16.3 -8.85 16.3 -8.65 16.3 -8.2 16.1 -7.85 15.75 -7.35 15.0 -7.35 14.75 -7.35 14.35 -8.05 13.95 -8.75 13.8 -9.35 M15.35 -4.2 Q15.35 -4.05 14.95 -3.45 14.5 -2.85 14.15 -2.85 13.7 -2.85 13.35 -3.15 13.1 -3.35 13.1 -3.45 13.1 -3.95 13.8 -4.85 14.45 -5.75 14.45 -6.15 14.45 -6.6 14.75 -6.7 15.0 -6.8 15.35 -6.65 15.7 -6.45 15.95 -6.15 16.25 -5.85 16.25 -5.6 16.25 -5.5 15.9 -5.15 15.55 -4.75 15.25 -4.6 L15.3 -4.5 Q15.35 -4.35 15.35 -4.2 M13.2 0.0 Q13.35 0.45 13.35 0.7 13.35 1.2 12.95 1.65 13.1 1.75 13.1 2.05 13.1 2.2 12.9 2.45 12.7 2.7 12.45 2.7 12.2 2.7 12.05 2.45 11.95 2.35 11.95 2.25 L11.5 2.3 Q11.05 2.3 10.85 2.1 10.7 1.95 10.7 1.75 10.7 1.7 11.3 0.95 11.9 0.1 11.9 -0.8 11.9 -1.3 12.35 -1.45 12.85 -1.65 13.05 -0.8 13.05 -0.5 13.2 0.0 M14.45 1.5 Q14.45 1.9 14.35 2.2 14.2 2.8 13.8 2.8 13.5 2.8 13.4 2.55 13.3 2.4 13.3 2.25 13.3 1.2 13.9 1.1 14.1 1.05 14.25 1.15 14.45 1.3 14.45 1.5 M12.35 0.85 L12.45 0.85 12.5 0.7 12.45 0.5 12.45 0.55 12.35 0.85 M12.45 3.05 Q12.9 3.15 13.2 3.5 13.55 3.9 13.55 4.45 13.55 4.95 13.15 5.25 12.6 5.65 12.35 6.4 12.15 7.05 12.05 7.25 11.55 7.95 10.6 7.95 9.65 7.95 9.25 7.1 9.15 6.85 9.1 6.5 L9.05 6.25 9.05 5.8 Q9.15 5.4 9.6 5.4 9.8 5.4 10.15 5.7 10.45 5.95 10.7 5.95 10.85 5.8 10.85 5.5 L10.85 5.0 Q10.85 4.4 11.5 4.2 L11.4 4.1 Q11.3 4.0 11.3 3.8 11.3 3.95 11.15 4.05 10.9 4.3 10.05 4.3 9.0 4.3 8.75 3.7 8.7 3.55 8.75 3.35 8.6 3.45 8.4 3.45 8.25 3.45 8.15 3.4 L8.05 3.2 Q7.8 3.0 6.95 3.0 L6.45 3.05 6.0 3.15 Q5.4 3.15 4.8 3.45 4.2 3.8 3.9 3.8 3.15 3.8 2.75 2.8 2.6 2.5 2.55 2.15 2.5 1.85 2.5 1.8 2.5 1.55 2.65 1.45 2.8 1.35 3.0 1.35 L3.85 1.65 Q4.65 1.95 4.75 1.95 5.15 1.95 5.45 1.7 L5.9 1.3 Q6.45 0.85 7.2 1.55 7.65 1.8 8.45 2.1 8.8 2.3 8.95 2.55 9.05 2.45 9.15 2.35 9.5 2.2 10.05 2.35 10.55 2.55 10.95 2.9 11.35 3.25 11.35 3.5 L11.35 3.6 Q11.4 3.3 11.65 3.15 12.0 2.95 12.45 3.05 M12.45 4.65 Q12.5 4.6 12.5 4.45 12.5 4.25 12.45 4.2 12.35 4.1 12.25 4.15 12.2 4.15 12.2 4.3 12.2 4.45 12.25 4.5 L12.25 4.65 12.45 4.65 M9.55 3.3 Q9.55 3.5 9.6 3.5 L10.4 3.5 Q10.35 3.45 9.95 3.35 L9.55 3.3 M8.1 5.65 Q8.9 6.1 8.9 6.4 8.9 6.85 8.4 7.3 7.65 8.0 6.35 8.0 5.2 8.0 4.25 6.6 3.95 6.15 3.7 5.6 L3.5 5.2 Q3.5 4.75 4.35 4.75 5.1 4.7 6.2 5.0 7.3 5.25 8.1 5.65 M7.7 6.8 Q7.9 6.65 8.0 6.4 L8.0 6.35 6.1 5.95 4.55 5.65 4.6 5.65 Q4.8 5.8 5.2 6.45 5.65 7.05 6.3 7.05 7.3 7.05 7.7 6.8 M3.45 2.65 L3.65 2.75 3.7 2.8 3.9 2.8 Q3.85 2.75 3.65 2.7 L3.45 2.65 M1.05 1.45 Q1.85 1.5 1.85 2.45 1.85 2.75 1.75 2.95 1.65 3.25 1.3 3.25 0.6 3.25 0.2 2.1 0.2 1.8 0.45 1.6 0.7 1.4 1.05 1.45 M0.3 1.4 Q0.15 1.65 0.0 1.65 -0.4 1.65 -0.55 1.2 -0.7 0.85 -0.7 0.55 -0.7 0.3 -0.5 0.15 -0.35 0.05 -0.1 0.1 0.45 0.25 0.45 0.95 0.45 1.15 0.3 1.4 M-2.4 -12.25 Q-2.4 -12.8 -1.75 -12.9 -1.1 -13.05 -1.1 -12.5 -1.1 -12.35 -1.35 -12.05 -1.65 -11.65 -1.9 -11.65 -2.25 -11.65 -2.35 -11.95 -2.4 -12.1 -2.4 -12.25 M-3.2 -8.75 L-3.9 -8.1 Q-4.9 -7.05 -4.9 -5.9 -4.9 -5.7 -4.35 -5.25 -3.8 -4.8 -3.8 -4.4 -3.8 -4.1 -4.0 -3.8 -4.1 -3.65 -4.25 -3.6 -4.1 -3.55 -3.85 -3.3 -3.45 -2.9 -3.0 -2.1 L-2.75 -2.3 -2.2 -2.35 Q-1.7 -2.35 -1.45 -1.85 L-1.3 -1.3 Q-1.3 -1.0 -2.05 -0.5 -2.75 0.0 -2.95 0.0 -3.95 0.0 -4.35 -1.45 -4.55 -2.15 -4.55 -2.85 -4.55 -3.3 -4.45 -3.5 L-4.65 -3.45 Q-5.4 -3.45 -6.75 -5.7 -6.75 -6.0 -6.35 -6.4 -5.95 -6.8 -5.95 -6.9 -5.95 -7.2 -6.05 -7.4 -6.2 -7.6 -6.2 -7.9 -6.2 -8.15 -5.95 -8.25 -5.55 -8.35 -5.3 -8.9 -5.15 -9.2 -5.1 -9.55 -5.05 -9.7 -4.45 -9.7 L-3.3 -9.85 Q-2.9 -9.85 -2.9 -9.1 -2.9 -9.05 -3.2 -8.75 M-1.4 -3.7 Q-1.65 -3.25 -2.05 -3.25 -2.7 -3.25 -2.85 -3.95 -2.95 -4.35 -2.9 -4.75 -2.9 -5.05 -2.65 -5.25 -2.4 -5.4 -2.05 -5.4 -1.2 -5.4 -1.2 -4.45 -1.2 -4.1 -1.4 -3.7 M-3.55 -1.1 Q-3.35 -0.95 -3.1 -1.0 -3.25 -1.05 -3.55 -1.3 -3.75 -1.45 -3.75 -1.35 L-3.55 -1.1" fill="#ccfeff" fill-opacity="0.6" fill-rule="evenodd" stroke="none"/>
    <path d="M7.0 -15.15 L6.75 -15.25 Q6.6 -15.25 6.5 -15.15 6.4 -15.05 6.3 -15.05 L6.1 -15.05 Q5.9 -15.05 5.9 -15.0 5.85 -14.95 5.85 -15.05 5.85 -15.3 6.55 -15.55 7.3 -15.85 7.6 -15.5 7.4 -15.1 7.2 -15.1 L7.0 -15.15 M8.0 -14.45 Q8.2 -14.2 8.2 -14.1 8.2 -14.0 8.15 -13.9 8.1 -13.8 8.0 -13.8 7.75 -13.8 7.7 -14.15 L7.65 -14.65 7.7 -14.75 7.75 -14.75 8.0 -14.45 M8.3 -13.4 Q8.4 -13.35 8.4 -13.25 L8.4 -13.1 8.3 -13.05 Q8.2 -13.05 8.15 -13.15 8.1 -13.3 8.1 -13.35 L8.3 -13.4 M10.2 -9.8 L10.05 -9.8 Q9.85 -9.8 9.75 -10.0 9.7 -10.1 9.7 -10.2 9.7 -10.35 9.75 -10.3 9.9 -10.35 10.1 -10.25 10.3 -10.1 10.3 -9.95 10.3 -9.85 10.2 -9.8 M4.4 -13.5 Q4.25 -13.35 4.15 -13.35 3.45 -13.35 3.45 -13.85 3.45 -14.15 3.9 -13.95 L4.6 -13.65 4.4 -13.5 M3.7 -13.8 L3.7 -13.8 3.9 -13.85 3.95 -13.9 3.75 -13.9 Q3.7 -13.9 3.7 -13.8 M13.15 -10.35 Q13.65 -10.7 13.85 -10.7 13.9 -10.7 14.6 -10.3 15.35 -9.85 15.35 -9.8 15.35 -9.7 15.3 -9.65 15.15 -9.55 14.95 -9.4 L14.95 -9.35 15.3 -9.2 Q15.65 -9.05 15.75 -8.95 L15.9 -8.7 15.9 -8.45 Q15.9 -8.3 15.85 -8.1 15.7 -7.8 15.45 -7.8 15.4 -7.8 15.25 -7.95 15.15 -8.05 15.15 -8.15 15.15 -8.25 15.3 -8.65 14.85 -8.75 14.65 -8.95 14.45 -9.15 14.45 -9.4 14.4 -9.65 14.2 -9.9 13.9 -10.1 13.8 -10.2 L13.55 -9.9 Q13.3 -9.7 13.0 -9.7 12.85 -9.7 12.7 -9.75 L12.45 -9.9 13.15 -10.35 M14.85 -6.4 Q14.9 -6.6 15.05 -6.7 L15.1 -6.55 Q15.25 -6.55 15.45 -6.35 L15.7 -6.15 Q16.2 -6.05 16.2 -5.65 16.2 -5.6 15.8 -5.2 L15.35 -4.8 15.2 -4.5 Q15.2 -4.2 14.9 -3.75 14.5 -3.2 14.0 -3.2 13.85 -3.2 13.8 -3.3 L13.7 -3.3 13.6 -3.35 13.6 -3.45 13.7 -3.5 13.75 -3.5 13.75 -3.55 Q13.75 -3.75 14.0 -3.9 L14.85 -4.3 Q14.8 -4.4 14.8 -4.55 14.8 -4.85 14.9 -4.85 L15.05 -4.85 15.15 -4.95 15.15 -5.0 15.35 -5.3 Q15.55 -5.5 15.55 -5.7 15.35 -5.75 15.15 -5.95 L15.0 -5.95 Q14.85 -6.05 14.85 -6.3 L14.85 -6.4 M12.75 -1.1 Q13.05 -1.0 13.05 -0.55 13.05 -0.3 12.95 -0.15 L12.9 -0.1 12.9 0.0 Q12.8 0.2 12.8 0.35 12.8 0.45 12.9 0.6 13.0 0.75 13.0 0.85 13.0 1.3 12.7 1.45 12.25 1.7 10.85 1.9 L10.75 1.95 Q10.65 1.9 10.65 1.8 L10.75 1.8 Q10.75 1.6 11.0 1.55 L11.2 1.55 11.2 1.5 Q11.2 1.35 11.25 1.25 11.35 1.15 11.75 1.2 L12.2 1.2 Q12.3 1.05 12.35 0.7 L12.35 0.15 Q12.35 0.1 12.3 -0.05 12.2 -0.15 12.2 -0.25 12.2 -0.45 12.25 -0.6 12.35 -0.75 12.35 -1.15 12.6 -1.15 12.75 -1.1 M13.85 1.25 Q14.15 1.25 14.25 1.6 14.3 1.75 14.25 1.95 L14.25 2.2 13.9 2.5 Q13.8 2.5 13.75 2.45 L13.85 1.65 13.85 1.25 M12.75 2.3 Q12.6 2.5 12.4 2.5 12.2 2.5 12.2 2.3 12.2 1.95 12.5 1.85 12.85 1.7 12.85 2.0 12.85 2.15 12.75 2.3 M12.35 3.85 Q12.35 3.25 12.7 3.5 13.05 3.7 13.05 4.35 13.05 4.85 12.65 5.05 12.25 5.25 12.25 5.65 12.25 5.9 11.95 6.6 11.5 7.45 11.05 7.45 10.4 7.45 10.2 7.2 10.2 7.15 10.15 6.75 L9.75 6.7 9.75 6.6 9.7 6.6 Q9.5 6.6 9.45 6.5 L9.45 6.35 Q9.45 5.85 9.85 5.9 10.15 5.95 10.25 6.2 10.45 6.2 10.65 6.25 10.95 6.4 10.9 6.7 L10.9 6.8 Q11.05 6.7 11.4 6.15 11.75 5.7 11.75 5.6 L11.55 5.0 Q11.55 4.9 11.8 4.8 L12.3 4.5 12.4 4.1 12.35 3.85 M11.6 6.7 L11.55 6.75 11.55 6.8 11.6 6.75 11.6 6.7 M9.85 3.0 Q10.3 2.95 10.5 3.15 10.65 3.3 10.65 3.5 10.65 3.7 10.5 3.85 10.25 4.1 9.75 4.1 9.45 4.1 9.3 3.55 L9.25 3.0 Q9.25 2.6 9.4 2.5 9.6 2.4 9.85 3.0 M6.0 2.3 L6.1 2.3 Q6.2 2.3 6.4 2.1 6.55 1.9 6.9 1.9 7.4 1.9 7.6 2.35 7.8 2.8 8.05 2.8 L8.25 2.75 8.35 2.7 8.5 2.85 Q8.5 3.0 8.35 3.1 L8.15 3.15 Q7.95 3.15 7.65 2.8 L7.4 2.5 Q6.9 2.5 6.65 2.75 6.4 3.0 6.1 3.0 5.85 3.0 5.7 2.75 L5.65 2.7 4.9 2.8 4.45 2.9 4.4 2.9 Q4.05 3.25 3.95 3.25 3.35 3.25 3.1 2.9 3.0 2.7 3.0 2.35 L3.05 2.2 3.0 2.15 Q3.0 2.05 3.1 1.95 3.15 1.7 3.25 1.7 L3.25 1.75 Q3.3 1.7 3.35 1.7 3.4 1.75 3.35 1.8 L3.6 2.1 3.85 2.35 Q4.1 2.35 4.6 2.2 5.1 2.05 5.3 2.05 5.6 2.05 5.85 2.2 L6.0 2.3 M7.1 6.2 L8.1 6.1 Q8.5 6.1 8.5 6.35 8.5 6.85 8.0 7.15 7.45 7.5 6.45 7.5 6.1 7.5 5.85 7.4 5.55 7.25 5.55 7.05 4.65 7.1 4.15 6.5 3.8 6.05 3.8 5.65 3.8 5.05 4.15 5.0 4.4 4.95 5.0 5.25 L6.05 5.85 Q6.7 6.2 7.1 6.2 M0.1 1.25 Q0.05 1.35 -0.2 1.35 -0.35 1.35 -0.5 1.1 L-0.6 0.85 Q-0.6 0.25 -0.25 0.3 0.1 0.4 0.1 1.0 L0.1 1.25 M1.35 2.25 Q1.65 2.25 1.75 2.4 1.8 2.45 1.75 2.5 L1.7 2.65 1.65 2.75 0.95 2.75 0.65 2.5 Q0.5 2.3 0.5 2.2 0.5 1.7 0.9 1.95 1.1 2.05 1.35 2.25 M-1.4 -12.6 Q-1.4 -12.55 -1.55 -12.55 -1.55 -12.35 -1.55 -12.3 -1.65 -12.15 -1.85 -12.15 L-2.0 -12.2 -2.0 -12.25 -2.05 -12.35 Q-2.05 -12.6 -1.9 -12.7 -1.75 -12.8 -1.4 -12.6 M-4.15 -9.1 Q-4.25 -9.1 -4.35 -9.0 L-4.4 -8.9 Q-4.4 -8.85 -4.35 -8.8 -4.3 -8.75 -4.3 -8.7 -4.3 -8.4 -4.55 -8.05 -4.85 -7.65 -5.2 -7.6 L-5.15 -7.5 -5.1 -7.55 -5.15 -7.45 -5.0 -7.2 Q-4.9 -7.05 -4.9 -6.9 -4.9 -6.6 -5.15 -6.3 L-5.3 -6.2 -5.25 -6.15 Q-5.2 -6.05 -5.2 -5.95 -5.2 -5.85 -5.3 -5.75 L-5.0 -5.15 Q-4.65 -4.5 -4.65 -4.35 L-4.65 -4.2 -4.7 -4.1 -4.75 -4.1 Q-4.85 -4.1 -5.0 -4.3 L-5.05 -4.3 Q-5.45 -4.3 -5.55 -4.6 -5.65 -4.8 -5.65 -5.05 -5.7 -5.15 -6.1 -5.3 -6.5 -5.4 -6.5 -5.6 -6.5 -6.0 -6.05 -6.45 -6.0 -6.65 -5.85 -6.7 L-5.75 -6.75 -5.5 -6.95 Q-5.5 -7.15 -5.6 -7.4 -5.7 -7.6 -5.7 -7.9 -5.7 -8.2 -5.65 -8.25 L-5.05 -8.3 Q-4.95 -8.3 -4.85 -8.45 -4.75 -8.6 -4.75 -8.65 L-4.85 -8.8 Q-4.9 -8.95 -4.9 -9.0 -4.9 -9.25 -4.7 -9.45 -4.4 -9.75 -3.85 -9.75 -3.55 -9.75 -3.35 -9.55 -3.2 -9.4 -3.2 -9.3 -3.2 -9.15 -3.3 -9.1 -3.4 -9.0 -3.65 -9.0 L-4.15 -9.1 M-4.5 -9.45 L-4.65 -9.25 -4.4 -9.45 -4.5 -9.45 M-5.95 -5.95 L-5.95 -5.9 -5.9 -5.85 -5.95 -5.95 M-1.8 -3.9 Q-2.0 -3.8 -2.05 -3.8 -2.25 -3.8 -2.35 -4.1 L-2.45 -4.35 Q-2.45 -4.5 -2.3 -4.75 -2.2 -4.95 -2.05 -5.0 -1.65 -5.15 -1.65 -4.1 -1.65 -4.05 -1.8 -3.9 M-3.75 -2.65 Q-3.75 -2.55 -3.8 -2.45 L-3.85 -2.3 Q-3.85 -2.2 -3.5 -1.65 -3.1 -1.1 -3.0 -1.1 L-2.75 -1.2 -2.5 -1.25 -2.4 -1.25 Q-2.6 -1.4 -2.65 -1.65 L-2.65 -1.6 -2.5 -1.6 -2.15 -1.65 -1.75 -1.85 Q-1.5 -1.95 -1.5 -1.5 -1.5 -1.35 -1.55 -1.2 -1.65 -1.0 -1.8 -1.0 L-2.0 -1.0 -2.0 -0.85 Q-2.0 -0.65 -2.35 -0.5 -2.65 -0.3 -2.95 -0.3 -3.9 -0.3 -4.1 -1.05 -4.2 -1.4 -4.1 -1.8 L-4.15 -2.65 -4.3 -2.8 Q-4.4 -2.9 -4.4 -2.95 -4.4 -3.25 -4.1 -3.15 -3.75 -3.0 -3.75 -2.65 M-1.4 -2.0 L-1.4 -1.9 -1.5 -1.85 -1.55 -1.9 Q-1.6 -1.9 -1.6 -2.0 L-1.55 -2.1 -1.5 -2.15 -1.4 -2.1 -1.4 -2.0" fill="#ffffff" fill-opacity="0.7529412" fill-rule="evenodd" stroke="none"/>
  </g>
</svg>
