<?xml version="1.0" encoding="UTF-8" standalone="no"?>
<svg xmlns:ffdec="https://www.free-decompiler.com/flash" xmlns:xlink="http://www.w3.org/1999/xlink" ffdec:objectType="shape" height="25.4px" width="25.65px" xmlns="http://www.w3.org/2000/svg">
  <g transform="matrix(1.0, 0.0, 0.0, 1.0, 8.35, 16.35)">
    <path d="M4.05 -14.7 Q4.0 -14.55 3.8 -14.5 L3.6 -14.6 3.65 -14.75 3.8 -14.9 Q3.95 -14.85 4.05 -14.7 M6.75 -16.05 L6.7 -15.9 Q6.6 -15.75 6.45 -15.7 L6.2 -15.9 6.15 -16.0 6.3 -16.1 Q6.45 -16.2 6.45 -16.35 L6.75 -16.05 M8.85 -13.05 Q8.8 -13.0 8.65 -13.0 L8.5 -13.05 8.45 -13.1 Q8.6 -13.4 8.8 -13.4 8.9 -13.25 8.9 -13.1 L8.85 -13.05 M10.25 -10.4 Q10.25 -10.7 10.55 -10.65 L10.6 -10.55 Q10.5 -10.45 10.35 -10.35 L10.25 -10.4 M1.6 -9.55 Q1.55 -9.4 1.35 -9.4 L1.35 -9.45 1.3 -9.55 1.3 -9.65 1.55 -9.65 1.6 -9.55 M9.4 -4.2 L9.45 -4.25 9.6 -4.25 9.8 -4.15 9.8 -4.1 9.85 -4.05 Q9.8 -3.95 9.65 -3.95 L9.4 -4.0 9.3 -4.05 Q9.3 -4.1 9.4 -4.2 M14.35 -11.7 Q14.35 -11.6 14.4 -11.5 L14.35 -11.2 14.25 -11.15 14.1 -11.05 13.85 -11.3 Q13.8 -11.35 13.8 -11.4 13.8 -11.6 13.85 -11.7 13.95 -11.85 14.35 -11.7 M17.3 -8.85 L17.3 -8.7 17.0 -8.55 16.8 -8.7 16.75 -8.75 Q16.7 -8.85 16.7 -8.9 16.7 -9.1 17.0 -9.2 17.3 -9.3 17.3 -8.9 L17.3 -8.85 M16.85 -6.2 L16.9 -6.0 16.9 -5.85 16.85 -5.85 Q16.75 -5.75 16.6 -5.75 L16.3 -5.8 16.25 -5.85 Q16.25 -5.9 16.25 -6.05 16.25 -6.2 16.35 -6.25 16.5 -6.35 16.85 -6.3 L16.85 -6.2 M15.25 -5.4 Q15.25 -5.35 15.1 -5.25 L14.9 -5.15 14.85 -5.2 14.7 -5.3 Q14.75 -5.5 14.9 -5.55 15.0 -5.6 15.2 -5.55 L15.25 -5.4 M15.05 -3.05 L15.1 -2.9 Q15.05 -2.7 14.8 -2.7 14.6 -2.8 14.55 -2.85 14.5 -2.9 14.5 -3.0 14.8 -3.2 15.05 -3.05 M14.65 1.9 Q14.6 2.05 14.4 2.1 L14.3 2.1 Q14.25 2.1 14.25 1.95 L14.25 1.8 14.3 1.75 14.55 1.75 14.65 1.9 M11.65 2.3 L11.4 2.35 11.25 2.3 11.2 2.3 11.15 2.25 11.15 1.9 11.7 1.95 11.7 2.25 11.65 2.3 M13.8 4.25 Q14.0 4.45 14.0 4.65 13.9 4.8 13.8 4.8 L13.65 4.8 Q13.6 4.75 13.6 4.6 13.6 4.4 13.7 4.35 13.75 4.25 13.8 4.25 M12.7 8.45 L12.65 8.7 12.55 8.75 12.35 8.75 12.15 8.6 Q12.05 8.5 12.05 8.4 12.05 8.3 12.15 8.2 L12.65 8.15 Q12.65 8.25 12.7 8.45 M7.05 3.5 L7.1 3.55 7.1 3.65 7.05 3.75 Q7.0 3.8 6.95 3.8 L6.7 3.65 Q6.75 3.55 6.85 3.5 L7.05 3.5 M10.65 4.75 L10.7 4.85 Q10.65 4.95 10.45 5.0 L10.35 5.0 Q10.3 5.0 10.3 4.85 L10.3 4.65 10.4 4.65 10.6 4.7 10.65 4.75 M3.85 4.25 Q3.7 4.35 3.55 4.35 L3.35 4.35 3.35 4.3 3.3 4.25 3.3 4.1 Q3.3 3.85 3.7 3.95 4.1 4.05 4.15 4.15 4.05 4.15 3.85 4.25 M5.65 8.3 L5.3 8.3 Q5.25 8.3 5.25 8.15 L5.25 8.0 5.4 7.95 Q5.65 8.05 5.65 8.25 L5.65 8.3 M3.95 7.35 Q3.9 7.45 3.9 7.55 3.85 7.65 3.6 7.7 L3.5 7.7 Q3.45 7.65 3.45 7.5 L3.6 7.4 Q3.7 7.35 3.7 7.15 3.95 7.25 3.95 7.35 M11.2 8.95 L11.1 9.0 10.95 9.05 10.75 8.9 Q10.85 8.8 10.9 8.75 L11.2 8.7 11.25 8.85 11.2 8.95 M6.85 8.35 Q6.95 8.4 7.05 8.55 L6.9 8.7 Q6.8 8.75 6.75 8.75 L6.55 8.6 Q6.7 8.35 6.85 8.35 M-2.4 -13.3 Q-2.25 -13.2 -2.2 -13.15 -2.15 -13.05 -2.15 -12.85 L-2.15 -12.7 -2.2 -12.75 -2.25 -12.65 -2.55 -12.9 -2.65 -13.1 Q-2.65 -13.25 -2.55 -13.3 L-2.4 -13.3 M-4.85 -10.6 Q-4.75 -10.6 -4.65 -10.55 -4.7 -10.4 -4.9 -10.3 L-5.05 -10.3 Q-5.1 -10.3 -5.1 -10.45 -5.1 -10.7 -5.1 -10.6 L-4.85 -10.6 M-5.75 -8.95 L-6.05 -8.85 -6.2 -8.9 Q-6.25 -8.9 -6.25 -9.05 L-6.25 -9.25 Q-6.05 -9.3 -5.8 -9.15 L-5.75 -8.95 M-7.85 -5.3 L-7.85 -5.25 Q-7.9 -5.2 -8.05 -5.2 -8.15 -5.2 -8.35 -5.5 L-8.3 -5.75 -8.0 -5.75 Q-7.8 -5.65 -7.8 -5.5 L-7.85 -5.3 M-6.6 -4.65 L-6.55 -4.5 -6.65 -4.35 -7.0 -4.35 -7.0 -4.5 Q-7.0 -4.65 -6.95 -4.7 L-6.85 -4.7 -6.6 -4.65 M-4.4 -1.7 Q-4.5 -1.5 -4.6 -1.45 L-4.75 -1.5 -4.75 -1.7 Q-4.75 -1.85 -4.7 -1.85 L-4.5 -1.85 -4.4 -1.7 M-4.2 0.05 Q-4.15 0.1 -4.15 0.2 -4.15 0.45 -4.2 0.45 L-4.4 0.55 -4.6 0.35 -4.65 0.2 Q-4.65 -0.1 -4.2 0.0 L-4.2 0.05" fill="#ccfeff" fill-opacity="0.6" fill-rule="evenodd" stroke="none"/>
    <path d="M4.0 -14.55 Q3.95 -14.5 3.85 -14.5 L3.8 -14.45 3.8 -14.7 3.9 -14.7 Q4.0 -14.6 4.0 -14.55 M6.65 -16.15 L6.6 -16.1 6.45 -16.05 Q6.3 -16.05 6.25 -16.15 L6.35 -16.25 Q6.4 -16.3 6.65 -16.25 L6.65 -16.15 M14.45 -11.5 Q14.45 -11.45 14.35 -11.45 L14.25 -11.45 14.15 -11.5 14.15 -11.55 Q14.15 -11.65 14.25 -11.7 L14.35 -11.75 Q14.5 -11.7 14.5 -11.6 L14.45 -11.5 M17.15 -8.75 L17.05 -8.65 16.9 -8.8 Q16.9 -8.95 17.0 -8.95 L17.15 -8.75 M13.8 -0.6 Q13.75 -0.5 13.65 -0.4 L13.55 -0.45 13.55 -0.55 Q13.55 -0.65 13.6 -0.65 L13.65 -0.7 13.7 -0.65 13.8 -0.6 M15.0 -2.9 L15.1 -2.85 Q15.15 -2.8 15.0 -2.8 L14.9 -2.8 14.9 -2.85 15.0 -2.9 M14.85 1.95 L14.8 2.05 14.75 1.95 14.75 1.9 14.8 1.9 14.85 1.95 M12.45 8.4 Q12.35 8.4 12.35 8.35 L12.45 8.25 12.65 8.25 12.45 8.4 M10.45 4.7 L10.2 4.7 10.1 4.65 Q10.1 4.75 10.1 4.6 10.1 4.5 10.25 4.5 10.4 4.5 10.5 4.55 L10.45 4.7 M0.85 3.25 L0.7 3.3 0.5 3.25 0.45 3.25 0.45 3.1 Q0.65 3.1 0.85 3.2 L0.85 3.25 M11.25 8.75 Q11.2 8.8 11.05 8.8 10.85 8.8 10.75 8.65 10.7 8.6 10.7 8.5 L11.25 8.5 11.35 8.55 11.25 8.75 M7.0 8.3 L7.1 8.4 Q6.9 8.55 6.75 8.6 L6.6 8.55 6.6 8.5 6.55 8.4 Q6.55 8.35 6.65 8.3 L7.0 8.3 M-4.7 -10.4 L-4.8 -10.3 -4.95 -10.3 -4.95 -10.4 Q-4.95 -10.5 -4.85 -10.5 L-4.7 -10.45 -4.7 -10.4 M-7.5 -5.25 L-7.55 -5.2 Q-7.65 -5.3 -7.75 -5.45 L-7.85 -5.6 -7.8 -5.7 Q-7.75 -5.7 -7.75 -5.75 L-7.5 -5.25 M-4.35 0.4 Q-4.35 0.45 -4.45 0.45 -4.6 0.45 -4.8 0.15 L-4.75 0.1 -4.5 0.25 Q-4.35 0.3 -4.35 0.35 L-4.35 0.4" fill="#ffffff" fill-opacity="0.7529412" fill-rule="evenodd" stroke="none"/>
  </g>
</svg>
