<?xml version="1.0" encoding="UTF-8" standalone="no"?>
<svg xmlns:ffdec="https://www.free-decompiler.com/flash" xmlns:xlink="http://www.w3.org/1999/xlink" ffdec:objectType="shape" height="4.4px" width="4.85px" xmlns="http://www.w3.org/2000/svg">
  <g transform="matrix(1.0, 0.0, 0.0, 1.0, 2.5, 4.4)">
    <path d="M0.2 -4.25 L0.2 -4.05 0.15 -3.95 Q0.05 -3.8 -0.1 -3.85 -0.25 -3.85 -0.3 -3.95 L-0.3 -4.15 Q-0.25 -4.35 -0.05 -4.4 L0.15 -4.3 0.2 -4.25 M1.25 -2.8 Q1.2 -3.0 1.1 -3.15 L1.0 -3.5 Q0.9 -3.55 0.9 -3.7 L0.95 -4.0 0.95 -4.05 Q1.0 -4.15 1.1 -4.1 L1.1 -4.15 Q1.3 -4.15 1.4 -3.95 L1.45 -3.85 Q1.7 -3.65 1.85 -3.3 1.9 -3.55 2.05 -3.75 2.4 -3.3 2.35 -2.65 2.35 -2.2 2.15 -1.85 L2.15 -1.35 2.2 -1.2 2.2 -1.15 2.1 -1.1 2.1 -0.95 1.55 -0.45 Q1.05 -0.2 0.55 -0.1 L-0.75 -0.15 Q-1.3 -0.35 -1.85 -0.75 L-1.9 -0.75 -2.15 -1.0 -2.2 -0.95 -2.2 -1.15 -2.15 -1.45 -2.45 -1.6 -2.5 -1.85 Q-2.5 -2.05 -2.35 -2.1 L-2.2 -2.1 -2.2 -2.35 Q-2.2 -2.8 -1.85 -3.0 -1.65 -3.0 -1.6 -2.75 L-1.55 -2.5 -1.4 -2.65 Q-1.2 -2.85 -0.9 -2.8 L-0.8 -2.7 -0.95 -2.75 -1.05 -2.8 -1.15 -2.75 -1.25 -2.65 -1.3 -2.55 -1.25 -2.35 -1.25 -2.25 Q-1.0 -2.1 -0.85 -2.35 -0.75 -2.5 -0.8 -2.65 L-0.7 -2.5 -0.45 -2.1 Q0.05 -2.2 0.05 -2.8 0.05 -3.25 0.45 -3.4 0.75 -3.35 0.95 -3.15 1.1 -3.0 1.05 -2.8 1.15 -2.75 1.25 -2.8 M1.45 -2.25 L1.35 -2.2 Q1.25 -2.1 1.25 -2.0 L1.25 -1.8 Q1.3 -1.4 1.55 -1.65 L1.65 -1.8 1.65 -1.85 Q1.65 -1.95 1.45 -2.25 M1.15 -3.7 L1.1 -3.55 Q1.25 -3.4 1.4 -3.5 1.55 -3.75 1.3 -3.85 L1.3 -3.8 Q1.2 -3.8 1.15 -3.7 M0.45 -3.15 L0.4 -3.1 Q0.25 -3.0 0.25 -2.8 0.25 -2.7 0.3 -2.65 0.45 -2.55 0.55 -2.55 0.7 -2.55 0.75 -2.6 L0.85 -2.8 0.8 -2.95 0.8 -3.05 Q0.75 -3.15 0.65 -3.15 L0.45 -3.15 M1.35 -2.55 L1.1 -2.55 1.0 -2.4 Q1.2 -2.35 1.35 -2.5 L1.35 -2.55 M-1.1 -4.25 L-0.95 -4.2 -0.85 -4.15 Q-0.8 -3.85 -1.0 -3.6 L-1.5 -3.55 -1.45 -3.9 Q-1.35 -4.15 -1.1 -4.25" fill="#cccccc" fill-rule="evenodd" stroke="none"/>
    <path d="M-0.8 -2.7 L-0.8 -2.65 Q-0.75 -2.5 -0.85 -2.35 -1.0 -2.1 -1.25 -2.25 L-1.25 -2.35 -1.3 -2.55 -1.25 -2.65 -1.15 -2.75 -1.05 -2.8 -0.95 -2.75 -0.8 -2.7 M0.45 -3.15 L0.65 -3.15 Q0.75 -3.15 0.8 -3.05 L0.8 -2.95 0.85 -2.8 0.75 -2.6 Q0.7 -2.55 0.55 -2.55 0.45 -2.55 0.3 -2.65 0.25 -2.7 0.25 -2.8 0.25 -3.0 0.4 -3.1 L0.45 -3.15 M1.15 -3.7 Q1.2 -3.8 1.3 -3.8 L1.3 -3.85 Q1.55 -3.75 1.4 -3.5 1.25 -3.4 1.1 -3.55 L1.15 -3.7 M1.45 -2.25 Q1.65 -1.95 1.65 -1.85 L1.65 -1.8 1.55 -1.65 Q1.3 -1.4 1.25 -1.8 L1.25 -2.0 Q1.25 -2.1 1.35 -2.2 L1.45 -2.25 M1.35 -2.55 L1.35 -2.5 Q1.2 -2.35 1.0 -2.4 L1.1 -2.55 1.35 -2.55" fill="#ffffff" fill-rule="evenodd" stroke="none"/>
  </g>
</svg>
