<?xml version="1.0" encoding="UTF-8" standalone="no"?>
<svg xmlns:ffdec="https://www.free-decompiler.com/flash" xmlns:xlink="http://www.w3.org/1999/xlink" ffdec:objectType="shape" height="5.0px" width="4.9px" xmlns="http://www.w3.org/2000/svg">
  <g transform="matrix(1.0, 0.0, 0.0, 1.0, 2.3, 5.0)">
    <path d="M1.2 -4.35 L1.2 -4.25 1.05 -3.95 0.75 -3.95 Q0.7 -4.05 0.7 -4.15 0.75 -4.4 0.95 -4.45 L1.05 -4.45 1.2 -4.4 1.2 -4.35 M0.5 -3.15 L0.45 -2.9 Q0.35 -2.8 0.25 -2.8 0.05 -2.85 0.0 -3.05 0.0 -3.15 0.05 -3.2 0.15 -3.35 0.25 -3.4 0.5 -3.4 0.5 -3.15 M1.55 -1.75 L1.45 -1.9 1.25 -1.95 1.25 -1.9 Q1.05 -1.9 1.05 -1.65 L1.15 -1.5 1.2 -1.5 1.45 -1.45 1.5 -1.5 Q1.6 -1.6 1.55 -1.7 L1.55 -1.75 M1.85 -1.55 L1.9 -1.6 1.85 -1.6 1.85 -1.55 M0.4 -1.4 L0.5 -1.4 Q0.7 -1.3 0.8 -1.6 1.05 -2.45 1.7 -1.85 2.05 -2.0 2.3 -2.3 2.4 -2.4 2.5 -2.4 2.75 -2.0 2.45 -1.5 L2.2 -1.25 2.2 -1.15 2.1 -1.1 2.1 -0.95 1.55 -0.45 Q1.05 -0.2 0.55 -0.1 L-0.75 -0.15 Q-1.3 -0.35 -1.85 -0.75 L-1.9 -0.75 -2.15 -1.0 -2.2 -0.95 -2.2 -1.4 Q-2.2 -1.5 -2.15 -1.6 -1.65 -1.75 -1.2 -1.4 L-1.15 -1.35 -1.0 -1.4 Q-0.9 -1.65 -0.7 -1.75 -0.15 -1.85 0.3 -1.5 L0.4 -1.4 M0.15 -1.15 Q0.35 -1.1 0.45 -1.3 0.3 -1.5 0.05 -1.6 L-0.55 -1.65 -0.6 -1.6 -0.7 -1.55 -0.7 -1.4 -0.65 -1.35 0.15 -1.15 M-0.55 -5.0 Q-0.2 -4.7 -0.55 -4.85 -0.8 -4.9 -0.55 -5.0 M-1.35 -4.5 Q-1.35 -4.35 -1.4 -4.25 -1.55 -4.1 -1.7 -4.2 L-1.75 -4.25 -1.8 -4.35 -1.8 -4.6 -1.65 -4.7 -1.55 -4.75 Q-1.35 -4.7 -1.35 -4.5 M-2.25 -1.5 L-2.25 -1.5 M-1.65 -1.45 L-1.7 -1.45 -1.8 -1.3 -1.8 -1.25 Q-1.7 -1.0 -1.55 -1.2 -1.35 -1.4 -1.65 -1.45 M-1.1 -1.05 L-1.2 -1.0 -1.1 -1.0 -1.1 -1.05 M-1.85 -2.75 Q-2.0 -2.5 -2.25 -2.7 -2.3 -2.85 -2.2 -2.95 L-1.95 -3.15 Q-1.6 -3.05 -1.85 -2.75" fill="#cccccc" fill-rule="evenodd" stroke="none"/>
    <path d="M1.55 -1.75 L1.55 -1.7 Q1.6 -1.6 1.5 -1.5 L1.45 -1.45 1.2 -1.5 1.15 -1.5 1.05 -1.65 Q1.05 -1.9 1.25 -1.9 L1.25 -1.95 1.45 -1.9 1.55 -1.75 M0.15 -1.15 L-0.65 -1.35 -0.7 -1.4 -0.7 -1.55 -0.6 -1.6 -0.55 -1.65 0.05 -1.6 Q0.3 -1.5 0.45 -1.3 0.35 -1.1 0.15 -1.15 M-1.65 -1.45 Q-1.35 -1.4 -1.55 -1.2 -1.7 -1.0 -1.8 -1.25 L-1.8 -1.3 -1.7 -1.45 -1.65 -1.45" fill="#ffffff" fill-rule="evenodd" stroke="none"/>
  </g>
</svg>
