<?xml version="1.0" encoding="UTF-8" standalone="no"?>
<svg xmlns:ffdec="https://www.free-decompiler.com/flash" xmlns:xlink="http://www.w3.org/1999/xlink" ffdec:objectType="shape" height="5.05px" width="5.1px" xmlns="http://www.w3.org/2000/svg">
  <g transform="matrix(1.0, 0.0, 0.0, 1.0, 2.5, 5.05)">
    <path d="M0.8 -4.5 Q0.45 -4.5 0.75 -4.65 1.0 -4.55 0.8 -4.5 M0.05 -3.45 Q-0.25 -3.35 -0.1 -3.6 L0.0 -3.65 Q0.3 -3.6 0.05 -3.45 M1.7 -1.4 L1.8 -1.35 1.9 -1.4 Q1.9 -1.55 2.0 -1.75 2.15 -1.9 2.35 -1.9 2.5 -1.9 2.55 -1.8 L2.6 -1.8 2.55 -1.75 2.55 -1.7 Q2.6 -1.55 2.5 -1.5 L2.45 -1.5 2.2 -1.25 2.2 -1.15 2.1 -1.1 2.1 -0.95 1.55 -0.45 Q1.05 -0.2 0.55 -0.1 L-0.75 -0.15 Q-1.15 -0.3 -1.55 -0.55 -1.75 -0.6 -1.85 -0.7 L-1.95 -0.8 Q-2.05 -0.95 -1.85 -1.05 -1.6 -1.05 -1.45 -0.9 L-1.3 -0.65 -1.05 -0.6 -1.05 -0.7 -1.0 -0.85 Q-0.9 -1.0 -0.8 -1.0 L-0.15 -0.9 0.15 -0.75 0.8 -0.95 Q0.85 -1.1 0.9 -1.2 1.05 -1.4 1.2 -1.45 L1.7 -1.4 M1.0 -1.1 Q0.95 -0.95 1.0 -0.8 1.25 -0.7 1.4 -0.9 1.65 -1.25 1.3 -1.35 1.15 -1.3 1.0 -1.1 M-1.9 -4.9 Q-1.85 -4.8 -1.9 -4.75 -2.1 -4.6 -2.15 -4.85 -2.2 -5.0 -2.05 -5.05 L-1.9 -4.9 M-2.15 -3.1 Q-2.1 -2.95 -2.25 -2.9 -2.55 -2.9 -2.5 -3.15 -2.5 -3.25 -2.35 -3.3 -2.2 -3.3 -2.15 -3.1 M-0.55 -0.75 L-0.75 -0.8 Q-0.95 -0.8 -0.8 -0.6 -0.7 -0.4 -0.5 -0.55 -0.4 -0.7 -0.55 -0.75" fill="#cccccc" fill-rule="evenodd" stroke="none"/>
    <path d="M1.0 -1.1 Q1.15 -1.3 1.3 -1.35 1.65 -1.25 1.4 -0.9 1.25 -0.7 1.0 -0.8 0.95 -0.95 1.0 -1.1 M-0.55 -0.75 Q-0.4 -0.7 -0.5 -0.55 -0.7 -0.4 -0.8 -0.6 -0.95 -0.8 -0.75 -0.8 L-0.55 -0.75" fill="#ffffff" fill-rule="evenodd" stroke="none"/>
  </g>
</svg>
