<?xml version="1.0" encoding="UTF-8" standalone="no"?>
<svg xmlns:ffdec="https://www.free-decompiler.com/flash" xmlns:xlink="http://www.w3.org/1999/xlink" ffdec:objectType="shape" height="11.6px" width="18.6px" xmlns="http://www.w3.org/2000/svg">
  <g transform="matrix(1.0, 0.0, 0.0, 1.0, 9.65, 9.9)">
    <path d="M0.5 -9.6 Q0.25 -9.35 -0.2 -9.3 L-0.8 -9.2 Q-0.85 -9.3 -0.8 -9.45 -0.6 -9.7 -0.35 -9.8 L-0.15 -9.9 0.2 -9.85 Q0.45 -9.8 0.5 -9.6 M1.25 -8.1 Q1.3 -8.25 1.45 -8.3 1.7 -8.2 1.55 -8.0 1.4 -7.8 1.25 -8.0 1.25 -8.05 1.25 -8.1 M1.8 -7.05 L1.95 -7.0 Q2.1 -6.75 1.85 -6.55 1.65 -6.3 1.3 -6.5 1.2 -6.6 1.25 -6.75 1.3 -7.05 1.6 -7.1 L1.8 -7.05 M2.95 -7.0 Q2.95 -7.1 3.05 -7.15 L3.15 -7.15 3.3 -7.1 Q3.4 -7.05 3.4 -6.95 3.4 -6.8 3.25 -6.75 3.05 -6.7 2.95 -6.9 L2.95 -7.0 M3.95 -0.1 Q4.6 -0.3 5.25 -0.5 6.45 -0.9 7.7 -1.3 7.85 -1.3 7.9 -1.5 7.85 -1.7 7.65 -1.75 7.4 -1.85 7.15 -1.95 L6.65 -2.1 6.65 -2.15 6.45 -2.2 6.55 -2.25 6.6 -2.25 6.55 -2.35 6.6 -2.35 7.05 -2.3 Q7.9 -2.4 8.25 -2.0 L8.35 -1.95 Q8.75 -1.85 8.95 -1.55 8.95 -1.3 8.75 -1.2 L8.45 -1.05 Q8.4 -1.0 8.25 -0.95 7.85 -0.8 7.45 -0.7 7.1 -0.55 6.65 -0.45 5.4 -0.15 4.05 0.05 3.85 0.1 3.7 0.05 L3.65 0.05 3.7 0.0 3.65 0.0 3.95 -0.1 M8.55 -1.4 L8.55 -1.35 8.65 -1.45 8.6 -1.5 8.6 -1.45 8.55 -1.4 M8.25 -1.25 L8.15 -1.25 8.1 -1.2 8.25 -1.25 M2.4 1.4 Q-0.1 1.9 -2.7 1.6 -3.8 1.5 -4.7 1.15 L-1.65 1.3 Q0.55 1.5 2.7 1.0 L3.4 0.8 Q3.3 1.2 2.4 1.4 M-9.65 -0.85 Q-9.6 -1.25 -9.2 -1.3 L-8.55 -1.45 -8.05 -1.55 -7.9 -1.55 Q-7.4 -1.5 -8.05 -1.35 -8.15 -1.2 -8.6 -1.2 L-8.9 -1.05 Q-7.5 -0.35 -5.9 -0.2 -5.45 -0.15 -5.2 0.05 L-5.1 0.1 -5.15 0.1 -5.1 0.15 -5.8 0.05 Q-7.6 0.0 -9.45 -0.65 -9.6 -0.7 -9.65 -0.85 M-9.0 -0.8 L-9.0 -0.75 -8.95 -0.75 -9.0 -0.8 M-2.85 -8.35 Q-2.5 -8.3 -2.6 -7.95 -2.65 -7.75 -2.8 -7.65 -3.0 -7.65 -3.1 -7.8 -3.15 -7.95 -3.15 -8.05 -3.15 -8.15 -3.05 -8.25 -2.95 -8.3 -2.85 -8.35 M-0.65 -8.0 Q-0.4 -7.75 -0.55 -7.45 -0.75 -7.15 -1.05 -7.2 -1.2 -7.35 -1.15 -7.6 -1.05 -7.9 -0.8 -8.05 L-0.7 -8.0 -0.65 -8.0" fill="#e6e6e6" fill-rule="evenodd" stroke="none"/>
    <path d="M4.45 -5.75 L4.45 -5.75 M1.05 -5.6 Q1.75 -5.35 2.15 -4.65 2.3 -4.4 2.45 -4.4 L2.5 -4.55 Q2.7 -4.95 3.05 -5.2 L3.15 -5.25 Q3.4 -5.35 3.6 -5.2 3.75 -5.1 3.8 -4.9 L3.85 -4.9 Q3.85 -5.2 3.9 -5.5 3.95 -6.0 4.4 -6.15 5.15 -5.45 4.7 -4.3 4.5 -3.8 4.2 -3.45 L4.15 -3.4 4.1 -3.05 4.15 -3.05 Q4.3 -2.9 4.4 -2.6 4.5 -2.45 4.45 -2.3 L5.65 -2.75 5.2 -2.4 5.15 -2.35 5.4 -2.4 5.05 -2.2 4.85 -1.9 Q4.55 -1.3 3.8 -1.0 2.7 -0.25 1.15 -0.05 -1.35 0.2 -3.6 -0.6 L-3.9 -0.65 Q-4.85 -0.75 -5.5 -1.3 L-4.5 -1.15 -5.35 -1.35 -5.05 -1.3 -5.65 -1.45 -5.6 -1.45 -4.95 -1.5 -5.0 -1.6 -5.0 -1.85 -4.95 -2.0 -4.75 -2.2 Q-5.75 -3.1 -5.65 -4.95 -5.55 -6.3 -4.5 -6.95 -3.75 -6.25 -4.0 -5.0 L-3.9 -5.2 Q-3.45 -6.0 -2.7 -6.5 L-2.55 -6.5 -2.35 -6.45 Q-2.2 -6.15 -2.25 -5.85 -2.25 -5.7 -2.35 -5.55 -2.4 -5.4 -2.5 -5.3 -2.95 -4.8 -3.1 -4.25 L-3.0 -4.3 Q-2.2 -4.7 -2.0 -4.05 L-1.95 -4.05 -1.95 -3.8 Q-1.4 -4.0 -1.25 -4.55 L-1.25 -4.95 -1.2 -5.1 Q-1.2 -5.5 -0.75 -5.7 0.1 -5.0 -0.65 -3.9 -0.7 -3.8 -0.65 -3.75 L0.4 -3.85 0.95 -3.9 Q0.95 -4.25 0.8 -4.5 0.45 -5.0 0.85 -5.45 0.95 -5.55 1.05 -5.6 M3.65 -4.75 L3.6 -4.7 Q3.2 -4.55 2.9 -4.2 2.6 -3.9 2.85 -3.5 3.25 -3.35 3.7 -3.65 4.2 -4.0 4.15 -4.5 L4.1 -4.55 Q3.95 -4.65 3.85 -4.7 L3.65 -4.75 M0.15 -4.6 L0.3 -4.55 0.3 -4.45 Q0.35 -4.35 0.3 -4.25 L0.2 -4.15 Q0.05 -4.1 -0.05 -4.2 -0.15 -4.25 -0.15 -4.35 -0.15 -4.55 0.05 -4.6 L0.15 -4.6 M-2.6 -5.55 L-2.6 -5.55 M-4.5 -5.85 L-4.5 -5.8 Q-4.85 -5.75 -4.95 -5.35 -5.05 -4.95 -4.8 -4.65 -4.6 -4.55 -4.45 -4.6 -4.15 -4.7 -4.05 -4.95 -4.05 -5.2 -4.1 -5.45 -4.2 -5.75 -4.5 -5.85 M-4.4 -1.5 L-4.45 -1.45 -4.35 -1.4 -4.4 -1.5" fill="#cccccc" fill-rule="evenodd" stroke="none"/>
    <path d="M3.65 -4.75 L3.85 -4.7 Q3.95 -4.65 4.1 -4.55 L4.15 -4.5 Q4.2 -4.0 3.7 -3.65 3.25 -3.35 2.85 -3.5 2.6 -3.9 2.9 -4.2 3.2 -4.55 3.6 -4.7 L3.65 -4.75 M-4.5 -5.85 Q-4.2 -5.75 -4.1 -5.45 -4.05 -5.2 -4.05 -4.95 -4.15 -4.7 -4.45 -4.6 -4.6 -4.55 -4.8 -4.65 -5.05 -4.95 -4.95 -5.35 -4.85 -5.75 -4.5 -5.8 L-4.5 -5.85" fill="#ffffff" fill-rule="evenodd" stroke="none"/>
  </g>
</svg>
