<?xml version="1.0" encoding="UTF-8" standalone="no"?>
<svg xmlns:ffdec="https://www.free-decompiler.com/flash" xmlns:xlink="http://www.w3.org/1999/xlink" ffdec:objectType="shape" height="5.3px" width="4.9px" xmlns="http://www.w3.org/2000/svg">
  <g transform="matrix(1.0, 0.0, 0.0, 1.0, -0.15, 5.4)">
    <path d="M3.55 -5.3 Q4.15 -5.05 4.25 -4.95 4.3 -4.9 4.3 -4.6 4.3 -4.4 4.25 -4.2 4.15 -4.0 4.15 -3.9 L4.6 -3.45 Q5.05 -3.0 5.05 -2.6 5.05 -1.55 4.4 -0.85 3.75 -0.1 2.95 -0.1 L2.25 -0.2 2.25 -0.25 2.7 -0.5 Q3.0 -0.7 3.1 -0.95 L2.4 -0.95 2.35 -1.0 2.35 -1.1 2.6 -1.45 Q2.9 -1.75 2.9 -1.95 L2.8 -2.25 Q2.7 -2.55 2.55 -2.55 L2.3 -2.4 Q2.1 -2.3 2.05 -2.3 L1.7 -2.7 Q1.3 -3.15 1.05 -3.15 0.7 -3.15 0.55 -2.75 0.4 -2.5 0.4 -2.25 L0.35 -2.2 0.2 -2.35 Q0.15 -2.5 0.15 -2.6 L0.35 -3.15 0.35 -3.2 Q0.35 -3.5 0.8 -4.3 1.15 -4.9 1.4 -4.95 L1.5 -5.0 Q1.75 -5.0 1.75 -4.9 L1.8 -4.85 Q1.9 -4.85 2.45 -5.2 2.9 -5.5 3.55 -5.3" fill="#f7e5ff" fill-opacity="0.9019608" fill-rule="evenodd" stroke="none"/>
  </g>
</svg>
