<?xml version="1.0" encoding="UTF-8" standalone="no"?>
<svg xmlns:ffdec="https://www.free-decompiler.com/flash" xmlns:xlink="http://www.w3.org/1999/xlink" ffdec:objectType="shape" height="6.95px" width="6.4px" xmlns="http://www.w3.org/2000/svg">
  <g transform="matrix(1.0, 0.0, 0.0, 1.0, 0.6, 6.3)">
    <path d="M2.6 -6.3 Q3.95 -6.3 4.85 -5.3 5.8 -4.3 5.8 -2.85 5.8 -1.4 4.85 -0.4 3.95 0.65 2.6 0.65 1.3 0.65 0.3 -0.4 -0.6 -1.4 -0.6 -2.85 -0.6 -4.3 0.3 -5.3 1.3 -6.3 2.6 -6.3 M2.6 -6.0 Q1.4 -6.0 0.55 -5.1 -0.3 -4.15 -0.3 -2.85 -0.3 -1.55 0.55 -0.6 1.4 0.3 2.6 0.3 3.85 0.3 4.65 -0.6 5.5 -1.55 5.5 -2.85 5.5 -4.15 4.65 -5.1 3.85 -6.0 2.6 -6.0" fill="#f4deff" fill-opacity="0.7529412" fill-rule="evenodd" stroke="none"/>
  </g>
</svg>
