<?xml version="1.0" encoding="UTF-8" standalone="no"?>
<svg xmlns:ffdec="https://www.free-decompiler.com/flash" xmlns:xlink="http://www.w3.org/1999/xlink" ffdec:objectType="shape" height="4.15px" width="3.25px" xmlns="http://www.w3.org/2000/svg">
  <g transform="matrix(1.0, 0.0, 0.0, 1.0, -2.05, 5.75)">
    <path d="M2.6 -5.65 Q2.6 -5.85 3.1 -5.7 3.6 -5.55 4.0 -5.25 L4.0 -5.2 3.9 -5.2 3.4 -5.4 Q2.95 -5.65 2.6 -5.6 L2.6 -5.65 M2.05 -5.6 L2.05 -5.65 2.45 -5.7 2.45 -5.65 Q2.4 -5.55 2.15 -5.55 2.1 -5.55 2.05 -5.6 M3.25 -5.55 L3.25 -5.55 M4.85 -4.4 L5.05 -4.0 Q5.3 -3.45 5.3 -2.95 L5.2 -2.55 5.0 -3.65 4.85 -4.1 4.65 -4.25 4.65 -4.5 4.35 -4.9 Q4.6 -4.8 4.8 -4.5 L4.85 -4.4" fill="#f7e5ff" fill-opacity="0.9019608" fill-rule="evenodd" stroke="none"/>
    <path d="M4.3 -2.0 Q4.15 -2.35 4.15 -2.85 4.15 -3.4 4.3 -3.75 4.45 -4.1 4.6 -4.1 4.8 -4.1 4.95 -3.75 5.05 -3.4 5.05 -2.85 5.05 -2.35 4.95 -2.0 4.8 -1.6 4.6 -1.6 4.45 -1.6 4.3 -2.0" fill="#f4deff" fill-opacity="0.7529412" fill-rule="evenodd" stroke="none"/>
  </g>
</svg>
