<?xml version="1.0" encoding="UTF-8" standalone="no"?>
<svg xmlns:ffdec="https://www.free-decompiler.com/flash" xmlns:xlink="http://www.w3.org/1999/xlink" ffdec:objectType="shape" height="11.85px" width="10.9px" xmlns="http://www.w3.org/2000/svg">
  <g transform="matrix(1.0, 0.0, 0.0, 1.0, 3.25, 8.3)">
    <path d="M4.4 -7.85 L4.35 -7.8 Q3.95 -7.95 3.5 -8.1 L3.55 -8.15 Q3.95 -8.05 4.4 -7.85 M5.3 -7.2 L5.35 -7.25 5.45 -7.2 5.35 -7.15 5.3 -7.2 M6.0 -6.55 L5.6 -6.95 5.65 -7.0 6.05 -6.6 Q6.35 -6.25 6.65 -5.85 L6.55 -5.85 Q6.3 -6.2 6.0 -6.55 M5.1 -7.4 L5.05 -7.4 4.6 -7.65 4.65 -7.7 Q4.9 -7.6 5.1 -7.4 M-2.75 0.15 L-2.7 0.1 -2.65 0.2 -2.7 0.3 -2.75 0.15 M-2.55 0.55 L-2.5 0.55 -2.4 0.7 -2.45 0.75 -2.6 0.55 -2.55 0.55 M-2.35 0.95 L-2.25 0.95 -2.2 1.0 -2.3 1.0 -2.35 0.95 M-1.55 1.85 L-1.6 1.9 -1.7 1.8 -2.15 1.2 -2.1 1.15 -1.65 1.7 -1.55 1.85 M-1.4 2.1 L-1.35 2.0 Q-1.05 2.35 -0.65 2.55 L-0.7 2.65 -1.4 2.1 M-2.95 -0.4 L-2.9 -0.4 -2.85 -0.25 -2.9 -0.25 -2.95 -0.4 M-3.15 -1.05 L-3.05 -1.05 -3.0 -0.65 -3.05 -0.65 -3.15 -1.05 M-3.25 -2.25 L-3.2 -2.3 -3.1 -1.45 -3.2 -1.4 -3.25 -2.25 M-3.1 -3.65 L-3.1 -3.55 -3.15 -3.55 -3.15 -3.7 -3.1 -3.65 M-3.15 -3.2 L-3.15 -3.25 -3.2 -2.5 -3.25 -2.5 -3.2 -3.25 -3.15 -3.2 M-3.1 -3.85 L-3.05 -4.0 -3.0 -3.95 -3.05 -3.8 -3.1 -3.85 M-2.85 -4.45 L-2.95 -4.25 -3.0 -4.3 -2.9 -4.5 -2.85 -4.45 M-2.4 -5.65 L-2.35 -5.6 Q-2.6 -5.2 -2.75 -4.7 L-2.8 -4.75 Q-2.65 -5.25 -2.4 -5.65 M-1.85 -6.4 L-1.8 -6.35 -2.2 -5.85 -2.25 -5.9 -1.85 -6.4 M-1.65 -6.55 L-1.7 -6.6 -1.6 -6.7 -1.55 -6.65 -1.65 -6.55 M-0.2 -7.65 L-0.25 -7.6 -0.3 -7.7 -0.2 -7.75 -0.2 -7.65 M-0.55 -7.55 L-0.55 -7.45 Q-0.9 -7.25 -1.25 -6.9 L-1.3 -6.95 -0.55 -7.55 M2.5 3.5 L2.5 3.45 2.9 3.4 2.85 3.5 2.5 3.5 M1.7 3.5 L1.7 3.45 2.25 3.45 2.25 3.55 2.2 3.55 1.7 3.5 M0.85 3.35 L0.85 3.3 1.45 3.4 1.45 3.5 0.85 3.35 M0.05 3.0 L0.05 3.05 0.2 3.1 0.25 3.1 0.65 3.2 0.6 3.3 Q0.05 3.1 -0.5 2.8 L-0.45 2.75 0.05 3.0 M3.7 3.25 L3.7 3.3 3.2 3.45 3.2 3.4 3.7 3.25 M3.95 3.25 L3.9 3.2 3.95 3.15 3.95 3.25 M4.35 3.0 L4.35 3.05 4.25 3.1 4.25 3.05 4.35 3.0 M5.05 2.65 L4.7 2.9 4.7 2.8 5.05 2.6 5.05 2.65 M6.5 1.1 L6.6 1.15 6.4 1.4 6.3 1.4 6.5 1.1 M5.7 2.05 L6.0 1.7 6.25 1.4 6.25 1.55 6.05 1.8 5.7 2.15 5.7 2.05 M6.65 0.85 L6.85 0.55 6.9 0.6 6.75 0.9 6.65 0.85 M7.1 0.0 L7.2 0.05 7.05 0.4 6.95 0.3 7.1 0.0 M7.3 -0.25 L7.2 -0.25 7.3 -0.55 7.4 -0.5 7.3 -0.25 M7.5 -0.9 L7.45 -0.95 Q7.55 -1.5 7.6 -2.1 L7.65 -2.1 Q7.6 -1.5 7.5 -0.9 M7.55 -3.55 L7.5 -3.55 7.35 -4.1 7.45 -4.1 7.55 -3.55 M7.55 -3.2 L7.6 -3.2 7.65 -2.4 7.6 -2.4 7.55 -3.2 M7.0 -5.2 Q7.2 -4.85 7.35 -4.4 L7.25 -4.4 Q7.15 -4.8 6.9 -5.2 L7.0 -5.2 M0.1 -7.8 L0.1 -7.9 0.4 -8.0 0.45 -7.95 0.1 -7.8 M0.85 -8.15 L0.9 -8.05 0.65 -8.0 0.65 -8.1 0.85 -8.15 M2.2 -8.3 L3.2 -8.2 3.2 -8.15 2.2 -8.25 1.15 -8.1 1.1 -8.2 2.2 -8.3 M6.9 -5.4 L6.8 -5.45 6.7 -5.6 6.8 -5.6 6.9 -5.4" fill="#f4deff" fill-opacity="0.7529412" fill-rule="evenodd" stroke="none"/>
  </g>
</svg>
