<?xml version="1.0" encoding="UTF-8" standalone="no"?>
<svg xmlns:ffdec="https://www.free-decompiler.com/flash" xmlns:xlink="http://www.w3.org/1999/xlink" ffdec:objectType="shape" height="54.2px" width="26.3px" xmlns="http://www.w3.org/2000/svg">
  <g transform="matrix(1.0, 0.0, 0.0, 1.0, 9.9, 50.4)">
    <path d="M12.25 -35.5 Q12.75 -38.25 13.85 -40.85 15.15 -44.15 15.3 -47.6 14.9 -45.9 14.25 -43.9 L14.1 -43.5 Q14.35 -44.4 14.5 -45.3 L13.85 -43.75 12.85 -41.0 Q12.35 -39.6 12.15 -38.1 L12.25 -38.15 12.0 -37.45 Q11.05 -34.95 11.05 -32.15 L10.95 -32.5 Q10.5 -31.1 10.25 -29.3 9.8 -26.0 8.7 -23.0 8.05 -21.15 7.3 -19.35 L4.2 -14.65 Q4.85 -18.1 6.35 -21.3 L6.5 -21.6 6.45 -21.55 7.3 -23.1 Q9.35 -26.9 10.1 -30.95 10.85 -35.1 11.85 -38.95 L11.35 -38.45 15.3 -47.9 Q15.7 -47.3 15.4 -46.25 L14.75 -42.45 14.75 -42.55 Q14.2 -41.4 13.9 -40.05 13.45 -37.9 12.45 -35.95 L12.25 -35.5 M11.2 -31.05 L11.45 -31.75 Q12.05 -32.2 12.3 -32.9 L12.65 -33.75 Q11.95 -30.95 11.1 -28.15 11.35 -29.6 11.2 -31.05 M7.35 -2.15 L7.1 -1.8 7.9 -1.85 Q5.6 -0.95 3.25 -0.2 L3.45 0.8 7.05 -0.2 7.15 0.0 6.9 1.05 7.0 1.3 8.0 0.8 8.5 0.45 8.75 1.05 8.4 1.65 Q8.1 1.8 7.75 2.0 L6.75 1.9 6.0 1.9 6.0 1.85 5.8 1.85 Q5.65 1.7 5.65 1.55 L5.6 1.25 Q5.55 1.1 5.7 1.0 L5.75 0.95 Q4.95 1.15 4.35 1.65 3.85 2.0 3.15 1.85 2.8 1.5 2.65 1.05 2.5 0.7 2.45 0.3 2.4 -0.15 2.0 -0.55 1.5 -0.3 1.15 0.15 0.85 0.6 0.2 0.65 -0.1 0.65 -0.2 0.45 L-0.15 0.4 Q-0.3 0.4 -0.45 0.3 -0.6 0.05 -0.85 -0.2 L-1.15 -0.5 -1.25 -0.25 Q-1.4 0.0 -1.65 0.2 -1.7 -0.3 -1.65 -0.85 L-1.6 -1.1 -1.7 -1.3 Q-1.85 -1.1 -2.0 -0.95 L-2.4 -0.5 Q-2.55 -0.4 -2.7 -0.3 -3.7 -0.65 -4.65 -1.3 L-6.05 -2.35 -6.3 -2.5 -6.55 -2.75 -6.55 -2.7 Q-6.45 -2.6 -6.45 -2.45 -6.45 -2.35 -6.5 -2.3 L-6.5 -2.25 -6.45 -2.2 Q-6.25 -2.0 -6.1 -1.75 -6.6 -1.85 -6.95 -2.3 L-7.0 -2.35 Q-7.25 -2.5 -7.3 -2.85 L-7.8 -3.7 Q-7.8 -3.9 -7.45 -4.0 -6.95 -3.7 -6.45 -3.35 L-6.05 -3.0 -3.0 -1.0 Q-2.65 -1.2 -2.45 -1.45 L-1.7 -2.15 -1.85 -2.7 Q-1.9 -3.0 -2.05 -3.25 -2.2 -3.35 -2.35 -3.3 -2.45 -3.3 -2.5 -3.2 L-2.5 -3.1 Q-2.65 -3.1 -2.85 -3.5 -3.05 -3.85 -3.3 -4.25 -3.55 -4.7 -4.05 -4.8 -4.4 -4.75 -4.45 -4.45 -4.55 -4.0 -4.7 -3.6 -4.85 -3.25 -5.0 -2.95 L-5.1 -2.95 Q-5.3 -3.0 -5.55 -3.1 -5.75 -3.2 -5.85 -3.05 L-5.85 -2.95 -6.15 -3.15 -6.45 -4.4 -6.65 -5.35 -6.55 -5.45 -5.25 -4.2 -4.65 -7.25 -4.0 -6.75 -3.9 -6.4 -3.7 -5.9 -2.9 -4.75 -2.25 -5.3 -1.3 -5.15 Q-0.8 -6.3 -0.25 -7.3 1.6 -10.55 2.85 -14.1 4.0 -17.3 4.1 -20.65 L4.55 -21.55 6.0 -24.65 Q6.9 -26.1 7.75 -27.55 9.05 -29.8 9.4 -32.45 L9.15 -32.05 9.55 -33.2 5.7 -26.25 Q5.15 -25.25 4.75 -24.2 3.9 -22.8 3.55 -21.2 L3.55 -21.25 Q2.6 -19.15 1.3 -17.2 2.6 -20.2 3.8 -23.25 5.0 -26.5 6.55 -29.75 7.3 -31.35 8.55 -32.3 9.05 -33.1 9.45 -33.95 L9.8 -34.85 Q9.4 -30.85 7.95 -27.1 L7.9 -27.1 Q7.2 -26.05 6.6 -24.8 5.05 -21.5 4.05 -18.1 3.0 -14.65 2.45 -11.3 L1.95 -10.6 Q0.95 -9.05 0.05 -7.45 -0.75 -5.9 -0.85 -4.3 -0.15 -4.7 0.2 -5.85 0.6 -6.9 1.1 -7.9 L0.9 -7.4 1.3 -8.1 0.9 -7.05 Q0.05 -4.9 -1.2 -2.95 L-1.1 -2.5 0.0 -2.75 1.05 -3.5 Q1.65 -5.2 2.45 -6.75 L2.5 -6.85 Q2.0 -5.35 1.85 -3.9 L2.75 -3.75 Q3.25 -3.4 3.1 -2.8 3.0 -2.25 2.9 -1.7 L2.95 -1.5 3.6 -1.65 3.9 -1.7 4.55 -1.7 Q4.75 -4.6 5.3 -7.4 5.55 -8.75 5.85 -10.05 5.6 -8.7 5.4 -7.3 5.15 -5.45 5.5 -3.45 5.9 -4.25 6.2 -5.2 6.25 -3.55 6.8 -2.25 L7.35 -2.15 M7.65 -0.6 L7.1 -0.25 7.65 -0.6 M-8.15 -1.2 L-7.1 -0.65 -6.85 -0.45 Q-6.6 -0.2 -6.55 0.05 -7.15 0.25 -7.65 -0.4 -7.9 -0.75 -8.15 -1.2 M-3.65 -7.85 L-2.9 -9.85 -3.65 -7.85 M-2.25 -11.25 L0.35 -16.35 1.2 -17.05 0.6 -16.1 Q-1.05 -13.8 -2.25 -11.25 M10.05 -29.0 L9.65 -27.55 Q9.5 -27.05 9.45 -26.5 L10.15 -28.9 10.05 -29.0 M7.6 -22.15 Q7.15 -21.25 6.65 -20.4 L5.65 -18.65 Q6.2 -18.85 6.6 -19.45 L7.75 -21.15 Q8.3 -22.0 8.4 -22.9 7.85 -22.7 7.6 -22.15 M3.85 -20.2 Q3.6 -19.1 3.3 -17.95 2.3 -14.4 0.3 -11.3 L0.1 -10.9 Q0.45 -12.0 0.65 -13.05 0.95 -13.35 1.1 -13.75 L1.45 -14.8 Q1.65 -15.3 1.8 -15.8 L1.45 -15.6 3.25 -18.95 3.85 -20.2 M6.65 -12.5 L6.45 -12.15 6.7 -13.0 6.65 -12.5 M8.1 -9.75 Q7.9 -8.75 7.75 -7.8 7.8 -8.75 7.85 -9.75 7.9 -12.85 8.85 -15.65 8.6 -12.7 8.1 -9.75 M-0.9 -1.1 L-0.85 -1.0 Q-0.6 -0.65 -0.2 -0.4 L-0.15 -0.35 Q0.45 -0.6 1.0 -1.15 L2.3 -2.45 2.3 -2.6 2.2 -2.7 Q2.1 -2.8 1.95 -2.9 L1.8 -2.9 1.5 -2.95 1.4 -2.85 1.1 -2.6 Q0.95 -2.45 0.75 -2.4 L0.45 -2.55 0.25 -2.55 -0.6 -1.85 Q-0.85 -1.6 -1.15 -1.55 L-1.0 -1.3 -0.9 -1.1" fill="#52732e" fill-rule="evenodd" stroke="none"/>
    <path d="M12.25 -35.5 L12.45 -35.95 Q13.45 -37.9 13.9 -40.05 14.2 -41.4 14.75 -42.55 L14.75 -42.45 14.5 -39.9 14.15 -38.35 13.6 -35.45 12.65 -29.85 11.1 -22.0 9.35 -13.05 Q9.6 -10.5 9.0 -8.05 L7.35 -2.15 6.8 -2.25 Q6.25 -3.55 6.2 -5.2 L6.2 -6.15 6.65 -12.5 6.7 -13.0 6.45 -12.15 Q6.15 -11.1 5.85 -10.05 5.55 -8.75 5.3 -7.4 4.75 -4.6 4.55 -1.7 L3.9 -1.7 3.85 -1.8 3.85 -1.9 Q3.7 -2.0 3.7 -1.75 L3.7 -1.7 3.6 -1.65 2.95 -1.5 2.9 -1.7 Q3.0 -2.25 3.1 -2.8 3.25 -3.4 2.75 -3.75 L1.85 -3.9 Q2.0 -5.35 2.5 -6.85 L2.45 -6.75 Q1.65 -5.2 1.05 -3.5 L0.0 -2.75 -1.1 -2.5 -1.2 -2.95 Q0.05 -4.9 0.9 -7.05 L1.3 -8.1 0.9 -7.4 1.1 -7.9 Q1.7 -9.65 2.5 -11.35 3.3 -13.0 4.2 -14.65 L7.3 -19.35 Q8.05 -21.15 8.7 -23.0 9.8 -26.0 10.25 -29.3 10.5 -31.1 10.95 -32.5 L11.05 -32.15 11.2 -31.25 11.2 -31.05 Q11.35 -29.6 11.1 -28.15 11.95 -30.95 12.65 -33.75 L12.3 -32.9 Q12.05 -32.2 11.45 -31.75 L11.35 -31.7 Q11.4 -33.65 12.25 -35.5 M7.9 -1.85 L9.1 -1.75 8.9 -1.6 7.65 -0.6 7.1 -0.25 7.15 0.0 7.05 -0.2 3.45 0.8 3.25 -0.2 Q5.6 -0.95 7.9 -1.85 M6.9 1.05 L7.0 1.3 6.9 1.05 M8.0 0.8 L8.5 0.45 8.0 0.8 M8.4 1.65 L8.1 2.45 9.15 2.9 Q9.1 3.5 8.3 3.5 L7.15 3.55 7.0 3.55 4.15 3.75 Q2.3 3.9 0.6 3.45 L1.75 3.45 1.25 3.35 Q1.2 3.2 1.35 3.15 L2.15 3.05 3.65 3.05 1.6 2.75 -0.05 2.4 -0.45 2.35 -1.1 2.25 -1.25 2.25 -2.1 2.15 -3.15 2.1 -2.5 2.25 -2.05 2.35 Q-1.8 2.45 -1.6 2.6 L-1.5 2.65 -2.2 2.75 Q-3.4 3.1 -4.95 2.6 L-5.7 2.55 -5.95 2.6 Q-7.2 2.8 -8.05 2.15 L-7.95 2.15 -7.85 2.1 -7.6 2.15 Q-7.75 2.05 -7.8 1.9 -7.85 1.65 -7.6 1.65 L-6.5 1.6 -8.1 1.25 Q-8.6 1.15 -8.95 0.85 L-8.55 0.4 -7.85 0.4 -8.5 -0.85 -8.15 -1.2 Q-7.9 -0.75 -7.65 -0.4 -7.15 0.25 -6.55 0.05 -6.6 -0.2 -6.85 -0.45 L-7.1 -0.65 -6.25 -0.3 -7.8 -3.7 -7.3 -2.85 Q-7.25 -2.5 -7.0 -2.35 L-6.95 -2.3 Q-6.6 -1.85 -6.1 -1.75 -6.25 -2.0 -6.45 -2.2 L-6.5 -2.25 -6.5 -2.3 Q-6.45 -2.35 -6.45 -2.45 -6.45 -2.6 -6.55 -2.7 L-6.55 -2.75 -6.3 -2.5 -6.05 -2.35 -4.65 -1.3 Q-3.7 -0.65 -2.7 -0.3 -2.55 -0.4 -2.4 -0.5 L-2.0 -0.95 Q-1.85 -1.1 -1.7 -1.3 L-1.6 -1.1 -1.65 -0.85 Q-1.7 -0.3 -1.65 0.2 -1.4 0.0 -1.25 -0.25 L-1.15 -0.5 -0.85 -0.2 Q-0.6 0.05 -0.45 0.3 -0.3 0.4 -0.15 0.4 L-0.2 0.45 Q-0.1 0.65 0.2 0.65 0.85 0.6 1.15 0.15 1.5 -0.3 2.0 -0.55 2.4 -0.15 2.45 0.3 2.5 0.7 2.65 1.05 2.8 1.5 3.15 1.85 3.85 2.0 4.35 1.65 4.95 1.15 5.75 0.95 L5.7 1.0 Q5.55 1.1 5.6 1.25 L5.65 1.55 Q5.65 1.7 5.8 1.85 L6.0 1.85 6.0 1.9 6.75 1.9 7.75 2.0 Q8.1 1.8 8.4 1.65 M-6.45 -3.35 L-6.15 -3.15 -5.85 -2.95 -5.85 -3.05 Q-5.75 -3.2 -5.55 -3.1 -5.3 -3.0 -5.1 -2.95 L-5.0 -2.95 Q-4.85 -3.25 -4.7 -3.6 -4.55 -4.0 -4.45 -4.45 -4.4 -4.75 -4.05 -4.8 -3.55 -4.7 -3.3 -4.25 -3.05 -3.85 -2.85 -3.5 -2.65 -3.1 -2.5 -3.1 L-2.5 -3.2 Q-2.45 -3.3 -2.35 -3.3 -2.2 -3.35 -2.05 -3.25 -1.9 -3.0 -1.85 -2.7 L-1.7 -2.15 -2.45 -1.45 Q-2.65 -1.2 -3.0 -1.0 L-6.05 -3.0 -6.45 -3.35 M-3.7 -5.9 L-3.75 -6.4 Q-3.1 -7.95 -2.2 -9.55 -0.9 -11.75 0.2 -14.05 L0.2 -14.15 0.3 -14.25 1.35 -15.5 1.45 -15.6 1.8 -15.8 Q1.65 -15.3 1.45 -14.8 L1.1 -13.75 Q0.95 -13.35 0.65 -13.05 0.45 -12.0 0.1 -10.9 L0.3 -11.3 Q2.3 -14.4 3.3 -17.95 3.6 -19.1 3.85 -20.2 L4.1 -21.3 4.1 -20.65 Q4.0 -17.3 2.85 -14.1 1.6 -10.55 -0.25 -7.3 -0.8 -6.3 -1.3 -5.15 L-2.25 -5.3 -2.35 -5.25 -2.15 -5.9 -2.3 -5.65 -2.9 -4.75 -3.7 -5.9 M7.15 -16.5 L7.25 -16.65 7.35 -16.15 Q7.5 -16.65 7.65 -17.15 L7.15 -16.5 M8.1 -9.75 Q8.6 -12.7 8.85 -15.65 7.9 -12.85 7.85 -9.75 7.8 -8.75 7.75 -7.8 7.9 -8.75 8.1 -9.75 M4.55 -9.35 L4.55 -9.2 Q3.95 -7.65 3.6 -6.0 4.2 -7.65 4.55 -9.35 M-1.0 -1.3 L-1.15 -1.55 Q-0.85 -1.6 -0.6 -1.85 L0.25 -2.55 0.45 -2.55 0.75 -2.4 Q0.95 -2.45 1.1 -2.6 L1.4 -2.85 1.5 -2.95 1.8 -2.9 1.95 -2.9 Q2.1 -2.8 2.2 -2.7 L2.3 -2.6 2.3 -2.45 1.0 -1.15 Q0.45 -0.6 -0.15 -0.35 L-0.2 -0.4 Q-0.6 -0.65 -0.85 -1.0 L-0.9 -1.1 -1.0 -1.3" fill="#3f5923" fill-rule="evenodd" stroke="none"/>
    <path d="M11.05 -32.15 Q11.05 -34.95 12.0 -37.45 L12.25 -38.15 12.15 -38.1 Q12.35 -39.6 12.85 -41.0 L13.85 -43.75 14.5 -45.3 Q14.35 -44.4 14.1 -43.5 L14.25 -43.9 Q14.9 -45.9 15.3 -47.6 15.15 -44.15 13.85 -40.85 12.75 -38.25 12.25 -35.5 11.4 -33.65 11.35 -31.7 L11.45 -31.75 11.2 -31.05 11.2 -31.25 11.05 -32.15 M11.35 -38.45 L11.85 -38.95 Q10.85 -35.1 10.1 -30.95 9.35 -26.9 7.3 -23.1 L6.45 -21.55 6.5 -21.6 6.35 -21.3 Q4.85 -18.1 4.2 -14.65 3.3 -13.0 2.5 -11.35 1.7 -9.65 1.1 -7.9 0.6 -6.9 0.2 -5.85 -0.15 -4.7 -0.85 -4.3 -0.75 -5.9 0.05 -7.45 0.95 -9.05 1.95 -10.6 L2.45 -11.3 Q3.0 -14.65 4.05 -18.1 5.05 -21.5 6.6 -24.8 7.2 -26.05 7.9 -27.1 L7.95 -27.1 Q9.4 -30.85 9.8 -34.85 L11.35 -38.45 M14.5 -39.9 L14.15 -38.35 14.5 -39.9 M12.65 -29.85 L11.1 -22.0 12.65 -29.85 M-4.0 -6.75 L-3.9 -6.4 -4.0 -6.75 M-3.75 -6.4 Q-3.8 -7.1 -3.65 -7.85 L-2.9 -9.85 Q-2.7 -10.15 -2.4 -10.35 -2.35 -10.8 -2.25 -11.25 -1.05 -13.8 0.6 -16.1 L1.2 -17.05 1.3 -17.2 Q2.6 -19.15 3.55 -21.25 L3.55 -21.2 Q3.9 -22.8 4.75 -24.2 5.15 -25.25 5.7 -26.25 L9.55 -33.2 9.15 -32.05 9.4 -32.45 Q9.05 -29.8 7.75 -27.55 6.9 -26.1 6.0 -24.65 L4.55 -21.55 4.1 -20.65 4.1 -21.3 3.85 -20.2 3.25 -18.95 1.45 -15.6 1.35 -15.5 0.3 -14.25 0.2 -14.15 0.2 -14.05 Q-0.9 -11.75 -2.2 -9.55 -3.1 -7.95 -3.75 -6.4 M-2.25 -5.3 L-2.9 -4.75 -2.3 -5.65 -2.15 -5.9 -2.35 -5.25 -2.25 -5.3 M7.6 -22.15 Q7.85 -22.7 8.4 -22.9 8.3 -22.0 7.75 -21.15 L6.6 -19.45 Q6.2 -18.85 5.65 -18.65 L6.65 -20.4 Q7.15 -21.25 7.6 -22.15 M5.65 -22.25 Q5.45 -21.85 5.25 -21.5 5.45 -21.8 5.7 -22.15 L5.65 -22.25 M7.15 -16.5 L7.65 -17.15 Q7.5 -16.65 7.35 -16.15 L7.25 -16.65 7.15 -16.5 M6.65 -12.5 L6.2 -6.15 6.2 -5.2 Q5.9 -4.25 5.5 -3.45 5.15 -5.45 5.4 -7.3 5.6 -8.7 5.85 -10.05 6.15 -11.1 6.45 -12.15 L6.65 -12.5 M4.55 -9.35 Q4.2 -7.65 3.6 -6.0 3.95 -7.65 4.55 -9.2 L4.55 -9.35 M3.9 -1.7 L3.6 -1.65 3.7 -1.7 3.7 -1.75 Q3.7 -2.0 3.85 -1.9 L3.85 -1.8 3.9 -1.7" fill="#608c38" fill-rule="evenodd" stroke="none"/>
    <path d="M16.4 -50.4 Q15.7 -47.7 15.4 -44.9 15.05 -42.1 14.55 -39.4 L14.45 -38.95 Q14.35 -37.45 14.05 -35.95 L14.0 -35.6 Q13.75 -33.95 13.35 -32.25 13.3 -31.9 13.15 -31.55 L13.05 -30.85 12.7 -28.7 12.7 -28.65 Q12.6 -25.75 11.5 -23.1 11.3 -20.9 10.85 -18.7 10.45 -16.1 10.15 -13.5 10.05 -12.5 9.75 -11.7 9.9 -10.05 9.45 -8.4 9.05 -6.75 8.65 -5.1 L8.35 -4.15 8.3 -3.95 Q8.15 -2.95 7.55 -2.2 L7.45 -2.05 10.5 -2.3 Q9.5 -1.45 8.2 -0.65 7.55 -0.2 7.25 0.45 L7.25 0.5 Q7.15 0.75 7.2 1.0 7.6 0.85 8.0 0.55 8.4 0.25 8.7 -0.1 8.8 -0.2 9.0 -0.15 9.45 0.25 9.15 0.75 8.9 1.2 8.7 1.65 8.55 1.95 8.55 2.2 8.8 2.3 9.05 2.45 L9.55 2.8 9.7 2.95 Q9.65 3.1 9.45 3.1 L9.1 3.05 8.9 3.05 8.8 2.95 8.75 2.85 8.55 2.75 8.2 2.7 Q7.95 2.7 7.9 2.5 8.0 2.2 8.1 1.9 L8.4 1.15 8.55 0.8 Q8.1 1.1 7.65 1.3 7.25 1.55 6.9 1.85 6.8 1.95 6.65 1.9 6.25 1.45 6.5 0.85 6.65 0.4 6.85 0.05 L6.3 0.15 Q5.25 0.35 4.45 0.8 4.0 1.05 3.6 1.15 3.55 1.3 3.4 1.4 3.1 0.95 2.9 0.25 2.8 -0.35 2.55 -1.0 L2.3 -1.75 Q1.75 -1.35 1.25 -0.85 0.75 -0.35 0.15 0.1 L0.25 0.2 Q-0.4 0.2 -0.9 -0.5 L-1.6 -1.5 Q-1.7 -1.65 -1.7 -1.85 -1.95 -1.65 -2.05 -1.35 L-2.25 -0.8 -2.0 -0.45 -2.45 -0.55 -2.55 -0.55 Q-3.45 -0.8 -4.4 -1.45 L-6.75 -3.15 Q-7.65 -3.8 -7.9 -4.45 L-6.45 -3.35 Q-6.55 -3.55 -6.55 -3.8 -6.7 -4.45 -7.0 -5.15 -7.25 -5.65 -7.25 -5.95 L-7.2 -5.9 Q-6.7 -6.0 -6.2 -5.55 -5.85 -5.2 -5.6 -4.85 L-5.55 -4.7 Q-5.2 -5.15 -5.15 -5.85 -5.1 -6.55 -5.15 -7.25 -5.2 -7.8 -5.05 -8.1 -4.7 -7.85 -4.35 -7.5 -4.15 -8.2 -3.75 -8.9 -2.55 -11.2 -1.4 -13.6 -0.3 -15.8 0.95 -17.95 L1.35 -18.6 Q1.75 -19.6 2.1 -20.65 3.2 -24.3 5.35 -27.55 7.8 -31.25 9.5 -35.2 10.15 -36.65 10.9 -37.95 11.55 -39.95 12.45 -41.95 13.65 -44.7 14.65 -47.45 15.25 -49.05 16.2 -50.3 L15.9 -49.55 Q16.15 -50.0 16.4 -50.4 M15.4 -48.0 L14.25 -44.7 Q13.55 -42.55 12.6 -40.45 L12.3 -39.45 Q11.5 -37.15 11.25 -34.75 L10.95 -32.05 Q10.95 -34.2 11.35 -36.65 11.5 -37.65 11.7 -38.65 11.3 -37.85 10.8 -37.05 9.6 -34.2 8.2 -31.45 6.25 -27.6 4.1 -23.85 3.4 -22.75 2.8 -21.55 L2.7 -21.1 Q3.15 -22.1 3.85 -22.9 3.25 -21.05 2.4 -19.2 L0.7 -15.55 Q0.2 -14.5 -0.55 -13.65 -0.35 -14.4 -0.15 -15.15 -1.9 -12.2 -3.05 -8.95 -3.45 -7.9 -3.9 -6.9 L-3.85 -6.8 -3.4 -6.0 Q-2.95 -7.4 -2.2 -8.8 -1.1 -10.7 -0.25 -12.75 0.25 -13.95 0.9 -14.95 0.3 -12.85 -0.6 -10.8 -1.45 -8.8 -2.5 -6.8 L-3.15 -5.65 -3.25 -5.7 -3.1 -5.3 Q-3.0 -5.15 -2.95 -4.95 L-2.85 -5.0 -2.6 -5.15 -2.75 -5.3 Q-1.95 -7.4 -0.85 -9.4 0.55 -12.05 1.7 -14.85 2.35 -16.45 3.4 -17.6 2.35 -14.85 0.9 -12.15 -0.5 -9.5 -1.7 -6.7 -2.0 -6.0 -2.4 -5.3 -2.1 -5.5 -1.8 -5.75 -1.75 -5.8 -1.65 -5.8 -1.0 -5.55 -1.1 -4.7 -1.15 -4.1 -1.0 -3.4 L-0.8 -2.6 1.0 -3.65 Q1.85 -4.1 2.75 -4.2 2.9 -5.15 3.15 -6.05 3.7 -7.8 4.2 -9.6 4.45 -10.65 4.85 -11.55 4.7 -9.75 4.2 -7.9 3.75 -6.15 3.4 -4.35 L3.35 -4.25 3.5 -4.25 Q3.6 -4.05 3.45 -3.9 3.25 -3.65 3.15 -3.3 L3.1 -3.15 3.1 -2.9 Q3.1 -2.45 3.15 -2.0 L3.2 -1.5 6.7 -1.95 Q6.75 -3.85 6.7 -5.85 6.65 -8.35 6.9 -10.85 7.05 -12.25 7.5 -13.5 7.2 -11.0 7.0 -8.5 6.75 -6.05 7.25 -3.45 L7.3 -3.15 Q7.5 -3.75 7.75 -4.35 7.95 -5.1 8.2 -5.85 8.5 -6.8 8.75 -7.85 8.95 -8.9 9.0 -10.0 9.05 -10.8 9.25 -11.4 9.25 -11.75 9.25 -12.05 L8.45 -9.8 Q8.5 -12.3 9.35 -14.75 10.15 -17.0 10.45 -19.5 10.55 -20.35 10.8 -21.1 L10.8 -21.45 Q10.5 -20.55 10.2 -19.7 L10.25 -20.2 9.9 -19.25 Q9.9 -21.95 10.7 -24.6 11.5 -27.0 11.9 -29.55 12.05 -30.6 12.45 -31.55 12.55 -33.25 13.05 -34.75 L13.0 -33.9 13.05 -34.05 Q13.6 -35.7 13.8 -37.35 13.6 -37.05 13.35 -36.75 14.05 -39.45 14.4 -42.25 14.8 -45.0 15.35 -47.75 L15.4 -48.0 M10.65 -29.8 Q10.4 -28.55 10.05 -27.3 9.95 -26.9 9.8 -26.55 L9.5 -25.4 Q9.25 -24.65 8.9 -23.95 8.9 -25.15 9.4 -26.7 L9.95 -28.45 9.95 -28.55 Q10.2 -29.8 10.45 -31.1 10.55 -31.85 10.9 -32.4 10.9 -31.1 10.65 -29.8 M11.35 -24.95 L11.35 -24.85 11.45 -25.1 Q11.45 -25.15 11.4 -25.15 11.35 -25.05 11.35 -24.95 M11.05 -26.85 Q9.85 -23.55 8.1 -20.35 6.3 -17.2 4.4 -14.1 3.35 -12.45 1.85 -11.1 3.85 -14.4 6.0 -17.6 7.95 -20.5 9.5 -23.7 L11.05 -26.85 M9.8 -31.45 Q8.35 -29.05 7.2 -26.45 6.1 -23.9 5.3 -21.2 4.85 -19.75 4.3 -18.25 4.65 -20.8 5.6 -23.35 6.65 -26.0 7.85 -28.65 8.55 -30.25 9.8 -31.45 M7.2 -16.9 Q7.95 -17.9 8.5 -18.85 7.8 -16.8 6.3 -15.05 4.85 -13.35 3.8 -11.4 3.2 -10.25 2.3 -9.4 3.1 -11.4 4.45 -13.2 L7.2 -16.9 M4.35 -4.8 Q4.2 -3.65 4.3 -2.4 4.3 -2.05 4.2 -1.75 L4.15 -1.75 Q4.15 -1.8 4.15 -1.9 L4.15 -2.15 Q3.9 -2.4 3.75 -2.7 L3.75 -2.8 Q3.75 -3.25 3.8 -3.65 4.0 -4.8 4.1 -6.05 4.15 -6.8 4.55 -7.3 4.5 -6.05 4.35 -4.8 M1.0 -6.2 Q0.5 -5.0 0.1 -3.85 0.0 -3.45 -0.2 -3.15 L-0.4 -3.3 Q0.0 -4.1 0.2 -5.0 0.5 -6.25 1.15 -7.4 1.5 -8.0 1.75 -8.6 1.5 -7.4 1.0 -6.2 M2.7 -3.75 Q1.85 -3.5 0.95 -2.9 0.05 -2.35 -0.95 -2.2 -1.35 -2.6 -1.4 -3.15 L-1.5 -4.3 -1.65 -5.15 Q-1.85 -5.05 -2.1 -4.9 -2.5 -4.75 -2.7 -4.5 -2.85 -4.35 -3.1 -4.4 L-3.1 -4.4 -3.2 -4.4 -3.25 -4.5 Q-3.55 -4.8 -3.7 -5.25 -3.9 -5.75 -4.15 -6.25 L-4.35 -6.55 -4.6 -6.75 -4.55 -6.9 -4.65 -7.05 Q-4.75 -6.5 -4.8 -5.9 L-4.95 -4.65 Q-4.95 -4.25 -5.25 -3.95 -5.75 -4.15 -6.05 -4.65 -6.3 -5.1 -6.7 -5.45 -6.45 -5.15 -6.35 -4.75 L-5.95 -3.4 Q-5.85 -3.15 -5.85 -2.9 L-5.65 -2.75 Q-4.45 -1.95 -3.15 -1.35 -2.9 -1.25 -2.65 -1.1 -2.65 -1.35 -2.55 -1.55 -2.25 -2.05 -1.95 -2.5 -1.85 -2.75 -1.5 -2.75 -1.0 -2.25 -0.85 -1.55 -0.7 -0.95 -0.25 -0.4 L0.0 -0.1 Q0.25 -0.65 0.8 -1.1 1.5 -1.75 2.1 -2.45 2.2 -2.6 2.35 -2.6 2.6 -2.25 2.75 -1.85 L2.8 -2.1 2.9 -3.0 2.85 -3.0 2.75 -3.15 Q2.7 -3.3 2.65 -3.4 2.7 -3.55 2.75 -3.7 L2.7 -3.7 2.7 -3.75 M5.65 -0.25 L7.15 -0.75 7.25 -0.65 7.25 -0.7 7.35 -0.65 7.4 -0.7 Q8.15 -1.25 9.0 -1.7 5.95 -1.4 3.1 -1.0 L3.65 0.55 3.65 0.7 Q3.9 0.45 4.3 0.3 L5.65 -0.25 M-8.3 -3.7 Q-8.6 -4.35 -8.15 -4.7 -7.55 -3.85 -7.25 -2.85 -6.95 -1.9 -6.45 -1.0 L-5.9 -0.05 Q-6.65 0.2 -7.3 -0.45 -7.7 -0.85 -8.2 -1.15 L-7.9 -0.45 Q-7.75 -0.05 -7.5 0.35 -7.3 0.65 -7.25 0.9 -7.6 1.05 -8.05 0.85 -8.65 0.5 -8.7 0.75 L-8.6 0.85 Q-8.35 1.0 -8.2 1.15 L-8.15 1.2 Q-8.6 1.3 -9.15 0.95 -9.65 0.6 -9.9 0.2 -9.75 -0.15 -9.0 0.1 -8.5 0.3 -8.0 0.35 L-8.4 -0.65 -8.9 -1.75 Q-9.1 -2.15 -8.75 -2.35 -8.25 -2.2 -7.95 -1.65 -7.75 -1.15 -7.15 -0.8 L-6.9 -0.6 -7.6 -2.1 -8.3 -3.7" fill="#31451b" fill-rule="evenodd" stroke="none"/>
  </g>
</svg>
