<?xml version="1.0" encoding="UTF-8" standalone="no"?>
<svg xmlns:ffdec="https://www.free-decompiler.com/flash" xmlns:xlink="http://www.w3.org/1999/xlink" ffdec:objectType="shape" height="9.3px" width="8.6px" xmlns="http://www.w3.org/2000/svg">
  <g transform="matrix(1.0, 0.0, 0.0, 1.0, 0.0, 8.0)">
    <path d="M5.7 -7.15 Q5.05 -7.4 4.15 -7.35 3.3 -7.3 2.55 -7.0 1.8 -6.65 1.35 -6.15 1.45 -6.15 2.15 -6.6 3.05 -7.0 4.1 -7.0 5.15 -7.0 5.95 -6.65 6.35 -6.5 6.65 -6.25 L6.7 -6.3 Q6.4 -6.85 5.7 -7.15 M1.0 0.45 L1.0 0.5 1.15 0.5 Q1.95 0.5 2.5 -0.65 2.75 -1.25 2.85 -1.85 2.85 -2.5 2.5 -2.9 2.3 -3.15 1.65 -3.5 1.1 -3.85 0.85 -4.1 0.45 -4.55 0.45 -5.2 0.45 -5.9 1.2 -6.6 2.15 -7.5 3.9 -7.5 6.45 -7.5 7.5 -6.05 8.05 -5.25 8.05 -4.1 8.05 -3.6 7.4 -2.75 7.05 -2.25 6.7 -1.95 6.9 -2.3 7.05 -2.95 L7.1 -3.1 Q7.2 -3.3 7.2 -3.5 L7.15 -3.7 7.2 -4.35 Q7.2 -5.45 6.35 -6.1 5.55 -6.7 4.4 -6.85 3.3 -6.95 2.45 -6.5 1.6 -6.05 1.6 -5.1 1.6 -4.4 2.1 -3.9 2.45 -3.6 3.25 -3.2 4.1 -2.8 4.35 -2.55 4.9 -2.1 4.9 -1.5 4.9 -0.85 4.2 0.05 L3.55 0.9 3.6 1.05 3.35 1.15 3.35 1.0 Q3.35 0.8 3.2 0.75 3.0 0.6 2.75 1.0 L2.75 1.15 2.8 1.15 Q2.25 1.1 1.8 0.95 1.05 0.75 0.95 0.45 L1.0 0.45 M7.6 -5.45 Q7.5 -6.0 7.3 -6.05 7.1 -6.1 7.1 -5.75 L7.15 -5.5 Q7.25 -5.25 7.45 -5.25 7.55 -5.25 7.6 -5.3 L7.6 -5.45 M3.55 -2.7 L4.05 -2.3 Q4.4 -1.95 4.4 -1.7 4.4 -1.65 4.3 -1.4 4.2 -1.15 4.2 -1.1 4.2 -0.95 4.25 -0.95 L4.3 -0.95 Q4.5 -1.15 4.6 -1.4 L4.6 -1.9 Q4.6 -2.25 4.3 -2.55 3.95 -2.9 3.55 -2.7" fill="#3f5923" fill-rule="evenodd" stroke="none"/>
    <path d="M5.7 -7.15 Q6.4 -6.85 6.7 -6.3 L6.65 -6.25 Q6.35 -6.5 5.95 -6.65 5.15 -7.0 4.1 -7.0 3.05 -7.0 2.15 -6.6 1.45 -6.15 1.35 -6.15 1.8 -6.65 2.55 -7.0 3.3 -7.3 4.15 -7.35 5.05 -7.4 5.7 -7.15 M3.55 -2.7 Q3.95 -2.9 4.3 -2.55 4.6 -2.25 4.6 -1.9 L4.6 -1.4 Q4.5 -1.15 4.3 -0.95 L4.25 -0.95 Q4.2 -0.95 4.2 -1.1 4.2 -1.15 4.3 -1.4 4.4 -1.65 4.4 -1.7 4.4 -1.95 4.05 -2.3 L3.55 -2.7 M7.6 -5.45 L7.6 -5.3 Q7.55 -5.25 7.45 -5.25 7.25 -5.25 7.15 -5.5 L7.1 -5.75 Q7.1 -6.1 7.3 -6.05 7.5 -6.0 7.6 -5.45" fill="#759c65" fill-rule="evenodd" stroke="none"/>
    <path d="M7.1 -3.1 L7.05 -2.95 Q6.9 -2.3 6.7 -1.95 7.05 -2.25 7.4 -2.75 8.05 -3.6 8.05 -4.1 8.05 -5.25 7.5 -6.05 6.45 -7.5 3.9 -7.5 2.15 -7.5 1.2 -6.6 0.45 -5.9 0.45 -5.2 0.45 -4.55 0.85 -4.1 1.1 -3.85 1.65 -3.5 2.3 -3.15 2.5 -2.9 2.85 -2.5 2.85 -1.85 2.75 -1.25 2.5 -0.65 1.95 0.5 1.15 0.5 L1.0 0.5 1.0 0.45 0.95 0.4 Q1.2 0.1 2.0 -0.8 2.45 -1.25 2.45 -1.9 2.45 -2.4 2.05 -2.7 L1.25 -3.2 Q0.65 -3.55 0.4 -3.9 0.0 -4.45 0.0 -5.3 0.0 -6.2 0.75 -6.95 1.8 -8.0 4.0 -8.0 6.7 -8.0 7.85 -6.55 8.6 -5.55 8.6 -4.1 8.6 -3.45 8.1 -2.55 7.4 -1.3 6.3 -1.3 L6.0 -1.5 5.95 -1.55 5.9 -1.55 5.9 -1.65 Q6.25 -2.0 6.5 -2.75 6.8 -3.5 6.8 -4.0 6.8 -4.65 6.4 -5.25 5.75 -6.3 4.15 -6.3 2.05 -6.3 2.05 -5.2 2.05 -4.55 2.6 -4.2 2.8 -4.0 3.75 -3.65 4.55 -3.3 4.9 -2.95 5.45 -2.4 5.45 -1.5 5.45 -0.8 5.25 -0.1 4.9 1.25 3.95 1.25 L3.75 1.2 3.6 1.05 3.55 0.9 4.2 0.05 Q4.9 -0.85 4.9 -1.5 4.9 -2.1 4.35 -2.55 4.1 -2.8 3.25 -3.2 2.45 -3.6 2.1 -3.9 1.6 -4.4 1.6 -5.1 1.6 -6.05 2.45 -6.5 3.3 -6.95 4.4 -6.85 5.55 -6.7 6.35 -6.1 7.2 -5.45 7.2 -4.35 L7.15 -3.7 7.1 -3.1 M2.8 1.15 L2.75 1.15 2.75 1.0 Q3.0 0.6 3.2 0.75 3.35 0.8 3.35 1.0 L3.35 1.15 3.35 1.2 3.05 1.3 Q2.85 1.25 2.8 1.15" fill="#31451b" fill-rule="evenodd" stroke="none"/>
  </g>
</svg>
