<?xml version="1.0" encoding="UTF-8" standalone="no"?>
<svg xmlns:ffdec="https://www.free-decompiler.com/flash" xmlns:xlink="http://www.w3.org/1999/xlink" ffdec:objectType="shape" height="36.1px" width="70.7px" xmlns="http://www.w3.org/2000/svg">
  <g transform="matrix(1.0, 0.0, 0.0, 1.0, 35.65, 50.5)">
    <path d="M28.65 -37.45 L28.65 -37.6 28.9 -37.6 Q28.9 -37.45 28.85 -37.35 28.7 -37.35 28.65 -37.45 M35.05 -22.9 L34.9 -22.75 Q34.7 -22.8 34.65 -22.9 L34.65 -23.2 34.95 -23.25 Q35.05 -23.05 35.05 -22.9 M-1.8 -50.15 L-1.85 -50.2 -1.7 -50.45 Q-1.6 -50.55 -1.45 -50.4 L-1.55 -50.25 Q-1.65 -50.15 -1.8 -50.15 M-17.0 -45.8 L-17.3 -46.15 -17.3 -46.3 Q-17.25 -46.25 -17.25 -46.3 L-16.85 -46.25 Q-16.85 -46.15 -16.7 -46.0 -16.85 -45.85 -17.0 -45.8 M-35.25 -14.45 L-35.55 -14.4 -35.55 -14.55 -35.65 -14.65 Q-35.6 -14.75 -35.5 -14.8 L-35.4 -14.8 -35.2 -14.65 Q-35.2 -14.5 -35.25 -14.45" fill="#ccfffe" fill-opacity="0.7529412" fill-rule="evenodd" stroke="none"/>
  </g>
</svg>
