<?xml version="1.0" encoding="UTF-8" standalone="no"?>
<svg xmlns:ffdec="https://www.free-decompiler.com/flash" xmlns:xlink="http://www.w3.org/1999/xlink" ffdec:objectType="shape" height="8.65px" width="25.8px" xmlns="http://www.w3.org/2000/svg">
  <g transform="matrix(1.0, 0.0, 0.0, 1.0, 0.2, 6.35)">
    <path d="M4.8 -4.7 L5.45 -4.65 6.15 -4.55 6.25 -4.6 Q4.95 -5.85 3.65 -5.25 3.2 -5.0 2.85 -4.6 2.55 -4.2 2.55 -3.9 2.55 -3.8 2.6 -3.8 L2.6 -3.75 2.65 -3.75 2.8 -3.7 Q2.95 -3.7 3.35 -4.2 3.85 -4.7 4.8 -4.7 M1.1 -4.35 L1.2 -4.55 Q1.55 -4.9 1.95 -5.15 2.9 -5.75 4.5 -5.75 6.25 -5.75 7.7 -4.75 8.2 -4.4 8.7 -3.9 8.65 -3.85 8.65 -3.7 8.65 -3.2 9.9 -2.15 10.4 -1.75 10.8 -1.5 L11.6 -0.55 11.2 -0.9 8.95 -2.65 Q7.8 -3.5 7.0 -3.5 5.05 -3.5 4.2 -1.75 3.7 -0.75 3.7 0.55 L3.7 0.6 3.6 0.75 3.7 0.7 3.55 0.85 3.45 1.05 3.3 1.05 3.15 1.15 2.55 1.15 Q2.05 1.15 1.6 0.75 1.15 0.5 0.9 0.05 L1.05 0.6 0.45 -0.05 Q0.2 -1.9 0.45 -2.95 0.65 -3.8 1.1 -4.35 M22.45 -2.7 L22.55 -2.75 22.75 -3.0 23.15 -3.0 Q22.95 -2.9 22.75 -2.8 L22.45 -2.7 M22.8 -2.1 Q22.5 -2.0 22.25 -1.85 22.0 -1.75 21.8 -1.6 L22.25 -2.3 22.35 -2.4 Q23.05 -2.85 23.6 -2.85 24.4 -2.85 24.9 -2.4 L24.95 -2.4 24.95 -2.35 Q24.95 -2.2 24.95 -2.15 L25.05 -2.1 24.35 -2.2 Q24.1 -2.4 23.55 -2.5 22.9 -2.55 22.6 -2.1 L22.8 -2.1 M19.15 0.7 Q19.9 0.4 20.55 -0.1 19.9 0.8 19.7 1.0 18.9 1.7 17.75 1.7 16.1 1.7 14.55 1.15 L16.25 1.2 Q17.9 1.2 19.15 0.7 L19.1 0.75 18.55 1.0 Q19.0 0.85 19.35 0.65 L19.15 0.7 M13.95 0.9 L13.85 0.85 13.95 0.85 13.95 0.9" fill="#3f5923" fill-rule="evenodd" stroke="none"/>
    <path d="M4.8 -4.7 Q3.85 -4.7 3.35 -4.2 2.95 -3.7 2.8 -3.7 L2.65 -3.75 2.6 -3.75 2.6 -3.8 Q2.55 -3.8 2.55 -3.9 2.55 -4.2 2.85 -4.6 3.2 -5.0 3.65 -5.25 4.95 -5.85 6.25 -4.6 L6.15 -4.55 5.45 -4.65 4.8 -4.7 M22.8 -2.1 L22.6 -2.1 Q22.9 -2.55 23.55 -2.5 24.1 -2.4 24.35 -2.2 23.5 -2.25 22.8 -2.1" fill="#759c65" fill-rule="evenodd" stroke="none"/>
    <path d="M1.95 -5.15 Q1.45 -4.85 1.1 -4.35 0.65 -3.8 0.45 -2.95 0.2 -1.9 0.45 -0.05 L0.55 0.5 0.5 0.65 0.45 0.7 0.25 0.75 Q0.0 0.75 -0.15 0.2 -0.2 -0.1 -0.2 -0.4 L-0.15 -1.25 -0.05 -2.15 Q-0.05 -3.65 0.9 -4.8 2.35 -6.5 5.5 -6.35 7.2 -5.8 8.5 -4.75 9.3 -4.1 10.4 -2.85 L11.25 -1.85 12.05 -1.2 11.9 -1.2 12.1 -0.95 Q13.2 0.0 14.6 0.45 L14.65 0.6 16.1 0.7 Q17.05 0.7 17.85 0.5 18.5 0.3 19.1 0.05 L19.45 -0.15 20.1 -0.6 Q20.3 -1.05 20.8 -1.5 21.4 -2.1 22.15 -2.5 L22.4 -2.65 22.45 -2.7 22.75 -2.8 Q22.95 -2.9 23.15 -3.0 24.05 -3.35 24.65 -3.3 25.55 -3.2 25.55 -2.3 L25.6 -2.05 Q25.6 -1.45 25.1 -1.45 L24.7 -1.55 Q24.3 -1.7 23.85 -1.7 22.9 -1.7 22.15 -1.1 21.85 -0.8 21.0 0.3 20.25 1.25 19.6 1.7 18.65 2.3 17.35 2.3 14.3 2.3 10.9 -0.3 L8.65 -2.05 Q7.55 -2.9 7.0 -2.9 5.25 -2.9 4.45 -1.15 4.05 -0.25 3.9 0.8 L3.8 0.8 3.7 0.7 3.7 0.6 3.7 0.55 Q3.7 -0.75 4.2 -1.75 5.05 -3.5 7.0 -3.5 7.8 -3.5 8.95 -2.65 L11.2 -0.9 11.6 -0.55 10.8 -1.5 Q10.4 -1.75 9.9 -2.15 8.65 -3.2 8.65 -3.7 8.65 -3.85 8.7 -3.9 8.2 -4.4 7.7 -4.75 6.25 -5.75 4.5 -5.75 2.9 -5.75 1.95 -5.15 M24.35 -2.2 L25.05 -2.1 24.95 -2.15 Q24.95 -2.2 24.95 -2.35 L24.95 -2.4 24.9 -2.4 Q24.4 -2.85 23.6 -2.85 23.05 -2.85 22.35 -2.4 L22.25 -2.3 21.8 -1.6 Q22.0 -1.75 22.25 -1.85 22.5 -2.0 22.8 -2.1 23.5 -2.25 24.35 -2.2 M19.15 0.7 Q17.9 1.2 16.25 1.2 L14.55 1.15 Q16.1 1.7 17.75 1.7 18.9 1.7 19.7 1.0 19.9 0.8 20.55 -0.1 19.9 0.4 19.15 0.7 M13.95 0.9 L13.95 0.85 13.85 0.85 13.95 0.9" fill="#31451b" fill-rule="evenodd" stroke="none"/>
  </g>
</svg>
