<?xml version="1.0" encoding="UTF-8" standalone="no"?>
<svg xmlns:ffdec="https://www.free-decompiler.com/flash" xmlns:xlink="http://www.w3.org/1999/xlink" ffdec:objectType="shape" height="13.35px" width="12.6px" xmlns="http://www.w3.org/2000/svg">
  <g transform="matrix(1.0, 0.0, 0.0, 1.0, 0.8, 11.6)">
    <path d="M2.95 1.25 L2.9 1.5 Q2.85 1.75 2.6 1.75 2.4 1.75 2.35 1.55 2.35 1.5 2.35 1.25 2.35 0.8 2.65 0.8 2.95 0.8 2.95 1.25 M3.95 0.55 Q3.85 0.55 3.8 0.45 3.7 0.35 3.7 0.2 3.7 -0.2 3.95 -0.15 4.2 -0.1 4.2 0.25 L4.2 0.4 Q4.15 0.55 3.95 0.55 M9.5 -2.95 Q9.3 -2.95 9.2 -3.05 9.15 -3.1 9.15 -3.25 9.15 -3.65 9.55 -3.7 9.9 -3.8 9.9 -3.4 9.9 -3.25 9.85 -3.15 9.7 -2.95 9.5 -2.95 M11.55 -1.85 Q11.45 -1.85 11.35 -2.1 L11.35 -2.3 Q11.8 -2.4 11.8 -2.1 L11.75 -1.95 Q11.7 -1.85 11.55 -1.85 M6.15 -1.35 Q6.0 -1.4 6.0 -1.55 6.0 -1.8 6.25 -1.8 6.5 -1.8 6.5 -1.55 L6.5 -1.45 Q6.45 -1.3 6.25 -1.3 L6.15 -1.35 M7.8 -4.85 L7.75 -5.0 Q7.75 -5.2 8.0 -5.2 8.25 -5.25 8.25 -5.0 L8.2 -4.85 8.2 -4.8 8.0 -4.75 7.85 -4.8 7.8 -4.85 M6.05 -3.8 L6.05 -4.0 Q6.05 -4.2 6.4 -4.5 6.75 -4.8 6.75 -4.35 L6.7 -4.05 Q6.55 -3.7 6.25 -3.7 6.1 -3.7 6.05 -3.8 M7.35 -6.2 L7.25 -6.2 7.1 -6.15 6.95 -6.2 6.9 -6.2 6.9 -6.35 Q6.9 -6.6 7.15 -6.7 7.4 -6.75 7.4 -6.4 L7.4 -6.25 7.35 -6.2 M11.25 -3.85 L11.25 -3.65 11.2 -3.5 Q11.15 -3.4 11.0 -3.4 L10.8 -3.45 10.75 -3.45 10.7 -3.65 Q10.85 -3.85 11.25 -3.85 M3.3 -1.7 Q3.25 -1.95 3.25 -2.2 3.25 -2.7 3.55 -2.5 3.9 -2.3 3.9 -1.75 L3.9 -1.55 Q3.85 -1.35 3.65 -1.35 3.4 -1.35 3.3 -1.7 M1.7 -0.55 L1.8 -0.6 Q2.05 -0.5 2.05 -0.35 2.05 -0.25 2.0 -0.2 L1.9 -0.15 1.75 -0.3 1.65 -0.45 Q1.65 -0.55 1.7 -0.55 M0.95 -0.3 Q1.25 -0.7 1.25 -0.1 L1.15 0.35 Q1.05 0.85 0.85 0.85 0.75 0.85 0.7 0.8 L0.65 0.75 0.65 0.35 Q0.65 0.1 0.95 -0.3 M2.0 -2.3 L2.0 -1.95 Q1.95 -1.7 1.75 -1.7 1.6 -1.7 1.45 -2.2 1.3 -2.6 1.3 -2.75 1.3 -3.35 1.65 -3.15 2.0 -3.0 2.0 -2.3 M0.6 -4.05 Q0.55 -3.85 0.3 -3.85 0.05 -3.85 -0.3 -4.45 -0.65 -5.05 -0.65 -5.2 -0.65 -5.9 0.0 -5.3 0.6 -4.75 0.6 -4.25 L0.6 -4.05 M0.65 -5.8 Q0.6 -5.9 0.6 -6.0 0.6 -6.3 0.85 -6.25 1.1 -6.25 1.1 -6.0 1.1 -5.75 0.85 -5.6 L0.7 -5.65 0.65 -5.8 M1.65 -6.15 Q1.6 -6.25 1.6 -6.45 1.6 -6.75 1.7 -6.9 1.8 -7.1 2.15 -7.05 L2.2 -6.75 2.2 -6.35 Q2.1 -6.0 1.9 -6.0 1.7 -6.0 1.65 -6.15 M3.0 -4.0 L3.0 -3.75 Q2.95 -3.55 2.7 -3.55 2.5 -3.55 2.35 -3.9 2.25 -4.1 2.25 -4.3 2.25 -4.85 2.65 -4.65 3.0 -4.5 3.0 -4.0 M4.2 -8.7 L4.2 -8.5 3.85 -8.5 3.8 -8.55 Q3.9 -9.0 4.05 -9.0 4.2 -9.0 4.2 -8.7 M5.3 -9.1 Q5.55 -9.05 5.55 -8.85 L5.55 -8.75 Q5.5 -8.65 5.3 -8.65 5.25 -8.65 5.15 -8.8 5.05 -8.9 5.05 -9.0 5.05 -9.15 5.3 -9.1 M1.9 -8.55 Q1.75 -8.6 1.75 -8.7 1.75 -9.1 2.4 -9.4 3.0 -9.7 3.0 -9.15 3.0 -9.0 2.9 -8.8 2.65 -8.45 2.2 -8.45 2.05 -8.45 1.9 -8.55 M0.55 -8.65 Q0.5 -8.2 0.4 -7.7 0.15 -6.75 -0.4 -6.75 -0.6 -6.75 -0.7 -7.05 -0.8 -7.25 -0.8 -7.45 -0.8 -8.35 -0.1 -8.95 0.15 -9.2 0.35 -9.15 0.55 -9.05 0.55 -8.65 M1.35 -7.7 L1.35 -7.85 Q1.55 -7.95 1.65 -7.85 1.7 -7.8 1.7 -7.7 L1.7 -7.55 1.5 -7.5 1.4 -7.55 1.35 -7.6 1.35 -7.7 M0.5 -10.35 L0.75 -10.35 Q0.9 -10.25 0.9 -10.1 L0.85 -10.0 Q0.85 -9.9 0.65 -9.85 L0.55 -9.9 Q0.5 -9.95 0.45 -10.15 L0.5 -10.35 M1.8 -10.1 Q1.7 -10.15 1.7 -10.3 1.7 -10.65 2.15 -10.8 2.6 -10.95 2.6 -10.55 2.6 -10.45 2.45 -10.3 2.3 -10.1 1.95 -10.1 L1.8 -10.1 M3.55 -10.9 Q3.55 -11.35 4.55 -11.35 5.55 -11.35 5.55 -10.9 5.55 -10.75 5.35 -10.6 5.1 -10.4 4.65 -10.4 4.25 -10.4 3.9 -10.55 3.55 -10.7 3.55 -10.9 M10.4 -8.45 L10.15 -8.5 Q10.1 -8.55 10.1 -8.7 L10.1 -8.9 10.55 -8.95 Q10.6 -8.9 10.6 -8.7 L10.6 -8.55 Q10.55 -8.45 10.4 -8.45 M8.8 -7.4 Q9.1 -7.45 9.1 -7.1 L9.05 -6.95 Q8.95 -6.75 8.7 -6.75 8.6 -6.75 8.55 -6.8 8.5 -6.9 8.5 -7.0 8.5 -7.3 8.8 -7.4 M9.6 -9.85 L9.6 -9.7 Q9.55 -9.6 9.4 -9.6 9.2 -9.7 9.2 -9.85 9.2 -10.0 9.25 -10.05 L9.55 -10.0 Q9.6 -9.95 9.6 -9.85 M8.4 -8.45 Q8.35 -8.55 8.35 -8.7 8.35 -9.0 8.65 -9.0 8.9 -9.0 8.9 -8.7 8.95 -8.65 8.95 -8.55 8.9 -8.35 8.65 -8.35 8.45 -8.35 8.4 -8.45 M7.45 -7.45 Q7.4 -7.45 7.25 -7.55 7.15 -7.6 7.1 -7.65 7.3 -8.0 7.55 -7.9 7.75 -7.85 7.75 -7.65 L7.7 -7.55 7.7 -7.5 7.45 -7.45 M6.4 -9.0 Q6.35 -9.15 6.35 -9.25 6.35 -9.5 6.6 -9.5 6.85 -9.45 6.85 -9.15 L6.85 -8.95 6.65 -8.85 Q6.5 -8.85 6.4 -9.0 M8.0 -9.85 Q7.6 -9.85 7.4 -10.05 7.25 -10.2 7.25 -10.4 7.25 -11.0 7.85 -10.9 8.4 -10.8 8.4 -10.25 8.45 -10.15 8.4 -10.05 8.3 -9.85 8.0 -9.85 M6.25 -11.4 Q6.25 -11.6 6.5 -11.6 6.75 -11.6 6.75 -11.35 6.75 -11.2 6.5 -11.0 6.35 -11.05 6.3 -11.2 6.25 -11.3 6.25 -11.4 M9.7 -10.8 L9.5 -10.75 Q9.3 -10.75 9.3 -11.05 9.3 -11.25 9.5 -11.3 9.75 -11.3 9.75 -11.05 L9.7 -10.8" fill="#3f5923" fill-rule="evenodd" stroke="none"/>
  </g>
</svg>
