<?xml version="1.0" encoding="UTF-8" standalone="no"?>
<svg xmlns:ffdec="https://www.free-decompiler.com/flash" xmlns:xlink="http://www.w3.org/1999/xlink" ffdec:objectType="shape" height="14.2px" width="7.8px" xmlns="http://www.w3.org/2000/svg">
  <g transform="matrix(1.0, 0.0, 0.0, 1.0, 2.8, 15.0)">
    <path d="M1.0 -14.4 Q0.95 -14.35 0.8 -14.35 0.55 -14.35 0.45 -14.5 0.4 -14.6 0.4 -14.7 0.4 -15.1 0.7 -15.0 1.05 -14.9 1.05 -14.6 L1.0 -14.4 M3.6 -12.8 L3.6 -12.75 3.5 -12.75 Q3.3 -12.75 3.15 -13.1 3.05 -13.35 3.05 -13.5 3.05 -13.7 3.15 -13.8 3.35 -13.8 3.5 -13.5 3.65 -13.2 3.65 -13.0 L3.6 -12.8 M3.5 -11.1 L3.4 -11.1 Q3.25 -11.1 3.25 -11.15 L3.3 -11.3 Q3.4 -11.3 3.5 -11.2 L3.5 -11.1 M4.7 -11.45 L4.7 -11.25 Q4.65 -11.25 4.6 -11.25 4.5 -11.25 4.45 -11.3 L4.4 -11.4 Q4.45 -11.65 4.7 -11.6 L4.7 -11.45 M1.5 -13.35 L1.6 -13.4 1.65 -13.35 1.7 -13.25 Q1.65 -13.15 1.6 -13.15 L1.5 -13.2 1.5 -13.35 M1.2 -11.0 Q1.2 -11.2 1.45 -11.15 1.75 -11.1 1.75 -10.85 L1.75 -10.7 Q1.7 -10.65 1.55 -10.65 1.4 -10.65 1.3 -10.85 L1.2 -11.0 M2.05 -8.6 L1.75 -8.4 1.65 -8.45 Q1.6 -8.45 1.6 -8.55 1.6 -8.65 1.7 -8.75 1.8 -8.8 1.95 -8.8 1.95 -8.7 2.05 -8.6 M2.1 -7.25 Q2.05 -7.15 1.9 -7.15 1.7 -7.15 1.5 -7.4 1.35 -7.6 1.35 -7.7 1.35 -8.15 1.75 -7.95 2.15 -7.8 2.15 -7.45 2.15 -7.3 2.1 -7.25 M4.05 -9.5 Q4.0 -9.45 3.85 -9.45 L3.7 -9.45 3.65 -9.6 Q3.65 -10.0 3.85 -10.15 4.05 -10.35 4.05 -9.9 L4.05 -9.5 M4.9 -6.55 Q4.95 -6.3 5.0 -6.2 L5.0 -6.05 4.9 -6.0 4.75 -6.0 Q4.65 -6.0 4.55 -6.1 4.5 -6.2 4.5 -6.3 L4.55 -6.5 4.55 -6.7 Q4.8 -6.8 4.9 -6.55 M3.55 -5.3 Q3.5 -5.35 3.45 -5.35 3.45 -5.4 3.45 -5.55 3.45 -5.75 3.6 -5.7 3.75 -5.65 3.75 -5.45 3.75 -5.35 3.55 -5.3 M4.25 -4.7 L4.25 -4.5 Q4.2 -4.45 4.15 -4.45 L4.05 -4.5 Q4.0 -4.5 4.0 -4.6 4.0 -4.7 4.05 -4.75 L4.15 -4.75 4.25 -4.7 M1.6 -2.2 L1.55 -2.0 1.45 -1.95 Q1.3 -2.05 1.25 -2.15 L1.25 -2.3 Q1.35 -2.3 1.55 -2.3 L1.6 -2.2 M0.5 -1.15 Q0.5 -1.0 0.55 -0.95 L0.55 -0.85 Q0.5 -0.8 0.4 -0.8 0.25 -0.8 0.3 -0.85 L0.25 -0.85 0.25 -0.95 Q0.25 -1.2 0.5 -1.15 M4.1 -2.5 Q3.95 -2.3 3.75 -2.2 L3.65 -2.25 3.65 -2.35 Q3.65 -2.95 3.95 -3.15 4.2 -3.4 4.2 -2.9 4.2 -2.7 4.1 -2.5 M-2.8 -12.65 Q-2.8 -13.15 -2.45 -13.05 -2.15 -12.95 -2.15 -12.55 L-2.15 -12.35 -2.2 -12.3 Q-2.25 -12.25 -2.35 -12.25 -2.65 -12.25 -2.75 -12.45 -2.8 -12.55 -2.8 -12.65 M-1.55 -10.95 Q-1.75 -11.05 -1.8 -11.2 L-1.85 -11.35 Q-1.85 -11.7 -1.6 -11.6 -1.4 -11.55 -1.4 -11.2 L-1.45 -11.05 -1.55 -10.95" fill="#3f5923" fill-rule="evenodd" stroke="none"/>
  </g>
</svg>
