<?xml version="1.0" encoding="UTF-8" standalone="no"?>
<svg xmlns:ffdec="https://www.free-decompiler.com/flash" xmlns:xlink="http://www.w3.org/1999/xlink" ffdec:objectType="shape" height="9.1px" width="21.6px" xmlns="http://www.w3.org/2000/svg">
  <g transform="matrix(1.0, 0.0, 0.0, 1.0, -1.1, 6.2)">
    <path d="M3.0 -4.15 L2.85 -4.0 2.75 -4.0 Q2.7 -4.0 2.65 -4.05 2.8 -4.2 3.0 -4.2 L3.0 -4.15 M3.15 -5.55 Q3.15 -5.85 3.6 -5.9 4.1 -6.0 4.1 -5.55 4.1 -5.05 3.8 -5.05 3.5 -5.05 3.3 -5.25 3.15 -5.4 3.15 -5.55 M1.8 -1.7 L1.75 -1.65 1.65 -1.65 Q1.5 -1.65 1.3 -2.05 L1.1 -2.45 Q1.1 -2.9 1.45 -2.8 1.8 -2.7 1.8 -2.2 L1.8 -1.7 M5.55 -2.25 Q5.45 -2.1 5.25 -2.1 5.05 -2.1 4.95 -2.25 4.95 -2.35 4.95 -2.45 4.95 -3.0 5.3 -3.05 5.7 -3.1 5.7 -2.65 5.7 -2.45 5.55 -2.25 M2.95 -2.9 Q2.95 -3.15 3.2 -3.1 3.45 -3.1 3.45 -2.85 L3.4 -2.7 3.3 -2.6 Q3.05 -2.6 3.0 -2.7 2.95 -2.75 2.95 -2.9 M4.25 -2.0 Q4.2 -1.9 4.05 -1.9 L3.95 -1.9 3.9 -1.95 4.05 -2.1 4.2 -2.15 4.25 -2.0 M3.9 -0.4 L3.6 -0.75 Q3.6 -0.9 3.7 -0.95 L3.95 -1.0 Q4.3 -1.0 4.45 -0.75 4.5 -0.65 4.5 -0.55 L4.45 -0.3 Q4.4 -0.1 4.25 -0.1 4.2 -0.1 3.9 -0.4 M6.35 -5.75 L6.3 -5.65 6.25 -5.6 6.05 -5.75 5.95 -5.9 6.0 -6.05 6.15 -6.2 Q6.35 -5.95 6.35 -5.75 M6.95 -4.0 Q6.95 -4.35 7.35 -4.2 7.8 -4.05 7.8 -3.6 7.8 -3.45 7.75 -3.4 7.7 -3.3 7.55 -3.3 7.25 -3.3 7.1 -3.7 L6.95 -4.0 M8.35 -1.7 Q8.3 -1.6 8.15 -1.55 L8.05 -1.6 Q8.0 -1.6 8.0 -1.7 8.0 -1.8 8.05 -1.85 L8.15 -1.9 8.35 -1.7 M9.75 -0.95 L9.75 -1.05 Q9.75 -1.15 9.85 -1.25 10.0 -1.35 10.15 -1.25 L10.2 -1.1 10.1 -0.95 Q10.05 -0.9 9.95 -0.9 L9.8 -0.9 9.8 -0.95 9.75 -0.95 M22.0 -4.55 Q21.95 -4.45 21.8 -4.45 21.1 -4.45 21.1 -5.15 21.1 -5.75 21.6 -5.55 22.05 -5.35 22.05 -4.8 L22.0 -4.55 M18.0 -4.15 Q17.95 -4.2 17.9 -4.2 17.9 -4.25 17.9 -4.35 L17.9 -4.45 17.95 -4.5 18.1 -4.45 18.25 -4.35 18.0 -4.15 M18.65 -0.15 Q18.55 0.05 18.45 0.05 18.15 0.05 18.05 -0.25 L17.95 -0.5 Q17.95 -0.85 18.35 -0.75 18.75 -0.65 18.75 -0.45 18.75 -0.35 18.65 -0.15 M22.35 -3.35 Q22.35 -3.45 22.45 -3.5 L22.65 -3.55 22.7 -3.4 Q22.7 -3.2 22.5 -3.2 L22.4 -3.2 22.35 -3.25 22.35 -3.35 M21.35 -1.85 L21.35 -1.8 21.2 -1.8 Q21.0 -1.8 20.95 -1.9 20.9 -1.95 20.9 -2.0 20.9 -2.2 21.15 -2.2 21.35 -2.2 21.35 -1.95 L21.35 -1.85 M20.6 0.85 L20.45 0.85 20.4 0.8 20.4 0.7 Q20.4 0.45 20.7 0.2 20.95 -0.05 20.95 0.4 20.95 0.6 20.85 0.75 20.7 0.85 20.6 0.85 M18.5 2.8 L18.45 2.85 18.3 2.9 Q18.1 2.9 18.05 2.8 L18.05 2.65 Q18.05 2.45 18.3 2.45 18.5 2.45 18.5 2.65 L18.5 2.8 M15.5 0.0 L15.55 0.1 Q15.55 0.25 15.3 0.4 L15.2 0.35 Q15.15 0.3 15.15 0.2 15.15 0.1 15.3 0.0 L15.5 0.0 M16.35 2.3 Q16.1 2.3 15.95 2.1 L15.85 1.9 Q15.85 1.4 16.25 1.6 16.7 1.75 16.7 2.0 L16.65 2.2 Q16.55 2.3 16.35 2.3 M12.75 0.0 Q12.75 -0.3 13.3 -0.15 13.8 0.05 13.8 0.25 13.8 0.35 13.75 0.45 13.65 0.55 13.5 0.55 13.2 0.55 12.95 0.25 L12.75 0.0" fill="#3f5923" fill-rule="evenodd" stroke="none"/>
  </g>
</svg>
