<?xml version="1.0" encoding="UTF-8" standalone="no"?>
<svg xmlns:ffdec="https://www.free-decompiler.com/flash" xmlns:xlink="http://www.w3.org/1999/xlink" ffdec:objectType="shape" height="8.75px" width="5.65px" xmlns="http://www.w3.org/2000/svg">
  <g transform="matrix(1.0, 0.0, 0.0, 1.0, 5.55, 8.25)">
    <path d="M-2.9 -4.15 Q-2.55 -4.05 -2.25 -4.4 -1.9 -4.9 -2.1 -5.25 L-2.6 -4.85 Q-2.9 -4.55 -2.9 -4.15 M-3.9 -3.75 Q-2.95 -5.05 -1.5 -5.95 -1.05 -6.2 -0.8 -6.45 L-1.35 -5.45 Q-1.6 -5.0 -1.95 -4.6 -2.95 -3.25 -3.2 -1.85 L-3.45 -2.1 -3.7 -2.1 Q-4.05 -2.45 -3.95 -2.95 -3.85 -3.4 -3.9 -3.75" fill="#52732e" fill-rule="evenodd" stroke="none"/>
    <path d="M-2.9 -4.15 Q-2.9 -4.55 -2.6 -4.85 L-2.1 -5.25 Q-1.9 -4.9 -2.25 -4.4 -2.55 -4.05 -2.9 -4.15 M-3.9 -3.75 Q-3.85 -3.4 -3.95 -2.95 -4.05 -2.45 -3.7 -2.1 L-3.45 -2.1 -3.2 -1.85 -3.25 -1.8 -3.25 -0.05 -3.4 0.0 Q-4.85 0.4 -5.2 -0.65 -5.15 -1.15 -4.95 -1.65 -4.55 -2.8 -3.9 -3.75" fill="#3f5923" fill-rule="evenodd" stroke="none"/>
    <path d="M0.05 -8.1 L0.1 -8.15 0.05 -7.95 Q0.05 -7.55 -0.2 -7.15 L-0.3 -6.95 Q-0.7 -4.9 -2.05 -3.0 -2.4 -2.5 -2.6 -2.0 -3.0 -1.05 -3.1 0.0 L-3.15 0.1 -3.15 0.5 -3.2 0.25 Q-3.3 0.3 -3.45 0.35 -5.05 0.65 -5.3 -0.05 -5.8 -0.9 -5.3 -2.1 -4.1 -4.95 -1.45 -6.75 L-1.25 -6.85 Q-1.0 -7.3 -0.6 -7.65 -0.25 -7.95 0.0 -8.25 L0.05 -8.1 M-3.2 -1.85 Q-2.95 -3.25 -1.95 -4.6 -1.6 -5.0 -1.35 -5.45 L-0.8 -6.45 Q-1.05 -6.2 -1.5 -5.95 -2.95 -5.05 -3.9 -3.75 -4.55 -2.8 -4.95 -1.65 -5.15 -1.15 -5.2 -0.65 -4.85 0.4 -3.4 0.0 L-3.25 -0.05 -3.25 -1.8 -3.2 -1.85" fill="#151f0c" fill-rule="evenodd" stroke="none"/>
  </g>
</svg>
