<?xml version="1.0" encoding="UTF-8" standalone="no"?>
<svg xmlns:ffdec="https://www.free-decompiler.com/flash" xmlns:xlink="http://www.w3.org/1999/xlink" ffdec:objectType="shape" height="27.15px" width="24.35px" xmlns="http://www.w3.org/2000/svg">
  <g transform="matrix(1.0, 0.0, 0.0, 1.0, 13.15, 26.7)">
    <path d="M3.3 -25.4 L3.25 -25.35 Q3.15 -25.2 3.2 -25.0 3.8 -24.8 4.7 -25.0 5.55 -25.15 6.3 -25.55 6.25 -25.65 6.25 -25.75 L6.25 -25.95 6.2 -26.0 6.05 -26.1 Q7.5 -25.95 8.7 -24.65 L8.9 -24.35 8.85 -24.45 Q8.65 -24.6 8.4 -24.65 L8.35 -24.6 8.2 -24.7 Q7.55 -25.3 6.7 -25.5 L6.55 -25.45 Q6.35 -25.45 6.35 -25.3 7.05 -24.95 7.6 -24.45 L8.1 -24.0 8.15 -23.9 Q8.5 -23.3 8.95 -22.9 9.0 -23.1 9.0 -23.3 9.15 -23.25 9.35 -23.3 9.45 -23.55 9.35 -23.8 11.2 -21.2 10.6 -18.0 10.4 -17.4 10.05 -16.75 9.2 -15.15 7.75 -14.1 6.0 -12.7 3.8 -11.95 -0.35 -10.45 -1.6 -7.05 -2.55 -7.15 -3.5 -7.4 -5.75 -8.0 -6.7 -9.8 L-6.6 -9.9 Q-4.1 -13.35 0.3 -14.35 4.2 -15.2 7.1 -17.75 8.65 -19.15 8.6 -21.25 8.45 -24.85 4.5 -24.65 2.0 -23.95 2.15 -21.55 L2.25 -21.05 Q1.75 -21.65 1.75 -22.8 1.8 -24.55 3.3 -25.4 M9.15 -21.25 L9.1 -21.25 Q8.95 -21.25 8.85 -21.05 9.0 -20.5 8.85 -19.9 L8.25 -18.1 Q8.9 -18.1 9.25 -18.65 9.55 -18.85 9.8 -19.4 10.3 -20.6 9.25 -21.5 L9.25 -21.45 9.2 -21.25 9.15 -21.25 M6.1 -15.3 Q7.7 -16.35 7.95 -17.75 7.25 -17.0 6.3 -16.35 4.35 -15.1 2.45 -14.15 4.4 -14.15 6.1 -15.3 M5.0 -13.75 L4.55 -13.8 4.3 -13.8 Q3.15 -13.55 2.15 -12.95 1.2 -12.4 0.85 -11.5 1.1 -11.15 1.45 -11.35 2.2 -11.75 3.05 -11.95 4.6 -12.4 5.2 -13.6 5.15 -13.7 5.0 -13.75 M-4.75 -8.9 Q-4.65 -9.0 -4.6 -8.95 -4.6 -8.45 -4.9 -7.95 -4.55 -7.75 -4.2 -7.6 -3.95 -7.9 -3.75 -8.25 -2.8 -9.95 -4.0 -10.75 -4.75 -10.6 -5.15 -9.95 -5.7 -9.2 -5.5 -8.4 L-5.1 -8.4 Q-5.0 -8.45 -4.95 -8.55 L-4.75 -8.9" fill="#52732e" fill-rule="evenodd" stroke="none"/>
    <path d="M6.05 -26.1 L6.2 -26.0 6.25 -25.95 6.25 -25.75 Q6.25 -25.65 6.3 -25.55 5.55 -25.15 4.7 -25.0 3.8 -24.8 3.2 -25.0 3.15 -25.2 3.25 -25.35 L3.3 -25.4 3.4 -25.45 3.4 -25.5 Q4.85 -26.2 6.05 -26.1 M-6.7 -9.8 Q-5.75 -8.0 -3.5 -7.4 -2.55 -7.15 -1.6 -7.05 L-1.6 -7.0 -1.95 -5.7 Q-2.1 -4.7 -2.05 -3.55 -2.05 -2.3 -1.4 -1.65 -1.5 -1.55 -1.55 -1.35 -1.45 -1.15 -1.2 -1.2 L-0.75 -1.3 Q-0.5 -1.2 -0.2 -1.15 L-0.3 -1.25 Q0.0 -1.2 0.25 -1.0 0.75 -0.7 1.2 -0.5 L1.15 -0.5 Q-0.05 -0.2 -1.3 0.0 -2.55 0.15 -3.05 -0.2 -3.45 -0.45 -3.95 -0.6 L-5.15 -0.75 -5.5 -0.6 -6.1 -0.55 -6.4 -0.55 -6.45 -0.5 -6.65 -0.45 Q-8.25 0.05 -9.35 -0.9 L-9.3 -0.95 Q-9.15 -1.35 -8.75 -1.5 L-8.45 -1.55 -8.0 -1.7 -7.5 -1.75 -7.5 -1.8 -7.25 -1.85 -7.3 -1.9 -7.15 -1.8 Q-7.65 -2.7 -7.9 -3.8 -8.45 -6.3 -7.45 -8.5 L-7.4 -8.65 -7.3 -8.85 Q-7.05 -9.3 -6.7 -9.8 M9.35 -23.8 Q9.45 -23.55 9.35 -23.3 9.15 -23.25 9.0 -23.3 9.0 -23.6 8.85 -23.85 8.7 -24.25 8.4 -24.5 L8.35 -24.6 8.4 -24.65 Q8.65 -24.6 8.85 -24.45 L8.9 -24.35 9.35 -23.8 M9.15 -21.25 L9.2 -21.25 9.25 -21.45 9.25 -21.5 Q10.3 -20.6 9.8 -19.4 9.55 -18.85 9.25 -18.65 8.9 -18.1 8.25 -18.1 L8.85 -19.9 Q9.0 -20.5 8.85 -21.05 8.95 -21.25 9.1 -21.25 L9.15 -21.25 M5.0 -13.75 Q5.15 -13.7 5.2 -13.6 4.6 -12.4 3.05 -11.95 2.2 -11.75 1.45 -11.35 1.1 -11.15 0.85 -11.5 1.2 -12.4 2.15 -12.95 3.15 -13.55 4.3 -13.8 L4.55 -13.8 5.0 -13.75 M3.1 -0.5 L1.75 -0.55 Q1.75 -0.7 1.65 -0.85 2.45 -0.85 3.15 -0.55 L3.1 -0.5 M-11.15 -0.6 Q-11.9 -0.25 -12.45 -0.5 -12.4 -0.65 -12.3 -0.7 L-12.05 -0.85 Q-11.5 -1.0 -11.1 -0.65 L-11.15 -0.6 M-4.75 -8.9 L-4.95 -8.55 Q-5.0 -8.45 -5.1 -8.4 L-5.5 -8.4 Q-5.7 -9.2 -5.15 -9.95 -4.75 -10.6 -4.0 -10.75 -2.8 -9.95 -3.75 -8.25 -3.95 -7.9 -4.2 -7.6 -4.55 -7.75 -4.9 -7.95 -4.6 -8.45 -4.6 -8.95 -4.65 -9.0 -4.75 -8.9" fill="#3f5923" fill-rule="evenodd" stroke="none"/>
    <path d="M9.0 -23.3 Q9.0 -23.1 8.95 -22.9 8.5 -23.3 8.15 -23.9 L8.1 -24.0 7.6 -24.45 Q7.05 -24.95 6.35 -25.3 6.35 -25.45 6.55 -25.45 L6.7 -25.5 Q7.55 -25.3 8.2 -24.7 L8.35 -24.6 8.4 -24.5 Q8.7 -24.25 8.85 -23.85 9.0 -23.6 9.0 -23.3 M6.1 -15.3 Q4.4 -14.15 2.45 -14.15 4.35 -15.1 6.3 -16.35 7.25 -17.0 7.95 -17.75 7.7 -16.35 6.1 -15.3" fill="#759c65" fill-rule="evenodd" stroke="none"/>
    <path d="M3.3 -25.4 Q1.8 -24.55 1.75 -22.8 1.75 -21.65 2.25 -21.05 L2.15 -21.55 Q2.0 -23.95 4.5 -24.65 8.45 -24.85 8.6 -21.25 8.65 -19.15 7.1 -17.75 4.2 -15.2 0.3 -14.35 -4.1 -13.35 -6.6 -9.9 L-6.7 -9.8 Q-7.05 -9.3 -7.3 -8.85 L-7.4 -8.65 -7.45 -8.5 Q-8.45 -6.3 -7.9 -3.8 -7.65 -2.7 -7.15 -1.8 L-7.3 -1.9 -7.25 -1.85 -7.5 -1.8 -7.5 -1.75 -8.0 -1.7 -8.45 -1.55 -8.75 -1.5 Q-9.15 -1.35 -9.3 -0.95 L-9.35 -0.9 Q-8.25 0.05 -6.65 -0.45 L-6.45 -0.5 -6.4 -0.55 -6.1 -0.55 -5.5 -0.6 -5.15 -0.75 -3.95 -0.6 Q-3.45 -0.45 -3.05 -0.2 -2.55 0.15 -1.3 0.0 -0.05 -0.2 1.15 -0.5 L1.2 -0.5 Q0.75 -0.7 0.25 -1.0 0.0 -1.2 -0.3 -1.25 L-0.2 -1.15 Q-0.5 -1.2 -0.75 -1.3 L-1.2 -1.2 Q-1.45 -1.15 -1.55 -1.35 -1.5 -1.55 -1.4 -1.65 -2.05 -2.3 -2.05 -3.55 -2.1 -4.7 -1.95 -5.7 L-1.6 -7.0 -1.6 -7.05 Q-0.35 -10.45 3.8 -11.95 6.0 -12.7 7.75 -14.1 9.2 -15.15 10.05 -16.75 10.4 -17.4 10.6 -18.0 11.2 -21.2 9.35 -23.8 L8.9 -24.35 8.7 -24.65 Q7.5 -25.95 6.05 -26.1 4.85 -26.2 3.4 -25.5 L3.4 -25.45 3.3 -25.4 M11.0 -21.85 Q11.95 -17.1 8.1 -13.65 6.7 -12.45 4.9 -11.9 0.7 -10.7 -1.05 -6.9 -2.4 -4.05 -0.85 -1.9 L-0.3 -1.95 Q0.55 -1.75 1.25 -1.25 L1.5 -1.05 1.8 -1.2 Q2.15 -1.3 2.5 -1.35 3.05 -1.2 3.5 -0.9 3.9 -0.65 3.8 -0.2 2.85 0.3 1.85 -0.2 -1.15 0.8 -4.5 0.2 -5.55 0.05 -6.5 0.05 -7.9 0.45 -9.4 -0.3 -9.65 -0.45 -9.8 -0.7 -9.8 -0.9 -9.7 -1.05 L-9.7 -1.2 Q-9.55 -1.7 -9.1 -1.95 -8.8 -2.1 -8.4 -2.15 L-7.75 -2.1 -7.55 -2.05 Q-8.3 -2.65 -8.45 -4.0 -9.3 -10.05 -3.9 -12.9 -1.75 -14.05 0.7 -14.75 4.4 -15.8 6.95 -18.45 9.25 -20.9 7.25 -23.3 6.65 -24.05 5.65 -24.1 2.45 -24.25 2.7 -21.4 2.8 -20.65 3.55 -20.6 3.65 -20.55 3.75 -20.45 L3.65 -20.4 3.75 -20.4 Q1.95 -19.6 1.55 -21.8 0.85 -25.8 4.85 -26.7 9.1 -26.65 10.65 -22.85 10.85 -22.35 11.0 -21.85 M3.15 -0.55 Q2.45 -0.85 1.65 -0.85 1.75 -0.7 1.75 -0.55 L3.1 -0.5 3.25 -0.5 3.15 -0.55 M-13.1 -0.1 L-13.1 -0.15 -13.15 -0.3 -13.15 -0.35 -13.1 -0.5 Q-13.0 -0.65 -12.9 -0.8 -12.6 -1.15 -12.2 -1.35 -10.55 -1.55 -10.95 -0.45 -11.05 -0.1 -11.45 -0.05 L-13.0 0.05 -13.05 0.0 -13.1 -0.1 M-11.1 -0.65 Q-11.5 -1.0 -12.05 -0.85 L-12.3 -0.7 Q-12.4 -0.65 -12.45 -0.5 -11.9 -0.25 -11.15 -0.6 L-11.1 -0.65" fill="#151f0c" fill-rule="evenodd" stroke="none"/>
  </g>
</svg>
