<?xml version="1.0" encoding="UTF-8" standalone="no"?>
<svg xmlns:ffdec="https://www.free-decompiler.com/flash" xmlns:xlink="http://www.w3.org/1999/xlink" ffdec:objectType="shape" height="11.55px" width="18.75px" xmlns="http://www.w3.org/2000/svg">
  <g transform="matrix(1.0, 0.0, 0.0, 1.0, 9.75, 11.55)">
    <path d="M8.4 -7.9 L7.15 -6.15 Q7.05 -5.7 6.7 -5.2 L6.95 -5.3 Q7.95 -5.75 9.0 -6.0 8.95 -5.75 8.05 -5.35 L6.8 -4.85 6.45 -4.6 Q6.25 -4.5 6.05 -4.5 L5.65 -4.1 Q5.5 -3.2 4.4 -2.1 4.4 -1.6 4.3 -1.1 4.2 -1.2 4.1 -1.35 L4.05 -1.2 3.9 -1.65 Q3.25 -1.1 2.6 -0.75 L2.7 -1.05 Q2.45 -1.25 2.3 -1.55 L2.3 -1.5 2.25 -1.55 2.15 -1.45 2.05 -1.3 1.6 -0.55 1.65 -0.9 Q1.1 -0.4 0.6 -0.1 L0.7 -0.35 0.55 0.0 Q0.5 -0.2 0.45 -0.45 L0.3 -0.2 Q0.2 -0.35 0.15 -0.55 L0.0 -0.6 0.15 -0.35 -0.2 -0.75 Q-0.7 -1.1 -1.15 -1.7 -1.75 -1.05 -2.45 -0.65 L-2.4 -0.8 Q-2.9 -1.45 -2.95 -2.5 L-2.95 -2.5 Q-2.95 -2.2 -3.0 -1.8 -3.1 -1.35 -3.25 -0.95 L-3.2 -0.85 Q-4.0 -1.05 -4.45 -2.05 -4.9 -1.3 -5.5 -1.35 L-5.45 -1.2 Q-6.2 -1.4 -6.4 -2.45 L-6.85 -3.25 Q-7.65 -3.8 -8.45 -4.65 L-9.65 -5.95 Q-9.85 -6.2 -9.65 -6.3 -8.65 -5.4 -7.65 -4.4 L-7.15 -3.85 -7.35 -4.3 Q-7.6 -4.9 -7.75 -5.45 L-7.95 -6.05 Q-8.45 -7.7 -8.8 -9.05 -7.95 -7.45 -7.3 -5.75 L-7.3 -5.95 Q-7.3 -6.45 -7.0 -6.75 L-7.05 -5.6 Q-7.05 -5.35 -7.05 -5.1 L-6.9 -4.75 -6.65 -4.0 -6.4 -3.45 -6.3 -3.25 -6.3 -3.35 -6.25 -3.55 -6.15 -4.45 Q-6.0 -5.25 -5.75 -5.9 -5.95 -6.05 -6.15 -6.2 -6.35 -6.45 -6.45 -6.65 L-6.5 -6.7 Q-7.15 -7.3 -7.45 -7.75 -6.55 -7.25 -5.75 -6.55 L-5.65 -6.45 -5.7 -6.65 -6.4 -8.4 Q-7.05 -10.1 -7.15 -11.55 -6.25 -9.65 -5.45 -7.55 L-5.4 -7.6 -5.3 -8.45 -5.15 -9.0 Q-5.65 -10.05 -5.8 -11.0 L-4.9 -9.5 -4.75 -9.8 -4.8 -9.3 -3.75 -7.55 -3.8 -8.05 -3.8 -8.1 -3.85 -8.15 -3.85 -8.35 Q-3.95 -8.85 -3.9 -9.25 -3.65 -8.75 -3.5 -8.0 -3.4 -7.55 -3.5 -7.2 L-3.1 -6.45 -2.7 -7.25 -2.7 -7.35 -2.65 -8.45 -2.6 -8.5 -2.9 -8.95 Q-3.1 -9.4 -3.15 -9.8 L-2.6 -8.95 Q-2.5 -10.05 -2.35 -11.1 -2.25 -9.75 -2.3 -8.4 L-2.25 -8.15 Q-1.6 -9.3 -0.85 -10.25 -1.55 -8.5 -2.4 -6.7 L-2.4 -5.9 -2.15 -6.85 Q-1.75 -8.15 -1.2 -9.3 L-1.55 -7.7 -1.2 -6.75 Q-1.0 -7.2 -0.65 -7.6 L-1.05 -6.2 -0.7 -5.15 Q-0.55 -4.7 -0.45 -4.25 L-0.05 -5.05 0.05 -5.9 Q0.0 -6.45 0.0 -7.1 0.0 -8.25 0.15 -9.2 0.4 -7.7 0.4 -6.15 L0.4 -5.9 1.05 -7.2 0.95 -7.75 Q0.75 -8.95 0.75 -10.05 L1.25 -7.75 1.55 -8.3 1.65 -8.55 Q1.6 -8.75 1.6 -8.95 1.55 -9.35 1.75 -9.6 L1.85 -8.95 Q2.4 -10.0 3.1 -10.85 L1.8 -7.9 Q1.65 -7.3 1.45 -6.75 L1.6 -5.8 1.7 -5.95 1.85 -6.25 Q2.1 -6.8 2.45 -7.35 L3.2 -8.7 2.35 -6.55 2.3 -6.4 2.4 -6.0 2.8 -6.75 3.3 -7.65 Q3.25 -8.55 3.3 -9.4 L3.55 -8.05 4.0 -8.8 3.6 -7.7 3.9 -5.65 4.0 -5.2 4.05 -5.3 4.6 -6.3 Q4.65 -6.9 4.75 -7.45 L4.8 -6.7 Q5.5 -7.95 6.35 -8.95 L5.5 -7.4 5.85 -7.45 Q6.2 -7.4 5.6 -7.05 5.4 -6.9 5.25 -6.9 L4.85 -6.15 4.85 -4.95 4.9 -5.0 4.85 -4.0 5.05 -4.25 4.95 -4.25 5.2 -4.4 6.05 -5.3 Q6.1 -5.7 6.25 -6.3 6.35 -6.7 6.6 -6.95 6.65 -6.45 6.5 -5.9 L6.45 -5.75 6.7 -6.1 Q7.35 -7.0 8.2 -7.8 8.25 -7.9 8.4 -7.9 M3.35 -7.05 L2.7 -5.65 2.55 -5.4 2.85 -4.5 2.9 -4.55 3.0 -3.85 3.5 -4.55 3.5 -4.6 Q3.4 -5.35 3.45 -6.0 L3.35 -6.8 3.35 -7.05 M4.6 -4.3 Q4.55 -4.95 4.55 -5.6 L4.5 -5.55 4.05 -4.6 4.1 -3.55 4.1 -3.45 4.15 -3.2 4.55 -3.65 4.55 -4.15 4.6 -4.3 M2.2 -6.2 Q2.0 -5.8 1.75 -5.55 L1.7 -5.45 1.8 -4.65 1.95 -4.9 2.25 -5.65 2.2 -6.2 M0.75 -4.5 L0.6 -4.9 0.45 -4.6 0.55 -3.25 Q0.6 -2.25 0.45 -1.45 L0.5 -1.25 Q0.55 -1.65 0.75 -2.05 0.9 -2.45 1.1 -2.8 L1.2 -3.05 Q1.1 -3.25 1.0 -3.5 0.95 -3.75 0.95 -3.9 L0.75 -4.5 M1.25 -4.1 L1.4 -3.65 1.45 -3.75 Q1.35 -4.35 1.25 -5.05 1.2 -5.6 1.2 -6.1 L0.75 -5.15 1.25 -4.1 M2.65 -4.1 Q2.45 -4.55 2.35 -5.0 L2.0 -3.9 2.3 -2.9 2.5 -3.1 2.7 -3.4 Q2.65 -3.65 2.6 -3.95 L2.65 -4.1 M1.75 -2.75 L1.7 -2.9 1.7 -2.95 1.5 -2.5 Q1.4 -1.9 1.15 -1.35 L0.95 -0.85 Q1.3 -1.65 1.9 -2.35 L1.75 -2.75 M0.0 -3.55 Q-0.25 -2.95 -0.65 -2.4 L-0.45 -2.15 0.05 -1.4 0.05 -1.6 Q0.05 -1.9 0.15 -2.2 0.05 -2.85 0.0 -3.55 M2.65 -1.6 L2.75 -1.3 3.05 -1.75 Q3.3 -2.1 3.6 -2.5 L3.45 -3.15 3.45 -3.5 3.15 -3.05 Q2.95 -2.45 2.55 -1.95 L2.65 -1.75 2.65 -1.6 M2.75 -1.25 L2.75 -1.2 2.8 -1.25 2.75 -1.25 M-5.2 -7.45 L-5.2 -7.3 -5.25 -7.1 Q-5.0 -6.35 -4.85 -5.6 L-4.6 -4.9 -4.1 -4.6 -3.95 -4.9 Q-4.4 -5.35 -4.7 -5.95 -5.05 -6.65 -4.9 -7.2 L-3.95 -5.6 -3.75 -5.3 -3.5 -5.8 -3.35 -6.05 -3.6 -6.45 Q-4.25 -7.4 -4.85 -8.4 L-4.95 -8.6 -5.1 -7.75 -5.2 -7.45 M-2.3 -8.15 L-2.35 -8.0 -2.3 -8.05 -2.3 -8.15 M-5.85 -2.1 L-5.6 -1.55 Q-5.2 -2.45 -4.9 -3.45 L-4.9 -3.5 -5.05 -4.55 -5.1 -4.75 Q-5.5 -5.1 -5.7 -5.4 -5.7 -4.55 -5.85 -3.65 L-6.05 -2.7 -5.85 -2.1 M-1.45 -6.15 Q-1.6 -6.9 -1.6 -7.55 L-2.05 -5.75 -2.2 -5.0 -1.9 -4.4 -1.9 -4.45 -1.85 -4.65 Q-1.75 -5.2 -1.55 -5.85 L-1.45 -6.15 M-2.35 -3.9 L-2.35 -3.15 -2.2 -2.95 -2.35 -3.0 Q-2.35 -2.3 -2.4 -1.6 L-2.35 -0.95 Q-2.1 -1.75 -1.65 -2.55 -1.85 -2.85 -1.95 -3.2 L-2.0 -3.15 -2.0 -3.25 -2.1 -3.55 -2.35 -4.05 -2.35 -3.9 M-2.85 -5.05 L-3.05 -5.45 -3.2 -5.2 -3.45 -4.65 -3.35 -4.4 -3.5 -4.55 -3.55 -4.5 -3.65 -4.3 -3.05 -3.9 -2.9 -4.45 -2.85 -4.7 -2.85 -5.05 M-1.35 -4.95 L-1.65 -4.0 -1.35 -3.45 -1.25 -3.2 -1.0 -3.55 -0.7 -3.95 Q-1.05 -4.6 -1.25 -5.35 L-1.35 -4.95 M-5.7 -5.6 L-5.3 -5.35 -5.4 -5.7 -5.7 -5.85 -5.7 -5.6 M-3.85 -3.8 Q-3.85 -3.5 -3.95 -3.1 L-3.85 -2.8 -3.55 -1.8 -3.5 -2.2 -3.35 -2.65 -3.2 -3.4 Q-3.4 -3.5 -3.65 -3.7 L-3.85 -3.8" fill="#5b664d" fill-rule="evenodd" stroke="none"/>
  </g>
</svg>
