<?xml version="1.0" encoding="UTF-8" standalone="no"?>
<svg xmlns:ffdec="https://www.free-decompiler.com/flash" xmlns:xlink="http://www.w3.org/1999/xlink" ffdec:objectType="shape" height="18.6px" width="8.75px" xmlns="http://www.w3.org/2000/svg">
  <g transform="matrix(1.0, 0.0, 0.0, 1.0, 7.95, 18.0)">
    <path d="M-7.1 -11.9 L-7.15 -11.9 -7.15 -11.85 -7.1 -11.9 M-6.5 -13.95 L-6.55 -14.05 -6.6 -14.05 -6.55 -13.95 -6.5 -13.95 M-6.5 -15.2 L-6.5 -15.15 -6.6 -15.05 -6.6 -15.0 -6.7 -14.9 -6.85 -14.85 -6.85 -14.9 -6.9 -14.95 -6.9 -15.15 -6.85 -15.25 -6.85 -15.3 -6.9 -15.35 -6.9 -15.4 -6.85 -15.45 -6.85 -15.5 -6.8 -15.55 -6.65 -15.55 -6.65 -15.5 -6.6 -15.5 -6.5 -15.4 -6.5 -15.2 M-5.55 -17.95 L-5.5 -17.9 -5.5 -17.85 -5.45 -17.55 -5.4 -17.3 -5.55 -17.25 -5.55 -17.3 -5.6 -17.35 -5.7 -17.65 -5.7 -17.7 -5.8 -17.8 -5.8 -17.9 -5.7 -18.0 -5.55 -17.95 M0.15 -1.85 L0.2 -1.75 0.25 -1.6 0.4 -1.45 0.4 -1.3 0.45 -1.2 0.4 -1.05 0.35 -0.95 0.5 -0.9 0.6 -0.8 0.75 -0.6 0.8 -0.25 0.8 0.05 0.75 0.1 0.7 0.1 0.75 0.15 0.75 0.25 0.7 0.4 0.6 0.45 0.5 0.4 Q0.3 0.35 0.15 0.15 L-0.1 0.15 -0.45 0.25 -0.5 0.25 Q-0.65 0.45 -0.9 0.45 L-1.0 0.55 -1.6 0.6 -1.75 0.55 -1.8 0.5 -1.95 0.3 -1.95 0.2 Q-1.95 0.15 -2.0 0.05 L-2.0 -0.1 Q-1.95 -0.2 -1.95 -0.35 L-1.95 -0.55 -1.9 -0.6 -1.75 -0.65 -1.7 -0.75 -1.7 -1.2 Q-1.7 -1.3 -1.75 -1.35 L-2.15 -1.3 -2.3 -1.6 Q-2.35 -1.7 -2.35 -1.85 L-2.35 -1.95 -2.3 -2.1 -2.35 -2.15 -2.35 -2.2 -2.4 -2.25 -2.4 -2.65 -2.35 -2.7 -2.35 -2.85 -2.4 -2.85 -2.85 -3.25 -2.85 -3.3 -3.15 -3.6 -3.5 -4.1 -3.6 -4.15 Q-3.7 -4.2 -3.75 -4.3 L-3.9 -4.35 Q-4.05 -4.45 -4.15 -4.6 L-4.15 -4.7 -4.2 -4.85 -4.3 -5.0 -4.3 -5.1 -4.4 -5.2 Q-4.45 -5.3 -4.55 -5.35 L-4.9 -5.45 -4.9 -5.5 -4.95 -5.5 -5.0 -5.55 Q-5.15 -5.7 -5.35 -5.75 L-5.45 -5.85 -5.65 -6.1 -5.7 -6.1 -5.85 -6.25 -5.95 -6.4 -6.2 -6.75 -6.3 -6.8 -6.45 -7.0 -6.55 -7.05 -6.7 -7.15 -6.8 -7.35 -6.85 -7.4 -6.85 -7.65 -6.95 -7.95 -7.05 -8.05 -7.2 -8.25 -7.2 -8.4 Q-7.35 -8.6 -7.35 -8.85 L-7.4 -9.35 -7.35 -9.5 -7.35 -9.65 -7.65 -9.7 -7.75 -9.9 -7.85 -9.95 -7.9 -10.05 -7.9 -10.15 -7.95 -10.3 -7.95 -10.9 -7.9 -10.95 -7.85 -11.05 -7.85 -11.2 -7.75 -11.3 -7.6 -11.5 -7.6 -11.6 -7.4 -11.8 -7.45 -11.85 -7.45 -12.45 -7.4 -12.5 -7.4 -12.55 -7.35 -12.6 -7.35 -12.65 -7.15 -12.75 -7.1 -12.75 -7.05 -12.8 -7.05 -13.2 -6.95 -13.25 -7.0 -13.35 -7.05 -13.5 -7.05 -13.85 -7.0 -13.9 -6.9 -13.95 -6.9 -14.0 -6.95 -14.1 -6.95 -14.3 -6.8 -14.45 -6.7 -14.4 -6.55 -14.4 -6.55 -14.5 -6.4 -14.65 -6.4 -14.8 -6.35 -14.9 -6.25 -15.05 -6.2 -15.25 -6.15 -15.35 -6.15 -15.5 -6.1 -15.55 -6.15 -15.65 -6.15 -15.75 -6.05 -15.75 -5.85 -15.95 Q-5.75 -16.05 -5.7 -16.25 L-5.7 -16.45 -5.65 -16.45 -5.6 -16.3 Q-5.55 -16.25 -5.55 -16.15 L-5.6 -16.05 -5.6 -15.95 -5.7 -15.9 -5.7 -15.8 -5.9 -15.6 -5.95 -15.6 -5.95 -15.55 -5.9 -15.45 -5.9 -15.3 -6.0 -15.0 -6.0 -14.95 -6.05 -14.9 -6.05 -14.8 -6.1 -14.6 Q-6.1 -14.45 -6.15 -14.3 L-6.25 -14.2 -6.25 -14.1 -6.3 -14.05 -6.25 -13.9 -6.25 -13.75 -6.3 -13.65 -6.35 -13.5 -6.45 -13.5 -6.45 -13.45 -6.5 -13.35 -6.55 -13.2 -6.55 -12.9 -6.5 -12.8 -6.5 -12.7 -6.6 -12.6 -6.6 -12.5 -6.55 -12.35 -6.55 -12.2 -6.6 -12.05 -6.75 -11.9 -6.75 -11.8 -6.8 -11.75 -6.8 -11.55 -6.85 -11.5 -6.8 -11.4 -6.65 -11.2 -6.65 -11.15 -6.55 -11.05 -6.5 -10.95 -6.5 -10.8 -6.4 -10.5 -6.4 -10.4 -6.35 -10.25 Q-6.35 -10.15 -6.4 -10.1 L-6.35 -10.0 -6.35 -9.9 -6.3 -9.8 -6.25 -9.75 -6.25 -9.65 -6.2 -9.6 -6.2 -9.55 -6.15 -9.5 -6.15 -9.45 -6.05 -9.3 -5.8 -8.95 -5.8 -8.9 -5.75 -8.7 -5.65 -8.4 -5.65 -8.3 -5.55 -8.2 -5.55 -8.05 -5.45 -7.95 -5.4 -7.8 Q-5.35 -7.75 -5.35 -7.65 L-5.1 -7.4 -4.7 -7.25 -4.5 -6.95 -4.5 -6.8 -4.45 -6.7 -4.4 -6.65 -4.4 -6.55 -4.3 -6.4 -4.3 -6.3 -4.2 -6.2 -4.1 -6.2 -4.05 -6.25 -3.95 -6.25 Q-3.8 -6.2 -3.75 -6.1 L-3.5 -6.05 -3.45 -6.0 -3.35 -5.95 -3.3 -6.0 -3.05 -5.95 -3.0 -5.95 -2.85 -5.8 -2.85 -5.7 -2.8 -5.6 -2.8 -5.5 -2.65 -5.4 Q-2.5 -5.25 -2.45 -5.05 L-2.35 -4.95 -2.3 -5.0 -2.2 -5.05 -2.1 -5.05 Q-1.95 -4.95 -1.8 -4.85 L-1.7 -4.8 -1.7 -4.75 -1.65 -4.55 -1.65 -4.45 -1.55 -4.4 -1.5 -4.35 -1.5 -4.2 -1.4 -4.1 -1.3 -4.1 -1.25 -4.15 -1.0 -4.1 -0.9 -4.0 -0.75 -3.8 -0.75 -3.6 -0.7 -3.6 -0.7 -3.5 -0.45 -3.25 -0.45 -2.85 -0.35 -2.75 Q-0.15 -2.6 0.0 -2.35 L0.05 -2.3 0.05 -2.15 0.1 -1.95 0.15 -1.9 0.15 -1.85" fill="#3e5822" fill-rule="evenodd" stroke="none"/>
  </g>
</svg>
