<?xml version="1.0" encoding="UTF-8" standalone="no"?>
<svg xmlns:ffdec="https://www.free-decompiler.com/flash" xmlns:xlink="http://www.w3.org/1999/xlink" ffdec:objectType="shape" height="12.2px" width="23.3px" xmlns="http://www.w3.org/2000/svg">
  <g transform="matrix(1.0, 0.0, 0.0, 1.0, 11.5, 17.25)">
    <path d="M11.75 -15.0 Q11.85 -14.55 11.5 -14.2 11.1 -13.8 10.6 -13.65 10.25 -13.6 10.0 -13.8 9.75 -14.1 10.05 -14.45 10.3 -14.75 10.7 -14.95 L11.35 -15.2 11.55 -15.15 11.65 -15.15 11.75 -15.0 M1.8 -17.2 L1.9 -17.2 2.05 -17.15 2.4 -16.6 Q2.6 -16.25 2.5 -15.8 2.4 -15.45 2.1 -15.15 1.4 -15.1 1.05 -15.75 0.75 -16.3 1.15 -16.85 1.3 -17.15 1.6 -17.25 L1.8 -17.2 M10.3 -9.4 L10.95 -9.4 Q11.3 -9.4 11.55 -9.2 L11.8 -8.9 Q11.85 -8.6 11.65 -8.4 10.9 -7.6 9.95 -8.3 9.7 -8.5 9.7 -8.8 L9.7 -9.0 9.9 -9.2 10.1 -9.35 Q10.25 -9.4 10.3 -9.4 M-2.25 -16.1 Q-1.9 -15.55 -1.9 -14.85 -1.95 -14.45 -2.25 -14.2 -3.0 -14.05 -3.4 -14.6 -3.85 -15.2 -3.9 -16.0 -3.9 -16.55 -3.35 -16.65 -2.65 -16.7 -2.25 -16.1 M-9.75 -8.7 Q-9.5 -8.6 -9.4 -8.4 L-9.25 -8.1 Q-9.55 -6.9 -10.85 -7.0 -11.75 -7.1 -11.4 -7.85 -11.0 -8.55 -10.2 -8.75 L-9.75 -8.7 M-2.45 -5.45 Q-3.7 -4.45 -3.4 -5.85 -3.2 -6.5 -2.6 -6.8 -1.2 -6.5 -2.45 -5.45" fill="#ffffff" fill-rule="evenodd" stroke="none"/>
  </g>
</svg>
