<?xml version="1.0" encoding="UTF-8" standalone="no"?>
<svg xmlns:ffdec="https://www.free-decompiler.com/flash" xmlns:xlink="http://www.w3.org/1999/xlink" ffdec:objectType="shape" height="22.55px" width="27.85px" xmlns="http://www.w3.org/2000/svg">
  <g transform="matrix(1.0, 0.0, 0.0, 1.0, 11.0, 23.25)">
    <path d="M9.95 -20.75 Q10.0 -20.5 9.75 -20.45 9.5 -20.35 9.4 -20.55 9.35 -20.6 9.35 -20.65 9.4 -20.8 9.45 -20.9 L9.65 -21.0 Q9.95 -21.0 9.95 -20.75 M11.35 -0.9 L11.3 -1.1 Q11.3 -1.35 11.55 -1.35 11.85 -1.35 11.85 -1.1 11.9 -0.9 11.75 -0.75 L11.4 -0.75 11.35 -0.9 M16.2 -12.75 L16.4 -12.95 16.55 -13.0 16.65 -13.0 16.7 -12.95 Q17.0 -12.9 16.75 -12.6 16.55 -12.4 16.5 -12.5 L16.4 -12.5 Q16.2 -12.5 16.2 -12.75 M-4.05 -22.9 Q-4.05 -22.65 -4.3 -22.6 -4.5 -22.6 -4.5 -22.75 L-4.55 -22.9 Q-4.55 -23.05 -4.4 -23.15 -4.3 -23.2 -4.2 -23.25 -4.0 -23.15 -4.05 -22.9 M-10.7 -12.25 L-10.55 -12.15 -10.45 -11.9 Q-10.4 -11.8 -10.45 -11.7 L-10.5 -11.65 Q-10.65 -11.6 -10.8 -11.55 -10.95 -11.55 -10.95 -11.7 L-11.0 -11.85 Q-11.0 -12.0 -10.95 -12.1 -10.85 -12.25 -10.7 -12.25 M-9.95 -3.85 Q-10.0 -3.65 -10.2 -3.7 -10.35 -3.7 -10.45 -3.85 L-10.4 -4.0 -10.25 -4.15 -10.15 -4.2 Q-9.9 -4.1 -9.95 -3.85" fill="#ffffff" fill-rule="evenodd" stroke="none"/>
  </g>
</svg>
