<?xml version="1.0" encoding="UTF-8" standalone="no"?>
<svg xmlns:ffdec="https://www.free-decompiler.com/flash" xmlns:xlink="http://www.w3.org/1999/xlink" ffdec:objectType="shape" height="5.25px" width="5.9px" xmlns="http://www.w3.org/2000/svg">
  <g transform="matrix(1.0, 0.0, 0.0, 1.0, 1.1, 13.65)">
    <path d="M3.45 -12.5 L3.55 -12.55 Q5.65 -12.3 4.2 -10.75 3.8 -10.3 3.5 -10.15 3.65 -9.6 2.95 -8.8 2.25 -8.05 1.75 -8.85 1.6 -9.05 1.55 -9.3 1.5 -9.2 1.35 -9.1 1.15 -9.0 1.0 -9.05 L0.95 -9.0 Q-0.1 -7.85 -0.5 -9.25 L-0.55 -9.5 Q-0.75 -9.6 -0.85 -9.8 -1.2 -10.3 -1.0 -10.85 -0.75 -11.45 -0.2 -11.6 -0.15 -12.1 0.1 -12.55 0.4 -13.1 0.95 -13.3 1.35 -13.25 1.55 -13.0 1.8 -13.5 2.35 -13.65 3.5 -13.75 3.45 -12.65 L3.45 -12.5 M2.5 -11.25 Q2.05 -11.05 1.65 -11.25 1.45 -10.9 1.15 -10.6 L1.1 -10.6 Q1.7 -10.3 1.45 -9.7 L1.55 -9.6 Q1.6 -9.95 2.0 -10.35 2.3 -10.65 2.7 -10.8 L2.65 -11.05 2.7 -11.3 2.5 -11.25" fill="#ffffff" fill-rule="evenodd" stroke="none"/>
  </g>
</svg>
