<?xml version="1.0" encoding="UTF-8" standalone="no"?>
<svg xmlns:ffdec="https://www.free-decompiler.com/flash" xmlns:xlink="http://www.w3.org/1999/xlink" ffdec:objectType="shape" height="11.9px" width="37.9px" xmlns="http://www.w3.org/2000/svg">
  <g transform="matrix(1.0, 0.0, 0.0, 1.0, 18.65, -16.65)">
    <path d="M0.9 26.6 Q0.9 27.1 0.95 27.2 1.15 27.5 1.9 27.85 L2.75 27.85 Q4.25 27.9 4.9 27.0 5.15 26.65 5.25 26.3 5.55 26.4 5.65 26.65 L5.7 27.3 Q5.7 28.0 5.2 28.35 L4.15 28.5 3.35 28.55 Q2.05 28.55 1.35 28.1 0.8 27.7 0.8 27.25 0.8 26.85 0.9 26.6 M3.35 27.9 L3.35 27.9 M5.0 27.5 L4.9 27.85 5.1 27.75 Q5.15 27.7 5.15 27.35 L5.0 27.5" fill="#497322" fill-rule="evenodd" stroke="none"/>
    <path d="M19.2 16.7 L19.25 16.8 19.25 17.35 Q19.25 17.7 19.1 17.9 L18.7 18.15 18.25 17.8 18.15 17.7 Q18.15 16.95 18.7 16.65 L19.2 16.7 M11.3 24.1 L11.35 24.5 11.35 24.8 Q11.3 24.9 11.25 25.0 L10.1 25.1 10.05 25.0 Q9.95 24.9 9.95 24.55 9.95 24.3 10.4 24.15 10.75 24.0 11.25 24.0 L11.3 24.1 M4.9 26.85 L4.95 26.85 4.95 26.8 4.9 26.75 4.9 26.85 M5.25 26.3 Q5.15 26.65 4.9 27.0 4.25 27.9 2.75 27.85 L1.9 27.85 Q1.15 27.5 0.95 27.2 0.9 27.1 0.9 26.6 0.95 26.4 1.0 26.35 1.25 26.05 1.95 26.2 2.25 25.85 2.9 25.8 3.85 25.65 4.9 26.25 L4.95 26.25 5.25 26.3 M-17.75 20.35 Q-18.05 20.75 -18.15 20.8 L-18.2 20.7 -18.3 20.8 -18.35 20.75 -18.35 21.05 -17.9 20.55 Q-17.55 20.15 -17.55 20.05 L-17.75 20.35 M-18.2 19.7 L-18.2 19.7 M-18.65 21.1 L-18.65 20.35 Q-18.65 19.0 -17.95 18.95 -17.25 18.85 -17.25 20.15 -17.25 20.9 -18.05 21.7 -18.55 21.55 -18.65 21.1 M-17.8 22.4 Q-17.65 22.1 -17.4 22.05 -17.0 22.2 -17.0 22.8 L-17.15 23.05 -17.4 23.25 Q-17.8 23.1 -17.95 22.95 -17.95 22.7 -17.8 22.4 M-11.3 24.9 L-11.25 25.4 Q-11.25 25.75 -11.4 25.9 -11.45 26.0 -11.75 26.2 L-13.25 26.15 -13.55 25.85 Q-13.75 25.65 -13.75 25.3 -13.75 24.9 -13.35 24.7 -13.1 24.6 -12.85 24.6 L-11.3 24.75 -11.3 24.9 M-13.0 25.4 L-12.45 25.55 -11.95 25.55 -12.65 25.35 Q-12.9 25.3 -13.0 25.4" fill="#36591a" fill-rule="evenodd" stroke="none"/>
  </g>
</svg>
