<?xml version="1.0" encoding="UTF-8" standalone="no"?>
<svg xmlns:ffdec="https://www.free-decompiler.com/flash" xmlns:xlink="http://www.w3.org/1999/xlink" ffdec:objectType="shape" height="26.15px" width="17.3px" xmlns="http://www.w3.org/2000/svg">
  <g transform="matrix(1.0, 0.0, 0.0, 1.0, 6.45, 25.35)">
    <path d="M1.45 -24.7 Q1.7 -25.35 2.45 -25.35 3.25 -24.8 3.75 -22.95 4.2 -21.15 4.45 -18.3 L4.95 -13.6 5.25 -13.95 Q5.5 -14.2 5.6 -14.2 6.4 -14.2 6.5 -12.2 6.5 -11.55 6.45 -10.8 L6.4 -10.2 Q6.4 -9.25 6.55 -8.45 L6.6 -8.45 6.85 -8.4 Q7.05 -8.4 7.35 -8.65 7.65 -8.9 7.75 -8.9 8.45 -8.9 8.4 -6.9 8.2 -4.65 8.2 -4.1 8.2 -3.65 8.6 -2.9 9.05 -2.05 9.1 -1.8 9.25 -0.8 9.35 -0.6 9.55 -0.25 9.85 -0.05 L10.15 0.05 10.2 0.15 Q10.5 0.3 10.85 0.35 L10.8 0.6 Q10.7 0.75 10.45 0.75 9.95 0.7 9.6 0.55 9.0 0.7 8.05 0.6 L6.6 0.4 6.6 0.35 5.35 0.55 1.75 0.75 -1.55 0.5 -2.6 0.45 -2.7 0.35 -3.55 0.25 Q-4.4 0.25 -5.35 -0.1 -5.8 -0.3 -6.2 -0.45 L-6.25 -0.35 -6.45 -0.4 Q-6.2 -0.9 -5.05 -2.75 -4.3 -3.95 -4.2 -4.9 -3.95 -6.45 -3.75 -7.2 -3.45 -8.55 -2.85 -9.5 -1.75 -11.3 -1.05 -14.2 L-0.5 -16.5 Q-0.15 -17.9 0.1 -18.75 0.35 -19.5 0.65 -21.05 1.0 -22.75 1.2 -23.4 L1.45 -24.7" fill="#bffff0" fill-opacity="0.7529412" fill-rule="evenodd" stroke="none"/>
    <path d="M2.7 -8.6 Q3.0 -6.05 3.3 -5.2 3.55 -5.4 3.7 -5.9 3.85 -6.5 4.0 -6.75 4.5 -6.1 4.45 -4.6 4.45 -2.95 4.8 -2.2 5.05 -2.25 5.2 -2.55 L5.45 -3.05 5.8 -3.05 Q5.9 -2.7 5.85 -2.2 5.75 -1.55 5.75 -1.25 5.75 -0.55 6.15 -0.05 L6.2 0.05 Q6.45 0.3 6.75 0.5 L6.75 0.55 6.8 0.65 6.8 0.7 Q6.75 0.8 6.6 0.8 6.1 0.8 5.8 0.4 L5.5 0.4 4.95 0.5 -2.4 0.55 -3.45 0.5 -3.5 0.45 -3.55 0.45 -3.6 0.4 -3.7 0.35 -3.65 0.3 -3.7 0.2 Q-3.7 0.15 -3.2 -0.1 -2.7 -0.4 -2.5 -0.65 -2.4 -0.75 -2.25 -1.05 L-2.2 -1.15 Q-1.75 -2.35 -1.4 -2.35 -1.1 -2.35 -1.1 -2.1 -0.6 -3.15 -0.25 -4.55 -0.05 -5.25 0.25 -7.05 0.85 -10.35 1.85 -12.0 2.4 -10.8 2.7 -8.6" fill="#d9fff6" fill-opacity="0.7529412" fill-rule="evenodd" stroke="none"/>
    <path d="M2.05 -4.2 Q2.25 -2.5 2.8 -1.5 2.9 -1.5 2.95 -1.6 L3.05 -1.9 Q4.75 -0.25 4.75 0.05 L4.7 0.25 4.65 0.25 1.75 0.6 0.9 0.65 0.1 0.6 Q-0.6 0.55 -1.25 0.6 -1.7 0.3 -1.7 0.2 -1.7 -0.05 -1.1 -0.9 -0.6 -1.65 -0.45 -1.75 L-0.2 -1.5 Q0.5 -2.35 0.9 -4.3 1.3 -6.4 1.7 -6.95 L2.05 -4.2" fill="#ffffff" fill-opacity="0.7529412" fill-rule="evenodd" stroke="none"/>
  </g>
</svg>
