<?xml version="1.0" encoding="UTF-8" standalone="no"?>
<svg xmlns:ffdec="https://www.free-decompiler.com/flash" xmlns:xlink="http://www.w3.org/1999/xlink" ffdec:objectType="shape" height="28.6px" width="20.95px" xmlns="http://www.w3.org/2000/svg">
  <g transform="matrix(1.0, 0.0, 0.0, 1.0, 8.45, 27.9)">
    <path d="M2.65 -22.0 Q2.8 -17.05 3.5 -12.5 4.1 -8.4 4.4 -6.75 5.15 -3.1 5.7 -3.1 6.0 -3.1 6.35 -3.4 6.65 -3.7 6.85 -3.7 7.6 -3.7 7.9 -2.9 8.05 -2.45 8.05 -1.85 L8.3 -1.85 8.6 -1.9 9.2 -1.9 Q9.4 -1.75 9.5 -1.45 L9.6 -1.0 Q9.7 -0.35 10.4 -0.1 11.35 -0.2 11.6 -0.55 11.75 -0.8 11.8 -1.2 L11.75 -1.25 Q11.8 -1.3 11.95 -1.3 12.4 -1.3 12.45 -0.9 12.5 -0.75 12.45 -0.55 12.45 -0.1 12.25 0.2 12.0 0.6 11.6 0.6 11.45 0.6 11.35 0.5 L11.3 0.2 11.25 0.2 11.3 0.3 11.0 0.6 9.7 0.6 7.5 0.25 5.95 0.05 Q5.7 0.05 5.45 0.3 5.15 0.6 4.95 0.6 L0.65 0.55 -1.45 -0.2 Q-2.15 -0.2 -3.05 0.25 -3.35 0.4 -3.4 0.35 -3.45 0.35 -3.3 0.0 L-3.75 0.1 -4.1 0.15 Q-4.35 0.15 -5.35 -0.25 L-5.85 -0.45 Q-6.5 -0.15 -7.05 -0.15 -7.7 -0.15 -8.45 -0.8 -8.45 -1.3 -8.35 -1.65 -8.15 -2.2 -7.65 -2.35 L-7.2 -2.35 Q-7.15 -2.3 -7.2 -2.2 -7.25 -2.05 -7.25 -1.95 -7.25 -1.7 -6.95 -1.3 -6.6 -0.9 -6.45 -0.9 -5.1 -0.9 -4.4 -1.75 L-3.95 -2.35 Q-3.7 -2.65 -3.4 -2.65 -3.25 -2.65 -3.1 -2.55 -2.95 -2.45 -2.8 -2.45 L-2.7 -2.45 Q-1.45 -4.4 -0.6 -7.1 -0.45 -7.6 0.75 -12.1 1.2 -13.85 1.6 -17.25 L1.65 -17.9 Q2.05 -21.35 2.2 -22.5 L2.0 -20.05 Q2.2 -21.3 2.4 -22.05 L2.65 -22.0" fill="#bffff0" fill-opacity="0.7529412" fill-rule="evenodd" stroke="none"/>
    <path d="M3.95 -25.1 Q4.25 -24.15 4.45 -23.0 L5.5 -15.45 5.45 -15.35 5.95 -12.8 6.7 -8.6 Q6.85 -7.2 7.0 -6.5 7.25 -5.25 7.7 -4.35 7.85 -4.05 8.25 -3.9 L8.7 -3.65 9.05 -3.1 Q9.25 -2.75 9.3 -2.55 9.4 -1.75 9.85 -0.5 L9.85 -0.45 Q9.85 -0.4 10.0 -0.4 10.3 -0.4 10.55 -0.9 10.8 -1.45 10.9 -1.45 11.3 -1.2 11.3 -0.55 11.25 0.15 11.5 0.45 L11.45 0.6 11.35 0.65 11.1 0.7 Q10.65 0.7 10.5 0.4 L10.35 0.4 Q9.85 0.5 9.8 0.55 L-0.9 0.55 Q-3.55 0.4 -4.55 0.15 -4.7 0.1 -5.1 -0.05 L-5.25 -0.05 -6.65 -0.2 -7.95 -0.45 Q-8.0 -0.5 -8.0 -0.75 -8.0 -0.9 -7.5 -1.65 -7.0 -2.45 -6.75 -2.45 -6.45 -2.45 -6.35 -2.1 -6.3 -1.65 -6.25 -1.6 L-6.3 -1.55 Q-6.25 -1.5 -6.1 -1.5 -5.45 -1.5 -4.95 -2.85 -4.7 -3.55 -4.3 -4.8 -4.1 -5.2 -3.7 -5.35 -3.3 -5.5 -3.0 -5.95 -2.85 -6.15 -2.7 -6.75 L-2.5 -7.55 -1.5 -10.8 Q-0.95 -12.8 -0.7 -14.05 L0.2 -18.4 0.35 -20.9 0.55 -22.4 0.65 -23.45 0.75 -24.45 Q0.75 -24.75 0.85 -25.45 1.05 -26.3 1.25 -26.9 L1.25 -27.0 1.3 -27.0 Q2.0 -28.65 2.95 -27.2 3.6 -26.2 3.95 -25.1" fill="#d9fff6" fill-opacity="0.7529412" fill-rule="evenodd" stroke="none"/>
  </g>
</svg>
