<?xml version="1.0" encoding="UTF-8" standalone="no"?>
<svg xmlns:ffdec="https://www.free-decompiler.com/flash" xmlns:xlink="http://www.w3.org/1999/xlink" ffdec:objectType="shape" height="23.2px" width="21.75px" xmlns="http://www.w3.org/2000/svg">
  <g transform="matrix(1.0, 0.0, 0.0, 1.0, 8.7, 22.5)">
    <path d="M1.85 -12.95 L1.9 -12.95 1.95 -12.85 1.95 -13.25 2.0 -13.25 Q2.05 -13.1 2.05 -12.65 L2.0 -12.65 Q2.3 -11.6 2.25 -10.05 L2.05 -6.85 Q2.35 -5.0 2.8 -3.7 3.75 -1.0 5.15 -1.0 5.5 -1.0 5.7 -1.2 5.95 -1.45 6.15 -1.45 L6.9 -1.4 7.25 -0.9 7.45 -0.5 7.6 -0.65 Q7.7 -0.75 7.85 -0.75 8.35 -0.75 8.5 -0.55 L8.85 -0.15 Q9.15 0.1 9.7 0.15 10.4 0.2 10.7 0.3 L10.75 0.35 10.4 0.45 9.95 0.45 9.75 0.3 8.85 0.2 8.05 0.2 7.3 0.3 6.6 0.35 Q6.55 0.35 6.2 0.5 L5.8 0.7 Q3.6 0.7 2.7 0.65 L0.1 0.4 Q-0.75 0.3 -2.65 0.35 -4.35 0.3 -5.35 -0.15 -5.05 -0.5 -4.5 -0.55 L-4.25 -0.6 -4.1 -0.75 Q-3.8 -1.05 -3.5 -1.05 L-2.65 -0.55 -2.05 -0.2 -1.4 -0.2 Q-0.35 -0.9 0.35 -3.9 0.8 -5.85 0.95 -7.95 0.95 -8.2 1.4 -10.4 1.85 -12.65 1.85 -12.95 M12.5 -0.65 Q13.05 -1.05 13.05 -0.1 13.05 0.05 12.85 0.15 L12.1 0.45 11.95 0.35 Q11.9 0.35 11.9 0.15 11.9 0.0 12.1 -0.25 12.25 -0.5 12.5 -0.65 M12.45 -0.1 L12.6 -0.1 Q12.65 -0.2 12.65 -0.3 12.6 -0.4 12.55 -0.4 12.55 -0.2 12.45 -0.1 M-7.9 -1.9 L-7.95 -1.65 Q-7.95 -1.5 -7.75 -1.1 -7.55 -0.6 -7.3 -0.5 -7.7 -0.35 -7.95 -0.35 -8.7 -0.35 -8.7 -1.25 -8.7 -1.65 -8.6 -1.8 -8.45 -1.95 -7.85 -2.05 L-7.9 -1.9" fill="#bffff0" fill-opacity="0.7529412" fill-rule="evenodd" stroke="none"/>
    <path d="M2.65 -22.0 Q2.8 -17.05 3.5 -12.5 4.1 -8.4 4.4 -6.75 5.15 -3.1 5.7 -3.1 6.0 -3.1 6.35 -3.4 6.65 -3.7 6.85 -3.7 7.6 -3.7 7.9 -2.9 8.05 -2.45 8.05 -1.85 L8.3 -1.85 8.6 -1.9 9.2 -1.9 Q9.4 -1.75 9.5 -1.45 L9.6 -1.0 Q9.7 -0.35 10.4 -0.1 11.35 -0.2 11.6 -0.55 11.75 -0.8 11.8 -1.2 L11.75 -1.25 Q11.8 -1.3 11.95 -1.3 12.4 -1.3 12.45 -0.9 12.5 -0.75 12.45 -0.55 12.45 -0.1 12.25 0.2 12.0 0.6 11.6 0.6 11.45 0.6 11.35 0.5 L11.3 0.2 11.25 0.2 11.3 0.3 11.0 0.6 9.7 0.6 7.5 0.25 5.95 0.05 Q5.7 0.05 5.45 0.3 5.15 0.6 4.95 0.6 L0.65 0.55 -1.45 -0.2 Q-2.15 -0.2 -3.05 0.25 -3.35 0.4 -3.4 0.35 -3.45 0.35 -3.3 0.0 L-3.75 0.1 -4.1 0.15 Q-4.35 0.15 -5.35 -0.25 L-5.85 -0.45 Q-6.5 -0.15 -7.05 -0.15 -7.7 -0.15 -8.45 -0.8 -8.45 -1.3 -8.35 -1.65 -8.15 -2.2 -7.65 -2.35 L-7.2 -2.35 Q-7.15 -2.3 -7.2 -2.2 -7.25 -2.05 -7.25 -1.95 -7.25 -1.7 -6.95 -1.3 -6.6 -0.9 -6.45 -0.9 -5.1 -0.9 -4.4 -1.75 L-3.95 -2.35 Q-3.7 -2.65 -3.4 -2.65 -3.25 -2.65 -3.1 -2.55 -2.95 -2.45 -2.8 -2.45 L-2.7 -2.45 Q-1.45 -4.4 -0.6 -7.1 -0.45 -7.6 0.75 -12.1 1.2 -13.85 1.6 -17.25 L1.65 -17.9 Q2.05 -21.35 2.2 -22.5 L2.0 -20.05 Q2.2 -21.3 2.4 -22.05 L2.65 -22.0" fill="#d9fff6" fill-opacity="0.7529412" fill-rule="evenodd" stroke="none"/>
  </g>
</svg>
