<?xml version="1.0" encoding="UTF-8" standalone="no"?>
<svg xmlns:ffdec="https://www.free-decompiler.com/flash" xmlns:xlink="http://www.w3.org/1999/xlink" ffdec:objectType="shape" height="5.5px" width="22.1px" xmlns="http://www.w3.org/2000/svg">
  <g transform="matrix(1.0, 0.0, 0.0, 1.0, 8.9, 4.9)">
    <path d="M1.45 -4.85 L1.5 -4.9 1.65 -4.85 1.65 -3.85 1.6 -2.75 Q1.6 -1.7 2.0 -0.95 2.55 0.05 3.85 0.05 4.05 0.05 4.15 -0.25 4.3 -0.5 4.55 -0.5 4.75 -0.5 5.0 -0.25 5.25 0.1 5.4 0.2 L5.05 0.5 Q4.9 0.6 4.7 0.6 4.3 0.6 4.15 0.4 4.05 0.2 3.95 0.2 3.85 0.2 3.4 0.35 L2.85 0.5 0.95 0.35 Q0.3 0.25 0.2 -0.05 0.9 -0.8 1.15 -2.05 L1.45 -4.1 1.45 -4.85 M13.2 0.0 L13.1 0.3 13.1 0.35 12.9 0.35 Q12.65 0.35 12.55 0.15 L12.5 -0.05 Q12.5 -0.15 12.6 -0.25 12.7 -0.4 12.9 -0.5 13.2 -0.3 13.2 0.0 M-8.3 -0.65 Q-8.45 -0.55 -8.65 -0.55 -8.9 -0.55 -8.85 -0.6 -8.9 -0.6 -8.9 -0.75 -8.9 -1.2 -8.5 -1.0 L-8.1 -0.75 -8.3 -0.65 M-3.9 -0.45 Q-3.7 -0.45 -3.4 -0.35 L-3.05 -0.2 -3.3 0.05 Q-3.4 0.2 -3.55 0.2 -3.85 0.2 -3.9 0.15 L-3.9 0.05 -3.95 -0.15 Q-3.95 -0.4 -3.9 -0.45 M-0.35 0.05 L0.15 0.15 -0.35 0.2 Q-1.05 0.2 -1.35 0.35 -1.65 0.55 -1.75 0.55 -2.5 0.55 -2.5 0.1 -2.5 -0.45 -1.95 -0.3 -1.55 -0.2 -1.1 0.15 L-0.35 0.05" fill="#bffff0" fill-opacity="0.7529412" fill-rule="evenodd" stroke="none"/>
  </g>
</svg>
