<?xml version="1.0" encoding="UTF-8" standalone="no"?>
<svg xmlns:ffdec="https://www.free-decompiler.com/flash" xmlns:xlink="http://www.w3.org/1999/xlink" ffdec:objectType="shape" height="20.7px" width="23.2px" xmlns="http://www.w3.org/2000/svg">
  <g transform="matrix(1.0, 0.0, 0.0, 1.0, 2.95, 40.2)">
    <path d="M12.95 -38.4 L12.85 -38.25 12.7 -38.25 Q12.6 -38.3 12.55 -38.35 12.8 -38.6 12.9 -38.6 L12.95 -38.4 M20.25 -19.65 Q20.25 -19.55 20.15 -19.5 L19.95 -19.5 19.95 -19.7 Q19.95 -19.95 20.2 -19.95 L20.25 -19.65 M-2.35 -40.05 Q-2.3 -40.0 -2.3 -39.85 -2.3 -39.7 -2.35 -39.65 L-2.45 -39.6 Q-2.55 -39.55 -2.65 -39.55 L-2.9 -39.75 -2.95 -39.85 Q-2.95 -40.35 -2.4 -40.15 L-2.35 -40.05" fill="#bffff0" fill-opacity="0.7529412" fill-rule="evenodd" stroke="none"/>
  </g>
</svg>
