<?xml version="1.0" encoding="UTF-8" standalone="no"?>
<svg xmlns:ffdec="https://www.free-decompiler.com/flash" xmlns:xlink="http://www.w3.org/1999/xlink" ffdec:objectType="shape" height="13.7px" width="21.25px" xmlns="http://www.w3.org/2000/svg">
  <g transform="matrix(1.0, 0.0, 0.0, 1.0, 0.0, 13.7)">
    <path d="M5.35 -0.4 L4.1 -0.35 4.55 -0.6 5.35 -0.4" fill="url(#gradient0)" fill-rule="evenodd" stroke="none"/>
    <path d="M14.5 -3.5 L1.2 -0.3 Q10.15 -8.3 11.3 -9.5 11.65 -9.4 12.65 -9.35 14.15 -9.35 15.85 -9.75 17.9 -10.2 19.65 -11.5 L20.15 -11.9 19.55 -10.4 Q18.45 -7.7 17.5 -6.55 16.45 -5.3 14.5 -3.5 M4.35 -1.55 L4.45 -1.45 8.4 -4.9 Q11.0 -7.2 11.8 -8.1 L12.55 -8.05 12.7 -8.05 Q13.55 -8.0 14.4 -8.15 16.55 -8.65 17.3 -8.9 L17.8 -9.15 Q18.15 -9.35 18.55 -9.6 L18.8 -9.85 18.75 -9.9 18.25 -9.75 17.9 -9.6 17.7 -9.6 Q16.8 -9.3 15.65 -9.2 L13.75 -9.15 Q12.75 -9.1 12.3 -9.0 11.7 -8.8 11.5 -8.4 9.9 -7.1 8.3 -5.65 5.65 -3.15 4.35 -1.55" fill="url(#gradient1)" fill-rule="evenodd" stroke="none"/>
    <path d="M1.2 -0.3 L0.0 0.0 Q2.2 -1.95 5.5 -5.1 8.25 -7.75 10.65 -9.45 L10.8 -9.55 11.35 -9.95 11.4 -9.9 11.45 -9.75 12.8 -9.75 Q13.75 -9.8 15.8 -10.25 L16.8 -10.5 Q18.7 -11.1 19.7 -12.2 20.0 -12.5 20.25 -12.85 L20.45 -13.15 20.8 -13.7 20.95 -13.7 Q21.05 -13.65 21.05 -13.45 L21.1 -13.4 21.2 -13.1 Q21.65 -11.05 17.1 -5.85 16.15 -4.8 15.05 -3.6 L14.5 -3.5 Q16.45 -5.3 17.5 -6.55 18.45 -7.7 19.55 -10.4 L20.15 -11.9 19.65 -11.5 Q17.9 -10.2 15.85 -9.75 14.15 -9.35 12.65 -9.35 11.65 -9.4 11.3 -9.5 10.15 -8.3 1.2 -0.3 M4.35 -1.55 Q5.65 -3.15 8.3 -5.65 9.9 -7.1 11.5 -8.4 11.7 -8.8 12.3 -9.0 12.75 -9.1 13.75 -9.15 L15.65 -9.2 Q16.8 -9.3 17.7 -9.6 L17.9 -9.6 18.25 -9.75 18.75 -9.9 18.8 -9.85 18.55 -9.6 Q18.15 -9.35 17.8 -9.15 L17.3 -8.9 Q16.55 -8.65 14.4 -8.15 13.55 -8.0 12.7 -8.05 L12.55 -8.05 11.8 -8.1 Q11.0 -7.2 8.4 -4.9 L4.45 -1.45 4.35 -1.55" fill="#f6d9ff" fill-rule="evenodd" stroke="none"/>
  </g>
  <defs>
    <linearGradient color-interpolation="linearRGB" gradientTransform="matrix(0.0341, -0.0077, 0.0047, 0.0201, -4.0, 3.7)" gradientUnits="userSpaceOnUse" id="gradient0" spreadMethod="pad" x1="-819.2" x2="819.2">
      <stop offset="0.0" stop-color="#990095"/>
      <stop offset="0.9882352941176471" stop-color="#e68ad6"/>
    </linearGradient>
    <linearGradient color-interpolation="linearRGB" gradientTransform="matrix(0.0258, -0.0235, 0.014, 0.0152, 1.35, 6.4)" gradientUnits="userSpaceOnUse" id="gradient1" spreadMethod="pad" x1="-819.2" x2="819.2">
      <stop offset="0.0" stop-color="#990095"/>
      <stop offset="0.9882352941176471" stop-color="#e68ad6"/>
    </linearGradient>
  </defs>
</svg>
