<?xml version="1.0" encoding="UTF-8" standalone="no"?>
<svg xmlns:ffdec="https://www.free-decompiler.com/flash" xmlns:xlink="http://www.w3.org/1999/xlink" ffdec:objectType="shape" height="18.35px" width="18.1px" xmlns="http://www.w3.org/2000/svg">
  <g transform="matrix(1.0, 0.0, 0.0, 1.0, 9.55, 16.45)">
    <path d="M4.8 -14.35 L5.05 -14.4 5.2 -14.6 5.2 -15.2 Q9.25 -12.6 8.4 -8.55 8.4 -11.5 4.2 -12.3 -2.65 -9.4 -0.85 -2.5 0.25 1.65 3.6 -0.75 -0.95 3.95 -4.4 0.3 -6.8 -0.25 -8.35 -3.1 -11.0 -8.05 -7.9 -12.6 -7.5 -13.1 -7.05 -13.35 L-7.1 -13.2 Q-5.6 -15.35 -2.05 -16.45 -5.3 -14.05 -5.8 -9.9 -6.2 -6.65 -4.35 -7.1 -3.85 -9.15 -2.15 -10.8 0.85 -13.7 4.85 -14.4 L4.8 -14.35 M2.1 -11.85 L2.4 -12.1 2.25 -12.0 2.1 -11.85 M-3.15 -7.65 L-3.1 -7.65 -3.0 -7.9 -3.15 -7.65" fill="#ffffff" fill-rule="evenodd" stroke="none"/>
  </g>
</svg>
