<?xml version="1.0" encoding="UTF-8" standalone="no"?>
<svg xmlns:ffdec="https://www.free-decompiler.com/flash" xmlns:xlink="http://www.w3.org/1999/xlink" ffdec:objectType="shape" height="5.95px" width="25.6px" xmlns="http://www.w3.org/2000/svg">
  <g transform="matrix(1.0, 0.0, 0.0, 1.0, 12.25, 1.65)">
    <path d="M11.0 -1.25 L10.85 -1.3 10.55 -1.3 Q10.5 -1.35 10.5 -1.4 10.45 -1.45 10.4 -1.45 10.35 -1.45 10.3 -1.4 10.3 -1.35 10.2 -1.35 L10.15 -1.35 10.15 -1.4 Q10.15 -1.5 10.2 -1.5 10.3 -1.55 10.4 -1.65 L10.5 -1.65 10.55 -1.55 Q10.6 -1.5 10.65 -1.5 L10.8 -1.5 11.2 -1.55 11.3 -1.5 Q11.3 -1.45 11.4 -1.45 L11.45 -1.3 11.45 -1.15 Q11.45 -0.9 11.35 -0.8 11.25 -0.9 11.25 -0.95 L11.25 -1.05 11.15 -1.15 11.0 -1.25 M12.15 -0.15 Q12.2 -0.1 12.25 -0.1 L12.3 0.1 12.35 0.2 12.35 0.3 Q12.45 0.3 12.5 0.35 L13.05 0.35 13.2 0.45 13.3 0.6 Q13.35 0.7 13.35 0.8 13.35 0.9 13.3 1.1 13.2 1.25 13.05 1.25 L13.0 1.25 13.05 1.05 Q13.05 0.85 12.9 0.75 12.75 0.65 12.65 0.65 L12.2 0.75 Q12.05 0.7 12.05 0.55 L12.15 0.35 12.1 0.15 Q12.05 0.05 11.95 -0.05 11.8 -0.05 11.75 0.0 L11.65 0.05 11.6 0.05 11.6 -0.05 Q11.6 -0.1 11.75 -0.2 11.95 -0.3 12.1 -0.25 L12.15 -0.15 M8.2 2.2 Q8.3 2.3 8.3 2.6 8.3 2.65 8.4 2.8 8.5 2.9 8.5 2.95 8.5 3.2 8.35 3.4 8.2 3.6 8.0 3.6 L7.7 3.55 7.65 3.45 Q7.65 3.4 7.8 3.35 L8.1 3.2 8.1 3.1 8.05 3.1 Q8.1 3.05 8.05 3.0 L8.05 2.85 Q8.05 2.8 8.1 2.7 L8.15 2.55 Q8.15 2.35 8.0 2.25 L7.9 2.25 7.8 2.35 7.75 2.35 Q7.7 2.4 7.7 2.35 7.7 2.25 7.8 2.2 L7.9 2.15 Q7.95 2.1 8.0 2.15 L8.2 2.2 M7.4 3.4 L7.3 3.45 Q7.25 3.4 7.25 3.35 L7.35 3.35 7.4 3.4 M-10.3 -0.3 Q-10.2 -0.45 -10.0 -0.6 L-9.9 -0.6 -9.8 -0.55 -9.7 -0.55 -9.6 -0.4 -9.6 -0.35 -9.65 -0.35 -9.75 -0.4 -9.8 -0.45 Q-9.85 -0.45 -9.85 -0.4 L-9.9 -0.3 -10.0 -0.15 -10.1 0.05 -10.2 0.2 -10.2 0.5 -10.15 0.7 -10.1 0.8 -10.15 0.9 -10.25 0.9 -10.3 0.8 -10.4 0.75 -10.55 0.6 -10.65 0.4 -10.7 0.25 Q-10.7 0.1 -10.65 0.05 L-10.4 0.0 Q-10.3 0.0 -10.3 -0.15 L-10.3 -0.3 M-6.9 3.35 L-6.85 3.4 Q-6.85 3.45 -6.95 3.5 L-7.05 3.55 -7.1 3.6 -7.15 3.75 -7.05 3.9 -7.0 3.95 -6.8 4.05 -6.65 4.1 Q-6.45 4.15 -6.45 4.2 -6.45 4.3 -6.55 4.3 L-6.7 4.3 -6.85 4.25 -6.95 4.15 -7.2 4.1 -7.35 4.1 -7.5 3.95 Q-7.5 3.8 -7.4 3.75 L-7.25 3.6 Q-7.2 3.3 -7.0 3.3 -6.9 3.3 -6.9 3.35 M-8.3 3.1 L-8.4 3.15 -8.45 3.1 -8.4 3.05 -8.3 3.1 M-8.7 1.1 L-8.75 1.2 -8.85 1.2 Q-8.95 1.2 -9.0 1.1 L-9.0 1.05 Q-8.95 1.05 -8.9 1.05 L-8.9 1.1 -8.75 1.05 -8.7 1.1 M-11.4 0.55 L-11.4 0.55 M-11.55 0.85 L-11.65 0.9 -11.6 0.9 Q-11.6 1.0 -11.7 1.05 L-11.75 1.2 -11.7 1.35 -11.65 1.45 -11.65 1.5 -11.6 1.6 -11.65 1.65 -11.9 1.6 -12.0 1.5 -12.15 1.5 -12.25 1.2 -12.2 1.0 -12.05 0.85 -11.95 0.8 Q-11.85 0.8 -11.8 0.85 L-11.65 0.85 Q-11.5 0.8 -11.5 0.65 -11.55 0.5 -11.45 0.5 L-11.3 0.5 Q-11.0 0.45 -11.0 0.7 L-11.05 0.75 -11.1 0.7 -11.2 0.65 -11.25 0.65 -11.25 0.7 Q-11.25 0.65 -11.3 0.65 -11.35 0.65 -11.4 0.75 -11.4 0.85 -11.5 0.85 L-11.55 0.85" fill="#ffffff" fill-opacity="0.5019608" fill-rule="evenodd" stroke="none"/>
  </g>
</svg>
