<?xml version="1.0" encoding="UTF-8" standalone="no"?>
<svg xmlns:ffdec="https://www.free-decompiler.com/flash" xmlns:xlink="http://www.w3.org/1999/xlink" ffdec:objectType="shape" height="2.7px" width="12.25px" xmlns="http://www.w3.org/2000/svg">
  <g transform="matrix(1.0, 0.0, 0.0, 1.0, 6.1, 3.0)">
    <path d="M4.45 -0.6 L3.2 -0.65 1.25 -0.55 -0.4 -0.4 -2.05 -0.35 -2.65 -0.3 -3.2 -0.3 Q-5.05 -0.3 -5.75 -0.6 -6.1 -0.8 -6.1 -1.15 -6.1 -1.25 -6.0 -1.3 -5.7 -1.5 -5.65 -1.55 -5.5 -1.6 -5.4 -1.8 L-5.15 -2.1 Q-4.9 -2.4 -4.6 -2.6 -4.05 -2.9 -3.05 -3.0 L-2.6 -3.0 -2.15 -2.95 -0.65 -2.65 Q0.3 -2.4 1.55 -2.3 L3.85 -2.25 Q4.65 -2.2 5.45 -1.8 6.15 -1.35 6.15 -1.0 6.15 -0.85 6.1 -0.8 6.05 -0.75 5.75 -0.65 L4.45 -0.6" fill="#bfcfff" fill-opacity="0.5019608" fill-rule="evenodd" stroke="none"/>
  </g>
</svg>
