<?xml version="1.0" encoding="UTF-8" standalone="no"?>
<svg xmlns:ffdec="https://www.free-decompiler.com/flash" xmlns:xlink="http://www.w3.org/1999/xlink" ffdec:objectType="shape" height="5.65px" width="28.5px" xmlns="http://www.w3.org/2000/svg">
  <g transform="matrix(1.0, 0.0, 0.0, 1.0, 15.2, 2.5)">
    <path d="M3.55 -1.85 L3.55 -1.95 Q3.55 -2.15 3.7 -2.3 3.9 -2.5 4.25 -2.45 L4.3 -2.3 Q4.3 -2.2 4.1 -2.0 3.9 -1.8 3.75 -1.8 L3.6 -1.8 3.55 -1.85 M10.8 -2.0 L11.25 -2.05 11.4 -2.25 11.65 -2.45 Q12.15 -2.4 12.35 -2.15 12.65 -1.75 12.7 -1.7 13.1 -1.5 13.2 -1.3 13.3 -1.2 13.3 -0.95 13.3 -0.3 12.5 0.15 12.05 0.4 11.95 0.45 11.7 0.65 11.7 0.9 L11.95 1.1 Q12.2 1.25 12.2 1.4 12.2 2.1 11.15 2.1 10.85 2.1 10.6 2.0 10.4 1.85 10.2 1.85 L9.85 1.85 10.0 1.95 10.05 2.1 Q10.05 2.3 9.7 2.4 L8.0 2.75 7.2 2.7 6.4 2.7 6.1 2.65 5.9 2.45 5.9 2.3 6.85 2.15 8.0 1.95 Q8.75 1.9 9.05 1.75 L9.55 1.5 Q9.4 1.35 9.4 1.25 L10.0 1.25 Q10.55 1.4 11.35 0.5 12.05 -0.35 12.05 -0.7 12.05 -0.8 11.8 -1.0 11.5 -1.2 11.35 -1.2 10.95 -1.2 10.85 -1.05 10.7 -0.95 10.6 -0.9 10.3 -0.9 10.05 -1.0 9.9 -1.05 9.7 -1.15 9.8 -1.3 10.0 -1.35 10.25 -1.45 10.25 -1.5 L10.55 -1.95 10.8 -2.0 M1.5 1.5 L1.45 1.6 1.4 1.65 Q1.05 1.75 0.9 1.75 0.45 1.75 0.2 1.6 0.1 1.5 0.1 1.35 0.1 1.1 0.4 1.15 0.95 1.25 1.4 1.3 L1.45 1.35 1.5 1.5 M0.85 1.45 L1.1 1.5 1.1 1.45 0.85 1.45 M-12.9 -2.05 Q-12.9 -2.15 -12.65 -2.35 -12.35 -2.55 -12.2 -2.5 -12.05 -2.5 -11.95 -2.25 -11.85 -2.0 -11.6 -2.0 -11.5 -1.95 -11.45 -1.75 L-11.4 -1.55 -11.55 -1.45 -11.6 -1.55 -11.65 -1.7 Q-11.7 -1.7 -11.75 -1.75 L-11.95 -1.7 Q-12.05 -1.5 -12.15 -1.05 L-12.35 -0.35 -12.95 -0.1 Q-13.25 0.05 -13.35 0.25 L-13.3 0.35 -12.85 0.45 -12.65 0.65 Q-12.55 0.8 -12.55 0.85 L-12.65 1.05 -12.85 1.35 Q-12.65 1.5 -12.15 1.65 -11.65 1.85 -11.6 1.9 L-10.3 1.95 -9.35 1.9 -8.85 1.95 Q-8.75 2.15 -8.85 2.3 L-8.0 2.4 -5.75 2.55 -5.3 2.55 -4.85 2.6 Q-4.95 2.8 -5.25 2.9 -5.5 3.0 -6.15 3.15 L-11.55 3.15 -11.75 3.1 -12.4 3.0 -13.65 2.7 -13.7 2.3 -13.75 1.95 Q-14.65 1.75 -14.95 1.5 -15.2 1.35 -15.2 1.05 -15.2 0.6 -15.0 0.2 -14.8 -0.25 -14.4 -0.4 -13.9 -0.65 -13.55 -0.6 -13.2 -0.55 -13.05 -0.65 -12.95 -0.7 -12.85 -0.9 L-12.6 -1.55 Q-12.6 -1.6 -12.75 -1.8 L-12.9 -2.05 M-6.4 -0.75 Q-6.55 -0.85 -6.55 -1.1 -6.55 -1.85 -5.6 -0.85 -5.6 -0.65 -6.0 -0.65 -6.25 -0.65 -6.4 -0.75 M-0.7 -1.7 L-1.2 -1.7 Q-1.35 -1.7 -1.35 -1.8 L-1.4 -1.9 Q-1.4 -2.15 -1.05 -2.15 -0.7 -2.2 -0.4 -2.0 -0.45 -1.7 -0.7 -1.7" fill="#ffffff" fill-opacity="0.5019608" fill-rule="evenodd" stroke="none"/>
  </g>
</svg>
