<?xml version="1.0" encoding="UTF-8" standalone="no"?>
<svg xmlns:ffdec="https://www.free-decompiler.com/flash" xmlns:xlink="http://www.w3.org/1999/xlink" ffdec:objectType="shape" height="3.95px" width="19.85px" xmlns="http://www.w3.org/2000/svg">
  <g transform="matrix(1.0, 0.0, 0.0, 1.0, 10.35, 0.7)">
    <path d="M8.95 -0.4 L9.0 -0.1 Q9.0 0.0 9.05 0.05 9.1 0.15 9.1 0.2 L8.95 0.4 9.4 0.55 9.45 0.6 9.5 0.7 9.45 0.85 8.8 0.85 Q8.5 0.25 7.75 0.2 L6.85 0.25 6.65 0.25 6.3 0.2 6.55 0.15 Q6.75 0.05 6.8 -0.1 L8.2 -0.1 8.3 -0.2 8.35 -0.3 Q8.35 -0.35 8.3 -0.35 8.25 -0.4 8.25 -0.45 8.25 -0.55 8.4 -0.7 8.85 -0.6 8.95 -0.4 M7.65 0.85 L7.55 0.9 7.5 0.95 Q7.5 1.0 7.4 1.15 L7.55 1.25 8.25 1.3 8.45 1.35 8.55 1.55 8.6 1.7 8.6 1.8 8.55 1.9 Q8.5 1.95 8.35 1.95 L8.15 1.9 7.85 1.9 7.8 1.85 7.7 1.8 7.55 1.85 7.55 2.0 Q7.4 2.0 7.15 1.9 L6.9 1.8 6.4 1.8 6.1 1.85 5.95 1.9 5.9 2.05 5.65 2.1 5.4 2.2 5.35 2.3 5.65 2.6 5.65 3.05 5.55 3.1 5.25 3.05 5.05 3.0 4.5 3.0 4.3 2.95 Q4.1 3.0 4.05 3.05 L3.45 2.95 3.4 2.9 3.2 2.95 3.2 2.8 Q3.2 2.65 3.3 2.65 L3.35 2.75 3.3 2.8 Q3.35 2.85 3.6 2.7 L4.0 2.85 5.05 2.85 5.3 2.6 5.25 2.4 Q5.15 2.3 5.15 2.25 5.15 2.15 5.25 1.8 L5.4 1.45 5.55 1.35 5.7 1.35 Q5.9 1.5 5.85 1.7 L5.85 1.75 6.0 1.6 Q6.15 1.55 6.4 1.55 6.95 1.55 7.0 1.6 7.05 1.7 7.2 1.7 L7.6 1.65 7.7 1.6 Q7.9 1.45 8.2 1.5 L8.15 1.5 Q7.3 1.45 7.2 1.25 7.15 1.25 7.25 0.95 L6.85 0.9 Q6.7 0.85 6.65 0.8 L6.7 0.75 Q7.15 0.7 7.5 0.75 7.55 0.8 7.65 0.85 M8.45 1.8 L8.5 1.75 8.45 1.75 8.35 1.85 8.45 1.8 M3.6 2.95 L3.6 2.95 M5.35 3.0 L5.4 3.05 5.45 3.0 Q5.55 3.0 5.6 2.95 L5.55 2.95 5.35 3.0 M1.35 2.3 L1.65 2.3 1.7 2.7 2.15 2.7 2.2 2.65 2.2 2.75 2.15 2.9 2.1 2.95 1.6 2.9 1.35 2.9 Q1.25 2.9 1.25 2.95 L1.25 3.0 0.4 2.85 0.95 2.85 Q1.3 2.75 1.3 2.55 1.3 2.35 1.35 2.3 M0.55 2.35 L0.5 2.4 0.45 2.3 0.4 2.15 0.55 2.15 0.6 2.25 0.55 2.35 M2.05 2.8 L2.05 2.8 M1.75 2.9 L1.75 2.9 M-8.2 -0.2 Q-8.1 -0.05 -8.1 0.05 L-6.9 0.15 -6.75 0.25 -6.8 0.25 -7.55 0.35 -7.7 0.4 -7.8 0.35 -8.5 0.45 -8.7 0.6 Q-8.75 0.65 -8.8 0.75 L-9.2 0.8 -9.45 0.85 Q-9.6 0.85 -9.6 0.65 -9.6 0.4 -9.2 0.2 -9.1 0.2 -9.1 0.25 L-9.1 0.35 -8.9 0.35 Q-8.75 0.25 -8.7 0.0 -8.65 -0.2 -8.4 -0.2 L-8.2 -0.2 M-2.55 2.85 L-1.85 2.85 -1.7 2.8 -2.1 2.8 -2.3 2.85 -2.55 2.8 -2.55 2.85 M-2.35 2.95 L-3.2 2.95 -3.95 3.0 -4.0 3.05 Q-4.2 3.1 -4.35 3.15 L-4.45 3.25 -5.25 3.2 -5.65 3.15 Q-5.7 3.25 -5.7 3.1 L-5.65 3.0 Q-5.65 2.9 -5.45 2.85 -5.6 2.85 -5.7 2.7 -5.8 2.65 -6.0 2.6 L-6.05 2.6 -6.6 2.55 -6.95 2.6 -7.25 2.6 -7.7 2.7 -8.05 2.7 -8.0 2.65 -8.0 2.4 -7.65 2.2 Q-7.45 2.2 -7.4 2.25 L-7.65 2.4 -7.5 2.55 -7.1 2.45 -5.9 2.35 -5.85 2.2 -5.65 2.0 -5.45 1.95 -5.3 1.95 Q-5.2 2.0 -5.1 2.1 L-5.1 2.25 Q-5.1 2.35 -5.15 2.55 L-5.2 2.85 -5.0 2.9 Q-4.65 2.9 -4.15 2.7 L-3.6 2.55 Q-3.1 2.55 -2.55 2.7 -2.2 2.8 -1.45 2.6 L-1.0 2.6 -0.9 2.65 Q-0.85 2.65 -0.85 2.7 L-0.85 2.8 -0.8 2.85 -0.85 2.9 -1.1 3.1 -1.4 3.0 -1.75 2.95 -2.35 2.95 M-2.75 2.85 L-2.75 2.85 M-5.4 2.15 L-5.5 2.15 -5.6 2.2 -5.3 2.15 Q-5.35 2.15 -5.4 2.15 M-5.6 2.5 L-5.8 2.5 -5.55 2.6 -5.6 2.5 M-5.25 2.55 L-5.35 2.7 -5.3 2.75 -5.25 2.6 -5.25 2.55 M-5.45 3.0 L-5.5 3.05 -5.4 3.05 -5.45 3.0 M-8.15 1.1 L-8.25 1.2 -8.3 1.2 -8.2 1.25 -8.05 1.3 Q-8.2 1.35 -8.4 1.4 L-8.95 1.55 -9.5 1.8 -9.55 1.85 -9.2 1.95 Q-9.2 1.75 -9.05 1.7 -8.9 1.6 -8.75 1.85 -8.6 2.0 -8.6 2.15 L-8.7 2.4 -8.5 2.45 Q-8.45 2.45 -8.45 2.5 -8.45 2.65 -8.5 2.6 L-8.7 2.6 -8.4 2.7 -8.95 2.6 -9.0 2.6 -9.05 2.55 -9.3 2.5 -9.35 2.35 Q-9.35 2.3 -9.05 2.2 L-8.95 2.15 -9.05 2.15 -9.15 2.05 -10.15 2.0 Q-10.2 1.85 -10.3 1.7 -10.35 1.6 -10.35 1.45 L-10.35 1.35 -10.25 1.25 -10.1 1.15 Q-9.95 1.15 -9.9 1.25 -9.85 1.35 -9.9 1.5 L-9.7 1.55 -8.65 1.25 -8.65 1.15 -8.75 1.0 Q-8.75 0.9 -8.7 0.9 L-8.4 0.9 -8.2 1.1 -8.15 1.1 M-9.9 1.3 L-10.1 1.35 -10.3 1.5 -10.25 1.5 -9.9 1.35 -9.9 1.3 M-9.15 2.35 L-9.25 2.35 -9.2 2.4 -9.15 2.35" fill="#ffffff" fill-opacity="0.5019608" fill-rule="evenodd" stroke="none"/>
  </g>
</svg>
