<?xml version="1.0" encoding="UTF-8" standalone="no"?>
<svg xmlns:ffdec="https://www.free-decompiler.com/flash" xmlns:xlink="http://www.w3.org/1999/xlink" ffdec:objectType="shape" height="4.1px" width="20.95px" xmlns="http://www.w3.org/2000/svg">
  <g transform="matrix(1.0, 0.0, 0.0, 1.0, 10.7, 0.8)">
    <path d="M7.95 -0.05 Q8.55 -0.1 8.85 -0.2 9.15 -0.35 9.15 -0.45 9.15 -0.6 9.1 -0.6 9.0 -0.65 9.0 -0.7 9.0 -0.8 9.25 -0.8 9.5 -0.85 9.6 -0.75 L9.7 -0.6 9.7 -0.5 Q9.7 -0.45 9.7 -0.4 9.7 -0.35 9.85 -0.35 L9.9 -0.2 9.8 0.1 9.95 0.35 Q9.95 0.7 9.2 0.8 9.1 0.8 9.05 0.7 L9.0 0.6 8.8 0.4 Q8.6 0.15 7.7 0.15 L7.15 0.2 7.1 0.2 7.05 0.1 7.0 0.15 Q7.05 0.05 7.15 0.0 L7.9 -0.05 7.95 -0.05 M8.7 1.15 L8.05 1.1 7.85 1.0 Q7.85 0.95 7.9 0.95 L7.95 1.0 8.0 1.0 8.05 0.95 8.2 0.9 8.65 0.9 9.4 1.1 9.45 1.1 Q9.5 1.05 9.55 1.0 9.6 0.95 9.7 0.95 9.9 0.95 10.1 1.05 10.25 1.15 10.25 1.25 10.25 1.4 10.1 1.45 L9.65 1.45 9.75 1.6 9.75 1.7 9.7 1.8 9.45 1.85 9.4 1.9 9.5 1.9 9.55 1.95 9.5 1.95 9.35 1.9 9.25 1.9 8.85 2.0 8.7 2.0 8.65 1.9 Q8.65 1.85 8.7 1.85 9.15 1.75 9.35 1.65 L9.4 1.65 9.4 1.55 9.35 1.5 Q9.35 1.4 9.45 1.35 L9.3 1.3 9.2 1.35 9.05 1.3 9.0 1.2 8.7 1.15 M7.35 0.05 Q7.2 0.05 7.15 0.1 L7.3 0.05 7.35 0.05 M6.7 1.65 Q6.8 1.65 6.95 1.75 L7.1 1.85 7.35 1.85 7.55 1.9 7.8 1.9 8.15 1.85 8.2 1.85 8.15 1.95 7.8 2.0 7.45 2.0 7.05 1.95 6.9 1.95 6.85 2.0 6.75 2.0 6.6 2.05 6.55 2.1 6.45 2.15 6.4 2.15 6.4 2.35 6.55 2.55 6.75 2.75 Q7.1 2.9 7.1 3.0 L7.0 3.1 6.9 3.15 6.15 3.2 5.95 3.15 5.7 3.15 Q5.65 3.15 5.55 3.25 5.45 3.3 5.2 3.3 L5.1 3.3 4.1 3.2 3.4 3.2 3.4 3.15 3.5 3.15 3.5 3.05 Q3.55 3.0 3.6 3.0 L4.5 3.1 4.65 3.1 5.2 3.15 Q5.35 3.1 5.45 3.0 L5.6 2.75 5.65 2.75 5.6 2.6 5.6 2.55 Q5.6 2.3 5.8 2.3 6.1 2.3 6.3 2.6 6.5 2.9 6.6 2.9 L6.65 2.9 6.7 2.85 6.6 2.75 Q6.35 2.6 6.3 2.5 6.15 2.35 6.15 2.25 L6.15 2.15 6.25 1.95 Q6.3 1.75 6.5 1.7 L6.7 1.65 M6.95 1.9 L6.75 1.8 6.7 1.8 6.85 1.85 6.9 1.9 6.95 1.9 M6.3 2.25 L6.3 2.25 M6.45 3.1 L6.5 3.1 6.45 3.05 6.45 3.1 M6.95 3.0 L6.8 2.9 6.75 3.0 6.75 3.05 6.9 3.05 6.95 3.0 M4.8 3.2 L5.1 3.25 4.95 3.25 4.8 3.2 M5.75 3.1 L5.75 3.1 M5.35 3.25 L5.35 3.25 M0.6 2.4 L0.5 2.5 0.5 2.45 Q0.45 2.45 0.45 2.4 L0.5 2.4 0.5 2.3 0.6 2.4 M1.3 2.75 L1.35 2.65 Q1.4 2.6 1.55 2.65 1.6 2.7 1.8 2.75 L2.0 2.8 Q2.1 2.8 2.1 2.95 2.1 3.05 2.05 3.1 2.0 3.2 1.8 3.15 1.7 3.2 1.5 3.2 L1.2 3.2 0.9 3.25 0.75 3.2 0.75 3.05 Q0.75 3.0 0.8 2.95 0.85 2.9 0.9 2.9 L1.05 2.95 0.85 3.05 1.45 3.1 1.55 3.1 1.65 3.0 1.6 2.9 Q1.4 2.85 1.35 2.8 1.3 2.8 1.3 2.75 M-8.95 -0.45 L-8.8 -0.4 Q-8.7 -0.4 -8.7 -0.35 L-8.6 -0.2 Q-8.6 -0.05 -8.35 0.0 -8.1 0.15 -7.65 0.2 -7.4 0.2 -7.3 0.3 L-7.25 0.4 -7.15 0.35 -7.1 0.35 Q-7.35 0.55 -7.6 0.55 L-8.15 0.6 -8.7 0.75 -9.45 0.8 -9.6 0.75 Q-9.65 0.7 -9.65 0.6 -9.65 0.4 -9.45 0.3 L-9.2 0.1 Q-9.25 -0.05 -9.15 -0.2 -9.1 -0.4 -8.95 -0.45 M-2.25 2.85 L-1.8 2.8 -1.55 2.75 -1.45 2.7 -1.3 2.75 -1.3 2.8 -1.4 2.85 -1.65 2.9 -2.45 3.0 Q-2.75 3.0 -2.9 2.85 L-3.2 2.8 -3.4 2.8 -3.55 2.85 -3.95 2.85 -4.4 2.9 -4.85 3.05 -5.55 3.15 -6.0 3.15 -6.05 3.05 -5.95 2.85 Q-5.95 2.75 -5.8 2.65 L-5.9 2.6 -6.05 2.7 -6.35 2.8 -6.7 2.85 -7.0 2.9 Q-7.1 2.95 -7.15 2.95 L-7.5 3.0 -7.8 3.0 -8.0 2.85 -8.05 2.85 -8.05 2.75 -8.1 2.7 -8.05 2.6 -8.05 2.55 Q-8.0 2.45 -7.95 2.45 L-7.8 2.4 -7.9 2.5 -7.95 2.65 -7.95 2.7 -7.9 2.75 -7.25 2.75 -7.2 2.8 -6.7 2.75 -6.5 2.7 Q-6.35 2.6 -6.1 2.55 L-5.95 2.4 -5.85 2.2 Q-5.6 2.05 -5.5 2.1 L-5.45 2.15 -5.35 2.2 Q-5.25 2.25 -5.25 2.4 -5.25 2.55 -5.45 2.7 -5.65 2.9 -5.75 3.05 L-5.55 3.05 -4.95 2.95 Q-4.5 2.8 -4.3 2.75 L-4.0 2.75 -3.75 2.7 Q-3.6 2.55 -3.3 2.55 -3.0 2.55 -2.85 2.7 L-2.85 2.75 -2.25 2.85 M-3.65 2.75 L-3.45 2.75 -3.15 2.7 -3.3 2.7 -3.65 2.75 M-8.5 1.3 L-8.35 1.35 Q-8.3 1.4 -8.3 1.5 L-8.3 1.55 -8.65 1.6 -9.0 1.95 -9.1 2.1 -9.0 2.25 -8.85 2.4 -8.55 2.4 -8.45 2.45 -8.25 2.45 -8.55 2.65 -8.6 2.7 -8.7 2.7 -8.9 2.65 -9.0 2.7 -9.2 2.55 -9.3 2.55 -9.4 2.45 -9.4 2.35 -9.35 2.25 Q-9.3 2.2 -9.2 2.15 L-9.15 2.05 -9.1 2.05 Q-9.35 2.15 -9.6 2.15 -9.8 2.15 -9.9 2.05 L-9.95 1.95 -10.3 1.95 -10.65 1.9 Q-10.7 1.85 -10.7 1.8 L-10.65 1.7 -10.65 1.5 -10.55 1.4 -10.45 1.35 -10.35 1.25 Q-10.25 1.2 -10.1 1.2 -10.05 1.25 -10.0 1.45 -9.95 1.6 -9.75 1.65 L-9.6 1.65 Q-9.3 1.65 -9.05 1.5 -8.8 1.3 -8.55 1.3 L-8.5 1.25 -8.5 1.3 M-5.9 3.05 L-5.9 3.05 M-6.3 2.7 L-6.3 2.7 M-9.05 2.5 L-8.9 2.55 -8.85 2.55 -9.1 2.5 -9.05 2.5 M-8.8 2.6 L-8.75 2.55 -8.85 2.55 -8.8 2.6" fill="#ffffff" fill-opacity="0.5019608" fill-rule="evenodd" stroke="none"/>
  </g>
</svg>
