<?xml version="1.0" encoding="UTF-8" standalone="no"?>
<svg xmlns:ffdec="https://www.free-decompiler.com/flash" xmlns:xlink="http://www.w3.org/1999/xlink" ffdec:objectType="shape" height="12.85px" width="24.75px" xmlns="http://www.w3.org/2000/svg">
  <g transform="matrix(1.0, 0.0, 0.0, 1.0, 6.95, 14.95)">
    <path d="M9.3 -3.45 L9.65 -3.8 9.65 -3.85 Q9.8 -4.15 9.8 -4.25 9.8 -4.5 9.2 -4.75 8.6 -5.05 7.85 -5.15 L4.9 -5.15 1.4 -4.8 -1.25 -4.65 Q-1.5 -4.8 -1.5 -4.95 -1.5 -5.4 -1.25 -5.45 L-0.4 -5.5 Q0.75 -5.5 2.95 -7.45 L4.45 -8.85 Q5.1 -9.45 5.3 -9.45 5.7 -9.45 5.75 -9.05 L5.75 -8.6 Q5.75 -8.45 5.5 -8.15 5.3 -7.8 5.3 -7.25 L5.3 -7.1 5.95 -7.1 Q7.3 -7.1 9.5 -8.6 10.0 -8.95 10.95 -9.65 11.6 -10.2 11.75 -10.25 L12.0 -10.2 Q12.05 -10.15 12.05 -9.85 12.05 -9.55 10.95 -8.1 L9.8 -6.7 9.8 -6.65 Q10.35 -6.8 12.3 -8.0 14.05 -9.05 14.3 -9.05 14.7 -9.05 14.8 -8.9 L14.85 -8.6 Q14.3 -7.05 12.95 -5.75 11.5 -4.3 9.25 -3.4 L9.3 -3.45" fill="#ffffff" fill-rule="evenodd" stroke="none"/>
    <path d="M-1.25 -4.65 L-2.4 -4.55 -3.0 -4.5 -2.9 -4.4 -3.1 -4.25 Q-3.2 -4.25 -3.25 -4.3 -3.25 -4.35 -3.2 -4.4 L-4.0 -4.45 -4.75 -4.4 -5.0 -4.4 -5.75 -4.35 Q-5.95 -4.35 -6.0 -4.45 -6.7 -4.5 -6.7 -4.55 L-6.4 -4.55 -6.7 -4.6 Q-6.95 -4.6 -6.95 -4.65 -6.85 -4.85 -6.35 -5.0 L-5.6 -5.1 -5.6 -5.3 -4.75 -5.35 Q-4.85 -5.5 -5.55 -6.05 -6.2 -6.6 -6.2 -6.85 L-6.15 -7.05 -6.15 -7.15 -6.2 -7.2 -6.0 -7.25 Q-5.6 -7.05 -5.35 -6.85 L-5.15 -6.7 Q-4.9 -6.6 -4.75 -6.6 L-4.35 -6.6 Q-4.5 -6.9 -5.65 -8.65 -6.75 -10.35 -6.75 -10.95 -6.75 -11.2 -6.6 -11.3 -6.55 -11.35 -6.4 -11.35 -5.55 -10.65 -4.4 -9.95 -2.05 -8.55 0.1 -8.55 2.15 -8.55 4.5 -10.5 5.75 -11.5 6.8 -12.75 L7.15 -12.75 Q7.35 -12.85 7.5 -12.85 7.9 -12.8 7.9 -11.75 7.9 -10.75 7.25 -9.6 L7.3 -9.5 Q7.45 -9.35 7.5 -9.35 8.1 -9.35 9.4 -9.95 L10.9 -10.65 Q11.3 -10.85 11.9 -11.45 L13.8 -13.35 Q14.3 -13.9 14.45 -14.35 14.8 -15.3 15.3 -14.7 15.75 -14.2 15.75 -13.7 15.75 -13.35 15.3 -12.3 L15.2 -12.1 15.2 -12.0 14.8 -10.8 Q14.55 -10.2 14.25 -9.7 L14.25 -9.65 Q14.75 -9.8 15.3 -10.05 15.7 -10.25 16.0 -10.5 L16.6 -10.9 Q17.2 -11.3 17.45 -11.3 17.75 -11.3 17.7 -11.25 L17.75 -11.2 17.8 -11.05 Q17.8 -10.65 17.3 -9.6 16.85 -8.75 16.6 -8.4 L16.5 -8.3 16.75 -8.4 17.15 -8.45 Q17.45 -8.45 17.35 -8.45 L17.4 -8.35 17.45 -8.15 Q17.45 -7.4 16.3 -6.3 15.25 -5.35 13.6 -4.35 12.05 -3.4 10.5 -2.75 8.95 -2.1 8.1 -2.1 L7.8 -2.1 7.7 -2.15 7.25 -2.15 Q6.85 -2.25 6.8 -2.3 8.2 -2.7 9.0 -3.2 L9.3 -3.45 9.25 -3.4 Q11.5 -4.3 12.95 -5.75 14.3 -7.05 14.85 -8.6 L14.8 -8.9 Q14.7 -9.05 14.3 -9.05 14.05 -9.05 12.3 -8.0 10.35 -6.8 9.8 -6.65 L9.8 -6.7 10.95 -8.1 Q12.05 -9.55 12.05 -9.85 12.05 -10.15 12.0 -10.2 L11.75 -10.25 Q11.6 -10.2 10.95 -9.65 10.0 -8.95 9.5 -8.6 7.3 -7.1 5.95 -7.1 L5.3 -7.1 5.3 -7.25 Q5.3 -7.8 5.5 -8.15 5.75 -8.45 5.75 -8.6 L5.75 -9.05 Q5.7 -9.45 5.3 -9.45 5.1 -9.45 4.45 -8.85 L2.95 -7.45 Q0.75 -5.5 -0.4 -5.5 L-1.25 -5.45 Q-1.5 -5.4 -1.5 -4.95 -1.5 -4.8 -1.25 -4.65" fill="#d7ace6" fill-rule="evenodd" stroke="none"/>
  </g>
</svg>
