<?xml version="1.0" encoding="UTF-8" standalone="no"?>
<svg xmlns:ffdec="https://www.free-decompiler.com/flash" xmlns:xlink="http://www.w3.org/1999/xlink" ffdec:objectType="shape" height="46.75px" width="28.9px" xmlns="http://www.w3.org/2000/svg">
  <g transform="matrix(1.0, 0.0, 0.0, 1.0, 16.2, 20.05)">
    <path d="M6.9 -0.85 Q6.65 -0.6 6.4 -0.45 L6.25 -0.4 6.9 -0.85" fill="#cccccc" fill-rule="evenodd" stroke="none"/>
    <path d="M-7.15 -18.1 Q-6.25 -18.5 -5.3 -18.75 L-4.5 -19.0 Q-3.15 -19.35 -2.1 -19.35 L-1.35 -19.3 -1.15 -19.3 Q1.3 -19.3 3.65 -18.55 L3.7 -18.55 3.55 -18.55 3.55 -18.4 3.6 -18.4 Q3.75 -18.35 4.1 -18.15 4.4 -18.0 4.65 -18.0 L4.6 -17.9 4.8 -17.7 5.4 -17.15 Q6.25 -16.35 6.85 -15.55 8.9 -12.7 8.9 -7.9 8.9 -6.05 8.3 -4.55 L8.15 -4.2 Q7.0 -1.6 3.95 -0.05 2.35 0.75 0.4 1.2 -0.9 1.45 -1.65 1.45 L-3.1 1.4 -4.1 1.25 -4.45 1.15 Q-5.25 0.9 -7.15 0.05 -7.55 -0.1 -8.0 -0.45 L-8.6 -1.0 Q-9.45 -1.8 -9.9 -2.65 L-10.0 -2.75 -11.1 -5.3 Q-12.15 -8.05 -12.15 -9.5 -12.15 -10.55 -11.8 -11.55 -11.5 -12.5 -10.6 -14.35 L-10.15 -14.95 Q-8.6 -16.75 -7.2 -17.85 L-7.6 -17.8 -7.25 -18.05 -7.15 -18.1 M2.05 -15.15 Q0.9 -14.8 0.65 -14.8 0.45 -14.8 -1.0 -15.35 -2.25 -15.85 -3.1 -15.9 L-3.9 -16.1 Q-4.2 -16.1 -4.6 -15.9 -5.0 -15.8 -5.15 -15.55 -6.0 -15.0 -6.75 -14.15 -8.75 -11.85 -8.75 -9.15 -8.75 -8.15 -7.35 -7.15 -6.05 -6.2 -5.3 -6.2 L-3.6 -6.3 Q-1.95 -6.6 -1.95 -7.7 -1.95 -8.4 -2.25 -8.8 L-2.15 -9.15 Q-2.35 -9.4 -2.55 -9.55 L-2.85 -9.7 Q-2.5 -10.2 -2.15 -10.35 L-1.5 -10.35 -0.7 -10.25 0.05 -10.15 Q0.15 -8.35 1.05 -7.55 1.3 -7.35 1.8 -7.1 2.25 -6.85 2.4 -6.7 L1.85 -5.9 Q1.45 -5.4 1.2 -5.4 0.95 -5.4 0.25 -5.7 -0.4 -5.95 -0.65 -5.95 L-1.2 -5.95 Q-1.55 -5.95 -1.75 -5.75 -2.3 -5.35 -2.6 -3.65 -2.8 -3.05 -3.3 -2.95 L-3.6 -2.9 Q-4.4 -3.5 -4.6 -3.5 -4.9 -3.5 -4.85 -3.45 L-4.8 -3.35 Q-4.4 -2.65 -3.6 -2.1 -3.5 -2.05 -2.7 -1.7 -2.7 -1.4 -2.6 -1.35 L-2.55 -1.3 -2.05 -1.25 -0.95 -1.15 Q-0.45 -1.25 -0.45 -2.1 -0.45 -2.3 -0.55 -2.75 -0.65 -3.25 -0.65 -3.75 L-0.2 -3.75 Q0.55 -2.85 0.85 -2.65 1.2 -2.4 1.85 -2.4 L1.9 -2.4 Q1.9 -2.25 1.95 -2.15 L2.05 -2.1 2.3 -2.05 2.65 -2.05 Q3.5 -2.05 5.15 -3.95 6.8 -5.85 7.0 -7.05 7.05 -7.4 6.45 -8.8 5.75 -10.4 5.55 -11.6 5.1 -14.65 4.75 -15.2 4.55 -15.5 4.3 -15.5 L3.7 -15.45 Q3.2 -15.45 2.05 -15.15 M2.3 -17.7 Q1.8 -18.4 0.8 -18.65 0.2 -18.8 -0.9 -18.8 -1.45 -18.8 -2.0 -18.7 -3.0 -18.45 -3.0 -17.7 -3.0 -16.8 -1.35 -16.35 -0.35 -16.1 0.7 -16.1 0.85 -16.1 1.5 -16.55 2.15 -16.95 2.3 -17.15 L2.3 -17.7" fill="#f9e5ff" fill-rule="evenodd" stroke="none"/>
    <path d="M-7.15 -18.1 L-7.25 -18.05 -7.6 -17.8 -7.2 -17.85 Q-8.6 -16.75 -10.15 -14.95 L-10.6 -14.35 Q-11.5 -12.5 -11.8 -11.55 -12.15 -10.55 -12.15 -9.5 -12.15 -8.05 -11.1 -5.3 L-10.0 -2.75 -9.9 -2.65 Q-9.45 -1.8 -8.6 -1.0 L-8.0 -0.45 Q-7.55 -0.1 -7.15 0.05 -5.25 0.9 -4.45 1.15 L-4.1 1.25 -3.1 1.4 -1.65 1.45 Q-0.9 1.45 0.4 1.2 2.35 0.75 3.95 -0.05 7.0 -1.6 8.15 -4.2 L8.3 -4.55 Q8.9 -6.05 8.9 -7.9 8.9 -12.7 6.85 -15.55 6.25 -16.35 5.4 -17.15 L4.8 -17.7 4.6 -17.9 4.65 -18.0 Q4.4 -18.0 4.1 -18.15 3.75 -18.35 3.6 -18.4 L3.55 -18.4 3.55 -18.55 3.7 -18.55 4.25 -18.4 Q4.8 -18.25 4.95 -18.05 5.35 -17.9 5.75 -17.65 L5.9 -17.65 6.6 -17.25 Q7.8 -15.75 8.25 -15.25 8.7 -14.8 9.1 -13.95 9.75 -12.05 10.15 -8.75 10.15 -4.6 8.8 -2.7 8.25 -1.95 7.25 -1.15 L6.9 -0.85 6.25 -0.4 5.3 0.35 Q3.55 1.7 1.4 2.65 L1.25 2.7 -0.3 2.75 -2.95 2.75 -3.85 2.55 -5.65 1.95 Q-6.85 1.55 -7.4 1.3 -10.45 -0.05 -11.9 -2.5 -13.4 -5.0 -13.4 -8.95 -13.4 -11.1 -12.85 -12.95 L-12.85 -13.05 -12.5 -13.7 -11.75 -15.0 -11.55 -15.4 Q-11.25 -16.05 -10.9 -16.4 -10.2 -17.1 -9.2 -17.5 L-8.7 -17.65 -8.25 -18.1 Q-7.35 -18.85 -6.75 -18.65 L-6.6 -18.75 -6.75 -18.6 -6.7 -18.35 -7.15 -18.1 M2.3 -17.7 L2.3 -17.15 Q2.15 -16.95 1.5 -16.55 0.85 -16.1 0.7 -16.1 -0.35 -16.1 -1.35 -16.35 -3.0 -16.8 -3.0 -17.7 -3.0 -18.45 -2.0 -18.7 -1.45 -18.8 -0.9 -18.8 0.2 -18.8 0.8 -18.65 1.8 -18.4 2.3 -17.7 M2.05 -15.15 Q3.2 -15.45 3.7 -15.45 L4.3 -15.5 Q4.55 -15.5 4.75 -15.2 5.1 -14.65 5.55 -11.6 5.75 -10.4 6.45 -8.8 7.05 -7.4 7.0 -7.05 6.8 -5.85 5.15 -3.95 3.5 -2.05 2.65 -2.05 L2.3 -2.05 2.05 -2.1 1.95 -2.15 Q1.9 -2.25 1.9 -2.4 L1.85 -2.4 Q1.2 -2.4 0.85 -2.65 0.55 -2.85 -0.2 -3.75 L-0.65 -3.75 Q-0.65 -3.25 -0.55 -2.75 -0.45 -2.3 -0.45 -2.1 -0.45 -1.25 -0.95 -1.15 L-2.05 -1.25 -2.55 -1.3 -2.6 -1.35 Q-2.7 -1.4 -2.7 -1.7 -3.5 -2.05 -3.6 -2.1 -4.4 -2.65 -4.8 -3.35 L-4.85 -3.45 Q-4.9 -3.5 -4.6 -3.5 -4.4 -3.5 -3.6 -2.9 L-3.3 -2.95 Q-2.8 -3.05 -2.6 -3.65 -2.3 -5.35 -1.75 -5.75 -1.55 -5.95 -1.2 -5.95 L-0.65 -5.95 Q-0.4 -5.95 0.25 -5.7 0.95 -5.4 1.2 -5.4 1.45 -5.4 1.85 -5.9 L2.4 -6.7 Q2.25 -6.85 1.8 -7.1 1.3 -7.35 1.05 -7.55 0.15 -8.35 0.05 -10.15 L-0.7 -10.25 -1.5 -10.35 -2.15 -10.35 Q-2.5 -10.2 -2.85 -9.7 L-2.55 -9.55 Q-2.35 -9.4 -2.15 -9.15 L-2.25 -8.8 Q-1.95 -8.4 -1.95 -7.7 -1.95 -6.6 -3.6 -6.3 L-5.3 -6.2 Q-6.05 -6.2 -7.35 -7.15 -8.75 -8.15 -8.75 -9.15 -8.75 -11.85 -6.75 -14.15 -6.0 -15.0 -5.15 -15.55 -5.0 -15.8 -4.6 -15.9 -4.2 -16.1 -3.9 -16.1 L-3.1 -15.9 Q-2.25 -15.85 -1.0 -15.35 0.45 -14.8 0.65 -14.8 0.9 -14.8 2.05 -15.15" fill="#a06bb3" fill-rule="evenodd" stroke="none"/>
    <path d="M10.1 -14.4 Q10.65 -13.35 11.35 -11.65 L12.45 -9.1 Q13.1 -7.55 12.15 -5.15 11.85 -4.35 11.3 -3.35 L10.5 -1.95 Q9.7 -1.3 9.25 -0.3 9.0 0.4 8.85 1.55 L8.55 3.45 Q8.3 4.5 7.8 5.1 7.25 5.75 5.8 6.75 4.5 7.65 4.2 8.2 3.6 9.35 3.25 10.6 3.05 11.3 2.85 12.35 2.6 13.05 2.25 13.35 1.8 13.7 0.85 13.7 L-0.3 13.6 Q-0.6 13.5 -1.35 12.85 -2.5 11.85 -2.65 10.25 -2.75 9.3 -2.85 8.75 -2.95 7.8 -3.25 6.95 -3.85 5.3 -5.15 4.65 -5.6 4.4 -6.3 4.2 L-7.55 3.85 -9.8 3.05 Q-11.2 2.5 -11.85 1.75 L-13.0 0.5 Q-13.6 -0.3 -13.6 -1.2 -13.5 -7.0 -13.9 -7.8 -14.15 -8.25 -14.2 -8.5 -14.35 -9.25 -14.35 -11.45 -14.35 -13.55 -11.05 -16.15 -8.95 -17.8 -7.25 -18.55 -6.15 -19.05 -3.8 -19.55 -1.45 -20.05 -0.1 -20.05 1.65 -20.05 3.4 -19.65 5.15 -19.25 6.85 -18.45 8.5 -17.65 10.1 -14.4 M-16.2 11.8 L-16.05 11.8 -13.6 12.4 Q-12.1 12.7 -11.2 13.1 -12.1 13.6 -13.6 13.45 -15.45 13.2 -16.2 11.8 M1.55 25.95 L1.6 25.9 3.55 25.9 4.65 26.2 Q5.05 26.3 5.25 26.45 L5.0 26.5 Q4.35 26.65 3.3 26.7 2.1 26.5 1.55 25.95" fill="#ce8ae6" fill-opacity="0.5019608" fill-rule="evenodd" stroke="none"/>
  </g>
</svg>
