<?xml version="1.0" encoding="UTF-8" standalone="no"?>
<svg xmlns:ffdec="https://www.free-decompiler.com/flash" xmlns:xlink="http://www.w3.org/1999/xlink" ffdec:objectType="shape" height="31.95px" width="68.55px" xmlns="http://www.w3.org/2000/svg">
  <g transform="matrix(1.0, 0.0, 0.0, 1.0, 31.45, 14.8)">
    <path d="M10.95 -13.6 Q11.3 -13.4 12.0 -13.2 13.1 -12.8 13.45 -12.8 13.75 -12.8 14.85 -13.05 15.95 -13.3 16.25 -13.3 17.25 -13.3 18.45 -11.1 L19.3 -9.5 Q19.75 -8.65 20.0 -8.45 20.5 -8.1 21.15 -7.75 21.55 -7.55 22.25 -7.2 23.5 -6.55 24.4 -5.45 L24.4 -4.0 23.6 -3.45 Q23.05 -3.1 22.8 -2.65 L22.8 -2.2 Q22.6 -2.15 22.45 -1.95 22.25 -1.7 21.95 -1.7 21.85 -1.7 21.45 -2.0 L20.65 -2.6 Q19.35 -3.5 18.35 -3.5 L17.55 -3.4 16.8 -3.3 Q16.45 -3.25 16.1 -2.65 15.75 -2.05 15.4 -2.05 15.1 -2.05 14.6 -2.3 14.1 -2.55 13.8 -2.55 13.65 -2.55 13.3 -2.4 12.9 -2.2 12.5 -1.9 11.35 -3.5 9.8 -3.9 L8.45 -4.05 7.05 -4.0 Q5.75 -4.0 4.65 -3.8 4.1 -3.7 3.15 -3.05 2.2 -2.35 2.1 -2.35 L0.4 -2.95 Q-1.25 -3.5 -1.7 -3.5 -2.75 -3.5 -3.9 -3.3 -4.1 -3.25 -5.15 -2.4 -6.15 -1.6 -6.3 -1.6 -6.6 -1.6 -7.35 -1.95 -8.1 -2.3 -8.75 -2.3 L-9.65 -2.3 Q-10.15 -2.25 -10.45 -2.1 -10.9 -1.95 -11.55 -1.4 L-12.25 -0.65 Q-13.35 -2.2 -14.9 -3.1 -16.25 -3.95 -17.35 -3.95 -17.25 -6.15 -18.85 -7.0 -19.2 -7.15 -20.15 -7.45 -20.85 -7.7 -21.1 -7.9 -20.95 -8.1 -20.15 -8.85 L-18.45 -10.3 Q-17.35 -11.25 -16.8 -11.95 L-16.95 -11.95 -15.45 -12.05 -14.5 -12.05 Q-13.8 -11.9 -13.4 -11.4 -14.1 -10.85 -14.9 -10.5 -15.25 -10.4 -16.4 -10.1 -17.35 -9.85 -17.9 -9.6 -18.7 -9.15 -19.35 -8.35 L-19.2 -7.45 Q-15.15 -5.4 -10.7 -4.9 L-6.65 -4.65 -2.55 -4.65 Q-0.35 -4.65 4.45 -5.05 8.95 -5.4 13.65 -5.4 L14.45 -5.45 15.05 -5.55 Q15.6 -5.65 16.05 -5.8 L16.05 -5.65 14.95 -5.4 16.1 -5.45 Q17.7 -5.65 18.1 -6.95 16.45 -9.4 14.0 -10.95 L12.0 -12.1 Q10.95 -12.7 10.25 -13.2 L10.05 -13.25 10.0 -13.4 10.1 -13.45 10.1 -13.5 Q10.2 -13.65 10.25 -13.7 L10.6 -13.55 10.95 -13.6 M31.85 7.65 Q31.9 7.8 31.9 7.95 31.7 7.85 31.5 7.65 L31.7 7.7 31.85 7.65" fill="#ffffff" fill-rule="evenodd" stroke="none"/>
    <path d="M10.95 -13.6 L11.2 -13.65 11.5 -13.65 Q12.55 -13.75 13.15 -14.05 L13.6 -14.25 13.7 -14.3 Q15.0 -14.8 16.05 -14.8 17.3 -14.8 18.1 -14.3 18.75 -13.9 19.45 -12.95 L20.95 -11.0 Q22.0 -9.65 23.35 -8.55 23.7 -8.25 25.3 -7.5 27.0 -6.7 27.75 -6.2 28.9 -5.35 28.9 -4.55 28.85 -3.55 27.05 -2.45 27.05 -1.4 27.35 -0.5 27.25 -0.35 27.2 -0.1 27.1 0.25 27.1 1.0 27.1 3.55 28.9 6.55 29.65 7.8 30.45 8.6 31.3 9.4 31.9 9.4 32.4 9.4 32.8 9.1 33.25 8.75 33.4 8.2 33.65 7.15 32.65 6.15 32.55 5.15 31.8 4.0 34.4 5.5 34.8 5.85 35.95 6.7 36.15 7.7 37.35 9.0 37.05 10.5 36.9 11.2 36.4 12.1 35.4 14.8 32.95 16.1 30.95 17.15 27.95 17.15 27.55 17.15 26.25 16.85 24.4 16.45 22.9 15.8 18.2 13.75 18.2 10.25 18.2 10.0 18.35 9.2 L18.5 7.9 Q18.7 7.55 18.9 7.45 19.35 10.1 22.55 11.8 23.8 12.45 25.25 12.85 26.4 13.2 26.85 13.2 27.3 13.2 27.8 12.75 L28.05 12.55 28.4 12.25 Q29.15 11.6 29.15 10.65 29.15 9.35 27.0 6.25 25.85 4.6 24.35 2.85 23.25 1.5 21.95 0.7 20.6 -0.1 19.4 -0.1 17.15 -0.1 15.15 1.15 12.55 2.75 12.25 5.55 L12.45 6.25 12.55 6.2 Q12.55 7.3 13.1 7.75 13.5 8.1 14.3 8.1 L14.55 8.15 15.1 8.1 15.4 7.95 15.45 8.2 15.5 8.3 Q15.65 8.45 15.7 8.75 L15.55 9.55 15.55 9.9 15.65 9.9 Q15.55 10.7 15.25 11.35 L15.25 11.4 15.15 11.5 Q14.95 11.85 14.65 12.1 14.3 12.45 13.6 12.75 L13.5 12.85 Q13.5 13.75 13.35 14.6 L13.2 16.1 Q12.8 16.65 11.6 16.65 10.95 16.65 10.55 16.1 10.3 15.75 9.95 14.85 9.55 13.95 9.3 13.55 8.9 12.95 8.2 12.8 7.25 12.65 6.5 12.15 5.1 11.15 5.1 9.0 5.1 8.55 5.5 6.9 5.65 6.65 5.7 6.55 5.8 6.45 5.95 6.45 6.15 7.15 6.4 7.45 6.7 7.75 7.4 7.75 L7.85 7.75 7.95 7.85 Q8.5 7.8 8.7 7.65 8.8 7.5 8.9 7.3 9.25 7.05 9.55 6.65 10.3 5.65 10.4 4.15 10.45 3.5 10.4 2.95 10.5 2.05 10.5 1.0 10.5 -1.75 9.15 -2.6 L9.1 -2.65 Q8.65 -2.9 8.1 -2.95 L7.75 -2.95 7.9 -2.85 7.0 -2.9 6.9 -2.9 6.85 -2.85 6.65 -2.85 6.4 -2.8 6.3 -2.75 Q5.65 -2.6 5.1 -2.3 4.35 -1.95 4.05 -1.75 3.8 -1.5 3.8 -1.3 3.75 -1.15 3.85 -0.65 L3.95 -0.1 Q6.35 3.15 5.1 4.65 4.3 5.6 2.2 5.6 1.2 5.6 0.3 5.2 -0.65 4.75 -1.55 3.8 -1.65 3.3 -1.75 3.05 L-1.75 2.95 -1.45 3.0 -0.35 3.2 Q0.75 3.2 1.25 2.5 1.75 1.85 1.6 0.95 1.4 0.0 0.7 -0.6 0.1 -1.15 -0.65 -1.25 -1.05 -1.45 -1.35 -1.45 -1.95 -1.45 -2.65 -1.1 L-3.3 -0.9 Q-5.15 -0.2 -5.15 1.25 -5.15 2.15 -4.55 2.75 -4.2 3.1 -3.85 3.2 L-3.85 3.3 Q-4.0 3.6 -4.05 3.9 L-4.25 4.05 Q-4.45 4.15 -4.75 4.15 -5.6 4.15 -6.3 3.95 -7.1 3.7 -7.3 3.25 -6.9 3.1 -6.6 2.75 -6.15 2.15 -6.2 1.35 -6.2 0.9 -6.35 0.55 L-6.35 0.5 -6.4 0.45 Q-6.55 0.15 -6.8 -0.05 -7.4 -0.7 -8.5 -0.7 L-8.85 -0.75 Q-9.5 -0.75 -10.15 -0.25 L-10.6 0.05 -10.7 0.1 Q-11.3 0.6 -11.65 1.25 -12.35 2.55 -12.35 4.65 -12.35 6.4 -11.3 7.4 -10.55 8.15 -9.85 8.15 L-9.1 8.1 Q-8.8 7.95 -8.35 7.25 -8.45 6.2 -8.65 5.65 -7.45 5.7 -6.4 6.75 -5.45 7.8 -5.1 9.25 -4.75 10.7 -5.3 11.7 -5.9 12.85 -7.5 12.85 -8.15 12.85 -9.0 12.4 -9.85 12.0 -10.35 12.0 -10.75 12.0 -11.1 12.1 -11.55 12.95 -12.2 13.6 -13.15 14.5 -14.05 14.5 -14.35 14.65 -14.75 14.7 -15.45 14.9 -17.0 14.9 -17.6 14.9 -18.35 14.65 -19.3 14.35 -20.1 13.8 -22.2 12.25 -22.2 9.4 -22.2 8.15 -21.8 7.65 -21.65 7.5 -21.4 7.35 L-21.0 7.15 Q-20.85 7.15 -20.7 7.3 L-20.7 7.65 Q-20.75 7.85 -20.75 8.05 -20.75 9.05 -20.1 9.85 -19.8 10.4 -19.25 10.8 -18.55 11.3 -17.65 11.45 -17.05 11.6 -16.5 11.6 -15.3 11.6 -14.75 11.4 -13.55 10.85 -13.2 9.15 L-13.35 8.9 Q-13.4 7.85 -13.85 6.7 -14.35 5.4 -14.35 4.75 -14.35 4.2 -13.9 3.2 -13.45 2.25 -13.45 2.0 -13.45 0.25 -15.5 -1.2 -16.25 -1.7 -17.05 -2.05 L-17.25 -2.1 -17.3 -2.15 -18.2 -2.35 -18.3 -2.5 Q-18.55 -2.75 -18.8 -2.75 -18.95 -2.75 -19.5 -2.15 L-19.85 -1.85 Q-20.4 -1.35 -21.05 -1.0 -22.5 -0.2 -22.9 0.3 -23.45 1.0 -23.45 2.35 -23.45 4.15 -22.6 5.25 -22.1 5.9 -21.5 6.1 L-21.55 6.35 Q-22.2 7.1 -23.2 7.5 -24.25 7.9 -24.85 8.5 L-24.95 10.35 Q-25.55 11.2 -26.15 11.4 L-27.25 11.45 Q-29.05 11.45 -30.35 8.55 -30.85 7.5 -31.15 6.3 -31.45 5.25 -31.45 4.75 -31.45 2.4 -30.7 1.4 -30.45 1.05 -30.1 0.9 -30.05 2.15 -29.25 3.05 -28.55 3.8 -27.85 3.8 L-26.9 3.65 Q-25.9 3.5 -25.65 3.25 -24.7 1.55 -25.1 0.4 L-25.1 0.15 Q-24.95 -0.8 -24.5 -1.25 -24.2 -1.55 -23.5 -1.75 -22.7 -2.05 -22.35 -2.25 -22.05 -2.45 -21.8 -2.75 -21.2 -2.85 -20.85 -3.45 -20.4 -4.1 -20.45 -5.0 -20.5 -5.4 -20.65 -5.75 -20.8 -6.2 -21.2 -6.55 L-21.3 -6.65 -22.85 -7.2 -23.25 -7.25 -23.5 -7.25 Q-23.65 -7.35 -23.65 -7.4 -23.65 -8.05 -22.6 -8.75 L-22.25 -8.95 -21.8 -9.2 Q-20.2 -10.7 -18.8 -11.35 L-18.45 -11.5 -18.0 -11.65 -16.95 -11.95 -16.8 -11.95 Q-17.35 -11.25 -18.45 -10.3 L-20.15 -8.85 Q-20.95 -8.1 -21.1 -7.9 -20.85 -7.7 -20.15 -7.45 -19.2 -7.15 -18.85 -7.0 -17.25 -6.15 -17.35 -3.95 -16.25 -3.95 -14.9 -3.1 -13.35 -2.2 -12.25 -0.65 L-11.55 -1.4 Q-10.9 -1.95 -10.45 -2.1 -10.15 -2.25 -9.65 -2.3 L-8.75 -2.3 Q-8.1 -2.3 -7.35 -1.95 -6.6 -1.6 -6.3 -1.6 -6.15 -1.6 -5.15 -2.4 -4.1 -3.25 -3.9 -3.3 -2.75 -3.5 -1.7 -3.5 -1.25 -3.5 0.4 -2.95 L2.1 -2.35 Q2.2 -2.35 3.15 -3.05 4.1 -3.7 4.65 -3.8 5.75 -4.0 7.05 -4.0 L8.45 -4.05 9.8 -3.9 Q11.35 -3.5 12.5 -1.9 12.9 -2.2 13.3 -2.4 13.65 -2.55 13.8 -2.55 14.1 -2.55 14.6 -2.3 15.1 -2.05 15.4 -2.05 15.75 -2.05 16.1 -2.65 16.45 -3.25 16.8 -3.3 L17.55 -3.4 18.35 -3.5 Q19.35 -3.5 20.65 -2.6 L21.45 -2.0 Q21.85 -1.7 21.95 -1.7 22.25 -1.7 22.45 -1.95 22.6 -2.15 22.8 -2.2 L22.8 -2.65 Q23.05 -3.1 23.6 -3.45 L24.4 -4.0 24.4 -5.45 Q23.5 -6.55 22.25 -7.2 21.55 -7.55 21.15 -7.75 20.5 -8.1 20.0 -8.45 19.75 -8.65 19.3 -9.5 L18.45 -11.1 Q17.25 -13.3 16.25 -13.3 15.95 -13.3 14.85 -13.05 13.75 -12.8 13.45 -12.8 13.1 -12.8 12.0 -13.2 11.3 -13.4 10.95 -13.6 M3.65 0.85 L3.65 0.85 M4.1 1.85 L3.95 1.6 4.55 2.85 Q4.5 2.4 4.1 1.85" fill="#d08ae6" fill-rule="evenodd" stroke="none"/>
  </g>
</svg>
