<?xml version="1.0" encoding="UTF-8" standalone="no"?>
<svg xmlns:ffdec="https://www.free-decompiler.com/flash" xmlns:xlink="http://www.w3.org/1999/xlink" ffdec:objectType="shape" height="21.35px" width="34.95px" xmlns="http://www.w3.org/2000/svg">
  <g transform="matrix(1.0, 0.0, 0.0, 1.0, 18.55, 16.5)">
    <path d="M13.95 -16.35 Q14.0 -16.35 14.1 -16.4 L14.2 -16.5 Q14.35 -16.2 14.75 -16.0 15.25 -15.75 15.4 -15.5 L15.4 -15.25 Q15.5 -15.0 15.75 -14.8 16.1 -14.75 16.3 -14.45 L16.4 -14.1 Q16.45 -13.85 16.3 -13.65 16.15 -13.4 15.9 -13.4 L15.65 -13.4 15.0 -13.45 14.95 -13.3 14.95 -13.0 Q14.9 -12.95 14.5 -12.75 L14.05 -12.5 Q13.9 -12.5 13.5 -12.7 L13.1 -12.9 13.1 -13.05 13.65 -13.1 Q13.95 -13.1 14.15 -13.2 L14.2 -13.25 14.25 -13.5 14.3 -13.8 Q14.45 -13.95 15.1 -14.2 L15.1 -14.85 Q15.0 -15.0 14.8 -15.05 L14.65 -15.35 Q14.45 -15.65 14.5 -15.75 L14.2 -15.9 Q14.0 -16.05 13.95 -16.35 M5.55 -7.5 L5.7 -6.8 5.75 -6.75 Q5.85 -6.55 5.95 -5.45 6.0 -5.15 6.2 -4.45 6.45 -3.65 6.65 -3.45 6.85 -3.2 7.45 -2.8 8.05 -2.45 8.25 -2.15 L8.2 -1.9 8.2 -1.85 8.0 -1.85 Q7.85 -1.85 7.05 -2.15 L6.0 -2.5 Q5.95 -2.65 5.95 -2.4 5.95 -2.2 6.2 -1.9 L6.5 -1.45 6.5 -1.25 Q6.5 -1.05 6.45 -0.85 L6.25 -0.7 Q6.15 -0.6 6.0 -0.6 5.8 -0.55 5.7 -0.55 L5.55 -0.6 Q5.35 -0.7 5.2 -0.85 5.1 -0.85 5.0 -0.75 L4.9 -0.25 Q4.9 0.0 5.05 0.25 L5.2 0.5 5.2 0.8 5.15 1.0 4.8 0.95 4.75 0.95 4.65 1.0 4.55 0.9 4.4 0.9 Q4.35 0.9 4.3 1.0 L4.2 1.25 Q4.1 1.4 3.95 1.5 L3.95 1.6 Q3.95 2.05 4.1 2.3 4.2 2.5 4.2 2.7 L4.05 2.75 Q3.4 2.25 3.25 1.95 3.25 1.6 3.35 1.4 L3.35 1.35 Q3.45 0.9 3.9 0.05 4.25 -0.7 4.45 -1.75 4.55 -2.25 4.9 -3.05 5.25 -3.85 5.4 -4.75 5.4 -5.8 5.3 -6.7 L5.2 -7.9 Q5.15 -8.35 5.55 -7.5 M5.7 -4.7 L5.65 -4.4 5.75 -4.45 5.7 -4.7 M5.55 -3.3 L5.6 -3.4 5.65 -3.45 5.55 -3.65 5.5 -3.4 5.5 -3.2 5.55 -3.3 M5.0 -2.55 Q4.95 -2.3 4.9 -2.25 L4.9 -2.05 5.0 -2.55 M5.2 -1.25 L5.1 -1.15 Q5.2 -1.0 5.35 -0.95 5.25 -1.05 5.2 -1.25 M10.8 -0.1 Q11.05 0.0 11.15 0.15 L11.35 0.1 11.4 -0.55 11.8 -0.55 12.2 -0.5 Q12.45 -0.5 12.4 -0.55 12.4 -0.6 12.45 -0.6 L12.45 -0.9 Q12.35 -1.0 12.1 -1.35 11.85 -1.7 11.85 -1.75 L11.85 -2.05 11.8 -2.25 11.85 -2.5 11.95 -2.3 12.0 -2.3 Q12.15 -2.3 12.3 -2.0 12.5 -1.65 12.75 -1.45 L12.9 -1.35 13.25 -1.2 Q13.45 -1.05 13.5 -0.85 13.65 -0.65 13.55 -0.45 L13.5 -0.2 Q13.45 -0.05 13.15 0.1 L12.8 0.05 12.35 0.0 12.2 0.05 12.25 0.45 Q12.25 0.7 12.05 0.9 11.9 1.0 11.5 1.0 10.95 1.0 10.4 0.5 9.85 0.05 9.55 -0.7 L9.6 -0.75 9.75 -0.8 Q9.9 -0.8 10.2 -0.6 10.45 -0.35 10.55 -0.15 L10.8 -0.1 M14.45 -13.65 L14.55 -13.75 14.45 -13.75 14.45 -13.65 M13.5 -12.85 L13.75 -12.75 13.7 -12.85 13.5 -12.85 M14.4 -12.9 L14.6 -13.05 14.45 -12.9 14.4 -12.9 M14.0 -12.65 Q14.05 -12.65 14.15 -12.7 L14.0 -12.65 M15.6 -8.2 Q15.9 -8.1 16.0 -7.9 L15.95 -7.6 15.65 -7.3 Q15.65 -7.15 15.75 -7.1 L15.85 -7.0 15.75 -6.9 15.5 -6.85 15.15 -6.9 Q14.95 -6.95 14.9 -7.2 L15.15 -7.35 Q15.35 -7.45 15.45 -7.6 L15.2 -7.8 Q15.05 -7.9 14.95 -8.05 L14.95 -8.2 Q14.95 -8.35 15.0 -8.35 L15.05 -8.35 14.85 -8.5 14.85 -8.55 Q14.9 -8.55 15.2 -8.4 15.45 -8.25 15.6 -8.25 L15.6 -8.2 M14.05 -6.25 L13.95 -6.1 13.85 -6.05 13.45 -6.1 13.4 -6.2 Q13.35 -6.3 13.35 -6.45 13.35 -6.55 13.45 -6.65 L13.7 -6.95 13.85 -6.95 Q14.0 -6.95 14.05 -6.7 L14.05 -6.25 M3.9 0.9 L3.95 0.7 3.85 0.9 3.9 0.9" fill="#a06bb3" fill-rule="evenodd" stroke="none"/>
    <path d="M-18.2 1.95 Q-18.3 2.15 -18.45 2.2 L-18.55 2.1 -18.55 1.9 Q-18.5 1.75 -18.35 1.75 -18.2 1.75 -18.2 1.8 L-18.2 1.95 M-9.55 3.4 L-9.1 3.4 Q-9.05 3.55 -8.95 4.2 -8.9 4.5 -8.6 4.5 -8.45 4.5 -8.15 4.3 -7.75 4.15 -7.6 4.1 L-7.55 4.25 Q-7.7 4.4 -8.5 4.65 -9.25 4.85 -9.55 4.85 -9.7 4.85 -9.85 4.75 -10.0 4.6 -10.0 4.35 -10.0 4.2 -9.75 4.1 -9.5 4.05 -9.5 3.9 L-9.55 3.4 M-6.85 1.4 L-6.9 1.15 -7.15 1.05 -7.3 0.3 -7.35 -0.05 -7.15 0.1 Q-7.0 0.2 -6.95 0.4 L-6.9 0.85 -6.6 1.15 Q-6.5 1.2 -6.4 1.35 -6.2 1.55 -6.05 1.55 L-5.75 1.55 Q-5.8 1.65 -6.15 2.0 -6.55 2.35 -6.7 2.35 -6.95 2.35 -6.8 2.3 L-6.85 2.15 Q-6.85 1.8 -6.85 1.4 M-8.15 -2.15 L-8.1 -1.85 Q-8.1 -1.7 -8.2 -1.6 L-8.35 -1.5 Q-8.4 -1.5 -8.5 -1.6 -8.6 -1.65 -8.65 -1.7 L-8.7 -2.25 Q-8.7 -2.6 -8.6 -2.8 L-8.45 -2.8 Q-8.35 -2.8 -8.25 -2.65 L-8.15 -2.15" fill="#a06bb3" fill-rule="evenodd" stroke="none"/>
  </g>
</svg>
