<?xml version="1.0" encoding="UTF-8" standalone="no"?>
<svg xmlns:ffdec="https://www.free-decompiler.com/flash" xmlns:xlink="http://www.w3.org/1999/xlink" ffdec:objectType="shape" height="2.7px" width="8.75px" xmlns="http://www.w3.org/2000/svg">
  <g transform="matrix(1.0, 0.0, 0.0, 1.0, 4.35, 2.4)">
    <path d="M-3.75 -1.35 L-4.35 -1.35 Q-4.15 -1.7 -3.15 -1.95 -2.25 -2.15 -1.05 -2.25 L-1.85 -2.25 -1.9 -2.2 -1.95 -2.2 -2.25 -2.25 -2.2 -2.3 -1.95 -2.3 -1.85 -2.35 -1.8 -2.35 -0.6 -2.4 1.1 -2.4 Q1.75 -2.45 2.3 -2.25 L2.25 -2.25 2.05 -2.2 1.45 -2.2 Q2.4 -2.15 3.15 -1.95 4.15 -1.7 4.4 -1.35 L4.05 -1.35 3.7 -1.35 3.65 -1.35 Q3.45 -1.6 2.65 -1.75 L2.45 -1.8 1.8 -1.9 1.65 -1.9 1.3 -1.95 0.0 -2.0 Q-1.5 -2.0 -2.6 -1.75 L-2.85 -1.7 Q-3.45 -1.55 -3.6 -1.35 L-3.65 -1.35 -3.75 -1.35 M1.4 -0.05 L1.55 0.0 Q0.5 0.25 -0.6 0.25 L-0.7 0.3 -1.95 0.2 -1.9 0.15 -0.65 0.05 -0.55 0.05 1.15 -0.1 1.4 -0.05" fill="#211f1a" fill-rule="evenodd" stroke="none"/>
    <path d="M-3.65 -1.35 L-3.6 -1.35 Q-3.45 -1.55 -2.85 -1.7 L-2.7 -1.45 -2.5 -1.25 -2.45 -1.3 -2.4 -1.3 -2.2 -1.35 -1.8 -1.5 -1.65 -1.5 -1.6 -1.6 -1.55 -1.55 0.65 -1.55 0.7 -1.5 0.85 -1.5 1.3 -1.95 1.65 -1.9 1.8 -1.9 1.25 -1.45 1.75 -1.4 1.9 -1.35 2.0 -1.4 2.0 -1.45 2.05 -1.5 2.45 -1.8 2.65 -1.75 Q3.45 -1.6 3.65 -1.35 L3.7 -1.35 3.7 -1.3 3.75 -1.3 Q3.85 -1.25 3.9 -1.15 L3.9 -1.1 3.85 -1.05 3.75 -1.0 3.7 -1.0 3.6 -0.95 3.45 -0.9 3.4 -0.85 3.35 -0.85 3.3 -0.8 3.2 -0.8 3.2 -0.75 Q3.05 -0.6 2.8 -0.5 L2.75 -0.5 2.4 -0.45 2.45 -0.45 2.65 -0.5 2.75 -0.6 2.75 -0.65 2.65 -0.75 2.55 -0.8 2.3 -0.8 2.25 -0.85 1.25 -0.95 -0.25 -1.0 -0.45 -0.95 -0.75 -0.9 -1.15 -0.85 -1.9 -0.7 -2.3 -0.55 -1.9 -0.5 -1.6 -0.6 -0.35 -0.75 0.35 -0.8 -0.9 -0.6 -1.5 -0.45 -3.05 -0.7 -3.1 -0.65 -3.15 -0.7 -3.25 -0.7 Q-3.5 -0.8 -3.75 -0.9 L-3.8 -0.95 -3.8 -1.15 -3.6 -1.05 -3.65 -1.1 -3.65 -1.35 M2.85 -1.0 L2.9 -0.95 Q2.9 -0.9 2.95 -0.9 L3.1 -0.9 3.2 -1.0 3.2 -1.05 3.1 -1.15 3.0 -1.2 Q2.9 -1.2 2.85 -1.1 L2.85 -1.0 M2.2 -1.4 L2.15 -1.35 2.15 -1.3 2.3 -1.3 2.4 -1.25 2.4 -1.35 2.35 -1.4 2.2 -1.4 M-2.15 -1.0 L-2.1 -1.0 -1.95 -1.05 -1.5 -1.15 -0.75 -1.35 Q-1.4 -1.4 -2.0 -1.2 -2.45 -1.1 -2.8 -0.8 L-2.55 -0.8 -2.45 -0.9 -2.15 -1.0" fill="#595647" fill-rule="evenodd" stroke="none"/>
    <path d="M-3.75 -1.35 L-3.65 -1.35 -3.65 -1.1 -3.6 -1.05 -3.8 -1.15 -3.85 -1.2 -3.85 -1.3 -3.8 -1.3 -3.75 -1.35 M-2.85 -1.7 L-2.6 -1.75 Q-1.5 -2.0 0.0 -2.0 L1.3 -1.95 0.85 -1.5 0.7 -1.5 0.65 -1.55 -1.55 -1.55 -1.6 -1.6 -1.65 -1.5 -1.8 -1.5 -2.2 -1.35 -2.4 -1.3 -2.45 -1.3 -2.5 -1.25 -2.7 -1.45 -2.85 -1.7 M1.8 -1.9 L2.45 -1.8 2.05 -1.5 2.0 -1.45 2.0 -1.4 1.9 -1.35 1.75 -1.4 1.25 -1.45 1.8 -1.9 M3.7 -1.35 L4.05 -1.35 4.15 -1.25 4.15 -1.2 4.1 -1.15 4.1 -1.1 4.05 -1.1 4.05 -1.05 3.85 -1.05 3.9 -1.1 3.9 -1.15 Q3.85 -1.25 3.75 -1.3 L3.7 -1.3 3.7 -1.35 M3.7 -1.0 L3.65 -0.95 3.65 -0.9 3.6 -0.8 3.5 -0.7 Q3.15 -0.55 2.8 -0.5 3.05 -0.6 3.2 -0.75 L3.2 -0.8 3.3 -0.8 3.35 -0.85 3.4 -0.85 3.45 -0.9 3.6 -0.95 3.7 -1.0 M2.2 -1.4 L2.35 -1.4 2.4 -1.35 2.4 -1.25 2.3 -1.3 2.15 -1.3 2.15 -1.35 2.2 -1.4 M2.85 -1.0 L2.85 -1.1 Q2.9 -1.2 3.0 -1.2 L3.1 -1.15 3.2 -1.05 3.2 -1.0 3.1 -0.9 2.95 -0.9 Q2.9 -0.9 2.9 -0.95 L2.85 -1.0 M-2.15 -1.0 L-2.45 -0.9 -2.55 -0.8 -2.8 -0.8 Q-2.45 -1.1 -2.0 -1.2 -1.4 -1.4 -0.75 -1.35 L-1.5 -1.15 -1.95 -1.05 -2.1 -1.0 -2.15 -1.0" fill="#73705c" fill-rule="evenodd" stroke="none"/>
    <path d="M2.4 -0.45 L1.1 -0.3 0.9 -0.3 0.5 -0.3 Q-0.3 -0.3 -1.1 -0.3 L-1.15 -0.25 -1.25 -0.3 -1.25 -0.45 -1.5 -0.45 -0.9 -0.6 0.35 -0.8 -0.35 -0.75 -1.6 -0.6 -1.9 -0.5 -2.3 -0.55 -1.9 -0.7 -1.15 -0.85 -0.75 -0.9 -0.45 -0.95 -0.25 -1.0 1.25 -0.95 2.25 -0.85 2.3 -0.8 2.55 -0.8 2.65 -0.75 2.75 -0.65 2.75 -0.6 2.65 -0.5 2.45 -0.45 2.4 -0.45" fill="#403d33" fill-rule="evenodd" stroke="none"/>
    <path d="M0.9 -0.3 L1.0 -0.25 Q1.0 -0.1 0.55 -0.1 L-0.05 -0.05 -1.25 0.0 -1.55 0.0 -1.9 -0.05 0.05 -0.25 0.45 -0.3 0.5 -0.3 0.9 -0.3" fill="#111111" fill-rule="evenodd" stroke="none"/>
  </g>
</svg>
