<?xml version="1.0" encoding="UTF-8" standalone="no"?>
<svg xmlns:ffdec="https://www.free-decompiler.com/flash" xmlns:xlink="http://www.w3.org/1999/xlink" ffdec:objectType="shape" height="11.9px" width="11.85px" xmlns="http://www.w3.org/2000/svg">
  <g transform="matrix(1.0, 0.0, 0.0, 1.0, 5.85, 11.9)">
    <path d="M2.45 -11.45 L3.9 -9.6 5.05 -8.35 Q6.0 -7.25 6.0 -7.05 L6.0 -6.75 Q6.0 -6.45 5.65 -4.85 5.4 -3.6 5.2 -3.2 L5.2 -3.05 Q5.2 -3.0 4.55 -2.5 3.9 -1.95 3.05 -1.4 1.55 -0.35 0.75 -0.05 L0.7 -0.05 0.7 0.0 0.5 -0.1 Q-0.25 -0.4 -1.25 -0.65 -2.15 -0.9 -2.8 -0.95 -3.1 -1.15 -3.15 -1.3 -3.7 -1.75 -5.85 -4.65 -5.85 -4.8 -5.45 -6.15 -5.1 -7.3 -5.0 -7.7 -4.9 -7.95 -4.75 -8.4 L-4.55 -9.2 -4.5 -9.55 Q-4.45 -9.85 -4.4 -10.0 -4.3 -10.25 -4.15 -10.2 L-3.7 -10.5 Q-3.05 -10.85 -2.45 -11.2 L-2.25 -11.25 Q-1.9 -11.45 -1.6 -11.6 -0.85 -11.9 -0.65 -11.85 L-0.55 -11.9 0.3 -11.75 2.3 -11.6 2.45 -11.45 M2.4 -8.65 Q2.75 -8.9 2.75 -9.1 2.75 -9.35 2.6 -9.65 2.55 -9.75 2.5 -9.85 2.05 -10.35 1.75 -10.5 L1.65 -10.65 1.55 -10.65 1.15 -10.75 0.15 -10.85 Q-0.2 -10.7 -0.2 -10.5 L-0.2 -10.1 -0.25 -9.8 -0.25 -9.75 -0.2 -9.45 -0.1 -8.85 -0.05 -8.6 0.05 -8.4 0.25 -8.3 0.8 -8.05 1.15 -8.05 Q1.5 -8.25 1.9 -8.45 L1.95 -8.45 2.1 -8.5 2.3 -8.55 2.3 -8.6 2.4 -8.65 M3.9 -4.85 Q4.35 -4.95 4.7 -5.05 L4.75 -5.1 4.95 -5.9 5.0 -6.2 4.95 -6.25 4.95 -6.3 4.35 -7.25 3.95 -7.85 Q3.8 -7.95 3.4 -7.95 L3.2 -7.95 3.15 -7.9 2.7 -7.85 2.55 -7.8 2.5 -7.8 Q1.35 -7.35 0.85 -7.25 L0.6 -7.1 Q0.0 -6.75 0.0 -6.4 0.0 -6.3 0.05 -6.2 L0.2 -5.9 Q0.3 -5.75 0.45 -5.65 L0.6 -5.4 1.0 -5.0 1.35 -4.85 1.8 -4.65 2.4 -4.65 3.4 -4.75 3.9 -4.85 M0.55 -2.8 L0.65 -3.4 0.65 -3.6 0.5 -4.05 0.35 -4.3 0.35 -4.35 0.25 -4.55 Q0.05 -4.9 -0.2 -5.2 L-0.6 -5.55 -1.0 -5.8 -1.25 -5.9 -1.35 -5.9 -2.05 -5.65 -2.2 -5.6 -2.4 -5.5 -2.7 -5.4 -3.05 -5.3 -3.15 -5.2 -3.7 -4.85 -4.1 -4.55 -4.1 -4.4 Q-4.1 -4.3 -4.0 -3.9 L-3.0 -2.8 Q-2.45 -2.15 -2.2 -1.85 L-1.9 -1.7 Q-1.55 -1.6 -1.35 -1.6 L-0.25 -1.45 -0.2 -1.45 Q0.05 -1.55 0.1 -1.6 L0.35 -1.85 0.4 -2.25 0.5 -2.45 0.55 -2.8 M1.4 -5.35 L1.4 -5.35 M1.4 -2.7 Q1.45 -2.5 1.5 -2.35 1.55 -2.15 1.65 -2.0 L1.8 -1.75 Q2.25 -2.05 2.85 -2.55 L3.3 -2.9 Q3.35 -3.05 3.45 -3.2 3.65 -3.45 3.65 -3.6 3.65 -3.8 3.4 -3.9 L3.3 -3.95 2.65 -4.0 1.95 -4.0 1.7 -3.95 1.65 -3.8 Q1.5 -3.45 1.4 -3.15 L1.4 -2.9 Q1.4 -2.8 1.4 -2.7 M-1.2 -9.8 L-1.25 -9.85 -1.25 -9.9 Q-1.4 -10.1 -1.65 -10.25 L-1.95 -10.4 -2.0 -10.4 Q-2.6 -10.15 -3.05 -9.8 -3.55 -9.5 -3.55 -9.35 L-3.55 -9.3 Q-3.75 -8.55 -4.1 -7.05 L-4.1 -6.95 Q-4.05 -6.8 -4.05 -6.6 -4.1 -6.05 -4.1 -5.9 L-3.9 -5.9 Q-3.4 -5.9 -2.9 -6.05 L-2.6 -6.15 -2.0 -6.4 -1.95 -6.45 Q-1.55 -6.65 -1.3 -6.9 -1.05 -7.0 -0.85 -7.3 -0.6 -7.65 -0.6 -7.9 L-0.65 -8.25 -0.7 -8.4 Q-0.75 -8.7 -0.8 -8.95 L-0.85 -9.0 -0.85 -9.1 -1.0 -9.5 -1.1 -9.7 -1.2 -9.8" fill="#ffe700" fill-rule="evenodd" stroke="none"/>
    <path d="M0.15 -9.3 Q0.15 -9.65 0.5 -9.65 0.65 -9.65 0.75 -9.55 L1.55 -9.5 Q1.8 -9.5 1.95 -9.25 2.05 -9.15 2.05 -9.0 2.05 -8.8 1.6 -8.5 1.2 -8.25 0.9 -8.25 0.6 -8.25 0.4 -8.7 L0.3 -8.95 Q0.2 -9.0 0.15 -9.1 L0.15 -9.3 M3.8 -6.0 Q3.8 -5.8 3.3 -5.3 2.8 -4.75 2.45 -4.75 1.7 -4.75 1.0 -5.45 0.75 -5.7 0.6 -6.0 0.45 -6.25 0.45 -6.4 0.45 -6.6 0.65 -6.75 0.8 -6.95 1.1 -7.0 1.35 -7.05 1.55 -6.95 L1.7 -7.15 Q1.9 -7.35 2.25 -7.4 2.55 -7.5 2.75 -7.3 3.0 -7.1 3.0 -6.65 3.0 -6.45 2.85 -6.25 2.65 -5.95 2.3 -5.95 1.8 -5.95 1.55 -6.25 L1.6 -6.25 1.2 -5.85 1.25 -5.8 Q1.2 -5.8 1.3 -5.8 1.35 -5.8 1.5 -5.85 1.65 -5.9 1.7 -5.9 L2.0 -5.8 Q2.25 -5.7 2.35 -5.7 L2.6 -5.75 3.05 -5.75 3.1 -6.2 Q3.15 -6.55 3.4 -6.55 3.65 -6.55 3.75 -6.3 L3.8 -6.0 M1.4 -5.35 L1.4 -5.35 M2.2 -3.65 Q2.2 -3.55 2.1 -3.4 2.0 -3.3 1.9 -3.3 1.7 -3.3 1.65 -3.45 L1.65 -3.6 Q1.65 -3.9 1.9 -3.9 2.2 -3.9 2.2 -3.65 M0.0 -3.15 Q0.0 -2.95 -0.35 -2.7 -0.7 -2.5 -1.0 -2.5 -1.25 -2.5 -1.6 -3.2 L-1.85 -3.9 Q-1.7 -4.3 -1.6 -4.5 -1.85 -4.55 -2.0 -4.8 -2.1 -4.95 -2.1 -5.1 -2.1 -5.35 -1.95 -5.5 -1.8 -5.6 -1.55 -5.6 -1.35 -5.65 -1.2 -5.5 -1.05 -5.4 -1.05 -5.2 -1.05 -5.05 -1.1 -4.9 -0.9 -4.85 -0.7 -4.55 -0.6 -4.35 -0.3 -3.9 -0.15 -4.1 -0.15 -4.15 -0.15 -4.25 -0.45 -4.65 L-0.8 -5.15 -0.7 -5.15 Q-0.35 -5.15 0.0 -4.4 0.2 -4.05 0.3 -3.65 0.3 -3.5 0.0 -3.15 M-1.2 -8.85 Q-0.95 -8.65 -0.95 -8.05 -0.95 -7.7 -1.15 -7.35 -1.45 -6.75 -2.1 -6.75 -2.4 -6.75 -2.5 -7.05 -2.55 -7.2 -2.5 -7.4 -2.5 -7.85 -2.25 -8.3 -2.05 -8.65 -1.75 -8.85 -1.45 -9.0 -1.2 -8.85" fill="#ffcc00" fill-rule="evenodd" stroke="none"/>
    <path d="M-0.25 -9.8 L-0.2 -10.1 -0.2 -10.5 Q-0.2 -10.7 0.15 -10.85 L1.15 -10.75 1.55 -10.65 1.65 -10.65 1.75 -10.5 Q2.05 -10.35 2.5 -9.85 2.55 -9.75 2.6 -9.65 2.75 -9.35 2.75 -9.1 2.75 -8.9 2.4 -8.65 L2.45 -8.7 2.45 -8.75 Q2.45 -9.3 1.95 -9.8 1.5 -10.3 0.95 -10.4 0.3 -10.55 -0.1 -10.0 L-0.25 -9.8 M2.7 -7.85 L3.15 -7.9 3.2 -7.95 3.4 -7.95 Q3.8 -7.95 3.95 -7.85 L4.35 -7.25 4.95 -6.3 4.95 -6.25 5.0 -6.2 4.95 -5.9 4.75 -5.1 4.7 -5.05 Q4.35 -4.95 3.9 -4.85 4.4 -5.3 4.4 -5.5 4.4 -6.6 3.7 -7.25 3.3 -7.65 2.7 -7.85 M0.5 -2.45 L0.4 -2.25 0.35 -1.85 0.1 -1.6 Q0.05 -1.55 -0.2 -1.45 L-0.25 -1.45 -1.35 -1.6 Q-1.55 -1.6 -1.9 -1.7 L-2.2 -1.85 Q-2.45 -2.15 -3.0 -2.8 L-4.0 -3.9 Q-4.1 -4.3 -4.1 -4.4 L-4.1 -4.55 -3.7 -4.85 Q-3.7 -4.7 -3.5 -4.35 -3.25 -3.85 -2.9 -3.45 L-2.7 -3.25 Q-2.1 -2.1 -1.35 -2.1 -0.1 -2.1 0.5 -2.45 M1.5 -2.35 Q1.6 -2.3 1.65 -2.3 1.95 -2.3 2.65 -2.95 3.3 -3.6 3.3 -3.75 L3.3 -3.95 3.4 -3.9 Q3.65 -3.8 3.65 -3.6 3.65 -3.45 3.45 -3.2 3.35 -3.05 3.3 -2.9 L2.85 -2.55 Q2.25 -2.05 1.8 -1.75 L1.65 -2.0 Q1.55 -2.15 1.5 -2.35 M-2.9 -6.05 Q-3.4 -5.9 -3.9 -5.9 L-4.1 -5.9 Q-4.1 -6.05 -4.05 -6.6 -4.05 -6.8 -4.1 -6.95 L-4.1 -7.05 Q-3.75 -8.55 -3.55 -9.3 L-3.55 -9.35 Q-3.55 -9.5 -3.05 -9.8 -2.6 -10.15 -2.0 -10.4 L-1.95 -10.4 -1.65 -10.25 Q-1.4 -10.1 -1.25 -9.9 L-1.25 -9.85 -1.2 -9.8 -1.35 -9.75 -1.35 -9.8 Q-1.8 -9.95 -2.25 -9.85 -2.85 -9.75 -3.15 -9.3 -3.6 -8.7 -3.6 -7.65 -3.6 -7.25 -3.5 -6.85 -3.35 -6.15 -3.0 -6.1 L-2.9 -6.05" fill="#b30000" fill-rule="evenodd" stroke="none"/>
    <path d="M0.15 -9.3 L0.15 -9.1 Q0.2 -9.0 0.3 -8.95 L0.4 -8.7 Q0.6 -8.25 0.9 -8.25 1.2 -8.25 1.6 -8.5 2.05 -8.8 2.05 -9.0 2.05 -9.15 1.95 -9.25 1.8 -9.5 1.55 -9.5 L0.75 -9.55 Q0.65 -9.65 0.5 -9.65 0.15 -9.65 0.15 -9.3 M2.1 -8.5 L1.95 -8.45 1.9 -8.45 Q1.5 -8.25 1.15 -8.05 L0.8 -8.05 0.25 -8.3 0.05 -8.4 -0.05 -8.6 -0.1 -8.85 -0.2 -9.45 -0.05 -9.6 Q0.3 -9.95 0.9 -9.9 1.4 -9.85 1.8 -9.55 2.25 -9.25 2.25 -8.85 2.25 -8.75 2.1 -8.5 M3.4 -4.75 L2.4 -4.65 1.8 -4.65 1.35 -4.85 1.0 -5.0 0.6 -5.4 0.45 -5.65 Q0.3 -5.75 0.2 -5.9 L0.05 -6.2 Q0.0 -6.3 0.0 -6.4 0.0 -6.75 0.6 -7.1 L0.85 -7.25 Q1.35 -7.35 2.5 -7.8 L2.55 -7.8 3.15 -7.35 Q4.05 -6.65 4.05 -6.3 4.05 -5.7 3.55 -4.95 L3.4 -4.75 M3.8 -6.0 L3.75 -6.3 Q3.65 -6.55 3.4 -6.55 3.15 -6.55 3.1 -6.2 L3.05 -5.75 2.6 -5.75 2.35 -5.7 Q2.25 -5.7 2.0 -5.8 L1.7 -5.9 Q1.65 -5.9 1.5 -5.85 1.35 -5.8 1.3 -5.8 1.2 -5.8 1.25 -5.8 L1.2 -5.85 1.6 -6.25 1.55 -6.25 Q1.8 -5.95 2.3 -5.95 2.65 -5.95 2.85 -6.25 3.0 -6.45 3.0 -6.65 3.0 -7.1 2.75 -7.3 2.55 -7.5 2.25 -7.4 1.9 -7.35 1.7 -7.15 L1.55 -6.95 Q1.35 -7.05 1.1 -7.0 0.8 -6.95 0.65 -6.75 0.45 -6.6 0.45 -6.4 0.45 -6.25 0.6 -6.0 0.75 -5.7 1.0 -5.45 1.7 -4.75 2.45 -4.75 2.8 -4.75 3.3 -5.3 3.8 -5.8 3.8 -6.0 M-2.4 -5.5 L-2.2 -5.6 -2.05 -5.65 -1.35 -5.9 -1.25 -5.9 -1.0 -5.8 -0.6 -5.55 -0.2 -5.2 Q0.05 -4.9 0.25 -4.55 L0.35 -4.35 0.35 -4.3 0.5 -4.05 0.65 -3.6 0.65 -3.4 0.55 -2.8 Q-0.2 -2.25 -1.35 -2.25 -1.65 -2.25 -2.2 -3.45 -2.65 -4.55 -2.65 -4.7 -2.65 -4.8 -2.4 -5.5 M2.65 -4.0 L2.6 -3.9 Q2.4 -3.6 2.15 -3.3 1.8 -2.9 1.4 -2.7 1.4 -2.8 1.4 -2.9 L1.4 -3.15 Q1.5 -3.45 1.65 -3.8 L1.7 -3.95 1.95 -4.0 2.65 -4.0 M0.0 -3.15 Q0.3 -3.5 0.3 -3.65 0.2 -4.05 0.0 -4.4 -0.35 -5.15 -0.7 -5.15 L-0.8 -5.15 -0.45 -4.65 Q-0.15 -4.25 -0.15 -4.15 -0.15 -4.1 -0.3 -3.9 -0.6 -4.35 -0.7 -4.55 -0.9 -4.85 -1.1 -4.9 -1.05 -5.05 -1.05 -5.2 -1.05 -5.4 -1.2 -5.5 -1.35 -5.65 -1.55 -5.6 -1.8 -5.6 -1.95 -5.5 -2.1 -5.35 -2.1 -5.1 -2.1 -4.95 -2.0 -4.8 -1.85 -4.55 -1.6 -4.5 -1.7 -4.3 -1.85 -3.9 L-1.6 -3.2 Q-1.25 -2.5 -1.0 -2.5 -0.7 -2.5 -0.35 -2.7 0.0 -2.95 0.0 -3.15 M2.2 -3.65 Q2.2 -3.9 1.9 -3.9 1.65 -3.9 1.65 -3.6 L1.65 -3.45 Q1.7 -3.3 1.9 -3.3 2.0 -3.3 2.1 -3.4 2.2 -3.55 2.2 -3.65 M-1.0 -9.5 L-0.85 -9.1 -0.85 -9.0 -0.8 -8.95 Q-0.75 -8.7 -0.7 -8.4 L-0.65 -8.25 -0.6 -7.9 Q-0.6 -7.65 -0.85 -7.3 -1.05 -7.0 -1.3 -6.9 -1.55 -6.65 -1.95 -6.45 L-2.0 -6.4 -2.6 -6.15 -2.8 -6.6 Q-3.1 -7.35 -3.1 -7.55 -3.1 -8.0 -2.65 -8.55 -2.2 -9.1 -1.6 -9.35 -1.3 -9.5 -1.0 -9.5 M-1.2 -8.85 Q-1.45 -9.0 -1.75 -8.85 -2.05 -8.65 -2.25 -8.3 -2.5 -7.85 -2.5 -7.4 -2.55 -7.2 -2.5 -7.05 -2.4 -6.75 -2.1 -6.75 -1.45 -6.75 -1.15 -7.35 -0.95 -7.7 -0.95 -8.05 -0.95 -8.65 -1.2 -8.85" fill="#ff9900" fill-rule="evenodd" stroke="none"/>
    <path d="M-0.25 -9.8 L-0.1 -10.0 Q0.3 -10.55 0.95 -10.4 1.5 -10.3 1.95 -9.8 2.45 -9.3 2.45 -8.75 L2.45 -8.7 2.4 -8.65 2.3 -8.6 2.3 -8.55 2.1 -8.5 Q2.25 -8.75 2.25 -8.85 2.25 -9.25 1.8 -9.55 1.4 -9.85 0.9 -9.9 0.3 -9.95 -0.05 -9.6 L-0.2 -9.45 -0.25 -9.75 -0.25 -9.8 M3.9 -4.85 L3.4 -4.75 3.55 -4.95 Q4.05 -5.7 4.05 -6.3 4.05 -6.65 3.15 -7.35 L2.55 -7.8 2.7 -7.85 Q3.3 -7.65 3.7 -7.25 4.4 -6.6 4.4 -5.5 4.4 -5.3 3.9 -4.85 M-2.4 -5.5 Q-2.65 -4.8 -2.65 -4.7 -2.65 -4.55 -2.2 -3.45 -1.65 -2.25 -1.35 -2.25 -0.2 -2.25 0.55 -2.8 L0.5 -2.45 Q-0.1 -2.1 -1.35 -2.1 -2.1 -2.1 -2.7 -3.25 L-2.9 -3.45 Q-3.25 -3.85 -3.5 -4.35 -3.7 -4.7 -3.7 -4.85 L-3.15 -5.2 -3.05 -5.3 -2.7 -5.4 -2.4 -5.5 M1.4 -2.7 Q1.8 -2.9 2.15 -3.3 2.4 -3.6 2.6 -3.9 L2.65 -4.0 3.3 -3.95 3.3 -3.75 Q3.3 -3.6 2.65 -2.95 1.95 -2.3 1.65 -2.3 1.6 -2.3 1.5 -2.35 1.45 -2.5 1.4 -2.7 M-1.2 -9.8 L-1.1 -9.7 -1.0 -9.5 Q-1.3 -9.5 -1.6 -9.35 -2.2 -9.1 -2.65 -8.55 -3.1 -8.0 -3.1 -7.55 -3.1 -7.35 -2.8 -6.6 L-2.6 -6.15 -2.9 -6.05 -3.0 -6.1 Q-3.35 -6.15 -3.5 -6.85 -3.6 -7.25 -3.6 -7.65 -3.6 -8.7 -3.15 -9.3 -2.85 -9.75 -2.25 -9.85 -1.8 -9.95 -1.35 -9.8 L-1.35 -9.75 -1.2 -9.8" fill="#ff0000" fill-rule="evenodd" stroke="none"/>
  </g>
</svg>
