<?xml version="1.0" encoding="UTF-8" standalone="no"?>
<svg xmlns:ffdec="https://www.free-decompiler.com/flash" xmlns:xlink="http://www.w3.org/1999/xlink" ffdec:objectType="shape" height="7.4px" width="7.05px" xmlns="http://www.w3.org/2000/svg">
  <g transform="matrix(1.0, 0.0, 0.0, 1.0, 3.35, 5.55)">
    <path d="M2.1 -1.65 Q2.3 -2.05 2.3 -1.85 2.35 -1.75 2.35 -1.6 2.4 -1.35 2.6 -1.25 2.85 -1.1 2.95 -1.35 3.0 -1.45 3.05 -1.6 3.15 -1.9 2.85 -2.0 2.25 -2.2 1.9 -1.55 L1.8 -1.55 Q1.75 -1.55 1.75 -1.5 1.95 -1.45 2.1 -1.65 M0.6 -3.2 Q0.75 -3.3 0.85 -3.4 0.95 -3.6 0.95 -3.8 1.15 -5.05 -0.05 -5.05 -1.35 -5.1 -1.85 -3.9 -2.05 -3.55 -1.75 -3.3 -1.35 -2.95 -0.9 -2.8 -1.1 -2.55 -1.15 -2.15 -1.25 -1.6 -0.9 -1.15 -0.8 -1.05 -0.7 -0.95 L-0.7 -0.9 -0.65 -0.85 -0.4 -0.7 -0.3 -0.6 -0.25 -0.6 -0.2 -0.5 -0.1 -0.45 Q-0.1 -0.5 -0.05 -0.5 L0.05 -0.5 Q0.05 -0.45 0.0 -0.35 L-0.1 -0.35 -0.1 -0.4 -0.15 -0.4 -0.15 -0.45 Q-0.1 -0.25 -0.05 0.25 0.0 1.0 0.7 1.15 1.4 1.3 1.9 0.75 2.05 0.3 2.05 -0.15 2.1 -1.0 1.35 -1.05 L1.45 -1.15 Q1.5 -1.25 1.5 -1.3 2.15 -2.9 0.6 -3.2 M2.7 0.1 Q0.8 3.0 -1.7 1.15 -4.2 -0.7 -2.9 -3.65 -2.05 -5.5 -0.15 -5.55 1.6 -5.6 2.65 -4.2 4.2 -2.1 2.7 0.1 M-1.75 -0.25 Q-1.65 -0.5 -1.7 -0.85 -1.75 -1.15 -1.9 -1.4 -2.05 -1.65 -2.25 -1.7 -2.6 -1.55 -2.55 -1.2 -2.5 -0.8 -2.35 -0.45 -2.25 -0.2 -1.95 -0.1 L-1.9 -0.1 -1.75 -0.25" fill="#ffe700" fill-opacity="0.7529412" fill-rule="evenodd" stroke="none"/>
    <path d="M2.05 -2.4 Q2.85 -2.4 3.3 -1.75 4.05 -0.8 3.35 0.25 2.45 1.6 1.3 0.75 0.15 -0.15 0.75 -1.5 1.1 -2.35 2.05 -2.4" fill="#ffe700" fill-opacity="0.7529412" fill-rule="evenodd" stroke="none"/>
  </g>
</svg>
