<?xml version="1.0" encoding="UTF-8" standalone="no"?>
<svg xmlns:ffdec="https://www.free-decompiler.com/flash" xmlns:xlink="http://www.w3.org/1999/xlink" ffdec:objectType="shape" height="40.15px" width="25.65px" xmlns="http://www.w3.org/2000/svg">
  <g transform="matrix(1.0, 0.0, 0.0, 1.0, 14.65, 40.05)">
    <path d="M3.45 -39.6 Q3.2 -39.5 3.05 -39.45 L2.55 -39.1 Q2.2 -38.75 2.15 -38.7 L1.9 -38.7 Q1.85 -38.8 1.65 -38.95 L1.75 -38.9 Q1.85 -38.8 1.95 -38.8 2.2 -38.8 2.45 -39.0 2.55 -39.15 2.8 -39.5 3.35 -40.15 4.25 -40.05 4.3 -40.0 4.4 -39.65 4.5 -39.3 4.5 -39.2 4.5 -39.1 4.3 -38.9 L4.05 -38.95 4.05 -39.05 4.1 -39.2 Q4.1 -39.35 4.0 -39.45 3.9 -39.7 3.75 -39.7 3.65 -39.7 3.45 -39.6 M0.5 -37.6 L0.45 -37.6 Q0.55 -38.0 0.85 -38.4 1.15 -38.85 1.35 -38.95 L1.4 -38.9 Q1.15 -38.7 0.9 -38.25 0.6 -37.75 0.5 -37.6 M4.35 -36.9 L4.35 -37.05 Q4.35 -37.25 4.65 -37.35 4.95 -37.4 4.95 -37.1 4.95 -37.0 4.9 -36.8 4.8 -36.6 4.7 -36.5 L4.6 -36.55 4.55 -36.5 4.55 -36.6 Q4.55 -36.65 4.75 -36.9 4.7 -37.05 4.65 -37.05 4.45 -36.9 4.4 -36.9 L4.35 -36.9 M7.7 -37.3 L7.4 -37.25 Q7.25 -37.25 7.2 -37.3 L7.2 -37.15 7.15 -36.9 Q7.0 -36.95 7.1 -37.05 L7.1 -37.25 6.75 -37.25 Q6.7 -37.35 6.7 -37.55 L6.8 -37.6 6.85 -37.65 7.1 -37.6 7.3 -37.4 Q7.65 -37.4 7.9 -37.75 8.2 -38.15 8.35 -38.25 8.7 -38.35 9.15 -38.35 L9.8 -38.4 Q9.95 -38.35 9.95 -38.3 9.85 -38.3 9.7 -38.2 L9.55 -38.05 Q9.4 -38.05 9.2 -38.15 9.0 -38.25 8.95 -38.25 8.35 -38.25 8.05 -37.9 7.85 -37.45 7.7 -37.3 M10.6 -38.25 Q10.4 -38.5 10.15 -38.35 L10.05 -38.4 Q10.3 -38.6 10.6 -38.55 10.95 -38.5 11.0 -38.0 L10.95 -38.0 10.9 -37.95 10.9 -37.8 10.7 -37.55 Q10.55 -37.35 10.45 -37.3 L10.65 -37.7 10.8 -37.95 Q10.75 -38.0 10.6 -38.25 M10.35 -32.45 L10.35 -32.35 Q10.3 -32.3 10.3 -32.2 10.3 -32.15 10.45 -31.9 L10.6 -31.6 Q10.6 -31.3 10.55 -31.15 10.45 -31.0 10.1 -30.75 L10.0 -30.5 Q9.9 -30.3 9.65 -30.35 9.65 -30.3 9.75 -30.1 9.6 -30.25 9.55 -30.3 9.55 -30.35 9.55 -30.5 L9.9 -30.7 Q10.0 -30.75 10.05 -30.75 L10.05 -30.9 Q10.05 -31.0 10.3 -31.2 10.5 -31.45 10.5 -31.6 L10.35 -31.8 Q10.2 -31.95 10.2 -32.0 10.2 -32.15 10.25 -32.3 10.3 -32.45 10.35 -32.45 M7.05 -26.35 L6.9 -26.35 Q6.95 -26.45 7.1 -26.5 7.25 -26.6 7.15 -26.85 7.35 -26.85 7.7 -26.55 7.85 -26.4 7.95 -26.45 L8.25 -26.4 8.25 -26.15 Q8.25 -25.95 8.25 -25.8 8.2 -25.65 8.05 -25.6 L7.95 -25.6 Q7.8 -25.65 7.75 -25.65 L7.85 -25.85 Q7.95 -25.95 8.0 -26.05 7.8 -25.9 7.75 -25.95 7.65 -26.0 7.6 -26.2 7.45 -26.65 7.25 -26.7 L7.2 -26.5 Q7.1 -26.35 7.05 -26.35 M10.0 -29.9 L9.9 -29.9 Q9.8 -29.95 9.8 -30.0 L9.75 -30.05 Q10.25 -30.2 10.4 -30.05 10.4 -29.95 10.4 -29.65 L10.4 -29.45 Q10.4 -29.35 10.2 -29.1 L10.1 -29.15 Q10.15 -29.3 10.3 -29.5 L10.3 -29.85 10.0 -29.9 M4.95 -26.8 L4.95 -26.65 4.7 -26.55 4.6 -26.6 Q4.55 -26.6 4.55 -26.75 L4.55 -26.95 4.9 -26.95 4.95 -26.8 M2.75 -24.25 Q2.85 -24.15 2.85 -23.9 L2.85 -23.6 Q2.75 -23.45 2.5 -23.3 L2.35 -23.35 2.3 -23.35 2.3 -23.45 Q2.3 -23.6 2.35 -23.7 2.45 -23.85 2.45 -23.9 2.45 -24.1 2.5 -24.2 2.65 -24.4 2.75 -24.25 M1.95 -23.25 Q2.0 -23.25 2.1 -23.2 L2.1 -23.15 Q2.1 -23.1 2.0 -23.0 1.95 -22.95 1.85 -22.95 1.8 -22.95 1.8 -23.1 1.8 -23.3 1.85 -23.2 1.85 -23.25 1.95 -23.25 M3.1 -15.55 L2.8 -15.6 Q2.65 -15.7 2.55 -15.9 L3.15 -15.8 Q3.3 -15.75 3.35 -15.5 3.4 -15.35 3.4 -15.2 3.4 -15.0 3.15 -14.8 3.15 -14.9 3.15 -15.1 L3.2 -15.4 Q3.2 -15.55 3.15 -15.55 L3.1 -15.55 M4.25 -13.45 L4.4 -13.6 4.65 -13.75 Q4.45 -13.7 4.25 -13.5 L4.25 -13.45 M4.25 -13.7 Q4.6 -14.15 4.9 -13.75 5.0 -13.6 5.05 -13.4 5.1 -13.2 5.1 -13.15 L5.0 -12.95 Q4.9 -13.05 4.8 -13.2 L4.6 -13.45 Q4.5 -13.4 4.3 -13.25 4.1 -13.1 4.1 -13.05 4.0 -12.8 3.95 -12.75 3.85 -12.6 3.65 -12.55 3.7 -12.7 3.85 -12.85 3.95 -13.0 4.05 -13.1 4.05 -13.2 4.15 -13.45 4.2 -13.6 4.25 -13.7 M2.05 -17.15 L2.0 -17.25 Q1.8 -17.2 1.75 -17.15 1.65 -17.05 1.15 -16.95 L1.1 -17.0 Q1.1 -17.05 1.1 -17.1 L1.6 -17.15 1.8 -17.3 1.95 -17.4 Q2.1 -17.3 2.15 -17.15 2.15 -16.95 2.2 -16.85 2.2 -16.8 2.25 -16.65 L2.4 -16.4 2.4 -16.35 2.3 -16.35 Q2.1 -16.35 2.05 -16.65 2.05 -16.75 2.1 -16.95 2.1 -17.05 2.05 -17.15 M0.9 -0.05 Q0.45 0.1 0.3 0.1 L0.1 0.1 -0.2 0.05 -0.3 0.05 Q-0.35 0.05 -0.35 -0.1 -0.35 -0.5 -0.25 -0.6 -0.15 -0.7 0.0 -0.65 L0.45 -0.5 Q0.75 -0.35 1.0 -0.35 L2.2 -0.55 2.55 -0.5 Q2.9 -0.4 3.05 -0.4 L3.1 -0.4 Q3.15 -0.45 3.15 -0.3 3.15 -0.1 3.05 0.0 2.95 0.1 2.8 0.1 2.55 0.1 2.3 0.0 L2.0 -0.15 Q1.3 -0.15 0.9 -0.05 M-4.15 -30.75 Q-4.2 -30.6 -4.3 -30.55 -4.2 -30.75 -4.05 -31.2 -3.9 -31.6 -3.75 -31.8 -3.55 -31.75 -3.5 -31.65 -3.45 -31.55 -3.45 -31.35 -3.5 -31.1 -3.5 -31.0 -3.45 -30.8 -3.3 -30.65 L-3.35 -30.55 Q-3.4 -30.45 -3.4 -30.4 L-3.7 -30.9 Q-3.8 -31.05 -3.8 -31.2 L-3.95 -30.6 -4.05 -30.6 Q-4.05 -30.75 -4.05 -30.85 L-4.1 -30.9 -4.15 -30.75 M-1.1 -29.25 Q-1.05 -29.2 -1.05 -29.0 L-1.1 -29.0 -1.2 -28.95 -1.3 -29.0 Q-1.35 -29.05 -1.35 -29.15 -1.35 -29.3 -1.3 -29.35 L-1.2 -29.45 Q-1.1 -29.35 -1.1 -29.25 M-6.85 -33.35 L-6.75 -33.3 -6.55 -33.3 Q-6.5 -33.2 -6.45 -33.15 L-6.45 -33.05 Q-6.4 -32.9 -6.4 -32.6 -6.45 -32.5 -6.6 -32.45 -6.65 -32.55 -6.7 -32.7 L-6.75 -32.75 -6.95 -32.65 Q-7.0 -32.6 -7.1 -32.6 -7.2 -32.45 -7.2 -32.35 -7.2 -32.2 -7.15 -32.15 L-7.05 -32.05 -7.25 -32.1 -7.65 -32.15 -7.85 -32.15 -8.1 -32.1 -8.15 -32.1 -8.15 -32.2 Q-8.15 -32.3 -8.05 -32.55 L-7.85 -32.8 -7.55 -32.8 Q-7.4 -32.55 -7.35 -32.5 -7.1 -32.95 -6.95 -33.15 -6.9 -33.25 -6.85 -33.35 M-6.45 -32.75 L-6.45 -32.65 -6.5 -32.6 Q-6.45 -32.6 -6.45 -32.7 L-6.45 -32.75 M-9.35 -30.15 Q-9.15 -30.15 -9.0 -29.9 -8.85 -29.75 -8.85 -29.55 L-8.85 -29.35 -8.9 -29.25 Q-8.95 -29.2 -9.0 -29.15 L-9.2 -29.65 Q-9.3 -29.55 -9.4 -29.4 -9.55 -29.15 -9.65 -29.0 -9.85 -29.0 -9.9 -29.1 -10.0 -29.15 -10.05 -29.15 -10.3 -29.15 -10.35 -28.75 -10.45 -28.45 -10.4 -28.25 -10.65 -28.3 -10.65 -28.45 -10.65 -28.65 -10.5 -29.05 -10.3 -29.4 -10.2 -29.5 L-9.7 -29.45 Q-9.6 -29.55 -9.55 -29.9 -9.45 -30.15 -9.35 -30.15 M-3.05 -25.6 L-3.05 -25.45 Q-3.05 -25.2 -3.25 -24.95 -3.45 -24.75 -3.65 -24.75 L-3.75 -24.7 Q-3.8 -24.6 -3.9 -24.6 L-4.25 -24.65 -4.3 -24.65 -4.3 -24.8 Q-4.3 -25.0 -4.25 -25.05 L-3.8 -25.05 -3.6 -25.3 Q-3.35 -25.65 -3.1 -25.65 L-3.05 -25.6 M-2.55 -21.05 Q-2.55 -21.0 -2.55 -20.85 -2.55 -20.8 -2.65 -20.7 -2.75 -20.55 -2.85 -20.45 -3.05 -20.65 -3.05 -20.7 -3.05 -20.9 -2.95 -20.95 -2.9 -21.05 -2.6 -21.1 L-2.55 -21.05 M-12.6 -13.25 L-12.7 -13.15 -12.9 -13.25 -13.05 -13.4 -13.15 -12.9 Q-13.2 -12.65 -13.35 -12.45 L-13.4 -12.45 -13.4 -13.15 Q-13.3 -13.25 -13.2 -13.5 L-13.05 -13.8 Q-12.95 -13.75 -12.8 -13.55 -12.65 -13.35 -12.6 -13.25 M-13.25 -12.7 Q-13.25 -12.9 -13.25 -13.1 L-13.3 -13.1 -13.3 -12.7 -13.25 -12.7 M-14.25 -10.2 Q-14.2 -10.15 -14.1 -10.0 -14.05 -9.85 -14.05 -9.7 L-14.05 -9.65 -14.35 -10.1 -14.45 -10.05 -14.25 -9.85 Q-14.2 -9.75 -14.2 -9.7 -14.2 -9.65 -14.3 -9.45 -14.45 -9.15 -14.55 -9.1 L-14.6 -9.45 Q-14.65 -9.65 -14.65 -9.8 -14.65 -9.9 -14.6 -10.05 L-14.5 -10.25 -14.25 -10.2 M-0.7 -14.85 L-0.6 -14.85 Q-0.55 -14.85 -0.55 -14.9 L-0.45 -14.9 -0.5 -14.8 -0.5 -14.65 -0.65 -14.6 Q-0.8 -14.65 -0.85 -14.75 -0.85 -14.8 -0.85 -14.95 -0.95 -14.85 -1.05 -14.7 L-1.15 -14.55 -1.25 -14.6 -1.15 -14.85 Q-1.05 -15.05 -1.0 -15.1 L-0.75 -15.1 Q-0.7 -15.05 -0.7 -15.0 L-0.7 -14.85 M-8.25 -0.5 L-8.2 -0.5 Q-8.15 -0.5 -8.15 -0.35 -8.15 -0.3 -8.25 -0.15 -8.3 0.0 -8.35 0.1 L-8.8 0.1 -8.9 0.05 Q-8.95 0.0 -8.95 -0.15 L-8.95 -0.35 -8.65 -0.5 Q-8.5 -0.5 -8.25 -0.5 M-2.3 -0.6 Q-2.15 -0.5 -2.05 -0.5 -2.0 -0.5 -1.8 -0.45 -1.65 -0.35 -1.55 -0.35 -1.45 -0.35 -1.15 -0.25 L-0.9 -0.1 Q-1.0 -0.05 -1.25 0.0 L-1.65 0.05 -2.5 -0.05 -2.55 -0.05 -2.55 -0.2 Q-2.55 -0.3 -2.55 -0.4 -2.5 -0.55 -2.5 -0.65 L-2.5 -0.7 Q-2.45 -0.7 -2.3 -0.6" fill="#ccfffe" fill-opacity="0.7529412" fill-rule="evenodd" stroke="none"/>
  </g>
</svg>
