<?xml version="1.0" encoding="UTF-8" standalone="no"?>
<svg xmlns:ffdec="https://www.free-decompiler.com/flash" xmlns:xlink="http://www.w3.org/1999/xlink" ffdec:objectType="shape" height="7.15px" width="7.7px" xmlns="http://www.w3.org/2000/svg">
  <g transform="matrix(1.0, 0.0, 0.0, 1.0, 3.1, 4.85)">
    <path d="M-0.25 1.2 L-0.2 1.25 -0.25 1.25 -0.25 1.2 M-0.45 -0.1 L-0.45 -0.1 M-1.0 -2.15 Q-1.2 -2.2 -1.35 -2.1 -1.45 -2.15 -1.55 -2.2 -1.5 -2.35 -1.45 -2.55 -1.2 -2.3 -0.95 -2.2 L-1.0 -2.15 M-3.0 -1.85 Q-2.9 -1.55 -2.9 -1.25 -2.85 -0.75 -2.8 -0.2 -2.75 -0.05 -2.7 0.1 -3.25 -0.8 -3.05 -1.9 L-3.0 -1.85 M-1.1 -4.75 Q-1.3 -4.6 -1.45 -4.35 L-1.5 -4.35 Q-1.75 -4.3 -1.9 -4.25 -1.55 -4.6 -1.1 -4.75 M0.4 1.75 Q0.65 1.75 0.95 1.85 0.2 2.15 -0.65 1.85 -0.55 1.8 -0.4 1.8 0.0 1.7 0.4 1.75 M0.45 -4.85 Q0.7 -4.85 1.0 -4.75 0.7 -4.7 0.45 -4.85 M2.6 -0.1 L2.6 -0.05 Q2.6 0.0 2.6 0.05 L2.55 0.1 2.55 0.2 Q2.55 0.25 2.5 0.25 L2.5 0.2 Q2.5 0.1 2.45 0.0 2.5 -0.05 2.55 -0.1 L2.6 -0.1 M2.15 -2.0 L2.15 -2.0 M1.6 -1.05 L1.45 -1.1 1.5 -1.25 Q1.55 -1.15 1.6 -1.05" fill="#ffe700" fill-opacity="0.7529412" fill-rule="evenodd" stroke="none"/>
    <path d="M-0.05 -1.7 Q-0.05 -1.75 -0.05 -1.8 L-0.1 -1.9 Q-0.1 -1.95 -0.15 -1.95 L-0.2 -2.0 Q-0.3 -2.0 -0.35 -1.9 -0.5 -1.55 -0.6 -1.2 -0.65 -0.9 -0.35 -0.8 L-0.3 -0.85 Q-0.25 -0.85 -0.2 -0.9 L-0.15 -0.95 Q-0.05 -1.2 0.0 -1.5 0.05 -1.65 -0.05 -1.7 M3.35 1.15 Q3.3 1.15 3.3 0.95 3.35 0.85 3.3 0.7 3.3 0.65 3.35 0.6 L3.35 0.75 Q3.4 0.85 3.35 0.95 3.35 1.05 3.35 1.15 M3.2 -0.95 Q3.15 -0.95 3.2 -1.0 L3.3 -0.9 3.25 -0.9 3.2 -0.95 M0.3 -2.35 Q0.05 -1.9 0.4 -1.5 0.65 -1.2 0.9 -1.05 0.85 -0.9 0.8 -0.7 0.8 -0.55 0.8 -0.45 0.6 -0.75 0.1 -0.95 0.0 -1.0 -0.1 -0.9 -0.6 -0.2 -0.2 0.7 0.2 1.55 0.85 1.0 L0.9 0.9 Q1.1 0.4 1.0 0.05 1.1 0.1 1.15 0.2 L1.2 0.2 1.2 0.25 1.35 0.35 1.4 0.4 Q1.35 0.6 1.3 0.85 1.2 1.6 1.9 1.85 2.3 2.0 2.65 1.95 1.65 2.5 0.55 1.75 0.55 1.7 0.55 1.65 0.6 1.5 0.7 1.4 L0.7 1.45 Q0.7 1.55 0.75 1.65 0.85 1.75 0.95 1.8 1.1 1.85 1.2 1.75 L1.2 1.7 1.25 1.7 1.25 1.6 0.9 1.25 0.85 1.25 Q0.6 1.3 0.55 1.55 0.5 1.65 0.5 1.7 L0.45 1.65 Q-1.35 0.35 -0.4 -1.8 0.0 -2.7 0.8 -3.0 0.55 -2.8 0.3 -2.35 M2.95 -2.6 Q2.85 -2.5 2.8 -2.45 2.7 -2.35 2.65 -2.2 2.65 -2.75 2.05 -3.05 1.9 -3.1 1.8 -3.15 2.9 -3.05 3.55 -2.15 4.7 -0.65 3.6 0.9 L3.6 0.95 Q3.65 0.5 3.25 0.1 3.05 -0.1 2.8 -0.2 2.85 -0.35 2.85 -0.45 2.9 -0.4 2.95 -0.3 L3.0 -0.25 2.9 -0.25 2.9 -0.2 3.0 -0.25 Q3.4 0.3 3.95 0.05 4.4 -1.1 3.35 -1.65 3.15 -1.8 3.0 -1.6 2.8 -1.35 2.75 -1.1 2.65 -1.25 2.45 -1.35 2.55 -1.55 2.6 -1.8 2.65 -2.0 2.65 -2.15 2.7 -2.15 2.7 -2.2 2.8 -2.45 2.85 -2.35 L2.95 -2.15 Q2.95 -2.05 3.05 -2.0 3.1 -1.95 3.2 -1.95 L3.3 -2.05 Q3.35 -2.1 3.35 -2.2 3.35 -2.3 3.35 -2.35 3.35 -2.4 3.3 -2.45 L3.15 -2.55 Q3.1 -2.55 3.05 -2.6 3.0 -2.6 2.95 -2.6" fill="#ffe700" fill-opacity="0.7529412" fill-rule="evenodd" stroke="none"/>
    <path d="M2.9 -1.1 Q2.25 -1.1 2.0 -0.5 1.95 -0.35 2.05 -0.2 2.25 -0.05 2.45 0.0 2.4 0.15 2.35 0.35 2.3 0.65 2.5 0.85 2.55 0.9 2.6 0.95 L2.6 1.0 2.75 1.05 2.85 1.15 2.95 1.15 2.95 1.25 2.9 1.25 2.9 1.2 2.85 1.2 Q2.9 1.25 2.9 1.5 2.9 1.9 3.3 1.95 3.65 2.05 3.85 1.75 3.95 1.55 3.95 1.35 3.95 0.9 3.6 0.9 L3.65 0.85 3.65 0.75 Q4.0 0.0 3.25 -0.15 L3.35 -0.3 Q3.4 -0.35 3.4 -0.5 3.5 -1.05 2.9 -1.1 M2.85 -1.3 Q3.7 -1.35 4.25 -0.65 5.0 0.35 4.25 1.45 3.3 2.9 2.1 1.95 0.85 1.05 1.5 -0.4 1.9 -1.3 2.85 -1.3 M2.1 1.0 Q2.05 0.85 2.0 0.7 1.9 0.6 1.8 0.55 1.65 0.65 1.7 0.8 1.7 1.0 1.75 1.2 1.8 1.3 1.95 1.35 L2.0 1.35 2.0 1.3 2.05 1.25 Q2.1 1.15 2.1 1.0 M4.45 0.6 Q4.45 0.45 4.35 0.4 4.05 0.3 3.85 0.65 L3.8 0.65 Q3.9 0.7 3.95 0.6 4.05 0.4 4.05 0.5 L4.1 0.6 Q4.1 0.75 4.2 0.8 4.3 0.85 4.4 0.75 4.4 0.7 4.45 0.6" fill="#ffe700" fill-opacity="0.7529412" fill-rule="evenodd" stroke="none"/>
  </g>
</svg>
