<?xml version="1.0" encoding="UTF-8" standalone="no"?>
<svg xmlns:ffdec="https://www.free-decompiler.com/flash" xmlns:xlink="http://www.w3.org/1999/xlink" ffdec:objectType="shape" height="44.5px" width="39.45px" xmlns="http://www.w3.org/2000/svg">
  <g transform="matrix(1.0, 0.0, 0.0, 1.0, 19.0, 34.8)">
    <path d="M-6.95 -18.4 L-6.85 -18.75 -6.75 -19.05 -6.75 -19.1 Q-6.7 -18.85 -6.75 -18.6 -6.85 -18.35 -6.85 -18.1 -6.9 -17.75 -7.1 -17.95 L-6.95 -18.4 M6.05 -24.55 Q5.25 -24.3 4.55 -23.85 4.05 -23.55 3.6 -23.6 L4.45 -24.25 Q5.1 -24.75 5.9 -24.9 6.75 -24.95 7.6 -25.25 7.6 -25.05 6.05 -24.55 M-10.95 -11.45 Q-12.35 -11.2 -13.5 -10.75 L-13.9 -10.8 Q-16.0 -10.6 -15.35 -11.35 -14.9 -12.0 -14.4 -12.55 -13.9 -13.1 -13.7 -13.9 -13.55 -14.5 -13.9 -15.0 L-14.15 -15.2 Q-14.25 -15.25 -14.4 -15.3 L-14.85 -15.45 Q-15.4 -15.5 -16.0 -15.25 -16.55 -15.0 -17.1 -14.8 -17.4 -14.7 -17.55 -14.45 L-17.6 -14.25 Q-17.75 -13.65 -17.8 -13.05 -17.85 -12.5 -17.7 -11.95 -17.65 -11.65 -17.4 -11.4 -16.75 -10.9 -16.05 -10.75 -15.05 -10.55 -14.05 -10.5 -17.85 -8.7 -18.0 -3.7 -18.0 -2.7 -17.9 -1.8 -20.7 -9.6 -16.4 -17.0 -9.3 -29.3 5.05 -26.5 L5.35 -26.45 Q1.95 -25.45 0.3 -21.55 -0.55 -19.5 -0.3 -17.45 -1.45 -17.35 -2.4 -17.15 -2.0 -17.65 -1.6 -18.2 L-1.35 -18.6 -1.35 -18.55 -1.2 -18.35 Q-1.1 -18.25 -0.95 -18.2 L-0.9 -18.25 Q-1.0 -18.6 -1.2 -18.9 1.45 -23.35 -2.2 -26.35 -11.5 -25.8 -12.35 -17.1 -12.55 -15.2 -10.85 -14.7 -8.55 -14.0 -6.6 -14.45 -7.35 -13.2 -7.35 -11.5 -9.15 -11.7 -10.95 -11.45 M2.1 -2.2 Q3.0 -2.45 3.75 -2.85 2.35 -0.3 2.5 3.55 2.55 4.5 3.35 4.7 9.9 6.4 14.9 0.95 19.8 -4.5 13.65 -7.55 13.25 -7.55 12.75 -7.5 8.95 -7.25 6.55 -5.8 6.9 -6.45 7.15 -7.15 L7.4 -7.4 Q7.5 -7.45 7.5 -7.6 7.65 -8.35 7.8 -9.15 L7.85 -9.55 Q9.5 -9.55 11.45 -10.1 16.85 -11.65 16.7 -17.2 16.6 -20.45 15.1 -22.65 22.05 -17.65 19.9 -7.4 L19.3 -7.35 Q18.25 -7.15 17.3 -7.5 L17.4 -7.55 Q18.1 -8.0 18.55 -8.65 19.2 -9.55 19.15 -10.65 19.1 -11.9 17.85 -12.1 L17.45 -12.1 17.25 -12.05 17.05 -11.95 Q16.75 -11.8 16.65 -11.55 L16.15 -10.1 Q15.9 -9.4 15.6 -8.7 15.4 -8.3 15.55 -7.95 16.8 -6.75 18.55 -6.8 19.35 -6.85 19.9 -7.3 L19.7 -6.55 Q15.8 9.9 -1.9 9.7 -9.65 9.6 -14.1 4.7 -11.8 6.15 -8.1 6.4 -4.05 6.7 -2.25 3.2 -0.9 0.5 -0.65 -1.85 0.65 -1.8 2.1 -2.2 M-2.35 7.0 Q-2.75 7.1 -3.05 7.35 L-3.65 7.85 Q-3.9 8.05 -3.95 8.35 L-4.0 8.65 Q-3.75 9.65 -2.75 9.65 0.1 9.7 2.8 9.1 5.1 8.6 4.9 6.45 L4.7 6.25 Q4.55 6.1 4.3 5.95 4.0 5.75 3.65 5.55 3.45 5.45 3.25 5.4 1.05 5.3 -1.15 5.8 -2.15 6.05 -2.35 7.0" fill="#ffe700" fill-opacity="0.7529412" fill-rule="evenodd" stroke="none"/>
    <path d="M-1.1 -16.35 Q-0.85 -17.05 -1.15 -17.7 -1.45 -18.3 -2.15 -18.4 -2.6 -18.5 -3.0 -18.2 -3.35 -17.9 -3.45 -17.5 -3.65 -16.9 -3.4 -16.55 -2.15 -14.65 0.85 -15.15 -0.1 -15.75 -1.25 -15.55 -1.7 -15.45 -1.55 -15.7 -1.25 -15.95 -1.1 -16.35 M6.75 -24.15 Q6.85 -24.8 6.2 -25.1 5.95 -25.1 5.6 -25.0 4.9 -24.75 5.0 -24.0 5.05 -23.2 5.75 -22.85 L6.2 -22.85 Q6.3 -22.75 6.3 -22.65 L6.3 -22.4 Q6.6 -22.6 6.65 -23.0 L6.75 -24.15 M6.0 -21.15 L5.9 -21.2 5.8 -21.35 5.8 -21.45 5.7 -21.75 5.7 -21.9 5.6 -22.05 5.5 -22.25 5.25 -22.4 4.4 -22.65 3.9 -22.75 3.25 -23.0 Q2.05 -23.05 1.05 -22.4 -0.7 -21.35 -0.4 -19.45 -0.2 -18.35 0.75 -18.0 3.5 -16.85 5.55 -19.25 L5.65 -19.35 5.75 -20.1 5.85 -20.5 5.9 -20.65 6.0 -21.15 M0.85 -10.55 Q-4.75 -10.6 -6.95 -15.55 -8.95 -19.95 -6.55 -24.1 -2.95 -30.4 4.4 -28.95 13.85 -27.2 11.85 -18.8 9.85 -10.45 0.85 -10.55" fill="#ffe700" fill-opacity="0.7529412" fill-rule="evenodd" stroke="none"/>
    <path d="M3.8 -23.1 Q0.3 -23.15 -1.1 -26.25 -2.35 -29.0 -0.8 -31.6 1.45 -35.55 6.0 -34.65 11.95 -33.55 10.7 -28.25 9.45 -23.05 3.8 -23.1" fill="#ffe700" fill-opacity="0.7529412" fill-rule="evenodd" stroke="none"/>
  </g>
</svg>
