<?xml version="1.0" encoding="UTF-8" standalone="no"?>
<svg xmlns:ffdec="https://www.free-decompiler.com/flash" xmlns:xlink="http://www.w3.org/1999/xlink" ffdec:objectType="shape" height="40.45px" width="43.05px" xmlns="http://www.w3.org/2000/svg">
  <g transform="matrix(1.0, 0.0, 0.0, 1.0, 18.65, 26.5)">
    <path d="M-2.9 1.75 L-3.0 1.75 -3.0 1.6 -2.9 1.75 M-8.95 -12.75 Q-7.55 -11.4 -6.1 -10.55 L-6.25 -10.25 Q-7.45 -10.6 -8.45 -10.05 -9.0 -10.35 -9.6 -10.55 -9.2 -11.65 -8.95 -12.75 M-18.4 -9.0 L-18.15 -8.75 Q-16.85 -7.7 -15.6 -7.4 -18.95 -0.95 -14.2 5.65 -12.5 8.05 -10.6 8.7 L-10.45 8.9 Q-10.15 9.45 -9.8 9.95 -20.15 2.25 -18.4 -9.0 M-6.85 -25.55 Q-8.95 -24.05 -10.6 -21.0 -11.05 -21.3 -11.55 -21.5 -12.2 -21.75 -12.8 -21.65 -10.3 -24.35 -6.85 -25.55 M1.25 11.4 Q4.25 12.55 6.9 12.05 1.15 15.55 -5.35 12.65 -3.65 12.35 -1.8 10.4 -1.75 9.9 -1.8 9.4 -0.65 10.65 1.25 11.4 M14.4 4.35 L14.2 4.6 Q14.4 3.15 14.0 1.75 15.05 1.75 16.25 1.1 15.45 2.75 14.4 4.35 M12.15 2.8 Q12.05 2.2 12.25 1.85 L12.5 2.9 Q12.75 3.7 12.55 4.45 12.3 5.3 12.2 6.15 12.0 6.1 12.2 4.45 12.25 3.65 12.15 2.8 M11.95 -9.5 L12.0 -9.6 12.15 -9.45 Q12.05 -9.45 11.95 -9.5 M8.15 -4.2 L8.45 -5.15 Q8.6 -4.55 8.85 -3.95 L8.15 -4.2 M6.95 -17.05 Q7.9 -15.85 9.0 -15.25 8.35 -13.65 8.1 -12.05 7.95 -11.6 7.85 -11.15 7.0 -12.3 5.4 -13.0 6.3 -14.55 6.75 -16.35 L6.95 -17.05 M2.4 -25.8 Q1.5 -26.25 0.65 -26.5 3.85 -26.3 6.55 -25.15 6.0 -24.9 5.6 -24.3 5.45 -24.05 5.35 -23.8 4.25 -25.0 2.4 -25.8 M15.15 -15.7 Q15.25 -16.6 15.25 -17.35 16.5 -15.4 17.25 -13.4 16.4 -14.65 15.15 -15.65 L15.2 -15.7 15.15 -15.7" fill="#ffe700" fill-opacity="0.7529412" fill-rule="evenodd" stroke="none"/>
    <path d="M9.1 -12.25 Q4.4 -12.35 2.55 -8.1 1.95 -6.75 3.05 -5.85 4.5 -4.6 6.0 -4.2 5.3 -3.2 5.1 -1.7 4.8 0.35 6.1 1.9 L6.8 2.65 6.9 2.9 Q6.9 3.0 6.95 3.0 L7.85 3.55 8.25 3.85 8.4 3.95 8.65 4.15 8.95 4.35 9.1 4.3 Q9.2 4.25 9.3 4.25 L9.5 4.25 9.6 4.3 9.35 4.75 Q9.2 4.85 9.1 4.9 L9.05 4.8 8.95 4.7 8.9 4.6 8.8 4.5 Q9.0 5.1 9.1 6.85 9.3 9.6 11.95 10.25 14.5 10.85 16.15 8.7 16.85 7.2 16.85 5.5 16.85 2.5 14.15 2.25 L14.5 1.9 Q14.7 1.6 14.85 1.3 17.15 -4.45 11.6 -5.6 12.05 -5.9 12.5 -6.35 12.7 -7.0 12.85 -7.8 13.55 -12.2 9.1 -12.25 M18.95 -9.15 Q24.65 -1.6 19.2 6.45 12.2 16.9 3.15 10.2 -5.85 3.5 -1.1 -7.25 1.85 -13.9 8.85 -14.05 15.2 -14.2 18.95 -9.15 M3.05 5.1 Q3.4 4.15 3.15 3.05 2.95 1.9 2.4 0.9 1.95 0.1 1.15 -0.05 -0.05 0.45 0.1 1.75 0.3 3.1 0.8 4.4 1.2 5.4 2.25 5.7 L2.45 5.65 2.7 5.45 3.05 5.1 M18.8 1.5 Q19.6 2.0 20.1 1.1 20.3 0.75 20.45 0.25 20.75 -0.9 19.75 -1.25 17.6 -2.0 16.3 0.45 L16.0 0.45 15.8 0.5 Q15.7 0.5 15.65 0.6 L15.65 0.65 Q16.45 0.75 16.9 0.0 17.6 -1.35 17.75 -0.7 L17.9 0.25 Q18.05 1.05 18.8 1.5" fill="#ffe700" fill-opacity="0.7529412" fill-rule="evenodd" stroke="none"/>
    <path d="M22.65 -0.15 Q26.1 4.5 22.75 9.4 18.5 15.8 13.0 11.7 7.5 7.6 10.35 1.05 12.15 -3.05 16.45 -3.15 20.35 -3.2 22.65 -0.15 M17.55 8.8 L17.35 8.8 Q17.4 9.05 17.7 9.2 L18.5 9.6 Q19.0 9.9 19.35 9.5 19.45 9.35 19.45 9.05 19.5 8.45 18.95 8.25 18.35 8.1 17.85 8.5 L17.8 8.65 Q17.75 8.75 17.7 8.8 17.65 8.85 17.55 8.8 M16.2 1.8 Q16.8 1.75 17.1 1.3 17.3 1.0 17.15 0.6 17.05 0.25 16.8 0.05 16.45 -0.25 16.1 -0.2 14.3 0.15 13.75 2.45 14.45 2.0 14.65 1.1 14.75 0.7 14.9 0.9 15.0 1.2 15.25 1.45 15.65 1.85 16.2 1.8 M18.75 6.7 Q19.15 5.85 19.0 4.9 18.8 3.25 17.3 2.9 16.45 2.75 15.85 3.3 14.15 4.95 15.25 7.2 L15.3 7.3 15.85 7.65 16.1 7.8 16.2 7.9 16.35 8.0 16.5 8.15 16.6 8.05 16.85 8.05 17.05 8.15 17.3 8.15 17.5 8.1 17.65 7.95 18.15 7.4 18.4 7.1 Q18.55 6.9 18.75 6.7" fill="#ffe700" fill-opacity="0.7529412" fill-rule="evenodd" stroke="none"/>
  </g>
</svg>
