<?xml version="1.0" encoding="UTF-8" standalone="no"?>
<svg xmlns:ffdec="https://www.free-decompiler.com/flash" xmlns:xlink="http://www.w3.org/1999/xlink" ffdec:objectType="shape" height="47.55px" width="39.35px" xmlns="http://www.w3.org/2000/svg">
  <g transform="matrix(1.0, 0.0, 0.0, 1.0, 18.95, 38.7)">
    <path d="M2.5 -25.85 Q2.55 -25.95 2.6 -25.95 2.9 -26.1 3.2 -26.15 L3.65 -26.25 4.1 -26.25 Q4.4 -26.35 4.35 -26.2 L4.3 -26.05 Q3.7 -25.8 3.2 -25.4 2.9 -25.4 2.6 -25.6 L2.5 -25.8 2.5 -25.85 M-6.75 -19.1 Q-6.7 -18.95 -6.7 -18.85 L-6.8 -18.85 -6.75 -19.05 -6.75 -19.1 M-0.35 -18.2 L-0.3 -17.45 -1.35 -17.35 Q-0.85 -17.75 -0.35 -18.2 M16.05 -13.65 L16.1 -13.75 16.15 -13.7 16.05 -13.65 M20.4 -12.8 Q19.95 -13.35 19.5 -14.0 18.2 -15.95 17.4 -18.2 16.85 -19.75 16.7 -21.35 20.15 -18.0 20.4 -12.8 M9.35 -9.5 L9.45 -9.6 9.45 -9.65 9.5 -9.5 9.35 -9.5 M-17.3 -7.2 L-17.3 -7.2 M-18.35 -3.2 Q-18.8 -4.8 -18.95 -6.4 -18.0 -5.1 -18.35 -3.2 M-11.1 6.15 Q-10.4 7.25 -9.65 8.05 -12.2 6.8 -14.1 4.7 -12.9 5.45 -11.25 5.9 L-11.1 6.15 M0.8 1.4 Q-0.4 1.4 -1.5 1.6 -0.8 -0.2 -0.65 -1.85 L-0.25 -1.85 Q-0.1 -0.6 0.75 0.1 0.7 0.75 0.8 1.4 M5.8 8.5 L5.8 8.35 Q7.2 7.2 8.85 6.4 11.55 5.0 14.15 3.45 15.0 2.9 15.75 2.35 12.05 7.25 5.65 8.85 L5.8 8.5" fill="#ffe700" fill-opacity="0.7529412" fill-rule="evenodd" stroke="none"/>
    <path d="M7.55 -32.7 Q7.55 -32.55 6.35 -32.2 5.75 -32.0 5.2 -31.65 4.8 -31.4 4.5 -31.45 L5.15 -31.95 Q5.65 -32.35 6.25 -32.45 6.95 -32.55 7.55 -32.7 M-3.65 -27.45 L-3.6 -27.7 -3.5 -27.95 Q-3.45 -27.8 -3.5 -27.6 -3.6 -27.4 -3.6 -27.2 -3.6 -26.95 -3.8 -27.1 L-3.75 -27.2 -3.65 -27.45 M-12.2 -16.1 Q-12.2 -15.35 -12.15 -14.65 -14.25 -20.65 -10.95 -26.35 -5.45 -35.85 5.6 -33.7 L5.85 -33.65 Q3.2 -32.9 1.95 -29.85 1.3 -28.3 1.45 -26.7 L-0.15 -26.5 Q0.15 -26.85 0.45 -27.3 L0.65 -27.6 0.7 -27.6 0.8 -27.4 Q0.85 -27.3 0.95 -27.3 L1.0 -27.3 Q0.95 -27.6 0.8 -27.8 2.8 -31.3 0.0 -33.6 -7.15 -33.15 -7.85 -26.45 -8.0 -25.0 -6.65 -24.6 -4.9 -24.05 -3.4 -24.4 -3.95 -23.45 -4.0 -22.1 -5.35 -22.25 -6.75 -22.05 -7.85 -21.9 -8.7 -21.55 L-9.05 -21.6 Q-10.65 -21.45 -10.15 -22.0 -9.8 -22.5 -9.4 -22.95 -9.0 -23.35 -8.9 -23.95 -8.75 -24.45 -9.05 -24.85 L-9.75 -25.2 Q-10.2 -25.2 -10.65 -25.0 -11.05 -24.8 -11.5 -24.65 -11.75 -24.55 -11.85 -24.4 L-11.9 -24.25 -12.05 -23.35 Q-12.1 -22.9 -12.0 -22.45 -11.95 -22.25 -11.75 -22.0 -11.25 -21.65 -10.7 -21.55 L-9.15 -21.35 Q-12.1 -19.95 -12.2 -16.1 M-9.2 -9.6 Q-7.4 -8.5 -4.55 -8.3 -1.4 -8.05 -0.05 -10.75 1.0 -12.85 1.2 -14.7 2.2 -14.65 3.35 -14.95 4.0 -15.1 4.6 -15.4 3.5 -13.5 3.65 -10.5 3.7 -9.75 4.3 -9.6 9.35 -8.3 13.2 -12.5 17.0 -16.7 12.25 -19.05 L11.55 -19.05 Q8.6 -18.85 6.75 -17.7 L7.25 -18.75 7.4 -18.95 Q7.5 -19.0 7.5 -19.1 L7.7 -20.3 7.8 -20.6 Q9.05 -20.6 10.55 -21.05 14.7 -22.2 14.6 -26.55 14.5 -29.0 13.35 -30.75 18.75 -26.9 17.1 -18.95 L16.6 -18.95 Q15.8 -18.75 15.1 -19.0 L15.15 -19.05 Q15.65 -19.4 16.0 -19.9 16.5 -20.6 16.5 -21.45 16.45 -22.45 15.5 -22.6 L15.45 -22.55 15.25 -22.6 15.15 -22.6 15.0 -22.55 14.85 -22.45 Q14.65 -22.35 14.55 -22.15 L14.15 -21.05 13.7 -19.95 Q13.6 -19.65 13.7 -19.4 14.65 -18.45 16.05 -18.5 16.65 -18.55 17.05 -18.85 L16.95 -18.3 Q13.9 -5.6 0.25 -5.75 -5.75 -5.85 -9.2 -9.6 M-1.35 -6.8 L-1.35 -6.55 Q-1.15 -5.8 -0.4 -5.8 1.75 -5.75 3.85 -6.2 5.65 -6.6 5.5 -8.25 L5.35 -8.4 Q5.2 -8.55 5.0 -8.65 4.8 -8.8 4.5 -8.95 L4.2 -9.1 Q2.55 -9.15 0.8 -8.75 0.05 -8.55 -0.1 -7.8 -0.4 -7.75 -0.65 -7.55 L-1.15 -7.2 Q-1.3 -7.05 -1.35 -6.8" fill="#ffe700" fill-opacity="0.7529412" fill-rule="evenodd" stroke="none"/>
    <path d="M7.75 -27.45 L8.1 -28.2 8.2 -28.35 8.3 -28.45 Q8.35 -28.85 8.45 -29.25 L8.5 -29.65 8.55 -29.8 8.65 -30.3 8.55 -30.35 Q8.5 -30.45 8.45 -30.5 L8.4 -30.65 8.4 -30.75 8.8 -30.7 Q8.95 -30.65 9.0 -30.55 L8.9 -30.45 8.85 -30.35 8.85 -30.2 Q9.2 -30.55 10.45 -31.2 12.4 -32.15 12.05 -34.35 11.65 -36.4 9.6 -36.95 8.3 -37.0 7.0 -36.45 4.8 -35.5 5.5 -33.45 5.3 -33.55 5.15 -33.6 L4.6 -33.65 Q-0.35 -33.55 0.55 -29.15 0.15 -29.4 -0.3 -29.55 -0.85 -29.5 -1.45 -29.35 -4.9 -28.5 -3.55 -25.2 -2.15 -21.75 1.5 -21.7 2.7 -21.7 3.05 -22.8 3.5 -24.25 3.35 -25.45 4.25 -25.3 5.4 -25.6 7.0 -26.0 7.75 -27.45 M11.65 -25.95 L11.45 -26.05 11.05 -26.2 Q10.25 -26.15 9.5 -25.65 8.75 -25.15 8.2 -24.45 7.75 -23.85 7.85 -23.2 8.6 -22.5 9.55 -23.0 10.45 -23.55 11.25 -24.3 11.85 -24.95 11.75 -25.8 L11.65 -25.95 M3.3 -19.3 Q-2.5 -19.35 -4.8 -24.5 -6.85 -29.05 -4.35 -33.4 -0.6 -39.9 7.0 -38.45 16.85 -36.6 14.75 -27.9 12.65 -19.2 3.3 -19.3 M3.7 -34.1 Q3.75 -34.05 3.8 -34.05 L3.85 -34.05 Q3.7 -34.7 3.0 -34.75 1.75 -34.85 2.2 -35.2 L2.85 -35.6 Q3.4 -35.95 3.5 -36.6 3.6 -37.35 2.8 -37.45 2.45 -37.5 2.1 -37.45 1.15 -37.3 1.2 -36.45 1.3 -34.65 3.5 -34.45 L3.6 -34.25 3.7 -34.1" fill="#ffe700" fill-opacity="0.7529412" fill-rule="evenodd" stroke="none"/>
  </g>
</svg>
