<?xml version="1.0" encoding="UTF-8" standalone="no"?>
<svg xmlns:ffdec="https://www.free-decompiler.com/flash" xmlns:xlink="http://www.w3.org/1999/xlink" ffdec:objectType="shape" height="42.25px" width="45.35px" xmlns="http://www.w3.org/2000/svg">
  <g transform="matrix(1.0, 0.0, 0.0, 1.0, 18.65, 26.35)">
    <path d="M-1.7 9.5 L-1.8 9.5 -1.8 9.4 -1.7 9.5 M-2.9 1.75 L-3.0 1.75 -3.0 1.6 -2.9 1.75 M-8.95 -12.75 Q-7.55 -11.4 -6.1 -10.55 L-6.25 -10.25 Q-7.45 -10.6 -8.45 -10.05 -9.0 -10.35 -9.6 -10.55 -9.2 -11.65 -8.95 -12.75 M-18.4 -9.0 L-18.05 -8.65 Q-17.5 -6.95 -17.4 -5.1 -17.2 -2.05 -16.75 0.95 -16.6 1.95 -16.35 2.85 -19.4 -2.45 -18.4 -9.0 M-6.85 -25.55 Q-8.0 -24.75 -9.05 -23.4 L-9.35 -23.35 Q-10.65 -23.15 -11.65 -22.75 -9.55 -24.65 -6.85 -25.55 M1.9 12.4 Q3.5 12.5 5.05 13.0 0.6 14.9 -4.25 13.1 -3.55 12.85 -2.85 12.75 -0.5 12.3 1.9 12.4 M14.75 1.7 L14.85 1.85 14.8 2.45 14.65 2.95 Q14.6 3.15 14.55 3.35 14.5 3.7 14.35 3.55 L14.25 3.45 Q14.25 2.8 14.1 2.2 14.2 1.9 14.45 1.7 L14.75 1.7 M11.95 -9.5 L12.0 -9.6 12.15 -9.45 Q12.05 -9.45 11.95 -9.5 M8.15 -4.2 L8.45 -5.15 Q8.6 -4.55 8.85 -3.95 L8.15 -4.2 M5.3 -25.6 Q3.7 -25.25 2.1 -26.35 3.75 -26.15 5.3 -25.6 M5.35 -23.85 L5.35 -23.85" fill="#ffe700" fill-opacity="0.7529412" fill-rule="evenodd" stroke="none"/>
    <path d="M-1.5 -9.4 Q-2.25 -9.55 -2.55 -8.8 -3.45 -6.85 -3.85 -4.75 -4.2 -2.95 -2.6 -2.45 L-2.4 -2.5 -2.05 -2.7 Q-1.8 -2.85 -1.55 -3.05 -1.45 -3.15 -1.35 -3.3 -0.65 -4.8 -0.3 -6.55 -0.2 -7.35 -0.8 -7.8 -0.75 -8.05 -0.8 -8.35 L-1.0 -8.95 Q-1.05 -9.15 -1.25 -9.3 L-1.5 -9.4 M19.05 6.5 Q18.95 6.05 19.15 5.75 L19.35 6.55 Q19.5 7.15 19.35 7.8 19.15 8.4 19.1 9.1 18.95 9.0 19.1 7.75 19.15 7.1 19.05 6.5 M19.05 -2.95 Q18.9 -3.0 18.75 -3.15 L18.4 -3.4 Q18.15 -3.45 18.35 -3.6 L18.65 -3.3 19.05 -3.0 19.05 -2.95 M5.0 -3.85 Q4.55 -2.95 4.4 -1.8 4.3 -1.1 4.35 -0.45 3.0 -2.2 0.15 -3.25 -0.5 -3.5 -0.9 -3.0 -4.1 1.15 -1.7 6.35 0.65 11.5 4.65 8.05 4.8 7.75 4.95 7.4 5.9 4.6 5.6 2.45 L6.35 3.3 6.5 3.5 Q6.5 3.65 6.6 3.7 L7.6 4.35 7.85 4.5 Q7.35 5.7 7.2 7.25 6.65 11.55 10.65 13.1 12.95 14.05 15.0 13.65 9.35 17.1 2.7 12.45 2.8 12.25 2.85 12.0 3.0 11.15 3.55 10.6 L3.55 10.7 Q3.65 11.3 4.0 11.85 4.45 12.55 5.25 12.9 6.15 13.2 6.7 12.4 L6.65 12.35 6.75 12.2 6.8 12.1 6.8 11.75 Q6.8 11.55 6.6 11.35 L4.9 9.75 Q4.7 9.5 4.4 9.5 3.2 10.0 2.7 11.3 2.45 11.85 2.6 12.35 L2.15 12.05 Q-8.35 4.25 -2.85 -8.25 -0.4 -13.75 4.4 -15.4 2.65 -14.2 1.35 -11.65 -0.05 -8.85 1.85 -6.55 3.4 -4.75 5.0 -3.85 M11.55 -15.6 Q10.85 -15.95 10.2 -16.15 16.55 -15.75 20.55 -10.45 27.1 -1.7 20.8 7.65 L20.65 7.85 Q20.95 5.15 18.7 2.8 17.5 1.55 15.95 1.1 16.25 0.25 16.4 -0.45 16.6 -0.05 16.9 0.4 L17.1 0.7 17.05 0.7 16.85 0.75 Q16.75 0.8 16.7 0.85 16.65 0.9 16.7 0.95 L17.25 0.9 Q19.65 4.15 22.85 2.45 25.3 -4.3 19.35 -7.6 18.1 -8.3 17.2 -7.2 16.0 -5.8 15.75 -4.3 15.1 -5.15 13.85 -5.7 14.55 -6.9 14.9 -8.3 15.2 -9.35 15.2 -10.3 15.3 -10.4 15.35 -10.55 15.85 -12.15 16.2 -11.4 16.5 -10.9 16.75 -10.4 17.0 -9.85 17.5 -9.5 17.9 -9.2 18.35 -9.3 L18.55 -9.45 18.75 -9.55 18.95 -9.8 Q19.15 -10.2 19.15 -10.7 L19.15 -11.65 Q19.15 -11.85 19.05 -12.05 L18.95 -12.15 Q18.55 -12.4 18.15 -12.65 17.75 -12.85 17.35 -12.95 17.1 -13.0 16.85 -12.9 16.3 -12.55 15.95 -12.1 15.55 -11.45 15.2 -10.75 15.05 -14.0 11.55 -15.6" fill="#ffe700" fill-opacity="0.7529412" fill-rule="evenodd" stroke="none"/>
    <path d="M19.55 -0.55 Q20.1 -4.05 16.55 -4.1 12.8 -4.15 11.35 -0.8 10.85 0.3 11.75 1.0 12.9 2.0 14.1 2.35 13.55 3.1 13.4 4.3 13.15 5.95 14.2 7.2 L14.7 7.8 14.8 7.95 14.85 8.05 Q15.25 8.25 15.55 8.5 L15.9 8.75 16.0 8.8 16.2 9.0 Q16.35 9.1 16.45 9.15 L16.55 9.05 16.85 9.05 16.95 9.1 16.75 9.45 Q16.65 9.55 16.55 9.55 L16.55 9.45 16.45 9.4 16.3 9.25 Q16.45 9.75 16.55 11.15 16.7 13.3 18.85 13.8 20.85 14.3 22.2 12.6 22.75 11.4 22.75 10.05 22.75 7.65 20.6 7.45 L20.9 7.2 21.15 6.7 Q22.95 2.1 18.6 1.2 L19.25 0.6 Q19.45 0.1 19.55 -0.55 M16.4 -5.55 Q21.4 -5.65 24.4 -1.6 28.95 4.4 24.6 10.8 19.05 19.15 11.85 13.8 4.65 8.45 8.45 -0.1 10.75 -5.45 16.4 -5.55 M11.75 9.75 Q12.0 9.0 11.85 8.1 11.7 7.2 11.25 6.4 10.85 5.75 10.25 5.6 9.3 6.05 9.4 7.05 9.55 8.15 9.95 9.15 10.3 10.0 11.1 10.2 L11.25 10.15 11.45 10.0 11.75 9.75 M25.6 5.9 Q25.85 4.95 25.05 4.65 23.3 4.05 22.3 6.0 L22.2 6.0 22.05 6.05 21.9 6.05 Q21.8 6.1 21.8 6.15 L21.8 6.2 Q22.45 6.3 22.75 5.7 23.35 4.55 23.5 5.1 L23.6 5.85 Q23.7 6.5 24.25 6.85 24.95 7.25 25.35 6.55 25.5 6.25 25.6 5.9" fill="#ffe700" fill-opacity="0.7529412" fill-rule="evenodd" stroke="none"/>
  </g>
</svg>
