<?xml version="1.0" encoding="UTF-8" standalone="no"?>
<svg xmlns:ffdec="https://www.free-decompiler.com/flash" xmlns:xlink="http://www.w3.org/1999/xlink" ffdec:objectType="shape" height="45.2px" width="21.35px" xmlns="http://www.w3.org/2000/svg">
  <g transform="matrix(1.0, 0.0, 0.0, 1.0, 10.75, 40.4)">
    <path d="M5.6 -35.65 Q6.4 -34.5 7.0 -33.8 7.7 -32.95 7.85 -31.85 7.9 -30.6 8.0 -30.0 8.15 -29.05 8.65 -27.95 9.05 -27.05 9.05 -26.35 9.05 -26.0 8.75 -25.25 8.45 -24.5 8.45 -24.25 8.45 -24.05 8.65 -23.4 L9.0 -21.95 Q9.5 -19.6 9.5 -17.4 9.5 -16.35 9.8 -15.65 10.05 -14.95 10.05 -14.25 10.05 -13.5 9.45 -12.2 8.85 -11.0 8.85 -10.9 8.85 -10.75 9.0 -9.9 L9.2 -8.85 Q9.2 -7.35 8.2 -5.45 L7.4 -3.8 Q6.95 -2.8 6.7 -1.8 6.3 -0.15 4.2 2.0 2.0 4.3 0.4 4.3 L0.15 4.25 0.0 4.3 Q-1.05 4.3 -3.4 2.5 -4.6 1.6 -5.6 0.65 -6.05 0.15 -6.75 -1.7 -7.35 -3.35 -7.35 -3.6 -7.35 -3.7 -8.05 -4.65 -8.75 -5.65 -8.75 -6.3 -8.75 -6.5 -8.6 -7.25 -8.45 -8.05 -8.45 -8.25 -8.45 -8.75 -8.95 -9.45 -9.45 -10.2 -9.45 -10.75 L-8.45 -13.35 Q-8.45 -14.15 -9.6 -16.4 -10.75 -18.65 -10.75 -19.25 -10.75 -19.8 -9.9 -21.6 -9.1 -23.45 -9.1 -24.1 -9.1 -24.55 -9.3 -25.4 -9.5 -26.25 -9.5 -26.6 -9.5 -27.5 -8.2 -30.1 -6.75 -32.95 -6.5 -34.1 -6.0 -36.4 -4.7 -37.95 -2.95 -40.1 -0.1 -40.3 L0.0 -40.3 0.75 -40.4 Q1.5 -40.4 2.9 -39.2 4.05 -38.2 4.45 -37.55 L5.6 -35.65 M2.0 -39.2 Q0.95 -39.7 -0.7 -39.9 L-0.9 -39.95 -1.35 -39.95 Q-1.65 -39.7 -1.9 -39.5 -2.05 -39.3 -2.4 -39.05 L-2.45 -39.05 -2.85 -38.7 -3.2 -38.4 -3.1 -38.35 Q-2.95 -38.25 -2.95 -38.0 -2.95 -37.25 -4.15 -35.75 -5.3 -34.3 -5.3 -33.75 -5.3 -33.7 -5.1 -33.4 -4.9 -33.05 -4.9 -32.9 -4.9 -32.85 -5.4 -31.0 -5.4 -30.6 -5.2 -30.4 -5.1 -30.3 -4.8 -30.1 -4.2 -29.75 -4.2 -28.95 -4.2 -28.55 -4.6 -28.0 L-5.45 -26.9 Q-6.75 -25.15 -6.75 -23.05 -6.75 -22.95 -7.05 -21.65 -7.35 -20.4 -7.35 -19.7 -7.35 -19.6 -7.1 -19.0 L-6.75 -18.3 -6.1 -18.25 Q-5.7 -17.95 -5.3 -17.0 -4.9 -16.15 -4.9 -15.85 -4.9 -15.75 -5.25 -14.8 L-5.6 -13.8 Q-5.6 -13.65 -5.45 -13.4 -5.3 -13.15 -5.3 -13.0 -5.3 -12.85 -5.55 -11.95 L-5.85 -11.0 Q-5.85 -10.9 -5.75 -10.8 L-5.5 -10.6 Q-5.15 -10.3 -5.0 -9.45 L-4.85 -8.9 -4.55 -7.95 -4.15 -6.5 Q-3.95 -5.55 -3.95 -5.0 -3.95 -4.25 -3.2 -3.5 -2.35 -2.55 -2.2 -2.2 -1.8 -1.15 -1.55 -0.75 L-1.5 -0.75 Q0.3 -0.5 1.35 -1.75 1.65 -2.1 2.0 -2.8 2.4 -3.5 2.55 -3.7 3.6 -4.95 4.5 -5.75 4.75 -6.05 4.85 -6.35 4.9 -6.7 4.9 -7.4 4.9 -8.55 5.2 -9.1 5.4 -9.45 5.8 -9.55 6.4 -9.75 6.45 -9.75 6.75 -9.95 6.75 -10.6 L6.5 -11.85 Q6.25 -13.05 6.25 -13.2 6.25 -13.9 6.8 -15.1 7.35 -16.25 7.35 -16.55 7.35 -17.05 6.15 -18.9 5.0 -20.75 5.0 -21.05 5.0 -21.65 5.55 -22.6 6.1 -23.55 6.1 -24.25 6.1 -24.45 5.55 -25.1 L5.0 -25.8 Q5.0 -26.4 5.95 -27.6 L6.9 -28.7 Q6.9 -29.95 5.6 -31.2 L4.75 -32.05 Q4.3 -32.45 4.3 -32.7 4.3 -32.9 4.5 -33.4 4.7 -33.9 4.7 -34.1 4.7 -34.55 3.8 -35.05 2.9 -35.6 2.75 -36.05 2.65 -36.45 2.6 -37.1 L2.6 -38.0 Q2.6 -38.35 2.15 -38.95 L2.0 -39.2 M3.45 -32.25 Q3.45 -31.85 3.1 -31.75 2.9 -31.65 2.3 -31.65 2.05 -31.65 2.05 -31.7 2.0 -31.75 2.05 -31.75 L2.0 -31.9 Q2.0 -32.05 2.0 -32.25 2.0 -33.15 2.7 -33.05 3.0 -33.0 3.2 -32.8 3.45 -32.55 3.45 -32.25 M4.45 -29.8 Q4.55 -29.3 4.55 -28.95 4.55 -28.7 4.45 -28.5 L4.25 -28.1 4.05 -28.05 3.9 -28.1 3.7 -28.25 Q4.0 -29.55 4.05 -30.55 L4.25 -30.6 Q4.35 -30.35 4.45 -29.8 M4.7 -16.25 Q4.55 -15.85 4.1 -15.85 3.55 -15.85 3.3 -16.85 3.15 -17.4 3.15 -17.95 3.15 -18.45 3.55 -18.9 4.0 -19.45 4.45 -18.7 4.5 -18.35 4.6 -17.65 4.7 -17.0 4.7 -16.8 4.7 -16.35 4.7 -16.25 M5.35 -13.05 Q5.35 -13.0 5.25 -12.85 5.05 -12.6 4.75 -12.4 4.7 -12.45 4.5 -12.95 4.3 -13.4 4.3 -13.5 4.3 -13.85 4.3 -13.9 4.8 -13.95 5.1 -13.6 5.35 -13.3 5.35 -13.05 M2.25 -7.4 L2.15 -7.5 Q2.1 -7.55 2.1 -7.75 2.1 -8.25 2.45 -8.95 2.75 -9.6 3.15 -10.05 3.55 -10.55 3.85 -10.5 4.15 -10.45 4.15 -9.7 4.15 -9.25 3.7 -8.4 3.15 -7.35 2.6 -7.35 L2.25 -7.4 M1.4 -5.65 L1.75 -5.55 1.8 -5.6 Q1.85 -5.6 1.85 -5.35 1.85 -5.05 1.6 -4.3 1.3 -3.4 1.0 -3.25 L0.75 -3.3 Q0.65 -3.35 0.65 -3.6 0.65 -3.9 0.8 -4.5 1.0 -5.35 1.4 -5.65 M-1.8 -30.25 L-1.95 -30.2 -1.85 -30.05 -1.8 -30.0 Q-1.8 -29.95 -1.8 -30.15 L-1.8 -30.25 M-1.8 -29.3 Q-2.25 -29.55 -2.5 -30.25 L-2.95 -31.6 -2.95 -32.25 Q-2.6 -32.15 -1.95 -31.55 -1.3 -30.95 -1.3 -30.75 -1.3 -30.5 -1.45 -30.05 -1.65 -29.5 -1.8 -29.3 M-3.5 -23.6 Q-3.5 -23.2 -3.55 -22.9 L-3.55 -22.85 Q-3.6 -22.8 -3.8 -22.8 -4.1 -22.8 -4.35 -23.45 L-4.55 -24.0 Q-4.55 -24.35 -4.4 -24.5 -4.25 -24.65 -4.05 -24.55 -3.5 -24.4 -3.5 -23.6 M-3.2 -22.6 Q-3.2 -24.9 -2.4 -24.8 -2.15 -24.75 -1.9 -24.35 -1.65 -24.0 -1.65 -23.6 -1.65 -22.65 -1.8 -22.2 -2.1 -21.3 -3.05 -21.25 -3.2 -22.1 -3.2 -22.6 M-2.25 -17.75 Q-2.3 -17.55 -2.35 -17.5 -2.45 -17.35 -2.7 -17.35 -3.25 -17.35 -3.65 -18.05 -4.0 -18.6 -4.0 -18.8 -4.0 -19.0 -3.85 -19.3 -3.75 -19.6 -3.75 -19.75 L-3.65 -19.75 Q-3.15 -19.45 -2.75 -18.75 L-2.25 -17.75 M-2.35 -15.8 L-2.1 -15.35 Q-2.05 -15.0 -2.1 -14.8 -2.15 -14.5 -2.5 -14.3 -2.75 -14.05 -2.95 -14.05 L-2.85 -14.25 -2.9 -14.3 Q-2.95 -14.35 -2.95 -14.6 -2.95 -14.9 -2.85 -15.2 -2.7 -15.65 -2.35 -15.8 M-2.2 -10.8 Q-1.6 -9.5 -1.6 -8.65 -1.6 -8.35 -1.75 -8.15 L-2.0 -7.95 Q-2.3 -7.7 -1.75 -7.0 -1.95 -7.05 -2.35 -7.55 -2.75 -8.1 -2.75 -8.45 -2.75 -8.6 -2.5 -9.1 -2.2 -9.65 -2.15 -9.7 -2.5 -10.3 -3.4 -11.05 -4.0 -11.55 -4.0 -12.05 -4.0 -12.4 -3.8 -12.75 -3.65 -13.05 -3.4 -13.2 -2.8 -13.45 -2.8 -12.2 -2.8 -12.05 -2.2 -10.8 M-1.5 -5.75 L-1.6 -5.75 Q-1.7 -5.95 -1.7 -6.15 -1.6 -6.2 -1.45 -6.15 -1.35 -6.15 -1.35 -6.05 L-1.5 -5.75" fill="#59a5ff" fill-opacity="0.5019608" fill-rule="evenodd" stroke="none"/>
    <path d="M1.7 -40.05 Q3.3 -39.15 5.4 -36.5 7.25 -34.25 7.65 -33.2 7.9 -32.6 7.95 -31.45 8.0 -30.15 8.1 -29.7 8.4 -28.35 8.8 -27.65 9.05 -27.2 9.05 -26.25 9.05 -25.85 8.85 -25.1 8.65 -24.35 8.65 -23.95 8.65 -23.1 9.15 -21.7 9.6 -20.4 9.55 -19.2 9.5 -18.4 9.85 -16.85 10.25 -15.2 10.25 -14.55 10.25 -13.35 9.8 -12.45 9.4 -11.55 9.4 -9.85 9.45 -8.55 9.4 -8.2 L8.8 -5.85 Q8.7 -5.3 7.8 -3.95 7.0 -2.75 6.95 -2.05 6.75 0.0 3.65 2.5 2.5 3.4 1.35 4.05 0.25 4.7 -0.05 4.7 -0.5 4.7 -0.65 4.3 -1.15 4.05 -1.95 3.35 -3.3 2.1 -3.55 1.95 -4.0 1.7 -4.7 0.8 L-4.8 1.0 Q-5.9 0.25 -7.35 -2.95 -7.85 -4.05 -8.25 -5.15 -8.55 -6.1 -8.55 -6.25 -8.55 -6.5 -8.35 -7.15 -8.15 -7.8 -8.15 -8.0 -8.15 -8.25 -8.25 -8.6 -8.8 -9.2 -8.95 -9.45 -9.2 -9.85 -9.2 -10.35 -9.2 -10.9 -8.8 -11.75 -8.45 -12.6 -8.45 -13.2 -8.45 -14.35 -9.55 -16.4 -10.1 -17.4 -10.25 -17.85 -10.6 -18.7 -10.6 -19.35 -10.6 -20.0 -10.35 -20.7 L-9.8 -21.9 Q-9.05 -23.45 -9.2 -24.6 -9.35 -26.15 -9.25 -27.15 -9.15 -28.6 -8.5 -29.7 -7.7 -31.05 -7.1 -32.3 -6.6 -33.35 -6.0 -34.8 -5.15 -36.95 -4.9 -37.4 -4.0 -39.1 -2.65 -39.6 -3.75 -38.6 -4.45 -37.35 L-4.45 -36.9 Q-4.45 -36.5 -4.85 -36.0 -5.25 -35.5 -5.25 -35.3 -5.25 -35.05 -5.95 -33.1 -6.6 -31.15 -6.6 -30.35 -6.6 -30.05 -6.95 -29.55 L-7.2 -29.15 -7.25 -28.4 -7.1 -27.1 Q-6.95 -26.0 -6.95 -25.8 -6.95 -25.1 -7.2 -24.5 L-7.75 -23.4 -7.85 -23.15 Q-7.75 -22.7 -7.75 -22.5 -7.75 -21.85 -8.3 -20.1 L-8.5 -19.55 Q-8.35 -18.95 -7.5 -17.1 -6.95 -15.85 -6.65 -15.1 -6.95 -15.7 -7.5 -16.3 -8.25 -17.15 -8.4 -17.4 -8.75 -17.9 -8.8 -18.5 L-8.9 -18.05 Q-8.9 -17.4 -8.55 -16.9 -8.35 -16.65 -7.75 -16.05 -7.2 -15.5 -6.95 -15.05 -6.6 -14.4 -6.6 -13.5 -6.6 -13.35 -6.75 -12.5 -6.85 -11.65 -6.85 -11.5 -6.45 -10.3 -6.45 -10.05 -6.45 -9.85 -6.6 -9.25 -6.75 -8.6 -6.75 -8.4 -6.75 -7.7 -6.3 -6.8 L-6.1 -6.3 Q-6.45 -8.15 -6.4 -9.25 L-6.25 -10.65 Q-6.15 -11.65 -6.15 -12.65 L-6.15 -12.85 Q-6.1 -12.2 -6.15 -11.3 -6.2 -9.25 -6.1 -8.55 -6.05 -8.1 -5.7 -7.1 -5.3 -6.15 -5.3 -5.7 L-5.2 -4.85 Q-4.95 -4.4 -4.9 -3.5 -4.75 -3.2 -4.6 -2.95 -4.45 -2.7 -3.5 -1.6 -2.7 -0.65 -2.6 -0.2 -2.45 0.5 -2.1 1.2 L-2.05 1.35 Q-0.95 1.6 -0.45 2.0 -0.35 1.65 -0.05 1.5 0.3 1.3 1.05 1.3 L2.15 1.25 Q2.45 1.1 2.55 0.8 L2.15 1.15 2.05 1.15 Q2.1 1.0 2.55 0.6 L2.55 0.5 Q2.45 -0.3 2.85 -1.2 3.25 -2.1 3.8 -2.15 3.95 -2.7 4.25 -3.05 5.75 -4.7 6.1 -5.15 6.95 -6.35 6.95 -7.35 6.95 -7.75 7.1 -8.35 7.2 -8.7 7.35 -9.0 7.75 -10.05 7.75 -11.2 L7.55 -12.4 Q7.35 -13.55 7.35 -13.75 7.35 -14.15 7.85 -15.4 L8.3 -16.65 Q8.0 -17.4 8.0 -17.95 8.0 -18.1 8.2 -18.6 L8.25 -18.65 8.1 -20.5 7.8 -21.35 7.55 -21.7 Q6.85 -22.45 6.7 -22.75 6.4 -23.3 6.4 -24.6 6.4 -24.8 6.85 -26.35 L7.45 -28.6 7.45 -30.5 Q7.25 -31.45 7.0 -31.7 6.5 -32.3 6.4 -33.0 6.3 -33.9 6.15 -34.15 5.7 -35.0 4.8 -35.55 4.45 -35.8 4.35 -35.9 4.15 -36.15 4.15 -36.55 L4.1 -36.95 4.7 -36.3 3.55 -37.7 1.6 -40.0 Q1.6 -40.35 1.7 -40.05 M3.6 -37.4 L3.7 -37.5 3.8 -37.35 3.6 -37.4 M3.3 -32.75 Q3.4 -32.7 3.4 -32.5 3.4 -32.35 3.25 -32.15 L2.95 -31.85 2.7 -31.95 Q2.65 -32.0 2.65 -32.25 2.65 -32.5 3.1 -32.75 L3.3 -32.75 M4.8 -28.45 Q4.7 -28.2 4.4 -27.9 L4.2 -28.1 Q4.15 -28.2 4.15 -28.45 L4.2 -29.1 4.3 -29.85 4.4 -29.85 4.6 -29.9 Q4.8 -29.4 4.8 -28.95 4.8 -28.55 4.8 -28.45 M7.35 -32.2 Q7.2 -32.75 6.95 -33.2 L6.6 -33.7 6.6 -33.25 Q6.6 -33.0 7.05 -32.55 L7.35 -32.2 M7.85 -26.8 Q7.85 -27.35 7.7 -28.5 7.6 -27.7 7.35 -26.7 L6.85 -24.75 6.9 -24.3 Q6.95 -25.0 7.35 -25.6 7.85 -26.35 7.85 -26.8 M4.25 -18.55 Q4.4 -18.4 4.65 -17.7 L4.85 -16.95 4.85 -16.65 4.8 -16.65 4.7 -16.6 Q4.65 -16.5 4.55 -16.5 4.5 -16.55 4.2 -17.1 3.95 -17.75 3.95 -17.95 3.95 -18.4 4.25 -18.55 M8.25 -15.65 Q7.65 -14.45 7.65 -14.2 L7.9 -12.8 Q8.1 -11.5 8.1 -11.15 8.1 -10.7 8.05 -10.15 L8.1 -10.25 Q8.55 -11.05 8.55 -11.45 8.55 -11.6 8.35 -12.35 8.15 -13.15 8.15 -13.25 8.15 -13.7 8.5 -14.1 8.85 -14.55 8.85 -14.9 8.85 -15.4 8.5 -16.2 L8.25 -15.65 M5.4 -13.35 L5.4 -12.8 5.2 -12.6 Q5.05 -12.7 4.85 -12.9 L4.7 -13.15 Q4.7 -13.4 4.9 -13.45 L5.35 -13.45 5.4 -13.35 M2.75 -8.55 Q3.05 -9.1 3.3 -9.5 4.15 -10.6 4.15 -9.45 4.15 -9.0 3.85 -8.4 3.45 -7.6 2.9 -7.6 L2.6 -7.65 2.6 -7.7 2.55 -7.7 Q2.5 -7.75 2.5 -7.95 2.5 -8.05 2.75 -8.55 M1.8 -3.9 Q1.6 -3.6 1.4 -3.45 L1.05 -3.5 Q1.0 -3.55 1.0 -3.8 1.0 -4.35 1.5 -4.8 2.05 -5.2 2.05 -4.4 2.05 -4.25 1.8 -3.9 M4.3 -2.0 Q4.5 -1.85 4.7 -1.85 5.55 -1.85 6.05 -3.75 L6.4 -5.0 6.35 -4.95 Q6.05 -4.45 5.05 -3.35 4.4 -2.6 4.1 -2.1 L4.3 -2.0 M-7.65 -28.55 Q-8.65 -27.1 -8.65 -25.75 -8.65 -25.55 -8.2 -24.25 L-8.1 -24.0 Q-7.95 -24.45 -7.95 -24.5 L-7.7 -25.95 Q-7.5 -27.35 -7.5 -28.4 L-7.45 -28.85 -7.65 -28.55 M-1.75 -30.3 Q-1.75 -30.05 -1.8 -30.0 L-1.9 -29.85 -1.9 -29.8 Q-1.9 -29.75 -2.1 -29.75 -2.45 -29.75 -2.6 -30.25 -2.65 -30.5 -2.7 -30.8 -2.7 -31.0 -2.8 -31.25 L-3.0 -31.75 -2.95 -32.0 Q-2.5 -31.95 -2.1 -31.25 -1.75 -30.65 -1.75 -30.3 M-4.0 -23.2 L-4.05 -23.1 -4.25 -23.0 Q-4.6 -23.15 -4.7 -23.45 -4.7 -23.55 -4.7 -23.85 -4.7 -24.15 -4.65 -24.25 -4.55 -24.35 -4.4 -24.45 -4.25 -24.3 -4.1 -24.0 L-3.95 -23.6 -4.0 -23.2 M-3.1 -23.2 Q-3.1 -23.9 -2.5 -24.2 L-2.45 -24.25 Q-2.4 -24.25 -2.4 -24.05 -2.4 -22.7 -2.9 -21.95 L-3.05 -21.95 Q-3.05 -22.35 -3.1 -23.2 M-3.6 -19.05 L-3.25 -18.5 -2.8 -17.85 Q-2.9 -17.55 -3.25 -17.55 -3.65 -17.55 -3.95 -18.55 -3.95 -18.8 -3.85 -18.9 -3.8 -19.0 -3.6 -19.05 M-2.25 -15.3 L-2.25 -14.65 -2.35 -14.6 -2.55 -14.45 -2.75 -14.5 Q-2.8 -14.55 -2.8 -14.8 -2.8 -15.2 -2.55 -15.3 L-2.25 -15.3 M-2.7 -10.8 Q-2.75 -10.7 -2.95 -10.7 -3.5 -10.7 -3.7 -11.3 -3.85 -11.6 -3.85 -11.9 -3.85 -12.15 -3.8 -12.3 L-3.65 -12.5 Q-3.45 -12.45 -3.05 -11.85 -2.65 -11.3 -2.6 -11.0 -2.65 -10.85 -2.7 -10.8 M-2.05 -8.85 Q-1.95 -8.65 -1.95 -8.45 -1.95 -8.0 -2.2 -7.75 -2.6 -8.1 -2.6 -8.45 L-2.55 -8.8 Q-2.45 -9.0 -2.2 -9.2 L-2.05 -8.85 M-6.25 -13.95 L-6.35 -14.3 -6.3 -14.1 -6.25 -13.95 M-4.75 -1.7 Q-4.6 -1.0 -3.6 0.1 L-3.05 0.7 Q-3.1 -0.55 -3.8 -1.15 -4.4 -1.7 -4.8 -2.35 L-4.75 -1.7" fill="#8cc1ff" fill-opacity="0.7529412" fill-rule="evenodd" stroke="none"/>
    <path d="M3.15 -32.45 L3.3 -32.45 Q3.45 -32.3 3.45 -32.0 3.3 -31.9 3.15 -31.9 L3.1 -31.9 Q3.05 -31.9 3.05 -32.1 3.05 -32.35 3.1 -32.4 L3.15 -32.45 M5.0 -29.45 L5.05 -29.2 5.05 -28.35 4.95 -28.3 4.8 -28.2 Q4.6 -28.45 4.6 -28.9 L4.6 -29.25 Q4.65 -29.55 4.9 -29.65 4.95 -29.6 5.0 -29.45 M8.8 -28.45 Q9.4 -27.25 9.4 -26.75 9.4 -26.2 8.95 -25.2 8.5 -24.25 8.5 -24.15 8.5 -24.05 8.95 -22.75 9.45 -21.5 9.45 -21.0 L9.35 -19.25 9.25 -17.95 9.8 -16.95 Q10.3 -16.0 10.3 -15.3 10.3 -14.75 10.15 -13.95 L9.8 -12.35 Q9.3 -9.9 9.3 -7.5 9.3 -6.8 9.0 -5.8 8.6 -4.35 7.85 -4.3 L7.5 -3.3 Q6.9 -1.55 6.75 -1.1 6.5 -0.05 5.6 1.15 4.6 2.5 3.7 2.6 3.55 3.15 2.45 3.85 1.05 4.8 -0.45 4.8 -0.7 4.8 -2.25 3.5 L-4.3 1.65 Q-5.5 0.5 -5.9 -0.05 -6.35 -0.7 -6.35 -1.5 -6.8 -2.1 -7.45 -3.45 -8.65 -5.85 -8.65 -6.05 -8.65 -6.2 -8.35 -7.05 -8.1 -7.9 -8.1 -8.2 -8.1 -8.3 -8.55 -9.15 -8.95 -10.0 -8.95 -10.6 -8.95 -11.4 -8.9 -11.55 -8.85 -11.7 -8.45 -12.0 -8.4 -12.4 -8.4 -12.5 -8.4 -14.55 -9.4 -16.55 L-10.1 -17.85 Q-10.4 -18.5 -10.4 -18.95 -10.4 -20.0 -10.15 -20.55 L-9.2 -22.5 Q-8.85 -23.35 -9.0 -24.3 L-9.15 -25.1 Q-9.2 -25.55 -9.2 -25.95 L-9.1 -27.0 Q-8.95 -27.85 -8.95 -28.0 -8.95 -28.7 -7.95 -30.35 -6.75 -32.35 -6.7 -32.5 L-6.05 -34.8 Q-5.7 -36.1 -5.2 -36.75 L-5.2 -36.55 Q-5.55 -34.75 -5.8 -33.9 -6.2 -32.35 -6.65 -31.35 -7.1 -30.45 -7.6 -29.7 L-8.3 -28.6 Q-8.95 -27.65 -8.95 -26.3 -8.95 -25.25 -8.55 -24.4 -8.2 -23.6 -8.2 -22.85 -8.2 -22.65 -8.55 -21.2 -8.95 -19.7 -8.95 -18.8 -8.95 -18.7 -9.05 -18.55 -9.25 -18.35 -9.75 -18.2 -9.7 -17.9 -9.45 -17.3 -9.2 -16.8 -9.2 -16.55 -9.2 -16.4 -8.55 -15.55 -7.9 -14.75 -7.65 -14.6 -7.9 -15.4 -7.9 -15.95 -7.9 -16.05 -8.05 -16.35 L-8.3 -16.85 -8.2 -16.95 Q-7.05 -14.85 -7.05 -12.15 -7.05 -12.0 -7.15 -11.65 -7.3 -11.35 -7.3 -11.2 -7.3 -11.0 -7.4 -10.7 -7.55 -10.45 -7.55 -10.25 -7.55 -10.05 -7.7 -9.75 -7.8 -9.6 -7.95 -9.45 -7.45 -8.2 -6.9 -6.75 -5.75 -3.55 -5.75 -2.45 -5.75 -2.3 -5.6 -1.85 -5.45 -1.45 -5.45 -1.3 L-5.45 -1.05 Q-4.85 -0.3 -3.8 0.65 L-0.8 3.3 Q-0.1 2.95 1.45 2.5 L3.05 2.1 3.05 1.9 Q3.05 0.95 3.35 0.45 3.6 0.1 4.2 -0.15 L5.15 -0.5 Q5.65 -0.8 5.9 -1.35 6.0 -1.6 6.05 -2.4 6.1 -3.15 6.3 -3.5 6.55 -3.95 7.15 -4.7 L7.35 -4.95 7.3 -5.25 Q7.2 -5.7 7.2 -6.25 7.2 -7.35 7.45 -8.1 7.6 -8.45 8.05 -9.2 8.5 -9.9 8.65 -10.5 8.95 -11.5 8.95 -13.0 L9.3 -14.3 Q9.3 -14.8 9.1 -15.5 L8.7 -16.8 Q8.55 -17.25 8.6 -18.15 L8.75 -19.25 Q8.75 -19.95 8.15 -21.8 L7.55 -23.6 Q7.55 -24.5 8.0 -25.55 8.45 -26.6 8.45 -26.8 8.45 -26.9 8.0 -27.55 7.6 -28.2 7.6 -28.6 7.6 -29.0 7.85 -29.5 8.1 -30.0 8.1 -30.6 8.1 -31.8 7.95 -32.4 7.8 -32.9 7.4 -33.4 L6.35 -34.55 Q5.55 -35.55 4.7 -36.75 7.4 -34.8 7.95 -33.15 8.2 -32.5 8.2 -31.55 L8.2 -29.75 Q8.2 -29.6 8.8 -28.45 M4.85 -17.55 Q5.0 -17.25 5.1 -17.15 5.05 -17.0 4.9 -16.85 4.65 -16.9 4.45 -17.2 4.3 -17.45 4.3 -17.65 4.3 -17.85 4.4 -17.95 L4.55 -18.0 Q4.75 -17.8 4.85 -17.55 M8.0 -7.65 Q7.8 -6.65 7.8 -6.3 L7.85 -6.0 7.85 -5.95 8.2 -7.45 Q8.4 -8.4 8.3 -8.95 L8.3 -8.9 Q8.2 -8.6 8.0 -7.65 M4.05 -9.15 Q4.1 -9.05 4.1 -8.8 4.1 -8.65 3.8 -8.35 L3.4 -7.9 3.25 -7.85 Q3.1 -7.85 3.1 -8.05 3.1 -8.25 3.4 -8.7 3.7 -9.2 3.9 -9.25 L4.05 -9.15 M2.25 -4.0 Q2.2 -3.85 2.1 -3.65 1.95 -3.5 1.7 -3.4 L1.5 -3.45 Q1.4 -3.5 1.4 -3.75 1.4 -4.1 2.05 -4.2 L2.25 -4.0 M1.05 3.25 Q0.75 3.4 0.2 3.45 L0.35 3.55 0.65 3.6 Q0.8 3.6 1.35 3.05 1.3 3.05 1.05 3.25 M-2.5 -31.1 Q-2.35 -30.85 -2.35 -30.65 -2.35 -30.4 -2.4 -30.3 L-2.5 -30.2 -2.85 -30.7 -3.05 -31.1 Q-3.05 -31.35 -2.95 -31.45 -2.9 -31.55 -2.8 -31.55 L-2.5 -31.1 M-3.0 -22.9 L-3.05 -23.0 Q-3.0 -23.2 -2.95 -24.05 L-2.75 -24.05 -2.65 -23.85 -2.65 -23.5 Q-2.65 -23.2 -2.7 -23.15 -2.75 -23.05 -2.95 -22.9 L-3.0 -22.9 M-4.2 -23.45 Q-4.2 -23.3 -4.3 -23.2 -4.55 -23.35 -4.75 -23.65 L-4.7 -23.95 Q-4.55 -23.9 -4.4 -23.8 L-4.2 -23.45 M-3.35 -17.7 Q-3.45 -17.55 -3.55 -17.55 L-3.9 -17.85 Q-4.1 -18.05 -4.1 -18.15 -4.1 -18.4 -4.1 -18.45 L-3.95 -18.55 Q-3.65 -18.45 -3.2 -17.85 -3.25 -17.8 -3.35 -17.7 M-2.85 -11.15 L-2.95 -11.0 -3.1 -10.95 -3.45 -11.25 -3.55 -11.4 Q-3.55 -11.65 -3.45 -11.8 -3.35 -12.0 -3.2 -12.0 L-3.0 -11.7 -2.8 -11.35 -2.85 -11.15 M-2.35 -9.3 L-2.2 -9.05 Q-2.1 -8.9 -2.1 -8.7 -2.1 -8.45 -2.15 -8.5 L-2.15 -8.55 -2.25 -8.45 -2.45 -8.55 Q-2.55 -8.7 -2.55 -8.9 -2.55 -9.25 -2.5 -9.3 L-2.35 -9.3 M-7.45 -13.55 Q-7.45 -12.7 -7.5 -12.25 -7.3 -13.0 -7.45 -13.55 M-7.6 -7.6 L-7.8 -7.05 Q-7.95 -6.65 -7.95 -6.45 -7.95 -6.35 -7.2 -5.1 -6.45 -3.75 -6.25 -2.95 L-6.2 -2.85 -6.2 -3.05 Q-6.2 -3.85 -6.8 -5.45 L-7.6 -7.65 -7.6 -7.6" fill="#bfdcff" fill-opacity="0.7529412" fill-rule="evenodd" stroke="none"/>
    <path d="M3.55 -32.35 L3.5 -32.1 3.3 -32.1 Q3.25 -32.2 3.25 -32.4 L3.4 -32.4 3.55 -32.35 M5.3 -28.6 Q5.25 -28.5 5.1 -28.45 4.9 -28.6 4.85 -28.7 4.75 -28.85 4.75 -29.1 4.75 -29.45 4.8 -29.3 5.3 -29.3 5.3 -28.6 M6.45 -34.7 L6.35 -35.25 6.45 -35.25 6.5 -35.3 Q7.15 -35.0 7.5 -34.2 L8.0 -32.95 7.95 -32.85 7.25 -33.95 Q6.75 -34.65 6.45 -34.7 M8.55 -29.25 Q8.65 -28.2 8.95 -27.7 9.2 -27.3 9.2 -26.55 9.2 -25.7 9.0 -24.95 8.8 -24.25 8.8 -23.8 8.8 -23.25 9.05 -22.2 9.3 -21.15 9.3 -19.95 9.3 -18.55 9.95 -17.3 L10.4 -16.45 Q10.6 -16.0 10.6 -15.55 10.6 -14.65 10.5 -14.1 10.4 -13.75 10.1 -13.2 9.5 -11.85 9.25 -9.95 9.2 -9.45 9.2 -8.55 L9.25 -7.05 Q9.25 -5.25 8.45 -4.4 7.75 -3.6 7.15 -1.7 6.55 0.25 6.0 0.85 4.55 2.45 3.4 3.3 1.55 4.65 -0.1 4.7 L-0.35 4.7 Q-1.0 4.7 -1.85 3.6 L-2.95 2.25 Q-3.5 1.85 -4.45 1.2 -5.25 0.6 -5.65 0.1 -6.0 -0.35 -6.3 -1.05 L-6.75 -2.35 Q-6.85 -2.55 -7.75 -3.6 -8.55 -4.6 -8.55 -4.8 L-8.4 -6.0 Q-8.2 -7.05 -8.2 -7.25 -8.2 -7.7 -8.6 -8.85 -9.0 -10.05 -9.0 -10.65 -9.0 -11.35 -8.7 -11.8 -8.35 -12.2 -8.35 -12.8 -8.35 -13.95 -9.45 -16.1 L-10.25 -17.6 Q-10.55 -18.4 -10.55 -18.85 -10.55 -20.05 -9.7 -21.7 L-9.2 -22.3 Q-8.9 -22.65 -9.0 -22.85 L-9.0 -23.5 Q-9.05 -23.85 -9.15 -24.15 L-9.15 -25.0 -9.05 -25.0 -8.95 -23.95 Q-8.85 -23.25 -8.85 -23.1 -8.85 -21.7 -9.4 -20.45 -9.95 -19.45 -9.95 -19.3 -9.95 -18.35 -8.8 -15.55 -7.7 -12.75 -7.7 -11.7 -7.7 -11.55 -7.95 -10.7 L-8.15 -9.8 Q-8.15 -9.55 -8.0 -8.85 -7.9 -8.15 -7.9 -8.0 -7.9 -7.8 -8.05 -6.8 L-8.2 -5.55 Q-8.2 -5.25 -6.55 -2.9 -6.25 -2.5 -6.0 -1.65 -5.8 -0.8 -5.5 -0.35 -5.2 0.1 -4.15 0.85 -3.0 1.65 -2.6 1.95 -2.2 2.25 -1.4 3.25 -0.9 3.85 -0.3 4.25 0.25 3.95 1.1 3.6 2.35 3.1 2.75 2.9 3.15 2.65 3.6 2.25 L3.75 1.75 Q3.95 1.1 4.1 0.8 4.6 -0.15 5.85 -0.25 L6.0 -0.6 Q6.2 -1.05 6.4 -2.05 6.55 -3.0 6.75 -3.45 7.0 -4.15 7.5 -4.45 8.65 -5.25 8.85 -6.8 8.95 -7.7 8.85 -9.55 8.9 -10.45 9.5 -12.45 10.1 -14.3 10.1 -14.85 10.1 -15.25 9.75 -16.0 L9.2 -17.1 Q9.05 -17.5 9.05 -18.2 L8.95 -19.3 Q8.75 -20.35 8.45 -21.65 8.2 -22.7 8.2 -23.8 8.2 -24.35 8.45 -25.2 8.7 -26.0 8.7 -26.55 8.7 -26.75 8.55 -27.35 8.4 -28.0 8.4 -28.15 L8.45 -29.25 8.55 -29.25 M5.2 -17.0 L5.0 -17.0 Q4.95 -17.1 4.95 -17.4 L5.05 -17.4 Q5.15 -17.4 5.3 -17.35 5.3 -17.1 5.2 -17.0 M4.0 -8.0 Q3.9 -7.95 3.8 -7.95 L3.55 -7.95 Q3.55 -8.0 3.55 -8.2 3.55 -8.75 3.9 -8.8 L4.05 -8.65 Q4.1 -8.55 4.1 -8.3 L4.1 -8.05 4.05 -8.05 4.0 -8.0 M2.35 -3.45 L2.0 -3.3 1.85 -3.3 Q1.8 -3.3 1.8 -3.5 1.8 -3.75 1.95 -3.8 L2.2 -3.85 Q2.35 -3.7 2.35 -3.45 M5.25 0.05 Q4.4 0.55 4.1 1.25 L3.8 2.05 4.0 1.85 Q4.9 0.9 5.25 0.6 5.5 0.35 5.75 0.0 L5.25 0.05 M-6.0 -34.45 L-6.0 -34.25 Q-6.0 -33.3 -7.2 -31.15 -8.7 -28.5 -8.8 -28.2 L-9.0 -28.2 Q-8.95 -28.9 -8.5 -29.8 -8.25 -30.3 -7.55 -31.4 -6.85 -32.45 -6.6 -32.95 -6.15 -33.85 -6.15 -34.5 L-6.05 -34.5 -6.0 -34.45 M-2.8 -30.6 L-2.85 -30.55 Q-2.95 -30.5 -3.05 -30.5 L-3.1 -30.45 Q-3.15 -30.5 -3.15 -30.7 L-3.1 -31.0 -3.05 -31.05 -2.9 -31.05 Q-2.8 -30.85 -2.8 -30.6 M-3.3 -11.65 L-3.05 -11.6 -2.95 -11.5 Q-2.95 -11.4 -3.1 -11.25 L-3.25 -11.3 Q-3.4 -11.4 -3.45 -11.45 L-3.45 -11.6 -3.3 -11.65 M-2.5 -8.7 Q-2.65 -8.7 -2.7 -8.8 -2.65 -8.85 -2.55 -8.9 -2.45 -8.9 -2.25 -8.8 -2.3 -8.7 -2.5 -8.7" fill="#ffffff" fill-rule="evenodd" stroke="none"/>
  </g>
</svg>
