<?xml version="1.0" encoding="UTF-8" standalone="no"?>
<svg xmlns:ffdec="https://www.free-decompiler.com/flash" xmlns:xlink="http://www.w3.org/1999/xlink" ffdec:objectType="shape" height="33.9px" width="30.35px" xmlns="http://www.w3.org/2000/svg">
  <g transform="matrix(1.0, 0.0, 0.0, 1.0, 12.9, 40.3)">
    <path d="M5.05 -33.45 L5.0 -33.35 Q4.55 -33.15 4.15 -32.85 3.95 -32.85 3.75 -33.0 L3.65 -33.15 3.6 -33.2 3.7 -33.3 Q3.95 -33.4 4.15 -33.4 L4.55 -33.5 4.85 -33.5 Q5.1 -33.6 5.05 -33.45 M1.45 -27.3 Q1.4 -27.0 1.45 -26.7 L0.65 -26.65 1.45 -27.3 M-3.5 -27.95 L-3.5 -27.8 -3.55 -27.8 -3.5 -27.95 M1.5 -14.65 Q1.6 -13.7 2.3 -13.2 2.25 -12.7 2.3 -12.15 1.4 -12.15 0.5 -12.0 1.1 -13.4 1.2 -14.7 L1.5 -14.65 M9.0 -20.65 L9.05 -20.6 8.95 -20.55 9.0 -20.65 M14.1 -23.8 L14.15 -23.85 14.15 -23.8 14.1 -23.8 M8.55 -8.3 Q10.65 -9.35 12.6 -10.6 13.3 -11.0 13.85 -11.45 11.0 -7.65 6.05 -6.4 L6.15 -6.65 6.2 -6.75 Q7.25 -7.65 8.55 -8.3 M15.1 -27.3 Q14.7 -28.45 14.6 -29.7 17.25 -27.15 17.45 -23.1 17.1 -23.55 16.75 -24.05 15.75 -25.55 15.1 -27.3 M-12.45 -15.7 Q-12.8 -16.95 -12.9 -18.2 -12.2 -17.15 -12.45 -15.7 M-11.65 -18.8 L-11.65 -18.8 M-7.0 -8.65 L-6.85 -8.5 Q-6.35 -7.65 -5.75 -7.05 -7.7 -7.95 -9.2 -9.6 -8.25 -9.0 -7.0 -8.65" fill="#ffe700" fill-opacity="0.7529412" fill-rule="evenodd" stroke="none"/>
    <path d="M7.4 -40.0 L7.55 -40.0 Q6.7 -39.75 6.05 -39.15 5.75 -39.75 5.1 -40.3 6.25 -40.25 7.4 -40.0 M7.05 -38.4 Q6.75 -38.15 6.5 -38.2 L7.0 -38.6 Q7.4 -38.95 7.9 -39.0 8.45 -39.05 8.95 -39.2 8.95 -39.1 8.0 -38.8 7.5 -38.65 7.05 -38.4 M-4.15 -35.6 L-5.1 -35.25 Q-4.3 -36.45 -3.35 -37.35 -3.85 -36.6 -4.15 -35.6 M0.2 -32.55 Q-0.25 -31.8 -0.25 -30.75 -1.35 -30.9 -2.45 -30.7 L-2.9 -30.65 Q-2.5 -31.45 -2.4 -32.25 -1.35 -32.25 -0.35 -32.5 L0.2 -32.55 M0.1 -35.45 L0.15 -35.45 0.15 -35.3 0.1 -35.3 0.1 -35.45 M4.05 -34.85 Q4.05 -34.65 4.1 -34.45 L3.45 -34.35 4.05 -34.85 M-6.8 -25.95 Q-6.8 -25.35 -6.75 -24.8 -7.4 -26.65 -7.4 -28.45 -7.15 -28.2 -6.7 -28.15 L-6.35 -28.1 Q-6.75 -27.2 -6.8 -25.95 M-0.95 -19.1 Q-0.95 -18.7 -0.75 -18.35 -2.9 -19.1 -4.4 -20.8 -3.05 -19.95 -0.9 -19.75 -1.0 -19.45 -0.95 -19.1 M4.75 -23.65 Q4.7 -23.25 4.75 -22.85 4.05 -22.8 3.35 -22.7 3.8 -23.8 3.9 -24.85 L4.1 -24.85 Q4.2 -24.05 4.75 -23.65 M10.1 -29.6 L10.1 -29.55 10.05 -29.55 10.1 -29.6 M15.95 -27.05 Q16.2 -27.35 16.4 -27.65 14.55 -19.95 7.75 -18.25 L7.85 -18.45 Q8.15 -19.4 7.95 -20.2 12.45 -19.9 15.0 -24.15 15.95 -25.7 15.9 -26.9 L15.95 -27.05 M14.7 -32.3 Q14.4 -32.25 14.15 -32.1 14.6 -33.0 14.55 -34.25 14.5 -36.25 13.55 -37.65 16.9 -35.25 16.85 -30.85 16.3 -31.75 14.7 -32.3" fill="#ffe700" fill-opacity="0.7529412" fill-rule="evenodd" stroke="none"/>
  </g>
</svg>
