<?xml version="1.0" encoding="UTF-8" standalone="no"?>
<svg xmlns:ffdec="https://www.free-decompiler.com/flash" xmlns:xlink="http://www.w3.org/1999/xlink" ffdec:objectType="shape" height="9.6px" width="8.2px" xmlns="http://www.w3.org/2000/svg">
  <g transform="matrix(1.0, 0.0, 0.0, 1.0, 0.5, 0.5)">
    <path d="M2.0 -0.05 Q2.2 0.15 2.3 0.55 L2.35 0.95 2.35 5.5 2.4 5.75 Q2.45 6.15 2.65 6.35 L2.75 6.45 2.8 6.45 Q3.1 6.65 3.6 6.65 4.1 6.65 4.45 6.45 L4.4 6.45 4.55 6.35 Q4.75 6.15 4.85 5.75 L4.85 0.95 Q4.85 0.7 4.9 0.55 5.0 0.15 5.25 -0.05 L5.2 -0.05 Q5.6 -0.5 6.25 -0.5 6.9 -0.5 7.3 -0.05 7.55 0.15 7.65 0.55 L7.7 0.95 7.7 5.35 7.65 5.9 Q7.6 6.55 7.4 7.05 L7.35 7.05 7.2 7.45 6.65 8.1 6.05 8.55 5.7 8.7 Q4.8 9.1 3.6 9.1 2.4 9.1 1.5 8.7 L1.15 8.55 Q0.8 8.35 0.55 8.1 0.25 7.8 0.05 7.45 L-0.15 7.05 Q-0.4 6.55 -0.45 5.9 L-0.5 5.35 -0.5 0.95 -0.4 0.55 Q-0.3 0.15 -0.05 -0.05 L-0.1 -0.05 Q0.25 -0.5 0.95 -0.5 1.6 -0.5 2.0 -0.05" fill="#ffff66" fill-rule="evenodd" stroke="none"/>
    <path d="M7.15 0.65 L7.2 0.95 7.2 1.45 5.3 1.45 5.3 0.95 Q5.3 0.8 5.35 0.65 L7.15 0.65 M0.0 1.45 L0.0 0.95 0.05 0.65 1.85 0.65 1.9 0.95 1.9 1.45 0.0 1.45" fill="#009f00" fill-rule="evenodd" stroke="none"/>
    <path d="M7.15 0.65 L5.35 0.65 Q5.4 0.4 5.55 0.25 5.8 0.0 6.25 0.0 6.7 0.0 6.95 0.25 7.1 0.4 7.15 0.65 M0.05 0.65 Q0.1 0.4 0.25 0.25 0.5 0.0 0.95 0.0 1.4 0.0 1.65 0.25 1.8 0.4 1.85 0.65 L0.05 0.65" fill="#007300" fill-rule="evenodd" stroke="none"/>
    <path d="M7.2 2.2 L7.2 2.95 5.3 2.95 5.3 2.2 7.2 2.2 M0.0 2.95 L0.0 2.2 1.9 2.2 1.9 2.95 0.0 2.95" fill="#00ca00" fill-rule="evenodd" stroke="none"/>
    <path d="M7.2 2.95 L7.2 3.8 5.3 3.8 5.3 2.95 7.2 2.95 M0.0 3.8 L0.0 2.95 1.9 2.95 1.9 3.8 0.0 3.8" fill="#00dd00" fill-rule="evenodd" stroke="none"/>
    <path d="M5.3 1.45 L7.2 1.45 7.2 2.2 5.3 2.2 5.3 1.45 M0.0 2.2 L0.0 1.45 1.9 1.45 1.9 2.2 0.0 2.2" fill="#00bd00" fill-rule="evenodd" stroke="none"/>
    <path d="M7.2 4.7 L7.2 5.85 5.3 5.85 5.3 4.7 7.2 4.7 M0.05 5.85 L0.0 5.35 0.0 4.7 1.9 4.7 1.9 5.85 0.05 5.85" fill="#15ff15" fill-rule="evenodd" stroke="none"/>
    <path d="M7.2 5.85 Q7.1 6.4 6.95 6.85 L4.7 6.85 4.85 6.7 Q5.2 6.4 5.3 5.85 L7.2 5.85 M0.3 6.85 Q0.1 6.4 0.05 5.85 L1.9 5.85 Q2.0 6.4 2.35 6.7 L2.5 6.85 0.3 6.85" fill="#35ff35" fill-rule="evenodd" stroke="none"/>
    <path d="M7.2 3.8 L7.2 4.7 5.3 4.7 5.3 3.8 7.2 3.8 M0.0 4.7 L0.0 3.8 1.9 3.8 1.9 4.7 0.0 4.7" fill="#00f400" fill-rule="evenodd" stroke="none"/>
    <path d="M6.95 6.85 L6.75 7.2 6.35 7.75 0.85 7.75 0.45 7.2 0.3 6.85 2.5 6.85 Q2.95 7.1 3.6 7.1 4.3 7.1 4.7 6.85 L6.95 6.85" fill="#64ff64" fill-rule="evenodd" stroke="none"/>
    <path d="M6.35 7.75 Q6.1 7.95 5.8 8.1 L1.4 8.1 0.85 7.75 6.35 7.75" fill="#8eff8e" fill-rule="evenodd" stroke="none"/>
    <path d="M5.8 8.1 L5.5 8.3 Q4.7 8.65 3.6 8.65 2.5 8.65 1.7 8.3 L1.4 8.1 5.8 8.1" fill="#d9ffd9" fill-rule="evenodd" stroke="none"/>
  </g>
</svg>
