<?xml version="1.0" encoding="UTF-8" standalone="no"?>
<svg xmlns:ffdec="https://www.free-decompiler.com/flash" xmlns:xlink="http://www.w3.org/1999/xlink" ffdec:objectType="shape" height="37.45px" width="31.7px" xmlns="http://www.w3.org/2000/svg">
  <g transform="matrix(1.0, 0.0, 0.0, 1.0, 13.6, 17.9)">
    <path d="M12.0 -15.0 Q10.75 -13.4 9.2 -12.1 L9.05 -12.15 Q9.45 -13.3 11.15 -15.1 L13.85 -17.9 Q13.2 -16.5 12.0 -15.0 M12.75 11.75 Q14.05 12.65 15.6 14.4 L18.1 17.2 18.1 17.3 Q16.45 16.45 15.0 14.75 L12.7 11.9 12.75 11.75 M-7.85 -8.9 Q-12.15 -13.05 -13.6 -15.95 -12.1 -14.8 -10.3 -12.7 -8.35 -10.4 -7.85 -8.9 M-8.0 11.15 Q-8.8 13.1 -10.35 15.5 -11.5 17.3 -13.25 19.55 L-13.5 19.5 Q-13.6 19.45 -13.6 19.25 -13.6 18.3 -10.85 14.6 -9.5 12.8 -8.05 11.0 L-8.0 11.15" fill="#b5fffe" fill-opacity="0.7529412" fill-rule="evenodd" stroke="none"/>
  </g>
</svg>
