<?xml version="1.0" encoding="UTF-8" standalone="no"?>
<svg xmlns:ffdec="https://www.free-decompiler.com/flash" xmlns:xlink="http://www.w3.org/1999/xlink" ffdec:objectType="shape" height="40.15px" width="33.4px" xmlns="http://www.w3.org/2000/svg">
  <g transform="matrix(1.0, 0.0, 0.0, 1.0, 14.7, 19.2)">
    <path d="M15.05 -19.15 Q15.1 -19.15 15.1 -18.95 15.1 -18.65 13.8 -17.15 12.45 -15.7 12.0 -15.5 12.15 -16.35 13.25 -17.6 14.2 -18.6 15.05 -19.2 L15.05 -19.15 M18.65 18.3 Q17.7 17.85 16.9 16.85 L15.65 15.25 Q16.35 15.15 17.6 16.4 18.85 17.65 18.65 18.25 L18.65 18.3 M-12.25 -14.75 Q-11.35 -13.55 -10.85 -12.5 L-10.8 -12.4 Q-11.75 -13.05 -12.7 -14.4 L-14.15 -16.7 -14.1 -16.85 -14.0 -16.85 Q-13.05 -15.85 -12.25 -14.75 M-11.65 16.0 Q-11.6 16.05 -11.6 16.25 -11.6 16.45 -12.05 17.2 -12.15 17.55 -12.7 18.6 -13.45 20.0 -13.8 20.4 L-14.05 20.4 -14.05 20.45 -14.5 20.9 -14.6 20.95 Q-14.7 21.0 -14.7 20.8 -14.7 20.4 -13.75 18.65 -12.65 16.6 -11.75 15.95 L-11.65 16.0" fill="#b5fffe" fill-opacity="0.7529412" fill-rule="evenodd" stroke="none"/>
  </g>
</svg>
