<?xml version="1.0" encoding="UTF-8" standalone="no"?>
<svg xmlns:ffdec="https://www.free-decompiler.com/flash" xmlns:xlink="http://www.w3.org/1999/xlink" ffdec:objectType="shape" height="12.2px" width="22.45px" xmlns="http://www.w3.org/2000/svg">
  <g transform="matrix(1.0, 0.0, 0.0, 1.0, 4.15, 3.0)">
    <path d="M15.45 2.45 Q15.7 2.6 15.95 2.75 18.1 4.0 18.0 5.6 17.65 3.85 15.45 2.45 M3.75 -2.7 Q3.95 -2.65 4.25 -2.7 L4.95 -2.8 Q6.65 -2.6 7.75 -1.8 8.65 -1.1 9.35 -0.4 9.45 -0.15 9.65 0.1 9.95 0.5 10.65 0.75 L10.85 0.8 Q11.8 1.35 13.0 1.65 13.65 1.95 14.25 2.3 15.05 2.7 15.7 3.15 15.95 3.3 16.15 3.55 L16.1 3.5 Q14.9 3.65 14.75 4.25 14.7 4.35 14.7 4.45 14.65 4.65 14.75 4.8 L14.55 4.7 14.6 4.8 Q14.45 4.65 14.25 4.55 13.95 4.35 13.55 4.2 L13.5 4.2 Q13.05 4.0 12.6 3.85 L12.4 3.75 Q11.4 3.25 10.8 2.6 10.75 2.5 10.7 2.35 10.65 2.85 11.1 3.3 11.6 3.8 12.6 4.1 13.1 4.25 13.55 4.45 14.4 4.9 14.9 5.45 L15.0 5.6 15.05 5.7 15.05 5.75 15.15 5.85 Q15.25 6.05 15.4 6.25 15.1 6.35 14.95 6.55 14.85 6.6 14.75 6.65 14.15 7.15 13.15 7.25 L13.2 7.2 12.45 7.25 Q11.35 7.25 10.6 6.95 10.1 6.7 9.85 6.4 L9.85 6.35 Q9.9 6.25 9.9 6.15 10.2 5.7 10.05 5.15 9.85 4.45 9.05 3.95 8.5 3.45 7.6 3.25 L7.55 3.25 Q8.1 3.5 8.65 3.95 8.9 4.15 9.1 4.35 L8.9 4.3 8.45 4.3 Q8.2 4.35 8.05 4.5 L7.95 4.55 Q7.85 4.6 7.8 4.65 7.6 4.8 7.55 4.95 L7.4 4.8 Q6.8 4.1 6.1 3.4 5.85 3.1 5.65 2.75 5.65 2.9 5.65 3.05 L5.6 3.0 Q5.65 3.3 6.0 3.65 L6.05 3.7 Q6.8 4.4 7.25 5.2 7.45 5.55 7.65 5.85 L7.65 5.9 Q7.5 6.05 7.35 6.2 L7.1 6.5 Q6.85 6.6 6.6 6.7 5.75 7.15 4.65 7.2 4.45 7.2 4.25 7.2 3.95 7.25 3.7 7.2 L3.75 7.15 3.55 7.15 Q3.4 7.05 3.25 6.95 3.2 6.95 3.2 7.0 L3.25 7.05 Q2.75 6.85 2.55 6.55 2.4 6.3 2.2 6.15 2.1 6.0 1.95 5.85 1.85 5.75 1.8 5.7 1.6 5.55 1.3 5.45 L1.3 5.4 Q1.0 5.3 0.6 5.3 L-0.15 5.3 -0.25 5.25 -0.3 5.3 -0.45 5.3 -0.5 5.25 Q-0.7 5.3 -0.85 5.35 L-1.15 5.5 Q-1.2 5.35 -1.25 5.25 -1.95 3.85 -1.75 2.45 -2.25 3.35 -1.8 4.35 -1.3 5.5 -1.4 6.6 L-1.45 6.5 Q-1.6 6.65 -1.85 6.8 -2.4 7.1 -2.75 7.45 L-2.9 7.55 Q-3.1 7.65 -3.25 7.75 -3.35 7.8 -3.35 7.85 L-3.35 7.8 Q-3.55 6.45 -3.65 5.1 -3.9 2.8 -2.55 0.7 -1.1 -1.7 3.2 -2.55 3.55 -2.6 3.75 -2.7" fill="#262626" fill-rule="evenodd" stroke="none"/>
    <path d="M18.0 5.45 Q17.6 4.65 16.85 3.85 16.4 3.35 16.05 2.85 L15.8 2.6 16.2 2.75 17.85 4.1 18.0 5.25 18.0 5.45 M11.9 4.6 Q12.2 4.9 12.75 5.0 13.4 5.1 14.2 5.05 14.4 5.0 14.55 5.1 15.35 5.45 15.2 5.95 L15.2 6.05 Q15.25 6.35 14.95 6.65 L14.3 7.15 Q13.95 6.45 13.0 5.9 12.75 5.75 12.6 5.6 12.2 5.3 12.05 5.0 11.8 4.8 11.9 4.6 M4.75 3.05 L4.8 3.15 4.85 3.15 Q5.25 3.8 6.55 4.1 L7.3 4.95 Q7.75 5.5 7.55 6.0 L7.05 6.7 5.75 7.2 5.75 6.9 Q5.65 5.9 5.0 4.95 4.9 4.8 4.8 4.65 4.2 3.8 4.7 3.0 4.65 3.1 4.65 3.2 4.7 3.1 4.75 3.05 M5.3 5.25 L5.3 5.25 M-1.85 3.9 L-1.3 5.75 Q-1.2 6.3 -1.65 6.8 L-2.25 7.1 Q-2.05 6.8 -1.95 6.45 -1.95 5.8 -2.05 5.15 L-2.1 4.95 Q-2.2 4.35 -1.95 3.8 L-1.95 3.95 -1.9 3.8 -1.85 3.9" fill="#363636" fill-rule="evenodd" stroke="none"/>
    <path d="M-3.35 8.8 Q-4.15 6.65 -4.15 4.4 -4.15 2.5 -3.1 0.7 -1.45 -2.0 3.6 -2.9 L3.6 -2.95 Q3.7 -3.0 3.8 -3.0 L4.35 -3.0 4.9 -2.95 5.1 -2.95 Q7.45 -2.65 8.65 -1.5 L8.95 -1.15 Q10.0 -0.35 11.0 0.45 13.0 1.2 14.95 2.0 L15.45 2.15 Q16.4 2.4 16.95 2.85 19.0 4.4 17.95 6.2 L17.85 6.2 17.9 6.1 Q17.8 5.7 17.6 5.3 L17.6 5.25 Q17.55 5.15 17.5 5.05 L17.45 4.95 Q17.3 4.45 16.75 4.1 L16.55 3.85 16.55 3.9 Q15.65 3.7 15.25 4.1 15.2 4.2 15.15 4.35 15.05 4.8 15.1 5.25 L15.05 5.2 Q15.25 5.5 15.4 5.85 15.55 6.1 15.55 6.4 L15.45 6.3 Q15.25 7.0 14.1 7.4 13.25 7.65 12.4 7.45 L12.0 7.4 11.7 7.35 11.95 7.4 Q10.65 7.45 9.9 6.8 L9.85 6.75 9.85 6.7 9.75 6.65 Q9.3 6.45 9.6 6.1 L9.65 6.05 Q9.65 5.65 9.55 5.3 L9.5 4.9 9.45 4.75 9.4 4.7 Q8.65 4.45 8.05 4.85 L8.0 4.9 7.7 5.15 7.7 5.2 Q8.0 5.65 7.85 6.2 L7.8 6.1 Q7.75 6.3 7.5 6.5 7.25 6.7 6.95 6.8 6.7 7.05 6.25 7.2 5.9 7.35 5.35 7.45 4.55 7.6 3.7 7.5 2.75 7.4 2.1 6.75 1.5 6.2 1.2 5.65 0.6 5.55 -0.1 5.55 L-0.7 5.55 Q-0.75 5.6 -0.85 5.65 L-1.0 5.7 -1.1 5.7 Q-0.95 6.35 -1.4 7.0 L-1.4 7.05 Q-1.55 7.2 -1.85 7.35 -2.2 7.6 -2.65 7.7 -2.85 7.8 -3.05 7.9 L-3.2 7.95 -3.15 7.9 Q-3.3 8.0 -3.35 8.1 L-3.4 8.1 Q-3.35 8.3 -3.25 8.5 L-3.15 9.15 Q-3.15 9.2 -3.2 9.2 L-3.35 8.8 M4.15 -2.9 L4.0 -2.9 4.1 -2.85 4.15 -2.9 M3.75 -2.7 Q3.55 -2.6 3.2 -2.55 -1.1 -1.7 -2.55 0.7 -3.9 2.8 -3.65 5.1 -3.55 6.45 -3.35 7.8 L-3.35 7.85 Q-3.35 7.8 -3.25 7.75 -3.1 7.65 -2.9 7.55 L-2.75 7.45 Q-2.4 7.1 -1.85 6.8 -1.6 6.65 -1.45 6.5 L-1.4 6.6 Q-1.3 5.5 -1.8 4.35 -2.25 3.35 -1.75 2.45 -1.95 3.85 -1.25 5.25 -1.2 5.35 -1.15 5.5 L-0.85 5.35 Q-0.7 5.3 -0.5 5.25 L-0.45 5.3 -0.3 5.3 -0.25 5.25 -0.15 5.3 0.6 5.3 Q1.0 5.3 1.3 5.4 L1.3 5.45 Q1.6 5.55 1.8 5.7 1.85 5.75 1.95 5.85 2.1 6.0 2.2 6.15 2.4 6.3 2.55 6.55 2.75 6.85 3.25 7.05 L3.2 7.0 Q3.2 6.95 3.25 6.95 3.4 7.05 3.55 7.15 L3.75 7.15 3.7 7.2 Q3.95 7.25 4.25 7.2 4.45 7.2 4.65 7.2 5.75 7.15 6.6 6.7 6.85 6.6 7.1 6.5 L7.35 6.2 Q7.5 6.05 7.65 5.9 L7.65 5.85 Q7.45 5.55 7.25 5.2 6.8 4.4 6.05 3.7 L6.0 3.65 Q5.65 3.3 5.6 3.0 L5.65 3.05 Q5.65 2.9 5.65 2.75 5.85 3.1 6.1 3.4 6.8 4.1 7.4 4.8 L7.55 4.95 Q7.6 4.8 7.8 4.65 7.85 4.6 7.95 4.55 L8.05 4.5 Q8.2 4.35 8.45 4.3 L8.9 4.3 9.1 4.35 Q8.9 4.15 8.65 3.95 8.1 3.5 7.55 3.25 L7.6 3.25 Q8.5 3.45 9.05 3.95 9.85 4.45 10.05 5.15 10.2 5.7 9.9 6.15 9.9 6.25 9.85 6.35 L9.85 6.4 Q10.1 6.7 10.6 6.95 11.35 7.25 12.45 7.25 L13.2 7.2 13.15 7.25 Q14.15 7.15 14.75 6.65 14.85 6.6 14.95 6.55 15.1 6.35 15.4 6.25 15.25 6.05 15.15 5.85 L15.05 5.75 15.05 5.7 15.0 5.6 14.9 5.45 Q14.4 4.9 13.55 4.45 13.1 4.25 12.6 4.1 11.6 3.8 11.1 3.3 10.65 2.85 10.7 2.35 10.75 2.5 10.8 2.6 11.4 3.25 12.4 3.75 L12.6 3.85 Q13.05 4.0 13.5 4.2 L13.55 4.2 Q13.95 4.35 14.25 4.55 14.45 4.65 14.6 4.8 L14.55 4.7 14.75 4.8 Q14.65 4.65 14.7 4.45 14.7 4.35 14.75 4.25 14.9 3.65 16.1 3.5 L16.15 3.55 Q15.95 3.3 15.7 3.15 15.05 2.7 14.25 2.3 13.65 1.95 13.0 1.65 11.8 1.35 10.85 0.8 L10.65 0.75 Q9.95 0.5 9.65 0.1 9.45 -0.15 9.35 -0.4 8.65 -1.1 7.75 -1.8 6.65 -2.6 4.95 -2.8 L4.25 -2.7 Q3.95 -2.65 3.75 -2.7 M15.45 2.45 Q17.65 3.85 18.0 5.6 18.1 4.0 15.95 2.75 15.7 2.6 15.45 2.45" fill="#111111" fill-rule="evenodd" stroke="none"/>
    <path d="M-3.35 8.8 L-3.35 8.95" fill="none" stroke="#333333" stroke-linecap="round" stroke-linejoin="round" stroke-width="0.05"/>
  </g>
</svg>
