<?xml version="1.0" encoding="UTF-8" standalone="no"?>
<svg xmlns:ffdec="https://www.free-decompiler.com/flash" xmlns:xlink="http://www.w3.org/1999/xlink" ffdec:objectType="shape" height="42.55px" width="44.5px" xmlns="http://www.w3.org/2000/svg">
  <g transform="matrix(1.0, 0.0, 0.0, 1.0, 22.45, 37.05)">
    <path d="M2.55 -36.5 L2.6 -36.4 Q2.7 -36.35 2.35 -36.35 L1.3 -36.5 0.05 -36.7 Q0.3 -36.85 0.6 -36.9 1.0 -37.05 1.6 -37.05 L2.55 -36.5 M5.6 -32.75 Q5.6 -32.95 5.7 -33.05 L5.8 -33.1 Q6.05 -33.0 6.1 -32.8 L6.1 -32.65 Q6.05 -32.55 5.95 -32.55 L5.65 -32.55 Q5.6 -32.55 5.6 -32.75 M9.3 -34.2 L9.35 -34.25 Q7.55 -35.15 5.45 -35.8 8.5 -35.4 10.3 -34.45 11.45 -33.9 12.95 -32.6 13.3 -32.2 14.35 -31.3 L15.75 -30.05 Q16.25 -29.55 16.8 -28.8 17.4 -27.95 17.9 -27.5 19.6 -25.8 20.1 -24.6 20.45 -23.75 20.45 -22.25 20.45 -21.75 20.95 -19.8 21.45 -17.9 21.45 -17.15 21.45 -16.8 21.2 -15.8 21.0 -14.85 21.0 -14.65 21.0 -14.5 21.1 -13.8 21.25 -13.1 21.25 -12.9 21.25 -12.3 20.4 -10.5 19.55 -8.6 19.45 -8.2 19.4 -7.9 19.4 -7.15 19.45 -6.45 19.35 -6.0 19.0 -4.65 16.85 -3.55 16.25 -3.2 14.35 -1.45 12.5 0.2 11.75 0.6 11.0 0.95 10.1 1.65 9.4 2.15 8.35 2.5 L6.75 2.85 Q5.4 3.1 4.85 3.3 L3.85 3.75 Q3.35 3.95 3.05 3.95 L2.65 3.9 2.55 3.85 2.3 3.9 0.85 4.1 Q-3.7 4.1 -8.3 2.25 -12.85 0.4 -14.6 -2.0 -14.85 -2.4 -15.75 -2.75 -16.75 -3.2 -17.1 -3.55 -17.45 -3.85 -17.45 -4.55 -17.4 -5.35 -17.6 -5.55 -17.7 -5.75 -18.6 -6.4 -19.4 -7.0 -19.55 -7.45 -19.9 -8.3 -19.9 -8.65 L-19.85 -9.45 Q-19.85 -9.95 -20.25 -10.3 -20.5 -10.55 -21.15 -10.95 -21.8 -11.35 -22.05 -11.6 -22.45 -12.05 -22.45 -12.55 -22.45 -13.1 -21.75 -15.4 -21.1 -17.65 -21.1 -17.85 -21.1 -18.1 -21.3 -18.65 -21.5 -19.2 -21.5 -19.5 -21.5 -21.15 -19.1 -25.0 L-17.35 -27.6 Q-16.5 -28.85 -16.45 -29.1 -16.05 -30.2 -14.7 -31.35 L-12.05 -33.4 Q-11.75 -33.65 -10.15 -34.25 -8.55 -34.85 -8.2 -35.15 -7.35 -35.8 -6.7 -36.0 L-4.8 -36.1 -4.0 -36.2 -3.2 -36.35 Q-4.4 -35.85 -7.4 -34.75 L-7.3 -34.7 Q-9.55 -34.2 -10.7 -32.9 L-11.65 -31.8 Q-12.25 -31.15 -12.85 -30.7 -13.75 -30.0 -14.75 -28.5 L-16.2 -26.1 -16.2 -25.35 Q-15.65 -25.45 -15.5 -25.15 -15.45 -25.05 -15.45 -24.75 -15.45 -24.45 -15.7 -23.9 -15.95 -23.4 -15.95 -22.85 -15.95 -22.35 -16.3 -21.85 -16.5 -21.5 -17.05 -20.9 -18.2 -19.6 -18.25 -18.8 -17.0 -18.8 -16.6 -18.45 -16.35 -18.25 -16.35 -17.8 -16.35 -17.65 -16.75 -16.75 -17.25 -15.7 -17.35 -15.4 -17.05 -15.05 -16.65 -14.85 -16.5 -14.7 -16.5 -14.55 -16.5 -14.4 -17.15 -13.3 -17.85 -12.2 -17.85 -11.9 -17.85 -11.55 -17.7 -10.8 -17.5 -9.8 -17.15 -9.0 -16.15 -6.6 -14.5 -7.3 L-14.5 -6.65 Q-14.5 -6.5 -14.4 -6.5 L-14.25 -6.4 Q-14.0 -6.25 -14.05 -5.4 L-14.15 -4.75 -14.2 -4.1 Q-12.95 -4.05 -12.3 -3.7 -11.8 -3.45 -11.5 -2.8 -11.15 -2.1 -10.95 -1.7 -10.6 -1.05 -10.0 -0.6 L-9.45 -0.6 -8.0 -0.55 Q-7.6 -0.4 -7.15 0.2 -6.75 0.7 -6.65 0.95 -4.4 1.0 -3.4 1.45 -3.0 1.65 -2.65 1.65 L-1.0 1.6 Q-0.05 1.5 0.9 2.0 L1.45 2.3 1.65 2.2 Q1.95 2.1 3.4 1.75 4.15 1.6 4.5 1.25 5.05 0.7 5.5 0.45 6.25 0.45 6.8 0.55 L7.45 0.7 Q8.0 0.7 8.3 0.4 8.55 0.2 8.75 -0.3 9.0 -0.8 9.2 -0.95 9.5 -1.25 10.05 -1.25 10.15 -1.25 10.3 -1.1 L10.55 -0.85 Q11.45 -1.3 12.65 -2.3 13.85 -3.3 14.1 -3.8 14.35 -4.3 14.4 -4.85 L14.45 -5.6 Q14.45 -5.9 14.65 -6.05 14.9 -6.2 15.55 -6.2 16.0 -6.2 16.15 -6.95 16.2 -7.35 16.2 -7.75 16.2 -7.85 15.95 -8.3 15.65 -8.7 15.65 -8.95 15.65 -9.5 16.5 -10.1 L17.2 -10.55 Q17.65 -10.85 17.8 -11.0 17.45 -11.4 17.35 -11.95 17.35 -12.25 17.35 -12.85 17.35 -13.15 17.65 -13.2 L18.75 -13.35 18.8 -13.4 Q18.85 -13.5 18.85 -13.7 18.85 -14.45 18.55 -15.0 18.35 -15.25 17.8 -15.7 17.3 -16.15 17.1 -16.5 16.75 -17.1 16.75 -17.95 16.75 -18.3 16.95 -18.75 17.2 -19.4 17.55 -19.4 17.8 -19.4 18.15 -19.1 18.45 -18.85 18.55 -18.85 L19.2 -18.95 19.3 -18.95 Q19.35 -19.0 19.35 -19.2 L18.55 -20.55 Q17.7 -21.9 17.7 -22.65 17.6 -24.3 16.45 -24.75 L15.7 -25.05 Q15.35 -25.25 15.35 -25.75 15.35 -26.15 15.8 -26.3 16.45 -26.6 16.75 -26.8 16.5 -27.2 15.65 -27.85 14.5 -28.75 14.15 -29.15 13.85 -29.45 12.4 -30.35 11.25 -31.05 11.25 -31.3 L11.45 -31.7 Q11.65 -32.0 11.65 -32.1 11.65 -32.25 10.5 -33.25 L9.3 -34.2 M13.6 -26.75 L13.6 -26.45 13.55 -26.45 13.75 -26.25 13.95 -26.1 13.85 -25.7 13.75 -25.6 Q13.7 -25.55 13.45 -25.55 12.8 -25.55 12.35 -26.1 12.0 -26.5 12.0 -26.8 L12.0 -28.05 Q12.05 -28.8 12.5 -29.15 13.2 -28.65 13.5 -27.9 13.75 -27.3 13.6 -26.85 L13.6 -26.75 M13.15 -27.55 Q13.1 -27.75 13.0 -27.85 L13.0 -27.8 Q13.0 -27.35 13.1 -27.15 L13.2 -27.1 13.15 -27.55 M15.25 -21.6 Q15.6 -21.25 15.6 -20.7 15.6 -20.65 15.3 -20.35 L14.95 -20.1 Q14.95 -19.9 15.15 -19.25 15.3 -18.6 15.3 -18.45 15.3 -18.2 15.0 -18.0 14.75 -17.85 14.6 -17.85 14.55 -17.85 14.0 -18.65 L13.5 -19.45 Q13.5 -20.6 13.85 -21.25 14.1 -21.8 14.55 -21.85 14.95 -21.95 15.25 -21.6 M16.55 -19.55 Q16.55 -19.4 16.45 -19.25 16.3 -19.05 16.0 -19.05 15.6 -19.05 15.5 -19.25 L15.5 -19.55 Q15.5 -20.1 16.05 -20.15 16.55 -20.2 16.55 -19.55 M7.9 -24.95 L7.65 -24.8 7.2 -25.0 Q7.1 -25.05 7.1 -25.1 7.1 -25.45 7.15 -25.3 L7.35 -25.35 7.9 -24.95 M8.25 -14.35 Q8.3 -14.25 8.3 -14.05 L8.25 -13.6 Q8.2 -13.3 8.2 -13.05 L8.15 -13.0 7.95 -12.9 Q7.7 -13.05 7.7 -13.1 7.65 -13.15 7.65 -13.45 7.65 -13.9 7.75 -14.1 7.85 -14.35 8.15 -14.45 L8.25 -14.35 M7.4 -20.65 L7.5 -20.0 7.45 -19.9 Q7.0 -20.2 7.0 -20.6 7.0 -21.1 7.25 -21.15 7.35 -20.95 7.4 -20.65 M5.85 -7.2 L6.1 -7.25 Q6.3 -7.15 6.4 -6.85 6.35 -6.65 6.25 -6.55 L5.9 -6.6 5.85 -6.7 Q5.8 -6.75 5.8 -6.95 5.8 -7.2 5.85 -7.2 M11.55 -8.35 Q11.9 -8.9 12.4 -9.2 12.95 -9.55 13.3 -9.4 13.7 -9.25 13.7 -8.55 L13.5 -7.95 Q13.3 -7.45 13.3 -7.1 13.3 -6.75 13.0 -6.6 12.6 -6.4 12.5 -6.25 L12.35 -5.85 Q12.15 -5.6 11.9 -5.65 11.55 -6.0 11.35 -6.5 11.1 -7.0 11.1 -7.35 11.1 -7.8 11.55 -8.35 M5.05 -8.35 L4.95 -8.05 4.6 -8.0 4.45 -8.05 4.2 -8.2 4.2 -8.4 Q4.3 -8.5 4.6 -8.6 L4.95 -8.7 Q4.95 -8.55 5.05 -8.35 M2.35 -3.7 L2.3 -3.45 Q2.2 -3.35 1.9 -3.35 L1.85 -3.4 Q1.75 -3.45 1.75 -3.7 1.75 -3.9 1.9 -3.95 L2.2 -4.0 Q2.35 -3.85 2.35 -3.7 M7.25 -1.6 Q6.85 -1.95 6.85 -2.05 6.85 -2.8 7.25 -3.25 7.65 -3.65 8.25 -3.8 8.8 -3.9 9.2 -3.75 9.65 -3.55 9.65 -3.1 9.65 -2.85 9.05 -2.45 8.15 -1.9 7.95 -1.75 L7.25 -1.6 M13.7 -7.6 L13.8 -7.6 Q13.8 -8.15 14.3 -8.15 14.85 -8.15 14.85 -7.65 14.85 -7.35 14.7 -7.15 14.55 -7.0 14.3 -7.0 14.1 -7.0 13.95 -7.15 L13.55 -7.1 13.5 -7.15 Q13.45 -7.15 13.45 -7.35 13.45 -7.6 13.5 -7.6 L13.7 -7.6 M-6.0 -30.65 Q-6.35 -30.8 -6.5 -31.0 L-6.65 -31.35 -6.6 -31.6 -6.3 -31.25 Q-6.1 -30.9 -6.0 -30.65 M-11.35 -26.05 Q-11.35 -25.5 -11.9 -24.85 -12.6 -24.0 -13.45 -24.05 L-13.75 -24.15 Q-13.8 -24.2 -13.8 -24.45 -13.8 -24.55 -13.55 -25.2 -13.3 -25.9 -13.3 -25.95 -13.3 -26.15 -13.45 -26.35 -13.7 -26.7 -13.8 -27.1 -13.25 -27.5 -13.15 -27.8 -13.0 -28.1 -12.75 -28.3 L-11.85 -28.25 Q-11.6 -27.6 -11.5 -27.15 -11.35 -26.5 -11.35 -26.05 M-5.95 -16.05 L-6.1 -16.25 -6.1 -16.6 Q-6.1 -16.85 -6.05 -17.0 -6.0 -17.15 -5.9 -17.2 L-5.75 -17.0 Q-5.65 -16.9 -5.65 -16.65 L-5.65 -16.25 Q-5.7 -16.25 -5.8 -16.15 L-5.95 -16.05 M-13.3 -18.05 Q-13.55 -17.7 -13.55 -17.6 -13.55 -17.45 -13.35 -17.2 -13.2 -17.0 -13.2 -16.8 -13.2 -16.6 -13.85 -15.75 -14.4 -15.1 -14.6 -14.9 -14.8 -15.1 -14.9 -15.3 L-14.95 -15.5 -14.95 -17.1 Q-14.9 -18.1 -14.55 -18.65 L-14.9 -18.8 Q-15.0 -18.85 -15.15 -19.05 -14.95 -19.95 -14.0 -19.55 -13.65 -19.35 -13.4 -19.05 -13.1 -18.75 -13.1 -18.5 -13.1 -18.35 -13.3 -18.05 M-14.8 -20.35 Q-14.8 -20.3 -14.8 -20.1 L-14.8 -19.8 -15.2 -19.65 -15.65 -19.8 -15.7 -19.9 -15.7 -20.35 Q-15.65 -20.4 -15.65 -20.45 -15.3 -20.55 -14.85 -20.45 L-14.8 -20.35 M-15.35 -17.2 Q-15.25 -17.05 -15.25 -17.0 L-15.3 -16.55 -15.6 -16.45 -15.85 -16.75 Q-15.95 -16.85 -15.95 -16.95 -15.95 -17.2 -15.85 -17.3 L-15.6 -17.35 Q-15.5 -17.3 -15.35 -17.2 M-12.75 -7.8 Q-12.35 -7.8 -12.35 -7.3 -12.35 -7.2 -12.45 -7.05 -12.55 -6.85 -12.75 -6.75 -13.05 -6.8 -13.15 -7.0 -13.2 -7.1 -13.2 -7.3 -13.2 -7.8 -12.75 -7.8 M-11.75 -5.8 Q-11.3 -5.9 -11.3 -5.4 -11.3 -5.2 -11.35 -5.05 L-11.35 -4.8 -11.45 -4.75 Q-11.55 -4.65 -11.75 -4.65 -12.05 -4.65 -12.15 -5.0 -12.25 -5.15 -12.25 -5.35 -12.25 -5.65 -11.75 -5.8 M-3.7 -10.9 Q-3.7 -10.75 -3.75 -10.7 -3.8 -10.55 -4.2 -10.55 -4.55 -10.55 -4.55 -10.6 -4.65 -10.7 -4.7 -10.9 -4.5 -11.1 -4.35 -11.1 L-3.7 -10.9 M-5.55 -8.4 L-5.65 -8.7 Q-5.35 -8.6 -5.15 -8.2 L-5.15 -8.1 -5.25 -8.1 -5.5 -8.05 -5.55 -8.4 M-3.6 -7.95 Q-3.7 -8.1 -3.7 -8.3 -3.7 -8.55 -3.55 -8.8 -3.35 -9.1 -3.05 -9.1 L-3.3 -8.85 Q-3.4 -8.7 -3.4 -8.45 -3.4 -8.25 -3.3 -8.15 L-3.05 -8.05 Q-3.05 -7.95 -3.1 -7.9 -3.2 -7.8 -3.35 -7.8 L-3.6 -7.95 M-5.8 -13.3 L-5.75 -13.0 Q-5.85 -12.8 -6.0 -12.8 L-6.1 -12.85 -6.1 -13.05 Q-6.1 -13.5 -6.0 -13.65 L-5.9 -13.65 -5.8 -13.3 M-9.55 -5.7 Q-9.75 -5.3 -10.15 -5.3 -10.8 -5.3 -12.1 -6.95 -12.1 -9.05 -10.75 -7.9 -10.3 -7.55 -9.8 -6.95 -9.4 -6.4 -9.4 -6.35 -9.4 -5.95 -9.55 -5.7" fill="#59a5ff" fill-opacity="0.5019608" fill-rule="evenodd" stroke="none"/>
    <path d="M12.3 -33.3 Q12.25 -33.25 12.25 -33.05 12.25 -32.95 12.45 -32.75 L12.8 -32.4 Q12.8 -32.3 12.6 -32.25 12.5 -32.25 12.2 -32.55 11.9 -32.85 11.9 -32.95 11.9 -33.05 12.05 -33.15 12.2 -33.3 12.35 -33.35 L12.3 -33.3 M16.2 -29.05 L15.35 -30.0 Q15.55 -29.6 16.2 -29.05 M15.3 -30.7 L15.3 -30.65 Q17.3 -28.9 18.1 -28.1 20.4 -25.85 20.55 -24.55 L20.6 -22.75 Q20.65 -21.75 20.95 -21.0 L21.65 -19.25 Q21.95 -18.35 21.95 -17.55 21.95 -17.45 21.65 -16.55 21.35 -15.65 21.35 -15.5 21.35 -15.3 21.5 -14.6 21.65 -13.85 21.65 -13.7 21.65 -12.7 21.2 -11.75 20.5 -10.25 20.25 -9.45 20.15 -9.15 19.85 -7.25 19.6 -5.8 19.2 -5.2 18.75 -4.4 16.75 -2.95 L13.9 -1.05 Q13.1 -0.55 12.35 0.25 L11.25 1.3 Q10.0 2.3 7.2 2.3 6.15 2.3 5.55 2.7 L5.25 2.9 Q5.15 3.1 4.95 3.2 L4.9 3.2 4.55 3.45 Q3.9 4.0 3.05 4.25 1.8 4.6 -0.3 4.6 -1.0 4.6 -3.35 3.7 -5.55 2.9 -5.7 2.7 -6.05 2.7 -6.5 2.5 L-7.25 2.4 -6.5 2.75 -6.5 2.85 Q-9.2 1.85 -10.5 1.15 -12.0 0.4 -12.6 -0.2 -15.1 -1.7 -16.7 -3.0 -17.05 -3.3 -17.2 -3.9 L-17.45 -4.7 Q-17.55 -4.95 -18.1 -5.5 L-18.8 -6.25 Q-19.25 -6.75 -19.45 -8.05 -19.65 -9.3 -20.15 -9.7 -21.0 -10.4 -21.55 -11.2 -22.25 -12.15 -22.25 -12.9 -22.25 -13.55 -21.95 -14.55 -21.55 -15.75 -21.5 -16.35 -21.4 -17.0 -21.4 -18.3 L-21.5 -19.7 Q-21.5 -21.05 -20.5 -22.95 -19.9 -24.2 -18.55 -26.1 L-17.35 -27.7 Q-16.6 -28.75 -16.35 -29.3 -16.0 -30.0 -14.95 -30.95 -14.1 -31.8 -13.55 -32.1 L-13.7 -31.95 -13.5 -32.1 Q-12.95 -32.6 -12.75 -32.65 -13.0 -32.3 -13.55 -31.65 -14.2 -30.45 -14.95 -29.45 L-16.4 -27.7 Q-17.15 -26.85 -17.4 -26.15 -17.8 -25.25 -17.8 -23.85 -17.8 -23.0 -18.7 -21.5 -19.45 -20.35 -19.6 -19.6 -19.4 -19.25 -19.4 -19.15 -19.4 -18.9 -19.7 -18.05 -19.95 -17.2 -19.95 -16.95 -19.95 -16.55 -19.6 -15.95 -19.2 -15.4 -19.2 -15.05 -19.2 -14.5 -19.45 -13.4 L-19.7 -12.35 Q-19.7 -12.2 -19.0 -11.35 L-18.3 -10.45 -18.25 -9.65 Q-18.15 -9.1 -17.95 -8.65 -17.8 -8.25 -17.6 -7.6 -17.45 -6.9 -17.35 -6.65 -16.95 -5.6 -15.7 -5.3 -14.9 -3.8 -14.35 -3.15 -14.15 -2.9 -13.0 -2.25 -11.85 -1.65 -11.7 -1.4 -10.6 0.0 -9.65 0.6 -9.45 0.7 -7.1 1.2 -4.9 1.65 -4.5 2.0 -3.85 2.1 -3.25 2.3 L-2.55 2.45 Q-2.4 2.45 -1.85 2.7 -1.35 2.9 -1.25 2.9 L-0.55 2.6 Q0.15 2.3 1.05 2.3 1.55 2.3 2.05 2.6 2.5 2.9 2.8 2.9 4.1 2.9 4.6 2.75 4.9 2.65 5.05 2.4 5.25 2.05 5.55 1.9 6.05 1.65 7.25 1.5 9.45 1.15 10.25 0.4 10.5 0.15 10.7 -0.25 10.95 -0.65 11.1 -0.8 13.3 -2.65 15.85 -3.85 16.6 -4.2 16.8 -4.5 17.1 -4.85 17.1 -5.6 17.1 -6.05 17.35 -6.35 17.45 -6.5 17.9 -6.8 18.7 -7.35 18.7 -8.1 18.7 -8.2 18.45 -8.5 18.2 -8.85 18.2 -9.0 18.2 -9.45 18.6 -10.05 L19.4 -11.1 Q20.6 -12.6 20.6 -13.5 20.6 -13.85 19.7 -14.95 18.8 -16.05 18.8 -16.5 18.8 -17.5 19.65 -17.85 L20.25 -18.05 Q20.5 -18.2 20.5 -18.45 20.5 -19.8 19.75 -20.7 19.35 -21.2 19.25 -21.4 19.05 -21.85 19.05 -22.45 19.05 -22.8 19.25 -23.2 19.45 -23.6 19.45 -23.85 19.45 -24.05 18.75 -25.0 L18.0 -26.05 Q17.85 -26.6 17.6 -27.2 17.25 -27.9 16.95 -28.05 15.6 -28.65 15.0 -29.5 14.45 -30.2 14.25 -31.45 15.2 -31.15 15.3 -30.95 15.35 -30.85 15.3 -30.7 M13.85 -27.1 Q14.1 -26.5 14.1 -26.2 14.1 -26.0 14.0 -25.85 13.85 -25.65 13.6 -25.65 13.05 -25.65 12.8 -26.1 12.7 -26.35 12.7 -26.55 12.7 -26.75 12.9 -27.25 13.15 -27.8 13.4 -28.0 13.65 -27.6 13.85 -27.1 M16.55 -19.85 L16.7 -19.7 Q16.5 -19.45 16.3 -19.3 L15.9 -19.7 15.95 -19.95 Q16.0 -20.15 16.3 -20.1 L16.55 -19.85 M15.65 -20.0 L15.75 -19.45 Q15.75 -18.9 15.05 -18.45 14.75 -18.75 14.55 -19.25 14.3 -19.8 14.3 -20.2 14.3 -21.2 14.95 -21.1 15.15 -21.05 15.35 -20.9 15.55 -20.8 15.55 -20.7 15.55 -20.4 15.65 -20.0 M7.85 -1.7 Q7.65 -1.7 7.5 -1.8 L7.3 -2.0 Q7.95 -2.9 8.9 -3.25 9.8 -3.6 9.8 -2.85 9.8 -2.55 7.85 -1.7 M14.2 -7.1 Q14.0 -7.15 13.95 -7.2 13.85 -7.3 13.85 -7.55 13.85 -7.75 14.1 -7.85 14.3 -7.9 14.6 -7.7 L14.65 -7.75 Q14.7 -7.75 14.7 -7.55 L14.65 -7.25 14.45 -7.2 14.2 -7.1 M13.6 -9.15 Q13.9 -8.95 13.9 -8.0 13.9 -7.5 13.6 -7.05 13.15 -6.4 12.95 -5.9 L13.0 -5.85 Q12.95 -5.8 12.75 -5.8 12.6 -5.8 12.35 -6.25 12.15 -6.65 12.15 -6.75 12.15 -7.15 12.45 -7.85 12.7 -8.45 13.05 -8.85 13.4 -9.3 13.6 -9.15 M-9.6 -34.15 Q-10.05 -33.95 -10.7 -33.85 L-10.7 -33.8 -10.75 -34.0 Q-10.75 -34.25 -9.75 -34.45 L-8.75 -34.65 -9.6 -34.15 M-12.6 -28.05 Q-12.6 -27.9 -12.6 -27.6 L-12.65 -27.05 Q-12.65 -26.9 -12.5 -26.4 -12.35 -25.85 -12.35 -25.7 -12.35 -25.45 -12.6 -25.1 -12.85 -24.7 -13.15 -24.65 -13.3 -24.8 -13.45 -25.5 -13.6 -26.2 -13.6 -26.65 -13.6 -27.15 -13.55 -27.4 -13.35 -28.0 -12.6 -28.05 M-13.65 -18.65 Q-13.65 -18.25 -14.0 -17.35 -14.4 -16.3 -14.45 -15.7 L-14.6 -15.6 Q-14.75 -15.95 -14.85 -16.5 -14.95 -17.05 -14.95 -17.3 -14.95 -17.5 -14.75 -17.75 -14.6 -18.05 -14.6 -18.2 -14.6 -18.45 -14.75 -18.75 L-14.95 -19.3 Q-14.65 -19.55 -14.15 -19.35 -13.65 -19.1 -13.65 -18.65 M-15.0 -20.2 Q-15.0 -20.1 -15.1 -19.95 -15.25 -19.75 -15.45 -19.7 L-15.7 -19.75 Q-15.75 -19.85 -15.75 -20.05 -15.75 -20.3 -15.7 -20.35 -15.6 -20.45 -15.3 -20.45 -15.15 -20.4 -15.0 -20.2 M-12.15 -7.55 L-12.1 -7.75 Q-11.7 -8.0 -10.2 -5.95 L-10.3 -5.5 -10.35 -5.45 Q-10.45 -5.4 -10.65 -5.4 -10.85 -5.4 -11.25 -5.85 L-11.7 -6.4 Q-11.85 -6.55 -12.0 -6.8 -12.15 -7.1 -12.15 -7.25 L-12.15 -7.55 M-11.9 -4.8 L-12.0 -4.85 -12.2 -5.0 -11.95 -5.3 Q-11.85 -5.4 -11.75 -5.4 -11.55 -5.3 -11.5 -5.1 -11.5 -5.0 -11.65 -4.9 -11.8 -4.8 -11.9 -4.8" fill="#8cc1ff" fill-opacity="0.7529412" fill-rule="evenodd" stroke="none"/>
    <path d="M16.1 -29.3 Q16.5 -29.5 16.95 -29.05 17.3 -28.75 17.5 -28.3 17.25 -28.4 16.85 -28.65 16.3 -29.0 16.1 -29.3 M19.05 -26.9 Q20.1 -26.4 20.4 -25.55 20.6 -25.05 20.6 -23.75 L20.55 -22.8 20.55 -22.75 21.3 -20.55 Q21.8 -18.95 21.8 -17.45 21.6 -15.15 21.6 -14.7 21.6 -14.5 21.45 -14.25 21.3 -14.0 21.3 -13.75 L21.3 -12.95 Q21.3 -11.9 20.85 -10.85 20.4 -9.7 20.3 -8.2 20.15 -4.85 17.85 -3.95 L17.5 -4.25 Q17.45 -4.35 17.45 -4.45 L17.45 -4.8 Q17.5 -5.2 17.6 -5.45 17.9 -6.35 18.7 -6.1 19.35 -7.4 19.4 -7.6 19.45 -7.85 19.35 -8.8 19.35 -10.05 19.6 -10.7 19.7 -11.05 20.1 -11.45 20.45 -11.85 20.55 -12.4 20.8 -13.15 20.8 -14.75 L20.5 -15.3 Q20.2 -15.85 20.2 -16.2 20.2 -16.85 20.65 -17.35 21.1 -17.85 21.1 -18.4 21.1 -19.0 20.55 -20.1 19.95 -21.15 19.95 -21.65 L20.05 -22.55 20.1 -23.1 20.05 -23.7 20.05 -23.85 Q20.05 -24.4 19.6 -25.35 19.1 -26.35 19.05 -26.9 M14.05 -26.85 Q13.8 -26.1 13.6 -25.8 13.3 -26.1 13.3 -26.6 13.3 -27.0 13.3 -27.05 L13.55 -27.1 13.95 -27.05 14.05 -26.85 M16.1 -20.05 L16.25 -20.1 16.6 -20.05 Q16.7 -19.8 16.7 -19.6 16.65 -19.6 16.65 -19.55 L16.45 -19.45 16.05 -19.85 16.05 -20.05 16.1 -20.05 M14.95 -20.15 Q15.05 -20.35 15.35 -20.45 15.75 -19.55 15.75 -19.45 L15.7 -19.1 15.7 -19.05 15.6 -19.0 15.45 -18.9 Q15.3 -18.95 15.05 -19.45 14.85 -19.85 14.85 -19.95 L14.95 -20.15 M9.4 -2.85 Q9.45 -2.8 9.45 -2.6 9.45 -2.4 9.25 -2.25 9.05 -2.05 8.8 -2.0 8.6 -2.0 8.55 -2.05 8.45 -2.1 8.45 -2.3 8.45 -2.6 8.75 -2.75 9.0 -2.9 9.3 -2.85 L9.4 -2.85 M13.8 -8.6 L13.95 -8.4 Q13.85 -7.6 13.75 -7.25 13.6 -6.6 12.8 -6.25 L12.7 -6.25 Q12.7 -6.3 12.7 -6.5 12.7 -7.05 12.9 -7.65 13.2 -8.55 13.8 -8.6 M14.2 -7.5 Q14.05 -7.55 14.0 -7.6 14.0 -7.7 14.15 -7.8 14.25 -7.9 14.4 -7.9 L14.5 -7.7 Q14.45 -7.5 14.3 -7.5 L14.2 -7.5 M18.05 -3.8 Q16.1 -2.8 14.6 -1.6 13.75 -0.9 12.55 0.25 11.6 1.25 11.05 1.55 10.3 2.0 9.2 2.0 L7.8 2.15 Q6.65 2.25 6.35 2.35 L6.0 2.3 Q6.25 2.15 6.95 1.95 6.4 2.0 6.05 2.15 6.3 1.95 6.65 1.75 L6.95 1.8 7.35 1.85 7.75 1.75 Q9.15 1.5 9.95 1.5 11.2 0.35 12.8 -0.9 16.0 -3.4 18.05 -3.85 L18.05 -3.8 M4.95 3.1 L5.25 2.8 5.0 3.4 Q4.75 3.8 4.4 4.0 3.45 4.5 1.55 4.75 L-0.2 4.95 Q-0.6 4.95 -0.7 4.75 -0.85 4.5 -1.6 4.25 L-3.1 3.7 Q-4.05 3.35 -4.45 3.1 L-4.7 2.95 -4.95 2.95 Q-5.15 2.95 -7.65 2.15 -10.5 1.25 -11.6 0.6 -12.2 0.3 -13.2 -0.55 -14.1 -1.35 -14.55 -1.6 -15.6 -2.1 -16.3 -2.85 -16.95 -3.55 -17.25 -4.25 L-18.25 -5.55 Q-18.8 -6.3 -19.0 -6.7 -19.35 -7.15 -19.55 -7.8 L-19.85 -8.65 Q-20.0 -9.2 -20.3 -9.55 -21.6 -11.0 -21.8 -11.3 -22.0 -11.65 -22.1 -12.1 L-22.25 -12.7 Q-22.25 -14.05 -21.75 -14.85 -21.4 -16.1 -21.35 -16.65 -21.35 -16.95 -21.55 -18.5 -21.7 -19.7 -21.45 -20.4 -20.5 -22.85 -19.75 -24.2 -18.55 -26.35 -17.1 -27.55 L-18.95 -24.3 Q-18.95 -24.1 -18.95 -23.8 -18.95 -22.95 -19.45 -22.1 L-20.15 -21.15 -20.5 -19.85 Q-20.8 -18.65 -20.8 -18.5 L-20.65 -17.0 Q-20.55 -15.75 -20.55 -15.55 -20.55 -14.8 -20.9 -13.7 L-21.2 -12.7 Q-21.1 -12.15 -20.7 -11.45 -20.35 -10.85 -19.45 -9.7 -19.2 -9.35 -19.15 -8.9 L-19.05 -8.05 Q-19.05 -7.65 -18.95 -7.3 -17.95 -6.55 -17.0 -4.95 -16.05 -3.45 -15.15 -2.85 -13.9 -2.0 -12.7 -1.05 L-10.05 1.1 -6.65 1.95 -4.2 2.5 -4.2 2.75 -3.4 3.0 Q-1.7 3.55 -1.3 3.55 -0.95 3.55 -0.05 3.3 0.8 3.1 1.05 3.1 1.25 3.1 1.65 3.35 2.05 3.6 2.2 3.6 4.3 3.6 4.95 3.1 M-12.75 -26.7 Q-12.65 -26.5 -12.65 -26.05 -12.65 -25.75 -12.7 -25.65 -12.8 -25.35 -13.2 -25.3 -13.6 -25.75 -13.6 -26.1 -13.65 -26.35 -13.55 -26.9 -13.55 -27.2 -13.5 -27.35 -13.4 -27.55 -13.1 -27.6 -13.0 -27.2 -12.75 -26.7 M-19.55 -23.1 Q-19.4 -23.1 -19.2 -23.6 L-19.1 -24.0 -19.6 -23.05 -19.55 -23.1 M-20.75 -20.4 L-20.8 -20.3 Q-20.95 -19.9 -21.0 -19.3 -20.75 -20.1 -20.5 -20.7 L-20.7 -20.4 -20.75 -20.4 M-13.95 -18.55 Q-13.95 -18.4 -14.25 -17.95 -14.55 -17.55 -14.55 -17.45 -14.55 -17.25 -14.4 -17.1 -14.25 -16.95 -14.25 -16.75 -14.25 -16.45 -14.4 -16.3 -14.5 -16.25 -14.7 -16.25 -15.1 -16.25 -15.2 -16.5 -15.25 -16.55 -15.25 -16.8 -15.25 -17.0 -14.9 -17.3 -14.55 -17.65 -14.55 -17.8 -14.55 -17.9 -14.75 -18.3 -14.95 -18.75 -14.95 -18.85 -14.95 -19.1 -14.9 -19.25 L-14.7 -19.45 Q-14.55 -19.35 -14.25 -19.05 -13.95 -18.7 -13.95 -18.55 M-15.2 -19.9 L-15.25 -19.65 -15.4 -19.6 Q-15.55 -19.5 -15.6 -19.45 L-15.8 -19.5 Q-15.85 -19.55 -15.85 -19.8 -15.85 -19.85 -15.65 -19.9 -15.45 -20.0 -15.45 -20.25 L-15.25 -20.2 Q-15.2 -20.15 -15.2 -19.9 M-12.2 -6.95 L-12.15 -7.1 Q-11.8 -7.15 -11.3 -6.95 -10.75 -6.65 -10.75 -6.3 L-10.8 -6.0 -10.9 -5.9 Q-11.0 -5.8 -11.2 -5.8 -11.55 -5.8 -11.85 -6.3 -12.05 -6.6 -12.2 -6.95" fill="#bfdcff" fill-opacity="0.7529412" fill-rule="evenodd" stroke="none"/>
    <path d="M17.0 -29.25 Q17.1 -29.1 17.35 -28.95 17.25 -28.8 16.9 -28.8 16.75 -28.9 16.7 -29.1 L16.6 -29.45 16.8 -29.45 17.0 -29.25 M20.25 -25.6 L19.95 -26.1 20.05 -26.1 Q20.35 -25.85 20.55 -25.3 20.7 -24.85 20.7 -24.3 L20.65 -23.8 20.6 -23.75 Q20.55 -23.65 20.5 -23.65 20.3 -23.75 20.25 -23.8 20.15 -23.95 20.15 -24.2 20.15 -24.35 20.3 -24.6 20.5 -24.8 20.5 -25.0 20.5 -25.15 20.25 -25.6 M20.45 -21.85 L20.5 -22.3 20.6 -22.3 21.35 -19.85 Q22.05 -17.5 22.05 -16.95 L21.7 -15.8 Q21.5 -14.95 21.5 -14.05 L21.6 -14.05 21.6 -13.6 20.9 -10.55 Q20.2 -7.5 20.2 -7.1 20.2 -5.85 19.9 -5.35 19.75 -5.05 19.35 -4.95 18.95 -4.85 18.7 -4.55 L18.4 -4.15 Q18.1 -3.85 17.95 -3.75 17.75 -3.65 17.15 -3.1 16.55 -2.6 16.45 -2.55 16.0 -2.4 15.15 -2.0 L14.2 -1.5 13.95 -1.5 Q14.65 -2.05 16.35 -3.1 17.8 -4.05 18.15 -4.95 18.25 -5.25 18.95 -5.75 19.6 -6.25 19.7 -6.65 L19.85 -7.7 19.95 -8.5 Q19.95 -10.15 20.25 -11.0 L20.75 -12.1 Q21.05 -12.75 21.3 -13.6 21.1 -14.15 21.0 -14.8 L21.0 -16.05 Q21.0 -16.15 21.35 -16.7 21.65 -17.25 21.65 -17.4 21.65 -17.55 21.5 -18.3 21.3 -19.1 21.3 -19.45 21.3 -19.55 20.85 -20.5 L20.45 -21.4 20.45 -21.85 M14.25 -25.9 Q14.2 -25.85 13.95 -25.85 L13.7 -25.9 13.7 -25.85 Q13.65 -25.85 13.65 -26.1 13.65 -26.15 13.8 -26.45 L14.05 -26.75 Q14.3 -26.55 14.3 -25.95 L14.25 -25.9 M16.55 -20.1 L16.65 -20.1 16.8 -20.15 Q16.9 -20.05 16.9 -19.95 L16.85 -19.7 Q16.8 -19.6 16.65 -19.6 L16.6 -19.65 Q16.55 -19.7 16.55 -19.95 L16.55 -20.1 M15.45 -19.85 L15.45 -19.95 15.65 -19.95 Q15.75 -19.8 15.75 -19.45 15.75 -19.3 15.5 -19.3 L15.45 -19.35 15.45 -19.85 M9.25 -2.55 L9.25 -2.3 8.95 -2.1 Q8.9 -2.1 8.85 -2.1 8.75 -2.1 8.75 -2.3 8.75 -2.4 8.85 -2.5 8.95 -2.6 9.25 -2.75 L9.25 -2.55 M14.05 -7.5 L13.75 -7.05 Q13.6 -6.75 13.35 -6.65 L13.3 -6.7 Q13.25 -6.75 13.25 -7.0 13.25 -7.2 13.4 -7.35 13.65 -7.55 14.05 -7.5 M11.85 0.55 L11.35 1.4 Q10.65 2.3 7.65 2.2 6.95 2.2 5.5 3.35 3.85 4.65 3.1 4.95 L2.85 4.9 Q2.8 4.9 2.8 4.75 2.45 4.85 2.0 5.1 1.25 5.5 0.7 5.5 -0.2 5.5 -1.95 4.35 -2.8 3.8 -3.75 3.1 L-3.7 3.05 -1.95 3.8 Q-0.2 4.55 0.4 4.55 0.55 4.4 0.8 4.2 1.35 3.8 2.2 3.8 2.35 3.8 2.45 3.9 L2.6 4.05 Q2.75 4.25 3.45 3.95 L3.45 4.0 4.25 3.35 Q5.9 1.95 6.8 1.75 7.2 1.7 9.0 1.75 10.3 1.75 10.95 1.25 L11.95 0.35 12.0 0.3 11.85 0.55 M-15.25 -30.45 L-15.7 -30.3 Q-15.7 -30.55 -15.6 -30.55 -15.3 -30.55 -15.25 -30.45 M-13.15 -26.75 Q-13.1 -26.75 -13.1 -26.5 -13.1 -26.3 -13.15 -26.2 L-13.25 -26.1 -13.4 -26.05 -13.5 -26.2 Q-13.55 -26.3 -13.55 -26.55 -13.55 -26.75 -13.4 -26.8 L-13.25 -26.85 -13.15 -26.75 M-19.85 -23.5 Q-20.55 -21.95 -20.55 -21.65 -20.55 -21.6 -20.7 -21.15 L-20.8 -20.9 -20.8 -18.85 -20.9 -17.2 -21.05 -15.55 Q-21.05 -15.45 -21.3 -14.55 -21.5 -13.6 -21.5 -13.45 L-21.6 -13.55 -21.7 -13.3 Q-21.85 -12.9 -21.85 -12.5 -21.85 -12.1 -20.7 -10.6 -19.5 -9.0 -19.45 -8.95 -18.6 -6.8 -17.6 -5.45 -16.9 -4.3 -16.45 -3.7 -15.65 -2.6 -14.3 -1.95 -13.2 -1.4 -12.0 -0.4 L-10.2 1.1 -10.15 1.15 -10.75 1.25 Q-11.2 1.25 -13.1 -0.3 -15.2 -2.05 -15.3 -2.1 -16.4 -2.7 -16.95 -3.65 L-17.35 -4.55 Q-17.65 -5.1 -18.0 -5.5 L-18.9 -6.4 Q-19.4 -6.95 -19.5 -7.3 L-19.65 -8.15 Q-19.7 -8.7 -19.8 -9.0 -19.9 -9.2 -21.2 -10.55 -22.4 -11.85 -22.4 -12.4 -22.4 -13.2 -21.9 -14.05 -22.0 -14.25 -22.0 -14.4 -22.0 -14.9 -21.55 -15.7 -21.1 -16.55 -21.1 -17.6 -21.1 -17.8 -21.25 -18.45 -21.35 -19.1 -21.35 -19.3 -21.35 -20.0 -21.15 -20.8 L-21.15 -21.05 Q-20.1 -24.8 -18.95 -25.3 L-19.85 -23.5 M-14.45 -18.95 L-14.6 -18.85 -14.7 -18.9 Q-14.8 -19.0 -14.8 -19.1 L-14.65 -19.1 -14.4 -19.05 -14.45 -18.95 M-14.7 -17.05 Q-14.55 -16.95 -14.55 -16.85 -14.55 -16.65 -14.75 -16.55 L-15.05 -16.6 Q-15.1 -16.65 -15.1 -16.9 -15.1 -17.1 -15.05 -17.1 L-15.05 -17.05 -14.7 -17.05 M-11.9 -6.8 Q-11.85 -6.85 -11.75 -6.9 L-11.55 -6.95 -11.2 -6.5 -11.25 -6.45 Q-11.4 -6.4 -11.6 -6.35 -11.85 -6.65 -11.9 -6.8" fill="#ffffff" fill-rule="evenodd" stroke="none"/>
  </g>
</svg>
