<?xml version="1.0" encoding="UTF-8" standalone="no"?>
<svg xmlns:ffdec="https://www.free-decompiler.com/flash" xmlns:xlink="http://www.w3.org/1999/xlink" ffdec:objectType="shape" height="9.4px" width="7.0px" xmlns="http://www.w3.org/2000/svg">
  <g transform="matrix(1.0, 0.0, 0.0, 1.0, 0.5, 0.5)">
    <path d="M2.0 -0.05 Q2.2 0.15 2.3 0.55 L2.35 0.95 2.35 6.35 5.05 6.35 5.3 6.4 Q5.7 6.45 6.05 6.65 L6.0 6.65 Q6.45 7.0 6.5 7.6 L6.5 7.8 Q6.45 8.2 6.2 8.45 L6.05 8.6 6.0 8.6 Q5.6 8.9 5.05 8.9 L1.1 8.9 Q0.4 8.95 0.0 8.55 L-0.05 8.55 -0.1 8.45 -0.15 8.45 Q-0.3 8.2 -0.4 7.85 L-0.5 7.35 -0.5 0.95 -0.4 0.55 Q-0.3 0.15 -0.05 -0.05 L-0.1 -0.05 Q0.25 -0.5 0.95 -0.5 1.6 -0.5 2.0 -0.05" fill="#ffff66" fill-rule="evenodd" stroke="none"/>
    <path d="M1.85 0.65 L0.05 0.65 Q0.1 0.4 0.25 0.25 0.5 0.0 0.95 0.0 1.4 0.0 1.65 0.25 1.8 0.4 1.85 0.65" fill="#007300" fill-rule="evenodd" stroke="none"/>
    <path d="M1.85 0.65 L1.9 0.95 1.9 1.45 0.0 1.45 0.0 0.95 0.05 0.65 1.85 0.65" fill="#009f00" fill-rule="evenodd" stroke="none"/>
    <path d="M1.9 2.2 L1.9 2.95 0.0 2.95 0.0 2.2 1.9 2.2" fill="#00ca00" fill-rule="evenodd" stroke="none"/>
    <path d="M0.0 1.45 L1.9 1.45 1.9 2.2 0.0 2.2 0.0 1.45" fill="#00bd00" fill-rule="evenodd" stroke="none"/>
    <path d="M1.9 2.95 L1.9 3.8 0.0 3.8 0.0 2.95 1.9 2.95" fill="#00dd00" fill-rule="evenodd" stroke="none"/>
    <path d="M1.9 3.8 L1.9 4.7 0.0 4.7 0.0 3.8 1.9 3.8" fill="#00f400" fill-rule="evenodd" stroke="none"/>
    <path d="M1.9 4.7 L1.9 5.85 0.0 5.85 0.0 4.7 1.9 4.7" fill="#15ff15" fill-rule="evenodd" stroke="none"/>
    <path d="M1.9 5.85 L1.9 6.85 5.25 6.85 0.0 6.85 0.0 5.85 1.9 5.85" fill="#35ff35" fill-rule="evenodd" stroke="none"/>
    <path d="M5.25 6.85 Q5.5 6.9 5.75 7.05 6.0 7.25 6.0 7.65 L6.0 7.75 0.05 7.75 0.0 7.35 0.0 6.85 5.25 6.85" fill="#64ff64" fill-rule="evenodd" stroke="none"/>
    <path d="M5.85 8.1 L5.75 8.25 Q5.45 8.45 5.05 8.45 L1.1 8.45 Q0.6 8.45 0.3 8.2 L0.25 8.1 5.85 8.1" fill="#d9ffd9" fill-rule="evenodd" stroke="none"/>
    <path d="M6.0 7.75 Q6.0 7.95 5.85 8.1 L0.25 8.1 Q0.1 8.0 0.05 7.75 L6.0 7.75" fill="#8eff8e" fill-rule="evenodd" stroke="none"/>
  </g>
</svg>
