<?xml version="1.0" encoding="UTF-8" standalone="no"?>
<svg xmlns:ffdec="https://www.free-decompiler.com/flash" xmlns:xlink="http://www.w3.org/1999/xlink" ffdec:objectType="shape" height="1.9px" width="3.95px" xmlns="http://www.w3.org/2000/svg">
  <g transform="matrix(1.0, 0.0, 0.0, 1.0, 1.3, 1.75)">
    <path d="M0.55 -0.25 L0.5 -0.2 Q0.45 -0.2 0.45 -0.25 L0.2 -0.3 0.25 -0.2 Q0.15 -0.25 0.0 -0.35 L-0.05 -0.3 -0.15 -0.3 -0.55 -0.25 -0.8 -0.3 -0.9 -0.25 -1.05 -0.25 -1.1 -0.15 -1.15 0.15 -1.15 -0.2 -1.25 -0.2 -1.3 -0.25 -1.1 -0.35 -1.0 -0.5 Q-0.85 -0.7 -0.75 -0.8 -0.7 -0.9 -0.55 -0.9 L-0.25 -1.0 Q-0.2 -1.0 -0.15 -1.1 L-0.05 -1.3 0.2 -1.55 Q0.6 -1.85 1.15 -1.7 L1.2 -1.65 1.45 -1.5 1.65 -1.3 1.8 -1.1 2.15 -0.65 Q2.45 -0.35 2.65 -0.25 L2.5 -0.2 2.1 -0.3 1.95 -0.2 1.9 -0.25 1.8 -0.25 1.3 -0.2 0.65 -0.3 0.55 -0.25" fill="#ffffff" fill-opacity="0.5019608" fill-rule="evenodd" stroke="none"/>
  </g>
</svg>
