<?xml version="1.0" encoding="UTF-8" standalone="no"?>
<svg xmlns:ffdec="https://www.free-decompiler.com/flash" xmlns:xlink="http://www.w3.org/1999/xlink" ffdec:objectType="shape" height="1.5px" width="11.05px" xmlns="http://www.w3.org/2000/svg">
  <g transform="matrix(1.0, 0.0, 0.0, 1.0, 5.25, 0.45)">
    <path d="M4.65 -0.1 Q4.65 0.2 4.15 0.45 L3.75 0.6 3.35 0.7 0.3 1.05 -2.8 0.7 -3.55 0.45 Q-4.1 0.2 -4.1 -0.1 L-4.05 -0.15 -2.8 -0.35 0.3 -0.45 3.35 -0.35 3.75 -0.3 4.6 -0.15 4.65 -0.1" fill="#ffffff" fill-opacity="0.5019608" fill-rule="evenodd" stroke="none"/>
    <path d="M5.8 -0.1 Q5.8 0.2 5.15 0.45 L4.2 0.7 3.75 0.8 0.3 1.05 -3.65 0.7 -4.6 0.45 Q-5.25 0.2 -5.25 -0.1 L-5.2 -0.15 -3.65 -0.35 0.3 -0.45 3.9 -0.4 4.2 -0.35 5.75 -0.15 5.8 -0.1" fill="#ffffff" fill-opacity="0.5019608" fill-rule="evenodd" stroke="none"/>
  </g>
</svg>
