<?xml version="1.0" encoding="UTF-8" standalone="no"?>
<svg xmlns:ffdec="https://www.free-decompiler.com/flash" xmlns:xlink="http://www.w3.org/1999/xlink" ffdec:objectType="shape" height="8.9px" width="6.05px" xmlns="http://www.w3.org/2000/svg">
  <g transform="matrix(1.0, 0.0, 0.0, 1.0, 1.75, 8.3)">
    <path d="M0.9 -7.7 L1.05 -7.95 Q1.2 -8.1 1.45 -8.2 L1.7 -8.25 2.05 -8.25 Q2.7 -7.95 2.85 -7.3 3.05 -6.65 3.3 -6.4 L3.85 -6.35 4.0 -6.25 Q4.15 -6.1 4.2 -5.9 L4.2 -5.0 4.05 -4.55 4.0 -4.5 3.95 -4.5 3.9 -4.4 3.85 -4.4 3.85 -4.6 3.9 -4.85 3.8 -5.15 3.65 -5.2 3.2 -5.0 Q3.05 -4.7 2.9 -4.3 2.7 -3.45 2.4 -3.45 L2.35 -3.45 Q2.15 -2.8 2.15 -2.1 2.15 -1.85 2.25 -1.4 L2.25 -1.3 Q2.35 -0.65 2.5 -0.6 2.65 -0.7 2.75 -0.85 L2.8 -0.85 2.85 -1.05 2.95 -1.3 3.0 -1.45 Q3.1 -1.85 3.1 -2.15 L3.1 -2.25 3.15 -2.4 3.2 -2.4 3.25 -1.75 3.3 -1.45 3.3 -1.4 3.25 -1.45 3.35 -1.3 3.4 -1.15 Q3.5 -0.9 3.7 -0.75 3.9 -0.5 4.25 -0.4 L4.3 -0.35 4.3 -0.3 4.25 -0.25 4.2 -0.25 3.9 -0.4 Q3.85 -0.4 3.8 -0.45 L3.85 -0.4 3.8 -0.3 3.6 -0.3 3.3 -0.35 2.75 -0.2 2.7 -0.15 2.45 0.3 Q2.35 0.3 2.35 0.05 L2.35 -0.15 2.3 -0.25 2.25 -0.25 1.55 -0.3 1.2 -0.45 0.35 -0.3 Q0.25 -0.3 0.2 -0.45 0.15 -0.35 0.1 -0.35 L-0.1 -0.25 -0.25 -0.2 -0.25 -0.15 Q-0.35 0.3 -0.45 0.3 -0.6 0.3 -0.65 -0.15 L-0.7 -0.3 -0.8 -0.3 -0.95 -0.25 -1.0 -0.25 Q-1.1 -0.3 -1.2 -0.5 L-1.25 -0.3 -1.25 0.45 Q-1.3 0.75 -1.3 0.45 L-1.3 -0.15 -1.25 -0.25 -1.4 -0.25 -1.5 -0.35 -1.6 -0.2 -1.7 -0.25 -1.5 -0.75 -1.4 -1.3 -1.3 -1.5 -1.3 -1.55 -1.25 -1.6 -1.2 -2.05 -1.15 -2.05 -1.2 -1.95 -1.2 -1.75 -1.15 -1.5 -1.15 -1.6 -1.1 -1.55 -1.1 -1.15 Q-1.05 -0.45 -0.8 -0.45 L-0.75 -0.5 Q-0.75 -1.1 -0.45 -1.2 -0.1 -1.25 -0.1 -0.75 L-0.1 -0.7 0.0 -0.55 Q0.2 -0.55 0.3 -1.3 L0.3 -1.4 0.4 -2.05 0.35 -2.25 Q0.3 -2.25 0.25 -2.3 L0.2 -2.35 0.15 -2.3 0.0 -2.2 -0.05 -2.1 Q-0.25 -1.85 -0.3 -1.85 -0.55 -1.85 -0.65 -1.95 L-0.7 -2.2 -0.7 -2.6 -0.75 -2.8 -0.85 -3.05 -0.85 -3.1 Q-1.05 -2.7 -1.05 -2.3 L-1.1 -2.3 -1.1 -2.4 -1.15 -2.2 -1.2 -2.05 Q-1.3 -2.7 -1.4 -3.1 L-1.4 -3.05 -1.75 -4.1 Q-1.75 -4.6 -1.55 -4.75 L-1.05 -4.9 Q-0.2 -5.05 0.15 -6.15 L0.6 -7.2 Q0.7 -7.45 0.85 -7.65 L0.9 -7.7 M1.35 -8.05 L1.35 -8.05 M2.35 -6.8 Q2.2 -6.8 2.2 -6.55 L2.2 -6.45 Q2.25 -6.4 2.4 -6.4 2.55 -6.4 2.6 -6.5 2.7 -6.75 2.75 -6.8 L2.35 -6.8 M4.05 -4.65 L4.05 -4.65 M0.7 -7.25 L0.7 -7.25 M0.5 -2.1 L0.5 -2.1 M0.05 -2.75 L0.1 -2.95 Q0.1 -3.25 -0.15 -3.2 -0.4 -3.2 -0.4 -3.0 L-0.35 -2.8 Q-0.25 -2.6 -0.1 -2.6 0.0 -2.6 0.05 -2.75 M3.2 -2.2 L3.2 -2.2 M3.2 -1.3 L3.2 -1.3 M3.1 -1.8 L3.1 -1.8 M-0.35 -3.4 Q-0.35 -3.55 -0.5 -3.55 -0.6 -3.55 -0.6 -3.4 L-0.6 -3.3 -0.5 -3.25 -0.4 -3.3 -0.35 -3.4 M-1.25 -0.95 L-1.25 -0.95" fill="#ffffff" fill-opacity="0.5019608" fill-rule="evenodd" stroke="none"/>
  </g>
</svg>
