<?xml version="1.0" encoding="UTF-8" standalone="no"?>
<svg xmlns:ffdec="https://www.free-decompiler.com/flash" xmlns:xlink="http://www.w3.org/1999/xlink" ffdec:objectType="shape" height="20.5px" width="9.0px" xmlns="http://www.w3.org/2000/svg">
  <g transform="matrix(1.0, 0.0, 0.0, 1.0, 3.05, 19.45)">
    <path d="M3.6 -0.1 Q3.6 0.2 3.25 0.45 3.0 0.6 2.65 0.7 1.65 1.05 0.3 1.05 -1.1 1.05 -2.1 0.7 L-2.7 0.45 Q-3.05 0.2 -3.05 -0.1 L-3.05 -0.15 -2.1 -0.35 0.3 -0.45 2.65 -0.35 3.6 -0.15 3.6 -0.1" fill="#ffffff" fill-opacity="0.5019608" fill-rule="evenodd" stroke="none"/>
    <path d="M3.05 -0.1 Q3.05 0.2 2.75 0.45 L2.25 0.7 Q1.45 1.05 0.3 1.05 -0.9 1.05 -1.7 0.7 -2.0 0.6 -2.2 0.45 -2.5 0.2 -2.5 -0.1 L-2.5 -0.15 -1.7 -0.35 0.3 -0.45 2.25 -0.35 3.05 -0.15 3.05 -0.1" fill="#ffffff" fill-opacity="0.5019608" fill-rule="evenodd" stroke="none"/>
    <path d="M1.9 -19.15 L2.45 -18.75 2.7 -18.6 Q2.95 -18.5 3.2 -18.3 3.65 -18.05 3.75 -17.7 L3.8 -17.2 Q3.85 -16.8 3.95 -16.65 L4.35 -16.65 Q4.7 -17.05 4.95 -17.05 5.2 -17.05 5.3 -16.6 L5.35 -16.05 5.25 -15.65 5.15 -15.2 5.15 -15.0 5.25 -14.95 Q5.65 -14.95 5.85 -14.7 L5.95 -14.5 5.95 -14.3 5.9 -14.05 5.9 -13.9 5.85 -13.65 5.8 -12.95 5.7 -12.9 Q5.65 -12.9 5.6 -13.05 L5.6 -13.15 5.55 -13.3 Q5.55 -13.75 5.3 -13.85 L5.4 -13.9 5.2 -13.85 5.1 -13.6 Q5.0 -13.4 4.85 -13.4 4.6 -13.4 4.35 -13.65 4.1 -13.85 3.8 -13.85 L3.55 -13.85 3.5 -13.8 Q3.35 -13.55 3.35 -13.1 3.35 -12.55 2.95 -12.55 L2.75 -12.55 2.65 -12.7 Q2.2 -12.4 1.95 -11.55 1.8 -10.8 1.4 -10.8 1.15 -10.8 1.2 -11.35 1.2 -12.05 0.95 -12.35 0.8 -12.5 0.55 -12.55 0.25 -12.6 0.25 -12.65 L0.2 -12.85 0.1 -13.05 -0.15 -13.45 -0.5 -13.75 Q-0.7 -13.7 -0.9 -13.5 -1.2 -13.25 -1.35 -13.25 L-1.55 -13.3 -1.85 -13.4 -2.0 -13.4 Q-2.2 -13.35 -2.25 -13.1 -2.3 -12.9 -2.45 -12.85 L-2.5 -13.15 -2.55 -13.15 -2.55 -13.3 -2.6 -13.45 -2.7 -13.65 -2.6 -13.9 -2.5 -14.05 -2.35 -14.2 Q-2.2 -14.65 -1.9 -14.5 -1.8 -14.65 -1.8 -15.0 L-1.8 -15.2 -1.85 -15.4 -1.8 -15.55 -1.8 -15.6 -1.65 -15.9 Q-1.55 -16.1 -1.35 -16.2 L-1.3 -16.25 -0.9 -16.25 -0.6 -16.0 -0.4 -16.05 -0.25 -16.15 Q-0.05 -16.45 0.05 -16.9 L0.35 -17.95 0.75 -18.75 0.95 -19.1 Q1.2 -19.5 1.5 -19.4 L1.6 -19.4 1.9 -19.15 M0.3 -11.45 Q0.3 -11.3 0.1 -11.2 L-0.45 -11.0 -0.5 -11.0 -0.55 -11.1 Q-0.55 -11.3 -0.4 -11.4 -0.25 -11.6 0.15 -11.65 0.3 -11.55 0.3 -11.45 M1.9 -10.25 L2.15 -10.1 2.35 -10.1 Q3.45 -10.7 3.45 -9.55 3.45 -9.45 3.35 -9.3 3.25 -9.1 3.2 -8.9 L3.2 -8.7 3.1 -8.7 Q2.95 -8.7 2.95 -8.9 L3.0 -9.3 Q3.0 -9.45 2.8 -9.65 L2.5 -9.9 1.95 -9.9 1.85 -10.05 1.85 -10.2 1.9 -10.25 M0.85 -8.9 L1.0 -8.85 Q1.15 -8.85 1.3 -9.1 L1.4 -9.35 Q1.5 -9.55 1.75 -9.5 1.95 -9.5 2.05 -9.25 2.05 -9.2 1.95 -9.2 L1.75 -9.3 Q1.6 -8.85 1.2 -8.6 0.85 -8.35 0.85 -8.1 0.85 -7.95 1.0 -8.0 L1.2 -8.05 1.4 -8.0 1.55 -7.8 1.65 -7.55 Q1.65 -7.2 1.5 -6.95 L1.4 -6.95 1.5 -7.35 1.4 -7.55 1.35 -7.7 1.2 -7.75 0.95 -7.6 0.75 -7.5 Q0.3 -7.5 0.05 -8.2 L0.15 -8.45 Q0.15 -8.7 0.3 -8.8 0.4 -9.0 0.6 -9.0 L0.85 -8.9 M3.55 -6.45 L3.35 -6.5 3.25 -6.55 Q3.4 -6.75 3.65 -6.65 L3.65 -6.5 3.55 -6.45 M2.8 -5.25 L2.35 -5.3 2.3 -5.3 2.5 -5.45 2.8 -5.4 2.8 -5.25 M0.3 -6.7 L0.2 -6.65 -0.3 -6.7 -0.4 -6.8 0.1 -6.9 0.3 -6.8 0.3 -6.7 M1.3 -4.2 Q1.3 -4.35 1.45 -4.35 1.55 -4.35 1.55 -4.2 1.55 -4.05 1.45 -4.05 L1.3 -4.1 1.3 -4.2 M1.25 -1.95 Q1.15 -2.05 1.15 -2.1 1.15 -2.4 1.45 -2.3 L1.45 -2.2 Q1.45 -1.95 1.25 -1.95 M0.45 -0.2 L0.3 -0.25 0.3 -0.45 0.35 -0.55 Q0.45 -0.65 0.45 -0.7 0.55 -0.55 0.55 -0.3 L0.55 -0.25 0.45 -0.2 M2.05 -0.7 L2.1 -0.5 2.0 -0.3 1.9 -0.2 1.8 -0.3 1.75 -0.45 Q1.75 -0.55 1.85 -0.65 L2.05 -0.7 M4.6 -6.45 L4.2 -6.45 4.05 -6.55 4.4 -6.7 Q4.6 -6.75 4.6 -6.55 L4.6 -6.45 M-1.4 -6.95 Q-1.25 -7.2 -1.05 -7.15 -0.95 -7.1 -0.85 -6.9 L-0.85 -6.85 -0.9 -6.85 -1.35 -6.9 -1.4 -6.95 M-1.15 -0.45 Q-1.2 -0.3 -1.25 -0.3 -1.3 -0.25 -1.3 -0.4 L-1.15 -0.5 -1.15 -0.45" fill="#ffffff" fill-opacity="0.5019608" fill-rule="evenodd" stroke="none"/>
    <path d="M1.9 -19.15 L2.45 -18.75 2.7 -18.6 Q2.95 -18.5 3.2 -18.3 3.65 -18.05 3.75 -17.7 L3.8 -17.2 Q3.85 -16.8 3.95 -16.65 L4.35 -16.65 Q4.7 -17.05 4.95 -17.05 5.2 -17.05 5.3 -16.6 L5.35 -16.05 5.25 -15.65 5.15 -15.2 5.15 -15.0 5.25 -14.95 Q5.65 -14.95 5.85 -14.7 L5.95 -14.5 5.95 -14.3 5.9 -14.05 5.9 -13.9 5.85 -13.65 5.8 -12.95 5.7 -12.9 Q5.65 -12.9 5.6 -13.05 L5.6 -13.15 5.55 -13.3 Q5.55 -13.75 5.3 -13.85 L5.4 -13.9 5.2 -13.85 5.1 -13.6 Q5.0 -13.4 4.85 -13.4 4.6 -13.4 4.35 -13.65 4.1 -13.85 3.8 -13.85 L3.55 -13.85 3.5 -13.8 Q3.35 -13.55 3.35 -13.1 3.35 -12.55 2.95 -12.55 L2.75 -12.55 2.65 -12.7 Q2.2 -12.4 1.95 -11.55 1.8 -10.8 1.4 -10.8 1.15 -10.8 1.2 -11.35 1.2 -12.05 0.95 -12.35 0.8 -12.5 0.55 -12.55 0.25 -12.6 0.25 -12.65 L0.2 -12.85 0.1 -13.05 -0.15 -13.45 -0.5 -13.75 Q-0.7 -13.7 -0.9 -13.5 -1.2 -13.25 -1.35 -13.25 L-1.55 -13.3 -1.85 -13.4 -2.0 -13.4 Q-2.2 -13.35 -2.25 -13.1 -2.3 -12.9 -2.45 -12.85 L-2.5 -13.15 -2.55 -13.15 -2.55 -13.3 -2.6 -13.45 -2.7 -13.65 -2.6 -13.9 -2.5 -14.05 -2.35 -14.2 Q-2.2 -14.65 -1.9 -14.5 -1.8 -14.65 -1.8 -15.0 L-1.8 -15.2 -1.85 -15.4 -1.8 -15.55 -1.8 -15.6 -1.65 -15.9 Q-1.55 -16.1 -1.35 -16.2 L-1.3 -16.25 -0.9 -16.25 -0.6 -16.0 -0.4 -16.05 -0.25 -16.15 Q-0.05 -16.45 0.05 -16.9 L0.35 -17.95 0.75 -18.75 0.95 -19.1 Q1.2 -19.5 1.5 -19.4 L1.6 -19.4 1.9 -19.15 M0.3 -11.45 Q0.3 -11.3 0.1 -11.2 L-0.45 -11.0 -0.5 -11.0 -0.55 -11.1 Q-0.55 -11.3 -0.4 -11.4 -0.25 -11.6 0.15 -11.65 0.3 -11.55 0.3 -11.45 M1.9 -10.25 L2.15 -10.1 2.35 -10.1 Q3.45 -10.7 3.45 -9.55 3.45 -9.45 3.35 -9.3 3.25 -9.1 3.2 -8.9 L3.2 -8.7 3.1 -8.7 Q2.95 -8.7 2.95 -8.9 L3.0 -9.3 Q3.0 -9.45 2.8 -9.65 L2.5 -9.9 1.95 -9.9 1.85 -10.05 1.85 -10.2 1.9 -10.25 M0.85 -8.9 L1.0 -8.85 Q1.15 -8.85 1.3 -9.1 L1.4 -9.35 Q1.5 -9.55 1.75 -9.5 1.95 -9.5 2.05 -9.25 2.05 -9.2 1.95 -9.2 L1.75 -9.3 Q1.6 -8.85 1.2 -8.6 0.85 -8.35 0.85 -8.1 0.85 -7.95 1.0 -8.0 L1.2 -8.05 1.4 -8.0 1.55 -7.8 1.65 -7.55 Q1.65 -7.2 1.5 -6.95 L1.4 -6.95 1.5 -7.35 1.4 -7.55 1.35 -7.7 1.2 -7.75 0.95 -7.6 0.75 -7.5 Q0.3 -7.5 0.05 -8.2 L0.15 -8.45 Q0.15 -8.7 0.3 -8.8 0.4 -9.0 0.6 -9.0 L0.85 -8.9 M3.55 -6.45 L3.35 -6.5 3.25 -6.55 Q3.4 -6.75 3.65 -6.65 L3.65 -6.5 3.55 -6.45 M2.8 -5.25 L2.35 -5.3 2.3 -5.3 2.5 -5.45 2.8 -5.4 2.8 -5.25 M0.3 -6.7 L0.2 -6.65 -0.3 -6.7 -0.4 -6.8 0.1 -6.9 0.3 -6.8 0.3 -6.7 M1.3 -4.2 Q1.3 -4.35 1.45 -4.35 1.55 -4.35 1.55 -4.2 1.55 -4.05 1.45 -4.05 L1.3 -4.1 1.3 -4.2 M1.25 -1.95 Q1.15 -2.05 1.15 -2.1 1.15 -2.4 1.45 -2.3 L1.45 -2.2 Q1.45 -1.95 1.25 -1.95 M0.45 -0.2 L0.3 -0.25 0.3 -0.45 0.35 -0.55 Q0.45 -0.65 0.45 -0.7 0.55 -0.55 0.55 -0.3 L0.55 -0.25 0.45 -0.2 M2.05 -0.7 L2.1 -0.5 2.0 -0.3 1.9 -0.2 1.8 -0.3 1.75 -0.45 Q1.75 -0.55 1.85 -0.65 L2.05 -0.7 M4.6 -6.45 L4.2 -6.45 4.05 -6.55 4.4 -6.7 Q4.6 -6.75 4.6 -6.55 L4.6 -6.45 M-1.4 -6.95 Q-1.25 -7.2 -1.05 -7.15 -0.95 -7.1 -0.85 -6.9 L-0.85 -6.85 -0.9 -6.85 -1.35 -6.9 -1.4 -6.95 M-1.15 -0.45 Q-1.2 -0.3 -1.25 -0.3 -1.3 -0.25 -1.3 -0.4 L-1.15 -0.5 -1.15 -0.45" fill="#ffffff" fill-opacity="0.5019608" fill-rule="evenodd" stroke="none"/>
  </g>
</svg>
