<?xml version="1.0" encoding="UTF-8" standalone="no"?>
<svg xmlns:ffdec="https://www.free-decompiler.com/flash" xmlns:xlink="http://www.w3.org/1999/xlink" ffdec:objectType="shape" height="19.95px" width="12.85px" xmlns="http://www.w3.org/2000/svg">
  <g transform="matrix(1.0, 0.0, 0.0, 1.0, 22.7, 10.05)">
    <path d="M-15.15 6.8 Q-14.8 6.7 -14.45 6.55 -13.35 8.1 -12.0 8.65 -15.15 9.5 -18.35 9.9 L-17.35 9.25 Q-15.6 8.0 -15.15 6.8 M-15.0 5.7 L-15.35 5.8 Q-18.7 6.8 -22.0 6.4 L-22.15 6.35 Q-19.3 5.5 -16.55 4.35 L-15.8 4.0 Q-15.55 4.65 -15.2 5.3 L-15.0 5.7 M-9.85 -9.5 L-10.1 -9.3 -9.95 -9.5 -9.85 -9.5 M-17.5 -0.4 L-16.8 -0.65 Q-16.8 0.45 -16.55 1.55 -18.9 1.3 -21.25 1.55 -19.45 0.45 -17.5 -0.4 M-17.45 -4.3 Q-20.15 -4.85 -22.7 -5.1 L-20.9 -5.65 Q-18.2 -6.35 -15.55 -6.6 -16.1 -5.3 -16.45 -4.0 -16.95 -4.15 -17.45 -4.3 M-13.8 -10.05 L-13.05 -10.05 Q-14.15 -9.1 -14.9 -7.85 L-17.0 -8.7 Q-18.85 -9.5 -20.8 -9.95 L-13.8 -10.05 M-18.9 0.6 L-19.3 0.8 -19.1 0.8 -18.9 0.6" fill="#ff9999" fill-rule="evenodd" stroke="none"/>
  </g>
</svg>
