<?xml version="1.0" encoding="UTF-8" standalone="no"?>
<svg xmlns:ffdec="https://www.free-decompiler.com/flash" xmlns:xlink="http://www.w3.org/1999/xlink" ffdec:objectType="shape" height="35.95px" width="57.05px" xmlns="http://www.w3.org/2000/svg">
  <g transform="matrix(1.0, 0.0, 0.0, 1.0, 28.2, 32.0)">
    <path d="M13.2 -31.6 L12.9 -31.5 12.45 -31.5 12.4 -31.65 12.35 -31.85 Q12.55 -32.05 13.0 -31.9 L13.2 -31.6 M16.35 -29.2 L16.4 -29.55 Q16.85 -29.4 17.55 -28.85 18.2 -28.35 18.6 -28.2 17.9 -28.2 17.1 -28.6 16.55 -28.95 16.35 -29.2 M19.65 -27.35 L19.65 -27.4 Q20.05 -27.1 20.95 -26.55 22.25 -25.85 22.65 -25.55 24.8 -24.2 25.45 -23.0 25.5 -22.8 26.95 -20.45 28.3 -18.2 28.3 -17.75 L28.2 -13.75 Q28.2 -12.7 27.65 -11.05 27.2 -9.5 26.65 -8.55 26.45 -8.2 26.1 -7.4 25.75 -6.55 25.55 -6.15 24.8 -4.65 23.45 -3.9 21.45 -2.8 20.4 -2.2 18.4 -1.05 17.65 -0.25 17.25 0.15 16.55 0.55 L15.95 0.85 Q15.25 1.15 14.35 1.45 11.85 2.3 7.25 3.2 7.2 3.25 6.95 3.35 L6.45 3.4 5.2 3.3 Q5.15 3.35 5.1 3.4 L4.7 3.7 4.55 3.65 4.15 3.75 Q3.4 3.95 2.4 3.95 L-3.2 3.45 -8.7 2.85 Q-9.5 2.55 -10.9 2.15 L-13.6 1.35 Q-15.75 0.7 -17.6 -0.45 L-21.0 -2.65 Q-21.75 -3.1 -22.65 -3.75 L-24.1 -4.8 Q-24.6 -5.2 -25.25 -6.1 -25.9 -6.95 -26.5 -7.35 -27.35 -7.95 -28.2 -12.85 -28.2 -13.45 -28.0 -14.95 -27.75 -16.4 -27.75 -18.25 -27.75 -18.6 -26.85 -20.35 -26.0 -21.95 -25.6 -22.45 -24.95 -23.25 -23.6 -24.5 -22.3 -25.65 -21.5 -26.1 L-21.55 -26.0 Q-20.8 -26.55 -20.25 -27.0 L-20.2 -27.05 Q-20.1 -27.0 -20.1 -26.8 -20.1 -26.55 -20.9 -26.15 -21.4 -25.85 -21.7 -25.8 -22.15 -25.05 -23.3 -23.95 L-23.9 -23.4 -23.9 -23.35 -23.95 -23.35 Q-24.9 -22.4 -25.25 -21.95 -24.9 -21.85 -24.75 -21.45 -24.65 -21.25 -24.65 -21.0 -24.65 -20.25 -25.15 -19.7 -25.95 -18.8 -26.35 -17.9 -25.85 -17.55 -25.85 -17.3 -25.85 -17.0 -26.35 -15.3 L-27.0 -13.2 -27.0 -13.1 -26.75 -13.65 Q-26.65 -13.85 -26.25 -13.85 -26.0 -13.85 -25.85 -13.55 -25.75 -13.4 -25.75 -13.25 -25.75 -13.05 -25.9 -12.4 -26.0 -11.75 -26.0 -11.55 -26.0 -11.45 -25.5 -10.8 -25.05 -10.2 -25.05 -9.9 -25.05 -9.75 -25.2 -9.15 L-25.3 -8.7 Q-25.2 -8.35 -25.2 -8.0 L-25.2 -7.95 Q-23.5 -7.65 -23.15 -6.75 L-22.95 -6.0 Q-22.85 -5.55 -22.55 -5.3 -22.2 -5.05 -21.65 -4.75 L-20.85 -4.35 Q-19.95 -3.85 -19.95 -3.05 L-20.05 -2.85 -20.1 -2.8 -19.65 -2.45 Q-18.55 -2.6 -16.4 -1.45 -15.0 -0.7 -14.6 -0.5 -13.6 -0.05 -12.95 -0.05 -12.65 -0.05 -11.65 0.5 -10.65 1.05 -10.5 1.1 -9.55 1.25 -9.15 1.35 -8.3 1.6 -8.15 2.0 L-8.55 2.15 Q-4.6 3.0 -0.45 3.0 L1.85 3.1 4.1 3.2 4.3 3.25 Q4.4 3.15 4.55 3.1 4.2 3.0 4.05 3.0 4.15 2.9 7.4 2.4 11.0 1.85 12.3 1.5 L13.9 0.95 13.9 0.75 Q13.9 0.4 14.75 0.0 15.4 -0.3 15.9 -0.35 16.25 -0.85 16.4 -1.2 16.75 -2.0 16.9 -2.2 17.05 -2.4 17.15 -2.4 L17.55 -2.2 Q17.85 -2.05 18.3 -2.05 18.35 -2.05 18.55 -2.3 18.7 -2.55 18.95 -2.6 18.95 -3.15 19.4 -4.0 19.95 -5.2 20.7 -5.2 21.05 -5.2 21.15 -4.95 21.2 -4.85 21.2 -4.6 L22.85 -5.1 Q23.8 -5.4 24.3 -6.1 25.05 -7.1 25.2 -8.25 25.4 -9.65 26.2 -10.55 26.55 -10.95 26.7 -11.2 26.9 -11.65 26.9 -12.35 26.9 -12.8 26.4 -13.65 25.85 -14.5 25.85 -14.85 25.85 -15.3 26.05 -15.45 26.2 -15.6 26.65 -15.6 27.0 -15.6 27.25 -16.25 27.25 -16.85 26.85 -17.45 26.45 -18.0 26.45 -18.2 26.45 -18.35 26.6 -18.7 26.75 -19.0 26.75 -19.2 26.75 -19.4 25.75 -20.2 24.75 -21.0 24.75 -21.35 24.75 -21.5 24.9 -21.75 25.0 -22.05 25.2 -22.25 25.15 -22.35 24.65 -22.95 L24.4 -23.2 21.9 -25.35 Q20.0 -26.95 19.65 -27.35 M22.55 -17.25 L22.5 -16.9 22.45 -16.85 Q22.35 -16.8 22.25 -16.75 22.1 -16.85 22.05 -16.9 21.95 -17.0 21.95 -17.2 21.95 -17.45 22.05 -17.55 22.1 -17.6 22.25 -17.6 22.4 -17.55 22.5 -17.45 22.55 -17.3 22.55 -17.25 M10.1 -1.95 Q9.95 -1.75 9.8 -1.65 L9.5 -1.75 Q9.45 -1.8 9.45 -2.05 9.45 -2.3 9.55 -2.4 9.6 -2.5 9.8 -2.55 10.1 -2.3 10.1 -1.95 M22.8 -12.55 Q22.95 -12.3 22.95 -12.1 22.95 -11.85 22.9 -11.8 L22.8 -11.65 Q22.7 -11.6 22.55 -11.55 22.25 -11.65 22.2 -11.85 L22.15 -12.1 Q22.15 -12.35 22.25 -12.6 22.4 -12.8 22.55 -12.9 L22.8 -12.55 M18.9 -2.0 L19.0 -2.1 19.0 -2.15 18.9 -2.0 M-18.25 -28.3 Q-18.7 -27.95 -19.05 -27.9 L-19.2 -27.95 -19.2 -28.15 Q-19.2 -28.45 -18.55 -28.8 -17.95 -29.1 -17.55 -29.1 -17.85 -28.65 -18.25 -28.3 M-13.75 -30.85 L-13.85 -30.85 -14.2 -30.8 -14.25 -30.85 Q-14.3 -30.85 -14.3 -31.05 -14.3 -31.25 -14.0 -31.35 L-13.55 -31.35 Q-13.55 -31.1 -13.75 -30.85 M-25.55 -21.5 L-25.75 -21.1 Q-25.55 -21.35 -25.3 -21.45 -25.35 -21.55 -25.5 -21.5 L-25.55 -21.5 M-27.4 -15.2 L-27.5 -14.6 -27.3 -15.2 -27.35 -15.35 -27.4 -15.2 M-27.6 -12.6 Q-27.55 -12.4 -27.4 -12.25 L-27.3 -12.1 -27.3 -12.4 -27.55 -12.6 -27.6 -12.6 M-26.55 -11.85 L-26.5 -11.9 -26.6 -11.95 -26.55 -11.85 M-26.95 -9.55 L-26.95 -9.35 Q-26.95 -9.0 -26.65 -8.5 L-26.95 -9.55 M-25.75 -7.35 L-25.25 -6.85 -25.3 -7.0 -25.5 -7.4 Q-25.6 -7.35 -25.75 -7.35 M-14.35 -27.05 L-14.35 -27.0 -14.45 -26.95 -14.7 -26.95 -14.75 -27.0 -14.8 -27.15 -14.75 -27.35 -14.55 -27.35 Q-14.35 -27.2 -14.35 -27.05 M-17.95 -22.95 L-18.0 -22.9 -18.15 -22.85 -18.35 -22.9 Q-18.4 -22.95 -18.4 -23.2 -18.4 -23.65 -17.8 -23.45 -17.8 -23.25 -17.95 -22.95 M-22.45 -15.0 Q-22.45 -15.45 -21.95 -15.35 -21.5 -15.25 -21.4 -14.95 -21.3 -14.1 -21.2 -13.75 L-21.25 -13.45 -21.35 -13.45 -21.7 -13.4 Q-22.15 -13.4 -22.35 -14.2 -22.45 -14.65 -22.45 -15.0 M-20.5 -10.75 Q-20.05 -10.5 -20.05 -10.1 L-20.05 -9.7 -20.1 -9.65 Q-20.15 -9.55 -20.35 -9.55 -20.7 -9.55 -21.1 -10.1 -21.4 -10.55 -21.4 -10.8 -20.95 -11.0 -20.5 -10.75 M-21.4 -8.6 Q-21.3 -8.55 -21.2 -8.45 L-21.15 -8.25 -21.25 -8.05 -21.25 -8.0 Q-21.3 -8.0 -21.4 -7.95 L-21.6 -8.0 Q-21.65 -8.05 -21.65 -8.3 -21.65 -8.55 -21.6 -8.55 L-21.4 -8.6 M-19.8 -9.1 Q-19.45 -8.8 -19.2 -8.45 -18.95 -8.1 -18.95 -7.9 L-19.0 -7.6 -19.1 -7.55 Q-19.15 -7.5 -19.4 -7.5 -19.6 -7.5 -19.65 -7.8 L-19.65 -8.45 Q-19.65 -8.65 -19.75 -8.8 L-19.95 -9.05 -19.8 -9.1 M-16.45 -5.4 Q-16.25 -5.25 -16.2 -5.1 -16.15 -4.95 -16.15 -4.7 L-16.25 -4.6 Q-16.35 -4.55 -16.45 -4.55 L-16.65 -4.6 Q-16.75 -4.7 -16.75 -4.95 -16.75 -5.15 -16.65 -5.3 -16.6 -5.35 -16.45 -5.4 M-5.7 2.15 L-5.6 2.3 -5.6 2.4 -5.55 2.45 Q-5.5 2.45 -5.75 2.45 L-6.4 2.35 Q-6.75 2.25 -6.95 2.2 -6.75 2.0 -6.65 2.0 L-5.75 2.0 -5.7 2.15 M-13.3 0.75 L-13.1 0.85 -12.25 1.15 Q-12.8 0.8 -13.3 0.75" fill="#59a5ff" fill-opacity="0.5019608" fill-rule="evenodd" stroke="none"/>
    <path d="M22.8 -17.3 Q22.75 -17.2 22.75 -17.1 L22.5 -17.1 22.4 -17.3 Q22.45 -17.4 22.75 -17.4 L22.8 -17.3 M23.1 -12.6 Q23.2 -12.5 23.2 -12.35 L23.2 -12.15 23.15 -12.05 23.0 -12.0 22.8 -11.85 Q22.55 -11.95 22.45 -12.15 L22.45 -12.45 22.65 -12.5 Q22.8 -12.6 22.8 -12.85 L23.1 -12.6 M22.3 -3.85 L22.35 -3.75 Q22.4 -3.65 22.4 -3.45 22.4 -3.15 22.2 -3.0 22.05 -2.95 21.6 -2.85 20.45 -2.6 19.85 -2.0 19.55 -1.7 18.5 -1.15 17.7 -0.7 16.95 -0.4 17.2 -0.75 17.8 -1.2 L19.2 -2.25 Q19.4 -2.45 19.55 -2.75 19.75 -3.1 20.05 -3.45 20.3 -3.65 20.9 -3.75 L22.3 -3.85 M25.7 -21.65 L25.75 -21.85 Q25.9 -21.75 26.5 -21.1 27.0 -20.55 27.35 -20.45 L27.95 -19.35 Q28.2 -18.85 28.55 -18.3 L28.55 -17.15 28.5 -17.05 Q28.45 -17.0 28.2 -17.0 27.6 -17.0 27.5 -17.85 L27.4 -18.6 Q27.4 -18.95 27.35 -19.1 27.3 -19.25 26.45 -20.15 25.7 -21.05 25.7 -21.3 25.7 -21.5 25.7 -21.65 M28.15 -16.8 L28.4 -16.75 28.45 -16.55 28.25 -16.4 Q28.1 -16.3 27.95 -16.3 L27.9 -16.35 Q27.85 -16.35 27.85 -16.55 27.85 -16.8 27.9 -16.8 L28.15 -16.8 M27.05 -14.7 Q27.25 -14.9 27.45 -15.05 27.7 -15.25 27.85 -15.15 L27.9 -15.65 Q27.9 -16.05 28.25 -16.1 L28.35 -15.9 Q28.25 -15.7 28.1 -14.95 L28.2 -14.65 28.25 -13.9 28.3 -13.2 Q28.3 -12.9 28.1 -12.1 L27.95 -12.0 27.65 -12.25 Q27.6 -12.35 27.6 -12.45 27.6 -12.65 27.35 -13.25 27.25 -13.4 27.15 -13.6 L27.1 -13.75 Q26.85 -14.25 26.85 -14.35 26.85 -14.45 27.05 -14.7 M25.7 -8.25 Q25.7 -8.9 26.4 -9.9 26.7 -10.35 27.55 -11.35 27.35 -10.5 27.35 -10.1 27.35 -9.9 27.05 -9.25 26.75 -8.6 26.75 -8.3 26.75 -7.95 26.65 -7.8 26.45 -7.55 25.8 -7.35 25.8 -7.5 25.75 -7.75 25.7 -8.1 25.7 -8.25 M24.75 -5.35 Q24.1 -4.4 23.3 -4.2 23.8 -4.8 24.5 -5.9 25.1 -6.65 25.55 -6.85 25.2 -5.95 24.75 -5.35 M14.75 1.25 L14.45 1.25 14.25 1.15 Q14.3 1.1 15.15 0.65 16.1 0.15 16.4 0.25 L16.5 0.25 Q16.6 0.25 16.6 0.3 16.55 0.45 15.7 0.85 14.9 1.25 14.75 1.25 M12.0 1.85 L11.0 2.0 10.55 2.4 Q10.15 2.7 9.95 2.75 L9.3 2.55 9.25 2.4 Q9.3 1.9 10.3 1.85 L11.3 1.85 12.4 1.75 12.0 1.85 M8.2 2.65 Q9.0 2.35 9.1 2.35 9.0 2.5 7.9 2.9 6.5 3.45 5.4 3.45 L3.7 3.4 3.5 3.2 Q3.3 3.1 3.3 3.05 3.5 3.0 4.85 3.0 6.4 3.0 7.0 2.95 7.3 2.95 8.2 2.65 M1.5 3.55 L-0.35 3.5 1.75 3.35 Q1.7 3.45 1.5 3.55 M-25.65 -21.95 Q-26.15 -21.25 -26.15 -21.1 -26.15 -20.95 -26.0 -20.8 -25.8 -20.6 -25.8 -20.45 -25.8 -20.2 -26.15 -19.65 -26.5 -19.05 -26.75 -18.9 -27.4 -18.5 -27.25 -18.15 -27.0 -17.75 -27.0 -17.5 -27.0 -17.1 -27.25 -16.25 -27.5 -15.4 -27.5 -14.95 -27.25 -13.55 -27.25 -13.2 L-27.05 -11.65 Q-26.8 -10.2 -26.8 -9.65 -26.8 -9.45 -25.75 -8.2 -24.4 -6.55 -24.15 -6.15 -23.7 -5.55 -23.1 -5.05 L-22.1 -4.4 Q-21.55 -4.05 -21.35 -3.8 -21.05 -3.4 -21.05 -2.85 -21.05 -2.65 -21.1 -2.7 L-21.2 -2.75 Q-24.0 -4.65 -26.8 -7.85 -27.3 -8.45 -27.7 -10.4 -28.05 -12.1 -28.05 -13.3 -28.05 -13.65 -27.85 -15.2 -27.6 -16.7 -27.6 -17.6 L-27.5 -18.45 Q-27.4 -19.2 -27.4 -19.45 -27.4 -19.8 -26.7 -21.05 -25.8 -22.55 -25.05 -22.75 L-25.65 -21.95 M-21.85 -14.6 Q-21.75 -14.45 -21.75 -14.2 -21.75 -14.0 -21.8 -13.95 L-21.85 -13.9 -22.0 -13.8 -22.2 -13.9 Q-22.35 -13.95 -22.35 -14.15 -22.35 -14.55 -22.25 -14.85 L-22.05 -14.85 -21.85 -14.6 M-20.5 -9.85 Q-20.6 -9.7 -20.85 -9.7 -21.1 -9.7 -21.35 -10.3 -21.35 -10.75 -21.0 -10.8 -20.6 -10.8 -20.4 -10.05 -20.45 -9.9 -20.5 -9.85 M-19.1 -1.65 L-19.7 -1.7 Q-20.05 -1.8 -20.25 -2.25 -19.9 -2.35 -19.55 -2.15 -19.2 -2.0 -19.1 -1.75 L-19.1 -1.65 M-15.75 -0.05 Q-15.3 0.35 -14.85 0.6 L-14.95 0.75 Q-15.05 0.85 -15.25 0.85 -17.95 -0.1 -18.5 -1.35 -17.4 -1.35 -16.5 -0.65 L-15.75 -0.05 M-2.05 3.1 L-1.75 3.35 -1.55 3.45 -2.1 3.4 Q-2.25 3.4 -2.7 3.55 -3.15 3.75 -3.3 3.75 -4.05 3.75 -5.8 2.65 L-7.1 2.7 -7.8 2.75 Q-7.95 2.75 -8.25 2.5 L-8.45 2.35 -8.45 2.5 Q-8.45 2.55 -8.65 2.55 -8.95 2.55 -9.3 2.2 L-9.85 1.6 Q-9.55 1.6 -9.1 1.8 -8.75 1.95 -8.6 2.15 L-8.6 2.1 -8.55 2.05 -8.35 2.05 -7.7 2.15 -7.1 2.3 Q-6.2 2.3 -5.2 2.75 -4.4 3.25 -4.3 3.25 -4.1 3.25 -3.55 3.1 -3.0 2.95 -2.8 2.95 -2.25 2.95 -2.05 3.1 M-10.55 1.6 Q-10.75 1.65 -11.05 1.8 -11.3 1.95 -11.5 1.95 -12.7 1.95 -12.95 1.75 -13.5 1.35 -14.2 1.15 -14.1 0.75 -13.5 0.6 -13.1 0.5 -12.75 0.5 -12.2 0.5 -11.5 1.0 L-10.55 1.6" fill="#8cc1ff" fill-opacity="0.7529412" fill-rule="evenodd" stroke="none"/>
    <path d="M19.2 -1.7 L19.15 -1.65 Q19.1 -1.65 19.1 -1.85 19.1 -2.15 20.05 -2.65 L21.1 -3.2 Q21.9 -3.7 22.05 -3.75 22.5 -3.85 22.5 -3.3 22.5 -3.1 22.1 -3.05 L21.25 -3.05 Q19.9 -2.9 19.5 -1.7 L19.2 -1.7 M28.2 -14.25 L28.3 -13.45 28.25 -13.1 28.2 -12.95 Q28.05 -13.1 27.85 -13.55 27.55 -14.1 27.55 -14.4 27.55 -14.75 27.6 -14.9 27.7 -15.2 28.1 -15.2 28.1 -14.9 28.2 -14.25 M28.2 -17.6 Q27.75 -18.0 27.6 -18.65 27.55 -19.0 27.4 -19.9 28.0 -20.1 28.2 -19.3 28.35 -18.3 28.5 -18.0 28.45 -17.7 28.2 -17.6 M27.1 -9.95 L27.3 -9.85 Q27.35 -9.8 27.35 -9.6 27.35 -9.35 27.0 -8.7 26.65 -8.05 26.5 -7.95 L26.3 -8.05 Q26.25 -8.1 26.25 -8.35 26.25 -8.5 26.45 -9.1 26.75 -9.8 27.1 -9.95 M25.15 -5.4 Q25.0 -5.15 24.7 -5.0 L24.5 -5.0 Q24.45 -5.0 24.45 -5.25 24.45 -5.5 24.7 -5.7 24.95 -5.85 25.3 -5.8 25.25 -5.75 25.15 -5.4 M16.0 1.05 Q15.9 1.25 15.6 1.25 L15.3 1.2 15.3 1.15 15.25 1.2 Q15.2 1.2 15.2 1.0 15.2 0.85 15.6 0.65 15.95 0.5 16.25 0.55 16.1 0.95 16.0 1.05 M10.9 2.6 Q10.8 2.8 10.55 2.8 10.2 2.8 10.05 2.5 L9.95 2.3 Q9.95 1.8 10.4 1.9 10.8 2.0 11.0 2.4 L10.9 2.6 M6.4 3.55 L5.5 3.8 Q5.15 3.45 5.15 3.4 5.15 3.1 5.7 3.1 6.2 3.1 6.85 3.35 6.7 3.5 6.4 3.55 M-26.5 -20.9 L-26.45 -20.7 Q-26.5 -20.0 -26.55 -19.8 -26.75 -19.2 -27.3 -19.2 L-27.35 -19.6 Q-27.3 -19.8 -27.15 -20.35 -27.0 -20.85 -26.8 -20.95 L-26.5 -20.9 M-26.9 -11.4 L-27.0 -10.3 Q-27.1 -9.3 -27.0 -8.8 L-27.15 -8.75 -27.55 -9.7 Q-27.8 -10.3 -27.85 -10.75 L-27.95 -12.6 Q-27.95 -13.5 -27.8 -13.8 L-27.05 -12.45 Q-26.9 -12.15 -26.9 -11.4 M-26.45 -8.0 Q-26.05 -7.8 -26.0 -7.7 L-26.0 -7.5 -26.05 -7.45 -26.35 -7.4 Q-26.75 -7.4 -26.9 -7.75 -27.0 -8.0 -27.0 -8.2 L-26.9 -8.25 Q-26.7 -8.15 -26.45 -8.0 M-24.05 -4.85 L-24.0 -4.85 -23.75 -4.9 Q-23.0 -4.9 -22.5 -4.15 -22.05 -3.25 -21.8 -3.05 L-21.8 -2.95 Q-22.4 -3.25 -23.05 -3.65 -23.9 -4.2 -24.1 -4.5 L-24.05 -4.85 M-22.15 -14.65 Q-22.05 -14.45 -22.05 -14.3 L-22.2 -14.05 -22.6 -14.4 Q-22.65 -14.5 -22.65 -14.6 -22.65 -14.85 -22.6 -14.9 L-22.4 -15.0 Q-22.25 -14.85 -22.15 -14.65 M-21.1 -10.75 Q-20.9 -10.65 -20.8 -10.35 L-20.9 -10.15 Q-20.95 -10.05 -21.2 -10.05 L-21.45 -10.05 -21.55 -10.15 Q-21.6 -10.15 -21.6 -10.35 -21.6 -10.5 -21.5 -10.65 -21.35 -10.8 -21.1 -10.75 M-16.6 -0.45 Q-16.4 -0.3 -15.8 0.15 L-15.95 0.3 Q-16.1 0.35 -16.3 0.35 -16.8 0.35 -17.1 0.0 -17.2 -0.1 -17.35 -0.45 L-17.35 -0.7 Q-17.0 -0.65 -16.6 -0.45 M-2.95 3.6 Q-3.3 3.75 -3.55 3.75 -4.0 3.75 -4.45 3.55 L-4.45 3.6 Q-4.5 3.65 -4.5 3.4 -4.5 3.0 -3.55 3.1 -2.75 3.25 -2.5 3.45 L-2.95 3.6 M-7.6 2.65 L-7.9 2.7 -8.4 2.5 -8.45 2.2 Q-8.25 2.2 -8.05 2.3 -7.7 2.45 -7.3 2.55 L-7.6 2.65 M-12.2 1.9 Q-12.45 1.9 -12.8 1.7 -13.1 1.45 -13.15 1.35 -12.85 0.95 -12.3 1.1 -11.85 1.2 -11.4 1.6 -11.6 1.75 -11.75 1.8 L-12.2 1.9" fill="#bfdcff" fill-opacity="0.7529412" fill-rule="evenodd" stroke="none"/>
    <path d="M19.05 -1.7 Q19.05 -1.95 19.45 -2.15 19.85 -2.3 20.05 -2.3 L19.15 -1.5 19.1 -1.45 Q19.05 -1.45 19.05 -1.7 M22.15 -3.5 Q22.45 -3.7 22.4 -3.65 L22.65 -3.45 22.75 -3.25 Q22.6 -3.05 22.1 -2.95 22.05 -2.9 22.0 -2.9 21.85 -2.9 21.85 -3.15 21.85 -3.25 22.15 -3.5 M28.8 -18.6 L28.8 -18.0 28.85 -17.95 Q28.85 -17.9 28.6 -17.9 28.25 -17.9 28.2 -18.2 L28.2 -18.55 Q28.2 -18.85 28.3 -19.1 28.4 -19.4 28.55 -19.5 L28.75 -19.05 Q28.8 -18.85 28.8 -18.6 M28.0 -13.55 Q28.0 -13.75 28.0 -13.8 28.1 -14.05 28.3 -14.2 L28.4 -13.9 28.45 -13.55 Q28.45 -13.3 28.35 -13.15 L28.3 -12.9 28.15 -12.85 28.05 -13.15 Q28.0 -13.35 28.0 -13.55 M27.35 -9.4 Q27.35 -9.35 27.35 -9.15 27.35 -9.05 27.15 -8.55 26.9 -8.05 26.85 -8.05 L26.75 -8.05 27.0 -8.8 Q27.15 -9.35 27.25 -9.45 27.3 -9.35 27.35 -9.4 M24.95 -5.0 L24.8 -5.0 24.8 -5.25 Q24.8 -5.6 24.8 -5.45 L24.95 -5.45 25.2 -5.4 Q25.05 -5.05 24.95 -5.0 M16.0 1.1 L15.75 1.35 Q15.1 1.35 15.05 1.25 15.35 1.0 15.75 0.95 L16.2 0.95 16.0 1.1 M10.35 2.55 Q10.3 2.45 10.3 2.3 L10.6 2.25 11.1 2.2 Q11.05 2.45 11.0 2.5 10.9 2.55 10.5 2.7 10.35 2.65 10.35 2.55 M6.25 3.35 Q6.05 3.6 5.75 3.8 L5.65 3.7 Q5.75 3.55 5.95 3.45 6.15 3.35 6.25 3.35 M-26.85 -20.15 Q-26.8 -20.15 -26.8 -19.95 -26.8 -19.7 -26.8 -19.75 L-26.85 -19.8 -26.9 -19.75 Q-26.95 -19.7 -27.0 -19.7 L-27.05 -19.75 -27.1 -19.9 -27.05 -20.1 -26.85 -20.1 -26.85 -20.15 M-27.9 -12.9 Q-27.9 -13.15 -27.85 -13.05 L-27.8 -13.0 Q-27.65 -12.85 -27.4 -11.8 -27.2 -10.8 -27.2 -10.6 L-27.2 -10.2 Q-27.25 -10.05 -27.35 -9.9 L-27.55 -9.9 Q-27.55 -10.45 -27.7 -11.65 L-27.9 -12.9 M-23.7 -3.95 L-23.7 -4.05 Q-23.5 -4.1 -23.1 -3.9 -22.7 -3.65 -22.6 -3.45 L-22.6 -3.3 -22.65 -3.25 Q-22.7 -3.2 -22.95 -3.2 -23.15 -3.2 -23.45 -3.55 -23.7 -3.85 -23.7 -3.95 M-16.9 -0.25 L-16.6 -0.2 Q-16.4 -0.05 -16.4 0.05 L-16.5 0.1 -17.0 0.15 Q-17.05 0.05 -17.05 -0.25 L-16.9 -0.25 M-3.05 3.7 L-3.15 3.8 -3.5 3.8 Q-3.75 3.8 -3.85 3.7 -3.95 3.55 -3.95 3.4 -3.75 3.35 -3.05 3.65 L-3.05 3.7 M-7.5 2.4 Q-7.6 2.6 -7.7 2.7 L-8.05 2.7 -8.1 2.75 Q-8.15 2.75 -8.15 2.55 -8.15 2.3 -8.05 2.25 L-7.95 2.2 Q-7.6 2.25 -7.5 2.4 M-12.35 1.4 Q-12.05 1.5 -11.85 1.65 L-11.85 1.8 Q-11.85 1.85 -12.05 1.85 -12.55 1.85 -12.8 1.7 L-13.15 1.35 -12.35 1.4" fill="#ffffff" fill-rule="evenodd" stroke="none"/>
  </g>
</svg>
