<?xml version="1.0" encoding="UTF-8" standalone="no"?>
<svg xmlns:ffdec="https://www.free-decompiler.com/flash" xmlns:xlink="http://www.w3.org/1999/xlink" ffdec:objectType="shape" height="18.2px" width="13.25px" xmlns="http://www.w3.org/2000/svg">
  <g transform="matrix(1.0, 0.0, 0.0, 1.0, 0.35, 11.85)">
    <path d="M10.55 -11.55 L11.85 -11.85 Q12.4 -11.9 12.65 -11.55 12.9 -11.1 12.9 -10.0 12.9 -8.45 11.65 -7.6 L10.55 -6.9 Q9.85 -6.45 9.45 -5.95 L9.45 -5.25 9.55 -5.25 Q9.6 -5.25 9.85 -5.35 11.6 -6.4 12.35 -4.8 12.75 -3.9 12.75 -2.25 12.75 -1.75 12.3 -0.85 11.75 0.4 10.95 0.4 10.65 0.4 9.75 -0.4 L9.35 -0.75 Q9.25 -0.75 9.2 -0.7 9.15 -0.25 9.65 0.15 10.15 0.6 11.1 0.9 12.3 1.25 12.6 1.7 12.75 1.95 12.75 2.6 12.75 3.2 12.5 3.6 12.1 4.25 11.1 4.55 10.8 4.65 10.55 5.0 L10.25 5.6 Q9.8 6.35 8.8 6.35 8.4 6.35 7.0 5.6 L5.05 4.55 Q4.45 4.2 4.35 3.65 4.25 3.5 4.2 3.3 L4.1 2.25 Q4.05 2.0 3.65 1.65 1.85 1.3 0.7 -0.2 0.2 -0.8 -0.1 -1.55 -0.35 -2.05 -0.35 -2.2 -0.35 -2.9 -0.25 -3.45 -0.1 -4.05 0.15 -4.65 0.65 -5.7 2.15 -6.2 L3.25 -6.45 Q3.85 -6.6 3.95 -6.65 4.65 -7.05 4.95 -7.8 L5.4 -9.0 Q5.6 -9.35 6.25 -9.95 6.25 -11.35 8.7 -11.35 9.55 -11.35 10.55 -11.55 M6.5 -8.35 Q6.05 -8.35 5.75 -8.1 5.45 -7.8 5.45 -7.3 5.45 -7.05 5.75 -6.7 6.15 -6.3 6.55 -6.3 7.1 -6.3 7.35 -6.95 7.5 -7.3 7.55 -7.65 7.55 -8.0 7.2 -8.2 6.9 -8.4 6.5 -8.35 M6.2 1.25 Q6.15 1.25 5.7 1.5 5.25 1.75 4.7 1.75 L4.55 1.95 Q4.55 2.35 4.65 2.65 L4.85 2.85 Q5.2 3.2 5.4 3.2 6.3 3.2 6.75 2.55 7.05 2.1 7.05 1.8 7.05 1.65 6.85 1.5 6.55 1.25 6.2 1.25" fill="#d982ca" fill-opacity="0.5019608" fill-rule="evenodd" stroke="none"/>
    <path d="M10.8 -10.85 Q11.15 -10.85 11.35 -10.65 11.45 -10.5 11.5 -10.25 11.6 -10.0 11.6 -9.6 L11.6 -9.35 Q11.55 -8.7 11.15 -8.15 10.85 -7.75 10.15 -7.25 9.4 -6.65 9.2 -6.4 8.75 -5.9 8.75 -5.3 8.75 -5.15 8.85 -4.9 8.95 -4.75 9.15 -4.55 L9.65 -4.75 9.9 -4.95 Q10.35 -5.0 10.55 -4.8 10.7 -4.7 10.8 -4.4 10.9 -3.9 11.0 -3.55 11.1 -3.3 11.1 -2.85 11.1 -2.2 11.0 -1.8 10.8 -0.85 10.2 -0.85 10.05 -0.85 9.9 -0.95 L9.7 -0.95 Q9.3 -1.0 9.15 -1.25 L9.1 -1.3 8.95 -1.05 Q8.8 -0.65 8.8 -0.6 8.8 -0.1 9.2 0.35 9.45 0.6 10.15 1.05 10.8 1.5 11.05 1.75 11.45 2.2 11.45 2.7 11.45 3.15 11.2 3.4 L11.1 3.55 Q10.95 3.75 10.55 3.95 10.2 4.05 9.9 4.25 9.35 4.7 9.15 5.3 L9.0 5.4 8.85 5.25 Q8.75 5.3 8.55 5.3 L8.5 5.3 Q7.55 5.3 6.45 4.65 5.65 4.15 5.3 3.75 L5.3 3.65 5.15 3.6 5.15 3.5 5.3 3.6 5.3 3.55 5.35 3.55 5.5 3.6 6.0 3.55 6.45 3.2 Q6.4 3.2 6.4 3.1 L6.85 2.8 7.05 2.7 7.1 2.7 Q7.25 2.5 7.35 2.25 7.35 1.85 7.25 1.55 7.05 0.95 6.65 0.85 6.4 0.85 5.95 1.05 5.4 1.25 5.15 1.25 L5.0 1.25 4.85 1.3 Q4.6 1.3 3.85 0.9 3.0 0.45 2.6 0.3 2.2 0.2 1.8 -0.05 1.4 -0.35 1.2 -0.6 0.8 -1.2 0.65 -1.8 0.5 -2.25 0.5 -2.85 0.5 -3.85 1.15 -4.75 1.9 -5.85 3.15 -5.8 3.45 -6.0 3.9 -6.1 L4.3 -6.2 4.5 -6.5 4.7 -6.7 Q4.7 -6.9 4.8 -6.9 4.95 -6.95 5.25 -6.7 L5.35 -6.6 5.4 -6.6 Q5.55 -6.6 5.8 -6.3 L6.25 -6.05 6.65 -5.9 6.8 -5.85 Q7.0 -5.95 7.2 -6.1 L7.25 -6.2 Q7.4 -6.35 7.55 -6.45 L7.8 -6.8 Q8.1 -7.45 8.15 -7.9 8.1 -8.15 7.95 -8.4 7.6 -8.95 6.8 -8.95 L6.35 -8.9 6.1 -8.8 6.05 -8.8 Q5.7 -8.5 5.6 -8.45 5.85 -8.65 6.05 -8.8 L5.9 -8.75 5.8 -8.8 5.65 -8.7 5.6 -8.7 Q5.55 -8.65 5.55 -8.8 L6.25 -9.55 Q7.0 -10.3 7.35 -10.55 L7.5 -10.5 Q7.6 -10.6 7.8 -10.6 L7.8 -10.65 8.75 -10.65 10.65 -10.85 10.8 -10.85 M8.1 -7.05 L7.95 -6.7 7.85 -6.55 7.95 -6.55 8.0 -6.7 8.1 -7.05 M8.25 -2.05 L8.35 -2.0 Q8.65 -2.0 8.7 -2.25 L8.7 -3.05 Q8.6 -3.45 8.5 -3.6 8.4 -3.5 8.25 -3.05 8.15 -2.65 8.15 -2.5 8.15 -2.4 8.2 -2.25 L8.25 -2.05 M10.45 3.95 L10.75 3.75 10.5 3.85 10.25 4.0 10.45 3.95" fill="#ffffff" fill-opacity="0.7529412" fill-rule="evenodd" stroke="none"/>
  </g>
</svg>
