<?xml version="1.0" encoding="UTF-8" standalone="no"?>
<svg xmlns:ffdec="https://www.free-decompiler.com/flash" xmlns:xlink="http://www.w3.org/1999/xlink" ffdec:objectType="shape" height="24.2px" width="33.7px" xmlns="http://www.w3.org/2000/svg">
  <g transform="matrix(1.0, 0.0, 0.0, 1.0, 13.35, 16.6)">
    <path d="M5.7 -5.5 Q5.9 -5.95 6.2 -6.05 6.5 -6.2 6.75 -5.95 6.95 -5.7 6.95 -5.1 6.95 -4.6 6.8 -4.25 6.55 -3.65 6.0 -3.65 5.6 -3.65 5.45 -4.0 5.4 -4.15 5.45 -4.35 5.45 -5.0 5.7 -5.5 M1.0 -5.8 L1.15 -5.5 Q1.5 -4.9 1.5 -4.1 1.5 -3.65 1.35 -3.35 1.15 -2.75 0.65 -2.75 -0.15 -2.75 -0.4 -4.0 -0.55 -4.65 -0.5 -5.25 L-0.5 -5.6 -0.55 -5.5 Q-0.95 -4.9 -1.65 -4.9 -2.1 -4.9 -2.35 -5.05 L-2.3 -4.95 Q-2.15 -4.4 -2.15 -4.0 -2.15 -3.5 -2.2 -3.35 -2.3 -3.05 -2.55 -2.95 L-2.35 -2.85 Q-2.2 -3.3 -1.6 -3.55 L-1.05 -3.55 Q-0.8 -3.45 -0.8 -3.1 -0.8 -2.8 -1.05 -2.45 -1.35 -2.0 -1.75 -1.95 -1.7 -1.8 -1.7 -1.65 -1.7 -1.0 -2.1 -0.2 L-2.45 0.65 Q-2.45 0.75 -1.45 1.15 -0.45 1.6 -0.45 2.0 -0.45 3.15 -2.3 3.15 -3.95 3.15 -4.6 2.1 -5.0 1.55 -5.0 0.8 -5.0 -0.1 -4.8 -0.55 -4.75 -0.65 -4.1 -1.1 -3.5 -1.55 -3.45 -1.8 -3.25 -2.55 -3.0 -2.8 L-3.35 -2.75 Q-3.8 -2.75 -4.15 -2.95 -4.1 -2.75 -4.1 -2.6 -4.1 -2.1 -4.3 -1.65 -4.65 -0.95 -5.35 -0.95 -5.7 -0.95 -6.15 -1.4 -6.55 -1.8 -7.1 -1.7 -7.1 -1.05 -7.2 -0.8 L-7.15 -0.8 Q-6.8 -0.85 -6.55 -0.5 -6.3 -0.1 -6.3 0.5 -6.3 1.0 -6.4 1.45 -6.65 2.25 -7.2 2.25 -7.55 2.25 -7.8 2.1 -7.3 2.5 -7.1 3.3 -7.0 3.65 -6.6 3.85 L-5.8 4.1 Q-5.25 4.25 -5.05 4.4 -4.7 4.6 -4.7 5.05 -4.7 5.9 -5.35 6.55 -6.4 7.6 -8.95 7.6 -10.75 7.6 -11.75 6.35 -12.05 5.95 -12.25 5.5 -12.35 5.15 -12.35 5.05 -12.35 3.95 -11.4 3.4 L-10.75 2.95 Q-10.5 2.7 -10.5 2.25 -10.5 1.9 -10.75 1.6 -11.0 1.3 -11.0 0.95 -11.0 0.3 -10.6 0.05 -10.4 -0.05 -9.75 -0.1 -9.25 -0.15 -9.05 -0.3 -9.4 -0.55 -9.9 -1.0 -11.0 -1.95 -11.5 -2.1 -12.4 -2.4 -12.9 -3.05 -13.35 -3.65 -13.35 -4.15 -13.25 -5.7 -12.9 -7.1 -12.3 -9.9 -11.15 -9.9 -10.9 -9.9 -10.65 -9.75 -10.4 -9.65 -10.35 -9.65 -9.9 -9.65 -9.85 -9.85 -10.1 -10.05 -10.25 -10.4 -10.45 -10.85 -10.6 -11.35 -11.1 -11.95 -11.85 -12.3 -12.1 -12.4 -12.15 -12.5 -12.3 -12.65 -12.3 -13.0 -12.3 -13.4 -11.85 -13.65 -11.15 -14.05 -10.65 -14.7 -10.55 -14.85 -10.55 -15.55 -10.35 -16.2 -9.3 -16.2 L-8.7 -16.05 -8.15 -15.95 Q-7.8 -15.95 -7.35 -16.3 -6.85 -16.65 -6.45 -16.6 -6.05 -16.5 -5.8 -16.2 -5.6 -15.9 -5.6 -15.55 -5.6 -15.4 -5.7 -15.35 -5.85 -15.3 -6.5 -15.15 -6.5 -13.65 -7.4 -13.25 L-8.05 -13.0 Q-8.35 -12.9 -8.35 -12.65 -8.35 -12.3 -8.1 -11.75 -7.9 -12.2 -7.5 -12.1 -7.2 -12.0 -7.0 -11.7 -6.75 -11.35 -6.75 -10.95 -6.75 -10.7 -6.8 -10.45 -6.0 -10.35 -5.55 -9.75 -5.25 -9.3 -5.25 -8.95 -5.25 -8.8 -5.4 -8.35 -5.6 -7.85 -5.6 -7.75 L-5.4 -7.45 -5.2 -7.95 Q-4.45 -9.25 -3.05 -8.65 -2.15 -8.0 -2.25 -7.25 L-2.35 -6.8 Q-2.0 -7.2 -1.5 -7.35 -1.0 -7.5 -0.65 -7.25 -0.3 -7.0 -0.3 -6.35 L-0.3 -6.2 -0.2 -6.3 Q0.1 -6.55 0.45 -6.35 L0.45 -6.4 Q0.45 -7.3 0.95 -7.3 1.4 -7.3 1.4 -6.4 1.4 -6.2 1.25 -6.0 1.15 -5.85 1.0 -5.8 M2.6 -1.7 Q2.6 -2.75 3.2 -2.95 3.4 -3.05 3.6 -2.85 3.8 -2.65 3.8 -2.2 3.8 -1.9 3.65 -1.6 3.45 -1.2 3.05 -1.2 2.65 -1.2 2.6 -1.45 2.55 -1.55 2.6 -1.7 M5.5 -2.9 Q5.7 -2.95 5.9 -2.7 6.05 -2.4 6.05 -1.8 6.05 -1.4 6.0 -1.2 5.8 -0.8 5.35 -0.8 4.95 -0.8 4.9 -1.25 4.85 -1.45 4.9 -1.7 4.9 -2.2 5.05 -2.55 5.25 -2.85 5.5 -2.9 M3.0 -0.15 Q3.15 0.1 3.15 0.45 L3.1 0.8 Q3.05 1.1 2.75 1.1 2.4 1.1 2.3 0.85 2.2 0.7 2.2 0.55 2.2 -0.4 2.7 -0.35 2.85 -0.35 3.0 -0.15 M8.35 -1.85 Q8.4 -1.85 8.4 -1.7 8.4 -1.6 8.45 -1.5 8.55 -1.45 8.55 -1.35 8.55 -1.2 8.5 -1.1 8.4 -0.95 8.25 -0.95 7.95 -0.95 7.9 -1.1 7.85 -1.15 7.85 -1.3 7.85 -1.65 8.25 -1.9 L8.35 -1.85 M6.55 -0.65 Q6.85 -0.5 7.1 -0.15 7.35 0.2 7.35 0.6 7.35 0.9 7.2 1.15 7.0 1.5 6.65 1.5 6.1 1.5 5.9 0.85 5.8 0.5 5.75 0.2 5.75 -0.35 6.0 -0.55 6.25 -0.75 6.55 -0.65 M10.4 -2.3 Q10.3 -1.8 10.1 -1.8 9.9 -1.8 9.8 -1.9 9.75 -2.0 9.75 -2.05 9.75 -2.3 10.1 -3.05 10.5 -3.75 10.5 -2.9 10.5 -2.65 10.4 -2.3 M9.85 -1.0 Q9.85 -1.4 10.25 -1.25 10.7 -1.1 10.7 -0.75 L10.65 -0.25 Q10.6 0.05 10.3 0.05 10.0 0.05 9.9 -0.45 9.85 -0.7 9.85 -1.0 M20.35 -9.45 Q20.3 -9.3 20.2 -9.25 L20.1 -9.25 20.1 -9.55 20.3 -9.55 20.35 -9.45 M14.4 -8.25 L14.35 -8.1 14.25 -8.1 Q14.05 -8.1 14.0 -8.25 13.95 -8.35 13.95 -8.4 13.95 -8.55 14.05 -8.6 L14.15 -8.7 Q14.35 -8.45 14.4 -8.25 M16.3 -6.55 Q16.05 -6.55 15.95 -6.8 L15.95 -6.95 Q15.95 -7.4 16.25 -7.3 16.55 -7.2 16.55 -6.8 L16.5 -6.6 16.45 -6.6 16.3 -6.55 M14.4 -7.05 Q14.75 -7.0 14.75 -6.6 14.75 -6.1 14.45 -6.1 14.25 -6.1 14.1 -6.4 14.05 -6.55 14.05 -6.7 14.05 -7.05 14.4 -7.05 M18.95 -5.65 Q18.85 -5.5 18.65 -5.5 18.25 -5.5 18.15 -5.8 18.1 -5.9 18.1 -6.15 18.1 -6.7 18.55 -6.6 19.0 -6.5 19.0 -6.0 19.0 -5.75 18.95 -5.65 M19.15 -4.05 L19.3 -4.05 19.5 -3.75 Q19.55 -3.6 19.55 -3.5 L19.55 -3.3 19.4 -3.3 Q19.25 -3.3 19.2 -3.5 19.15 -3.65 19.15 -3.75 19.15 -3.9 19.15 -4.05 M20.1 -0.6 Q20.0 -0.35 19.75 -0.35 19.45 -0.35 19.35 -0.7 19.3 -0.9 19.35 -1.1 19.35 -1.8 19.75 -1.75 20.15 -1.65 20.15 -1.1 20.15 -0.75 20.1 -0.6 M18.25 0.75 L18.4 0.9 18.15 1.15 Q17.95 0.9 17.95 0.85 17.95 0.7 18.0 0.65 L18.15 0.6 18.25 0.75 M-0.8 -10.9 Q-0.8 -10.4 -1.25 -9.75 -1.7 -9.1 -1.7 -8.95 -1.7 -8.85 -1.65 -8.85 L-1.55 -8.85 -1.65 -8.75 Q-1.8 -8.7 -1.95 -8.7 -2.65 -8.7 -2.85 -9.25 -3.0 -9.5 -3.0 -10.05 -3.0 -10.5 -2.65 -11.1 -2.3 -11.65 -1.9 -11.95 -1.45 -12.3 -1.15 -12.05 -0.8 -11.85 -0.8 -10.9 M-6.75 -5.85 Q-6.75 -5.2 -6.35 -5.0 -5.85 -4.9 -5.6 -4.8 -5.55 -4.8 -5.45 -5.15 -5.6 -5.75 -5.65 -6.35 L-5.65 -6.4 Q-5.8 -6.65 -6.05 -6.75 -6.35 -6.85 -6.55 -6.65 -6.75 -6.45 -6.75 -5.85 M-5.0 2.85 Q-4.8 3.1 -4.8 3.2 -4.8 3.5 -4.95 3.75 -5.15 4.05 -5.45 4.05 -5.8 4.05 -6.0 3.4 L-6.1 2.85 Q-6.1 2.05 -5.45 2.45 -5.2 2.6 -5.0 2.85" fill="#d982ca" fill-opacity="0.5019608" fill-rule="evenodd" stroke="none"/>
    <path d="M1.2 -6.35 Q1.1 -6.15 0.9 -6.05 0.75 -6.1 0.7 -6.15 0.65 -6.2 0.65 -6.35 0.65 -6.9 1.2 -6.7 1.25 -6.8 1.25 -6.55 1.25 -6.45 1.2 -6.35 M0.6 -5.8 Q1.1 -5.25 1.1 -4.3 L1.1 -3.85 Q1.05 -3.4 0.8 -3.4 0.25 -3.4 0.1 -4.5 0.0 -5.05 0.05 -5.55 0.05 -5.9 0.2 -5.95 0.35 -6.0 0.6 -5.8 M5.4 -2.15 L5.55 -2.35 Q5.85 -2.7 5.85 -1.65 L5.85 -1.3 Q5.8 -1.1 5.65 -1.1 5.35 -1.1 5.2 -1.2 5.2 -1.55 5.25 -1.8 5.3 -2.1 5.4 -2.15 M3.5 -1.85 L3.45 -1.75 Q3.4 -1.65 3.25 -1.65 3.1 -1.65 3.0 -1.8 2.95 -1.85 2.95 -1.95 L2.95 -2.1 3.0 -2.2 Q3.1 -2.2 3.25 -2.1 3.45 -2.0 3.5 -1.85 M6.5 -5.4 L6.5 -4.65 Q6.4 -4.4 6.1 -4.1 6.0 -4.15 5.9 -4.25 5.8 -4.35 5.8 -4.45 5.8 -4.55 5.85 -4.7 5.85 -4.8 5.9 -4.9 L5.95 -4.95 6.0 -5.2 Q6.0 -5.35 6.15 -5.4 L6.5 -5.4 M6.65 -0.2 Q7.1 0.2 7.15 0.85 L7.2 0.85 7.2 1.1 Q7.2 1.15 7.05 1.15 6.65 1.15 6.25 0.8 L5.9 0.4 5.9 0.3 6.2 0.55 6.2 0.35 6.15 0.35 Q6.15 0.4 6.1 0.4 6.1 0.35 6.1 0.25 6.1 -0.2 6.25 -0.25 6.4 -0.35 6.65 -0.2 M18.5 -5.8 Q18.4 -5.9 18.3 -5.95 L18.3 -6.15 18.7 -6.15 18.8 -6.0 Q18.8 -5.85 18.5 -5.8 M19.95 -1.05 L20.0 -0.85 Q20.0 -0.7 19.95 -0.7 L19.85 -0.65 Q19.75 -0.7 19.7 -0.75 19.65 -0.8 19.65 -0.95 19.65 -1.1 19.7 -1.15 L19.8 -1.2 19.95 -1.05 M-10.15 -14.85 L-10.1 -14.9 Q-10.1 -15.25 -9.5 -15.35 L-9.2 -15.35 -9.1 -15.4 Q-8.75 -15.4 -8.6 -15.3 L-8.4 -15.15 Q-8.15 -15.15 -7.8 -15.4 L-7.25 -15.75 Q-6.6 -16.1 -6.05 -15.45 L-6.05 -15.4 Q-6.05 -15.35 -6.2 -15.35 -6.35 -15.35 -6.4 -15.5 -6.45 -15.6 -6.6 -15.6 -6.9 -15.6 -7.05 -15.3 L-7.25 -14.65 Q-7.5 -13.7 -8.3 -13.7 -8.45 -13.7 -8.5 -13.8 -8.6 -13.85 -8.7 -13.85 -9.05 -13.85 -9.2 -13.4 -9.3 -13.15 -9.3 -12.85 -9.3 -12.65 -8.9 -11.6 L-8.45 -10.55 Q-8.45 -10.45 -8.55 -10.35 L-9.35 -10.35 Q-9.75 -10.7 -9.8 -11.15 -9.85 -11.4 -9.85 -12.0 L-10.2 -11.95 Q-10.75 -11.95 -11.1 -12.25 -11.4 -12.35 -11.4 -12.6 L-11.35 -12.7 Q-11.4 -12.9 -11.4 -13.05 -11.4 -13.6 -10.85 -13.75 L-10.55 -13.8 -10.15 -14.3 -10.15 -14.5 Q-10.2 -14.75 -10.15 -14.85 M-11.85 -8.3 Q-11.75 -8.5 -11.35 -8.75 L-10.6 -8.75 -10.45 -8.6 Q-10.3 -8.5 -10.2 -8.5 -10.0 -8.5 -9.8 -8.8 L-9.8 -8.85 Q-9.8 -9.15 -9.4 -9.45 L-9.35 -9.5 -9.35 -9.45 Q-9.1 -9.6 -8.75 -9.75 -8.65 -9.8 -8.4 -9.9 -7.85 -10.05 -7.85 -9.55 -7.85 -9.3 -8.3 -8.6 -8.8 -7.85 -8.8 -7.4 L-8.75 -7.05 Q-8.7 -6.9 -8.45 -6.65 L-7.9 -6.65 Q-7.7 -6.9 -7.75 -7.4 -7.75 -7.65 -7.8 -8.25 -7.8 -9.3 -6.9 -9.3 -6.6 -9.3 -6.3 -8.9 -6.1 -8.6 -6.1 -8.5 L-6.55 -7.35 Q-7.05 -6.2 -7.05 -5.35 -7.05 -4.75 -6.8 -4.5 -6.6 -4.3 -6.2 -4.2 -5.75 -4.05 -5.6 -3.95 -5.35 -3.75 -5.35 -3.3 -5.35 -3.05 -5.4 -2.8 -5.55 -2.35 -5.85 -2.35 -6.85 -2.35 -7.4 -3.2 -7.7 -3.6 -7.85 -4.1 -8.25 -4.05 -8.35 -3.75 L-8.4 -3.35 Q-8.4 -2.7 -7.95 -2.35 -7.55 -2.0 -7.55 -1.55 -7.55 -1.4 -7.7 -1.15 -7.9 -0.9 -8.2 -0.9 -8.7 -0.9 -9.15 -1.4 L-9.3 -1.55 Q-9.65 -1.75 -9.85 -2.1 L-10.05 -2.5 Q-10.15 -2.7 -10.25 -2.8 -10.55 -3.05 -11.45 -3.35 -12.15 -3.55 -12.15 -3.9 L-12.0 -5.7 Q-11.85 -7.45 -11.85 -7.85 -11.85 -8.25 -11.85 -8.3 M-1.35 -11.45 Q-1.1 -11.45 -1.1 -11.4 L-1.25 -11.3 -1.45 -11.2 Q-1.15 -10.55 -1.4 -10.25 -1.75 -9.85 -1.75 -9.45 -1.75 -9.35 -1.95 -9.25 L-2.15 -9.2 Q-2.55 -9.2 -2.7 -9.6 -2.75 -9.8 -2.75 -10.05 -2.75 -10.4 -2.2 -10.85 L-1.35 -11.45 M-3.35 -7.9 Q-3.05 -7.45 -3.05 -6.45 -3.05 -6.3 -3.2 -5.9 -3.3 -5.5 -3.3 -5.4 -3.3 -5.0 -3.05 -4.65 -2.75 -4.35 -2.75 -4.05 -2.75 -3.8 -2.9 -3.65 -3.1 -3.45 -3.4 -3.45 -4.25 -3.45 -4.55 -4.4 -4.75 -4.95 -4.75 -5.5 -4.75 -6.55 -4.5 -7.3 -4.25 -7.95 -3.9 -8.1 -3.55 -8.3 -3.35 -7.9 M-7.35 -11.65 Q-6.9 -11.5 -6.9 -10.85 -6.9 -10.2 -7.15 -10.2 -7.6 -10.2 -7.75 -10.55 -7.85 -10.75 -7.85 -11.0 -7.85 -11.75 -7.35 -11.65 M-8.0 -0.5 Q-8.4 0.4 -8.9 1.2 L-9.2 1.75 Q-9.2 2.1 -8.8 2.5 -8.4 2.9 -8.4 3.15 -8.4 3.8 -8.95 4.0 -9.25 4.05 -9.35 4.15 -9.55 4.3 -9.55 4.65 -9.55 5.15 -9.25 5.4 -8.65 5.9 -6.8 5.9 -6.55 5.9 -6.2 5.75 L-5.85 5.55 Q-5.8 5.55 -5.75 5.55 -5.65 5.5 -5.65 5.65 -5.65 6.05 -6.35 6.6 -7.25 7.25 -8.3 7.25 -10.05 7.25 -10.95 6.35 -11.55 5.75 -11.55 5.25 -11.55 4.45 -10.6 3.7 L-9.95 3.15 Q-9.65 2.9 -9.65 2.7 -9.65 2.5 -9.85 2.25 L-10.05 1.85 -10.05 1.1 -9.6 1.15 Q-9.05 1.15 -8.85 0.85 -8.75 0.6 -8.75 0.15 -8.75 -0.35 -8.65 -0.45 -8.5 -0.65 -8.0 -0.5 M-1.0 -5.65 Q-1.3 -5.4 -1.7 -5.4 -2.2 -5.4 -2.3 -5.65 -2.35 -5.7 -2.35 -6.0 -2.35 -6.75 -1.55 -6.8 -1.2 -6.8 -0.95 -6.65 -0.7 -6.5 -0.7 -6.3 -0.7 -5.9 -1.0 -5.65 M-3.65 -0.7 Q-3.3 -0.95 -3.15 -1.1 -2.95 -1.4 -2.95 -2.05 -2.95 -2.3 -2.65 -2.45 L-2.0 -2.5 -2.0 -2.4 Q-2.25 -1.85 -2.35 -1.45 L-2.45 -0.8 Q-2.5 -0.55 -2.95 0.0 -3.35 0.55 -3.35 0.75 -3.35 1.1 -2.85 1.3 -1.65 1.75 -1.05 2.1 L-1.05 2.15 Q-1.25 2.25 -1.65 2.35 -2.05 2.5 -2.25 2.5 -3.25 2.5 -3.85 1.95 -4.4 1.5 -4.4 1.0 -4.4 0.2 -4.15 -0.2 -4.0 -0.45 -3.65 -0.7 M-1.2 -3.15 Q-1.2 -3.1 -1.2 -3.0 -1.2 -2.85 -1.3 -2.65 -1.45 -2.45 -1.6 -2.45 -1.95 -2.45 -1.95 -2.75 -1.95 -2.9 -1.75 -3.05 -1.5 -3.2 -1.25 -3.2 L-1.2 -3.15 M-6.95 0.95 Q-6.95 1.1 -7.05 1.4 -7.15 1.8 -7.25 1.8 -7.85 1.8 -7.95 1.45 L-7.95 1.05 Q-7.95 0.05 -7.45 0.1 -7.25 0.1 -7.1 0.35 -6.95 0.6 -6.95 0.95" fill="#ffffff" fill-opacity="0.7529412" fill-rule="evenodd" stroke="none"/>
  </g>
</svg>
