<?xml version="1.0" encoding="UTF-8" standalone="no"?>
<svg xmlns:ffdec="https://www.free-decompiler.com/flash" xmlns:xlink="http://www.w3.org/1999/xlink" ffdec:objectType="shape" height="5.35px" width="3.65px" xmlns="http://www.w3.org/2000/svg">
  <g transform="matrix(1.0, 0.0, 0.0, 1.0, 1.7, 5.1)">
    <path d="M1.35 -4.65 Q1.35 -4.4 1.0 -4.1 L0.6 -3.7 Q0.7 -3.0 1.3 -2.65 L1.65 -2.45 Q1.95 -2.2 1.95 -1.8 1.95 -1.5 1.8 -1.35 1.7 -1.25 1.3 -1.15 L1.1 -1.1 Q0.6 -0.9 0.45 -0.75 L0.45 -0.55 0.75 -0.4 Q1.0 -0.25 1.0 -0.1 1.0 0.2 0.4 0.25 L-0.25 0.15 Q-0.7 0.05 -0.6 -0.2 -0.55 -0.35 -0.45 -0.35 L-0.25 -0.3 Q-0.15 -0.3 0.0 -0.6 L0.0 -0.65 Q-0.2 -0.9 -0.75 -0.95 -1.25 -1.0 -1.55 -1.55 -1.5 -1.8 -1.35 -2.1 -1.15 -2.35 -1.15 -2.6 -1.2 -3.25 -1.3 -3.45 L-1.55 -3.95 -1.6 -3.9 -1.7 -4.4 Q-1.75 -4.65 -1.65 -4.65 -1.5 -4.65 -1.45 -4.5 -1.35 -4.25 -1.25 -4.15 -1.15 -4.1 -1.05 -4.05 L-0.85 -4.05 Q-0.65 -4.05 -0.55 -4.15 L-0.5 -4.45 -0.55 -4.6 -0.55 -4.55 -0.6 -4.45 Q-0.65 -4.75 -0.5 -4.85 L-0.3 -4.85 -0.25 -4.9 -0.2 -4.85 Q-0.05 -4.85 -0.05 -4.7 L-0.1 -4.6 -0.05 -4.4 Q0.15 -4.25 0.2 -4.25 L0.3 -4.3 0.35 -4.3 Q0.4 -4.3 0.4 -4.35 0.45 -4.35 0.6 -4.85 0.65 -4.95 1.05 -5.1 1.15 -5.1 1.25 -4.95 1.35 -4.85 1.35 -4.65 M-1.55 -4.45 L-1.55 -4.45" fill="url(#gradient0)" fill-rule="evenodd" stroke="none"/>
  </g>
  <defs>
    <linearGradient gradientTransform="matrix(1.0E-4, -0.0034, 0.0035, 1.0E-4, 0.1, -2.4)" gradientUnits="userSpaceOnUse" id="gradient0" spreadMethod="pad" x1="-819.2" x2="819.2">
      <stop offset="0.0" stop-color="#d3ace6"/>
      <stop offset="1.0" stop-color="#d3ace6" stop-opacity="0.0"/>
    </linearGradient>
  </defs>
</svg>
