<?xml version="1.0" encoding="UTF-8" standalone="no"?>
<svg xmlns:ffdec="https://www.free-decompiler.com/flash" xmlns:xlink="http://www.w3.org/1999/xlink" ffdec:objectType="shape" height="18.3px" width="68.8px" xmlns="http://www.w3.org/2000/svg">
  <g transform="matrix(1.0, 0.0, 0.0, 1.0, 33.75, 14.05)">
    <path d="M22.4 -0.65 L23.3 -0.75 Q23.1 -0.65 22.95 -0.5 L22.75 -0.25 Q22.5 0.05 21.7 0.05 L21.6 0.05 Q21.55 0.05 21.55 -0.15 21.55 -0.45 22.4 -0.65 M34.45 -11.3 Q34.45 -11.0 34.2 -10.55 33.85 -10.05 33.45 -10.05 L33.15 -10.05 33.05 -10.15 Q33.0 -10.2 33.0 -10.45 33.0 -10.8 33.35 -12.1 33.75 -13.5 34.05 -14.05 34.45 -12.95 34.45 -11.3 M34.2 -12.5 L34.2 -12.45 34.15 -12.05 Q34.05 -11.8 34.05 -11.6 L34.2 -11.6 34.25 -12.05 34.2 -12.5 M23.75 -0.8 Q23.7 -0.8 23.3 -0.8 L23.4 -0.9 23.75 -0.8 M24.0 -0.8 Q23.85 -0.8 23.85 -1.0 23.85 -1.2 24.45 -1.7 25.05 -2.25 25.55 -2.35 L25.0 -1.55 Q24.6 -1.05 24.1 -0.85 24.05 -0.8 24.0 -0.8 M13.25 2.75 Q12.45 3.15 12.35 3.25 L12.2 3.3 Q12.1 3.3 12.1 3.05 12.1 2.75 12.8 2.4 13.5 2.1 14.05 2.1 14.0 2.3 13.25 2.75 M9.45 3.9 Q8.45 4.25 7.8 4.25 L7.05 4.25 Q7.0 4.2 6.75 3.85 L7.5 3.55 Q8.1 3.25 8.55 3.1 9.95 2.65 10.55 3.4 10.3 3.6 9.45 3.9 M-32.35 -11.25 Q-32.1 -10.75 -31.5 -9.6 -30.9 -8.4 -30.9 -8.25 L-30.9 -8.0 -31.0 -7.85 -31.25 -7.8 Q-31.9 -8.25 -32.55 -9.5 -33.15 -10.6 -33.15 -11.1 -33.15 -11.25 -33.45 -11.65 -33.75 -12.1 -33.75 -12.2 -33.75 -12.65 -33.55 -12.9 -33.3 -13.25 -32.85 -12.75 -32.8 -12.6 -32.65 -12.05 -32.55 -11.5 -32.35 -11.25 M-25.2 -2.65 L-25.25 -2.5 -25.3 -2.55 -25.6 -2.55 -25.7 -2.7 -25.55 -2.85 Q-25.45 -2.9 -25.2 -2.7 L-25.2 -2.65 M-22.45 -0.2 Q-22.15 -0.2 -22.0 0.15 -22.1 0.35 -22.2 0.45 -22.45 0.4 -22.6 0.25 -22.8 0.1 -22.75 -0.15 L-22.45 -0.2 M-14.2 2.3 L-14.6 2.35 Q-14.9 2.35 -15.85 2.05 -16.75 1.75 -16.85 1.65 -16.05 1.65 -15.5 1.8 L-14.1 2.3 -14.2 2.3" fill="#59a5ff" fill-opacity="0.5019608" fill-rule="evenodd" stroke="none"/>
    <path d="M34.2 -11.4 Q34.15 -11.55 34.15 -11.8 34.15 -12.15 34.55 -12.35 L34.75 -12.15 Q34.8 -12.0 34.8 -11.8 34.8 -11.3 34.4 -11.15 34.25 -11.3 34.2 -11.4 M-32.35 -9.75 L-32.35 -9.65 -32.6 -9.65 Q-32.85 -9.65 -32.9 -9.8 -32.95 -9.85 -32.95 -10.2 L-32.95 -10.5 -32.85 -10.6 -32.7 -10.6 -32.5 -10.2 Q-32.4 -9.95 -32.35 -9.75" fill="#8cc1ff" fill-opacity="0.7529412" fill-rule="evenodd" stroke="none"/>
    <path d="M34.4 -11.4 Q34.3 -11.5 34.3 -11.75 34.3 -11.95 34.4 -12.1 34.45 -12.15 34.6 -12.2 34.8 -12.05 34.85 -11.9 34.9 -11.75 34.9 -11.5 L34.8 -11.4 Q34.7 -11.35 34.6 -11.35 L34.4 -11.4 M-32.6 -10.05 L-32.7 -9.9 -33.0 -9.9 Q-33.05 -9.95 -33.1 -10.15 L-33.1 -10.5 Q-32.85 -10.5 -32.55 -10.1 L-32.6 -10.05" fill="#bfdcff" fill-opacity="0.7529412" fill-rule="evenodd" stroke="none"/>
    <path d="M34.6 -11.75 Q34.7 -11.85 34.9 -11.9 35.05 -11.9 35.05 -11.85 L34.9 -11.7 34.7 -11.65 34.6 -11.75 M-32.95 -9.8 L-33.3 -9.8 -33.3 -9.75 Q-33.35 -9.7 -33.35 -9.95 -33.35 -10.15 -33.2 -10.15 L-32.85 -10.1 Q-32.85 -9.9 -32.95 -9.8" fill="#ffffff" fill-rule="evenodd" stroke="none"/>
  </g>
</svg>
