<?xml version="1.0" encoding="UTF-8" standalone="no"?>
<svg xmlns:ffdec="https://www.free-decompiler.com/flash" xmlns:xlink="http://www.w3.org/1999/xlink" ffdec:objectType="shape" height="78.45px" width="32.95px" xmlns="http://www.w3.org/2000/svg">
  <g transform="matrix(1.0, 0.0, 0.0, 1.0, 5.95, 1.05)">
    <path d="M23.2 25.9 Q21.3 27.2 20.6 28.2 19.45 29.8 19.45 32.5 19.45 34.35 18.7 35.5 18.65 36.05 18.35 36.55 L18.4 36.6 Q18.65 36.8 18.65 36.9 18.65 39.1 14.8 39.6 L13.55 39.7 Q13.45 39.95 12.95 40.25 L11.6 40.85 Q9.6 41.65 9.6 42.45 9.6 43.9 10.8 45.0 11.55 45.65 13.35 46.5 15.35 47.45 15.95 47.95 17.1 48.85 17.1 50.05 17.1 52.25 14.85 52.85 13.75 53.15 12.6 53.05 L12.65 53.1 Q14.8 54.6 14.8 55.7 14.8 58.4 10.1 59.3 7.75 59.8 5.35 59.7 3.2 59.7 2.6 59.65 0.55 59.5 -0.35 58.85 -3.0 57.05 2.6 51.7 L2.5 51.7 Q-3.65 53.05 -2.4 48.0 -2.0 46.5 -0.85 44.25 L-0.1 42.7 -0.55 42.75 Q-1.3 42.75 -2.35 42.35 -3.6 41.85 -4.4 41.05 -5.65 39.85 -5.45 38.2 -6.0 37.45 -5.95 36.7 -5.85 36.0 -5.05 35.4 -5.0 33.7 -4.15 32.55 -3.65 31.9 -2.1 30.7 -0.65 29.55 0.0 28.55 0.9 26.95 0.9 24.5 0.9 20.15 -1.85 15.2 -2.6 13.9 -3.9 11.7 -4.95 9.9 -5.15 8.8 -5.35 5.2 -4.35 3.6 -3.7 2.5 -2.7 2.5 L-2.65 2.5 Q-2.2 1.15 -0.6 0.7 0.2 0.45 2.3 0.45 7.0 0.45 11.65 2.15 16.0 3.75 19.55 6.6 23.0 9.35 24.95 12.65 27.0 16.05 27.0 19.3 27.0 22.0 25.8 23.65 25.1 24.65 23.2 25.9 M2.5 52.45 Q0.75 53.2 0.5 54.3 0.25 55.35 1.65 56.15 3.15 56.95 5.95 56.95 7.45 56.85 9.0 56.35 12.1 55.35 12.1 53.4 12.1 52.35 9.95 51.9 8.7 51.6 7.55 51.6 4.45 51.6 2.5 52.45 M7.9 33.95 Q7.4 33.75 6.55 33.4 5.85 33.1 5.6 32.65 5.9 32.65 5.85 32.45 L5.6 32.5 Q5.4 32.55 5.4 32.7 5.5 32.9 5.55 33.3 L5.45 33.3 Q0.9 33.6 -1.05 34.95 -2.7 36.05 -2.2 37.7 -1.8 39.15 0.0 40.3 1.75 41.45 3.6 41.45 5.1 41.45 6.75 40.75 9.6 39.45 9.6 36.65 9.6 34.7 7.9 33.95 M15.55 13.7 L15.4 13.75 Q15.45 14.2 15.65 14.65 L15.8 15.15 Q15.2 14.8 14.25 14.9 13.3 15.0 12.4 15.5 10.25 16.65 10.1 18.75 10.0 20.75 11.4 23.0 12.05 24.0 12.75 24.6 13.5 25.2 14.15 25.2 14.35 25.2 15.05 24.95 15.85 24.6 16.65 24.15 18.8 22.85 19.15 21.15 L19.2 20.25 Q19.2 17.8 17.7 16.1 L16.45 14.9 Q15.8 14.2 15.55 13.7 M13.65 69.8 Q14.8 70.65 14.8 71.8 14.8 75.8 10.8 76.95 8.75 77.55 6.6 77.35 4.35 77.35 2.2 76.45 0.3 75.6 -0.75 74.4 -1.85 73.25 -1.45 72.4 -1.05 71.5 0.95 71.5 2.2 71.5 3.65 72.4 L4.6 73.0 Q5.15 73.25 5.5 73.25 6.6 73.25 7.6 72.65 8.3 72.2 9.25 71.25 10.35 70.1 10.65 69.85 11.5 69.2 12.25 69.2 12.8 69.2 13.65 69.8" fill="#ff8000" fill-opacity="0.101960786" fill-rule="evenodd" stroke="none"/>
    <path d="M0.85 -1.05 Q3.15 -1.05 6.35 0.95 L8.45 2.3 Q9.5 2.95 9.95 2.95 L11.45 2.65 Q12.75 2.35 13.85 2.35 14.75 2.35 16.1 2.7 18.35 3.35 20.15 4.65 25.7 8.7 25.7 17.8 25.7 21.85 22.9 24.4 21.4 25.75 19.8 26.3 20.3 27.2 20.3 29.55 20.3 32.4 17.8 34.2 17.0 34.85 16.0 35.25 15.25 35.55 14.95 35.55 L12.45 35.35 9.9 35.15 Q9.3 35.15 7.9 36.1 6.3 37.15 6.3 38.05 6.3 38.75 6.45 39.4 7.1 40.6 8.6 41.7 L8.65 41.7 Q10.5 42.5 11.35 43.0 12.45 43.6 13.25 44.25 13.9 44.65 14.25 44.9 15.4 45.8 15.4 46.7 15.4 47.45 15.2 48.05 15.2 49.5 13.2 49.9 12.8 50.0 12.4 50.0 L12.25 50.0 9.7 49.85 9.9 50.15 10.8 50.45 Q13.55 51.6 13.55 53.25 13.55 54.5 11.35 55.0 10.25 55.25 9.1 55.25 L5.45 55.0 1.1 54.6 Q-1.0 54.25 -1.2 53.4 -1.35 52.75 -0.2 51.85 0.75 51.15 2.2 50.5 L2.45 50.4 2.55 50.25 2.25 50.15 Q1.05 49.9 0.1 49.45 -2.8 48.15 -2.8 45.95 -2.8 44.8 -2.2 44.3 -1.85 44.0 -0.9 43.7 0.0 43.4 0.4 43.1 0.95 42.55 0.95 41.4 0.95 40.65 0.25 40.25 -0.2 40.0 -1.35 39.5 -2.4 38.95 -2.95 38.0 -3.7 36.8 -3.7 34.75 -3.7 31.75 -2.1 30.2 -1.5 29.6 -0.5 29.05 -0.15 28.85 1.35 28.15 3.75 26.95 4.8 25.65 6.35 23.65 6.35 19.9 6.35 17.25 4.95 15.5 4.0 14.25 1.85 12.95 -0.65 11.45 -1.3 10.9 -2.7 9.55 -2.7 7.75 -2.7 7.45 -2.55 6.35 L-2.3 4.9 -2.55 4.95 Q-3.55 4.75 -3.95 4.2 -4.3 3.75 -4.15 3.15 L-4.0 2.8 Q-4.3 2.65 -4.25 2.25 -4.15 1.7 -3.3 0.9 -2.45 0.1 -1.4 -0.45 -0.2 -1.05 0.85 -1.05 M4.2 31.9 Q3.15 31.4 2.2 31.4 1.05 31.4 0.2 32.55 -0.65 33.6 -0.8 35.0 -0.95 36.5 -0.15 37.5 0.75 38.6 2.6 38.6 3.5 38.6 4.3 38.1 6.0 37.15 6.0 34.75 6.0 32.8 4.2 31.9 M18.45 10.7 L18.55 10.95 Q16.2 11.3 15.3 12.9 14.5 14.25 14.95 16.15 15.3 17.9 16.45 19.25 17.6 20.6 18.85 20.6 20.0 20.6 21.05 19.55 22.45 18.15 22.45 15.7 22.45 13.95 20.65 12.15 20.2 11.7 19.3 11.0 18.6 10.4 18.5 10.25 L18.4 10.3 Q18.4 10.45 18.45 10.7 M9.85 58.85 Q10.7 58.85 11.35 59.65 11.7 60.1 12.75 62.0 12.35 66.9 9.9 68.55 9.05 69.1 7.95 69.25 L6.5 69.3 Q3.85 69.3 1.9 67.8 0.15 66.5 -0.55 64.5 -1.2 62.65 -0.6 61.25 0.0 59.75 1.8 59.75 2.85 59.75 3.5 60.45 3.9 60.95 4.35 62.05 4.8 63.3 5.1 63.65 5.6 64.4 6.5 64.4 7.1 64.4 7.6 63.55 7.95 62.95 8.4 61.65 8.9 60.1 9.05 59.7 9.45 58.85 9.85 58.85" fill="#ffe700" fill-opacity="0.2509804" fill-rule="evenodd" stroke="none"/>
  </g>
</svg>
