<?xml version="1.0" encoding="UTF-8" standalone="no"?>
<svg xmlns:ffdec="https://www.free-decompiler.com/flash" xmlns:xlink="http://www.w3.org/1999/xlink" ffdec:objectType="shape" height="116.15px" width="45.9px" xmlns="http://www.w3.org/2000/svg">
  <g transform="matrix(1.0, 0.0, 0.0, 1.0, 25.65, 5.0)">
    <path d="M10.5 -2.45 Q20.0 1.1 20.0 7.0 20.0 12.05 13.8 16.45 11.7 17.95 9.3 19.05 7.35 19.95 6.75 19.95 L5.7 19.8 Q4.85 19.6 4.6 19.6 3.95 19.6 3.1 20.75 3.05 25.75 1.85 29.5 0.9 32.4 -1.0 35.1 L-2.5 37.15 Q-3.4 38.3 -3.85 39.0 -5.15 41.05 -5.15 43.2 -5.15 44.8 -4.3 46.2 L-3.35 46.6 Q-1.65 47.3 -1.45 47.3 -1.2 47.3 -1.0 47.45 -0.7 47.65 -0.7 48.15 -0.7 48.6 -1.0 48.9 -1.15 49.05 -1.55 49.25 L-2.0 49.45 -1.55 50.65 Q-1.25 51.45 -0.85 52.0 L-0.1 52.1 Q0.35 52.1 1.2 51.55 2.05 51.05 2.3 51.0 L2.55 50.6 2.75 50.35 Q2.9 50.15 2.95 50.15 L3.25 50.2 Q3.45 50.2 3.65 50.4 L4.1 50.85 4.1 54.9 3.95 55.2 Q3.85 56.1 3.25 56.85 L3.25 56.9 Q3.15 57.05 3.0 57.15 2.7 57.45 2.3 57.75 1.75 58.15 1.1 58.45 0.6 58.65 0.5 58.65 L-3.0 58.25 -4.7 58.45 -6.3 58.7 Q-6.5 58.85 -6.8 59.0 -7.3 59.15 -7.7 59.15 -8.9 59.15 -9.5 58.4 -9.95 57.9 -10.4 56.3 -11.05 54.05 -11.45 53.05 -12.05 51.55 -12.85 50.15 L-12.95 50.2 Q-13.4 50.2 -13.85 50.0 L-14.25 50.05 Q-15.8 50.05 -16.95 47.65 -17.35 46.8 -17.7 45.65 -18.4 44.25 -18.75 42.75 -19.15 41.15 -19.1 39.8 -19.6 38.45 -20.55 37.25 -21.1 36.95 -21.9 36.05 -22.55 35.4 -23.05 34.6 -23.55 34.45 -24.0 33.75 -24.7 32.6 -24.8 30.6 -25.05 29.5 -25.0 28.45 -24.95 26.45 -23.9 24.8 -23.95 20.2 -24.75 17.05 -25.0 16.9 -25.2 16.5 -25.55 15.9 -25.65 14.85 -25.85 12.4 -24.8 9.4 -24.25 8.25 -23.35 7.05 -22.2 5.65 -21.5 4.75 -20.25 3.1 -18.3 1.9 -16.0 0.7 -14.9 0.05 -12.95 -1.05 -7.8 -2.65 -7.1 -3.3 -5.05 -3.95 -3.75 -4.4 -2.25 -4.7 -0.9 -5.0 -0.3 -5.0 0.75 -5.0 3.6 -4.4 7.35 -3.65 10.5 -2.45 M7.15 6.25 Q6.7 5.55 6.1 5.25 5.15 4.8 3.25 4.8 1.3 4.8 0.3 6.2 -0.65 7.5 -0.35 9.25 -0.1 11.1 1.3 12.35 2.85 13.75 5.2 13.75 6.35 13.45 7.45 12.9 9.6 11.8 9.6 10.35 9.6 9.8 8.3 8.85 L7.7 8.45 8.9 8.5 Q9.95 8.5 10.35 7.7 L10.75 7.45 10.65 7.35 10.45 7.6 10.4 7.65 10.55 7.15 10.45 7.15 Q9.1 7.3 7.5 6.75 L7.15 6.25 M16.9 6.25 Q16.75 6.1 16.6 5.8 16.45 6.4 15.9 7.4 L15.1 8.9 Q14.7 9.7 14.75 10.05 14.85 10.55 15.65 10.55 L15.85 10.35 16.5 9.85 Q17.45 8.95 17.45 7.85 17.45 6.7 17.15 6.45 17.1 6.4 16.9 6.25 M8.9 70.95 Q9.4 70.95 10.3 71.7 11.35 72.55 11.35 73.5 11.35 77.8 7.15 79.8 5.75 80.45 4.1 80.75 3.05 81.0 2.45 81.0 0.65 81.0 -1.05 80.55 -3.65 79.9 -5.1 79.7 -6.5 79.45 -7.75 78.15 -8.85 77.0 -9.35 75.4 -9.85 73.85 -9.5 72.8 -9.05 71.65 -7.65 71.65 -5.85 72.35 -3.65 73.1 0.75 74.55 3.2 74.55 5.15 74.55 6.7 72.75 7.45 71.85 7.75 71.5 8.35 70.95 8.9 70.95 M-11.65 28.1 Q-11.85 27.75 -12.1 27.45 -12.75 26.6 -13.4 26.05 -14.0 25.55 -14.3 25.55 -15.2 25.55 -13.3 29.55 L-13.25 29.7 -13.35 29.65 Q-13.85 29.5 -14.7 29.5 -16.6 29.5 -17.65 30.9 -18.6 32.15 -18.6 33.95 -18.6 35.75 -17.7 37.05 -16.7 38.45 -15.1 38.45 -13.9 38.35 -12.65 37.75 -10.1 36.55 -10.1 34.0 -10.1 32.8 -10.3 32.1 L-10.5 31.65 Q-10.55 30.1 -11.35 28.6 -11.45 27.85 -11.45 26.95 L-11.45 26.8 Q-11.6 27.45 -11.65 28.1 M-7.05 13.75 L-7.85 13.05 Q-8.2 12.7 -8.2 12.5 L-8.15 12.1 Q-8.15 11.8 -8.6 11.2 L-8.4 12.0 Q-8.35 12.35 -8.5 12.6 -9.1 12.5 -9.6 12.9 -9.95 13.25 -11.5 14.75 -12.05 15.3 -13.15 15.25 L-14.95 15.3 Q-16.6 18.4 -14.1 19.85 -13.3 20.35 -12.05 20.6 -11.25 20.8 -10.6 20.8 -10.4 20.8 -9.75 20.6 -8.9 20.4 -8.15 20.0 -5.9 18.85 -5.9 16.75 -5.9 14.95 -7.05 13.75 M-2.8 109.05 Q-1.6 108.7 -1.0 108.7 -0.55 108.7 -0.2 108.95 0.2 109.2 0.2 109.6 0.2 109.95 -1.2 110.6 L-2.45 111.15 Q-4.6 111.15 -5.1 110.8 -5.5 110.45 -4.7 109.9 -4.0 109.45 -2.8 109.05" fill="#ffaa00" fill-opacity="0.2509804" fill-rule="evenodd" stroke="none"/>
    <path d="M4.0 -1.2 Q5.85 -1.95 7.65 -2.5 9.7 -3.1 10.8 -3.1 11.7 -3.1 13.0 -2.65 14.45 -2.2 15.8 -1.35 19.3 0.8 20.05 3.95 L20.05 4.2 Q20.25 5.0 20.25 5.8 20.25 7.45 20.0 8.85 L20.0 9.3 19.85 9.65 Q18.85 14.1 15.4 16.55 13.75 17.7 11.75 18.25 L11.4 18.35 Q10.55 19.0 9.9 19.6 5.9 23.1 4.25 27.25 3.45 29.35 -0.7 34.15 -2.15 35.9 -3.5 37.35 L-4.3 38.15 Q-4.7 39.25 -4.7 39.5 -4.7 42.5 -3.85 43.85 -3.2 44.95 -1.85 45.15 L-0.7 45.25 0.8 45.25 Q0.9 45.2 1.2 45.2 1.5 45.2 1.8 45.5 2.2 45.7 2.45 45.95 L2.25 46.1 Q2.5 46.5 2.5 46.7 2.5 48.05 1.6 49.2 1.1 49.85 -0.2 50.95 L-0.6 51.3 Q-1.75 52.4 -2.1 53.25 -2.15 53.55 -2.15 53.85 L-2.15 54.05 Q-2.1 54.35 -2.0 54.75 L-2.1 54.75 -2.1 55.15 -1.9 55.55 Q-1.6 56.35 -1.55 59.55 -1.0 60.35 -1.0 61.3 -1.0 61.65 -1.0 62.2 -1.05 62.65 -0.9 62.9 -0.75 63.15 -0.2 63.85 0.35 64.5 0.55 64.65 0.75 64.8 1.9 65.25 3.05 65.7 3.2 65.7 3.75 65.7 4.2 65.55 5.3 64.75 6.1 62.75 L6.7 61.15 Q6.75 60.35 6.75 59.45 6.75 58.95 7.15 58.7 7.35 58.55 7.6 58.55 8.0 58.55 8.75 59.85 9.5 61.2 9.5 62.2 L9.5 62.8 9.55 62.95 9.55 64.05 Q10.2 70.0 6.1 71.95 4.75 72.6 2.9 72.8 2.35 72.85 0.85 72.85 -1.05 72.85 -2.85 72.35 -4.95 71.8 -5.95 70.75 -7.75 69.6 -8.35 67.9 -9.5 66.5 -9.85 65.85 -10.15 65.25 -10.1 64.85 -10.05 64.55 -9.7 64.2 L-8.9 63.45 Q-8.4 62.9 -8.0 62.15 -6.95 60.15 -6.95 56.3 -6.95 55.95 -7.05 55.6 -7.35 55.1 -7.85 54.75 -11.4 54.7 -12.95 52.45 -15.45 48.75 -11.8 39.95 -12.5 40.45 -13.6 40.85 -15.1 41.4 -16.6 41.6 -17.55 41.6 -18.3 41.4 L-18.65 41.45 Q-20.05 41.45 -21.3 40.3 -22.6 39.1 -23.55 36.85 -24.1 35.55 -24.0 33.6 L-23.95 33.15 Q-24.0 32.2 -23.85 31.3 -23.75 30.3 -23.45 29.5 L-23.35 29.05 Q-22.7 25.2 -22.4 22.65 -21.95 18.3 -21.95 13.8 -21.95 12.4 -22.55 8.95 -23.2 5.5 -23.2 5.35 -23.2 4.0 -22.7 2.65 L-22.3 1.8 Q-21.7 -0.2 -20.25 -1.05 -17.7 -2.15 -16.15 -2.65 -13.85 -3.35 -12.15 -3.35 -9.3 -3.35 -3.15 -1.95 L2.6 -0.55 Q3.2 -0.85 4.0 -1.2 M0.6 17.9 L0.5 17.9 -1.3 18.45 Q-2.5 18.85 -3.1 18.85 -4.6 18.85 -5.85 18.1 -6.55 17.65 -7.0 17.05 -6.0 17.55 -4.5 17.55 -3.5 17.75 -2.55 17.3 -0.6 16.45 -0.6 13.3 -0.6 11.8 -2.7 10.5 -4.4 9.45 -5.7 9.35 -5.65 9.3 -5.65 9.2 -5.65 9.1 -5.75 9.1 -6.3 9.5 -6.8 10.05 L-7.05 10.05 Q-8.65 10.05 -9.35 11.65 -9.95 13.1 -9.6 15.15 -9.2 17.25 -7.9 18.65 -6.5 20.25 -4.5 20.25 L-3.0 20.2 Q-2.65 20.15 -2.4 19.95 L-1.55 19.25 Q-0.75 18.65 0.6 17.9 M15.45 7.0 Q15.25 6.35 14.9 5.65 14.5 9.25 13.75 10.2 L13.45 10.45 Q13.65 9.95 13.65 9.35 13.65 6.75 11.3 5.5 9.95 4.8 8.65 4.8 7.1 4.8 6.35 5.95 6.2 6.15 6.1 6.35 4.9 7.0 4.9 7.95 4.95 8.95 6.4 10.1 6.75 10.4 7.15 10.65 L7.4 10.85 Q8.3 11.6 9.45 11.85 10.95 12.55 11.65 12.55 12.8 12.65 13.8 12.35 15.85 11.7 15.85 9.45 15.85 8.15 15.45 7.0 M4.25 96.0 Q4.9 96.45 4.9 97.5 4.9 99.35 2.2 100.45 0.8 101.0 -0.6 101.15 -3.7 101.15 -5.95 100.4 -7.85 99.75 -8.65 98.7 -9.35 97.75 -8.7 97.05 -8.0 96.25 -6.15 96.25 -5.75 96.25 -3.2 96.7 L-0.7 97.1 Q-0.45 97.1 1.2 96.35 2.8 95.65 3.1 95.65 3.8 95.65 4.25 96.0 M-10.1 47.2 Q-10.8 48.2 -11.0 49.3 -11.3 50.7 -10.25 50.7 -9.95 50.7 -9.65 50.35 -9.1 49.7 -9.1 48.2 -9.1 48.05 -9.5 47.65 -9.9 47.25 -10.1 47.2 M-18.0 24.05 Q-18.65 25.2 -18.65 26.6 -18.65 28.2 -17.8 29.15 -17.35 29.7 -16.7 30.0 -15.85 31.2 -14.35 31.2 -13.6 31.05 -12.85 30.35 -11.35 28.85 -11.35 25.75 -11.35 24.9 -11.85 24.25 L-11.9 22.65 -12.0 22.7 -12.1 23.95 Q-12.35 23.7 -12.65 23.45 -13.05 23.2 -13.4 23.05 -13.85 22.7 -14.3 22.7 -14.6 22.7 -14.65 22.8 -15.15 22.9 -15.55 23.15 L-15.5 23.05 -15.85 23.0 -16.4 22.9 Q-17.3 22.9 -18.0 24.05" fill="#ffe700" fill-opacity="0.5019608" fill-rule="evenodd" stroke="none"/>
  </g>
</svg>
