<?xml version="1.0" encoding="UTF-8" standalone="no"?>
<svg xmlns:ffdec="https://www.free-decompiler.com/flash" xmlns:xlink="http://www.w3.org/1999/xlink" ffdec:objectType="shape" height="84.9px" width="32.3px" xmlns="http://www.w3.org/2000/svg">
  <g transform="matrix(1.0, 0.0, 0.0, 1.0, 5.55, 1.05)">
    <path d="M0.85 -1.05 Q3.15 -1.05 6.35 0.95 L8.45 2.3 Q9.5 2.95 9.95 2.95 L11.45 2.65 Q12.75 2.35 13.85 2.35 14.75 2.35 16.1 2.7 18.35 3.35 20.15 4.65 25.7 8.7 25.7 17.8 25.7 21.85 22.9 24.4 21.4 25.75 19.8 26.3 20.3 27.2 20.3 29.55 20.3 32.4 17.8 34.2 17.0 34.85 16.0 35.25 15.25 35.55 14.95 35.55 L12.45 35.35 9.9 35.15 Q9.3 35.15 7.9 36.1 6.3 37.15 6.3 38.05 6.3 38.75 6.45 39.4 7.1 40.6 8.6 41.7 L8.65 41.7 Q10.5 42.5 11.35 43.0 12.45 43.6 13.25 44.25 13.9 44.65 14.25 44.9 15.4 45.8 15.4 46.7 15.4 47.45 15.2 48.05 15.2 49.5 13.2 49.9 12.8 50.0 12.4 50.0 L12.25 50.0 9.7 49.85 9.9 50.15 10.8 50.45 Q13.55 51.6 13.55 53.25 13.55 54.5 11.35 55.0 10.25 55.25 9.1 55.25 L5.45 55.0 1.1 54.6 Q-1.0 54.25 -1.2 53.4 -1.35 52.75 -0.2 51.85 0.75 51.15 2.2 50.5 L2.45 50.4 2.55 50.25 2.25 50.15 Q1.05 49.9 0.1 49.45 -2.8 48.15 -2.8 45.95 -2.8 44.8 -2.2 44.3 -1.85 44.0 -0.9 43.7 0.0 43.4 0.4 43.1 0.95 42.55 0.95 41.4 0.95 40.65 0.25 40.25 -0.2 40.0 -1.35 39.5 -2.4 38.95 -2.95 38.0 -3.7 36.8 -3.7 34.75 -3.7 31.75 -2.1 30.2 -1.5 29.6 -0.5 29.05 -0.15 28.85 1.35 28.15 3.75 26.95 4.8 25.65 6.35 23.65 6.35 19.9 6.35 17.25 4.95 15.5 4.0 14.25 1.85 12.95 -0.65 11.45 -1.3 10.9 -2.7 9.55 -2.7 7.75 -2.7 7.45 -2.55 6.35 L-2.3 4.9 -2.55 4.95 Q-3.55 4.75 -3.95 4.2 -4.3 3.75 -4.15 3.15 L-4.0 2.8 Q-4.3 2.65 -4.25 2.25 -4.15 1.7 -3.3 0.9 -2.45 0.1 -1.4 -0.45 -0.2 -1.05 0.85 -1.05 M4.2 31.9 Q3.15 31.4 2.2 31.4 1.05 31.4 0.2 32.55 -0.65 33.6 -0.8 35.0 -0.95 36.5 -0.15 37.5 0.75 38.6 2.6 38.6 3.5 38.6 4.3 38.1 6.0 37.15 6.0 34.75 6.0 32.8 4.2 31.9 M18.45 10.7 L18.55 10.95 Q16.2 11.3 15.3 12.9 14.5 14.25 14.95 16.15 15.3 17.9 16.45 19.25 17.6 20.6 18.85 20.6 20.0 20.6 21.05 19.55 22.45 18.15 22.45 15.7 22.45 13.95 20.65 12.15 20.2 11.7 19.3 11.0 18.6 10.4 18.5 10.25 L18.4 10.3 Q18.4 10.45 18.45 10.7 M9.85 58.85 Q10.7 58.85 11.35 59.65 11.7 60.1 12.75 62.0 12.35 66.9 9.9 68.55 9.05 69.1 7.95 69.25 L6.5 69.3 Q3.85 69.3 1.9 67.8 0.15 66.5 -0.55 64.5 -1.2 62.65 -0.6 61.25 0.0 59.75 1.8 59.75 2.85 59.75 3.5 60.45 3.9 60.95 4.35 62.05 4.8 63.3 5.1 63.65 5.6 64.4 6.5 64.4 7.1 64.4 7.6 63.55 7.95 62.95 8.4 61.65 8.9 60.1 9.05 59.7 9.45 58.85 9.85 58.85" fill="#ff8000" fill-opacity="0.101960786" fill-rule="evenodd" stroke="none"/>
    <path d="M3.0 -0.8 Q3.9 -0.8 8.55 0.5 12.05 1.45 15.7 2.55 17.3 3.05 18.1 3.35 20.2 4.25 21.8 5.7 26.75 10.05 26.75 18.35 26.75 21.6 23.8 25.25 22.8 26.45 21.7 27.45 L20.8 28.2 Q20.9 28.75 20.9 29.45 20.9 35.75 15.1 38.75 L14.1 39.2 Q13.35 39.65 12.3 40.25 12.05 40.5 11.45 40.7 L9.75 41.6 Q9.75 42.35 10.9 43.35 11.65 44.0 13.45 45.1 15.4 46.3 16.0 46.75 17.15 47.65 17.15 48.25 17.15 49.95 15.05 50.9 L12.95 50.95 11.15 51.0 10.75 51.2 Q10.6 51.3 10.6 51.4 10.8 51.65 11.6 52.25 L13.1 53.35 Q15.05 54.9 15.05 56.45 15.05 60.25 11.2 61.45 9.3 62.05 7.35 61.85 4.95 61.85 3.0 61.3 -0.85 60.1 -0.85 56.95 -0.85 55.65 0.05 54.1 L0.7 52.95 Q0.95 52.4 0.95 51.95 0.95 51.65 0.75 51.5 L0.1 51.55 Q-0.75 51.45 -1.35 51.15 -3.95 49.8 -2.45 46.3 -2.0 45.25 -1.15 44.0 L-0.45 42.95 -0.55 42.9 Q-1.25 42.9 -2.35 42.25 -3.55 41.5 -4.4 40.35 -5.4 38.95 -5.5 37.4 -5.6 36.1 -5.05 34.8 -4.95 32.45 -4.2 31.35 -3.5 30.3 -1.8 30.05 L-0.5 29.9 Q0.2 29.75 0.65 29.5 1.8 28.8 1.8 26.5 1.8 23.95 0.85 21.15 0.2 19.2 -1.25 16.35 -2.95 12.85 -3.3 12.0 -4.25 9.75 -4.25 8.15 -4.25 4.65 -3.1 2.25 -2.65 1.4 -2.15 0.85 -1.8 0.45 -1.5 0.4 -1.1 0.1 -0.45 -0.15 0.4 -0.45 1.6 -0.65 L3.0 -0.8 M2.35 52.1 Q1.15 53.2 1.55 54.95 1.95 56.55 3.45 57.8 5.0 59.1 6.75 59.1 8.0 59.1 9.35 58.6 12.1 57.55 12.1 55.05 12.1 53.05 9.75 51.75 9.0 51.3 8.1 51.0 7.4 50.8 7.1 50.8 3.8 50.8 2.35 52.1 M7.55 34.25 Q7.55 32.05 6.1 30.9 5.65 30.55 4.95 30.2 4.25 29.85 4.1 29.75 L3.9 29.8 4.65 30.85 4.6 30.8 Q3.75 30.5 2.85 30.3 -0.55 30.3 -1.6 31.3 -2.45 32.1 -1.65 33.5 -1.45 33.85 -1.15 34.25 -1.8 34.55 -2.2 34.9 -3.25 35.8 -2.55 36.9 -1.95 37.8 -0.35 38.5 1.2 39.2 2.5 39.2 3.85 39.2 5.1 38.6 7.55 37.35 7.55 34.25 M15.4 17.05 Q15.25 17.3 15.05 17.55 L14.7 18.0 14.65 18.05 Q14.6 17.35 14.85 17.05 15.0 16.9 15.25 16.75 L15.4 17.05 M19.35 13.85 Q18.8 13.05 18.25 12.45 17.75 11.9 17.55 11.9 14.85 11.9 13.35 13.85 12.0 15.5 11.9 18.1 11.8 20.5 12.75 22.35 13.75 24.3 15.4 24.3 15.6 24.3 16.4 23.6 17.35 22.85 18.25 21.9 20.75 19.2 20.75 17.3 20.75 16.0 19.35 13.85 M3.9 80.05 Q6.2 80.4 7.25 80.4 7.6 80.4 8.45 79.85 9.35 79.3 10.0 79.3 10.55 79.3 11.35 79.55 12.4 79.85 12.4 80.25 12.4 82.7 9.6 83.5 8.4 83.85 6.4 83.85 5.6 83.85 3.7 83.2 1.8 82.55 0.35 81.8 -1.3 80.9 -1.45 80.35 -1.55 79.75 0.6 79.75 1.55 79.75 3.9 80.05" fill="#ffe700" fill-opacity="0.2509804" fill-rule="evenodd" stroke="none"/>
  </g>
</svg>
