<?xml version="1.0" encoding="UTF-8" standalone="no"?>
<svg xmlns:ffdec="https://www.free-decompiler.com/flash" xmlns:xlink="http://www.w3.org/1999/xlink" ffdec:objectType="shape" height="112.85px" width="47.9px" xmlns="http://www.w3.org/2000/svg">
  <g transform="matrix(1.0, 0.0, 0.0, 1.0, 26.75, 6.3)">
    <path d="M4.4 -3.35 Q5.45 -1.95 6.55 -1.3 8.2 -0.3 10.95 -0.2 21.15 0.2 21.15 7.95 21.15 11.5 14.5 15.65 12.3 17.05 9.8 18.25 L8.7 18.75 Q8.55 19.15 8.1 19.35 7.55 19.65 6.75 19.65 6.65 19.65 5.5 19.1 4.35 18.55 3.9 18.55 3.25 18.55 2.45 19.05 1.6 19.7 0.85 20.85 -0.95 23.9 -0.85 29.4 -0.85 30.0 -1.6 31.9 -1.9 32.7 -3.25 35.75 -5.6 41.25 -5.6 42.75 -5.6 43.85 -5.55 44.75 L-5.45 45.3 Q-5.05 47.1 -4.65 48.15 -3.55 50.85 -0.9 50.85 -0.3 50.85 1.0 50.2 2.35 49.55 2.5 49.55 L2.9 49.55 2.9 49.6 2.95 49.6 Q3.0 49.65 3.0 49.95 3.0 50.3 2.95 50.6 3.0 50.75 3.0 50.95 3.0 52.4 2.55 53.7 1.9 56.65 -1.4 58.35 -2.45 59.05 -3.55 59.6 -4.9 60.2 -5.55 60.2 -6.25 60.2 -7.2 60.0 -8.65 59.7 -9.55 59.15 L-9.9 58.9 -10.3 58.95 Q-10.65 58.95 -10.85 58.6 -11.05 58.35 -11.1 57.9 -11.65 57.2 -11.1 56.4 -11.0 55.3 -10.5 54.65 L-10.05 54.05 Q-9.85 53.7 -9.85 53.2 -9.85 51.45 -10.9 50.85 -11.45 50.6 -12.05 50.65 -12.45 50.65 -12.95 50.8 -13.3 51.2 -14.05 51.45 -14.7 51.65 -15.45 51.7 -17.35 51.7 -18.4 49.2 -19.9 45.6 -19.9 36.45 -19.9 31.25 -21.85 28.15 -22.7 28.15 -23.7 27.55 -24.95 26.8 -25.75 25.55 -27.35 23.0 -26.45 19.35 -26.6 18.35 -26.45 17.15 -26.05 14.5 -24.15 11.1 -22.55 8.4 -20.4 5.85 -18.5 3.6 -17.5 3.0 -15.8 2.1 -11.1 -0.9 -7.3 -3.35 -4.75 -4.65 -4.15 -5.05 -3.55 -5.35 -1.7 -6.3 -0.3 -6.3 1.6 -6.3 2.7 -5.4 3.25 -4.95 4.4 -3.35 M0.9 6.4 L0.85 6.2 -0.05 5.95 Q-0.65 5.8 -0.95 5.8 -2.15 5.8 -3.1 6.8 -3.9 7.7 -4.25 9.05 -4.55 10.35 -4.2 11.25 -4.0 11.85 -3.6 12.1 -3.3 12.6 -2.6 13.0 L-1.95 13.3 -1.9 13.35 -1.85 13.55 Q-1.8 13.85 -1.45 13.95 L-0.9 14.0 Q-0.5 14.1 -0.05 14.1 1.05 14.1 2.1 13.85 L2.85 13.7 Q4.35 13.3 5.05 12.6 7.65 11.35 7.65 9.15 7.65 8.25 7.35 7.95 7.1 7.8 6.7 7.8 6.4 7.8 5.65 7.95 L5.05 8.15 Q4.7 7.95 4.15 7.8 2.75 7.3 1.85 7.3 0.05 7.3 -0.75 8.15 -1.0 8.35 -1.1 8.6 L-1.25 8.55 Q-1.65 8.4 -1.95 8.4 -2.75 8.4 -3.1 9.0 L-3.25 9.3 Q-3.15 8.35 -1.6 7.4 -0.2 6.5 0.9 6.4 M16.65 6.0 Q15.75 6.0 15.0 6.75 14.35 7.45 14.15 8.4 13.9 9.35 14.25 10.0 14.65 10.75 15.6 10.75 16.25 10.75 16.95 10.2 18.05 9.3 18.05 7.6 18.05 7.4 17.55 6.75 17.05 6.0 16.65 6.0 M8.3 77.0 Q9.35 77.8 9.35 79.7 9.35 82.95 5.4 84.15 3.45 84.75 1.15 84.7 -3.3 84.7 -6.1 83.6 -8.45 82.65 -9.15 81.1 -9.75 79.7 -8.75 78.6 -7.7 77.5 -5.6 77.5 -3.9 77.5 -2.05 78.25 -0.45 79.05 -0.2 79.05 0.1 79.05 3.5 77.8 6.9 76.55 7.0 76.55 7.7 76.55 8.3 77.0 M-11.6 34.5 Q-12.0 34.3 -12.55 34.3 -13.4 34.3 -14.35 35.5 -15.25 36.6 -15.7 38.1 -16.2 39.7 -15.85 40.7 -15.45 41.9 -14.0 41.9 -13.2 41.7 -12.4 40.8 -10.85 39.05 -10.85 35.5 -10.85 34.75 -11.6 34.5 M-16.05 20.95 Q-16.05 21.05 -15.6 21.1 -14.75 21.65 -13.6 21.65 -12.9 21.65 -12.25 21.35 L-12.1 21.3 Q-11.0 21.15 -9.95 20.65 -8.25 19.8 -7.85 18.3 -7.75 18.15 -7.75 18.0 L-7.75 17.9 Q-7.7 17.55 -7.7 17.25 -7.7 15.8 -8.45 15.25 -8.9 14.9 -9.6 14.9 -10.1 14.9 -10.5 15.2 -10.9 15.55 -11.5 15.55 -11.95 15.55 -13.25 15.1 -14.6 14.65 -14.75 14.65 -16.05 14.65 -15.9 15.15 -16.7 15.35 -17.15 16.1 -17.7 17.05 -17.45 18.35 -17.15 19.7 -16.2 20.65 L-16.0 20.8 Q-16.1 20.9 -16.05 20.95 M-6.55 48.05 L-6.3 48.55 -6.45 47.85 -6.55 48.05" fill="#ffaa00" fill-opacity="0.2509804" fill-rule="evenodd" stroke="none"/>
    <path d="M4.9 -2.35 L5.4 -2.6 5.55 -2.7 5.6 -2.75 6.3 -3.1 Q7.45 -3.65 7.95 -3.65 L9.0 -3.45 10.05 -3.3 Q10.5 -3.3 11.65 -2.75 13.15 -2.0 14.4 -0.95 18.2 2.35 18.2 7.35 18.2 12.2 14.3 15.0 13.1 15.85 11.45 16.55 L9.75 17.25 Q9.2 17.6 7.55 18.45 6.05 19.35 5.35 20.15 4.75 20.85 4.3 22.2 4.05 22.85 3.6 24.65 3.2 26.15 2.9 26.7 L2.65 27.2 Q2.35 28.3 1.6 29.6 0.9 30.85 -1.1 33.7 -3.05 36.4 -3.85 37.85 -5.1 40.15 -5.1 41.9 -5.1 45.7 -2.75 46.75 -2.05 47.1 -1.15 47.1 L-0.4 47.05 0.5 47.05 0.6 47.1 Q0.75 47.2 0.75 47.5 0.75 47.8 0.4 48.1 0.35 48.4 -0.25 49.0 -0.55 49.35 -1.65 50.3 -3.7 52.05 -3.7 52.7 -3.7 54.15 -3.15 54.85 -2.95 55.1 -1.95 55.85 -1.15 56.4 -0.75 57.3 -0.25 58.55 -0.25 60.9 L-0.25 61.5 -1.9 61.75 Q-3.25 59.65 -5.3 59.1 -6.0 58.95 -7.6 58.85 -8.95 58.75 -9.65 58.45 -13.45 56.95 -11.75 50.25 -11.2 48.25 -10.1 45.45 L-9.3 43.3 Q-9.9 43.55 -10.75 43.75 -12.7 44.15 -14.0 44.15 -17.5 44.15 -19.7 43.1 -22.25 41.85 -22.65 39.3 -23.45 37.5 -23.05 35.0 -23.15 34.4 -23.15 33.8 -23.15 32.55 -22.8 31.2 L-22.65 30.65 Q-22.45 27.85 -21.9 24.35 L-21.3 20.75 Q-21.5 19.6 -21.85 18.4 -22.25 17.05 -23.25 14.65 -24.2 12.45 -24.4 11.5 -24.75 10.15 -24.4 9.2 -24.3 7.05 -23.15 5.35 -22.2 3.65 -21.0 2.45 -20.25 1.75 -18.85 0.8 -18.1 0.25 -14.75 -0.7 -11.4 -1.7 -10.5 -1.7 -8.5 -1.7 -2.2 -0.85 L2.1 -0.25 Q2.65 -1.05 4.9 -2.35 M7.5 9.75 Q8.3 10.25 8.6 10.8 L8.4 10.85 Q8.1 10.65 7.3 10.25 6.65 9.85 6.45 9.25 6.9 9.4 7.5 9.75 M8.65 5.7 L8.55 5.65 Q6.25 4.15 4.9 5.2 3.7 6.05 3.65 8.3 3.55 10.45 4.55 12.2 5.7 14.1 7.5 14.1 8.55 14.25 9.6 13.85 11.75 12.95 11.75 10.0 11.75 8.45 10.1 6.4 9.2 5.3 8.1 4.15 8.2 4.55 8.5 4.95 8.7 5.2 8.65 5.7 M5.7 68.75 Q7.1 67.55 8.35 66.65 8.5 66.7 8.55 66.75 8.6 66.8 8.65 67.0 L8.95 67.2 Q9.3 67.45 9.4 67.55 10.85 72.9 5.2 75.1 3.4 75.8 1.05 76.1 L-1.3 76.3 Q-2.75 76.3 -4.4 75.9 -6.75 75.35 -8.1 74.25 -12.1 71.05 -6.95 64.25 -6.8 64.45 -6.65 64.65 -6.4 63.7 -5.55 63.7 -4.55 63.7 -4.45 64.4 -4.4 64.8 -4.55 65.95 -4.55 69.5 -2.3 70.75 -1.15 71.35 0.15 71.3 1.45 71.3 2.3 71.05 3.1 70.8 3.9 70.2 L5.7 68.75 M6.75 71.5 L6.85 71.5 6.9 71.4 6.95 71.2 6.75 71.5 M3.05 105.2 Q3.05 105.65 2.95 106.15 L2.65 106.1 Q2.45 106.0 2.2 106.0 L0.1 106.25 -2.35 106.55 Q-5.1 106.55 -6.35 106.0 -7.4 105.55 -7.05 104.9 -6.65 104.25 -5.2 103.75 -3.6 103.25 -1.6 103.25 L-0.55 103.2 1.0 103.3 Q3.05 103.65 3.05 105.2 M-8.85 54.15 L-8.55 53.35 Q-8.55 53.0 -8.65 52.5 -8.75 51.95 -8.85 51.8 -10.1 52.5 -10.1 53.95 -10.1 54.5 -9.9 54.9 -9.65 55.3 -9.3 55.3 L-8.85 54.15 M-14.3 23.5 L-14.15 24.0 Q-14.45 25.45 -14.8 26.6 -15.2 27.95 -15.6 28.8 -16.5 29.1 -17.3 29.85 -18.35 30.9 -19.05 32.6 -19.6 33.85 -19.7 34.95 -20.05 35.5 -19.85 35.8 L-19.8 35.9 -19.85 36.05 Q-20.2 37.05 -19.45 37.15 L-19.35 37.3 Q-18.95 37.7 -17.75 37.7 -17.25 37.7 -16.3 37.35 -14.95 36.9 -13.85 36.1 -10.55 33.8 -10.55 29.7 -10.55 29.25 -10.6 28.9 -10.65 28.7 -10.75 28.5 -10.85 28.25 -11.0 28.05 L-11.2 27.9 Q-11.25 27.1 -11.4 26.35 -11.8 25.05 -12.1 24.2 -12.3 23.9 -12.45 23.6 L-12.55 23.3 -12.55 23.25 -12.65 23.05 -14.35 21.8 Q-14.7 21.6 -15.1 21.55 -14.85 21.85 -14.4 22.95 -14.4 23.15 -14.3 23.5 M-6.45 11.7 Q-7.6 11.7 -8.6 13.15 -9.5 14.45 -9.75 16.25 -10.0 18.15 -9.25 19.35 -8.45 20.8 -6.55 20.8 -6.0 20.75 -5.5 20.6 L-5.3 20.7 Q-4.2 21.2 -3.35 21.2 -2.7 21.2 -2.3 20.45 -1.45 18.95 -1.45 14.9 -1.45 13.5 -3.1 12.5 -4.45 11.65 -5.35 11.65 L-5.7 11.65 -6.2 11.75 -6.45 11.7 M-1.55 75.05 L-1.75 75.05 -3.0 75.0 -2.5 75.1 -1.55 75.05" fill="#ffe700" fill-opacity="0.5019608" fill-rule="evenodd" stroke="none"/>
  </g>
</svg>
