<?xml version="1.0" encoding="UTF-8" standalone="no"?>
<svg xmlns:ffdec="https://www.free-decompiler.com/flash" xmlns:xlink="http://www.w3.org/1999/xlink" ffdec:objectType="shape" height="107.65px" width="47.7px" xmlns="http://www.w3.org/2000/svg">
  <g transform="matrix(1.0, 0.0, 0.0, 1.0, 26.0, 6.5)">
    <path d="M4.0 -1.2 Q5.85 -1.95 7.65 -2.5 9.7 -3.1 10.8 -3.1 11.7 -3.1 13.0 -2.65 14.45 -2.2 15.8 -1.35 19.3 0.8 20.05 3.95 L20.05 4.2 Q20.25 5.0 20.25 5.8 20.25 7.45 20.0 8.85 L20.0 9.3 19.85 9.65 Q18.85 14.1 15.4 16.55 13.75 17.7 11.75 18.25 L11.4 18.35 Q10.55 19.0 9.9 19.6 5.9 23.1 4.25 27.25 3.45 29.35 -0.7 34.15 -2.15 35.9 -3.5 37.35 L-4.3 38.15 Q-4.7 39.25 -4.7 39.5 -4.7 42.5 -3.85 43.85 -3.2 44.95 -1.85 45.15 L-0.7 45.25 0.8 45.25 Q0.9 45.2 1.2 45.2 1.5 45.2 1.8 45.5 2.2 45.7 2.45 45.95 L2.25 46.1 Q2.5 46.5 2.5 46.7 2.5 48.05 1.6 49.2 1.1 49.85 -0.2 50.95 L-0.6 51.3 Q-1.75 52.4 -2.1 53.25 -2.15 53.55 -2.15 53.85 L-2.15 54.05 Q-2.1 54.35 -2.0 54.75 L-2.1 54.75 -2.1 55.15 -1.9 55.55 Q-1.6 56.35 -1.55 59.55 -1.0 60.35 -1.0 61.3 -1.0 61.65 -1.0 62.2 -1.05 62.65 -0.9 62.9 -0.75 63.15 -0.2 63.85 0.35 64.5 0.55 64.65 0.75 64.8 1.9 65.25 3.05 65.7 3.2 65.7 3.75 65.7 4.2 65.55 5.3 64.75 6.1 62.75 L6.7 61.15 Q6.75 60.35 6.75 59.45 6.75 58.95 7.15 58.7 7.35 58.55 7.6 58.55 8.0 58.55 8.75 59.85 9.5 61.2 9.5 62.2 L9.5 62.8 9.55 62.95 9.55 64.05 Q10.2 70.0 6.1 71.95 4.75 72.6 2.9 72.8 2.35 72.85 0.85 72.85 -1.05 72.85 -2.85 72.35 -4.95 71.8 -5.95 70.75 -7.75 69.6 -8.35 67.9 -9.5 66.5 -9.85 65.85 -10.15 65.25 -10.1 64.85 -10.05 64.55 -9.7 64.2 L-8.9 63.45 Q-8.4 62.9 -8.0 62.15 -6.95 60.15 -6.95 56.3 -6.95 55.95 -7.05 55.6 -7.35 55.1 -7.85 54.75 -11.4 54.7 -12.95 52.45 -15.45 48.75 -11.8 39.95 -12.5 40.45 -13.6 40.85 -15.1 41.4 -16.6 41.6 -17.55 41.6 -18.3 41.4 L-18.65 41.45 Q-20.05 41.45 -21.3 40.3 -22.6 39.1 -23.55 36.85 -24.1 35.55 -24.0 33.6 L-23.95 33.15 Q-24.0 32.2 -23.85 31.3 -23.75 30.3 -23.45 29.5 L-23.35 29.05 Q-22.7 25.2 -22.4 22.65 -21.95 18.3 -21.95 13.8 -21.95 12.4 -22.55 8.95 -23.2 5.5 -23.2 5.35 -23.2 4.0 -22.7 2.65 L-22.3 1.8 Q-21.7 -0.2 -20.25 -1.05 -17.7 -2.15 -16.15 -2.65 -13.85 -3.35 -12.15 -3.35 -9.3 -3.35 -3.15 -1.95 L2.6 -0.55 Q3.2 -0.85 4.0 -1.2 M0.6 17.9 L0.5 17.9 -1.3 18.45 Q-2.5 18.85 -3.1 18.85 -4.6 18.85 -5.85 18.1 -6.55 17.65 -7.0 17.05 -6.0 17.55 -4.5 17.55 -3.5 17.75 -2.55 17.3 -0.6 16.45 -0.6 13.3 -0.6 11.8 -2.7 10.5 -4.4 9.45 -5.7 9.35 -5.65 9.3 -5.65 9.2 -5.65 9.1 -5.75 9.1 -6.3 9.5 -6.8 10.05 L-7.05 10.05 Q-8.65 10.05 -9.35 11.65 -9.95 13.1 -9.6 15.15 -9.2 17.25 -7.9 18.65 -6.5 20.25 -4.5 20.25 L-3.0 20.2 Q-2.65 20.15 -2.4 19.95 L-1.55 19.25 Q-0.75 18.65 0.6 17.9 M15.45 7.0 Q15.25 6.35 14.9 5.65 14.5 9.25 13.75 10.2 L13.45 10.45 Q13.65 9.95 13.65 9.35 13.65 6.75 11.3 5.5 9.95 4.8 8.65 4.8 7.1 4.8 6.35 5.95 6.2 6.15 6.1 6.35 4.9 7.0 4.9 7.95 4.95 8.95 6.4 10.1 6.75 10.4 7.15 10.65 L7.4 10.85 Q8.3 11.6 9.45 11.85 10.95 12.55 11.65 12.55 12.8 12.65 13.8 12.35 15.85 11.7 15.85 9.45 15.85 8.15 15.45 7.0 M4.25 96.0 Q4.9 96.45 4.9 97.5 4.9 99.35 2.2 100.45 0.8 101.0 -0.6 101.15 -3.7 101.15 -5.95 100.4 -7.85 99.75 -8.65 98.7 -9.35 97.75 -8.7 97.05 -8.0 96.25 -6.15 96.25 -5.75 96.25 -3.2 96.7 L-0.7 97.1 Q-0.45 97.1 1.2 96.35 2.8 95.65 3.1 95.65 3.8 95.65 4.25 96.0 M-10.1 47.2 Q-10.8 48.2 -11.0 49.3 -11.3 50.7 -10.25 50.7 -9.95 50.7 -9.65 50.35 -9.1 49.7 -9.1 48.2 -9.1 48.05 -9.5 47.65 -9.9 47.25 -10.1 47.2 M-18.0 24.05 Q-18.65 25.2 -18.65 26.6 -18.65 28.2 -17.8 29.15 -17.35 29.7 -16.7 30.0 -15.85 31.2 -14.35 31.2 -13.6 31.05 -12.85 30.35 -11.35 28.85 -11.35 25.75 -11.35 24.9 -11.85 24.25 L-11.9 22.65 -12.0 22.7 -12.1 23.95 Q-12.35 23.7 -12.65 23.45 -13.05 23.2 -13.4 23.05 -13.85 22.7 -14.3 22.7 -14.6 22.7 -14.65 22.8 -15.15 22.9 -15.55 23.15 L-15.5 23.05 -15.85 23.0 -16.4 22.9 Q-17.3 22.9 -18.0 24.05" fill="#ffaa00" fill-opacity="0.2509804" fill-rule="evenodd" stroke="none"/>
    <path d="M4.85 -1.95 Q6.7 -1.1 7.5 -1.1 7.85 -1.1 9.3 -1.4 10.75 -1.7 11.0 -1.7 11.45 -1.7 13.0 -1.0 14.95 -0.15 16.65 1.05 21.7 4.5 21.7 8.6 21.7 10.5 20.7 12.05 L20.75 12.25 Q20.75 15.05 15.85 17.25 14.85 17.75 11.9 18.85 9.65 19.75 8.85 20.25 8.05 20.75 5.7 21.75 3.85 22.5 2.8 23.55 2.5 23.8 0.7 28.85 L0.0 30.85 Q-0.15 34.4 -2.7 36.7 L-3.45 37.3 -3.45 37.35 Q-3.45 38.0 -3.95 38.4 -4.7 39.0 -4.95 39.35 L-5.0 44.6 Q-5.05 45.7 -4.45 46.4 -3.95 46.95 -3.35 46.95 -3.0 46.95 -1.45 46.35 0.05 45.7 0.1 45.7 L0.45 45.75 1.05 45.65 Q1.5 45.65 2.2 46.1 3.05 46.55 3.8 47.3 L4.35 47.9 Q5.4 48.55 5.4 49.35 L5.35 49.65 Q5.75 50.65 5.75 51.8 L5.75 52.25 Q6.2 53.9 6.2 55.7 L6.2 55.75 6.6 55.65 Q6.4 56.4 6.0 57.15 5.85 57.7 5.6 58.0 5.15 61.3 1.6 63.2 0.3 63.9 -1.3 64.35 -2.45 64.65 -2.85 64.65 -3.9 64.65 -5.3 64.25 -7.0 63.75 -8.35 62.9 -11.85 60.6 -11.1 56.7 -11.0 55.7 -10.75 54.45 -10.4 52.5 -10.3 51.6 -11.4 51.55 -12.35 51.3 L-12.8 51.3 Q-13.8 51.3 -14.85 50.4 -15.2 50.05 -15.55 49.6 -18.6 47.0 -18.75 41.35 -19.05 39.65 -19.15 37.7 -19.55 37.2 -19.85 36.25 L-20.2 35.3 Q-20.9 34.3 -21.65 33.05 -22.45 31.6 -23.15 30.2 L-23.75 29.65 Q-26.75 26.7 -25.7 23.8 -24.95 18.25 -24.3 14.55 -24.25 13.45 -24.15 12.45 -24.7 10.8 -24.65 9.15 -24.55 6.95 -23.3 4.95 -22.2 3.15 -20.5 2.0 -19.25 1.15 -18.1 0.9 -17.25 -0.2 -16.25 -1.45 -15.2 -2.75 -15.0 -2.95 -13.65 -4.65 -11.35 -5.65 -9.3 -6.5 -7.35 -6.5 -4.45 -6.5 1.05 -3.8 3.75 -2.45 4.85 -1.95 M3.3 12.4 Q2.55 12.05 2.1 11.35 1.15 9.95 1.65 7.7 1.2 6.6 0.25 5.95 -0.25 5.65 -1.15 5.3 -1.9 5.0 -2.0 4.85 L-2.25 4.9 Q-2.25 5.0 -2.1 5.15 L-1.95 5.4 Q-3.35 6.6 -3.5 8.05 -3.65 9.1 -3.15 10.15 -3.05 11.1 -2.65 12.2 -1.9 14.4 -0.4 15.85 1.25 17.45 3.25 17.45 3.45 17.45 4.15 17.2 5.0 16.85 5.7 16.35 7.9 14.85 7.9 12.8 7.9 12.25 6.9 10.15 L5.7 7.9 Q5.6 7.95 5.55 8.2 5.8 8.65 5.9 9.05 6.3 9.55 6.3 9.95 6.3 11.6 5.45 12.35 5.0 12.7 4.55 12.7 3.95 12.7 3.3 12.4 M12.4 3.3 Q12.5 3.55 12.45 3.65 10.6 5.1 10.45 6.9 10.35 8.35 11.45 9.95 12.35 11.25 13.75 12.25 15.05 13.15 15.7 13.15 16.15 13.3 16.6 13.15 17.5 12.85 17.5 11.3 17.5 8.25 14.8 4.9 14.2 4.15 13.3 3.15 13.0 3.3 12.65 3.3 L12.4 3.3 M2.8 47.25 L2.9 47.25 2.75 47.05 2.8 47.25 M0.7 48.1 Q-2.0 48.1 -3.1 49.65 -4.0 51.05 -3.5 53.15 -3.0 55.1 -1.65 56.6 -0.15 58.2 1.4 58.2 2.5 58.1 3.55 57.4 5.6 56.0 5.6 52.75 5.6 51.7 5.1 50.5 L5.05 50.5 4.7 50.55 Q4.15 50.55 3.0 49.9 1.8 49.2 0.8 48.1 L0.7 48.1 M4.25 84.15 Q4.95 83.8 5.15 83.7 5.75 83.5 6.55 83.5 8.3 83.5 8.3 85.95 8.3 88.1 5.65 89.05 4.3 89.5 3.0 89.55 2.0 89.55 0.75 89.3 L-1.35 88.75 Q-4.15 88.0 -6.0 88.15 -8.65 88.4 -9.45 87.65 -10.1 87.0 -9.35 85.8 -8.7 84.8 -7.35 83.9 -6.05 83.0 -5.15 83.0 -2.8 83.0 -1.3 83.9 L-0.3 84.55 Q0.3 84.8 0.95 84.8 3.0 84.8 4.25 84.15 M6.9 85.65 L6.9 85.55 Q6.75 86.15 6.45 86.6 6.8 86.15 6.9 85.65 M-14.1 40.1 L-14.6 40.6 Q-14.85 40.95 -14.85 41.55 -14.85 43.35 -14.1 44.55 -13.4 45.7 -12.5 45.7 -12.3 45.7 -11.85 45.0 -11.35 44.25 -11.35 43.65 -11.85 42.9 -12.4 41.65 -13.35 39.35 -13.45 36.95 -13.45 39.3 -14.1 40.1 M-12.6 16.5 Q-13.05 16.35 -13.5 16.2 -14.35 16.2 -14.65 16.7 -14.8 16.9 -14.8 17.1 L-15.45 17.1 Q-17.1 17.1 -17.65 18.1 -18.15 18.95 -17.65 20.25 -17.2 21.55 -16.05 22.45 -14.8 23.45 -13.35 23.45 -12.45 23.6 -11.6 23.3 -9.9 22.75 -9.9 20.65 -9.9 19.55 -10.35 18.65 L-10.45 18.45 Q-10.3 18.2 -10.3 17.8 -10.3 17.05 -11.4 16.7 -11.95 16.5 -12.55 16.5 L-12.6 16.5" fill="#ffe700" fill-opacity="0.5019608" fill-rule="evenodd" stroke="none"/>
  </g>
</svg>
