<?xml version="1.0" encoding="UTF-8" standalone="no"?>
<svg xmlns:ffdec="https://www.free-decompiler.com/flash" xmlns:xlink="http://www.w3.org/1999/xlink" ffdec:objectType="shape" height="117.65px" width="47.7px" xmlns="http://www.w3.org/2000/svg">
  <g transform="matrix(1.0, 0.0, 0.0, 1.0, 26.0, 6.5)">
    <path d="M4.85 -1.95 Q6.7 -1.1 7.5 -1.1 7.85 -1.1 9.3 -1.4 10.75 -1.7 11.0 -1.7 11.45 -1.7 13.0 -1.0 14.95 -0.15 16.65 1.05 21.7 4.5 21.7 8.6 21.7 10.5 20.7 12.05 L20.75 12.25 Q20.75 15.05 15.85 17.25 14.85 17.75 11.9 18.85 9.65 19.75 8.85 20.25 8.05 20.75 5.7 21.75 3.85 22.5 2.8 23.55 2.5 23.8 0.7 28.85 L0.0 30.85 Q-0.15 34.4 -2.7 36.7 L-3.45 37.3 -3.45 37.35 Q-3.45 38.0 -3.95 38.4 -4.7 39.0 -4.95 39.35 L-5.0 44.6 Q-5.05 45.7 -4.45 46.4 -3.95 46.95 -3.35 46.95 -3.0 46.95 -1.45 46.35 0.05 45.7 0.1 45.7 L0.45 45.75 1.05 45.65 Q1.5 45.65 2.2 46.1 3.05 46.55 3.8 47.3 L4.35 47.9 Q5.4 48.55 5.4 49.35 L5.35 49.65 Q5.75 50.65 5.75 51.8 L5.75 52.25 Q6.2 53.9 6.2 55.7 L6.2 55.75 6.6 55.65 Q6.4 56.4 6.0 57.15 5.85 57.7 5.6 58.0 5.15 61.3 1.6 63.2 0.3 63.9 -1.3 64.35 -2.45 64.65 -2.85 64.65 -3.9 64.65 -5.3 64.25 -7.0 63.75 -8.35 62.9 -11.85 60.6 -11.1 56.7 -11.0 55.7 -10.75 54.45 -10.4 52.5 -10.3 51.6 -11.4 51.55 -12.35 51.3 L-12.8 51.3 Q-13.8 51.3 -14.85 50.4 -15.2 50.05 -15.55 49.6 -18.6 47.0 -18.75 41.35 -19.05 39.65 -19.15 37.7 -19.55 37.2 -19.85 36.25 L-20.2 35.3 Q-20.9 34.3 -21.65 33.05 -22.45 31.6 -23.15 30.2 L-23.75 29.65 Q-26.75 26.7 -25.7 23.8 -24.95 18.25 -24.3 14.55 -24.25 13.45 -24.15 12.45 -24.7 10.8 -24.65 9.15 -24.55 6.95 -23.3 4.95 -22.2 3.15 -20.5 2.0 -19.25 1.15 -18.1 0.9 -17.25 -0.2 -16.25 -1.45 -15.2 -2.75 -15.0 -2.95 -13.65 -4.65 -11.35 -5.65 -9.3 -6.5 -7.35 -6.5 -4.45 -6.5 1.05 -3.8 3.75 -2.45 4.85 -1.95 M3.3 12.4 Q2.55 12.05 2.1 11.35 1.15 9.95 1.65 7.7 1.2 6.6 0.25 5.95 -0.25 5.65 -1.15 5.3 -1.9 5.0 -2.0 4.85 L-2.25 4.9 Q-2.25 5.0 -2.1 5.15 L-1.95 5.4 Q-3.35 6.6 -3.5 8.05 -3.65 9.1 -3.15 10.15 -3.05 11.1 -2.65 12.2 -1.9 14.4 -0.4 15.85 1.25 17.45 3.25 17.45 3.45 17.45 4.15 17.2 5.0 16.85 5.7 16.35 7.9 14.85 7.9 12.8 7.9 12.25 6.9 10.15 L5.7 7.9 Q5.6 7.95 5.55 8.2 5.8 8.65 5.9 9.05 6.3 9.55 6.3 9.95 6.3 11.6 5.45 12.35 5.0 12.7 4.55 12.7 3.95 12.7 3.3 12.4 M12.4 3.3 Q12.5 3.55 12.45 3.65 10.6 5.1 10.45 6.9 10.35 8.35 11.45 9.95 12.35 11.25 13.75 12.25 15.05 13.15 15.7 13.15 16.15 13.3 16.6 13.15 17.5 12.85 17.5 11.3 17.5 8.25 14.8 4.9 14.2 4.15 13.3 3.15 13.0 3.3 12.65 3.3 L12.4 3.3 M2.8 47.25 L2.9 47.25 2.75 47.05 2.8 47.25 M0.7 48.1 Q-2.0 48.1 -3.1 49.65 -4.0 51.05 -3.5 53.15 -3.0 55.1 -1.65 56.6 -0.15 58.2 1.4 58.2 2.5 58.1 3.55 57.4 5.6 56.0 5.6 52.75 5.6 51.7 5.1 50.5 L5.05 50.5 4.7 50.55 Q4.15 50.55 3.0 49.9 1.8 49.2 0.8 48.1 L0.7 48.1 M4.25 84.15 Q4.95 83.8 5.15 83.7 5.75 83.5 6.55 83.5 8.3 83.5 8.3 85.95 8.3 88.1 5.65 89.05 4.3 89.5 3.0 89.55 2.0 89.55 0.75 89.3 L-1.35 88.75 Q-4.15 88.0 -6.0 88.15 -8.65 88.4 -9.45 87.65 -10.1 87.0 -9.35 85.8 -8.7 84.8 -7.35 83.9 -6.05 83.0 -5.15 83.0 -2.8 83.0 -1.3 83.9 L-0.3 84.55 Q0.3 84.8 0.95 84.8 3.0 84.8 4.25 84.15 M6.9 85.65 L6.9 85.55 Q6.75 86.15 6.45 86.6 6.8 86.15 6.9 85.65 M-14.1 40.1 L-14.6 40.6 Q-14.85 40.95 -14.85 41.55 -14.85 43.35 -14.1 44.55 -13.4 45.7 -12.5 45.7 -12.3 45.7 -11.85 45.0 -11.35 44.25 -11.35 43.65 -11.85 42.9 -12.4 41.65 -13.35 39.35 -13.45 36.95 -13.45 39.3 -14.1 40.1 M-12.6 16.5 Q-13.05 16.35 -13.5 16.2 -14.35 16.2 -14.65 16.7 -14.8 16.9 -14.8 17.1 L-15.45 17.1 Q-17.1 17.1 -17.65 18.1 -18.15 18.95 -17.65 20.25 -17.2 21.55 -16.05 22.45 -14.8 23.45 -13.35 23.45 -12.45 23.6 -11.6 23.3 -9.9 22.75 -9.9 20.65 -9.9 19.55 -10.35 18.65 L-10.45 18.45 Q-10.3 18.2 -10.3 17.8 -10.3 17.05 -11.4 16.7 -11.95 16.5 -12.55 16.5 L-12.6 16.5" fill="#ffaa00" fill-opacity="0.2509804" fill-rule="evenodd" stroke="none"/>
    <path d="M10.5 -2.45 Q20.0 1.1 20.0 7.0 20.0 12.05 13.8 16.45 11.7 17.95 9.3 19.05 7.35 19.95 6.75 19.95 L5.7 19.8 Q4.85 19.6 4.6 19.6 3.95 19.6 3.1 20.75 3.05 25.75 1.85 29.5 0.9 32.4 -1.0 35.1 L-2.5 37.15 Q-3.4 38.3 -3.85 39.0 -5.15 41.05 -5.15 43.2 -5.15 44.8 -4.3 46.2 L-3.35 46.6 Q-1.65 47.3 -1.45 47.3 -1.2 47.3 -1.0 47.45 -0.7 47.65 -0.7 48.15 -0.7 48.6 -1.0 48.9 -1.15 49.05 -1.55 49.25 L-2.0 49.45 -1.55 50.65 Q-1.25 51.45 -0.85 52.0 L-0.1 52.1 Q0.35 52.1 1.2 51.55 2.05 51.05 2.3 51.0 L2.55 50.6 2.75 50.35 Q2.9 50.15 2.95 50.15 L3.25 50.2 Q3.45 50.2 3.65 50.4 L4.1 50.85 4.1 54.9 3.95 55.2 Q3.85 56.1 3.25 56.85 L3.25 56.9 Q3.15 57.05 3.0 57.15 2.7 57.45 2.3 57.75 1.75 58.15 1.1 58.45 0.6 58.65 0.5 58.65 L-3.0 58.25 -4.7 58.45 -6.3 58.7 Q-6.5 58.85 -6.8 59.0 -7.3 59.15 -7.7 59.15 -8.9 59.15 -9.5 58.4 -9.95 57.9 -10.4 56.3 -11.05 54.05 -11.45 53.05 -12.05 51.55 -12.85 50.15 L-12.95 50.2 Q-13.4 50.2 -13.85 50.0 L-14.25 50.05 Q-15.8 50.05 -16.95 47.65 -17.35 46.8 -17.7 45.65 -18.4 44.25 -18.75 42.75 -19.15 41.15 -19.1 39.8 -19.6 38.45 -20.55 37.25 -21.1 36.95 -21.9 36.05 -22.55 35.4 -23.05 34.6 -23.55 34.45 -24.0 33.75 -24.7 32.6 -24.8 30.6 -25.05 29.5 -25.0 28.45 -24.95 26.45 -23.9 24.8 -23.95 20.2 -24.75 17.05 -25.0 16.9 -25.2 16.5 -25.55 15.9 -25.65 14.85 -25.85 12.4 -24.8 9.4 -24.25 8.25 -23.35 7.05 -22.2 5.65 -21.5 4.75 -20.25 3.1 -18.3 1.9 -16.0 0.7 -14.9 0.05 -12.95 -1.05 -7.8 -2.65 -7.1 -3.3 -5.05 -3.95 -3.75 -4.4 -2.25 -4.7 -0.9 -5.0 -0.3 -5.0 0.75 -5.0 3.6 -4.4 7.35 -3.65 10.5 -2.45 M7.15 6.25 Q6.7 5.55 6.1 5.25 5.15 4.8 3.25 4.8 1.3 4.8 0.3 6.2 -0.65 7.5 -0.35 9.25 -0.1 11.1 1.3 12.35 2.85 13.75 5.2 13.75 6.35 13.45 7.45 12.9 9.6 11.8 9.6 10.35 9.6 9.8 8.3 8.85 L7.7 8.45 8.9 8.5 Q9.95 8.5 10.35 7.7 L10.75 7.45 10.65 7.35 10.45 7.6 10.4 7.65 10.55 7.15 10.45 7.15 Q9.1 7.3 7.5 6.75 L7.15 6.25 M16.9 6.25 Q16.75 6.1 16.6 5.8 16.45 6.4 15.9 7.4 L15.1 8.9 Q14.7 9.7 14.75 10.05 14.85 10.55 15.65 10.55 L15.85 10.35 16.5 9.85 Q17.45 8.95 17.45 7.85 17.45 6.7 17.15 6.45 17.1 6.4 16.9 6.25 M8.9 70.95 Q9.4 70.95 10.3 71.7 11.35 72.55 11.35 73.5 11.35 77.8 7.15 79.8 5.75 80.45 4.1 80.75 3.05 81.0 2.45 81.0 0.65 81.0 -1.05 80.55 -3.65 79.9 -5.1 79.7 -6.5 79.45 -7.75 78.15 -8.85 77.0 -9.35 75.4 -9.85 73.85 -9.5 72.8 -9.05 71.65 -7.65 71.65 -5.85 72.35 -3.65 73.1 0.75 74.55 3.2 74.55 5.15 74.55 6.7 72.75 7.45 71.85 7.75 71.5 8.35 70.95 8.9 70.95 M-11.65 28.1 Q-11.85 27.75 -12.1 27.45 -12.75 26.6 -13.4 26.05 -14.0 25.55 -14.3 25.55 -15.2 25.55 -13.3 29.55 L-13.25 29.7 -13.35 29.65 Q-13.85 29.5 -14.7 29.5 -16.6 29.5 -17.65 30.9 -18.6 32.15 -18.6 33.95 -18.6 35.75 -17.7 37.05 -16.7 38.45 -15.1 38.45 -13.9 38.35 -12.65 37.75 -10.1 36.55 -10.1 34.0 -10.1 32.8 -10.3 32.1 L-10.5 31.65 Q-10.55 30.1 -11.35 28.6 -11.45 27.85 -11.45 26.95 L-11.45 26.8 Q-11.6 27.45 -11.65 28.1 M-2.8 109.05 Q-1.6 108.7 -1.0 108.7 -0.55 108.7 -0.2 108.95 0.2 109.2 0.2 109.6 0.2 109.95 -1.2 110.6 L-2.45 111.15 Q-4.6 111.15 -5.1 110.8 -5.5 110.45 -4.7 109.9 -4.0 109.45 -2.8 109.05" fill="#ffe700" fill-opacity="0.5019608" fill-rule="evenodd" stroke="none"/>
  </g>
</svg>
