<?xml version="1.0" encoding="UTF-8" standalone="no"?>
<svg xmlns:ffdec="https://www.free-decompiler.com/flash" xmlns:xlink="http://www.w3.org/1999/xlink" ffdec:objectType="shape" height="15.9px" width="14.5px" xmlns="http://www.w3.org/2000/svg">
  <g transform="matrix(1.0, 0.0, 0.0, 1.0, 7.1, 15.9)">
    <path d="M2.15 -13.95 L2.3 -13.95 2.35 -13.75 2.4 -13.8 Q2.55 -13.9 2.8 -13.7 3.25 -13.2 3.5 -12.25 3.75 -12.15 4.05 -12.1 4.35 -11.45 4.75 -11.2 L5.05 -11.0 5.35 -10.75 5.45 -10.45 6.05 -10.4 6.5 -10.4 Q6.35 -10.2 6.2 -9.75 L6.15 -9.4 Q6.0 -9.1 5.85 -8.65 L5.85 -8.6 5.9 -8.2 5.9 -7.35 6.0 -7.2 5.9 -7.0 5.85 -7.0 5.8 -6.65 5.75 -6.4 5.85 -6.3 Q5.75 -6.0 5.7 -5.6 L5.5 -5.75 5.55 -5.55 Q5.55 -5.4 5.45 -5.2 5.3 -5.0 5.1 -5.0 4.6 -5.0 4.1 -5.25 L4.1 -5.2 Q4.25 -5.15 4.0 -5.15 3.95 -5.15 3.9 -5.2 3.65 -5.1 3.4 -5.0 L3.3 -4.9 3.3 -4.85 Q3.8 -5.05 4.15 -5.05 4.55 -5.0 4.65 -4.8 4.45 -4.4 4.35 -3.9 4.2 -3.25 4.3 -2.4 4.15 -1.95 3.75 -1.45 3.4 -1.45 2.7 -1.3 L2.7 -1.25 2.65 -1.3 2.55 -1.2 2.8 -0.8 Q2.8 -0.6 2.6 -0.4 2.3 -0.05 1.7 -0.05 1.2 -0.05 0.8 -0.45 0.55 -0.15 0.25 -0.15 -1.05 -0.15 -1.7 -0.8 -2.05 -1.15 -2.2 -1.6 L-2.25 -1.65 -2.45 -1.5 Q-2.6 -1.45 -2.75 -1.45 -3.35 -1.45 -3.6 -1.85 -3.7 -2.05 -3.7 -2.3 L-3.7 -2.4 Q-3.75 -2.5 -3.75 -2.65 L-4.15 -2.6 Q-5.95 -2.6 -6.4 -2.75 -6.8 -2.85 -6.8 -3.35 -6.8 -4.1 -6.2 -5.05 L-5.8 -5.6 Q-5.8 -6.0 -5.5 -6.3 L-5.15 -7.7 Q-4.9 -8.7 -4.65 -9.4 L-4.6 -9.45 -4.6 -9.5 -4.35 -10.0 -4.55 -9.9 Q-4.5 -10.1 -4.5 -10.25 L-4.6 -10.4 -4.7 -10.4 Q-4.7 -11.0 -4.6 -11.4 -4.1 -11.6 -3.7 -11.9 L-3.4 -11.8 -3.3 -11.85 -3.35 -12.0 Q-3.35 -12.15 -3.0 -12.2 L-2.85 -12.1 -2.7 -12.25 Q-1.75 -12.9 -1.65 -13.5 L-1.6 -13.55 Q-1.0 -13.7 -0.5 -13.65 0.15 -14.1 0.6 -14.3 0.7 -14.65 1.0 -14.8 L1.2 -14.8 1.2 -14.9 1.25 -14.8 Q1.65 -14.75 2.15 -13.95" fill="#ccfffe" fill-opacity="0.7529412" fill-rule="evenodd" stroke="none"/>
    <path d="M1.7 -15.5 L1.85 -15.4 Q2.2 -15.3 2.4 -14.95 L2.55 -14.95 2.75 -14.4 Q3.2 -13.75 3.4 -13.2 3.6 -12.85 3.8 -12.65 4.4 -11.95 5.2 -11.5 L5.85 -11.35 7.3 -11.2 7.35 -11.2 Q7.4 -11.15 7.4 -10.95 7.4 -10.9 7.2 -10.55 6.95 -9.65 6.65 -7.75 6.3 -5.55 6.15 -5.55 6.0 -5.55 5.85 -5.6 5.7 -5.25 5.4 -5.0 L5.0 -4.75 5.05 -4.55 Q4.95 -4.4 4.75 -4.2 L5.0 -3.3 Q5.25 -2.25 5.25 -1.9 L5.25 -1.45 Q5.15 -1.1 4.95 -0.9 4.85 -1.05 4.7 -1.3 L4.7 -1.25 4.45 -0.8 4.35 -0.95 Q3.85 -0.3 3.05 -0.1 2.45 0.05 1.45 0.0 L0.3 -0.1 -0.55 -0.25 -1.8 -0.35 -3.85 -1.45 -5.7 -2.4 -6.15 -2.5 Q-6.6 -2.55 -6.9 -2.7 L-6.95 -2.7 -7.05 -2.75 -7.1 -2.95 -7.0 -2.9 -7.0 -3.3 -6.9 -3.65 -6.95 -3.75 Q-6.95 -4.15 -6.05 -7.15 -5.3 -9.75 -4.75 -11.1 L-4.8 -11.1 -4.95 -11.2 -4.8 -11.35 -4.85 -11.35 -4.5 -11.6 -4.5 -11.7 -4.4 -11.7 Q-2.85 -13.0 -1.9 -13.7 0.1 -15.15 1.95 -15.9 L1.95 -15.8 1.7 -15.5 M1.3 -14.5 Q0.8 -14.5 -0.85 -13.45 L-1.05 -13.3 Q-1.7 -12.85 -2.45 -12.4 L-2.4 -12.4 -3.0 -12.05 -4.35 -11.25 -4.45 -10.65 -4.45 -10.55 Q-4.15 -10.75 -3.85 -10.85 -2.75 -11.15 -2.75 -10.35 L-2.75 -10.3 Q-2.6 -9.85 -2.55 -9.15 L-2.55 -8.4 -2.5 -8.1 -2.5 -8.05 -2.15 -7.5 Q-1.65 -7.9 -0.6 -8.5 0.85 -9.4 1.65 -9.75 L1.65 -9.8 Q1.55 -10.3 1.45 -11.15 1.25 -12.85 1.25 -13.35 1.25 -13.6 1.35 -14.0 1.4 -14.3 1.5 -14.45 1.4 -14.5 1.3 -14.5 M2.8 -13.15 L2.7 -13.3 Q2.65 -12.65 2.5 -11.8 L2.4 -11.15 2.4 -11.05 Q2.4 -10.85 2.3 -10.5 L2.2 -10.1 2.2 -9.3 3.7 -8.25 Q4.95 -7.35 5.4 -6.8 5.6 -7.9 5.85 -8.65 L6.05 -9.2 6.15 -9.5 6.2 -9.75 Q6.35 -10.2 6.5 -10.4 L6.05 -10.4 Q4.55 -10.4 3.35 -12.25 3.05 -12.7 2.8 -13.15 M1.05 -8.05 Q0.45 -7.8 -0.3 -7.6 L-0.4 -7.55 -1.2 -6.95 Q-0.4 -6.65 0.35 -5.5 0.85 -4.7 1.15 -3.9 1.55 -4.15 2.25 -4.45 L2.5 -4.5 3.4 -5.0 Q4.3 -5.4 4.7 -5.65 4.9 -5.85 5.1 -6.05 4.55 -6.25 3.65 -7.05 L3.25 -7.3 1.7 -8.35 Q1.45 -8.2 1.05 -8.05 M4.25 -3.35 L4.25 -3.6 Q4.25 -3.8 4.3 -3.95 3.85 -3.7 3.25 -3.5 L2.5 -3.25 1.45 -2.5 1.45 -2.4 Q1.45 -2.3 1.4 -2.25 1.4 -2.2 1.3 -2.15 L1.3 -1.95 1.2 -2.15 1.15 -2.15 1.05 -2.3 Q0.75 -2.35 0.7 -2.5 0.65 -2.55 0.65 -2.65 L0.65 -2.75 Q-1.05 -4.95 -1.65 -6.3 L-1.8 -6.55 Q-1.9 -5.95 -2.2 -4.85 -2.65 -3.3 -3.05 -2.5 L-2.95 -2.2 -2.8 -2.15 Q-1.7 -0.95 0.15 -0.85 L2.35 -1.25 Q3.3 -1.45 3.75 -1.45 4.25 -2.1 4.35 -2.6 L4.3 -3.25 4.25 -3.3 4.25 -3.35 M-4.65 -9.45 Q-4.9 -8.3 -5.25 -7.15 -5.6 -5.85 -6.05 -4.55 L-6.5 -3.15 -6.3 -3.1 -6.45 -3.2 -6.4 -3.3 -6.35 -3.35 Q-6.1 -3.25 -4.75 -2.8 L-3.9 -2.75 -3.8 -2.95 -3.75 -3.0 Q-3.7 -4.0 -3.35 -5.05 -3.0 -5.95 -2.45 -6.65 -3.25 -6.75 -3.35 -8.0 -3.35 -8.45 -3.3 -8.95 L-3.25 -9.35 Q-3.25 -9.45 -3.4 -9.7 -3.5 -9.95 -3.65 -9.95 -3.75 -9.95 -4.1 -9.75 L-4.65 -9.45 M-3.5 -10.0 L-3.35 -9.85 -3.35 -10.0 -3.5 -10.0 M-6.6 -3.2 L-6.6 -3.2 M-6.65 -2.9 L-6.7 -2.95 -6.75 -2.9 -6.65 -2.9 M-1.7 -0.9 L-1.65 -0.95 -1.8 -0.95 -1.7 -0.9" fill="#ccfffe" fill-rule="evenodd" stroke="none"/>
  </g>
</svg>
