<?xml version="1.0" encoding="UTF-8" standalone="no"?>
<svg xmlns:ffdec="https://www.free-decompiler.com/flash" xmlns:xlink="http://www.w3.org/1999/xlink" ffdec:objectType="shape" height="1.9px" width="11.3px" xmlns="http://www.w3.org/2000/svg">
  <g transform="matrix(1.0, 0.0, 0.0, 1.0, 5.05, 0.9)">
    <path d="M3.9 -0.8 Q4.6 -0.65 5.1 -0.3 L5.1 -0.25 5.05 -0.2 4.95 -0.15 4.9 -0.15 4.85 -0.1 4.6 0.0 4.65 0.0 4.75 -0.05 4.85 -0.05 5.35 -0.2 Q5.65 -0.3 5.95 -0.4 L5.95 -0.45 5.8 -0.5 5.45 -0.65 5.1 -0.75 5.05 -0.8 5.25 -0.8 5.8 -0.75 Q6.1 -0.65 6.25 -0.45 L6.25 -0.4 Q3.85 0.6 0.95 0.6 -0.65 0.75 -2.35 0.45 -3.75 0.4 -5.0 -0.1 -5.05 -0.15 -5.05 -0.3 L-5.0 -0.4 Q-4.6 -0.65 -4.05 -0.65 L-3.75 -0.65 Q-3.85 -0.55 -4.1 -0.5 -4.4 -0.4 -4.65 -0.25 -4.2 -0.1 -3.7 0.0 -3.75 -0.25 -3.3 -0.35 L-2.55 -0.6 -2.6 -0.55 -2.6 -0.5 -2.6 -0.4 -2.75 -0.15 -2.95 -0.1 Q-1.5 0.2 0.1 0.25 2.0 0.3 3.9 -0.1 4.1 -0.2 4.25 -0.3 L4.3 -0.3 Q4.35 -0.3 4.35 -0.35 4.35 -0.4 3.7 -0.7 L3.25 -0.85 3.25 -0.9 3.45 -0.9 3.9 -0.8 M4.65 -0.25 L4.65 -0.25 M4.85 0.35 Q1.35 1.35 -2.75 0.85 -3.7 0.7 -4.45 0.25 -1.15 0.95 2.45 0.65 3.55 0.55 4.55 0.3 L4.85 0.35" fill="#ffffff" fill-rule="evenodd" stroke="none"/>
  </g>
</svg>
