<?xml version="1.0" encoding="UTF-8" standalone="no"?>
<svg xmlns:ffdec="https://www.free-decompiler.com/flash" xmlns:xlink="http://www.w3.org/1999/xlink" ffdec:objectType="shape" height="5.7px" width="36.15px" xmlns="http://www.w3.org/2000/svg">
  <g transform="matrix(1.0, 0.0, 0.0, 1.0, 18.05, 2.85)">
    <path d="M1.65 -2.0 L1.65 1.2 3.4 1.2 Q3.65 1.25 3.85 1.4 4.1 1.6 4.1 1.95 L4.1 2.05 Q4.1 2.3 3.95 2.45 L3.85 2.55 Q3.6 2.75 3.25 2.75 L0.9 2.75 Q0.5 2.75 0.25 2.5 L0.2 2.45 0.15 2.45 Q0.05 2.3 0.0 2.1 L-0.05 1.8 -0.05 -2.0 0.0 -2.25 Q0.05 -2.5 0.2 -2.6 0.4 -2.85 0.8 -2.85 1.2 -2.85 1.45 -2.6 L1.45 -2.65 Q1.55 -2.5 1.65 -2.25 L1.65 -2.0 M7.7 -2.65 Q7.85 -2.5 7.95 -2.25 L7.95 0.85 Q8.0 1.1 8.1 1.2 L8.15 1.2 8.2 1.25 Q8.4 1.35 8.7 1.35 9.0 1.35 9.2 1.25 L9.25 1.2 Q9.4 1.1 9.4 0.85 L9.45 0.7 9.45 -2.0 Q9.45 -2.15 9.45 -2.25 9.5 -2.5 9.65 -2.6 L9.65 -2.65 Q9.9 -2.85 10.25 -2.85 10.65 -2.85 10.9 -2.6 L10.9 -2.65 Q11.05 -2.5 11.1 -2.25 L11.1 0.95 Q11.05 1.3 10.95 1.6 L10.8 1.85 10.5 2.25 10.15 2.5 9.95 2.6 Q9.4 2.85 8.7 2.85 7.95 2.85 7.45 2.6 L7.2 2.5 6.85 2.25 Q6.7 2.05 6.55 1.85 L6.45 1.6 Q6.3 1.3 6.3 0.95 L6.25 0.6 6.25 -2.0 Q6.25 -2.15 6.3 -2.25 6.35 -2.5 6.5 -2.6 L6.5 -2.65 Q6.7 -2.85 7.1 -2.85 7.5 -2.85 7.7 -2.6 L7.7 -2.65 M12.55 -2.8 L14.25 -2.8 Q14.8 -2.8 15.25 -2.6 L15.55 -2.45 Q15.8 -2.25 16.0 -2.0 L16.05 -1.9 16.05 -1.85 Q16.15 -1.65 16.2 -1.35 L16.25 -0.95 16.25 -0.8 Q16.25 -0.5 16.1 -0.2 L16.0 0.0 Q15.85 0.25 15.65 0.45 L15.3 0.7 Q14.85 0.9 14.25 0.9 L13.3 0.9 13.3 2.05 Q13.25 2.25 13.2 2.4 L13.05 2.6 Q12.85 2.8 12.45 2.8 12.05 2.8 11.85 2.6 L11.7 2.4 11.7 2.35 Q11.6 2.25 11.6 2.1 L11.6 -1.85 Q11.6 -2.1 11.7 -2.3 11.75 -2.45 11.85 -2.55 L11.9 -2.6 Q12.1 -2.8 12.55 -2.8 M14.45 -1.25 Q14.25 -1.35 13.95 -1.35 L13.3 -1.35 13.3 -0.5 14.05 -0.5 Q14.2 -0.5 14.35 -0.55 L14.3 -0.55 14.4 -0.65 14.45 -0.65 Q14.55 -0.75 14.55 -0.85 L14.55 -0.95 14.5 -1.15 14.45 -1.2 14.45 -1.25 M17.25 -2.85 Q17.65 -2.85 17.85 -2.65 18.05 -2.5 18.1 -2.25 L18.1 -1.05 18.05 -0.9 17.85 0.7 Q17.8 1.0 17.65 1.1 L17.6 1.15 17.8 1.3 17.85 1.3 17.9 1.35 Q18.1 1.55 18.1 1.9 L18.1 2.1 18.0 2.4 17.95 2.45 17.9 2.55 17.85 2.55 Q17.65 2.75 17.3 2.8 L17.25 2.8 Q16.9 2.75 16.7 2.55 L16.65 2.55 16.55 2.4 Q16.5 2.25 16.45 2.1 L16.4 1.95 16.4 1.9 Q16.45 1.55 16.65 1.35 L16.75 1.3 16.75 1.25 Q16.85 1.2 16.95 1.15 L16.9 1.1 Q16.75 1.0 16.7 0.7 L16.5 -0.9 16.45 -1.05 16.45 -2.25 Q16.5 -2.5 16.7 -2.65 16.9 -2.85 17.25 -2.85 M-17.85 -2.6 Q-17.65 -2.85 -17.2 -2.85 -16.85 -2.85 -16.6 -2.6 L-16.6 -2.65 Q-16.45 -2.5 -16.4 -2.25 L-16.35 -2.0 -16.35 1.2 -14.65 1.2 Q-14.4 1.25 -14.2 1.4 -13.95 1.6 -13.9 1.95 L-13.9 2.05 Q-13.95 2.3 -14.1 2.45 L-14.2 2.55 Q-14.45 2.75 -14.8 2.75 L-17.15 2.75 Q-17.55 2.75 -17.8 2.5 L-17.85 2.45 Q-18.0 2.3 -18.05 2.1 L-18.05 -2.25 Q-18.0 -2.5 -17.85 -2.6 M-12.9 -2.8 L-10.25 -2.8 Q-9.9 -2.8 -9.7 -2.65 L-9.55 -2.5 -9.5 -2.55 Q-9.35 -2.75 -9.15 -2.8 L-8.8 -2.85 Q-8.45 -2.85 -8.25 -2.7 -8.1 -2.55 -8.0 -2.3 L-7.95 -2.25 -7.95 -2.15 -7.2 0.35 -6.4 -2.2 -6.4 -2.15 -6.35 -2.3 Q-6.25 -2.55 -6.1 -2.65 -5.9 -2.85 -5.6 -2.85 L-5.2 -2.8 -5.25 -2.8 Q-5.05 -2.75 -4.9 -2.55 -4.8 -2.45 -4.75 -2.25 L-4.75 -1.9 -4.85 -1.65 -6.25 2.25 -6.3 2.4 Q-6.45 2.6 -6.65 2.7 -6.85 2.85 -7.2 2.8 -7.55 2.85 -7.75 2.7 -7.95 2.65 -8.1 2.4 L-8.15 2.25 -9.55 -1.6 -9.7 -1.45 Q-9.9 -1.3 -10.25 -1.3 L-12.15 -1.3 -12.15 -0.8 -10.55 -0.8 Q-10.2 -0.8 -10.0 -0.7 -9.85 -0.6 -9.8 -0.4 -9.75 -0.3 -9.7 -0.1 L-9.7 -0.05 Q-9.75 0.3 -9.9 0.45 L-10.05 0.5 Q-10.25 0.65 -10.55 0.65 L-12.15 0.65 -12.15 1.25 -10.2 1.25 Q-9.85 1.25 -9.65 1.4 -9.35 1.55 -9.35 2.0 L-9.35 2.05 Q-9.4 2.3 -9.45 2.4 -9.55 2.5 -9.65 2.6 -9.85 2.75 -10.2 2.75 L-12.9 2.75 Q-13.3 2.75 -13.55 2.5 L-13.6 2.5 -13.65 2.45 Q-13.75 2.3 -13.8 2.1 L-13.85 1.8 -13.85 -1.85 Q-13.85 -2.1 -13.75 -2.3 -13.7 -2.45 -13.55 -2.6 -13.3 -2.8 -12.9 -2.8 M-4.4 -2.6 Q-4.2 -2.8 -3.75 -2.8 L-1.1 -2.8 Q-0.8 -2.8 -0.55 -2.65 -0.35 -2.55 -0.3 -2.25 -0.25 -2.15 -0.25 -2.05 -0.25 -1.7 -0.45 -1.55 L-0.55 -1.45 Q-0.8 -1.3 -1.1 -1.3 L-3.0 -1.3 -3.0 -0.8 -1.4 -0.8 Q-1.05 -0.8 -0.85 -0.7 -0.7 -0.6 -0.65 -0.4 -0.6 -0.3 -0.6 -0.1 L-0.6 -0.05 Q-0.6 0.3 -0.75 0.45 L-0.9 0.5 Q-1.1 0.65 -1.4 0.65 L-3.0 0.65 -3.0 1.25 -1.05 1.25 Q-0.7 1.25 -0.5 1.4 -0.25 1.55 -0.2 2.0 L-0.2 2.05 Q-0.25 2.3 -0.35 2.4 -0.4 2.5 -0.5 2.6 -0.7 2.75 -1.05 2.75 L-3.75 2.75 Q-4.2 2.75 -4.4 2.5 L-4.45 2.5 -4.5 2.45 Q-4.6 2.3 -4.65 2.1 L-4.7 1.8 -4.7 -1.85 Q-4.7 -2.1 -4.6 -2.3 -4.55 -2.45 -4.4 -2.6" fill="#ff0000" fill-rule="evenodd" stroke="none"/>
  </g>
</svg>
