<?xml version="1.0" encoding="UTF-8" standalone="no"?>
<svg xmlns:ffdec="https://www.free-decompiler.com/flash" xmlns:xlink="http://www.w3.org/1999/xlink" ffdec:objectType="shape" height="16.95px" width="15.35px" xmlns="http://www.w3.org/2000/svg">
  <g transform="matrix(1.0, 0.0, 0.0, 1.0, 7.45, 9.35)">
    <path d="M4.05 -5.3 L4.25 -4.75 Q5.5 -1.65 6.2 1.1 6.2 -1.2 5.8 -3.45 L5.55 -4.55 Q8.9 -2.45 7.5 1.5 L7.2 2.2 Q4.2 3.65 1.2 5.35 -0.45 6.25 -1.9 7.35 -3.6 7.25 -5.25 6.95 -5.8 6.95 -6.3 6.75 L-6.6 6.65 Q-7.3 6.45 -7.35 5.65 -7.5 3.65 -7.3 1.6 L-7.2 1.5 Q-6.7 3.7 -5.5 5.4 -5.3 3.8 -5.75 2.05 L-6.25 0.05 Q-5.9 -0.75 -5.8 -1.75 -5.25 -0.95 -3.65 -2.25 -0.35 -4.9 -3.8 -6.15 -5.4 -5.7 -5.9 -4.45 -5.65 -8.15 -1.3 -9.35 0.55 -6.8 4.05 -5.3 M0.55 7.6 Q3.8 5.7 6.85 3.65 5.85 5.55 4.35 6.8 3.8 7.25 2.9 7.4 L0.55 7.6" fill="#ffffff" fill-opacity="0.5019608" fill-rule="evenodd" stroke="none"/>
    <path d="M0.65 -1.7 Q-0.45 -0.2 -1.1 -2.05 -1.5 -2.05 -1.2 -2.25 -1.3 -2.8 -0.65 -2.85 -0.1 -2.8 0.3 -2.35 0.55 -2.1 0.65 -1.7 M-0.5 -0.6 Q-0.15 -0.35 0.1 0.0 0.45 0.45 0.4 1.0 0.2 1.35 -0.05 1.6 L0.0 1.7 Q0.2 1.9 0.6 1.8 1.1 1.7 1.15 2.2 1.05 3.25 -0.05 3.65 -0.75 3.9 -1.25 3.35 L-1.25 3.3 -2.25 3.2 Q-2.25 2.75 -2.3 2.3 -2.45 1.65 -2.35 0.95 L-2.3 0.45 -2.05 0.35 -2.1 0.25 -2.1 0.0 -1.9 -0.25 -2.0 -0.3 Q-2.8 -0.35 -1.85 -0.95 L-1.3 -0.6 -1.1 -0.65 -0.5 -0.6 M-3.05 1.75 Q-1.35 3.35 -3.5 2.7 -4.65 2.35 -3.35 1.85 -3.2 1.8 -3.05 1.75 M1.5 0.85 Q1.2 -0.1 2.1 -0.3 2.65 -0.1 2.95 0.4 3.2 0.75 3.15 1.25 2.0 2.5 1.5 0.85" fill="#ffffff" fill-rule="evenodd" stroke="none"/>
    <path d="M0.65 -1.7 Q-0.45 -0.2 -1.1 -2.05 -1.5 -2.05 -1.2 -2.25 -1.3 -2.8 -0.65 -2.85 -0.1 -2.8 0.3 -2.35 0.55 -2.1 0.65 -1.7 M-0.5 -0.6 Q-0.15 -0.35 0.1 0.0 0.45 0.45 0.4 1.0 0.2 1.35 -0.05 1.6 L0.0 1.7 Q0.2 1.9 0.6 1.8 1.1 1.7 1.15 2.2 1.05 3.25 -0.05 3.65 -0.75 3.9 -1.25 3.35 L-1.25 3.3 -2.25 3.2 Q-2.25 2.75 -2.3 2.3 -2.45 1.65 -2.35 0.95 L-2.3 0.45 -2.05 0.35 -2.1 0.25 -2.1 0.0 -1.9 -0.25 -2.0 -0.3 Q-2.8 -0.35 -1.85 -0.95 L-1.3 -0.6 -1.1 -0.65 -0.5 -0.6 M-3.05 1.75 Q-1.35 3.35 -3.5 2.7 -4.65 2.35 -3.35 1.85 -3.2 1.8 -3.05 1.75 M1.5 0.85 Q1.2 -0.1 2.1 -0.3 2.65 -0.1 2.95 0.4 3.2 0.75 3.15 1.25 2.0 2.5 1.5 0.85 Z" fill="none" stroke="#ffffff" stroke-linecap="round" stroke-linejoin="round" stroke-opacity="0.3529412" stroke-width="1.5"/>
  </g>
</svg>
