<?xml version="1.0" encoding="UTF-8" standalone="no"?>
<svg xmlns:ffdec="https://www.free-decompiler.com/flash" xmlns:xlink="http://www.w3.org/1999/xlink" ffdec:objectType="shape" height="2.2px" width="2.35px" xmlns="http://www.w3.org/2000/svg">
  <g transform="matrix(1.0, 0.0, 0.0, 1.0, 1.2, 1.1)">
    <path d="M0.05 -0.2 L0.25 -0.35 0.2 -0.35 -0.05 -0.55 -0.1 -0.55 -0.1 -0.6 -0.15 -0.65 -0.35 -0.65 Q-0.4 -0.35 -0.5 -0.1 L-0.7 0.35 -0.45 0.5 Q-0.35 0.25 -0.2 0.1 L0.0 -0.1 0.05 -0.15 0.05 -0.2 M1.1 -0.65 Q1.25 -0.45 1.15 -0.2 1.0 0.05 1.05 0.4 1.1 0.7 1.05 1.05 0.3 1.2 -0.55 0.95 L-1.05 0.8 Q-1.25 0.55 -1.1 0.3 -0.85 -0.25 -0.75 -0.8 -0.65 -1.05 -0.45 -1.1 0.0 -0.95 0.4 -0.95 0.8 -0.95 1.1 -0.65 M0.7 0.05 L0.7 -0.15 Q0.75 -0.35 0.6 -0.3 0.6 -0.15 0.45 0.05 L0.3 0.2 0.2 0.3 Q-0.05 0.5 -0.25 0.6 L0.7 0.6 0.7 0.35 0.7 0.05" fill="#ffe700" fill-rule="evenodd" stroke="none"/>
    <path d="M0.7 0.35 L0.7 0.6 -0.25 0.6 Q-0.05 0.5 0.2 0.3 L0.3 0.2 Q0.55 0.45 0.7 0.35 M-0.1 -0.6 Q-0.3 -0.45 -0.35 -0.15 -0.35 0.1 -0.2 0.1 -0.35 0.25 -0.45 0.5 L-0.7 0.35 -0.5 -0.1 Q-0.4 -0.35 -0.35 -0.65 L-0.15 -0.65 -0.1 -0.6" fill="#b30000" fill-rule="evenodd" stroke="none"/>
    <path d="M0.05 -0.2 L0.1 -0.2 0.2 -0.35 0.25 -0.35 0.05 -0.2 M-0.1 -0.55 Q-0.15 -0.5 -0.2 -0.4 -0.25 -0.15 0.0 -0.1 L-0.2 0.1 Q-0.35 0.1 -0.35 -0.15 -0.3 -0.45 -0.1 -0.6 L-0.1 -0.55 M0.45 0.05 L0.55 0.1 0.65 0.1 0.7 0.05 0.7 0.35 Q0.55 0.45 0.3 0.2 L0.45 0.05" fill="#ff9900" fill-rule="evenodd" stroke="none"/>
    <path d="M0.2 -0.35 L0.1 -0.2 0.05 -0.2 0.05 -0.15 0.0 -0.1 Q-0.25 -0.15 -0.2 -0.4 -0.15 -0.5 -0.1 -0.55 L-0.05 -0.55 0.2 -0.35 M0.45 0.05 Q0.6 -0.15 0.6 -0.3 0.75 -0.35 0.7 -0.15 L0.7 0.05 0.65 0.1 0.55 0.1 0.45 0.05" fill="#ffcc00" fill-rule="evenodd" stroke="none"/>
  </g>
</svg>
