<?xml version="1.0" encoding="UTF-8" standalone="no"?>
<svg xmlns:ffdec="https://www.free-decompiler.com/flash" xmlns:xlink="http://www.w3.org/1999/xlink" ffdec:objectType="shape" height="214.2px" width="145.75px" xmlns="http://www.w3.org/2000/svg">
  <g transform="matrix(1.0, 0.0, 0.0, 1.0, 78.95, 69.9)">
    <path d="M14.65 -47.45 Q14.55 -49.0 15.5 -49.85 16.5 -50.7 17.2 -49.4 L17.4 -48.85 17.55 -48.4 17.6 -47.9 17.65 -47.45 17.65 -46.95 17.3 -46.5 Q17.1 -46.2 16.85 -46.1 16.5 -45.9 16.15 -45.75 L16.15 -45.65 Q14.8 -45.5 14.65 -47.45 M66.6 -11.7 Q67.1 -10.5 66.5 -9.25 65.75 -7.85 65.25 -6.25 64.75 -4.7 63.7 -4.6 L63.25 -4.65 Q62.95 -4.75 62.65 -5.0 62.3 -5.4 62.0 -5.9 61.9 -6.1 61.85 -6.35 62.0 -8.1 62.8 -9.5 63.75 -11.15 64.9 -12.4 66.0 -13.6 66.6 -11.7 M64.45 5.0 L64.95 4.95 Q65.55 5.0 66.1 5.35 66.65 5.75 66.75 6.65 L66.8 7.1 66.8 7.6 Q66.8 7.85 66.75 8.05 66.6 8.6 66.35 9.05 66.0 9.8 65.4 9.65 L65.4 9.7 64.55 9.6 Q64.2 9.55 63.95 9.25 63.6 8.9 63.25 8.4 L63.2 7.9 Q63.15 7.7 63.2 7.45 63.25 6.95 63.45 6.55 63.8 5.8 64.25 5.2 64.35 5.1 64.45 5.0 M34.15 19.55 Q35.2 17.55 35.4 20.3 35.5 22.1 34.55 22.4 33.2 21.35 34.15 19.55 M11.85 16.9 Q11.45 16.3 11.65 15.55 12.3 13.1 13.85 14.1 15.15 14.95 14.65 16.8 14.3 18.0 13.6 18.0 13.1 17.9 12.65 17.7 12.2 17.45 11.85 16.9 M2.7 39.4 Q3.2 39.9 3.2 40.7 L3.15 41.2 Q3.15 41.7 3.0 42.15 2.8 43.1 2.1 43.2 L1.6 43.3 Q1.25 43.15 1.0 42.9 0.55 42.5 0.25 41.95 -0.1 41.2 0.3 40.55 0.45 40.05 0.7 39.65 1.55 38.2 2.7 39.4 M43.05 34.95 Q43.4 35.85 43.05 36.75 42.8 37.6 42.25 37.65 41.9 37.25 41.6 36.75 41.2 36.15 40.9 35.55 40.45 34.55 41.4 34.4 42.45 33.6 43.05 34.95 M-28.55 -65.4 Q-28.95 -65.8 -29.15 -66.35 -29.3 -66.75 -29.35 -67.25 -29.2 -67.95 -28.95 -68.6 -28.35 -70.05 -27.1 -69.9 -26.2 -69.75 -25.8 -68.55 -25.75 -68.05 -25.75 -67.55 -25.7 -66.65 -26.15 -65.95 -26.7 -65.0 -27.55 -65.05 L-27.55 -64.95 -27.95 -65.05 Q-28.3 -65.15 -28.55 -65.4 M-48.1 -37.4 Q-47.2 -37.25 -46.8 -36.05 L-46.75 -35.1 Q-46.7 -34.2 -47.15 -33.5 -47.55 -33.0 -48.0 -32.75 -48.25 -32.55 -48.5 -32.5 -48.85 -32.65 -49.1 -32.95 -49.5 -33.3 -49.7 -33.85 -50.0 -34.5 -49.9 -35.25 -49.8 -36.05 -49.45 -36.65 -48.95 -37.6 -48.1 -37.4 M-35.35 -13.5 Q-34.75 -14.5 -34.45 -13.35 -34.2 -12.45 -34.8 -12.2 -36.05 -12.4 -35.35 -13.5 M-43.2 -11.55 Q-43.15 -10.4 -43.85 -10.4 -44.0 -10.3 -44.25 -10.25 -45.8 -11.05 -44.7 -12.55 -43.65 -14.0 -43.45 -12.35 -43.25 -12.2 -43.2 -11.55 M-15.95 -8.0 Q-15.05 -7.9 -14.8 -6.6 -14.55 -5.35 -15.0 -4.35 -15.4 -3.5 -15.95 -3.45 -17.05 -3.25 -17.55 -4.75 -17.9 -6.05 -17.35 -7.15 -16.85 -8.15 -15.95 -8.0 M-15.95 13.3 Q-15.95 13.55 -16.0 13.75 -16.15 14.25 -16.35 14.7 -16.5 15.0 -16.75 15.15 -17.0 15.3 -17.25 15.4 -18.5 15.0 -18.4 13.15 -18.25 11.6 -17.25 11.6 -16.05 11.65 -15.95 13.3 M-5.35 26.05 Q-5.45 25.65 -5.35 25.15 L-5.05 24.15 Q-4.75 23.2 -4.0 23.4 -3.45 23.6 -2.9 24.0 -2.8 24.5 -2.75 25.0 -2.7 25.95 -2.8 26.9 -3.0 28.4 -4.0 28.3 L-4.0 28.4 Q-4.45 28.0 -4.85 27.4 -5.2 26.85 -5.35 26.05 M-35.7 18.5 Q-34.8 17.75 -34.3 18.95 -34.2 19.45 -34.15 19.95 -34.1 20.65 -34.15 21.4 -34.15 22.3 -34.8 22.65 L-35.25 22.85 Q-36.45 22.4 -36.55 20.6 -36.6 19.25 -35.7 18.5 M-35.4 40.6 Q-35.75 40.25 -35.85 39.65 -35.95 39.25 -35.85 38.75 L-35.8 38.3 Q-35.6 37.2 -34.85 37.4 -33.45 37.7 -33.85 39.85 -34.05 41.05 -34.8 40.95 L-34.8 41.05 Q-35.15 40.9 -35.4 40.6 M-41.1 56.45 Q-41.35 57.5 -42.1 57.35 L-42.1 57.45 Q-43.35 57.05 -43.35 55.15 -43.3 53.7 -42.5 53.05 -41.7 52.45 -41.15 53.55 -41.05 54.05 -40.95 54.55 -40.85 55.55 -41.1 56.45 M-15.7 29.2 Q-15.75 29.7 -15.95 30.1 -16.1 30.4 -16.3 30.6 -16.55 30.75 -16.85 30.8 -18.15 30.4 -17.9 28.55 -17.7 27.1 -16.85 27.15 -15.85 27.2 -15.65 28.7 -15.65 28.95 -15.7 29.2 M-51.65 18.3 Q-51.8 18.55 -51.95 18.75 -52.2 19.05 -52.5 19.25 -52.85 19.45 -53.25 19.6 -54.5 19.3 -54.5 17.35 -54.5 15.4 -53.25 15.45 -52.6 15.5 -51.95 15.9 -51.8 16.15 -51.65 16.4 -51.6 16.6 -51.55 16.85 -51.5 17.1 -51.55 17.35 L-51.65 18.3 M-49.8 30.15 Q-49.75 30.65 -49.8 31.15 -49.8 31.65 -50.0 32.05 -50.35 32.75 -50.85 33.2 -51.25 33.6 -51.5 33.75 -52.0 33.65 -52.45 33.45 -52.95 33.2 -53.35 32.6 -53.8 32.05 -53.65 31.3 L-53.55 30.8 Q-53.45 30.05 -53.0 29.65 -52.3 29.05 -51.5 28.9 -50.35 28.65 -49.8 30.15 M-78.9 61.85 Q-78.75 60.55 -78.2 59.7 -77.65 58.95 -77.0 59.55 -76.5 60.1 -76.45 61.0 -76.45 62.25 -77.1 62.95 -77.65 63.5 -78.1 63.6 -79.1 63.2 -78.9 61.85 M-15.3 142.05 Q-15.2 140.55 -14.25 140.6 -13.25 140.6 -13.1 142.0 L-13.1 142.5 Q-13.2 143.0 -13.4 143.3 -13.8 143.8 -14.25 144.2 L-14.25 144.3 Q-15.45 143.8 -15.3 142.05" fill="#ffff33" fill-rule="evenodd" stroke="none"/>
  </g>
</svg>
