<?xml version="1.0" encoding="UTF-8" standalone="no"?>
<svg xmlns:ffdec="https://www.free-decompiler.com/flash" xmlns:xlink="http://www.w3.org/1999/xlink" ffdec:objectType="shape" height="17.05px" width="63.7px" xmlns="http://www.w3.org/2000/svg">
  <g transform="matrix(1.0, 0.0, 0.0, 1.0, 28.3, 15.0)">
    <path d="M-24.1 1.4 L-25.5 1.2 -26.05 1.05 Q-26.45 0.9 -26.6 0.65 -26.65 0.55 -26.65 0.35 -26.65 -0.45 -25.8 -1.4 -25.05 -2.2 -24.2 -2.6 L-23.1 -3.15 Q-22.35 -3.5 -21.75 -3.75 -20.65 -4.1 -19.5 -4.25 L-17.85 -4.4 Q-15.85 -4.4 -11.85 -6.5 -10.7 -7.1 -9.2 -8.0 -7.95 -8.7 -7.9 -8.75 -4.3 -10.0 -2.2 -10.65 L-1.9 -10.75 Q1.8 -11.85 5.3 -12.35 L5.9 -12.35 Q8.1 -11.95 11.8 -10.95 15.65 -9.85 17.0 -9.25 17.75 -8.9 18.35 -8.45 L18.6 -8.2 19.7 -7.25 Q21.15 -6.15 25.95 -5.4 L30.35 -5.3 Q31.75 -5.25 32.65 -4.55 L33.1 -4.2 33.2 -4.05 33.4 -3.8 Q33.7 -3.4 33.8 -2.95 33.9 -2.7 33.9 -2.45 33.9 -1.95 33.5 -1.55 L33.25 -1.4 Q32.65 -0.95 31.35 -0.7 L30.9 -0.6 29.2 -0.45 Q29.4 -0.6 29.6 -0.8 L29.75 -0.95 29.9 -1.15 Q30.15 -1.55 30.15 -1.95 30.15 -2.35 30.0 -2.55 29.85 -2.75 29.35 -2.9 28.75 -3.05 24.3 -3.7 22.9 -3.9 21.75 -4.4 L20.9 -4.85 Q20.4 -5.05 20.0 -5.2 18.55 -5.45 17.55 -5.9 16.6 -6.45 16.05 -6.7 13.9 -7.65 7.8 -7.95 L2.1 -6.95 Q-0.25 -6.55 -1.1 -6.35 -2.25 -6.1 -3.2 -5.7 -4.0 -5.35 -5.7 -4.55 -7.55 -3.6 -10.7 -1.5 -11.5 -1.0 -12.2 -0.55 -14.25 0.8 -15.65 1.5 L-15.75 1.5 Q-16.45 1.25 -17.0 0.9 L-17.85 0.15 -18.1 -0.05 Q-18.45 -0.3 -18.7 -0.4 -19.2 -0.65 -19.8 -0.65 -19.75 -0.65 -19.7 -0.7 -19.85 -0.75 -20.3 -0.55 -20.95 -0.3 -21.7 0.1 -22.25 0.4 -22.65 0.7 -23.2 1.1 -23.45 1.45 L-24.0 1.4 -24.1 1.4" fill="#ffe47f" fill-opacity="0.2509804" fill-rule="evenodd" stroke="none"/>
    <path d="M-25.5 1.2 Q-25.7 1.35 -25.95 1.35 -26.75 1.35 -27.35 0.8 -27.95 0.6 -28.15 -0.05 -28.3 -0.5 -28.25 -1.0 -28.25 -1.3 -28.05 -1.65 -27.7 -2.5 -26.65 -3.2 -26.15 -3.55 -25.4 -3.9 -24.9 -4.25 -24.35 -4.6 -20.8 -6.75 -15.2 -9.25 -9.75 -11.7 -4.85 -13.3 0.35 -15.0 2.7 -15.0 6.3 -15.0 9.25 -14.4 11.5 -13.95 13.8 -13.05 15.1 -12.5 17.3 -11.5 19.25 -10.65 20.7 -10.4 28.25 -8.95 31.2 -8.0 35.4 -6.65 35.4 -4.9 35.4 -4.3 35.3 -3.75 35.35 -3.5 35.35 -3.15 35.35 -2.0 34.5 -1.2 34.0 -0.75 33.15 -0.45 30.7 1.35 25.75 1.8 25.5 1.75 25.25 1.65 25.05 1.55 24.95 1.45 24.1 1.5 23.1 1.5 20.9 1.5 13.6 0.8 6.25 0.15 5.3 0.15 L4.05 0.15 -0.95 0.55 -2.5 0.7 -5.9 1.0 -6.05 1.0 Q-7.2 1.1 -8.6 1.4 L-9.8 1.7 -10.3 1.8 -10.85 2.0 -13.9 2.0 -18.05 1.75 -18.2 1.75 -22.25 2.05 Q-22.55 2.05 -23.3 1.9 L-24.4 1.65 Q-24.3 1.5 -24.1 1.4 L-24.0 1.4 -23.45 1.45 Q-23.2 1.1 -22.65 0.7 -22.25 0.4 -21.7 0.1 -20.95 -0.3 -20.3 -0.55 -19.85 -0.75 -19.7 -0.7 -19.75 -0.65 -19.8 -0.65 -19.2 -0.65 -18.7 -0.4 -18.45 -0.3 -18.1 -0.05 L-17.85 0.15 -17.0 0.9 Q-16.45 1.25 -15.75 1.5 L-15.65 1.5 Q-14.25 0.8 -12.2 -0.55 -11.5 -1.0 -10.7 -1.5 -7.55 -3.6 -5.7 -4.55 -4.0 -5.35 -3.2 -5.7 -2.25 -6.1 -1.1 -6.35 -0.25 -6.55 2.1 -6.95 L7.8 -7.95 Q13.9 -7.65 16.05 -6.7 16.6 -6.45 17.55 -5.9 18.55 -5.45 20.0 -5.2 20.4 -5.05 20.9 -4.85 L21.75 -4.4 Q22.9 -3.9 24.3 -3.7 28.75 -3.05 29.35 -2.9 29.85 -2.75 30.0 -2.55 30.15 -2.35 30.15 -1.95 30.15 -1.55 29.9 -1.15 L29.75 -0.95 29.6 -0.8 Q29.4 -0.6 29.2 -0.45 L30.9 -0.6 31.35 -0.7 Q32.65 -0.95 33.25 -1.4 L33.5 -1.55 Q33.9 -1.95 33.9 -2.45 33.9 -2.7 33.8 -2.95 33.7 -3.4 33.4 -3.8 L33.2 -4.05 33.1 -4.2 32.65 -4.55 Q31.75 -5.25 30.35 -5.3 L25.95 -5.4 Q21.15 -6.15 19.7 -7.25 L18.6 -8.2 18.35 -8.45 Q17.75 -8.9 17.0 -9.25 15.65 -9.85 11.8 -10.95 8.1 -11.95 5.9 -12.35 L5.3 -12.35 Q1.8 -11.85 -1.9 -10.75 L-2.2 -10.65 Q-4.3 -10.0 -7.9 -8.75 -7.95 -8.7 -9.2 -8.0 -10.7 -7.1 -11.85 -6.5 -15.85 -4.4 -17.85 -4.4 L-19.5 -4.25 Q-20.65 -4.1 -21.75 -3.75 -22.35 -3.5 -23.1 -3.15 L-24.2 -2.6 Q-25.05 -2.2 -25.8 -1.4 -26.65 -0.45 -26.65 0.35 -26.65 0.55 -26.6 0.65 -26.45 0.9 -26.05 1.05 L-25.5 1.2 M22.95 0.25 L24.5 0.25 23.95 0.2 22.95 0.25" fill="#ffffff" fill-opacity="0.2509804" fill-rule="evenodd" stroke="none"/>
  </g>
</svg>
