<?xml version="1.0" encoding="UTF-8" standalone="no"?>
<svg xmlns:ffdec="https://www.free-decompiler.com/flash" xmlns:xlink="http://www.w3.org/1999/xlink" ffdec:objectType="shape" height="11.05px" width="10.2px" xmlns="http://www.w3.org/2000/svg">
  <g transform="matrix(1.0, 0.0, 0.0, 1.0, 2.5, 8.35)">
    <path d="M7.65 -2.85 Q7.65 -5.1 6.15 -6.7 4.7 -8.3 2.6 -8.3 0.55 -8.3 -1.0 -6.7 -2.4 -5.1 -2.4 -2.85 -2.4 -0.6 -1.0 1.0 0.55 2.6 2.6 2.6 4.7 2.6 6.15 1.0 7.65 -0.6 7.65 -2.85 M7.7 -2.85 Q7.7 -0.55 6.2 1.05 4.75 2.7 2.6 2.7 0.5 2.7 -1.0 1.05 -2.5 -0.55 -2.5 -2.85 -2.5 -5.15 -1.0 -6.75 0.5 -8.35 2.6 -8.35 4.75 -8.35 6.2 -6.75 7.7 -5.15 7.7 -2.85" fill="#ffdc45" fill-opacity="0.9019608" fill-rule="evenodd" stroke="none"/>
  </g>
</svg>
