<?xml version="1.0" encoding="UTF-8" standalone="no"?>
<svg xmlns:ffdec="https://www.free-decompiler.com/flash" xmlns:xlink="http://www.w3.org/1999/xlink" ffdec:objectType="shape" height="15.8px" width="14.45px" xmlns="http://www.w3.org/2000/svg">
  <g transform="matrix(1.0, 0.0, 0.0, 1.0, 4.95, 10.3)">
    <path d="M3.95 -10.05 L4.0 -10.1 Q4.6 -9.95 5.1 -9.65 4.55 -9.9 3.95 -10.05 M2.7 -10.3 L2.65 -10.25 2.2 -10.3 1.9 -10.25 1.9 -10.3 2.7 -10.3 M3.0 -10.25 L3.55 -10.2 3.55 -10.15 3.0 -10.25 M0.45 -10.1 L0.45 -10.05 0.1 -10.0 0.45 -10.1 M1.1 -10.2 L1.1 -10.2 M1.2 -10.2 L1.2 -10.25 1.6 -10.3 1.6 -10.25 1.2 -10.2 M6.05 -9.1 L5.45 -9.5 6.1 -9.1 6.05 -9.1 M-0.85 4.8 L-0.85 4.85 -1.35 4.55 -0.85 4.8 M-3.85 2.05 L-3.85 2.05 M-4.0 1.8 L-4.0 1.8 M-4.7 0.3 L-4.7 0.3 M-2.6 3.6 L-2.6 3.55 -1.7 4.3 -2.6 3.6 M-2.85 3.3 L-2.85 3.35 -3.0 3.2 -2.85 3.3 M-3.15 3.0 L-3.15 3.0 M-4.8 -0.05 L-4.8 -0.05 M-4.95 -3.95 L-4.95 -4.1 -4.9 -4.1 -4.95 -3.95 M-4.05 -6.55 L-4.05 -6.55 M-3.2 -7.75 L-3.2 -7.75 M-3.0 -8.0 L-3.0 -8.0 M-1.0 -9.55 L-1.0 -9.55 M-0.6 -9.7 L-0.6 -9.7 M-2.45 -8.5 L-2.45 -8.5 M-2.0 -8.9 L-2.0 -8.9 M4.2 5.25 L4.2 5.25 M4.95 4.95 L5.1 4.85 5.1 4.9 4.95 4.95 M4.5 5.15 L4.5 5.1 4.55 5.1 4.5 5.15 M5.55 4.65 L5.55 4.65 M0.4 5.3 L0.4 5.3 M0.1 5.2 L-0.6 4.95 -0.55 4.95 0.1 5.2 M2.6 5.5 L2.6 5.5 M2.2 5.5 L2.2 5.5 M7.65 2.85 L7.65 2.9 7.6 2.85 7.6 2.8 7.65 2.85 M7.4 3.1 L7.4 3.15 6.9 3.65 6.9 3.6 7.3 3.15 7.4 3.1 M8.0 2.3 L8.05 2.3 7.8 2.65 7.75 2.65 8.0 2.3 M8.25 1.95 L8.5 1.6 8.3 2.0 8.25 2.0 8.25 1.95 M8.85 0.85 L8.85 0.85 M9.15 0.1 L9.05 0.3 9.1 0.1 9.15 0.1 M9.25 -0.4 L9.25 -0.45 9.35 -0.9 9.25 -0.4 M9.45 -1.4 L9.4 -1.4 9.45 -2.0 9.5 -2.0 9.45 -1.4 M9.45 -2.6 L9.5 -2.6 9.5 -2.45 9.45 -2.4 9.45 -2.6 M9.4 -3.3 L9.45 -3.3 9.45 -2.9 9.4 -3.3 M9.15 -4.7 L9.2 -4.7 9.35 -3.95 9.15 -4.7 M8.6 -6.15 L8.65 -6.15 Q8.9 -5.65 9.05 -5.1 8.85 -5.65 8.6 -6.15 M8.35 -6.65 L8.5 -6.45 8.45 -6.45 8.3 -6.65 8.35 -6.65 M8.0 -7.15 L8.15 -7.0 8.1 -7.0 8.0 -7.15 M7.45 -7.8 L7.5 -7.85 7.85 -7.4 7.85 -7.35 7.45 -7.8 M6.8 -8.5 L6.8 -8.55 7.2 -8.15 7.2 -8.1 6.8 -8.5 M6.5 -8.8 L6.5 -8.75 6.4 -8.85 6.4 -8.9 6.5 -8.8" fill="#ffdc45" fill-opacity="0.9019608" fill-rule="evenodd" stroke="none"/>
  </g>
</svg>
