<?xml version="1.0" encoding="UTF-8" standalone="no"?>
<svg xmlns:ffdec="https://www.free-decompiler.com/flash" xmlns:xlink="http://www.w3.org/1999/xlink" ffdec:objectType="shape" height="2.7px" width="6.4px" xmlns="http://www.w3.org/2000/svg">
  <g transform="matrix(1.0, 0.0, 0.0, 1.0, 3.0, -3.85)">
    <path d="M2.8 4.25 L2.95 4.1 Q2.95 3.95 3.0 3.9 3.05 3.85 3.1 3.85 3.15 3.85 3.3 4.0 3.45 4.2 3.4 4.3 3.3 4.45 3.2 4.5 L3.0 4.55 2.85 4.5 Q2.7 4.45 2.7 4.35 L2.8 4.25 M2.0 4.7 Q2.0 4.6 2.05 4.6 L2.15 4.55 Q2.25 4.55 2.2 4.65 2.15 4.75 2.05 4.75 2.0 4.75 2.0 4.7 M2.6 5.1 Q2.55 5.45 2.45 5.5 L2.3 5.55 2.1 5.5 Q1.85 5.45 1.85 5.35 1.85 5.25 2.0 5.2 2.2 5.2 2.3 5.1 L2.45 4.75 Q2.55 4.65 2.65 4.65 L2.65 4.7 2.75 4.75 Q2.75 4.85 2.7 4.9 2.6 5.0 2.6 5.1 M0.15 5.2 Q0.15 5.15 0.2 5.15 L0.25 5.15 Q0.35 5.15 0.45 5.2 0.5 5.3 0.4 5.3 L0.25 5.3 0.15 5.2 M1.05 5.5 Q1.05 5.4 1.15 5.4 L1.3 5.4 Q1.75 5.4 1.75 5.6 1.7 5.75 1.5 5.75 L1.25 5.7 Q1.05 5.65 1.05 5.5 M-2.6 4.4 Q-2.6 4.6 -2.4 4.6 -2.2 4.6 -2.1 4.7 -2.0 4.85 -2.2 5.0 -2.35 5.1 -2.45 5.1 -2.65 5.1 -2.8 5.05 -3.0 4.9 -3.0 4.65 -3.0 4.4 -2.85 4.2 -2.75 4.0 -2.65 4.0 -2.55 4.0 -2.55 4.1 L-2.6 4.4 M-2.0 4.45 Q-1.9 4.45 -1.8 4.6 -1.65 4.75 -1.85 4.75 L-1.95 4.65 Q-2.05 4.6 -2.05 4.55 L-2.05 4.45 -2.0 4.45 M-1.75 5.05 Q-1.65 5.05 -1.6 5.1 -1.5 5.2 -1.5 5.3 L-1.6 5.35 Q-1.65 5.35 -1.7 5.25 -1.8 5.2 -1.8 5.1 L-1.8 5.05 -1.75 5.05 M-1.5 5.85 L-1.4 5.85 -1.05 5.9 Q-0.9 5.9 -0.75 5.75 -0.6 5.6 -0.55 5.6 -0.25 5.6 -0.25 6.1 -0.3 6.55 -0.75 6.55 -0.95 6.55 -1.25 6.45 -1.6 6.25 -1.6 6.05 -1.6 5.9 -1.5 5.85 M-1.15 5.7 Q-1.15 5.6 -1.05 5.6 L-0.95 5.55 Q-0.7 5.55 -0.75 5.65 -0.8 5.75 -0.95 5.75 -1.15 5.75 -1.15 5.7" fill="#fff300" fill-rule="evenodd" stroke="none"/>
  </g>
</svg>
