<?xml version="1.0" encoding="UTF-8" standalone="no"?>
<svg xmlns:ffdec="https://www.free-decompiler.com/flash" xmlns:xlink="http://www.w3.org/1999/xlink" ffdec:objectType="shape" height="33.9px" width="6.25px" xmlns="http://www.w3.org/2000/svg">
  <g transform="matrix(1.0, 0.0, 0.0, 1.0, 2.2, 16.7)">
    <path d="M2.65 -16.4 Q2.9 -16.35 3.2 -16.25 3.9 -15.9 4.0 -15.5 L4.05 -15.45 4.05 -15.2 Q4.05 -15.05 4.0 -14.95 3.85 -14.65 3.45 -14.55 L3.05 -14.55 2.2 -15.2 Q0.9 -16.2 -0.3 -16.55 0.9 -16.8 2.0 -16.65 L2.65 -16.4" fill="#ffff00" fill-opacity="0.92156863" fill-rule="evenodd" stroke="none"/>
    <path d="M-0.35 15.8 Q1.0 16.65 2.3 16.85 1.1 17.25 0.0 17.2 L-0.65 17.05 -1.2 16.95 Q-2.0 16.7 -2.15 16.3 L-2.15 16.2 -2.2 16.0 Q-2.2 15.85 -2.15 15.7 -2.05 15.4 -1.65 15.3 L-1.3 15.2 Q-0.85 15.55 -0.35 15.8" fill="#ffff00" fill-opacity="0.92156863" fill-rule="evenodd" stroke="none"/>
  </g>
</svg>
