<?xml version="1.0" encoding="UTF-8" standalone="no"?>
<svg xmlns:ffdec="https://www.free-decompiler.com/flash" xmlns:xlink="http://www.w3.org/1999/xlink" ffdec:objectType="shape" height="33.05px" width="10.7px" xmlns="http://www.w3.org/2000/svg">
  <g transform="matrix(1.0, 0.0, 0.0, 1.0, 4.5, 16.25)">
    <path d="M1.8 -15.85 L1.2 -16.0 Q1.55 -16.1 1.75 -16.25 2.9 -16.1 4.65 -15.1 L4.75 -15.1 Q4.45 -15.3 4.1 -15.5 4.1 -15.7 4.15 -15.8 4.75 -15.75 5.35 -15.25 5.75 -14.9 6.05 -14.45 L6.05 -14.4 6.1 -14.35 Q6.2 -14.15 6.2 -13.9 6.2 -13.55 6.15 -13.4 L6.15 -13.3 Q6.1 -13.2 6.0 -13.1 L5.75 -13.1 5.3 -13.05 5.2 -13.1 5.15 -13.15 4.9 -13.15 Q4.8 -13.75 4.0 -14.5 3.1 -15.35 1.8 -15.7 L1.8 -15.85" fill="#ffff00" fill-opacity="0.92156863" fill-rule="evenodd" stroke="none"/>
    <path d="M0.1 16.4 L0.75 16.5 Q0.35 16.65 0.2 16.8 -0.95 16.75 -2.8 16.0 L-2.9 15.95 Q-2.6 16.15 -2.2 16.3 -2.2 16.5 -2.2 16.6 -2.85 16.65 -3.5 16.2 -3.95 15.9 -4.25 15.5 L-4.25 15.4 -4.35 15.4 Q-4.45 15.15 -4.5 14.95 -4.55 14.6 -4.5 14.45 L-4.5 14.3 Q-4.45 14.2 -4.35 14.15 L-4.1 14.1 -3.65 14.0 -3.55 14.0 -3.55 14.05 -3.25 14.05 Q-3.1 14.65 -2.25 15.3 -1.25 16.05 0.05 16.25 L0.1 16.4" fill="#ffff00" fill-opacity="0.92156863" fill-rule="evenodd" stroke="none"/>
  </g>
</svg>
