<?xml version="1.0" encoding="UTF-8" standalone="no"?>
<svg xmlns:ffdec="https://www.free-decompiler.com/flash" xmlns:xlink="http://www.w3.org/1999/xlink" ffdec:objectType="shape" height="24.65px" width="32.7px" xmlns="http://www.w3.org/2000/svg">
  <g transform="matrix(1.0, 0.0, 0.0, 1.0, 16.15, 13.3)">
    <path d="M6.75 -7.7 Q6.9 -7.6 6.95 -7.4 7.0 -7.2 6.9 -7.0 6.25 -6.4 5.4 -6.65 4.15 -7.05 5.0 -7.7 5.7 -8.25 6.55 -7.95 L6.75 -7.7 M0.6 -11.0 Q0.3 -10.65 -0.15 -10.5 -0.95 -10.6 -0.95 -11.45 -1.0 -12.25 -0.55 -12.95 -0.25 -13.45 0.25 -13.2 0.9 -12.85 1.0 -12.25 1.1 -11.55 0.6 -11.0 M15.6 4.75 Q14.3 5.0 14.8 3.85 15.25 2.8 16.3 3.2 17.05 4.45 15.6 4.75 M9.7 11.3 Q8.5 11.5 9.05 10.5 9.5 9.6 10.45 9.85 11.15 11.05 9.7 11.3 M-16.0 -7.85 L-15.45 -8.35 Q-15.05 -8.65 -14.65 -8.45 -14.15 -8.15 -14.4 -7.65 -14.65 -7.2 -14.95 -6.85 -15.15 -6.6 -15.5 -6.65 -15.6 -6.7 -15.7 -6.75 -15.85 -6.85 -15.95 -6.95 -16.1 -7.2 -16.15 -7.4 -16.2 -7.65 -16.0 -7.85 M-9.45 2.15 Q-10.8 2.35 -10.25 1.25 -9.85 0.3 -8.8 0.75 -7.85 1.9 -9.45 2.15" fill="#d2bc40" fill-rule="evenodd" stroke="none"/>
    <path d="M2.4 -1.6 Q2.8 -1.5 3.2 -1.1 3.5 -0.85 3.35 -0.4 2.6 1.9 1.3 1.4 L1.4 2.05 Q1.65 3.65 0.05 3.4 -1.2 3.2 -1.05 1.8 -1.05 1.5 -0.95 1.2 -1.8 0.35 -1.65 -0.9 -0.8 -1.35 -0.2 -1.0 L-0.25 -1.1 Q-0.25 -2.2 0.05 -3.15 2.2 -4.7 2.4 -1.6 M-0.2 6.1 Q-0.35 8.25 -2.0 7.5 -3.05 7.0 -2.8 5.8 -2.65 5.15 -2.4 4.55 0.0 2.9 -0.2 6.1" fill="#d2bc40" fill-rule="evenodd" stroke="none"/>
  </g>
</svg>
