<?xml version="1.0" encoding="UTF-8" standalone="no"?>
<svg xmlns:ffdec="https://www.free-decompiler.com/flash" xmlns:xlink="http://www.w3.org/1999/xlink" ffdec:objectType="shape" height="17.15px" width="29.0px" xmlns="http://www.w3.org/2000/svg">
  <g transform="matrix(1.0, 0.0, 0.0, 1.0, 16.8, 9.7)">
    <path d="M12.1 -5.85 Q11.8 -5.35 11.7 -5.85 11.55 -6.25 11.9 -6.35 12.4 -6.3 12.1 -5.85 M11.9 2.55 Q11.55 3.05 11.4 2.5 11.3 2.15 11.65 2.1 12.2 2.15 11.9 2.55 M-1.85 -8.25 Q-2.3 -7.85 -2.3 -8.45 -2.25 -8.8 -1.95 -8.85 -1.4 -8.65 -1.85 -8.25 M-9.8 -9.15 Q-10.3 -8.75 -10.25 -9.35 -10.25 -9.65 -9.95 -9.7 -9.45 -9.5 -9.8 -9.15 M-7.35 6.35 Q-7.05 6.45 -7.05 6.75 -7.0 7.05 -7.2 7.3 -7.4 7.45 -7.65 7.4 L-7.9 7.2 Q-8.0 7.1 -8.0 6.9 -8.05 6.75 -7.95 6.6 L-7.85 6.55 -7.35 6.35 M-16.65 3.5 Q-16.55 3.35 -16.35 3.35 -15.9 3.35 -15.9 3.75 -15.85 4.15 -16.2 4.25 -16.55 4.3 -16.8 4.05 L-16.8 3.85 Q-16.8 3.65 -16.65 3.5" fill="#d2bc40" fill-rule="evenodd" stroke="none"/>
  </g>
</svg>
