<?xml version="1.0" encoding="UTF-8" standalone="no"?>
<svg xmlns:ffdec="https://www.free-decompiler.com/flash" xmlns:xlink="http://www.w3.org/1999/xlink" ffdec:objectType="shape" height="13.95px" width="23.0px" xmlns="http://www.w3.org/2000/svg">
  <g transform="matrix(1.0, 0.0, 0.0, 1.0, 11.5, 15.0)">
    <path d="M7.55 -14.9 Q8.5 -15.25 9.1 -14.25 10.55 -13.8 11.1 -12.75 11.45 -12.05 11.45 -11.0 L11.5 -10.3 Q11.5 -10.05 11.4 -9.9 L10.0 -8.6 9.65 -8.6 Q9.05 -9.05 9.0 -9.95 L9.0 -10.7 Q9.0 -11.2 8.95 -11.45 8.85 -12.1 8.3 -12.15 L7.85 -12.2 Q7.6 -12.25 7.45 -12.35 7.0 -12.75 6.8 -13.1 6.7 -13.4 6.7 -13.8 6.7 -14.1 6.95 -14.4 7.2 -14.75 7.55 -14.9 M5.65 -13.35 Q5.65 -12.6 5.15 -12.05 4.45 -11.3 3.3 -11.75 L2.45 -11.75 Q2.05 -11.35 1.85 -11.2 1.4 -10.85 0.9 -10.85 0.25 -10.85 -0.05 -11.3 -0.2 -11.55 -0.2 -11.75 -0.2 -12.3 0.45 -12.55 1.45 -12.9 1.7 -13.1 1.9 -13.1 2.05 -13.0 2.25 -12.9 2.4 -12.9 2.8 -12.9 3.25 -13.15 L3.9 -13.6 Q4.7 -14.25 5.5 -14.1 5.65 -13.9 5.65 -13.35 M-5.15 -11.25 Q-4.85 -11.35 -4.2 -11.15 L-4.05 -11.05 -3.65 -11.05 Q-3.3 -10.85 -3.15 -10.55 -3.05 -10.35 -3.05 -10.05 -3.05 -9.65 -3.8 -9.25 -4.5 -8.85 -4.5 -8.35 -4.5 -8.0 -4.5 -7.95 -4.4 -7.75 -4.1 -7.45 L-3.75 -7.45 -3.6 -7.35 -2.8 -8.05 Q-1.95 -8.7 -1.55 -8.7 L-0.55 -8.7 Q-0.05 -8.25 -0.05 -8.05 -0.05 -7.4 -0.7 -7.05 -1.05 -6.85 -2.1 -6.55 -3.15 -6.3 -3.65 -6.05 -4.4 -5.6 -4.65 -4.85 -4.75 -4.45 -4.75 -3.9 L-4.7 -2.95 Q-4.7 -1.75 -5.5 -1.05 L-6.5 -1.05 Q-6.9 -1.5 -7.0 -2.3 L-7.05 -3.65 Q-7.05 -4.55 -7.0 -4.75 -6.95 -5.05 -6.8 -5.25 -6.8 -5.55 -6.65 -5.85 L-6.85 -6.05 -7.1 -6.25 -7.45 -6.2 -7.75 -6.1 Q-7.95 -5.85 -8.25 -4.95 -8.5 -4.1 -8.5 -3.85 -8.5 -3.4 -9.0 -2.55 -9.55 -1.65 -9.85 -1.65 L-10.45 -1.65 -10.65 -1.8 Q-10.75 -1.85 -10.95 -1.9 -11.45 -2.7 -11.5 -2.8 -11.5 -2.9 -11.5 -3.45 -11.5 -4.5 -10.9 -5.2 L-10.5 -5.65 Q-10.3 -5.9 -10.3 -6.2 -10.3 -6.3 -10.6 -6.85 -10.95 -7.4 -10.95 -7.75 -10.95 -8.15 -10.55 -8.6 L-9.85 -9.4 Q-9.5 -9.8 -8.1 -10.2 L-5.85 -10.65 Q-5.8 -10.75 -5.6 -11.0 L-5.15 -11.25" fill="#e5eeff" fill-opacity="0.7529412" fill-rule="evenodd" stroke="none"/>
  </g>
</svg>
