<?xml version="1.0" encoding="UTF-8" standalone="no"?>
<svg xmlns:ffdec="https://www.free-decompiler.com/flash" xmlns:xlink="http://www.w3.org/1999/xlink" ffdec:objectType="shape" height="16.35px" width="31.9px" xmlns="http://www.w3.org/2000/svg">
  <g transform="matrix(1.0, 0.0, 0.0, 1.0, 17.35, 18.25)">
    <path d="M4.35 -17.85 Q4.6 -17.75 4.65 -17.7 L4.15 -17.6 3.95 -17.7 Q3.75 -17.75 3.65 -17.8 3.65 -17.85 3.75 -17.95 L3.85 -18.05 Q4.2 -18.0 4.35 -17.85 M8.8 -18.25 L9.0 -18.25 9.2 -18.1 9.35 -17.95 Q9.2 -17.85 9.15 -17.75 L8.85 -17.75 8.8 -17.8 Q8.75 -17.85 8.75 -18.0 L8.75 -18.2 8.8 -18.25 M14.55 -10.95 Q14.55 -10.85 14.45 -10.8 L14.3 -10.95 Q14.2 -11.05 14.2 -11.25 14.2 -11.45 14.3 -11.5 L14.4 -11.5 14.5 -11.2 14.55 -10.95 M13.8 -13.7 Q13.7 -13.65 13.45 -13.65 L13.4 -13.75 Q13.35 -13.85 13.35 -13.9 13.4 -13.95 13.5 -13.95 L13.7 -13.9 Q13.8 -13.8 13.8 -13.7 M-10.3 -15.05 Q-10.3 -15.3 -9.7 -15.65 -9.2 -16.0 -8.85 -16.05 L-8.3 -17.0 Q-7.9 -17.6 -7.5 -17.7 L-6.65 -17.6 -6.25 -17.55 Q-6.2 -17.5 -6.1 -17.45 -6.0 -17.35 -5.95 -17.3 -5.95 -17.25 -6.0 -17.15 -6.05 -17.0 -6.15 -16.95 L-6.85 -17.0 -7.4 -17.0 Q-7.6 -16.95 -8.3 -16.2 -8.85 -15.6 -9.5 -15.55 L-9.65 -15.35 Q-9.7 -15.2 -9.7 -15.1 L-9.85 -15.1 Q-9.95 -15.15 -10.0 -15.25 L-10.25 -14.95 -10.3 -14.85 -10.3 -15.05 M-12.8 -11.15 Q-12.35 -11.1 -12.3 -11.0 -12.45 -10.75 -12.6 -10.75 -12.7 -10.75 -12.9 -10.4 -13.1 -10.1 -13.2 -9.95 -13.5 -9.6 -14.0 -9.45 L-14.15 -9.5 Q-14.2 -9.55 -14.2 -9.75 -14.2 -10.05 -13.95 -10.25 -13.7 -10.45 -13.7 -10.65 -13.7 -10.75 -13.4 -11.05 L-12.8 -11.1 -12.8 -11.15 M-14.7 -8.95 Q-15.75 -8.55 -16.4 -7.45 -17.0 -6.4 -16.9 -5.6 -17.05 -5.7 -17.2 -5.95 -17.35 -6.15 -17.35 -6.3 -17.35 -6.45 -17.25 -6.6 L-17.1 -6.85 Q-17.1 -6.95 -17.15 -7.05 -17.2 -7.2 -17.2 -7.35 -17.2 -8.25 -16.7 -8.6 -16.35 -8.9 -15.35 -9.0 L-14.7 -8.95 M-17.05 -6.5 L-17.1 -6.5 Q-17.15 -6.5 -17.15 -6.35 -17.15 -6.15 -17.1 -6.0 L-17.0 -5.85 Q-17.0 -5.95 -17.0 -6.5 L-17.05 -6.5 M-9.85 -6.9 Q-9.75 -6.8 -9.7 -6.55 -9.7 -6.3 -9.6 -6.15 L-9.7 -5.9 -10.0 -5.8 -10.2 -5.9 Q-10.25 -6.0 -10.25 -6.2 L-10.25 -6.6 Q-10.15 -6.85 -9.85 -6.9 M-9.65 -2.35 L-9.65 -2.05 -9.7 -2.0 -9.95 -1.9 -10.25 -2.15 Q-10.35 -2.25 -10.35 -2.35 -10.35 -2.55 -10.25 -2.65 -10.1 -2.85 -9.7 -2.7 -9.65 -2.65 -9.65 -2.35" fill="#e5eeff" fill-opacity="0.7529412" fill-rule="evenodd" stroke="none"/>
  </g>
</svg>
