<?xml version="1.0" encoding="UTF-8" standalone="no"?>
<svg xmlns:ffdec="https://www.free-decompiler.com/flash" xmlns:xlink="http://www.w3.org/1999/xlink" ffdec:objectType="shape" height="4.45px" width="3.5px" xmlns="http://www.w3.org/2000/svg">
  <g transform="matrix(1.0, 0.0, 0.0, 1.0, 1.75, 2.35)">
    <path d="M-0.35 1.7 Q-0.7 1.4 -0.95 0.95 -1.3 0.35 -1.45 -0.3 -1.55 0.0 -1.4 0.4 -1.0 1.35 -0.35 1.7 M-0.25 0.35 Q-0.35 0.35 -0.4 0.25 -0.45 0.3 -0.35 0.4 -0.05 0.6 -0.05 0.5 -0.15 0.4 -0.25 0.35 M1.7 -0.6 Q2.0 1.15 0.7 1.85 -0.85 2.65 -1.5 0.85 -2.4 -1.55 -0.35 -2.35 1.35 -2.45 1.7 -0.6 M0.45 0.05 Q0.4 -0.25 0.25 -0.5 -0.05 -0.85 -0.4 -0.95 -0.55 -1.0 -0.7 -0.9 L-0.75 -0.75 -0.2 -0.4 0.45 0.05 M0.8 -1.55 Q0.4 -1.75 0.0 -1.9 -0.5 -2.0 -0.3 -1.9 0.2 -1.85 0.55 -1.6 0.9 -1.35 1.15 -1.0 1.05 -1.35 0.8 -1.55" fill="#ffffff" fill-opacity="0.5019608" fill-rule="evenodd" stroke="none"/>
    <path d="M-0.5 -2.15 Q1.4 -2.25 1.35 -0.65 1.5 0.1 1.2 1.0 0.85 2.15 0.1 1.9 -0.45 2.0 -1.25 1.15 -1.8 0.45 -1.7 -0.55 -1.5 -1.85 -0.5 -2.15" fill="#ffffff" fill-rule="evenodd" stroke="none"/>
  </g>
</svg>
