<?xml version="1.0" encoding="UTF-8" standalone="no"?>
<svg xmlns:ffdec="https://www.free-decompiler.com/flash" xmlns:xlink="http://www.w3.org/1999/xlink" ffdec:objectType="shape" height="10.1px" width="21.0px" xmlns="http://www.w3.org/2000/svg">
  <g transform="matrix(1.0, 0.0, 0.0, 1.0, 11.05, 8.45)">
    <path d="M-9.0 -0.25 L-8.95 0.1 -9.05 0.1 -9.1 0.05 -9.05 0.1 -8.95 -0.1 -9.0 -0.25" fill="#ffffff" fill-rule="evenodd" stroke="none"/>
    <path d="M6.15 -4.7 L6.3 -4.85 6.6 -4.85 6.35 -4.6 6.15 -4.7" fill="#999999" fill-rule="evenodd" stroke="none"/>
    <path d="M5.25 1.65 L5.1 1.65 Q2.75 1.65 2.2 0.8 2.05 0.65 2.05 0.45 L1.95 0.35 1.65 0.0 2.3 0.05 Q2.7 0.05 3.1 -0.15 3.25 -0.05 3.35 -0.05 4.15 -0.3 4.85 -1.55 5.15 -2.1 5.35 -2.7 L5.45 -3.0 5.4 -3.1 5.45 -3.35 5.45 -3.45 5.55 -3.3 Q5.5 -3.55 5.4 -3.85 5.2 -4.3 4.75 -4.65 4.0 -5.3 3.05 -5.3 L2.55 -5.25 1.8 -5.05 1.75 -5.0 1.7 -5.0 1.65 -4.95 1.55 -4.95 1.55 -4.9 1.65 -4.9 Q1.4 -4.8 1.2 -4.65 L1.1 -4.65 1.0 -4.55 Q0.7 -4.3 0.45 -4.0 L0.45 -3.95 0.4 -3.85 0.2 -3.4 0.0 -3.4 -0.05 -3.55 Q-0.05 -3.45 -0.15 -3.35 L-0.2 -3.75 -0.2 -3.9 -0.25 -4.1 -0.3 -4.1 -0.35 -4.5 -0.35 -4.7 -0.4 -4.75 Q-0.75 -5.2 -1.3 -5.2 -3.5 -5.2 -4.2 -4.2 -4.6 -3.65 -4.65 -2.9 L-4.75 -2.9 -4.75 -2.75 -4.85 -2.7 Q-4.9 -2.65 -4.95 -2.65 L-5.0 -2.8 Q-5.05 -3.45 -5.65 -3.65 L-5.7 -3.65 -6.8 -3.6 -6.85 -3.6 Q-8.05 -3.6 -8.8 -2.6 -9.35 -1.85 -9.35 -1.4 -9.35 -1.25 -9.1 -0.9 L-9.0 -0.75 -9.0 -0.25 -8.95 -0.1 -9.05 0.1 -9.1 0.05 -9.8 -0.5 -9.9 -0.6 -10.5 -1.15 -10.6 -1.25 Q-10.5 -2.0 -10.05 -2.6 L-9.75 -2.6 Q-9.35 -2.6 -8.85 -3.2 -8.4 -3.65 -8.3 -3.9 L-8.3 -3.95 Q-7.9 -4.1 -7.45 -4.2 -6.4 -4.4 -5.55 -4.25 L-5.5 -4.4 -5.5 -4.35 -5.5 -4.4 -5.35 -4.6 Q-4.7 -5.7 -3.2 -5.95 L-3.2 -5.9 -3.1 -5.85 -2.95 -5.95 -2.95 -6.0 -2.25 -6.05 Q-1.1 -6.05 -0.35 -5.65 L-0.15 -5.5 -0.1 -5.7 -0.05 -5.7 -0.05 -5.75 0.1 -5.95 Q0.55 -6.75 1.3 -7.15 2.0 -7.55 2.5 -7.3 3.0 -7.1 3.05 -6.35 3.45 -6.25 3.9 -5.95 4.8 -5.4 5.55 -4.5 6.3 -3.6 6.3 -3.25 6.3 -2.8 5.85 -1.8 L5.45 -0.8 Q5.45 -0.75 5.65 -0.25 5.9 0.2 5.9 0.45 5.9 0.9 5.4 1.5 L5.25 1.65 M-10.9 -3.6 Q-10.85 -3.75 -10.8 -3.8 -10.7 -3.9 -10.5 -3.9 -10.15 -3.9 -10.05 -3.5 L-10.05 -3.45 -10.05 -3.4 -10.15 -3.3 -10.3 -3.0 -10.5 -3.0 Q-10.8 -3.0 -10.85 -3.25 -10.9 -3.3 -10.9 -3.5 L-10.9 -3.6 M0.1 -5.85 L0.0 -5.6 0.15 -5.95 0.1 -5.85 M5.3 -1.1 L5.35 -1.2 5.25 -1.05 Q5.0 -0.65 4.75 -0.4 5.1 -0.65 5.3 -1.1 M7.1 -4.2 Q7.4 -4.2 7.55 -4.05 7.7 -3.95 7.7 -3.75 7.7 -3.55 7.5 -3.3 7.3 -3.1 7.05 -3.1 6.7 -3.1 6.55 -3.35 6.45 -3.5 6.45 -3.6 6.45 -4.2 7.1 -4.2" fill="#476bb3" fill-rule="evenodd" stroke="none"/>
    <path d="M-0.05 -5.75 Q0.15 -6.2 0.5 -6.6 0.85 -7.1 1.35 -7.5 2.7 -8.6 4.8 -8.45 5.8 -8.4 6.65 -8.05 7.45 -7.8 8.05 -7.3 L8.2 -7.15 Q9.1 -6.45 9.5 -5.55 9.95 -4.7 9.95 -3.6 9.95 -2.2 9.25 -0.9 8.8 -0.1 8.15 0.45 7.05 1.6 5.25 1.65 L5.4 1.5 Q5.9 0.9 5.9 0.45 5.9 0.2 5.65 -0.25 5.45 -0.75 5.45 -0.8 L5.85 -1.8 Q6.3 -2.8 6.3 -3.25 6.3 -3.6 5.55 -4.5 4.8 -5.4 3.9 -5.95 3.45 -6.25 3.05 -6.35 3.0 -7.1 2.5 -7.3 2.0 -7.55 1.3 -7.15 0.55 -6.75 0.1 -5.95 L-0.05 -5.75 M-10.6 -1.25 L-10.75 -1.45 Q-11.05 -2.1 -11.05 -2.7 -11.05 -3.2 -10.9 -3.6 L-10.9 -3.5 Q-10.9 -3.3 -10.85 -3.25 -10.8 -3.0 -10.5 -3.0 L-10.3 -3.0 -10.3 -2.75 -10.25 -2.65 -10.05 -2.6 Q-10.5 -2.0 -10.6 -1.25 M-10.8 -3.8 Q-10.55 -4.25 -10.1 -4.55 -9.3 -5.15 -8.1 -5.25 -6.9 -5.3 -6.1 -4.9 -5.7 -4.65 -5.5 -4.35 L-5.5 -4.4 -5.55 -4.25 Q-6.4 -4.4 -7.45 -4.2 -7.9 -4.1 -8.3 -3.95 L-8.3 -3.9 -8.35 -4.3 Q-9.0 -4.3 -9.7 -3.75 L-10.05 -3.45 -10.05 -3.5 Q-10.15 -3.9 -10.5 -3.9 -10.7 -3.9 -10.8 -3.8 M-5.5 -4.4 Q-5.45 -4.9 -5.1 -5.5 -4.65 -6.3 -4.0 -6.65 -3.15 -7.1 -2.15 -6.7 -1.15 -6.65 -0.45 -6.05 L-0.1 -5.7 -0.15 -5.5 -0.35 -5.65 Q-1.1 -6.05 -2.25 -6.05 L-2.95 -6.0 Q-3.05 -6.05 -3.15 -6.05 L-3.25 -6.05 -3.2 -5.95 Q-4.7 -5.7 -5.35 -4.6 L-5.5 -4.4 M4.7 -8.1 Q4.15 -8.05 3.85 -7.8 3.5 -7.55 3.5 -7.2 3.5 -6.9 3.85 -6.55 4.35 -6.05 5.15 -6.05 5.45 -6.05 6.3 -5.8 L7.7 -5.35 Q7.4 -5.85 7.35 -6.4 7.35 -6.85 6.9 -7.25 5.95 -8.15 4.7 -8.1 M6.15 -4.7 L6.35 -4.6 6.6 -4.85 6.3 -4.85 6.15 -4.7 M7.1 -4.2 Q6.45 -4.2 6.45 -3.6 6.45 -3.5 6.55 -3.35 6.7 -3.1 7.05 -3.1 7.3 -3.1 7.5 -3.3 7.7 -3.55 7.7 -3.75 7.7 -3.95 7.55 -4.05 7.4 -4.2 7.1 -4.2 M7.45 -2.2 Q6.9 -1.75 6.5 -1.1 6.1 -0.45 6.1 0.1 6.1 0.3 6.15 0.35 L6.15 0.4 6.3 0.4 6.65 0.45 Q7.35 0.45 8.1 -0.55 8.75 -1.4 8.75 -1.85 8.75 -2.55 8.35 -2.6 8.0 -2.6 7.45 -2.2" fill="#99beff" fill-rule="evenodd" stroke="none"/>
  </g>
</svg>
