<?xml version="1.0" encoding="UTF-8" standalone="no"?>
<svg xmlns:ffdec="https://www.free-decompiler.com/flash" xmlns:xlink="http://www.w3.org/1999/xlink" ffdec:objectType="shape" height="14.45px" width="30.2px" xmlns="http://www.w3.org/2000/svg">
  <g transform="matrix(1.0, 0.0, 0.0, 1.0, 16.25, 15.45)">
    <path d="M0.2 -10.75 L0.2 -10.75 M-12.65 -6.1 L-12.85 -6.25 -12.65 -6.2 -12.65 -6.1" fill="#ffffff" fill-rule="evenodd" stroke="none"/>
    <path d="M-13.4 -6.4 L-13.1 -6.3 -13.55 -6.3 -13.4 -6.4" fill="#999999" fill-rule="evenodd" stroke="none"/>
    <path d="M-12.7 -6.5 Q-12.85 -6.95 -13.0 -7.5 -13.25 -8.4 -13.3 -9.3 L-13.35 -9.8 Q-12.85 -9.0 -11.85 -9.0 -10.85 -9.0 -9.5 -10.35 L-8.5 -11.3 Q-8.0 -11.8 -7.8 -11.9 -4.55 -13.2 -1.75 -13.55 -0.85 -13.65 -0.65 -13.75 -0.35 -13.9 -0.35 -14.5 -0.35 -15.0 -0.55 -15.45 0.8 -14.45 1.35 -12.95 1.6 -12.45 1.65 -11.95 L1.7 -12.0 Q1.9 -12.4 2.2 -12.75 2.35 -13.05 2.5 -13.35 2.7 -13.7 3.0 -14.0 L3.0 -13.65 Q3.0 -12.95 3.5 -12.55 4.5 -11.7 7.45 -11.7 8.8 -11.7 9.9 -10.85 10.45 -10.35 10.7 -10.25 11.2 -9.95 11.85 -9.95 13.05 -9.95 13.7 -10.75 13.95 -9.85 13.95 -9.2 13.95 -8.7 13.1 -6.55 12.55 -5.0 12.35 -4.5 12.65 -5.4 12.65 -6.0 L12.65 -6.15 Q12.9 -6.35 13.05 -6.95 13.15 -7.45 13.15 -8.0 13.15 -8.55 12.9 -8.85 12.65 -9.1 12.25 -9.1 11.9 -9.1 11.65 -8.85 L11.4 -9.15 Q9.6 -11.05 5.3 -11.65 4.05 -11.35 3.15 -10.85 L3.15 -11.2 Q3.15 -11.8 2.85 -11.95 2.55 -12.1 2.15 -11.85 2.0 -11.75 1.85 -11.6 L1.85 -11.6 1.85 -11.75 1.95 -12.1 1.8 -11.7 1.6 -11.95 Q1.1 -12.55 0.5 -12.9 -0.15 -13.35 -0.6 -13.2 -1.05 -13.05 -1.05 -12.15 L-1.05 -12.0 Q-2.8 -12.4 -4.95 -11.95 -7.7 -11.4 -9.5 -9.85 -10.35 -9.1 -10.85 -8.2 L-10.95 -8.35 Q-11.25 -8.55 -11.65 -8.35 -12.05 -8.15 -12.35 -7.7 -12.7 -7.25 -12.7 -6.75 L-12.7 -6.5 M-13.55 -4.7 Q-14.05 -3.8 -14.1 -2.6 -14.3 -2.75 -14.5 -2.85 -14.85 -2.95 -15.15 -2.75 -15.4 -2.55 -15.4 -2.05 -15.4 -2.0 -15.25 -1.7 L-15.6 -2.15 Q-16.25 -3.05 -16.25 -3.7 -16.25 -4.1 -16.05 -4.6 -15.8 -5.2 -15.35 -5.65 L-14.85 -5.95 Q-14.25 -6.5 -13.4 -6.4 L-13.55 -6.3 -13.8 -6.25 -13.65 -6.25 Q-13.9 -5.95 -13.9 -5.45 -13.95 -5.2 -13.85 -5.05 -13.75 -4.8 -13.55 -4.7 M-14.6 -5.7 Q-14.85 -5.85 -15.2 -5.6 -15.55 -5.35 -15.8 -4.85 -16.05 -4.25 -16.05 -3.7 -16.1 -3.45 -16.05 -3.25 -15.95 -2.85 -15.45 -2.85 -14.9 -2.85 -14.55 -3.65 -14.3 -4.25 -14.3 -4.75 -14.3 -5.5 -14.6 -5.7" fill="#99beff" fill-rule="evenodd" stroke="none"/>
    <path d="M-12.7 -6.5 L-12.7 -6.75 Q-12.7 -7.25 -12.35 -7.7 -12.05 -8.15 -11.65 -8.35 -11.25 -8.55 -10.95 -8.35 L-10.85 -8.2 Q-11.55 -7.0 -11.55 -5.55 L-11.55 -5.45 Q-12.05 -5.65 -12.45 -5.6 -13.1 -5.5 -13.5 -4.8 L-13.55 -4.7 Q-13.75 -4.8 -13.85 -5.05 -13.95 -5.2 -13.9 -5.45 -13.9 -5.95 -13.65 -6.25 -13.15 -6.2 -12.6 -6.05 L-12.45 -6.0 -12.5 -6.0 -12.5 -6.05 -12.65 -6.1 -12.65 -6.2 -12.5 -6.1 -12.7 -6.5 M-1.05 -12.0 L-1.05 -12.15 Q-1.05 -13.05 -0.6 -13.2 -0.15 -13.35 0.5 -12.9 1.1 -12.55 1.6 -11.95 L1.8 -11.7 1.7 -11.55 1.7 -11.25 1.8 -11.6 1.85 -11.6 1.85 -11.6 Q2.0 -11.75 2.15 -11.85 2.55 -12.1 2.85 -11.95 3.15 -11.8 3.15 -11.2 L3.15 -10.85 Q2.2 -10.35 1.6 -9.6 L1.3 -10.6 1.25 -10.75 Q0.75 -11.45 -0.45 -11.85 L-1.05 -12.0 M11.65 -8.85 Q11.9 -9.1 12.25 -9.1 12.65 -9.1 12.9 -8.85 13.15 -8.55 13.15 -8.0 13.15 -7.45 13.05 -6.95 12.9 -6.35 12.65 -6.15 12.6 -7.7 11.65 -8.85 M-14.1 -2.6 L-14.15 -2.15 -14.15 -2.1 Q-14.15 -1.55 -14.0 -1.1 L-14.15 -1.1 -14.15 -1.05 Q-14.2 -1.0 -14.25 -1.0 -14.75 -1.15 -15.25 -1.7 -15.4 -2.0 -15.4 -2.05 -15.4 -2.55 -15.15 -2.75 -14.85 -2.95 -14.5 -2.85 -14.3 -2.75 -14.1 -2.6" fill="#476bb3" fill-rule="evenodd" stroke="none"/>
  </g>
</svg>
