<?xml version="1.0" encoding="UTF-8" standalone="no"?>
<svg xmlns:ffdec="https://www.free-decompiler.com/flash" xmlns:xlink="http://www.w3.org/1999/xlink" ffdec:objectType="shape" height="12.25px" width="24.0px" xmlns="http://www.w3.org/2000/svg">
  <g transform="matrix(1.0, 0.0, 0.0, 1.0, 11.85, 9.8)">
    <path d="M1.45 1.0 L1.45 0.95 1.4 0.9 1.4 0.8 1.7 0.85 1.45 1.0" fill="#ffffff" fill-rule="evenodd" stroke="none"/>
    <path d="M0.9 -7.75 L1.3 -8.15 Q1.65 -8.45 1.95 -8.65 3.45 -9.95 5.3 -9.75 6.05 -9.8 6.7 -9.75 5.75 -9.7 5.05 -9.45 4.15 -9.15 4.15 -8.6 4.15 -8.15 5.05 -7.75 6.35 -7.15 9.05 -7.15 9.55 -7.15 9.8 -7.45 10.0 -7.7 10.0 -8.1 10.0 -8.45 9.8 -8.7 10.35 -8.3 10.75 -7.75 11.1 -7.45 11.35 -7.05 12.15 -5.8 12.15 -3.75 L12.1 -3.35 Q12.05 -3.55 11.9 -3.65 L11.9 -3.8 Q11.9 -4.75 11.7 -5.55 11.85 -4.85 11.85 -4.0 L11.8 -3.75 Q11.6 -3.85 11.3 -3.9 10.55 -3.95 9.45 -3.3 8.35 -2.6 7.55 -1.55 6.7 -0.35 6.7 0.85 L6.75 1.2 Q6.9 1.6 7.4 1.6 9.4 1.6 10.9 -0.25 9.45 2.1 6.9 2.4 L5.85 2.45 4.65 2.35 Q5.0 2.2 5.3 2.0 5.8 1.6 5.8 1.1 5.8 0.5 5.1 0.3 L4.9 0.25 Q5.9 -0.25 6.7 -1.15 7.35 -1.95 7.7 -2.85 8.05 -3.7 8.05 -4.3 8.05 -5.25 7.6 -5.8 6.55 -7.1 3.45 -7.1 L2.95 -7.05 Q3.05 -7.2 3.05 -7.3 3.05 -8.05 2.6 -8.25 2.15 -8.45 1.5 -8.15 1.15 -7.95 0.9 -7.75 M-0.05 -6.15 L-0.05 -6.1 Q-0.3 -6.35 -0.75 -6.55 -1.65 -6.9 -2.9 -6.85 -4.15 -6.8 -5.0 -6.3 -5.7 -5.85 -5.9 -5.3 L-5.75 -5.25 -6.2 -5.25 Q-6.85 -5.2 -7.65 -4.9 -8.4 -4.6 -9.0 -4.15 L-8.8 -4.5 Q-8.25 -5.1 -8.25 -5.3 -8.25 -5.55 -8.35 -5.7 L-7.35 -5.6 -8.1 -5.7 -8.4 -5.7 Q-8.5 -5.85 -8.7 -5.9 L-8.85 -5.95 Q-9.15 -6.0 -9.45 -5.85 L-9.8 -5.7 Q-10.45 -5.4 -10.9 -4.85 -11.4 -4.2 -11.4 -3.5 L-11.35 -3.4 -11.4 -3.25 Q-11.45 -3.0 -11.4 -2.8 -11.3 -2.4 -10.8 -2.4 L-10.5 -2.5 Q-10.85 -1.8 -10.85 -1.1 L-10.85 -1.05 Q-11.1 -1.3 -11.3 -1.65 -11.85 -2.55 -11.85 -3.15 -11.85 -4.15 -11.1 -4.95 -9.95 -6.3 -7.3 -6.1 L-6.2 -5.25 Q-6.1 -6.75 -5.2 -7.45 -4.95 -7.65 -4.6 -7.75 -4.0 -8.05 -3.25 -7.8 -2.0 -7.9 -1.0 -7.15 -0.6 -6.85 -0.3 -6.5 L-0.1 -6.15 -0.05 -6.15 M9.3 -4.45 Q9.1 -5.0 8.75 -4.95 8.4 -4.95 8.4 -4.55 8.4 -4.4 8.45 -4.3 L8.45 -4.2 8.55 -4.15 8.85 -4.15 Q9.05 -4.15 9.15 -4.3 L9.3 -4.45 M4.05 -7.55 Q4.05 -7.7 4.05 -7.75 L4.0 -7.8 Q3.7 -7.8 3.55 -7.7 3.4 -7.6 3.3 -7.45 L3.5 -7.25 Q3.65 -7.1 3.75 -7.1 3.95 -7.1 4.0 -7.2 L4.05 -7.25 4.05 -7.55 M8.25 -4.1 Q8.25 -3.5 7.9 -2.65 7.5 -1.7 6.85 -0.9 L6.7 -0.7 Q7.1 -1.1 7.45 -1.6 7.9 -2.35 8.15 -3.2 8.3 -3.8 8.3 -4.05 8.3 -4.5 8.15 -4.95 8.25 -4.55 8.25 -4.1 M6.45 0.4 L6.35 0.2 6.0 0.2 Q5.85 0.2 5.85 0.4 5.85 0.55 5.9 0.55 L6.35 0.55 6.45 0.4" fill="#99beff" fill-rule="evenodd" stroke="none"/>
    <path d="M0.9 -7.75 Q1.15 -7.95 1.5 -8.15 2.15 -8.45 2.6 -8.25 3.05 -8.05 3.05 -7.3 3.05 -7.2 2.95 -7.05 1.85 -7.0 1.05 -6.5 0.55 -6.2 0.3 -5.85 L0.0 -6.05 Q-0.75 -6.4 -2.0 -6.4 -3.9 -6.4 -4.9 -5.05 L-4.95 -5.0 -5.3 -4.3 -5.35 -4.25 -5.55 -4.4 Q-5.85 -4.8 -6.3 -4.8 -6.7 -4.8 -7.15 -4.55 -8.0 -4.6 -8.8 -3.8 -9.25 -3.35 -9.6 -2.65 -9.85 -2.0 -9.85 -1.6 L-9.8 -1.25 -9.85 -1.0 Q-9.85 -0.75 -9.8 -0.45 -10.4 -0.55 -10.85 -1.05 L-10.85 -1.1 Q-10.85 -1.8 -10.5 -2.5 -10.0 -2.7 -9.25 -3.8 L-9.2 -3.85 -9.0 -4.15 Q-8.4 -4.6 -7.65 -4.9 -6.85 -5.2 -6.2 -5.25 L-5.75 -5.25 -5.9 -5.3 Q-5.7 -5.85 -5.0 -6.3 -4.15 -6.8 -2.9 -6.85 -1.65 -6.9 -0.75 -6.55 -0.3 -6.35 -0.05 -6.1 L-0.05 -6.15 0.0 -6.1 Q0.0 -6.5 0.35 -7.0 0.55 -7.4 0.9 -7.75 M4.9 0.25 L5.1 0.3 Q5.8 0.5 5.8 1.1 5.8 1.6 5.3 2.0 5.0 2.2 4.65 2.35 4.0 2.25 3.45 2.05 L3.4 2.05 Q2.7 2.05 2.05 1.6 1.6 1.3 1.45 1.0 L1.7 0.85 2.1 0.9 Q3.7 0.9 4.9 0.25 M4.05 -7.55 L4.05 -7.25 4.0 -7.2 Q3.95 -7.1 3.75 -7.1 3.65 -7.1 3.5 -7.25 L3.3 -7.45 Q3.4 -7.6 3.55 -7.7 3.7 -7.8 4.0 -7.8 L4.05 -7.75 Q4.05 -7.7 4.05 -7.55 M9.3 -4.45 L9.15 -4.3 Q9.05 -4.15 8.85 -4.15 L8.55 -4.15 8.45 -4.2 8.45 -4.3 Q8.4 -4.4 8.4 -4.55 8.4 -4.95 8.75 -4.95 9.1 -5.0 9.3 -4.45 M6.45 0.4 L6.35 0.55 5.9 0.55 Q5.85 0.55 5.85 0.4 5.85 0.2 6.0 0.2 L6.35 0.2 6.45 0.4" fill="#476bb3" fill-rule="evenodd" stroke="none"/>
  </g>
</svg>
