<?xml version="1.0" encoding="UTF-8" standalone="no"?>
<svg xmlns:ffdec="https://www.free-decompiler.com/flash" xmlns:xlink="http://www.w3.org/1999/xlink" ffdec:objectType="shape" height="13.0px" width="24.4px" xmlns="http://www.w3.org/2000/svg">
  <g transform="matrix(1.0, 0.0, 0.0, 1.0, 11.75, 10.3)">
    <path d="M2.35 -7.65 Q1.65 -7.2 1.1 -7.2 L0.8 -7.25 0.55 -7.55 0.75 -8.15 0.8 -8.25 Q1.05 -8.4 1.35 -8.5 1.8 -8.55 2.1 -8.45 2.4 -8.25 2.4 -7.85 L2.35 -7.65 M-0.45 -6.7 Q-2.65 -8.1 -4.45 -7.4 -5.3 -7.05 -5.85 -6.25 -6.1 -5.85 -6.2 -5.45 L-6.3 -5.5 -6.4 -5.7 Q-6.45 -6.0 -6.45 -6.3 -6.45 -7.2 -5.5 -7.65 -4.7 -8.05 -3.4 -8.0 -2.25 -8.0 -1.35 -7.65 -0.4 -7.3 -0.4 -6.85 L-0.45 -6.7 M3.45 2.4 Q3.3 2.3 3.2 2.25 L3.05 2.05 Q3.0 1.95 2.95 1.8 L2.95 1.75 Q2.95 1.3 3.6 1.05 4.05 0.9 4.7 0.9 L4.95 0.65 Q5.4 0.8 5.4 1.25 5.4 1.85 5.05 2.05 4.6 2.35 3.45 2.4 M-6.65 -5.4 L-6.7 -5.35 -7.2 -5.05 -7.8 -5.05 -7.8 -5.25 Q-7.8 -5.75 -7.25 -5.75 -6.7 -5.8 -6.65 -5.4 M-10.75 -2.25 Q-10.2 -2.05 -10.2 -1.5 L-10.2 -1.15 -10.25 -1.0 Q-10.4 -0.9 -10.6 -0.9 -10.95 -0.9 -11.05 -1.3 -11.1 -1.45 -11.1 -1.7 -11.1 -2.15 -10.75 -2.25" fill="#476bb3" fill-rule="evenodd" stroke="none"/>
    <path d="M10.95 -7.9 Q11.65 -7.85 12.1 -7.25 12.65 -6.65 12.65 -5.85 12.65 -5.4 12.3 -4.75 11.8 -3.75 11.0 -3.75 10.05 -3.75 9.6 -4.45 9.3 -4.9 9.3 -5.25 9.3 -6.65 9.8 -7.35 10.25 -7.95 10.95 -7.9 M0.8 -8.25 Q0.9 -8.55 1.1 -8.8 1.65 -9.55 2.35 -9.95 3.1 -10.4 3.55 -10.3 4.15 -10.15 4.15 -9.25 4.15 -8.85 3.0 -8.05 L2.35 -7.65 2.4 -7.85 Q2.4 -8.25 2.1 -8.45 1.8 -8.55 1.35 -8.5 1.05 -8.4 0.8 -8.25 M4.95 -7.25 L5.25 -7.3 5.6 -7.25 5.7 -7.05 5.65 -6.9 Q5.55 -6.8 5.35 -6.8 L5.1 -6.85 5.0 -6.9 5.0 -6.85 Q4.95 -6.85 4.95 -7.05 4.95 -7.35 4.95 -7.25 M-6.3 -5.5 L-6.4 -5.65 Q-6.5 -5.8 -6.5 -6.0 -6.5 -6.65 -6.05 -7.35 -5.55 -8.25 -4.75 -8.65 -4.3 -8.85 -3.85 -8.9 -2.1 -8.8 -0.7 -7.5 -0.3 -7.15 0.15 -6.6 L0.0 -6.55 -0.05 -6.6 -0.1 -6.55 -0.15 -6.55 -0.05 -6.45 -0.45 -6.7 -0.4 -6.85 Q-0.4 -7.3 -1.35 -7.65 -2.25 -8.0 -3.4 -8.0 -4.7 -8.05 -5.5 -7.65 -6.45 -7.2 -6.45 -6.3 -6.45 -6.0 -6.4 -5.7 L-6.3 -5.5 M9.15 -3.85 Q9.15 -3.8 9.15 -3.6 9.15 -3.4 8.65 -2.75 8.1 -2.15 7.9 -2.05 L7.7 -2.1 Q7.65 -2.15 7.65 -2.35 7.65 -2.65 8.0 -3.2 8.45 -3.9 9.1 -3.9 L9.15 -3.85 M9.1 -5.0 Q8.95 -4.85 8.65 -4.85 8.25 -4.85 8.15 -5.1 8.1 -5.2 8.1 -5.45 8.1 -5.9 8.65 -5.9 9.15 -5.85 9.15 -5.25 9.15 -5.1 9.1 -5.0 M10.55 0.95 Q9.1 2.3 8.85 2.3 L8.6 2.25 Q8.55 2.25 8.55 2.05 8.55 1.85 9.25 1.45 9.95 0.95 10.55 0.95 M4.95 0.65 Q5.5 0.2 5.8 0.2 L6.1 0.25 6.2 0.35 5.75 1.0 Q6.05 1.1 6.25 1.2 6.9 1.5 6.9 1.95 6.9 2.3 6.6 2.5 6.3 2.7 5.75 2.7 4.15 2.7 3.45 2.4 4.6 2.35 5.05 2.05 5.4 1.85 5.4 1.25 5.4 0.8 4.95 0.65 M-7.8 -5.05 Q-8.25 -5.15 -8.35 -5.4 -8.45 -5.6 -8.35 -5.8 -8.35 -6.6 -7.5 -6.35 -7.15 -6.25 -6.9 -6.05 -6.6 -5.85 -6.6 -5.6 L-6.65 -5.4 Q-6.7 -5.8 -7.25 -5.75 -7.8 -5.75 -7.8 -5.25 L-7.8 -5.05 M-6.1 -4.5 L-6.15 -4.4 -6.2 -4.35 Q-6.25 -4.3 -6.45 -4.3 -6.75 -4.3 -6.9 -4.55 L-6.95 -4.7 Q-6.95 -5.15 -6.5 -5.1 -6.05 -5.05 -6.05 -4.7 L-6.1 -4.5 M-11.05 -5.15 Q-11.3 -4.6 -11.55 -4.45 L-11.65 -4.75 -11.3 -5.5 Q-11.05 -5.85 -10.7 -5.9 -10.9 -5.4 -11.05 -5.15 M-10.25 -1.0 L-10.3 -0.95 Q-10.4 -0.65 -10.65 -0.65 -11.25 -0.65 -11.55 -1.3 -11.7 -1.6 -11.75 -1.9 -11.75 -2.2 -11.5 -2.3 L-10.95 -2.3 -10.75 -2.25 Q-11.1 -2.15 -11.1 -1.7 -11.1 -1.45 -11.05 -1.3 -10.95 -0.9 -10.6 -0.9 -10.4 -0.9 -10.25 -1.0" fill="#99beff" fill-rule="evenodd" stroke="none"/>
  </g>
</svg>
