<?xml version="1.0" encoding="UTF-8" standalone="no"?>
<svg xmlns:ffdec="https://www.free-decompiler.com/flash" xmlns:xlink="http://www.w3.org/1999/xlink" ffdec:objectType="shape" height="45.1px" width="32.75px" xmlns="http://www.w3.org/2000/svg">
  <g transform="matrix(1.0, 0.0, 0.0, 1.0, 16.5, 43.5)">
    <path d="M3.4 -18.15 L3.55 -17.75 3.65 -17.35 3.7 -17.3 3.8 -16.9 4.0 -17.2 Q4.2 -17.5 4.25 -17.8 4.4 -18.1 4.55 -18.6 L4.75 -19.35 4.85 -19.35 Q5.0 -18.55 5.35 -17.65 L6.0 -16.05 Q6.45 -14.75 6.45 -12.85 6.45 -11.75 6.2 -11.0 5.85 -9.85 5.0 -9.85 4.75 -9.85 4.65 -9.95 L4.5 -10.05 4.0 -10.1 3.55 -10.6 Q3.3 -10.8 3.0 -10.8 2.55 -10.8 2.25 -10.35 2.1 -10.1 1.8 -9.2 1.05 -7.1 -0.3 -6.0 L-1.6 -6.0 Q-3.2 -6.0 -3.75 -7.2 -4.0 -7.75 -4.0 -8.65 -4.0 -9.5 -3.45 -10.3 -2.95 -11.05 -2.95 -11.3 -2.95 -11.55 -3.15 -11.95 -3.4 -12.45 -3.65 -12.45 -3.9 -12.45 -4.75 -11.8 -5.55 -11.2 -6.3 -11.15 -7.2 -11.45 -7.4 -11.9 -7.45 -12.05 -7.45 -12.85 -7.45 -14.3 -6.4 -15.55 -5.55 -16.55 -3.35 -18.1 L-3.4 -17.9 -3.3 -18.0 Q-3.1 -18.35 -2.75 -18.95 -2.45 -19.45 -2.2 -19.7 -2.0 -19.5 -1.95 -19.05 -1.85 -18.8 -1.85 -18.6 -1.85 -18.3 -1.95 -17.9 -2.0 -17.4 -2.15 -17.1 -1.1 -17.85 -0.75 -19.3 L-0.5 -20.45 Q-0.3 -21.05 0.0 -21.4 0.1 -21.2 0.3 -20.5 L0.6 -19.15 Q1.05 -17.35 1.65 -17.35 2.4 -17.35 2.5 -17.95 2.55 -18.1 2.55 -18.3 L3.25 -19.7 Q3.45 -19.5 3.45 -19.05 3.35 -18.35 3.4 -18.15 M-4.8 -16.5 Q-4.4 -16.75 -4.05 -17.1 L-4.45 -16.75 -4.8 -16.5" fill="#ffffff" fill-rule="evenodd" stroke="none"/>
    <path d="M0.5 -42.75 Q0.5 -42.45 0.4 -42.3 0.25 -42.05 -0.2 -41.95 L-0.85 -42.2 -0.85 -42.3 -0.9 -42.75 Q-0.9 -43.1 -0.65 -43.3 -0.45 -43.5 -0.2 -43.5 0.1 -43.5 0.25 -43.3 0.5 -43.1 0.5 -42.75 M10.05 -37.9 Q10.3 -37.5 10.3 -37.2 10.7 -36.75 10.7 -36.25 10.7 -35.1 10.4 -34.4 9.9 -33.1 9.65 -31.75 9.45 -29.9 9.3 -29.05 9.05 -27.55 8.35 -27.55 L8.25 -27.55 8.1 -27.15 Q7.65 -26.05 7.65 -25.4 7.65 -25.05 8.0 -24.4 L8.85 -23.0 Q10.1 -20.9 10.1 -19.2 10.1 -18.7 9.35 -16.2 L8.6 -13.75 9.1 -11.7 Q9.6 -9.6 9.6 -8.65 L9.6 -7.2 Q9.65 -6.35 9.5 -5.8 9.15 -4.15 7.55 -2.95 6.4 -2.1 5.0 -1.7 3.6 -1.3 2.9 -0.85 2.75 -0.75 2.5 -0.3 L2.0 0.5 Q1.3 1.6 0.35 1.6 -0.2 1.6 -0.55 1.4 -2.9 1.4 -3.45 1.15 -3.95 0.95 -4.7 0.0 L-5.45 -0.85 Q-6.05 -1.6 -6.4 -1.8 -7.55 -2.5 -8.15 -3.55 -8.3 -3.9 -8.8 -5.4 -9.05 -6.25 -10.4 -7.45 -11.95 -8.8 -12.2 -9.15 -12.45 -9.55 -12.75 -11.05 -13.05 -12.45 -13.05 -12.8 -13.05 -14.85 -11.2 -16.75 L-9.95 -18.0 Q-9.35 -18.6 -9.35 -18.95 -9.35 -19.45 -9.8 -19.9 L-10.8 -20.65 Q-12.25 -21.75 -12.25 -23.15 -12.25 -23.95 -12.1 -24.35 -11.85 -25.0 -11.1 -25.0 -10.55 -25.0 -10.25 -24.5 L-10.1 -24.1 Q-10.0 -23.9 -9.85 -23.8 -9.6 -23.65 -8.7 -23.75 L-7.3 -23.85 Q-6.3 -23.85 -6.0 -23.45 -5.8 -22.95 -5.6 -22.75 L-5.55 -22.7 Q-5.5 -22.7 -5.5 -23.0 -5.5 -23.6 -5.85 -25.15 -6.25 -26.7 -6.25 -27.35 -6.25 -27.95 -6.0 -28.8 -5.75 -29.8 -5.25 -30.65 -4.0 -32.95 -1.95 -32.8 -1.8 -32.65 -1.7 -32.5 L-1.8 -32.4 -1.7 -32.25 Q-1.6 -32.1 -1.6 -31.8 -1.6 -31.55 -1.75 -30.6 -1.95 -29.65 -1.95 -29.45 -1.95 -29.2 -1.6 -28.3 L-1.05 -27.05 Q-0.4 -27.35 -0.1 -27.9 0.05 -28.2 0.15 -28.85 0.25 -29.45 0.4 -29.65 0.7 -30.0 1.35 -30.0 2.35 -30.0 2.35 -28.75 2.35 -28.35 2.25 -27.9 L2.15 -27.45 Q2.15 -27.15 2.85 -27.0 L3.55 -26.95 Q4.05 -26.95 4.5 -28.2 4.85 -29.25 4.85 -29.55 4.85 -29.8 4.65 -30.25 4.5 -30.75 4.5 -30.95 4.5 -31.35 4.65 -31.6 4.9 -32.0 5.55 -32.1 6.9 -31.85 7.65 -31.25 L7.65 -31.3 Q7.6 -31.75 7.45 -32.0 7.15 -32.85 6.0 -33.45 L4.45 -33.45 Q3.95 -33.6 3.85 -33.85 3.8 -33.95 3.8 -34.2 3.8 -34.45 4.5 -35.7 5.0 -36.5 5.4 -37.0 L5.4 -37.05 Q5.4 -37.55 6.05 -38.25 6.65 -38.9 7.45 -39.3 8.25 -39.7 8.8 -39.5 9.3 -39.3 9.4 -38.6 L9.45 -38.55 Q9.8 -38.3 10.05 -37.9 M15.45 -32.4 Q15.8 -32.4 16.0 -32.2 16.25 -32.0 16.25 -31.7 16.25 -31.3 15.85 -31.05 15.55 -30.85 15.4 -30.85 14.95 -30.85 14.75 -31.25 14.65 -31.45 14.65 -31.65 14.65 -32.0 14.9 -32.2 15.15 -32.4 15.45 -32.4 M-15.95 -29.55 Q-15.25 -30.05 -14.05 -29.15 -14.8 -28.7 -15.0 -27.95 -15.1 -27.65 -15.2 -27.55 -15.35 -27.45 -15.75 -27.45 -16.3 -27.45 -16.45 -27.85 -16.55 -28.1 -16.5 -28.35 -16.5 -29.15 -15.95 -29.55 M-4.65 -40.1 Q-4.9 -39.9 -5.15 -39.85 L-5.9 -40.0 -5.95 -40.1 Q-6.0 -40.15 -6.0 -40.4 -6.0 -40.65 -5.75 -40.85 -5.5 -41.05 -5.15 -41.1 -4.35 -41.25 -4.35 -40.6 -4.35 -40.35 -4.65 -40.1 M-6.05 -30.4 Q-5.9 -30.15 -5.9 -29.75 -5.9 -29.5 -6.05 -29.3 -6.3 -28.85 -6.85 -28.8 -8.05 -28.75 -8.5 -29.1 -8.8 -29.35 -8.8 -29.75 -8.8 -30.3 -8.5 -30.55 -8.1 -30.9 -6.85 -30.95 -6.25 -30.75 -6.05 -30.4" fill="#bffeff" fill-opacity="0.3529412" fill-rule="evenodd" stroke="none"/>
  </g>
</svg>
