<?xml version="1.0" encoding="UTF-8" standalone="no"?>
<svg xmlns:ffdec="https://www.free-decompiler.com/flash" xmlns:xlink="http://www.w3.org/1999/xlink" ffdec:objectType="shape" height="2.1px" width="3.65px" xmlns="http://www.w3.org/2000/svg">
  <g transform="matrix(1.0, 0.0, 0.0, 1.0, 0.05, 9.4)">
    <path d="M3.6 -8.6 Q3.6 -8.1 3.0 -7.75 2.15 -7.3 0.6 -7.3 -0.05 -7.3 -0.05 -7.8 -0.05 -8.4 0.5 -8.8 1.05 -9.2 1.8 -9.3 L3.05 -9.25 Q3.6 -9.1 3.6 -8.6 M1.1 -7.65 Q1.3 -7.75 1.3 -7.95 1.3 -8.35 0.95 -8.35 0.55 -8.35 0.55 -7.95 0.5 -7.9 0.55 -7.8 0.65 -7.6 0.9 -7.6 1.0 -7.6 1.1 -7.65" fill="#ffffff" fill-opacity="0.7529412" fill-rule="evenodd" stroke="none"/>
    <path d="M1.1 -7.65 Q1.0 -7.6 0.9 -7.6 0.65 -7.6 0.55 -7.8 0.5 -7.9 0.55 -7.95 0.55 -8.35 0.95 -8.35 1.3 -8.35 1.3 -7.95 1.3 -7.75 1.1 -7.65" fill="#ffff00" fill-opacity="0.7529412" fill-rule="evenodd" stroke="none"/>
  </g>
</svg>
