<?xml version="1.0" encoding="UTF-8" standalone="no"?>
<svg xmlns:ffdec="https://www.free-decompiler.com/flash" xmlns:xlink="http://www.w3.org/1999/xlink" ffdec:objectType="shape" height="29.8px" width="65.1px" xmlns="http://www.w3.org/2000/svg">
  <g transform="matrix(1.0, 0.0, 0.0, 1.0, 16.55, 34.1)">
    <path d="M26.55 -32.0 L26.55 -31.75 Q26.55 -31.45 26.3 -31.35 26.15 -31.25 26.0 -31.25 25.8 -31.25 25.7 -31.3 L25.6 -31.45 25.6 -31.65 Q25.75 -31.95 25.95 -32.05 26.1 -32.1 26.5 -32.05 L26.55 -32.0 M27.7 -32.6 Q27.5 -32.65 27.45 -32.7 27.7 -33.0 28.75 -33.5 30.0 -34.0 30.95 -34.05 L31.15 -34.1 32.25 -34.05 Q32.95 -33.45 32.95 -33.25 32.95 -32.5 31.75 -30.9 30.45 -29.25 30.2 -28.8 L30.1 -28.9 Q30.05 -28.9 30.05 -29.15 L30.7 -30.55 Q31.3 -32.0 31.3 -32.45 31.3 -32.7 31.3 -32.8 L31.1 -33.0 Q30.45 -33.2 30.1 -33.2 29.4 -33.2 28.7 -33.0 28.05 -32.75 27.9 -32.55 L27.7 -32.6 M24.6 -31.9 Q24.75 -31.7 24.75 -31.6 L24.55 -31.55 Q24.4 -31.6 24.4 -31.65 L24.35 -31.7 Q24.35 -31.4 24.5 -31.2 L24.5 -31.05 Q24.5 -31.0 24.25 -31.0 24.0 -31.0 23.95 -31.1 23.9 -31.15 23.95 -31.4 23.05 -30.95 21.5 -29.8 L19.6 -28.35 Q20.05 -29.35 21.5 -30.65 23.05 -32.05 24.1 -32.25 L24.6 -31.9 M23.1 -22.25 Q23.85 -22.55 24.35 -22.45 24.9 -22.35 24.9 -21.65 24.9 -21.45 24.55 -20.9 L24.1 -20.25 Q24.0 -20.35 24.0 -20.5 L24.05 -20.85 24.0 -21.2 Q24.0 -21.35 24.0 -21.45 23.55 -21.6 23.2 -21.6 22.7 -21.6 22.2 -21.15 21.6 -20.6 21.5 -20.55 L21.3 -20.55 Q21.25 -20.55 21.25 -20.8 21.25 -21.05 21.85 -21.5 22.4 -21.95 23.1 -22.25 M14.15 -14.65 Q14.45 -14.65 14.45 -14.0 14.45 -13.75 14.0 -12.9 13.5 -12.05 13.45 -12.05 12.8 -12.05 12.55 -12.2 12.45 -12.3 12.45 -12.55 12.45 -12.8 12.75 -13.35 13.05 -13.85 13.45 -14.2 13.9 -14.65 14.15 -14.65 M22.2 -14.5 Q22.45 -14.75 22.85 -15.4 L23.55 -16.4 Q24.45 -17.5 25.85 -16.95 L25.9 -16.65 25.6 -16.3 25.9 -16.2 26.4 -16.0 Q26.6 -16.7 27.15 -17.0 27.7 -17.35 27.7 -16.4 27.7 -16.0 26.25 -15.15 L25.95 -14.95 25.85 -15.05 Q25.4 -15.4 24.75 -15.3 24.1 -15.25 23.65 -14.8 23.2 -14.35 23.15 -13.6 L23.1 -13.55 Q22.45 -12.8 22.35 -12.8 L22.25 -12.8 Q22.1 -13.15 21.8 -13.4 21.35 -13.8 20.65 -13.85 L20.3 -13.85 20.4 -13.9 20.45 -13.95 20.45 -14.0 Q20.3 -14.0 20.15 -13.8 19.8 -13.75 19.5 -13.55 19.2 -13.65 19.15 -13.85 19.1 -14.0 19.15 -14.2 19.15 -14.65 19.65 -15.3 20.2 -16.0 20.7 -16.0 21.65 -16.0 22.2 -14.5 M6.45 -26.15 Q6.45 -26.6 6.25 -26.8 5.95 -27.05 5.3 -27.05 3.45 -27.05 2.15 -25.6 1.8 -25.2 1.4 -24.5 1.05 -23.9 0.95 -23.85 0.65 -23.95 0.45 -24.4 0.2 -25.0 0.05 -25.25 -0.75 -24.95 -1.2 -24.35 -1.7 -23.65 -1.95 -23.5 L-2.05 -23.55 -2.1 -23.65 -2.25 -23.5 -2.35 -23.5 -2.1 -23.85 Q-2.1 -24.3 -1.05 -25.5 L-0.85 -25.75 Q-0.1 -26.65 0.35 -26.65 L0.6 -26.7 Q0.8 -26.7 1.1 -26.55 L1.3 -26.45 Q3.85 -28.7 5.75 -28.6 6.65 -28.6 7.1 -28.05 7.6 -27.5 7.6 -26.55 7.6 -26.2 7.3 -25.3 6.9 -24.3 6.55 -24.2 6.5 -24.15 6.45 -24.15 6.4 -24.15 6.4 -24.35 L6.65 -24.95 Q6.55 -25.1 6.5 -25.4 6.45 -25.65 6.45 -26.15 M3.9 -18.1 Q3.85 -18.1 3.85 -18.3 3.85 -18.6 4.25 -18.8 4.6 -19.05 5.05 -19.1 5.55 -19.15 5.8 -19.0 6.05 -18.75 5.9 -18.25 L5.1 -18.0 4.55 -18.0 4.2 -18.05 3.95 -18.1 3.9 -18.1 M5.55 -14.9 Q5.75 -15.15 6.0 -15.25 L6.45 -15.25 Q6.7 -15.05 6.7 -14.65 6.7 -14.3 6.45 -13.95 6.25 -13.6 5.9 -13.6 5.5 -13.6 5.35 -13.95 5.3 -14.1 5.35 -14.3 5.35 -14.6 5.55 -14.9 M9.85 -17.75 Q10.65 -17.85 10.85 -17.5 10.9 -17.4 10.9 -17.1 L10.9 -16.8 10.85 -16.6 10.75 -16.6 10.45 -16.1 Q10.2 -15.75 10.0 -15.6 L9.95 -15.45 Q9.6 -14.7 9.2 -14.25 L9.1 -14.25 Q9.35 -15.35 9.55 -15.75 9.75 -16.2 9.95 -16.4 9.9 -16.65 9.75 -16.8 9.65 -16.9 9.3 -17.1 8.65 -17.5 8.65 -18.3 8.65 -18.5 8.45 -18.75 8.2 -19.05 7.85 -19.05 7.7 -19.05 7.6 -18.8 7.4 -18.6 7.25 -18.55 L7.05 -18.6 Q7.0 -18.65 7.0 -18.85 7.0 -19.05 7.1 -19.25 L6.7 -19.25 7.55 -19.95 Q7.95 -20.45 8.45 -20.75 9.1 -21.1 9.45 -20.9 9.95 -20.65 9.95 -19.6 9.95 -19.45 9.85 -19.2 9.9 -18.6 9.85 -17.75 M8.3 -11.75 L8.3 -11.8 Q8.35 -11.8 8.35 -11.6 8.35 -10.5 7.6 -8.95 6.9 -7.4 6.45 -7.4 6.2 -7.4 5.95 -7.2 5.65 -6.95 5.4 -6.9 5.25 -6.95 5.2 -7.0 5.1 -7.1 5.1 -7.35 5.1 -7.65 6.15 -9.25 7.35 -11.05 8.3 -11.75 M18.45 -12.75 Q18.45 -12.5 18.25 -12.15 18.05 -11.7 17.7 -11.7 17.4 -11.7 17.3 -11.9 17.3 -12.0 17.3 -12.2 17.3 -13.0 17.9 -13.2 18.1 -13.25 18.3 -13.1 18.45 -13.0 18.45 -12.75 M14.1 -7.75 Q14.1 -7.8 14.5 -8.4 14.9 -9.1 15.05 -9.45 15.15 -9.7 15.3 -10.35 15.45 -10.9 15.9 -11.1 16.15 -10.6 16.2 -9.55 16.3 -8.55 16.6 -8.0 16.5 -7.75 16.1 -7.55 15.65 -7.3 15.2 -7.3 15.0 -7.3 14.65 -7.4 L14.2 -7.55 14.15 -7.5 Q14.1 -7.5 14.1 -7.75 M38.8 -21.75 Q38.75 -21.8 38.75 -22.05 38.75 -22.25 38.9 -22.55 39.05 -22.85 39.05 -23.0 39.05 -23.55 38.25 -23.95 37.35 -24.4 35.85 -24.4 35.0 -24.4 33.7 -24.1 L33.15 -23.95 Q32.35 -23.6 31.55 -23.05 L30.05 -21.9 Q29.4 -21.4 29.15 -21.4 29.0 -21.4 28.8 -21.65 L28.55 -21.95 Q27.9 -21.95 27.35 -21.7 26.95 -21.45 26.85 -21.45 L26.6 -21.5 26.6 -21.55 26.55 -21.5 Q26.55 -21.45 26.55 -21.7 L26.55 -21.8 26.45 -21.8 26.65 -22.0 Q26.9 -22.35 27.7 -22.8 28.6 -23.35 29.05 -23.35 L29.1 -23.35 29.2 -23.4 Q29.5 -23.4 29.65 -23.3 L29.75 -23.2 Q29.8 -22.85 29.8 -22.65 30.9 -23.45 32.65 -24.3 34.55 -25.25 36.25 -25.75 38.2 -26.3 39.35 -26.05 40.7 -25.8 40.7 -24.45 40.7 -23.9 40.1 -23.1 L39.6 -22.4 39.4 -22.05 Q39.15 -21.6 39.05 -21.55 L38.8 -21.75 M39.55 -18.5 L39.55 -18.6 39.3 -18.45 Q39.5 -18.85 40.0 -19.15 L40.1 -19.2 Q40.25 -19.35 40.45 -19.4 40.8 -19.55 41.05 -19.5 L41.5 -19.5 41.5 -19.15 Q41.6 -19.0 41.65 -18.75 L41.65 -18.65 42.4 -19.0 Q43.15 -19.4 43.25 -19.4 L43.35 -19.4 Q43.55 -19.6 43.75 -19.45 44.05 -19.25 44.05 -18.75 44.05 -18.6 43.75 -17.95 43.45 -17.3 43.3 -17.2 L43.0 -17.2 42.95 -17.15 Q42.9 -17.15 42.9 -17.35 L43.2 -17.9 43.15 -18.15 43.15 -18.2 Q43.15 -18.25 42.9 -18.25 42.75 -18.25 42.35 -18.05 41.95 -17.9 41.75 -17.9 L41.4 -17.95 41.25 -18.0 41.2 -18.85 41.1 -18.9 Q41.05 -19.0 40.8 -19.0 40.7 -19.0 40.3 -18.65 L39.9 -18.3 39.65 -18.25 Q39.55 -18.25 39.55 -18.5 M35.45 -15.85 Q35.1 -16.5 34.85 -16.85 33.4 -16.8 33.2 -16.65 L33.0 -16.8 34.2 -17.65 35.5 -17.6 Q35.7 -17.4 35.8 -17.15 L35.9 -16.9 35.85 -16.4 Q35.8 -16.15 35.45 -15.85 M35.55 -17.0 Q35.4 -17.2 35.4 -17.3 L34.3 -17.35 Q34.85 -17.25 35.25 -17.1 L35.55 -17.0 M46.1 -16.65 L46.35 -16.75 46.45 -16.75 Q48.55 -17.35 48.55 -16.1 48.55 -15.2 48.0 -14.35 47.45 -13.6 46.2 -12.5 L46.0 -12.5 Q45.95 -12.55 45.95 -12.75 45.95 -12.95 46.05 -13.05 46.2 -13.15 46.2 -13.3 46.2 -13.45 46.5 -13.95 46.75 -14.45 46.95 -14.7 L46.95 -15.45 46.45 -15.4 Q46.25 -15.4 46.1 -15.95 45.4 -15.9 44.9 -15.65 44.45 -15.35 44.25 -15.3 L44.25 -15.25 Q44.2 -15.25 44.2 -15.4 L44.2 -15.5 Q44.2 -15.7 44.9 -16.1 45.45 -16.4 46.1 -16.65 M26.95 -18.6 Q26.95 -18.35 26.8 -18.15 26.65 -18.0 26.35 -18.0 25.6 -18.0 25.6 -18.55 25.6 -18.8 25.85 -19.05 26.05 -19.25 26.3 -19.3 26.95 -19.5 26.95 -18.6 M27.9 -18.1 L27.7 -18.2 Q27.6 -18.25 27.6 -18.5 27.6 -18.75 27.7 -18.8 L27.9 -18.85 Q28.15 -18.75 28.2 -18.6 L28.15 -18.3 28.05 -18.2 Q28.0 -18.15 27.9 -18.1 M30.4 -11.25 Q30.75 -11.25 31.05 -11.1 L31.7 -10.7 31.75 -10.5 Q31.6 -10.4 30.8 -9.65 30.2 -9.05 29.85 -8.95 29.65 -9.1 29.6 -9.15 29.55 -9.25 29.55 -9.5 29.55 -10.25 29.7 -10.7 29.95 -11.25 30.4 -11.25 M32.85 -7.8 Q33.2 -9.15 33.55 -10.4 33.55 -9.55 33.8 -8.7 34.25 -7.05 35.3 -7.05 35.85 -7.05 36.05 -7.75 L36.5 -6.85 Q36.6 -6.55 36.6 -6.0 36.6 -5.5 36.55 -5.4 36.45 -5.2 36.05 -5.2 35.6 -5.2 35.2 -5.45 34.9 -5.35 34.65 -5.35 L34.45 -5.45 Q34.25 -5.45 34.3 -5.3 34.35 -5.15 34.2 -5.15 33.15 -5.15 32.9 -5.45 32.8 -5.55 32.8 -5.95 L32.85 -6.2 Q32.65 -5.7 32.5 -5.45 L32.45 -5.4 Q32.4 -5.4 32.4 -5.65 32.4 -5.9 32.85 -7.8 M28.0 -11.1 Q28.45 -12.5 28.9 -13.1 29.6 -14.0 30.85 -14.35 29.0 -11.8 28.85 -10.15 28.75 -9.6 28.85 -8.7 28.95 -7.45 28.95 -6.95 28.95 -6.5 28.65 -6.25 28.35 -6.0 27.9 -6.0 L27.25 -6.05 26.1 -6.15 25.6 -6.15 25.2 -6.75 Q26.45 -7.5 27.1 -8.8 27.5 -9.45 28.0 -11.1 M44.4 -11.1 Q44.05 -10.5 43.7 -10.45 L43.4 -10.5 Q43.25 -10.6 43.25 -10.8 43.25 -11.55 44.8 -11.95 44.6 -11.45 44.4 -11.1 M42.7 -9.3 Q42.7 -9.45 43.55 -9.9 L44.75 -9.85 Q44.9 -9.6 44.95 -9.25 L45.0 -9.2 45.05 -8.85 Q45.05 -8.6 44.8 -8.25 44.65 -8.0 44.45 -7.75 44.0 -7.1 43.9 -6.65 L43.95 -6.5 Q43.95 -6.15 43.65 -5.75 L43.2 -5.25 Q42.5 -4.5 41.8 -4.3 L41.7 -4.4 41.6 -4.4 Q41.45 -4.45 41.4 -4.5 41.7 -5.0 42.2 -5.6 42.75 -6.3 42.95 -6.6 42.8 -6.65 42.75 -6.7 L42.8 -6.7 42.75 -6.75 42.7 -6.7 Q42.65 -6.7 42.65 -6.75 L41.95 -6.85 Q41.9 -6.85 41.8 -6.95 42.65 -7.7 43.25 -8.55 L43.45 -8.9 43.55 -9.1 Q43.5 -9.15 43.45 -9.25 L43.4 -9.3 42.85 -9.2 42.75 -9.1 Q42.7 -9.1 42.7 -9.3 M43.8 -9.35 L43.8 -9.3 43.95 -9.4 43.75 -9.4 43.8 -9.35 M-7.45 -22.05 Q-7.35 -21.7 -7.25 -21.45 L-7.05 -21.5 -6.6 -21.6 Q-6.2 -21.6 -6.0 -21.2 -5.85 -20.95 -5.85 -20.8 -5.85 -20.35 -6.15 -19.9 -6.45 -19.45 -6.75 -19.45 L-6.55 -19.95 Q-6.55 -20.15 -6.5 -20.35 L-6.65 -20.4 -7.0 -20.35 Q-7.6 -20.35 -7.9 -20.95 -8.05 -21.3 -8.15 -22.2 -8.25 -23.2 -8.35 -23.45 -8.5 -24.0 -8.9 -24.0 -9.9 -24.0 -11.6 -21.8 L-12.9 -20.05 Q-13.6 -19.1 -14.0 -18.8 L-14.15 -18.8 Q-14.2 -18.8 -14.25 -19.0 -14.35 -18.95 -14.45 -18.95 L-14.5 -18.9 -14.55 -19.15 Q-14.55 -19.45 -13.35 -21.15 -12.05 -23.0 -10.85 -24.0 -9.95 -25.05 -9.05 -25.1 -7.85 -25.55 -7.55 -24.35 -7.45 -23.85 -7.45 -22.65 L-7.45 -22.05 M-11.75 -7.05 L-11.25 -7.0 -11.0 -7.0 -10.9 -6.95 Q-10.85 -6.95 -10.85 -6.75 -10.85 -6.65 -11.05 -6.45 -11.3 -6.2 -11.45 -6.2 L-12.35 -6.2 -12.5 -6.5 Q-12.15 -7.05 -11.75 -7.05 M-15.95 -5.7 Q-16.1 -5.6 -16.2 -5.55 L-16.35 -5.6 Q-16.5 -5.65 -16.55 -5.7 -16.3 -6.05 -16.2 -6.15 -16.0 -6.25 -15.6 -5.95 -15.75 -5.85 -15.95 -5.7 M-5.1 -7.6 L-4.95 -7.3 -2.45 -7.55 Q-2.35 -7.8 -1.6 -8.5 -0.85 -9.25 -0.75 -9.25 -0.6 -9.05 -0.6 -8.85 -0.6 -8.75 -0.65 -8.45 -0.65 -8.35 -0.55 -8.1 -0.4 -7.85 -0.4 -7.65 -0.4 -7.25 -1.0 -7.2 -1.25 -7.15 -2.4 -7.15 L-3.4 -7.1 Q-3.4 -7.05 -3.95 -6.95 L-4.8 -6.85 -5.05 -6.85 Q-5.15 -6.7 -5.35 -6.6 -5.7 -6.4 -6.6 -6.4 L-7.15 -6.55 -7.7 -6.65 Q-8.05 -6.65 -8.0 -6.7 L-8.05 -6.65 -8.05 -6.85 -7.6 -7.4 Q-7.05 -8.0 -6.85 -8.55 -6.75 -8.7 -6.6 -9.35 -6.4 -9.95 -6.05 -10.1 -5.8 -9.8 -5.8 -9.6 L-5.9 -9.4 Q-5.9 -8.8 -5.4 -8.05 L-5.25 -7.85 -5.0 -7.9 -5.1 -7.6 M-5.95 -13.6 Q-5.95 -13.2 -6.3 -13.05 -6.5 -12.95 -6.9 -12.95 -7.5 -12.95 -7.5 -13.6 -7.5 -13.9 -7.3 -14.1 -7.1 -14.25 -6.7 -14.25 -6.25 -14.25 -6.05 -14.0 -5.95 -13.8 -5.95 -13.6" fill="#bffbff" fill-rule="evenodd" stroke="none"/>
  </g>
</svg>
