<?xml version="1.0" encoding="UTF-8" standalone="no"?>
<svg xmlns:ffdec="https://www.free-decompiler.com/flash" xmlns:xlink="http://www.w3.org/1999/xlink" ffdec:objectType="shape" height="29.75px" width="55.8px" xmlns="http://www.w3.org/2000/svg">
  <g transform="matrix(1.0, 0.0, 0.0, 1.0, 13.75, 26.45)">
    <path d="M2.35 -15.45 Q2.2 -15.3 2.05 -15.3 L1.65 -15.65 Q1.65 -15.95 1.9 -16.05 2.05 -16.15 2.45 -16.05 2.5 -16.1 2.5 -15.75 2.5 -15.55 2.35 -15.45 M-6.3 -13.5 L-6.7 -13.9 Q-6.7 -14.35 -6.3 -14.25 -6.05 -14.1 -5.95 -13.9 -6.15 -13.6 -6.3 -13.5 M9.45 -9.75 Q9.55 -9.75 9.55 -9.5 9.55 -9.3 9.5 -9.25 L9.45 -9.1 9.35 -9.05 9.2 -9.0 9.0 -9.05 Q8.9 -9.1 8.9 -9.35 8.9 -9.55 9.05 -9.65 9.2 -9.8 9.4 -9.75 L9.45 -9.75 M30.4 -25.0 L30.15 -25.05 Q30.05 -25.1 30.05 -25.3 30.05 -25.65 30.35 -25.6 30.55 -25.6 30.85 -25.35 L30.75 -25.1 Q30.7 -25.05 30.4 -25.0 M23.45 -25.65 L23.1 -25.95 Q23.05 -26.0 23.05 -26.05 L23.05 -26.3 Q23.15 -26.45 23.45 -26.45 L23.8 -26.05 Q23.6 -25.75 23.45 -25.65 M29.5 -0.4 L29.55 -0.35 Q29.6 -0.3 29.6 -0.05 29.6 0.1 29.35 0.2 L28.6 0.45 28.2 0.05 Q28.2 -0.45 29.0 -0.45 L29.3 -0.45 29.5 -0.4 M37.4 -2.05 Q37.2 -2.1 37.1 -2.2 37.25 -2.4 37.35 -2.45 L37.55 -2.5 37.7 -2.3 Q37.6 -2.15 37.4 -2.05 M41.95 -14.4 L42.0 -14.3 Q42.05 -14.25 42.05 -14.05 42.05 -13.75 41.75 -13.6 41.55 -13.45 41.45 -13.45 41.15 -13.45 41.05 -13.7 41.0 -13.8 41.0 -14.0 41.0 -14.35 41.25 -14.4 L41.95 -14.4 M18.75 2.4 Q18.75 2.65 18.55 2.8 18.4 2.95 18.2 2.95 L17.85 2.95 17.8 2.9 17.8 2.8 17.75 2.5 Q17.75 2.25 17.85 2.15 18.05 2.0 18.7 2.1 L18.75 2.1 18.75 2.4 M9.05 3.2 L8.9 3.2 8.6 3.3 8.2 2.9 Q8.2 2.55 8.45 2.5 L9.05 2.55 Q9.05 2.65 9.15 2.85 L9.05 3.2 M-2.15 2.45 Q-2.15 2.7 -2.35 2.8 L-2.7 2.9 -3.0 2.6 Q-3.15 2.5 -3.15 2.4 -3.15 2.2 -2.95 2.1 -2.7 1.9 -2.25 2.1 L-2.2 2.2 Q-2.15 2.25 -2.15 2.45 M-13.2 -8.65 L-13.25 -8.6 Q-13.35 -8.55 -13.45 -8.55 L-13.65 -8.6 Q-13.75 -8.65 -13.75 -8.85 -13.75 -9.15 -13.6 -9.2 L-13.1 -9.25 -13.05 -8.95 -13.2 -8.65" fill="#ffffff" fill-rule="evenodd" stroke="none"/>
  </g>
</svg>
