<?xml version="1.0" encoding="UTF-8" standalone="no"?>
<svg xmlns:ffdec="https://www.free-decompiler.com/flash" xmlns:xlink="http://www.w3.org/1999/xlink" ffdec:objectType="shape" height="13.75px" width="27.75px" xmlns="http://www.w3.org/2000/svg">
  <g transform="matrix(1.0, 0.0, 0.0, 1.0, 10.75, 13.75)">
    <path d="M2.1 -0.05 L1.9 -0.05 2.1 -0.05" fill="#ffffff" fill-opacity="0.7529412" fill-rule="evenodd" stroke="none"/>
    <path d="M-6.9 -2.5 Q-6.7 -2.5 -6.7 -2.4 -6.7 -2.3 -6.75 -2.2 -6.85 -2.15 -6.9 -2.15 -7.0 -2.15 -7.05 -2.25 L-7.1 -2.35 Q-7.1 -2.55 -6.9 -2.5" fill="#b5fffe" fill-opacity="0.7529412" fill-rule="evenodd" stroke="none"/>
    <path d="M-3.45 -0.3 L-3.5 -0.3 -6.25 -0.6 -6.3 -0.65 Q-6.3 -0.8 -5.9 -0.95 -5.45 -1.15 -4.9 -1.15 -3.45 -1.25 -3.45 -0.4 L-3.45 -0.3 M9.55 -1.4 Q9.25 -1.2 8.9 -1.0 L8.6 -0.85 8.55 -0.75 Q8.35 -0.6 8.2 -0.6 L8.1 -0.6 Q6.75 -0.1 5.15 0.0 6.25 -0.8 7.35 -1.3 9.3 -2.2 9.55 -1.4 M4.4 0.0 L3.1 0.0 2.1 -0.05 1.9 -0.05 0.65 -0.1 Q0.8 -0.2 1.15 -0.35 1.8 -0.65 2.5 -0.8 4.5 -1.25 4.5 -0.45 4.5 -0.25 4.4 -0.05 L4.4 0.0" fill="#ff0000" fill-opacity="0.7529412" fill-rule="evenodd" stroke="none"/>
    <path d="M0.65 -0.1 L0.4 -0.15 -0.05 -0.15 -0.3 -0.2 -3.45 -0.3 -3.45 -0.4 Q-3.45 -1.25 -4.9 -1.15 -5.45 -1.15 -5.9 -0.95 -6.3 -0.8 -6.3 -0.65 -7.35 -0.8 -8.15 -1.05 L-8.2 -1.05 Q-8.45 -1.05 -8.75 -1.2 L-9.0 -1.3 Q-9.6 -1.55 -10.0 -1.85 L-10.15 -1.95 -10.25 -2.0 -10.35 -2.15 -10.3 -2.15 Q-10.55 -2.25 -10.75 -2.75 L-10.75 -2.85 Q-10.6 -2.85 -10.4 -2.6 L-10.35 -2.5 Q-9.85 -2.25 -9.3 -2.0 L-9.1 -1.95 -8.65 -2.0 Q-8.0 -2.0 -7.5 -1.8 -7.0 -1.55 -6.75 -1.55 -5.7 -1.55 -5.1 -1.8 L-4.35 -2.05 Q-3.05 -2.0 -2.15 -1.4 L-1.45 -0.9 Q-1.15 -0.7 -0.85 -0.6 L-0.3 -0.65 1.05 -1.2 Q2.15 -1.55 3.6 -1.85 4.15 -2.0 4.95 -1.55 5.25 -1.4 5.45 -1.2 L6.55 -1.85 7.5 -2.4 8.05 -2.85 Q8.75 -3.35 9.25 -3.5 9.85 -3.75 10.15 -3.8 10.7 -3.85 10.75 -3.3 L10.8 -3.2 10.75 -3.05 Q10.7 -2.75 10.45 -2.3 10.15 -1.8 9.75 -1.55 L9.55 -1.4 Q9.3 -2.2 7.35 -1.3 6.25 -0.8 5.15 0.0 L4.4 0.0 4.4 -0.05 Q4.5 -0.25 4.5 -0.45 4.5 -1.25 2.5 -0.8 1.8 -0.65 1.15 -0.35 0.8 -0.2 0.65 -0.1 M16.85 -13.4 Q16.8 -13.4 16.7 -13.5 16.65 -13.55 16.65 -13.6 16.65 -13.75 16.85 -13.75 17.0 -13.75 17.0 -13.6 17.0 -13.4 16.85 -13.4" fill="#ffcf00" fill-opacity="0.7529412" fill-rule="evenodd" stroke="none"/>
  </g>
</svg>
