<?xml version="1.0" encoding="UTF-8" standalone="no"?>
<svg xmlns:ffdec="https://www.free-decompiler.com/flash" xmlns:xlink="http://www.w3.org/1999/xlink" ffdec:objectType="shape" height="19.7px" width="46.95px" xmlns="http://www.w3.org/2000/svg">
  <g transform="matrix(1.0, 0.0, 0.0, 1.0, 25.1, 18.05)">
    <path d="M7.2 -11.7 L7.35 -11.55 Q7.3 -11.5 7.15 -11.5 L6.95 -11.7 7.05 -11.8 7.2 -11.7 M13.05 -10.25 L12.85 -10.2 Q12.65 -10.25 12.45 -10.35 12.5 -10.45 13.0 -10.3 L13.05 -10.25 M14.95 -1.5 Q14.95 -1.4 14.8 -1.15 L14.55 -0.9 14.5 -1.0 Q14.55 -1.2 14.65 -1.35 14.75 -1.5 14.95 -1.6 14.95 -1.7 14.95 -1.5 M21.85 -4.35 L21.75 -4.3 Q21.75 -4.35 21.65 -4.55 L21.6 -4.8 Q21.7 -4.75 21.8 -4.65 L21.85 -4.45 21.85 -4.35 M1.0 1.5 L0.85 1.65 Q0.75 1.6 0.7 1.55 0.8 1.45 0.85 1.45 0.95 1.4 0.95 1.45 L1.0 1.5 M-24.9 -6.2 L-25.1 -6.05 -25.1 -6.1 -24.9 -6.25 -24.7 -6.35 -24.9 -6.2 M-3.1 -17.65 L-3.2 -17.6 -3.6 -18.0 -3.6 -18.05 Q-3.45 -18.05 -3.25 -17.9 -3.15 -17.8 -3.1 -17.7 L-3.1 -17.65 M-18.2 -3.95 L-18.55 -3.85 -18.6 -3.9 -18.6 -4.05 -18.2 -4.1 -18.2 -3.95" fill="#262626" fill-opacity="0.8" fill-rule="evenodd" stroke="none"/>
  </g>
</svg>
