<?xml version="1.0" encoding="UTF-8" standalone="no"?>
<svg xmlns:ffdec="https://www.free-decompiler.com/flash" xmlns:xlink="http://www.w3.org/1999/xlink" ffdec:objectType="shape" height="6.75px" width="6.3px" xmlns="http://www.w3.org/2000/svg">
  <g transform="matrix(1.0, 0.0, 0.0, 1.0, 3.25, 4.3)">
    <path d="M2.4 -2.75 L2.5 -2.7 Q2.9 -2.25 2.55 -1.7 L2.4 -1.55 2.45 -1.55 Q2.6 -1.55 2.75 -1.5 L3.0 -1.25 Q3.05 -0.85 2.9 -0.5 2.7 -0.2 2.45 -0.15 L2.45 0.1 2.55 0.1 Q2.7 0.15 2.75 0.3 2.8 0.4 2.75 0.55 2.65 0.9 2.3 1.05 L2.2 1.0 2.2 1.15 Q2.15 1.5 1.9 1.7 1.6 1.85 1.4 1.7 L1.25 2.1 Q1.0 2.65 0.45 2.35 L0.4 2.2 -0.3 2.2 Q-0.4 2.2 -0.45 2.15 -0.75 2.55 -1.25 2.25 L-1.4 1.95 -1.65 1.9 -1.7 2.0 Q-1.8 2.3 -2.05 2.45 -2.6 2.45 -2.5 1.8 -2.45 1.6 -2.3 1.45 L-2.4 1.35 -2.55 1.05 -2.85 1.05 Q-3.35 0.55 -3.2 -0.15 -3.05 -0.7 -2.6 -0.9 -2.85 -1.25 -2.7 -1.7 -2.6 -1.95 -2.45 -2.1 -2.7 -2.95 -1.8 -3.3 -1.2 -3.15 -1.0 -2.9 L-0.95 -3.05 Q-0.8 -3.35 -0.6 -3.5 -0.65 -3.6 -0.65 -3.7 L-0.65 -4.05 -0.5 -4.2 Q-0.45 -4.3 -0.35 -4.3 0.15 -4.2 -0.05 -3.65 L-0.1 -3.6 0.0 -3.6 0.25 -3.55 0.35 -3.05 0.55 -3.05 0.6 -3.3 Q0.75 -3.8 1.15 -3.9 L1.25 -3.9 1.55 -3.85 1.75 -3.8 Q1.9 -3.55 1.95 -3.25 2.05 -2.95 1.95 -2.65 L2.0 -2.7 2.15 -2.75 2.4 -2.75" fill="#ffffff" fill-rule="evenodd" stroke="none"/>
  </g>
</svg>
