<?xml version="1.0" encoding="UTF-8" standalone="no"?>
<svg xmlns:ffdec="https://www.free-decompiler.com/flash" xmlns:xlink="http://www.w3.org/1999/xlink" ffdec:objectType="shape" height="19.1px" width="39.05px" xmlns="http://www.w3.org/2000/svg">
  <g transform="matrix(1.0, 0.0, 0.0, 1.0, 23.75, 17.1)">
    <path d="M6.25 -11.9 L5.9 -11.75 5.85 -11.85 6.0 -11.95 6.05 -12.0 Q6.2 -11.95 6.25 -11.9 M14.45 -10.8 L14.3 -10.85 Q14.45 -11.0 14.65 -11.1 14.85 -11.2 14.75 -11.05 L14.45 -10.8 M15.1 -2.2 L15.05 -2.35 15.1 -2.6 15.2 -2.6 Q15.3 -2.55 15.3 -2.45 15.3 -2.35 15.1 -2.2 M-23.45 -6.55 L-23.65 -6.5 -23.75 -6.55 -23.7 -6.65 -23.55 -6.7 -23.05 -6.65 -23.05 -6.55 -23.1 -6.5 -23.2 -6.5 -23.45 -6.55 M-2.85 -16.85 L-2.85 -16.7 -2.95 -16.65 -3.05 -16.7 Q-3.0 -16.8 -3.0 -17.1 L-2.9 -17.1 Q-2.85 -17.05 -2.85 -16.85 M-0.35 1.75 L-0.25 1.8 Q-0.15 1.8 -0.15 1.85 L-0.2 1.9 -0.95 2.0 -1.05 1.9 Q-0.85 1.8 -0.7 1.75 L-0.35 1.75" fill="#262626" fill-opacity="0.8" fill-rule="evenodd" stroke="none"/>
  </g>
</svg>
