<?xml version="1.0" encoding="UTF-8" standalone="no"?>
<svg xmlns:ffdec="https://www.free-decompiler.com/flash" xmlns:xlink="http://www.w3.org/1999/xlink" ffdec:objectType="shape" height="7.7px" width="7.35px" xmlns="http://www.w3.org/2000/svg">
  <g transform="matrix(1.0, 0.0, 0.0, 1.0, 3.8, 4.7)">
    <path d="M0.2 -4.6 L0.2 -4.4 Q0.25 -4.2 0.1 -4.05 L0.0 -3.95 -0.25 -3.95 Q-0.45 -4.0 -0.55 -4.15 L-0.55 -4.35 Q-0.55 -4.65 -0.25 -4.7 L0.0 -4.7 0.2 -4.6 M2.4 -3.05 Q3.55 -2.45 2.5 -1.75 4.6 -0.85 2.35 0.1 L2.3 0.1 2.15 0.35 2.1 0.45 Q3.1 1.7 1.55 2.05 L1.4 2.35 Q1.05 2.95 0.45 2.7 0.3 2.5 0.3 2.25 L-0.2 2.25 Q-0.35 2.45 -0.65 2.7 -1.2 3.1 -1.45 2.45 -1.6 2.0 -1.5 1.7 -2.35 1.75 -2.25 0.8 -2.55 1.35 -3.05 1.6 -4.05 1.0 -3.65 0.1 -3.4 -0.5 -2.95 -0.7 -3.15 -1.4 -2.8 -1.85 -2.95 -2.15 -2.9 -2.5 -2.85 -3.2 -2.3 -3.55 -2.2 -3.65 -2.15 -3.65 -1.35 -3.75 -1.25 -3.05 -1.05 -3.7 -0.35 -3.9 0.15 -3.5 0.3 -3.2 L0.3 -3.25 0.4 -3.35 Q0.4 -4.3 1.55 -4.35 2.85 -3.85 2.0 -2.9 2.15 -3.0 2.4 -3.05 M3.15 1.0 Q2.9 1.35 2.6 1.1 2.5 0.9 2.6 0.65 2.75 0.4 2.95 0.35 3.5 0.55 3.15 1.0 M-2.75 2.3 Q-2.75 1.9 -2.4 1.8 -1.75 1.9 -1.9 2.55 -2.0 2.95 -2.4 3.0 -2.75 2.8 -2.75 2.3" fill="#ffffff" fill-rule="evenodd" stroke="none"/>
  </g>
</svg>
