<?xml version="1.0" encoding="UTF-8" standalone="no"?>
<svg xmlns:ffdec="https://www.free-decompiler.com/flash" xmlns:xlink="http://www.w3.org/1999/xlink" ffdec:objectType="shape" height="55.1px" width="52.3px" xmlns="http://www.w3.org/2000/svg">
  <g transform="matrix(1.0, 0.0, 0.0, 1.0, 23.6, 40.25)">
    <path d="M21.1 -40.2 L20.5 -39.45 Q20.15 -38.9 19.8 -38.5 19.6 -38.25 19.45 -37.7 L19.1 -36.8 Q18.75 -34.0 18.75 -33.5 18.75 -32.9 19.0 -31.35 L19.35 -29.4 Q19.55 -28.25 19.8 -27.45 19.95 -27.0 20.35 -26.35 20.3 -26.55 20.3 -27.05 20.3 -27.4 20.45 -28.05 20.65 -28.7 20.65 -29.05 20.95 -29.1 21.15 -28.7 L21.4 -28.3 22.05 -27.95 22.5 -27.7 23.9 -27.9 24.25 -27.9 Q25.35 -27.9 25.65 -27.15 L25.75 -26.95 Q25.85 -26.65 25.9 -26.25 L25.95 -25.2 26.0 -24.9 26.1 -24.35 Q26.15 -24.25 26.2 -24.15 L27.15 -23.15 Q27.65 -22.65 27.95 -22.0 L28.3 -21.5 Q28.7 -20.85 28.7 -20.5 28.65 -20.1 28.65 -19.7 28.65 -19.05 28.55 -18.45 28.45 -17.75 28.3 -17.3 28.0 -16.4 27.05 -15.3 L26.8 -15.3 Q26.8 -15.75 26.85 -16.65 L26.9 -17.65 26.8 -18.85 26.6 -20.15 Q26.5 -20.65 25.95 -21.4 25.3 -22.35 25.15 -22.6 25.05 -22.9 24.8 -23.85 24.6 -24.6 24.25 -25.05 23.9 -25.5 23.2 -26.1 22.1 -27.05 21.4 -27.05 20.85 -27.05 20.9 -26.4 L21.05 -25.45 21.05 -25.4 Q21.2 -24.85 21.45 -24.3 22.05 -23.15 22.05 -22.3 22.05 -21.45 21.95 -21.0 21.75 -20.2 21.55 -19.2 L21.45 -19.2 21.4 -19.15 21.25 -19.15 Q21.2 -19.2 21.2 -19.35 21.2 -19.65 21.35 -20.15 21.5 -20.7 21.5 -20.95 21.5 -22.05 21.1 -23.6 20.85 -24.5 20.55 -25.2 20.35 -25.25 20.1 -25.65 19.55 -26.3 19.05 -27.25 18.7 -28.0 18.2 -29.3 17.9 -30.1 17.6 -31.2 17.2 -32.55 17.2 -33.25 17.2 -35.75 18.2 -37.4 18.75 -38.35 19.75 -39.25 L20.3 -39.8 Q20.8 -40.2 21.0 -40.2 L21.05 -40.25 21.05 -40.2 21.1 -40.2 M17.7 -35.55 Q17.55 -34.95 17.55 -34.35 17.55 -32.8 17.65 -32.2 L18.2 -29.85 Q18.4 -29.0 19.15 -27.55 L18.75 -28.35 Q18.5 -29.0 18.35 -29.45 L17.85 -31.65 Q17.55 -32.8 17.55 -33.75 17.55 -34.8 17.65 -35.4 L17.7 -35.55 M20.75 -14.5 Q20.75 -14.4 20.9 -14.1 L21.15 -13.7 Q21.25 -13.45 21.25 -13.0 21.25 -12.75 21.1 -12.1 20.9 -11.25 20.55 -10.5 19.65 -8.4 18.45 -8.4 18.05 -8.4 17.85 -8.65 L17.8 -8.75 Q18.5 -9.5 18.95 -10.6 L19.65 -12.5 Q19.85 -12.95 20.05 -14.3 20.2 -15.5 20.45 -15.95 20.65 -15.9 20.7 -15.35 L20.75 -14.5 M6.4 -8.05 L6.2 -7.95 5.75 -7.85 4.85 -7.75 4.35 -7.75 3.95 -7.7 3.75 -7.75 Q4.25 -7.95 4.95 -8.05 L6.2 -8.15 Q6.4 -8.1 6.4 -8.05 M27.1 -17.7 L27.1 -17.7 M-14.5 -9.65 L-13.85 -9.7 Q-13.6 -9.95 -13.1 -10.6 -12.7 -11.15 -12.3 -11.45 -11.15 -11.55 -10.8 -10.75 -10.65 -10.5 -10.6 -10.0 L-10.45 -9.15 -10.65 -8.95 Q-10.95 -9.15 -11.05 -9.65 -11.2 -10.3 -11.4 -10.6 L-11.75 -10.75 Q-12.05 -10.55 -12.7 -9.8 -13.25 -9.15 -13.85 -9.0 L-13.95 -8.95 -14.05 -8.95 Q-14.9 -8.75 -15.3 -8.15 -15.45 -7.9 -15.6 -7.6 L-15.7 -7.3 Q-15.7 -7.15 -15.8 -6.95 L-15.9 -6.5 Q-16.0 -6.1 -16.05 -5.95 -16.35 -5.5 -16.45 -5.4 -16.75 -5.1 -17.05 -5.1 L-17.7 -5.0 Q-18.5 -4.65 -18.65 -4.0 -18.75 -3.65 -18.6 -2.95 L-18.7 -2.8 -18.95 -2.8 -19.5 -3.55 Q-19.65 -3.7 -19.65 -3.95 -19.65 -4.55 -19.45 -4.8 L-19.2 -5.05 Q-19.05 -5.2 -18.8 -5.3 L-18.35 -5.55 Q-17.35 -6.05 -17.0 -6.35 -16.55 -6.7 -16.75 -7.05 -16.65 -7.35 -16.6 -7.85 L-16.55 -8.6 Q-16.4 -9.5 -15.85 -9.75 -15.35 -9.9 -14.5 -9.65 M-14.15 -9.25 L-14.2 -9.2 -14.15 -9.2 -14.15 -9.25 M-19.6 -0.55 Q-19.1 -0.05 -18.75 0.65 -18.45 1.25 -18.45 1.5 -18.45 1.85 -18.65 1.95 L-19.5 0.85 Q-20.25 -0.05 -20.85 -0.05 -21.95 -0.05 -22.45 1.4 -22.7 2.25 -22.7 3.05 -22.7 3.85 -22.25 5.85 L-21.65 8.2 -21.7 8.25 Q-22.8 7.25 -23.3 5.4 -23.6 4.1 -23.6 2.6 -23.6 1.35 -23.45 0.75 -23.15 -0.25 -22.2 -1.0 -20.95 -2.0 -19.6 -0.55 M-16.95 -5.4 L-16.9 -5.4 -16.85 -5.45 -16.95 -5.4 M-5.05 -11.3 L-4.85 -10.3 Q-4.7 -9.75 -4.55 -9.55 L-4.65 -9.4 Q-4.85 -9.5 -5.05 -9.75 L-5.3 -10.2 Q-5.5 -10.5 -6.0 -11.05 L-6.4 -11.15 Q-6.65 -11.25 -6.75 -11.25 -7.85 -11.25 -8.3 -10.8 L-8.55 -10.45 Q-8.65 -10.25 -8.7 -10.2 L-8.8 -10.25 -8.85 -10.35 Q-8.9 -10.8 -8.0 -11.55 L-7.95 -11.6 Q-7.9 -11.85 -7.35 -12.1 L-6.75 -12.45 Q-5.55 -12.65 -5.1 -11.35 L-5.05 -11.3 M-14.4 2.85 Q-14.55 3.05 -14.75 3.1 L-14.8 3.1 Q-14.85 3.1 -14.85 2.95 L-14.7 2.65 Q-14.55 2.4 -14.4 2.35 L-14.35 2.4 Q-14.3 2.45 -14.3 2.6 -14.3 2.7 -14.4 2.85 M-16.4 3.85 Q-17.2 3.85 -17.7 3.3 -17.9 3.05 -18.0 2.75 L-17.95 2.7 -16.8 3.4 Q-16.15 3.8 -15.6 3.65 L-16.0 3.8 -16.4 3.85 M-19.8 8.75 L-19.4 8.75 Q-18.6 8.75 -18.2 9.1 -17.9 9.4 -17.9 9.75 -17.9 9.95 -17.95 10.3 -18.05 10.65 -18.15 10.85 L-18.25 10.85 -18.25 10.65 Q-18.45 10.6 -18.55 10.3 -18.75 9.85 -18.8 9.75 -18.9 9.6 -19.5 9.4 L-19.95 9.15 -20.45 9.05 Q-20.85 8.9 -20.9 8.45 L-20.85 8.4 Q-20.7 8.4 -20.5 8.55 L-20.1 8.75 -19.8 8.75 M-20.7 12.6 Q-20.4 11.85 -19.45 12.3 L-19.4 12.4 -19.6 12.6 Q-20.1 12.85 -20.25 13.15 -20.25 13.25 -20.25 13.7 L-20.25 14.25 Q-20.2 14.55 -19.95 14.8 L-19.9 14.85 Q-20.25 14.85 -20.6 14.45 -20.9 14.05 -20.9 13.8 -20.9 13.0 -20.7 12.6" fill="#c1ff3f" fill-rule="evenodd" stroke="none"/>
  </g>
</svg>
