<?xml version="1.0" encoding="UTF-8" standalone="no"?>
<svg xmlns:ffdec="https://www.free-decompiler.com/flash" xmlns:xlink="http://www.w3.org/1999/xlink" ffdec:objectType="shape" height="18.1px" width="51.35px" xmlns="http://www.w3.org/2000/svg">
  <g transform="matrix(1.0, 0.0, 0.0, 1.0, 25.0, 15.7)">
    <path d="M12.3 -15.05 L12.25 -15.1 12.25 -15.15 12.3 -15.2 Q12.55 -15.25 13.3 -15.45 L13.75 -15.6 13.8 -15.6 14.95 -15.7 15.05 -15.65 15.2 -15.5 Q15.35 -15.45 15.55 -15.45 L16.45 -15.45 16.5 -15.4 Q16.7 -15.3 16.7 -15.2 16.7 -15.05 16.15 -14.65 15.6 -14.3 15.25 -14.2 L14.45 -13.7 14.2 -13.6 13.9 -13.45 13.35 -13.25 Q12.95 -13.05 12.5 -12.95 L12.4 -12.95 Q12.35 -13.0 12.3 -13.0 L12.3 -13.05 12.35 -13.1 12.5 -13.2 12.55 -13.25 12.45 -13.25 12.2 -13.35 12.0 -13.35 11.2 -13.3 11.15 -13.3 10.4 -13.2 9.65 -13.05 Q10.95 -12.45 12.15 -11.7 13.2 -11.0 14.75 -9.8 L15.6 -9.15 15.75 -9.15 15.8 -9.2 Q16.55 -9.75 17.1 -10.35 17.7 -11.1 17.75 -11.65 L17.7 -11.8 17.55 -11.9 17.45 -11.9 17.3 -11.75 17.2 -11.7 17.1 -11.7 Q17.05 -11.7 17.05 -11.75 L17.0 -11.8 Q17.0 -11.85 17.1 -12.05 L17.15 -12.25 17.25 -12.35 17.4 -12.35 17.5 -12.25 Q17.6 -12.3 17.65 -12.45 17.75 -12.6 17.75 -12.75 17.75 -13.1 17.45 -13.35 L17.3 -13.35 17.15 -13.2 17.05 -13.2 Q16.9 -13.15 16.9 -13.3 16.9 -13.4 17.0 -13.55 17.1 -13.7 17.25 -13.75 L17.4 -13.85 17.55 -13.85 17.7 -13.7 18.1 -13.5 19.65 -13.5 Q20.0 -13.5 20.45 -13.25 20.95 -13.0 20.9 -12.85 20.95 -12.8 20.85 -12.75 21.1 -12.5 21.2 -12.25 L21.3 -12.25 21.35 -12.2 Q21.45 -12.1 21.45 -11.95 L21.45 -11.75 21.4 -11.2 21.35 -11.15 21.1 -11.15 21.05 -11.25 Q21.1 -11.35 21.05 -11.4 L20.9 -11.55 Q20.3 -11.4 19.95 -11.15 L19.4 -10.65 Q18.75 -10.1 18.75 -9.7 L18.7 -9.65 18.65 -9.65 18.65 -9.6 18.4 -9.6 18.35 -9.65 18.35 -9.7 18.4 -9.85 18.35 -10.0 18.15 -10.1 Q17.6 -10.1 17.05 -9.75 16.45 -9.3 16.3 -9.2 L16.25 -9.2 16.0 -9.05 15.95 -9.05 15.95 -9.0 15.9 -9.0 15.85 -8.95 Q16.7 -8.3 17.1 -8.0 L17.15 -8.0 17.15 -7.95 Q17.3 -7.75 17.3 -7.45 17.3 -7.15 17.05 -6.95 16.6 -6.5 15.55 -6.5 14.8 -6.5 14.4 -6.65 13.85 -6.8 13.15 -7.3 12.65 -7.65 12.3 -8.0 L11.35 -8.65 Q10.65 -9.15 10.35 -9.4 9.45 -10.15 8.2 -10.85 6.9 -11.6 5.65 -12.0 L5.35 -12.1 5.15 -12.05 Q4.75 -12.0 4.5 -11.9 4.3 -11.85 4.3 -11.75 L4.45 -11.75 4.55 -11.65 4.55 -11.6 4.5 -11.6 4.4 -11.55 3.8 -11.5 Q3.75 -11.45 3.7 -11.45 3.6 -11.45 3.55 -11.5 L3.55 -11.55 Q3.5 -11.6 3.85 -11.75 4.0 -11.85 4.05 -11.95 4.0 -12.05 3.75 -12.15 3.35 -12.3 2.75 -12.35 L2.3 -12.3 2.25 -12.3 2.2 -12.25 2.1 -12.25 2.0 -12.3 2.0 -12.35 1.95 -12.35 2.0 -12.4 2.0 -12.45 1.75 -12.45 1.65 -12.5 1.55 -12.5 1.5 -12.55 Q1.45 -12.6 1.5 -12.6 L1.55 -12.65 2.0 -12.65 2.15 -12.7 2.45 -12.65 3.9 -12.8 4.4 -12.9 4.15 -13.0 3.65 -13.1 3.55 -13.15 3.55 -13.2 3.6 -13.25 Q3.7 -13.3 4.15 -13.35 L4.45 -13.4 4.6 -13.4 4.7 -13.45 5.05 -13.55 5.2 -13.65 Q5.2 -13.85 4.75 -14.05 4.15 -14.3 3.05 -14.35 L3.0 -14.4 2.95 -14.4 2.75 -14.6 1.9 -14.7 1.4 -14.6 1.05 -14.5 0.75 -14.5 0.7 -14.55 0.7 -14.6 0.75 -14.65 Q1.0 -14.7 1.15 -14.8 L1.0 -14.9 0.75 -15.05 0.75 -15.1 0.8 -15.15 0.85 -15.15 0.9 -15.2 1.0 -15.2 2.95 -14.8 3.0 -14.8 3.1 -14.7 3.4 -14.65 3.5 -14.7 3.55 -14.75 3.6 -14.7 4.2 -14.65 Q5.8 -14.35 7.25 -13.9 L7.35 -13.85 7.35 -13.8 7.25 -13.75 6.8 -13.75 6.8 -13.8 6.5 -13.8 6.45 -13.7 Q6.45 -13.35 7.6 -13.05 L7.75 -13.0 8.5 -12.95 8.6 -12.95 8.6 -13.0 8.5 -13.15 8.1 -13.15 8.05 -13.2 8.05 -13.25 8.1 -13.3 8.2 -13.35 8.0 -13.45 7.9 -13.45 Q7.85 -13.45 7.85 -13.5 7.8 -13.5 7.75 -13.55 L7.7 -13.6 Q7.7 -13.65 7.8 -13.7 L8.0 -13.7 8.6 -13.5 8.65 -13.45 9.4 -13.65 9.45 -13.7 Q9.7 -13.7 9.7 -13.6 L9.65 -13.55 Q9.65 -13.5 9.6 -13.5 L9.3 -13.4 9.2 -13.35 9.3 -13.3 Q9.7 -13.3 10.25 -13.55 10.65 -13.75 10.75 -13.85 10.65 -13.85 10.65 -13.9 L10.65 -13.95 10.7 -14.0 11.3 -14.2 11.95 -14.4 12.3 -14.65 12.6 -14.95 12.6 -15.05 12.5 -15.0 12.4 -15.0 Q12.35 -15.0 12.3 -15.05 M8.85 -11.55 Q8.5 -11.7 8.35 -11.7 L8.3 -11.7 Q8.35 -11.55 8.7 -11.35 L9.4 -11.0 9.55 -11.0 9.55 -11.05 Q9.55 -11.25 8.85 -11.55 M4.7 -12.8 L4.65 -12.75 4.15 -12.6 3.75 -12.45 3.85 -12.4 4.2 -12.35 4.65 -12.35 Q4.65 -12.45 4.8 -12.45 L4.9 -12.45 5.05 -12.4 5.1 -12.4 5.25 -12.45 5.45 -12.45 Q5.3 -12.65 4.7 -12.8 M3.15 -13.15 L3.1 -13.1 3.1 -13.05 3.15 -13.05 3.15 -13.0 3.2 -13.0 3.25 -12.95 3.25 -12.85 2.9 -12.85 2.4 -13.05 2.4 -13.1 2.2 -13.15 2.1 -13.15 Q2.05 -13.2 2.1 -13.25 L2.15 -13.3 2.25 -13.3 3.0 -13.25 3.1 -13.25 3.15 -13.2 3.15 -13.15 M1.85 -13.35 L1.95 -13.25 1.9 -13.2 1.75 -13.2 0.35 -13.5 Q0.3 -13.5 0.25 -13.5 0.2 -13.55 0.25 -13.6 L0.3 -13.65 0.4 -13.65 1.0 -13.6 1.05 -13.6 1.5 -13.5 1.55 -13.5 Q1.6 -13.45 1.75 -13.4 L1.85 -13.35 M1.9 -12.45 L1.95 -12.45 1.95 -12.5 1.9 -12.45 M0.2 -13.65 L0.2 -13.6 0.15 -13.55 0.05 -13.55 -0.3 -13.6 -2.8 -14.0 -2.85 -14.05 -2.95 -14.1 -2.95 -14.2 -2.85 -14.25 -2.85 -14.3 -2.8 -14.3 -2.7 -14.4 -2.25 -14.25 -0.7 -14.25 -0.65 -14.2 Q-0.65 -14.15 -0.7 -14.1 L-0.7 -14.05 Q-0.7 -14.0 -0.3 -13.85 -0.1 -13.75 0.15 -13.7 L0.2 -13.65 M0.95 -12.15 L1.3 -12.25 1.4 -12.25 Q1.55 -12.25 1.55 -12.2 L1.55 -12.1 1.5 -12.1 0.7 -11.85 0.5 -11.85 0.45 -11.9 0.45 -11.95 Q0.55 -12.05 0.95 -12.15 M18.25 -11.6 Q18.1 -11.4 18.1 -11.15 L18.1 -11.0 Q18.1 -10.95 18.1 -10.9 18.15 -10.8 18.25 -10.8 18.4 -10.8 18.6 -11.05 18.85 -11.35 18.85 -11.55 L18.85 -11.7 18.7 -11.85 Q18.6 -11.85 18.55 -11.8 L18.5 -11.8 18.45 -11.75 18.25 -11.6 M19.05 -9.15 L19.1 -9.15 19.15 -9.1 19.15 -9.05 18.75 -8.75 18.4 -8.5 18.2 -8.5 Q18.15 -8.5 18.15 -8.55 18.1 -8.55 18.15 -8.6 18.15 -8.65 18.25 -8.75 L18.35 -8.9 18.4 -8.9 18.4 -9.15 18.45 -9.2 18.55 -9.25 18.6 -9.25 18.7 -9.2 18.7 -9.15 18.75 -9.05 18.85 -9.15 19.05 -9.15 M14.35 -14.1 Q13.7 -14.15 13.05 -13.95 12.5 -13.75 12.5 -13.6 L12.55 -13.55 Q12.6 -13.5 12.7 -13.5 13.4 -13.5 13.95 -13.8 14.3 -14.0 14.35 -14.1 M-24.45 -1.45 L-24.45 -1.75 Q-24.45 -1.8 -24.5 -1.9 -24.65 -2.05 -24.65 -2.2 -24.65 -2.55 -24.2 -2.85 -23.85 -3.1 -23.3 -3.15 L-22.45 -3.25 -22.35 -3.2 -21.95 -3.05 Q-21.65 -2.9 -21.65 -2.75 L-21.65 -2.7 Q-21.55 -2.55 -21.55 -2.4 -21.55 -2.15 -22.35 -1.65 -23.1 -1.15 -23.35 -1.15 L-24.05 -1.15 Q-24.4 -1.3 -24.45 -1.45 M-15.1 -9.25 Q-14.65 -9.15 -14.4 -9.0 L-14.3 -9.0 -14.25 -8.95 -14.15 -8.9 -14.15 -8.8 -14.25 -8.75 -14.35 -8.75 -14.4 -8.8 -14.5 -8.8 Q-14.45 -8.7 -14.05 -8.5 -13.55 -8.25 -13.15 -8.25 L-13.1 -8.25 -13.1 -8.3 -13.05 -8.3 -12.95 -8.35 -12.9 -8.3 -12.7 -8.25 -12.6 -8.25 -11.7 -7.9 -10.7 -7.55 Q-10.15 -7.35 -9.7 -7.1 L-8.1 -6.1 Q-7.6 -5.8 -7.35 -5.6 L-6.65 -5.05 Q-6.5 -4.95 -6.4 -4.8 L-6.35 -4.75 Q-6.05 -4.5 -6.05 -4.15 -6.05 -3.85 -6.4 -3.5 -6.9 -3.0 -7.85 -3.0 -8.65 -3.0 -9.05 -3.35 -9.2 -3.4 -9.3 -3.55 L-9.7 -3.8 -10.2 -4.1 -10.55 -4.35 Q-10.85 -4.55 -11.4 -4.9 L-12.25 -5.4 Q-12.6 -5.65 -13.2 -5.95 L-14.25 -6.45 -15.45 -6.95 -16.2 -7.2 -16.45 -7.2 -16.55 -7.3 -16.55 -7.35 -16.5 -7.4 -16.3 -7.4 Q-16.35 -7.55 -17.0 -7.65 L-17.5 -7.75 -17.6 -7.7 -17.5 -7.6 Q-17.45 -7.6 -17.5 -7.55 L-17.55 -7.5 -17.65 -7.5 -18.0 -7.55 -18.4 -7.6 -18.75 -7.65 -19.05 -7.6 -19.3 -7.65 -19.4 -7.6 -19.65 -7.6 -20.5 -7.4 Q-20.75 -7.35 -20.95 -7.25 L-21.0 -7.2 -21.15 -7.2 -21.55 -7.15 -21.85 -7.1 -21.95 -7.05 -22.05 -7.1 Q-22.1 -7.1 -22.1 -7.2 L-22.05 -7.25 -22.0 -7.25 -21.3 -7.55 -21.15 -7.6 -20.75 -7.9 -20.6 -8.05 -20.6 -8.1 -20.55 -8.15 -20.65 -8.2 -20.8 -8.25 -21.05 -8.2 -21.15 -8.2 -21.25 -8.3 -21.25 -8.35 -21.15 -8.4 -20.9 -8.45 Q-20.85 -8.5 -20.85 -8.55 L-20.85 -8.6 -20.9 -8.7 Q-20.9 -8.9 -20.55 -9.05 -20.2 -9.2 -19.85 -9.2 L-19.75 -9.2 -19.7 -9.15 -19.7 -9.1 Q-19.7 -9.05 -19.75 -9.05 -20.4 -8.85 -20.4 -8.65 -20.4 -8.55 -20.25 -8.45 -20.0 -8.3 -19.6 -8.3 L-18.85 -8.35 -18.75 -8.35 -18.2 -8.5 -17.4 -8.7 Q-17.15 -8.75 -17.0 -8.9 -16.85 -9.05 -16.85 -9.15 L-17.05 -9.35 -17.4 -9.35 -17.5 -9.4 -17.5 -9.45 -17.45 -9.5 -17.35 -9.55 -16.95 -9.55 -16.3 -9.5 -16.25 -9.5 -16.05 -9.45 -15.55 -9.35 -15.1 -9.25 M-16.25 -8.25 L-16.4 -8.25 Q-16.45 -8.25 -16.5 -8.2 L-16.6 -8.15 -16.6 -8.1 Q-16.6 -8.0 -16.4 -7.95 -16.15 -7.85 -15.9 -7.85 -15.5 -7.85 -15.4 -7.95 -15.35 -7.95 -15.35 -8.0 -15.35 -8.1 -15.55 -8.2 L-15.65 -8.25 -16.25 -8.25 M-2.5 -10.8 L-2.7 -10.8 -2.7 -10.95 -2.6 -11.0 -1.7 -11.15 -1.6 -11.15 -1.55 -11.1 -1.55 -11.05 -1.6 -11.0 -1.85 -10.8 -1.9 -10.75 -2.0 -10.75 -2.2 -10.8 -2.5 -10.8 M-4.6 -10.85 L-4.6 -10.9 -4.55 -10.95 -4.25 -10.9 -4.25 -10.85 -4.2 -10.85 -4.2 -10.8 Q-4.15 -10.7 -4.4 -10.7 -4.65 -10.7 -4.6 -10.8 L-4.6 -10.85 M-11.45 -7.15 L-11.3 -7.0 Q-11.15 -6.9 -11.05 -6.85 L-10.95 -6.9 Q-10.95 -6.95 -11.0 -7.0 L-11.15 -7.1 -11.45 -7.15 M-10.3 -4.85 L-10.45 -4.9 -10.25 -4.8 -10.3 -4.85 M-20.1 2.35 Q-21.3 2.25 -21.65 1.75 -21.85 1.55 -21.85 1.15 -21.85 0.7 -21.45 0.55 -21.1 0.4 -20.55 0.55 -20.1 0.7 -19.75 1.0 -19.4 1.35 -19.4 1.75 -19.4 1.95 -19.5 2.1 -19.7 2.3 -20.0 2.35 L-20.1 2.35" fill="#31a800" fill-opacity="0.14901961" fill-rule="evenodd" stroke="none"/>
    <path d="M12.9 -15.25 L13.85 -15.55 14.6 -15.65 Q15.0 -15.6 15.25 -15.5 L15.75 -15.55 16.0 -15.5 16.25 -15.5 16.45 -15.45 16.55 -15.4 16.55 -15.3 Q16.55 -15.0 15.9 -14.65 15.7 -14.5 14.6 -14.0 L14.55 -14.0 14.8 -14.15 14.95 -14.3 Q14.6 -14.5 14.3 -14.5 13.45 -14.5 12.7 -14.15 12.1 -13.85 12.1 -13.75 12.1 -13.7 12.2 -13.65 L12.35 -13.55 11.35 -13.5 10.45 -13.35 10.4 -13.35 10.4 -13.4 10.45 -13.4 Q10.95 -13.5 11.2 -13.65 11.5 -13.8 11.5 -13.95 L11.45 -13.95 11.4 -14.0 11.25 -14.0 11.1 -14.05 Q11.9 -14.05 12.65 -14.45 13.3 -14.8 13.3 -15.05 13.3 -15.15 13.2 -15.2 L12.85 -15.2 12.9 -15.25 M15.45 -14.7 Q15.8 -14.7 16.05 -14.9 16.2 -15.05 16.2 -15.1 16.2 -15.3 15.75 -15.1 15.35 -14.9 15.35 -14.8 L15.35 -14.75 15.45 -14.7 M1.3 -14.9 L1.65 -14.9 Q1.65 -14.85 1.55 -14.85 1.4 -14.85 1.3 -14.9 M5.15 -14.3 Q5.25 -14.3 5.55 -14.15 L6.1 -13.9 6.15 -13.85 5.9 -13.85 5.85 -13.8 Q5.85 -13.15 6.6 -12.75 7.25 -12.35 8.1 -12.35 9.25 -12.35 9.4 -12.65 9.45 -12.7 9.35 -12.85 L9.3 -12.95 9.25 -13.0 9.45 -12.95 Q9.7 -12.85 10.3 -12.6 L10.55 -12.45 Q11.0 -12.25 11.75 -11.75 12.6 -11.2 13.05 -10.95 13.35 -10.6 14.05 -10.1 L15.2 -9.25 16.5 -8.3 Q17.3 -7.7 17.55 -7.6 18.4 -7.2 19.1 -6.95 L20.0 -6.7 21.0 -6.4 21.25 -6.3 Q21.75 -6.1 21.75 -5.7 21.75 -5.4 21.4 -5.05 20.9 -4.55 20.05 -4.55 19.55 -4.55 19.25 -4.65 18.05 -4.9 17.35 -5.1 16.45 -5.35 15.9 -5.75 L15.35 -6.1 14.7 -6.45 Q13.9 -6.9 13.6 -7.15 L11.85 -8.55 10.85 -9.25 Q10.2 -9.7 9.9 -9.95 L10.2 -9.8 10.25 -9.9 10.1 -10.05 10.0 -10.1 9.95 -10.15 9.9 -10.15 9.85 -10.2 9.9 -10.25 Q10.0 -10.2 10.05 -10.15 L10.2 -10.15 Q10.55 -10.3 10.6 -10.4 10.65 -10.45 10.65 -10.6 10.65 -10.9 10.3 -11.3 L10.15 -11.4 9.7 -11.8 Q9.2 -12.1 8.35 -12.25 L7.55 -12.2 Q7.35 -12.1 7.45 -11.85 L7.4 -11.9 7.35 -11.9 Q7.25 -11.9 7.2 -11.95 L6.95 -12.05 6.65 -12.2 6.75 -12.25 Q6.65 -12.45 6.0 -12.75 L5.1 -13.1 5.1 -13.15 5.4 -13.1 5.7 -13.0 5.85 -13.0 Q5.95 -13.1 5.95 -13.15 5.95 -13.6 5.55 -13.95 5.35 -14.1 5.15 -14.25 L5.15 -14.3 M9.0 -13.2 L9.1 -13.1 9.85 -13.25 9.25 -13.0 8.3 -12.65 8.65 -12.85 Q8.95 -13.0 8.95 -13.1 L8.8 -13.2 9.0 -13.2 M11.45 -9.2 Q11.45 -9.1 11.55 -9.0 11.7 -8.8 11.9 -8.8 11.95 -8.8 12.0 -8.85 12.05 -8.85 12.05 -8.95 12.05 -9.1 11.75 -9.25 11.45 -9.4 11.45 -9.2 M10.1 -11.9 Q10.0 -12.05 9.85 -12.05 9.65 -12.1 9.65 -12.0 L9.7 -11.9 Q9.8 -11.8 9.95 -11.8 L10.05 -11.8 10.1 -11.9 M3.15 -12.5 L2.55 -12.55 3.2 -12.6 3.6 -12.6 3.35 -12.45 3.2 -12.5 3.15 -12.5 M3.2 -12.55 L3.2 -12.55 M4.2 -12.2 L5.5 -12.3 4.3 -12.05 4.2 -12.2 M20.6 -12.4 Q20.6 -12.3 20.7 -12.25 20.8 -12.05 21.0 -12.05 L21.05 -11.95 21.0 -11.85 Q21.0 -11.9 20.75 -12.05 L20.6 -12.1 Q20.1 -12.1 19.7 -11.75 19.35 -11.35 19.2 -11.25 L19.3 -11.4 19.4 -11.5 19.6 -11.75 19.8 -12.05 19.8 -12.3 19.75 -12.5 Q19.65 -12.7 19.5 -12.75 L18.9 -12.8 Q18.55 -12.8 18.3 -12.4 L18.3 -12.35 18.25 -12.35 Q18.15 -12.2 18.1 -12.0 L18.05 -12.0 18.05 -12.05 Q18.0 -12.1 17.85 -12.15 18.1 -12.25 18.2 -12.4 18.3 -12.55 18.3 -12.7 L18.25 -12.95 18.1 -13.15 17.8 -13.35 17.6 -13.45 17.45 -13.5 17.15 -13.5 Q17.25 -13.7 17.35 -13.75 17.45 -13.65 17.55 -13.55 17.8 -13.4 18.2 -13.4 L19.05 -13.45 19.3 -13.5 19.65 -13.45 19.8 -13.45 Q19.9 -13.45 20.0 -13.35 L19.95 -13.35 19.7 -13.4 19.65 -13.4 19.6 -13.35 Q19.6 -13.3 19.9 -13.05 L20.4 -12.7 20.5 -12.6 20.6 -12.4 M17.35 -12.25 L17.3 -12.25 17.3 -12.35 17.35 -12.35 17.35 -12.25 M17.85 -10.9 Q17.85 -10.85 17.9 -10.75 18.05 -10.65 18.2 -10.65 18.55 -10.65 18.7 -10.8 L18.95 -11.05 Q19.0 -11.05 19.0 -11.0 19.0 -10.95 18.8 -10.65 L18.55 -10.4 Q18.55 -10.5 18.45 -10.55 L18.35 -10.6 Q18.0 -10.6 17.7 -10.45 17.55 -10.4 17.25 -10.2 17.45 -10.35 17.65 -10.7 17.85 -11.1 17.9 -11.2 L17.9 -11.15 Q17.85 -10.95 17.85 -10.9 M13.05 -13.35 L13.0 -13.35 Q13.0 -13.4 12.95 -13.4 L13.75 -13.6 13.8 -13.6 Q13.75 -13.55 13.45 -13.45 L13.05 -13.3 13.05 -13.35 M12.1 -11.0 L12.1 -10.9 Q12.1 -10.7 12.35 -10.5 12.55 -10.3 13.0 -10.15 L13.15 -10.15 13.25 -10.25 Q13.25 -10.4 12.95 -10.65 L12.45 -11.0 Q12.2 -11.1 12.1 -11.0 M16.9 -9.9 L17.05 -10.0 16.8 -9.8 Q16.8 -9.85 16.9 -9.9 M-23.95 -2.65 L-23.85 -2.6 -23.85 -2.5 Q-23.85 -2.25 -23.55 -2.1 L-22.75 -1.7 -22.35 -1.7 Q-22.15 -1.8 -22.15 -1.85 -22.15 -1.95 -22.1 -2.0 L-21.85 -2.1 -21.9 -2.3 -22.0 -2.45 -22.15 -2.65 Q-22.2 -2.7 -22.2 -2.75 L-22.2 -2.85 Q-21.9 -2.65 -21.65 -2.3 L-21.3 -1.65 Q-21.15 -1.4 -20.65 -1.05 L-20.4 -0.85 Q-20.25 -0.8 -20.1 -0.7 -19.7 -0.45 -19.7 -0.05 L-19.7 0.0 Q-19.7 0.15 -19.75 0.3 L-19.8 0.3 -19.65 0.8 Q-19.6 0.95 -19.4 1.35 L-19.2 1.7 -19.2 1.8 -19.15 1.85 Q-19.15 2.0 -19.4 2.15 -19.65 2.3 -20.05 2.3 -20.9 2.3 -21.05 2.05 -21.1 1.95 -21.0 1.8 -21.0 1.75 -21.15 1.7 L-21.15 1.65 -21.25 1.75 Q-21.45 1.7 -21.55 1.5 -21.75 1.4 -21.8 1.2 L-21.85 0.85 -21.95 0.7 -22.2 0.4 -22.3 0.35 -22.4 0.25 -22.95 -0.15 -23.25 -0.5 -23.45 -0.9 -23.45 -0.95 -23.15 -0.65 -23.1 -0.65 -23.0 -0.7 -23.1 -1.0 Q-23.2 -1.2 -23.3 -1.3 L-23.6 -1.65 Q-23.85 -1.85 -24.05 -1.75 -24.2 -1.8 -24.25 -1.9 L-24.25 -2.1 -24.2 -2.35 -24.1 -2.35 -24.1 -2.3 Q-24.05 -2.6 -23.95 -2.65 M-15.15 -8.85 Q-15.15 -8.8 -15.05 -8.7 -15.0 -8.55 -14.75 -8.35 -14.6 -8.25 -14.4 -8.15 -13.9 -7.95 -13.4 -7.95 L-12.8 -8.05 -12.7 -8.1 -12.6 -8.1 -12.15 -7.95 -11.6 -7.7 -11.75 -7.7 -11.75 -7.65 Q-12.25 -7.7 -12.35 -7.6 L-12.4 -7.45 Q-12.4 -7.1 -11.75 -6.8 -11.5 -6.65 -11.3 -6.6 L-11.25 -6.6 -10.85 -6.55 Q-10.55 -6.55 -10.3 -6.6 L-10.2 -6.7 Q-10.15 -6.75 -10.2 -6.85 L-10.15 -6.85 -10.25 -7.0 -10.2 -7.0 -10.35 -7.15 -10.1 -7.0 -10.3 -7.2 -10.65 -7.4 Q-10.15 -7.2 -9.35 -6.7 L-8.1 -5.95 Q-7.0 -5.35 -6.25 -4.45 -4.95 -2.9 -4.2 -1.5 -4.1 -1.3 -4.1 -1.15 -4.1 -0.9 -4.25 -0.7 -4.45 -0.45 -4.75 -0.4 -5.0 -0.3 -5.35 -0.3 L-5.7 -0.3 Q-6.2 -0.3 -6.55 -0.45 L-6.65 -0.5 Q-6.75 -0.55 -6.85 -0.6 L-7.0 -0.75 -7.2 -1.0 -7.65 -1.55 -8.7 -2.65 Q-9.65 -3.65 -11.1 -4.85 L-11.05 -4.85 -10.8 -4.65 Q-10.65 -4.6 -10.4 -4.5 -10.2 -4.35 -9.85 -4.3 L-9.75 -4.3 -9.6 -4.45 Q-9.6 -4.8 -10.35 -5.15 L-10.8 -5.4 -11.05 -5.45 -11.35 -5.5 -11.55 -5.5 -11.65 -5.4 -11.65 -5.3 -11.55 -5.2 -11.65 -5.25 Q-11.8 -5.3 -12.0 -5.45 L-12.35 -5.7 -12.8 -6.0 -13.25 -6.25 Q-13.6 -6.45 -14.3 -6.75 L-15.25 -7.15 -15.3 -7.15 -15.2 -7.2 Q-15.4 -7.4 -16.2 -7.65 L-16.15 -7.7 -15.6 -7.5 -15.25 -7.45 -15.05 -7.4 -14.95 -7.4 -14.85 -7.45 -14.8 -7.45 Q-14.5 -7.5 -14.35 -7.65 L-14.3 -7.75 Q-14.3 -7.85 -14.4 -7.95 L-14.45 -8.05 -14.55 -8.15 -14.65 -8.2 -14.85 -8.35 -15.0 -8.45 -15.2 -8.65 -15.35 -8.7 Q-15.55 -8.8 -15.8 -8.8 L-16.3 -8.75 -16.45 -8.7 -16.55 -8.65 -16.6 -8.65 -16.6 -8.7 -16.35 -8.8 Q-16.1 -8.95 -16.1 -9.1 -16.1 -9.2 -16.15 -9.25 -16.2 -9.3 -16.4 -9.35 L-16.5 -9.35 -16.5 -9.4 -16.3 -9.35 -16.25 -9.35 -15.6 -9.2 Q-15.15 -9.1 -14.95 -9.0 L-15.05 -9.0 -15.15 -8.85 M-17.0 -8.45 L-17.2 -8.3 Q-17.3 -8.25 -17.3 -8.2 L-17.25 -8.1 Q-17.15 -8.05 -17.1 -8.0 L-17.15 -7.95 -17.65 -8.05 -18.15 -8.0 -18.25 -7.9 -18.5 -8.0 -19.05 -8.05 -19.75 -7.95 -20.25 -7.8 -20.3 -7.8 -20.4 -7.85 -20.2 -7.95 Q-20.0 -8.05 -20.05 -8.1 L-20.0 -8.15 Q-19.95 -8.1 -19.8 -8.1 L-19.6 -8.05 Q-18.6 -8.05 -17.75 -8.25 L-17.0 -8.45 M-8.2 -5.55 L-8.05 -5.55 Q-8.0 -5.55 -8.0 -5.6 -8.0 -5.65 -8.1 -5.75 -8.2 -5.85 -8.35 -5.8 -8.35 -5.75 -8.3 -5.7 L-8.2 -5.55 M-7.05 -3.9 Q-7.0 -3.5 -6.55 -3.3 L-6.45 -3.3 -6.75 -3.65 Q-6.9 -3.9 -7.05 -3.9" fill="#262626" fill-opacity="0.101960786" fill-rule="evenodd" stroke="none"/>
    <path d="M3.15 -3.95 L3.15 -3.95 M1.05 -3.8 L1.05 -3.8 M2.6 -3.85 L2.45 -3.85 2.45 -3.9 2.6 -3.9 Q2.65 -3.9 2.6 -3.85 M7.15 -3.95 L7.15 -3.95 8.0 -3.9 8.1 -3.9 7.55 -3.9 7.15 -3.95 M7.75 -3.25 L7.8 -3.25 7.65 -3.2 7.4 -3.2 7.5 -3.25 7.75 -3.25 M11.15 -0.15 L11.5 -0.2 11.8 -0.2 11.95 -0.15 11.15 -0.15 M13.75 -2.75 Q13.7 -2.75 13.75 -2.8 L14.05 -2.8 13.75 -2.75 M13.1 -3.35 L12.6 -3.35 12.25 -3.4 12.55 -3.4 12.75 -3.35 13.1 -3.35 M16.75 -3.15 Q16.7 -3.15 16.75 -3.2 L16.85 -3.15 17.0 -3.15 17.0 -3.1 16.8 -3.15 16.75 -3.15 M17.3 -2.7 L17.4 -2.65 Q17.45 -2.65 17.4 -2.65 L17.3 -2.65 17.3 -2.7 M14.75 -2.5 L14.75 -2.45 14.6 -2.4 14.55 -2.45 14.6 -2.45 14.65 -2.5 14.75 -2.5 M15.4 -0.4 L15.4 -0.4 M22.4 -2.05 L22.45 -2.05 22.75 -2.0 22.6 -2.0 22.4 -2.05 M21.2 -2.9 L21.2 -2.9 M20.7 -2.45 L20.65 -2.45 20.4 -2.5 20.7 -2.5 20.7 -2.45 M21.05 -1.3 L21.0 -1.3 21.1 -1.35 21.2 -1.35 21.05 -1.3 M23.85 -1.9 Q24.05 -1.85 24.2 -1.75 L24.1 -1.75 23.95 -1.85 Q23.8 -1.9 23.85 -1.9 M26.35 -1.05 L26.35 -1.0 26.2 -1.0 26.2 -1.05 26.3 -1.1 26.35 -1.05 M23.25 1.05 L23.05 1.05 Q23.0 1.05 23.15 1.05 L23.25 1.05 M22.05 0.05 L22.3 0.0 22.6 0.0 22.35 0.05 22.05 0.1 22.0 0.1 22.05 0.05 M17.5 1.45 L17.25 1.5 17.15 1.45 17.35 1.45 17.6 1.4 17.7 1.4 Q17.75 1.45 17.5 1.45 M15.0 0.15 L15.65 0.2 15.95 0.2 16.2 0.25 15.7 0.2 15.15 0.15 15.0 0.15 M12.05 1.4 L12.15 1.4 12.1 1.45 11.9 1.5 11.8 1.55 11.7 1.55 11.6 1.5 11.8 1.45 12.05 1.4 M6.9 1.45 L6.95 1.45 6.95 1.5 6.6 1.5 6.55 1.45 6.9 1.45 M3.85 1.75 L3.7 1.8 2.35 1.85 Q1.35 1.9 1.0 1.85 L3.8 1.75 3.85 1.75 M3.0 1.25 L2.35 1.25 2.35 1.2 2.7 1.25 3.0 1.25 M0.75 2.15 L0.0 2.15 -0.05 2.1 0.7 2.1 0.75 2.15 M2.7 2.4 L2.0 2.4 Q1.9 2.4 2.15 2.35 L2.4 2.35 2.8 2.4 2.7 2.4 M-25.0 -0.9 L-24.8 -0.9 -24.85 -0.85 -25.0 -0.85 -25.0 -0.9 M-24.7 -1.25 L-24.55 -1.25 Q-24.45 -1.2 -24.5 -1.15 L-24.7 -1.25 M-23.2 -1.4 L-23.55 -1.3 -23.65 -1.3 -23.5 -1.35 -23.35 -1.35 -23.2 -1.4 M-23.3 -0.75 L-23.1 -0.6 -23.2 -0.6 Q-23.5 -0.65 -23.65 -0.75 -23.85 -0.8 -23.6 -0.85 -23.5 -0.8 -23.3 -0.75 M-21.65 -2.15 L-21.7 -2.15 -21.75 -2.1 -21.85 -2.1 -21.8 -2.15 -21.65 -2.2 -21.6 -2.15 -21.65 -2.15 M-22.3 -1.5 L-22.4 -1.5 -22.5 -1.55 -22.3 -1.55 -22.15 -1.5 -22.3 -1.5 M-21.85 -0.6 L-21.35 -0.7 -21.1 -0.7 -21.4 -0.65 -21.75 -0.6 -21.85 -0.6 M-21.35 -1.55 L-21.45 -1.55 Q-21.55 -1.55 -21.5 -1.55 L-21.4 -1.6 -21.35 -1.55 M-21.5 -0.35 L-21.35 -0.35 Q-21.3 -0.35 -21.35 -0.35 L-21.45 -0.3 -21.5 -0.3 -21.5 -0.35 M-18.7 -2.4 L-18.6 -2.45 -18.55 -2.45 -18.6 -2.4 -18.7 -2.4 M-13.3 -3.6 L-13.7 -3.55 -13.8 -3.55 -13.55 -3.6 -13.3 -3.6 M-15.85 -3.05 L-15.85 -3.05 M-12.9 -3.35 L-12.9 -3.35 M-13.5 -2.1 L-13.7 -2.05 -13.75 -2.05 -13.65 -2.1 -13.4 -2.15 -13.35 -2.15 Q-13.35 -2.1 -13.5 -2.1 M-8.5 -3.65 L-8.5 -3.65 M-6.15 -3.75 L-5.9 -3.75 -5.5 -3.8 -5.6 -3.75 -6.15 -3.75 M-11.05 -3.7 L-11.0 -3.7 -10.75 -3.75 -11.05 -3.7 M-10.2 -3.7 L-10.2 -3.7 M-7.15 -3.3 L-7.1 -3.3 -6.9 -3.25 -6.7 -3.25 -6.65 -3.2 -7.0 -3.25 -7.15 -3.3 M-3.45 -3.3 L-3.45 -3.3 M-5.25 1.5 L-5.0 1.55 -5.85 1.55 -5.7 1.5 -5.25 1.5 M-12.7 0.65 Q-12.65 0.6 -12.55 0.55 L-12.35 0.5 -12.1 0.45 -12.35 0.55 -12.45 0.6 -12.7 0.65 M-12.5 1.35 L-12.8 1.35 -13.05 1.3 -12.5 1.3 -12.45 1.35 -12.5 1.35 M-14.2 0.6 L-13.85 0.6 -13.85 0.65 -14.2 0.6 M-20.25 1.05 L-20.65 1.0 -20.8 0.95 -20.75 0.95 -20.5 1.0 -20.2 1.0 -20.25 1.05" fill="#171717" fill-opacity="0.3019608" fill-rule="evenodd" stroke="none"/>
  </g>
</svg>
