<?xml version="1.0" encoding="UTF-8" standalone="no"?>
<svg xmlns:ffdec="https://www.free-decompiler.com/flash" xmlns:xlink="http://www.w3.org/1999/xlink" ffdec:objectType="shape" height="15.65px" width="56.25px" xmlns="http://www.w3.org/2000/svg">
  <g transform="matrix(1.0, 0.0, 0.0, 1.0, 28.3, 13.5)">
    <path d="M13.0 -7.95 Q12.95 -8.0 12.95 -8.05 L13.15 -8.0 Q13.15 -7.95 13.05 -7.95 L13.0 -7.95 M27.8 -10.0 Q27.7 -10.0 27.7 -10.05 L27.7 -10.15 27.95 -10.1 Q27.9 -10.0 27.85 -10.0 L27.8 -10.0 M26.05 -2.5 L25.95 -2.55 25.95 -2.7 Q25.95 -2.8 26.0 -2.85 L26.2 -2.8 26.25 -2.7 Q26.25 -2.55 26.05 -2.5 M13.75 2.05 L13.75 2.1 13.6 2.15 13.4 2.0 Q13.35 1.95 13.35 1.9 13.35 1.7 13.55 1.7 13.75 1.75 13.75 1.95 L13.75 2.05 M9.9 0.45 L9.85 0.4 9.85 0.25 Q9.85 0.15 9.9 0.1 L10.2 0.1 10.2 0.4 9.9 0.45 M-27.95 -10.7 L-28.15 -10.6 -28.25 -10.65 -28.3 -10.8 -28.25 -10.95 -28.15 -11.0 Q-28.0 -10.95 -27.95 -10.85 L-27.95 -10.7 M-6.55 -13.15 L-6.7 -13.05 -6.8 -13.1 Q-6.85 -13.15 -6.85 -13.25 -6.85 -13.45 -6.8 -13.45 L-6.5 -13.45 -6.5 -13.35 -6.55 -13.15 M-9.95 -7.1 L-10.0 -7.1 Q-10.05 -7.15 -10.05 -7.25 L-10.0 -7.4 -9.95 -7.4 Q-9.8 -7.35 -9.75 -7.2 -9.75 -7.15 -9.95 -7.1 M-1.25 0.0 L-1.2 0.15 -1.25 0.25 Q-1.3 0.3 -1.4 0.3 L-1.6 0.25 -1.6 0.15 Q-1.6 0.0 -1.5 0.0 L-1.25 0.0 M-14.3 1.05 L-14.45 1.05 -14.5 0.95 -14.45 0.8 -14.4 0.8 -14.25 0.85 -14.25 0.95 -14.3 1.05" fill="#171717" fill-opacity="0.3019608" fill-rule="evenodd" stroke="none"/>
  </g>
</svg>
