<?xml version="1.0" encoding="UTF-8" standalone="no"?>
<svg xmlns:ffdec="https://www.free-decompiler.com/flash" xmlns:xlink="http://www.w3.org/1999/xlink" ffdec:objectType="shape" height="14.95px" width="42.8px" xmlns="http://www.w3.org/2000/svg">
  <g transform="matrix(1.0, 0.0, 0.0, 1.0, 28.5, 13.0)">
    <path d="M10.35 -0.4 Q10.2 -0.4 10.15 -0.45 L10.25 -0.55 10.4 -0.6 10.45 -0.5 10.35 -0.4 M13.55 -8.0 L13.45 -8.0 Q13.4 -8.05 13.4 -8.2 13.4 -8.3 13.45 -8.35 L13.55 -8.35 Q13.7 -8.25 13.75 -8.1 13.7 -8.0 13.55 -8.0 M14.15 1.65 Q14.3 1.7 14.3 1.8 14.25 1.9 14.15 1.95 L14.0 1.95 Q13.95 1.95 13.95 1.85 13.95 1.75 14.0 1.7 L14.15 1.65 M-28.45 -10.7 L-28.35 -10.7 Q-28.3 -10.65 -28.25 -10.6 L-28.25 -10.4 -28.35 -10.35 -28.45 -10.4 Q-28.5 -10.45 -28.5 -10.55 L-28.45 -10.7 M-6.7 -12.75 L-6.6 -12.9 -6.5 -13.0 -6.4 -12.95 -6.35 -12.8 -6.4 -12.7 -6.4 -12.75 Q-6.4 -12.7 -6.45 -12.7 L-6.55 -12.65 -6.6 -12.7 -6.7 -12.75 M-9.6 -7.1 L-9.6 -7.0 -9.65 -6.95 -9.75 -6.9 -9.8 -6.9 Q-9.8 -6.85 -9.8 -7.0 -9.8 -7.15 -9.8 -7.1 L-9.6 -7.1" fill="#171717" fill-opacity="0.3019608" fill-rule="evenodd" stroke="none"/>
  </g>
</svg>
