<?xml version="1.0" encoding="UTF-8" standalone="no"?>
<svg xmlns:ffdec="https://www.free-decompiler.com/flash" xmlns:xlink="http://www.w3.org/1999/xlink" ffdec:objectType="shape" height="12.05px" width="50.25px" xmlns="http://www.w3.org/2000/svg">
  <g transform="matrix(1.0, 0.0, 0.0, 1.0, 22.6, 9.05)">
    <path d="M4.0 -6.75 L3.95 -6.6 Q4.0 -6.55 3.85 -6.55 L3.75 -6.6 3.7 -6.65 Q3.7 -6.75 3.75 -6.8 L3.85 -6.95 Q3.9 -6.9 3.95 -6.85 L4.0 -6.75 M14.2 -8.0 L14.15 -7.95 Q14.0 -8.0 13.95 -8.05 14.05 -8.2 14.15 -8.25 L14.2 -8.2 14.25 -8.1 14.25 -8.0 14.2 -8.0 M27.6 -9.05 L27.65 -8.95 27.55 -8.85 Q27.45 -8.8 27.4 -8.8 27.35 -8.8 27.25 -8.85 27.35 -9.05 27.6 -9.05 M-22.45 -0.6 L-22.55 -0.65 -22.6 -0.8 Q-22.6 -0.9 -22.55 -0.95 L-22.45 -1.0 Q-22.25 -0.95 -22.25 -0.85 -22.3 -0.7 -22.45 -0.6 M-5.0 2.75 L-5.0 2.9 -5.05 2.95 -5.2 3.0 -5.25 2.95 -5.35 2.9 Q-5.3 2.7 -5.15 2.6 L-5.05 2.65 Q-5.0 2.65 -5.0 2.75" fill="#171717" fill-opacity="0.3019608" fill-rule="evenodd" stroke="none"/>
  </g>
</svg>
