<?xml version="1.0" encoding="UTF-8" standalone="no"?>
<svg xmlns:ffdec="https://www.free-decompiler.com/flash" xmlns:xlink="http://www.w3.org/1999/xlink" ffdec:objectType="shape" height="22.0px" width="46.6px" xmlns="http://www.w3.org/2000/svg">
  <g transform="matrix(1.0, 0.0, 0.0, 1.0, 23.2, 14.6)">
    <path d="M0.65 -7.45 L0.7 -7.5 0.85 -7.5 Q1.45 -6.9 1.55 -6.65 L1.55 -6.5 1.4 -6.5 Q1.1 -6.85 0.7 -7.35 0.65 -7.4 0.65 -7.45 M0.1 -9.45 L0.1 -9.35 0.05 -9.3 Q-0.55 -8.9 -2.25 -7.95 -4.05 -7.0 -4.25 -7.0 L-4.35 -7.0 -4.4 -7.05 Q-4.45 -7.1 -4.4 -7.2 L-0.05 -9.45 0.1 -9.45 M22.55 -12.95 L21.5 -11.75 21.5 -11.7 21.35 -11.7 21.3 -11.75 21.3 -11.85 Q21.8 -12.4 22.35 -13.2 L22.8 -13.9 Q23.05 -14.35 23.2 -14.55 L23.4 -14.55 Q23.4 -14.5 23.4 -14.4 23.45 -14.0 22.55 -12.95 M3.9 1.3 L3.95 1.35 3.95 1.4 3.85 1.6 3.65 1.8 Q3.6 1.8 3.55 1.75 3.55 1.7 3.55 1.6 3.5 1.55 3.65 1.4 L3.85 1.3 3.9 1.3 M-23.2 -7.95 L-23.2 -8.15 -23.15 -8.2 -23.15 -8.25 -23.1 -8.25 -22.8 -8.05 Q-22.55 -7.85 -22.4 -7.8 L-22.35 -7.8 -22.35 -7.65 -22.4 -7.6 -22.45 -7.6 -22.6 -7.55 Q-22.9 -7.55 -23.05 -7.75 L-23.05 -7.7 -23.2 -7.9 -23.2 -7.95 M-3.05 -10.3 L-3.0 -10.35 -2.85 -10.45 -2.8 -10.45 -2.55 -10.4 -2.5 -10.4 -2.5 -10.25 Q-2.5 -10.2 -2.55 -10.2 L-2.8 -10.15 -2.95 -10.15 Q-3.05 -10.2 -3.05 -10.25 L-3.05 -10.3 M-7.3 7.15 L-7.25 7.15 -7.25 7.2 -7.3 7.3 -7.3 7.35 -7.35 7.4 -7.45 7.4 Q-7.65 7.4 -7.65 7.3 L-7.7 7.25 Q-7.65 7.15 -7.5 7.15 L-7.35 7.1 Q-7.3 7.1 -7.3 7.15 M-16.7 2.65 L-16.65 2.6 -16.6 2.6 -15.05 3.15 -15.0 3.15 -14.95 3.25 -15.0 3.3 -15.05 3.3 -15.2 3.35 -15.25 3.35 Q-15.75 3.25 -16.05 3.1 L-16.65 2.8 -16.7 2.75 -16.7 2.65" fill="#262626" fill-opacity="0.5019608" fill-rule="evenodd" stroke="none"/>
    <path d="M0.8 -7.4 Q1.35 -6.85 1.5 -6.6 L1.45 -6.55 Q1.15 -6.9 0.75 -7.4 L0.8 -7.4 M21.45 -11.8 L21.4 -11.8 Q21.85 -12.35 22.45 -13.15 L22.85 -13.85 Q23.1 -14.3 23.3 -14.5 L23.3 -14.45 23.35 -14.4 Q23.35 -14.05 22.5 -13.0 L21.45 -11.8 M3.8 1.55 L3.65 1.7 Q3.6 1.75 3.6 1.6 3.6 1.55 3.7 1.5 3.8 1.4 3.85 1.4 L3.8 1.55 M-22.5 -7.7 L-22.6 -7.65 Q-22.85 -7.65 -23.0 -7.8 L-23.15 -7.95 -23.1 -8.15 -22.85 -7.95 Q-22.6 -7.8 -22.4 -7.75 L-22.5 -7.7 M-4.25 -7.1 Q-4.35 -7.1 -4.35 -7.15 L0.0 -9.4 Q-0.6 -9.0 -2.3 -8.05 -4.05 -7.1 -4.25 -7.1 M-2.6 -10.35 L-2.55 -10.3 -2.85 -10.25 -2.9 -10.25 -2.95 -10.3 -2.8 -10.35 -2.6 -10.35 M-7.35 7.3 L-7.45 7.3 -7.6 7.25 -7.5 7.2 -7.35 7.2 -7.35 7.3 M-15.1 3.25 L-15.2 3.25 Q-15.7 3.15 -16.0 3.05 L-16.6 2.7 Q-15.85 2.95 -15.05 3.2 L-15.1 3.25" fill="#c1ff3f" fill-opacity="0.2" fill-rule="evenodd" stroke="none"/>
  </g>
</svg>
