<?xml version="1.0" encoding="UTF-8" standalone="no"?>
<svg xmlns:ffdec="https://www.free-decompiler.com/flash" xmlns:xlink="http://www.w3.org/1999/xlink" ffdec:objectType="shape" height="6.35px" width="31.95px" xmlns="http://www.w3.org/2000/svg">
  <g transform="matrix(1.0, 0.0, 0.0, 1.0, 10.8, 2.85)">
    <path d="M11.45 -1.0 L11.5 -1.15 11.5 -1.2 Q11.8 -1.4 12.45 -1.55 12.95 -1.65 13.1 -1.45 L13.3 -1.4 Q13.4 -1.3 13.55 -1.3 L13.7 -1.15 13.55 -1.15 13.45 -1.1 13.55 -0.95 13.7 -0.9 13.75 -0.85 13.95 -0.85 14.05 -0.9 14.05 -0.95 14.0 -1.05 14.05 -1.05 14.1 -1.1 14.25 -1.1 Q14.5 -1.1 14.7 -0.9 L14.95 -0.6 14.95 -0.3 Q15.0 -0.1 15.2 -0.1 15.35 0.05 15.4 0.15 L15.4 0.4 15.3 0.9 15.15 1.1 Q15.0 1.25 14.95 1.25 L14.9 1.2 Q14.8 1.2 14.65 1.35 14.55 1.45 14.55 1.5 14.55 1.7 14.65 1.85 L14.6 1.85 14.7 1.9 14.8 1.9 14.9 1.85 15.05 1.75 Q15.1 1.75 15.1 1.8 15.15 1.85 15.15 1.95 L15.3 2.1 Q15.3 2.3 15.1 2.4 14.9 2.65 14.4 2.7 L14.3 2.7 14.3 2.65 14.4 2.45 14.35 2.4 Q14.3 2.35 14.15 2.3 L14.1 2.3 14.1 2.15 14.15 2.05 14.15 1.95 14.1 1.9 13.9 1.8 Q13.7 1.8 13.65 1.85 L13.45 1.85 Q13.4 1.8 13.4 1.75 13.0 1.8 12.8 1.9 L12.5 2.1 12.55 2.1 12.6 2.15 Q12.6 2.3 12.45 2.4 L12.1 2.5 11.95 2.6 11.9 2.6 11.85 2.55 11.9 2.45 11.95 2.4 11.85 2.3 11.2 2.3 Q11.05 2.15 11.1 2.1 L11.1 2.05 10.95 2.05 10.8 2.1 10.35 2.15 Q10.15 2.35 9.95 2.3 9.75 2.4 9.75 2.45 L9.8 2.55 Q9.8 2.7 9.55 2.7 9.2 2.8 8.9 2.95 L8.85 2.95 8.85 2.9 8.9 2.8 8.85 2.75 8.75 2.7 8.5 2.65 8.45 2.55 8.4 2.5 8.3 2.5 Q8.25 2.45 8.2 2.25 8.2 2.15 8.0 2.15 7.6 2.15 7.5 2.2 L7.4 2.25 Q7.4 2.3 7.45 2.3 L7.45 2.35 7.4 2.45 Q7.3 2.55 7.15 2.6 L7.1 2.6 Q7.1 2.65 6.9 2.85 6.5 2.9 6.35 3.05 6.3 3.15 6.35 3.25 6.15 3.3 6.0 3.35 L5.85 3.45 5.8 3.4 5.9 3.3 6.0 3.15 Q6.0 3.1 5.95 3.0 L5.85 2.8 Q5.85 2.65 5.95 2.55 6.15 2.4 6.55 2.3 L6.85 2.35 6.8 2.4 6.8 2.45 6.85 2.45 6.95 2.5 7.0 2.6 7.05 2.55 7.05 2.5 Q7.05 2.3 7.15 2.25 L7.3 2.2 7.35 2.15 7.35 1.9 7.3 1.75 7.2 1.75 7.15 1.7 7.1 1.6 7.05 1.55 Q7.05 1.45 7.35 1.25 7.55 1.1 7.7 1.15 L7.95 1.2 8.15 1.25 8.3 1.25 8.4 1.35 Q8.5 1.4 8.5 1.5 8.6 1.65 8.75 1.7 8.8 1.7 8.8 1.8 L8.75 2.05 Q8.8 2.05 8.8 2.1 L8.9 2.05 9.15 2.0 Q9.25 1.8 9.25 1.7 L9.2 1.6 9.2 1.5 Q9.15 1.5 9.1 1.55 L9.0 1.35 Q9.0 1.25 9.3 1.05 9.65 0.85 10.0 0.9 10.35 0.9 10.5 1.1 10.65 1.25 10.6 1.35 L10.7 1.4 10.7 1.5 10.65 1.7 10.9 1.7 Q11.1 1.7 11.25 1.6 L11.45 1.5 11.3 1.45 Q11.25 1.45 11.2 1.4 11.15 1.3 11.15 1.2 L11.15 1.05 Q11.2 1.0 11.3 0.85 L11.4 0.8 11.65 0.75 11.75 0.75 Q11.8 0.75 11.85 0.65 L11.9 0.55 11.9 0.5 11.95 0.5 11.95 0.25 12.05 0.05 Q12.05 -0.1 11.9 -0.2 L11.75 -0.35 11.6 -0.45 Q11.4 -0.55 11.35 -0.85 L11.45 -1.0 M16.25 -0.25 L16.15 -0.25 16.15 -0.35 Q16.15 -0.5 16.2 -0.55 L16.45 -0.75 16.8 -0.7 16.95 -0.65 Q17.1 -0.65 17.25 -0.8 17.4 -0.9 17.4 -1.0 L17.3 -1.1 17.55 -1.25 17.8 -1.35 18.2 -1.3 18.15 -1.4 Q18.05 -1.55 18.05 -1.7 18.05 -1.85 18.15 -2.1 L18.35 -2.25 18.4 -2.35 18.4 -2.4 18.5 -2.5 Q18.65 -2.65 18.85 -2.7 19.3 -2.9 19.65 -2.8 19.8 -2.9 20.05 -2.75 L20.35 -2.4 20.3 -2.35 20.25 -2.35 20.25 -2.3 20.35 -2.1 20.45 -1.85 20.6 -1.8 20.75 -1.8 Q20.75 -1.85 20.8 -1.85 L20.85 -1.85 Q20.9 -1.8 20.95 -1.8 21.15 -1.55 21.15 -1.1 21.15 -0.85 20.95 -0.5 20.55 -0.05 20.5 0.1 20.45 0.1 20.45 0.0 L20.35 0.0 20.35 -0.1 Q20.35 -0.15 20.45 -0.2 L20.45 -0.25 20.25 -0.3 Q19.95 -0.2 19.85 -0.15 19.75 -0.05 19.75 0.1 19.75 0.2 19.65 0.25 L19.45 0.4 Q19.4 0.4 19.35 0.5 L19.35 0.55 19.25 0.75 19.15 0.8 19.2 0.85 19.35 0.85 19.35 0.9 Q19.35 1.05 19.15 1.25 18.95 1.45 18.75 1.45 L18.75 1.35 18.6 1.25 18.65 1.2 18.7 1.05 18.5 1.05 18.4 1.1 18.25 1.0 18.2 0.95 18.15 0.85 Q17.4 0.95 17.15 1.4 L17.0 1.7 Q16.85 1.8 16.6 1.8 L16.4 1.8 16.3 1.7 16.35 1.65 16.35 1.6 16.2 1.65 15.95 1.85 Q15.9 1.9 15.8 1.9 L15.6 2.0 Q15.55 2.0 15.5 1.95 L15.85 1.6 Q16.0 1.45 16.0 1.25 L16.0 1.15 Q15.95 1.05 15.85 1.1 15.75 1.1 15.75 1.05 L15.95 0.8 Q16.05 0.7 16.35 0.65 16.55 0.7 16.6 0.8 16.65 0.85 16.65 1.0 L16.7 1.05 16.85 0.9 16.85 0.75 16.8 0.65 16.75 0.5 16.85 0.2 Q16.85 0.05 16.75 -0.1 16.6 -0.3 16.25 -0.25 M19.4 -1.15 L19.4 -1.05 19.35 -1.0 Q19.35 -0.95 19.3 -0.95 L19.2 -0.9 18.95 -0.9 Q19.0 -0.85 19.05 -0.55 L19.1 -0.25 19.0 -0.05 18.95 0.0 19.1 0.0 Q19.25 0.0 19.45 -0.3 19.75 -0.6 19.75 -0.75 19.75 -0.85 19.65 -1.0 19.55 -1.15 19.4 -1.15 M4.8 3.0 L4.75 2.95 4.75 2.9 4.9 2.95 4.95 2.95 4.9 3.0 4.8 3.0 M5.35 3.1 L5.25 3.1 5.25 2.95 5.35 2.95 Q5.4 2.95 5.45 3.0 5.4 3.1 5.35 3.1 M0.95 2.5 L1.0 2.45 1.3 2.45 1.4 2.6 1.4 2.65 1.5 2.65 1.45 2.75 1.35 2.75 1.35 2.65 1.3 2.7 1.1 2.75 1.05 2.8 0.95 2.95 0.9 2.8 0.85 2.75 Q0.85 2.7 0.9 2.6 L0.95 2.5 M1.25 2.65 L1.25 2.6 1.2 2.65 1.25 2.65 M1.05 3.0 L1.1 3.1 1.05 3.15 Q1.0 3.15 1.0 3.05 L1.05 3.0 M2.15 2.9 L2.3 2.9 2.4 2.95 2.4 3.0 2.55 3.0 2.55 3.15 2.45 3.2 Q2.35 3.2 2.3 3.15 L2.15 3.15 Q2.05 3.2 2.1 3.25 L2.15 3.35 2.1 3.4 2.05 3.4 1.95 3.2 Q1.95 3.1 2.05 3.05 L2.1 3.05 2.1 2.9 2.15 2.9 M1.6 2.8 L1.6 2.85 1.5 2.75 Q1.5 2.7 1.55 2.7 1.6 2.7 1.6 2.8 M2.3 3.45 L2.25 3.5 2.2 3.45 2.3 3.45 M-9.6 -2.4 L-9.45 -2.45 Q-8.75 -2.45 -8.6 -2.05 L-8.5 -1.85 Q-8.45 -1.75 -8.25 -1.8 -8.25 -1.75 -8.3 -1.7 L-8.3 -1.6 -8.2 -1.5 -8.15 -1.55 Q-8.05 -1.5 -8.0 -1.4 -7.95 -1.4 -7.95 -1.25 -7.95 -1.15 -8.0 -1.0 L-7.55 -1.0 Q-7.45 -0.95 -7.3 -0.8 L-7.15 -0.6 -7.05 -0.55 Q-6.95 -0.75 -6.7 -0.85 -6.35 -1.0 -6.3 -1.1 L-5.95 -1.05 Q-5.1 -0.95 -5.1 -0.55 -5.05 -0.55 -5.0 -0.4 L-4.9 -0.5 Q-4.8 -0.4 -4.75 -0.25 L-4.75 -0.05 Q-4.75 0.2 -4.8 0.25 L-5.05 0.6 -5.25 0.6 Q-5.35 0.65 -5.4 0.7 L-5.5 0.85 -5.4 1.0 -5.35 1.1 -5.35 0.8 -5.25 0.8 -5.1 0.75 -5.0 0.75 -4.95 0.85 -4.95 0.8 Q-4.95 0.7 -4.85 0.5 L-4.8 0.5 -4.8 0.45 Q-4.6 0.35 -4.5 0.3 L-4.45 0.35 -4.35 0.4 -4.3 0.4 Q-4.15 0.4 -4.15 0.0 -4.15 -0.15 -4.2 -0.2 L-4.25 -0.3 -4.4 -0.3 -4.4 -0.4 Q-4.4 -0.45 -4.25 -0.6 L-3.8 -1.05 -3.5 -1.15 -3.15 -1.25 Q-2.9 -1.35 -2.7 -1.25 -2.4 -1.15 -2.25 -1.05 L-2.05 -0.85 -1.85 -0.85 -1.85 -0.9 Q-1.7 -0.85 -1.55 -0.6 L-1.35 -0.3 -1.3 -0.25 Q-1.25 -0.15 -1.2 0.1 L-1.2 0.7 Q-1.2 0.9 -1.3 1.1 L-1.4 1.2 -1.5 1.4 Q-1.65 1.55 -1.9 1.6 L-1.85 1.65 Q-1.75 1.7 -1.75 1.8 L-1.7 1.85 -1.7 1.9 -1.85 2.0 -1.9 2.25 -1.85 2.4 Q-1.8 2.5 -1.65 2.55 L-1.75 2.5 -1.85 2.6 Q-1.9 2.65 -2.0 2.65 L-2.2 2.65 Q-2.3 2.6 -2.35 2.5 L-2.4 2.35 Q-2.4 2.2 -2.65 2.1 L-2.75 2.15 -2.8 2.15 -3.0 2.1 Q-3.15 2.0 -3.5 2.0 L-3.6 1.85 -3.65 1.75 -3.8 1.7 -3.9 1.6 -4.0 1.45 -4.05 1.55 -4.3 1.5 Q-4.3 1.65 -4.35 1.7 L-4.45 1.6 Q-4.55 1.5 -4.7 1.45 -4.75 1.35 -4.85 1.2 L-4.9 1.2 -4.9 1.1 -5.0 1.0 Q-5.1 1.0 -5.15 1.1 L-5.15 1.25 -5.2 1.2 -5.3 1.2 -5.35 1.15 -5.4 1.25 Q-5.45 1.35 -5.55 1.35 L-5.75 1.15 -5.85 1.15 -5.85 1.3 -5.8 1.35 Q-5.8 1.45 -5.9 1.55 L-6.2 1.75 -6.15 1.85 -6.05 1.95 Q-6.05 2.0 -6.15 2.0 L-6.25 1.95 -6.3 1.95 Q-6.4 1.95 -6.45 1.9 L-6.5 1.75 -6.55 1.65 Q-6.55 1.6 -6.6 1.55 L-6.9 1.55 Q-7.05 1.5 -7.1 1.3 L-7.2 1.05 -7.2 1.0 -7.35 0.85 -7.4 0.9 -7.4 1.0 Q-7.4 1.1 -7.45 1.2 L-7.55 1.3 -7.85 1.35 Q-7.95 1.4 -8.0 1.45 -8.1 1.5 -8.1 1.65 L-8.5 1.65 -8.6 1.55 -8.6 1.5 Q-8.75 1.4 -8.75 1.3 L-8.75 1.25 -8.8 1.25 -8.8 1.2 Q-8.8 1.1 -8.75 1.0 -8.7 0.9 -8.65 0.85 L-8.6 0.8 -8.5 0.75 Q-8.6 0.55 -8.75 0.45 -8.95 0.3 -8.95 0.15 L-8.95 0.1 -9.1 0.15 -9.4 0.1 -9.45 0.05 Q-9.6 0.05 -9.65 -0.05 -9.7 -0.15 -9.7 -0.25 L-9.65 -0.55 Q-9.6 -0.65 -9.45 -0.7 L-9.55 -0.8 -9.55 -0.75 -9.7 -0.75 -9.75 -0.8 -9.85 -0.8 Q-10.0 -1.0 -9.95 -1.25 L-10.1 -1.15 -10.15 -1.1 -10.15 -1.0 -10.0 -1.0 Q-9.9 -0.9 -9.9 -0.8 L-9.95 -0.6 Q-10.0 -0.55 -10.1 -0.45 L-10.2 -0.35 Q-10.35 -0.15 -10.3 -0.1 L-10.35 -0.05 -10.4 -0.3 Q-10.45 -0.45 -10.6 -0.45 L-10.65 -0.5 -10.7 -0.65 -10.7 -0.85 -10.8 -1.05 Q-10.8 -1.15 -10.6 -1.6 L-10.2 -1.8 Q-10.0 -1.85 -10.0 -2.0 L-10.0 -2.05 -10.05 -2.1 -9.95 -2.2 Q-9.9 -2.3 -9.8 -2.3 L-9.6 -2.4 M-10.15 -0.05 L-10.05 0.05 -10.0 0.2 -9.95 0.25 -9.9 0.35 Q-9.9 0.4 -9.95 0.4 L-9.95 0.35 Q-10.2 0.35 -10.25 0.25 -10.3 0.2 -10.3 0.1 L-10.25 -0.05 -10.15 -0.15 -10.1 -0.15 -10.15 -0.1 -10.15 -0.05 M-7.1 0.0 L-7.15 -0.05 -7.25 -0.05 -7.3 0.0 -7.35 0.0 -7.4 0.05 -7.65 0.05 -7.65 0.25 -7.55 0.3 -7.5 0.25 Q-7.45 0.2 -7.4 0.2 L-7.15 0.2 -7.15 0.15 -7.1 0.1 -7.1 0.0 M-2.7 1.1 L-2.9 1.1 Q-3.0 1.2 -3.0 1.25 -3.0 1.35 -2.9 1.4 L-2.7 1.45 -2.7 1.5 -2.85 1.7 -2.9 1.8 -2.9 1.9 -2.8 1.9 -2.8 1.95 -2.75 1.9 Q-2.75 1.8 -2.65 1.75 L-2.5 1.6 Q-2.65 1.55 -2.7 1.4 -2.7 1.3 -2.65 1.15 L-2.7 1.1 M-1.65 2.55 L-1.5 2.5 -1.25 2.45 -1.15 2.35 -1.1 2.45 -1.0 2.55 -1.05 2.7 Q-1.1 2.75 -1.25 2.8 L-1.4 2.75 -1.45 2.65 -1.65 2.6 -1.65 2.55 M-0.85 2.05 L-0.85 2.1 -0.9 2.2 -0.95 2.25 -1.05 2.25 Q-1.1 2.3 -1.1 2.2 -1.1 2.1 -1.0 2.1 L-0.85 2.05 M-5.3 1.3 L-5.3 1.35 -5.25 1.4 -5.25 1.45 -5.2 1.5 -5.25 1.65 -5.35 1.75 -5.55 1.8 -5.6 1.8 -5.7 1.7 Q-5.7 1.65 -5.6 1.6 L-5.45 1.5 -5.4 1.4 -5.4 1.3 -5.3 1.3 M-2.95 1.85 L-2.95 1.85 M-9.2 0.8 L-9.2 0.8 M-8.75 0.7 L-8.8 0.8 -8.8 0.85 Q-9.05 0.85 -9.15 0.9 L-9.25 1.05 -9.25 0.9 Q-9.25 0.5 -9.0 0.55 -8.95 0.6 -8.9 0.65 L-8.8 0.65 -8.75 0.7 M-9.65 0.4 L-9.8 0.25 Q-9.7 0.25 -9.65 0.3 L-9.6 0.35 -9.65 0.4" fill="#c1ff3f" fill-rule="evenodd" stroke="none"/>
    <path d="M19.55 -1.15 L19.55 -1.1 19.4 -1.15 19.4 -1.05 19.35 -1.0 Q19.35 -0.95 19.3 -0.95 L19.2 -0.9 18.95 -0.9 Q19.0 -0.85 19.05 -0.55 L19.1 -0.25 19.0 -0.05 18.95 0.0 19.1 0.0 Q19.25 0.0 19.45 -0.3 L19.6 -0.45 Q19.7 -0.45 19.75 -0.6 19.85 -0.7 19.85 -0.8 L19.8 -1.05 Q19.75 -1.2 19.55 -1.15 M17.35 -0.85 L17.3 -0.85 17.4 -0.95 17.35 -0.85 M16.25 -0.3 L16.55 -0.35 16.75 -0.25 16.95 -0.3 16.95 -0.25 Q17.0 -0.2 17.1 -0.2 17.4 -0.2 17.75 -0.5 L17.95 -0.7 Q18.2 -0.95 18.2 -1.2 L18.15 -1.3 18.2 -1.3 18.15 -1.4 18.1 -1.45 Q18.4 -1.4 18.4 -1.35 L18.4 -1.3 18.5 -1.3 Q18.7 -1.3 18.85 -1.4 19.0 -1.45 19.15 -1.55 19.35 -1.75 19.35 -1.9 L19.35 -1.95 Q19.5 -2.2 19.5 -2.35 L19.5 -2.55 Q19.45 -2.7 19.3 -2.75 L19.55 -2.8 19.65 -2.8 19.7 -2.85 19.75 -2.85 20.05 -2.75 20.35 -2.4 20.3 -2.35 20.25 -2.35 20.25 -2.3 20.35 -2.1 20.45 -1.85 20.5 -1.8 20.65 -1.7 Q20.75 -1.65 21.1 -1.55 21.15 -1.4 21.15 -1.1 21.15 -0.85 20.95 -0.5 L20.55 0.05 20.55 -0.05 Q20.55 -0.15 20.45 -0.25 L20.4 -0.25 20.25 -0.3 Q19.95 -0.2 19.85 -0.15 19.75 -0.05 19.75 0.1 19.75 0.2 19.65 0.25 L19.45 0.4 Q19.4 0.4 19.35 0.5 L19.35 0.55 19.25 0.75 19.15 0.8 19.2 0.85 19.35 0.85 19.35 0.9 Q19.35 1.05 19.15 1.25 18.95 1.45 18.75 1.45 L18.75 1.35 18.6 1.25 18.65 1.2 18.7 1.05 18.5 1.05 18.4 1.1 18.25 1.0 18.2 0.95 18.15 0.85 Q17.4 0.95 17.15 1.4 L17.0 1.7 Q16.85 1.8 16.6 1.8 L16.4 1.8 16.3 1.7 16.35 1.65 16.35 1.6 16.2 1.65 15.95 1.85 Q15.9 1.9 15.8 1.9 L15.6 2.0 Q15.55 2.0 15.5 1.95 L15.85 1.6 Q16.0 1.45 16.0 1.25 L16.0 1.15 16.1 1.25 16.2 1.25 16.3 1.0 Q16.4 0.8 16.45 0.8 L16.6 0.8 Q16.65 0.85 16.65 1.0 L16.7 1.05 16.85 0.9 16.85 0.75 16.8 0.65 16.75 0.5 16.85 0.2 Q16.85 0.05 16.75 -0.1 16.6 -0.3 16.25 -0.25 L16.15 -0.25 16.15 -0.3 16.25 -0.3 M17.3 -1.1 L17.35 -1.1 17.35 -1.0 17.3 -1.1 M14.05 -1.05 L14.1 -0.9 14.1 -0.85 13.5 -0.85 13.4 -0.9 13.35 -0.9 13.25 -1.1 13.25 -1.15 13.3 -1.15 13.4 -1.2 13.65 -1.15 13.55 -1.15 13.45 -1.1 13.55 -0.95 13.7 -0.9 13.75 -0.85 13.95 -0.85 14.05 -0.9 14.05 -0.95 14.0 -1.05 14.05 -1.05 M11.45 -1.0 L11.45 -0.9 Q11.45 -0.85 11.55 -0.8 L11.8 -0.7 Q11.95 -0.6 12.4 -0.6 L13.8 -0.6 14.05 -0.55 14.15 -0.5 Q14.25 -0.35 14.45 -0.35 14.65 -0.35 14.75 -0.5 14.85 -0.6 14.85 -0.7 L14.95 -0.6 14.95 -0.3 Q14.95 -0.2 15.05 -0.1 14.95 -0.1 14.95 0.0 L15.0 0.1 15.15 0.25 15.2 0.4 Q15.2 0.45 15.25 0.55 L15.4 0.35 15.4 0.4 15.3 0.9 15.15 1.1 Q15.0 1.25 14.95 1.25 L14.9 1.2 Q14.8 1.2 14.65 1.35 14.55 1.45 14.55 1.5 14.55 1.7 14.65 1.85 L14.6 1.85 14.7 1.9 14.8 1.9 14.9 2.0 Q15.0 2.0 15.1 1.8 15.15 1.85 15.15 1.95 L15.3 2.1 Q15.3 2.3 15.1 2.4 14.9 2.65 14.4 2.7 L14.3 2.7 14.3 2.65 14.4 2.45 14.35 2.4 Q14.3 2.35 14.15 2.3 L14.1 2.3 14.1 2.15 14.15 2.05 14.15 1.95 14.1 1.9 13.9 1.8 Q13.7 1.8 13.65 1.85 L13.45 1.85 Q13.4 1.8 13.4 1.75 13.0 1.8 12.8 1.9 L12.5 2.1 12.55 2.1 12.6 2.15 Q12.6 2.3 12.45 2.4 L12.1 2.5 11.95 2.6 11.9 2.6 11.85 2.55 11.9 2.45 11.95 2.4 11.85 2.3 11.2 2.3 Q11.05 2.15 11.1 2.1 L11.1 2.05 10.95 2.05 10.8 2.1 10.35 2.15 Q10.15 2.35 9.95 2.3 9.75 2.4 9.75 2.45 L9.8 2.55 Q9.8 2.7 9.55 2.7 9.2 2.8 8.9 2.95 L8.85 2.95 8.85 2.9 8.9 2.8 8.85 2.75 8.75 2.7 8.5 2.65 8.45 2.55 8.4 2.5 8.3 2.5 Q8.25 2.45 8.2 2.25 8.2 2.15 8.0 2.15 7.6 2.15 7.5 2.2 L7.4 2.25 Q7.4 2.3 7.45 2.3 L7.45 2.35 7.4 2.45 Q7.3 2.55 7.15 2.6 L7.1 2.6 Q7.1 2.65 6.9 2.85 6.5 2.9 6.35 3.05 6.3 3.15 6.35 3.25 6.15 3.3 6.0 3.35 L5.85 3.45 5.8 3.4 5.9 3.3 6.0 3.15 Q6.0 3.1 5.95 3.0 L5.85 2.8 5.95 2.85 6.05 2.85 6.35 2.65 6.4 2.65 6.45 2.7 6.7 2.65 Q6.9 2.65 7.0 2.55 L7.0 2.6 7.05 2.55 7.05 2.4 7.25 2.4 Q7.3 2.35 7.3 2.3 L7.3 2.2 7.35 2.15 7.35 1.9 7.3 1.75 7.2 1.75 7.15 1.7 7.1 1.6 7.15 1.65 7.4 1.65 7.4 1.7 7.65 1.75 Q7.95 1.75 8.15 1.65 L8.2 1.6 8.4 1.65 8.5 1.7 Q8.6 1.7 8.65 1.65 L8.75 1.7 Q8.8 1.7 8.8 1.8 L8.75 2.05 Q8.8 2.05 8.8 2.1 L8.9 2.15 9.1 2.15 Q9.2 2.15 9.3 2.05 9.4 2.0 9.4 1.9 L9.2 1.9 9.25 1.7 9.3 1.65 Q9.45 1.6 9.95 1.55 L10.0 1.55 Q10.25 1.5 10.5 1.35 L10.6 1.25 10.6 1.35 10.7 1.4 10.7 1.5 10.65 1.7 10.9 1.7 Q11.1 1.7 11.25 1.6 L11.45 1.5 11.3 1.45 Q11.25 1.45 11.2 1.4 L11.15 1.2 11.3 1.3 Q11.65 1.2 11.8 1.1 11.95 1.0 11.95 0.85 11.95 0.75 11.85 0.7 L11.85 0.65 11.9 0.55 11.9 0.5 11.95 0.5 11.95 0.25 12.05 0.05 Q12.05 -0.1 11.9 -0.2 L11.75 -0.35 11.6 -0.45 Q11.4 -0.55 11.35 -0.85 L11.45 -1.0 M6.75 2.4 L6.85 2.35 6.8 2.4 6.75 2.4 M4.8 3.0 L4.75 2.95 4.75 2.9 4.9 2.95 4.95 2.95 4.9 3.0 4.8 3.0 M5.45 3.0 Q5.4 3.1 5.35 3.1 L5.25 3.1 5.25 2.95 5.35 2.95 Q5.4 2.95 5.45 3.0 M0.9 2.6 L0.9 2.7 1.0 2.75 Q1.1 2.75 1.25 2.65 L1.25 2.6 1.3 2.6 1.25 2.5 1.2 2.45 1.3 2.45 1.4 2.6 1.4 2.65 1.5 2.65 1.45 2.75 1.35 2.75 1.35 2.65 1.3 2.7 1.1 2.75 1.05 2.8 0.95 2.95 0.9 2.8 0.85 2.75 Q0.85 2.7 0.9 2.6 M1.05 3.0 L1.1 3.1 1.05 3.15 Q1.0 3.15 1.0 3.05 L1.05 3.0 M2.05 3.05 L2.15 3.05 Q2.3 3.05 2.4 3.0 L2.55 3.0 2.55 3.15 2.45 3.2 Q2.35 3.2 2.3 3.15 L2.15 3.15 Q2.05 3.2 2.1 3.25 L2.15 3.35 2.1 3.4 2.05 3.4 1.95 3.2 Q1.95 3.1 2.05 3.05 M1.55 2.7 Q1.6 2.7 1.6 2.8 L1.6 2.85 1.5 2.75 Q1.5 2.7 1.55 2.7 M2.3 3.45 L2.25 3.5 2.2 3.45 2.3 3.45 M-9.45 -1.9 L-8.6 -1.9 -8.5 -1.7 -8.3 -1.7 -8.3 -1.5 -8.35 -1.4 -8.25 -1.25 -8.15 -1.2 -7.95 -1.2 -8.0 -1.0 -7.8 -1.0 Q-8.0 -1.0 -8.1 -0.95 -8.2 -0.85 -8.15 -0.75 -8.45 -0.9 -8.7 -0.55 -8.95 -0.2 -8.95 -0.1 L-8.9 0.0 -8.9 0.15 Q-8.9 0.3 -8.75 0.3 L-8.65 0.3 -8.6 0.25 -8.6 0.2 -8.4 -0.1 Q-8.2 -0.2 -7.9 -0.2 -7.8 -0.2 -7.75 -0.3 L-7.7 -0.45 -7.45 -0.55 -7.05 -0.55 -7.1 -0.3 -7.1 0.3 Q-7.1 0.4 -7.05 0.45 L-7.05 0.55 -7.0 0.6 -6.4 0.1 -6.2 -0.05 -5.85 -0.2 -5.35 -0.45 Q-5.25 -0.5 -5.25 -0.7 -5.25 -0.8 -5.3 -0.85 -5.1 -0.75 -5.1 -0.55 -5.05 -0.55 -5.0 -0.4 L-5.0 -0.25 Q-4.95 -0.15 -4.8 -0.15 L-4.75 -0.15 -4.75 -0.05 Q-4.75 0.2 -4.8 0.25 L-5.05 0.6 -5.25 0.6 Q-5.35 0.65 -5.4 0.7 L-5.5 0.85 -5.4 1.0 -5.35 1.1 -5.35 0.8 -5.25 0.8 -5.1 0.75 -5.0 0.75 -4.95 0.85 -4.95 0.8 Q-4.95 0.7 -4.9 0.6 L-4.9 0.8 Q-4.85 0.9 -4.75 0.9 -4.6 0.9 -4.45 0.7 -4.3 0.55 -4.3 0.45 L-4.3 0.4 Q-4.15 0.4 -4.15 0.0 -4.15 -0.15 -4.2 -0.2 L-4.25 -0.25 -4.15 -0.2 -3.9 0.05 -3.9 0.1 -3.85 0.1 -3.85 0.35 -3.8 0.45 -3.7 0.6 -3.55 0.6 Q-3.4 0.55 -3.3 0.4 L-3.15 0.2 Q-2.95 0.05 -2.95 0.0 -2.95 -0.15 -3.15 -0.15 L-3.3 -0.1 Q-2.85 -0.3 -2.55 -0.45 L-2.35 -0.55 -2.0 -0.65 -1.95 -0.65 -1.6 -0.55 -1.55 -0.6 -1.35 -0.3 -1.3 -0.25 Q-1.25 -0.15 -1.2 0.1 L-1.2 0.7 Q-1.2 0.9 -1.3 1.1 L-1.4 1.2 -1.5 1.4 Q-1.65 1.55 -1.9 1.6 L-1.85 1.65 Q-1.75 1.7 -1.75 1.8 L-1.7 1.85 -1.7 1.9 -1.85 2.0 -1.9 2.25 -1.85 2.4 Q-1.8 2.5 -1.65 2.55 L-1.75 2.5 -1.85 2.6 Q-1.9 2.65 -2.0 2.65 L-2.2 2.65 Q-2.3 2.6 -2.35 2.5 L-2.4 2.35 Q-2.4 2.2 -2.65 2.1 L-2.75 2.15 -2.8 2.15 -3.0 2.1 Q-3.15 2.0 -3.5 2.0 L-3.6 1.85 -3.65 1.75 -3.8 1.7 -3.9 1.6 -4.0 1.45 -4.05 1.55 -4.3 1.5 Q-4.3 1.65 -4.35 1.7 L-4.45 1.6 Q-4.55 1.5 -4.7 1.45 -4.75 1.35 -4.85 1.2 L-4.9 1.2 -4.9 1.1 -5.0 1.0 Q-5.1 1.0 -5.15 1.1 L-5.15 1.25 -5.2 1.2 -5.3 1.2 -5.35 1.15 -5.4 1.25 Q-5.45 1.35 -5.55 1.35 L-5.75 1.15 -5.85 1.15 -5.85 1.3 -5.8 1.35 Q-5.8 1.45 -5.9 1.55 L-6.2 1.75 -6.15 1.85 -6.05 1.95 Q-6.05 2.0 -6.15 2.0 L-6.25 1.95 -6.3 1.95 Q-6.4 1.95 -6.45 1.9 L-6.5 1.75 -6.55 1.65 Q-6.55 1.6 -6.6 1.55 L-6.9 1.55 Q-7.05 1.5 -7.1 1.3 L-7.2 1.05 -7.2 1.0 -7.35 0.85 -7.4 0.9 -7.4 1.0 Q-7.4 1.1 -7.45 1.2 L-7.55 1.3 -7.85 1.35 Q-7.95 1.4 -8.0 1.45 -8.1 1.5 -8.1 1.65 L-8.5 1.65 -8.6 1.55 -8.6 1.5 Q-8.75 1.4 -8.75 1.3 L-8.75 1.25 -8.8 1.25 -8.8 1.2 -8.75 1.05 -8.75 1.15 Q-8.75 1.25 -8.6 1.25 -8.55 1.25 -8.4 1.1 -8.3 0.95 -8.3 0.85 L-8.4 0.75 -8.5 0.75 Q-8.6 0.55 -8.75 0.45 -8.95 0.3 -8.95 0.15 L-8.95 0.1 -9.1 0.15 -9.4 0.1 -9.45 0.05 Q-9.6 0.05 -9.65 -0.05 L-9.7 -0.15 -9.65 -0.2 -9.6 -0.35 -9.5 -0.45 -9.4 -0.6 Q-9.4 -0.7 -9.45 -0.7 L-9.5 -0.7 -9.55 -0.8 -9.55 -0.75 -9.7 -0.75 -9.75 -0.8 -9.85 -0.8 Q-10.0 -1.0 -9.95 -1.25 L-10.1 -1.15 -10.15 -1.1 -10.15 -1.0 -10.0 -1.0 Q-9.9 -0.9 -9.9 -0.8 L-9.95 -0.6 Q-10.0 -0.55 -10.1 -0.45 L-10.2 -0.35 Q-10.35 -0.15 -10.3 -0.1 L-10.35 -0.05 -10.4 -0.3 Q-10.45 -0.45 -10.6 -0.45 L-10.65 -0.5 -10.7 -0.65 -10.7 -0.85 -10.75 -0.95 -10.75 -1.0 -10.4 -1.4 -10.15 -1.6 Q-9.95 -1.8 -9.95 -1.85 L-9.95 -1.9 -10.0 -1.95 -10.0 -2.05 -9.95 -2.05 Q-9.85 -1.95 -9.45 -1.9 M-10.15 -0.05 L-10.05 0.05 -10.0 0.2 -9.95 0.25 -9.9 0.35 Q-9.9 0.4 -9.95 0.4 L-9.95 0.35 Q-10.2 0.35 -10.25 0.25 -10.3 0.2 -10.3 0.1 L-10.25 -0.05 -10.15 -0.15 -10.1 -0.15 -10.15 -0.1 -10.15 -0.05 M-2.5 1.3 L-2.55 1.2 -2.65 1.15 -2.7 1.1 -2.9 1.1 Q-3.0 1.2 -3.0 1.25 -3.0 1.35 -2.9 1.4 L-2.7 1.45 -2.7 1.5 -2.85 1.7 -2.9 1.8 -2.9 1.9 -2.8 1.9 -2.8 1.95 -2.75 1.9 Q-2.75 1.8 -2.65 1.75 L-2.5 1.6 Q-2.65 1.55 -2.7 1.45 L-2.65 1.45 Q-2.6 1.45 -2.55 1.4 L-2.5 1.3 M-7.1 0.0 L-7.15 -0.05 -7.25 -0.05 -7.3 0.0 -7.35 0.0 -7.4 0.05 -7.65 0.05 -7.65 0.25 -7.55 0.3 -7.5 0.25 Q-7.45 0.2 -7.4 0.2 L-7.15 0.2 -7.15 0.15 -7.1 0.1 -7.1 0.0 M-1.65 2.55 L-1.5 2.5 -1.25 2.45 -1.15 2.35 -1.1 2.45 -1.0 2.55 -1.05 2.7 Q-1.1 2.75 -1.25 2.8 L-1.4 2.75 -1.45 2.65 -1.65 2.6 -1.65 2.55 M-0.85 2.05 L-0.85 2.1 -0.9 2.2 -0.95 2.25 -1.05 2.25 Q-1.1 2.3 -1.1 2.2 -1.1 2.1 -1.0 2.1 L-0.85 2.05 M-4.55 0.35 L-4.5 0.3 -4.45 0.35 -4.55 0.35 M-5.3 1.3 L-5.3 1.35 -5.25 1.4 -5.25 1.45 -5.2 1.5 -5.25 1.65 -5.35 1.75 -5.55 1.8 -5.6 1.8 -5.7 1.7 Q-5.7 1.65 -5.6 1.6 L-5.45 1.5 -5.4 1.4 -5.4 1.3 -5.3 1.3 M-2.95 1.85 L-2.95 1.85 M-9.2 0.85 L-9.2 0.85 M-8.75 0.7 L-8.8 0.8 -8.8 0.85 Q-9.05 0.85 -9.15 0.9 L-9.25 1.05 -9.25 0.9 Q-9.25 0.5 -9.0 0.55 -8.95 0.6 -8.9 0.65 L-8.8 0.65 -8.75 0.7 M-9.6 0.35 L-9.65 0.4 -9.8 0.25 Q-9.7 0.25 -9.65 0.3 L-9.6 0.35" fill="#262626" fill-rule="evenodd" stroke="none"/>
  </g>
</svg>
