<?xml version="1.0" encoding="UTF-8" standalone="no"?>
<svg xmlns:ffdec="https://www.free-decompiler.com/flash" xmlns:xlink="http://www.w3.org/1999/xlink" ffdec:objectType="shape" height="7.15px" width="31.1px" xmlns="http://www.w3.org/2000/svg">
  <g transform="matrix(1.0, 0.0, 0.0, 1.0, 15.9, 8.15)">
    <path d="M0.9 -4.35 Q1.6 -4.25 1.85 -4.1 L1.85 -4.05 1.95 -3.95 1.95 -3.55 1.9 -3.5 Q1.9 -3.4 1.85 -3.4 1.8 -3.3 1.6 -3.3 1.55 -3.3 1.3 -3.55 1.1 -3.75 1.1 -3.85 L0.2 -4.0 Q-0.05 -3.9 -0.3 -3.85 L-0.95 -3.8 -1.1 -3.85 Q-1.15 -3.85 -1.2 -3.9 L-1.25 -4.0 Q-1.25 -4.1 -1.15 -4.15 L-1.1 -4.15 -0.1 -4.4 -0.05 -4.4 0.05 -4.45 0.9 -4.35 M2.15 -2.75 Q2.5 -2.65 2.65 -2.35 L2.7 -2.25 Q2.7 -2.05 2.5 -2.0 L2.35 -2.0 2.2 -2.05 1.95 -2.15 Q1.9 -2.1 1.85 -2.1 1.8 -2.1 1.75 -2.2 L1.7 -2.25 1.7 -2.35 Q1.7 -2.6 1.8 -2.7 1.95 -2.8 2.15 -2.75 M9.5 -4.15 Q9.25 -4.3 9.1 -4.4 8.75 -4.6 8.55 -4.85 L8.5 -4.9 Q8.45 -4.95 8.3 -4.95 8.0 -4.95 7.3 -4.75 L6.6 -4.5 Q6.9 -4.05 6.95 -3.8 6.95 -3.7 6.95 -3.15 L6.95 -2.85 7.25 -2.9 9.65 -2.9 10.3 -2.75 10.2 -2.85 Q9.9 -3.25 9.75 -3.75 9.7 -4.0 9.5 -4.15 M10.0 -4.3 Q10.25 -3.6 10.5 -3.25 10.85 -2.7 11.45 -2.45 L11.5 -2.4 Q12.5 -2.25 13.55 -3.25 13.55 -3.5 13.4 -3.7 L12.95 -4.35 Q12.9 -4.4 12.95 -4.45 L12.95 -4.55 13.0 -4.65 13.05 -4.7 13.15 -4.7 Q13.5 -4.55 13.9 -4.2 L14.45 -3.55 Q14.55 -3.4 14.9 -2.85 15.25 -2.4 15.2 -2.3 15.25 -1.95 14.25 -1.05 L14.15 -1.0 Q14.05 -1.0 13.8 -1.15 L13.5 -1.35 12.7 -1.55 Q11.75 -1.85 11.4 -1.9 10.9 -2.05 9.95 -1.95 L9.9 -1.95 9.8 -1.85 9.75 -1.85 9.65 -1.9 9.6 -1.95 9.3 -2.1 9.2 -2.2 9.15 -2.2 9.0 -2.3 8.95 -2.3 7.85 -2.35 7.05 -2.3 7.0 -2.3 6.95 -2.25 6.65 -2.25 6.6 -2.3 6.45 -2.3 Q6.4 -2.3 6.4 -2.35 L6.35 -2.4 6.3 -2.5 6.3 -2.6 Q6.35 -2.8 6.55 -2.85 6.55 -2.9 6.6 -3.0 L6.6 -3.25 Q6.6 -3.45 6.45 -3.85 L6.2 -4.55 6.2 -4.65 6.25 -4.7 Q6.35 -4.8 7.25 -5.1 8.1 -5.4 8.3 -5.4 8.45 -5.4 9.15 -4.9 9.75 -4.4 9.9 -4.35 L9.95 -4.35 10.0 -4.3 M-12.0 -6.95 Q-11.65 -6.95 -11.55 -6.85 L-11.5 -6.8 -11.5 -6.6 -11.55 -6.55 -11.75 -6.55 -11.8 -6.6 -12.9 -6.55 -13.2 -6.55 Q-13.35 -6.55 -13.65 -6.35 L-14.1 -5.95 -14.15 -5.95 Q-14.2 -5.9 -14.6 -5.65 -14.85 -5.5 -14.8 -5.35 L-14.8 -5.3 -14.85 -5.1 Q-14.85 -5.05 -14.9 -5.0 L-15.05 -5.0 Q-15.25 -5.15 -15.25 -5.4 -15.3 -5.8 -14.75 -6.15 -14.2 -6.4 -13.95 -6.6 L-13.9 -6.6 -13.65 -6.85 Q-13.4 -7.05 -13.3 -7.05 -13.05 -7.05 -12.9 -6.85 L-12.0 -6.95 M-15.15 -4.55 Q-15.15 -4.45 -15.45 -4.1 -15.6 -3.9 -15.55 -3.75 L-15.55 -3.65 Q-15.55 -3.55 -15.6 -3.5 -15.65 -3.5 -15.7 -3.5 -15.75 -3.5 -15.8 -3.5 -15.9 -3.6 -15.9 -3.65 L-15.9 -3.8 Q-15.9 -4.15 -15.7 -4.35 L-15.4 -4.65 -15.3 -4.7 -15.2 -4.7 -15.15 -4.65 -15.15 -4.55 M-15.6 -3.35 L-15.55 -3.3 Q-15.5 -3.2 -15.45 -3.0 L-15.4 -2.75 -15.4 -2.65 -15.45 -2.6 -15.4 -2.6 -15.35 -2.55 -15.2 -2.5 -15.0 -2.35 -14.95 -2.3 Q-14.95 -2.25 -15.0 -2.2 L-15.05 -2.15 -15.15 -2.1 -15.25 -2.1 Q-15.35 -2.1 -15.45 -2.2 L-15.55 -2.3 -15.6 -2.4 Q-15.6 -2.5 -15.55 -2.55 L-15.7 -2.55 Q-15.75 -2.55 -15.8 -2.6 L-15.8 -2.7 -15.85 -2.95 -15.9 -3.25 -15.85 -3.35 -15.6 -3.35 M-9.25 -8.15 L-9.2 -8.05 -9.05 -7.85 -8.85 -7.5 -8.8 -7.4 -8.9 -7.3 -9.15 -7.2 -9.2 -7.1 Q-9.25 -6.85 -9.25 -6.65 L-9.25 -6.55 -9.4 -6.45 -9.45 -6.45 Q-9.5 -6.45 -9.6 -6.5 L-9.7 -6.55 Q-9.75 -6.55 -9.8 -6.6 L-9.8 -6.7 -9.75 -6.8 -9.6 -6.95 Q-9.55 -7.0 -9.55 -7.1 L-9.4 -7.4 Q-9.35 -7.5 -9.3 -7.55 -9.35 -7.6 -9.65 -7.7 -9.7 -7.7 -9.7 -7.75 L-9.75 -7.85 -9.55 -8.05 Q-9.4 -8.15 -9.35 -8.15 L-9.25 -8.15 M-8.25 -7.6 L-8.15 -7.7 -7.8 -7.7 -7.7 -7.65 -7.6 -7.55 -7.35 -6.5 Q-7.3 -6.45 -7.35 -6.4 L-7.4 -6.35 Q-7.55 -6.25 -7.7 -5.95 -7.95 -5.5 -8.1 -5.35 L-8.2 -5.3 -8.25 -5.3 -8.35 -5.35 Q-8.4 -5.35 -8.4 -5.6 -8.45 -5.6 -8.05 -6.15 L-7.75 -6.6 -7.85 -6.95 -7.95 -7.25 -8.15 -7.35 Q-8.2 -7.35 -8.2 -7.4 L-8.25 -7.5 -8.25 -7.6 M-8.6 -5.1 Q-8.65 -5.05 -8.8 -4.85 L-9.05 -4.65 -9.1 -4.6 Q-9.4 -4.55 -9.6 -4.45 L-9.95 -4.25 -9.65 -4.25 -9.15 -4.15 -9.15 -4.2 -8.8 -4.15 -8.7 -4.05 -8.6 -3.8 -8.4 -3.5 -8.4 -3.4 -8.45 -3.3 -8.55 -3.2 -8.6 -3.2 Q-9.35 -3.05 -9.5 -2.65 L-9.55 -2.25 Q-9.6 -2.1 -9.65 -1.95 L-9.6 -1.9 -9.55 -1.6 -9.55 -1.5 -9.6 -1.45 Q-9.65 -1.4 -9.7 -1.4 L-9.8 -1.4 -9.9 -1.45 -9.95 -1.5 -9.95 -1.8 -10.0 -1.85 -10.0 -1.9 -10.05 -2.1 Q-10.05 -3.3 -8.9 -3.55 L-8.9 -3.6 -8.95 -3.6 -9.0 -3.8 -9.25 -3.85 Q-10.3 -3.85 -10.5 -3.7 L-10.6 -3.6 Q-10.65 -3.45 -10.8 -3.4 L-11.0 -3.4 -11.1 -3.5 -11.1 -3.6 Q-11.05 -3.8 -10.6 -4.05 -10.3 -4.2 -10.15 -4.25 L-10.4 -4.25 Q-10.45 -4.25 -10.5 -4.3 L-10.55 -4.4 Q-10.6 -4.4 -10.65 -4.45 L-10.7 -4.55 -10.7 -4.95 -10.65 -5.0 -10.55 -5.05 -10.5 -5.1 -10.45 -5.1 -10.35 -5.05 -10.35 -4.95 -10.3 -4.75 -10.25 -4.6 Q-9.95 -4.65 -9.8 -4.75 -9.55 -4.9 -9.2 -5.0 L-9.05 -5.15 -8.8 -5.3 -8.7 -5.3 -8.6 -5.1 M-10.05 -6.65 Q-9.95 -6.6 -9.9 -6.55 L-9.85 -6.45 -9.85 -6.4 Q-9.9 -6.25 -10.0 -6.2 L-10.15 -6.2 -10.35 -6.35 -10.4 -6.4 -10.4 -6.6 -10.3 -6.65 -10.05 -6.65 M-11.55 -6.1 L-11.6 -6.2 -11.5 -6.1 -11.55 -6.1 M-11.45 -6.1 L-11.5 -6.05 -11.5 -6.1 -11.45 -6.1 M-8.8 -1.5 L-8.7 -1.55 -8.55 -1.5 Q-7.9 -1.5 -7.3 -2.0 L-6.55 -2.6 Q-6.25 -2.85 -6.0 -2.95 L-5.95 -3.05 -5.55 -3.3 -5.5 -3.3 -5.15 -3.25 -5.1 -3.15 -5.05 -3.1 Q-5.05 -3.05 -5.05 -3.0 L-5.1 -2.9 -5.45 -2.75 -5.7 -2.7 -5.8 -2.7 Q-6.05 -2.65 -6.2 -2.45 L-6.55 -2.1 -7.75 -1.2 -7.8 -1.2 -7.9 -1.15 -8.15 -1.15 -8.95 -1.2 -9.05 -1.2 -9.1 -1.25 -9.2 -1.45 -9.1 -1.55 -9.0 -1.55 -8.8 -1.5" fill="#00ffff" fill-opacity="0.5019608" fill-rule="evenodd" stroke="none"/>
    <path d="M0.85 -4.2 Q1.5 -4.1 1.75 -4.0 L1.8 -3.95 1.75 -3.85 1.8 -3.85 1.8 -3.55 1.75 -3.5 1.6 -3.45 1.4 -3.65 1.25 -3.85 1.25 -3.95 0.2 -4.15 Q-0.1 -4.05 -0.3 -4.0 L-0.95 -3.95 -1.1 -4.0 -1.05 -4.05 0.05 -4.25 0.05 -4.3 0.85 -4.2 M1.85 -2.25 L1.85 -2.35 Q1.85 -2.65 2.1 -2.6 2.4 -2.55 2.55 -2.25 2.55 -2.15 2.45 -2.1 L2.25 -2.2 1.85 -2.3 1.85 -2.25 M9.85 -4.25 Q10.15 -3.55 10.35 -3.15 10.75 -2.55 11.35 -2.3 L11.45 -2.25 Q12.55 -2.05 13.7 -3.2 13.7 -3.5 13.55 -3.75 L13.05 -4.45 13.1 -4.55 Q13.4 -4.45 13.8 -4.1 L14.3 -3.5 14.8 -2.8 Q15.05 -2.4 15.05 -2.3 15.05 -2.0 14.15 -1.15 14.05 -1.15 13.85 -1.3 L13.55 -1.45 12.75 -1.7 11.45 -2.05 Q10.9 -2.2 9.95 -2.1 L9.85 -2.05 9.8 -2.0 9.7 -2.05 9.65 -2.05 9.4 -2.25 9.25 -2.3 9.3 -2.3 Q9.15 -2.4 8.9 -2.5 L9.0 -2.45 7.85 -2.5 7.05 -2.45 6.8 -2.45 6.9 -2.4 6.7 -2.4 6.7 -2.45 6.45 -2.45 6.45 -2.55 Q6.45 -2.7 6.6 -2.7 L6.75 -2.7 6.7 -2.85 6.75 -2.95 6.75 -3.25 Q6.75 -3.5 6.6 -3.9 L6.3 -4.6 Q6.45 -4.7 7.25 -4.95 8.1 -5.25 8.3 -5.25 8.4 -5.25 9.05 -4.8 9.7 -4.3 9.85 -4.25 M9.15 -4.5 Q8.85 -4.7 8.65 -4.95 8.5 -5.1 8.3 -5.1 8.0 -5.1 7.25 -4.9 L6.55 -4.65 Q6.5 -4.6 6.4 -4.55 6.75 -4.0 6.8 -3.8 6.8 -3.7 6.8 -3.15 L6.8 -2.7 7.3 -2.75 9.65 -2.75 10.75 -2.5 10.9 -2.45 Q10.55 -2.6 10.3 -2.95 10.05 -3.3 9.9 -3.8 9.8 -4.1 9.6 -4.25 9.3 -4.4 9.15 -4.5 M-11.65 -6.75 L-11.6 -6.7 -11.7 -6.7 Q-11.75 -6.7 -11.75 -6.75 L-12.9 -6.7 -13.2 -6.7 Q-13.35 -6.7 -13.75 -6.45 L-14.2 -6.1 -14.7 -5.8 Q-15.0 -5.55 -14.95 -5.3 L-15.0 -5.1 Q-15.1 -5.25 -15.1 -5.4 -15.1 -5.75 -14.7 -6.0 -14.15 -6.3 -13.85 -6.5 L-13.55 -6.7 Q-13.35 -6.9 -13.3 -6.9 -13.1 -6.9 -12.95 -6.75 L-12.45 -6.75 -12.0 -6.8 Q-11.7 -6.8 -11.65 -6.75 M-15.55 -4.2 Q-15.75 -3.9 -15.7 -3.7 L-15.7 -3.6 -15.75 -3.65 -15.75 -3.8 Q-15.75 -4.1 -15.6 -4.25 -15.4 -4.4 -15.25 -4.6 -15.3 -4.5 -15.55 -4.2 M-15.6 -2.95 L-15.55 -2.7 -15.7 -2.7 -15.7 -2.95 -15.75 -3.25 -15.7 -3.25 Q-15.65 -3.15 -15.6 -2.95 M-15.25 -2.35 L-15.1 -2.25 -15.2 -2.25 Q-15.3 -2.25 -15.35 -2.3 L-15.45 -2.4 -15.45 -2.45 -15.25 -2.35 M-9.2 -7.35 Q-9.3 -7.3 -9.3 -7.15 -9.4 -6.9 -9.4 -6.65 L-9.45 -6.6 -9.55 -6.65 -9.7 -6.7 -9.5 -6.85 Q-9.4 -6.9 -9.4 -7.05 L-9.25 -7.3 Q-9.2 -7.45 -9.2 -7.55 -9.2 -7.7 -9.6 -7.85 L-9.5 -7.95 -9.35 -8.0 -9.2 -7.75 -8.95 -7.45 -9.2 -7.35 M-7.95 -7.4 L-8.1 -7.5 -8.1 -7.6 -7.75 -7.55 Q-7.6 -6.8 -7.45 -6.45 -7.65 -6.35 -7.85 -6.0 -8.05 -5.6 -8.2 -5.45 L-8.25 -5.45 -8.25 -5.6 -7.95 -6.1 -7.6 -6.6 Q-7.6 -6.7 -7.7 -7.0 L-7.8 -7.35 -7.95 -7.4 M-10.0 -6.45 Q-10.0 -6.35 -10.05 -6.35 L-10.25 -6.45 -10.25 -6.5 -10.2 -6.55 -10.0 -6.45 M-11.5 -6.55 Q-11.45 -6.45 -11.45 -6.35 L-11.45 -6.2 -11.5 -6.25 -11.55 -6.25 -11.55 -6.5 -11.6 -6.75 -11.55 -6.75 -11.5 -6.55 M-10.4 -4.5 L-10.55 -4.55 -10.55 -4.95 -10.5 -4.95 -10.45 -4.7 Q-10.4 -4.55 -10.3 -4.5 -9.9 -4.5 -9.7 -4.65 -9.5 -4.8 -9.1 -4.85 L-8.95 -5.05 Q-8.85 -5.15 -8.75 -5.15 -8.8 -5.1 -8.9 -4.95 L-9.15 -4.75 Q-9.4 -4.7 -9.7 -4.55 L-10.0 -4.4 -10.4 -4.4 -10.4 -4.5 M-10.55 -3.95 Q-10.2 -4.1 -10.1 -4.1 L-9.65 -4.1 -9.2 -4.05 -8.85 -4.0 -8.7 -3.75 -8.55 -3.45 -8.65 -3.3 Q-9.5 -3.2 -9.6 -2.7 L-9.7 -2.3 Q-9.75 -2.05 -9.85 -1.9 L-9.9 -1.95 -9.9 -2.1 Q-9.9 -3.25 -8.7 -3.45 L-8.8 -3.65 -8.9 -3.95 -9.25 -4.0 Q-10.4 -4.0 -10.6 -3.8 L-10.7 -3.65 Q-10.75 -3.55 -10.85 -3.55 L-10.95 -3.55 Q-10.9 -3.7 -10.55 -3.95 M-9.75 -1.85 L-9.7 -1.55 -9.8 -1.55 -9.8 -1.85 -9.75 -1.85 M-9.05 -1.45 L-8.75 -1.35 -8.7 -1.4 -8.55 -1.35 Q-7.9 -1.35 -7.2 -1.85 L-6.5 -2.5 Q-6.15 -2.75 -5.8 -2.9 L-5.85 -2.95 -5.5 -3.2 -5.2 -3.1 -5.2 -3.05 -5.5 -2.9 -5.7 -2.85 -5.8 -2.85 Q-6.1 -2.75 -6.3 -2.55 L-6.65 -2.2 Q-7.6 -1.55 -7.85 -1.3 L-8.95 -1.3 -9.05 -1.45" fill="#ffffff" fill-rule="evenodd" stroke="none"/>
  </g>
</svg>
