<?xml version="1.0" encoding="UTF-8" standalone="no"?>
<svg xmlns:ffdec="https://www.free-decompiler.com/flash" xmlns:xlink="http://www.w3.org/1999/xlink" ffdec:objectType="shape" height="130.95px" width="72.4px" xmlns="http://www.w3.org/2000/svg">
  <g transform="matrix(1.0, 0.0, 0.0, 1.0, 23.6, 127.55)">
    <path d="M19.4 -127.55 L19.45 -127.4 19.5 -127.35 20.3 -124.95 Q20.5 -124.7 20.4 -124.55 20.8 -123.35 21.1 -122.05 21.2 -121.9 21.2 -121.75 L21.25 -121.7 Q21.4 -121.55 21.4 -121.4 L21.5 -121.0 Q21.45 -121.0 21.5 -121.0 21.65 -120.15 21.85 -119.1 L21.85 -119.0 Q22.35 -116.55 23.25 -112.85 24.7 -106.75 25.25 -103.75 25.95 -99.75 26.05 -96.45 26.1 -96.2 26.2 -95.9 27.15 -92.75 27.3 -91.1 27.5 -89.35 26.9 -86.4 26.45 -84.15 26.2 -82.7 L26.5 -80.5 Q26.45 -80.3 26.4 -80.2 22.15 -75.75 17.9 -68.95 16.5 -66.65 15.1 -64.15 L14.95 -63.95 14.9 -63.8 14.8 -63.65 Q13.35 -61.0 11.8 -57.9 11.8 -57.85 11.75 -57.8 L10.7 -55.75 Q8.35 -50.9 5.9 -45.1 L5.85 -45.1 5.8 -44.8 5.75 -44.75 Q5.55 -44.35 5.45 -43.9 5.0 -42.35 4.9 -39.6 L4.65 -37.15 4.6 -37.15 4.65 -37.1 Q4.3 -34.8 3.6 -32.95 3.2 -31.95 1.4 -30.25 L1.35 -30.25 1.3 -30.2 0.55 -29.5 0.5 -29.5 Q-1.1 -28.1 -1.8 -26.45 -2.05 -25.9 -2.15 -25.3 L-2.15 -25.25 Q-3.1 -20.9 -3.45 -18.6 -3.75 -16.6 -3.8 -15.0 L-3.8 -14.95 Q-3.85 -13.5 -3.65 -12.3 -3.6 -12.15 -3.6 -12.0 -3.05 -8.9 -3.3 -4.1 -3.4 -2.85 -3.5 -1.95 -3.45 -1.8 -3.5 -1.7 -3.7 0.35 -4.1 0.85 L-4.1 0.9 Q-3.95 2.65 -4.1 3.15 L-4.2 3.3 -4.35 3.35 Q-4.85 3.55 -5.7 2.4 L-5.8 2.2 Q-5.9 1.8 -5.95 1.1 L-6.05 0.8 -6.15 0.35 -6.45 -0.15 -6.5 -0.4 Q-6.5 -0.55 -6.45 -0.6 -6.3 -0.85 -6.1 -1.0 -5.95 -1.75 -5.65 -1.95 L-5.35 -2.0 Q-5.25 -2.2 -5.25 -2.4 -5.4 -8.45 -5.4 -12.55 L-5.4 -15.45 -5.35 -15.55 Q-5.3 -17.3 -5.15 -18.5 -5.1 -18.85 -5.1 -19.25 -4.65 -23.05 -3.6 -25.95 L-3.55 -26.05 -3.1 -27.15 -3.1 -27.25 -3.05 -27.3 Q-2.2 -29.35 -0.95 -30.85 L-0.1 -31.8 Q1.5 -33.5 2.55 -38.0 L3.05 -40.35 Q3.15 -41.05 3.3 -41.6 3.65 -43.3 3.95 -44.5 L3.95 -44.55 Q4.15 -45.3 4.35 -45.85 L4.35 -45.95 Q5.2 -48.9 7.25 -52.8 8.45 -55.15 9.2 -56.7 L10.2 -58.75 10.2 -58.8 Q11.35 -61.65 13.1 -64.65 13.1 -64.75 13.1 -64.8 L13.15 -64.95 Q13.4 -67.8 14.5 -71.2 L14.55 -71.25 14.55 -71.3 Q15.25 -73.35 16.75 -77.75 18.1 -81.7 19.5 -84.15 20.05 -85.15 20.8 -86.15 L20.75 -86.9 Q20.7 -87.65 20.95 -88.15 21.25 -89.2 23.35 -90.8 L23.55 -92.25 Q23.3 -93.05 23.1 -94.0 L22.85 -95.35 Q22.05 -99.1 21.8 -101.45 L21.8 -101.5 Q21.7 -102.45 21.6 -103.7 L21.35 -109.2 21.35 -109.35 Q21.35 -110.5 21.25 -111.8 L21.3 -111.75 20.9 -114.1 Q20.45 -117.1 20.4 -119.15 L20.0 -121.1 Q19.85 -121.5 19.8 -121.85 L19.7 -122.0 19.15 -124.1 19.15 -124.15 Q19.0 -125.0 18.65 -126.15 L18.5 -126.15 18.25 -126.7 Q18.15 -126.85 18.2 -127.0 18.2 -127.1 18.25 -127.15 L18.1 -127.55 19.4 -127.55 M16.9 -117.75 L17.2 -117.75 17.45 -117.6 Q17.55 -117.45 17.6 -117.3 17.9 -115.8 17.65 -115.25 L17.55 -115.15 Q16.6 -114.35 16.5 -114.25 16.5 -114.1 16.4 -114.0 14.9 -112.95 14.7 -112.3 14.7 -112.0 14.7 -111.9 L14.65 -111.85 Q14.45 -111.45 14.0 -111.7 13.75 -111.75 13.45 -112.1 13.4 -112.2 13.4 -112.3 13.3 -112.4 13.35 -112.45 L13.4 -112.9 13.4 -112.95 Q13.5 -113.55 13.6 -113.8 L13.7 -113.9 Q15.1 -114.95 15.2 -115.05 15.2 -115.2 15.3 -115.25 L16.3 -116.1 16.25 -116.4 Q16.25 -116.55 16.3 -116.65 16.6 -117.1 16.75 -117.55 16.75 -117.7 16.9 -117.75 M25.05 -115.05 Q25.3 -114.15 25.85 -111.7 L25.8 -111.45 Q25.8 -111.4 25.7 -111.35 L25.55 -111.25 25.3 -111.2 Q25.15 -111.25 25.0 -111.35 24.9 -111.45 24.85 -111.65 24.3 -113.15 23.65 -115.6 23.1 -117.95 23.1 -118.5 23.05 -118.65 23.15 -118.75 23.25 -118.85 23.45 -118.85 23.6 -118.8 23.7 -118.7 23.9 -118.6 23.95 -118.45 24.65 -116.45 25.05 -115.05 M47.6 -82.15 Q48.35 -81.05 48.55 -80.65 L48.55 -80.6 Q49.05 -79.45 48.65 -78.25 48.6 -78.15 48.45 -78.1 L48.2 -78.1 48.0 -78.15 Q47.8 -78.2 47.7 -78.35 47.55 -78.55 47.55 -78.7 47.5 -80.2 46.45 -82.3 45.9 -83.55 44.65 -85.95 L44.6 -86.0 Q44.2 -87.0 43.6 -90.25 43.15 -92.6 42.55 -93.2 42.4 -93.3 42.4 -93.45 42.35 -93.6 42.35 -93.7 42.4 -93.8 42.5 -93.9 L42.6 -93.95 Q42.75 -94.1 43.05 -94.05 43.1 -94.1 43.3 -93.9 L43.4 -93.75 43.8 -93.25 Q44.6 -92.25 44.95 -89.35 45.3 -86.6 45.85 -85.6 L45.9 -85.6 46.75 -83.8 Q47.2 -82.75 47.6 -82.15 M48.45 -72.85 Q48.55 -72.4 48.55 -72.0 L48.7 -71.85 Q48.8 -71.75 48.8 -71.6 L48.8 -71.4 48.7 -71.3 Q48.65 -71.15 48.55 -71.15 L48.4 -71.1 48.25 -70.7 Q47.8 -69.75 47.75 -69.6 47.75 -69.45 47.6 -69.35 L46.75 -68.95 46.5 -68.9 Q46.3 -69.0 46.2 -69.1 46.05 -69.2 46.05 -69.4 46.05 -69.55 46.15 -69.65 46.65 -70.35 47.15 -71.75 L47.55 -73.1 Q47.6 -73.2 47.75 -73.25 L48.0 -73.3 Q48.15 -73.25 48.3 -73.1 L48.45 -72.85 M39.35 -99.7 Q40.2 -98.95 41.0 -98.45 41.2 -98.35 41.25 -98.15 41.3 -97.95 41.25 -97.85 41.2 -97.7 41.05 -97.7 40.35 -97.5 39.5 -98.15 39.1 -98.45 38.75 -98.8 38.4 -98.85 37.9 -99.45 L37.85 -99.55 Q36.6 -102.35 36.4 -102.6 35.8 -103.35 33.7 -104.25 31.5 -105.25 30.85 -104.75 30.75 -104.7 30.65 -104.7 L30.45 -104.7 Q29.9 -104.9 29.7 -105.0 29.25 -105.2 28.75 -105.75 28.5 -106.1 28.05 -106.9 27.7 -107.55 27.45 -107.9 27.3 -108.05 27.3 -108.2 27.3 -108.4 27.45 -108.45 L27.6 -108.55 Q27.7 -108.65 27.9 -108.55 28.05 -108.55 28.2 -108.4 28.5 -108.1 29.0 -107.3 29.4 -106.6 29.6 -106.35 29.8 -106.15 30.0 -106.05 L30.35 -106.0 31.0 -106.2 31.15 -106.2 31.35 -106.15 Q31.65 -106.0 34.4 -104.95 L34.45 -104.9 Q36.55 -104.1 37.3 -103.15 38.15 -102.05 39.35 -99.75 L39.35 -99.7 M26.0 -91.3 L25.85 -92.3 Q25.75 -92.0 25.7 -91.65 25.8 -91.55 25.85 -91.45 25.85 -91.3 25.8 -91.2 L25.6 -90.9 Q25.4 -90.1 25.2 -89.4 L25.5 -87.35 Q25.55 -87.0 25.6 -86.65 26.15 -89.85 26.0 -91.3 M13.0 -109.65 Q13.1 -109.55 13.15 -109.4 L13.05 -109.2 Q12.85 -108.9 11.5 -106.6 10.1 -104.1 9.45 -103.25 L9.35 -103.15 8.95 -103.0 8.65 -103.0 Q8.5 -103.05 8.4 -103.2 8.25 -103.3 8.25 -103.45 L8.15 -104.0 Q8.1 -104.15 8.2 -104.25 9.15 -105.65 10.15 -107.3 L10.15 -107.25 Q11.4 -109.2 11.5 -109.6 11.5 -109.75 11.65 -109.8 12.45 -110.1 12.75 -109.9 12.9 -109.85 13.0 -109.65 M5.2 -101.0 Q4.95 -100.85 4.5 -100.15 3.9 -99.4 3.55 -99.2 3.0 -98.85 2.15 -98.4 1.3 -98.0 0.95 -97.9 L0.9 -97.9 0.6 -97.8 Q-0.2 -97.65 -0.35 -98.05 -0.45 -98.15 -0.5 -98.3 -0.5 -98.45 -0.45 -98.55 -0.4 -98.65 0.0 -98.75 0.25 -98.8 0.5 -98.95 1.3 -99.5 1.4 -99.65 1.4 -99.75 1.5 -99.85 3.65 -101.45 4.35 -102.15 L4.45 -102.2 Q4.8 -102.4 6.55 -102.15 6.7 -102.15 6.8 -102.05 L7.05 -101.8 Q7.05 -101.65 7.05 -101.5 L7.0 -101.35 Q6.95 -101.2 6.8 -101.15 L5.75 -101.1 Q5.4 -101.15 5.2 -101.0 M44.6 -68.65 L45.0 -68.8 Q45.65 -69.05 45.85 -68.9 46.0 -68.85 46.1 -68.75 L46.25 -68.5 Q46.25 -68.4 46.25 -68.25 46.05 -67.85 44.95 -66.35 44.2 -65.35 44.25 -64.8 44.25 -64.7 44.25 -64.6 L44.25 -64.3 Q44.25 -64.25 44.2 -64.15 43.85 -63.65 43.1 -62.45 42.25 -61.15 42.2 -60.85 42.05 -60.4 42.4 -59.5 42.75 -58.5 42.0 -57.8 L41.95 -57.75 40.85 -57.2 40.55 -57.2 Q40.4 -57.25 40.25 -57.4 40.15 -57.55 40.1 -57.65 40.05 -57.95 40.1 -58.15 40.1 -58.2 40.2 -58.2 L41.05 -58.95 Q41.1 -59.25 40.85 -59.8 40.25 -60.9 40.9 -61.9 41.45 -62.75 42.2 -63.8 42.8 -64.6 43.2 -64.95 L43.15 -65.05 Q43.15 -65.6 43.75 -66.95 L44.4 -68.45 Q44.45 -68.55 44.6 -68.65 M40.5 -53.85 Q40.6 -53.45 40.5 -52.95 40.4 -52.45 40.4 -52.15 L40.35 -52.0 Q40.3 -51.9 40.2 -51.85 L39.8 -51.75 39.55 -51.7 Q39.35 -51.8 39.25 -51.9 39.1 -52.0 39.15 -52.2 39.05 -52.6 39.15 -53.25 L39.2 -53.25 Q39.35 -54.15 39.8 -54.3 L40.05 -54.3 Q40.2 -54.25 40.35 -54.1 L40.5 -53.85 M39.55 -51.65 Q39.7 -51.55 39.75 -51.35 39.9 -50.85 39.65 -49.95 39.35 -49.05 39.3 -48.35 39.3 -48.15 39.2 -48.05 L38.85 -48.05 38.65 -48.1 Q38.45 -48.2 38.35 -48.3 38.2 -48.5 38.25 -48.6 38.2 -49.05 38.55 -50.35 38.85 -51.6 38.95 -51.7 39.05 -51.8 39.2 -51.8 39.4 -51.8 39.55 -51.65 M39.2 -43.6 L39.45 -43.4 39.6 -43.15 Q39.7 -42.65 39.85 -41.85 L39.9 -41.85 Q40.1 -40.95 40.25 -40.6 40.3 -40.5 40.3 -40.4 40.3 -40.25 40.15 -40.2 L40.0 -40.05 39.75 -40.05 Q39.6 -40.05 39.45 -40.15 38.95 -40.5 38.7 -41.85 L38.7 -41.8 Q38.45 -43.05 38.75 -43.45 38.8 -43.6 38.95 -43.6 L39.2 -43.6 M-12.15 -95.6 Q-12.1 -95.45 -12.15 -95.35 L-12.15 -95.2 Q-12.2 -95.1 -12.25 -95.0 -12.8 -94.55 -12.85 -94.4 -12.85 -94.3 -12.9 -94.25 -13.0 -94.15 -13.05 -94.15 L-13.5 -94.05 -13.6 -94.0 Q-13.75 -93.6 -14.35 -94.15 -14.35 -94.05 -14.4 -94.05 L-15.9 -90.85 Q-15.95 -90.75 -16.05 -90.7 L-16.45 -90.55 -16.6 -90.55 -16.55 -90.5 Q-16.5 -90.35 -16.5 -90.2 -16.5 -90.1 -18.0 -88.3 -18.3 -87.85 -18.85 -87.3 -19.5 -86.55 -19.9 -86.3 L-21.2 -86.3 Q-21.35 -86.2 -21.7 -85.45 -22.15 -84.65 -22.3 -84.05 L-22.35 -83.95 Q-22.4 -83.9 -22.5 -83.9 L-22.95 -83.8 Q-23.1 -83.75 -23.25 -83.85 -23.4 -83.95 -23.55 -84.1 -23.6 -84.3 -23.55 -84.45 -22.7 -87.35 -22.5 -87.45 -22.1 -87.7 -21.45 -87.5 L-21.05 -87.55 Q-19.65 -88.4 -19.1 -89.2 -18.85 -89.55 -18.75 -90.05 -18.75 -90.2 -18.65 -90.25 -17.55 -90.85 -17.1 -90.85 L-17.15 -91.05 Q-17.25 -91.6 -16.75 -92.9 L-16.75 -92.85 Q-16.5 -93.55 -15.95 -94.7 L-15.8 -94.8 -15.05 -95.2 -14.7 -95.2 -14.2 -95.0 Q-14.2 -95.4 -14.1 -95.4 L-14.0 -95.5 Q-12.65 -96.25 -12.35 -95.85 L-12.15 -95.6 M-3.1 -98.05 Q-2.95 -97.9 -2.9 -97.8 -2.85 -97.7 -2.85 -97.55 -2.85 -97.3 -3.2 -96.8 -3.5 -96.3 -3.95 -96.05 -4.4 -95.7 -6.55 -96.2 L-8.55 -96.7 -9.25 -96.25 Q-9.8 -95.85 -10.2 -96.2 -10.35 -96.3 -10.4 -96.4 -10.45 -96.6 -10.45 -96.7 -10.4 -96.85 -10.3 -96.9 -10.4 -96.95 -10.35 -97.1 L-10.35 -97.15 -10.4 -97.3 Q-10.35 -97.45 -10.25 -97.55 -8.9 -98.4 -6.5 -97.5 -5.05 -97.0 -4.35 -98.2 -4.35 -98.3 -4.2 -98.35 L-3.95 -98.3 -3.3 -98.1 -3.1 -98.05 M-22.25 -83.1 Q-22.05 -83.0 -21.75 -82.65 L-21.55 -82.4 Q-21.3 -82.05 -21.3 -81.7 -21.3 -81.55 -21.35 -81.45 -21.45 -81.35 -21.6 -81.35 -21.75 -81.35 -21.95 -81.45 -22.35 -81.75 -22.9 -82.5 -23.05 -82.65 -23.0 -82.8 -23.05 -83.0 -22.9 -83.05 L-22.75 -83.15 Q-22.65 -83.2 -22.5 -83.2 L-22.25 -83.1 M-18.8 -75.35 L-18.7 -75.35 Q-18.6 -75.3 -18.5 -75.25 -17.7 -74.65 -17.25 -74.05 -16.85 -73.55 -16.75 -73.35 -16.4 -72.6 -17.0 -72.1 L-17.25 -71.85 -17.3 -71.85 Q-17.55 -71.7 -17.75 -71.85 -17.95 -71.9 -18.05 -72.1 L-18.1 -72.3 -18.1 -72.65 -18.15 -72.65 Q-18.2 -73.2 -18.6 -73.7 -18.65 -73.75 -18.65 -73.8 L-19.0 -74.65 -19.05 -74.7 -19.05 -74.75 Q-19.15 -74.85 -19.2 -75.05 -19.2 -75.15 -19.1 -75.25 -19.0 -75.4 -18.8 -75.35 M-18.9 -75.5 L-18.7 -75.35 Q-19.15 -75.55 -19.0 -75.55 L-18.9 -75.5 M-18.05 -71.1 Q-17.9 -71.15 -17.8 -71.1 L-17.5 -70.9 Q-17.45 -70.8 -17.35 -70.65 L-17.2 -69.6 Q-17.2 -68.8 -17.7 -68.4 -17.05 -66.45 -17.15 -64.05 L-17.1 -63.7 Q-17.1 -63.5 -17.25 -63.4 L-17.55 -63.4 Q-17.7 -63.4 -17.85 -63.55 -18.0 -63.75 -18.0 -63.9 -18.0 -64.6 -18.1 -65.05 L-18.1 -65.1 Q-18.6 -67.6 -18.65 -68.1 -18.85 -69.9 -18.2 -70.95 -18.2 -71.05 -18.05 -71.1 M-17.6 -62.15 Q-17.45 -62.1 -17.3 -61.95 -17.2 -61.8 -17.2 -61.65 -17.25 -59.2 -17.2 -58.3 L-17.25 -58.1 -17.4 -58.0 -17.65 -58.0 -17.9 -58.1 -18.1 -58.2 Q-18.2 -58.3 -18.25 -58.4 L-18.3 -58.6 -18.05 -61.85 Q-18.05 -62.05 -17.95 -62.15 L-17.6 -62.15 M-17.0 -57.1 L-16.8 -56.9 Q-16.7 -56.8 -16.7 -56.65 -16.7 -56.55 -16.75 -56.45 -17.0 -56.05 -16.9 -55.5 L-16.9 -55.45 Q-16.9 -55.2 -16.6 -54.35 L-16.6 -54.15 Q-16.65 -54.0 -16.75 -53.95 L-16.85 -53.9 Q-16.95 -53.8 -17.05 -53.85 L-17.3 -53.9 Q-17.45 -54.0 -17.55 -54.1 -18.1 -54.9 -18.2 -55.8 -18.3 -57.0 -17.5 -57.2 L-17.35 -57.25 -17.2 -57.2 -17.0 -57.1 M-13.4 -48.0 Q-12.7 -47.1 -12.15 -45.6 -11.4 -43.45 -12.15 -42.35 -12.2 -42.25 -12.3 -42.25 -12.4 -42.2 -12.55 -42.25 L-12.75 -42.3 Q-12.9 -42.35 -13.0 -42.45 -13.15 -42.55 -13.15 -42.75 -13.25 -42.85 -13.2 -43.0 -12.5 -44.4 -13.6 -46.1 L-14.55 -47.45 Q-15.1 -48.35 -15.05 -48.9 -15.05 -49.1 -14.9 -49.15 L-14.65 -49.2 Q-14.5 -49.15 -14.35 -49.05 -14.15 -48.9 -13.4 -48.0" fill="#00ffff" fill-opacity="0.5019608" fill-rule="evenodd" stroke="none"/>
    <path d="M18.95 -127.55 L19.0 -127.4 19.05 -127.3 Q19.55 -126.05 19.9 -124.8 19.95 -124.8 19.9 -124.8 20.35 -123.45 20.7 -121.95 L20.7 -121.95 20.9 -121.0 21.0 -121.45 21.05 -121.05 Q21.2 -120.2 21.4 -119.05 L21.45 -119.0 Q21.95 -116.6 22.8 -112.85 24.3 -106.8 24.8 -103.8 25.5 -99.8 25.6 -96.55 L25.8 -95.9 Q26.7 -92.8 26.85 -91.2 27.05 -89.5 26.45 -86.6 26.0 -84.35 25.75 -82.8 L26.05 -80.55 Q21.8 -76.05 17.5 -69.25 L14.7 -64.4 14.6 -64.2 14.45 -64.05 14.45 -64.0 Q12.95 -61.3 11.35 -58.15 L11.35 -58.1 10.3 -55.95 Q7.95 -51.15 5.4 -45.35 L5.3 -45.0 5.0 -44.1 Q4.6 -42.55 4.45 -39.8 4.35 -38.5 4.2 -37.3 L4.2 -37.25 Q3.8 -35.0 3.15 -33.2 2.8 -32.2 1.05 -30.65 L1.0 -30.6 0.2 -29.85 Q-1.5 -28.4 -2.25 -26.7 L-2.6 -25.5 Q-3.6 -21.05 -3.9 -18.75 -4.2 -16.7 -4.25 -15.1 -4.25 -13.5 -4.1 -12.25 L-4.05 -12.15 Q-3.5 -9.1 -3.75 -4.25 -3.85 -2.9 -3.95 -1.95 L-3.95 -1.9 Q-4.15 0.3 -4.6 0.6 -4.55 0.7 -4.55 0.85 -4.4 2.4 -4.55 2.95 -4.8 2.95 -5.35 2.2 -5.5 1.8 -5.5 1.05 L-5.65 0.85 -5.65 0.75 -5.75 0.35 -6.1 -0.3 -5.7 -0.7 Q-5.55 -1.4 -5.35 -1.55 L-5.3 -1.35 -5.05 -1.6 -5.0 -1.6 Q-4.85 -1.95 -4.8 -2.25 -4.95 -8.35 -4.95 -12.45 L-4.9 -15.3 -4.9 -15.35 -4.65 -19.1 Q-4.2 -22.85 -3.15 -25.8 L-3.15 -25.85 -2.7 -26.95 -2.7 -27.0 Q-1.75 -29.0 -0.55 -30.55 L0.25 -31.45 Q1.9 -33.2 3.0 -37.75 L3.45 -40.15 3.7 -41.45 3.75 -41.45 Q4.1 -43.15 4.4 -44.35 L4.4 -44.4 4.75 -45.65 4.8 -45.7 Q5.65 -48.65 7.65 -52.5 L9.65 -56.4 Q10.35 -57.9 10.6 -58.55 L10.65 -58.55 Q11.8 -61.45 13.65 -64.55 L13.55 -64.6 13.55 -64.85 Q13.85 -67.6 14.95 -70.95 14.95 -71.0 14.95 -71.1 L17.2 -77.5 Q18.5 -81.45 19.9 -83.85 20.45 -84.9 21.25 -85.9 L21.2 -86.8 Q21.15 -87.45 21.35 -87.9 21.7 -88.9 23.75 -90.5 23.9 -91.25 24.0 -92.1 L23.55 -94.0 23.25 -95.35 Q22.5 -99.05 22.25 -101.4 22.15 -102.35 22.05 -103.6 L21.8 -109.15 21.8 -109.2 21.7 -111.7 21.3 -114.05 Q20.9 -117.05 20.8 -119.1 L20.8 -119.15 Q20.65 -120.1 20.4 -121.05 L20.15 -121.95 Q19.9 -123.05 19.55 -124.1 19.45 -124.95 19.05 -126.15 L18.95 -126.15 18.6 -126.8 18.8 -126.85 18.55 -127.55 18.95 -127.55 M17.15 -117.35 Q17.45 -116.0 17.25 -115.5 16.05 -114.6 16.05 -114.35 14.45 -113.2 14.25 -112.45 14.25 -112.25 14.2 -112.15 14.1 -111.9 13.8 -112.3 L13.85 -112.75 Q13.95 -113.25 14.05 -113.5 15.65 -114.7 15.65 -114.9 L16.8 -115.85 16.7 -116.35 Q17.05 -116.85 17.15 -117.35 M24.6 -115.05 Q24.85 -114.15 25.4 -111.75 L25.25 -111.65 Q24.75 -113.15 24.1 -115.55 23.55 -117.8 23.55 -118.4 24.25 -116.45 24.6 -115.05 M46.85 -82.4 Q46.25 -83.65 45.0 -86.05 44.6 -87.0 44.0 -90.2 43.55 -92.8 42.8 -93.5 L43.0 -93.6 43.5 -93.05 Q44.2 -92.15 44.5 -89.45 44.85 -86.5 45.5 -85.45 L46.3 -83.75 Q46.85 -82.6 47.25 -82.0 48.0 -80.9 48.15 -80.6 48.6 -79.55 48.2 -78.5 L47.95 -78.6 Q47.95 -80.2 46.85 -82.4 M48.0 -72.85 Q48.15 -72.25 48.1 -71.65 L48.35 -71.7 48.3 -71.55 48.0 -71.45 47.85 -71.0 Q47.35 -69.9 47.3 -69.75 L46.5 -69.35 Q47.05 -70.05 47.6 -71.5 L48.0 -72.85 M36.75 -102.8 Q36.05 -103.65 33.75 -104.65 31.25 -105.75 30.5 -105.1 L29.8 -105.4 Q29.45 -105.55 29.1 -105.95 28.85 -106.25 28.45 -107.0 28.0 -107.7 27.75 -108.1 L27.9 -108.2 Q28.2 -107.9 28.6 -107.2 29.05 -106.45 29.3 -106.15 29.6 -105.75 29.95 -105.65 30.15 -105.6 30.45 -105.55 L31.25 -105.75 Q31.55 -105.6 34.35 -104.55 36.3 -103.8 36.95 -102.95 37.8 -101.9 38.95 -99.6 L38.9 -99.55 Q39.9 -98.65 40.85 -98.1 40.3 -98.0 39.7 -98.45 39.25 -98.75 38.95 -99.15 L38.8 -99.35 38.7 -99.3 Q38.5 -99.25 38.2 -99.65 36.95 -102.55 36.75 -102.8 M25.95 -86.05 Q26.6 -89.65 26.45 -91.2 26.3 -92.25 25.6 -94.9 25.5 -93.1 25.25 -91.55 L25.4 -91.5 25.2 -91.2 Q25.0 -90.3 24.75 -89.55 L25.05 -87.4 25.6 -83.85 25.95 -86.05 M23.55 -89.5 Q22.0 -88.05 21.95 -87.8 L21.4 -86.15 22.65 -87.75 Q22.9 -88.05 23.15 -88.5 L23.55 -89.5 M12.7 -109.5 Q12.45 -109.25 11.1 -106.9 9.7 -104.4 9.1 -103.55 L8.65 -103.4 8.6 -103.95 Q9.55 -105.35 10.55 -106.95 11.8 -108.95 11.95 -109.35 12.5 -109.6 12.7 -109.5 M4.9 -101.4 Q4.65 -101.2 4.1 -100.5 3.6 -99.75 3.25 -99.6 2.7 -99.2 1.85 -98.8 0.85 -98.25 0.75 -98.3 L0.35 -98.2 -0.05 -98.2 Q0.0 -98.25 0.2 -98.35 0.5 -98.4 0.8 -98.6 1.8 -99.2 1.85 -99.5 4.0 -101.15 4.7 -101.8 5.05 -101.95 6.65 -101.75 L6.55 -101.6 5.6 -101.55 Q5.2 -101.55 4.9 -101.4 M43.85 -64.45 Q43.45 -63.95 42.65 -62.75 41.8 -61.3 41.7 -61.05 41.6 -60.5 41.95 -59.5 42.2 -58.7 41.65 -58.15 L40.55 -57.6 40.5 -57.7 Q40.5 -57.8 40.55 -57.85 L41.4 -58.6 Q41.65 -59.05 41.2 -59.9 40.8 -60.75 41.3 -61.6 41.8 -62.4 42.6 -63.5 43.4 -64.6 43.7 -64.75 L43.85 -64.45 M45.25 -68.4 Q45.7 -68.55 45.8 -68.5 45.6 -68.05 44.55 -66.65 43.7 -65.45 43.8 -64.85 L43.6 -64.95 Q43.6 -65.45 44.15 -66.7 L44.8 -68.2 45.25 -68.4 M39.35 -51.4 Q39.45 -50.95 39.2 -50.2 38.9 -49.25 38.85 -48.45 L38.65 -48.5 Q38.65 -48.95 38.95 -50.15 39.25 -51.3 39.35 -51.4 M40.05 -53.9 Q40.15 -53.55 40.05 -53.15 39.95 -52.6 39.95 -52.25 L39.55 -52.1 Q39.5 -52.45 39.6 -53.05 39.75 -53.75 40.05 -53.9 M39.15 -41.8 Q38.9 -42.85 39.15 -43.2 39.2 -42.7 39.4 -41.9 39.7 -40.9 39.85 -40.55 L39.65 -40.45 Q39.35 -40.75 39.15 -41.8 M-15.55 -94.45 L-14.75 -94.8 Q-14.15 -94.6 -13.95 -94.35 -14.0 -94.25 -14.2 -94.45 -14.4 -94.6 -14.7 -94.45 -14.85 -94.35 -16.3 -91.1 L-16.7 -90.95 Q-16.8 -91.5 -16.3 -92.65 -16.1 -93.3 -15.55 -94.45 M-13.3 -94.55 L-13.7 -94.45 Q-13.8 -95.05 -13.75 -95.1 -12.7 -95.65 -12.6 -95.55 L-12.6 -95.4 Q-13.3 -94.75 -13.3 -94.55 M-18.35 -89.85 Q-17.1 -90.5 -16.95 -90.4 -16.95 -90.35 -18.4 -88.65 -18.7 -88.15 -19.2 -87.6 -19.8 -86.9 -20.2 -86.7 -20.5 -86.5 -20.85 -86.7 -21.3 -86.85 -21.55 -86.65 -21.75 -86.6 -22.1 -85.75 -22.55 -84.9 -22.7 -84.3 L-23.15 -84.2 Q-22.35 -86.95 -22.2 -87.05 -21.9 -87.25 -21.45 -87.1 L-20.75 -87.15 Q-19.3 -88.05 -18.7 -88.9 -18.45 -89.35 -18.35 -89.85 M-4.3 -96.45 Q-4.7 -96.2 -6.55 -96.65 L-8.8 -97.15 -9.55 -96.6 Q-9.85 -96.4 -10.0 -96.55 L-9.9 -96.9 Q-9.85 -97.1 -9.9 -97.15 -8.7 -97.95 -6.55 -97.15 -4.75 -96.5 -3.95 -97.9 L-3.3 -97.75 Q-3.35 -97.5 -3.55 -97.1 -3.9 -96.7 -4.3 -96.45 M-22.6 -82.65 L-22.4 -82.75 -22.05 -82.45 -21.85 -82.2 Q-21.7 -82.0 -21.75 -81.8 -22.1 -82.05 -22.6 -82.65 M-19.0 -75.1 L-19.1 -75.1 -19.05 -75.15 -19.0 -75.1 M-18.7 -74.9 Q-18.0 -74.4 -17.55 -73.85 -17.25 -73.45 -17.15 -73.25 -17.0 -72.8 -17.4 -72.45 L-17.6 -72.2 Q-17.7 -72.15 -17.7 -72.6 -17.75 -73.3 -18.25 -73.9 L-18.65 -74.75 -18.7 -74.9 M-17.7 -65.05 Q-18.2 -67.5 -18.25 -68.05 -18.4 -69.7 -17.85 -70.65 -17.7 -70.15 -17.7 -69.75 -17.65 -68.95 -18.2 -68.65 -17.45 -66.65 -17.55 -64.2 L-17.55 -63.85 Q-17.6 -64.55 -17.7 -65.05 M-17.65 -61.75 Q-17.7 -59.35 -17.65 -58.45 L-17.9 -58.45 -17.65 -61.75 M-17.15 -56.75 Q-17.45 -56.25 -17.35 -55.5 -17.3 -55.3 -17.05 -54.35 L-17.2 -54.3 Q-17.65 -54.95 -17.75 -55.75 -17.85 -56.6 -17.3 -56.85 L-17.15 -56.75 M-13.25 -46.25 L-14.15 -47.6 Q-14.65 -48.3 -14.55 -48.75 -14.4 -48.6 -13.75 -47.8 -13.05 -46.95 -12.55 -45.55 -11.9 -43.65 -12.55 -42.65 L-12.75 -42.7 Q-12.0 -44.35 -13.25 -46.25" fill="#ffffff" fill-rule="evenodd" stroke="none"/>
  </g>
</svg>
