<?xml version="1.0" encoding="UTF-8" standalone="no"?>
<svg xmlns:ffdec="https://www.free-decompiler.com/flash" xmlns:xlink="http://www.w3.org/1999/xlink" ffdec:objectType="shape" height="12.4px" width="12.95px" xmlns="http://www.w3.org/2000/svg">
  <g transform="matrix(1.0, 0.0, 0.0, 1.0, 6.15, 6.4)">
    <path d="M2.8 -6.4 L3.1 -6.35 3.35 -6.2 Q3.65 -5.25 2.75 -5.1 2.2 -5.05 2.2 -5.7 L2.2 -6.05 Q2.25 -6.15 2.35 -6.2 L2.8 -6.4 M1.8 -3.4 Q2.0 -3.95 2.55 -4.15 3.8 -3.05 1.95 -3.05 1.65 -3.05 1.8 -3.4 M0.8 -3.05 Q0.5 -2.45 -0.05 -2.8 -0.25 -3.15 -0.1 -3.55 0.1 -4.0 0.5 -4.15 L0.65 -4.1 0.8 -4.1 Q1.1 -3.6 0.8 -3.05 M0.25 -0.05 Q-0.3 0.45 -0.5 -0.3 -0.8 -1.5 0.25 -2.1 0.85 -1.9 1.0 -1.55 L1.05 -1.7 Q1.15 -2.15 1.5 -2.25 2.0 -2.15 1.95 -1.6 1.95 -1.25 1.75 -0.95 1.35 -0.7 1.05 -1.0 L1.0 -1.05 Q0.9 -0.6 0.25 -0.05 M3.1 -0.55 L3.25 -0.5 Q3.4 -0.35 3.45 -0.1 3.55 0.3 3.35 0.65 L3.25 0.8 Q2.4 1.0 2.3 0.1 2.3 -0.45 2.8 -0.55 L3.1 -0.55 M6.4 -3.7 Q6.8 -3.65 6.8 -3.25 6.75 -2.95 6.5 -2.9 6.2 -2.85 6.1 -3.15 6.1 -3.35 6.15 -3.5 L6.3 -3.6 6.4 -3.7 M4.85 -1.15 Q4.95 -1.6 5.35 -1.75 L5.65 -1.7 5.8 -1.5 Q5.9 -1.25 5.8 -1.1 L5.55 -0.5 4.9 -0.5 Q4.75 -0.8 4.85 -1.15 M5.85 2.05 L6.05 2.15 6.25 2.3 6.3 2.4 6.3 2.55 Q6.35 2.7 6.25 2.8 L6.15 2.9 Q5.9 2.95 5.75 2.8 5.6 2.7 5.6 2.55 5.55 2.15 5.85 2.05 M0.5 3.8 Q-0.35 3.75 -0.1 2.8 0.0 2.4 0.35 2.2 1.0 2.3 0.9 3.05 0.85 3.5 0.5 3.8 M2.15 1.7 Q2.0 2.0 1.75 1.85 1.65 1.7 1.65 1.5 1.65 1.3 1.8 1.25 L1.9 1.2 Q2.3 1.3 2.15 1.7 M1.9 5.65 Q1.9 5.9 1.75 6.0 1.45 6.1 1.35 5.85 L1.25 5.75 Q1.2 5.6 1.3 5.5 1.4 5.35 1.55 5.35 1.85 5.35 1.9 5.65 M-3.2 -5.1 Q-3.45 -4.65 -3.95 -4.9 -4.05 -5.2 -4.0 -5.55 -3.9 -6.0 -3.45 -6.1 L-3.15 -6.05 Q-3.05 -6.0 -3.0 -5.9 -2.95 -5.5 -3.2 -5.1 M-1.3 -5.25 Q-0.6 -5.2 -0.8 -4.5 -0.9 -4.15 -1.15 -3.85 L-1.25 -3.8 -1.75 -3.85 Q-2.0 -4.2 -1.95 -4.6 -1.85 -5.15 -1.3 -5.25 M-3.55 -1.9 L-3.2 -1.9 -3.0 -1.8 Q-2.8 -1.65 -2.85 -1.35 -2.95 -0.95 -3.15 -0.55 L-3.25 -0.4 Q-4.0 -0.3 -4.0 -1.1 -4.05 -1.7 -3.55 -1.9 M-4.75 -1.95 Q-4.7 -1.7 -4.85 -1.55 L-5.0 -1.45 -5.35 -1.5 Q-5.45 -1.65 -5.45 -1.9 -5.45 -2.1 -5.25 -2.2 L-5.2 -2.2 Q-4.85 -2.25 -4.75 -1.95 M-2.2 -0.6 Q-1.6 -0.55 -1.7 0.1 -1.75 0.45 -1.9 0.8 L-2.55 0.75 -2.7 0.65 Q-2.9 0.35 -2.75 0.0 -2.6 -0.45 -2.2 -0.6 M-1.3 -0.75 Q-2.15 -0.95 -1.95 -1.8 -1.8 -2.3 -1.4 -2.45 -0.55 -2.35 -0.75 -1.55 -0.85 -1.0 -1.3 -0.75 M-0.4 1.6 L-0.5 1.55 Q-0.75 1.2 -0.65 0.85 -0.5 0.4 -0.1 0.35 0.4 0.55 0.3 1.1 0.2 1.45 -0.05 1.7 L-0.4 1.6 M-1.7 1.65 Q-1.4 2.1 -1.7 2.6 -2.1 3.2 -2.6 2.65 L-2.65 2.25 Q-2.6 1.7 -2.15 1.55 L-1.9 1.6 Q-1.8 1.6 -1.7 1.65 M-5.75 1.3 Q-5.15 1.35 -5.2 2.0 -5.25 2.4 -5.55 2.65 -6.15 2.7 -6.15 2.1 L-6.15 1.5 -5.75 1.3 M-4.2 4.95 Q-4.1 5.0 -4.0 5.05 L-4.0 5.1 Q-3.9 5.3 -4.05 5.4 -4.3 5.7 -4.55 5.45 L-4.6 5.3 Q-4.65 5.05 -4.45 4.95 L-4.2 4.95" fill="#ffffff" fill-rule="evenodd" stroke="none"/>
  </g>
</svg>
