<?xml version="1.0" encoding="UTF-8" standalone="no"?>
<svg xmlns:ffdec="https://www.free-decompiler.com/flash" xmlns:xlink="http://www.w3.org/1999/xlink" ffdec:objectType="shape" height="16.25px" width="4.75px" xmlns="http://www.w3.org/2000/svg">
  <g transform="matrix(1.0, 0.0, 0.0, 1.0, 2.5, 2.9)">
    <path d="M0.5 -2.6 L0.75 -2.55 Q1.05 -2.45 1.35 -2.3 2.25 -1.85 2.25 -0.75 2.25 0.0 1.25 1.55 L1.25 1.6 1.1 1.85 1.05 2.0 0.9 2.7 Q0.9 2.85 0.6 3.4 L0.4 3.95 Q0.4 4.3 0.2 4.85 0.0 5.5 -0.05 5.75 L-0.15 5.8 Q-0.4 5.4 -0.45 4.75 -0.45 4.0 -0.5 3.65 -0.55 3.4 -0.9 2.65 L-1.1 2.15 -1.15 2.1 -1.15 2.05 -2.15 1.05 Q-2.8 0.1 -2.25 -1.05 L-2.0 -1.65 Q-1.65 -2.9 -0.5 -2.9 0.05 -2.9 0.45 -2.6 L0.5 -2.6 M1.3 3.95 Q1.55 4.6 1.55 5.15 L1.5 5.5 Q1.65 5.65 1.7 6.05 1.75 6.4 1.7 6.7 L1.7 7.4 Q1.6 8.0 1.2 8.0 1.1 8.0 1.0 7.8 L0.9 7.7 Q0.7 7.3 0.4 6.4 L0.45 6.05 0.45 6.0 0.55 6.0 Q0.65 6.0 0.7 6.1 L0.75 6.25 Q1.05 6.2 1.15 5.95 L1.2 5.5 1.2 4.35 Q1.2 4.05 1.3 3.95 M0.45 11.8 Q0.25 12.2 0.25 12.45 L0.25 12.9 Q0.2 13.35 -0.1 13.35 -0.45 13.35 -0.4 13.05 L-0.4 13.0 -0.3 12.95 Q-0.25 12.95 -0.2 13.0 L-0.1 13.1 Q0.0 12.95 0.0 12.85 L0.0 12.6 Q0.0 12.15 0.0 11.95 -0.15 12.0 -0.1 12.2 -0.1 12.55 -0.15 12.6 L-0.15 12.65 -0.25 12.65 Q-0.45 12.65 -0.45 12.45 L-0.45 12.15 Q-0.45 12.05 -0.65 11.85 -0.75 11.6 -0.85 11.3 -0.4 11.3 -0.25 10.9 -0.15 10.45 -0.05 10.4 0.05 10.5 0.05 10.8 0.1 11.1 0.2 11.2 L0.35 11.1 0.55 11.25 0.6 11.45 0.45 11.8 M-1.2 5.6 L-1.15 5.6 Q-1.15 5.9 -1.15 6.35 -1.15 6.4 -1.2 6.5 -1.3 6.6 -1.3 6.65 L-1.2 7.9 Q-1.2 8.15 -1.1 8.45 L-0.9 8.35 -0.85 8.35 Q-0.8 8.35 -0.8 8.45 -0.8 8.6 -0.95 8.85 -1.15 9.15 -1.25 9.15 -1.4 9.15 -1.85 7.85 -1.85 7.7 -1.8 7.65 L-1.6 7.7 Q-1.5 7.7 -1.35 6.4 L-1.3 5.95 -1.2 5.6" fill="#ffdc45" fill-rule="evenodd" stroke="none"/>
    <path d="M0.85 0.0 L0.9 0.15 Q0.9 0.55 0.45 1.1 0.0 1.6 -0.05 2.35 -0.3 1.5 -0.5 1.2 L-0.75 0.75 Q-0.85 0.5 -0.55 0.5 -0.3 0.5 -0.05 0.9 0.0 0.75 0.35 0.3 L0.75 -0.1 Q0.8 -0.1 0.85 0.0" fill="#ffffff" fill-rule="evenodd" stroke="none"/>
    <path d="M0.85 0.0 Q0.8 -0.1 0.75 -0.1 L0.35 0.3 Q0.0 0.75 -0.05 0.9 -0.3 0.5 -0.55 0.5 -0.85 0.5 -0.75 0.75 L-0.5 1.2 Q-0.3 1.5 -0.05 2.35 0.0 1.6 0.45 1.1 0.9 0.55 0.9 0.15 L0.85 0.0 M1.75 -0.15 L1.7 0.05 Q1.6 0.45 1.25 0.95 L0.8 1.55 0.6 2.0 0.55 2.05 0.5 2.5 Q0.15 3.3 0.1 4.1 L-0.25 3.55 Q-0.35 3.3 -0.45 2.65 L-0.6 2.3 -0.65 2.15 -0.7 2.1 -0.9 1.85 -1.65 0.9 Q-1.95 0.3 -2.05 -0.65 -1.95 -1.4 -1.45 -1.9 -1.05 -2.3 -0.7 -2.3 -0.45 -2.45 -0.15 -2.45 1.8 -2.45 1.8 -0.6 L1.75 -0.15 M1.45 6.35 L1.5 6.5 1.4 7.35 1.4 7.4 1.3 7.4 Q1.2 7.4 1.0 7.1 0.85 6.85 0.85 6.75 0.85 6.65 0.95 6.6 1.05 6.55 1.15 6.65 L1.25 6.45 Q1.3 6.35 1.4 6.3 L1.45 6.35 M0.2 11.75 L0.1 11.7 0.1 11.75 0.05 11.8 Q0.0 11.65 -0.2 11.6 -0.4 11.5 -0.45 11.65 L-0.45 11.6 Q-0.45 11.3 -0.15 11.35 0.1 11.4 0.1 11.65 0.15 11.6 0.25 11.55 L0.3 11.65 Q0.25 11.7 0.2 11.75" fill="#ffff66" fill-rule="evenodd" stroke="none"/>
  </g>
</svg>
