<?xml version="1.0" encoding="UTF-8" standalone="no"?>
<svg xmlns:ffdec="https://www.free-decompiler.com/flash" xmlns:xlink="http://www.w3.org/1999/xlink" ffdec:objectType="shape" height="23.9px" width="31.9px" xmlns="http://www.w3.org/2000/svg">
  <g transform="matrix(1.0, 0.0, 0.0, 1.0, 15.5, 12.9)">
    <path d="M9.2 -11.1 L9.3 -11.0 Q9.45 -10.95 10.85 -11.0 L11.95 -10.15 Q12.45 -9.75 12.45 -8.95 L12.45 -8.55 Q12.05 -8.5 12.05 -8.1 L12.05 -8.0 Q12.05 -7.95 12.1 -7.85 12.15 -7.8 12.15 -7.7 L12.15 -7.45 12.2 -7.45 12.15 -7.3 Q12.05 -6.95 11.8 -6.8 11.7 -6.8 11.7 -6.85 11.75 -6.95 11.75 -7.0 11.6 -7.0 11.55 -7.1 11.5 -7.15 11.5 -7.2 L11.8 -7.65 Q11.95 -7.85 11.95 -8.05 11.95 -8.3 11.85 -8.6 11.75 -8.95 11.25 -9.1 L11.05 -9.05 10.8 -9.0 Q10.75 -9.1 10.55 -9.2 L10.35 -9.4 Q10.3 -9.45 10.3 -9.6 L10.35 -9.85 Q10.35 -10.1 10.1 -10.3 9.75 -10.55 8.9 -10.7 8.75 -10.6 8.6 -10.45 8.35 -10.2 8.35 -10.05 8.15 -10.2 8.05 -10.3 L8.35 -10.45 Q8.45 -10.55 8.45 -10.7 8.45 -10.75 8.4 -10.75 8.3 -10.75 8.3 -10.85 L8.3 -11.0 8.4 -11.1 9.2 -11.1 M4.0 -11.0 L4.25 -10.8 Q4.3 -10.7 4.3 -10.55 L4.2 -10.25 Q4.15 -10.0 4.15 -9.9 4.15 -9.75 4.3 -9.6 4.45 -9.5 4.45 -9.3 4.45 -9.1 4.3 -8.9 4.05 -8.55 3.5 -8.55 L3.15 -8.65 2.8 -8.7 2.75 -8.75 Q3.15 -8.8 3.15 -9.15 L3.2 -9.7 Q3.55 -9.8 3.65 -10.1 3.7 -10.3 3.7 -10.6 L3.65 -11.0 4.0 -11.0 M7.25 -9.85 L7.3 -9.8 Q7.3 -9.7 7.35 -9.65 7.4 -9.55 7.55 -9.5 L7.55 -9.15 Q7.6 -8.9 7.3 -8.7 7.1 -8.6 6.85 -8.6 L6.75 -8.6 6.75 -8.65 6.9 -8.75 6.95 -8.9 6.9 -9.05 6.75 -9.2 6.6 -9.15 6.6 -9.2 6.85 -9.6 Q7.0 -9.85 7.25 -9.85 M0.35 -12.65 L0.4 -12.7 1.1 -12.65 Q1.2 -12.55 1.8 -12.2 L2.25 -12.15 Q2.25 -12.2 2.35 -12.25 2.5 -12.25 2.8 -12.0 2.75 -11.85 2.8 -11.75 L2.9 -11.65 2.9 -11.5 2.85 -11.5 Q2.6 -11.45 2.6 -11.15 2.65 -10.8 2.35 -10.75 L2.15 -10.7 2.2 -10.75 Q2.25 -10.85 2.25 -11.0 L2.2 -11.25 Q2.2 -11.4 2.05 -11.55 L1.85 -11.75 Q1.7 -12.0 1.4 -12.25 1.0 -12.55 0.35 -12.65 M0.25 -11.1 Q0.2 -11.15 0.2 -11.3 0.55 -11.35 0.8 -11.5 L1.05 -11.35 1.45 -11.35 1.6 -11.25 1.7 -11.15 1.65 -10.8 1.4 -10.75 1.15 -10.75 Q1.05 -10.8 0.9 -10.9 L0.7 -11.05 0.25 -11.1 M0.55 -7.85 L0.55 -8.05 1.15 -8.0 Q1.35 -8.0 1.5 -8.3 1.6 -8.7 1.75 -8.75 L1.75 -8.7 Q1.75 -8.45 2.0 -8.1 2.25 -7.7 2.65 -7.7 L2.8 -7.7 2.5 -7.35 2.05 -7.35 Q1.45 -7.35 1.0 -7.5 0.65 -7.6 0.55 -7.85 M0.35 -8.35 L0.45 -7.75 Q0.45 -7.6 0.85 -7.45 1.3 -7.2 1.9 -7.2 L2.5 -7.15 Q2.65 -7.2 2.7 -7.35 L2.75 -7.5 Q3.0 -7.55 3.05 -7.65 L3.1 -7.75 3.35 -7.75 3.65 -7.6 4.05 -7.6 Q4.15 -7.65 4.25 -7.8 L4.4 -8.0 4.45 -7.85 4.55 -7.65 Q4.55 -7.6 4.35 -7.45 4.2 -7.3 4.1 -7.3 3.95 -7.3 3.65 -7.4 3.4 -7.45 3.15 -7.05 L3.0 -6.9 2.75 -6.55 Q2.45 -6.15 1.8 -6.15 1.75 -6.15 1.55 -6.3 1.35 -6.4 1.2 -6.4 L0.9 -6.35 0.85 -6.3 Q0.8 -6.25 0.8 -6.2 L0.8 -6.15 0.75 -6.15 Q0.7 -6.1 0.65 -6.0 0.65 -5.95 0.5 -5.95 -1.1 -6.1 -1.6 -6.45 -1.85 -6.65 -1.85 -7.1 L-1.75 -7.35 -1.6 -7.6 Q-1.55 -7.65 -1.5 -7.95 -1.4 -8.2 -1.1 -8.25 L-0.4 -8.25 -0.05 -8.4 0.2 -8.35 0.35 -8.35 M14.5 -5.6 Q15.05 -5.55 15.15 -5.35 L15.3 -4.3 Q15.35 -4.15 15.55 -4.0 L15.95 -3.75 16.25 -3.05 Q16.25 -2.75 16.1 -2.6 L15.65 -2.1 15.25 -1.6 15.0 -1.35 Q14.85 -1.3 14.35 -1.2 L14.15 -1.25 Q14.25 -1.8 14.65 -2.0 14.95 -2.2 14.95 -2.6 14.95 -2.8 14.4 -3.2 14.95 -3.55 14.95 -4.1 L14.9 -4.6 14.75 -5.1 14.05 -5.15 Q14.0 -5.15 13.9 -5.35 L13.75 -5.6 13.05 -5.7 Q13.15 -5.9 13.4 -5.95 L14.2 -6.0 14.5 -5.6 M-2.3 -11.35 Q-2.3 -11.45 -2.45 -11.6 -2.25 -11.75 -1.75 -11.95 -1.2 -12.2 -0.85 -12.1 L-1.0 -12.05 -1.05 -11.9 Q-1.05 -11.75 -1.05 -11.7 -1.5 -11.7 -1.8 -11.6 L-2.3 -11.35 M-7.15 -5.6 Q-7.0 -5.85 -6.35 -5.95 L-5.6 -6.0 -5.7 -5.9 -5.75 -5.75 Q-5.75 -5.65 -5.65 -5.55 L-5.55 -5.35 Q-5.55 -5.3 -5.65 -5.15 -5.8 -5.0 -5.95 -5.0 -6.55 -5.0 -6.75 -4.45 L-6.95 -4.1 Q-7.05 -3.95 -7.3 -3.95 -7.45 -3.95 -7.6 -4.2 -7.75 -4.45 -7.75 -4.55 -7.75 -4.65 -7.65 -4.8 L-7.45 -5.05 Q-7.3 -5.15 -7.25 -5.3 L-7.15 -5.6 M-4.2 -9.55 Q-3.95 -9.35 -3.75 -9.3 L-4.2 -9.25 Q-4.35 -9.25 -4.55 -9.3 L-5.05 -9.55 Q-5.0 -9.6 -4.85 -9.95 -4.75 -10.25 -4.65 -10.4 -4.05 -10.95 -3.75 -10.7 -3.8 -10.55 -3.95 -10.45 -4.0 -10.4 -4.35 -10.25 -4.45 -10.1 -4.45 -9.85 -4.45 -9.75 -4.2 -9.55 M-8.55 -4.05 L-8.4 -4.0 -8.35 -3.8 Q-8.3 -3.6 -8.1 -3.6 L-7.8 -3.45 -7.95 -3.15 -8.15 -3.1 -8.2 -3.1 -8.2 -3.05 -8.3 -2.95 -8.3 -2.85 Q-8.4 -2.85 -8.4 -2.7 L-8.4 -2.65 -8.25 -2.5 -8.5 -2.5 Q-8.6 -2.45 -8.75 -2.3 L-8.95 -2.0 -9.0 -1.95 Q-9.2 -1.8 -9.2 -1.45 L-9.05 -1.15 -9.25 -0.9 -9.5 -0.7 Q-9.8 -0.7 -10.0 -1.05 -10.2 -1.3 -10.2 -1.45 -10.2 -1.55 -10.1 -1.9 L-9.95 -2.3 Q-9.9 -2.45 -9.55 -2.8 -9.25 -3.1 -9.25 -3.25 -9.25 -3.3 -9.35 -3.4 -9.4 -3.5 -9.15 -3.7 L-8.8 -3.9 Q-8.6 -4.0 -8.55 -4.05 M-8.55 -0.55 L-8.65 -0.05 -8.75 0.55 -8.75 0.6 Q-9.05 0.35 -9.0 0.2 L-8.85 0.2 Q-8.95 0.05 -8.85 -0.15 -8.8 -0.4 -8.6 -0.55 L-8.55 -0.55 M-6.6 -3.45 L-6.35 -3.45 -6.35 -3.35 Q-6.7 -3.0 -6.85 -2.5 L-7.0 -1.7 -7.05 -1.7 -7.15 -2.55 -7.3 -2.55 Q-7.3 -2.8 -7.15 -3.05 -7.0 -3.35 -6.8 -3.35 -6.7 -3.35 -6.6 -3.45 M-1.15 -5.55 L-1.15 -5.5 Q-1.15 -5.4 -1.2 -5.4 L-1.3 -5.35 Q-1.85 -5.45 -2.2 -5.35 L-2.65 -5.3 -2.7 -5.4 Q-2.35 -5.8 -2.05 -5.6 -1.75 -5.45 -1.4 -5.6 -1.3 -5.55 -1.2 -5.55 L-1.15 -5.55 M-6.9 7.65 Q-7.05 7.85 -7.1 8.0 -7.25 8.3 -7.35 8.35 -7.6 8.35 -7.8 8.35 L-8.1 8.3 Q-8.25 8.35 -8.7 8.7 -9.1 8.95 -9.4 8.95 -9.95 8.95 -10.3 8.85 -10.75 8.7 -10.75 8.5 -10.75 8.4 -10.7 8.35 -10.6 8.3 -10.6 8.25 -10.6 8.15 -10.85 8.0 L-11.2 8.0 -11.5 8.05 -11.7 7.8 -11.75 7.65 Q-11.75 7.35 -11.45 7.2 -11.15 7.05 -10.4 7.05 -10.4 7.25 -10.3 7.3 -9.9 7.25 -9.6 7.4 -9.25 7.6 -9.15 7.6 -9.0 7.6 -8.8 7.5 -8.6 7.35 -8.5 7.35 L-8.0 7.4 -7.7 7.45 -7.25 7.5 -7.05 7.4 -6.8 7.3 Q-6.75 7.2 -6.75 7.35 -6.75 7.45 -6.9 7.65 M-11.35 5.65 L-11.35 5.7 Q-11.35 5.95 -11.45 6.1 -11.7 6.35 -12.5 6.35 -12.95 6.35 -13.3 6.2 L-13.85 5.9 -14.2 5.7 Q-14.35 5.55 -14.35 5.4 L-14.25 5.2 -14.2 5.05 -14.25 4.85 -14.4 4.6 -15.0 4.6 Q-15.1 4.55 -15.1 4.35 L-15.2 4.1 -15.25 3.85 -15.2 3.55 -15.2 3.3 Q-15.2 3.1 -15.25 3.0 -15.3 2.85 -15.4 2.85 -15.4 2.75 -15.3 2.6 L-15.1 2.3 Q-15.05 2.2 -14.8 2.1 L-14.4 1.9 -13.7 1.45 Q-13.35 1.2 -12.9 1.15 L-12.65 1.4 -12.45 1.4 -12.1 1.05 Q-12.0 0.9 -11.8 0.85 L-11.7 0.8 -11.6 0.85 Q-11.55 0.9 -11.55 1.0 -11.55 1.2 -11.7 1.2 -11.9 1.25 -12.1 1.45 L-12.15 1.55 -12.25 1.7 -12.4 2.0 -12.55 2.05 -12.55 2.1 -12.7 2.1 -12.95 2.05 -13.25 2.05 Q-13.4 2.15 -13.45 2.25 L-13.45 2.45 -13.35 2.65 -13.25 2.8 Q-13.25 2.9 -13.3 3.0 -13.35 3.1 -13.4 3.2 L-13.35 3.3 Q-13.5 3.4 -13.65 3.4 -13.95 3.45 -13.95 3.8 -13.95 4.15 -13.75 4.3 L-13.05 4.75 -12.75 4.8 -12.45 4.7 Q-12.25 4.75 -12.1 4.9 L-11.95 5.25 -12.0 5.45 Q-12.0 5.6 -11.95 5.65 L-11.8 5.7 -11.6 5.65 -11.55 5.75 -11.4 5.75 -11.35 5.7 -11.35 5.65" fill="#5b3f3c" fill-rule="evenodd" stroke="none"/>
    <path d="M9.2 -11.1 L8.4 -11.1 8.3 -11.0 8.3 -10.85 Q8.3 -10.75 8.4 -10.75 8.45 -10.75 8.45 -10.7 8.45 -10.55 8.35 -10.45 L8.05 -10.3 Q8.15 -10.2 8.35 -10.05 8.35 -10.2 8.6 -10.45 8.75 -10.6 8.9 -10.7 9.75 -10.55 10.1 -10.3 10.35 -10.1 10.35 -9.85 L10.3 -9.6 Q10.3 -9.45 10.35 -9.4 L10.55 -9.2 Q10.75 -9.1 10.8 -9.0 L11.05 -9.05 11.25 -9.1 Q11.75 -8.95 11.85 -8.6 11.95 -8.3 11.95 -8.05 11.95 -7.85 11.8 -7.65 L11.5 -7.2 Q11.5 -7.15 11.55 -7.1 11.6 -7.0 11.75 -7.0 11.75 -6.95 11.7 -6.85 11.7 -6.8 11.8 -6.8 12.05 -6.95 12.15 -7.3 L12.2 -7.45 12.15 -7.45 12.15 -7.7 Q12.15 -7.8 12.1 -7.85 12.05 -7.95 12.05 -8.0 L12.05 -8.1 Q12.05 -8.5 12.45 -8.55 L12.45 -8.95 Q12.45 -9.75 11.95 -10.15 L10.85 -11.0 Q9.45 -10.95 9.3 -11.0 L9.2 -11.1 M9.4 -11.1 L10.0 -11.15 10.95 -11.15 Q11.2 -10.9 11.7 -10.65 12.15 -10.4 12.25 -10.3 L12.45 -9.9 Q12.6 -9.65 12.6 -9.45 L12.6 -8.3 12.3 -8.35 12.2 -8.25 12.15 -8.25 12.25 -8.3 Q12.4 -7.85 12.4 -7.7 L12.35 -7.45 Q12.35 -7.35 12.2 -7.05 12.0 -6.7 11.85 -6.7 11.4 -6.7 11.7 -6.95 L11.5 -7.0 11.45 -7.0 Q11.45 -7.05 11.45 -7.15 L11.65 -7.5 Q11.85 -7.9 11.85 -8.05 L11.8 -8.4 Q11.7 -8.6 11.6 -8.75 11.35 -8.75 11.25 -8.85 L10.8 -8.8 Q10.15 -9.2 10.1 -9.35 10.1 -9.5 10.2 -9.8 10.2 -9.9 9.75 -10.2 9.25 -10.5 9.05 -10.5 8.7 -10.5 8.6 -10.15 8.5 -9.8 8.35 -9.8 8.1 -9.8 7.75 -10.3 7.75 -10.45 7.95 -10.5 8.15 -10.5 8.15 -10.8 8.2 -10.9 8.25 -11.05 L8.35 -11.2 9.2 -11.2 9.35 -11.15 9.4 -11.1 M7.55 -9.85 L7.8 -9.55 7.8 -9.5 7.75 -9.5 7.7 -9.35 7.6 -9.25 7.6 -9.2 7.65 -9.05 Q7.65 -8.95 7.45 -8.75 7.25 -8.55 7.05 -8.45 L6.9 -8.45 6.75 -8.5 6.65 -8.55 6.65 -8.65 6.75 -8.85 6.85 -9.0 6.75 -9.05 6.45 -9.05 6.45 -9.15 Q6.45 -9.45 6.85 -9.8 7.15 -10.05 7.35 -9.95 7.4 -10.0 7.55 -9.85 M7.25 -9.85 Q7.0 -9.85 6.85 -9.6 L6.6 -9.2 6.6 -9.15 6.75 -9.2 6.9 -9.05 6.95 -8.9 6.9 -8.75 6.75 -8.65 6.75 -8.6 6.85 -8.6 Q7.1 -8.6 7.3 -8.7 7.6 -8.9 7.55 -9.15 L7.55 -9.5 Q7.4 -9.55 7.35 -9.65 7.3 -9.7 7.3 -9.8 L7.25 -9.85 M4.0 -11.0 L3.65 -11.0 3.7 -10.6 Q3.7 -10.3 3.65 -10.1 3.55 -9.8 3.2 -9.7 L3.15 -9.15 Q3.15 -8.8 2.75 -8.75 L2.8 -8.7 3.15 -8.65 3.5 -8.55 Q4.05 -8.55 4.3 -8.9 4.45 -9.1 4.45 -9.3 4.45 -9.5 4.3 -9.6 4.15 -9.75 4.15 -9.9 4.15 -10.0 4.2 -10.25 L4.3 -10.55 Q4.3 -10.7 4.25 -10.8 L4.0 -11.0 M3.6 -11.2 L4.05 -11.15 Q4.35 -11.0 4.45 -10.85 4.45 -10.8 4.45 -10.55 L4.35 -10.2 4.25 -9.9 4.55 -9.6 Q4.55 -9.55 4.55 -9.4 4.55 -9.0 4.4 -8.75 4.2 -8.35 3.65 -8.35 3.5 -8.35 3.3 -8.45 L3.1 -8.5 2.95 -8.4 Q2.8 -8.3 2.6 -8.3 L2.55 -8.4 Q2.5 -8.5 2.5 -8.6 2.5 -9.0 3.0 -9.2 L2.9 -9.3 Q2.85 -9.35 2.85 -9.45 2.85 -9.7 3.2 -9.9 3.55 -10.1 3.55 -10.55 L3.45 -10.7 Q3.35 -10.85 3.35 -10.9 3.35 -11.0 3.6 -11.2 M3.15 -11.65 L3.1 -11.45 Q3.0 -11.3 2.8 -11.2 L2.85 -11.1 2.9 -10.95 Q2.9 -10.9 2.7 -10.7 2.55 -10.5 2.4 -10.5 L2.05 -10.55 2.0 -10.6 Q1.95 -10.65 1.95 -10.75 1.95 -10.8 2.0 -10.9 2.1 -11.0 2.1 -11.05 2.1 -11.15 1.95 -11.3 L1.7 -11.5 1.65 -11.65 1.55 -11.85 1.1 -12.25 0.9 -12.4 0.0 -12.5 -0.05 -12.5 -0.05 -12.55 0.1 -12.75 0.35 -12.9 Q1.15 -12.9 1.5 -12.65 1.75 -12.4 1.9 -12.35 L2.2 -12.4 2.35 -12.45 2.55 -12.45 Q2.75 -12.35 2.95 -12.05 3.15 -11.8 3.15 -11.65 M0.35 -12.65 Q1.0 -12.55 1.4 -12.25 1.7 -12.0 1.85 -11.75 L2.05 -11.55 Q2.2 -11.4 2.2 -11.25 L2.25 -11.0 Q2.25 -10.85 2.2 -10.75 L2.15 -10.7 2.35 -10.75 Q2.65 -10.8 2.6 -11.15 2.6 -11.45 2.85 -11.5 L2.9 -11.5 2.9 -11.65 2.8 -11.75 Q2.75 -11.85 2.8 -12.0 2.5 -12.25 2.35 -12.25 2.25 -12.2 2.25 -12.15 L1.8 -12.2 Q1.2 -12.55 1.1 -12.65 L0.4 -12.7 0.35 -12.65 M0.8 -11.65 Q0.85 -11.55 1.05 -11.45 L1.65 -11.45 1.75 -11.1 1.85 -10.65 1.7 -10.5 1.05 -10.5 0.55 -10.8 Q0.2 -10.7 0.0 -10.9 -0.1 -11.05 -0.1 -11.25 -0.1 -11.4 0.0 -11.5 0.15 -11.6 0.6 -11.65 L0.65 -11.75 0.65 -11.9 0.75 -11.95 0.8 -11.65 M0.25 -11.1 L0.7 -11.05 0.9 -10.9 Q1.05 -10.8 1.15 -10.75 L1.4 -10.75 1.65 -10.8 1.7 -11.15 1.6 -11.25 1.45 -11.35 1.05 -11.35 0.8 -11.5 Q0.55 -11.35 0.2 -11.3 0.2 -11.15 0.25 -11.1 M1.9 -9.0 Q1.95 -8.9 2.0 -8.65 2.0 -8.45 2.1 -8.3 2.25 -8.1 2.45 -8.0 2.7 -7.85 2.95 -8.0 L3.15 -7.95 3.55 -7.95 3.8 -7.75 Q4.05 -7.8 4.2 -7.95 4.35 -8.15 4.45 -8.2 4.7 -7.95 4.7 -7.65 4.7 -7.5 4.55 -7.25 4.35 -7.0 4.25 -7.0 4.1 -7.0 4.0 -7.05 L3.7 -7.2 3.4 -7.0 Q3.2 -6.9 3.05 -6.85 L3.0 -6.8 Q2.85 -6.5 2.6 -6.25 2.25 -6.15 2.15 -6.05 2.05 -6.0 1.8 -6.0 L1.55 -6.05 1.5 -6.0 Q1.35 -6.0 1.25 -6.1 L1.15 -6.15 1.0 -6.1 0.85 -6.0 0.8 -6.05 0.75 -5.9 Q0.7 -5.85 0.55 -5.75 L-0.05 -5.85 -0.6 -6.0 Q-1.5 -6.05 -1.8 -6.4 -2.0 -6.6 -2.0 -6.9 L-1.95 -7.3 Q-1.9 -7.45 -1.65 -7.6 L-1.65 -7.65 -1.7 -7.8 Q-1.7 -7.95 -1.55 -8.15 -1.35 -8.45 -1.15 -8.45 -1.05 -8.45 -1.0 -8.4 -0.9 -8.3 -0.85 -8.3 L-0.55 -8.35 -0.4 -8.35 -0.3 -8.5 -0.1 -8.55 0.35 -8.5 Q0.45 -8.45 0.5 -8.3 0.6 -8.2 0.65 -8.2 L1.15 -8.2 Q1.25 -8.35 1.35 -8.7 1.45 -8.95 1.75 -9.0 L1.9 -9.0 M0.35 -8.35 L0.2 -8.35 -0.05 -8.4 -0.4 -8.25 -1.1 -8.25 Q-1.4 -8.2 -1.5 -7.95 -1.55 -7.65 -1.6 -7.6 L-1.75 -7.35 -1.85 -7.1 Q-1.85 -6.65 -1.6 -6.45 -1.1 -6.1 0.5 -5.95 0.65 -5.95 0.65 -6.0 0.7 -6.1 0.75 -6.15 L0.8 -6.15 0.8 -6.2 Q0.8 -6.25 0.85 -6.3 L0.9 -6.35 1.2 -6.4 Q1.35 -6.4 1.55 -6.3 1.75 -6.15 1.8 -6.15 2.45 -6.15 2.75 -6.55 L3.0 -6.9 3.15 -7.05 Q3.4 -7.45 3.65 -7.4 3.95 -7.3 4.1 -7.3 4.2 -7.3 4.35 -7.45 4.55 -7.6 4.55 -7.65 L4.45 -7.85 4.4 -8.0 4.25 -7.8 Q4.15 -7.65 4.05 -7.6 L3.65 -7.6 3.35 -7.75 3.1 -7.75 3.05 -7.65 Q3.0 -7.55 2.75 -7.5 L2.7 -7.35 Q2.65 -7.2 2.5 -7.15 L1.9 -7.2 Q1.3 -7.2 0.85 -7.45 0.45 -7.6 0.45 -7.75 L0.35 -8.35 M0.55 -7.85 Q0.65 -7.6 1.0 -7.5 1.45 -7.35 2.05 -7.35 L2.5 -7.35 2.8 -7.7 2.65 -7.7 Q2.25 -7.7 2.0 -8.1 1.75 -8.45 1.75 -8.7 L1.75 -8.75 Q1.6 -8.7 1.5 -8.3 1.35 -8.0 1.15 -8.0 L0.55 -8.05 0.55 -7.85 M5.7 -0.15 L6.25 -0.45 Q6.5 -0.6 6.65 -0.6 L6.65 -0.55 6.25 -0.35 Q5.95 -0.1 5.75 -0.1 L5.7 -0.15 M7.15 -0.75 Q7.15 -0.8 7.65 -1.05 8.15 -1.25 8.4 -1.35 L8.6 -1.35 Q8.5 -1.15 8.1 -1.0 L7.2 -0.65 7.15 -0.65 7.15 -0.75 M11.2 -2.55 L11.15 -2.55 11.35 -2.6 11.25 -2.6 11.2 -2.55 M11.4 -2.8 Q12.3 -3.25 12.4 -3.0 L13.15 -3.1 Q13.25 -3.05 13.3 -2.9 L13.35 -2.7 Q13.35 -2.55 13.15 -2.3 L12.8 -1.95 12.75 -1.95 Q12.7 -1.95 12.65 -1.95 L12.8 -2.1 Q12.9 -2.2 12.9 -2.25 L12.85 -2.4 12.8 -2.5 12.65 -2.55 12.0 -2.6 Q11.5 -2.6 10.75 -2.35 L9.75 -1.9 9.55 -1.9 11.05 -2.65 11.3 -2.8 11.4 -2.8 M11.3 -0.4 Q11.55 -0.65 11.6 -0.75 11.65 -0.9 11.8 -0.95 L12.2 -1.2 Q11.85 -0.7 11.2 -0.15 L11.1 -0.05 11.0 -0.1 11.3 -0.4 M15.4 -5.4 Q15.35 -5.2 15.35 -5.05 15.35 -5.0 15.45 -4.9 L15.55 -4.75 15.5 -4.6 15.5 -4.4 Q15.5 -4.25 15.8 -4.1 L16.2 -3.8 Q16.4 -3.3 16.4 -3.2 L16.35 -2.9 Q16.3 -2.7 16.3 -2.6 16.3 -2.55 16.15 -2.4 15.95 -2.25 15.85 -2.05 15.7 -1.85 15.35 -1.6 L14.8 -1.15 14.45 -1.1 14.4 -1.1 14.05 -1.15 Q14.05 -1.7 14.45 -2.0 14.9 -2.3 14.9 -2.6 L14.6 -2.8 Q14.3 -3.0 14.3 -3.2 14.3 -3.25 14.6 -3.6 14.85 -3.9 14.85 -4.15 L14.8 -4.4 14.8 -4.65 14.75 -4.8 14.65 -4.95 14.0 -5.0 Q13.8 -5.05 13.75 -5.2 L13.65 -5.45 13.5 -5.5 13.2 -5.45 13.0 -5.45 12.9 -5.6 Q12.85 -5.65 12.85 -5.75 12.85 -5.85 12.9 -5.9 L13.0 -6.0 Q13.45 -6.15 13.6 -6.15 L14.25 -6.15 Q14.3 -6.15 14.45 -5.95 L14.5 -5.95 14.5 -5.9 14.45 -5.9 14.6 -5.75 Q15.4 -5.6 15.4 -5.4 M14.5 -5.6 L14.2 -6.0 13.4 -5.95 Q13.15 -5.9 13.05 -5.7 L13.75 -5.6 13.9 -5.35 Q14.0 -5.15 14.05 -5.15 L14.75 -5.1 14.9 -4.6 14.95 -4.1 Q14.95 -3.55 14.4 -3.2 14.95 -2.8 14.95 -2.6 14.95 -2.2 14.65 -2.0 14.25 -1.8 14.15 -1.25 L14.35 -1.2 Q14.85 -1.3 15.0 -1.35 L15.25 -1.6 15.65 -2.1 16.1 -2.6 Q16.25 -2.75 16.25 -3.05 L15.95 -3.75 15.55 -4.0 Q15.35 -4.15 15.3 -4.3 L15.15 -5.35 Q15.05 -5.55 14.5 -5.6 M9.9 1.0 L8.6 1.9 Q7.65 2.5 7.15 2.75 L7.15 2.7 7.05 2.7 7.9 2.05 Q8.5 1.65 9.0 1.5 L8.9 1.6 Q9.1 1.5 9.45 1.3 9.7 1.05 9.9 1.0 M3.95 1.2 Q3.95 1.45 3.25 1.7 2.35 2.1 2.3 2.15 L2.3 2.1 Q2.8 1.75 3.05 1.55 3.5 1.25 3.95 1.2 M1.1 2.8 Q1.55 2.5 1.65 2.45 L1.8 2.5 Q1.6 2.6 1.1 2.9 0.65 3.2 0.35 3.35 L1.1 2.8 M1.8 5.8 Q2.1 5.5 2.3 5.55 L1.85 5.9 1.3 6.25 Q1.25 6.3 1.25 6.2 L1.8 5.8 M-2.65 -11.45 L-2.65 -11.55 Q-2.65 -11.75 -1.9 -12.05 -1.1 -12.45 -0.5 -12.2 L-0.65 -12.05 Q-0.8 -12.0 -0.95 -11.95 -0.85 -11.9 -0.8 -11.85 L-0.9 -11.65 -0.9 -11.55 -1.15 -11.55 Q-1.5 -11.55 -2.15 -11.25 L-2.8 -10.85 -2.85 -10.85 -2.85 -10.95 Q-2.85 -11.05 -2.7 -11.2 L-2.5 -11.35 Q-2.5 -11.4 -2.65 -11.4 L-2.65 -11.45 M-2.3 -11.35 L-1.8 -11.6 Q-1.5 -11.7 -1.05 -11.7 -1.05 -11.75 -1.05 -11.9 L-1.0 -12.05 -0.85 -12.1 Q-1.2 -12.2 -1.75 -11.95 -2.25 -11.75 -2.45 -11.6 -2.3 -11.45 -2.3 -11.35 M-3.6 -10.75 Q-3.6 -10.45 -3.95 -10.3 -4.35 -10.15 -4.35 -10.05 -4.35 -9.85 -4.3 -9.8 -4.2 -9.7 -3.85 -9.45 L-3.45 -9.5 -3.4 -9.5 -3.4 -9.4 -3.55 -9.25 -3.8 -9.05 -4.1 -9.05 Q-4.5 -9.05 -4.7 -9.2 -4.9 -9.35 -5.15 -9.4 L-5.2 -9.35 -5.2 -9.5 -5.1 -9.85 Q-4.95 -10.25 -4.85 -10.35 -4.75 -10.55 -3.9 -11.0 L-3.7 -11.0 -3.6 -10.9 -3.6 -10.75 M-4.2 -9.55 Q-4.45 -9.75 -4.45 -9.85 -4.45 -10.1 -4.35 -10.25 -4.0 -10.4 -3.95 -10.45 -3.8 -10.55 -3.75 -10.7 -4.05 -10.95 -4.65 -10.4 -4.75 -10.25 -4.85 -9.95 -5.0 -9.6 -5.05 -9.55 L-4.55 -9.3 Q-4.35 -9.25 -4.2 -9.25 L-3.75 -9.3 Q-3.95 -9.35 -4.2 -9.55 M-7.15 -5.6 L-7.25 -5.3 Q-7.3 -5.15 -7.45 -5.05 L-7.65 -4.8 Q-7.75 -4.65 -7.75 -4.55 -7.75 -4.45 -7.6 -4.2 -7.45 -3.95 -7.3 -3.95 -7.05 -3.95 -6.95 -4.1 L-6.75 -4.45 Q-6.55 -5.0 -5.95 -5.0 -5.8 -5.0 -5.65 -5.15 -5.55 -5.3 -5.55 -5.35 L-5.65 -5.55 Q-5.75 -5.65 -5.75 -5.75 L-5.7 -5.9 -5.6 -6.0 -6.35 -5.95 Q-7.0 -5.85 -7.15 -5.6 M-5.8 -6.25 L-5.65 -6.25 Q-5.45 -6.2 -5.4 -6.1 L-5.4 -6.0 Q-5.4 -5.95 -5.5 -5.85 -5.55 -5.8 -5.55 -5.75 -5.55 -5.65 -5.5 -5.5 -5.4 -5.35 -5.4 -5.3 -5.4 -5.05 -5.9 -4.9 L-6.55 -4.7 Q-6.7 -4.55 -6.7 -4.25 -6.7 -4.0 -6.85 -3.85 L-7.05 -3.85 -7.25 -3.8 -7.45 -3.85 -7.6 -3.9 Q-7.7 -4.0 -7.8 -4.2 -7.85 -4.4 -7.85 -4.55 -7.85 -4.65 -7.75 -4.9 L-7.65 -5.15 -7.45 -5.25 Q-7.3 -5.3 -7.3 -5.35 -7.35 -5.5 -7.25 -5.65 -7.1 -5.95 -6.8 -6.05 L-5.8 -6.25 M-8.1 -4.05 L-8.2 -3.9 -7.95 -3.7 -7.8 -3.6 -7.7 -3.5 -7.7 -3.3 Q-7.8 -3.1 -7.85 -3.0 L-8.1 -3.0 -8.2 -2.8 -8.15 -2.7 Q-8.2 -2.65 -8.25 -2.6 L-8.2 -2.6 -8.2 -2.45 -8.25 -2.45 -8.55 -2.2 -8.85 -2.0 Q-9.1 -1.7 -9.1 -1.6 -9.1 -1.5 -8.95 -1.35 -8.8 -1.2 -8.8 -1.1 -8.8 -0.95 -9.05 -0.75 -9.3 -0.55 -9.4 -0.55 -10.0 -0.75 -10.2 -0.95 -10.3 -1.1 -10.3 -1.45 -10.3 -1.6 -10.1 -2.2 -9.85 -2.8 -9.75 -2.9 -9.55 -3.1 -9.5 -3.3 L-9.4 -3.65 Q-9.3 -3.75 -8.95 -4.0 -8.6 -4.2 -8.5 -4.2 L-8.25 -4.2 Q-8.1 -4.1 -8.1 -4.05 M-8.55 -4.05 Q-8.6 -4.0 -8.8 -3.9 L-9.15 -3.7 Q-9.4 -3.5 -9.35 -3.4 -9.25 -3.3 -9.25 -3.25 -9.25 -3.1 -9.55 -2.8 -9.9 -2.45 -9.95 -2.3 L-10.1 -1.9 Q-10.2 -1.55 -10.2 -1.45 -10.2 -1.3 -10.0 -1.05 -9.8 -0.7 -9.5 -0.7 L-9.25 -0.9 -9.05 -1.15 -9.2 -1.45 Q-9.2 -1.8 -9.0 -1.95 L-8.95 -2.0 -8.75 -2.3 Q-8.6 -2.45 -8.5 -2.5 L-8.25 -2.5 -8.4 -2.65 -8.4 -2.7 Q-8.4 -2.85 -8.3 -2.85 L-8.3 -2.95 -8.2 -3.05 -8.2 -3.1 -8.15 -3.1 -7.95 -3.15 -7.8 -3.45 -8.1 -3.6 Q-8.3 -3.6 -8.35 -3.8 L-8.4 -4.0 -8.55 -4.05 M-6.05 -3.8 L-6.05 -3.5 -6.35 -3.1 Q-6.6 -2.75 -6.65 -2.55 -6.8 -2.15 -6.8 -1.5 L-6.85 -1.5 -6.9 -1.45 -7.1 -1.45 Q-7.25 -1.6 -7.25 -1.95 -7.25 -2.25 -7.4 -2.25 -7.55 -2.25 -7.45 -2.3 -7.5 -2.7 -7.3 -3.0 -7.0 -3.5 -6.35 -3.6 L-6.25 -3.7 Q-6.2 -3.75 -6.05 -3.8 M-6.6 -3.45 Q-6.7 -3.35 -6.8 -3.35 -7.0 -3.35 -7.15 -3.05 -7.3 -2.8 -7.3 -2.55 L-7.15 -2.55 -7.05 -1.7 -7.0 -1.7 -6.85 -2.5 Q-6.7 -3.0 -6.35 -3.35 L-6.35 -3.45 -6.6 -3.45 M-8.55 -0.55 L-8.6 -0.55 Q-8.8 -0.4 -8.85 -0.15 -8.95 0.05 -8.85 0.2 L-9.0 0.2 Q-9.05 0.35 -8.75 0.6 L-8.75 0.55 -8.65 -0.05 -8.55 -0.55 M-8.35 -0.55 Q-8.35 -0.4 -8.5 -0.25 -8.6 -0.1 -8.6 0.1 L-8.55 0.4 Q-8.45 0.65 -8.45 0.7 L-8.45 0.8 -8.5 0.8 -8.5 0.85 -8.65 0.9 Q-8.95 0.9 -9.1 0.45 -9.1 -0.6 -8.45 -0.75 L-8.4 -0.7 Q-8.35 -0.65 -8.35 -0.55 M-1.05 -5.75 L-1.05 -5.65 -0.55 -5.65 -0.35 -5.45 -0.45 -5.4 -0.6 -5.3 -0.95 -5.3 -1.2 -5.2 -1.3 -5.2 -1.45 -5.25 Q-2.5 -5.15 -2.95 -4.95 L-3.6 -4.7 -3.65 -4.65 -3.65 -4.8 -3.25 -5.05 Q-2.85 -5.25 -2.7 -5.7 L-2.35 -5.8 -1.3 -5.85 -1.25 -5.8 -1.05 -5.8 -1.05 -5.75 M-1.15 -5.55 L-1.2 -5.55 Q-1.3 -5.55 -1.4 -5.6 -1.75 -5.45 -2.05 -5.6 -2.35 -5.8 -2.7 -5.4 L-2.65 -5.3 -2.2 -5.35 Q-1.85 -5.45 -1.3 -5.35 L-1.2 -5.4 Q-1.15 -5.4 -1.15 -5.5 L-1.15 -5.55 M-5.0 -4.5 L-5.05 -4.5 -5.05 -4.6 Q-5.05 -4.75 -4.8 -4.9 -4.55 -5.05 -4.35 -5.05 L-4.35 -5.0 -4.3 -4.9 Q-4.3 -4.7 -4.7 -4.5 L-5.0 -4.5 M-4.65 6.8 Q-4.8 6.95 -5.0 7.05 L-5.4 7.3 -5.45 7.35 Q-5.5 7.35 -5.5 7.25 -5.5 7.15 -4.9 6.75 L-4.85 6.65 -4.5 6.45 -4.0 6.15 -3.9 6.15 Q-4.25 6.5 -4.6 6.75 L-4.65 6.8 M-1.7 4.8 L-1.85 4.85 -1.85 4.8 -1.75 4.7 Q-1.65 4.6 -1.55 4.6 -1.55 4.55 -1.55 4.65 -1.55 4.75 -1.7 4.8 M-11.3 0.95 L-11.4 1.35 -11.75 1.45 Q-11.95 1.45 -12.05 1.55 L-12.15 1.9 Q-12.25 2.1 -12.5 2.25 L-12.85 2.2 -13.05 2.2 Q-13.1 2.2 -13.2 2.25 -13.3 2.35 -13.35 2.4 L-13.35 2.5 -13.15 2.55 -13.05 2.65 Q-13.05 2.7 -13.05 2.8 L-13.05 3.0 Q-13.1 3.05 -13.2 3.1 L-13.2 3.25 Q-13.25 3.25 -13.3 3.3 L-13.35 3.3 -13.5 3.5 -13.7 3.45 -13.8 3.6 Q-13.9 3.75 -13.9 3.85 -13.9 4.1 -13.65 4.25 -13.15 4.55 -13.05 4.7 L-12.8 4.7 -12.85 4.6 Q-12.7 4.55 -12.4 4.55 -12.05 4.6 -11.9 4.75 L-11.8 5.0 -11.8 5.3 -11.85 5.35 -11.9 5.5 -11.6 5.5 -11.6 5.4 Q-11.45 5.4 -11.35 5.4 L-11.3 5.55 -11.2 5.7 Q-11.2 5.9 -11.4 6.15 -11.65 6.55 -12.1 6.55 L-13.05 6.5 -13.15 6.4 Q-13.6 6.35 -13.75 6.25 L-13.9 6.1 -14.3 5.9 -14.45 5.7 Q-14.5 5.55 -14.5 5.4 -14.5 5.3 -14.4 5.25 -14.35 5.15 -14.35 5.05 L-14.35 4.8 -14.5 4.7 Q-14.6 4.7 -14.65 4.8 L-14.8 4.8 Q-15.2 4.8 -15.25 4.1 L-15.3 3.5 Q-15.4 3.5 -15.4 3.4 L-15.35 3.2 -15.45 3.05 -15.5 3.0 -15.5 2.85 Q-15.5 2.8 -15.3 2.4 L-15.0 2.0 Q-14.45 1.8 -13.9 1.5 L-13.1 1.05 -12.9 1.05 Q-12.85 1.1 -12.7 1.2 L-12.5 1.25 Q-12.4 1.25 -12.25 1.0 -12.1 0.7 -11.6 0.7 L-11.6 0.75 -11.45 0.75 Q-11.3 0.85 -11.3 0.95 M-11.35 5.65 L-11.35 5.7 -11.4 5.75 -11.55 5.75 -11.6 5.65 -11.8 5.7 -11.95 5.65 Q-12.0 5.6 -12.0 5.45 L-11.95 5.25 -12.1 4.9 Q-12.25 4.75 -12.45 4.7 L-12.75 4.8 -13.05 4.75 -13.75 4.3 Q-13.95 4.15 -13.95 3.8 -13.95 3.45 -13.65 3.4 -13.5 3.4 -13.35 3.3 L-13.4 3.2 Q-13.35 3.1 -13.3 3.0 -13.25 2.9 -13.25 2.8 L-13.35 2.65 -13.45 2.45 -13.45 2.25 Q-13.4 2.15 -13.25 2.05 L-12.95 2.05 -12.7 2.1 -12.55 2.1 -12.55 2.05 -12.4 2.0 -12.25 1.7 -12.15 1.55 -12.1 1.45 Q-11.9 1.25 -11.7 1.2 -11.55 1.2 -11.55 1.0 -11.55 0.9 -11.6 0.85 L-11.7 0.8 -11.8 0.85 Q-12.0 0.9 -12.1 1.05 L-12.45 1.4 -12.65 1.4 -12.9 1.15 Q-13.35 1.2 -13.7 1.45 L-14.4 1.9 -14.8 2.1 Q-15.05 2.2 -15.1 2.3 L-15.3 2.6 Q-15.4 2.75 -15.4 2.85 -15.3 2.85 -15.25 3.0 -15.2 3.1 -15.2 3.3 L-15.2 3.55 -15.25 3.85 -15.2 4.1 -15.1 4.35 Q-15.1 4.55 -15.0 4.6 L-14.4 4.6 -14.25 4.85 -14.2 5.05 -14.25 5.2 -14.35 5.4 Q-14.35 5.55 -14.2 5.7 L-13.85 5.9 -13.3 6.2 Q-12.95 6.35 -12.5 6.35 -11.7 6.35 -11.45 6.1 -11.35 5.95 -11.35 5.7 L-11.35 5.65 M-6.9 7.65 Q-6.75 7.45 -6.75 7.35 -6.75 7.2 -6.8 7.3 L-7.05 7.4 -7.25 7.5 -7.7 7.45 -8.0 7.4 -8.5 7.35 Q-8.6 7.35 -8.8 7.5 -9.0 7.6 -9.15 7.6 -9.25 7.6 -9.6 7.4 -9.9 7.25 -10.3 7.3 -10.4 7.25 -10.4 7.05 -11.15 7.05 -11.45 7.2 -11.75 7.35 -11.75 7.65 L-11.7 7.8 -11.5 8.05 -11.2 8.0 -10.85 8.0 Q-10.6 8.15 -10.6 8.25 -10.6 8.3 -10.7 8.35 -10.75 8.4 -10.75 8.5 -10.75 8.7 -10.3 8.85 -9.95 8.95 -9.4 8.95 -9.1 8.95 -8.7 8.7 -8.25 8.35 -8.1 8.3 L-7.8 8.35 Q-7.6 8.35 -7.35 8.35 -7.25 8.3 -7.1 8.0 -7.05 7.85 -6.9 7.65 M-6.8 8.05 Q-7.15 8.5 -7.4 8.6 L-7.75 8.55 -8.05 8.55 Q-8.15 8.55 -8.3 8.7 L-8.55 8.9 -8.75 8.95 -9.05 9.0 -9.15 9.1 Q-9.3 9.2 -9.4 9.2 -10.4 9.2 -10.75 8.85 -11.0 8.55 -10.9 8.25 L-10.95 8.15 -11.15 8.2 -11.5 8.2 -11.85 7.9 -11.85 7.65 Q-11.85 7.3 -11.65 7.1 -11.35 6.8 -10.45 6.95 -10.3 7.2 -10.15 7.2 -9.95 7.1 -9.85 7.1 -9.65 7.1 -9.15 7.35 -8.95 7.4 -8.8 7.25 -8.6 7.1 -8.55 7.1 L-7.95 7.2 -7.3 7.25 Q-7.15 7.25 -7.0 7.15 -6.8 7.05 -6.75 7.05 -6.65 7.05 -6.55 7.15 -6.5 7.25 -6.5 7.35 -6.5 7.55 -6.8 8.05 M-7.3 10.35 Q-7.1 10.5 -6.9 10.5 L-6.5 10.4 -6.5 10.55 -6.6 10.65 -7.25 10.8 Q-7.45 10.85 -7.5 10.95 L-7.65 11.0 -7.75 10.95 -7.8 10.85 -7.55 10.6 -7.6 10.55 -7.75 10.55 Q-7.85 10.4 -7.85 10.3 L-7.85 10.1 Q-7.85 9.7 -7.05 8.9 -6.25 8.05 -6.3 8.35 -6.55 8.65 -7.05 9.2 -7.45 9.65 -7.45 10.05 -7.5 10.2 -7.3 10.35 M-3.7 9.1 L-3.75 9.1 -3.8 9.05 Q-3.35 8.75 -2.55 8.35 -1.6 7.9 -1.2 7.65 -1.5 8.0 -2.4 8.45 L-3.7 9.1" fill="#752f22" fill-rule="evenodd" stroke="none"/>
  </g>
</svg>
