<?xml version="1.0" encoding="UTF-8" standalone="no"?>
<svg xmlns:ffdec="https://www.free-decompiler.com/flash" xmlns:xlink="http://www.w3.org/1999/xlink" ffdec:objectType="shape" height="5.15px" width="4.8px" xmlns="http://www.w3.org/2000/svg">
  <g transform="matrix(1.0, 0.0, 0.0, 1.0, 30.85, 44.25)">
    <path d="M-26.6 -43.2 Q-26.35 -42.75 -26.25 -42.6 -26.05 -42.15 -26.05 -41.7 L-26.05 -41.6 -26.1 -41.3 -26.2 -40.9 Q-26.2 -41.65 -26.4 -42.1 -26.8 -42.95 -27.8 -43.4 L-27.9 -43.35 Q-27.55 -43.0 -27.55 -42.75 -27.55 -42.35 -27.95 -42.05 L-28.35 -41.75 Q-28.25 -40.8 -28.25 -40.7 -28.25 -40.4 -28.65 -40.1 -29.15 -39.8 -29.9 -39.85 -29.9 -39.4 -28.95 -39.2 L-28.65 -39.1 Q-29.85 -39.2 -30.4 -39.55 L-30.5 -39.6 -30.55 -40.0 -30.55 -40.1 -30.1 -40.15 -30.05 -40.15 Q-29.45 -40.15 -29.15 -40.35 -28.7 -40.5 -28.7 -40.85 -28.7 -41.0 -28.75 -41.25 -28.85 -41.5 -28.85 -41.65 -28.85 -41.75 -28.6 -42.2 -28.3 -42.65 -28.3 -43.15 -28.3 -43.3 -28.6 -43.55 -28.95 -43.8 -28.95 -43.95 L-28.8 -44.0 -28.25 -44.0 Q-27.25 -43.7 -26.6 -43.2" fill="#ffff66" fill-rule="evenodd" stroke="none"/>
    <path d="M-26.2 -40.9 Q-26.25 -40.6 -26.35 -40.35 -26.9 -39.1 -28.15 -39.1 L-28.65 -39.1 -28.95 -39.2 Q-29.9 -39.4 -29.9 -39.85 -29.15 -39.8 -28.65 -40.1 -28.25 -40.4 -28.25 -40.7 -28.25 -40.8 -28.35 -41.75 L-27.95 -42.05 Q-27.55 -42.35 -27.55 -42.75 -27.55 -43.0 -27.9 -43.35 L-27.8 -43.4 Q-26.8 -42.95 -26.4 -42.1 -26.2 -41.65 -26.2 -40.9" fill="#ffffff" fill-rule="evenodd" stroke="none"/>
    <path d="M-29.15 -40.35 L-29.0 -40.45 -28.95 -40.55 -28.9 -40.55 -28.8 -40.8 -28.8 -41.05 -28.95 -41.3 Q-29.1 -41.5 -29.1 -41.6 -29.1 -41.75 -28.95 -42.15 -28.8 -42.65 -28.55 -42.75 -28.7 -43.05 -29.1 -43.35 -29.4 -43.6 -29.4 -43.8 -29.4 -44.4 -28.35 -44.25 -27.6 -44.1 -27.1 -43.75 L-26.8 -43.45 -26.6 -43.2 Q-27.25 -43.7 -28.25 -44.0 L-28.8 -44.0 -28.95 -43.95 Q-28.95 -43.8 -28.6 -43.55 -28.3 -43.3 -28.3 -43.15 -28.3 -42.65 -28.6 -42.2 -28.85 -41.75 -28.85 -41.65 -28.85 -41.5 -28.75 -41.25 -28.7 -41.0 -28.7 -40.85 -28.7 -40.5 -29.15 -40.35 M-30.5 -39.6 Q-30.85 -39.9 -30.85 -40.3 -30.85 -40.5 -30.7 -40.5 L-30.45 -40.35 -30.35 -40.25 -30.15 -40.15 -30.1 -40.15 -30.55 -40.1 -30.55 -40.0 -30.5 -39.6" fill="#ffdc45" fill-rule="evenodd" stroke="none"/>
  </g>
</svg>
