<?xml version="1.0" encoding="UTF-8" standalone="no"?>
<svg xmlns:ffdec="https://www.free-decompiler.com/flash" xmlns:xlink="http://www.w3.org/1999/xlink" ffdec:objectType="shape" height="9.7px" width="8.05px" xmlns="http://www.w3.org/2000/svg">
  <g transform="matrix(1.0, 0.0, 0.0, 1.0, 31.15, 51.8)">
    <path d="M-31.15 -51.8 Q-30.8 -51.7 -30.6 -51.2 L-30.7 -51.2 Q-30.85 -51.2 -31.15 -51.7 L-31.15 -51.8" fill="#5b3f3c" fill-rule="evenodd" stroke="none"/>
    <path d="M-28.75 -49.1 Q-28.6 -49.1 -28.05 -48.6 -27.5 -48.1 -27.5 -47.9 L-27.5 -47.8 -27.6 -47.85 Q-27.85 -47.95 -28.2 -48.4 -28.6 -48.8 -28.75 -49.1 M-26.15 -47.05 L-26.15 -46.8 -26.25 -46.8 -26.5 -46.85 -26.55 -46.95 Q-26.5 -47.05 -26.15 -47.05 M-26.6 -46.9 L-26.7 -46.85 -26.8 -46.85 -26.8 -46.9 -26.85 -47.05 Q-26.8 -47.1 -26.55 -46.95 L-26.6 -46.9 M-27.45 -47.6 Q-27.45 -47.8 -27.3 -47.75 -27.15 -47.7 -27.05 -47.4 L-27.05 -47.35 Q-27.05 -47.3 -27.15 -47.3 -27.3 -47.3 -27.4 -47.4 -27.45 -47.5 -27.45 -47.6 M-27.15 -46.5 L-27.15 -46.45 -27.25 -46.45 -27.3 -46.5 -27.35 -46.65 Q-27.35 -46.75 -27.3 -46.7 L-27.25 -46.7 Q-27.2 -46.65 -27.15 -46.5 M-27.3 -46.1 L-27.3 -46.15 Q-27.25 -46.15 -27.2 -46.1 L-27.25 -46.0 -27.3 -46.1 M-24.3 -45.65 Q-24.25 -45.65 -24.25 -45.5 L-24.25 -45.4 -24.3 -45.4 -24.4 -45.35 Q-24.55 -45.35 -24.5 -45.4 L-24.55 -45.4 -24.55 -45.5 Q-24.55 -45.65 -24.3 -45.65 M-25.1 -45.25 Q-25.25 -45.25 -25.2 -45.3 L-25.25 -45.3 -25.25 -45.4 -25.2 -45.5 Q-25.1 -45.6 -24.95 -45.55 -24.9 -45.55 -24.9 -45.45 -24.9 -45.35 -25.0 -45.3 -25.05 -45.25 -25.1 -45.25 M-25.4 -45.3 L-25.4 -45.2 Q-25.4 -45.1 -25.4 -45.0 L-25.65 -44.75 Q-25.8 -44.85 -25.8 -45.0 -25.8 -45.15 -25.7 -45.25 -25.6 -45.35 -25.4 -45.3" fill="#752f22" fill-rule="evenodd" stroke="none"/>
    <path d="M-23.85 -44.65 Q-23.85 -44.6 -23.85 -44.5 -23.85 -44.35 -24.0 -44.35 -24.1 -44.35 -24.15 -44.4 L-24.25 -44.5 Q-24.1 -44.75 -23.85 -44.65 M-24.55 -44.35 L-24.55 -44.15 -24.7 -44.1 Q-24.8 -44.2 -24.8 -44.35 -24.8 -44.5 -24.7 -44.55 L-24.55 -44.45 -24.55 -44.35 M-23.65 -44.75 L-23.7 -44.85 Q-23.7 -45.0 -23.5 -45.0 -23.35 -45.0 -23.1 -44.8 L-23.15 -44.65 Q-23.2 -44.6 -23.35 -44.6 -23.55 -44.6 -23.65 -44.75 M-24.95 -43.9 L-25.05 -43.7 -25.0 -43.65 Q-24.9 -43.6 -24.9 -43.55 L-25.2 -42.9 -25.1 -42.55 Q-25.05 -42.35 -25.05 -42.2 L-25.05 -42.15 -25.1 -42.1 Q-25.15 -42.15 -25.35 -42.6 L-25.45 -42.85 -25.45 -42.75 -25.5 -42.75 -25.7 -43.05 Q-25.85 -43.3 -25.85 -43.45 -25.85 -43.75 -25.65 -43.55 L-25.5 -43.3 -25.5 -43.35 Q-25.45 -43.45 -25.25 -43.5 -25.35 -43.8 -25.35 -43.9 -25.35 -44.15 -25.1 -44.2 -24.9 -44.25 -24.9 -44.05 L-24.95 -43.9" fill="#c03e12" fill-rule="evenodd" stroke="none"/>
  </g>
</svg>
