<?xml version="1.0" encoding="UTF-8" standalone="no"?>
<svg xmlns:ffdec="https://www.free-decompiler.com/flash" xmlns:xlink="http://www.w3.org/1999/xlink" ffdec:objectType="shape" height="12.05px" width="11.1px" xmlns="http://www.w3.org/2000/svg">
  <g transform="matrix(1.0, 0.0, 0.0, 1.0, 36.95, 51.6)">
    <path d="M-31.3 -40.05 L-31.35 -40.15 Q-31.5 -40.5 -31.6 -40.9 -31.6 -41.15 -31.45 -41.45 -31.3 -41.9 -30.85 -42.05 L-30.8 -42.1 -31.0 -42.6 Q-31.0 -42.9 -30.85 -43.25 -30.65 -43.75 -30.35 -43.75 L-29.9 -43.65 -29.4 -43.5 -29.45 -43.6 -29.7 -44.25 Q-29.1 -44.05 -28.8 -43.85 L-28.8 -43.95 Q-28.6 -44.3 -28.6 -44.4 -28.6 -44.8 -29.55 -45.75 L-28.45 -45.25 Q-27.35 -44.3 -27.35 -44.05 L-27.4 -43.85 Q-27.45 -43.7 -27.6 -43.7 -28.1 -43.7 -28.15 -43.15 -28.2 -42.85 -28.25 -42.75 -28.35 -42.6 -28.55 -42.6 -28.75 -42.6 -29.15 -42.8 -29.55 -42.95 -29.65 -42.95 -29.9 -42.95 -30.0 -42.8 -30.1 -42.65 -30.1 -42.5 -30.1 -42.2 -30.0 -41.95 L-29.65 -41.3 Q-30.0 -41.35 -30.45 -41.05 -30.9 -40.75 -30.9 -40.5 -30.9 -40.3 -30.6 -39.8 L-30.5 -39.6 -30.7 -39.65 Q-31.05 -39.75 -31.3 -40.05 M-31.25 -42.45 Q-31.55 -42.45 -31.7 -42.7 -31.75 -42.85 -31.75 -43.0 -31.75 -43.45 -31.45 -43.15 -31.1 -42.9 -31.05 -42.6 L-31.05 -42.5 -31.15 -42.45 -31.25 -42.45" fill="#ffb74c" fill-rule="evenodd" stroke="none"/>
    <path d="M-28.45 -45.25 L-28.45 -45.2 -28.4 -45.2 -28.15 -45.1 -28.05 -45.05 -27.55 -44.75 Q-27.1 -44.45 -26.75 -44.1 L-26.5 -43.8 -26.45 -43.55 Q-26.45 -43.4 -26.5 -43.25 -26.65 -42.95 -26.85 -42.95 L-27.1 -43.0 -27.3 -43.05 Q-27.6 -43.05 -27.8 -42.6 -28.0 -42.15 -28.05 -42.15 -28.45 -42.15 -28.85 -42.3 L-29.25 -42.45 Q-29.3 -42.45 -29.4 -42.4 L-29.45 -42.25 Q-29.45 -42.15 -29.25 -41.7 L-29.0 -41.1 Q-29.75 -40.95 -30.0 -40.55 -30.15 -40.3 -30.15 -39.85 -30.2 -39.7 -30.15 -39.6 L-30.25 -39.55 -30.4 -39.6 -30.5 -39.6 -30.6 -39.8 Q-30.9 -40.3 -30.9 -40.5 -30.9 -40.75 -30.45 -41.05 -30.0 -41.35 -29.65 -41.3 L-30.0 -41.95 Q-30.1 -42.2 -30.1 -42.5 -30.1 -42.65 -30.0 -42.8 -29.9 -42.95 -29.65 -42.95 -29.55 -42.95 -29.15 -42.8 -28.75 -42.6 -28.55 -42.6 -28.35 -42.6 -28.25 -42.75 -28.2 -42.85 -28.15 -43.15 -28.1 -43.7 -27.6 -43.7 -27.45 -43.7 -27.4 -43.85 L-27.35 -44.05 Q-27.35 -44.3 -28.45 -45.25 M-28.3 -40.65 L-28.3 -40.6 Q-28.3 -40.5 -28.35 -40.5 L-28.45 -40.5 Q-28.35 -40.55 -28.3 -40.65" fill="#ffdc45" fill-rule="evenodd" stroke="none"/>
    <path d="M-26.5 -43.8 L-26.4 -43.65 Q-26.15 -43.35 -26.05 -43.1 -26.0 -42.8 -26.0 -42.6 -26.0 -42.5 -26.05 -42.3 -26.1 -41.95 -26.2 -41.9 -26.3 -42.15 -26.7 -42.55 -27.05 -42.9 -27.2 -42.9 -27.55 -42.9 -27.65 -42.55 L-27.7 -42.15 Q-27.8 -42.05 -28.15 -42.0 -28.55 -41.9 -28.65 -41.85 -28.75 -41.7 -28.75 -41.35 -28.75 -41.25 -28.7 -41.15 L-28.55 -40.8 Q-29.45 -40.65 -29.75 -40.3 -29.95 -40.15 -30.0 -39.85 L-30.0 -39.75 -30.15 -39.6 Q-30.2 -39.7 -30.15 -39.85 -30.15 -40.3 -30.0 -40.55 -29.75 -40.95 -29.0 -41.1 L-29.25 -41.7 Q-29.45 -42.15 -29.45 -42.25 L-29.4 -42.4 Q-29.3 -42.45 -29.25 -42.45 L-28.85 -42.3 Q-28.45 -42.15 -28.05 -42.15 -28.0 -42.15 -27.8 -42.6 -27.6 -43.05 -27.3 -43.05 L-27.1 -43.0 -26.85 -42.95 Q-26.65 -42.95 -26.5 -43.25 -26.45 -43.4 -26.45 -43.55 L-26.5 -43.8" fill="#ffff66" fill-rule="evenodd" stroke="none"/>
    <path d="M-26.05 -43.1 Q-25.85 -42.65 -25.85 -42.2 -25.85 -42.15 -25.85 -42.05 L-25.85 -42.0 -25.9 -41.9 Q-25.9 -41.75 -25.95 -41.5 -26.05 -41.15 -26.2 -41.15 L-26.25 -41.15 Q-26.35 -41.25 -26.55 -41.75 L-26.55 -41.85 -26.6 -41.9 Q-26.9 -42.65 -27.3 -42.65 L-27.35 -42.65 -27.4 -42.6 Q-27.45 -42.45 -27.45 -42.1 -27.45 -41.9 -27.7 -41.85 -28.05 -41.75 -28.25 -41.4 -28.3 -41.3 -28.3 -41.0 L-28.3 -40.65 Q-28.35 -40.55 -28.45 -40.5 L-28.55 -40.5 -28.6 -40.55 Q-29.55 -40.55 -29.85 -40.1 L-29.9 -40.05 -29.95 -39.9 -30.0 -39.85 -30.0 -39.75 -30.0 -39.85 Q-29.95 -40.15 -29.75 -40.3 -29.45 -40.65 -28.55 -40.8 L-28.7 -41.15 Q-28.75 -41.25 -28.75 -41.35 -28.75 -41.7 -28.65 -41.85 -28.55 -41.9 -28.15 -42.0 -27.8 -42.05 -27.7 -42.15 L-27.65 -42.55 Q-27.55 -42.9 -27.2 -42.9 -27.05 -42.9 -26.7 -42.55 -26.3 -42.15 -26.2 -41.9 -26.1 -41.95 -26.05 -42.3 -26.0 -42.5 -26.0 -42.6 -26.0 -42.8 -26.05 -43.1" fill="#ffffff" fill-rule="evenodd" stroke="none"/>
    <path d="M-31.3 -46.65 Q-31.35 -46.6 -31.45 -46.6 L-32.4 -46.85 -32.55 -46.8 -32.65 -46.7 Q-32.65 -46.55 -32.3 -45.95 -31.95 -45.35 -31.95 -45.1 L-31.95 -45.0 Q-32.0 -44.9 -32.1 -44.9 L-32.9 -45.1 Q-32.8 -44.85 -32.65 -44.3 L-32.75 -44.4 -32.85 -44.55 -33.35 -45.15 Q-33.55 -45.45 -33.55 -45.55 -33.55 -45.65 -33.4 -45.7 -33.25 -45.75 -33.25 -45.8 L-33.6 -46.35 -33.7 -46.55 -33.7 -46.65 Q-33.7 -47.1 -33.95 -47.7 -34.2 -48.35 -34.2 -48.5 L-34.15 -48.6 -33.4 -48.0 -32.8 -47.65 -32.6 -47.5 -32.2 -47.1 -32.15 -47.1 -32.05 -47.25 -31.85 -47.25 -31.8 -47.2 -31.75 -47.1 -31.6 -46.9 Q-31.5 -46.8 -31.3 -46.65 M-33.35 -47.9 Q-33.8 -48.3 -33.8 -47.95 L-33.65 -47.6 Q-33.4 -47.2 -33.1 -47.2 -32.95 -47.2 -32.95 -47.35 -32.95 -47.55 -33.35 -47.9" fill="#c03e12" fill-rule="evenodd" stroke="none"/>
    <path d="M-30.8 -46.4 L-30.6 -46.1 Q-30.45 -45.85 -30.45 -45.65 -30.45 -45.6 -30.5 -45.5 -30.6 -45.45 -30.65 -45.45 L-31.05 -45.6 Q-31.45 -45.8 -31.55 -45.8 L-31.65 -45.8 -31.65 -45.75 -31.4 -45.2 Q-31.25 -44.9 -31.25 -44.8 -31.25 -44.6 -31.3 -44.55 L-31.3 -44.5 -31.35 -44.4 Q-31.2 -44.2 -31.2 -43.95 -31.2 -43.9 -31.25 -43.85 -31.3 -43.8 -31.35 -43.8 -31.65 -43.8 -31.8 -44.1 L-31.8 -44.15 -32.25 -44.25 -31.95 -43.05 Q-31.95 -42.9 -31.95 -42.15 -31.9 -41.7 -31.95 -41.35 L-31.95 -41.2 -32.0 -41.45 Q-32.1 -42.15 -32.15 -42.7 L-32.25 -43.25 -32.25 -43.45 Q-32.35 -43.85 -32.65 -44.3 -32.8 -44.85 -32.9 -45.1 L-32.1 -44.9 Q-32.0 -44.9 -31.95 -45.0 L-31.95 -45.1 Q-31.95 -45.35 -32.3 -45.95 -32.65 -46.55 -32.65 -46.7 L-32.55 -46.8 -32.4 -46.85 -31.45 -46.6 Q-31.35 -46.6 -31.3 -46.65 L-31.25 -46.6 -30.8 -46.4 M-30.25 -45.25 Q-30.25 -45.45 -29.9 -45.3 -29.5 -45.15 -29.5 -44.9 -29.5 -44.7 -29.75 -44.7 -29.95 -44.7 -30.15 -45.0 L-30.25 -45.25" fill="#df5c31" fill-rule="evenodd" stroke="none"/>
    <path d="M-32.8 -47.65 L-33.4 -48.0 -34.15 -48.6 -34.2 -48.5 Q-34.2 -48.35 -33.95 -47.7 -33.7 -47.1 -33.7 -46.65 L-33.7 -46.55 Q-33.95 -46.95 -34.05 -47.2 -34.35 -48.05 -34.75 -48.6 L-34.75 -48.65 -36.05 -50.3 -36.1 -50.4 -36.85 -51.4 -36.85 -51.45 -36.95 -51.6 -36.85 -51.5 -36.8 -51.55 -36.65 -51.35 -35.95 -50.6 -35.7 -50.35 -35.0 -49.55 Q-34.55 -49.15 -34.2 -48.95 L-33.5 -48.25 -32.8 -47.65 M-33.35 -47.9 Q-32.95 -47.55 -32.95 -47.35 -32.95 -47.2 -33.1 -47.2 -33.4 -47.2 -33.65 -47.6 L-33.8 -47.95 Q-33.8 -48.3 -33.35 -47.9" fill="#752f22" fill-rule="evenodd" stroke="none"/>
    <path d="M-31.95 -41.2 L-31.95 -41.35 Q-31.9 -41.7 -31.95 -42.15 -31.95 -42.9 -31.95 -43.05 L-32.25 -44.25 -31.8 -44.15 -31.8 -44.1 Q-31.65 -43.8 -31.35 -43.8 -31.3 -43.8 -31.25 -43.85 -31.2 -43.9 -31.2 -43.95 -31.2 -44.2 -31.35 -44.4 L-31.3 -44.5 -31.3 -44.55 Q-31.25 -44.6 -31.25 -44.8 -31.25 -44.9 -31.4 -45.2 L-31.65 -45.75 -31.65 -45.8 -31.55 -45.8 Q-31.45 -45.8 -31.05 -45.6 L-30.65 -45.45 Q-30.6 -45.45 -30.5 -45.5 -30.45 -45.6 -30.45 -45.65 -30.45 -45.85 -30.6 -46.1 L-30.8 -46.4 -30.7 -46.35 Q-30.25 -46.05 -29.55 -45.75 -28.6 -44.8 -28.6 -44.4 -28.6 -44.3 -28.8 -43.95 L-28.8 -43.85 Q-29.1 -44.05 -29.7 -44.25 L-29.45 -43.6 -29.4 -43.5 -29.9 -43.65 -30.35 -43.75 Q-30.65 -43.75 -30.85 -43.25 -31.0 -42.9 -31.0 -42.6 L-30.8 -42.1 -30.85 -42.05 Q-31.3 -41.9 -31.45 -41.45 -31.6 -41.15 -31.6 -40.9 -31.5 -40.5 -31.35 -40.15 L-31.3 -40.05 -31.55 -40.35 Q-31.85 -40.75 -31.95 -41.2 M-30.25 -45.25 L-30.15 -45.0 Q-29.95 -44.7 -29.75 -44.7 -29.5 -44.7 -29.5 -44.9 -29.5 -45.15 -29.9 -45.3 -30.25 -45.45 -30.25 -45.25 M-31.25 -42.45 L-31.15 -42.45 -31.05 -42.5 -31.05 -42.6 Q-31.1 -42.9 -31.45 -43.15 -31.75 -43.45 -31.75 -43.0 -31.75 -42.85 -31.7 -42.7 -31.55 -42.45 -31.25 -42.45" fill="#ff8e28" fill-rule="evenodd" stroke="none"/>
  </g>
</svg>
