<?xml version="1.0" encoding="UTF-8" standalone="no"?>
<svg xmlns:ffdec="https://www.free-decompiler.com/flash" xmlns:xlink="http://www.w3.org/1999/xlink" ffdec:objectType="shape" height="20.0px" width="23.55px" xmlns="http://www.w3.org/2000/svg">
  <g transform="matrix(1.0, 0.0, 0.0, 1.0, 39.85, 54.85)">
    <path d="M-36.0 -48.3 Q-36.35 -48.6 -36.35 -48.8 -36.35 -48.9 -36.2 -49.0 -36.05 -49.1 -36.05 -49.25 -36.05 -49.75 -36.55 -50.3 L-37.05 -50.85 Q-37.05 -50.95 -36.95 -51.0 -36.9 -51.05 -36.85 -51.25 L-36.8 -51.25 -36.95 -51.45 -37.25 -51.75 -37.3 -51.75 Q-37.5 -51.75 -37.6 -51.95 L-37.65 -52.1 -37.65 -52.15 Q-37.5 -52.2 -37.35 -52.05 L-37.25 -51.9 -37.25 -51.95 Q-37.1 -51.95 -36.85 -51.8 L-36.8 -51.9 Q-36.75 -52.0 -36.55 -51.9 L-36.35 -51.75 Q-36.25 -51.7 -36.2 -51.55 -36.15 -51.5 -35.85 -51.25 -35.55 -51.05 -35.45 -50.9 L-34.55 -50.0 Q-34.85 -50.1 -35.0 -50.2 -35.05 -50.15 -35.05 -50.1 L-35.05 -49.9 Q-35.05 -49.85 -35.15 -49.85 -35.2 -49.85 -35.45 -50.15 -35.75 -50.45 -35.9 -50.55 L-35.95 -50.55 -36.0 -50.45 Q-36.0 -50.35 -35.5 -49.6 L-35.0 -48.8 -35.0 -48.75 -35.05 -48.75 -35.05 -48.7 -35.2 -48.7 Q-35.25 -48.7 -35.4 -48.85 -35.5 -49.0 -35.65 -49.0 -35.85 -49.0 -36.0 -48.9 L-36.15 -48.7 Q-36.15 -48.65 -36.05 -48.35 L-36.0 -48.3 M-39.35 -54.2 L-39.5 -54.3 -39.55 -54.4 -39.55 -54.45 -39.35 -54.25 -39.35 -54.2 M-39.55 -54.5 L-39.7 -54.6 Q-39.85 -54.7 -39.85 -54.8 L-39.8 -54.85 Q-39.7 -54.8 -39.65 -54.7 L-39.55 -54.5 M-39.1 -53.8 Q-38.6 -53.75 -38.05 -53.05 L-37.6 -52.35 Q-37.6 -52.2 -37.85 -52.2 -38.2 -52.2 -38.2 -52.5 -38.25 -52.9 -38.3 -53.0 L-38.75 -53.4 -39.1 -53.8" fill="#5b3f3c" fill-rule="evenodd" stroke="none"/>
    <path d="M-32.8 -48.1 Q-32.95 -48.1 -33.1 -48.2 L-33.25 -48.35 Q-33.3 -48.35 -33.35 -48.3 -33.45 -48.25 -33.5 -48.25 -33.9 -48.25 -34.4 -48.8 L-34.45 -48.8 -33.85 -47.85 Q-33.6 -47.55 -33.5 -47.35 L-33.5 -47.25 -33.95 -47.6 Q-34.3 -47.9 -34.4 -47.9 -34.6 -47.9 -34.65 -47.7 L-34.4 -47.05 -34.25 -46.9 -33.65 -46.25 Q-33.45 -46.0 -33.4 -45.7 L-33.8 -46.05 -34.2 -46.45 -34.4 -46.6 -34.65 -46.9 Q-34.75 -46.95 -34.75 -47.0 L-34.75 -47.05 -35.0 -47.4 Q-34.85 -47.35 -34.65 -47.2 -34.65 -47.25 -34.65 -47.3 -34.65 -47.35 -34.7 -47.5 -34.8 -47.65 -34.95 -47.65 -35.0 -47.65 -35.05 -47.6 -35.05 -47.55 -35.1 -47.55 -35.25 -47.55 -35.3 -47.7 L-35.75 -48.05 -36.0 -48.3 -36.05 -48.35 Q-36.15 -48.65 -36.15 -48.7 L-36.0 -48.9 Q-35.85 -49.0 -35.65 -49.0 -35.5 -49.0 -35.4 -48.85 -35.25 -48.7 -35.2 -48.7 L-35.05 -48.7 -35.05 -48.75 -35.0 -48.75 -35.0 -48.8 -35.5 -49.6 Q-36.0 -50.35 -36.0 -50.45 L-35.95 -50.55 -35.9 -50.55 Q-35.75 -50.45 -35.45 -50.15 -35.2 -49.85 -35.15 -49.85 -35.05 -49.85 -35.05 -49.9 L-35.05 -50.1 Q-35.05 -50.15 -35.0 -50.2 -34.85 -50.1 -34.55 -50.0 L-33.95 -49.45 -33.95 -49.35 -34.15 -49.3 -34.3 -49.3 -34.0 -48.85 -33.85 -48.55 Q-33.75 -48.5 -33.65 -48.5 -33.55 -48.5 -33.5 -48.6 -33.45 -48.7 -33.4 -48.7 -33.3 -48.7 -33.05 -48.4 L-32.8 -48.1 M-35.1 -47.95 L-35.15 -47.9 Q-35.1 -47.8 -35.1 -47.95" fill="#752f22" fill-rule="evenodd" stroke="none"/>
    <path d="M-30.15 -46.85 Q-31.3 -47.3 -31.5 -47.3 -31.6 -47.3 -31.85 -47.0 L-32.1 -46.75 -32.65 -47.05 Q-32.7 -47.15 -32.9 -47.15 -33.1 -47.15 -33.2 -47.25 -33.1 -47.1 -33.1 -46.95 -32.9 -46.85 -32.9 -46.65 L-32.9 -46.5 -33.0 -46.5 Q-33.15 -46.5 -33.25 -46.65 L-33.35 -46.65 -33.65 -46.75 Q-33.55 -46.55 -33.2 -45.85 -33.0 -45.3 -32.95 -45.1 L-32.95 -45.15 -33.0 -45.15 -33.25 -45.55 -33.4 -45.7 Q-33.45 -46.0 -33.65 -46.25 L-34.25 -46.9 -34.4 -47.05 -34.65 -47.7 Q-34.6 -47.9 -34.4 -47.9 -34.3 -47.9 -33.95 -47.6 L-33.5 -47.25 -33.5 -47.35 Q-33.6 -47.55 -33.85 -47.85 L-34.45 -48.8 -34.4 -48.8 Q-33.9 -48.25 -33.5 -48.25 -33.45 -48.25 -33.35 -48.3 -33.3 -48.35 -33.25 -48.35 L-33.1 -48.2 Q-32.95 -48.1 -32.8 -48.1 L-32.75 -48.05 -32.85 -47.95 Q-32.9 -47.95 -33.05 -48.0 L-33.1 -47.95 -32.95 -47.85 Q-32.5 -47.5 -32.3 -47.35 L-32.25 -47.35 -32.1 -47.3 Q-31.75 -47.3 -31.6 -47.45 -31.5 -47.55 -31.35 -47.55 -31.2 -47.55 -30.25 -46.95 L-30.25 -46.9 -30.15 -46.85 M-33.25 -47.3 L-33.25 -47.3" fill="#c03e12" fill-rule="evenodd" stroke="none"/>
    <path d="M-29.4 -46.0 L-29.45 -46.0 -29.6 -46.15 Q-29.95 -46.55 -30.35 -46.55 -30.45 -46.55 -30.5 -46.5 -30.6 -46.4 -30.65 -46.4 -30.85 -46.4 -30.9 -46.5 L-30.9 -46.65 -31.3 -46.65 -31.5 -46.3 -31.5 -45.95 -31.55 -45.9 -31.7 -45.9 -32.0 -46.05 Q-32.2 -46.25 -32.35 -46.25 L-32.55 -46.25 -32.75 -46.2 Q-32.6 -45.85 -32.6 -45.8 L-32.7 -45.55 Q-32.5 -44.9 -32.5 -44.8 -32.5 -44.75 -32.6 -44.65 L-32.7 -44.5 Q-32.7 -44.25 -32.55 -43.1 L-32.4 -42.15 -32.5 -42.15 -32.7 -43.1 Q-32.85 -44.2 -33.25 -44.55 -33.2 -44.6 -33.05 -44.65 L-32.8 -44.75 -32.75 -44.75 Q-32.75 -44.8 -32.75 -44.85 L-32.8 -44.95 -32.95 -45.1 Q-33.0 -45.3 -33.2 -45.85 -33.55 -46.55 -33.65 -46.75 L-33.35 -46.65 -33.25 -46.65 Q-33.15 -46.5 -33.0 -46.5 L-32.9 -46.5 -32.9 -46.65 Q-32.9 -46.85 -33.1 -46.95 -33.1 -47.1 -33.2 -47.25 -33.1 -47.15 -32.9 -47.15 -32.7 -47.15 -32.65 -47.05 L-32.1 -46.75 -31.85 -47.0 Q-31.6 -47.3 -31.5 -47.3 -31.3 -47.3 -30.15 -46.85 L-28.8 -45.9 -28.75 -45.85 -28.7 -45.85 -28.7 -45.8 -28.75 -45.75 -28.95 -45.75 -29.0 -45.8 -29.1 -45.85 -29.15 -45.85 -29.15 -45.9 -29.2 -45.9 -29.4 -46.0 M-33.25 -47.3 L-33.25 -47.3" fill="#df5c31" fill-rule="evenodd" stroke="none"/>
    <path d="M-32.4 -42.15 L-32.55 -43.1 Q-32.7 -44.25 -32.7 -44.5 L-32.6 -44.65 Q-32.5 -44.75 -32.5 -44.8 -32.5 -44.9 -32.7 -45.55 L-32.6 -45.8 Q-32.6 -45.85 -32.75 -46.2 L-32.55 -46.25 -32.35 -46.25 Q-32.2 -46.25 -32.0 -46.05 L-31.7 -45.9 -31.55 -45.9 -31.5 -45.95 -31.5 -46.3 -31.3 -46.65 -30.9 -46.65 -30.9 -46.5 Q-30.85 -46.4 -30.65 -46.4 -30.6 -46.4 -30.5 -46.5 -30.45 -46.55 -30.35 -46.55 -29.95 -46.55 -29.6 -46.15 L-29.45 -46.0 -29.4 -46.0 -29.55 -45.95 Q-29.6 -45.85 -29.65 -45.85 L-29.7 -45.9 -29.85 -45.85 -30.0 -45.9 -30.0 -45.95 -30.15 -45.95 Q-30.4 -45.95 -30.6 -45.8 -30.8 -45.65 -30.8 -45.6 L-30.8 -45.45 -30.75 -45.3 -30.75 -45.25 Q-31.3 -45.3 -31.75 -45.0 -32.15 -44.7 -32.15 -44.35 -32.15 -44.05 -31.95 -43.65 L-31.7 -43.25 -32.0 -43.0 -32.1 -42.9 -32.25 -42.6 Q-32.4 -42.35 -32.4 -42.2 L-32.4 -42.15 M-28.95 -45.75 L-28.75 -45.75 -28.85 -45.7 -28.95 -45.75" fill="#ff8e28" fill-rule="evenodd" stroke="none"/>
    <path d="M-19.7 -35.0 Q-19.85 -35.2 -19.85 -35.4 -19.85 -35.5 -19.4 -35.65 -18.95 -35.85 -18.95 -36.1 L-19.0 -36.35 Q-18.3 -36.3 -17.95 -36.9 L-17.65 -37.35 Q-17.5 -37.55 -17.2 -37.55 -16.6 -37.55 -16.35 -36.45 -16.45 -36.1 -16.8 -35.7 -17.45 -34.9 -18.55 -34.85 L-18.65 -34.85 Q-19.3 -34.85 -19.7 -35.0" fill="#ffffff" fill-rule="evenodd" stroke="none"/>
    <path d="M-16.35 -36.45 Q-16.6 -37.55 -17.2 -37.55 -17.5 -37.55 -17.65 -37.35 L-17.95 -36.9 Q-18.3 -36.3 -19.0 -36.35 L-18.95 -36.1 Q-18.95 -35.85 -19.4 -35.65 -19.85 -35.5 -19.85 -35.4 -19.85 -35.2 -19.7 -35.0 -19.8 -35.05 -19.9 -35.1 -20.25 -35.25 -20.25 -35.45 L-20.25 -35.5 Q-20.25 -35.7 -20.1 -35.8 L-19.35 -35.85 -19.35 -35.9 -19.25 -36.45 Q-19.1 -36.7 -18.45 -36.7 L-18.2 -36.95 -18.15 -37.15 Q-17.95 -37.9 -17.1 -37.95 -16.8 -37.95 -16.55 -37.75 -16.3 -37.6 -16.3 -37.3 L-16.3 -36.75 Q-16.3 -36.6 -16.35 -36.45" fill="#ffff66" fill-rule="evenodd" stroke="none"/>
  </g>
</svg>
