<?xml version="1.0" encoding="UTF-8" standalone="no"?>
<svg xmlns:ffdec="https://www.free-decompiler.com/flash" xmlns:xlink="http://www.w3.org/1999/xlink" ffdec:objectType="shape" height="8.45px" width="7.05px" xmlns="http://www.w3.org/2000/svg">
  <g transform="matrix(1.0, 0.0, 0.0, 1.0, 31.7, 52.5)">
    <path d="M-31.5 -52.25 L-31.7 -52.35 -31.7 -52.5 -31.65 -52.5 -31.5 -52.25" fill="#5b3f3c" fill-rule="evenodd" stroke="none"/>
    <path d="M-29.5 -49.95 L-29.35 -49.8 Q-29.25 -49.75 -29.15 -49.6 L-29.2 -49.6 Q-29.45 -49.6 -29.5 -49.7 L-29.55 -49.9 -29.5 -49.95 M-28.2 -48.15 L-28.2 -48.4 Q-28.1 -48.4 -28.0 -48.25 -27.9 -48.15 -27.9 -48.05 L-27.9 -48.0 -27.95 -48.0 Q-28.1 -48.0 -28.2 -48.15 M-26.45 -46.2 Q-26.4 -46.25 -26.4 -46.1 L-26.4 -46.0 -26.45 -45.95 -26.65 -45.95 -26.7 -46.0 -26.7 -46.1 Q-26.7 -46.15 -26.65 -46.2 L-26.45 -46.2" fill="#752f22" fill-rule="evenodd" stroke="none"/>
    <path d="M-24.8 -46.0 L-24.65 -45.9 -24.7 -45.8 -24.85 -45.8 Q-24.9 -45.8 -24.9 -45.9 L-24.85 -46.0 -24.8 -46.0 M-26.1 -44.1 L-26.15 -44.05 Q-26.3 -44.2 -26.3 -44.3 -26.3 -44.45 -26.2 -44.45 -26.1 -44.25 -26.1 -44.1 M-25.5 -45.65 L-25.55 -45.7 Q-25.5 -45.85 -25.35 -45.85 L-25.35 -45.7 -25.5 -45.65 M-26.0 -44.85 L-26.0 -44.95 Q-26.0 -45.15 -25.9 -45.15 -25.8 -45.2 -25.75 -44.85 L-25.75 -44.8 -25.9 -44.75 Q-26.0 -44.75 -26.0 -44.85" fill="#c03e12" fill-rule="evenodd" stroke="none"/>
  </g>
</svg>
