<?xml version="1.0" encoding="UTF-8" standalone="no"?>
<svg xmlns:ffdec="https://www.free-decompiler.com/flash" xmlns:xlink="http://www.w3.org/1999/xlink" ffdec:objectType="shape" height="17.95px" width="23.1px" xmlns="http://www.w3.org/2000/svg">
  <g transform="matrix(1.0, 0.0, 0.0, 1.0, 52.65, 52.15)">
    <path d="M-52.2 -51.55 L-52.25 -51.55 Q-52.4 -51.55 -52.65 -52.05 L-52.65 -52.15 Q-52.35 -52.05 -52.2 -51.6 L-52.2 -51.55" fill="#5b3f3c" fill-rule="evenodd" stroke="none"/>
    <path d="M-48.85 -47.9 L-48.9 -47.9 Q-49.05 -47.9 -49.15 -48.0 -49.2 -48.1 -49.2 -48.15 -49.2 -48.35 -49.1 -48.3 -48.95 -48.3 -48.85 -48.0 L-48.85 -47.9 M-48.3 -47.45 L-48.35 -47.6 Q-48.3 -47.65 -48.0 -47.65 L-48.0 -47.45 Q-48.0 -47.4 -48.05 -47.4 L-48.3 -47.45 M-48.4 -47.5 L-48.6 -47.5 -48.65 -47.55 -48.65 -47.65 Q-48.6 -47.75 -48.4 -47.55 L-48.4 -47.5 M-49.05 -47.35 Q-49.0 -47.25 -48.9 -47.15 L-48.95 -47.1 -49.05 -47.1 -49.1 -47.15 -49.1 -47.35 -49.05 -47.35 M-49.0 -46.7 L-49.1 -46.8 Q-49.0 -46.8 -48.95 -46.75 L-49.0 -46.7 M-47.1 -46.0 L-47.15 -46.0 -47.15 -46.1 -47.1 -46.2 Q-47.0 -46.3 -46.9 -46.25 L-46.85 -46.25 -46.85 -46.15 Q-46.85 -46.05 -46.9 -46.0 L-47.0 -46.0 Q-47.15 -46.0 -47.1 -46.0 M-47.3 -46.0 L-47.25 -45.9 Q-47.25 -45.8 -47.3 -45.75 L-47.55 -45.5 Q-47.65 -45.6 -47.65 -45.75 -47.65 -45.85 -47.6 -45.95 -47.5 -46.05 -47.3 -46.0 M-46.5 -46.1 L-46.5 -46.2 Q-46.5 -46.35 -46.25 -46.3 -46.2 -46.3 -46.2 -46.2 L-46.25 -46.1 -46.35 -46.05 Q-46.5 -46.05 -46.45 -46.1 L-46.5 -46.1 M-49.3 -48.45 L-49.3 -48.4 -49.35 -48.4 Q-49.6 -48.5 -49.95 -48.9 -50.3 -49.3 -50.45 -49.6 -50.3 -49.6 -49.8 -49.15 -49.3 -48.65 -49.3 -48.45" fill="#752f22" fill-rule="evenodd" stroke="none"/>
    <path d="M-46.5 -45.1 L-46.5 -44.95 -46.6 -44.9 Q-46.75 -45.0 -46.75 -45.1 -46.75 -45.3 -46.6 -45.3 L-46.5 -45.2 -46.5 -45.1 M-47.55 -44.35 Q-47.45 -44.25 -47.4 -44.15 -47.35 -44.3 -47.15 -44.35 -47.25 -44.6 -47.25 -44.7 -47.25 -44.9 -47.0 -44.95 -46.8 -45.0 -46.8 -44.85 -46.8 -44.8 -46.9 -44.7 L-46.95 -44.5 Q-46.95 -44.45 -46.9 -44.45 -46.85 -44.45 -46.85 -44.35 L-47.1 -43.75 -47.0 -43.45 Q-46.95 -43.2 -46.95 -43.1 L-46.95 -43.05 -47.0 -43.0 Q-47.05 -43.05 -47.25 -43.5 L-47.35 -43.75 -47.35 -43.6 -47.6 -43.9 Q-47.75 -44.15 -47.75 -44.25 -47.75 -44.55 -47.55 -44.35 M-45.2 -45.4 Q-45.25 -45.4 -45.35 -45.4 -45.55 -45.4 -45.65 -45.5 L-45.65 -45.6 Q-45.65 -45.7 -45.5 -45.7 -45.35 -45.7 -45.1 -45.55 L-45.2 -45.4 M-46.2 -45.3 Q-46.1 -45.5 -45.85 -45.4 -45.8 -45.35 -45.8 -45.25 -45.8 -45.1 -46.0 -45.1 -46.05 -45.1 -46.1 -45.15 L-46.2 -45.3" fill="#c03e12" fill-rule="evenodd" stroke="none"/>
    <path d="M-34.9 -35.05 L-34.8 -34.95 Q-35.15 -35.45 -35.15 -35.8 L-35.1 -36.05 -35.0 -36.3 -34.65 -36.0 Q-34.45 -35.75 -34.15 -35.75 -33.25 -35.75 -33.2 -36.5 -33.2 -36.9 -33.3 -37.6 -33.05 -37.55 -32.95 -37.8 -32.9 -37.9 -32.9 -38.1 -32.9 -38.4 -33.35 -38.85 -33.8 -39.3 -33.8 -39.4 -33.8 -39.65 -33.3 -39.9 -32.7 -40.15 -32.0 -40.15 L-31.75 -40.1 -31.45 -40.05 -31.4 -40.05 Q-31.0 -39.85 -30.65 -39.55 L-30.75 -39.6 Q-31.6 -39.85 -32.25 -39.7 -32.95 -39.55 -32.95 -39.15 -32.95 -38.95 -32.45 -38.65 -32.0 -38.3 -32.0 -38.2 L-32.2 -37.75 Q-32.35 -37.3 -32.35 -37.15 -32.8 -36.75 -32.9 -36.55 -33.05 -36.35 -33.05 -36.15 -32.95 -35.9 -33.0 -35.75 -33.15 -35.4 -33.95 -35.4 -34.0 -35.4 -34.1 -35.45 -34.2 -35.55 -34.25 -35.55 L-34.45 -35.5 Q-34.55 -35.4 -34.55 -35.35 -34.5 -34.95 -34.25 -34.6 -34.65 -34.75 -34.9 -35.05" fill="#ffdc45" fill-rule="evenodd" stroke="none"/>
    <path d="M-30.65 -39.55 L-30.35 -39.25 Q-30.15 -39.0 -30.0 -38.75 L-30.3 -38.9 Q-30.8 -39.1 -30.8 -38.8 L-30.5 -38.2 -30.55 -37.95 -30.55 -37.8 Q-31.05 -37.95 -31.35 -37.7 -31.5 -37.55 -31.5 -37.35 -31.5 -37.1 -31.3 -36.75 L-31.1 -36.45 Q-31.1 -36.35 -31.55 -36.0 -32.05 -35.65 -32.05 -35.25 -32.05 -34.95 -32.25 -34.85 L-32.8 -34.75 Q-33.4 -34.7 -33.5 -34.3 -33.95 -34.4 -34.25 -34.6 -34.5 -34.95 -34.55 -35.35 -34.55 -35.4 -34.45 -35.5 L-34.25 -35.55 Q-34.2 -35.55 -34.1 -35.45 -34.0 -35.4 -33.95 -35.4 -33.15 -35.4 -33.0 -35.75 -32.95 -35.9 -33.05 -36.15 -33.05 -36.35 -32.9 -36.55 -32.8 -36.75 -32.35 -37.15 -32.35 -37.3 -32.2 -37.75 L-32.0 -38.2 Q-32.0 -38.3 -32.45 -38.65 -32.95 -38.95 -32.95 -39.15 -32.95 -39.55 -32.25 -39.7 -31.6 -39.85 -30.75 -39.6 L-30.65 -39.55 M-31.75 -35.4 L-31.75 -35.5 -31.7 -35.5 -31.7 -35.3 Q-31.75 -35.3 -31.75 -35.35 L-31.75 -35.4 M-30.55 -37.05 L-30.5 -37.05 Q-30.55 -36.9 -30.6 -36.85 L-30.55 -37.05" fill="#ffff66" fill-rule="evenodd" stroke="none"/>
    <path d="M-30.0 -38.75 L-29.9 -38.6 Q-29.75 -38.35 -29.7 -38.05 -29.55 -37.65 -29.55 -37.1 -29.55 -36.2 -29.9 -35.55 -30.45 -34.4 -31.95 -34.25 L-32.2 -34.2 -32.35 -34.2 -33.5 -34.3 Q-33.4 -34.7 -32.8 -34.75 L-32.25 -34.85 Q-32.05 -34.95 -32.05 -35.25 -32.05 -35.65 -31.55 -36.0 -31.1 -36.35 -31.1 -36.45 L-31.3 -36.75 Q-31.5 -37.1 -31.5 -37.35 -31.5 -37.55 -31.35 -37.7 -31.05 -37.95 -30.55 -37.8 L-30.55 -37.95 -30.5 -38.2 -30.8 -38.8 Q-30.8 -39.1 -30.3 -38.9 L-30.0 -38.75 M-30.55 -37.05 L-30.6 -36.85 Q-30.55 -36.9 -30.5 -37.05 L-30.55 -37.05 M-31.75 -35.4 L-31.75 -35.35 Q-31.75 -35.3 -31.7 -35.3 L-31.7 -35.5 -31.75 -35.5 -31.75 -35.4" fill="#ffffff" fill-rule="evenodd" stroke="none"/>
    <path d="M-34.9 -35.05 L-34.95 -35.05 -35.05 -35.2 Q-35.45 -35.75 -35.45 -36.35 -35.45 -36.65 -35.3 -36.75 L-35.1 -36.6 -34.75 -36.3 Q-34.4 -36.0 -34.1 -36.0 -33.95 -36.0 -33.8 -36.2 -33.7 -36.35 -33.7 -36.45 -33.7 -36.75 -33.9 -37.45 -33.9 -37.6 -33.85 -37.7 -33.75 -37.8 -33.4 -37.9 -33.5 -38.05 -33.7 -38.2 L-33.8 -38.3 -34.05 -38.3 -35.2 -38.05 Q-35.4 -38.05 -35.4 -38.2 L-35.45 -38.4 Q-35.45 -39.1 -34.8 -39.75 -34.35 -40.15 -33.8 -40.25 -33.15 -40.45 -32.35 -40.3 -31.85 -40.25 -31.4 -40.05 L-31.45 -40.05 -31.75 -40.1 -32.0 -40.15 Q-32.7 -40.15 -33.3 -39.9 -33.8 -39.65 -33.8 -39.4 -33.8 -39.3 -33.35 -38.85 -32.9 -38.4 -32.9 -38.1 -32.9 -37.9 -32.95 -37.8 -33.05 -37.55 -33.3 -37.6 -33.2 -36.9 -33.2 -36.5 -33.25 -35.75 -34.15 -35.75 -34.45 -35.75 -34.65 -36.0 L-35.0 -36.3 -35.1 -36.05 -35.15 -35.8 Q-35.15 -35.45 -34.8 -34.95 L-34.9 -35.05" fill="#ffb74c" fill-rule="evenodd" stroke="none"/>
  </g>
</svg>
