<?xml version="1.0" encoding="UTF-8" standalone="no"?>
<svg xmlns:ffdec="https://www.free-decompiler.com/flash" xmlns:xlink="http://www.w3.org/1999/xlink" ffdec:objectType="shape" height="7.95px" width="6.65px" xmlns="http://www.w3.org/2000/svg">
  <g transform="matrix(1.0, 0.0, 0.0, 1.0, 53.25, 52.8)">
    <path d="M-53.05 -52.55 L-53.2 -52.65 -53.25 -52.7 -53.25 -52.8 -53.15 -52.8 -53.05 -52.55" fill="#5b3f3c" fill-rule="evenodd" stroke="none"/>
    <path d="M-51.0 -50.25 Q-50.9 -50.2 -50.85 -50.1 L-50.85 -50.05 Q-51.1 -50.05 -51.1 -50.15 L-51.15 -50.35 -51.0 -50.25 M-48.5 -46.7 L-48.5 -46.75 Q-48.5 -46.85 -48.45 -46.85 L-48.25 -46.85 Q-48.25 -46.9 -48.25 -46.75 L-48.25 -46.65 -48.45 -46.65 -48.5 -46.7 M-49.7 -48.75 L-49.65 -48.6 -49.65 -48.55 -49.7 -48.55 Q-49.85 -48.55 -49.9 -48.7 L-49.95 -48.8 -49.9 -48.9 Q-49.8 -48.9 -49.7 -48.75" fill="#752f22" fill-rule="evenodd" stroke="none"/>
    <path d="M-47.35 -46.35 L-47.45 -46.4 Q-47.4 -46.5 -47.25 -46.55 L-47.25 -46.4 -47.35 -46.35 M-46.8 -46.65 L-46.7 -46.65 -46.6 -46.6 -46.65 -46.5 -46.7 -46.45 -46.8 -46.5 -46.8 -46.65 M-47.65 -45.55 L-47.75 -45.5 Q-47.85 -45.5 -47.85 -45.6 L-47.85 -45.7 Q-47.85 -45.9 -47.75 -45.9 -47.65 -45.9 -47.6 -45.6 L-47.65 -45.55 M-47.95 -44.9 L-48.0 -44.85 Q-48.15 -45.0 -48.15 -45.05 -48.15 -45.2 -48.05 -45.2 -47.95 -45.05 -47.95 -44.9" fill="#c03e12" fill-rule="evenodd" stroke="none"/>
  </g>
</svg>
