<?xml version="1.0" encoding="UTF-8" standalone="no"?>
<svg xmlns:ffdec="https://www.free-decompiler.com/flash" xmlns:xlink="http://www.w3.org/1999/xlink" ffdec:objectType="shape" height="7.55px" width="1.35px" xmlns="http://www.w3.org/2000/svg">
  <g transform="matrix(1.0, 0.0, 0.0, 1.0, -4.55, 10.05)">
    <path d="M5.85 -9.95 Q5.9 -9.9 5.85 -9.9 L5.75 -9.95 5.65 -9.95 Q5.6 -10.0 5.6 -10.05 L5.8 -10.05 5.85 -9.95 M5.05 -5.35 L5.35 -5.05 5.3 -5.0 5.25 -5.0 Q5.2 -5.0 5.1 -5.15 L5.0 -5.25 5.05 -5.35 M4.75 -5.8 Q4.8 -5.8 4.7 -5.8 4.55 -5.8 4.55 -6.05 4.65 -5.9 4.75 -5.8 M5.85 -2.5 L5.8 -2.5 5.8 -2.65 5.9 -2.6 5.85 -2.5" fill="#ffffff" fill-rule="evenodd" stroke="none"/>
  </g>
</svg>
