<?xml version="1.0" encoding="UTF-8" standalone="no"?>
<svg xmlns:ffdec="https://www.free-decompiler.com/flash" xmlns:xlink="http://www.w3.org/1999/xlink" ffdec:objectType="shape" height="20.1px" width="22.05px" xmlns="http://www.w3.org/2000/svg">
  <g transform="matrix(1.0, 0.0, 0.0, 1.0, 11.0, 20.1)">
    <path d="M-10.35 -3.7 L-10.4 -4.1 -10.35 -4.65 Q-10.45 -5.25 -10.45 -6.1 -10.45 -6.9 -10.2 -7.9 -10.6 -8.25 -10.8 -9.15 -11.0 -9.9 -11.0 -10.7 -11.0 -11.55 -10.75 -12.35 -10.3 -13.5 -9.55 -13.65 -9.45 -13.6 -9.45 -13.5 L-9.45 -13.15 Q-9.45 -13.05 -9.05 -12.2 L-8.6 -11.35 Q-8.0 -12.3 -7.2 -13.05 -6.35 -13.95 -5.35 -14.55 L-5.25 -14.65 -5.2 -15.1 -4.9 -14.95 Q-4.85 -15.15 -4.7 -15.3 -4.4 -15.55 -4.1 -15.45 L-3.95 -15.55 Q-3.7 -15.65 -3.55 -15.65 L-3.1 -15.85 Q-2.25 -16.2 -1.45 -16.4 -1.45 -16.9 -1.15 -18.15 -0.85 -19.65 -0.5 -20.1 0.05 -19.35 0.45 -18.2 L0.95 -16.8 1.45 -16.65 Q2.9 -16.25 5.1 -15.05 L6.4 -13.6 Q6.8 -14.0 6.95 -14.5 7.15 -15.05 7.05 -15.6 7.85 -15.5 8.25 -14.9 8.6 -14.4 8.6 -13.75 8.6 -13.15 8.25 -12.2 8.05 -11.7 7.85 -11.4 L8.45 -10.15 8.65 -10.35 Q9.2 -10.75 10.05 -11.3 L10.25 -11.75 10.2 -11.95 10.25 -12.15 10.25 -12.25 10.5 -12.15 10.55 -12.2 Q10.9 -11.95 10.95 -11.75 11.0 -11.65 11.0 -11.15 L11.0 -11.0 11.05 -10.4 Q11.05 -9.5 10.75 -8.7 10.4 -7.8 9.85 -7.25 9.6 -7.0 9.4 -6.85 9.45 -6.2 9.45 -5.3 L9.45 -4.15 9.35 -3.75 8.85 -3.4 8.65 -3.25 8.45 -3.7 8.45 -4.1 8.5 -4.3 8.45 -5.0 8.45 -5.25 8.5 -5.8 8.5 -6.35 8.45 -6.7 8.45 -6.75 Q7.65 -6.9 7.4 -7.55 L7.3 -7.75 7.15 -8.3 7.25 -8.7 Q7.3 -9.1 7.45 -9.3 L7.7 -9.55 7.35 -10.4 7.05 -11.2 Q5.05 -15.4 2.0 -15.4 L1.75 -15.4 1.15 -15.55 Q-1.0 -15.1 -2.75 -14.35 L-3.0 -14.25 -3.05 -14.3 -3.35 -14.05 -3.0 -13.8 -2.65 -13.5 Q-2.25 -13.0 -2.1 -12.45 -2.05 -12.25 -2.05 -11.95 -2.05 -11.5 -2.55 -10.9 -3.15 -10.15 -4.05 -10.15 -4.8 -10.15 -5.1 -12.15 L-5.2 -13.0 Q-6.5 -12.1 -7.5 -10.9 L-7.8 -10.5 -7.6 -10.05 Q-7.6 -9.45 -8.1 -8.65 -8.55 -7.9 -9.2 -7.75 L-9.35 -7.0 Q-9.7 -5.75 -9.75 -4.35 L-9.8 -3.7 -9.8 -3.6 -9.85 -3.6 -9.95 -3.65 -10.1 -3.8 -10.3 -3.75 -10.35 -3.7 M7.5 -14.4 L7.15 -13.7 Q6.95 -13.4 6.75 -13.25 7.25 -12.6 7.55 -12.05 L7.6 -12.1 Q8.05 -12.7 8.05 -13.35 L7.85 -13.8 7.5 -14.4 M7.85 -9.7 L8.05 -9.85 8.15 -9.9 Q8.0 -9.85 7.85 -9.7 M7.75 -9.65 L7.65 -10.05 Q7.6 -9.9 7.7 -9.6 L7.75 -9.65 M7.75 -8.5 Q7.75 -8.2 7.95 -7.9 8.25 -7.5 8.65 -7.5 8.95 -7.5 9.25 -7.6 L9.25 -7.95 9.3 -7.65 Q9.8 -7.95 10.1 -8.8 10.35 -9.6 10.35 -10.65 10.25 -10.35 10.05 -10.1 9.9 -9.95 9.65 -9.85 9.3 -9.55 8.85 -9.5 L8.25 -9.4 Q8.1 -9.3 7.95 -9.05 7.75 -8.65 7.75 -8.5 M8.8 -4.0 L8.75 -4.25 8.75 -3.95 8.75 -3.9 8.8 -4.0 M-0.45 -18.6 L-0.75 -17.35 -0.9 -16.5 -0.25 -16.55 Q-0.05 -16.8 0.4 -16.85 0.05 -17.55 -0.4 -18.6 L-0.45 -18.6 M-4.55 -12.2 Q-4.35 -11.0 -3.75 -11.0 -3.25 -11.0 -3.05 -11.6 -2.9 -11.9 -2.9 -12.25 -2.9 -12.9 -3.55 -13.45 -4.1 -13.9 -4.75 -14.1 -4.65 -12.85 -4.55 -12.2 M-9.95 -12.65 Q-10.1 -12.3 -10.3 -11.65 -10.55 -10.9 -10.55 -10.6 -10.55 -10.2 -10.3 -9.45 -9.95 -8.4 -9.45 -8.4 L-9.2 -8.45 Q-8.95 -8.7 -8.7 -9.15 L-8.5 -9.6 Q-8.4 -9.95 -8.4 -10.3 -8.4 -10.45 -8.85 -11.05 -9.5 -11.9 -9.95 -12.65 M-8.5 -9.45 L-8.95 -8.55 Q-8.7 -8.8 -8.55 -9.3 L-8.5 -9.45" fill="#31451b" fill-rule="evenodd" stroke="none"/>
    <path d="M7.5 -14.4 L7.85 -13.8 8.05 -13.35 Q8.05 -12.7 7.6 -12.1 L7.55 -12.05 Q7.25 -12.6 6.75 -13.25 6.95 -13.4 7.15 -13.7 L7.5 -14.4 M7.75 -8.5 Q7.75 -8.65 7.95 -9.05 8.1 -9.3 8.25 -9.4 L8.85 -9.5 Q9.3 -9.55 9.65 -9.85 9.9 -9.95 10.05 -10.1 10.25 -10.35 10.35 -10.65 10.35 -9.6 10.1 -8.8 9.8 -7.95 9.3 -7.65 L9.25 -7.95 9.25 -7.6 Q8.95 -7.5 8.65 -7.5 8.25 -7.5 7.95 -7.9 7.75 -8.2 7.75 -8.5 M-9.95 -12.65 Q-9.5 -11.9 -8.85 -11.05 -8.4 -10.45 -8.4 -10.3 -8.4 -9.95 -8.5 -9.6 L-8.7 -9.15 Q-8.95 -8.7 -9.2 -8.45 L-9.45 -8.4 Q-9.95 -8.4 -10.3 -9.45 -10.55 -10.2 -10.55 -10.6 -10.55 -10.9 -10.3 -11.65 -10.1 -12.3 -9.95 -12.65 M-4.55 -12.2 Q-4.65 -12.85 -4.75 -14.1 -4.1 -13.9 -3.55 -13.45 -2.9 -12.9 -2.9 -12.25 -2.9 -11.9 -3.05 -11.6 -3.25 -11.0 -3.75 -11.0 -4.35 -11.0 -4.55 -12.2 M-0.45 -18.6 L-0.4 -18.6 Q0.05 -17.55 0.4 -16.85 -0.05 -16.8 -0.25 -16.55 L-0.9 -16.5 -0.75 -17.35 -0.45 -18.6" fill="#759c65" fill-rule="evenodd" stroke="none"/>
    <path d="M9.45 -3.2 L9.2 -2.9 9.45 -3.2 M-8.55 -1.9 Q-9.45 -2.3 -9.8 -2.65 -9.35 -2.35 -8.65 -2.0 L-8.55 -1.9 M-9.95 -3.65 L-9.85 -3.6 -9.8 -3.6 -9.8 -3.7 -9.75 -4.35 Q-9.7 -5.75 -9.35 -7.0 L-9.2 -7.75 Q-8.55 -7.9 -8.1 -8.65 -7.6 -9.45 -7.6 -10.05 L-7.8 -10.5 -7.5 -10.9 Q-6.5 -12.1 -5.2 -13.0 L-5.1 -12.15 Q-4.8 -10.15 -4.05 -10.15 -3.15 -10.15 -2.55 -10.9 -2.05 -11.5 -2.05 -11.95 -2.05 -12.25 -2.1 -12.45 -2.25 -13.0 -2.65 -13.5 L-3.0 -13.8 -3.35 -14.05 -3.05 -14.3 -3.0 -14.25 -2.75 -14.35 Q-1.0 -15.1 1.15 -15.55 L1.75 -15.4 2.0 -15.4 Q5.05 -15.4 7.05 -11.2 L7.35 -10.4 7.7 -9.55 7.45 -9.3 Q7.3 -9.1 7.25 -8.7 L7.15 -8.3 7.3 -7.75 7.4 -7.55 Q7.65 -6.9 8.45 -6.75 L8.45 -6.7 8.5 -6.35 8.5 -5.8 8.45 -5.25 8.45 -5.0 8.5 -4.3 8.45 -4.1 8.45 -3.7 8.65 -3.25 7.6 -2.4 7.45 -2.3 7.1 -2.1 Q4.15 -0.75 0.7 -0.75 -3.1 -0.75 -6.9 -2.0 -7.75 -2.25 -8.7 -2.65 -9.1 -2.95 -9.45 -3.2 L-9.95 -3.65 M7.75 -9.65 L7.7 -9.6 Q7.6 -9.9 7.65 -10.05 L7.75 -9.65 M5.15 -10.15 Q4.95 -10.15 4.9 -10.05 4.95 -9.55 4.95 -9.3 5.0 -8.85 5.4 -8.55 5.7 -8.6 5.7 -9.05 5.7 -9.15 5.5 -9.55 5.3 -10.0 5.15 -10.15 M4.55 -11.9 Q4.55 -12.45 3.95 -13.0 3.45 -13.55 2.7 -13.95 1.95 -14.35 1.4 -14.35 0.85 -14.4 0.85 -13.95 L2.4 -12.6 Q4.05 -11.25 4.25 -11.25 4.4 -11.25 4.45 -11.3 L4.45 -11.35 4.5 -11.6 4.55 -11.9 M8.75 -3.95 L8.75 -4.25 8.8 -4.0 8.75 -3.95 M-8.5 -9.45 L-8.55 -9.3 Q-8.7 -8.8 -8.95 -8.55 L-8.5 -9.45" fill="#59754c" fill-rule="evenodd" stroke="none"/>
    <path d="M9.35 -3.75 Q9.65 -3.95 9.95 -4.0 L10.0 -3.75 9.6 -3.45 9.45 -3.2 9.2 -2.9 9.05 -2.75 Q8.4 -2.1 7.45 -1.5 5.0 -0.15 1.25 0.0 L-2.2 0.0 Q-6.15 -0.75 -7.6 -1.4 -7.95 -1.55 -8.55 -1.9 L-8.65 -2.0 Q-9.35 -2.35 -9.8 -2.65 L-10.35 -3.1 -10.35 -3.7 -10.3 -3.75 -10.1 -3.8 -9.95 -3.65 -9.45 -3.2 Q-9.1 -2.95 -8.7 -2.65 -7.75 -2.25 -6.9 -2.0 -3.1 -0.75 0.7 -0.75 4.15 -0.75 7.1 -2.1 L7.45 -2.3 7.6 -2.4 8.65 -3.25 8.85 -3.4 9.35 -3.75 M4.55 -11.9 L4.5 -11.6 4.45 -11.35 4.45 -11.3 Q4.4 -11.25 4.25 -11.25 4.05 -11.25 2.4 -12.6 L0.85 -13.95 Q0.85 -14.4 1.4 -14.35 1.95 -14.35 2.7 -13.95 3.45 -13.55 3.95 -13.0 4.55 -12.45 4.55 -11.9 M5.15 -10.15 Q5.3 -10.0 5.5 -9.55 5.7 -9.15 5.7 -9.05 5.7 -8.6 5.4 -8.55 5.0 -8.85 4.95 -9.3 4.95 -9.55 4.9 -10.05 4.95 -10.15 5.15 -10.15" fill="#c4d96a" fill-rule="evenodd" stroke="none"/>
  </g>
</svg>
