<?xml version="1.0" encoding="UTF-8" standalone="no"?>
<svg xmlns:ffdec="https://www.free-decompiler.com/flash" xmlns:xlink="http://www.w3.org/1999/xlink" ffdec:objectType="shape" height="44.05px" width="60.3px" xmlns="http://www.w3.org/2000/svg">
  <g transform="matrix(1.0, 0.0, 0.0, 1.0, 22.05, 44.25)">
    <path d="M29.2 -21.2 Q29.2 -21.3 29.4 -21.25 31.4 -20.85 30.75 -19.7 32.55 -19.55 34.45 -21.2 35.2 -21.85 35.7 -22.55 36.2 -23.25 36.3 -23.65 36.35 -23.8 36.15 -24.55 36.05 -24.7 35.75 -24.8 35.45 -24.9 35.35 -25.0 35.3 -25.1 35.3 -25.15 L35.3 -25.4 Q35.35 -25.5 35.55 -25.85 L35.85 -26.25 36.4 -26.6 37.35 -26.55 Q37.6 -26.8 37.8 -27.35 L38.0 -28.2 Q38.25 -29.6 37.8 -30.9 37.15 -32.65 35.25 -33.95 L35.2 -34.0 34.45 -34.2 Q33.7 -34.4 33.65 -34.4 33.65 -34.0 32.75 -33.75 32.15 -33.55 31.5 -33.55 L31.35 -33.4 Q31.3 -33.4 31.15 -33.4 31.0 -33.45 30.85 -33.55 L30.8 -33.5 Q30.9 -33.45 30.7 -33.45 30.6 -33.5 30.5 -33.7 30.4 -33.85 30.3 -33.9 28.75 -33.55 28.05 -32.65 L27.6 -31.95 Q27.3 -31.55 26.95 -31.3 26.9 -31.3 26.95 -31.45 L26.9 -31.45 Q26.65 -31.55 26.7 -31.9 26.7 -32.1 26.8 -32.25 26.85 -32.75 27.4 -33.8 27.8 -34.6 28.1 -35.1 28.45 -35.7 29.05 -36.45 L29.45 -36.7 29.8 -36.95 29.95 -37.3 30.0 -37.35 30.15 -38.0 Q30.3 -38.65 30.15 -39.6 30.0 -40.6 29.55 -41.1 29.3 -41.35 28.8 -41.6 28.45 -41.85 28.65 -42.4 L28.65 -42.8 28.6 -43.15 28.6 -43.55 Q28.5 -43.85 28.0 -43.65 L27.95 -43.75 Q27.85 -43.8 27.85 -43.85 L27.85 -43.95 27.25 -43.45 Q26.8 -43.05 26.5 -42.9 26.35 -42.8 25.7 -42.7 25.0 -42.55 24.6 -42.35 23.8 -41.95 23.05 -41.35 22.15 -40.55 22.05 -40.0 22.0 -39.95 22.1 -39.7 22.2 -39.4 22.15 -39.25 22.1 -39.0 22.0 -38.85 L21.45 -38.5 21.25 -38.55 21.15 -38.95 Q20.15 -38.95 18.8 -37.65 17.5 -36.4 17.35 -35.6 17.3 -35.45 17.4 -34.95 17.45 -34.4 17.55 -34.35 17.75 -34.2 17.95 -34.2 18.05 -34.2 18.05 -33.9 L18.0 -33.6 17.9 -33.3 17.75 -32.8 17.6 -32.35 17.6 -32.0 Q17.5 -31.65 17.0 -31.3 16.45 -30.9 15.8 -30.9 L15.6 -30.95 15.1 -31.75 Q13.4 -31.7 11.8 -30.5 10.35 -29.4 10.15 -28.55 10.15 -28.45 10.2 -28.3 L10.25 -28.1 9.8 -27.45 Q9.4 -26.8 9.3 -26.3 9.2 -25.7 9.2 -25.5 9.25 -24.95 9.7 -25.0 10.0 -24.75 10.15 -24.05 10.3 -23.4 10.25 -23.05 L10.15 -22.8 10.05 -22.5 9.95 -22.45 9.8 -21.85 9.7 -21.15 9.65 -20.45 Q9.6 -20.1 9.2 -19.1 9.35 -18.95 9.35 -18.75 L9.3 -18.45 9.15 -18.1 Q9.05 -17.65 8.1 -16.65 L7.3 -15.9 7.1 -15.75 7.0 -15.7 Q6.5 -15.2 6.35 -14.6 L6.35 -14.1 6.3 -13.6 Q6.25 -13.15 6.0 -12.65 L5.55 -11.8 5.6 -11.8 5.25 -11.6 Q5.3 -11.25 5.3 -11.1 5.2 -10.6 4.55 -10.0 4.0 -9.5 3.8 -8.85 L3.8 -8.75 3.7 -8.5 3.75 -8.35 3.6 -8.15 3.6 -8.2 3.55 -8.1 Q3.35 -7.75 2.85 -7.65 2.5 -7.8 2.3 -8.0 L1.95 -8.45 1.8 -8.65 1.75 -9.05 Q1.55 -10.1 1.65 -10.45 L1.7 -10.75 Q1.8 -10.95 2.0 -11.0 1.95 -11.15 1.95 -11.4 1.9 -11.7 1.85 -11.85 L1.6 -12.4 1.45 -12.4 Q1.2 -12.7 0.9 -13.45 0.55 -14.25 0.6 -14.55 0.6 -14.6 0.8 -14.75 0.95 -14.9 1.05 -14.95 0.5 -15.4 0.25 -16.1 0.2 -16.3 0.1 -16.85 0.0 -17.25 0.05 -17.45 L0.05 -17.5 0.1 -17.5 Q0.15 -17.1 0.2 -16.8 L0.35 -16.35 0.35 -16.3 0.45 -16.0 Q0.7 -15.2 1.7 -14.85 1.65 -14.75 1.6 -14.75 L1.05 -14.75 Q0.95 -14.75 0.85 -14.65 0.75 -14.55 0.75 -14.5 0.7 -14.3 0.95 -13.8 L1.15 -13.35 Q1.55 -12.55 1.7 -12.4 L1.65 -12.4 Q1.85 -12.15 1.95 -11.8 2.2 -11.2 2.15 -10.75 L2.15 -10.7 Q2.1 -10.7 2.05 -10.75 L2.0 -10.85 Q1.8 -10.6 1.75 -10.4 1.7 -10.1 1.9 -9.15 L1.9 -9.35 1.95 -9.35 Q1.95 -9.05 2.05 -8.65 2.25 -7.95 2.85 -7.85 3.15 -7.8 3.35 -8.05 3.45 -8.15 3.5 -8.45 3.55 -8.65 3.75 -9.15 L3.8 -9.15 Q4.05 -9.65 4.45 -10.0 L4.9 -10.45 Q5.1 -10.7 5.2 -11.05 L5.0 -11.75 5.0 -11.85 5.05 -11.85 Q5.1 -11.8 5.2 -11.75 L5.4 -11.8 5.5 -11.8 5.95 -12.75 Q6.15 -13.2 6.2 -13.6 6.3 -13.95 6.25 -14.15 L6.2 -14.1 6.1 -14.15 Q6.0 -13.6 5.75 -13.2 5.35 -12.6 4.65 -12.55 L4.65 -12.3 4.6 -12.25 Q3.9 -12.6 3.9 -13.35 3.8 -13.5 3.8 -13.65 3.75 -13.9 3.85 -14.2 3.9 -14.55 3.95 -14.65 4.05 -14.8 4.45 -15.0 L4.4 -15.05 4.05 -15.05 3.95 -14.85 Q3.85 -15.05 3.9 -15.2 3.95 -15.6 4.35 -15.95 4.7 -16.25 5.15 -16.4 5.65 -16.0 5.75 -15.65 L5.75 -15.25 Q5.75 -15.05 6.0 -14.9 L6.15 -14.45 Q6.2 -14.9 6.45 -15.3 6.7 -15.7 7.0 -15.9 L7.0 -15.95 Q7.15 -16.15 7.7 -16.55 8.25 -16.95 8.4 -17.15 8.8 -17.75 9.1 -18.45 L9.15 -19.05 9.1 -19.0 9.05 -19.15 Q9.05 -19.2 9.05 -19.35 L9.25 -19.9 9.45 -20.4 9.45 -20.9 9.5 -21.4 Q9.5 -21.55 9.9 -22.7 L9.9 -23.5 Q9.9 -24.15 9.8 -24.55 9.75 -24.75 9.3 -24.85 8.95 -24.95 9.0 -25.35 L9.15 -26.35 Q9.25 -26.85 9.65 -27.5 L9.95 -28.1 10.05 -28.55 Q10.3 -29.9 12.55 -31.05 13.35 -31.5 14.2 -31.75 14.95 -32.0 15.2 -31.95 15.35 -31.9 15.55 -31.6 L15.8 -31.15 Q16.65 -31.25 17.05 -31.6 17.3 -31.8 17.45 -32.1 L17.3 -32.1 17.45 -32.3 17.5 -32.45 17.55 -32.7 17.55 -32.75 17.65 -33.0 17.7 -33.2 17.8 -33.4 17.85 -33.7 Q17.8 -33.9 17.85 -33.95 L17.5 -34.15 Q17.3 -34.3 17.2 -34.5 17.1 -34.7 17.1 -35.0 L17.2 -35.6 Q17.4 -36.7 18.9 -38.05 20.35 -39.35 21.05 -39.2 21.3 -39.15 21.35 -38.95 21.35 -38.75 21.4 -38.7 L21.8 -38.9 Q22.0 -39.05 22.05 -39.3 22.05 -39.35 21.9 -39.6 L21.75 -39.85 Q21.85 -40.45 22.9 -41.35 23.8 -42.15 24.5 -42.5 25.0 -42.75 25.6 -42.9 26.25 -43.05 26.55 -43.2 26.9 -43.35 27.35 -43.85 27.75 -44.25 28.05 -44.25 L28.15 -44.0 Q28.65 -44.15 28.75 -43.65 28.8 -42.95 28.85 -42.75 L28.8 -42.35 Q28.75 -42.1 28.8 -41.9 28.85 -41.75 29.15 -41.55 L29.6 -41.2 Q30.1 -40.65 30.3 -39.65 30.45 -38.75 30.3 -38.0 L30.2 -37.5 30.15 -37.3 30.05 -37.0 29.9 -36.75 Q29.75 -36.35 29.7 -36.4 29.65 -36.5 29.5 -36.55 29.25 -36.6 28.75 -35.85 L28.0 -34.65 Q27.8 -34.35 27.5 -33.65 27.25 -33.0 27.0 -32.65 L26.85 -31.8 27.15 -31.8 27.5 -32.3 27.7 -32.6 28.35 -33.15 28.4 -33.2 28.85 -33.55 29.5 -33.95 Q30.15 -34.25 30.45 -34.0 L30.55 -33.95 30.75 -33.9 31.25 -33.75 31.35 -33.7 Q32.0 -33.7 33.05 -34.05 33.3 -34.15 33.45 -34.45 L33.65 -34.7 33.75 -34.6 33.8 -34.5 Q35.25 -34.55 36.6 -33.05 37.55 -32.0 37.95 -30.95 38.45 -29.45 38.2 -28.15 L37.9 -26.95 Q37.6 -26.3 37.05 -25.95 37.0 -26.1 37.15 -26.25 37.15 -26.4 36.9 -26.45 L36.8 -26.45 36.6 -26.4 35.8 -25.9 Q35.55 -25.65 35.45 -25.35 35.4 -25.1 35.85 -24.95 36.35 -24.75 36.35 -24.45 36.35 -24.3 36.45 -23.95 36.5 -23.7 36.5 -23.5 36.35 -22.95 35.7 -22.15 35.35 -21.7 34.55 -20.95 33.85 -20.3 32.85 -19.85 32.5 -19.65 31.45 -19.45 30.45 -19.3 30.2 -19.15 L29.95 -19.2 Q29.9 -19.2 29.95 -19.3 L30.0 -19.4 Q30.3 -19.45 30.55 -19.7 30.75 -19.9 30.8 -20.05 30.85 -20.35 30.45 -20.65 30.05 -20.95 29.3 -21.15 29.25 -21.15 29.2 -21.2 L29.3 -21.1 Q28.5 -21.0 27.75 -20.5 26.9 -19.95 26.5 -19.8 26.25 -19.9 25.95 -20.0 L25.6 -20.15 Q24.45 -20.4 23.1 -19.4 22.45 -18.85 22.1 -18.45 21.9 -17.85 21.1 -17.25 20.0 -16.55 19.55 -16.15 19.0 -15.65 18.45 -14.8 L17.65 -13.55 Q17.5 -13.3 16.95 -12.95 L16.1 -12.4 15.35 -11.85 14.75 -11.25 Q14.4 -10.9 14.25 -10.6 14.15 -10.35 14.0 -9.85 14.0 -9.8 13.6 -9.25 13.2 -8.7 13.2 -8.55 13.15 -8.4 13.35 -8.2 13.5 -8.05 13.6 -8.05 14.3 -7.9 15.15 -8.25 L15.65 -8.4 15.9 -8.65 Q16.65 -9.2 16.65 -9.35 L16.55 -9.5 Q16.45 -9.6 16.5 -9.65 16.55 -10.15 17.2 -10.7 17.9 -11.3 18.65 -11.4 L19.6 -11.5 20.35 -11.5 Q20.7 -11.6 21.15 -11.9 21.25 -11.95 21.45 -12.1 L21.65 -12.3 Q21.85 -12.6 21.9 -12.85 21.95 -13.05 21.85 -13.45 21.7 -13.9 21.4 -13.9 L21.3 -14.05 Q21.25 -14.15 21.25 -14.25 21.35 -14.55 22.25 -15.7 22.55 -16.0 23.35 -16.25 24.1 -16.45 24.35 -16.45 L24.35 -16.4 24.95 -16.6 26.2 -16.85 Q26.65 -16.75 26.75 -16.65 L26.9 -16.45 27.35 -16.4 27.95 -16.25 28.0 -16.2 28.05 -16.2 Q28.25 -15.8 28.25 -15.3 L28.2 -14.4 Q28.15 -13.8 28.25 -13.2 L28.35 -12.6 Q28.3 -12.45 28.0 -12.1 27.75 -11.8 27.65 -11.5 27.6 -11.35 27.3 -11.05 27.0 -10.7 26.7 -10.6 26.5 -10.6 26.55 -10.65 L26.7 -10.8 26.5 -10.95 Q26.4 -11.0 26.45 -11.05 25.6 -11.0 25.0 -10.85 24.2 -10.65 24.05 -10.45 L24.0 -10.5 Q24.1 -10.6 24.3 -10.7 24.5 -10.8 24.8 -10.9 L26.1 -11.2 Q26.55 -11.05 26.6 -11.0 26.6 -10.9 26.8 -10.85 27.45 -11.1 28.15 -12.6 L28.1 -13.4 Q28.05 -14.15 28.05 -14.35 L28.05 -15.15 28.0 -15.15 28.0 -15.75 27.95 -16.1 27.9 -16.2 27.1 -16.35 Q26.6 -16.45 26.45 -16.6 25.75 -16.6 24.95 -16.45 L23.8 -16.2 24.15 -16.35 23.8 -16.25 23.4 -16.15 Q22.6 -15.85 22.3 -15.65 22.15 -15.5 21.75 -14.9 L21.4 -14.3 Q21.35 -14.2 21.4 -14.15 L21.5 -14.0 21.75 -13.9 Q22.15 -13.55 22.0 -12.85 21.95 -12.6 21.7 -12.3 L21.65 -12.2 21.55 -12.05 21.35 -11.7 21.2 -11.75 21.2 -11.8 21.15 -11.75 Q20.9 -11.6 20.25 -11.35 18.85 -11.45 17.85 -10.9 16.9 -10.45 16.7 -9.65 16.7 -9.55 16.75 -9.5 16.85 -9.45 16.8 -9.35 16.75 -9.05 16.15 -8.55 15.6 -8.1 15.25 -7.95 L15.2 -8.0 15.15 -8.0 Q14.4 -7.7 14.1 -7.75 13.5 -7.85 13.25 -8.2 13.05 -8.45 13.05 -8.55 13.1 -8.8 13.5 -9.25 13.9 -9.7 13.95 -9.95 14.0 -10.3 14.15 -10.65 14.35 -11.15 14.65 -11.35 L15.3 -11.95 Q15.75 -12.4 16.05 -12.55 L16.95 -13.05 Q17.35 -13.35 17.55 -13.65 L18.4 -14.95 Q19.0 -15.75 19.5 -16.25 20.55 -17.2 21.05 -17.45 21.35 -17.6 21.7 -18.05 L21.8 -18.2 21.8 -18.25 Q22.35 -19.35 24.0 -20.05 25.65 -20.75 26.2 -20.05 26.9 -20.15 27.65 -20.7 28.35 -21.2 29.05 -21.25 L29.2 -21.2 M0.05 -17.45 L0.05 -17.4 0.0 -17.35 Q-0.05 -17.45 0.0 -17.65 L0.0 -17.9 Q0.1 -18.3 0.1 -18.35 L0.7 -18.85 Q0.75 -18.8 0.9 -18.75 1.1 -18.7 1.3 -19.1 L1.45 -19.45 Q1.55 -20.05 1.35 -20.7 1.1 -21.45 0.4 -22.05 L0.2 -22.15 0.05 -21.95 -0.35 -22.05 Q-0.45 -22.1 -0.55 -22.3 L-0.55 -22.15 -0.75 -22.5 -0.75 -22.6 -0.7 -22.7 Q-0.75 -22.9 -0.75 -22.95 L-0.65 -23.15 -0.6 -23.45 Q-0.55 -23.65 -0.2 -23.95 0.1 -24.2 0.35 -24.3 0.75 -24.5 1.25 -24.45 1.35 -24.45 1.5 -24.65 L1.65 -24.95 1.75 -25.2 1.8 -25.45 1.75 -26.2 Q1.65 -26.9 1.75 -27.2 1.95 -28.25 1.95 -28.9 1.95 -29.15 1.7 -29.75 L1.4 -30.7 Q1.3 -31.15 1.3 -31.6 1.3 -31.85 1.4 -32.4 1.45 -32.55 1.75 -32.85 L2.05 -33.15 Q1.7 -33.65 1.55 -34.3 1.35 -35.05 1.5 -35.7 L1.75 -36.25 Q1.8 -36.5 1.45 -37.5 1.15 -38.45 1.0 -38.7 0.65 -39.3 -0.1 -40.05 L-1.7 -41.4 Q-1.75 -41.35 -1.8 -41.3 L-2.4 -41.4 -2.55 -41.5 -2.6 -41.55 Q-2.65 -41.55 -2.7 -41.55 -2.7 -41.65 -2.8 -41.8 -2.9 -42.05 -3.0 -42.1 -3.75 -42.25 -5.25 -41.0 -6.4 -40.05 -6.9 -39.4 -7.15 -39.05 -7.35 -38.6 -7.6 -38.1 -7.7 -37.75 L-8.1 -36.85 -8.4 -36.15 -8.45 -35.75 -8.45 -35.25 -8.2 -35.25 Q-7.5 -35.1 -7.4 -34.2 -7.3 -33.65 -7.4 -33.25 L-7.45 -32.95 -7.75 -32.6 Q-7.95 -32.65 -8.05 -32.75 L-8.7 -31.75 Q-9.0 -31.25 -9.1 -30.8 -9.35 -29.55 -8.8 -28.0 -8.2 -26.4 -7.3 -26.2 L-7.0 -26.25 Q-6.8 -26.35 -6.6 -26.35 -5.95 -26.15 -5.6 -25.8 -5.4 -25.65 -5.05 -25.2 -4.45 -24.35 -3.1 -24.1 -2.8 -23.65 -2.55 -22.9 -2.35 -22.25 -2.3 -21.8 -2.55 -21.95 -2.8 -22.45 -2.85 -22.35 -3.1 -22.25 -3.5 -22.1 -3.5 -22.0 L-3.55 -21.75 -3.65 -21.4 Q-3.8 -20.55 -3.65 -20.1 -3.5 -19.75 -3.1 -19.5 -2.5 -19.15 -2.35 -19.05 L-2.2 -18.9 -1.95 -18.55 -1.95 -18.6 Q-1.9 -18.5 -1.8 -18.25 -1.5 -17.75 -1.4 -17.5 -1.25 -17.1 -1.25 -16.7 -1.1 -16.15 -1.15 -15.95 -1.15 -15.8 -1.4 -15.35 L-1.65 -14.8 Q-1.8 -14.05 -1.55 -13.5 -1.4 -13.2 -0.9 -12.6 -0.5 -12.05 -0.3 -11.55 -0.25 -11.3 -0.2 -11.0 L-0.2 -9.9 Q-0.25 -9.5 -0.15 -9.25 -0.05 -9.0 -0.1 -8.8 L-0.1 -8.75 Q-0.05 -8.5 -0.1 -8.3 -0.2 -7.95 -0.45 -7.7 -0.7 -7.45 -0.7 -7.35 -0.75 -7.05 -0.35 -6.6 0.05 -6.2 0.0 -5.75 0.0 -5.45 0.1 -4.95 0.2 -4.4 0.45 -4.15 L0.4 -4.15 0.55 -4.0 Q0.7 -3.7 0.7 -3.5 L0.45 -3.2 Q0.2 -2.9 0.2 -2.8 0.1 -2.4 0.3 -2.0 0.7 -1.3 1.95 -1.3 L2.0 -1.25 1.95 -1.2 2.45 -1.3 3.25 -1.45 4.25 -1.55 4.75 -1.5 5.6 -1.35 Q5.85 -1.25 6.8 -1.6 7.8 -1.9 8.6 -1.75 9.1 -1.6 9.25 -1.4 9.3 -1.3 9.25 -1.1 L9.3 -1.15 Q9.7 -1.4 10.05 -1.55 L10.9 -1.8 Q11.55 -1.95 11.8 -2.05 12.2 -2.3 12.65 -2.95 13.15 -3.75 13.35 -3.95 13.9 -4.4 14.5 -4.65 14.85 -4.85 15.7 -5.15 16.2 -5.5 16.8 -6.0 L17.0 -6.15 16.9 -6.1 Q17.65 -6.75 18.25 -7.15 19.15 -7.75 20.15 -8.1 20.65 -8.2 21.2 -8.45 L22.15 -8.85 Q22.4 -8.95 22.9 -9.35 23.25 -9.65 23.4 -9.8 L23.45 -10.05 23.3 -10.1 Q23.25 -10.2 23.2 -10.25 23.4 -10.45 23.85 -10.7 24.35 -10.95 24.5 -10.85 L24.25 -10.75 24.0 -10.6 Q23.6 -10.45 23.45 -10.3 L23.55 -10.1 23.6 -9.9 23.55 -9.75 Q23.5 -9.55 23.15 -9.15 L23.0 -9.05 22.35 -8.5 Q21.2 -7.6 20.7 -7.7 20.8 -7.85 21.1 -8.1 L21.1 -8.15 Q20.75 -8.0 20.5 -7.95 19.7 -7.8 18.55 -7.1 L17.85 -6.65 16.85 -5.75 Q16.3 -5.3 15.85 -5.1 15.5 -4.9 15.05 -4.8 L15.15 -4.85 14.45 -4.55 Q13.75 -4.2 13.4 -3.75 L12.7 -2.85 Q12.25 -2.25 11.95 -1.95 L11.05 -1.7 10.1 -1.4 9.5 -1.0 Q9.1 -0.8 8.85 -0.7 L8.65 -0.6 Q8.0 -0.3 7.8 -0.25 L7.75 -0.2 Q7.75 -0.25 7.75 -0.35 7.75 -0.4 8.4 -0.7 9.0 -1.05 9.05 -1.25 L8.95 -1.45 8.6 -1.55 7.8 -1.6 7.4 -1.55 6.9 -1.4 6.4 -1.2 5.85 -1.1 Q5.75 -1.1 5.55 -1.2 L5.25 -1.35 Q4.6 -1.5 3.3 -1.3 L1.8 -1.05 1.7 -1.1 1.75 -1.15 1.5 -1.15 0.7 -1.35 Q0.25 -1.7 0.1 -2.15 0.0 -2.5 0.05 -2.8 0.1 -3.0 0.2 -3.2 0.35 -3.45 0.45 -3.45 L0.5 -3.5 Q0.55 -3.65 0.3 -4.05 L0.0 -4.5 0.05 -4.55 0.0 -4.8 -0.05 -5.65 Q-0.25 -6.75 -1.05 -6.95 -1.0 -7.2 -0.65 -7.55 -0.3 -7.95 -0.25 -8.3 L-0.25 -8.95 Q-0.4 -9.3 -0.4 -9.7 -0.45 -10.15 -0.4 -10.5 L-0.4 -10.9 Q-0.4 -11.45 -1.05 -12.25 -1.75 -13.1 -1.75 -13.5 -1.85 -14.05 -1.7 -14.75 L-1.55 -15.55 -1.6 -15.55 Q-1.35 -16.2 -1.55 -17.2 L-1.8 -17.9 -2.3 -18.8 Q-3.7 -19.55 -3.95 -20.3 -4.0 -20.55 -3.95 -20.9 L-3.8 -21.45 -3.7 -21.95 Q-3.65 -22.25 -3.55 -22.35 L-3.05 -22.7 -2.9 -22.8 Q-3.15 -23.5 -3.35 -23.8 -4.75 -24.2 -5.2 -24.85 L-5.55 -25.4 Q-5.8 -25.75 -6.25 -26.05 L-6.8 -26.1 Q-7.05 -26.15 -7.1 -25.95 -7.15 -25.75 -7.2 -25.75 L-7.35 -25.8 Q-8.75 -26.85 -9.3 -28.15 -9.7 -29.2 -9.55 -30.1 -9.3 -31.25 -9.15 -31.55 -9.0 -31.8 -8.4 -32.45 L-8.15 -32.75 Q-7.95 -32.95 -7.9 -32.85 L-7.85 -32.75 Q-7.7 -32.7 -7.55 -32.95 L-7.45 -33.25 Q-7.4 -33.65 -7.45 -34.15 -7.6 -34.95 -8.2 -35.1 L-8.5 -35.15 Q-8.55 -35.3 -8.55 -35.7 L-8.5 -36.15 Q-8.45 -36.45 -7.75 -37.85 -7.1 -39.3 -6.9 -39.5 -5.95 -40.6 -5.4 -41.05 -4.4 -41.85 -3.1 -42.25 -2.7 -42.05 -2.6 -41.8 L-2.45 -41.7 -2.3 -41.5 -1.8 -41.5 Q-1.7 -41.55 -1.65 -41.55 -1.55 -41.5 -0.8 -40.9 L0.15 -40.1 Q0.45 -39.85 0.8 -39.4 L1.25 -38.65 Q1.4 -38.45 1.7 -37.45 2.0 -36.4 1.95 -36.1 1.9 -36.0 1.85 -36.0 1.75 -36.0 1.7 -35.9 L1.65 -35.65 Q1.55 -35.1 1.75 -34.35 1.9 -33.7 2.25 -33.2 L2.45 -33.0 2.2 -33.0 2.15 -33.05 2.1 -33.05 Q1.75 -32.9 1.6 -32.55 1.5 -32.35 1.4 -31.9 1.3 -31.3 1.65 -30.35 2.05 -29.35 2.0 -28.6 L1.8 -27.0 1.9 -26.3 Q1.95 -25.65 1.95 -25.45 1.9 -25.2 1.6 -24.7 L1.25 -24.15 1.2 -24.25 Q1.15 -24.3 1.05 -24.35 0.85 -24.35 0.4 -24.15 0.05 -24.0 -0.15 -23.8 -0.35 -23.65 -0.4 -23.4 L-0.5 -23.0 -0.55 -22.75 -0.55 -22.7 Q-0.45 -22.4 -0.25 -22.2 L0.0 -22.15 0.1 -22.3 Q0.2 -22.4 0.25 -22.4 0.55 -22.35 0.95 -21.75 1.35 -21.2 1.45 -20.8 L1.55 -20.15 Q1.55 -19.65 1.5 -19.45 1.5 -19.3 1.35 -19.05 L1.05 -18.65 0.95 -18.65 0.85 -18.75 0.65 -18.75 Q0.3 -18.5 0.15 -18.15 0.05 -17.9 0.05 -17.45 M24.85 -28.15 Q24.35 -28.25 23.9 -27.5 L23.7 -27.15 Q23.6 -26.95 23.55 -26.7 23.45 -26.15 23.45 -25.9 23.45 -25.45 23.7 -25.25 23.85 -25.1 23.85 -24.9 L23.8 -24.45 Q24.3 -25.05 25.0 -25.65 25.45 -26.1 25.6 -26.8 25.6 -27.0 25.55 -28.3 L25.25 -28.15 24.85 -28.15 M25.65 -28.45 Q25.75 -28.25 25.75 -27.6 25.75 -27.05 25.7 -26.7 25.5 -25.85 25.05 -25.4 24.25 -24.75 23.55 -24.0 L23.5 -24.0 Q23.7 -24.35 23.75 -24.65 23.85 -24.9 23.7 -25.05 L23.45 -25.25 Q23.05 -25.55 23.2 -26.25 23.3 -26.7 23.4 -26.9 L23.8 -27.65 Q24.1 -28.1 24.55 -28.25 L25.45 -28.5 25.65 -28.45 M23.25 -26.0 L23.2 -25.75 Q23.2 -25.7 23.25 -25.65 23.2 -25.8 23.25 -26.05 L23.25 -26.0 M13.8 -27.75 L13.8 -27.65 14.2 -27.55 Q14.55 -27.0 14.55 -26.5 14.55 -26.2 14.35 -25.65 14.7 -25.7 14.9 -26.05 15.05 -26.25 15.2 -26.65 L15.4 -27.2 15.6 -27.7 15.55 -27.9 Q15.2 -28.0 15.15 -28.4 L15.0 -29.0 14.55 -29.1 Q14.35 -29.05 14.05 -28.55 13.8 -28.1 13.8 -27.95 L13.8 -27.75 M13.9 -28.45 L14.15 -28.85 14.25 -29.05 Q14.3 -29.2 14.5 -29.25 14.55 -29.25 14.8 -29.2 L15.2 -29.1 15.2 -29.05 Q15.45 -28.25 15.65 -27.95 L15.65 -27.9 Q15.75 -27.9 15.65 -27.9 15.7 -27.75 15.7 -27.7 L15.5 -27.15 15.3 -26.65 Q15.2 -26.05 14.95 -25.75 14.7 -25.45 14.2 -25.4 14.1 -25.5 14.1 -25.55 L14.15 -25.75 Q14.15 -25.85 14.3 -26.05 14.45 -26.25 14.45 -26.35 L14.35 -26.85 Q14.2 -27.3 14.2 -27.4 L13.7 -27.55 13.65 -27.75 13.65 -28.0 Q13.7 -28.15 13.9 -28.45 M5.1 -16.25 Q4.75 -16.15 4.4 -15.8 4.0 -15.5 3.95 -15.15 L4.0 -15.15 4.1 -15.2 4.25 -15.2 4.5 -15.15 4.5 -15.1 4.55 -15.05 Q4.6 -14.95 4.6 -14.9 4.55 -14.85 4.4 -14.75 4.2 -14.7 4.1 -14.6 4.0 -14.5 3.95 -14.2 3.9 -13.85 3.9 -13.7 L4.15 -13.05 4.1 -13.0 4.05 -13.1 Q4.2 -12.65 4.55 -12.5 L4.6 -12.7 Q5.25 -12.65 5.65 -13.3 5.9 -13.7 6.0 -14.15 6.05 -14.25 5.85 -14.8 L5.7 -14.85 Q5.65 -15.0 5.65 -15.5 5.55 -15.9 5.2 -15.9 L5.15 -16.05 5.25 -16.1 Q5.1 -16.2 5.1 -16.25 M1.05 -13.8 L1.05 -13.8 M24.4 -13.85 L24.4 -13.8 25.45 -13.85 Q25.75 -13.9 26.1 -14.1 L26.2 -13.95 26.2 -13.7 Q26.15 -13.55 25.85 -12.95 L25.85 -12.9 Q26.6 -13.55 26.7 -13.95 26.75 -14.2 26.65 -14.4 L25.8 -14.6 25.7 -14.55 Q25.25 -14.55 24.9 -14.3 L24.4 -13.85 M24.3 -13.45 L24.35 -13.65 24.3 -13.7 24.3 -13.75 24.25 -13.6 24.2 -13.6 Q24.5 -14.3 25.25 -14.6 26.05 -14.9 26.7 -14.5 26.8 -14.15 26.8 -13.95 26.75 -13.7 26.3 -13.2 25.9 -12.7 25.75 -12.7 25.75 -12.95 26.0 -13.45 L26.05 -13.85 25.2 -13.7 Q24.55 -13.55 24.3 -13.45 M-1.3 -37.8 L-1.45 -37.95 -1.75 -38.3 -2.1 -38.65 Q-2.65 -38.85 -2.95 -38.8 L-3.65 -38.65 -3.75 -38.65 Q-3.7 -38.55 -3.5 -37.9 -3.3 -37.4 -3.0 -37.15 L-2.75 -37.15 Q-2.6 -37.4 -2.55 -37.55 L-2.5 -37.55 -2.35 -37.5 -1.95 -36.95 Q-1.6 -36.6 -0.95 -36.45 L-0.9 -36.45 Q-0.8 -36.45 -0.8 -36.5 -0.8 -36.55 -1.0 -36.8 -1.15 -37.05 -1.2 -37.25 L-1.15 -37.4 -1.15 -37.6 Q-1.2 -37.7 -1.3 -37.8 M-2.5 -37.1 Q-2.55 -37.0 -2.7 -36.95 L-3.1 -37.05 -3.45 -37.45 Q-3.6 -37.65 -3.65 -37.8 -3.65 -37.95 -3.85 -38.2 L-4.0 -38.5 Q-3.95 -38.7 -3.5 -38.85 -3.0 -38.95 -2.35 -38.85 -1.55 -38.65 -1.1 -37.6 L-0.65 -36.3 -0.65 -36.2 -0.8 -36.2 Q-1.55 -36.35 -2.0 -36.75 L-2.45 -37.35 -2.5 -37.1 M-4.9 -38.55 Q-4.8 -38.4 -4.85 -37.8 L-4.95 -37.15 Q-5.0 -36.95 -5.3 -36.55 -5.55 -36.15 -5.7 -36.15 -5.8 -36.2 -5.85 -36.5 L-5.95 -36.75 Q-5.9 -37.05 -5.45 -37.75 L-4.9 -38.55 M-5.45 -37.6 Q-5.8 -36.95 -5.85 -36.8 L-5.85 -36.55 -5.75 -36.35 Q-5.6 -36.4 -5.35 -36.7 -5.1 -37.0 -5.05 -37.2 -4.85 -38.15 -4.95 -38.3 L-5.45 -37.6 M-5.5 -19.85 L-4.85 -19.7 Q-4.6 -19.6 -4.45 -19.4 L-4.2 -19.1 -4.0 -18.8 -3.85 -18.25 Q-3.75 -17.95 -3.75 -17.75 -3.9 -17.05 -4.15 -16.65 -4.45 -16.2 -5.15 -15.7 -5.3 -15.75 -5.3 -15.85 L-5.4 -16.0 -5.6 -16.15 -5.8 -16.15 Q-6.2 -16.05 -6.55 -15.65 -6.9 -15.25 -7.0 -14.95 -7.05 -14.55 -7.05 -14.5 -7.0 -14.2 -6.75 -13.8 L-6.7 -13.75 -6.7 -13.7 -6.8 -13.75 Q-6.9 -13.75 -7.2 -14.1 -7.45 -14.4 -7.45 -14.5 -7.45 -14.75 -7.4 -15.1 -7.35 -15.4 -7.15 -15.75 -7.0 -16.1 -6.8 -16.35 -6.55 -16.65 -6.1 -16.85 L-5.25 -17.15 -5.3 -16.75 Q-5.35 -16.5 -5.25 -16.3 L-5.0 -16.3 Q-4.55 -16.4 -4.4 -16.6 -4.35 -16.7 -4.25 -17.05 L-4.25 -17.2 -4.3 -17.35 -4.3 -17.5 -4.25 -17.5 -4.25 -17.4 -4.3 -17.65 Q-4.45 -18.0 -4.55 -18.3 -4.7 -18.55 -5.05 -19.35 L-5.35 -19.6 -5.45 -19.65 -5.7 -19.65 -5.9 -19.7 Q-5.7 -19.85 -5.5 -19.8 L-5.5 -19.85 M-4.6 -18.65 Q-4.5 -18.55 -4.5 -18.4 L-4.25 -17.7 Q-4.0 -17.05 -4.25 -16.75 L-4.25 -16.7 Q-4.05 -17.05 -3.95 -17.4 -3.85 -18.0 -4.0 -18.55 -4.25 -19.35 -5.2 -19.6 -4.95 -19.35 -4.7 -18.85 -4.7 -18.8 -4.6 -18.65 M-5.45 -16.65 L-5.45 -16.95 Q-6.25 -16.8 -6.75 -16.2 -7.15 -15.7 -7.25 -15.1 L-7.3 -14.8 Q-7.3 -14.55 -7.15 -14.4 L-7.15 -14.35 Q-7.2 -14.95 -6.85 -15.45 -6.45 -16.05 -5.6 -16.25 L-5.35 -16.1 -5.15 -15.85 Q-4.9 -16.0 -4.7 -16.25 L-4.8 -16.2 -5.1 -16.15 -5.35 -16.25 Q-5.45 -16.4 -5.45 -16.65 M-3.55 -11.5 L-3.5 -11.5 Q-3.35 -11.3 -3.3 -11.1 -3.3 -11.0 -3.35 -10.65 -3.4 -10.4 -3.6 -10.2 L-3.9 -9.9 -4.0 -9.85 -3.7 -9.8 -3.1 -10.1 Q-2.8 -10.25 -2.75 -10.5 -2.75 -10.6 -2.95 -11.1 -3.15 -11.55 -3.3 -11.7 L-3.4 -11.65 -3.55 -11.65 -3.65 -11.65 -3.45 -11.8 Q-3.3 -11.9 -3.2 -11.9 L-2.9 -11.25 Q-2.65 -10.65 -2.7 -10.45 -2.75 -10.25 -3.05 -10.0 -3.45 -9.65 -3.75 -9.7 L-4.3 -9.85 -3.8 -10.2 Q-3.5 -10.45 -3.45 -10.65 -3.4 -10.8 -3.5 -11.1 L-3.55 -11.5 M-6.2 -9.9 Q-6.15 -9.85 -6.0 -9.8 L-5.8 -9.7 -5.8 -9.75 -5.85 -9.9 -5.8 -9.85 -6.2 -10.4 Q-7.45 -10.45 -7.7 -9.3 -7.75 -9.15 -7.55 -8.8 -7.4 -8.5 -7.2 -8.3 -7.25 -8.4 -7.3 -8.85 L-7.3 -9.3 Q-7.2 -9.7 -6.85 -10.05 L-6.65 -10.05 -6.45 -10.1 Q-6.25 -10.05 -6.2 -9.9 M-5.85 -10.15 Q-5.8 -9.95 -5.55 -9.85 -5.4 -9.7 -5.25 -9.7 -5.15 -9.7 -5.05 -9.75 L-5.0 -9.8 Q-4.95 -9.85 -4.95 -9.7 -5.0 -9.5 -5.2 -9.45 L-5.45 -9.45 -5.55 -9.5 -5.9 -9.6 -5.8 -9.7 -6.2 -9.7 -6.25 -9.85 -6.35 -9.95 -6.85 -9.95 -7.1 -9.6 Q-7.2 -9.4 -7.25 -9.3 L-7.25 -9.0 Q-7.2 -8.8 -7.25 -8.7 -7.25 -8.55 -6.95 -8.1 L-6.95 -8.05 Q-7.3 -8.05 -7.55 -8.6 -7.8 -9.05 -7.75 -9.35 -7.6 -10.2 -6.8 -10.5 -6.1 -10.7 -5.9 -10.1 L-5.9 -10.15 -5.85 -10.15" fill="#ffd327" fill-rule="evenodd" stroke="none"/>
    <path d="M23.25 -26.0 L23.25 -26.05 Q23.2 -25.8 23.25 -25.65 23.2 -25.7 23.2 -25.75 L23.25 -26.0" fill="#ffff66" fill-rule="evenodd" stroke="none"/>
    <path d="M0.05 -17.45 Q0.0 -17.25 0.1 -16.85 0.2 -16.3 0.25 -16.1 0.5 -15.4 1.05 -14.95 0.95 -14.9 0.8 -14.75 0.6 -14.6 0.6 -14.55 0.55 -14.25 0.9 -13.45 1.2 -12.7 1.45 -12.4 L1.6 -12.4 1.85 -11.85 Q1.9 -11.7 1.95 -11.4 1.95 -11.15 2.0 -11.0 1.8 -10.95 1.7 -10.75 L1.65 -10.45 Q1.55 -10.1 1.75 -9.05 L1.8 -8.65 1.95 -8.45 2.3 -8.0 Q2.5 -7.8 2.85 -7.65 3.35 -7.75 3.55 -8.1 L3.6 -8.2 3.6 -8.15 3.75 -8.35 3.7 -8.5 3.8 -8.75 3.8 -8.85 Q4.0 -9.5 4.55 -10.0 5.2 -10.6 5.3 -11.1 5.3 -11.25 5.25 -11.6 L5.6 -11.8 5.55 -11.8 6.0 -12.65 Q6.25 -13.15 6.3 -13.6 L6.35 -14.1 6.35 -14.6 Q6.5 -15.2 7.0 -15.7 L7.1 -15.75 7.3 -15.9 8.1 -16.65 Q9.05 -17.65 9.15 -18.1 L9.3 -18.45 9.35 -18.75 Q9.35 -18.95 9.2 -19.1 9.6 -20.1 9.65 -20.45 L9.7 -21.15 9.8 -21.85 9.95 -22.45 10.05 -22.5 10.15 -22.8 10.25 -23.05 Q10.3 -23.4 10.15 -24.05 10.0 -24.75 9.7 -25.0 9.25 -24.95 9.2 -25.5 9.2 -25.7 9.3 -26.3 9.4 -26.8 9.8 -27.45 L10.25 -28.1 10.2 -28.3 Q10.15 -28.45 10.15 -28.55 10.35 -29.4 11.8 -30.5 13.4 -31.7 15.1 -31.75 L15.6 -30.95 15.8 -30.9 Q16.45 -30.9 17.0 -31.3 17.5 -31.65 17.6 -32.0 L17.6 -32.35 17.75 -32.8 17.9 -33.3 18.0 -33.6 18.05 -33.9 Q18.05 -34.2 17.95 -34.2 17.75 -34.2 17.55 -34.35 17.45 -34.4 17.4 -34.95 17.3 -35.45 17.35 -35.6 17.5 -36.4 18.8 -37.65 20.15 -38.95 21.15 -38.95 L21.25 -38.55 21.45 -38.5 22.0 -38.85 Q22.1 -39.0 22.15 -39.25 22.2 -39.4 22.1 -39.7 22.0 -39.95 22.05 -40.0 22.15 -40.55 23.05 -41.35 23.8 -41.95 24.6 -42.35 25.0 -42.55 25.7 -42.7 26.35 -42.8 26.5 -42.9 26.8 -43.05 27.25 -43.45 L27.85 -43.95 27.85 -43.85 Q27.85 -43.8 27.95 -43.75 L28.0 -43.65 Q28.5 -43.85 28.6 -43.55 L28.6 -43.15 28.65 -42.8 28.65 -42.4 Q28.45 -41.85 28.8 -41.6 29.3 -41.35 29.55 -41.1 30.0 -40.6 30.15 -39.6 30.3 -38.65 30.15 -38.0 L30.0 -37.35 29.95 -37.3 29.8 -36.95 29.45 -36.7 29.05 -36.45 Q28.45 -35.7 28.1 -35.1 27.8 -34.6 27.4 -33.8 26.85 -32.75 26.8 -32.25 26.7 -32.1 26.7 -31.9 26.65 -31.55 26.9 -31.45 L26.95 -31.45 Q26.9 -31.3 26.95 -31.3 27.3 -31.55 27.6 -31.95 L28.05 -32.65 Q28.75 -33.55 30.3 -33.9 30.4 -33.85 30.5 -33.7 30.6 -33.5 30.7 -33.45 30.9 -33.45 30.8 -33.5 L30.85 -33.55 Q31.0 -33.45 31.15 -33.4 31.3 -33.4 31.35 -33.4 L31.5 -33.55 Q32.15 -33.55 32.75 -33.75 33.65 -34.0 33.65 -34.4 33.7 -34.4 34.45 -34.2 L35.2 -34.0 35.25 -33.95 Q37.15 -32.65 37.8 -30.9 38.25 -29.6 38.0 -28.2 L37.8 -27.35 Q37.6 -26.8 37.35 -26.55 L36.4 -26.6 35.85 -26.25 35.55 -25.85 Q35.35 -25.5 35.3 -25.4 L35.3 -25.15 Q35.3 -25.1 35.35 -25.0 35.45 -24.9 35.75 -24.8 36.05 -24.7 36.15 -24.55 36.35 -23.8 36.3 -23.65 36.2 -23.25 35.7 -22.55 35.2 -21.85 34.45 -21.2 32.55 -19.55 30.75 -19.7 31.4 -20.85 29.4 -21.25 29.2 -21.3 29.2 -21.2 L29.05 -21.25 Q28.35 -21.2 27.65 -20.7 26.9 -20.15 26.2 -20.05 25.65 -20.75 24.0 -20.05 22.35 -19.35 21.8 -18.25 L21.8 -18.2 21.7 -18.05 Q21.35 -17.6 21.05 -17.45 20.55 -17.2 19.5 -16.25 19.0 -15.75 18.4 -14.95 L17.55 -13.65 Q17.35 -13.35 16.95 -13.05 L16.05 -12.55 Q15.75 -12.4 15.3 -11.95 L14.65 -11.35 Q14.35 -11.15 14.15 -10.65 14.0 -10.3 13.95 -9.95 13.9 -9.7 13.5 -9.25 13.1 -8.8 13.05 -8.55 13.05 -8.45 13.25 -8.2 13.5 -7.85 14.1 -7.75 14.4 -7.7 15.15 -8.0 L15.2 -8.0 15.25 -7.95 Q15.6 -8.1 16.15 -8.55 16.75 -9.05 16.8 -9.35 16.85 -9.45 16.75 -9.5 16.7 -9.55 16.7 -9.65 16.9 -10.45 17.85 -10.9 18.85 -11.45 20.25 -11.35 20.9 -11.6 21.15 -11.75 L21.2 -11.8 21.2 -11.75 21.35 -11.7 21.55 -12.05 21.65 -12.2 21.7 -12.3 Q21.95 -12.6 22.0 -12.85 22.15 -13.55 21.75 -13.9 L21.5 -14.0 21.4 -14.15 Q21.35 -14.2 21.4 -14.3 L21.75 -14.9 Q22.15 -15.5 22.3 -15.65 22.6 -15.85 23.4 -16.15 L23.8 -16.25 23.8 -16.2 24.95 -16.45 Q25.75 -16.6 26.45 -16.6 26.6 -16.45 27.1 -16.35 L27.9 -16.2 27.95 -16.1 28.0 -15.75 28.0 -15.15 28.05 -15.15 28.05 -14.35 Q28.05 -14.15 28.1 -13.4 L28.15 -12.6 Q27.45 -11.1 26.8 -10.85 26.6 -10.9 26.6 -11.0 26.55 -11.05 26.1 -11.2 L24.8 -10.9 Q24.5 -10.8 24.3 -10.7 L24.25 -10.75 24.5 -10.85 Q24.35 -10.95 23.85 -10.7 23.4 -10.45 23.2 -10.25 23.25 -10.2 23.3 -10.1 L23.45 -10.05 23.4 -9.8 Q23.25 -9.65 22.9 -9.35 22.4 -8.95 22.15 -8.85 L21.2 -8.45 Q20.65 -8.2 20.15 -8.1 19.15 -7.75 18.25 -7.15 17.65 -6.75 16.9 -6.1 L16.8 -6.0 Q16.2 -5.5 15.7 -5.15 14.85 -4.85 14.5 -4.65 13.9 -4.4 13.35 -3.95 13.15 -3.75 12.65 -2.95 12.2 -2.3 11.8 -2.05 11.55 -1.95 10.9 -1.8 L10.05 -1.55 Q9.7 -1.4 9.3 -1.15 L9.25 -1.1 Q9.3 -1.3 9.25 -1.4 9.1 -1.6 8.6 -1.75 7.8 -1.9 6.8 -1.6 5.85 -1.25 5.6 -1.35 L4.75 -1.5 4.25 -1.55 3.25 -1.45 2.45 -1.3 1.95 -1.2 2.0 -1.25 1.95 -1.3 Q0.7 -1.3 0.3 -2.0 0.1 -2.4 0.2 -2.8 0.2 -2.9 0.45 -3.2 L0.7 -3.5 Q0.7 -3.7 0.55 -4.0 L0.4 -4.15 0.45 -4.15 Q0.2 -4.4 0.1 -4.95 0.0 -5.45 0.0 -5.75 0.05 -6.2 -0.35 -6.6 -0.75 -7.05 -0.7 -7.35 -0.7 -7.45 -0.45 -7.7 -0.2 -7.95 -0.1 -8.3 -0.05 -8.5 -0.1 -8.75 L-0.1 -8.8 Q-0.05 -9.0 -0.15 -9.25 -0.25 -9.5 -0.2 -9.9 L-0.2 -11.0 Q-0.25 -11.3 -0.3 -11.55 -0.5 -12.05 -0.9 -12.6 -1.4 -13.2 -1.55 -13.5 -1.8 -14.05 -1.65 -14.8 L-1.4 -15.35 Q-1.15 -15.8 -1.15 -15.95 -1.1 -16.15 -1.25 -16.7 -1.25 -17.1 -1.4 -17.5 -1.5 -17.75 -1.8 -18.25 -1.9 -18.5 -1.95 -18.6 L-1.95 -18.55 -2.2 -18.9 -2.35 -19.05 Q-2.5 -19.15 -3.1 -19.5 -3.5 -19.75 -3.65 -20.1 -3.8 -20.55 -3.65 -21.4 L-3.55 -21.75 -3.5 -22.0 Q-3.5 -22.1 -3.1 -22.25 -2.85 -22.35 -2.8 -22.45 -2.55 -21.95 -2.3 -21.8 -2.35 -22.25 -2.55 -22.9 -2.8 -23.65 -3.1 -24.1 -4.45 -24.35 -5.05 -25.2 -5.4 -25.65 -5.6 -25.8 -5.95 -26.15 -6.6 -26.35 -6.8 -26.35 -7.0 -26.25 L-7.3 -26.2 Q-8.2 -26.4 -8.8 -28.0 -9.35 -29.55 -9.1 -30.8 -9.0 -31.25 -8.7 -31.75 L-8.05 -32.75 Q-7.95 -32.65 -7.75 -32.6 L-7.45 -32.95 -7.4 -33.25 Q-7.3 -33.65 -7.4 -34.2 -7.5 -35.1 -8.2 -35.25 L-8.45 -35.25 -8.45 -35.75 -8.4 -36.15 -8.1 -36.85 -7.7 -37.75 Q-7.6 -38.1 -7.35 -38.6 -7.15 -39.05 -6.9 -39.4 -6.4 -40.05 -5.25 -41.0 -3.75 -42.25 -3.0 -42.1 -2.9 -42.05 -2.8 -41.8 -2.7 -41.65 -2.7 -41.55 -2.65 -41.55 -2.6 -41.55 L-2.55 -41.5 -2.4 -41.4 -1.8 -41.3 Q-1.75 -41.35 -1.7 -41.4 L-0.1 -40.05 Q0.65 -39.3 1.0 -38.7 1.15 -38.45 1.45 -37.5 1.8 -36.5 1.75 -36.25 L1.5 -35.7 Q1.35 -35.05 1.55 -34.3 1.7 -33.65 2.05 -33.15 L1.75 -32.85 Q1.45 -32.55 1.4 -32.4 1.3 -31.85 1.3 -31.6 1.3 -31.15 1.4 -30.7 L1.7 -29.75 Q1.95 -29.15 1.95 -28.9 1.95 -28.25 1.75 -27.2 1.65 -26.9 1.75 -26.2 L1.8 -25.45 1.75 -25.2 1.65 -24.95 1.5 -24.65 Q1.35 -24.45 1.25 -24.45 0.75 -24.5 0.35 -24.3 0.1 -24.2 -0.2 -23.95 -0.55 -23.65 -0.6 -23.45 L-0.65 -23.15 -0.75 -22.95 Q-0.75 -22.9 -0.7 -22.7 L-0.75 -22.6 -0.75 -22.5 -0.55 -22.15 -0.55 -22.3 Q-0.45 -22.1 -0.35 -22.05 L0.05 -21.95 0.2 -22.15 0.4 -22.05 Q1.1 -21.45 1.35 -20.7 1.55 -20.05 1.45 -19.45 L1.3 -19.1 Q1.1 -18.7 0.9 -18.75 0.75 -18.8 0.7 -18.85 L0.1 -18.35 Q0.1 -18.3 0.0 -17.9 L0.0 -17.65 Q-0.05 -17.45 0.0 -17.35 L0.05 -17.4 0.05 -17.45 M25.65 -28.45 L25.45 -28.5 24.55 -28.25 Q24.1 -28.1 23.8 -27.65 L23.4 -26.9 Q23.3 -26.7 23.2 -26.25 23.05 -25.55 23.45 -25.25 L23.7 -25.05 Q23.85 -24.9 23.75 -24.65 23.7 -24.35 23.5 -24.0 L23.55 -24.0 Q24.25 -24.75 25.05 -25.4 25.5 -25.85 25.7 -26.7 25.75 -27.05 25.75 -27.6 25.75 -28.25 25.65 -28.45 M13.9 -28.45 Q13.7 -28.15 13.65 -28.0 L13.65 -27.75 13.7 -27.55 14.2 -27.4 Q14.2 -27.3 14.35 -26.85 L14.45 -26.35 Q14.45 -26.25 14.3 -26.05 14.15 -25.85 14.15 -25.75 L14.1 -25.55 Q14.1 -25.5 14.2 -25.4 14.7 -25.45 14.95 -25.75 15.2 -26.05 15.3 -26.65 L15.5 -27.15 15.7 -27.7 Q15.7 -27.75 15.65 -27.9 15.75 -27.9 15.65 -27.9 L15.65 -27.95 Q15.45 -28.25 15.2 -29.05 L15.2 -29.1 14.8 -29.2 Q14.55 -29.25 14.5 -29.25 14.3 -29.2 14.25 -29.05 L14.15 -28.85 13.9 -28.45 M5.1 -16.25 Q5.1 -16.2 5.25 -16.1 L5.15 -16.05 5.2 -15.9 Q5.55 -15.9 5.65 -15.5 5.65 -15.0 5.7 -14.85 L5.85 -14.8 Q6.05 -14.25 6.0 -14.15 5.9 -13.7 5.65 -13.3 5.25 -12.65 4.6 -12.7 L4.55 -12.5 Q4.2 -12.65 4.05 -13.1 L4.1 -13.0 4.15 -13.05 3.9 -13.7 Q3.9 -13.85 3.95 -14.2 4.0 -14.5 4.1 -14.6 4.2 -14.7 4.4 -14.75 4.55 -14.85 4.6 -14.9 4.6 -14.95 4.55 -15.05 L4.5 -15.1 4.5 -15.15 4.25 -15.2 4.1 -15.2 4.0 -15.15 3.95 -15.15 Q4.0 -15.5 4.4 -15.8 4.75 -16.15 5.1 -16.25 M24.2 -13.6 L24.3 -13.45 Q24.55 -13.55 25.2 -13.7 L26.05 -13.85 26.0 -13.45 Q25.75 -12.95 25.75 -12.7 25.9 -12.7 26.3 -13.2 26.75 -13.7 26.8 -13.95 26.8 -14.15 26.7 -14.5 26.05 -14.9 25.25 -14.6 24.5 -14.3 24.2 -13.6 M-4.9 -38.55 L-5.45 -37.75 Q-5.9 -37.05 -5.95 -36.75 L-5.85 -36.5 Q-5.8 -36.2 -5.7 -36.15 -5.55 -36.15 -5.3 -36.55 -5.0 -36.95 -4.95 -37.15 L-4.85 -37.8 Q-4.8 -38.4 -4.9 -38.55 M-2.5 -37.1 L-2.45 -37.35 -2.0 -36.75 Q-1.55 -36.35 -0.8 -36.2 L-0.65 -36.2 -0.65 -36.3 -1.1 -37.6 Q-1.55 -38.65 -2.35 -38.85 -3.0 -38.95 -3.5 -38.85 -3.95 -38.7 -4.0 -38.5 L-3.85 -38.2 Q-3.65 -37.95 -3.65 -37.8 -3.6 -37.65 -3.45 -37.45 L-3.1 -37.05 -2.7 -36.95 Q-2.55 -37.0 -2.5 -37.1 M-3.55 -11.65 L-3.4 -11.65 -3.3 -11.7 Q-3.15 -11.55 -2.95 -11.1 -2.75 -10.6 -2.75 -10.5 -2.8 -10.25 -3.1 -10.1 L-3.7 -9.8 -4.0 -9.85 -3.9 -9.9 -3.6 -10.2 Q-3.4 -10.4 -3.35 -10.65 -3.3 -11.0 -3.3 -11.1 -3.35 -11.3 -3.5 -11.5 L-3.55 -11.5 -3.6 -11.55 -3.6 -11.6 -3.55 -11.65 M-5.45 -16.65 Q-5.45 -16.4 -5.35 -16.25 L-5.1 -16.15 -4.8 -16.2 -4.7 -16.25 Q-4.9 -16.0 -5.15 -15.85 L-5.35 -16.1 -5.6 -16.25 Q-6.45 -16.05 -6.85 -15.45 -7.2 -14.95 -7.15 -14.35 L-7.15 -14.4 Q-7.3 -14.55 -7.3 -14.8 L-7.25 -15.1 Q-7.15 -15.7 -6.75 -16.2 -6.25 -16.8 -5.45 -16.95 L-5.45 -16.65 M-4.6 -18.65 Q-4.7 -18.8 -4.7 -18.85 -4.95 -19.35 -5.2 -19.6 -4.25 -19.35 -4.0 -18.55 -3.85 -18.0 -3.95 -17.4 -4.05 -17.05 -4.25 -16.7 L-4.25 -16.75 Q-4.0 -17.05 -4.25 -17.7 L-4.5 -18.4 Q-4.5 -18.55 -4.6 -18.65 M-6.2 -9.9 Q-6.25 -10.05 -6.45 -10.1 L-6.65 -10.05 -6.85 -10.05 Q-7.2 -9.7 -7.3 -9.3 L-7.3 -8.85 Q-7.25 -8.4 -7.2 -8.3 -7.4 -8.5 -7.55 -8.8 -7.75 -9.15 -7.7 -9.3 -7.45 -10.45 -6.2 -10.4 L-5.8 -9.85 -5.85 -9.9 -5.8 -9.75 -5.8 -9.7 -6.0 -9.8 Q-6.15 -9.85 -6.2 -9.9" fill="#ffdc45" fill-rule="evenodd" stroke="none"/>
    <path d="M26.4 -33.25 L25.75 -32.2 25.05 -31.15 24.4 -30.1 22.95 -27.6 Q22.6 -27.0 22.35 -26.6 22.05 -26.2 21.45 -25.7 20.6 -25.05 19.5 -24.6 L19.35 -24.4 19.25 -24.45 19.2 -24.45 19.2 -24.55 19.3 -24.65 19.6 -25.1 Q19.85 -25.55 20.0 -25.9 20.15 -26.05 20.2 -26.25 L20.3 -27.0 Q20.2 -27.2 20.05 -27.35 L20.05 -27.5 19.9 -27.5 19.65 -27.4 19.25 -26.9 18.8 -26.3 18.65 -25.85 18.5 -25.8 18.4 -25.85 18.3 -25.85 18.1 -25.9 Q17.4 -24.45 16.3 -22.6 L14.0 -18.85 12.85 -17.05 Q12.1 -15.9 11.65 -15.15 10.9 -13.75 10.25 -12.75 9.9 -11.95 9.85 -11.8 9.8 -11.4 9.15 -10.45 L9.0 -10.25 10.55 -11.8 Q11.3 -12.9 12.65 -14.3 13.6 -15.3 15.1 -17.1 15.6 -17.75 16.35 -18.55 L17.7 -19.95 18.35 -20.65 Q18.75 -21.15 19.05 -21.35 19.35 -21.55 20.1 -21.95 20.6 -22.2 21.0 -22.4 L20.8 -21.85 Q20.3 -20.6 20.2 -20.15 19.9 -19.8 19.4 -19.3 L18.95 -18.85 18.6 -18.55 18.05 -17.9 16.8 -16.55 14.2 -13.75 12.8 -12.3 9.4 -8.45 6.2 -4.95 6.2 -4.9 Q6.2 -4.8 6.1 -4.7 L6.0 -4.6 6.0 -4.55 6.1 -4.5 Q6.2 -4.5 6.7 -4.75 L6.8 -4.8 6.95 -5.0 7.05 -5.0 8.7 -6.55 8.15 -5.75 Q8.5 -6.0 8.85 -6.15 9.5 -6.45 10.05 -7.45 L10.55 -8.25 10.5 -8.3 Q10.7 -8.9 11.6 -9.7 L13.05 -11.0 13.9 -11.9 15.05 -13.2 Q16.55 -14.85 17.25 -15.55 L19.1 -17.3 Q19.15 -17.5 20.15 -18.45 L21.35 -19.7 23.65 -22.1 25.9 -24.5 Q26.7 -25.35 27.35 -25.95 L27.6 -26.25 Q28.1 -26.7 28.3 -27.05 L28.3 -27.15 28.1 -27.2 27.45 -26.65 26.9 -26.15 Q26.7 -26.45 26.7 -26.75 L26.8 -27.2 Q26.9 -27.8 27.35 -28.6 27.8 -29.45 28.3 -29.8 29.0 -30.35 29.9 -30.7 30.95 -31.15 31.8 -31.2 L31.85 -31.15 31.9 -31.2 32.0 -31.15 32.0 -31.05 Q31.95 -30.8 31.35 -30.25 L30.65 -29.6 30.65 -29.55 Q30.95 -29.65 31.25 -30.0 L31.8 -30.55 Q32.1 -30.7 32.65 -30.95 33.1 -31.2 33.45 -31.3 33.5 -31.35 33.5 -31.2 L33.5 -31.0 Q33.35 -30.4 33.15 -29.95 32.95 -29.65 32.7 -29.3 32.95 -29.45 33.15 -29.7 L33.65 -30.4 34.15 -31.0 Q34.6 -31.5 34.65 -31.7 34.7 -31.8 34.65 -32.0 L34.6 -32.15 34.5 -32.25 34.6 -32.25 34.6 -32.3 34.65 -32.4 34.75 -32.4 34.8 -32.15 Q35.35 -31.8 35.75 -30.65 36.2 -29.35 36.05 -28.55 35.85 -27.65 35.4 -26.9 35.05 -26.3 34.15 -25.3 33.8 -24.8 32.65 -23.75 L31.95 -23.0 Q31.5 -22.45 31.1 -22.35 L31.05 -22.35 30.65 -22.2 30.35 -22.15 Q30.1 -22.0 29.9 -21.95 29.1 -21.7 28.05 -21.9 27.45 -22.0 26.85 -22.4 26.25 -22.8 26.3 -22.95 26.3 -23.05 26.7 -23.2 27.15 -23.35 27.45 -23.7 L27.9 -24.15 28.35 -24.65 Q28.35 -24.75 28.15 -24.9 L28.05 -24.95 28.0 -24.9 27.9 -24.95 27.65 -24.7 26.7 -23.7 25.8 -22.7 24.9 -21.75 23.0 -19.85 22.0 -19.0 18.35 -15.1 Q15.8 -12.45 15.1 -11.8 L15.1 -11.75 14.25 -10.95 12.6 -9.35 Q9.95 -6.6 9.3 -6.2 L9.3 -6.25 9.25 -6.25 8.9 -5.95 8.3 -5.25 Q7.95 -4.9 7.3 -4.65 7.15 -4.6 6.95 -4.45 6.85 -4.25 6.75 -3.95 6.75 -3.8 6.8 -3.7 L6.85 -3.65 6.85 -3.7 Q7.65 -4.4 8.05 -4.7 7.75 -4.25 7.15 -3.55 L6.85 -3.2 Q6.85 -3.15 6.9 -3.1 6.95 -3.05 7.05 -2.95 7.2 -2.85 7.4 -2.85 L8.25 -2.75 8.65 -3.0 10.15 -3.9 Q10.75 -4.3 11.5 -4.85 L12.65 -5.7 15.3 -7.6 Q16.8 -8.65 17.95 -9.25 L21.15 -11.65 Q22.1 -12.45 22.95 -12.85 L23.55 -13.0 25.15 -13.45 25.75 -13.6 25.2 -12.8 Q24.45 -11.85 24.2 -11.4 L23.55 -10.9 22.4 -10.15 Q22.0 -9.8 21.25 -9.4 L20.1 -8.7 Q18.8 -7.85 17.95 -7.35 17.35 -7.0 15.95 -6.0 14.45 -4.95 13.7 -4.45 13.05 -4.1 11.75 -2.95 10.4 -1.85 9.6 -1.35 L9.55 -1.4 Q9.5 -1.45 9.5 -1.5 L9.45 -1.45 9.1 -1.75 Q8.65 -2.0 7.95 -2.05 L7.9 -2.05 Q6.6 -1.5 5.9 -1.65 5.65 -1.7 5.45 -1.8 L5.35 -1.8 5.35 -1.85 5.05 -2.05 4.65 -2.35 3.5 -2.4 Q3.15 -2.2 2.75 -2.15 L2.0 -2.05 1.45 -2.0 Q1.35 -2.0 1.3 -2.05 L1.1 -2.15 Q0.95 -2.35 1.05 -2.8 1.15 -3.25 1.15 -3.35 L0.85 -4.0 Q0.6 -4.4 0.65 -4.7 L0.75 -5.3 Q0.8 -5.65 0.8 -5.9 L0.75 -6.45 0.7 -6.65 0.65 -6.9 Q0.45 -7.85 0.2 -9.6 L-0.3 -12.25 -0.75 -14.9 -1.9 -20.9 -2.55 -24.7 -2.75 -24.75 -2.8 -24.75 -2.9 -24.8 -2.95 -25.0 Q-3.1 -25.3 -3.35 -26.5 -3.5 -26.7 -3.7 -26.7 -4.1 -26.8 -4.25 -26.25 -4.35 -25.95 -4.25 -25.65 L-4.15 -25.05 -4.1 -25.0 -4.15 -24.85 Q-4.15 -24.8 -4.25 -24.8 -4.4 -24.85 -4.7 -25.2 L-5.05 -25.65 Q-5.25 -25.8 -5.35 -26.15 -5.5 -26.5 -5.6 -26.6 -5.9 -27.05 -6.05 -27.5 -6.25 -27.9 -6.35 -28.4 -6.65 -30.25 -6.35 -31.85 L-5.65 -33.5 -5.5 -33.65 -5.5 -33.6 -5.45 -33.8 -5.35 -33.85 -5.25 -33.15 Q-5.15 -32.6 -4.85 -32.55 -4.75 -32.55 -4.6 -32.75 -4.5 -32.9 -4.5 -33.0 -4.4 -33.4 -4.7 -33.95 -4.95 -34.45 -4.85 -35.15 -4.7 -35.55 -4.65 -36.25 L-4.5 -37.2 -4.4 -37.35 -4.35 -37.5 -4.3 -37.45 -4.3 -37.35 -4.15 -37.2 -4.0 -36.85 -3.7 -36.2 -3.6 -36.05 -3.3 -35.3 -3.0 -34.7 -3.05 -34.55 Q-3.1 -34.0 -2.9 -33.35 L-2.85 -32.95 Q-2.75 -32.6 -2.65 -32.25 -2.35 -31.65 -1.95 -31.55 L-1.6 -31.55 Q-1.5 -31.65 -1.35 -32.0 -1.2 -32.3 -1.15 -32.4 -1.05 -33.0 -1.4 -33.9 -1.85 -34.9 -1.95 -35.4 L-2.2 -35.6 Q-2.25 -35.7 -2.25 -35.75 L-2.0 -35.6 -1.95 -35.6 -1.75 -35.4 Q-1.5 -35.2 -1.25 -35.1 -0.8 -34.7 -0.45 -34.3 L-0.15 -33.8 0.45 -32.5 Q0.65 -32.0 0.9 -31.75 1.35 -30.3 1.25 -28.95 L1.25 -28.85 Q1.3 -28.4 1.2 -28.0 L1.05 -27.1 0.95 -26.45 0.8 -25.75 0.7 -25.55 0.7 -25.5 0.6 -25.2 0.2 -24.5 0.05 -24.2 Q0.0 -24.25 0.1 -24.55 L0.05 -24.55 0.05 -24.7 0.1 -24.75 0.0 -24.75 Q0.15 -25.2 -0.15 -26.0 -0.4 -26.65 -0.85 -27.1 -1.0 -27.2 -1.3 -27.25 L-1.45 -27.2 -1.5 -27.1 Q-1.55 -26.9 -1.5 -26.15 L-1.45 -25.45 Q-1.35 -25.35 -1.4 -25.2 -1.4 -25.0 -1.55 -24.85 -1.45 -24.35 -1.35 -23.8 -1.25 -21.95 -1.05 -21.05 L-0.55 -18.3 0.0 -15.55 0.45 -12.8 Q0.65 -11.1 0.9 -10.1 L1.55 -7.1 1.75 -6.25 Q1.9 -5.85 2.0 -5.6 2.25 -5.1 2.55 -5.0 2.95 -4.95 3.45 -5.55 L3.8 -6.25 Q4.35 -7.45 4.5 -7.8 4.65 -8.25 5.1 -9.15 5.3 -9.7 6.1 -11.4 L7.75 -14.85 7.75 -14.95 8.35 -16.4 8.45 -16.6 8.75 -16.95 Q9.3 -17.55 9.5 -18.4 9.6 -18.85 9.6 -19.05 L9.55 -19.15 9.55 -19.25 Q9.85 -20.0 10.15 -20.6 L10.45 -21.35 11.35 -23.55 11.85 -24.5 Q12.15 -25.1 12.25 -25.5 12.3 -25.75 12.55 -26.05 L13.15 -26.6 13.9 -27.25 13.95 -27.25 14.05 -27.3 14.05 -27.2 14.0 -27.15 14.0 -27.0 Q13.9 -26.45 13.9 -25.75 13.9 -25.45 13.95 -25.2 13.8 -24.8 12.8 -22.8 L12.55 -22.15 12.05 -21.0 11.5 -19.7 Q11.3 -19.15 10.9 -18.3 L10.0 -16.55 9.6 -15.8 Q8.6 -13.3 8.55 -13.05 L7.85 -11.5 6.9 -9.4 6.15 -7.7 6.75 -8.6 8.2 -10.95 8.1 -10.8 8.05 -10.85 8.1 -11.0 9.25 -13.0 9.5 -13.35 9.75 -13.75 9.75 -13.8 10.45 -15.0 11.2 -16.2 11.9 -17.35 13.35 -19.9 13.9 -20.9 14.1 -21.25 Q15.5 -23.5 16.2 -24.6 16.55 -25.15 17.15 -26.35 L17.3 -26.6 17.3 -26.75 Q17.35 -27.0 17.85 -27.65 18.4 -28.6 19.7 -30.65 21.95 -34.15 22.15 -35.15 L22.15 -35.45 22.1 -35.55 22.2 -35.65 Q22.8 -36.15 23.75 -37.25 24.85 -38.4 25.65 -39.45 L25.65 -39.35 25.55 -39.15 25.1 -37.95 24.65 -36.8 24.25 -35.6 Q24.05 -35.0 23.95 -34.6 L23.95 -34.5 23.9 -34.45 23.9 -34.4 23.75 -34.35 23.5 -34.15 Q23.3 -34.0 23.25 -33.75 23.2 -33.7 23.3 -33.6 23.45 -33.5 23.65 -33.45 23.8 -33.4 24.3 -34.15 24.7 -34.8 24.75 -34.95 L24.75 -36.0 Q24.75 -36.1 25.05 -36.55 L25.35 -37.1 25.65 -37.7 Q25.75 -37.85 25.85 -37.95 L25.9 -38.0 25.95 -37.95 26.1 -37.95 26.1 -37.9 Q26.6 -37.6 26.8 -36.4 27.05 -35.15 26.9 -34.4 26.8 -33.9 26.4 -33.25 M22.15 -31.9 Q22.1 -31.85 22.15 -31.5 22.25 -31.1 22.3 -31.0 L22.8 -31.55 Q23.15 -32.0 23.2 -32.2 23.2 -32.35 23.0 -32.45 22.6 -32.7 22.5 -32.75 L22.3 -32.35 22.15 -31.9 M19.25 -20.3 L19.25 -20.25 19.2 -20.1 19.25 -20.1 Q19.3 -20.15 19.25 -20.3 M19.15 -19.75 L19.15 -19.75 M9.5 -1.5 L9.55 -1.55 9.5 -1.55 9.5 -1.5" fill="#ffff66" fill-rule="evenodd" stroke="none"/>
    <path d="M25.95 -37.95 Q26.7 -37.25 26.85 -36.65 26.95 -36.4 26.95 -35.6 27.0 -34.9 26.9 -34.4 26.8 -33.9 26.4 -33.25 L25.75 -32.2 25.05 -31.15 24.4 -30.1 22.95 -27.6 Q22.6 -27.0 22.35 -26.6 22.05 -26.2 21.45 -25.7 20.6 -25.05 19.5 -24.6 L19.35 -24.4 19.25 -24.45 19.2 -24.45 19.2 -24.55 19.3 -24.65 19.6 -25.1 Q19.85 -25.55 20.0 -25.9 20.15 -26.05 20.2 -26.25 L20.3 -27.0 Q20.2 -27.2 20.05 -27.35 L20.05 -27.5 19.9 -27.5 19.65 -27.4 19.25 -26.9 18.8 -26.3 18.65 -25.85 18.5 -25.8 18.4 -25.85 18.3 -25.85 18.1 -25.9 Q17.4 -24.45 16.3 -22.6 L14.0 -18.85 12.95 -17.2 Q12.5 -17.0 11.8 -16.1 10.9 -14.95 10.45 -13.9 L10.3 -13.7 10.25 -13.6 9.45 -12.4 9.3 -12.25 10.05 -13.6 11.35 -15.85 Q12.4 -17.65 12.4 -17.9 L12.35 -18.15 13.35 -19.9 13.9 -20.9 14.1 -21.25 Q15.5 -23.5 16.2 -24.6 16.5 -25.0 16.9 -25.8 17.3 -26.25 17.9 -27.2 L19.55 -30.0 21.05 -32.25 Q22.25 -34.2 22.25 -34.8 L22.2 -35.3 22.55 -35.3 Q23.0 -35.3 24.05 -36.55 L23.9 -36.15 Q23.6 -35.4 23.6 -34.75 23.6 -34.6 23.6 -34.5 L23.65 -34.4 Q23.25 -34.15 22.85 -33.65 L21.95 -32.35 Q21.6 -31.8 21.3 -31.05 L20.8 -29.8 20.85 -29.8 Q21.15 -30.2 21.55 -30.95 L21.65 -31.15 Q21.65 -31.0 21.7 -30.85 21.8 -30.65 22.15 -30.65 22.4 -30.65 22.8 -31.15 23.15 -31.6 23.15 -31.85 L23.1 -32.0 23.2 -32.2 Q23.2 -32.35 23.0 -32.45 L22.6 -32.7 23.1 -33.35 Q23.15 -33.2 23.25 -33.1 23.55 -32.85 24.3 -32.85 25.05 -32.85 25.8 -33.8 L26.3 -34.5 26.35 -34.75 Q26.4 -35.3 26.4 -36.3 26.4 -36.4 26.15 -37.05 25.85 -37.65 25.85 -37.7 L25.85 -37.85 26.0 -37.85 25.95 -37.95 M0.9 -31.75 Q1.35 -30.3 1.25 -28.95 L1.25 -28.85 Q1.3 -28.4 1.2 -28.0 L1.05 -27.1 0.95 -26.45 0.8 -25.75 0.7 -25.55 0.7 -25.5 0.6 -25.2 0.2 -24.5 0.05 -24.2 Q0.0 -24.25 0.1 -24.55 L0.05 -24.55 0.05 -24.7 0.1 -24.75 0.0 -24.75 Q0.15 -25.2 -0.15 -26.0 -0.4 -26.65 -0.85 -27.1 -1.0 -27.2 -1.3 -27.25 L-1.45 -27.2 -1.5 -27.1 Q-1.55 -26.9 -1.5 -26.15 L-1.45 -25.45 Q-1.35 -25.35 -1.4 -25.2 -1.4 -25.0 -1.55 -24.85 -1.45 -24.35 -1.35 -23.8 -1.25 -21.95 -1.05 -21.05 L-0.55 -18.3 0.0 -15.55 0.05 -15.4 -0.45 -17.0 -0.55 -17.0 -0.55 -16.85 -1.0 -18.8 -1.1 -18.8 Q-1.1 -18.9 -1.1 -18.7 -1.1 -16.9 -0.05 -13.55 L0.1 -13.1 Q0.1 -12.8 0.3 -12.25 L0.5 -11.35 Q0.55 -10.8 0.65 -10.45 0.75 -10.25 0.9 -10.05 L0.9 -9.7 Q1.1 -9.3 1.2 -8.7 L1.5 -6.8 1.35 -6.7 Q1.3 -6.75 1.1 -7.25 0.9 -7.75 0.9 -7.85 L0.7 -8.4 0.55 -8.75 0.35 -9.95 0.35 -10.1 0.3 -10.25 Q0.1 -11.15 -0.2 -11.7 L-0.3 -12.25 -0.75 -14.9 -1.9 -20.9 -2.55 -24.7 -2.75 -24.75 -2.8 -24.75 -2.9 -24.8 -2.95 -25.0 Q-3.1 -25.3 -3.35 -26.5 -3.5 -26.7 -3.7 -26.7 -4.1 -26.8 -4.25 -26.25 -4.35 -25.95 -4.25 -25.65 L-4.15 -25.05 -4.1 -25.0 -4.15 -24.85 Q-4.15 -24.8 -4.25 -24.8 -4.4 -24.85 -4.7 -25.2 L-5.05 -25.65 Q-5.25 -25.8 -5.35 -26.15 -5.5 -26.5 -5.6 -26.6 -5.9 -27.05 -6.05 -27.5 -6.25 -27.9 -6.35 -28.4 -6.65 -30.25 -6.35 -31.85 L-6.0 -32.6 -6.05 -32.15 Q-6.05 -31.65 -5.95 -31.2 -5.75 -30.25 -5.1 -30.25 -4.9 -30.15 -4.65 -30.15 -4.3 -30.15 -4.05 -30.35 L-3.95 -29.65 -3.75 -28.85 -3.55 -28.1 -3.5 -28.1 Q-3.4 -28.5 -3.4 -28.85 -3.4 -29.2 -3.6 -30.45 L-3.8 -31.8 Q-3.8 -32.05 -3.95 -32.6 -4.1 -33.1 -4.15 -33.3 -4.15 -33.45 -4.2 -33.7 L-4.35 -34.1 -4.45 -34.15 Q-4.15 -34.35 -3.9 -34.9 -3.6 -35.4 -3.5 -35.75 L-3.3 -35.3 -3.0 -34.7 -3.05 -34.55 -3.05 -34.0 Q-3.0 -33.3 -2.9 -32.6 L-2.85 -32.4 Q-2.4 -29.5 -2.0 -28.5 -1.95 -28.55 -1.95 -28.6 L-1.95 -28.65 Q-1.95 -28.95 -2.2 -30.2 L-2.35 -30.95 -2.0 -30.6 -1.5 -30.6 Q-0.85 -30.55 -0.35 -31.35 0.05 -31.95 0.05 -32.35 0.05 -32.7 -0.1 -33.2 -0.2 -33.65 -0.4 -34.0 -0.6 -34.4 -0.95 -34.8 L-0.45 -34.3 -0.15 -33.8 0.45 -32.5 Q0.65 -32.0 0.9 -31.75 M13.9 -27.25 L13.95 -27.25 14.05 -27.3 14.05 -27.2 14.0 -27.15 14.0 -27.0 Q13.9 -26.45 13.9 -25.75 13.9 -25.45 13.95 -25.2 13.8 -24.8 12.8 -22.8 L12.55 -22.15 12.05 -21.0 11.5 -19.7 Q11.3 -19.15 10.9 -18.3 L10.0 -16.55 9.6 -15.8 Q8.6 -13.3 8.55 -13.05 L7.85 -11.5 6.9 -9.4 6.25 -7.85 6.1 -7.65 5.95 -7.75 5.7 -7.85 5.85 -8.45 6.3 -9.45 Q6.45 -10.0 6.75 -10.65 L6.75 -10.7 6.55 -10.35 6.35 -9.95 Q6.2 -9.65 6.1 -9.65 6.15 -9.8 6.55 -10.65 6.9 -11.45 6.9 -11.6 6.9 -11.7 7.9 -13.9 9.15 -16.6 9.65 -17.8 L10.15 -19.2 Q9.55 -18.05 9.3 -17.3 L9.2 -17.0 9.1 -16.85 8.1 -15.1 Q7.4 -13.95 7.1 -13.35 6.15 -11.4 5.5 -9.9 L4.55 -7.95 Q4.75 -8.4 5.1 -9.15 5.3 -9.7 6.1 -11.4 L7.75 -14.85 7.75 -14.95 8.35 -16.4 8.45 -16.6 8.75 -16.95 Q9.3 -17.55 9.5 -18.4 9.6 -18.85 9.6 -19.05 L9.55 -19.15 9.55 -19.25 Q9.85 -20.0 10.15 -20.6 L10.45 -21.35 11.35 -23.55 11.85 -24.5 Q12.15 -25.1 12.25 -25.5 12.3 -25.75 12.55 -26.05 L13.15 -26.6 13.9 -27.25 M19.2 -20.1 L19.25 -20.1 Q19.3 -20.15 19.25 -20.3 L19.25 -20.25 19.2 -20.1 M18.35 -20.65 Q18.75 -21.15 19.05 -21.35 19.35 -21.55 20.1 -21.95 20.6 -22.2 21.0 -22.4 L20.8 -21.85 Q20.3 -20.6 20.2 -20.15 19.9 -19.8 19.4 -19.3 L18.95 -18.85 18.6 -18.55 18.05 -17.9 16.8 -16.55 14.2 -13.75 12.8 -12.3 10.55 -9.7 Q10.75 -10.15 10.75 -10.45 L10.75 -10.5 Q11.7 -11.4 11.7 -11.75 L11.7 -11.8 12.15 -12.3 Q12.65 -12.9 12.65 -12.95 12.65 -13.6 11.95 -13.0 11.2 -12.45 11.2 -12.05 L11.2 -11.9 Q10.9 -11.7 10.45 -11.3 L9.8 -10.65 9.7 -10.8 9.65 -10.9 10.55 -11.8 Q11.3 -12.9 12.65 -14.3 13.6 -15.3 15.1 -17.1 15.6 -17.75 16.35 -18.55 L17.7 -19.95 18.35 -20.65 M19.05 -19.6 L19.05 -19.6 M22.7 -21.1 L22.9 -21.35 23.65 -22.1 25.9 -24.5 Q26.7 -25.35 27.35 -25.95 L27.6 -26.25 Q28.1 -26.7 28.3 -27.05 L28.3 -27.15 28.1 -27.2 27.45 -26.65 26.9 -26.15 Q26.7 -26.45 26.7 -26.75 L26.8 -27.2 Q26.9 -27.8 27.35 -28.6 27.8 -29.45 28.3 -29.8 29.0 -30.35 29.9 -30.7 L30.25 -30.85 29.95 -30.6 29.35 -29.95 Q29.15 -29.7 29.15 -29.35 29.15 -29.15 29.25 -29.0 29.35 -28.75 29.6 -28.75 30.3 -28.75 31.1 -29.75 L31.65 -30.4 31.8 -30.55 32.1 -30.7 32.2 -30.7 32.4 -30.85 32.65 -30.95 Q33.1 -31.2 33.45 -31.3 33.5 -31.35 33.5 -31.2 L33.5 -31.0 Q33.35 -30.4 33.15 -29.95 L33.0 -29.75 32.35 -29.05 29.6 -26.0 29.7 -26.0 31.6 -27.8 Q31.6 -27.6 31.85 -27.5 L31.95 -27.45 Q32.2 -27.2 33.05 -27.2 34.3 -27.2 35.15 -28.75 35.7 -29.9 35.7 -30.65 L35.7 -30.75 35.75 -30.65 Q36.2 -29.35 36.05 -28.55 35.85 -27.65 35.4 -26.9 35.05 -26.3 34.15 -25.3 33.8 -24.8 32.65 -23.75 L31.95 -23.0 Q31.5 -22.45 31.1 -22.35 L31.05 -22.35 30.65 -22.2 30.35 -22.15 Q30.1 -22.0 29.9 -21.95 29.1 -21.7 28.05 -21.9 27.45 -22.0 26.85 -22.4 26.25 -22.8 26.3 -22.95 26.3 -23.05 26.7 -23.2 27.15 -23.35 27.45 -23.7 L27.9 -24.15 28.35 -24.65 Q28.35 -24.75 28.15 -24.9 L28.05 -24.95 28.0 -24.9 27.9 -24.95 27.65 -24.7 26.7 -23.7 25.8 -22.7 24.9 -21.75 23.0 -19.85 22.0 -19.0 19.25 -16.05 18.25 -15.4 Q17.6 -14.95 16.8 -14.1 15.95 -13.25 15.75 -12.7 15.55 -12.25 15.3 -12.0 L14.75 -11.45 13.9 -10.7 13.15 -10.1 11.55 -8.8 10.85 -8.2 10.85 -8.25 11.5 -8.9 Q12.35 -9.6 13.55 -10.9 L15.15 -12.7 Q16.55 -14.35 16.65 -14.95 L17.4 -15.7 Q18.25 -15.8 19.65 -17.2 20.75 -18.3 21.3 -19.2 L22.7 -21.1 M7.7 -12.7 L7.0 -11.25 7.05 -11.3 7.45 -12.15 7.7 -12.7 M9.35 -13.15 L8.05 -10.9 8.1 -11.0 9.25 -13.0 9.35 -13.15 M13.9 -14.25 L13.75 -14.25 Q13.65 -14.25 13.3 -13.9 13.0 -13.6 13.0 -13.45 13.0 -13.35 13.0 -13.25 L13.05 -13.1 13.65 -13.5 Q14.0 -13.8 14.0 -14.05 L14.0 -14.2 13.9 -14.25 M5.8 -5.35 Q6.0 -5.35 6.1 -5.4 6.25 -5.45 6.4 -5.6 L6.55 -5.8 7.4 -6.55 Q7.95 -7.0 8.3 -7.25 L6.2 -4.95 6.2 -4.9 Q6.2 -4.8 6.1 -4.7 L6.0 -4.6 6.0 -4.55 6.1 -4.5 Q6.2 -4.5 6.7 -4.75 L6.8 -4.8 6.95 -5.0 7.05 -5.0 8.4 -6.3 8.4 -6.15 8.15 -5.75 8.5 -5.95 Q8.6 -5.85 8.8 -5.8 L8.3 -5.25 Q7.95 -4.9 7.3 -4.65 7.15 -4.6 6.95 -4.45 6.85 -4.25 6.75 -3.95 6.75 -3.8 6.8 -3.7 L6.85 -3.65 6.85 -3.7 Q7.65 -4.4 8.05 -4.7 7.75 -4.25 7.15 -3.55 L6.85 -3.2 Q6.85 -3.15 6.9 -3.1 6.95 -3.05 7.05 -2.95 7.2 -2.85 7.4 -2.85 L8.25 -2.75 8.65 -3.0 10.15 -3.9 Q10.75 -4.3 11.5 -4.85 L12.65 -5.7 15.3 -7.6 Q16.8 -8.65 17.95 -9.25 L21.15 -11.65 Q22.1 -12.45 22.95 -12.85 L23.55 -13.0 25.15 -13.45 25.75 -13.6 25.2 -12.8 Q24.45 -11.85 24.2 -11.4 L23.55 -10.9 22.4 -10.15 Q22.0 -9.8 21.25 -9.4 L20.1 -8.7 Q18.8 -7.85 17.95 -7.35 17.35 -7.0 15.95 -6.0 14.45 -4.95 13.7 -4.45 L13.35 -4.25 13.25 -4.3 13.6 -4.55 13.65 -4.55 14.1 -4.95 14.2 -5.1 14.3 -5.15 Q14.6 -5.45 14.6 -5.65 14.6 -5.75 14.55 -5.85 L14.3 -6.1 Q13.85 -6.1 12.65 -5.25 L10.55 -3.7 Q10.1 -3.45 8.35 -2.5 L7.7 -2.15 Q7.55 -2.2 7.25 -2.35 6.95 -2.5 6.5 -2.55 L6.25 -2.7 6.0 -2.75 Q5.9 -3.4 5.25 -3.6 L4.75 -3.6 4.75 -3.65 4.9 -3.95 Q5.15 -4.25 5.5 -4.8 L5.25 -4.6 5.0 -4.5 5.05 -4.65 Q5.3 -4.7 5.8 -5.35 M-5.45 -33.8 L-5.35 -33.85 -5.35 -33.8 Q-5.45 -33.8 -5.5 -33.65 L-5.45 -33.8 M-0.55 -32.85 L-0.5 -32.5 Q-0.5 -32.4 -0.6 -32.25 L-0.55 -32.85" fill="#ffffff" fill-opacity="0.9019608" fill-rule="evenodd" stroke="none"/>
    <path d="M23.7 -19.5 Q23.45 -19.4 23.25 -19.2 22.9 -18.9 22.9 -18.7 L23.0 -18.5 Q23.15 -18.25 23.4 -18.25 23.65 -18.25 24.4 -18.8 25.15 -19.3 25.15 -19.4 25.6 -19.55 26.25 -20.05 27.2 -20.7 27.2 -20.95 27.2 -21.05 27.1 -21.15 L27.05 -21.25 Q27.6 -21.4 27.95 -21.75 28.3 -22.05 28.3 -22.4 28.3 -22.7 28.1 -22.9 L28.45 -23.0 29.3 -22.6 Q29.75 -22.4 30.1 -22.05 30.25 -21.9 30.8 -21.55 L30.8 -21.45 30.75 -21.4 Q30.9 -21.0 30.7 -20.3 30.55 -19.6 30.5 -19.3 29.75 -19.2 29.2 -18.5 28.8 -17.9 28.8 -17.5 28.8 -17.15 29.15 -17.0 L29.45 -17.0 29.55 -17.1 29.75 -16.9 29.8 -16.75 Q29.8 -16.3 29.25 -15.95 28.65 -15.5 28.5 -15.05 28.0 -14.9 27.15 -14.45 L26.85 -14.7 Q26.55 -14.95 26.15 -14.95 25.95 -14.95 25.6 -14.8 25.15 -14.6 25.15 -14.4 25.15 -14.25 25.2 -14.05 L25.3 -13.75 25.5 -13.75 Q25.65 -13.7 25.65 -13.55 25.65 -13.35 24.9 -12.65 24.1 -11.9 23.65 -12.05 L23.7 -12.1 23.9 -12.25 24.35 -12.4 Q24.6 -12.7 24.6 -12.9 L24.55 -13.05 24.55 -13.1 24.3 -13.25 24.35 -13.3 Q24.3 -13.75 24.5 -14.1 24.65 -14.2 24.85 -14.4 L25.0 -14.65 Q25.25 -14.95 25.25 -15.2 L25.25 -15.3 Q25.5 -15.35 25.75 -15.65 26.2 -16.05 26.2 -16.5 26.2 -16.85 26.05 -17.1 25.8 -17.65 25.15 -17.65 24.8 -17.65 24.4 -17.45 L24.15 -17.35 23.95 -17.25 23.55 -17.35 23.15 -17.4 22.9 -17.35 22.8 -17.3 22.55 -17.1 Q22.45 -16.9 22.35 -16.9 L21.75 -16.7 22.05 -17.05 Q22.25 -17.25 22.25 -17.4 L22.35 -17.8 22.35 -18.5 22.4 -18.65 Q22.4 -18.8 22.35 -18.85 L22.2 -18.85 Q22.0 -19.3 21.2 -19.55 20.3 -19.85 19.8 -19.65 18.75 -19.4 18.25 -19.05 18.05 -18.9 17.8 -18.45 17.65 -18.15 17.3 -17.95 L16.6 -17.6 16.65 -17.6 16.7 -17.65 16.7 -17.75 16.65 -17.95 16.6 -18.05 16.4 -18.05 Q16.0 -17.85 15.4 -17.35 14.95 -16.95 14.8 -16.7 L14.55 -16.35 14.1 -15.85 Q13.3 -15.9 12.7 -15.4 12.15 -14.95 12.15 -14.45 12.15 -14.35 12.25 -14.25 12.3 -14.15 12.3 -14.1 12.3 -14.0 11.9 -13.35 11.5 -12.7 11.35 -12.55 L11.0 -12.2 Q10.9 -12.1 10.9 -11.95 L10.85 -11.75 Q10.8 -11.55 10.45 -11.35 10.4 -11.3 10.0 -11.1 10.25 -11.65 10.85 -12.55 11.2 -13.0 11.2 -13.65 L11.2 -13.95 Q11.15 -14.2 10.95 -14.2 11.1 -14.7 11.1 -15.35 11.1 -15.85 10.9 -16.35 L10.7 -16.75 Q10.65 -17.0 10.35 -17.25 10.05 -17.45 9.8 -17.35 9.95 -17.55 10.2 -18.1 L10.55 -18.4 10.95 -18.65 11.6 -18.65 11.85 -18.35 Q12.0 -18.15 12.25 -18.15 L12.4 -18.2 12.45 -18.2 12.45 -18.25 Q12.75 -18.3 13.2 -18.65 L13.6 -18.9 14.15 -19.35 14.45 -19.55 Q14.6 -19.65 14.75 -19.7 L15.2 -19.8 15.45 -19.95 16.15 -20.15 Q16.2 -20.0 16.3 -19.9 16.45 -19.7 16.95 -19.7 17.3 -19.7 17.55 -19.85 L17.6 -19.9 Q18.2 -20.25 18.5 -20.75 18.75 -21.15 18.7 -21.55 18.65 -22.1 19.25 -22.55 L19.4 -22.65 Q19.65 -22.85 20.4 -23.25 21.8 -24.05 21.95 -24.05 L22.0 -24.05 Q22.1 -23.8 22.3 -23.65 22.35 -23.7 22.45 -23.75 L22.55 -23.75 22.8 -24.05 22.95 -24.35 22.8 -24.75 22.75 -24.8 22.75 -24.85 22.65 -25.1 Q22.55 -25.25 22.55 -25.35 L22.95 -25.55 22.95 -25.5 23.65 -24.9 Q24.0 -24.6 24.25 -24.05 24.8 -22.85 24.8 -22.65 L24.8 -22.55 24.75 -22.55 Q24.15 -22.4 23.85 -21.95 23.6 -21.65 23.6 -21.25 23.6 -21.2 23.75 -21.0 L23.85 -20.8 23.65 -20.5 Q23.45 -20.3 23.45 -20.2 23.45 -19.95 23.55 -19.8 23.55 -19.7 23.65 -19.6 L23.7 -19.5 M-21.1 -17.0 L-21.05 -17.0 -21.0 -17.05 -20.6 -17.05 -20.6 -17.0 -20.4 -16.85 -20.35 -16.85 -20.35 -16.8 -20.3 -16.8 -19.35 -16.6 -19.0 -15.95 -18.95 -15.9 Q-18.85 -15.9 -18.75 -15.8 L-18.55 -15.6 Q-18.4 -15.45 -17.95 -15.2 L-17.45 -15.2 -17.45 -15.05 Q-17.4 -14.75 -17.15 -14.45 -16.8 -14.05 -16.3 -14.05 L-16.05 -14.1 -15.75 -14.15 Q-15.55 -14.35 -15.55 -14.65 L-15.6 -15.0 Q-14.95 -14.9 -14.75 -15.1 -14.65 -15.25 -14.65 -15.6 L-14.85 -16.1 -15.1 -16.6 -14.8 -16.9 -14.25 -16.95 -14.2 -16.75 -14.05 -16.5 Q-14.4 -16.45 -14.5 -15.95 L-14.5 -15.2 Q-14.5 -14.35 -13.95 -13.3 -13.5 -12.55 -12.65 -11.5 L-12.55 -11.5 -12.25 -11.45 -12.2 -11.5 Q-11.9 -11.25 -11.65 -10.9 L-11.7 -10.9 -11.5 -10.6 Q-11.2 -9.9 -10.95 -9.5 L-11.05 -9.5 -11.75 -10.1 Q-12.25 -10.55 -12.45 -10.65 -13.85 -11.35 -14.2 -11.7 -14.8 -12.35 -15.55 -12.8 -16.35 -13.3 -17.5 -13.65 L-18.05 -13.65 Q-18.3 -13.6 -18.35 -13.45 L-18.35 -13.3 Q-18.35 -13.1 -18.05 -12.6 -17.7 -12.1 -17.55 -12.0 -17.25 -11.7 -17.25 -11.3 -17.25 -10.85 -17.05 -10.65 L-17.1 -10.6 Q-17.55 -10.95 -17.95 -11.35 -18.35 -11.8 -18.4 -12.1 -18.5 -12.35 -19.05 -12.95 -19.55 -13.55 -19.6 -13.55 L-19.85 -13.5 Q-20.1 -13.75 -20.4 -14.1 L-20.65 -14.5 -20.7 -14.6 -21.0 -15.0 -21.15 -15.15 Q-21.5 -15.5 -21.55 -15.65 -21.75 -15.9 -21.9 -16.6 L-21.85 -16.75 -21.7 -16.6 Q-21.6 -16.6 -21.3 -16.45 L-21.25 -16.7 Q-21.25 -16.85 -21.2 -16.9 L-21.1 -17.0" fill="#ffdc45" fill-rule="evenodd" stroke="none"/>
    <path d="M25.15 -19.4 Q25.15 -19.6 25.05 -19.75 L25.4 -19.9 Q26.0 -20.2 26.25 -20.35 26.85 -20.8 26.85 -20.9 26.9 -20.95 26.75 -21.15 26.75 -21.3 27.45 -21.65 28.15 -21.95 28.15 -22.4 28.15 -22.6 27.95 -22.75 27.8 -22.9 27.65 -22.95 28.05 -23.35 29.0 -22.95 29.65 -22.7 30.0 -22.35 30.3 -22.05 30.95 -21.65 31.15 -21.5 31.15 -21.15 L31.15 -20.9 Q31.15 -20.6 31.05 -20.0 30.9 -19.4 30.9 -19.1 L30.9 -19.0 Q30.85 -18.95 30.7 -18.95 L30.55 -18.95 30.55 -19.0 Q30.0 -18.95 29.55 -18.5 29.05 -18.05 29.05 -17.55 29.05 -17.45 29.1 -17.4 L29.15 -17.35 29.3 -17.3 Q29.45 -17.3 29.45 -17.4 29.45 -17.45 29.55 -17.45 29.75 -17.45 29.9 -17.05 L29.95 -16.6 Q29.95 -16.35 29.65 -16.05 L29.25 -15.7 28.55 -14.8 Q28.3 -14.75 27.75 -14.5 L26.95 -14.15 26.45 -14.75 Q26.2 -14.75 25.65 -14.6 L25.45 -14.4 25.35 -14.25 Q25.35 -14.0 25.7 -13.95 L25.75 -13.8 25.8 -13.55 Q25.8 -13.35 25.55 -12.95 25.3 -12.6 25.1 -12.4 24.9 -12.25 24.2 -11.9 23.5 -11.6 23.35 -11.45 L23.15 -11.45 23.15 -11.55 Q23.15 -11.95 23.85 -12.35 24.45 -12.7 24.5 -13.05 L24.45 -13.1 Q24.4 -13.2 24.2 -13.1 L24.0 -13.15 24.0 -13.65 24.05 -13.9 Q24.05 -14.0 24.15 -14.1 L24.2 -14.1 24.75 -14.65 24.8 -14.8 Q24.95 -15.1 25.0 -15.3 L24.95 -15.3 24.95 -15.4 24.75 -15.4 24.75 -15.5 Q24.75 -15.65 24.8 -15.65 L24.85 -15.65 25.0 -15.6 25.45 -15.95 Q25.8 -16.2 25.9 -16.4 L25.9 -16.45 25.85 -16.45 25.9 -16.5 Q25.9 -16.75 25.7 -17.0 L25.55 -17.15 Q25.35 -17.25 25.15 -17.25 24.85 -17.25 24.25 -17.1 L24.15 -17.1 23.9 -17.05 Q23.75 -17.05 23.7 -17.1 L23.65 -17.25 23.15 -17.2 22.85 -17.15 22.5 -16.7 Q21.75 -16.55 21.65 -16.5 L21.45 -16.5 21.4 -16.6 Q21.9 -17.05 22.05 -17.4 22.2 -17.7 22.2 -18.15 L22.2 -18.45 Q22.15 -18.6 21.85 -18.8 L22.0 -18.8 21.6 -19.15 Q21.25 -19.45 20.75 -19.45 19.35 -19.45 18.55 -18.95 18.3 -18.75 18.0 -18.3 17.75 -18.0 17.6 -17.85 17.3 -17.6 16.7 -17.45 L16.5 -17.45 16.5 -17.75 16.05 -17.6 Q15.65 -17.4 15.35 -17.05 L15.2 -16.9 Q14.75 -16.15 14.4 -15.75 L14.15 -15.65 14.05 -15.7 14.05 -15.75 Q13.3 -15.65 12.8 -15.2 12.3 -14.75 12.3 -14.4 12.3 -14.3 12.4 -14.3 L12.55 -14.3 Q12.15 -13.05 11.35 -12.3 11.05 -12.05 11.0 -11.9 10.9 -11.6 10.85 -11.45 L10.5 -11.25 10.2 -11.1 10.05 -10.85 9.9 -10.7 9.9 -10.45 Q10.0 -10.45 10.15 -10.6 10.2 -10.7 10.2 -10.5 10.2 -10.25 9.8 -10.0 L9.05 -9.65 9.05 -9.75 Q9.05 -9.9 9.4 -10.3 9.6 -10.55 9.8 -10.65 L9.75 -10.7 9.75 -10.9 Q9.75 -11.5 10.4 -12.2 11.05 -12.9 11.05 -13.65 L11.0 -14.0 10.95 -14.1 10.85 -13.95 10.8 -13.95 10.75 -14.15 10.7 -14.15 10.75 -14.2 10.75 -14.4 10.85 -14.9 10.9 -15.35 10.9 -15.55 Q10.95 -15.8 10.8 -16.15 L10.5 -16.7 10.2 -17.0 Q10.1 -17.1 9.95 -17.2 L9.65 -17.0 9.6 -17.05 9.6 -17.2 Q9.6 -17.65 10.15 -18.3 L10.5 -18.65 Q10.95 -19.0 11.45 -19.0 11.6 -19.0 11.85 -18.8 L12.15 -18.55 12.15 -18.45 12.2 -18.4 12.25 -18.4 Q12.5 -18.4 12.85 -18.65 L12.9 -18.65 Q13.25 -18.85 13.95 -19.5 14.55 -20.0 15.3 -20.1 L15.65 -20.2 Q16.2 -20.35 16.35 -20.1 16.55 -19.8 16.95 -19.8 17.25 -19.8 17.5 -19.95 L17.65 -20.15 Q18.2 -20.4 18.55 -21.5 L18.5 -21.65 18.3 -21.75 Q18.55 -22.35 19.6 -22.95 19.95 -23.2 20.75 -23.6 21.8 -24.2 22.15 -24.25 L22.2 -23.95 Q22.25 -23.9 22.3 -23.9 22.7 -24.25 22.7 -24.6 L22.6 -24.5 Q22.6 -24.75 22.5 -24.95 L22.45 -25.05 22.35 -25.15 Q22.3 -25.25 22.2 -25.25 22.3 -25.35 22.65 -25.55 23.05 -25.75 23.15 -25.6 L23.25 -25.5 Q23.65 -25.35 24.15 -24.9 24.25 -24.8 24.35 -24.5 L24.55 -24.1 24.75 -23.6 24.95 -23.15 24.95 -22.95 25.05 -22.6 25.05 -22.55 Q25.05 -22.3 25.0 -22.25 L24.9 -22.25 24.75 -22.2 24.55 -22.15 24.4 -22.1 24.15 -21.95 24.05 -21.65 Q23.95 -21.4 23.95 -21.25 23.95 -21.15 24.05 -21.0 24.15 -20.85 24.15 -20.75 24.15 -20.6 23.9 -20.35 L23.7 -20.15 23.65 -19.9 23.7 -19.8 Q23.75 -19.75 23.8 -19.7 L24.0 -19.65 23.7 -19.5 23.65 -19.6 Q23.55 -19.7 23.55 -19.8 23.45 -19.95 23.45 -20.2 23.45 -20.3 23.65 -20.5 L23.85 -20.8 23.75 -21.0 Q23.6 -21.2 23.6 -21.25 23.6 -21.65 23.85 -21.95 24.15 -22.4 24.75 -22.55 L24.8 -22.55 24.8 -22.65 Q24.8 -22.85 24.25 -24.05 24.0 -24.6 23.65 -24.9 L22.95 -25.5 22.95 -25.55 22.55 -25.35 Q22.55 -25.25 22.65 -25.1 L22.75 -24.85 22.75 -24.8 22.8 -24.75 22.95 -24.35 22.8 -24.05 22.55 -23.75 22.45 -23.75 Q22.35 -23.7 22.3 -23.65 22.1 -23.8 22.0 -24.05 L21.95 -24.05 Q21.8 -24.05 20.4 -23.25 19.65 -22.85 19.4 -22.65 L19.25 -22.55 Q18.65 -22.1 18.7 -21.55 18.75 -21.15 18.5 -20.75 18.2 -20.25 17.6 -19.9 L17.55 -19.85 Q17.3 -19.7 16.95 -19.7 16.45 -19.7 16.3 -19.9 16.2 -20.0 16.15 -20.15 L15.45 -19.95 15.2 -19.8 14.75 -19.7 Q14.6 -19.65 14.45 -19.55 L14.15 -19.35 13.6 -18.9 13.2 -18.65 Q12.75 -18.3 12.45 -18.25 L12.45 -18.2 12.4 -18.2 12.25 -18.15 Q12.0 -18.15 11.85 -18.35 L11.6 -18.65 10.95 -18.65 10.55 -18.4 10.2 -18.1 Q9.95 -17.55 9.8 -17.35 10.05 -17.45 10.35 -17.25 10.65 -17.0 10.7 -16.75 L10.9 -16.35 Q11.1 -15.85 11.1 -15.35 11.1 -14.7 10.95 -14.2 11.15 -14.2 11.2 -13.95 L11.2 -13.65 Q11.2 -13.0 10.85 -12.55 10.25 -11.65 10.0 -11.1 10.4 -11.3 10.45 -11.35 10.8 -11.55 10.85 -11.75 L10.9 -11.95 Q10.9 -12.1 11.0 -12.2 L11.35 -12.55 Q11.5 -12.7 11.9 -13.35 12.3 -14.0 12.3 -14.1 12.3 -14.15 12.25 -14.25 12.15 -14.35 12.15 -14.45 12.15 -14.95 12.7 -15.4 13.3 -15.9 14.1 -15.85 L14.55 -16.35 14.8 -16.7 Q14.95 -16.95 15.4 -17.35 16.0 -17.85 16.4 -18.05 L16.6 -18.05 16.65 -17.95 16.7 -17.75 16.7 -17.65 16.65 -17.6 16.6 -17.6 17.3 -17.95 Q17.65 -18.15 17.8 -18.45 18.05 -18.9 18.25 -19.05 18.75 -19.4 19.8 -19.65 20.3 -19.85 21.2 -19.55 22.0 -19.3 22.2 -18.85 L22.35 -18.85 Q22.4 -18.8 22.4 -18.65 L22.35 -18.5 22.35 -17.8 22.25 -17.4 Q22.25 -17.25 22.05 -17.05 L21.75 -16.7 22.35 -16.9 Q22.45 -16.9 22.55 -17.1 L22.8 -17.3 22.9 -17.35 23.15 -17.4 23.55 -17.35 23.95 -17.25 24.15 -17.35 24.4 -17.45 Q24.8 -17.65 25.15 -17.65 25.8 -17.65 26.05 -17.1 26.2 -16.85 26.2 -16.5 26.2 -16.05 25.75 -15.65 25.5 -15.35 25.25 -15.3 L25.25 -15.2 Q25.25 -14.95 25.0 -14.65 L24.85 -14.4 Q24.65 -14.2 24.5 -14.1 24.3 -13.75 24.35 -13.3 L24.3 -13.25 24.55 -13.1 24.55 -13.05 24.6 -12.9 Q24.6 -12.7 24.35 -12.4 L23.9 -12.25 23.7 -12.1 23.65 -12.05 Q24.1 -11.9 24.9 -12.65 25.65 -13.35 25.65 -13.55 25.65 -13.7 25.5 -13.75 L25.3 -13.75 25.2 -14.05 Q25.15 -14.25 25.15 -14.4 25.15 -14.6 25.6 -14.8 25.95 -14.95 26.15 -14.95 26.55 -14.95 26.85 -14.7 L27.15 -14.45 Q28.0 -14.9 28.5 -15.05 28.65 -15.5 29.25 -15.95 29.8 -16.3 29.8 -16.75 L29.75 -16.9 29.55 -17.1 29.45 -17.0 29.15 -17.0 Q28.8 -17.15 28.8 -17.5 28.8 -17.9 29.2 -18.5 29.75 -19.2 30.5 -19.3 30.55 -19.6 30.7 -20.3 30.9 -21.0 30.75 -21.4 L30.8 -21.45 30.8 -21.55 Q30.25 -21.9 30.1 -22.05 29.75 -22.4 29.3 -22.6 L28.45 -23.0 28.1 -22.9 Q28.3 -22.7 28.3 -22.4 28.3 -22.05 27.95 -21.75 27.6 -21.4 27.05 -21.25 L27.1 -21.15 Q27.2 -21.05 27.2 -20.95 27.2 -20.7 26.25 -20.05 25.6 -19.55 25.15 -19.4 M16.6 -17.6 L16.6 -17.6 M22.0 -24.05 L22.15 -23.95 22.25 -23.85 22.2 -23.95 22.15 -24.0 Q22.1 -24.1 22.0 -24.05 M-21.1 -17.0 L-21.2 -16.9 Q-21.25 -16.85 -21.25 -16.7 L-21.3 -16.45 Q-21.6 -16.6 -21.7 -16.6 L-21.85 -16.75 -21.9 -16.6 Q-21.75 -15.9 -21.55 -15.65 -21.5 -15.5 -21.15 -15.15 L-21.0 -15.0 -20.7 -14.6 -20.65 -14.5 -20.4 -14.1 Q-20.1 -13.75 -19.85 -13.5 L-19.6 -13.55 Q-19.55 -13.55 -19.05 -12.95 -18.5 -12.35 -18.4 -12.1 -18.35 -11.8 -17.95 -11.35 -17.55 -10.95 -17.1 -10.6 L-17.05 -10.65 Q-17.25 -10.85 -17.25 -11.3 -17.25 -11.7 -17.55 -12.0 -17.7 -12.1 -18.05 -12.6 -18.35 -13.1 -18.35 -13.3 L-18.35 -13.45 Q-18.3 -13.6 -18.05 -13.65 L-17.5 -13.65 Q-16.35 -13.3 -15.55 -12.8 -14.8 -12.35 -14.2 -11.7 -13.85 -11.35 -12.45 -10.65 -12.25 -10.55 -11.75 -10.1 L-11.05 -9.5 -10.95 -9.5 Q-11.2 -9.9 -11.5 -10.6 L-11.7 -10.9 -11.65 -10.9 Q-11.9 -11.25 -12.2 -11.5 L-12.25 -11.45 -12.55 -11.5 -12.65 -11.5 Q-13.5 -12.55 -13.95 -13.3 -14.5 -14.35 -14.5 -15.2 L-14.5 -15.95 Q-14.4 -16.45 -14.05 -16.5 L-14.2 -16.75 -14.25 -16.95 -14.8 -16.9 -15.1 -16.6 -14.85 -16.1 -14.65 -15.6 Q-14.65 -15.25 -14.75 -15.1 -14.95 -14.9 -15.6 -15.0 L-15.55 -14.65 Q-15.55 -14.35 -15.75 -14.15 L-16.05 -14.1 -16.3 -14.05 Q-16.8 -14.05 -17.15 -14.45 -17.4 -14.75 -17.45 -15.05 L-17.45 -15.2 -17.95 -15.2 Q-18.4 -15.45 -18.55 -15.6 L-18.75 -15.8 Q-18.85 -15.9 -18.95 -15.9 L-19.0 -15.95 -19.35 -16.6 -20.3 -16.8 -20.35 -16.8 -20.35 -16.85 -20.4 -16.85 -20.6 -17.0 -20.6 -17.05 -21.0 -17.05 -21.05 -17.0 -21.1 -17.0 M-21.1 -17.25 L-21.05 -17.3 Q-20.6 -17.35 -20.45 -17.2 L-20.3 -17.05 Q-19.9 -16.9 -19.2 -16.85 L-18.65 -15.9 Q-18.3 -15.35 -17.45 -15.4 L-17.2 -15.35 Q-17.25 -15.25 -17.25 -15.15 L-17.25 -14.95 -16.95 -14.65 Q-16.7 -14.35 -16.6 -14.35 L-16.05 -14.35 Q-15.8 -14.45 -15.75 -14.85 -15.75 -15.25 -15.7 -15.35 L-15.4 -15.25 -15.15 -15.15 -14.9 -15.2 Q-14.85 -15.25 -14.85 -15.4 L-15.05 -15.95 Q-15.25 -16.5 -15.25 -16.65 L-15.2 -16.85 -14.85 -17.15 -14.1 -17.15 -13.85 -16.65 -13.65 -16.2 -13.65 -16.15 -13.8 -16.25 -13.95 -16.15 -14.0 -16.25 -14.05 -16.1 Q-14.15 -15.95 -14.2 -15.8 -14.3 -15.55 -14.3 -15.3 -14.3 -15.05 -14.2 -14.8 -14.05 -14.15 -13.55 -13.35 -12.8 -12.35 -12.5 -11.8 L-12.25 -11.75 -12.05 -11.7 -12.1 -11.65 -11.85 -11.45 Q-11.6 -11.2 -11.5 -10.9 L-11.1 -10.25 -11.0 -10.0 -10.7 -9.65 Q-10.4 -9.25 -10.3 -9.05 L-10.35 -9.0 -10.45 -8.95 Q-10.5 -9.0 -10.9 -9.2 -11.4 -9.45 -11.5 -9.5 L-11.8 -9.85 -12.15 -10.1 -13.1 -10.7 Q-13.9 -11.15 -14.0 -11.25 L-14.8 -11.95 -15.55 -12.65 Q-15.7 -12.8 -16.05 -12.85 -16.5 -12.95 -16.55 -13.0 -16.65 -13.1 -17.1 -13.3 -17.55 -13.45 -17.65 -13.45 L-17.95 -13.4 -18.1 -13.3 Q-18.05 -13.1 -17.6 -12.5 -17.2 -11.9 -17.1 -11.65 L-17.05 -11.25 Q-17.05 -11.0 -17.0 -10.85 L-16.7 -10.45 Q-16.45 -10.15 -16.35 -10.0 L-16.4 -9.95 Q-16.45 -9.9 -16.5 -9.9 L-17.5 -10.7 Q-18.2 -11.2 -18.35 -11.55 L-18.6 -12.05 -18.85 -12.45 Q-19.05 -12.65 -19.35 -12.85 L-19.65 -13.05 Q-19.95 -13.05 -20.3 -13.5 L-20.65 -14.05 -21.0 -14.55 -21.15 -14.8 -21.5 -15.15 Q-22.05 -15.8 -22.05 -16.8 L-22.05 -17.1 -21.95 -17.1 -21.9 -17.05 -21.65 -16.9 -21.45 -16.7 -21.35 -17.0 Q-21.25 -17.2 -21.15 -17.25 L-21.1 -17.25" fill="#ffd327" fill-rule="evenodd" stroke="none"/>
    <path d="M17.25 -16.75 Q17.55 -16.9 17.85 -16.9 L17.85 -16.95 17.9 -16.9 18.0 -16.9 18.0 -16.85 18.05 -16.7 Q18.15 -16.5 18.15 -16.4 18.15 -16.3 18.05 -16.2 L17.9 -16.0 17.8 -15.85 17.75 -15.7 Q17.75 -15.65 17.8 -15.55 L17.9 -15.45 Q17.9 -15.4 17.65 -14.95 L17.35 -14.45 17.35 -14.4 17.7 -14.35 18.05 -14.35 Q18.35 -14.35 18.55 -14.45 L18.7 -14.6 Q18.85 -14.65 18.85 -14.75 L19.1 -15.05 19.3 -15.4 19.3 -15.5 19.2 -15.55 Q19.3 -15.65 19.4 -15.65 L19.7 -15.65 20.55 -15.8 20.6 -15.8 20.7 -15.75 20.75 -15.65 20.95 -15.55 Q21.45 -15.6 21.75 -15.8 22.0 -16.0 22.0 -16.3 22.0 -16.35 21.85 -16.45 21.75 -16.5 21.7 -16.75 L21.65 -17.0 Q21.65 -17.15 21.65 -17.25 L21.6 -17.3 Q21.3 -17.3 21.15 -17.15 L21.1 -17.2 Q21.05 -17.2 21.05 -17.25 21.05 -17.3 21.7 -18.1 21.75 -18.2 22.05 -18.35 L22.35 -18.5 22.85 -18.65 23.05 -18.7 23.15 -18.85 23.25 -19.1 23.1 -19.25 Q23.3 -19.5 24.0 -19.7 24.5 -19.8 24.65 -19.65 24.85 -19.5 25.15 -19.5 L25.1 -19.55 25.35 -19.55 25.4 -19.1 25.55 -18.7 Q25.55 -18.45 25.05 -18.1 L24.35 -17.55 Q24.1 -17.35 24.05 -17.0 23.95 -16.6 23.85 -16.45 L23.45 -15.8 Q23.25 -15.45 23.05 -15.4 22.55 -15.25 22.15 -15.0 21.7 -14.75 21.65 -14.5 L21.65 -14.15 21.95 -14.05 22.45 -14.0 22.55 -13.75 Q22.55 -13.6 22.25 -12.95 21.9 -12.25 21.95 -12.65 21.6 -12.55 21.35 -12.45 L20.9 -12.1 Q20.4 -11.7 20.4 -11.5 L20.45 -11.4 20.45 -11.35 20.7 -11.3 Q20.7 -11.4 20.7 -11.25 L20.5 -10.75 Q21.75 -10.9 22.15 -11.05 22.45 -11.1 22.8 -11.45 L23.5 -11.9 Q23.95 -12.15 23.9 -12.35 L24.25 -12.5 24.7 -12.65 24.95 -12.65 Q25.1 -12.45 25.1 -12.25 L25.35 -12.2 25.45 -12.25 Q26.15 -12.25 27.4 -12.55 28.8 -12.95 29.25 -13.4 L29.25 -13.45 29.2 -13.45 29.1 -13.5 Q29.1 -13.55 29.15 -13.6 L29.65 -13.75 30.0 -13.8 30.0 -13.85 Q30.35 -13.95 30.45 -13.85 30.5 -13.9 30.5 -13.75 30.5 -13.7 30.3 -13.45 L30.05 -13.2 30.05 -13.15 Q30.05 -13.05 30.15 -13.05 L30.5 -12.95 30.5 -12.9 30.7 -12.85 31.0 -12.9 31.55 -12.95 Q31.9 -13.0 32.15 -13.1 L32.4 -13.25 32.6 -13.35 32.8 -13.65 33.0 -14.0 Q33.15 -14.35 33.15 -14.45 L33.1 -14.55 32.75 -14.55 32.75 -14.65 Q32.75 -14.7 32.95 -14.9 L33.15 -15.1 33.1 -15.2 Q33.05 -15.25 33.05 -15.35 33.05 -15.45 33.35 -15.75 33.65 -16.1 33.8 -16.15 34.1 -16.25 34.55 -16.5 34.95 -16.6 34.85 -16.3 L35.1 -16.3 35.45 -16.05 35.75 -16.1 Q35.95 -16.0 36.0 -15.9 L36.0 -15.75 35.85 -15.15 Q35.65 -14.6 35.65 -14.5 35.65 -14.4 35.7 -14.4 L35.75 -14.3 Q35.75 -13.9 35.15 -13.5 L33.7 -12.75 Q32.7 -12.25 32.4 -12.05 L31.85 -11.7 Q31.65 -11.5 31.5 -11.5 L31.05 -11.55 30.15 -11.5 Q29.95 -11.4 29.8 -11.4 29.5 -11.4 29.45 -11.5 L29.45 -11.55 29.5 -11.55 Q29.45 -11.6 29.45 -11.65 29.05 -11.6 28.4 -11.25 27.7 -10.85 27.7 -10.55 L27.75 -10.5 27.85 -10.3 28.75 -10.25 Q28.8 -10.15 28.95 -10.15 L29.1 -9.95 29.2 -9.7 29.4 -9.65 Q30.95 -9.75 31.3 -10.0 L31.5 -10.2 Q31.55 -10.3 31.7 -10.4 L31.5 -10.55 31.5 -10.6 Q31.5 -10.65 31.8 -10.8 32.1 -10.9 32.2 -10.9 L32.35 -10.85 Q32.5 -10.8 32.6 -10.8 L32.85 -10.65 33.2 -10.6 Q33.2 -10.7 33.2 -10.55 L33.05 -10.1 32.65 -9.1 32.65 -9.0 32.55 -8.9 Q32.35 -8.75 32.35 -8.8 L32.35 -8.85 Q31.9 -8.85 30.05 -7.7 29.3 -7.2 29.05 -7.0 L28.7 -6.65 Q28.35 -6.4 28.15 -6.4 28.1 -6.4 28.0 -6.45 L27.9 -6.6 27.75 -6.65 27.65 -6.65 Q26.5 -6.55 26.1 -6.35 25.8 -6.15 25.55 -6.1 25.35 -6.05 25.25 -5.75 25.1 -5.45 25.05 -5.3 25.5 -5.4 25.6 -5.25 25.65 -5.2 25.65 -5.05 L26.2 -5.0 27.4 -5.2 27.6 -5.2 27.7 -5.15 Q27.6 -5.05 27.0 -4.8 L26.4 -4.55 Q25.7 -4.25 23.75 -3.85 L19.4 -3.05 19.2 -3.05 19.1 -3.1 Q19.15 -3.1 20.0 -3.4 L20.05 -3.5 Q20.0 -3.5 20.0 -3.55 L19.9 -3.55 19.75 -3.6 Q19.7 -3.65 19.75 -3.7 L19.55 -3.8 Q19.45 -3.85 19.4 -3.9 L19.25 -3.95 18.95 -3.95 18.9 -4.0 18.15 -4.0 17.7 -4.05 17.2 -4.0 16.75 -4.0 Q16.9 -4.15 17.3 -4.4 L18.05 -4.95 Q18.35 -5.2 18.55 -5.4 L18.6 -5.4 18.7 -5.55 18.75 -5.65 19.0 -6.0 Q19.1 -6.1 19.15 -6.25 L19.2 -6.3 19.2 -6.35 19.35 -7.05 19.2 -7.2 19.15 -7.2 19.15 -7.3 Q19.15 -7.45 19.25 -7.7 L19.35 -8.1 Q19.35 -8.35 19.0 -8.6 L18.6 -8.8 Q18.45 -9.1 18.15 -9.25 17.8 -9.4 16.8 -9.55 L16.6 -9.6 Q16.5 -9.6 16.3 -9.5 L16.15 -9.5 16.1 -9.55 Q15.85 -9.6 15.75 -9.65 15.35 -9.6 14.75 -9.45 14.25 -9.3 13.9 -9.3 13.75 -9.3 13.7 -9.35 L13.65 -9.45 13.5 -9.55 Q13.2 -9.7 13.0 -9.6 12.85 -9.6 12.85 -9.7 L12.85 -9.9 12.8 -9.95 Q12.75 -10.05 12.8 -10.1 L12.75 -10.2 12.7 -10.2 12.5 -10.5 12.4 -10.55 12.35 -10.6 12.25 -10.6 Q11.65 -10.6 10.95 -10.05 L10.45 -9.6 10.05 -9.15 10.0 -9.15 10.0 -9.1 9.65 -8.7 9.3 -8.2 9.3 -8.25 9.6 -8.8 10.05 -9.55 10.35 -10.25 10.4 -10.55 Q10.4 -10.75 10.5 -10.9 11.05 -11.45 11.4 -12.2 11.7 -12.85 11.8 -13.5 L11.7 -13.55 Q11.7 -13.6 11.7 -13.75 L11.5 -13.75 11.5 -13.8 11.85 -14.15 12.3 -14.5 12.35 -14.5 Q12.7 -14.8 12.8 -14.8 12.95 -14.8 13.0 -14.55 13.0 -14.3 13.35 -14.1 14.0 -14.35 14.6 -14.8 L15.4 -15.5 15.35 -15.55 Q15.25 -15.6 15.25 -15.65 15.25 -15.95 15.75 -16.2 16.0 -16.3 16.3 -16.35 L17.25 -16.75 M17.9 -16.8 Q17.45 -16.7 16.5 -16.3 15.45 -15.85 15.45 -15.7 15.45 -15.65 15.5 -15.6 L15.55 -15.5 Q15.55 -15.35 15.15 -15.1 L14.65 -14.7 Q14.35 -14.45 14.15 -14.3 13.7 -14.0 13.45 -14.0 L13.25 -14.0 Q13.05 -14.15 13.05 -14.2 L12.95 -14.25 12.85 -14.55 12.7 -14.6 12.1 -14.2 12.05 -14.2 12.0 -14.15 Q11.75 -14.0 11.75 -13.9 L11.85 -13.65 11.9 -13.45 11.8 -12.95 Q11.8 -12.7 11.6 -12.35 L11.3 -11.75 10.9 -11.15 Q10.65 -10.8 10.6 -10.55 L10.4 -9.95 10.5 -10.0 10.85 -10.3 10.95 -10.35 Q10.95 -10.4 11.0 -10.35 11.55 -10.7 12.0 -10.75 12.5 -10.85 12.75 -10.6 13.0 -10.4 13.05 -10.0 L13.1 -9.85 13.2 -9.85 Q13.45 -9.85 13.65 -9.7 L13.7 -9.7 13.85 -9.5 14.5 -9.65 15.65 -9.8 16.35 -9.7 17.3 -9.65 Q18.15 -9.45 18.45 -9.25 18.65 -9.05 19.15 -8.65 19.5 -8.4 19.5 -8.1 L19.3 -7.4 19.4 -7.35 19.55 -7.1 Q19.55 -6.85 19.45 -6.55 L19.45 -6.4 Q19.45 -5.95 18.55 -5.0 18.1 -4.55 17.8 -4.35 L17.85 -4.35 Q18.4 -4.35 19.5 -4.1 L19.55 -4.1 Q19.6 -4.1 19.6 -4.05 L19.6 -4.0 Q19.65 -3.95 19.7 -3.9 L19.75 -3.95 19.85 -3.95 20.05 -3.8 20.05 -3.7 20.4 -3.7 20.45 -3.65 20.45 -3.4 21.15 -3.55 23.4 -3.95 Q24.5 -4.1 25.45 -4.45 26.35 -4.75 26.7 -4.8 L27.0 -4.95 26.55 -4.9 Q26.4 -4.8 26.2 -4.8 L25.5 -4.85 Q25.45 -4.95 25.45 -5.15 L25.35 -5.15 25.0 -5.2 24.95 -5.25 Q24.9 -5.25 24.9 -5.35 L25.0 -5.75 Q25.0 -6.05 25.95 -6.45 26.95 -6.85 27.7 -6.7 L27.65 -6.7 27.45 -6.75 27.5 -6.8 27.6 -6.8 28.1 -6.7 28.1 -6.55 28.15 -6.55 Q28.6 -6.7 28.9 -7.0 29.25 -7.4 29.6 -7.6 L30.4 -8.1 Q30.9 -8.4 31.2 -8.55 L31.7 -8.75 32.3 -9.0 Q32.55 -9.1 32.6 -9.2 L32.7 -9.5 32.9 -10.0 33.05 -10.5 32.8 -10.55 32.7 -10.65 Q32.6 -10.65 32.6 -10.7 L32.35 -10.75 32.2 -10.85 31.9 -10.7 Q31.85 -10.75 31.85 -10.65 31.85 -10.55 31.9 -10.55 L32.0 -10.5 Q32.0 -10.3 31.5 -9.95 30.9 -9.5 30.15 -9.5 L29.35 -9.55 29.1 -9.55 Q29.0 -9.6 28.95 -9.8 28.95 -10.0 28.85 -10.05 L28.7 -10.1 28.6 -10.15 27.8 -10.2 Q27.75 -10.3 27.75 -10.45 L27.7 -10.45 Q27.6 -10.5 27.6 -10.55 27.6 -10.85 28.25 -11.3 28.9 -11.7 29.35 -11.8 L29.55 -11.75 Q29.55 -11.85 29.55 -11.7 L29.55 -11.6 29.65 -11.65 29.7 -11.6 30.1 -11.6 30.15 -11.65 30.3 -11.65 30.95 -11.7 31.5 -11.65 Q31.65 -11.7 31.95 -12.0 32.25 -12.25 32.65 -12.35 L33.75 -12.9 35.05 -13.65 Q35.65 -14.0 35.65 -14.25 L35.6 -14.3 Q35.55 -14.3 35.55 -14.35 35.55 -14.55 35.75 -15.05 35.9 -15.55 35.9 -15.75 35.9 -15.8 35.75 -16.0 L35.45 -15.95 35.35 -15.95 35.15 -16.1 34.8 -16.2 34.8 -16.4 Q33.2 -15.6 33.2 -15.35 33.2 -15.3 33.25 -15.25 L33.25 -15.15 33.05 -14.75 Q33.3 -14.7 33.3 -14.45 L33.0 -13.65 Q32.9 -13.4 32.7 -13.25 L32.55 -13.1 32.2 -12.95 32.1 -12.9 32.2 -13.0 Q31.65 -12.75 30.9 -12.75 L30.55 -12.75 Q30.3 -12.75 30.4 -12.85 30.15 -12.85 30.05 -12.95 29.9 -13.05 29.9 -13.15 L29.95 -13.2 Q30.0 -13.3 30.15 -13.45 30.35 -13.65 30.4 -13.75 L30.45 -13.8 30.25 -13.8 29.8 -13.65 29.6 -13.6 29.45 -13.5 29.4 -13.45 29.4 -13.4 29.35 -13.35 29.35 -13.25 Q29.0 -12.8 27.65 -12.45 L25.45 -12.05 25.3 -12.1 25.25 -12.05 25.35 -12.0 Q25.05 -12.0 24.95 -12.2 24.9 -12.3 24.85 -12.5 L24.1 -12.3 Q24.05 -12.25 24.0 -12.15 L23.9 -12.0 22.85 -11.25 Q22.25 -10.9 21.2 -10.7 21.15 -10.6 20.9 -10.6 L20.45 -10.55 20.35 -10.6 20.3 -10.55 20.3 -10.65 Q20.3 -10.7 20.4 -10.9 20.5 -11.05 20.45 -11.1 L20.6 -11.2 20.4 -11.25 20.35 -11.35 Q20.35 -11.4 20.35 -11.45 20.35 -11.75 20.75 -12.1 L20.8 -12.15 20.95 -12.25 21.0 -12.3 21.35 -12.55 21.4 -12.55 21.6 -12.65 21.85 -12.7 Q22.05 -12.7 22.15 -12.85 L22.3 -13.1 Q22.4 -13.4 22.4 -13.6 22.4 -13.7 22.45 -13.7 22.5 -13.7 22.5 -13.75 L22.4 -13.95 21.6 -14.05 Q21.55 -14.1 21.55 -14.35 21.55 -14.7 21.75 -14.9 22.05 -15.2 22.7 -15.4 22.95 -15.5 23.1 -15.65 L23.35 -15.9 23.8 -16.5 Q23.9 -16.65 24.0 -17.1 24.1 -17.45 24.3 -17.65 L25.0 -18.2 Q25.4 -18.55 25.4 -18.75 L25.35 -19.0 Q25.25 -19.1 25.25 -19.35 L24.9 -19.35 24.45 -19.6 23.85 -19.5 23.45 -19.35 23.4 -19.3 Q23.35 -19.25 23.35 -19.1 L23.35 -18.9 23.15 -18.6 23.1 -18.55 Q22.95 -18.45 22.65 -18.4 22.05 -18.25 21.9 -18.1 21.5 -17.8 21.25 -17.4 L21.5 -17.45 21.7 -17.4 21.8 -17.2 21.75 -17.1 21.8 -17.05 Q21.85 -17.0 21.85 -16.85 L21.8 -16.6 21.95 -16.55 Q22.1 -16.45 22.1 -16.3 22.1 -16.1 21.8 -15.75 21.55 -15.4 21.25 -15.4 L20.75 -15.5 Q20.75 -15.6 20.65 -15.65 L20.5 -15.7 20.4 -15.65 20.35 -15.6 19.75 -15.55 19.45 -15.55 Q19.45 -15.3 19.3 -15.1 L19.1 -14.75 18.75 -14.45 Q18.5 -14.25 17.75 -14.1 L17.65 -14.15 17.5 -14.15 17.55 -14.2 17.4 -14.2 17.25 -14.25 Q17.2 -14.3 17.2 -14.45 17.2 -14.7 17.45 -15.0 L17.7 -15.35 17.65 -15.5 Q17.6 -15.6 17.6 -15.7 17.6 -15.75 17.8 -16.1 L18.0 -16.4 18.0 -16.65 17.9 -16.8 M6.25 -6.2 Q6.25 -6.1 6.3 -6.1 L6.65 -6.2 7.15 -6.25 7.2 -6.15 7.2 -6.05 7.15 -5.8 7.1 -5.6 Q7.1 -5.5 7.05 -5.4 L6.8 -5.2 6.55 -5.4 6.15 -5.4 Q5.7 -5.25 5.2 -4.85 L4.55 -4.4 4.55 -4.5 Q4.55 -4.85 5.3 -5.55 6.0 -6.25 6.2 -6.25 6.25 -6.25 6.25 -6.2 M4.75 -4.75 Q5.0 -5.0 5.4 -5.25 5.85 -5.55 6.15 -5.55 L6.7 -5.5 Q6.75 -5.45 6.8 -5.45 6.9 -5.45 7.0 -5.75 L7.1 -6.15 7.1 -6.2 6.1 -6.0 Q5.9 -5.95 5.65 -5.7 L5.1 -5.25 Q4.8 -4.95 4.75 -4.75 M21.3 -8.6 L21.15 -8.7 Q21.0 -8.8 20.6 -8.4 20.1 -7.9 20.1 -7.8 L20.2 -7.65 Q20.35 -7.55 20.35 -7.5 20.1 -6.95 20.1 -6.8 20.1 -6.45 20.25 -6.45 22.1 -6.85 22.1 -8.25 L22.1 -8.45 Q22.05 -8.65 21.85 -8.65 21.8 -8.65 21.7 -8.55 21.65 -8.5 21.6 -8.5 21.45 -8.5 21.3 -8.6 M21.6 -8.75 Q21.85 -9.0 22.05 -8.75 22.25 -8.55 22.25 -8.3 22.25 -7.7 21.95 -7.25 21.55 -6.7 20.6 -6.35 L20.25 -6.35 20.0 -6.55 Q19.9 -6.65 19.9 -6.75 19.9 -6.8 20.0 -7.15 L20.15 -7.5 Q20.1 -7.5 20.05 -7.55 19.95 -7.6 19.95 -7.65 L19.95 -7.8 Q19.95 -8.0 20.35 -8.35 20.75 -8.75 21.05 -8.85 L21.35 -8.85 21.4 -8.75 21.6 -8.75 M15.75 -11.25 L15.75 -11.3 15.45 -11.25 Q15.3 -11.15 15.25 -11.1 15.2 -11.05 15.2 -10.9 15.2 -10.65 15.3 -10.55 15.35 -10.5 15.55 -10.4 L16.0 -10.45 16.5 -10.55 16.8 -10.5 17.2 -10.45 17.6 -10.6 18.05 -10.9 18.15 -11.0 18.15 -11.15 18.05 -11.45 17.85 -11.7 17.6 -11.85 17.05 -11.95 Q17.0 -11.95 16.7 -11.8 L16.3 -11.6 16.0 -11.35 Q15.8 -11.25 15.75 -11.25 M16.05 -11.45 L16.3 -11.75 17.05 -12.1 Q17.7 -12.05 18.05 -11.65 18.3 -11.35 18.3 -11.05 18.3 -10.85 17.95 -10.6 17.55 -10.25 17.25 -10.25 L16.6 -10.4 16.15 -10.3 15.75 -10.2 15.55 -10.2 Q15.25 -10.4 15.2 -10.5 15.15 -10.6 15.15 -10.8 L15.15 -11.05 Q15.2 -11.15 15.4 -11.35 15.85 -11.35 16.05 -11.45 M-7.85 -10.4 L-7.7 -10.3 -7.8 -10.3 -7.9 -10.35 -8.05 -10.3 Q-8.2 -10.2 -8.35 -9.75 -8.45 -9.35 -8.45 -9.1 -8.45 -8.6 -8.2 -7.9 -7.95 -7.05 -7.6 -6.85 L-7.6 -6.8 Q-7.65 -6.75 -7.7 -6.75 -7.9 -6.75 -8.05 -6.85 L-8.2 -6.95 -8.55 -7.15 -9.05 -7.15 -9.4 -6.95 -9.9 -6.95 -10.15 -7.2 -10.35 -7.2 Q-10.5 -7.15 -10.85 -6.75 -11.2 -6.3 -11.2 -6.15 -11.2 -5.95 -11.05 -5.75 L-10.9 -5.55 -10.75 -5.5 -10.25 -5.55 Q-10.0 -5.55 -9.9 -5.45 L-9.8 -5.4 -9.7 -5.4 -9.5 -5.2 -9.25 -4.9 -9.35 -4.8 -9.4 -4.85 -9.5 -4.65 -9.65 -4.45 -9.15 -4.5 -9.15 -4.55 -8.95 -4.5 Q-8.85 -4.45 -8.8 -4.3 L-8.7 -4.05 Q-8.55 -3.8 -7.9 -3.75 L-7.95 -3.65 Q-8.0 -3.55 -8.25 -3.55 L-8.5 -3.6 -8.7 -3.7 -8.95 -3.7 -9.25 -3.75 -9.95 -3.7 -10.2 -3.65 -10.25 -3.6 Q-10.3 -3.5 -10.4 -3.5 -10.6 -3.5 -10.9 -3.75 L-11.2 -3.95 -11.05 -4.2 -11.05 -4.35 -10.95 -4.5 Q-11.0 -4.55 -11.15 -4.6 L-11.3 -4.5 -11.45 -4.3 -11.55 -4.3 -11.6 -4.25 -11.7 -4.25 -12.15 -4.45 Q-12.55 -4.6 -13.0 -4.65 L-13.45 -4.7 Q-13.75 -4.7 -13.9 -4.6 L-13.85 -4.6 -14.0 -4.55 -14.0 -4.45 -14.05 -4.45 -14.05 -4.35 -14.15 -4.3 Q-15.05 -4.6 -15.5 -4.9 -16.05 -5.25 -16.1 -5.75 L-16.2 -5.8 -16.3 -5.95 -16.4 -6.0 Q-16.5 -6.15 -16.65 -6.2 -16.75 -6.3 -16.95 -6.3 -17.6 -6.2 -18.15 -6.85 -18.65 -7.4 -18.65 -7.9 L-18.65 -8.15 -18.55 -8.25 Q-18.5 -8.25 -18.5 -8.3 -18.5 -8.65 -18.85 -9.05 -19.25 -9.6 -19.75 -9.35 L-20.0 -9.75 Q-20.05 -9.8 -20.05 -9.95 L-20.0 -10.15 Q-20.0 -10.6 -20.05 -10.9 L-20.1 -11.05 -20.1 -11.2 Q-20.1 -12.15 -18.75 -13.05 L-18.75 -13.1 -18.65 -13.05 -18.35 -13.05 Q-18.25 -13.1 -18.15 -13.15 L-18.05 -13.25 -17.8 -13.2 -17.8 -12.9 -17.6 -12.45 -17.35 -12.0 -17.45 -11.9 Q-17.55 -11.95 -17.55 -12.0 L-17.6 -12.15 Q-17.85 -11.95 -17.95 -11.8 L-17.95 -11.55 Q-17.95 -11.4 -17.85 -11.15 -17.75 -10.85 -17.6 -10.75 L-17.4 -10.75 -17.25 -10.8 Q-17.15 -10.8 -17.0 -10.65 -16.85 -10.5 -16.7 -10.5 -16.55 -10.5 -16.5 -10.65 -16.4 -10.75 -16.4 -10.85 -16.4 -10.9 -16.5 -11.0 L-16.75 -11.15 -16.8 -11.3 -16.65 -11.8 Q-16.6 -11.95 -16.6 -12.25 L-16.55 -12.55 Q-16.5 -12.8 -16.35 -12.8 L-15.6 -12.7 Q-15.4 -12.7 -15.35 -12.55 L-15.35 -12.35 Q-15.05 -12.1 -14.75 -12.0 L-14.5 -11.6 -14.2 -11.25 -14.25 -11.2 -14.2 -11.15 -14.25 -11.1 -14.35 -11.1 -14.35 -11.0 Q-14.35 -10.8 -14.15 -10.5 -13.9 -10.05 -13.55 -10.05 -13.05 -10.05 -12.75 -10.2 L-12.75 -10.25 -12.7 -10.4 -11.75 -10.35 -11.55 -10.05 -11.4 -9.8 Q-11.4 -9.7 -11.45 -9.75 -11.5 -9.75 -11.5 -9.7 -11.5 -9.35 -10.85 -9.0 -10.4 -8.75 -9.7 -8.6 L-9.7 -8.65 Q-9.7 -8.8 -9.75 -9.1 L-9.8 -9.15 Q-9.95 -9.5 -10.1 -9.7 L-10.1 -9.8 -10.05 -10.05 -10.0 -10.35 Q-10.0 -10.5 -9.85 -10.7 -9.7 -10.85 -9.3 -11.05 L-8.75 -11.3 Q-8.5 -11.35 -8.35 -11.1 L-7.9 -11.1 -7.75 -10.7 Q-7.65 -10.45 -7.65 -10.35 L-7.7 -10.35 -7.8 -10.4 -7.75 -10.4 -7.75 -10.55 -7.85 -10.6 -7.9 -10.65 -7.9 -10.75 Q-7.95 -10.95 -8.4 -11.0 L-8.55 -11.15 -8.7 -11.25 -9.0 -11.05 -9.35 -10.9 -9.55 -10.75 -9.8 -10.55 Q-9.95 -10.3 -9.95 -10.1 L-10.0 -9.95 -10.05 -9.75 -10.05 -9.7 Q-9.85 -9.8 -9.65 -9.35 -9.45 -8.9 -9.45 -8.65 L-9.5 -8.45 -9.55 -8.4 -9.55 -8.45 -9.65 -8.45 Q-9.95 -8.45 -10.6 -8.75 -11.15 -9.0 -11.4 -9.15 -11.5 -9.25 -11.55 -9.4 -11.65 -9.55 -11.65 -9.7 -11.65 -9.85 -11.7 -9.95 L-11.85 -10.2 -12.25 -10.25 -12.55 -10.3 -12.65 -10.2 -12.7 -10.1 -12.75 -10.05 -13.0 -10.0 Q-13.05 -9.9 -13.2 -9.9 -13.75 -9.9 -14.05 -10.15 -14.35 -10.35 -14.5 -10.9 L-14.5 -11.3 -14.45 -11.3 -14.55 -11.5 Q-14.65 -11.85 -15.05 -12.0 L-15.3 -12.2 -15.4 -12.45 Q-15.45 -12.6 -15.75 -12.6 L-16.1 -12.7 -16.25 -12.65 -16.4 -12.65 Q-16.5 -12.5 -16.5 -12.3 L-16.45 -12.1 Q-16.45 -12.0 -16.55 -11.7 L-16.65 -11.3 -16.5 -11.1 Q-16.3 -10.85 -16.3 -10.7 -16.3 -10.65 -16.45 -10.5 -16.55 -10.35 -16.65 -10.4 -16.9 -10.35 -17.05 -10.5 L-17.2 -10.7 -17.65 -10.65 Q-18.0 -11.2 -18.0 -11.55 L-18.0 -11.85 Q-17.9 -12.0 -17.6 -12.25 L-17.75 -12.5 -17.85 -12.65 -17.9 -12.8 -17.95 -13.05 -18.0 -13.1 -18.05 -13.1 -18.15 -13.05 -18.25 -12.95 -18.7 -12.95 -19.65 -12.05 Q-20.0 -11.55 -20.0 -11.1 L-20.0 -11.05 Q-19.85 -10.75 -19.85 -10.65 -19.85 -10.55 -19.9 -10.5 L-19.9 -9.9 -19.75 -9.5 -19.3 -9.5 Q-18.95 -9.55 -18.65 -8.95 -18.4 -8.45 -18.4 -8.2 L-18.45 -8.15 -18.55 -8.1 Q-18.6 -8.1 -18.6 -7.95 -18.6 -7.4 -18.05 -6.95 L-17.35 -6.4 -16.75 -6.5 Q-16.45 -6.5 -16.3 -6.35 L-16.3 -6.3 -16.55 -6.3 Q-16.15 -6.05 -15.8 -5.55 -15.4 -4.8 -14.45 -4.6 L-14.3 -4.6 -14.2 -4.65 -14.05 -4.65 -13.95 -4.7 Q-13.7 -4.85 -13.35 -4.8 L-13.15 -4.8 -12.95 -4.75 Q-12.6 -4.7 -12.1 -4.5 L-11.7 -4.4 -11.45 -4.55 -10.95 -4.8 -10.8 -4.5 -10.85 -4.4 -10.9 -4.25 -10.9 -4.1 -11.05 -4.0 Q-10.95 -3.9 -10.6 -3.7 -10.5 -3.7 -10.3 -3.8 L-9.7 -3.9 -9.55 -3.85 -9.1 -3.85 -8.75 -3.9 Q-8.95 -4.2 -9.0 -4.45 L-9.65 -4.35 -9.75 -4.35 -9.8 -4.45 -9.75 -4.45 -9.55 -4.85 -9.55 -4.95 -9.5 -4.95 -9.5 -5.0 -9.6 -5.05 -9.7 -5.2 -9.95 -5.35 -10.05 -5.35 -10.1 -5.4 -10.45 -5.4 -10.55 -5.35 -10.8 -5.35 -10.8 -5.4 -10.95 -5.4 -11.1 -5.6 -11.15 -5.65 Q-11.35 -5.85 -11.35 -6.05 -11.35 -6.4 -10.4 -7.35 L-10.1 -7.3 -9.95 -7.2 -9.85 -7.05 -9.5 -7.05 -9.05 -7.3 Q-8.35 -7.25 -8.15 -7.1 -8.0 -6.95 -7.85 -6.9 -8.1 -7.05 -8.35 -7.9 -8.55 -8.65 -8.55 -9.1 -8.55 -9.4 -8.45 -9.8 -8.3 -10.2 -8.1 -10.45 L-8.0 -10.45 -7.85 -10.4 M-16.2 -4.5 Q-15.95 -4.5 -15.95 -4.2 -15.95 -4.0 -15.35 -3.45 L-14.7 -2.9 -14.75 -2.9 -15.0 -2.95 -15.1 -3.05 Q-15.75 -3.1 -16.15 -3.5 -16.45 -3.8 -16.45 -4.05 -16.45 -4.45 -16.2 -4.5 M-16.35 -4.25 L-16.4 -4.05 Q-16.4 -3.95 -16.25 -3.7 L-16.0 -3.45 -15.3 -3.15 -15.25 -3.15 -15.9 -3.8 Q-16.2 -4.15 -16.15 -4.4 L-16.25 -4.45 -16.35 -4.25 M-6.95 -3.25 L-6.7 -3.2 -6.5 -3.1 -6.6 -3.05 Q-6.45 -2.85 -6.0 -2.8 L-6.0 -2.7 -6.2 -2.75 Q-6.55 -2.75 -6.65 -2.65 L-6.75 -2.55 Q-6.95 -2.55 -7.6 -2.85 L-7.6 -2.9 -8.0 -2.95 -8.05 -3.0 Q-8.6 -3.0 -8.85 -3.2 L-8.45 -3.1 -8.45 -3.15 -8.2 -3.1 Q-7.7 -3.1 -7.4 -3.25 L-6.95 -3.25 M-7.1 -3.05 Q-7.2 -2.95 -7.35 -2.95 L-7.45 -2.9 Q-7.15 -2.8 -7.0 -2.7 L-6.65 -2.7 -6.5 -2.85 -6.55 -2.85 Q-6.7 -2.95 -6.75 -3.1 -6.8 -3.2 -6.95 -3.2 L-7.1 -3.05" fill="#ffd327" fill-rule="evenodd" stroke="none"/>
    <path d="M17.9 -16.8 L18.0 -16.65 18.0 -16.4 17.8 -16.1 Q17.6 -15.75 17.6 -15.7 17.6 -15.6 17.65 -15.5 L17.7 -15.35 17.45 -15.0 Q17.2 -14.7 17.2 -14.45 17.2 -14.3 17.25 -14.25 L17.4 -14.2 17.55 -14.2 17.5 -14.15 17.65 -14.15 17.75 -14.1 Q18.5 -14.25 18.75 -14.45 L19.1 -14.75 19.3 -15.1 Q19.45 -15.3 19.45 -15.55 L19.75 -15.55 20.35 -15.6 20.4 -15.65 20.5 -15.7 20.65 -15.65 Q20.75 -15.6 20.75 -15.5 L21.25 -15.4 Q21.55 -15.4 21.8 -15.75 22.1 -16.1 22.1 -16.3 22.1 -16.45 21.95 -16.55 L21.8 -16.6 21.85 -16.85 Q21.85 -17.0 21.8 -17.05 L21.75 -17.1 21.8 -17.2 21.7 -17.4 21.5 -17.45 21.25 -17.4 Q21.5 -17.8 21.9 -18.1 22.05 -18.25 22.65 -18.4 22.95 -18.45 23.1 -18.55 L23.15 -18.6 23.35 -18.9 23.35 -19.1 Q23.35 -19.25 23.4 -19.3 L23.45 -19.35 23.85 -19.5 24.45 -19.6 24.9 -19.35 25.25 -19.35 Q25.25 -19.1 25.35 -19.0 L25.4 -18.75 Q25.4 -18.55 25.0 -18.2 L24.3 -17.65 Q24.1 -17.45 24.0 -17.1 23.9 -16.65 23.8 -16.5 L23.35 -15.9 23.1 -15.65 Q22.95 -15.5 22.7 -15.4 22.05 -15.2 21.75 -14.9 21.55 -14.7 21.55 -14.35 21.55 -14.1 21.6 -14.05 L22.4 -13.95 22.5 -13.75 Q22.5 -13.7 22.45 -13.7 22.4 -13.7 22.4 -13.6 22.4 -13.4 22.3 -13.1 L22.15 -12.85 Q22.05 -12.7 21.85 -12.7 L21.6 -12.65 21.4 -12.55 21.35 -12.55 21.0 -12.3 20.95 -12.25 20.8 -12.15 20.75 -12.1 Q20.35 -11.75 20.35 -11.45 20.35 -11.4 20.35 -11.35 L20.4 -11.25 20.6 -11.2 20.45 -11.1 Q20.5 -11.05 20.4 -10.9 20.3 -10.7 20.3 -10.65 L20.3 -10.55 20.35 -10.6 20.45 -10.55 20.9 -10.6 Q21.15 -10.6 21.2 -10.7 22.25 -10.9 22.85 -11.25 L23.9 -12.0 24.0 -12.15 Q24.05 -12.25 24.1 -12.3 L24.85 -12.5 Q24.9 -12.3 24.95 -12.2 25.05 -12.0 25.35 -12.0 L25.25 -12.05 25.3 -12.1 25.45 -12.05 27.65 -12.45 Q29.0 -12.8 29.35 -13.25 L29.35 -13.35 29.4 -13.4 29.4 -13.45 29.45 -13.5 29.6 -13.6 29.8 -13.65 30.25 -13.8 30.45 -13.8 30.4 -13.75 Q30.35 -13.65 30.15 -13.45 30.0 -13.3 29.95 -13.2 L29.9 -13.15 Q29.9 -13.05 30.05 -12.95 30.15 -12.85 30.4 -12.85 30.3 -12.75 30.55 -12.75 L30.9 -12.75 Q31.65 -12.75 32.2 -13.0 L32.1 -12.9 32.2 -12.95 32.55 -13.1 32.7 -13.25 Q32.9 -13.4 33.0 -13.65 L33.3 -14.45 Q33.3 -14.7 33.05 -14.75 L33.25 -15.15 33.25 -15.25 Q33.2 -15.3 33.2 -15.35 33.2 -15.6 34.8 -16.4 L34.8 -16.2 35.15 -16.1 35.35 -15.95 35.45 -15.95 35.75 -16.0 Q35.9 -15.8 35.9 -15.75 35.9 -15.55 35.75 -15.05 35.55 -14.55 35.55 -14.35 35.55 -14.3 35.6 -14.3 L35.65 -14.25 Q35.65 -14.0 35.05 -13.65 L33.75 -12.9 32.65 -12.35 Q32.25 -12.25 31.95 -12.0 31.65 -11.7 31.5 -11.65 L30.95 -11.7 30.3 -11.65 30.15 -11.65 30.1 -11.6 29.7 -11.6 29.65 -11.65 29.55 -11.6 29.55 -11.7 Q29.55 -11.85 29.55 -11.75 L29.35 -11.8 Q28.9 -11.7 28.25 -11.3 27.6 -10.85 27.6 -10.55 27.6 -10.5 27.7 -10.45 L27.75 -10.45 Q27.75 -10.3 27.8 -10.2 L28.6 -10.15 28.7 -10.1 28.85 -10.05 Q28.95 -10.0 28.95 -9.8 29.0 -9.6 29.1 -9.55 L29.35 -9.55 30.15 -9.5 Q30.9 -9.5 31.5 -9.95 32.0 -10.3 32.0 -10.5 L31.9 -10.55 Q31.85 -10.55 31.85 -10.65 31.85 -10.75 31.9 -10.7 L32.2 -10.85 32.35 -10.75 32.6 -10.7 Q32.6 -10.65 32.7 -10.65 L32.8 -10.55 33.05 -10.5 32.9 -10.0 32.7 -9.5 32.6 -9.2 Q32.55 -9.1 32.3 -9.0 L31.7 -8.75 31.2 -8.55 Q30.9 -8.4 30.4 -8.1 L29.6 -7.6 Q29.25 -7.4 28.9 -7.0 28.6 -6.7 28.15 -6.55 L28.1 -6.55 28.1 -6.7 27.6 -6.8 27.5 -6.8 27.45 -6.75 27.65 -6.7 27.7 -6.7 Q26.95 -6.85 25.95 -6.45 25.0 -6.05 25.0 -5.75 L24.9 -5.35 Q24.9 -5.25 24.95 -5.25 L25.0 -5.2 25.35 -5.15 25.45 -5.15 Q25.45 -4.95 25.5 -4.85 L26.2 -4.8 Q26.4 -4.8 26.55 -4.9 L27.0 -4.95 26.7 -4.8 Q26.35 -4.75 25.45 -4.45 24.5 -4.1 23.4 -3.95 L21.15 -3.55 20.45 -3.4 20.45 -3.65 20.4 -3.7 20.05 -3.7 20.05 -3.8 19.85 -3.95 19.75 -3.95 19.7 -3.9 Q19.65 -3.95 19.6 -4.0 L19.6 -4.05 Q19.6 -4.1 19.55 -4.1 L19.5 -4.1 Q18.4 -4.35 17.85 -4.35 L17.8 -4.35 Q18.1 -4.55 18.55 -5.0 19.45 -5.95 19.45 -6.4 L19.45 -6.55 Q19.55 -6.85 19.55 -7.1 L19.4 -7.35 19.3 -7.4 19.5 -8.1 Q19.5 -8.4 19.15 -8.65 18.65 -9.05 18.45 -9.25 18.15 -9.45 17.3 -9.65 L16.35 -9.7 15.65 -9.8 14.5 -9.65 13.85 -9.5 13.7 -9.7 13.65 -9.7 Q13.45 -9.85 13.2 -9.85 L13.1 -9.85 13.05 -10.0 Q13.0 -10.4 12.75 -10.6 12.5 -10.85 12.0 -10.75 11.55 -10.7 11.0 -10.35 10.95 -10.4 10.95 -10.35 L10.85 -10.3 10.5 -10.0 10.4 -9.95 10.6 -10.55 Q10.65 -10.8 10.9 -11.15 L11.3 -11.75 11.6 -12.35 Q11.8 -12.7 11.8 -12.95 L11.9 -13.45 11.85 -13.65 11.75 -13.9 Q11.75 -14.0 12.0 -14.15 L12.05 -14.2 12.1 -14.2 12.7 -14.6 12.85 -14.55 12.95 -14.25 13.05 -14.2 Q13.05 -14.15 13.25 -14.0 L13.45 -14.0 Q13.7 -14.0 14.15 -14.3 14.35 -14.45 14.65 -14.7 L15.15 -15.1 Q15.55 -15.35 15.55 -15.5 L15.5 -15.6 Q15.45 -15.65 15.45 -15.7 15.45 -15.85 16.5 -16.3 17.45 -16.7 17.9 -16.8 M4.75 -4.75 Q4.8 -4.95 5.1 -5.25 L5.65 -5.7 Q5.9 -5.95 6.1 -6.0 L7.1 -6.2 7.1 -6.15 7.0 -5.75 Q6.9 -5.45 6.8 -5.45 6.75 -5.45 6.7 -5.5 L6.15 -5.55 Q5.85 -5.55 5.4 -5.25 5.0 -5.0 4.75 -4.75 M21.6 -8.75 L21.4 -8.75 21.35 -8.85 21.05 -8.85 Q20.75 -8.75 20.35 -8.35 19.95 -8.0 19.95 -7.8 L19.95 -7.65 Q19.95 -7.6 20.05 -7.55 20.1 -7.5 20.15 -7.5 L20.0 -7.15 Q19.9 -6.8 19.9 -6.75 19.9 -6.65 20.0 -6.55 L20.25 -6.35 20.6 -6.35 Q21.55 -6.7 21.95 -7.25 22.25 -7.7 22.25 -8.3 22.25 -8.55 22.05 -8.75 21.85 -9.0 21.6 -8.75 M16.05 -11.45 Q15.85 -11.35 15.4 -11.35 15.2 -11.15 15.15 -11.05 L15.15 -10.8 Q15.15 -10.6 15.2 -10.5 15.25 -10.4 15.55 -10.2 L15.75 -10.2 16.15 -10.3 16.6 -10.4 17.25 -10.25 Q17.55 -10.25 17.95 -10.6 18.3 -10.85 18.3 -11.05 18.3 -11.35 18.05 -11.65 17.7 -12.05 17.05 -12.1 L16.3 -11.75 16.05 -11.45 M-7.85 -10.4 L-8.0 -10.45 -8.1 -10.45 Q-8.3 -10.2 -8.45 -9.8 -8.55 -9.4 -8.55 -9.1 -8.55 -8.65 -8.35 -7.9 -8.1 -7.05 -7.85 -6.9 -8.0 -6.95 -8.15 -7.1 -8.35 -7.25 -9.05 -7.3 L-9.5 -7.05 -9.85 -7.05 -9.95 -7.2 -10.1 -7.3 -10.4 -7.35 Q-11.35 -6.4 -11.35 -6.05 -11.35 -5.85 -11.15 -5.65 L-11.1 -5.6 -10.95 -5.4 -10.8 -5.4 -10.8 -5.35 -10.55 -5.35 -10.45 -5.4 -10.1 -5.4 -10.05 -5.35 -9.95 -5.35 -9.7 -5.2 -9.6 -5.05 -9.5 -5.0 -9.5 -4.95 -9.55 -4.95 -9.55 -4.85 -9.75 -4.45 -9.8 -4.45 -9.75 -4.35 -9.65 -4.35 -9.0 -4.45 Q-8.95 -4.2 -8.75 -3.9 L-9.1 -3.85 -9.55 -3.85 -9.7 -3.9 -10.3 -3.8 Q-10.5 -3.7 -10.6 -3.7 -10.95 -3.9 -11.05 -4.0 L-10.9 -4.1 -10.9 -4.25 -10.85 -4.4 -10.8 -4.5 -10.95 -4.8 -11.45 -4.55 -11.7 -4.4 -12.1 -4.5 Q-12.6 -4.7 -12.95 -4.75 L-13.15 -4.8 -13.35 -4.8 Q-13.7 -4.85 -13.95 -4.7 L-14.05 -4.65 -14.2 -4.65 -14.3 -4.6 -14.45 -4.6 Q-15.4 -4.8 -15.8 -5.55 -16.15 -6.05 -16.55 -6.3 L-16.3 -6.3 -16.3 -6.35 Q-16.45 -6.5 -16.75 -6.5 L-17.35 -6.4 -18.05 -6.95 Q-18.6 -7.4 -18.6 -7.95 -18.6 -8.1 -18.55 -8.1 L-18.45 -8.15 -18.4 -8.2 Q-18.4 -8.45 -18.65 -8.95 -18.95 -9.55 -19.3 -9.5 L-19.75 -9.5 -19.9 -9.9 -19.9 -10.5 Q-19.85 -10.55 -19.85 -10.65 -19.85 -10.75 -20.0 -11.05 L-20.0 -11.1 Q-20.0 -11.55 -19.65 -12.05 L-18.7 -12.95 -18.25 -12.95 -18.15 -13.05 -18.05 -13.1 -18.0 -13.1 -17.95 -13.05 -17.9 -12.8 -17.85 -12.65 -17.75 -12.5 -17.6 -12.25 Q-17.9 -12.0 -18.0 -11.85 L-18.0 -11.55 Q-18.0 -11.2 -17.65 -10.65 L-17.2 -10.7 -17.05 -10.5 Q-16.9 -10.35 -16.65 -10.4 -16.55 -10.35 -16.45 -10.5 -16.3 -10.65 -16.3 -10.7 -16.3 -10.85 -16.5 -11.1 L-16.65 -11.3 -16.55 -11.7 Q-16.45 -12.0 -16.45 -12.1 L-16.5 -12.3 Q-16.5 -12.5 -16.4 -12.65 L-16.25 -12.65 -16.1 -12.7 -15.75 -12.6 Q-15.45 -12.6 -15.4 -12.45 L-15.3 -12.2 -15.05 -12.0 Q-14.65 -11.85 -14.55 -11.5 L-14.45 -11.3 -14.5 -11.3 -14.5 -10.9 Q-14.35 -10.35 -14.05 -10.15 -13.75 -9.9 -13.2 -9.9 -13.05 -9.9 -13.0 -10.0 L-12.75 -10.05 -12.7 -10.1 -12.65 -10.2 -12.55 -10.3 -12.25 -10.25 -11.85 -10.2 -11.7 -9.95 Q-11.65 -9.85 -11.65 -9.7 -11.65 -9.55 -11.55 -9.4 -11.5 -9.25 -11.4 -9.15 -11.15 -9.0 -10.6 -8.75 -9.95 -8.45 -9.65 -8.45 L-9.55 -8.45 -9.55 -8.4 -9.5 -8.45 -9.45 -8.65 Q-9.45 -8.9 -9.65 -9.35 -9.85 -9.8 -10.05 -9.7 L-10.05 -9.75 -10.0 -9.95 -9.95 -10.1 Q-9.95 -10.3 -9.8 -10.55 L-9.55 -10.75 -9.35 -10.9 -9.0 -11.05 -8.7 -11.25 -8.55 -11.15 -8.4 -11.0 Q-7.95 -10.95 -7.9 -10.75 L-7.9 -10.65 -7.85 -10.6 -7.75 -10.55 -7.75 -10.4 -7.8 -10.4 -7.85 -10.4 M-16.35 -4.25 L-16.25 -4.45 -16.15 -4.4 Q-16.2 -4.15 -15.9 -3.8 L-15.25 -3.15 -15.3 -3.15 -16.0 -3.45 -16.25 -3.7 Q-16.4 -3.95 -16.4 -4.05 L-16.35 -4.25 M-7.1 -3.05 L-6.95 -3.2 Q-6.8 -3.2 -6.75 -3.1 -6.7 -2.95 -6.55 -2.85 L-6.5 -2.85 -6.65 -2.7 -7.0 -2.7 Q-7.15 -2.8 -7.45 -2.9 L-7.35 -2.95 Q-7.2 -2.95 -7.1 -3.05" fill="#ffdc45" fill-rule="evenodd" stroke="none"/>
    <path d="M19.0 -20.0 Q19.0 -20.2 19.65 -20.65 20.35 -21.1 20.35 -21.15 20.35 -21.3 20.25 -21.45 20.2 -21.55 20.2 -21.7 20.2 -21.85 20.6 -22.0 20.95 -22.2 21.35 -22.25 L21.6 -22.25 Q21.75 -22.05 21.75 -21.7 L22.05 -21.75 22.15 -21.8 22.5 -21.75 Q22.8 -21.5 22.8 -21.1 22.8 -20.95 22.6 -20.6 22.4 -20.25 22.3 -20.2 L22.0 -20.2 21.85 -20.25 Q21.75 -20.35 21.55 -20.55 20.15 -20.45 19.7 -20.25 L19.2 -19.85 19.1 -19.8 Q19.0 -19.8 19.0 -20.0 M15.35 -18.0 L14.55 -17.3 14.25 -16.9 Q14.05 -16.55 13.95 -16.5 L13.5 -16.35 12.8 -16.15 Q12.75 -16.15 12.75 -16.35 12.75 -16.45 12.85 -16.6 12.95 -16.75 12.95 -16.9 12.95 -17.05 12.85 -17.1 L12.75 -17.1 Q13.05 -17.3 13.6 -17.5 14.1 -17.65 14.5 -17.95 15.0 -18.3 15.3 -18.45 15.9 -18.8 16.3 -18.65 L15.85 -18.3 15.35 -18.0 M12.7 -11.95 Q12.7 -12.0 12.7 -12.2 12.7 -12.45 13.2 -12.7 13.6 -12.9 14.3 -13.15 14.75 -13.3 14.9 -13.6 15.05 -13.95 15.6 -14.15 L15.8 -14.15 15.85 -14.1 15.9 -14.1 16.05 -13.85 Q16.15 -13.65 16.15 -13.5 16.15 -13.25 15.85 -13.0 15.55 -12.8 15.55 -12.45 15.55 -12.2 14.65 -11.8 13.95 -11.5 13.55 -11.4 L13.45 -11.5 13.55 -11.35 13.45 -11.35 Q13.4 -11.45 13.25 -11.7 L13.2 -11.9 13.05 -12.15 13.05 -12.05 12.8 -11.95 12.7 -11.95 M20.15 -13.7 L20.2 -13.45 Q20.2 -13.35 20.35 -13.2 L20.45 -13.1 20.55 -13.1 Q20.6 -13.05 20.6 -12.9 20.6 -12.55 20.0 -12.2 19.4 -11.8 19.2 -11.65 L19.2 -11.65 19.1 -11.65 Q19.1 -11.7 19.2 -11.85 L19.2 -12.05 Q19.2 -12.85 18.25 -13.05 L17.15 -13.05 17.0 -13.1 16.95 -13.15 17.25 -13.5 Q17.55 -13.7 18.4 -13.65 19.3 -13.55 19.55 -13.75 19.8 -14.0 20.1 -13.95 L20.15 -13.7 M21.0 -10.1 Q21.0 -9.95 20.9 -9.9 L20.5 -9.75 Q20.3 -9.7 20.2 -9.7 19.55 -9.7 19.35 -9.8 19.1 -9.95 18.65 -10.0 L18.6 -10.05 18.6 -10.2 Q18.6 -10.35 18.85 -10.65 19.2 -10.9 19.4 -10.95 19.6 -10.6 20.05 -10.35 20.5 -10.05 21.0 -10.1 M25.65 -10.4 Q25.55 -10.25 25.55 -10.15 25.55 -9.8 25.8 -9.5 26.15 -9.1 26.9 -9.15 L26.95 -9.0 27.45 -8.9 27.9 -8.8 27.9 -8.45 Q27.95 -8.3 28.0 -8.15 27.7 -7.95 27.65 -8.0 L27.7 -8.1 Q25.95 -8.1 24.75 -7.1 23.75 -6.25 23.75 -5.6 23.75 -5.35 24.0 -5.25 24.2 -5.1 24.2 -4.85 24.2 -4.5 23.85 -4.45 L23.15 -4.4 22.1 -4.15 21.35 -4.0 Q21.2 -4.0 21.0 -4.15 L20.65 -4.45 19.55 -4.5 19.5 -4.5 Q19.45 -4.5 19.45 -4.65 19.45 -4.75 19.75 -5.05 L20.2 -5.5 Q22.1 -5.6 23.1 -6.85 23.85 -7.8 23.85 -8.85 L23.6 -9.05 23.15 -9.45 Q23.2 -9.65 23.55 -9.85 L24.2 -10.1 Q24.2 -10.3 24.3 -10.45 24.65 -10.5 25.15 -10.7 25.65 -10.9 25.8 -10.95 L25.85 -10.8 25.65 -10.4 M26.15 -18.85 L26.0 -18.9 Q25.9 -18.95 25.85 -19.0 26.65 -19.8 27.2 -19.45 27.6 -19.15 27.5 -18.65 L27.7 -18.6 28.1 -17.55 Q28.3 -16.95 28.3 -16.6 28.3 -16.3 28.1 -16.15 28.05 -16.1 27.35 -15.7 L27.1 -15.75 27.05 -15.7 Q27.0 -15.7 27.0 -15.85 27.0 -15.9 27.15 -16.45 L27.3 -17.05 Q27.3 -17.6 27.25 -17.75 27.0 -18.25 26.1 -18.3 26.0 -18.55 26.15 -18.85" fill="#ffff66" fill-rule="evenodd" stroke="none"/>
  </g>
</svg>
