<?xml version="1.0" encoding="UTF-8" standalone="no"?>
<svg xmlns:ffdec="https://www.free-decompiler.com/flash" xmlns:xlink="http://www.w3.org/1999/xlink" ffdec:objectType="shape" height="12.8px" width="50.9px" xmlns="http://www.w3.org/2000/svg">
  <g transform="matrix(1.0, 0.0, 0.0, 1.0, 27.5, 9.05)">
    <path d="M1.4 -3.75 Q2.05 -3.55 2.05 -3.15 2.05 -2.6 0.6 -1.85 L0.35 -1.7 0.15 -1.6 Q-1.7 -0.45 -2.75 -0.55 -2.5 -0.7 -1.45 -1.25 -1.2 -1.5 -0.05 -2.05 1.2 -2.65 1.45 -3.15 L1.15 -3.4 1.15 -3.45 0.6 -3.65 -0.5 -3.95 -1.55 -4.05 -1.75 -4.1 Q-1.95 -4.15 -1.95 -4.2 -0.7 -4.55 0.7 -4.0 L1.1 -3.85 1.4 -3.75 M7.2 -1.2 Q6.6 -1.3 6.1 -1.55 L6.1 -1.6 9.4 -1.65 12.4 -1.8 12.45 -1.75 Q12.5 -1.75 12.5 -1.55 12.5 -1.3 11.85 -1.15 L9.7 -1.05 7.2 -1.2 M19.5 -8.95 L19.55 -9.0 Q22.15 -8.7 22.9 -8.4 23.4 -8.2 23.4 -7.65 23.4 -7.2 21.6 -6.5 19.95 -5.85 18.85 -5.65 L17.9 -5.65 20.4 -6.55 Q22.45 -7.3 23.25 -7.75 L23.3 -7.9 Q23.05 -8.15 21.85 -8.4 20.3 -8.7 19.5 -8.9 L19.5 -8.95 M18.2 -9.05 Q18.35 -9.0 18.45 -8.85 18.45 -8.75 18.4 -8.65 18.35 -8.6 18.2 -8.55 L18.0 -8.6 Q17.95 -8.65 17.95 -8.85 17.95 -9.0 18.05 -9.05 L18.2 -9.05 M17.2 -8.25 L17.25 -7.95 Q17.25 -7.6 16.5 -7.05 15.7 -6.45 14.4 -5.9 10.95 -4.5 6.4 -4.5 2.35 -4.5 -0.3 -5.35 -1.25 -5.65 -1.85 -6.0 -2.35 -6.3 -2.35 -6.45 -2.35 -6.65 -2.2 -6.75 L-1.9 -6.8 Q-1.65 -6.8 -1.25 -6.6 -0.65 -6.25 0.0 -6.1 2.45 -5.35 8.2 -5.35 11.25 -5.35 14.0 -6.65 15.9 -7.55 16.9 -8.65 17.15 -8.4 17.2 -8.25 M-26.25 -0.05 Q-25.55 0.3 -23.85 0.55 L-20.65 1.05 -20.55 1.3 -20.65 1.5 -21.75 1.55 Q-23.85 1.55 -25.8 0.95 -27.5 0.5 -27.5 0.15 -27.5 -0.4 -25.6 -1.05 -23.25 -1.7 -22.3 -2.05 -22.3 -2.0 -22.2 -1.9 L-22.0 -1.8 Q-22.3 -1.5 -24.15 -1.0 -25.95 -0.5 -26.25 -0.05 M-19.1 -1.05 Q-19.65 -1.5 -19.65 -1.7 -19.65 -2.3 -19.1 -2.3 -18.85 -2.3 -18.4 -1.95 -17.75 -1.35 -17.25 -1.1 -15.1 0.15 -10.55 0.15 -7.8 0.15 -5.35 -1.25 -4.35 -1.85 -3.7 -2.45 -3.15 -3.05 -3.15 -3.5 -3.15 -3.65 -3.25 -3.7 -3.35 -3.75 -3.35 -3.8 L-2.85 -3.85 -2.3 -3.85 Q-2.25 -3.75 -2.25 -3.45 -2.25 -2.85 -2.95 -2.1 -3.65 -1.25 -4.9 -0.55 -8.0 1.15 -12.25 1.15 -15.15 1.15 -17.6 -0.1 -18.5 -0.55 -19.1 -1.05 M-2.75 -3.45 Q-2.8 -3.3 -3.0 -3.05 -2.85 -3.1 -2.75 -3.25 L-2.65 -3.5 -2.75 -3.45 M-6.65 3.25 L-7.35 3.5 Q-8.25 3.75 -10.05 3.75 L-12.25 3.55 -12.3 3.55 Q-12.35 3.5 -12.45 3.5 -12.0 3.2 -9.8 3.05 -7.45 2.8 -6.65 3.1 L-6.65 3.25" fill="#c4d96a" fill-rule="evenodd" stroke="none"/>
  </g>
</svg>
