<?xml version="1.0" encoding="UTF-8" standalone="no"?>
<svg xmlns:ffdec="https://www.free-decompiler.com/flash" xmlns:xlink="http://www.w3.org/1999/xlink" ffdec:objectType="shape" height="32.15px" width="70.15px" xmlns="http://www.w3.org/2000/svg">
  <g transform="matrix(1.0, 0.0, 0.0, 1.0, 30.95, 28.55)">
    <path d="M21.5 -0.15 Q21.5 -0.25 22.15 -0.5 22.9 -0.8 23.65 -1.05 25.95 -1.75 26.75 -1.3 L26.9 -1.15 Q26.7 -0.9 25.1 -0.65 23.25 -0.3 22.5 0.05 L21.9 -0.05 21.5 -0.15 M32.8 -5.15 Q31.8 -5.4 30.65 -5.45 L30.4 -5.6 Q30.2 -5.7 30.15 -5.8 31.8 -6.35 34.8 -5.4 35.95 -5.05 36.8 -4.65 37.65 -4.2 37.65 -3.95 37.65 -3.05 34.55 -2.3 30.95 -1.55 29.9 -1.15 L29.45 -1.2 Q29.05 -1.25 28.95 -1.35 L29.5 -1.6 29.25 -1.55 Q28.85 -1.45 28.85 -1.85 28.85 -2.15 31.8 -2.8 L33.75 -3.15 Q34.85 -3.6 35.45 -3.95 L34.75 -4.2 Q33.25 -4.75 32.8 -5.1 L32.8 -5.15 M8.6 1.65 L8.9 2.0 Q7.45 3.4 3.45 3.25 L0.2 3.05 Q-1.7 2.95 -2.75 3.05 L-4.5 3.05 -4.15 2.65 -3.9 2.4 4.0 2.0 7.1 1.65 7.1 1.55 8.6 1.65 M-24.05 -0.75 Q-24.15 -0.65 -26.25 0.05 -28.45 0.75 -28.95 1.05 -28.65 1.15 -28.35 1.4 -28.05 1.65 -27.8 1.75 -26.9 2.05 -23.55 2.3 L-23.45 2.35 Q-23.35 2.4 -23.35 2.45 L-21.25 2.55 Q-20.2 2.6 -19.75 2.55 L-19.75 2.85 -17.2 2.8 -16.05 2.9 -15.95 3.05 -16.5 3.2 Q-16.95 3.35 -17.1 3.45 L-22.75 3.55 Q-23.7 3.5 -24.25 3.55 L-25.05 3.6 Q-28.05 3.6 -29.8 2.5 -30.35 2.15 -30.7 1.75 -30.95 1.45 -30.95 1.3 -30.95 0.5 -28.35 -0.15 -25.25 -0.8 -24.25 -1.1 L-24.05 -0.75" fill="#c4d96a" fill-rule="evenodd" stroke="none"/>
    <path d="M22.3 -23.75 Q23.4 -23.75 23.35 -22.85 23.3 -22.55 23.15 -22.2 L22.95 -21.7 Q23.8 -22.3 26.05 -24.3 28.4 -26.4 29.55 -27.2 31.4 -28.6 32.35 -28.55 33.5 -28.45 33.5 -26.35 33.5 -25.85 32.65 -24.0 31.85 -22.2 32.0 -21.6 L32.0 -21.45 33.05 -21.45 34.4 -22.05 Q35.75 -22.65 36.3 -22.65 38.05 -22.65 38.8 -21.85 39.2 -21.45 39.2 -21.0 39.2 -19.75 35.85 -16.25 32.35 -12.8 31.95 -12.25 L31.9 -12.2 32.9 -12.1 32.9 -11.85 32.95 -11.35 Q32.95 -11.05 31.8 -9.4 L31.25 -8.7 Q31.35 -8.6 31.4 -8.45 L31.3 -8.15 Q31.15 -8.05 30.95 -8.05 L30.85 -7.95 30.7 -8.0 30.3 -7.6 30.45 -8.05 30.05 -8.0 Q30.0 -7.95 29.95 -8.0 29.85 -8.0 29.85 -8.35 29.85 -8.65 30.2 -9.1 30.55 -9.6 30.55 -9.75 30.55 -10.1 30.5 -10.05 L30.45 -9.95 Q30.3 -9.85 29.75 -9.65 L28.65 -9.25 Q28.4 -9.45 28.3 -9.6 28.25 -9.75 28.25 -10.2 28.25 -10.8 29.0 -12.0 30.0 -13.6 30.15 -13.95 L30.15 -14.9 Q28.75 -14.6 27.05 -13.4 L26.2 -12.7 25.0 -11.75 Q22.85 -9.75 21.95 -9.15 L21.95 -9.55 Q21.95 -9.85 22.1 -10.45 L22.1 -10.6 Q22.1 -11.05 22.65 -12.0 L22.8 -12.5 Q23.7 -14.65 23.7 -15.3 23.7 -15.85 23.65 -15.85 23.6 -15.85 23.4 -15.95 23.2 -16.0 22.85 -16.0 20.4 -16.0 18.8 -12.8 18.3 -11.75 17.95 -10.5 L17.85 -10.0 Q18.05 -9.6 18.3 -9.1 L18.6 -8.6 19.05 -8.9 19.7 -9.35 Q19.8 -9.3 19.95 -9.35 20.05 -9.3 20.05 -8.95 20.05 -8.45 19.3 -7.7 L19.1 -7.5 19.4 -7.2 Q19.7 -6.9 19.8 -6.7 L19.55 -6.4 Q19.25 -6.05 19.05 -5.95 L18.55 -5.95 Q18.55 -6.0 18.5 -5.95 18.45 -6.0 18.45 -6.3 17.7 -5.95 16.3 -5.4 13.4 -4.2 12.55 -4.2 12.15 -4.2 11.8 -4.3 L11.65 -4.15 Q11.3 -3.8 10.4 -3.8 9.8 -3.8 9.3 -3.95 L6.95 -4.1 Q5.7 -4.1 4.85 -4.55 4.6 -4.7 4.45 -4.85 4.2 -4.7 3.75 -4.6 3.05 -4.5 2.6 -4.5 2.15 -4.5 1.7 -4.85 1.15 -5.0 0.75 -5.2 L0.6 -5.15 0.3 -5.1 Q0.1 -5.05 -0.05 -4.95 -0.5 -4.65 -0.55 -4.65 -0.9 -4.65 -0.95 -4.7 L-0.9 -4.75 -1.0 -5.15 -1.0 -5.65 Q-1.0 -8.35 -0.5 -9.2 -0.15 -9.7 0.45 -9.5 1.05 -9.65 2.1 -8.7 2.8 -8.1 3.45 -7.25 3.75 -7.3 4.05 -7.85 4.45 -8.65 4.55 -8.75 L4.6 -8.7 Q5.45 -9.85 5.9 -10.35 L6.2 -10.6 Q7.3 -11.9 8.05 -11.95 8.35 -12.1 8.65 -12.2 8.8 -11.9 8.95 -11.45 L9.2 -10.8 Q10.3 -11.7 12.4 -14.0 L16.2 -18.35 Q18.5 -20.9 19.8 -22.1 21.55 -23.75 22.3 -23.75 M8.1 -7.9 Q7.9 -7.95 7.85 -7.9 7.35 -7.45 6.85 -6.85 6.35 -6.15 6.4 -5.8 L6.4 -5.65 6.75 -5.55 7.15 -5.45 Q7.9 -5.6 8.05 -6.35 8.15 -6.65 8.1 -7.15 L8.1 -7.9 M18.85 -8.0 L19.1 -8.25 18.85 -8.1 18.85 -8.0 M14.3 -9.4 Q14.3 -9.05 14.0 -7.7 14.45 -8.45 14.45 -9.05 14.45 -9.45 14.3 -9.65 L14.3 -9.4 M13.5 -10.5 L13.0 -10.1 Q12.5 -9.65 12.15 -9.25 11.45 -7.95 11.45 -7.1 11.45 -6.1 11.8 -5.6 12.2 -5.8 12.8 -6.25 L13.0 -6.4 13.35 -6.75 13.5 -7.0 13.55 -7.05 Q14.2 -8.85 14.15 -9.85 L13.9 -10.1 Q13.65 -10.25 13.5 -10.5 M-26.5 -13.0 Q-23.8 -12.85 -23.2 -12.45 -23.05 -12.35 -22.65 -11.9 -22.3 -11.5 -21.85 -11.15 -21.7 -11.05 -21.55 -11.05 -21.3 -11.05 -21.3 -11.35 -21.3 -11.45 -21.85 -13.25 -22.4 -15.1 -22.4 -15.65 -22.4 -16.5 -22.2 -17.15 -21.85 -18.25 -21.0 -18.25 -19.45 -18.25 -17.6 -16.75 L-16.45 -15.7 Q-15.95 -15.25 -15.75 -15.25 -14.2 -15.25 -13.45 -16.65 -13.15 -17.15 -12.95 -17.9 L-12.6 -19.2 Q-12.2 -20.55 -11.6 -20.55 -10.75 -20.5 -8.85 -18.25 -8.2 -16.95 -6.75 -13.45 L-6.0 -11.5 Q-5.6 -10.7 -5.25 -9.5 -4.85 -8.75 -4.7 -8.05 -4.6 -7.4 -4.55 -7.2 -4.45 -6.9 -4.1 -6.8 L-2.8 -6.7 Q-2.35 -6.7 -2.15 -6.35 -2.05 -6.15 -1.9 -5.6 -1.8 -5.0 -1.65 -4.8 -1.4 -4.4 -0.85 -4.35 -0.55 -4.3 -0.5 -4.2 -0.45 -4.1 -0.45 -3.7 -0.45 -3.2 -0.75 -2.95 -1.0 -2.7 -1.4 -2.7 -2.0 -2.7 -2.55 -3.55 -2.8 -4.0 -3.0 -4.5 -3.35 -4.4 -3.6 -4.1 -3.75 -3.85 -4.35 -3.85 -4.8 -3.85 -5.5 -4.55 -5.85 -4.9 -6.75 -6.0 -7.6 -7.05 -8.0 -7.45 -8.7 -8.15 -9.2 -8.15 -9.8 -8.15 -10.1 -7.7 -10.3 -7.4 -10.45 -6.7 -10.65 -5.95 -10.8 -5.7 -11.1 -5.25 -11.7 -5.25 L-12.2 -5.3 -12.25 -5.35 Q-12.25 -6.2 -11.8 -7.1 -11.3 -8.05 -11.3 -8.3 -11.3 -8.75 -11.45 -9.3 -11.6 -9.9 -11.8 -10.25 -13.65 -9.55 -14.7 -6.1 L-15.3 -3.8 Q-15.6 -2.8 -15.9 -2.8 -16.55 -2.8 -17.65 -4.7 -18.7 -6.4 -19.0 -7.55 L-19.15 -7.6 Q-20.0 -7.35 -20.25 -6.9 -20.3 -6.8 -20.3 -6.25 -20.3 -5.2 -19.55 -3.95 -19.2 -3.4 -18.2 -2.2 -17.1 -2.1 -16.65 -1.55 -16.3 -1.15 -16.3 -0.2 -16.3 0.3 -16.8 0.65 -17.2 0.85 -17.5 0.85 L-17.95 0.85 -18.15 0.95 -20.3 0.9 -20.35 1.0 Q-20.45 1.0 -20.45 0.65 -20.45 0.3 -20.25 0.25 -20.0 0.2 -19.95 0.15 L-19.75 0.1 Q-22.4 -0.3 -22.4 -1.25 -22.4 -1.4 -22.25 -1.45 -21.95 -1.65 -21.5 -2.05 L-21.85 -2.6 Q-22.15 -3.0 -22.45 -3.3 -23.5 -4.25 -25.1 -4.25 -25.5 -3.8 -25.55 -3.5 L-25.55 -3.1 -25.6 -3.0 Q-25.7 -2.9 -25.8 -2.8 L-25.95 -2.9 -26.25 -2.8 Q-26.3 -2.8 -26.9 -3.2 L-26.2 -2.55 Q-26.7 -2.65 -27.95 -3.4 -29.35 -4.15 -29.35 -4.5 -29.35 -5.0 -28.85 -5.3 -28.5 -5.5 -27.6 -5.75 L-25.9 -6.15 Q-24.85 -6.4 -24.15 -6.85 -24.45 -7.3 -25.1 -7.9 L-26.25 -8.95 Q-27.6 -10.2 -27.6 -11.0 -27.6 -11.5 -27.2 -12.1 -26.65 -12.75 -26.5 -13.0" fill="#c4d96a" fill-rule="evenodd" stroke="none"/>
  </g>
</svg>
