<?xml version="1.0" encoding="UTF-8" standalone="no"?>
<svg xmlns:ffdec="https://www.free-decompiler.com/flash" xmlns:xlink="http://www.w3.org/1999/xlink" ffdec:objectType="shape" height="16.8px" width="17.6px" xmlns="http://www.w3.org/2000/svg">
  <g transform="matrix(1.0, 0.0, 0.0, 1.0, 8.1, 7.75)">
    <path d="M4.15 -7.0 Q4.1 -6.75 3.95 -6.6 L3.7 -6.65 3.6 -6.7 Q3.55 -6.85 3.6 -7.0 3.65 -7.25 3.85 -7.25 L3.85 -7.3 Q4.15 -7.3 4.15 -7.0 M4.3 -4.85 L4.45 -4.8 4.65 -4.7 4.7 -4.6 Q4.7 -4.4 4.65 -4.25 L4.55 -4.05 4.35 -4.0 Q4.15 -3.9 4.0 -4.05 3.9 -4.2 3.95 -4.4 4.0 -4.75 4.3 -4.85 M1.05 -5.45 Q1.1 -5.25 1.0 -5.05 0.7 -4.75 0.4 -5.05 L0.35 -5.15 Q0.3 -5.3 0.4 -5.45 0.55 -5.65 0.75 -5.7 1.0 -5.7 1.05 -5.45 M0.35 -0.7 Q0.15 -0.45 0.0 -0.75 L0.05 -0.95 0.05 -1.0 Q0.1 -1.1 0.25 -1.1 0.65 -1.0 0.35 -0.7 M3.0 -2.0 Q2.95 -2.25 3.1 -2.4 3.25 -2.55 3.45 -2.6 3.7 -2.6 3.75 -2.35 3.8 -2.15 3.7 -1.95 3.5 -1.75 3.2 -1.8 3.05 -1.85 3.0 -2.0 M9.1 -3.9 Q8.8 -4.0 9.15 -4.15 9.55 -3.75 9.1 -3.9 M9.35 4.8 Q9.15 5.05 9.0 4.8 L9.0 4.6 Q9.0 4.35 9.2 4.35 9.65 4.45 9.35 4.8 M3.55 3.45 Q3.25 3.6 3.15 3.3 3.15 3.15 3.25 3.1 3.4 3.0 3.55 2.95 3.95 3.2 3.55 3.45 M5.05 1.3 L5.05 1.35 Q5.1 1.55 4.95 1.7 4.8 1.95 4.5 1.85 4.3 1.65 4.4 1.45 4.5 1.2 4.7 1.15 L4.85 1.2 5.05 1.3 M0.65 5.35 Q0.6 5.65 0.3 5.6 0.05 5.5 0.05 5.25 0.05 4.95 0.35 4.95 0.7 4.95 0.65 5.35 M2.4 8.95 Q2.15 9.15 2.1 8.85 L2.1 8.75 Q2.15 8.6 2.3 8.6 L2.3 8.55 Q2.8 8.7 2.4 8.95 M-7.7 -3.0 Q-7.9 -2.75 -8.1 -3.0 L-8.1 -3.15 Q-8.15 -3.3 -7.95 -3.4 L-7.9 -3.4 Q-7.45 -3.35 -7.7 -3.0 M-1.3 -7.3 Q-1.2 -7.25 -1.05 -7.25 -0.9 -7.2 -0.85 -7.05 -0.75 -6.7 -1.0 -6.4 -1.3 -6.15 -1.6 -6.4 -1.65 -6.6 -1.65 -6.85 -1.55 -7.2 -1.3 -7.3 M-4.05 -7.75 Q-3.5 -7.6 -3.9 -7.2 -4.25 -6.85 -4.4 -7.25 -4.4 -7.35 -4.35 -7.45 -4.2 -7.65 -4.05 -7.75 M-4.95 -2.15 L-4.75 -2.05 Q-4.6 -1.7 -4.75 -1.4 -5.0 -0.95 -5.45 -1.25 -5.55 -1.45 -5.5 -1.7 -5.4 -2.05 -5.1 -2.15 L-4.95 -2.15 M-2.65 -3.15 L-2.45 -3.1 Q-2.35 -2.8 -2.45 -2.5 -2.65 -2.05 -3.1 -2.35 -3.15 -2.55 -3.15 -2.75 -3.1 -3.1 -2.8 -3.2 L-2.65 -3.15 M-0.65 2.15 L-0.45 2.25 Q-0.35 2.55 -0.55 2.8 -0.8 3.2 -1.15 3.0 -1.3 2.8 -1.2 2.6 -1.1 2.25 -0.8 2.15 L-0.65 2.15 M-2.9 4.15 Q-3.0 4.4 -3.2 4.5 -3.6 4.45 -3.5 3.95 -3.4 3.7 -3.2 3.65 -2.8 3.7 -2.9 4.15 M-3.7 1.65 Q-3.6 1.8 -3.7 1.9 -3.8 2.15 -4.05 2.1 -4.15 2.1 -4.25 1.95 -4.25 1.85 -4.2 1.75 -4.2 1.6 -4.0 1.5 L-3.95 1.5 Q-3.8 1.5 -3.7 1.65 M-6.25 8.0 Q-5.9 8.2 -6.25 8.45 -6.5 8.65 -6.5 8.35 -6.55 8.2 -6.5 8.15 -6.4 8.0 -6.25 8.0 M-7.6 3.2 Q-7.85 3.45 -7.95 3.1 -7.95 3.0 -7.9 2.9 -7.8 2.75 -7.65 2.7 -7.25 2.9 -7.6 3.2" fill="#ffffff" fill-rule="evenodd" stroke="none"/>
  </g>
</svg>
