<?xml version="1.0" encoding="UTF-8" standalone="no"?>
<svg xmlns:ffdec="https://www.free-decompiler.com/flash" xmlns:xlink="http://www.w3.org/1999/xlink" ffdec:objectType="shape" height="3.8px" width="2.2px" xmlns="http://www.w3.org/2000/svg">
  <g transform="matrix(1.0, 0.0, 0.0, 1.0, -15.3, 10.4)">
    <path d="M16.45 -10.25 L16.15 -10.1 Q15.95 -9.95 15.95 -9.85 15.95 -9.8 16.2 -9.7 16.4 -9.6 16.55 -9.6 16.9 -9.6 16.9 -9.5 L16.75 -9.3 16.7 -9.25 Q16.7 -9.05 16.85 -8.9 L17.05 -8.75 Q17.5 -8.45 17.5 -8.1 L17.5 -7.8 17.4 -7.7 17.35 -7.8 Q17.3 -7.85 17.1 -7.85 L17.0 -7.8 16.7 -7.55 Q16.4 -7.35 16.4 -7.15 L16.5 -6.95 16.5 -6.9 16.35 -6.9 16.3 -6.95 16.25 -6.9 15.95 -6.65 15.85 -6.6 15.8 -6.65 15.95 -6.85 Q16.1 -7.05 16.1 -7.25 16.1 -7.3 15.9 -7.55 15.9 -7.6 16.05 -7.65 L16.25 -7.75 Q16.5 -7.9 16.55 -8.0 L16.65 -8.25 16.65 -8.5 Q16.65 -8.6 16.5 -8.7 L16.3 -8.8 16.35 -8.95 16.45 -9.1 Q16.45 -9.15 16.3 -9.3 16.2 -9.45 16.05 -9.45 L15.75 -9.45 15.7 -9.4 15.65 -9.3 15.65 -9.25 15.6 -9.2 15.8 -9.1 16.05 -9.25 Q16.2 -9.35 16.2 -9.15 16.2 -9.1 16.15 -9.05 L15.95 -9.0 15.75 -9.0 15.75 -9.05 15.55 -9.2 15.45 -9.3 Q15.3 -9.45 15.3 -9.8 15.3 -9.95 15.5 -10.15 15.75 -10.4 16.15 -10.4 L16.3 -10.35 16.45 -10.25 M16.05 -10.25 L16.0 -10.3 Q15.85 -10.25 15.65 -10.05 15.45 -9.85 15.45 -9.8 15.45 -9.6 15.55 -9.5 L15.6 -9.5 Q15.65 -9.55 15.75 -9.55 L15.85 -9.6 15.9 -9.6 15.8 -9.85 15.9 -10.1 16.05 -10.25 M16.3 -7.4 L16.45 -7.55 16.8 -7.85 17.0 -7.95 17.05 -7.95 17.2 -8.0 17.35 -7.95 17.4 -8.0 17.3 -8.2 Q17.25 -8.4 17.05 -8.6 16.8 -8.8 16.8 -8.6 L16.9 -8.35 Q16.9 -8.1 16.55 -7.8 L16.2 -7.55 16.3 -7.45 16.25 -7.4 16.3 -7.4 M16.4 -9.5 L16.4 -9.45 Q16.5 -9.4 16.55 -9.35 L16.55 -9.25 Q16.65 -9.25 16.65 -9.3 16.6 -9.35 16.65 -9.4 L16.7 -9.45 Q16.7 -9.5 16.55 -9.5 L16.45 -9.5 15.95 -9.6 16.4 -9.5" fill="#ffb74c" fill-rule="evenodd" stroke="none"/>
    <path d="M16.05 -10.25 L15.9 -10.1 15.8 -9.85 15.9 -9.6 15.85 -9.6 15.75 -9.55 Q15.65 -9.55 15.6 -9.5 L15.55 -9.5 Q15.45 -9.6 15.45 -9.8 15.45 -9.85 15.65 -10.05 15.85 -10.25 16.0 -10.3 L16.05 -10.25 M15.6 -9.75 L15.65 -9.75 15.75 -9.8 Q15.75 -9.9 15.65 -9.9 15.55 -9.9 15.55 -9.8 L15.6 -9.75 M16.4 -9.5 L15.95 -9.6 16.45 -9.5 16.55 -9.5 Q16.7 -9.5 16.7 -9.45 L16.65 -9.4 Q16.6 -9.35 16.65 -9.3 16.65 -9.25 16.55 -9.25 L16.55 -9.35 Q16.5 -9.4 16.4 -9.45 L16.4 -9.5 M16.3 -7.4 L16.25 -7.4 16.3 -7.45 16.2 -7.55 16.55 -7.8 Q16.9 -8.1 16.9 -8.35 L16.8 -8.6 Q16.8 -8.8 17.05 -8.6 17.25 -8.4 17.3 -8.2 L17.4 -8.0 17.35 -7.95 17.2 -8.0 17.05 -7.95 17.0 -7.95 16.8 -7.85 16.45 -7.55 16.3 -7.4 M17.15 -8.25 L17.1 -8.25 Q17.0 -8.25 17.0 -8.15 L17.0 -8.1 17.05 -8.1 17.15 -8.15 17.15 -8.25" fill="#ffdc45" fill-rule="evenodd" stroke="none"/>
    <path d="M15.6 -9.75 L15.55 -9.8 Q15.55 -9.9 15.65 -9.9 15.75 -9.9 15.75 -9.8 L15.65 -9.75 15.6 -9.75 M17.15 -8.25 L17.15 -8.15 17.05 -8.1 17.0 -8.1 17.0 -8.15 Q17.0 -8.25 17.1 -8.25 L17.15 -8.25" fill="#ffff66" fill-rule="evenodd" stroke="none"/>
  </g>
</svg>
