<?xml version="1.0" encoding="UTF-8" standalone="no"?>
<svg xmlns:ffdec="https://www.free-decompiler.com/flash" xmlns:xlink="http://www.w3.org/1999/xlink" ffdec:objectType="shape" height="3.0px" width="9.55px" xmlns="http://www.w3.org/2000/svg">
  <g transform="matrix(1.0, 0.0, 0.0, 1.0, 4.4, 0.85)">
    <path d="M4.0 -0.55 Q4.65 -0.3 4.85 0.05 L5.0 0.25 Q5.15 0.5 5.15 0.65 L5.1 0.8 Q5.05 1.3 4.35 1.65 3.5 2.05 2.2 2.05 L2.1 2.0 2.05 2.05 0.05 2.15 -0.4 2.1 -0.8 2.1 -1.2 2.05 -1.5 2.1 Q-2.2 2.1 -3.2 1.8 -4.35 1.45 -4.35 1.1 L-4.35 0.95 -4.4 0.8 Q-4.4 0.6 -4.3 0.45 L-4.2 0.3 Q-4.15 0.1 -3.6 -0.15 -3.0 -0.4 -2.85 -0.45 -2.55 -0.6 -1.3 -0.75 -1.05 -0.8 -0.65 -0.65 -0.15 -0.45 0.3 -0.45 L1.45 -0.45 1.6 -0.7 Q1.85 -0.95 2.55 -0.8 L2.8 -0.8 2.85 -0.75 Q3.4 -0.85 4.0 -0.55" fill="#ffcc66" fill-opacity="0.3372549" fill-rule="evenodd" stroke="none"/>
  </g>
</svg>
