<?xml version="1.0" encoding="UTF-8" standalone="no"?>
<svg xmlns:ffdec="https://www.free-decompiler.com/flash" xmlns:xlink="http://www.w3.org/1999/xlink" ffdec:objectType="shape" height="3.15px" width="9.85px" xmlns="http://www.w3.org/2000/svg">
  <g transform="matrix(1.0, 0.0, 0.0, 1.0, 4.45, 1.0)">
    <path d="M0.4 -0.75 Q0.4 -0.85 0.5 -0.9 L1.0 -1.0 1.95 -0.95 2.65 -0.95 3.6 -0.7 3.95 -0.45 Q4.2 -0.3 5.05 -0.25 5.25 -0.15 5.35 0.05 L5.4 0.45 Q5.4 1.1 4.6 1.55 3.55 2.15 1.55 2.15 L-0.1 2.15 -0.3 2.1 -0.75 2.0 -2.15 1.95 -2.55 1.9 -2.8 1.9 Q-3.75 1.8 -4.15 1.35 -4.45 1.1 -4.45 0.7 -4.45 0.25 -4.05 -0.1 -3.55 -0.6 -2.6 -0.65 L-2.55 -0.6 -2.45 -0.6 -1.7 -0.5 Q-1.25 -0.4 -0.95 -0.4 0.15 -0.4 0.35 -0.65 L0.45 -0.75 0.4 -0.75" fill="#ffcc66" fill-opacity="0.3372549" fill-rule="evenodd" stroke="none"/>
  </g>
</svg>
