<?xml version="1.0" encoding="UTF-8" standalone="no"?>
<svg xmlns:ffdec="https://www.free-decompiler.com/flash" xmlns:xlink="http://www.w3.org/1999/xlink" ffdec:objectType="shape" height="4.0px" width="9.8px" xmlns="http://www.w3.org/2000/svg">
  <g transform="matrix(1.0, 0.0, 0.0, 1.0, 4.5, 1.8)">
    <path d="M2.6 -1.45 L2.5 -1.45 2.2 -1.4 Q2.1 -1.35 2.05 -1.3 L1.95 -1.2 1.85 -1.35 1.85 -1.4 1.8 -1.4 1.8 -1.45 1.7 -1.55 Q1.7 -1.75 2.0 -1.75 L2.65 -1.8 Q2.8 -1.85 2.95 -1.7 L3.25 -1.45 3.25 -1.4 3.2 -1.4 3.15 -1.45 2.6 -1.45 M1.95 -0.9 Q2.25 -1.2 2.7 -1.15 L3.25 -1.05 Q3.55 -1.0 3.7 -0.95 L3.8 -0.9 4.05 -0.85 Q4.4 -0.75 4.8 -0.55 5.05 -0.4 5.2 -0.1 5.3 0.1 5.3 0.35 L5.3 0.65 5.25 0.7 Q5.25 1.4 3.75 1.9 2.65 2.2 2.05 2.2 1.35 2.2 1.0 2.1 L0.8 2.05 0.75 2.05 0.65 2.0 0.4 1.85 0.0 1.8 -0.05 1.7 -0.1 1.7 -0.65 1.8 -1.85 1.95 -2.75 1.85 -2.9 1.75 Q-3.75 1.6 -4.15 1.35 -4.5 1.1 -4.5 0.65 -4.5 -0.55 -2.0 -0.95 -1.85 -1.1 -1.25 -1.15 L-0.6 -1.15 0.0 -1.1 Q0.1 -1.05 0.4 -0.95 L1.75 -0.85 1.95 -0.9 M3.05 -1.55 L3.05 -1.55" fill="#ffcc66" fill-opacity="0.3372549" fill-rule="evenodd" stroke="none"/>
  </g>
</svg>
