<?xml version="1.0" encoding="UTF-8" standalone="no"?>
<svg xmlns:ffdec="https://www.free-decompiler.com/flash" xmlns:xlink="http://www.w3.org/1999/xlink" ffdec:objectType="shape" height="4.05px" width="9.85px" xmlns="http://www.w3.org/2000/svg">
  <g transform="matrix(1.0, 0.0, 0.0, 1.0, 4.65, 2.0)">
    <path d="M1.9 -2.0 Q2.1 -1.95 2.1 -1.7 L2.0 -1.7 1.75 -1.75 1.7 -1.75 1.7 -1.85 Q1.7 -2.0 1.9 -2.0 M1.0 -1.45 Q1.0 -1.7 1.15 -1.8 1.35 -1.85 1.7 -1.75 L1.55 -1.45 Q1.45 -1.3 1.3 -1.3 L1.1 -1.3 Q1.05 -1.3 1.05 -1.35 1.0 -1.35 1.0 -1.45 M1.4 -1.15 Q1.85 -1.35 2.3 -1.3 2.45 -1.1 3.35 -0.95 L4.7 -0.7 5.1 -0.2 Q5.2 -0.05 5.2 0.3 5.2 0.75 4.95 1.15 4.65 1.65 4.05 1.75 L3.75 1.9 Q3.3 2.05 3.0 2.05 L2.45 2.0 2.4 1.95 2.35 1.95 Q2.25 1.95 2.05 1.8 1.8 1.65 1.15 1.65 L0.8 1.75 0.65 1.85 Q0.3 2.05 -0.6 2.05 L-1.5 2.05 -2.5 1.95 -3.5 1.7 -4.4 1.35 -4.6 0.85 Q-4.65 0.7 -4.65 0.45 -4.65 -0.15 -3.65 -0.7 -2.8 -1.15 -2.4 -1.15 L-0.7 -1.0 -0.25 -0.9 0.25 -0.9 0.8 -0.95 Q1.15 -1.0 1.35 -1.2 L1.4 -1.15" fill="#ffcc66" fill-opacity="0.3372549" fill-rule="evenodd" stroke="none"/>
  </g>
</svg>
