<?xml version="1.0" encoding="UTF-8" standalone="no"?>
<svg xmlns:ffdec="https://www.free-decompiler.com/flash" xmlns:xlink="http://www.w3.org/1999/xlink" ffdec:objectType="shape" height="4.15px" width="10.05px" xmlns="http://www.w3.org/2000/svg">
  <g transform="matrix(1.0, 0.0, 0.0, 1.0, 4.8, 2.1)">
    <path d="M1.05 -2.05 L1.1 -2.1 1.3 -2.1 Q1.4 -2.1 1.45 -2.05 L1.3 -1.95 1.2 -1.95 Q1.15 -1.9 1.1 -1.9 L1.0 -1.9 Q0.95 -1.9 0.95 -2.0 L1.0 -2.05 1.05 -2.05 M0.75 -1.9 L0.45 -1.6 0.3 -1.6 0.3 -1.7 Q0.3 -1.85 0.45 -1.85 L0.75 -1.9 M0.65 -1.35 L1.7 -1.2 2.85 -1.05 3.25 -1.0 Q4.4 -0.85 4.9 -0.4 5.25 -0.1 5.25 0.3 5.25 0.7 4.95 1.2 4.6 1.85 4.0 1.85 L3.95 1.85 3.9 1.8 3.9 1.75 3.85 1.75 Q3.6 1.75 3.55 1.7 3.5 1.6 3.15 1.6 3.0 1.6 2.4 1.8 L1.8 1.95 1.7 1.95 Q1.5 2.05 1.1 2.05 L0.35 2.0 -0.75 1.95 -1.2 1.95 -1.55 1.85 -1.95 1.8 -2.7 1.8 -3.2 1.7 Q-4.8 1.35 -4.8 0.5 -4.8 -0.2 -4.1 -0.55 L-3.7 -0.8 Q-3.4 -0.95 -3.2 -0.95 L-0.15 -1.1 Q-0.1 -1.15 0.15 -1.2 L0.25 -1.3 0.65 -1.35" fill="#ffcc66" fill-opacity="0.3372549" fill-rule="evenodd" stroke="none"/>
  </g>
</svg>
