<?xml version="1.0" encoding="UTF-8" standalone="no"?>
<svg xmlns:ffdec="https://www.free-decompiler.com/flash" xmlns:xlink="http://www.w3.org/1999/xlink" ffdec:objectType="shape" height="7.0px" width="9.3px" xmlns="http://www.w3.org/2000/svg">
  <g transform="matrix(1.0, 0.0, 0.0, 1.0, 5.4, 6.3)">
    <path d="M1.05 -0.05 L0.9 0.05 0.8 0.05 0.55 0.3 Q0.15 0.7 -0.55 0.7 L-1.3 0.65 -1.5 0.55 -2.25 0.5 -2.65 0.45 Q-3.1 0.35 -3.35 0.05 -3.45 -0.1 -3.55 -0.3 L-3.75 -0.65 -3.85 -1.1 -3.85 -1.6 -3.8 -1.85 -3.7 -2.0 -3.65 -2.1 -3.65 -2.15 -3.1 -2.05 Q-2.75 -1.95 -2.65 -1.95 -2.15 -1.95 -2.0 -2.2 L-1.9 -2.35 Q-1.9 -2.5 -1.65 -2.7 L-1.3 -3.0 -1.1 -2.95 -0.85 -2.7 Q-0.75 -2.65 -0.7 -2.55 L-0.8 -2.6 -0.9 -2.6 Q-1.1 -2.6 -1.15 -2.35 -1.2 -2.15 -1.2 -2.05 -1.2 -1.75 -1.0 -1.5 -0.75 -1.25 -0.2 -1.05 0.2 -0.9 0.5 -0.65 L0.9 -0.25 Q1.0 -0.2 1.05 -0.05 M2.4 -0.6 L2.5 -0.75 Q2.65 -0.9 2.95 -0.9 L3.45 -0.95 3.55 -0.95 3.75 -0.75 3.9 -0.5 3.8 -0.6 3.7 -0.55 Q3.5 -0.35 3.5 -0.2 L3.55 0.1 3.5 0.3 3.35 0.45 2.75 0.3 2.7 0.2 2.4 0.15 Q2.3 0.05 2.3 -0.05 L2.4 -0.25 Q2.3 -0.4 2.3 -0.45 L2.4 -0.6 M-2.7 -4.85 L-2.75 -4.8 Q-2.8 -4.9 -2.9 -4.95 L-3.05 -4.95 Q-3.15 -4.95 -3.2 -5.0 L-3.25 -5.0 -3.45 -5.05 Q-3.95 -5.1 -4.45 -4.5 -4.95 -3.85 -4.95 -3.35 L-4.85 -3.05 -4.9 -3.05 Q-5.2 -3.25 -5.2 -3.7 L-5.25 -3.95 -5.3 -4.1 -5.3 -4.15 -5.4 -4.4 Q-5.4 -4.6 -4.9 -5.2 -4.5 -5.75 -4.15 -6.05 -3.45 -6.65 -2.95 -5.75 -2.8 -5.6 -2.8 -5.3 -2.75 -4.95 -2.7 -4.85" fill="#ffd327" fill-rule="evenodd" stroke="none"/>
  </g>
</svg>
