<?xml version="1.0" encoding="UTF-8" standalone="no"?>
<svg xmlns:ffdec="https://www.free-decompiler.com/flash" xmlns:xlink="http://www.w3.org/1999/xlink" ffdec:objectType="shape" height="3.7px" width="3.6px" xmlns="http://www.w3.org/2000/svg">
  <g transform="matrix(1.0, 0.0, 0.0, 1.0, 1.95, 2.7)">
    <path d="M0.25 -0.4 L0.25 -0.25 Q0.25 -0.1 0.6 0.15 1.15 0.2 1.35 0.3 1.65 0.4 1.65 0.6 1.65 0.65 1.5 0.7 L1.15 0.8 0.9 0.8 -0.9 0.9 -1.35 1.0 -1.55 1.0 Q-1.75 1.0 -1.9 0.75 -1.95 0.65 -1.95 0.5 -1.95 0.25 -1.7 0.1 -1.45 -0.05 -1.45 -0.25 L-1.45 -0.3 Q-1.85 -0.55 -1.85 -0.8 -1.85 -1.25 -1.65 -1.3 L-1.65 -1.35 -1.6 -1.35 -1.45 -1.15 Q-1.35 -1.0 -1.1 -0.95 L-0.45 -0.8 Q-0.05 -0.75 0.2 -0.6 0.25 -0.5 0.25 -0.4 M0.95 0.35 L0.95 0.35 M-1.65 -2.4 L-1.65 -2.45 Q-1.65 -2.55 -1.55 -2.65 -1.45 -2.75 -1.35 -2.7 -1.35 -2.5 -1.55 -2.4 L-1.65 -2.4" fill="#ffffff" fill-opacity="0.6" fill-rule="evenodd" stroke="none"/>
  </g>
</svg>
