<?xml version="1.0" encoding="UTF-8" standalone="no"?>
<svg xmlns:ffdec="https://www.free-decompiler.com/flash" xmlns:xlink="http://www.w3.org/1999/xlink" ffdec:objectType="shape" height="5.05px" width="5.55px" xmlns="http://www.w3.org/2000/svg">
  <g transform="matrix(1.0, 0.0, 0.0, 1.0, 2.8, 4.1)">
    <path d="M2.1 -0.1 L2.2 -0.1 Q2.35 -0.1 2.45 -0.05 L2.55 0.0 Q2.75 0.1 2.75 0.35 2.75 0.45 2.45 0.55 1.9 0.7 0.75 0.7 L-0.15 0.7 -0.95 0.8 -1.7 0.9 -2.3 0.9 -2.55 0.95 -2.65 0.8 -2.7 0.7 Q-2.7 0.5 -2.55 0.3 L-2.45 0.25 -2.4 0.15 -2.25 0.05 -2.05 -0.1 -2.2 -0.3 Q-2.35 -0.4 -2.65 -0.45 L-2.75 -0.5 -2.75 -0.55 Q-2.75 -0.9 -2.65 -1.35 -2.55 -1.8 -2.45 -1.9 L-2.4 -1.9 Q-2.3 -1.7 -2.15 -1.6 -1.9 -1.4 -0.9 -1.35 L0.0 -1.3 Q0.75 -0.95 0.8 -0.85 0.8 -0.7 0.8 -0.5 0.8 -0.4 0.85 -0.35 L1.05 -0.2 2.05 -0.1 2.1 -0.1 M-1.1 -3.9 Q-1.2 -3.8 -1.45 -3.7 -1.7 -3.65 -1.75 -3.5 L-1.85 -3.35 -1.9 -3.1 -1.8 -2.85 Q-1.7 -2.65 -1.7 -2.6 -1.7 -2.5 -1.75 -2.35 -1.8 -2.15 -1.9 -2.1 L-2.1 -2.1 Q-2.45 -2.15 -2.65 -2.35 -2.8 -2.55 -2.8 -2.85 -2.8 -3.0 -2.7 -3.25 -2.6 -3.55 -2.5 -3.65 L-2.1 -3.85 Q-1.75 -4.0 -1.65 -4.05 L-1.35 -4.05 -1.1 -3.9 M-2.15 -1.85 L-2.2 -1.95 Q-2.2 -2.0 -2.15 -2.0 L-2.05 -2.0 -2.0 -1.95 Q-2.05 -1.9 -2.1 -1.85 L-2.15 -1.85 M-2.45 0.75 L-2.45 0.75" fill="#ffd327" fill-rule="evenodd" stroke="none"/>
  </g>
</svg>
