<?xml version="1.0" encoding="UTF-8" standalone="no"?>
<svg xmlns:ffdec="https://www.free-decompiler.com/flash" xmlns:xlink="http://www.w3.org/1999/xlink" ffdec:objectType="shape" height="1.7px" width="2.85px" xmlns="http://www.w3.org/2000/svg">
  <g transform="matrix(1.0, 0.0, 0.0, 1.0, 1.6, 0.7)">
    <path d="M0.1 -0.3 L0.05 -0.2 Q0.05 0.05 0.65 0.25 1.25 0.45 1.25 0.6 1.25 0.7 0.9 0.8 0.4 1.0 -0.45 1.0 -1.6 1.0 -1.6 0.55 -1.6 0.4 -1.3 0.25 -1.0 0.1 -1.0 -0.05 -1.0 -0.2 -1.15 -0.35 -1.25 -0.5 -1.4 -0.55 L-1.45 -0.6 -1.5 -0.6 -1.5 -0.65 Q-0.95 -0.6 -0.85 -0.7 L0.0 -0.65 0.15 -0.4 0.1 -0.3" fill="#ffffff" fill-opacity="0.6" fill-rule="evenodd" stroke="none"/>
  </g>
</svg>
