<?xml version="1.0" encoding="UTF-8" standalone="no"?>
<svg xmlns:ffdec="https://www.free-decompiler.com/flash" xmlns:xlink="http://www.w3.org/1999/xlink" ffdec:objectType="shape" height="5.55px" width="8.8px" xmlns="http://www.w3.org/2000/svg">
  <g transform="matrix(1.0, 0.0, 0.0, 1.0, 5.5, 4.35)">
    <path d="M1.0 -2.85 L1.1 -2.85 1.1 -2.9 1.25 -2.9 1.3 -2.6 Q1.3 -2.55 1.25 -2.5 1.15 -2.45 1.1 -2.4 1.05 -2.4 1.05 -2.5 1.05 -2.55 0.95 -2.55 L0.7 -2.4 0.45 -2.3 0.35 -2.1 0.25 -1.95 0.1 -1.65 Q0.0 -1.35 0.0 -1.25 0.0 -1.15 0.15 -0.95 0.25 -0.8 0.3 -0.8 0.25 -0.75 0.2 -0.75 0.15 -0.75 -0.1 -0.85 -0.25 -1.1 -0.45 -1.1 -0.55 -1.1 -0.7 -1.65 -0.7 -1.95 -0.55 -2.15 L-0.55 -2.2 -0.3 -2.45 -0.25 -2.45 Q0.15 -2.8 0.45 -2.9 L0.75 -2.75 Q0.85 -2.75 1.0 -2.85 M1.1 -1.35 L1.1 -1.2 Q1.1 -1.1 1.15 -1.0 L1.3 -0.85 1.3 -0.8 1.1 -0.85 Q1.0 -1.0 0.8 -1.2 L0.9 -1.35 1.05 -1.45 1.1 -1.45 1.1 -1.35 M1.05 -0.55 Q1.05 -0.4 1.3 -0.15 L1.5 0.0 1.45 -0.15 1.5 -0.15 1.7 0.0 1.85 0.15 1.95 0.2 3.1 0.3 Q3.3 0.35 3.3 0.5 3.3 0.6 3.25 0.65 3.15 0.7 3.0 0.7 L2.9 0.75 Q2.75 0.85 2.55 0.85 L1.05 0.95 -0.35 1.1 -1.4 1.2 -2.0 1.05 -2.05 1.05 -2.1 1.0 -2.1 0.95 Q-2.1 0.9 -2.05 0.9 L-2.1 0.9 Q-2.1 0.8 -2.3 0.8 -2.35 0.8 -2.4 0.65 L-2.5 0.45 Q-2.55 0.3 -2.55 0.1 -2.55 -0.05 -2.45 -0.25 L-2.45 -0.3 -2.4 -0.45 -2.45 -0.6 -2.45 -0.65 Q-2.25 -0.65 -2.2 -0.55 L-2.15 -0.45 -2.15 -0.4 -2.1 -0.35 -2.15 -0.35 -1.95 -0.15 Q-1.65 0.0 -0.9 0.1 L-0.65 0.1 0.65 0.0 Q0.75 0.0 0.85 0.05 0.85 -0.2 1.0 -0.3 L1.0 -0.35 1.05 -0.55 M-2.6 -4.15 L-2.6 -4.25 Q-2.6 -4.4 -2.15 -4.35 L-2.1 -4.25 -1.95 -4.15 -1.75 -4.15 Q-1.7 -4.15 -1.65 -4.2 L-1.55 -4.2 Q-1.25 -4.2 -1.1 -4.0 -1.05 -3.9 -1.05 -3.75 -1.05 -3.6 -1.05 -3.55 -1.15 -3.35 -1.4 -3.35 L-1.55 -3.25 Q-1.65 -3.15 -1.75 -3.15 -1.95 -3.15 -2.25 -3.45 L-2.05 -3.5 Q-1.95 -3.55 -1.95 -3.65 -1.95 -3.8 -2.35 -4.2 L-2.55 -4.2 -2.6 -4.15 M-0.9 -3.9 L-1.0 -3.95 -1.0 -4.1 Q-0.85 -4.1 -0.8 -4.0 -0.85 -3.95 -0.9 -3.9 M-4.55 -3.85 L-4.3 -4.05 -4.15 -4.05 -4.0 -3.9 Q-3.85 -3.9 -3.7 -3.8 -3.65 -3.75 -3.65 -3.65 L-3.65 -3.6 -3.6 -3.45 Q-3.65 -3.45 -3.65 -3.55 -3.7 -3.5 -3.75 -3.5 -4.6 -3.3 -4.85 -2.65 L-4.9 -2.65 -4.85 -2.8 -4.9 -2.7 -4.95 -2.75 -4.9 -2.9 Q-4.95 -3.0 -5.0 -3.0 L-5.05 -3.05 -5.05 -3.1 -4.95 -3.4 -4.8 -3.6 -4.55 -3.85 M-5.05 -2.7 L-5.15 -2.4 -5.1 -2.25 -5.05 -2.15 -5.1 -2.05 -5.15 -2.1 -4.95 -1.85 -5.2 -1.9 -5.35 -2.2 -5.35 -2.55 -5.3 -2.65 -5.25 -2.7 -5.25 -2.65 -5.2 -2.7 -5.15 -2.6 -5.05 -2.7 M-4.7 -1.5 Q-4.7 -1.45 -4.8 -1.4 L-4.9 -1.3 -4.9 -1.15 Q-4.95 -1.1 -4.95 -1.05 L-5.25 -0.9 -5.25 -0.5 -5.15 -0.3 -5.2 -0.25 -5.5 -0.6 -5.5 -0.85 Q-5.5 -1.15 -5.35 -1.45 -5.15 -1.85 -4.8 -1.7 -4.7 -1.6 -4.7 -1.5 M-4.5 -0.3 L-4.6 -0.25 -4.7 -0.4 -4.6 -0.45 -4.5 -0.3 M-4.35 -0.3 Q-4.25 -0.3 -4.1 -0.2 -3.9 -0.25 -3.8 -0.15 L-3.8 0.0 -3.85 0.0 Q-3.9 -0.05 -4.2 -0.05 L-4.3 -0.2 -4.35 -0.3 Q-4.35 -0.35 -4.35 -0.3 M-3.7 -0.1 L-3.65 -0.1 Q-3.6 -0.1 -3.55 0.0 L-3.6 0.05 -3.7 0.0 -3.7 -0.1 M-3.35 -0.95 L-3.4 -1.3 Q-3.4 -1.4 -3.2 -1.65 L-2.9 -2.0 -2.25 -2.0 -1.95 -2.2 Q-1.65 -2.15 -1.55 -2.05 -1.5 -1.95 -1.45 -1.8 -1.4 -1.6 -1.3 -1.45 L-1.35 -1.4 -1.35 -1.45 -1.4 -1.4 -1.55 -1.5 Q-2.0 -1.55 -2.5 -1.2 -2.9 -0.9 -2.8 -0.55 L-2.8 -0.45 -2.85 -0.5 -2.9 -0.5 Q-3.0 -0.5 -3.05 -0.7 -3.15 -0.9 -3.35 -0.95 M-2.05 -2.95 Q-2.05 -2.85 -2.1 -2.8 -2.15 -2.7 -2.3 -2.7 -2.35 -2.7 -2.45 -2.8 L-2.55 -2.9 -2.55 -3.15 -2.45 -3.25 -2.3 -3.25 -2.15 -3.1 Q-2.05 -3.0 -2.05 -2.95 M-2.3 -2.5 L-2.35 -2.45 -2.55 -2.5 Q-2.75 -2.55 -2.85 -2.6 L-2.7 -2.65 -2.55 -2.65 Q-2.55 -2.8 -2.4 -2.7 -2.25 -2.6 -2.3 -2.5 M-2.35 -2.25 L-2.35 -2.2 -2.45 -2.15 -2.55 -2.2 -2.55 -2.25 Q-2.55 -2.35 -2.5 -2.3 -2.4 -2.3 -2.35 -2.25" fill="#ffd327" fill-rule="evenodd" stroke="none"/>
  </g>
</svg>
