<?xml version="1.0" encoding="UTF-8" standalone="no"?>
<svg xmlns:ffdec="https://www.free-decompiler.com/flash" xmlns:xlink="http://www.w3.org/1999/xlink" ffdec:objectType="shape" height="7.75px" width="65.5px" xmlns="http://www.w3.org/2000/svg">
  <g transform="matrix(1.0, 0.0, 0.0, 1.0, 34.95, 7.25)">
    <path d="M4.25 -5.95 Q1.7 -5.95 1.05 -6.2 0.8 -6.3 0.75 -6.4 L0.75 -6.65 Q0.75 -7.5 3.0 -7.0 4.0 -6.75 5.35 -6.3 9.75 -6.4 11.75 -7.0 12.65 -7.25 13.4 -7.25 14.4 -7.3 14.4 -6.8 14.4 -6.45 13.35 -6.25 12.55 -6.05 12.05 -6.05 11.5 -6.05 11.35 -6.25 11.35 -6.4 11.3 -6.4 L10.75 -6.25 Q10.35 -6.15 10.2 -6.15 L6.15 -6.05 5.3 -6.1 4.25 -5.95 M8.5 -1.15 Q8.6 -1.3 8.9 -1.45 9.15 -1.6 9.2 -1.6 9.25 -1.55 9.3 -1.55 L9.35 -1.35 Q9.35 -1.25 9.15 -1.1 8.95 -0.95 8.8 -0.95 8.65 -0.95 8.55 -1.0 L8.5 -1.15 M8.35 -2.6 Q8.3 -2.35 7.95 -2.3 L7.85 -2.35 7.85 -2.55 Q7.85 -2.75 8.05 -2.75 L8.25 -2.75 8.35 -2.6 M30.55 -5.75 Q30.55 -5.65 30.4 -5.5 30.3 -5.3 30.2 -5.3 29.8 -5.3 29.7 -5.45 29.8 -5.55 30.1 -5.6 30.25 -5.7 30.25 -6.1 L30.35 -6.1 30.5 -6.0 Q30.55 -5.95 30.55 -5.75 M29.1 -6.65 L29.05 -6.75 Q29.35 -7.05 29.75 -6.9 30.15 -6.8 30.45 -6.4 L30.35 -6.15 Q30.3 -6.15 29.9 -6.4 29.5 -6.6 29.3 -6.6 L29.1 -6.65 M-33.9 -0.4 L-34.5 -0.05 -34.45 0.15 -34.3 0.35 -34.35 0.4 -34.65 0.5 -34.9 0.2 -34.95 0.1 Q-34.95 -0.2 -34.45 -0.5 -33.9 -0.85 -33.45 -0.65 -33.5 -0.6 -33.9 -0.4 M-13.45 -0.45 L-13.1 0.1 -14.2 0.2 -15.25 0.25 Q-15.6 0.25 -15.6 0.15 -15.65 0.0 -15.95 -0.1 -15.7 -0.25 -15.2 -0.5 -14.7 -0.7 -14.45 -0.7 -13.75 -0.7 -13.45 -0.45 M-7.25 -0.35 Q-7.9 0.0 -8.25 0.15 L-8.75 0.15 -9.4 0.2 -9.7 0.1 -9.9 0.05 Q-9.65 -0.15 -8.65 -0.3 L-7.25 -0.35 M-9.7 -6.25 Q-10.1 -6.05 -10.25 -5.75 L-10.4 -5.7 -10.95 -6.0 Q-10.75 -6.45 -10.05 -6.5 L-9.2 -6.5 -9.7 -6.25" fill="#c4d96a" fill-rule="evenodd" stroke="none"/>
  </g>
</svg>
