<?xml version="1.0" encoding="UTF-8" standalone="no"?>
<svg xmlns:ffdec="https://www.free-decompiler.com/flash" xmlns:xlink="http://www.w3.org/1999/xlink" ffdec:objectType="shape" height="3.75px" width="10.75px" xmlns="http://www.w3.org/2000/svg">
  <g transform="matrix(1.0, 0.0, 0.0, 1.0, 5.7, 1.4)">
    <path d="M0.6 -1.4 Q0.95 -1.35 1.35 -1.0 1.85 -0.6 2.05 -0.5 2.3 -0.4 3.2 -0.25 L3.75 -0.15 4.0 -0.05 Q4.4 -0.1 4.7 0.1 5.05 0.35 5.05 0.7 5.05 1.1 4.65 1.55 4.2 2.05 3.55 2.05 L3.45 2.05 3.0 2.2 0.4 2.3 -0.55 2.35 -0.75 2.35 -0.85 2.3 -1.35 2.3 Q-2.35 2.3 -3.2 2.05 -4.2 1.75 -4.4 1.2 L-4.4 1.1 -4.7 0.75 Q-4.9 0.55 -5.1 0.45 -5.4 0.35 -5.55 0.05 -5.7 -0.15 -5.7 -0.3 -5.7 -0.55 -5.4 -0.95 -5.05 -1.3 -4.75 -1.4 L-4.5 -1.4 -4.5 -1.35 -4.45 -1.35 -4.2 -1.2 -3.9 -0.75 Q-3.8 -0.55 -3.45 -0.4 -3.25 -0.3 -3.0 -0.2 L-2.45 -0.15 -2.4 -0.15 -2.25 -0.1 -2.2 -0.1 -1.8 0.0 -1.5 0.05 -1.2 0.0 Q-0.9 -0.05 -0.9 -0.25 L-0.9 -0.45 -1.0 -0.65 -1.0 -0.75 Q-1.0 -0.85 -0.45 -1.35 L0.6 -1.35 0.6 -1.4" fill="#ffcc66" fill-opacity="0.3372549" fill-rule="evenodd" stroke="none"/>
  </g>
</svg>
