<?xml version="1.0" encoding="UTF-8" standalone="no"?>
<svg xmlns:ffdec="https://www.free-decompiler.com/flash" xmlns:xlink="http://www.w3.org/1999/xlink" ffdec:objectType="shape" height="4.35px" width="8.0px" xmlns="http://www.w3.org/2000/svg">
  <g transform="matrix(1.0, 0.0, 0.0, 1.0, 4.05, 3.2)">
    <path d="M0.75 -2.6 Q0.7 -2.55 0.75 -2.5 0.75 -2.45 0.65 -2.45 L0.4 -2.45 Q-0.3 -2.45 -0.95 -1.95 -1.5 -1.45 -1.5 -1.15 L-1.75 -1.4 Q-1.9 -1.65 -1.9 -1.75 -1.9 -2.0 -1.75 -2.2 L-1.15 -2.65 Q-1.05 -2.7 -0.95 -2.85 L-0.8 -3.05 -0.55 -3.15 -0.3 -3.2 Q0.1 -3.1 0.3 -2.95 L0.75 -2.6 M1.15 -1.5 L1.3 -1.55 Q1.7 -1.7 2.0 -1.45 L2.05 -1.45 Q2.2 -1.4 2.45 -1.2 L2.7 -1.0 2.75 -1.0 2.8 -0.9 2.8 -0.8 2.65 -0.9 2.6 -0.85 2.6 -0.75 2.55 -0.75 2.55 -0.6 Q2.55 -0.3 2.8 -0.1 3.0 0.1 3.55 0.35 L3.7 0.35 3.7 0.4 3.95 0.4 3.95 0.45 Q3.95 0.55 3.65 0.65 L3.6 0.65 3.55 0.7 2.8 0.8 1.5 1.0 0.45 1.15 -0.05 1.15 -0.5 1.1 -0.65 1.1 Q-1.4 1.1 -1.7 1.0 L-2.3 0.8 -2.7 0.65 -2.75 0.65 -2.95 0.6 -3.25 0.6 -3.4 0.4 -3.55 0.3 -3.9 0.05 Q-4.0 -0.05 -4.0 -0.4 L-3.95 -0.65 Q-3.9 -0.9 -3.75 -1.0 L-3.7 -0.95 -3.6 -0.95 Q-3.6 -0.75 -3.4 -0.6 L-3.2 -0.5 -3.15 -0.45 Q-3.0 -0.35 -2.8 -0.3 L-2.65 -0.35 -2.45 -0.45 Q-2.3 -0.55 -2.0 -0.55 L-1.85 -0.55 -1.45 -0.5 -1.3 -0.45 Q-0.85 -0.35 -0.7 -0.35 L-0.2 -0.25 0.6 -0.1 1.0 -0.1 Q1.1 -0.15 1.15 -0.25 L1.1 -0.25 Q1.1 -0.4 0.9 -0.55 L0.85 -0.55 0.8 -0.6 Q0.8 -1.0 0.9 -1.15 L0.95 -1.25 1.15 -1.5 M-3.1 -2.7 Q-3.05 -2.6 -2.8 -2.6 -2.55 -2.45 -2.55 -2.15 -2.55 -2.1 -2.85 -1.9 -3.2 -1.7 -3.3 -1.55 -3.4 -1.5 -3.45 -1.25 -3.5 -1.0 -3.55 -0.95 -3.65 -0.95 -3.85 -1.2 -4.05 -1.4 -4.05 -1.45 -4.05 -1.95 -3.85 -2.4 -3.65 -2.85 -3.35 -2.8 L-3.35 -2.85 -3.1 -2.8 -3.1 -2.7 M-1.15 -1.15 Q-1.1 -1.05 -1.1 -0.9 L-1.05 -0.65 Q-1.05 -0.6 -1.1 -0.6 L-1.2 -0.55 Q-1.25 -0.55 -1.4 -0.85 L-1.4 -0.95 -1.35 -0.95 -1.25 -0.85 -1.2 -0.85 -1.25 -0.95 -1.15 -1.15" fill="#ffd327" fill-rule="evenodd" stroke="none"/>
  </g>
</svg>
