<?xml version="1.0" encoding="UTF-8" standalone="no"?>
<svg xmlns:ffdec="https://www.free-decompiler.com/flash" xmlns:xlink="http://www.w3.org/1999/xlink" ffdec:objectType="shape" height="1.8px" width="6.8px" xmlns="http://www.w3.org/2000/svg">
  <g transform="matrix(1.0, 0.0, 0.0, 1.0, 3.15, 0.7)">
    <path d="M1.35 -0.05 L1.55 0.05 1.95 0.1 2.1 0.1 2.2 0.15 Q2.2 0.2 2.4 0.35 2.6 0.55 2.8 0.55 L3.0 0.5 Q3.05 0.45 3.05 0.35 L3.05 0.3 3.15 0.25 Q3.2 0.2 3.3 0.2 3.45 0.25 3.55 0.35 3.65 0.45 3.65 0.5 3.65 0.8 2.9 1.05 L2.8 1.1 2.45 1.1 Q2.35 1.1 2.3 1.05 L2.25 0.95 2.2 1.0 1.95 0.95 1.7 0.95 1.8 1.0 1.7 1.0 1.3 0.95 0.85 0.9 0.35 0.85 0.25 0.85 -0.3 0.9 -0.4 0.95 -1.5 1.0 Q-1.65 1.0 -1.65 1.1 L-1.85 1.05 -2.15 1.05 -2.45 0.95 Q-2.65 0.9 -2.8 0.8 L-2.95 0.7 -3.0 0.7 Q-3.15 0.55 -3.15 0.3 L-3.15 0.2 Q-3.15 0.05 -3.0 0.15 L-3.0 0.05 -3.05 0.0 -3.1 -0.1 -3.0 -0.25 Q-2.95 -0.35 -2.95 -0.4 -2.95 -0.45 -2.95 -0.5 L-3.0 -0.5 -2.95 -0.55 -2.5 -0.65 -2.15 -0.7 Q-2.25 -0.6 -2.35 -0.55 L-2.2 -0.45 -2.15 -0.35 -2.1 -0.15 -1.8 0.1 Q-1.6 0.2 -1.4 0.2 -1.15 0.2 -1.05 0.0 L-1.1 0.0 -1.1 -0.1 -1.2 -0.2 -1.15 -0.25 -1.2 -0.25 -1.05 -0.4 -0.65 -0.45 Q-0.3 -0.45 -0.2 -0.35 L-0.25 -0.35 -0.25 -0.15 Q-0.25 -0.05 0.0 0.1 0.3 0.35 0.7 0.35 1.3 0.35 1.3 0.05 L1.3 0.0 1.35 -0.05 M-0.35 -0.35 L-0.35 -0.35" fill="#ffffff" fill-rule="evenodd" stroke="none"/>
  </g>
</svg>
