<?xml version="1.0" encoding="UTF-8" standalone="no"?>
<svg xmlns:ffdec="https://www.free-decompiler.com/flash" xmlns:xlink="http://www.w3.org/1999/xlink" ffdec:objectType="shape" height="5.4px" width="10.45px" xmlns="http://www.w3.org/2000/svg">
  <g transform="matrix(1.0, 0.0, 0.0, 1.0, 4.95, 3.15)">
    <path d="M0.85 0.0 L0.95 0.0 0.85 0.05 0.8 0.0 0.8 0.05 1.45 0.15 Q2.45 0.15 3.0 -0.25 3.25 -0.45 3.4 -0.7 4.5 -0.9 5.0 -0.6 5.25 -0.4 5.35 -0.05 L5.3 0.0 5.35 0.05 5.45 0.25 5.45 0.35 5.5 0.5 Q5.5 1.25 4.45 1.65 3.2 2.15 0.1 2.25 -1.65 2.25 -1.7 2.25 -2.9 2.05 -3.65 1.7 -4.25 1.4 -4.35 1.0 L-4.35 0.7 -4.3 0.65 Q-4.3 0.3 -4.05 0.05 -3.8 -0.2 -3.25 -0.15 -2.7 -0.15 -2.45 -0.35 -2.15 -0.6 -2.0 -0.65 L-1.1 -0.6 -1.1 -0.55 Q-0.95 -0.45 -0.65 -0.3 L-0.55 -0.3 Q-0.15 -0.15 0.6 -0.1 L0.7 -0.05 0.85 0.0 M-3.05 -2.8 Q-3.05 -2.7 -3.5 -2.45 -4.05 -2.15 -4.1 -2.0 -4.3 -1.75 -4.35 -1.6 -4.4 -1.35 -4.3 -1.15 L-4.35 -1.05 -4.6 -1.05 -4.85 -1.35 Q-4.95 -1.55 -4.95 -1.7 -4.95 -2.15 -4.65 -2.55 -4.15 -3.2 -3.25 -3.15 -3.05 -2.9 -3.05 -2.8 M-2.75 -2.3 L-2.65 -2.3 Q-2.55 -2.25 -2.5 -2.2 L-2.45 -2.15 -2.45 -1.9 -2.5 -1.9 -2.5 -1.75 -2.6 -1.7 -2.65 -1.75 Q-2.7 -1.75 -2.7 -1.85 L-2.8 -2.0 Q-2.9 -2.1 -2.9 -2.2 L-2.85 -2.3 -2.75 -2.3 M-2.65 -1.9 L-2.6 -1.85 -2.6 -1.9 -2.65 -1.9" fill="#ffcc66" fill-opacity="0.3372549" fill-rule="evenodd" stroke="none"/>
  </g>
</svg>
