<?xml version="1.0" encoding="UTF-8" standalone="no"?>
<svg xmlns:ffdec="https://www.free-decompiler.com/flash" xmlns:xlink="http://www.w3.org/1999/xlink" ffdec:objectType="shape" height="2.5px" width="7.4px" xmlns="http://www.w3.org/2000/svg">
  <g transform="matrix(1.0, 0.0, 0.0, 1.0, 3.65, 1.4)">
    <path d="M1.3 -0.6 Q1.5 -0.7 1.6 -0.65 1.75 -0.45 1.95 -0.35 2.2 -0.25 3.05 -0.2 3.1 -0.15 3.45 0.1 3.75 0.35 3.75 0.5 3.75 0.65 3.55 0.85 3.25 1.1 2.7 1.1 L2.6 1.1 Q2.55 1.05 2.45 1.0 L2.35 1.0 2.35 1.05 2.2 1.1 Q1.85 1.05 1.8 1.0 1.85 0.95 1.9 0.95 L1.0 0.9 0.05 0.95 -0.5 1.05 -0.8 1.05 -0.75 1.0 -1.3 1.0 -1.6 1.05 -1.45 1.1 -1.65 1.1 -2.25 1.05 -2.85 0.9 -2.9 0.9 Q-3.15 0.9 -3.3 0.7 -3.4 0.6 -3.4 0.45 L-3.4 0.35 -3.35 0.2 Q-3.35 0.1 -3.5 -0.1 L-3.65 -0.35 -3.55 -0.5 Q-3.45 -0.6 -3.45 -0.65 L-3.55 -0.75 -3.4 -0.9 -3.2 -1.05 Q-2.7 -1.1 -2.1 -1.4 L-1.9 -1.35 -1.65 -1.3 -1.65 -1.25 Q-1.65 -1.15 -1.65 -1.05 L-1.7 -1.0 -1.7 -0.85 -1.6 -0.9 -0.95 -0.95 -0.7 -0.9 -0.6 -0.8 -0.65 -0.8 Q-0.7 -0.75 -0.75 -0.7 L-0.75 -0.55 Q-0.75 -0.15 0.1 0.0 L0.55 0.1 Q0.7 0.05 0.85 -0.05 1.0 -0.25 1.0 -0.4 L1.3 -0.6" fill="#ffd327" fill-rule="evenodd" stroke="none"/>
  </g>
</svg>
