<?xml version="1.0" encoding="UTF-8" standalone="no"?>
<svg xmlns:ffdec="https://www.free-decompiler.com/flash" xmlns:xlink="http://www.w3.org/1999/xlink" ffdec:objectType="shape" height="1.25px" width="6.25px" xmlns="http://www.w3.org/2000/svg">
  <g transform="matrix(1.0, 0.0, 0.0, 1.0, 3.05, 0.2)">
    <path d="M-2.05 -0.05 L-2.2 0.1 -2.2 0.25 Q-2.2 0.45 -1.9 0.7 L-1.75 0.7 -1.5 0.75 Q-0.8 0.7 -0.65 0.4 -0.6 0.35 -0.6 0.0 -0.6 -0.1 -0.55 -0.2 L-0.35 0.0 -0.2 0.05 -0.05 0.15 -0.2 0.3 Q-0.1 0.45 0.0 0.65 0.1 0.75 0.75 0.75 1.45 0.75 1.6 0.55 1.7 0.4 1.85 0.35 L2.25 0.35 Q2.3 0.4 2.4 0.45 2.7 0.55 3.15 0.65 L3.2 0.65 2.25 0.85 2.2 0.85 1.95 0.9 Q1.75 1.0 1.35 1.0 L1.2 1.0 0.8 1.05 -0.1 1.05 -1.85 0.9 -2.95 0.8 -3.0 0.75 -3.05 0.6 Q-3.05 0.4 -2.8 0.2 -2.55 -0.1 -2.15 -0.1 L-2.1 -0.1 -2.05 -0.05 M0.8 0.95 L0.8 0.95" fill="#ffffff" fill-rule="evenodd" stroke="none"/>
  </g>
</svg>
