<?xml version="1.0" encoding="UTF-8" standalone="no"?>
<svg xmlns:ffdec="https://www.free-decompiler.com/flash" xmlns:xlink="http://www.w3.org/1999/xlink" ffdec:objectType="shape" height="4.45px" width="7.6px" xmlns="http://www.w3.org/2000/svg">
  <g transform="matrix(1.0, 0.0, 0.0, 1.0, 4.5, 3.3)">
    <path d="M1.05 -2.1 L0.75 -1.75 Q0.6 -1.6 0.6 -1.45 0.6 -1.4 0.65 -1.35 L0.7 -1.25 0.65 -1.15 0.55 -1.05 0.45 -1.0 0.3 -1.05 0.25 -1.1 Q0.2 -1.15 0.2 -1.2 L0.35 -1.35 Q0.35 -1.6 0.5 -1.7 L0.5 -1.65 0.8 -1.95 Q0.9 -2.05 1.05 -2.1 M0.5 -1.6 L0.5 -1.6 M1.6 -0.85 Q1.55 -0.85 1.55 -0.9 L1.45 -1.0 Q1.45 -1.1 1.55 -1.0 1.65 -0.95 1.65 -0.9 L1.6 -0.85 M2.45 0.3 L2.45 0.25 2.8 0.45 3.1 0.65 2.8 0.8 2.35 0.95 0.65 1.0 0.2 1.05 -0.2 1.0 -0.9 1.1 -1.1 1.15 -1.5 1.1 -2.0 1.1 Q-2.2 1.1 -2.45 0.65 L-2.55 0.4 Q-2.65 0.25 -2.8 0.15 L-2.95 0.15 -2.85 0.1 -2.8 0.1 -2.65 -0.05 -2.6 -0.2 -2.45 -0.2 Q-2.4 -0.2 -2.4 -0.25 -2.6 -0.35 -2.6 -0.4 L-2.55 -0.6 Q-2.55 -0.65 -2.6 -0.65 L-2.65 -0.7 Q-2.65 -0.85 -2.3 -1.1 -1.95 -1.3 -1.75 -1.3 L-1.6 -1.3 -1.6 -1.15 -1.7 -1.1 Q-1.85 -1.0 -1.9 -0.85 -2.0 -0.65 -1.95 -0.5 L-2.0 -0.45 -2.05 -0.45 -2.05 -0.4 Q-2.05 -0.3 -1.9 -0.2 -1.7 -0.05 -1.7 0.0 L-1.6 0.0 -1.55 0.1 -1.6 0.1 -1.5 0.2 -1.05 0.2 -0.05 0.35 Q0.35 0.45 0.35 0.6 L0.65 0.7 Q1.25 0.7 1.55 0.5 1.7 0.4 1.7 0.3 1.7 0.2 1.75 0.15 1.75 0.05 1.85 0.05 L2.0 0.25 Q2.1 0.35 2.4 0.35 L2.45 0.3 M-3.45 -3.0 L-3.45 -2.85 Q-3.55 -2.75 -3.7 -2.7 L-3.8 -2.75 -3.8 -2.8 Q-3.8 -2.9 -3.7 -2.95 L-3.45 -3.0 M-4.5 -0.15 L-4.45 -0.55 -4.4 -0.55 Q-4.35 -0.45 -4.35 -0.35 L-4.3 -0.15 -4.35 -0.1 -4.35 -0.05 Q-4.5 -0.1 -4.5 -0.15 M-0.5 -3.25 L-0.45 -3.3 -0.4 -3.15 Q-0.4 -3.05 -0.5 -2.95 -0.65 -2.9 -0.8 -2.9 L-0.9 -2.9 -0.9 -2.95 -0.8 -3.05 -0.6 -3.15 -0.5 -3.25 M-1.4 -2.35 L-1.45 -2.3 Q-1.55 -2.3 -1.55 -2.45 L-1.55 -2.5 -1.4 -2.5 -1.4 -2.35" fill="#ffffff" fill-rule="evenodd" stroke="none"/>
  </g>
</svg>
