<?xml version="1.0" encoding="UTF-8" standalone="no"?>
<svg xmlns:ffdec="https://www.free-decompiler.com/flash" xmlns:xlink="http://www.w3.org/1999/xlink" ffdec:objectType="shape" height="1.9px" width="4.65px" xmlns="http://www.w3.org/2000/svg">
  <g transform="matrix(1.0, 0.0, 0.0, 1.0, 3.2, 1.25)">
    <path d="M0.2 -1.15 L0.6 -1.0 0.75 -0.95 Q0.85 -0.9 0.85 -0.75 L0.85 -0.7 0.65 -0.7 0.6 -0.65 Q0.55 -0.65 0.55 -0.6 L0.55 -0.5 Q0.6 -0.35 0.8 -0.3 L0.9 -0.25 Q1.15 -0.25 1.45 -0.05 1.35 0.0 1.2 0.0 L1.0 0.0 0.9 -0.05 0.8 -0.05 0.85 0.05 Q0.9 0.25 0.6 0.25 L-0.15 0.35 Q-0.4 0.35 -0.4 0.2 L-0.4 0.1 Q-0.5 0.2 -0.75 0.2 L-1.4 0.1 Q-1.3 0.3 -1.35 0.35 -1.45 0.4 -1.75 0.4 -1.95 0.4 -2.15 0.3 -2.35 0.15 -2.45 0.15 L-2.6 0.4 Q-2.85 0.65 -3.0 0.65 -3.2 0.65 -3.2 0.45 -3.2 0.4 -3.0 0.15 -2.8 -0.1 -2.8 -0.25 -2.85 -0.7 -2.7 -0.7 -2.65 -0.7 -2.3 -0.4 -1.95 -0.1 -1.55 -0.1 L-0.75 -0.15 Q-0.5 -0.25 -0.5 -0.35 L-0.6 -0.55 -0.8 -0.5 Q-0.85 -0.45 -0.85 -0.6 L-0.45 -1.15 Q-0.25 -1.3 0.2 -1.15" fill="#ffd327" fill-rule="evenodd" stroke="none"/>
    <path d="M0.2 -0.6 L0.15 -0.35 Q0.15 -0.2 0.25 -0.1 L0.6 0.15 Q0.8 0.25 0.85 0.35 L0.8 0.4 0.4 0.3 Q0.4 0.4 0.3 0.5 0.15 0.65 -0.1 0.65 -0.3 0.65 -0.3 0.45 -0.3 0.4 -0.15 0.25 0.05 0.15 0.05 0.0 0.05 -0.25 -0.15 -0.4 -0.3 -0.55 -0.3 -0.65 -0.3 -0.75 -0.1 -0.75 0.2 -0.75 0.2 -0.6" fill="#ffffff" fill-rule="evenodd" stroke="none"/>
  </g>
</svg>
