<?xml version="1.0" encoding="UTF-8" standalone="no"?>
<svg xmlns:ffdec="https://www.free-decompiler.com/flash" xmlns:xlink="http://www.w3.org/1999/xlink" ffdec:objectType="shape" height="3.25px" width="11.35px" xmlns="http://www.w3.org/2000/svg">
  <g transform="matrix(1.0, 0.0, 0.0, 1.0, 6.15, 1.2)">
    <path d="M-0.7 0.85 Q-0.8 0.85 -0.85 0.8 L-0.85 0.6 Q-0.85 0.35 -0.35 0.2 L-1.35 0.2 Q-1.3 0.25 -1.3 0.3 L-1.35 0.45 Q-1.4 0.65 -1.6 0.65 -1.7 0.65 -1.8 0.6 L-2.6 0.5 Q-2.65 0.7 -2.8 0.75 L-1.75 1.0 -0.95 1.1 1.55 1.0 2.6 0.8 1.45 0.8 Q-1.15 0.8 -0.7 0.85 M-4.95 -1.2 Q-4.25 -1.15 -2.25 -0.7 L-0.45 -0.7 Q1.05 -1.15 1.7 -1.15 3.25 -1.15 5.2 0.3 5.2 0.9 4.35 1.35 3.45 1.8 1.75 2.0 L0.0 2.0 -0.9 2.05 Q-2.6 2.05 -4.3 1.3 -6.15 0.5 -6.15 -0.4 -6.15 -1.25 -4.95 -1.2" fill="#ffcc66" fill-opacity="0.3372549" fill-rule="evenodd" stroke="none"/>
  </g>
</svg>
