<?xml version="1.0" encoding="UTF-8" standalone="no"?>
<svg xmlns:ffdec="https://www.free-decompiler.com/flash" xmlns:xlink="http://www.w3.org/1999/xlink" ffdec:objectType="shape" height="8.45px" width="18.3px" xmlns="http://www.w3.org/2000/svg">
  <g transform="matrix(1.0, 0.0, 0.0, 1.0, 13.4, 6.45)">
    <path d="M-0.6 0.5 L-1.1 0.4 -1.6 0.35 -2.25 0.4 Q-2.2 0.5 -2.2 0.55 L-2.2 0.75 -2.05 0.75 -0.75 0.95 0.1 0.9 0.8 0.85 Q1.0 0.85 1.0 1.1 L2.35 0.9 Q1.8 0.8 1.7 0.6 1.55 0.25 1.0 0.25 L-0.6 0.5 M-6.15 -0.25 Q-6.15 -0.4 -6.1 -0.45 L-5.9 -0.45 Q-5.25 -0.3 -3.4 -1.0 -1.5 -1.8 -0.15 -1.5 2.05 -1.1 3.1 -0.8 4.9 -0.3 4.9 0.4 4.9 0.9 4.05 1.4 2.85 2.0 0.55 2.0 L-0.7 1.95 -2.35 1.95 Q-3.0 1.9 -3.85 1.4 L-4.2 1.25 Q-6.15 0.0 -6.15 -0.25 M-12.5 -4.15 L-12.45 -4.25 -12.4 -4.25 -12.35 -4.05 Q-12.4 -4.0 -12.5 -4.15 M-13.3 -6.2 Q-13.2 -6.35 -13.05 -6.45 L-12.95 -6.4 -13.05 -6.15 Q-13.25 -6.1 -13.25 -5.85 L-13.25 -5.7 Q-13.4 -5.8 -13.4 -5.9 -13.35 -6.0 -13.3 -6.2 M-12.4 -5.9 L-12.45 -5.9 Q-12.55 -6.05 -12.45 -6.15 L-12.4 -6.15 -12.4 -5.9" fill="#ffcc66" fill-opacity="0.3372549" fill-rule="evenodd" stroke="none"/>
  </g>
</svg>
