<?xml version="1.0" encoding="UTF-8" standalone="no"?>
<svg xmlns:ffdec="https://www.free-decompiler.com/flash" xmlns:xlink="http://www.w3.org/1999/xlink" ffdec:objectType="shape" height="18.3px" width="166.1px" xmlns="http://www.w3.org/2000/svg">
  <g transform="matrix(1.0, 0.0, 0.0, 1.0, 83.05, 18.3)">
    <path d="M43.4 -16.85 Q35.9 -17.7 27.15 -18.3 44.65 -17.75 58.75 -16.15 83.05 -13.35 83.05 -9.45 83.05 -5.55 58.75 -2.75 34.4 0.0 0.0 0.0 -34.4 0.0 -58.75 -2.75 -83.05 -5.55 -83.05 -9.45 -83.05 -13.35 -58.75 -16.15 -44.65 -17.75 -27.15 -18.3 -35.9 -17.7 -43.4 -16.85 -61.4 -14.85 -61.4 -11.9 -61.4 -9.05 -43.4 -7.0 -25.45 -4.95 0.0 -4.95 25.45 -4.95 43.4 -7.0 61.4 -9.05 61.4 -11.9 61.4 -14.85 43.4 -16.85" fill="#e6e6e6" fill-rule="evenodd" stroke="none"/>
  </g>
</svg>
