<?xml version="1.0" encoding="UTF-8" standalone="no"?>
<svg xmlns:ffdec="https://www.free-decompiler.com/flash" xmlns:xlink="http://www.w3.org/1999/xlink" ffdec:objectType="shape" height="20.75px" width="20.55px" xmlns="http://www.w3.org/2000/svg">
  <g transform="matrix(1.0, 0.0, 0.0, 1.0, 1.6, 20.25)">
    <path d="M12.75 -16.1 L12.7 -15.75 Q12.7 -15.55 13.05 -15.25 L13.85 -14.7 Q14.95 -13.85 14.95 -13.15 14.95 -13.0 14.85 -12.75 14.75 -12.45 14.75 -12.25 14.75 -11.95 15.1 -11.7 15.2 -11.65 15.8 -11.3 16.9 -10.8 16.9 -9.95 16.9 -9.3 16.35 -7.95 15.85 -6.6 15.85 -6.35 15.85 -6.3 16.1 -6.15 16.4 -6.0 16.6 -6.0 L17.7 -6.25 18.75 -6.55 Q18.95 -6.55 18.95 -6.3 18.95 -5.9 17.05 -4.65 L16.55 -4.3 Q14.1 -1.75 8.7 -0.45 4.75 0.5 1.2 0.5 L0.5 0.4 Q0.4 0.35 0.4 0.2 0.4 0.15 1.2 -0.2 L1.65 -0.4 1.85 -0.6 Q2.8 -1.4 3.25 -1.85 5.2 -3.85 5.2 -5.7 5.2 -6.75 4.75 -7.5 4.45 -7.95 3.8 -8.55 3.05 -9.15 2.8 -9.5 2.35 -10.1 2.35 -10.95 2.35 -11.8 2.7 -12.5 2.9 -12.9 3.45 -13.5 4.0 -14.1 4.2 -14.45 4.55 -15.0 4.55 -15.7 4.55 -16.5 3.7 -17.15 3.1 -17.6 1.85 -18.15 0.35 -18.85 0.05 -19.05 -0.45 -19.3 -0.65 -19.6 -1.0 -19.7 -1.6 -20.05 L-1.6 -20.15 0.4 -20.2 Q2.65 -20.1 4.95 -19.65 7.8 -19.0 9.5 -18.5 11.2 -18.0 12.55 -17.35 13.6 -16.85 14.85 -16.05 15.45 -15.7 15.85 -15.4 L15.85 -15.35 Q15.9 -15.3 15.75 -15.3 L14.7 -15.7 Q13.6 -16.15 13.1 -16.15 L12.85 -16.15 12.75 -16.1" fill="#ffffff" fill-opacity="0.7372549" fill-rule="evenodd" stroke="none"/>
  </g>
</svg>
