<?xml version="1.0" encoding="UTF-8" standalone="no"?>
<svg xmlns:ffdec="https://www.free-decompiler.com/flash" xmlns:xlink="http://www.w3.org/1999/xlink" ffdec:objectType="shape" height="9.7px" width="12.0px" xmlns="http://www.w3.org/2000/svg">
  <g transform="matrix(1.0, 0.0, 0.0, 1.0, 6.2, 9.1)">
    <path d="M4.4 -9.1 Q4.4 -9.05 4.45 -9.05 L4.5 -9.0 4.5 -8.9 Q4.5 -8.8 4.45 -8.75 L4.4 -8.7 4.2 -8.7 4.2 -8.75 4.1 -8.75 4.1 -8.9 Q4.1 -9.0 4.15 -9.05 L4.3 -9.1 4.4 -9.1 M5.75 -1.35 L5.8 -1.35 5.8 -1.25 Q5.55 -0.7 4.7 0.05 L4.55 0.05 4.55 0.0 4.5 -0.05 4.55 -0.05 5.15 -0.7 5.7 -1.35 5.75 -1.35 M-5.55 -7.2 L-5.5 -7.2 -5.5 -7.15 Q-5.55 -6.85 -5.75 -6.3 L-6.0 -5.5 -6.05 -5.45 -6.15 -5.45 -6.2 -5.5 -6.2 -5.65 Q-6.2 -6.05 -6.0 -6.6 -5.8 -7.15 -5.6 -7.2 L-5.55 -7.2 M-4.05 -0.2 L-4.0 -0.15 -3.95 0.4 Q-3.95 0.55 -4.0 0.55 L-4.05 0.6 -4.1 0.6 -4.15 0.55 Q-4.3 0.3 -4.3 0.15 L-4.2 -0.15 -4.15 -0.2 -4.05 -0.2" fill="#00ffff" fill-opacity="0.49803922" fill-rule="evenodd" stroke="none"/>
    <path d="M4.35 -9.05 L4.45 -9.0 4.45 -8.9 4.4 -8.8 4.2 -8.8 4.15 -8.85 4.2 -8.9 4.2 -9.0 4.35 -9.05 M5.2 -0.7 L5.75 -1.3 Q5.45 -0.75 4.65 0.0 L4.6 0.0 5.2 -0.7 M-6.1 -5.5 L-6.15 -5.65 Q-6.15 -6.05 -5.95 -6.55 -5.75 -7.1 -5.55 -7.15 -5.6 -6.85 -5.8 -6.35 L-6.1 -5.5 M-4.1 -0.15 L-4.0 0.4 -4.05 0.5 Q-4.2 0.25 -4.2 0.15 L-4.2 0.0 -4.15 -0.15 -4.1 -0.15" fill="#ffffff" fill-rule="evenodd" stroke="none"/>
  </g>
</svg>
