<?xml version="1.0" encoding="UTF-8" standalone="no"?>
<svg xmlns:ffdec="https://www.free-decompiler.com/flash" xmlns:xlink="http://www.w3.org/1999/xlink" ffdec:objectType="shape" height="8.9px" width="12.15px" xmlns="http://www.w3.org/2000/svg">
  <g transform="matrix(1.0, 0.0, 0.0, 1.0, 5.45, 9.15)">
    <path d="M4.0 -9.05 L4.0 -9.1 4.1 -9.1 4.15 -9.0 Q4.2 -8.95 4.25 -8.9 L4.3 -8.9 4.3 -8.8 4.25 -8.75 4.2 -8.75 4.05 -8.8 Q3.95 -8.8 3.95 -9.0 L4.0 -9.05 M5.75 -1.4 L5.8 -1.45 6.05 -1.8 6.05 -1.9 Q6.3 -2.4 6.5 -2.65 L6.55 -2.8 6.55 -2.85 6.65 -2.85 Q6.7 -2.85 6.7 -2.7 6.7 -2.5 6.4 -1.95 6.1 -1.5 5.95 -1.35 L5.8 -1.35 5.75 -1.4 M-4.55 -8.8 L-4.55 -8.75 -4.5 -8.7 -4.55 -8.65 Q-4.75 -8.45 -5.0 -8.05 L-5.35 -7.5 -5.35 -7.45 -5.4 -7.45 -5.45 -7.5 -5.45 -7.55 Q-5.4 -7.85 -5.15 -8.2 -4.9 -8.65 -4.6 -8.8 L-4.55 -8.8 M-4.05 -1.3 L-4.05 -0.3 -4.1 -0.25 -4.2 -0.25 -4.2 -0.3 Q-4.3 -0.75 -4.3 -1.3 -4.3 -1.5 -4.2 -1.5 L-4.1 -1.5 Q-4.05 -1.45 -4.05 -1.3" fill="#00ffff" fill-opacity="0.49803922" fill-rule="evenodd" stroke="none"/>
    <path d="M4.05 -9.0 L4.05 -9.05 4.1 -8.95 4.25 -8.85 4.1 -8.85 Q4.05 -8.85 4.05 -9.0 M6.65 -2.7 Q6.65 -2.5 6.35 -2.0 6.05 -1.55 5.9 -1.4 L5.85 -1.4 Q6.05 -1.6 6.25 -1.95 L6.1 -1.85 Q6.35 -2.4 6.55 -2.6 L6.6 -2.8 6.65 -2.7 M-5.4 -7.5 Q-5.35 -7.85 -5.1 -8.2 -4.85 -8.6 -4.6 -8.7 -4.8 -8.5 -5.05 -8.1 L-5.4 -7.5 M-4.1 -0.3 L-4.15 -0.3 Q-4.25 -0.75 -4.25 -1.3 -4.25 -1.4 -4.15 -1.45 -4.1 -1.4 -4.1 -1.3 L-4.1 -0.3" fill="#ffffff" fill-rule="evenodd" stroke="none"/>
  </g>
</svg>
