<?xml version="1.0" encoding="UTF-8" standalone="no"?>
<svg xmlns:ffdec="https://www.free-decompiler.com/flash" xmlns:xlink="http://www.w3.org/1999/xlink" ffdec:objectType="shape" height="6.25px" width="1.0px" xmlns="http://www.w3.org/2000/svg">
  <g transform="matrix(1.0, 0.0, 0.0, 1.0, 6.1, 7.45)">
    <path d="M-5.3 -7.1 L-5.1 -7.45 -5.4 -6.8 Q-5.6 -6.4 -5.6 -6.15 L-5.65 -5.7 Q-5.7 -5.2 -5.7 -4.85 -5.7 -4.05 -5.55 -3.25 -5.45 -2.45 -5.45 -1.95 -5.45 -1.8 -5.45 -1.6 -5.5 -1.25 -5.6 -1.2 L-5.8 -1.2 Q-5.9 -1.25 -5.95 -1.35 L-5.95 -1.4 Q-6.05 -1.5 -6.1 -1.7 L-6.1 -1.75 Q-6.05 -1.75 -5.95 -1.6 -5.85 -1.4 -5.7 -1.35 -5.55 -1.65 -5.55 -2.1 L-5.7 -3.3 Q-5.85 -4.45 -5.85 -4.85 -5.85 -5.65 -5.7 -6.2 L-5.55 -6.75 -5.3 -7.1" fill="#fefefe" fill-opacity="0.9882353" fill-rule="evenodd" stroke="none"/>
  </g>
</svg>
