<?xml version="1.0" encoding="UTF-8" standalone="no"?>
<svg xmlns:ffdec="https://www.free-decompiler.com/flash" xmlns:xlink="http://www.w3.org/1999/xlink" ffdec:objectType="shape" height="6.9px" width="11.75px" xmlns="http://www.w3.org/2000/svg">
  <g transform="matrix(1.0, 0.0, 0.0, 1.0, 4.9, 8.95)">
    <path d="M6.6 -3.6 L6.6 -3.7 6.65 -3.75 6.8 -3.75 6.85 -3.45 Q6.85 -3.2 6.8 -3.05 L6.7 -2.95 6.65 -2.95 6.65 -3.0 6.6 -3.05 6.6 -3.6 M-4.2 -8.9 L-4.2 -8.8 -4.25 -8.75 -4.5 -8.65 Q-4.7 -8.55 -4.8 -8.5 L-4.85 -8.5 -4.85 -8.55 -4.9 -8.6 -4.85 -8.6 -4.65 -8.8 -4.65 -8.85 Q-4.4 -9.0 -4.25 -8.9 L-4.2 -8.9 M-3.8 -4.2 L-3.75 -4.2 -3.7 -4.15 -3.7 -4.0 Q-3.7 -3.9 -3.85 -3.1 L-4.0 -2.15 -4.0 -2.1 -4.05 -2.05 -4.15 -2.05 -4.15 -2.1 -4.2 -2.15 -4.2 -2.55 Q-4.1 -3.8 -3.85 -4.2 L-3.8 -4.2" fill="#00ffff" fill-opacity="0.49803922" fill-rule="evenodd" stroke="none"/>
    <path d="M6.75 -3.7 L6.8 -3.45 Q6.8 -3.2 6.75 -3.05 L6.7 -3.05 6.65 -3.6 6.65 -3.7 6.75 -3.7 M-4.55 -8.7 Q-4.7 -8.6 -4.8 -8.55 L-4.6 -8.75 Q-4.4 -8.9 -4.25 -8.85 L-4.55 -8.7 M-3.75 -4.0 Q-3.75 -3.9 -3.9 -3.1 L-4.1 -2.15 -4.15 -2.55 Q-4.05 -3.75 -3.75 -4.15 L-3.75 -4.0" fill="#ffffff" fill-rule="evenodd" stroke="none"/>
  </g>
</svg>
