<?xml version="1.0" encoding="UTF-8" standalone="no"?>
<svg xmlns:ffdec="https://www.free-decompiler.com/flash" xmlns:xlink="http://www.w3.org/1999/xlink" ffdec:objectType="shape" height="11.85px" width="13.0px" xmlns="http://www.w3.org/2000/svg">
  <g transform="matrix(1.0, 0.0, 0.0, 1.0, 6.45, 10.1)">
    <path d="M2.85 1.3 Q3.95 0.95 4.8 0.25 6.0 -0.75 6.3 -2.4 L6.4 -3.5 6.4 -3.9 Q6.25 -6.5 4.3 -8.3 3.85 -8.7 3.4 -9.0 L3.25 -9.1 Q1.95 -9.9 0.35 -9.95 L-0.25 -9.95 Q-2.3 -9.9 -3.8 -8.7 -3.35 -9.1 -2.85 -9.4 L-2.9 -9.45 Q-1.7 -10.05 -0.25 -10.1 2.45 -10.2 4.4 -8.4 6.4 -6.6 6.5 -3.9 6.65 -1.2 4.9 0.25 4.0 0.95 2.85 1.3 M-4.4 -8.15 L-4.8 -7.75 Q-5.4 -7.0 -5.8 -6.2 L-5.8 -6.15 -6.0 -5.65 Q-6.35 -4.7 -6.35 -3.6 L-6.35 -3.55 -6.3 -3.25 Q-6.2 -0.6 -4.2 0.65 L-4.25 0.65 Q-6.35 -0.6 -6.45 -3.3 -6.6 -6.0 -4.75 -8.0 L-4.4 -8.4 -4.4 -8.35 -4.65 -8.05 -5.1 -7.55 -5.05 -7.55 -4.35 -8.3 -4.35 -8.25 -4.4 -8.15 M-3.95 0.8 Q-3.4 1.1 -2.8 1.3 -3.4 1.1 -3.9 0.8 L-3.95 0.8 M-3.3 -9.2 L-3.35 -9.15 -3.35 -9.2 -3.3 -9.2" fill="#fefefe" fill-opacity="0.9882353" fill-rule="evenodd" stroke="none"/>
    <path d="M-3.8 -8.7 Q-2.3 -9.9 -0.25 -9.95 L0.35 -9.95 Q1.95 -9.9 3.25 -9.1 L3.4 -9.0 Q3.85 -8.7 4.3 -8.3 6.25 -6.5 6.4 -3.9 L6.4 -3.5 6.3 -2.4 Q6.0 -0.75 4.8 0.25 3.95 0.95 2.85 1.3 1.75 1.75 0.45 1.75 L-0.2 1.75 Q-1.6 1.7 -2.8 1.3 -3.4 1.1 -3.95 0.8 L-4.05 0.65 -4.2 0.65 Q-6.2 -0.6 -6.3 -3.25 L-6.35 -3.55 -6.35 -3.6 Q-6.35 -4.7 -6.0 -5.65 L-5.8 -6.15 -5.8 -6.2 Q-5.4 -7.0 -4.8 -7.75 L-4.4 -8.15 -4.35 -8.1 -4.3 -8.2 -4.25 -8.2 -4.25 -8.25 -4.2 -8.25 -3.8 -8.7 M-3.4 0.0 L-3.45 0.0 -3.45 0.15 -3.4 0.1 -3.4 0.0 M-3.85 0.8 L-3.7 0.65 Q-3.75 0.65 -3.9 0.75 -3.9 0.8 -3.85 0.8" fill="#70ffff" fill-opacity="0.49803922" fill-rule="evenodd" stroke="none"/>
    <path d="M-2.9 -9.45 L-2.85 -9.4 Q-3.35 -9.1 -3.8 -8.7 L-4.2 -8.25 -4.25 -8.25 -4.25 -8.2 -4.3 -8.2 -4.35 -8.1 -4.4 -8.15 -4.35 -8.25 -4.35 -8.3 -5.05 -7.55 -5.1 -7.55 -4.65 -8.05 -4.4 -8.35 -4.4 -8.4 -4.35 -8.4 Q-4.3 -8.4 -4.25 -8.35 L-3.8 -8.85 -3.35 -9.15 -3.3 -9.2 -2.95 -9.45 -2.9 -9.45 M-3.4 0.0 L-3.4 0.1 -3.45 0.15 -3.45 0.0 -3.4 0.0 M-3.85 0.8 Q-3.9 0.8 -3.9 0.75 -3.75 0.65 -3.7 0.65 L-3.85 0.8" fill="#ffffff" fill-rule="evenodd" stroke="none"/>
  </g>
</svg>
