<?xml version="1.0" encoding="UTF-8" standalone="no"?>
<svg xmlns:ffdec="https://www.free-decompiler.com/flash" xmlns:xlink="http://www.w3.org/1999/xlink" ffdec:objectType="shape" height="11.15px" width="6.9px" xmlns="http://www.w3.org/2000/svg">
  <g transform="matrix(1.0, 0.0, 0.0, 1.0, 2.55, 9.7)">
    <path d="M0.4 -4.95 L0.65 -4.85 1.6 -4.4 Q2.6 -4.15 3.35 -3.45 L3.75 -3.05 3.6 -3.25 3.65 -3.2 4.05 -2.65 4.1 -2.5 Q4.2 -2.35 4.25 -2.0 L4.3 -1.7 4.35 -1.15 Q4.35 -0.9 4.3 -0.75 L4.3 -0.6 4.25 -0.35 4.15 -0.15 4.0 0.05 Q3.75 0.45 3.5 0.7 L3.1 1.0 2.8 1.2 2.55 1.3 2.5 1.35 2.4 1.4 2.4 1.45 2.9 1.05 3.05 0.95 Q3.65 0.5 3.95 -0.05 L4.15 -0.6 Q4.25 -0.85 4.25 -1.15 L4.25 -1.4 Q4.2 -1.8 4.1 -2.2 L4.05 -2.2 Q3.95 -2.8 3.3 -3.4 2.75 -3.95 1.95 -4.25 1.2 -4.45 0.55 -4.75 L0.3 -4.85 0.4 -4.95" fill="#70ffff" fill-opacity="0.49803922" fill-rule="evenodd" stroke="none"/>
    <path d="M0.4 -4.95 L0.3 -4.85 -0.3 -5.2 Q-1.05 -5.65 -1.45 -6.15 -1.9 -6.5 -2.25 -7.15 -2.55 -7.9 -2.55 -8.5 -2.55 -8.95 -2.45 -9.2 -2.35 -9.5 -2.0 -9.7 -2.2 -9.45 -2.35 -9.15 -2.5 -8.85 -2.5 -8.5 -2.5 -7.9 -2.15 -7.25 -2.0 -6.85 -1.75 -6.5 L-1.75 -6.55 Q-1.4 -5.95 -0.3 -5.3 L0.4 -4.95" fill="#fefefe" fill-opacity="0.9882353" fill-rule="evenodd" stroke="none"/>
  </g>
</svg>
