<?xml version="1.0" encoding="UTF-8" standalone="no"?>
<svg xmlns:ffdec="https://www.free-decompiler.com/flash" xmlns:xlink="http://www.w3.org/1999/xlink" ffdec:objectType="shape" height="6.95px" width="9.85px" xmlns="http://www.w3.org/2000/svg">
  <g transform="matrix(1.0, 0.0, 0.0, 1.0, 6.2, 5.5)">
    <path d="M3.5 -5.5 L3.6 -5.5 3.6 -5.45 Q3.65 -5.45 3.65 -5.3 3.65 -5.1 3.2 -4.2 2.7 -3.3 2.45 -3.1 L2.35 -3.1 2.35 -3.2 2.85 -4.4 Q3.15 -5.1 3.45 -5.5 L3.5 -5.5 M3.15 1.05 L3.2 1.1 Q3.25 1.1 3.25 1.25 3.3 1.35 3.1 1.45 L2.9 1.45 2.85 1.4 2.85 1.3 Q2.85 1.25 2.9 1.2 2.95 1.1 3.15 1.05 M-5.9 -1.55 L-5.85 -1.55 -5.8 -1.5 -5.8 -1.45 -5.75 -1.4 -5.75 -1.3 -5.7 -1.15 -5.7 -0.95 Q-5.7 -0.8 -5.8 -0.8 L-5.85 -0.8 -5.85 -0.85 -6.05 -1.05 -6.05 -1.1 -6.1 -1.15 Q-6.2 -1.2 -6.2 -1.5 L-6.15 -1.55 -5.9 -1.55" fill="#00ffff" fill-opacity="0.49803922" fill-rule="evenodd" stroke="none"/>
    <path d="M3.6 -5.3 Q3.6 -5.1 3.1 -4.25 2.65 -3.35 2.4 -3.15 L2.9 -4.4 Q3.2 -5.1 3.5 -5.45 L3.55 -5.4 3.6 -5.3 M3.2 1.25 Q3.2 1.3 3.05 1.35 L2.95 1.35 Q2.9 1.4 2.9 1.3 2.9 1.25 2.95 1.25 3.0 1.15 3.15 1.15 L3.2 1.15 3.2 1.25 M-5.85 -1.4 L-5.8 -1.35 -5.8 -1.15 -5.75 -0.95 -5.8 -0.9 -6.0 -1.1 -6.05 -1.2 Q-6.1 -1.25 -6.1 -1.5 -6.0 -1.5 -5.9 -1.45 L-5.85 -1.45 -5.85 -1.4" fill="#ffffff" fill-rule="evenodd" stroke="none"/>
  </g>
</svg>
