<?xml version="1.0" encoding="UTF-8" standalone="no"?>
<svg xmlns:ffdec="https://www.free-decompiler.com/flash" xmlns:xlink="http://www.w3.org/1999/xlink" ffdec:objectType="shape" height="11.85px" width="13.0px" xmlns="http://www.w3.org/2000/svg">
  <g transform="matrix(1.0, 0.0, 0.0, 1.0, 6.45, 10.1)">
    <path d="M6.05 -5.65 Q5.6 -7.15 4.3 -8.3 3.85 -8.7 3.4 -9.0 L3.25 -9.1 Q1.95 -9.9 0.35 -9.95 L-0.25 -9.95 Q-0.95 -9.95 -1.65 -9.75 -1.3 -9.95 -0.95 -10.0 L-1.05 -10.0 -1.25 -9.95 -1.1 -10.0 -0.25 -10.1 Q2.45 -10.2 4.4 -8.4 5.75 -7.2 6.25 -5.6 L6.15 -5.5 6.2 -5.55 6.15 -5.65 6.05 -5.65 M-1.95 -9.65 Q-3.0 -9.35 -3.85 -8.65 L-3.9 -8.65 -4.8 -7.75 Q-5.4 -7.0 -5.8 -6.2 L-5.8 -6.15 -6.0 -5.65 Q-6.35 -4.7 -6.35 -3.6 L-6.35 -3.55 -6.3 -3.25 Q-6.2 -0.6 -4.2 0.65 -3.55 1.05 -2.8 1.3 -3.55 1.05 -4.25 0.65 -6.35 -0.6 -6.45 -3.3 -6.6 -6.0 -4.75 -8.0 -3.6 -9.3 -2.05 -9.8 L-2.0 -9.75 -1.75 -9.8 -1.95 -9.65 M2.85 1.3 Q3.95 0.95 4.8 0.25 6.0 -0.75 6.3 -2.4 L6.4 -3.5 6.4 -3.9 Q6.35 -4.7 6.15 -5.45 6.15 -5.4 6.25 -5.3 L6.3 -5.3 6.35 -5.25 6.35 -5.2 Q6.5 -4.6 6.5 -3.9 6.65 -1.2 4.9 0.25 4.0 0.95 2.85 1.3" fill="#fefefe" fill-opacity="0.9882353" fill-rule="evenodd" stroke="none"/>
    <path d="M-1.65 -9.75 Q-0.95 -9.95 -0.25 -9.95 L0.35 -9.95 Q1.95 -9.9 3.25 -9.1 L3.4 -9.0 Q3.85 -8.7 4.3 -8.3 5.6 -7.15 6.05 -5.65 6.05 -5.6 6.05 -5.5 L6.05 -5.45 6.15 -5.45 Q6.35 -4.7 6.4 -3.9 L6.4 -3.5 6.3 -2.4 Q6.0 -0.75 4.8 0.25 3.95 0.95 2.85 1.3 1.75 1.75 0.45 1.75 L-0.2 1.75 Q-1.6 1.7 -2.8 1.3 -3.55 1.05 -4.2 0.65 -6.2 -0.6 -6.3 -3.25 L-6.35 -3.55 -6.35 -3.6 Q-6.35 -4.7 -6.0 -5.65 L-5.8 -6.15 -5.8 -6.2 Q-5.4 -7.0 -4.8 -7.75 L-3.9 -8.65 -3.85 -8.65 Q-3.0 -9.35 -1.95 -9.65 L-2.05 -9.6 Q-2.35 -9.3 -2.35 -9.05 L-2.3 -9.05 Q-2.25 -9.3 -1.9 -9.6 L-1.65 -9.75" fill="#70ffff" fill-opacity="0.49803922" fill-rule="evenodd" stroke="none"/>
    <path d="M6.05 -5.65 L6.15 -5.65 6.2 -5.55 6.15 -5.5 6.15 -5.45 6.05 -5.45 6.05 -5.5 Q6.05 -5.6 6.05 -5.65 M-1.25 -9.95 L-1.05 -10.0 -0.95 -10.0 Q-1.3 -9.95 -1.65 -9.75 L-1.9 -9.6 Q-2.25 -9.3 -2.3 -9.05 L-2.35 -9.05 Q-2.35 -9.3 -2.05 -9.6 L-1.95 -9.65 -1.75 -9.8 Q-1.5 -9.95 -1.25 -9.95" fill="#ffffff" fill-rule="evenodd" stroke="none"/>
  </g>
</svg>
