<?xml version="1.0" encoding="UTF-8" standalone="no"?>
<svg xmlns:ffdec="https://www.free-decompiler.com/flash" xmlns:xlink="http://www.w3.org/1999/xlink" ffdec:objectType="shape" height="9.4px" width="10.95px" xmlns="http://www.w3.org/2000/svg">
  <g transform="matrix(1.0, 0.0, 0.0, 1.0, 6.4, 8.1)">
    <path d="M4.35 -8.1 L4.45 -8.1 4.5 -8.05 4.55 -7.9 4.55 -7.7 Q4.55 -7.45 4.35 -7.0 4.15 -6.55 4.0 -6.4 L3.9 -6.4 3.9 -6.5 Q4.25 -7.25 4.3 -8.0 L4.3 -8.05 4.35 -8.1 M3.75 0.85 L3.75 0.9 Q3.55 1.2 3.3 1.3 L3.2 1.3 3.15 1.25 3.15 1.15 Q3.15 1.0 3.35 0.9 3.55 0.75 3.7 0.8 L3.75 0.85 M-6.4 -2.8 L-6.4 -3.05 -6.3 -3.15 -6.25 -3.15 -6.2 -3.1 -6.2 -3.05 Q-5.95 -2.0 -5.95 -1.75 -5.95 -1.7 -6.0 -1.65 L-6.0 -1.6 -6.05 -1.6 -6.1 -1.65 Q-6.2 -1.75 -6.35 -2.25 -6.4 -2.65 -6.4 -2.8" fill="#00ffff" fill-opacity="0.49803922" fill-rule="evenodd" stroke="none"/>
    <path d="M4.5 -7.9 L4.5 -7.7 Q4.5 -7.45 4.3 -7.0 4.1 -6.6 3.95 -6.5 4.3 -7.25 4.35 -8.0 L4.45 -8.0 4.5 -7.9 M3.25 1.2 Q3.25 1.25 3.25 1.15 3.25 1.05 3.4 0.95 3.6 0.85 3.7 0.85 3.5 1.15 3.25 1.2 M-6.05 -1.75 L-6.05 -1.7 Q-6.15 -1.8 -6.25 -2.25 -6.35 -2.65 -6.35 -2.8 L-6.3 -3.05 -6.25 -3.05 Q-6.05 -2.0 -6.05 -1.75" fill="#ffffff" fill-rule="evenodd" stroke="none"/>
  </g>
</svg>
