<?xml version="1.0" encoding="UTF-8" standalone="no"?>
<svg xmlns:ffdec="https://www.free-decompiler.com/flash" xmlns:xlink="http://www.w3.org/1999/xlink" ffdec:objectType="shape" height="5.4px" width="11.1px" xmlns="http://www.w3.org/2000/svg">
  <g transform="matrix(1.0, 0.0, 0.0, 1.0, 4.3, 9.0)">
    <path d="M6.5 -3.75 Q6.45 -3.95 6.75 -3.95 6.8 -3.95 6.8 -3.8 L6.8 -3.65 6.75 -3.6 6.55 -3.6 6.55 -3.65 6.5 -3.65 6.5 -3.75 M-4.3 -8.95 L-4.25 -9.0 -4.05 -8.95 -4.0 -8.9 Q-4.0 -8.75 -4.05 -8.75 L-4.1 -8.7 -4.25 -8.7 -4.3 -8.75 -4.3 -8.95 M-2.85 -6.95 L-2.85 -6.9 Q-3.45 -5.25 -3.6 -4.75 L-3.6 -4.7 -3.65 -4.65 -3.7 -4.65 -3.75 -4.7 -3.75 -4.75 -3.7 -4.95 -3.7 -5.05 -3.5 -5.9 Q-3.3 -6.55 -2.95 -7.0 L-2.9 -7.0 -2.85 -6.95" fill="#00ffff" fill-opacity="0.49803922" fill-rule="evenodd" stroke="none"/>
    <path d="M6.75 -3.7 L6.65 -3.65 6.6 -3.7 6.55 -3.7 6.55 -3.75 Q6.55 -3.85 6.75 -3.9 L6.75 -3.7 M-4.25 -8.8 L-4.25 -8.9 -4.05 -8.9 -4.1 -8.8 -4.25 -8.8 M-3.45 -5.85 Q-3.25 -6.5 -2.9 -6.95 -3.5 -5.25 -3.65 -4.75 L-3.7 -4.75 -3.65 -5.0 -3.65 -5.05 -3.45 -5.85" fill="#ffffff" fill-rule="evenodd" stroke="none"/>
  </g>
</svg>
