<?xml version="1.0" encoding="UTF-8" standalone="no"?>
<svg xmlns:ffdec="https://www.free-decompiler.com/flash" xmlns:xlink="http://www.w3.org/1999/xlink" ffdec:objectType="shape" height="84.0px" width="84.0px" xmlns="http://www.w3.org/2000/svg">
  <g transform="matrix(1.0, 0.0, 0.0, 1.0, 40.95, 48.7)">
    <path d="M-4.45 -32.5 Q-2.0 -32.95 0.65 -32.95 5.85 -32.95 10.3 -31.15 M12.6 -30.1 Q16.0 -28.3 18.9 -25.35 L20.55 -23.6 M24.0 -18.35 Q26.2 -13.85 26.45 -8.55 M21.8 -22.0 Q22.55 -20.95 23.15 -19.9 M-8.2 -31.45 L-7.35 -31.75 M-14.6 13.8 Q-16.2 12.6 -17.65 11.15 -25.2 3.6 -25.2 -7.1 -25.2 -8.55 -25.05 -9.95 M-21.75 -20.15 Q-20.15 -22.85 -17.8 -25.2 M-24.75 -12.25 Q-24.1 -15.6 -22.6 -18.6 M-16.15 -26.75 Q-13.6 -28.95 -10.8 -30.35 M26.45 -6.3 Q26.2 3.9 18.9 11.15 17.25 12.85 15.4 14.15 M13.5 15.4 Q7.75 18.75 0.65 18.75 -7.3 18.75 -13.5 14.6" fill="none" stroke="#ffffff" stroke-linecap="round" stroke-linejoin="round" stroke-opacity="0.15294118" stroke-width="1.1500000000000001"/>
    <path d="M5.7 -47.25 Q7.15 -47.05 8.55 -46.8 21.85 -34.05 29.05 -16.0 35.15 -0.75 36.0 14.7 32.35 20.6 26.45 25.25 24.25 27.0 21.9 28.45 24.7 13.0 21.55 -3.05 16.7 -28.1 2.0 -47.5 L5.7 -47.25 M12.4 -45.95 Q24.65 -42.6 33.0 -32.1 43.55 -18.85 41.6 -2.05 40.7 5.95 37.2 12.55 37.75 -1.7 32.25 -15.5 25.2 -33.15 12.4 -45.95 M17.35 -12.8 Q23.35 8.35 20.5 29.25 14.6 32.55 8.05 33.65 7.0 15.6 5.35 -2.8 3.2 -25.75 -4.1 -47.25 -1.7 -47.55 0.7 -47.55 12.0 -31.7 17.35 -12.8 M6.25 33.9 Q1.5 34.45 -3.55 33.85 -6.1 33.55 -8.5 33.05 -14.8 23.05 -16.9 10.75 -21.2 -15.0 -18.15 -40.75 -19.15 -37.85 -19.55 -34.4 -22.35 -9.5 -17.6 15.3 -15.75 25.1 -10.8 32.45 -14.5 31.35 -17.8 29.65 -24.5 17.6 -27.9 3.85 -32.7 -15.45 -29.95 -33.35 -27.45 -36.2 -24.35 -38.65 -18.3 -43.45 -11.5 -45.65 -12.4 -40.75 -11.95 -35.25 -10.45 -17.0 -4.15 -0.1 -6.1 -11.5 -8.25 -23.4 -10.4 -35.15 -9.1 -46.35 -7.2 -46.85 -5.2 -47.15 4.35 -17.55 4.45 13.45 4.5 24.1 6.25 33.9 M-39.5 -11.3 Q-38.3 -21.75 -32.75 -29.75 -33.15 -25.55 -33.1 -21.25 -32.65 6.55 -19.15 28.9 -25.8 25.15 -30.9 18.7 -41.4 5.5 -39.5 -11.3 M-13.55 -29.55 Q-15.65 -19.0 -13.8 -7.15 -10.45 14.0 1.55 31.25 -5.2 20.2 -8.85 7.65 -14.2 -10.75 -13.55 -29.55" fill="#ffffff" fill-opacity="0.023529412" fill-rule="evenodd" stroke="none"/>
    <path d="M15.6 -18.9 Q21.1 -13.35 21.1 -5.55 21.1 2.3 15.6 7.85 10.05 13.35 2.2 13.35 -5.6 13.35 -11.15 7.85 -16.7 2.3 -16.7 -5.55 -16.7 -13.35 -11.15 -18.9 -5.6 -24.45 2.2 -24.45 10.05 -24.45 15.6 -18.9" fill="#ffffff" fill-opacity="0.7529412" fill-rule="evenodd" stroke="none"/>
  </g>
</svg>
