<?xml version="1.0" encoding="UTF-8" standalone="no"?>
<svg xmlns:ffdec="https://www.free-decompiler.com/flash" xmlns:xlink="http://www.w3.org/1999/xlink" ffdec:objectType="shape" height="60.0px" width="59.95px" xmlns="http://www.w3.org/2000/svg">
  <g transform="matrix(1.0, 0.0, 0.0, 1.0, 29.35, 37.1)">
    <path d="M-7.25 -34.35 Q-3.5 -35.35 0.65 -35.35 L2.25 -35.35 M4.6 -35.1 Q12.3 -34.15 18.35 -29.15 M20.1 -27.6 L20.15 -27.55 M24.5 -22.4 Q25.1 -21.45 25.65 -20.4 M28.55 -11.75 L28.65 -11.25 M28.65 -11.1 Q28.85 -9.8 28.9 -8.45 M28.45 -1.8 L28.3 -1.05 M-16.15 -29.9 Q-14.55 -31.1 -12.85 -32.05 M-26.85 -13.9 Q-26.45 -15.65 -25.8 -17.3 M-22.4 -23.6 Q-21.15 -25.25 -19.7 -26.75 M-18.3 13.9 L-19.35 12.9 Q-22.35 9.9 -24.3 6.4 M4.0 21.0 L0.65 21.15 Q-6.8 21.15 -12.9 17.8 M19.8 13.7 Q13.9 19.2 6.3 20.65 M25.95 5.7 Q24.2 9.05 21.5 12.0 M28.3 -0.95 Q27.85 1.1 27.15 3.0 M-25.05 4.9 Q-27.4 -0.05 -27.6 -5.95" fill="none" stroke="#ffffff" stroke-linecap="round" stroke-linejoin="round" stroke-opacity="0.101960786" stroke-width="1.1500000000000001"/>
    <path d="M-5.1 -0.3 Q-5.25 -0.6 -5.6 -0.75 -5.85 -0.85 -6.1 -0.9 -6.85 -0.65 -7.2 0.2 -7.75 1.5 -6.3 1.95 -5.9 1.75 -5.45 1.55 L-5.2 1.4 Q-5.15 1.35 -5.15 1.3 -5.45 0.8 -5.1 0.25 -4.95 0.0 -5.1 -0.3 M-7.35 -15.5 Q-7.95 -15.3 -8.65 -15.0 -11.7 -13.85 -11.4 -10.75 -11.25 -9.55 -10.3 -9.3 -7.2 -8.35 -3.9 -10.45 -4.25 -10.65 -4.8 -10.4 -5.65 -9.95 -6.55 -9.85 -5.45 -11.0 -5.2 -12.55 -4.8 -15.15 -7.35 -15.5 M16.95 -10.45 Q16.95 -10.9 16.9 -11.3 17.9 -8.85 17.95 -6.0 L17.2 -5.95 Q15.75 -5.5 14.55 -6.25 17.0 -7.55 16.95 -10.45 M0.2 -8.1 L0.2 -8.05 Q-0.4 -8.1 -0.65 -7.55 -0.75 -7.25 -0.75 -6.95 L-0.5 -6.65 Q0.15 -6.2 0.9 -6.55 L1.05 -6.8 Q1.25 -7.05 1.25 -7.3 L1.2 -7.6 1.15 -7.75 Q0.9 -7.9 0.65 -8.0 L0.2 -8.1 M15.15 -14.55 Q14.15 -15.25 12.6 -15.45 10.2 -14.25 10.4 -11.4 10.9 -4.2 17.95 -5.65 L17.95 -5.55 Q17.95 -0.75 15.5 3.0 L15.2 3.0 Q15.55 1.75 14.9 0.75 14.05 -0.7 12.15 -0.75 9.75 -0.6 8.45 1.6 8.0 2.4 8.2 3.15 9.95 9.75 14.8 3.6 L15.1 3.6 Q14.3 4.65 13.35 5.6 8.75 10.2 2.2 10.2 -4.3 10.2 -8.9 5.6 -13.55 1.0 -13.55 -5.55 -13.55 -12.05 -8.9 -16.65 -4.3 -21.3 2.2 -21.3 8.75 -21.3 13.35 -16.65 14.35 -15.65 15.15 -14.55" fill="#ffffff" fill-opacity="0.4" fill-rule="evenodd" stroke="none"/>
  </g>
</svg>
