<?xml version="1.0" encoding="UTF-8" standalone="no"?>
<svg xmlns:ffdec="https://www.free-decompiler.com/flash" xmlns:xlink="http://www.w3.org/1999/xlink" ffdec:objectType="shape" height="9.0px" width="8.8px" xmlns="http://www.w3.org/2000/svg">
  <g transform="matrix(1.0, 0.0, 0.0, 1.0, 4.4, 4.5)">
    <path d="M4.15 -0.2 Q4.15 -0.65 3.95 -1.4 3.75 -2.15 3.5 -2.45 2.9 -3.2 2.45 -3.55 2.15 -3.8 1.4 -4.05 0.55 -4.3 0.05 -4.15 L-0.6 -4.05 -0.65 -4.05 -1.05 -3.95 -2.25 -3.55 Q-2.5 -3.45 -2.9 -3.1 L-3.35 -2.55 Q-3.8 -2.05 -4.0 -1.45 -4.15 -1.0 -4.15 -0.4 -4.15 -0.05 -4.0 0.75 L-3.85 1.8 Q-3.75 2.1 -3.6 2.4 -3.4 2.75 -3.2 2.9 L-2.8 3.15 -2.7 3.25 -2.35 3.45 -2.25 3.5 -2.2 3.55 Q-2.0 3.7 -1.75 3.85 -1.05 4.15 0.3 4.15 2.6 4.15 3.55 2.25 4.15 1.15 4.15 -0.2 M0.35 -4.5 Q2.45 -4.1 3.45 -2.7 4.35 -1.55 4.4 0.3 L4.2 1.2 Q3.9 2.15 3.8 2.35 L3.25 3.15 Q3.2 3.55 2.35 4.05 L2.25 4.05 1.75 4.25 1.25 4.4 0.6 4.45 0.2 4.5 -0.9 4.5 -1.1 4.4 -1.35 4.4 Q-2.75 3.7 -3.4 3.05 -3.95 2.45 -4.05 1.8 L-4.2 1.35 -4.25 1.3 -4.3 1.15 Q-4.4 0.6 -4.4 0.0 -4.4 -0.7 -4.25 -1.25 -4.05 -1.85 -3.5 -2.6 -2.9 -3.55 -1.9 -3.9 -1.5 -4.05 -0.75 -4.2 0.0 -4.4 0.25 -4.45 L0.35 -4.5" fill="#ffffff" fill-rule="evenodd" stroke="none"/>
  </g>
</svg>
