<?xml version="1.0" encoding="UTF-8" standalone="no"?>
<svg xmlns:ffdec="https://www.free-decompiler.com/flash" xmlns:xlink="http://www.w3.org/1999/xlink" ffdec:objectType="shape" height="36.95px" width="34.1px" xmlns="http://www.w3.org/2000/svg">
  <g transform="matrix(1.0, 0.0, 0.0, 1.0, 11.85, 35.8)">
    <path d="M4.65 -34.95 L4.75 -34.75 4.8 -34.45 Q4.8 -34.1 4.5 -33.0 4.25 -31.8 4.05 -31.35 3.95 -31.05 4.0 -30.55 L4.1 -29.7 Q4.1 -29.35 3.9 -28.85 L3.8 -28.15 Q3.65 -27.35 3.25 -27.35 L3.05 -27.4 3.0 -27.4 2.95 -27.45 Q2.95 -27.5 2.95 -27.65 2.95 -27.8 3.15 -28.2 3.3 -28.6 3.3 -28.75 3.3 -28.8 2.75 -29.4 2.4 -29.4 2.25 -28.65 L2.2 -27.9 Q2.2 -27.1 1.9 -26.7 1.75 -26.45 1.3 -26.2 0.85 -25.95 0.7 -25.7 0.45 -25.3 0.45 -24.6 0.45 -23.95 0.2 -22.95 L0.0 -22.35 -0.15 -21.5 -0.25 -20.8 -0.25 -20.75 -0.2 -20.3 -0.15 -20.25 Q-0.05 -20.0 -0.05 -19.85 L-0.05 -19.4 Q-0.05 -19.05 -0.35 -18.1 -0.6 -17.2 -0.6 -16.85 -0.6 -16.35 -0.45 -15.95 -0.35 -15.6 -0.35 -14.85 -0.35 -14.6 -0.5 -14.1 -0.7 -13.6 -0.7 -13.5 L-0.65 -12.95 Q-0.6 -12.6 -0.35 -12.6 L0.2 -12.7 Q0.65 -13.25 0.85 -13.8 0.9 -14.35 0.8 -15.1 0.8 -15.55 1.0 -16.35 L1.3 -17.75 Q1.4 -18.15 1.7 -19.05 2.0 -19.95 2.1 -20.4 2.4 -21.75 3.05 -21.45 3.3 -21.3 3.5 -20.95 3.7 -20.6 3.7 -20.25 L3.6 -19.8 Q3.5 -19.45 3.5 -19.15 3.65 -19.3 3.95 -19.4 L4.45 -20.4 Q4.8 -21.1 4.8 -21.6 L4.55 -21.1 4.8 -21.85 4.65 -22.25 4.55 -22.55 Q4.45 -22.9 4.45 -23.15 4.45 -23.8 4.6 -24.0 4.7 -24.2 4.95 -24.3 L5.1 -24.9 Q5.1 -25.0 4.9 -25.15 4.7 -25.25 4.7 -25.45 4.7 -26.5 5.85 -27.35 L6.65 -27.9 Q7.05 -28.15 7.1 -28.2 7.15 -28.4 7.2 -28.65 L7.25 -29.0 Q7.3 -29.25 7.45 -29.4 7.6 -29.55 7.85 -29.7 8.25 -29.85 8.5 -30.35 8.6 -30.6 8.75 -31.05 L8.75 -31.1 Q8.4 -30.95 7.8 -30.2 L7.35 -29.65 7.15 -29.5 Q7.0 -29.5 6.95 -29.6 L6.9 -29.75 Q6.7 -29.55 6.35 -29.0 6.15 -28.6 5.9 -28.6 L5.5 -28.7 4.95 -28.8 4.95 -28.9 Q4.9 -28.95 4.9 -29.1 4.9 -29.35 5.25 -29.65 L5.65 -30.1 5.9 -30.45 6.05 -30.95 5.9 -30.5 5.85 -30.55 Q5.9 -30.75 6.1 -31.1 6.35 -31.75 6.4 -31.9 6.6 -32.15 6.7 -32.45 L6.75 -32.9 Q6.85 -33.3 7.55 -33.3 7.6 -33.3 7.8 -33.5 7.9 -33.65 8.1 -33.65 L8.25 -33.8 Q8.4 -34.1 8.6 -34.3 L8.75 -34.3 8.8 -34.35 9.0 -34.4 9.8 -34.75 10.45 -35.05 10.85 -35.5 Q11.9 -36.4 11.9 -34.55 11.9 -34.35 11.8 -33.85 L11.8 -33.6 Q11.8 -33.5 12.1 -32.75 L12.4 -31.95 Q12.4 -31.2 11.6 -29.9 10.85 -28.6 10.85 -27.9 L11.05 -27.4 Q11.05 -26.8 8.0 -23.35 7.95 -23.15 7.8 -23.05 L7.5 -22.75 7.5 -23.15 Q7.45 -23.2 7.4 -23.3 7.4 -23.45 7.4 -23.55 7.4 -23.9 7.65 -24.15 7.8 -24.8 8.15 -25.7 8.85 -27.6 8.85 -27.75 8.85 -27.8 8.65 -27.95 8.55 -28.1 8.25 -28.1 7.85 -28.1 7.15 -26.65 6.45 -25.0 6.2 -24.55 L5.4 -22.85 5.4 -22.8 Q5.7 -22.45 5.7 -22.25 5.7 -22.15 5.5 -21.35 5.25 -20.55 5.2 -20.4 5.0 -19.8 4.8 -19.55 4.55 -19.15 4.1 -18.95 L4.05 -18.9 3.85 -18.65 Q3.45 -18.1 3.5 -17.6 3.55 -17.3 3.4 -16.75 L3.15 -15.7 Q3.05 -15.1 2.55 -13.45 L2.1 -11.85 Q2.1 -11.5 2.65 -11.3 3.1 -11.15 3.4 -11.15 L3.65 -11.15 Q4.05 -11.25 4.55 -11.65 L4.6 -11.65 4.4 -11.55 Q4.65 -11.9 5.15 -12.4 L5.9 -13.4 6.75 -14.45 Q7.15 -14.95 7.3 -15.4 7.5 -15.95 7.5 -16.85 7.5 -17.45 7.2 -17.7 L7.05 -17.9 6.85 -18.1 Q6.75 -18.2 6.75 -18.3 6.75 -19.0 7.7 -20.0 9.05 -21.4 9.2 -21.7 9.4 -22.0 10.05 -22.55 10.7 -23.15 10.8 -23.1 11.1 -23.05 11.1 -22.35 11.05 -22.05 11.1 -21.9 L11.45 -22.1 Q12.0 -22.6 12.7 -23.45 L14.05 -25.05 Q14.5 -25.55 16.25 -26.2 17.3 -26.6 17.7 -26.6 18.0 -26.6 18.0 -26.4 L17.4 -25.1 Q16.75 -23.85 16.75 -23.05 L16.9 -22.75 Q17.05 -22.5 17.05 -22.4 17.05 -22.05 16.7 -21.75 16.2 -21.2 15.95 -20.7 15.8 -20.5 15.7 -19.95 L15.5 -19.15 Q15.4 -18.65 15.3 -18.35 15.15 -17.85 14.65 -17.55 14.1 -17.25 13.7 -16.8 L13.1 -16.2 12.65 -16.2 Q12.45 -16.25 12.35 -16.5 12.25 -16.65 12.25 -16.85 12.25 -17.2 13.35 -19.05 14.5 -21.0 14.6 -21.55 L14.6 -21.65 Q13.85 -21.6 13.3 -20.8 L12.65 -19.55 Q12.55 -19.4 12.0 -18.95 L11.3 -18.4 10.8 -17.9 10.75 -17.8 10.9 -17.9 Q10.85 -17.75 10.8 -17.6 10.6 -17.3 10.3 -17.3 10.2 -17.3 10.15 -17.4 L10.05 -17.55 10.0 -17.65 9.95 -17.8 9.8 -18.1 Q9.65 -18.5 9.65 -18.8 L9.55 -18.95 9.2 -18.65 Q9.0 -18.45 9.0 -18.3 9.0 -18.1 9.1 -18.05 L9.2 -17.95 9.15 -17.8 Q9.05 -17.7 8.95 -17.7 L8.9 -17.7 8.95 -17.5 Q9.1 -17.45 9.2 -17.3 9.35 -17.15 9.35 -17.0 9.35 -16.7 8.9 -16.15 L8.8 -16.05 Q8.6 -14.8 7.3 -13.55 L6.75 -13.1 Q6.65 -12.85 6.65 -12.7 6.65 -12.15 6.95 -12.15 L7.2 -12.15 Q7.35 -12.25 7.5 -12.4 7.8 -12.7 8.2 -12.7 8.5 -12.7 8.7 -12.25 8.85 -11.9 8.85 -11.8 8.85 -11.45 8.6 -11.1 8.35 -10.65 8.05 -10.65 L8.05 -10.5 8.1 -10.1 Q8.1 -10.0 7.8 -9.05 7.8 -8.6 7.9 -8.4 8.0 -8.05 8.4 -7.75 10.0 -8.3 10.25 -9.3 10.35 -9.75 10.5 -9.85 10.75 -10.05 11.5 -10.05 L12.15 -10.15 Q12.85 -10.3 13.8 -10.85 15.15 -11.6 15.45 -12.05 L15.15 -12.3 14.95 -12.5 Q14.7 -12.35 14.4 -12.25 L14.4 -12.65 Q14.4 -13.1 15.0 -13.6 15.75 -14.15 16.7 -14.2 17.35 -15.8 17.85 -15.85 18.4 -15.9 19.0 -14.1 L19.55 -14.05 21.25 -13.7 Q22.1 -13.5 22.25 -13.35 22.3 -12.85 21.3 -12.4 20.1 -12.0 19.75 -11.75 L19.05 -11.4 Q18.55 -11.15 18.45 -10.9 18.25 -10.4 18.05 -10.3 L16.85 -10.2 Q16.15 -10.2 13.8 -9.5 L13.45 -9.4 11.8 -8.85 11.75 -8.8 11.7 -8.8 10.8 -8.45 Q10.5 -8.25 10.35 -7.95 10.25 -7.75 10.1 -7.4 L9.95 -6.85 Q9.55 -5.9 9.05 -5.9 8.85 -5.9 8.8 -5.8 8.7 -5.7 8.7 -5.15 8.7 -4.75 8.85 -4.45 8.9 -4.4 8.95 -4.3 L8.95 -4.35 9.0 -4.45 9.0 -4.25 Q9.15 -4.1 9.4 -4.05 10.35 -4.1 10.65 -4.6 L10.85 -4.95 Q10.95 -5.1 11.2 -5.1 L11.6 -5.0 Q11.9 -4.85 12.0 -4.85 L12.7 -4.95 13.25 -5.05 14.0 -5.1 14.2 -5.35 14.3 -5.6 Q14.3 -5.8 14.1 -6.0 L13.65 -6.45 Q13.75 -6.75 13.9 -6.9 14.2 -7.05 14.85 -7.1 L15.2 -7.5 Q15.35 -7.7 15.4 -7.75 L15.85 -7.7 16.0 -7.5 Q16.05 -7.3 16.25 -7.05 20.3 -6.45 20.8 -5.85 20.2 -5.4 19.9 -5.25 19.35 -4.9 18.3 -4.7 18.2 -4.45 17.85 -4.3 L17.4 -4.1 17.3 -4.15 17.45 -4.4 17.2 -4.35 Q16.8 -4.25 16.75 -4.2 L16.65 -4.0 16.8 -3.9 16.95 -3.7 Q16.6 -3.15 16.35 -3.1 16.2 -3.05 14.75 -3.05 13.4 -3.05 12.3 -2.6 L10.15 -1.8 9.7 -1.25 Q9.45 -1.05 8.55 -0.85 L6.0 -0.65 Q5.1 -0.65 4.75 -0.95 4.6 -1.1 4.6 -1.35 4.6 -1.6 4.75 -1.6 L5.2 -1.75 5.15 -1.85 Q5.15 -1.9 5.8 -2.95 6.5 -4.05 6.65 -4.55 L7.05 -5.85 Q7.4 -7.0 7.4 -7.25 L7.3 -8.05 Q7.2 -8.7 7.2 -8.85 7.2 -9.3 7.4 -9.7 7.6 -10.1 7.6 -10.5 7.6 -10.85 7.5 -11.1 L7.3 -11.05 Q7.15 -11.05 7.1 -11.15 7.05 -11.25 6.75 -11.3 L6.55 -11.35 Q6.4 -11.4 6.3 -11.5 6.2 -11.45 6.15 -11.4 L5.95 -11.05 Q5.5 -10.55 4.2 -10.55 L3.75 -10.45 3.3 -10.3 Q2.55 -10.1 2.35 -10.0 1.9 -9.7 1.8 -8.95 1.65 -8.0 1.5 -7.75 1.15 -7.2 0.35 -6.55 -0.5 -5.8 -0.8 -5.45 -0.95 -5.25 -1.25 -4.35 -1.5 -3.45 -1.5 -3.15 -1.5 -2.8 -0.95 -2.3 -0.4 -1.85 -0.4 -1.2 -0.4 -0.5 -1.75 0.3 -3.2 1.15 -4.8 1.15 -5.5 1.15 -7.25 0.4 -8.95 -0.35 -8.95 -0.65 -8.95 -1.2 -8.85 -1.35 -8.6 -1.7 -7.7 -1.7 L-7.7 -1.75 Q-7.65 -1.8 -7.65 -1.95 L-8.25 -3.0 Q-8.85 -4.05 -8.85 -4.6 -8.85 -5.05 -8.8 -5.6 -8.9 -5.9 -8.9 -6.15 -8.9 -6.75 -8.55 -7.3 -8.25 -7.85 -8.25 -8.4 -8.25 -8.65 -8.5 -9.0 -8.7 -9.3 -9.05 -9.7 -9.4 -10.15 -9.85 -10.6 -10.15 -11.0 -10.15 -11.85 -10.15 -12.65 -10.45 -13.05 L-10.65 -12.4 Q-10.85 -11.95 -11.1 -11.65 L-11.6 -11.65 Q-11.8 -11.85 -11.85 -12.2 L-11.85 -12.85 Q-11.85 -13.95 -11.3 -15.3 L-10.9 -16.15 Q-10.7 -16.55 -10.7 -16.7 -10.7 -16.85 -10.8 -17.1 -10.9 -17.35 -10.9 -17.5 -10.9 -18.15 -10.85 -18.3 L-10.35 -19.05 -9.35 -19.05 Q-9.25 -18.65 -9.2 -17.75 -9.2 -16.85 -9.1 -16.4 L-8.65 -15.15 Q-8.25 -14.2 -8.25 -13.85 -8.25 -13.6 -8.3 -13.2 -8.35 -12.8 -8.4 -12.5 -8.5 -12.5 -8.6 -12.6 L-8.7 -12.8 -8.7 -11.95 Q-8.3 -11.5 -8.4 -11.2 -8.6 -10.9 -8.6 -10.65 -8.6 -10.15 -8.1 -9.55 L-7.75 -9.1 Q-7.35 -8.7 -7.1 -8.5 L-7.1 -8.55 -7.05 -8.65 -7.0 -8.5 Q-6.9 -8.4 -6.8 -8.4 -6.3 -8.4 -5.55 -9.8 -4.95 -11.0 -4.7 -12.0 L-4.25 -13.95 Q-4.05 -14.8 -4.05 -15.7 -4.05 -16.4 -4.2 -16.75 -4.3 -17.0 -4.8 -18.05 -5.0 -18.4 -5.5 -18.4 -6.1 -18.35 -6.15 -18.4 -6.3 -18.5 -6.55 -18.85 -6.85 -19.3 -6.85 -19.45 L-6.6 -20.6 Q-6.4 -21.9 -6.4 -22.45 -6.4 -22.8 -6.25 -23.2 -6.1 -23.7 -5.8 -23.7 -5.7 -23.7 -5.55 -23.55 -5.35 -23.4 -5.25 -23.4 -5.15 -23.4 -5.1 -23.5 L-5.05 -23.65 -5.05 -24.25 -5.15 -24.3 -5.45 -24.35 Q-5.55 -24.4 -5.65 -24.6 -5.75 -24.8 -5.75 -24.95 L-5.85 -24.9 -5.85 -25.1 Q-5.85 -25.5 -5.5 -26.3 -5.1 -27.15 -5.1 -28.2 -5.05 -30.1 -4.35 -31.15 -4.1 -31.6 -3.45 -31.7 -2.8 -31.8 -2.6 -32.1 -2.45 -32.3 -2.35 -32.8 -2.25 -33.4 -2.15 -33.55 -1.3 -34.9 -0.9 -34.15 -0.6 -33.7 -0.6 -32.75 -0.6 -32.7 -0.75 -32.1 L-0.85 -31.45 Q-0.85 -31.1 -0.55 -30.65 -0.3 -30.25 -0.3 -30.15 -0.3 -29.45 -0.5 -28.7 -0.85 -27.55 -0.9 -27.1 L-1.0 -27.1 -0.9 -27.55 Q-0.9 -27.45 -0.95 -27.4 -1.0 -27.6 -1.05 -28.2 -1.15 -28.7 -1.5 -28.7 -1.65 -28.7 -2.05 -27.85 -2.5 -26.7 -2.65 -26.5 -3.05 -25.9 -3.1 -25.4 L-3.15 -24.4 Q-3.15 -23.15 -3.4 -22.0 -3.7 -20.85 -3.7 -20.0 L-3.65 -19.25 Q-3.6 -18.7 -3.5 -18.4 -3.45 -18.2 -2.85 -17.7 -2.3 -17.2 -2.25 -17.2 -1.25 -17.2 -1.1 -18.6 -1.05 -19.0 -1.05 -19.8 L-1.0 -20.25 Q-0.95 -20.55 -0.85 -20.75 L-0.8 -20.7 -0.8 -20.85 -0.75 -20.95 Q-0.85 -21.15 -0.9 -21.45 L-0.95 -22.0 Q-0.95 -22.55 -0.65 -23.4 -0.35 -24.2 -0.35 -24.6 -0.35 -25.5 -0.25 -25.9 -0.1 -26.55 0.45 -27.35 0.7 -27.7 0.75 -28.6 0.85 -29.6 1.05 -29.95 1.2 -30.4 1.8 -31.05 2.45 -31.8 2.75 -32.4 3.0 -32.85 3.3 -33.8 3.65 -34.6 4.3 -34.95 L4.65 -34.95 M17.85 -26.4 L17.9 -26.45 17.9 -26.5 17.7 -26.55 17.85 -26.4 M5.0 -22.8 L5.05 -22.8 5.05 -23.0 5.0 -22.9 5.0 -22.8 M10.05 -17.7 L10.05 -17.7" fill="#ccfeff" fill-opacity="0.6" fill-rule="evenodd" stroke="none"/>
    <path d="M10.25 -32.35 Q10.25 -32.55 10.15 -32.6 L9.9 -32.65 Q9.85 -32.55 9.85 -32.45 L9.9 -32.4 Q9.95 -32.35 10.15 -32.3 L10.2 -32.2 Q10.25 -32.15 10.25 -32.35 M10.4 -31.25 L10.05 -31.3 9.9 -31.3 9.9 -31.55 Q9.9 -31.7 9.95 -31.85 L9.55 -31.9 Q9.4 -32.6 9.4 -33.05 9.4 -33.4 9.65 -33.6 9.9 -33.8 10.2 -33.75 11.0 -33.6 11.0 -32.35 11.0 -32.0 10.85 -31.65 10.65 -31.25 10.4 -31.25 M10.2 -29.5 Q10.2 -29.45 10.35 -29.25 10.55 -29.05 10.55 -28.95 10.55 -28.75 10.2 -28.15 9.8 -27.45 9.5 -27.35 L9.45 -27.45 Q9.45 -27.6 9.45 -27.8 9.45 -28.4 9.75 -29.0 L10.2 -29.9 10.2 -29.5 M13.1 -21.85 Q13.15 -21.95 13.1 -22.1 13.05 -22.3 13.05 -22.45 13.05 -22.6 13.35 -23.1 13.65 -23.65 14.0 -24.05 15.0 -25.15 15.2 -23.95 14.85 -23.3 14.2 -22.65 13.5 -21.95 13.1 -21.85 M11.5 -19.95 Q11.0 -19.4 10.95 -19.4 10.7 -19.4 10.6 -19.65 L10.6 -20.0 Q10.6 -20.15 10.8 -20.5 11.0 -20.8 11.3 -21.0 11.95 -21.55 11.95 -20.7 11.95 -20.5 11.5 -19.95 M2.75 -18.6 Q2.8 -18.25 2.8 -18.05 2.8 -17.45 2.45 -15.95 2.0 -14.3 1.65 -14.3 L1.35 -14.3 Q1.35 -14.35 1.35 -14.5 1.35 -14.65 1.45 -14.9 L1.6 -15.35 Q1.6 -15.4 1.55 -15.35 L1.45 -15.3 1.4 -15.4 Q1.35 -15.5 1.35 -15.7 1.35 -16.3 1.85 -17.55 2.25 -18.75 2.55 -19.15 2.65 -19.0 2.75 -18.6 M8.6 -2.0 Q8.4 -1.85 7.85 -1.85 7.4 -1.85 7.3 -2.0 7.2 -2.15 7.2 -2.4 7.2 -2.85 7.4 -3.4 7.65 -4.0 7.95 -4.1 8.05 -3.9 8.5 -3.45 8.85 -2.95 8.85 -2.6 8.85 -2.2 8.6 -2.0 M18.3 -13.35 Q18.5 -12.95 18.5 -12.65 18.5 -12.25 18.25 -12.15 17.6 -11.9 17.35 -11.7 16.95 -11.4 16.5 -11.25 16.05 -11.05 15.35 -10.95 L15.9 -11.3 Q16.35 -11.65 16.45 -11.85 16.6 -12.15 16.55 -12.5 16.5 -12.85 16.55 -13.05 17.1 -14.65 17.8 -14.05 18.1 -13.8 18.3 -13.35 M-2.2 -28.8 Q-2.35 -28.5 -2.75 -27.95 -3.7 -26.75 -3.95 -25.0 L-3.95 -25.25 Q-3.9 -25.5 -3.9 -25.65 -3.9 -25.75 -4.1 -26.15 -4.3 -26.5 -4.3 -26.75 -4.3 -27.25 -3.95 -28.25 -3.6 -29.25 -3.15 -30.05 -2.65 -30.9 -2.35 -31.05 -2.0 -31.2 -2.0 -30.2 -2.0 -29.35 -2.2 -28.8 M-5.65 -20.5 Q-5.65 -21.5 -5.05 -22.0 -4.8 -22.2 -4.6 -22.15 -4.45 -22.1 -4.45 -21.75 -4.45 -21.65 -4.5 -21.35 L-4.5 -21.2 -4.35 -20.65 Q-4.35 -20.45 -4.45 -20.15 L-4.55 -19.8 Q-4.35 -19.5 -4.35 -19.3 -4.35 -19.15 -4.4 -19.05 L-4.4 -18.8 -4.5 -18.8 -4.7 -18.75 Q-5.05 -18.75 -5.35 -19.6 -5.55 -20.05 -5.65 -20.5 M-3.3 -17.15 Q-3.35 -16.9 -3.6 -16.85 L-3.75 -16.95 Q-3.85 -17.0 -3.85 -17.25 -3.85 -17.6 -3.65 -17.6 -3.45 -17.6 -3.3 -17.15 M-10.75 -14.55 Q-10.8 -14.7 -10.75 -14.8 -10.75 -15.4 -10.35 -16.1 -9.9 -16.9 -9.6 -15.8 -9.55 -15.4 -9.6 -14.6 -9.6 -13.8 -9.55 -13.2 L-9.65 -13.05 Q-9.85 -13.15 -9.9 -13.5 -10.0 -13.8 -9.95 -14.1 L-10.0 -14.2 -10.25 -14.2 Q-10.65 -14.2 -10.75 -14.55 M-1.5 -14.8 Q-1.5 -14.55 -2.05 -13.25 -2.55 -11.9 -2.9 -11.3 L-3.05 -12.35 -3.1 -13.2 -2.95 -13.7 Q-2.75 -14.1 -2.75 -14.25 -2.75 -14.4 -2.9 -14.75 -3.0 -15.05 -3.0 -15.2 L-3.0 -15.35 Q-3.2 -15.4 -3.35 -15.8 -3.55 -16.2 -3.55 -16.4 -3.55 -16.75 -3.4 -16.85 -3.3 -16.9 -3.1 -16.8 -2.75 -16.5 -2.65 -15.9 L-2.25 -15.85 Q-1.95 -15.7 -1.75 -15.4 -1.5 -15.1 -1.5 -14.8 M-4.65 -8.9 Q-4.05 -8.7 -2.9 -8.7 -2.2 -8.7 -1.95 -9.35 -1.8 -9.7 -1.85 -10.05 -1.85 -10.5 -1.7 -10.7 -1.6 -10.9 -1.45 -10.8 -1.05 -10.55 -1.05 -9.6 -1.05 -9.15 -1.3 -8.75 -1.7 -8.1 -1.9 -7.65 -2.1 -7.1 -2.85 -6.65 -3.5 -6.25 -3.5 -5.8 -3.5 -5.65 -3.45 -5.3 -3.35 -5.0 -3.35 -4.85 -3.35 -4.45 -3.15 -3.5 -2.95 -2.5 -2.95 -2.05 -2.95 -1.3 -3.35 -0.8 -4.0 -0.05 -5.5 -0.05 -5.85 -0.05 -5.95 -0.35 -6.0 -0.45 -6.0 -0.65 -6.0 -1.2 -5.3 -1.55 -4.6 -1.95 -4.6 -2.4 -4.6 -2.7 -4.75 -3.3 -4.95 -3.95 -5.1 -4.1 -5.75 -4.6 -5.95 -4.9 -6.2 -5.25 -6.2 -5.6 -6.2 -5.85 -5.85 -6.65 L-5.4 -7.6 -4.9 -8.6 Q-4.8 -8.85 -4.65 -8.9" fill="#ffffff" fill-opacity="0.7529412" fill-rule="evenodd" stroke="none"/>
  </g>
</svg>
