<?xml version="1.0" encoding="UTF-8" standalone="no"?>
<svg xmlns:ffdec="https://www.free-decompiler.com/flash" xmlns:xlink="http://www.w3.org/1999/xlink" ffdec:objectType="shape" height="2.95px" width="30.45px" xmlns="http://www.w3.org/2000/svg">
  <g transform="matrix(1.0, 0.0, 0.0, 1.0, 14.95, 1.0)">
    <path d="M4.65 -0.9 L4.75 -0.9 Q4.8 -0.9 4.85 -0.95 L6.6 -0.95 Q7.15 -0.9 7.7 -0.95 8.3 -1.0 8.55 -0.85 L9.4 -0.8 9.55 -0.8 Q10.5 -0.75 11.4 -0.65 12.3 -0.55 13.1 -0.4 13.2 -0.4 13.35 -0.4 L13.5 -0.35 13.55 -0.35 13.55 -0.3 13.85 -0.25 Q14.4 -0.15 14.85 0.0 L15.2 0.1 Q15.6 0.25 15.45 0.45 L15.4 0.5 Q15.35 0.7 14.95 0.9 14.45 1.15 13.7 1.3 13.2 1.4 12.85 1.3 12.55 1.4 12.3 1.45 11.85 1.6 11.45 1.55 11.45 1.5 11.5 1.5 11.55 1.5 11.6 1.45 11.6 1.4 11.7 1.4 11.5 1.4 11.4 1.45 11.3 1.45 11.1 1.5 11.35 1.7 10.4 1.8 9.6 1.85 8.9 1.8 8.8 1.8 8.85 1.75 L8.4 1.75 8.4 1.8 8.45 1.8 Q7.75 2.0 6.9 1.85 L6.85 1.85 Q4.75 1.8 2.7 1.85 3.9 1.55 5.65 1.5 L6.7 1.45 Q7.1 1.4 7.45 1.5 L7.4 1.55 Q7.3 1.55 7.15 1.6 L7.1 1.6 Q8.0 1.55 8.85 1.5 L9.1 1.5 Q9.0 1.35 9.65 1.2 10.55 1.0 11.65 0.95 11.8 0.85 12.0 0.75 12.3 0.6 12.75 0.5 L13.05 0.4 13.05 0.3 Q13.05 0.25 13.0 0.25 L12.95 0.25 12.8 0.2 12.75 0.15 12.75 0.1 12.7 0.1 Q12.3 0.0 11.85 -0.1 11.6 -0.1 11.4 -0.15 L10.65 -0.2 Q10.5 -0.25 10.5 -0.3 L8.7 -0.45 6.8 -0.55 Q6.5 -0.6 6.15 -0.65 5.65 -0.7 5.15 -0.75 5.0 -0.75 4.95 -0.8 L4.85 -0.8 Q4.65 -0.8 4.55 -0.8 L4.55 -0.85 4.65 -0.85 4.65 -0.9 M8.05 -0.85 L8.05 -0.85 M8.6 -0.7 L8.7 -0.65 8.65 -0.65 9.4 -0.6 9.45 -0.6 9.05 -0.65 8.95 -0.65 8.6 -0.7 M10.35 -0.55 Q10.25 -0.55 10.15 -0.6 L10.15 -0.55 10.35 -0.55 M13.0 -0.15 L13.25 -0.15 Q12.9 -0.2 12.55 -0.25 12.55 -0.35 12.15 -0.3 L12.3 -0.3 Q12.65 -0.25 13.0 -0.15 M13.55 0.5 Q13.7 0.45 13.8 0.4 L13.65 0.4 13.45 0.5 13.3 0.55 Q13.4 0.55 13.55 0.5 M14.6 0.7 L14.55 0.7 14.45 0.75 Q14.4 0.75 14.4 0.8 L14.5 0.8 14.7 0.7 14.6 0.7 M12.65 0.9 Q12.75 0.9 12.85 0.85 L12.9 0.85 13.0 0.8 12.65 0.9 M11.45 1.15 L11.2 1.2 11.3 1.2 Q11.4 1.15 11.55 1.15 L11.45 1.15 M13.95 1.15 L14.1 1.1 Q14.15 1.05 14.1 1.05 L13.9 1.15 13.85 1.15 Q13.9 1.15 13.95 1.15 M-13.5 0.0 L-13.25 -0.05 -13.2 -0.1 -13.45 -0.05 -13.55 -0.05 -13.5 0.0 M-11.5 -0.6 Q-10.95 -0.7 -10.35 -0.75 -9.75 -0.75 -9.25 -0.85 L-8.85 -0.85 Q-8.7 -0.85 -8.55 -0.9 L-8.5 -0.9 -8.4 -0.95 Q-8.05 -1.0 -7.7 -1.0 -7.1 -0.95 -6.55 -0.9 L-5.4 -0.95 Q-5.1 -0.95 -4.85 -0.95 L-4.45 -0.95 -4.35 -0.9 Q-4.5 -0.85 -4.65 -0.8 -5.05 -0.55 -6.25 -0.5 L-6.95 -0.5 -8.75 -0.45 -9.25 -0.45 Q-9.65 -0.4 -9.95 -0.35 -10.25 -0.25 -10.6 -0.2 -11.45 -0.1 -12.05 0.05 -12.1 0.1 -12.2 0.15 L-12.45 0.25 Q-12.55 0.35 -12.6 0.45 -12.55 0.45 -12.5 0.45 -12.35 0.5 -12.35 0.55 L-12.3 0.6 Q-11.8 0.7 -11.2 0.8 -10.65 0.85 -10.4 1.05 -10.05 1.05 -9.65 1.1 L-9.5 1.1 Q-8.1 1.1 -6.9 1.35 L-6.65 1.4 -6.6 1.45 -6.55 1.45 -6.55 1.5 -6.1 1.5 Q-5.5 1.55 -4.95 1.55 L-4.95 1.6 -4.65 1.6 -4.65 1.55 -4.75 1.55 -4.8 1.5 -4.75 1.5 -3.95 1.6 Q-3.5 1.65 -3.1 1.65 -2.65 1.65 -2.35 1.8 L-2.4 1.8 -2.4 1.9 -2.45 1.9 Q-3.2 2.0 -3.9 1.9 L-4.15 1.9 Q-4.45 1.85 -4.5 1.8 L-4.55 1.8 -4.55 1.85 Q-4.65 1.85 -4.8 1.85 -4.95 1.85 -5.0 1.85 L-5.05 1.8 Q-5.35 1.9 -6.1 1.9 L-7.25 1.9 Q-8.2 1.85 -8.7 1.6 -9.3 1.8 -10.2 1.6 -11.45 1.4 -12.8 1.2 -13.3 1.15 -13.7 1.05 L-13.8 1.05 -13.8 1.1 -13.85 1.1 Q-14.3 1.0 -14.5 0.85 -14.65 0.75 -14.7 0.6 -14.75 0.55 -14.7 0.5 L-14.85 0.45 Q-14.95 0.4 -14.95 0.35 -15.0 0.3 -14.9 0.25 -14.35 -0.15 -12.95 -0.35 -12.2 -0.45 -11.5 -0.6 M-9.85 -0.6 Q-9.9 -0.55 -9.95 -0.55 -10.05 -0.55 -10.2 -0.55 L-10.1 -0.55 -9.25 -0.6 -9.35 -0.65 -9.5 -0.65 -9.85 -0.6 M-8.45 -0.65 L-8.45 -0.65 M-5.5 -0.7 L-5.4 -0.7 Q-5.3 -0.7 -5.2 -0.7 L-5.5 -0.7 M-4.95 -0.75 L-4.95 -0.75 M-10.95 1.0 L-10.9 1.0 Q-10.9 0.95 -10.95 0.95 L-10.95 1.0 M-13.05 0.65 L-13.15 0.55 Q-13.2 0.6 -13.4 0.55 L-13.6 0.55 Q-13.15 0.6 -13.4 0.7 L-13.3 0.7 Q-13.15 0.65 -13.05 0.65 M-13.65 0.25 L-13.65 0.25 M-13.5 0.75 L-13.5 0.75 M-12.2 1.15 L-12.2 1.15 M-11.8 1.2 L-11.9 1.15 -11.95 1.15 -11.8 1.2" fill="#ccfffe" fill-opacity="0.7529412" fill-rule="evenodd" stroke="none"/>
    <path d="M6.45 -0.85 Q6.6 -0.8 6.75 -0.8 6.5 -0.75 6.25 -0.8 L5.45 -0.85 Q5.1 -0.85 4.8 -0.9 4.9 -0.9 5.0 -0.9 L5.9 -0.9 Q6.2 -0.9 6.45 -0.85 M6.8 -0.85 L6.85 -0.85 Q7.65 -0.8 8.5 -0.75 L8.55 -0.75 Q8.75 -0.75 8.9 -0.75 L8.95 -0.75 9.7 -0.7 Q9.85 -0.7 10.05 -0.7 10.2 -0.65 10.35 -0.65 L10.55 -0.65 Q11.0 -0.6 11.3 -0.55 11.45 -0.55 11.6 -0.5 11.75 -0.5 11.9 -0.5 12.0 -0.45 12.05 -0.4 L12.05 -0.4 Q12.2 -0.45 12.45 -0.45 L12.55 -0.4 Q12.65 -0.4 12.75 -0.4 13.1 -0.3 13.5 -0.25 13.8 -0.2 13.95 -0.1 14.7 0.0 15.0 0.25 15.1 0.35 15.15 0.5 15.3 0.7 14.9 0.7 14.5 0.9 14.0 1.0 13.3 1.2 12.4 1.3 12.1 1.35 11.8 1.4 11.6 1.45 11.4 1.5 11.4 1.45 11.55 1.45 L11.8 1.4 11.85 1.4 Q11.9 1.3 12.15 1.25 12.45 1.2 12.8 1.2 L12.85 1.2 12.85 1.15 13.05 1.15 Q13.2 1.15 13.25 1.1 13.4 1.0 13.75 0.9 L14.0 0.8 13.95 0.8 13.95 0.75 13.7 0.8 13.35 0.9 13.4 0.9 Q12.95 1.0 12.45 1.1 L11.9 1.2 11.5 1.25 11.65 1.25 11.15 1.3 Q10.2 1.45 9.3 1.4 10.75 1.25 12.0 0.9 L12.4 0.8 13.5 0.35 13.55 0.35 13.55 0.3 Q13.6 0.3 13.65 0.25 13.65 0.2 13.6 0.2 L13.55 0.15 13.55 0.1 13.5 0.1 13.45 0.05 13.4 0.05 Q13.15 0.05 12.95 0.0 L12.9 0.0 Q12.8 0.0 12.8 -0.05 12.3 -0.1 11.85 -0.2 11.25 -0.35 10.6 -0.45 10.3 -0.45 10.1 -0.5 L9.7 -0.55 9.5 -0.55 Q8.5 -0.6 7.5 -0.7 7.2 -0.75 6.95 -0.75 6.8 -0.8 6.7 -0.8 6.6 -0.8 6.55 -0.85 L6.8 -0.85 M14.6 0.35 Q14.6 0.4 14.65 0.4 L14.7 0.3 14.65 0.3 14.65 0.35 14.6 0.35 M14.0 0.1 L14.15 0.1 Q14.1 0.1 14.05 0.1 L14.0 0.1 M13.85 0.35 L13.9 0.4 13.95 0.4 13.85 0.35 M14.6 0.7 L14.5 0.8 14.8 0.7 14.6 0.7 M12.4 0.9 L12.35 0.95 12.55 0.9 12.55 0.85 12.4 0.9 M12.15 0.95 L12.15 0.95 M10.05 1.5 Q10.15 1.5 10.25 1.5 L10.45 1.5 Q10.55 1.5 10.6 1.5 L10.7 1.55 Q10.45 1.6 10.05 1.65 L9.5 1.65 Q9.35 1.65 9.3 1.6 L9.4 1.6 Q9.6 1.5 9.85 1.5 L10.05 1.5 M8.6 1.65 Q8.05 1.8 7.2 1.8 7.0 1.8 6.85 1.8 6.75 1.75 6.7 1.7 L6.65 1.7 7.7 1.65 Q7.85 1.65 8.05 1.6 8.1 1.6 8.2 1.6 L8.45 1.6 8.55 1.65 8.6 1.65 M3.15 1.8 Q3.8 1.65 4.5 1.65 L6.05 1.6 Q6.35 1.6 6.55 1.55 L6.65 1.55 6.7 1.6 6.7 1.65 6.55 1.65 5.3 1.7 4.15 1.7 Q4.0 1.8 3.75 1.75 L3.5 1.75 3.15 1.8 M-11.7 -0.45 Q-11.45 -0.5 -11.2 -0.55 -10.8 -0.6 -10.45 -0.6 L-10.25 -0.6 Q-9.95 -0.65 -9.6 -0.7 L-8.35 -0.75 -8.1 -0.75 Q-8.0 -0.8 -7.8 -0.8 L-7.7 -0.8 -7.55 -0.85 -7.2 -0.85 -7.2 -0.8 -6.9 -0.8 Q-6.7 -0.85 -6.4 -0.85 L-6.25 -0.85 -5.8 -0.9 -5.5 -0.9 -4.55 -0.95 -4.4 -0.95 -4.35 -0.9 Q-4.65 -0.85 -5.2 -0.85 -5.5 -0.85 -5.8 -0.8 L-6.2 -0.8 Q-6.9 -0.75 -7.65 -0.7 L-8.7 -0.65 Q-9.35 -0.6 -9.95 -0.5 -10.8 -0.35 -11.7 -0.2 L-12.1 -0.1 -12.55 0.0 Q-12.55 0.05 -12.75 0.1 L-12.85 0.15 -12.95 0.25 -13.1 0.35 -13.15 0.4 Q-13.0 0.45 -12.95 0.55 L-12.55 0.55 -12.4 0.6 -12.3 0.6 -12.3 0.7 Q-12.35 0.7 -12.3 0.7 L-12.25 0.75 -12.2 0.75 Q-12.15 0.75 -12.1 0.75 L-12.1 0.8 -12.05 0.8 -11.9 0.75 -11.85 0.75 Q-11.65 0.85 -11.4 0.85 -11.1 0.85 -10.9 0.95 L-10.75 1.0 Q-10.85 1.05 -11.0 1.0 -11.1 1.0 -11.2 1.0 -11.3 0.95 -11.4 0.95 -11.6 0.95 -11.7 0.9 -11.8 0.9 -11.9 0.85 L-12.1 0.85 Q-12.2 0.85 -12.2 0.8 -12.25 0.8 -12.35 0.75 -12.5 0.75 -12.5 0.8 L-12.5 0.8 -12.45 0.8 Q-12.65 0.85 -12.7 0.8 L-12.8 0.75 -12.8 0.7 Q-12.95 0.7 -13.05 0.65 -13.1 0.7 -13.2 0.7 -13.1 0.75 -13.0 0.75 -12.75 0.8 -12.45 0.85 L-12.05 0.9 -12.35 0.9 Q-12.55 0.85 -12.75 0.85 L-12.75 0.85 Q-12.6 0.95 -12.35 0.95 -12.15 1.0 -12.05 1.05 L-12.5 1.0 Q-12.2 1.1 -11.8 1.1 L-11.85 1.1 -11.85 1.05 -11.7 1.05 Q-11.55 1.1 -11.35 1.1 L-10.9 1.2 Q-10.8 1.2 -10.7 1.2 L-10.45 1.25 Q-10.05 1.35 -9.45 1.35 L-9.5 1.35 -9.6 1.3 -9.7 1.3 -9.75 1.25 Q-9.7 1.2 -9.6 1.25 L-9.5 1.25 Q-9.75 1.2 -9.75 1.15 L-9.7 1.1 Q-9.15 1.15 -8.6 1.25 L-8.5 1.25 -8.5 1.2 -8.15 1.25 -7.85 1.25 Q-7.65 1.25 -7.6 1.3 L-7.45 1.3 Q-7.1 1.35 -6.85 1.4 L-6.8 1.4 -6.8 1.45 -6.85 1.45 Q-6.9 1.5 -7.05 1.5 L-7.4 1.5 Q-7.45 1.5 -7.5 1.5 -7.1 1.6 -6.45 1.65 L-5.4 1.6 Q-5.15 1.6 -5.0 1.65 -5.6 1.7 -6.3 1.7 -6.85 1.7 -7.35 1.65 L-8.0 1.55 -8.05 1.55 -8.05 1.5 -8.0 1.45 -8.05 1.45 Q-8.1 1.45 -8.2 1.45 L-8.3 1.45 -8.35 1.4 -8.45 1.4 -8.45 1.35 -8.55 1.3 -8.9 1.3 -8.95 1.25 -9.25 1.25 -9.35 1.3 Q-9.3 1.3 -9.2 1.35 L-9.15 1.35 -9.1 1.4 Q-9.25 1.4 -9.35 1.45 L-9.25 1.45 Q-9.2 1.45 -9.2 1.5 -9.85 1.55 -10.4 1.4 L-10.45 1.4 -10.7 1.35 Q-11.35 1.2 -12.15 1.1 -12.95 1.05 -13.6 0.85 -13.85 0.8 -13.8 0.7 -14.2 0.65 -14.3 0.5 -14.35 0.4 -14.5 0.3 L-14.5 0.25 -14.45 0.25 Q-14.6 0.1 -14.25 0.05 L-13.0 -0.25 Q-12.5 -0.35 -11.9 -0.4 L-11.7 -0.45 M-4.6 1.7 L-4.9 1.7 Q-5.0 1.7 -4.95 1.65 L-4.65 1.65 Q-4.55 1.65 -4.6 1.7 M-4.05 1.7 L-3.95 1.7 Q-3.7 1.7 -3.45 1.7 L-3.0 1.7 Q-2.75 1.7 -2.6 1.75 -2.8 1.8 -3.05 1.8 L-4.0 1.75 -4.4 1.7 -4.05 1.7 M-13.0 0.65 L-13.0 0.65 M-13.45 0.4 Q-13.5 0.45 -13.45 0.45 L-13.4 0.45 Q-13.4 0.4 -13.45 0.4" fill="#ffffff" fill-rule="evenodd" stroke="none"/>
  </g>
</svg>
