<?xml version="1.0" encoding="UTF-8" standalone="no"?>
<svg xmlns:ffdec="https://www.free-decompiler.com/flash" xmlns:xlink="http://www.w3.org/1999/xlink" ffdec:objectType="shape" height="38.6px" width="34.8px" xmlns="http://www.w3.org/2000/svg">
  <g transform="matrix(1.0, 0.0, 0.0, 1.0, 12.0, 37.9)">
    <path d="M4.25 -36.0 Q4.25 -36.3 4.25 -36.25 4.9 -36.6 5.2 -35.85 5.35 -35.0 5.45 -34.9 5.2 -35.05 5.2 -35.1 L5.2 -35.25 5.15 -35.3 5.15 -35.05 5.1 -34.95 Q4.95 -35.05 4.6 -35.45 4.25 -35.85 4.25 -36.0 M8.7 -37.05 L8.6 -37.1 Q8.35 -37.1 8.15 -36.9 L7.95 -36.75 Q7.7 -37.0 7.7 -37.1 7.7 -37.3 7.9 -37.4 8.05 -37.55 8.25 -37.5 8.8 -37.45 8.8 -36.75 8.8 -36.6 9.05 -36.3 9.25 -35.95 9.25 -35.75 L9.25 -35.7 8.85 -36.25 Q8.6 -36.7 8.75 -37.0 L8.7 -37.05 M12.0 -37.05 Q12.4 -36.75 12.75 -36.25 13.1 -35.75 13.1 -35.45 L13.0 -35.0 12.9 -34.3 12.9 -34.25 Q12.75 -34.5 12.8 -34.85 L12.85 -35.35 Q12.85 -35.75 12.5 -36.1 L11.7 -36.75 11.3 -36.75 Q10.85 -36.75 10.75 -36.6 10.65 -36.45 10.5 -36.45 L10.5 -36.6 Q10.85 -37.95 12.0 -37.05 M16.5 -27.65 Q16.2 -27.45 16.05 -27.45 15.7 -27.45 15.55 -27.85 15.45 -28.05 15.45 -28.3 L15.2 -27.95 15.1 -28.05 Q15.05 -28.15 15.05 -28.3 15.05 -28.45 15.2 -28.65 15.45 -28.85 15.7 -28.7 15.65 -28.25 15.7 -28.0 15.85 -27.6 16.5 -27.65 M18.3 -28.5 Q18.45 -28.35 18.85 -27.5 19.2 -26.7 19.2 -26.55 L19.2 -26.35 19.15 -26.4 19.1 -26.3 Q18.85 -26.45 18.75 -27.1 18.6 -27.8 18.3 -28.1 17.65 -28.15 17.5 -28.25 L17.7 -28.4 18.3 -28.5 M14.25 -32.8 L14.1 -33.1 13.6 -33.1 Q13.55 -33.1 13.55 -33.25 13.55 -33.7 13.85 -33.5 14.15 -33.3 14.3 -32.95 L14.25 -32.8 M19.55 -24.95 L19.85 -24.95 20.3 -25.05 Q20.6 -25.05 20.75 -24.65 L20.8 -24.25 20.75 -23.8 20.5 -23.7 Q20.35 -23.75 20.35 -24.0 L20.3 -24.35 Q20.25 -24.8 19.45 -24.6 L19.4 -24.9 19.45 -25.25 19.5 -25.25 19.55 -24.95 M5.8 -28.85 Q5.55 -28.7 5.35 -28.7 L5.15 -28.7 5.1 -28.75 5.1 -29.0 Q5.1 -29.35 5.4 -29.35 L6.05 -29.4 6.15 -29.1 5.8 -28.85 M4.55 -27.4 L4.5 -27.3 Q4.45 -27.25 4.45 -27.1 4.45 -26.9 4.6 -26.55 L4.8 -25.9 Q4.25 -25.85 4.25 -26.85 4.25 -27.4 4.35 -27.45 L4.55 -27.4 M3.9 -22.45 Q3.65 -21.95 3.5 -21.95 3.3 -21.95 3.2 -22.15 3.15 -22.25 3.15 -22.4 3.15 -22.7 3.5 -23.3 3.9 -23.9 4.2 -23.9 4.3 -23.9 4.5 -23.75 4.65 -23.6 4.75 -23.6 4.95 -23.6 5.35 -24.35 5.75 -25.15 5.8 -25.15 6.35 -25.4 6.75 -24.8 7.1 -24.4 7.2 -23.9 7.3 -23.4 7.7 -23.3 8.4 -23.2 8.55 -23.05 9.1 -22.75 9.25 -22.3 9.35 -22.05 9.35 -21.5 9.35 -21.3 9.2 -20.95 9.1 -20.6 9.0 -20.55 8.85 -21.2 8.55 -21.65 8.2 -22.25 7.65 -22.5 7.65 -22.9 7.55 -23.0 7.45 -23.3 7.0 -23.35 6.75 -23.35 6.3 -23.75 L5.8 -24.35 Q5.7 -24.1 5.2 -23.65 4.7 -23.25 4.5 -23.15 4.15 -23.0 3.9 -22.45 M9.05 -1.05 L8.9 -1.1 Q8.85 -1.15 8.85 -1.35 8.85 -1.5 8.95 -1.55 L9.05 -1.6 Q9.8 -1.6 10.45 -2.05 11.05 -2.5 11.05 -2.85 L10.75 -3.45 Q10.4 -4.0 10.4 -4.45 10.4 -5.35 10.65 -6.1 10.9 -6.85 11.5 -7.8 11.7 -8.1 12.2 -8.4 L12.3 -8.5 Q12.75 -9.05 13.4 -9.7 13.95 -10.35 13.95 -11.05 13.95 -11.2 13.55 -11.9 13.15 -12.6 13.15 -12.65 L13.15 -12.95 13.35 -13.0 13.35 -13.4 13.45 -13.4 Q13.45 -13.1 13.5 -12.9 L13.7 -12.65 14.05 -11.95 14.45 -11.55 Q14.6 -11.35 14.6 -11.05 L14.6 -10.7 14.65 -10.35 Q14.65 -9.8 13.95 -9.0 13.35 -8.35 12.75 -8.2 11.85 -7.45 11.5 -6.9 10.9 -6.0 10.9 -4.9 10.9 -4.2 11.45 -3.55 12.0 -2.85 12.0 -2.75 12.0 -2.05 11.4 -1.7 L9.75 -1.05 9.05 -1.05 M19.5 -15.25 Q20.0 -15.05 20.4 -15.05 21.65 -15.05 22.55 -15.3 22.75 -15.3 22.75 -15.05 L22.8 -14.1 Q22.8 -13.85 22.55 -13.3 22.3 -12.65 21.95 -12.65 21.75 -12.65 21.7 -12.85 21.7 -12.95 21.7 -13.1 21.7 -13.35 21.9 -13.6 22.1 -13.8 22.1 -14.1 22.1 -14.4 21.9 -14.45 L21.3 -14.5 Q20.25 -14.5 19.55 -15.15 L19.5 -15.25 M20.2 -6.05 Q20.2 -6.35 20.2 -6.2 20.75 -6.25 21.6 -6.0 22.45 -5.7 22.45 -5.35 22.45 -4.9 22.3 -4.45 22.1 -3.75 21.6 -3.75 L21.4 -3.8 21.35 -3.8 21.35 -3.95 Q21.3 -4.05 21.3 -4.2 21.3 -4.35 21.4 -4.55 21.5 -4.75 21.5 -4.9 L21.45 -5.2 Q21.45 -5.3 21.45 -5.4 21.0 -5.7 20.45 -5.8 20.2 -5.85 20.2 -6.05 M-4.55 -35.75 Q-4.55 -36.2 -4.25 -36.45 -3.9 -36.75 -3.7 -36.25 -3.7 -35.8 -3.6 -35.55 -3.45 -35.1 -2.8 -35.15 L-2.9 -35.05 Q-2.95 -35.0 -3.1 -35.0 -3.6 -35.0 -3.7 -35.45 -3.8 -35.7 -3.8 -36.15 L-3.9 -35.5 Q-3.95 -35.35 -4.3 -35.35 L-4.45 -35.35 -4.55 -35.45 -4.55 -35.75 M-0.75 -37.5 Q-0.95 -37.5 -1.8 -36.45 L-2.75 -35.35 -2.15 -36.4 -1.5 -37.4 Q-0.85 -38.2 -0.4 -37.7 0.0 -37.25 0.0 -36.65 L0.0 -36.35 -0.05 -36.25 Q-0.05 -36.2 -0.1 -36.15 L-0.2 -36.9 Q-0.4 -37.5 -0.75 -37.5 M-5.0 -28.0 L-5.35 -27.9 Q-5.65 -27.9 -5.8 -28.05 -5.85 -28.1 -5.85 -28.35 -5.85 -29.0 -5.35 -28.95 -4.9 -28.9 -4.65 -28.1 L-5.0 -28.0 M-2.1 -32.25 L-2.25 -32.2 Q-2.35 -32.2 -2.5 -32.3 L-2.65 -32.55 Q-2.5 -33.05 -2.25 -32.9 -2.0 -32.75 -2.0 -32.5 -2.0 -32.3 -2.1 -32.25 M-6.65 -26.75 L-6.55 -26.65 -7.0 -26.65 -7.05 -26.6 Q-7.1 -26.6 -7.1 -26.4 -7.1 -26.25 -7.0 -26.2 -6.9 -26.15 -6.9 -26.0 -6.9 -25.7 -7.1 -25.2 -7.25 -24.8 -7.45 -24.45 L-7.5 -24.45 Q-7.4 -24.8 -7.45 -25.85 -7.35 -26.75 -6.7 -26.85 L-6.65 -26.75 M-9.75 -21.05 L-10.15 -21.15 -10.65 -20.45 -10.75 -20.5 Q-10.7 -20.6 -10.7 -20.85 L-10.65 -21.2 Q-10.65 -21.85 -10.15 -21.85 -9.6 -21.85 -9.35 -21.0 L-9.75 -21.05 M-12.0 -18.9 L-12.0 -19.1 Q-12.0 -19.4 -11.65 -19.45 -11.35 -19.55 -11.15 -19.35 -11.3 -19.3 -11.6 -19.15 -11.85 -18.95 -11.95 -18.95 L-12.0 -18.9 M-10.65 -17.25 Q-10.45 -17.25 -10.35 -17.05 -10.25 -16.9 -10.25 -16.75 -10.25 -16.5 -10.5 -16.4 -10.6 -16.3 -10.8 -16.3 -11.0 -16.3 -11.05 -16.55 L-11.1 -16.8 Q-11.1 -17.0 -10.95 -17.1 -10.8 -17.25 -10.65 -17.25 M-5.0 -13.45 Q-5.0 -14.2 -4.65 -14.8 -4.05 -15.7 -2.9 -14.6 L-2.85 -14.45 Q-2.95 -14.25 -3.1 -14.15 L-3.3 -14.2 Q-3.4 -14.15 -3.55 -14.05 -4.0 -13.75 -4.2 -13.55 L-4.25 -13.5 -4.3 -13.15 Q-4.4 -12.35 -4.5 -12.05 -4.6 -11.5 -4.9 -11.5 L-5.1 -10.75 Q-5.4 -9.7 -5.65 -9.4 L-5.45 -9.25 -5.55 -9.3 -5.7 -9.35 Q-5.8 -9.25 -5.9 -9.25 L-6.35 -9.3 Q-7.2 -9.15 -7.8 -8.4 L-7.85 -8.35 Q-8.0 -7.95 -8.0 -7.75 -8.0 -7.1 -7.65 -6.55 -7.4 -6.25 -6.85 -5.7 -6.3 -5.15 -6.1 -4.8 -5.75 -4.3 -5.75 -3.65 -5.75 -3.25 -5.95 -2.65 L-6.15 -2.05 Q-6.15 -1.45 -5.1 -1.0 -4.0 -0.45 -2.7 -0.6 L-2.6 -0.55 -2.6 -0.4 Q-2.6 -0.2 -3.25 0.2 -3.9 0.6 -4.3 0.6 -4.5 0.6 -5.05 0.35 L-5.15 0.35 -4.95 0.45 Q-5.5 0.7 -5.7 0.7 -5.95 0.7 -6.4 0.45 L-6.85 0.35 Q-7.3 0.25 -7.45 0.15 -7.65 0.0 -7.8 -0.2 -7.9 -0.4 -7.9 -0.55 -7.9 -0.95 -7.45 -1.1 -7.0 -1.3 -7.0 -1.55 -7.0 -1.7 -7.05 -2.0 L-7.15 -2.4 -7.0 -2.95 -6.85 -3.45 Q-6.85 -3.95 -7.25 -4.4 -7.4 -4.65 -8.1 -5.3 -9.35 -6.45 -9.35 -7.5 -9.35 -8.55 -8.85 -9.55 -8.2 -10.95 -7.0 -10.45 L-6.55 -10.45 Q-6.25 -10.75 -5.7 -11.95 -5.35 -12.85 -5.05 -13.0 L-5.0 -13.45 M-4.05 -14.0 L-3.5 -14.3 Q-3.8 -14.3 -4.0 -14.1 L-4.05 -14.0 M-8.55 -6.95 L-8.4 -6.7 -8.45 -6.75 -8.55 -6.95 M-6.5 -1.25 L-6.5 -1.25 M-4.1 -0.1 Q-4.2 0.0 -4.3 0.05 L-3.55 -0.05 -3.35 -0.1 -4.1 -0.1" fill="#ccfeff" fill-opacity="0.6" fill-rule="evenodd" stroke="none"/>
  </g>
</svg>
