<?xml version="1.0" encoding="UTF-8" standalone="no"?>
<svg xmlns:ffdec="https://www.free-decompiler.com/flash" xmlns:xlink="http://www.w3.org/1999/xlink" ffdec:objectType="shape" height="5.8px" width="6.35px" xmlns="http://www.w3.org/2000/svg">
  <g transform="matrix(1.0, 0.0, 0.0, 1.0, 3.2, 2.9)">
    <path d="M0.65 -0.85 L0.1 -0.45 Q-0.7 0.3 -1.25 1.25 L-1.85 0.9 -1.4 -0.3 Q-1.1 -0.95 -1.0 -1.7 L-0.45 -1.65 0.65 -0.85 M1.65 -0.8 Q2.05 -0.95 1.95 -0.4 L1.95 1.6 -0.7 1.5 Q-0.05 1.3 0.5 0.85 1.55 -0.05 1.65 -0.8" fill="#ccfffe" fill-opacity="0.7529412" fill-rule="evenodd" stroke="none"/>
    <path d="M2.95 -1.75 Q3.35 -1.2 3.05 -0.55 2.75 0.15 2.85 1.05 2.95 1.9 2.85 2.7 0.75 3.2 -1.4 2.5 L-2.85 2.15 Q-3.4 1.5 -3.0 0.75 -2.3 -0.65 -2.0 -2.1 -1.8 -2.75 -1.2 -2.9 -0.05 -2.45 1.05 -2.45 2.15 -2.4 2.95 -1.75 M1.65 -0.8 Q1.55 -0.05 0.5 0.85 -0.05 1.3 -0.7 1.5 L1.95 1.6 1.95 -0.4 Q2.05 -0.95 1.65 -0.8 M0.65 -0.85 L-0.45 -1.65 -1.0 -1.7 Q-1.1 -0.95 -1.4 -0.3 L-1.85 0.9 -1.25 1.25 Q-0.7 0.3 0.1 -0.45 L0.65 -0.85" fill="#ccfffe" fill-rule="evenodd" stroke="none"/>
  </g>
</svg>
