<?xml version="1.0" encoding="UTF-8" standalone="no"?>
<svg xmlns:ffdec="https://www.free-decompiler.com/flash" xmlns:xlink="http://www.w3.org/1999/xlink" ffdec:objectType="shape" height="11.55px" width="76.35px" xmlns="http://www.w3.org/2000/svg">
  <g transform="matrix(1.0, 0.0, 0.0, 1.0, 34.7, 4.8)">
    <path d="M7.6 -1.8 L7.65 -1.8 Q7.9 -1.9 8.3 -1.9 L8.45 -1.9 8.75 -1.85 Q11.05 -2.25 13.75 -2.1 17.15 -1.95 20.0 -2.4 21.15 -2.15 22.4 -1.85 23.65 -1.6 25.05 -1.8 25.9 -1.95 26.65 -1.95 26.75 -1.9 26.55 -1.85 L26.1 -1.75 Q25.85 -1.7 25.7 -1.6 L25.7 -1.45 25.65 -1.4 25.65 -1.3 Q25.85 -1.15 26.3 -1.1 27.0 -1.0 27.75 -0.9 L27.85 -0.85 27.9 -0.85 28.95 -0.9 Q29.75 -0.85 30.6 -0.75 30.95 -0.7 31.3 -0.7 L32.35 -0.6 Q32.9 -0.55 33.15 -0.4 33.6 -0.1 33.65 0.25 33.75 0.65 34.8 0.75 35.35 0.8 35.85 0.8 36.2 1.2 34.5 1.3 33.8 1.35 33.45 1.55 32.7 2.0 31.85 2.45 31.5 2.6 31.3 2.8 31.05 2.95 30.65 3.15 27.7 2.95 25.0 3.3 24.0 3.45 24.1 3.8 24.15 4.3 22.4 4.1 21.2 4.0 20.05 4.1 L19.95 4.1 19.85 4.15 Q18.35 4.2 18.2 4.85 18.15 5.15 17.25 5.35 14.9 5.9 13.4 5.15 12.85 4.9 11.9 4.85 11.0 5.4 9.8 5.8 7.55 6.65 5.35 5.75 4.0 5.25 2.1 4.95 -0.15 4.65 -2.0 5.05 -2.0 5.0 -1.95 4.95 L-1.85 4.9 -1.9 4.9 Q-2.3 4.95 -2.65 5.05 L-3.0 5.15 Q-3.3 5.25 -3.6 5.25 -4.7 5.55 -5.55 6.0 -7.55 7.05 -11.2 6.65 -12.4 6.55 -12.75 6.1 -13.25 5.55 -11.8 5.15 -11.45 5.0 -11.85 4.9 -12.75 4.6 -13.65 4.95 -15.2 5.45 -15.8 6.15 -16.2 6.55 -17.5 6.65 -21.1 6.9 -22.3 5.8 -22.5 5.6 -22.15 5.4 -21.55 5.1 -21.3 4.75 L-21.45 4.7 -21.5 4.65 -21.55 4.65 -21.65 4.6 -22.05 4.6 -21.95 4.55 Q-23.65 4.55 -24.75 5.0 -25.4 5.25 -26.45 5.3 -29.95 5.35 -30.65 4.3 -30.95 3.85 -30.15 3.5 L-34.05 2.45 Q-34.7 2.3 -34.7 2.0 -34.7 1.65 -34.15 1.4 -33.7 1.15 -33.45 0.85 -32.95 0.25 -31.55 -0.25 -31.1 -0.35 -30.85 -0.55 -30.4 -0.9 -29.5 -1.1 L-29.45 -1.1 -28.95 -1.15 Q-28.5 -1.25 -28.3 -1.45 -28.2 -1.55 -28.2 -1.6 -28.45 -1.7 -28.2 -1.75 L-28.25 -1.8 Q-28.3 -1.9 -28.05 -1.9 -27.9 -1.8 -27.8 -1.7 L-27.45 -1.6 Q-26.85 -1.5 -26.1 -1.5 -24.6 -1.4 -23.55 -1.75 -22.6 -2.05 -21.2 -1.95 -20.15 -1.85 -19.2 -2.0 -18.45 -2.1 -17.85 -2.3 -17.6 -2.4 -17.4 -2.55 -17.25 -2.65 -16.95 -2.7 L-16.8 -2.7 -16.55 -2.85 -16.7 -2.7 -16.45 -2.7 Q-16.75 -2.45 -16.65 -2.2 -16.6 -2.05 -16.25 -2.05 -14.35 -1.9 -12.3 -1.95 -11.5 -1.95 -10.65 -2.05 -8.2 -2.2 -5.8 -2.1 -5.3 -2.1 -5.05 -2.0 -6.2 -1.85 -7.75 -1.8 L-8.7 -1.8 Q-9.95 -1.75 -11.25 -1.6 -11.8 -1.55 -12.2 -1.4 -13.65 -0.7 -16.0 -1.15 -16.35 -1.25 -16.8 -1.25 -19.55 -1.25 -21.0 -0.5 -20.8 -0.3 -20.3 -0.15 -19.95 -0.05 -20.45 0.0 L-20.65 0.05 Q-20.75 0.05 -20.9 0.05 -21.35 0.15 -21.45 0.25 -21.5 0.35 -21.35 0.45 -19.4 0.45 -17.95 0.85 -17.7 0.9 -17.35 0.85 -16.3 0.7 -15.55 0.95 -15.4 1.0 -15.5 1.05 L-15.85 1.05 Q-16.05 1.35 -16.0 1.6 -15.95 1.85 -15.25 1.95 -12.6 2.3 -9.65 2.1 -8.6 2.05 -7.7 2.25 -6.2 2.6 -4.3 2.55 -2.5 2.55 -0.85 2.35 0.55 2.2 1.25 2.5 3.25 2.4 5.1 2.1 L5.8 1.95 Q6.5 1.75 7.45 1.9 8.55 2.1 9.9 2.05 12.1 1.95 14.0 1.6 15.0 1.45 15.8 1.15 L15.7 1.05 Q15.45 0.8 15.0 0.65 L14.8 0.55 14.65 0.45 Q14.55 0.35 14.35 0.3 L14.3 0.2 Q14.2 0.05 14.35 -0.15 14.6 -0.4 15.1 -0.55 15.25 -0.6 15.4 -0.6 L15.75 -0.65 16.2 -0.7 17.45 -0.65 Q18.05 -0.6 18.4 -0.45 L18.55 -0.4 Q19.1 -0.2 19.1 0.15 L19.15 0.15 Q19.65 0.05 20.15 -0.05 21.15 -0.35 22.05 -0.05 22.3 0.05 22.4 0.2 L22.4 0.35 Q22.3 0.5 22.0 0.7 23.45 0.4 22.25 -0.15 21.75 -0.4 20.85 -0.45 19.3 -0.55 18.15 -0.9 17.1 -1.25 15.5 -1.25 11.9 -1.35 8.45 -1.7 L7.9 -1.7 Q7.65 -1.65 7.6 -1.75 L7.6 -1.8 M26.4 -4.1 Q26.85 -3.8 26.55 -3.5 26.35 -3.25 25.75 -3.25 L25.65 -3.3 25.6 -3.35 Q25.6 -3.4 25.65 -3.4 25.7 -3.45 25.65 -3.5 25.55 -3.55 25.35 -3.6 24.65 -3.8 24.4 -4.05 24.2 -4.25 24.85 -4.3 25.95 -4.35 26.4 -4.1 M30.55 -3.2 Q31.7 -3.25 32.45 -3.05 33.35 -2.75 32.7 -2.4 32.35 -2.25 31.85 -2.1 L31.8 -2.1 31.75 -2.15 31.7 -2.15 Q31.9 -2.35 31.4 -2.5 30.9 -2.7 30.2 -2.7 29.85 -2.7 29.55 -2.6 29.15 -2.55 28.75 -2.45 L28.6 -2.45 28.45 -2.5 Q28.35 -2.55 28.4 -2.6 28.5 -2.75 28.85 -2.9 29.35 -3.1 30.2 -3.2 L30.55 -3.2 M36.75 -0.9 Q36.4 -0.85 35.95 -0.9 35.4 -0.95 35.2 -1.2 35.05 -1.3 35.4 -1.35 35.75 -1.35 36.05 -1.3 36.35 -1.25 36.6 -1.2 L36.85 -1.1 36.85 -1.05 36.8 -1.0 36.8 -0.95 36.75 -0.95 36.75 -0.9 M40.8 0.45 L41.55 0.7 Q41.85 1.15 40.85 1.4 39.2 1.85 37.4 1.4 L37.0 1.3 36.95 1.25 36.95 1.2 37.0 1.15 Q38.15 1.1 39.15 0.9 40.15 0.75 40.1 0.4 L40.15 0.35 40.35 0.35 Q40.6 0.4 40.8 0.45 M15.4 4.7 L15.45 4.65 15.35 4.55 Q15.25 4.55 15.1 4.5 L14.6 4.5 14.5 4.55 Q14.25 4.55 14.25 4.65 14.2 4.8 14.65 4.8 L15.75 4.8 Q15.25 4.9 15.2 5.05 15.1 5.4 16.3 5.25 17.45 5.15 17.8 4.8 17.75 4.7 17.55 4.7 L17.2 4.65 16.9 4.65 Q16.4 4.65 15.95 4.75 L15.35 4.75 15.4 4.7 M18.15 0.6 L18.05 0.6 Q18.15 0.5 18.55 0.4 19.3 0.25 18.95 0.0 18.65 -0.25 17.75 -0.15 17.0 -0.15 16.55 0.0 16.05 0.25 16.55 0.45 17.1 0.7 17.9 0.6 L17.95 0.6 18.0 0.65 18.0 0.7 18.2 0.7 Q18.2 0.65 18.25 0.6 L18.15 0.6 M20.4 0.1 Q19.45 0.2 19.45 0.55 19.45 0.95 20.4 0.7 21.6 0.35 20.4 0.1 M24.45 4.95 Q24.35 4.75 24.8 4.65 25.3 4.9 26.2 4.9 27.0 4.9 27.7 4.8 28.2 4.7 28.7 4.75 28.95 5.0 28.45 5.15 27.0 5.65 25.3 5.35 24.6 5.2 24.45 4.95 M6.8 5.65 L6.85 5.65 Q6.9 5.65 6.9 5.7 6.9 5.75 6.95 5.75 7.1 5.8 7.0 5.85 L6.9 5.8 Q6.8 5.75 6.8 5.7 L6.8 5.65 M6.25 5.65 Q6.15 5.75 6.4 5.8 7.95 6.2 9.8 5.75 11.45 5.35 10.5 4.9 10.5 4.8 10.3 4.75 10.0 4.65 9.65 4.6 L8.9 4.6 Q6.85 4.9 6.25 5.65 M6.85 4.6 Q6.7 4.65 6.6 4.7 6.35 4.75 6.35 4.85 6.35 4.9 6.45 4.95 6.6 5.0 6.8 4.95 7.1 4.9 7.25 4.8 7.35 4.75 7.3 4.7 L7.1 4.6 6.95 4.6 Q6.9 4.6 6.85 4.6 M-31.5 -2.8 Q-31.65 -3.05 -31.35 -3.25 -30.1 -4.05 -27.3 -4.1 L-25.7 -4.05 Q-24.9 -4.0 -24.2 -3.9 -23.9 -3.8 -23.7 -3.7 L-23.7 -3.7 Q-23.8 -3.35 -25.15 -3.5 -27.7 -3.8 -29.25 -3.25 -30.1 -2.95 -29.6 -2.55 -29.2 -2.25 -28.25 -2.2 -28.55 -2.1 -28.85 -2.15 -30.45 -2.05 -31.15 -2.45 -31.4 -2.6 -31.5 -2.8 M-15.75 -4.65 L-15.35 -4.7 -14.7 -4.75 Q-13.6 -4.85 -12.6 -4.75 -11.55 -4.65 -10.65 -4.4 -10.15 -4.25 -10.15 -4.05 -10.65 -4.15 -11.3 -4.2 -14.35 -4.3 -16.55 -3.65 -16.9 -3.55 -17.3 -3.6 L-17.6 -3.65 Q-17.75 -3.85 -17.6 -4.05 -17.4 -4.4 -16.35 -4.55 L-15.75 -4.65 M-26.8 -3.45 L-25.65 -3.45 Q-25.2 -3.35 -25.65 -3.2 -26.35 -3.0 -26.95 -3.2 -27.4 -3.35 -26.8 -3.45 M-13.2 -0.1 Q-12.75 -0.05 -12.4 0.1 -12.15 0.15 -12.1 0.25 L-12.15 0.3 Q-12.3 0.25 -12.55 0.2 L-13.5 0.15 Q-13.75 0.15 -14.05 0.15 -14.65 0.2 -15.0 0.4 L-15.05 0.4 -15.25 0.35 -15.3 0.3 -15.2 0.1 Q-15.15 0.0 -14.85 -0.05 -14.55 -0.15 -14.2 -0.15 -13.7 -0.2 -13.2 -0.1 M-19.3 5.3 Q-20.2 5.55 -19.55 5.8 -18.35 6.35 -16.55 6.0 -15.5 5.8 -15.4 5.45 -15.3 4.9 -17.25 5.0 -18.4 5.05 -19.3 5.3 M-17.55 4.65 Q-17.5 4.6 -17.55 4.6 L-17.55 4.5 Q-17.6 4.5 -17.75 4.45 L-18.35 4.45 Q-18.7 4.45 -19.05 4.5 -19.65 4.6 -19.85 4.8 -20.0 4.9 -19.7 5.0 -19.15 5.05 -18.65 4.95 -18.1 4.85 -17.55 4.85 L-17.6 4.8 -17.8 4.8 -17.75 4.75 -17.55 4.65 M-25.05 4.0 Q-25.35 4.1 -25.35 4.25 L-25.25 4.4 -25.75 4.4 Q-25.85 4.15 -26.4 4.0 -26.75 3.9 -27.2 3.8 -27.85 3.65 -28.7 3.75 -29.1 3.75 -29.5 3.85 -30.2 4.0 -30.15 4.25 -30.0 4.75 -28.6 4.85 -26.85 5.05 -25.5 4.65 L-25.5 4.6 -25.55 4.55 -25.5 4.5 -25.15 4.45 -25.15 4.5 -25.0 4.55 Q-24.55 4.6 -24.1 4.5 -23.75 4.45 -23.65 4.35 L-23.15 4.3 -23.1 4.3 Q-23.2 4.25 -23.4 4.25 L-23.6 4.25 Q-23.6 4.2 -23.65 4.15 -23.85 3.9 -24.7 3.95 -24.9 3.95 -25.05 4.0 M-9.3 5.2 Q-10.9 5.45 -10.45 6.05 -10.2 6.4 -9.15 6.35 -6.4 6.25 -4.85 5.45 -4.7 5.35 -4.8 5.3 -5.6 4.85 -7.6 4.95 -8.45 5.05 -9.3 5.2 M-9.7 5.55 L-9.85 5.65 -9.95 5.7 -9.9 5.65 -9.7 5.55 -9.7 5.55 M-9.35 4.95 Q-9.05 4.9 -9.15 4.8 L-9.2 4.75 -9.4 4.75 -9.75 4.7 -9.75 4.75 -10.0 4.75 -10.0 4.8 -10.05 4.8 -10.05 4.9 -10.0 4.9 -9.95 4.95 Q-9.65 5.0 -9.35 4.95" fill="#ccfffe" fill-opacity="0.7529412" fill-rule="evenodd" stroke="none"/>
  </g>
</svg>
