<?xml version="1.0" encoding="UTF-8" standalone="no"?>
<svg xmlns:ffdec="https://www.free-decompiler.com/flash" xmlns:xlink="http://www.w3.org/1999/xlink" ffdec:objectType="shape" height="8.9px" width="10.4px" xmlns="http://www.w3.org/2000/svg">
  <g transform="matrix(1.0, 0.0, 0.0, 1.0, 5.2, 4.45)">
    <path d="M1.2 -3.5 Q2.6 -3.05 3.6 -2.35 L3.3 -2.4 3.05 -2.3 2.25 -2.15 0.15 -1.95 Q0.0 -0.9 -0.6 -0.05 -1.0 0.6 -1.1 1.45 L-1.15 2.5 -0.8 3.15 -0.6 3.4 Q-2.7 3.4 -4.25 2.2 L-4.1 2.0 Q-3.85 1.2 -3.45 0.4 L-2.35 -1.4 -1.75 -1.5 Q-1.05 -1.55 -0.4 -1.8 -0.3 -1.95 -0.3 -2.05 L-0.3 -2.15 Q-0.35 -2.75 -1.15 -2.7 -1.9 -2.55 -1.2 -3.15 -0.9 -3.45 -0.45 -3.6 L1.2 -3.5 M0.65 -0.2 Q0.8 -0.75 1.1 -1.2 L1.85 -1.35 3.05 -1.85 Q3.45 -2.05 4.0 -2.1 L4.2 -1.95 2.5 0.4 Q1.6 1.8 0.8 3.15 L0.55 1.75 Q0.35 0.75 0.65 -0.2" fill="#ccfffe" fill-opacity="0.7529412" fill-rule="evenodd" stroke="none"/>
    <path d="M0.65 -0.2 Q0.35 0.75 0.55 1.75 L0.8 3.15 Q1.6 1.8 2.5 0.4 L4.2 -1.95 4.0 -2.1 Q3.45 -2.05 3.05 -1.85 L1.85 -1.35 1.1 -1.2 Q0.8 -0.75 0.65 -0.2 M1.2 -3.5 L-0.45 -3.6 Q-0.9 -3.45 -1.2 -3.15 -1.9 -2.55 -1.15 -2.7 -0.35 -2.75 -0.3 -2.15 L-0.3 -2.05 Q-0.3 -1.95 -0.4 -1.8 -1.05 -1.55 -1.75 -1.5 L-2.35 -1.4 -3.45 0.4 Q-3.85 1.2 -4.1 2.0 L-4.25 2.2 Q-2.7 3.4 -0.6 3.4 L-0.8 3.15 -1.15 2.5 -1.1 1.45 Q-1.0 0.6 -0.6 -0.05 0.0 -0.9 0.15 -1.95 L2.25 -2.15 3.05 -2.3 3.3 -2.4 3.6 -2.35 Q2.6 -3.05 1.2 -3.5 M4.0 -0.4 L1.65 3.2 Q1.25 3.75 1.05 4.45 L-2.4 4.1 Q-3.8 3.85 -5.0 3.35 -5.5 2.1 -4.85 0.75 -3.6 -2.0 -1.4 -3.9 -0.9 -4.35 -0.35 -4.45 1.2 -4.4 2.6 -3.9 4.0 -3.35 5.2 -2.4 4.75 -1.45 4.0 -0.4" fill="#ccfffe" fill-rule="evenodd" stroke="none"/>
  </g>
</svg>
