<?xml version="1.0" encoding="UTF-8" standalone="no"?>
<svg xmlns:ffdec="https://www.free-decompiler.com/flash" xmlns:xlink="http://www.w3.org/1999/xlink" ffdec:objectType="shape" height="32.95px" width="78.45px" xmlns="http://www.w3.org/2000/svg">
  <g transform="matrix(1.0, 0.0, 0.0, 1.0, 58.45, 23.3)">
    <path d="M16.4 -19.95 Q17.8 -19.5 18.25 -17.95 18.5 -17.1 18.5 -15.05 18.5 -10.3 16.75 -5.7 15.15 -1.35 12.35 2.2 9.6 5.65 6.25 7.65 2.85 9.65 -0.35 9.65 -3.05 9.65 -4.7 8.5 -5.7 7.75 -7.0 5.9 -8.25 4.0 -9.25 3.3 -10.9 2.1 -13.55 2.1 -15.45 2.1 -16.6 1.35 -17.15 1.3 -17.6 1.05 L-17.65 1.1 Q-17.85 1.3 -17.95 1.3 -20.15 1.3 -20.65 -2.55 L-20.75 -3.8 Q-21.05 -3.85 -21.3 -4.4 L-21.9 -5.75 Q-22.7 -7.7 -23.5 -7.7 -25.0 -7.7 -26.05 -6.55 -26.75 -5.8 -27.6 -3.95 -28.5 -2.0 -29.0 -1.4 -29.9 -0.2 -31.1 -0.2 -33.3 -0.2 -33.9 -2.5 -34.2 -3.6 -34.1 -4.75 L-34.15 -4.7 Q-35.65 -2.55 -36.8 -2.55 -39.45 -2.55 -40.4 -7.25 -40.85 -9.6 -40.75 -12.0 -40.75 -14.1 -40.7 -14.75 -40.55 -16.75 -39.9 -17.7 -38.15 -20.35 -32.75 -14.75 L-32.75 -14.85 Q-34.1 -21.0 -29.1 -19.7 -27.55 -19.35 -25.3 -18.2 L-23.75 -17.45 -23.8 -17.9 Q-23.8 -18.6 -23.4 -19.65 -22.95 -20.95 -22.15 -21.75 -20.9 -23.0 -19.25 -22.8 -18.5 -23.35 -17.8 -23.25 -17.05 -23.2 -16.5 -22.4 -14.75 -22.35 -13.6 -21.5 -13.0 -21.0 -11.75 -19.4 -10.65 -17.95 -9.6 -17.35 -8.0 -16.4 -5.55 -16.4 -1.2 -16.4 3.75 -19.2 L7.25 -21.25 Q9.05 -22.25 10.15 -22.45 13.7 -22.7 15.35 -21.7 16.4 -21.05 16.4 -20.05 L16.4 -19.95 M3.8 -1.5 Q4.15 -2.15 4.05 -3.1 3.95 -4.05 3.45 -4.95 2.25 -7.1 0.2 -7.25 -1.85 -7.35 -4.05 -5.95 -5.05 -5.3 -5.65 -4.6 -6.25 -3.85 -6.25 -3.2 -6.25 -2.95 -6.0 -2.3 -5.7 -1.45 -5.2 -0.7 -3.9 1.5 -2.2 1.8 L-1.3 1.85 Q1.1 1.85 2.8 0.35 L4.05 -0.85 Q4.75 -1.55 5.25 -1.8 L5.2 -1.95 Q4.75 -1.85 4.3 -1.7 L3.8 -1.5 M-55.5 -18.1 Q-54.3 -19.15 -53.45 -18.8 -52.55 -18.4 -52.55 -16.4 -52.55 -15.15 -53.45 -13.7 L-54.05 -12.7 Q-54.35 -12.2 -54.35 -11.85 -54.35 -10.75 -53.7 -9.7 -53.25 -9.05 -52.3 -8.1 -51.15 -7.0 -50.9 -6.65 -50.25 -5.85 -50.25 -5.1 -50.25 -4.55 -50.9 -3.65 -51.7 -2.55 -52.9 -2.55 -56.85 -2.55 -58.0 -6.55 -58.6 -8.6 -58.4 -10.7 -58.4 -13.0 -57.5 -15.15 -56.7 -17.05 -55.5 -18.1 M-18.75 -19.55 Q-20.2 -19.15 -21.35 -17.35 -22.5 -15.6 -22.5 -13.75 -22.5 -12.2 -21.8 -10.6 -20.55 -7.7 -17.7 -7.7 -15.8 -7.7 -15.0 -9.45 -14.8 -9.9 -14.45 -10.8 -14.15 -11.5 -13.7 -11.7 -13.7 -11.4 -13.5 -11.5 -13.5 -11.65 -13.55 -11.75 -13.65 -11.9 -13.8 -11.95 -14.0 -11.85 -14.35 -11.8 L-14.35 -11.9 Q-14.65 -16.45 -16.0 -18.4 -17.1 -20.0 -18.75 -19.55 M-35.35 -16.85 Q-36.45 -17.05 -37.2 -15.7 -38.05 -14.2 -38.05 -11.4 -37.9 -9.9 -37.4 -8.35 -36.4 -5.25 -34.45 -5.25 -33.4 -5.25 -32.95 -7.4 -32.65 -8.65 -32.65 -9.8 -32.65 -12.9 -33.5 -14.85 -34.25 -16.6 -35.35 -16.85" fill="#ffffff" fill-opacity="0.101960786" fill-rule="evenodd" stroke="none"/>
    <path d="M16.15 -21.3 Q16.25 -21.65 16.65 -21.55 17.25 -21.45 18.05 -20.65 18.85 -19.8 19.4 -18.75 20.0 -17.5 20.0 -16.5 20.0 -14.15 18.0 -11.0 L16.65 -8.85 Q16.0 -7.85 16.0 -7.35 16.0 -7.2 16.3 -5.9 16.6 -4.6 16.6 -3.45 16.6 -2.6 16.2 -1.2 15.6 1.0 14.25 2.8 10.2 8.4 1.15 8.4 -2.9 8.4 -5.45 5.55 -6.8 4.05 -7.35 2.45 -8.25 2.95 -10.6 2.95 -13.45 2.95 -15.3 0.5 -15.9 -0.35 -16.3 -1.35 -16.6 -2.1 -16.6 -2.4 L-16.4 -4.9 Q-16.2 -7.2 -16.2 -7.4 -16.2 -8.0 -17.15 -9.45 -18.2 -11.05 -19.1 -11.05 -19.85 -11.05 -20.45 -10.9 -21.7 -10.25 -22.75 -8.7 -23.55 -6.85 -24.05 -6.0 -24.65 -4.9 -25.35 -4.1 -25.7 -3.45 -26.0 -3.1 -26.85 -1.95 -27.75 -1.95 -28.5 -1.95 -29.1 -2.15 -30.6 -2.15 -30.95 -4.15 -31.05 -4.55 -31.05 -4.95 L-31.05 -5.1 Q-31.1 -6.35 -30.95 -7.65 -31.05 -7.55 -31.2 -7.45 L-31.55 -6.55 Q-32.65 -3.8 -34.3 -3.8 -35.55 -3.8 -36.05 -6.0 -36.3 -7.1 -36.3 -8.25 -36.3 -8.9 -36.1 -11.9 -35.85 -15.25 -35.7 -16.2 -35.3 -18.35 -34.5 -18.55 -33.8 -18.7 -32.9 -17.5 -32.2 -16.55 -31.55 -15.1 L-31.45 -14.9 -31.3 -14.8 -31.25 -15.1 Q-30.95 -16.25 -30.5 -17.25 -29.2 -20.15 -27.0 -20.15 -25.9 -20.15 -25.35 -19.55 -25.05 -19.2 -24.75 -18.25 -24.5 -17.3 -24.15 -16.95 -23.6 -16.35 -22.45 -16.35 -21.75 -16.35 -21.3 -17.1 -21.05 -17.55 -20.55 -18.7 -20.0 -19.75 -19.1 -20.3 -17.85 -21.0 -15.8 -21.0 -12.85 -21.0 -11.25 -19.45 -10.65 -18.85 -10.1 -17.85 -9.9 -17.45 -9.2 -16.0 -8.05 -13.55 -6.7 -12.55 -4.7 -10.95 -0.95 -10.95 1.65 -10.95 3.45 -12.4 4.65 -13.35 5.95 -15.5 7.45 -18.0 8.05 -18.65 9.35 -20.05 11.2 -20.05 L12.55 -19.85 14.05 -19.6 14.0 -19.9 Q14.2 -20.9 14.75 -21.3 15.2 -21.6 15.75 -21.45 L16.15 -21.3 M6.05 -2.05 Q4.7 -2.8 2.75 -2.4 1.0 -2.05 -0.3 -0.9 -1.65 0.25 -1.65 1.5 -1.65 2.7 -0.6 3.75 0.8 5.1 3.25 5.1 5.0 5.1 6.8 3.3 L7.95 1.95 Q8.5 1.3 8.7 1.2 L8.65 1.1 8.25 1.15 8.0 1.25 Q7.6 -1.1 6.05 -2.05 M-50.3 -9.4 Q-50.35 -9.8 -50.35 -10.85 -50.35 -13.5 -48.85 -15.45 -47.55 -17.15 -45.6 -17.85 -43.7 -18.55 -42.3 -17.95 -40.8 -17.3 -40.8 -15.5 -40.8 -14.45 -41.55 -13.85 -42.0 -13.45 -43.15 -13.0 -44.35 -12.55 -44.75 -12.25 -45.45 -11.7 -45.45 -10.8 -45.45 -10.2 -44.6 -9.7 -44.0 -9.4 -42.7 -8.95 -41.15 -8.45 -40.8 -8.3 -39.9 -7.9 -39.9 -7.5 -39.9 -6.65 -40.75 -6.0 -41.15 -5.65 -43.1 -4.6 -48.0 -4.95 -49.6 -7.45 -50.15 -8.3 -50.3 -9.4 M-18.55 -17.5 Q-19.65 -16.6 -19.65 -14.75 -19.65 -13.85 -19.15 -13.0 -18.2 -11.35 -15.8 -11.35 -13.85 -11.35 -12.95 -13.15 -12.5 -14.2 -12.5 -15.1 -12.5 -16.25 -13.6 -17.15 -14.65 -18.0 -16.1 -18.1 -17.55 -18.25 -18.55 -17.5" fill="#ffffff" fill-opacity="0.2509804" fill-rule="evenodd" stroke="none"/>
  </g>
</svg>
