<?xml version="1.0" encoding="UTF-8" standalone="no"?>
<svg xmlns:ffdec="https://www.free-decompiler.com/flash" xmlns:xlink="http://www.w3.org/1999/xlink" ffdec:objectType="shape" height="47.95px" width="112.85px" xmlns="http://www.w3.org/2000/svg">
  <g transform="matrix(1.0, 0.0, 0.0, 1.0, 87.6, 44.1)">
    <path d="M4.3 -32.1 Q4.3 -33.4 3.8 -33.25 3.55 -34.05 2.85 -34.5 1.9 -35.05 0.55 -34.8 -0.8 -34.5 -1.7 -33.55 L-1.9 -33.35 Q-1.95 -33.4 -2.0 -33.4 -2.1 -33.4 -2.15 -32.95 -2.7 -32.05 -2.7 -30.95 -2.7 -30.25 -2.45 -29.55 L-2.35 -29.45 Q-2.25 -28.35 -1.7 -27.3 -0.85 -25.6 0.65 -25.2 0.8 -25.1 0.95 -25.1 L1.05 -25.1 1.7 -25.05 Q3.1 -25.05 3.7 -25.8 4.05 -26.25 4.05 -26.9 4.05 -27.45 3.7 -27.85 3.4 -28.25 3.4 -28.85 3.4 -29.25 3.85 -30.6 4.3 -31.95 4.3 -32.1 M15.95 -34.85 Q16.85 -33.15 19.85 -28.45 22.3 -24.6 23.6 -22.05 24.0 -21.5 24.3 -20.9 25.25 -19.05 25.25 -17.6 25.25 -15.75 24.35 -14.6 23.9 -14.1 22.3 -12.9 20.85 -11.85 20.2 -10.75 19.25 -9.1 19.1 -6.4 18.7 3.85 10.95 3.85 7.45 3.85 3.25 -2.8 1.85 -5.05 0.7 -7.55 L0.2 -8.6 Q-0.2 -8.8 -0.4 -9.25 -0.7 -9.75 -0.7 -10.6 -0.7 -10.7 -0.15 -11.85 0.4 -13.0 0.4 -13.45 0.4 -14.1 -0.1 -14.85 -0.75 -15.75 -1.9 -16.45 -4.95 -18.3 -10.5 -18.2 -11.1 -18.2 -12.95 -18.95 L-16.8 -20.55 Q-22.3 -22.95 -23.8 -22.95 L-25.85 -22.9 -26.4 -22.8 Q-28.2 -22.4 -29.2 -22.0 -31.9 -20.9 -31.9 -18.2 -31.9 -17.65 -31.25 -16.3 -30.6 -15.0 -30.6 -14.85 -30.6 -14.55 -30.65 -14.45 L-30.65 -14.35 Q-30.7 -14.3 -31.0 -14.3 L-31.65 -14.4 Q-31.8 -14.3 -32.0 -14.3 -33.45 -14.3 -34.75 -14.8 -37.7 -15.45 -39.4 -18.75 -40.15 -19.75 -40.65 -20.9 -41.25 -22.2 -41.25 -22.9 -41.25 -23.55 -41.05 -24.55 -40.75 -25.95 -40.2 -26.85 L-39.95 -27.2 Q-40.05 -27.45 -40.0 -27.65 -40.0 -28.0 -39.65 -28.2 -39.4 -28.4 -38.95 -28.45 -38.25 -29.0 -37.45 -28.45 -36.4 -28.3 -35.75 -27.85 L-35.1 -27.4 Q-34.75 -27.2 -34.25 -27.2 -32.5 -27.2 -31.95 -28.25 -31.65 -28.8 -31.7 -29.4 -31.7 -29.8 -31.85 -30.3 -32.25 -30.65 -32.5 -31.4 -32.75 -32.05 -32.75 -32.8 -32.75 -34.7 -30.25 -35.75 -26.65 -37.2 -17.5 -37.2 -12.3 -37.2 -9.25 -39.2 -9.2 -40.05 -8.6 -41.05 -7.85 -42.3 -6.6 -43.05 -4.05 -44.7 -0.4 -43.8 0.6 -43.95 1.8 -43.75 4.45 -43.4 7.85 -41.45 10.55 -39.9 13.1 -37.7 15.3 -35.8 15.95 -34.85 M10.55 -3.2 Q9.6 -3.45 8.9 -3.1 8.15 -2.7 8.15 -1.75 8.15 -1.05 8.75 -0.35 9.6 0.7 11.35 0.7 11.55 0.7 12.2 0.25 12.9 -0.3 12.9 -0.65 12.9 -1.6 12.2 -2.35 11.5 -3.0 10.55 -3.2 M13.15 -18.25 Q13.15 -19.5 12.15 -20.45 11.25 -21.25 9.9 -21.55 8.6 -21.9 7.65 -21.55 7.05 -21.35 6.85 -20.95 6.35 -20.65 5.95 -19.9 L5.6 -19.2 5.4 -19.2 Q5.1 -19.15 5.0 -18.8 4.95 -18.6 4.95 -18.25 4.8 -17.85 4.8 -17.4 4.85 -16.25 5.1 -15.25 L5.25 -14.45 Q5.65 -13.0 6.35 -12.3 7.6 -9.65 9.8 -9.65 10.65 -9.65 10.95 -10.0 11.15 -10.2 11.15 -10.65 11.15 -10.95 10.95 -11.7 L10.8 -12.25 Q11.0 -12.65 11.15 -13.15 11.6 -14.6 11.6 -15.45 11.6 -17.3 10.8 -18.1 10.6 -18.3 10.35 -18.45 L10.4 -18.6 Q10.55 -19.0 10.55 -19.3 10.55 -20.1 9.95 -20.45 9.8 -20.55 9.6 -20.6 10.6 -20.45 11.55 -18.95 12.4 -17.55 12.55 -16.4 L12.75 -16.45 13.0 -17.4 Q13.15 -18.0 13.15 -18.25 M-58.55 -22.9 Q-58.55 -21.25 -59.35 -19.35 -60.1 -17.8 -60.1 -17.5 -60.1 -17.25 -58.9 -13.85 -57.65 -10.45 -57.65 -10.35 -57.65 -9.65 -58.05 -9.05 -58.85 -8.0 -60.75 -8.0 -64.0 -8.0 -65.2 -11.9 -65.8 -13.9 -65.8 -16.15 -65.8 -20.6 -64.65 -23.4 -63.7 -25.8 -62.15 -26.45 -60.8 -27.1 -59.7 -26.05 -58.55 -25.0 -58.55 -22.9 M-19.15 -33.05 Q-20.75 -33.55 -21.75 -33.2 -22.95 -32.8 -22.95 -31.35 -22.75 -30.55 -21.9 -29.75 -20.1 -28.2 -16.55 -28.2 -15.85 -28.2 -15.55 -28.9 -15.4 -29.35 -15.4 -29.85 -15.4 -30.7 -16.55 -31.7 -17.7 -32.6 -19.15 -33.05 M-29.6 -23.65 L-28.95 -23.8 Q-29.05 -23.85 -29.1 -23.9 L-29.6 -23.65" fill="#ffffff" fill-opacity="0.2509804" fill-rule="evenodd" stroke="none"/>
    <path d="M9.7 -41.7 Q11.9 -41.65 13.6 -40.45 15.3 -39.55 16.45 -38.35 17.2 -37.6 18.15 -36.2 18.65 -35.45 19.65 -32.05 20.65 -28.7 20.65 -27.8 20.65 -25.85 19.8 -19.55 19.45 -16.8 19.2 -15.2 20.0 -14.7 21.3 -12.45 L21.55 -11.95 21.65 -11.8 21.7 -11.75 22.0 -11.05 Q22.55 -9.9 22.55 -9.35 22.55 -9.15 22.4 -8.35 22.2 -7.55 22.2 -7.3 22.2 -6.85 21.65 -5.7 20.95 -4.2 19.85 -2.9 16.6 0.9 11.55 0.9 6.75 0.9 3.95 -3.0 3.1 -4.25 2.4 -5.9 L1.7 -7.55 Q1.3 -8.15 0.45 -9.8 -0.4 -11.3 -1.25 -12.0 -1.9 -12.6 -3.25 -13.05 L-5.7 -13.75 Q-7.2 -14.15 -7.8 -14.4 L-8.25 -14.7 Q-9.35 -15.0 -10.65 -15.75 -11.95 -16.45 -14.75 -18.45 -17.5 -20.4 -18.9 -21.2 -21.2 -22.4 -22.95 -22.4 -26.8 -22.4 -27.85 -20.1 -28.15 -19.4 -28.15 -18.5 L-28.1 -17.7 -28.1 -16.85 -28.15 -16.75 Q-28.25 -16.6 -28.55 -16.6 -28.9 -16.6 -29.15 -16.95 -29.45 -16.95 -30.1 -17.6 L-31.35 -19.0 Q-33.1 -21.0 -33.75 -21.0 -35.2 -21.0 -35.95 -20.5 -36.2 -20.3 -36.9 -19.3 -37.5 -18.5 -38.35 -18.1 -39.6 -17.55 -41.95 -17.55 L-42.55 -17.6 -42.8 -19.25 Q-40.7 -20.6 -40.2 -22.65 -40.0 -23.3 -39.9 -24.9 -39.8 -26.3 -39.55 -26.95 -38.0 -30.75 -31.3 -29.05 -29.3 -28.55 -26.5 -27.45 L-24.4 -26.6 Q-24.6 -27.2 -24.8 -28.1 -25.25 -30.05 -25.25 -31.35 -25.25 -34.85 -24.15 -37.05 -22.9 -39.6 -20.35 -39.95 -18.55 -40.8 -16.05 -40.4 L-14.85 -40.45 Q-13.6 -40.45 -12.3 -40.15 L-11.7 -40.0 Q-8.9 -39.8 -5.4 -39.25 L-1.8 -38.65 Q-0.65 -38.8 0.5 -39.15 1.9 -39.6 4.3 -40.6 6.5 -41.5 7.4 -41.75 8.8 -42.1 9.7 -41.7 M8.1 -8.95 Q8.3 -9.25 8.7 -10.05 9.1 -10.7 9.65 -10.85 9.5 -10.4 9.15 -9.85 8.65 -9.0 8.15 -8.75 8.1 -8.8 8.1 -8.95 M10.65 -13.7 Q8.45 -13.75 6.75 -12.75 4.8 -11.65 4.8 -9.85 4.65 -8.8 5.1 -7.7 6.0 -5.6 8.95 -5.6 10.45 -5.6 12.55 -7.25 13.65 -8.1 14.8 -9.25 14.4 -9.15 14.0 -8.85 13.75 -8.65 13.25 -8.7 L13.3 -8.8 Q14.75 -11.05 13.75 -12.45 12.85 -13.6 10.65 -13.7 M7.25 -23.8 Q7.25 -24.95 5.8 -25.9 4.45 -26.85 2.7 -27.05 0.8 -27.3 -0.45 -26.6 -1.85 -25.75 -1.85 -23.9 -1.8 -23.35 -1.65 -22.85 L-1.75 -22.65 Q-2.3 -21.55 -2.3 -20.7 -2.3 -20.05 -1.5 -19.6 0.0 -18.8 4.05 -18.8 5.45 -18.8 6.45 -20.45 7.3 -21.75 7.3 -22.7 L7.3 -23.05 Q7.25 -23.3 7.2 -23.55 L7.25 -23.8 M-84.85 -22.55 Q-84.3 -20.95 -84.3 -18.9 L-84.3 -17.9 Q-84.25 -17.0 -84.35 -16.35 -84.7 -14.25 -86.25 -14.25 L-87.2 -14.35 Q-87.25 -14.5 -87.15 -14.7 -87.05 -14.9 -87.05 -15.15 L-87.35 -17.2 Q-87.6 -19.3 -87.6 -19.7 -87.6 -22.45 -87.1 -23.65 -86.65 -24.75 -85.95 -24.35 -85.3 -24.0 -84.85 -22.55 M-55.3 -25.45 Q-52.1 -29.45 -45.3 -24.25 L-45.75 -24.0 Q-44.75 -23.75 -44.75 -22.85 -44.75 -21.9 -45.45 -21.8 L-47.0 -21.9 Q-50.55 -21.9 -51.8 -19.65 -52.45 -18.5 -52.35 -17.2 -52.35 -15.9 -52.1 -15.05 -51.85 -14.25 -51.25 -13.4 L-49.8 -11.65 Q-48.6 -10.25 -47.7 -9.0 -47.75 -8.85 -47.8 -8.8 -47.9 -8.75 -48.05 -8.7 L-48.25 -8.4 -48.6 -7.95 Q-53.95 -6.5 -56.15 -12.15 -56.85 -13.95 -57.2 -16.3 -57.35 -17.65 -57.35 -18.65 -57.35 -20.1 -56.95 -21.75 -56.4 -24.1 -55.3 -25.45 M-56.1 -20.3 L-56.15 -19.8 -56.15 -18.9 -56.1 -19.1 -56.1 -20.3 M-52.5 -10.45 L-52.3 -10.35 -52.55 -10.6 -52.6 -10.45 -52.5 -10.45 M-34.4 -25.85 L-33.6 -26.0 Q-33.05 -26.1 -32.85 -26.2 -33.6 -27.4 -35.0 -27.45 -35.55 -27.45 -35.95 -27.25 -36.35 -27.0 -36.35 -26.6 L-35.25 -26.15 Q-34.7 -25.95 -34.4 -25.85 M-16.05 -37.05 Q-16.55 -37.4 -16.85 -37.2 L-16.95 -37.15 -17.15 -37.2 Q-18.1 -37.55 -18.2 -36.8 L-18.35 -36.7 Q-18.8 -36.25 -18.8 -35.05 -18.8 -34.6 -18.45 -33.6 -17.95 -32.3 -17.2 -31.15 -14.85 -27.85 -10.75 -27.85 L-9.95 -27.95 -9.6 -28.05 Q-9.35 -28.2 -9.15 -28.35 L-8.95 -28.55 -7.45 -28.75 Q-6.1 -29.15 -5.25 -29.45 L-4.7 -29.8 -4.4 -29.9 -4.3 -29.9 -4.1 -30.0 -2.85 -31.7 Q-2.7 -32.05 -2.6 -32.4 -2.9 -32.2 -4.0 -31.7 L-4.6 -31.65 -5.05 -31.5 Q-6.5 -31.8 -7.65 -32.15 -9.05 -32.55 -9.85 -32.95 -10.15 -33.85 -10.9 -34.65 -11.95 -35.7 -13.7 -36.4 -14.95 -36.9 -16.05 -37.05" fill="#ffffff" fill-opacity="0.5019608" fill-rule="evenodd" stroke="none"/>
  </g>
</svg>
