<?xml version="1.0" encoding="UTF-8" standalone="no"?>
<svg xmlns:ffdec="https://www.free-decompiler.com/flash" xmlns:xlink="http://www.w3.org/1999/xlink" ffdec:objectType="shape" height="47.65px" width="107.7px" xmlns="http://www.w3.org/2000/svg">
  <g transform="matrix(1.0, 0.0, 0.0, 1.0, 82.25, 43.3)">
    <path d="M9.95 -39.9 L13.6 -40.5 Q14.95 -40.5 16.3 -40.0 L17.15 -39.65 Q19.1 -39.05 20.0 -37.6 21.1 -35.05 21.55 -33.5 22.25 -31.2 22.25 -29.5 22.25 -26.65 20.9 -20.45 20.5 -18.7 19.5 -14.7 L20.15 -13.35 Q20.9 -11.5 21.45 -9.65 22.05 -7.65 22.05 -6.55 22.05 -5.65 21.6 -4.35 21.1 -2.9 20.3 -1.55 18.15 1.95 15.0 2.7 L14.75 2.7 Q13.95 2.9 13.1 2.9 11.5 2.9 10.05 2.7 L9.6 2.65 9.25 2.5 Q4.85 1.55 2.4 -1.95 1.25 -3.6 0.7 -5.55 L0.6 -5.9 -0.65 -7.45 Q-4.2 -11.4 -8.3 -13.05 -10.45 -13.9 -15.25 -18.0 -16.95 -19.5 -18.4 -20.85 L-19.2 -21.65 Q-20.3 -22.05 -20.6 -22.05 -23.55 -22.05 -24.95 -21.2 -26.0 -20.55 -26.2 -19.2 -26.3 -18.75 -26.3 -18.0 L-26.3 -16.85 -26.35 -16.55 -26.3 -16.5 Q-26.25 -16.45 -26.25 -16.15 -26.25 -15.85 -26.6 -15.5 -26.75 -15.15 -27.0 -14.9 L-27.2 -15.1 Q-27.55 -14.85 -27.75 -14.85 -29.1 -14.85 -30.25 -15.7 -30.9 -16.2 -32.05 -17.55 L-32.35 -17.9 Q-33.45 -19.05 -34.35 -19.4 L-34.9 -19.5 -35.1 -19.5 -35.8 -19.35 -35.85 -19.45 -36.2 -19.45 -36.6 -19.25 Q-37.45 -18.9 -40.6 -18.85 -41.4 -18.3 -42.35 -18.3 L-43.25 -18.35 Q-43.7 -18.4 -43.95 -18.25 -44.25 -18.1 -44.95 -17.5 L-45.7 -16.8 Q-45.85 -16.6 -46.3 -15.45 -46.75 -14.3 -46.75 -14.15 -46.75 -13.6 -46.65 -13.15 -45.8 -12.0 -43.85 -11.2 L-42.2 -10.65 -40.5 -10.6 Q-40.0 -10.6 -39.8 -10.2 -39.65 -9.95 -39.65 -9.75 -39.65 -9.35 -40.9 -8.6 -42.25 -7.85 -43.25 -7.85 L-43.85 -7.85 -44.0 -7.8 -45.15 -7.8 Q-51.05 -7.15 -53.05 -11.25 -53.7 -12.6 -53.85 -14.4 -53.9 -15.0 -53.9 -16.5 -53.9 -18.4 -53.4 -20.2 -52.85 -22.3 -51.85 -23.3 -50.7 -25.1 -48.95 -25.7 -47.55 -26.85 -46.9 -27.15 -46.3 -27.5 -45.9 -27.45 -45.6 -27.4 -45.25 -27.05 L-44.5 -26.25 Q-43.95 -25.7 -43.25 -25.35 -41.2 -24.25 -37.35 -24.25 L-36.65 -24.35 Q-36.2 -24.7 -35.85 -25.15 -35.75 -28.75 -33.5 -30.3 -29.8 -32.8 -21.0 -29.1 -21.55 -29.8 -21.95 -30.95 -22.45 -32.4 -22.65 -33.95 -22.65 -34.85 -22.45 -35.65 L-22.5 -36.0 Q-22.5 -37.35 -21.35 -38.65 -20.15 -39.95 -17.9 -40.9 -16.65 -41.45 -14.65 -41.35 L-14.2 -41.3 -12.35 -41.2 Q-11.35 -41.05 -10.6 -40.75 L-10.1 -40.7 Q-6.25 -40.05 -3.7 -39.75 0.65 -39.25 5.15 -39.25 6.5 -39.25 9.95 -39.9 M11.0 -12.4 Q10.0 -12.4 8.85 -10.95 L8.3 -10.15 8.05 -9.95 Q7.3 -9.05 7.05 -7.9 6.4 -6.4 6.4 -5.7 6.3 -4.55 6.6 -3.5 7.25 -1.45 9.45 -1.45 10.8 -1.45 11.95 -1.85 12.55 -2.1 13.3 -2.45 9.7 -2.8 8.75 -3.6 8.6 -3.7 8.5 -3.85 8.95 -3.7 9.6 -3.7 12.2 -3.7 13.4 -6.05 14.1 -7.4 14.1 -8.7 14.1 -10.25 13.0 -11.0 L12.6 -11.25 Q11.9 -12.45 11.0 -12.4 M9.85 -23.05 Q9.45 -23.65 8.9 -24.15 L8.9 -24.35 Q8.9 -26.0 7.3 -26.65 5.85 -27.3 3.8 -26.9 1.7 -26.5 0.25 -25.25 -1.3 -23.85 -1.3 -21.85 -1.3 -20.65 -1.3 -20.35 -1.25 -20.0 -1.0 -19.75 -0.65 -19.3 -0.3 -18.9 0.3 -18.05 1.05 -16.75 L1.05 -16.85 0.45 -18.65 Q0.05 -19.85 0.05 -20.45 0.05 -21.95 0.85 -23.2 1.25 -23.9 1.85 -24.35 1.35 -23.35 1.35 -21.8 1.2 -20.8 1.6 -19.85 2.5 -17.95 5.65 -17.95 7.15 -17.95 8.45 -20.05 9.45 -21.75 9.55 -23.05 9.65 -22.95 9.75 -23.0 9.85 -23.0 9.85 -23.05 M-77.35 -23.5 Q-77.35 -23.1 -77.75 -20.55 L-78.15 -18.05 Q-78.15 -17.75 -77.45 -16.15 -76.7 -14.55 -76.7 -14.2 -76.7 -13.5 -77.05 -13.05 -77.5 -12.45 -78.6 -12.45 -80.45 -12.45 -81.5 -15.15 -82.05 -16.5 -82.25 -17.95 -82.25 -21.05 -81.45 -23.3 -80.8 -25.2 -79.8 -25.95 -78.8 -26.7 -78.1 -26.05 -77.35 -25.35 -77.35 -23.5 M-28.7 -26.85 Q-28.3 -27.25 -28.25 -27.45 -29.25 -28.1 -30.35 -28.35 -31.75 -28.65 -31.75 -27.6 -31.75 -27.25 -31.4 -27.0 -30.75 -26.45 -29.25 -26.45 -29.15 -26.45 -28.7 -26.85 M-11.4 -30.2 Q-9.9 -28.7 -6.8 -28.7 -5.95 -28.7 -5.3 -29.15 L-3.7 -29.2 -3.8 -29.35 -5.0 -29.4 Q-4.75 -29.65 -4.55 -30.0 -4.25 -30.4 -4.1 -30.7 -3.8 -31.2 -3.8 -31.65 -3.8 -31.9 -3.9 -32.0 -3.95 -32.45 -4.2 -32.9 L-4.1 -32.85 Q-4.15 -32.9 -4.05 -33.15 -3.95 -33.45 -3.95 -33.7 -3.95 -34.65 -5.15 -35.35 -6.25 -36.0 -7.7 -36.0 -9.25 -35.95 -10.25 -35.1 -10.75 -34.65 -11.05 -34.0 -12.25 -33.2 -12.25 -31.65 -12.15 -30.9 -11.4 -30.2" fill="#ffffff" fill-opacity="0.2509804" fill-rule="evenodd" stroke="none"/>
    <path d="M9.8 -42.0 Q12.0 -41.85 14.0 -40.65 15.8 -39.55 16.95 -37.85 17.8 -36.6 18.0 -35.45 L20.4 -33.6 Q21.65 -32.55 21.9 -32.3 23.6 -31.0 24.55 -28.7 25.45 -26.65 25.45 -24.7 25.45 -21.8 22.75 -16.25 21.4 -13.6 20.9 -12.5 20.05 -10.65 20.05 -9.85 20.05 -9.5 20.35 -8.05 20.65 -6.6 20.65 -6.3 20.65 -5.9 19.95 -4.35 19.05 -2.4 17.9 -0.7 14.45 4.35 10.35 4.35 8.4 4.35 6.85 3.4 L6.65 3.4 Q3.9 3.4 1.65 -1.45 1.2 -2.5 0.05 -5.4 -0.8 -7.7 -1.3 -8.5 -1.8 -9.3 -2.8 -11.65 -3.55 -13.45 -4.65 -14.55 -4.85 -14.8 -9.95 -16.6 L-11.9 -17.35 Q-15.5 -17.5 -17.75 -20.05 -18.1 -20.4 -18.35 -20.8 L-18.4 -20.8 Q-19.05 -20.8 -19.45 -21.3 -20.05 -22.05 -20.4 -22.25 L-25.65 -22.3 Q-26.8 -22.4 -27.45 -21.75 -28.0 -21.25 -28.0 -20.7 -28.0 -20.35 -27.4 -18.8 L-26.8 -17.25 -26.8 -16.85 Q-26.75 -16.55 -26.75 -16.25 -26.75 -15.85 -27.15 -15.1 -27.6 -14.3 -28.35 -13.55 L-28.95 -13.0 Q-29.6 -11.95 -30.4 -11.95 L-30.7 -11.95 Q-31.7 -11.55 -32.85 -11.55 L-33.35 -11.6 Q-34.95 -11.15 -36.8 -11.15 L-36.7 -10.75 Q-37.5 -10.95 -38.25 -11.3 -38.75 -11.45 -39.05 -11.75 -42.35 -12.2 -44.25 -15.75 -45.0 -17.05 -45.4 -18.65 -45.7 -19.75 -45.7 -20.2 -45.7 -21.25 -45.3 -22.65 -44.85 -24.35 -43.95 -25.65 -41.7 -29.2 -37.75 -28.45 -36.75 -28.35 -35.5 -28.1 -33.55 -27.7 -32.7 -27.6 -32.6 -28.7 -32.35 -29.7 -32.45 -29.9 -32.35 -30.15 -32.35 -31.1 -31.45 -32.15 -31.1 -32.55 -30.65 -32.9 -28.05 -35.9 -22.4 -36.1 -20.7 -36.35 -18.75 -36.45 -18.25 -36.85 -17.3 -37.2 L-16.4 -37.55 Q-15.35 -38.25 -14.1 -38.95 -12.65 -39.8 -11.25 -40.5 L-10.7 -41.1 Q-7.75 -44.1 -4.85 -43.05 0.7 -42.3 4.4 -41.65 L6.5 -41.5 Q8.15 -42.05 9.8 -42.0 M9.0 -5.9 Q7.7 -5.0 6.7 -3.6 5.8 -2.3 5.8 -1.65 5.65 -1.15 5.8 -0.75 6.1 0.15 7.65 0.15 10.7 0.15 14.05 -2.5 14.8 -3.1 15.75 -4.05 15.6 -4.3 15.6 -4.65 L15.65 -4.95 Q15.4 -4.85 15.3 -4.85 13.85 -6.75 12.05 -6.9 10.55 -7.0 9.0 -5.9 M12.95 -17.1 Q13.3 -17.6 13.65 -18.45 13.95 -19.2 14.1 -19.35 L14.05 -19.6 Q13.95 -19.6 13.75 -19.45 13.6 -19.3 13.55 -19.3 12.35 -20.7 10.85 -20.85 9.85 -20.95 8.75 -20.45 7.85 -20.35 6.75 -20.0 4.55 -19.25 3.1 -17.75 1.45 -16.05 1.45 -14.1 1.45 -13.9 1.75 -13.2 2.1 -12.35 2.6 -11.6 4.05 -9.4 6.1 -9.4 6.7 -9.4 8.75 -10.45 9.8 -11.0 11.0 -11.6 10.95 -11.7 10.7 -11.75 10.25 -11.55 9.85 -11.45 9.4 -11.0 9.0 -11.0 7.3 -11.0 6.6 -11.85 6.2 -12.35 6.2 -12.8 6.2 -13.4 6.55 -14.05 6.9 -14.75 7.6 -15.25 9.0 -16.2 11.25 -15.7 12.35 -16.15 12.95 -17.1 M2.25 -32.0 Q2.05 -32.15 1.8 -32.15 L1.85 -32.8 Q1.85 -34.45 0.85 -35.0 -0.05 -35.5 -1.35 -35.0 -2.6 -34.5 -3.55 -33.35 -4.55 -32.1 -4.55 -30.7 -4.65 -29.8 -4.35 -28.95 -3.8 -27.25 -1.7 -27.25 -0.6 -27.25 0.25 -27.7 L0.45 -27.8 Q0.75 -27.6 1.15 -27.6 1.9 -27.6 2.25 -28.75 2.4 -29.3 2.45 -29.9 L2.45 -29.95 Q2.6 -30.4 2.7 -30.85 2.7 -31.7 2.25 -32.0 M-70.35 -16.55 L-69.8 -18.7 Q-69.1 -21.5 -69.25 -23.35 -69.45 -26.0 -68.7 -26.8 -68.05 -27.45 -66.9 -26.7 -65.85 -26.05 -64.95 -24.7 -64.05 -23.4 -64.05 -22.5 -64.05 -20.15 -64.95 -18.65 L-65.6 -17.6 Q-65.9 -17.05 -65.9 -16.35 -65.9 -14.35 -65.25 -13.1 -64.85 -12.4 -64.8 -12.15 -64.6 -11.6 -64.6 -10.75 -64.6 -9.05 -67.05 -9.05 -69.15 -9.05 -70.1 -11.7 -70.55 -13.0 -70.65 -14.35 -70.65 -15.35 -70.35 -16.55 M-66.65 -10.45 Q-67.2 -10.55 -67.65 -10.9 -67.2 -10.55 -66.7 -10.45 L-66.65 -10.45 M-22.75 -29.7 Q-20.45 -30.7 -18.05 -30.8 -20.4 -30.8 -21.15 -31.45 L-21.7 -31.95 Q-22.0 -32.2 -22.6 -32.2 -24.4 -32.2 -25.65 -31.45 -26.8 -30.75 -26.8 -29.85 -26.8 -29.6 -26.05 -29.15 -25.3 -28.7 -24.7 -28.7 -23.95 -29.2 -22.75 -29.7 M-29.15 -16.55 L-29.15 -16.65 Q-29.15 -19.35 -30.75 -20.4 -32.1 -21.35 -34.2 -20.85 -36.15 -20.35 -37.65 -18.95 -39.25 -17.5 -39.25 -15.95 -39.2 -14.85 -38.45 -13.8 -37.05 -11.7 -33.8 -11.7 -32.75 -11.7 -31.55 -12.25 L-31.6 -12.25 Q-31.65 -12.35 -31.65 -12.65 -31.65 -13.2 -30.95 -14.35 -30.25 -15.55 -29.15 -16.55 M-28.35 -14.45 L-28.1 -14.6 -28.3 -14.55 -28.35 -14.45" fill="#ffffff" fill-opacity="0.5019608" fill-rule="evenodd" stroke="none"/>
  </g>
</svg>
