<?xml version="1.0" encoding="UTF-8" standalone="no"?>
<svg xmlns:ffdec="https://www.free-decompiler.com/flash" xmlns:xlink="http://www.w3.org/1999/xlink" ffdec:objectType="shape" height="29.95px" width="23.25px" xmlns="http://www.w3.org/2000/svg">
  <g transform="matrix(1.0, 0.0, 0.0, 1.0, 11.25, 16.0)">
    <path d="M11.75 -11.35 L12.0 -11.15 Q12.05 -11.0 11.85 -10.75 L11.7 -10.75 Q11.65 -10.8 11.55 -10.9 11.5 -11.05 11.55 -11.15 L11.6 -11.3 11.75 -11.35 M0.75 -12.2 L0.65 -12.15 0.9 -12.2 0.75 -12.2 M0.05 -12.2 L0.0 -12.2 0.0 -12.25 Q0.05 -12.35 0.2 -12.35 L0.55 -12.4 1.2 -12.25 Q1.1 -12.1 0.65 -12.0 0.35 -11.95 0.2 -12.0 0.1 -12.05 0.05 -12.1 L0.05 -12.2 M5.3 -15.85 Q5.35 -16.0 5.5 -16.0 L5.65 -15.95 5.95 -15.8 Q6.0 -15.7 5.95 -15.65 5.9 -15.55 5.8 -15.55 L5.55 -15.6 Q5.25 -15.7 5.3 -15.85 M4.85 -11.45 L4.95 -11.45 5.1 -11.4 5.05 -11.4 5.05 -11.3 Q5.0 -11.25 4.9 -11.2 L4.8 -11.2 Q4.8 -11.25 4.8 -11.3 L4.85 -11.45 M9.85 -8.6 L9.95 -8.8 10.05 -8.85 10.2 -8.7 10.2 -8.45 10.0 -8.5 9.85 -8.55 9.85 -8.6 M2.75 9.45 L2.85 9.45 3.0 9.55 2.95 9.6 2.85 9.65 2.75 9.65 2.75 9.45 M1.95 13.4 L2.05 13.4 2.2 13.5 2.15 13.6 2.0 13.65 1.9 13.5 2.0 13.4 1.95 13.4 M-5.35 -12.95 L-5.25 -13.1 -5.15 -13.15 -4.9 -13.1 -5.0 -12.85 Q-5.0 -12.8 -5.15 -12.75 L-5.15 -12.7 -5.25 -12.75 Q-5.4 -12.8 -5.35 -12.8 L-5.4 -12.85 -5.35 -12.95 M-1.45 -12.0 L-1.5 -11.9 -1.55 -11.75 -1.75 -11.75 Q-1.85 -11.8 -1.85 -11.85 L-1.9 -12.0 -1.75 -12.05 -1.65 -12.05 -1.55 -12.0 -1.45 -12.0 M-10.05 -3.7 Q-10.2 -3.75 -10.25 -3.9 -10.35 -4.0 -10.3 -4.15 -10.25 -4.3 -9.85 -4.35 L-9.5 -4.35 Q-9.25 -4.3 -9.25 -4.15 -9.25 -4.05 -9.45 -3.9 -9.6 -3.8 -9.75 -3.75 L-10.05 -3.7 M-1.6 -10.65 Q-1.75 -10.55 -2.45 -10.45 L-2.8 -10.3 Q-3.05 -10.15 -3.15 -10.1 -3.55 -9.9 -3.75 -10.2 L-3.8 -10.1 -3.9 -9.95 -3.9 -10.0 -3.8 -10.25 -3.9 -10.45 -3.8 -10.55 -3.6 -10.45 -3.2 -10.85 -2.8 -10.9 -2.35 -10.95 -1.95 -10.95 Q-1.5 -10.8 -1.6 -10.65 M-5.25 -8.5 Q-5.25 -8.35 -5.35 -8.2 -5.45 -8.05 -5.55 -7.95 -5.7 -7.85 -5.85 -7.9 L-6.0 -7.95 -5.9 -8.25 Q-5.85 -8.55 -5.65 -8.65 L-5.45 -8.7 Q-5.3 -8.65 -5.25 -8.5 M-8.6 -7.2 L-8.6 -7.4 -8.55 -7.4 -8.4 -7.35 Q-8.3 -7.35 -8.3 -7.25 L-8.35 -7.05 -8.5 -7.05 -8.65 -7.15 -8.6 -7.2 M-8.2 -6.7 Q-8.0 -6.6 -8.2 -6.45 -8.35 -6.3 -8.55 -6.35 L-8.7 -6.4 -8.7 -6.55 Q-8.65 -6.7 -8.4 -6.75 L-8.2 -6.7 M-5.85 -5.8 Q-5.8 -5.7 -5.8 -5.5 -5.8 -5.25 -5.85 -5.25 L-5.95 -5.25 Q-6.1 -5.3 -6.1 -5.65 L-6.05 -5.75 -5.95 -5.75 -5.85 -5.8 M-5.7 -5.9 L-5.9 -5.9 Q-5.7 -6.5 -5.4 -6.75 -5.15 -6.95 -4.9 -6.8 -4.65 -6.75 -4.8 -6.5 L-5.0 -6.3 -5.1 -6.05 Q-5.15 -5.95 -5.35 -5.95 L-5.7 -5.9 M-6.4 -4.5 Q-6.2 -4.45 -6.15 -4.1 -6.15 -3.8 -6.25 -3.45 -6.35 -3.05 -6.55 -2.85 -6.75 -2.55 -6.95 -2.65 -7.15 -2.7 -7.2 -2.95 -7.25 -3.25 -7.05 -3.85 -6.9 -4.3 -6.6 -4.5 L-6.4 -4.5 M-6.5 -4.1 L-6.5 -4.1 M-7.15 -1.65 L-7.1 -1.7 Q-7.05 -1.65 -7.1 -1.45 L-7.05 -1.45 -6.9 -1.4 -6.9 -1.35 Q-6.75 -1.35 -6.8 -1.15 -6.8 -1.0 -6.9 -0.8 L-7.15 -0.45 Q-7.3 -0.35 -7.4 -0.4 -7.5 -0.4 -7.5 -0.8 L-7.55 -0.95 -7.5 -1.1 -7.5 -1.05 -7.45 -1.2 -7.25 -1.6 -7.15 -1.65 M-7.7 0.5 L-7.6 0.75 Q-7.45 1.15 -7.5 1.35 L-7.6 1.4 -7.7 1.4 Q-7.9 1.3 -7.95 1.0 -8.0 0.7 -7.95 0.55 L-7.85 0.4 -7.8 0.3 -7.75 0.3 -7.7 0.35 -7.6 0.4 -7.55 0.45 -7.65 0.45 -7.7 0.5 M-7.5 2.7 L-7.35 2.5 -7.25 2.35 Q-7.0 2.5 -7.05 2.65 L-7.15 2.95 -7.3 2.95 -7.15 3.2 Q-7.0 3.45 -6.9 3.75 -6.7 4.35 -6.85 4.65 -6.85 4.9 -7.05 4.9 L-7.1 4.95 -7.2 4.95 Q-7.5 4.85 -7.6 4.35 -7.7 3.85 -7.6 3.1 L-7.4 2.95 -7.4 2.9 -7.45 2.9 -7.5 2.85 -7.5 2.7 M-7.45 3.2 L-7.45 3.45 -7.4 3.35 -7.45 3.2 M-6.9 8.35 Q-7.3 8.05 -7.45 7.7 L-7.2 7.65 -7.05 7.6 Q-6.8 7.7 -6.55 7.95 -6.35 8.1 -6.2 8.35 -6.05 8.6 -6.05 8.7 -6.05 8.8 -6.25 8.75 -6.6 8.6 -6.9 8.35 M-3.35 10.3 L-3.15 10.3 -2.95 10.6 -3.1 10.65 -3.2 10.65 -3.4 10.55 -3.4 10.35 -3.35 10.3 M-10.2 1.85 L-10.55 1.6 Q-10.7 1.35 -10.55 1.15 -10.1 1.5 -9.9 1.75 -9.55 2.05 -10.2 1.85 M-10.35 1.55 L-10.25 1.7 -10.05 1.7 Q-10.25 1.6 -10.35 1.55 M-9.8 2.7 L-9.55 2.85 -9.4 2.95 Q-9.25 3.1 -9.45 3.3 L-9.5 3.3 -9.7 3.25 -9.9 3.05 Q-10.05 2.95 -10.0 2.85 L-9.9 2.75 -9.8 2.7 M-10.15 4.0 Q-10.05 3.8 -9.85 3.75 L-9.65 3.75 Q-9.55 3.8 -9.5 3.85 L-9.45 3.85 Q-9.4 4.15 -9.5 4.25 -9.6 4.45 -9.95 4.3 -10.15 4.25 -10.15 4.2 L-10.15 4.0 M-10.7 5.3 Q-10.75 5.2 -10.7 5.05 L-10.55 4.9 -10.4 4.9 Q-10.35 5.0 -10.3 5.1 L-10.4 5.5 -10.45 5.5 -10.55 5.45 -10.7 5.3 M-11.1 5.85 Q-11.05 5.65 -10.9 5.65 L-10.8 5.7 Q-10.55 5.8 -10.4 6.2 -10.35 6.6 -10.5 6.95 L-10.65 6.95 Q-10.9 6.8 -11.05 6.35 -11.15 5.95 -11.1 5.85 M-0.95 13.85 L-0.9 13.75 -0.85 13.75 -0.75 13.8 -0.8 13.85 -0.8 13.95 -0.95 13.95 -0.95 13.85 M-4.5 13.3 L-4.65 13.25 -4.65 13.1 -4.45 13.0 -4.4 13.0 -4.35 13.1 Q-4.25 13.15 -4.25 13.25 L-4.5 13.3" fill="#59a5ff" fill-opacity="0.5019608" fill-rule="evenodd" stroke="none"/>
    <path d="M0.65 -12.1 L0.4 -12.1 0.3 -12.15 0.3 -12.25 Q0.35 -12.4 0.55 -12.4 L0.75 -12.35 0.9 -12.3 Q0.85 -12.15 0.65 -12.1 M-10.1 -4.1 L-10.1 -4.25 Q-10.05 -4.4 -9.85 -4.4 L-9.65 -4.35 -9.5 -4.3 Q-9.45 -4.1 -9.65 -4.0 L-9.95 -3.95 Q-10.1 -4.0 -10.1 -4.1 M-2.35 -10.95 L-2.2 -10.9 Q-1.8 -10.75 -2.45 -10.55 L-3.2 -10.4 Q-3.35 -10.45 -3.4 -10.55 L-3.4 -10.7 Q-3.3 -11.0 -2.75 -11.0 L-2.35 -10.95 M-5.75 -8.55 Q-5.6 -8.5 -5.65 -8.45 -5.65 -8.35 -5.75 -8.2 L-5.85 -8.25 -6.0 -8.3 -6.0 -8.35 -5.95 -8.45 -5.9 -8.6 -5.75 -8.55 M-7.15 -3.4 L-7.1 -4.0 Q-7.0 -4.1 -6.9 -4.1 L-6.7 -4.05 Q-6.65 -4.05 -6.6 -3.85 -6.55 -3.7 -6.6 -3.55 -6.65 -3.35 -6.75 -3.25 -6.85 -3.15 -7.0 -3.2 -7.2 -3.25 -7.15 -3.4 M-7.2 3.65 Q-7.1 3.85 -7.1 4.1 -7.1 4.4 -7.15 4.5 -7.25 4.65 -7.45 4.6 -7.6 4.55 -7.7 4.15 -7.75 3.75 -7.7 3.65 -7.65 3.45 -7.55 3.4 L-7.35 3.45 Q-7.25 3.45 -7.2 3.65 M-7.2 8.05 L-7.05 8.05 Q-6.9 8.1 -6.7 8.35 L-6.55 8.6 -6.8 8.6 Q-7.15 8.45 -7.2 8.1 L-7.2 8.05 M-10.95 6.65 L-11.15 6.45 Q-11.3 6.25 -11.2 6.1 L-11.1 6.0 -10.9 5.9 Q-10.7 6.15 -10.6 6.45 -10.45 6.8 -10.95 6.65" fill="#8cc1ff" fill-opacity="0.7529412" fill-rule="evenodd" stroke="none"/>
    <path d="M-2.55 -11.0 L-2.55 -10.85 -2.65 -10.65 -2.7 -10.65 -2.8 -10.7 Q-3.0 -10.8 -2.95 -10.95 L-2.9 -11.05 -2.65 -11.05 -2.55 -11.0 M-7.0 -3.85 L-6.85 -3.85 -6.7 -3.7 -6.65 -3.55 Q-6.7 -3.5 -6.75 -3.45 L-7.0 -3.45 -7.15 -3.6 -7.15 -3.75 Q-7.1 -3.85 -7.0 -3.85 M-7.3 4.25 L-7.5 4.25 Q-7.65 4.2 -7.65 4.1 L-7.65 3.95 Q-7.6 3.8 -7.45 3.8 L-7.35 3.8 Q-7.2 3.85 -7.2 3.95 -7.15 4.05 -7.15 4.1 L-7.3 4.25 M-11.05 6.45 L-11.15 6.35 -11.2 6.2 -11.0 6.15 -10.95 6.15 -10.85 6.2 Q-10.75 6.25 -10.8 6.35 L-10.95 6.4 -11.05 6.45" fill="#bfdcff" fill-opacity="0.7529412" fill-rule="evenodd" stroke="none"/>
    <path d="M-2.85 -10.95 L-2.85 -11.0 -2.65 -10.95 -2.7 -10.9 -2.75 -10.9 -2.85 -10.95 M-7.1 -3.9 L-6.95 -3.85 Q-6.8 -3.8 -6.75 -3.75 -6.7 -3.65 -6.7 -3.6 L-6.85 -3.45 -7.05 -3.5 Q-7.3 -3.55 -7.3 -3.8 L-7.15 -3.9 -7.1 -3.9 M-7.4 3.9 L-7.35 3.9 -7.25 3.95 -7.1 4.05 Q-7.0 4.15 -7.15 4.3 L-7.35 4.3 -7.5 4.2 -7.5 4.15 -7.55 4.0 -7.45 3.95 -7.4 3.9 M-11.15 6.1 L-11.05 6.15 -10.95 6.15 -11.0 6.2 -11.05 6.3 -11.2 6.2 -11.15 6.1" fill="#ffffff" fill-rule="evenodd" stroke="none"/>
  </g>
</svg>
