<?xml version="1.0" encoding="UTF-8" standalone="no"?>
<svg xmlns:ffdec="https://www.free-decompiler.com/flash" xmlns:xlink="http://www.w3.org/1999/xlink" ffdec:objectType="shape" height="24.9px" width="23.65px" xmlns="http://www.w3.org/2000/svg">
  <g transform="matrix(1.0, 0.0, 0.0, 1.0, 11.4, 16.15)">
    <path d="M0.65 -12.55 L0.5 -12.4 0.25 -12.3 0.2 -12.3 0.25 -12.35 0.35 -12.65 0.4 -12.65 0.5 -12.6 0.65 -12.55 M5.35 -16.1 L5.55 -16.15 5.6 -16.15 Q5.8 -16.1 5.8 -15.95 5.75 -15.8 5.5 -15.85 L5.35 -15.95 5.35 -16.1 M11.9 -11.1 L11.85 -11.2 11.85 -11.25 12.1 -11.3 12.25 -11.2 12.2 -11.05 12.05 -11.05 11.9 -11.1 M-10.05 -4.1 L-10.25 -4.2 -10.3 -4.25 -10.25 -4.4 Q-10.2 -4.5 -10.1 -4.5 L-10.0 -4.5 Q-9.7 -4.4 -9.7 -4.25 -9.7 -4.1 -10.05 -4.1 M-2.95 -11.05 L-2.75 -10.95 Q-2.5 -10.9 -2.5 -10.8 L-2.75 -10.6 -3.2 -10.4 -3.6 -10.2 -3.5 -10.55 -3.05 -11.0 -2.95 -11.05 M-4.55 -8.3 L-4.7 -8.3 -4.85 -8.4 -4.95 -8.6 -4.8 -8.75 -4.65 -8.65 Q-4.4 -8.6 -4.45 -8.4 -4.5 -8.35 -4.55 -8.3 M-5.65 -8.6 Q-5.65 -8.5 -5.7 -8.4 -5.8 -8.3 -6.0 -8.35 L-6.05 -8.45 -6.1 -8.6 -6.0 -8.7 -5.85 -8.7 -5.65 -8.6 M-5.6 -6.9 Q-5.55 -7.05 -5.4 -7.0 L-5.3 -7.0 Q-5.1 -6.9 -5.2 -6.7 -5.35 -6.45 -5.6 -6.5 -5.55 -6.55 -5.6 -6.7 L-5.6 -6.9 M-6.6 -3.65 Q-6.6 -3.45 -6.75 -3.4 L-7.15 -3.4 Q-7.3 -3.45 -7.35 -3.6 L-7.25 -3.9 -7.1 -4.2 -6.9 -4.15 Q-6.8 -4.1 -6.7 -3.95 -6.6 -3.8 -6.6 -3.65 M-7.35 -1.25 Q-7.2 -1.2 -7.2 -1.1 -7.2 -0.95 -7.55 -0.65 L-7.5 -0.9 -7.65 -1.05 -7.65 -1.15 -7.6 -1.3 -7.5 -1.3 -7.35 -1.25 M-8.05 1.25 L-8.0 1.25 -8.1 1.2 -8.25 1.05 -8.3 0.9 -8.0 0.85 Q-7.85 0.9 -7.85 1.05 -7.9 1.15 -8.05 1.25 M-7.35 3.2 Q-7.4 3.3 -7.55 3.35 L-7.65 3.05 -7.5 3.0 -7.35 3.05 -7.35 3.2 M-7.85 3.9 Q-7.75 3.9 -7.75 3.85 L-7.55 3.9 Q-7.45 3.95 -7.35 4.1 -7.25 4.3 -7.2 4.45 -7.2 4.65 -7.25 4.75 L-7.6 4.75 -7.8 4.5 Q-7.95 4.25 -7.9 4.0 L-7.85 3.9 M-6.75 8.45 Q-6.6 8.6 -6.8 8.75 L-6.85 8.75 -6.95 8.7 Q-7.2 8.65 -7.3 8.35 L-7.2 8.3 -7.0 8.35 Q-6.85 8.4 -6.75 8.45 M-10.3 3.0 L-10.4 3.0 -10.5 2.85 -10.45 2.8 -10.25 2.85 -10.3 3.0 M-10.05 2.95 L-10.1 3.0 -10.2 3.05 -10.25 2.95 -10.15 2.9 -10.05 2.95 M-10.25 4.1 L-10.35 3.95 -10.35 3.85 Q-10.35 3.75 -10.2 3.7 L-10.0 3.7 -9.85 3.85 Q-9.8 3.9 -9.85 4.0 L-10.0 4.15 -10.25 4.1 M-10.75 4.9 L-10.65 4.9 -10.55 5.05 Q-10.5 5.15 -10.6 5.25 L-10.65 5.25 -10.85 5.15 -10.9 5.1 -10.8 4.9 -10.75 4.9 M-11.35 6.5 L-11.4 6.3 -11.3 6.15 -11.1 6.05 Q-10.95 6.15 -10.85 6.35 -10.75 6.6 -10.95 6.7 L-11.0 6.7 -11.15 6.65 -11.35 6.5" fill="#59a5ff" fill-opacity="0.5019608" fill-rule="evenodd" stroke="none"/>
    <path d="M-3.05 -11.0 L-2.9 -10.95 Q-2.7 -10.85 -2.7 -10.75 -2.75 -10.6 -3.1 -10.6 L-3.15 -10.7 -3.2 -10.85 -3.1 -11.0 -3.05 -11.0 M-7.25 -4.0 L-7.1 -4.0 Q-6.95 -3.95 -6.95 -3.85 -6.95 -3.75 -7.0 -3.6 L-7.2 -3.6 -7.35 -3.7 -7.35 -3.85 -7.25 -4.0 M-8.0 4.35 L-8.05 4.15 Q-8.0 4.0 -7.85 4.0 L-7.7 4.05 -7.5 4.2 Q-7.45 4.25 -7.45 4.35 -7.5 4.45 -7.6 4.5 L-7.8 4.45 -8.0 4.35 M-11.1 6.35 L-11.15 6.4 -11.2 6.5 -11.3 6.5 -11.4 6.45 -11.35 6.25 -11.25 6.3 Q-11.1 6.3 -11.1 6.35" fill="#8cc1ff" fill-opacity="0.7529412" fill-rule="evenodd" stroke="none"/>
    <path d="M-7.2 -3.7 L-7.25 -3.85 -7.05 -3.85 -7.1 -3.75 -7.2 -3.7 M-8.05 4.25 L-7.9 4.1 -7.75 4.15 Q-7.6 4.2 -7.55 4.3 -7.5 4.45 -7.85 4.5 L-8.0 4.4 -8.05 4.35 -8.05 4.25" fill="#bfdcff" fill-opacity="0.7529412" fill-rule="evenodd" stroke="none"/>
    <path d="M-7.95 4.45 L-8.05 4.35 -8.1 4.2 Q-8.1 4.15 -8.0 4.15 L-7.85 4.1 -7.65 4.2 Q-7.6 4.35 -7.7 4.45 L-7.95 4.45" fill="#ffffff" fill-rule="evenodd" stroke="none"/>
  </g>
</svg>
