<?xml version="1.0" encoding="UTF-8" standalone="no"?>
<svg xmlns:ffdec="https://www.free-decompiler.com/flash" xmlns:xlink="http://www.w3.org/1999/xlink" ffdec:objectType="shape" height="11.25px" width="4.8px" xmlns="http://www.w3.org/2000/svg">
  <g transform="matrix(1.0, 0.0, 0.0, 1.0, 7.7, -1.2)">
    <path d="M-3.2 1.25 L-3.1 1.2 -3.05 1.2 Q-2.85 1.25 -2.95 1.3 L-3.2 1.35 -3.2 1.25 M-5.2 5.4 L-5.25 5.5 -5.35 5.5 -5.4 5.45 -5.45 5.45 -5.45 5.4 -5.4 5.35 -5.25 5.35 -5.2 5.4 M-7.6 11.15 L-7.55 11.2 -7.55 11.3 -7.65 11.3 -7.7 11.25 -7.7 11.2 -7.65 11.15 -7.6 11.15 M-5.75 10.15 L-5.8 10.1 -5.85 10.0 -5.75 9.95 -5.7 9.95 -5.65 10.0 Q-5.6 10.05 -5.65 10.1 L-5.75 10.15 M-5.25 12.35 L-5.25 12.45 -5.35 12.4 -5.3 12.35 -5.25 12.35" fill="#59a5ff" fill-opacity="0.5019608" fill-rule="evenodd" stroke="none"/>
  </g>
</svg>
