<?xml version="1.0" encoding="UTF-8" standalone="no"?>
<svg xmlns:ffdec="https://www.free-decompiler.com/flash" xmlns:xlink="http://www.w3.org/1999/xlink" ffdec:objectType="shape" height="21.1px" width="7.7px" xmlns="http://www.w3.org/2000/svg">
  <g transform="matrix(1.0, 0.0, 0.0, 1.0, 3.85, 21.1)">
    <path d="M-2.2 -11.85 Q-1.55 -15.5 -0.8 -19.05 L-0.7 -19.4 -0.5 -19.95 -0.3 -19.4 Q-0.1 -16.45 0.3 -13.1 0.45 -11.3 0.5 -9.4 L0.7 -3.2 0.35 -4.6 Q-0.15 -6.7 -0.5 -8.85 -0.45 -9.25 -0.4 -9.65 -0.25 -11.75 -0.15 -13.8 L-0.3 -14.0 Q-0.4 -14.05 -0.55 -14.1 -0.8 -14.05 -1.0 -13.8 -1.65 -12.9 -2.2 -11.85 M-0.15 -16.05 Q0.0 -16.75 -0.8 -16.85 -1.3 -16.8 -1.35 -16.25 -1.4 -15.6 -0.8 -15.4 -0.25 -15.55 -0.15 -16.05" fill="#c8d68b" fill-rule="evenodd" stroke="none"/>
    <path d="M2.55 -13.85 Q3.0 -12.3 3.35 -10.75 4.15 -6.8 3.65 -3.35 3.1 -5.9 1.55 -7.65 1.55 -6.15 1.35 -4.7 1.25 -3.05 0.95 -1.5 1.05 -0.75 1.1 0.0 L0.8 -0.7 0.7 -0.45 0.7 -0.85 Q-0.45 -3.45 -1.1 -6.6 -1.25 -7.4 -1.3 -8.1 -2.8 -5.95 -3.1 -3.3 -3.65 -5.65 -3.65 -8.1 L-3.85 -8.2 -3.6 -9.3 -3.6 -9.45 Q-3.8 -12.45 -2.75 -15.65 -2.1 -17.65 -1.2 -19.45 L-1.05 -19.7 -0.75 -20.45 -0.7 -20.55 -0.7 -20.6 -0.45 -21.05 -0.35 -20.85 -0.3 -20.8 -0.15 -21.1 -0.3 -20.75 Q0.75 -18.75 1.6 -16.6 2.15 -15.3 2.55 -13.85 M0.75 -15.75 Q1.3 -12.7 1.5 -9.55 L1.5 -9.2 Q2.1 -8.85 2.45 -8.15 2.7 -7.65 3.0 -7.15 L2.6 -9.4 2.4 -10.0 2.35 -10.1 Q1.65 -12.3 1.0 -14.8 L0.75 -15.75 M-0.5 -8.85 Q-0.15 -6.7 0.35 -4.6 L0.7 -3.2 0.5 -9.4 Q0.45 -11.3 0.3 -13.1 -0.1 -16.45 -0.3 -19.4 L-0.5 -19.95 -0.7 -19.4 -0.8 -19.05 Q-1.55 -15.5 -2.2 -11.85 L-2.25 -11.65 Q-2.6 -9.5 -3.0 -7.5 L-3.0 -7.35 Q-2.3 -9.0 -1.25 -9.5 -1.15 -10.3 -0.85 -11.1 -0.7 -10.0 -0.5 -8.85 M-3.05 -6.0 L-3.1 -5.9 -3.1 -5.6 Q-2.85 -5.95 -3.05 -6.0 M-3.1 -5.6 L-3.15 -5.65 -3.15 -5.55 -3.1 -5.6" fill="#31451b" fill-rule="evenodd" stroke="none"/>
    <path d="M0.75 -15.75 L1.0 -14.8 Q1.65 -12.3 2.35 -10.1 L2.4 -10.0 2.6 -9.4 3.0 -7.15 Q2.7 -7.65 2.45 -8.15 2.1 -8.85 1.5 -9.2 L1.5 -9.55 Q1.3 -12.7 0.75 -15.75 M-2.2 -11.85 Q-1.65 -12.9 -1.0 -13.8 -0.8 -14.05 -0.55 -14.1 -0.4 -14.05 -0.3 -14.0 L-0.15 -13.8 Q-0.25 -11.75 -0.4 -9.65 -0.45 -9.25 -0.5 -8.85 -0.7 -10.0 -0.85 -11.1 -1.15 -10.3 -1.25 -9.5 -2.3 -9.0 -3.0 -7.35 L-3.0 -7.5 Q-2.6 -9.5 -2.25 -11.65 L-2.2 -11.85 M-0.15 -16.05 Q-0.25 -15.55 -0.8 -15.4 -1.4 -15.6 -1.35 -16.25 -1.3 -16.8 -0.8 -16.85 0.0 -16.75 -0.15 -16.05" fill="#a2b072" fill-rule="evenodd" stroke="none"/>
  </g>
</svg>
