<?xml version="1.0" encoding="UTF-8" standalone="no"?>
<svg xmlns:ffdec="https://www.free-decompiler.com/flash" xmlns:xlink="http://www.w3.org/1999/xlink" ffdec:objectType="shape" height="39.65px" width="17.3px" xmlns="http://www.w3.org/2000/svg">
  <g transform="matrix(1.0, 0.0, 0.0, 1.0, 7.75, -6.65)">
    <path d="M4.05 25.15 L4.1 27.0 4.2 27.45 Q8.45 28.75 7.95 36.1 7.85 37.8 6.95 38.4 5.15 39.7 3.2 39.5 1.8 39.35 1.75 41.2 L2.1 41.55 2.55 41.5 2.6 41.45 2.95 41.4 3.35 41.65 3.35 41.95 3.5 42.2 3.85 42.25 3.75 42.75 3.85 43.5 Q4.0 44.7 3.55 45.7 L3.15 46.1 Q2.85 46.35 2.6 46.3 2.4 46.25 2.25 45.9 2.0 45.0 2.6 44.8 3.05 44.7 3.15 44.05 L2.75 44.45 Q2.4 44.8 1.9 45.05 0.6 45.6 -0.65 44.55 -1.9 43.45 -1.55 40.85 L-1.85 40.6 -2.2 41.1 -2.4 41.4 Q-2.6 41.65 -2.65 42.1 L-2.75 42.2 Q-3.2 42.25 -3.55 42.05 -4.25 41.8 -4.75 41.0 L-5.35 40.1 Q-5.75 39.5 -5.9 38.8 -5.85 37.3 -5.7 35.85 -5.5 34.25 -4.8 33.15 -4.3 32.35 -3.7 31.75 -3.75 30.15 -4.0 28.65 -4.6 27.75 -5.0 26.45 -5.3 25.4 -5.5 24.35 -6.05 23.3 -5.6 21.8 -4.7 18.95 -3.05 17.95 -1.05 16.75 0.6 18.55 -0.3 18.15 -1.3 18.35 L-1.05 18.5 Q0.45 19.25 1.9 19.0 6.35 18.2 4.25 24.65 L4.05 25.15 M-0.85 36.1 L-1.05 35.65 -1.3 35.35 -1.4 35.2 -1.55 34.85 Q-1.7 35.3 -2.05 35.25 -2.3 35.2 -2.5 35.7 L-2.7 36.45 Q-2.7 37.3 -2.25 37.55 -1.85 37.8 -1.4 37.55 -0.75 37.2 -0.85 36.1 M2.75 32.75 L2.9 32.7 Q3.6 31.1 2.7 29.6 1.5 27.55 -0.1 27.95 -1.95 28.35 -1.85 31.75 L-1.7 32.15 Q-1.1 33.45 -0.3 32.65 0.4 31.95 1.2 32.15 1.6 32.25 1.9 32.05 2.05 32.35 2.2 32.6 L2.4 32.75 2.55 32.8 2.65 32.8 2.75 32.75 M-0.8 43.1 Q-0.3 43.85 0.3 44.1 -0.1 43.75 -0.45 43.25 L-0.8 42.6 -0.8 43.1" fill="#608c38" fill-opacity="0.8" fill-rule="evenodd" stroke="none"/>
    <path d="M2.6 8.8 Q3.35 8.9 4.25 9.45 5.35 10.05 6.3 11.15 6.85 11.8 7.05 12.9 10.15 13.5 9.45 18.45 9.25 19.65 8.5 20.05 6.55 21.05 6.9 24.25 L8.05 25.5 Q9.05 26.45 8.65 28.2 8.45 28.15 8.3 28.25 8.2 28.35 8.05 28.35 L7.75 28.35 7.7 28.4 Q7.6 29.2 7.65 30.15 7.7 30.5 7.65 30.9 L7.2 31.3 6.8 31.75 Q6.75 31.85 6.7 31.85 6.35 30.3 6.5 28.85 L6.5 28.75 6.4 27.7 Q6.35 26.75 5.9 26.05 5.45 25.3 5.25 24.45 L5.25 23.55 Q5.25 23.0 5.5 22.7 5.6 22.55 5.75 22.5 6.5 20.5 7.0 18.4 7.4 16.7 6.8 15.1 5.55 11.7 3.4 9.85 L3.25 9.75 Q3.15 9.7 3.15 9.65 2.95 9.45 2.75 9.15 L2.45 9.0 Q2.25 8.95 2.1 8.85 L2.1 8.75 2.5 8.75 2.6 8.8 M6.3 25.85 Q6.05 25.2 5.7 24.55 5.8 24.9 6.0 25.25 L6.3 25.85 M-4.35 8.6 L-4.35 8.5 Q-4.4 7.05 -3.55 6.75 -2.8 6.5 -2.1 6.9 -1.7 7.15 -1.15 7.15 L-0.8 7.15 Q-1.15 7.55 -1.95 8.1 -4.2 9.75 -4.9 12.5 L-5.15 14.3 -5.2 14.55 Q-5.3 16.6 -4.7 19.1 -4.5 20.15 -4.15 21.05 -3.8 21.95 -3.3 22.7 -3.05 23.1 -2.95 23.6 L-2.95 23.75 -3.05 23.85 -3.15 23.85 -3.3 23.8 -3.45 23.7 -3.6 23.5 -3.65 23.45 -3.7 23.45 -3.7 23.55 Q-3.7 23.9 -3.85 24.1 L-4.0 24.25 Q-4.25 24.3 -4.35 24.0 L-4.35 23.95 -4.4 23.95 Q-4.7 23.9 -4.9 23.45 -5.15 22.9 -5.2 22.25 L-5.35 21.7 -5.35 21.6 -5.5 21.4 -5.6 21.4 Q-5.7 21.4 -5.8 21.5 -6.0 21.75 -6.15 22.05 -6.3 22.35 -6.5 22.35 L-7.15 22.35 -7.25 22.3 -7.4 22.15 -7.6 21.55 Q-7.65 21.3 -7.7 21.1 L-7.75 20.95 Q-7.8 19.75 -7.6 18.7 -7.4 17.5 -6.9 16.65 L-6.65 16.1 -6.55 15.2 Q-6.9 14.3 -6.7 13.2 -6.4 11.35 -5.3 10.3 -4.75 9.8 -4.25 9.15 L-4.15 9.0 -4.35 8.6 M-1.95 7.3 L-2.05 7.3 -2.05 7.35 -1.95 7.3" fill="#004726" fill-opacity="0.7529412" fill-rule="evenodd" stroke="none"/>
  </g>
</svg>
