<?xml version="1.0" encoding="UTF-8" standalone="no"?>
<svg xmlns:ffdec="https://www.free-decompiler.com/flash" xmlns:xlink="http://www.w3.org/1999/xlink" ffdec:objectType="shape" height="5.3px" width="6.6px" xmlns="http://www.w3.org/2000/svg">
  <g transform="matrix(1.0, 0.0, 0.0, 1.0, 6.9, 10.9)">
    <path d="M-1.05 -10.9 L-0.6 -10.75 Q-0.45 -10.7 -0.35 -10.65 L-0.3 -10.6 Q-0.3 -10.45 -0.55 -10.55 -0.85 -10.65 -1.15 -10.45 -1.25 -10.4 -1.35 -10.5 L-1.4 -10.5 -1.35 -10.6 -1.35 -10.65 -1.3 -10.75 -1.25 -10.8 Q-1.2 -10.85 -1.05 -10.85 L-1.05 -10.9 M-6.65 -5.65 Q-6.7 -5.55 -6.8 -5.6 -6.9 -5.6 -6.9 -5.7 L-6.85 -5.75 -6.75 -5.8 -6.65 -5.8 Q-6.55 -5.75 -6.65 -5.65" fill="#f4dfff" fill-rule="evenodd" stroke="none"/>
  </g>
</svg>
