<?xml version="1.0" encoding="UTF-8" standalone="no"?>
<svg xmlns:ffdec="https://www.free-decompiler.com/flash" xmlns:xlink="http://www.w3.org/1999/xlink" ffdec:objectType="shape" height="5.9px" width="5.35px" xmlns="http://www.w3.org/2000/svg">
  <g transform="matrix(1.0, 0.0, 0.0, 1.0, 2.75, 3.0)">
    <path d="M0.3 -1.35 Q1.2 -1.65 2.55 -2.65 1.6 -1.35 1.7 -0.35 1.8 0.1 2.1 0.55 L2.6 1.3 2.05 1.3 1.55 1.25 Q0.35 1.15 -0.3 1.4 -1.2 1.7 -2.35 2.9 -2.4 2.95 -2.35 2.8 L-2.25 2.5 Q-1.5 1.0 -1.75 -0.5 -1.95 -1.65 -2.75 -3.0 L-2.4 -2.55 Q-1.9 -2.0 -1.35 -1.55 -0.7 -1.05 0.3 -1.35" fill="#ffffff" fill-opacity="0.6" fill-rule="evenodd" stroke="none"/>
  </g>
</svg>
