<?xml version="1.0" encoding="UTF-8" standalone="no"?>
<svg xmlns:ffdec="https://www.free-decompiler.com/flash" xmlns:xlink="http://www.w3.org/1999/xlink" ffdec:objectType="shape" height="14.6px" width="30.3px" xmlns="http://www.w3.org/2000/svg">
  <g transform="matrix(1.0, 0.0, 0.0, 1.0, 22.8, 13.15)">
    <path d="M3.35 -10.95 Q3.55 -11.05 3.7 -11.05 L3.75 -11.0 Q5.85 -12.0 6.75 -10.6 7.3 -9.8 7.3 -8.3 7.3 -7.35 6.45 -5.65 6.05 -4.85 5.9 -4.5 5.65 -3.95 5.65 -3.7 5.65 -3.5 5.8 -2.75 6.0 -2.05 6.0 -1.75 6.0 -1.6 5.8 -1.15 5.6 -0.55 5.25 -0.05 4.3 1.45 3.0 1.45 L2.8 1.45 Q2.7 1.45 2.65 1.45 1.7 1.45 1.1 0.75 0.9 0.45 0.7 -0.05 0.6 -0.2 0.3 -0.9 -0.15 -2.05 -0.6 -2.55 -0.95 -2.85 -1.4 -3.05 -1.8 -3.05 -2.15 -3.25 L-2.55 -3.25 Q-3.0 -3.25 -3.25 -3.2 -3.35 -3.15 -3.55 -3.05 L-3.6 -3.05 Q-3.1 -3.4 -2.55 -3.5 L-2.75 -3.7 Q-3.2 -4.1 -3.8 -5.1 -4.5 -6.15 -4.8 -6.5 -5.2 -6.9 -5.55 -7.05 L-5.6 -7.05 -6.05 -7.1 Q-7.1 -7.1 -7.5 -6.2 -7.6 -5.9 -7.65 -5.5 L-7.7 -5.2 Q-7.7 -4.95 -7.65 -4.6 L-7.65 -4.3 Q-7.65 -4.2 -7.75 -4.1 -7.8 -4.05 -7.9 -4.05 -8.0 -3.95 -8.1 -3.85 L-8.15 -3.8 Q-8.3 -3.7 -8.4 -3.6 -8.5 -3.5 -8.55 -3.5 -8.7 -3.3 -8.85 -3.3 L-9.0 -3.35 -9.05 -3.4 -9.1 -3.4 Q-9.1 -3.45 -9.1 -3.55 -9.1 -3.6 -9.0 -3.7 -8.95 -3.95 -8.75 -4.15 L-8.6 -4.3 Q-8.5 -4.45 -8.5 -4.55 L-8.5 -4.6 -8.8 -4.95 -9.15 -5.4 Q-10.0 -6.15 -11.0 -6.15 -12.15 -6.15 -12.75 -5.35 -13.0 -5.05 -13.1 -4.75 -13.2 -4.5 -13.2 -4.35 -13.2 -3.95 -12.35 -3.4 -12.3 -3.45 -12.25 -3.5 -12.05 -3.6 -11.9 -3.55 -11.7 -3.5 -11.6 -3.35 -11.5 -3.25 -11.5 -3.1 L-11.4 -3.15 -11.35 -3.1 Q-11.3 -3.1 -11.3 -3.0 -11.3 -2.95 -11.4 -2.85 -11.45 -2.85 -11.5 -2.8 -11.55 -2.75 -11.65 -2.7 -12.0 -2.5 -12.5 -2.5 -13.05 -2.5 -13.65 -2.8 -14.25 -3.05 -14.25 -3.25 L-14.25 -3.3 Q-14.4 -3.5 -14.5 -3.9 -14.6 -4.3 -14.55 -4.7 -14.55 -6.2 -13.65 -7.15 -12.9 -7.95 -11.7 -8.15 -10.55 -8.3 -9.7 -7.75 -9.55 -7.65 -9.45 -7.55 L-9.45 -7.8 Q-9.45 -8.5 -9.25 -9.0 -8.85 -10.1 -7.75 -10.1 -7.25 -10.1 -6.85 -9.9 -6.65 -9.75 -6.35 -9.45 -6.05 -9.15 -5.9 -9.1 -5.8 -9.05 -5.7 -9.05 L-5.7 -9.35 -5.55 -9.25 Q-5.35 -9.1 -5.2 -9.0 L-5.1 -9.65 Q-5.05 -10.15 -4.95 -10.45 -4.75 -11.35 -4.1 -12.0 -3.5 -12.5 -2.55 -12.5 -1.8 -12.45 -0.65 -12.0 0.65 -11.5 1.3 -11.25 2.4 -10.9 3.05 -10.9 3.1 -10.9 3.35 -10.95 M1.6 -1.05 Q1.6 -0.8 1.7 -0.5 1.8 -0.2 2.1 -0.05 2.3 0.3 2.85 0.3 3.4 0.3 3.8 -0.45 3.9 -0.55 4.0 -0.7 4.15 -0.95 4.2 -1.2 4.25 -1.4 4.25 -1.5 4.25 -2.15 3.85 -2.45 3.5 -2.7 2.95 -2.6 2.4 -2.5 2.0 -2.1 1.6 -1.65 1.6 -1.05 M2.55 -5.15 Q2.45 -5.1 2.4 -5.05 L2.3 -5.05 2.55 -5.15 M0.85 -4.95 L0.8 -5.0 0.85 -5.1 0.85 -4.95 M3.9 -6.35 L3.9 -6.4 Q3.55 -7.25 2.75 -7.15 2.1 -7.05 1.25 -6.35 0.6 -5.8 0.0 -5.05 L-0.25 -4.75 -0.4 -4.6 Q-0.6 -4.5 -0.7 -4.3 -0.75 -4.2 -0.75 -4.1 -0.75 -3.9 -0.65 -3.8 -0.5 -3.75 0.0 -3.7 L-0.25 -3.75 Q-0.3 -3.8 -0.3 -3.85 -0.3 -4.05 -0.1 -4.2 0.05 -4.25 0.2 -4.35 L0.35 -4.35 1.1 -4.45 Q1.2 -4.45 1.3 -4.45 L1.4 -4.5 1.75 -4.55 2.4 -4.55 Q2.8 -4.55 3.2 -4.85 3.7 -5.1 3.75 -5.6 L3.85 -5.7 Q4.0 -5.85 4.0 -6.1 4.0 -6.25 3.9 -6.35 M0.25 -8.8 Q0.4 -9.0 0.4 -9.35 0.4 -9.85 -0.05 -10.25 -0.5 -10.6 -1.05 -10.7 -1.65 -10.8 -2.05 -10.55 -2.5 -10.3 -2.5 -9.7 -2.5 -9.35 -2.25 -9.0 -1.85 -8.4 -0.8 -8.4 0.0 -8.4 0.25 -8.8 M-21.45 -7.3 Q-21.3 -6.85 -21.3 -6.8 -21.3 -6.7 -21.35 -6.3 -21.4 -5.9 -21.4 -5.8 -21.4 -5.55 -21.35 -5.4 -21.3 -5.35 -21.2 -5.25 -21.1 -5.15 -21.05 -5.05 -21.0 -4.9 -21.0 -4.65 -21.0 -4.3 -21.05 -4.15 -21.2 -3.8 -21.75 -3.8 -22.3 -3.8 -22.6 -5.0 -22.75 -5.65 -22.8 -6.3 -22.8 -6.75 -22.45 -7.25 -22.05 -7.75 -21.65 -7.8 -21.6 -7.75 -21.45 -7.3 M-7.65 -8.5 Q-7.65 -8.65 -7.75 -8.75 -7.9 -8.8 -8.05 -8.75 -8.25 -8.75 -8.35 -8.6 -8.5 -8.45 -8.5 -8.3 -8.5 -8.15 -8.45 -8.1 -8.2 -7.95 -8.05 -7.8 -8.0 -7.75 -8.0 -7.85 -8.0 -7.9 -7.85 -8.1 -7.65 -8.3 -7.65 -8.5 M-10.35 -3.25 Q-10.25 -3.35 -10.15 -3.35 -9.8 -3.5 -9.65 -3.2 -9.7 -3.15 -9.85 -3.0 -10.0 -2.85 -10.1 -2.85 -10.45 -2.85 -10.45 -3.1 -10.45 -3.15 -10.35 -3.25" fill="#ffaa00" fill-opacity="0.2509804" fill-rule="evenodd" stroke="none"/>
    <path d="M1.3 -9.55 Q1.3 -9.95 1.15 -9.9 1.05 -10.15 0.85 -10.3 0.55 -10.45 0.15 -10.35 -0.25 -10.3 -0.5 -10.0 L-0.55 -9.95 -0.6 -9.95 Q-0.65 -9.95 -0.65 -9.8 -0.8 -9.55 -0.8 -9.2 -0.8 -9.0 -0.7 -8.8 L-0.7 -8.75 Q-0.65 -8.45 -0.5 -8.15 -0.25 -7.65 0.2 -7.5 0.25 -7.5 0.3 -7.5 L0.5 -7.45 Q0.95 -7.45 1.1 -7.7 1.2 -7.8 1.2 -8.0 1.2 -8.15 1.1 -8.3 1.0 -8.4 1.0 -8.6 1.0 -8.7 1.15 -9.1 1.3 -9.5 1.3 -9.55 M4.75 -10.4 Q5.0 -9.85 5.9 -8.45 6.65 -7.35 7.05 -6.6 7.15 -6.4 7.25 -6.2 7.5 -5.7 7.5 -5.25 7.5 -4.7 7.25 -4.35 7.1 -4.2 6.65 -3.85 6.2 -3.55 6.0 -3.2 5.75 -2.7 5.7 -1.9 5.6 1.15 3.25 1.15 2.2 1.15 0.95 -0.85 0.55 -1.5 0.2 -2.25 L0.05 -2.55 Q-0.05 -2.6 -0.15 -2.75 -0.2 -2.9 -0.2 -3.15 -0.2 -3.2 -0.05 -3.55 0.1 -3.9 0.1 -4.0 0.1 -4.2 -0.05 -4.45 -0.2 -4.7 -0.55 -4.9 -1.5 -5.45 -3.1 -5.4 -3.3 -5.4 -3.85 -5.65 L-5.0 -6.15 Q-6.65 -6.85 -7.1 -6.85 L-7.7 -6.8 -7.85 -6.8 Q-8.4 -6.7 -8.7 -6.55 -9.5 -6.2 -9.5 -5.45 -9.5 -5.25 -9.3 -4.85 L-9.1 -4.45 Q-9.1 -4.35 -9.15 -4.3 -9.15 -4.25 -9.25 -4.25 L-9.45 -4.3 Q-9.5 -4.25 -9.55 -4.25 -9.95 -4.25 -10.35 -4.4 -11.25 -4.6 -11.75 -5.6 -11.95 -5.9 -12.1 -6.2 -12.3 -6.6 -12.3 -6.8 -12.3 -7.0 -12.25 -7.3 -12.15 -7.75 -12.0 -8.0 L-11.9 -8.1 Q-11.95 -8.2 -11.9 -8.25 -11.9 -8.35 -11.8 -8.4 -11.75 -8.45 -11.6 -8.5 -11.4 -8.65 -11.15 -8.5 -10.85 -8.45 -10.65 -8.3 L-10.45 -8.15 Q-10.35 -8.1 -10.2 -8.1 -9.7 -8.1 -9.5 -8.4 -9.45 -8.6 -9.45 -8.75 -9.45 -8.9 -9.5 -9.05 -9.6 -9.15 -9.7 -9.35 -9.75 -9.55 -9.75 -9.75 -9.75 -10.35 -9.0 -10.65 -7.95 -11.1 -5.2 -11.1 -3.65 -11.1 -2.75 -11.7 -2.75 -11.95 -2.55 -12.25 -2.35 -12.6 -1.95 -12.85 -1.2 -13.3 -0.1 -13.05 0.2 -13.1 0.55 -13.05 1.35 -12.95 2.35 -12.35 3.15 -11.9 3.9 -11.25 4.55 -10.65 4.75 -10.4 M3.15 -0.95 Q2.85 -1.0 2.65 -0.9 2.45 -0.8 2.45 -0.5 2.45 -0.3 2.6 -0.1 2.85 0.2 3.4 0.2 3.45 0.2 3.65 0.05 3.85 -0.1 3.85 -0.2 3.85 -0.5 3.65 -0.7 3.45 -0.9 3.15 -0.95 M3.9 -5.45 Q3.9 -5.8 3.6 -6.1 3.35 -6.35 2.95 -6.45 2.55 -6.5 2.3 -6.4 2.1 -6.35 2.05 -6.25 1.9 -6.15 1.75 -5.95 L1.7 -5.75 1.65 -5.75 1.6 -5.7 Q1.5 -5.7 1.5 -5.6 1.5 -5.55 1.45 -5.45 1.45 -5.3 1.45 -5.2 1.45 -4.85 1.5 -4.55 L1.55 -4.3 Q1.7 -3.9 1.9 -3.65 2.25 -2.9 2.9 -2.9 3.2 -2.9 3.25 -3.0 3.3 -3.05 3.3 -3.15 3.3 -3.25 3.25 -3.5 L3.2 -3.65 Q3.3 -3.75 3.3 -3.9 3.45 -4.35 3.45 -4.6 3.45 -5.15 3.2 -5.4 3.15 -5.45 3.1 -5.5 L3.1 -5.55 Q3.15 -5.65 3.15 -5.75 3.15 -6.0 2.95 -6.1 2.9 -6.1 2.85 -6.15 3.15 -6.1 3.45 -5.65 3.7 -5.2 3.75 -4.9 L3.8 -4.9 3.85 -5.2 Q3.9 -5.35 3.9 -5.45 M-17.45 -6.85 Q-17.45 -6.35 -17.7 -5.75 -17.9 -5.3 -17.9 -5.2 -17.9 -5.15 -17.55 -4.15 L-17.2 -3.1 Q-17.2 -2.85 -17.3 -2.7 -17.55 -2.4 -18.1 -2.4 -19.05 -2.4 -19.45 -3.55 -19.6 -4.15 -19.6 -4.8 -19.6 -6.15 -19.25 -7.0 -19.0 -7.7 -18.55 -7.9 -18.1 -8.05 -17.8 -7.75 -17.45 -7.45 -17.45 -6.85 M-5.7 -9.85 Q-6.2 -10.0 -6.5 -9.9 -6.85 -9.75 -6.85 -9.35 -6.8 -9.1 -6.5 -8.85 -6.0 -8.4 -4.95 -8.4 -4.7 -8.4 -4.65 -8.6 -4.6 -8.75 -4.6 -8.9 -4.6 -9.15 -4.95 -9.45 -5.25 -9.7 -5.7 -9.85 M-8.8 -7.05 L-8.6 -7.1 Q-8.65 -7.1 -8.7 -7.1 L-8.8 -7.05" fill="#ffe700" fill-opacity="0.5019608" fill-rule="evenodd" stroke="none"/>
  </g>
</svg>
