<?xml version="1.0" encoding="UTF-8" standalone="no"?>
<svg xmlns:ffdec="https://www.free-decompiler.com/flash" xmlns:xlink="http://www.w3.org/1999/xlink" ffdec:objectType="shape" height="3.8px" width="2.7px" xmlns="http://www.w3.org/2000/svg">
  <g transform="matrix(1.0, 0.0, 0.0, 1.0, 1.4, 4.6)">
    <path d="M0.9 -2.65 L-0.05 -2.6 -1.0 -2.65 Q-1.4 -2.65 -1.4 -2.7 -1.4 -2.75 -1.0 -2.8 L-0.05 -2.85 0.9 -2.8 Q1.3 -2.75 1.3 -2.7 1.3 -2.65 0.9 -2.65" fill="#ffffff" fill-rule="evenodd" stroke="none"/>
    <path d="M0.95 -1.85 Q1.35 -1.4 1.3 -1.4 1.25 -1.35 0.8 -1.7 0.4 -2.05 -0.15 -2.6 -0.7 -3.15 -1.05 -3.55 -1.45 -4.0 -1.4 -4.05 -1.35 -4.1 -0.9 -3.75 L0.05 -2.8 0.95 -1.85" fill="#ffffff" fill-rule="evenodd" stroke="none"/>
    <path d="M0.05 -2.6 L-0.85 -1.8 Q-1.2 -1.5 -1.25 -1.5 -1.3 -1.55 -0.95 -1.95 L-0.15 -2.8 0.75 -3.65 Q1.1 -3.95 1.15 -3.9 1.2 -3.9 0.85 -3.5 L0.05 -2.6" fill="#ffffff" fill-rule="evenodd" stroke="none"/>
    <path d="M0.05 -1.4 Q0.0 -0.8 -0.05 -0.8 -0.1 -0.8 -0.15 -1.4 L-0.15 -4.05 Q-0.1 -4.6 -0.05 -4.6 0.0 -4.6 0.05 -4.05 L0.05 -1.4" fill="#ffffff" fill-rule="evenodd" stroke="none"/>
  </g>
</svg>
