<?xml version="1.0" encoding="UTF-8" standalone="no"?>
<svg xmlns:ffdec="https://www.free-decompiler.com/flash" xmlns:xlink="http://www.w3.org/1999/xlink" ffdec:objectType="shape" height="59.25px" width="4.55px" xmlns="http://www.w3.org/2000/svg">
  <g transform="matrix(1.0, 0.0, 0.0, 1.0, 3.45, 57.3)">
    <path d="M0.4 -36.25 Q0.55 -35.15 0.6 -34.1 0.75 -31.6 0.75 -30.75 0.8 -29.4 0.8 -27.65 0.8 -27.15 0.8 -26.65 0.75 -25.75 0.7 -25.5 L0.7 -25.95 Q0.7 -26.0 0.7 -26.2 L0.6 -26.7 Q0.5 -27.4 0.2 -27.4 L0.2 -27.35 Q0.15 -27.35 0.15 -27.3 -0.15 -26.9 -0.25 -25.45 -0.35 -24.6 -0.35 -23.2 -0.35 -22.45 -0.3 -21.8 L-0.2 -20.65 Q-0.05 -19.05 -0.05 -16.8 L-0.05 -16.6 Q0.0 -16.4 0.05 -16.2 0.15 -16.0 0.4 -15.55 0.65 -15.15 0.75 -14.85 0.9 -14.35 0.95 -13.65 1.05 -11.4 1.1 -10.9 1.1 -10.45 1.1 -8.7 1.1 -7.4 1.05 -5.8 1.0 -3.9 0.95 -3.15 0.85 -2.1 0.55 -0.3 0.3 1.3 0.25 1.5 0.15 1.95 0.05 1.95 -0.45 1.95 -0.7 -0.9 -0.75 -1.8 -0.8 -2.95 -0.85 -3.6 -0.85 -4.0 -0.85 -5.15 -0.8 -6.65 -0.75 -7.5 -0.7 -9.5 -0.6 -11.4 -0.55 -12.45 -0.55 -14.15 -0.55 -15.5 L-0.55 -15.95 Q-0.6 -16.8 -0.7 -17.55 -0.8 -18.15 -0.95 -18.7 L-1.1 -19.35 Q-1.3 -20.0 -1.4 -22.5 -1.5 -24.55 -1.5 -26.0 -1.5 -28.75 -1.5 -29.2 -1.5 -31.1 -1.4 -32.55 -1.25 -36.3 -0.65 -38.6 -0.5 -39.2 -0.3 -39.05 -0.1 -38.85 0.1 -38.1 0.3 -37.35 0.4 -36.25 M-2.3 -57.2 L-2.25 -57.15 Q-2.05 -56.8 -1.8 -55.2 L-1.75 -54.75 -1.75 -54.7 Q-1.75 -54.6 -1.75 -54.4 -2.45 -53.0 -2.8 -49.65 -3.05 -47.0 -3.05 -43.8 L-3.05 -41.85 Q-3.05 -41.25 -3.0 -40.2 -3.05 -40.6 -3.1 -41.3 -3.15 -41.6 -3.2 -42.15 -3.3 -42.75 -3.35 -44.1 -3.45 -45.55 -3.45 -46.75 L-3.45 -48.7 Q-3.4 -50.05 -3.4 -51.05 L-3.4 -51.15 Q-3.35 -53.4 -3.15 -54.3 -3.1 -55.0 -3.0 -55.2 -2.9 -55.85 -2.8 -56.3 -2.6 -57.55 -2.3 -57.2 M-1.65 -37.0 L-1.65 -36.6 Q-1.7 -36.6 -1.7 -36.85 -1.75 -37.1 -1.8 -37.1 -1.9 -37.1 -2.0 -36.6 L-2.05 -36.3 -2.05 -36.05 Q-2.05 -35.85 -2.05 -35.9 L-2.1 -35.95 -2.1 -36.05 Q-2.1 -36.2 -2.1 -36.4 L-2.1 -36.8 Q-2.1 -37.25 -2.05 -37.8 -2.0 -38.35 -1.95 -38.6 -1.85 -38.9 -1.8 -38.6 -1.7 -38.4 -1.7 -37.7 -1.65 -37.55 -1.65 -37.0 M-3.3 -50.95 Q-3.35 -50.2 -3.35 -49.4 L-3.35 -49.65 Q-3.35 -50.3 -3.3 -50.95" fill="#ffffff" fill-rule="evenodd" stroke="none"/>
  </g>
</svg>
