<?xml version="1.0" encoding="UTF-8" standalone="no"?>
<svg xmlns:ffdec="https://www.free-decompiler.com/flash" xmlns:xlink="http://www.w3.org/1999/xlink" ffdec:objectType="shape" height="5.0px" width="3.5px" xmlns="http://www.w3.org/2000/svg">
  <g transform="matrix(1.0, 0.0, 0.0, 1.0, 1.8, 5.2)">
    <path d="M1.7 -2.7 Q1.7 -2.65 1.2 -2.6 L-0.05 -2.55 -1.3 -2.6 Q-1.8 -2.65 -1.8 -2.7 -1.8 -2.8 -1.3 -2.8 L-0.05 -2.85 1.2 -2.8 Q1.7 -2.8 1.7 -2.7" fill="#ffffff" fill-rule="evenodd" stroke="none"/>
    <path d="M0.6 -1.9 Q0.3 -2.2 -0.15 -2.6 L-0.85 -3.35 Q-1.1 -3.7 -1.1 -3.75 -1.05 -3.75 -0.7 -3.5 L0.05 -2.8 0.75 -2.05 1.0 -1.7 Q0.95 -1.65 0.6 -1.9" fill="#ffffff" fill-rule="evenodd" stroke="none"/>
    <path d="M0.65 -3.3 L-0.65 -2.0 Q-0.95 -1.75 -1.0 -1.8 L-0.75 -2.1 -0.15 -2.8 0.55 -3.4 0.85 -3.65 Q0.9 -3.6 0.65 -3.3" fill="#ffffff" fill-rule="evenodd" stroke="none"/>
    <path d="M0.1 -2.7 Q0.1 -1.7 0.05 -0.95 0.0 -0.2 -0.05 -0.2 -0.1 -0.2 -0.15 -0.95 L-0.2 -2.7 -0.15 -4.5 Q-0.1 -5.2 -0.05 -5.2 0.0 -5.2 0.05 -4.5 0.1 -3.75 0.1 -2.7" fill="#ffffff" fill-rule="evenodd" stroke="none"/>
  </g>
</svg>
