<?xml version="1.0" encoding="UTF-8" standalone="no"?>
<svg xmlns:ffdec="https://www.free-decompiler.com/flash" xmlns:xlink="http://www.w3.org/1999/xlink" ffdec:objectType="shape" height="4.25px" width="3.0px" xmlns="http://www.w3.org/2000/svg">
  <g transform="matrix(1.0, 0.0, 0.0, 1.0, 1.55, 4.85)">
    <path d="M1.45 -2.7 Q1.45 -2.65 1.0 -2.65 L-0.05 -2.6 -1.1 -2.65 Q-1.55 -2.65 -1.55 -2.7 L-1.1 -2.8 -0.05 -2.85 1.0 -2.8 Q1.45 -2.75 1.45 -2.7" fill="#ffffff" fill-rule="evenodd" stroke="none"/>
    <path d="M0.75 -1.8 Q0.35 -2.1 -0.15 -2.6 L-1.0 -3.5 Q-1.3 -3.9 -1.25 -3.95 L-0.85 -3.65 0.05 -2.8 0.9 -1.9 Q1.2 -1.55 1.15 -1.5 1.1 -1.45 0.75 -1.8" fill="#ffffff" fill-rule="evenodd" stroke="none"/>
    <path d="M0.8 -3.45 Q0.5 -3.1 0.05 -2.65 L-0.75 -1.9 Q-1.1 -1.6 -1.15 -1.65 -1.2 -1.65 -0.9 -2.0 L-0.15 -2.8 0.65 -3.55 Q1.0 -3.85 1.05 -3.8 1.1 -3.8 0.8 -3.45" fill="#ffffff" fill-rule="evenodd" stroke="none"/>
    <path d="M0.05 -2.7 L0.05 -1.2 Q0.0 -0.6 -0.05 -0.6 -0.1 -0.6 -0.15 -1.2 L-0.15 -4.2 Q-0.1 -4.85 -0.05 -4.85 0.0 -4.85 0.05 -4.2 L0.05 -2.7" fill="#ffffff" fill-rule="evenodd" stroke="none"/>
  </g>
</svg>
