<?xml version="1.0" encoding="UTF-8" standalone="no"?>
<svg xmlns:ffdec="https://www.free-decompiler.com/flash" xmlns:xlink="http://www.w3.org/1999/xlink" ffdec:objectType="shape" height="3.65px" width="2.9px" xmlns="http://www.w3.org/2000/svg">
  <g transform="matrix(1.0, 0.0, 0.0, 1.0, 1.5, 4.55)">
    <path d="M1.2 -2.7 L0.85 -2.65 -0.05 -2.6 -0.95 -2.65 -1.35 -2.7 -0.95 -2.8 -0.05 -2.85 0.85 -2.8 Q1.2 -2.75 1.2 -2.7" fill="#ffffff" fill-rule="evenodd" stroke="none"/>
    <path d="M1.4 -1.25 Q1.35 -1.2 0.9 -1.6 0.4 -2.0 -0.15 -2.6 L-1.15 -3.65 Q-1.55 -4.1 -1.5 -4.15 -1.45 -4.2 -1.0 -3.8 L0.05 -2.8 1.05 -1.75 Q1.45 -1.3 1.4 -1.25" fill="#ffffff" fill-rule="evenodd" stroke="none"/>
    <path d="M1.25 -4.0 Q1.3 -3.95 0.95 -3.55 0.6 -3.15 0.05 -2.6 -0.45 -2.1 -0.9 -1.75 -1.3 -1.4 -1.35 -1.45 -1.4 -1.45 -1.05 -1.9 L-0.15 -2.8 0.8 -3.7 Q1.2 -4.05 1.25 -4.0" fill="#ffffff" fill-rule="evenodd" stroke="none"/>
    <path d="M0.05 -2.7 L0.0 -1.45 Q0.0 -0.9 -0.05 -0.9 -0.1 -0.9 -0.15 -1.45 L-0.15 -4.0 Q-0.1 -4.55 -0.05 -4.55 0.0 -4.55 0.0 -4.0 L0.05 -2.7" fill="#ffffff" fill-rule="evenodd" stroke="none"/>
  </g>
</svg>
