<?xml version="1.0" encoding="UTF-8" standalone="no"?>
<svg xmlns:ffdec="https://www.free-decompiler.com/flash" xmlns:xlink="http://www.w3.org/1999/xlink" ffdec:objectType="shape" height="62.3px" width="4.9px" xmlns="http://www.w3.org/2000/svg">
  <g transform="matrix(1.0, 0.0, 0.0, 1.0, 3.85, 60.55)">
    <path d="M0.55 -21.9 Q0.8 -22.0 0.9 -20.8 0.95 -20.3 1.0 -19.65 1.0 -19.15 1.0 -18.75 L1.0 -18.3 Q1.05 -17.7 1.05 -17.0 1.05 -16.4 1.0 -15.4 L1.0 -14.45 Q1.0 -14.1 1.05 -12.9 1.05 -11.7 1.05 -10.65 1.05 -5.1 0.75 -1.65 0.6 -0.05 0.4 0.8 0.2 1.65 -0.05 1.65 L-0.1 1.75 Q-0.4 1.75 -0.5 0.45 -0.55 0.15 -0.55 -0.2 -0.6 -0.85 -0.65 -1.95 -0.65 -2.8 -0.65 -3.85 L-0.7 -4.75 Q-0.7 -8.45 -0.65 -11.05 -0.6 -13.7 -0.45 -15.7 -0.5 -16.55 -0.5 -17.85 L-0.5 -19.3 Q-0.55 -20.15 -0.55 -20.75 -0.55 -21.05 -0.6 -21.75 -0.65 -22.6 -0.7 -23.35 -0.8 -24.35 -0.85 -24.9 -0.95 -25.15 -1.05 -25.15 L-1.15 -25.1 Q-1.3 -24.6 -1.45 -24.6 L-1.5 -24.55 -1.65 -24.65 Q-2.0 -25.0 -2.15 -26.8 -2.15 -27.25 -2.2 -27.65 L-2.2 -28.0 -2.25 -28.35 -2.25 -28.7 Q-2.3 -29.85 -2.35 -31.25 L-2.35 -32.7 Q-2.35 -36.5 -2.15 -39.25 -1.8 -43.55 -1.0 -44.9 -0.5 -44.55 -0.25 -43.45 -0.05 -42.45 -0.05 -41.0 L-0.1 -40.8 -0.05 -40.7 -0.05 -40.6 -0.15 -40.75 -0.2 -40.9 Q-0.8 -40.9 -1.1 -36.75 -1.2 -35.35 -1.25 -33.75 -1.25 -32.65 -1.25 -32.1 -1.25 -30.1 -1.1 -29.4 -1.05 -29.15 -0.95 -28.95 L-0.75 -28.7 Q-0.55 -28.3 -0.4 -27.25 -0.25 -25.8 -0.25 -22.45 -0.25 -21.85 -0.3 -20.55 L-0.3 -20.45 Q-0.3 -19.2 -0.3 -18.7 L-0.3 -17.5 Q-0.25 -18.1 -0.2 -18.75 -0.15 -19.45 -0.05 -20.05 0.15 -21.45 0.4 -21.8 L0.55 -21.9 M-3.4 -60.25 Q-3.2 -60.75 -3.05 -60.35 -2.9 -59.95 -2.9 -58.7 -2.9 -58.55 -2.9 -58.5 L-2.9 -58.4 -2.95 -58.35 -3.0 -58.5 -3.0 -58.6 Q-3.3 -58.6 -3.5 -55.8 -3.6 -54.75 -3.65 -53.5 L-3.65 -52.25 Q-3.7 -51.95 -3.7 -51.65 L-3.7 -51.55 Q-3.75 -51.65 -3.75 -52.2 -3.75 -52.35 -3.75 -53.0 L-3.75 -53.1 Q-3.8 -53.4 -3.8 -53.75 -3.85 -54.6 -3.85 -55.5 -3.85 -57.2 -3.7 -58.55 -3.6 -59.7 -3.4 -60.25 M-2.95 -58.6 L-2.95 -58.55 -2.9 -58.5 -2.95 -58.6" fill="#ffffff" fill-rule="evenodd" stroke="none"/>
  </g>
</svg>
