<?xml version="1.0" encoding="UTF-8" standalone="no"?>
<svg xmlns:ffdec="https://www.free-decompiler.com/flash" xmlns:xlink="http://www.w3.org/1999/xlink" ffdec:objectType="shape" height="69.25px" width="3.15px" xmlns="http://www.w3.org/2000/svg">
  <g transform="matrix(1.0, 0.0, 0.0, 1.0, 1.45, 69.15)">
    <path d="M0.25 -35.2 L0.25 -35.2" fill="#333333" fill-rule="evenodd" stroke="none"/>
    <path d="M0.65 -66.9 Q0.75 -65.8 0.8 -65.5 0.95 -64.7 1.05 -62.95 1.1 -61.45 1.1 -60.2 1.1 -59.9 1.1 -59.5 L1.15 -59.55 Q1.25 -59.5 1.35 -58.85 1.5 -58.1 1.6 -57.05 1.7 -55.8 1.7 -54.4 1.7 -53.3 1.65 -52.65 1.65 -51.95 1.6 -51.3 1.55 -50.8 1.45 -49.85 L1.25 -48.1 1.2 -47.65 1.2 -50.1 Q1.15 -51.9 1.1 -53.2 0.9 -57.3 0.35 -57.3 -0.15 -57.3 -0.4 -54.05 -0.5 -52.95 -0.55 -51.65 -0.55 -51.1 -0.6 -50.75 L-0.5 -49.5 -0.5 -49.35 Q-0.7 -49.35 -0.8 -53.3 -0.85 -55.3 -0.85 -57.35 -0.85 -59.3 -0.85 -60.1 -0.85 -61.6 -0.8 -62.75 -0.65 -65.7 -0.25 -68.0 0.1 -70.05 0.4 -68.45 0.5 -68.0 0.65 -66.9 M1.25 -48.6 L1.25 -48.6 M0.25 -35.2 L0.25 -35.05 Q0.45 -33.85 0.55 -31.35 0.6 -29.6 0.6 -26.85 0.55 -23.7 0.5 -21.95 0.55 -20.25 0.55 -18.95 0.6 -18.05 0.65 -16.5 0.7 -15.0 0.7 -13.9 0.75 -12.1 0.75 -9.65 0.75 -9.0 0.7 -7.7 0.65 -5.9 0.6 -4.4 0.35 0.1 -0.15 0.1 -0.45 0.1 -0.65 -2.25 -0.7 -3.0 -0.75 -3.9 L-0.75 -4.45 -0.8 -5.05 -0.9 -5.0 Q-1.25 -5.0 -1.4 -8.1 -1.4 -9.1 -1.45 -10.25 L-1.45 -11.25 Q-1.45 -13.55 -1.45 -14.5 -1.4 -16.2 -1.25 -18.0 -1.2 -19.1 -1.1 -19.65 -1.0 -20.75 -0.85 -21.0 -0.75 -21.15 -0.6 -21.05 L-0.35 -20.9 Q-0.2 -20.85 -0.05 -21.5 L0.05 -23.1 Q0.2 -25.1 0.2 -26.25 0.25 -26.7 0.25 -28.85 0.25 -30.8 0.25 -31.3 0.25 -31.65 0.25 -34.7 L0.25 -34.75 Q0.2 -34.8 0.2 -35.0 0.2 -35.35 0.25 -35.15 L0.25 -35.2" fill="#ffffff" fill-rule="evenodd" stroke="none"/>
  </g>
</svg>
