<?xml version="1.0" encoding="UTF-8" standalone="no"?>
<svg xmlns:ffdec="https://www.free-decompiler.com/flash" xmlns:xlink="http://www.w3.org/1999/xlink" ffdec:objectType="shape" height="62.55px" width="3.65px" xmlns="http://www.w3.org/2000/svg">
  <g transform="matrix(1.0, 0.0, 0.0, 1.0, 1.95, 61.8)">
    <path d="M0.3 -51.55 Q0.3 -51.7 0.3 -52.5 0.3 -53.35 0.25 -54.0 0.15 -55.9 -0.15 -55.9 -0.45 -55.9 -0.7 -53.85 -0.8 -53.15 -0.85 -52.25 L-0.9 -51.2 Q-0.95 -51.35 -0.95 -51.5 L-0.95 -51.75 Q-0.95 -52.1 -0.95 -52.5 L-0.95 -52.45 -1.0 -52.6 -1.05 -52.65 Q-1.35 -52.25 -1.55 -49.75 -1.65 -48.05 -1.75 -45.55 -1.65 -45.0 -1.55 -44.85 L-1.6 -44.55 -1.65 -44.4 Q-1.85 -44.4 -1.9 -46.0 -1.95 -46.9 -1.95 -47.8 -1.95 -49.8 -1.8 -51.1 -1.65 -53.0 -1.3 -54.0 -1.05 -54.15 -0.95 -53.4 L-0.9 -53.2 -0.9 -53.5 Q-0.9 -53.6 -0.9 -53.95 L-0.9 -54.25 Q-0.9 -57.2 -0.65 -59.3 -0.5 -61.3 -0.2 -61.7 0.1 -62.1 0.3 -60.6 0.5 -58.9 0.5 -55.45 0.5 -53.9 0.5 -52.95 0.45 -51.35 0.3 -50.55 L0.3 -50.65 Q0.3 -50.45 0.3 -50.5 0.3 -50.9 0.3 -51.55 M0.35 -52.1 L0.35 -52.1 M1.65 -18.15 L1.65 -14.85 1.7 -14.75 1.7 -11.05 1.65 -10.9 1.65 -9.75 1.6 -8.95 1.55 -8.25 1.5 -7.85 1.45 -7.65 1.45 -7.45 1.4 -7.25 Q1.35 -7.0 1.3 -7.35 L1.3 -7.75 1.25 -7.65 Q1.1 -7.35 0.95 -6.0 0.85 -5.5 0.8 -4.9 L0.8 -4.85 Q0.7 -3.75 0.6 -2.5 0.55 -1.7 0.55 -1.1 L0.55 -0.95 0.5 -0.75 0.45 -0.4 0.45 -0.25 0.4 0.05 0.2 0.3 0.15 0.45 Q0.15 0.55 0.1 0.65 -0.1 0.85 -0.3 0.55 L-0.4 0.4 -0.5 0.3 Q-0.6 0.3 -0.7 -0.15 -0.75 -0.2 -0.8 -0.45 L-0.85 -0.55 -0.9 -0.85 Q-0.95 -0.95 -0.95 -1.1 L-1.0 -1.2 -1.0 -1.5 -1.05 -1.8 -1.05 -2.0 -1.1 -2.05 Q-1.15 -2.45 -1.2 -2.95 -1.3 -4.2 -1.4 -6.6 L-1.45 -6.95 -1.45 -7.95 Q-1.45 -9.6 -1.3 -11.6 L-1.25 -12.85 Q-1.15 -13.55 -1.1 -13.85 -1.0 -14.65 -0.9 -15.65 -1.0 -16.2 -1.05 -17.3 -1.05 -17.95 -1.1 -18.75 L-1.1 -19.45 Q-1.1 -20.5 -1.1 -21.5 -1.1 -23.2 -1.05 -24.1 -1.05 -25.3 -0.95 -26.2 -0.95 -26.7 -0.9 -27.0 -0.85 -27.35 -0.85 -27.6 -0.8 -27.95 -0.8 -28.2 L-0.8 -27.4 -0.75 -27.35 -0.8 -27.25 -0.8 -26.45 Q-0.8 -25.55 -0.8 -25.1 -0.8 -23.15 -0.75 -21.3 -0.65 -18.35 -0.45 -19.25 L-0.45 -19.6 Q-0.45 -19.85 -0.45 -20.55 -0.45 -21.8 -0.35 -22.95 -0.2 -24.4 0.05 -24.4 L0.2 -24.4 Q0.2 -26.3 0.4 -27.1 0.65 -27.9 0.9 -27.15 1.25 -26.35 1.45 -24.25 1.65 -21.85 1.65 -18.55 L1.65 -18.15 M1.5 -11.75 L1.55 -11.8 1.55 -11.9 1.5 -11.8 1.5 -11.75 M1.5 -11.1 L1.5 -11.1 M1.5 -10.6 L1.45 -10.2 1.5 -10.4 Q1.5 -10.55 1.5 -10.75 L1.5 -10.6" fill="#ffffff" fill-rule="evenodd" stroke="none"/>
  </g>
</svg>
