<?xml version="1.0" encoding="UTF-8" standalone="no"?>
<svg xmlns:ffdec="https://www.free-decompiler.com/flash" xmlns:xlink="http://www.w3.org/1999/xlink" ffdec:objectType="shape" height="68.2px" width="5.25px" xmlns="http://www.w3.org/2000/svg">
  <g transform="matrix(1.0, 0.0, 0.0, 1.0, 4.15, 66.3)">
    <path d="M1.0 -28.7 Q1.05 -27.9 1.05 -26.8 L1.05 -25.35 Q1.05 -23.35 0.95 -21.05 0.85 -18.45 0.7 -17.6 0.7 -17.35 0.7 -17.1 L0.7 -17.0 Q0.65 -17.1 0.6 -17.8 0.5 -18.5 0.45 -18.5 0.2 -18.5 0.15 -17.7 0.1 -17.25 0.1 -16.8 0.1 -16.35 0.15 -15.95 L0.15 -15.8 0.3 -15.6 Q0.55 -15.9 0.75 -15.1 0.9 -14.3 1.0 -12.75 1.0 -12.45 1.05 -11.85 1.1 -11.0 1.1 -10.5 1.1 -9.95 1.1 -8.05 L1.1 -7.65 Q1.1 -6.65 1.05 -5.7 1.0 -4.2 0.9 -2.9 0.75 -1.0 0.5 0.35 0.4 0.75 0.35 1.15 0.15 1.9 0.05 1.9 -0.45 1.9 -0.7 -0.85 -0.85 -3.05 -0.85 -6.6 -0.85 -8.75 -0.8 -10.5 -0.7 -12.85 -0.5 -14.05 -0.7 -14.5 -0.75 -17.25 -0.8 -18.9 -0.8 -20.75 -0.8 -21.8 -0.75 -23.25 -0.7 -25.05 -0.55 -26.6 -0.25 -30.8 0.35 -31.1 0.85 -31.1 1.0 -28.7 M-4.05 -66.1 Q-3.95 -66.7 -3.75 -65.25 -3.7 -65.15 -3.7 -64.6 L-3.7 -64.15 -3.75 -64.1 -3.75 -64.5 Q-3.75 -64.7 -3.8 -64.7 -3.85 -64.7 -3.95 -64.1 -4.0 -63.6 -4.0 -63.2 L-4.05 -63.2 Q-4.05 -63.25 -4.05 -63.35 -4.1 -63.45 -4.1 -63.8 -4.15 -64.1 -4.15 -64.35 -4.15 -64.8 -4.1 -65.3 -4.1 -65.85 -4.05 -66.1 M-0.9 -50.3 Q-0.8 -49.65 -0.8 -49.15 L-0.8 -48.9 Q-0.8 -48.85 -0.8 -48.8 L-0.8 -48.5 -0.75 -48.4 Q-1.05 -48.3 -1.3 -46.75 -1.55 -45.4 -1.7 -43.1 -1.85 -41.15 -1.95 -38.95 -2.05 -37.0 -2.05 -35.8 -2.05 -34.65 -2.0 -33.65 -1.9 -32.05 -1.7 -32.05 -1.65 -32.05 -1.4 -32.5 -1.1 -33.0 -1.05 -33.0 -0.85 -33.0 -0.8 -31.15 -0.75 -30.55 -0.75 -29.85 L-0.75 -29.2 Q-0.75 -28.9 -0.75 -28.65 -0.7 -28.35 -0.65 -27.95 L-0.65 -27.85 Q-0.7 -27.9 -0.7 -28.1 -0.7 -28.3 -0.75 -28.4 L-0.75 -28.4 Q-0.75 -28.15 -0.8 -27.9 -0.75 -27.4 -0.75 -26.75 -0.75 -26.55 -0.75 -26.45 L-0.8 -26.3 Q-0.8 -26.5 -0.85 -26.9 L-0.85 -27.6 Q-0.9 -28.45 -1.05 -28.45 -1.1 -28.45 -1.35 -27.8 -1.55 -27.25 -1.6 -27.2 -1.65 -27.1 -1.7 -26.95 -1.95 -25.9 -2.05 -25.9 -2.55 -25.9 -2.8 -30.35 -2.9 -31.95 -2.95 -34.0 -3.0 -35.6 -3.0 -37.0 -3.0 -39.55 -2.9 -42.0 -2.85 -44.65 -2.7 -46.95 -2.6 -48.65 -2.5 -49.45 -2.35 -50.95 -2.0 -51.65 -1.55 -52.65 -1.15 -51.45 -1.0 -51.0 -0.9 -50.3" fill="#ffffff" fill-rule="evenodd" stroke="none"/>
  </g>
</svg>
