<?xml version="1.0" encoding="UTF-8" standalone="no"?>
<svg xmlns:ffdec="https://www.free-decompiler.com/flash" xmlns:xlink="http://www.w3.org/1999/xlink" ffdec:objectType="shape" height="67.4px" width="3.75px" xmlns="http://www.w3.org/2000/svg">
  <g transform="matrix(1.0, 0.0, 0.0, 1.0, 2.05, 66.65)">
    <path d="M0.15 -59.8 L0.1 -60.5 Q-0.05 -61.95 -0.15 -61.95 -0.5 -61.95 -0.7 -59.85 -0.8 -59.0 -0.9 -57.55 L-0.9 -56.35 -0.95 -55.95 -0.9 -55.15 -0.9 -55.1 Q-0.9 -55.05 -0.95 -55.0 L-0.95 -55.15 Q-0.95 -55.0 -0.95 -54.9 L-0.95 -54.65 -1.0 -54.6 -1.0 -54.9 -1.1 -55.4 -1.15 -55.5 -1.3 -55.45 Q-1.55 -55.05 -1.7 -52.65 -1.8 -51.3 -1.85 -49.55 -1.85 -48.8 -1.9 -48.25 L-1.85 -47.25 -1.85 -47.1 -1.8 -46.75 -1.8 -46.65 -1.85 -46.6 Q-1.95 -46.6 -1.95 -47.55 -2.0 -48.0 -2.0 -48.85 -2.05 -49.75 -2.05 -50.7 -2.05 -53.4 -1.85 -55.05 -1.7 -56.85 -1.4 -56.6 -1.3 -56.9 -1.15 -56.4 -1.1 -56.2 -1.05 -55.95 L-1.05 -55.9 Q-1.05 -56.1 -1.0 -56.45 L-1.0 -56.5 -1.05 -56.7 Q-1.05 -56.85 -1.05 -58.0 -1.05 -61.75 -0.85 -64.15 -0.65 -66.3 -0.4 -66.6 -0.1 -66.9 0.1 -65.05 0.3 -63.05 0.4 -59.2 L0.4 -59.1 0.35 -59.3 0.4 -58.7 0.4 -58.35 Q0.4 -57.8 0.4 -57.45 0.4 -57.25 0.4 -57.1 L0.4 -56.8 Q0.35 -57.15 0.35 -57.6 0.3 -57.6 0.25 -58.6 0.15 -59.5 0.15 -59.6 L0.15 -59.8 M0.75 -33.8 Q1.15 -33.65 1.35 -31.65 1.65 -29.25 1.65 -24.85 1.65 -22.7 1.5 -20.1 1.4 -18.1 1.3 -17.0 L1.3 -16.9 1.35 -17.0 1.35 -17.05 1.4 -17.0 1.4 -16.8 Q1.45 -16.8 1.45 -16.7 1.45 -16.6 1.5 -16.5 L1.55 -16.1 1.6 -15.8 1.6 -15.7 1.65 -15.65 Q1.7 -14.45 1.7 -13.45 1.7 -12.35 1.7 -11.25 L1.7 -10.95 Q1.65 -10.35 1.6 -9.85 L1.55 -9.45 1.55 -9.4 1.45 -8.4 1.45 -8.05 1.4 -7.85 1.4 -7.35 1.35 -7.25 1.35 -6.65 1.3 -6.55 1.3 -6.0 1.25 -5.9 1.25 -5.3 Q1.2 -4.9 1.2 -4.7 L1.15 -4.4 1.15 -3.9 1.1 -3.8 1.1 -3.6 Q1.1 -3.4 1.1 -3.3 1.05 -3.1 1.05 -2.9 L1.05 -2.7 1.0 -2.5 1.0 -2.2 0.9 -1.7 0.9 -1.2 0.85 -1.1 0.85 -0.7 0.8 -0.5 0.8 -0.4 0.75 -0.3 0.7 -0.4 0.6 0.15 0.6 0.1 Q0.3 0.85 0.0 0.75 -0.3 0.85 -0.55 0.05 L-0.6 0.0 Q-0.8 0.0 -0.95 -0.4 L-0.95 -0.5 -1.0 -0.6 Q-1.05 -0.9 -1.1 -1.05 L-1.1 -1.2 -1.15 -1.35 -1.15 -1.45 -1.2 -1.55 -1.2 -1.7 -1.25 -2.0 -1.3 -2.2 -1.35 -2.7 -1.35 -3.1 -1.4 -3.3 -1.4 -3.7 -1.45 -3.9 Q-1.45 -4.05 -1.45 -4.2 L-1.45 -4.8 -1.5 -5.0 -1.5 -9.65 -1.45 -9.85 -1.45 -11.0 -1.4 -11.15 -1.4 -11.4 Q-1.4 -11.55 -1.4 -11.7 L-1.4 -11.9 -1.35 -12.0 -1.35 -12.25 Q-1.35 -12.45 -1.3 -12.55 L-1.3 -12.7 -1.25 -12.75 -1.25 -13.15 -1.15 -13.85 Q-1.3 -14.25 -1.35 -15.95 -1.4 -16.7 -1.4 -17.6 -1.4 -18.0 -1.4 -18.4 -1.4 -20.0 -1.25 -21.85 -1.1 -23.8 -0.95 -23.9 L-0.95 -23.95 Q-0.9 -23.85 -0.9 -23.65 L-0.9 -23.35 Q-1.0 -22.65 -1.05 -21.8 -1.1 -20.8 -1.1 -20.2 L-1.1 -19.85 Q-1.1 -19.5 -1.1 -19.15 -1.05 -18.15 -0.95 -18.15 L-0.95 -18.25 Q-0.85 -17.85 -0.7 -17.85 -0.55 -17.85 -0.4 -18.5 L-0.4 -18.35 -0.3 -18.85 -0.35 -19.55 Q-0.45 -20.45 -0.45 -21.25 -0.45 -21.75 -0.45 -22.75 L-0.5 -23.85 -0.45 -24.0 Q-0.45 -24.9 -0.45 -25.6 -0.35 -27.25 -0.2 -27.8 -0.15 -28.05 -0.1 -28.1 L-0.1 -28.6 Q-0.1 -30.85 0.2 -32.4 0.45 -33.9 0.75 -33.8 M-0.25 -21.9 Q-0.3 -20.85 -0.3 -19.9 L-0.3 -19.55 Q-0.25 -20.0 -0.2 -20.5 -0.15 -21.5 -0.1 -23.1 -0.2 -22.8 -0.25 -21.9" fill="#ffffff" fill-rule="evenodd" stroke="none"/>
  </g>
</svg>
