<?xml version="1.0" encoding="UTF-8" standalone="no"?>
<svg xmlns:ffdec="https://www.free-decompiler.com/flash" xmlns:xlink="http://www.w3.org/1999/xlink" ffdec:objectType="shape" height="77.5px" width="2.65px" xmlns="http://www.w3.org/2000/svg">
  <g transform="matrix(1.0, 0.0, 0.0, 1.0, 1.25, 76.75)">
    <path d="M0.5 -76.65 Q0.75 -76.3 0.9 -74.75 1.05 -73.0 1.05 -70.5 L1.05 -68.2 1.15 -67.15 Q1.25 -66.3 1.3 -65.55 1.4 -64.45 1.4 -63.95 1.4 -63.3 1.4 -62.55 1.4 -61.95 1.35 -61.35 1.35 -60.65 1.35 -59.75 L1.35 -59.6 1.3 -59.75 1.3 -59.65 Q1.2 -60.15 1.15 -60.85 1.15 -61.35 1.1 -62.25 L1.1 -63.8 Q1.05 -64.75 1.0 -65.5 L0.95 -66.4 Q0.85 -67.4 0.75 -68.2 0.5 -70.7 0.2 -70.7 0.1 -70.4 0.05 -70.1 L0.05 -69.85 Q0.05 -69.65 0.05 -69.55 L0.05 -69.85 Q0.0 -69.6 0.0 -69.4 L0.0 -69.5 Q0.0 -69.6 0.0 -69.85 0.0 -70.15 0.0 -70.35 0.0 -70.65 0.0 -70.9 -0.05 -71.2 -0.05 -72.2 -0.05 -74.7 0.15 -75.9 0.3 -77.0 0.5 -76.65 M0.25 -25.9 Q0.25 -25.2 0.25 -24.7 L0.25 -24.3 0.3 -23.9 Q0.5 -23.95 0.6 -22.3 0.65 -21.05 0.65 -19.45 L0.65 -18.6 Q0.65 -18.05 0.6 -17.8 L0.55 -17.6 Q0.7 -17.45 0.8 -14.55 0.85 -12.2 0.85 -10.3 0.85 -7.15 0.75 -4.35 0.55 0.75 0.0 0.75 -0.15 0.75 -0.3 0.4 -0.65 0.25 -0.9 -3.45 -0.95 -4.25 -1.0 -5.05 L-1.05 -6.15 Q-1.05 -7.25 -1.05 -7.65 L-1.05 -8.25 Q-1.05 -9.3 -1.05 -10.1 -1.05 -10.65 -1.0 -10.95 -1.15 -11.6 -1.2 -13.5 -1.25 -14.4 -1.25 -15.5 L-1.25 -16.45 Q-1.25 -20.2 -1.1 -23.6 -0.95 -26.9 -0.7 -28.5 -0.4 -30.15 -0.15 -29.2 -0.1 -28.95 -0.05 -28.65 0.05 -28.4 0.15 -27.35 0.2 -26.7 0.25 -25.9" fill="#ffffff" fill-rule="evenodd" stroke="none"/>
  </g>
</svg>
