<?xml version="1.0" encoding="UTF-8" standalone="no"?>
<svg xmlns:ffdec="https://www.free-decompiler.com/flash" xmlns:xlink="http://www.w3.org/1999/xlink" ffdec:objectType="shape" height="3.8px" width="4.35px" xmlns="http://www.w3.org/2000/svg">
  <g transform="matrix(1.0, 0.0, 0.0, 1.0, 2.1, -1.7)">
    <path d="M1.4 1.75 L1.45 1.7 Q1.5 1.7 1.5 1.75 L1.55 1.85 1.5 1.95 1.55 2.05 1.65 2.2 1.75 2.25 1.85 2.4 Q1.95 2.45 1.95 2.6 L1.9 2.65 1.9 2.7 Q1.9 2.8 2.0 2.85 2.1 2.9 2.1 2.95 L2.05 3.15 1.9 3.3 1.4 3.4 1.15 3.5 1.0 3.5 Q0.9 3.55 0.85 3.6 L0.75 3.75 0.65 4.05 Q0.6 4.1 0.55 4.2 L0.45 4.35 0.3 4.4 Q0.25 4.45 0.25 4.6 L0.15 4.7 0.05 4.75 -0.1 4.8 -0.2 4.75 -0.5 4.75 Q-0.55 4.7 -0.6 4.65 -0.6 4.3 -0.75 4.15 -0.8 4.05 -1.0 3.95 L-1.2 3.75 Q-1.25 3.7 -1.25 3.55 L-1.25 3.45 Q-1.4 3.0 -1.55 3.0 -1.8 2.95 -1.85 2.85 -1.9 2.8 -1.8 2.6 L-1.75 2.35 -1.75 2.3 -1.8 2.25 -1.7 2.15 -1.7 2.2 -1.6 2.1 Q-1.6 2.15 -1.6 2.2 L-1.65 2.45 -1.65 2.75 -1.45 2.85 Q-1.35 2.9 -1.3 2.9 L-1.1 3.0 Q-1.0 3.1 -1.0 3.35 L-0.65 3.55 Q-0.55 3.6 -0.45 3.65 -0.4 3.75 -0.3 3.75 L-0.25 3.7 -0.25 3.45 -0.2 3.35 Q-0.3 3.3 -0.2 3.3 -0.1 3.3 -0.1 3.35 L-0.1 3.4 0.05 3.6 0.15 3.7 0.25 3.6 Q0.4 3.45 0.5 3.45 L0.9 3.3 1.35 3.2 Q1.65 3.05 1.65 2.95 1.65 2.85 1.6 2.7 L1.5 2.6 Q1.5 2.55 1.55 2.55 L1.55 2.4 1.5 2.25 1.4 2.2 1.4 2.1 1.45 1.9 1.4 1.75 M1.05 2.4 L1.15 2.45 1.2 2.45 1.25 2.5 1.25 2.55 1.2 2.7 1.1 2.75 1.0 2.75 0.9 2.85 0.7 2.75 0.6 2.65 0.65 2.6 0.7 2.6 0.85 2.5 1.05 2.4 M0.25 2.95 L0.4 3.0 Q0.55 3.05 0.55 3.1 0.55 3.2 0.5 3.2 L0.4 3.2 Q0.05 3.15 0.0 3.05 L0.15 2.95 0.25 2.95 M-1.7 2.3 L-1.65 2.45 -1.65 2.2 -1.7 2.25 -1.7 2.3 M-1.0 2.7 L-0.65 2.7 -0.5 2.8 -0.45 2.85 Q-0.35 2.85 -0.3 2.95 L-0.3 3.0 -0.4 3.05 -0.55 3.0 -0.7 3.0 Q-1.25 2.75 -1.0 2.7" fill="#fdccff" fill-opacity="0.5019608" fill-rule="evenodd" stroke="none"/>
    <path d="M0.2 3.2 L0.25 3.2 0.35 3.25 0.45 3.35 0.2 3.4 0.0 3.4 0.0 3.35 0.1 3.4 0.15 3.4 Q0.05 3.4 0.0 3.3 0.05 3.3 0.1 3.25 L0.2 3.2 M0.35 3.35 L0.4 3.35 0.35 3.3 0.35 3.35 M1.25 2.8 Q1.25 3.0 0.85 3.05 0.7 3.05 0.7 3.0 0.65 2.95 0.8 2.85 L1.25 2.75 1.25 2.8 M1.95 2.65 L2.0 2.75 2.05 2.75 2.25 2.9 2.25 3.25 2.2 3.3 2.25 3.6 Q2.25 3.85 1.95 3.85 L1.45 3.85 1.25 3.9 Q1.15 3.9 1.1 3.95 L1.05 4.0 1.05 4.05 0.95 4.15 1.0 4.6 0.95 4.8 0.75 4.95 Q0.65 5.05 0.55 5.05 0.5 5.05 0.5 5.1 L0.45 5.15 0.45 5.2 0.45 5.15 Q0.4 5.05 0.45 4.95 L0.5 4.9 0.6 4.85 0.7 4.75 Q0.8 4.7 0.8 4.5 L0.75 4.5 0.75 4.25 0.8 4.1 0.8 4.0 0.85 3.9 Q0.9 3.85 1.05 3.8 1.2 3.7 1.3 3.7 L1.6 3.75 1.55 3.65 Q1.45 3.65 1.45 3.6 L1.5 3.55 1.55 3.45 1.75 3.5 1.95 3.4 Q2.0 3.4 2.0 3.45 L1.95 3.65 Q1.95 3.7 1.8 3.75 L1.7 3.75 1.9 3.7 2.1 3.6 2.1 3.5 2.05 3.45 Q2.05 3.4 2.1 3.35 2.1 3.3 2.1 3.25 L2.15 3.1 2.1 3.0 1.95 2.85 1.85 2.8 Q1.85 2.7 1.9 2.65 L1.9 2.6 1.95 2.65 M2.2 3.0 L2.2 3.15 2.25 3.0 2.2 3.0 M1.6 3.8 L1.6 3.8 M0.9 4.1 L0.9 4.1 M0.85 4.3 L0.85 4.3 M0.9 4.25 L0.9 4.25 M0.0 5.35 L-0.05 5.4 -0.05 5.45 Q-0.1 5.5 -0.2 5.5 L-0.3 5.45 -0.45 5.3 -0.6 5.25 -0.7 5.3 -0.8 5.3 Q-0.9 5.3 -0.95 5.25 -1.0 5.15 -1.0 5.05 -1.0 4.9 -0.95 4.75 L-0.85 4.55 Q-0.85 4.45 -0.9 4.4 L-1.05 4.3 -1.15 4.25 -1.2 4.25 -1.4 4.2 Q-1.55 4.15 -1.6 3.9 L-1.55 3.85 -1.5 3.75 -1.55 3.6 -1.65 3.55 -1.7 3.5 -1.8 3.45 -1.8 3.4 -1.9 3.35 -1.95 3.3 -1.95 3.2 -1.9 3.05 -1.8 3.05 -1.8 3.25 -1.85 3.3 -1.6 3.5 Q-1.45 3.6 -1.35 3.75 L-1.35 3.85 -1.4 3.9 -1.4 4.0 -1.2 4.1 -1.15 4.15 -1.05 4.2 Q-0.7 4.35 -0.65 4.55 L-0.65 4.6 -0.6 4.65 Q-0.6 4.8 -0.65 4.9 L-0.7 4.95 -0.7 5.05 -0.65 5.1 -0.5 5.15 -0.35 5.15 Q-0.3 5.15 -0.2 5.25 L0.0 5.35 M-2.0 3.0 L-2.05 3.1 -2.05 3.25 -2.1 3.15 -2.05 3.05 -2.0 3.0 M-0.95 2.95 L-0.7 3.1 -0.55 3.2 -0.4 3.2 -0.3 3.1 -0.3 3.2 -0.25 3.2 -0.25 3.25 Q-0.25 3.3 -0.3 3.3 -0.35 3.4 -0.4 3.4 L-0.5 3.4 -0.8 3.3 -0.9 3.25 -0.95 3.2 -1.0 3.1 Q-1.0 3.05 -1.05 3.05 L-1.05 3.0 -1.1 2.95 -1.1 2.85 -1.05 2.9 Q-1.0 2.9 -0.95 2.95 M-1.3 3.95 L-1.0 4.0 -0.85 4.0 Q-0.75 4.05 -0.75 4.15 -1.15 4.2 -1.35 4.0 L-1.35 3.95 -1.3 3.95 M-0.85 4.4 L-0.85 4.4 M-0.2 5.45 L-0.2 5.45" fill="#ffffff" fill-opacity="0.7019608" fill-rule="evenodd" stroke="none"/>
  </g>
</svg>
