<?xml version="1.0" encoding="UTF-8" standalone="no"?>
<svg xmlns:ffdec="https://www.free-decompiler.com/flash" xmlns:xlink="http://www.w3.org/1999/xlink" ffdec:objectType="shape" height="79.2px" width="3.05px" xmlns="http://www.w3.org/2000/svg">
  <g transform="matrix(1.0, 0.0, 0.0, 1.0, 1.4, 78.0)">
    <path d="M0.05 -71.9 Q0.05 -72.2 0.05 -72.55 0.05 -75.2 0.2 -76.7 0.35 -78.0 0.6 -78.0 0.8 -78.0 0.95 -76.75 1.1 -75.4 1.1 -73.2 1.1 -72.9 1.1 -72.55 1.15 -72.05 1.15 -71.5 1.15 -71.3 1.15 -71.15 L1.1 -70.9 1.05 -71.45 1.05 -71.55 Q1.05 -72.1 1.0 -72.45 0.85 -73.85 0.6 -73.85 0.35 -73.85 0.25 -73.15 0.15 -72.5 0.15 -71.6 0.15 -71.5 0.15 -71.45 L0.15 -71.35 Q0.05 -71.4 0.05 -71.9 M1.2 -69.4 Q1.2 -69.95 1.3 -70.0 L1.35 -69.9 Q1.65 -71.7 1.65 -68.55 1.65 -67.6 1.65 -66.95 1.6 -66.2 1.5 -65.45 L1.45 -65.5 1.45 -65.45 Q1.45 -65.4 1.45 -65.65 L1.5 -65.95 1.45 -65.95 Q1.5 -67.05 1.45 -67.75 1.4 -68.7 1.3 -68.95 L1.25 -68.95 Q1.25 -69.0 1.25 -69.05 L1.2 -69.15 Q1.2 -69.2 1.2 -69.4 M0.1 -35.35 Q0.4 -33.85 0.4 -31.6 0.4 -31.25 0.35 -30.4 L0.35 -29.45 0.4 -29.4 Q0.4 -29.7 0.45 -29.55 0.55 -29.4 0.65 -28.6 0.75 -27.8 0.8 -26.8 0.85 -25.6 0.85 -24.55 0.85 -23.85 0.85 -23.0 0.8 -21.75 0.7 -21.75 L0.7 -21.75 Q0.65 -21.75 0.65 -21.95 L0.65 -21.85 Q0.65 -21.9 0.6 -22.3 L0.6 -23.15 Q0.5 -24.3 0.4 -24.3 0.3 -24.3 0.25 -23.2 0.2 -22.65 0.2 -22.05 0.2 -20.95 0.35 -19.75 0.4 -19.05 0.6 -17.4 0.75 -15.75 0.85 -14.1 0.95 -11.8 0.95 -8.95 0.95 -8.45 0.9 -7.1 0.85 -5.3 0.8 -3.8 0.6 0.8 0.2 0.8 L0.0 0.8 0.0 1.0 Q-0.05 1.2 -0.1 1.2 -0.35 1.2 -0.6 -0.65 -0.7 -1.5 -0.8 -3.05 -0.85 -3.85 -0.9 -4.75 L-0.9 -4.8 Q-1.0 -6.1 -1.1 -8.25 -1.2 -10.95 -1.2 -13.3 L-1.2 -13.7 -1.25 -14.6 -1.25 -14.5 Q-1.3 -15.95 -1.3 -16.95 -1.3 -17.2 -1.25 -18.0 -1.25 -19.05 -1.2 -19.95 -1.15 -20.95 -1.1 -21.55 -1.2 -22.25 -1.3 -23.9 -1.35 -25.35 -1.4 -26.85 -1.4 -31.55 -1.1 -34.15 -0.85 -36.35 -0.5 -36.6 -0.15 -36.8 0.1 -35.35" fill="#ffffff" fill-rule="evenodd" stroke="none"/>
  </g>
</svg>
