<?xml version="1.0" encoding="UTF-8" standalone="no"?>
<svg xmlns:ffdec="https://www.free-decompiler.com/flash" xmlns:xlink="http://www.w3.org/1999/xlink" ffdec:objectType="shape" height="86.95px" width="3.35px" xmlns="http://www.w3.org/2000/svg">
  <g transform="matrix(1.0, 0.0, 0.0, 1.0, 1.25, 86.35)">
    <path d="M0.6 -86.3 Q0.65 -86.4 0.75 -86.3 0.85 -86.05 0.95 -85.2 1.05 -84.25 1.05 -83.05 L1.05 -82.6 Q1.0 -82.15 1.0 -81.65 0.95 -81.85 0.95 -82.2 L0.95 -82.85 Q0.9 -83.6 0.75 -83.6 0.6 -83.6 0.5 -83.2 L0.45 -83.05 0.45 -82.85 0.4 -82.8 0.4 -82.85 Q0.4 -82.9 0.4 -83.15 0.4 -83.4 0.4 -83.65 0.45 -85.05 0.5 -85.75 0.55 -86.15 0.6 -86.3 M1.8 -75.2 L1.8 -75.45 Q1.85 -77.1 1.95 -76.75 2.0 -76.65 2.05 -76.25 2.1 -75.85 2.1 -75.45 2.1 -75.2 2.05 -74.05 1.95 -72.7 1.9 -72.7 L1.9 -72.75 1.85 -72.9 Q1.85 -73.0 1.85 -73.2 1.85 -73.4 1.9 -73.8 1.9 -74.15 1.9 -74.4 1.9 -74.45 1.85 -74.65 1.85 -74.95 1.8 -75.2 M0.85 -42.65 Q0.85 -41.9 0.8 -41.0 L0.8 -40.7 Q0.95 -40.1 1.05 -38.35 L1.15 -36.6 1.15 -35.25 Q1.15 -33.35 1.1 -32.35 1.05 -30.75 0.9 -29.9 L0.95 -30.65 Q0.9 -30.25 0.9 -30.1 0.9 -31.45 0.85 -32.5 0.8 -34.6 0.6 -34.6 0.15 -34.6 0.0 -30.2 -0.05 -28.0 -0.05 -25.6 L-0.05 -24.2 Q-0.05 -23.6 -0.05 -23.2 0.0 -22.4 0.1 -20.8 0.2 -19.9 0.3 -18.6 0.4 -17.7 0.45 -16.55 L0.55 -15.3 Q0.65 -13.9 0.7 -11.7 0.8 -9.5 0.8 -7.9 0.8 -7.4 0.75 -6.4 0.75 -4.8 0.7 -3.45 0.5 0.6 0.1 0.6 -0.05 0.6 -0.15 -0.05 -0.2 -0.5 -0.2 -0.95 L-0.25 -0.8 Q-0.85 -0.8 -1.1 -5.05 -1.15 -6.4 -1.2 -8.05 -1.2 -9.0 -1.2 -9.6 -1.2 -13.9 -1.1 -16.8 -1.0 -18.8 -0.85 -20.75 L-0.7 -22.25 Q-0.6 -23.1 -0.6 -23.8 -0.45 -25.65 -0.45 -28.25 -0.45 -28.4 -0.45 -29.0 L-0.5 -29.8 Q-0.5 -29.9 -0.5 -30.35 L-0.55 -30.5 Q-0.75 -30.55 -0.95 -32.3 -1.05 -33.6 -1.15 -34.95 -1.2 -35.9 -1.25 -37.25 -1.25 -38.45 -1.25 -39.55 -1.25 -41.25 -1.25 -42.15 -1.25 -43.6 -1.2 -44.75 -1.05 -47.7 -0.65 -49.6 -0.35 -51.0 -0.05 -50.75 0.2 -50.5 0.4 -49.05 0.6 -47.8 0.7 -45.95 0.85 -44.2 0.85 -42.65 M-0.25 -2.15 L-0.25 -2.15" fill="#ffffff" fill-rule="evenodd" stroke="none"/>
  </g>
</svg>
