<?xml version="1.0" encoding="UTF-8" standalone="no"?>
<svg xmlns:ffdec="https://www.free-decompiler.com/flash" xmlns:xlink="http://www.w3.org/1999/xlink" ffdec:objectType="shape" height="3.6px" width="4.9px" xmlns="http://www.w3.org/2000/svg">
  <g transform="matrix(1.0, 0.0, 0.0, 1.0, 2.15, -3.1)">
    <path d="M0.15 3.4 L0.35 3.4 0.25 3.5 0.15 3.4 M1.1 3.1 L1.15 3.1 1.15 3.15 Q1.15 3.2 0.95 3.2 0.95 3.15 1.0 3.15 L1.05 3.1 1.1 3.1 M2.7 3.6 L2.75 3.7 2.75 3.75 2.65 3.9 2.7 4.1 2.65 4.1 Q2.6 3.9 2.6 3.7 L2.7 3.6 M1.9 3.85 Q1.9 3.95 1.85 3.95 L1.75 3.9 Q1.75 3.85 1.8 3.85 L1.9 3.85 M1.45 4.2 L1.55 4.2 1.7 4.25 1.7 4.3 1.45 4.25 1.45 4.2 M2.0 4.45 Q1.9 4.45 1.9 4.4 L2.0 4.45 2.15 4.5 2.2 4.65 Q2.2 4.7 2.4 4.75 L2.5 4.6 2.55 4.4 2.65 4.5 Q2.65 4.65 2.6 4.75 2.55 4.8 2.5 4.8 L2.3 4.75 2.15 4.65 2.1 4.5 2.0 4.45 M1.4 5.35 L1.45 5.55 Q1.45 5.7 1.3 5.7 1.15 5.7 1.15 5.55 1.15 5.5 1.1 5.5 L1.05 5.5 1.15 5.55 1.15 5.6 1.2 5.6 1.3 5.55 Q1.35 5.5 1.4 5.5 L1.4 5.35 M-0.7 3.5 L-0.5 3.55 -0.5 3.6 -0.65 3.6 -0.75 3.5 -0.7 3.5 M-1.05 4.3 Q-1.05 4.35 -1.1 4.35 -1.2 4.35 -1.3 4.2 L-1.05 4.3 M-2.0 4.2 L-2.0 4.4 -1.8 4.5 Q-1.8 4.55 -1.9 4.55 L-2.05 4.5 Q-2.1 4.45 -2.0 4.25 L-2.0 4.2 M-0.35 6.05 Q-0.45 6.2 -0.6 6.15 -0.5 6.05 -0.35 6.05 M-1.4 5.55 L-1.4 5.7 Q-1.35 5.75 -1.2 5.8 -1.05 5.8 -1.0 5.9 L-0.9 6.1 Q-0.85 6.25 -0.7 6.2 -0.85 6.25 -0.9 6.25 -1.0 6.25 -1.05 6.1 L-1.1 5.9 Q-1.15 5.8 -1.3 5.8 L-1.45 5.7 -1.4 5.55" fill="#fdccff" fill-opacity="0.5019608" fill-rule="evenodd" stroke="none"/>
    <path d="M2.0 4.75 L1.9 4.65 Q2.05 4.65 2.15 4.85 L2.0 4.75 M2.55 5.0 L2.65 4.95 2.65 4.85 2.7 4.85 2.7 4.9 Q2.7 5.05 2.55 5.05 L2.55 5.0 M1.25 5.95 L1.3 6.0 Q1.35 6.0 1.35 5.85 L1.4 5.95 Q1.4 6.05 1.25 6.05 L1.25 6.0 1.2 5.9 1.25 5.95 M-2.15 4.55 L-2.05 4.55 -2.05 4.65 -2.1 4.65 -2.15 4.6 -2.15 4.55 M-1.45 6.05 Q-1.3 6.1 -1.25 6.2 L-1.3 6.2 -1.45 6.05 M-1.2 6.4 Q-1.1 6.5 -1.1 6.65 L-0.95 6.6 -0.9 6.65 -1.05 6.7 Q-1.15 6.7 -1.15 6.65 -1.2 6.6 -1.2 6.4" fill="#ffffff" fill-rule="evenodd" stroke="none"/>
  </g>
</svg>
