<?xml version="1.0" encoding="UTF-8" standalone="no"?>
<svg xmlns:ffdec="https://www.free-decompiler.com/flash" xmlns:xlink="http://www.w3.org/1999/xlink" ffdec:objectType="shape" height="1.3px" width="2.4px" xmlns="http://www.w3.org/2000/svg">
  <g transform="matrix(1.0, 0.0, 0.0, 1.0, 1.35, -0.7)">
    <path d="M0.1 1.35 L-0.15 1.35 Q-0.4 1.35 -0.6 1.5 -0.8 1.65 -0.9 1.65 -1.1 1.65 -1.2 1.55 -1.3 1.5 -1.3 1.4 -1.35 1.2 -1.2 1.05 L-1.2 1.0 Q-1.1 0.95 -0.95 0.85 -0.75 0.75 -0.4 0.75 L0.4 0.75 Q0.95 0.85 0.95 1.05 L0.95 1.0 1.0 1.1 1.0 1.15 0.95 1.15 0.45 1.0 0.15 0.95 -0.3 1.0 -0.6 1.05 -0.65 1.1 -0.45 1.1 -0.15 1.15 Q0.05 1.15 0.15 1.3 L0.1 1.35 M0.95 1.1 L0.95 1.1" fill="#fdccff" fill-opacity="0.5019608" fill-rule="evenodd" stroke="none"/>
    <path d="M0.1 1.4 L0.1 1.45 -0.05 1.5 -0.15 1.5 Q-0.3 1.5 -0.55 1.7 L-0.9 1.95 Q-0.95 2.0 -1.0 2.0 L-1.1 1.95 -1.15 1.95 -1.2 1.9 Q-1.35 1.85 -1.35 1.6 -1.35 1.25 -1.0 1.0 L-0.9 0.9 Q-0.65 0.7 -0.2 0.7 1.05 1.0 1.05 1.1 1.05 1.3 0.95 1.3 0.75 1.3 0.45 1.15 0.2 1.0 -0.1 1.0 L-0.4 1.0 Q-0.55 1.05 -0.75 1.25 -0.65 1.3 -0.55 1.3 L-0.4 1.25 Q0.0 1.25 0.1 1.4" fill="#ffffff" fill-opacity="0.7019608" fill-rule="evenodd" stroke="none"/>
  </g>
</svg>
