<?xml version="1.0" encoding="UTF-8" standalone="no"?>
<svg xmlns:ffdec="https://www.free-decompiler.com/flash" xmlns:xlink="http://www.w3.org/1999/xlink" ffdec:objectType="shape" height="5.25px" width="4.8px" xmlns="http://www.w3.org/2000/svg">
  <g transform="matrix(1.0, 0.0, 0.0, 1.0, 2.5, 2.65)">
    <path d="M2.3 -2.35 Q1.4 -1.2 1.5 -0.3 1.6 0.1 1.85 0.5 L2.3 1.15 1.85 1.15 1.35 1.1 Q0.3 1.0 -0.3 1.25 -1.1 1.5 -2.15 2.6 -2.2 2.65 -2.15 2.5 L-2.0 2.25 Q-1.35 0.9 -1.6 -0.45 -1.75 -1.5 -2.5 -2.65 L-2.15 -2.3 Q-1.7 -1.8 -1.2 -1.4 -0.65 -0.95 0.3 -1.2 1.05 -1.45 2.3 -2.35" fill="#ffffff" fill-opacity="0.8" fill-rule="evenodd" stroke="none"/>
  </g>
</svg>
