<?xml version="1.0" encoding="UTF-8" standalone="no"?>
<svg xmlns:ffdec="https://www.free-decompiler.com/flash" xmlns:xlink="http://www.w3.org/1999/xlink" ffdec:objectType="shape" height="4.8px" width="4.6px" xmlns="http://www.w3.org/2000/svg">
  <g transform="matrix(1.0, 0.0, 0.0, 1.0, 2.2, -0.3)">
    <path d="M2.15 1.6 Q2.3 1.75 2.2 2.2 2.4 2.45 2.4 2.6 2.4 2.85 2.25 3.0 2.15 3.05 2.1 3.05 L1.9 3.0 1.9 3.2 1.85 3.2 1.85 3.25 1.75 3.25 1.7 3.3 1.7 3.25 1.65 3.25 1.4 3.2 Q1.25 3.2 1.1 3.4 0.9 3.6 0.9 3.75 L0.9 4.15 1.0 4.2 1.05 4.35 1.0 4.4 Q1.0 4.6 0.8 4.65 L0.5 4.6 0.5 4.55 0.75 4.55 Q0.9 4.55 0.9 4.45 0.7 4.4 0.8 3.75 0.95 3.1 1.25 3.1 1.35 3.1 1.45 3.15 L1.65 3.2 1.7 3.2 1.85 3.1 1.85 2.95 1.95 2.9 1.9 2.95 2.05 3.0 Q2.15 3.0 2.25 2.9 2.35 2.8 2.35 2.65 2.35 2.55 2.25 2.4 L2.1 2.2 2.1 1.6 Q2.0 1.5 1.8 1.4 L1.55 1.25 1.35 0.9 Q1.15 0.6 1.05 0.55 0.3 0.2 -0.05 0.3 L0.2 0.3 0.7 0.35 Q1.05 0.4 1.25 0.55 1.35 0.6 1.5 0.9 1.6 1.2 1.7 1.25 2.1 1.45 2.15 1.6 M0.1 0.35 Q-0.45 0.25 -0.85 0.55 -1.4 0.85 -1.6 1.75 -1.65 2.05 -1.75 2.2 -1.85 2.35 -1.85 2.65 -1.85 2.75 -2.0 3.05 L-2.1 3.4 Q-2.1 3.6 -2.05 3.75 L-1.95 3.8 -1.95 3.85 -2.2 3.6 Q-2.1 3.0 -2.0 2.9 -1.9 2.8 -1.9 2.65 -1.9 2.3 -1.8 2.1 -1.7 1.85 -1.65 1.75 L-1.65 1.7 Q-1.3 0.3 -0.2 0.3 L0.1 0.3 0.1 0.35 M0.1 5.1 Q-0.3 5.1 -0.55 4.4 -0.8 3.75 -1.25 3.75 -1.3 3.75 -1.55 3.85 -1.35 3.7 -1.15 3.7 -0.7 3.7 -0.5 4.35 -0.25 5.0 0.1 5.0 0.15 5.0 0.4 4.85 L0.4 4.9 Q0.4 5.05 0.1 5.1" fill="#fdccff" fill-opacity="0.5019608" fill-rule="evenodd" stroke="none"/>
    <path d="M0.95 0.6 L0.55 0.45 0.15 0.35 Q0.0 0.35 -0.3 0.45 L-0.8 0.65 Q-1.25 0.9 -1.35 1.55 L-1.4 2.45 Q-1.55 2.85 -1.2 2.95 L-0.75 3.05 Q-0.55 3.05 -0.2 3.25 L0.2 3.5 Q0.4 3.5 0.6 3.25 0.85 2.95 1.0 2.8 L1.3 2.6 1.25 2.6 1.25 2.55 Q1.5 2.5 1.65 1.95 L1.7 1.6 Q1.7 1.5 1.45 1.1 1.15 0.7 0.95 0.6 M1.25 0.75 Q1.8 1.2 1.8 1.55 1.8 1.8 1.7 2.0 1.7 2.2 1.55 2.4 L1.35 2.55 1.0 2.95 Q0.35 3.55 0.15 3.55 -0.05 3.55 -0.25 3.4 -0.5 3.15 -0.8 3.1 L-1.3 3.0 Q-1.65 2.9 -1.55 2.5 -1.3 2.15 -1.45 1.6 -1.55 1.15 -1.25 0.9 L-1.05 0.65 -0.85 0.5 Q-0.6 0.35 -0.35 0.3 L0.15 0.3 Q0.65 0.3 1.25 0.75 M-1.1 0.8 L-1.0 0.75 Q-1.05 0.75 -1.1 0.8 M-1.3 1.1 L-1.2 0.95 -1.25 1.0 -1.3 1.1" fill="#ffffff" fill-rule="evenodd" stroke="none"/>
  </g>
</svg>
