<?xml version="1.0" encoding="UTF-8" standalone="no"?>
<svg xmlns:ffdec="https://www.free-decompiler.com/flash" xmlns:xlink="http://www.w3.org/1999/xlink" ffdec:objectType="shape" height="13.3px" width="57.4px" xmlns="http://www.w3.org/2000/svg">
  <g transform="matrix(1.0, 0.0, 0.0, 1.0, 28.7, 6.65)">
    <path d="M10.4 -2.65 Q5.7 -4.65 0.65 -5.7 -1.8 -6.25 -3.05 -6.65 7.85 -6.65 16.85 -2.25 22.55 0.6 26.7 3.95 L28.1 4.75 28.4 4.85 28.3 4.85 Q29.3 5.55 27.75 5.8 22.05 6.9 16.05 6.6 5.4 6.7 -5.0 4.3 L-4.25 4.75 Q-8.0 4.15 -11.65 3.25 -9.1 4.25 -6.75 5.3 -16.4 4.6 -24.5 0.0 -27.6 -1.75 -28.0 -3.45 -28.55 -3.85 -28.7 -4.3 L-28.7 -4.5 -28.55 -4.7 Q-28.45 -4.8 -28.4 -4.9 L-28.3 -5.05 -28.1 -5.25 -27.85 -5.4 -27.3 -5.75 Q-26.85 -5.9 -26.3 -6.05 L-25.8 -6.15 Q-21.3 -6.35 -16.85 -6.2 L-9.8 -6.0 -4.15 -5.5 0.15 -4.9 Q5.4 -4.05 10.4 -2.65 M20.8 3.9 Q11.8 0.75 2.2 -1.6 -3.7 -3.05 -9.9 -3.5 -12.7 -3.65 -15.55 -3.6 -5.4 -0.15 5.45 2.1 13.3 3.75 20.8 3.9 M-22.45 -4.5 L-22.6 -4.5 -22.6 -4.2 -22.45 -4.5 M-16.45 -2.1 Q-16.25 -2.0 -15.95 -1.95 L-15.45 -1.8 Q-15.3 -2.1 -16.15 -2.35 L-16.95 -2.4 -16.9 -2.35 Q-16.7 -2.2 -16.45 -2.1 M-17.45 -2.6 Q-18.0 -3.0 -18.85 -3.05 L-19.25 -3.05 Q-19.0 -2.8 -18.55 -2.75 L-17.45 -2.6" fill="#ffcc00" fill-rule="evenodd" stroke="none"/>
  </g>
</svg>
