<?xml version="1.0" encoding="UTF-8" standalone="no"?>
<svg xmlns:ffdec="https://www.free-decompiler.com/flash" xmlns:xlink="http://www.w3.org/1999/xlink" ffdec:objectType="shape" height="26.5px" width="50.4px" xmlns="http://www.w3.org/2000/svg">
  <g transform="matrix(1.0, 0.0, 0.0, 1.0, 24.8, 17.65)">
    <path d="M0.4 -17.65 Q4.95 -17.65 8.95 -16.9 11.2 -14.75 13.1 -12.3 L13.05 -12.2 13.0 -12.05 Q14.55 -8.55 15.35 -4.65 15.6 -3.35 15.7 -2.05 L15.55 -2.35 Q14.35 -4.35 13.05 -6.35 13.25 -4.9 13.75 -3.0 14.45 -0.45 15.8 0.6 15.8 2.55 15.45 4.45 17.75 1.65 17.6 -2.6 17.5 -4.4 17.1 -6.05 17.6 -5.05 18.1 -4.05 20.1 0.35 20.6 4.6 19.5 5.4 18.2 6.15 15.7 7.55 12.8 8.45 13.05 5.25 9.2 4.15 4.9 2.95 0.4 2.8 -7.5 2.65 -10.75 8.85 -14.35 7.85 -17.45 6.15 -19.9 4.8 -21.5 3.25 -19.6 -5.35 -15.8 -13.5 L-15.2 -14.7 Q-13.4 -15.5 -11.5 -16.05 -12.05 -15.05 -12.45 -13.95 -14.4 -11.9 -15.35 -9.0 -16.35 -6.1 -16.4 -3.4 -16.5 -2.7 -16.35 -2.05 L-16.25 -1.15 -16.2 -1.5 -16.15 -1.45 Q-15.1 -2.85 -13.85 -4.15 -11.95 -6.1 -11.1 -8.45 -12.9 -7.65 -14.55 -6.2 L-14.75 -6.0 Q-14.2 -7.35 -13.55 -8.7 -12.8 -10.2 -12.4 -11.55 L-12.35 -11.5 Q-12.25 -10.8 -11.45 -10.0 -9.8 -8.45 -7.95 -7.75 L-7.8 -7.7 Q-4.15 -6.05 -0.75 -7.4 L-0.65 -7.3 Q4.3 -1.85 8.1 -8.55 L8.25 -8.55 Q9.2 -8.3 10.2 -8.3 L10.2 -8.35 9.15 -8.6 Q8.65 -8.7 8.25 -8.9 8.2 -8.95 8.15 -9.05 8.25 -11.1 7.15 -12.8 5.45 -15.4 2.1 -14.85 1.1 -14.55 0.15 -13.8 -2.8 -11.6 -1.85 -9.1 L-2.7 -8.85 -3.4 -8.8 -4.85 -8.75 -3.8 -8.65 Q-4.9 -8.5 -5.9 -8.6 L-6.35 -8.65 Q-7.5 -8.85 -8.65 -9.4 L-8.7 -9.15 Q-9.95 -9.6 -10.7 -10.55 -10.0 -10.2 -9.3 -9.9 -10.55 -10.85 -11.1 -12.5 -7.55 -12.15 -3.95 -14.3 -2.25 -15.3 -0.8 -16.55 -0.15 -17.15 0.35 -17.65 L0.4 -17.65 M-24.35 -0.9 L-23.4 -3.6 Q-21.85 -8.05 -19.85 -12.05 -18.75 -12.85 -17.45 -13.6 L-16.8 -13.9 Q-18.8 -10.4 -20.45 -6.6 -22.15 -2.5 -23.05 1.5 -23.9 0.35 -24.35 -0.9 M21.3 -1.9 Q18.25 -10.1 12.7 -15.9 15.65 -15.0 18.2 -13.6 25.6 -9.5 25.6 -3.7 25.6 -0.05 22.55 2.95 22.25 0.6 21.3 -1.9 M-24.8 -3.7 Q-24.8 -7.45 -21.7 -10.5 -22.35 -9.1 -22.9 -7.6 -23.9 -4.9 -24.7 -2.3 -24.8 -3.0 -24.8 -3.7" fill="#99ffff" fill-opacity="0.3019608" fill-rule="evenodd" stroke="none"/>
  </g>
</svg>
