<?xml version="1.0" encoding="UTF-8" standalone="no"?>
<svg xmlns:ffdec="https://www.free-decompiler.com/flash" xmlns:xlink="http://www.w3.org/1999/xlink" ffdec:objectType="shape" height="26.25px" width="33.25px" xmlns="http://www.w3.org/2000/svg">
  <g transform="matrix(1.0, 0.0, 0.0, 1.0, 15.05, 24.25)">
    <path d="M11.65 -20.65 L10.8 -20.0 Q10.2 -18.8 10.45 -17.45 L10.2 -17.2 Q10.35 -17.0 10.6 -16.9 L10.65 -16.75 Q11.05 -15.6 11.9 -16.15 12.15 -16.35 12.4 -16.55 13.55 -15.35 14.0 -13.8 14.8 -11.0 13.7 -9.0 13.05 -7.45 11.5 -6.6 12.3 -8.15 13.35 -9.55 13.5 -9.85 13.45 -10.15 13.4 -10.4 13.5 -10.65 L13.55 -10.8 12.55 -10.35 Q12.1 -10.15 11.7 -9.85 L11.7 -9.8 Q10.95 -8.65 10.05 -7.6 L10.0 -7.7 9.9 -7.95 Q9.2 -7.65 8.4 -7.3 7.65 -6.8 6.8 -6.4 6.6 -6.3 6.4 -6.2 L6.0 -6.0 Q5.35 -5.6 4.7 -5.7 L3.0 -5.65 Q3.45 -5.85 3.9 -6.05 3.7 -6.15 3.6 -6.35 4.55 -6.7 5.95 -7.1 9.35 -9.15 11.75 -12.4 L11.75 -12.45 Q11.8 -13.65 10.95 -14.9 L10.95 -14.95 Q9.7 -15.7 8.25 -16.05 7.55 -16.05 7.0 -15.6 6.85 -15.45 6.7 -15.3 6.35 -14.85 6.1 -14.15 5.75 -13.0 4.95 -13.35 4.6 -14.95 4.25 -16.65 4.15 -17.3 3.6 -17.7 3.1 -18.15 3.45 -18.65 L3.45 -18.7 Q4.2 -19.15 5.15 -18.7 5.6 -18.5 6.0 -18.15 L6.6 -18.0 Q7.15 -18.25 7.75 -18.6 L7.95 -18.7 9.15 -19.5 Q10.05 -20.7 10.85 -22.05 L11.0 -22.25 Q11.25 -22.4 11.5 -22.45 L11.95 -22.55 Q13.8 -21.6 15.0 -19.6 16.05 -17.9 16.45 -16.05 14.75 -15.8 13.7 -17.8 L13.45 -18.25 Q13.6 -19.5 12.2 -20.9 11.9 -20.8 11.65 -20.65 M7.75 -16.15 L7.5 -16.2 7.35 -16.0 7.75 -16.15 M-13.1 -9.5 Q-13.25 -9.9 -13.35 -10.3 L-12.95 -10.9 -12.55 -11.45 -12.45 -11.7 Q-11.55 -12.55 -10.5 -12.9 -10.95 -12.35 -11.45 -11.85 -12.05 -11.3 -11.65 -10.75 -9.9 -10.65 -8.5 -12.25 L-7.8 -13.05 Q-6.45 -12.85 -5.2 -12.55 -5.0 -12.15 -5.1 -11.75 -5.1 -11.45 -5.0 -11.25 L-4.4 -10.3 -4.3 -10.15 -4.3 -10.0 Q-5.3 -9.3 -5.95 -10.15 -7.8 -9.9 -9.15 -8.2 -9.65 -7.5 -8.85 -6.65 L-6.3 -4.1 -6.15 -4.05 Q-5.6 -3.95 -5.2 -4.3 -4.9 -4.5 -4.55 -4.4 -4.4 -4.2 -4.3 -4.0 L-4.25 -3.9 -4.5 -3.85 -4.9 -3.65 Q-5.65 -1.75 -5.2 0.25 L-5.3 0.15 Q-8.25 -2.7 -11.85 -0.95 L-11.95 -0.75 -12.4 -0.65 -12.45 -0.55 -12.45 -0.75 Q-12.25 -2.4 -11.8 -3.85 -12.2 -4.45 -12.05 -5.0 L-11.6 -4.8 Q-11.1 -3.7 -10.85 -2.5 -10.15 -2.8 -9.85 -3.25 L-9.5 -3.05 -9.15 -3.2 -9.65 -3.8 Q-9.5 -4.6 -10.05 -5.75 -11.15 -8.05 -12.9 -9.1 L-13.1 -9.5 M-6.4 -10.75 L-6.3 -10.75 -6.35 -10.8 -6.4 -10.75 M-7.35 -3.65 L-7.35 -3.65" fill="#ffffff" fill-rule="evenodd" stroke="none"/>
    <path d="M11.65 -20.65 L10.8 -20.0 Q10.2 -18.8 10.45 -17.45 L10.2 -17.2 Q10.35 -17.0 10.6 -16.9 L10.65 -16.75 Q11.05 -15.6 11.9 -16.15 12.15 -16.35 12.4 -16.55 13.55 -15.35 14.0 -13.8 14.8 -11.0 13.7 -9.0 13.05 -7.45 11.5 -6.6 12.3 -8.15 13.35 -9.55 13.5 -9.85 13.45 -10.15 13.4 -10.4 13.5 -10.65 L13.55 -10.8 12.55 -10.35 Q12.1 -10.15 11.7 -9.85 L11.7 -9.8 Q10.95 -8.65 10.05 -7.6 L10.0 -7.7 9.9 -7.95 Q9.2 -7.65 8.4 -7.3 7.65 -6.8 6.8 -6.4 6.6 -6.3 6.4 -6.2 L6.0 -6.0 Q5.35 -5.6 4.7 -5.7 L3.0 -5.65 Q3.45 -5.85 3.9 -6.05 3.7 -6.15 3.6 -6.35 4.55 -6.7 5.95 -7.1 9.35 -9.15 11.75 -12.4 L11.75 -12.45 Q11.8 -13.65 10.95 -14.9 L10.95 -14.95 Q9.7 -15.7 8.25 -16.05 7.55 -16.05 7.0 -15.6 6.85 -15.45 6.7 -15.3 6.35 -14.85 6.1 -14.15 5.75 -13.0 4.95 -13.35 4.6 -14.95 4.25 -16.65 4.15 -17.3 3.6 -17.7 3.1 -18.15 3.45 -18.65 L3.45 -18.7 Q4.2 -19.15 5.15 -18.7 5.6 -18.5 6.0 -18.15 L6.6 -18.0 Q7.15 -18.25 7.75 -18.6 L7.95 -18.7 9.15 -19.5 Q10.05 -20.7 10.85 -22.05 L11.0 -22.25 Q11.25 -22.4 11.5 -22.45 L11.95 -22.55 Q13.8 -21.6 15.0 -19.6 16.05 -17.9 16.45 -16.05 14.75 -15.8 13.7 -17.8 L13.45 -18.25 Q13.6 -19.5 12.2 -20.9 11.9 -20.8 11.65 -20.65 M-13.1 -9.5 Q-13.25 -9.9 -13.35 -10.3 L-12.95 -10.9 -12.55 -11.45 -12.45 -11.7 Q-11.55 -12.55 -10.5 -12.9 -10.95 -12.35 -11.45 -11.85 -12.05 -11.3 -11.65 -10.75 -9.9 -10.65 -8.5 -12.25 L-7.8 -13.05 Q-6.45 -12.85 -5.2 -12.55 -5.0 -12.15 -5.1 -11.75 -5.1 -11.45 -5.0 -11.25 L-4.4 -10.3 -4.3 -10.15 -4.3 -10.0 Q-5.3 -9.3 -5.95 -10.15 -7.8 -9.9 -9.15 -8.2 -9.65 -7.5 -8.85 -6.65 L-6.3 -4.1 -6.15 -4.05 Q-5.6 -3.95 -5.2 -4.3 -4.9 -4.5 -4.55 -4.4 -4.4 -4.2 -4.3 -4.0 L-4.25 -3.9 -4.5 -3.85 -4.9 -3.65 Q-5.65 -1.75 -5.2 0.25 L-5.3 0.15 Q-8.25 -2.7 -11.85 -0.95 L-11.95 -0.75 -12.4 -0.65 -12.45 -0.55 -12.45 -0.75 Q-12.25 -2.4 -11.8 -3.85 -12.2 -4.45 -12.05 -5.0 L-11.6 -4.8 Q-11.1 -3.7 -10.85 -2.5 -10.15 -2.8 -9.85 -3.25 L-9.5 -3.05 -9.15 -3.2 -9.65 -3.8 Q-9.5 -4.6 -10.05 -5.75 -11.15 -8.05 -12.9 -9.1 L-13.1 -9.5 M-6.4 -10.75 L-6.3 -10.75 -6.35 -10.8 -6.4 -10.75 M-7.35 -3.65 L-7.35 -3.65 Z" fill="none" stroke="#ffffff" stroke-linecap="round" stroke-linejoin="round" stroke-opacity="0.3019608" stroke-width="1.1500000000000001"/>
  </g>
</svg>
