<?xml version="1.0" encoding="UTF-8" standalone="no"?>
<svg xmlns:ffdec="https://www.free-decompiler.com/flash" xmlns:xlink="http://www.w3.org/1999/xlink" ffdec:objectType="shape" height="33.1px" width="26.6px" xmlns="http://www.w3.org/2000/svg">
  <g transform="matrix(1.0, 0.0, 0.0, 1.0, 13.6, 42.0)">
    <path d="M0.55 -36.25 L0.6 -36.2 Q1.75 -35.05 2.5 -33.6 2.35 -33.2 1.95 -33.05 2.0 -32.45 1.8 -31.7 1.2 -29.75 0.15 -28.7 0.15 -28.25 0.15 -27.85 0.65 -27.7 0.9 -28.15 1.25 -28.7 1.85 -28.4 L1.95 -28.3 Q2.5 -26.45 -0.05 -26.7 -1.05 -26.8 -1.5 -27.65 -0.7 -28.75 -0.2 -30.0 0.05 -30.95 0.35 -31.9 0.55 -32.9 0.35 -33.9 L0.1 -34.2 Q-0.25 -34.25 -0.55 -34.45 L-0.5 -34.75 -0.4 -34.7 -0.5 -34.8 Q-0.25 -36.9 -2.9 -36.85 -3.35 -35.95 -4.0 -34.95 -4.6 -34.0 -4.5 -33.1 -4.7 -32.05 -4.75 -31.0 L-4.7 -30.6 Q-4.4 -29.45 -5.1 -28.75 -5.5 -28.55 -5.8 -28.7 L-5.95 -28.7 Q-6.35 -28.85 -6.65 -29.3 -6.95 -29.75 -7.45 -29.9 -8.35 -28.85 -8.1 -27.45 -7.4 -26.95 -6.7 -26.3 -6.2 -25.85 -5.75 -25.25 L-6.0 -25.25 -5.8 -25.0 Q-6.35 -25.1 -6.85 -25.25 -6.3 -24.8 -5.55 -24.9 L-5.5 -24.8 Q-5.5 -24.6 -5.65 -24.45 L-5.8 -24.3 -5.85 -24.35 Q-6.9 -24.7 -7.45 -25.4 -10.5 -26.55 -11.6 -30.0 L-11.6 -30.1 -11.85 -30.95 Q-11.95 -31.35 -11.75 -32.0 -10.7 -35.75 -7.55 -37.25 -7.55 -36.6 -7.7 -35.9 L-8.05 -36.05 Q-8.75 -34.65 -9.25 -33.05 -9.75 -31.35 -9.3 -29.8 -7.7 -30.15 -7.15 -32.25 L-7.05 -32.7 Q-5.4 -36.3 -4.6 -39.9 -4.55 -40.15 -4.45 -40.3 -3.1 -39.75 -2.0 -38.95 L-3.05 -39.2 Q-3.35 -37.7 -0.75 -36.75 -0.1 -36.45 0.55 -36.25 M9.75 -21.45 Q10.05 -21.35 10.4 -21.1 L11.3 -20.4 10.55 -19.55 9.9 -19.5 Q9.1 -19.2 8.4 -18.65 7.8 -17.9 7.75 -16.85 7.7 -15.6 8.3 -14.5 8.4 -14.25 8.55 -14.1 6.75 -13.3 4.8 -13.05 5.0 -11.4 7.9 -11.9 9.3 -12.15 10.45 -12.75 9.45 -10.2 5.45 -10.7 0.8 -11.3 0.8 -15.8 0.6 -15.95 0.4 -16.2 0.05 -16.65 0.2 -17.25 1.3 -17.55 2.45 -16.5 2.95 -16.1 2.85 -15.45 3.35 -15.3 3.65 -14.85 L3.65 -14.8 Q3.85 -14.75 4.05 -14.6 4.25 -14.5 4.5 -14.45 5.15 -14.55 5.55 -14.85 5.5 -15.65 5.75 -16.45 5.9 -17.0 5.8 -17.5 L5.05 -17.5 Q4.55 -17.85 4.25 -18.45 4.0 -18.85 4.15 -19.4 4.5 -19.95 5.15 -19.95 5.2 -19.95 5.3 -20.0 5.25 -21.2 4.6 -22.25 4.3 -22.1 3.95 -22.35 3.6 -22.6 3.25 -22.8 2.9 -22.8 2.6 -22.45 2.2 -22.05 1.85 -22.45 1.3 -23.4 2.2 -24.45 2.4 -24.7 2.7 -24.85 2.55 -25.15 2.5 -25.45 L3.0 -25.0 3.15 -25.05 Q3.4 -25.35 3.45 -25.75 3.5 -26.25 3.7 -26.55 5.75 -26.45 7.15 -24.3 L7.4 -23.9 Q7.2 -23.1 7.1 -22.25 6.85 -20.55 8.1 -19.65 8.9 -20.3 9.2 -21.55 L9.75 -21.45 M5.6 -14.4 L5.5 -14.35 5.6 -14.25 5.6 -14.4 M10.1 -19.6 Q10.25 -19.7 10.25 -19.85 L10.1 -19.6 M7.85 -17.85 L8.0 -18.15 7.8 -17.9 7.85 -17.85 M-8.2 -28.8 L-8.2 -27.7 -8.35 -27.65 -8.2 -27.5 -8.2 -28.15 Q-8.2 -28.9 -8.05 -29.4 -8.15 -29.15 -8.2 -28.8 M-8.35 -27.65 Q-8.4 -27.6 -8.45 -27.55 L-8.4 -27.55 -8.35 -27.65" fill="#ffffff" fill-rule="evenodd" stroke="none"/>
    <path d="M0.55 -36.25 Q-0.1 -36.45 -0.75 -36.75 -3.35 -37.7 -3.05 -39.2 L-2.0 -38.95 Q-3.1 -39.75 -4.45 -40.3 -4.55 -40.15 -4.6 -39.9 -5.4 -36.3 -7.05 -32.7 L-7.15 -32.25 Q-7.7 -30.15 -9.3 -29.8 -9.75 -31.35 -9.25 -33.05 -8.75 -34.65 -8.05 -36.05 L-7.7 -35.9 Q-7.55 -36.6 -7.55 -37.25 -10.7 -35.75 -11.75 -32.0 -11.95 -31.35 -11.85 -30.95 L-11.6 -30.1 -11.6 -30.0 Q-10.5 -26.55 -7.45 -25.4 -6.9 -24.7 -5.85 -24.35 L-5.8 -24.3 -5.65 -24.45 Q-5.5 -24.6 -5.5 -24.8 L-5.55 -24.9 Q-6.3 -24.8 -6.85 -25.25 -6.35 -25.1 -5.8 -25.0 L-6.0 -25.25 -5.75 -25.25 Q-6.2 -25.85 -6.7 -26.3 -7.4 -26.95 -8.1 -27.45 -8.35 -28.85 -7.45 -29.9 -6.95 -29.75 -6.65 -29.3 -6.35 -28.85 -5.95 -28.7 L-5.8 -28.7 Q-5.5 -28.55 -5.1 -28.75 -4.4 -29.45 -4.7 -30.6 L-4.75 -31.0 Q-4.7 -32.05 -4.5 -33.1 -4.6 -34.0 -4.0 -34.95 -3.35 -35.95 -2.9 -36.85 -0.25 -36.9 -0.5 -34.8 L-0.4 -34.7 -0.5 -34.75 -0.55 -34.45 Q-0.25 -34.25 0.1 -34.2 L0.35 -33.9 Q0.55 -32.9 0.35 -31.9 0.05 -30.95 -0.2 -30.0 -0.7 -28.75 -1.5 -27.65 -1.05 -26.8 -0.05 -26.7 2.5 -26.45 1.95 -28.3 L1.85 -28.4 Q1.25 -28.7 0.9 -28.15 0.65 -27.7 0.15 -27.85 0.15 -28.25 0.15 -28.7 1.2 -29.75 1.8 -31.7 2.0 -32.45 1.95 -33.05 2.35 -33.2 2.5 -33.6 1.75 -35.05 0.6 -36.2 L0.55 -36.25 M9.75 -21.45 Q10.05 -21.35 10.4 -21.1 L11.3 -20.4 10.55 -19.55 9.9 -19.5 Q9.1 -19.2 8.4 -18.65 7.8 -17.9 7.75 -16.85 7.7 -15.6 8.3 -14.5 8.4 -14.25 8.55 -14.1 6.75 -13.3 4.8 -13.05 5.0 -11.4 7.9 -11.9 9.3 -12.15 10.45 -12.75 9.45 -10.2 5.45 -10.7 0.8 -11.3 0.8 -15.8 0.6 -15.95 0.4 -16.2 0.05 -16.65 0.2 -17.25 1.3 -17.55 2.45 -16.5 2.95 -16.1 2.85 -15.45 3.35 -15.3 3.65 -14.85 L3.65 -14.8 Q3.85 -14.75 4.05 -14.6 4.25 -14.5 4.5 -14.45 5.15 -14.55 5.55 -14.85 5.5 -15.65 5.75 -16.45 5.9 -17.0 5.8 -17.5 L5.05 -17.5 Q4.55 -17.85 4.25 -18.45 4.0 -18.85 4.15 -19.4 4.5 -19.95 5.15 -19.95 5.2 -19.95 5.3 -20.0 5.25 -21.2 4.6 -22.25 4.3 -22.1 3.95 -22.35 3.6 -22.6 3.25 -22.8 2.9 -22.8 2.6 -22.45 2.2 -22.05 1.85 -22.45 1.3 -23.4 2.2 -24.45 2.4 -24.7 2.7 -24.85 2.55 -25.15 2.5 -25.45 L3.0 -25.0 3.15 -25.05 Q3.4 -25.35 3.45 -25.75 3.5 -26.25 3.7 -26.55 5.75 -26.45 7.15 -24.3 L7.4 -23.9 Q7.2 -23.1 7.1 -22.25 6.85 -20.55 8.1 -19.65 8.9 -20.3 9.2 -21.55 L9.75 -21.45 M5.6 -14.4 L5.5 -14.35 5.6 -14.25 5.6 -14.4 M10.1 -19.6 Q10.25 -19.7 10.25 -19.85 L10.1 -19.6 M7.85 -17.85 L8.0 -18.15 7.8 -17.9 7.85 -17.85 M-8.2 -28.8 L-8.2 -27.7 -8.35 -27.65 -8.2 -27.5 -8.2 -28.15 Q-8.2 -28.9 -8.05 -29.4 -8.15 -29.15 -8.2 -28.8 M-8.35 -27.65 L-8.4 -27.55 -8.45 -27.55 Q-8.4 -27.6 -8.35 -27.65 Z" fill="none" stroke="#ffffff" stroke-linecap="round" stroke-linejoin="round" stroke-opacity="0.3019608" stroke-width="1.1500000000000001"/>
  </g>
</svg>
