<?xml version="1.0" encoding="UTF-8" standalone="no"?>
<svg xmlns:ffdec="https://www.free-decompiler.com/flash" xmlns:xlink="http://www.w3.org/1999/xlink" ffdec:objectType="shape" height="547.05px" width="508.65px" xmlns="http://www.w3.org/2000/svg">
  <g transform="matrix(1.0, 0.0, 0.0, 1.0, -583.8, -76.5)">
    <path d="M1058.6 79.75 L1058.75 79.85 1073.95 95.05 1089.25 79.75 1092.45 79.75 1092.1 80.35 1074.8 97.65 Q1074.45 98.05 1073.95 98.05 1073.45 98.05 1073.05 97.65 L1055.75 80.35 1055.4 79.75 1058.6 79.75 M939.75 169.75 L942.95 169.75 942.6 170.35 925.3 187.65 Q924.95 188.05 924.45 188.05 923.95 188.05 923.55 187.65 L906.25 170.35 905.9 169.75 909.1 169.75 909.25 169.85 924.45 185.05 939.75 169.75 M737.05 389.6 L737.05 386.4 737.65 386.75 754.95 404.05 Q755.35 404.4 755.35 404.9 755.35 405.4 754.95 405.8 L738.55 422.25 755.35 439.05 Q755.75 439.4 755.75 439.9 755.75 440.4 755.35 440.8 L738.05 458.1 737.45 458.45 737.45 455.25 737.55 455.1 752.75 439.9 737.45 424.6 737.45 423.3 737.05 423.45 737.05 420.25 737.15 420.1 752.35 404.9 737.05 389.6 M830.05 589.6 L830.05 586.4 Q830.4 586.45 830.65 586.75 L846.95 603.05 846.95 606.8 830.65 623.1 830.05 623.45 830.05 620.25 830.15 620.1 845.35 604.9 830.05 589.6 M737.05 493.6 L737.05 490.4 737.65 490.75 754.95 508.05 Q755.35 508.4 755.35 508.9 755.35 509.4 754.95 509.8 L737.65 527.1 737.05 527.45 737.05 524.25 737.15 524.1 752.35 508.9 737.05 493.6 M846.95 599.8 L846.95 596.05 847.95 597.05 Q848.35 597.4 848.35 597.9 848.35 598.4 847.95 598.8 L846.95 599.8 M587.05 184.6 L587.05 181.4 587.65 181.75 604.95 199.05 Q605.35 199.4 605.35 199.9 605.35 200.4 604.95 200.8 L587.65 218.1 587.05 218.45 587.05 215.25 587.15 215.1 602.35 199.9 587.05 184.6" fill="#332c02" fill-rule="evenodd" stroke="none"/>
    <path d="M1089.25 79.75 L1073.95 95.05 1058.75 79.85 1058.6 79.75 1058.65 79.7 Q1058.0 79.2 1057.75 78.55 L1056.9 78.1 1055.3 77.15 1055.75 76.75 Q1056.05 76.75 1056.8 77.1 L1056.85 76.85 1057.6 76.85 1057.8 77.0 1070.75 77.1 1082.2 76.75 1086.1 76.75 1088.0 76.7 1089.7 76.95 Q1090.2 76.6 1090.6 76.5 L1091.35 76.5 Q1091.6 77.2 1091.3 77.35 L1090.5 77.85 1090.05 78.55 1089.6 78.95 1089.55 79.3 1089.45 79.4 1089.15 79.75 1089.25 79.75 M909.1 169.75 L909.15 169.7 Q908.5 169.2 908.25 168.55 L907.4 168.1 905.8 167.15 906.25 166.75 907.3 167.1 907.35 166.85 908.1 166.85 908.3 167.0 921.25 167.1 932.7 166.75 936.6 166.75 938.5 166.7 940.2 166.95 Q940.7 166.6 941.1 166.5 L941.85 166.5 Q942.1 167.2 941.8 167.35 L941.0 167.85 940.55 168.55 940.1 168.95 940.05 169.3 939.95 169.4 939.65 169.75 939.75 169.75 924.45 185.05 909.25 169.85 909.1 169.75 M737.45 455.25 L737.4 455.2 Q736.9 455.85 736.25 456.1 L735.8 456.95 734.85 458.55 734.45 458.1 Q734.45 457.8 734.8 457.05 L734.55 457.0 734.55 456.25 734.7 456.05 734.8 443.1 734.45 431.65 734.45 427.75 734.4 425.85 Q734.4 424.8 734.65 424.15 L734.25 423.4 734.05 423.1 734.2 422.5 734.4 422.05 734.15 422.0 734.15 421.25 734.3 421.05 734.4 408.1 734.05 396.65 734.05 392.75 734.0 390.85 Q734.0 389.8 734.25 389.15 L733.8 388.25 733.8 387.5 734.65 387.55 735.15 388.35 735.85 388.8 736.25 389.25 736.6 389.3 736.7 389.4 737.05 389.7 737.05 389.6 752.35 404.9 737.15 420.1 737.05 420.25 737.0 420.2 735.85 421.1 735.4 421.95 735.05 422.5 735.05 422.55 735.55 423.35 736.25 423.8 736.65 424.25 737.0 424.3 737.1 424.4 737.45 424.7 737.45 424.6 752.75 439.9 737.55 455.1 737.45 455.25 M830.05 620.25 L830.0 620.2 828.85 621.1 828.4 621.95 Q827.6 623.1 827.45 623.55 L827.05 623.1 Q827.05 622.8 827.4 622.05 L827.15 622.0 827.15 621.25 827.3 621.05 827.4 608.1 827.05 596.65 827.05 592.75 827.0 590.85 Q827.0 589.8 827.25 589.15 L826.8 588.25 826.8 587.5 827.65 587.55 828.15 588.35 828.85 588.8 Q829.25 589.0 829.25 589.25 L829.6 589.3 829.7 589.4 830.05 589.7 830.05 589.6 845.35 604.9 830.15 620.1 830.05 620.25 M737.05 524.25 L737.0 524.2 735.85 525.1 735.4 525.95 734.45 527.55 734.05 527.1 Q734.05 526.8 734.4 526.05 L734.15 526.0 734.15 525.25 734.3 525.05 734.4 512.1 734.05 500.65 734.05 496.75 734.0 494.85 Q734.0 493.8 734.25 493.15 L733.8 492.25 733.8 491.5 734.65 491.55 735.15 492.35 735.85 492.8 736.25 493.25 736.6 493.3 736.7 493.4 737.05 493.7 737.05 493.6 752.35 508.9 737.15 524.1 737.05 524.25 M587.05 215.25 L587.0 215.2 585.85 216.1 585.4 216.95 584.45 218.55 584.05 218.1 Q584.05 217.8 584.4 217.05 L584.15 217.0 584.15 216.25 584.3 216.05 584.4 203.1 584.05 191.65 584.05 187.75 584.0 185.85 Q584.0 184.8 584.25 184.15 L583.8 183.25 583.8 182.5 584.65 182.55 585.15 183.35 585.85 183.8 586.25 184.25 586.6 184.3 586.7 184.4 587.05 184.7 587.05 184.6 602.35 199.9 587.15 215.1 587.05 215.25" fill="#f8dd45" fill-rule="evenodd" stroke="none"/>
  </g>
</svg>
