<?xml version="1.0" encoding="UTF-8" standalone="no"?>
<svg xmlns:ffdec="https://www.free-decompiler.com/flash" xmlns:xlink="http://www.w3.org/1999/xlink" ffdec:objectType="shape" height="229.85px" width="366.9px" xmlns="http://www.w3.org/2000/svg">
  <g transform="matrix(1.0, 0.0, 0.0, 1.0, -394.6, -210.55)">
    <path d="M760.5 434.0 L759.7 434.65 759.75 434.5 Q760.15 434.2 760.5 434.0 M761.5 360.0 L760.7 360.65 760.75 360.5 761.5 360.0 M760.5 284.85 L759.7 285.5 759.75 285.35 Q760.15 285.05 760.5 284.85 M760.2 212.35 L760.95 211.85 760.15 212.5 760.2 212.35 M394.6 211.2 L394.65 211.05 Q395.05 210.75 395.4 210.55 L394.6 211.2 M394.9 440.3 L395.65 439.75 394.85 440.4 394.9 440.3 M396.15 360.4 L395.35 361.05 395.4 360.95 Q395.75 360.6 396.15 360.4 M396.15 285.75 L395.35 286.4 395.4 286.3 Q395.75 285.95 396.15 285.75" fill="#ff0000" fill-rule="evenodd" stroke="none"/>
  </g>
</svg>
