<?xml version="1.0" encoding="UTF-8" standalone="no"?>
<svg xmlns:ffdec="https://www.free-decompiler.com/flash" xmlns:xlink="http://www.w3.org/1999/xlink" ffdec:objectType="shape" height="53.0px" width="140.45px" xmlns="http://www.w3.org/2000/svg">
  <g transform="matrix(1.0, 0.0, 0.0, 1.0, 26.5, 26.5)">
    <path d="M113.95 -16.5 L113.95 16.5 Q113.95 26.5 103.95 26.5 L-16.5 26.5 Q-26.5 26.5 -26.5 16.5 L-26.5 -16.5 Q-26.5 -26.5 -16.5 -26.5 L103.95 -26.5 Q113.95 -26.5 113.95 -16.5 M103.95 -22.5 L-16.5 -22.5 Q-22.5 -22.5 -22.5 -16.5 L-22.5 16.5 Q-22.5 22.5 -16.5 22.5 L103.95 22.5 Q109.95 22.5 109.95 16.5 L109.95 -16.5 Q109.95 -22.5 103.95 -22.5" fill="#2d94c9" fill-rule="evenodd" stroke="none"/>
    <path d="M103.95 -22.5 Q109.95 -22.5 109.95 -16.5 L109.95 16.5 Q109.95 22.5 103.95 22.5 L-16.5 22.5 Q-22.5 22.5 -22.5 16.5 L-22.5 -16.5 Q-22.5 -22.5 -16.5 -22.5 L103.95 -22.5" fill="#bdf2ff" fill-rule="evenodd" stroke="none"/>
  </g>
</svg>
