<?xml version="1.0" encoding="UTF-8" standalone="no"?>
<svg xmlns:ffdec="https://www.free-decompiler.com/flash" xmlns:xlink="http://www.w3.org/1999/xlink" ffdec:objectType="shape" height="39.25px" width="35.25px" xmlns="http://www.w3.org/2000/svg">
  <g transform="matrix(1.0, 0.0, 0.0, 1.0, 17.35, 37.4)">
    <path d="M8.9 1.85 L7.75 1.85 Q3.05 1.15 0.3 0.25 -1.2 -0.25 -3.1 -1.3 -3.45 -1.5 -3.9 -1.9 -4.5 -2.35 -5.7 -3.35 L-7.6 -5.05 -8.1 -5.35 -9.05 -5.35 Q-8.95 -5.35 -8.9 -5.3 -9.35 -5.3 -11.15 -5.7 -13.55 -6.25 -13.55 -6.75 -13.55 -7.25 -12.95 -7.55 -12.6 -7.7 -12.25 -7.65 L-13.1 -8.05 Q-14.75 -8.9 -14.75 -9.65 -14.75 -10.15 -14.6 -10.3 -14.5 -10.5 -14.2 -10.55 -14.7 -10.9 -15.3 -11.05 L-16.35 -11.2 Q-16.9 -11.2 -17.05 -11.4 -17.35 -11.65 -17.35 -12.35 L-17.35 -12.9 Q-17.35 -13.15 -17.25 -13.35 -16.95 -13.7 -15.7 -13.85 -15.95 -14.05 -16.3 -14.15 -16.85 -14.35 -17.0 -14.5 -17.3 -14.75 -17.3 -15.25 -17.3 -16.0 -17.0 -16.35 -16.65 -16.85 -15.65 -17.15 L-16.6 -17.95 Q-17.2 -18.45 -17.2 -18.9 -17.2 -19.85 -17.05 -20.15 -16.9 -20.4 -16.55 -20.35 L-15.7 -20.1 Q-16.35 -20.75 -16.6 -21.25 L-16.7 -21.55 Q-17.2 -22.4 -17.2 -22.85 -17.2 -23.3 -16.85 -23.6 L-15.95 -23.6 Q-15.75 -23.45 -15.6 -23.3 L-15.45 -23.2 -15.35 -23.6 -14.6 -23.65 Q-14.85 -23.95 -14.95 -24.3 -15.1 -24.8 -15.1 -25.45 -15.1 -25.9 -15.05 -26.1 L-15.1 -26.15 Q-14.85 -26.75 -14.25 -26.35 -13.7 -26.05 -13.6 -25.6 L-13.7 -25.9 Q-14.45 -27.6 -14.55 -28.4 L-14.45 -28.55 -13.95 -29.1 Q-13.0 -28.95 -12.3 -28.65 L-12.0 -28.6 -12.15 -29.1 Q-12.3 -29.8 -12.4 -30.55 -12.4 -31.4 -11.5 -31.2 L-11.15 -31.1 Q-10.7 -31.0 -10.35 -30.7 -10.1 -30.5 -9.75 -30.1 L-9.9 -30.65 Q-10.55 -32.95 -10.55 -33.35 L-10.5 -33.65 -10.45 -33.7 -10.25 -33.8 Q-9.45 -33.75 -8.65 -33.55 -8.7 -33.75 -8.75 -34.05 -8.85 -34.55 -8.85 -35.15 L-8.85 -35.8 Q-8.85 -36.3 -8.7 -36.55 -8.35 -37.2 -6.9 -36.1 L-5.9 -36.05 Q-5.45 -35.65 -4.95 -35.55 L-5.0 -35.4 Q-4.6 -35.15 -4.0 -34.8 L-3.8 -34.65 -3.7 -35.1 -3.7 -35.3 -3.5 -36.0 Q-3.4 -36.15 -3.3 -36.35 -3.1 -36.85 -3.05 -37.35 L-3.0 -37.4 -2.75 -37.35 Q-1.95 -37.2 -1.4 -37.0 -1.2 -36.8 -1.05 -36.6 L-0.75 -36.15 -0.4 -35.75 Q0.15 -35.05 0.5 -34.5 0.55 -36.35 1.1 -36.5 1.65 -36.6 2.45 -35.4 3.2 -34.4 3.85 -32.95 L4.25 -32.0 Q5.2 -31.4 5.6 -30.7 L5.65 -30.8 Q5.85 -31.2 6.15 -31.4 6.9 -31.85 7.15 -30.35 L7.55 -29.0 Q7.7 -28.45 7.85 -28.05 L8.1 -28.65 Q8.8 -28.25 9.55 -27.15 9.65 -27.35 9.8 -27.6 10.15 -28.1 10.6 -28.35 11.1 -28.6 11.5 -28.45 11.9 -28.25 12.05 -27.6 12.05 -26.8 12.3 -25.55 L12.5 -24.15 Q12.85 -23.8 13.05 -23.0 13.25 -22.3 13.25 -21.6 L13.15 -20.0 13.15 -19.75 Q12.65 -18.85 12.65 -18.35 12.65 -17.7 12.8 -17.05 12.95 -16.25 13.15 -15.95 L13.15 -15.75 13.1 -15.75 13.0 -15.75 Q12.2 -17.0 11.2 -19.45 L11.1 -19.65 10.95 -20.1 10.85 -20.25 10.8 -20.4 9.95 -22.4 9.75 -22.65 9.5 -23.05 9.3 -23.05 Q9.2 -23.2 8.9 -23.95 7.9 -25.05 6.45 -26.3 L4.65 -27.4 Q3.5 -28.1 2.75 -28.65 L2.25 -29.05 Q1.95 -28.95 1.6 -28.95 1.35 -28.95 1.2 -29.1 1.05 -29.25 1.05 -29.4 L1.65 -29.5 Q0.8 -30.15 -0.3 -31.0 L-0.35 -31.0 Q-0.8 -31.25 -1.25 -31.45 L-1.85 -31.7 -2.95 -32.0 -3.0 -32.0 -4.15 -31.6 -4.35 -31.4 -3.95 -31.3 Q-2.65 -30.9 -1.9 -30.2 -2.25 -30.4 -4.05 -30.75 -4.75 -30.95 -5.15 -31.1 L-5.25 -31.1 -5.25 -31.0 Q-4.6 -29.9 -4.25 -28.6 L-4.15 -28.3 Q-3.85 -27.55 -3.85 -27.05 L-3.9 -25.9 -3.95 -25.85 -4.1 -25.75 Q-4.2 -25.45 -4.8 -25.45 -5.05 -25.45 -6.6 -26.35 -7.7 -27.0 -8.35 -27.2 L-8.3 -27.05 Q-8.8 -27.15 -8.8 -26.55 L-8.8 -26.45 -8.85 -26.3 -8.7 -26.1 -8.65 -26.05 -8.6 -25.9 -8.45 -25.65 -8.4 -25.55 Q-7.85 -24.75 -7.75 -24.45 -7.65 -24.2 -7.6 -23.7 -7.4 -23.1 -7.3 -22.65 L-7.25 -22.6 -7.25 -21.6 -7.55 -21.55 -7.8 -21.5 -8.05 -21.5 -9.7 -21.6 Q-9.55 -21.2 -9.55 -20.85 -9.55 -20.25 -9.75 -19.8 -9.95 -19.25 -10.4 -19.15 L-10.4 -19.1 Q-10.75 -19.25 -11.0 -19.15 L-11.05 -19.15 Q-11.45 -19.25 -11.7 -19.6 L-11.65 -19.1 -11.6 -18.75 -11.6 -18.6 -11.55 -18.6 -11.2 -18.3 -11.15 -18.25 -10.85 -17.8 Q-10.4 -17.1 -10.15 -17.0 L-10.1 -17.05 -9.85 -16.65 Q-9.2 -16.55 -8.4 -15.65 L-8.4 -15.6 -8.5 -15.5 -8.55 -15.45 Q-8.95 -15.65 -9.45 -16.05 L-9.55 -16.15 Q-9.15 -15.45 -9.15 -15.0 L-9.2 -14.55 Q-8.5 -14.35 -8.1 -13.95 L-7.95 -14.55 -7.95 -14.6 -7.6 -15.6 -7.45 -16.1 Q-7.35 -15.9 -7.4 -15.55 -7.4 -15.35 -7.65 -13.9 L-7.75 -13.5 -7.55 -13.1 -7.3 -12.4 -6.65 -10.7 Q-6.2 -9.5 -6.2 -9.4 L-6.2 -8.95 -6.4 -8.95 -6.85 -8.9 -7.4 -8.95 -6.75 -8.15 Q-6.25 -7.45 -5.9 -6.6 -5.55 -5.95 -5.55 -5.75 L-5.6 -5.45 -5.6 -5.25 -5.7 -5.2 Q-5.8 -5.15 -6.0 -5.15 L-6.15 -5.15 -5.7 -4.55 -5.25 -3.95 -4.8 -3.3 -4.45 -2.95 -4.2 -2.75 Q-3.4 -2.2 -2.15 -1.65 0.5 -0.45 5.15 0.7 L8.05 0.9 9.25 1.0 11.85 0.85 Q12.9 0.7 13.7 0.45 L13.8 0.4 14.85 0.05 14.9 0.0 Q15.3 -0.3 15.65 -0.7 L15.55 -0.45 15.7 -0.45 Q16.2 -0.85 16.85 -2.7 L17.2 -3.8 Q17.45 -4.6 17.5 -5.05 L17.5 -5.15 Q17.55 -6.0 17.45 -6.3 L17.25 -6.3 17.15 -6.25 17.1 -6.2 17.1 -6.25 17.05 -6.3 17.05 -6.35 16.7 -6.4 16.65 -6.65 16.55 -7.0 16.5 -6.8 16.5 -6.5 16.35 -6.45 16.35 -6.4 16.2 -6.3 Q16.15 -6.2 16.15 -6.05 L16.15 -5.85 16.1 -5.85 16.1 -6.0 16.15 -6.25 Q16.15 -6.6 16.1 -7.0 L16.05 -7.15 15.1 -9.35 15.05 -9.2 Q14.85 -9.3 14.75 -9.4 L14.9 -9.85 14.75 -10.15 14.45 -10.8 13.65 -12.15 13.55 -12.7 13.4 -12.5 Q13.2 -12.6 13.15 -12.65 13.1 -12.7 13.1 -13.0 13.1 -13.35 13.15 -13.65 L13.1 -13.75 Q13.0 -13.9 12.9 -14.0 L12.85 -14.05 12.85 -14.2 12.9 -14.5 13.1 -13.95 13.25 -14.0 13.4 -14.3 13.5 -14.45 Q13.95 -15.0 14.5 -15.0 15.1 -15.0 15.45 -14.3 15.9 -13.5 15.9 -12.0 15.9 -11.45 15.6 -10.6 L15.55 -10.4 Q16.0 -9.6 16.25 -8.85 16.95 -7.55 17.15 -6.75 17.55 -6.7 17.75 -6.35 17.9 -6.05 17.9 -5.45 L17.9 -4.95 Q17.85 -3.85 17.05 -2.2 16.6 -1.2 16.1 -0.45 L16.0 -0.2 Q15.8 0.2 15.45 0.7 15.1 0.9 14.65 1.05 L14.45 1.1 13.5 1.3 12.35 1.5 9.3 1.85 7.0 1.65 8.3 1.8 8.9 1.85 M12.4 1.65 L12.1 1.75 12.15 1.65 12.4 1.65 M2.85 -31.9 L3.1 -31.6 3.1 -31.5 3.45 -31.85 Q3.15 -32.45 2.85 -33.35 2.3 -35.1 1.45 -36.0 L1.25 -34.75 Q1.1 -33.95 1.1 -33.45 L1.05 -33.4 1.1 -33.25 Q1.45 -33.6 2.2 -32.75 L2.45 -32.45 2.85 -31.95 2.85 -31.9 M-0.25 -31.75 Q0.0 -31.55 0.25 -31.4 L1.1 -30.85 1.1 -30.9 1.05 -30.9 0.95 -31.1 1.0 -31.1 0.5 -33.15 0.35 -33.55 Q-0.2 -34.55 -0.9 -35.3 -1.6 -36.05 -2.05 -36.15 -2.3 -36.25 -2.4 -36.1 L-2.5 -36.05 -2.5 -35.95 Q-2.95 -35.25 -3.15 -34.45 L-3.2 -34.1 Q-3.15 -33.95 -3.15 -33.85 -3.15 -33.6 -3.3 -33.5 -3.3 -33.05 -3.3 -32.6 L-3.35 -32.45 Q-2.5 -32.6 -1.7 -32.45 L-1.4 -32.4 -1.7 -32.35 Q-1.25 -32.25 -0.8 -32.05 L-0.25 -31.75 M2.4 -30.75 L2.75 -31.1 2.5 -31.4 1.6 -32.6 Q1.5 -32.55 1.4 -32.35 L1.45 -32.2 1.85 -31.25 1.8 -30.65 Q1.8 -30.45 2.1 -30.15 2.35 -30.35 2.4 -30.45 2.4 -30.5 2.4 -30.75 M2.35 -27.0 L1.6 -27.55 1.6 -27.5 Q2.0 -27.05 2.0 -26.6 2.0 -26.25 1.95 -25.95 L1.95 -25.5 Q1.95 -25.35 1.9 -25.2 1.75 -25.0 1.65 -25.0 L1.6 -25.2 Q1.45 -25.05 1.25 -25.0 L1.0 -25.0 Q-0.25 -25.05 -1.1 -25.35 -1.85 -25.6 -1.85 -25.9 L-1.85 -26.0 -2.0 -26.5 Q-2.25 -26.2 -2.25 -25.85 L-2.15 -25.2 -2.1 -24.7 -2.1 -24.6 -2.15 -24.6 -2.25 -24.55 Q-2.6 -24.55 -2.65 -25.05 -2.7 -25.3 -2.65 -25.6 L-2.6 -26.05 Q-2.6 -26.25 -2.6 -26.3 L-2.5 -26.4 -2.35 -26.65 Q-2.25 -26.75 -2.15 -26.95 L-2.35 -27.45 Q-2.9 -29.15 -2.9 -29.25 L-2.9 -29.4 -2.85 -29.4 Q-2.8 -29.7 -2.1 -29.6 -1.35 -29.5 -0.4 -29.0 L0.05 -28.75 Q0.5 -28.6 0.8 -28.4 L1.0 -28.35 Q1.35 -28.25 1.8 -27.85 2.5 -27.3 2.65 -26.85 L2.65 -26.8 2.35 -27.0 M-7.4 -16.1 L-7.35 -16.3 Q-8.4 -16.35 -9.0 -16.95 -9.25 -17.2 -9.4 -17.5 L-9.45 -17.6 Q-9.4 -17.75 -9.4 -17.85 -9.4 -18.25 -9.7 -18.6 L-9.75 -18.65 -9.8 -18.95 Q-9.8 -20.35 -9.25 -20.6 -8.8 -20.8 -8.05 -20.15 -7.75 -19.9 -7.45 -19.55 L-7.45 -19.5 -6.9 -18.5 -6.45 -17.75 -6.35 -17.4 -6.35 -17.15 Q-6.35 -16.3 -7.1 -16.3 L-7.3 -16.3 -7.4 -16.2 -7.4 -16.1 M-1.2 -12.5 Q-0.75 -11.75 0.1 -10.85 L-1.55 -12.25 Q-1.1 -11.7 -0.1 -10.7 L-0.8 -11.25 -0.85 -11.25 Q0.15 -10.1 1.3 -8.95 -0.2 -10.3 -0.9 -11.2 -1.7 -12.3 -2.05 -13.45 L-2.1 -13.7 Q-2.2 -14.1 -2.25 -14.65 L-2.3 -15.05 Q-2.3 -15.7 -2.25 -16.4 L-2.15 -16.9 -2.85 -16.35 Q-3.7 -15.7 -3.65 -15.35 L-3.75 -15.35 -3.75 -15.75 Q-3.7 -16.25 -3.25 -16.75 L-3.0 -16.95 -2.85 -17.0 -2.75 -17.1 Q-2.3 -17.35 -1.7 -17.5 L-1.6 -17.4 -1.65 -17.3 -1.6 -17.35 -1.55 -17.35 -1.65 -17.15 Q-1.7 -16.85 -1.8 -15.85 L-1.8 -15.6 -1.9 -15.35 -1.9 -14.85 -1.85 -14.3 Q-1.8 -13.8 -1.6 -13.35 L-1.4 -12.8 -1.35 -12.75 -1.2 -12.5 M9.3 -5.05 L9.35 -5.1 Q12.35 -5.0 14.5 -5.4 L14.15 -5.3 Q12.8 -4.95 11.4 -4.9 L9.35 -5.05 9.3 -5.05 M15.75 -5.75 L15.75 -6.3 15.85 -5.8 15.75 -5.75 M3.95 -27.1 L4.15 -27.1 4.0 -27.0 4.05 -27.0 Q4.75 -26.8 5.4 -25.5 L5.8 -24.6 5.85 -24.45 Q6.4 -24.25 6.85 -23.5 L7.1 -23.1 Q7.45 -22.45 7.65 -22.15 7.1 -22.4 6.55 -23.2 L6.0 -24.0 6.3 -22.95 6.45 -22.1 Q6.45 -21.9 6.35 -21.55 6.3 -21.15 6.25 -21.05 6.3 -21.0 6.25 -21.0 L5.95 -20.95 Q4.75 -20.95 2.8 -23.75 L2.8 -24.0 2.85 -24.05 Q2.75 -24.35 2.75 -24.75 L2.75 -24.9 2.7 -24.85 2.2 -24.4 2.15 -24.35 Q2.05 -24.35 2.05 -24.6 2.05 -24.85 2.45 -25.25 2.7 -25.55 2.9 -25.6 L2.95 -25.85 3.1 -26.45 3.2 -26.7 3.15 -26.7 3.1 -26.8 Q3.15 -26.95 3.45 -27.05 L3.95 -27.1 M9.35 -21.3 Q10.05 -21.35 10.4 -20.9 10.6 -20.55 10.6 -19.9 L10.6 -18.9 Q10.6 -18.3 10.45 -17.55 L10.35 -17.05 Q10.15 -16.55 9.9 -16.55 9.7 -16.55 9.5 -16.65 8.9 -17.0 8.35 -18.35 7.95 -19.3 7.6 -20.7 L8.35 -21.05 8.7 -21.15 8.15 -21.6 Q8.4 -21.6 8.7 -21.4 L8.95 -21.25 9.35 -21.3 M10.8 -15.05 L10.95 -14.95 Q11.55 -14.45 11.95 -13.5 12.45 -12.5 12.45 -11.5 L12.4 -11.0 Q12.35 -10.7 12.0 -10.6 10.65 -11.55 10.2 -11.9 L10.25 -11.7 Q9.9 -11.8 9.8 -12.1 9.75 -12.15 9.75 -12.35 9.6 -12.55 9.5 -12.8 9.45 -13.05 9.45 -13.35 9.45 -13.75 9.5 -14.1 9.55 -14.65 9.75 -14.95 L9.9 -15.1 Q10.25 -15.35 10.8 -15.05 M8.2 -12.7 Q8.55 -12.25 8.85 -11.6 9.3 -10.7 9.3 -10.15 L9.3 -9.45 9.1 -9.4 8.75 -9.35 Q7.95 -9.35 7.1 -10.45 6.7 -11.0 6.4 -11.4 6.4 -12.0 6.5 -12.45 L6.25 -12.35 6.05 -12.35 Q5.85 -12.4 5.8 -12.5 6.05 -12.65 6.2 -12.7 L6.55 -12.7 Q6.65 -13.2 6.85 -13.4 7.25 -13.7 7.85 -13.05 L8.0 -12.95 Q8.05 -12.8 8.2 -12.7 M6.1 -27.35 L6.65 -26.95 6.3 -27.75 6.3 -27.8 Q6.3 -28.0 5.95 -28.65 5.55 -29.55 5.25 -30.05 5.0 -30.5 4.75 -30.8 L4.65 -31.05 Q4.45 -31.55 4.0 -31.65 3.75 -31.7 3.55 -31.5 L3.5 -31.45 3.3 -31.45 Q2.75 -31.3 2.75 -29.75 2.75 -29.65 2.8 -29.5 L2.9 -29.45 3.3 -29.2 3.35 -29.15 4.8 -28.2 4.85 -28.2 5.1 -28.05 6.1 -27.35 M7.6 -27.75 Q7.35 -28.25 7.05 -29.0 6.6 -30.35 6.35 -30.8 L6.15 -30.3 Q6.05 -30.05 5.9 -29.95 6.6 -28.3 6.9 -27.55 L6.95 -27.5 6.95 -27.45 7.0 -27.45 7.25 -26.95 7.35 -26.8 7.35 -26.75 7.4 -26.8 7.55 -27.3 7.7 -27.6 7.65 -27.7 7.6 -27.7 7.6 -27.75 M11.45 -24.35 Q11.65 -24.45 11.8 -24.5 11.7 -24.85 11.7 -25.15 11.7 -25.35 11.8 -25.8 11.85 -26.25 11.85 -26.65 11.85 -26.9 11.4 -27.6 L10.95 -28.3 10.85 -28.1 Q10.8 -27.95 10.8 -27.75 10.8 -27.55 10.35 -26.85 L10.0 -26.35 Q10.4 -25.6 10.6 -25.05 10.7 -24.7 10.75 -24.4 L10.8 -24.15 10.8 -24.1 10.75 -23.95 10.7 -23.55 Q10.6 -23.35 10.45 -23.2 L10.5 -23.15 Q10.7 -23.55 10.95 -23.8 11.2 -24.15 11.45 -24.35 M11.55 -19.85 Q11.9 -19.35 12.25 -19.35 L12.5 -19.4 12.5 -19.45 Q12.6 -19.6 12.6 -19.8 L12.6 -20.25 Q12.6 -20.4 12.55 -20.8 L12.6 -21.55 Q12.6 -22.1 12.45 -22.55 12.3 -23.0 12.25 -23.45 L12.1 -23.75 Q11.85 -23.6 11.4 -23.05 11.05 -22.85 10.9 -22.65 10.75 -22.5 10.7 -22.25 L10.7 -22.15 Q10.85 -21.45 11.1 -20.75 L11.15 -20.7 Q11.35 -20.15 11.55 -19.85 M9.4 -23.85 L9.6 -23.7 Q9.8 -23.7 9.85 -23.75 L9.9 -23.8 10.0 -23.7 10.15 -23.85 Q10.25 -23.9 10.25 -24.0 10.25 -24.3 9.55 -25.7 8.75 -27.2 8.35 -27.5 L8.25 -27.15 Q8.0 -27.0 7.75 -26.55 L7.55 -26.15 7.65 -26.05 Q8.3 -25.45 8.45 -25.05 L8.4 -25.05 8.0 -25.35 7.95 -25.4 7.9 -25.4 7.75 -25.5 8.0 -25.25 9.4 -23.85 M5.55 -21.55 Q5.75 -21.45 5.95 -21.4 L6.05 -21.7 6.1 -22.15 Q6.1 -22.7 4.95 -24.7 L4.6 -25.4 4.2 -26.05 3.95 -26.45 3.75 -26.7 3.7 -26.85 3.45 -26.75 3.3 -26.7 3.4 -26.55 3.4 -26.5 3.4 -26.45 3.3 -25.2 3.3 -25.0 3.05 -24.15 3.1 -24.15 3.25 -24.05 Q3.35 -23.7 3.85 -22.95 L4.2 -22.5 Q4.6 -22.0 5.0 -21.9 L5.05 -21.9 Q5.3 -21.65 5.55 -21.55 M1.3 -25.45 L1.45 -25.7 1.5 -25.8 1.45 -25.9 1.15 -27.25 Q0.9 -27.65 0.45 -27.95 L0.35 -28.0 Q-0.05 -28.25 -0.7 -28.5 L-2.3 -29.1 -2.2 -28.65 Q-2.05 -28.4 -1.9 -27.95 L-1.85 -27.85 Q-1.75 -27.75 -1.75 -27.5 L-1.6 -27.1 Q-0.85 -25.4 0.2 -25.4 L0.5 -25.4 0.55 -25.4 0.6 -25.4 1.2 -25.45 1.3 -25.45 M1.25 -19.25 L1.35 -19.15 Q1.9 -19.5 2.05 -19.7 L2.1 -19.8 Q2.2 -20.0 2.2 -20.35 2.2 -21.15 1.55 -21.95 L1.45 -22.1 Q0.45 -23.3 -1.4 -23.3 L-1.45 -23.15 Q-1.2 -22.25 -0.2 -21.05 L-0.15 -21.0 -0.15 -20.95 -0.05 -20.85 0.7 -19.95 0.8 -19.85 1.25 -19.25 M-2.75 -19.85 L-3.1 -19.95 Q-3.0 -20.1 -3.0 -20.2 -3.0 -20.45 -3.1 -20.5 L-3.3 -20.55 Q-3.9 -20.15 -4.0 -19.85 L-4.15 -19.8 -5.4 -19.8 Q-5.5 -20.15 -5.7 -20.5 -5.95 -21.0 -6.3 -21.35 L-6.5 -21.5 -6.45 -21.7 -6.65 -22.15 Q-7.35 -24.15 -7.35 -24.7 -7.35 -25.4 -6.85 -25.5 -6.35 -25.6 -5.7 -25.2 -5.0 -24.75 -4.55 -24.0 L-4.5 -23.9 Q-4.45 -25.35 -4.0 -25.45 -3.8 -25.45 -3.6 -25.25 -2.5 -24.65 -2.0 -23.4 -1.9 -24.0 -1.35 -24.05 -0.7 -24.1 0.2 -23.5 1.15 -22.95 1.75 -22.1 L1.8 -22.1 Q2.5 -21.15 2.5 -20.35 2.5 -20.05 2.4 -19.7 L2.25 -19.4 Q1.95 -18.75 1.5 -18.75 1.05 -18.75 0.45 -19.3 -0.05 -19.8 -0.7 -20.75 L-0.8 -20.95 Q-1.35 -21.8 -1.8 -22.7 -1.7 -22.25 -1.65 -21.6 L-1.55 -21.05 Q-1.35 -20.4 -1.35 -20.1 -1.35 -19.9 -1.65 -19.85 L-1.75 -19.8 -2.4 -19.8 -2.75 -19.85 M1.85 -22.1 L1.75 -22.2 2.15 -22.15 Q2.45 -22.05 2.85 -21.7 3.45 -21.1 3.6 -20.65 3.6 -20.55 3.45 -20.5 3.35 -20.75 2.75 -21.25 2.1 -21.8 1.85 -22.1 M5.3 -19.5 Q6.0 -19.15 6.65 -17.8 L6.7 -17.65 6.8 -17.5 7.25 -16.3 6.8 -17.0 Q7.0 -16.1 7.35 -15.8 L7.35 -15.0 7.3 -15.0 7.1 -15.1 6.35 -15.45 Q5.0 -15.95 4.25 -16.7 4.05 -16.9 3.85 -17.3 L3.85 -17.35 3.55 -17.75 Q3.2 -18.2 3.2 -18.3 3.2 -18.5 3.3 -18.65 L3.1 -18.6 2.9 -18.65 Q2.7 -18.75 2.65 -18.8 L3.55 -19.0 Q3.8 -19.25 4.05 -19.3 L4.15 -19.35 4.2 -19.3 Q4.7 -19.6 5.2 -19.45 L5.3 -19.5 M6.0 -16.2 L7.0 -15.65 7.0 -16.4 6.2 -17.85 Q5.4 -19.05 4.75 -19.05 L4.7 -19.05 4.5 -18.95 4.4 -18.85 Q4.25 -18.7 3.95 -18.7 L3.9 -18.7 3.9 -18.65 Q3.85 -18.5 3.85 -18.1 L3.85 -18.05 3.85 -17.9 3.9 -17.85 Q4.2 -17.45 5.05 -16.8 L6.0 -16.2 M3.3 -12.55 L3.05 -12.55 Q2.5 -12.6 2.2 -12.8 L1.7 -13.7 Q1.65 -13.9 1.75 -14.1 1.75 -14.3 1.85 -14.5 1.95 -14.35 2.05 -14.35 L2.2 -14.35 2.3 -14.4 2.3 -14.7 2.5 -14.5 Q2.25 -14.5 2.2 -14.05 2.2 -13.75 2.45 -13.5 2.75 -13.15 3.35 -13.05 L3.45 -13.15 3.05 -13.9 Q3.35 -13.45 3.6 -12.85 L3.65 -12.75 Q3.45 -12.7 3.3 -12.6 L3.3 -12.55 M2.25 -15.35 Q2.9 -14.8 3.5 -14.0 L3.4 -13.95 3.3 -14.1 Q2.75 -14.85 2.25 -15.35 M9.4 -17.85 Q9.7 -17.3 9.8 -17.2 L10.0 -18.35 10.0 -18.65 Q10.15 -19.5 10.15 -19.75 10.15 -20.75 9.6 -20.85 L9.3 -20.85 Q8.5 -20.8 8.3 -20.65 8.25 -20.55 8.25 -20.25 L8.25 -20.2 Q8.25 -19.8 8.55 -18.95 8.9 -17.9 9.4 -17.85 M11.3 -11.6 L11.7 -11.15 Q11.95 -11.45 11.95 -12.25 11.95 -12.5 11.55 -13.5 11.15 -14.45 10.85 -14.7 L10.8 -14.75 10.7 -14.6 10.55 -14.85 Q10.4 -14.8 10.15 -14.5 L10.15 -13.6 10.1 -13.5 10.1 -13.45 10.05 -13.35 Q10.05 -13.0 10.3 -12.65 L10.55 -12.35 10.95 -11.95 11.3 -11.6 M7.0 -11.4 Q7.05 -11.05 7.55 -10.65 L8.55 -9.75 8.9 -10.0 Q8.95 -10.1 8.95 -10.2 8.95 -10.95 8.55 -11.7 8.25 -12.3 7.75 -12.85 L7.4 -13.2 7.4 -13.15 Q7.3 -13.1 7.2 -13.0 7.05 -12.8 7.05 -12.55 7.05 -12.3 7.25 -12.05 L7.2 -12.05 7.15 -11.95 Q7.0 -11.55 7.0 -11.45 L7.0 -11.4 M14.65 -11.95 L15.25 -11.0 Q15.4 -11.6 15.4 -12.05 15.4 -12.5 15.05 -13.3 14.65 -14.4 14.6 -14.65 14.3 -14.4 14.1 -13.85 L14.0 -13.75 13.9 -13.65 Q13.8 -13.55 13.8 -13.4 L14.1 -12.8 14.45 -12.3 14.65 -11.95 M16.2 -5.7 L16.3 -5.65 16.3 -5.6 15.55 -5.35 16.2 -5.7 M16.95 -5.5 L16.9 -5.5 Q16.15 -5.2 15.1 -4.9 14.4 -4.7 13.75 -4.6 L12.85 -4.45 12.65 -4.45 Q13.55 -4.55 14.45 -4.75 15.55 -5.05 16.35 -5.35 16.6 -5.5 16.8 -5.6 L16.95 -5.7 16.95 -5.5 M-11.55 -30.6 L-11.8 -30.7 -12.0 -30.75 -12.0 -30.25 Q-11.85 -29.85 -11.6 -29.1 L-11.4 -28.4 Q-10.65 -28.0 -9.9 -27.2 L-9.75 -27.1 Q-9.55 -27.1 -9.45 -27.25 L-9.35 -27.4 -9.3 -27.5 -9.25 -27.55 Q-9.25 -27.6 -9.25 -27.9 -9.25 -28.2 -9.55 -29.35 -9.85 -29.45 -10.45 -30.15 -10.6 -30.3 -11.35 -30.55 L-11.55 -30.6 M-4.45 -31.95 L-4.4 -32.1 Q-4.1 -32.55 -4.1 -32.8 -4.1 -32.85 -4.1 -32.95 L-4.05 -33.15 -3.9 -33.85 -4.85 -34.6 -6.3 -35.7 Q-6.4 -35.7 -6.7 -35.5 L-7.05 -35.25 -7.25 -35.15 -7.25 -34.95 -6.9 -34.15 Q-6.55 -33.35 -6.55 -32.8 L-6.55 -32.7 -6.5 -32.65 -6.2 -32.45 -5.95 -32.15 -5.75 -31.9 Q-5.65 -31.65 -5.5 -31.55 -5.25 -31.55 -4.95 -31.5 -4.7 -31.65 -4.45 -31.95 M-8.3 -36.2 Q-8.3 -34.35 -8.15 -33.45 L-7.85 -33.35 -7.35 -33.1 -7.5 -33.65 Q-7.85 -35.0 -7.85 -35.3 -7.85 -35.65 -7.5 -35.85 L-7.55 -35.9 Q-7.65 -36.1 -8.3 -36.2 M-4.85 -26.35 L-4.75 -26.4 -4.6 -26.5 Q-4.6 -26.8 -4.6 -27.2 -4.6 -27.7 -4.85 -28.65 -5.2 -29.7 -5.65 -30.65 -6.95 -33.15 -8.4 -33.0 L-8.4 -32.85 -8.85 -32.9 -9.55 -32.95 -9.55 -32.3 -9.55 -31.85 Q-9.5 -30.85 -9.3 -30.0 L-9.15 -29.45 -9.05 -29.1 Q-8.8 -28.6 -8.55 -28.2 L-8.5 -28.05 Q-7.7 -26.9 -6.2 -26.65 L-6.1 -26.6 Q-5.4 -26.25 -5.05 -25.9 L-4.8 -26.05 -4.85 -26.35 M-3.1 -20.85 L-2.85 -20.75 -2.4 -20.5 -2.25 -20.4 -2.1 -20.5 -1.95 -20.6 -2.15 -22.1 -2.35 -22.7 Q-2.7 -23.7 -3.0 -24.3 -3.2 -24.65 -3.5 -24.95 -3.9 -24.65 -4.05 -24.05 L-4.1 -23.8 Q-4.2 -23.3 -4.05 -22.85 L-4.1 -22.85 Q-4.05 -22.6 -4.05 -22.35 L-3.7 -21.35 -3.55 -20.9 -3.4 -20.9 -3.1 -20.85 M-8.5 -22.2 L-8.4 -22.15 -8.35 -22.15 -8.2 -22.1 -8.2 -22.15 -8.1 -22.25 -8.1 -22.65 Q-8.1 -24.25 -9.25 -25.85 -10.3 -27.25 -11.75 -27.8 L-11.95 -28.0 Q-12.7 -28.25 -13.6 -28.3 L-13.6 -27.15 Q-13.55 -26.6 -13.3 -25.95 L-13.25 -25.75 -13.1 -25.5 -12.65 -24.6 -12.55 -24.35 -12.45 -24.15 -12.4 -24.3 Q-11.8 -24.1 -11.25 -23.7 -10.85 -23.7 -10.45 -23.15 L-10.1 -22.55 -8.5 -22.2 M-11.4 -20.2 Q-11.1 -19.8 -10.55 -19.6 L-10.5 -19.6 -10.25 -20.2 -10.0 -20.65 Q-10.0 -21.15 -10.2 -21.5 L-10.2 -21.55 Q-10.2 -21.85 -10.25 -22.1 L-10.35 -22.2 -10.55 -22.55 Q-10.8 -23.0 -11.2 -23.25 L-11.5 -23.4 -11.6 -23.5 -11.7 -23.8 -12.5 -23.75 Q-12.65 -23.7 -12.65 -23.35 L-12.6 -23.0 -12.6 -22.9 Q-12.65 -22.85 -12.45 -22.85 -12.35 -22.55 -12.05 -22.0 -12.05 -21.7 -11.95 -21.3 L-11.9 -21.1 Q-11.85 -20.9 -11.75 -20.8 -11.6 -20.4 -11.45 -20.2 L-11.4 -20.2 M-6.55 -23.9 Q-6.4 -23.2 -6.2 -22.55 L-6.2 -22.4 -6.0 -21.8 -5.75 -21.2 -5.7 -21.1 Q-5.5 -20.75 -5.3 -20.45 L-5.2 -20.45 -5.0 -20.4 -4.15 -20.4 -3.85 -20.45 -3.85 -20.75 -3.8 -20.8 Q-4.05 -21.9 -4.55 -22.85 -5.4 -24.4 -6.7 -24.8 L-6.55 -23.9 M-6.9 -17.5 L-7.2 -18.15 Q-7.55 -18.85 -8.0 -19.4 -8.5 -20.05 -8.85 -20.15 -9.2 -20.3 -9.2 -19.6 L-9.2 -19.2 -9.2 -18.95 -9.15 -18.4 -9.05 -18.05 Q-8.85 -17.55 -8.5 -17.25 -8.05 -16.85 -7.35 -16.75 L-6.9 -17.0 -6.8 -17.1 Q-6.8 -17.25 -6.9 -17.5 M-10.05 -20.1 L-10.0 -20.3 -10.1 -19.95 -10.2 -19.8 Q-10.1 -19.9 -10.05 -20.1 M-12.75 -17.2 L-12.65 -16.95 -12.5 -16.75 Q-12.3 -16.45 -11.85 -15.95 L-11.85 -15.95 -11.4 -15.45 -11.4 -15.6 -11.05 -15.25 -11.05 -15.15 -10.9 -15.15 -10.85 -14.95 -10.6 -14.75 -10.5 -14.75 -9.65 -14.65 -9.5 -14.65 Q-9.45 -14.75 -9.45 -15.1 -9.45 -15.15 -9.7 -15.5 L-9.7 -15.6 Q-9.7 -15.75 -10.25 -16.45 -10.8 -17.15 -11.4 -17.7 -13.15 -19.25 -13.15 -17.8 L-13.05 -17.65 -12.8 -17.3 -12.75 -17.2 M-12.95 -23.6 Q-12.9 -23.7 -12.9 -23.8 -12.9 -23.9 -13.0 -24.25 L-13.5 -25.15 Q-13.65 -25.25 -13.8 -25.35 L-13.85 -25.3 -14.1 -25.4 Q-14.3 -25.55 -14.55 -25.7 -14.6 -25.6 -14.6 -25.45 -14.6 -24.8 -14.3 -24.1 L-14.1 -23.55 -13.45 -23.4 -13.25 -23.4 -13.05 -23.3 -13.1 -23.4 Q-13.0 -23.45 -12.95 -23.55 L-12.95 -23.6 M-12.25 -20.15 L-12.25 -20.25 -12.4 -21.8 -12.5 -21.95 -12.55 -22.15 -12.65 -22.2 Q-12.9 -22.5 -13.2 -22.75 L-13.25 -22.75 Q-13.75 -22.75 -14.15 -22.9 L-14.5 -23.0 -14.7 -23.0 Q-14.9 -22.95 -15.05 -22.8 L-15.0 -22.75 -14.95 -22.7 -15.0 -22.55 -15.1 -22.45 -15.15 -22.45 -15.15 -22.4 -15.1 -22.3 -14.55 -21.1 -14.4 -20.7 -14.4 -20.65 -14.25 -20.4 Q-13.45 -18.85 -12.85 -18.85 L-12.8 -18.85 -12.7 -18.9 -12.6 -18.95 -12.4 -18.95 -12.25 -19.0 -12.15 -19.05 -12.1 -19.05 -12.25 -20.15 M-16.4 -21.95 L-16.2 -21.5 Q-15.6 -20.7 -15.35 -20.25 L-15.35 -20.2 -15.25 -20.0 Q-14.85 -19.95 -14.5 -20.0 L-14.6 -20.25 Q-14.9 -20.8 -15.6 -21.95 L-15.65 -22.1 -15.55 -22.6 -15.8 -22.85 Q-16.15 -22.95 -16.35 -23.05 L-16.5 -22.95 -16.55 -22.8 -16.6 -22.65 Q-16.6 -22.35 -16.4 -21.95 M-13.0 -16.2 L-13.1 -16.4 -13.35 -17.25 Q-13.45 -17.8 -13.8 -18.4 -14.0 -18.7 -14.2 -18.9 L-14.35 -19.1 -14.4 -19.6 -15.05 -19.6 -16.15 -19.7 -16.55 -19.75 -16.75 -18.95 Q-16.75 -18.85 -15.95 -18.05 L-15.2 -17.25 -15.0 -17.0 -14.9 -16.9 -14.8 -16.75 -14.45 -16.25 -14.3 -16.45 Q-14.15 -16.2 -14.05 -15.9 L-13.7 -15.55 Q-13.65 -15.6 -13.45 -15.6 -13.25 -15.6 -12.9 -15.4 L-12.9 -15.55 -12.95 -15.8 -12.95 -16.0 -13.0 -16.2 M-16.25 -16.25 Q-16.85 -15.7 -16.85 -15.3 L-14.8 -13.5 -14.4 -13.15 -14.55 -13.9 Q-14.6 -14.5 -14.6 -15.2 L-14.6 -15.45 -14.85 -15.75 -15.2 -16.45 -15.4 -16.8 -15.4 -16.85 -15.45 -16.9 -15.45 -16.95 Q-15.6 -16.8 -16.0 -16.45 L-16.1 -16.35 -16.25 -16.25 M-10.7 -10.1 L-10.65 -10.1 -10.45 -10.15 -10.2 -10.05 -10.25 -10.15 Q-10.2 -10.2 -10.0 -10.2 L-9.8 -10.2 -10.1 -10.65 -10.1 -10.7 Q-10.1 -11.15 -10.75 -12.1 -11.35 -13.0 -12.15 -13.8 L-12.2 -13.85 Q-12.7 -14.45 -13.25 -14.85 L-13.35 -14.85 -13.3 -14.75 -13.55 -14.9 Q-14.2 -15.15 -14.2 -14.5 -14.2 -14.3 -14.05 -13.7 L-14.0 -13.45 -13.95 -13.4 Q-13.85 -12.95 -13.7 -12.55 L-13.65 -12.5 -13.65 -12.45 -13.6 -12.4 -13.55 -12.2 -13.5 -12.2 -13.4 -11.95 -13.35 -11.85 Q-12.5 -10.35 -11.15 -10.15 L-10.75 -10.1 -10.7 -10.1 M-12.6 -16.05 Q-12.6 -15.5 -12.7 -15.2 -12.35 -14.85 -11.9 -14.3 L-11.9 -15.1 -12.1 -15.35 -12.6 -16.05 M-14.1 -12.25 Q-14.5 -12.6 -14.55 -12.7 -14.8 -13.2 -15.25 -13.6 L-15.35 -13.55 -15.65 -13.6 Q-16.2 -13.55 -16.75 -12.8 L-16.75 -11.9 Q-14.45 -11.55 -12.95 -10.35 -12.55 -10.05 -11.8 -9.3 L-11.2 -8.7 -11.25 -8.85 Q-11.9 -9.4 -12.45 -10.05 -13.5 -10.75 -14.05 -12.1 L-14.1 -12.25 M-12.75 -9.25 Q-13.15 -9.6 -13.65 -10.1 L-13.75 -10.05 -14.15 -9.8 Q-13.95 -9.1 -12.55 -8.25 L-12.5 -8.2 Q-11.35 -7.3 -10.75 -7.3 L-10.45 -7.35 -10.5 -7.45 Q-10.8 -7.9 -11.05 -8.4 L-11.95 -8.9 Q-12.4 -9.15 -12.75 -9.25 M-12.95 -6.75 Q-12.35 -6.2 -9.85 -5.95 L-9.0 -5.9 -9.1 -5.95 -9.0 -5.95 Q-9.75 -6.45 -10.35 -7.2 L-10.5 -7.25 -11.05 -7.2 -11.55 -7.4 -11.75 -7.3 -12.7 -6.9 -12.75 -6.85 Q-12.85 -6.8 -12.95 -6.75 M-7.05 -9.75 Q-7.2 -10.05 -7.3 -10.35 -7.3 -10.5 -7.3 -10.8 -7.3 -11.75 -7.8 -12.55 -8.25 -13.3 -8.95 -13.75 -9.65 -14.15 -10.1 -14.05 -10.25 -14.0 -10.4 -13.9 L-10.5 -13.95 -10.55 -13.95 -10.55 -13.9 -10.5 -13.75 Q-10.65 -13.55 -10.65 -13.2 -10.5 -12.75 -10.25 -12.25 L-10.2 -12.1 -10.1 -11.9 -10.05 -11.75 -9.9 -11.55 -9.8 -11.4 Q-9.25 -10.5 -8.55 -10.15 -8.25 -10.0 -7.95 -10.0 L-7.85 -10.0 -7.8 -9.85 Q-7.4 -9.7 -6.95 -9.5 L-6.8 -9.45 -6.9 -9.6 -7.05 -9.75 M-6.35 -6.25 Q-6.25 -6.5 -6.25 -6.8 -6.25 -7.05 -6.85 -7.65 L-6.95 -7.8 Q-7.4 -8.45 -8.05 -8.95 -8.45 -9.25 -8.8 -9.4 L-8.8 -9.45 -9.0 -9.55 -9.0 -9.5 -9.2 -9.55 Q-9.45 -9.6 -9.6 -9.45 L-9.9 -9.5 Q-10.55 -9.55 -10.55 -8.75 L-10.35 -8.25 -10.3 -8.2 Q-10.15 -7.85 -9.85 -7.5 L-9.75 -7.3 Q-8.65 -5.8 -7.3 -5.8 -6.9 -5.8 -6.65 -5.95 L-6.25 -5.95 -6.2 -5.95 -6.25 -6.05 -6.35 -6.25 M1.4 0.55 L2.05 0.7 1.0 0.4 1.4 0.55" fill="#000000" fill-rule="evenodd" stroke="none"/>
    <path d="M14.45 1.1 L14.4 1.15 12.4 1.65 12.15 1.65 12.3 1.55 12.35 1.5 13.5 1.3 14.45 1.1 M17.1 -6.2 L17.15 -6.25 17.25 -6.3 17.45 -6.3 Q17.55 -6.0 17.5 -5.15 L17.5 -5.05 Q17.45 -4.6 17.2 -3.8 L16.85 -2.7 Q16.2 -0.85 15.7 -0.45 L15.55 -0.45 15.65 -0.7 Q16.3 -2.6 16.55 -3.4 16.8 -4.25 16.95 -5.1 L16.9 -4.6 16.9 -4.55 Q16.8 -3.8 16.6 -3.3 L16.5 -2.75 Q16.4 -2.3 16.1 -1.7 15.65 -0.8 15.65 -0.75 L15.7 -0.6 15.8 -0.65 Q16.2 -1.05 16.75 -2.65 17.3 -4.2 17.35 -4.7 L17.45 -5.35 Q17.45 -5.7 17.3 -5.85 17.2 -5.9 17.05 -5.95 L17.1 -6.05 17.1 -6.2 M11.25 -8.05 Q11.7 -8.05 12.2 -7.7 12.75 -7.3 12.8 -6.8 L12.75 -6.75 Q12.65 -6.65 12.45 -6.65 12.05 -6.7 11.75 -7.05 L11.25 -7.75 11.25 -8.05" fill="#101010" fill-rule="evenodd" stroke="none"/>
    <path d="M13.1 -15.75 Q13.2 -14.95 13.4 -14.3 L13.25 -14.0 13.1 -13.95 12.9 -14.5 12.85 -14.2 12.85 -14.05 12.9 -14.0 Q13.0 -13.9 13.1 -13.75 L13.15 -13.65 Q13.1 -13.35 13.1 -13.0 13.1 -12.7 13.15 -12.65 13.2 -12.6 13.4 -12.5 L13.55 -12.7 13.65 -12.15 14.45 -10.8 14.75 -10.15 14.9 -9.85 14.75 -9.4 Q14.85 -9.3 15.05 -9.2 L15.1 -9.35 16.05 -7.15 16.1 -7.0 Q16.15 -6.6 16.15 -6.25 L16.1 -6.0 16.1 -5.85 16.15 -5.85 16.15 -6.05 Q16.15 -6.2 16.2 -6.3 L16.35 -6.4 16.35 -6.45 16.5 -6.5 16.5 -6.8 16.55 -7.0 16.65 -6.65 16.7 -6.4 17.05 -6.35 17.05 -6.3 17.1 -6.25 17.1 -6.2 17.1 -6.05 17.05 -5.95 Q17.2 -5.9 17.3 -5.85 17.45 -5.7 17.45 -5.35 L17.35 -4.7 Q17.3 -4.2 16.75 -2.65 16.2 -1.05 15.8 -0.65 L15.7 -0.6 15.65 -0.75 Q15.65 -0.8 16.1 -1.7 16.4 -2.3 16.5 -2.75 L16.6 -3.3 Q16.8 -3.8 16.9 -4.55 L16.9 -4.6 16.95 -5.1 16.95 -5.5 16.95 -5.7 16.8 -5.6 Q16.6 -5.5 16.35 -5.35 15.55 -5.05 14.45 -4.75 13.55 -4.55 12.65 -4.45 L8.5 -4.3 7.7 -4.45 7.6 -4.5 7.55 -4.5 7.3 -4.65 Q5.55 -4.95 2.3 -7.95 L1.3 -8.95 Q0.15 -10.1 -0.85 -11.25 L-0.8 -11.25 -0.1 -10.7 Q-1.1 -11.7 -1.55 -12.25 L0.1 -10.85 0.6 -10.4 0.75 -10.25 2.6 -8.55 2.8 -8.35 Q4.0 -7.3 5.05 -6.5 L6.15 -5.9 6.75 -5.75 Q8.2 -5.25 9.3 -5.05 L9.35 -5.05 11.4 -4.9 Q12.8 -4.95 14.15 -5.3 L14.5 -5.4 15.6 -5.7 15.75 -5.75 15.85 -5.8 15.75 -6.3 Q15.6 -6.9 15.3 -7.65 14.8 -9.0 14.0 -10.8 L13.7 -11.45 13.3 -12.3 13.05 -12.8 12.9 -13.15 12.75 -13.6 12.7 -13.65 12.65 -13.6 12.65 -13.8 12.55 -13.95 Q12.6 -14.15 12.6 -14.05 L12.55 -14.5 Q12.45 -14.85 12.45 -15.2 L12.4 -15.25 12.0 -16.95 12.0 -17.0 11.95 -17.2 11.6 -17.9 11.2 -19.45 Q12.2 -17.0 13.0 -15.75 L13.1 -15.75 M12.1 1.75 L11.5 1.85 8.9 1.85 8.3 1.8 7.0 1.65 9.3 1.85 12.35 1.5 12.3 1.55 12.15 1.65 12.1 1.75 M10.8 -20.4 Q10.3 -21.6 9.75 -22.65 L9.95 -22.4 10.8 -20.4 M8.05 0.9 L5.15 0.7 Q0.5 -0.45 -2.15 -1.65 -3.4 -2.2 -4.2 -2.75 L-4.45 -2.95 -4.8 -3.3 -5.25 -3.95 -5.7 -4.55 Q-4.95 -3.6 -3.85 -2.85 -0.75 -0.6 4.6 0.25 6.3 0.7 8.05 0.9 M5.05 -11.7 L5.2 -11.45 5.05 -11.4 Q4.15 -11.85 4.05 -11.95 3.4 -12.3 3.3 -12.55 L3.3 -12.6 Q3.45 -12.7 3.65 -12.75 L3.6 -12.85 Q3.35 -13.45 3.05 -13.9 2.8 -14.25 2.5 -14.5 L2.3 -14.7 2.3 -14.4 2.2 -14.35 2.05 -14.35 Q1.95 -14.35 1.85 -14.5 1.65 -14.75 1.4 -15.35 1.25 -15.65 1.1 -16.0 L1.25 -16.05 1.25 -16.1 1.35 -16.05 Q1.8 -15.75 2.25 -15.35 2.75 -14.85 3.3 -14.1 L3.4 -13.95 3.5 -14.0 3.85 -13.5 5.05 -11.7 M16.2 -5.7 L15.55 -5.35 16.3 -5.6 16.3 -5.65 16.2 -5.7 M-6.9 -17.5 L-6.9 -17.5" fill="#111111" fill-rule="evenodd" stroke="none"/>
    <path d="M-0.8 -32.05 L-0.5 -31.95 -0.25 -31.75 -0.8 -32.05 M1.0 -28.35 L0.8 -28.4 Q0.5 -28.6 0.05 -28.75 L-0.4 -29.0 Q-1.35 -29.5 -2.1 -29.6 -2.8 -29.7 -2.85 -29.4 L-2.9 -29.4 -2.9 -29.25 Q-2.9 -29.15 -2.35 -27.45 L-2.15 -26.95 Q-2.25 -26.75 -2.35 -26.65 L-2.5 -26.4 -2.6 -26.3 Q-2.6 -26.25 -2.6 -26.05 L-2.65 -25.6 Q-2.7 -25.3 -2.65 -25.05 -2.6 -24.55 -2.25 -24.55 L-2.15 -24.6 -2.1 -24.6 -2.1 -24.7 -2.15 -25.2 -2.25 -25.85 Q-2.25 -26.2 -2.0 -26.5 L-1.85 -26.0 -1.85 -25.9 Q-1.85 -25.6 -1.1 -25.35 -0.25 -25.05 1.0 -25.0 L1.25 -25.0 Q1.45 -25.05 1.6 -25.2 L1.65 -25.0 Q1.75 -25.0 1.9 -25.2 1.95 -25.35 1.95 -25.5 L1.95 -25.95 Q2.0 -26.25 2.0 -26.6 2.0 -27.05 1.6 -27.5 L1.6 -27.55 2.35 -27.0 Q2.8 -26.6 3.1 -26.45 L2.95 -25.85 2.9 -25.6 Q2.7 -25.55 2.45 -25.25 2.05 -24.85 2.05 -24.6 2.05 -24.35 2.15 -24.35 L2.2 -24.4 2.7 -24.85 2.75 -24.9 2.75 -24.75 Q2.75 -24.35 2.85 -24.05 L2.8 -24.0 2.8 -23.75 Q4.75 -20.95 5.95 -20.95 L6.25 -21.0 Q6.3 -21.0 6.25 -21.05 6.3 -21.15 6.35 -21.55 6.45 -21.9 6.45 -22.1 L6.3 -22.95 6.0 -24.0 6.55 -23.2 Q7.1 -22.4 7.65 -22.15 7.45 -22.45 7.1 -23.1 L7.55 -22.65 Q7.7 -22.45 8.35 -21.05 L7.6 -20.7 Q7.95 -19.3 8.35 -18.35 8.9 -17.0 9.5 -16.65 L9.75 -15.05 9.75 -14.95 Q9.55 -14.65 9.5 -14.1 9.25 -14.3 8.95 -14.35 8.55 -14.4 8.3 -14.2 8.0 -13.95 7.95 -13.45 7.9 -13.2 7.95 -13.0 L8.0 -12.95 7.85 -13.05 Q7.25 -13.7 6.85 -13.4 6.65 -13.2 6.55 -12.7 L6.2 -12.7 Q6.05 -12.65 5.8 -12.5 5.85 -12.4 6.05 -12.35 L6.25 -12.35 6.5 -12.45 Q6.4 -12.0 6.4 -11.4 6.7 -11.0 7.1 -10.45 7.95 -9.35 8.75 -9.35 L9.1 -9.4 9.3 -9.45 9.3 -10.15 Q9.3 -10.7 8.85 -11.6 8.55 -12.25 8.2 -12.7 8.4 -12.55 8.75 -12.55 9.2 -12.5 9.45 -12.75 L9.5 -12.8 Q9.6 -12.55 9.75 -12.35 9.75 -12.15 9.8 -12.1 9.9 -11.8 10.25 -11.7 L10.2 -11.9 Q10.65 -11.55 12.0 -10.6 12.35 -10.7 12.4 -11.0 L12.45 -11.5 Q12.45 -12.5 11.95 -13.5 11.55 -14.45 10.95 -14.95 L10.8 -15.05 10.65 -15.65 10.35 -17.05 10.45 -17.55 Q10.6 -18.3 10.6 -18.9 L10.6 -19.9 Q10.6 -20.55 10.4 -20.9 10.05 -21.35 9.35 -21.3 8.85 -22.3 7.8 -23.45 6.55 -24.85 5.4 -25.5 4.75 -26.8 4.05 -27.0 L4.0 -27.0 4.15 -27.1 3.95 -27.1 2.75 -28.65 Q3.5 -28.1 4.65 -27.4 L6.45 -26.3 Q7.9 -25.05 8.9 -23.95 9.2 -23.2 9.3 -23.05 L9.5 -23.05 9.75 -22.65 Q10.3 -21.6 10.8 -20.4 L10.85 -20.25 10.95 -20.1 11.1 -19.65 11.2 -19.45 11.6 -17.9 11.95 -17.2 12.0 -17.0 12.0 -16.95 12.4 -15.25 12.45 -15.2 Q12.45 -14.85 12.55 -14.5 L12.6 -14.05 Q12.6 -14.15 12.55 -13.95 L12.65 -13.8 12.65 -13.6 12.7 -13.65 12.75 -13.6 12.9 -13.15 13.05 -12.8 13.3 -12.3 13.7 -11.45 14.0 -10.8 Q14.8 -9.0 15.3 -7.65 15.6 -6.9 15.75 -6.3 L15.75 -5.75 15.6 -5.7 14.5 -5.4 Q12.35 -5.0 9.35 -5.1 L9.3 -5.05 Q8.2 -5.25 6.75 -5.75 L6.15 -5.9 5.05 -6.5 Q4.0 -7.3 2.8 -8.35 L2.6 -8.55 0.75 -10.25 0.6 -10.4 0.1 -10.85 Q-0.75 -11.75 -1.2 -12.5 L-1.1 -13.4 Q-0.8 -17.5 -1.9 -18.8 -2.7 -19.7 -4.1 -19.1 L-4.55 -18.9 -4.9 -18.65 -4.8 -18.5 Q-4.8 -18.1 -4.95 -17.65 -5.1 -16.9 -5.55 -16.9 -5.85 -16.9 -6.25 -17.5 L-6.35 -17.4 -6.45 -17.75 -6.9 -18.5 -7.45 -19.5 -7.45 -19.55 Q-7.75 -19.9 -8.05 -20.15 -8.8 -20.8 -9.25 -20.6 -9.8 -20.35 -9.8 -18.95 L-9.75 -18.65 -9.7 -18.6 Q-9.4 -18.25 -9.4 -17.85 -9.4 -17.75 -9.45 -17.6 L-9.55 -17.45 -9.6 -17.4 -9.6 -17.3 Q-9.45 -17.0 -9.0 -16.95 -8.4 -16.35 -7.35 -16.3 L-7.4 -16.1 -7.45 -16.1 -7.6 -15.6 -7.95 -14.6 -8.15 -15.0 Q-8.3 -15.3 -8.5 -15.5 L-8.4 -15.6 -8.4 -15.65 Q-9.2 -16.55 -9.85 -16.65 L-10.1 -17.05 -10.15 -17.0 Q-10.4 -17.1 -10.85 -17.8 L-11.15 -18.25 -11.2 -18.3 -11.55 -18.6 -11.6 -18.6 -11.6 -18.75 -11.65 -19.1 -11.7 -19.6 Q-11.45 -19.25 -11.05 -19.15 L-11.0 -19.15 Q-10.75 -19.25 -10.4 -19.1 L-10.4 -19.15 Q-9.95 -19.25 -9.75 -19.8 -9.55 -20.25 -9.55 -20.85 -9.55 -21.2 -9.7 -21.6 L-8.05 -21.5 -7.8 -21.5 -7.55 -21.55 -7.25 -21.6 -7.25 -22.6 -7.3 -22.65 Q-7.4 -23.1 -7.6 -23.7 -7.65 -24.2 -7.75 -24.45 -7.85 -24.75 -8.4 -25.55 L-8.45 -25.65 -8.6 -25.9 -8.65 -26.05 -8.7 -26.1 -8.85 -26.3 -8.8 -26.45 -8.8 -26.55 Q-8.8 -27.15 -8.3 -27.05 L-8.35 -27.2 Q-7.7 -27.0 -6.6 -26.35 -5.05 -25.45 -4.8 -25.45 -4.2 -25.45 -4.1 -25.75 L-3.95 -25.85 -3.9 -25.9 -3.85 -27.05 Q-3.85 -27.55 -4.15 -28.3 L-4.25 -28.6 Q-4.6 -29.9 -5.25 -31.0 L-5.25 -31.1 -5.15 -31.1 Q-4.75 -30.95 -4.05 -30.75 -2.25 -30.4 -1.9 -30.2 -2.65 -30.9 -3.95 -31.3 L-4.35 -31.4 -4.15 -31.6 Q-3.55 -31.85 -2.95 -32.0 L-1.85 -31.7 Q-1.0 -30.6 -0.1 -29.55 0.5 -28.9 1.0 -28.35 M1.8 -22.1 L1.75 -22.1 Q1.15 -22.95 0.2 -23.5 -0.7 -24.1 -1.35 -24.05 -1.9 -24.0 -2.0 -23.4 -2.5 -24.65 -3.6 -25.25 -3.8 -25.45 -4.0 -25.45 -4.45 -25.35 -4.5 -23.9 L-4.55 -24.0 Q-5.0 -24.75 -5.7 -25.2 -6.35 -25.6 -6.85 -25.5 -7.35 -25.4 -7.35 -24.7 -7.35 -24.15 -6.65 -22.15 L-6.45 -21.7 -6.5 -21.5 -6.3 -21.35 Q-5.95 -21.0 -5.7 -20.5 -5.5 -20.15 -5.4 -19.8 L-4.15 -19.8 -4.0 -19.85 Q-3.9 -20.15 -3.3 -20.55 L-3.1 -20.5 Q-3.0 -20.45 -3.0 -20.2 -3.0 -20.1 -3.1 -19.95 L-2.75 -19.85 -2.75 -19.65 Q-2.65 -19.4 -2.25 -19.4 -2.0 -19.35 -1.85 -19.5 -1.65 -19.65 -1.65 -19.85 -1.35 -19.9 -1.35 -20.1 -1.35 -20.4 -1.55 -21.05 L-1.65 -21.6 Q-1.7 -22.25 -1.8 -22.7 -1.35 -21.8 -0.8 -20.95 L-0.7 -20.75 Q-0.95 -20.55 -1.0 -20.05 -1.1 -19.85 -1.05 -19.6 -0.95 -19.05 -0.3 -19.0 0.1 -19.0 0.4 -19.3 L0.45 -19.3 Q1.05 -18.75 1.5 -18.75 1.95 -18.75 2.25 -19.4 L2.4 -19.7 2.65 -19.7 Q3.25 -19.65 3.55 -20.0 3.8 -20.25 3.8 -20.7 3.85 -21.15 3.5 -21.55 3.15 -21.95 2.65 -22.1 L2.15 -22.15 1.75 -22.2 1.85 -22.1 1.8 -22.1 M5.3 -19.5 L5.2 -19.45 Q4.7 -19.6 4.2 -19.3 L4.15 -19.35 4.05 -19.3 Q3.8 -19.25 3.55 -19.0 L2.65 -18.8 Q2.7 -18.75 2.9 -18.65 L3.1 -18.6 3.3 -18.65 Q3.2 -18.5 3.2 -18.3 3.2 -18.2 3.55 -17.75 L3.85 -17.35 3.85 -17.3 Q4.05 -16.9 4.25 -16.7 5.0 -15.95 6.35 -15.45 L7.1 -15.1 7.3 -15.0 7.35 -15.0 7.35 -15.8 Q7.0 -16.1 6.8 -17.0 L7.25 -16.3 6.8 -17.5 6.7 -17.65 6.65 -17.8 Q6.0 -19.15 5.3 -19.5 M3.9 -17.85 L3.85 -17.9 3.85 -18.05 Q3.85 -17.95 3.9 -17.85 M2.85 -17.25 L2.8 -17.25 Q2.6 -17.65 2.55 -17.9 2.45 -17.8 2.45 -17.65 2.45 -17.6 2.45 -17.5 2.5 -17.25 2.8 -17.25 L2.85 -17.25 M5.05 -11.7 L5.2 -11.65 Q5.65 -11.65 5.65 -12.15 L5.55 -13.15 5.5 -13.7 5.3 -13.7 Q4.8 -13.7 4.75 -13.95 4.7 -14.1 4.75 -14.25 L4.8 -14.55 4.8 -14.65 Q5.1 -14.75 5.35 -14.7 4.7 -15.0 4.15 -15.55 L4.0 -15.5 3.8 -15.5 Q3.7 -15.5 3.75 -15.75 3.75 -15.85 3.8 -15.9 L3.7 -16.0 3.55 -16.2 3.5 -15.65 3.4 -15.55 3.1 -15.55 2.85 -15.6 Q2.8 -15.6 2.85 -15.65 L2.8 -15.75 2.8 -16.05 2.85 -16.35 2.85 -16.5 3.1 -16.5 Q2.3 -17.45 1.8 -17.1 1.4 -16.85 1.35 -16.3 1.35 -16.15 1.35 -16.05 L1.25 -16.1 1.25 -16.05 1.1 -16.0 Q1.25 -15.65 1.4 -15.35 1.65 -14.75 1.85 -14.5 1.75 -14.3 1.75 -14.1 1.65 -13.9 1.7 -13.7 L2.2 -12.8 Q2.5 -12.6 3.05 -12.55 L3.3 -12.55 Q3.4 -12.3 4.05 -11.95 4.15 -11.85 5.05 -11.4 L5.2 -11.45 5.05 -11.7 M0.4 -14.75 Q0.45 -15.05 0.25 -15.3 0.1 -15.55 -0.15 -15.6 L-0.35 -15.6 Q-0.55 -15.6 -0.7 -15.3 -0.8 -15.1 -0.85 -14.7 -0.9 -14.45 -0.85 -14.25 -0.75 -13.85 -0.25 -13.8 0.2 -13.75 0.35 -14.15 0.4 -14.3 0.4 -14.75 M8.45 -16.0 L8.4 -15.95 8.45 -15.6 8.4 -15.2 8.35 -15.05 Q8.4 -15.0 8.65 -15.0 8.85 -14.95 9.0 -15.05 L9.1 -15.15 9.2 -15.45 Q8.8 -16.2 8.45 -16.0 M10.3 -12.65 Q10.05 -13.0 10.05 -13.35 L10.1 -13.45 10.1 -13.3 10.3 -12.65 M6.3 -7.35 Q6.35 -7.55 6.15 -7.85 5.95 -8.1 5.65 -8.25 4.95 -8.6 4.9 -7.8 4.9 -7.6 5.05 -7.35 5.25 -6.95 5.8 -6.9 6.0 -6.9 6.15 -7.05 6.3 -7.2 6.3 -7.35 M11.25 -8.05 L11.25 -7.75 11.75 -7.05 Q12.05 -6.7 12.45 -6.65 12.65 -6.65 12.75 -6.75 L12.8 -6.8 Q12.75 -7.3 12.2 -7.7 11.7 -8.05 11.25 -8.05 M3.8 -11.05 L3.75 -11.0 3.75 -10.85 Q3.75 -10.8 3.95 -10.5 4.2 -10.1 4.5 -10.1 L4.65 -10.1 4.65 -10.2 Q4.65 -10.5 4.45 -10.7 4.2 -11.05 3.8 -11.05 M4.05 -8.8 Q3.7 -8.85 3.7 -8.55 L3.7 -8.35 Q3.8 -8.2 4.0 -8.2 4.2 -8.15 4.3 -8.25 4.4 -8.35 4.4 -8.45 4.4 -8.75 4.05 -8.8 M3.85 -9.3 Q4.0 -9.4 4.0 -9.55 4.05 -9.85 3.7 -9.9 3.3 -9.95 3.3 -9.65 3.3 -9.55 3.3 -9.45 3.4 -9.3 3.65 -9.3 L3.85 -9.3 M-10.05 -20.1 Q-10.1 -19.9 -10.2 -19.8 L-10.1 -19.95 -10.0 -20.3 -10.05 -20.1 M-4.05 -7.45 Q-2.85 -8.35 -2.3 -8.35 -2.85 -7.85 -3.95 -7.05 L-4.2 -6.9 Q-3.4 -5.35 -2.25 -4.15 -3.4 -4.45 -4.6 -6.55 L-4.65 -6.6 -5.55 -5.95 -5.65 -6.1 Q-5.3 -6.45 -4.8 -6.9 -5.7 -8.55 -5.65 -9.4 -5.6 -9.65 -5.55 -9.7 L-5.4 -9.75 Q-4.75 -8.0 -4.4 -7.2 L-4.05 -7.45" fill="#cccccc" fill-rule="evenodd" stroke="none"/>
    <path d="M1.0 -28.35 Q0.5 -28.9 -0.1 -29.55 -1.0 -30.6 -1.85 -31.7 L-1.25 -31.45 Q-0.8 -31.25 -0.35 -31.0 L-0.3 -31.0 Q0.8 -30.15 1.65 -29.5 L1.05 -29.4 Q1.05 -29.25 1.2 -29.1 1.35 -28.95 1.6 -28.95 1.95 -28.95 2.25 -29.05 L2.75 -28.65 3.95 -27.1 3.45 -27.05 Q3.15 -26.95 3.1 -26.8 L3.15 -26.7 3.2 -26.7 3.1 -26.45 Q2.8 -26.6 2.35 -27.0 L2.65 -26.8 2.65 -26.85 Q2.5 -27.3 1.8 -27.85 1.35 -28.25 1.0 -28.35 M-8.5 -15.5 Q-8.3 -15.3 -8.15 -15.0 L-7.95 -14.6 -7.95 -14.55 -8.1 -13.95 Q-8.5 -14.35 -9.2 -14.55 L-9.15 -15.0 Q-9.15 -15.45 -9.55 -16.15 L-9.45 -16.05 Q-8.95 -15.65 -8.55 -15.45 L-8.5 -15.5 M-7.45 -16.1 L-7.4 -16.1 -7.4 -16.2 -7.3 -16.3 -7.1 -16.3 Q-6.35 -16.3 -6.35 -17.15 L-6.35 -17.4 -6.25 -17.5 Q-5.85 -16.9 -5.55 -16.9 -5.1 -16.9 -4.95 -17.65 -4.8 -18.1 -4.8 -18.5 L-4.9 -18.65 -4.55 -18.9 -4.1 -19.1 Q-2.7 -19.7 -1.9 -18.8 -0.8 -17.5 -1.1 -13.4 L-1.2 -12.5 -1.35 -12.75 -1.4 -12.8 -1.6 -13.35 Q-1.8 -13.8 -1.85 -14.3 L-1.9 -14.85 -1.9 -15.35 -1.8 -15.6 -1.8 -15.85 Q-1.7 -16.85 -1.65 -17.15 L-1.55 -17.35 -1.6 -17.35 -1.65 -17.3 -1.6 -17.4 -1.7 -17.5 Q-2.3 -17.35 -2.75 -17.1 L-2.85 -17.0 -3.0 -16.95 -3.25 -16.75 Q-3.7 -16.25 -3.75 -15.75 L-3.75 -15.35 -3.65 -15.35 Q-3.7 -15.7 -2.85 -16.35 L-2.15 -16.9 -2.25 -16.4 Q-2.3 -15.7 -2.3 -15.05 L-2.25 -14.65 Q-2.2 -14.1 -2.1 -13.7 L-2.05 -13.45 Q-1.7 -12.3 -0.9 -11.2 -0.2 -10.3 1.3 -8.95 L2.3 -7.95 Q5.55 -4.95 7.3 -4.65 L7.55 -4.5 7.6 -4.5 7.7 -4.45 8.5 -4.3 12.65 -4.45 12.85 -4.45 13.75 -4.6 Q14.4 -4.7 15.1 -4.9 16.15 -5.2 16.9 -5.5 L16.95 -5.5 16.95 -5.1 Q16.8 -4.25 16.55 -3.4 16.3 -2.6 15.65 -0.7 15.3 -0.3 14.9 0.0 L14.85 0.05 13.8 0.4 13.7 0.45 Q12.9 0.7 11.85 0.85 L9.25 1.0 8.05 0.9 Q6.3 0.7 4.6 0.25 -0.75 -0.6 -3.85 -2.85 -4.95 -3.6 -5.7 -4.55 L-6.15 -5.15 -6.0 -5.15 Q-5.8 -5.15 -5.7 -5.2 L-5.6 -5.25 -5.6 -5.45 -5.55 -5.75 Q-5.55 -5.95 -5.9 -6.6 -6.25 -7.45 -6.75 -8.15 L-7.4 -8.95 -6.85 -8.9 -6.4 -8.95 -6.2 -8.95 -6.2 -9.4 Q-6.2 -9.5 -6.65 -10.7 L-7.3 -12.4 -7.55 -13.1 -7.75 -13.5 -7.65 -13.9 Q-7.4 -15.35 -7.4 -15.55 -7.35 -15.9 -7.45 -16.1 M-9.0 -16.95 Q-9.45 -17.0 -9.6 -17.3 L-9.6 -17.4 -9.55 -17.45 -9.45 -17.6 -9.4 -17.5 Q-9.25 -17.2 -9.0 -16.95 M-7.45 -19.55 L-7.45 -19.5 -7.45 -19.55 M4.0 -27.0 L4.05 -27.0 4.0 -27.0 M5.4 -25.5 Q6.55 -24.85 7.8 -23.45 8.85 -22.3 9.35 -21.3 L8.95 -21.25 8.7 -21.4 Q8.4 -21.6 8.15 -21.6 L8.7 -21.15 8.35 -21.05 Q7.7 -22.45 7.55 -22.65 L7.1 -23.1 6.85 -23.5 Q6.4 -24.25 5.85 -24.45 L5.8 -24.6 5.4 -25.5 M10.35 -17.05 L10.65 -15.65 10.8 -15.05 Q10.25 -15.35 9.9 -15.1 L9.75 -14.95 9.75 -15.05 9.5 -16.65 Q9.7 -16.55 9.9 -16.55 10.15 -16.55 10.35 -17.05 M9.5 -12.8 L9.45 -12.75 Q9.2 -12.5 8.75 -12.55 8.4 -12.55 8.2 -12.7 8.05 -12.8 8.0 -12.95 L7.95 -13.0 Q7.9 -13.2 7.95 -13.45 8.0 -13.95 8.3 -14.2 8.55 -14.4 8.95 -14.35 9.25 -14.3 9.5 -14.1 9.45 -13.75 9.45 -13.35 9.45 -13.05 9.5 -12.8 M4.6 -25.4 Q4.25 -25.75 4.2 -26.05 L4.6 -25.4 M3.95 -26.45 L3.85 -26.4 3.75 -26.7 3.95 -26.45 M3.45 -26.75 L3.4 -26.5 3.4 -26.55 3.3 -26.7 3.45 -26.75 M1.8 -22.1 L1.85 -22.1 Q2.1 -21.8 2.75 -21.25 3.35 -20.75 3.45 -20.5 3.6 -20.55 3.6 -20.65 3.45 -21.1 2.85 -21.7 2.45 -22.05 2.15 -22.15 L2.65 -22.1 Q3.15 -21.95 3.5 -21.55 3.85 -21.15 3.8 -20.7 3.8 -20.25 3.55 -20.0 3.25 -19.65 2.65 -19.7 L2.4 -19.7 Q2.5 -20.05 2.5 -20.35 2.5 -21.15 1.8 -22.1 M0.45 -19.3 L0.4 -19.3 Q0.1 -19.0 -0.3 -19.0 -0.95 -19.05 -1.05 -19.6 -1.1 -19.85 -1.0 -20.05 -0.95 -20.55 -0.7 -20.75 -0.05 -19.8 0.45 -19.3 M-1.65 -19.85 Q-1.65 -19.65 -1.85 -19.5 -2.0 -19.35 -2.25 -19.4 -2.65 -19.4 -2.75 -19.65 L-2.75 -19.85 -2.4 -19.8 -1.75 -19.8 -1.65 -19.85 M2.85 -17.25 L2.8 -17.25 Q2.5 -17.25 2.45 -17.5 2.45 -17.6 2.45 -17.65 2.45 -17.8 2.55 -17.9 2.6 -17.65 2.8 -17.25 L2.85 -17.25 M1.35 -16.05 Q1.35 -16.15 1.35 -16.3 1.4 -16.85 1.8 -17.1 2.3 -17.45 3.1 -16.5 L2.85 -16.5 2.85 -16.35 2.8 -16.05 2.8 -15.75 2.85 -15.65 Q2.8 -15.6 2.85 -15.6 L3.1 -15.55 3.4 -15.55 3.5 -15.65 3.55 -16.2 3.7 -16.0 3.8 -15.9 Q3.75 -15.85 3.75 -15.75 3.7 -15.5 3.8 -15.5 L4.0 -15.5 4.15 -15.55 Q4.7 -15.0 5.35 -14.7 5.1 -14.75 4.8 -14.65 L4.8 -14.55 4.75 -14.25 Q4.7 -14.1 4.75 -13.95 4.8 -13.7 5.3 -13.7 L5.5 -13.7 5.55 -13.15 5.65 -12.15 Q5.65 -11.65 5.2 -11.65 L5.05 -11.7 3.85 -13.5 3.5 -14.0 Q2.9 -14.8 2.25 -15.35 1.8 -15.75 1.35 -16.05 M0.4 -14.75 Q0.4 -14.3 0.35 -14.15 0.2 -13.75 -0.25 -13.8 -0.75 -13.85 -0.85 -14.25 -0.9 -14.45 -0.85 -14.7 -0.8 -15.1 -0.7 -15.3 -0.55 -15.6 -0.35 -15.6 L-0.15 -15.6 Q0.1 -15.55 0.25 -15.3 0.45 -15.05 0.4 -14.75 M8.45 -16.0 Q8.8 -16.2 9.2 -15.45 L9.1 -15.15 9.0 -15.05 Q8.85 -14.95 8.65 -15.0 8.4 -15.0 8.35 -15.05 L8.4 -15.2 8.45 -15.6 8.4 -15.95 8.45 -16.0 M6.3 -7.35 Q6.3 -7.2 6.15 -7.05 6.0 -6.9 5.8 -6.9 5.25 -6.95 5.05 -7.35 4.9 -7.6 4.9 -7.8 4.95 -8.6 5.65 -8.25 5.95 -8.1 6.15 -7.85 6.35 -7.55 6.3 -7.35 M3.8 -11.05 Q4.2 -11.05 4.45 -10.7 4.65 -10.5 4.65 -10.2 L4.65 -10.1 4.5 -10.1 Q4.2 -10.1 3.95 -10.5 3.75 -10.8 3.75 -10.85 L3.75 -11.0 3.8 -11.05 M3.85 -9.3 L3.65 -9.3 Q3.4 -9.3 3.3 -9.45 3.3 -9.55 3.3 -9.65 3.3 -9.95 3.7 -9.9 4.05 -9.85 4.0 -9.55 4.0 -9.4 3.85 -9.3 M4.05 -8.8 Q4.4 -8.75 4.4 -8.45 4.4 -8.35 4.3 -8.25 4.2 -8.15 4.0 -8.2 3.8 -8.2 3.7 -8.35 L3.7 -8.55 Q3.7 -8.85 4.05 -8.8 M-2.4 -20.5 L-2.1 -20.5 -2.25 -20.4 -2.4 -20.5 M-4.05 -7.45 L-4.4 -7.2 Q-4.75 -8.0 -5.4 -9.75 L-5.55 -9.7 Q-5.6 -9.65 -5.65 -9.4 -5.7 -8.55 -4.8 -6.9 -5.3 -6.45 -5.65 -6.1 L-5.55 -5.95 -4.65 -6.6 -4.6 -6.55 Q-3.4 -4.45 -2.25 -4.15 -3.4 -5.35 -4.2 -6.9 L-3.95 -7.05 Q-2.85 -7.85 -2.3 -8.35 -2.85 -8.35 -4.05 -7.45" fill="#8c8c8c" fill-rule="evenodd" stroke="none"/>
    <path d="M2.5 -14.5 Q2.8 -14.25 3.05 -13.9 L3.45 -13.15 3.35 -13.05 Q2.75 -13.15 2.45 -13.5 2.2 -13.75 2.2 -14.05 2.25 -14.5 2.5 -14.5" fill="#00ff99" fill-rule="evenodd" stroke="none"/>
    <path d="M2.85 -31.9 Q3.0 -32.0 3.1 -32.15 3.1 -32.3 3.0 -32.45 2.9 -32.6 2.8 -32.7 L2.5 -32.6 Q2.5 -32.55 2.45 -32.45 L2.2 -32.75 Q1.45 -33.6 1.1 -33.25 L1.05 -33.4 1.1 -33.45 Q1.1 -33.95 1.25 -34.75 L1.45 -36.0 Q2.3 -35.1 2.85 -33.35 3.15 -32.45 3.45 -31.85 L3.1 -31.5 3.1 -31.6 2.85 -31.9 M-2.4 -36.1 Q-2.3 -36.25 -2.05 -36.15 -1.6 -36.05 -0.9 -35.3 -0.2 -34.55 0.35 -33.55 L0.5 -33.15 1.0 -31.1 0.95 -31.1 1.05 -30.9 1.1 -30.9 1.1 -30.85 0.25 -31.4 Q0.0 -31.55 -0.25 -31.75 L-0.5 -31.95 -0.8 -32.05 Q-1.25 -32.25 -1.7 -32.35 L-1.4 -32.4 -1.7 -32.45 -1.6 -32.7 -1.7 -33.2 -1.75 -33.15 Q-2.3 -33.5 -2.4 -33.75 -2.5 -34.0 -2.7 -34.15 -2.65 -34.3 -2.5 -34.35 L-2.2 -34.4 -1.85 -34.05 -1.9 -34.4 Q-2.1 -35.4 -2.1 -36.05 L-2.4 -36.1 M1.85 -31.25 L1.45 -32.2 1.4 -32.35 Q1.5 -32.55 1.6 -32.6 L2.5 -31.4 2.75 -31.1 2.4 -30.75 2.35 -30.65 2.25 -30.55 2.15 -30.4 1.85 -31.2 1.85 -31.25 M3.3 -29.2 L2.9 -29.45 2.8 -29.5 Q2.75 -29.65 2.75 -29.75 2.75 -31.3 3.3 -31.45 L3.5 -31.45 3.55 -31.5 Q3.75 -31.7 4.0 -31.65 4.45 -31.55 4.65 -31.05 L4.75 -30.8 Q5.0 -30.5 5.25 -30.05 5.55 -29.55 5.95 -28.65 6.3 -28.0 6.3 -27.8 L6.3 -27.75 6.65 -26.95 6.1 -27.35 Q6.15 -27.45 6.15 -27.6 5.3 -28.6 4.75 -29.1 3.7 -30.05 2.8 -30.0 2.9 -29.65 3.3 -29.2 M6.9 -27.55 Q6.6 -28.3 5.9 -29.95 6.05 -30.05 6.15 -30.3 L6.35 -30.8 Q6.6 -30.35 7.05 -29.0 7.35 -28.25 7.6 -27.75 L7.05 -27.7 6.9 -27.55 M7.4 -26.8 L7.35 -26.75 7.35 -26.8 7.4 -26.8 M10.6 -25.05 Q10.4 -25.6 10.0 -26.35 L10.35 -26.85 Q10.8 -27.55 10.8 -27.75 10.8 -27.95 10.85 -28.1 L10.95 -28.3 11.4 -27.6 Q11.85 -26.9 11.85 -26.65 11.85 -26.25 11.8 -25.8 11.7 -25.35 11.7 -25.15 11.7 -24.85 11.8 -24.5 11.65 -24.45 11.45 -24.35 L11.2 -24.95 10.8 -25.6 Q10.6 -25.5 10.5 -25.25 L10.6 -25.05 M10.95 -23.8 Q10.7 -23.55 10.5 -23.15 L10.45 -23.2 Q10.6 -23.35 10.7 -23.55 L10.75 -23.95 Q10.85 -23.85 10.95 -23.8 M10.7 -22.25 Q10.75 -22.5 10.9 -22.65 11.05 -22.85 11.4 -23.05 11.85 -23.6 12.1 -23.75 L12.25 -23.45 Q12.3 -23.0 12.45 -22.55 12.6 -22.1 12.6 -21.55 L12.55 -20.8 Q12.6 -20.4 12.6 -20.25 L12.6 -19.8 Q12.6 -19.6 12.5 -19.45 L12.5 -19.4 12.25 -19.35 Q11.9 -19.35 11.55 -19.85 11.75 -19.7 11.85 -19.7 12.1 -19.7 12.15 -19.75 L12.25 -19.85 12.25 -19.9 12.3 -20.25 Q12.3 -20.55 11.75 -21.35 11.2 -22.15 10.7 -22.25 M7.65 -26.05 L7.55 -26.15 7.75 -26.55 Q8.0 -27.0 8.25 -27.15 L8.35 -27.5 Q8.75 -27.2 9.55 -25.7 10.25 -24.3 10.25 -24.0 10.25 -23.9 10.15 -23.85 L10.0 -23.7 9.9 -23.8 9.85 -23.75 Q9.8 -23.7 9.6 -23.7 L9.4 -23.85 9.55 -23.9 Q9.55 -23.95 9.6 -23.95 9.65 -23.95 9.65 -24.15 9.65 -24.6 9.05 -25.4 8.3 -26.35 7.6 -26.2 L7.65 -26.05 M8.0 -25.25 L7.75 -25.5 7.9 -25.4 8.0 -25.25 M4.6 -25.4 L4.95 -24.7 Q6.1 -22.7 6.1 -22.15 L6.05 -21.7 5.95 -21.4 Q5.75 -21.45 5.55 -21.55 L5.55 -21.7 Q5.0 -23.1 4.25 -24.25 3.35 -25.55 3.35 -24.6 3.6 -23.8 3.95 -23.0 L4.2 -22.5 3.85 -22.95 Q3.35 -23.7 3.25 -24.05 L3.1 -24.15 3.05 -24.15 3.3 -25.0 3.3 -25.2 3.4 -26.45 3.4 -26.5 3.45 -26.75 3.7 -26.85 3.75 -26.7 3.85 -26.4 3.95 -26.45 4.2 -26.05 Q4.25 -25.75 4.6 -25.4 M-1.9 -27.95 Q-2.05 -28.4 -2.2 -28.65 L-2.3 -29.1 -0.7 -28.5 Q-0.05 -28.25 0.35 -28.0 L0.45 -27.95 Q0.9 -27.65 1.15 -27.25 L1.45 -25.9 1.5 -25.8 1.45 -25.7 1.3 -25.45 1.3 -25.7 Q1.3 -26.0 0.95 -26.15 0.6 -26.35 0.35 -26.35 L0.35 -25.75 -0.7 -27.15 Q-1.35 -27.8 -1.9 -27.95 M0.55 -25.4 L0.5 -25.4 0.5 -25.45 0.55 -25.4 M-0.15 -21.0 L-0.2 -21.05 Q-1.2 -22.25 -1.45 -23.15 L-1.4 -23.3 Q0.45 -23.3 1.45 -22.1 L1.55 -21.95 Q2.2 -21.15 2.2 -20.35 2.2 -20.0 2.1 -19.8 L2.05 -19.7 Q1.9 -19.5 1.35 -19.15 L1.25 -19.25 Q1.45 -19.25 1.55 -19.35 1.6 -19.45 1.7 -19.6 1.25 -20.2 0.55 -21.6 -0.15 -22.85 -1.15 -23.2 L-1.25 -23.1 Q-1.3 -23.05 -1.3 -22.85 -1.3 -22.7 -0.2 -21.0 L-0.15 -21.0 M3.85 -18.1 Q3.85 -18.5 3.9 -18.65 L3.9 -18.7 3.95 -18.7 Q4.25 -18.7 4.4 -18.85 L4.5 -18.95 4.7 -19.05 4.75 -19.05 Q5.4 -19.05 6.2 -17.85 L7.0 -16.4 7.0 -15.65 6.0 -16.2 5.1 -17.25 Q4.5 -17.9 3.85 -18.1 M8.25 -20.25 Q8.25 -20.55 8.3 -20.65 8.5 -20.8 9.3 -20.85 L9.6 -20.85 Q10.15 -20.75 10.15 -19.75 10.15 -19.5 10.0 -18.65 L10.0 -18.35 9.8 -17.2 Q9.7 -17.3 9.4 -17.85 9.25 -18.35 9.05 -19.2 8.8 -20.15 8.25 -20.25 M10.15 -13.6 L10.15 -14.5 Q10.4 -14.8 10.55 -14.85 L10.7 -14.6 10.8 -14.75 10.85 -14.7 Q11.15 -14.45 11.55 -13.5 11.95 -12.5 11.95 -12.25 11.95 -11.45 11.7 -11.15 L11.3 -11.6 11.4 -11.55 Q11.65 -11.55 11.75 -11.65 11.8 -11.7 11.85 -11.85 11.65 -12.55 11.35 -12.95 11.1 -13.25 10.75 -13.55 L10.7 -13.5 10.15 -13.6 M10.95 -11.95 L10.55 -12.35 10.3 -12.65 10.1 -13.3 Q10.2 -13.1 10.6 -12.5 10.8 -12.15 10.95 -11.95 M7.15 -11.95 L7.2 -12.05 7.25 -12.05 Q7.05 -12.3 7.05 -12.55 7.05 -12.8 7.2 -13.0 7.3 -13.1 7.4 -13.15 L7.4 -13.2 7.75 -12.85 Q8.25 -12.3 8.55 -11.7 8.95 -10.95 8.95 -10.2 8.95 -10.1 8.9 -10.0 L8.55 -9.75 7.55 -10.65 Q7.05 -11.05 7.0 -11.4 7.15 -11.15 7.4 -10.85 7.85 -10.35 8.4 -10.0 8.5 -10.05 8.55 -10.1 L8.65 -10.3 Q8.35 -10.9 8.0 -11.4 7.75 -11.7 7.5 -11.85 L7.45 -11.8 7.35 -11.9 7.15 -11.95 M14.65 -11.95 Q14.9 -11.6 15.05 -11.55 L15.2 -11.55 Q15.25 -11.5 15.25 -11.75 15.25 -12.3 15.05 -12.85 14.75 -13.75 14.0 -13.75 L14.1 -13.85 Q14.3 -14.4 14.6 -14.65 14.65 -14.4 15.05 -13.3 15.4 -12.5 15.4 -12.05 15.4 -11.6 15.25 -11.0 L14.65 -11.95 M13.9 -13.65 L13.9 -13.6 13.85 -13.45 Q13.85 -13.3 14.1 -12.8 L13.8 -13.4 Q13.8 -13.55 13.9 -13.65 M-9.3 -27.5 L-9.6 -27.8 Q-10.65 -28.65 -10.95 -29.1 -11.2 -29.45 -11.4 -30.3 L-11.55 -30.6 -11.35 -30.55 Q-10.6 -30.3 -10.45 -30.15 -9.85 -29.45 -9.55 -29.35 -9.25 -28.2 -9.25 -27.9 -9.25 -27.6 -9.25 -27.55 L-9.3 -27.5 M-7.05 -35.25 L-6.7 -35.5 Q-6.4 -35.7 -6.3 -35.7 L-4.85 -34.6 -3.9 -33.85 -4.05 -33.15 -4.1 -32.95 Q-4.1 -32.85 -4.1 -32.8 -4.1 -32.55 -4.4 -32.1 L-4.45 -31.95 -5.95 -34.1 Q-6.65 -34.95 -7.05 -35.25 M-8.3 -36.2 Q-7.65 -36.1 -7.55 -35.9 L-7.5 -35.85 Q-7.85 -35.65 -7.85 -35.3 -7.85 -35.0 -7.5 -33.65 L-7.35 -33.1 -7.85 -33.35 -8.15 -33.45 Q-8.3 -34.35 -8.3 -36.2 M-9.55 -32.3 L-9.55 -32.95 -8.85 -32.9 -8.4 -32.85 -8.4 -33.0 Q-6.95 -33.15 -5.65 -30.65 -5.2 -29.7 -4.85 -28.65 -4.6 -27.7 -4.6 -27.2 -4.6 -26.8 -4.6 -26.5 L-4.75 -26.4 -4.85 -26.35 -4.95 -26.35 -4.95 -26.45 Q-6.2 -27.45 -7.15 -29.2 L-7.35 -29.65 -8.05 -31.05 -8.05 -31.15 Q-8.6 -32.25 -9.0 -32.85 -9.0 -32.8 -9.45 -32.8 L-9.55 -32.5 -9.55 -32.3 M-7.35 -30.45 L-7.4 -30.5 -7.5 -30.25 -7.15 -29.5 -6.6 -28.5 Q-6.05 -27.55 -5.65 -27.15 L-5.5 -27.3 Q-5.7 -27.7 -6.25 -29.15 -6.8 -30.4 -7.35 -30.45 M-3.1 -20.85 L-3.4 -22.4 Q-3.6 -23.2 -3.95 -23.9 L-4.1 -23.8 -4.05 -24.05 Q-3.9 -24.65 -3.5 -24.95 -3.2 -24.65 -3.0 -24.3 -2.7 -23.7 -2.35 -22.7 L-2.15 -22.1 -1.95 -20.6 -2.1 -20.5 -2.4 -20.5 -2.85 -20.75 -3.1 -20.85 M-8.5 -22.2 Q-8.75 -22.35 -9.1 -23.35 L-9.45 -24.3 -10.45 -25.35 -11.05 -25.8 -10.55 -24.4 Q-10.6 -24.2 -10.85 -24.05 -11.35 -24.7 -11.9 -26.0 L-12.2 -26.65 Q-12.95 -27.05 -13.6 -27.15 L-13.6 -28.3 Q-12.7 -28.25 -11.95 -28.0 L-11.75 -27.8 Q-10.3 -27.25 -9.25 -25.85 -8.1 -24.25 -8.1 -22.65 L-8.1 -22.25 -8.2 -22.15 -8.35 -22.15 -8.4 -22.15 -8.5 -22.2 M-2.95 -22.6 Q-3.05 -22.5 -3.05 -22.2 -3.05 -21.75 -2.65 -20.9 -2.55 -21.1 -2.5 -21.25 -2.4 -21.4 -2.4 -21.65 -2.4 -21.9 -2.5 -22.2 L-2.7 -22.65 Q-2.9 -22.65 -2.95 -22.6 M-12.05 -22.0 Q-12.35 -22.55 -12.45 -22.85 -12.65 -22.85 -12.6 -22.9 L-12.6 -23.0 -12.65 -23.35 Q-12.65 -23.7 -12.5 -23.75 L-11.7 -23.8 -11.6 -23.5 -11.5 -23.4 -11.2 -23.25 Q-10.8 -23.0 -10.55 -22.55 L-10.35 -22.2 -10.25 -22.1 Q-10.2 -21.85 -10.2 -21.55 L-10.2 -21.5 Q-10.0 -21.15 -10.0 -20.65 L-10.25 -20.2 -10.5 -19.6 -10.55 -19.6 Q-11.1 -19.8 -11.4 -20.2 L-11.2 -20.35 -11.05 -20.4 -11.05 -21.35 Q-11.15 -21.45 -11.3 -22.0 -11.45 -22.4 -11.7 -22.6 L-11.9 -22.55 Q-12.05 -22.5 -12.05 -22.25 L-12.05 -22.0 M-11.75 -20.8 Q-11.85 -20.9 -11.9 -21.1 L-11.95 -21.3 -11.9 -21.15 -11.75 -20.8 M-5.0 -20.4 Q-5.05 -20.65 -5.6 -21.95 -6.15 -23.35 -6.15 -23.55 -6.15 -23.8 -6.25 -23.85 L-6.45 -23.95 Q-6.45 -23.9 -6.55 -23.9 L-6.7 -24.8 Q-5.4 -24.4 -4.55 -22.85 -4.05 -21.9 -3.8 -20.8 L-3.85 -20.75 -3.85 -20.45 -4.15 -20.4 -5.0 -20.4 M-5.7 -21.1 Q-5.4 -20.65 -5.2 -20.45 L-5.3 -20.45 Q-5.5 -20.75 -5.7 -21.1 M-5.85 -23.6 L-5.95 -23.6 Q-6.05 -23.6 -6.05 -23.4 -6.05 -23.0 -5.45 -21.9 -4.95 -20.9 -4.8 -20.75 -4.7 -20.75 -4.6 -20.8 L-4.5 -20.95 Q-4.7 -21.4 -4.9 -22.3 -5.15 -23.1 -5.85 -23.6 M-9.2 -19.2 L-9.2 -19.6 Q-9.2 -20.3 -8.85 -20.15 -8.5 -20.05 -8.0 -19.4 -7.55 -18.85 -7.2 -18.15 L-6.9 -17.5 Q-6.8 -17.25 -6.8 -17.1 L-6.9 -17.0 -7.35 -16.75 Q-8.05 -16.85 -8.5 -17.25 -8.85 -17.55 -9.05 -18.05 L-9.15 -18.4 -9.2 -18.95 Q-9.15 -18.7 -8.85 -18.15 -8.5 -17.3 -8.25 -17.15 -8.0 -17.25 -7.95 -17.45 -8.1 -17.9 -8.25 -18.7 -8.4 -19.35 -8.85 -19.65 -9.15 -19.55 -9.2 -19.2 M-6.9 -17.5 L-6.9 -17.5 M-12.75 -17.2 Q-12.3 -16.55 -11.3 -15.5 L-10.9 -15.15 -11.05 -15.15 -11.05 -15.25 -11.4 -15.6 -11.4 -15.45 -11.85 -15.95 -11.85 -15.95 Q-12.3 -16.45 -12.5 -16.75 L-12.65 -16.95 -12.75 -17.2 M-10.9 -15.15 L-10.5 -14.75 -10.6 -14.75 -10.85 -14.95 -10.9 -15.15 M-9.65 -14.65 Q-10.15 -15.4 -11.0 -16.25 -12.15 -17.4 -13.1 -17.8 L-13.05 -17.65 -13.15 -17.8 Q-13.15 -19.25 -11.4 -17.7 -10.8 -17.15 -10.25 -16.45 -9.7 -15.75 -9.7 -15.6 L-9.7 -15.5 Q-9.45 -15.15 -9.45 -15.1 -9.45 -14.75 -9.5 -14.65 L-9.65 -14.65 M-14.1 -25.4 L-13.85 -25.3 -13.8 -25.35 Q-13.65 -25.25 -13.5 -25.15 L-13.0 -24.25 Q-12.9 -23.9 -12.9 -23.8 -12.9 -23.7 -12.95 -23.6 L-13.25 -23.95 Q-13.8 -24.5 -13.9 -24.75 L-14.1 -25.4 M-15.0 -22.75 L-15.05 -22.8 Q-14.9 -22.95 -14.7 -23.0 L-14.5 -23.0 -14.15 -22.9 Q-13.75 -22.75 -13.25 -22.75 L-13.2 -22.75 Q-12.9 -22.5 -12.65 -22.2 L-12.55 -22.15 -12.5 -21.95 -12.4 -21.8 -12.25 -20.25 -12.25 -20.15 -12.5 -20.5 -12.5 -20.25 -13.0 -21.1 Q-12.9 -21.15 -12.85 -21.2 -12.85 -21.3 -12.95 -21.4 -13.0 -21.35 -13.1 -21.2 -13.5 -21.85 -14.05 -22.35 -14.75 -23.05 -15.0 -22.75 M-12.7 -18.9 L-12.8 -18.85 -12.85 -18.85 Q-13.45 -18.85 -14.25 -20.4 L-14.15 -20.25 -13.75 -19.7 Q-13.2 -19.15 -12.7 -18.9 M-15.1 -22.3 L-15.15 -22.4 -15.15 -22.45 -15.1 -22.45 -15.1 -22.3 M-16.4 -21.95 Q-16.6 -22.35 -16.6 -22.65 L-16.55 -22.8 -16.55 -22.6 -16.4 -21.95 M-14.6 -20.25 L-14.5 -20.0 Q-14.85 -19.95 -15.25 -20.0 L-15.05 -20.0 Q-14.85 -20.0 -14.7 -20.1 L-14.6 -20.25 M-16.15 -19.7 L-15.05 -19.6 -14.4 -19.6 -14.35 -19.1 -14.2 -18.9 Q-14.0 -18.7 -13.8 -18.4 -13.45 -17.8 -13.35 -17.25 L-13.1 -16.4 -13.0 -16.2 -13.75 -16.9 -15.1 -18.1 -16.0 -19.35 Q-16.05 -19.6 -16.15 -19.7 M-16.1 -16.35 L-16.15 -16.3 -16.2 -16.05 -16.2 -16.0 -16.25 -16.25 -16.1 -16.35 M-12.6 -16.05 L-12.1 -15.35 -11.9 -15.1 -11.9 -14.3 Q-12.35 -14.85 -12.7 -15.2 -12.6 -15.5 -12.6 -16.05 M-14.0 -13.45 L-14.05 -13.7 Q-14.2 -14.3 -14.2 -14.5 -14.2 -15.15 -13.55 -14.9 L-13.3 -14.75 -13.35 -14.85 -13.25 -14.85 Q-12.7 -14.45 -12.2 -13.85 L-12.15 -13.8 Q-11.35 -13.0 -10.75 -12.1 -10.1 -11.15 -10.1 -10.7 L-10.1 -10.65 -9.8 -10.2 -10.0 -10.2 Q-10.2 -10.2 -10.25 -10.15 L-10.2 -10.05 -10.45 -10.15 -10.65 -10.1 -10.7 -10.1 Q-10.6 -10.1 -10.45 -10.2 -10.25 -10.3 -10.25 -10.55 -10.25 -10.7 -12.0 -12.1 -13.5 -13.3 -14.0 -13.45 M-11.15 -10.15 Q-12.5 -10.35 -13.35 -11.85 L-13.1 -11.55 Q-12.05 -10.35 -11.15 -10.15 M-8.1 -11.45 Q-7.8 -10.75 -7.7 -10.7 -7.65 -10.75 -7.6 -10.85 -7.8 -11.3 -7.95 -11.5 L-8.1 -11.45 M-10.25 -12.25 Q-10.5 -12.75 -10.65 -13.2 -10.65 -13.55 -10.5 -13.75 L-10.55 -13.9 -10.55 -13.95 -10.5 -13.95 -10.4 -13.9 Q-10.25 -14.0 -10.1 -14.05 -9.65 -14.15 -8.95 -13.75 -8.25 -13.3 -7.8 -12.55 -7.3 -11.75 -7.3 -10.8 -7.3 -10.5 -7.3 -10.35 -7.2 -10.05 -7.05 -9.75 L-7.7 -10.4 -8.55 -11.3 Q-9.55 -12.25 -10.25 -12.25 M-6.9 -9.6 L-6.8 -9.45 -6.95 -9.5 -6.9 -9.6 M-8.55 -10.15 Q-9.25 -10.5 -9.8 -11.4 L-9.75 -11.35 -9.05 -10.6 -8.55 -10.15 M-10.35 -8.25 L-10.55 -8.75 Q-10.55 -9.55 -9.9 -9.5 L-9.6 -9.45 Q-9.45 -9.6 -9.2 -9.55 L-9.0 -9.5 -9.0 -9.55 -8.8 -9.45 -8.8 -9.4 Q-8.45 -9.25 -8.05 -8.95 -7.4 -8.45 -6.95 -7.8 L-6.85 -7.65 Q-6.25 -7.05 -6.25 -6.8 -6.25 -6.5 -6.35 -6.25 L-6.35 -6.3 -6.9 -6.75 Q-7.65 -7.45 -8.3 -7.95 -10.4 -9.5 -10.4 -8.4 L-10.35 -8.25 M-6.25 -6.05 L-6.2 -5.95 -6.25 -5.95 -6.25 -6.05" fill="#d9ba8d" fill-rule="evenodd" stroke="none"/>
    <path d="M2.45 -32.45 Q2.5 -32.55 2.5 -32.6 L2.8 -32.7 Q2.9 -32.6 3.0 -32.45 3.1 -32.3 3.1 -32.15 3.0 -32.0 2.85 -31.9 L2.85 -31.95 2.45 -32.45 M-2.4 -36.1 L-2.1 -36.05 Q-2.1 -35.4 -1.9 -34.4 L-1.85 -34.05 -2.2 -34.4 -2.5 -34.35 Q-2.65 -34.3 -2.7 -34.15 -2.5 -34.0 -2.4 -33.75 -2.3 -33.5 -1.75 -33.15 L-1.7 -33.2 -1.6 -32.7 -1.7 -32.45 Q-2.5 -32.6 -3.35 -32.45 L-3.3 -32.6 Q-3.3 -33.05 -3.3 -33.5 -3.15 -33.6 -3.15 -33.85 -3.15 -33.95 -3.2 -34.1 L-3.15 -34.45 Q-2.95 -35.25 -2.5 -35.95 L-2.5 -36.05 -2.4 -36.1 M1.85 -31.25 L1.85 -31.2 2.15 -30.4 2.25 -30.55 2.35 -30.65 2.4 -30.75 Q2.4 -30.5 2.4 -30.45 2.35 -30.35 2.1 -30.15 1.8 -30.45 1.8 -30.65 L1.85 -31.25 M6.1 -27.35 L5.1 -28.05 4.85 -28.2 4.8 -28.2 3.35 -29.15 3.3 -29.2 Q2.9 -29.65 2.8 -30.0 3.7 -30.05 4.75 -29.1 5.3 -28.6 6.15 -27.6 6.15 -27.45 6.1 -27.35 M6.9 -27.55 L7.05 -27.7 7.6 -27.75 7.6 -27.7 7.65 -27.7 7.7 -27.6 7.55 -27.3 7.4 -26.8 7.35 -26.8 7.25 -26.95 7.0 -27.45 6.95 -27.45 6.95 -27.5 6.9 -27.55 M10.6 -25.05 L10.5 -25.25 Q10.6 -25.5 10.8 -25.6 L11.2 -24.95 11.45 -24.35 Q11.2 -24.15 10.95 -23.8 10.85 -23.85 10.75 -23.95 L10.8 -24.1 10.8 -24.15 10.75 -24.4 Q10.7 -24.7 10.6 -25.05 M11.55 -19.85 Q11.35 -20.15 11.15 -20.7 L11.1 -20.75 Q10.85 -21.45 10.7 -22.15 L10.7 -22.25 Q11.2 -22.15 11.75 -21.35 12.3 -20.55 12.3 -20.25 L12.25 -19.9 12.25 -19.85 12.15 -19.75 Q12.1 -19.7 11.85 -19.7 11.75 -19.7 11.55 -19.85 M7.65 -26.05 L7.6 -26.2 Q8.3 -26.35 9.05 -25.4 9.65 -24.6 9.65 -24.15 9.65 -23.95 9.6 -23.95 9.55 -23.95 9.55 -23.9 L9.4 -23.85 8.0 -25.25 7.9 -25.4 7.95 -25.4 8.0 -25.35 8.4 -25.05 8.45 -25.05 Q8.3 -25.45 7.65 -26.05 M4.2 -22.5 L3.95 -23.0 Q3.6 -23.8 3.35 -24.6 3.35 -25.55 4.25 -24.25 5.0 -23.1 5.55 -21.7 L5.55 -21.55 Q5.3 -21.65 5.05 -21.9 L5.0 -21.9 Q4.6 -22.0 4.2 -22.5 M-1.9 -27.95 Q-1.35 -27.8 -0.7 -27.15 L0.35 -25.75 0.35 -26.35 Q0.6 -26.35 0.95 -26.15 1.3 -26.0 1.3 -25.7 L1.3 -25.45 1.2 -25.45 0.6 -25.4 0.55 -25.4 0.5 -25.45 0.5 -25.4 0.2 -25.4 Q-0.85 -25.4 -1.6 -27.1 L-1.75 -27.5 Q-1.75 -27.75 -1.85 -27.85 L-1.9 -27.95 M-0.15 -21.0 L-0.2 -21.0 Q-1.3 -22.7 -1.3 -22.85 -1.3 -23.05 -1.25 -23.1 L-1.15 -23.2 Q-0.15 -22.85 0.55 -21.6 1.25 -20.2 1.7 -19.6 1.6 -19.45 1.55 -19.35 1.45 -19.25 1.25 -19.25 L0.8 -19.85 0.7 -19.95 -0.05 -20.85 -0.15 -20.95 -0.15 -21.0 M3.85 -18.1 Q4.5 -17.9 5.1 -17.25 L6.0 -16.2 5.05 -16.8 Q4.2 -17.45 3.9 -17.85 3.85 -17.95 3.85 -18.05 L3.85 -18.1 M8.25 -20.25 Q8.8 -20.15 9.05 -19.2 9.25 -18.35 9.4 -17.85 8.9 -17.9 8.55 -18.95 8.25 -19.8 8.25 -20.2 L8.25 -20.25 M11.3 -11.6 L10.95 -11.95 Q10.8 -12.15 10.6 -12.5 10.2 -13.1 10.1 -13.3 L10.1 -13.45 10.1 -13.5 10.15 -13.6 10.7 -13.5 10.75 -13.55 Q11.1 -13.25 11.35 -12.95 11.65 -12.55 11.85 -11.85 11.8 -11.7 11.75 -11.65 11.65 -11.55 11.4 -11.55 L11.3 -11.6 M7.0 -11.4 L7.0 -11.45 Q7.0 -11.55 7.15 -11.95 L7.35 -11.9 7.45 -11.8 7.5 -11.85 Q7.75 -11.7 8.0 -11.4 8.35 -10.9 8.65 -10.3 L8.55 -10.1 Q8.5 -10.05 8.4 -10.0 7.85 -10.35 7.4 -10.85 7.15 -11.15 7.0 -11.4 M14.0 -13.75 Q14.75 -13.75 15.05 -12.85 15.25 -12.3 15.25 -11.75 15.25 -11.5 15.2 -11.55 L15.05 -11.55 Q14.9 -11.6 14.65 -11.95 L14.45 -12.3 14.1 -12.8 Q13.85 -13.3 13.85 -13.45 L13.9 -13.6 13.9 -13.65 14.0 -13.75 M-9.3 -27.5 L-9.35 -27.4 -9.45 -27.25 Q-9.55 -27.1 -9.75 -27.1 L-9.9 -27.2 Q-10.65 -28.0 -11.4 -28.4 L-11.6 -29.1 Q-11.85 -29.85 -12.0 -30.25 L-12.0 -30.75 -11.8 -30.7 -11.55 -30.6 -11.4 -30.3 Q-11.2 -29.45 -10.95 -29.1 -10.65 -28.65 -9.6 -27.8 L-9.3 -27.5 M-7.05 -35.25 Q-6.65 -34.95 -5.95 -34.1 L-4.45 -31.95 Q-4.7 -31.65 -4.95 -31.5 -5.25 -31.55 -5.5 -31.55 -5.65 -31.65 -5.75 -31.9 L-5.95 -32.15 -6.2 -32.45 -6.5 -32.65 -6.55 -32.7 -6.55 -32.8 Q-6.55 -33.35 -6.9 -34.15 L-7.25 -34.95 -7.25 -35.15 -7.05 -35.25 M-4.85 -26.35 L-4.8 -26.05 -5.05 -25.9 Q-5.4 -26.25 -6.1 -26.6 L-6.2 -26.65 Q-7.7 -26.9 -8.5 -28.05 L-8.55 -28.2 Q-8.8 -28.6 -9.05 -29.1 L-9.15 -29.45 -9.3 -30.0 Q-9.5 -30.85 -9.55 -31.85 L-9.55 -32.3 -9.55 -32.5 -9.45 -32.8 Q-9.0 -32.8 -9.0 -32.85 -8.6 -32.25 -8.05 -31.15 L-8.05 -31.05 -7.35 -29.65 -7.15 -29.2 Q-6.2 -27.45 -4.95 -26.45 L-4.95 -26.35 -4.85 -26.35 M-7.35 -30.45 Q-6.8 -30.4 -6.25 -29.15 -5.7 -27.7 -5.5 -27.3 L-5.65 -27.15 Q-6.05 -27.55 -6.6 -28.5 L-7.15 -29.5 -7.5 -30.25 -7.4 -30.5 -7.35 -30.45 M-4.1 -23.8 L-3.95 -23.9 Q-3.6 -23.2 -3.4 -22.4 L-3.1 -20.85 -3.4 -20.9 -3.55 -20.9 -3.7 -21.35 -4.05 -22.35 Q-4.05 -22.6 -4.1 -22.85 L-4.05 -22.85 Q-4.2 -23.3 -4.1 -23.8 M-2.95 -22.6 Q-2.9 -22.65 -2.7 -22.65 L-2.5 -22.2 Q-2.4 -21.9 -2.4 -21.65 -2.4 -21.4 -2.5 -21.25 -2.55 -21.1 -2.65 -20.9 -3.05 -21.75 -3.05 -22.2 -3.05 -22.5 -2.95 -22.6 M-13.6 -27.15 Q-12.95 -27.05 -12.2 -26.65 L-11.9 -26.0 Q-11.35 -24.7 -10.85 -24.05 -10.6 -24.2 -10.55 -24.4 L-11.05 -25.8 -10.45 -25.35 -9.45 -24.3 -9.1 -23.35 Q-8.75 -22.35 -8.5 -22.2 L-10.1 -22.55 -10.45 -23.15 Q-10.85 -23.7 -11.25 -23.7 -11.8 -24.1 -12.4 -24.3 L-12.45 -24.15 -12.55 -24.35 -12.65 -24.6 -13.1 -25.5 -13.25 -25.75 -13.3 -25.95 Q-13.55 -26.6 -13.6 -27.15 M-8.35 -22.15 L-8.2 -22.15 -8.2 -22.1 -8.35 -22.15 M-11.4 -20.2 L-11.45 -20.2 Q-11.6 -20.4 -11.75 -20.8 L-11.9 -21.15 -11.95 -21.3 Q-12.05 -21.7 -12.05 -22.0 L-12.05 -22.25 Q-12.05 -22.5 -11.9 -22.55 L-11.7 -22.6 Q-11.45 -22.4 -11.3 -22.0 -11.15 -21.45 -11.05 -21.35 L-11.05 -20.4 -11.2 -20.35 -11.4 -20.2 M-6.55 -23.9 Q-6.45 -23.9 -6.45 -23.95 L-6.25 -23.85 Q-6.15 -23.8 -6.15 -23.55 -6.15 -23.35 -5.6 -21.95 -5.05 -20.65 -5.0 -20.4 L-5.2 -20.45 Q-5.4 -20.65 -5.7 -21.1 L-5.75 -21.2 -6.0 -21.8 -6.2 -22.4 -6.2 -22.55 Q-6.4 -23.2 -6.55 -23.9 M-5.85 -23.6 Q-5.15 -23.1 -4.9 -22.3 -4.7 -21.4 -4.5 -20.95 L-4.6 -20.8 Q-4.7 -20.75 -4.8 -20.75 -4.95 -20.9 -5.45 -21.9 -6.05 -23.0 -6.05 -23.4 -6.05 -23.6 -5.95 -23.6 L-5.85 -23.6 M-9.2 -19.2 Q-9.15 -19.55 -8.85 -19.65 -8.4 -19.35 -8.25 -18.7 -8.1 -17.9 -7.95 -17.45 -8.0 -17.25 -8.25 -17.15 -8.5 -17.3 -8.85 -18.15 -9.15 -18.7 -9.2 -18.95 L-9.2 -19.2 M-10.9 -15.15 L-11.3 -15.5 Q-12.3 -16.55 -12.75 -17.2 L-12.8 -17.3 -13.05 -17.65 -13.1 -17.8 Q-12.15 -17.4 -11.0 -16.25 -10.15 -15.4 -9.65 -14.65 L-10.5 -14.75 -10.9 -15.15 M-14.1 -25.4 L-13.9 -24.75 Q-13.8 -24.5 -13.25 -23.95 L-12.95 -23.6 -12.95 -23.55 Q-13.0 -23.45 -13.1 -23.4 L-13.05 -23.3 -13.25 -23.4 -13.45 -23.4 -14.1 -23.55 -14.3 -24.1 Q-14.6 -24.8 -14.6 -25.45 -14.6 -25.6 -14.55 -25.7 -14.3 -25.55 -14.1 -25.4 M-15.0 -22.75 Q-14.75 -23.05 -14.05 -22.35 -13.5 -21.85 -13.1 -21.2 -13.0 -21.35 -12.95 -21.4 -12.85 -21.3 -12.85 -21.2 -12.9 -21.15 -13.0 -21.1 L-12.5 -20.25 -12.5 -20.5 -12.25 -20.15 -12.1 -19.05 -12.15 -19.05 -12.25 -19.0 -12.4 -18.95 -12.6 -18.95 -12.7 -18.9 Q-13.2 -19.15 -13.75 -19.7 L-14.15 -20.25 -14.25 -20.4 -14.4 -20.65 -14.4 -20.7 -14.55 -21.1 -15.1 -22.3 -15.1 -22.45 -15.0 -22.55 -14.95 -22.7 -15.0 -22.75 M-15.25 -20.0 L-15.35 -20.2 -15.35 -20.25 Q-15.6 -20.7 -16.2 -21.5 L-16.4 -21.95 -16.55 -22.6 -16.55 -22.8 -16.5 -22.95 -16.35 -23.05 Q-16.15 -22.95 -15.8 -22.85 L-15.55 -22.6 -15.65 -22.1 -15.6 -21.95 Q-14.9 -20.8 -14.6 -20.25 L-14.7 -20.1 Q-14.85 -20.0 -15.05 -20.0 L-15.25 -20.0 M-16.15 -19.7 Q-16.05 -19.6 -16.0 -19.35 L-15.1 -18.1 -13.75 -16.9 -13.0 -16.2 -12.95 -16.0 -12.95 -15.8 -12.9 -15.55 -12.9 -15.4 Q-13.25 -15.6 -13.45 -15.6 -13.65 -15.6 -13.7 -15.55 L-14.05 -15.9 Q-14.15 -16.2 -14.3 -16.45 L-14.45 -16.25 -14.8 -16.75 -14.9 -16.9 -15.0 -17.0 -15.2 -17.25 -15.95 -18.05 Q-16.75 -18.85 -16.75 -18.95 L-16.55 -19.75 -16.15 -19.7 M-16.1 -16.35 L-16.0 -16.45 Q-15.6 -16.8 -15.45 -16.95 L-15.45 -16.9 -15.4 -16.85 -15.4 -16.8 -15.2 -16.45 -14.85 -15.75 -14.6 -15.45 -14.6 -15.2 Q-14.6 -14.5 -14.55 -13.9 L-14.4 -13.15 -14.8 -13.5 -16.85 -15.3 Q-16.85 -15.7 -16.25 -16.25 L-16.2 -16.0 -16.2 -16.05 -16.15 -16.3 -16.1 -16.35 M-10.7 -10.1 L-10.75 -10.1 -11.15 -10.15 Q-12.05 -10.35 -13.1 -11.55 L-13.35 -11.85 -13.4 -11.95 -13.5 -12.2 -13.55 -12.2 -13.6 -12.4 -13.65 -12.45 -13.65 -12.5 -13.7 -12.55 Q-13.85 -12.95 -13.95 -13.4 L-14.0 -13.45 Q-13.5 -13.3 -12.0 -12.1 -10.25 -10.7 -10.25 -10.55 -10.25 -10.3 -10.45 -10.2 -10.6 -10.1 -10.7 -10.1 M-14.1 -12.25 L-14.05 -12.1 Q-13.5 -10.75 -12.45 -10.05 -11.9 -9.4 -11.25 -8.85 L-11.2 -8.7 -11.8 -9.3 Q-12.55 -10.05 -12.95 -10.35 -14.45 -11.55 -16.75 -11.9 L-16.75 -12.8 Q-16.2 -13.55 -15.65 -13.6 L-15.35 -13.55 -15.25 -13.6 Q-14.8 -13.2 -14.55 -12.7 -14.5 -12.6 -14.1 -12.25 M-12.95 -6.75 Q-12.85 -6.8 -12.75 -6.85 L-12.7 -6.9 -11.75 -7.3 -11.55 -7.4 -11.05 -7.2 -10.5 -7.25 -10.35 -7.2 Q-9.75 -6.45 -9.0 -5.95 L-9.1 -5.95 -9.0 -5.9 -9.85 -5.95 Q-12.35 -6.2 -12.95 -6.75 M-12.75 -9.25 Q-12.4 -9.15 -11.95 -8.9 L-11.05 -8.4 Q-10.8 -7.9 -10.5 -7.45 L-10.45 -7.35 -10.75 -7.3 Q-11.35 -7.3 -12.5 -8.2 L-12.55 -8.25 Q-13.95 -9.1 -14.15 -9.8 L-13.75 -10.05 -13.65 -10.1 Q-13.15 -9.6 -12.75 -9.25 M-8.1 -11.45 L-7.95 -11.5 Q-7.8 -11.3 -7.6 -10.85 -7.65 -10.75 -7.7 -10.7 -7.8 -10.75 -8.1 -11.45 M-7.05 -9.75 L-6.9 -9.6 -6.95 -9.5 Q-7.4 -9.7 -7.8 -9.85 L-7.85 -10.0 -7.95 -10.0 Q-8.25 -10.0 -8.55 -10.15 L-9.05 -10.6 -9.75 -11.35 -9.8 -11.4 -9.9 -11.55 -10.05 -11.75 -10.1 -11.9 -10.2 -12.1 -10.25 -12.25 Q-9.55 -12.25 -8.55 -11.3 L-7.7 -10.4 -7.05 -9.75 M-6.35 -6.25 L-6.25 -6.05 -6.25 -5.95 -6.65 -5.95 Q-6.9 -5.8 -7.3 -5.8 -8.65 -5.8 -9.75 -7.3 L-9.85 -7.5 Q-10.15 -7.85 -10.3 -8.2 L-10.35 -8.25 -10.4 -8.4 Q-10.4 -9.5 -8.3 -7.95 -7.65 -7.45 -6.9 -6.75 L-6.35 -6.3 -6.35 -6.25" fill="#806d53" fill-rule="evenodd" stroke="none"/>
  </g>
</svg>
