<?xml version="1.0" encoding="UTF-8" standalone="no"?>
<svg xmlns:ffdec="https://www.free-decompiler.com/flash" xmlns:xlink="http://www.w3.org/1999/xlink" ffdec:objectType="shape" height="42.75px" width="33.9px" xmlns="http://www.w3.org/2000/svg">
  <g transform="matrix(1.0, 0.0, 0.0, 1.0, 14.8, 37.55)">
    <path d="M7.5 -37.2 L7.5 -36.65 7.55 -37.15 7.5 -37.2 M-0.5 -33.7 L-0.9 -34.3 -1.2 -34.55 -1.15 -34.65 -1.15 -34.75 -1.2 -34.8 -1.15 -35.15 -0.25 -35.0 Q0.1 -35.05 0.5 -35.0 L0.9 -34.95 Q-0.2 -36.65 -0.2 -36.85 L-0.2 -36.9 Q1.45 -36.65 2.8 -36.2 L4.05 -35.75 Q4.3 -35.7 4.35 -35.8 L4.65 -35.6 Q4.55 -36.15 4.5 -36.35 4.3 -36.9 4.3 -36.95 L4.3 -37.1 6.35 -35.85 6.4 -35.85 6.8 -35.4 7.15 -34.9 7.1 -35.6 Q7.35 -35.75 7.4 -36.25 7.45 -36.65 7.45 -37.35 L7.45 -37.55 7.85 -37.1 Q9.2 -35.55 10.0 -34.25 10.3 -33.75 10.65 -31.7 10.95 -29.95 11.3 -29.9 11.55 -29.9 11.6 -30.0 L11.7 -30.1 11.7 -30.25 Q13.05 -31.3 13.55 -32.0 13.9 -31.05 14.05 -30.1 14.25 -28.25 14.25 -27.5 14.15 -26.15 13.35 -24.5 12.5 -22.8 12.45 -22.1 12.45 -21.65 12.75 -21.0 L13.0 -21.0 13.0 -20.95 Q13.1 -20.9 13.25 -20.8 13.85 -20.35 13.9 -19.9 L13.95 -19.85 13.9 -19.75 Q13.85 -19.35 13.35 -18.55 L12.9 -17.9 12.9 -17.8 Q12.9 -17.5 12.9 -17.45 L13.05 -17.35 13.05 -17.3 Q13.1 -17.25 13.35 -17.25 L13.4 -17.25 13.5 -16.95 Q13.5 -16.35 13.5 -15.9 L13.5 -15.3 Q13.5 -15.15 13.65 -14.65 13.7 -14.45 13.8 -14.2 13.85 -13.9 14.0 -13.65 14.25 -13.2 14.8 -12.85 15.55 -12.1 16.6 -11.9 L16.55 -11.9 Q16.0 -11.95 15.55 -12.1 L15.8 -11.65 Q16.5 -11.3 17.4 -11.25 L17.75 -11.1 Q17.65 -10.8 17.2 -10.8 16.7 -10.85 16.2 -11.05 L16.95 -10.0 17.05 -9.9 17.0 -9.85 17.25 -9.5 Q17.35 -9.45 17.2 -9.45 L17.25 -9.4 Q17.6 -8.8 17.95 -7.85 L18.15 -7.65 Q18.05 -7.4 18.05 -7.1 18.05 -6.8 18.6 -4.95 19.1 -3.1 19.1 -2.5 19.05 -0.15 16.2 2.95 L15.0 4.2 14.95 4.15 14.95 3.95 Q14.95 3.65 15.1 3.15 15.25 2.65 15.25 2.25 L15.15 0.6 Q15.15 0.35 14.95 -0.45 L14.9 -0.85 14.3 -0.25 Q14.1 0.0 13.95 0.1 13.6 0.45 13.4 0.6 13.3 0.8 13.2 0.85 12.9 0.6 12.9 0.45 L13.05 -1.95 12.5 -1.75 11.85 -1.15 Q9.45 1.0 8.1 0.95 7.15 0.95 6.5 0.35 L6.35 0.85 6.2 1.3 6.15 1.85 Q6.15 2.3 6.1 2.45 6.05 2.9 5.75 2.9 5.4 2.9 4.6 2.0 4.25 1.8 3.7 1.15 L3.3 0.65 3.25 0.75 Q3.1 0.55 2.95 0.25 L3.1 1.7 Q3.1 1.9 2.95 2.0 L2.5 1.8 Q1.45 1.4 1.05 0.95 0.75 0.35 0.35 -0.1 -0.2 -0.7 -0.2 0.2 L-0.2 0.55 -0.25 1.2 Q-0.2 2.6 0.2 3.95 0.4 4.65 0.7 5.2 -2.15 3.6 -3.4 1.8 -4.6 0.0 -4.55 -2.65 -4.5 -3.25 -4.35 -4.4 L-4.2 -4.75 -4.2 -4.8 -4.25 -4.85 Q-4.25 -5.65 -4.55 -6.25 -4.8 -6.6 -5.15 -6.9 L-8.3 -9.6 Q-9.25 -10.3 -9.7 -10.25 -10.4 -10.65 -10.9 -10.7 L-11.45 -11.0 Q-12.5 -11.2 -13.05 -10.85 L-14.3 -13.5 -14.35 -13.55 Q-14.85 -15.9 -14.8 -18.2 -14.8 -18.7 -14.7 -19.3 L-14.65 -19.4 -14.45 -19.85 -14.65 -19.75 -14.6 -19.9 Q-14.35 -20.5 -13.3 -21.95 L-12.45 -23.05 -12.35 -23.15 Q-12.15 -23.2 -12.0 -23.4 -11.9 -23.6 -11.9 -23.85 L-12.55 -24.9 -12.65 -25.15 Q-12.85 -25.7 -12.85 -26.15 -12.8 -28.25 -10.85 -31.15 L-9.5 -33.0 -9.25 -33.4 -9.2 -33.35 Q-8.9 -33.25 -8.45 -32.7 L-8.25 -32.45 -7.4 -31.35 -7.1 -31.1 -7.05 -31.05 -6.75 -31.1 -7.05 -31.1 -7.15 -31.15 -7.2 -31.25 -7.1 -31.25 -5.8 -31.35 -5.05 -31.4 -4.95 -31.4 -5.25 -31.5 -5.15 -31.4 -5.1 -31.4 -5.4 -31.5 Q-5.75 -31.65 -6.05 -31.85 L-6.15 -31.85 -6.45 -32.15 -6.35 -32.25 -6.1 -32.25 Q-5.0 -32.6 -3.7 -32.65 -2.0 -32.8 -1.0 -32.3 L-0.9 -32.25 Q-1.45 -33.0 -1.65 -33.55 -1.45 -33.45 -1.25 -33.3 L-1.6 -33.55 Q-1.2 -33.75 -0.3 -33.3 L-0.5 -33.7 M8.35 -35.9 L8.05 -36.45 8.05 -36.05 Q8.0 -35.4 8.0 -34.9 8.2 -34.15 8.25 -33.2 8.3 -32.7 8.25 -30.9 8.25 -30.65 8.15 -29.85 L8.1 -29.6 8.0 -29.2 8.0 -29.15 Q7.95 -28.85 7.9 -28.7 L7.9 -29.85 Q7.85 -30.1 7.85 -30.4 L7.75 -30.95 Q7.75 -31.2 7.7 -31.5 L7.0 -33.15 Q6.55 -34.0 6.05 -34.75 L5.6 -35.25 5.55 -35.4 5.7 -34.7 5.75 -34.45 5.8 -34.4 5.75 -34.35 5.9 -33.55 5.95 -33.05 5.95 -32.45 Q6.0 -31.2 6.05 -30.4 L6.1 -29.7 6.15 -28.95 6.1 -28.95 Q5.9 -29.35 5.8 -29.85 5.7 -30.2 5.65 -30.65 L5.65 -31.1 5.65 -31.25 Q5.6 -31.7 5.6 -32.3 L5.4 -33.6 5.3 -33.95 5.25 -34.0 5.15 -33.95 5.15 -34.0 5.1 -34.15 4.2 -34.85 Q3.75 -35.05 3.1 -35.4 L3.0 -35.45 2.95 -35.45 2.45 -35.75 1.15 -36.2 1.1 -36.2 1.15 -36.15 1.35 -35.85 Q1.9 -34.95 2.35 -33.9 L2.45 -33.6 2.7 -32.9 3.45 -31.3 Q3.55 -31.05 3.7 -30.8 3.8 -30.7 3.9 -30.6 L3.85 -30.55 Q4.1 -30.2 4.35 -29.9 L4.8 -29.35 4.7 -29.2 Q4.6 -29.1 4.5 -29.1 4.25 -29.1 4.0 -29.35 3.6 -29.7 3.15 -30.6 L2.6 -31.95 2.1 -32.8 Q1.4 -33.8 0.1 -34.35 L0.05 -34.35 -0.25 -34.45 -0.4 -34.45 -0.45 -34.5 -0.45 -34.5 Q0.4 -34.0 1.2 -32.8 L1.65 -32.05 1.7 -32.0 Q2.5 -31.3 2.7 -30.85 L2.35 -30.85 Q2.3 -30.85 0.8 -31.85 L0.65 -31.95 0.6 -31.95 0.55 -32.0 0.4 -32.05 0.4 -32.1 -0.05 -32.4 -0.2 -32.45 -0.7 -32.8 -1.05 -33.1 Q-0.75 -32.85 -0.5 -32.4 L-0.15 -31.75 0.15 -31.05 Q0.15 -30.95 0.05 -30.95 L-0.3 -31.4 -0.35 -31.4 -0.6 -31.55 Q-0.8 -31.7 -1.05 -31.8 -1.85 -32.1 -3.8 -32.1 L-5.0 -32.0 -5.5 -31.95 -5.45 -31.9 -4.75 -31.35 -4.55 -31.35 -4.55 -31.25 -6.2 -31.1 -6.95 -30.95 -6.1 -30.2 Q-5.5 -29.75 -4.6 -29.25 L-3.25 -28.5 Q-2.05 -27.95 -1.7 -27.75 L-1.75 -27.65 Q-1.75 -27.55 -1.9 -27.55 L-2.7 -27.65 -2.75 -27.65 Q-3.85 -27.7 -5.65 -28.95 L-6.3 -29.45 Q-7.1 -30.05 -7.7 -30.7 L-7.85 -30.85 -7.9 -30.6 -7.8 -30.0 Q-7.7 -29.65 -7.5 -29.2 -7.1 -28.4 -6.65 -27.75 -5.9 -26.8 -5.25 -26.1 L-4.95 -25.8 -5.3 -25.65 -5.3 -25.5 Q-5.35 -25.45 -5.5 -25.45 -5.8 -25.5 -6.15 -25.7 -6.75 -26.05 -7.3 -27.1 L-7.65 -27.9 -7.95 -27.75 -7.8 -27.65 Q-7.4 -27.45 -7.4 -27.1 L-7.55 -27.0 -7.95 -26.65 Q-8.25 -26.35 -8.8 -25.95 -9.95 -25.0 -10.45 -24.45 -10.45 -24.7 -10.6 -24.95 L-10.65 -25.1 -10.65 -25.15 Q-10.45 -25.45 -10.1 -25.75 -9.3 -26.45 -7.95 -27.15 L-8.05 -27.2 -8.1 -27.25 -8.2 -27.25 -8.95 -27.25 Q-9.05 -27.3 -9.1 -27.4 L-9.15 -27.5 Q-9.0 -27.5 -8.3 -27.85 L-7.75 -28.15 Q-8.0 -28.85 -8.2 -29.7 L-8.4 -30.65 -8.5 -31.2 Q-8.6 -31.55 -8.75 -31.8 -8.9 -32.05 -9.0 -32.1 L-9.35 -32.5 Q-10.5 -31.1 -11.3 -29.85 -12.35 -28.15 -12.4 -27.1 L-12.35 -26.7 -12.35 -26.75 -12.3 -26.15 Q-12.15 -25.6 -11.9 -25.05 -11.45 -24.05 -11.05 -23.95 L-11.05 -23.9 -11.0 -23.9 -10.9 -23.95 -10.75 -23.95 -10.55 -23.8 Q-10.15 -24.0 -8.4 -24.5 L-7.8 -24.65 Q-7.9 -24.6 -8.7 -24.3 L-9.4 -23.75 -10.15 -23.35 Q-11.95 -22.0 -12.95 -20.95 L-13.4 -20.35 Q-13.65 -19.85 -13.8 -19.3 L-14.05 -18.9 -14.2 -18.45 -14.4 -17.2 -14.35 -17.3 -14.3 -17.35 -14.15 -17.45 -14.15 -17.5 Q-13.75 -18.35 -12.85 -19.45 -11.15 -21.55 -9.75 -22.05 L-10.7 -21.15 -10.2 -21.45 Q-10.8 -21.1 -11.55 -20.3 -13.7 -18.1 -13.7 -16.65 -13.7 -16.3 -13.7 -16.15 L-13.6 -15.95 -13.7 -15.65 -13.7 -15.5 -13.65 -14.75 -13.25 -12.8 -13.25 -12.75 -13.15 -12.4 -13.05 -12.0 -13.0 -11.85 Q-12.9 -12.85 -12.65 -13.9 -12.55 -14.4 -12.3 -14.95 -12.15 -15.5 -11.9 -16.0 -11.45 -16.95 -10.75 -17.8 L-10.05 -18.7 Q-9.15 -19.85 -8.1 -20.5 L-8.05 -20.5 Q-7.6 -20.75 -7.15 -20.95 L-7.05 -20.8 Q-8.65 -19.5 -9.75 -18.05 L-9.85 -17.95 Q-11.0 -16.4 -11.4 -14.95 -11.65 -14.15 -11.8 -12.85 L-11.9 -12.0 -11.65 -12.25 Q-10.95 -13.3 -10.1 -13.35 L-10.25 -13.2 -10.05 -13.35 Q-10.7 -12.15 -11.0 -11.45 L-10.5 -11.3 Q-10.25 -11.6 -9.9 -11.9 L-9.1 -12.55 Q-8.4 -13.05 -7.75 -13.35 -8.35 -12.9 -8.95 -12.35 L-9.75 -11.65 -10.25 -11.2 -10.0 -11.05 Q-9.45 -10.85 -8.85 -10.5 L-8.15 -10.1 Q-5.7 -8.65 -5.0 -7.6 L-5.0 -7.55 Q-4.35 -7.0 -3.95 -6.55 -3.95 -6.95 -3.8 -7.4 -3.6 -8.05 -3.15 -8.75 L-2.7 -9.35 -2.65 -9.4 -2.45 -9.8 Q-2.9 -9.4 -3.4 -9.15 L-3.55 -9.05 -3.6 -9.0 Q-3.65 -9.0 -3.65 -9.15 -3.65 -9.2 -3.5 -9.35 L-3.5 -9.4 -3.45 -9.4 -2.55 -10.05 Q-2.35 -10.25 -2.15 -10.45 -1.9 -11.3 -1.85 -12.15 L-3.5 -16.95 Q-3.5 -17.5 -3.05 -18.5 L-2.7 -19.1 Q-2.4 -19.6 -2.1 -19.6 L-2.1 -19.55 -2.05 -19.35 Q-2.05 -19.3 -2.35 -18.55 L-2.4 -18.25 -2.55 -17.6 Q-2.55 -16.95 -2.1 -15.7 L-1.7 -14.9 Q-1.05 -13.7 -0.8 -12.6 -0.75 -12.35 -0.8 -12.1 -0.8 -11.7 -1.75 -9.95 L-2.35 -8.85 -2.55 -8.35 Q-2.75 -7.9 -2.75 -7.65 L-2.75 -7.45 Q-2.7 -7.3 -2.45 -7.3 L-2.4 -7.3 Q-1.6 -8.05 -0.6 -8.75 -0.5 -8.85 -0.5 -8.7 L-0.05 -9.1 -0.05 -9.0 -0.15 -7.7 Q-0.15 -6.9 0.2 -6.9 L0.25 -6.9 0.25 -6.7 0.3 -6.95 Q0.4 -7.1 0.5 -7.5 1.0 -9.25 1.5 -9.55 L1.65 -9.6 1.8 -9.8 1.85 -9.7 1.4 -8.5 1.2 -7.85 1.05 -7.4 Q0.45 -5.3 0.4 -3.4 0.4 -2.9 0.55 -2.35 0.7 -1.85 0.65 -1.5 L0.65 -1.45 0.7 -1.3 0.9 -1.0 Q1.3 -0.1 2.0 0.7 2.2 0.8 2.4 0.9 L2.4 0.85 2.3 -1.05 2.15 -2.0 Q2.1 -2.6 2.05 -3.25 1.9 -4.0 1.9 -4.2 1.9 -4.4 1.95 -4.55 L2.05 -4.55 2.1 -4.7 2.05 -4.5 Q2.35 -4.1 2.45 -3.45 L2.45 -3.35 Q3.05 -1.75 3.45 -0.85 3.9 0.2 4.45 1.05 L4.75 1.35 4.85 1.3 5.1 1.4 Q4.45 0.8 4.2 -1.1 4.0 -2.55 4.05 -4.25 4.05 -5.6 4.1 -6.05 4.25 -7.1 4.75 -7.45 4.85 -7.55 4.85 -7.35 L4.6 -6.3 Q4.4 -5.25 4.35 -4.25 4.35 -2.7 4.9 -0.55 L5.4 1.35 5.55 1.2 Q5.65 0.2 5.75 -1.4 L5.8 -1.65 5.8 -1.8 Q5.9 -2.65 6.15 -3.35 6.2 -3.7 6.35 -4.1 L6.45 -4.5 6.5 -4.95 Q7.05 -6.5 8.05 -8.15 L8.9 -9.15 9.3 -9.6 Q10.35 -10.8 11.55 -10.85 L12.2 -10.95 12.25 -11.0 12.45 -10.95 Q12.95 -11.0 13.3 -10.95 12.25 -12.6 11.9 -12.95 11.2 -13.65 10.5 -14.7 L10.2 -15.2 9.95 -15.65 9.8 -16.3 Q9.6 -16.7 9.4 -16.85 L9.35 -16.9 9.3 -17.05 9.3 -17.1 9.25 -17.35 9.2 -17.4 9.15 -17.35 9.1 -17.4 9.1 -17.5 9.05 -17.5 9.1 -17.55 9.1 -17.65 9.05 -17.7 Q9.0 -17.7 9.0 -17.85 L9.15 -17.85 Q9.3 -17.85 9.5 -18.0 9.6 -17.95 9.75 -17.9 L9.95 -18.1 Q10.35 -18.35 10.65 -18.45 10.6 -18.3 10.3 -18.0 10.85 -18.25 11.5 -19.1 12.3 -20.15 12.3 -20.5 12.3 -21.1 12.05 -21.2 11.65 -22.2 11.2 -23.85 L10.85 -25.35 10.6 -26.15 10.5 -26.6 10.4 -26.1 Q10.15 -24.9 9.8 -24.9 9.65 -24.9 9.6 -24.95 L9.55 -24.95 Q9.4 -25.0 9.4 -25.1 9.35 -25.15 9.35 -25.45 L9.75 -27.1 Q10.15 -28.7 10.2 -29.75 L10.15 -30.9 10.1 -31.25 9.95 -32.4 Q9.6 -33.65 8.9 -34.95 L8.35 -35.9 M-0.75 -23.55 Q-1.2 -22.3 -1.2 -21.9 L-1.1 -21.0 -1.0 -20.25 -0.95 -20.15 Q-0.6 -20.4 0.0 -20.65 L-0.5 -20.95 Q0.15 -21.25 1.65 -20.3 2.1 -20.0 2.85 -19.4 5.25 -17.85 7.05 -17.85 7.45 -17.8 7.65 -17.9 L7.75 -17.9 Q7.85 -17.95 7.9 -18.0 L7.95 -17.85 7.95 -17.8 8.05 -17.8 7.95 -17.65 Q7.9 -17.5 7.6 -17.4 L7.55 -17.4 7.5 -17.35 Q7.2 -17.25 6.55 -17.25 L6.2 -17.25 Q6.05 -17.15 5.75 -17.15 L5.6 -17.15 5.25 -17.2 5.25 -17.15 4.75 -16.7 4.6 -16.7 4.5 -16.75 Q4.7 -16.9 4.85 -17.05 L4.8 -17.05 Q4.4 -16.85 4.2 -16.85 L4.1 -16.8 4.05 -16.85 4.0 -16.85 3.9 -16.9 3.9 -16.85 4.1 -16.8 3.65 -16.75 3.6 -16.75 Q3.65 -16.8 3.8 -16.85 L3.85 -16.85 3.85 -17.0 3.95 -17.2 3.8 -17.45 3.85 -17.5 Q2.8 -17.6 1.3 -18.05 L1.1 -18.1 1.3 -17.9 1.45 -17.75 Q1.5 -17.6 1.6 -17.45 1.8 -17.2 2.25 -17.1 L2.3 -17.05 2.4 -16.95 3.25 -16.7 3.35 -16.65 Q3.25 -16.6 3.05 -16.6 2.5 -16.6 2.15 -16.75 1.6 -16.85 1.0 -17.4 0.7 -17.7 0.55 -17.9 0.4 -18.1 0.4 -18.2 L0.35 -18.35 0.0 -18.5 Q-0.65 -18.65 -0.95 -18.85 L-1.0 -18.85 Q-1.6 -19.15 -1.6 -19.3 -1.6 -19.45 -1.35 -19.7 L-1.3 -19.7 Q-1.85 -20.7 -1.85 -22.05 -1.85 -22.35 -1.75 -22.7 L-1.7 -22.8 -1.6 -23.15 -1.4 -23.65 -1.25 -24.0 Q-0.8 -25.4 -0.8 -25.6 -0.8 -26.0 -0.95 -26.5 L-1.1 -27.05 -1.1 -27.2 -1.05 -27.25 Q-0.5 -27.3 -0.35 -26.6 -0.25 -26.25 -0.25 -25.55 -0.3 -25.2 -0.55 -24.2 L-0.55 -24.15 -0.75 -23.65 -0.75 -23.55 M8.6 -19.05 L8.45 -19.5 Q8.2 -20.55 8.05 -20.75 8.75 -20.6 8.9 -19.7 L9.0 -19.1 9.0 -18.7 8.95 -18.3 Q8.9 -18.2 8.9 -18.1 8.9 -18.0 8.9 -17.95 8.85 -17.65 8.7 -17.45 L8.55 -17.3 8.45 -17.3 8.55 -17.5 Q8.75 -18.05 8.75 -18.3 L8.6 -18.95 8.6 -19.05 M10.8 -29.05 L10.75 -29.05 10.75 -29.0 10.6 -27.35 10.55 -27.05 Q11.25 -25.75 11.75 -24.3 L11.75 -24.25 12.05 -23.15 Q12.05 -23.45 12.35 -24.15 L12.75 -25.15 12.95 -25.7 Q13.55 -27.5 13.6 -28.95 13.6 -29.25 13.4 -30.05 L13.25 -30.65 13.25 -30.5 12.95 -30.25 12.65 -30.05 11.55 -29.35 Q11.1 -29.15 10.8 -29.05 M17.1 -7.4 L16.8 -8.2 16.35 -8.8 Q15.6 -10.0 15.3 -10.6 L14.5 -11.5 Q14.0 -12.05 13.7 -12.6 L13.15 -13.25 12.55 -14.05 12.5 -14.15 Q11.8 -15.1 11.65 -15.7 11.6 -15.7 11.6 -15.75 11.85 -15.3 12.35 -14.6 L12.4 -14.55 12.55 -14.3 Q12.95 -13.8 13.3 -13.5 L13.05 -14.1 12.95 -14.4 12.85 -14.8 Q12.6 -15.4 12.6 -15.9 L12.55 -16.25 12.35 -17.2 Q12.25 -17.05 12.0 -16.8 11.7 -16.55 11.45 -16.5 L11.35 -16.5 Q11.25 -16.5 11.2 -16.55 L11.15 -16.65 Q11.5 -16.85 11.75 -17.15 L11.9 -17.4 12.0 -17.5 11.05 -17.3 11.05 -17.35 10.75 -17.25 Q10.75 -17.0 10.8 -16.85 L10.8 -16.75 10.75 -16.7 10.6 -16.65 Q10.2 -16.65 10.05 -17.1 L10.0 -17.25 9.8 -17.3 9.95 -16.95 9.95 -16.85 10.0 -16.75 10.2 -16.3 10.25 -16.25 10.35 -16.0 Q10.4 -15.95 10.4 -15.9 L10.95 -14.8 11.15 -14.5 11.2 -14.4 11.45 -14.05 11.75 -13.75 12.25 -13.3 12.3 -13.25 Q13.5 -12.3 14.25 -10.85 L14.5 -10.15 14.85 -9.5 14.85 -9.4 15.1 -9.1 Q15.9 -7.85 16.2 -6.65 16.35 -5.95 16.35 -5.3 16.45 -4.85 16.45 -4.4 L16.45 -4.2 16.4 -4.05 Q17.1 -5.45 17.25 -7.15 L17.1 -7.4 M1.6 -16.7 L1.25 -17.15 1.45 -17.0 1.6 -16.75 1.6 -16.7 M2.1 -16.15 Q1.9 -16.35 1.85 -16.45 L1.9 -16.4 Q2.25 -16.05 2.75 -15.9 2.95 -15.8 3.1 -15.75 L3.3 -15.75 4.0 -15.65 Q4.5 -15.65 4.9 -15.8 4.5 -15.5 4.05 -15.45 L3.9 -15.45 Q3.3 -15.45 2.85 -15.65 L2.45 -15.85 2.1 -16.15 M8.2 -16.9 L7.9 -16.7 Q7.4 -16.4 7.15 -16.0 L6.7 -15.65 6.45 -15.35 Q5.5 -14.1 5.15 -13.9 6.15 -15.2 6.4 -15.55 7.2 -16.5 7.95 -16.95 L8.1 -16.9 8.2 -16.9 M12.15 -10.4 L11.95 -10.55 11.45 -10.55 11.35 -10.5 Q8.55 -8.5 7.45 -5.25 7.25 -4.6 7.0 -3.5 L7.1 -3.3 Q7.5 -2.75 8.55 -2.7 11.05 -2.65 12.9 -3.05 13.65 -3.2 14.05 -3.35 L14.4 -3.35 Q15.05 -3.3 15.4 -3.6 L15.55 -3.75 Q15.75 -3.85 15.8 -4.0 15.85 -4.05 15.85 -4.65 L15.75 -5.1 Q15.3 -6.7 15.15 -7.2 14.65 -8.6 13.6 -9.75 L13.0 -10.35 12.9 -10.4 12.25 -10.55 12.15 -10.5 12.2 -10.45 12.15 -10.4 M10.95 -5.95 Q10.95 -5.5 10.55 -4.8 10.05 -3.75 9.3 -3.75 8.65 -3.8 8.45 -4.2 8.4 -4.4 8.4 -4.65 8.4 -5.2 8.85 -5.8 9.2 -6.4 9.7 -6.75 10.25 -7.1 10.55 -6.95 10.95 -6.75 10.95 -5.95 M10.05 -6.45 Q9.85 -6.5 9.55 -6.25 8.75 -5.7 8.75 -5.0 8.7 -4.8 8.75 -4.65 8.8 -4.35 9.25 -4.35 9.75 -4.35 10.05 -5.1 10.3 -5.65 10.3 -6.0 10.3 -6.4 10.05 -6.45 M11.85 -2.5 L11.6 -2.45 Q10.85 -2.3 10.1 -2.3 L9.15 -2.25 Q8.65 -2.25 8.3 -2.45 L8.25 -2.45 6.8 -2.55 6.65 -1.5 6.6 -1.3 6.7 -1.1 6.95 -0.75 Q7.45 -0.05 8.05 -0.05 8.65 -0.05 10.45 -1.3 L10.75 -1.55 11.9 -2.45 12.0 -2.55 11.85 -2.5 M14.6 -5.35 L14.65 -5.8 Q14.65 -6.65 14.05 -6.8 13.85 -6.85 13.65 -6.7 13.5 -6.5 13.5 -6.2 13.45 -5.95 13.55 -5.65 13.75 -5.1 14.25 -5.1 14.55 -5.1 14.6 -5.35 M15.3 -4.65 Q15.2 -4.35 14.75 -4.4 13.9 -4.4 13.5 -5.3 13.35 -5.75 13.35 -6.15 13.35 -6.75 13.65 -7.0 13.95 -7.2 14.4 -7.05 14.8 -6.85 15.1 -6.35 15.4 -5.8 15.4 -5.1 15.4 -4.75 15.3 -4.65 M17.5 -5.35 L17.3 -4.75 Q17.1 -4.2 16.75 -3.6 16.15 -2.45 15.3 -1.55 L15.25 -1.5 15.35 -1.3 Q15.55 -1.05 15.7 -0.6 L15.75 -0.45 15.85 0.75 Q16.0 1.95 16.0 2.4 L16.0 2.5 16.45 1.95 16.5 1.9 17.1 1.05 17.3 0.7 17.5 0.15 Q17.95 -0.85 18.15 -1.7 L18.15 -2.65 18.2 -2.75 18.15 -3.35 18.15 -3.5 Q18.15 -4.0 18.1 -4.45 L17.9 -5.25 17.85 -5.3 17.7 -5.9 17.65 -6.05 Q17.6 -5.95 17.6 -5.8 L17.55 -5.8 17.5 -5.35 M14.0 -2.35 Q14.0 -1.85 13.95 -1.35 14.1 -1.65 14.2 -1.8 L14.4 -2.5 14.0 -2.35 M14.2 -0.95 L14.45 -1.35 14.75 -1.75 Q15.15 -2.0 15.5 -2.65 L15.8 -3.0 16.0 -3.3 Q15.8 -3.15 15.55 -3.05 15.4 -2.95 14.9 -2.7 14.7 -2.15 14.3 -1.35 L14.1 -1.0 14.0 -0.75 14.2 -0.95 M2.4 1.1 L2.35 1.1 Q2.4 1.2 2.4 1.1 M-13.1 -18.45 L-13.1 -18.5 -13.05 -18.6 -13.1 -18.45 M-1.15 -7.45 L-0.9 -7.85 Q-0.55 -8.35 -0.25 -8.5 L-0.6 -8.25 -0.7 -8.15 -1.05 -7.7 -1.4 -7.4 -2.15 -6.65 -2.3 -6.45 -2.5 -6.25 -2.65 -5.95 -2.8 -5.6 Q-3.05 -5.2 -3.2 -4.65 -3.2 -4.55 -3.3 -4.55 -3.55 -3.7 -3.55 -2.6 L-3.55 -2.5 -3.55 -2.45 -3.35 -0.85 Q-3.2 -0.05 -2.85 0.35 L-2.55 1.1 -2.45 1.3 -1.8 2.3 -0.6 3.5 -0.8 2.9 Q-1.05 1.95 -1.05 1.3 L-1.0 0.55 -1.0 0.3 -0.95 0.1 -0.95 -0.15 Q-0.9 -0.8 -0.65 -1.55 L-0.6 -1.8 -0.35 -2.45 -0.35 -2.55 -0.25 -2.7 -0.4 -3.85 Q-0.5 -4.85 -0.45 -5.9 L-0.45 -6.85 Q-0.45 -7.4 -0.4 -7.8 L-0.35 -7.95 -0.55 -7.7 -0.7 -7.5 -1.3 -6.9 -1.5 -6.75 Q-1.4 -7.05 -1.15 -7.45" fill="#000000" fill-rule="evenodd" stroke="none"/>
    <path d="M9.1 -17.4 L9.15 -17.35 9.2 -17.4 9.25 -17.35 9.1 -17.4 M-8.2 -27.25 L-8.1 -27.25 -8.05 -27.2 -8.2 -27.25 M1.15 -36.15 L1.1 -36.2 1.15 -36.2 1.15 -36.15 M10.75 -29.0 L10.75 -29.05 10.8 -29.05 10.75 -29.0 M11.9 -2.45 L11.85 -2.5 12.0 -2.55 11.9 -2.45 M14.1 -1.0 L14.2 -0.95 14.0 -0.75 14.1 -1.0 M-1.7 -22.8 L-1.75 -22.7 -1.8 -22.75 -1.7 -22.8 M-14.3 -17.35 L-14.3 -17.35" fill="#bd502b" fill-rule="evenodd" stroke="none"/>
    <path d="M9.95 -15.65 L10.2 -15.2 10.5 -14.7 Q10.2 -15.05 9.95 -15.6 L9.95 -15.65 M5.8 -1.8 L5.8 -1.65 5.8 -1.8 M-7.95 -26.65 L-7.55 -27.0 Q-7.5 -26.95 -7.5 -26.85 L-7.95 -26.65 M3.1 -15.75 Q2.95 -15.8 2.75 -15.9 L3.15 -15.75 3.1 -15.75 M4.25 -16.65 L4.3 -16.7 4.4 -16.7 4.25 -16.65 M-13.1 -18.45 L-13.05 -18.6 -13.1 -18.5 -13.1 -18.45 M-1.4 -7.4 L-1.05 -7.7 -0.7 -8.15 -0.6 -8.25 -0.25 -8.5 Q-0.55 -8.35 -0.9 -7.85 L-1.15 -7.45 -1.4 -7.4 M-0.55 -7.7 L-0.35 -7.95 -0.4 -7.8 -0.55 -7.7" fill="#943230" fill-rule="evenodd" stroke="none"/>
    <path d="M15.75 -0.45 L15.7 -0.6 Q15.55 -1.05 15.35 -1.3 L15.25 -1.5 15.3 -1.55 Q16.15 -2.45 16.75 -3.6 17.1 -4.2 17.3 -4.75 L17.5 -5.35 17.5 -5.3 Q17.5 -5.25 17.75 -5.25 L17.9 -5.25 18.1 -4.45 Q18.15 -4.0 18.15 -3.5 L18.15 -3.6 17.9 -3.65 Q17.55 -3.65 17.25 -3.45 16.3 -2.95 15.75 -0.6 L15.75 -0.45 M17.6 -5.8 Q17.6 -5.95 17.65 -6.05 L17.7 -5.9 17.6 -5.8 M-0.4 -3.85 L-0.25 -2.7 -0.35 -2.55 -0.35 -2.45 -0.6 -1.8 -0.65 -1.55 Q-0.7 -1.9 -0.75 -2.2 -0.9 -3.55 -1.15 -4.25 L-1.35 -4.65 Q-1.8 -5.4 -2.45 -4.7 -2.9 -4.25 -3.3 -3.25 L-3.55 -2.5 -3.55 -2.6 Q-3.55 -3.7 -3.3 -4.55 -3.2 -4.55 -3.2 -4.65 -3.05 -5.2 -2.8 -5.6 L-2.65 -5.95 -2.5 -6.25 -2.3 -6.45 -2.15 -6.65 Q-1.9 -6.15 -1.25 -5.15 -0.75 -4.35 -0.4 -3.85" fill="#eaae5e" fill-rule="evenodd" stroke="none"/>
    <path d="M17.5 -5.35 L17.55 -5.8 17.6 -5.8 17.7 -5.9 17.85 -5.3 17.9 -5.25 17.75 -5.25 Q17.5 -5.25 17.5 -5.3 L17.5 -5.35 M-1.4 -7.4 L-1.15 -7.45 Q-1.4 -7.05 -1.5 -6.75 L-1.3 -6.9 -0.7 -7.5 -0.55 -7.7 -0.4 -7.8 Q-0.45 -7.4 -0.45 -6.85 L-0.45 -5.9 Q-0.5 -4.85 -0.4 -3.85 -0.75 -4.35 -1.25 -5.15 -1.9 -6.15 -2.15 -6.65 L-1.4 -7.4 M-1.35 -4.65 L-1.15 -4.25 Q-1.6 -2.7 -1.65 -1.8 L-1.75 -1.8 -1.75 -3.25 -1.35 -4.65" fill="#c47628" fill-rule="evenodd" stroke="none"/>
    <path d="M18.15 -3.5 L18.15 -3.35 18.2 -2.75 18.15 -2.65 18.15 -1.7 Q17.95 -0.85 17.5 0.15 L17.3 0.7 17.1 1.05 16.5 1.9 16.45 1.95 16.0 2.5 16.0 2.4 Q16.0 1.95 15.85 0.75 L15.75 -0.45 15.75 -0.6 Q16.3 -2.95 17.25 -3.45 17.55 -3.65 17.9 -3.65 L18.15 -3.6 18.15 -3.5 M-0.65 -1.55 Q-0.9 -0.8 -0.95 -0.15 L-0.95 0.1 -1.0 0.3 -1.0 0.55 -1.05 1.3 Q-1.05 1.95 -0.8 2.9 L-0.6 3.5 -1.8 2.3 -2.45 1.3 -2.55 1.1 -2.85 0.35 Q-3.2 -0.05 -3.35 -0.85 L-3.55 -2.45 -3.55 -2.5 -3.3 -3.25 Q-2.9 -4.25 -2.45 -4.7 -1.8 -5.4 -1.35 -4.65 L-1.75 -3.25 -1.75 -1.8 -1.65 -1.8 Q-1.6 -2.7 -1.15 -4.25 -0.9 -3.55 -0.75 -2.2 -0.7 -1.9 -0.65 -1.55" fill="#f4d5aa" fill-rule="evenodd" stroke="none"/>
    <path d="M12.15 -10.4 L12.2 -10.45 12.15 -10.5 12.25 -10.55 12.9 -10.4 13.0 -10.35 13.6 -9.75 Q14.65 -8.6 15.15 -7.2 15.3 -6.7 15.75 -5.1 L15.85 -4.65 Q15.85 -4.05 15.8 -4.0 15.75 -3.85 15.55 -3.75 L15.4 -3.6 Q15.05 -3.3 14.4 -3.35 L14.05 -3.35 Q13.95 -3.4 13.9 -3.45 L13.85 -3.45 Q12.35 -3.5 11.6 -5.1 11.1 -6.15 11.1 -6.9 11.1 -7.4 11.3 -8.2 11.5 -9.1 11.85 -9.75 12.0 -10.0 12.15 -10.2 L12.1 -10.2 12.05 -10.3 12.15 -10.4 M15.3 -4.65 Q15.4 -4.75 15.4 -5.1 15.4 -5.8 15.1 -6.35 14.8 -6.85 14.4 -7.05 13.95 -7.2 13.65 -7.0 13.35 -6.75 13.35 -6.15 13.35 -5.75 13.5 -5.3 13.9 -4.4 14.75 -4.4 15.2 -4.35 15.3 -4.65" fill="#dd8c7d" fill-rule="evenodd" stroke="none"/>
    <path d="M14.05 -3.35 Q13.65 -3.2 12.9 -3.05 11.05 -2.65 8.55 -2.7 7.5 -2.75 7.1 -3.3 L7.0 -3.5 Q7.25 -4.6 7.45 -5.25 8.55 -8.5 11.35 -10.5 L11.45 -10.55 11.95 -10.55 12.15 -10.4 12.05 -10.3 12.1 -10.2 12.15 -10.2 Q12.0 -10.0 11.85 -9.75 11.5 -9.1 11.3 -8.2 11.1 -7.4 11.1 -6.9 11.1 -6.15 11.6 -5.1 12.35 -3.5 13.85 -3.45 L13.9 -3.45 Q13.95 -3.4 14.05 -3.35 M10.95 -5.95 Q10.95 -6.75 10.55 -6.95 10.25 -7.1 9.7 -6.75 9.2 -6.4 8.85 -5.8 8.4 -5.2 8.4 -4.65 8.4 -4.4 8.45 -4.2 8.65 -3.8 9.3 -3.75 10.05 -3.75 10.55 -4.8 10.95 -5.5 10.95 -5.95" fill="#c8554f" fill-rule="evenodd" stroke="none"/>
    <path d="M9.95 -16.85 L10.05 -16.75 10.0 -16.75 9.95 -16.85" fill="#ffffff" fill-rule="evenodd" stroke="none"/>
    <path d="M3.25 -16.7 L2.4 -16.95 2.3 -17.05 Q2.55 -16.9 2.9 -16.9 3.6 -16.85 3.8 -17.0 L3.85 -17.0 3.85 -16.85 3.8 -16.85 Q3.65 -16.8 3.6 -16.75 L3.65 -16.75 3.25 -16.7 M1.3 -17.9 L1.1 -18.1 1.3 -18.05 1.3 -17.9 M3.9 -16.85 L3.9 -16.9 3.9 -16.85" fill="#6666ff" fill-rule="evenodd" stroke="none"/>
    <path d="M10.05 -6.45 Q10.3 -6.4 10.3 -6.0 10.3 -5.65 10.05 -5.1 9.75 -4.35 9.25 -4.35 8.8 -4.35 8.75 -4.65 8.7 -4.8 8.75 -5.0 8.75 -5.7 9.55 -6.25 9.85 -6.5 10.05 -6.45" fill="#bd423c" fill-rule="evenodd" stroke="none"/>
    <path d="M14.6 -5.35 Q14.55 -5.1 14.25 -5.1 13.75 -5.1 13.55 -5.65 13.45 -5.95 13.5 -6.2 13.5 -6.5 13.65 -6.7 13.85 -6.85 14.05 -6.8 14.65 -6.65 14.65 -5.8 L14.6 -5.35" fill="#d57260" fill-rule="evenodd" stroke="none"/>
    <path d="M10.8 -16.75 L10.8 -16.85 Q10.75 -17.0 10.75 -17.25 L11.05 -17.35 11.05 -17.3 12.0 -17.5 11.9 -17.4 11.75 -17.15 Q11.5 -16.85 11.15 -16.65 L10.8 -16.65 10.8 -16.75 M2.3 -17.05 L2.25 -17.1 Q1.8 -17.2 1.6 -17.45 1.5 -17.6 1.45 -17.75 L1.3 -17.9 1.3 -18.05 Q2.8 -17.6 3.85 -17.5 L3.8 -17.45 3.95 -17.2 3.85 -17.0 3.8 -17.0 Q3.6 -16.85 2.9 -16.9 2.55 -16.9 2.3 -17.05" fill="#33ffcc" fill-rule="evenodd" stroke="none"/>
    <path d="M7.75 -30.95 L7.75 -30.8 Q7.5 -29.25 7.5 -29.05 7.5 -29.0 7.6 -28.8 7.7 -28.55 8.0 -28.3 L8.35 -28.4 Q8.95 -30.3 9.05 -30.75 9.1 -31.0 9.1 -32.55 9.1 -32.75 8.9 -33.8 8.65 -34.95 8.35 -35.8 L8.35 -35.9 8.9 -34.95 Q9.6 -33.65 9.95 -32.4 L10.1 -31.25 10.15 -30.9 10.2 -29.75 Q10.15 -28.7 9.75 -27.1 L9.35 -25.45 Q9.35 -25.15 9.4 -25.1 9.4 -25.0 9.55 -24.95 L9.6 -24.95 Q9.65 -24.9 9.8 -24.9 10.15 -24.9 10.4 -26.1 L10.45 -25.85 Q10.65 -25.4 10.9 -25.05 L10.85 -25.35 11.2 -23.85 Q11.65 -22.2 12.05 -21.2 12.3 -21.1 12.3 -20.5 12.3 -20.15 11.5 -19.1 10.85 -18.25 10.3 -18.0 10.6 -18.3 10.65 -18.45 10.35 -18.35 9.95 -18.1 L9.75 -17.9 Q9.6 -17.95 9.5 -18.0 9.3 -17.85 9.15 -17.85 L9.0 -17.85 8.95 -17.85 8.9 -17.9 8.9 -17.95 Q8.9 -18.0 8.9 -18.1 8.9 -18.2 8.95 -18.3 9.0 -18.35 9.0 -18.45 9.0 -18.5 9.15 -18.65 9.05 -18.85 9.0 -19.1 L8.9 -19.7 Q8.75 -20.6 8.05 -20.75 8.2 -20.55 8.45 -19.5 L8.6 -19.05 8.4 -19.05 Q7.95 -18.9 7.6 -18.7 7.85 -18.55 7.9 -18.35 L7.95 -18.35 Q8.05 -18.3 8.05 -18.2 L7.95 -18.05 7.95 -17.95 Q8.0 -17.85 7.95 -17.85 L7.9 -18.0 Q7.85 -17.95 7.75 -17.9 L7.65 -17.9 Q7.45 -17.8 7.05 -17.85 5.25 -17.85 2.85 -19.4 2.1 -20.0 1.65 -20.3 0.15 -21.25 -0.5 -20.95 L0.0 -20.65 Q-0.6 -20.4 -0.95 -20.15 L-1.0 -20.25 -1.1 -21.0 -1.2 -21.9 Q-1.2 -22.3 -0.75 -23.55 L-0.65 -23.7 -0.2 -24.25 -0.15 -24.4 Q0.05 -25.0 0.1 -25.25 0.1 -25.85 -0.15 -26.75 -0.4 -27.7 -0.4 -28.0 -0.4 -28.5 0.1 -29.0 0.6 -29.45 1.25 -29.7 1.95 -30.0 2.4 -29.9 2.8 -29.85 2.9 -29.55 L3.0 -29.55 Q3.35 -29.3 3.75 -29.25 3.85 -29.25 4.0 -29.35 4.25 -29.1 4.5 -29.1 4.6 -29.1 4.7 -29.2 L4.8 -29.35 4.35 -29.9 4.35 -30.0 Q4.55 -30.5 4.55 -30.85 4.55 -31.5 4.05 -33.05 3.6 -34.3 3.1 -35.4 3.75 -35.05 4.2 -34.85 L5.1 -34.15 5.15 -34.0 Q5.2 -33.4 5.35 -32.6 5.45 -31.75 5.65 -31.1 L5.65 -30.65 Q5.7 -30.2 5.8 -29.85 5.9 -29.35 6.1 -28.95 L6.15 -28.95 6.1 -29.7 Q6.2 -29.45 6.35 -29.25 6.75 -29.4 6.85 -30.2 L6.95 -31.35 Q6.95 -32.6 6.1 -34.65 L6.05 -34.75 Q6.55 -34.0 7.0 -33.15 L7.7 -31.5 Q7.75 -31.2 7.75 -30.95 M9.4 -16.85 Q9.6 -16.7 9.8 -16.3 L9.95 -15.65 9.95 -15.6 Q10.2 -15.05 10.5 -14.7 11.2 -13.65 11.9 -12.95 12.25 -12.6 13.3 -10.95 12.95 -11.0 12.45 -10.95 L12.25 -11.0 12.2 -10.95 11.55 -10.85 Q10.35 -10.8 9.3 -9.6 L8.9 -9.15 8.05 -8.15 Q7.05 -6.5 6.5 -4.95 L6.45 -4.5 6.35 -4.1 Q6.2 -3.7 6.15 -3.35 5.9 -2.65 5.8 -1.8 L5.8 -1.65 5.75 -1.4 Q5.65 0.2 5.55 1.2 L5.4 1.35 4.9 -0.55 Q4.35 -2.7 4.35 -4.25 4.4 -5.25 4.6 -6.3 L4.85 -7.35 Q4.85 -7.55 4.75 -7.45 4.25 -7.1 4.1 -6.05 4.05 -5.6 4.05 -4.25 4.0 -2.55 4.2 -1.1 4.45 0.8 5.1 1.4 L4.85 1.3 4.75 1.35 4.45 1.05 Q3.9 0.2 3.45 -0.85 3.05 -1.75 2.45 -3.35 L2.45 -3.45 Q2.35 -4.1 2.05 -4.5 L2.1 -4.7 2.05 -5.25 Q2.1 -7.4 3.6 -9.6 4.2 -10.45 4.65 -10.65 5.1 -10.9 5.05 -10.25 L5.05 -10.15 Q5.5 -8.95 5.7 -8.9 6.25 -8.9 6.9 -10.95 6.8 -11.5 6.75 -12.5 6.7 -13.65 6.7 -14.8 6.7 -15.45 7.15 -16.0 7.4 -16.4 7.9 -16.7 L8.2 -16.9 8.25 -16.9 8.3 -17.0 8.45 -16.95 8.65 -17.0 8.85 -17.0 Q9.05 -17.05 9.2 -16.95 9.3 -16.95 9.4 -16.85 M-2.7 -19.1 L-3.05 -18.5 Q-3.5 -17.5 -3.5 -16.95 L-1.85 -12.15 Q-1.9 -11.3 -2.15 -10.45 -2.35 -10.25 -2.55 -10.05 L-3.45 -9.4 -3.85 -10.4 -3.5 -9.4 -3.5 -9.35 Q-4.15 -9.55 -5.45 -11.6 -6.9 -13.75 -6.9 -14.6 -6.9 -15.95 -6.25 -15.15 -6.7 -16.0 -6.7 -16.4 -6.7 -16.95 -6.35 -17.05 -6.05 -16.15 -5.6 -15.2 L-5.85 -16.5 -6.2 -18.3 Q-6.0 -19.4 -5.65 -20.4 -5.05 -21.95 -4.1 -22.8 -3.3 -23.6 -2.65 -23.45 -1.95 -23.35 -2.0 -22.35 -2.0 -21.55 -2.45 -20.05 L-2.7 -19.1 M-3.4 -9.15 Q-2.9 -9.4 -2.45 -9.8 L-2.65 -9.4 -2.7 -9.35 -3.15 -8.75 -3.35 -9.15 -3.4 -9.15 M-13.6 -15.95 L-13.7 -16.15 Q-13.7 -16.3 -13.7 -16.65 -13.7 -18.1 -11.55 -20.3 -10.8 -21.1 -10.2 -21.45 L-10.1 -21.5 Q-9.45 -21.85 -9.45 -21.35 -9.45 -21.25 -10.45 -20.2 -11.6 -18.95 -11.95 -18.45 -12.3 -18.05 -12.65 -17.1 -13.05 -15.95 -13.25 -15.65 L-13.35 -15.6 -13.6 -15.95 M-7.8 -24.65 L-8.4 -24.5 Q-10.15 -24.0 -10.55 -23.8 L-10.75 -23.95 Q-10.65 -24.0 -10.6 -24.05 -10.45 -24.15 -10.45 -24.35 L-10.45 -24.45 Q-9.95 -25.0 -8.8 -25.95 -8.25 -26.35 -7.95 -26.65 L-7.5 -26.85 Q-7.5 -26.95 -7.55 -27.0 L-7.4 -27.1 Q-7.4 -27.45 -7.8 -27.65 L-7.95 -27.75 -7.65 -27.9 -7.3 -27.1 Q-6.75 -26.05 -6.15 -25.7 -6.6 -25.45 -7.25 -24.85 L-7.8 -24.65 M12.35 -24.15 Q12.05 -23.45 12.05 -23.15 L11.75 -24.25 Q11.95 -24.15 12.2 -24.15 L12.35 -24.15 M13.4 -28.55 Q13.4 -28.25 12.95 -26.4 12.4 -24.4 12.2 -24.45 11.95 -24.45 11.9 -24.65 11.85 -24.8 11.85 -24.9 11.9 -25.45 12.45 -28.1 12.9 -29.9 13.2 -29.8 13.45 -29.7 13.4 -28.55 M11.45 -16.5 Q11.7 -16.55 12.0 -16.8 12.25 -17.05 12.35 -17.2 L12.55 -16.25 12.6 -15.9 Q12.6 -15.4 12.85 -14.8 L12.95 -14.4 13.05 -14.1 13.3 -13.5 Q12.95 -13.8 12.55 -14.3 L12.4 -14.55 12.35 -14.6 Q11.85 -15.3 11.6 -15.75 11.6 -15.7 11.65 -15.7 11.8 -15.1 12.5 -14.15 L12.55 -14.05 13.15 -13.25 13.7 -12.6 Q14.0 -12.05 14.5 -11.5 L15.3 -10.6 Q15.6 -10.0 16.35 -8.8 L16.8 -8.2 17.1 -7.4 Q16.7 -7.3 16.2 -6.65 15.9 -7.85 15.1 -9.1 L14.85 -9.4 14.85 -9.5 14.5 -10.15 14.25 -10.85 Q13.5 -12.3 12.3 -13.25 L12.25 -13.3 11.75 -13.75 11.45 -14.05 11.2 -14.4 11.15 -14.5 10.95 -14.8 Q10.9 -15.0 10.9 -15.15 10.9 -15.35 11.2 -16.0 L11.45 -16.5 M10.8 -16.75 L10.8 -16.65 11.15 -16.65 11.2 -16.55 10.7 -16.55 Q10.25 -16.55 10.05 -16.75 L9.95 -16.85 9.95 -16.95 9.8 -17.3 10.0 -17.25 10.05 -17.1 Q10.2 -16.65 10.6 -16.65 L10.75 -16.7 10.8 -16.75 M0.55 -17.9 Q0.7 -17.7 1.0 -17.4 1.6 -16.85 2.15 -16.75 2.5 -16.6 3.05 -16.6 3.25 -16.6 3.35 -16.65 L3.25 -16.7 3.65 -16.75 4.1 -16.8 3.9 -16.85 3.9 -16.9 4.0 -16.85 4.05 -16.85 4.1 -16.8 4.2 -16.85 Q4.4 -16.85 4.8 -17.05 L4.85 -17.05 Q4.7 -16.9 4.5 -16.75 L4.6 -16.7 4.75 -16.7 5.25 -17.15 5.25 -17.2 5.6 -17.15 5.65 -17.05 Q5.75 -16.9 5.75 -16.8 5.75 -16.5 5.35 -16.15 5.15 -15.95 4.9 -15.8 4.5 -15.65 4.0 -15.65 L3.3 -15.75 3.1 -15.75 3.15 -15.75 2.75 -15.9 Q2.25 -16.05 1.9 -16.4 L1.85 -16.45 Q1.9 -16.35 2.1 -16.15 2.1 -15.8 2.0 -15.6 2.25 -15.75 2.5 -15.7 L2.65 -15.65 2.7 -15.6 2.85 -15.65 Q3.3 -15.45 3.9 -15.45 L4.05 -15.45 Q3.9 -15.1 3.85 -14.75 3.35 -14.7 2.65 -14.1 1.9 -13.45 1.6 -12.95 L1.6 -12.95 1.55 -13.4 Q1.55 -13.95 1.65 -14.35 1.15 -13.95 0.7 -13.65 L0.55 -13.65 0.45 -13.85 0.35 -14.2 Q0.5 -14.55 1.15 -15.05 1.25 -15.15 1.3 -15.15 L1.1 -15.15 Q0.1 -15.2 -0.5 -15.85 L-1.05 -16.8 -1.25 -17.15 Q-1.15 -18.7 0.45 -17.95 L0.55 -17.9 M1.6 -16.7 L1.6 -16.75 1.45 -17.0 1.25 -17.15 1.6 -16.7 M4.25 -16.65 L4.4 -16.7 4.3 -16.7 4.25 -16.65 M-2.6 -26.8 Q-2.8 -26.65 -2.95 -26.65 -4.15 -26.65 -5.15 -27.2 -6.0 -27.7 -6.0 -28.1 -6.0 -28.75 -4.2 -28.05 -3.55 -27.8 -2.95 -27.45 -2.4 -27.15 -2.4 -27.05 -2.4 -26.9 -2.6 -26.8 M-5.05 -13.15 L-4.5 -12.05 -4.85 -12.9 -5.05 -13.15 M-10.2 -13.9 L-10.2 -13.9" fill="#cccccc" fill-rule="evenodd" stroke="none"/>
    <path d="M-0.5 -33.7 L-0.3 -33.3 Q-1.2 -33.75 -1.6 -33.55 L-1.75 -33.65 Q-1.1 -33.75 -0.5 -33.7 M-0.9 -32.25 L-1.0 -32.3 -0.9 -32.25 M-6.15 -31.85 L-6.05 -31.85 Q-5.75 -31.65 -5.4 -31.5 L-6.15 -31.8 -6.15 -31.85 M-5.15 -31.4 L-5.25 -31.5 -4.95 -31.4 -5.05 -31.4 -5.15 -31.4 M-7.1 -31.25 L-7.2 -31.25 -7.15 -31.15 -7.05 -31.1 -6.75 -31.1 -7.05 -31.05 -7.1 -31.1 -7.4 -31.35 -8.25 -32.45 -8.2 -32.6 -7.85 -32.15 Q-7.3 -31.4 -7.1 -31.25 M7.75 -30.95 L7.85 -30.4 Q7.85 -30.1 7.9 -29.85 L7.9 -28.7 Q7.95 -28.85 8.0 -29.15 L8.0 -29.2 8.1 -29.6 8.15 -29.85 Q8.25 -30.65 8.25 -30.9 8.3 -32.7 8.25 -33.2 8.2 -34.15 8.0 -34.9 8.0 -35.4 8.05 -36.05 L8.05 -36.45 8.35 -35.9 8.35 -35.8 Q8.65 -34.95 8.9 -33.8 9.1 -32.75 9.1 -32.55 9.1 -31.0 9.05 -30.75 8.95 -30.3 8.35 -28.4 L8.0 -28.3 Q7.7 -28.55 7.6 -28.8 7.5 -29.0 7.5 -29.05 7.5 -29.25 7.75 -30.8 L7.75 -30.95 M10.4 -26.1 L10.5 -26.6 10.6 -26.15 10.85 -25.35 10.9 -25.05 Q10.65 -25.4 10.45 -25.85 L10.4 -26.1 M9.0 -17.85 Q9.0 -17.7 9.05 -17.7 L9.1 -17.65 9.1 -17.55 9.05 -17.5 9.1 -17.5 9.1 -17.4 9.25 -17.35 9.3 -17.1 9.3 -17.05 9.35 -16.9 9.4 -16.85 Q9.3 -16.95 9.2 -16.95 9.05 -17.05 8.85 -17.0 L8.65 -17.0 8.45 -16.95 8.3 -17.0 8.25 -16.9 8.2 -16.9 8.1 -16.9 7.95 -16.95 Q7.2 -16.5 6.4 -15.55 6.15 -15.2 5.15 -13.9 5.5 -14.1 6.45 -15.35 L6.7 -15.65 7.15 -16.0 Q6.7 -15.45 6.7 -14.8 6.7 -13.65 6.75 -12.5 6.8 -11.5 6.9 -10.95 6.25 -8.9 5.7 -8.9 5.5 -8.95 5.05 -10.15 L5.05 -10.25 Q5.1 -10.9 4.65 -10.65 4.2 -10.45 3.6 -9.6 2.1 -7.4 2.05 -5.25 L2.1 -4.7 2.05 -4.55 1.95 -4.55 Q1.9 -4.4 1.9 -4.2 1.9 -4.0 2.05 -3.25 2.1 -2.6 2.15 -2.0 L2.3 -1.05 2.4 0.85 2.4 0.9 Q2.2 0.8 2.0 0.7 1.3 -0.1 0.9 -1.0 L0.7 -1.3 0.65 -1.45 0.65 -1.5 Q0.7 -1.85 0.55 -2.35 0.4 -2.9 0.4 -3.4 0.45 -5.3 1.05 -7.4 L1.2 -7.85 1.4 -8.5 1.85 -9.7 1.8 -9.8 1.65 -9.6 1.5 -9.55 Q1.0 -9.25 0.5 -7.5 0.4 -7.1 0.3 -6.95 L0.25 -6.7 0.25 -6.9 0.2 -6.9 Q-0.15 -6.9 -0.15 -7.7 L-0.05 -9.0 -0.05 -9.1 -0.5 -8.7 Q-0.5 -8.85 -0.6 -8.75 -1.6 -8.05 -2.4 -7.3 L-2.45 -7.3 Q-2.7 -7.3 -2.75 -7.45 L-2.75 -7.65 Q-2.75 -7.9 -2.55 -8.35 L-2.35 -8.85 -1.75 -9.95 Q-0.8 -11.7 -0.8 -12.1 -0.75 -12.35 -0.8 -12.6 -1.05 -13.7 -1.7 -14.9 L-2.1 -15.7 Q-2.55 -16.95 -2.55 -17.6 L-2.4 -18.25 -2.35 -18.55 Q-2.05 -19.3 -2.05 -19.35 L-2.1 -19.55 -2.1 -19.6 Q-2.4 -19.6 -2.7 -19.1 L-2.45 -20.05 Q-2.0 -21.55 -2.0 -22.35 -1.95 -23.35 -2.65 -23.45 -3.3 -23.6 -4.1 -22.8 -5.05 -21.95 -5.65 -20.4 -6.0 -19.4 -6.2 -18.3 L-5.85 -16.5 -5.6 -15.2 Q-6.05 -16.15 -6.35 -17.05 -6.7 -16.95 -6.7 -16.4 -6.7 -16.0 -6.25 -15.15 -6.9 -15.95 -6.9 -14.6 -6.9 -13.75 -5.45 -11.6 -4.15 -9.55 -3.5 -9.35 -3.65 -9.2 -3.65 -9.15 -3.65 -9.0 -3.6 -9.0 L-3.55 -9.05 -3.4 -9.15 -3.35 -9.15 -3.15 -8.75 Q-3.6 -8.05 -3.8 -7.4 -3.95 -6.95 -3.95 -6.55 -4.35 -7.0 -5.0 -7.55 L-5.0 -7.6 Q-5.7 -8.65 -8.15 -10.1 L-8.85 -10.5 Q-9.45 -10.85 -10.0 -11.05 L-10.25 -11.2 -9.75 -11.65 -8.95 -12.35 Q-8.35 -12.9 -7.75 -13.35 -8.4 -13.05 -9.1 -12.55 L-9.9 -11.9 Q-10.25 -11.6 -10.5 -11.3 L-11.0 -11.45 Q-10.7 -12.15 -10.05 -13.35 L-10.25 -13.2 -10.1 -13.35 Q-10.95 -13.3 -11.65 -12.25 L-11.9 -12.0 -11.8 -12.85 Q-11.65 -14.15 -11.4 -14.95 -11.0 -16.4 -9.85 -17.95 L-9.75 -18.05 Q-8.65 -19.5 -7.05 -20.8 L-7.15 -20.95 Q-7.6 -20.75 -8.05 -20.5 L-8.1 -20.5 Q-9.15 -19.85 -10.05 -18.7 L-10.75 -17.8 Q-11.45 -16.95 -11.9 -16.0 -12.15 -15.5 -12.3 -14.95 -12.55 -14.4 -12.65 -13.9 -12.9 -12.85 -13.0 -11.85 L-13.05 -12.0 -13.15 -12.4 -13.25 -12.75 -13.25 -12.8 -13.65 -14.75 -13.7 -15.5 -13.7 -15.65 -13.6 -15.95 -13.35 -15.6 -13.25 -15.65 Q-13.05 -15.95 -12.65 -17.1 -12.3 -18.05 -11.95 -18.45 -11.6 -18.95 -10.45 -20.2 -9.45 -21.25 -9.45 -21.35 -9.45 -21.85 -10.1 -21.5 L-10.2 -21.45 -10.7 -21.15 -9.75 -22.05 Q-11.15 -21.55 -12.85 -19.45 -13.75 -18.35 -14.15 -17.5 L-14.15 -17.45 -14.3 -17.35 -14.35 -17.3 -14.4 -17.2 -14.2 -18.45 -14.05 -18.9 -13.8 -19.3 Q-13.65 -19.85 -13.4 -20.35 L-12.95 -20.95 Q-11.95 -22.0 -10.15 -23.35 L-9.4 -23.75 -8.7 -24.3 Q-7.9 -24.6 -7.8 -24.65 L-7.25 -24.85 Q-6.6 -25.45 -6.15 -25.7 -5.8 -25.5 -5.5 -25.45 -5.35 -25.45 -5.3 -25.5 L-5.3 -25.65 -4.95 -25.8 -5.25 -26.1 Q-5.9 -26.8 -6.65 -27.75 -7.1 -28.4 -7.5 -29.2 -7.7 -29.65 -7.8 -30.0 L-7.9 -30.6 -7.85 -30.85 -7.7 -30.7 Q-7.1 -30.05 -6.3 -29.45 L-5.65 -28.95 Q-3.85 -27.7 -2.75 -27.65 L-2.7 -27.65 -1.9 -27.55 Q-1.75 -27.55 -1.75 -27.65 L-1.7 -27.75 Q-2.05 -27.95 -3.25 -28.5 L-4.6 -29.25 Q-5.5 -29.75 -6.1 -30.2 L-6.95 -30.95 -6.2 -31.1 -4.55 -31.25 -4.55 -31.35 -4.75 -31.35 -5.45 -31.9 -5.5 -31.95 -5.0 -32.0 -3.8 -32.1 Q-1.85 -32.1 -1.05 -31.8 -0.8 -31.7 -0.6 -31.55 L-0.35 -31.4 -0.3 -31.4 0.05 -30.95 Q0.15 -30.95 0.15 -31.05 L-0.15 -31.75 -0.5 -32.4 Q-0.75 -32.85 -1.05 -33.1 L-0.7 -32.8 -0.2 -32.45 -0.05 -32.4 0.4 -32.1 0.4 -32.05 0.55 -32.0 0.6 -31.95 0.65 -31.95 0.8 -31.85 Q2.3 -30.85 2.35 -30.85 L2.7 -30.85 Q2.5 -31.3 1.7 -32.0 L1.65 -32.05 1.2 -32.8 Q0.4 -34.0 -0.45 -34.5 L-0.45 -34.5 -0.4 -34.45 -0.25 -34.45 0.05 -34.35 0.1 -34.35 Q1.4 -33.8 2.1 -32.8 L2.6 -31.95 3.15 -30.6 Q3.6 -29.7 4.0 -29.35 3.85 -29.25 3.75 -29.25 3.35 -29.3 3.0 -29.55 L2.9 -29.55 Q2.8 -29.85 2.4 -29.9 1.95 -30.0 1.25 -29.7 0.6 -29.45 0.1 -29.0 -0.4 -28.5 -0.4 -28.0 -0.4 -27.7 -0.15 -26.75 0.1 -25.85 0.1 -25.25 0.05 -25.0 -0.15 -24.4 L-0.2 -24.25 -0.65 -23.7 -0.75 -23.55 -0.75 -23.65 -0.55 -24.15 -0.55 -24.2 Q-0.3 -25.2 -0.25 -25.55 -0.25 -26.25 -0.35 -26.6 -0.5 -27.3 -1.05 -27.25 L-1.1 -27.2 -1.1 -27.05 -0.95 -26.5 Q-0.8 -26.0 -0.8 -25.6 -0.8 -25.4 -1.25 -24.0 L-1.4 -23.65 -1.6 -23.15 -1.7 -22.8 -1.8 -22.75 -1.75 -22.7 Q-1.85 -22.35 -1.85 -22.05 -1.85 -20.7 -1.3 -19.7 L-1.35 -19.7 Q-1.6 -19.45 -1.6 -19.3 -1.6 -19.15 -1.0 -18.85 L-0.95 -18.85 Q-0.65 -18.65 0.0 -18.5 L0.35 -18.35 0.4 -18.2 Q0.4 -18.1 0.55 -17.9 L0.45 -17.95 Q-1.15 -18.7 -1.25 -17.15 L-1.05 -16.8 -0.5 -15.85 Q0.1 -15.2 1.1 -15.15 L1.3 -15.15 Q1.25 -15.15 1.15 -15.05 0.5 -14.55 0.35 -14.2 L0.45 -13.85 0.55 -13.65 0.7 -13.65 Q1.15 -13.95 1.65 -14.35 1.55 -13.95 1.55 -13.4 L1.6 -12.95 1.6 -12.95 Q1.9 -13.45 2.65 -14.1 3.35 -14.7 3.85 -14.75 3.9 -15.1 4.05 -15.45 4.5 -15.5 4.9 -15.8 5.15 -15.95 5.35 -16.15 5.75 -16.5 5.75 -16.8 5.75 -16.9 5.65 -17.05 L5.6 -17.15 5.75 -17.15 Q6.05 -17.15 6.2 -17.25 L6.55 -17.25 Q7.2 -17.25 7.5 -17.35 L7.55 -17.4 7.6 -17.4 Q7.9 -17.5 7.95 -17.65 L8.05 -17.8 7.95 -17.8 7.95 -17.85 Q8.0 -17.85 7.95 -17.95 L7.95 -18.05 8.05 -18.2 Q8.05 -18.3 7.95 -18.35 L7.9 -18.35 Q7.85 -18.55 7.6 -18.7 7.95 -18.9 8.4 -19.05 L8.6 -19.05 8.6 -18.95 8.75 -18.3 Q8.75 -18.05 8.55 -17.5 L8.45 -17.3 8.55 -17.3 8.7 -17.45 Q8.85 -17.65 8.9 -17.95 L8.9 -17.9 8.95 -17.85 9.0 -17.85 M-3.45 -9.4 L-3.5 -9.4 -3.85 -10.4 -3.45 -9.4 M-10.75 -23.95 L-10.9 -23.95 -11.0 -23.9 -11.05 -23.9 -11.05 -23.95 Q-11.45 -24.05 -11.9 -25.05 -12.15 -25.6 -12.3 -26.15 L-12.35 -26.75 -12.35 -26.7 -12.4 -27.1 Q-12.35 -28.15 -11.3 -29.85 -10.5 -31.1 -9.35 -32.5 L-9.0 -32.1 Q-8.9 -32.05 -8.75 -31.8 -8.6 -31.55 -8.5 -31.2 L-8.4 -30.65 -8.2 -29.7 Q-8.0 -28.85 -7.75 -28.15 L-8.3 -27.85 Q-9.0 -27.5 -9.15 -27.5 L-9.1 -27.4 Q-9.05 -27.3 -8.95 -27.25 L-8.2 -27.25 -8.05 -27.2 -7.95 -27.15 Q-9.3 -26.45 -10.1 -25.75 -10.45 -25.45 -10.65 -25.15 L-10.65 -25.1 -10.6 -24.95 Q-10.45 -24.7 -10.45 -24.45 L-10.45 -24.35 Q-10.45 -24.15 -10.6 -24.05 -10.65 -24.0 -10.75 -23.95 M4.35 -29.9 Q4.1 -30.2 3.85 -30.55 L3.9 -30.6 Q3.8 -30.7 3.7 -30.8 3.55 -31.05 3.45 -31.3 L2.7 -32.9 2.45 -33.6 2.35 -33.9 Q1.9 -34.95 1.35 -35.85 L1.15 -36.15 1.15 -36.2 2.45 -35.75 2.95 -35.45 3.0 -35.45 3.1 -35.4 Q3.6 -34.3 4.05 -33.05 4.55 -31.5 4.55 -30.85 4.55 -30.5 4.35 -30.0 L4.35 -29.9 M5.15 -34.0 L5.15 -33.95 5.25 -34.0 5.3 -33.95 5.4 -33.6 5.6 -32.3 Q5.6 -31.7 5.65 -31.25 L5.65 -31.1 Q5.45 -31.75 5.35 -32.6 5.2 -33.4 5.15 -34.0 M6.1 -29.7 L6.05 -30.4 Q6.0 -31.2 5.95 -32.45 L5.95 -33.05 5.9 -33.55 5.75 -34.35 5.8 -34.4 5.75 -34.45 5.7 -34.7 5.55 -35.4 5.6 -35.25 6.05 -34.75 6.1 -34.65 Q6.95 -32.6 6.95 -31.35 L6.85 -30.2 Q6.75 -29.4 6.35 -29.25 6.2 -29.45 6.1 -29.7 M9.0 -19.1 Q9.05 -18.85 9.15 -18.65 9.0 -18.5 9.0 -18.45 9.0 -18.35 8.95 -18.3 L9.0 -18.7 9.0 -19.1 M10.8 -29.05 Q11.1 -29.15 11.55 -29.35 L12.65 -30.05 12.95 -30.25 13.25 -30.5 13.25 -30.65 13.4 -30.05 Q13.6 -29.25 13.6 -28.95 13.55 -27.5 12.95 -25.7 L12.75 -25.15 12.35 -24.15 12.2 -24.15 Q11.95 -24.15 11.75 -24.25 L11.75 -24.3 Q11.25 -25.75 10.55 -27.05 L10.6 -27.35 10.75 -29.0 10.8 -29.05 M13.4 -28.55 Q13.45 -29.7 13.2 -29.8 12.9 -29.9 12.45 -28.1 11.9 -25.45 11.85 -24.9 11.85 -24.8 11.9 -24.65 11.95 -24.45 12.2 -24.45 12.4 -24.4 12.95 -26.4 13.4 -28.25 13.4 -28.55 M11.45 -16.5 L11.2 -16.0 Q10.9 -15.35 10.9 -15.15 10.9 -15.0 10.95 -14.8 L10.4 -15.9 Q10.4 -15.95 10.35 -16.0 L10.25 -16.25 10.2 -16.3 10.0 -16.75 10.05 -16.75 Q10.25 -16.55 10.7 -16.55 L11.2 -16.55 Q11.25 -16.5 11.35 -16.5 L11.45 -16.5 M16.2 -6.65 Q16.7 -7.3 17.1 -7.4 L17.25 -7.15 Q17.1 -5.45 16.4 -4.05 L16.45 -4.2 16.45 -4.4 Q16.45 -4.85 16.35 -5.3 16.35 -5.95 16.2 -6.65 M2.1 -16.15 L2.45 -15.85 2.85 -15.65 2.7 -15.6 2.65 -15.65 2.5 -15.7 Q2.25 -15.75 2.0 -15.6 2.1 -15.8 2.1 -16.15 M11.9 -2.45 L10.75 -1.55 10.45 -1.3 Q8.65 -0.05 8.05 -0.05 7.45 -0.05 6.95 -0.75 L6.7 -1.1 6.6 -1.3 6.65 -1.5 6.8 -2.55 8.25 -2.45 8.3 -2.45 Q8.65 -2.25 9.15 -2.25 L10.1 -2.3 Q10.85 -2.3 11.6 -2.45 L11.85 -2.5 11.9 -2.45 M14.1 -1.0 L14.3 -1.35 Q14.7 -2.15 14.9 -2.7 15.4 -2.95 15.55 -3.05 15.8 -3.15 16.0 -3.3 L15.8 -3.0 15.5 -2.65 Q15.15 -2.0 14.75 -1.75 L14.45 -1.35 14.2 -0.95 14.1 -1.0 M14.0 -2.35 L14.4 -2.5 14.2 -1.8 Q14.1 -1.65 13.95 -1.35 14.0 -1.85 14.0 -2.35 M-2.6 -26.8 Q-2.4 -26.9 -2.4 -27.05 -2.4 -27.15 -2.95 -27.45 -3.55 -27.8 -4.2 -28.05 -6.0 -28.75 -6.0 -28.1 -6.0 -27.7 -5.15 -27.2 -4.15 -26.65 -2.95 -26.65 -2.8 -26.65 -2.6 -26.8 M-14.3 -17.35 L-14.3 -17.35 M-5.05 -13.15 L-4.85 -12.9 -4.5 -12.05 -5.05 -13.15 M-10.2 -13.9 L-10.2 -13.9" fill="#8c8c8c" fill-rule="evenodd" stroke="none"/>
  </g>
</svg>
