<?xml version="1.0" encoding="UTF-8" standalone="no"?>
<svg xmlns:ffdec="https://www.free-decompiler.com/flash" xmlns:xlink="http://www.w3.org/1999/xlink" ffdec:objectType="shape" height="35.75px" width="24.7px" xmlns="http://www.w3.org/2000/svg">
  <g transform="matrix(1.0, 0.0, 0.0, 1.0, 12.5, 33.2)">
    <path d="M-3.5 -29.35 L-6.45 -29.6 -6.5 -29.6 Q-6.5 -29.65 -6.5 -29.8 -6.5 -30.1 -5.85 -30.2 -5.1 -30.75 -3.3 -30.6 -1.55 -30.65 0.75 -29.9 L1.1 -29.7 1.25 -29.65 Q1.1 -30.05 1.0 -30.45 1.0 -31.1 1.1 -31.65 1.1 -32.05 1.1 -32.15 1.15 -32.35 1.2 -32.45 1.3 -32.65 1.35 -32.8 L1.55 -33.2 Q1.7 -32.8 1.9 -32.45 2.15 -31.95 2.5 -31.55 L2.5 -31.5 Q2.65 -31.2 2.9 -30.95 3.0 -30.8 3.15 -30.65 L3.2 -30.6 3.25 -30.5 Q3.55 -30.25 4.0 -30.05 4.75 -29.6 6.75 -28.65 8.55 -27.6 9.5 -26.35 9.9 -25.85 10.15 -25.3 10.35 -24.9 10.45 -24.5 L10.5 -24.55 Q10.8 -24.95 11.1 -25.2 11.25 -25.65 11.75 -25.85 L11.75 -25.8 Q12.1 -25.45 12.2 -24.75 12.2 -24.55 12.2 -23.75 12.2 -22.7 11.95 -21.7 11.75 -21.15 11.55 -20.7 L11.5 -20.55 Q11.3 -20.2 11.1 -20.1 L11.05 -20.0 Q11.8 -19.35 11.8 -18.95 11.8 -18.7 11.0 -17.5 L10.4 -16.5 Q10.85 -16.0 10.9 -15.65 L11.05 -14.8 11.1 -14.3 11.15 -13.3 Q11.15 -13.05 11.1 -12.65 L10.9 -12.45 Q10.6 -12.0 10.6 -11.5 10.6 -11.05 10.95 -10.35 L10.35 -8.7 Q10.4 -8.55 10.15 -8.2 L10.05 -7.9 9.85 -7.4 Q10.15 -7.15 10.15 -6.75 L10.35 -6.45 Q10.6 -6.0 10.6 -5.65 10.6 -5.1 10.45 -4.85 L10.35 -4.65 10.0 -4.3 9.8 -3.35 Q9.3 -1.85 8.55 -1.8 8.45 -1.35 8.25 -0.95 7.5 0.5 5.9 0.7 L5.85 0.7 5.85 0.5 Q5.85 0.25 6.4 -1.0 L6.65 -1.55 Q6.45 -1.2 6.25 -1.05 L4.75 0.55 Q3.6 1.75 3.5 1.75 L3.25 1.75 3.2 1.7 3.2 1.15 Q3.2 0.75 3.3 0.25 2.5 1.05 1.5 1.5 L1.45 1.45 1.15 1.6 1.1 1.65 0.8 1.75 Q-0.3 2.55 -1.7 2.55 L-1.9 2.5 -1.95 2.4 Q-1.05 1.45 -0.65 -0.15 -1.4 1.15 -2.25 1.15 L-2.45 1.15 Q-2.75 1.55 -3.1 1.85 L-3.2 1.7 Q-3.15 1.3 -3.1 0.9 L-3.1 0.2 -3.2 -0.55 Q-3.35 -2.15 -3.45 -2.75 L-4.2 -4.6 Q-3.95 -3.35 -3.95 -2.5 -3.95 -2.1 -4.0 -1.65 L-4.0 -1.4 -4.1 -0.9 Q-4.25 -0.2 -4.4 0.15 L-4.45 0.25 Q-4.55 0.55 -4.8 0.75 -4.95 0.7 -4.95 0.6 L-5.0 0.35 -5.0 0.1 Q-5.0 -0.45 -5.25 -1.15 L-7.35 -4.65 Q-9.3 -8.0 -9.6 -9.05 -9.75 -8.3 -9.75 -7.85 L-9.6 -6.55 -9.5 -5.25 Q-9.5 -5.05 -9.55 -5.0 L-9.6 -4.9 -9.6 -4.85 Q-9.6 -4.8 -9.8 -4.8 -10.0 -4.8 -10.6 -6.2 -11.15 -7.5 -11.35 -8.4 L-11.6 -9.95 Q-11.85 -11.45 -11.85 -11.95 L-11.85 -12.0 Q-12.0 -12.3 -12.15 -12.9 -12.4 -13.4 -12.45 -13.65 -12.5 -13.85 -12.5 -14.9 -12.5 -15.4 -12.2 -16.85 -11.9 -18.3 -11.75 -18.65 -11.65 -18.8 -11.55 -18.75 -11.05 -19.1 -11.1 -18.7 -11.15 -18.3 -11.1 -18.55 L-11.25 -18.25 Q-11.9 -16.55 -11.9 -14.9 L-11.8 -13.75 -11.7 -13.5 Q-11.5 -15.0 -10.9 -16.7 -10.55 -17.55 -10.25 -18.25 -10.2 -18.45 -10.0 -18.35 -9.8 -18.25 -10.1 -17.6 L-10.15 -17.5 -10.5 -16.65 Q-11.25 -14.6 -11.25 -13.15 -11.25 -12.65 -10.85 -10.1 -10.5 -7.8 -10.4 -7.35 L-10.35 -7.35 -10.05 -9.85 Q-9.85 -11.4 -9.5 -12.35 L-9.35 -12.4 Q-9.5 -12.1 -9.5 -11.65 L-9.4 -11.3 Q-9.35 -10.65 -9.15 -10.0 L-9.1 -9.7 Q-8.7 -8.45 -7.9 -6.9 L-7.7 -6.6 Q-6.5 -4.95 -6.2 -4.45 -5.3 -3.0 -4.7 -1.2 L-4.7 -1.15 Q-4.6 -1.45 -4.55 -1.85 -4.5 -2.25 -4.5 -2.5 -4.5 -2.9 -4.55 -3.45 -4.7 -3.95 -4.85 -4.8 -5.0 -5.75 -5.1 -6.75 L-5.0 -8.4 -5.05 -8.85 -4.95 -9.4 -4.9 -10.0 -4.8 -10.0 Q-4.75 -9.8 -4.8 -9.4 L-4.85 -8.9 Q-4.85 -8.0 -4.5 -6.9 -4.35 -6.35 -3.8 -4.9 L-3.75 -4.85 -3.45 -4.3 Q-2.55 -2.7 -2.55 -1.45 -2.55 -1.2 -2.6 -0.3 L-2.6 0.35 Q-2.1 -0.5 -2.0 -1.65 L-2.0 -2.85 Q-2.0 -3.65 -1.95 -4.05 -1.75 -3.85 -1.55 -3.0 -1.45 -2.35 -1.45 -2.05 -1.45 -1.0 -1.85 0.0 L-1.9 0.1 -1.8 0.05 Q-0.8 -0.9 -0.25 -2.45 -0.1 -2.9 0.05 -4.2 0.15 -5.35 0.4 -5.8 0.55 -5.15 0.55 -4.25 0.55 -4.05 0.4 -3.35 0.4 -2.6 -0.2 -0.6 -0.85 1.45 -1.15 1.85 L-1.2 1.95 Q0.85 1.55 1.85 0.0 2.2 -0.35 2.55 -1.05 2.8 -1.55 2.95 -2.0 L3.15 -2.35 3.25 -2.2 Q3.25 -1.8 2.95 -1.1 2.7 -0.35 2.25 0.3 L2.35 0.2 3.25 -0.5 Q3.75 -0.7 4.65 -2.0 L5.15 -2.8 5.1 -2.8 5.45 -3.45 Q5.6 -3.8 5.6 -4.05 L5.6 -4.1 5.25 -3.8 5.25 -3.75 5.2 -3.8 5.05 -3.7 4.75 -3.55 4.75 -3.6 4.1 -3.5 3.9 -3.55 3.8 -3.55 3.75 -3.7 Q3.5 -3.85 3.25 -4.05 2.85 -4.45 2.55 -5.0 1.8 -6.2 1.8 -7.0 1.8 -7.95 0.15 -9.2 L-1.0 -10.05 Q-1.35 -10.35 -1.45 -10.5 L-1.55 -10.5 -1.65 -10.55 -1.65 -10.7 Q-1.65 -11.5 -1.2 -12.75 L-0.45 -14.6 -0.4 -14.65 -0.4 -14.7 -1.6 -15.0 -2.75 -15.05 -3.4 -15.05 -3.4 -15.1 Q-3.45 -15.15 -3.45 -15.3 L-2.75 -16.15 -1.8 -17.35 -1.6 -17.55 -1.6 -17.6 -1.45 -17.75 -1.45 -17.8 -1.5 -17.8 -1.65 -17.95 -2.15 -18.4 -2.05 -18.45 -2.45 -18.85 -2.75 -19.25 -3.05 -19.45 Q-3.4 -19.7 -3.65 -19.95 L-3.8 -20.05 -3.75 -20.05 -3.75 -20.1 -3.55 -20.25 Q-3.2 -20.6 -2.85 -21.1 L-2.1 -22.2 -2.05 -22.25 -2.05 -22.3 -1.85 -22.5 Q-1.05 -23.4 0.25 -23.65 L0.4 -23.7 0.45 -23.75 0.65 -23.9 0.8 -24.15 1.25 -25.1 1.7 -25.8 1.75 -25.85 1.9 -26.1 2.0 -26.2 Q2.3 -26.65 2.6 -26.95 L3.0 -27.35 Q3.4 -26.8 3.7 -25.55 L3.75 -25.45 3.75 -25.3 3.8 -25.2 3.95 -24.3 3.95 -23.95 4.0 -23.5 4.25 -23.5 Q4.95 -23.45 5.95 -23.0 L6.55 -22.7 7.4 -22.2 Q7.7 -22.6 7.85 -22.9 7.95 -23.2 7.95 -23.55 L7.9 -23.95 Q7.8 -24.15 7.65 -24.4 7.15 -25.05 6.95 -25.45 7.75 -25.25 8.15 -24.25 L8.3 -23.85 8.4 -23.45 8.65 -23.3 9.0 -23.0 9.15 -22.9 Q9.2 -23.05 9.8 -23.55 L9.9 -23.65 Q9.8 -24.15 9.7 -24.6 9.4 -25.65 8.75 -26.45 7.9 -27.55 6.15 -28.35 L5.35 -28.7 5.5 -28.55 Q6.5 -27.9 7.35 -27.1 7.85 -26.5 8.55 -25.4 8.8 -24.65 9.05 -24.1 L9.25 -23.6 9.2 -23.6 9.1 -23.5 Q9.05 -23.75 8.95 -24.05 8.65 -24.9 7.85 -25.75 7.15 -26.5 5.4 -27.8 3.7 -29.15 3.0 -29.85 L2.6 -30.35 Q2.2 -30.8 2.0 -31.25 L1.9 -31.4 1.65 -31.75 Q1.6 -31.35 1.6 -31.15 1.6 -29.85 2.6 -29.0 L2.75 -28.9 2.75 -28.75 Q3.8 -28.1 4.4 -27.75 L4.4 -27.7 Q4.35 -27.65 4.15 -27.65 4.05 -27.65 3.35 -28.05 L2.6 -28.45 1.7 -28.9 Q-0.9 -30.1 -3.1 -30.1 L-3.95 -30.05 -4.05 -30.05 Q-3.5 -29.9 -3.2 -29.65 L-2.5 -29.3 -2.45 -29.25 -3.5 -29.35 M11.65 -24.05 L11.6 -24.55 11.55 -24.8 11.15 -24.2 Q11.0 -24.25 10.95 -24.1 10.7 -23.6 10.6 -23.5 L10.0 -22.95 9.9 -22.9 9.7 -22.7 9.6 -22.7 Q9.4 -22.55 9.35 -22.25 9.3 -22.15 9.3 -22.05 L9.4 -21.6 Q9.5 -21.4 9.7 -21.3 9.75 -21.25 9.8 -21.25 10.1 -20.85 10.35 -20.85 10.5 -20.85 10.65 -21.0 L10.75 -21.1 11.25 -22.1 Q11.65 -23.05 11.7 -23.95 L11.65 -24.05 M10.9 -19.25 L10.9 -19.3 Q10.75 -19.4 10.4 -19.5 10.05 -19.6 9.9 -19.7 9.65 -19.95 9.65 -20.5 9.65 -21.0 9.25 -21.75 L8.85 -22.5 8.55 -22.75 8.45 -22.85 8.45 -22.65 Q8.45 -22.5 8.25 -22.1 8.0 -21.65 8.0 -21.35 L7.95 -21.25 Q7.9 -21.2 7.7 -21.2 7.35 -21.65 6.85 -22.05 5.9 -22.95 4.75 -22.95 L4.3 -22.95 4.0 -23.0 3.95 -22.9 Q3.95 -22.6 3.9 -22.45 3.9 -22.05 3.8 -21.85 3.6 -21.35 3.0 -21.35 L2.6 -21.35 2.4 -21.4 Q2.05 -21.45 1.65 -21.6 0.9 -21.85 0.8 -21.95 L0.8 -22.05 1.0 -22.1 1.4 -21.85 1.65 -21.75 2.4 -21.8 2.6 -21.85 Q3.1 -22.05 3.3 -22.5 3.4 -22.7 3.5 -23.05 L3.35 -23.55 3.4 -23.95 3.4 -24.75 Q3.35 -24.95 2.9 -25.75 L2.85 -25.7 2.8 -25.65 2.3 -25.05 2.15 -24.75 1.8 -24.25 Q1.5 -23.9 1.25 -23.6 0.55 -22.65 0.55 -22.4 L0.55 -22.25 0.5 -22.2 Q0.15 -22.25 0.1 -22.5 0.05 -22.55 0.05 -22.85 L0.05 -22.95 Q0.05 -23.15 0.15 -23.3 -0.3 -23.05 -0.7 -22.75 L-1.0 -22.55 -1.05 -22.5 -1.1 -22.5 -1.25 -22.3 -1.45 -22.15 Q-2.6 -20.85 -3.15 -20.35 -2.95 -20.15 -2.75 -19.85 -2.6 -19.6 -2.5 -19.4 L-2.15 -19.1 -2.1 -19.05 -1.8 -18.8 -1.7 -18.7 -1.25 -18.3 -1.1 -18.15 -1.1 -18.2 -0.7 -17.8 -1.05 -17.3 Q-1.3 -16.9 -1.7 -16.5 L-2.65 -15.5 -1.1 -15.2 -0.55 -15.1 Q0.2 -14.9 0.2 -14.6 0.2 -14.5 0.0 -14.15 L-0.5 -13.3 Q-1.15 -12.05 -1.2 -10.85 0.1 -10.25 1.0 -9.1 1.6 -8.3 2.25 -6.8 2.9 -5.25 3.2 -4.85 3.45 -4.5 3.75 -4.3 L3.95 -4.2 Q4.05 -4.15 4.2 -4.1 L4.7 -4.05 Q4.8 -4.05 5.15 -4.25 5.5 -4.45 5.6 -4.45 L5.75 -4.45 5.9 -4.7 5.95 -4.7 6.0 -4.6 6.0 -4.55 6.05 -4.3 Q5.9 -3.8 5.7 -3.45 L5.75 -3.45 5.5 -2.95 5.2 -1.95 4.9 -1.55 Q4.15 -0.2 3.8 0.55 L3.85 0.55 5.05 -0.65 6.15 -1.85 6.25 -2.0 Q6.7 -2.55 6.95 -3.05 7.25 -3.6 7.35 -4.1 L7.6 -4.6 Q7.65 -4.4 7.65 -4.1 7.65 -3.75 7.35 -2.95 L7.3 -2.3 7.2 -1.8 6.85 -0.5 6.85 -0.45 Q7.3 -0.75 7.6 -1.15 7.95 -1.75 8.15 -2.5 8.25 -2.95 8.3 -3.45 8.4 -3.9 8.4 -4.25 L8.4 -4.85 Q8.7 -4.75 8.75 -4.2 L8.75 -3.35 8.7 -2.75 9.15 -3.35 Q9.45 -3.75 9.45 -4.45 L9.45 -4.55 9.65 -4.75 9.7 -4.85 Q9.85 -5.0 9.85 -5.15 9.85 -5.95 9.05 -6.2 L8.4 -6.7 7.55 -6.75 6.85 -6.7 Q6.0 -6.55 5.75 -6.15 L5.6 -5.7 Q5.55 -5.5 5.25 -5.5 L4.85 -5.55 Q4.65 -5.6 4.6 -5.65 L4.55 -5.75 4.6 -5.75 Q5.1 -5.85 5.7 -6.5 6.3 -7.15 6.8 -7.15 L9.3 -6.7 Q9.1 -6.95 9.1 -7.05 L9.05 -7.1 9.0 -7.1 Q9.0 -7.15 8.95 -7.15 L8.45 -7.25 7.7 -7.35 6.25 -7.6 Q5.65 -7.6 5.1 -7.0 4.65 -6.45 4.65 -6.15 L4.65 -5.95 4.6 -5.95 4.5 -5.9 4.45 -5.85 4.35 -5.85 4.15 -6.05 Q4.1 -6.15 4.1 -6.25 4.1 -6.65 4.6 -7.05 4.9 -7.3 5.3 -7.45 5.55 -7.55 5.85 -7.65 L6.75 -7.8 Q7.95 -7.95 9.05 -7.55 9.2 -7.6 9.3 -7.65 L9.35 -7.75 Q9.4 -7.9 9.55 -8.1 L9.65 -8.2 9.7 -8.4 9.75 -8.7 Q9.3 -8.4 9.1 -8.4 8.65 -8.4 8.1 -9.05 7.55 -9.7 7.5 -10.3 L6.05 -9.75 5.85 -9.8 5.7 -9.85 Q5.4 -10.0 5.2 -10.3 L4.9 -10.8 Q4.9 -11.0 5.0 -11.15 4.9 -11.3 4.85 -11.45 L4.85 -11.8 4.4 -12.55 Q4.25 -12.75 4.2 -13.0 4.1 -13.3 4.1 -13.65 4.1 -13.8 4.1 -13.9 L4.15 -14.05 4.2 -14.1 Q4.3 -14.3 4.5 -14.45 4.7 -14.55 4.85 -14.8 4.9 -14.95 4.9 -15.2 4.9 -15.4 4.65 -16.0 4.45 -16.45 4.25 -16.65 L4.1 -16.7 Q3.45 -15.6 3.0 -15.65 L2.8 -15.75 Q2.95 -16.0 3.3 -16.4 L3.5 -16.55 2.9 -16.5 2.5 -16.5 2.25 -16.55 2.15 -16.6 Q1.65 -16.75 1.2 -17.15 L0.95 -17.4 Q0.45 -17.75 0.4 -18.1 L0.6 -17.95 0.6 -18.0 0.75 -17.95 1.15 -17.65 1.2 -17.6 Q1.55 -17.25 2.15 -17.2 L2.3 -17.15 2.4 -17.15 2.6 -17.1 2.75 -17.1 Q3.35 -17.1 3.65 -17.45 L3.75 -17.55 3.75 -17.6 Q3.75 -17.75 3.45 -18.0 L3.4 -18.05 Q3.15 -18.25 2.85 -18.4 L2.6 -18.6 2.3 -18.6 2.2 -18.65 Q1.75 -18.8 1.55 -18.65 L1.2 -18.65 0.6 -18.25 0.55 -18.25 0.35 -18.25 0.3 -18.3 0.3 -18.55 0.3 -18.6 Q0.3 -18.7 0.45 -18.95 L0.7 -19.15 -0.1 -19.2 -0.4 -19.2 -0.5 -19.3 -0.2 -19.5 -0.2 -19.55 Q0.15 -19.7 0.8 -19.7 0.95 -19.7 1.4 -19.5 1.7 -19.55 1.9 -19.3 L2.6 -19.0 2.75 -18.95 Q4.4 -18.15 5.3 -18.15 5.55 -18.15 6.1 -19.0 L6.1 -19.2 5.85 -19.9 Q5.6 -20.5 5.6 -20.8 L5.6 -20.95 5.65 -20.85 5.65 -20.9 Q5.85 -20.75 6.25 -20.05 6.65 -19.35 6.65 -19.15 L6.6 -19.0 6.2 -18.2 6.0 -17.9 6.05 -17.5 Q6.3 -17.3 6.6 -17.05 L6.65 -16.95 6.95 -16.6 7.35 -16.1 7.65 -15.55 7.95 -14.85 8.0 -14.8 Q8.3 -13.95 8.3 -13.6 8.3 -13.4 8.25 -13.2 L8.15 -12.95 8.0 -12.9 Q7.95 -13.0 8.0 -13.2 L8.0 -13.55 Q8.0 -14.0 7.7 -14.8 L7.4 -15.4 7.3 -15.65 Q7.0 -15.9 6.45 -16.25 L5.95 -16.55 5.6 -16.8 5.5 -16.85 5.45 -16.9 4.95 -16.65 Q5.05 -16.45 5.1 -16.1 5.2 -15.65 5.2 -15.15 5.2 -15.0 5.1 -14.8 L4.8 -14.4 Q4.4 -13.85 4.4 -13.65 4.4 -13.15 4.75 -12.45 L5.0 -11.95 5.2 -11.65 5.35 -11.35 5.65 -11.45 6.25 -11.4 6.4 -11.45 6.45 -11.4 6.55 -11.35 6.55 -11.4 Q7.15 -11.2 7.75 -11.15 L7.9 -11.0 8.4 -10.45 Q8.75 -10.15 9.25 -10.15 9.6 -10.15 9.8 -10.35 9.95 -10.55 9.95 -10.8 L9.95 -10.85 10.05 -10.85 10.0 -10.9 Q9.85 -11.4 9.85 -11.55 9.85 -11.65 9.9 -11.8 9.9 -11.85 9.9 -11.95 9.9 -12.1 10.35 -12.8 10.8 -13.5 10.8 -14.05 10.8 -14.45 10.7 -14.8 10.5 -15.8 9.65 -16.2 9.05 -16.4 8.85 -16.5 8.6 -16.6 8.55 -16.75 8.35 -16.8 8.15 -16.85 8.0 -16.9 7.95 -16.95 L7.9 -17.0 7.8 -16.95 7.7 -16.95 7.2 -16.75 6.95 -16.8 6.95 -16.85 6.9 -16.9 6.95 -16.95 Q7.4 -17.35 8.0 -17.35 L8.35 -17.9 8.65 -18.35 Q8.9 -18.7 8.9 -18.85 8.9 -19.1 8.7 -19.5 L8.4 -20.15 8.4 -20.8 8.55 -20.8 Q8.65 -20.5 9.15 -19.55 9.6 -18.8 9.65 -18.35 L9.65 -18.3 Q9.6 -17.9 9.45 -17.5 L10.35 -17.35 Q10.85 -17.9 11.1 -18.85 L11.1 -18.9 11.05 -18.9 11.05 -18.95 Q11.0 -19.15 10.9 -19.25 M2.35 -15.35 Q2.3 -15.25 2.0 -15.25 1.25 -15.25 0.5 -16.1 -0.15 -16.85 -0.15 -17.3 L-0.1 -17.55 0.05 -17.55 Q0.3 -17.4 0.4 -17.0 L0.6 -16.35 Q0.8 -15.9 1.5 -15.8 1.8 -15.75 2.25 -15.8 L2.45 -15.85 2.6 -15.7 2.65 -15.6 2.6 -15.55 2.35 -15.35 M1.5 -12.85 L1.35 -12.75 1.3 -12.65 Q1.05 -12.4 0.75 -12.25 L0.65 -12.2 0.6 -12.2 0.55 -12.15 0.55 -12.35 Q0.55 -12.65 0.75 -13.25 L0.85 -13.5 Q1.05 -13.95 1.25 -13.95 1.35 -13.95 1.5 -13.85 L1.7 -13.65 Q2.55 -13.65 2.8 -14.25 L3.0 -14.75 3.05 -14.8 Q3.15 -15.0 3.4 -15.05 L3.4 -15.1 Q3.45 -15.1 3.45 -14.9 L3.45 -14.8 Q3.35 -14.5 3.05 -14.1 2.65 -13.6 2.4 -13.5 L2.4 -13.45 Q2.05 -13.3 1.8 -13.1 L1.5 -12.85 M7.3 -11.15 Q7.0 -11.2 6.55 -11.15 5.8 -11.1 5.6 -10.9 L5.9 -10.45 6.25 -10.05 6.25 -9.95 Q6.25 -10.15 6.4 -10.45 6.6 -10.75 6.85 -10.9 7.15 -11.1 7.4 -11.0 L7.3 -11.15 M7.9 -10.35 Q7.85 -9.9 7.9 -9.6 8.05 -9.1 8.95 -9.1 9.05 -9.1 9.55 -9.55 L10.2 -10.25 Q9.9 -10.05 9.15 -10.05 8.35 -10.05 7.85 -10.5 L7.9 -10.35 M-7.2 -20.2 Q-7.55 -19.6 -7.55 -19.2 L-7.55 -19.15 -7.5 -18.9 -7.5 -18.8 Q-7.3 -18.85 -7.15 -18.95 L-6.95 -19.0 -7.0 -18.95 Q-6.9 -18.95 -6.7 -19.05 -6.2 -19.25 -5.6 -19.55 L-5.25 -19.75 -5.2 -19.6 -5.25 -19.55 Q-5.35 -19.25 -5.6 -18.8 -5.75 -18.45 -6.05 -18.05 L-6.3 -17.6 -6.3 -17.55 -6.4 -17.45 Q-6.65 -16.95 -6.7 -16.55 L-6.7 -16.5 -6.6 -16.5 Q-6.05 -16.5 -5.35 -16.95 -4.9 -17.2 -4.3 -17.6 L-4.2 -17.6 -4.15 -17.65 Q-4.05 -17.7 -4.05 -17.6 L-4.2 -17.25 Q-4.45 -16.65 -4.45 -16.05 L-4.4 -15.25 -4.35 -14.95 -4.35 -14.55 Q-4.5 -13.85 -4.7 -13.3 L-4.8 -13.3 -4.95 -14.85 Q-5.3 -14.45 -5.8 -14.15 -7.75 -12.85 -10.15 -12.85 -10.4 -12.85 -10.5 -13.05 -10.5 -13.1 -10.5 -13.25 -10.5 -14.85 -9.1 -17.3 L-8.5 -18.2 -8.6 -18.25 Q-8.6 -18.6 -8.0 -20.0 L-7.95 -20.15 Q-7.15 -22.0 -6.3 -22.5 -6.55 -21.9 -7.05 -20.95 L-7.15 -20.65 -7.2 -20.2 M-6.2 -18.6 L-7.8 -17.95 -8.25 -17.4 Q-9.05 -16.5 -9.35 -15.95 -9.55 -15.55 -9.7 -15.15 -9.4 -15.6 -8.85 -16.0 L-7.7 -16.8 Q-7.25 -17.05 -6.95 -17.3 L-6.9 -17.4 Q-6.7 -18.0 -6.3 -18.55 L-6.2 -18.6 M-7.1 -16.25 L-7.1 -16.75 -7.8 -16.0 -9.9 -13.8 -9.85 -13.65 -9.85 -13.55 Q-7.15 -13.65 -6.0 -14.85 -5.75 -15.15 -5.25 -15.9 -4.9 -16.45 -4.6 -16.75 L-4.55 -16.8 Q-4.85 -16.55 -5.3 -16.3 -6.6 -15.75 -6.9 -15.55 -7.05 -15.7 -7.1 -15.95 L-7.1 -16.25 M-0.5 -19.4 L-0.6 -19.45 -0.55 -19.45 -0.5 -19.4" fill="#111111" fill-rule="evenodd" stroke="none"/>
    <path d="M9.7 -21.3 Q9.5 -21.4 9.4 -21.6 L9.3 -22.05 Q9.3 -22.15 9.35 -22.25 9.4 -22.55 9.6 -22.7 L9.7 -22.7 9.9 -22.9 10.0 -22.95 10.6 -23.5 Q10.7 -23.6 10.95 -24.1 11.0 -24.25 11.15 -24.2 L11.55 -24.8 11.6 -24.55 11.65 -24.05 Q11.35 -23.55 10.5 -22.4 L9.7 -21.3 M2.4 -21.4 L2.6 -21.35 3.0 -21.35 Q3.6 -21.35 3.8 -21.85 3.9 -22.05 3.9 -22.45 3.95 -22.6 3.95 -22.9 L4.0 -23.0 4.3 -22.95 4.75 -22.95 Q5.9 -22.95 6.85 -22.05 7.35 -21.65 7.7 -21.2 7.9 -21.2 7.95 -21.25 L8.0 -21.35 Q8.0 -21.65 8.25 -22.1 8.45 -22.5 8.45 -22.65 L8.45 -22.85 8.55 -22.75 8.85 -22.5 9.25 -21.75 Q9.65 -21.0 9.65 -20.5 9.65 -19.95 9.9 -19.7 10.05 -19.6 10.4 -19.5 10.75 -19.4 10.9 -19.3 L10.9 -19.25 10.65 -19.1 Q10.15 -18.75 9.65 -18.35 9.6 -18.8 9.15 -19.55 8.65 -20.5 8.55 -20.8 L8.4 -20.8 8.4 -20.15 8.7 -19.5 Q8.9 -19.1 8.9 -18.85 8.9 -18.7 8.65 -18.35 L8.6 -18.3 Q8.35 -18.2 8.2 -18.2 7.9 -18.2 7.4 -18.5 L6.6 -19.0 6.65 -19.15 Q6.65 -19.35 6.25 -20.05 5.85 -20.75 5.65 -20.9 L5.65 -20.85 5.6 -20.95 5.6 -20.8 Q5.6 -20.5 5.85 -19.9 L6.1 -19.2 6.1 -19.25 5.7 -19.15 Q5.35 -19.05 5.2 -19.05 4.55 -19.05 3.0 -19.8 L2.6 -20.0 Q1.25 -20.65 1.0 -20.7 0.5 -20.8 0.05 -21.05 1.4 -21.05 1.6 -21.05 2.2 -21.15 2.4 -21.4 M0.05 -22.95 Q-0.7 -22.3 -0.8 -21.9 -1.0 -22.25 -1.0 -22.55 L-0.7 -22.75 Q-0.3 -23.05 0.15 -23.3 0.05 -23.15 0.05 -22.95 M-1.1 -18.2 L-1.1 -18.4 -0.9 -18.5 Q-0.6 -18.65 -0.15 -18.65 L0.3 -18.55 0.3 -18.3 0.35 -18.25 0.55 -18.25 Q0.6 -18.1 0.75 -17.95 L0.6 -18.0 0.6 -17.95 0.4 -18.1 Q0.45 -17.75 0.95 -17.4 L1.2 -17.15 Q1.65 -16.75 2.15 -16.6 L2.05 -16.6 Q1.85 -16.15 1.5 -15.8 0.8 -15.9 0.6 -16.35 L0.4 -17.0 Q0.3 -17.4 0.05 -17.55 L-0.1 -17.55 -0.15 -17.3 Q-0.15 -16.85 0.5 -16.1 1.25 -15.25 2.0 -15.25 2.3 -15.25 2.35 -15.35 L2.6 -15.35 Q3.1 -15.3 3.2 -15.1 3.0 -14.9 2.85 -14.8 2.65 -14.65 2.45 -14.55 2.35 -14.5 1.8 -14.55 L1.15 -14.6 1.15 -14.65 Q0.85 -15.05 0.2 -15.7 -0.5 -16.45 -0.7 -16.75 -0.9 -17.05 -1.05 -17.3 L-0.7 -17.8 -1.1 -18.2 M2.4 -21.8 L2.35 -21.85 Q2.2 -21.95 2.2 -22.05 2.2 -22.6 2.5 -24.0 L2.6 -24.25 2.6 -24.3 Q2.85 -25.4 2.85 -25.7 L2.9 -25.75 Q3.35 -24.95 3.4 -24.75 L3.4 -23.95 3.35 -23.55 3.5 -23.05 Q3.4 -22.7 3.3 -22.5 3.1 -22.05 2.6 -21.85 L2.4 -21.8 M4.1 -13.9 Q4.1 -13.8 4.1 -13.65 4.1 -13.3 4.2 -13.0 L4.2 -12.4 Q4.45 -11.05 4.9 -9.7 5.4 -8.4 5.9 -7.7 L6.0 -7.75 Q5.65 -7.65 5.3 -7.45 4.9 -7.3 4.6 -7.05 4.1 -6.65 4.1 -6.25 4.1 -6.15 4.15 -6.05 L4.35 -5.85 4.45 -5.85 4.6 -5.75 4.55 -5.75 4.6 -5.65 Q4.65 -5.6 4.85 -5.55 L5.25 -5.5 Q5.55 -5.5 5.6 -5.7 L5.75 -6.15 Q6.0 -6.55 6.85 -6.7 L7.7 -6.75 8.4 -6.7 9.05 -6.2 Q9.85 -5.95 9.85 -5.15 9.85 -5.0 9.7 -4.85 L9.65 -4.75 9.45 -4.55 Q9.3 -4.5 9.15 -4.5 8.8 -4.5 8.6 -4.9 L8.55 -4.95 8.4 -5.0 7.75 -5.15 7.65 -5.15 7.3 -5.1 6.65 -5.0 6.55 -4.95 6.3 -4.9 6.1 -4.8 5.9 -4.7 Q5.4 -4.4 4.95 -4.4 4.2 -4.4 3.55 -5.7 3.45 -6.1 3.45 -6.6 3.45 -7.0 3.6 -7.6 3.75 -8.2 3.75 -8.55 L3.7 -9.55 3.5 -10.95 3.35 -10.95 Q3.25 -9.35 2.65 -8.55 L2.6 -8.5 2.25 -9.8 Q1.95 -11.1 1.8 -11.45 L1.35 -12.5 1.5 -12.85 1.8 -13.1 Q2.7 -13.35 3.25 -14.15 3.4 -14.35 3.6 -14.75 L3.75 -14.8 3.9 -14.95 3.9 -14.8 Q3.95 -14.5 4.0 -14.35 4.05 -14.25 4.1 -14.2 L4.1 -13.9 M5.95 -16.55 L6.45 -16.25 Q7.0 -15.9 7.3 -15.65 L7.4 -15.4 7.7 -14.8 Q8.0 -14.0 8.0 -13.55 L8.0 -13.2 Q7.95 -13.0 8.0 -12.9 L8.15 -12.95 8.25 -13.2 Q8.3 -13.4 8.3 -13.6 8.3 -13.95 8.0 -14.8 L7.95 -14.85 8.0 -14.85 8.0 -14.9 8.1 -15.15 Q8.0 -15.35 7.95 -16.05 7.9 -16.6 7.75 -16.95 L7.95 -16.95 Q8.0 -16.9 8.15 -16.85 8.35 -16.8 8.55 -16.75 8.6 -16.6 8.85 -16.5 9.05 -16.4 9.65 -16.2 10.5 -15.8 10.7 -14.8 10.8 -14.45 10.8 -14.05 10.8 -13.5 10.35 -12.8 9.9 -12.1 9.9 -11.95 9.9 -11.85 9.9 -11.8 9.85 -11.65 9.85 -11.55 9.85 -11.4 10.0 -10.9 L10.05 -10.85 9.95 -10.85 9.95 -10.8 Q9.95 -10.55 9.8 -10.35 9.6 -10.15 9.25 -10.15 8.75 -10.15 8.4 -10.45 L7.9 -11.0 7.75 -11.15 Q7.15 -11.2 6.55 -11.4 L6.4 -11.65 Q5.3 -13.3 5.3 -13.85 5.3 -14.3 5.45 -14.8 5.55 -15.35 5.85 -16.0 L6.1 -16.5 5.95 -16.55 M6.65 -16.95 L6.6 -17.05 6.65 -17.05 6.65 -16.95" fill="#cccccc" fill-rule="evenodd" stroke="none"/>
    <path d="M-6.6 -28.45 L-6.55 -28.45 -6.5 -28.6 Q-6.35 -28.85 -5.35 -29.15 -4.3 -29.4 -3.5 -29.35 L-2.45 -29.25 -2.5 -29.3 -3.2 -29.65 Q-3.5 -29.9 -4.05 -30.05 L-3.95 -30.05 -3.1 -30.1 Q-0.9 -30.1 1.7 -28.9 L2.6 -28.45 3.35 -28.05 Q4.05 -27.65 4.15 -27.65 4.35 -27.65 4.4 -27.7 L4.4 -27.75 Q3.8 -28.1 2.75 -28.75 L2.75 -28.9 2.6 -29.0 Q1.6 -29.85 1.6 -31.15 1.6 -31.35 1.65 -31.75 L1.9 -31.4 2.0 -31.25 Q2.2 -30.8 2.6 -30.35 L3.0 -29.85 Q3.7 -29.15 5.4 -27.8 7.15 -26.5 7.85 -25.75 8.65 -24.9 8.95 -24.05 9.05 -23.75 9.1 -23.5 L9.2 -23.6 9.25 -23.6 9.05 -24.1 Q8.8 -24.65 8.55 -25.4 7.85 -26.5 7.35 -27.1 6.5 -27.9 5.5 -28.55 L5.35 -28.7 6.15 -28.35 Q7.9 -27.55 8.75 -26.45 9.4 -25.65 9.7 -24.6 9.8 -24.15 9.9 -23.65 L9.8 -23.55 Q9.2 -23.05 9.15 -22.9 L9.0 -23.0 8.65 -23.3 8.4 -23.45 8.3 -23.85 8.15 -24.25 Q7.75 -25.25 6.95 -25.45 7.15 -25.05 7.65 -24.4 7.8 -24.15 7.9 -23.95 L7.95 -23.55 Q7.95 -23.2 7.85 -22.9 7.7 -22.6 7.4 -22.2 L6.55 -22.7 Q6.15 -23.45 5.4 -24.25 L4.85 -24.7 Q4.3 -25.2 3.7 -25.55 3.4 -26.8 3.0 -27.35 L2.6 -26.95 Q2.3 -26.65 2.0 -26.2 L1.1 -26.25 1.7 -25.8 1.25 -25.1 0.8 -24.15 0.65 -23.9 0.45 -23.75 0.4 -23.7 0.25 -23.65 -0.5 -23.8 -0.65 -23.8 Q-3.15 -24.0 -5.8 -23.05 L-6.55 -22.75 -6.1 -23.55 Q-5.2 -24.6 -4.2 -25.2 -2.8 -26.05 -0.9 -26.2 -1.6 -26.35 -2.4 -26.25 -4.45 -26.2 -6.05 -25.4 -6.9 -25.0 -8.95 -23.5 L-9.0 -23.5 Q-8.5 -24.35 -6.95 -25.9 L-6.1 -26.75 Q-4.55 -27.55 -3.8 -27.55 L-3.15 -27.55 -2.5 -27.5 -1.75 -27.5 Q-1.55 -27.5 -1.55 -27.55 L-1.55 -27.65 Q-3.8 -28.6 -6.25 -28.45 L-6.3 -28.45 -6.35 -28.45 -6.7 -28.4 -6.6 -28.45 M4.25 -23.5 L4.0 -23.5 3.95 -23.95 4.0 -23.85 4.25 -23.5 M-3.75 -20.1 L-3.75 -20.05 -3.8 -20.05 -3.65 -19.95 Q-3.4 -19.7 -3.05 -19.45 L-2.75 -19.25 -2.45 -18.85 -2.05 -18.45 -2.15 -18.4 -1.65 -17.95 -1.5 -17.8 -1.45 -17.8 -1.45 -17.75 -1.6 -17.6 -1.6 -17.55 -1.8 -17.35 Q-3.05 -18.35 -3.95 -19.0 -5.1 -19.85 -5.7 -20.1 -5.1 -20.5 -3.85 -20.15 L-3.75 -20.1 M-3.45 -15.3 Q-3.45 -15.15 -3.4 -15.1 L-3.4 -15.05 -2.75 -15.05 -1.6 -15.0 -0.4 -14.7 -0.4 -14.65 -0.45 -14.6 -1.8 -14.45 Q-3.0 -14.25 -3.75 -13.9 -4.1 -13.75 -4.35 -13.6 -4.2 -13.9 -3.95 -14.7 L-3.9 -14.8 Q-3.7 -15.1 -3.45 -15.3 M9.45 -4.55 L9.45 -4.45 Q9.45 -3.75 9.15 -3.35 L8.7 -2.75 8.75 -3.35 8.75 -4.2 Q8.7 -4.75 8.4 -4.85 L8.4 -4.25 Q8.4 -3.9 8.3 -3.45 8.25 -2.95 8.15 -2.5 7.95 -1.75 7.6 -1.15 L8.05 -3.1 Q8.05 -3.45 7.85 -4.35 L7.7 -4.9 7.65 -5.15 7.75 -5.15 8.4 -5.0 8.55 -4.95 8.6 -4.9 Q8.8 -4.5 9.15 -4.5 9.3 -4.5 9.45 -4.55 M6.95 -3.05 Q6.7 -2.55 6.25 -2.0 L6.15 -1.85 Q6.45 -3.3 6.6 -4.8 L6.65 -5.0 7.3 -5.1 7.3 -4.85 Q7.3 -4.3 6.95 -3.05" fill="#595959" fill-rule="evenodd" stroke="none"/>
    <path d="M11.65 -24.05 L11.7 -23.95 Q11.65 -23.05 11.25 -22.1 L10.75 -21.1 10.65 -21.0 Q10.5 -20.85 10.35 -20.85 10.1 -20.85 9.8 -21.25 9.75 -21.25 9.7 -21.3 L10.5 -22.4 Q11.35 -23.55 11.65 -24.05 M2.4 -21.4 Q2.2 -21.15 1.6 -21.05 1.4 -21.05 0.05 -21.05 0.5 -20.8 1.0 -20.7 1.25 -20.65 2.6 -20.0 L3.0 -19.8 Q4.55 -19.05 5.2 -19.05 5.35 -19.05 5.7 -19.15 L6.1 -19.25 6.1 -19.2 6.1 -19.0 Q5.55 -18.15 5.3 -18.15 4.4 -18.15 2.75 -18.95 L2.6 -19.0 1.9 -19.3 Q1.7 -19.55 1.4 -19.5 0.95 -19.7 0.8 -19.7 0.15 -19.7 -0.2 -19.55 L-0.2 -19.5 -0.5 -19.3 -0.4 -19.2 -0.1 -19.2 0.7 -19.15 0.45 -18.95 Q0.3 -18.7 0.3 -18.6 L0.3 -18.55 -0.15 -18.65 Q-0.6 -18.65 -0.9 -18.5 L-1.1 -18.4 -1.1 -18.2 -1.1 -18.15 -1.25 -18.3 -1.7 -18.7 -1.8 -18.8 -2.1 -19.05 -2.15 -19.1 -2.5 -19.4 Q-2.6 -19.6 -2.75 -19.85 -2.95 -20.15 -3.15 -20.35 -2.6 -20.85 -1.45 -22.15 L-1.25 -22.3 -1.1 -22.5 -1.05 -22.5 -1.0 -22.55 Q-1.0 -22.25 -0.8 -21.9 -0.7 -22.3 0.05 -22.95 L0.05 -22.85 Q0.05 -22.55 0.1 -22.5 0.15 -22.25 0.5 -22.2 L0.55 -22.25 0.55 -22.4 Q0.55 -22.65 1.25 -23.6 1.5 -23.9 1.8 -24.25 L2.15 -24.75 2.3 -25.05 2.8 -25.65 2.85 -25.7 Q2.85 -25.4 2.6 -24.3 L2.6 -24.25 2.5 -24.0 Q2.2 -22.6 2.2 -22.05 2.2 -21.95 2.35 -21.85 L2.4 -21.8 1.65 -21.75 1.4 -21.85 1.0 -22.1 0.8 -22.05 0.8 -21.95 Q0.9 -21.85 1.65 -21.6 2.05 -21.45 2.4 -21.4 M6.6 -19.0 L7.4 -18.5 Q7.9 -18.2 8.2 -18.2 8.35 -18.2 8.6 -18.3 L8.65 -18.35 8.35 -17.9 8.0 -17.35 Q7.4 -17.35 6.95 -16.95 L6.9 -16.9 6.95 -16.85 6.95 -16.8 7.2 -16.75 7.7 -16.95 7.8 -16.95 7.9 -17.0 7.95 -16.95 7.75 -16.95 Q7.9 -16.6 7.95 -16.05 8.0 -15.35 8.1 -15.15 L8.0 -14.9 8.0 -14.85 7.95 -14.85 7.65 -15.55 7.35 -16.1 6.95 -16.6 6.65 -16.95 6.65 -17.05 6.6 -17.05 Q6.3 -17.3 6.05 -17.5 L6.0 -17.9 6.2 -18.2 6.6 -19.0 M9.65 -18.35 Q10.15 -18.75 10.65 -19.1 L10.9 -19.25 Q11.0 -19.15 11.05 -18.95 L11.05 -18.9 11.1 -18.9 11.1 -18.85 Q10.85 -17.9 10.35 -17.35 L9.45 -17.5 Q9.6 -17.9 9.65 -18.3 L9.65 -18.35 M2.15 -16.6 L2.25 -16.55 2.5 -16.5 2.9 -16.5 3.5 -16.55 3.3 -16.4 Q2.95 -16.0 2.8 -15.75 L3.0 -15.65 Q3.45 -15.6 4.1 -16.7 L4.25 -16.65 Q4.45 -16.45 4.65 -16.0 4.9 -15.4 4.9 -15.2 4.9 -14.95 4.85 -14.8 4.7 -14.55 4.5 -14.45 4.3 -14.3 4.2 -14.1 L4.15 -14.05 4.1 -13.9 4.1 -14.2 Q4.05 -14.25 4.0 -14.35 3.95 -14.5 3.9 -14.8 L3.9 -14.95 3.75 -14.8 3.6 -14.75 Q3.4 -14.35 3.25 -14.15 2.7 -13.35 1.8 -13.1 2.05 -13.3 2.4 -13.45 L2.4 -13.5 Q2.65 -13.6 3.05 -14.1 3.35 -14.5 3.45 -14.8 L3.45 -14.9 Q3.45 -15.1 3.4 -15.1 L3.4 -15.05 Q3.15 -15.0 3.05 -14.8 L3.0 -14.75 2.8 -14.25 Q2.55 -13.65 1.7 -13.65 L1.5 -13.85 Q1.35 -13.95 1.25 -13.95 1.05 -13.95 0.85 -13.5 L0.75 -13.25 Q0.55 -12.65 0.55 -12.35 L0.55 -12.15 0.6 -12.2 0.65 -12.2 0.75 -12.25 Q1.05 -12.4 1.3 -12.65 L1.35 -12.75 1.5 -12.85 1.35 -12.5 1.8 -11.45 Q1.95 -11.1 2.25 -9.8 L2.6 -8.5 2.65 -8.55 Q3.25 -9.35 3.35 -10.95 L3.5 -10.95 3.7 -9.55 3.75 -8.55 Q3.75 -8.2 3.6 -7.6 3.45 -7.0 3.45 -6.6 3.45 -6.1 3.55 -5.7 4.2 -4.4 4.95 -4.4 5.4 -4.4 5.9 -4.7 L6.1 -4.8 6.1 -4.75 6.05 -4.7 6.0 -4.6 5.95 -4.7 5.9 -4.7 5.75 -4.45 5.6 -4.45 Q5.5 -4.45 5.15 -4.25 4.8 -4.05 4.7 -4.05 L4.2 -4.1 Q4.05 -4.15 3.95 -4.2 L3.75 -4.3 Q3.45 -4.5 3.2 -4.85 2.9 -5.25 2.25 -6.8 1.6 -8.3 1.0 -9.1 0.1 -10.25 -1.2 -10.85 -1.15 -12.05 -0.5 -13.3 L0.0 -14.15 Q0.2 -14.5 0.2 -14.6 0.2 -14.9 -0.55 -15.1 L-1.1 -15.2 -2.65 -15.5 -1.7 -16.5 Q-1.3 -16.9 -1.05 -17.3 -0.9 -17.05 -0.7 -16.75 -0.5 -16.45 0.2 -15.7 0.85 -15.05 1.15 -14.65 L1.15 -14.6 1.8 -14.55 Q2.35 -14.5 2.45 -14.55 2.65 -14.65 2.85 -14.8 3.0 -14.9 3.2 -15.1 3.1 -15.3 2.6 -15.35 L2.35 -15.35 2.6 -15.55 2.65 -15.6 2.6 -15.7 2.45 -15.85 2.25 -15.8 Q1.8 -15.75 1.5 -15.8 1.85 -16.15 2.05 -16.6 L2.15 -16.6 M4.2 -13.0 Q4.25 -12.75 4.4 -12.55 L4.85 -11.8 4.85 -11.45 Q4.9 -11.3 5.0 -11.15 4.9 -11.0 4.9 -10.8 L5.2 -10.3 Q5.4 -10.0 5.7 -9.85 L5.85 -9.8 6.05 -9.75 7.5 -10.3 Q7.55 -9.7 8.1 -9.05 8.65 -8.4 9.1 -8.4 9.3 -8.4 9.75 -8.7 L9.7 -8.4 9.65 -8.2 9.55 -8.1 Q9.4 -7.9 9.35 -7.75 L9.3 -7.65 Q9.2 -7.6 9.05 -7.55 7.95 -7.95 6.75 -7.8 L6.0 -7.75 5.9 -7.7 Q5.4 -8.4 4.9 -9.7 4.45 -11.05 4.2 -12.4 L4.2 -13.0 M6.85 -6.7 L7.55 -6.75 7.7 -6.75 6.85 -6.7 M6.55 -11.4 L6.55 -11.35 6.45 -11.4 6.4 -11.45 6.25 -11.4 5.65 -11.45 5.35 -11.35 5.2 -11.65 5.0 -11.95 4.75 -12.45 Q4.4 -13.15 4.4 -13.65 4.4 -13.85 4.8 -14.4 L5.1 -14.8 Q5.2 -15.0 5.2 -15.15 5.2 -15.65 5.1 -16.1 5.05 -16.45 4.95 -16.65 L5.45 -16.9 5.5 -16.85 5.6 -16.8 5.95 -16.55 6.1 -16.5 5.85 -16.0 Q5.55 -15.35 5.45 -14.8 5.3 -14.3 5.3 -13.85 5.3 -13.3 6.4 -11.65 L6.55 -11.4 M7.9 -10.35 L7.85 -10.5 Q8.35 -10.05 9.15 -10.05 9.9 -10.05 10.2 -10.25 L9.55 -9.55 Q9.05 -9.1 8.95 -9.1 8.05 -9.1 7.9 -9.6 7.85 -9.9 7.9 -10.35 M7.3 -11.15 L7.4 -11.0 Q7.15 -11.1 6.85 -10.9 6.6 -10.75 6.4 -10.45 6.25 -10.15 6.25 -9.95 L6.25 -10.05 5.9 -10.45 5.6 -10.9 Q5.8 -11.1 6.55 -11.15 7.0 -11.2 7.3 -11.15 M-7.1 -16.25 L-7.1 -15.95 Q-7.05 -15.7 -6.9 -15.55 -6.6 -15.75 -5.3 -16.3 -4.85 -16.55 -4.55 -16.8 L-4.6 -16.75 Q-4.9 -16.45 -5.25 -15.9 -5.75 -15.15 -6.0 -14.85 -7.15 -13.65 -9.85 -13.55 L-9.85 -13.65 -9.9 -13.8 -7.8 -16.0 -7.1 -16.75 -7.1 -16.25 M-6.2 -18.6 L-6.3 -18.55 Q-6.7 -18.0 -6.9 -17.4 L-6.95 -17.3 Q-7.25 -17.05 -7.7 -16.8 L-8.85 -16.0 Q-9.4 -15.6 -9.7 -15.15 -9.55 -15.55 -9.35 -15.95 -9.05 -16.5 -8.25 -17.4 L-7.8 -17.95 -6.2 -18.6 M-0.5 -19.4 L-0.55 -19.45 -0.6 -19.45 -0.5 -19.4" fill="#8c8c8c" fill-rule="evenodd" stroke="none"/>
    <path d="M2.2 -18.65 Q2.0 -18.45 2.0 -18.15 1.95 -17.9 2.05 -17.7 2.2 -17.35 2.6 -17.3 L2.75 -17.3 Q3.4 -17.3 3.45 -18.0 3.75 -17.75 3.75 -17.6 L3.75 -17.55 3.65 -17.45 Q3.35 -17.1 2.75 -17.1 L2.6 -17.1 2.4 -17.15 2.3 -17.15 2.15 -17.2 Q1.55 -17.25 1.2 -17.6 L1.15 -17.65 0.75 -17.95 Q0.6 -18.1 0.55 -18.25 L0.6 -18.25 1.2 -18.65 1.55 -18.65 Q1.75 -18.8 2.2 -18.65" fill="#2d3339" fill-rule="evenodd" stroke="none"/>
    <path d="M3.15 -17.95 L3.1 -17.65 2.95 -17.65 2.7 -17.6 2.4 -17.6 2.35 -17.65 2.3 -17.75 Q2.25 -17.8 2.25 -18.0 2.25 -18.15 2.4 -18.25 L2.6 -18.3 3.05 -18.25 Q3.05 -18.2 3.1 -18.1 L3.15 -17.95" fill="#424a53" fill-rule="evenodd" stroke="none"/>
    <path d="M6.75 -7.8 L5.85 -7.65 Q5.55 -7.55 5.3 -7.45 5.65 -7.65 6.0 -7.75 L6.75 -7.8 M4.45 -5.85 L4.5 -5.9 4.6 -5.95 4.65 -5.95 4.65 -6.15 Q4.65 -6.45 5.1 -7.0 5.65 -7.6 6.25 -7.6 L7.7 -7.35 8.45 -7.25 8.95 -7.15 Q9.0 -7.15 9.0 -7.1 L9.05 -7.1 9.1 -7.05 Q9.1 -6.95 9.3 -6.7 L6.8 -7.15 Q6.3 -7.15 5.7 -6.5 5.1 -5.85 4.6 -5.75 L4.45 -5.85 M7.55 -6.75 L8.4 -6.7 7.7 -6.75 7.55 -6.75" fill="#575757" fill-rule="evenodd" stroke="none"/>
    <path d="M3.15 -17.95 L3.1 -18.1 Q3.05 -18.2 3.05 -18.25 L2.6 -18.3 2.4 -18.25 Q2.25 -18.15 2.25 -18.0 2.25 -17.8 2.3 -17.75 L2.35 -17.65 2.4 -17.6 2.7 -17.6 2.95 -17.65 3.1 -17.65 3.15 -17.95 M2.2 -18.65 L2.3 -18.6 2.6 -18.6 2.85 -18.4 Q3.15 -18.25 3.4 -18.05 L3.45 -18.0 Q3.4 -17.3 2.75 -17.3 L2.6 -17.3 Q2.2 -17.35 2.05 -17.7 1.95 -17.9 2.0 -18.15 2.0 -18.45 2.2 -18.65" fill="#8d99a5" fill-rule="evenodd" stroke="none"/>
    <path d="M-11.55 -18.75 Q-10.8 -22.2 -10.65 -24.35 -10.6 -24.9 -10.05 -25.85 -9.35 -27.0 -8.4 -27.9 -7.75 -28.5 -6.6 -28.45 L-6.7 -28.4 -6.35 -28.45 -6.3 -28.45 -6.25 -28.45 Q-3.8 -28.6 -1.55 -27.65 L-1.55 -27.55 Q-1.55 -27.5 -1.75 -27.5 L-2.5 -27.5 -3.15 -27.55 -3.8 -27.55 Q-4.55 -27.55 -6.1 -26.75 L-6.95 -25.9 Q-8.5 -24.35 -9.0 -23.5 L-8.95 -23.5 Q-6.9 -25.0 -6.05 -25.4 -4.45 -26.2 -2.4 -26.25 -1.6 -26.35 -0.9 -26.2 -2.8 -26.05 -4.2 -25.2 -5.2 -24.6 -6.1 -23.55 L-6.55 -22.75 -5.8 -23.05 Q-3.15 -24.0 -0.65 -23.8 L-0.5 -23.8 0.25 -23.65 Q-1.05 -23.4 -1.85 -22.5 L-2.05 -22.3 -2.05 -22.25 -2.1 -22.2 -2.85 -21.1 Q-3.2 -20.6 -3.55 -20.25 L-3.75 -20.1 -3.85 -20.15 Q-5.1 -20.5 -5.7 -20.1 -5.1 -19.85 -3.95 -19.0 -3.05 -18.35 -1.8 -17.35 L-2.75 -16.15 -3.45 -15.3 Q-3.7 -15.1 -3.9 -14.8 L-3.95 -14.7 Q-4.2 -13.9 -4.35 -13.6 -4.1 -13.75 -3.75 -13.9 -3.0 -14.25 -1.8 -14.45 L-0.45 -14.6 -1.2 -12.75 Q-1.65 -11.5 -1.65 -10.7 L-1.65 -10.55 -1.55 -10.5 -1.45 -10.5 Q-1.35 -10.35 -1.0 -10.05 L0.15 -9.2 Q1.8 -7.95 1.8 -7.0 1.8 -6.2 2.55 -5.0 2.85 -4.45 3.25 -4.05 3.5 -3.85 3.75 -3.7 L3.8 -3.55 3.9 -3.55 4.1 -3.5 4.75 -3.6 4.75 -3.55 5.05 -3.7 5.2 -3.8 5.25 -3.75 5.25 -3.8 5.6 -4.1 5.6 -4.05 Q5.6 -3.8 5.45 -3.45 L5.1 -2.8 5.15 -2.8 4.65 -2.0 Q3.75 -0.7 3.25 -0.5 L2.35 0.2 2.25 0.3 Q2.7 -0.35 2.95 -1.1 3.25 -1.8 3.25 -2.2 L3.15 -2.35 2.95 -2.0 Q2.8 -1.55 2.55 -1.05 2.2 -0.35 1.85 0.0 0.85 1.55 -1.2 1.95 L-1.15 1.85 Q-0.85 1.45 -0.2 -0.6 0.4 -2.6 0.4 -3.35 0.55 -4.05 0.55 -4.25 0.55 -5.15 0.4 -5.8 0.15 -5.35 0.05 -4.2 -0.1 -2.9 -0.25 -2.45 -0.8 -0.9 -1.8 0.05 L-1.9 0.1 -1.85 0.0 Q-1.45 -1.0 -1.45 -2.05 -1.45 -2.35 -1.55 -3.0 -1.75 -3.85 -1.95 -4.05 -2.0 -3.65 -2.0 -2.85 L-2.0 -1.65 Q-2.1 -0.5 -2.6 0.35 L-2.6 -0.3 Q-2.55 -1.2 -2.55 -1.45 -2.55 -2.7 -3.45 -4.3 L-3.75 -4.85 -3.8 -4.9 Q-4.35 -6.35 -4.5 -6.9 -4.85 -8.0 -4.85 -8.9 L-4.8 -9.4 Q-4.75 -9.8 -4.8 -10.0 L-4.9 -10.0 -4.95 -9.4 -5.05 -8.85 -5.0 -8.4 -5.1 -6.75 Q-5.0 -5.75 -4.85 -4.8 -4.7 -3.95 -4.55 -3.45 -4.5 -2.9 -4.5 -2.5 -4.5 -2.25 -4.55 -1.85 -4.6 -1.45 -4.7 -1.15 L-4.7 -1.2 Q-5.3 -3.0 -6.2 -4.45 -6.5 -4.95 -7.7 -6.6 L-7.9 -6.9 Q-8.7 -8.45 -9.1 -9.7 L-9.15 -10.0 Q-9.35 -10.65 -9.4 -11.3 L-9.5 -11.65 Q-9.5 -12.1 -9.35 -12.4 L-9.5 -12.35 Q-9.85 -11.4 -10.05 -9.85 L-10.35 -7.35 -10.4 -7.35 Q-10.5 -7.8 -10.85 -10.1 -11.25 -12.65 -11.25 -13.15 -11.25 -14.6 -10.5 -16.65 L-10.15 -17.5 -10.1 -17.6 Q-9.8 -18.25 -10.0 -18.35 -10.2 -18.45 -10.25 -18.25 -10.55 -17.55 -10.9 -16.7 -11.5 -15.0 -11.7 -13.5 L-11.8 -13.75 -11.9 -14.9 Q-11.9 -16.55 -11.25 -18.25 L-11.1 -18.55 Q-11.15 -18.3 -11.1 -18.7 -11.05 -19.1 -11.55 -18.75 M6.55 -22.7 L5.95 -23.0 Q4.95 -23.45 4.25 -23.5 L4.0 -23.85 3.95 -23.95 3.95 -24.3 3.8 -25.2 3.75 -25.3 3.75 -25.45 3.7 -25.55 Q4.3 -25.2 4.85 -24.7 L5.4 -24.25 Q6.15 -23.45 6.55 -22.7 M2.0 -26.2 L1.9 -26.1 1.75 -25.85 1.7 -25.8 1.1 -26.25 2.0 -26.2 M7.6 -1.15 Q7.3 -0.75 6.85 -0.45 L6.85 -0.5 7.2 -1.8 7.3 -2.3 7.35 -2.95 Q7.65 -3.75 7.65 -4.1 7.65 -4.4 7.6 -4.6 L7.35 -4.1 Q7.25 -3.6 6.95 -3.05 7.3 -4.3 7.3 -4.85 L7.3 -5.1 7.65 -5.15 7.7 -4.9 7.85 -4.35 Q8.05 -3.45 8.05 -3.1 L7.6 -1.15 M6.15 -1.85 L5.05 -0.65 3.85 0.55 3.8 0.55 Q4.15 -0.2 4.9 -1.55 L5.2 -1.95 5.5 -2.95 5.75 -3.45 5.7 -3.45 Q5.9 -3.8 6.05 -4.3 L6.0 -4.55 6.0 -4.6 6.05 -4.7 6.1 -4.75 6.1 -4.8 6.3 -4.9 6.55 -4.95 6.65 -5.0 6.6 -4.8 Q6.45 -3.3 6.15 -1.85 M-7.2 -20.2 L-7.15 -20.65 -7.05 -20.95 Q-6.55 -21.9 -6.3 -22.5 -7.15 -22.0 -7.95 -20.15 L-8.0 -20.0 Q-8.6 -18.6 -8.6 -18.25 L-8.5 -18.2 -9.1 -17.3 Q-10.5 -14.85 -10.5 -13.25 -10.5 -13.1 -10.5 -13.05 -10.4 -12.85 -10.15 -12.85 -7.75 -12.85 -5.8 -14.15 -5.3 -14.45 -4.95 -14.85 L-4.8 -13.3 -4.7 -13.3 Q-4.5 -13.85 -4.35 -14.55 L-4.35 -14.95 -4.4 -15.25 -4.45 -16.05 Q-4.45 -16.65 -4.2 -17.25 L-4.05 -17.6 Q-4.05 -17.7 -4.15 -17.65 L-4.2 -17.6 -4.3 -17.6 Q-4.9 -17.2 -5.35 -16.95 -6.05 -16.5 -6.6 -16.5 L-6.7 -16.5 -6.7 -16.55 Q-6.65 -16.95 -6.4 -17.45 L-6.3 -17.55 -6.3 -17.6 -6.05 -18.05 Q-5.75 -18.45 -5.6 -18.8 -5.35 -19.25 -5.25 -19.55 L-5.2 -19.6 -5.25 -19.75 -5.6 -19.55 Q-6.2 -19.25 -6.7 -19.05 -6.9 -18.95 -7.0 -18.95 L-6.95 -19.0 -7.15 -18.95 Q-7.3 -18.85 -7.5 -18.8 L-7.5 -18.9 -7.55 -19.15 -7.55 -19.2 Q-7.55 -19.6 -7.2 -20.2" fill="#304341" fill-rule="evenodd" stroke="none"/>
    <path d="M9.4 -17.15 Q9.4 -17.25 9.45 -17.3 L9.4 -17.3 9.35 -17.25 Q9.3 -17.25 9.3 -17.45 9.3 -17.6 10.0 -18.15 10.45 -18.5 10.8 -18.65 L10.95 -18.4 11.1 -18.1 11.2 -17.3 Q11.2 -16.95 11.15 -16.6 L10.45 -15.65 Q10.4 -15.7 10.4 -15.9 L10.45 -16.1 10.35 -16.3 10.3 -16.3 10.3 -16.35 10.1 -16.55 Q10.15 -16.7 10.45 -17.2 L10.15 -17.1 10.15 -17.15 10.2 -17.25 10.25 -17.4 10.25 -17.7 10.2 -17.65 10.15 -17.7 Q10.0 -17.65 9.85 -17.55 L9.8 -17.55 9.6 -17.55 Q9.6 -17.65 9.6 -17.45 L9.5 -17.45 9.5 -17.35 Q9.45 -17.25 9.4 -17.15 L9.6 -16.9 9.85 -16.9 9.6 -16.85 9.45 -16.9 Q9.4 -16.95 9.4 -17.15 M10.35 -10.3 L10.55 -10.35 10.75 -10.3 10.55 -10.6 10.55 -10.75 10.7 -10.75 11.0 -10.55 11.1 -10.45 11.3 -10.15 11.55 -9.7 11.75 -9.3 Q11.85 -8.95 11.9 -8.55 L11.95 -8.15 Q11.95 -7.25 11.35 -6.45 10.5 -5.3 8.85 -5.3 7.0 -5.3 6.15 -6.75 5.6 -7.65 5.6 -8.55 5.6 -9.2 5.95 -9.8 6.3 -10.35 6.75 -10.65 7.2 -10.95 7.55 -10.9 7.9 -10.8 7.9 -10.25 7.9 -9.95 7.5 -9.55 7.05 -9.1 7.05 -8.5 7.05 -8.35 7.15 -8.2 L7.2 -8.25 Q7.2 -8.0 7.55 -7.5 8.05 -6.95 8.85 -6.95 L8.95 -6.95 9.15 -7.0 9.65 -7.1 Q9.95 -7.25 10.15 -7.55 10.35 -7.85 10.4 -8.15 10.4 -8.5 10.0 -8.9 9.7 -9.3 9.65 -9.5 L9.8 -9.65 Q10.25 -10.05 10.35 -10.3 M9.75 -6.65 Q9.45 -6.45 8.9 -6.45 8.25 -6.45 7.8 -6.7 7.35 -6.85 7.05 -7.6 6.75 -8.2 6.75 -8.6 6.75 -9.05 7.15 -9.6 7.5 -10.15 7.5 -10.2 7.5 -10.4 7.45 -10.4 L7.25 -10.45 Q6.8 -10.45 6.5 -9.85 L6.4 -9.65 Q6.15 -9.1 6.15 -8.6 6.1 -7.85 6.4 -7.2 7.0 -5.9 8.9 -5.9 9.9 -5.9 10.5 -6.3 10.9 -6.55 11.1 -6.95 11.35 -7.45 11.35 -8.5 L11.35 -9.0 Q11.3 -9.3 11.15 -9.4 L11.2 -9.5 11.15 -9.6 11.05 -9.6 11.05 -9.65 11.1 -9.75 11.0 -9.75 Q10.9 -10.0 10.7 -10.05 L10.7 -9.95 10.75 -9.75 Q10.7 -9.7 10.7 -9.55 L10.65 -9.55 10.7 -9.4 10.85 -8.7 10.9 -8.5 10.85 -8.5 10.8 -8.55 Q10.85 -8.2 10.8 -7.85 L10.75 -7.75 Q10.65 -7.35 10.4 -7.05 L10.2 -6.9 10.0 -6.85 9.85 -6.7 9.75 -6.65" fill="#111111" fill-rule="evenodd" stroke="none"/>
    <path d="M6.5 -9.85 Q6.8 -10.45 7.25 -10.45 L7.45 -10.4 Q7.5 -10.4 7.5 -10.2 7.5 -10.15 7.15 -9.6 6.75 -9.05 6.75 -8.6 6.75 -8.2 7.05 -7.6 7.35 -6.85 7.8 -6.7 8.25 -6.45 8.9 -6.45 9.45 -6.45 9.75 -6.65 10.1 -6.7 10.4 -7.05 10.65 -7.35 10.75 -7.75 10.85 -8.0 10.9 -8.25 L10.9 -8.5 10.85 -8.7 10.7 -9.4 10.65 -9.55 10.7 -9.55 Q10.7 -9.7 10.75 -9.75 L10.7 -9.95 10.7 -10.05 Q10.9 -10.0 11.0 -9.75 L11.1 -9.75 11.05 -9.65 11.05 -9.6 11.15 -9.6 11.2 -9.5 11.15 -9.4 Q11.3 -9.3 11.35 -9.0 L11.35 -8.5 Q11.35 -7.45 11.1 -6.95 10.9 -6.55 10.5 -6.3 9.9 -5.95 9.1 -5.95 7.8 -5.95 7.0 -7.2 6.45 -8.15 6.45 -9.05 L6.5 -9.85" fill="#9ba8ae" fill-rule="evenodd" stroke="none"/>
    <path d="M9.65 -9.5 L9.05 -9.1 8.85 -9.15 8.8 -9.1 Q8.75 -9.1 8.75 -9.25 8.75 -9.45 9.35 -9.85 9.95 -10.35 10.35 -10.35 L10.35 -10.3 Q10.25 -10.05 9.8 -9.65 L9.65 -9.5" fill="#8c8c8c" fill-rule="evenodd" stroke="none"/>
    <path d="M9.75 -6.65 L9.85 -6.7 10.0 -6.85 10.2 -6.9 10.4 -7.05 Q10.1 -6.7 9.75 -6.65" fill="#698a92" fill-rule="evenodd" stroke="none"/>
    <path d="M10.75 -7.75 L10.8 -7.85 Q10.85 -8.2 10.8 -8.55 L10.85 -8.5 10.9 -8.5 10.9 -8.25 Q10.85 -8.0 10.75 -7.75 M10.5 -6.3 Q9.9 -5.9 8.9 -5.9 7.0 -5.9 6.4 -7.2 6.1 -7.85 6.15 -8.6 6.15 -9.1 6.4 -9.65 L6.5 -9.85 6.45 -9.05 Q6.45 -8.15 7.0 -7.2 7.8 -5.95 9.1 -5.95 9.9 -5.95 10.5 -6.3" fill="#748387" fill-rule="evenodd" stroke="none"/>
    <path d="M9.4 -17.15 Q9.45 -17.25 9.5 -17.35 L9.6 -17.15 9.6 -17.05 Q9.65 -17.1 9.7 -17.0 9.9 -17.05 9.95 -17.1 L10.1 -17.3 10.0 -17.5 9.8 -17.55 9.85 -17.55 Q10.0 -17.65 10.15 -17.7 L10.2 -17.65 10.25 -17.7 10.25 -17.4 10.2 -17.25 10.15 -17.15 10.15 -17.1 10.15 -17.0 10.0 -17.0 9.85 -16.9 9.6 -16.9 9.4 -17.15" fill="#8d99a5" fill-rule="evenodd" stroke="none"/>
    <path d="M9.5 -17.35 L9.5 -17.45 9.6 -17.45 Q9.6 -17.65 9.6 -17.55 L9.8 -17.55 10.0 -17.5 10.1 -17.3 9.95 -17.1 Q9.9 -17.05 9.7 -17.0 9.65 -17.1 9.6 -17.05 L9.6 -17.15 9.5 -17.35" fill="#424a53" fill-rule="evenodd" stroke="none"/>
  </g>
</svg>
