<?xml version="1.0" encoding="UTF-8" standalone="no"?>
<svg xmlns:ffdec="https://www.free-decompiler.com/flash" xmlns:xlink="http://www.w3.org/1999/xlink" ffdec:objectType="shape" height="29.65px" width="27.9px" xmlns="http://www.w3.org/2000/svg">
  <g transform="matrix(1.0, 0.0, 0.0, 1.0, 11.2, 29.15)">
    <path d="M-9.8 -26.85 L-9.85 -26.85 Q-9.55 -27.25 -8.45 -27.35 L-7.9 -27.35 -7.45 -27.5 Q-6.85 -27.7 -6.5 -27.65 -6.35 -27.75 -6.05 -27.85 L-6.0 -27.8 -5.65 -28.2 Q-4.85 -28.85 -4.25 -29.05 -3.6 -29.3 -3.3 -29.0 L-2.85 -28.55 Q-2.7 -28.4 -2.5 -28.3 L-2.3 -28.35 -2.25 -28.4 -2.05 -28.5 Q-1.5 -28.7 -1.15 -28.2 -1.05 -28.1 -0.9 -27.8 -0.75 -27.5 -0.95 -27.35 L0.55 -26.25 0.7 -26.1 Q1.15 -26.4 1.4 -26.3 1.55 -26.4 1.85 -25.8 L2.0 -25.5 Q2.0 -25.3 1.9 -25.2 2.2 -25.05 2.6 -24.7 L3.05 -24.3 3.05 -23.95 2.15 -22.45 Q1.6 -22.55 1.6 -22.1 L-0.45 -20.45 -2.7 -18.25 -3.85 -16.55 -4.35 -15.7 Q-5.3 -15.75 -6.15 -15.95 L-6.6 -15.1 -6.6 -14.95 -6.9 -13.6 -7.0 -5.95 -6.55 -3.7 Q-6.4 -3.55 -6.05 -3.2 -5.35 -2.4 -4.75 -1.95 -2.45 -0.2 1.2 -0.2 5.9 -0.2 8.05 -3.15 8.8 -4.2 9.15 -5.5 9.4 -6.35 9.4 -7.05 9.4 -7.15 9.15 -7.5 L9.75 -7.9 10.05 -7.6 Q10.05 -5.05 8.8 -3.05 6.55 0.5 1.15 0.5 -2.45 0.5 -5.15 -1.25 -6.05 -1.85 -6.65 -2.55 L-6.9 -2.8 Q-7.15 -2.7 -7.45 -2.7 -7.6 -2.7 -8.4 -3.5 -9.2 -4.35 -9.55 -4.35 -9.9 -4.35 -10.25 -6.45 L-10.55 -8.6 Q-10.55 -11.5 -10.0 -14.45 L-9.65 -16.35 Q-9.5 -17.2 -9.5 -17.6 L-9.95 -17.9 Q-10.75 -18.45 -11.0 -18.95 L-11.05 -18.95 -11.1 -19.0 -11.2 -19.15 Q-11.15 -19.5 -10.35 -20.85 -9.8 -22.2 -9.55 -22.6 L-9.35 -22.95 -9.05 -23.4 Q-8.2 -24.6 -7.95 -25.15 L-7.9 -25.15 -7.75 -25.2 Q-7.65 -25.25 -7.6 -25.3 L-7.6 -25.4 -7.7 -25.7 -7.55 -25.9 -7.55 -25.95 -6.9 -26.75 -6.75 -26.9 -7.65 -26.85 -8.5 -26.85 -8.5 -26.8 Q-9.3 -26.75 -9.75 -26.85 L-9.8 -26.85 M2.45 -23.95 L2.0 -24.35 1.85 -24.45 1.25 -24.95 1.2 -25.0 0.95 -24.85 Q0.65 -24.7 0.4 -24.95 0.3 -25.05 0.2 -25.2 0.1 -25.4 0.3 -25.7 L0.3 -25.75 -0.6 -26.55 -1.65 -27.35 -1.8 -27.3 -2.5 -27.3 Q-2.7 -27.4 -2.8 -27.6 -2.9 -27.85 -2.75 -28.05 L-2.7 -28.1 Q-3.65 -28.7 -3.95 -28.6 L-5.35 -27.8 -5.75 -27.5 -6.45 -26.75 Q-7.05 -26.0 -7.15 -25.5 L-7.05 -25.35 -7.0 -25.2 -7.0 -25.15 -6.95 -25.1 -6.6 -24.9 -6.4 -25.15 -6.35 -25.2 Q-5.85 -25.75 -5.35 -25.9 -4.85 -26.05 -4.6 -25.55 -4.45 -25.25 -4.7 -25.0 L-5.3 -24.6 -5.6 -24.3 -5.75 -24.2 -3.5 -22.8 -3.25 -23.1 -3.05 -23.3 Q-2.6 -23.7 -2.2 -23.85 -1.65 -24.0 -1.45 -23.5 -1.3 -23.2 -1.6 -23.05 L-2.0 -22.7 -2.4 -22.4 -2.55 -22.25 -1.15 -21.35 -0.05 -21.35 Q0.4 -21.6 1.55 -22.6 L2.45 -23.4 2.45 -23.95 M0.4 -25.15 Q0.45 -25.1 0.5 -25.0 0.65 -24.9 0.8 -25.0 L1.0 -25.15 1.2 -25.35 1.45 -25.4 Q1.55 -25.45 1.6 -25.5 L1.55 -25.65 Q1.4 -26.0 0.85 -25.7 0.25 -25.5 0.4 -25.15 M-1.2 -27.65 L-1.25 -27.75 Q-1.4 -28.1 -2.1 -28.05 -2.8 -28.05 -2.6 -27.6 -2.45 -27.35 -2.15 -27.4 L-1.3 -27.5 -1.2 -27.55 -1.2 -27.65 M-1.7 -21.0 L-2.8 -21.85 -3.0 -21.4 Q-3.4 -20.7 -3.45 -20.65 -3.75 -20.55 -4.0 -20.75 L-4.25 -21.0 Q-4.4 -21.3 -4.05 -21.9 -3.9 -22.25 -3.7 -22.5 L-3.8 -22.6 Q-5.05 -23.5 -5.85 -24.05 -6.1 -23.75 -6.2 -23.4 -6.3 -22.95 -6.6 -22.8 L-7.15 -22.8 Q-7.25 -22.9 -7.3 -23.05 -7.45 -23.4 -7.15 -24.05 L-6.85 -24.55 Q-7.25 -24.75 -7.4 -24.65 L-7.8 -24.45 -7.85 -24.35 Q-8.35 -24.05 -8.85 -23.1 -9.15 -22.6 -9.35 -22.0 -9.95 -21.05 -10.3 -20.35 L-10.3 -20.3 -10.45 -20.0 -10.55 -19.45 -10.6 -19.3 -10.0 -18.5 -9.45 -18.15 -9.35 -18.1 -8.75 -17.75 -8.25 -17.45 -8.15 -17.4 -7.9 -17.25 -5.25 -16.2 -4.75 -16.2 Q-4.6 -16.3 -4.2 -16.7 -3.65 -17.35 -2.65 -18.7 L-1.7 -21.0 M-5.75 -24.35 Q-5.05 -25.45 -5.05 -25.4 -5.3 -26.0 -6.15 -24.9 -6.95 -23.9 -7.0 -23.25 L-6.95 -23.15 -6.6 -23.15 Q-6.5 -23.2 -5.75 -24.35 M-1.85 -23.4 Q-1.95 -23.6 -2.35 -23.4 -2.7 -23.2 -3.15 -22.75 -4.2 -21.6 -3.95 -21.15 L-3.85 -20.95 Q-3.7 -20.8 -3.55 -20.9 -3.5 -20.9 -2.7 -22.25 -1.9 -23.5 -1.85 -23.4 M-9.15 -16.5 L-9.3 -15.95 -9.55 -14.85 Q-9.95 -13.0 -9.95 -11.1 L-9.85 -8.95 -9.7 -7.1 Q-9.65 -6.85 -9.6 -6.15 -9.55 -5.45 -9.45 -5.1 -9.05 -3.85 -7.3 -3.55 L-7.2 -3.6 Q-7.15 -3.6 -7.15 -3.75 -7.15 -3.95 -7.3 -5.35 L-7.4 -6.25 -7.55 -12.3 -7.4 -14.1 Q-7.3 -14.5 -7.2 -14.7 L-7.2 -14.95 Q-7.2 -15.5 -7.4 -15.65 L-7.5 -15.7 -7.4 -16.1 -7.85 -16.75 -8.35 -16.9 -8.45 -17.0 -8.9 -17.25 -9.15 -16.5" fill="#111111" fill-rule="evenodd" stroke="none"/>
    <path d="M-10.55 -19.45 L-10.45 -20.0 -10.3 -20.3 -10.3 -20.35 Q-9.95 -21.05 -9.35 -22.0 -9.15 -22.6 -8.85 -23.1 -8.35 -24.05 -7.85 -24.35 L-7.8 -24.45 -7.4 -24.65 Q-7.25 -24.75 -6.85 -24.55 L-7.15 -24.05 Q-7.45 -23.4 -7.3 -23.05 -7.25 -22.9 -7.15 -22.8 L-6.6 -22.8 Q-6.3 -22.95 -6.2 -23.4 -6.1 -23.75 -5.85 -24.05 -5.05 -23.5 -3.8 -22.6 L-3.7 -22.5 Q-3.9 -22.25 -4.05 -21.9 -4.4 -21.3 -4.25 -21.0 L-4.0 -20.75 Q-3.75 -20.55 -3.45 -20.65 -3.4 -20.7 -3.0 -21.4 L-2.8 -21.85 -1.7 -21.0 Q-2.35 -20.4 -3.3 -19.1 L-4.75 -17.0 -5.65 -17.35 Q-7.5 -18.05 -7.55 -18.1 -9.35 -19.0 -10.15 -19.3 L-10.55 -19.45" fill="#a2b2bf" fill-rule="evenodd" stroke="none"/>
    <path d="M-10.55 -19.45 L-10.15 -19.3 Q-9.35 -19.0 -7.55 -18.1 -7.5 -18.05 -5.65 -17.35 L-4.75 -17.0 -3.3 -19.1 Q-2.35 -20.4 -1.7 -21.0 L-2.65 -18.7 Q-3.65 -17.35 -4.2 -16.7 -4.6 -16.3 -4.75 -16.2 L-5.25 -16.2 -7.9 -17.25 -8.15 -17.4 -8.25 -17.45 -8.75 -17.75 -9.35 -18.1 -9.45 -18.15 -10.0 -18.5 -10.6 -19.3 -10.55 -19.45" fill="#6c7680" fill-rule="evenodd" stroke="none"/>
    <path d="M-7.15 -25.5 Q-7.05 -26.0 -6.45 -26.75 L-5.75 -27.5 -5.35 -27.8 -3.95 -28.6 Q-3.65 -28.7 -2.7 -28.1 L-2.75 -28.05 Q-2.9 -27.85 -2.8 -27.6 -2.7 -27.4 -2.5 -27.3 L-1.8 -27.3 -1.65 -27.35 -0.6 -26.55 0.3 -25.75 0.3 -25.7 Q0.1 -25.4 0.2 -25.2 0.3 -25.05 0.4 -24.95 0.65 -24.7 0.95 -24.85 L1.2 -25.0 1.25 -24.95 1.85 -24.45 2.0 -24.35 2.45 -23.95 -0.7 -21.85 -2.0 -22.7 -1.6 -23.05 Q-1.3 -23.2 -1.45 -23.5 -1.65 -24.0 -2.2 -23.85 -2.6 -23.7 -3.05 -23.3 L-4.25 -24.0 -5.3 -24.6 -4.7 -25.0 Q-4.45 -25.25 -4.6 -25.55 -4.85 -26.05 -5.35 -25.9 -5.85 -25.75 -6.35 -25.2 L-6.4 -25.15 -7.15 -25.5 M-1.85 -23.4 Q-1.9 -23.5 -2.7 -22.25 -3.5 -20.9 -3.55 -20.9 -3.7 -20.8 -3.85 -20.95 L-3.95 -21.15 Q-4.2 -21.6 -3.15 -22.75 -2.7 -23.2 -2.35 -23.4 -1.95 -23.6 -1.85 -23.4 M-5.75 -24.35 Q-6.5 -23.2 -6.6 -23.15 L-6.95 -23.15 -7.0 -23.25 Q-6.95 -23.9 -6.15 -24.9 -5.3 -26.0 -5.05 -25.4 -5.05 -25.45 -5.75 -24.35" fill="#636c75" fill-rule="evenodd" stroke="none"/>
    <path d="M2.15 -22.45 L4.15 -20.3 0.85 -16.85 3.55 -18.5 Q3.95 -17.05 5.65 -14.95 L9.75 -7.9 9.15 -7.5 Q9.4 -7.15 9.4 -7.05 9.4 -6.35 9.15 -5.5 8.8 -4.2 8.05 -3.15 5.9 -0.2 1.2 -0.2 -2.45 -0.2 -4.75 -1.95 -5.35 -2.4 -6.05 -3.2 -6.4 -3.55 -6.55 -3.7 L-7.0 -5.95 -6.9 -13.6 -6.6 -14.95 -6.6 -15.1 -6.15 -15.95 Q-5.3 -15.75 -4.35 -15.7 L-3.85 -16.55 -2.7 -18.25 -0.45 -20.45 1.6 -22.1 Q1.6 -22.55 2.15 -22.45" fill="#8c8c8c" fill-rule="evenodd" stroke="none"/>
    <path d="M-9.55 -14.85 L-9.3 -15.95 -9.15 -16.5 Q-8.6 -16.05 -7.55 -15.2 L-7.2 -14.95 -7.2 -14.7 Q-7.3 -14.5 -7.4 -14.1 L-7.55 -12.3 -8.8 -13.55 Q-8.95 -13.7 -9.55 -14.85" fill="#404040" fill-rule="evenodd" stroke="none"/>
    <path d="M-9.15 -16.5 L-8.9 -17.25 -8.45 -17.0 -8.35 -16.9 -7.85 -16.75 -7.4 -16.1 -7.5 -15.7 -7.4 -15.65 Q-7.2 -15.5 -7.2 -14.95 L-7.55 -15.2 Q-8.6 -16.05 -9.15 -16.5 M-7.55 -12.3 L-7.4 -6.25 -7.3 -5.35 Q-7.15 -3.95 -7.15 -3.75 -7.15 -3.6 -7.2 -3.6 L-7.3 -3.55 Q-9.05 -3.85 -9.45 -5.1 -9.55 -5.45 -9.6 -6.15 -9.65 -6.85 -9.7 -7.1 L-9.85 -8.95 -9.95 -11.1 Q-9.95 -13.0 -9.55 -14.85 -8.95 -13.7 -8.8 -13.55 L-7.55 -12.3" fill="#262626" fill-rule="evenodd" stroke="none"/>
    <path d="M-9.05 -23.4 L-9.15 -24.25 -9.3 -26.0 Q-9.35 -26.15 -9.6 -26.3 -9.85 -26.4 -9.9 -26.5 -9.95 -26.7 -9.8 -26.85 L-9.75 -26.85 Q-9.3 -26.75 -8.5 -26.8 L-8.5 -26.85 -7.65 -26.85 -6.75 -26.9 -6.9 -26.75 -7.55 -25.95 -7.55 -25.9 -7.7 -25.7 -7.6 -25.4 -7.6 -25.3 Q-7.65 -25.25 -7.75 -25.2 L-7.9 -25.15 -7.95 -25.15 Q-8.2 -24.6 -9.05 -23.4" fill="#cccccc" fill-rule="evenodd" stroke="none"/>
    <path d="M-7.15 -25.5 L-6.4 -25.15 -6.6 -24.9 -6.95 -25.1 -7.0 -25.15 -7.0 -25.2 -7.05 -25.35 -7.15 -25.5 M-5.3 -24.6 L-4.25 -24.0 -3.05 -23.3 -3.25 -23.1 -3.5 -22.8 -5.75 -24.2 -5.6 -24.3 -5.3 -24.6 M-2.0 -22.7 L-0.7 -21.85 2.45 -23.95 2.45 -23.4 1.55 -22.6 Q0.4 -21.6 -0.05 -21.35 L-1.15 -21.35 -2.55 -22.25 -2.4 -22.4 -2.0 -22.7 M0.4 -25.15 Q0.25 -25.5 0.85 -25.7 1.4 -26.0 1.55 -25.65 L1.6 -25.5 Q1.55 -25.45 1.45 -25.4 L1.2 -25.35 1.0 -25.15 0.8 -25.0 Q0.65 -24.9 0.5 -25.0 0.45 -25.1 0.4 -25.15 M-1.2 -27.65 L-1.2 -27.55 -1.3 -27.5 -2.15 -27.4 Q-2.45 -27.35 -2.6 -27.6 -2.8 -28.05 -2.1 -28.05 -1.4 -28.1 -1.25 -27.75 L-1.2 -27.65" fill="#4b5259" fill-rule="evenodd" stroke="none"/>
    <path d="M16.6 -22.6 L16.7 -22.6 16.65 -22.55 16.6 -22.6 M7.3 -16.0 L6.25 -17.55 Q5.9 -17.55 5.75 -17.9 5.7 -18.05 5.7 -18.25 5.7 -18.45 6.0 -18.65 L6.05 -18.7 5.5 -19.9 4.85 -21.2 4.7 -21.2 Q4.2 -21.2 4.0 -21.5 3.85 -21.65 3.85 -21.9 3.85 -22.2 4.1 -22.35 L4.15 -22.4 Q3.55 -23.4 3.2 -23.4 L1.45 -23.25 0.95 -23.2 Q0.35 -22.95 -0.05 -22.75 -1.0 -22.3 -1.3 -21.85 L-1.3 -21.45 -1.35 -21.4 -1.3 -21.4 -1.1 -21.0 -0.75 -21.15 -0.7 -21.2 Q0.05 -21.5 0.6 -21.4 1.15 -21.35 1.15 -20.75 1.15 -20.4 0.8 -20.25 L0.05 -20.1 -0.55 -19.95 1.05 -17.55 1.4 -17.75 1.7 -17.85 Q2.3 -18.05 2.7 -18.0 3.3 -17.9 3.3 -17.3 3.3 -17.0 2.95 -16.9 L2.4 -16.8 1.85 -16.65 1.7 -16.6 2.65 -15.1 7.3 -16.0 M4.0 -23.5 Q4.15 -23.05 4.25 -22.85 4.35 -22.65 4.45 -22.45 L5.0 -22.45 Q5.6 -22.4 5.7 -21.8 5.8 -21.6 5.8 -21.25 5.8 -20.9 5.55 -20.85 L6.5 -19.1 6.6 -18.9 Q7.15 -18.95 7.35 -18.75 7.55 -18.8 7.55 -18.05 L7.55 -17.7 7.3 -14.75 7.0 -14.7 6.95 -14.75 6.35 -14.7 -2.15 -11.65 -3.15 -11.05 -6.45 -14.2 -7.25 -15.25 Q-7.3 -15.55 -7.4 -15.65 L-7.5 -15.7 Q-8.0 -16.6 -8.05 -17.2 L-8.1 -17.25 -8.1 -17.5 Q-7.9 -17.85 -6.55 -18.75 -5.4 -19.85 -5.0 -20.1 L-4.65 -20.4 -4.1 -20.7 Q-2.75 -21.45 -2.25 -21.85 L-2.05 -21.85 Q-1.95 -21.85 -1.85 -21.9 L-1.8 -21.95 Q-1.8 -22.05 -1.8 -22.3 L-1.55 -22.45 -1.5 -22.45 -0.55 -22.95 Q1.0 -23.7 1.4 -23.8 2.4 -24.1 3.1 -24.0 3.85 -23.95 4.0 -23.5 M5.4 -21.25 L5.4 -21.35 Q5.4 -21.75 4.75 -22.05 4.05 -22.35 4.05 -21.85 4.05 -21.5 4.4 -21.4 L5.25 -21.15 5.35 -21.2 5.4 -21.25 M1.55 -16.65 Q2.85 -17.55 2.85 -17.4 2.85 -17.7 2.4 -17.65 1.95 -17.6 1.35 -17.35 -0.2 -16.75 -0.2 -16.2 L-0.15 -15.95 Q-0.1 -15.75 0.1 -15.75 0.15 -15.75 1.55 -16.65 M1.95 -15.0 L1.25 -16.3 Q1.05 -16.2 0.85 -16.0 L0.1 -15.45 Q-0.25 -15.45 -0.45 -15.8 L-0.55 -16.15 Q-0.55 -16.5 0.05 -16.95 0.35 -17.2 0.7 -17.4 L0.6 -17.5 Q-0.2 -18.95 -0.75 -19.85 -1.1 -19.65 -1.35 -19.35 -1.65 -18.95 -2.0 -18.95 -2.4 -18.95 -2.55 -19.2 -2.6 -19.35 -2.6 -19.5 -2.6 -19.95 -2.0 -20.45 L-1.45 -20.8 Q-1.8 -21.15 -1.95 -21.15 L-2.45 -21.1 -2.5 -21.05 Q-3.15 -20.95 -4.05 -20.3 -4.55 -19.9 -5.05 -19.45 -6.1 -18.75 -6.7 -18.25 L-6.75 -18.25 -7.0 -17.95 -7.4 -17.5 -7.45 -17.35 -7.35 -16.85 Q-7.3 -16.45 -7.25 -16.35 L-6.9 -15.75 -6.8 -15.6 -6.85 -15.6 -5.95 -14.4 -5.55 -13.85 Q-3.85 -11.75 -3.2 -11.75 L1.95 -15.0 M5.9 -17.9 Q6.0 -17.75 6.2 -17.75 6.3 -17.75 6.45 -17.85 6.6 -17.9 6.7 -17.9 L7.2 -17.9 7.2 -18.05 Q7.2 -18.45 6.55 -18.45 5.85 -18.5 5.85 -18.1 5.85 -18.0 5.9 -17.9 M-2.2 -19.6 L-2.2 -19.5 -2.1 -19.4 Q-2.0 -19.35 -1.85 -19.35 -1.7 -19.35 -0.5 -20.1 0.7 -20.85 0.7 -20.8 0.7 -21.5 -0.6 -20.85 -1.85 -20.2 -2.2 -19.6" fill="#111111" fill-rule="evenodd" stroke="none"/>
    <path d="M-7.4 -17.5 L-7.0 -17.95 -6.75 -18.25 -6.7 -18.25 Q-6.1 -18.75 -5.05 -19.45 -4.55 -19.9 -4.05 -20.3 -3.15 -20.95 -2.5 -21.05 L-2.45 -21.1 -1.95 -21.15 Q-1.8 -21.15 -1.45 -20.8 L-2.0 -20.45 Q-2.6 -19.95 -2.6 -19.5 -2.6 -19.35 -2.55 -19.2 -2.4 -18.95 -2.0 -18.95 -1.65 -18.95 -1.35 -19.35 -1.1 -19.65 -0.75 -19.85 -0.2 -18.95 0.6 -17.5 L0.7 -17.4 Q0.35 -17.2 0.05 -16.95 -0.55 -16.5 -0.55 -16.15 L-0.45 -15.8 Q-0.25 -15.45 0.1 -15.45 L0.85 -16.0 Q1.05 -16.2 1.25 -16.3 L1.95 -15.0 -2.85 -12.5 -3.55 -13.25 -5.1 -14.8 Q-6.4 -16.5 -7.05 -17.2 L-7.4 -17.5" fill="#a2b2bf" fill-rule="evenodd" stroke="none"/>
    <path d="M-7.4 -17.5 L-7.05 -17.2 Q-6.4 -16.5 -5.1 -14.8 L-3.55 -13.25 -2.85 -12.5 1.95 -15.0 -3.2 -11.75 Q-3.85 -11.75 -5.55 -13.85 L-5.95 -14.4 -6.85 -15.6 -6.8 -15.6 -6.9 -15.75 -7.25 -16.35 Q-7.3 -16.45 -7.35 -16.85 L-7.45 -17.35 -7.4 -17.5" fill="#6c7680" fill-rule="evenodd" stroke="none"/>
    <path d="M-1.3 -21.85 Q-1.0 -22.3 -0.05 -22.75 0.35 -22.95 0.95 -23.2 L1.45 -23.25 3.2 -23.4 Q3.55 -23.4 4.15 -22.4 L4.1 -22.35 Q3.85 -22.2 3.85 -21.9 3.85 -21.65 4.0 -21.5 4.2 -21.2 4.7 -21.2 L4.85 -21.2 5.5 -19.9 6.05 -18.7 6.0 -18.65 Q5.7 -18.45 5.7 -18.25 5.7 -18.05 5.75 -17.9 5.9 -17.55 6.25 -17.55 L7.3 -16.0 3.3 -15.4 2.4 -16.8 2.95 -16.9 Q3.3 -17.0 3.3 -17.3 3.3 -17.9 2.7 -18.0 2.3 -18.05 1.7 -17.85 L0.8 -19.1 0.05 -20.1 0.8 -20.25 Q1.15 -20.4 1.15 -20.75 1.15 -21.35 0.6 -21.4 0.05 -21.5 -0.7 -21.2 L-0.75 -21.15 -1.3 -21.85 M1.55 -16.65 Q0.15 -15.75 0.1 -15.75 -0.1 -15.75 -0.15 -15.95 L-0.2 -16.2 Q-0.2 -16.75 1.35 -17.35 1.95 -17.6 2.4 -17.65 2.85 -17.7 2.85 -17.4 2.85 -17.55 1.55 -16.65 M-2.2 -19.6 Q-1.85 -20.2 -0.6 -20.85 0.7 -21.5 0.7 -20.8 0.7 -20.85 -0.5 -20.1 -1.7 -19.35 -1.85 -19.35 -2.0 -19.35 -2.1 -19.4 L-2.2 -19.5 -2.2 -19.6" fill="#636c75" fill-rule="evenodd" stroke="none"/>
    <path d="M-1.3 -21.85 L-0.75 -21.15 -1.1 -21.0 -1.3 -21.4 -1.35 -21.4 -1.3 -21.45 -1.3 -21.85 M0.05 -20.1 L0.8 -19.1 1.7 -17.85 1.4 -17.75 1.05 -17.55 -0.55 -19.95 0.05 -20.1 M2.4 -16.8 L3.3 -15.4 7.3 -16.0 2.65 -15.1 1.7 -16.6 1.85 -16.65 2.4 -16.8 M5.4 -21.25 L5.35 -21.2 5.25 -21.15 4.4 -21.4 Q4.05 -21.5 4.05 -21.85 4.05 -22.35 4.75 -22.05 5.4 -21.75 5.4 -21.35 L5.4 -21.25 M5.9 -17.9 Q5.85 -18.0 5.85 -18.1 5.85 -18.5 6.55 -18.45 7.2 -18.45 7.2 -18.05 L7.2 -17.9 6.7 -17.9 Q6.6 -17.9 6.45 -17.85 6.3 -17.75 6.2 -17.75 6.0 -17.75 5.9 -17.9" fill="#4b5259" fill-rule="evenodd" stroke="none"/>
    <path d="M2.5 -16.1 L2.7 -16.15 2.8 -16.2 2.85 -16.55 3.1 -16.65 3.15 -16.7 4.25 -17.1 Q6.0 -17.7 6.4 -17.75 7.5 -17.9 8.2 -17.75 9.0 -17.55 9.05 -17.1 L9.25 -16.35 Q9.35 -16.15 9.45 -15.9 L9.65 -15.9 9.75 -15.85 10.0 -15.85 Q10.65 -15.7 10.7 -15.05 10.75 -14.85 10.7 -14.5 10.65 -14.1 10.35 -14.1 L11.15 -12.15 11.25 -11.9 Q11.8 -11.9 12.0 -11.65 12.25 -11.65 12.15 -10.9 L12.05 -10.55 Q12.0 -10.3 11.8 -10.3 12.05 -10.0 12.2 -9.4 L12.4 -8.75 12.2 -8.4 11.6 -7.6 11.45 -7.45 11.1 -7.45 11.05 -7.5 10.45 -7.5 6.7 -7.15 6.5 -7.15 6.4 -7.45 Q6.25 -7.35 6.1 -7.05 5.75 -6.9 5.15 -6.8 3.6 -6.5 3.2 -6.35 L1.1 -5.4 0.0 -4.9 0.0 -4.85 -0.2 -4.75 -0.45 -4.6 Q-0.75 -4.75 -1.25 -5.6 L-1.75 -6.3 -3.1 -8.6 -4.4 -12.3 Q-4.15 -12.65 -2.65 -13.45 -1.3 -14.45 -0.8 -14.7 L-0.4 -14.9 0.2 -15.15 Q1.75 -15.75 2.3 -16.15 L2.35 -16.15 Q2.35 -16.1 2.5 -16.1 M5.85 -8.4 L5.3 -9.9 4.8 -9.6 3.95 -9.15 Q3.6 -9.2 3.45 -9.55 L3.4 -9.95 Q3.4 -10.3 4.1 -10.7 4.45 -10.9 4.8 -11.05 L4.75 -11.2 Q4.1 -12.85 3.65 -13.85 3.25 -13.7 2.95 -13.4 2.55 -13.05 2.2 -13.1 1.8 -13.15 1.7 -13.4 1.65 -13.55 1.65 -13.75 1.7 -14.15 2.4 -14.6 2.65 -14.8 3.0 -14.95 2.7 -15.35 2.55 -15.4 2.3 -15.4 2.0 -15.4 L1.9 -15.35 Q1.25 -15.3 0.2 -14.75 L-0.95 -13.95 Q-2.15 -13.4 -2.85 -12.95 L-2.9 -12.9 -3.2 -12.65 -3.65 -12.2 -3.75 -12.1 -3.7 -11.55 -2.2 -8.15 Q-0.65 -5.7 0.0 -5.65 0.25 -5.6 0.85 -5.8 1.75 -6.05 3.5 -6.75 L5.65 -7.65 5.65 -7.75 Q5.7 -8.15 5.75 -8.2 L5.85 -8.4 M3.8 -15.25 L3.85 -15.25 Q4.7 -15.45 5.25 -15.35 5.85 -15.15 5.75 -14.55 5.75 -14.15 5.3 -14.1 L4.55 -14.0 4.05 -13.95 3.85 -13.9 5.2 -11.25 5.6 -11.35 5.95 -11.4 7.05 -11.45 Q7.65 -11.3 7.6 -10.65 7.55 -10.3 7.15 -10.3 L6.55 -10.25 5.95 -10.15 5.8 -10.1 6.6 -8.45 Q6.85 -7.8 6.85 -7.7 L7.65 -7.8 Q8.2 -7.7 9.95 -8.0 L11.3 -8.25 11.6 -8.65 11.6 -8.8 11.4 -9.4 11.35 -9.6 11.05 -10.45 11.0 -10.55 10.75 -10.55 Q10.35 -10.6 10.25 -10.95 10.15 -11.1 10.2 -11.3 10.25 -11.55 10.55 -11.75 L10.6 -11.75 10.2 -13.1 9.7 -14.55 9.5 -14.55 Q9.0 -14.6 8.8 -14.95 8.7 -15.15 8.75 -15.4 8.75 -15.75 9.05 -15.85 L9.15 -15.9 Q8.6 -17.05 8.2 -17.05 L6.4 -17.15 5.85 -17.15 4.7 -16.8 Q3.7 -16.45 3.3 -16.0 L3.3 -15.8 3.25 -15.65 3.25 -15.6 3.2 -15.55 3.25 -15.55 3.45 -15.1 3.8 -15.25 M5.25 -14.65 Q5.35 -15.4 3.9 -14.85 2.5 -14.35 2.05 -13.75 L2.15 -13.55 Q2.25 -13.45 2.4 -13.45 2.55 -13.4 3.95 -14.1 5.25 -14.7 5.25 -14.65 M10.35 -11.15 Q10.35 -11.05 10.4 -10.95 10.45 -10.75 10.65 -10.75 L11.25 -10.85 11.55 -10.8 11.7 -10.8 11.75 -10.75 11.75 -10.95 Q11.8 -11.35 11.1 -11.45 10.4 -11.55 10.35 -11.15 M8.95 -15.3 Q8.9 -14.95 9.25 -14.85 9.95 -14.55 10.1 -14.45 L10.25 -14.45 10.3 -14.5 10.3 -14.65 Q10.35 -15.1 9.7 -15.45 9.0 -15.85 8.95 -15.3 M7.1 -10.85 Q7.15 -11.1 6.65 -11.1 6.2 -11.15 5.5 -10.95 3.8 -10.5 3.75 -9.95 3.75 -9.8 3.75 -9.65 3.8 -9.45 4.0 -9.4 4.05 -9.4 5.65 -10.2 7.15 -10.95 7.1 -10.85" fill="#111111" fill-rule="evenodd" stroke="none"/>
    <path d="M4.55 -14.0 L5.3 -14.1 Q5.75 -14.15 5.75 -14.55 5.85 -15.15 5.25 -15.35 4.7 -15.45 3.85 -15.25 L3.8 -15.25 3.3 -16.0 Q3.7 -16.45 4.7 -16.8 L5.85 -17.15 6.4 -17.15 8.2 -17.05 Q8.6 -17.05 9.15 -15.9 L9.05 -15.85 Q8.75 -15.75 8.75 -15.4 8.7 -15.15 8.8 -14.95 9.0 -14.6 9.5 -14.55 L9.7 -14.55 10.2 -13.1 10.6 -11.75 10.55 -11.75 Q10.25 -11.55 10.2 -11.3 10.15 -11.1 10.25 -10.95 10.35 -10.6 10.75 -10.55 L11.0 -10.55 11.05 -10.45 11.35 -9.6 11.4 -9.4 11.6 -8.8 9.5 -8.9 Q8.3 -8.85 7.35 -8.65 L6.55 -10.25 7.15 -10.3 Q7.55 -10.3 7.6 -10.65 7.65 -11.3 7.05 -11.45 L5.95 -11.4 5.2 -12.85 4.55 -14.0 M5.25 -14.65 Q5.25 -14.7 3.95 -14.1 2.55 -13.4 2.4 -13.45 2.25 -13.45 2.15 -13.55 L2.05 -13.75 Q2.5 -14.35 3.9 -14.85 5.35 -15.4 5.25 -14.65 M7.1 -10.85 Q7.15 -10.95 5.65 -10.2 4.05 -9.4 4.0 -9.4 3.8 -9.45 3.75 -9.65 3.75 -9.8 3.75 -9.95 3.8 -10.5 5.5 -10.95 6.2 -11.15 6.65 -11.1 7.15 -11.1 7.1 -10.85" fill="#636c75" fill-rule="evenodd" stroke="none"/>
    <path d="M-3.65 -12.2 L-3.2 -12.65 -2.9 -12.9 -2.85 -12.95 Q-2.15 -13.4 -0.95 -13.95 L0.2 -14.75 Q1.25 -15.3 1.9 -15.35 L2.0 -15.4 Q2.3 -15.4 2.55 -15.4 2.7 -15.35 3.0 -14.95 2.65 -14.8 2.4 -14.6 1.7 -14.15 1.65 -13.75 1.65 -13.55 1.7 -13.4 1.8 -13.15 2.2 -13.1 2.55 -13.05 2.95 -13.4 3.25 -13.7 3.65 -13.85 4.1 -12.85 4.75 -11.2 L4.8 -11.05 Q4.45 -10.9 4.1 -10.7 3.4 -10.3 3.4 -9.95 L3.45 -9.55 Q3.6 -9.2 3.95 -9.15 L4.8 -9.6 5.3 -9.9 5.85 -8.4 Q4.85 -8.25 3.15 -7.55 1.8 -7.05 0.45 -6.4 L-0.15 -7.25 -1.6 -9.1 Q-2.75 -11.05 -3.35 -11.85 L-3.65 -12.2" fill="#a2b2bf" fill-rule="evenodd" stroke="none"/>
    <path d="M-3.65 -12.2 L-3.35 -11.85 Q-2.75 -11.05 -1.6 -9.1 L-0.15 -7.25 0.45 -6.4 Q1.8 -7.05 3.15 -7.55 4.85 -8.25 5.85 -8.4 L5.75 -8.2 Q5.7 -8.15 5.65 -7.75 L5.65 -7.65 3.5 -6.75 Q1.75 -6.05 0.85 -5.8 0.25 -5.6 0.0 -5.65 -0.65 -5.7 -2.2 -8.15 L-3.7 -11.55 -3.75 -12.1 -3.65 -12.2" fill="#6c7680" fill-rule="evenodd" stroke="none"/>
    <path d="M3.8 -15.25 L3.45 -15.1 3.25 -15.55 3.2 -15.55 3.25 -15.6 3.25 -15.65 3.3 -15.8 3.3 -16.0 3.8 -15.25 M11.6 -8.8 L11.6 -8.65 11.3 -8.25 9.95 -8.0 Q8.2 -7.7 7.65 -7.8 L6.85 -7.7 Q6.85 -7.8 6.6 -8.45 L5.8 -10.1 5.95 -10.15 6.55 -10.25 7.35 -8.65 Q8.3 -8.85 9.5 -8.9 L11.6 -8.8 M5.95 -11.4 L5.6 -11.35 5.2 -11.25 3.85 -13.9 4.05 -13.95 4.55 -14.0 5.2 -12.85 5.95 -11.4 M8.95 -15.3 Q9.0 -15.85 9.7 -15.45 10.35 -15.1 10.3 -14.65 L10.3 -14.5 10.25 -14.45 10.1 -14.45 Q9.95 -14.55 9.25 -14.85 8.9 -14.95 8.95 -15.3 M10.35 -11.15 Q10.4 -11.55 11.1 -11.45 11.8 -11.35 11.75 -10.95 L11.75 -10.75 11.7 -10.8 11.55 -10.8 11.25 -10.85 10.65 -10.75 Q10.45 -10.75 10.4 -10.95 10.35 -11.05 10.35 -11.15" fill="#4b5259" fill-rule="evenodd" stroke="none"/>
    <path d="M-5.35 -14.7 L-5.3 -14.6 -4.8 -15.0 Q-4.0 -15.55 -3.45 -15.6 -2.8 -15.65 -2.8 -15.0 -2.8 -14.55 -3.55 -14.2 -4.45 -13.8 -4.8 -13.55 L-4.75 -13.5 -4.25 -12.9 -3.55 -11.75 -2.85 -10.7 -2.45 -10.9 Q-1.65 -11.4 -1.1 -11.45 -0.5 -11.5 -0.5 -10.95 -0.5 -10.65 -0.85 -10.45 -1.55 -10.15 -2.25 -9.8 L-2.1 -9.5 Q-2.1 -9.4 -1.7 -8.9 -1.3 -8.4 -1.3 -8.25 L-1.3 -8.2 -1.25 -8.15 -1.3 -8.1 Q-1.3 -7.5 -1.4 -7.2 -1.5 -6.95 -1.75 -6.85 L-2.0 -6.75 Q-2.45 -6.35 -3.05 -5.85 L-4.7 -4.55 -5.5 -3.75 -5.55 -3.8 -5.7 -3.75 Q-5.9 -3.75 -6.3 -4.3 L-6.6 -4.75 Q-7.25 -5.35 -8.2 -6.6 -9.5 -8.4 -10.1 -9.65 L-10.1 -10.5 Q-10.15 -10.9 -10.25 -11.35 L-9.4 -12.4 -8.95 -12.85 Q-8.65 -13.2 -8.05 -13.75 L-6.9 -14.8 Q-6.2 -15.35 -5.8 -15.4 L-5.75 -15.4 -5.4 -14.85 -5.4 -14.6 -5.35 -14.65 -5.35 -14.7 M-1.95 -8.2 Q-2.05 -8.85 -2.4 -9.4 L-2.55 -9.6 -3.2 -9.05 Q-3.8 -8.5 -3.85 -8.5 -4.2 -8.5 -4.35 -8.8 -4.45 -8.95 -4.45 -9.1 -4.45 -9.4 -3.8 -9.95 -3.55 -10.2 -3.2 -10.45 -3.55 -10.9 -3.8 -11.35 L-4.4 -12.45 -5.05 -13.35 -5.55 -12.5 Q-5.95 -11.8 -6.25 -11.8 -6.6 -11.8 -6.75 -12.05 -6.8 -12.2 -6.8 -12.35 -6.8 -12.95 -6.2 -13.75 L-5.6 -14.35 -5.7 -14.5 Q-5.9 -14.7 -6.0 -14.7 -6.45 -14.7 -7.5 -13.8 -7.9 -13.35 -8.65 -12.55 -9.5 -11.75 -9.75 -11.2 L-9.7 -11.1 -9.65 -10.75 Q-9.55 -10.25 -9.55 -10.0 L-9.55 -9.95 Q-9.05 -9.0 -7.8 -7.25 -6.65 -5.65 -6.0 -4.85 L-5.55 -4.45 -5.45 -4.55 -5.1 -4.8 -5.0 -4.85 Q-1.9 -7.4 -1.9 -7.7 L-1.95 -8.2 M-1.3 -11.1 Q-1.75 -11.0 -2.45 -10.65 -3.15 -10.3 -3.6 -9.9 -4.15 -9.45 -4.15 -9.2 L-4.1 -9.0 Q-4.05 -8.9 -3.85 -8.9 L-2.6 -9.7 -1.4 -10.55 -0.9 -10.55 Q-0.75 -10.6 -0.75 -10.85 -0.75 -11.2 -1.3 -11.1 M-4.15 -14.2 Q-3.25 -15.0 -3.25 -14.85 -3.25 -15.25 -3.7 -15.15 -4.15 -15.1 -4.8 -14.65 -5.45 -14.25 -5.9 -13.75 -6.35 -13.15 -6.35 -12.65 -6.35 -12.5 -6.3 -12.45 L-6.15 -12.35 Q-5.1 -13.45 -4.15 -14.2" fill="#111111" fill-rule="evenodd" stroke="none"/>
    <path d="M-9.7 -11.1 L-9.75 -11.2 Q-9.5 -11.75 -8.65 -12.55 -7.9 -13.35 -7.5 -13.8 -6.45 -14.7 -6.0 -14.7 -5.9 -14.7 -5.7 -14.5 L-5.6 -14.35 -6.2 -13.75 Q-6.8 -12.95 -6.8 -12.35 -6.8 -12.2 -6.75 -12.05 -6.6 -11.8 -6.25 -11.8 -5.95 -11.8 -5.55 -12.5 L-5.05 -13.35 -4.4 -12.45 -3.8 -11.35 Q-3.55 -10.9 -3.2 -10.45 -3.55 -10.2 -3.8 -9.95 -4.45 -9.4 -4.45 -9.1 -4.45 -8.95 -4.35 -8.8 -4.2 -8.5 -3.85 -8.5 -3.8 -8.5 -3.2 -9.05 L-2.55 -9.6 -2.4 -9.4 Q-2.05 -8.85 -1.95 -8.2 L-3.4 -7.05 -5.45 -5.4 -6.1 -6.15 Q-6.05 -6.4 -6.0 -6.75 -5.9 -7.25 -5.9 -7.9 -6.2 -7.7 -6.5 -7.0 L-6.6 -6.8 -7.4 -7.8 -9.5 -10.85 -9.7 -11.1 M-6.55 -9.8 L-6.5 -9.85 Q-6.6 -10.25 -7.15 -10.45 -7.7 -10.7 -8.0 -10.5 -7.8 -10.1 -7.65 -9.95 -7.4 -9.8 -6.7 -9.8 L-6.55 -9.8 M-5.6 -9.45 L-5.5 -9.6 Q-5.6 -9.75 -5.75 -9.85 L-6.0 -9.85 -6.05 -9.6 Q-6.05 -9.55 -6.0 -9.4 -6.0 -9.35 -5.8 -9.35 -5.65 -9.35 -5.6 -9.45" fill="#a2b2bf" fill-rule="evenodd" stroke="none"/>
    <path d="M3.0 -11.2 Q2.95 -11.15 2.85 -11.15 L2.65 -11.2 2.6 -11.2 2.6 -11.3 Q2.6 -11.55 2.6 -11.45 L2.85 -11.45 Q3.0 -11.45 3.1 -11.35 L3.1 -11.3 3.0 -11.2 M0.25 -11.7 Q0.2 -11.65 0.05 -11.65 -0.15 -11.65 -0.2 -11.7 L-0.25 -11.75 Q-0.3 -11.8 -0.3 -11.9 -0.3 -12.15 -0.25 -12.1 -0.1 -12.15 0.0 -12.1 L0.3 -11.85 0.25 -11.7 M-5.0 -22.4 L-4.95 -22.3 -5.0 -22.1 -5.1 -22.05 -5.3 -22.05 Q-5.5 -22.05 -5.6 -22.15 L-5.7 -22.25 Q-5.6 -22.45 -5.5 -22.5 L-5.0 -22.55 -5.0 -22.4 M-7.8 -21.45 L-7.9 -21.35 Q-8.0 -21.3 -8.3 -21.15 L-8.65 -21.35 Q-8.65 -21.5 -8.35 -21.6 L-7.85 -21.6 -7.8 -21.45 M-7.2 -20.8 Q-7.1 -21.0 -6.9 -21.05 L-6.75 -21.1 Q-6.5 -21.1 -6.45 -21.0 -6.5 -20.85 -6.65 -20.75 -6.8 -20.7 -6.95 -20.7 L-7.15 -20.7 -7.2 -20.8 M-5.4 -14.85 L-5.35 -15.1 Q-5.25 -15.35 -5.25 -15.45 -5.25 -15.9 -4.75 -17.15 L-6.15 -16.95 -6.35 -17.05 Q-6.1 -17.35 -4.9 -17.5 L-4.6 -17.55 Q-3.95 -19.05 -3.15 -19.4 -3.95 -17.9 -4.0 -17.6 -3.35 -17.65 -2.6 -17.65 -2.6 -17.6 -2.5 -17.55 L-2.35 -17.5 -4.1 -17.25 Q-4.2 -16.85 -4.6 -16.1 -5.1 -14.95 -5.35 -14.7 L-5.35 -14.65 -5.4 -14.6 -5.4 -14.85 M-9.7 -11.1 L-9.5 -10.85 -7.4 -7.8 -6.6 -6.8 -6.5 -7.0 Q-6.2 -7.7 -5.9 -7.9 -5.9 -7.25 -6.0 -6.75 -6.05 -6.4 -6.1 -6.15 L-5.45 -5.4 -3.4 -7.05 -1.95 -8.2 -1.9 -7.7 Q-1.9 -7.4 -5.0 -4.85 L-5.1 -4.8 -5.45 -4.55 -5.55 -4.45 -6.0 -4.85 Q-6.65 -5.65 -7.8 -7.25 -9.05 -9.0 -9.55 -9.95 L-9.55 -10.0 Q-9.55 -10.25 -9.65 -10.75 L-9.7 -11.1 M-5.6 -9.45 Q-5.65 -9.35 -5.8 -9.35 -6.0 -9.35 -6.0 -9.4 -6.05 -9.55 -6.05 -9.6 L-6.0 -9.85 -5.75 -9.85 Q-5.6 -9.75 -5.5 -9.6 L-5.6 -9.45 M-6.55 -9.8 L-6.7 -9.8 Q-7.4 -9.8 -7.65 -9.95 -7.8 -10.1 -8.0 -10.5 -7.7 -10.7 -7.15 -10.45 -6.6 -10.25 -6.5 -9.85 L-6.55 -9.8" fill="#6c7680" fill-rule="evenodd" stroke="none"/>
    <path d="M-4.15 -14.2 Q-5.1 -13.45 -6.15 -12.35 L-6.3 -12.45 Q-6.35 -12.5 -6.35 -12.65 -6.35 -13.15 -5.9 -13.75 -5.45 -14.25 -4.8 -14.65 -4.15 -15.1 -3.7 -15.15 -3.25 -15.25 -3.25 -14.85 -3.25 -15.0 -4.15 -14.2 M-1.3 -11.1 Q-0.75 -11.2 -0.75 -10.85 -0.75 -10.6 -0.9 -10.55 L-1.4 -10.55 -2.6 -9.7 -3.85 -8.9 Q-4.05 -8.9 -4.1 -9.0 L-4.15 -9.2 Q-4.15 -9.45 -3.6 -9.9 -3.15 -10.3 -2.45 -10.65 -1.75 -11.0 -1.3 -11.1" fill="#636c75" fill-rule="evenodd" stroke="none"/>
    <path d="M2.5 -21.75 Q2.3 -21.95 1.6 -22.05 1.05 -22.1 1.05 -22.5 1.05 -23.25 1.75 -22.65 2.3 -22.2 2.55 -21.8 L2.5 -21.75 M4.4 -19.6 L4.35 -19.5 Q4.3 -19.45 4.15 -19.45 L4.0 -19.45 4.0 -19.5 3.9 -19.5 Q3.9 -19.55 3.9 -19.65 L3.9 -19.8 3.95 -19.85 4.1 -19.9 4.35 -19.85 4.4 -19.75 4.4 -19.6 M3.1 -21.0 L2.95 -20.9 Q2.85 -20.85 2.75 -20.85 2.55 -20.85 2.5 -20.9 L2.4 -20.95 2.4 -21.15 Q2.7 -21.2 3.0 -21.15 L3.1 -21.0 M6.7 -14.7 L6.6 -14.75 6.55 -14.7 6.55 -14.85 Q6.55 -15.05 6.55 -15.0 L6.85 -15.0 7.2 -14.95 7.25 -14.85 Q7.15 -14.7 6.9 -14.7 L6.7 -14.7 M9.2 -12.2 Q9.2 -12.35 9.3 -12.4 L9.45 -12.45 Q9.6 -12.3 9.65 -12.15 9.65 -12.1 9.55 -12.05 L9.45 -11.95 9.25 -12.05 Q9.2 -12.1 9.2 -12.2 M8.6 -13.4 L8.55 -13.2 8.45 -13.15 8.25 -13.1 Q7.95 -13.1 7.9 -13.3 7.85 -13.35 7.85 -13.4 7.85 -13.7 8.1 -13.7 8.35 -13.75 8.6 -13.4 M-2.4 -27.05 L-2.55 -26.9 Q-2.65 -26.85 -2.85 -26.85 -2.95 -26.85 -3.15 -26.9 -3.3 -26.95 -3.4 -27.05 L-3.4 -27.15 Q-3.25 -27.25 -2.9 -27.25 -2.6 -27.25 -2.45 -27.15 L-2.4 -27.05 M-2.3 -25.65 L-1.9 -25.65 Q-1.9 -25.6 -1.9 -25.5 -1.9 -25.35 -2.05 -25.25 L-2.4 -25.05 -2.65 -25.3 -2.6 -25.4 -2.3 -25.65" fill="#4b5259" fill-rule="evenodd" stroke="none"/>
  </g>
</svg>
