<?xml version="1.0" encoding="UTF-8" standalone="no"?>
<svg xmlns:ffdec="https://www.free-decompiler.com/flash" xmlns:xlink="http://www.w3.org/1999/xlink" ffdec:objectType="shape" height="32.6px" width="30.05px" xmlns="http://www.w3.org/2000/svg">
  <g transform="matrix(1.0, 0.0, 0.0, 1.0, 17.6, 27.3)">
    <path d="M5.35 -14.05 Q3.5 -17.15 0.5 -20.5 L-0.6 -21.7 -0.6 -21.4 Q-0.6 -20.6 -0.15 -19.8 0.3 -18.95 0.3 -18.55 0.3 -17.85 0.15 -17.35 L0.1 -17.3 0.05 -17.45 0.0 -17.45 Q-0.15 -17.9 -0.4 -18.95 -0.6 -19.6 -0.8 -20.1 L-0.9 -19.65 -0.9 -19.5 Q-0.85 -19.2 -0.9 -18.95 -0.95 -18.5 -1.3 -18.5 -1.9 -18.5 -2.45 -18.85 -3.25 -19.55 -3.85 -20.65 -4.3 -21.55 -5.0 -22.55 L-5.05 -22.55 -5.15 -22.65 -5.2 -22.75 -5.4 -23.05 Q-5.35 -23.55 -5.15 -23.95 -4.95 -24.25 -4.35 -24.8 L-4.8 -24.7 -5.25 -24.5 Q-5.9 -24.2 -6.1 -24.25 L-6.05 -24.35 Q-5.8 -24.65 -5.65 -24.75 -5.4 -24.85 -5.1 -24.9 L-5.0 -24.95 Q-4.55 -25.15 -4.25 -25.15 L-5.45 -25.95 -5.75 -26.25 Q-6.6 -27.1 -6.6 -27.0 -6.6 -27.7 -5.2 -26.85 -4.45 -26.35 -3.55 -25.6 L-3.2 -26.05 -3.05 -26.25 -2.8 -26.6 -2.4 -27.15 -2.45 -27.2 Q-2.2 -27.5 -1.45 -26.9 -0.9 -26.4 -0.5 -25.9 -0.45 -25.75 -0.3 -24.95 -0.15 -24.2 -0.15 -24.0 L-0.45 -22.75 -0.45 -22.7 Q3.8 -18.4 6.6 -13.65 L8.55 -9.85 10.65 -2.9 10.8 -2.15 Q10.4 -1.7 10.25 -1.0 L10.15 -1.4 9.1 -5.15 5.65 -13.55 5.35 -14.05 M-1.0 2.75 L-0.75 3.1 -12.35 -6.3 -1.0 2.75 M-2.3 -26.85 L-2.4 -26.65 -2.65 -26.3 -2.8 -26.05 Q-3.2 -25.45 -3.75 -24.9 -4.3 -24.35 -4.6 -23.65 L-4.9 -22.8 Q-4.7 -22.75 -4.4 -22.4 L-3.75 -21.35 Q-2.7 -19.75 -1.5 -19.05 L-1.4 -19.95 -1.35 -20.05 -1.4 -20.6 Q-1.4 -20.8 -1.05 -22.0 -0.75 -24.0 -0.75 -24.85 -0.75 -25.4 -1.5 -26.25 L-1.85 -26.65 -2.15 -26.9 -2.2 -27.0 -2.3 -26.85 M-4.3 -24.85 L-4.3 -24.85" fill="#000000" fill-rule="evenodd" stroke="none"/>
    <path d="M-5.75 -26.25 L-5.45 -25.95 -4.25 -25.15 Q-4.55 -25.15 -5.0 -24.95 L-5.1 -24.9 Q-5.4 -24.85 -5.65 -24.75 -5.8 -24.65 -6.05 -24.35 L-6.1 -24.25 Q-5.9 -24.2 -5.25 -24.5 L-4.8 -24.7 -4.35 -24.8 Q-4.95 -24.25 -5.15 -23.95 -5.35 -23.55 -5.4 -23.05 L-5.2 -22.75 -5.15 -22.65 -5.05 -22.55 -5.0 -22.55 Q-4.3 -21.55 -3.85 -20.65 -3.25 -19.55 -2.45 -18.85 -1.9 -18.5 -1.3 -18.5 -0.95 -18.5 -0.9 -18.95 -0.85 -19.2 -0.9 -19.5 L-0.9 -19.65 -0.8 -20.1 Q-0.6 -19.6 -0.4 -18.95 -0.15 -17.9 0.0 -17.45 L0.05 -17.45 0.1 -17.3 0.15 -17.35 Q0.3 -17.85 0.3 -18.55 0.3 -18.95 -0.15 -19.8 -0.6 -20.6 -0.6 -21.4 L-0.6 -21.7 0.5 -20.5 Q3.5 -17.15 5.35 -14.05 L5.65 -13.55 9.1 -5.15 10.15 -1.4 10.25 -1.0 10.25 -0.95 Q10.25 0.7 9.95 1.35 9.7 1.95 9.35 2.6 7.25 4.65 4.55 4.65 2.95 4.65 0.9 3.55 L-0.75 3.1 -1.0 2.75 -6.2 -6.55 -8.65 -11.15 Q-8.95 -10.85 -9.4 -10.85 -10.4 -10.85 -10.7 -11.5 L-10.8 -12.2 Q-10.8 -12.9 -10.4 -13.2 L-10.3 -13.25 -10.3 -13.45 Q-10.3 -13.75 -10.15 -13.9 -10.35 -14.0 -10.45 -14.2 -10.5 -14.4 -10.5 -14.55 -10.5 -14.85 -10.3 -15.05 -10.1 -15.25 -9.8 -15.25 -9.55 -15.25 -9.35 -15.1 L-9.45 -15.9 -9.55 -15.9 -9.8 -15.95 -10.0 -16.35 Q-10.0 -16.65 -9.75 -16.8 -9.65 -16.85 -9.55 -16.8 L-9.5 -16.65 -9.65 -17.4 -9.9 -17.35 Q-10.25 -17.35 -10.35 -17.6 -10.4 -17.75 -10.4 -17.8 -10.4 -18.4 -9.85 -18.3 L-10.05 -18.95 Q-10.3 -19.7 -10.45 -20.3 L-10.3 -20.55 -9.45 -22.0 -9.05 -22.6 Q-8.0 -24.2 -6.65 -26.05 L-6.8 -26.25 -6.5 -26.25 Q-6.35 -26.35 -6.05 -26.25 L-5.75 -26.25 M8.55 -9.85 L10.15 -5.15 Q10.6 -3.6 10.85 -2.2 L10.8 -2.15 10.65 -2.9 8.55 -9.85 M-4.3 -24.85 L-4.3 -24.85 M-5.9 -18.15 L-5.8 -18.05 -5.5 -17.8 -5.3 -17.9 -5.15 -17.95 -5.1 -17.95 -5.1 -18.15 Q-5.1 -18.35 -5.15 -18.45 L-5.2 -18.5 Q-5.6 -18.7 -5.8 -18.45 L-5.9 -18.15 M-5.6 -16.35 L-4.95 -15.75 Q-4.7 -15.75 -4.5 -15.95 -4.35 -16.1 -4.35 -16.35 -4.35 -17.0 -4.95 -16.95 -5.6 -16.95 -5.6 -16.35 M-2.25 -17.9 L-2.3 -18.0 Q-3.0 -18.2 -3.0 -17.65 L-2.95 -17.55 -2.6 -17.25 Q-2.5 -17.3 -2.4 -17.35 L-2.3 -17.4 -2.25 -17.4 Q-2.2 -17.45 -2.2 -17.65 -2.2 -17.85 -2.25 -17.9 M-7.15 -16.8 Q-7.25 -16.65 -7.25 -16.5 -7.25 -16.35 -7.15 -16.2 L-7.1 -16.15 -7.05 -16.05 -7.0 -16.05 -6.95 -16.0 Q-6.9 -16.0 -6.85 -15.95 L-6.65 -15.95 Q-6.4 -15.95 -6.2 -16.2 L-6.05 -16.5 Q-6.05 -17.05 -6.65 -17.05 -7.05 -17.05 -7.15 -16.8 M-0.6 -11.4 Q-1.1 -11.85 -1.75 -11.95 -2.45 -12.05 -2.95 -11.6 -3.45 -11.15 -3.45 -10.15 -3.45 -9.65 -3.1 -9.15 -2.5 -8.25 -1.25 -8.25 L-0.6 -11.4 M-2.15 -14.1 Q-2.2 -14.15 -2.2 -13.85 -2.2 -13.65 -2.15 -13.65 L-1.95 -13.65 Q-1.8 -13.65 -1.65 -13.85 -1.7 -13.95 -1.95 -14.1 L-2.15 -14.1 M-9.05 -13.4 L-9.1 -13.3 -9.05 -13.3 -9.05 -13.4 M-9.35 -14.05 Q-9.25 -14.0 -9.2 -13.95 L-9.25 -14.15 -9.35 -14.05" fill="#cccccc" fill-rule="evenodd" stroke="none"/>
    <path d="M-10.45 -20.3 Q-10.3 -19.7 -10.05 -18.95 L-9.85 -18.3 Q-10.4 -18.4 -10.4 -17.8 -10.4 -17.75 -10.35 -17.6 -10.25 -17.35 -9.9 -17.35 L-9.65 -17.4 -9.5 -16.65 -9.55 -16.8 Q-9.65 -16.85 -9.75 -16.8 -10.0 -16.65 -10.0 -16.35 L-9.8 -15.95 -9.55 -15.9 -9.45 -15.9 -9.35 -15.1 Q-9.55 -15.25 -9.8 -15.25 -10.1 -15.25 -10.3 -15.05 -10.5 -14.85 -10.5 -14.55 -10.5 -14.4 -10.45 -14.2 -10.35 -14.0 -10.15 -13.9 -10.3 -13.75 -10.3 -13.45 L-10.3 -13.25 -10.4 -13.2 Q-10.8 -12.9 -10.8 -12.2 L-10.7 -11.5 Q-10.4 -10.85 -9.4 -10.85 -8.95 -10.85 -8.65 -11.15 L-6.2 -6.55 -1.0 2.75 -12.35 -6.3 -12.9 -7.95 -10.85 -19.5 -10.45 -20.3 M5.65 -13.55 L5.35 -14.05 5.65 -13.55 M-5.9 -18.15 L-5.8 -18.45 Q-5.6 -18.7 -5.2 -18.5 L-5.15 -18.45 Q-5.1 -18.35 -5.1 -18.15 L-5.1 -17.95 -5.15 -17.95 -5.3 -17.9 -5.5 -17.8 -5.8 -18.05 -5.9 -18.15 M-7.15 -16.8 Q-7.05 -17.05 -6.65 -17.05 -6.05 -17.05 -6.05 -16.5 L-6.2 -16.2 Q-6.4 -15.95 -6.65 -15.95 L-6.85 -15.95 Q-6.9 -16.0 -6.95 -16.0 L-7.0 -16.05 -7.05 -16.05 -7.1 -16.15 -7.15 -16.2 Q-7.25 -16.35 -7.25 -16.5 -7.25 -16.65 -7.15 -16.8 M-2.25 -17.9 Q-2.2 -17.85 -2.2 -17.65 -2.2 -17.45 -2.25 -17.4 L-2.3 -17.4 -2.4 -17.35 Q-2.5 -17.3 -2.6 -17.25 L-2.95 -17.55 -3.0 -17.65 Q-3.0 -18.2 -2.3 -18.0 L-2.25 -17.9 M-5.6 -16.35 Q-5.6 -16.95 -4.95 -16.95 -4.35 -17.0 -4.35 -16.35 -4.35 -16.1 -4.5 -15.95 -4.7 -15.75 -4.95 -15.75 L-5.6 -16.35 M-2.15 -14.1 L-1.95 -14.1 Q-1.7 -13.95 -1.65 -13.85 -1.8 -13.65 -1.95 -13.65 L-2.15 -13.65 Q-2.2 -13.65 -2.2 -13.85 -2.2 -14.15 -2.15 -14.1 M-0.6 -11.4 L-1.25 -8.25 Q-2.5 -8.25 -3.1 -9.15 -3.45 -9.65 -3.45 -10.15 -3.45 -11.15 -2.95 -11.6 -2.45 -12.05 -1.75 -11.95 -1.1 -11.85 -0.6 -11.4 M-9.35 -14.05 L-9.25 -14.15 -9.2 -13.95 Q-9.25 -14.0 -9.35 -14.05 M-9.05 -13.4 L-9.05 -13.3 -9.1 -13.3 -9.05 -13.4" fill="#8c8c8c" fill-rule="evenodd" stroke="none"/>
    <path d="M-2.3 -26.85 L-2.2 -27.0 -2.15 -26.9 -2.3 -26.85 M-1.85 -26.65 L-1.5 -26.25 Q-0.75 -25.4 -0.75 -24.85 -0.75 -24.0 -1.05 -22.0 -1.4 -20.8 -1.4 -20.6 L-1.35 -20.05 -1.4 -19.95 -1.7 -20.35 -1.75 -20.5 Q-2.1 -21.55 -2.1 -22.0 L-2.0 -23.9 -1.9 -25.45 Q-1.9 -25.65 -2.0 -25.85 -2.15 -25.6 -2.3 -24.4 -2.45 -23.35 -2.45 -23.0 L-2.45 -22.0 -2.4 -21.55 Q-2.85 -22.6 -2.85 -23.55 -2.85 -24.5 -2.35 -25.55 L-1.85 -26.65" fill="#d9ba8d" fill-rule="evenodd" stroke="none"/>
    <path d="M-1.4 -19.95 L-1.5 -19.05 Q-2.7 -19.75 -3.75 -21.35 L-4.4 -22.4 Q-4.7 -22.75 -4.9 -22.8 L-4.6 -23.65 Q-4.3 -24.35 -3.75 -24.9 -3.2 -25.45 -2.8 -26.05 L-2.65 -26.3 -2.4 -26.65 -2.3 -26.85 -2.15 -26.9 -1.85 -26.65 -2.35 -25.55 Q-2.85 -24.5 -2.85 -23.55 -2.85 -22.6 -2.4 -21.55 L-2.45 -22.0 -2.45 -23.0 Q-2.45 -23.35 -2.3 -24.4 -2.15 -25.6 -2.0 -25.85 -1.9 -25.65 -1.9 -25.45 L-2.0 -23.9 -2.1 -22.0 Q-2.1 -21.55 -1.75 -20.5 L-1.7 -20.35 -1.4 -19.95" fill="#806d53" fill-rule="evenodd" stroke="none"/>
    <path d="M-5.55 -6.8 L-5.0 -6.45 -4.75 -6.3 -4.15 -6.3 -4.25 -7.25 -4.3 -8.4 -4.35 -9.5 Q-4.35 -10.0 -4.15 -10.1 -3.75 -10.4 -1.8 -8.15 -1.65 -8.5 -1.25 -8.6 L-1.4 -9.05 Q-1.5 -9.6 -1.4 -10.2 -1.4 -13.5 -0.45 -13.45 0.25 -13.4 1.65 -11.55 1.7 -11.9 1.85 -12.15 1.85 -12.35 1.95 -12.45 2.0 -12.6 2.1 -12.75 L2.3 -13.05 2.15 -13.55 Q2.0 -14.2 1.9 -14.85 L1.95 -16.75 Q2.75 -16.9 3.5 -16.55 4.05 -16.3 4.35 -15.8 L4.35 -16.1 Q4.35 -18.4 5.95 -16.65 6.5 -16.05 7.1 -15.15 L7.45 -14.6 Q8.4 -14.1 9.0 -12.9 9.3 -12.25 9.7 -10.8 10.4 -11.6 10.8 -9.85 L11.65 -7.45 Q12.45 -5.15 12.45 -4.75 12.45 -4.2 12.05 -3.65 L11.95 -3.5 Q11.65 -3.0 10.95 -2.65 L10.45 -2.25 10.3 -2.3 Q10.15 -1.75 9.85 -0.8 9.25 1.05 8.75 1.05 8.35 1.05 8.0 0.75 L7.85 0.75 7.6 0.7 Q7.35 1.45 6.65 1.45 6.1 1.45 5.8 1.3 L5.75 1.25 5.55 1.25 5.3 1.2 5.25 1.25 Q5.05 1.55 4.1 1.55 L3.9 1.5 3.9 1.55 3.6 1.65 3.4 1.7 Q4.2 3.15 4.2 3.8 4.2 4.2 4.05 4.35 3.9 4.6 3.45 4.6 2.05 4.6 1.05 4.35 L0.75 4.5 Q-0.9 5.3 -2.0 5.3 -3.25 5.3 -4.7 4.7 -5.45 4.45 -5.95 4.15 -5.95 4.0 -5.85 3.8 -7.6 3.55 -8.35 3.1 -8.9 2.8 -9.55 2.1 -9.85 1.9 -10.25 1.1 -10.45 0.75 -10.7 0.45 L-10.75 0.4 -10.8 0.4 -10.85 0.45 -11.0 0.55 Q-11.6 -0.1 -12.3 -1.2 L-12.45 -1.5 -12.7 -1.45 Q-14.1 -1.45 -15.05 -3.3 -15.4 -3.95 -15.6 -4.65 -15.8 -5.2 -15.8 -5.35 -15.8 -5.65 -15.7 -5.7 L-15.4 -5.75 -14.95 -5.7 -14.6 -5.8 Q-14.95 -6.15 -15.2 -6.65 -15.7 -7.7 -15.7 -8.85 -15.7 -9.55 -15.65 -9.7 -15.55 -9.85 -15.45 -9.95 -16.25 -10.3 -16.85 -11.3 -17.2 -11.85 -17.4 -12.45 -17.6 -12.95 -17.6 -13.15 -17.6 -14.8 -17.25 -15.3 -16.8 -16.0 -15.8 -14.7 -15.9 -15.45 -15.9 -16.1 -15.9 -16.75 -15.85 -17.25 -15.75 -18.1 -15.5 -18.15 L-15.45 -17.9 Q-15.3 -17.0 -15.1 -15.35 -14.9 -14.3 -14.7 -13.2 L-14.7 -14.0 Q-13.45 -13.75 -12.65 -12.5 -12.5 -12.3 -12.3 -11.8 -12.05 -10.7 -12.05 -10.1 -12.05 -9.95 -12.2 -8.85 L-12.45 -8.65 -12.5 -8.6 -12.55 -8.8 -12.75 -8.8 -13.2 -8.85 -12.8 -7.8 -12.7 -7.6 Q-12.6 -7.15 -12.4 -6.7 L-12.4 -6.65 Q-12.3 -6.25 -12.1 -5.9 -11.55 -4.85 -10.45 -4.85 L-10.4 -4.85 -10.35 -4.85 -10.1 -4.9 -9.8 -4.95 Q-9.45 -5.0 -9.25 -4.95 L-9.2 -4.75 Q-9.25 -4.4 -9.2 -4.15 -9.05 -3.6 -8.1 -3.55 L-8.0 -3.55 -7.65 -3.6 -7.3 -3.3 -7.4 -3.25 -7.2 -3.2 -7.15 -3.2 Q-6.5 -2.65 -6.0 -2.45 L-5.65 -2.15 -5.5 -2.05 -5.1 -1.7 -5.15 -2.3 Q-4.8 -2.35 -4.6 -2.65 L-4.5 -2.85 -4.45 -3.1 Q-4.3 -3.25 -4.3 -3.6 -4.3 -4.0 -4.7 -4.7 -4.95 -5.15 -5.25 -5.5 -5.6 -6.35 -5.6 -6.5 L-5.55 -6.8 M-10.7 -18.5 Q-10.55 -18.1 -10.35 -17.65 -9.8 -16.3 -9.8 -16.0 -9.8 -15.4 -9.8 -15.2 -9.9 -14.65 -10.3 -14.65 -10.9 -14.65 -11.4 -14.8 -11.9 -14.95 -12.25 -15.25 -12.65 -15.6 -12.65 -16.1 L-12.45 -17.65 Q-12.15 -19.25 -11.55 -19.6 -11.15 -19.35 -10.7 -18.5 M-8.6 -9.35 Q-8.7 -9.8 -8.7 -10.5 -8.7 -11.55 -8.55 -12.75 -8.25 -14.6 -7.65 -13.8 -5.55 -10.45 -5.55 -9.75 -5.55 -8.95 -5.65 -8.7 -5.9 -7.9 -6.7 -7.9 L-6.8 -7.9 Q-7.1 -8.15 -7.45 -8.3 -7.7 -8.4 -7.95 -8.35 L-8.6 -9.35 M2.4 -15.9 Q2.35 -15.7 2.35 -15.6 2.35 -15.15 2.65 -14.05 2.8 -13.5 2.95 -13.1 3.3 -13.05 3.7 -12.75 L4.25 -12.3 4.3 -13.7 4.35 -15.6 Q4.25 -15.55 4.05 -15.55 3.9 -15.55 3.4 -15.85 L2.65 -16.3 Q2.5 -16.15 2.4 -15.9 M5.4 -16.35 Q5.1 -16.6 4.8 -16.75 4.8 -16.25 4.85 -15.25 L4.95 -14.1 Q4.95 -13.1 4.9 -12.95 L4.65 -11.9 Q5.1 -11.35 5.55 -10.65 5.75 -11.35 6.0 -11.75 6.35 -11.7 6.8 -11.3 L6.9 -12.55 6.95 -12.85 7.0 -13.5 7.0 -13.85 7.05 -14.3 6.75 -14.75 6.4 -15.2 6.3 -15.35 Q5.85 -16.0 5.4 -16.35 M8.35 -13.0 Q8.05 -13.5 7.55 -13.9 L7.4 -12.3 Q7.3 -11.5 7.15 -10.95 L7.75 -10.25 Q8.3 -9.5 8.6 -9.0 L8.65 -9.25 8.8 -9.65 Q8.95 -10.05 9.15 -10.3 L9.2 -10.4 9.25 -10.4 9.2 -10.55 8.9 -11.65 Q8.75 -12.4 8.35 -13.0 M7.35 -5.25 Q7.55 -5.55 7.95 -5.85 L8.2 -6.05 8.25 -6.15 8.3 -6.1 8.45 -6.15 8.55 -6.2 8.6 -6.85 Q8.6 -7.55 7.8 -9.05 6.95 -10.75 6.3 -10.95 L6.2 -10.9 Q6.15 -10.85 6.15 -10.65 5.95 -10.05 5.85 -9.25 L5.8 -8.75 5.7 -8.15 Q5.75 -7.3 6.0 -6.9 6.65 -5.8 7.05 -4.7 L7.1 -4.65 7.45 -5.0 7.3 -5.15 7.35 -5.25 M10.45 -9.65 L10.5 -9.95 Q10.5 -10.15 10.4 -10.2 L10.15 -10.25 10.0 -10.1 9.95 -10.25 9.9 -10.25 9.8 -10.1 9.8 -10.0 Q9.65 -10.0 9.35 -9.7 L9.3 -9.65 9.25 -9.65 9.2 -9.5 Q8.95 -9.25 8.95 -9.0 8.95 -8.8 9.0 -8.75 L9.05 -8.75 Q9.0 -8.45 9.0 -7.85 L9.05 -7.5 9.0 -7.4 9.05 -7.3 Q9.15 -6.85 9.25 -6.4 9.3 -5.8 9.4 -5.65 L9.9 -4.85 10.0 -4.75 9.95 -4.65 Q10.3 -3.9 10.35 -3.2 L10.75 -3.3 11.05 -3.55 Q11.6 -4.05 11.8 -4.4 L11.8 -4.65 Q11.8 -4.75 11.55 -5.5 L11.55 -5.7 Q11.55 -6.35 11.15 -7.95 10.8 -9.15 10.45 -9.65 M4.45 -11.05 L2.95 -12.15 Q2.9 -12.2 2.8 -12.2 2.6 -12.15 2.35 -11.55 L2.1 -10.9 2.2 -10.75 Q2.2 -10.6 2.05 -10.5 L2.0 -10.6 Q1.7 -9.7 1.7 -8.85 1.65 -8.65 1.7 -8.4 1.8 -8.0 2.35 -8.0 2.65 -8.0 2.8 -8.2 L2.8 -8.25 2.85 -8.6 Q2.9 -8.8 2.95 -8.95 3.05 -9.7 3.5 -9.55 3.75 -9.5 4.1 -9.2 L4.45 -8.85 4.5 -9.0 Q4.55 -8.85 4.7 -8.7 5.2 -8.95 5.3 -9.2 5.35 -9.3 5.35 -9.7 5.35 -10.1 5.1 -10.6 4.85 -11.1 4.45 -11.05 M0.0 -8.3 L0.6 -7.9 0.7 -7.85 0.7 -7.9 Q1.0 -8.5 1.15 -9.15 1.25 -9.55 1.45 -10.7 L1.5 -11.0 Q1.2 -11.3 0.9 -11.65 L-0.45 -13.15 -0.8 -11.6 Q-0.9 -11.05 -0.9 -10.35 -1.0 -10.25 -1.0 -9.9 L-0.85 -9.55 -0.85 -9.25 Q-0.7 -8.8 -0.4 -8.45 L-0.15 -8.35 0.0 -8.3 M1.65 -7.65 L1.3 -7.9 1.05 -7.65 1.0 -7.65 1.7 -7.05 2.35 -6.4 2.4 -6.4 Q2.4 -6.5 2.5 -6.55 L2.75 -6.6 2.75 -7.55 2.7 -7.55 1.95 -7.5 Q1.85 -7.5 1.65 -7.65 M1.55 -8.6 L1.7 -8.6 1.65 -8.7 1.55 -8.6 M5.0 -3.65 Q5.3 -3.55 5.6 -3.55 6.0 -3.55 6.15 -4.3 L6.25 -4.6 6.3 -4.7 Q6.35 -4.75 6.35 -5.0 6.35 -6.0 5.7 -6.95 5.1 -7.8 4.2 -8.15 L4.2 -8.25 3.75 -8.7 3.4 -9.0 Q3.4 -8.45 3.35 -7.6 L3.3 -6.6 Q3.3 -5.75 3.75 -4.85 4.2 -3.9 5.0 -3.65 M5.6 -7.35 L5.6 -7.35 M3.1 -3.6 L3.15 -3.65 3.15 -3.85 Q3.15 -4.15 3.0 -4.5 L2.95 -4.65 2.7 -5.0 2.5 -5.2 Q1.8 -6.25 0.7 -7.25 0.05 -7.85 -0.35 -7.95 L-0.5 -7.95 Q-0.6 -7.95 -0.7 -7.85 L-1.0 -7.85 -0.95 -7.7 -0.9 -7.15 -0.9 -6.8 -0.85 -6.1 -0.9 -5.85 Q-0.75 -5.3 -0.55 -4.85 -0.35 -4.55 -0.1 -4.35 0.1 -3.95 0.6 -3.7 0.55 -3.5 0.5 -3.4 0.5 -3.3 0.55 -3.15 0.7 -2.75 1.15 -2.1 L1.65 -1.4 1.9 -1.0 Q2.3 -0.4 2.65 0.0 L2.75 -0.05 3.55 1.2 Q3.9 1.2 4.15 1.0 L4.45 1.05 4.5 1.0 4.8 0.8 Q4.85 0.75 4.85 0.65 4.85 0.4 4.7 -0.05 L3.6 -2.0 Q3.4 -2.3 2.05 -2.95 L1.3 -3.3 0.85 -3.55 Q1.1 -3.4 1.35 -3.3 2.3 -2.95 2.95 -2.95 3.2 -2.95 3.3 -3.05 3.4 -3.15 3.45 -3.3 3.35 -3.45 3.1 -3.6 M4.65 -3.4 Q4.25 -3.65 3.8 -4.1 L3.4 -4.45 Q3.6 -3.75 3.9 -2.95 4.25 -2.45 4.6 -1.55 L4.6 -1.5 4.9 -1.05 5.15 -0.55 5.55 0.05 5.7 0.15 Q5.95 0.35 5.95 0.65 L6.2 1.0 6.45 1.05 Q6.65 1.05 6.8 1.0 L6.9 0.9 7.15 0.6 7.25 -0.1 7.2 -0.6 Q7.2 -1.5 7.05 -2.2 6.8 -3.05 6.3 -3.4 6.05 -3.05 5.7 -3.05 5.25 -3.05 4.65 -3.4 M0.8 0.25 L1.65 0.35 1.4 -0.1 Q1.45 -0.2 1.45 -0.5 1.45 -0.75 0.9 -1.8 0.5 -2.6 0.05 -3.25 -0.45 -3.3 -0.85 -3.95 L-1.35 -4.85 -1.5 -4.9 -1.7 -4.9 -1.85 -4.95 -1.9 -4.5 -1.9 -3.9 -1.95 -3.7 -1.95 -3.55 Q-1.95 -2.7 -1.8 -2.25 L-1.35 -1.0 -0.6 -0.45 0.1 0.2 0.5 0.2 0.8 0.25 M8.7 -5.75 L8.95 -5.25 8.95 -5.3 8.9 -5.5 Q8.8 -5.55 8.7 -5.75 M8.55 0.1 L8.55 0.3 8.65 0.4 Q8.95 0.0 9.3 -1.15 L9.45 -1.45 Q9.7 -2.1 9.75 -2.7 L9.75 -2.9 Q9.7 -3.25 9.4 -4.05 9.15 -4.85 8.95 -5.2 8.8 -5.5 8.6 -5.65 L8.3 -5.4 7.55 -4.95 7.5 -5.0 7.45 -4.9 7.3 -4.7 7.25 -4.6 Q7.35 -4.5 7.35 -4.3 7.35 -4.0 7.2 -3.7 L7.05 -3.55 Q7.2 -3.25 7.35 -2.75 7.65 -1.75 7.7 -0.8 L7.7 -0.5 Q7.75 -0.5 7.85 -0.4 L7.95 -0.4 8.0 -0.4 Q8.25 -0.4 8.4 -0.25 8.55 -0.1 8.55 0.1 M-6.3 -18.25 L-5.85 -18.1 -5.65 -18.2 Q-5.6 -18.25 -5.6 -18.5 -5.6 -19.2 -6.25 -20.45 L-7.3 -22.3 -7.3 -22.25 -7.45 -20.55 -7.45 -20.45 -7.5 -19.25 Q-7.5 -19.0 -7.2 -18.75 -6.9 -18.45 -6.3 -18.25 M-7.9 -21.15 L-7.45 -22.5 Q-6.4 -21.75 -5.8 -20.6 -5.25 -19.55 -5.25 -18.55 -5.25 -17.85 -5.7 -17.85 -7.25 -17.85 -7.8 -18.85 -8.05 -19.3 -8.05 -19.95 -8.05 -20.75 -7.9 -21.15 M-10.9 -15.05 L-10.45 -15.05 -10.2 -15.1 -10.2 -15.45 Q-10.2 -16.0 -10.65 -17.3 L-10.8 -17.8 Q-11.25 -18.9 -11.7 -19.1 L-11.9 -17.95 -12.05 -17.15 -12.1 -16.65 -12.1 -16.6 Q-12.1 -16.15 -11.95 -15.75 -11.75 -15.25 -11.35 -15.1 L-10.95 -15.05 -10.9 -15.05 M-4.55 -12.05 L-4.45 -12.0 -4.25 -12.0 Q-4.15 -12.05 -4.15 -12.25 -4.15 -13.2 -4.8 -14.55 L-5.95 -16.55 Q-6.05 -16.25 -6.05 -15.55 L-5.9 -14.45 -5.8 -13.75 -5.8 -13.4 Q-5.8 -13.1 -5.65 -12.85 L-5.5 -12.65 -5.5 -12.6 Q-5.15 -12.2 -4.55 -12.05 M-6.55 -15.45 Q-6.55 -16.1 -6.35 -17.1 -5.8 -17.45 -4.75 -15.45 -3.8 -13.55 -3.8 -12.7 -3.8 -12.25 -3.95 -12.0 -4.1 -11.65 -4.6 -11.65 -5.65 -11.65 -6.0 -12.25 -6.2 -12.6 -6.2 -12.95 -6.2 -13.1 -6.35 -14.2 L-6.55 -15.45 M-16.55 -14.6 L-16.75 -14.75 -16.8 -14.75 Q-16.95 -14.25 -16.95 -13.2 -16.95 -12.5 -16.85 -12.2 L-16.65 -11.9 Q-16.35 -10.55 -15.15 -10.55 -14.95 -10.55 -14.75 -10.75 L-14.6 -10.9 -14.7 -11.2 -14.95 -11.85 -14.95 -11.9 -14.9 -12.5 -14.9 -12.55 -15.0 -12.75 Q-15.0 -13.0 -15.3 -13.45 -15.55 -13.9 -15.95 -14.25 -16.3 -14.6 -16.55 -14.6 M-13.45 -9.6 Q-13.05 -9.25 -12.55 -9.05 L-12.4 -10.05 -12.3 -10.8 -12.4 -11.0 -12.75 -11.8 -12.8 -12.0 -12.9 -12.15 Q-13.2 -12.8 -13.6 -13.1 L-13.8 -13.2 -14.15 -13.45 -14.15 -13.2 -14.25 -13.15 Q-14.7 -13.4 -14.7 -12.05 -14.65 -11.55 -14.45 -10.95 L-14.3 -10.6 -14.35 -10.6 Q-14.15 -10.05 -13.85 -9.8 L-13.55 -9.7 -13.45 -9.6 M-14.75 -9.95 Q-15.05 -9.95 -15.1 -9.35 L-15.15 -8.7 Q-15.15 -7.65 -14.5 -6.65 -14.2 -6.15 -13.75 -5.8 L-13.45 -5.75 -13.05 -5.8 Q-12.75 -5.95 -12.75 -6.45 -12.75 -6.65 -12.8 -6.9 -12.75 -7.0 -12.75 -7.2 -12.75 -7.55 -13.1 -8.25 -13.5 -8.95 -13.95 -9.45 -14.45 -10.0 -14.75 -9.95 M-12.65 -5.5 L-12.95 -5.55 Q-13.3 -5.6 -14.05 -5.55 L-14.4 -5.5 -14.45 -5.5 -14.95 -5.45 -15.0 -5.45 Q-15.2 -5.25 -15.2 -4.75 -14.25 -2.25 -13.1 -2.25 L-12.9 -2.25 -12.85 -2.2 -12.85 -2.3 -12.8 -2.3 -12.8 -2.4 Q-12.85 -2.9 -13.0 -3.4 L-12.95 -3.4 Q-12.75 -3.55 -12.2 -3.5 L-12.0 -3.35 Q-11.85 -3.35 -11.75 -3.4 L-11.6 -3.4 -11.65 -3.45 Q-11.5 -3.6 -11.5 -4.0 -11.5 -4.7 -12.0 -5.2 -12.15 -5.35 -12.35 -5.45 L-12.65 -5.5 M-6.85 0.75 Q-6.8 0.65 -6.8 0.45 -6.8 0.25 -6.8 0.2 L-6.85 0.15 -7.6 0.15 Q-7.75 -0.05 -7.85 -0.35 -8.1 -1.05 -8.1 -2.0 -8.1 -2.8 -7.85 -3.1 L-8.65 -3.1 -8.7 -3.05 -8.8 -3.05 -8.95 -3.0 Q-9.45 -2.8 -9.85 -2.8 -10.35 -2.8 -10.5 -2.95 -9.65 -3.4 -9.3 -3.55 L-9.1 -3.6 -9.45 -4.1 -9.7 -4.65 Q-9.85 -4.45 -10.0 -4.45 -10.75 -4.45 -11.3 -4.8 L-10.8 -3.6 -10.55 -2.95 -10.4 -2.8 Q-10.1 -2.8 -10.05 -2.7 L-10.3 -2.65 -10.35 -2.55 Q-10.35 -2.45 -10.5 -2.45 L-10.55 -2.4 -10.65 -2.45 -10.9 -2.45 Q-11.15 -2.55 -11.35 -2.65 -11.85 -2.95 -12.5 -3.05 -12.55 -2.55 -11.7 -1.4 -11.3 -0.8 -11.05 -0.4 -10.15 0.05 -8.6 0.2 L-8.0 0.25 -8.6 0.45 Q-9.65 0.85 -9.65 1.2 -9.65 1.35 -9.15 1.8 -8.75 2.1 -8.5 2.2 -7.95 2.6 -7.15 2.7 L-6.45 2.8 Q-7.05 2.45 -7.2 2.25 -7.05 2.0 -6.35 1.6 L-6.15 1.45 -5.65 1.45 -5.15 0.9 -4.8 0.5 Q-4.65 0.2 -4.6 -0.05 L-4.55 -0.25 -4.45 -0.25 -4.45 -0.3 -4.75 -0.65 -4.9 -1.0 -5.4 -1.35 -5.8 -1.75 Q-6.55 -2.4 -7.15 -2.5 -7.4 -2.65 -7.55 -2.7 -7.6 -2.45 -7.6 -1.95 -7.6 -1.1 -7.25 -0.45 -6.9 0.1 -6.3 0.45 -6.55 0.55 -6.85 0.75 M-3.95 -8.0 Q-4.05 -7.9 -4.05 -7.5 -4.05 -7.15 -3.85 -6.7 L-3.8 -6.6 -3.75 -6.2 -3.55 -6.2 -3.45 -6.05 Q-3.2 -6.05 -3.1 -6.15 L-2.4 -6.0 -2.05 -5.9 Q-1.85 -6.05 -1.55 -5.95 -1.75 -6.4 -1.8 -6.85 L-1.9 -7.45 Q-1.9 -7.8 -1.85 -8.0 -2.25 -8.25 -2.8 -8.7 L-3.9 -9.7 Q-4.05 -9.25 -4.05 -8.7 L-3.95 -8.0 M-6.9 -8.2 L-6.8 -8.2 Q-5.9 -8.2 -5.9 -9.45 -5.9 -10.15 -6.25 -10.9 -6.55 -11.5 -6.85 -11.85 -6.9 -12.15 -7.1 -12.4 -7.35 -12.9 -7.8 -13.05 L-7.85 -13.15 -7.85 -13.05 -8.15 -13.1 -8.2 -11.95 Q-8.3 -11.65 -8.3 -11.2 L-8.3 -11.1 Q-8.25 -10.45 -8.1 -9.75 L-8.05 -9.4 Q-7.9 -8.9 -7.65 -8.65 -7.35 -8.25 -6.9 -8.2 M-2.5 -5.1 L-2.45 -5.25 -2.5 -5.3 -2.6 -5.3 Q-2.7 -5.3 -3.05 -5.45 L-3.1 -5.45 -3.15 -5.5 -3.5 -5.6 -3.6 -5.65 -3.65 -5.65 -3.9 -5.65 -4.35 -5.65 -4.4 -5.5 -4.55 -5.4 -4.65 -5.4 Q-4.55 -4.85 -4.3 -4.1 L-3.9 -3.0 Q-4.25 -2.8 -4.25 -2.5 -4.25 -2.3 -4.05 -2.05 -3.7 -1.6 -3.05 -1.6 -2.85 -1.6 -2.75 -1.65 L-2.7 -1.7 -2.65 -1.7 -2.6 -1.85 Q-2.4 -1.85 -2.35 -1.9 -2.25 -2.0 -2.25 -2.4 -2.25 -2.8 -2.55 -2.9 L-2.5 -3.45 -2.5 -3.9 -2.5 -5.1 M-3.15 -1.3 L-3.3 -1.35 -3.35 -1.35 -3.7 -1.55 Q-3.75 -1.7 -3.9 -1.8 L-4.0 -1.75 -4.5 -2.0 -4.55 -1.55 -4.5 -1.5 -4.55 -1.5 -4.6 -1.15 Q-4.4 -0.6 -4.0 0.05 L-3.8 0.1 -3.75 0.2 Q-3.7 0.25 -3.7 0.4 L-3.65 0.5 Q-2.75 1.7 -2.0 1.7 L-1.95 1.7 -1.45 2.1 -1.0 2.1 -0.75 2.2 -0.8 2.2 -0.75 2.1 -0.55 2.0 Q-0.2 1.75 -0.2 1.15 -0.2 0.75 -1.55 -0.3 L-1.65 -0.4 Q-1.95 -0.45 -2.15 -0.75 -2.75 -1.15 -3.15 -1.3 M0.0 1.75 L-0.05 1.75 -0.15 1.95 -0.55 2.65 -0.55 2.7 -0.6 2.75 -0.65 2.85 -0.65 2.9 -0.7 2.95 -0.7 3.0 -0.45 2.95 0.75 3.0 Q1.4 3.1 1.85 3.3 L2.0 3.2 2.15 3.4 Q2.65 3.6 2.85 3.9 L2.95 3.95 3.0 3.95 3.6 4.0 3.65 4.0 3.65 3.5 3.55 3.25 3.5 3.05 Q3.4 2.55 3.05 2.05 2.7 1.45 2.2 1.1 L2.1 0.9 2.0 0.75 1.85 0.85 Q1.45 0.65 1.2 0.7 1.0 0.7 0.9 0.85 L0.15 0.7 0.05 0.75 0.1 1.05 0.15 1.55 0.0 1.75 M-1.85 2.9 L-1.35 2.65 Q-1.65 2.6 -1.95 2.5 -3.05 2.1 -3.85 0.85 L-4.3 0.85 -4.4 0.8 -4.45 0.85 -4.65 1.15 Q-4.9 1.4 -5.35 1.75 -5.65 1.95 -5.95 2.1 L-6.2 2.2 -6.25 2.15 -6.3 2.2 -5.0 2.85 Q-4.0 3.35 -3.55 3.35 L-2.9 3.25 Q-2.45 3.15 -1.85 2.9 M-0.85 3.5 Q-1.05 3.35 -1.05 3.2 L-1.4 3.35 Q-2.75 3.9 -3.45 3.9 -3.95 3.9 -4.75 3.6 L-5.2 3.95 -5.2 4.0 Q-4.65 4.3 -3.7 4.45 -2.8 4.65 -2.0 4.65 -1.2 4.65 0.05 4.1 L0.55 4.1 0.85 3.85 0.95 3.7 0.9 3.25 -0.45 3.3 Q-0.75 3.4 -0.8 3.55 L-0.85 3.5" fill="#000000" fill-rule="evenodd" stroke="none"/>
    <path d="M-7.15 -3.2 L-7.2 -3.2 -7.4 -3.25 -7.3 -3.3 -7.15 -3.2 M2.4 -15.9 Q2.5 -16.15 2.65 -16.3 L3.4 -15.85 Q3.9 -15.55 4.05 -15.55 4.25 -15.55 4.35 -15.6 L4.3 -13.7 4.25 -12.3 3.7 -12.75 Q3.3 -13.05 2.95 -13.1 2.8 -13.5 2.65 -14.05 2.35 -15.15 2.35 -15.6 2.35 -15.7 2.4 -15.9 M6.95 -12.85 L6.95 -12.7 Q6.75 -12.5 6.35 -12.5 5.45 -12.5 5.1 -14.05 4.95 -14.85 4.95 -15.65 4.95 -16.35 5.25 -16.4 L5.4 -16.35 Q5.85 -16.0 6.3 -15.35 L6.4 -15.2 6.75 -14.75 6.75 -14.7 Q6.95 -14.25 7.0 -13.85 L7.0 -13.5 6.95 -12.85 M8.8 -9.65 Q8.6 -9.8 8.1 -11.25 7.6 -12.7 7.6 -12.85 L7.6 -13.05 7.7 -13.15 Q8.05 -13.15 8.35 -13.0 8.75 -12.4 8.9 -11.65 L9.2 -10.55 9.25 -10.4 9.2 -10.4 9.15 -10.3 Q8.95 -10.05 8.8 -9.65 M5.8 -8.75 L5.85 -9.25 Q5.95 -10.05 6.15 -10.65 6.15 -10.85 6.2 -10.9 L6.3 -10.95 Q6.95 -10.75 7.8 -9.05 8.6 -7.55 8.6 -6.85 L8.55 -6.2 8.45 -6.15 8.3 -6.1 8.25 -6.15 8.2 -6.05 7.95 -5.85 Q7.55 -5.55 7.35 -5.25 L7.3 -5.3 7.15 -5.8 6.8 -7.05 Q6.45 -8.25 5.8 -8.75 M10.45 -9.65 Q10.8 -9.15 11.15 -7.95 11.55 -6.35 11.55 -5.7 L11.55 -5.5 Q11.8 -4.75 11.8 -4.65 L11.8 -4.4 Q11.6 -4.05 11.05 -3.55 L10.75 -3.3 10.35 -3.2 Q10.3 -3.9 9.95 -4.65 L10.0 -4.75 9.9 -4.85 9.4 -5.65 Q9.3 -5.8 9.25 -6.4 9.15 -6.85 9.05 -7.3 L9.0 -7.4 9.05 -7.5 9.0 -7.85 Q9.0 -8.45 9.05 -8.75 L9.0 -8.75 Q8.95 -8.8 8.95 -9.0 8.95 -9.25 9.2 -9.5 L9.25 -9.65 9.3 -9.65 9.35 -9.7 Q9.65 -10.0 9.8 -10.0 L9.8 -10.1 9.9 -10.25 9.95 -10.25 10.0 -10.1 10.15 -10.25 10.4 -10.2 Q10.5 -10.15 10.5 -9.95 L10.45 -9.65 M4.45 -11.05 L4.25 -11.0 Q4.2 -11.0 4.2 -10.65 4.2 -10.5 4.45 -10.15 L4.65 -9.8 4.5 -9.3 Q4.45 -9.15 4.5 -9.0 L4.45 -8.85 4.1 -9.2 Q3.85 -9.55 3.5 -10.1 L3.0 -11.1 3.0 -11.6 Q3.0 -12.0 2.95 -12.15 L4.45 -11.05 M3.7 -13.4 Q3.8 -13.5 3.8 -13.6 3.65 -13.8 3.45 -13.9 3.3 -13.9 3.2 -13.75 3.05 -13.65 3.05 -13.6 L3.1 -13.35 3.3 -13.25 3.45 -13.2 Q3.6 -13.25 3.7 -13.4 M-0.9 -10.35 Q-0.9 -11.05 -0.8 -11.6 L-0.45 -13.15 0.9 -11.65 Q1.2 -11.3 1.5 -11.0 L1.45 -10.7 Q1.25 -9.55 1.15 -9.15 1.0 -8.5 0.7 -7.9 L0.7 -7.85 0.6 -7.9 0.0 -8.3 0.05 -8.3 Q0.55 -8.3 0.55 -8.7 0.55 -9.0 0.35 -9.45 0.1 -9.85 -0.2 -10.15 -0.55 -10.45 -0.75 -10.45 -0.85 -10.4 -0.9 -10.35 M-0.15 -8.35 L-0.4 -8.45 Q-0.7 -8.8 -0.85 -9.25 L-0.85 -9.55 -0.65 -9.1 Q-0.4 -8.55 -0.15 -8.35 M1.7 -7.05 Q1.65 -7.3 1.65 -7.5 L1.65 -7.65 Q1.85 -7.5 1.95 -7.5 L2.7 -7.55 2.75 -7.55 2.75 -6.6 2.5 -6.55 Q2.4 -6.5 2.4 -6.4 L2.35 -6.4 1.7 -7.05 M3.75 -8.7 L4.2 -8.25 4.2 -8.15 Q5.1 -7.8 5.7 -6.95 6.35 -6.0 6.35 -5.0 6.35 -4.75 6.3 -4.7 L6.25 -4.6 6.15 -4.3 Q6.0 -3.55 5.6 -3.55 5.3 -3.55 5.0 -3.65 L5.1 -3.75 5.1 -4.05 Q5.1 -4.25 4.65 -5.7 L4.2 -7.1 Q3.75 -7.9 3.55 -8.35 L3.9 -8.3 3.75 -8.7 M-0.9 -7.15 L-0.95 -7.7 -1.0 -7.85 -0.7 -7.85 Q-0.6 -7.95 -0.5 -7.95 L-0.35 -7.95 Q0.05 -7.85 0.7 -7.25 1.8 -6.25 2.5 -5.2 L2.7 -5.0 2.95 -4.65 3.0 -4.5 Q3.15 -4.15 3.15 -3.85 L3.15 -3.65 3.1 -3.6 Q2.6 -3.9 1.5 -4.2 L0.8 -4.4 0.25 -5.85 0.2 -5.9 -0.9 -7.15 M1.3 -3.3 L2.05 -2.95 Q3.4 -2.3 3.6 -2.0 L4.7 -0.05 Q4.85 0.4 4.85 0.65 4.85 0.75 4.8 0.8 L4.5 1.0 4.35 0.8 Q4.45 0.65 4.45 0.55 4.45 0.5 3.95 -0.25 3.4 -1.15 2.9 -1.75 2.1 -2.75 1.7 -2.8 L1.3 -3.3 M1.15 -2.1 Q0.7 -2.75 0.55 -3.15 L0.65 -2.95 1.15 -2.1 M6.8 1.0 L6.9 0.9 6.8 1.0 M7.25 -0.1 L6.3 -1.05 Q5.0 -2.35 4.8 -2.85 L4.65 -3.4 Q5.25 -3.05 5.7 -3.05 6.05 -3.05 6.3 -3.4 6.8 -3.05 7.05 -2.2 7.2 -1.5 7.2 -0.6 L7.25 -0.1 M-1.9 -4.5 L-1.85 -4.95 -1.7 -4.9 -1.5 -4.9 -1.35 -4.85 -0.85 -3.95 Q-0.45 -3.3 0.05 -3.25 0.5 -2.6 0.9 -1.8 1.45 -0.75 1.45 -0.5 1.45 -0.2 1.4 -0.1 L1.65 0.35 0.8 0.25 0.9 0.25 -0.7 -2.35 -1.9 -4.5 M7.5 -5.0 L7.55 -4.95 8.3 -5.4 8.6 -5.65 Q8.8 -5.5 8.95 -5.2 9.15 -4.85 9.4 -4.05 9.7 -3.25 9.75 -2.9 L9.75 -2.7 Q9.7 -2.1 9.45 -1.45 L9.3 -1.15 Q8.95 0.0 8.65 0.4 L8.55 0.3 8.55 0.1 8.8 0.15 Q9.0 -0.2 9.2 -0.8 L8.95 -1.55 Q8.6 -2.65 8.15 -3.65 7.75 -4.55 7.5 -5.0 M7.95 -0.4 L7.85 -0.4 Q7.75 -0.5 7.7 -0.5 L7.7 -0.8 7.95 -0.4 M-7.45 -20.45 L-7.45 -20.55 -7.3 -22.25 -7.3 -22.3 -6.25 -20.45 Q-5.6 -19.2 -5.6 -18.5 -5.6 -18.25 -5.65 -18.2 L-5.85 -18.1 -6.3 -18.25 -6.25 -18.3 -6.25 -18.6 -7.0 -19.9 Q-7.25 -20.3 -7.45 -20.45 M-12.05 -17.15 L-11.9 -17.95 -11.7 -19.1 Q-11.25 -18.9 -10.8 -17.8 L-10.65 -17.3 Q-10.2 -16.0 -10.2 -15.45 L-10.2 -15.1 -10.45 -15.05 -10.9 -15.05 -10.8 -15.05 -10.8 -15.1 -11.05 -15.65 Q-11.3 -16.25 -11.55 -16.65 -11.85 -17.15 -12.05 -17.15 M-5.8 -13.75 L-5.9 -14.45 -6.05 -15.55 Q-6.05 -16.25 -5.95 -16.55 L-4.8 -14.55 Q-4.15 -13.2 -4.15 -12.25 -4.15 -12.05 -4.25 -12.0 L-4.45 -12.0 -4.55 -12.05 -4.55 -12.1 Q-4.75 -12.4 -5.0 -13.1 -5.25 -13.65 -5.8 -13.75 M-5.5 -12.6 L-5.5 -12.65 -5.65 -12.85 -5.5 -12.6 M-13.85 -9.8 Q-14.15 -10.05 -14.35 -10.6 L-14.3 -10.6 -14.45 -10.95 Q-14.65 -11.55 -14.7 -12.05 -14.7 -13.4 -14.25 -13.15 L-14.15 -13.2 -14.15 -13.45 -13.8 -13.2 -13.6 -13.1 Q-13.2 -12.8 -12.9 -12.15 L-12.8 -12.0 -12.75 -11.8 -12.4 -11.0 -12.3 -10.8 -12.4 -10.05 -12.55 -9.05 Q-13.05 -9.25 -13.45 -9.6 -13.35 -9.7 -13.3 -9.85 -13.45 -10.4 -13.6 -11.5 -13.8 -12.4 -14.3 -13.0 -14.55 -12.8 -14.6 -12.6 -14.7 -12.45 -14.7 -12.2 -14.7 -11.85 -14.35 -10.9 -14.1 -10.15 -13.85 -9.8 M-6.15 1.45 L-6.2 1.45 Q-6.85 1.45 -7.0 1.2 L-7.05 0.9 -6.85 0.75 Q-6.55 0.55 -6.3 0.45 -4.95 -0.3 -4.8 0.5 L-5.15 0.9 -5.65 1.45 -6.15 1.45 M-7.15 -2.5 Q-6.55 -2.4 -5.8 -1.75 L-5.4 -1.35 -4.75 -0.65 -4.45 -0.3 -4.45 -0.25 -4.55 -0.25 -4.6 -0.05 -4.65 -0.05 Q-5.15 -0.05 -6.2 -0.95 -7.05 -1.7 -7.35 -2.1 L-7.3 -2.55 -7.15 -2.5 M-3.95 -8.0 L-4.05 -8.7 Q-4.05 -9.25 -3.9 -9.7 L-2.8 -8.7 Q-2.25 -8.25 -1.85 -8.0 -1.9 -7.8 -1.9 -7.45 L-1.8 -6.85 Q-1.75 -6.4 -1.55 -5.95 -1.85 -6.05 -2.05 -5.9 L-2.4 -6.0 -3.1 -6.15 Q-3.1 -6.2 -3.05 -6.25 -3.05 -6.3 -3.05 -6.6 -3.75 -8.15 -3.95 -8.0 M-3.55 -6.2 L-3.75 -6.2 -3.8 -6.6 -3.55 -6.2 M-8.3 -11.2 Q-8.3 -11.65 -8.2 -11.95 L-8.15 -13.1 -7.85 -13.05 -7.85 -13.15 -7.8 -13.05 Q-7.35 -12.9 -7.1 -12.4 -6.9 -12.15 -6.85 -11.85 -6.55 -11.5 -6.25 -10.9 -5.9 -10.15 -5.9 -9.45 -5.9 -8.2 -6.8 -8.2 L-6.9 -8.2 -6.85 -8.25 Q-6.85 -8.3 -6.8 -8.45 -7.1 -8.95 -7.5 -10.25 -7.8 -11.05 -8.3 -11.25 L-8.3 -11.2 M-2.5 -5.1 L-2.5 -3.9 -3.3 -3.9 Q-3.65 -3.9 -4.05 -4.4 L-4.35 -4.8 Q-4.35 -5.55 -3.9 -5.65 L-3.65 -5.65 -3.6 -5.65 -3.5 -5.6 -3.15 -5.5 -3.1 -5.45 -3.05 -5.45 -2.5 -5.1 M-3.15 -1.3 Q-2.75 -1.15 -2.15 -0.75 -1.95 -0.45 -1.65 -0.4 L-1.55 -0.3 Q-0.2 0.75 -0.2 1.15 -0.2 1.75 -0.55 2.0 -1.6 0.5 -2.6 -0.7 L-3.15 -1.3 M0.0 1.75 L0.15 1.55 0.1 1.05 0.05 0.75 0.15 0.7 0.9 0.85 Q1.0 0.7 1.2 0.7 1.45 0.65 1.85 0.85 L2.0 0.75 2.1 0.9 2.2 1.1 Q2.7 1.45 3.05 2.05 3.4 2.55 3.5 3.05 L3.5 3.25 3.55 3.25 3.65 3.5 3.5 3.4 Q3.5 3.9 3.0 3.95 L2.95 3.95 2.85 3.9 Q2.65 3.6 2.15 3.4 L2.0 3.2 1.55 2.55 1.25 2.15 Q0.7 1.9 0.25 1.8 L0.0 1.75 M-1.95 2.5 L-1.8 2.55 -1.85 2.9 Q-2.45 3.15 -2.9 3.25 -3.5 3.1 -3.95 2.5 -4.5 1.85 -4.5 1.45 -4.5 1.0 -4.3 0.85 L-3.85 0.85 Q-3.05 2.1 -1.95 2.5" fill="#d9ba8d" fill-rule="evenodd" stroke="none"/>
    <path d="M-10.7 0.45 L-10.8 0.4 -10.75 0.4 -10.7 0.45 M-9.2 -4.75 L-9.25 -4.95 -9.2 -4.95 -9.2 -4.75 M-10.35 -4.85 L-10.4 -4.85 -10.35 -4.85 M5.4 -16.35 L5.25 -16.4 Q4.95 -16.35 4.95 -15.65 4.95 -14.85 5.1 -14.05 5.45 -12.5 6.35 -12.5 6.75 -12.5 6.95 -12.7 L6.95 -12.85 6.9 -12.55 6.8 -11.3 Q6.35 -11.7 6.0 -11.75 5.75 -11.35 5.55 -10.65 5.1 -11.35 4.65 -11.9 L4.9 -12.95 Q4.95 -13.1 4.95 -14.1 L4.85 -15.25 Q4.8 -16.25 4.8 -16.75 5.1 -16.6 5.4 -16.35 M7.0 -13.85 Q6.95 -14.25 6.75 -14.7 L6.75 -14.75 7.05 -14.3 7.0 -13.85 M8.35 -13.0 Q8.05 -13.15 7.7 -13.15 L7.6 -13.05 7.6 -12.85 Q7.6 -12.7 8.1 -11.25 8.6 -9.8 8.8 -9.65 L8.65 -9.25 8.6 -9.0 Q8.3 -9.5 7.75 -10.25 L7.15 -10.95 Q7.3 -11.5 7.4 -12.3 L7.55 -13.9 Q8.05 -13.5 8.35 -13.0 M7.35 -5.25 L7.3 -5.15 7.45 -5.0 7.1 -4.65 7.05 -4.7 Q6.65 -5.8 6.0 -6.9 5.75 -7.3 5.7 -8.15 L5.8 -8.75 Q6.45 -8.25 6.8 -7.05 L7.15 -5.8 7.3 -5.3 7.35 -5.25 M3.7 -13.4 Q3.6 -13.25 3.45 -13.2 L3.3 -13.25 3.1 -13.35 3.05 -13.6 Q3.05 -13.65 3.2 -13.75 3.3 -13.9 3.45 -13.9 3.65 -13.8 3.8 -13.6 3.8 -13.5 3.7 -13.4 M4.5 -9.0 Q4.45 -9.15 4.5 -9.3 L4.65 -9.8 4.45 -10.15 Q4.2 -10.5 4.2 -10.65 4.2 -11.0 4.25 -11.0 L4.45 -11.05 Q4.85 -11.1 5.1 -10.6 5.35 -10.1 5.35 -9.7 5.35 -9.3 5.3 -9.2 5.2 -8.95 4.7 -8.7 4.55 -8.85 4.5 -9.0 M2.95 -12.15 Q3.0 -12.0 3.0 -11.6 L3.0 -11.1 3.5 -10.1 Q3.85 -9.55 4.1 -9.2 3.75 -9.5 3.5 -9.55 3.05 -9.7 2.95 -8.95 2.9 -8.8 2.85 -8.6 L2.8 -8.25 2.8 -8.2 Q2.65 -8.0 2.35 -8.0 1.8 -8.0 1.7 -8.4 1.65 -8.65 1.7 -8.85 1.7 -9.7 2.0 -10.6 L2.05 -10.5 Q2.2 -10.6 2.2 -10.75 L2.1 -10.9 2.35 -11.55 Q2.6 -12.15 2.8 -12.2 2.9 -12.2 2.95 -12.15 M-0.9 -10.35 Q-0.85 -10.4 -0.75 -10.45 -0.55 -10.45 -0.2 -10.15 0.1 -9.85 0.35 -9.45 0.55 -9.0 0.55 -8.7 0.55 -8.3 0.05 -8.3 L0.0 -8.3 -0.15 -8.35 Q-0.4 -8.55 -0.65 -9.1 L-0.85 -9.55 -1.0 -9.9 Q-1.0 -10.25 -0.9 -10.35 M1.7 -7.05 L1.0 -7.65 1.05 -7.65 1.3 -7.9 1.65 -7.65 1.65 -7.5 Q1.65 -7.3 1.7 -7.05 M3.75 -8.7 L3.9 -8.3 3.55 -8.35 Q3.75 -7.9 4.2 -7.1 L4.65 -5.7 Q5.1 -4.25 5.1 -4.05 L5.1 -3.75 5.0 -3.65 Q4.2 -3.9 3.75 -4.85 3.3 -5.75 3.3 -6.6 L3.35 -7.6 Q3.4 -8.45 3.4 -9.0 L3.75 -8.7 M-0.9 -7.15 L0.2 -5.9 0.25 -5.85 0.8 -4.4 1.5 -4.2 Q2.6 -3.9 3.1 -3.6 3.35 -3.45 3.45 -3.3 3.4 -3.15 3.3 -3.05 3.2 -2.95 2.95 -2.95 2.3 -2.95 1.35 -3.3 1.1 -3.4 0.85 -3.55 L1.3 -3.3 1.7 -2.8 Q2.1 -2.75 2.9 -1.75 3.4 -1.15 3.95 -0.25 4.45 0.5 4.45 0.55 4.45 0.65 4.35 0.8 L4.5 1.0 4.45 1.05 4.15 1.0 Q3.9 1.2 3.55 1.2 L2.75 -0.05 2.65 0.0 Q2.3 -0.4 1.9 -1.0 L1.65 -1.4 1.15 -2.1 0.65 -2.95 0.55 -3.15 Q0.5 -3.3 0.5 -3.4 0.55 -3.5 0.6 -3.7 0.1 -3.95 -0.1 -4.35 -0.35 -4.55 -0.55 -4.85 -0.75 -5.3 -0.9 -5.85 L-0.85 -6.1 -0.9 -6.8 -0.9 -7.15 M6.8 1.0 Q6.65 1.05 6.45 1.05 L6.2 1.0 5.95 0.65 Q5.95 0.35 5.7 0.15 L5.55 0.05 5.15 -0.55 4.9 -1.05 4.6 -1.5 4.6 -1.55 Q4.25 -2.45 3.9 -2.95 3.6 -3.75 3.4 -4.45 L3.8 -4.1 Q4.25 -3.65 4.65 -3.4 L4.8 -2.85 Q5.0 -2.35 6.3 -1.05 L7.25 -0.1 7.15 0.6 6.9 0.9 6.8 1.0 M0.8 0.25 L0.5 0.2 0.1 0.2 -0.6 -0.45 -1.35 -1.0 -1.8 -2.25 Q-1.95 -2.7 -1.95 -3.55 L-1.95 -3.7 -1.9 -3.9 -1.9 -4.5 -0.7 -2.35 0.9 0.25 0.8 0.25 M7.5 -5.0 Q7.75 -4.55 8.15 -3.65 8.6 -2.65 8.95 -1.55 L9.2 -0.8 Q9.0 -0.2 8.8 0.15 L8.55 0.1 Q8.55 -0.1 8.4 -0.25 8.25 -0.4 8.0 -0.4 L7.95 -0.4 7.7 -0.8 Q7.65 -1.75 7.35 -2.75 7.2 -3.25 7.05 -3.55 L7.2 -3.7 Q7.35 -4.0 7.35 -4.3 7.35 -4.5 7.25 -4.6 L7.3 -4.7 7.45 -4.9 7.5 -5.0 M-7.45 -20.45 Q-7.25 -20.3 -7.0 -19.9 L-6.25 -18.6 -6.25 -18.3 -6.3 -18.25 Q-6.9 -18.45 -7.2 -18.75 -7.5 -19.0 -7.5 -19.25 L-7.45 -20.45 M-12.05 -17.15 Q-11.85 -17.15 -11.55 -16.65 -11.3 -16.25 -11.05 -15.65 L-10.8 -15.1 -10.8 -15.05 -10.9 -15.05 -10.95 -15.05 -11.35 -15.1 Q-11.75 -15.25 -11.95 -15.75 -12.1 -16.15 -12.1 -16.6 L-12.1 -16.65 -12.05 -17.15 M-5.8 -13.75 Q-5.25 -13.65 -5.0 -13.1 -4.75 -12.4 -4.55 -12.1 L-4.55 -12.05 Q-5.15 -12.2 -5.5 -12.6 L-5.65 -12.85 Q-5.8 -13.1 -5.8 -13.4 L-5.8 -13.75 M-16.55 -14.6 Q-16.3 -14.6 -15.95 -14.25 -15.55 -13.9 -15.3 -13.45 -15.0 -13.0 -15.0 -12.75 L-14.9 -12.55 -14.9 -12.5 -14.95 -11.9 -14.95 -11.85 -14.7 -11.2 -14.6 -10.9 -14.75 -10.75 Q-14.95 -10.55 -15.15 -10.55 -16.35 -10.55 -16.65 -11.9 L-16.85 -12.2 Q-16.95 -12.5 -16.95 -13.2 -16.95 -14.25 -16.8 -14.75 L-16.75 -14.75 -16.55 -14.6 M-13.45 -9.6 L-13.55 -9.7 -13.85 -9.8 Q-14.1 -10.15 -14.35 -10.9 -14.7 -11.85 -14.7 -12.2 -14.7 -12.45 -14.6 -12.6 -14.55 -12.8 -14.3 -13.0 -13.8 -12.4 -13.6 -11.5 -13.45 -10.4 -13.3 -9.85 -13.35 -9.7 -13.45 -9.6 M-14.75 -9.95 Q-14.45 -10.0 -13.95 -9.45 -13.5 -8.95 -13.1 -8.25 -12.75 -7.55 -12.75 -7.2 -12.75 -7.0 -12.8 -6.9 -12.75 -6.65 -12.75 -6.45 -12.75 -5.95 -13.05 -5.8 L-13.45 -5.75 -13.75 -5.8 Q-14.2 -6.15 -14.5 -6.65 -15.15 -7.65 -15.15 -8.7 L-15.1 -9.35 Q-15.05 -9.95 -14.75 -9.95 M-6.15 1.45 L-6.35 1.6 Q-7.05 2.0 -7.2 2.25 -7.05 2.45 -6.45 2.8 L-7.15 2.7 Q-7.95 2.6 -8.5 2.2 -8.75 2.1 -9.15 1.8 -9.65 1.35 -9.65 1.2 -9.65 0.85 -8.6 0.45 L-8.0 0.25 -8.6 0.2 Q-10.15 0.05 -11.05 -0.4 -11.3 -0.8 -11.7 -1.4 -12.55 -2.55 -12.5 -3.05 -11.85 -2.95 -11.35 -2.65 -11.15 -2.55 -10.9 -2.45 L-10.65 -2.45 -10.55 -2.4 -10.5 -2.45 Q-10.35 -2.45 -10.35 -2.55 L-10.3 -2.65 -10.05 -2.7 Q-10.1 -2.8 -10.4 -2.8 L-10.55 -2.95 -10.8 -3.6 -11.3 -4.8 Q-10.75 -4.45 -10.0 -4.45 -9.85 -4.45 -9.7 -4.65 L-9.45 -4.1 -9.1 -3.6 -9.3 -3.55 Q-9.65 -3.4 -10.5 -2.95 -10.35 -2.8 -9.85 -2.8 -9.45 -2.8 -8.95 -3.0 L-8.8 -3.05 -8.7 -3.05 -8.65 -3.1 -7.85 -3.1 Q-8.1 -2.8 -8.1 -2.0 -8.1 -1.05 -7.85 -0.35 -7.75 -0.05 -7.6 0.15 L-6.85 0.15 -6.8 0.2 Q-6.8 0.25 -6.8 0.45 -6.8 0.65 -6.85 0.75 L-7.05 0.9 -7.0 1.2 Q-6.85 1.45 -6.2 1.45 L-6.15 1.45 M-12.65 -5.5 L-12.35 -5.45 Q-12.15 -5.35 -12.0 -5.2 -11.5 -4.7 -11.5 -4.0 -11.5 -3.6 -11.65 -3.45 L-11.6 -3.4 -11.75 -3.4 Q-11.85 -3.35 -12.0 -3.35 L-12.2 -3.5 Q-12.75 -3.55 -12.95 -3.4 L-13.0 -3.4 Q-12.85 -2.9 -12.8 -2.4 L-12.8 -2.3 -12.85 -2.3 -12.85 -2.2 -12.9 -2.25 -13.1 -2.25 Q-14.25 -2.25 -15.2 -4.75 -15.2 -5.25 -15.0 -5.45 L-14.95 -5.45 -14.45 -5.5 -14.4 -5.5 -14.05 -5.55 Q-13.3 -5.6 -12.95 -5.55 L-12.65 -5.5 M-6.3 0.45 Q-6.9 0.1 -7.25 -0.45 -7.6 -1.1 -7.6 -1.95 -7.6 -2.45 -7.55 -2.7 -7.4 -2.65 -7.15 -2.5 L-7.3 -2.55 -7.35 -2.1 Q-7.05 -1.7 -6.2 -0.95 -5.15 -0.05 -4.65 -0.05 L-4.6 -0.05 Q-4.65 0.2 -4.8 0.5 -4.95 -0.3 -6.3 0.45 M-5.4 -1.35 L-4.9 -1.0 -4.75 -0.65 -5.4 -1.35 M-3.8 -6.6 L-3.85 -6.7 Q-4.05 -7.15 -4.05 -7.5 -4.05 -7.9 -3.95 -8.0 -3.75 -8.15 -3.05 -6.6 -3.05 -6.3 -3.05 -6.25 -3.1 -6.2 -3.1 -6.15 -3.2 -6.05 -3.45 -6.05 L-3.55 -6.2 -3.8 -6.6 M-8.3 -11.2 L-8.3 -11.25 Q-7.8 -11.05 -7.5 -10.25 -7.1 -8.95 -6.8 -8.45 -6.85 -8.3 -6.85 -8.25 L-6.9 -8.2 Q-7.35 -8.25 -7.65 -8.65 -7.9 -8.9 -8.05 -9.4 L-8.1 -9.75 Q-8.25 -10.45 -8.3 -11.1 L-8.3 -11.2 M-3.05 -5.45 Q-2.7 -5.3 -2.6 -5.3 L-2.5 -5.3 -2.45 -5.25 -2.5 -5.1 -3.05 -5.45 M-2.5 -3.9 L-2.5 -3.45 -2.55 -2.9 Q-2.25 -2.8 -2.25 -2.4 -2.25 -2.0 -2.35 -1.9 -2.4 -1.85 -2.6 -1.85 L-2.65 -1.7 -2.7 -1.7 -2.75 -1.65 Q-2.85 -1.6 -3.05 -1.6 -3.7 -1.6 -4.05 -2.05 -4.25 -2.3 -4.25 -2.5 -4.25 -2.8 -3.9 -3.0 L-4.3 -4.1 Q-4.55 -4.85 -4.65 -5.4 L-4.55 -5.4 -4.4 -5.5 -4.35 -5.65 -3.9 -5.65 Q-4.35 -5.55 -4.35 -4.8 L-4.05 -4.4 Q-3.65 -3.9 -3.3 -3.9 L-2.5 -3.9 M-3.65 -5.65 L-3.6 -5.65 -3.5 -5.6 -3.6 -5.65 -3.65 -5.65 M-0.55 2.0 L-0.75 2.1 -0.8 2.2 -0.75 2.2 -1.0 2.1 -1.45 2.1 -1.95 1.7 -2.0 1.7 Q-2.75 1.7 -3.65 0.5 L-3.7 0.4 Q-3.7 0.25 -3.75 0.2 L-3.8 0.1 -4.0 0.05 Q-4.4 -0.6 -4.6 -1.15 L-4.55 -1.5 -4.5 -1.5 -4.55 -1.55 -4.5 -2.0 -4.0 -1.75 -3.9 -1.8 Q-3.75 -1.7 -3.7 -1.55 L-3.35 -1.35 -3.3 -1.35 -3.15 -1.3 -2.6 -0.7 Q-1.6 0.5 -0.55 2.0 M2.0 3.2 L1.85 3.3 Q1.4 3.1 0.75 3.0 L-0.45 2.95 -0.7 3.0 -0.7 2.95 -0.65 2.9 -0.65 2.85 -0.6 2.75 -0.55 2.7 -0.55 2.65 -0.15 1.95 -0.05 1.75 0.0 1.75 0.25 1.8 Q0.7 1.9 1.25 2.15 L1.55 2.55 2.0 3.2 M3.5 3.05 L3.55 3.25 3.5 3.25 3.5 3.05 M3.65 3.5 L3.65 4.0 3.6 4.0 3.0 3.95 Q3.5 3.9 3.5 3.4 L3.65 3.5 M-1.85 2.9 L-1.8 2.55 -1.95 2.5 Q-1.65 2.6 -1.35 2.65 L-1.85 2.9 M-4.3 0.85 Q-4.5 1.0 -4.5 1.45 -4.5 1.85 -3.95 2.5 -3.5 3.1 -2.9 3.25 L-3.55 3.35 Q-4.0 3.35 -5.0 2.85 L-6.3 2.2 -6.25 2.15 -6.2 2.2 -5.95 2.1 Q-5.65 1.95 -5.35 1.75 -4.9 1.4 -4.65 1.15 L-4.45 0.85 -4.4 0.8 -4.3 0.85 M-0.85 3.5 L-0.8 3.55 Q-0.75 3.4 -0.45 3.3 L0.9 3.25 0.95 3.7 0.85 3.85 0.55 4.1 0.05 4.1 Q-1.2 4.65 -2.0 4.65 -2.8 4.65 -3.7 4.45 -4.65 4.3 -5.2 4.0 L-5.2 3.95 -4.75 3.6 Q-3.95 3.9 -3.45 3.9 -2.75 3.9 -1.4 3.35 L-1.05 3.2 Q-1.05 3.35 -0.85 3.5" fill="#806d53" fill-rule="evenodd" stroke="none"/>
    <path d="M-15.45 -17.9 Q-15.25 -18.85 -14.2 -20.55 -13.2 -22.15 -12.45 -22.65 -12.35 -23.15 -12.05 -22.95 L-11.95 -22.85 -11.75 -22.8 Q-11.7 -22.75 -11.7 -22.55 -11.45 -22.2 -11.15 -21.65 -10.65 -20.7 -10.25 -19.65 -9.8 -18.6 -9.8 -18.25 -9.8 -18.05 -9.85 -17.9 L-9.95 -17.65 -9.95 -17.6 -10.2 -17.6 Q-10.25 -17.6 -10.7 -18.5 -11.15 -19.35 -11.55 -19.6 -12.15 -19.25 -12.45 -17.65 L-12.65 -16.1 Q-12.65 -15.6 -12.25 -15.25 -11.9 -14.95 -11.4 -14.8 -11.45 -14.55 -11.5 -14.35 -10.9 -13.75 -10.6 -13.05 -10.5 -12.6 -10.1 -11.9 L-9.25 -10.4 -8.6 -9.35 -7.95 -8.35 Q-7.7 -8.4 -7.45 -8.3 -7.1 -8.15 -6.8 -7.9 L-6.75 -7.85 -6.5 -7.9 Q-5.7 -7.9 -5.55 -7.25 -5.55 -7.05 -5.55 -6.8 L-5.6 -6.5 Q-5.6 -6.35 -5.25 -5.5 -4.95 -5.15 -4.7 -4.7 -4.3 -4.0 -4.3 -3.6 -4.3 -3.25 -4.45 -3.1 L-4.5 -2.85 -4.6 -2.65 Q-4.8 -2.35 -5.15 -2.3 L-5.1 -1.7 -5.5 -2.05 -5.65 -2.15 -6.0 -2.45 Q-6.5 -2.65 -7.15 -3.2 L-7.3 -3.3 -7.65 -3.6 -8.0 -3.55 -8.1 -3.55 Q-9.05 -3.6 -9.2 -4.15 -9.25 -4.4 -9.2 -4.75 L-9.2 -4.95 -9.25 -4.95 Q-9.45 -5.0 -9.8 -4.95 L-10.1 -4.9 -10.35 -4.85 -10.4 -4.85 -10.45 -4.85 Q-11.55 -4.85 -12.1 -5.9 -12.3 -6.25 -12.4 -6.65 L-12.4 -6.7 Q-12.6 -7.15 -12.7 -7.6 L-12.8 -7.8 -13.2 -8.85 -12.75 -8.8 -12.55 -8.8 -12.5 -8.6 -12.45 -8.65 -12.2 -8.85 Q-12.05 -9.95 -12.05 -10.1 -12.05 -10.7 -12.3 -11.8 -12.5 -12.3 -12.65 -12.5 -13.45 -13.75 -14.7 -14.0 L-14.7 -13.2 Q-14.9 -14.3 -15.1 -15.35 -15.3 -17.0 -15.45 -17.9 M-8.95 -14.85 L-8.95 -15.1 Q-8.85 -15.3 -8.55 -15.25 L-8.3 -15.0 -8.2 -14.85 Q-8.3 -14.65 -8.55 -14.45 L-8.9 -14.75 -8.95 -14.85 M-9.55 -13.75 Q-9.55 -13.9 -9.35 -14.05 -9.15 -14.15 -9.15 -14.3 L-8.9 -14.1 Q-8.75 -13.95 -8.75 -13.8 L-8.75 -13.55 -8.8 -13.5 -8.9 -13.45 -9.15 -13.3 -9.45 -13.65 Q-9.55 -13.7 -9.55 -13.75" fill="#8c8c8c" fill-rule="evenodd" stroke="none"/>
    <path d="M-10.1 -4.9 L-10.35 -4.85 -10.1 -4.9" fill="#cccccc" fill-rule="evenodd" stroke="none"/>
  </g>
</svg>
