<?xml version="1.0" encoding="UTF-8" standalone="no"?>
<svg xmlns:ffdec="https://www.free-decompiler.com/flash" xmlns:xlink="http://www.w3.org/1999/xlink" ffdec:objectType="shape" height="21.15px" width="13.8px" xmlns="http://www.w3.org/2000/svg">
  <g transform="matrix(1.0, 0.0, 0.0, 1.0, 8.5, 19.1)">
    <path d="M2.65 -10.25 L2.65 -9.8 Q2.65 -9.2 2.8 -8.9 2.85 -8.45 2.95 -8.1 3.0 -7.9 3.1 -7.7 3.2 -7.3 3.35 -6.95 L4.1 -5.55 Q4.45 -4.8 4.75 -4.0 4.25 -3.75 3.65 -3.7 L2.55 -3.75 2.55 -3.95 Q2.55 -4.1 2.4 -4.45 2.35 -4.7 2.3 -4.85 2.35 -5.45 2.45 -6.0 L2.3 -6.05 Q2.25 -6.05 2.2 -5.95 L2.05 -5.0 Q1.95 -4.4 1.95 -4.2 1.95 -3.55 2.25 -2.85 L2.3 -2.7 2.3 -2.6 1.0 -2.6 Q0.95 -2.65 0.3 -3.4 L-0.15 -3.95 Q-0.2 -4.35 -0.1 -4.6 0.1 -5.05 0.15 -5.35 0.15 -5.55 0.1 -5.7 -0.35 -5.4 -0.35 -5.35 L-0.5 -5.0 Q-0.6 -4.6 -0.6 -4.25 L-0.65 -4.3 Q-0.7 -4.3 -0.75 -4.15 -0.95 -3.65 -0.3 -2.6 L-0.25 -2.45 -0.4 -2.15 Q-0.85 -1.6 -1.75 -1.9 -1.95 -1.95 -2.3 -3.7 L-2.4 -4.2 -2.55 -4.85 -2.9 -6.9 -2.95 -6.85 -2.95 -7.7 -3.0 -8.3 -3.05 -8.85 -3.05 -8.9 Q-2.95 -9.1 -2.7 -9.3 -2.7 -8.7 -2.55 -8.3 L-2.3 -7.7 -2.0 -7.15 -1.6 -7.25 -1.45 -7.7 -1.2 -8.55 Q-0.95 -9.5 -0.9 -10.2 -0.35 -10.6 0.6 -10.6 L1.1 -10.55 Q2.15 -10.55 2.65 -10.25" fill="#cccccc" fill-rule="evenodd" stroke="none"/>
    <path d="M2.3 -15.35 Q2.5 -15.25 2.65 -14.95 L3.0 -14.35 Q3.1 -14.2 3.25 -13.65 3.35 -13.15 3.35 -13.0 L3.3 -12.4 Q3.2 -11.9 3.2 -11.75 L3.2 -11.45 3.25 -10.75 3.25 -10.6 3.35 -10.05 3.4 -9.7 3.35 -9.4 Q3.35 -9.2 3.45 -8.65 L3.5 -8.6 3.55 -8.25 3.6 -8.15 3.7 -8.15 3.8 -7.7 3.95 -7.25 Q4.1 -6.75 4.3 -6.4 L4.35 -6.25 Q4.75 -5.5 5.0 -4.9 5.2 -4.4 5.3 -3.8 L5.3 -3.45 Q5.3 -3.3 5.25 -3.2 L5.2 -2.7 Q5.1 -1.85 5.05 -1.7 4.9 -1.3 4.4 -0.95 L4.35 -0.8 Q4.1 -0.15 3.1 0.65 1.95 1.6 0.9 1.35 L0.15 1.75 0.0 1.8 Q-1.0 2.2 -1.85 1.9 -2.6 1.65 -2.8 1.35 -3.5 1.4 -4.15 1.15 -5.6 0.65 -6.05 -0.1 -6.35 -0.5 -6.2 -0.8 L-5.5 -0.95 Q-4.8 -1.1 -4.55 -1.35 -4.35 -1.55 -4.25 -1.9 L-4.05 -2.65 -4.0 -2.6 -4.05 -2.8 Q-3.95 -2.9 -3.95 -3.1 -3.95 -3.85 -4.6 -4.95 L-4.6 -5.05 -4.75 -5.25 -5.1 -6.3 Q-5.1 -6.95 -5.05 -7.4 L-5.0 -7.7 -5.0 -7.8 -4.9 -8.2 -4.9 -8.25 -4.8 -9.4 Q-4.8 -10.25 -5.2 -12.65 L-5.35 -13.7 -5.55 -14.65 Q-5.8 -15.35 -7.2 -15.65 L-8.1 -15.85 Q-8.5 -15.95 -8.5 -16.15 -8.5 -16.45 -6.7 -17.75 -4.8 -19.1 -4.05 -19.1 -3.9 -19.1 -3.25 -18.8 -2.6 -18.5 -2.35 -18.5 L-1.95 -18.55 -1.75 -18.55 -1.65 -18.6 Q0.3 -18.6 1.25 -18.15 L1.5 -17.45 1.45 -17.35 Q1.45 -17.25 1.3 -17.25 L1.25 -17.3 Q1.0 -17.35 0.65 -17.6 0.25 -18.0 -0.25 -18.05 L-0.6 -18.05 -1.4 -18.0 -2.35 -17.95 -2.5 -18.0 -2.5 -17.95 Q-2.65 -18.0 -2.95 -17.85 -3.2 -17.75 -3.35 -17.55 L-3.55 -17.6 Q-4.35 -16.75 -4.65 -15.4 L-4.65 -15.25 -4.8 -14.35 Q-4.5 -13.7 -4.4 -13.3 L-4.25 -13.0 Q-3.85 -12.05 -3.4 -11.75 -2.95 -11.3 -2.75 -10.55 L-2.5 -9.3 -2.5 -8.85 -2.6 -8.8 -2.7 -9.4 -2.75 -9.55 -2.8 -10.0 Q-2.85 -10.45 -3.15 -10.6 L-3.25 -10.65 -3.45 -10.7 Q-3.65 -10.85 -3.75 -10.9 L-3.75 -10.95 -4.35 -11.6 -4.15 -9.15 -4.1 -8.15 -4.15 -8.0 -4.15 -7.7 Q-4.2 -7.25 -4.2 -6.45 L-4.15 -6.3 -4.05 -5.55 Q-4.0 -5.25 -3.85 -4.95 L-3.75 -4.75 -3.65 -4.65 -3.65 -4.05 Q-3.35 -3.35 -3.4 -2.8 L-3.45 -2.75 -3.5 -2.55 Q-3.6 -2.35 -3.35 -1.4 -3.1 -0.45 -2.85 0.05 L-2.25 0.3 -2.05 0.3 Q-1.95 0.35 -1.85 0.4 L-1.75 0.4 Q-1.35 0.45 -0.85 0.1 -0.45 -0.25 -0.35 -0.45 -0.05 -1.25 -0.1 -1.9 -0.1 -2.15 -0.2 -2.5 L-0.35 -2.9 Q-0.6 -3.5 -0.6 -3.9 L-0.6 -4.25 Q-0.6 -4.6 -0.5 -5.0 L-0.35 -5.35 Q-0.35 -5.4 0.1 -5.7 0.15 -5.55 0.15 -5.35 0.1 -5.05 -0.1 -4.6 -0.2 -4.35 -0.15 -3.95 -0.1 -3.5 0.05 -2.95 L0.2 -2.65 0.2 -2.5 Q0.5 -1.65 0.45 -1.15 L0.4 -1.0 Q0.35 -0.9 0.35 -0.3 L0.3 -0.05 0.8 -0.15 Q1.95 -0.45 2.15 -1.0 2.35 -1.5 2.3 -2.6 L2.3 -2.7 2.25 -2.85 Q1.95 -3.55 1.95 -4.2 1.95 -4.4 2.05 -5.0 L2.2 -5.95 Q2.25 -6.05 2.3 -6.05 L2.45 -6.0 Q2.35 -5.45 2.3 -4.85 2.35 -4.7 2.4 -4.45 2.55 -4.1 2.55 -3.95 L2.55 -3.75 Q2.55 -3.3 2.7 -2.85 2.9 -2.35 2.9 -1.65 L3.25 -1.6 Q3.95 -1.55 4.15 -2.1 4.25 -2.3 4.45 -2.65 L4.75 -3.2 4.8 -3.25 4.85 -3.7 4.75 -4.0 Q4.45 -4.8 4.1 -5.55 L3.35 -6.95 Q3.2 -7.3 3.1 -7.7 3.0 -7.9 2.95 -8.1 2.85 -8.45 2.8 -8.9 2.65 -9.2 2.65 -9.8 L2.65 -10.25 Q2.65 -10.75 2.7 -11.45 L2.75 -11.7 2.75 -11.85 Q2.75 -12.5 2.6 -13.35 L2.55 -13.55 2.2 -15.35 2.3 -15.35 M2.6 -0.7 Q2.4 -0.15 1.65 0.4 1.5 0.5 1.4 0.6 L1.4 0.8 Q2.15 0.85 2.65 0.5 3.0 0.25 3.35 -0.35 L3.5 -0.65 Q3.2 -0.6 2.9 -0.75 2.75 -0.75 2.65 -0.85 L2.6 -0.7 M0.1 0.9 L0.0 0.9 -0.2 0.8 -0.5 0.9 -1.15 1.0 -1.65 0.95 Q-1.75 1.1 -2.15 1.2 -2.05 1.3 -1.85 1.35 -1.35 1.55 -0.75 1.35 -0.35 1.2 0.0 0.95 L0.1 0.9 M-5.25 -18.0 Q-5.65 -17.85 -6.1 -17.55 -7.2 -16.9 -7.65 -16.45 L-6.2 -15.85 Q-5.55 -15.55 -5.25 -15.2 L-5.2 -15.3 Q-4.75 -15.75 -4.6 -16.2 -4.4 -16.65 -4.2 -17.05 -3.85 -17.55 -3.55 -17.6 L-3.55 -17.65 Q-3.3 -17.75 -3.3 -17.95 L-3.3 -18.1 -3.35 -18.2 Q-3.5 -18.25 -3.65 -18.25 L-4.1 -18.35 -4.5 -18.3 Q-4.75 -18.25 -5.0 -18.1 L-5.25 -18.05 -5.25 -18.0 M-4.3 -0.55 Q-4.75 -0.3 -5.65 -0.45 -5.45 0.15 -4.65 0.4 -3.35 0.85 -2.8 0.65 -3.95 0.15 -4.25 -0.55 L-4.3 -0.55" fill="#111111" fill-rule="evenodd" stroke="none"/>
    <path d="M1.25 -17.3 L1.3 -17.2 Q1.7 -16.75 1.75 -16.5 L2.3 -15.35 2.2 -15.35 2.55 -13.55 2.6 -13.35 Q2.75 -12.5 2.75 -11.85 L2.75 -11.7 2.7 -11.45 Q2.65 -10.75 2.65 -10.25 2.15 -10.55 1.1 -10.55 L0.6 -10.6 Q-0.35 -10.6 -0.9 -10.2 -0.95 -9.5 -1.2 -8.55 L-1.45 -7.7 -1.6 -7.25 -2.0 -7.15 -2.3 -7.7 -2.55 -8.3 Q-2.7 -8.7 -2.7 -9.3 -2.95 -9.1 -3.05 -8.9 L-3.05 -8.85 -3.0 -8.3 -2.95 -7.7 -2.95 -6.85 -2.9 -6.9 -2.55 -4.85 -2.4 -4.2 -2.3 -3.7 Q-1.95 -1.95 -1.75 -1.9 -0.85 -1.6 -0.4 -2.15 L-0.25 -2.45 -0.3 -2.6 Q-0.95 -3.65 -0.75 -4.15 -0.7 -4.3 -0.65 -4.3 L-0.6 -4.25 -0.6 -3.9 Q-0.6 -3.5 -0.35 -2.9 L-0.2 -2.5 Q-0.1 -2.15 -0.1 -1.9 -0.05 -1.25 -0.35 -0.45 -0.45 -0.25 -0.85 0.1 -1.35 0.45 -1.75 0.4 L-1.85 0.4 Q-1.95 0.35 -2.05 0.3 L-2.25 0.3 -2.85 0.05 Q-3.1 -0.45 -3.35 -1.4 -3.6 -2.35 -3.5 -2.55 L-3.45 -2.75 -3.4 -2.8 Q-3.35 -3.35 -3.65 -4.05 L-3.65 -4.65 -3.75 -4.75 -3.85 -4.95 Q-4.0 -5.25 -4.05 -5.55 L-4.15 -6.3 -4.2 -6.45 Q-4.2 -7.25 -4.15 -7.7 L-4.15 -8.0 -4.1 -8.15 -4.15 -9.15 -4.35 -11.6 -3.75 -10.95 -3.75 -10.9 Q-3.65 -10.85 -3.45 -10.7 L-3.25 -10.65 -3.15 -10.6 Q-2.85 -10.45 -2.8 -10.0 L-2.75 -9.55 -2.7 -9.4 -2.6 -8.8 -2.5 -8.85 -2.5 -9.3 -2.75 -10.55 Q-2.95 -11.3 -3.4 -11.75 -3.85 -12.05 -4.25 -13.0 L-4.4 -13.3 Q-4.5 -13.7 -4.8 -14.35 L-4.65 -15.25 -4.65 -15.4 Q-4.35 -16.75 -3.55 -17.6 L-3.35 -17.55 Q-3.2 -17.75 -2.95 -17.85 -2.65 -18.0 -2.5 -17.95 L-2.5 -18.0 -2.35 -17.95 -1.4 -18.0 -0.6 -18.05 -0.25 -18.05 Q0.25 -18.0 0.65 -17.6 1.0 -17.35 1.25 -17.3 M4.75 -4.0 L4.85 -3.7 4.8 -3.25 4.75 -3.2 4.45 -2.65 Q4.25 -2.3 4.15 -2.1 3.95 -1.55 3.25 -1.6 L2.9 -1.65 Q2.9 -2.35 2.7 -2.85 2.55 -3.3 2.55 -3.75 L3.65 -3.7 Q4.25 -3.75 4.75 -4.0 M2.3 -2.7 L2.3 -2.6 Q2.35 -1.5 2.15 -1.0 1.95 -0.45 0.8 -0.15 L0.3 -0.05 0.35 -0.3 Q0.35 -0.9 0.4 -1.0 L0.45 -1.15 Q0.5 -1.65 0.2 -2.5 L0.2 -2.65 0.05 -2.95 Q-0.1 -3.5 -0.15 -3.95 L0.3 -3.4 Q0.95 -2.65 1.0 -2.6 L2.3 -2.6 2.3 -2.7" fill="#8c8c8c" fill-rule="evenodd" stroke="none"/>
    <path d="M0.1 0.9 L0.0 0.95 Q-0.35 1.2 -0.75 1.35 -1.35 1.55 -1.85 1.35 -2.05 1.3 -2.15 1.2 -1.75 1.1 -1.65 0.95 L-1.15 1.0 -0.5 0.9 -0.2 0.8 0.0 0.9 0.1 0.9 M2.6 -0.7 L2.65 -0.85 Q2.75 -0.75 2.9 -0.75 3.2 -0.6 3.5 -0.65 L3.35 -0.35 Q3.0 0.25 2.65 0.5 2.15 0.85 1.4 0.8 L1.4 0.6 Q1.5 0.5 1.65 0.4 2.4 -0.15 2.6 -0.7 M-5.25 -18.0 L-5.4 -17.95 Q-6.35 -17.4 -6.9 -16.8 -6.75 -16.8 -6.15 -17.2 -5.6 -17.55 -5.2 -17.55 L-4.6 -17.5 Q-4.2 -17.5 -4.2 -17.9 -4.2 -18.3 -4.5 -18.3 L-4.1 -18.35 -3.65 -18.25 Q-3.5 -18.25 -3.35 -18.2 L-3.3 -18.1 -3.3 -17.95 Q-3.3 -17.75 -3.55 -17.65 L-3.55 -17.6 Q-3.85 -17.55 -4.2 -17.05 -4.4 -16.65 -4.6 -16.2 -4.75 -15.75 -5.2 -15.3 L-5.25 -15.2 Q-5.55 -15.55 -6.2 -15.85 L-7.65 -16.45 Q-7.2 -16.9 -6.1 -17.55 -5.65 -17.85 -5.25 -18.0 M-4.3 -0.55 L-4.25 -0.55 Q-3.95 0.15 -2.8 0.65 -3.35 0.85 -4.65 0.4 -5.45 0.15 -5.65 -0.45 -4.75 -0.3 -4.3 -0.55" fill="#262626" fill-rule="evenodd" stroke="none"/>
    <path d="M-4.5 -18.3 Q-4.2 -18.3 -4.2 -17.9 -4.2 -17.5 -4.6 -17.5 L-5.2 -17.55 Q-5.6 -17.55 -6.15 -17.2 -6.75 -16.8 -6.9 -16.8 -6.35 -17.4 -5.4 -17.95 L-5.25 -18.0 -5.25 -18.05 -5.0 -18.1 Q-4.75 -18.25 -4.5 -18.3" fill="#515151" fill-rule="evenodd" stroke="none"/>
  </g>
</svg>
