<?xml version="1.0" encoding="UTF-8" standalone="no"?>
<svg xmlns:ffdec="https://www.free-decompiler.com/flash" xmlns:xlink="http://www.w3.org/1999/xlink" ffdec:objectType="shape" height="21.8px" width="13.0px" xmlns="http://www.w3.org/2000/svg">
  <g transform="matrix(1.0, 0.0, 0.0, 1.0, 8.85, 23.35)">
    <path d="M1.75 -9.45 L1.55 -9.15 Q0.8 -8.15 0.55 -7.6 L0.4 -7.4 0.2 -7.0 0.2 -6.95 0.05 -6.75 -0.2 -6.25 Q-0.35 -5.9 -0.4 -5.5 -0.65 -5.2 -1.0 -4.85 L-1.5 -4.5 -1.55 -4.75 Q-1.75 -5.25 -1.8 -5.35 L-1.95 -5.25 -2.05 -4.95 Q-2.15 -4.45 -2.95 -3.85 L-3.65 -3.45 Q-3.55 -3.75 -3.5 -4.1 -3.45 -4.2 -3.5 -4.55 L-3.55 -4.75 Q-3.7 -5.35 -3.8 -5.45 -4.05 -5.25 -4.7 -4.6 -5.35 -3.95 -5.35 -3.85 L-5.45 -3.7 -5.9 -3.5 -6.15 -3.5 Q-6.0 -3.55 -5.9 -3.65 L-5.6 -4.0 -5.5 -4.05 -4.75 -4.8 Q-4.15 -5.4 -4.0 -5.7 L-4.25 -5.75 Q-4.85 -5.65 -5.5 -5.5 L-6.2 -5.3 -5.8 -5.65 -5.55 -5.95 Q-5.2 -5.95 -4.25 -7.3 -3.45 -8.5 -3.3 -8.95 L-3.25 -9.1 -3.25 -9.15 Q-3.2 -9.3 -3.3 -9.3 L-3.45 -9.35 -3.5 -9.35 -3.75 -9.2 Q-4.35 -8.85 -4.95 -8.25 L-4.9 -8.75 Q-4.85 -9.0 -4.7 -9.35 L-4.55 -9.55 -4.35 -9.85 -4.1 -9.85 -4.05 -10.15 Q-3.8 -10.65 -3.8 -10.75 -3.8 -10.85 -3.7 -11.05 -3.55 -11.3 -3.55 -11.4 -3.55 -11.7 -3.4 -12.0 L-3.35 -12.15 -2.95 -12.85 -3.55 -12.2 -5.15 -10.6 -5.55 -10.1 -5.65 -10.0 -5.6 -10.15 -5.45 -10.65 Q-5.1 -11.65 -4.1 -12.9 L-3.1 -14.0 Q-2.2 -13.75 -1.65 -13.45 -1.05 -13.1 -0.45 -12.5 L0.35 -11.45 1.6 -9.6 1.65 -9.6 1.7 -9.55 1.75 -9.45 M-4.6 -15.95 L-4.6 -15.95" fill="#cccccc" fill-rule="evenodd" stroke="none"/>
    <path d="M4.05 -13.5 Q4.15 -13.05 4.15 -12.7 L4.15 -12.55 Q3.7 -11.8 3.4 -10.95 L3.5 -10.95 Q3.0 -10.25 2.6 -9.4 L2.55 -9.4 2.05 -8.65 1.8 -8.15 1.75 -7.95 Q1.75 -7.8 1.3 -7.1 L0.75 -6.4 0.7 -6.2 0.65 -6.05 Q0.4 -5.25 0.0 -4.35 -0.95 -2.25 -2.1 -2.05 L-2.6 -2.05 -2.7 -1.95 -3.1 -1.8 Q-3.55 -1.55 -4.7 -1.55 L-4.8 -1.65 Q-4.85 -1.5 -4.8 -1.8 -4.8 -1.95 -4.6 -2.0 -4.45 -2.05 -4.45 -2.2 L-4.45 -2.25 Q-5.3 -1.5 -6.9 -1.7 -7.15 -1.7 -7.35 -1.95 -7.5 -2.15 -7.5 -2.3 -6.95 -2.6 -6.45 -2.95 L-6.35 -3.0 -6.5 -3.05 -6.7 -3.15 -7.4 -2.8 -7.5 -2.8 Q-8.45 -2.55 -8.6 -2.55 L-8.8 -2.6 -8.85 -2.75 -8.35 -4.05 -8.05 -4.85 -7.95 -4.9 Q-7.75 -6.45 -7.0 -7.55 L-7.0 -8.05 -6.9 -8.6 -6.85 -8.8 -7.05 -8.85 Q-7.2 -8.85 -7.3 -8.95 L-7.45 -9.0 Q-7.5 -9.05 -7.5 -9.25 -7.5 -9.5 -7.05 -10.45 L-6.7 -11.05 -6.6 -11.3 -6.6 -11.35 -7.4 -11.5 Q-7.45 -11.5 -7.45 -11.7 -7.4 -12.05 -6.75 -12.8 L-6.5 -13.4 -6.35 -13.65 -6.9 -13.6 -7.3 -13.55 -7.45 -13.6 Q-7.5 -13.65 -7.5 -13.8 -7.4 -14.6 -6.05 -15.25 L-5.95 -15.35 -5.85 -15.4 -5.3 -15.7 -5.15 -15.75 Q-5.8 -16.0 -6.0 -16.15 L-6.15 -16.25 -6.25 -16.25 -6.5 -16.55 Q-6.15 -16.7 -5.85 -16.9 -5.3 -16.95 -4.8 -17.15 -4.25 -17.2 -3.55 -17.45 L-3.35 -17.4 -2.85 -17.5 -2.05 -17.7 -1.95 -17.7 -1.35 -17.75 -0.7 -17.85 Q-0.15 -17.8 0.4 -17.6 L0.6 -17.55 0.25 -17.6 Q1.5 -17.15 2.7 -15.8 3.35 -15.05 3.75 -14.25 3.95 -13.85 4.05 -13.5 M1.75 -9.45 L1.85 -9.5 1.9 -9.55 1.95 -9.55 2.2 -9.95 2.2 -10.0 2.25 -10.3 2.3 -10.45 2.3 -10.5 2.5 -10.8 2.95 -11.4 3.15 -11.65 Q3.35 -12.5 3.4 -12.9 3.45 -14.05 2.35 -15.5 1.1 -17.05 -0.35 -17.15 L-1.7 -17.0 -2.75 -16.85 -3.35 -16.9 -4.0 -16.8 -4.25 -16.7 Q-4.65 -16.5 -5.1 -16.45 L-5.3 -16.3 -5.25 -16.25 -5.2 -16.25 -5.1 -16.15 -5.05 -16.15 Q-5.0 -16.1 -4.9 -16.05 L-4.6 -15.95 -4.3 -15.95 -3.55 -16.15 Q-3.7 -15.8 -4.25 -15.55 -4.5 -15.3 -5.1 -15.1 L-5.6 -14.9 -6.15 -14.65 Q-6.4 -14.55 -6.5 -14.45 L-6.3 -14.4 Q-6.1 -14.3 -5.95 -14.15 L-5.55 -14.15 Q-5.55 -14.1 -5.5 -14.1 -5.55 -14.0 -5.7 -13.9 L-5.7 -13.85 -5.2 -14.35 Q-4.55 -14.9 -4.2 -15.0 L-4.1 -14.95 -3.95 -14.9 Q-4.55 -14.6 -5.05 -14.15 -5.35 -13.9 -5.6 -13.55 L-5.75 -13.25 Q-6.3 -12.4 -6.6 -12.0 -6.25 -12.1 -5.95 -12.35 -5.65 -12.6 -5.5 -12.9 L-5.25 -12.85 -5.2 -12.85 Q-5.15 -12.85 -5.2 -12.7 -5.2 -12.3 -5.7 -11.4 L-6.25 -10.45 -6.4 -10.25 -6.4 -9.9 -6.45 -9.9 -6.45 -9.8 -6.35 -9.9 -5.95 -9.9 -6.05 -9.65 -6.15 -9.35 -6.15 -8.8 -6.2 -8.65 -6.2 -8.6 -5.7 -9.05 -5.9 -8.55 Q-6.25 -7.75 -6.3 -7.5 L-6.3 -7.25 -6.9 -5.85 -6.9 -5.75 -7.3 -4.85 -6.75 -5.1 -6.4 -5.25 -6.2 -5.3 -5.5 -5.5 Q-4.85 -5.65 -4.25 -5.75 L-4.0 -5.7 Q-4.15 -5.4 -4.75 -4.8 L-5.5 -4.05 -5.6 -4.0 -5.9 -3.65 Q-6.0 -3.55 -6.15 -3.5 L-5.9 -3.5 -5.65 -3.5 Q-5.5 -3.6 -5.45 -3.7 L-5.35 -3.85 Q-5.35 -3.95 -4.7 -4.6 -4.05 -5.25 -3.8 -5.45 -3.7 -5.35 -3.55 -4.75 L-3.5 -4.55 Q-3.45 -4.2 -3.5 -4.1 -3.55 -3.75 -3.65 -3.45 L-2.95 -3.85 Q-2.15 -4.45 -2.05 -4.95 L-1.95 -5.25 -1.8 -5.35 Q-1.75 -5.25 -1.55 -4.75 L-1.5 -4.5 -1.0 -4.85 Q-0.65 -5.2 -0.4 -5.5 -0.35 -5.9 -0.2 -6.25 L0.05 -6.75 0.2 -6.95 0.2 -7.0 0.4 -7.4 0.55 -7.6 Q0.8 -8.15 1.55 -9.15 L1.75 -9.45 M-1.55 -23.35 L-1.5 -23.35 -1.65 -23.25 -1.6 -23.35 -1.55 -23.35 M-7.7 -3.6 L-7.8 -3.4 -7.75 -3.4 -7.35 -3.35 Q-6.95 -3.45 -6.25 -3.9 -5.3 -4.6 -4.95 -5.25 -6.05 -5.0 -6.45 -4.8 -7.3 -4.35 -7.7 -3.6 M-4.7 -3.1 Q-4.1 -3.7 -4.05 -4.3 L-4.1 -4.55 -4.1 -4.6 Q-4.3 -4.5 -4.7 -4.05 L-4.75 -4.0 Q-5.15 -3.55 -5.2 -3.35 -5.2 -3.2 -5.8 -2.7 L-6.5 -2.15 -6.55 -2.1 Q-5.75 -2.3 -5.05 -2.8 L-4.75 -3.1 -4.7 -3.1 M-2.8 -2.5 L-2.7 -2.55 Q-2.5 -2.8 -2.3 -3.15 L-2.2 -3.35 -2.2 -3.5 -2.1 -3.65 Q-1.9 -4.15 -2.0 -4.55 L-2.0 -4.5 Q-2.0 -4.15 -2.9 -3.3 -3.65 -2.55 -3.6 -2.05 L-3.45 -2.1 -3.35 -2.15 -3.0 -2.25 -2.9 -2.35 -2.85 -2.4 -2.85 -2.45 -2.8 -2.5 M-0.75 -3.9 Q-0.55 -4.15 -0.5 -4.45 L-0.5 -4.55 -0.35 -4.8 -0.4 -4.9 -0.55 -4.85 -0.75 -4.7 -0.85 -4.6 -1.05 -4.35 Q-1.05 -4.3 -1.5 -3.75 -1.9 -3.25 -2.2 -3.05 L-2.2 -2.9 Q-2.1 -2.95 -2.0 -3.0 L-1.95 -3.0 -2.0 -2.95 -1.95 -2.95 -1.8 -3.0 -1.75 -3.0 -1.25 -3.3 -0.9 -3.65 -0.75 -3.9" fill="#111111" fill-rule="evenodd" stroke="none"/>
    <path d="M0.6 -17.55 Q1.75 -16.95 2.85 -15.85 3.5 -15.05 3.85 -14.2 4.0 -13.85 4.05 -13.5 3.95 -13.85 3.75 -14.25 3.35 -15.05 2.7 -15.8 1.5 -17.15 0.25 -17.6 L0.6 -17.55 M-4.6 -15.95 L-4.9 -16.05 Q-5.0 -16.1 -5.05 -16.15 L-5.1 -16.15 -5.2 -16.25 -5.25 -16.25 -5.3 -16.3 -5.1 -16.45 Q-4.65 -16.5 -4.25 -16.7 L-4.0 -16.8 -3.35 -16.9 -2.75 -16.85 -1.7 -17.0 -0.35 -17.15 Q1.1 -17.05 2.35 -15.5 3.45 -14.05 3.4 -12.9 3.35 -12.5 3.15 -11.65 L2.95 -11.4 2.5 -10.8 2.3 -10.5 2.3 -10.45 2.25 -10.3 2.2 -10.0 2.2 -9.95 1.95 -9.55 1.9 -9.55 1.85 -9.5 1.75 -9.45 1.7 -9.55 1.65 -9.6 1.6 -9.6 0.35 -11.45 -0.45 -12.5 Q-1.05 -13.1 -1.65 -13.45 -2.2 -13.75 -3.1 -14.0 L-4.1 -12.9 Q-5.1 -11.65 -5.45 -10.65 L-5.6 -10.15 -5.65 -10.0 -5.55 -10.1 -5.15 -10.6 -3.55 -12.2 -2.95 -12.85 -3.35 -12.15 -3.4 -12.0 Q-3.55 -11.7 -3.55 -11.4 -3.55 -11.3 -3.7 -11.05 -3.8 -10.85 -3.8 -10.75 -3.8 -10.65 -4.05 -10.15 L-4.1 -9.85 -4.35 -9.85 -4.55 -9.55 -4.7 -9.35 Q-4.85 -9.0 -4.9 -8.75 L-4.95 -8.25 Q-4.35 -8.85 -3.75 -9.2 L-3.5 -9.35 -3.45 -9.35 -3.3 -9.3 Q-3.2 -9.3 -3.25 -9.15 L-3.25 -9.1 -3.3 -8.95 Q-3.45 -8.5 -4.25 -7.3 -5.2 -5.95 -5.55 -5.95 L-5.8 -5.65 -6.2 -5.3 -6.4 -5.25 -6.75 -5.1 -7.3 -4.85 -6.9 -5.75 -6.9 -5.85 -6.3 -7.25 -6.3 -7.5 Q-6.25 -7.75 -5.9 -8.55 L-5.7 -9.05 -6.2 -8.6 -6.2 -8.65 -6.15 -8.8 -6.15 -9.35 -6.05 -9.65 -5.95 -9.9 -6.35 -9.9 -6.45 -9.8 -6.45 -9.9 -6.4 -9.9 -6.4 -10.25 -6.25 -10.45 -5.7 -11.4 Q-5.2 -12.3 -5.2 -12.7 -5.15 -12.85 -5.2 -12.85 L-5.25 -12.85 -5.5 -12.9 Q-5.65 -12.6 -5.95 -12.35 -6.25 -12.1 -6.6 -12.0 -6.3 -12.4 -5.75 -13.25 L-5.6 -13.55 Q-5.35 -13.9 -5.05 -14.15 -4.55 -14.6 -3.95 -14.9 L-4.1 -14.95 -4.2 -15.0 Q-4.55 -14.9 -5.2 -14.35 L-5.7 -13.85 -5.7 -13.9 Q-5.55 -14.0 -5.5 -14.1 -5.55 -14.1 -5.55 -14.15 L-5.95 -14.15 Q-6.1 -14.3 -6.3 -14.4 L-6.5 -14.45 Q-6.4 -14.55 -6.15 -14.65 L-5.6 -14.9 -5.1 -15.1 Q-4.5 -15.3 -4.25 -15.55 -3.7 -15.8 -3.55 -16.15 L-4.3 -15.95 -4.6 -15.95 -4.6 -15.95" fill="#8c8c8c" fill-rule="evenodd" stroke="none"/>
    <path d="M-7.35 -3.35 L-6.3 -4.1 -6.3 -4.15 Q-6.7 -4.0 -7.7 -3.6 -7.3 -4.35 -6.45 -4.8 -6.05 -5.0 -4.95 -5.25 -5.3 -4.6 -6.25 -3.9 -6.95 -3.45 -7.35 -3.35 M-5.05 -2.8 Q-5.75 -2.3 -6.55 -2.1 L-6.5 -2.15 -5.8 -2.7 Q-5.2 -3.2 -5.2 -3.35 -5.15 -3.55 -4.75 -4.0 L-4.7 -4.05 Q-4.3 -4.5 -4.1 -4.6 L-4.1 -4.55 -4.05 -4.3 Q-4.1 -3.7 -4.7 -3.1 -4.55 -3.3 -4.55 -3.4 L-4.5 -3.6 -4.5 -3.65 -4.7 -3.65 Q-4.7 -3.55 -4.85 -3.4 -5.0 -3.25 -5.0 -3.1 -5.05 -2.9 -5.2 -2.7 L-5.05 -2.8 M-2.8 -2.5 Q-2.4 -3.2 -2.35 -3.4 -2.3 -3.55 -2.35 -3.6 L-2.4 -3.7 -2.5 -3.7 Q-2.65 -3.0 -3.15 -2.4 L-3.35 -2.15 -3.45 -2.1 -3.6 -2.05 Q-3.65 -2.55 -2.9 -3.3 -2.0 -4.15 -2.0 -4.5 L-2.0 -4.55 Q-1.9 -4.15 -2.1 -3.65 L-2.2 -3.5 -2.2 -3.35 -2.3 -3.15 Q-2.5 -2.8 -2.7 -2.55 L-2.8 -2.5 M-2.9 -2.35 L-2.85 -2.4 -2.9 -2.35 M-1.25 -3.3 L-1.75 -3.0 -1.8 -3.0 -1.95 -2.95 -2.0 -2.95 -1.95 -3.0 -2.0 -3.0 Q-2.1 -2.95 -2.2 -2.9 L-2.2 -3.05 Q-1.9 -3.25 -1.5 -3.75 -1.05 -4.3 -1.05 -4.35 L-0.85 -4.6 -0.75 -4.7 -0.55 -4.85 -0.4 -4.9 -0.35 -4.8 -0.5 -4.55 -0.5 -4.45 Q-0.55 -4.15 -0.75 -3.9 L-0.75 -3.95 -0.8 -4.15 -1.05 -3.85 Q-1.2 -3.65 -1.2 -3.45 L-1.25 -3.3" fill="#262626" fill-rule="evenodd" stroke="none"/>
    <path d="M-7.35 -3.35 L-7.75 -3.4 -7.8 -3.4 -7.7 -3.6 Q-6.7 -4.0 -6.3 -4.15 L-6.3 -4.1 -7.35 -3.35 M-5.05 -2.8 L-5.2 -2.7 Q-5.05 -2.9 -5.0 -3.1 -5.0 -3.25 -4.85 -3.4 -4.7 -3.55 -4.7 -3.65 L-4.5 -3.65 -4.5 -3.6 -4.55 -3.4 Q-4.55 -3.3 -4.7 -3.1 L-4.75 -3.1 -5.05 -2.8 M-3.35 -2.15 L-3.15 -2.4 Q-2.65 -3.0 -2.5 -3.7 L-2.4 -3.7 -2.35 -3.6 Q-2.3 -3.55 -2.35 -3.4 -2.4 -3.2 -2.8 -2.5 L-2.85 -2.45 -2.85 -2.4 -2.9 -2.35 -3.0 -2.25 -3.35 -2.15 M-0.75 -3.9 L-0.9 -3.65 -1.25 -3.3 -1.2 -3.45 Q-1.2 -3.65 -1.05 -3.85 L-0.8 -4.15 -0.75 -3.95 -0.75 -3.9" fill="#515151" fill-rule="evenodd" stroke="none"/>
  </g>
</svg>
