<?xml version="1.0" encoding="UTF-8" standalone="no"?>
<svg xmlns:ffdec="https://www.free-decompiler.com/flash" xmlns:xlink="http://www.w3.org/1999/xlink" ffdec:objectType="shape" height="499.0px" width="499.0px" xmlns="http://www.w3.org/2000/svg">
  <g transform="matrix(1.0, 0.0, 0.0, 1.0, 267.7, 266.2)">
    <path d="M211.7 -113.8 Q231.3 -67.45 231.3 -16.7 231.3 34.05 211.7 80.4 192.75 125.2 158.25 159.75 123.7 194.25 78.9 213.2 32.55 232.8 -18.2 232.8 -68.95 232.8 -115.3 213.2 -160.1 194.25 -194.6 159.75 -229.15 125.2 -248.1 80.4 -267.7 34.05 -267.7 -16.7 -267.7 -67.45 -248.1 -113.8 -229.15 -158.6 -194.6 -193.1 -160.1 -227.65 -115.3 -246.6 -68.95 -266.2 -18.2 -266.2 32.55 -266.2 78.9 -246.6 123.7 -227.65 158.25 -193.1 192.75 -158.6 211.7 -113.8" fill="#d68028" fill-rule="evenodd" stroke="none"/>
  </g>
</svg>
