<?xml version="1.0" encoding="UTF-8" standalone="no"?>
<svg xmlns:ffdec="https://www.free-decompiler.com/flash" xmlns:xlink="http://www.w3.org/1999/xlink" ffdec:objectType="shape" height="42.6px" width="741.0px" xmlns="http://www.w3.org/2000/svg">
  <g transform="matrix(1.0, 0.0, 0.0, 1.0, -15.25, -23.5)">
    <path d="M715.5 35.65 Q716.1 33.7 716.4 33.35 715.65 33.05 715.2 32.05 714.75 31.2 714.75 30.35 714.75 26.9 719.35 27.05 723.55 27.2 729.45 30.1 735.5 33.05 739.55 37.15 744.15 41.7 744.15 45.75 L744.1 46.35 Q734.9 45.2 732.35 44.0 L722.45 38.7 Q718.7 36.6 715.5 35.65 M743.5 48.7 L743.4 49.5 Q743.4 51.5 741.7 53.25 739.6 55.5 735.9 55.5 730.45 55.5 722.15 48.75 714.4 42.45 714.4 39.75 L715.2 36.75 Q720.65 41.15 732.3 45.4 738.35 47.6 743.5 48.7 M34.9 51.35 Q32.6 51.3 31.85 49.65 L31.6 47.8 Q31.6 46.4 32.6 44.95 L33.6 43.1 Q32.25 36.55 32.25 35.4 32.25 34.8 35.25 31.05 L38.75 26.6 Q40.95 22.95 43.3 23.6 L45.3 24.5 Q46.55 25.1 47.5 25.1 49.45 25.1 50.0 25.9 50.25 26.2 50.35 27.6 L50.65 28.5 50.0 29.75 Q45.3 39.3 39.8 45.95 L34.9 51.35 M50.8 28.75 Q51.8 30.1 55.25 30.1 58.1 30.1 60.75 31.75 63.35 33.35 63.35 35.0 55.55 44.85 50.0 51.15 40.15 62.35 37.5 62.35 35.45 62.35 34.6 60.85 34.1 60.0 34.1 59.0 34.1 56.6 38.1 53.35 L37.1 52.65 Q39.9 49.9 42.1 46.85 46.0 41.5 50.0 30.85 L50.8 28.75" fill="#4b4a1b" fill-rule="evenodd" stroke="none"/>
    <path d="M744.1 46.35 L745.45 46.5 Q754.7 47.5 756.25 49.25 L756.25 49.6 Q750.75 50.2 743.5 48.7 738.35 47.6 732.3 45.4 720.65 41.15 715.2 36.75 L713.85 35.6 714.0 35.35 714.1 35.25 715.5 35.65 Q718.7 36.6 722.45 38.7 L732.35 44.0 Q734.9 45.2 744.1 46.35 M50.65 28.5 L51.6 26.35 50.8 28.75 50.0 30.85 Q46.0 41.5 42.1 46.85 39.9 49.9 37.1 52.65 28.8 60.7 15.5 66.1 L15.25 65.85 Q26.7 59.45 34.9 51.35 L39.8 45.95 Q45.3 39.3 50.0 29.75 L50.65 28.5" fill="#342912" fill-rule="evenodd" stroke="none"/>
  </g>
</svg>
