<?xml version="1.0" encoding="UTF-8" standalone="no"?>
<svg xmlns:ffdec="https://www.free-decompiler.com/flash" xmlns:xlink="http://www.w3.org/1999/xlink" ffdec:objectType="shape" height="28.35px" width="31.45px" xmlns="http://www.w3.org/2000/svg">
  <g transform="matrix(1.0, 0.0, 0.0, 1.0, 15.15, 20.3)">
    <path d="M9.65 -10.05 L9.85 -9.95 11.05 -9.25 Q11.55 -9.15 12.5 -8.05 L13.8 -6.55 Q14.8 -5.25 15.1 -4.25 L15.1 -4.2 15.15 -4.1 15.2 -3.75 15.3 -3.6 15.3 -3.05 15.05 -1.8 14.65 -0.9 14.05 0.2 10.95 3.05 10.85 3.1 10.45 3.4 10.35 3.5 10.05 3.75 9.4 4.05 8.75 4.3 7.85 4.75 7.25 5.0 Q7.0 5.1 6.85 5.25 L5.2 5.95 4.95 6.0 Q3.2 6.7 1.7 6.8 L0.95 6.95 0.8 6.95 0.65 6.95 -1.4 7.05 -1.45 7.05 Q5.65 5.5 9.45 2.5 L10.05 2.1 12.3 0.3 12.6 -0.05 Q13.85 -2.35 13.85 -3.8 13.85 -5.6 12.3 -7.55 L12.05 -7.8 11.4 -8.55 9.65 -10.05 M9.3 -10.25 L9.2 -10.25 9.2 -10.2 8.45 -10.65 8.0 -10.9 9.3 -10.25 M5.6 -11.95 L5.5 -11.95 5.0 -12.2 5.6 -11.95" fill="#0086a8" fill-rule="evenodd" stroke="none"/>
    <path d="M9.65 -10.05 L11.4 -8.55 12.05 -7.8 12.3 -7.55 Q13.85 -5.6 13.85 -3.8 13.85 -2.35 12.6 -0.05 L12.3 0.3 10.05 2.1 9.45 2.5 Q5.65 5.5 -1.45 7.05 L-1.95 7.05 -2.15 7.05 -2.35 7.05 -3.05 7.05 -3.3 7.0 -3.6 7.0 -3.9 7.05 -5.75 7.05 -5.0 6.85 -3.9 6.75 Q-3.9 6.55 -1.6 6.0 1.85 5.15 5.45 3.3 L5.65 3.25 Q6.7 3.05 8.1 1.8 L8.6 1.4 8.85 1.1 9.1 0.9 Q9.8 0.35 10.2 -0.6 L10.4 -1.25 10.45 -1.55 10.5 -1.6 10.65 -1.8 10.7 -1.85 10.8 -2.4 10.85 -3.0 10.6 -4.0 10.55 -4.2 10.15 -5.0 9.8 -5.35 Q8.85 -6.25 7.25 -6.7 L5.45 -7.15 4.2 -7.25 2.5 -7.25 1.75 -7.2 1.0 -7.05 0.75 -7.05 -1.6 -6.55 -2.45 -6.05 Q-2.45 -5.1 -2.6 -4.95 L-2.65 -4.95 -2.65 -4.5 Q-2.7 -4.0 -2.95 -4.0 -3.65 -4.0 -7.85 -5.75 -11.4 -7.2 -12.0 -7.75 L-12.05 -7.8 -12.2 -7.9 -12.5 -8.15 -12.7 -8.25 -8.05 -12.65 -7.6 -13.05 -7.55 -13.1 -6.4 -14.05 -5.05 -15.35 Q-2.65 -17.55 -2.3 -18.25 L-1.65 -16.35 -1.4 -14.8 -1.4 -14.75 -1.4 -14.2 -1.45 -13.35 -1.1 -13.35 -0.7 -13.35 -0.65 -13.35 Q1.75 -13.35 5.0 -12.2 L5.5 -11.95 5.6 -11.95 5.8 -11.9 8.0 -10.9 8.45 -10.65 9.2 -10.2 9.2 -10.25 9.3 -10.25 9.65 -10.05 M-1.0 -13.3 L-1.1 -13.3 -1.1 -13.2 -1.0 -13.3" fill="#00ccff" fill-rule="evenodd" stroke="none"/>
    <path d="M-2.3 -18.25 Q-2.65 -17.55 -5.05 -15.35 L-6.4 -14.05 -7.55 -13.1 -7.6 -13.05 -8.05 -12.65 -12.7 -8.25 -12.75 -8.25 -12.8 -8.2 -13.5 -8.2 -13.5 -8.5 -13.5 -8.55 -13.65 -8.65 -10.85 -11.35 -10.7 -11.5 -10.3 -11.9 -9.9 -12.3 -8.7 -13.45 -5.0 -17.25 -3.95 -18.35 -3.4 -18.6 -3.15 -18.8 Q-2.7 -18.8 -2.3 -18.25 M10.65 -1.8 L10.5 -1.6 10.65 -2.35 10.65 -2.15 10.65 -1.8 M10.45 -1.55 L10.4 -1.25 10.2 -0.6 Q9.8 0.35 9.1 0.9 L8.85 1.1 8.6 1.4 8.1 1.8 Q6.7 3.05 5.65 3.25 L5.45 3.3 Q1.85 5.15 -1.6 6.0 -3.9 6.55 -3.9 6.75 L-5.0 6.85 -5.75 7.05 -6.6 7.05 -6.35 7.0 -6.0 6.85 -5.8 6.8 -5.35 6.7 -5.15 6.6 0.55 4.75 1.05 4.55 1.0 4.55 1.85 4.15 5.05 2.8 Q8.45 1.1 9.8 -0.5 L10.45 -1.55" fill="#aaeeff" fill-rule="evenodd" stroke="none"/>
    <path d="M-1.0 -13.3 L-1.1 -13.2 -1.1 -13.3 -1.0 -13.3" fill="#ff9393" fill-rule="evenodd" stroke="none"/>
    <path d="M15.1 -4.25 Q14.8 -5.25 13.8 -6.55 L12.5 -8.05 Q11.55 -9.15 11.05 -9.25 L9.85 -9.95 9.65 -10.05 9.3 -10.25 8.0 -10.9 5.8 -11.9 5.6 -11.95 5.0 -12.2 Q1.75 -13.35 -0.65 -13.35 L-0.7 -13.35 -1.1 -13.35 -1.45 -13.35 -1.4 -14.2 -1.4 -14.75 -1.4 -14.8 -1.65 -16.35 -2.3 -18.25 Q-2.7 -18.8 -3.15 -18.8 L-3.4 -18.6 -3.95 -18.35 -5.0 -17.25 -8.7 -13.45 -9.9 -12.3 -10.3 -11.9 -10.85 -11.35 -13.65 -8.65 -13.5 -8.55 -13.5 -8.5 -13.5 -8.2 -12.8 -8.2 -12.75 -8.25 -12.7 -8.25 -12.5 -8.15 -12.2 -7.9 -12.05 -7.8 -12.0 -7.75 Q-11.4 -7.2 -7.85 -5.75 -3.65 -4.0 -2.95 -4.0 -2.7 -4.0 -2.65 -4.5 L-2.65 -4.95 -2.6 -4.95 Q-2.45 -5.1 -2.45 -6.05 L-1.6 -6.55 0.75 -7.05 1.0 -7.05 1.75 -7.2 2.5 -7.25 4.2 -7.25 5.45 -7.15 7.25 -6.7 Q8.85 -6.25 9.8 -5.35 L10.15 -5.0 10.55 -4.2 10.6 -4.0 10.85 -3.0 10.8 -2.4 10.7 -1.85 10.65 -1.8 10.65 -2.15 10.65 -2.35 10.5 -1.6 10.45 -1.55 9.8 -0.5 Q8.45 1.1 5.05 2.8 L1.85 4.15 1.0 4.55 1.05 4.55 0.55 4.75 -5.15 6.6 -5.35 6.7 -5.8 6.8 -6.0 6.85 -6.35 7.0 -6.6 7.05 -5.75 7.05 -3.9 7.05 -3.6 7.0 -3.3 7.0 -3.05 7.05 -2.35 7.05 -2.15 7.05 -1.95 7.05 -1.45 7.05 -1.4 7.05 0.65 6.95 0.8 6.95 0.95 6.95 1.7 6.8 Q3.2 6.7 4.95 6.0 L5.2 5.95 6.85 5.25 Q7.0 5.1 7.25 5.0 L7.85 4.75 8.75 4.3 9.4 4.05 10.05 3.75 10.4 3.5 10.45 3.4 10.85 3.1 10.95 3.05 14.05 0.2 14.65 -0.9 15.05 -1.8 15.3 -3.05 15.3 -3.6 15.2 -3.75 15.15 -4.1 15.1 -4.25 M0.0 -2.15 Q0.0 -1.05 -0.5 -0.5 L-1.1 0.05 -1.35 0.2 -1.45 0.2 -2.1 0.35 Q-2.85 0.35 -5.75 -1.4 L-9.35 -3.8 -12.75 -5.85 Q-15.15 -7.3 -15.15 -8.25 L-15.0 -8.55 -14.6 -9.4 -14.6 -9.45 Q-14.6 -9.95 -9.6 -14.85 -5.65 -18.75 -4.2 -19.6 L-3.95 -19.85 -3.15 -20.15 -2.4 -20.3 -1.95 -20.15 -1.9 -20.15 Q-1.6 -20.15 -1.5 -19.75 -1.2 -19.6 -1.2 -19.25 -0.75 -18.6 -0.4 -15.9 L-0.15 -14.55 -0.15 -14.4 Q2.55 -14.3 6.2 -12.8 16.45 -8.65 16.3 -3.05 16.3 -1.65 15.55 -0.5 L14.95 0.8 14.85 0.85 Q13.8 2.15 11.6 3.85 L11.4 3.9 Q5.8 8.05 -2.35 8.05 L-3.4 8.05 -3.55 8.05 -3.9 8.05 -6.6 8.05 -7.25 7.8 -7.6 7.2 -7.5 6.55 -6.9 6.1 1.5 3.3 Q9.45 0.05 9.65 -2.5 9.45 -3.7 7.1 -4.5 L7.0 -4.5 Q3.65 -5.7 -0.25 -3.75 L0.0 -2.3 0.0 -2.15 M-11.8 -6.7 L-11.85 -6.7 -10.7 -5.95 -11.8 -6.7" fill="#002833" fill-rule="evenodd" stroke="none"/>
  </g>
</svg>
