<?xml version="1.0" encoding="UTF-8" standalone="no"?>
<svg xmlns:ffdec="https://www.free-decompiler.com/flash" xmlns:xlink="http://www.w3.org/1999/xlink" ffdec:objectType="shape" height="686.7px" width="381.15px" xmlns="http://www.w3.org/2000/svg">
  <g transform="matrix(1.0, 0.0, 0.0, 1.0, -35.95, 9.95)">
    <path d="M80.1 -5.15 Q79.55 -5.15 79.0 -4.75 L78.5 -4.45 78.25 -4.4 78.2 -4.4 Q68.6 1.5 68.35 12.9 68.2 13.6 68.35 14.25 68.05 14.35 68.0 14.7 L67.8 14.7 67.75 14.7 67.15 14.7 65.8 15.1 62.05 15.5 60.8 14.9 60.85 14.8 60.45 14.75 58.7 13.9 Q58.6 13.8 58.65 14.0 L57.75 13.35 57.15 13.65 56.65 14.8 56.5 15.05 56.2 16.0 55.8 16.75 55.7 17.15 55.4 17.6 54.45 18.2 54.35 18.5 Q52.55 19.8 51.25 21.45 L49.25 23.25 Q44.6 28.4 43.15 35.05 42.35 48.2 42.0 61.5 L43.7 65.05 45.25 68.65 45.3 68.7 46.95 70.55 49.0 73.05 49.95 73.7 50.2 73.85 49.4 73.65 49.15 73.6 Q48.25 73.6 47.35 72.85 L46.7 72.55 45.65 72.3 Q43.85 73.0 41.65 72.25 L41.65 72.45 Q42.3 77.9 41.55 83.25 41.55 91.3 41.95 99.35 43.4 101.4 46.05 103.0 L46.3 103.15 46.8 103.35 48.4 103.8 48.5 103.9 47.1 103.85 45.0 105.85 45.0 105.9 48.05 107.15 52.1 107.95 55.1 107.35 55.2 107.3 55.65 107.4 55.7 107.45 55.65 107.5 55.6 107.5 53.6 108.1 Q52.7 108.4 52.0 108.9 L52.0 108.95 Q51.9 108.85 51.85 109.0 51.45 109.15 51.15 109.4 L48.75 110.35 47.85 110.55 47.35 110.9 45.8 111.45 46.35 114.3 46.95 117.2 47.45 118.25 48.2 119.65 49.15 120.3 49.15 120.4 Q48.2 120.0 47.35 119.4 L47.15 119.3 46.95 119.25 46.8 119.25 45.8 121.05 44.5 123.4 42.2 125.8 Q41.85 135.95 41.8 146.25 L41.2 203.45 41.2 205.6 41.15 252.5 41.15 255.7 41.15 260.1 41.0 368.35 Q42.5 378.5 43.7 390.2 L44.35 396.65 Q45.05 397.15 45.75 399.05 L46.4 400.5 46.6 400.5 46.65 400.65 47.2 401.1 47.5 401.2 Q48.3 401.5 49.1 401.95 L51.1 402.35 51.05 402.4 49.75 402.45 49.1 402.4 48.75 402.7 47.85 403.8 45.7 405.85 45.5 406.05 44.5 408.55 Q43.45 411.1 41.9 413.45 L41.85 413.55 41.9 413.8 41.95 414.05 42.85 415.5 43.3 416.2 43.7 417.05 45.15 419.05 45.3 419.1 46.0 419.3 46.35 419.5 47.35 419.6 49.3 420.05 49.6 420.05 Q50.45 420.05 51.2 420.4 L51.05 420.6 50.0 420.45 49.0 420.6 48.85 420.6 48.9 420.65 48.7 420.7 47.35 420.45 Q46.05 420.6 44.9 421.3 L44.5 421.5 44.1 421.85 Q43.15 422.65 42.15 423.05 L42.7 425.2 43.3 428.8 43.35 429.2 43.2 429.9 43.2 430.15 43.3 430.4 43.75 431.15 43.8 431.2 42.9 430.85 42.25 432.0 41.2 436.25 40.55 438.3 Q40.2 467.35 40.1 496.6 39.95 502.9 40.5 508.85 L44.45 511.1 Q47.15 512.8 50.2 514.4 L50.6 514.6 50.55 515.05 50.55 515.1 50.6 515.65 50.3 515.75 Q49.6 516.55 46.5 517.6 L46.1 517.7 Q46.75 517.95 47.05 518.85 L47.3 518.9 47.05 519.0 47.05 519.1 47.05 519.15 47.4 519.5 48.8 521.35 49.0 521.65 48.2 521.8 48.45 522.05 48.15 522.2 45.8 522.2 44.45 522.45 Q42.4 522.8 40.9 523.85 L40.5 524.05 Q40.25 545.15 40.25 566.4 42.0 570.05 43.05 574.3 L45.45 583.55 Q45.55 583.45 45.6 583.45 L45.6 584.1 45.6 584.2 45.9 584.65 46.0 585.05 45.3 586.25 45.1 586.6 44.9 586.95 44.9 587.0 44.5 588.25 43.8 589.35 Q43.05 591.85 41.65 594.3 40.0 596.85 39.7 599.6 L39.7 600.1 39.75 600.4 Q38.8 602.15 39.1 604.8 39.85 616.35 39.65 627.6 39.5 631.3 40.1 634.5 39.9 636.1 40.1 637.8 40.0 640.1 40.4 642.45 L40.4 642.5 Q40.4 643.5 40.8 644.2 41.0 646.45 42.55 648.4 L42.65 648.45 43.25 648.95 43.9 649.55 44.65 649.85 49.35 650.7 50.3 650.7 50.3 650.6 51.1 650.55 Q51.6 650.95 51.9 651.8 L51.95 651.85 51.95 652.0 Q52.15 653.15 52.95 654.3 L53.05 654.5 Q54.15 653.95 54.45 652.8 54.65 651.95 54.95 651.65 L55.75 651.9 57.0 651.75 Q61.7 651.8 66.45 650.15 L69.15 648.95 70.2 649.75 70.55 649.9 Q72.05 661.15 83.6 667.35 84.9 668.2 86.5 668.9 91.55 671.75 97.25 672.5 L97.8 672.65 100.35 672.95 100.85 673.05 103.2 673.1 103.65 673.1 Q113.35 674.15 123.05 673.4 L128.35 673.3 Q133.95 673.05 139.4 671.65 140.6 671.3 141.1 670.85 L141.15 670.8 Q141.35 670.6 141.6 670.6 L142.5 670.1 Q143.15 669.8 143.95 669.45 L144.45 668.45 Q145.1 666.9 145.1 665.2 L145.15 665.05 145.15 664.95 Q145.05 664.35 145.2 663.95 145.0 662.9 145.35 662.0 L145.25 661.55 145.25 661.35 Q145.15 661.15 145.35 661.15 L145.35 660.65 Q145.3 659.25 145.6 658.05 145.55 657.95 145.7 658.0 L145.8 659.2 145.85 659.2 146.2 660.95 146.2 661.2 146.2 661.25 146.35 662.4 147.1 663.7 147.8 664.65 151.55 666.45 Q154.75 667.85 158.55 668.1 L158.8 668.1 Q158.85 667.8 159.25 667.35 L159.4 665.85 158.75 662.95 Q158.6 662.7 158.9 662.75 L159.7 664.25 160.75 667.0 161.0 667.9 161.4 668.65 165.0 670.05 168.1 671.35 180.0 671.3 180.3 671.35 182.4 671.6 217.0 673.05 Q244.45 672.7 271.65 674.2 L417.1 674.7 417.1 676.75 358.2 676.6 295.75 676.45 276.1 676.4 271.65 676.4 245.85 675.55 Q223.5 675.2 201.1 675.45 187.95 675.55 175.15 673.9 L166.85 674.2 Q163.65 673.05 160.85 671.4 L161.2 671.4 159.8 670.1 159.45 669.4 158.6 669.55 Q151.2 670.8 146.95 665.9 L146.9 665.85 146.9 665.9 146.95 665.9 147.0 668.35 146.75 670.25 146.7 670.75 145.45 671.45 145.6 671.45 142.05 673.55 139.65 674.1 139.15 674.3 124.9 675.7 118.6 675.8 116.8 675.85 115.1 675.8 108.1 675.7 99.35 675.65 96.7 675.65 92.25 675.85 91.95 675.95 91.55 675.95 91.45 675.95 89.35 676.15 84.7 675.8 84.65 675.85 84.4 675.85 82.65 675.6 81.7 675.55 76.7 674.95 75.6 675.0 68.05 675.4 Q65.2 675.8 62.6 675.45 L59.65 675.55 Q58.7 675.1 57.9 674.8 L55.85 674.45 Q50.55 673.25 46.15 669.75 43.25 667.5 40.9 664.85 L40.35 663.8 39.9 663.4 39.85 663.2 39.9 663.3 39.95 663.0 Q39.25 661.15 38.95 659.15 38.4 653.4 38.25 647.75 L37.75 635.45 37.75 633.7 37.95 633.35 36.6 596.25 37.95 594.2 39.05 591.45 39.85 590.5 40.3 589.7 41.5 588.2 44.1 585.0 Q42.65 581.7 41.45 577.05 L41.3 576.65 40.3 574.25 40.3 574.8 39.8 573.05 37.95 567.55 37.6 566.9 Q37.7 558.45 37.2 550.05 L37.25 549.75 37.25 549.55 37.25 547.55 Q37.4 540.75 37.1 534.5 L37.2 533.8 Q37.05 532.3 37.35 530.75 L37.8 526.4 Q37.6 526.2 37.6 526.3 L37.6 522.95 38.45 522.3 39.95 520.75 40.55 520.65 40.55 520.95 44.3 520.95 44.4 520.85 45.75 520.9 46.45 521.05 47.05 521.05 46.7 520.75 45.75 519.4 44.75 519.35 43.85 519.45 42.5 517.55 43.1 516.85 43.4 516.05 44.3 515.9 48.2 514.9 44.8 513.85 42.55 513.15 41.2 512.5 Q40.2 511.65 38.95 511.25 L38.3 511.15 37.9 510.25 37.5 509.7 36.8 502.9 37.25 491.15 Q37.0 469.4 38.35 447.75 38.7 441.95 37.9 436.85 38.5 434.75 38.5 433.05 L41.45 429.9 Q41.4 429.75 41.7 429.65 40.8 428.6 40.45 427.05 L40.2 426.0 39.65 424.0 39.2 423.95 Q39.05 423.3 39.45 422.8 L39.3 422.35 40.7 421.35 40.7 421.6 41.2 421.1 42.3 419.95 41.4 418.4 Q40.8 416.9 40.5 415.5 L39.1 414.45 39.1 412.65 39.1 412.55 40.4 410.85 Q41.8 408.8 42.0 407.0 L42.7 405.55 Q43.05 404.8 43.9 404.15 L43.85 404.05 44.4 404.1 45.8 402.45 Q45.85 402.1 46.15 402.1 L46.25 402.15 45.8 401.7 42.8 401.7 42.65 400.35 41.1 389.7 40.95 388.9 38.4 373.15 38.15 357.65 38.2 260.1 38.2 255.7 38.2 252.5 38.2 205.6 38.2 203.45 38.2 203.0 38.35 202.25 Q38.55 182.1 39.4 161.75 40.05 143.8 38.65 127.15 L38.75 124.9 39.8 124.0 40.65 122.5 41.3 122.0 41.4 121.95 42.2 121.15 45.35 117.6 45.4 117.6 Q44.5 116.3 44.2 114.55 43.9 113.1 44.25 112.0 L44.15 111.45 44.0 111.25 44.1 111.05 44.1 110.9 44.1 110.8 44.0 110.75 Q44.0 110.65 44.1 110.7 L44.0 109.7 44.05 109.7 Q44.1 109.2 44.65 109.35 L44.7 109.65 46.15 109.35 47.85 109.0 Q47.9 108.85 48.0 108.9 L45.7 108.2 Q44.35 107.8 43.45 106.85 L43.35 106.85 43.3 106.65 43.0 106.0 Q43.2 105.55 43.5 105.35 L43.65 104.9 Q43.85 104.4 44.4 104.05 43.2 103.65 42.15 102.75 L42.15 102.9 39.35 100.25 39.1 100.05 39.6 70.5 40.8 70.05 41.85 69.8 41.9 69.8 Q42.8 69.75 44.0 70.35 L45.25 70.5 42.55 67.2 40.35 64.5 40.2 64.4 39.75 64.1 Q39.75 56.15 39.9 48.3 L40.8 42.75 40.8 37.75 41.0 36.65 41.05 35.3 Q39.75 27.7 41.8 20.85 44.5 11.15 51.75 4.2 61.25 -9.1 81.1 -9.5 L81.75 -9.55 81.15 -9.35 82.2 -9.25 82.35 -9.2 85.8 -9.35 87.15 -9.25 87.35 -9.3 87.6 -9.4 96.75 -9.6 106.5 -9.1 107.3 -9.05 107.55 -8.95 Q108.5 -8.3 109.6 -7.6 L111.15 -6.8 Q111.65 -5.7 112.55 -5.15 L113.2 -3.5 Q113.8 -1.7 114.0 0.25 L114.25 0.0 Q115.4 -1.15 116.15 -2.45 116.35 -2.95 116.95 -2.65 L117.0 -2.6 Q117.1 -2.8 117.45 -2.6 118.85 -1.1 119.65 0.95 L120.15 2.9 120.15 2.85 Q120.7 1.95 121.55 1.2 121.3 0.35 121.65 -0.8 121.25 -1.8 121.1 -3.05 120.9 -4.2 121.1 -5.25 L121.25 -5.5 122.2 -6.3 123.35 -8.0 126.3 -8.5 130.4 -8.5 143.0 -9.3 Q143.8 -8.9 144.95 -8.6 144.95 -8.15 145.35 -7.65 145.5 -6.65 146.45 -6.05 L147.85 -2.4 148.3 -0.9 Q148.2 -1.15 148.45 -1.3 148.35 -1.95 148.55 -2.6 148.9 -4.75 149.65 -6.7 L149.5 -6.7 Q149.85 -7.1 150.0 -7.85 L150.35 -8.5 Q150.4 -8.65 150.75 -8.65 150.6 -8.9 150.8 -8.9 150.95 -9.15 151.2 -9.05 L152.2 -9.35 153.1 -9.9 160.95 -9.45 168.0 -9.65 Q169.8 -8.9 173.0 -9.2 L174.4 -9.25 174.95 -9.25 175.1 -9.25 176.5 -9.2 178.35 -9.6 178.85 -9.6 188.85 -9.35 189.25 -9.4 193.6 -9.65 Q194.3 -9.2 195.5 -8.7 196.55 -8.35 197.35 -8.35 198.05 -7.15 199.05 -6.55 L198.85 -6.55 199.25 -6.05 201.55 -3.6 201.9 -3.95 Q202.0 -4.4 202.45 -4.65 L203.45 -5.3 204.35 -5.2 Q206.35 -5.7 208.85 -4.6 211.25 -3.6 213.4 -2.3 L213.35 -2.55 213.4 -3.0 213.85 -2.95 Q213.75 -3.9 214.25 -4.75 L214.9 -6.1 215.75 -6.9 215.95 -7.15 216.7 -8.7 Q216.8 -8.85 217.05 -8.9 L217.1 -9.0 217.8 -9.0 Q220.15 -9.05 222.0 -9.65 L223.45 -9.45 225.2 -8.7 226.85 -8.3 226.9 -8.15 227.65 -6.7 227.3 -6.75 227.35 -6.65 228.05 -5.05 228.1 -4.7 Q229.85 -5.0 231.25 -6.75 L231.05 -6.75 Q231.95 -7.85 232.65 -9.25 L236.5 -9.95 239.2 -9.5 250.95 -9.85 Q260.05 -9.0 269.35 -9.35 L271.65 -9.1 417.1 -8.4 417.1 -6.1 271.65 -6.5 260.25 -6.6 256.65 -6.75 253.45 -6.9 Q249.3 -6.65 245.15 -6.95 L236.2 -6.75 234.85 -6.85 Q234.7 -6.75 234.7 -6.5 234.8 -5.7 234.5 -4.8 234.05 -3.6 234.05 -2.2 L233.95 -1.8 233.8 -2.0 Q233.5 -0.85 233.6 0.6 L233.5 1.4 Q232.5 -0.35 233.25 -2.7 L233.35 -3.1 233.15 -4.2 233.2 -5.05 Q231.1 -3.7 229.45 -1.9 229.35 -0.7 228.85 0.4 228.55 0.8 228.5 1.5 L228.45 3.05 228.45 3.1 228.5 3.8 Q228.35 4.15 228.45 4.55 L228.45 5.0 Q228.3 5.3 228.4 5.75 L228.25 6.4 227.5 1.75 226.95 -2.6 225.5 -4.8 Q224.9 -5.9 224.65 -6.8 L218.15 -6.7 217.9 -6.35 217.4 -5.65 216.3 -4.2 215.85 -2.9 215.3 -0.4 215.25 0.05 Q214.95 1.55 215.0 3.4 L214.85 3.75 214.5 2.6 Q213.4 1.6 213.05 0.4 L211.85 -1.65 Q209.15 -2.8 206.25 -3.35 204.4 -3.75 203.1 -2.65 L203.0 -2.3 Q202.6 -0.65 202.55 1.2 L202.55 2.05 Q201.15 1.1 200.3 -0.95 L198.9 -3.65 197.15 -4.85 195.15 -6.5 176.55 -6.55 174.4 -6.6 168.55 -6.7 152.7 -6.7 152.25 -5.1 151.2 -2.85 Q150.4 -1.6 149.9 -0.2 L149.0 2.05 Q148.9 2.25 148.95 2.5 L148.95 2.85 148.0 2.7 148.0 2.6 147.9 2.3 Q146.55 0.45 145.8 -1.85 L145.75 -2.15 Q144.85 -3.2 144.15 -4.75 L143.4 -6.55 124.45 -5.8 123.9 -4.0 123.75 -3.45 Q123.35 -2.15 123.45 -0.7 123.4 0.0 123.65 0.65 L123.6 1.4 123.55 1.4 122.6 3.05 121.95 3.85 120.65 5.4 120.85 6.95 120.35 10.15 120.2 10.95 Q119.4 9.95 119.6 8.15 118.85 7.0 118.55 5.05 L118.55 5.0 118.5 4.55 118.4 4.1 117.6 2.45 117.05 0.55 115.8 1.6 Q114.45 2.25 113.5 3.05 L112.4 3.1 Q112.5 2.55 112.9 2.15 111.95 1.45 111.4 -0.5 L110.7 -2.7 Q110.1 -3.35 109.65 -4.15 L109.0 -5.3 107.65 -6.0 106.9 -6.55 Q102.2 -6.35 97.6 -6.45 90.35 -6.65 83.15 -6.25 81.1 -6.15 80.1 -5.15 M65.2 -2.55 L63.3 -1.65 Q53.75 3.6 48.5 12.85 46.85 15.55 46.15 18.2 45.9 18.3 45.8 18.8 L45.05 20.65 Q44.9 20.95 44.9 21.35 L44.35 23.75 Q44.0 24.85 43.9 26.2 L44.25 26.15 Q45.4 24.4 47.05 22.8 L52.35 16.85 52.6 16.35 Q52.75 16.05 53.1 16.05 53.1 15.4 53.65 15.1 L53.85 14.8 Q54.3 14.15 54.9 13.65 L55.3 13.0 55.4 12.5 55.4 11.65 Q55.35 11.15 55.6 11.05 L55.65 10.25 55.9 9.35 Q55.8 9.15 55.85 8.95 L56.1 8.9 Q56.15 8.35 56.35 7.9 56.3 7.8 56.6 7.75 56.9 8.65 56.8 9.6 L57.1 10.45 Q57.0 10.7 57.2 11.05 L57.65 11.15 58.25 11.3 58.75 11.25 60.5 11.85 Q60.6 11.7 60.7 11.85 L61.3 12.0 61.65 12.05 63.05 12.4 66.7 12.15 Q66.2 10.75 66.65 8.75 66.95 7.25 67.65 6.15 67.7 5.25 68.05 4.4 69.55 -0.45 73.0 -3.45 L73.3 -3.45 73.4 -3.65 74.75 -4.95 74.7 -4.95 74.05 -4.95 73.3 -4.9 73.05 -4.85 70.5 -4.05 65.2 -2.55 M53.4 -0.85 L53.9 -1.25 53.8 -0.8 53.55 -0.9 53.5 -0.85 53.4 -0.85 M201.0 -2.05 L201.05 -2.05 200.95 -2.15 Q200.8 -2.1 201.0 -2.05 M45.4 586.35 L45.3 586.25 45.4 586.3 45.4 586.35 M35.95 519.1 L36.05 519.0 36.0 519.1 35.95 519.1 M92.3 673.55 L90.4 673.05 89.75 672.85 89.35 672.85 88.95 672.55 88.55 672.45 88.35 672.45 87.05 671.95 86.3 671.6 85.95 671.4 84.8 670.9 Q76.35 666.55 71.85 659.3 70.3 657.2 69.6 654.8 L69.35 654.1 Q68.7 652.45 68.85 651.3 67.7 652.0 65.35 652.5 64.0 652.75 62.8 653.35 L58.0 653.6 56.0 653.65 55.6 654.15 Q55.0 654.9 54.55 655.6 L54.15 656.9 53.95 658.15 Q52.3 657.2 51.35 654.8 L50.3 652.3 46.15 652.5 46.05 652.55 44.8 652.4 42.3 651.8 42.1 651.95 42.15 652.05 42.05 652.0 Q41.95 652.4 42.0 653.0 L42.2 653.5 42.4 654.15 42.55 654.35 Q42.6 654.95 43.15 655.8 44.35 657.85 46.15 659.55 L46.2 659.6 46.25 659.85 48.6 661.45 50.45 662.25 50.75 662.4 50.85 662.5 51.7 662.6 52.25 662.65 Q55.15 662.95 58.05 662.55 L61.35 661.85 62.45 661.75 Q62.3 661.8 62.4 662.0 L62.5 662.75 63.2 665.05 63.35 665.6 63.6 665.9 63.75 666.65 65.3 668.55 66.7 669.4 Q67.95 670.4 69.65 671.0 L69.7 671.0 70.95 671.4 73.35 671.85 83.8 673.85 86.25 673.95 87.85 674.1 87.95 673.85 91.55 673.9 Q91.85 673.65 92.3 673.55 M146.65 665.55 L146.6 665.5 Q146.45 665.5 146.65 665.6 L146.65 665.55 M39.95 649.6 L40.4 654.5 40.7 656.45 41.7 657.85 42.75 659.25 44.9 660.7 42.45 657.9 Q41.55 656.15 41.05 654.4 L40.45 652.55 40.35 651.85 40.3 651.3 40.25 650.95 40.1 650.2 39.95 649.6 M60.75 664.3 L60.15 664.35 59.9 664.45 59.85 664.5 59.7 664.45 59.65 664.5 58.9 664.35 58.55 664.35 Q52.45 665.4 46.85 663.6 45.0 663.15 43.55 662.2 L43.35 662.1 42.8 661.85 42.8 661.9 44.05 664.5 Q45.6 666.45 47.6 668.05 L49.35 669.35 50.95 670.05 54.6 671.35 55.55 671.75 Q58.4 672.75 61.4 673.0 L62.45 673.45 63.45 673.55 63.95 673.45 Q65.95 673.65 67.85 673.5 L72.3 673.2 71.05 672.95 69.95 672.9 68.45 672.45 67.6 672.25 67.05 672.15 66.95 672.15 65.9 671.55 Q63.5 670.45 62.3 668.4 L61.9 667.75 61.45 666.2 60.9 665.2 60.8 664.8 60.8 664.65 Q60.75 664.5 60.9 664.5 L60.75 664.3 M60.75 664.2 L60.6 664.2 60.75 664.25 60.75 664.2" fill="#57431a" fill-rule="evenodd" stroke="none"/>
  </g>
</svg>
