<?xml version="1.0" encoding="UTF-8" standalone="no"?>
<svg xmlns:ffdec="https://www.free-decompiler.com/flash" xmlns:xlink="http://www.w3.org/1999/xlink" ffdec:objectType="shape" height="1032.25px" width="1536.35px" xmlns="http://www.w3.org/2000/svg">
  <g transform="matrix(1.0, 0.0, 0.0, 1.0, 193.45, 144.5)">
    <path d="M637.1 107.0 Q626.2 107.0 626.2 117.45 L626.2 151.7 Q626.2 162.15 637.1 162.15 L671.45 162.15 Q682.35 162.15 682.35 151.7 L682.35 117.45 682.35 117.25 Q682.2 107.0 671.45 107.0 L637.1 107.0 M1328.25 -129.85 Q1342.9 -115.2 1342.9 -94.5 L1342.9 837.75 Q1342.9 858.45 1328.25 873.1 1313.6 887.75 1292.9 887.75 L-143.45 887.75 Q-164.15 887.75 -178.8 873.1 -193.45 858.45 -193.45 837.75 L-193.45 -94.5 Q-193.45 -115.2 -178.8 -129.85 -164.15 -144.5 -143.45 -144.5 L1292.9 -144.5 Q1313.6 -144.5 1328.25 -129.85" fill="#ff0000" fill-opacity="0.0" fill-rule="evenodd" stroke="none"/>
  </g>
</svg>
