<?xml version="1.0" encoding="UTF-8" standalone="no"?>
<svg xmlns:ffdec="https://www.free-decompiler.com/flash" xmlns:xlink="http://www.w3.org/1999/xlink" ffdec:objectType="shape" height="62.0px" width="496.0px" xmlns="http://www.w3.org/2000/svg">
  <g transform="matrix(1.0, 0.0, 0.0, 1.0, -19.8, -12.55)">
    <path d="M44.4 15.55 L44.4 12.55 501.5 12.55 501.5 12.65 Q513.85 13.6 515.45 25.35 L515.65 29.05 515.65 30.05 515.8 30.05 515.8 59.55 515.65 59.55 515.65 59.7 515.6 59.7 Q514.85 73.4 501.5 74.45 L501.5 74.55 34.1 74.55 34.1 74.45 Q20.75 73.4 20.0 59.7 L19.95 59.7 19.95 57.3 19.8 57.3 19.8 44.6 23.25 44.6 23.25 57.3 22.95 57.3 22.95 58.5 23.0 59.7 Q23.7 70.4 34.1 71.45 L34.1 71.55 501.5 71.55 501.5 71.45 Q511.9 70.4 512.6 59.7 L512.6 59.55 512.35 59.55 512.35 30.05 512.65 30.05 512.65 29.05 512.35 25.35 Q510.85 16.6 501.5 15.65 L501.5 15.55 44.4 15.55" fill="#00b4e1" fill-rule="evenodd" stroke="none"/>
    <path d="M44.4 15.55 L501.5 15.55 501.5 15.65 Q510.85 16.6 512.35 25.35 L512.65 29.05 512.65 30.05 512.35 30.05 512.35 59.55 512.6 59.55 512.6 59.7 Q511.9 70.4 501.5 71.45 L501.5 71.55 34.1 71.55 34.1 71.45 Q23.7 70.4 23.0 59.7 L22.95 58.5 22.95 57.3 23.25 57.3 23.25 44.6 44.4 44.6 44.4 15.55" fill="#333333" fill-rule="evenodd" stroke="none"/>
  </g>
</svg>
