<?xml version="1.0" encoding="UTF-8" standalone="no"?>
<svg xmlns:ffdec="https://www.free-decompiler.com/flash" xmlns:xlink="http://www.w3.org/1999/xlink" ffdec:objectType="shape" height="67.6px" width="183.4px" xmlns="http://www.w3.org/2000/svg">
  <g transform="matrix(1.0, 0.0, 0.0, 1.0, -177.55, -351.6)">
    <path d="M325.65 387.55 L322.25 388.1 320.55 388.0 319.8 387.65 319.35 387.25 Q320.55 386.4 322.6 386.3 L327.15 386.75 325.65 387.55 M341.3 376.2 L340.35 376.5 Q337.6 376.05 335.75 374.2 L337.0 373.9 337.85 373.75 Q339.15 374.05 340.1 374.5 L341.25 375.35 Q341.6 376.0 341.3 376.2 M360.95 391.9 Q360.85 392.45 359.65 392.65 L355.0 391.45 Q355.2 390.95 356.05 390.85 L360.2 391.35 360.95 391.9 M220.5 371.35 L218.9 371.25 218.55 370.75 218.55 370.2 Q220.65 369.05 222.8 368.9 225.15 368.7 226.9 369.5 226.2 370.05 224.5 370.6 222.25 371.35 220.5 371.35 M251.15 355.4 Q248.9 354.75 249.1 352.25 L250.7 351.8 251.65 351.6 Q252.6 352.0 253.15 352.65 253.6 353.35 253.4 353.8 253.0 354.7 252.45 355.0 L251.15 355.4 M249.65 376.0 Q250.35 375.3 251.3 375.15 253.0 374.8 254.95 375.85 L255.05 376.6 Q254.35 377.35 252.95 377.65 250.8 377.0 249.65 376.0 M315.85 418.65 Q316.1 419.2 315.85 419.2 L314.8 419.1 312.65 418.25 Q310.9 417.45 310.7 417.05 310.25 416.1 310.6 416.45 312.85 416.6 314.3 417.35 315.5 417.95 315.85 418.65 M178.1 410.4 Q180.2 410.6 180.85 411.65 181.4 412.45 181.0 413.45 180.7 414.2 180.4 414.2 L179.45 414.05 Q178.95 413.85 178.2 412.9 177.35 411.8 177.6 411.25 178.2 409.9 178.1 410.4" fill="#e0653c" fill-rule="evenodd" stroke="none"/>
  </g>
</svg>
