<?xml version="1.0" encoding="UTF-8" standalone="no"?>
<svg xmlns:ffdec="https://www.free-decompiler.com/flash" xmlns:xlink="http://www.w3.org/1999/xlink" ffdec:objectType="shape" height="67.4px" width="175.4px" xmlns="http://www.w3.org/2000/svg">
  <g transform="matrix(1.0, 0.0, 0.0, 1.0, -174.85, -344.75)">
    <path d="M328.4 371.0 Q328.15 371.4 326.7 371.4 323.85 371.4 322.35 370.7 321.45 370.3 321.25 369.85 320.9 369.15 321.9 368.9 322.8 368.65 324.0 368.9 L325.95 369.2 Q327.6 369.8 328.3 370.4 L328.4 371.0 M340.15 384.95 Q339.8 384.25 342.55 384.1 L346.75 384.15 347.25 384.1 Q347.65 384.15 347.95 384.75 348.3 385.45 346.35 385.75 L344.25 385.95 341.45 385.85 340.95 385.7 340.15 384.95 M346.0 392.35 L344.45 392.0 346.25 390.9 Q347.4 390.6 350.25 391.35 L348.3 392.05 346.95 392.45 346.0 392.35 M240.95 344.95 Q242.15 344.6 243.05 344.95 L244.65 345.35 Q245.7 346.15 245.8 347.0 L245.2 347.8 Q244.55 348.35 243.1 348.35 240.2 348.35 239.45 347.4 239.0 346.85 239.25 346.25 239.7 345.25 240.95 344.95 M240.45 377.35 L239.65 377.2 238.5 376.75 241.45 375.2 Q242.9 374.8 244.95 375.85 L242.3 376.8 240.45 377.35 M241.8 367.05 Q242.2 366.05 245.1 365.85 L249.25 365.95 249.85 365.85 Q250.2 365.95 249.85 366.75 249.45 367.7 247.15 368.15 L244.8 368.4 242.15 368.25 241.8 368.05 Q241.45 367.85 241.8 367.05 M301.55 411.05 L300.85 410.3 Q300.2 409.0 301.8 408.75 L303.95 410.15 305.45 411.55 304.8 412.15 Q302.4 411.55 301.55 411.05 M178.35 401.75 L178.3 403.65 176.95 404.5 Q175.2 403.65 174.95 402.95 174.75 402.6 175.05 401.95 175.8 400.15 177.65 399.8 178.25 400.55 178.35 401.75" fill="#e0653c" fill-rule="evenodd" stroke="none"/>
  </g>
</svg>
