<?xml version="1.0" encoding="UTF-8" standalone="no"?>
<svg xmlns:ffdec="https://www.free-decompiler.com/flash" xmlns:xlink="http://www.w3.org/1999/xlink" ffdec:objectType="shape" height="42.3px" width="233.65px" xmlns="http://www.w3.org/2000/svg">
  <g transform="matrix(1.0, 0.0, 0.0, 1.0, -153.4, -366.85)">
    <path d="M338.9 386.4 Q338.55 386.35 338.2 385.7 337.65 384.6 343.45 384.9 L344.2 385.45 Q341.8 386.55 340.9 386.55 L339.2 386.3 338.9 386.4 M381.45 393.6 Q385.2 394.6 387.0 395.65 L386.95 395.9 385.1 396.05 Q381.5 396.05 379.45 395.25 378.25 394.75 378.0 394.2 377.2 392.6 381.45 393.6 M155.85 395.75 Q153.05 395.75 153.45 393.45 153.65 392.35 154.2 391.75 155.05 389.8 156.6 388.9 158.5 387.9 159.6 390.15 L157.9 395.2 157.5 395.55 155.85 395.75 M239.05 369.05 Q238.7 368.95 239.1 368.05 239.75 366.55 245.2 366.95 L245.3 367.7 Q241.8 369.25 240.85 369.25 238.6 369.25 239.45 368.9 L239.05 369.05 M274.7 382.3 Q271.1 382.3 269.95 381.2 269.3 380.5 269.6 379.75 270.55 377.55 273.7 378.95 276.4 380.3 277.05 381.75 L276.7 382.1 274.7 382.3 M308.2 402.9 Q308.2 401.5 309.2 400.85 310.45 400.1 312.25 401.75 L312.65 405.4 312.45 405.65 311.1 405.8 Q308.7 405.8 308.2 404.15 307.95 403.35 308.2 402.9 M244.5 400.0 L244.65 400.15 243.2 400.35 Q240.85 400.35 240.7 399.25 240.65 398.7 241.0 398.0 241.35 397.2 243.3 396.2 245.7 395.05 247.55 395.85 247.4 396.3 247.55 396.7 L244.5 400.0 M367.75 409.15 Q365.35 409.15 364.45 408.35 L363.75 407.45 Q363.45 406.85 364.6 406.15 L368.65 405.9 369.3 406.5 368.75 408.9 369.1 409.0 367.75 409.15" fill="#e0653c" fill-rule="evenodd" stroke="none"/>
  </g>
</svg>
