<?xml version="1.0" encoding="UTF-8" standalone="no"?>
<svg xmlns:ffdec="https://www.free-decompiler.com/flash" xmlns:xlink="http://www.w3.org/1999/xlink" ffdec:objectType="shape" height="493.5px" width="381.15px" xmlns="http://www.w3.org/2000/svg">
  <g transform="matrix(1.0, 0.0, 0.0, 1.0, -37.65, 9.95)">
    <path d="M80.1 -5.15 Q79.55 -5.15 79.0 -4.75 L78.5 -4.45 78.25 -4.4 78.2 -4.4 Q68.6 1.5 68.35 12.9 68.2 13.6 68.35 14.25 68.05 14.35 68.0 14.7 L67.8 14.7 67.75 14.7 67.15 14.7 65.8 15.1 62.05 15.5 60.8 14.9 60.85 14.8 60.45 14.75 58.7 13.9 Q58.6 13.8 58.65 14.0 L57.75 13.35 57.15 13.65 56.65 14.8 56.5 15.05 56.2 16.0 55.8 16.75 55.7 17.15 55.4 17.6 54.45 18.2 54.35 18.5 Q52.55 19.8 51.25 21.45 L49.25 23.25 Q44.6 28.4 43.15 35.05 42.35 48.2 42.0 61.5 L43.7 65.05 45.25 68.65 45.3 68.7 46.95 70.55 49.0 73.05 49.95 73.7 50.2 73.85 49.4 73.65 49.15 73.6 Q48.25 73.6 47.35 72.85 L46.7 72.55 45.65 72.3 Q43.85 73.0 41.65 72.25 L41.65 72.45 Q42.3 77.9 41.55 83.25 41.55 91.3 41.95 99.35 43.4 101.4 46.05 103.0 L46.3 103.15 46.8 103.35 48.4 103.8 48.5 103.9 47.1 103.85 45.0 105.85 45.0 105.9 48.05 107.15 52.1 107.95 55.1 107.35 55.2 107.3 55.65 107.4 55.7 107.45 55.65 107.5 55.6 107.5 53.6 108.1 Q52.7 108.4 52.0 108.9 L52.0 108.95 Q51.9 108.85 51.85 109.0 51.45 109.15 51.15 109.4 L48.75 110.35 47.85 110.55 47.35 110.9 45.8 111.45 46.35 114.3 46.95 117.2 47.45 118.25 48.2 119.65 49.15 120.3 49.15 120.4 Q48.2 120.0 47.35 119.4 L47.15 119.3 46.95 119.25 46.8 119.25 45.8 121.05 44.5 123.4 42.2 125.8 Q41.85 135.95 41.8 146.25 L41.65 161.1 42.75 161.1 42.7 175.15 Q44.2 185.3 45.4 197.0 L46.05 203.45 Q46.75 203.95 47.45 205.85 L48.1 207.3 48.3 207.3 48.35 207.45 48.9 207.9 49.2 208.0 Q50.0 208.3 50.8 208.75 L52.8 209.15 52.75 209.2 51.45 209.25 50.8 209.2 50.45 209.5 49.55 210.6 47.4 212.65 47.2 212.85 46.2 215.35 Q45.15 217.9 43.6 220.25 L43.55 220.35 43.6 220.6 43.65 220.85 44.55 222.3 45.0 223.0 45.4 223.85 46.85 225.85 47.0 225.9 47.7 226.1 48.05 226.3 49.05 226.4 51.0 226.85 51.3 226.85 Q52.15 226.85 52.9 227.2 L52.75 227.4 51.7 227.25 50.7 227.4 50.55 227.4 50.6 227.45 50.4 227.5 49.05 227.25 Q47.75 227.4 46.6 228.1 L46.2 228.3 45.8 228.65 Q44.85 229.45 43.85 229.85 L44.4 232.0 45.0 235.6 45.05 236.0 44.9 236.7 44.9 236.95 45.0 237.2 45.45 237.95 45.5 238.0 44.6 237.65 43.95 238.8 42.9 243.05 42.25 245.1 Q41.9 274.15 41.8 303.4 41.65 309.7 42.2 315.65 44.2 316.6 46.15 317.9 48.85 319.6 51.9 321.2 L52.3 321.4 52.25 321.85 52.25 321.9 52.3 322.45 52.0 322.55 Q51.3 323.35 48.2 324.4 L47.8 324.5 Q48.45 324.75 48.75 325.65 L49.0 325.7 48.75 325.8 48.75 325.9 48.75 325.95 49.1 326.3 50.5 328.15 50.7 328.45 49.9 328.6 50.15 328.85 49.85 329.0 47.5 329.0 46.15 329.25 Q44.1 329.6 42.6 330.65 L42.2 330.85 Q41.95 351.95 41.95 373.2 43.7 376.85 44.75 381.1 L47.15 390.35 Q47.25 390.25 47.3 390.25 L47.3 390.9 47.3 391.0 47.6 391.45 47.7 391.85 47.0 393.05 46.8 393.4 46.6 393.75 46.6 393.8 46.2 395.05 45.5 396.15 Q44.75 398.65 43.35 401.1 41.7 403.65 41.4 406.4 L41.4 406.9 41.45 407.2 Q40.5 408.95 40.8 411.6 41.55 423.15 41.35 434.4 41.2 438.1 41.8 441.3 41.6 442.9 41.8 444.6 41.7 446.9 42.1 449.25 L42.1 449.3 Q42.1 450.3 42.5 451.0 42.7 453.25 44.25 455.2 L44.35 455.25 44.95 455.75 45.6 456.35 46.35 456.65 51.05 457.5 52.0 457.5 52.0 457.4 52.8 457.35 Q53.3 457.75 53.6 458.6 L53.65 458.65 53.65 458.8 Q53.85 459.95 54.65 461.1 L54.75 461.3 Q55.85 460.75 56.15 459.6 56.35 458.75 56.65 458.45 L57.45 458.7 58.7 458.55 Q63.4 458.6 68.15 456.95 L70.85 455.75 71.9 456.55 72.25 456.7 Q73.75 467.95 85.3 474.15 86.6 475.0 88.2 475.7 93.25 478.55 98.95 479.3 L99.5 479.45 102.05 479.75 102.55 479.85 104.9 479.9 105.35 479.9 Q115.05 480.95 124.75 480.2 L130.05 480.1 Q135.65 479.85 141.1 478.45 142.3 478.1 142.8 477.65 L142.85 477.6 143.3 477.4 144.2 476.9 Q144.85 476.6 145.65 476.25 L146.15 475.25 Q146.8 473.7 146.8 472.0 L146.85 471.85 146.85 471.75 Q146.75 471.15 146.9 470.75 146.7 469.7 147.05 468.8 L146.95 468.35 146.95 468.15 Q146.85 467.95 147.05 467.95 L147.05 467.45 Q147.0 466.05 147.3 464.85 147.25 464.75 147.4 464.8 L147.5 466.0 147.55 466.0 147.9 467.75 147.9 468.0 147.9 468.05 148.05 469.2 148.8 470.5 149.5 471.45 153.25 473.25 Q156.45 474.65 160.25 474.9 L160.5 474.9 Q160.55 474.6 160.95 474.15 L161.1 472.65 160.45 469.75 Q160.3 469.5 160.6 469.55 L161.4 471.05 162.45 473.8 162.7 474.7 163.1 475.45 166.7 476.85 169.8 478.15 181.7 478.1 182.0 478.15 184.1 478.4 218.7 479.85 Q246.15 479.5 273.35 481.0 L309.65 481.15 418.8 481.5 418.8 483.55 359.9 483.4 309.65 483.3 297.45 483.25 277.8 483.2 273.35 483.2 247.55 482.35 Q225.2 482.0 202.8 482.25 189.65 482.35 176.85 480.7 L168.55 481.0 Q165.35 479.85 162.55 478.2 L162.9 478.2 161.5 476.9 161.15 476.2 160.3 476.35 Q152.9 477.6 148.65 472.7 L148.6 472.65 148.6 472.7 148.65 472.7 148.7 475.15 148.45 477.05 148.4 477.55 147.15 478.25 147.3 478.25 143.75 480.35 141.35 480.9 140.85 481.1 126.6 482.5 120.3 482.6 118.5 482.65 116.8 482.6 109.8 482.5 101.05 482.45 98.4 482.45 93.95 482.65 93.65 482.75 93.25 482.75 93.15 482.75 91.05 482.95 86.4 482.6 86.35 482.65 86.1 482.65 84.35 482.4 83.4 482.35 78.4 481.75 77.3 481.8 69.75 482.2 Q66.9 482.6 64.3 482.25 L61.35 482.35 59.6 481.6 57.55 481.25 Q52.25 480.05 47.85 476.55 44.95 474.3 42.6 471.65 L42.05 470.6 41.6 470.2 41.55 470.0 41.6 470.1 41.65 469.8 Q40.95 467.95 40.65 465.95 40.1 460.2 39.95 454.55 L39.45 442.25 39.45 440.5 39.65 440.15 38.3 403.05 39.65 401.0 Q40.45 399.55 40.75 398.25 L41.55 397.3 42.0 396.5 43.2 395.0 45.8 391.8 Q44.35 388.5 43.15 383.85 L43.0 383.45 42.0 381.05 42.0 381.6 41.5 379.85 39.65 374.35 39.3 373.7 Q39.4 365.25 38.9 356.85 38.85 356.7 38.95 356.55 L38.95 356.35 38.95 354.35 Q39.1 347.55 38.8 341.3 L38.9 340.6 Q38.75 339.1 39.05 337.55 L39.5 333.2 Q39.3 333.0 39.3 333.1 L39.3 329.75 40.15 329.1 41.65 327.55 42.25 327.45 42.25 327.75 46.0 327.75 46.1 327.65 47.45 327.7 48.15 327.85 48.75 327.85 48.4 327.55 47.45 326.2 46.45 326.15 45.55 326.25 44.2 324.35 44.8 323.65 45.1 322.85 46.0 322.7 49.9 321.7 46.5 320.65 44.25 319.95 42.9 319.3 Q41.9 318.45 40.65 318.05 L40.0 317.95 39.6 317.05 39.2 316.5 38.5 309.7 38.95 297.95 Q38.7 276.2 40.05 254.55 40.4 248.75 39.6 243.65 40.2 241.55 40.2 239.85 L43.15 236.7 Q43.1 236.55 43.4 236.45 42.5 235.4 42.15 233.85 L41.9 232.8 41.35 230.8 40.9 230.75 Q40.75 230.1 41.15 229.6 L41.0 229.15 42.4 228.15 42.4 228.4 42.9 227.9 44.0 226.75 Q43.45 226.15 43.1 225.2 42.5 223.7 42.2 222.3 L40.8 221.25 40.8 219.45 40.8 219.35 42.1 217.65 Q43.5 215.6 43.7 213.8 L44.4 212.35 Q44.75 211.6 45.6 210.95 L45.55 210.85 46.1 210.9 47.5 209.25 Q47.55 208.9 47.85 208.9 L47.95 208.95 47.5 208.5 44.5 208.5 44.35 207.15 42.8 196.5 42.65 195.7 40.1 179.95 39.85 164.45 39.85 162.25 39.4 162.25 39.4 161.75 Q40.05 143.8 38.65 127.15 L38.75 124.9 39.8 124.0 40.65 122.5 41.3 122.0 41.4 121.95 42.2 121.15 45.35 117.6 45.4 117.6 Q44.5 116.3 44.2 114.55 43.9 113.1 44.25 112.0 L44.15 111.45 44.0 111.25 44.1 111.05 44.1 110.9 44.1 110.8 44.0 110.75 Q44.0 110.65 44.1 110.7 L44.0 109.7 44.05 109.7 Q44.1 109.2 44.65 109.35 L44.7 109.65 46.15 109.35 47.85 109.0 Q47.9 108.85 48.0 108.9 L45.7 108.2 Q44.35 107.8 43.45 106.85 L43.35 106.85 43.3 106.65 43.0 106.0 Q43.2 105.55 43.5 105.35 L43.65 104.9 Q43.85 104.4 44.4 104.05 43.2 103.65 42.15 102.75 L42.15 102.9 39.35 100.25 39.1 100.05 39.6 70.5 40.8 70.05 41.85 69.8 41.9 69.8 Q42.8 69.75 44.0 70.35 L45.25 70.5 42.55 67.2 40.35 64.5 40.2 64.4 39.75 64.1 Q39.75 56.15 39.9 48.3 L40.8 42.75 40.8 37.75 41.0 36.65 41.05 35.3 Q39.75 27.7 41.8 20.85 44.5 11.15 51.75 4.2 61.25 -9.1 81.1 -9.5 L81.75 -9.55 81.15 -9.35 82.2 -9.25 82.35 -9.2 85.8 -9.35 87.15 -9.25 87.35 -9.3 87.6 -9.4 96.75 -9.6 106.5 -9.1 107.3 -9.05 107.55 -8.95 Q108.5 -8.3 109.6 -7.6 L111.15 -6.8 Q111.65 -5.7 112.55 -5.15 L113.2 -3.5 Q113.8 -1.7 114.0 0.25 L114.25 0.0 Q115.4 -1.15 116.15 -2.45 116.35 -2.95 116.95 -2.65 L117.0 -2.6 Q117.1 -2.8 117.45 -2.6 118.85 -1.1 119.65 0.95 L120.15 2.9 120.15 2.85 Q120.7 1.95 121.55 1.2 121.3 0.35 121.65 -0.8 121.25 -1.8 121.1 -3.05 120.9 -4.2 121.1 -5.25 L121.25 -5.5 122.2 -6.3 123.35 -8.0 126.3 -8.5 130.4 -8.5 143.0 -9.3 Q143.8 -8.9 144.95 -8.6 144.95 -8.15 145.35 -7.65 145.5 -6.65 146.45 -6.05 L147.85 -2.4 148.3 -0.9 Q148.2 -1.15 148.45 -1.3 148.35 -1.95 148.55 -2.6 148.9 -4.75 149.65 -6.7 L149.5 -6.7 Q149.85 -7.1 150.0 -7.85 L150.35 -8.5 Q150.4 -8.65 150.75 -8.65 150.6 -8.9 150.8 -8.9 150.95 -9.15 151.2 -9.05 L152.2 -9.35 153.1 -9.9 160.95 -9.45 168.0 -9.65 Q169.8 -8.9 173.0 -9.2 L174.4 -9.25 174.95 -9.25 175.1 -9.25 176.5 -9.2 178.35 -9.6 178.85 -9.6 188.85 -9.35 189.25 -9.4 193.6 -9.65 Q194.3 -9.2 195.5 -8.7 196.55 -8.35 197.35 -8.35 198.05 -7.15 199.05 -6.55 L198.85 -6.55 199.25 -6.05 201.55 -3.6 201.9 -3.95 Q202.0 -4.4 202.45 -4.65 L203.45 -5.3 204.35 -5.2 Q206.35 -5.7 208.85 -4.6 211.25 -3.6 213.4 -2.3 L213.35 -2.55 213.4 -3.0 213.85 -2.95 Q213.75 -3.9 214.25 -4.75 L214.9 -6.1 215.75 -6.9 215.95 -7.15 216.7 -8.7 Q216.8 -8.85 217.05 -8.9 L217.1 -9.0 217.8 -9.0 Q220.15 -9.05 222.0 -9.65 L223.45 -9.45 225.2 -8.7 226.85 -8.3 226.9 -8.15 227.65 -6.7 227.3 -6.75 227.35 -6.65 228.05 -5.05 228.1 -4.7 Q229.85 -5.0 231.25 -6.75 L231.05 -6.75 Q231.95 -7.85 232.65 -9.25 L236.5 -9.95 239.2 -9.5 250.95 -9.85 Q260.05 -9.0 269.35 -9.35 L271.65 -9.1 307.95 -8.9 417.1 -8.4 417.1 -6.1 307.95 -6.4 271.65 -6.5 260.25 -6.6 256.65 -6.75 253.45 -6.9 Q249.3 -6.65 245.15 -6.95 L236.2 -6.75 234.85 -6.85 Q234.7 -6.75 234.7 -6.5 234.8 -5.7 234.5 -4.8 234.05 -3.6 234.05 -2.2 L233.95 -1.8 233.8 -2.0 Q233.5 -0.85 233.6 0.6 L233.5 1.4 Q232.5 -0.35 233.25 -2.7 L233.35 -3.1 233.15 -4.2 233.2 -5.05 Q231.1 -3.7 229.45 -1.9 229.35 -0.7 228.85 0.4 228.55 0.8 228.5 1.5 L228.45 3.05 228.45 3.1 228.5 3.8 Q228.35 4.15 228.45 4.55 L228.45 5.0 Q228.3 5.3 228.4 5.75 L228.25 6.4 227.5 1.75 226.95 -2.6 225.5 -4.8 Q224.9 -5.9 224.65 -6.8 L218.15 -6.7 217.9 -6.35 217.4 -5.65 216.3 -4.2 215.85 -2.9 215.3 -0.4 215.25 0.05 Q214.95 1.55 215.0 3.4 L214.85 3.75 214.5 2.6 Q213.4 1.6 213.05 0.4 L211.85 -1.65 Q209.15 -2.8 206.25 -3.35 204.4 -3.75 203.1 -2.65 L203.0 -2.3 Q202.6 -0.65 202.55 1.2 L202.55 2.05 Q201.15 1.1 200.3 -0.95 L198.9 -3.65 197.15 -4.85 195.15 -6.5 176.55 -6.55 174.4 -6.6 168.55 -6.7 152.7 -6.7 152.25 -5.1 151.2 -2.85 Q150.4 -1.6 149.9 -0.2 L149.0 2.05 Q148.9 2.25 148.95 2.5 L148.95 2.85 148.0 2.7 148.0 2.6 147.9 2.3 Q146.55 0.45 145.8 -1.85 L145.75 -2.15 Q144.85 -3.2 144.15 -4.75 L143.4 -6.55 124.45 -5.8 123.9 -4.0 123.75 -3.45 Q123.35 -2.15 123.45 -0.7 123.4 0.0 123.65 0.65 L123.6 1.4 123.55 1.4 122.6 3.05 121.95 3.85 120.65 5.4 120.85 6.95 120.35 10.15 120.2 10.95 Q119.4 9.95 119.6 8.15 118.85 7.0 118.55 5.05 L118.55 5.0 118.5 4.55 118.4 4.1 117.6 2.45 117.05 0.55 115.8 1.6 Q114.45 2.25 113.5 3.05 L112.4 3.1 Q112.5 2.55 112.9 2.15 111.95 1.45 111.4 -0.5 L110.7 -2.7 Q110.1 -3.35 109.65 -4.15 L109.0 -5.3 107.65 -6.0 106.9 -6.55 Q102.2 -6.35 97.6 -6.45 90.35 -6.65 83.15 -6.25 81.1 -6.15 80.1 -5.15 M65.2 -2.55 L63.3 -1.65 Q53.75 3.6 48.5 12.85 46.85 15.55 46.15 18.2 45.9 18.3 45.8 18.8 L45.05 20.65 Q44.9 20.95 44.9 21.35 L44.35 23.75 Q44.0 24.85 43.9 26.2 L44.25 26.15 Q45.4 24.4 47.05 22.8 L52.35 16.85 52.6 16.35 Q52.75 16.05 53.1 16.05 53.1 15.4 53.65 15.1 L53.85 14.8 Q54.3 14.15 54.9 13.65 L55.3 13.0 55.4 12.5 55.4 11.65 Q55.35 11.15 55.6 11.05 L55.65 10.25 55.9 9.35 Q55.8 9.15 55.85 8.95 L56.1 8.9 Q56.15 8.35 56.35 7.9 56.3 7.8 56.6 7.75 56.9 8.65 56.8 9.6 L57.1 10.45 Q57.0 10.7 57.2 11.05 L57.65 11.15 58.25 11.3 58.75 11.25 60.5 11.85 Q60.6 11.7 60.7 11.85 L61.3 12.0 61.65 12.05 63.05 12.4 66.7 12.15 Q66.2 10.75 66.65 8.75 66.95 7.25 67.65 6.15 67.7 5.25 68.05 4.4 69.55 -0.45 73.0 -3.45 L73.3 -3.45 73.4 -3.65 74.75 -4.95 74.7 -4.95 74.05 -4.95 73.3 -4.9 73.05 -4.85 70.5 -4.05 65.2 -2.55 M53.55 -0.9 L53.5 -0.85 53.4 -0.85 53.9 -1.25 53.8 -0.8 53.55 -0.9 M201.0 -2.05 L201.05 -2.05 200.95 -2.15 Q200.8 -2.1 201.0 -2.05 M37.75 325.8 L37.7 325.9 37.65 325.9 37.75 325.8 M47.0 393.05 L47.1 393.1 47.1 393.15 47.0 393.05 M92.1 479.85 L91.45 479.65 91.05 479.65 Q90.9 479.35 90.65 479.35 L90.25 479.25 90.05 479.25 88.75 478.75 88.0 478.4 87.65 478.2 86.5 477.7 Q78.05 473.35 73.55 466.1 72.0 464.0 71.3 461.6 L71.05 460.9 Q70.4 459.25 70.55 458.1 69.4 458.8 67.05 459.3 65.7 459.55 64.5 460.15 L59.7 460.4 57.7 460.45 57.3 460.95 56.25 462.4 55.85 463.7 55.65 464.95 Q54.0 464.0 53.05 461.6 L52.0 459.1 47.85 459.3 47.75 459.35 46.5 459.2 44.0 458.6 43.8 458.75 43.85 458.85 43.75 458.8 Q43.65 459.2 43.7 459.8 L43.9 460.3 44.1 460.95 44.25 461.15 Q44.3 461.75 44.85 462.6 46.05 464.65 47.85 466.35 L47.9 466.4 47.95 466.65 50.3 468.25 Q51.15 468.75 52.15 469.05 L52.45 469.2 52.55 469.3 53.4 469.4 53.95 469.45 Q56.85 469.75 59.75 469.35 L63.05 468.65 64.15 468.55 Q64.0 468.6 64.1 468.8 L64.2 469.55 64.9 471.85 65.05 472.4 65.3 472.7 65.45 473.45 67.0 475.35 68.4 476.2 Q69.65 477.2 71.35 477.8 L71.4 477.8 72.65 478.2 75.05 478.65 85.5 480.65 87.95 480.75 89.55 480.9 89.65 480.65 93.25 480.7 Q93.55 480.45 94.0 480.35 L92.1 479.85 M148.3 472.3 Q148.15 472.3 148.35 472.4 L148.35 472.35 148.3 472.3 M41.95 457.75 L41.8 457.0 41.65 456.4 42.1 461.3 42.4 463.25 43.4 464.65 44.45 466.05 46.6 467.5 44.15 464.7 Q43.25 462.95 42.75 461.2 L42.15 459.35 42.05 458.65 42.0 458.1 41.95 457.75 M45.05 468.9 L44.5 468.65 44.5 468.7 45.75 471.3 Q47.3 473.25 49.3 474.85 L51.05 476.15 52.65 476.85 56.3 478.15 57.25 478.55 Q60.1 479.55 63.1 479.8 L64.15 480.25 65.15 480.35 65.65 480.25 Q67.65 480.45 69.55 480.3 L74.0 480.0 72.75 479.75 71.65 479.7 70.15 479.25 69.3 479.05 68.75 478.95 68.65 478.95 Q67.85 478.65 67.6 478.35 65.2 477.25 64.0 475.2 L63.6 474.55 63.15 473.0 62.6 472.0 62.5 471.6 62.5 471.45 62.6 471.3 62.45 471.1 61.85 471.15 61.6 471.25 61.55 471.3 Q61.5 471.15 61.4 471.25 L61.35 471.3 60.6 471.15 60.25 471.15 Q54.15 472.2 48.55 470.4 46.7 469.95 45.25 469.0 L45.05 468.9 M62.3 471.0 L62.45 471.05 62.45 471.0 62.3 471.0" fill="#57431a" fill-rule="evenodd" stroke="none"/>
  </g>
</svg>
