<?xml version="1.0" encoding="UTF-8" standalone="no"?>
<svg xmlns:ffdec="https://www.free-decompiler.com/flash" xmlns:xlink="http://www.w3.org/1999/xlink" ffdec:objectType="shape" height="63.0px" width="420.9px" xmlns="http://www.w3.org/2000/svg">
  <g transform="matrix(1.0, 0.0, 0.0, 1.0, -65.9, -12.55)">
    <path d="M483.35 48.65 L486.8 48.65 486.8 58.3 486.65 58.3 486.65 60.7 486.6 60.7 Q485.85 74.4 472.5 75.45 L472.5 75.55 80.2 75.55 80.2 75.45 Q66.85 74.4 66.1 60.7 L66.05 60.7 66.05 58.3 65.9 58.3 65.9 30.05 66.05 30.05 66.05 29.05 66.25 25.35 Q67.85 13.6 80.2 12.65 L80.2 12.55 465.5 12.55 465.5 12.65 Q477.85 13.6 479.45 25.35 L479.65 29.05 479.65 30.05 479.8 30.05 479.8 48.65 479.8 51.65 476.35 51.65 476.35 30.05 476.65 30.05 476.65 29.05 476.35 25.35 Q474.85 16.6 465.5 15.65 L465.5 15.55 80.2 15.55 80.2 15.65 Q70.85 16.6 69.35 25.35 69.05 27.05 69.05 29.05 L69.05 30.05 69.35 30.05 69.35 58.3 69.05 58.3 69.05 59.5 69.1 60.7 Q69.8 71.4 80.2 72.45 L80.2 72.55 472.5 72.55 472.5 72.45 Q482.9 71.4 483.6 60.7 L483.65 59.5 483.65 58.3 483.35 58.3 483.35 48.65" fill="#00b4e1" fill-rule="evenodd" stroke="none"/>
    <path d="M483.35 48.65 L483.35 58.3 483.65 58.3 483.65 59.5 483.6 60.7 Q482.9 71.4 472.5 72.45 L472.5 72.55 80.2 72.55 80.2 72.45 Q69.8 71.4 69.1 60.7 L69.05 59.5 69.05 58.3 69.35 58.3 69.35 30.05 69.05 30.05 69.05 29.05 Q69.05 27.05 69.35 25.35 70.85 16.6 80.2 15.65 L80.2 15.55 465.5 15.55 465.5 15.65 Q474.85 16.6 476.35 25.35 L476.65 29.05 476.65 30.05 476.35 30.05 476.35 51.65 479.8 51.65 479.8 48.65 483.35 48.65" fill="#333333" fill-rule="evenodd" stroke="none"/>
  </g>
</svg>
