<?xml version="1.0" encoding="UTF-8" standalone="no"?>
<svg xmlns:ffdec="https://www.free-decompiler.com/flash" xmlns:xlink="http://www.w3.org/1999/xlink" ffdec:objectType="shape" height="80.0px" width="451.9px" xmlns="http://www.w3.org/2000/svg">
  <g transform="matrix(1.0, 0.0, 0.0, 1.0, -65.9, -7.55)">
    <path d="M514.35 54.65 L517.8 54.65 517.8 70.3 517.65 70.3 517.65 72.7 517.6 72.7 Q516.85 86.4 503.5 87.45 L503.5 87.55 80.2 87.55 80.2 87.45 Q66.85 86.4 66.1 72.7 L66.05 72.7 66.05 70.3 65.9 70.3 65.9 25.05 66.05 25.05 66.05 24.05 66.25 20.35 Q67.85 8.6 80.2 7.65 L80.2 7.55 496.5 7.55 496.5 7.65 Q508.85 8.6 510.45 20.35 L510.65 24.05 510.65 25.05 510.8 25.05 510.8 54.65 507.35 54.65 507.35 25.05 507.65 25.05 507.65 24.05 507.35 20.35 Q505.85 11.6 496.5 10.65 L496.5 10.55 80.2 10.55 80.2 10.65 Q70.85 11.6 69.35 20.35 69.05 22.05 69.05 24.05 L69.05 25.05 69.35 25.05 69.35 70.3 69.05 70.3 69.05 71.5 69.1 72.7 Q69.8 83.4 80.2 84.45 L80.2 84.55 503.5 84.55 503.5 84.45 Q513.9 83.4 514.6 72.7 L514.65 71.5 514.65 70.3 514.35 70.3 514.35 54.65" fill="#00b4e1" fill-rule="evenodd" stroke="none"/>
    <path d="M514.35 54.65 L514.35 70.3 514.65 70.3 514.65 71.5 514.6 72.7 Q513.9 83.4 503.5 84.45 L503.5 84.55 80.2 84.55 80.2 84.45 Q69.8 83.4 69.1 72.7 L69.05 71.5 69.05 70.3 69.35 70.3 69.35 25.05 69.05 25.05 69.05 24.05 Q69.05 22.05 69.35 20.35 70.85 11.6 80.2 10.65 L80.2 10.55 496.5 10.55 496.5 10.65 Q505.85 11.6 507.35 20.35 L507.65 24.05 507.65 25.05 507.35 25.05 507.35 54.65 510.8 54.65 514.35 54.65 M489.5 62.65 L496.5 62.65 496.5 54.65 489.5 54.65 489.5 62.65" fill="#333333" fill-rule="evenodd" stroke="none"/>
  </g>
</svg>
