<?xml version="1.0" encoding="UTF-8" standalone="no"?>
<svg xmlns:ffdec="https://www.free-decompiler.com/flash" xmlns:xlink="http://www.w3.org/1999/xlink" ffdec:objectType="shape" height="130.4px" width="343.0px" xmlns="http://www.w3.org/2000/svg">
  <g transform="matrix(1.0, 0.0, 0.0, 1.0, 0.0, -8.85)">
    <path d="M341.55 25.4 Q343.0 26.85 343.0 28.9 L343.0 119.0 Q343.0 121.05 341.55 122.55 L326.55 137.7 Q325.1 139.15 323.0 139.15 L316.4 139.15 315.35 139.25 27.7 139.25 26.7 139.15 20.05 139.15 Q17.95 139.15 16.5 137.7 L1.45 122.55 Q0.0 121.05 0.0 119.0 L0.0 28.9 Q0.0 26.85 1.5 25.4 L16.55 10.35 Q18.0 8.85 20.05 8.85 L323.0 8.85 Q325.1 8.85 326.55 10.35 L341.55 25.4 M330.15 32.2 L319.7 21.75 23.35 21.75 12.9 32.2 12.9 115.75 23.4 126.25 27.7 126.25 28.45 126.3 314.65 126.3 315.35 126.25 319.7 126.25 330.15 115.75 330.15 32.2" fill="#000000" fill-rule="evenodd" stroke="none"/>
    <path d="M325.6 12.5 L339.45 26.25 339.45 26.2 340.9 27.8 340.9 35.75 340.95 35.85 340.95 112.7 340.9 112.8 340.9 120.15 339.45 121.7 339.45 121.65 325.6 135.45 325.65 135.45 324.15 136.95 316.75 136.95 316.65 137.05 26.45 137.05 26.35 136.95 18.85 136.95 17.35 135.45 17.4 135.45 3.65 121.65 3.65 121.7 2.15 120.15 2.15 27.8 3.65 26.2 3.65 26.25 17.4 12.5 17.35 12.5 18.85 11.0 324.15 11.0 325.65 12.5 325.6 12.5 M339.45 28.3 L323.55 12.5 19.45 12.5 3.65 28.3 3.65 119.7 19.45 135.45 27.7 135.45 27.7 135.55 315.35 135.55 315.35 135.45 323.55 135.45 339.45 119.7 339.45 28.3" fill="#957b47" fill-rule="evenodd" stroke="none"/>
    <path d="M339.45 28.3 L339.45 119.7 323.55 135.45 315.35 135.45 315.35 135.55 27.7 135.55 27.7 135.45 19.45 135.45 3.65 119.7 3.65 28.3 19.45 12.5 323.55 12.5 339.45 28.3 M338.0 28.9 L323.0 13.85 20.05 13.85 5.0 28.9 5.0 119.0 20.05 134.15 27.7 134.15 27.7 134.25 315.35 134.25 315.35 134.15 323.0 134.15 338.0 119.0 338.0 28.9" fill="#dcc001" fill-rule="evenodd" stroke="none"/>
    <path d="M335.15 30.15 L335.15 117.8 321.75 131.25 315.35 131.25 315.35 131.3 27.7 131.3 27.7 131.25 21.3 131.25 7.9 117.8 7.9 30.15 21.3 16.75 321.75 16.75 335.15 30.15" fill="#6f5b35" fill-rule="evenodd" stroke="none"/>
    <path d="M338.0 28.9 L338.0 119.0 323.0 134.15 315.35 134.15 315.35 134.25 27.7 134.25 27.7 134.15 20.05 134.15 5.0 119.0 5.0 28.9 20.05 13.85 323.0 13.85 338.0 28.9 M335.15 30.15 L321.75 16.75 21.3 16.75 7.9 30.15 7.9 117.8 21.3 131.25 27.7 131.25 27.7 131.3 315.35 131.3 315.35 131.25 321.75 131.25 335.15 117.8 335.15 30.15" fill="#504414" fill-rule="evenodd" stroke="none"/>
  </g>
</svg>
