<?xml version="1.0" encoding="UTF-8" standalone="no"?>
<svg xmlns:ffdec="https://www.free-decompiler.com/flash" xmlns:xlink="http://www.w3.org/1999/xlink" ffdec:objectType="shape" height="78.0px" width="214.55px" xmlns="http://www.w3.org/2000/svg">
  <g transform="matrix(1.0, 0.0, 0.0, 1.0, -84.4, 30.0)">
    <path d="M103.4 -30.0 L279.95 -30.0 Q298.95 -30.0 298.95 -11.0 L298.95 29.0 Q298.95 48.0 279.95 48.0 L103.4 48.0 Q84.4 48.0 84.4 29.0 L84.4 -11.0 Q84.4 -30.0 103.4 -30.0" fill="#968105" fill-opacity="0.54901963" fill-rule="evenodd" stroke="none"/>
    <path d="M103.4 -26.0 Q88.4 -26.0 88.4 -11.0 L88.4 29.0 Q88.4 44.0 103.4 44.0 L279.95 44.0 Q294.95 44.0 294.95 29.0 L294.95 -11.0 Q294.95 -26.0 279.95 -26.0 L103.4 -26.0 M103.4 -28.0 L279.95 -28.0 Q296.95 -28.0 296.95 -11.0 L296.95 29.0 Q296.95 46.0 279.95 46.0 L103.4 46.0 Q86.4 46.0 86.4 29.0 L86.4 -11.0 Q86.4 -28.0 103.4 -28.0" fill="#d7bc22" fill-opacity="0.54901963" fill-rule="evenodd" stroke="none"/>
    <path d="M103.4 -26.0 L279.95 -26.0 Q294.95 -26.0 294.95 -11.0 L294.95 29.0 Q294.95 44.0 279.95 44.0 L103.4 44.0 Q88.4 44.0 88.4 29.0 L88.4 -11.0 Q88.4 -26.0 103.4 -26.0" fill="#000000" fill-opacity="0.38431373" fill-rule="evenodd" stroke="none"/>
  </g>
</svg>
