<?xml version="1.0" encoding="UTF-8" standalone="no"?>
<svg xmlns:ffdec="https://www.free-decompiler.com/flash" xmlns:xlink="http://www.w3.org/1999/xlink" ffdec:objectType="shape" height="78.0px" width="369.55px" xmlns="http://www.w3.org/2000/svg">
  <g transform="matrix(1.0, 0.0, 0.0, 1.0, -9.4, 30.0)">
    <path d="M28.4 -30.0 L359.95 -30.0 Q378.95 -30.0 378.95 -11.0 L378.95 29.0 Q378.95 48.0 359.95 48.0 L28.4 48.0 Q9.4 48.0 9.4 29.0 L9.4 -11.0 Q9.4 -30.0 28.4 -30.0" fill="#968105" fill-opacity="0.9490196" fill-rule="evenodd" stroke="none"/>
    <path d="M28.4 -26.0 Q13.4 -26.0 13.4 -11.0 L13.4 29.0 Q13.4 44.0 28.4 44.0 L359.95 44.0 Q374.95 44.0 374.95 29.0 L374.95 -11.0 Q374.95 -26.0 359.95 -26.0 L28.4 -26.0 M28.4 -28.0 L359.95 -28.0 Q376.95 -28.0 376.95 -11.0 L376.95 29.0 Q376.95 46.0 359.95 46.0 L28.4 46.0 Q11.4 46.0 11.4 29.0 L11.4 -11.0 Q11.4 -28.0 28.4 -28.0" fill="#d7bc22" fill-opacity="0.9490196" fill-rule="evenodd" stroke="none"/>
    <path d="M28.4 -26.0 L359.95 -26.0 Q374.95 -26.0 374.95 -11.0 L374.95 29.0 Q374.95 44.0 359.95 44.0 L28.4 44.0 Q13.4 44.0 13.4 29.0 L13.4 -11.0 Q13.4 -26.0 28.4 -26.0" fill="#000000" fill-opacity="0.70980394" fill-rule="evenodd" stroke="none"/>
  </g>
</svg>
