<?xml version="1.0" encoding="UTF-8" standalone="no"?>
<svg xmlns:ffdec="https://www.free-decompiler.com/flash" xmlns:xlink="http://www.w3.org/1999/xlink" ffdec:objectType="shape" height="123.75px" width="127.8px" xmlns="http://www.w3.org/2000/svg">
  <g transform="matrix(1.0, 0.0, 0.0, 1.0, 44.5, 133.1)">
    <path d="M1.9 -126.0 L2.3 -125.8 2.5 -125.4 2.75 -124.65 Q2.9 -124.3 2.7 -123.9 L2.4 -123.3 2.15 -122.95 1.75 -122.75 0.75 -122.5 0.2 -122.55 -0.2 -122.6 -0.5 -122.65 -0.6 -122.65 -0.8 -122.5 -1.5 -122.35 -2.15 -122.75 -4.1 -125.45 -4.2 -126.15 -3.9 -126.75 -3.25 -127.0 Q-1.6 -127.0 -0.75 -126.15 L-0.35 -126.3 0.5 -126.5 0.85 -126.4 1.9 -126.0 M3.5 -115.65 L3.55 -116.0 3.9 -116.6 4.55 -116.85 Q6.5 -116.85 6.85 -116.05 L7.0 -115.5 6.85 -114.95 Q6.45 -114.2 5.25 -114.2 4.05 -114.2 3.7 -114.95 3.45 -115.25 3.5 -115.65 M8.65 -111.25 L9.1 -110.9 9.5 -109.8 9.5 -109.55 9.25 -108.6 8.95 -108.1 8.45 -107.85 7.95 -107.75 7.35 -107.85 Q7.05 -108.0 6.9 -108.25 6.5 -108.85 6.5 -110.25 L6.75 -110.9 Q7.0 -111.2 7.4 -111.25 L8.15 -111.35 8.65 -111.25 M26.65 -106.0 Q29.05 -106.35 29.6 -105.35 L29.8 -104.75 29.8 -104.1 29.6 -103.5 Q29.4 -103.25 29.1 -103.15 L28.3 -102.9 27.8 -102.85 27.3 -102.95 27.15 -103.0 Q26.2 -103.35 26.0 -103.75 L25.8 -104.35 25.8 -105.0 26.05 -105.65 26.65 -106.0 M79.85 -98.25 L80.0 -97.85 80.1 -96.85 Q80.1 -95.85 78.25 -95.85 L76.75 -96.1 76.6 -96.25 76.1 -97.05 76.0 -97.55 76.2 -98.1 Q77.15 -99.65 79.5 -98.5 L79.85 -98.25 M13.05 -89.95 Q13.0 -89.15 11.95 -88.6 L11.5 -88.5 11.0 -88.6 10.65 -88.8 10.6 -88.85 Q9.8 -89.45 9.8 -90.35 L10.1 -91.05 Q10.4 -91.35 10.8 -91.35 L11.3 -91.35 12.65 -90.9 13.0 -90.5 13.05 -89.95 M11.5 -64.8 L11.25 -63.3 10.9 -62.95 10.75 -62.9 9.7 -62.5 9.35 -62.5 8.25 -62.85 Q7.5 -63.05 7.5 -64.65 7.5 -67.1 9.3 -67.3 L9.9 -67.25 Q10.85 -66.85 11.0 -66.55 11.5 -66.0 11.5 -64.8 M1.3 -50.0 L3.5 -49.5 3.95 -49.1 4.05 -48.5 Q3.95 -47.45 2.95 -46.95 L2.3 -46.85 1.8 -46.95 1.65 -47.0 Q0.7 -47.35 0.5 -47.75 L0.3 -48.35 0.3 -49.0 Q0.3 -49.4 0.6 -49.7 L1.3 -50.0 M26.7 -56.2 L27.9 -56.1 28.3 -55.95 28.6 -55.65 29.1 -54.9 29.25 -54.35 29.1 -53.75 Q28.45 -52.9 27.4 -52.4 L26.9 -52.35 25.9 -52.55 25.65 -52.75 Q25.25 -52.9 25.25 -54.35 25.25 -56.25 26.6 -56.2 L26.7 -56.2 M30.9 -46.55 Q30.7 -46.9 30.8 -47.25 L31.1 -47.85 31.75 -48.1 32.05 -48.1 32.7 -47.85 Q34.45 -46.4 35.7 -43.45 L36.35 -41.55 36.5 -41.2 36.5 -40.65 35.7 -38.85 35.25 -38.4 34.65 -38.35 34.1 -38.65 33.45 -39.4 33.45 -39.35 32.9 -40.0 32.65 -40.35 31.8 -42.85 31.8 -43.45 31.9 -43.65 30.9 -46.55 M29.75 -25.6 L30.05 -25.6 30.7 -25.35 31.05 -24.75 31.5 -19.35 Q31.5 -16.55 31.0 -14.95 L30.65 -14.45 30.05 -14.25 29.75 -14.25 29.15 -14.45 28.8 -15.0 Q28.5 -16.2 28.5 -19.15 28.5 -22.35 28.75 -24.7 28.8 -25.1 29.1 -25.35 L29.75 -25.6 M1.45 -35.7 L1.65 -35.3 1.75 -34.8 1.6 -34.3 1.1 -33.55 0.8 -33.25 0.45 -33.1 -1.3 -32.9 -1.75 -32.6 -2.3 -32.65 -3.05 -32.9 -3.6 -33.3 -3.75 -34.0 -3.4 -34.6 -1.5 -35.6 -1.55 -35.6 0.55 -36.25 1.1 -36.1 1.45 -35.7 M0.3 -25.45 L1.9 -25.5 Q2.3 -25.45 2.55 -25.1 L2.85 -24.7 3.05 -24.3 3.05 -23.9 Q3.0 -23.35 2.25 -22.65 L2.2 -22.6 Q1.55 -22.1 0.95 -22.0 L0.7 -21.9 0.15 -21.95 Q-0.7 -21.9 -0.7 -23.75 -0.7 -25.65 0.3 -25.45 M18.95 -26.8 L19.45 -26.55 19.75 -26.1 Q20.25 -24.15 20.25 -21.75 20.25 -20.1 19.75 -17.75 L19.5 -17.3 19.05 -17.05 18.55 -16.9 18.0 -16.85 17.55 -17.15 Q17.35 -17.35 17.3 -17.6 16.75 -20.05 16.75 -21.8 L16.8 -24.4 Q17.05 -26.4 18.4 -26.75 L18.95 -26.8 M39.1 -13.75 L40.85 -13.6 41.55 -13.2 42.3 -11.65 42.3 -11.25 42.1 -10.85 Q41.85 -10.4 40.1 -10.0 L36.7 -9.35 36.25 -9.35 35.65 -9.6 Q34.9 -10.05 34.65 -10.45 L34.5 -11.15 34.85 -11.7 Q35.6 -12.45 36.1 -12.7 L36.15 -12.75 38.75 -13.7 39.1 -13.75 M54.85 -24.95 Q54.15 -23.8 53.3 -23.6 L52.7 -23.65 Q52.3 -23.75 50.95 -24.8 L50.6 -25.35 50.65 -26.0 Q51.15 -27.1 51.85 -27.45 L54.1 -27.55 54.55 -27.15 54.75 -26.6 Q54.75 -26.25 54.9 -25.95 L55.0 -25.45 54.85 -24.95 M82.3 -96.1 L83.0 -95.85 83.3 -95.2 83.25 -94.75 82.95 -94.25 82.4 -94.05 81.8 -94.15 Q81.5 -94.3 81.4 -94.6 L81.35 -94.65 Q81.2 -94.95 81.3 -95.3 L81.65 -95.85 82.25 -96.1 82.3 -96.1 M-17.5 -130.55 L-17.6 -130.4 Q-18.1 -130.1 -18.65 -129.9 L-19.15 -129.85 -20.0 -130.1 Q-20.15 -129.1 -20.95 -128.65 L-21.75 -128.5 -22.15 -128.6 -22.2 -128.65 -23.35 -129.45 -23.5 -130.05 -23.25 -130.65 -22.3 -131.4 -21.1 -131.65 -21.1 -131.75 -20.8 -132.45 Q-20.25 -133.1 -19.0 -133.1 L-18.65 -133.05 Q-17.55 -132.65 -17.15 -132.05 L-17.0 -131.55 -17.1 -131.05 -17.5 -130.55 M-34.75 -111.45 Q-34.7 -111.25 -34.8 -111.0 -36.7 -105.4 -38.0 -100.65 L-37.85 -100.2 -37.75 -99.45 Q-37.7 -99.25 -37.8 -99.0 L-38.35 -96.55 Q-36.55 -103.9 -33.7 -109.05 L-33.15 -109.55 -32.4 -109.5 -31.9 -108.95 -31.9 -108.2 Q-36.95 -95.35 -38.05 -79.15 L-37.85 -78.8 -37.9 -78.2 Q-38.4 -77.15 -39.15 -76.9 L-39.55 -76.85 -42.9 -77.0 -43.3 -77.1 -43.65 -77.4 -43.7 -77.45 -44.1 -77.95 -44.3 -78.8 -44.45 -79.15 -44.5 -79.65 -44.35 -80.05 Q-44.25 -82.8 -43.2 -88.15 L-41.85 -96.35 Q-41.55 -99.4 -39.75 -104.6 L-39.7 -104.65 -36.75 -112.45 -36.35 -112.95 -35.7 -113.1 -35.15 -112.8 -34.85 -112.2 -34.75 -111.45 M-24.7 -78.95 Q-24.4 -78.85 -24.2 -78.6 L-24.0 -78.0 Q-24.0 -77.7 -24.15 -77.45 -26.0 -74.7 -28.0 -73.95 -28.25 -73.7 -28.65 -73.7 -29.85 -73.4 -29.85 -75.5 -29.95 -76.7 -28.3 -78.05 -26.55 -79.55 -24.7 -78.95 M-17.35 -38.55 Q-15.95 -42.25 -14.4 -42.1 L-13.8 -41.95 -13.4 -41.5 -13.35 -40.9 Q-13.5 -40.1 -14.4 -37.4 -15.05 -35.5 -15.1 -33.95 -15.1 -33.55 -15.4 -33.25 -15.7 -33.0 -16.1 -33.0 -16.05 -32.85 -16.35 -32.6 L-16.45 -32.5 -16.7 -32.35 -17.25 -32.2 Q-18.5 -31.9 -18.5 -34.0 -18.5 -35.75 -17.35 -38.55" fill="#ffff00" fill-opacity="0.5019608" fill-rule="evenodd" stroke="none"/>
    <path d="M1.8 -124.35 L1.5 -123.75 0.5 -123.5 -0.2 -123.6 Q-0.5 -123.7 -0.5 -124.5 -0.5 -125.25 0.0 -125.4 L0.5 -125.5 1.55 -125.1 1.8 -124.35 M5.25 -115.2 Q4.7 -115.2 4.5 -115.5 L4.55 -115.85 Q5.75 -115.85 6.0 -115.5 5.8 -115.2 5.25 -115.2 M7.75 -108.75 Q7.5 -109.2 7.5 -110.25 L8.25 -110.35 8.5 -109.8 8.25 -108.85 7.75 -108.75 M28.8 -104.75 L28.8 -104.1 28.0 -103.85 27.5 -103.95 26.8 -104.35 26.8 -105.0 Q28.4 -105.25 28.8 -104.75 M79.1 -97.1 Q79.05 -96.85 78.25 -96.85 L77.3 -96.95 Q77.2 -97.05 77.25 -97.1 L77.0 -97.5 79.05 -97.6 79.1 -97.1 M11.5 -89.5 L11.15 -89.7 Q10.8 -89.95 10.8 -90.35 L11.3 -90.35 12.05 -90.1 11.5 -89.5 M10.5 -64.8 L10.4 -63.85 10.3 -63.85 Q10.0 -63.6 9.5 -63.5 L8.75 -63.7 Q8.5 -63.85 8.5 -64.65 8.5 -66.15 9.5 -66.35 L10.2 -65.95 10.5 -64.8 M28.25 -54.35 Q27.8 -53.7 27.0 -53.35 L26.35 -53.45 26.25 -54.35 Q26.25 -55.15 26.7 -55.2 L27.75 -55.1 28.25 -54.35 M32.05 -47.1 Q33.65 -45.75 34.75 -43.1 L35.45 -41.05 35.5 -41.0 35.55 -40.95 34.85 -39.35 34.2 -40.05 33.6 -40.7 32.75 -43.15 33.15 -42.9 31.75 -47.1 32.05 -47.1 M0.75 -34.85 L0.25 -34.1 -2.0 -33.6 -2.75 -33.85 -1.15 -34.7 Q0.1 -35.25 0.55 -35.25 L0.75 -34.85 M3.05 -48.6 Q3.0 -48.1 2.5 -47.85 L2.0 -47.95 1.3 -48.35 1.3 -49.0 3.05 -48.6 M17.75 -21.8 L17.8 -24.3 Q17.95 -25.55 18.75 -25.85 19.25 -24.0 19.25 -21.75 19.25 -20.2 18.75 -18.0 L18.25 -17.85 Q17.75 -20.15 17.75 -21.8 M1.75 -24.5 L2.05 -24.1 Q2.0 -23.8 1.55 -23.4 1.05 -23.0 0.55 -23.0 L0.45 -22.9 Q0.3 -22.95 0.3 -23.75 L0.35 -24.45 Q0.45 -24.35 0.5 -24.5 L1.75 -24.5 M29.75 -24.6 L30.05 -24.6 30.5 -19.35 Q30.5 -16.75 30.05 -15.25 L29.75 -15.25 Q29.5 -16.35 29.5 -19.15 29.5 -22.3 29.75 -24.6 M36.5 -10.35 L36.1 -10.5 35.5 -11.0 36.6 -11.85 39.0 -12.75 40.75 -12.6 41.3 -11.5 39.9 -11.0 36.5 -10.35 M54.0 -25.5 L53.0 -24.6 51.55 -25.6 Q51.9 -26.35 52.35 -26.6 52.85 -26.9 53.75 -26.6 53.75 -25.95 54.0 -25.5 M82.3 -95.1 L82.3 -95.05 82.25 -95.1 82.3 -95.1 M-18.0 -131.5 L-18.2 -131.25 Q-18.55 -131.0 -19.0 -130.85 -20.1 -131.05 -20.1 -131.75 -19.75 -132.1 -19.0 -132.1 L-18.0 -131.5 M-1.0 -124.5 L-1.35 -123.35 -3.25 -126.0 Q-1.4 -126.0 -1.0 -124.5 M-21.5 -129.5 L-21.9 -129.6 -22.5 -130.0 -21.85 -130.5 Q-21.35 -130.75 -21.0 -130.5 -21.0 -129.8 -21.5 -129.5 M-38.75 -99.35 L-39.55 -95.2 -40.1 -91.1 -39.85 -91.35 -39.35 -91.75 Q-39.1 -91.0 -39.1 -89.6 L-38.6 -91.25 Q-38.25 -92.4 -38.25 -93.1 L-38.1 -93.1 Q-36.2 -102.45 -32.85 -108.6 -38.0 -95.4 -39.05 -78.8 L-38.85 -78.6 Q-39.1 -78.0 -39.5 -77.85 L-42.85 -78.0 -42.95 -78.2 -43.2 -78.4 -43.3 -79.05 -43.5 -79.5 -43.35 -79.7 Q-43.3 -82.35 -42.25 -88.0 -41.0 -94.6 -40.85 -96.25 -40.55 -99.2 -38.8 -104.3 L-35.85 -112.1 -35.75 -111.35 -39.2 -100.1 -38.85 -100.1 -38.75 -99.35 M-28.65 -74.7 Q-28.85 -74.7 -28.85 -75.5 -28.85 -76.3 -27.65 -77.3 -26.35 -78.4 -25.0 -78.0 -26.7 -75.5 -28.5 -74.85 L-28.65 -74.7 M-14.35 -41.1 L-15.35 -37.75 Q-16.05 -35.65 -16.1 -34.0 L-17.0 -33.35 -17.25 -33.2 Q-17.5 -33.2 -17.5 -34.0 -17.5 -35.6 -16.45 -38.2 -15.35 -41.05 -14.35 -41.1" fill="#ffffff" fill-rule="evenodd" stroke="none"/>
  </g>
</svg>
