<?xml version="1.0" encoding="UTF-8" standalone="no"?>
<svg xmlns:ffdec="https://www.free-decompiler.com/flash" xmlns:xlink="http://www.w3.org/1999/xlink" ffdec:objectType="shape" height="87.75px" width="27.4px" xmlns="http://www.w3.org/2000/svg">
  <g transform="matrix(1.0, 0.0, 0.0, 1.0, -19.1, 80.1)">
    <path d="M33.0 -78.45 Q33.0 -79.05 33.4 -79.3 L33.45 -79.3 Q34.45 -80.5 36.05 -79.85 37.8 -79.15 37.5 -78.0 37.5 -77.05 36.6 -76.6 L36.55 -76.55 36.2 -76.5 36.15 -76.5 36.0 -76.45 35.9 -76.45 35.8 -76.45 35.7 -76.45 Q34.5 -76.4 33.4 -77.6 33.0 -77.95 33.0 -78.45 M31.0 -46.55 L31.5 -45.55 31.6 -44.95 31.35 -44.25 31.0 -43.8 30.95 -43.75 30.75 -43.55 30.55 -43.4 30.5 -43.35 29.75 -43.35 29.4 -43.4 28.9 -43.55 Q28.1 -43.85 28.1 -45.2 28.1 -46.2 28.5 -46.7 29.0 -47.4 29.95 -47.25 L30.5 -47.1 31.0 -46.55 M27.6 -28.75 Q29.45 -28.75 29.9 -27.05 L29.9 -27.0 29.9 -26.85 29.9 -26.65 29.9 -26.6 Q29.85 -25.8 28.9 -25.15 L28.25 -25.0 27.65 -25.0 Q27.3 -25.0 27.0 -25.25 26.6 -25.5 26.55 -25.85 26.25 -26.25 26.25 -26.9 L26.4 -27.75 Q26.5 -28.25 26.9 -28.5 L27.6 -28.75 M41.85 -14.35 Q41.85 -16.7 44.2 -15.9 46.5 -15.1 46.5 -13.7 46.5 -12.25 44.6 -12.25 L43.95 -12.3 43.9 -12.3 Q43.1 -12.55 42.5 -13.2 41.85 -13.95 41.85 -14.35 M37.15 2.2 L37.2 2.2 Q38.15 2.1 38.65 2.65 39.1 3.0 39.1 3.95 39.1 4.85 38.7 5.3 38.25 5.85 37.35 5.85 36.45 5.85 36.05 5.45 L36.05 5.4 Q35.5 4.95 35.5 4.15 L35.5 4.1 Q35.5 2.4 37.15 2.2 M28.0 5.55 L27.75 6.75 Q27.4 7.3 26.0 7.65 24.5 7.25 24.2 6.6 L24.1 5.5 23.85 4.35 23.6 3.3 Q23.6 2.6 25.0 2.0 L25.75 2.0 27.1 3.8 28.0 5.55 M22.6 2.15 Q23.4 2.55 23.55 3.0 L23.6 3.75 23.1 5.65 Q22.55 6.95 22.0 7.35 L20.0 7.25 Q19.1 6.3 19.1 6.0 19.1 4.85 20.0 4.5 L20.1 3.9 20.05 3.85 20.05 3.65 20.1 3.7 20.2 3.25 Q20.5 2.3 21.5 2.1 L22.6 2.15" fill="#ffff00" fill-opacity="0.5019608" fill-rule="evenodd" stroke="none"/>
    <path d="M33.9 -78.75 Q34.6 -79.6 35.75 -79.15 36.85 -78.7 36.75 -78.1 36.75 -77.5 36.2 -77.25 L36.1 -77.25 35.8 -77.2 35.7 -77.2 Q34.8 -77.15 33.9 -78.1 L33.75 -78.45 33.9 -78.75 M30.75 -44.7 L30.4 -44.25 30.2 -44.05 29.9 -44.05 29.4 -44.15 29.25 -44.2 Q28.85 -44.4 28.85 -45.2 28.85 -46.6 29.85 -46.5 L30.15 -46.4 30.3 -46.2 30.8 -45.2 30.85 -44.95 30.75 -44.7 M27.6 -28.0 Q28.85 -28.0 29.15 -26.85 L29.15 -26.65 Q29.1 -26.15 28.5 -25.8 L28.25 -25.75 27.65 -25.75 27.35 -25.85 27.2 -26.1 27.0 -26.9 27.15 -27.6 27.3 -27.9 27.6 -28.0 M44.85 -14.75 Q45.7 -14.3 45.6 -13.9 45.6 -13.3 45.25 -13.05 L44.4 -12.95 44.15 -13.0 43.95 -13.1 43.8 -13.25 43.35 -13.9 43.25 -14.1 43.2 -14.3 43.25 -14.6 43.45 -14.9 43.75 -15.05 44.8 -14.75 44.85 -14.75 M37.25 2.95 Q37.8 2.9 38.05 3.2 38.35 3.4 38.35 3.95 38.35 5.15 37.35 5.1 36.2 5.1 36.25 4.15 36.25 3.1 37.2 2.95 L37.25 2.95 M26.25 4.6 L26.6 4.75 26.75 5.1 26.8 5.4 26.75 5.75 26.7 5.95 26.5 6.1 26.25 6.25 26.05 6.3 25.8 6.25 25.6 6.15 Q25.1 5.9 25.1 5.35 L25.1 5.25 25.15 5.0 25.35 4.75 Q25.45 4.6 25.65 4.6 L26.25 4.6 M25.65 4.3 L25.3 4.35 24.9 4.25 24.7 3.95 24.65 3.65 24.65 3.55 Q24.65 3.1 25.05 2.95 L25.05 2.9 25.3 2.75 25.6 2.8 Q26.15 3.0 26.15 3.6 L26.1 3.85 26.0 4.05 25.85 4.2 25.65 4.3 M22.1 3.45 L22.3 3.7 22.4 3.95 22.4 4.3 22.3 4.55 22.1 4.8 21.8 5.0 21.55 5.05 21.3 5.0 21.1 4.9 20.85 4.7 20.7 4.15 20.7 4.1 20.75 3.8 20.95 3.5 Q21.05 3.35 21.25 3.35 L21.8 3.35 22.1 3.45 M20.4 5.65 Q20.4 5.45 20.55 5.3 20.7 5.15 20.9 5.15 L21.3 5.15 21.6 5.25 21.75 5.45 21.85 5.65 21.9 5.85 21.85 6.1 21.3 6.6 21.1 6.6 20.9 6.55 20.65 6.4 20.5 6.2 20.4 5.95 20.4 5.65" fill="#ffffff" fill-rule="evenodd" stroke="none"/>
  </g>
</svg>
