<?xml version="1.0" encoding="UTF-8" standalone="no"?>
<svg xmlns:ffdec="https://www.free-decompiler.com/flash" xmlns:xlink="http://www.w3.org/1999/xlink" ffdec:objectType="shape" height="83.0px" width="488.4px" xmlns="http://www.w3.org/2000/svg">
  <g transform="matrix(1.0, 0.0, 0.0, 1.0, 73.6, -7.55)">
    <path d="M-48.6 10.55 L-48.6 7.55 400.5 7.55 400.5 7.65 Q412.85 8.6 414.45 20.35 L414.65 24.05 414.65 25.05 414.8 25.05 414.8 73.3 414.65 73.3 414.65 75.7 414.6 75.7 Q413.85 89.4 400.5 90.45 L400.5 90.55 -59.3 90.55 -59.3 90.45 Q-72.65 89.4 -73.4 75.7 L-73.45 75.7 -73.45 73.3 -73.6 73.3 -73.6 56.55 -70.15 56.55 -70.15 73.3 -70.45 73.3 -70.45 74.5 -70.4 75.7 Q-69.7 86.4 -59.3 87.45 L-59.3 87.55 400.5 87.55 400.5 87.45 Q410.9 86.4 411.6 75.7 L411.65 74.5 411.65 73.3 411.35 73.3 411.35 25.05 411.65 25.05 411.65 24.05 411.35 20.35 Q409.85 11.6 400.5 10.65 L400.5 10.55 -48.6 10.55" fill="#00b4e1" fill-rule="evenodd" stroke="none"/>
    <path d="M-48.6 10.55 L400.5 10.55 400.5 10.65 Q409.85 11.6 411.35 20.35 L411.65 24.05 411.65 25.05 411.35 25.05 411.35 73.3 411.65 73.3 411.65 74.5 411.6 75.7 Q410.9 86.4 400.5 87.45 L400.5 87.55 -59.3 87.55 -59.3 87.45 Q-69.7 86.4 -70.4 75.7 L-70.45 74.5 -70.45 73.3 -70.15 73.3 -70.15 56.55 -48.6 56.55 -48.6 10.55" fill="#333333" fill-rule="evenodd" stroke="none"/>
  </g>
</svg>
