<?xml version="1.0" encoding="UTF-8" standalone="no"?>
<svg xmlns:ffdec="https://www.free-decompiler.com/flash" xmlns:xlink="http://www.w3.org/1999/xlink" ffdec:objectType="shape" height="369.9px" width="40.7px" xmlns="http://www.w3.org/2000/svg">
  <g transform="matrix(1.0, 0.0, 0.0, 1.0, -47.45, -177.5)">
    <path d="M86.4 179.55 L86.65 179.65 87.05 179.85 86.7 179.85 86.55 179.7 86.4 179.55 M53.75 179.85 L54.55 179.85 Q55.2 179.5 56.0 179.3 L56.45 179.2 58.2 179.05 81.65 179.05 82.5 179.2 82.8 179.3 83.65 179.65 84.05 179.85 84.25 179.95 84.35 180.05 84.45 180.1 84.75 180.3 84.85 180.35 85.05 180.55 85.3 180.8 85.6 181.15 85.9 181.65 86.0 181.8 86.15 182.15 86.5 183.35 86.6 183.9 86.65 184.8 86.65 210.85 Q86.65 213.8 85.05 215.3 83.45 216.7 80.45 216.7 L55.25 216.7 52.45 216.35 51.3 215.75 50.65 215.3 50.35 214.95 Q49.0 213.5 49.0 210.8 L49.0 184.95 Q49.0 181.2 51.55 179.85 L53.75 179.85 M52.2 214.9 L52.8 215.2 53.05 215.3 55.05 215.7 55.8 215.7 79.8 215.7 81.0 215.65 81.95 215.5 82.25 215.45 82.45 215.35 82.55 215.3 82.6 215.3 85.45 212.05 85.55 211.55 85.6 211.4 85.6 211.35 85.65 210.25 85.65 210.15 85.65 191.4 85.7 190.85 85.7 190.8 85.65 190.45 85.65 185.5 85.65 185.2 85.55 184.15 85.35 183.4 85.2 182.85 85.15 182.75 85.05 182.5 85.0 182.45 84.9 182.3 84.8 182.2 84.75 182.1 84.55 181.8 84.5 181.7 84.45 181.7 84.25 181.55 83.45 180.85 82.75 180.55 82.25 180.4 82.0 180.3 81.75 180.25 79.95 180.05 79.8 180.05 55.85 180.05 55.55 180.05 55.4 180.05 55.2 180.1 54.85 180.1 Q50.0 180.55 50.0 185.65 L50.0 210.3 50.0 210.45 50.0 210.55 50.0 210.6 50.05 210.85 Q50.1 212.0 50.5 212.95 50.7 213.5 51.05 213.9 L51.35 214.3 51.55 214.5 51.65 214.55 51.7 214.6 51.8 214.7 51.9 214.7 52.05 214.8 52.25 214.95 52.2 214.9 M52.35 256.7 L52.9 256.95 55.2 257.5 55.95 257.5 79.9 257.5 81.15 257.45 82.1 257.25 82.35 257.2 82.6 257.1 82.7 257.05 82.75 257.05 85.6 253.85 85.7 253.3 85.75 253.2 85.75 253.15 85.8 252.05 85.8 251.9 85.8 233.15 85.85 232.65 85.85 232.6 85.8 232.2 85.8 227.3 85.8 226.95 85.7 225.9 85.5 225.15 85.25 224.55 85.35 224.65 85.3 224.55 85.15 224.25 85.1 224.2 85.0 224.05 84.95 223.95 84.9 223.85 84.7 223.6 84.65 223.5 84.6 223.45 84.4 223.3 83.6 222.65 82.9 222.3 82.35 222.15 82.15 222.05 81.9 222.05 80.1 221.85 79.95 221.85 56.0 221.85 55.65 221.85 55.55 221.85 55.35 221.9 55.0 221.9 Q50.15 222.3 50.15 227.4 L50.15 252.1 50.15 252.25 50.15 252.35 50.2 252.6 Q50.25 253.8 50.65 254.75 L51.15 255.7 51.5 256.05 51.7 256.25 51.8 256.3 51.85 256.35 51.95 256.45 52.0 256.45 52.05 256.5 52.15 256.6 52.4 256.75 52.35 256.7 M51.4 257.55 L50.45 256.75 Q49.15 255.25 49.15 252.55 L49.15 226.7 Q49.15 220.85 55.35 220.85 L80.55 220.85 Q82.4 220.85 83.8 221.4 L84.35 221.75 84.45 221.8 84.5 221.85 84.6 221.9 84.9 222.05 85.0 222.1 85.15 222.3 85.45 222.6 85.75 222.9 86.0 223.4 86.1 223.6 86.3 223.9 86.65 225.1 86.75 225.65 86.8 226.55 86.8 252.6 Q86.8 258.5 80.55 258.5 L55.4 258.5 52.6 258.1 51.4 257.55 M86.8 525.4 L85.8 525.4 85.8 517.6 85.85 517.05 85.85 517.0 85.8 516.65 85.8 511.7 85.8 511.4 85.7 510.35 85.5 509.6 85.25 508.95 85.35 509.05 85.3 508.95 85.15 508.7 85.1 508.65 85.0 508.5 84.95 508.4 84.9 508.3 84.7 508.05 84.65 507.95 84.6 507.9 84.4 507.75 83.6 507.1 82.9 506.75 82.35 506.6 82.15 506.5 81.9 506.45 80.1 506.3 79.95 506.3 56.0 506.3 55.65 506.3 55.55 506.3 55.35 506.3 55.0 506.3 Q50.15 506.75 50.15 511.85 L50.15 525.4 49.25 525.4 49.15 524.4 49.15 511.15 Q49.15 505.3 55.35 505.3 L80.55 505.3 Q82.4 505.3 83.8 505.85 L84.35 506.2 84.45 506.25 84.5 506.3 84.6 506.3 84.9 506.5 85.0 506.55 85.15 506.75 85.45 507.05 85.75 507.35 86.0 507.85 86.1 508.05 86.3 508.35 86.65 509.55 86.75 510.1 86.8 511.0 86.8 525.4 M83.25 261.9 L52.7 261.9 55.35 261.55 80.55 261.55 83.0 261.85 83.1 261.85 83.25 261.9 M52.35 338.1 L52.9 338.4 55.2 338.9 55.95 338.9 79.9 338.9 81.15 338.85 82.1 338.7 82.35 338.65 82.6 338.55 82.7 338.5 82.75 338.5 85.6 335.25 85.7 334.75 85.75 334.6 85.75 334.55 85.8 333.45 85.8 333.35 85.8 314.6 85.85 314.05 85.85 314.0 85.8 313.65 85.8 308.7 85.8 308.4 85.7 307.35 85.5 306.6 85.25 305.95 85.35 306.05 85.3 305.95 85.15 305.7 85.1 305.65 85.0 305.5 84.95 305.4 84.9 305.3 84.7 305.0 84.65 304.9 84.6 304.9 84.4 304.75 83.6 304.05 82.9 303.75 82.35 303.6 82.15 303.5 81.9 303.45 80.1 303.25 79.95 303.25 56.0 303.25 55.65 303.25 55.55 303.25 55.35 303.3 55.0 303.3 Q50.15 303.75 50.15 308.85 L50.15 333.5 50.15 333.65 50.15 333.75 50.15 333.8 50.2 334.05 Q50.25 335.2 50.65 336.15 L51.15 337.1 51.5 337.5 51.7 337.7 51.8 337.75 51.85 337.8 51.95 337.85 52.0 337.85 52.05 337.9 52.15 338.0 52.4 338.15 52.35 338.1 M51.4 338.95 L50.45 338.15 Q49.15 336.7 49.15 334.0 L49.15 308.15 Q49.15 302.25 55.35 302.25 L80.55 302.25 83.45 302.7 83.7 302.8 83.8 302.85 84.35 303.15 84.45 303.2 84.5 303.25 84.6 303.3 84.9 303.5 85.0 303.55 85.15 303.75 85.45 304.0 85.75 304.35 86.0 304.85 86.1 305.0 86.3 305.35 86.65 306.55 86.75 307.1 86.8 308.0 86.8 334.05 Q86.8 339.9 80.55 339.9 L55.4 339.9 52.6 339.55 51.4 338.95 M51.4 379.7 L50.45 378.85 Q49.15 377.4 49.15 374.7 L49.15 348.85 Q49.15 343.0 55.35 343.0 L80.55 343.0 Q82.4 343.0 83.8 343.55 L84.35 343.9 84.45 343.95 84.5 344.0 84.6 344.05 84.9 344.2 85.0 344.25 85.15 344.45 85.45 344.75 85.75 345.05 86.0 345.55 86.1 345.75 86.3 346.05 86.65 347.25 86.75 347.8 86.8 348.7 86.8 374.75 Q86.8 380.65 80.55 380.65 L55.4 380.65 52.6 380.25 51.4 379.7 M55.0 344.05 Q50.15 344.45 50.15 349.55 L50.15 374.25 50.15 374.4 50.15 374.5 50.2 374.75 Q50.25 375.95 50.65 376.9 L51.15 377.85 51.5 378.2 51.7 378.4 51.8 378.45 51.85 378.5 51.95 378.6 52.0 378.6 52.05 378.65 52.15 378.75 52.35 378.85 52.9 379.1 55.2 379.65 55.95 379.65 79.9 379.65 81.15 379.6 82.1 379.4 82.35 379.35 82.6 379.25 82.7 379.2 82.75 379.2 85.6 376.0 85.7 375.45 85.75 375.3 85.8 374.2 85.8 374.05 85.8 355.3 85.85 354.8 85.85 354.75 85.8 354.35 85.8 349.45 85.8 349.1 85.7 348.05 85.5 347.3 85.25 346.7 85.35 346.75 85.3 346.7 85.15 346.4 85.1 346.35 85.0 346.2 84.95 346.1 84.9 346.0 84.7 345.75 84.65 345.65 84.6 345.6 84.4 345.45 83.6 344.8 82.9 344.45 82.35 344.3 82.15 344.2 81.9 344.15 80.1 344.0 79.95 344.0 56.0 344.0 55.65 344.0 55.55 344.0 55.35 344.05 55.0 344.05 M51.4 419.85 L50.45 419.0 Q49.15 417.55 49.15 414.85 L49.15 389.0 Q49.15 383.15 55.35 383.15 L80.55 383.15 Q82.4 383.15 83.8 383.7 L84.35 384.05 84.45 384.1 84.5 384.15 84.6 384.2 Q84.75 384.2 84.9 384.35 L85.0 384.4 85.15 384.6 85.45 384.9 85.75 385.2 86.0 385.7 86.1 385.9 86.3 386.2 86.65 387.4 86.75 387.95 86.8 388.85 86.8 414.9 Q86.8 420.75 80.55 420.75 L55.4 420.75 52.6 420.4 51.4 419.85 M52.35 418.95 L52.9 419.25 55.2 419.8 55.95 419.8 79.9 419.8 81.15 419.75 82.1 419.55 82.35 419.5 82.6 419.4 82.7 419.35 82.75 419.35 85.6 416.15 85.7 415.6 85.75 415.45 85.75 415.4 85.8 414.35 85.8 414.2 85.8 395.45 85.85 394.9 85.8 394.5 85.8 389.55 85.8 389.25 85.7 388.2 85.5 387.45 85.25 386.85 85.35 386.9 85.3 386.85 85.15 386.55 85.1 386.5 85.0 386.35 84.95 386.25 84.9 386.15 84.7 385.9 84.65 385.8 84.6 385.75 84.4 385.6 83.6 384.95 82.9 384.6 82.35 384.45 82.15 384.35 81.9 384.3 80.1 384.15 79.95 384.15 56.0 384.15 55.65 384.15 55.55 384.15 55.35 384.2 55.0 384.2 Q50.15 384.6 50.15 389.7 L50.15 414.5 50.15 414.6 50.15 414.65 50.2 414.9 Q50.25 416.1 50.65 417.05 L51.15 418.0 51.5 418.35 51.7 418.55 51.8 418.6 51.85 418.65 51.95 418.75 52.0 418.75 52.05 418.8 52.15 418.9 52.3 418.95 52.4 419.0 52.35 418.95 M51.4 460.55 L50.45 459.75 Q49.15 458.25 49.15 455.55 L49.15 429.7 Q49.15 423.85 55.35 423.85 L80.55 423.85 83.0 424.15 83.1 424.15 83.25 424.2 83.8 424.4 84.35 424.75 84.45 424.8 84.5 424.85 84.6 424.9 84.9 425.1 85.0 425.15 85.15 425.3 85.45 425.6 85.75 425.95 85.8 426.05 86.0 426.4 86.1 426.6 86.3 426.95 86.65 428.1 86.75 428.7 86.8 429.6 86.8 455.6 Q86.8 461.5 80.55 461.5 L55.4 461.5 52.6 461.1 51.4 460.55 M52.35 459.7 L52.9 459.95 55.2 460.5 55.95 460.5 79.9 460.5 81.15 460.45 82.1 460.25 82.35 460.2 82.6 460.1 82.7 460.05 82.75 460.05 85.6 456.85 85.7 456.35 85.75 456.2 85.75 456.15 85.8 455.05 85.8 454.9 85.8 436.15 85.85 435.65 85.85 435.6 85.8 435.2 85.8 430.3 85.8 429.95 85.7 428.9 85.5 428.15 85.25 427.55 85.35 427.65 85.3 427.55 85.15 427.25 85.1 427.2 85.0 427.05 84.95 426.95 84.9 426.9 84.7 426.6 84.65 426.5 84.6 426.45 84.4 426.3 83.6 425.65 82.9 425.3 82.35 425.2 82.15 425.1 81.9 425.05 80.1 424.85 79.95 424.85 56.0 424.85 55.65 424.85 55.55 424.85 55.35 424.9 55.0 424.9 Q50.15 425.3 50.15 430.45 L50.15 455.1 50.15 455.25 50.15 455.35 50.15 455.4 50.2 455.6 Q50.25 456.8 50.65 457.75 L51.15 458.7 51.5 459.05 51.7 459.25 51.8 459.3 51.85 459.35 51.95 459.45 52.0 459.45 52.05 459.5 52.15 459.6 52.4 459.75 52.35 459.7 M83.45 465.0 L83.7 465.1 83.8 465.15 84.35 465.45 84.45 465.5 84.5 465.55 84.6 465.6 84.9 465.8 85.0 465.85 85.15 466.05 85.45 466.3 85.75 466.65 86.0 467.1 86.1 467.3 86.3 467.65 86.65 468.85 86.75 469.4 86.8 470.3 86.8 496.35 Q86.8 502.2 80.55 502.2 L55.4 502.2 52.6 501.8 51.4 501.25 50.45 500.45 Q49.15 499.0 49.15 496.3 L49.15 470.45 Q49.15 464.55 55.35 464.55 L80.55 464.55 83.45 465.0 M52.35 500.4 L52.9 500.7 55.2 501.2 55.95 501.2 79.9 501.2 81.15 501.15 82.1 500.95 82.35 500.95 82.6 500.85 82.7 500.8 82.75 500.8 85.6 497.55 85.7 497.05 85.75 496.9 85.75 496.85 85.8 495.75 85.8 495.6 85.8 476.85 85.85 476.35 85.85 476.3 85.8 475.95 85.8 471.0 85.8 470.65 85.7 469.65 85.5 468.85 85.25 468.25 85.35 468.35 85.3 468.25 85.15 467.95 85.1 467.95 85.0 467.8 84.95 467.7 84.9 467.6 84.7 467.3 84.65 467.2 84.6 467.15 84.4 467.05 83.6 466.35 82.9 466.05 82.35 465.9 82.15 465.8 81.9 465.75 80.1 465.55 79.95 465.55 56.0 465.55 55.65 465.55 55.55 465.55 55.35 465.6 55.0 465.6 Q50.15 466.05 50.15 471.15 L50.15 495.8 50.15 495.95 50.15 496.05 50.15 496.1 50.2 496.35 Q50.25 497.5 50.65 498.45 L51.15 499.4 51.5 499.8 51.7 500.0 51.8 500.05 51.85 500.05 51.95 500.15 52.0 500.15 52.05 500.2 52.15 500.3 52.4 500.45 52.35 500.4" fill="#c5a807" fill-rule="evenodd" stroke="none"/>
    <path d="M80.7 177.55 L84.1 178.1 84.4 178.2 Q85.35 178.55 86.1 179.2 L86.2 179.3 86.4 179.55 86.55 179.7 86.7 179.85 87.2 180.55 87.7 181.5 87.1 181.5 87.6 182.45 87.1 182.45 Q87.95 183.85 88.0 186.05 L88.0 207.95 Q87.95 210.55 86.8 212.1 L87.35 212.1 86.8 213.05 88.0 213.05 Q87.8 214.35 87.2 215.3 L86.8 215.9 Q85.7 217.3 83.8 217.85 L51.05 217.85 51.55 217.7 51.5 217.65 Q50.2 217.2 49.35 216.35 L48.55 215.3 47.9 214.0 Q47.5 212.65 47.5 210.85 L47.5 185.0 Q47.45 182.1 48.6 180.35 L49.5 179.3 52.9 177.75 55.05 177.55 57.4 177.55 80.7 177.55 M81.65 179.05 L81.35 179.0 80.5 178.9 80.35 178.9 79.95 178.9 66.15 178.9 65.9 178.9 57.8 178.9 57.7 178.9 57.3 178.9 54.8 178.9 54.7 178.9 53.9 178.95 52.95 179.05 52.3 179.2 52.0 179.25 51.85 179.3 51.65 179.4 50.75 179.85 Q49.85 180.45 49.35 181.5 48.9 182.15 48.7 183.1 L48.6 184.75 48.6 210.6 48.6 210.7 Q48.6 212.3 49.1 213.45 L49.65 214.55 49.9 214.8 50.45 215.3 50.5 215.35 51.2 215.7 51.3 215.75 52.45 216.35 55.25 216.7 80.45 216.7 Q83.45 216.7 85.05 215.3 86.65 213.8 86.65 210.85 L86.65 184.8 86.6 183.9 86.5 183.35 86.15 182.15 86.0 181.8 85.6 181.15 85.3 180.8 85.05 180.55 84.85 180.35 84.75 180.3 84.45 180.1 84.35 180.05 84.25 179.95 84.05 179.85 83.65 179.65 82.8 179.3 82.5 179.2 81.65 179.05 M83.8 221.4 L82.95 221.1 81.8 220.8 81.45 220.75 80.5 220.65 80.1 220.65 63.3 220.65 63.05 220.65 54.9 220.65 54.8 220.65 54.0 220.7 53.05 220.8 52.45 221.0 52.1 221.05 51.8 221.15 Q50.2 221.8 49.45 223.25 L48.85 224.85 Q48.7 225.6 48.7 226.5 L48.7 252.35 48.7 252.45 Q48.7 254.1 49.25 255.2 49.45 255.85 49.8 256.3 L50.05 256.6 50.65 257.1 51.3 257.5 51.4 257.55 52.6 258.1 55.4 258.5 80.55 258.5 Q86.8 258.5 86.8 252.6 L86.8 226.55 86.75 225.65 86.65 225.1 86.3 223.9 85.75 222.9 85.45 222.6 85.15 222.3 85.0 222.1 84.9 222.05 84.6 221.9 84.5 221.85 84.45 221.8 84.35 221.75 83.8 221.4 M51.05 219.85 L83.8 219.85 83.6 219.9 83.75 219.95 84.5 219.95 85.1 220.2 86.7 221.45 87.35 222.3 87.8 223.25 87.25 223.25 87.7 224.2 87.25 224.2 Q88.1 225.6 88.15 227.8 L88.15 249.7 Q88.1 252.3 86.9 253.9 L87.5 253.9 86.9 254.85 88.15 254.85 Q87.8 256.55 86.9 257.65 85.1 259.85 81.3 260.05 L80.55 260.0 55.35 260.0 54.7 260.05 51.9 259.5 Q50.4 259.05 49.45 258.1 48.5 257.15 48.05 255.8 47.6 254.4 47.6 252.6 L47.6 226.75 Q47.55 221.9 51.0 220.2 L51.55 219.95 51.4 219.95 50.8 219.95 51.05 219.85 M84.2 260.55 L84.5 260.65 86.45 261.9 86.7 262.15 87.35 263.0 87.8 263.95 87.25 263.95 87.7 264.9 87.25 264.9 Q88.1 266.35 88.15 268.5 L88.15 290.45 Q88.1 293.05 86.9 294.6 L87.5 294.6 86.9 295.55 88.15 295.55 Q87.8 297.25 86.9 298.4 L84.95 299.9 Q83.45 300.65 81.3 300.75 L80.55 300.7 55.35 300.7 54.7 300.75 51.9 300.25 51.05 299.9 49.45 298.8 Q48.5 297.85 48.05 296.5 47.6 295.1 47.6 293.3 L47.6 267.45 Q47.55 263.75 49.5 261.9 50.35 261.1 51.55 260.65 L52.6 260.35 55.2 260.05 80.8 260.05 83.45 260.35 84.2 260.55 M84.2 301.3 Q85.75 301.8 86.7 302.9 L87.35 303.75 87.8 304.7 87.25 304.7 87.7 305.65 87.25 305.65 Q88.1 307.05 88.15 309.25 L88.15 331.15 Q88.1 333.75 86.9 335.3 L87.5 335.3 86.9 336.25 88.15 336.25 Q87.8 337.95 86.9 339.1 85.1 341.3 81.3 341.45 L80.8 341.45 Q82.75 341.5 84.2 342.0 85.75 342.5 86.7 343.6 L87.35 344.45 87.8 345.4 87.25 345.4 87.7 346.35 87.25 346.35 Q88.1 347.75 88.15 349.95 L88.15 371.85 Q88.1 374.45 86.9 376.05 L87.5 376.05 86.9 377.0 88.15 377.0 Q87.8 378.7 86.9 379.8 85.7 381.35 83.4 381.9 L81.45 381.6 80.55 381.55 55.35 381.55 54.55 381.6 52.6 381.9 51.9 381.65 Q50.4 381.2 49.45 380.25 48.5 379.3 48.05 377.95 47.6 376.55 47.6 374.75 L47.6 348.9 Q47.55 341.65 54.95 341.45 L54.7 341.45 54.55 341.45 Q53.05 341.4 51.9 340.95 50.4 340.5 49.45 339.55 48.5 338.6 48.05 337.2 47.6 335.85 47.6 334.05 L47.6 308.2 Q47.55 300.85 55.2 300.75 L80.8 300.75 Q82.75 300.8 84.2 301.3 M84.2 382.15 Q85.75 382.65 86.7 383.75 L87.35 384.6 87.8 385.55 87.25 385.55 87.7 386.5 87.25 386.5 Q88.1 387.9 88.15 390.1 L88.15 412.0 Q88.1 414.6 86.9 416.2 L87.5 416.2 86.9 417.15 88.15 417.15 Q87.8 418.85 86.9 419.95 85.1 422.15 81.3 422.35 L80.55 422.3 55.35 422.3 54.7 422.35 51.9 421.8 Q50.4 421.35 49.45 420.4 48.5 419.45 48.05 418.05 47.6 416.7 47.6 414.9 L47.6 389.05 Q47.55 383.05 52.7 381.9 L55.2 381.6 80.8 381.6 83.3 381.9 84.2 382.15 M84.2 422.85 Q85.75 423.4 86.7 424.45 L87.35 425.3 87.8 426.25 87.25 426.25 87.7 427.2 87.25 427.2 Q88.1 428.65 88.15 430.8 L88.15 452.75 Q88.1 455.35 86.9 456.9 L87.5 456.9 86.9 457.85 88.15 457.85 Q87.8 459.55 86.9 460.7 85.1 462.85 81.3 463.05 L80.55 463.0 55.35 463.0 54.7 463.05 51.9 462.55 Q50.4 462.05 49.45 461.1 48.5 460.15 48.05 458.8 47.6 457.4 47.6 455.6 L47.6 429.75 Q47.55 422.45 55.2 422.35 L80.55 422.35 80.8 422.35 84.2 422.85 M84.2 463.55 Q85.75 464.1 86.7 465.2 L87.35 466.05 87.8 467.0 87.25 467.0 87.7 467.95 87.25 467.95 Q88.1 469.35 88.15 471.5 L88.15 493.45 Q88.1 496.05 86.9 497.6 L87.5 497.6 86.9 498.55 88.15 498.55 Q87.8 500.25 86.9 501.4 85.1 503.6 81.3 503.75 L80.55 503.7 55.35 503.7 54.7 503.75 51.9 503.25 Q50.4 502.75 49.45 501.8 48.5 500.9 48.05 499.5 47.6 498.15 47.6 496.35 L47.6 470.5 Q47.55 463.15 55.2 463.05 L80.8 463.05 84.2 463.55 M84.2 504.3 Q85.75 504.8 86.7 505.9 L87.35 506.75 87.8 507.7 87.25 507.7 87.7 508.65 87.25 508.65 Q88.1 510.05 88.15 512.25 L88.15 525.4 86.8 525.4 86.8 511.0 86.75 510.1 86.65 509.55 86.3 508.35 85.75 507.35 85.45 507.05 85.15 506.75 85.0 506.55 84.9 506.5 84.6 506.3 84.5 506.3 84.45 506.25 84.35 506.2 83.8 505.85 82.95 505.5 81.8 505.25 81.45 505.2 80.5 505.1 80.1 505.1 63.3 505.1 63.05 505.1 54.9 505.1 54.8 505.1 54.0 505.15 53.05 505.25 52.45 505.4 52.1 505.45 51.8 505.6 Q50.2 506.25 49.45 507.7 L48.85 509.3 Q48.7 510.05 48.7 510.95 L48.7 525.4 47.7 525.4 47.6 524.4 47.6 511.2 Q47.55 503.85 55.2 503.75 L80.55 503.75 80.8 503.75 Q82.75 503.8 84.2 504.3 M47.65 525.4 L47.6 525.4 47.6 525.2 47.65 525.4 M51.8 261.9 Q50.2 262.5 49.45 263.95 L48.85 265.6 Q48.7 266.35 48.7 267.25 L48.7 293.1 48.7 293.2 Q48.7 294.8 49.25 295.95 L49.8 297.0 50.05 297.3 50.65 297.8 51.3 298.2 51.4 298.25 52.6 298.8 55.4 299.2 80.55 299.2 Q86.8 299.2 86.8 293.3 L86.8 267.3 86.75 266.4 86.65 265.8 86.3 264.65 85.75 263.65 85.45 263.3 85.15 263.0 85.0 262.85 84.9 262.8 84.6 262.6 84.5 262.55 84.45 262.5 84.35 262.45 83.8 262.1 83.25 261.9 83.1 261.85 83.0 261.85 82.95 261.8 81.8 261.5 81.45 261.45 80.5 261.35 80.1 261.35 63.3 261.35 63.05 261.35 54.9 261.35 54.8 261.35 54.0 261.4 53.05 261.5 52.45 261.7 52.1 261.75 51.8 261.9 M83.45 302.7 L82.95 302.5 81.8 302.2 81.45 302.2 80.5 302.1 80.1 302.1 63.3 302.1 63.05 302.1 54.9 302.1 54.8 302.1 54.0 302.15 53.05 302.2 52.45 302.4 52.1 302.45 51.8 302.6 Q50.2 303.2 49.45 304.7 L48.85 306.3 Q48.7 307.05 48.7 307.95 L48.7 333.8 48.7 333.9 Q48.7 335.5 49.25 336.65 L49.8 337.75 50.05 338.0 50.65 338.55 51.3 338.9 51.4 338.95 52.6 339.55 55.4 339.9 80.55 339.9 Q86.8 339.9 86.8 334.05 L86.8 308.0 86.75 307.1 86.65 306.55 86.3 305.35 85.75 304.35 85.45 304.0 85.15 303.75 85.0 303.55 84.9 303.5 84.6 303.3 84.5 303.25 84.45 303.2 84.35 303.15 83.8 302.85 83.7 302.8 83.45 302.7 M83.8 343.55 L82.95 343.2 81.8 342.95 81.45 342.9 80.5 342.8 80.1 342.8 63.3 342.8 63.05 342.8 54.9 342.8 54.8 342.8 54.0 342.85 53.05 342.95 52.45 343.15 52.1 343.2 51.8 343.3 Q50.2 343.95 49.45 345.4 L48.85 347.0 Q48.7 347.75 48.7 348.65 L48.7 374.5 48.7 374.6 Q48.7 376.2 49.25 377.35 L49.8 378.45 50.05 378.75 50.65 379.25 51.3 379.65 51.4 379.7 52.6 380.25 55.4 380.65 80.55 380.65 Q86.8 380.65 86.8 374.75 L86.8 348.7 86.75 347.8 86.65 347.25 86.3 346.05 85.75 345.05 85.45 344.75 85.15 344.45 85.0 344.25 84.9 344.2 84.6 344.05 84.5 344.0 84.45 343.95 84.35 343.9 83.8 343.55 M83.8 383.7 L82.95 383.35 81.8 383.1 81.45 383.05 80.5 382.95 80.1 382.95 63.3 382.95 63.05 382.95 54.9 382.95 54.8 382.95 54.0 383.0 53.05 383.1 52.45 383.3 52.1 383.3 51.8 383.45 Q50.2 384.1 49.45 385.55 L48.85 387.15 Q48.7 387.9 48.7 388.8 L48.7 414.65 48.7 414.75 Q48.7 416.35 49.25 417.5 L49.8 418.6 50.05 418.9 50.65 419.4 51.3 419.8 51.4 419.85 52.6 420.4 55.4 420.75 80.55 420.75 Q86.8 420.75 86.8 414.9 L86.8 388.85 86.75 387.95 86.65 387.4 86.3 386.2 85.75 385.2 85.45 384.9 85.15 384.6 85.0 384.4 84.9 384.35 Q84.75 384.2 84.6 384.2 L84.5 384.15 84.45 384.1 84.35 384.05 83.8 383.7 M83.0 424.15 L82.95 424.1 81.8 423.8 81.45 423.75 80.5 423.65 80.1 423.65 63.3 423.65 63.05 423.65 54.9 423.65 54.8 423.65 54.0 423.7 53.05 423.8 52.45 424.0 52.1 424.05 51.8 424.2 Q50.2 424.8 49.45 426.25 L48.85 427.85 Q48.7 428.65 48.7 429.55 L48.7 455.4 48.7 455.5 Q48.7 457.1 49.25 458.2 49.45 458.85 49.8 459.3 L50.05 459.6 50.65 460.1 51.3 460.5 51.4 460.55 52.6 461.1 55.4 461.5 80.55 461.5 Q86.8 461.5 86.8 455.6 L86.8 429.6 86.75 428.7 86.65 428.1 86.3 426.95 85.8 426.05 85.75 425.95 85.45 425.6 85.15 425.3 85.0 425.15 84.9 425.1 84.6 424.9 84.5 424.85 84.45 424.8 84.35 424.75 83.8 424.4 83.25 424.2 83.1 424.15 83.0 424.15 M85.75 466.65 L85.45 466.3 85.15 466.05 85.0 465.85 84.9 465.8 84.6 465.6 84.5 465.55 84.45 465.5 84.35 465.45 83.8 465.15 83.7 465.1 83.45 465.0 82.95 464.8 81.8 464.5 81.45 464.45 80.5 464.4 80.1 464.4 63.3 464.4 63.05 464.4 54.9 464.4 54.8 464.4 54.0 464.4 53.05 464.5 52.45 464.7 52.1 464.75 51.8 464.9 Q50.2 465.5 49.45 467.0 L48.85 468.6 Q48.7 469.35 48.7 470.25 L48.7 496.1 48.7 496.2 Q48.7 497.8 49.25 498.95 L49.8 500.05 50.05 500.3 50.65 500.85 51.3 501.2 51.4 501.25 52.6 501.8 55.4 502.2 80.55 502.2 Q86.8 502.2 86.8 496.35 L86.8 470.3 86.75 469.4 86.65 468.85 86.3 467.65 85.75 466.65" fill="#50564a" fill-rule="evenodd" stroke="none"/>
    <path d="M52.05 214.8 L51.9 214.7 51.8 214.7 51.7 214.6 51.65 214.55 51.55 214.5 51.35 214.3 51.05 213.9 Q50.7 213.5 50.5 212.95 50.1 212.0 50.05 210.85 L50.0 210.6 50.0 210.55 50.0 210.45 50.0 210.3 50.0 185.65 Q50.0 180.55 54.85 180.1 L55.2 180.1 55.4 180.05 55.55 180.05 55.85 180.05 79.8 180.05 79.95 180.05 81.75 180.25 82.0 180.3 82.25 180.4 82.75 180.55 83.45 180.85 84.25 181.55 84.45 181.7 84.5 181.7 84.55 181.8 84.75 182.1 84.8 182.2 84.9 182.3 85.0 182.45 85.05 182.5 85.15 182.75 85.2 182.85 85.35 183.4 85.55 184.15 85.65 185.2 85.65 185.5 85.65 190.45 85.7 190.8 85.7 190.85 85.65 191.4 85.65 210.15 85.65 210.25 85.6 211.35 85.6 211.4 85.55 211.55 85.45 212.05 82.6 215.3 82.55 215.3 82.45 215.35 82.25 215.45 81.95 215.5 81.0 215.65 79.8 215.7 55.8 215.7 55.05 215.7 53.05 215.3 52.8 215.2 52.2 214.9 52.05 214.8 M52.15 256.6 L52.05 256.5 52.0 256.45 51.95 256.45 51.85 256.35 51.8 256.3 51.7 256.25 51.5 256.05 51.15 255.7 50.65 254.75 Q50.25 253.8 50.2 252.6 L50.15 252.35 50.15 252.25 50.15 252.1 50.15 227.4 Q50.15 222.3 55.0 221.9 L55.35 221.9 55.55 221.85 55.65 221.85 56.0 221.85 79.95 221.85 80.1 221.85 81.9 222.05 82.15 222.05 82.35 222.15 82.9 222.3 83.6 222.65 84.4 223.3 84.6 223.45 84.65 223.5 84.7 223.6 84.9 223.85 84.95 223.95 85.0 224.05 85.1 224.2 85.15 224.25 85.3 224.55 85.35 224.65 85.25 224.55 85.5 225.15 85.7 225.9 85.8 226.95 85.8 227.3 85.8 232.2 85.85 232.6 85.85 232.65 85.8 233.15 85.8 251.9 85.8 252.05 85.75 253.15 85.75 253.2 85.7 253.3 85.6 253.85 82.75 257.05 82.7 257.05 82.6 257.1 82.35 257.2 82.1 257.25 81.15 257.45 79.9 257.5 55.95 257.5 55.2 257.5 52.9 256.95 52.35 256.7 52.15 256.6 M85.8 525.4 L50.15 525.4 50.15 511.85 Q50.15 506.75 55.0 506.3 L55.35 506.3 55.55 506.3 55.65 506.3 56.0 506.3 79.95 506.3 80.1 506.3 81.9 506.45 82.15 506.5 82.35 506.6 82.9 506.75 83.6 507.1 84.4 507.75 84.6 507.9 84.65 507.95 84.7 508.05 84.9 508.3 84.95 508.4 85.0 508.5 85.1 508.65 85.15 508.7 85.3 508.95 85.35 509.05 85.25 508.95 85.5 509.6 85.7 510.35 85.8 511.4 85.8 511.7 85.8 516.65 85.85 517.0 85.85 517.05 85.8 517.6 85.8 525.4 M52.15 338.0 L52.05 337.9 52.0 337.85 51.95 337.85 51.85 337.8 51.8 337.75 51.7 337.7 51.5 337.5 51.15 337.1 50.65 336.15 Q50.25 335.2 50.2 334.05 L50.15 333.8 50.15 333.75 50.15 333.65 50.15 333.5 50.15 308.85 Q50.15 303.75 55.0 303.3 L55.35 303.3 55.55 303.25 55.65 303.25 56.0 303.25 79.95 303.25 80.1 303.25 81.9 303.45 82.15 303.5 82.35 303.6 82.9 303.75 83.6 304.05 84.4 304.75 84.6 304.9 84.65 304.9 84.7 305.0 84.9 305.3 84.95 305.4 85.0 305.5 85.1 305.65 85.15 305.7 85.3 305.95 85.35 306.05 85.25 305.95 85.5 306.6 85.7 307.35 85.8 308.4 85.8 308.7 85.8 313.65 85.85 314.0 85.85 314.05 85.8 314.6 85.8 333.35 85.8 333.45 85.75 334.55 85.75 334.6 85.7 334.75 85.6 335.25 82.75 338.5 82.7 338.5 82.6 338.55 82.35 338.65 82.1 338.7 81.15 338.85 79.9 338.9 55.95 338.9 55.2 338.9 52.9 338.4 52.35 338.1 52.15 338.0 M55.0 344.05 L55.35 344.05 55.55 344.0 55.65 344.0 56.0 344.0 79.95 344.0 80.1 344.0 81.9 344.15 82.15 344.2 82.35 344.3 82.9 344.45 83.6 344.8 84.4 345.45 84.6 345.6 84.65 345.65 84.7 345.75 84.9 346.0 84.95 346.1 85.0 346.2 85.1 346.35 85.15 346.4 85.3 346.7 85.35 346.75 85.25 346.7 85.5 347.3 85.7 348.05 85.8 349.1 85.8 349.45 85.8 354.35 85.85 354.75 85.85 354.8 85.8 355.3 85.8 374.05 85.8 374.2 85.75 375.3 85.7 375.45 85.6 376.0 82.75 379.2 82.7 379.2 82.6 379.25 82.35 379.35 82.1 379.4 81.15 379.6 79.9 379.65 55.95 379.65 55.2 379.65 52.9 379.1 52.35 378.85 52.15 378.75 52.05 378.65 52.0 378.6 51.95 378.6 51.85 378.5 51.8 378.45 51.7 378.4 51.5 378.2 51.15 377.85 50.65 376.9 Q50.25 375.95 50.2 374.75 L50.15 374.5 50.15 374.4 50.15 374.25 50.15 349.55 Q50.15 344.45 55.0 344.05 M52.3 418.95 L52.15 418.9 52.05 418.8 52.0 418.75 51.95 418.75 51.85 418.65 51.8 418.6 51.7 418.55 51.5 418.35 51.15 418.0 50.65 417.05 Q50.25 416.1 50.2 414.9 L50.15 414.65 50.15 414.6 50.15 414.5 50.15 389.7 Q50.15 384.6 55.0 384.2 L55.35 384.2 55.55 384.15 55.65 384.15 56.0 384.15 79.95 384.15 80.1 384.15 81.9 384.3 82.15 384.35 82.35 384.45 82.9 384.6 83.6 384.95 84.4 385.6 84.6 385.75 84.65 385.8 84.7 385.9 84.9 386.15 84.95 386.25 85.0 386.35 85.1 386.5 85.15 386.55 85.3 386.85 85.35 386.9 85.25 386.85 85.5 387.45 85.7 388.2 85.8 389.25 85.8 389.55 85.8 394.5 85.85 394.9 85.8 395.45 85.8 414.2 85.8 414.35 85.75 415.4 85.75 415.45 85.7 415.6 85.6 416.15 82.75 419.35 82.7 419.35 82.6 419.4 82.35 419.5 82.1 419.55 81.15 419.75 79.9 419.8 55.95 419.8 55.2 419.8 52.9 419.25 52.35 418.95 52.3 418.95" fill="#333333" fill-rule="evenodd" stroke="none"/>
    <path d="M57.4 177.55 L58.2 177.5 83.45 177.5 84.3 177.55 Q85.85 177.6 87.1 178.1 L83.7 177.55 80.7 177.55 57.4 177.55 M51.05 217.85 L50.95 217.85 51.5 217.65 51.55 217.7 51.05 217.85 M47.9 214.0 Q47.45 212.65 47.45 210.8 L47.45 184.95 Q47.4 182.1 48.6 180.35 47.45 182.1 47.5 185.0 L47.5 210.85 Q47.5 212.65 47.9 214.0 M85.6 181.15 L86.0 181.8 85.9 181.65 85.6 181.15 M85.75 222.9 L86.3 223.9 86.1 223.6 86.0 223.4 85.75 222.9 M81.3 260.05 L81.45 260.05 83.6 260.35 84.2 260.55 83.45 260.35 80.8 260.05 55.2 260.05 52.6 260.35 51.55 260.65 Q50.35 261.1 49.5 261.9 47.55 263.75 47.6 267.45 L47.6 293.3 Q47.6 295.1 48.05 296.5 47.55 295.1 47.55 293.3 L47.55 267.45 Q47.55 263.75 49.45 261.9 50.25 261.1 51.45 260.65 L52.45 260.35 54.55 260.05 54.7 260.05 55.35 260.0 80.55 260.0 81.3 260.05 M81.3 300.75 L81.45 300.75 84.2 301.3 Q82.75 300.8 80.8 300.75 L55.2 300.75 Q47.55 300.85 47.6 308.2 L47.6 334.05 Q47.6 335.85 48.05 337.2 47.55 335.85 47.55 334.0 L47.55 308.15 Q47.55 301.15 54.55 300.75 L54.7 300.75 55.35 300.7 80.55 300.7 81.3 300.75 M81.3 341.45 L81.45 341.45 84.2 342.0 Q82.75 341.5 80.8 341.45 L81.3 341.45 M83.4 381.9 L84.2 382.15 83.3 381.9 80.8 381.6 55.2 381.6 52.7 381.9 Q47.55 383.05 47.6 389.05 L47.6 414.9 Q47.6 416.7 48.05 418.05 47.55 416.7 47.55 414.85 L47.55 389.0 Q47.55 383.05 52.6 381.9 L54.55 381.6 55.35 381.55 80.55 381.55 81.45 381.6 83.4 381.9 M81.3 422.35 L81.45 422.35 84.2 422.85 80.8 422.35 80.55 422.35 55.2 422.35 Q47.55 422.45 47.6 429.75 L47.6 455.6 Q47.6 457.4 48.05 458.8 47.55 457.4 47.55 455.55 L47.55 429.7 Q47.55 422.7 54.55 422.35 L54.7 422.35 55.35 422.3 80.55 422.3 81.3 422.35 M81.3 463.05 L81.45 463.05 84.2 463.55 80.8 463.05 55.2 463.05 Q47.55 463.15 47.6 470.5 L47.6 496.35 Q47.6 498.15 48.05 499.5 47.55 498.15 47.55 496.3 L47.55 470.45 Q47.55 463.45 54.55 463.05 L54.7 463.05 55.35 463.0 80.55 463.0 81.3 463.05 M81.3 503.75 L81.45 503.75 84.2 504.3 Q82.75 503.8 80.8 503.75 L80.55 503.75 55.2 503.75 Q47.55 503.85 47.6 511.2 L47.6 524.4 47.7 525.4 Q47.8 526.4 48.05 527.2 L47.65 525.4 47.6 525.2 47.6 525.4 47.55 525.4 47.55 511.15 Q47.55 504.15 54.55 503.75 L54.7 503.75 55.35 503.7 80.55 503.7 81.3 503.75 M48.05 377.95 Q47.55 376.55 47.55 374.7 L47.55 348.85 Q47.55 341.85 54.55 341.45 L54.7 341.45 54.95 341.45 Q47.55 341.65 47.6 348.9 L47.6 374.75 Q47.6 376.55 48.05 377.95 M48.05 255.8 Q47.55 254.4 47.55 252.55 L47.55 226.7 Q47.55 221.9 50.85 220.2 L51.4 219.95 51.55 219.95 51.0 220.2 Q47.55 221.9 47.6 226.75 L47.6 252.6 Q47.6 254.4 48.05 255.8 M50.8 219.95 L50.65 219.95 50.95 219.85 51.05 219.85 50.8 219.95 M85.75 304.35 L86.3 305.35 86.1 305.0 86.0 304.85 85.75 304.35 M85.75 345.05 L86.3 346.05 86.1 345.75 86.0 345.55 85.75 345.05 M85.75 385.2 L86.3 386.2 86.1 385.9 86.0 385.7 85.75 385.2 M85.8 426.05 L86.3 426.95 86.1 426.6 86.0 426.4 85.8 426.05 M86.3 467.65 L86.1 467.3 86.0 467.1 85.75 466.65 86.3 467.65 M85.75 507.35 L86.3 508.35 86.1 508.05 86.0 507.85 85.75 507.35 M47.55 535.4 L47.6 535.4 47.6 547.05 47.6 547.4 47.55 547.4 47.55 547.0 47.55 535.4" fill="#7c6a20" fill-rule="evenodd" stroke="none"/>
    <path d="M52.05 214.8 L52.2 214.9 52.25 214.95 52.05 214.8 M52.15 256.6 L52.35 256.7 52.4 256.75 52.15 256.6 M52.15 338.0 L52.35 338.1 52.4 338.15 52.15 338.0 M52.3 418.95 L52.35 418.95 52.4 419.0 52.3 418.95 M52.15 459.6 L52.35 459.7 52.4 459.75 52.15 459.6 M52.15 500.3 L52.35 500.4 52.4 500.45 52.15 500.3 M52.35 528.1 L52.4 528.15 52.15 528.05 52.35 528.1" fill="#919988" fill-rule="evenodd" stroke="none"/>
    <path d="M52.15 459.6 L52.05 459.5 52.0 459.45 51.95 459.45 51.85 459.35 51.8 459.3 51.7 459.25 51.5 459.05 51.15 458.7 50.65 457.75 Q50.25 456.8 50.2 455.6 L50.15 455.4 50.15 455.35 50.15 455.25 50.15 455.1 50.15 430.45 Q50.15 425.3 55.0 424.9 L55.35 424.9 55.55 424.85 55.65 424.85 56.0 424.85 79.95 424.85 80.1 424.85 81.9 425.05 82.15 425.1 82.35 425.2 82.9 425.3 83.6 425.65 84.4 426.3 84.6 426.45 84.65 426.5 84.7 426.6 84.9 426.9 84.95 426.95 85.0 427.05 85.1 427.2 85.15 427.25 85.3 427.55 85.35 427.65 85.25 427.55 85.5 428.15 85.7 428.9 85.8 429.95 85.8 430.3 85.8 435.2 85.85 435.6 85.85 435.65 85.8 436.15 85.8 454.9 85.8 455.05 85.75 456.15 85.75 456.2 85.7 456.35 85.6 456.85 82.75 460.05 82.7 460.05 82.6 460.1 82.35 460.2 82.1 460.25 81.15 460.45 79.9 460.5 55.95 460.5 55.2 460.5 52.9 459.95 52.35 459.7 52.15 459.6 M52.15 500.3 L52.05 500.2 52.0 500.15 51.95 500.15 51.85 500.05 51.8 500.05 51.7 500.0 51.5 499.8 51.15 499.4 50.65 498.45 Q50.25 497.5 50.2 496.35 L50.15 496.1 50.15 496.05 50.15 495.95 50.15 495.8 50.15 471.15 Q50.15 466.05 55.0 465.6 L55.35 465.6 55.55 465.55 55.65 465.55 56.0 465.55 79.95 465.55 80.1 465.55 81.9 465.75 82.15 465.8 82.35 465.9 82.9 466.05 83.6 466.35 84.4 467.05 84.6 467.15 84.65 467.2 84.7 467.3 84.9 467.6 84.95 467.7 85.0 467.8 85.1 467.95 85.15 467.95 85.3 468.25 85.35 468.35 85.25 468.25 85.5 468.85 85.7 469.65 85.8 470.65 85.8 471.0 85.8 475.95 85.85 476.3 85.85 476.35 85.8 476.85 85.8 495.6 85.8 495.75 85.75 496.85 85.75 496.9 85.7 497.05 85.6 497.55 82.75 500.8 82.7 500.8 82.6 500.85 82.35 500.95 82.1 500.95 81.15 501.15 79.9 501.2 55.95 501.2 55.2 501.2 52.9 500.7 52.35 500.4 52.15 500.3" fill="#38312a" fill-rule="evenodd" stroke="none"/>
    <path d="M53.75 179.85 L54.65 179.4 54.85 179.3 55.0 179.25 55.3 179.2 55.95 179.05 56.9 178.95 57.3 178.9 57.7 178.9 57.8 178.9 65.9 178.9 66.15 178.9 79.95 178.9 80.35 178.9 80.5 178.9 81.35 179.0 81.65 179.05 58.2 179.05 56.45 179.2 56.0 179.3 Q55.2 179.5 54.55 179.85 L53.75 179.85" fill="url(#gradient0)" fill-rule="evenodd" stroke="none"/>
    <path d="M50.75 179.85 L51.55 179.85 Q49.0 181.2 49.0 184.95 L49.0 210.8 Q49.0 213.5 50.35 214.95 L50.65 215.3 51.3 215.75 51.2 215.7 50.5 215.35 50.45 215.3 49.9 214.8 49.65 214.55 49.1 213.45 Q48.6 212.3 48.6 210.7 L48.6 210.6 48.6 184.75 48.7 183.1 Q48.9 182.15 49.35 181.5 49.85 180.45 50.75 179.85" fill="url(#gradient1)" fill-rule="evenodd" stroke="none"/>
    <path d="M51.4 257.55 L51.3 257.5 50.65 257.1 50.05 256.6 49.8 256.3 Q49.45 255.85 49.25 255.2 48.7 254.1 48.7 252.45 L48.7 252.35 48.7 226.5 Q48.7 225.6 48.85 224.85 L49.45 223.25 Q50.2 221.8 51.8 221.15 L52.1 221.05 52.45 221.0 53.05 220.8 54.0 220.7 54.8 220.65 54.9 220.65 63.05 220.65 63.3 220.65 80.1 220.65 80.5 220.65 81.45 220.75 81.8 220.8 82.95 221.1 83.8 221.4 Q82.4 220.85 80.55 220.85 L55.35 220.85 Q49.15 220.85 49.15 226.7 L49.15 252.55 Q49.15 255.25 50.45 256.75 L51.4 257.55" fill="url(#gradient2)" fill-rule="evenodd" stroke="none"/>
    <path d="M52.7 261.9 L51.8 261.9 52.1 261.75 52.45 261.7 53.05 261.5 54.0 261.4 54.8 261.35 54.9 261.35 63.05 261.35 63.3 261.35 80.1 261.35 80.5 261.35 81.45 261.45 81.8 261.5 82.95 261.8 83.0 261.85 80.55 261.55 55.35 261.55 52.7 261.9" fill="url(#gradient3)" fill-rule="evenodd" stroke="none"/>
    <path d="M51.4 338.95 L51.3 338.9 50.65 338.55 50.05 338.0 49.8 337.75 49.25 336.65 Q48.7 335.5 48.7 333.9 L48.7 333.8 48.7 307.95 Q48.7 307.05 48.85 306.3 L49.45 304.7 Q50.2 303.2 51.8 302.6 L52.1 302.45 52.45 302.4 53.05 302.2 54.0 302.15 54.8 302.1 54.9 302.1 63.05 302.1 63.3 302.1 80.1 302.1 80.5 302.1 81.45 302.2 81.8 302.2 82.95 302.5 83.45 302.7 80.55 302.25 55.35 302.25 Q49.15 302.25 49.15 308.15 L49.15 334.0 Q49.15 336.7 50.45 338.15 L51.4 338.95" fill="url(#gradient4)" fill-rule="evenodd" stroke="none"/>
    <path d="M51.4 379.7 L51.3 379.65 50.65 379.25 50.05 378.75 49.8 378.45 49.25 377.35 Q48.7 376.2 48.7 374.6 L48.7 374.5 48.7 348.65 Q48.7 347.75 48.85 347.0 L49.45 345.4 Q50.2 343.95 51.8 343.3 L52.1 343.2 52.45 343.15 53.05 342.95 54.0 342.85 54.8 342.8 54.9 342.8 63.05 342.8 63.3 342.8 80.1 342.8 80.5 342.8 81.45 342.9 81.8 342.95 82.95 343.2 83.8 343.55 Q82.4 343.0 80.55 343.0 L55.35 343.0 Q49.15 343.0 49.15 348.85 L49.15 374.7 Q49.15 377.4 50.45 378.85 L51.4 379.7" fill="url(#gradient5)" fill-rule="evenodd" stroke="none"/>
    <path d="M51.4 419.85 L51.3 419.8 50.65 419.4 50.05 418.9 49.8 418.6 49.25 417.5 Q48.7 416.35 48.7 414.75 L48.7 414.65 48.7 388.8 Q48.7 387.9 48.85 387.15 L49.45 385.55 Q50.2 384.1 51.8 383.45 L52.1 383.3 52.45 383.3 53.05 383.1 54.0 383.0 54.8 382.95 54.9 382.95 63.05 382.95 63.3 382.95 80.1 382.95 80.5 382.95 81.45 383.05 81.8 383.1 82.95 383.35 83.8 383.7 Q82.4 383.15 80.55 383.15 L55.35 383.15 Q49.15 383.15 49.15 389.0 L49.15 414.85 Q49.15 417.55 50.45 419.0 L51.4 419.85" fill="url(#gradient6)" fill-rule="evenodd" stroke="none"/>
    <path d="M51.4 460.55 L51.3 460.5 50.65 460.1 50.05 459.6 49.8 459.3 Q49.45 458.85 49.25 458.2 48.7 457.1 48.7 455.5 L48.7 455.4 48.7 429.55 Q48.7 428.65 48.85 427.85 L49.45 426.25 Q50.2 424.8 51.8 424.2 L52.1 424.05 52.45 424.0 53.05 423.8 54.0 423.7 54.8 423.65 54.9 423.65 63.05 423.65 63.3 423.65 80.1 423.65 80.5 423.65 81.45 423.75 81.8 423.8 82.95 424.1 83.0 424.15 80.55 423.85 55.35 423.85 Q49.15 423.85 49.15 429.7 L49.15 455.55 Q49.15 458.25 50.45 459.75 L51.4 460.55" fill="url(#gradient7)" fill-rule="evenodd" stroke="none"/>
    <path d="M83.45 465.0 L80.55 464.55 55.35 464.55 Q49.15 464.55 49.15 470.45 L49.15 496.3 Q49.15 499.0 50.45 500.45 L51.4 501.25 51.3 501.2 50.65 500.85 50.05 500.3 49.8 500.05 49.25 498.95 Q48.7 497.8 48.7 496.2 L48.7 496.1 48.7 470.25 Q48.7 469.35 48.85 468.6 L49.45 467.0 Q50.2 465.5 51.8 464.9 L52.1 464.75 52.45 464.7 53.05 464.5 54.0 464.4 54.8 464.4 54.9 464.4 63.05 464.4 63.3 464.4 80.1 464.4 80.5 464.4 81.45 464.45 81.8 464.5 82.95 464.8 83.45 465.0" fill="url(#gradient8)" fill-rule="evenodd" stroke="none"/>
    <path d="M48.85 525.4 L48.7 525.4 48.7 510.95 Q48.7 510.05 48.85 509.3 L49.45 507.7 Q50.2 506.25 51.8 505.6 L52.1 505.45 52.45 505.4 53.05 505.25 54.0 505.15 54.8 505.1 54.9 505.1 63.05 505.1 63.3 505.1 80.1 505.1 80.5 505.1 81.45 505.2 81.8 505.25 82.95 505.5 83.8 505.85 Q82.4 505.3 80.55 505.3 L55.35 505.3 Q49.15 505.3 49.15 511.15 L49.15 524.4 48.75 524.4 48.85 525.4" fill="url(#gradient9)" fill-rule="evenodd" stroke="none"/>
    <path d="M48.7 535.4 L49.15 535.4 49.15 547.0 49.15 547.4 48.75 547.4 48.7 546.9 48.7 546.8 48.7 535.4" fill="url(#gradient10)" fill-rule="evenodd" stroke="none"/>
    <path d="M49.25 525.4 Q49.5 527.1 50.45 528.15 L51.4 528.95 51.3 528.9 50.65 528.55 50.05 528.05 49.8 527.75 49.25 526.65 48.85 525.4 48.75 524.4 49.15 524.4 49.25 525.4" fill="url(#gradient11)" fill-rule="evenodd" stroke="none"/>
  </g>
  <defs>
    <linearGradient gradientTransform="matrix(-0.0157, -0.0166, 0.0166, -0.0157, 70.35, 197.7)" gradientUnits="userSpaceOnUse" id="gradient0" spreadMethod="pad" x1="-819.2" x2="819.2">
      <stop offset="0.0" stop-color="#565550"/>
      <stop offset="1.0" stop-color="#282826"/>
    </linearGradient>
    <linearGradient gradientTransform="matrix(-0.0157, -0.0166, 0.0166, -0.0157, 67.35, 197.7)" gradientUnits="userSpaceOnUse" id="gradient1" spreadMethod="pad" x1="-819.2" x2="819.2">
      <stop offset="0.0" stop-color="#565550"/>
      <stop offset="1.0" stop-color="#282826"/>
    </linearGradient>
    <linearGradient gradientTransform="matrix(-0.0157, -0.0166, 0.0166, -0.0157, 67.5, 239.45)" gradientUnits="userSpaceOnUse" id="gradient2" spreadMethod="pad" x1="-819.2" x2="819.2">
      <stop offset="0.0" stop-color="#565550"/>
      <stop offset="1.0" stop-color="#282826"/>
    </linearGradient>
    <linearGradient gradientTransform="matrix(-0.0157, -0.0166, 0.0166, -0.0157, 67.5, 280.15)" gradientUnits="userSpaceOnUse" id="gradient3" spreadMethod="pad" x1="-819.2" x2="819.2">
      <stop offset="0.0" stop-color="#565550"/>
      <stop offset="1.0" stop-color="#282826"/>
    </linearGradient>
    <linearGradient gradientTransform="matrix(-0.0157, -0.0166, 0.0166, -0.0157, 67.5, 320.9)" gradientUnits="userSpaceOnUse" id="gradient4" spreadMethod="pad" x1="-819.2" x2="819.2">
      <stop offset="0.0" stop-color="#565550"/>
      <stop offset="1.0" stop-color="#282826"/>
    </linearGradient>
    <linearGradient gradientTransform="matrix(-0.0157, -0.0166, 0.0166, -0.0157, 67.5, 361.6)" gradientUnits="userSpaceOnUse" id="gradient5" spreadMethod="pad" x1="-819.2" x2="819.2">
      <stop offset="0.0" stop-color="#565550"/>
      <stop offset="1.0" stop-color="#282826"/>
    </linearGradient>
    <linearGradient gradientTransform="matrix(-0.0157, -0.0166, 0.0166, -0.0157, 67.5, 401.75)" gradientUnits="userSpaceOnUse" id="gradient6" spreadMethod="pad" x1="-819.2" x2="819.2">
      <stop offset="0.0" stop-color="#565550"/>
      <stop offset="1.0" stop-color="#282826"/>
    </linearGradient>
    <linearGradient gradientTransform="matrix(-0.0157, -0.0166, 0.0166, -0.0157, 67.5, 442.45)" gradientUnits="userSpaceOnUse" id="gradient7" spreadMethod="pad" x1="-819.2" x2="819.2">
      <stop offset="0.0" stop-color="#565550"/>
      <stop offset="1.0" stop-color="#282826"/>
    </linearGradient>
    <linearGradient gradientTransform="matrix(-0.0157, -0.0166, 0.0166, -0.0157, 67.5, 483.15)" gradientUnits="userSpaceOnUse" id="gradient8" spreadMethod="pad" x1="-819.2" x2="819.2">
      <stop offset="0.0" stop-color="#565550"/>
      <stop offset="1.0" stop-color="#282826"/>
    </linearGradient>
    <linearGradient gradientTransform="matrix(-0.0157, -0.0166, 0.0166, -0.0157, 67.5, 523.9)" gradientUnits="userSpaceOnUse" id="gradient9" spreadMethod="pad" x1="-819.2" x2="819.2">
      <stop offset="0.0" stop-color="#565550"/>
      <stop offset="1.0" stop-color="#282826"/>
    </linearGradient>
    <linearGradient gradientTransform="matrix(-0.0157, -0.0166, 0.0166, -0.0157, 67.5, 533.9)" gradientUnits="userSpaceOnUse" id="gradient10" spreadMethod="pad" x1="-819.2" x2="819.2">
      <stop offset="0.0" stop-color="#565550"/>
      <stop offset="1.0" stop-color="#282826"/>
    </linearGradient>
    <linearGradient gradientTransform="matrix(-0.0157, -0.0166, 0.0166, -0.0157, 67.5, 510.9)" gradientUnits="userSpaceOnUse" id="gradient11" spreadMethod="pad" x1="-819.2" x2="819.2">
      <stop offset="0.0" stop-color="#565550"/>
      <stop offset="1.0" stop-color="#282826"/>
    </linearGradient>
  </defs>
</svg>
