<?xml version="1.0" encoding="UTF-8" standalone="no"?>
<svg xmlns:ffdec="https://www.free-decompiler.com/flash" xmlns:xlink="http://www.w3.org/1999/xlink" ffdec:objectType="shape" height="69.95px" width="85.45px" xmlns="http://www.w3.org/2000/svg">
  <g transform="matrix(1.0, 0.0, 0.0, 1.0, 42.7, 69.95)">
    <path d="M23.8 -40.1 L24.05 -40.3 24.15 -40.4 24.8 -41.05 25.35 -41.65 Q27.35 -44.05 27.35 -46.65 L27.35 -47.35 Q27.15 -49.45 25.75 -47.7 23.5 -44.4 21.9 -42.7 L22.0 -49.05 Q22.0 -51.7 19.9 -58.65 18.55 -63.05 17.4 -65.3 L18.55 -64.8 19.5 -64.4 22.6 -62.85 23.15 -62.6 24.35 -61.9 Q29.35 -59.05 32.75 -55.7 L35.0 -53.1 36.3 -51.25 36.35 -51.1 36.45 -51.0 36.5 -50.85 Q37.95 -48.4 38.8 -45.55 L39.1 -44.55 39.7 -41.35 39.95 -39.25 39.85 -39.4 Q37.4 -43.25 33.5 -43.25 29.85 -43.25 24.65 -40.55 L23.8 -40.1 M39.3 -28.0 L38.95 -26.25 37.1 -19.5 Q33.7 -9.05 28.7 -4.55 L28.65 -4.8 28.65 -4.9 28.45 -5.75 28.25 -6.75 Q29.5 -10.5 33.65 -18.1 36.3 -23.05 39.3 -28.0" fill="#262d37" fill-rule="evenodd" stroke="none"/>
    <path d="M39.95 -39.25 L39.7 -41.35 39.1 -44.55 38.8 -45.55 Q37.95 -48.4 36.5 -50.85 L36.45 -51.0 36.35 -51.1 36.3 -51.25 35.0 -53.1 32.75 -55.7 Q29.35 -59.05 24.35 -61.9 L23.15 -62.6 22.6 -62.85 19.5 -64.4 18.55 -64.8 17.4 -65.3 Q18.55 -63.05 19.9 -58.65 22.0 -51.7 22.0 -49.05 L21.9 -42.7 Q23.5 -44.4 25.75 -47.7 27.15 -49.45 27.35 -47.35 L27.35 -46.65 Q27.35 -44.05 25.35 -41.65 L24.8 -41.05 24.15 -40.4 24.05 -40.3 23.8 -40.1 23.0 -39.45 Q24.3 -36.7 24.3 -34.75 L24.0 -32.6 Q23.65 -31.1 22.95 -31.1 L20.85 -36.0 17.9 -26.6 17.8 -26.25 17.7 -25.95 16.5 -23.4 21.15 -23.3 Q21.15 -22.1 14.6 -19.5 L14.05 -19.25 13.85 -18.3 Q12.25 -10.95 9.25 -10.95 L8.5 -11.0 8.35 -11.1 8.3 -12.1 Q8.3 -12.85 9.2 -15.55 L8.75 -15.3 Q4.6 -12.9 1.1 -9.9 -0.9 -8.2 -2.15 -6.7 L-2.15 -3.9 Q0.05 -5.2 5.5 -7.35 11.6 -9.75 14.85 -11.4 16.55 -12.2 18.85 -13.7 21.05 -15.1 22.25 -16.05 L24.05 -18.55 Q25.3 -20.4 26.2 -20.4 L26.95 -20.3 Q27.1 -20.2 27.55 -20.0 L27.8 -19.0 Q27.8 -18.35 27.45 -17.6 L27.6 -15.65 27.35 -11.75 Q27.35 -10.35 27.8 -8.45 L28.45 -5.75 28.65 -4.9 28.65 -4.8 28.7 -4.55 Q33.7 -9.05 37.1 -19.5 L38.95 -26.25 39.3 -28.0 Q40.05 -32.35 40.05 -36.2 L39.95 -39.25 M19.7 -68.1 Q22.95 -66.6 26.65 -63.65 32.2 -59.2 38.3 -52.1 L38.8 -51.4 Q41.5 -47.4 42.35 -41.5 42.75 -38.4 42.75 -30.75 42.75 -28.95 42.15 -26.25 L41.1 -22.5 38.5 -15.05 Q37.25 -11.4 32.95 -5.4 29.0 0.0 28.5 0.0 27.2 0.0 25.65 -8.7 L24.75 -14.5 23.85 -13.75 Q20.35 -10.9 15.6 -8.65 L5.0 -3.75 -2.9 -0.25 Q-4.35 -0.25 -4.65 -2.5 L-4.65 -4.9 Q-4.65 -12.0 -0.4 -19.1 L0.25 -20.05 Q-3.35 -18.75 -10.35 -16.95 -24.7 -13.25 -31.0 -13.25 L-31.6 -13.25 -32.3 -13.2 Q-33.8 -13.2 -34.1 -13.85 L-34.15 -14.55 Q-34.15 -18.3 -28.0 -25.1 L-26.9 -26.25 Q-24.05 -29.1 -21.45 -30.4 -24.8 -31.2 -31.4 -34.0 L-32.7 -34.55 Q-42.7 -38.85 -42.7 -40.05 -37.5 -44.05 -32.35 -47.15 L-31.4 -47.7 -28.3 -49.4 Q-29.9 -50.45 -31.4 -52.15 L-33.35 -54.75 Q-37.1 -60.4 -37.1 -63.15 -37.1 -64.7 -35.9 -64.7 L-33.3 -63.45 Q-32.45 -63.05 -31.4 -62.75 L-26.2 -62.2 Q-21.45 -62.2 -17.3 -63.6 -14.75 -64.5 -12.45 -65.9 -6.1 -69.7 2.5 -69.95 L12.35 -69.55 Q14.9 -69.8 17.75 -68.85 L18.95 -68.5 19.7 -68.1 M14.05 -34.95 L13.65 -35.05 13.55 -35.2 13.45 -35.85 Q13.45 -36.55 17.45 -39.5 L18.9 -40.5 18.85 -40.6 17.15 -44.5 15.95 -47.1 Q15.95 -50.0 19.15 -45.75 L20.15 -44.35 20.7 -43.55 20.55 -46.5 Q20.05 -52.9 18.15 -59.15 L16.05 -65.85 11.45 -67.55 8.7 -67.7 Q10.0 -66.15 11.15 -63.25 13.1 -58.3 13.1 -56.2 13.1 -48.9 11.15 -43.7 10.25 -41.25 9.0 -39.35 L7.25 -37.2 7.1 -36.55 Q6.6 -35.05 4.8 -33.45 L4.1 -33.65 4.0 -33.6 Q3.85 -33.6 3.85 -34.15 L3.9 -34.7 Q1.65 -33.55 -1.05 -33.15 L-1.1 -33.15 -3.7 -33.0 Q-6.45 -33.0 -8.55 -33.8 -10.45 -32.55 -11.3 -32.45 L-11.85 -32.6 -12.1 -33.25 Q-12.1 -33.7 -10.7 -35.1 -12.6 -36.6 -13.55 -39.15 -14.75 -42.35 -14.8 -47.1 L-15.05 -48.2 -16.65 -48.0 -17.3 -48.05 -18.5 -48.55 -18.95 -48.85 -19.6 -49.7 -18.25 -50.1 -17.55 -50.05 -17.35 -50.05 -17.3 -50.05 Q-16.95 -50.1 -15.55 -50.7 L-16.1 -53.55 -17.15 -53.5 -17.3 -53.5 -18.8 -53.75 Q-19.85 -54.0 -20.15 -54.3 -19.25 -55.8 -17.3 -56.35 L-17.0 -56.45 -17.3 -57.1 -17.4 -57.35 Q-18.25 -59.0 -19.45 -60.35 L-26.2 -59.6 -31.4 -59.95 -31.95 -60.1 -33.85 -60.65 -31.7 -57.45 -31.4 -57.05 Q-29.3 -54.5 -26.5 -52.3 L-24.3 -50.85 -24.2 -50.9 -24.1 -50.75 Q-23.25 -49.6 -22.0 -49.55 L-22.0 -49.5 -22.4 -49.2 -23.55 -48.3 -24.0 -47.9 -24.25 -47.9 -28.6 -45.2 -31.4 -43.45 Q-36.25 -40.55 -38.1 -40.0 L-37.9 -39.9 -37.6 -39.7 Q-35.55 -38.5 -33.35 -37.45 L-31.4 -36.45 -28.9 -35.2 Q-26.0 -33.55 -19.75 -33.35 L-17.3 -33.15 Q-14.8 -32.8 -14.8 -31.95 -14.8 -30.85 -16.55 -30.4 L-17.3 -29.7 -21.3 -26.25 -24.5 -23.55 -24.9 -23.15 -24.95 -23.15 -25.95 -22.25 -30.25 -17.25 -30.4 -17.0 -30.65 -15.95 -28.55 -16.4 -25.25 -16.95 -24.8 -17.0 -21.9 -17.4 -21.55 -17.45 Q-13.85 -18.65 -11.4 -19.5 L-1.55 -23.15 Q3.9 -24.85 3.9 -22.2 L3.85 -22.0 1.15 -15.6 -1.55 -9.1 4.45 -13.55 Q7.5 -15.6 9.8 -17.4 L9.9 -17.75 Q7.5 -17.0 6.45 -17.0 5.35 -17.0 4.5 -17.55 L4.45 -17.5 Q4.35 -17.5 4.35 -18.05 4.35 -18.55 11.2 -21.4 L13.1 -25.95 13.25 -26.25 14.05 -27.6 14.65 -27.1 14.85 -26.35 14.85 -26.25 14.85 -25.95 14.6 -22.75 15.65 -23.15 16.1 -23.9 16.85 -25.95 16.95 -26.25 18.65 -32.25 19.95 -37.4 Q17.7 -36.1 14.7 -34.85 L14.05 -34.95 M-16.2 -58.1 L-16.05 -57.7 -15.8 -56.65 Q-13.75 -56.85 -12.45 -55.7 -12.95 -54.9 -14.15 -54.25 L-15.2 -53.8 -14.65 -51.1 -13.35 -51.7 Q-10.9 -52.85 -10.9 -50.95 -10.9 -49.95 -13.0 -48.95 L-14.1 -48.45 -14.05 -48.1 Q-12.4 -39.85 -9.3 -36.45 L-8.15 -37.5 Q-4.25 -41.05 -4.25 -37.8 -4.25 -36.9 -7.15 -34.8 -5.85 -34.15 -4.3 -34.15 0.75 -34.15 4.35 -36.75 L5.65 -41.0 Q7.4 -46.2 7.4 -39.85 L9.25 -42.95 Q11.8 -48.35 11.8 -53.75 11.8 -57.25 10.25 -61.8 8.85 -65.9 6.9 -67.75 L5.85 -67.8 4.8 -67.8 Q-3.8 -67.8 -11.05 -63.7 -14.15 -61.95 -17.3 -60.95 L-17.55 -60.9 -17.3 -60.55 Q-16.7 -59.6 -16.2 -58.1" fill="#000000" fill-rule="evenodd" stroke="none"/>
    <path d="M-18.95 -48.85 L-18.5 -48.55 -17.3 -48.05 -16.65 -48.0 -15.05 -48.2 -14.8 -47.1 Q-14.75 -42.35 -13.55 -39.15 -12.6 -36.6 -10.7 -35.1 -12.1 -33.7 -12.1 -33.25 L-11.85 -32.6 -11.3 -32.45 Q-10.45 -32.55 -8.55 -33.8 -6.45 -33.0 -3.7 -33.0 L-1.1 -33.15 -1.05 -33.15 Q1.65 -33.55 3.9 -34.7 L3.85 -34.15 Q3.85 -33.6 4.0 -33.6 L4.1 -33.65 4.8 -33.45 Q6.6 -35.05 7.1 -36.55 L7.25 -37.2 9.0 -39.35 Q10.25 -41.25 11.15 -43.7 13.1 -48.9 13.1 -56.2 13.1 -58.3 11.15 -63.25 10.0 -66.15 8.7 -67.7 L11.45 -67.55 16.05 -65.85 18.15 -59.15 Q20.05 -52.9 20.55 -46.5 L20.7 -43.55 20.15 -44.35 19.15 -45.75 Q15.95 -50.0 15.95 -47.1 L17.15 -44.5 18.85 -40.6 18.9 -40.5 17.45 -39.5 Q13.45 -36.55 13.45 -35.85 L13.55 -35.2 13.65 -35.05 14.05 -34.95 -1.75 -25.95 -3.85 -24.75 Q-10.9 -20.65 -19.1 -18.15 L-10.5 -23.9 Q-4.4 -27.95 -2.65 -30.15 -5.3 -29.25 -12.8 -25.35 -20.2 -21.5 -24.0 -19.15 -25.65 -18.1 -29.45 -16.25 L-28.55 -16.4 -30.65 -15.95 -30.4 -17.0 -30.25 -17.25 -25.95 -22.25 -24.95 -23.15 -24.9 -23.15 -24.5 -23.55 -21.3 -26.25 -17.3 -29.7 -16.55 -30.4 Q-14.8 -30.85 -14.8 -31.95 -14.8 -32.8 -17.3 -33.15 L-19.75 -33.35 Q-26.0 -33.55 -28.9 -35.2 L-31.4 -36.45 -33.35 -37.45 Q-35.55 -38.5 -37.6 -39.7 -33.7 -40.35 -28.6 -42.3 -21.65 -44.95 -18.6 -48.6 L-18.95 -48.85 M-22.4 -49.2 L-22.0 -49.5 -22.0 -49.55 Q-23.25 -49.6 -24.1 -50.75 L-24.2 -50.9 -24.3 -50.85 -26.5 -52.3 Q-29.3 -54.5 -31.4 -57.05 L-31.7 -57.45 Q-28.95 -56.05 -25.4 -56.05 -21.55 -56.05 -17.4 -57.35 L-17.3 -57.1 -17.0 -56.45 -17.3 -56.35 Q-19.25 -55.8 -20.15 -54.3 -19.85 -54.0 -18.8 -53.75 L-17.3 -53.5 -17.15 -53.5 -16.1 -53.55 -15.55 -50.7 Q-16.95 -50.1 -17.3 -50.05 L-17.35 -50.05 -17.55 -50.05 -16.65 -52.1 -22.1 -49.4 -22.4 -49.2" fill="#1e2728" fill-rule="evenodd" stroke="none"/>
    <path d="M5.85 -67.8 L6.9 -67.75 Q8.85 -65.9 10.25 -61.8 11.8 -57.25 11.8 -53.75 11.8 -48.35 9.25 -42.95 L7.4 -39.85 Q7.4 -46.2 5.65 -41.0 L4.35 -36.75 Q0.75 -34.15 -4.3 -34.15 -5.85 -34.15 -7.15 -34.8 -4.25 -36.9 -4.25 -37.8 -4.25 -41.05 -8.15 -37.5 L-9.3 -36.45 Q-12.4 -39.85 -14.05 -48.1 L-14.1 -48.45 -13.0 -48.95 Q-10.9 -49.95 -10.9 -50.95 -10.9 -52.85 -13.35 -51.7 L-14.65 -51.1 -15.2 -53.8 -14.15 -54.25 Q-12.95 -54.9 -12.45 -55.7 -13.75 -56.85 -15.8 -56.65 L-16.05 -57.7 -16.2 -58.1 Q-14.1 -59.05 -10.75 -60.9 L-4.25 -64.75 5.2 -67.6 5.85 -67.8" fill="#364140" fill-rule="evenodd" stroke="none"/>
    <path d="M-18.95 -48.85 L-18.6 -48.6 Q-21.65 -44.95 -28.6 -42.3 -33.7 -40.35 -37.6 -39.7 L-37.9 -39.9 -38.1 -40.0 Q-36.25 -40.55 -31.4 -43.45 L-28.6 -45.2 -24.25 -47.9 -24.0 -47.9 -23.55 -48.3 -22.4 -49.2 -22.1 -49.4 -16.65 -52.1 -17.55 -50.05 -18.25 -50.1 -19.6 -49.7 -18.95 -48.85 M5.85 -67.8 L5.2 -67.6 -4.25 -64.75 -10.75 -60.9 Q-14.1 -59.05 -16.2 -58.1 -16.7 -59.6 -17.3 -60.55 L-17.55 -60.9 -17.3 -60.95 Q-14.15 -61.95 -11.05 -63.7 -3.8 -67.8 4.8 -67.8 L5.85 -67.8 M-17.4 -57.35 Q-21.55 -56.05 -25.4 -56.05 -28.95 -56.05 -31.7 -57.45 L-33.85 -60.65 -31.95 -60.1 -31.4 -59.95 -26.2 -59.6 -19.45 -60.35 Q-18.25 -59.0 -17.4 -57.35" fill="#495a9c" fill-rule="evenodd" stroke="none"/>
    <path d="M23.8 -40.1 L24.65 -40.55 Q29.85 -43.25 33.5 -43.25 37.4 -43.25 39.85 -39.4 L39.95 -39.25 40.05 -36.2 Q40.05 -32.35 39.3 -28.0 36.3 -23.05 33.65 -18.1 29.5 -10.5 28.25 -6.75 L28.45 -5.75 27.8 -8.45 Q27.35 -10.35 27.35 -11.75 L27.6 -15.65 27.45 -17.6 Q27.8 -18.35 27.8 -19.0 L27.55 -20.0 Q27.1 -20.2 26.95 -20.3 L26.2 -20.4 Q25.3 -20.4 24.05 -18.55 L22.25 -16.05 Q21.05 -15.1 18.85 -13.7 16.55 -12.2 14.85 -11.4 11.6 -9.75 5.5 -7.35 0.05 -5.2 -2.15 -3.9 L-2.15 -6.7 Q-0.9 -8.2 1.1 -9.9 4.6 -12.9 8.75 -15.3 L9.2 -15.55 Q8.3 -12.85 8.3 -12.1 L8.35 -11.1 8.5 -11.0 9.25 -10.95 Q12.25 -10.95 13.85 -18.3 L14.05 -19.25 14.6 -19.5 Q21.15 -22.1 21.15 -23.3 L16.5 -23.4 17.7 -25.95 17.8 -26.25 17.9 -26.6 20.85 -36.0 22.95 -31.1 Q23.65 -31.1 24.0 -32.6 L24.3 -34.75 Q24.3 -36.7 23.0 -39.45 L23.8 -40.1" fill="#4f5860" fill-rule="evenodd" stroke="none"/>
    <path d="M-28.55 -16.4 L-29.45 -16.25 Q-25.65 -18.1 -24.0 -19.15 -20.2 -21.5 -12.8 -25.35 -5.3 -29.25 -2.65 -30.15 -4.4 -27.95 -10.5 -23.9 L-19.1 -18.15 Q-10.9 -20.65 -3.85 -24.75 L-1.75 -25.95 14.05 -34.95 14.7 -34.85 Q17.7 -36.1 19.95 -37.4 L18.65 -32.25 16.95 -26.25 16.85 -25.95 16.1 -23.9 15.65 -23.15 14.6 -22.75 14.85 -25.95 14.85 -26.25 14.85 -26.35 14.65 -27.1 14.05 -27.6 13.25 -26.25 13.1 -25.95 11.2 -21.4 Q4.35 -18.55 4.35 -18.05 4.35 -17.5 4.45 -17.5 L4.5 -17.55 Q5.35 -17.0 6.45 -17.0 7.5 -17.0 9.9 -17.75 L9.8 -17.4 Q7.5 -15.6 4.45 -13.55 L-1.55 -9.1 1.15 -15.6 3.85 -22.0 3.9 -22.2 Q3.9 -24.85 -1.55 -23.15 L-11.4 -19.5 Q-13.85 -18.65 -21.55 -17.45 L-21.9 -17.4 -24.8 -17.0 -25.25 -16.95 -28.55 -16.4" fill="#3c4847" fill-rule="evenodd" stroke="none"/>
  </g>
</svg>
