<?xml version="1.0" encoding="UTF-8" standalone="no"?>
<svg xmlns:ffdec="https://www.free-decompiler.com/flash" xmlns:xlink="http://www.w3.org/1999/xlink" ffdec:objectType="shape" height="149.95px" width="150.75px" xmlns="http://www.w3.org/2000/svg">
  <g transform="matrix(1.0, 0.0, 0.0, 1.0, 57.5, 150.05)">
    <path d="M91.55 -124.0 Q93.25 -118.95 93.25 -115.85 93.25 -103.9 83.4 -92.5 81.0 -89.7 77.8 -86.75 75.7 -83.25 72.35 -79.7 68.95 -76.05 59.9 -68.25 48.45 -58.35 42.0 -52.25 28.8 -39.8 18.6 -27.1 7.75 -13.6 1.5 -1.25 L0.5 -1.25 0.05 -0.8 -0.75 -0.1 -0.75 -2.25 Q-0.65 -6.1 0.55 -14.5 L1.1 -18.2 Q3.9 -28.1 12.55 -39.45 21.15 -50.7 31.4 -57.9 33.7 -59.65 36.25 -61.25 65.45 -79.6 75.65 -88.75 80.0 -96.25 80.0 -104.0 80.0 -115.5 72.55 -124.4 62.5 -136.45 41.0 -139.85 L31.0 -139.1 Q6.8 -135.2 -12.55 -126.85 -23.05 -122.35 -28.55 -120.5 -39.05 -116.95 -53.0 -114.35 L-54.25 -114.45 -55.0 -114.35 -57.5 -114.6 -53.45 -115.6 Q-49.7 -117.25 -41.95 -119.05 L-40.7 -119.3 -32.45 -122.05 Q-19.65 -126.55 -5.5 -133.1 9.45 -140.05 15.05 -141.95 27.85 -146.2 50.0 -149.35 L50.0 -149.85 Q72.95 -151.7 85.05 -136.1 89.25 -130.7 91.55 -124.0 M7.65 -26.85 L11.0 -32.75 11.5 -33.7 Q9.35 -30.35 7.65 -26.85" fill="#ffffff" fill-opacity="0.5019608" fill-rule="evenodd" stroke="none"/>
  </g>
</svg>
