<?xml version="1.0" encoding="UTF-8" standalone="no"?>
<svg xmlns:ffdec="https://www.free-decompiler.com/flash" xmlns:xlink="http://www.w3.org/1999/xlink" ffdec:objectType="shape" height="195.7px" width="168.0px" xmlns="http://www.w3.org/2000/svg">
  <g transform="matrix(1.0, 0.0, 0.0, 1.0, 56.5, 194.7)">
    <path d="M99.1 -157.95 Q99.75 -160.15 99.75 -162.25 99.75 -179.35 87.25 -185.75 83.25 -187.8 78.15 -188.7 73.45 -190.15 66.75 -190.0 53.9 -189.7 37.25 -184.0 L35.4 -183.35 28.1 -181.1 26.75 -180.8 26.4 -180.7 22.6 -178.7 20.45 -177.5 15.0 -174.35 13.95 -174.5 27.25 -182.1 47.45 -190.55 61.0 -193.1 Q82.2 -198.55 97.8 -185.5 104.25 -180.2 107.95 -172.85 111.5 -165.85 111.5 -159.35 111.5 -148.55 93.1 -136.0 L88.35 -132.9 Q80.55 -127.25 67.0 -118.35 62.1 -115.15 57.6 -111.8 34.85 -99.6 17.65 -78.5 -3.0 -53.1 -3.0 -31.0 -3.45 -21.85 -3.1 -18.55 -2.6 -14.05 1.5 -4.0 L2.5 -1.6 3.0 0.0 Q2.5 0.75 0.25 1.0 -2.05 -0.95 -2.55 -3.45 -5.5 -8.6 -7.45 -15.95 -9.35 -23.25 -9.65 -30.3 L-10.0 -29.75 -10.7 -34.75 -11.25 -39.6 Q-11.25 -58.5 5.8 -77.2 10.55 -82.35 17.5 -88.25 L18.95 -89.7 21.55 -92.05 23.5 -93.2 Q32.1 -100.05 43.4 -107.8 L63.45 -121.5 Q74.45 -129.1 80.95 -134.55 L85.1 -138.2 Q90.3 -141.85 94.2 -147.3 98.35 -153.1 99.1 -157.95 M-13.75 -151.35 Q-15.75 -148.4 -18.0 -147.35 L-19.5 -147.6 Q-18.95 -148.45 -16.95 -149.8 -14.8 -151.3 -13.75 -151.35 M-50.3 -131.55 L-55.0 -129.35 -56.5 -129.6 Q-54.85 -130.65 -50.65 -132.35 -46.5 -134.1 -45.75 -134.1 -46.85 -133.15 -50.3 -131.55" fill="#ffffff" fill-opacity="0.5019608" fill-rule="evenodd" stroke="none"/>
  </g>
</svg>
