<?xml version="1.0" encoding="UTF-8" standalone="no"?>
<svg xmlns:ffdec="https://www.free-decompiler.com/flash" xmlns:xlink="http://www.w3.org/1999/xlink" ffdec:objectType="shape" height="225.55px" width="270.4px" xmlns="http://www.w3.org/2000/svg">
  <g transform="matrix(1.0, 0.0, 0.0, 1.0, 151.0, 126.0)">
    <path d="M67.0 -123.75 Q67.1 -123.05 66.7 -122.45 L65.25 -120.55 Q64.8 -120.15 64.2 -120.1 L63.1 -120.3 62.6 -120.55 Q61.9 -120.9 61.65 -121.65 L61.45 -122.2 Q61.25 -122.65 61.35 -123.1 61.35 -123.6 61.65 -123.95 62.7 -125.6 63.6 -125.75 64.65 -126.5 66.35 -124.95 66.9 -124.5 67.0 -123.75 M57.3 -117.7 Q57.6 -119.5 59.3 -119.95 L61.2 -120.1 62.2 -119.7 62.9 -118.85 63.05 -117.75 Q63.0 -116.9 61.9 -115.9 L61.8 -115.85 Q60.7 -114.95 59.55 -115.0 L58.75 -115.15 Q58.3 -115.35 58.05 -115.7 L57.75 -116.05 57.35 -116.8 Q57.2 -117.25 57.3 -117.7 M71.8 -118.85 Q71.8 -117.8 71.15 -117.1 70.75 -116.6 69.7 -116.25 L68.25 -116.1 68.2 -116.1 68.0 -116.1 67.6 -116.1 67.6 -116.0 67.75 -114.55 67.75 -113.75 Q67.75 -113.05 67.3 -112.5 L66.95 -112.1 66.4 -111.75 65.85 -111.5 64.45 -111.4 63.75 -111.65 Q63.05 -111.85 62.7 -112.45 62.25 -112.75 62.25 -114.55 62.25 -116.4 63.0 -117.0 63.4 -117.8 65.15 -117.85 L65.15 -117.9 65.05 -118.9 Q64.95 -119.5 65.25 -120.1 L65.3 -120.5 65.45 -120.5 Q65.9 -121.15 66.85 -121.75 68.2 -122.7 69.25 -122.6 L70.2 -122.35 70.95 -121.7 71.45 -120.95 71.75 -120.0 71.75 -119.4 71.8 -118.85 M65.5 -117.9 L65.3 -117.95 65.35 -117.85 65.55 -117.8 65.5 -117.9 M52.5 -74.25 Q53.9 -72.3 55.3 -68.5 L56.0 -66.7 56.5 -65.75 57.1 -65.15 Q57.65 -64.6 57.65 -63.75 L57.65 -63.3 57.65 -63.0 Q57.65 -62.35 57.25 -61.8 56.85 -61.25 56.25 -61.05 L55.75 -60.9 54.45 -60.95 Q53.8 -61.2 53.45 -61.8 L51.9 -63.15 51.85 -63.15 Q50.9 -64.25 50.6 -65.0 50.35 -65.55 50.45 -66.1 49.4 -67.9 47.9 -68.9 L47.85 -68.9 Q43.9 -71.45 33.9 -73.0 L13.5 -73.1 13.4 -73.1 11.25 -73.25 8.9 -73.65 8.95 -73.6 Q-0.1 -75.1 -4.5 -76.3 L-13.3 -79.0 -15.3 -79.15 -17.75 -79.5 -24.05 -79.35 -26.5 -79.0 -27.6 -79.15 -30.75 -79.35 Q-35.6 -78.85 -43.15 -75.4 -50.4 -72.2 -55.9 -68.3 L-59.1 -65.8 Q-59.65 -65.35 -60.35 -65.3 -61.05 -65.3 -61.6 -65.7 -62.2 -66.1 -62.35 -66.75 L-62.4 -66.95 -62.35 -68.2 Q-61.75 -70.4 -55.7 -74.35 L-47.35 -79.45 -47.4 -79.45 Q-41.7 -83.05 -38.45 -83.8 L-32.2 -85.25 -32.25 -85.2 Q-29.05 -86.05 -27.6 -87.0 L-26.45 -87.35 -11.8 -87.25 Q-11.15 -87.25 -10.65 -86.85 -6.85 -84.0 -1.85 -81.9 7.35 -78.0 17.75 -78.0 27.95 -78.0 30.6 -79.15 L30.7 -79.2 29.7 -80.15 Q29.2 -80.6 29.1 -81.2 28.95 -81.85 29.25 -82.45 29.55 -83.05 30.15 -83.35 L31.35 -83.55 Q47.6 -81.1 52.45 -74.3 L52.5 -74.25 M52.9 -65.6 L52.95 -65.6 52.9 -65.6 M59.55 -58.5 L60.25 -57.8 Q62.15 -54.75 63.4 -49.95 65.05 -49.75 65.8 -48.5 L66.15 -47.3 Q66.15 -46.7 65.8 -46.15 65.45 -45.5 64.4 -45.1 64.8 -42.45 64.8 -40.05 L64.65 -38.4 64.45 -37.95 64.25 -37.65 63.5 -36.95 62.55 -36.75 61.9 -36.75 Q60.9 -34.7 60.35 -31.3 59.1 -24.4 57.05 -21.6 56.6 -20.95 55.85 -20.8 55.1 -20.65 54.45 -21.0 53.75 -21.4 53.5 -22.1 53.05 -23.3 53.05 -26.15 L53.0 -31.85 53.0 -32.0 Q53.25 -36.4 55.2 -38.35 57.25 -40.6 57.8 -42.85 L57.85 -42.9 Q58.15 -44.3 58.15 -47.65 L58.1 -51.15 58.1 -51.05 55.95 -55.5 Q55.6 -56.1 55.7 -56.75 55.75 -57.45 56.25 -57.9 56.85 -58.75 58.55 -58.75 L59.55 -58.5 M17.6 -96.8 L18.45 -95.7 Q18.7 -95.0 18.4 -94.3 18.1 -93.35 16.8 -92.7 L15.8 -92.5 Q15.25 -92.55 14.8 -92.8 L14.5 -93.0 14.35 -93.15 Q13.3 -94.0 13.3 -95.35 13.3 -96.2 13.9 -96.75 14.45 -97.35 15.3 -97.35 16.9 -97.35 17.6 -96.8 M38.35 -31.85 Q38.85 -32.45 39.65 -32.5 L40.9 -32.6 41.95 -32.35 42.75 -31.65 43.05 -30.6 42.8 -28.4 42.15 -27.5 Q41.7 -27.2 41.15 -27.1 L40.3 -27.0 39.25 -27.15 38.45 -27.8 Q37.8 -28.45 37.8 -30.5 37.8 -31.3 38.35 -31.85 M53.55 -19.15 L54.45 -18.3 54.85 -17.55 55.05 -16.65 54.9 -15.8 Q54.6 -14.85 53.3 -14.2 L52.5 -14.0 51.65 -14.15 Q49.55 -15.05 49.35 -16.5 L49.35 -17.25 Q49.35 -19.0 51.45 -19.4 L51.4 -19.4 53.55 -19.15 M54.8 -11.0 Q55.55 -10.05 55.55 -8.35 L55.4 -7.5 54.9 -6.85 54.5 -6.5 Q53.9 -6.0 53.15 -6.0 L52.85 -6.0 Q52.0 -5.5 51.15 -6.0 49.8 -6.0 49.8 -8.75 49.8 -11.05 51.35 -11.55 L53.15 -11.85 54.05 -11.6 54.8 -11.0 M86.45 -51.6 L88.15 -52.85 89.45 -53.05 Q90.15 -52.9 90.6 -52.35 91.25 -51.95 91.25 -49.6 L91.0 -47.75 91.15 -47.75 91.9 -47.7 93.8 -47.4 94.4 -47.05 94.9 -46.65 95.55 -45.65 Q95.75 -45.1 95.55 -44.5 95.25 -42.75 92.8 -42.25 L92.3 -42.25 90.95 -42.3 90.95 -42.25 91.05 -42.25 90.95 -42.2 91.0 -42.05 91.05 -40.6 91.05 -40.3 Q91.05 -39.05 89.4 -38.2 L88.1 -38.05 Q86.7 -38.3 86.5 -38.75 85.8 -38.95 85.8 -41.15 85.8 -43.15 86.3 -43.8 L86.55 -44.15 Q85.9 -43.7 84.75 -43.7 82.9 -43.7 82.35 -44.9 81.9 -45.55 82.05 -46.25 L82.1 -46.6 Q82.2 -47.35 82.75 -47.85 83.3 -48.35 84.05 -48.35 L85.85 -48.15 85.75 -49.4 Q85.75 -50.8 86.3 -51.45 L86.45 -51.6 M87.4 -46.6 L87.5 -46.0 87.2 -44.9 86.9 -44.45 87.05 -44.55 88.05 -44.85 88.25 -44.85 88.25 -44.9 Q88.25 -45.85 88.5 -46.5 L88.05 -46.5 87.4 -46.6 M114.4 3.95 L115.3 5.15 115.55 5.9 116.2 5.8 117.3 6.0 117.7 6.2 117.6 6.2 Q118.85 6.7 119.2 7.6 L119.4 8.7 119.0 9.75 117.1 11.15 Q116.35 11.75 115.6 11.65 L115.05 11.75 115.05 11.8 115.05 12.9 114.95 15.05 114.95 15.1 Q114.45 17.35 112.2 18.0 L111.0 17.95 110.05 17.25 109.6 16.5 Q109.3 15.9 109.3 14.6 109.3 13.75 109.65 12.55 L109.7 12.25 109.8 11.75 108.5 11.8 Q107.45 11.55 107.15 10.85 L107.05 9.85 Q107.05 9.35 107.3 9.0 107.7 8.45 109.0 7.8 L109.75 7.7 109.7 7.55 Q109.6 7.05 109.75 6.55 109.85 6.05 110.25 5.7 L110.55 5.2 Q111.1 4.05 112.55 3.6 L113.5 3.55 Q114.0 3.6 114.4 3.95 M48.05 2.15 L47.8 3.9 Q48.4 4.5 48.4 6.1 L48.35 7.35 48.75 8.0 Q49.8 10.4 49.8 14.65 49.85 19.1 47.25 25.3 47.0 26.6 43.35 28.2 40.65 29.35 39.9 29.9 L39.85 29.9 Q35.95 32.9 34.95 34.05 L34.95 34.1 Q30.2 39.95 21.95 46.0 12.7 52.65 8.5 52.5 L5.9 52.35 5.95 52.35 Q3.05 52.05 2.9 51.2 2.55 50.7 2.5 50.15 2.45 49.55 2.75 49.05 L3.0 48.6 Q3.4 47.85 4.2 47.65 9.0 46.2 14.55 43.15 14.95 42.8 15.5 42.75 19.15 42.05 24.85 37.7 31.75 32.35 32.05 29.5 L32.15 29.55 32.15 29.5 Q31.85 29.0 31.85 28.4 31.9 27.65 32.4 27.15 L33.8 25.75 Q39.1 21.35 41.7 16.25 L41.95 15.85 42.4 14.55 Q43.35 11.15 43.35 8.0 L43.25 7.6 Q43.05 6.85 43.05 4.5 43.05 3.3 43.55 2.1 L43.55 2.05 Q44.2 0.4 45.05 0.1 L46.55 -0.15 Q47.3 0.05 47.75 0.7 48.15 1.35 48.05 2.15 M5.85 42.7 Q5.55 43.6 4.65 44.25 L3.55 44.55 2.75 44.55 Q1.95 44.55 1.35 44.0 0.75 43.4 0.75 42.6 0.75 41.8 1.3 41.2 2.75 39.65 4.05 39.8 4.7 39.8 5.25 40.2 5.8 40.6 6.0 41.3 6.15 41.9 5.9 42.55 L5.85 42.7 M-79.1 -100.65 Q-77.5 -100.45 -77.25 -98.65 L-77.1 -97.65 -77.2 -97.05 -77.45 -96.25 -77.75 -95.65 -77.5 -95.6 Q-74.75 -94.95 -74.75 -92.35 -74.75 -91.1 -75.25 -90.65 -75.7 -90.25 -77.0 -90.25 -78.45 -90.25 -79.4 -91.25 L-79.6 -91.5 Q-79.7 -90.75 -80.25 -90.25 -80.9 -89.6 -82.0 -89.6 -83.65 -89.6 -84.35 -90.6 -84.75 -91.15 -84.75 -91.75 L-84.65 -92.75 -85.0 -92.75 -85.9 -93.15 Q-86.25 -93.45 -86.25 -94.3 -86.25 -94.7 -85.65 -95.5 L-85.5 -95.7 -86.1 -96.2 -86.5 -96.75 -87.5 -98.25 -87.8 -99.0 -87.8 -99.8 -87.7 -100.2 -86.95 -101.3 Q-86.45 -101.75 -85.75 -101.75 -85.35 -102.0 -83.3 -100.6 L-83.3 -100.55 -82.4 -99.9 Q-82.1 -100.35 -81.6 -100.45 L-80.85 -100.7 -80.4 -100.8 -79.35 -100.75 -79.1 -100.65 M-82.4 -99.9 L-82.85 -98.4 Q-82.75 -99.25 -82.2 -99.8 L-82.4 -99.9 M-81.15 -94.95 L-81.25 -95.0 -81.3 -94.8 -81.25 -94.75 -80.7 -94.55 -80.5 -94.4 -80.2 -94.1 -80.1 -94.6 -80.35 -94.6 -80.6 -94.7 -81.2 -94.85 -81.15 -94.95 M-147.2 -19.4 Q-146.3 -18.85 -145.15 -16.95 L-145.1 -16.85 -144.75 -16.2 -144.2 -16.65 -144.05 -16.8 -142.35 -17.25 Q-141.65 -17.25 -141.1 -16.8 -139.95 -15.9 -139.8 -15.05 L-139.75 -14.5 Q-139.7 -13.05 -140.8 -11.9 -141.4 -11.35 -142.25 -11.35 L-142.35 -11.35 -143.5 -11.3 Q-144.55 -11.2 -144.95 -12.15 L-145.4 -12.0 Q-146.1 -11.9 -146.7 -12.25 -148.8 -13.35 -150.65 -16.1 L-151.0 -17.0 -150.85 -18.0 Q-150.1 -19.85 -148.35 -19.75 -147.7 -19.75 -147.2 -19.4 M-142.7 -10.0 Q-142.1 -10.4 -141.4 -10.35 -139.1 -10.15 -138.25 -8.4 L-138.15 -8.2 -137.3 -6.6 Q-136.95 -6.05 -137.0 -5.4 -137.05 -4.8 -137.4 -4.25 L-137.9 -3.6 Q-138.45 -2.95 -139.25 -2.85 -140.05 -2.75 -140.7 -3.25 L-142.75 -5.1 -143.1 -5.55 -143.3 -5.45 -144.4 -5.4 -144.85 -5.5 -145.2 -5.6 Q-146.4 -6.1 -146.7 -6.65 -147.1 -7.2 -147.1 -7.85 L-147.1 -8.5 Q-147.1 -9.35 -146.5 -9.9 -145.95 -10.5 -145.1 -10.5 L-142.7 -10.0 M-87.9 -13.5 L-86.55 -13.7 -86.3 -13.6 Q-81.55 -22.05 -79.75 -25.8 -76.9 -32.0 -76.75 -38.35 L-77.45 -39.05 Q-77.85 -39.7 -77.7 -40.4 -77.6 -41.15 -77.05 -41.6 L-76.35 -42.0 -75.65 -43.7 -74.75 -45.5 -74.65 -46.1 Q-72.7 -52.55 -70.45 -52.1 -69.8 -52.15 -69.2 -51.75 -68.65 -51.4 -68.45 -50.75 -68.25 -50.15 -68.45 -49.5 L-69.35 -46.9 -69.45 -45.95 Q-72.05 -38.2 -72.1 -36.5 L-71.6 -33.1 -71.1 -29.15 Q-70.85 -27.9 -73.95 -23.95 L-77.4 -19.15 -77.45 -19.05 -79.25 -15.1 -79.3 -15.05 Q-80.75 -12.05 -82.25 -10.1 -84.55 -7.1 -84.95 -2.45 L-85.25 5.8 Q-85.25 6.65 -85.8 7.25 L-86.05 7.5 Q-86.55 7.9 -87.15 8.05 L-88.3 7.9 -89.2 7.1 Q-91.2 3.8 -91.55 2.1 -91.75 1.3 -91.75 -2.15 -91.75 -6.25 -91.4 -6.85 L-91.35 -7.1 -88.8 -12.55 Q-88.55 -13.2 -87.9 -13.5 M-95.0 -16.95 L-94.0 -16.45 -93.85 -16.35 Q-92.85 -15.95 -92.85 -13.8 -92.85 -12.45 -93.0 -12.2 -93.2 -11.6 -93.7 -11.2 -94.25 -10.85 -94.9 -10.85 L-95.0 -10.85 Q-94.85 -10.7 -95.0 -10.6 -95.4 -10.4 -95.8 -10.35 L-96.6 -10.45 -97.75 -10.85 -98.25 -11.2 Q-99.1 -11.75 -99.1 -13.75 -99.35 -16.0 -96.35 -17.0 L-95.0 -16.95 M-62.3 -62.3 L-61.6 -61.55 -61.35 -60.6 Q-61.35 -58.8 -62.4 -58.0 -63.0 -57.5 -63.75 -57.5 L-64.35 -57.5 -65.25 -57.7 -65.95 -58.3 Q-66.6 -58.95 -66.6 -60.85 -66.6 -61.7 -66.0 -62.25 -65.45 -62.85 -64.6 -62.85 -63.0 -62.85 -62.3 -62.3 M-72.75 -55.4 Q-72.75 -58.1 -70.8 -58.2 L-70.05 -58.25 -69.75 -58.2 -68.6 -58.05 Q-68.0 -58.0 -67.55 -57.6 -67.1 -57.25 -66.9 -56.65 -66.75 -56.15 -66.75 -55.0 -66.75 -54.15 -67.3 -53.55 L-67.5 -53.3 -68.6 -52.55 -69.75 -52.35 -70.6 -52.45 -71.35 -52.65 Q-72.75 -52.9 -72.75 -55.4 M-38.15 46.9 Q-37.55 46.3 -36.75 46.3 -35.1 46.25 -33.2 47.6 L-33.25 47.6 -30.35 49.35 Q-24.0 52.0 -7.75 52.05 -6.9 52.05 -6.3 52.65 -5.75 53.25 -5.75 54.05 -5.75 54.9 -6.3 55.5 -6.45 55.9 -8.7 56.35 L-8.75 56.4 -9.05 56.2 Q-9.65 56.7 -10.4 56.75 L-13.2 56.9 -15.45 57.0 -16.55 57.25 -26.1 56.6 -25.75 56.8 Q-32.45 56.0 -38.2 49.65 -38.75 49.05 -38.75 48.25 -38.75 47.45 -38.15 46.9 M-38.6 45.85 L-38.75 46.1 -38.8 46.15 -40.1 47.3 -41.6 47.4 Q-43.7 46.7 -43.8 45.25 -43.95 44.65 -43.7 44.05 L-42.95 43.15 -39.55 43.0 Q-39.0 43.2 -38.7 43.7 -38.35 44.2 -38.35 44.75 -38.35 45.35 -38.6 45.85 M-3.8 40.9 Q-2.6 41.1 -1.9 41.6 L-1.2 42.35 -1.05 42.65 Q-0.7 43.35 -0.9 44.1 -1.15 44.85 -1.8 45.25 L-2.95 45.95 -4.3 46.25 Q-6.35 45.9 -6.95 45.35 L-7.55 44.65 -7.75 43.75 Q-7.95 42.9 -6.75 41.7 L-6.65 41.6 -6.6 41.55 -6.4 41.35 Q-5.85 40.75 -5.0 40.75 L-3.8 40.9 M-72.75 9.8 Q-71.95 9.8 -71.35 10.35 -69.85 11.75 -69.8 12.45 -69.65 13.05 -69.85 13.65 -70.55 15.7 -72.6 15.8 L-73.45 15.7 -74.2 15.2 -75.2 14.15 Q-75.75 13.55 -75.75 12.75 -75.95 11.7 -74.65 10.6 L-74.55 10.5 Q-73.4 9.65 -72.75 9.8 M-60.75 38.65 L-60.4 38.75 -60.35 38.75 Q-58.15 39.45 -58.3 40.6 L-58.3 41.6 -58.8 42.5 -59.05 42.75 Q-59.4 43.05 -59.8 43.2 L-60.7 43.3 Q-68.35 42.55 -71.75 40.25 L-71.75 40.2 Q-74.75 38.2 -77.55 37.75 -81.55 37.1 -83.5 33.4 -84.8 31.0 -84.75 28.8 L-85.7 25.7 Q-86.9 21.85 -86.85 20.55 L-87.05 16.5 -87.25 12.8 Q-87.25 11.95 -86.65 11.4 -86.1 10.8 -85.25 10.8 L-84.85 10.8 Q-84.3 10.8 -83.8 11.1 -83.35 11.35 -83.1 11.85 -81.95 13.9 -81.75 17.45 L-81.75 17.5 -81.4 21.95 -81.4 22.05 Q-80.15 26.55 -71.75 28.6 L-70.8 29.2 Q-70.4 29.6 -70.3 30.15 -69.65 33.0 -66.8 34.95 -62.8 37.15 -60.75 38.65 M-44.75 43.0 L-44.4 43.75 Q-44.15 44.35 -44.3 45.0 -44.45 45.6 -44.95 46.05 -45.45 46.45 -46.1 46.5 -47.15 46.7 -49.45 45.55 L-50.3 44.8 -50.6 43.7 -50.25 42.65 Q-49.25 41.15 -48.65 41.2 L-48.2 41.1 -46.9 41.0 -45.85 41.25 -45.05 41.95 Q-44.75 42.45 -44.75 43.0 M-72.15 85.25 Q-71.6 85.3 -71.1 85.65 L-70.45 86.55 -70.25 87.0 -70.1 87.25 Q-69.75 88.0 -69.75 89.25 -69.75 90.25 -70.0 90.95 -68.25 91.6 -68.25 93.35 L-68.35 94.65 Q-68.75 95.8 -70.0 96.25 L-71.5 96.25 -71.8 96.2 -71.95 96.6 -71.45 96.95 -72.0 96.8 -72.05 96.85 -72.05 96.95 -72.1 97.1 -72.4 98.1 Q-72.6 98.7 -73.1 99.15 -73.65 99.55 -74.35 99.55 L-74.75 99.55 -75.9 99.2 Q-76.45 98.8 -76.65 98.2 -77.0 97.15 -77.0 95.85 L-76.75 94.35 -78.1 93.0 -78.6 91.6 Q-78.6 88.7 -75.7 89.2 L-75.6 89.25 -75.6 89.15 -75.2 87.95 Q-74.3 85.8 -73.25 85.45 L-72.15 85.25" fill="#d7fffb" fill-opacity="0.5019608" fill-rule="evenodd" stroke="none"/>
    <path d="M53.8 -65.75 L53.65 -66.1 53.65 -65.9 53.8 -65.75 M52.55 -66.4 Q51.2 -69.2 48.95 -70.6 44.75 -73.35 34.05 -75.0 L13.5 -75.1 11.4 -75.25 9.25 -75.6 Q0.35 -77.05 -4.0 -78.25 -6.75 -79.0 -13.0 -81.0 L-15.15 -81.15 -17.5 -81.5 -24.1 -81.35 -26.8 -80.95 -30.95 -81.35 Q-36.05 -80.85 -44.0 -77.25 -51.4 -73.95 -57.05 -69.95 L-60.45 -67.3 -60.5 -67.5 Q-59.85 -69.25 -54.6 -72.7 L-46.35 -77.75 Q-41.0 -81.1 -38.0 -81.85 L-31.75 -83.3 Q-28.1 -84.25 -26.5 -85.35 L-11.85 -85.25 Q-7.85 -82.25 -2.65 -80.05 6.95 -76.0 17.75 -76.0 28.65 -76.0 31.45 -77.35 33.0 -78.1 33.15 -79.75 L31.05 -81.6 Q46.25 -79.3 50.85 -73.1 52.15 -71.3 53.4 -67.85 L54.6 -64.85 55.65 -63.75 55.4 -63.35 55.65 -63.0 55.15 -62.85 54.9 -63.35 Q54.15 -63.65 53.35 -64.5 L52.4 -65.85 52.55 -66.4 M57.65 -56.5 L58.55 -56.75 Q60.5 -53.6 61.7 -48.5 62.8 -43.9 62.8 -40.05 L62.75 -39.05 62.55 -38.75 61.9 -39.15 Q61.55 -39.55 61.55 -39.85 59.3 -37.45 58.35 -31.65 57.25 -25.35 55.4 -22.75 55.05 -23.75 55.05 -26.15 L55.0 -31.9 Q55.2 -35.4 56.65 -37.0 59.1 -39.7 59.75 -42.4 60.15 -43.95 60.15 -47.65 L60.05 -51.55 Q59.7 -52.95 57.65 -56.5 M15.6 -94.7 Q15.3 -94.95 15.3 -95.35 L16.55 -95.1 15.9 -94.5 15.6 -94.7 M39.8 -30.5 L41.05 -30.6 40.9 -29.1 40.05 -29.0 Q39.8 -29.35 39.8 -30.5 M63.05 -46.85 L62.85 -47.15 62.65 -48.0 Q63.7 -48.0 64.15 -47.35 63.9 -47.0 63.05 -46.85 M52.4 -16.0 Q51.45 -16.4 51.3 -17.0 L51.85 -17.45 52.65 -17.35 53.05 -16.6 52.4 -16.0 M53.55 -8.35 L53.15 -8.0 52.05 -8.0 51.95 -7.9 Q51.8 -7.95 51.8 -8.75 51.8 -9.55 52.25 -9.75 L53.15 -9.85 Q53.55 -9.3 53.55 -8.35 M46.15 5.15 L46.4 6.1 46.3 8.0 46.8 8.9 46.9 8.75 Q47.8 10.9 47.8 14.65 47.8 18.75 45.4 24.5 45.1 25.25 42.55 26.35 39.45 27.7 38.65 28.3 34.45 31.55 33.4 32.8 28.8 38.5 20.75 44.35 12.3 50.5 8.5 50.5 L6.15 50.35 4.5 50.0 4.75 49.55 Q9.8 48.05 15.65 44.8 L15.8 44.7 Q19.85 44.0 26.05 39.25 34.05 33.1 34.05 29.5 L33.95 28.65 33.85 28.5 35.05 27.3 Q40.7 22.6 43.45 17.15 L42.7 19.3 44.3 15.1 Q45.45 11.25 45.35 7.65 L45.2 7.15 Q45.05 6.5 45.05 4.5 45.05 3.65 45.4 2.8 45.7 2.0 46.05 1.8 45.8 3.35 45.7 4.95 L46.15 5.15 M3.95 42.05 L3.55 42.55 2.75 42.55 Q3.45 41.8 4.05 41.8 L3.95 42.05 M13.05 47.25 L12.5 47.45 Q11.85 47.7 11.5 48.0 L10.8 48.3 Q12.95 47.6 13.3 47.05 L13.05 47.25 M-95.1 -14.8 Q-94.85 -14.6 -94.85 -13.8 L-94.9 -12.85 -95.0 -12.85 -96.0 -12.35 -96.85 -12.65 -97.1 -13.75 Q-97.1 -14.65 -95.75 -15.1 L-95.1 -14.8 M-87.0 -11.75 Q-86.55 -11.65 -86.15 -11.2 L-85.75 -10.5 Q-79.95 -20.7 -77.95 -24.95 -74.8 -31.75 -74.75 -38.75 L-74.85 -39.6 -75.15 -39.9 -75.75 -40.1 -74.85 -40.0 Q-74.75 -40.8 -73.85 -42.9 L-72.75 -45.5 Q-71.35 -50.05 -70.35 -50.1 L-71.7 -46.25 -71.35 -46.6 Q-74.1 -38.35 -74.1 -36.5 L-73.6 -32.8 -73.1 -29.15 Q-73.1 -28.3 -75.55 -25.2 -78.5 -21.45 -79.25 -20.0 L-81.1 -15.95 Q-82.45 -13.15 -83.85 -11.35 -86.5 -7.9 -86.95 -2.65 L-87.25 5.8 -87.5 6.05 Q-89.25 3.15 -89.6 1.65 L-89.75 -2.15 Q-89.75 -5.65 -89.55 -6.2 L-87.0 -11.75 M-64.35 -59.5 L-64.6 -60.85 -63.35 -60.6 Q-63.35 -59.85 -63.75 -59.5 L-64.35 -59.5 M-70.0 -56.25 L-68.85 -56.1 -68.75 -55.0 -68.95 -54.75 -69.5 -54.35 -70.45 -54.45 Q-70.75 -54.6 -70.75 -55.4 -70.75 -56.15 -70.35 -56.25 L-70.0 -56.25 M-40.5 45.05 L-41.0 45.5 Q-41.75 45.25 -41.85 44.8 -41.25 44.4 -40.35 44.8 L-40.5 45.05 M-34.4 49.2 L-31.15 51.15 Q-24.6 54.0 -7.75 54.05 L-9.1 54.4 -10.5 54.75 -13.35 54.9 -16.5 55.25 -25.5 54.8 Q-31.55 54.05 -36.75 48.3 -35.65 48.3 -34.4 49.2 M-2.85 43.55 L-4.0 44.25 -5.75 43.75 -5.35 43.1 -5.0 42.75 -4.3 42.85 -3.0 43.25 -2.85 43.55 M-71.75 13.0 Q-72.0 13.75 -72.75 13.8 L-73.75 12.75 Q-73.75 12.45 -73.35 12.1 L-72.75 11.8 -71.75 13.0 M-60.95 40.65 Q-60.3 40.85 -60.25 41.05 L-60.5 41.3 Q-67.5 40.6 -70.65 38.55 -74.05 36.25 -77.25 35.75 -80.25 35.25 -81.75 32.45 -82.75 30.55 -82.75 28.8 L-83.8 25.1 Q-84.85 21.7 -84.85 20.55 L-85.05 16.35 -85.25 12.8 -84.85 12.8 Q-83.9 14.55 -83.75 17.55 L-83.35 22.45 Q-82.1 28.1 -72.25 30.55 -71.5 34.15 -67.95 36.6 -63.55 39.0 -61.6 40.5 L-60.95 40.65 M-46.25 44.5 L-48.6 43.75 -48.05 43.1 -46.75 43.0 -46.25 44.5 M-19.95 54.45 L-21.0 54.5 -22.5 54.45 -20.75 54.55 -17.45 54.5 -19.95 54.45 M-28.5 53.55 L-29.0 53.55 -28.35 53.7 -28.5 53.55 M-84.0 22.5 L-83.75 22.5 Q-83.75 21.0 -84.1 21.0 L-84.0 22.5" fill="#ffffff" fill-rule="evenodd" stroke="none"/>
    <path d="M59.55 -117.0 L59.25 -117.35 Q59.35 -117.9 59.85 -118.05 L61.05 -118.1 Q61.0 -117.8 60.55 -117.4 60.05 -117.0 59.55 -117.0 M67.95 -120.1 Q68.7 -120.6 69.25 -120.6 L69.75 -119.85 69.05 -118.35 Q69.5 -118.1 68.25 -118.1 L67.3 -118.2 67.3 -118.25 67.2 -118.15 Q67.05 -118.1 67.05 -118.9 67.05 -119.5 67.95 -120.1 M64.0 -122.1 L63.5 -122.35 63.3 -122.9 Q63.85 -123.75 64.25 -123.85 64.5 -123.95 65.0 -123.5 L64.0 -122.1 M65.6 -115.55 L65.75 -114.55 65.75 -113.75 65.55 -113.6 65.0 -113.35 64.35 -113.55 64.25 -114.55 Q64.25 -115.4 64.5 -115.65 L65.25 -115.85 65.6 -115.55 M89.25 -49.6 L89.1 -48.7 88.75 -48.5 88.05 -48.5 87.8 -48.6 87.75 -49.4 87.95 -50.35 89.05 -51.1 Q89.25 -50.85 89.25 -49.6 M93.15 -45.5 L93.65 -45.1 Q93.45 -44.45 92.4 -44.25 L90.55 -44.35 90.4 -44.15 Q90.25 -44.1 90.25 -44.9 90.25 -45.65 90.65 -45.75 L91.0 -45.75 91.8 -45.7 93.15 -45.5 M85.5 -46.0 Q85.3 -45.7 84.75 -45.7 84.2 -45.7 84.0 -46.0 L84.05 -46.35 Q85.25 -46.35 85.5 -46.0 M89.05 -40.6 L88.5 -40.0 87.9 -40.2 87.8 -41.15 Q87.8 -42.4 88.05 -42.85 L88.75 -42.85 89.05 -40.6 M113.15 5.5 L113.5 6.05 113.65 6.55 Q113.3 7.55 112.4 8.0 L111.8 7.75 111.65 7.1 112.3 6.15 Q112.55 5.7 113.15 5.5 M116.4 7.8 L116.8 8.0 Q117.25 8.2 117.4 8.5 L115.9 9.5 115.6 9.65 Q115.3 9.65 115.3 8.85 115.3 8.05 115.65 7.95 L116.4 7.8 M112.65 11.5 L113.05 11.8 113.05 12.9 113.0 14.65 Q112.75 15.75 111.65 16.05 L111.45 15.7 Q111.3 15.35 111.3 14.6 L111.55 13.05 111.8 11.55 112.65 11.5 M109.6 10.25 L108.65 10.0 Q108.95 9.65 109.3 9.65 L110.4 10.0 109.6 10.25 M-85.75 -99.75 L-84.45 -98.95 -82.6 -97.5 -82.75 -97.25 -82.6 -97.15 -83.35 -97.1 Q-84.35 -97.1 -84.85 -97.85 L-85.85 -99.35 -85.75 -99.75 M-83.8 -95.8 L-82.75 -96.1 -82.25 -95.35 -83.0 -94.75 -83.45 -94.85 Q-84.0 -95.0 -84.25 -95.25 L-83.8 -95.8 M-83.0 -92.75 L-81.75 -92.85 -81.5 -92.5 Q-81.95 -91.8 -82.75 -91.6 L-83.0 -92.75 M-148.35 -17.75 L-146.85 -15.9 -145.75 -14.0 Q-147.45 -14.95 -149.0 -17.25 L-148.35 -17.75 M-142.35 -15.25 L-141.75 -14.5 Q-141.75 -13.85 -142.25 -13.35 L-142.85 -13.35 -143.05 -13.25 Q-143.25 -13.3 -143.25 -14.1 L-142.95 -15.15 -142.35 -15.25 M-143.35 -8.1 Q-143.6 -7.5 -144.0 -7.35 L-144.45 -7.45 -145.1 -7.85 -145.1 -8.5 -143.35 -8.1 M-139.0 -5.5 L-139.5 -4.85 -141.2 -6.35 Q-141.95 -7.3 -141.6 -8.35 -140.45 -8.25 -140.0 -7.45 L-139.0 -5.5 M-80.0 -98.85 Q-79.55 -98.7 -79.3 -98.25 L-79.1 -97.65 -79.35 -96.85 -80.0 -96.6 -80.65 -96.8 Q-80.85 -97.0 -80.85 -97.8 L-80.6 -98.75 -80.0 -98.85 M-79.35 -94.1 Q-77.5 -93.55 -76.5 -92.0 L-76.75 -91.6 Q-78.35 -91.65 -79.5 -93.5 L-79.35 -94.1 M-71.95 88.05 L-71.75 89.25 Q-71.75 90.05 -72.05 90.45 L-72.75 91.3 -73.6 91.3 -73.75 90.15 -73.35 88.7 Q-72.85 87.5 -72.35 87.25 L-71.95 88.05 M-75.15 92.2 L-75.5 92.5 -77.35 90.8 Q-76.45 90.85 -75.8 91.3 L-75.1 92.05 -75.15 92.2 M-72.5 94.05 Q-72.5 93.8 -72.05 93.75 -71.5 93.7 -71.0 94.0 L-70.8 93.8 Q-70.6 93.7 -70.6 94.5 -70.6 95.75 -71.0 95.0 -72.1 94.75 -72.5 94.05 M-73.75 94.55 L-73.5 95.1 -74.0 96.4 -74.35 97.55 -74.75 97.55 -75.0 95.85 Q-75.0 95.0 -74.6 94.75 L-73.75 94.55" fill="#d7fffb" fill-rule="evenodd" stroke="none"/>
  </g>
</svg>
