<?xml version="1.0" encoding="UTF-8" standalone="no"?>
<svg xmlns:ffdec="https://www.free-decompiler.com/flash" xmlns:xlink="http://www.w3.org/1999/xlink" ffdec:objectType="shape" height="74.75px" width="67.6px" xmlns="http://www.w3.org/2000/svg">
  <g transform="matrix(1.0, 0.0, 0.0, 1.0, 34.3, 45.05)">
    <path d="M33.3 -41.5 L33.3 -39.75 Q29.95 -35.2 27.7 -28.6 L23.9 -20.05 23.0 -18.3 Q19.6 -11.6 14.4 -6.85 L15.05 -8.7 15.05 -9.05 16.7 -11.95 19.2 -17.3 Q23.7 -26.65 23.7 -28.5 L23.7 -28.55 23.8 -28.75 25.25 -31.0 27.65 -34.0 33.3 -41.5" fill="#201717" fill-rule="evenodd" stroke="none"/>
    <path d="M33.3 -39.75 L33.3 -37.75 32.35 -36.1 29.9 -31.65 27.7 -26.4 Q25.45 -21.6 24.7 -19.25 24.25 -17.8 22.85 -15.6 L20.85 -12.85 20.8 -12.8 Q20.0 -11.95 19.75 -11.25 L19.15 -10.65 Q14.8 -5.2 13.55 -5.15 L13.35 -5.15 13.15 -4.8 13.1 -4.7 Q11.75 -2.65 10.9 -1.95 L10.85 -1.9 Q9.3 -0.65 8.0 1.6 L6.1 4.9 6.95 5.4 8.85 5.6 Q11.2 5.4 13.95 3.05 L16.7 0.0 18.2 -1.9 19.3 -3.2 Q19.7 -3.55 20.05 -4.85 L20.75 -6.25 Q21.0 -6.55 22.15 -6.9 L23.15 -7.35 25.5 -8.1 Q27.3 -8.35 27.9 -9.3 L28.3 -10.05 Q29.35 -11.6 30.45 -15.35 L30.75 -16.4 31.35 -16.4 31.4 -16.4 31.55 -16.35 32.1 -16.35 32.15 -16.3 33.3 -16.05 33.3 -13.65 32.45 -13.85 31.75 -14.05 31.55 -13.45 Q29.05 -6.05 26.15 -6.05 L25.3 -5.8 23.7 -5.75 23.6 -6.05 23.8 -6.25 22.05 -5.45 21.35 -4.85 19.5 -1.9 Q17.5 1.05 15.35 3.35 11.95 6.85 9.95 6.95 6.95 7.1 5.5 6.35 4.6 5.9 4.65 5.35 4.65 4.75 6.7 1.55 L9.1 -1.9 9.25 -2.1 11.25 -4.25 12.55 -5.45 12.85 -6.75 12.8 -6.75 12.9 -6.95 13.05 -7.55 13.8 -9.8 13.85 -9.8 15.55 -15.05 17.55 -20.25 20.15 -26.35 21.25 -28.2 Q21.5 -30.05 27.45 -37.8 L33.3 -45.05 33.3 -41.5 27.65 -34.0 25.25 -31.0 23.8 -28.75 23.7 -28.55 23.7 -28.5 Q23.7 -26.65 19.2 -17.3 L16.7 -11.95 15.05 -9.05 15.05 -8.7 14.4 -6.85 Q19.6 -11.6 23.0 -18.3 L23.9 -20.05 27.7 -28.6 Q29.95 -35.2 33.3 -39.75 M33.3 -31.8 L33.3 -30.4 31.95 -28.3 31.55 -27.75 Q29.5 -24.9 27.35 -22.9 L30.75 -27.9 31.55 -29.1 33.3 -31.8 M33.3 -27.65 L33.3 -26.2 31.55 -23.4 30.9 -22.6 Q29.05 -20.25 26.25 -18.55 27.8 -16.35 27.7 -15.85 27.7 -14.85 26.5 -13.95 L23.6 -12.25 Q23.4 -12.0 22.55 -11.85 L22.2 -11.8 Q21.3 -11.55 21.05 -11.0 L20.35 -9.15 Q19.75 -7.25 18.5 -5.6 16.8 -3.3 14.75 -2.5 L14.95 -2.7 15.35 -3.35 16.3 -4.25 Q18.4 -6.15 18.8 -7.35 L21.15 -11.9 Q21.55 -11.9 22.55 -12.35 L24.45 -13.4 Q27.1 -14.85 27.15 -15.5 27.2 -16.05 26.55 -16.75 26.05 -17.35 25.5 -17.4 L24.85 -18.3 27.55 -20.25 Q29.85 -22.35 31.55 -24.7 L32.35 -25.95 33.3 -27.65" fill="#111111" fill-rule="evenodd" stroke="none"/>
    <path d="M33.3 -37.75 L33.3 -31.8 31.55 -29.1 30.75 -27.9 27.35 -22.9 Q29.5 -24.9 31.55 -27.75 L31.95 -28.3 33.3 -30.4 33.3 -27.65 32.35 -25.95 31.55 -24.7 Q29.85 -22.35 27.55 -20.25 L24.85 -18.3 25.5 -17.4 Q26.05 -17.35 26.55 -16.75 27.2 -16.05 27.15 -15.5 27.1 -14.85 24.45 -13.4 L22.55 -12.35 Q21.55 -11.9 21.15 -11.9 L18.8 -7.35 Q18.4 -6.15 16.3 -4.25 L15.35 -3.35 14.95 -2.7 14.75 -2.5 Q16.8 -3.3 18.5 -5.6 19.75 -7.25 20.35 -9.15 L21.05 -11.0 Q21.3 -11.55 22.2 -11.8 L22.55 -11.85 Q23.4 -12.0 23.6 -12.25 L26.5 -13.95 Q27.7 -14.85 27.7 -15.85 27.8 -16.35 26.25 -18.55 29.05 -20.25 30.9 -22.6 L31.55 -23.4 33.3 -26.2 33.3 -16.05 32.15 -16.3 32.1 -16.35 31.55 -16.35 31.4 -16.4 31.35 -16.4 30.75 -16.4 30.45 -15.35 Q29.35 -11.6 28.3 -10.05 L27.9 -9.3 Q27.3 -8.35 25.5 -8.1 L23.15 -7.35 22.15 -6.9 Q21.0 -6.55 20.75 -6.25 L20.05 -4.85 Q19.7 -3.55 19.3 -3.2 L18.2 -1.9 16.7 0.0 13.95 3.05 Q11.2 5.4 8.85 5.6 L6.95 5.4 6.1 4.9 8.0 1.6 Q9.3 -0.65 10.85 -1.9 L10.9 -1.95 Q11.75 -2.65 13.1 -4.7 L13.15 -4.8 13.35 -5.15 13.55 -5.15 Q14.8 -5.2 19.15 -10.65 L19.75 -11.25 Q20.0 -11.95 20.8 -12.8 L20.85 -12.85 22.85 -15.6 Q24.25 -17.8 24.7 -19.25 25.45 -21.6 27.7 -26.4 L29.9 -31.65 32.35 -36.1 33.3 -37.75 M11.9 -2.7 L11.5 -2.45 11.55 -2.4 11.9 -2.7" fill="#585141" fill-rule="evenodd" stroke="none"/>
    <path d="M11.9 -2.7 L11.55 -2.4 11.5 -2.45 11.9 -2.7" fill="#000000" fill-rule="evenodd" stroke="none"/>
    <path d="M-34.3 20.95 L-34.3 18.9 -31.65 17.75 Q-28.25 16.2 -24.2 13.35 L-18.15 9.05 -18.1 9.15 -17.7 8.35 -16.95 7.4 -15.8 5.25 -15.75 5.2 -15.75 5.35 -15.65 5.15 Q-13.95 2.5 -10.55 0.55 -6.75 -1.65 -2.15 1.8 L-0.95 2.85 -0.45 4.2 0.6 7.4 0.9 8.55 1.25 10.75 1.75 12.8 1.7 13.8 2.85 19.05 3.75 21.2 Q4.35 22.95 5.1 24.15 L5.75 25.7 6.8 28.8 6.7 29.3 Q6.45 29.7 5.55 29.7 4.55 29.7 2.7 28.9 L0.6 27.95 -1.45 27.1 Q-1.65 26.95 -1.65 26.4 L-1.8 25.1 -1.8 25.4 -1.85 26.45 Q-2.0 27.0 -2.7 27.45 L-3.0 27.75 -3.05 27.75 -3.3 28.05 -3.85 28.3 -3.9 28.35 -4.05 28.35 -4.2 28.35 Q-8.4 26.15 -9.75 25.95 L-15.65 25.55 -16.0 26.0 Q-16.85 27.0 -17.45 27.25 -17.65 27.75 -18.65 27.75 -20.3 27.75 -20.6 26.4 L-20.7 26.3 -21.95 27.6 Q-23.2 28.65 -24.25 28.65 -25.75 28.65 -26.4 27.75 L-26.75 26.75 -26.6 26.15 Q-28.75 27.75 -30.3 28.2 L-34.3 29.35 -34.3 27.3 Q-28.75 25.8 -27.2 24.7 L-25.75 23.3 -23.65 21.25 -22.45 19.95 Q-19.7 17.05 -19.0 16.75 L-18.9 17.1 Q-18.9 18.0 -23.0 23.3 L-24.55 25.3 -25.2 26.4 Q-23.65 26.4 -21.85 24.55 L-20.8 23.3 -19.85 22.2 -19.75 22.35 Q-17.75 15.85 -16.65 15.85 -16.35 15.85 -16.25 16.15 L-16.2 16.45 Q-16.2 16.85 -17.95 20.15 L-18.2 20.65 -18.1 20.7 -18.5 21.9 -18.6 22.15 -18.6 22.2 -19.0 23.95 -19.15 24.4 -19.15 24.5 -19.3 25.45 -18.95 25.35 Q-18.15 24.95 -16.9 23.3 L-15.0 20.5 -12.1 15.55 Q-11.45 15.55 -11.45 16.05 -11.45 16.7 -12.95 19.55 L-14.6 22.7 -14.6 23.35 -14.1 23.3 -13.1 23.2 -12.9 23.2 -11.9 23.25 -11.6 23.3 -11.3 23.3 Q-8.9 23.55 -4.85 24.55 L-4.05 24.75 -3.6 23.35 -3.3 22.6 -3.0 22.05 -2.85 21.7 -2.9 21.3 -2.9 21.05 -2.85 20.05 -2.35 11.9 -2.3 11.9 -2.05 15.85 -1.95 18.05 -1.5 20.1 -1.35 20.95 Q-1.05 21.15 -1.2 21.65 L-0.9 23.3 -0.45 25.65 1.7 26.2 2.5 26.45 3.3 26.85 4.7 27.5 3.1 24.85 2.3 23.3 2.0 22.85 2.0 22.65 1.4 21.15 Q0.55 18.7 0.4 15.3 L0.35 9.45 -0.1 7.4 -0.45 6.35 -1.1 3.9 Q-3.5 1.0 -6.2 1.0 -10.05 1.0 -12.55 3.0 -13.75 4.0 -14.4 5.2 L-15.7 7.2 -15.75 7.4 Q-16.15 8.55 -17.3 10.15 L-17.45 10.25 Q-19.15 13.4 -28.55 18.2 L-34.3 20.95 M-34.3 27.1 L-34.3 25.75 -30.7 23.3 -30.35 23.05 -17.45 13.2 Q-21.55 17.55 -29.05 23.3 L-29.85 23.9 -34.3 27.1 M-34.3 24.05 L-34.3 21.8 -33.85 21.65 -33.7 21.6 -30.35 20.35 -28.75 19.45 -28.7 19.55 -28.7 19.6 -26.35 18.1 -28.7 20.15 -29.55 20.85 -32.9 23.3 -34.3 24.05" fill="#111111" fill-rule="evenodd" stroke="none"/>
    <path d="M-34.3 20.95 L-28.55 18.2 Q-19.15 13.4 -17.45 10.25 L-17.3 10.15 Q-16.15 8.55 -15.75 7.4 L-15.7 7.2 -14.4 5.2 Q-13.75 4.0 -12.55 3.0 -10.05 1.0 -6.2 1.0 -3.5 1.0 -1.1 3.9 L-0.45 6.35 -0.1 7.4 0.35 9.45 0.4 15.3 Q0.55 18.7 1.4 21.15 L2.0 22.65 2.0 22.85 2.3 23.3 3.1 24.85 4.7 27.5 3.3 26.85 2.5 26.45 1.7 26.2 -0.45 25.65 -0.9 23.3 -1.2 21.65 Q-1.05 21.15 -1.35 20.95 L-1.5 20.1 -1.95 18.05 -2.05 15.85 -2.3 11.9 -2.35 11.9 -2.85 20.05 -2.9 21.05 -2.9 21.3 -2.85 21.7 -3.0 22.05 -3.3 22.6 -3.6 23.35 -4.05 24.75 -4.85 24.55 Q-8.9 23.55 -11.3 23.3 L-11.6 23.3 -11.9 23.25 -12.9 23.2 -13.1 23.2 -14.1 23.3 -14.6 23.35 -14.6 22.7 -12.95 19.55 Q-11.45 16.7 -11.45 16.05 -11.45 15.55 -12.1 15.55 L-15.0 20.5 -16.9 23.3 Q-18.15 24.95 -18.95 25.35 L-19.3 25.45 -19.15 24.5 -19.15 24.4 -19.0 23.95 -18.6 22.2 -18.6 22.15 -18.5 21.9 -18.1 20.7 -18.2 20.65 -17.95 20.15 Q-16.2 16.85 -16.2 16.45 L-16.25 16.15 Q-16.35 15.85 -16.65 15.85 -17.75 15.85 -19.75 22.35 L-19.85 22.2 -20.8 23.3 -21.85 24.55 Q-23.65 26.4 -25.2 26.4 L-24.55 25.3 -23.0 23.3 Q-18.9 18.0 -18.9 17.1 L-19.0 16.75 Q-19.7 17.05 -22.45 19.95 L-23.65 21.25 -25.75 23.3 -27.2 24.7 Q-28.75 25.8 -34.3 27.3 L-34.3 27.1 -29.85 23.9 -29.05 23.3 Q-21.55 17.55 -17.45 13.2 L-30.35 23.05 -30.7 23.3 -34.3 25.75 -34.3 24.05 -32.9 23.3 -29.55 20.85 -28.7 20.15 -26.35 18.1 -28.7 19.6 -28.7 19.55 -28.75 19.45 -30.35 20.35 -33.7 21.6 -33.85 21.65 -34.3 21.8 -34.3 20.95" fill="#585141" fill-rule="evenodd" stroke="none"/>
  </g>
</svg>
