<?xml version="1.0" encoding="UTF-8" standalone="no"?>
<svg xmlns:ffdec="https://www.free-decompiler.com/flash" xmlns:xlink="http://www.w3.org/1999/xlink" ffdec:objectType="shape" height="668.8px" width="1154.9px" xmlns="http://www.w3.org/2000/svg">
  <g transform="matrix(1.0, 0.0, 0.0, 1.0, -4.4, -46.2)">
    <path d="M1054.2 233.8 L1053.85 233.8 Q1051.4 249.65 1033.45 250.0 L770.0 250.0 Q752.05 249.65 749.65 233.8 L749.25 233.8 749.25 227.75 749.9 227.75 Q752.9 213.3 770.0 213.0 L1033.45 213.0 Q1050.55 213.3 1053.6 227.75 L1054.2 227.75 1054.2 233.8 M1051.2 230.2 L1050.95 230.2 Q1048.9 216.0 1032.7 216.0 L770.75 216.0 Q754.55 216.0 752.55 230.2 L752.35 230.2 Q753.1 247.0 770.75 247.0 L1032.7 247.0 Q1050.35 247.0 1051.2 230.2 M976.9 333.85 Q976.9 326.8 979.2 322.1 983.6 313.0 996.45 312.4 L996.45 312.35 1049.35 312.35 Q1070.85 312.35 1070.85 333.85 L1070.85 402.85 1070.55 407.65 1069.65 411.85 Q1065.75 424.35 1049.35 424.35 L996.45 424.35 996.45 424.3 Q981.75 423.6 978.1 411.85 976.9 407.95 976.9 402.85 L976.9 333.85 M750.4 474.35 Q731.9 474.35 731.9 492.85 L731.9 511.85 Q731.9 514.25 732.2 516.3 734.3 530.35 750.4 530.35 L1051.35 530.35 Q1067.45 530.35 1069.55 516.3 L1069.85 511.85 1069.85 492.85 Q1069.85 474.35 1051.35 474.35 L750.4 474.35 M997.45 315.35 Q979.9 315.85 979.9 333.85 L979.9 402.85 979.95 404.25 Q980.0 405.85 980.2 407.3 982.25 420.9 997.45 421.35 L1049.35 421.35 Q1061.3 421.35 1065.55 413.65 1067.0 410.95 1067.55 407.3 L1067.85 402.85 1067.85 333.85 Q1067.85 315.35 1049.35 315.35 L997.45 315.35 M501.0 214.85 L501.0 395.85 Q501.0 417.35 479.5 417.35 L218.55 417.35 Q197.05 417.35 197.05 395.85 L197.05 214.85 Q197.05 194.0 217.25 193.35 L480.85 193.35 Q501.0 194.0 501.0 214.85 M750.4 533.35 Q734.0 533.35 730.1 520.85 728.9 516.95 728.9 511.85 L728.9 492.85 Q728.9 471.35 750.4 471.35 L1051.35 471.35 Q1072.85 471.35 1072.85 492.85 L1072.85 511.85 Q1072.85 516.95 1071.65 520.85 1067.75 533.35 1051.35 533.35 L750.4 533.35 M169.55 531.35 Q151.05 531.35 151.05 549.85 L151.05 628.85 Q151.05 647.35 169.55 647.35 L530.5 647.35 Q549.0 647.35 549.0 628.85 L549.0 549.85 Q549.0 531.35 530.5 531.35 L169.55 531.35 M498.0 395.85 L498.0 214.85 Q498.0 196.35 479.5 196.35 L218.55 196.35 Q200.05 196.35 200.05 214.85 L200.05 395.85 Q200.05 414.35 218.55 414.35 L479.5 414.35 Q498.0 414.35 498.0 395.85 M148.05 549.85 Q148.05 528.35 169.55 528.35 L530.5 528.35 Q552.0 528.35 552.0 549.85 L552.0 628.85 Q552.0 650.35 530.5 650.35 L169.55 650.35 Q148.05 650.35 148.05 628.85 L148.05 549.85" fill="#b28e2d" fill-rule="evenodd" stroke="none"/>
    <path d="M1135.2 46.2 L1135.7 46.7 Q1138.15 49.1 1140.55 50.0 L1139.8 50.0 1139.6 50.0 1139.25 50.0 1139.55 50.4 1143.9 54.95 1143.85 54.95 1147.1 58.45 1148.7 60.25 1156.7 68.1 Q1157.75 67.75 1158.25 69.3 L1158.35 69.75 1158.75 70.15 1158.45 70.2 1158.6 71.7 1158.6 71.75 1158.65 72.3 1157.95 101.95 1157.95 131.95 1157.95 132.15 1157.75 138.95 1157.85 261.2 1157.8 261.2 1157.75 276.4 1157.95 283.4 1158.3 341.55 1157.95 376.05 1157.75 383.05 1157.75 401.7 1158.3 402.2 1158.3 409.35 1157.9 409.65 1157.75 409.75 1157.8 431.85 1158.3 432.65 1157.95 480.55 1157.85 484.95 1157.75 487.55 1157.75 506.2 1157.8 506.25 1158.3 506.7 1158.3 513.85 1157.9 514.15 1157.8 514.25 1157.75 514.25 1157.75 520.5 1157.75 520.85 1157.85 609.8 1157.8 609.8 1157.75 625.0 1157.95 632.0 1157.95 636.0 1158.3 636.05 1158.3 641.75 1157.95 641.85 1158.65 686.25 1158.65 686.4 1158.6 686.85 1158.6 686.9 1158.45 688.55 1159.3 688.75 1159.3 690.25 1157.85 690.4 Q1157.4 691.05 1156.7 690.8 L1150.55 696.45 1150.55 696.4 1147.05 699.65 1145.25 701.25 1135.2 711.45 1135.15 711.7 1135.1 712.05 1134.95 712.45 1134.9 713.45 Q1133.6 713.55 1132.95 715.0 L1130.95 715.0 1130.95 714.5 1130.4 714.55 1102.3 713.85 1071.4 713.85 1062.4 713.65 1042.85 713.7 1042.85 713.75 885.55 713.65 876.8 713.85 876.55 713.85 837.95 713.85 799.75 714.55 799.05 714.5 799.0 714.5 797.05 714.35 796.35 714.25 760.8 713.85 753.8 713.65 735.15 713.65 734.35 714.55 733.9 715.0 728.4 715.0 727.2 713.8 727.1 713.65 631.55 713.75 631.55 713.7 616.35 713.65 609.35 713.85 605.35 713.85 605.25 715.0 599.95 715.0 599.5 713.85 555.1 714.55 554.5 714.5 554.45 714.5 552.8 714.35 552.65 714.35 552.5 714.35 551.0 714.5 550.95 714.5 550.4 714.55 520.75 713.85 490.75 713.85 490.55 713.85 483.75 713.65 361.5 713.75 361.5 713.7 350.2 713.65 349.65 713.65 346.3 713.65 339.3 713.85 315.3 713.85 293.45 714.55 293.05 714.5 293.0 714.5 291.9 714.35 Q291.0 714.15 290.6 713.7 L228.5 713.75 228.5 713.7 213.3 713.65 206.3 713.85 182.3 713.85 160.45 714.55 160.05 714.5 160.0 714.5 158.9 714.35 157.75 713.85 157.6 713.7 96.85 713.75 96.85 713.7 82.2 713.65 75.5 713.85 52.4 713.85 31.35 714.55 31.0 714.5 30.95 714.5 30.65 714.5 Q30.05 713.75 28.95 713.65 L28.0 713.55 28.0 713.3 21.9 706.6 21.95 706.6 18.7 703.1 17.1 701.3 6.9 691.25 6.85 691.25 6.65 691.2 5.9 691.0 5.15 691.0 4.4 690.4 4.8 640.5 5.0 633.5 4.95 618.3 4.9 618.3 5.0 517.6 5.0 513.4 5.0 506.2 5.0 505.0 5.0 496.05 4.9 493.2 4.8 489.25 4.8 489.05 4.4 426.8 Q4.6 425.95 5.0 425.55 L5.0 381.55 4.8 374.75 4.8 374.55 4.45 329.35 4.4 329.15 4.75 281.75 4.4 281.65 4.4 275.95 4.75 275.9 4.75 271.9 4.95 264.9 4.9 249.7 4.85 249.7 4.95 154.15 4.8 154.05 4.4 153.75 4.4 146.6 4.95 146.1 4.95 127.45 4.75 120.45 4.4 68.85 13.1 60.25 14.7 58.45 22.5 50.15 22.5 50.1 22.85 49.65 22.05 49.4 22.0 49.4 Q22.75 48.65 23.15 47.4 L23.25 47.05 917.35 47.05 917.35 46.7 943.4 46.7 943.6 46.7 950.4 46.9 1072.65 46.8 1072.65 46.85 1087.85 46.9 1094.85 46.7 1118.85 46.7 1135.2 46.2 M1054.2 233.8 L1054.2 227.75 1053.6 227.75 Q1050.55 213.3 1033.45 213.0 L770.0 213.0 Q752.9 213.3 749.9 227.75 L749.25 227.75 749.25 233.8 749.65 233.8 Q752.05 249.65 770.0 250.0 L1033.45 250.0 Q1051.4 249.65 1053.85 233.8 L1054.2 233.8 M976.9 333.85 L976.9 402.85 Q976.9 407.95 978.1 411.85 981.75 423.6 996.45 424.3 L996.45 424.35 1049.35 424.35 Q1065.75 424.35 1069.65 411.85 L1070.55 407.65 1070.85 402.85 1070.85 333.85 Q1070.85 312.35 1049.35 312.35 L996.45 312.35 996.45 312.4 Q983.6 313.0 979.2 322.1 976.9 326.8 976.9 333.85 M750.4 533.35 L1051.35 533.35 Q1067.75 533.35 1071.65 520.85 1072.85 516.95 1072.85 511.85 L1072.85 492.85 Q1072.85 471.35 1051.35 471.35 L750.4 471.35 Q728.9 471.35 728.9 492.85 L728.9 511.85 Q728.9 516.95 730.1 520.85 734.0 533.35 750.4 533.35 M501.0 214.85 Q501.0 194.0 480.85 193.35 L217.25 193.35 Q197.05 194.0 197.05 214.85 L197.05 395.85 Q197.05 417.35 218.55 417.35 L479.5 417.35 Q501.0 417.35 501.0 395.85 L501.0 214.85 M148.05 549.85 L148.05 628.85 Q148.05 650.35 169.55 650.35 L530.5 650.35 Q552.0 650.35 552.0 628.85 L552.0 549.85 Q552.0 528.35 530.5 528.35 L169.55 528.35 Q148.05 528.35 148.05 549.85" fill="#252525" fill-opacity="0.7490196" fill-rule="evenodd" stroke="none"/>
  </g>
</svg>
