<?xml version="1.0" encoding="UTF-8" standalone="no"?>
<svg xmlns:ffdec="https://www.free-decompiler.com/flash" xmlns:xlink="http://www.w3.org/1999/xlink" ffdec:objectType="shape" height="47.15px" width="124.2px" xmlns="http://www.w3.org/2000/svg">
  <g transform="matrix(1.0, 0.0, 0.0, 1.0, 12.6, 5.85)">
    <path d="M99.8 -1.65 L-0.8 -1.65 Q-8.4 -1.65 -8.4 6.15 L-8.4 29.25 Q-8.4 37.05 -0.8 37.1 L99.8 37.1 Q107.4 37.05 107.4 29.25 L107.4 6.15 Q107.4 -1.65 99.8 -1.65 M-0.8 -5.85 L99.8 -5.85 Q111.6 -5.85 111.6 6.15 L111.6 29.25 Q111.6 41.35 99.8 41.3 L-0.8 41.3 Q-12.6 41.35 -12.6 29.25 L-12.6 6.15 Q-12.6 -5.85 -0.8 -5.85" fill="#ffce82" fill-opacity="0.18039216" fill-rule="evenodd" stroke="none"/>
  </g>
</svg>
