<?xml version="1.0" encoding="UTF-8" standalone="no"?>
<svg xmlns:ffdec="https://www.free-decompiler.com/flash" xmlns:xlink="http://www.w3.org/1999/xlink" ffdec:objectType="shape" height="71.1px" width="71.1px" xmlns="http://www.w3.org/2000/svg">
  <g transform="matrix(1.0, 0.0, 0.0, 1.0, 35.4, 35.55)">
    <path d="M0.1 -35.55 Q14.5 -35.6 25.1 -25.2 L25.15 -25.15 Q35.65 -15.15 35.7 -0.05 35.7 14.25 25.2 24.9 L25.2 24.95 Q14.55 35.55 0.1 35.55 -14.9 35.5 -25.45 24.95 L-25.6 24.8 Q-35.45 14.2 -35.4 -0.05 -35.4 -15.15 -25.5 -25.1 L-25.45 -25.15 Q-14.85 -35.55 0.1 -35.55 M17.35 -17.05 L17.25 -17.15 Q9.95 -24.3 0.1 -24.3 -10.2 -24.35 -17.5 -17.2 L-17.55 -17.15 Q-24.2 -10.3 -24.15 -0.05 -24.15 9.8 -17.35 17.15 -10.1 24.3 0.1 24.3 9.95 24.25 17.2 17.0 L17.25 17.0 Q24.4 9.7 24.45 -0.05 24.45 -10.3 17.35 -17.05" fill="#ffeed4" fill-opacity="0.7882353" fill-rule="evenodd" stroke="none"/>
  </g>
</svg>
