<?xml version="1.0" encoding="UTF-8" standalone="no"?>
<svg xmlns:ffdec="https://www.free-decompiler.com/flash" xmlns:xlink="http://www.w3.org/1999/xlink" ffdec:objectType="shape" height="44.45px" width="44.45px" xmlns="http://www.w3.org/2000/svg">
  <g transform="matrix(1.0, 0.0, 0.0, 1.0, 22.1, 22.3)">
    <path d="M0.1 -22.3 Q9.05 -22.3 15.75 -15.7 L15.8 -15.65 Q22.35 -9.5 22.35 -0.1 22.35 8.95 15.8 15.55 9.1 22.15 0.1 22.15 -9.3 22.15 -15.9 15.55 L-15.95 15.5 Q-22.1 8.9 -22.1 -0.1 -22.1 -9.55 -15.9 -15.65 -9.3 -22.3 0.1 -22.3 M13.3 -13.05 L13.25 -13.1 Q7.6 -18.7 0.1 -18.7 -7.8 -18.7 -13.35 -13.1 -18.5 -7.95 -18.5 -0.1 -18.5 7.45 -13.35 13.0 L-13.3 13.05 Q-7.75 18.55 0.1 18.55 7.6 18.55 13.25 13.0 18.75 7.45 18.75 -0.1 18.75 -7.95 13.3 -13.05" fill="#ffe0b0" fill-opacity="0.52156866" fill-rule="evenodd" stroke="none"/>
  </g>
</svg>
