<?xml version="1.0" encoding="UTF-8" standalone="no"?>
<svg xmlns:ffdec="https://www.free-decompiler.com/flash" xmlns:xlink="http://www.w3.org/1999/xlink" ffdec:objectType="shape" height="299.0px" width="218.1px" xmlns="http://www.w3.org/2000/svg">
  <g transform="matrix(1.0, 0.0, 0.0, 1.0, 108.8, 190.2)">
    <path d="M86.1 89.5 L86.0 90.75 88.7 90.6 93.7 90.8 Q92.65 91.5 87.45 91.55 L86.6 91.6 91.5 91.6 84.05 92.25 83.6 92.4 83.4 92.3 52.5 92.9 -77.2 93.45 -80.05 92.4 -79.6 91.8 -84.75 92.65 -85.65 92.05 -86.35 91.6 -86.6 88.45 Q-86.6 85.55 -81.65 83.6 L-82.05 83.4 Q-83.0 82.9 -83.2 82.25 -82.55 81.8 -80.95 81.3 L-79.5 80.95 -67.85 81.0 -60.35 80.7 -60.2 80.6 -60.1 81.0 32.8 81.2 34.8 81.5 61.15 81.5 62.8 80.3 62.85 80.3 63.25 79.1 65.6 78.85 65.6 78.9 65.85 78.85 65.7 79.4 Q76.1 79.55 81.95 83.95 86.1 87.0 86.1 89.5 M34.95 83.55 L32.8 83.85 5.45 83.9 -60.3 84.05 -60.5 84.45 -60.9 85.05 Q-69.15 85.25 -71.2 86.8 -73.3 88.45 -81.6 88.7 L-82.15 89.25 -78.35 88.7 Q-77.35 89.05 -76.7 89.55 L-76.25 90.0 -77.15 90.8 -54.15 90.8 31.2 91.2 82.2 91.55 Q80.75 90.55 79.4 89.05 L77.0 86.2 Q74.5 83.65 70.45 84.0 66.8 84.35 63.65 82.5 L61.95 83.6 51.15 83.6 49.2 83.6 40.95 83.3 36.6 83.1 34.95 83.55" fill="#737654" fill-rule="evenodd" stroke="none"/>
    <path d="M5.45 83.9 L32.8 83.85 34.95 83.55 46.0 83.6 51.25 84.2 58.65 85.15 Q59.45 86.2 61.05 87.3 L62.45 88.15 Q52.75 90.0 45.55 90.75 L44.3 90.75 31.2 91.2 -54.15 90.8 -57.05 90.1 -62.4 88.7 Q-59.75 89.25 -57.05 87.25 L-53.0 87.9 Q-46.55 87.9 -45.55 86.6 -45.25 86.2 -45.5 85.65 L-45.8 85.05 Q-45.8 83.65 -29.5 84.2 -8.75 84.95 -2.1 84.35 L5.45 83.9" fill="#898e64" fill-rule="evenodd" stroke="none"/>
    <path d="M34.95 83.55 L36.6 83.1 40.95 83.3 49.2 83.6 51.15 83.6 61.95 83.6 63.65 82.5 Q66.8 84.35 70.45 84.0 74.5 83.65 77.0 86.2 L79.4 89.05 Q80.75 90.55 82.2 91.55 L31.2 91.2 44.3 90.75 45.55 90.75 Q52.75 90.0 62.45 88.15 L61.05 87.3 Q59.45 86.2 58.65 85.15 L51.25 84.2 46.0 83.6 34.95 83.55 M-54.15 90.8 L-77.15 90.8 -76.25 90.0 -76.7 89.55 Q-77.35 89.05 -78.35 88.7 L-82.15 89.25 -81.6 88.7 Q-73.3 88.45 -71.2 86.8 -69.15 85.25 -60.9 85.05 L-60.5 84.45 -60.3 84.05 5.45 83.9 -2.1 84.35 Q-8.75 84.95 -29.5 84.2 -45.8 83.65 -45.8 85.05 L-45.5 85.65 Q-45.25 86.2 -45.55 86.6 -46.55 87.9 -53.0 87.9 L-57.05 87.25 Q-59.75 89.25 -62.4 88.7 L-57.05 90.1 -54.15 90.8" fill="#a3a46c" fill-rule="evenodd" stroke="none"/>
    <path d="M102.25 80.35 L102.85 56.7 Q102.85 49.1 99.25 14.6 L98.15 2.4 Q96.2 -19.0 96.1 -28.05 95.05 -38.75 91.95 -50.5 90.85 -74.75 82.5 -97.65 74.5 -119.55 61.15 -137.25 54.2 -146.45 47.65 -152.4 L42.7 -156.4 40.9 -158.05 Q33.8 -164.05 17.35 -173.85 L15.6 -174.9 8.1 -179.35 5.55 -180.85 5.45 -180.95 4.0 -181.8 Q3.2 -182.25 2.6 -182.65 L2.5 -182.7 2.35 -182.7 1.9 -182.5 1.25 -182.2 0.9 -182.05 0.2 -181.75 -0.9 -181.3 -8.05 -178.3 -13.8 -174.9 Q-31.65 -164.35 -39.1 -158.05 L-40.95 -156.4 Q-49.85 -149.95 -59.4 -137.25 -72.75 -119.55 -80.7 -97.65 -88.25 -77.0 -89.9 -55.15 L-92.05 -42.35 Q-93.8 -30.0 -94.4 -26.95 -96.6 -14.5 -96.7 4.4 L-96.65 7.55 Q-101.1 48.35 -101.1 56.7 L-100.3 87.9 -98.8 88.1 -98.1 88.25 Q-92.4 87.55 -88.35 88.2 -85.3 88.65 -82.15 90.0 L-80.45 90.8 -79.55 90.5 -79.45 90.5 -79.3 90.6 -76.3 89.4 -70.9 87.3 -68.45 86.4 Q-66.05 85.55 -64.65 85.25 -64.3 78.15 -64.3 73.25 -64.3 68.3 -64.8 57.45 L-64.8 53.85 -64.7 51.2 -64.3 49.85 -64.3 40.55 -63.6 27.2 Q-61.6 -8.8 -58.95 -29.45 -56.25 -50.75 -54.75 -59.0 -51.5 -76.1 -46.2 -89.05 -33.55 -120.05 -3.85 -138.65 L-3.9 -138.75 -2.2 -140.2 1.75 -141.15 1.9 -141.2 2.2 -141.3 2.35 -141.15 4.7 -139.9 5.1 -139.75 6.6 -139.2 7.7 -137.35 Q35.8 -118.9 48.0 -89.05 53.35 -76.1 56.5 -59.0 58.05 -50.75 60.8 -29.45 63.45 -8.8 65.4 27.2 L66.05 40.55 66.05 49.85 66.15 50.35 66.15 53.1 66.35 63.85 Q66.05 69.9 66.05 73.25 66.05 77.55 66.4 83.65 L67.2 83.6 69.75 84.35 76.4 86.45 81.25 87.8 85.8 88.8 89.5 89.25 90.1 89.2 Q92.05 88.8 97.0 86.3 L102.2 83.55 102.25 80.35 M-5.85 -183.0 L-5.05 -183.6 -4.25 -184.1 -4.0 -184.3 1.25 -185.35 2.0 -185.5 2.85 -185.75 Q6.4 -183.9 9.95 -182.95 L11.75 -180.55 Q56.55 -156.35 76.05 -117.05 84.5 -100.05 89.65 -77.6 92.1 -66.75 96.45 -38.65 100.3 -14.2 103.2 26.9 L103.8 35.8 104.85 53.35 104.85 65.55 105.05 66.2 105.05 69.8 Q105.05 78.65 105.3 83.9 L105.15 86.85 92.5 90.8 87.55 92.25 81.55 90.5 Q74.7 88.7 68.05 87.6 L66.55 86.9 66.55 87.0 66.6 87.35 64.5 87.0 63.25 86.85 Q64.1 84.4 64.15 82.1 64.2 69.35 64.8 43.1 64.8 37.35 62.55 11.1 L61.85 1.8 Q60.65 -14.45 60.55 -21.35 59.9 -29.45 58.0 -38.4 57.25 -56.85 52.05 -74.25 47.05 -90.95 38.65 -104.4 32.7 -114.1 27.1 -118.95 L25.95 -120.25 Q21.25 -125.05 10.15 -133.05 7.45 -134.95 5.45 -136.4 L4.15 -137.35 3.8 -137.6 3.75 -137.6 2.85 -138.3 1.9 -139.0 1.85 -139.0 1.55 -138.8 0.45 -138.25 -4.7 -135.6 -8.3 -133.05 Q-19.5 -125.05 -24.15 -120.25 L-25.35 -118.95 Q-30.9 -114.1 -36.9 -104.4 -45.25 -90.95 -50.25 -74.25 -54.9 -58.6 -56.0 -41.95 L-57.3 -32.2 -58.8 -20.5 Q-60.15 -11.05 -60.25 3.3 L-60.25 5.75 Q-63.0 36.75 -63.0 43.1 -62.4 69.35 -62.3 82.1 -62.3 83.95 -61.7 85.95 L-64.1 87.0 -75.1 92.6 -82.9 93.95 -88.1 92.75 Q-95.6 91.15 -103.1 90.35 L-103.2 90.35 -103.25 89.4 -103.8 88.95 -103.3 88.6 -104.0 75.55 -104.0 70.8 -103.8 67.3 -103.1 65.55 -103.1 53.35 -102.05 35.8 Q-98.95 -11.6 -94.7 -38.65 -90.35 -66.75 -87.85 -77.6 -82.75 -100.05 -74.25 -117.05 -54.1 -157.8 -6.65 -182.25 L-6.8 -182.4 -5.85 -183.0" fill="#737654" fill-rule="evenodd" stroke="none"/>
    <path d="M1.25 -182.2 L1.9 -182.5 2.35 -182.7 2.5 -182.7 2.6 -182.65 Q3.2 -182.25 4.0 -181.8 L5.45 -180.95 5.55 -180.85 8.1 -179.35 15.6 -174.9 17.35 -173.85 Q33.8 -164.05 40.9 -158.05 L42.7 -156.4 47.65 -152.4 Q54.2 -146.45 61.15 -137.25 74.5 -119.55 82.5 -97.65 90.85 -74.75 91.95 -50.5 95.05 -38.75 96.1 -28.05 96.2 -19.0 98.15 2.4 L99.25 14.6 Q102.85 49.1 102.85 56.7 L102.25 80.35 101.4 67.1 Q101.4 42.85 97.1 2.3 94.8 -19.2 92.4 -36.45 87.15 -30.65 85.25 -29.35 L84.65 -28.9 Q84.0 -28.75 84.0 -30.15 L91.45 -42.75 89.0 -57.95 Q84.7 -82.25 82.9 -89.2 78.5 -106.65 70.7 -120.0 65.8 -128.5 60.55 -135.1 53.65 -143.8 44.6 -151.4 L36.7 -157.8 36.5 -157.45 35.3 -155.4 33.2 -155.3 33.05 -155.85 Q32.8 -156.4 32.8 -157.75 L33.2 -159.2 33.75 -160.0 21.9 -168.15 Q4.35 -179.35 4.35 -172.2 4.35 -171.7 9.3 -168.9 16.55 -164.85 22.05 -160.95 42.95 -146.15 57.15 -122.65 64.65 -110.2 69.65 -98.15 75.4 -84.3 76.45 -73.95 L82.5 -24.8 Q85.95 4.35 87.05 24.3 L87.05 81.85 Q87.35 85.1 90.1 89.2 L89.5 89.25 85.8 88.8 85.75 88.7 85.45 87.75 86.15 87.15 86.15 68.45 Q84.7 55.5 84.15 37.1 83.85 29.9 83.5 5.6 L83.25 0.6 Q82.5 -8.8 79.7 -24.0 L79.55 -24.75 79.25 -26.25 Q75.4 -46.95 75.4 -57.55 75.4 -69.2 70.35 -85.65 64.85 -103.3 55.55 -119.35 38.65 -148.6 17.05 -160.5 11.35 -163.65 5.35 -165.55 L5.2 -166.0 Q4.75 -165.55 4.15 -165.25 L1.8 -165.5 1.8 -165.55 2.0 -170.7 1.25 -182.2 M105.15 86.85 L105.3 83.9 Q105.05 78.65 105.05 69.8 L105.05 66.2 104.85 65.55 104.85 53.35 103.8 35.8 103.2 26.9 Q100.3 -14.2 96.45 -38.65 92.1 -66.75 89.65 -77.6 84.5 -100.05 76.05 -117.05 56.55 -156.35 11.75 -180.55 L9.95 -182.95 Q6.4 -183.9 2.85 -185.75 L2.0 -185.5 1.25 -185.35 -4.0 -184.3 -4.25 -184.1 -5.05 -183.6 -5.85 -183.0 -16.8 -181.55 Q-9.95 -186.25 -5.45 -187.8 -2.2 -194.0 15.1 -184.15 26.9 -177.35 40.45 -166.3 50.15 -159.45 58.85 -150.85 67.35 -142.5 72.3 -135.05 81.05 -121.95 86.55 -103.65 91.95 -82.3 95.0 -71.35 100.65 -51.2 105.5 2.55 L107.6 27.05 Q109.3 48.35 109.3 55.55 L109.05 74.9 Q109.05 78.45 108.15 85.5 L108.15 85.75 105.15 86.85 M-79.45 90.5 Q-78.7 73.85 -79.2 40.55 -80.0 -7.7 -76.75 -36.05 -71.55 -80.65 -55.05 -110.7 -36.25 -144.85 -1.85 -162.85 -0.6 -163.55 0.7 -164.2 L0.8 -164.1 0.8 -164.2 Q2.75 -156.2 1.65 -141.4 L1.65 -141.15 1.75 -141.15 -2.2 -140.2 -3.9 -138.75 -3.85 -138.65 Q-33.55 -120.05 -46.2 -89.05 -51.5 -76.1 -54.75 -59.0 -56.25 -50.75 -58.95 -29.45 -61.6 -8.8 -63.6 27.2 L-64.3 40.55 -64.3 49.85 -64.7 51.2 -64.8 53.85 -64.8 57.45 Q-64.3 68.3 -64.3 73.25 -64.3 78.15 -64.65 85.25 -66.05 85.55 -68.45 86.4 -67.55 84.45 -67.05 81.8 -66.5 78.8 -66.5 68.65 L-65.9 21.3 Q-64.6 -25.7 -60.95 -42.2 -59.3 -49.55 -53.3 -69.35 -47.9 -86.85 -46.0 -97.8 -44.1 -108.55 -36.4 -117.45 -30.95 -123.75 -20.65 -130.8 -13.75 -135.45 -10.1 -138.05 L-16.9 -144.75 -16.85 -145.2 -16.5 -146.1 Q-9.6 -145.0 -3.95 -142.85 0.45 -147.3 0.45 -151.4 0.45 -152.75 -0.3 -155.6 L-1.5 -159.75 Q-44.1 -141.05 -63.85 -79.75 L-66.3 -71.6 -65.5 -72.1 Q-63.95 -71.55 -63.7 -70.35 -64.2 -68.9 -64.8 -68.4 -65.65 -67.5 -67.4 -67.6 -71.95 -50.6 -74.25 -31.95 -76.75 -12.0 -76.3 3.6 L-76.3 44.75 -74.9 46.0 Q-71.85 48.8 -71.25 50.2 L-73.95 50.95 -76.3 51.3 -76.3 89.4 -79.3 90.6 -79.45 90.5 M71.65 -101.9 L72.75 -102.4 Q74.05 -101.85 74.5 -100.65 74.3 -100.1 73.45 -99.5 72.5 -98.85 71.85 -98.85 70.7 -99.3 70.1 -100.0 70.8 -101.2 71.65 -101.9 M78.7 -69.9 L78.35 -69.7 Q78.05 -69.85 78.05 -71.25 78.05 -71.9 79.3 -72.85 80.25 -73.65 81.3 -74.05 81.55 -73.75 82.15 -73.5 82.6 -73.1 82.6 -71.75 82.6 -70.35 82.4 -70.1 L82.25 -70.1 82.1 -69.75 80.4 -69.45 78.7 -69.65 78.7 -69.9 M96.95 33.65 L97.4 35.0 96.75 36.15 93.85 36.35 93.65 36.35 Q93.4 36.25 93.4 34.95 93.4 32.75 93.65 33.5 L94.75 33.4 96.95 33.65 M94.55 56.65 L97.85 57.05 98.3 57.85 97.85 59.15 Q98.55 59.6 96.35 59.6 L94.7 59.4 94.75 59.15 94.55 59.4 Q94.3 59.4 94.3 58.0 94.3 55.8 94.55 56.65 M-21.55 -136.75 L-20.9 -135.4 Q-21.05 -134.85 -22.1 -134.2 -23.2 -133.55 -24.45 -133.4 -25.2 -133.7 -25.7 -134.5 -26.2 -135.3 -26.2 -135.85 -25.5 -136.65 -24.65 -136.85 L-21.55 -136.75 M-33.75 -125.4 L-34.9 -123.85 Q-35.2 -123.1 -36.45 -123.1 L-38.1 -123.25 -38.05 -123.5 -38.25 -123.25 Q-38.5 -123.25 -38.5 -124.65 -38.5 -126.1 -37.05 -126.55 L-34.7 -126.75 -33.75 -125.4" fill="#a3a46c" fill-rule="evenodd" stroke="none"/>
    <path d="M90.1 89.2 Q87.35 85.1 87.05 81.85 L87.05 24.3 Q85.95 4.35 82.5 -24.8 L76.45 -73.95 Q75.4 -84.3 69.65 -98.15 64.65 -110.2 57.15 -122.65 42.95 -146.15 22.05 -160.95 16.55 -164.85 9.3 -168.9 4.35 -171.7 4.35 -172.2 4.35 -179.35 21.9 -168.15 L33.75 -160.0 33.2 -159.2 32.8 -157.75 Q32.8 -156.4 33.05 -155.85 L33.2 -155.3 35.3 -155.4 36.5 -157.45 36.7 -157.8 44.6 -151.4 Q53.65 -143.8 60.55 -135.1 65.8 -128.5 70.7 -120.0 78.5 -106.65 82.9 -89.2 84.7 -82.25 89.0 -57.95 L91.45 -42.75 84.0 -30.15 Q84.0 -28.75 84.65 -28.9 L85.25 -29.35 Q87.15 -30.65 92.4 -36.45 94.8 -19.2 97.1 2.3 101.4 42.85 101.4 67.1 L102.25 80.35 102.2 83.55 97.0 86.3 Q92.05 88.8 90.1 89.2 M94.55 56.65 Q94.3 55.8 94.3 58.0 94.3 59.4 94.55 59.4 L94.75 59.15 94.7 59.4 96.35 59.6 Q98.55 59.6 97.85 59.15 L98.3 57.85 97.85 57.05 94.55 56.65 M96.95 33.65 L94.75 33.4 93.65 33.5 Q93.4 32.75 93.4 34.95 93.4 36.25 93.65 36.35 L93.85 36.35 96.75 36.15 97.4 35.0 96.95 33.65 M78.7 -69.9 L78.7 -69.65 80.4 -69.45 82.1 -69.75 82.25 -70.1 82.4 -70.1 Q82.6 -70.35 82.6 -71.75 82.6 -73.1 82.15 -73.5 81.55 -73.75 81.3 -74.05 80.25 -73.65 79.3 -72.85 78.05 -71.9 78.05 -71.25 78.05 -69.85 78.35 -69.7 L78.7 -69.9 M71.65 -101.9 Q70.8 -101.2 70.1 -100.0 70.7 -99.3 71.85 -98.85 72.5 -98.85 73.45 -99.5 74.3 -100.1 74.5 -100.65 74.05 -101.85 72.75 -102.4 L71.65 -101.9 M-76.3 89.4 L-76.3 51.3 -73.95 50.95 -71.25 50.2 Q-71.85 48.8 -74.9 46.0 L-76.3 44.75 -76.3 3.6 Q-76.75 -12.0 -74.25 -31.95 -71.95 -50.6 -67.4 -67.6 -65.65 -67.5 -64.8 -68.4 -64.2 -68.9 -63.7 -70.35 -63.95 -71.55 -65.5 -72.1 L-66.3 -71.6 -63.85 -79.75 Q-44.1 -141.05 -1.5 -159.75 L-0.3 -155.6 Q0.45 -152.75 0.45 -151.4 0.45 -147.3 -3.95 -142.85 -9.6 -145.0 -16.5 -146.1 L-16.85 -145.2 -16.9 -144.75 -10.1 -138.05 Q-13.75 -135.45 -20.65 -130.8 -30.95 -123.75 -36.4 -117.45 -44.1 -108.55 -46.0 -97.8 -47.9 -86.85 -53.3 -69.35 -59.3 -49.55 -60.95 -42.2 -64.6 -25.7 -65.9 21.3 L-66.5 68.65 Q-66.5 78.8 -67.05 81.8 -67.55 84.45 -68.45 86.4 L-70.9 87.3 -76.3 89.4 M-33.75 -125.4 L-34.7 -126.75 -37.05 -126.55 Q-38.5 -126.1 -38.5 -124.65 -38.5 -123.25 -38.25 -123.25 L-38.05 -123.5 -38.1 -123.25 -36.45 -123.1 Q-35.2 -123.1 -34.9 -123.85 L-33.75 -125.4 M-21.55 -136.75 L-24.65 -136.85 Q-25.5 -136.65 -26.2 -135.85 -26.2 -135.3 -25.7 -134.5 -25.2 -133.7 -24.45 -133.4 -23.2 -133.55 -22.1 -134.2 -21.05 -134.85 -20.9 -135.4 L-21.55 -136.75" fill="#898e64" fill-rule="evenodd" stroke="none"/>
    <path d="M1.25 -182.2 L2.0 -170.7 1.8 -165.55 1.8 -165.5 4.15 -165.25 Q4.75 -165.55 5.2 -166.0 L5.35 -165.55 Q11.35 -163.65 17.05 -160.5 38.65 -148.6 55.55 -119.35 64.85 -103.3 70.35 -85.65 75.4 -69.2 75.4 -57.55 75.4 -46.95 79.25 -26.25 L79.55 -24.75 79.7 -24.0 Q82.5 -8.8 83.25 0.6 L83.5 5.6 Q83.85 29.9 84.15 37.1 84.7 55.5 86.15 68.45 L86.15 87.15 85.45 87.75 85.75 88.7 85.8 88.8 81.25 87.8 Q82.35 86.15 83.05 83.45 83.95 80.1 83.95 76.55 83.95 48.35 81.2 19.25 L75.15 -42.65 73.4 -58.9 72.45 -59.55 Q69.2 -61.85 68.65 -64.15 69.5 -64.45 72.7 -63.25 68.95 -87.4 61.55 -102.95 45.85 -136.35 6.55 -159.5 L5.85 -156.8 Q5.45 -155.25 5.45 -153.85 5.45 -147.55 7.75 -143.45 9.6 -140.0 14.05 -136.4 L23.8 -129.0 Q30.55 -123.6 36.2 -117.3 54.2 -97.35 58.25 -81.9 66.35 -51.55 67.0 -42.15 67.25 -38.3 66.85 -30.25 L66.85 -29.55 Q71.35 -30.95 72.95 -29.6 L73.4 -28.3 Q73.0 -27.65 68.5 -25.75 L66.65 -25.0 66.4 -10.8 Q66.4 -7.05 68.7 5.75 70.95 18.55 70.95 26.6 L68.95 81.15 Q68.95 82.65 69.75 84.35 L67.2 83.6 66.4 83.65 Q66.05 77.55 66.05 73.25 66.05 69.9 66.35 63.85 L66.15 53.1 66.15 50.35 66.05 49.85 66.05 40.55 65.4 27.2 Q63.45 -8.8 60.8 -29.45 58.05 -50.75 56.5 -59.0 53.35 -76.1 48.0 -89.05 35.8 -118.9 7.7 -137.35 L6.6 -139.2 5.1 -139.75 4.7 -139.9 2.35 -141.15 2.2 -141.3 1.9 -141.2 1.75 -141.15 1.65 -141.15 1.65 -141.4 Q2.75 -156.2 0.8 -164.2 L0.8 -164.1 0.7 -164.2 Q-0.6 -163.55 -1.85 -162.85 -36.25 -144.85 -55.05 -110.7 -71.55 -80.65 -76.75 -36.05 -80.0 -7.7 -79.2 40.55 -78.7 73.85 -79.45 90.5 L-79.55 90.5 -80.45 90.8 -82.15 90.0 Q-80.95 84.65 -80.95 78.75 -80.95 77.0 -81.55 72.95 -82.15 68.65 -82.85 65.8 L-82.85 51.0 Q-91.3 57.95 -92.15 57.95 L-82.85 45.25 -82.85 25.05 Q-83.45 20.65 -83.9 13.1 L-84.2 4.6 Q-84.2 -17.25 -80.3 -42.65 -76.5 -67.1 -70.1 -88.55 -63.7 -110.25 -44.25 -134.7 -41.05 -138.75 -31.85 -145.2 L-15.55 -156.6 Q3.75 -170.8 -2.2 -180.0 -27.35 -169.25 -45.7 -149.2 L-44.7 -147.05 Q-42.7 -142.75 -42.65 -140.45 -43.1 -139.9 -44.7 -139.6 L-48.35 -144.65 -48.9 -145.6 Q-77.75 -111.8 -88.5 -53.65 -94.05 -23.35 -95.85 22.0 L-96.95 54.15 Q-97.6 70.6 -98.8 79.25 L-98.8 88.1 -100.3 87.9 -101.1 56.7 Q-101.1 48.35 -96.65 7.55 L-96.7 4.4 Q-96.6 -14.5 -94.4 -26.95 -93.8 -30.0 -92.05 -42.35 L-89.9 -55.15 Q-88.25 -77.0 -80.7 -97.65 -72.75 -119.55 -59.4 -137.25 -49.85 -149.95 -40.95 -156.4 L-39.1 -158.05 Q-31.65 -164.35 -13.8 -174.9 L-8.05 -178.3 -0.9 -181.3 0.2 -181.75 0.9 -182.05 1.25 -182.2 M-5.85 -183.0 L-6.8 -182.4 -6.65 -182.25 Q-54.1 -157.8 -74.25 -117.05 -82.75 -100.05 -87.85 -77.6 -90.35 -66.75 -94.7 -38.65 -98.95 -11.6 -102.05 35.8 L-103.1 53.35 -103.1 65.55 -103.8 67.3 -104.0 70.8 -104.0 75.55 -103.3 88.6 -103.8 88.95 -103.25 89.4 -103.2 90.35 -107.55 89.2 Q-106.25 67.65 -106.25 64.4 L-105.4 50.45 Q-104.35 35.3 -104.05 29.1 -104.05 23.55 -102.45 11.55 -100.95 -0.4 -100.95 -6.4 -100.95 -39.8 -86.85 -101.4 -84.05 -113.55 -77.25 -124.4 -69.7 -136.35 -56.1 -148.75 -30.3 -172.15 -17.75 -180.95 L-16.8 -181.55 -5.85 -183.0 M66.6 87.35 L66.55 87.0 66.55 86.9 68.05 87.6 66.6 87.35 M34.45 -134.5 L32.65 -134.1 Q31.0 -134.25 30.4 -134.95 30.4 -135.35 31.05 -135.95 L31.7 -136.75 Q33.6 -136.75 34.55 -135.6 L34.45 -134.5 M51.2 -112.9 L50.55 -111.75 Q50.0 -111.1 48.6 -111.1 47.7 -111.1 46.25 -112.75 44.85 -114.4 44.85 -115.55 46.55 -116.25 48.25 -115.6 50.05 -114.9 51.2 -112.9 M78.95 41.2 L80.1 41.65 Q80.45 41.9 80.45 43.35 L80.45 44.7 80.4 44.3 79.95 45.1 77.8 45.2 77.6 44.8 Q77.35 44.4 77.35 43.1 77.35 41.7 77.8 41.4 L78.95 41.2 M73.3 70.65 Q75.15 70.2 76.75 70.65 L77.35 72.0 76.45 73.95 Q75.9 75.1 74.5 75.1 L72.7 74.9 71.6 74.4 71.3 74.6 Q70.95 74.45 70.95 73.05 70.95 71.15 73.3 70.65 M-17.75 -167.6 L-16.5 -168.15 Q-15.1 -167.2 -13.9 -165.7 -14.4 -164.45 -16.5 -163.9 L-17.75 -164.1 Q-18.25 -164.3 -18.25 -165.7 -18.25 -167.15 -17.75 -167.6 M-71.55 -103.45 Q-71.85 -103.85 -71.85 -105.2 -71.85 -107.25 -67.25 -107.25 L-66.95 -105.6 -67.4 -103.55 -71.25 -103.1 -71.55 -103.45 M-88.2 23.45 L-87.6 24.8 -87.3 26.1 Q-87.95 27.15 -89.5 27.4 -91.0 26.8 -91.0 24.3 -90.0 23.45 -88.2 23.45 M-89.05 4.9 Q-88.2 4.0 -86.45 4.9 L-86.4 6.25 Q-86.45 6.95 -87.75 7.35 -89.05 6.8 -89.05 4.9 M-94.45 84.05 L-95.0 83.8 -95.15 83.7 -95.25 81.85 Q-95.25 80.15 -91.45 79.65 -87.75 79.15 -87.75 81.15 -87.75 84.25 -92.15 84.25 L-94.45 84.05 M-108.75 108.25 L-107.25 108.8 -108.8 108.8 -108.75 108.25" fill="#788d65" fill-rule="evenodd" stroke="none"/>
    <path d="M-98.8 88.1 L-98.8 79.25 Q-97.6 70.6 -96.95 54.15 L-95.85 22.0 Q-94.05 -23.35 -88.5 -53.65 -77.75 -111.8 -48.9 -145.6 L-48.35 -144.65 -44.7 -139.6 Q-43.1 -139.9 -42.65 -140.45 -42.7 -142.75 -44.7 -147.05 L-45.7 -149.2 Q-27.35 -169.25 -2.2 -180.0 3.75 -170.8 -15.55 -156.6 L-31.85 -145.2 Q-41.05 -138.75 -44.25 -134.7 -63.7 -110.25 -70.1 -88.55 -76.5 -67.1 -80.3 -42.65 -84.2 -17.25 -84.2 4.6 L-83.9 13.1 Q-83.45 20.65 -82.85 25.05 L-82.85 45.25 -92.15 57.95 Q-91.3 57.95 -82.85 51.0 L-82.85 65.8 Q-82.15 68.65 -81.55 72.95 -80.95 77.0 -80.95 78.75 -80.95 84.65 -82.15 90.0 -85.3 88.65 -88.35 88.2 -92.4 87.55 -98.1 88.25 L-98.8 88.1 M69.75 84.35 Q68.95 82.65 68.95 81.15 L70.95 26.6 Q70.95 18.55 68.7 5.75 66.4 -7.05 66.4 -10.8 L66.65 -25.0 68.5 -25.75 Q73.0 -27.65 73.4 -28.3 L72.95 -29.6 Q71.35 -30.95 66.85 -29.55 L66.85 -30.25 Q67.25 -38.3 67.0 -42.15 66.35 -51.55 58.25 -81.9 54.2 -97.35 36.2 -117.3 30.55 -123.6 23.8 -129.0 L14.05 -136.4 Q9.6 -140.0 7.75 -143.45 5.45 -147.55 5.45 -153.85 5.45 -155.25 5.85 -156.8 L6.55 -159.5 Q45.85 -136.35 61.55 -102.95 68.95 -87.4 72.7 -63.25 69.5 -64.45 68.65 -64.15 69.2 -61.85 72.45 -59.55 L73.4 -58.9 75.15 -42.65 81.2 19.25 Q83.95 48.35 83.95 76.55 83.95 80.1 83.05 83.45 82.35 86.15 81.25 87.8 L76.4 86.45 69.75 84.35 M51.2 -112.9 Q50.05 -114.9 48.25 -115.6 46.55 -116.25 44.85 -115.55 44.85 -114.4 46.25 -112.75 47.7 -111.1 48.6 -111.1 50.0 -111.1 50.55 -111.75 L51.2 -112.9 M34.45 -134.5 L34.55 -135.6 Q33.6 -136.75 31.7 -136.75 L31.05 -135.95 Q30.4 -135.35 30.4 -134.95 31.0 -134.25 32.65 -134.1 L34.45 -134.5 M73.3 70.65 Q70.95 71.15 70.95 73.05 70.95 74.45 71.3 74.6 L71.6 74.4 72.7 74.9 74.5 75.1 Q75.9 75.1 76.45 73.95 L77.35 72.0 76.75 70.65 Q75.15 70.2 73.3 70.65 M78.95 41.2 L77.8 41.4 Q77.35 41.7 77.35 43.1 77.35 44.4 77.6 44.8 L77.8 45.2 79.95 45.1 80.4 44.3 80.45 44.7 80.45 43.35 Q80.45 41.9 80.1 41.65 L78.95 41.2 M-17.75 -167.6 Q-18.25 -167.15 -18.25 -165.7 -18.25 -164.3 -17.75 -164.1 L-16.5 -163.9 Q-14.4 -164.45 -13.9 -165.7 -15.1 -167.2 -16.5 -168.15 L-17.75 -167.6 M-71.55 -103.45 L-71.25 -103.1 -67.4 -103.55 -66.95 -105.6 -67.25 -107.25 Q-71.85 -107.25 -71.85 -105.2 -71.85 -103.85 -71.55 -103.45 M-94.45 84.05 L-92.15 84.25 Q-87.75 84.25 -87.75 81.15 -87.75 79.15 -91.45 79.65 -95.25 80.15 -95.25 81.85 L-95.15 83.7 -95.0 83.8 -94.45 84.05 M-89.05 4.9 Q-89.05 6.8 -87.75 7.35 -86.45 6.95 -86.4 6.25 L-86.45 4.9 Q-88.2 4.0 -89.05 4.9 M-88.2 23.45 Q-90.0 23.45 -91.0 24.3 -91.0 26.8 -89.5 27.4 -87.95 27.15 -87.3 26.1 L-87.6 24.8 -88.2 23.45" fill="#6b7c61" fill-rule="evenodd" stroke="none"/>
  </g>
</svg>
