<?xml version="1.0" encoding="UTF-8" standalone="no"?>
<svg xmlns:ffdec="https://www.free-decompiler.com/flash" xmlns:xlink="http://www.w3.org/1999/xlink" ffdec:objectType="shape" height="163.0px" width="292.05px" xmlns="http://www.w3.org/2000/svg">
  <g transform="matrix(1.0, 0.0, 0.0, 1.0, -35.1, 33.05)">
    <path d="M231.95 113.85 L231.75 114.4 232.6 114.6 232.8 114.85 233.35 114.8 233.4 114.8 Q236.05 115.45 238.55 116.25 L243.5 116.25 Q244.6 116.8 245.5 117.55 L245.25 118.7 241.1 120.1 240.8 120.05 239.75 119.8 236.8 119.85 231.1 120.15 Q237.5 123.1 237.5 126.1 L237.5 126.2 237.2 126.9 236.95 127.35 236.6 127.1 236.5 127.0 Q231.5 124.5 222.75 121.15 L210.0 123.4 Q213.15 126.3 214.9 129.5 L213.75 129.95 Q210.55 126.55 206.4 123.75 L206.35 123.75 Q204.95 123.75 204.85 123.2 L204.95 122.85 Q199.95 119.7 193.75 117.45 L189.6 116.05 Q190.35 116.8 190.35 117.55 190.35 118.95 189.95 118.8 L189.55 118.35 184.4 116.7 177.7 118.75 159.4 124.45 Q158.0 124.45 157.75 123.85 L157.75 123.2 Q160.25 120.8 163.05 118.8 L154.5 117.25 Q154.05 117.65 152.65 117.95 L149.3 118.25 145.45 117.85 139.95 119.55 Q130.35 122.4 122.5 122.4 121.15 122.4 121.1 122.0 121.3 121.4 121.1 121.0 L123.0 118.95 123.05 118.95 123.4 118.7 132.0 116.15 130.7 116.05 126.05 115.85 129.55 112.35 129.55 112.3 129.95 112.3 133.9 112.3 134.05 112.35 131.15 110.75 131.6 110.3 130.85 110.55 130.0 110.15 127.35 108.8 Q123.95 109.7 120.6 110.95 109.0 116.2 104.05 117.7 L103.85 117.6 Q103.25 117.2 102.8 116.4 L105.75 113.6 Q109.65 111.1 115.85 108.75 L115.95 108.75 115.85 108.7 115.75 108.65 115.2 108.5 114.35 108.15 113.45 107.75 114.55 107.05 116.55 108.5 117.15 108.3 117.0 107.8 117.45 106.3 121.0 105.6 119.8 105.05 119.05 104.85 118.7 104.8 Q121.0 103.7 123.0 103.2 114.15 100.05 113.65 99.25 L114.1 97.75 Q119.85 96.35 125.75 97.0 L125.8 97.0 132.2 96.55 Q135.6 95.65 138.15 95.65 138.45 96.9 138.15 97.75 L138.3 97.2 145.75 98.8 147.3 99.2 150.4 97.7 Q146.55 96.3 141.15 94.8 136.35 96.1 130.15 96.1 128.8 96.1 128.4 95.4 L127.9 94.15 132.05 92.35 Q122.0 89.55 121.15 88.75 L121.6 87.4 Q132.15 85.6 138.7 85.7 138.7 84.45 138.95 84.05 L139.15 83.5 143.6 83.6 Q147.6 81.85 154.25 83.5 154.25 82.85 154.55 82.35 L148.2 82.45 138.5 82.8 136.0 82.7 Q134.65 82.35 135.25 80.9 L135.55 79.9 135.65 79.75 134.35 79.75 Q134.05 79.75 132.55 78.85 130.95 77.9 130.15 77.2 L130.75 75.7 Q147.25 70.7 151.45 69.75 L143.35 69.3 139.35 69.9 Q139.05 69.9 137.25 67.75 144.8 62.1 155.0 64.4 158.4 65.2 161.1 66.65 L162.2 66.0 Q161.9 65.5 161.9 64.9 161.9 63.55 162.25 63.35 L162.55 63.1 Q167.2 62.85 172.25 63.3 L173.3 62.7 Q169.45 60.65 166.95 59.15 L166.65 59.95 166.3 60.2 139.7 63.15 Q139.25 62.65 136.0 62.65 L134.6 62.45 134.9 62.2 134.45 61.0 Q139.5 56.3 146.8 55.8 L146.8 56.05 155.65 56.05 162.75 56.15 162.55 55.9 163.35 54.55 Q167.2 53.85 176.05 58.4 180.35 57.05 185.45 56.7 L199.6 56.6 199.55 58.25 199.15 59.2 199.55 59.45 199.6 60.75 Q199.6 62.15 199.15 62.4 198.45 62.5 197.9 62.8 L184.8 64.35 Q186.0 65.65 186.55 66.9 187.45 67.75 187.45 68.75 187.45 69.45 186.05 71.1 L186.85 72.15 186.95 72.3 188.3 72.35 188.4 72.35 Q197.05 68.6 199.45 72.7 197.9 73.9 194.45 75.6 L198.45 75.0 Q201.7 71.75 207.2 69.2 213.5 66.25 220.95 65.05 L221.1 64.95 221.2 66.5 Q221.2 67.9 221.0 67.9 L220.75 67.6 Q220.35 67.7 209.65 73.3 L209.35 73.45 213.8 72.95 Q216.4 72.85 217.25 73.55 218.05 74.2 218.05 75.95 218.05 77.3 217.75 77.55 L217.45 77.85 Q216.2 77.5 210.7 77.85 L203.85 78.3 202.65 78.3 204.85 78.75 Q209.95 79.9 212.55 81.65 L219.1 80.1 221.9 79.7 220.85 79.65 222.75 77.05 Q226.5 76.75 234.3 76.9 L235.85 76.95 243.25 77.5 Q245.55 77.85 246.4 78.4 L246.05 78.85 Q246.85 79.6 246.85 80.65 246.85 82.0 246.5 82.45 L246.15 82.9 233.25 83.35 231.35 83.5 231.3 83.5 Q229.25 84.4 226.45 84.4 L214.95 84.3 215.2 85.75 214.75 86.8 214.35 87.4 Q222.85 85.8 230.25 87.25 233.55 85.65 237.7 86.6 L242.4 87.85 246.45 88.75 248.05 88.9 247.55 89.05 243.7 90.2 240.75 90.7 234.25 90.3 Q231.7 89.85 230.0 88.8 228.25 89.9 225.7 91.2 228.6 91.1 230.3 92.0 L233.25 93.8 235.2 94.75 240.4 95.05 247.5 95.75 249.1 96.75 Q249.75 97.4 249.75 98.9 249.75 100.3 249.4 100.35 L248.3 100.45 239.6 100.15 Q231.4 100.05 226.15 97.9 L226.35 97.2 229.85 94.6 231.05 94.65 230.75 94.5 Q228.15 93.4 225.25 93.0 L224.65 94.15 222.95 94.65 220.6 94.85 218.25 94.55 214.6 96.05 216.5 97.65 Q221.45 98.1 223.25 99.05 L225.1 101.05 224.35 101.8 224.3 101.85 223.0 102.15 Q227.15 102.1 230.9 102.2 L230.6 102.1 225.25 101.85 224.5 101.8 Q237.3 99.75 242.9 104.05 242.4 104.55 239.7 104.9 L235.35 105.2 230.15 104.95 229.95 104.65 230.15 105.0 Q230.4 105.35 230.3 105.75 L224.8 105.85 225.65 106.8 239.75 105.4 Q234.15 107.95 228.55 110.0 L231.95 113.85 M169.1 44.65 L180.5 45.15 180.35 45.0 180.7 43.55 181.65 43.15 183.5 43.1 194.85 45.5 Q205.9 48.7 205.9 52.75 205.9 54.3 205.3 54.95 204.9 55.4 203.65 55.8 201.85 54.9 189.9 50.3 185.55 48.6 183.15 47.25 L183.25 47.95 183.1 49.75 182.95 50.2 Q166.75 49.4 161.0 49.95 L154.35 50.75 154.2 50.75 Q152.0 52.2 150.55 52.45 148.9 52.75 137.6 52.75 136.2 52.75 136.0 52.05 L135.8 50.85 136.15 49.4 Q138.8 46.5 146.15 47.95 150.55 48.8 153.25 50.1 L153.35 49.4 Q154.1 47.75 158.95 46.4 163.4 45.1 169.1 44.65 M198.6 97.3 L198.65 97.3 198.7 97.25 198.6 97.3 M173.45 82.55 L176.15 84.0 Q179.95 82.4 185.2 81.85 L181.65 80.75 181.25 80.8 180.65 80.8 Q179.8 82.7 177.1 82.7 L173.45 82.55 M176.65 75.0 Q179.25 76.1 180.3 77.2 L182.25 75.65 181.45 75.05 176.65 75.0 M194.2 68.65 L192.45 68.45 191.95 67.75 Q194.65 63.9 202.3 62.3 208.05 61.1 212.7 62.4 L226.95 62.85 Q237.0 64.25 238.6 68.75 L237.95 69.4 226.85 66.15 Q219.25 64.05 215.7 63.55 216.25 63.8 216.8 64.15 211.65 64.85 202.75 66.85 L194.2 68.65 M205.3 87.3 Q205.3 88.95 204.1 90.15 L204.0 90.25 208.0 88.9 210.1 88.3 205.3 87.2 205.3 87.3 M237.4 72.25 L239.65 73.7 228.4 72.8 218.5 71.45 Q220.95 71.1 226.55 71.4 L237.4 72.25 M225.35 57.05 Q225.35 58.45 225.05 58.5 L223.9 58.6 213.6 59.05 205.2 59.85 Q202.45 59.85 201.95 57.95 L202.6 56.6 Q208.85 56.0 218.65 54.2 225.35 53.45 225.35 57.05 M222.95 104.8 L224.0 104.5 224.45 104.5 226.2 104.05 222.8 103.8 218.45 103.45 216.65 104.2 222.95 104.8 M224.5 112.75 L224.3 113.05 228.95 113.85 224.5 112.75 M222.9 117.1 L226.7 116.7 Q211.55 112.9 205.4 110.65 L200.4 112.0 204.7 112.9 205.0 112.9 205.1 113.0 218.35 115.8 222.9 117.1 M221.7 102.1 L221.1 102.05 221.45 102.4 222.55 102.15 222.3 102.15 222.15 102.15 222.1 102.15 221.7 102.1 M203.85 129.55 L203.5 129.25 Q200.9 128.4 186.55 126.7 L166.85 124.45 Q172.75 122.7 187.1 122.85 204.2 123.05 204.2 128.15 204.2 129.55 203.85 129.55 M202.9 118.4 L207.55 121.4 Q212.3 120.4 216.55 118.9 L216.1 118.7 Q210.75 116.75 206.5 115.35 L198.0 115.05 Q201.05 116.35 203.2 117.9 L202.9 118.4 M203.5 108.1 L204.15 107.55 197.2 107.5 195.55 108.6 Q200.05 108.8 204.4 110.05 L204.55 109.6 220.95 112.5 219.85 112.0 Q210.6 110.7 204.3 108.35 L204.5 108.1 203.5 108.1 M167.75 115.7 Q169.1 114.9 170.5 114.25 L167.8 114.1 165.9 114.0 165.65 114.2 165.25 113.95 165.2 113.95 163.7 113.75 163.8 114.4 163.75 115.2 166.25 115.75 167.75 115.7 M177.6 108.45 L175.85 108.45 176.6 108.2 170.45 106.8 167.35 107.15 163.5 107.65 164.45 108.8 180.0 110.5 182.6 109.85 177.6 108.45 M197.8 112.75 L195.3 113.5 199.45 113.2 197.8 112.75 M189.75 106.5 L191.55 107.7 192.55 106.9 190.55 106.35 189.75 106.5 M153.25 70.05 L153.25 71.35 Q153.25 74.0 146.95 76.85 L142.1 78.65 142.95 78.55 151.35 78.1 Q150.55 77.65 150.55 77.2 150.55 73.55 155.3 72.3 L156.15 72.1 156.75 71.05 155.15 70.55 153.25 70.05 M113.0 96.05 Q112.9 95.55 113.4 95.35 113.4 97.95 113.0 96.05 M109.35 94.75 Q108.2 94.45 106.75 93.4 110.85 89.0 117.85 89.2 122.9 89.35 129.95 92.05 123.95 96.05 118.1 96.05 L113.65 95.25 114.15 95.2 109.35 94.75 M133.65 107.4 L131.5 107.8 133.7 109.1 Q137.15 111.1 138.2 112.5 L138.25 112.55 138.25 112.6 138.3 112.65 138.3 112.7 Q146.0 112.05 155.25 113.55 L149.5 111.45 146.95 112.15 Q145.55 112.15 145.35 111.35 L145.25 110.05 145.35 110.0 139.3 107.95 137.7 107.4 135.75 107.1 135.2 107.15 134.7 107.25 133.4 106.75 133.65 107.4 M125.65 104.8 L125.9 104.8 125.2 104.35 124.6 104.3 125.65 104.8" fill="#868167" fill-rule="evenodd" stroke="none"/>
    <path d="M36.75 70.9 L36.2 72.45 35.1 72.15 35.45 71.8 36.75 70.9 M48.05 81.65 L49.5 78.0 55.3 74.15 55.05 74.6 57.6 74.25 Q58.35 73.95 60.35 72.85 L57.75 72.55 70.7 64.25 Q70.7 63.75 69.9 62.85 L69.1 61.8 Q63.55 63.05 55.05 68.4 L53.5 69.4 Q58.5 59.4 65.0 49.95 74.05 46.95 78.75 46.1 L79.05 46.55 79.35 45.75 82.55 45.25 88.95 44.95 Q90.25 44.4 90.55 43.4 87.25 40.7 83.3 40.65 79.85 40.6 77.65 42.75 L70.5 42.4 Q75.35 36.0 80.95 29.9 88.35 21.85 96.3 15.05 L101.05 13.7 104.5 12.1 106.95 11.3 113.65 11.6 123.25 11.3 Q128.3 11.3 130.8 12.2 L132.2 12.1 Q132.65 12.05 132.65 10.35 132.65 7.65 128.0 6.1 L128.35 6.1 131.5 4.9 Q134.75 3.7 135.8 3.7 145.9 3.7 153.0 5.3 L151.45 6.3 Q157.4 8.3 166.25 10.2 167.65 10.55 169.05 11.05 166.4 12.2 163.5 14.6 158.75 13.15 152.05 12.5 135.2 10.85 131.65 15.55 132.1 16.0 135.3 16.55 L130.25 17.95 Q121.6 20.5 119.7 22.95 L120.15 24.4 119.95 24.75 Q120.0 25.1 121.4 25.1 L128.9 22.75 Q136.05 20.4 139.8 20.1 139.4 20.6 139.3 21.25 L150.65 23.25 Q158.05 22.05 168.15 24.85 177.75 27.5 177.75 29.5 177.75 30.9 177.4 30.95 L175.95 30.85 161.9 27.15 153.8 24.7 150.3 26.95 147.85 27.95 Q143.85 26.75 137.75 26.1 L134.7 25.85 Q128.7 23.65 127.15 23.85 L128.9 25.65 Q123.35 25.75 118.9 26.85 L118.9 26.45 Q110.95 26.05 102.95 29.3 95.85 32.1 93.4 35.55 L93.65 35.95 Q94.05 36.4 94.75 36.7 L103.85 33.0 Q109.45 30.95 116.1 29.3 L117.3 29.2 120.15 28.9 133.95 29.95 Q137.25 32.45 139.3 32.95 L139.15 33.1 136.65 33.05 132.05 33.0 131.8 32.9 Q128.1 31.45 116.65 34.3 L116.2 35.8 Q119.15 38.35 121.7 38.8 L116.8 40.6 Q104.95 37.5 98.45 41.5 L105.0 43.55 Q99.15 43.35 94.4 45.7 94.9 46.15 95.95 46.65 L93.25 47.95 92.05 48.35 Q87.2 50.25 85.5 53.1 L85.3 53.8 85.4 54.3 Q85.8 54.8 87.2 54.8 L91.3 53.0 91.6 53.1 93.35 52.1 Q98.7 50.2 103.05 50.5 L104.2 50.35 104.5 49.6 108.6 50.75 Q111.5 46.95 114.1 46.05 118.3 44.6 131.5 44.9 L131.75 44.6 Q131.95 44.6 131.95 46.0 131.95 47.35 131.65 47.45 L131.3 47.5 Q117.25 48.3 113.55 49.65 L111.35 50.7 110.2 51.15 113.3 52.0 Q110.75 52.5 107.25 53.8 102.7 55.5 98.05 57.9 94.45 59.8 93.2 60.85 L89.5 60.5 85.55 60.75 Q80.0 61.45 77.2 63.55 L76.95 64.25 Q72.65 66.6 71.35 68.65 L71.45 69.1 78.95 65.55 80.65 65.7 86.55 63.85 Q92.55 62.15 94.05 62.8 L95.05 62.45 96.55 62.55 97.95 62.45 98.3 62.7 Q99.4 63.25 100.8 63.25 L101.55 63.25 98.25 64.0 97.35 64.25 92.6 64.6 Q90.95 62.9 88.3 65.65 L87.7 65.85 Q82.3 67.9 79.65 71.8 L84.1 71.9 Q83.75 72.75 83.7 73.45 85.35 72.95 87.4 71.55 L89.45 71.35 95.6 71.55 97.35 71.7 97.3 72.25 97.35 73.4 94.95 73.45 93.15 75.0 92.05 76.05 Q92.05 77.1 92.55 77.2 L94.9 77.1 100.1 77.3 98.55 78.45 Q96.8 79.9 95.8 81.3 L96.95 81.4 98.55 80.8 99.55 81.0 98.65 81.55 110.25 82.6 110.65 83.35 110.7 84.7 Q110.7 86.05 110.5 86.4 L110.25 86.85 106.2 87.4 Q103.8 87.4 97.7 85.55 L93.25 84.0 92.4 84.6 Q88.85 83.6 82.45 83.5 80.7 83.65 79.45 84.35 78.35 84.95 78.1 85.6 82.25 91.2 87.15 90.55 L91.3 89.65 92.2 89.5 92.5 89.55 93.25 89.45 Q88.6 91.35 74.05 99.05 L70.8 100.8 70.75 100.8 Q70.05 100.45 69.7 99.9 L69.3 98.9 Q71.1 96.0 79.4 94.45 L73.8 92.8 68.55 94.3 Q57.2 97.55 55.6 97.55 54.2 97.55 54.15 96.95 L54.35 96.3 Q54.9 94.6 62.65 91.45 L66.05 90.15 Q60.45 88.05 56.85 86.0 L45.1 90.1 45.3 90.0 46.85 84.95 47.85 84.8 Q52.85 84.35 56.4 85.75 52.95 83.65 51.5 81.6 L49.3 81.7 48.05 81.65 M126.75 5.75 L126.7 5.75 Q122.8 4.7 116.3 4.3 L111.05 4.1 111.25 3.95 113.95 4.0 119.7 3.4 Q123.3 2.8 123.75 2.3 L123.75 0.7 Q118.95 0.55 116.0 0.7 120.45 -2.05 125.1 -4.45 L128.6 -6.2 130.0 -6.15 140.0 -5.85 Q142.7 -4.8 147.3 -3.7 155.05 -1.85 157.95 -1.85 L160.25 -2.2 Q160.5 -2.35 160.4 -2.55 L160.85 -3.85 Q158.05 -6.45 148.95 -7.85 146.75 -9.55 143.85 -10.6 L146.75 -11.0 147.25 -11.2 146.8 -11.0 147.45 -10.75 Q149.05 -10.2 151.05 -10.2 L156.65 -10.75 157.4 -11.6 Q157.4 -12.25 156.5 -13.2 L154.8 -14.35 149.9 -14.35 152.95 -15.15 Q174.45 -11.2 184.1 -11.2 185.85 -11.2 185.95 -11.6 L186.2 -12.3 186.45 -12.15 Q192.2 -9.15 193.3 -8.75 L193.65 -9.8 193.75 -8.45 204.8 -7.65 216.6 -7.45 218.1 -7.5 214.9 -7.05 214.0 -6.6 Q209.85 -7.0 203.95 -6.45 202.5 -5.7 201.95 -4.15 L202.8 -1.7 214.45 -1.7 Q218.35 -2.7 220.8 -2.4 222.35 -2.4 222.65 -3.3 220.45 -5.15 218.7 -5.75 L215.75 -6.4 222.8 -6.85 Q221.95 -7.3 221.15 -7.7 L221.35 -7.6 226.7 -5.2 237.55 -0.1 Q233.2 0.7 230.95 3.25 L228.4 3.15 228.4 3.5 230.3 4.1 230.25 4.15 Q230.8 5.9 232.3 6.6 L234.4 5.3 Q235.85 4.45 237.6 4.45 L239.1 4.5 238.8 4.8 240.45 5.0 241.7 5.15 241.0 4.65 248.1 5.25 Q257.45 10.2 261.75 13.65 L261.35 14.25 260.8 14.8 261.7 15.4 260.95 14.9 Q259.35 17.6 259.05 19.85 L258.25 19.35 Q256.05 18.25 248.8 19.8 L248.65 20.8 Q249.55 21.7 255.15 22.35 L259.1 22.75 Q259.65 27.25 262.75 27.85 L272.95 27.45 273.65 27.65 273.95 27.25 273.5 27.85 273.6 28.15 274.8 28.3 Q276.5 29.45 279.45 32.35 L274.65 31.7 279.3 33.85 281.45 33.8 280.9 33.8 281.5 34.45 Q269.55 32.2 264.6 32.75 264.45 32.5 264.25 32.6 264.0 32.75 263.95 33.65 L262.3 33.0 253.8 32.65 252.5 32.7 Q252.05 30.7 247.35 30.3 L226.8 31.15 Q228.1 32.1 238.9 33.2 L238.2 33.6 228.95 33.9 224.45 35.0 Q217.8 31.85 211.95 31.85 L210.9 31.8 227.25 26.9 227.6 25.75 Q219.35 23.55 203.3 28.6 L201.3 29.25 199.25 27.4 198.95 26.4 201.75 25.7 205.2 26.65 204.25 25.1 Q215.4 22.4 221.5 22.15 L221.8 21.65 Q222.1 21.25 222.1 19.9 222.1 16.7 213.95 16.7 208.8 16.7 201.85 17.95 200.35 16.65 198.6 15.45 202.6 14.15 218.8 14.05 219.7 12.2 219.6 11.65 L218.8 10.7 Q201.55 11.2 197.35 13.1 L196.15 13.85 194.05 12.6 Q184.65 7.3 179.2 9.25 L179.0 10.0 190.8 15.75 192.45 16.5 190.0 18.0 184.75 17.1 184.75 16.2 Q184.75 14.75 179.75 11.75 176.25 9.6 172.55 8.25 174.75 5.7 177.5 4.15 180.3 2.6 184.45 1.3 L185.05 1.45 Q186.45 1.45 186.65 1.1 L186.55 0.7 194.4 -1.0 195.65 -1.3 Q197.0 -1.7 197.35 -2.15 190.0 -5.55 182.15 -2.3 178.95 -3.8 174.3 -4.85 165.3 -6.85 159.65 -4.95 163.35 -3.75 178.1 -0.2 175.0 1.7 172.6 4.25 170.85 6.1 170.15 7.45 L168.55 7.0 Q164.95 5.2 162.45 4.4 161.4 2.95 158.85 1.7 154.8 -0.25 148.7 -0.9 133.85 -2.45 126.55 4.15 L126.7 5.7 126.75 5.75 M144.55 -12.7 L146.15 -13.2 145.9 -12.65 144.55 -12.7 M219.25 -7.6 L220.8 -7.85 221.15 -7.7 219.25 -7.6 M265.85 36.0 Q269.3 37.4 279.05 39.2 L283.35 40.0 286.9 41.65 287.55 42.15 Q287.95 42.25 288.1 41.6 L288.7 42.25 294.05 48.45 289.85 48.05 Q277.65 47.1 274.1 48.4 L273.55 50.3 Q274.2 51.35 274.6 51.6 275.55 52.3 277.4 52.3 L284.9 52.15 287.7 53.1 294.05 55.3 Q296.4 57.05 297.95 58.8 290.45 56.55 285.3 56.75 L284.9 57.3 284.3 58.5 Q285.05 60.0 286.65 61.25 283.45 59.75 280.55 59.0 273.65 57.3 266.4 59.4 L266.85 60.85 Q277.1 60.65 284.55 63.25 288.7 64.7 295.75 67.6 L296.35 67.15 291.0 63.6 294.75 64.75 296.45 65.15 296.4 65.25 Q299.9 67.45 307.3 68.7 L313.05 72.3 313.45 72.55 315.05 74.9 Q309.65 73.35 299.0 72.0 L298.6 72.6 297.95 73.85 Q300.55 77.3 309.9 79.15 L318.4 80.85 319.7 81.7 321.5 84.4 322.9 86.25 Q322.85 87.25 322.45 87.15 L322.0 86.75 Q320.4 85.05 317.55 83.35 L316.15 83.95 Q313.65 83.1 307.8 80.05 308.6 81.25 308.6 81.8 308.6 83.5 307.65 85.0 L308.05 85.2 307.55 85.05 Q302.3 83.65 298.25 84.2 L297.4 86.65 Q299.55 87.9 302.7 88.85 L301.7 89.3 303.9 90.3 308.8 93.15 308.5 93.85 297.65 92.95 290.15 95.35 Q295.45 96.45 299.65 97.75 307.35 100.2 307.35 102.25 307.35 103.65 307.05 103.6 L306.7 103.3 299.0 102.05 299.15 101.95 300.25 101.05 Q300.8 99.15 300.25 98.45 299.8 97.85 298.15 97.8 L291.0 97.35 291.05 97.2 Q289.25 94.65 285.4 93.5 L290.05 92.4 289.6 92.4 284.9 93.35 283.35 93.0 276.3 92.7 Q274.75 92.05 273.05 92.1 L267.85 93.15 264.25 93.3 264.05 93.85 247.55 89.05 248.05 88.9 246.45 88.75 238.6 86.5 Q243.85 85.85 250.5 87.55 256.0 88.95 263.3 92.2 L263.35 90.35 270.25 90.65 264.4 89.45 249.55 86.5 Q256.6 83.9 268.5 86.15 276.0 87.55 278.55 89.2 L279.25 88.55 Q287.45 91.05 288.9 92.25 L289.6 89.8 Q287.45 87.95 279.25 86.25 L278.65 86.15 276.8 84.8 279.25 85.3 290.95 84.95 292.1 84.8 Q292.4 84.7 292.4 83.35 L292.3 81.9 291.85 81.55 278.05 81.1 277.75 81.1 277.75 81.25 277.6 82.65 277.45 82.35 275.65 82.15 273.75 81.1 269.8 81.25 269.65 81.85 266.35 82.1 266.3 82.1 263.85 81.95 263.7 81.95 263.8 81.75 265.3 78.65 268.3 78.4 Q257.9 73.75 246.15 72.25 253.8 70.4 265.85 74.0 270.5 75.35 273.35 76.8 L274.05 76.4 278.9 77.4 Q285.7 79.05 286.0 79.9 L286.5 79.8 286.55 78.3 286.55 78.05 297.25 79.9 297.45 79.2 Q292.05 76.4 285.95 75.0 L283.75 74.55 284.05 74.4 285.1 73.6 Q282.85 67.4 270.15 62.35 263.8 59.8 258.2 59.2 L258.6 59.6 Q263.95 64.75 264.95 67.8 L271.2 67.0 Q278.3 69.95 283.1 74.4 L282.0 74.25 Q278.7 72.9 274.05 72.25 L273.95 72.25 Q272.15 70.35 265.1 68.35 L265.15 68.65 264.15 69.1 259.45 64.25 257.3 64.35 256.1 62.85 258.5 63.3 256.9 61.65 254.25 59.05 253.05 59.1 250.0 55.6 250.95 55.8 248.85 53.8 Q251.3 53.6 255.35 56.75 260.7 58.05 263.95 59.65 L264.2 59.75 Q264.4 59.55 264.4 58.15 264.4 56.45 262.65 55.1 L263.15 55.15 Q275.85 56.95 281.5 58.4 L282.05 58.1 282.95 57.25 Q282.15 55.85 277.25 54.05 272.3 52.25 266.2 51.2 L261.05 50.45 261.35 50.4 Q262.95 50.05 263.95 49.05 256.6 44.8 246.95 47.4 244.95 47.95 243.2 48.7 L241.75 47.35 244.75 46.45 Q256.8 42.85 262.15 42.85 263.25 42.4 263.5 41.65 L260.55 39.05 Q250.45 39.2 243.05 41.65 240.25 42.55 237.75 43.85 L233.7 40.65 241.2 41.05 242.55 40.5 Q243.4 40.05 243.55 39.6 241.2 38.05 238.75 37.0 L239.05 36.95 239.25 37.0 247.95 37.45 257.8 36.85 265.85 36.0 M297.4 53.45 L294.0 51.95 296.95 51.85 298.5 53.7 299.05 53.8 297.4 53.45 M178.95 -9.6 L175.3 -9.25 Q173.25 -8.9 173.05 -8.45 L175.5 -8.1 Q177.55 -7.95 179.4 -8.15 L179.25 -9.1 178.95 -9.6 M202.05 -12.05 L201.55 -12.4 Q195.9 -12.1 193.7 -10.4 193.0 -13.3 187.3 -16.1 182.15 -18.65 178.9 -16.85 L172.35 -18.55 184.25 -19.1 Q191.15 -19.1 204.05 -14.55 L203.5 -13.3 201.95 -12.6 201.35 -12.55 202.05 -12.05 M224.45 -2.45 L229.05 -3.25 228.9 -3.35 224.2 -2.65 224.45 -2.45 M314.1 88.45 L317.15 90.0 316.8 90.6 315.1 90.7 310.35 90.1 Q313.3 89.9 314.2 88.65 L314.1 88.45 M294.3 101.5 Q295.75 102.35 295.9 103.15 L295.0 102.3 293.95 101.35 294.3 101.5 M253.9 107.5 L251.95 108.1 252.05 107.85 253.05 107.15 252.1 107.0 252.0 106.1 252.1 106.55 253.9 107.5 M251.5 18.05 L252.05 17.5 250.35 16.8 249.1 16.3 246.6 16.35 246.25 17.75 251.5 18.05 M247.9 15.15 Q248.65 15.15 248.65 13.35 248.65 9.25 239.05 7.8 L222.65 6.0 222.05 7.75 Q223.95 8.95 235.1 11.75 L247.1 14.8 247.9 15.15 M243.9 22.25 Q242.35 22.85 241.6 23.7 241.7 24.65 242.45 25.15 L243.9 25.7 251.25 25.7 252.95 25.3 256.0 24.25 Q255.55 23.6 252.5 23.05 L243.9 22.25 M283.1 44.1 L281.45 42.3 Q279.4 40.75 276.55 39.95 269.2 37.95 265.2 42.95 L267.3 44.65 270.8 44.25 Q271.7 44.25 274.45 45.0 L275.05 45.6 276.7 45.7 276.75 45.65 281.75 47.25 283.05 47.15 Q283.3 47.1 283.4 46.25 L286.15 46.55 283.1 44.1 M304.5 60.75 L304.95 61.3 302.25 60.2 302.5 60.25 304.5 60.75 M309.05 66.4 L308.95 66.4 309.05 66.4 M297.7 66.15 L297.1 65.75 294.5 65.1 295.35 65.95 297.7 66.15 M225.05 2.3 L223.75 1.25 Q205.75 0.15 202.15 2.3 201.85 2.45 200.5 4.05 199.65 5.0 197.45 5.2 L197.95 5.4 199.9 5.4 207.55 5.15 Q215.7 4.95 225.45 5.05 226.45 4.6 226.7 3.85 L225.05 2.3 M240.25 16.55 Q238.55 15.75 235.1 14.9 227.1 13.0 218.35 14.2 L218.0 14.6 Q217.65 15.1 217.6 15.55 219.85 18.75 229.4 19.1 L240.55 19.25 241.25 19.45 Q241.9 19.4 241.9 18.0 L241.65 17.45 243.6 17.6 241.45 16.5 240.25 16.55 M219.85 42.1 Q222.2 41.8 229.55 45.35 235.7 48.25 237.7 49.75 221.15 42.35 219.85 42.1 M215.95 39.95 Q209.2 40.0 207.35 37.35 L207.85 36.4 208.15 35.9 215.35 35.65 215.35 36.1 225.35 36.55 226.65 37.05 Q227.5 37.6 227.5 39.05 227.5 40.45 227.15 40.45 L226.8 40.15 Q225.45 39.85 215.95 39.95 M196.05 19.1 L195.55 19.2 193.55 18.6 193.35 18.6 195.05 17.75 197.3 18.85 196.05 19.1 M168.75 18.45 L174.8 19.5 173.0 19.65 172.65 19.7 168.75 18.8 168.75 18.45 M175.15 13.5 Q177.9 14.75 180.7 16.4 L175.3 15.4 175.15 13.5 M196.15 37.7 L195.85 37.35 186.25 30.0 Q179.25 24.45 173.85 21.2 177.4 23.2 187.25 27.55 196.45 32.3 196.45 36.35 196.45 37.75 196.15 37.7 M240.35 61.1 L239.85 60.65 Q238.9 60.1 226.25 54.25 213.75 48.5 211.75 47.25 219.25 48.6 228.4 51.85 240.85 56.25 240.85 59.85 240.85 61.25 240.35 61.1 M140.3 17.3 L144.0 17.7 Q141.45 18.35 140.25 19.55 L140.3 17.9 140.3 17.3 M126.45 42.85 L124.85 42.45 121.35 42.05 120.75 41.8 124.9 40.85 128.65 41.0 126.7 42.55 126.45 42.85 M127.35 37.85 Q130.15 37.35 132.55 37.9 L132.4 38.0 129.4 37.9 127.35 37.85 M158.05 38.95 Q155.8 38.95 145.25 37.0 L134.45 34.75 146.8 35.15 Q157.0 36.35 159.4 38.15 L159.55 38.55 Q159.45 38.95 158.05 38.95 M116.85 22.5 L118.0 21.4 Q116.15 18.8 114.1 18.15 111.05 17.1 102.05 17.1 97.6 17.1 92.1 18.9 L91.9 19.0 87.35 23.3 90.55 23.55 92.65 23.5 88.95 25.15 88.65 26.0 88.3 26.45 Q88.3 26.85 90.1 26.85 94.2 26.85 100.85 24.75 103.8 23.85 105.85 22.85 L116.15 23.0 116.85 22.5 M82.2 33.6 Q77.35 35.85 74.6 38.8 L74.55 40.1 Q74.7 40.8 76.45 40.8 78.6 40.8 83.55 38.2 89.6 35.0 90.85 31.3 87.1 31.3 82.2 33.6 M107.65 60.6 L106.0 60.65 108.1 60.1 107.65 60.6 M107.45 62.7 Q114.85 59.05 118.0 59.65 116.35 63.9 99.7 69.4 99.75 66.5 107.45 62.7 M111.05 70.75 L110.6 69.4 Q120.85 57.25 124.7 62.0 L127.35 66.95 Q128.9 70.05 130.75 70.3 130.65 70.9 128.5 71.65 L119.55 71.05 111.05 70.75 M84.8 54.75 Q81.85 53.8 78.3 54.15 L78.2 53.45 78.05 53.6 Q74.1 53.6 68.6 55.35 62.3 57.3 60.05 60.05 L67.85 59.45 69.3 59.25 69.85 60.4 Q70.5 61.2 72.3 61.2 L77.6 60.55 Q83.0 59.5 84.8 57.35 L84.8 54.75 M100.8 72.95 L100.8 73.1 Q108.15 70.1 118.6 72.8 123.0 73.95 126.0 75.7 128.95 77.5 128.95 79.0 128.95 80.4 128.3 80.45 L127.6 80.2 113.45 76.75 100.0 73.45 100.45 73.25 100.8 72.95 M111.95 83.25 L113.35 83.3 111.4 83.7 111.4 83.4 111.95 83.25 M51.95 81.95 Q51.8 82.35 53.6 82.35 71.55 78.3 75.0 76.0 69.6 70.4 61.9 73.95 56.65 76.35 52.45 81.5 L51.95 81.95 M68.1 89.4 Q70.15 89.4 73.3 87.75 L77.3 85.5 Q74.7 82.75 70.4 83.55 66.4 84.3 64.8 87.1 64.95 88.35 65.45 88.8 66.15 89.4 68.1 89.4" fill="#cbc39b" fill-rule="evenodd" stroke="none"/>
    <path d="M128.0 6.1 Q126.9 6.05 126.75 5.75 L126.7 5.7 126.55 4.15 Q133.85 -2.45 148.7 -0.9 154.8 -0.25 158.85 1.7 161.4 2.95 162.45 4.4 164.95 5.2 168.55 7.0 L170.15 7.45 Q170.85 6.1 172.6 4.25 175.0 1.7 178.1 -0.2 163.35 -3.75 159.65 -4.95 165.3 -6.85 174.3 -4.85 178.95 -3.8 182.15 -2.3 190.0 -5.55 197.35 -2.15 197.0 -1.7 195.65 -1.3 L194.4 -1.0 186.55 0.7 186.65 1.1 Q186.45 1.45 185.05 1.45 L184.45 1.3 Q180.3 2.6 177.5 4.15 174.75 5.7 172.55 8.25 176.25 9.6 179.75 11.75 184.75 14.75 184.75 16.2 L184.75 17.1 190.0 18.0 192.45 16.5 190.8 15.75 179.0 10.0 179.2 9.25 Q184.65 7.3 194.05 12.6 L196.15 13.85 197.35 13.1 Q201.55 11.2 218.8 10.7 L219.6 11.65 Q219.7 12.2 218.8 14.05 202.6 14.15 198.6 15.45 200.35 16.65 201.85 17.95 208.8 16.7 213.95 16.7 222.1 16.7 222.1 19.9 222.1 21.25 221.8 21.65 L221.5 22.15 Q215.4 22.4 204.25 25.1 L205.2 26.65 201.75 25.7 198.95 26.4 199.25 27.4 201.3 29.25 203.3 28.6 Q219.35 23.55 227.6 25.75 L227.25 26.9 210.9 31.8 211.95 31.85 Q217.8 31.85 224.45 35.0 L228.95 33.9 238.2 33.6 238.9 33.2 Q228.1 32.1 226.8 31.15 L247.35 30.3 Q252.05 30.7 252.5 32.7 L253.8 32.65 262.3 33.0 263.95 33.65 Q265.15 34.3 266.05 35.35 L266.4 35.8 265.85 36.0 257.8 36.85 247.95 37.45 239.25 37.0 239.05 36.95 238.75 37.0 Q241.2 38.05 243.55 39.6 243.4 40.05 242.55 40.5 L241.2 41.05 233.7 40.65 237.75 43.85 Q240.25 42.55 243.05 41.65 250.45 39.2 260.55 39.05 L263.5 41.65 Q263.25 42.4 262.15 42.85 256.8 42.85 244.75 46.45 L241.75 47.35 243.2 48.7 Q244.95 47.95 246.95 47.4 256.6 44.8 263.95 49.05 262.95 50.05 261.35 50.4 L261.05 50.45 266.2 51.2 Q272.3 52.25 277.25 54.05 282.15 55.85 282.95 57.25 L282.05 58.1 281.5 58.4 Q275.85 56.95 263.15 55.15 L262.65 55.1 Q264.4 56.45 264.4 58.15 264.4 59.55 264.2 59.75 L263.95 59.65 Q260.7 58.05 255.35 56.75 251.3 53.6 248.85 53.8 L250.95 55.8 250.0 55.6 253.05 59.1 254.25 59.05 256.9 61.65 258.5 63.3 256.1 62.85 257.3 64.35 259.45 64.25 264.15 69.1 265.15 68.65 265.1 68.35 Q272.15 70.35 273.95 72.25 L274.05 72.25 Q278.7 72.9 282.0 74.25 L283.1 74.4 Q278.3 69.95 271.2 67.0 L264.95 67.8 Q263.95 64.75 258.6 59.6 L258.2 59.2 Q263.8 59.8 270.15 62.35 282.85 67.4 285.1 73.6 L284.05 74.4 283.75 74.55 285.95 75.0 Q292.05 76.4 297.45 79.2 L297.25 79.9 286.55 78.05 286.55 78.3 286.5 79.8 286.0 79.9 Q285.7 79.05 278.9 77.4 L274.05 76.4 273.35 76.8 Q270.5 75.35 265.85 74.0 253.8 70.4 246.15 72.25 257.9 73.75 268.3 78.4 L265.3 78.65 263.8 81.75 263.7 81.95 263.85 81.95 266.3 82.1 266.35 82.1 269.65 81.85 269.8 81.25 273.75 81.1 275.65 82.15 277.45 82.35 277.6 82.65 277.75 81.25 277.75 81.1 278.05 81.1 291.85 81.55 292.3 81.9 292.4 83.35 Q292.4 84.7 292.1 84.8 L290.95 84.95 279.25 85.3 276.8 84.8 278.65 86.15 279.25 86.25 Q287.45 87.95 289.6 89.8 L288.9 92.25 Q287.45 91.05 279.25 88.55 L278.55 89.2 Q276.0 87.55 268.5 86.15 256.6 83.9 249.55 86.5 L264.4 89.45 270.25 90.65 263.35 90.35 263.3 92.2 Q256.0 88.95 250.5 87.55 243.85 85.85 238.6 86.5 L246.45 88.75 242.4 87.85 237.7 86.6 Q233.55 85.65 230.25 87.25 222.85 85.8 214.35 87.4 L214.75 86.8 215.2 85.75 214.95 84.3 226.45 84.4 Q229.25 84.4 231.3 83.5 L231.35 83.5 233.25 83.35 246.15 82.9 246.5 82.45 Q246.85 82.0 246.85 80.65 246.85 79.6 246.05 78.85 L246.4 78.4 Q245.55 77.85 243.25 77.5 L235.85 76.95 234.3 76.9 Q226.5 76.75 222.75 77.05 L220.85 79.65 221.9 79.7 219.1 80.1 212.55 81.65 Q209.95 79.9 204.85 78.75 L202.65 78.3 203.85 78.3 210.7 77.85 Q216.2 77.5 217.45 77.85 L217.75 77.55 Q218.05 77.3 218.05 75.95 218.05 74.2 217.25 73.55 216.4 72.85 213.8 72.95 L209.35 73.45 209.65 73.3 Q220.35 67.7 220.75 67.6 L221.0 67.9 Q221.2 67.9 221.2 66.5 L221.1 64.95 220.95 65.05 Q213.5 66.25 207.2 69.2 201.7 71.75 198.45 75.0 L194.45 75.6 Q197.9 73.9 199.45 72.7 197.05 68.6 188.4 72.35 L188.3 72.35 186.95 72.3 186.85 72.15 186.05 71.1 Q187.45 69.45 187.45 68.75 187.45 67.75 186.55 66.9 186.0 65.65 184.8 64.35 L197.9 62.8 Q198.45 62.5 199.15 62.4 199.6 62.15 199.6 60.75 L199.55 59.45 199.15 59.2 199.55 58.25 199.6 56.6 185.45 56.7 Q180.35 57.05 176.05 58.4 167.2 53.85 163.35 54.55 L162.55 55.9 162.75 56.15 155.65 56.05 146.8 56.05 146.8 55.8 Q139.5 56.3 134.45 61.0 L134.9 62.2 134.6 62.45 136.0 62.65 Q139.25 62.65 139.7 63.15 L166.3 60.2 166.65 59.95 166.95 59.15 Q169.45 60.65 173.3 62.7 L172.25 63.3 Q167.2 62.85 162.55 63.1 L162.25 63.35 Q161.9 63.55 161.9 64.9 161.9 65.5 162.2 66.0 L161.1 66.65 Q158.4 65.2 155.0 64.4 144.8 62.1 137.25 67.75 139.05 69.9 139.35 69.9 L143.35 69.3 151.45 69.75 Q147.25 70.7 130.75 75.7 L130.15 77.2 Q130.95 77.9 132.55 78.85 134.05 79.75 134.35 79.75 L135.65 79.75 135.55 79.9 135.25 80.9 Q134.65 82.35 136.0 82.7 L138.5 82.8 148.2 82.45 154.55 82.35 Q154.25 82.85 154.25 83.5 147.6 81.85 143.6 83.6 L139.15 83.5 138.95 84.05 Q138.7 84.45 138.7 85.7 132.15 85.6 121.6 87.4 L121.15 88.75 Q122.0 89.55 132.05 92.35 L127.9 94.15 128.4 95.4 Q128.8 96.1 130.15 96.1 136.35 96.1 141.15 94.8 146.55 96.3 150.4 97.7 L147.3 99.2 145.75 98.8 138.3 97.2 138.15 97.75 Q138.45 96.9 138.15 95.65 135.6 95.65 132.2 96.55 L125.8 97.0 125.75 97.0 Q119.85 96.35 114.1 97.75 L113.65 99.25 Q114.15 100.05 123.0 103.2 121.0 103.7 118.7 104.8 L115.65 104.1 Q115.7 105.2 115.3 105.85 L113.7 106.45 114.55 107.05 113.45 107.75 114.35 108.15 111.85 107.1 106.1 109.05 Q97.3 112.05 95.85 112.05 94.45 112.05 94.35 111.65 L94.4 110.35 Q97.2 107.5 107.3 105.05 L103.05 103.0 90.8 103.05 85.2 104.1 79.75 104.75 Q78.35 104.75 78.1 104.3 L78.1 103.85 Q78.2 103.5 78.8 102.75 L79.3 101.7 Q84.2 101.15 85.75 100.4 L87.5 99.35 93.65 98.95 90.2 97.6 88.6 97.75 Q79.9 98.65 70.8 100.8 L74.05 99.05 Q88.6 91.35 93.25 89.45 L92.5 89.55 92.2 89.5 91.3 89.65 87.15 90.55 Q82.25 91.2 78.1 85.6 78.35 84.95 79.45 84.35 80.7 83.65 82.45 83.5 88.85 83.6 92.4 84.6 L93.25 84.0 97.7 85.55 Q103.8 87.4 106.2 87.4 L110.25 86.85 110.5 86.4 Q110.7 86.05 110.7 84.7 L110.65 83.35 110.25 82.6 98.65 81.55 99.55 81.0 98.55 80.8 96.95 81.4 95.8 81.3 Q96.8 79.9 98.55 78.45 L100.1 77.3 94.9 77.1 92.55 77.2 Q92.05 77.1 92.05 76.05 L93.15 75.0 94.95 73.45 97.35 73.4 97.3 72.25 97.35 71.7 95.6 71.55 89.45 71.35 87.4 71.55 Q85.35 72.95 83.7 73.45 83.75 72.75 84.1 71.9 L79.65 71.8 Q82.3 67.9 87.7 65.85 L88.3 65.65 Q90.95 62.9 92.6 64.6 L97.35 64.25 98.25 64.0 101.55 63.25 100.8 63.25 Q99.4 63.25 98.3 62.7 L97.95 62.45 96.55 62.55 95.05 62.45 94.05 62.8 Q92.55 62.15 86.55 63.85 L80.65 65.7 78.95 65.55 71.45 69.1 71.35 68.65 Q72.65 66.6 76.95 64.25 L77.2 63.55 Q80.0 61.45 85.55 60.75 L89.5 60.5 93.2 60.85 Q94.45 59.8 98.05 57.9 102.7 55.5 107.25 53.8 110.75 52.5 113.3 52.0 L110.2 51.15 111.35 50.7 113.55 49.65 Q117.25 48.3 131.3 47.5 L131.65 47.45 Q131.95 47.35 131.95 46.0 131.95 44.6 131.75 44.6 L131.5 44.9 Q118.3 44.6 114.1 46.05 111.5 46.95 108.6 50.75 L104.5 49.6 104.2 50.35 103.05 50.5 Q98.7 50.2 93.35 52.1 L91.6 53.1 91.3 53.0 87.2 54.8 Q85.8 54.8 85.4 54.3 L85.3 53.8 85.5 53.1 Q87.2 50.25 92.05 48.35 L93.25 47.95 95.95 46.65 Q94.9 46.15 94.4 45.7 99.15 43.35 105.0 43.55 L98.45 41.5 Q104.95 37.5 116.8 40.6 L121.7 38.8 Q119.15 38.35 116.2 35.8 L116.65 34.3 Q128.1 31.45 131.8 32.9 L132.05 33.0 136.65 33.05 139.15 33.1 139.3 32.95 Q137.25 32.45 133.95 29.95 L120.15 28.9 117.3 29.2 116.1 29.3 Q109.45 30.95 103.85 33.0 L94.75 36.7 Q94.05 36.4 93.65 35.95 L93.4 35.55 Q95.85 32.1 102.95 29.3 110.95 26.05 118.9 26.45 L118.9 26.85 Q123.35 25.75 128.9 25.65 L127.15 23.85 Q128.7 23.65 134.7 25.85 L137.75 26.1 Q143.85 26.75 147.85 27.95 L150.3 26.95 153.8 24.7 161.9 27.15 175.95 30.85 177.4 30.95 Q177.75 30.9 177.75 29.5 177.75 27.5 168.15 24.85 158.05 22.05 150.65 23.25 L139.3 21.25 Q139.4 20.6 139.8 20.1 136.05 20.4 128.9 22.75 L121.4 25.1 Q120.0 25.1 119.95 24.75 L120.15 24.4 119.7 22.95 Q121.6 20.5 130.25 17.95 L135.3 16.55 Q132.1 16.0 131.65 15.55 135.2 10.85 152.05 12.5 158.75 13.15 163.5 14.6 166.4 12.2 169.05 11.05 167.65 10.55 166.25 10.2 157.4 8.3 151.45 6.3 L153.0 5.3 Q145.9 3.7 135.8 3.7 134.75 3.7 131.5 4.9 L128.35 6.1 128.0 6.1 M299.0 102.05 L296.8 102.4 294.3 101.5 293.95 101.35 295.0 102.3 295.9 103.15 295.9 103.3 Q295.9 104.65 295.55 104.7 L294.4 104.85 Q289.85 102.25 282.95 99.75 L282.45 99.65 278.8 99.15 277.1 99.7 270.9 101.8 Q275.6 102.25 279.05 103.3 282.65 104.4 286.35 106.75 291.05 109.65 292.3 110.25 L291.6 110.95 Q287.65 110.3 284.15 108.9 L277.9 106.55 272.65 105.35 269.45 106.05 264.25 106.55 258.3 106.05 257.7 106.25 Q260.8 107.4 263.35 108.9 L263.05 109.6 254.2 107.4 253.9 107.5 252.1 106.55 252.0 106.1 252.1 107.0 252.05 107.85 251.95 108.1 Q251.8 108.45 251.5 108.45 L250.9 108.25 244.2 106.2 243.75 106.4 Q247.15 107.65 250.45 109.45 L250.25 109.65 Q253.0 110.5 255.6 111.75 L265.45 112.95 266.75 113.2 Q272.7 114.5 278.55 117.7 L278.1 118.35 269.85 115.5 Q267.2 114.55 264.9 114.15 L258.95 113.6 Q261.6 115.25 264.05 117.45 L263.6 118.15 Q257.7 114.5 249.4 112.75 L243.15 112.15 246.7 114.2 236.35 111.7 Q236.25 112.35 236.0 112.4 L234.9 112.5 231.1 111.6 Q232.0 112.3 232.0 112.95 L231.95 113.85 228.55 110.0 Q234.15 107.95 239.75 105.4 L225.65 106.8 224.8 105.85 230.3 105.75 Q230.4 105.35 230.15 105.0 L229.95 104.65 230.15 104.95 235.35 105.2 239.7 104.9 Q242.4 104.55 242.9 104.05 237.3 99.75 224.5 101.8 L224.35 101.8 225.1 101.05 223.25 99.05 Q221.45 98.1 216.5 97.65 L214.6 96.05 218.25 94.55 220.6 94.85 222.95 94.65 224.65 94.15 225.25 93.0 Q228.15 93.4 230.75 94.5 L231.05 94.65 229.85 94.6 226.35 97.2 226.15 97.9 Q231.4 100.05 239.6 100.15 L248.3 100.45 249.4 100.35 Q249.75 100.3 249.75 98.9 249.75 97.4 249.1 96.75 L247.5 95.75 240.4 95.05 235.2 94.75 233.25 93.8 230.3 92.0 Q228.6 91.1 225.7 91.2 228.25 89.9 230.0 88.8 231.7 89.85 234.25 90.3 L240.75 90.7 243.7 90.2 247.55 89.05 264.05 93.85 264.25 93.3 267.85 93.15 273.05 92.1 Q274.75 92.05 276.3 92.7 L283.35 93.0 284.9 93.35 285.4 93.5 Q289.25 94.65 291.05 97.2 L291.0 97.35 298.15 97.8 Q299.8 97.85 300.25 98.45 300.8 99.15 300.25 101.05 L299.15 101.95 299.0 102.05 M232.6 114.6 L233.35 114.8 232.8 114.85 232.6 114.6 M243.5 116.25 L248.95 116.35 255.2 117.35 Q257.2 117.8 257.2 119.5 257.2 120.85 256.85 120.9 L255.7 121.05 248.5 120.2 250.2 121.05 250.05 121.4 248.2 121.75 241.1 120.1 245.25 118.7 245.5 117.55 Q244.6 116.8 243.5 116.25 M237.5 126.2 Q237.5 127.5 237.0 127.4 L236.6 127.1 236.95 127.35 237.2 126.9 237.5 126.2 M121.1 121.0 L121.05 120.95 Q121.7 119.85 123.0 118.95 L121.1 121.0 M126.05 115.85 L121.6 115.75 118.15 115.95 Q116.2 116.0 115.45 115.3 L115.55 114.55 Q123.65 112.55 129.55 112.35 L126.05 115.85 M131.15 110.75 L130.0 110.15 130.85 110.55 131.6 110.3 131.15 110.75 M102.8 116.4 L102.6 115.9 105.75 113.6 102.8 116.4 M291.0 63.6 L296.35 67.15 295.75 67.6 Q288.7 64.7 284.55 63.25 277.1 60.65 266.85 60.85 L266.4 59.4 Q273.65 57.3 280.55 59.0 283.45 59.75 286.65 61.25 288.75 62.25 291.0 63.6 M270.85 98.0 L263.45 96.95 Q260.4 98.2 256.9 99.9 L262.8 101.5 Q266.6 99.6 270.85 98.0 M225.05 2.3 L226.7 3.85 Q226.45 4.6 225.45 5.05 215.7 4.95 207.55 5.15 L199.9 5.4 197.95 5.4 197.45 5.2 Q199.65 5.0 200.5 4.05 201.85 2.45 202.15 2.3 205.75 0.15 223.75 1.25 L225.05 2.3 M241.65 17.45 L241.9 18.0 Q241.9 19.4 241.25 19.45 L240.55 19.25 229.4 19.1 Q219.85 18.75 217.6 15.55 217.65 15.1 218.0 14.6 L218.35 14.2 Q227.1 13.0 235.1 14.9 238.55 15.75 240.25 16.55 241.25 17.0 241.65 17.45 M215.95 39.95 Q225.45 39.85 226.8 40.15 L227.15 40.45 Q227.5 40.45 227.5 39.05 227.5 37.6 226.65 37.05 L225.35 36.55 215.35 36.1 215.35 35.65 208.15 35.9 207.85 36.4 207.35 37.35 Q209.2 40.0 215.95 39.95 M219.85 42.1 Q221.15 42.35 237.7 49.75 235.7 48.25 229.55 45.35 222.2 41.8 219.85 42.1 M196.05 19.1 L197.3 18.85 195.05 17.75 193.35 18.6 193.55 18.6 195.55 19.2 196.05 19.1 M175.15 13.5 L175.3 15.4 180.7 16.4 Q177.9 14.75 175.15 13.5 M168.75 18.45 L168.75 18.8 172.65 19.7 173.0 19.65 174.8 19.5 168.75 18.45 M169.1 44.65 Q163.4 45.1 158.95 46.4 154.1 47.75 153.35 49.4 L153.25 50.1 Q150.55 48.8 146.15 47.95 138.8 46.5 136.15 49.4 L135.8 50.85 136.0 52.05 Q136.2 52.75 137.6 52.75 148.9 52.75 150.55 52.45 152.0 52.2 154.2 50.75 L154.35 50.75 161.0 49.95 Q166.75 49.4 182.95 50.2 L183.1 49.75 183.25 47.95 183.15 47.25 Q185.55 48.6 189.9 50.3 201.85 54.9 203.65 55.8 204.9 55.4 205.3 54.95 205.9 54.3 205.9 52.75 205.9 48.7 194.85 45.5 L183.5 43.1 181.65 43.15 180.7 43.55 180.35 45.0 180.5 45.15 169.1 44.65 M196.15 37.7 Q196.45 37.75 196.45 36.35 196.45 32.3 187.25 27.55 177.4 23.2 173.85 21.2 179.25 24.45 186.25 30.0 L195.85 37.35 196.15 37.7 M194.2 68.65 L202.75 66.85 Q211.65 64.85 216.8 64.15 216.25 63.8 215.7 63.55 219.25 64.05 226.85 66.15 L237.95 69.4 238.6 68.75 Q237.0 64.25 226.95 62.85 L212.7 62.4 Q208.05 61.1 202.3 62.3 194.65 63.9 191.95 67.75 L192.45 68.45 194.2 68.65 M176.65 75.0 L181.45 75.05 182.25 75.65 180.3 77.2 Q179.25 76.1 176.65 75.0 M173.45 82.55 L177.1 82.7 Q179.8 82.7 180.65 80.8 L181.25 80.8 181.65 80.75 185.2 81.85 Q179.95 82.4 176.15 84.0 L173.45 82.55 M198.6 97.3 L198.7 97.25 198.65 97.3 198.6 97.3 M240.35 61.1 Q240.85 61.25 240.85 59.85 240.85 56.25 228.4 51.85 219.25 48.6 211.75 47.25 213.75 48.5 226.25 54.25 238.9 60.1 239.85 60.65 L240.35 61.1 M225.35 57.05 Q225.35 53.45 218.65 54.2 208.85 56.0 202.6 56.6 L201.95 57.95 Q202.45 59.85 205.2 59.85 L213.6 59.05 223.9 58.6 225.05 58.5 Q225.35 58.45 225.35 57.05 M237.4 72.25 L226.55 71.4 Q220.95 71.1 218.5 71.45 L228.4 72.8 239.65 73.7 237.4 72.25 M205.3 87.3 L205.3 87.2 210.1 88.3 208.0 88.9 204.0 90.25 204.1 90.15 Q205.3 88.95 205.3 87.3 M227.7 100.85 L226.4 100.1 225.4 100.5 227.7 100.85 M222.1 102.15 L222.15 102.15 222.3 102.15 222.55 102.15 221.45 102.4 221.1 102.05 221.7 102.1 221.55 102.15 222.1 102.15 M127.35 37.85 L129.4 37.9 132.4 38.0 132.55 37.9 Q130.15 37.35 127.35 37.85 M126.45 42.85 L126.7 42.55 128.65 41.0 124.9 40.85 120.75 41.8 121.35 42.05 124.85 42.45 126.45 42.85 M140.3 17.3 L140.3 17.9 140.25 19.55 Q141.45 18.35 144.0 17.7 L140.3 17.3 M158.05 38.95 Q159.45 38.95 159.55 38.55 L159.4 38.15 Q157.0 36.35 146.8 35.15 L134.45 34.75 145.25 37.0 Q155.8 38.95 158.05 38.95 M107.65 60.6 L108.1 60.1 106.0 60.65 107.65 60.6 M111.05 70.75 L119.55 71.05 128.5 71.65 Q130.65 70.9 130.75 70.3 128.9 70.05 127.35 66.95 L124.7 62.0 Q120.85 57.25 110.6 69.4 L111.05 70.75 M107.45 62.7 Q99.75 66.5 99.7 69.4 116.35 63.9 118.0 59.65 114.85 59.05 107.45 62.7 M111.95 83.25 L111.4 83.4 111.4 83.7 113.35 83.3 111.95 83.25 M100.8 72.95 L100.45 73.25 100.0 73.45 113.45 76.75 127.6 80.2 128.3 80.45 Q128.95 80.4 128.95 79.0 128.95 77.5 126.0 75.7 123.0 73.95 118.6 72.8 108.15 70.1 100.8 73.1 L100.8 72.95 M109.35 94.75 L114.15 95.2 113.65 95.25 118.1 96.05 Q123.95 96.05 129.95 92.05 122.9 89.35 117.85 89.2 110.85 89.0 106.75 93.4 108.2 94.45 109.35 94.75 M113.0 96.05 Q113.4 97.95 113.4 95.35 112.9 95.55 113.0 96.05 M153.25 70.05 L155.15 70.55 156.75 71.05 156.15 72.1 155.3 72.3 Q150.55 73.55 150.55 77.2 150.55 77.65 151.35 78.1 L142.95 78.55 142.1 78.65 146.95 76.85 Q153.25 74.0 153.25 71.35 L153.25 70.05 M133.65 107.4 L133.4 106.75 134.7 107.25 133.65 107.4 M109.05 103.05 L110.7 104.25 113.8 103.65 111.25 103.0 108.95 103.0 109.05 103.05" fill="#9e9878" fill-rule="evenodd" stroke="none"/>
    <path d="M36.75 70.9 Q43.3 66.4 49.15 64.1 L49.05 63.9 Q49.8 61.75 51.95 59.4 L50.65 59.65 Q49.25 59.65 49.2 59.2 L49.3 58.15 Q54.25 53.4 61.45 51.3 L64.8 47.4 61.75 48.15 63.85 46.0 63.45 45.35 64.2 44.55 64.15 44.45 Q64.45 43.2 65.4 41.85 L65.35 41.85 62.8 41.35 Q61.95 40.95 61.75 40.4 L63.0 39.2 60.6 39.4 57.6 39.5 Q61.85 35.75 68.35 35.6 69.75 34.8 71.45 33.95 L71.2 34.0 70.25 33.25 70.0 32.85 Q71.95 31.8 74.15 29.75 L75.4 28.6 64.0 26.45 64.25 25.65 Q65.5 24.9 67.4 24.65 70.4 22.3 76.15 22.65 L81.45 23.4 Q82.75 22.55 84.15 21.9 L89.45 18.2 Q88.15 17.95 87.55 17.55 L88.6 17.05 84.4 18.1 80.0 19.4 79.55 19.7 79.2 19.65 Q75.75 20.7 74.5 21.4 L73.7 20.65 73.45 20.25 Q75.8 17.6 80.05 15.4 82.25 12.55 84.8 10.15 76.2 7.1 73.6 5.05 80.45 3.9 89.75 6.15 93.15 3.8 96.7 2.55 L98.75 0.95 100.55 -0.3 94.95 -1.05 Q88.6 -2.1 85.6 -3.95 L85.95 -4.95 86.2 -5.4 Q88.8 -7.45 96.0 -7.35 L98.8 -7.2 97.65 -7.75 97.9 -8.55 Q101.5 -9.25 107.7 -6.65 111.35 -9.55 116.1 -10.95 121.65 -12.6 128.05 -12.1 L128.05 -12.15 128.2 -12.35 Q124.8 -13.7 121.65 -14.25 L106.0 -17.3 106.2 -18.0 Q113.6 -23.35 131.6 -15.6 133.0 -16.55 134.8 -17.25 120.65 -21.55 106.9 -22.7 111.25 -27.05 120.95 -26.45 129.4 -25.9 139.8 -21.85 L145.9 -19.2 148.85 -19.2 143.15 -22.75 139.3 -23.05 139.7 -24.3 136.6 -25.2 137.25 -26.65 Q143.15 -28.6 152.55 -22.35 L154.25 -21.8 Q146.55 -29.35 143.1 -33.05 151.8 -30.15 160.55 -21.0 L168.75 -21.45 Q159.25 -28.35 151.3 -31.6 163.45 -30.5 175.45 -22.6 181.0 -23.7 190.35 -19.1 L190.85 -19.1 Q188.25 -25.95 184.75 -31.15 L184.95 -32.15 185.65 -32.15 191.55 -19.05 193.0 -19.0 Q203.2 -24.7 216.0 -24.05 211.8 -22.25 205.35 -18.35 L212.0 -16.8 Q215.9 -15.65 219.85 -13.9 228.2 -17.85 236.5 -19.55 235.15 -17.05 225.95 -12.4 230.3 -11.1 232.75 -7.15 L233.3 -6.8 242.6 -6.2 Q248.7 -10.5 255.6 -12.8 L255.6 -10.7 Q252.05 -8.35 246.2 -2.65 256.85 -1.05 256.85 2.8 L256.65 4.0 Q258.8 4.95 260.95 6.2 L262.1 6.9 262.25 7.0 262.35 7.05 264.25 7.25 264.4 7.3 265.1 6.9 265.3 6.75 267.05 5.8 Q269.9 4.3 272.6 3.5 L272.8 6.1 272.9 6.5 271.8 6.85 271.35 6.85 Q270.2 6.85 267.7 8.7 L268.0 9.55 267.8 10.9 267.85 10.95 268.4 11.4 Q272.0 14.3 275.6 18.15 L275.95 18.2 Q280.1 14.6 283.95 13.4 L279.9 19.0 281.05 19.35 281.1 19.25 281.15 20.8 281.0 22.2 280.8 21.95 279.0 21.95 284.2 28.5 285.15 29.8 Q291.7 31.15 291.7 32.95 291.7 34.35 291.5 34.3 L291.25 34.0 287.9 33.5 289.9 36.3 293.85 34.2 294.1 34.9 290.6 37.3 293.95 41.9 298.45 44.65 298.7 45.0 Q298.65 45.35 297.25 45.35 L294.2 45.05 294.6 45.65 Q298.25 45.15 300.25 46.25 L300.25 47.7 296.0 48.45 296.15 49.1 Q299.2 49.7 301.85 50.55 309.6 53.05 309.6 55.8 309.6 57.2 309.4 57.2 L309.15 56.95 Q306.05 55.55 300.75 54.2 L299.05 53.8 298.5 53.7 296.95 51.85 294.0 51.95 297.4 53.45 297.4 53.5 297.1 53.4 297.05 53.4 295.75 53.9 295.3 53.7 294.3 54.1 293.05 53.65 292.1 52.55 289.25 52.15 290.9 53.15 294.05 55.3 287.7 53.1 284.9 52.15 277.4 52.3 Q275.55 52.3 274.6 51.6 274.2 51.35 273.55 50.3 L274.1 48.4 Q277.65 47.1 289.85 48.05 L294.05 48.45 288.7 42.25 288.1 41.6 Q287.95 42.25 287.55 42.15 L286.9 41.65 283.35 40.0 279.05 39.2 Q269.3 37.4 265.85 36.0 L266.4 35.8 266.05 35.35 Q265.15 34.3 263.95 33.65 264.0 32.75 264.25 32.6 264.45 32.5 264.6 32.75 269.55 32.2 281.5 34.45 L280.9 33.8 281.45 33.8 283.55 34.15 Q284.95 34.6 285.65 35.6 L285.7 35.7 285.75 35.75 285.8 35.8 285.85 35.9 285.9 35.95 285.95 36.05 286.0 36.1 286.05 36.2 286.05 36.25 286.1 36.35 286.1 36.45 286.15 36.5 286.15 36.6 286.2 36.7 286.2 36.8 286.2 36.85 286.25 37.0 286.3 37.4 286.3 37.55 286.3 37.65 286.3 37.8 286.3 37.9 286.3 37.95 286.8 38.3 288.55 37.15 285.25 33.15 279.45 32.35 Q276.5 29.45 274.8 28.3 L281.6 29.15 276.3 24.0 273.95 27.25 273.65 27.65 272.95 27.45 262.75 27.85 Q259.65 27.25 259.1 22.75 L255.15 22.35 Q249.55 21.7 248.65 20.8 L248.8 19.8 Q256.05 18.25 258.25 19.35 L259.05 19.85 Q259.35 17.6 260.95 14.9 L261.7 15.4 Q262.65 16.15 262.8 16.9 L262.8 17.05 262.8 17.2 262.8 17.8 264.4 18.75 269.2 18.0 262.35 13.3 261.35 14.25 261.75 13.65 Q257.45 10.2 248.1 5.25 L241.0 4.65 240.95 4.65 240.85 4.55 239.35 4.25 239.1 4.5 237.6 4.45 Q235.85 4.45 234.4 5.3 L232.3 6.6 Q230.8 5.9 230.25 4.15 L230.3 4.1 230.95 4.35 231.25 4.35 232.15 3.3 230.95 3.25 Q233.2 0.7 237.55 -0.1 L226.7 -5.2 221.35 -7.6 221.15 -7.7 220.8 -7.85 219.25 -7.6 218.1 -7.5 216.6 -7.45 204.8 -7.65 193.75 -8.45 193.65 -9.8 193.3 -8.75 Q192.2 -9.15 186.45 -12.15 L186.2 -12.3 185.95 -11.6 Q185.85 -11.2 184.1 -11.2 174.45 -11.2 152.95 -15.15 L149.9 -14.35 154.8 -14.35 156.5 -13.2 Q157.4 -12.25 157.4 -11.6 L156.65 -10.75 151.05 -10.2 Q149.05 -10.2 147.45 -10.75 L146.8 -11.0 147.25 -11.2 148.75 -11.75 149.2 -11.9 147.75 -12.55 147.45 -12.55 145.9 -12.65 146.15 -13.2 144.55 -12.7 143.8 -12.7 138.65 -12.15 140.3 -11.2 141.8 -10.25 143.85 -10.6 Q146.75 -9.55 148.95 -7.85 158.05 -6.45 160.85 -3.85 L160.4 -2.55 Q160.5 -2.35 160.25 -2.2 L157.95 -1.85 Q155.05 -1.85 147.3 -3.7 142.7 -4.8 140.0 -5.85 L130.0 -6.15 128.6 -6.2 125.1 -4.45 Q120.45 -2.05 116.0 0.7 118.95 0.55 123.75 0.7 L123.75 2.3 Q123.3 2.8 119.7 3.4 L113.95 4.0 111.25 3.95 113.65 2.15 113.8 2.05 114.45 1.6 111.8 1.1 110.7 1.15 Q109.35 1.15 109.25 0.75 L108.15 0.6 104.65 2.35 104.65 2.5 Q104.65 3.9 104.45 3.9 L104.2 3.6 Q100.05 4.75 96.4 6.65 101.45 5.35 106.75 5.45 L108.6 5.55 109.15 5.6 109.45 5.35 111.05 4.1 116.3 4.3 Q122.8 4.7 126.7 5.75 L126.75 5.75 Q126.9 6.05 128.0 6.1 132.65 7.65 132.65 10.35 132.65 12.05 132.2 12.1 L130.8 12.2 Q128.3 11.3 123.25 11.3 L113.65 11.6 106.95 11.3 104.5 12.1 101.05 13.7 96.3 15.05 Q88.35 21.85 80.95 29.9 75.35 36.0 70.5 42.4 L77.65 42.75 Q79.85 40.6 83.3 40.65 87.25 40.7 90.55 43.4 90.25 44.4 88.95 44.95 L82.55 45.25 79.35 45.75 79.05 46.55 78.75 46.1 Q74.05 46.95 65.0 49.95 58.5 59.4 53.5 69.4 L55.05 68.4 Q63.55 63.05 69.1 61.8 L69.9 62.85 Q70.7 63.75 70.7 64.25 L57.75 72.55 60.35 72.85 Q58.35 73.95 57.6 74.25 L55.05 74.6 55.3 74.15 49.5 78.0 48.05 81.65 46.3 81.4 45.35 81.25 44.85 81.1 Q42.05 80.4 41.65 79.55 L41.95 78.1 49.85 77.25 50.45 77.15 50.5 75.75 50.7 73.05 49.75 72.5 Q48.85 71.8 48.55 70.85 L47.65 70.45 Q40.9 72.45 36.45 72.45 L36.2 72.45 36.75 70.9 M204.05 -14.55 Q191.15 -19.1 184.25 -19.1 L172.35 -18.55 178.9 -16.85 Q182.15 -18.65 187.3 -16.1 193.0 -13.3 193.7 -10.4 195.9 -12.1 201.55 -12.4 L202.05 -12.05 205.35 -9.5 205.6 -9.3 211.85 -11.6 212.7 -11.85 Q208.2 -13.8 204.1 -15.15 L204.05 -14.55 M178.95 -9.6 L179.25 -9.1 179.4 -8.15 Q177.55 -7.95 175.5 -8.1 L173.05 -8.45 Q173.25 -8.9 175.3 -9.25 L178.95 -9.6 M214.0 -6.6 L213.95 -6.6 214.95 -6.35 215.75 -6.4 218.7 -5.75 Q220.45 -5.15 222.65 -3.3 222.35 -2.4 220.8 -2.4 218.35 -2.7 214.45 -1.7 L202.8 -1.7 201.95 -4.15 Q202.5 -5.7 203.95 -6.45 209.85 -7.0 214.0 -6.6 M313.45 72.55 Q319.75 76.75 327.15 80.2 L326.8 81.25 318.3 78.45 317.2 78.05 317.2 78.0 316.75 77.85 Q318.2 79.3 318.4 80.85 L309.9 79.15 Q300.55 77.3 297.95 73.85 L298.6 72.6 299.0 72.0 Q309.65 73.35 315.05 74.9 L313.45 72.55 M238.95 -3.4 L240.8 -4.9 236.9 -4.45 238.4 -3.45 238.95 -3.4 M319.7 81.7 Q322.9 84.0 322.9 85.85 L322.9 86.25 321.5 84.4 319.7 81.7 M308.05 85.2 L308.85 85.55 311.25 86.85 311.6 87.05 314.1 88.45 314.2 88.65 Q313.3 89.9 310.35 90.1 L309.1 89.75 303.95 88.2 302.7 88.85 Q299.55 87.9 297.4 86.65 L298.25 84.2 Q302.3 83.65 307.55 85.05 L308.05 85.2 M45.1 90.1 L42.35 90.7 42.2 90.7 Q40.8 90.7 40.6 89.95 L40.5 88.55 Q41.7 85.65 46.85 84.95 L45.3 90.0 45.1 90.1 M269.8 22.65 L270.7 23.5 271.65 22.4 269.8 22.65 M291.05 40.55 L289.35 38.2 287.95 39.15 288.4 39.45 288.55 39.55 291.05 40.55 M243.9 22.25 L252.5 23.05 Q255.55 23.6 256.0 24.25 L252.95 25.3 251.25 25.7 243.9 25.7 242.45 25.15 Q241.7 24.65 241.6 23.7 242.35 22.85 243.9 22.25 M247.9 15.15 L247.1 14.8 235.1 11.75 Q223.95 8.95 222.05 7.75 L222.65 6.0 239.05 7.8 Q248.65 9.25 248.65 13.35 248.65 15.15 247.9 15.15 M265.05 27.45 L267.35 27.6 267.9 26.85 263.95 23.9 263.0 24.2 Q264.45 25.65 265.05 27.45 M274.45 45.0 Q271.7 44.25 270.8 44.25 L267.3 44.65 265.2 42.95 Q269.2 37.95 276.55 39.95 279.4 40.75 281.45 42.3 L283.1 44.1 282.0 43.25 278.4 45.8 279.05 45.85 283.2 46.25 283.4 46.25 Q283.3 47.1 283.05 47.15 L281.75 47.25 276.75 45.65 280.95 42.5 280.75 42.35 277.0 42.2 Q276.9 43.25 276.4 43.6 L274.75 44.2 272.8 42.15 271.55 42.1 274.45 45.0 M286.65 61.25 Q285.05 60.0 284.3 58.5 L284.9 57.3 285.3 56.75 Q290.45 56.55 297.95 58.8 L298.75 59.75 302.25 60.2 304.95 61.3 304.5 60.75 Q309.6 62.4 309.6 66.25 L309.55 67.1 309.1 68.05 307.7 68.5 306.25 68.15 306.4 68.25 307.3 68.7 Q299.9 67.45 296.4 65.25 L296.45 65.15 294.75 64.75 291.0 63.6 Q288.75 62.25 286.65 61.25 M309.05 66.4 L308.95 66.4 309.05 66.4 M82.2 33.6 Q87.1 31.3 90.85 31.3 89.6 35.0 83.55 38.2 78.6 40.8 76.45 40.8 74.7 40.8 74.55 40.1 L74.6 38.8 Q77.35 35.85 82.2 33.6 M116.85 22.5 L116.15 23.0 105.85 22.85 Q103.8 23.85 100.85 24.75 94.2 26.85 90.1 26.85 88.3 26.85 88.3 26.45 L88.65 26.0 88.95 25.15 92.65 23.5 90.55 23.55 87.35 23.3 91.9 19.0 92.1 18.9 Q97.6 17.1 102.05 17.1 111.05 17.1 114.1 18.15 116.15 18.8 118.0 21.4 L116.85 22.5 M84.8 54.75 L84.8 57.35 Q83.0 59.5 77.6 60.55 L72.3 61.2 Q70.5 61.2 69.85 60.4 L69.3 59.25 67.85 59.45 60.05 60.05 Q62.3 57.3 68.6 55.35 74.1 53.6 78.05 53.6 L78.2 53.45 78.3 54.15 Q81.85 53.8 84.8 54.75 M51.95 81.95 L52.45 81.5 Q56.65 76.35 61.9 73.95 69.6 70.4 75.0 76.0 71.55 78.3 53.6 82.35 51.8 82.35 51.95 81.95 M68.1 89.4 Q66.15 89.4 65.45 88.8 64.95 88.35 64.8 87.1 66.4 84.3 70.4 83.55 74.7 82.75 77.3 85.5 L73.3 87.75 Q70.15 89.4 68.1 89.4" fill="#ded8b6" fill-rule="evenodd" stroke="none"/>
  </g>
</svg>
