<?xml version="1.0" encoding="UTF-8" standalone="no"?>
<svg xmlns:ffdec="https://www.free-decompiler.com/flash" xmlns:xlink="http://www.w3.org/1999/xlink" ffdec:objectType="shape" height="24.45px" width="217.8px" xmlns="http://www.w3.org/2000/svg">
  <g transform="matrix(1.0, 0.0, 0.0, 1.0, -6.75, -78.35)">
    <path d="M187.6 91.7 Q183.8 94.3 183.15 94.3 L175.7 95.45 Q172.05 96.1 162.65 95.5 163.25 97.35 162.3 98.85 160.5 101.75 152.9 101.75 L150.45 101.55 Q147.75 102.8 145.0 102.8 137.35 102.8 131.2 101.25 L129.0 101.25 Q125.55 100.95 123.75 99.5 L122.9 98.5 Q119.6 98.5 118.55 97.75 118.05 97.4 118.05 96.6 L118.15 96.1 114.65 97.05 Q110.85 98.25 108.75 98.25 L94.8 97.3 Q90.6 96.45 89.8 94.55 L81.5 93.65 Q79.3 92.75 76.75 92.25 76.45 95.3 72.0 96.75 L66.5 97.75 50.5 97.75 Q46.3 96.15 38.7 94.75 35.5 94.15 35.5 91.55 35.5 90.55 36.5 90.3 39.65 89.6 43.3 88.0 L39.95 87.6 Q36.75 87.15 36.25 86.3 L31.8 86.3 32.0 86.85 Q31.65 88.5 31.15 88.95 30.45 89.5 28.25 89.5 15.0 89.5 10.0 87.75 6.75 86.6 6.75 84.4 6.75 82.3 8.25 81.8 L16.5 81.3 Q19.6 81.3 21.2 82.05 L22.3 82.75 Q23.6 82.75 24.05 82.35 L24.75 81.5 Q26.05 80.25 32.25 80.25 L33.1 79.4 Q34.1 78.55 37.25 78.55 44.25 78.55 45.75 80.5 59.2 80.8 60.95 82.85 61.5 83.5 60.85 84.6 L59.75 86.25 59.55 86.3 64.8 86.75 Q63.8 84.35 65.9 83.25 68.35 82.0 75.75 82.0 99.9 82.0 104.9 86.0 L106.95 88.75 Q107.75 90.0 110.3 90.0 L112.5 89.8 Q112.35 88.45 114.9 86.3 117.9 83.8 121.75 83.8 130.0 83.8 134.3 86.75 142.6 86.8 146.3 90.0 148.9 87.9 159.8 85.45 171.25 82.95 174.65 80.75 180.85 76.75 194.55 79.4 L204.5 81.7 211.55 83.0 215.75 82.4 219.9 81.8 Q222.3 81.8 223.65 83.05 L224.55 84.35 Q224.55 85.5 216.8 87.85 208.75 90.25 203.65 90.25 L197.5 89.65 191.35 89.05 187.6 91.7" fill="#000000" fill-opacity="0.23137255" fill-rule="evenodd" stroke="none"/>
  </g>
</svg>
