<?xml version="1.0" encoding="UTF-8" standalone="no"?>
<svg xmlns:ffdec="https://www.free-decompiler.com/flash" xmlns:xlink="http://www.w3.org/1999/xlink" ffdec:objectType="shape" height="805.65px" width="2032.4px" xmlns="http://www.w3.org/2000/svg">
  <g transform="matrix(1.0, 0.0, 0.0, 1.0, -512.8, -619.2)">
    <path d="M692.2 639.5 L692.35 639.7 692.2 639.8 Q690.3 640.95 690.3 641.75 677.25 642.35 664.5 644.2 L662.2 644.55 657.9 646.35 Q641.3 653.1 622.75 653.1 L613.2 652.65 612.85 652.65 Q591.35 652.65 569.35 645.9 L563.8 644.1 Q552.0 639.95 549.1 636.25 543.5 633.25 542.9 631.1 L533.4 627.45 512.8 619.45 Q518.85 618.5 530.05 621.25 534.45 618.1 544.05 620.55 L548.2 621.8 Q552.05 622.35 558.85 624.45 L563.8 626.05 578.55 630.85 Q607.45 640.1 622.75 640.1 640.9 640.1 647.35 636.8 650.0 635.15 651.4 634.55 653.8 633.5 657.95 633.5 L665.75 634.0 Q670.35 634.5 673.15 635.15 L673.15 636.25 Q688.65 635.2 692.2 639.5 M2387.2 1382.5 Q2374.1 1375.6 2371.0 1373.05 2371.5 1372.45 2372.95 1372.25 L2374.3 1372.05 Q2377.9 1372.05 2390.9 1378.55 L2397.7 1382.15 Q2402.4 1382.05 2407.65 1384.6 2411.4 1386.45 2414.0 1388.95 2416.5 1391.4 2416.5 1393.05 2416.5 1396.3 2422.25 1401.25 L2424.95 1403.7 Q2443.25 1410.65 2462.6 1411.55 L2468.35 1411.65 Q2495.95 1411.65 2513.35 1403.7 2524.55 1398.55 2525.5 1398.25 2532.5 1395.75 2541.05 1395.75 2543.65 1395.75 2544.2 1396.3 L2545.2 1397.8 Q2545.2 1400.3 2544.8 1401.5 2543.8 1402.05 2535.0 1407.85 2527.75 1412.6 2521.0 1415.6 L2514.35 1418.2 Q2495.05 1424.85 2467.35 1424.85 L2462.6 1424.8 Q2439.45 1424.25 2423.95 1418.2 2418.55 1416.1 2414.05 1413.3 2409.7 1410.6 2406.6 1407.5 L2405.15 1406.9 Q2400.55 1404.9 2398.45 1402.05 2397.15 1400.3 2395.25 1395.1 2392.95 1388.95 2390.45 1384.4 L2389.7 1383.95 2387.2 1382.5" fill="#cfd297" fill-rule="evenodd" stroke="none"/>
    <path d="M2252.6 1332.0 L2253.0 1330.8 Q2259.2 1330.4 2277.15 1335.85 2294.7 1341.15 2313.95 1349.1 2330.35 1355.85 2341.8 1362.05 2344.9 1363.75 2347.6 1365.35 2362.35 1374.15 2362.35 1379.45 2362.35 1381.95 2362.05 1382.1 L2361.1 1382.55 2355.35 1380.3 2355.35 1380.7 Q2355.35 1383.25 2354.9 1383.15 L2354.5 1382.55 2341.8 1377.0 2309.85 1363.5 2299.05 1359.7 Q2267.25 1348.5 2259.2 1345.2 L2259.6 1344.0 Q2260.6 1343.2 2261.95 1342.7 2253.8 1338.75 2249.7 1336.15 2254.5 1335.8 2262.95 1337.2 L2252.6 1332.0" fill="#b6bb73" fill-rule="evenodd" stroke="none"/>
  </g>
</svg>
