<?xml version="1.0" encoding="UTF-8" standalone="no"?>
<svg xmlns:ffdec="https://www.free-decompiler.com/flash" xmlns:xlink="http://www.w3.org/1999/xlink" ffdec:objectType="shape" height="288.1px" width="139.15px" xmlns="http://www.w3.org/2000/svg">
  <g transform="matrix(1.0, 0.0, 0.0, 1.0, -544.9, -793.1)">
    <path d="M630.35 813.75 L630.45 816.65 630.05 814.45 630.35 813.75 M632.85 824.65 L634.15 827.1 632.95 825.1 632.85 824.65 M655.65 863.75 L661.95 872.6 659.45 870.8 655.95 864.9 655.65 863.75 M672.55 965.95 Q673.15 968.8 672.8 969.8 L672.55 965.95 M682.2 1031.9 L683.2 1037.1 Q684.05 1042.05 684.05 1044.7 684.05 1051.9 680.55 1059.75 L682.6 1052.15 683.05 1049.65 683.15 1045.9 682.85 1042.85 682.75 1041.95 682.7 1041.4 681.45 1029.25 682.2 1031.9 M552.7 858.65 L551.8 858.55 551.55 858.35 552.7 858.65 M547.5 853.75 L546.7 851.85 548.0 853.55 547.5 853.75 M549.75 837.45 L550.1 837.7 550.3 837.05 Q553.1 838.1 559.85 837.9 L566.7 837.4 Q569.2 836.95 570.0 835.95 L572.3 836.6 588.45 847.45 Q582.45 851.25 576.5 853.7 571.2 855.9 561.65 858.7 L571.0 865.9 Q573.95 862.0 577.4 859.75 L580.25 858.25 586.0 870.95 Q594.7 891.5 594.7 896.2 594.7 900.55 593.2 908.5 591.05 919.7 586.7 932.7 586.35 935.9 584.55 942.95 583.0 953.55 583.15 978.35 L582.7 975.45 580.6 975.45 581.25 978.9 581.9 983.1 Q581.9 984.1 574.0 993.4 L574.0 999.4 585.3 998.45 Q586.1 998.45 588.9 1000.3 591.75 1002.2 591.75 1002.9 591.75 1005.15 590.05 1008.7 L586.4 1016.55 Q581.0 1029.25 581.0 1046.9 581.0 1050.8 581.3 1055.05 581.7 1061.7 582.6 1063.25 577.2 1065.25 570.05 1066.5 561.55 1068.0 553.25 1067.9 L552.3 1061.45 553.95 1062.9 Q574.55 1013.0 577.65 1003.2 L571.0 1005.7 570.9 1002.1 572.0 1001.8 571.5 994.6 573.2 977.8 Q573.2 973.1 577.0 950.3 580.7 928.2 583.9 913.2 L579.15 922.85 580.75 900.9 581.75 903.9 Q583.25 901.4 585.05 895.55 586.65 890.15 586.65 888.55 586.65 882.2 583.3 875.1 579.55 867.05 574.75 866.65 L573.5 874.35 574.65 882.2 572.0 875.45 Q572.0 871.95 570.7 869.5 569.35 867.0 567.5 867.0 564.15 860.35 557.35 858.2 L554.7 857.5 Q553.2 857.15 551.55 855.75 550.0 854.45 549.5 854.4 L549.1 851.0 Q555.7 856.3 562.5 856.3 568.85 856.3 576.9 853.1 L574.9 852.25 Q572.85 851.55 569.8 851.55 L565.65 852.05 561.45 852.55 Q560.35 852.55 557.8 850.45 554.1 847.4 548.5 840.65 L549.65 840.45 549.75 837.45 M594.55 847.85 Q598.2 848.0 600.8 846.95 L603.25 845.9 Q615.9 845.9 624.2 858.55 629.75 867.05 630.95 875.35 633.45 891.9 633.75 892.75 634.3 894.3 635.6 895.1 L639.45 896.8 Q636.5 904.05 635.0 916.05 633.95 924.4 633.95 930.6 633.95 946.4 637.6 958.95 L640.1 967.9 Q641.25 973.0 641.25 978.6 641.25 979.1 639.75 981.45 638.25 983.8 638.25 984.3 638.25 984.95 640.95 988.9 L643.6 992.7 640.4 994.45 641.5 997.75 642.6 1001.75 Q642.6 1002.7 633.3 1019.3 623.4 1036.8 621.7 1043.9 621.0 1046.85 620.05 1053.55 619.0 1059.3 617.0 1061.35 616.15 1062.25 614.65 1067.6 613.15 1073.0 613.3 1075.15 L602.5 1073.15 Q597.15 1066.1 595.75 1061.9 594.35 1057.9 594.35 1049.55 594.35 1044.0 596.4 1034.55 598.3 1025.6 600.0 1022.05 601.75 1018.4 608.95 1010.65 615.65 1003.5 615.65 1003.05 615.65 995.85 609.75 993.95 601.45 992.5 596.6 990.0 594.8 989.05 593.55 986.25 L591.6 981.5 Q587.45 972.9 587.45 963.3 587.45 956.2 593.65 937.95 599.85 919.65 599.85 909.25 599.85 906.35 599.25 901.15 L598.45 895.65 597.2 891.4 599.95 890.05 597.65 883.35 Q595.3 876.55 595.3 875.9 595.3 875.4 595.8 875.05 L596.25 874.15 595.15 867.5 594.05 860.85 Q594.05 859.9 595.25 857.85 L596.4 855.9 Q596.4 854.1 595.9 852.85 595.3 851.4 593.55 849.5 L594.55 847.85 M572.4 963.15 L572.75 961.2 572.45 969.5 572.4 963.15 M554.6 1037.0 L552.2 1059.55 Q551.75 1057.4 552.45 1050.1 553.2 1042.3 554.6 1037.0 M594.85 1012.25 L594.9 1012.1 595.35 1012.05 595.65 1012.05 594.85 1012.25 M588.3 1048.35 L587.65 1053.25 588.4 1042.8 588.3 1048.35" fill="#494949" fill-rule="evenodd" stroke="none"/>
    <path d="M630.35 813.75 L630.05 814.45 Q629.5 807.1 626.05 796.0 L625.3 793.5 627.2 793.8 627.5 794.8 Q630.7 805.7 630.35 813.75 M634.15 827.1 L635.7 831.05 632.95 825.1 634.15 827.1 M650.5 854.65 L655.65 863.75 655.95 864.9 650.5 854.65 M661.95 872.6 Q662.7 873.9 663.45 875.95 L666.2 884.4 659.45 870.8 661.95 872.6 M665.45 916.15 L665.25 921.35 667.0 932.4 Q669.15 953.2 672.55 975.75 672.5 973.5 672.85 971.65 L676.15 993.1 Q675.0 989.7 674.2 986.65 677.05 1004.65 680.65 1023.8 L682.2 1031.9 681.45 1029.25 682.7 1041.4 682.75 1041.95 Q683.4 1049.25 677.3 1058.55 671.05 1068.15 663.2 1071.4 L662.7 1071.4 Q666.65 1066.55 668.15 1063.2 669.75 1059.5 669.75 1054.85 669.75 1052.45 670.0 1050.95 L670.25 1047.15 669.5 1032.15 Q670.75 1032.55 672.65 1031.65 674.35 1030.8 675.1 1029.75 672.65 1027.55 668.25 1024.8 665.6 1023.1 665.15 1021.55 L670.0 1022.15 Q670.7 1022.0 670.75 1021.7 668.7 1018.1 665.15 1013.95 663.25 1011.7 663.25 1009.15 L663.3 1007.4 668.2 1007.5 Q660.85 992.2 653.35 978.7 648.6 970.2 648.6 969.1 L650.5 965.65 Q652.4 962.2 652.4 960.4 652.4 959.7 650.5 955.3 648.55 950.95 648.55 949.45 648.55 948.05 650.5 938.4 652.4 928.75 652.4 927.55 652.4 924.7 648.85 912.85 645.25 901.05 645.25 894.1 645.25 893.5 645.85 893.05 L646.4 892.75 646.6 899.2 651.85 899.2 651.85 888.65 647.55 888.65 647.0 873.4 Q649.9 873.35 651.4 871.1 652.55 869.35 652.55 867.15 L652.15 865.2 651.45 862.4 Q659.3 872.65 661.45 879.5 663.25 885.1 664.2 900.05 L665.45 916.15 M596.75 1076.0 L593.5 1074.0 594.95 1074.35 596.75 1076.0 M559.85 828.2 L562.1 826.5 Q565.3 831.95 569.8 835.3 L570.0 835.95 Q569.2 836.95 566.7 837.4 L566.25 836.5 Q565.65 836.05 563.35 835.75 L559.85 828.2 M575.05 815.6 L580.0 811.0 Q581.75 812.0 583.9 814.05 592.85 822.5 593.85 830.65 585.45 831.65 579.9 825.75 575.8 821.35 575.05 815.6 M583.2 808.0 Q601.2 791.95 621.85 793.2 624.85 808.25 631.1 827.75 L648.35 856.8 646.35 855.1 624.4 818.75 618.25 819.9 Q621.2 822.85 622.05 824.25 623.15 826.2 623.15 829.05 623.15 830.05 618.9 833.3 606.2 822.4 600.45 820.95 596.45 821.25 593.7 819.45 589.95 817.0 587.95 814.75 585.8 812.45 583.2 808.0 M589.05 844.65 L567.3 829.1 567.05 827.05 Q568.3 825.5 578.55 829.7 583.85 831.85 588.35 834.4 592.95 836.95 592.95 837.75 L592.4 839.25 Q591.85 840.2 591.85 840.7 591.85 841.5 592.75 841.85 L596.35 842.2 593.5 846.85 594.55 847.85 593.55 849.5 591.5 848.35 590.4 846.4 Q590.4 845.7 590.0 845.2 589.6 844.65 589.05 844.65 M602.65 825.65 Q603.4 826.45 603.4 827.55 603.4 828.65 602.65 829.45 601.85 830.25 600.75 830.25 599.65 830.25 598.9 829.45 598.1 828.65 598.1 827.55 598.1 826.45 598.9 825.65 599.65 824.85 600.75 824.85 601.85 824.85 602.65 825.65 M645.45 956.2 Q645.3 954.7 646.25 953.55 L645.75 957.5 645.45 956.2 M683.15 1045.9 L683.05 1049.65 682.7 1051.45 683.0 1044.4 683.15 1045.9" fill="#463a2f" fill-rule="evenodd" stroke="none"/>
    <path d="M630.05 814.45 L630.45 816.65 Q631.5 820.7 631.9 820.8 632.2 820.85 632.85 824.65 L632.95 825.1 635.7 831.05 Q645.65 841.9 650.5 854.65 L655.95 864.9 659.45 870.8 666.2 884.4 Q667.8 889.4 668.45 895.8 668.45 902.75 666.85 907.75 665.75 911.15 665.45 916.15 L664.2 900.05 Q663.25 885.1 661.45 879.5 659.3 872.65 651.45 862.4 L648.35 856.8 631.1 827.75 Q624.85 808.25 621.85 793.2 L625.3 793.5 626.05 796.0 Q629.5 807.1 630.05 814.45 M667.0 932.4 L668.9 944.05 672.55 965.95 672.8 969.8 672.85 971.65 Q672.5 973.5 672.55 975.75 669.15 953.2 667.0 932.4 M676.15 993.1 L680.65 1023.8 Q677.05 1004.65 674.2 986.65 675.0 989.7 676.15 993.1 M680.55 1059.75 Q676.9 1066.5 669.55 1072.0 661.45 1078.15 652.55 1079.6 L634.8 1079.15 603.05 1076.35 594.95 1074.35 593.5 1074.0 591.65 1071.6 Q590.35 1069.5 588.85 1064.35 587.35 1059.45 587.35 1057.8 L587.65 1053.25 588.3 1048.35 591.9 1030.45 591.45 1041.0 Q591.45 1058.4 592.15 1061.8 594.05 1071.2 602.5 1073.15 L613.3 1075.15 Q620.3 1077.4 633.05 1077.4 L646.7 1076.3 Q656.7 1074.8 662.25 1071.8 L663.2 1071.4 Q671.05 1068.15 677.3 1058.55 683.4 1049.25 682.75 1041.95 L682.85 1042.85 683.0 1044.4 682.7 1051.45 682.6 1052.15 680.55 1059.75 M545.1 1059.05 Q544.85 1054.9 544.95 1051.05 L546.3 1053.1 561.3 1001.9 565.5 976.15 564.7 976.25 565.4 974.95 565.35 974.5 565.75 974.55 Q570.35 961.55 572.55 946.0 575.0 928.4 575.0 903.7 575.0 886.8 569.85 876.7 565.95 869.15 555.25 859.65 L557.35 858.2 Q564.15 860.35 567.5 867.0 L572.2 876.25 Q577.3 892.35 577.3 917.85 577.3 922.55 575.15 937.45 572.95 952.35 572.95 956.7 L572.75 961.2 572.4 963.15 563.7 1001.9 547.35 1057.9 548.85 1060.3 Q550.0 1062.1 550.0 1062.65 550.0 1063.15 549.65 1063.15 549.25 1063.15 549.25 1063.65 549.25 1064.65 549.8 1065.75 548.2 1065.6 547.05 1064.85 L546.25 1064.15 Q545.85 1061.55 545.1 1059.05 M553.75 859.0 L552.7 858.65 551.55 858.35 Q550.15 857.2 548.6 856.2 L548.5 855.75 547.8 854.4 549.5 854.4 Q550.0 854.45 551.55 855.75 553.2 857.15 554.7 857.5 L553.75 859.0 M547.45 837.25 L548.1 836.2 549.05 836.95 547.45 837.25 M550.3 837.05 Q550.65 835.95 551.35 834.95 L563.35 835.75 Q565.65 836.05 566.25 836.5 L566.7 837.4 559.85 837.9 Q553.1 838.1 550.3 837.05 M562.1 826.5 L565.95 823.45 567.05 827.05 567.3 829.1 589.05 844.65 590.4 846.4 591.5 848.35 Q590.95 851.4 590.45 856.7 L590.05 862.3 Q590.05 869.2 591.85 876.15 593.35 881.85 597.2 891.4 L598.45 895.65 Q586.1 965.6 585.95 967.65 L585.2 961.15 584.9 956.6 Q584.9 953.9 586.7 932.7 591.05 919.7 593.2 908.5 594.7 900.55 594.7 896.2 594.7 891.5 586.0 870.95 589.3 861.85 589.3 855.05 L589.05 851.3 588.45 847.45 572.3 836.6 573.75 835.45 570.65 835.1 569.8 835.3 Q565.3 831.95 562.1 826.5 M591.4 982.75 L595.0 991.0 Q596.45 995.5 596.45 1001.9 596.45 1004.45 595.35 1010.15 593.2 996.25 591.0 986.85 589.8 981.7 590.1 981.25 590.3 980.95 591.4 982.75 M594.85 1012.25 Q594.85 1012.1 594.75 1012.25 L594.55 1012.3 594.9 1012.1 594.85 1012.25" fill="#333333" fill-rule="evenodd" stroke="none"/>
    <path d="M551.35 834.95 Q552.55 833.25 554.8 831.75 L559.85 828.2 563.35 835.75 551.35 834.95 M565.95 823.45 L575.05 815.6 Q575.8 821.35 579.9 825.75 585.45 831.65 593.85 830.65 592.85 822.5 583.9 814.05 581.75 812.0 580.0 811.0 L581.25 809.8 583.2 808.0 Q585.8 812.45 587.95 814.75 589.95 817.0 593.7 819.45 596.45 821.25 600.45 820.95 606.2 822.4 618.9 833.3 623.15 830.05 623.15 829.05 623.15 826.2 622.05 824.25 621.2 822.85 618.25 819.9 L624.4 818.75 646.35 855.1 642.55 851.1 Q639.4 848.05 637.05 848.05 636.4 848.05 635.9 850.15 635.5 851.8 635.5 852.95 635.5 853.95 635.9 854.6 630.25 846.0 624.55 842.1 617.55 837.3 607.75 837.3 L596.95 837.95 596.35 842.2 592.75 841.85 Q591.85 841.5 591.85 840.7 591.85 840.2 592.4 839.25 L592.95 837.75 Q592.95 836.95 588.35 834.4 583.85 831.85 578.55 829.7 568.3 825.5 567.05 827.05 L565.95 823.45 M602.65 825.65 Q601.85 824.85 600.75 824.85 599.65 824.85 598.9 825.65 598.1 826.45 598.1 827.55 598.1 828.65 598.9 829.45 599.65 830.25 600.75 830.25 601.85 830.25 602.65 829.45 603.4 828.65 603.4 827.55 603.4 826.45 602.65 825.65 M662.25 1071.8 L662.7 1071.4 663.2 1071.4 662.25 1071.8 M590.4 846.4 L589.05 844.65 Q589.6 844.65 590.0 845.2 590.4 845.7 590.4 846.4 M682.85 1042.85 L683.15 1045.9 683.0 1044.4 682.85 1042.85 M683.05 1049.65 L682.6 1052.15 682.7 1051.45 683.05 1049.65" fill="#574f39" fill-rule="evenodd" stroke="none"/>
    <path d="M555.25 859.65 L553.75 859.0 554.7 857.5 557.35 858.2 555.25 859.65 M570.0 835.95 L569.8 835.3 570.65 835.1 573.75 835.45 572.3 836.6 570.0 835.95" fill="#443022" fill-rule="evenodd" stroke="none"/>
    <path d="M652.55 1079.6 L648.3 1080.6 643.85 1081.2 639.25 1080.35 634.8 1079.15 652.55 1079.6 M603.05 1076.35 L596.75 1076.0 594.95 1074.35 603.05 1076.35 M591.65 1071.6 Q581.75 1071.6 577.1 1074.1 572.4 1076.6 563.65 1076.6 L557.95 1076.1 553.15 1074.95 553.35 1074.7 548.85 1070.3 Q545.4 1067.1 546.25 1064.15 L547.05 1064.85 Q548.2 1065.6 549.8 1065.75 549.25 1064.65 549.25 1063.65 549.25 1063.15 549.65 1063.15 550.0 1063.15 550.0 1062.65 550.0 1062.1 548.85 1060.3 L547.35 1057.9 563.7 1001.9 564.5 1001.9 Q564.85 1004.95 554.6 1037.0 553.2 1042.3 552.45 1050.1 551.75 1057.4 552.2 1059.55 L552.15 1060.4 Q552.1 1061.25 552.3 1061.45 L553.25 1067.9 Q561.55 1068.0 570.05 1066.5 577.2 1065.25 582.6 1063.25 581.7 1061.7 581.3 1055.05 581.0 1050.8 581.0 1046.9 581.0 1029.25 586.4 1016.55 L590.05 1008.7 Q591.75 1005.15 591.75 1002.9 591.75 1002.2 588.9 1000.3 586.1 998.45 585.3 998.45 L574.0 999.4 574.0 993.4 Q581.9 984.1 581.9 983.1 L581.25 978.9 580.6 975.45 582.7 975.45 583.15 978.35 Q583.0 953.55 584.55 942.95 586.35 935.9 586.7 932.7 584.9 953.9 584.9 956.6 L585.2 961.15 585.95 967.65 Q586.1 965.6 598.45 895.65 L599.25 901.15 Q599.85 906.35 599.85 909.25 599.85 919.65 593.65 937.95 587.45 956.2 587.45 963.3 587.45 972.9 591.6 981.5 L593.55 986.25 Q594.8 989.05 596.6 990.0 601.45 992.5 609.75 993.95 615.65 995.85 615.65 1003.05 615.65 1003.5 608.95 1010.65 601.75 1018.4 600.0 1022.05 598.3 1025.6 596.4 1034.55 594.35 1044.0 594.35 1049.55 594.35 1057.9 595.75 1061.9 597.15 1066.1 602.5 1073.15 594.05 1071.2 592.15 1061.8 591.45 1058.4 591.45 1041.0 L591.9 1030.45 588.3 1048.35 588.4 1042.8 587.65 1053.25 587.35 1057.8 Q587.35 1059.45 588.85 1064.35 590.35 1069.5 591.65 1071.6 M547.8 854.4 L547.5 853.75 548.0 853.55 546.7 851.85 Q543.6 843.65 547.45 837.25 L549.05 836.95 549.75 837.45 549.65 840.45 548.5 840.65 Q547.65 841.6 546.7 843.3 L545.85 845.0 Q545.85 846.3 547.1 848.35 548.05 849.95 549.1 851.0 L549.5 854.4 547.8 854.4 M646.35 855.1 L648.35 856.8 651.45 862.4 652.15 865.2 652.55 867.15 Q652.55 869.35 651.4 871.1 649.9 873.35 647.0 873.4 L647.55 888.65 651.85 888.65 651.85 899.2 646.6 899.2 646.4 892.75 645.85 893.05 Q645.25 893.5 645.25 894.1 645.25 901.05 648.85 912.85 652.4 924.7 652.4 927.55 652.4 928.75 650.5 938.4 648.55 948.05 648.55 949.45 648.55 950.95 650.5 955.3 652.4 959.7 652.4 960.4 652.4 962.2 650.5 965.65 L648.6 969.1 Q648.6 970.2 653.35 978.7 660.85 992.2 668.2 1007.5 L663.3 1007.4 663.25 1009.15 Q663.25 1011.7 665.15 1013.95 668.7 1018.1 670.75 1021.7 670.7 1022.0 670.0 1022.15 L665.15 1021.55 Q665.6 1023.1 668.25 1024.8 672.65 1027.55 675.1 1029.75 674.35 1030.8 672.65 1031.65 670.75 1032.55 669.5 1032.15 L670.25 1047.15 670.0 1050.95 Q669.75 1052.45 669.75 1054.85 669.75 1059.5 668.15 1063.2 666.65 1066.55 662.7 1071.4 L662.25 1071.8 Q656.7 1074.8 646.7 1076.3 L633.05 1077.4 Q620.3 1077.4 613.3 1075.15 613.15 1073.0 614.65 1067.6 616.15 1062.25 617.0 1061.35 619.0 1059.3 620.05 1053.55 621.0 1046.85 621.7 1043.9 623.4 1036.8 633.3 1019.3 642.6 1002.7 642.6 1001.75 L641.5 997.75 640.4 994.45 643.6 992.7 640.95 988.9 Q638.25 984.95 638.25 984.3 638.25 983.8 639.75 981.45 641.25 979.1 641.25 978.6 641.25 973.0 640.1 967.9 L637.6 958.95 Q633.95 946.4 633.95 930.6 633.95 924.4 635.0 916.05 636.5 904.05 639.45 896.8 L635.6 895.1 Q634.3 894.3 633.75 892.75 633.45 891.9 630.95 875.35 629.75 867.05 624.2 858.55 615.9 845.9 603.25 845.9 L600.8 846.95 Q598.2 848.0 594.55 847.85 L593.5 846.85 596.35 842.2 596.95 837.95 607.75 837.3 Q617.55 837.3 624.55 842.1 630.25 846.0 635.9 854.6 635.5 853.95 635.5 852.95 635.5 851.8 635.9 850.15 636.4 848.05 637.05 848.05 639.4 848.05 642.55 851.1 L646.35 855.1 M593.55 849.5 Q595.3 851.4 595.9 852.85 596.4 854.1 596.4 855.9 L595.25 857.85 Q594.05 859.9 594.05 860.85 L595.15 867.5 596.25 874.15 595.8 875.05 Q595.3 875.4 595.3 875.9 595.3 876.55 597.65 883.35 L599.95 890.05 597.2 891.4 Q593.35 881.85 591.85 876.15 590.05 869.2 590.05 862.3 L590.45 856.7 Q590.95 851.4 591.5 848.35 L593.55 849.5 M588.45 847.45 L589.05 851.3 589.3 855.05 Q589.3 861.85 586.0 870.95 L580.25 858.25 577.4 859.75 Q573.95 862.0 571.0 865.9 L561.65 858.7 Q571.2 855.9 576.5 853.7 582.45 851.25 588.45 847.45 M572.0 875.45 L574.65 882.2 576.1 886.3 580.75 900.9 579.15 922.85 572.95 956.7 Q572.95 952.35 575.15 937.45 577.3 922.55 577.3 917.85 577.3 892.35 572.2 876.25 L572.0 875.45 M571.5 994.6 L572.0 1001.8 570.9 1002.1 571.5 994.6 M591.4 982.75 Q590.3 980.95 590.1 981.25 589.8 981.7 591.0 986.85 593.2 996.25 595.35 1010.15 596.45 1004.45 596.45 1001.9 596.45 995.5 595.0 991.0 L591.4 982.75 M645.45 956.2 L645.75 957.5 646.25 953.55 Q645.3 954.7 645.45 956.2 M594.9 1012.1 L594.55 1012.3 594.75 1012.25 Q594.85 1012.1 594.85 1012.25 L595.65 1012.05 595.35 1012.05 594.9 1012.1" fill="#384250" fill-rule="evenodd" stroke="none"/>
    <path d="M548.5 840.65 Q554.1 847.4 557.8 850.45 560.35 852.55 561.45 852.55 L565.65 852.05 569.8 851.55 Q572.85 851.55 574.9 852.25 L576.9 853.1 Q568.85 856.3 562.5 856.3 555.7 856.3 549.1 851.0 548.05 849.95 547.1 848.35 545.85 846.3 545.85 845.0 L546.7 843.3 Q547.65 841.6 548.5 840.65 M574.65 882.2 L573.5 874.35 574.75 866.65 Q579.55 867.05 583.3 875.1 586.65 882.2 586.65 888.55 586.65 890.15 585.05 895.55 583.25 901.4 581.75 903.9 L580.75 900.9 576.1 886.3 574.65 882.2 M579.15 922.85 L583.9 913.2 Q580.7 928.2 577.0 950.3 573.2 973.1 573.2 977.8 L571.5 994.6 570.9 1002.1 571.0 1005.7 577.65 1003.2 Q574.55 1013.0 553.95 1062.9 L552.3 1061.45 Q552.1 1061.25 552.15 1060.4 L552.2 1059.55 554.6 1037.0 Q564.85 1004.95 564.5 1001.9 565.4 995.0 567.1 987.25 569.55 976.25 572.45 969.5 L572.75 961.2 572.95 956.7 579.15 922.85" fill="#5d5d5d" fill-rule="evenodd" stroke="none"/>
    <path d="M567.5 867.0 Q569.35 867.0 570.7 869.5 572.0 871.95 572.0 875.45 L572.2 876.25 567.5 867.0 M572.45 969.5 Q569.55 976.25 567.1 987.25 565.4 995.0 564.5 1001.9 L563.7 1001.9 572.4 963.15 572.45 969.5" fill="#323c47" fill-rule="evenodd" stroke="none"/>
    <path d="M553.15 1074.95 L550.1 1074.6 Q549.85 1074.6 549.1 1074.9 545.15 1068.0 545.1 1059.25 L545.1 1059.05 Q545.85 1061.55 546.25 1064.15 545.4 1067.1 548.85 1070.3 L553.35 1074.7 553.15 1074.95" fill="#505763" fill-rule="evenodd" stroke="none"/>
  </g>
</svg>
