<?xml version="1.0" encoding="UTF-8" standalone="no"?>
<svg xmlns:ffdec="https://www.free-decompiler.com/flash" xmlns:xlink="http://www.w3.org/1999/xlink" ffdec:objectType="shape" height="1065.0px" width="2665.0px" xmlns="http://www.w3.org/2000/svg">
  <g transform="matrix(1.0, 0.0, 0.0, 1.0, 2.5, 362.5)">
    <path d="M2660.0 -260.0 L2660.0 340.0 2660.0 420.0 2660.0 700.0 M0.0 360.0 L0.0 540.0 0.0 620.0 M0.0 360.0 L0.0 -360.0" fill="none" stroke="#ffff00" stroke-linecap="round" stroke-linejoin="round" stroke-width="5.0"/>
    <path d="M1500.0 480.0 L1500.0 340.0 1600.0 340.0 2500.0 360.0 2500.0 -260.0 1600.0 -260.0 40.0 -200.0 40.0 320.0 0.0 360.0 M2500.0 360.0 L2660.0 340.0" fill="none" stroke="#00ffff" stroke-linecap="round" stroke-linejoin="round" stroke-width="5.0"/>
    <path d="M1500.0 480.0 L1600.0 420.0 2660.0 420.0" fill="none" stroke="#00ff00" stroke-linecap="round" stroke-linejoin="round" stroke-width="5.0"/>
    <path d="M0.0 540.0 L160.0 500.0 1500.0 480.0" fill="none" stroke="#0000ff" stroke-linecap="round" stroke-linejoin="round" stroke-width="5.0"/>
  </g>
</svg>
