<?xml version="1.0" encoding="UTF-8" standalone="no"?>
<svg xmlns:ffdec="https://www.free-decompiler.com/flash" xmlns:xlink="http://www.w3.org/1999/xlink" ffdec:objectType="shape" height="777.1px" width="452.7px" xmlns="http://www.w3.org/2000/svg">
  <g transform="matrix(1.0, 0.0, 0.0, 1.0, -1593.9, 51.3)">
    <path d="M1705.55 543.75 L1707.85 538.75 Q1707.05 536.9 1706.6 534.05 1706.2 533.1 1706.2 531.35 L1706.25 531.0 1706.1 528.95 1706.2 519.2 Q1706.2 511.5 1704.3 463.9 1702.35 416.3 1702.35 413.9 1702.35 392.6 1701.5 350.0 L1700.65 309.65 Q1700.65 254.55 1725.95 204.05 1746.95 162.05 1781.55 129.9 1811.25 102.3 1837.15 93.35 1848.8 89.35 1855.5 91.1 1858.25 91.8 1859.9 93.45 L1864.35 93.95 1865.1 94.2 Q1864.55 87.1 1863.25 77.7 1860.95 61.2 1860.95 44.85 1860.95 41.2 1863.3 27.0 L1863.3 -42.35 Q1876.35 -62.4 1879.95 -37.6 1881.8 -24.95 1881.05 -5.4 L1879.5 51.3 1878.35 78.65 1877.15 105.95 Q1877.15 110.05 1874.15 111.55 1871.55 112.85 1864.85 112.85 L1863.45 112.8 Q1860.3 114.25 1855.6 115.8 1846.65 118.6 1842.35 120.1 L1838.7 121.55 Q1828.05 130.4 1821.2 136.55 1781.35 172.25 1759.55 206.55 1758.15 208.75 1756.6 211.75 1749.55 229.65 1745.05 242.1 1737.1 264.0 1731.4 283.2 L1727.95 301.1 1726.55 308.2 1726.6 327.1 Q1726.65 371.15 1726.1 407.35 L1725.75 426.9 1726.3 435.65 Q1727.8 462.7 1727.8 502.35 1727.8 510.25 1727.5 512.45 L1727.4 513.35 1726.6 516.55 Q1724.0 518.45 1722.05 520.7 L1721.95 520.2 1721.95 520.85 Q1720.75 522.15 1719.85 523.6 L1718.95 525.15 1718.55 525.3 1718.4 525.15 1717.15 527.05 1717.45 527.35 1717.7 528.0 Q1716.65 530.95 1716.65 534.0 L1716.65 534.4 1712.75 541.1 Q1707.2 551.15 1707.2 553.6 L1707.2 554.0 1706.9 554.45 1706.05 553.95 Q1704.25 552.9 1702.95 552.4 1703.3 549.05 1705.55 543.75" fill="#56543c" fill-rule="evenodd" stroke="none"/>
    <path d="M1734.7 656.3 Q1735.85 656.65 1736.85 657.3 L1736.65 657.45 1736.1 658.05 1735.85 657.75 1734.7 656.3 M1723.35 685.4 Q1722.75 687.5 1722.7 688.9 L1715.3 694.35 1714.75 688.6 1715.55 687.45 1715.55 686.6 Q1718.2 686.1 1721.4 684.4 L1723.35 685.4 M1703.55 703.1 Q1700.1 706.05 1698.9 709.05 L1697.9 713.2 Q1697.55 714.95 1695.7 715.5 L1687.05 715.95 1696.15 707.15 1702.7 700.8 Q1703.05 702.05 1703.55 703.1 M1672.35 719.4 L1671.45 719.7 Q1660.9 723.7 1650.45 723.7 1647.85 723.7 1645.85 721.85 1644.55 720.6 1643.35 718.2 L1632.2 721.05 Q1621.8 723.7 1619.2 723.7 1613.95 723.7 1613.95 718.45 L1614.05 717.75 Q1598.8 723.2 1596.0 723.7 1594.4 723.15 1593.9 722.4 1601.4 718.4 1651.5 696.55 1697.85 675.3 1697.85 668.95 1697.85 662.95 1696.2 651.9 L1696.15 651.4 1696.55 652.95 Q1700.45 667.15 1701.35 678.2 L1701.25 685.1 1701.4 688.05 1701.35 688.4 1697.9 691.0 1693.7 693.9 Q1684.7 700.15 1684.7 701.05 1684.7 702.15 1685.2 701.9 L1685.65 701.4 1689.1 698.7 Q1683.45 704.1 1678.75 709.75 1673.6 716.0 1672.35 719.4 M1689.5 624.05 L1687.9 618.4 Q1683.8 603.55 1683.8 600.7 1683.8 599.85 1693.55 588.3 1704.4 575.45 1707.3 570.5 L1711.6 563.15 1712.15 564.4 1711.35 565.55 1713.45 567.0 Q1714.45 568.95 1714.45 569.25 L1714.45 569.8 Q1712.9 570.25 1712.9 572.9 L1713.65 574.15 1713.45 574.5 Q1713.3 575.8 1716.0 580.35 L1713.4 587.6 Q1710.7 595.1 1708.45 604.8 L1707.2 605.75 Q1702.3 606.4 1698.95 612.75 1696.25 615.5 1696.25 616.85 1696.25 617.75 1696.6 618.45 1693.65 627.2 1693.65 635.5 L1689.25 619.65 1688.75 619.65 1689.5 624.05 M1718.05 570.15 L1718.1 570.25 1718.0 570.2 1718.05 570.15 M1695.35 636.95 L1696.2 644.4 1694.75 639.4 1695.35 636.95 M1707.4 641.2 L1709.15 642.5 Q1708.85 644.75 1708.7 647.35 L1707.4 641.2 M1704.95 623.4 L1704.5 623.3 1705.0 623.05 1704.95 623.4 M1741.4 669.65 L1741.4 671.85 Q1741.4 673.1 1737.4 676.9 L1738.65 674.45 Q1739.95 671.9 1741.4 669.65" fill="#657467" fill-rule="evenodd" stroke="none"/>
    <path d="M1727.4 513.35 Q1732.9 513.45 1734.85 514.5 L1735.1 515.25 1731.7 516.9 Q1731.3 518.15 1729.2 519.65 L1728.0 520.4 1728.25 522.05 Q1727.35 520.7 1726.55 520.15 L1730.85 535.0 Q1733.7 544.75 1734.4 544.75 1735.95 544.75 1743.25 554.95 1750.35 564.8 1750.35 565.75 1750.35 571.1 1765.55 589.55 L1766.1 588.75 1761.9 581.5 Q1768.15 585.8 1771.1 591.4 1772.55 594.2 1774.55 602.25 L1776.05 602.05 1776.4 601.65 1775.05 597.4 Q1775.45 597.2 1775.9 597.1 L1776.3 597.25 1779.3 598.3 1779.3 597.85 1778.5 597.25 1778.65 597.15 1778.75 596.75 Q1778.95 597.6 1778.95 595.85 1778.95 594.8 1778.75 594.55 L1778.25 594.1 Q1783.1 595.05 1785.6 596.7 L1789.25 598.95 1789.55 599.45 1791.2 600.15 1792.35 600.75 1792.35 600.95 1793.1 601.0 Q1798.6 603.6 1803.85 607.1 1809.15 610.65 1810.45 612.5 L1809.15 613.5 1806.5 613.95 Q1804.4 613.95 1793.0 609.9 L1793.0 610.05 Q1793.0 612.65 1792.7 612.8 L1792.45 613.2 Q1792.2 613.55 1790.6 613.55 1789.6 613.55 1785.05 607.0 1779.55 604.85 1776.2 603.15 L1776.3 604.8 Q1776.3 606.6 1775.6 607.65 L1773.7 609.1 Q1770.65 606.45 1766.55 602.05 L1766.85 603.35 1766.3 604.7 Q1765.75 605.45 1764.1 605.45 L1763.25 604.55 Q1762.0 605.7 1759.9 605.7 1758.9 605.7 1748.55 590.35 L1743.5 582.85 1743.3 582.55 1743.15 582.65 1743.55 583.6 1745.15 587.8 Q1746.25 589.8 1746.45 592.5 L1746.65 594.3 1746.5 594.55 Q1746.4 597.1 1745.85 598.6 1744.6 602.0 1740.9 602.0 1739.9 602.0 1737.8 600.35 L1736.7 601.0 1736.35 603.85 1739.95 604.1 Q1747.7 605.05 1747.7 609.1 1747.7 611.85 1743.45 613.25 L1735.1 615.2 Q1734.05 625.3 1734.05 628.15 1734.05 628.95 1736.15 632.15 L1738.25 635.75 Q1738.25 642.9 1736.15 646.4 1735.25 647.9 1734.0 649.0 L1734.3 649.95 1733.65 651.35 Q1733.1 652.15 1731.45 652.15 L1731.2 652.15 1734.7 656.3 1735.85 657.75 1736.1 658.05 Q1741.4 664.6 1741.4 665.15 1741.4 666.75 1740.6 668.3 1739.55 670.4 1737.75 670.4 L1736.75 670.35 Q1735.6 673.2 1731.7 676.9 L1731.7 678.3 Q1731.7 681.3 1729.9 683.45 1728.0 685.65 1725.15 685.65 L1723.35 685.4 1721.4 684.4 Q1718.2 686.1 1715.55 686.6 L1715.55 687.45 1714.75 688.6 1715.3 694.35 1715.55 698.6 Q1715.55 700.3 1714.0 703.0 1711.75 706.75 1708.05 706.75 1705.2 706.75 1703.55 703.1 1703.05 702.05 1702.7 700.8 L1696.15 707.15 1687.05 715.95 1676.45 725.8 Q1673.45 725.8 1672.4 723.6 L1671.95 721.2 Q1671.95 720.45 1672.35 719.4 1673.6 716.0 1678.75 709.75 1683.45 704.1 1689.1 698.7 L1695.95 694.15 1707.55 686.7 Q1707.2 686.35 1706.25 686.15 L1705.35 686.0 1702.9 687.65 1703.5 685.35 1703.6 681.6 Q1703.6 670.65 1697.6 649.45 L1696.2 644.4 1695.35 636.95 1695.95 630.95 Q1696.25 624.3 1696.7 622.05 1698.45 612.2 1708.55 607.15 L1708.7 607.75 1709.4 608.2 Q1710.15 606.05 1713.5 593.15 1715.25 586.55 1717.3 581.9 1718.2 581.7 1718.3 581.35 L1718.15 580.05 1719.0 578.35 Q1718.55 576.05 1717.4 577.65 L1717.05 576.75 Q1715.85 573.7 1715.85 572.4 1715.85 572.1 1716.9 571.15 L1718.0 570.2 1718.1 570.25 1718.05 570.15 1718.3 569.95 1715.3 563.95 Q1714.2 561.65 1713.15 560.45 L1713.65 559.65 Q1712.55 558.0 1708.45 555.4 1710.15 551.25 1714.3 542.4 L1717.35 535.85 1717.5 535.9 1718.3 535.15 1718.3 533.8 1719.9 529.95 1718.7 531.35 Q1719.45 528.45 1721.5 524.95 1722.9 522.55 1724.8 520.0 L1724.85 519.95 1725.0 519.75 1725.05 519.7 1729.15 514.85 Q1727.8 515.65 1726.6 516.55 L1727.4 513.35 M1731.65 529.95 L1733.8 536.4 Q1733.7 536.5 1733.55 537.25 L1733.45 537.35 1733.1 535.75 1731.65 529.95 M1747.65 558.3 L1749.15 559.1 Q1751.85 560.8 1752.8 562.65 L1752.1 564.3 1751.65 564.9 1747.65 558.3 M1764.1 581.65 Q1768.1 583.3 1770.75 586.9 L1772.7 590.4 1772.65 590.6 1771.95 589.15 Q1769.05 584.15 1764.1 581.65 M1799.6 599.65 L1798.05 597.3 Q1801.75 596.25 1806.5 597.85 1811.65 599.6 1815.95 600.1 L1819.25 602.4 Q1823.45 605.6 1823.45 607.15 1823.45 610.15 1820.3 610.15 1809.4 610.15 1802.05 602.55 L1800.2 600.45 1800.45 600.25 1799.75 599.7 1799.6 599.65 M1797.25 595.75 L1796.65 594.15 Q1796.65 589.75 1809.6 596.45 L1797.4 595.5 1797.25 595.75 M1699.1 553.45 L1693.35 555.95 1691.8 555.3 Q1691.25 554.8 1691.25 553.05 1691.25 550.5 1703.25 544.8 L1705.55 543.75 Q1703.3 549.05 1702.95 552.4 1699.4 551.05 1699.1 553.45 M1706.9 554.45 L1707.2 554.0 1707.25 554.65 1706.9 554.45 M1717.7 528.0 L1717.45 527.35 1717.15 527.05 1718.4 525.15 1718.55 525.3 1718.95 525.15 1717.7 528.0 M1721.95 520.85 L1721.95 520.2 1722.05 520.7 1721.95 520.85 M1713.45 567.0 L1711.35 565.55 1712.15 564.4 1712.85 565.8 1713.45 567.0 M1714.45 569.8 Q1714.4 572.5 1713.65 574.15 L1712.9 572.9 Q1712.9 570.25 1714.45 569.8 M1713.4 587.6 L1713.15 588.35 Q1708.9 601.85 1708.55 605.65 L1707.2 605.75 1708.45 604.8 Q1710.7 595.1 1713.4 587.6 M1698.95 612.75 Q1697.7 615.05 1696.7 618.1 L1696.6 618.45 Q1696.25 617.75 1696.25 616.85 1696.25 615.5 1698.95 612.75 M1704.95 623.4 L1705.0 623.05 1704.5 623.3 1704.95 623.4 M1707.4 641.2 L1708.7 647.35 Q1708.85 644.75 1709.15 642.5 L1707.4 641.2 M1701.35 688.4 L1701.3 688.7 1697.9 691.0 1701.35 688.4 M1701.4 688.05 L1701.25 685.1 1701.35 678.2 1701.6 684.5 1701.4 688.05" fill="#5c6639" fill-rule="evenodd" stroke="none"/>
    <path d="M1728.25 522.05 Q1729.4 523.85 1730.6 527.05 L1731.65 529.95 1733.1 535.75 1733.45 537.35 1735.35 540.9 1736.25 542.25 1738.05 544.55 Q1744.1 552.05 1744.9 553.5 L1747.65 558.3 1751.65 564.9 1755.55 571.2 1757.3 573.95 1758.95 576.6 1761.3 580.5 Q1762.75 580.95 1764.1 581.65 1769.05 584.15 1771.95 589.15 L1772.65 590.6 1772.7 590.4 Q1773.95 587.75 1781.4 591.3 1788.6 594.75 1793.0 598.8 L1794.7 598.65 Q1796.55 598.65 1799.6 599.65 L1799.75 599.7 1800.45 600.25 1800.2 600.45 Q1798.95 601.1 1796.7 601.1 L1793.1 601.0 1792.35 600.95 1792.35 600.75 1791.2 600.15 1789.25 598.95 1785.6 596.7 Q1783.1 595.05 1778.25 594.1 L1778.75 594.55 Q1778.95 594.8 1778.95 595.85 1778.95 597.6 1778.75 596.75 L1778.65 597.15 1778.5 597.25 1779.3 597.85 1779.3 598.3 1776.3 597.25 1775.9 597.1 1774.8 596.6 1775.05 597.4 1776.4 601.65 1776.05 602.05 1774.55 602.25 Q1772.55 594.2 1771.1 591.4 1768.15 585.8 1761.9 581.5 L1766.1 588.75 1765.55 589.55 Q1750.35 571.1 1750.35 565.75 1750.35 564.8 1743.25 554.95 1735.95 544.75 1734.4 544.75 1733.7 544.75 1730.85 535.0 L1726.55 520.15 Q1727.35 520.7 1728.25 522.05 M1798.05 597.3 L1797.4 597.5 Q1796.35 597.35 1796.0 596.8 L1797.25 595.75 1797.4 595.5 1809.6 596.45 1810.6 596.55 Q1816.3 597.3 1818.65 598.4 L1826.05 597.4 1830.9 597.0 1827.25 598.4 Q1824.15 599.55 1823.4 599.55 L1819.95 599.4 1820.05 599.7 1820.15 600.0 1818.95 600.25 1815.95 600.1 Q1811.65 599.6 1806.5 597.85 1801.75 596.25 1798.05 597.3 M1696.15 651.4 Q1691.3 633.75 1689.5 624.05 L1688.75 619.65 1689.25 619.65 1693.65 635.5 Q1693.65 627.2 1696.6 618.45 L1696.7 618.1 Q1697.7 615.05 1698.95 612.75 1702.3 606.4 1707.2 605.75 L1708.55 605.65 Q1708.9 601.85 1713.15 588.35 L1713.4 587.6 1716.0 580.35 Q1713.3 575.8 1713.45 574.5 L1713.65 574.15 Q1714.4 572.5 1714.45 569.8 L1714.45 569.25 Q1714.45 568.95 1713.45 567.0 L1712.85 565.8 1712.15 564.4 1711.6 563.15 1711.2 561.65 1711.2 561.3 1711.15 561.3 Q1709.45 561.3 1704.0 557.3 1699.05 553.65 1699.05 553.95 L1699.1 553.45 Q1699.4 551.05 1702.95 552.4 1704.25 552.9 1706.05 553.95 L1706.9 554.45 1707.25 554.65 1707.2 554.0 1707.2 553.6 Q1707.2 551.15 1712.75 541.1 L1716.65 534.4 1716.65 534.0 Q1716.65 530.95 1717.7 528.0 L1718.95 525.15 1719.85 523.6 Q1720.75 522.15 1721.95 520.85 L1722.05 520.7 Q1724.0 518.45 1726.6 516.55 1727.8 515.65 1729.15 514.85 L1725.05 519.7 1725.0 519.75 1724.85 519.95 1724.8 520.0 Q1722.9 522.55 1721.5 524.95 1719.45 528.45 1718.7 531.35 L1719.9 529.95 1718.3 533.8 1718.3 535.15 1717.5 535.9 1717.35 535.85 1714.3 542.4 Q1710.15 551.25 1708.45 555.4 1712.55 558.0 1713.65 559.65 L1713.15 560.45 Q1714.2 561.65 1715.3 563.95 L1718.3 569.95 1718.05 570.15 1718.0 570.2 1716.9 571.15 Q1715.85 572.1 1715.85 572.4 1715.85 573.7 1717.05 576.75 L1717.4 577.65 Q1718.55 576.05 1719.0 578.35 L1718.15 580.05 1718.3 581.35 Q1718.2 581.7 1717.3 581.9 1715.25 586.55 1713.5 593.15 1710.15 606.05 1709.4 608.2 L1708.7 607.75 1708.55 607.15 Q1698.45 612.2 1696.7 622.05 1696.25 624.3 1695.95 630.95 L1695.35 636.95 1694.75 639.4 1696.2 644.4 1697.6 649.45 Q1703.6 670.65 1703.6 681.6 L1703.5 685.35 1702.9 687.65 1705.35 686.0 1706.25 686.15 Q1707.2 686.35 1707.55 686.7 L1695.95 694.15 1689.1 698.7 1685.65 701.4 1685.2 701.9 Q1684.7 702.15 1684.7 701.05 1684.7 700.15 1693.7 693.9 L1697.9 691.0 1701.3 688.7 1701.35 688.4 1701.4 688.05 1701.6 684.5 1701.35 678.2 Q1700.45 667.15 1696.55 652.95 L1696.15 651.4 M2046.6 650.65 L2046.5 650.75 2046.6 650.8 Q2044.55 652.3 2038.7 653.95 2033.2 655.45 2026.9 656.2 L2027.0 656.25 2027.0 656.75 2027.25 657.05 2026.15 657.3 Q2018.75 657.3 2016.8 657.1 2011.6 656.5 2008.35 654.05 L2005.8 653.85 2002.95 653.35 1996.65 653.15 1990.1 652.75 Q1987.7 651.95 1983.85 652.05 L1985.0 653.85 1971.55 646.6 Q1962.45 641.75 1957.9 638.15 L1957.1 638.8 Q1955.9 638.1 1953.4 635.7 L1951.2 633.55 1950.95 633.75 1950.55 634.25 Q1948.05 632.1 1946.2 626.85 1944.05 620.8 1942.65 618.95 1941.25 617.05 1934.1 611.35 L1925.15 603.8 Q1931.4 602.0 1941.7 615.1 1945.7 620.15 1948.5 625.35 1951.15 630.15 1951.3 632.25 L1953.85 633.65 Q1956.35 635.2 1957.75 636.75 1962.0 638.25 1970.55 642.85 1978.55 647.15 1982.2 650.4 L1987.9 650.75 2003.9 652.05 Q2013.75 652.6 2018.9 653.85 L2023.4 655.15 Q2030.05 654.15 2038.7 651.5 2041.2 650.75 2043.05 650.55 L2043.0 649.95 Q2043.65 649.65 2044.25 649.65 L2046.6 650.1 2046.6 650.65" fill="#48512d" fill-rule="evenodd" stroke="none"/>
  </g>
</svg>
