<?xml version="1.0" encoding="UTF-8" standalone="no"?>
<svg xmlns:ffdec="https://www.free-decompiler.com/flash" xmlns:xlink="http://www.w3.org/1999/xlink" ffdec:objectType="shape" height="1373.15px" width="2246.65px" xmlns="http://www.w3.org/2000/svg">
  <g transform="matrix(1.0, 0.0, 0.0, 1.0, 1051.65, 809.15)">
    <path d="M234.95 -796.9 L624.7 -796.9 632.4 -795.4 686.45 -794.85 694.95 -793.35 946.3 -792.8 970.15 -791.0 993.2 -789.25 1052.65 -789.25 Q1081.95 -791.1 1107.9 -797.35 1116.6 -799.4 1126.7 -802.45 L1140.95 -806.75 Q1154.05 -810.5 1159.75 -808.45 1166.55 -806.0 1172.3 -793.35 L1172.3 -686.45 Q1175.7 -658.75 1177.45 -616.9 L1180.5 -547.35 1180.5 -371.05 Q1180.35 -353.45 1187.6 -211.75 1194.85 -68.9 1194.85 -50.95 L1195.0 -21.0 Q1195.0 -12.0 1194.35 -6.35 1190.75 14.65 1184.6 55.6 L1184.6 152.95 Q1186.2 165.05 1185.65 171.4 1184.7 182.15 1178.45 189.7 1162.1 209.5 1105.2 213.2 L769.0 213.2 670.2 204.5 584.25 197.3 Q545.55 197.3 493.0 203.55 L459.7 207.8 441.75 209.6 Q427.85 209.35 422.4 212.45 418.15 214.9 418.35 220.2 418.45 223.3 419.85 229.9 420.55 235.65 417.4 238.55 L417.4 348.5 415.35 354.65 415.35 445.85 Q412.5 454.75 409.85 474.05 406.65 497.3 405.1 504.55 404.4 507.8 404.6 512.4 L405.05 520.25 Q405.35 529.55 401.05 534.4 395.0 541.2 377.7 544.3 357.55 547.95 319.5 547.35 L264.45 547.85 Q250.15 550.3 167.9 555.7 77.0 561.7 55.6 564.0 L-20.5 564.0 Q-137.75 553.6 -183.75 547.5 -254.7 538.15 -284.95 525.3 -303.95 517.25 -306.9 489.95 -307.9 480.6 -307.25 466.0 -306.3 450.2 -306.2 443.3 -305.35 403.35 -308.45 356.3 -311.85 304.4 -311.85 277.75 -311.85 270.45 -318.15 250.7 L-326.2 225.2 Q-330.0 209.65 -354.0 200.05 -377.6 190.65 -411.25 190.65 L-420.75 191.2 -428.7 192.15 -524.8 192.7 Q-530.3 194.65 -611.8 199.8 -694.9 205.05 -699.05 206.0 L-777.2 206.0 -784.1 204.45 -859.7 203.95 Q-878.95 197.1 -914.65 198.05 L-944.3 199.2 Q-961.7 199.8 -973.05 199.15 -1004.65 197.3 -1021.25 183.6 -1041.95 166.6 -1045.5 127.85 L-1049.45 79.3 Q-1051.65 47.5 -1051.65 27.15 -1051.65 8.7 -1049.6 -0.25 L-1049.6 -131.7 Q-1048.55 -142.75 -1047.55 -165.2 -1046.5 -188.4 -1045.5 -199.85 L-1045.5 -300.3 Q-1044.15 -327.35 -1042.7 -377.6 -1041.4 -420.8 -1041.4 -427.4 -1041.4 -450.45 -1043.45 -462.75 L-1043.45 -546.3 Q-1044.8 -563.8 -1046.25 -594.9 -1047.55 -622.15 -1047.55 -627.55 L-1046.5 -667.6 Q-1045.5 -702.65 -1045.5 -739.0 -1045.5 -756.0 -1041.7 -763.95 -1036.5 -774.85 -1020.65 -781.6 -1003.3 -788.95 -967.65 -794.0 -931.85 -799.0 -868.15 -803.05 L-812.3 -803.05 -663.7 -790.6 -557.6 -781.05 -407.15 -781.05 -400.0 -782.3 -277.25 -783.1 -270.05 -784.6 -209.1 -785.15 -201.9 -786.65 53.55 -787.2 101.55 -791.0 Q139.6 -793.55 148.35 -794.85 L226.75 -795.4 234.95 -796.9 M-19.8 298.25 L-20.15 298.5 Q-30.25 297.05 -35.65 299.05 -40.1 300.7 -40.1 303.85 -40.1 306.05 -39.2 306.95 -38.65 307.5 -36.85 308.1 -32.55 306.35 -23.35 304.1 -19.5 303.15 -19.5 300.45 -19.5 298.4 -19.8 298.25 M-162.8 57.0 L-163.15 56.05 Q-163.9 55.15 -168.75 53.75 -173.75 52.3 -176.45 52.3 L-176.8 56.35 Q-175.9 57.25 -173.65 58.2 -171.0 59.3 -168.8 59.3 -166.7 59.3 -165.1 58.55 L-162.8 57.0 M-200.85 44.85 L-202.05 43.4 -202.8 42.25 -208.45 42.4 -208.55 42.3 -208.65 44.65 Q-208.65 46.75 -207.95 47.2 L-205.7 47.75 Q-204.7 47.5 -203.05 46.55 -201.3 45.55 -200.85 44.85 M-68.25 95.35 L-66.45 94.9 Q-69.85 92.85 -74.95 90.85 -82.05 88.05 -86.6 88.05 L-86.6 90.65 Q-83.3 91.3 -77.6 93.6 -72.7 95.55 -71.15 95.55 L-68.25 95.35 M-781.05 -50.05 L-778.2 -53.1 -786.6 -53.8 Q-789.9 -54.0 -791.7 -53.75 -792.0 -53.95 -792.0 -50.7 -792.0 -49.6 -789.05 -47.1 -785.9 -44.5 -783.9 -44.5 -781.95 -44.5 -781.35 -45.3 L-780.8 -46.15 Q-781.8 -48.65 -781.05 -50.05 M-660.5 -194.4 Q-661.25 -195.2 -662.35 -195.65 -674.1 -191.8 -697.4 -181.85 -720.2 -172.15 -720.2 -171.25 -720.2 -169.3 -719.65 -169.2 L-717.75 -169.15 Q-686.45 -175.75 -659.4 -192.85 L-660.5 -194.4 M-881.35 -100.9 L-880.1 -102.85 Q-882.7 -103.15 -883.5 -102.0 L-884.15 -99.9 -882.85 -99.25 Q-882.2 -99.65 -881.35 -100.9 M-858.0 -134.2 L-858.65 -136.15 Q-865.2 -136.9 -869.7 -131.0 -873.3 -126.2 -872.95 -123.0 -868.55 -122.9 -864.65 -126.15 -861.65 -128.7 -858.0 -134.2 M-822.3 -167.45 Q-820.05 -169.1 -819.45 -170.1 -822.2 -170.4 -824.25 -168.45 L-826.95 -165.25 Q-825.05 -165.35 -822.3 -167.45 M-804.25 -317.65 Q-802.55 -318.9 -802.55 -320.75 -802.55 -326.55 -808.3 -327.15 -810.6 -327.4 -812.3 -326.35 -814.1 -325.25 -814.1 -323.2 L-812.85 -320.3 Q-810.85 -316.55 -807.6 -316.55 -805.75 -316.55 -804.25 -317.65 M-740.7 -590.4 L-744.25 -590.5 Q-752.1 -590.5 -758.4 -586.95 -764.4 -583.6 -764.4 -579.8 -764.4 -577.3 -762.95 -574.35 -761.35 -571.05 -758.7 -568.75 -754.9 -569.8 -754.7 -573.55 -754.6 -575.55 -754.8 -578.65 -753.0 -582.55 -751.1 -583.65 -749.9 -584.35 -747.4 -584.1 -741.05 -583.5 -735.6 -588.25 -735.8 -588.8 -736.55 -589.3 L-737.25 -589.85 -740.7 -590.4 M-267.6 -8.9 Q-261.2 -12.35 -260.15 -13.15 L-274.55 -15.45 Q-278.35 -15.5 -278.35 -11.2 L-278.1 -8.1 Q-277.25 -5.5 -274.3 -5.5 -273.9 -5.5 -267.6 -8.9 M-622.85 -125.25 Q-619.9 -126.15 -611.95 -130.25 -603.2 -134.8 -600.1 -137.45 -603.75 -137.45 -612.45 -134.55 -623.1 -131.0 -625.45 -126.9 -624.8 -126.25 -623.75 -125.7 L-622.85 -125.25 M-27.25 -580.1 L-27.6 -579.6 Q-32.1 -580.75 -51.9 -570.3 -71.8 -559.8 -71.8 -555.9 -71.8 -553.75 -70.9 -553.05 -70.65 -552.85 -68.55 -552.15 -64.8 -554.35 -44.95 -566.05 -26.95 -576.9 -26.95 -578.15 -26.95 -580.2 -27.25 -580.1 M687.6 7.95 L686.85 7.45 Q682.75 6.45 675.75 3.65 671.85 2.1 669.3 2.9 L669.0 3.9 Q670.4 6.05 678.1 7.45 L685.9 8.45 Q687.95 8.45 687.6 7.95 M737.35 25.2 L737.55 23.4 Q735.65 21.75 731.35 20.35 727.2 19.0 724.4 19.0 L724.4 22.1 Q725.65 23.15 728.95 24.6 732.75 26.3 734.95 26.3 737.0 26.3 737.35 25.2 M773.3 25.0 L773.5 23.4 Q771.6 22.25 769.4 22.1 L766.0 22.25 766.0 24.35 Q767.0 25.35 770.55 25.65 L773.3 25.0 M150.15 392.85 Q149.55 393.1 148.35 395.5 L148.65 397.45 149.95 398.65 152.9 399.1 Q156.9 399.1 158.25 397.15 L157.6 393.25 150.15 392.85 M49.4 393.9 L49.25 393.75 Q49.05 393.95 49.05 396.0 49.05 397.95 49.4 398.05 L49.7 398.1 Q54.4 398.1 55.05 397.15 55.05 396.5 54.25 394.2 L51.0 393.8 49.4 393.9 M66.75 132.25 Q70.8 132.25 71.5 130.3 L54.3 126.05 Q42.65 123.3 40.1 123.3 L39.95 123.15 Q39.8 123.4 39.8 125.45 39.8 127.5 40.15 127.4 L40.45 126.9 Q47.3 129.7 52.45 130.85 58.8 132.25 66.75 132.25 M271.85 101.55 L271.5 100.55 Q267.8 98.6 261.55 98.75 255.2 98.95 252.65 101.2 L253.0 103.15 254.25 104.35 257.2 104.8 Q261.85 104.8 265.85 103.85 269.5 103.0 271.85 101.55 M353.75 46.45 Q358.05 44.3 359.25 43.2 356.4 42.95 351.65 44.3 346.45 45.75 346.45 47.45 346.45 49.5 347.45 49.45 347.9 49.45 348.4 49.05 L353.75 46.45 M641.4 -12.75 Q646.7 -16.0 647.55 -17.35 644.75 -21.2 638.65 -18.95 632.75 -16.75 632.75 -13.45 632.75 -11.35 633.65 -10.7 634.2 -10.25 636.0 -9.75 636.5 -9.75 641.4 -12.75 M835.75 -107.3 L835.9 -106.75 840.6 -105.1 842.4 -106.25 843.5 -106.75 844.15 -109.85 843.5 -113.75 Q839.25 -115.25 837.15 -113.8 835.55 -112.65 835.55 -110.3 L835.75 -107.3 M836.85 -405.1 L836.85 -408.0 Q829.2 -408.9 823.3 -413.55 L819.65 -416.2 Q817.8 -417.2 815.75 -416.65 817.1 -412.1 820.9 -408.85 825.7 -404.75 832.65 -404.75 L835.6 -404.9 836.85 -405.1 M757.7 -473.35 Q759.6 -471.45 761.15 -472.35 758.3 -474.95 757.7 -473.35 M713.2 -495.75 Q712.85 -496.75 711.9 -497.7 L708.3 -497.4 Q707.55 -497.0 704.6 -493.8 L705.7 -492.65 708.5 -492.2 Q711.45 -492.2 712.25 -493.55 L713.2 -495.75 M671.25 -542.0 L670.6 -542.55 Q660.65 -543.65 653.75 -538.9 647.85 -534.85 647.85 -530.05 647.85 -529.75 648.6 -529.15 L651.95 -526.5 665.25 -532.3 Q671.9 -535.6 671.9 -539.5 671.9 -541.45 671.25 -542.0" fill="#779267" fill-rule="evenodd" stroke="none"/>
    <path d="M671.25 -542.0 Q671.9 -541.45 671.9 -539.5 671.9 -535.6 665.25 -532.3 L651.95 -526.5 648.6 -529.15 Q647.85 -529.75 647.85 -530.05 647.85 -534.85 653.75 -538.9 660.65 -543.65 670.6 -542.55 L671.25 -542.0 M713.2 -495.75 L712.25 -493.55 Q711.45 -492.2 708.5 -492.2 L705.7 -492.65 704.6 -493.8 Q707.55 -497.0 708.3 -497.4 L711.9 -497.7 Q712.85 -496.75 713.2 -495.75 M757.7 -473.35 Q758.3 -474.95 761.15 -472.35 759.6 -471.45 757.7 -473.35 M836.85 -405.1 L835.6 -404.9 832.65 -404.75 Q825.7 -404.75 820.9 -408.85 817.1 -412.1 815.75 -416.65 817.8 -417.2 819.65 -416.2 L823.3 -413.55 Q829.2 -408.9 836.85 -408.0 L836.85 -405.1 M835.75 -107.3 L835.55 -110.3 Q835.55 -112.65 837.15 -113.8 839.25 -115.25 843.5 -113.75 L844.15 -109.85 843.5 -106.75 842.4 -106.25 840.6 -105.1 835.9 -106.75 835.75 -107.3 M641.4 -12.75 Q636.5 -9.75 636.0 -9.75 634.2 -10.25 633.65 -10.7 632.75 -11.35 632.75 -13.45 632.75 -16.75 638.65 -18.95 644.75 -21.2 647.55 -17.35 646.7 -16.0 641.4 -12.75 M353.75 46.45 L348.4 49.05 Q347.9 49.45 347.45 49.45 346.45 49.5 346.45 47.45 346.45 45.75 351.65 44.3 356.4 42.95 359.25 43.2 358.05 44.3 353.75 46.45 M271.85 101.55 Q269.5 103.0 265.85 103.85 261.85 104.8 257.2 104.8 L254.25 104.35 253.0 103.15 252.65 101.2 Q255.2 98.95 261.55 98.75 267.8 98.6 271.5 100.55 L271.85 101.55 M66.75 132.25 Q58.8 132.25 52.45 130.85 47.3 129.7 40.45 126.9 L40.15 127.4 Q39.8 127.5 39.8 125.45 39.8 123.4 39.95 123.15 L40.1 123.3 Q42.65 123.3 54.3 126.05 L71.5 130.3 Q70.8 132.25 66.75 132.25 M49.4 393.9 L51.0 393.8 54.25 394.2 Q55.05 396.5 55.05 397.15 54.4 398.1 49.7 398.1 L49.4 398.05 Q49.05 397.95 49.05 396.0 49.05 393.95 49.25 393.75 L49.4 393.9 M150.15 392.85 L157.6 393.25 158.25 397.15 Q156.9 399.1 152.9 399.1 L149.95 398.65 148.65 397.45 148.35 395.5 Q149.55 393.1 150.15 392.85 M773.3 25.0 L770.55 25.65 Q767.0 25.35 766.0 24.35 L766.0 22.25 769.4 22.1 Q771.6 22.25 773.5 23.4 L773.3 25.0 M737.35 25.2 Q737.0 26.3 734.95 26.3 732.75 26.3 728.95 24.6 725.65 23.15 724.4 22.1 L724.4 19.0 Q727.2 19.0 731.35 20.35 735.65 21.75 737.55 23.4 L737.35 25.2 M687.6 7.95 Q687.95 8.45 685.9 8.45 L678.1 7.45 Q670.4 6.05 669.0 3.9 L669.3 2.9 Q671.85 2.1 675.75 3.65 682.75 6.45 686.85 7.45 L687.6 7.95 M-27.25 -580.1 Q-26.95 -580.2 -26.95 -578.15 -26.95 -576.9 -44.95 -566.05 -64.8 -554.35 -68.55 -552.15 -70.65 -552.85 -70.9 -553.05 -71.8 -553.75 -71.8 -555.9 -71.8 -559.8 -51.9 -570.3 -32.1 -580.75 -27.6 -579.6 L-27.25 -580.1 M-622.85 -125.25 L-623.75 -125.7 Q-624.8 -126.25 -625.45 -126.9 -623.1 -131.0 -612.45 -134.55 -603.75 -137.45 -600.1 -137.45 -603.2 -134.8 -611.95 -130.25 -619.9 -126.15 -622.85 -125.25 M-267.6 -8.9 Q-273.9 -5.5 -274.3 -5.5 -277.25 -5.5 -278.1 -8.1 L-278.35 -11.2 Q-278.35 -15.5 -274.55 -15.45 L-260.15 -13.15 Q-261.2 -12.35 -267.6 -8.9 M-740.7 -590.4 L-737.25 -589.85 -736.55 -589.3 Q-735.8 -588.8 -735.6 -588.25 -741.05 -583.5 -747.4 -584.1 -749.9 -584.35 -751.1 -583.65 -753.0 -582.55 -754.8 -578.65 -754.6 -575.55 -754.7 -573.55 -754.9 -569.8 -758.7 -568.75 -761.35 -571.05 -762.95 -574.35 -764.4 -577.3 -764.4 -579.8 -764.4 -583.6 -758.4 -586.95 -752.1 -590.5 -744.25 -590.5 L-740.7 -590.4 M-804.25 -317.65 Q-805.75 -316.55 -807.6 -316.55 -810.85 -316.55 -812.85 -320.3 L-814.1 -323.2 Q-814.1 -325.25 -812.3 -326.35 -810.6 -327.4 -808.3 -327.15 -802.55 -326.55 -802.55 -320.75 -802.55 -318.9 -804.25 -317.65 M-822.3 -167.45 Q-825.05 -165.35 -826.95 -165.25 L-824.25 -168.45 Q-822.2 -170.4 -819.45 -170.1 -820.05 -169.1 -822.3 -167.45 M-858.0 -134.2 Q-861.65 -128.7 -864.65 -126.15 -868.55 -122.9 -872.95 -123.0 -873.3 -126.2 -869.7 -131.0 -865.2 -136.9 -858.65 -136.15 L-858.0 -134.2 M-881.35 -100.9 Q-882.2 -99.65 -882.85 -99.25 L-884.15 -99.9 -883.5 -102.0 Q-882.7 -103.15 -880.1 -102.85 L-881.35 -100.9 M-660.5 -194.4 L-659.4 -192.85 Q-686.45 -175.75 -717.75 -169.15 L-719.65 -169.2 Q-720.2 -169.3 -720.2 -171.25 -720.2 -172.15 -697.4 -181.85 -674.1 -191.8 -662.35 -195.65 -661.25 -195.2 -660.5 -194.4 M-781.05 -50.05 Q-781.8 -48.65 -780.8 -46.15 L-781.35 -45.3 Q-781.95 -44.5 -783.9 -44.5 -785.9 -44.5 -789.05 -47.1 -792.0 -49.6 -792.0 -50.7 -792.0 -53.95 -791.7 -53.75 -789.9 -54.0 -786.6 -53.8 L-778.2 -53.1 -781.05 -50.05 M-68.25 95.35 L-71.15 95.55 Q-72.7 95.55 -77.6 93.6 -83.3 91.3 -86.6 90.65 L-86.6 88.05 Q-82.05 88.05 -74.95 90.85 -69.85 92.85 -66.45 94.9 L-68.25 95.35 M-200.85 44.85 Q-201.3 45.55 -203.05 46.55 -204.7 47.5 -205.7 47.75 L-207.95 47.2 Q-208.65 46.75 -208.65 44.65 L-208.55 42.3 -208.45 42.4 -202.8 42.25 -202.05 43.4 -200.85 44.85 M-162.8 57.0 L-165.1 58.55 Q-166.7 59.3 -168.8 59.3 -171.0 59.3 -173.65 58.2 -175.9 57.25 -176.8 56.35 L-176.45 52.3 Q-173.75 52.3 -168.75 53.75 -163.9 55.15 -163.15 56.05 L-162.8 57.0 M-19.8 298.25 Q-19.5 298.4 -19.5 300.45 -19.5 303.15 -23.35 304.1 -32.55 306.35 -36.85 308.1 -38.65 307.5 -39.2 306.95 -40.1 306.05 -40.1 303.85 -40.1 300.7 -35.65 299.05 -30.25 297.05 -20.15 298.5 L-19.8 298.25" fill="#8ca47d" fill-rule="evenodd" stroke="none"/>
  </g>
</svg>
