<?xml version="1.0" encoding="UTF-8" standalone="no"?>
<svg xmlns:ffdec="https://www.free-decompiler.com/flash" xmlns:xlink="http://www.w3.org/1999/xlink" ffdec:objectType="shape" height="374.6px" width="339.75px" xmlns="http://www.w3.org/2000/svg">
  <g transform="matrix(1.0, 0.0, 0.0, 1.0, 34.7, 329.25)">
    <path d="M25.0 -216.2 L31.85 -232.25 Q40.7 -256.75 51.85 -279.8 L53.15 -282.4 Q56.2 -290.85 57.35 -295.55 61.05 -303.85 63.75 -311.05 66.7 -312.9 70.7 -313.15 75.6 -313.4 79.3 -311.2 81.75 -309.7 82.7 -307.65 93.7 -312.85 107.45 -314.7 127.6 -317.4 142.75 -311.65 143.4 -312.65 144.55 -313.05 147.0 -313.95 151.05 -312.05 153.4 -310.95 155.6 -309.25 155.9 -309.7 156.45 -309.7 L156.8 -310.45 157.1 -310.15 Q157.2 -311.45 157.8 -312.1 158.35 -312.7 159.8 -313.2 162.4 -310.4 167.55 -296.55 173.45 -286.85 179.1 -273.15 L187.45 -251.75 Q191.2 -242.1 194.2 -235.5 199.5 -219.25 208.05 -197.15 L211.2 -189.2 Q200.3 -186.6 193.05 -181.85 187.2 -178.05 183.9 -173.0 150.35 -182.4 113.8 -188.05 64.95 -195.6 35.55 -191.95 L24.95 -190.05 Q25.45 -201.05 25.2 -210.6 L25.0 -216.2 M243.8 -105.25 Q251.0 -81.3 251.0 -61.45 251.0 -51.2 250.55 -43.6 247.05 -28.05 246.05 -19.45 242.25 -8.7 235.4 0.0 206.95 36.35 120.1 45.35 L90.4 45.35 Q29.6 36.75 -4.15 14.95 -34.7 -4.8 -34.7 -28.9 -34.7 -44.6 -31.65 -62.85 -24.25 -24.65 -15.0 -7.1 -10.7 -14.0 -8.85 -19.15 -7.75 -22.1 -7.15 -25.25 0.4 -7.25 8.85 -7.1 15.95 4.5 23.6 4.5 28.3 4.5 29.95 2.2 30.85 0.95 31.5 -1.5 28.6 -8.75 26.5 -17.35 24.35 -26.4 24.35 -31.85 24.35 -35.9 13.65 -81.0 8.35 -103.35 5.1 -118.15 32.05 -113.15 82.45 -108.1 136.7 -102.65 191.6 -99.35 206.1 -99.35 226.7 -102.35 L243.8 -105.25" fill="url(#gradient0)" fill-rule="evenodd" stroke="none"/>
    <path d="M211.2 -189.2 Q227.25 -193.15 251.25 -192.35 252.1 -197.0 253.65 -213.35 254.95 -227.15 256.85 -234.35 259.15 -242.5 266.75 -246.4 273.7 -249.9 282.35 -248.75 290.95 -247.6 296.7 -242.35 L298.0 -241.05 Q295.4 -228.85 291.7 -205.7 287.6 -179.75 283.85 -166.85 275.65 -139.3 267.75 -110.65 L266.3 -110.3 Q255.35 -107.45 243.8 -105.25 L226.7 -102.35 Q206.1 -99.35 191.6 -99.35 136.7 -102.65 82.45 -108.1 32.05 -113.15 5.1 -118.15 L4.85 -119.2 Q2.45 -118.5 1.1 -118.5 -6.85 -118.5 -10.75 -135.75 -12.55 -143.6 -13.0 -151.45 -16.8 -161.25 -18.7 -181.65 -20.5 -201.25 -20.25 -221.6 L-20.4 -234.0 Q-20.4 -239.85 -19.35 -243.25 -16.9 -251.2 -4.1 -257.25 -1.75 -254.7 -0.6 -252.85 L-0.5 -252.7 Q3.0 -257.25 6.75 -257.25 23.0 -257.25 25.0 -216.2 L25.2 -210.6 Q25.45 -201.05 24.95 -190.05 L35.55 -191.95 Q64.95 -195.6 113.8 -188.05 150.35 -182.4 183.9 -173.0 187.2 -178.05 193.05 -181.85 200.3 -186.6 211.2 -189.2" fill="url(#gradient1)" fill-rule="evenodd" stroke="none"/>
    <path d="M-9.35 -318.15 L-7.2 -321.15 38.35 -323.0 37.2 -322.0 37.25 -322.0 Q43.8 -323.45 53.25 -324.2 70.2 -323.25 89.2 -323.15 L96.35 -323.45 Q115.0 -322.45 138.25 -322.35 191.15 -322.2 206.4 -326.2 L226.45 -324.9 230.95 -325.35 243.75 -324.8 261.4 -324.45 262.3 -324.6 264.3 -324.6 Q264.8 -324.85 265.3 -324.6 L269.3 -324.6 Q271.35 -325.55 275.2 -325.4 L279.85 -323.8 Q284.7 -321.75 296.35 -319.65 L296.45 -318.3 295.45 -318.45 295.35 -318.45 295.3 -317.95 295.3 -317.85 294.85 -314.1 294.35 -307.9 294.05 -302.3 Q293.95 -299.35 294.25 -297.6 L296.1 -283.8 Q296.3 -281.8 297.0 -278.15 L297.0 -276.5 296.55 -274.0 296.6 -272.15 296.6 -271.55 296.0 -266.15 Q295.7 -261.15 296.05 -256.2 L295.15 -254.05 Q291.15 -243.65 290.45 -233.15 L290.1 -230.75 Q289.0 -226.1 288.7 -222.0 L288.65 -220.2 Q288.65 -214.95 290.7 -208.45 L290.95 -207.75 Q289.75 -202.65 289.4 -197.5 L290.5 -190.8 289.7 -189.75 Q289.2 -188.5 286.8 -185.65 L286.65 -185.45 284.5 -182.9 283.85 -182.15 283.9 -182.15 280.4 -177.9 278.15 -174.9 273.2 -171.4 271.75 -170.35 Q269.3 -169.7 267.7 -168.85 L250.8 -167.7 250.3 -167.7 235.6 -166.8 233.65 -166.55 226.65 -166.55 Q211.8 -168.55 183.6 -168.55 164.1 -168.65 137.3 -167.7 L112.9 -166.8 Q98.8 -169.45 93.9 -169.8 90.15 -170.2 88.7 -171.2 L78.0 -172.1 63.2 -171.9 55.65 -172.4 26.55 -172.75 9.35 -171.15 4.85 -170.35 3.15 -172.75 2.8 -173.2 Q-0.65 -177.65 -3.55 -179.35 L-3.9 -179.8 Q-4.05 -180.8 -5.0 -181.8 L-5.3 -181.8 -5.65 -182.4 -7.55 -183.9 Q-7.6 -184.05 -7.8 -184.05 L-8.55 -185.05 -9.4 -187.2 -10.0 -188.6 -10.1 -189.45 Q-10.65 -192.95 -11.85 -197.55 L-11.85 -197.8 -11.6 -197.1 Q-11.05 -194.45 -9.45 -192.15 L-12.0 -198.7 -12.05 -199.3 -12.15 -199.75 -12.2 -200.25 Q-13.65 -210.0 -18.05 -219.85 L-18.3 -220.45 Q-19.95 -224.0 -21.95 -227.6 L-24.0 -231.1 -24.05 -231.15 -24.05 -231.25 -23.95 -232.2 -22.9 -234.5 Q-20.05 -241.15 -20.05 -246.6 L-20.05 -246.9 Q-20.1 -254.9 -23.75 -263.15 -25.9 -267.95 -28.55 -270.35 L-26.75 -282.65 -24.15 -291.25 -22.65 -293.35 -21.5 -293.55 -21.2 -293.6 -17.1 -296.25 -16.85 -296.55 -16.4 -297.35 -15.2 -299.9 Q-13.95 -303.55 -13.95 -308.25 L-14.2 -312.45 -12.5 -314.35 -12.05 -314.95 -9.8 -317.75 -9.6 -317.45 -9.9 -315.5 -10.6 -312.65 Q-11.9 -307.55 -15.2 -297.4 L-15.5 -296.55 -15.75 -295.85 -16.1 -294.75 -16.65 -292.85 -17.2 -291.15 Q-15.4 -289.75 -15.0 -286.7 L-14.95 -286.25 Q-14.7 -283.2 -15.6 -279.85 L-15.7 -277.05 -15.9 -272.75 -15.7 -271.95 -15.45 -270.95 -16.75 -271.9 Q-16.25 -273.95 -16.25 -276.15 -16.25 -278.95 -16.75 -280.8 L-17.05 -281.7 Q-16.25 -284.65 -16.2 -286.05 -16.2 -288.3 -16.8 -289.35 -17.4 -290.2 -19.2 -291.45 -20.85 -290.05 -22.3 -286.55 -23.55 -283.65 -23.55 -282.65 -23.55 -281.5 -23.0 -279.4 L-23.75 -277.15 Q-25.5 -271.95 -25.5 -269.25 -25.6 -267.4 -25.0 -267.3 L-24.2 -267.25 Q-23.3 -264.65 -20.05 -260.25 L-16.65 -255.1 -16.65 -254.7 Q-16.7 -250.0 -18.85 -243.3 -21.05 -236.7 -21.0 -236.0 -21.1 -234.9 -14.85 -217.6 L-13.15 -212.9 -11.3 -207.8 Q-6.5 -194.7 -2.15 -184.25 L-2.65 -182.8 -2.65 -182.7 -3.15 -182.25 -2.8 -181.95 -2.6 -181.85 Q-1.9 -181.75 -1.75 -180.5 -1.8 -179.9 0.75 -177.9 2.95 -176.05 4.15 -175.4 L4.6 -174.0 4.1 -172.95 6.8 -173.2 10.25 -173.5 10.3 -173.5 19.05 -174.2 21.1 -174.3 27.8 -174.95 Q46.2 -174.5 48.45 -174.65 49.8 -174.9 53.05 -174.7 L56.65 -174.3 71.7 -174.45 78.95 -174.0 91.9 -173.35 96.75 -172.25 Q101.7 -172.85 118.3 -172.6 L123.7 -172.45 Q125.0 -172.1 125.8 -171.6 L127.3 -171.95 134.55 -172.4 154.85 -172.15 155.25 -172.1 Q195.65 -171.6 198.1 -171.65 205.55 -171.85 209.85 -170.05 L212.95 -168.65 Q220.75 -170.6 229.4 -171.45 242.2 -172.8 252.8 -171.05 L254.85 -170.7 Q258.8 -173.1 264.6 -173.4 L268.9 -173.45 275.0 -173.1 275.35 -173.6 Q283.15 -185.5 287.4 -189.6 L287.8 -191.25 288.75 -195.2 287.85 -213.65 287.1 -229.9 287.0 -234.05 287.0 -234.1 289.25 -240.55 289.4 -240.85 291.55 -246.0 294.55 -253.35 293.95 -257.6 Q293.3 -264.05 293.55 -270.15 293.65 -272.0 294.2 -273.6 L293.4 -279.6 Q291.95 -290.6 291.45 -297.65 290.85 -304.9 291.05 -308.1 291.5 -314.7 291.95 -316.8 L292.55 -318.95 289.2 -319.55 275.6 -321.45 271.8 -321.65 270.0 -323.05 269.85 -323.2 266.5 -323.25 263.15 -322.8 262.7 -322.8 262.55 -322.6 262.0 -322.6 245.65 -322.8 229.4 -323.4 218.2 -324.2 213.75 -324.15 174.1 -321.45 Q152.1 -320.6 132.1 -320.25 L114.8 -320.2 113.05 -320.2 108.7 -320.25 92.25 -320.3 91.15 -320.3 90.2 -320.3 62.05 -320.5 57.15 -319.9 55.15 -319.8 52.8 -320.1 38.7 -319.1 38.2 -319.05 31.45 -318.4 31.0 -318.35 26.9 -315.75 25.0 -316.05 27.5 -318.2 26.95 -318.2 11.85 -318.65 -9.35 -318.15" fill="#646749" fill-rule="evenodd" stroke="none"/>
    <path d="M268.9 -173.45 L264.6 -173.4 Q258.8 -173.1 254.85 -170.7 L252.8 -171.05 Q242.2 -172.8 229.4 -171.45 220.75 -170.6 212.95 -168.65 L209.85 -170.05 Q205.55 -171.85 198.1 -171.65 195.65 -171.6 155.25 -172.1 L155.25 -172.2 154.85 -172.15 134.55 -172.4 127.3 -171.95 125.8 -171.6 Q125.0 -172.1 123.7 -172.45 L118.3 -172.6 111.7 -173.2 87.65 -175.3 87.0 -175.35 Q87.7 -174.85 88.85 -174.4 L89.85 -174.0 91.9 -173.35 78.95 -174.0 71.7 -174.45 56.65 -174.3 53.05 -174.7 Q49.8 -174.9 48.45 -174.65 46.2 -174.5 27.8 -174.95 L21.1 -174.3 19.05 -174.2 10.3 -173.5 Q11.6 -174.3 12.75 -175.2 12.0 -175.3 11.9 -175.5 L11.4 -176.45 Q12.5 -178.35 16.4 -181.0 L16.9 -182.1 17.45 -184.45 17.85 -187.0 17.95 -189.65 17.55 -189.65 Q17.3 -193.5 18.95 -197.45 20.7 -201.8 20.6 -203.3 L19.4 -205.9 17.0 -209.7 16.35 -210.75 16.2 -211.05 16.05 -211.2 15.8 -211.6 15.7 -211.75 15.55 -212.0 15.65 -213.1 Q15.65 -214.2 11.9 -220.15 10.8 -228.15 5.9 -234.15 L4.85 -235.5 1.25 -238.85 Q0.75 -240.45 0.8 -241.5 0.8 -243.25 1.3 -244.55 L1.85 -244.6 18.25 -246.05 22.5 -246.45 23.25 -246.5 42.95 -248.5 61.95 -249.1 Q76.7 -249.75 90.85 -249.85 102.75 -249.95 105.65 -249.6 L121.8 -250.15 124.9 -250.15 129.6 -250.1 129.65 -250.5 142.75 -249.4 188.3 -247.15 192.1 -246.65 191.95 -246.2 Q192.85 -246.5 194.45 -245.85 L194.45 -245.6 194.7 -246.0 195.0 -246.35 195.55 -247.0 195.6 -246.25 195.6 -245.6 Q196.5 -245.2 198.0 -244.95 L198.2 -244.95 199.15 -244.85 201.1 -244.7 203.2 -244.7 226.35 -244.85 244.35 -246.95 266.7 -248.25 Q266.7 -246.45 267.8 -241.5 L269.6 -233.9 271.3 -226.9 271.7 -225.2 272.5 -217.7 Q272.2 -211.95 272.3 -201.75 L272.35 -198.5 272.45 -189.9 Q272.2 -187.05 270.65 -180.8 L273.55 -180.15 274.05 -178.4 Q272.95 -177.6 269.5 -176.25 L268.9 -173.45 M250.6 -298.15 L208.85 -301.15 210.6 -301.3 208.75 -301.75 211.9 -301.75 Q231.4 -301.75 237.1 -302.15 L242.2 -303.05 249.8 -302.95 Q250.35 -300.35 255.65 -297.95 L250.6 -298.15 M212.6 -304.4 Q212.65 -306.0 212.8 -305.75 L214.75 -305.8 217.15 -305.7 217.4 -304.5 Q217.05 -304.05 216.85 -303.15 L216.35 -302.9 214.7 -302.65 Q212.9 -302.7 213.05 -303.0 L212.6 -303.3 212.6 -304.4 M233.05 -314.55 L231.75 -314.7 231.75 -314.9 231.4 -315.05 231.3 -316.05 Q231.35 -316.75 232.5 -317.25 L234.35 -317.95 Q235.55 -317.55 236.15 -316.7 233.75 -314.6 233.05 -314.55 M269.65 -211.25 L269.65 -211.45 Q267.65 -219.15 267.1 -223.6 L266.95 -224.55 Q266.55 -228.1 263.85 -233.45 L263.8 -233.45 Q261.35 -233.45 255.05 -240.65 L234.4 -239.15 Q227.65 -240.95 216.95 -241.5 209.75 -241.9 199.7 -241.7 L198.7 -241.7 Q197.1 -242.6 195.25 -242.4 193.7 -242.35 192.3 -241.65 L188.95 -241.65 162.3 -242.45 162.05 -242.45 132.85 -244.8 116.1 -244.0 91.25 -244.95 89.35 -245.75 85.9 -246.15 86.3 -247.1 43.25 -243.85 35.6 -242.05 Q28.5 -240.6 14.65 -238.7 L13.9 -239.15 Q13.0 -239.25 13.05 -237.3 13.05 -236.95 19.7 -224.05 26.2 -211.45 25.85 -207.0 24.65 -196.25 27.3 -190.25 L28.7 -190.4 28.85 -190.05 Q28.1 -188.85 27.9 -186.8 30.45 -187.95 34.2 -189.1 41.75 -191.45 43.25 -191.45 42.2 -190.4 35.25 -186.35 30.55 -183.6 28.4 -182.6 L28.5 -182.45 Q30.05 -180.05 34.7 -180.1 38.15 -180.25 40.05 -181.05 L41.25 -181.8 43.0 -181.8 43.1 -181.8 Q44.65 -181.9 48.7 -183.25 52.85 -184.65 54.4 -184.7 L57.45 -184.65 58.4 -183.8 Q56.2 -182.65 56.2 -180.5 56.15 -180.2 56.8 -179.65 L60.45 -177.15 Q63.8 -178.65 66.5 -179.5 71.5 -177.6 76.95 -177.3 78.9 -178.9 83.65 -178.85 L83.9 -179.15 83.95 -178.85 85.3 -178.85 110.0 -178.1 Q119.4 -179.45 128.75 -176.85 L131.95 -175.85 Q134.35 -177.1 136.8 -178.95 L137.05 -179.15 140.05 -178.1 Q148.2 -175.5 158.75 -174.45 L177.15 -173.8 183.8 -174.1 189.0 -172.95 225.1 -175.7 235.7 -173.85 Q239.45 -177.15 252.05 -179.4 L259.65 -180.5 265.25 -180.9 267.65 -180.95 Q269.65 -183.8 270.0 -189.25 270.15 -191.05 269.15 -193.9 L267.85 -196.95 Q268.95 -197.95 270.45 -198.95 L271.1 -199.4 271.45 -202.85 Q271.5 -203.85 270.05 -209.65 L270.1 -209.7 269.95 -211.05 269.65 -211.25 M172.5 -224.65 L172.5 -224.95 Q172.5 -227.3 175.95 -227.3 178.45 -227.3 180.8 -226.4 L181.35 -224.75 181.4 -224.65 Q180.15 -222.2 176.5 -222.2 L173.85 -222.35 173.35 -222.5 172.95 -222.9 Q172.55 -223.2 172.5 -224.65 M144.3 -198.4 L144.45 -198.05 Q144.05 -196.95 143.7 -196.6 142.85 -195.75 141.0 -195.75 L138.5 -196.15 137.4 -197.2 137.4 -199.2 137.4 -199.8 139.45 -200.0 143.6 -199.8 144.3 -198.4 M237.25 -223.45 L236.95 -223.1 236.0 -222.45 234.6 -222.3 Q234.15 -222.3 234.4 -223.65 234.6 -225.05 235.3 -225.1 L236.75 -224.75 Q237.35 -224.15 237.25 -223.45 M210.95 -210.6 Q209.95 -209.55 208.35 -209.2 208.25 -209.45 207.95 -209.35 L208.0 -210.8 Q208.2 -212.2 208.4 -212.25 L208.5 -212.05 210.5 -212.05 210.95 -210.6 M227.2 -199.15 L226.45 -199.55 226.2 -199.3 Q226.0 -199.3 226.2 -200.55 226.35 -201.95 227.3 -202.4 L228.9 -202.6 229.4 -201.25 228.5 -199.95 227.2 -199.15 M84.05 -311.95 L84.05 -312.15 83.75 -312.25 Q83.6 -312.35 83.6 -313.35 83.55 -314.1 84.45 -314.8 L85.85 -315.65 Q86.85 -315.25 87.35 -314.35 85.65 -311.9 85.1 -311.8 L84.05 -311.95 M92.35 -299.15 L92.7 -298.6 90.8 -298.65 92.35 -299.15 M69.65 -300.7 L71.25 -300.9 73.15 -300.95 73.4 -299.65 73.1 -298.05 69.65 -299.5 Q69.5 -300.9 69.65 -300.7 M19.35 -270.25 L20.9 -270.45 19.6 -270.1 19.35 -270.25 M35.4 -268.6 L36.8 -269.5 Q37.85 -269.15 38.35 -268.2 36.7 -265.75 36.15 -265.7 L35.05 -265.8 Q34.9 -265.9 35.05 -266.0 L34.75 -266.15 34.55 -267.2 Q34.45 -267.9 35.4 -268.6 M24.2 -252.1 L21.7 -252.1 Q22.15 -252.15 22.4 -252.95 22.6 -253.85 22.05 -254.45 L20.65 -254.55 20.7 -254.65 22.3 -254.85 24.2 -254.85 24.5 -253.6 Q24.2 -253.0 24.2 -252.1 M19.8 -216.45 Q19.25 -216.15 18.8 -215.1 19.15 -214.65 19.75 -214.4 L20.35 -214.35 Q21.05 -215.3 21.1 -216.65 L19.8 -216.45 M80.35 -237.45 Q83.2 -236.9 84.05 -236.0 L84.35 -235.15 Q83.8 -233.85 80.35 -233.45 L79.55 -233.85 Q78.7 -234.3 78.3 -234.85 78.3 -235.55 78.9 -236.35 79.55 -237.25 80.35 -237.45 M49.15 -204.95 Q49.15 -206.5 51.1 -207.65 53.3 -208.95 56.45 -208.25 55.95 -206.05 54.35 -204.5 52.95 -203.1 51.75 -203.1 L49.65 -203.35 49.6 -203.4 49.45 -203.25 Q49.15 -203.15 49.15 -204.95 M75.45 -209.4 Q77.2 -211.25 78.45 -211.65 81.65 -212.55 85.65 -208.55 L84.05 -207.25 Q83.2 -206.55 81.5 -206.55 79.75 -206.55 78.35 -207.45 L75.45 -209.4 M85.15 -182.95 L85.35 -182.9 85.2 -182.75 Q85.1 -182.85 85.15 -182.95 M243.15 -155.05 L245.3 -155.0 245.2 -154.95 243.15 -155.05 M212.0 -194.6 Q211.45 -193.0 209.7 -192.3 208.25 -192.9 207.4 -193.75 208.45 -195.25 209.45 -195.8 L211.15 -196.35 212.0 -194.6 M186.65 -172.85 L186.7 -173.35 186.55 -172.85 186.65 -172.85 M-5.45 -268.25 L-5.05 -268.2 -5.1 -268.15 -5.45 -268.25" fill="#a3a46c" fill-rule="evenodd" stroke="none"/>
    <path d="M-9.35 -318.15 L11.85 -318.65 26.95 -318.2 27.5 -318.2 25.0 -316.05 18.5 -316.75 18.25 -316.9 Q17.95 -316.65 18.0 -314.65 17.9 -312.7 18.4 -312.7 L18.75 -313.2 25.95 -311.5 24.9 -310.75 24.4 -310.7 15.85 -309.5 19.1 -311.55 7.45 -311.15 -3.35 -312.05 Q-5.45 -309.1 -6.6 -305.8 -8.15 -301.75 -8.3 -295.7 L-8.25 -291.5 -6.25 -293.15 -6.15 -293.25 -6.1 -292.8 -5.9 -288.55 -5.75 -287.5 Q-9.15 -286.85 -9.1 -279.5 -9.15 -278.6 -7.7 -276.9 -6.3 -275.3 -3.55 -272.9 L-0.95 -270.85 -0.25 -268.45 Q6.05 -266.3 6.05 -263.9 6.05 -262.25 5.35 -260.85 4.15 -258.5 1.4 -258.35 5.4 -253.85 15.65 -250.85 L18.5 -249.95 20.3 -250.15 40.6 -252.45 Q43.25 -252.95 44.45 -253.7 L57.9 -254.8 57.95 -253.35 63.15 -254.0 Q76.55 -255.45 98.45 -254.55 L109.4 -254.4 117.45 -253.8 Q126.25 -253.45 139.65 -253.6 L160.55 -254.0 Q173.3 -254.15 178.5 -255.6 206.05 -251.0 223.5 -251.15 234.25 -251.25 246.2 -257.4 L250.4 -259.7 253.75 -259.65 274.2 -259.55 Q277.7 -267.85 285.25 -282.45 L278.6 -282.45 Q274.45 -283.9 274.2 -285.15 275.0 -286.3 278.25 -286.35 L286.9 -286.0 Q288.2 -289.85 290.1 -293.65 L291.45 -297.65 Q291.95 -290.6 293.4 -279.6 L294.2 -273.6 Q293.65 -272.0 293.55 -270.15 293.3 -264.05 293.95 -257.6 L294.55 -253.35 291.55 -246.0 289.4 -240.85 Q285.65 -239.75 281.75 -238.05 276.95 -236.0 276.95 -235.6 276.85 -234.5 280.7 -232.2 283.6 -230.6 287.1 -229.9 L287.85 -213.65 288.75 -195.2 287.8 -191.25 287.4 -189.6 Q283.15 -185.5 275.35 -173.6 L275.0 -173.1 268.9 -173.45 269.5 -176.25 Q272.95 -177.6 274.05 -178.4 L273.55 -180.15 270.65 -180.8 Q272.2 -187.05 272.45 -189.9 L272.35 -198.5 272.3 -201.75 Q272.2 -211.95 272.5 -217.7 L271.7 -225.2 271.3 -226.9 269.6 -233.9 267.8 -241.5 Q266.7 -246.45 266.7 -248.25 L244.35 -246.95 226.35 -244.85 203.2 -244.7 201.1 -244.7 199.15 -244.85 198.2 -244.95 198.0 -244.95 Q196.5 -245.2 195.6 -245.6 L195.6 -246.25 195.55 -247.0 195.0 -246.35 194.7 -246.0 194.25 -246.25 193.75 -246.45 192.25 -247.1 192.1 -246.65 188.3 -247.15 142.75 -249.4 129.65 -250.5 129.6 -250.1 124.9 -250.15 121.8 -250.15 105.65 -249.6 Q102.75 -249.95 90.85 -249.85 76.7 -249.75 61.95 -249.1 L42.95 -248.5 23.25 -246.5 22.5 -246.45 18.25 -246.05 1.85 -244.6 1.3 -244.55 -0.95 -244.35 -1.15 -244.35 -1.25 -244.5 -1.15 -244.7 Q-0.45 -246.3 -0.45 -249.0 -0.5 -250.5 -1.65 -253.0 L-1.7 -253.1 -1.7 -253.15 -1.7 -253.3 -2.8 -257.0 -3.75 -259.2 Q-4.85 -261.35 -6.15 -262.95 L-5.8 -263.6 Q-7.65 -264.0 -10.2 -265.35 L-11.1 -265.85 -11.3 -266.0 -13.1 -268.55 -13.15 -268.6 -15.45 -270.95 -15.7 -271.95 -15.15 -271.85 -14.8 -274.05 -15.7 -277.05 -15.6 -279.85 Q-14.7 -283.2 -14.95 -286.25 L-15.0 -286.7 Q-15.4 -289.75 -17.2 -291.15 L-16.65 -292.85 -15.75 -292.55 -16.1 -294.75 -15.75 -295.85 -15.5 -296.55 -15.2 -297.4 Q-11.9 -307.55 -10.6 -312.65 L-9.9 -315.5 -9.6 -317.45 -9.8 -317.75 -9.7 -317.8 -9.75 -317.8 -9.35 -318.15 M31.45 -318.4 L38.2 -319.05 38.7 -319.1 52.8 -320.1 55.15 -319.8 57.15 -319.9 62.05 -320.5 90.2 -320.3 86.7 -320.15 81.0 -320.0 69.1 -318.85 70.5 -318.1 70.65 -317.65 Q70.3 -316.55 68.8 -316.4 L67.05 -317.65 65.95 -318.45 Q53.3 -317.0 45.55 -315.05 L39.65 -313.6 32.4 -314.8 Q32.25 -317.1 31.45 -318.4 M108.7 -320.25 L113.05 -320.2 114.8 -320.2 113.0 -319.7 112.35 -319.7 108.75 -320.05 108.7 -320.25 M132.1 -320.25 Q152.1 -320.6 174.1 -321.45 L213.75 -324.15 218.2 -324.2 229.4 -323.4 245.65 -322.8 262.0 -322.6 262.55 -322.6 262.7 -322.8 263.15 -322.8 266.5 -323.25 269.85 -323.2 270.0 -323.05 271.8 -321.65 275.6 -321.45 272.3 -320.9 267.55 -319.95 267.3 -319.9 261.95 -320.15 261.95 -320.6 262.05 -321.1 244.3 -321.65 235.8 -321.9 228.6 -322.15 Q220.6 -322.3 213.7 -322.1 L215.4 -321.35 215.55 -320.9 Q215.0 -319.95 213.1 -319.95 L211.15 -321.15 209.85 -322.05 184.05 -320.35 171.95 -319.2 Q160.8 -319.55 149.7 -319.25 L137.9 -318.75 132.05 -318.9 132.1 -320.25 M203.6 -247.8 L205.85 -247.75 205.7 -247.85 203.6 -247.8 M213.05 -283.75 Q210.75 -282.2 206.75 -281.3 L205.0 -280.95 199.35 -280.0 197.05 -280.25 Q194.75 -280.7 194.4 -281.2 L194.45 -281.2 Q199.9 -283.05 205.75 -283.75 211.25 -284.5 213.05 -283.75 M190.15 -260.45 L190.45 -259.6 Q190.75 -259.25 190.65 -258.85 190.5 -258.15 188.7 -258.15 184.7 -258.15 183.55 -259.3 183.55 -259.8 184.4 -260.65 L185.25 -261.6 Q189.3 -261.3 190.15 -260.45 M196.7 -248.05 L196.45 -248.15 Q194.6 -249.3 193.35 -248.35 L193.05 -248.15 196.7 -248.05 M290.5 -256.3 Q291.7 -257.5 291.75 -257.85 L291.65 -259.65 Q291.4 -260.0 291.45 -260.1 L284.35 -259.65 Q282.55 -258.85 282.4 -256.6 282.3 -255.2 282.5 -254.85 L282.7 -254.4 287.0 -253.7 Q288.9 -254.65 290.5 -256.3 M260.45 -264.6 Q262.45 -263.6 262.75 -263.05 L258.75 -261.6 256.4 -261.85 Q253.95 -262.2 253.4 -262.75 L253.4 -264.6 255.2 -264.75 260.45 -264.6 M279.8 -247.15 Q278.15 -246.65 278.05 -245.05 277.95 -243.55 278.2 -243.6 L278.45 -243.95 278.65 -243.7 280.55 -243.5 Q282.4 -243.55 282.8 -244.15 L284.05 -246.4 283.9 -247.5 279.8 -247.15 M283.4 -267.9 Q281.4 -267.3 279.4 -265.65 277.7 -264.3 277.75 -263.85 277.55 -262.2 278.2 -261.45 278.6 -260.95 279.85 -260.5 281.1 -260.95 282.55 -263.1 L283.95 -265.6 283.4 -267.9 M280.8 -199.8 L281.4 -202.2 281.9 -205.2 Q282.05 -206.9 281.65 -207.45 L280.0 -208.85 Q277.85 -208.0 277.7 -205.05 277.55 -203.95 278.2 -202.3 279.05 -200.3 280.5 -199.15 L280.8 -199.8 M102.0 -297.85 Q99.05 -298.35 98.45 -299.0 103.2 -303.05 107.45 -302.95 L115.55 -301.0 Q113.95 -299.75 111.6 -298.65 108.85 -297.4 107.05 -297.4 L102.0 -297.85 M129.45 -306.85 L130.25 -307.6 131.7 -308.7 131.65 -307.35 129.45 -306.85 M69.0 -277.7 L68.7 -277.15 66.85 -277.6 Q65.6 -278.0 65.25 -278.55 65.7 -279.45 68.1 -279.45 L69.0 -277.7 M34.6 -276.55 L34.05 -275.25 Q33.6 -274.6 32.6 -274.1 L29.7 -276.65 29.0 -277.4 Q29.0 -279.3 29.65 -279.85 L31.3 -280.6 Q33.05 -278.85 34.6 -276.55 M20.65 -254.55 L22.05 -254.45 Q22.6 -253.85 22.4 -252.95 22.15 -252.15 21.7 -252.1 L24.2 -252.1 24.2 -252.05 23.8 -251.8 Q23.4 -251.45 22.55 -251.4 21.05 -251.3 21.15 -251.65 L20.85 -251.95 Q20.7 -252.1 20.7 -253.2 L20.65 -254.55 M150.05 -282.0 L147.55 -281.55 143.0 -281.15 142.75 -282.8 Q142.45 -284.4 142.45 -285.75 L145.0 -285.6 Q147.2 -285.1 150.05 -283.75 L150.05 -282.0 M284.85 -194.05 Q284.95 -195.65 284.6 -196.35 L283.05 -197.75 Q280.75 -196.6 279.15 -194.45 277.65 -192.4 277.55 -190.6 277.2 -189.25 277.45 -188.1 277.8 -185.95 280.4 -185.95 282.15 -186.05 283.65 -189.55 284.7 -192.2 284.85 -194.05 M-5.45 -268.25 L-5.1 -268.15 -5.05 -268.2 -5.45 -268.25" fill="#aab56a" fill-rule="evenodd" stroke="none"/>
    <path d="M25.0 -316.05 L26.9 -315.75 31.85 -314.95 32.3 -314.8 32.35 -314.8 32.4 -314.8 39.65 -313.6 45.55 -315.05 Q53.3 -317.0 65.95 -318.45 L67.05 -317.65 68.8 -316.4 Q70.3 -316.55 70.65 -317.65 L70.5 -318.1 69.1 -318.85 81.0 -320.0 86.7 -320.15 90.2 -320.3 91.15 -320.3 92.25 -320.3 108.7 -320.25 108.75 -320.05 112.35 -319.7 113.0 -319.7 114.8 -320.2 132.1 -320.25 132.05 -318.9 137.9 -318.75 149.7 -319.25 Q160.8 -319.55 171.95 -319.2 L184.05 -320.35 209.85 -322.05 211.15 -321.15 213.1 -319.95 Q215.0 -319.95 215.55 -320.9 L215.4 -321.35 213.7 -322.1 Q220.6 -322.3 228.6 -322.15 L235.8 -321.9 244.3 -321.65 262.05 -321.1 261.95 -320.6 261.95 -320.15 267.3 -319.9 267.55 -319.95 272.3 -320.9 275.6 -321.45 289.2 -319.55 292.55 -318.95 291.95 -316.8 Q291.5 -314.7 291.05 -308.1 290.85 -304.9 291.45 -297.65 L290.1 -293.65 Q288.2 -289.85 286.9 -286.0 L278.25 -286.35 Q275.0 -286.3 274.2 -285.15 274.45 -283.9 278.6 -282.45 L285.25 -282.45 Q277.7 -267.85 274.2 -259.55 L253.75 -259.65 250.4 -259.7 246.2 -257.4 Q234.25 -251.25 223.5 -251.15 206.05 -251.0 178.5 -255.6 173.3 -254.15 160.55 -254.0 L139.65 -253.6 Q126.25 -253.45 117.45 -253.8 L109.4 -254.4 98.45 -254.55 Q76.55 -255.45 63.15 -254.0 L57.95 -253.35 57.9 -254.8 44.45 -253.7 Q43.25 -252.95 40.6 -252.45 L20.3 -250.15 18.5 -249.95 15.65 -250.85 Q5.4 -253.85 1.4 -258.35 4.15 -258.5 5.35 -260.85 6.05 -262.25 6.05 -263.9 6.05 -266.3 -0.25 -268.45 L-0.95 -270.85 -3.55 -272.9 Q-6.3 -275.3 -7.7 -276.9 -9.15 -278.6 -9.1 -279.5 -9.15 -286.85 -5.75 -287.5 L-5.9 -288.55 -6.1 -292.8 -6.15 -293.25 -6.25 -293.15 -8.25 -291.5 -8.3 -295.7 Q-8.15 -301.75 -6.6 -305.8 -5.45 -309.1 -3.35 -312.05 L7.45 -311.15 19.1 -311.55 15.85 -309.5 24.4 -310.7 24.9 -310.75 25.95 -311.5 18.75 -313.2 18.4 -312.7 Q17.9 -312.7 18.0 -314.65 17.95 -316.65 18.25 -316.9 L18.5 -316.75 25.0 -316.05 M289.4 -240.85 L289.25 -240.55 287.0 -234.1 287.0 -234.05 287.1 -229.9 Q283.6 -230.6 280.7 -232.2 276.85 -234.5 276.95 -235.6 276.95 -236.0 281.75 -238.05 285.65 -239.75 289.4 -240.85 M-15.7 -271.95 L-15.9 -272.75 -15.7 -277.05 -14.8 -274.05 -15.15 -271.85 -15.7 -271.95 M-16.65 -292.85 L-16.1 -294.75 -15.75 -292.55 -16.65 -292.85 M295.3 -317.95 L295.35 -318.45 295.45 -318.45 295.3 -317.95 M250.6 -298.15 L255.65 -297.95 Q250.35 -300.35 249.8 -302.95 L242.2 -303.05 237.1 -302.15 Q231.4 -301.75 211.9 -301.75 L208.75 -301.75 210.6 -301.3 208.85 -301.15 250.6 -298.15 M233.05 -314.55 Q233.75 -314.6 236.15 -316.7 235.55 -317.55 234.35 -317.95 L232.5 -317.25 Q231.35 -316.75 231.3 -316.05 L231.4 -315.05 231.75 -314.9 231.75 -314.7 233.05 -314.55 M212.6 -304.4 L212.6 -303.3 213.05 -303.0 Q212.9 -302.7 214.7 -302.65 L216.35 -302.9 216.85 -303.15 Q217.05 -304.05 217.4 -304.5 L217.15 -305.7 214.75 -305.8 212.8 -305.75 Q212.65 -306.0 212.6 -304.4 M190.15 -260.45 Q189.3 -261.3 185.25 -261.6 L184.4 -260.65 Q183.55 -259.8 183.55 -259.3 184.7 -258.15 188.7 -258.15 190.5 -258.15 190.65 -258.85 190.75 -259.25 190.45 -259.6 L190.15 -260.45 M213.05 -283.75 Q211.25 -284.5 205.75 -283.75 199.9 -283.05 194.45 -281.2 L194.4 -281.2 Q194.75 -280.7 197.05 -280.25 L199.35 -280.0 205.0 -280.95 206.75 -281.3 Q210.75 -282.2 213.05 -283.75 M290.5 -256.3 Q288.9 -254.65 287.0 -253.7 L282.7 -254.4 282.5 -254.85 Q282.3 -255.2 282.4 -256.6 282.55 -258.85 284.35 -259.65 L291.45 -260.1 Q291.4 -260.0 291.65 -259.65 L291.75 -257.85 Q291.7 -257.5 290.5 -256.3 M260.45 -264.6 L255.2 -264.75 253.4 -264.6 253.4 -262.75 Q253.95 -262.2 256.4 -261.85 L258.75 -261.6 262.75 -263.05 Q262.45 -263.6 260.45 -264.6 M283.4 -267.9 L283.95 -265.6 282.55 -263.1 Q281.1 -260.95 279.85 -260.5 278.6 -260.95 278.2 -261.45 277.55 -262.2 277.75 -263.85 277.7 -264.3 279.4 -265.65 281.4 -267.3 283.4 -267.9 M279.8 -247.15 L283.9 -247.5 284.05 -246.4 282.8 -244.15 Q282.4 -243.55 280.55 -243.5 L278.65 -243.7 278.45 -243.95 278.2 -243.6 Q277.95 -243.55 278.05 -245.05 278.15 -246.65 279.8 -247.15 M280.8 -199.8 L280.5 -199.15 Q279.05 -200.3 278.2 -202.3 277.55 -203.95 277.7 -205.05 277.85 -208.0 280.0 -208.85 L281.65 -207.45 Q282.05 -206.9 281.9 -205.2 L281.4 -202.2 280.8 -199.8 M84.05 -311.95 L85.1 -311.8 Q85.65 -311.9 87.35 -314.35 86.85 -315.25 85.85 -315.65 L84.45 -314.8 Q83.55 -314.1 83.6 -313.35 83.6 -312.35 83.75 -312.25 L84.05 -312.15 84.05 -311.95 M92.35 -299.15 L90.8 -298.65 92.7 -298.6 92.35 -299.15 M129.45 -306.85 L131.65 -307.35 131.7 -308.7 130.25 -307.6 129.45 -306.85 M102.0 -297.85 L107.05 -297.4 Q108.85 -297.4 111.6 -298.65 113.95 -299.75 115.55 -301.0 L107.45 -302.95 Q103.2 -303.05 98.45 -299.0 99.05 -298.35 102.0 -297.85 M69.65 -300.7 Q69.5 -300.9 69.65 -299.5 L73.1 -298.05 73.4 -299.65 73.15 -300.95 71.25 -300.9 69.65 -300.7 M34.6 -276.55 Q33.05 -278.85 31.3 -280.6 L29.65 -279.85 Q29.0 -279.3 29.0 -277.4 L29.7 -276.65 32.6 -274.1 Q33.6 -274.6 34.05 -275.25 L34.6 -276.55 M69.0 -277.7 L68.1 -279.45 Q65.7 -279.45 65.25 -278.55 65.6 -278.0 66.85 -277.6 L68.7 -277.15 69.0 -277.7 M23.2 -279.3 L19.05 -279.6 18.65 -278.9 18.1 -278.0 23.25 -278.65 Q23.15 -279.0 23.2 -279.3 M35.4 -268.6 Q34.45 -267.9 34.55 -267.2 L34.75 -266.15 35.05 -266.0 Q34.9 -265.9 35.05 -265.8 L36.15 -265.7 Q36.7 -265.75 38.35 -268.2 37.85 -269.15 36.8 -269.5 L35.4 -268.6 M19.35 -270.25 L19.6 -270.1 20.9 -270.45 19.35 -270.25 M20.65 -254.55 L20.7 -253.2 Q20.7 -252.1 20.85 -251.95 L21.15 -251.65 Q21.05 -251.3 22.55 -251.4 23.4 -251.45 23.8 -251.8 L24.2 -252.05 24.2 -252.1 Q24.2 -253.0 24.5 -253.6 L24.2 -254.85 22.3 -254.85 20.7 -254.65 20.65 -254.55 M-1.7 -253.15 L-1.75 -253.2 -1.7 -253.3 -1.7 -253.15 M-3.75 -259.2 Q-5.25 -261.05 -7.7 -262.45 L-8.3 -262.75 -8.95 -263.5 -10.85 -265.35 -11.1 -265.75 -11.3 -266.0 -11.1 -265.85 -10.2 -265.35 Q-7.65 -264.0 -5.8 -263.6 L-6.15 -262.95 Q-4.85 -261.35 -3.75 -259.2 M150.05 -282.0 L150.05 -283.75 Q147.2 -285.1 145.0 -285.6 L142.45 -285.75 Q142.45 -284.4 142.75 -282.8 L143.0 -281.15 147.55 -281.55 150.05 -282.0 M284.85 -194.05 Q284.7 -192.2 283.65 -189.55 282.15 -186.05 280.4 -185.95 277.8 -185.95 277.45 -188.1 277.2 -189.25 277.55 -190.6 277.65 -192.4 279.15 -194.45 280.75 -196.6 283.05 -197.75 L284.6 -196.35 Q284.95 -195.65 284.85 -194.05" fill="#96a463" fill-rule="evenodd" stroke="none"/>
    <path d="M203.6 -247.8 L205.7 -247.85 205.85 -247.75 203.6 -247.8 M196.7 -248.05 L193.05 -248.15 193.35 -248.35 Q194.6 -249.3 196.45 -248.15 L196.7 -248.05 M19.8 -216.45 L21.1 -216.65 Q21.05 -215.3 20.35 -214.35 L19.75 -214.4 Q19.15 -214.65 18.8 -215.1 19.25 -216.15 19.8 -216.45" fill="#6b7c61" fill-rule="evenodd" stroke="none"/>
    <path d="M118.3 -172.6 Q101.7 -172.85 96.75 -172.25 L91.9 -173.35 89.85 -174.0 88.85 -174.4 Q87.7 -174.85 87.0 -175.35 L87.65 -175.3 111.7 -173.2 118.3 -172.6 M194.7 -246.0 L194.45 -245.6 194.45 -245.85 Q192.85 -246.5 191.95 -246.2 L192.1 -246.65 192.25 -247.1 193.75 -246.45 194.25 -246.25 194.7 -246.0 M162.3 -242.45 L188.95 -241.65 192.3 -241.65 Q193.7 -242.35 195.25 -242.4 197.1 -242.6 198.7 -241.7 L199.7 -241.7 Q209.75 -241.9 216.95 -241.5 227.65 -240.95 234.4 -239.15 L255.05 -240.65 Q261.35 -233.45 263.8 -233.45 L263.85 -233.45 Q266.55 -228.1 266.95 -224.55 L267.1 -223.6 Q267.65 -219.15 269.65 -211.45 L269.65 -211.25 Q267.95 -212.5 264.8 -210.65 262.2 -209.2 260.85 -207.4 L261.65 -206.55 262.0 -206.2 266.3 -207.8 Q269.45 -209.0 270.05 -209.65 271.5 -203.85 271.45 -202.85 L271.1 -199.4 270.45 -198.95 Q268.95 -197.95 267.85 -196.95 L269.15 -193.9 Q270.15 -191.05 270.0 -189.25 269.65 -183.8 267.65 -180.95 L265.25 -180.9 259.65 -180.5 252.05 -179.4 Q239.45 -177.15 235.7 -173.85 L225.1 -175.7 189.0 -172.95 183.8 -174.1 177.15 -173.8 158.75 -174.45 Q148.2 -175.5 140.05 -178.1 L137.05 -179.15 136.8 -178.95 Q134.35 -177.1 131.95 -175.85 L128.75 -176.85 Q119.4 -179.45 110.0 -178.1 L85.3 -178.85 83.95 -178.85 83.9 -179.15 83.65 -178.85 Q78.9 -178.9 76.95 -177.3 71.5 -177.6 66.5 -179.5 63.8 -178.65 60.45 -177.15 L56.8 -179.65 Q56.15 -180.2 56.2 -180.5 56.2 -182.65 58.4 -183.8 L57.45 -184.65 54.4 -184.7 Q52.85 -184.65 48.7 -183.25 44.65 -181.9 43.1 -181.8 L43.0 -181.8 41.25 -181.8 40.05 -181.05 Q38.15 -180.25 34.7 -180.1 30.05 -180.05 28.5 -182.45 L28.4 -182.6 Q30.55 -183.6 35.25 -186.35 42.2 -190.4 43.25 -191.45 41.75 -191.45 34.2 -189.1 30.45 -187.95 27.9 -186.8 28.1 -188.85 28.85 -190.05 L28.7 -190.4 Q28.3 -191.35 28.2 -192.25 27.85 -193.65 27.9 -194.5 28.0 -202.9 35.75 -203.15 L43.65 -202.5 52.7 -201.9 78.05 -200.0 107.2 -199.0 137.4 -199.2 137.4 -197.2 138.5 -196.15 141.0 -195.75 Q142.85 -195.75 143.7 -196.6 144.05 -196.95 144.45 -198.05 L144.3 -198.4 159.35 -196.4 162.8 -196.05 174.8 -194.8 183.9 -193.95 183.7 -194.85 Q182.7 -199.4 182.6 -204.85 L182.6 -205.95 182.7 -208.7 182.75 -209.3 Q182.8 -210.85 184.25 -219.0 L184.3 -219.3 184.95 -222.95 185.2 -224.85 181.35 -224.75 180.8 -226.4 Q178.45 -227.3 175.95 -227.3 172.5 -227.3 172.5 -224.95 L172.5 -224.65 154.7 -224.7 136.65 -225.05 Q131.5 -225.0 129.85 -226.9 128.9 -227.9 129.05 -229.6 129.05 -231.25 131.65 -233.5 134.9 -236.5 140.85 -238.55 149.55 -241.75 162.3 -242.45 M227.2 -199.15 L228.5 -199.95 229.4 -201.25 228.9 -202.6 227.3 -202.4 Q226.35 -201.95 226.2 -200.55 226.0 -199.3 226.2 -199.3 L226.45 -199.55 227.2 -199.15 M210.95 -210.6 L210.5 -212.05 208.5 -212.05 208.4 -212.25 Q208.2 -212.2 208.0 -210.8 L207.95 -209.35 Q208.25 -209.45 208.35 -209.2 209.95 -209.55 210.95 -210.6 M237.25 -223.45 Q237.35 -224.15 236.75 -224.75 L235.3 -225.1 Q234.6 -225.05 234.4 -223.65 234.15 -222.3 234.6 -222.3 L236.0 -222.45 236.95 -223.1 237.25 -223.45 M85.15 -182.95 Q85.1 -182.85 85.2 -182.75 L85.35 -182.9 85.15 -182.95 M212.0 -194.6 L211.15 -196.35 209.45 -195.8 Q208.45 -195.25 207.4 -193.75 208.25 -192.9 209.7 -192.3 211.45 -193.0 212.0 -194.6" fill="url(#gradient2)" fill-rule="evenodd" stroke="none"/>
    <path d="M155.25 -172.1 L154.85 -172.15 155.25 -172.2 155.25 -172.1 M1.3 -244.55 Q0.8 -243.25 0.8 -241.5 0.75 -240.45 1.25 -238.85 L1.15 -238.95 Q0.65 -241.15 -1.15 -244.35 L-0.95 -244.35 1.3 -244.55 M11.9 -220.15 Q15.65 -214.2 15.65 -213.1 L15.55 -212.0 15.35 -212.35 Q13.75 -214.9 13.0 -216.65 L12.7 -217.15 Q12.1 -218.4 12.1 -219.2 L11.9 -220.15 M28.7 -190.4 L27.3 -190.25 Q24.65 -196.25 25.85 -207.0 26.2 -211.45 19.7 -224.05 13.05 -236.95 13.05 -237.3 13.0 -239.25 13.9 -239.15 L14.65 -238.7 Q28.5 -240.6 35.6 -242.05 L43.25 -243.85 86.3 -247.1 85.9 -246.15 89.35 -245.75 91.25 -244.95 116.1 -244.0 132.85 -244.8 162.05 -242.45 162.3 -242.45 Q149.55 -241.75 140.85 -238.55 134.9 -236.5 131.65 -233.5 129.05 -231.25 129.05 -229.6 128.9 -227.9 129.85 -226.9 131.5 -225.0 136.65 -225.05 L154.7 -224.7 172.5 -224.65 Q172.55 -223.2 172.95 -222.9 L173.35 -222.5 173.85 -222.35 176.5 -222.2 Q180.15 -222.2 181.4 -224.65 L181.35 -224.75 185.2 -224.85 184.95 -222.95 Q183.8 -222.35 183.7 -221.4 183.5 -220.2 183.7 -219.95 L184.2 -219.55 184.25 -219.35 184.3 -219.3 184.25 -219.0 Q182.8 -210.85 182.75 -209.3 L182.7 -208.7 181.05 -208.6 180.6 -206.9 Q181.05 -206.1 182.6 -205.95 L182.6 -204.85 Q182.7 -199.4 183.7 -194.85 L183.9 -193.95 174.8 -194.8 162.8 -196.05 163.25 -196.15 165.35 -197.3 165.2 -197.8 Q161.5 -199.3 160.5 -198.6 L159.35 -196.4 144.3 -198.4 143.6 -199.8 139.45 -200.0 137.4 -199.8 137.4 -199.2 107.2 -199.0 78.05 -200.0 52.7 -201.9 43.65 -202.5 35.75 -203.15 Q28.0 -202.9 27.9 -194.5 27.85 -193.65 28.2 -192.25 28.3 -191.35 28.7 -190.4 M35.05 -227.3 L34.95 -227.35 Q34.75 -227.2 34.95 -225.9 34.95 -225.6 35.6 -224.95 L37.0 -223.35 37.9 -224.1 37.9 -225.6 37.65 -227.2 35.85 -227.4 35.05 -227.3 M80.35 -237.45 Q79.55 -237.25 78.9 -236.35 78.3 -235.55 78.3 -234.85 78.7 -234.3 79.55 -233.85 L80.35 -233.45 Q83.8 -233.85 84.35 -235.15 L84.05 -236.0 Q83.2 -236.9 80.35 -237.45 M58.65 -213.95 Q57.75 -213.55 57.95 -211.95 58.0 -210.7 58.45 -210.35 L59.35 -210.1 Q60.05 -210.35 61.85 -212.75 L61.4 -213.55 Q60.9 -214.1 60.95 -214.3 L58.65 -213.95 M65.65 -233.1 Q65.35 -234.35 65.6 -232.15 65.75 -230.8 66.1 -230.55 L67.2 -230.1 68.2 -231.15 68.8 -232.35 68.2 -233.55 Q66.45 -234.0 65.65 -233.1 M75.45 -209.4 L78.35 -207.45 Q79.75 -206.55 81.5 -206.55 83.2 -206.55 84.05 -207.25 L85.65 -208.55 Q81.65 -212.55 78.45 -211.65 77.2 -211.25 75.45 -209.4 M49.15 -204.95 Q49.15 -203.15 49.45 -203.25 L49.6 -203.4 49.65 -203.35 51.75 -203.1 Q52.95 -203.1 54.35 -204.5 55.95 -206.05 56.45 -208.25 53.3 -208.95 51.1 -207.65 49.15 -206.5 49.15 -204.95 M108.85 -201.4 L107.55 -201.35 Q106.75 -201.2 106.5 -200.85 106.7 -200.4 107.75 -200.4 108.8 -200.45 109.0 -200.8 L108.85 -201.4 M94.5 -204.15 L95.9 -204.9 95.35 -205.45 94.8 -205.9 Q91.15 -206.6 91.05 -205.5 92.45 -204.4 94.5 -204.15 M90.05 -235.4 L89.35 -235.35 Q89.05 -236.1 89.3 -234.0 89.35 -232.65 89.55 -232.6 L89.7 -232.55 91.65 -232.3 Q92.2 -232.7 92.3 -233.35 L91.55 -235.25 90.05 -235.4 M127.1 -219.95 Q127.25 -219.2 128.5 -217.8 L128.55 -219.95 127.1 -219.95 M155.05 -155.15 L142.45 -154.95 141.55 -155.3 155.05 -155.15" fill="#898e64" fill-rule="evenodd" stroke="none"/>
    <path d="M269.65 -211.25 L269.95 -211.05 270.1 -209.7 270.05 -209.65 Q269.45 -209.0 266.3 -207.8 L262.0 -206.2 261.65 -206.55 260.85 -207.4 Q262.2 -209.2 264.8 -210.65 267.95 -212.5 269.65 -211.25 M184.95 -222.95 L184.3 -219.3 184.25 -219.35 184.2 -219.55 183.7 -219.95 Q183.5 -220.2 183.7 -221.4 183.8 -222.35 184.95 -222.95 M182.7 -208.7 L182.6 -205.95 Q181.05 -206.1 180.6 -206.9 L181.05 -208.6 182.7 -208.7 M162.8 -196.05 L159.35 -196.4 160.5 -198.6 Q161.5 -199.3 165.2 -197.8 L165.35 -197.3 163.25 -196.15 162.8 -196.05 M35.05 -227.3 L35.85 -227.4 37.65 -227.2 37.9 -225.6 37.9 -224.1 37.0 -223.35 35.6 -224.95 Q34.95 -225.6 34.95 -225.9 34.75 -227.2 34.95 -227.35 L35.05 -227.3 M65.65 -233.1 Q66.45 -234.0 68.2 -233.55 L68.8 -232.35 68.2 -231.15 67.2 -230.1 66.1 -230.55 Q65.75 -230.8 65.6 -232.15 65.35 -234.35 65.65 -233.1 M58.65 -213.95 L60.95 -214.3 Q60.9 -214.1 61.4 -213.55 L61.85 -212.75 Q60.05 -210.35 59.35 -210.1 L58.45 -210.35 Q58.0 -210.7 57.95 -211.95 57.75 -213.55 58.65 -213.95 M90.05 -235.4 L91.55 -235.25 92.3 -233.35 Q92.2 -232.7 91.65 -232.3 L89.7 -232.55 89.55 -232.6 Q89.35 -232.65 89.3 -234.0 89.05 -236.1 89.35 -235.35 L90.05 -235.4 M94.5 -204.15 Q92.45 -204.4 91.05 -205.5 91.15 -206.6 94.8 -205.9 L95.35 -205.45 95.9 -204.9 94.5 -204.15 M108.85 -201.4 L109.0 -200.8 Q108.8 -200.45 107.75 -200.4 106.7 -200.4 106.5 -200.85 106.75 -201.2 107.55 -201.35 L108.85 -201.4 M127.1 -219.95 L128.55 -219.95 128.5 -217.8 Q127.25 -219.2 127.1 -219.95 M-18.95 -308.5 L-19.65 -307.1 -19.85 -308.05 Q-19.4 -308.2 -18.95 -308.5" fill="#788d65" fill-rule="evenodd" stroke="none"/>
    <path d="M26.9 -315.75 L31.0 -318.35 31.45 -318.4 Q32.25 -317.1 32.4 -314.8 L32.35 -314.8 32.3 -314.8 31.85 -314.95 26.9 -315.75 M6.8 -173.2 L4.1 -172.95 4.6 -174.0 4.15 -175.4 Q2.95 -176.05 0.75 -177.9 -1.8 -179.9 -1.75 -180.5 -1.9 -181.75 -2.6 -181.85 L-2.8 -181.95 -3.15 -182.25 -2.65 -182.7 -2.65 -182.8 0.55 -183.1 4.5 -183.95 Q4.85 -184.8 5.65 -185.65 L6.35 -186.4 9.9 -189.85 Q15.25 -195.65 15.2 -202.8 7.8 -199.85 3.6 -199.55 2.85 -199.6 0.65 -198.2 -1.3 -197.15 -2.25 -197.5 L2.75 -203.85 6.4 -208.7 6.15 -208.45 7.45 -215.3 8.2 -219.3 Q7.55 -218.95 6.65 -218.95 L5.1 -219.0 4.85 -219.3 4.15 -220.95 Q4.65 -224.2 6.05 -224.4 7.2 -224.65 8.7 -222.4 L8.8 -222.9 8.05 -224.05 Q4.6 -229.5 0.05 -232.9 L-0.3 -232.65 0.5 -234.0 Q1.25 -235.8 1.25 -237.6 L1.15 -238.95 1.25 -238.85 4.85 -235.5 5.9 -234.15 Q10.8 -228.15 11.9 -220.15 L12.1 -219.2 Q12.1 -218.4 12.7 -217.15 L13.0 -216.65 Q13.75 -214.9 15.35 -212.35 L15.55 -212.0 15.7 -211.75 15.8 -211.6 16.05 -211.2 16.2 -211.05 16.35 -210.75 17.0 -209.7 19.4 -205.9 20.6 -203.3 Q20.7 -201.8 18.95 -197.45 17.3 -193.5 17.55 -189.65 L17.95 -189.65 17.85 -187.0 16.05 -184.55 Q13.55 -181.7 10.6 -180.45 L7.95 -175.4 6.8 -173.2 M-11.3 -207.8 L-13.15 -212.9 Q-11.9 -212.7 -10.2 -211.35 L-9.75 -210.4 -10.6 -208.6 -11.3 -207.8 M2.45 -188.95 L2.35 -188.45 2.15 -187.7 Q1.7 -186.95 0.6 -186.85 L-0.55 -186.9 -1.25 -187.3 -1.8 -188.1 -1.95 -190.35 -0.55 -190.55 -0.15 -190.6 1.8 -190.4 2.45 -189.0 2.45 -188.95 M8.85 -182.85 L9.15 -181.75 Q9.65 -181.9 10.15 -182.55 L10.75 -183.75 Q9.85 -184.4 9.6 -184.35 9.2 -184.3 8.85 -182.85 M-3.0 -220.4 L-4.7 -218.15 -5.9 -216.85 -6.75 -216.35 -7.35 -216.65 -8.45 -217.55 Q-7.75 -219.3 -6.45 -220.35 L-6.4 -220.35 Q-4.9 -221.65 -3.4 -221.2 L-3.0 -220.4" fill="#959f75" fill-rule="evenodd" stroke="none"/>
    <path d="M10.3 -173.5 L10.25 -173.5 6.8 -173.2 7.95 -175.4 10.6 -180.45 Q13.55 -181.7 16.05 -184.55 L17.85 -187.0 17.45 -184.45 16.9 -182.1 16.4 -181.0 Q12.5 -178.35 11.4 -176.45 L11.9 -175.5 Q12.0 -175.3 12.75 -175.2 11.6 -174.3 10.3 -173.5 M-2.65 -182.8 L-2.15 -184.25 Q-6.5 -194.7 -11.3 -207.8 L-10.6 -208.6 -9.75 -210.4 -10.2 -211.35 Q-11.9 -212.7 -13.15 -212.9 L-14.85 -217.6 Q-21.1 -234.9 -21.0 -236.0 -21.05 -236.7 -18.85 -243.3 -16.7 -250.0 -16.65 -254.7 L-16.65 -255.1 -20.05 -260.25 Q-23.3 -264.65 -24.2 -267.25 L-25.0 -267.3 Q-25.6 -267.4 -25.5 -269.25 -25.5 -271.95 -23.75 -277.15 L-23.0 -279.4 Q-23.55 -281.5 -23.55 -282.65 -23.55 -283.65 -22.3 -286.55 -20.85 -290.05 -19.2 -291.45 -17.4 -290.2 -16.8 -289.35 -16.2 -288.3 -16.2 -286.05 -16.25 -284.65 -17.05 -281.7 L-16.75 -280.8 Q-16.25 -278.95 -16.25 -276.15 -16.25 -273.95 -16.75 -271.9 L-15.45 -270.95 -13.15 -268.6 -13.1 -268.55 -11.3 -266.0 -11.1 -265.75 -10.85 -265.35 -8.95 -263.5 -8.3 -262.75 -7.7 -262.45 Q-5.25 -261.05 -3.75 -259.2 L-2.8 -257.0 -1.7 -253.3 -1.75 -253.2 -1.7 -253.15 -1.7 -253.1 -1.65 -253.0 Q-0.5 -250.5 -0.45 -249.0 -0.45 -246.3 -1.15 -244.7 L-1.25 -244.5 -1.15 -244.35 Q0.65 -241.15 1.15 -238.95 L1.25 -237.6 Q1.25 -235.8 0.5 -234.0 L-0.3 -232.65 0.05 -232.9 Q4.6 -229.5 8.05 -224.05 L8.8 -222.9 8.7 -222.4 Q7.2 -224.65 6.05 -224.4 4.65 -224.2 4.15 -220.95 L4.85 -219.3 5.1 -219.0 6.65 -218.95 Q7.55 -218.95 8.2 -219.3 L7.45 -215.3 6.15 -208.45 6.4 -208.7 2.75 -203.85 -2.25 -197.5 Q-1.3 -197.15 0.65 -198.2 2.85 -199.6 3.6 -199.55 7.8 -199.85 15.2 -202.8 15.25 -195.65 9.9 -189.85 L6.35 -186.4 5.65 -185.65 Q4.85 -184.8 4.5 -183.95 L0.55 -183.1 -2.65 -182.8 M-12.0 -198.7 L-9.45 -192.15 Q-11.05 -194.45 -11.6 -197.1 L-11.85 -197.8 -12.0 -198.7 M23.2 -279.3 Q23.15 -279.0 23.25 -278.65 L18.1 -278.0 18.65 -278.9 19.05 -279.6 23.2 -279.3 M2.45 -188.95 L4.2 -189.05 4.2 -189.75 3.45 -189.7 2.45 -189.0 1.8 -190.4 -0.15 -190.6 -0.55 -190.55 -1.95 -190.35 -1.8 -188.1 -1.25 -187.3 -0.55 -186.9 0.6 -186.85 Q1.7 -186.95 2.15 -187.7 L2.35 -188.45 2.45 -188.95 M-3.0 -220.4 L-3.4 -221.2 Q-4.9 -221.65 -6.4 -220.35 L-6.45 -220.35 Q-7.75 -219.3 -8.45 -217.55 L-7.35 -216.65 -6.75 -216.35 -5.9 -216.85 -4.7 -218.15 -3.0 -220.4" fill="#8b9768" fill-rule="evenodd" stroke="none"/>
    <path d="M2.45 -189.0 L3.45 -189.7 4.2 -189.75 4.2 -189.05 2.45 -188.95 2.45 -189.0 M8.85 -182.85 Q9.2 -184.3 9.6 -184.35 9.85 -184.4 10.75 -183.75 L10.15 -182.55 Q9.65 -181.9 9.15 -181.75 L8.85 -182.85" fill="url(#gradient3)" fill-rule="evenodd" stroke="none"/>
    <path d="M186.65 -172.85 L186.55 -172.85 186.7 -173.35 186.65 -172.85" fill="url(#gradient4)" fill-rule="evenodd" stroke="none"/>
    <path d="M-16.85 -311.45 L-17.55 -310.15 -16.9 -311.45 -16.85 -311.45" fill="url(#gradient5)" fill-rule="evenodd" stroke="none"/>
    <path d="M295.45 -318.45 L296.45 -318.3 296.35 -319.65 Q284.7 -321.75 279.85 -323.8 L275.2 -325.4 Q271.35 -325.55 269.3 -324.6 L265.3 -324.6 Q264.8 -324.85 264.3 -324.6 L262.3 -324.6 261.4 -324.45 243.75 -324.8 230.95 -325.35 226.45 -324.9 206.4 -326.2 Q191.15 -322.2 138.25 -322.35 115.0 -322.45 96.35 -323.45 L89.2 -323.15 Q70.2 -323.25 53.25 -324.2 43.8 -323.45 37.25 -322.0 L37.2 -322.0 38.35 -323.0 -7.2 -321.15 -9.35 -318.15 -9.75 -317.8 -9.7 -317.8 -9.8 -317.75 -12.05 -314.95 -12.5 -314.35 -14.2 -312.45 -13.95 -308.25 Q-13.95 -303.55 -15.2 -299.9 L-16.4 -297.35 -16.85 -296.55 -17.1 -296.25 -21.2 -293.6 -21.5 -293.55 Q-21.25 -300.35 -19.95 -305.55 L-19.95 -305.65 -19.85 -313.65 Q-19.2 -318.5 -16.1 -321.6 -7.6 -330.1 22.8 -329.15 L290.7 -329.15 Q301.45 -324.4 304.05 -316.85 305.0 -314.1 305.05 -310.5 L304.95 -304.7 Q305.35 -273.3 301.2 -245.6 300.0 -237.85 298.55 -231.2 301.45 -226.25 301.8 -217.15 302.0 -211.95 301.35 -206.05 L300.65 -201.15 300.7 -193.85 Q300.45 -189.95 298.8 -187.7 295.5 -183.1 283.9 -182.15 L283.85 -182.15 284.5 -182.9 286.65 -185.45 286.8 -185.65 Q289.2 -188.5 289.7 -189.75 L290.5 -190.8 289.4 -197.5 Q289.75 -202.65 290.95 -207.75 L290.7 -208.45 Q288.65 -214.95 288.65 -220.2 L288.7 -222.0 Q289.0 -226.1 290.1 -230.75 L290.45 -233.15 Q291.15 -243.65 295.15 -254.05 L296.05 -256.2 Q295.7 -261.15 296.0 -266.15 L296.6 -271.55 296.6 -272.15 296.55 -274.0 297.0 -276.5 297.0 -278.15 Q296.3 -281.8 296.1 -283.8 L294.25 -297.6 Q293.95 -299.35 294.05 -302.3 L294.35 -307.9 294.85 -314.1 295.3 -317.85 295.3 -317.95 295.45 -318.45 M-23.75 -263.15 Q-20.1 -254.9 -20.05 -246.9 L-20.8 -246.5 Q-23.4 -245.1 -25.65 -245.1 L-25.75 -245.1 -25.85 -248.65 Q-25.85 -252.15 -23.8 -263.2 L-23.75 -263.15 M-18.3 -220.45 L-18.05 -219.85 Q-13.65 -210.0 -12.2 -200.25 L-12.15 -199.75 -12.05 -199.3 -12.0 -198.7 -11.85 -197.8 -11.85 -197.55 Q-10.65 -192.95 -10.1 -189.45 -12.65 -191.05 -14.35 -193.65 -17.85 -198.95 -18.4 -209.45 -18.6 -213.1 -18.3 -220.45 M-16.85 -311.45 L-16.9 -311.45 -17.55 -310.15 -16.85 -311.45 M-18.95 -308.5 Q-19.4 -308.2 -19.85 -308.05 L-19.65 -307.1 -18.95 -308.5" fill="#67865c" fill-rule="evenodd" stroke="none"/>
  </g>
  <defs>
    <linearGradient gradientTransform="matrix(-0.002, 0.3665, -1.0, -0.0053, 218.85, -397.1)" gradientUnits="userSpaceOnUse" id="gradient0" spreadMethod="pad" x1="-819.2" x2="819.2">
      <stop offset="0.0" stop-color="#003333"/>
      <stop offset="1.0" stop-color="#003333" stop-opacity="0.0"/>
    </linearGradient>
    <linearGradient gradientTransform="matrix(-0.0199, 0.25, -0.9966, -0.0793, -178.25, -312.95)" gradientUnits="userSpaceOnUse" id="gradient1" spreadMethod="pad" x1="-819.2" x2="819.2">
      <stop offset="0.0" stop-color="#003333"/>
      <stop offset="1.0" stop-color="#003333" stop-opacity="0.0"/>
    </linearGradient>
    <linearGradient gradientTransform="matrix(-0.1455, 0.0029, 0.0784, -1.0654, 442.15, -553.55)" gradientUnits="userSpaceOnUse" id="gradient2" spreadMethod="pad" x1="-819.2" x2="819.2">
      <stop offset="0.0" stop-color="#6b7c61"/>
      <stop offset="1.0" stop-color="#898e64"/>
    </linearGradient>
    <linearGradient gradientTransform="matrix(-0.1098, 0.0083, -0.1288, -1.0145, -20.85, -536.7)" gradientUnits="userSpaceOnUse" id="gradient3" spreadMethod="pad" x1="-819.2" x2="819.2">
      <stop offset="0.0" stop-color="#6b7c61"/>
      <stop offset="1.0" stop-color="#898e64"/>
    </linearGradient>
    <linearGradient gradientTransform="matrix(-0.1374, 6.0E-4, 0.086, -1.0169, -21.45, -476.2)" gradientUnits="userSpaceOnUse" id="gradient4" spreadMethod="pad" x1="-819.2" x2="819.2">
      <stop offset="0.0" stop-color="#788d65"/>
      <stop offset="1.0" stop-color="#a3a46c"/>
    </linearGradient>
    <linearGradient gradientTransform="matrix(-0.146, 0.6251, -0.9726, -0.2271, 887.35, -318.6)" gradientUnits="userSpaceOnUse" id="gradient5" spreadMethod="pad" x1="-819.2" x2="819.2">
      <stop offset="0.0" stop-color="#223929"/>
      <stop offset="1.0" stop-color="#223929" stop-opacity="0.0"/>
    </linearGradient>
  </defs>
</svg>
