<?xml version="1.0" encoding="UTF-8" standalone="no"?>
<svg xmlns:ffdec="https://www.free-decompiler.com/flash" xmlns:xlink="http://www.w3.org/1999/xlink" ffdec:objectType="shape" height="35.15px" width="225.85px" xmlns="http://www.w3.org/2000/svg">
  <g transform="matrix(1.0, 0.0, 0.0, 1.0, -803.95, -576.55)">
    <path d="M825.0 584.5 Q825.85 584.5 827.35 581.4 830.05 578.3 836.95 578.3 840.25 578.3 880.95 587.7 921.65 597.05 927.9 597.05 938.9 597.05 958.1 592.4 L991.55 583.25 Q1010.7 577.85 1018.65 576.85 1029.8 575.5 1029.8 580.55 1029.8 586.25 989.0 599.15 972.4 604.4 957.4 607.95 941.7 611.7 935.55 611.7 L899.55 604.0 854.9 594.2 Q842.0 592.4 830.7 590.0 808.7 585.3 803.95 579.15 L804.55 578.5 Q805.5 577.75 807.05 577.5 811.6 579.75 815.85 582.7 819.15 584.5 825.0 584.5" fill="#cfd297" fill-rule="evenodd" stroke="none"/>
  </g>
</svg>
