<?xml version="1.0" encoding="UTF-8" standalone="no"?>
<svg xmlns:ffdec="https://www.free-decompiler.com/flash" xmlns:xlink="http://www.w3.org/1999/xlink" ffdec:objectType="shape" height="495.2px" width="89.7px" xmlns="http://www.w3.org/2000/svg">
  <g transform="matrix(1.0, 0.0, 0.0, 1.0, -2904.4, -279.65)">
    <path d="M2942.75 750.9 Q2952.4 745.9 2962.55 743.2 2975.3 738.95 2983.2 738.9 2994.1 738.9 2994.1 747.0 2984.2 752.65 2972.1 758.4 2953.45 767.25 2942.6 769.3 2932.6 774.85 2930.15 774.85 2925.5 774.85 2924.5 772.2 L2924.4 769.1 Q2924.4 767.4 2925.1 765.75 2924.4 764.45 2924.4 761.65 2924.4 760.25 2935.3 754.65 2938.05 753.25 2940.85 751.95 L2942.75 750.9" fill="#8ca47d" fill-rule="evenodd" stroke="none"/>
    <path d="M2922.35 283.35 Q2922.35 287.0 2916.7 290.6 2912.15 293.45 2910.6 293.45 2906.05 293.45 2904.8 290.45 L2904.4 287.1 Q2904.4 282.5 2909.7 280.8 2913.4 279.65 2921.5 279.65 L2921.95 280.45 Q2922.35 280.95 2922.35 283.35" fill="#5c6639" fill-rule="evenodd" stroke="none"/>
  </g>
</svg>
