<?xml version="1.0" encoding="UTF-8" standalone="no"?>
<svg xmlns:ffdec="https://www.free-decompiler.com/flash" xmlns:xlink="http://www.w3.org/1999/xlink" ffdec:objectType="shape" height="805.65px" width="2035.9px" xmlns="http://www.w3.org/2000/svg">
  <g transform="matrix(1.0, 0.0, 0.0, 1.0, -482.8, 208.35)">
    <path d="M2483.25 -205.75 L2487.4 -207.0 Q2497.0 -209.45 2501.4 -206.3 2512.65 -209.05 2518.7 -208.1 L2498.05 -200.1 Q2492.7 -198.0 2488.55 -196.45 2487.95 -194.3 2482.35 -191.3 2478.8 -186.8 2462.05 -181.65 2440.0 -174.9 2418.45 -174.9 L2418.1 -174.9 2408.55 -174.45 Q2389.95 -174.45 2373.35 -181.2 L2369.05 -183.0 2366.75 -183.35 2340.9 -185.8 Q2340.9 -186.65 2338.85 -187.85 2342.2 -192.35 2358.05 -191.3 L2358.05 -192.4 2365.5 -193.55 2373.3 -194.05 Q2377.45 -194.05 2379.85 -193.0 L2383.9 -190.75 Q2390.35 -187.45 2408.55 -187.45 2423.9 -187.45 2452.85 -196.7 L2472.55 -203.1 Q2479.4 -205.2 2483.25 -205.75 M493.0 580.3 L483.2 573.95 Q482.8 572.75 482.8 570.25 L483.8 568.75 Q484.35 568.2 486.95 568.2 495.5 568.2 502.5 570.7 503.45 571.0 514.7 576.15 532.1 584.1 559.75 584.1 582.2 584.1 603.25 576.15 L605.95 573.7 Q611.7 568.75 611.7 565.5 611.7 563.85 614.2 561.4 616.8 558.9 620.55 557.05 625.85 554.5 630.55 554.6 633.35 553.0 637.35 551.0 650.35 544.5 654.0 544.5 L655.35 544.7 Q656.8 544.9 657.3 545.5 654.2 548.05 641.05 554.95 L638.55 556.4 637.8 556.85 Q635.3 561.4 633.0 567.55 631.1 572.75 629.8 574.5 627.7 577.35 623.05 579.35 L621.6 579.95 Q618.5 583.05 614.15 585.75 595.55 597.3 560.75 597.3 528.05 597.3 507.0 588.05 500.25 585.05 493.0 580.3" fill="#cfd297" fill-rule="evenodd" stroke="none"/>
    <path d="M667.2 555.0 L666.25 554.55 Q665.95 554.4 665.95 551.9 665.95 546.6 680.7 537.8 693.55 530.15 714.45 521.55 733.7 513.6 751.3 508.3 769.3 502.85 775.5 503.25 L775.9 504.45 765.5 509.65 Q774.0 508.25 778.8 508.6 774.7 511.2 766.5 515.15 767.85 515.65 768.9 516.45 L769.3 517.65 Q761.2 520.95 729.35 532.15 L718.55 535.95 Q682.35 551.1 673.8 555.0 L673.4 555.6 Q672.95 555.7 672.95 553.15 L672.95 552.75 667.2 555.0" fill="#b6bb73" fill-rule="evenodd" stroke="none"/>
  </g>
</svg>
