<?xml version="1.0" encoding="UTF-8" standalone="no"?>
<svg xmlns:ffdec="https://www.free-decompiler.com/flash" xmlns:xlink="http://www.w3.org/1999/xlink" ffdec:objectType="shape" height="905.0px" width="1145.0px" xmlns="http://www.w3.org/2000/svg">
  <g transform="matrix(1.0, 0.0, 0.0, 1.0, -237.5, 302.5)">
    <path d="M1380.0 0.0 L1200.0 0.0 1200.0 -300.0 M1380.0 320.0 L1200.0 320.0 1080.0 340.0 700.0 520.0 540.0 540.0 240.0 540.0 M580.0 -280.0 L580.0 -20.0 240.0 -20.0 M240.0 260.0 L540.0 300.0 540.0 240.0 240.0 220.0" fill="none" stroke="#00ffff" stroke-linecap="round" stroke-linejoin="round" stroke-width="5.0"/>
    <path d="M1380.0 320.0 L1380.0 0.0 1380.0 -260.0 M1380.0 600.0 L1380.0 580.0 1380.0 320.0 M240.0 580.0 L240.0 600.0 M240.0 540.0 L240.0 580.0 M240.0 540.0 L240.0 260.0 240.0 220.0 240.0 -20.0 240.0 -260.0" fill="none" stroke="#ffff00" stroke-linecap="round" stroke-linejoin="round" stroke-width="5.0"/>
    <path d="M540.0 240.0 L1080.0 320.0 1200.0 320.0" fill="none" stroke="#ff0000" stroke-linecap="round" stroke-linejoin="round" stroke-width="5.0"/>
    <path d="M1380.0 580.0 L240.0 580.0" fill="none" stroke="#666666" stroke-linecap="round" stroke-linejoin="round" stroke-width="5.0"/>
  </g>
</svg>
