<?xml version="1.0" encoding="UTF-8" standalone="no"?>
<svg xmlns:ffdec="https://www.free-decompiler.com/flash" xmlns:xlink="http://www.w3.org/1999/xlink" ffdec:objectType="shape" height="88.3px" width="567.8px" xmlns="http://www.w3.org/2000/svg">
  <g transform="matrix(1.0, 0.0, 0.0, 1.0, 417.45, 159.0)">
    <path d="M11.2 -97.45 Q5.45 -97.45 -11.75 -96.85 L-14.25 -91.6 Q-15.6 -88.5 -18.95 -86.8 -28.55 -81.9 -67.25 -81.9 -98.15 -81.9 -106.35 -88.25 -109.55 -90.7 -110.6 -95.0 -111.2 -97.55 -111.8 -103.2 -167.45 -102.35 -180.75 -102.35 -209.45 -102.35 -223.15 -104.1 -238.35 -106.05 -244.1 -111.05 -249.65 -115.95 -248.65 -125.9 L-253.25 -125.9 -252.95 -124.45 Q-252.7 -123.05 -252.7 -119.6 -252.7 -111.85 -257.45 -107.3 -262.4 -102.45 -273.7 -99.8 -293.75 -95.15 -353.6 -95.15 -356.45 -95.15 -361.8 -97.7 -367.1 -100.3 -370.0 -100.3 -375.1 -100.3 -379.85 -95.65 -382.85 -92.75 -387.55 -85.5 -392.55 -77.85 -394.95 -75.3 -399.25 -70.7 -403.65 -70.7 -411.35 -70.7 -415.2 -78.45 -417.1 -82.35 -417.45 -86.25 -417.45 -102.35 -408.65 -112.95 -400.05 -123.25 -380.95 -130.75 -363.8 -137.45 -332.4 -143.9 -311.25 -148.25 -261.05 -156.65 -242.1 -159.85 -227.25 -158.7 -215.45 -157.85 -203.15 -153.8 L-181.8 -145.95 Q-168.4 -141.15 -156.1 -139.15 -72.3 -136.05 -62.0 -132.4 -57.8 -130.9 -53.2 -130.6 -43.9 -129.95 -10.35 -129.95 51.9 -129.95 106.45 -104.25 133.95 -91.25 150.35 -77.05 149.1 -75.0 143.95 -73.65 139.3 -72.45 134.55 -72.45 131.7 -72.45 120.9 -74.75 110.1 -77.05 107.2 -77.05 104.35 -77.05 99.15 -74.15 94.0 -71.3 91.1 -71.3 54.9 -71.3 43.8 -81.05 40.3 -84.15 38.65 -89.0 36.75 -94.5 36.2 -95.15 L19.95 -96.5 11.2 -97.45" fill="#3a4926" fill-rule="evenodd" stroke="none"/>
  </g>
</svg>
