<?xml version="1.0" encoding="UTF-8" standalone="no"?>
<svg xmlns:ffdec="https://www.free-decompiler.com/flash" xmlns:xlink="http://www.w3.org/1999/xlink" ffdec:objectType="shape" height="377.85px" width="298.6px" xmlns="http://www.w3.org/2000/svg">
  <g transform="matrix(1.0, 0.0, 0.0, 1.0, 390.3, 164.05)">
    <path d="M-214.75 -155.75 L-213.3 -159.5 Q-207.45 -142.15 -204.5 -131.7 L-202.7 -124.9 Q-198.1 -105.95 -199.0 -90.55 -199.1 -88.65 -198.35 -85.65 L-198.2 -85.0 -198.2 -84.6 -199.8 -63.2 -202.3 -20.25 -202.45 -18.45 Q-203.8 -12.7 -205.2 -10.8 -206.25 -68.3 -206.05 -71.65 L-205.2 -84.3 -204.65 -87.3 -206.0 -89.3 Q-207.25 -91.55 -207.75 -94.4 L-209.05 -91.1 -209.25 -90.1 -209.45 -91.05 Q-210.2 -96.5 -209.0 -103.05 -208.75 -107.3 -207.75 -114.55 L-207.85 -114.0 Q-209.1 -116.55 -210.15 -120.15 L-209.95 -119.45 Q-212.35 -110.4 -215.15 -106.2 -216.6 -108.75 -217.2 -111.0 -216.3 -115.8 -216.15 -119.9 L-216.15 -120.05 -216.25 -120.9 -216.45 -121.5 -216.7 -122.05 -214.85 -131.9 -213.6 -138.2 Q-215.1 -149.15 -214.75 -155.2 L-214.75 -155.75 M-209.8 86.05 L-213.55 153.4 Q-213.5 155.75 -214.1 159.8 -216.55 161.4 -218.7 163.35 L-218.1 158.75 Q-215.0 135.55 -214.4 124.05 -214.2 121.0 -215.5 112.65 -216.8 104.4 -216.65 101.85 -215.8 86.95 -214.75 79.65 -212.3 81.45 -210.0 83.55 L-209.8 86.05 M-224.2 85.95 L-223.8 82.6 Q-223.4 81.0 -222.4 79.9 -219.55 80.05 -219.75 84.0 -219.85 86.05 -220.4 86.8 -220.8 87.3 -222.2 87.7 L-223.6 86.6 -224.2 85.95 M-231.65 174.35 L-227.35 152.95 -226.15 153.0 Q-225.9 158.8 -225.9 167.1 L-226.0 172.7 -226.25 173.15 -229.05 179.1 -230.15 178.5 -230.25 178.2 -231.65 174.35 M-219.5 169.8 L-219.15 167.0 Q-216.9 164.3 -214.45 162.05 L-215.0 165.4 -215.15 166.7 -215.1 173.6 Q-217.3 170.85 -219.5 169.8 M-226.15 177.0 L-226.15 180.85 -226.75 180.45 -227.75 179.85 -226.15 177.0 M-221.05 184.85 L-219.95 173.95 -217.35 178.8 -216.05 181.75 -216.25 181.9 -216.35 182.0 -216.95 182.55 -217.05 182.6 -217.6 182.95 Q-218.9 183.9 -220.95 184.95 L-221.05 184.85 M-226.6 187.2 L-227.65 187.55 -228.1 187.65 Q-228.4 185.05 -229.05 182.4 L-228.75 181.85 Q-227.3 182.4 -226.25 183.05 L-226.6 187.2 M-233.35 183.5 L-232.4 187.9 -232.65 188.55 -234.25 188.75 -233.35 183.5" fill="#939d37" fill-rule="evenodd" stroke="none"/>
    <path d="M-214.75 -155.75 L-214.75 -155.2 Q-215.1 -149.15 -213.6 -138.2 L-214.85 -131.9 -216.7 -122.05 Q-217.65 -123.7 -219.95 -125.7 -221.55 -127.1 -223.3 -128.1 -220.25 -133.4 -217.7 -143.85 -216.45 -148.95 -215.55 -153.9 L-214.75 -155.75 M-217.2 -111.0 Q-216.6 -108.75 -215.15 -106.2 -212.35 -110.4 -209.95 -119.45 L-210.15 -120.15 Q-209.1 -116.55 -207.85 -114.0 L-207.75 -114.55 Q-208.75 -107.3 -209.0 -103.05 -210.2 -96.5 -209.45 -91.05 L-209.25 -90.1 Q-210.8 -83.4 -213.0 -76.8 L-213.25 -76.15 -216.45 -67.8 -216.7 -67.3 Q-219.65 -61.25 -222.25 -61.4 -226.6 -61.65 -229.9 -83.65 L-230.2 -84.4 -233.5 -93.2 -233.7 -92.75 -235.85 -83.5 -238.75 -84.55 -239.65 -87.4 Q-238.25 -89.85 -236.8 -93.05 -235.35 -96.35 -229.3 -115.55 -228.75 -112.9 -229.35 -108.25 L-230.1 -101.9 Q-230.25 -99.3 -228.3 -98.0 -226.9 -97.0 -224.95 -96.9 -223.0 -96.8 -221.4 -98.75 L-222.9 -97.35 -223.7 -91.55 -225.15 -82.35 -224.8 -80.15 Q-224.3 -79.2 -222.4 -79.1 -219.65 -78.95 -217.2 -85.5 -215.45 -90.3 -215.3 -92.4 -215.1 -96.35 -216.0 -98.35 -217.15 -100.85 -219.95 -101.25 -218.6 -104.1 -217.6 -108.85 L-217.2 -111.0 M-253.6 90.6 L-253.35 87.0 -251.05 86.05 Q-243.0 86.5 -236.55 89.6 L-239.9 92.85 -243.1 96.0 Q-242.85 98.9 -242.95 100.8 -243.15 103.95 -243.4 104.9 -243.9 106.5 -245.05 107.65 L-244.65 108.2 Q-242.6 110.35 -242.7 111.85 -242.8 113.65 -243.25 114.05 L-244.35 114.6 Q-245.8 114.5 -247.5 113.8 L-248.75 111.8 Q-249.5 110.1 -249.4 108.25 -249.3 106.4 -248.8 106.2 L-248.4 106.25 -248.4 100.8 -248.25 99.4 Q-249.75 99.2 -250.85 98.45 L-252.3 97.65 -252.75 94.4 Q-252.35 93.2 -253.35 91.1 L-253.6 90.6 M-250.55 147.5 Q-249.25 147.9 -248.85 148.3 -248.05 149.1 -248.15 151.05 -248.15 151.35 -249.1 152.55 L-250.95 154.55 -252.4 153.8 Q-253.15 153.25 -253.45 153.25 -253.4 152.5 -253.5 152.35 L-253.55 150.55 Q-253.45 148.65 -252.6 148.15 L-250.55 147.5 M-254.15 134.35 Q-254.05 132.55 -253.7 132.25 -253.25 132.2 -252.8 131.75 -248.15 135.9 -248.3 139.1 -248.45 140.9 -248.85 141.3 L-249.7 142.05 -252.15 138.6 Q-254.2 135.95 -254.15 134.35 M-252.25 116.6 L-252.15 116.5 -251.95 116.9 Q-253.0 114.3 -252.85 111.55 -251.0 112.15 -249.45 113.65 -246.2 115.8 -245.35 121.75 -244.9 124.7 -245.2 130.0 -245.3 131.75 -245.8 131.8 L-247.35 131.75 Q-250.7 129.0 -252.0 126.35 -253.2 123.8 -253.0 120.4 -252.9 118.4 -252.25 116.6 M-250.15 162.9 L-251.45 164.05 -252.65 160.85 -253.2 159.6 Q-251.8 160.5 -250.15 162.9" fill="#d1b61b" fill-rule="evenodd" stroke="none"/>
    <path d="M-202.45 -18.45 L-202.3 -20.25 -199.8 -63.2 -198.2 -84.6 -198.2 -85.0 -198.35 -85.65 Q-199.1 -88.65 -199.0 -90.55 -198.1 -105.95 -202.7 -124.9 L-204.5 -131.7 Q-207.45 -142.15 -213.3 -159.5 L-214.75 -155.75 -215.55 -153.9 Q-217.6 -149.15 -220.9 -143.3 L-226.95 -133.05 -230.55 -126.9 -230.75 -126.45 -230.9 -126.2 -231.05 -126.0 -231.1 -125.85 -232.1 -124.05 -233.5 -121.5 -233.6 -121.3 -233.65 -121.15 -239.75 -106.8 Q-241.85 -100.05 -241.5 -94.85 L-241.7 -91.5 -244.5 -41.5 -244.6 -39.65 -246.7 -2.55 Q-248.1 0.85 -248.5 8.05 -249.35 22.95 -251.2 41.2 -251.3 50.9 -251.8 62.4 L-251.85 62.9 -251.95 64.7 -251.95 65.25 -252.0 65.9 -252.05 66.6 -252.05 67.0 -253.35 87.0 -253.6 90.6 -254.4 103.6 Q-255.35 120.75 -256.1 126.45 -256.8 133.05 -258.0 138.2 -257.8 144.25 -258.1 152.05 -260.4 149.45 -263.25 147.7 L-263.15 140.4 -262.4 132.35 Q-261.65 125.85 -260.65 121.75 L-260.3 122.65 -259.7 116.2 Q-258.3 101.5 -257.05 78.95 L-256.05 73.2 Q-255.15 67.25 -255.05 62.55 -255.05 56.55 -256.6 52.8 L-256.3 50.45 Q-256.15 47.85 -257.2 43.7 L-257.3 43.3 -257.15 41.05 Q-255.6 16.65 -253.55 1.75 -252.65 6.75 -252.0 13.6 -248.85 -16.75 -247.0 -49.55 L-244.55 -93.9 Q-244.0 -104.9 -239.3 -116.75 -235.65 -125.85 -228.0 -138.7 L-226.3 -142.7 -222.0 -149.1 -212.3 -164.05 Q-209.3 -161.6 -207.15 -149.7 -206.45 -145.95 -199.15 -125.8 -197.9 -115.85 -194.2 -97.4 L-193.55 -94.35 -193.85 -92.15 Q-193.55 -85.5 -194.25 -76.95 -196.85 -54.6 -197.4 -44.7 L-203.55 48.85 -209.4 153.6 -209.9 157.45 Q-212.1 158.5 -214.1 159.8 -213.5 155.75 -213.55 153.4 L-209.8 86.05 -209.65 84.0 -207.75 49.5 -203.35 -7.65 -202.45 -18.45 M-260.8 163.8 Q-262.05 160.95 -263.65 158.5 L-263.3 150.65 -263.3 150.6 -259.3 163.6 -260.8 163.8 M-264.15 164.8 L-264.2 164.7 -263.9 161.85 -261.3 163.9 -264.15 164.8 M-215.1 173.6 L-215.15 166.7 -215.0 165.4 -214.45 162.05 -210.0 158.25 Q-210.95 165.65 -211.85 171.3 -213.05 167.35 -215.05 167.2 -214.5 170.55 -213.15 174.15 L-212.6 175.55 -212.85 176.9 -213.65 175.6 -215.1 173.6" fill="#736537" fill-rule="evenodd" stroke="none"/>
    <path d="M-216.7 -122.05 L-216.45 -121.5 -216.25 -120.9 -216.15 -120.05 -216.15 -119.9 Q-216.3 -115.8 -217.2 -111.0 L-217.6 -108.85 Q-218.6 -104.1 -219.95 -101.25 -217.15 -100.85 -216.0 -98.35 -215.1 -96.35 -215.3 -92.4 -215.45 -90.3 -217.2 -85.5 -219.65 -78.95 -222.4 -79.1 -224.3 -79.2 -224.8 -80.15 L-225.15 -82.35 -223.7 -91.55 -222.9 -97.35 -221.4 -98.75 Q-223.0 -96.8 -224.95 -96.9 -226.9 -97.0 -228.3 -98.0 -230.25 -99.3 -230.1 -101.9 L-229.35 -108.25 Q-228.75 -112.9 -229.3 -115.55 -235.35 -96.35 -236.8 -93.05 -238.25 -89.85 -239.65 -87.4 L-240.5 -90.75 -241.7 -91.5 -241.5 -94.85 Q-241.85 -100.05 -239.75 -106.8 L-233.65 -121.15 -233.6 -121.3 -233.5 -121.5 -232.1 -124.05 -231.1 -125.85 -231.05 -126.0 -230.9 -126.2 -230.75 -126.45 -230.55 -126.9 -226.95 -133.05 -220.9 -143.3 Q-217.6 -149.15 -215.55 -153.9 -216.45 -148.95 -217.7 -143.85 -220.25 -133.4 -223.3 -128.1 -221.55 -127.1 -219.95 -125.7 -217.65 -123.7 -216.7 -122.05" fill="#d6c930" fill-rule="evenodd" stroke="none"/>
    <path d="M-209.25 -90.1 L-209.05 -91.1 -207.75 -94.4 Q-207.25 -91.55 -206.0 -89.3 L-204.65 -87.3 -205.2 -84.3 -206.05 -71.65 Q-206.25 -68.3 -205.2 -10.8 -203.8 -12.7 -202.45 -18.45 L-203.35 -7.65 Q-204.8 -6.85 -206.6 -6.95 -218.35 -7.6 -220.4 -18.8 -221.05 -22.5 -220.7 -27.6 L-220.1 -34.05 -219.55 -40.3 Q-227.6 -35.35 -233.25 -35.65 -240.25 -36.05 -243.35 -38.2 L-244.6 -39.65 -244.5 -41.5 Q-241.4 -42.8 -235.0 -43.6 -228.05 -44.45 -224.15 -47.55 -225.5 -49.85 -224.2 -52.5 L-218.45 -52.9 -218.45 -53.0 -216.85 -66.85 -216.7 -67.3 -216.45 -67.8 -213.25 -76.15 -213.0 -76.8 Q-210.8 -83.4 -209.25 -90.1 M-209.65 84.0 L-209.8 86.05 -210.0 83.55 -209.65 84.0 M-253.35 87.0 L-252.05 67.0 -252.05 66.6 -252.0 65.9 -251.95 65.25 -251.95 64.7 -251.85 62.9 Q-242.7 61.05 -236.85 62.5 -229.5 64.35 -231.4 70.95 -222.1 74.1 -214.75 79.65 -215.8 86.95 -216.65 101.85 -216.8 104.4 -215.5 112.65 -214.2 121.0 -214.4 124.05 -215.0 135.55 -218.1 158.75 L-218.7 163.35 Q-223.0 167.3 -226.0 172.7 L-225.9 167.1 Q-225.9 158.8 -226.15 153.0 L-227.35 152.95 -231.65 174.35 Q-233.5 169.75 -236.2 165.25 -235.6 171.0 -234.6 176.8 L-238.7 176.4 Q-239.55 174.95 -240.5 173.65 L-237.05 137.65 -237.35 129.95 Q-237.9 113.35 -237.5 106.55 -237.35 103.55 -234.8 94.9 L-233.65 94.95 Q-232.0 106.5 -229.85 145.25 L-229.6 148.9 -229.6 149.15 Q-224.7 116.85 -224.1 106.15 L-224.1 99.75 -223.85 100.05 Q-225.35 98.05 -227.05 96.4 -231.3 92.15 -236.55 89.6 -243.0 86.5 -251.05 86.05 L-253.35 87.0 M-224.2 85.95 L-223.6 86.6 -222.2 87.7 Q-220.8 87.3 -220.4 86.8 -219.85 86.05 -219.75 84.0 -219.55 80.05 -222.4 79.9 -223.4 81.0 -223.8 82.6 L-224.2 85.95 M-241.25 181.7 Q-238.85 185.05 -237.85 187.8 -239.1 187.0 -240.75 186.15 L-240.75 185.75 Q-240.75 184.45 -241.4 183.2 L-241.25 181.7 M-219.15 167.0 L-219.5 169.8 -220.55 169.4 -220.85 169.2 Q-221.2 169.35 -221.2 171.05 L-219.95 173.95 -221.05 184.85 Q-223.3 182.7 -226.15 180.85 L-226.15 177.0 -224.55 174.35 Q-222.0 170.35 -219.15 167.0 M-226.25 183.05 L-224.95 184.0 -223.5 186.1 -226.6 187.2 -226.25 183.05 M-234.25 188.75 L-234.3 188.75 -234.3 187.8 Q-234.3 185.5 -236.35 180.9 L-236.75 180.0 -233.95 180.45 -233.35 183.5 -234.25 188.75" fill="#808a31" fill-rule="evenodd" stroke="none"/>
    <path d="M-203.35 -7.65 L-207.75 49.5 -209.65 84.0 -210.0 83.55 Q-212.3 81.45 -214.75 79.65 -222.1 74.1 -231.4 70.95 -229.5 64.35 -236.85 62.5 -242.7 61.05 -251.85 62.9 L-251.8 62.4 Q-251.3 50.9 -251.2 41.2 -249.35 22.95 -248.5 8.05 -248.1 0.85 -246.7 -2.55 L-244.6 -39.65 -243.35 -38.2 Q-240.25 -36.05 -233.25 -35.65 -227.6 -35.35 -219.55 -40.3 L-220.1 -34.05 -220.7 -27.6 Q-221.05 -22.5 -220.4 -18.8 -218.35 -7.6 -206.6 -6.95 -204.8 -6.85 -203.35 -7.65 M-258.1 152.05 Q-257.8 144.25 -258.0 138.2 -256.8 133.05 -256.1 126.45 -255.35 120.75 -254.4 103.6 L-253.6 90.6 -253.35 91.1 Q-252.35 93.2 -252.75 94.4 L-252.3 97.65 -250.85 98.45 Q-249.75 99.2 -248.25 99.4 L-248.4 100.8 -248.4 106.25 -248.8 106.2 Q-249.3 106.4 -249.4 108.25 -249.5 110.1 -248.75 111.8 L-247.5 113.8 Q-245.8 114.5 -244.35 114.6 L-243.25 114.05 Q-242.8 113.65 -242.7 111.85 -242.6 110.35 -244.65 108.2 L-245.05 107.65 Q-243.9 106.5 -243.4 104.9 -243.15 103.95 -242.95 100.8 -242.85 98.9 -243.1 96.0 L-239.9 92.85 -236.55 89.6 Q-231.3 92.15 -227.05 96.4 -225.35 98.05 -223.85 100.05 L-224.1 99.75 -224.1 106.15 Q-224.7 116.85 -229.6 149.15 L-229.6 148.9 -229.85 145.25 Q-232.0 106.5 -233.65 94.95 L-234.8 94.9 Q-237.35 103.55 -237.5 106.55 -237.9 113.35 -237.35 129.95 L-237.05 137.65 -240.5 173.65 -242.3 171.35 Q-244.75 168.5 -247.35 166.7 -244.75 162.05 -241.3 158.25 L-241.85 156.85 Q-244.95 158.75 -247.5 161.2 L-250.15 162.9 Q-251.8 160.5 -253.2 159.6 -255.25 155.2 -258.1 152.05 M-244.5 -41.5 L-241.7 -91.5 -240.5 -90.75 -239.65 -87.4 -238.75 -84.55 -235.85 -83.5 -233.7 -92.75 -233.5 -93.2 -230.2 -84.4 -229.9 -83.65 Q-226.6 -61.65 -222.25 -61.4 -219.65 -61.25 -216.7 -67.3 L-216.85 -66.85 -218.45 -53.0 -218.45 -52.9 -224.2 -52.5 Q-225.5 -49.85 -224.15 -47.55 -228.05 -44.45 -235.0 -43.6 -241.4 -42.8 -244.5 -41.5 M-252.25 116.6 Q-252.9 118.4 -253.0 120.4 -253.2 123.8 -252.0 126.35 -250.7 129.0 -247.35 131.75 L-245.8 131.8 Q-245.3 131.75 -245.2 130.0 -244.9 124.7 -245.35 121.75 -246.2 115.8 -249.45 113.65 -251.0 112.15 -252.85 111.55 -253.0 114.3 -251.95 116.9 L-252.15 116.5 -252.25 116.6 M-254.15 134.35 Q-254.2 135.95 -252.15 138.6 L-249.7 142.05 -248.85 141.3 Q-248.45 140.9 -248.3 139.1 -248.15 135.9 -252.8 131.75 -253.25 132.2 -253.7 132.25 -254.05 132.55 -254.15 134.35 M-250.55 147.5 L-252.6 148.15 Q-253.45 148.65 -253.55 150.55 L-253.5 152.35 Q-253.4 152.5 -253.45 153.25 -253.15 153.25 -252.4 153.8 L-250.95 154.55 -249.1 152.55 Q-248.15 151.35 -248.15 151.05 -248.05 149.1 -248.85 148.3 -249.25 147.9 -250.55 147.5 M-256.9 170.75 L-258.05 169.7 -257.1 170.15 -256.9 170.75 M-241.4 183.2 Q-242.15 181.75 -243.7 180.4 -246.0 178.4 -249.4 177.2 L-249.4 176.4 -249.5 173.8 Q-246.6 175.4 -245.4 176.65 L-241.25 181.7 -241.4 183.2" fill="#ad981d" fill-rule="evenodd" stroke="none"/>
    <path d="M-343.6 -55.75 Q-350.25 -51.7 -350.8 -51.4 L-363.45 -41.8 Q-375.45 -32.3 -376.2 -30.3 -377.5 -26.95 -376.9 -22.65 -376.05 -16.8 -371.65 -13.65 -368.25 -11.25 -342.35 -31.3 -329.45 -41.4 -317.35 -51.45 -315.1 -57.35 -323.55 -60.55 -331.8 -63.7 -336.3 -60.55 L-343.6 -55.75 M-326.1 -70.85 L-326.2 -70.8 Q-326.65 -69.65 -326.65 -68.2 L-323.35 -64.15 Q-318.05 -57.8 -314.8 -54.95 L-314.6 -54.15 Q-314.35 -53.45 -312.45 -52.2 -312.1 -51.9 -308.9 -51.05 -325.65 -35.55 -333.3 -30.5 -343.45 -24.0 -354.15 -14.9 L-368.6 -2.1 -383.85 -25.85 Q-382.8 -28.6 -368.45 -40.9 L-351.7 -54.75 -335.05 -68.7 Q-332.7 -70.6 -328.55 -70.8 L-326.1 -70.85 M-100.8 -2.55 L-100.75 -2.45 Q-140.35 -10.6 -228.25 -34.8 -309.85 -57.15 -312.65 -59.15 -316.9 -62.25 -317.55 -65.25 -317.85 -66.6 -317.0 -68.7 -316.95 -68.9 -316.4 -68.9 L-315.45 -68.65 -309.2 -66.6 -304.95 -66.2 Q-293.6 -62.85 -271.7 -55.5 -221.25 -38.6 -212.7 -36.8 -193.95 -32.5 -162.6 -26.25 -135.8 -19.75 -105.25 -6.8 L-100.8 -2.55" fill="#d1b61b" fill-rule="evenodd" stroke="none"/>
    <path d="M-331.25 -76.65 Q-328.4 -77.95 -327.7 -78.75 -275.1 -60.85 -206.45 -43.5 L-182.15 -37.5 -171.15 -35.95 -159.5 -34.0 Q-139.45 -28.05 -121.45 -24.75 L-120.35 -24.55 Q-110.0 -14.55 -94.45 -2.1 L-93.05 0.25 Q-92.1 2.0 -91.8 3.4 -91.3 6.55 -93.55 10.65 -96.05 14.75 -96.7 16.95 L-96.9 17.75 Q-100.1 27.3 -107.15 46.1 -108.4 49.25 -109.55 53.7 L-112.8 61.5 -111.85 61.4 -112.0 61.75 Q-112.55 63.25 -112.55 64.1 L-114.05 64.25 -118.6 64.7 -118.05 65.35 -117.45 65.7 -114.7 68.15 -114.15 68.3 -114.85 69.4 -114.75 70.2 -115.25 70.5 -115.85 71.9 -116.45 73.4 -117.0 73.25 -121.2 87.3 -124.65 99.4 -125.95 102.95 -135.3 103.35 Q-162.1 98.8 -207.05 88.8 -246.2 80.0 -286.0 69.95 L-302.8 65.6 Q-330.7 62.65 -332.35 61.5 -333.8 60.35 -344.45 42.85 -356.95 22.4 -361.8 15.8 -372.5 1.4 -380.05 -9.9 -391.25 -26.9 -390.2 -29.65 -389.65 -31.15 -363.1 -49.9 -336.55 -68.7 -334.3 -74.6 -334.0 -75.5 -331.25 -76.65 M-326.1 -70.85 L-328.55 -70.8 Q-332.7 -70.6 -335.05 -68.7 L-351.7 -54.75 -368.45 -40.9 Q-382.8 -28.6 -383.85 -25.85 L-368.6 -2.1 -357.15 15.3 -331.15 54.8 -306.5 60.25 -289.05 62.75 Q-277.55 65.6 -263.85 69.4 L-269.45 68.85 -244.4 74.65 -243.3 74.95 Q-226.55 79.25 -212.0 82.35 L-211.7 82.35 -210.9 82.55 Q-190.15 87.55 -152.45 93.15 L-127.95 98.2 -126.65 95.8 -125.85 95.25 Q-124.85 94.2 -124.0 92.05 -121.8 86.2 -118.0 72.95 -128.4 69.85 -137.3 66.75 L-140.5 66.05 Q-146.2 64.6 -147.5 64.5 L-148.65 64.6 Q-149.6 64.4 -148.95 62.7 L-148.75 62.4 -149.2 62.25 -148.4 62.2 -144.0 62.1 -141.8 62.4 -133.9 62.4 -128.55 62.2 -119.25 61.75 -114.8 61.5 -112.6 53.55 -110.2 44.95 -108.55 38.25 -105.95 34.1 -105.6 33.5 -105.65 33.6 -105.05 32.7 -99.75 23.1 Q-97.7 17.5 -98.95 10.65 L-98.7 10.35 -96.7 7.65 -95.6 5.65 Q-95.35 5.0 -95.85 3.85 L-96.7 2.3 Q-97.5 1.1 -98.85 -0.45 L-100.8 -2.55 -105.25 -6.8 -105.75 -7.2 -107.6 -8.8 -107.8 -8.95 -110.2 -12.45 -110.25 -12.45 -112.0 -13.85 Q-111.85 -14.45 -112.05 -14.65 L-112.65 -14.6 -113.15 -14.8 -120.4 -21.2 -121.1 -21.8 -125.35 -21.65 Q-151.75 -30.3 -187.45 -35.7 L-208.85 -40.9 Q-229.0 -45.55 -243.4 -48.05 -263.15 -55.35 -272.9 -58.35 -293.65 -64.85 -304.95 -66.2 L-309.2 -66.6 -315.45 -68.65 -316.4 -68.9 -320.25 -69.9 -320.55 -70.05 -326.1 -70.85 M-125.1 65.6 L-125.2 65.6 -125.05 65.6 -125.1 65.6" fill="#736537" fill-rule="evenodd" stroke="none"/>
    <path d="M-308.9 -51.05 Q-312.1 -51.9 -312.45 -52.2 -314.35 -53.45 -314.6 -54.15 L-314.8 -54.95 Q-318.05 -57.8 -323.35 -64.15 L-326.65 -68.2 Q-326.65 -69.65 -326.2 -70.8 L-326.1 -70.85 -320.55 -70.05 -320.25 -69.9 -316.4 -68.9 Q-316.95 -68.9 -317.0 -68.7 -317.85 -66.6 -317.55 -65.25 -316.9 -62.25 -312.65 -59.15 -309.85 -57.15 -228.25 -34.8 -140.35 -10.6 -100.75 -2.45 L-100.8 -2.55 -98.85 -0.45 Q-97.5 1.1 -96.7 2.3 L-95.85 3.85 -96.7 3.65 -109.25 0.85 Q-128.85 -3.7 -168.0 -15.3 L-244.1 -36.3 -250.5 -38.0 -268.5 -41.8 Q-299.85 -48.75 -308.9 -51.05 M-304.95 -66.2 Q-293.65 -64.85 -272.9 -58.35 -263.15 -55.35 -243.4 -48.05 -229.0 -45.55 -208.85 -40.9 L-187.45 -35.7 Q-151.75 -30.3 -125.35 -21.65 L-121.1 -21.8 -120.4 -21.2 -113.15 -14.8 -112.65 -14.6 -112.05 -14.65 Q-111.85 -14.45 -112.0 -13.85 L-110.25 -12.45 -110.2 -12.45 -107.8 -8.95 -107.6 -8.8 -105.75 -7.2 -105.25 -6.8 Q-135.8 -19.75 -162.6 -26.25 -193.95 -32.5 -212.7 -36.8 -221.25 -38.6 -271.7 -55.5 -293.6 -62.85 -304.95 -66.2" fill="#d6c930" fill-rule="evenodd" stroke="none"/>
    <path d="M-343.6 -55.75 L-336.3 -60.55 Q-331.8 -63.7 -323.55 -60.55 -315.1 -57.35 -317.35 -51.45 -329.45 -41.4 -342.35 -31.3 -368.25 -11.25 -371.65 -13.65 -376.05 -16.8 -376.9 -22.65 -377.5 -26.95 -376.2 -30.3 -375.45 -32.3 -363.45 -41.8 L-350.8 -51.4 Q-350.25 -51.7 -343.6 -55.75" fill="#ad981d" fill-rule="evenodd" stroke="none"/>
    <path d="M-368.6 -2.1 L-354.15 -14.9 Q-343.45 -24.0 -333.3 -30.5 -325.65 -35.55 -308.9 -51.05 -299.85 -48.75 -268.5 -41.8 L-250.5 -38.0 -244.1 -36.3 -168.0 -15.3 Q-128.85 -3.7 -109.25 0.85 L-96.7 3.65 -95.85 3.85 Q-95.35 5.0 -95.6 5.65 L-96.7 7.65 -98.7 10.35 -98.95 10.65 Q-97.7 17.5 -99.75 23.1 L-105.05 32.7 -105.65 33.6 -105.6 33.5 -105.95 34.1 -108.55 38.25 -110.2 44.95 -112.6 53.55 -114.8 61.5 -119.25 61.75 -128.55 62.2 -133.9 62.4 -141.8 62.4 -144.0 62.1 -148.4 62.2 -149.2 62.25 -148.75 62.4 -148.95 62.7 Q-149.6 64.4 -148.65 64.6 L-147.5 64.5 Q-146.2 64.6 -140.5 66.05 L-137.3 66.75 Q-128.4 69.85 -118.0 72.95 -121.8 86.2 -124.0 92.05 -124.85 94.2 -125.85 95.25 L-126.65 95.8 -127.95 98.2 -152.45 93.15 Q-190.15 87.55 -210.9 82.55 L-211.7 82.35 -212.0 82.35 Q-226.55 79.25 -243.3 74.95 L-244.4 74.65 -269.45 68.85 -263.85 69.4 Q-277.55 65.6 -289.05 62.75 L-306.5 60.25 -331.15 54.8 -357.15 15.3 -368.6 -2.1 M-354.85 -2.8 Q-355.3 -1.45 -357.0 -1.35 -358.5 -1.3 -359.0 0.1 -359.95 2.65 -355.65 12.2 -351.0 22.4 -345.45 26.5 -325.3 40.9 -263.5 47.05 -230.7 50.3 -183.4 52.35 L-178.2 53.0 -171.55 53.2 -150.6 55.0 Q-119.7 56.9 -115.35 45.2 L-113.3 37.95 -133.0 32.6 Q-145.35 37.25 -150.1 37.25 L-150.65 36.45 Q-150.8 36.2 -150.15 34.5 -149.85 33.7 -145.45 30.45 L-144.05 29.5 Q-174.15 20.9 -205.0 10.95 -220.05 6.05 -279.2 -9.0 L-333.05 -22.7 Q-337.3 -19.15 -342.55 -16.5 -347.15 -14.25 -349.25 -12.1 -352.55 -8.9 -354.85 -2.8 M-298.2 -18.8 Q-285.3 -12.8 -277.1 -11.5 -259.5 -8.8 -237.8 -2.3 -212.7 5.25 -204.95 6.9 L-176.8 10.7 Q-150.1 14.4 -130.45 18.25 L-130.8 18.0 -113.85 10.75 -113.2 11.5 Q-113.05 11.7 -113.7 13.45 -114.5 15.5 -120.05 20.25 L-109.3 22.8 Q-106.2 9.9 -107.5 9.0 -148.15 -4.0 -190.3 -17.9 L-196.6 -19.95 -196.65 -19.95 -226.3 -26.25 -236.9 -28.45 -235.5 -25.2 -237.8 -24.9 Q-239.55 -25.0 -241.4 -26.3 L-246.8 -30.45 -261.8 -33.55 Q-288.1 -41.5 -303.15 -41.05 -317.75 -40.6 -324.25 -32.25 L-320.5 -30.35 Q-303.3 -21.2 -298.2 -18.8 M-293.85 -31.35 Q-294.6 -33.5 -294.25 -34.4 L-293.6 -35.15 Q-292.15 -34.35 -285.0 -26.75 L-285.1 -24.55 Q-286.05 -24.05 -286.55 -24.1 -287.55 -24.2 -289.4 -25.5 -292.8 -27.95 -293.85 -31.35 M-119.45 49.4 L-122.4 50.2 Q-123.3 50.45 -124.9 49.3 L-126.9 47.55 -126.75 47.25 -127.2 47.4 Q-127.45 47.2 -126.85 45.45 -126.3 44.0 -124.25 44.2 -122.35 44.35 -121.2 45.3 -119.5 47.55 -119.45 49.4 M-122.05 80.95 Q-161.3 66.5 -229.5 56.8 L-281.3 49.9 Q-309.6 46.05 -324.65 42.8 L-323.45 50.4 Q-302.35 56.35 -268.1 60.7 -235.25 64.9 -215.65 70.8 L-188.9 79.1 Q-171.9 84.25 -160.5 86.65 -128.25 93.1 -122.2 81.2 L-122.05 80.95 M-163.0 37.1 Q-162.15 38.0 -162.2 39.0 -163.25 40.4 -165.05 40.2 -166.55 40.05 -168.1 38.95 L-170.05 37.15 -169.85 36.9 Q-170.4 35.5 -169.7 33.6 -167.65 34.05 -166.45 34.7 -165.0 35.35 -163.0 37.1 M-225.6 38.3 Q-225.35 38.35 -225.3 38.7 L-222.25 40.8 Q-220.35 42.35 -219.3 44.45 L-219.35 45.45 -221.6 45.7 Q-223.45 45.45 -225.25 44.45 L-226.75 42.65 Q-227.2 41.9 -226.55 40.05 -225.95 38.3 -225.6 38.3 M-311.75 20.7 Q-312.6 19.6 -312.75 18.8 -309.8 19.25 -306.1 21.9 L-306.05 22.65 -310.85 21.65 -311.75 20.7 M-334.3 18.25 Q-335.45 19.2 -337.5 18.65 L-340.4 16.6 -340.75 15.7 Q-341.1 14.9 -340.45 13.15 -338.85 9.05 -332.35 16.35 -333.55 17.7 -334.3 18.25" fill="#939d37" fill-rule="evenodd" stroke="none"/>
    <path d="M-354.85 -2.8 Q-352.55 -8.9 -349.25 -12.1 -347.15 -14.25 -342.55 -16.5 -337.3 -19.15 -333.05 -22.7 L-279.2 -9.0 Q-220.05 6.05 -205.0 10.95 -174.15 20.9 -144.05 29.5 L-145.45 30.45 Q-149.85 33.7 -150.15 34.5 -150.8 36.2 -150.65 36.45 L-150.1 37.25 Q-145.35 37.25 -133.0 32.6 L-113.3 37.95 -115.35 45.2 Q-119.7 56.9 -150.6 55.0 L-171.55 53.2 -178.2 53.0 -183.4 52.35 Q-230.7 50.3 -263.5 47.05 -325.3 40.9 -345.45 26.5 -351.0 22.4 -355.65 12.2 -359.95 2.65 -359.0 0.1 -358.5 -1.3 -357.0 -1.35 -355.3 -1.45 -354.85 -2.8 M-293.85 -31.35 Q-292.8 -27.95 -289.4 -25.5 -287.55 -24.2 -286.55 -24.1 -286.05 -24.05 -285.1 -24.55 L-285.0 -26.75 Q-292.15 -34.35 -293.6 -35.15 L-294.25 -34.4 Q-294.6 -33.5 -293.85 -31.35 M-298.2 -18.8 Q-303.3 -21.2 -320.5 -30.35 L-324.25 -32.25 Q-317.75 -40.6 -303.15 -41.05 -288.1 -41.5 -261.8 -33.55 L-246.8 -30.45 -241.4 -26.3 Q-239.55 -25.0 -237.8 -24.9 L-235.5 -25.2 -236.9 -28.45 -226.3 -26.25 -196.65 -19.95 -196.6 -19.95 -190.3 -17.9 Q-148.15 -4.0 -107.5 9.0 -106.2 9.9 -109.3 22.8 L-120.05 20.25 Q-114.5 15.5 -113.7 13.45 -113.05 11.7 -113.2 11.5 L-113.85 10.75 -130.8 18.0 -130.45 18.25 Q-150.1 14.4 -176.8 10.7 L-204.95 6.9 Q-212.7 5.25 -237.8 -2.3 -259.5 -8.8 -277.1 -11.5 -285.3 -12.8 -298.2 -18.8 M-119.45 49.4 Q-119.5 47.55 -121.2 45.3 -122.35 44.35 -124.25 44.2 -126.3 44.0 -126.85 45.45 -127.45 47.2 -127.2 47.4 L-126.75 47.25 -126.9 47.55 -124.9 49.3 Q-123.3 50.45 -122.4 50.2 L-119.45 49.4 M-311.75 20.7 L-310.85 21.65 -306.05 22.65 -306.1 21.9 Q-309.8 19.25 -312.75 18.8 -312.6 19.6 -311.75 20.7 M-225.6 38.3 Q-225.95 38.3 -226.55 40.05 -227.2 41.9 -226.75 42.65 L-225.25 44.45 Q-223.45 45.45 -221.6 45.7 L-219.35 45.45 -219.3 44.45 Q-220.35 42.35 -222.25 40.8 L-225.3 38.7 Q-225.35 38.35 -225.6 38.3 M-163.0 37.1 Q-165.0 35.35 -166.45 34.7 -167.65 34.05 -169.7 33.6 -170.4 35.5 -169.85 36.9 L-170.05 37.15 -168.1 38.95 Q-166.55 40.05 -165.05 40.2 -163.25 40.4 -162.2 39.0 -162.15 38.0 -163.0 37.1 M-122.05 80.95 L-122.2 81.2 Q-128.25 93.1 -160.5 86.65 -171.9 84.25 -188.9 79.1 L-215.65 70.8 Q-235.25 64.9 -268.1 60.7 -302.35 56.35 -323.45 50.4 L-324.65 42.8 Q-309.6 46.05 -281.3 49.9 L-229.5 56.8 Q-161.3 66.5 -122.05 80.95 M-334.3 18.25 Q-333.55 17.7 -332.35 16.35 -338.85 9.05 -340.45 13.15 -341.1 14.9 -340.75 15.7 L-340.4 16.6 -337.5 18.65 Q-335.45 19.2 -334.3 18.25" fill="#808a31" fill-rule="evenodd" stroke="none"/>
    <path d="M-278.05 208.8 Q-280.1 207.45 -282.05 206.6 -278.25 207.95 -276.5 209.3 -275.55 210.05 -275.05 210.9 L-276.05 210.15 -276.45 209.8 -277.4 209.2 -278.05 208.8 M-276.2 213.55 L-275.95 213.15 -275.05 213.4 -274.35 213.5 -274.4 213.8 -276.2 213.55" fill="#7e783a" fill-rule="evenodd" stroke="none"/>
    <path d="M-220.8 -20.85 Q-218.5 -22.45 -215.55 -21.9 -212.4 -21.35 -210.55 -18.9 -208.45 -16.05 -208.9 -11.8 -208.8 -9.6 -209.65 -7.85 -211.4 -4.3 -216.35 -4.85 -220.45 -5.25 -222.45 -9.35 -224.15 -12.55 -223.8 -15.75 -223.45 -19.15 -220.8 -20.85 M-221.75 56.1 L-220.4 57.3 Q-218.45 59.75 -218.85 63.55 L-219.75 66.9 Q-221.8 70.95 -226.8 70.45 -234.0 69.7 -233.15 62.0 -232.75 58.2 -230.25 56.25 -228.6 54.9 -226.4 54.75 L-225.1 54.8 Q-223.2 55.0 -221.75 56.1" fill="#8d8552" fill-rule="evenodd" stroke="none"/>
    <path d="M-224.75 -7.6 Q-225.15 -9.3 -224.5 -15.1 -224.05 -19.1 -220.9 -21.25 -218.1 -23.2 -214.4 -22.65 -210.7 -22.1 -208.35 -19.15 -205.85 -15.85 -206.4 -10.6 -206.25 -7.8 -207.65 -5.35 -210.2 -0.5 -217.3 -1.3 -223.7 -2.0 -224.75 -7.6 M-220.8 -20.85 Q-223.45 -19.15 -223.8 -15.75 -224.15 -12.55 -222.45 -9.35 -220.45 -5.25 -216.35 -4.85 -211.4 -4.3 -209.65 -7.85 -208.8 -9.6 -208.9 -11.8 -208.45 -16.05 -210.55 -18.9 -212.4 -21.35 -215.55 -21.9 -218.5 -22.45 -220.8 -20.85 M-226.4 54.75 Q-228.6 54.9 -230.25 56.25 -232.75 58.2 -233.15 62.0 -234.0 69.7 -226.8 70.45 -221.8 70.95 -219.75 66.9 L-218.85 63.55 Q-218.45 59.75 -220.4 57.3 L-221.75 56.1 Q-220.55 56.7 -219.65 57.8 -217.05 60.65 -217.55 65.35 -217.6 67.85 -218.8 70.25 L-218.8 70.35 -218.9 70.5 -218.95 70.7 -219.0 70.8 -219.5 71.5 -219.6 71.75 -219.75 71.85 -219.8 72.0 -219.95 72.15 -220.0 72.2 -220.1 72.25 -220.2 72.3 -222.9 74.1 -223.2 74.2 -223.45 74.25 -226.65 74.35 Q-231.85 73.8 -234.15 68.3 -235.75 64.3 -235.35 60.45 -235.2 59.35 -234.7 58.4 -233.9 56.85 -232.0 55.85 -229.5 54.55 -226.4 54.75" fill="#736537" fill-rule="evenodd" stroke="none"/>
    <path d="M-226.75 -8.1 Q-227.5 -11.65 -226.85 -17.9 -226.35 -22.25 -222.45 -24.15 -218.75 -26.0 -214.15 -24.75 -209.3 -23.4 -206.5 -19.25 -203.25 -14.55 -204.0 -7.7 -204.3 -5.2 -207.3 -2.6 -211.45 0.9 -218.1 0.25 -225.15 -0.55 -226.75 -8.1 M-224.75 -7.6 Q-223.7 -2.0 -217.3 -1.3 -210.2 -0.5 -207.65 -5.35 -206.25 -7.8 -206.4 -10.6 -205.85 -15.85 -208.35 -19.15 -210.7 -22.1 -214.4 -22.65 -218.1 -23.2 -220.9 -21.25 -224.05 -19.1 -224.5 -15.1 -225.15 -9.3 -224.75 -7.6 M-226.4 54.75 Q-229.5 54.55 -232.0 55.85 -233.9 56.85 -234.7 58.4 L-235.9 58.45 Q-236.0 59.6 -236.25 60.25 -236.9 61.75 -238.85 63.75 -239.5 63.5 -240.15 62.9 -240.75 62.3 -241.0 62.3 L-240.35 56.0 Q-225.85 46.9 -218.8 54.7 -216.35 57.4 -215.25 61.95 -214.3 65.6 -214.6 68.4 -214.8 69.85 -216.45 71.9 -218.95 74.9 -222.55 74.5 L-223.65 74.3 -223.45 74.25 -223.2 74.2 -222.9 74.1 -220.2 72.3 -220.1 72.25 -220.0 72.2 -219.95 72.15 -219.8 72.0 -219.75 71.85 -219.6 71.75 -219.5 71.5 -219.0 70.8 -218.95 70.7 -218.9 70.5 -218.8 70.35 -218.8 70.25 Q-217.6 67.85 -217.55 65.35 -217.05 60.65 -219.65 57.8 -220.55 56.7 -221.75 56.1 -223.2 55.0 -225.1 54.8 L-226.4 54.75" fill="#939d37" fill-rule="evenodd" stroke="none"/>
    <path d="M-219.05 6.6 Q-215.75 10.2 -214.2 17.5 -212.65 24.55 -212.85 29.25 L-214.35 41.6 -215.95 41.5 Q-215.75 35.75 -218.5 28.75 L-219.75 28.75 -224.7 29.1 Q-231.95 30.1 -231.45 35.15 L-230.85 39.9 Q-230.45 42.8 -231.4 44.7 L-235.6 43.7 -236.75 42.1 -237.7 38.45 Q-238.45 35.4 -233.25 30.4 -229.25 26.35 -224.25 23.25 L-228.9 18.7 Q-230.5 16.6 -231.1 13.55 -232.0 9.45 -230.05 6.5 -228.4 3.65 -225.3 3.55 -221.9 3.4 -219.05 6.6 M-219.4 19.7 Q-219.1 18.0 -219.55 15.7 -220.15 13.0 -221.55 11.0 L-223.5 8.2 -225.5 8.25 -225.65 13.05 -219.35 22.6 Q-219.75 21.2 -219.4 19.7 M-195.3 45.4 L-194.65 40.15 Q-194.8 34.1 -204.55 33.7 L-205.95 38.35 Q-204.65 39.45 -200.5 45.65 -197.6 50.1 -194.85 50.75 L-194.9 50.35 Q-195.75 48.7 -195.3 45.4 M-197.5 13.15 Q-193.0 19.6 -192.1 23.8 -191.3 27.7 -190.85 41.0 L-190.65 47.3 -188.7 46.95 -184.45 46.25 -173.85 47.85 -174.7 46.7 -179.2 29.65 Q-181.35 20.35 -181.75 13.95 -175.35 17.55 -169.75 43.05 -168.35 49.35 -171.3 52.85 L-184.7 50.7 -190.7 48.85 Q-190.7 55.45 -191.35 56.5 -192.9 54.95 -196.35 52.8 L-202.45 49.1 Q-209.9 44.2 -210.95 39.2 -211.2 37.95 -209.05 34.85 -206.3 30.8 -201.85 28.9 -204.7 27.2 -208.0 21.3 -210.7 16.3 -211.25 13.55 -211.95 10.4 -211.35 8.35 -210.65 6.5 -209.05 5.05 -203.35 4.55 -197.5 13.15 M-196.5 24.6 L-197.25 23.6 -201.15 16.55 Q-203.6 12.15 -205.05 11.75 L-205.4 14.05 Q-198.75 22.5 -196.5 24.6 M-151.5 39.95 L-152.35 36.9 Q-148.5 39.55 -145.7 45.8 -144.05 49.55 -143.35 52.5 -142.55 56.2 -142.7 60.15 -142.85 64.6 -144.2 67.1 -146.05 66.7 -147.65 63.85 -159.5 62.8 -163.7 60.3 -166.15 58.7 -168.1 55.55 -164.95 55.45 -159.2 56.85 -153.75 58.0 -148.55 60.0 -148.9 51.9 -150.85 42.8 L-158.75 41.3 Q-166.2 39.5 -169.4 38.0 -161.05 35.4 -157.85 36.4 -156.45 36.8 -154.2 38.25 L-151.5 39.95 M-159.95 14.7 L-152.85 16.25 Q-149.9 20.55 -152.3 23.4 L-156.8 27.8 -158.45 27.2 Q-159.05 26.7 -159.7 23.75 -159.75 23.55 -162.25 22.1 -166.25 19.7 -171.9 15.45 L-170.1 13.9 -169.1 13.3 Q-167.5 13.1 -159.95 14.7 M-147.0 23.5 Q-149.2 22.15 -149.75 19.7 -150.3 17.0 -149.3 17.2 L-148.1 18.0 Q-143.05 18.3 -135.5 21.3 -128.2 24.25 -127.9 25.8 -125.25 37.65 -126.0 50.75 L-125.95 50.9 Q-124.9 51.75 -124.0 52.85 L-125.55 54.3 Q-124.1 61.3 -119.4 70.25 -121.75 71.7 -122.95 73.8 -124.75 70.3 -126.25 65.75 -127.65 61.75 -129.25 54.7 -135.3 54.35 -137.75 53.05 L-141.15 49.35 Q-141.3 48.2 -140.95 47.95 -140.45 47.5 -137.3 47.05 L-132.85 47.4 -130.8 48.0 Q-135.15 31.45 -142.25 26.35 -144.05 25.1 -147.0 23.5 M-262.55 -2.65 Q-267.75 -2.95 -271.45 -0.6 -275.2 1.75 -274.4 4.9 -273.45 9.65 -267.0 19.95 -259.85 31.65 -255.65 32.5 L-256.4 31.4 Q-257.25 26.15 -258.4 14.55 -259.35 3.8 -259.8 1.85 -260.35 -0.8 -261.4 -1.9 L-262.55 -2.65 M-268.95 -7.8 Q-264.5 -10.7 -260.55 -9.2 -256.35 -7.45 -254.75 -0.4 -251.95 12.55 -251.2 19.8 -249.9 32.45 -252.7 39.85 -260.7 37.25 -269.1 26.15 -276.15 16.9 -277.1 12.2 -278.4 6.25 -275.8 0.5 -273.4 -4.95 -268.95 -7.8 M-248.4 -10.8 L-246.15 -10.3 Q-245.05 -1.85 -241.9 16.05 -239.6 31.7 -240.75 40.85 -244.2 39.95 -245.4 39.3 L-246.1 22.45 Q-246.65 11.8 -247.15 9.25 -250.1 -4.35 -248.4 -10.8 M-286.3 -6.7 Q-286.45 -7.15 -289.9 -9.1 L-295.85 -12.5 -294.85 -13.75 Q-279.85 -8.25 -278.7 6.85 -278.3 12.1 -279.65 19.1 -280.3 23.0 -281.8 29.15 -293.2 27.05 -301.9 26.3 -304.1 26.0 -304.8 25.15 -305.45 24.3 -306.05 21.85 -306.45 20.0 -304.4 14.4 -302.1 7.85 -298.9 7.45 -293.35 6.7 -289.95 8.95 -287.95 10.5 -287.6 11.9 -287.0 14.45 -288.35 14.6 L-289.85 14.15 Q-296.7 11.5 -299.1 15.25 -300.25 17.1 -300.2 19.75 -298.45 21.2 -283.8 24.75 L-283.25 22.85 Q-282.95 22.05 -282.55 21.95 L-284.65 5.3 Q-285.8 -4.05 -286.3 -6.7 M-331.3 -23.8 Q-333.1 -25.15 -334.2 -26.55 -326.75 -27.95 -323.0 -27.15 -319.6 -26.4 -314.95 -22.75 -315.4 -22.4 -316.0 -22.15 -314.65 -20.3 -313.25 -17.45 -310.55 -11.45 -309.25 -3.5 -306.2 15.1 -312.9 23.0 -332.1 18.75 -333.3 13.05 -333.9 10.4 -332.65 10.65 L-331.2 11.7 Q-323.1 13.35 -315.45 16.85 L-314.7 14.65 Q-315.3 9.2 -316.85 2.2 L-318.15 -3.15 -333.25 -8.25 Q-333.85 -11.05 -333.2 -11.3 -332.1 -11.4 -331.3 -11.8 -328.0 -11.25 -320.0 -7.0 L-319.2 -6.55 Q-319.95 -8.85 -320.85 -10.8 -321.6 -13.5 -320.25 -21.4 L-321.5 -21.4 -331.3 -23.8" fill="#333333" fill-opacity="0.69803923" fill-rule="evenodd" stroke="none"/>
    <path d="M-301.8 22.7 Q-298.55 24.0 -295.65 24.35 L-299.5 17.65 Q-304.2 16.25 -305.65 17.55 -306.35 18.25 -306.5 19.75 -305.1 21.3 -301.8 22.7 M-266.65 23.05 L-263.95 22.8 Q-261.75 22.65 -260.1 22.85 -262.8 17.5 -264.7 12.7 -259.85 16.55 -254.4 25.15 -249.3 33.2 -247.3 39.35 L-249.95 39.05 -250.75 38.65 Q-254.35 33.5 -257.45 27.8 L-262.85 28.35 -263.8 28.3 Q-261.15 33.9 -260.6 39.05 L-263.1 38.8 -264.0 38.3 -272.35 23.5 -280.05 9.35 Q-272.35 13.75 -266.7 23.0 L-266.65 23.05 M-279.65 17.6 L-278.95 18.4 Q-276.55 21.15 -274.45 24.15 L-274.25 24.4 Q-272.4 26.1 -272.45 26.75 L-272.45 27.1 Q-265.9 37.45 -269.05 40.7 -271.35 43.1 -274.95 42.9 -279.3 42.65 -283.2 39.05 L-284.6 37.6 Q-284.15 38.75 -284.1 39.7 L-284.25 40.55 -286.0 39.1 Q-287.3 37.85 -289.3 34.75 -291.25 32.55 -294.7 33.5 -296.9 38.75 -299.35 39.85 L-299.15 40.35 Q-297.9 44.05 -298.4 44.65 -300.4 46.6 -309.0 42.95 -316.2 39.7 -317.85 38.25 -319.6 36.6 -318.85 36.05 L-317.7 35.8 -311.35 36.6 -306.85 37.45 -309.45 32.7 -315.75 31.75 Q-322.15 30.35 -324.0 29.2 L-324.2 27.65 -324.05 26.85 Q-322.15 24.9 -315.8 26.5 L-312.25 27.55 -312.65 26.95 -316.1 19.75 -321.75 19.4 -330.15 18.25 -330.2 17.15 Q-324.65 13.55 -321.1 14.55 -320.3 14.75 -318.4 15.7 -316.8 16.4 -315.6 16.5 -314.9 17.3 -314.65 18.15 L-314.55 18.3 Q-308.6 21.85 -302.95 32.0 L-301.75 34.35 -301.75 33.65 -296.5 28.75 -302.3 26.55 -307.95 23.9 Q-309.65 22.3 -310.4 19.45 -311.2 16.55 -310.25 14.55 -307.95 9.1 -297.45 15.75 L-291.45 25.7 -287.0 33.1 Q-285.65 35.3 -284.95 36.85 -284.45 36.55 -284.45 35.95 L-278.2 36.1 -273.45 36.05 Q-274.0 33.85 -276.5 28.7 L-279.15 28.55 Q-283.85 28.25 -286.35 26.65 -287.25 25.6 -287.05 23.4 L-280.4 23.0 -279.4 23.1 -281.65 18.55 Q-283.65 18.9 -286.4 18.5 -290.25 17.9 -293.95 16.15 -294.2 11.65 -288.1 11.95 -285.8 12.1 -283.4 12.8 -281.15 13.6 -280.35 14.3 -278.55 16.0 -278.7 16.4 L-279.55 17.45 -279.65 17.6 M-238.7 18.0 L-234.6 24.1 Q-232.1 27.75 -230.3 29.45 L-228.25 30.85 -228.45 30.25 Q-230.1 27.05 -232.0 21.85 -234.0 16.4 -234.5 13.65 -227.1 14.85 -223.95 26.35 -222.7 30.55 -222.6 34.6 -222.5 38.35 -223.2 39.1 -224.35 40.3 -225.25 40.0 L-225.85 39.35 Q-227.55 37.7 -232.05 31.6 -236.45 25.65 -237.0 25.15 -238.8 23.5 -238.95 23.8 L-238.75 24.45 -236.45 31.05 Q-235.05 36.2 -236.05 37.2 -237.35 38.65 -239.25 38.75 -241.1 38.95 -241.9 38.3 L-248.3 28.05 -253.6 18.7 -252.05 18.75 -251.25 19.05 -248.55 21.1 -247.4 21.7 -239.4 35.4 -238.45 35.2 Q-238.45 33.9 -241.45 26.2 -244.0 19.3 -243.25 18.4 -241.35 16.5 -238.7 18.0 M-219.6 13.2 Q-214.95 14.25 -207.5 21.15 -205.5 23.05 -203.2 27.95 -200.1 34.3 -202.6 36.9 -204.85 39.25 -208.95 38.4 -212.55 37.55 -215.2 35.05 -220.3 30.25 -223.0 24.45 -225.4 19.15 -224.55 15.75 -223.65 12.25 -219.6 13.2 M-213.3 20.4 Q-214.95 18.85 -216.6 17.75 L-218.5 16.45 Q-220.95 19.35 -217.35 25.3 -215.55 28.35 -213.05 31.0 L-210.35 32.85 -209.55 33.1 -207.85 30.95 Q-207.55 29.15 -209.35 25.75 -211.05 22.5 -213.3 20.4 M-195.05 13.95 Q-193.45 16.35 -190.4 19.75 L-185.2 25.25 Q-179.3 31.9 -179.3 37.0 L-181.2 36.7 Q-183.75 33.45 -188.35 26.3 -192.65 19.85 -194.75 17.35 -195.05 19.7 -194.55 27.15 L-193.65 38.25 -194.2 39.0 Q-194.3 39.25 -196.05 37.55 L-199.85 31.4 Q-203.4 25.25 -204.05 24.8 -205.45 23.4 -207.2 20.45 -209.05 17.5 -210.45 16.2 L-213.4 13.1 Q-214.15 11.9 -214.25 10.3 -210.5 10.85 -207.6 15.3 L-205.45 19.0 -203.35 21.8 Q-201.65 23.35 -200.2 25.8 L-197.7 29.75 Q-196.3 27.7 -198.0 21.35 -199.7 15.0 -198.05 12.45 L-195.05 13.95 M-207.8 -2.1 Q-218.7 -12.9 -219.0 -14.0 -219.7 -16.65 -219.6 -17.15 L-219.15 -18.0 Q-214.4 -14.2 -177.0 19.7 L-169.4 26.4 -169.4 26.35 Q-153.85 4.8 -147.0 0.05 -151.1 14.4 -164.45 30.8 -141.7 50.6 -125.3 61.95 -125.4 63.1 -126.4 64.35 -139.6 59.05 -167.8 34.8 -178.7 47.45 -193.7 59.85 L-172.55 30.7 -181.95 22.35 Q-195.7 9.85 -207.8 -2.1" fill="#990000" fill-opacity="0.8" fill-rule="evenodd" stroke="none"/>
  </g>
</svg>
