<?xml version="1.0" encoding="UTF-8" standalone="no"?>
<svg xmlns:ffdec="https://www.free-decompiler.com/flash" xmlns:xlink="http://www.w3.org/1999/xlink" ffdec:objectType="shape" height="1025.0px" width="3025.0px" xmlns="http://www.w3.org/2000/svg">
  <g transform="matrix(1.0, 0.0, 0.0, 1.0, 1202.5, 762.5)">
    <path d="M1780.0 80.0 L1740.0 80.0 1640.0 160.0 1420.0 240.0 M760.0 140.0 L920.0 180.0 980.0 240.0 M760.0 140.0 L-620.0 80.0 -1200.0 80.0" fill="none" stroke="#00ffff" stroke-linecap="round" stroke-linejoin="round" stroke-width="5.0"/>
    <path d="M1780.0 260.0 L1780.0 80.0 1780.0 -400.0" fill="none" stroke="#0000ff" stroke-linecap="round" stroke-linejoin="round" stroke-width="5.0"/>
    <path d="M1780.0 260.0 L1820.0 260.0 M-1200.0 260.0 L1780.0 260.0" fill="none" stroke="#666666" stroke-linecap="round" stroke-linejoin="round" stroke-width="5.0"/>
    <path d="M460.0 -100.0 L560.0 -180.0 680.0 -200.0 760.0 -180.0 M100.0 -280.0 L200.0 -260.0 280.0 -200.0 M260.0 -360.0 L420.0 -360.0 500.0 -300.0 580.0 -280.0 M1740.0 80.0 L1040.0 80.0 880.0 100.0 760.0 140.0 M600.0 -280.0 L700.0 -280.0" fill="none" stroke="#ff0000" stroke-linecap="round" stroke-linejoin="round" stroke-width="5.0"/>
    <path d="M1820.0 260.0 L1820.0 -760.0" fill="none" stroke="#ffff00" stroke-linecap="round" stroke-linejoin="round" stroke-width="5.0"/>
  </g>
</svg>
