<?xml version="1.0" encoding="UTF-8" standalone="no"?>
<svg xmlns:ffdec="https://www.free-decompiler.com/flash" xmlns:xlink="http://www.w3.org/1999/xlink" ffdec:objectType="shape" height="124.3px" width="418.75px" xmlns="http://www.w3.org/2000/svg">
  <g transform="matrix(1.0, 0.0, 0.0, 1.0, 209.35, 124.3)">
    <path d="M164.6 -4.05 L163.35 -2.5 163.05 -2.3 162.35 -1.8 162.4 -1.7 159.65 0.0 91.8 -4.15 -10.2 -10.15 -54.1 -12.25 Q-79.9 -14.0 -95.75 -17.7 -117.05 -22.65 -135.7 -23.95 -159.65 -25.45 -182.8 -21.3 L-184.05 -20.95 Q-184.05 -20.65 -184.2 -20.55 -184.35 -20.2 -184.9 -21.35 L-185.85 -24.2 -186.05 -24.8 Q-191.05 -28.5 -192.85 -33.65 L-194.4 -39.35 -195.05 -41.45 -196.75 -45.8 -198.8 -49.7 -204.2 -59.55 Q-205.35 -62.05 -205.8 -64.3 L-206.65 -65.55 -206.75 -65.4 -207.75 -66.7 -208.95 -68.5 -209.1 -68.9 -209.35 -69.15 -208.65 -70.65 -206.85 -73.15 -204.65 -75.6 -202.65 -77.6 -198.85 -81.25 -194.95 -84.9 -179.5 -100.9 Q-175.85 -104.9 -172.9 -108.55 -170.25 -112.55 -167.75 -115.35 L-165.8 -117.5 Q-162.05 -121.3 -158.65 -122.55 L-159.25 -122.6 -159.2 -123.1 -159.15 -123.4 Q-138.4 -125.05 -108.65 -123.7 -85.45 -122.6 -68.9 -120.35 L-61.65 -120.3 -32.5 -119.9 14.1 -118.05 Q32.7 -116.8 56.75 -113.25 L90.95 -108.2 96.9 -107.35 Q140.8 -101.3 177.75 -103.45 180.35 -104.35 183.2 -104.75 187.4 -105.55 188.15 -104.15 L188.85 -101.9 189.15 -100.55 Q193.35 -91.9 195.25 -86.4 L196.85 -82.1 196.95 -82.35 197.3 -82.2 198.45 -81.05 200.2 -78.05 Q201.5 -75.75 202.05 -75.15 203.2 -73.85 206.35 -65.75 L208.3 -60.1 209.15 -59.4 209.3 -59.15 209.3 -58.45 208.9 -57.4 208.85 -57.2 208.85 -56.85 208.6 -56.35 208.2 -56.0 208.1 -55.95 Q205.25 -51.1 195.65 -39.8 181.55 -23.25 173.4 -16.05 L171.8 -14.25 171.0 -13.3 170.55 -12.75 169.25 -11.0 165.2 -4.9 164.6 -4.05 M183.3 -101.75 L183.1 -101.7 167.65 -101.3 164.45 -101.2 144.6 -100.65 139.0 -100.9 127.9 -101.55 118.05 -102.4 116.85 -102.5 97.5 -104.8 96.05 -104.95 92.75 -105.4 76.5 -107.95 58.3 -110.55 57.25 -110.7 47.2 -112.1 23.85 -114.65 16.95 -115.1 -13.1 -116.75 -30.25 -117.65 -62.8 -119.25 -87.4 -120.2 -95.9 -120.55 -113.9 -120.95 Q-157.8 -121.85 -161.4 -118.7 L-162.85 -116.95 -163.5 -116.15 -167.7 -111.25 Q-172.55 -105.6 -175.2 -102.9 L-176.4 -101.7 -193.55 -84.1 -194.4 -83.15 -198.35 -78.85 -205.05 -71.85 -205.05 -70.7 -205.05 -69.85 -205.05 -69.75 -204.25 -70.25 Q-201.4 -72.2 -195.55 -72.4 L-183.3 -72.35 -186.0 -71.85 -186.4 -71.8 -186.5 -71.8 -192.35 -71.45 -194.3 -71.35 -194.4 -71.35 -194.95 -71.35 -195.15 -71.25 -195.45 -71.25 -195.6 -71.3 -195.85 -71.2 Q-201.05 -70.85 -204.05 -69.15 L-204.95 -68.6 -204.9 -68.35 -201.9 -62.35 -199.0 -59.05 -199.5 -58.35 -199.75 -58.35 -199.95 -58.45 -190.9 -40.2 -186.55 -32.7 -186.2 -32.1 -186.15 -32.05 -183.5 -27.15 Q-182.7 -25.65 -182.6 -25.0 L-182.75 -24.85 -182.85 -24.6 -182.55 -24.7 -178.05 -25.05 -168.25 -25.7 -167.35 -25.7 -157.1 -25.9 -156.45 -25.85 -156.45 -25.9 Q-149.85 -25.95 -143.15 -25.6 L-135.55 -25.1 -106.85 -21.75 -94.25 -19.8 Q-75.85 -16.8 -52.9 -14.8 L-8.5 -12.4 Q27.65 -11.75 81.25 -7.9 L83.15 -7.7 128.35 -4.45 149.4 -3.15 158.6 -2.5 158.5 -2.7 157.7 -4.65 157.45 -5.15 Q155.9 -8.65 154.6 -12.7 L153.45 -16.4 151.35 -23.75 Q147.45 -36.4 141.45 -45.6 140.95 -45.85 140.75 -46.0 L133.7 -45.5 Q125.25 -45.95 107.55 -48.85 L83.8 -52.6 81.1 -53.05 68.7 -54.6 62.7 -55.2 26.05 -55.65 20.35 -55.85 19.95 -55.9 Q11.2 -56.0 3.8 -56.35 L2.4 -56.45 -17.85 -58.0 -17.4 -58.55 -17.4 -58.65 -16.9 -58.5 -16.95 -58.55 -16.8 -58.5 -15.85 -58.4 0.15 -56.95 0.6 -56.9 6.0 -56.75 7.55 -56.75 Q13.15 -56.6 19.2 -56.75 L21.65 -56.8 21.7 -56.8 29.4 -56.95 Q61.15 -57.85 64.9 -57.75 75.45 -57.65 91.5 -55.1 L103.1 -53.0 Q119.45 -49.95 131.35 -48.9 L138.5 -48.4 141.8 -48.25 142.0 -47.9 142.9 -47.9 143.1 -47.8 Q143.7 -48.0 144.05 -48.35 L145.8 -50.15 146.4 -50.75 Q148.95 -53.55 152.05 -57.7 L153.65 -60.05 155.4 -62.5 155.5 -62.75 156.25 -63.25 156.85 -63.55 157.15 -63.65 157.35 -63.6 155.95 -61.4 151.45 -55.2 150.85 -54.45 145.35 -46.9 144.9 -46.2 Q146.6 -42.3 148.85 -34.65 L149.05 -34.25 149.8 -31.65 Q151.75 -25.55 153.25 -22.55 L153.3 -22.35 154.6 -19.3 156.8 -13.9 159.75 -7.2 161.05 -4.3 161.45 -4.75 166.1 -10.55 166.25 -10.65 Q167.45 -11.1 168.4 -11.9 L169.05 -12.6 174.15 -20.15 Q180.55 -29.2 182.9 -31.3 187.65 -35.5 192.85 -41.8 L198.05 -48.35 200.15 -51.75 202.7 -56.4 204.05 -58.25 204.1 -58.2 204.6 -58.6 Q202.55 -64.9 200.35 -70.1 L196.85 -77.7 Q194.5 -82.35 191.95 -86.25 L185.5 -100.95 185.25 -101.1 184.45 -99.7 184.1 -99.4 181.4 -95.7 180.25 -94.1 177.25 -90.35 176.9 -89.9 175.8 -88.5 168.75 -79.7 168.85 -79.85 169.15 -80.6 169.15 -80.7 169.9 -81.9 170.4 -82.9 Q172.6 -86.75 177.4 -93.35 L182.4 -99.95 182.9 -100.4 183.25 -100.8 184.0 -101.75 183.3 -101.75 M-182.0 -71.5 L-181.5 -72.0 -178.8 -71.8 -176.5 -71.55 -178.75 -71.25 -179.0 -71.2 -179.25 -71.3 -182.1 -71.45 -182.0 -71.5 M-157.75 -69.15 L-175.3 -71.05 -127.2 -66.75 -103.75 -64.6 -89.0 -63.2 -47.3 -59.8 -41.15 -59.3 -39.55 -59.2 -33.65 -58.75 -28.75 -58.45 -41.1 -59.05 -42.15 -59.05 -42.75 -59.1 -46.25 -59.4 -49.2 -59.55 -51.15 -59.65 -90.3 -62.65 -112.6 -64.65 -124.0 -65.6 -126.1 -65.85 -126.3 -65.85 -126.95 -66.0 -127.3 -65.95 -127.3 -66.0 -127.55 -65.95 -128.0 -66.05 -147.65 -68.0 -148.0 -68.05 -150.65 -68.4 -157.75 -69.15 M160.6 -68.7 L160.85 -69.35 160.9 -69.55 161.6 -71.2 Q162.35 -72.75 163.8 -74.3 L164.95 -75.5 165.55 -76.15 165.5 -76.3 165.35 -76.5 166.15 -77.05 166.4 -77.1 166.6 -77.25 166.85 -77.35 167.2 -77.4 160.5 -68.45 160.6 -68.7" fill="#6b9155" fill-rule="evenodd" stroke="none"/>
    <path d="M-186.4 -71.8 L-186.0 -71.85 -183.3 -72.35 -195.55 -72.4 Q-201.4 -72.2 -204.25 -70.25 L-205.05 -69.75 -205.05 -69.85 -205.05 -70.7 -205.05 -71.85 -198.35 -78.85 -194.4 -83.15 -193.55 -84.1 -176.4 -101.7 -175.2 -102.9 Q-172.55 -105.6 -167.7 -111.25 L-163.5 -116.15 -162.85 -116.95 -161.4 -118.7 Q-157.8 -121.85 -113.9 -120.95 L-95.9 -120.55 -87.4 -120.2 -62.8 -119.25 -30.25 -117.65 -13.1 -116.75 16.95 -115.1 23.85 -114.65 47.2 -112.1 57.25 -110.7 58.3 -110.55 76.5 -107.95 92.75 -105.4 96.05 -104.95 97.5 -104.8 116.85 -102.5 118.05 -102.4 127.9 -101.55 139.0 -100.9 144.6 -100.65 164.45 -101.2 167.65 -101.3 183.1 -101.7 183.3 -101.75 183.4 -101.7 183.25 -100.8 182.9 -100.4 182.4 -99.95 177.4 -93.35 Q172.6 -86.75 170.4 -82.9 L169.9 -81.9 169.15 -80.7 169.15 -80.6 168.2 -79.25 168.05 -79.05 166.85 -77.35 166.6 -77.25 166.4 -77.1 166.15 -77.05 165.35 -76.5 165.5 -76.3 165.55 -76.15 164.95 -75.5 163.8 -74.3 Q162.35 -72.75 161.6 -71.2 L160.9 -69.55 160.85 -69.35 160.6 -68.7 160.05 -67.95 157.05 -63.9 156.85 -63.55 156.25 -63.25 155.5 -62.75 155.4 -62.5 153.65 -60.05 152.05 -57.7 Q148.95 -53.55 146.4 -50.75 L145.8 -50.15 144.05 -48.35 Q143.7 -48.0 143.1 -47.8 L142.9 -47.9 142.0 -47.9 141.8 -48.25 138.5 -48.4 131.35 -48.9 Q119.45 -49.95 103.1 -53.0 L91.5 -55.1 Q75.45 -57.65 64.9 -57.75 61.15 -57.85 29.4 -56.95 L21.7 -56.8 21.65 -56.8 18.1 -57.05 14.9 -57.1 Q10.95 -57.25 8.1 -56.95 L6.0 -56.75 0.6 -56.9 -0.7 -57.3 Q-4.5 -58.25 -8.8 -58.45 L-14.95 -58.45 -16.8 -58.5 -16.95 -58.55 -16.9 -58.5 -17.4 -58.65 -17.4 -58.55 -17.75 -58.55 -20.95 -58.7 -37.8 -59.65 -40.7 -59.35 -41.15 -59.3 -47.3 -59.8 -89.0 -63.2 -103.75 -64.6 -127.2 -66.75 -175.3 -71.05 -157.75 -69.15 -162.6 -69.35 -162.75 -69.35 -163.05 -69.4 -163.6 -69.35 -164.8 -69.5 -173.1 -70.75 -178.75 -71.25 -176.5 -71.55 -178.8 -71.8 -181.5 -72.0 -182.0 -71.5 -184.4 -71.7 -186.4 -71.8 M78.8 -100.5 L52.8 -102.75 Q46.65 -103.2 33.4 -105.5 32.05 -104.85 30.7 -103.65 L30.3 -103.1 29.8 -102.4 Q28.15 -99.4 27.55 -91.95 L27.65 -90.65 Q27.7 -87.75 27.2 -85.5 L26.8 -80.6 26.55 -80.6 26.85 -84.3 26.6 -83.75 26.45 -86.95 26.4 -88.0 26.0 -91.55 Q25.4 -98.1 25.05 -98.9 24.85 -99.35 24.95 -102.55 25.1 -105.7 24.9 -106.05 L23.65 -106.9 22.65 -107.5 20.25 -108.0 7.15 -110.2 4.55 -109.3 -3.95 -107.8 -10.55 -106.6 Q-12.95 -105.8 -18.25 -103.05 L-20.25 -102.15 -20.25 -102.2 -20.2 -102.35 -20.2 -102.5 -9.55 -109.45 -9.15 -109.65 -8.7 -109.9 -5.75 -111.6 -14.75 -111.9 Q-39.2 -111.65 -51.9 -111.85 L-51.95 -111.85 Q-60.95 -110.45 -66.95 -108.35 -75.2 -105.45 -83.4 -99.55 L-84.6 -98.7 -88.3 -96.1 -89.35 -95.45 -92.2 -93.75 -93.65 -92.6 -94.15 -92.1 -94.3 -92.0 -94.45 -92.1 -94.65 -92.4 -94.8 -93.0 -94.55 -92.75 -89.2 -95.75 Q-87.75 -96.5 -84.5 -99.1 L-84.3 -99.25 -83.95 -99.55 -77.05 -105.2 -74.75 -107.05 -74.05 -107.65 -74.0 -107.8 Q-71.0 -110.4 -71.7 -111.85 L-71.75 -112.0 Q-72.25 -112.5 -73.85 -112.85 L-74.5 -113.0 Q-82.7 -113.8 -88.9 -115.2 -94.8 -116.55 -106.6 -117.15 L-125.1 -117.8 -127.35 -118.05 -130.75 -118.2 -140.8 -117.75 -152.05 -116.3 Q-160.1 -114.7 -163.5 -111.65 L-164.75 -110.5 -167.55 -107.5 -173.35 -101.2 -179.15 -94.9 -182.3 -91.5 -184.75 -89.15 -185.65 -88.1 Q-187.0 -86.5 -188.2 -84.0 -190.05 -80.45 -189.65 -79.55 L-188.65 -78.85 -188.65 -78.8 -188.1 -78.5 -187.85 -78.4 -186.1 -77.55 -185.85 -77.45 -180.5 -77.15 -170.8 -76.15 -170.7 -76.1 -170.45 -76.0 -166.15 -75.55 -150.5 -74.05 -136.9 -73.05 -135.55 -73.3 -124.45 -74.35 Q-120.15 -75.65 -109.8 -82.3 L-102.25 -87.05 -96.25 -90.85 -95.95 -91.0 -94.75 -91.6 -95.2 -91.25 -95.75 -90.9 -96.1 -90.6 -96.25 -90.5 -100.25 -87.7 -105.9 -83.8 -107.9 -82.3 -111.45 -79.85 -116.05 -76.3 -117.6 -74.75 -117.75 -74.6 -118.1 -74.25 -119.05 -73.3 -119.4 -73.1 -119.9 -72.65 -120.05 -72.55 -120.15 -72.5 -120.65 -72.1 -120.65 -72.05 -120.6 -71.85 -120.6 -71.7 -89.4 -68.8 -27.95 -63.95 -11.1 -62.8 -11.05 -62.8 Q1.35 -63.55 19.1 -62.45 L42.75 -63.6 66.95 -64.75 69.75 -64.7 72.85 -64.5 74.4 -64.4 74.65 -64.45 80.35 -63.8 87.05 -62.85 91.5 -62.1 93.25 -61.85 96.35 -61.35 Q98.75 -61.7 100.75 -62.5 105.1 -64.1 112.05 -68.85 L112.3 -69.05 Q112.5 -68.75 112.9 -68.75 L113.0 -68.7 113.35 -68.65 112.85 -68.2 109.65 -65.5 104.7 -61.5 104.5 -61.4 104.55 -61.35 Q106.1 -60.35 109.3 -59.35 L115.3 -58.25 116.2 -58.15 125.35 -57.8 127.8 -58.0 Q129.65 -58.25 144.55 -62.65 L147.2 -63.4 Q149.1 -64.65 150.7 -66.15 L152.45 -67.8 155.0 -70.6 Q158.25 -74.35 161.1 -79.45 166.35 -88.25 164.75 -91.45 163.75 -93.4 160.75 -95.05 L159.65 -95.1 143.9 -94.95 Q137.65 -94.9 130.85 -95.2 L118.65 -95.9 Q118.2 -95.9 110.65 -98.05 L110.6 -98.0 99.85 -98.65 97.35 -98.8 96.0 -99.0 78.8 -100.5 M-123.7 -71.95 L-123.25 -71.9 -123.15 -72.9 -123.85 -72.25 -123.7 -71.95" fill="#b7d5aa" fill-rule="evenodd" stroke="none"/>
    <path d="M-186.4 -71.8 L-184.4 -71.7 -182.0 -71.5 -182.1 -71.45 -179.25 -71.3 -179.0 -71.2 -178.75 -71.25 -173.1 -70.75 -164.8 -69.5 -163.6 -69.35 -163.05 -69.4 -162.75 -69.35 -162.6 -69.35 -157.75 -69.15 -150.65 -68.4 -148.0 -68.05 -147.65 -68.0 -128.05 -66.0 -127.55 -65.95 -127.3 -66.0 -127.3 -65.95 -126.95 -66.0 -126.3 -65.85 -126.1 -65.85 -124.0 -65.6 -112.6 -64.65 -90.3 -62.65 -51.15 -59.65 -49.2 -59.55 -47.8 -59.4 -46.5 -59.25 -42.75 -58.95 -42.5 -59.0 -42.15 -59.05 -41.1 -59.05 -28.75 -58.45 -33.65 -58.75 -39.55 -59.2 -41.15 -59.3 -40.7 -59.35 -37.8 -59.65 -20.95 -58.7 -17.75 -58.55 -17.4 -58.55 -17.85 -58.0 2.4 -56.45 Q2.55 -56.25 2.9 -56.2 L3.1 -56.05 3.3 -56.2 3.8 -56.35 Q11.2 -56.0 19.95 -55.9 L20.35 -55.85 26.05 -55.65 62.7 -55.2 68.7 -54.6 81.1 -53.05 83.8 -52.6 107.55 -48.85 Q125.25 -45.95 133.7 -45.5 L140.75 -46.0 Q140.95 -45.85 141.45 -45.6 147.45 -36.4 151.35 -23.75 L153.45 -16.4 154.6 -12.7 Q155.9 -8.65 157.45 -5.15 L157.7 -4.65 158.5 -2.7 158.6 -2.5 149.4 -3.15 128.35 -4.45 83.15 -7.7 81.25 -7.9 Q27.65 -11.75 -8.5 -12.4 L-52.9 -14.8 Q-75.85 -16.8 -94.25 -19.8 L-106.85 -21.75 -135.55 -25.1 -143.15 -25.6 Q-149.85 -25.95 -156.45 -25.9 L-156.45 -25.85 -157.1 -25.9 -167.35 -25.7 -168.25 -25.7 -178.05 -25.05 -182.55 -24.7 -182.85 -24.6 -182.75 -24.85 -182.6 -25.0 Q-182.7 -25.65 -183.5 -27.15 L-186.15 -32.05 -186.2 -32.1 -186.55 -32.7 -190.9 -40.2 -199.95 -58.45 -199.75 -58.35 -199.5 -58.35 -199.0 -59.05 -201.9 -62.35 -204.9 -68.35 -204.95 -68.6 -204.05 -69.15 Q-201.05 -70.85 -195.85 -71.2 L-195.6 -71.3 -195.45 -71.25 -195.15 -71.25 -194.95 -71.35 -194.4 -71.35 -194.3 -71.35 -192.35 -71.45 -186.5 -71.8 -186.4 -71.8 M156.85 -63.55 L157.05 -63.9 160.05 -67.95 160.6 -68.7 160.5 -68.45 167.2 -77.4 166.85 -77.35 168.05 -79.05 168.2 -79.25 169.15 -80.6 168.85 -79.85 168.75 -79.7 175.8 -88.5 176.9 -89.9 177.25 -90.35 180.25 -94.1 181.4 -95.7 184.1 -99.4 184.45 -99.7 185.25 -101.1 185.5 -100.95 191.95 -86.25 Q194.5 -82.35 196.85 -77.7 L200.35 -70.1 Q202.55 -64.9 204.6 -58.6 L204.1 -58.2 204.05 -58.25 202.7 -56.4 200.15 -51.75 198.05 -48.35 192.85 -41.8 Q187.65 -35.5 182.9 -31.3 180.55 -29.2 174.15 -20.15 L169.05 -12.6 168.4 -11.9 Q167.45 -11.1 166.25 -10.65 L166.1 -10.55 161.45 -4.75 161.05 -4.3 159.75 -7.2 156.8 -13.9 154.6 -19.3 153.3 -22.35 153.25 -22.55 Q151.75 -25.55 149.8 -31.65 L149.05 -34.25 148.85 -34.65 Q146.6 -42.3 144.9 -46.2 L145.35 -46.9 150.85 -54.45 151.45 -55.2 155.95 -61.4 157.35 -63.6 157.15 -63.65 156.85 -63.55 M-140.8 -117.75 L-130.75 -118.2 -127.35 -118.05 -125.1 -117.8 -106.6 -117.15 Q-94.8 -116.55 -88.9 -115.2 -82.7 -113.8 -74.5 -113.0 L-73.85 -112.85 Q-72.25 -112.5 -71.75 -112.0 L-71.7 -111.85 Q-71.0 -110.4 -74.0 -107.8 L-74.05 -107.65 -74.75 -107.05 -77.05 -105.2 -83.95 -99.55 -84.3 -99.25 -84.5 -99.1 Q-87.75 -96.5 -89.2 -95.75 L-94.55 -92.75 -94.8 -93.0 -94.65 -92.4 -94.45 -92.1 -94.3 -92.0 -94.15 -92.1 -93.65 -92.6 -92.2 -93.75 -89.35 -95.45 -88.3 -96.1 -84.6 -98.7 -83.4 -99.55 Q-75.2 -105.45 -66.95 -108.35 -60.95 -110.45 -51.95 -111.85 L-51.9 -111.85 Q-39.2 -111.65 -14.75 -111.9 L-5.75 -111.6 -8.7 -109.9 -9.15 -109.65 -9.55 -109.45 -20.2 -102.5 -20.2 -102.35 -20.25 -102.2 -20.25 -102.15 -18.25 -103.05 Q-12.95 -105.8 -10.55 -106.6 L-3.95 -107.8 4.55 -109.3 7.15 -110.2 20.25 -108.0 22.65 -107.5 23.65 -106.9 24.9 -106.05 Q25.1 -105.7 24.95 -102.55 24.85 -99.35 25.05 -98.9 25.4 -98.1 26.0 -91.55 L26.4 -88.0 26.45 -86.95 26.6 -83.75 26.85 -84.3 26.55 -80.6 26.8 -80.6 27.2 -85.5 Q27.7 -87.75 27.65 -90.65 L27.55 -91.95 Q28.15 -99.4 29.8 -102.4 L30.3 -103.1 30.7 -103.65 Q32.05 -104.85 33.4 -105.5 46.65 -103.2 52.8 -102.75 L78.8 -100.5 78.65 -99.1 78.6 -98.7 78.55 -99.15 77.75 -100.05 Q77.15 -100.5 75.65 -99.35 L75.1 -98.95 74.95 -98.8 74.65 -98.5 74.05 -97.6 73.45 -96.8 72.0 -94.8 71.65 -94.6 71.45 -94.65 Q70.85 -94.6 69.95 -95.5 68.55 -96.75 66.95 -95.3 L66.55 -94.85 65.95 -94.1 65.3 -92.95 64.2 -91.2 63.75 -91.2 63.6 -91.15 63.1 -91.0 Q62.2 -90.7 61.55 -89.9 L60.85 -89.2 60.85 -89.1 59.3 -86.7 Q58.3 -85.05 57.15 -83.95 L57.1 -83.85 46.0 -75.95 45.1 -75.0 44.7 -74.45 44.85 -74.25 45.25 -74.4 45.95 -74.75 48.15 -76.0 51.9 -78.05 56.55 -80.75 56.75 -80.85 57.3 -81.15 Q57.75 -81.6 58.05 -83.25 58.2 -84.3 59.15 -85.55 L60.15 -86.75 60.65 -87.15 Q61.15 -87.65 61.35 -87.5 L61.35 -87.35 62.2 -85.1 64.6 -85.05 65.85 -85.95 66.0 -86.0 67.25 -87.5 67.4 -87.6 68.4 -89.2 Q68.4 -87.45 68.85 -86.65 69.25 -86.0 69.9 -86.1 L69.8 -85.85 Q67.85 -83.55 68.35 -81.2 L69.65 -81.7 70.25 -81.95 70.95 -82.35 71.15 -82.6 72.3 -84.05 Q73.15 -85.35 72.85 -85.85 L72.0 -86.95 71.85 -87.1 72.4 -87.55 Q73.6 -88.65 74.55 -90.45 L75.4 -91.8 76.1 -92.7 76.25 -92.95 Q79.6 -95.9 90.5 -97.25 L92.65 -97.4 95.0 -97.75 97.75 -98.2 99.85 -98.65 110.6 -98.0 110.65 -98.05 Q118.2 -95.9 118.65 -95.9 L130.85 -95.2 Q137.65 -94.9 143.9 -94.95 L159.65 -95.1 160.75 -95.05 Q163.75 -93.4 164.75 -91.45 166.35 -88.25 161.1 -79.45 158.25 -74.35 155.0 -70.6 L152.45 -67.8 150.7 -66.15 Q149.1 -64.65 147.2 -63.4 L144.55 -62.65 Q129.65 -58.25 127.8 -58.0 L125.35 -57.8 116.2 -58.15 115.3 -58.25 109.3 -59.35 Q106.1 -60.35 104.55 -61.35 L104.5 -61.4 104.7 -61.5 109.65 -65.5 112.85 -68.2 113.35 -68.65 113.0 -68.7 112.9 -68.75 Q112.5 -68.75 112.3 -69.05 L112.05 -68.85 Q105.1 -64.1 100.75 -62.5 98.75 -61.7 96.35 -61.35 L93.25 -61.85 92.6 -62.1 87.4 -64.0 81.3 -65.95 76.75 -67.25 Q68.65 -69.5 59.4 -71.4 L51.4 -73.0 51.4 -72.95 55.0 -71.95 59.45 -70.65 Q66.2 -68.25 74.65 -64.45 L74.4 -64.4 72.85 -64.5 69.75 -64.7 66.95 -64.75 42.75 -63.6 19.1 -62.45 Q1.35 -63.55 -11.05 -62.8 L-11.1 -62.8 -27.95 -63.95 -89.4 -68.8 -120.6 -71.7 -120.6 -71.85 -120.65 -72.05 -120.65 -72.1 -120.15 -72.5 -120.05 -72.55 -119.9 -72.65 -119.4 -73.1 -119.05 -73.3 -118.1 -74.25 -117.75 -74.6 -117.6 -74.75 -116.05 -76.3 -111.45 -79.85 -107.9 -82.3 -105.9 -83.8 -100.25 -87.7 -96.25 -90.5 -96.1 -90.6 -95.75 -90.9 -95.2 -91.25 -94.75 -91.6 -95.95 -91.0 -96.25 -90.85 -102.25 -87.05 -109.8 -82.3 Q-120.15 -75.65 -124.45 -74.35 L-135.55 -73.3 -136.9 -73.05 -150.5 -74.05 -166.15 -75.55 -170.45 -76.0 -170.7 -76.1 -169.5 -77.0 -169.15 -77.3 -168.9 -77.5 -168.85 -77.55 -168.1 -78.65 -167.75 -78.3 Q-166.7 -77.6 -165.55 -78.05 L-164.75 -78.7 -160.15 -82.25 -158.25 -83.65 -164.55 -82.85 Q-167.85 -82.15 -168.75 -81.05 L-169.0 -80.45 Q-169.1 -79.95 -168.85 -79.4 -169.5 -79.4 -169.85 -79.95 L-170.0 -80.15 -170.05 -80.5 Q-170.3 -82.45 -171.15 -82.7 -172.7 -83.2 -175.95 -82.0 L-180.25 -80.15 -187.1 -79.15 -188.65 -78.85 -189.65 -79.55 Q-190.05 -80.45 -188.2 -84.0 -187.0 -86.5 -185.65 -88.1 L-184.75 -89.15 -182.3 -91.5 -179.15 -94.9 -173.35 -101.2 -167.55 -107.5 -164.75 -110.5 -163.5 -111.65 Q-160.1 -114.7 -152.05 -116.3 L-154.85 -114.05 -155.6 -113.5 -155.8 -113.35 -159.05 -110.35 -166.25 -104.05 -164.95 -104.75 -148.95 -113.3 Q-147.4 -114.1 -146.0 -114.85 L-144.9 -115.45 -140.8 -117.75 M79.7 -90.95 L79.9 -92.7 Q78.5 -92.45 77.25 -91.65 L76.6 -91.05 76.25 -90.4 Q76.05 -89.75 76.35 -89.15 76.45 -88.85 77.05 -88.9 L78.1 -88.9 78.25 -88.95 78.3 -89.0 Q79.75 -90.05 79.7 -90.95 M43.8 -89.85 Q44.6 -90.55 44.5 -91.15 L44.3 -92.2 Q41.7 -92.15 40.45 -91.3 L39.75 -90.65 39.4 -90.1 Q39.1 -89.3 39.35 -88.3 L43.2 -89.4 43.8 -89.85 M79.45 -82.7 L80.65 -83.65 82.2 -84.85 83.6 -85.7 83.9 -85.9 84.6 -86.4 85.15 -87.45 85.95 -89.8 Q83.8 -90.15 82.45 -88.7 L81.9 -88.1 81.8 -87.85 Q80.85 -86.5 79.6 -82.9 L79.45 -82.7 M56.75 -85.55 L56.8 -85.65 Q57.9 -86.65 58.25 -87.4 56.05 -86.45 54.95 -85.4 L53.85 -84.2 53.55 -83.75 Q53.9 -83.7 54.9 -84.35 L55.4 -84.55 56.75 -85.55 M2.9 -96.15 L2.85 -96.35 2.4 -96.75 Q0.8 -96.35 0.15 -95.3 L0.05 -95.1 -0.05 -94.8 Q-0.25 -94.0 0.05 -93.3 L0.45 -92.8 0.6 -92.8 0.8 -93.0 1.15 -93.25 1.7 -93.85 1.9 -94.1 2.55 -94.9 2.9 -96.15 M9.65 -98.45 L9.7 -98.45 11.4 -100.35 Q7.25 -99.35 5.35 -98.35 3.9 -97.7 3.45 -96.9 3.2 -96.7 3.2 -96.35 2.95 -95.8 3.35 -95.05 L4.3 -94.65 Q5.3 -94.45 6.55 -95.25 L7.4 -95.8 7.8 -96.2 9.65 -98.45 M28.35 -76.2 L28.3 -75.65 27.5 -72.85 Q27.2 -71.7 27.9 -70.45 L27.95 -70.35 27.9 -70.25 Q28.45 -69.3 28.35 -70.1 L29.05 -72.9 Q29.75 -75.45 29.5 -76.1 L28.9 -76.65 28.4 -76.35 28.35 -76.2 M7.3 -88.5 L5.55 -87.35 5.4 -87.2 4.45 -86.2 4.5 -86.1 4.45 -85.85 4.7 -85.2 Q5.05 -84.55 5.2 -84.65 L5.35 -84.45 5.55 -84.55 6.4 -85.1 6.45 -85.25 Q8.3 -86.85 7.8 -87.95 L7.45 -88.5 7.3 -88.5 M139.85 -35.7 Q135.35 -39.05 126.25 -41.1 L124.75 -39.85 Q112.35 -32.4 108.7 -31.9 108.8 -32.9 109.75 -33.95 L110.1 -34.25 112.9 -36.4 Q118.7 -39.8 120.1 -41.1 L120.4 -41.5 120.9 -42.15 120.8 -42.2 116.65 -42.7 Q91.4 -44.55 84.2 -46.45 L69.8 -47.7 47.5 -48.45 25.85 -49.9 26.05 -49.95 25.8 -50.0 21.7 -49.85 Q20.35 -49.2 19.55 -48.45 L19.2 -47.9 19.0 -47.65 Q18.35 -46.2 19.0 -43.2 19.35 -41.45 20.0 -39.95 L20.25 -39.35 22.0 -36.8 23.5 -34.65 28.05 -28.15 28.4 -27.45 30.15 -23.4 29.85 -23.05 26.8 -27.7 24.6 -31.05 Q19.2 -42.1 8.7 -48.25 5.2 -49.75 2.9 -51.0 L1.45 -51.7 1.4 -51.7 -5.75 -52.05 Q-12.5 -52.2 -24.9 -51.7 L-33.4 -52.55 -40.7 -53.95 Q-43.4 -54.45 -49.5 -53.8 -55.55 -53.2 -58.85 -53.9 L-68.95 -55.25 -69.4 -55.25 -73.0 -55.65 -73.15 -55.65 -73.65 -55.7 -74.05 -55.75 -91.0 -57.05 -109.65 -58.5 Q-115.8 -57.9 -119.3 -54.75 L-119.25 -54.7 Q-120.2 -53.85 -121.35 -51.3 -122.4 -48.65 -123.5 -47.75 -123.8 -47.4 -124.35 -47.3 L-125.3 -47.25 -126.45 -47.75 -126.25 -48.15 Q-125.75 -50.4 -124.8 -51.3 L-124.35 -51.65 -120.75 -53.95 -120.5 -54.2 -118.55 -58.0 -117.85 -59.5 -124.4 -60.6 -133.95 -61.15 -141.7 -61.0 Q-156.2 -60.65 -160.2 -61.0 L-167.1 -62.5 -176.45 -64.7 Q-186.3 -66.65 -191.3 -64.25 L-193.6 -62.8 -194.05 -62.3 Q-195.1 -60.9 -195.25 -58.65 L-195.2 -58.5 -195.15 -58.3 -195.1 -58.1 -195.0 -56.7 -194.9 -56.2 -194.05 -54.55 -191.55 -50.0 -188.6 -45.35 -188.5 -45.25 -187.6 -43.95 -187.6 -43.85 -186.65 -42.55 -186.55 -42.35 -186.55 -42.3 -182.0 -35.4 -181.5 -34.75 Q-179.95 -32.6 -177.75 -31.0 L-172.25 -29.8 -171.95 -29.75 Q-168.55 -29.3 -162.75 -29.8 L-153.05 -30.75 Q-129.3 -31.9 -117.5 -29.2 -100.3 -25.65 -86.65 -23.5 -70.15 -20.95 -54.0 -19.9 L-19.95 -17.55 Q0.7 -16.4 16.85 -17.05 L30.15 -17.4 30.7 -18.65 30.9 -19.1 31.3 -20.8 Q31.6 -20.6 31.95 -20.55 35.0 -18.9 42.25 -17.7 L44.75 -17.3 51.45 -17.2 Q69.55 -16.75 78.05 -15.15 L80.9 -15.1 106.95 -12.35 132.75 -9.55 Q145.0 -8.85 147.45 -11.05 147.95 -11.45 148.25 -12.15 L148.35 -12.7 Q149.15 -15.75 146.85 -22.8 L146.35 -24.0 143.25 -31.75 Q142.45 -33.35 141.05 -34.8 L140.65 -35.05 140.5 -35.2 139.85 -35.7 M155.3 -90.8 Q153.9 -90.0 153.0 -89.2 L151.95 -88.1 Q151.4 -87.1 151.9 -86.15 152.1 -85.8 154.55 -86.65 156.5 -87.4 158.05 -88.35 L158.9 -89.0 159.4 -89.4 Q160.25 -90.25 160.85 -92.7 159.5 -93.0 155.3 -90.8 M127.4 -71.55 L128.05 -72.8 126.8 -72.9 126.45 -72.55 Q125.15 -71.6 124.6 -70.85 L124.5 -70.65 124.4 -70.7 124.35 -70.55 124.55 -69.9 124.9 -69.45 125.0 -69.45 123.35 -67.35 125.2 -69.5 125.4 -69.5 125.55 -69.55 126.3 -70.05 126.4 -70.1 127.4 -71.55 M134.95 -78.35 L135.6 -78.9 136.35 -79.6 136.2 -79.95 Q134.4 -79.25 132.95 -78.35 L131.35 -77.1 130.3 -76.0 Q129.65 -75.2 129.9 -74.65 L130.45 -74.05 130.45 -74.0 130.7 -73.9 132.7 -75.8 134.95 -78.35 M144.4 -75.3 L143.15 -75.0 141.65 -73.95 140.95 -73.3 Q140.4 -72.4 140.4 -71.6 L140.95 -71.45 141.2 -71.4 141.4 -71.25 142.8 -72.4 142.9 -72.5 Q143.55 -73.1 144.0 -73.95 144.5 -74.85 144.4 -75.3 M156.4 -54.7 L155.75 -53.2 Q153.85 -48.2 153.45 -42.4 152.75 -33.4 156.2 -26.6 L157.25 -24.8 Q158.4 -22.9 159.75 -21.55 164.15 -17.4 168.05 -20.9 L171.35 -24.15 176.4 -30.8 182.2 -40.45 Q183.1 -45.75 180.1 -51.8 L177.9 -56.8 176.9 -59.35 175.65 -63.1 175.35 -63.9 Q174.85 -65.3 174.65 -66.65 L174.95 -66.3 175.7 -63.85 176.25 -62.2 177.4 -59.05 178.1 -57.85 Q180.0 -54.65 185.4 -46.85 L185.75 -47.35 185.9 -47.75 186.8 -49.4 188.55 -52.9 190.25 -56.5 190.9 -57.5 192.1 -59.65 Q194.35 -64.5 193.75 -69.95 193.25 -74.5 190.65 -79.7 188.45 -84.15 187.5 -85.25 185.4 -88.0 182.5 -87.25 180.7 -86.85 178.65 -85.15 176.3 -83.45 173.65 -80.45 L172.3 -78.9 Q166.5 -72.15 158.65 -59.05 L158.5 -58.9 158.1 -58.2 156.4 -54.7 M104.55 -92.6 L101.8 -92.25 100.05 -92.0 Q96.35 -91.3 95.3 -90.4 L88.0 -84.0 88.5 -84.25 97.45 -88.45 Q100.2 -89.65 102.65 -91.1 L102.7 -91.15 103.45 -91.6 104.65 -92.35 104.55 -92.6 M-172.4 -98.9 L-173.45 -98.5 -174.9 -97.05 -178.4 -93.45 -178.5 -93.35 -180.25 -91.1 -179.15 -91.5 -176.75 -93.3 Q-175.5 -94.25 -174.65 -95.1 L-174.45 -95.3 -172.85 -97.0 Q-171.9 -98.15 -171.95 -98.5 L-172.4 -98.9 M-34.7 -109.35 L-35.0 -109.45 -36.95 -107.7 -37.15 -107.5 -37.7 -107.05 -37.6 -106.75 -37.65 -106.6 -37.35 -105.95 -37.0 -105.35 -36.75 -105.2 -36.45 -105.4 -36.3 -105.45 -35.95 -105.7 -35.5 -106.15 -33.95 -107.75 -34.25 -108.8 -34.7 -109.35 M-50.8 -103.9 L-50.9 -103.4 Q-51.05 -102.85 -50.6 -102.15 -50.45 -101.55 -49.25 -101.3 -48.0 -101.05 -46.65 -101.75 L-46.35 -102.0 -45.55 -102.6 Q-44.95 -103.15 -44.45 -104.05 L-43.5 -105.65 Q-44.8 -107.05 -48.35 -105.75 -50.35 -104.95 -50.8 -103.9 M-121.8 -102.6 L-123.15 -101.35 -125.15 -99.55 -125.25 -99.5 -130.0 -96.75 Q-133.8 -98.8 -134.15 -96.8 L-134.15 -96.35 -134.15 -95.85 -134.25 -94.85 Q-134.45 -93.5 -135.05 -92.85 L-135.9 -92.15 -135.95 -91.85 Q-134.95 -92.2 -133.6 -91.2 -132.55 -90.5 -130.85 -92.05 L-129.1 -93.15 -128.1 -93.75 -127.8 -94.1 -126.65 -95.0 -125.75 -96.4 -125.5 -96.9 -125.1 -97.5 -124.75 -97.9 Q-123.9 -98.8 -123.25 -99.1 -121.9 -96.8 -120.05 -97.85 L-118.5 -98.95 Q-117.5 -99.6 -116.6 -99.75 -115.1 -100.1 -107.65 -104.4 L-107.25 -104.55 -107.05 -104.75 -105.65 -106.25 -104.75 -107.4 -109.35 -104.9 Q-112.6 -102.65 -114.1 -102.5 L-114.55 -102.7 -114.85 -102.8 -115.05 -102.8 -113.85 -103.7 -113.75 -103.8 -113.65 -103.85 -112.1 -105.2 -109.8 -107.5 -116.2 -106.55 Q-118.2 -105.9 -118.65 -104.75 L-118.75 -104.2 -118.85 -104.05 -119.3 -104.0 -120.25 -103.65 -121.8 -102.6 M-29.5 -99.65 Q-28.9 -100.1 -28.95 -100.45 L-29.0 -100.95 Q-30.7 -101.6 -33.85 -98.65 L-33.45 -97.8 Q-33.05 -97.9 -31.25 -98.7 -31.0 -98.75 -30.8 -98.9 L-30.55 -99.05 -29.5 -99.65 M-81.55 -87.1 L-81.15 -87.8 -80.9 -88.3 -80.05 -89.35 Q-79.9 -89.6 -79.25 -89.1 -78.9 -88.9 -78.35 -89.25 L-78.2 -89.25 -77.5 -89.75 -76.9 -90.6 -76.7 -91.0 -75.9 -92.35 -75.2 -92.15 Q-74.75 -92.1 -74.3 -92.4 L-73.7 -92.7 -73.4 -93.0 -71.95 -94.6 Q-71.1 -95.9 -70.55 -97.1 L-77.85 -93.35 Q-81.6 -91.35 -84.55 -92.45 -87.4 -93.5 -90.3 -90.7 L-91.65 -89.3 -91.65 -89.2 Q-95.45 -83.45 -97.25 -81.35 -95.9 -81.35 -92.65 -82.9 -90.85 -83.7 -90.0 -84.3 L-89.4 -84.7 -89.05 -84.95 -87.95 -86.15 -87.9 -86.2 -86.2 -89.15 -86.95 -86.4 Q-87.1 -85.45 -86.75 -84.85 L-85.9 -84.0 -83.9 -84.15 -83.55 -84.4 -82.85 -84.95 -81.55 -87.1 M-81.5 -74.5 L-81.25 -74.3 Q-80.35 -74.3 -78.45 -75.2 L-78.0 -75.45 Q-75.95 -76.65 -73.75 -78.55 L-73.55 -78.7 -71.2 -81.35 -69.3 -83.4 -69.55 -83.65 -73.65 -82.3 -76.0 -80.75 -77.15 -79.8 -78.95 -77.95 -79.75 -77.0 -81.5 -74.5 M-140.35 -89.9 L-140.05 -89.3 -138.55 -90.4 -137.0 -91.55 -137.25 -91.75 -139.7 -90.3 -140.35 -89.9 M-142.95 -96.0 Q-144.75 -96.15 -146.55 -95.35 -147.9 -94.7 -148.55 -93.75 L-148.9 -93.1 -149.4 -91.35 -147.45 -91.05 Q-146.65 -91.1 -145.5 -91.9 L-145.25 -92.1 -144.2 -92.9 Q-143.3 -93.7 -142.95 -96.0 M-151.85 -87.05 Q-150.9 -87.9 -150.9 -88.35 L-151.35 -89.2 Q-152.65 -89.8 -154.55 -88.4 L-155.3 -87.75 -156.1 -86.8 -156.85 -85.0 -155.0 -85.4 -153.15 -86.0 -152.45 -86.55 -151.85 -87.05 M-145.5 -88.35 Q-147.2 -88.3 -148.4 -86.95 L-148.9 -86.2 -149.9 -84.15 -149.5 -83.65 -148.7 -83.8 -148.2 -84.15 -147.7 -84.6 Q-146.95 -85.3 -146.4 -86.35 L-145.5 -88.35 M-6.6 -92.7 L-7.0 -92.25 -8.05 -91.2 -9.5 -89.75 -9.5 -89.6 -9.2 -88.8 -8.8 -88.25 -8.75 -88.2 Q-8.65 -88.2 -8.65 -88.25 L-5.9 -90.6 Q-4.85 -91.5 -4.45 -93.45 -5.45 -93.7 -6.6 -92.7 M-1.05 -83.4 L-0.4 -83.85 0.0 -84.15 -6.4 -82.35 Q-7.9 -81.8 -8.65 -81.0 L-9.3 -80.2 -9.45 -79.0 -6.25 -79.45 -3.8 -80.05 -3.55 -80.1 -3.2 -80.25 Q-2.75 -80.7 -2.35 -81.7 L-2.05 -82.3 -1.8 -82.75 -1.5 -83.05 -1.45 -83.15 -1.05 -83.4 M-61.35 -87.7 L-61.5 -87.7 -63.25 -86.3 -64.2 -85.4 -64.45 -85.05 Q-64.8 -84.5 -64.5 -84.1 L-63.95 -83.4 -63.8 -83.35 -62.05 -84.9 Q-61.95 -84.85 -61.95 -84.95 L-60.75 -86.3 Q-60.45 -86.15 -60.95 -87.05 L-61.35 -87.7 M-44.9 -93.7 Q-44.75 -94.05 -44.85 -94.8 -45.75 -95.85 -46.95 -94.8 L-47.65 -94.05 -47.95 -93.5 -48.3 -92.05 Q-47.85 -91.9 -47.05 -92.05 L-46.5 -92.15 -46.4 -92.3 -45.75 -92.65 Q-45.15 -93.2 -44.9 -93.7" fill="#a4c994" fill-rule="evenodd" stroke="none"/>
    <path d="M-188.65 -78.85 L-187.1 -79.15 -180.25 -80.15 -175.95 -82.0 Q-172.7 -83.2 -171.15 -82.7 -170.3 -82.45 -170.05 -80.5 L-170.0 -80.15 -169.85 -79.95 Q-169.5 -79.4 -168.85 -79.4 -169.1 -79.95 -169.0 -80.45 L-168.75 -81.05 Q-167.85 -82.15 -164.55 -82.85 L-158.25 -83.65 -160.15 -82.25 -164.75 -78.7 -165.55 -78.05 Q-166.7 -77.6 -167.75 -78.3 L-168.1 -78.65 -168.85 -77.55 -168.9 -77.5 -169.15 -77.3 -169.5 -77.0 -170.7 -76.1 -170.8 -76.15 -180.5 -77.15 -185.85 -77.45 -186.1 -77.55 -187.85 -78.4 -188.1 -78.5 -188.65 -78.8 -188.65 -78.85 M99.85 -98.65 L97.75 -98.2 95.0 -97.75 92.65 -97.4 90.5 -97.25 Q79.6 -95.9 76.25 -92.95 L76.1 -92.7 75.4 -91.8 74.55 -90.45 Q73.6 -88.65 72.4 -87.55 L71.85 -87.1 72.0 -86.95 72.85 -85.85 Q73.15 -85.35 72.3 -84.05 L71.15 -82.6 70.95 -82.35 70.25 -81.95 69.65 -81.7 68.35 -81.2 Q67.85 -83.55 69.8 -85.85 L69.9 -86.1 Q69.25 -86.0 68.85 -86.65 68.4 -87.45 68.4 -89.2 L67.4 -87.6 67.25 -87.5 66.0 -86.0 65.85 -85.95 64.6 -85.05 62.2 -85.1 61.35 -87.35 61.35 -87.5 Q61.15 -87.65 60.65 -87.15 L60.15 -86.75 59.15 -85.55 Q58.2 -84.3 58.05 -83.25 57.75 -81.6 57.3 -81.15 L56.75 -80.85 56.55 -80.75 51.9 -78.05 48.15 -76.0 45.95 -74.75 45.25 -74.4 44.85 -74.25 44.7 -74.45 45.1 -75.0 46.0 -75.95 57.1 -83.85 57.15 -83.95 Q58.3 -85.05 59.3 -86.7 L60.85 -89.1 60.85 -89.2 61.55 -89.9 Q62.2 -90.7 63.1 -91.0 L63.6 -91.15 63.75 -91.2 64.2 -91.2 65.3 -92.95 65.95 -94.1 66.55 -94.85 66.95 -95.3 Q68.55 -96.75 69.95 -95.5 70.85 -94.6 71.45 -94.65 L71.65 -94.6 72.0 -94.8 73.45 -96.8 74.05 -97.6 74.65 -98.5 74.95 -98.8 75.1 -98.95 75.65 -99.35 Q77.15 -100.5 77.75 -100.05 L78.55 -99.15 78.6 -98.7 78.65 -99.1 78.8 -100.5 96.0 -99.0 97.35 -98.8 99.85 -98.65 M79.7 -90.95 Q79.75 -90.05 78.3 -89.0 L78.25 -88.95 78.1 -88.9 77.05 -88.9 Q76.45 -88.85 76.35 -89.15 76.05 -89.75 76.25 -90.4 L76.6 -91.05 77.25 -91.65 Q78.5 -92.45 79.9 -92.7 L79.7 -90.95 M56.75 -85.55 L55.4 -84.55 54.9 -84.35 Q53.9 -83.7 53.55 -83.75 L53.85 -84.2 54.95 -85.4 Q56.05 -86.45 58.25 -87.4 57.9 -86.65 56.8 -85.65 L56.75 -85.55 M7.3 -88.5 L7.45 -88.5 7.8 -87.95 Q8.3 -86.85 6.45 -85.25 L6.4 -85.1 5.55 -84.55 5.35 -84.45 5.2 -84.65 Q5.05 -84.55 4.7 -85.2 L4.45 -85.85 4.5 -86.1 4.45 -86.2 5.4 -87.2 5.55 -87.35 7.3 -88.5 M155.3 -90.8 Q159.5 -93.0 160.85 -92.7 160.25 -90.25 159.4 -89.4 L158.9 -89.0 158.05 -88.35 Q156.5 -87.4 154.55 -86.65 152.1 -85.8 151.9 -86.15 151.4 -87.1 151.95 -88.1 L153.0 -89.2 Q153.9 -90.0 155.3 -90.8 M-50.8 -103.9 Q-50.35 -104.95 -48.35 -105.75 -44.8 -107.05 -43.5 -105.65 L-44.45 -104.05 Q-44.95 -103.15 -45.55 -102.6 L-46.35 -102.0 -46.65 -101.75 Q-48.0 -101.05 -49.25 -101.3 -50.45 -101.55 -50.6 -102.15 -51.05 -102.85 -50.9 -103.4 L-50.8 -103.9 M-34.7 -109.35 L-34.25 -108.8 -33.95 -107.75 -35.5 -106.15 -35.95 -105.7 -36.3 -105.45 -36.45 -105.4 -36.75 -105.2 -37.0 -105.35 -37.35 -105.95 -37.65 -106.6 -37.6 -106.75 -37.7 -107.05 -37.15 -107.5 -36.95 -107.7 -35.0 -109.45 -34.7 -109.35 M-81.55 -87.1 L-82.85 -84.95 -83.55 -84.4 -83.9 -84.15 -85.9 -84.0 -86.75 -84.85 Q-87.1 -85.45 -86.95 -86.4 L-86.2 -89.15 -87.9 -86.2 -87.95 -86.15 -89.05 -84.95 -89.4 -84.7 -90.0 -84.3 Q-90.85 -83.7 -92.65 -82.9 -95.9 -81.35 -97.25 -81.35 -95.45 -83.45 -91.65 -89.2 L-91.65 -89.3 -90.3 -90.7 Q-87.4 -93.5 -84.55 -92.45 -81.6 -91.35 -77.85 -93.35 L-70.55 -97.1 Q-71.1 -95.9 -71.95 -94.6 L-73.4 -93.0 -73.7 -92.7 -74.3 -92.4 Q-74.75 -92.1 -75.2 -92.15 L-75.9 -92.35 -76.7 -91.0 -76.9 -90.6 -77.5 -89.75 -78.2 -89.25 -78.35 -89.25 Q-78.9 -88.9 -79.25 -89.1 -79.9 -89.6 -80.05 -89.35 L-80.9 -88.3 -81.15 -87.8 -81.55 -87.1 M-151.85 -87.05 L-152.45 -86.55 -153.15 -86.0 -155.0 -85.4 -156.85 -85.0 -156.1 -86.8 -155.3 -87.75 -154.55 -88.4 Q-152.65 -89.8 -151.35 -89.2 L-150.9 -88.35 Q-150.9 -87.9 -151.85 -87.05 M-1.05 -83.4 L-1.45 -83.15 -1.5 -83.05 -1.8 -82.75 -2.05 -82.3 -2.35 -81.7 Q-2.75 -80.7 -3.2 -80.25 L-3.55 -80.1 -3.8 -80.05 -6.25 -79.45 -9.45 -79.0 -9.3 -80.2 -8.65 -81.0 Q-7.9 -81.8 -6.4 -82.35 L0.0 -84.15 -0.4 -83.85 -1.05 -83.4" fill="#c8c994" fill-rule="evenodd" stroke="none"/>
    <path d="M-140.8 -117.75 L-144.9 -115.45 -146.0 -114.85 Q-147.4 -114.1 -148.95 -113.3 L-164.95 -104.75 -166.25 -104.05 -159.05 -110.35 -155.8 -113.35 -155.6 -113.5 -154.85 -114.05 -152.05 -116.3 -140.8 -117.75 M74.65 -64.45 Q66.2 -68.25 59.45 -70.65 L55.0 -71.95 51.4 -72.95 51.4 -73.0 59.4 -71.4 Q68.65 -69.5 76.75 -67.25 L81.3 -65.95 87.4 -64.0 92.6 -62.1 93.25 -61.85 91.5 -62.1 87.05 -62.85 80.35 -63.8 74.65 -64.45 M79.45 -82.7 L79.6 -82.9 Q80.85 -86.5 81.8 -87.85 L81.9 -88.1 82.45 -88.7 Q83.8 -90.15 85.95 -89.8 L85.15 -87.45 84.6 -86.4 83.9 -85.9 83.6 -85.7 82.2 -84.85 80.65 -83.65 79.45 -82.7 M43.8 -89.85 L43.2 -89.4 39.35 -88.3 Q39.1 -89.3 39.4 -90.1 L39.75 -90.65 40.45 -91.3 Q41.7 -92.15 44.3 -92.2 L44.5 -91.15 Q44.6 -90.55 43.8 -89.85 M28.35 -76.2 L28.4 -76.35 28.9 -76.65 29.5 -76.1 Q29.75 -75.45 29.05 -72.9 L28.35 -70.1 Q28.45 -69.3 27.9 -70.25 L27.95 -70.35 27.9 -70.45 Q27.2 -71.7 27.5 -72.85 L28.3 -75.65 28.35 -76.2 M9.65 -98.45 L7.8 -96.2 7.4 -95.8 6.55 -95.25 Q5.3 -94.45 4.3 -94.65 L3.35 -95.05 Q2.95 -95.8 3.2 -96.35 3.2 -96.7 3.45 -96.9 3.9 -97.7 5.35 -98.35 7.25 -99.35 11.4 -100.35 L9.7 -98.45 9.65 -98.45 M2.9 -96.15 L2.55 -94.9 1.9 -94.1 1.7 -93.85 1.15 -93.25 0.8 -93.0 0.6 -92.8 0.45 -92.8 0.05 -93.3 Q-0.25 -94.0 -0.05 -94.8 L0.05 -95.1 0.15 -95.3 Q0.8 -96.35 2.4 -96.75 L2.85 -96.35 2.9 -96.15 M-68.95 -55.25 L-58.85 -53.9 Q-55.55 -53.2 -49.5 -53.8 -43.4 -54.45 -40.7 -53.95 L-33.4 -52.55 -24.9 -51.7 Q-12.5 -52.2 -5.75 -52.05 L1.4 -51.7 1.45 -51.7 2.9 -51.0 Q5.2 -49.75 8.7 -48.25 19.2 -42.1 24.6 -31.05 L26.8 -27.7 29.85 -23.05 30.15 -23.4 28.4 -27.45 28.05 -28.15 23.5 -34.65 22.0 -36.8 20.25 -39.35 20.0 -39.95 Q19.35 -41.45 19.0 -43.2 18.35 -46.2 19.0 -47.65 L19.2 -47.9 19.55 -48.45 Q20.35 -49.2 21.7 -49.85 L25.8 -50.0 26.05 -49.95 25.85 -49.9 47.5 -48.45 69.8 -47.7 84.2 -46.45 Q91.4 -44.55 116.65 -42.7 L120.8 -42.2 120.9 -42.15 120.4 -41.5 120.1 -41.1 Q118.7 -39.8 112.9 -36.4 L110.1 -34.25 109.75 -33.95 Q108.8 -32.9 108.7 -31.9 112.35 -32.4 124.75 -39.85 L126.25 -41.1 Q135.35 -39.05 139.85 -35.7 L139.85 -32.0 Q139.7 -31.8 139.85 -31.5 L139.8 -31.15 Q137.35 -29.55 134.7 -28.85 132.85 -28.35 131.85 -27.7 L131.55 -27.45 130.15 -26.15 132.9 -25.7 Q133.7 -25.5 134.95 -24.9 137.2 -24.4 141.05 -27.45 L141.15 -27.35 141.0 -26.2 Q140.95 -25.6 141.25 -25.05 141.85 -23.85 144.1 -24.25 L146.35 -24.0 146.85 -22.8 Q149.15 -15.75 148.35 -12.7 L148.25 -12.15 Q147.95 -11.45 147.45 -11.05 145.0 -8.85 132.75 -9.55 L106.95 -12.35 80.9 -15.1 78.05 -15.15 Q69.55 -16.75 51.45 -17.2 L44.75 -17.3 42.25 -17.7 Q35.0 -18.9 31.95 -20.55 31.6 -20.6 31.3 -20.8 L30.9 -19.1 30.7 -18.65 30.15 -17.4 16.85 -17.05 Q0.7 -16.4 -19.95 -17.55 L-54.0 -19.9 Q-70.15 -20.95 -86.65 -23.5 -100.3 -25.65 -117.5 -29.2 -129.3 -31.9 -153.05 -30.75 L-162.75 -29.8 Q-168.55 -29.3 -171.95 -29.75 L-172.25 -29.8 -177.75 -31.0 Q-179.95 -32.6 -181.5 -34.75 L-181.3 -34.95 -180.95 -35.2 Q-178.55 -37.6 -177.1 -40.3 L-177.15 -40.25 -177.4 -40.1 -180.7 -38.35 -182.65 -37.45 -183.05 -37.45 -183.15 -37.45 -183.15 -37.55 -183.05 -38.1 Q-182.35 -41.65 -182.7 -42.3 L-185.0 -42.35 -185.95 -42.25 -186.55 -42.3 -186.55 -42.35 -186.65 -42.55 -187.6 -43.85 -187.55 -44.3 -187.25 -45.75 Q-186.9 -48.2 -187.35 -49.25 -188.0 -50.55 -190.95 -52.7 -193.8 -54.8 -194.45 -56.15 L-194.5 -57.3 -194.1 -58.9 -194.55 -58.6 -195.15 -58.3 -195.2 -58.5 -195.25 -58.65 Q-195.1 -60.9 -194.05 -62.3 L-193.6 -62.8 -191.3 -64.25 Q-186.3 -66.65 -176.45 -64.7 L-167.1 -62.5 -160.2 -61.0 Q-156.2 -60.65 -141.7 -61.0 L-133.95 -61.15 -124.4 -60.6 -117.85 -59.5 -118.55 -58.0 -120.5 -54.2 -120.75 -53.95 -124.35 -51.65 -124.8 -51.3 Q-125.75 -50.4 -126.25 -48.15 L-126.45 -47.75 -125.3 -47.25 -124.35 -47.3 Q-123.8 -47.4 -123.5 -47.75 -122.4 -48.65 -121.35 -51.3 -120.2 -53.85 -119.25 -54.7 L-119.3 -54.75 Q-115.8 -57.9 -109.65 -58.5 L-91.0 -57.05 -74.05 -55.75 -73.65 -55.7 -74.0 -55.45 -75.05 -54.65 -75.15 -54.55 -75.4 -54.35 -75.45 -54.35 -80.35 -50.3 -81.35 -49.45 Q-80.1 -49.85 -69.45 -55.0 L-69.4 -55.05 -68.95 -55.25 M43.4 -35.05 L43.4 -36.0 42.8 -36.65 41.5 -35.5 41.45 -35.45 41.35 -35.35 40.8 -34.8 40.8 -34.4 41.1 -33.8 Q41.35 -33.2 41.55 -33.2 L41.85 -33.2 42.0 -33.15 42.85 -33.8 43.25 -34.4 43.45 -35.0 43.4 -35.05 M20.45 -22.05 Q21.35 -21.3 22.45 -22.45 L23.2 -23.2 23.35 -23.8 23.25 -24.7 21.05 -24.85 20.8 -24.75 20.6 -24.7 Q19.4 -24.05 20.05 -22.75 L20.45 -22.05 M9.0 -35.95 L7.9 -35.15 Q6.05 -37.9 3.95 -38.1 0.3 -38.15 -7.6 -32.0 L-8.35 -31.45 -9.1 -30.85 -7.95 -30.95 Q-6.55 -30.8 -5.25 -30.2 -4.95 -30.05 -2.65 -31.2 -1.3 -31.8 0.3 -32.85 L2.8 -34.45 Q1.75 -32.8 1.7 -31.5 1.6 -30.7 1.85 -30.25 2.35 -29.25 3.05 -29.1 4.4 -28.7 7.1 -31.2 L7.1 -31.0 6.6 -28.9 Q6.55 -28.05 6.65 -27.8 L15.75 -26.95 16.75 -28.0 17.25 -28.8 17.2 -28.85 Q16.0 -29.8 14.3 -28.7 L13.95 -28.4 12.85 -28.5 12.1 -29.6 Q11.2 -31.7 10.2 -32.35 L10.25 -32.35 10.85 -33.05 11.15 -33.4 11.2 -33.45 11.75 -34.3 12.7 -35.9 13.1 -36.85 Q12.15 -37.95 9.0 -35.95 M144.4 -75.3 Q144.5 -74.85 144.0 -73.95 143.55 -73.1 142.9 -72.5 L142.8 -72.4 141.4 -71.25 141.2 -71.4 140.95 -71.45 140.4 -71.6 Q140.4 -72.4 140.95 -73.3 L141.65 -73.95 143.15 -75.0 144.4 -75.3 M134.95 -78.35 L132.7 -75.8 130.7 -73.9 130.45 -74.0 130.45 -74.05 129.9 -74.65 Q129.65 -75.2 130.3 -76.0 L131.35 -77.1 132.95 -78.35 Q134.4 -79.25 136.2 -79.95 L136.35 -79.6 135.6 -78.9 134.95 -78.35 M127.4 -71.55 L126.4 -70.1 126.3 -70.05 125.55 -69.55 125.4 -69.5 125.2 -69.5 123.35 -67.35 125.0 -69.45 124.9 -69.45 124.55 -69.9 124.35 -70.55 124.4 -70.7 124.5 -70.65 124.6 -70.85 Q125.15 -71.6 126.45 -72.55 L126.8 -72.9 128.05 -72.8 127.4 -71.55 M156.4 -54.7 L158.1 -58.2 158.5 -58.9 158.65 -59.05 Q166.5 -72.15 172.3 -78.9 L173.65 -80.45 Q176.3 -83.45 178.65 -85.15 180.7 -86.85 182.5 -87.25 185.4 -88.0 187.5 -85.25 188.45 -84.15 190.65 -79.7 193.25 -74.5 193.75 -69.95 194.35 -64.5 192.1 -59.65 L190.9 -57.5 190.25 -56.5 188.55 -52.9 186.8 -49.4 185.9 -47.75 185.75 -47.35 185.4 -46.85 Q180.0 -54.65 178.1 -57.85 L177.4 -59.05 176.25 -62.2 175.7 -63.85 174.95 -66.3 174.65 -66.65 Q174.85 -65.3 175.35 -63.9 L175.65 -63.1 176.9 -59.35 177.9 -56.8 180.1 -51.8 Q183.1 -45.75 182.2 -40.45 L176.4 -30.8 171.35 -24.15 168.05 -20.9 Q164.15 -17.4 159.75 -21.55 158.4 -22.9 157.25 -24.8 L156.2 -26.6 Q152.75 -33.4 153.45 -42.4 153.85 -48.2 155.75 -53.2 L156.4 -54.7 M104.55 -92.6 L104.65 -92.35 103.45 -91.6 102.7 -91.15 102.65 -91.1 Q100.2 -89.65 97.45 -88.45 L88.5 -84.25 88.0 -84.0 95.3 -90.4 Q96.35 -91.3 100.05 -92.0 L101.8 -92.25 104.55 -92.6 M103.95 -27.4 L103.7 -26.15 104.65 -27.2 105.05 -27.9 105.0 -27.95 104.85 -27.9 104.75 -27.85 104.4 -27.7 103.95 -27.4 M90.75 -31.65 L89.6 -29.6 90.0 -29.1 Q91.6 -28.9 93.8 -30.95 L94.5 -31.75 94.9 -32.4 95.0 -33.4 Q93.8 -34.05 92.0 -32.75 L91.1 -32.05 90.75 -31.65 M161.0 -46.25 Q160.25 -45.2 160.65 -44.25 L161.25 -43.5 161.5 -43.35 162.0 -43.65 163.15 -44.5 163.5 -44.9 164.25 -46.0 164.8 -47.8 Q163.15 -48.3 161.55 -46.8 L161.45 -46.65 161.0 -46.25 M174.25 -43.0 Q174.6 -43.9 174.55 -44.45 172.75 -44.4 171.85 -43.5 L171.6 -43.25 171.5 -43.15 Q170.55 -42.0 171.1 -40.9 171.35 -40.35 171.55 -40.3 L171.7 -40.2 173.5 -41.35 173.8 -41.85 174.05 -42.35 174.25 -43.0 M-172.4 -98.9 L-171.95 -98.5 Q-171.9 -98.15 -172.85 -97.0 L-174.45 -95.3 -174.65 -95.1 Q-175.5 -94.25 -176.75 -93.3 L-179.15 -91.5 -180.25 -91.1 -178.5 -93.35 -178.4 -93.45 -174.9 -97.05 -173.45 -98.5 -172.4 -98.9 M-162.15 -40.5 Q-163.85 -39.6 -164.85 -38.45 L-165.25 -37.9 -165.3 -37.85 Q-165.75 -36.95 -165.45 -36.25 L-165.1 -35.7 -165.05 -35.65 -164.8 -35.55 -162.8 -36.9 Q-162.1 -37.4 -161.75 -38.2 L-161.65 -38.45 -161.55 -38.6 -161.45 -39.05 Q-161.3 -39.5 -161.5 -39.9 -161.75 -40.5 -161.95 -40.5 L-162.15 -40.5 M-29.5 -99.65 L-30.55 -99.05 -30.8 -98.9 Q-31.0 -98.75 -31.25 -98.7 -33.05 -97.9 -33.45 -97.8 L-33.85 -98.65 Q-30.7 -101.6 -29.0 -100.95 L-28.95 -100.45 Q-28.9 -100.1 -29.5 -99.65 M-121.8 -102.6 L-120.25 -103.65 -119.3 -104.0 -118.85 -104.05 -118.75 -104.2 -118.65 -104.75 Q-118.2 -105.9 -116.2 -106.55 L-109.8 -107.5 -112.1 -105.2 -113.65 -103.85 -113.75 -103.8 -113.85 -103.7 -115.05 -102.8 -114.85 -102.8 -114.55 -102.7 -114.1 -102.5 Q-112.6 -102.65 -109.35 -104.9 L-104.75 -107.4 -105.65 -106.25 -107.05 -104.75 -107.25 -104.55 -107.65 -104.4 Q-115.1 -100.1 -116.6 -99.75 -117.5 -99.6 -118.5 -98.95 L-120.05 -97.85 Q-121.9 -96.8 -123.25 -99.1 -123.9 -98.8 -124.75 -97.9 L-125.1 -97.5 -125.5 -96.9 -125.75 -96.4 -126.65 -95.0 -127.8 -94.1 -128.1 -93.75 -129.1 -93.15 -130.85 -92.05 Q-132.55 -90.5 -133.6 -91.2 -134.95 -92.2 -135.95 -91.85 L-135.9 -92.15 -135.05 -92.85 Q-134.45 -93.5 -134.25 -94.85 L-134.15 -95.85 -134.15 -96.35 -134.15 -96.8 Q-133.8 -98.8 -130.0 -96.75 L-125.25 -99.5 -125.15 -99.55 -123.15 -101.35 -121.8 -102.6 M-81.5 -74.5 L-79.75 -77.0 -78.95 -77.95 -77.15 -79.8 -76.0 -80.75 -73.65 -82.3 -69.55 -83.65 -69.3 -83.4 -71.2 -81.35 -73.55 -78.7 -73.75 -78.55 Q-75.95 -76.65 -78.0 -75.45 L-78.45 -75.2 Q-80.35 -74.3 -81.25 -74.3 L-81.5 -74.5 M-142.95 -96.0 Q-143.3 -93.7 -144.2 -92.9 L-145.25 -92.1 -145.5 -91.9 Q-146.65 -91.1 -147.45 -91.05 L-149.4 -91.35 -148.9 -93.1 -148.55 -93.75 Q-147.9 -94.7 -146.55 -95.35 -144.75 -96.15 -142.95 -96.0 M-145.5 -88.35 L-146.4 -86.35 Q-146.95 -85.3 -147.7 -84.6 L-148.2 -84.15 -148.7 -83.8 -149.5 -83.65 -149.9 -84.15 -148.9 -86.2 -148.4 -86.95 Q-147.2 -88.3 -145.5 -88.35 M-138.9 -42.45 L-139.05 -42.45 Q-139.1 -42.35 -139.25 -42.35 -140.85 -42.15 -142.65 -40.65 L-144.05 -39.1 Q-144.45 -38.35 -144.25 -37.85 -143.75 -36.85 -143.85 -37.5 -143.1 -37.45 -142.0 -38.4 -141.35 -38.95 -140.3 -40.45 L-138.9 -42.45 M-99.8 -40.4 L-100.1 -41.35 -100.55 -41.8 -102.5 -40.15 -103.3 -39.2 -103.4 -39.1 -103.8 -38.5 -103.35 -38.1 -102.95 -37.65 -102.45 -37.8 -101.25 -38.75 -100.35 -39.7 -99.85 -40.35 -99.8 -40.4 M-89.2 -42.6 Q-87.7 -43.05 -85.6 -44.9 L-84.05 -48.0 -84.15 -48.15 -86.5 -48.3 Q-87.45 -47.95 -88.65 -47.2 -90.75 -45.8 -91.25 -44.55 L-91.3 -44.5 Q-91.7 -43.6 -91.2 -42.75 L-89.2 -42.6 M-155.4 -43.65 L-154.7 -45.45 Q-156.95 -45.35 -158.3 -43.6 L-158.95 -42.45 -159.0 -42.0 Q-159.15 -41.4 -158.9 -40.9 L-158.75 -40.85 -157.25 -40.85 -155.95 -42.8 -155.4 -43.65 M-6.6 -92.7 Q-5.45 -93.7 -4.45 -93.45 -4.85 -91.5 -5.9 -90.6 L-8.65 -88.25 Q-8.65 -88.2 -8.75 -88.2 L-8.8 -88.25 -9.2 -88.8 -9.5 -89.6 -9.5 -89.75 -8.05 -91.2 -7.0 -92.25 -6.6 -92.7 M-44.9 -93.7 Q-45.15 -93.2 -45.75 -92.65 L-46.4 -92.3 -46.5 -92.15 -47.05 -92.05 Q-47.85 -91.9 -48.3 -92.05 L-47.95 -93.5 -47.65 -94.05 -46.95 -94.8 Q-45.75 -95.85 -44.85 -94.8 -44.75 -94.05 -44.9 -93.7 M-61.35 -87.7 L-60.95 -87.05 Q-60.45 -86.15 -60.75 -86.3 L-61.95 -84.95 Q-61.95 -84.85 -62.05 -84.9 L-63.8 -83.35 -63.95 -83.4 -64.5 -84.1 Q-64.8 -84.5 -64.45 -85.05 L-64.2 -85.4 -63.25 -86.3 -61.5 -87.7 -61.35 -87.7 M-60.1 -48.6 L-60.2 -48.65 -60.95 -48.8 Q-61.95 -48.75 -62.95 -48.15 -64.25 -47.35 -64.7 -45.85 L-65.0 -44.75 -63.35 -45.15 Q-61.85 -45.75 -61.4 -46.15 L-60.55 -47.3 -60.1 -48.6 M-41.7 -30.0 L-41.3 -29.4 -38.5 -31.35 -36.7 -32.7 -36.1 -33.3 -35.55 -34.45 -35.15 -35.5 -34.4 -38.05 Q-35.9 -39.9 -38.05 -37.05 L-38.95 -35.75 -39.1 -35.5 -41.7 -30.0 M-27.75 -38.75 L-29.35 -37.15 -29.4 -37.0 -29.65 -36.65 Q-30.15 -35.8 -29.75 -34.9 L-28.1 -34.9 -27.75 -35.45 -27.05 -36.7 Q-26.65 -37.7 -26.85 -38.15 L-27.4 -38.75 -27.75 -38.75" fill="#91bd7d" fill-rule="evenodd" stroke="none"/>
    <path d="M-16.8 -58.5 L-14.95 -58.45 -8.8 -58.45 Q-4.5 -58.25 -0.7 -57.3 L0.6 -56.9 0.15 -56.95 -15.85 -58.4 -16.8 -58.5 M6.0 -56.75 L8.1 -56.95 Q10.95 -57.25 14.9 -57.1 L18.1 -57.05 21.65 -56.8 19.2 -56.75 Q13.15 -56.6 7.55 -56.75 L6.0 -56.75 M183.25 -100.8 L183.4 -101.7 183.3 -101.75 184.0 -101.75 183.25 -100.8 M103.95 -27.4 L104.4 -27.7 104.75 -27.85 104.85 -27.9 105.0 -27.95 105.05 -27.9 104.65 -27.2 103.7 -26.15 103.95 -27.4 M-123.7 -71.95 L-123.85 -72.25 -123.15 -72.9 -123.25 -71.9 -123.7 -71.95" fill="#598c62" fill-rule="evenodd" stroke="none"/>
    <path d="M3.8 -56.35 L3.3 -56.2 3.1 -56.05 2.9 -56.2 Q2.55 -56.25 2.4 -56.45 L3.8 -56.35 M-49.2 -59.55 L-46.25 -59.4 -42.75 -59.1 -42.15 -59.05 -42.5 -59.0 -42.75 -58.95 -46.5 -59.25 -47.8 -59.4 -49.2 -59.55 M-147.65 -68.0 L-128.0 -66.05 -127.55 -65.95 -128.05 -66.0 -147.65 -68.0" fill="#609569" fill-rule="evenodd" stroke="none"/>
    <path d="M139.85 -35.7 L140.5 -35.2 140.65 -35.05 141.05 -34.8 Q142.45 -33.35 143.25 -31.75 L146.35 -24.0 144.1 -24.25 Q141.85 -23.85 141.25 -25.05 140.95 -25.6 141.0 -26.2 L141.15 -27.35 141.05 -27.45 Q137.2 -24.4 134.95 -24.9 133.7 -25.5 132.9 -25.7 L130.15 -26.15 131.55 -27.45 131.85 -27.7 Q132.85 -28.35 134.7 -28.85 137.35 -29.55 139.8 -31.15 L139.85 -31.5 Q139.7 -31.8 139.85 -32.0 L139.85 -35.7 M-181.5 -34.75 L-182.0 -35.4 -186.55 -42.3 -185.95 -42.25 -185.0 -42.35 -182.7 -42.3 Q-182.35 -41.65 -183.05 -38.1 L-183.15 -37.55 -183.15 -37.45 -183.05 -37.45 -182.65 -37.45 -180.7 -38.35 -177.4 -40.1 -177.15 -40.25 -177.1 -40.3 Q-178.55 -37.6 -180.95 -35.2 L-181.3 -34.95 -181.5 -34.75 M-187.6 -43.85 L-187.6 -43.95 -188.5 -45.25 -188.6 -45.35 -191.55 -50.0 -194.05 -54.55 -194.9 -56.2 -195.0 -56.7 -195.1 -58.1 -195.15 -58.3 -194.55 -58.6 -194.1 -58.9 -194.5 -57.3 -194.45 -56.15 Q-193.8 -54.8 -190.95 -52.7 -188.0 -50.55 -187.35 -49.25 -186.9 -48.2 -187.25 -45.75 L-187.55 -44.3 -187.6 -43.85 M9.0 -35.95 Q12.15 -37.95 13.1 -36.85 L12.7 -35.9 11.75 -34.3 11.2 -33.45 11.15 -33.4 10.85 -33.05 10.25 -32.35 10.2 -32.35 Q11.2 -31.7 12.1 -29.6 L12.85 -28.5 13.95 -28.4 14.3 -28.7 Q16.0 -29.8 17.2 -28.85 L17.25 -28.8 16.75 -28.0 15.75 -26.95 6.65 -27.8 Q6.55 -28.05 6.6 -28.9 L7.1 -31.0 7.1 -31.2 Q4.4 -28.7 3.05 -29.1 2.35 -29.25 1.85 -30.25 1.6 -30.7 1.7 -31.5 1.75 -32.8 2.8 -34.45 L0.3 -32.85 Q-1.3 -31.8 -2.65 -31.2 -4.95 -30.05 -5.25 -30.2 -6.55 -30.8 -7.95 -30.95 L-9.1 -30.85 -8.35 -31.45 -7.6 -32.0 Q0.3 -38.15 3.95 -38.1 6.05 -37.9 7.9 -35.15 L9.0 -35.95 M20.45 -22.05 L20.05 -22.75 Q19.4 -24.05 20.6 -24.7 L20.8 -24.75 21.05 -24.85 23.25 -24.7 23.35 -23.8 23.2 -23.2 22.45 -22.45 Q21.35 -21.3 20.45 -22.05 M43.4 -35.05 L43.45 -35.0 43.25 -34.4 42.85 -33.8 42.0 -33.15 41.85 -33.2 41.55 -33.2 Q41.35 -33.2 41.1 -33.8 L40.8 -34.4 40.8 -34.8 41.35 -35.35 41.45 -35.45 41.5 -35.5 42.8 -36.65 43.4 -36.0 43.4 -35.05 M161.0 -46.25 L161.45 -46.65 161.55 -46.8 Q163.15 -48.3 164.8 -47.8 L164.25 -46.0 163.5 -44.9 163.15 -44.5 162.0 -43.65 161.5 -43.35 161.25 -43.5 160.65 -44.25 Q160.25 -45.2 161.0 -46.25 M174.25 -43.0 L174.05 -42.35 173.8 -41.85 173.5 -41.35 171.7 -40.2 171.55 -40.3 Q171.35 -40.35 171.1 -40.9 170.55 -42.0 171.5 -43.15 L171.6 -43.25 171.85 -43.5 Q172.75 -44.4 174.55 -44.45 174.6 -43.9 174.25 -43.0 M-138.9 -42.45 L-140.3 -40.45 Q-141.35 -38.95 -142.0 -38.4 -143.1 -37.45 -143.85 -37.5 -143.75 -36.85 -144.25 -37.85 -144.45 -38.35 -144.05 -39.1 L-142.65 -40.65 Q-140.85 -42.15 -139.25 -42.35 -139.1 -42.35 -139.05 -42.45 L-138.9 -42.45 M-41.7 -30.0 L-39.1 -35.5 -38.95 -35.75 -38.05 -37.05 Q-35.9 -39.9 -34.4 -38.05 L-35.15 -35.5 -35.55 -34.45 -36.1 -33.3 -36.7 -32.7 -38.5 -31.35 -41.3 -29.4 -41.7 -30.0" fill="#b5b773" fill-rule="evenodd" stroke="none"/>
    <path d="M-73.65 -55.7 L-73.15 -55.65 -73.0 -55.65 -69.4 -55.25 -68.95 -55.25 -69.4 -55.05 -69.45 -55.0 Q-80.1 -49.85 -81.35 -49.45 L-80.35 -50.3 -75.45 -54.35 -75.4 -54.35 -75.15 -54.55 -75.05 -54.65 -74.0 -55.45 -73.65 -55.7 M90.75 -31.65 L91.1 -32.05 92.0 -32.75 Q93.8 -34.05 95.0 -33.4 L94.9 -32.4 94.5 -31.75 93.8 -30.95 Q91.6 -28.9 90.0 -29.1 L89.6 -29.6 90.75 -31.65 M-162.15 -40.5 L-161.95 -40.5 Q-161.75 -40.5 -161.5 -39.9 -161.3 -39.5 -161.45 -39.05 L-161.55 -38.6 -161.65 -38.45 -161.75 -38.2 Q-162.1 -37.4 -162.8 -36.9 L-164.8 -35.55 -165.05 -35.65 -165.1 -35.7 -165.45 -36.25 Q-165.75 -36.95 -165.3 -37.85 L-165.25 -37.9 -164.85 -38.45 Q-163.85 -39.6 -162.15 -40.5 M-155.4 -43.65 L-155.95 -42.8 -157.25 -40.85 -158.75 -40.85 -158.9 -40.9 Q-159.15 -41.4 -159.0 -42.0 L-158.95 -42.45 -158.3 -43.6 Q-156.95 -45.35 -154.7 -45.45 L-155.4 -43.65 M-89.2 -42.6 L-91.2 -42.75 Q-91.7 -43.6 -91.3 -44.5 L-91.25 -44.55 Q-90.75 -45.8 -88.65 -47.2 -87.45 -47.95 -86.5 -48.3 L-84.15 -48.15 -84.05 -48.0 -85.6 -44.9 Q-87.7 -43.05 -89.2 -42.6 M-99.8 -40.4 L-99.85 -40.35 -100.35 -39.7 -101.25 -38.75 -102.45 -37.8 -102.95 -37.65 -103.35 -38.1 -103.8 -38.5 -103.4 -39.1 -103.3 -39.2 -102.5 -40.15 -100.55 -41.8 -100.1 -41.35 -99.8 -40.4 M-60.1 -48.6 L-60.55 -47.3 -61.4 -46.15 Q-61.85 -45.75 -63.35 -45.15 L-65.0 -44.75 -64.7 -45.85 Q-64.25 -47.35 -62.95 -48.15 -61.95 -48.75 -60.95 -48.8 L-60.2 -48.65 -60.1 -48.6 M-27.75 -38.75 L-27.4 -38.75 -26.85 -38.15 Q-26.65 -37.7 -27.05 -36.7 L-27.75 -35.45 -28.1 -34.9 -29.75 -34.9 Q-30.15 -35.8 -29.65 -36.65 L-29.4 -37.0 -29.35 -37.15 -27.75 -38.75" fill="#79ae62" fill-rule="evenodd" stroke="none"/>
    <path d="M209.3 -59.15 Q209.55 -58.7 209.3 -58.0 L208.85 -56.85 208.85 -57.2 208.9 -57.4 209.3 -58.45 209.3 -59.15 M171.8 -14.25 Q166.1 -5.3 165.2 -4.5 L164.6 -4.05 165.2 -4.9 169.25 -11.0 170.55 -12.75 171.0 -13.3 171.8 -14.25" fill="#466c4b" fill-rule="evenodd" stroke="none"/>
    <path d="M-140.35 -89.9 L-139.7 -90.3 -137.25 -91.75 -137.0 -91.55 -138.55 -90.4 -140.05 -89.3 -140.35 -89.9" fill="#53825b" fill-rule="evenodd" stroke="none"/>
  </g>
</svg>
