<?xml version="1.0" encoding="UTF-8" standalone="no"?>
<svg xmlns:ffdec="https://www.free-decompiler.com/flash" xmlns:xlink="http://www.w3.org/1999/xlink" ffdec:objectType="shape" height="226.3px" width="107.35px" xmlns="http://www.w3.org/2000/svg">
  <g transform="matrix(1.0, 0.0, 0.0, 1.0, -24.95, -29.9)">
    <path d="M95.5 38.1 L93.75 33.5 85.6 37.5 82.7 37.3 81.05 35.85 79.1 37.2 69.8 35.1 69.1 35.0 49.9 32.1 Q48.25 34.1 46.5 38.4 44.85 42.5 44.85 44.2 44.85 48.45 45.9 51.35 47.15 54.95 50.2 57.7 59.0 62.05 61.15 62.6 L76.7 63.45 Q92.0 63.45 107.25 53.1 108.85 53.9 110.35 53.95 112.15 53.95 113.6 50.6 115.35 46.65 115.35 43.35 115.35 41.5 113.9 39.75 112.35 37.9 110.4 37.9 L110.35 37.9 Q108.1 37.9 104.8 38.85 L95.5 38.1 M28.6 203.65 Q27.9 200.0 27.9 198.7 27.9 196.7 28.55 194.35 29.25 191.8 30.25 190.95 L30.15 152.55 30.9 147.4 31.2 143.3 30.95 132.25 Q32.15 128.35 32.15 124.5 32.15 121.15 30.1 116.3 L30.1 116.25 30.05 96.8 Q31.15 95.35 31.75 93.0 L32.3 92.3 Q33.85 90.45 33.85 87.0 33.85 83.05 31.7 75.3 L31.05 72.25 Q32.35 66.85 32.6 63.15 33.75 61.15 35.05 56.6 37.05 49.7 37.05 48.1 L36.6 41.3 35.8 32.15 35.75 31.45 36.45 30.15 45.0 29.9 46.0 30.15 51.15 30.65 57.45 31.0 Q81.55 31.0 89.95 30.25 L110.35 31.9 115.95 33.1 115.0 34.7 117.4 36.1 117.05 36.9 117.25 40.9 Q118.15 42.95 119.0 47.4 119.0 49.2 118.25 51.7 L116.9 55.05 Q113.65 52.3 111.85 62.9 L111.8 63.2 Q111.3 64.75 111.2 67.15 L111.15 68.05 Q110.45 74.5 110.4 83.0 L110.35 85.4 Q110.35 86.5 111.1 92.45 111.95 99.35 112.75 103.25 L112.4 105.15 Q112.05 107.2 112.05 107.8 112.05 108.5 113.5 112.45 114.95 116.4 114.95 118.1 L113.3 125.6 Q111.6 132.55 111.6 133.05 L112.25 134.55 Q113.15 136.45 114.1 140.5 L114.1 139.15 115.35 157.6 114.15 176.05 113.3 175.55 111.6 180.35 110.55 182.85 Q111.6 185.5 111.85 188.15 L111.95 187.05 112.45 189.35 112.95 192.35 Q112.95 192.85 112.0 193.1 111.0 193.3 111.0 193.8 111.0 198.5 113.9 207.0 116.75 215.5 116.75 222.7 L114.7 231.45 Q112.6 240.5 112.6 242.45 112.6 243.45 114.2 244.0 L111.0 248.35 107.45 251.6 88.65 254.75 69.9 255.65 51.4 255.55 50.75 255.5 45.85 255.1 Q40.75 254.45 37.6 253.15 32.4 250.9 30.05 245.85 27.65 240.65 27.65 230.95 27.65 226.95 28.6 219.85 L33.85 249.15 31.7 204.45 28.6 203.65 M106.65 68.5 L106.55 68.2 Q107.8 66.0 107.15 64.2 104.6 60.45 102.6 59.75 101.0 59.2 99.05 60.55 L95.2 63.45 Q92.6 65.2 89.85 65.35 L78.1 66.95 52.55 66.0 Q47.5 66.0 43.95 70.8 40.4 75.55 40.4 82.3 40.2 84.65 41.2 86.6 42.15 88.55 43.8 89.3 L45.3 91.85 Q41.55 91.85 38.95 93.9 36.3 95.9 36.3 98.75 L31.65 111.75 38.3 114.8 39.45 116.85 Q40.95 119.15 42.75 121.1 48.45 127.2 55.15 127.2 54.8 127.2 55.2 126.0 55.7 124.4 54.8 123.0 L57.9 122.4 Q64.8 122.4 69.6 121.15 L76.6 119.55 98.25 118.4 100.75 121.4 91.0 121.9 Q79.85 122.25 73.1 127.7 67.15 132.5 67.15 138.8 67.15 139.8 69.7 141.6 L68.55 143.9 Q67.35 147.55 67.15 154.4 66.4 154.85 65.85 155.45 65.3 155.95 65.3 156.2 L66.2 158.9 67.7 162.8 63.2 162.05 57.95 161.25 Q57.35 161.25 56.9 162.5 L56.6 163.7 Q59.9 166.4 66.55 167.55 72.5 168.55 73.8 167.65 L77.9 168.75 82.85 169.6 Q104.9 169.6 109.25 167.2 111.65 165.9 112.2 163.0 112.5 161.5 112.5 155.65 111.05 149.05 110.6 145.9 L109.6 132.15 108.45 84.9 106.65 68.5 M52.95 130.35 Q51.35 132.35 51.35 135.25 51.35 138.15 52.95 140.2 54.55 142.2 56.8 142.2 59.05 142.2 60.65 140.2 62.25 138.15 62.25 135.25 62.25 132.35 60.65 130.35 59.05 128.3 56.8 128.3 54.55 128.3 52.95 130.35 M37.75 130.05 Q37.1 137.9 42.15 137.9 43.45 137.9 44.95 132.6 44.95 129.9 41.05 129.8 L38.25 129.65 38.15 129.65 37.85 130.0 37.15 129.8 37.75 130.05 M55.05 145.85 Q54.3 145.1 53.25 145.1 52.2 145.1 51.45 145.85 50.7 146.6 50.7 147.65 50.7 148.7 51.45 149.45 52.2 150.2 53.25 150.2 54.3 150.2 55.05 149.45 55.8 148.7 55.8 147.65 55.8 146.6 55.05 145.85 M49.55 177.8 Q48.3 175.95 45.6 173.85 43.95 172.55 42.45 171.8 47.2 173.3 52.4 174.3 L61.45 175.4 67.1 175.05 Q70.55 174.35 69.85 172.45 L36.45 163.1 34.85 164.7 Q33.25 166.4 33.25 167.0 33.25 167.5 34.3 169.15 35.3 170.75 35.3 171.25 35.3 171.75 33.6 172.75 31.9 173.7 31.9 174.2 L32.5 175.8 Q33.05 176.85 33.05 177.35 L32.65 179.3 32.25 181.2 Q32.25 188.6 42.5 196.45 46.2 199.3 50.2 201.35 53.8 203.15 55.15 203.15 55.95 198.1 55.95 195.8 55.95 190.6 54.3 186.45 L50.55 179.2 58.8 181.7 Q58.35 182.95 57.05 189.55 57.05 193.6 59.2 198.1 61.1 202.15 62.85 203.2 L60.75 203.75 Q58.65 204.45 58.65 205.05 L58.75 207.05 68.65 208.1 Q66.05 213.95 61.25 218.35 L56.95 221.6 59.95 209.9 Q53.8 212.3 52.8 212.3 L47.95 210.8 Q43.6 209.25 43.1 209.25 L39.6 209.75 36.8 210.2 Q36.65 219.1 39.15 227.25 41.95 236.5 46.2 236.5 46.85 236.5 47.75 235.15 L49.2 232.75 Q49.8 231.65 49.8 230.8 49.8 229.65 49.0 226.5 L55.55 223.6 Q54.3 226.6 51.85 238.9 L51.9 241.15 40.9 242.7 Q41.95 246.3 48.45 249.15 56.95 252.9 71.0 252.9 L97.3 250.0 Q98.3 250.0 99.15 251.55 L110.8 238.5 109.7 238.0 Q111.05 237.0 111.75 218.9 L112.6 220.25 113.25 218.05 113.55 216.0 Q113.55 214.65 111.65 207.75 108.55 196.55 106.3 187.1 L106.1 187.0 105.95 186.85 105.9 186.4 105.9 186.0 102.05 177.1 Q101.85 176.25 103.4 174.95 L104.4 174.3 103.8 173.45 Q100.3 172.3 99.45 172.3 94.55 172.3 85.15 174.65 75.2 177.15 72.65 177.3 65.95 177.65 56.1 177.4 L50.5 177.4 Q49.7 177.45 49.55 177.8 M96.25 129.85 L95.9 129.65 95.75 129.05 Q95.75 128.7 95.9 128.5 96.05 128.25 96.25 128.25 L96.6 128.5 96.75 129.05 96.6 129.65 96.25 129.85 M82.75 223.8 L83.1 223.35 82.25 225.75 82.75 223.8 M50.75 222.1 L49.1 218.85 52.45 218.85 50.75 222.1" fill="#452f14" fill-rule="evenodd" stroke="none"/>
    <path d="M85.6 37.5 L93.75 33.5 95.5 38.1 85.6 37.5 M104.8 38.85 Q108.1 37.9 110.35 37.9 L110.4 37.9 Q112.35 37.9 113.9 39.75 115.35 41.5 115.35 43.35 115.35 46.65 113.6 50.6 112.15 53.95 110.35 53.95 108.85 53.9 107.25 53.1 L109.05 51.1 110.35 48.8 112.2 40.5 110.35 39.9 104.8 38.85 M50.2 57.7 Q47.15 54.95 45.9 51.35 44.85 48.45 44.85 44.2 44.85 42.5 46.5 38.4 48.25 34.1 49.9 32.1 L69.1 35.0 Q63.7 34.35 57.1 37.05 50.6 39.75 49.3 42.6 L49.2 43.6 50.4 49.7 Q51.35 56.1 50.2 57.7 M79.1 37.2 L81.05 35.85 82.7 37.3 79.1 37.2 M106.55 68.2 L106.65 68.5 106.4 68.3 106.55 68.2 M40.4 82.3 Q40.4 75.55 43.95 70.8 47.5 66.0 52.55 66.0 L50.0 67.55 47.75 68.8 47.65 69.05 Q41.6 74.15 40.4 82.3 M78.1 66.95 L89.85 65.35 87.65 67.2 84.7 67.45 78.1 66.95" fill="#4a3222" fill-rule="evenodd" stroke="none"/>
    <path d="M95.5 38.1 L104.8 38.85 110.35 39.9 112.2 40.5 110.35 48.8 109.05 51.1 107.25 53.1 Q92.0 63.45 76.7 63.45 L61.15 62.6 Q59.0 62.05 50.2 57.7 51.35 56.1 50.4 49.7 L49.2 43.6 50.15 43.2 54.95 42.95 59.7 41.35 67.45 42.75 74.45 44.1 97.3 45.1 98.15 41.95 Q76.85 39.45 73.5 38.0 72.4 37.5 53.8 41.6 62.7 37.6 59.2 38.4 55.0 39.35 53.85 39.9 L49.3 42.6 Q50.6 39.75 57.1 37.05 63.7 34.35 69.1 35.0 L69.8 35.1 79.1 37.2 82.7 37.3 85.6 37.5 95.5 38.1 M107.85 39.55 Q106.9 39.55 106.2 40.25 105.5 40.95 105.5 41.95 105.5 42.95 106.2 43.65 106.9 44.35 107.85 44.35 108.8 44.35 109.5 43.65 110.2 42.95 110.2 41.95 110.2 40.95 109.5 40.25 108.8 39.55 107.85 39.55 M106.65 68.5 L108.45 84.9 109.6 132.15 106.75 127.85 Q106.3 129.1 105.6 132.1 104.75 135.9 104.75 138.05 L105.5 142.3 Q106.95 146.35 110.6 145.9 111.05 149.05 112.5 155.65 112.5 161.5 112.2 163.0 111.65 165.9 109.25 167.2 104.9 169.6 82.85 169.6 L77.9 168.75 73.8 167.65 Q76.35 168.0 78.4 167.05 L79.95 166.05 67.15 154.4 Q67.35 147.55 68.55 143.9 L69.7 141.6 Q67.15 139.8 67.15 138.8 67.15 132.5 73.1 127.7 79.85 122.25 91.0 121.9 L79.6 125.4 82.5 127.5 101.55 127.55 102.5 123.25 Q102.5 122.5 102.0 121.95 101.45 121.4 100.75 121.4 L98.25 118.4 76.6 119.55 41.25 116.3 Q39.9 115.3 39.9 114.3 L40.1 113.75 38.3 114.8 31.65 111.75 36.3 98.75 36.8 99.6 38.0 100.45 Q43.95 100.45 47.0 96.95 48.4 95.3 49.5 91.9 L45.3 91.85 43.8 89.3 Q45.35 84.75 45.65 82.5 L45.6 81.2 49.7 75.75 51.6 76.85 50.45 78.65 Q49.25 80.6 49.25 81.2 49.25 82.2 50.85 83.4 L55.85 81.3 Q62.4 83.65 63.4 83.65 63.9 83.65 66.45 81.25 68.95 78.8 69.45 78.8 70.45 78.8 72.15 79.75 L67.75 82.9 73.7 85.4 73.1 90.1 Q73.1 96.75 75.1 99.15 76.7 101.05 80.55 101.05 82.95 101.05 87.75 98.6 92.6 96.15 94.5 96.15 95.5 96.15 99.2 98.1 99.85 96.3 99.85 94.75 99.85 93.35 96.4 90.05 92.95 86.75 92.95 82.55 L95.6 79.6 Q98.2 76.75 98.25 74.55 105.95 69.3 106.3 68.3 L106.4 68.3 106.65 68.5 M57.9 122.4 L54.8 123.0 53.7 121.55 57.9 122.4 M52.55 66.0 L78.1 66.95 84.7 67.45 Q80.65 69.0 74.35 69.7 L65.8 70.2 52.9 69.65 52.65 67.5 50.0 67.55 52.55 66.0 M89.85 65.35 Q92.6 65.2 95.2 63.45 L99.05 60.55 Q101.0 59.2 102.6 59.75 104.6 60.45 107.15 64.2 106.4 64.15 104.3 65.1 102.0 66.1 101.2 67.1 L101.0 67.1 97.65 66.3 94.7 65.85 91.05 66.4 87.65 67.2 89.85 65.35 M86.2 84.15 Q86.95 84.9 86.95 86.0 86.95 87.1 86.2 87.85 85.45 88.6 84.35 88.6 83.25 88.6 82.5 87.85 81.75 87.1 81.75 86.0 81.75 84.9 82.5 84.15 83.25 83.4 84.35 83.4 85.45 83.4 86.2 84.15 M78.35 107.95 Q76.95 107.15 75.0 107.15 73.05 107.15 71.65 107.95 70.25 108.7 70.25 109.8 70.25 110.9 71.65 111.7 73.05 112.45 75.0 112.45 76.95 112.45 78.35 111.7 79.75 110.9 79.75 109.8 79.75 108.7 78.35 107.95 M52.95 130.35 Q54.55 128.3 56.8 128.3 59.05 128.3 60.65 130.35 62.25 132.35 62.25 135.25 62.25 138.15 60.65 140.2 59.05 142.2 56.8 142.2 54.55 142.2 52.95 140.2 51.35 138.15 51.35 135.25 51.35 132.35 52.95 130.35 M37.85 130.0 L37.75 130.05 37.15 129.8 37.85 130.0 M50.55 179.2 L49.55 177.8 Q49.7 177.45 50.5 177.4 L56.1 177.4 Q65.95 177.65 72.65 177.3 75.2 177.15 85.15 174.65 94.55 172.3 99.45 172.3 100.3 172.3 103.8 173.45 L104.4 174.3 103.4 174.95 Q101.85 176.25 102.05 177.1 L100.75 178.05 61.95 181.6 61.95 185.35 69.6 185.5 86.4 184.25 Q102.4 183.65 105.9 186.4 L105.95 186.85 106.1 187.0 106.3 187.1 Q108.55 196.55 111.65 207.75 113.55 214.65 113.55 216.0 L113.25 218.05 112.6 220.25 111.75 218.9 Q111.05 237.0 109.7 238.0 L110.8 238.5 99.15 251.55 Q98.3 250.0 97.3 250.0 L71.0 252.9 Q56.95 252.9 48.45 249.15 41.95 246.3 40.9 242.7 L51.9 241.15 51.85 238.9 Q54.3 226.6 55.55 223.6 L56.95 221.6 61.25 218.35 Q66.05 213.95 68.65 208.1 L58.75 207.05 58.65 205.05 Q58.65 204.45 60.75 203.75 L62.85 203.2 Q61.1 202.15 59.2 198.1 57.05 193.6 57.05 189.55 58.35 182.95 58.8 181.7 L50.55 179.2 M71.95 196.2 Q71.95 200.3 75.6 202.9 79.35 205.6 85.65 205.7 L89.0 205.7 89.05 204.0 Q89.1 202.3 89.3 202.3 L76.05 200.6 Q76.05 198.25 78.5 196.1 81.65 193.3 82.2 192.25 L73.45 190.2 Q72.85 191.55 72.35 193.55 L71.95 196.2 M96.25 129.85 L96.6 129.65 96.75 129.05 96.6 128.5 96.25 128.25 Q96.05 128.25 95.9 128.5 95.75 128.7 95.75 129.05 L95.9 129.65 96.25 129.85 M82.75 223.8 L82.25 225.75 83.1 223.35 Q65.85 229.75 75.1 226.0 L83.95 222.4 Q82.8 220.1 79.75 218.65 77.3 217.5 75.5 217.5 74.9 217.5 65.75 220.45 L56.7 223.4 57.95 227.7 61.35 227.25 60.15 228.7 Q58.9 230.3 58.9 230.9 58.9 231.9 82.75 223.8" fill="#593a28" fill-rule="evenodd" stroke="none"/>
    <path d="M49.3 42.6 L53.85 39.9 Q55.0 39.35 59.2 38.4 62.7 37.6 53.8 41.6 72.4 37.5 73.5 38.0 76.85 39.45 98.15 41.95 L97.3 45.1 74.45 44.1 67.45 42.75 59.7 41.35 54.95 42.95 50.15 43.2 49.2 43.6 49.3 42.6 M107.85 39.55 Q108.8 39.55 109.5 40.25 110.2 40.95 110.2 41.95 110.2 42.95 109.5 43.65 108.8 44.35 107.85 44.35 106.9 44.35 106.2 43.65 105.5 42.95 105.5 41.95 105.5 40.95 106.2 40.25 106.9 39.55 107.85 39.55 M91.0 121.9 L100.75 121.4 Q101.45 121.4 102.0 121.95 102.5 122.5 102.5 123.25 L82.5 127.5 79.6 125.4 91.0 121.9 M36.3 98.75 Q36.3 95.9 38.95 93.9 41.55 91.85 45.3 91.85 L49.5 91.9 Q48.4 95.3 47.0 96.95 43.95 100.45 38.0 100.45 L36.8 99.6 36.3 98.75 M43.8 89.3 Q42.15 88.55 41.2 86.6 40.2 84.65 40.4 82.3 41.6 74.15 47.65 69.05 L47.75 68.8 50.0 67.55 52.65 67.5 52.9 69.65 65.8 70.2 74.35 69.7 Q80.65 69.0 84.7 67.45 L87.65 67.2 91.05 66.4 94.7 65.85 97.65 66.3 101.0 67.1 55.9 74.15 55.85 81.3 50.85 83.4 Q49.25 82.2 49.25 81.2 49.25 80.6 50.45 78.65 L51.6 76.85 49.7 75.75 45.6 81.2 45.65 82.5 Q45.35 84.75 43.8 89.3 M107.15 64.2 Q107.8 66.0 106.55 68.2 L106.4 68.3 106.3 68.3 101.2 67.1 Q102.0 66.1 104.3 65.1 106.4 64.15 107.15 64.2 M102.05 177.1 L105.9 186.0 105.9 186.4 Q102.4 183.65 86.4 184.25 L69.6 185.5 61.95 185.35 61.95 181.6 100.75 178.05 102.05 177.1 M83.1 223.35 L82.75 223.8 Q58.9 231.9 58.9 230.9 58.9 230.3 60.15 228.7 L61.35 227.25 57.95 227.7 56.7 223.4 65.75 220.45 Q74.9 217.5 75.5 217.5 77.3 217.5 79.75 218.65 82.8 220.1 83.95 222.4 L75.1 226.0 Q65.85 229.75 83.1 223.35" fill="#5c4727" fill-rule="evenodd" stroke="none"/>
    <path d="M117.05 36.9 L117.4 37.75 117.25 40.9 117.05 36.9 M45.85 255.1 L34.15 255.6 34.15 256.2 26.55 253.6 26.85 252.0 29.8 252.4 Q28.75 249.15 27.0 240.5 24.95 230.35 24.95 226.3 26.3 211.7 28.6 203.65 L31.7 204.45 33.85 249.15 28.6 219.85 Q27.65 226.95 27.65 230.95 27.65 240.65 30.05 245.85 32.4 250.9 37.6 253.15 40.75 254.45 45.85 255.1" fill="#61421d" fill-rule="evenodd" stroke="none"/>
    <path d="M109.6 132.15 L110.6 145.9 Q106.95 146.35 105.5 142.3 L104.75 138.05 Q104.75 135.9 105.6 132.1 106.3 129.1 106.75 127.85 L109.6 132.15 M106.3 68.3 Q105.95 69.3 98.25 74.55 98.2 76.75 95.6 79.6 L92.95 82.55 Q92.95 86.75 96.4 90.05 99.85 93.35 99.85 94.75 99.85 96.3 99.2 98.1 95.5 96.15 94.5 96.15 92.6 96.15 87.75 98.6 82.95 101.05 80.55 101.05 76.7 101.05 75.1 99.15 73.1 96.75 73.1 90.1 L73.7 85.4 67.75 82.9 72.15 79.75 Q70.45 78.8 69.45 78.8 68.95 78.8 66.45 81.25 63.9 83.65 63.4 83.65 62.4 83.65 55.85 81.3 L55.9 74.15 101.0 67.1 101.2 67.1 106.3 68.3 M86.2 84.15 Q85.45 83.4 84.35 83.4 83.25 83.4 82.5 84.15 81.75 84.9 81.75 86.0 81.75 87.1 82.5 87.85 83.25 88.6 84.35 88.6 85.45 88.6 86.2 87.85 86.95 87.1 86.95 86.0 86.95 84.9 86.2 84.15 M71.95 196.2 L72.35 193.55 Q72.85 191.55 73.45 190.2 L82.2 192.25 Q81.65 193.3 78.5 196.1 76.05 198.25 76.05 200.6 L89.3 202.3 Q89.1 202.3 89.05 204.0 L89.0 205.7 85.65 205.7 Q79.35 205.6 75.6 202.9 71.95 200.3 71.95 196.2 M82.5 127.5 L102.5 123.25 101.55 127.55 82.5 127.5" fill="#5a3c29" fill-rule="evenodd" stroke="none"/>
    <path d="M73.8 167.65 Q72.5 168.55 66.55 167.55 59.9 166.4 56.6 163.7 L56.9 162.5 Q57.35 161.25 57.95 161.25 L63.2 162.05 67.7 162.8 66.2 158.9 65.3 156.2 Q65.3 155.95 65.85 155.45 66.4 154.85 67.15 154.4 L79.95 166.05 78.4 167.05 Q76.35 168.0 73.8 167.65 M76.6 119.55 L69.6 121.15 Q64.8 122.4 57.9 122.4 L53.7 121.55 54.8 123.0 Q55.7 124.4 55.2 126.0 54.8 127.2 55.15 127.2 48.45 127.2 42.75 121.1 40.95 119.15 39.45 116.85 L38.3 114.8 40.1 113.75 39.9 114.3 Q39.9 115.3 41.25 116.3 L76.6 119.55 M78.35 107.95 Q79.75 108.7 79.75 109.8 79.75 110.9 78.35 111.7 76.95 112.45 75.0 112.45 73.05 112.45 71.65 111.7 70.25 110.9 70.25 109.8 70.25 108.7 71.65 107.95 73.05 107.15 75.0 107.15 76.95 107.15 78.35 107.95 M37.85 130.0 L38.15 129.65 38.25 129.65 41.05 129.8 Q44.95 129.9 44.95 132.6 43.45 137.9 42.15 137.9 37.1 137.9 37.75 130.05 L37.85 130.0 M55.05 145.85 Q55.8 146.6 55.8 147.65 55.8 148.7 55.05 149.45 54.3 150.2 53.25 150.2 52.2 150.2 51.45 149.45 50.7 148.7 50.7 147.65 50.7 146.6 51.45 145.85 52.2 145.1 53.25 145.1 54.3 145.1 55.05 145.85 M50.55 179.2 L54.3 186.45 Q55.95 190.6 55.95 195.8 55.95 198.1 55.15 203.15 53.8 203.15 50.2 201.35 46.2 199.3 42.5 196.45 32.25 188.6 32.25 181.2 L32.65 179.3 33.05 177.35 Q33.05 176.85 32.5 175.8 L31.9 174.2 Q31.9 173.7 33.6 172.75 35.3 171.75 35.3 171.25 35.3 170.75 34.3 169.15 33.25 167.5 33.25 167.0 33.25 166.4 34.85 164.7 L36.45 163.1 69.85 172.45 Q70.55 174.35 67.1 175.05 L61.45 175.4 52.4 174.3 Q47.2 173.3 42.45 171.8 43.95 172.55 45.6 173.85 48.3 175.95 49.55 177.8 L50.55 179.2 M55.55 223.6 L49.0 226.5 Q49.8 229.65 49.8 230.8 49.8 231.65 49.2 232.75 L47.75 235.15 Q46.85 236.5 46.2 236.5 41.95 236.5 39.15 227.25 36.65 219.1 36.8 210.2 L39.6 209.75 43.1 209.25 Q43.6 209.25 47.95 210.8 L52.8 212.3 Q53.8 212.3 59.95 209.9 L56.95 221.6 55.55 223.6 M50.75 222.1 L52.45 218.85 49.1 218.85 50.75 222.1" fill="#4a3122" fill-rule="evenodd" stroke="none"/>
    <path d="M111.0 248.35 L112.6 250.1 107.45 251.6 111.0 248.35 M115.25 109.85 L116.7 112.35 115.9 112.0 115.3 110.35 115.25 109.85 M132.25 238.9 L132.3 239.05 132.3 239.3 132.25 238.9" fill="#896835" fill-rule="evenodd" stroke="none"/>
  </g>
</svg>
