<?xml version="1.0" encoding="UTF-8" standalone="no"?>
<svg xmlns:ffdec="https://www.free-decompiler.com/flash" xmlns:xlink="http://www.w3.org/1999/xlink" ffdec:objectType="shape" height="176.2px" width="127.8px" xmlns="http://www.w3.org/2000/svg">
  <g transform="matrix(1.0, 0.0, 0.0, 1.0, 69.35, 60.4)">
    <path d="M-24.05 -50.15 Q-23.6 -51.45 -22.4 -52.45 -15.85 -58.0 -7.5 -59.35 L-6.0 -59.55 Q-3.55 -60.95 0.5 -60.1 20.45 -59.3 31.0 -43.05 L34.55 -37.55 Q46.65 -18.6 50.85 3.05 L51.05 4.05 Q55.2 21.1 54.25 38.55 L55.1 39.45 54.75 40.8 54.4 42.05 52.5 46.4 49.85 51.45 46.6 57.35 Q44.55 60.85 41.8 63.85 L37.9 67.75 Q34.5 70.95 29.7 71.5 26.8 71.4 24.2 72.45 7.95 68.95 -5.85 57.1 -18.45 46.2 -26.0 32.55 -32.2 21.45 -35.0 8.45 L-36.1 8.4 -36.25 7.8 -36.45 8.2 -36.45 7.35 -36.55 6.6 Q-37.75 7.05 -38.45 8.0 L-38.55 7.7 -38.45 7.4 -38.1 7.1 Q-42.05 6.65 -45.85 7.05 L-50.25 7.75 -54.15 7.3 Q-56.65 6.3 -58.55 4.15 -59.8 2.8 -60.3 0.95 -61.8 -4.5 -58.85 -9.6 L-56.05 -13.55 Q-54.55 -15.35 -52.6 -16.55 -50.75 -17.65 -48.65 -18.15 -44.95 -18.8 -41.35 -17.65 -40.45 -16.0 -38.9 -14.6 L-37.6 -13.8 -37.0 -14.2 -36.3 -17.85 -36.95 -19.05 -36.05 -18.25 -35.85 -19.0 -35.6 -19.7 -33.8 -22.6 -32.25 -24.25 -28.35 -27.15 -24.05 -50.15 M-47.4 -12.4 L-47.8 -13.3 Q-48.8 -14.45 -50.75 -14.35 L-51.45 -14.15 -52.05 -14.4 -52.95 -14.1 Q-53.35 -14.25 -53.55 -13.9 L-53.75 -13.15 -52.85 -11.65 -53.0 -11.4 Q-54.15 -8.45 -54.25 -5.05 -54.4 -1.55 -52.1 1.1 L-46.95 0.9 -46.75 0.95 Q-46.0 1.15 -45.25 0.45 L-45.2 -0.2 Q-43.95 -1.3 -42.85 -3.0 -40.85 -6.4 -42.0 -9.55 L-43.1 -10.15 -43.75 -10.4 -44.55 -11.05 -45.3 -11.45 -47.4 -12.4 M-9.95 -10.15 L-10.45 -10.0 -9.95 -10.0 -9.95 -10.15 M-6.2 -9.85 L-6.25 -9.85 -6.2 -9.8 -6.2 -9.85 M-2.45 -11.9 L-1.8 -11.4 Q-1.45 -11.55 -1.0 -11.85 L-2.3 -12.25 -2.45 -11.9 M-24.1 -50.1 Q-24.75 -47.05 -24.3 -49.35 L-24.1 -50.1 M-37.3 37.7 L-31.55 49.25 Q-29.8 53.95 -27.4 58.7 L-20.0 72.15 -9.8 91.0 -11.95 99.1 -12.45 99.45 -12.55 99.4 -12.9 99.8 -14.2 101.05 Q-15.85 103.3 -16.7 105.25 L-18.65 106.9 Q-22.65 105.5 -26.0 103.15 -29.6 100.7 -32.05 97.1 -34.8 93.05 -35.85 88.2 -36.75 83.9 -36.65 79.5 L-36.5 71.5 -36.4 63.05 -36.45 54.55 -36.75 46.15 -37.3 37.7 M43.45 47.95 L43.75 47.4 44.15 47.5 Q45.75 47.5 47.3 45.15 48.6 43.15 48.6 42.15 48.6 41.0 47.85 39.9 L47.65 39.6 47.65 39.4 46.6 38.55 46.45 38.35 46.35 38.3 46.15 38.1 Q45.1 37.15 43.45 37.05 L38.9 37.8 35.15 37.2 31.75 36.0 Q30.0 35.35 23.25 37.8 19.7 38.7 16.7 40.85 L16.2 41.2 14.6 42.35 Q10.6 45.3 10.6 46.3 L10.65 46.5 10.55 46.7 10.0 46.9 9.95 47.0 10.85 47.45 11.6 47.9 15.6 51.45 Q16.5 52.35 19.5 54.65 L21.3 56.15 22.5 56.5 26.35 57.35 Q31.8 58.1 35.6 56.3 37.85 55.5 39.95 53.9 43.45 51.25 43.45 49.1 L43.45 48.35 43.5 48.35 43.45 48.05 43.45 47.95" fill="#c7a36d" fill-rule="evenodd" stroke="none"/>
    <path d="M-39.35 -51.85 Q-38.1 -51.05 -35.15 -51.9 -32.25 -52.8 -29.5 -51.25 L-30.25 -43.05 Q-30.9 -40.75 -31.2 -38.1 L-31.45 -35.55 Q-32.0 -32.25 -32.15 -29.15 -32.5 -27.65 -32.35 -26.05 L-32.3 -25.45 -32.25 -24.25 -33.8 -22.6 -39.1 -25.2 -39.7 -24.15 -39.75 -23.55 Q-39.65 -22.7 -40.15 -22.65 L-40.3 -22.65 -40.85 -23.05 Q-43.1 -24.55 -45.65 -25.25 L-44.75 -26.2 Q-43.85 -27.35 -43.7 -28.75 L-43.25 -34.7 -42.95 -36.75 -42.65 -39.5 -40.85 -41.95 -39.35 -51.85" fill="#003366" fill-rule="evenodd" stroke="none"/>
    <path d="M55.1 39.45 Q55.15 41.0 57.0 41.65 L58.45 42.35 Q52.85 52.9 45.6 62.6 42.15 67.15 38.35 71.3 L35.6 74.45 31.95 78.2 30.65 79.2 25.4 79.6 22.5 79.8 17.5 79.05 12.95 78.1 Q8.35 76.95 4.0 75.2 L0.15 73.65 -3.65 88.05 -4.2 90.55 Q-4.7 93.0 -5.55 95.1 L-7.85 100.55 -8.45 102.05 Q-9.5 104.4 -10.85 106.6 L-11.5 107.65 -15.05 113.05 -14.55 111.15 Q-16.85 113.4 -20.05 114.4 L-25.5 115.45 -30.25 115.8 -32.8 115.25 -37.25 114.6 Q-40.2 114.05 -42.3 111.85 L-44.4 109.4 -46.1 106.6 Q-47.2 104.7 -47.75 102.7 L-48.5 98.7 Q-48.6 96.9 -49.1 95.15 -50.05 91.85 -50.15 88.5 -50.55 76.9 -49.75 65.2 -49.2 56.55 -48.1 47.9 L-47.85 44.8 -47.75 41.95 -47.85 37.75 -48.0 36.1 Q-48.75 31.35 -48.15 26.55 L-49.95 16.75 -51.05 16.95 Q-54.25 17.2 -57.1 15.6 -59.1 14.4 -60.7 12.45 L-61.05 12.3 Q-65.3 9.8 -67.5 5.75 -68.45 4.0 -68.85 2.15 -69.75 -2.15 -68.95 -6.55 -68.0 -11.85 -64.9 -16.3 -63.55 -18.25 -61.75 -19.85 -59.9 -21.45 -57.75 -22.6 L-52.9 -24.75 -52.95 -24.95 Q-54.5 -29.9 -54.05 -35.05 -53.5 -41.05 -50.1 -52.8 L-39.35 -51.85 -40.85 -41.95 -42.65 -39.5 -42.95 -36.75 -43.25 -34.7 -43.7 -28.75 Q-43.85 -27.35 -44.75 -26.2 L-45.65 -25.25 Q-43.1 -24.55 -40.85 -23.05 L-40.3 -22.65 -40.15 -22.65 Q-39.65 -22.7 -39.75 -23.55 L-39.7 -24.15 -39.1 -25.2 -33.8 -22.6 -35.6 -19.7 -35.85 -19.0 -36.05 -18.25 -36.95 -19.05 -36.3 -17.85 -37.0 -14.2 -37.6 -13.8 -38.9 -14.6 Q-40.45 -16.0 -41.35 -17.65 -44.95 -18.8 -48.65 -18.15 -50.75 -17.65 -52.6 -16.55 -54.55 -15.35 -56.05 -13.55 L-58.85 -9.6 Q-61.8 -4.5 -60.3 0.95 -59.8 2.8 -58.55 4.15 -56.65 6.3 -54.15 7.3 L-50.25 7.75 -45.85 7.05 Q-42.05 6.65 -38.1 7.1 L-38.45 7.4 -38.55 7.7 -38.45 8.0 -38.2 8.6 -37.15 8.1 -37.05 8.4 -36.5 10.1 Q-34.15 19.15 -30.55 27.6 -28.85 31.65 -26.5 35.7 -23.8 40.45 -20.55 44.65 L-16.0 50.0 -11.1 55.05 -6.4 59.05 -1.65 62.55 2.6 65.4 Q4.0 66.3 5.6 67.0 9.85 68.9 14.35 70.45 L20.9 72.45 22.95 72.8 24.2 72.45 Q26.8 71.4 29.7 71.5 34.5 70.95 37.9 67.75 L41.8 63.85 Q44.55 60.85 46.6 57.35 L49.85 51.45 52.5 46.4 54.4 42.05 54.75 40.8 55.1 39.45 M-29.5 -51.25 L-23.8 -51.4 -23.95 -50.8 -24.1 -50.1 -24.05 -50.15 -28.35 -27.15 -32.25 -24.25 -32.3 -25.45 -32.35 -26.05 Q-32.5 -27.65 -32.15 -29.15 -32.0 -32.25 -31.45 -35.55 L-31.2 -38.1 Q-30.9 -40.75 -30.25 -43.05 L-29.5 -51.25 M-47.4 -12.4 L-45.3 -11.45 -44.55 -11.05 -43.75 -10.4 Q-41.9 -8.7 -42.15 -6.45 L-43.1 -6.05 Q-43.9 -4.6 -44.35 -2.85 -45.0 -1.75 -45.2 -0.2 L-45.25 0.45 Q-46.0 1.15 -46.75 0.95 L-46.95 0.9 -48.15 0.15 Q-49.5 -2.5 -47.95 -4.75 L-46.45 -6.6 Q-48.1 -7.05 -49.1 -8.05 -51.3 -9.4 -52.65 -11.35 L-52.85 -11.65 -53.75 -13.15 -53.55 -13.9 Q-53.35 -14.25 -52.95 -14.1 L-52.05 -14.4 -51.45 -14.15 -47.4 -12.4 M-6.2 -9.85 L-6.2 -9.8 -6.25 -9.85 -6.2 -9.85 M-9.95 -10.15 L-9.95 -10.0 -10.45 -10.0 -9.95 -10.15 M-24.1 -50.1 L-24.3 -49.35 Q-24.75 -47.05 -24.1 -50.1 M-9.8 91.0 L-5.85 70.45 -12.5 65.85 -20.55 59.9 Q-23.9 57.4 -26.65 54.2 L-30.55 49.0 -33.95 43.5 -35.8 40.05 -36.15 39.25 -36.95 37.8 -37.3 37.7 -36.75 46.15 -36.45 54.55 -36.4 63.05 -36.5 71.5 -36.65 79.5 Q-36.75 83.9 -35.85 88.2 -34.8 93.05 -32.05 97.1 -29.6 100.7 -26.0 103.15 -22.65 105.5 -18.65 106.9 L-16.7 105.25 -12.9 99.8 -12.55 99.4 -12.45 99.45 -12.2 99.4 -11.95 99.1 -9.8 91.0 M-40.8 12.95 L-40.65 12.5 -41.65 13.2 -40.8 12.95" fill="#111111" fill-rule="evenodd" stroke="none"/>
    <path d="M-38.45 8.0 Q-37.75 7.05 -36.55 6.6 L-36.45 7.35 -36.45 8.2 -36.25 7.8 -36.1 8.4 -35.0 8.45 Q-32.2 21.45 -26.0 32.55 -18.45 46.2 -5.85 57.1 7.95 68.95 24.2 72.45 L22.95 72.8 20.9 72.45 14.35 70.45 Q9.85 68.9 5.6 67.0 4.0 66.3 2.6 65.4 L-1.65 62.55 -6.4 59.05 -11.1 55.05 -16.0 50.0 -20.55 44.65 Q-23.8 40.45 -26.5 35.7 -28.85 31.65 -30.55 27.6 -34.15 19.15 -36.5 10.1 L-37.05 8.4 -37.15 8.1 -38.2 8.6 -38.45 8.0 M-51.45 -14.15 L-50.75 -14.35 Q-48.8 -14.45 -47.8 -13.3 L-47.4 -12.4 -51.45 -14.15 M-43.75 -10.4 L-43.1 -10.15 -42.0 -9.55 Q-40.85 -6.4 -42.85 -3.0 -43.95 -1.3 -45.2 -0.2 -45.0 -1.75 -44.35 -2.85 -43.9 -4.6 -43.1 -6.05 L-42.15 -6.45 Q-41.9 -8.7 -43.75 -10.4 M-46.95 0.9 L-52.1 1.1 Q-54.4 -1.55 -54.25 -5.05 -54.15 -8.45 -53.0 -11.4 L-52.85 -11.65 -52.65 -11.35 Q-51.3 -9.4 -49.1 -8.05 -48.1 -7.05 -46.45 -6.6 L-47.95 -4.75 Q-49.5 -2.5 -48.15 0.15 L-46.95 0.9 M-2.45 -11.9 L-2.3 -12.25 -1.0 -11.85 Q-1.45 -11.55 -1.8 -11.4 L-2.45 -11.9 M-37.3 37.7 L-36.95 37.8 -36.15 39.25 -35.8 40.05 -33.95 43.5 -30.55 49.0 -26.65 54.2 Q-23.9 57.4 -20.55 59.9 L-12.5 65.85 -5.85 70.45 -9.8 91.0 -20.0 72.15 -27.4 58.7 Q-29.8 53.95 -31.55 49.25 L-37.3 37.7" fill="#a9854f" fill-rule="evenodd" stroke="none"/>
    <path d="M-11.95 99.1 L-12.2 99.4 -12.45 99.45 -11.95 99.1 M-12.9 99.8 L-16.7 105.25 Q-15.85 103.3 -14.2 101.05 L-12.9 99.8" fill="#d9c09a" fill-rule="evenodd" stroke="none"/>
    <path d="M10.85 47.45 L9.95 47.0 10.0 46.9 10.55 46.7 10.65 46.5 10.6 46.3 Q10.6 45.3 14.6 42.35 L16.2 41.2 16.7 40.85 Q19.7 38.7 23.25 37.8 30.0 35.35 31.75 36.0 L35.15 37.2 38.9 37.8 43.45 37.05 Q45.1 37.15 46.15 38.1 L46.35 38.3 46.45 38.35 46.6 38.55 47.65 39.4 47.65 39.6 47.85 39.9 Q48.6 41.0 48.6 42.15 48.6 43.15 47.3 45.15 45.75 47.5 44.15 47.5 L43.75 47.4 43.45 47.95 Q43.45 46.45 39.45 46.35 L36.85 46.55 35.5 46.75 32.75 47.65 Q31.45 47.65 31.2 47.3 L30.7 47.0 Q29.0 43.3 20.4 44.8 15.6 45.65 10.85 47.45 M43.45 48.05 L43.5 48.35 43.45 48.35 43.45 48.05 M42.0 48.2 L42.15 48.35 42.15 48.4 41.7 48.0 42.0 48.2" fill="#602010" fill-rule="evenodd" stroke="none"/>
    <path d="M43.45 47.95 L43.45 48.05 43.45 48.35 43.45 49.1 Q43.45 51.25 39.95 53.9 37.85 55.5 35.6 56.3 31.8 58.1 26.35 57.35 L22.5 56.5 21.3 56.15 19.5 54.65 Q16.5 52.35 15.6 51.45 L11.6 47.9 10.85 47.45 Q15.6 45.65 20.4 44.8 29.0 43.3 30.7 47.0 L31.2 47.3 Q31.45 47.65 32.75 47.65 L35.5 46.75 36.85 46.55 39.45 46.35 Q43.45 46.45 43.45 47.95 M42.0 48.2 L41.7 48.0 42.15 48.4 42.15 48.35 42.0 48.2 M34.45 50.8 Q34.3 50.2 33.55 50.15 L32.25 50.3 Q31.5 50.25 31.65 50.85 32.15 52.4 34.0 52.45 L34.95 52.3 Q35.55 51.45 34.45 50.8 M24.9 49.05 L24.3 49.2 23.0 49.35 22.45 49.9 Q22.95 50.9 25.0 51.4 27.15 51.7 27.8 50.5 27.85 49.7 26.7 49.5 L24.9 49.05" fill="#802010" fill-rule="evenodd" stroke="none"/>
    <path d="M24.9 49.05 L26.7 49.5 Q27.85 49.7 27.8 50.5 27.15 51.7 25.0 51.4 22.95 50.9 22.45 49.9 L23.0 49.35 24.3 49.2 24.9 49.05 M34.45 50.8 Q35.55 51.45 34.95 52.3 L34.0 52.45 Q32.15 52.4 31.65 50.85 31.5 50.25 32.25 50.3 L33.55 50.15 Q34.3 50.2 34.45 50.8" fill="#f07070" fill-rule="evenodd" stroke="none"/>
  </g>
</svg>
