<?xml version="1.0" encoding="UTF-8" standalone="no"?>
<svg xmlns:ffdec="https://www.free-decompiler.com/flash" xmlns:xlink="http://www.w3.org/1999/xlink" ffdec:objectType="shape" height="37.1px" width="51.8px" xmlns="http://www.w3.org/2000/svg">
  <g transform="matrix(1.0, 0.0, 0.0, 1.0, 53.7, -79.55)">
    <path d="M-49.8 80.15 L-49.5 80.0 Q-49.2 80.1 -48.9 80.35 L-48.3 80.95 -48.35 81.95 -30.35 89.2 -28.55 89.85 -26.4 90.2 -22.15 90.6 -16.0 90.75 Q-11.2 90.4 -6.6 88.85 L-5.05 87.85 -4.7 87.0 -4.6 87.5 -2.55 85.65 Q-1.05 94.9 -3.0 105.65 -4.3 112.8 -9.9 112.95 -10.65 113.75 -12.05 114.2 -33.65 121.55 -49.15 106.75 L-48.95 104.15 Q-51.1 100.8 -51.4 95.2 -51.65 90.95 -53.15 86.85 -54.7 82.8 -51.8 80.6 L-52.0 80.45 -51.75 80.55 -49.95 79.55 -49.8 80.15 M-47.7 86.15 Q-47.9 86.0 -48.05 85.95 L-48.15 85.9 -48.3 85.85 -48.4 85.8 -48.45 85.75 -48.6 85.7 -48.25 87.4 -47.6 88.75 -46.8 90.65 Q-43.85 96.65 -43.95 104.9 -43.95 107.15 -41.75 108.35 L-41.5 108.5 -41.25 108.6 Q-33.95 112.45 -27.4 112.7 L-26.15 112.7 -26.0 112.7 -25.8 112.7 -25.45 112.7 -24.05 112.6 -22.7 112.4 -22.65 112.4 -20.7 111.95 -18.55 111.25 -9.75 105.6 -9.15 105.0 Q-8.5 99.3 -6.2 94.5 L-6.0 93.45 -8.25 94.35 -12.05 95.05 -14.3 95.55 -14.45 95.6 -14.6 95.6 -14.75 95.65 -18.95 95.8 Q-23.0 95.65 -27.7 94.2 L-30.45 93.35 -30.1 93.75 -42.15 88.85 Q-44.75 87.7 -46.2 86.5 L-47.4 85.75 -47.25 86.4 -47.3 86.35 -47.7 86.15" fill="#111111" fill-rule="evenodd" stroke="none"/>
    <path d="M-47.6 88.75 L-47.7 86.15 -47.3 86.35 -47.25 86.4 -47.4 85.75 -46.2 86.5 Q-44.75 87.7 -42.15 88.85 L-30.1 93.75 -30.45 93.35 -27.7 94.2 Q-23.0 95.65 -18.95 95.8 L-14.75 95.65 -14.6 95.6 -14.45 95.6 -14.3 95.55 -12.05 95.05 -8.25 94.35 -6.0 93.45 -6.2 94.5 Q-8.5 99.3 -9.15 105.0 L-9.75 105.6 -18.55 111.25 -20.7 111.95 -21.55 110.9 Q-22.0 111.85 -22.65 112.4 L-22.7 112.4 -24.05 112.6 -25.45 112.7 -25.8 112.7 -26.0 112.7 -26.1 112.15 -27.2 112.35 -27.4 112.7 Q-33.95 112.45 -41.25 108.6 L-41.5 108.5 -41.75 108.35 Q-43.95 107.15 -43.95 104.9 -43.85 96.65 -46.8 90.65 L-47.6 88.75 M-43.0 100.3 L-43.05 100.4 -43.0 100.45 -43.0 100.3" fill="#ffffff" fill-rule="evenodd" stroke="none"/>
  </g>
</svg>
