<?xml version="1.0" encoding="UTF-8" standalone="no"?>
<svg xmlns:ffdec="https://www.free-decompiler.com/flash" xmlns:xlink="http://www.w3.org/1999/xlink" ffdec:objectType="shape" height="520.6px" width="461.5px" xmlns="http://www.w3.org/2000/svg">
  <g transform="matrix(1.0, 0.0, 0.0, 1.0, 57.7, 774.65)">
    <path d="M402.3 -770.05 Q402.3 -743.75 357.45 -706.4 L351.0 -701.15 Q346.55 -697.5 341.8 -693.95 336.5 -689.95 330.5 -685.9 L329.1 -684.95 Q309.5 -671.15 283.55 -655.15 L243.8 -629.9 244.05 -629.65 231.0 -621.4 213.1 -609.5 199.6 -600.1 166.6 -576.75 Q147.2 -562.1 131.2 -548.15 85.0 -507.75 63.95 -470.55 59.2 -459.1 53.05 -440.3 48.65 -426.75 47.05 -409.4 46.15 -399.05 45.85 -378.0 45.55 -357.05 44.6 -346.5 43.5 -334.25 40.95 -323.8 L41.55 -322.05 39.05 -316.85 38.55 -315.3 38.25 -315.4 Q26.95 -296.05 -3.05 -275.6 -16.85 -266.2 -29.8 -260.0 -42.35 -254.05 -47.8 -254.05 L-50.85 -254.35 -56.2 -255.05 -57.15 -256.25 Q-57.7 -257.2 -57.7 -258.8 L-57.65 -259.7 -57.7 -260.55 -57.45 -262.55 Q-56.5 -267.3 -52.1 -279.45 L-46.45 -294.3 Q-43.5 -299.4 -40.8 -305.25 -34.85 -311.8 -25.8 -337.35 -18.0 -359.25 -16.2 -370.95 L-15.9 -371.85 Q-11.7 -383.75 -11.7 -385.3 L-4.75 -409.95 Q2.35 -434.8 3.8 -439.3 7.45 -450.7 15.4 -466.25 L19.3 -473.65 21.8 -477.45 23.85 -479.6 Q28.85 -489.2 37.8 -499.45 42.25 -504.55 47.2 -509.2 L55.2 -518.8 55.6 -519.15 57.4 -520.4 Q81.85 -542.75 122.05 -568.55 145.25 -583.5 171.35 -598.65 L179.85 -603.6 Q248.75 -648.95 262.8 -656.3 L262.2 -655.8 Q289.4 -674.6 312.95 -694.05 368.8 -740.2 368.8 -763.15 368.8 -764.1 367.05 -768.75 L364.8 -774.15 365.25 -774.4 365.55 -774.65 366.65 -773.4 Q372.35 -773.65 403.05 -773.9 L403.8 -773.15 403.75 -772.1 Q403.6 -771.7 402.3 -771.65 L402.3 -770.05" fill="#7e7e7e" fill-opacity="0.44705883" fill-rule="evenodd" stroke="none"/>
  </g>
</svg>
