<?xml version="1.0" encoding="UTF-8" standalone="no"?>
<svg xmlns:ffdec="https://www.free-decompiler.com/flash" xmlns:xlink="http://www.w3.org/1999/xlink" ffdec:objectType="shape" height="530.3px" width="428.75px" xmlns="http://www.w3.org/2000/svg">
  <g transform="matrix(1.0, 0.0, 0.0, 1.0, 58.7, 775.6)">
    <path d="M367.55 -774.9 Q369.7 -774.35 370.05 -773.65 L367.55 -772.9 365.2 -772.9 Q363.3 -764.25 329.95 -742.45 316.1 -733.45 302.0 -725.65 288.3 -718.1 281.8 -715.8 279.45 -714.95 272.55 -710.65 254.65 -702.15 246.25 -697.1 L243.8 -696.0 233.3 -690.8 214.25 -681.1 203.35 -675.4 Q180.1 -660.1 158.25 -639.05 130.4 -612.2 122.8 -592.3 115.8 -574.2 108.5 -549.15 98.55 -514.95 98.55 -500.05 98.55 -489.8 101.3 -475.15 102.5 -468.6 103.85 -463.65 103.55 -461.45 103.55 -459.15 103.35 -455.2 103.85 -450.55 L104.3 -447.5 Q104.3 -434.6 95.05 -413.6 85.5 -391.8 74.3 -380.8 68.05 -374.6 61.7 -364.5 L51.8 -347.05 41.55 -330.95 Q38.8 -326.4 37.15 -322.2 L37.55 -321.05 Q36.65 -318.15 35.2 -315.15 L35.05 -314.05 34.6 -313.9 Q25.15 -295.35 -4.05 -272.1 -17.5 -261.4 -30.05 -253.95 -42.2 -246.8 -46.45 -246.8 L-53.85 -246.95 -53.7 -246.05 -53.6 -245.5 -55.2 -245.3 Q-56.9 -245.3 -57.4 -246.6 L-57.6 -247.9 -58.7 -248.55 -58.45 -250.8 -57.7 -250.7 -57.7 -251.05 Q-58.7 -253.3 -58.7 -253.9 -58.7 -275.85 -44.25 -302.4 -35.35 -318.75 -18.45 -340.55 L-16.45 -343.55 -15.6 -344.75 -10.45 -352.3 Q-8.7 -354.9 -0.95 -364.2 5.7 -372.1 7.8 -376.3 10.15 -380.85 14.9 -388.6 L21.8 -400.3 Q27.7 -411.25 30.95 -424.35 33.0 -432.5 33.7 -440.2 33.2 -446.35 30.7 -453.8 27.55 -463.1 27.55 -477.15 27.55 -484.85 31.7 -503.55 35.45 -520.4 38.2 -526.1 39.6 -530.95 41.3 -535.9 50.95 -564.15 66.3 -586.55 81.7 -609.0 120.45 -636.55 142.45 -652.2 166.1 -665.55 L166.4 -665.85 164.55 -664.8 164.05 -665.3 167.45 -667.25 167.55 -667.35 174.1 -671.2 180.8 -675.1 183.05 -676.3 186.35 -678.05 193.9 -682.3 195.05 -682.85 Q197.2 -683.85 200.15 -685.75 L213.1 -692.95 Q240.65 -708.15 257.8 -719.3 L276.35 -730.95 Q287.95 -738.25 295.25 -743.45 316.3 -758.55 324.65 -772.9 L323.55 -772.9 321.05 -773.65 Q321.05 -774.25 323.55 -774.9 L364.5 -774.9 364.8 -775.4 Q364.95 -775.65 365.05 -775.6 L365.25 -774.9 367.55 -774.9" fill="#7e7e7e" fill-opacity="0.44705883" fill-rule="evenodd" stroke="none"/>
  </g>
</svg>
