<?xml version="1.0" encoding="UTF-8" standalone="no"?>
<svg xmlns:ffdec="https://www.free-decompiler.com/flash" xmlns:xlink="http://www.w3.org/1999/xlink" ffdec:objectType="shape" height="202.15px" width="206.3px" xmlns="http://www.w3.org/2000/svg">
  <g transform="matrix(1.0, 0.0, 0.0, 1.0, 100.55, 193.25)">
    <path d="M97.2 -105.5 Q93.0 -125.65 91.1 -131.8 85.6 -149.35 75.05 -160.8 59.95 -177.25 31.5 -186.5 11.55 -191.35 -10.6 -188.1 -33.6 -184.7 -52.5 -173.5 -73.1 -161.3 -84.65 -142.1 -97.5 -120.8 -97.5 -93.25 -97.5 -77.0 -95.8 -66.9 -93.15 -51.0 -85.55 -38.9 -65.5 -7.0 -8.1 3.3 L12.25 3.3 35.9 1.3 Q55.85 -1.4 64.1 -8.5 L77.65 -20.15 82.6 -25.05 86.75 -28.1 87.65 -28.85 Q63.45 5.65 13.8 8.9 L-5.05 8.9 Q-59.8 4.25 -84.3 -34.45 -93.3 -48.65 -97.45 -66.55 -100.55 -79.95 -100.55 -93.1 -100.55 -118.9 -88.6 -140.05 -77.95 -158.95 -58.85 -172.25 -41.5 -184.4 -20.4 -189.75 -0.2 -194.85 17.75 -192.5 51.65 -187.9 70.3 -171.5 81.8 -161.3 90.0 -142.55 105.75 -106.35 105.75 -86.65 105.75 -74.55 102.4 -61.45 99.55 -50.2 94.6 -40.4 95.8 -43.9 96.65 -48.2 L97.65 -54.3 Q102.1 -66.15 102.1 -74.4 102.1 -81.85 97.2 -105.5" fill="url(#gradient0)" fill-rule="evenodd" stroke="none"/>
    <path d="M32.7 -103.1 Q36.0 -96.45 36.0 -91.9 36.0 -89.45 33.55 -84.05 30.75 -77.75 26.5 -72.15 14.75 -56.65 0.25 -56.65 -10.0 -56.65 -17.1 -62.05 L-22.25 -66.65 Q-25.25 -69.65 -26.8 -70.75 -30.7 -73.5 -32.9 -79.0 -34.75 -83.55 -34.75 -87.8 -34.75 -99.45 -29.45 -109.8 -22.3 -123.8 -8.1 -127.15 8.95 -131.15 23.5 -116.05 29.15 -110.2 32.7 -103.1 M20.0 -108.1 L17.35 -113.1 Q14.1 -118.9 8.4 -121.15 -8.5 -127.95 -19.45 -113.95 -23.45 -108.85 -25.85 -101.85 -27.85 -95.95 -27.85 -91.8 -27.85 -88.8 -25.4 -83.65 L-20.9 -75.1 -20.1 -70.95 Q-19.7 -68.55 -17.25 -67.25 -13.3 -65.2 -8.75 -64.5 L-1.5 -64.05 Q0.15 -64.05 6.55 -66.5 13.0 -69.0 16.4 -69.0 20.45 -69.0 25.55 -76.25 30.05 -82.6 30.05 -84.75 30.05 -89.85 28.8 -93.9 27.25 -98.95 23.5 -103.1 21.7 -105.1 20.0 -108.1" fill="url(#gradient1)" fill-rule="evenodd" stroke="none"/>
  </g>
  <defs>
    <radialGradient cx="0" cy="0" gradientTransform="matrix(0.1304, 0.0, 0.0, 0.1304, 2.6, -92.15)" gradientUnits="userSpaceOnUse" id="gradient0" r="819.2" spreadMethod="pad">
      <stop offset="0.0" stop-color="#6600ff" stop-opacity="0.011764706"/>
      <stop offset="0.47843137254901963" stop-color="#8aeeff" stop-opacity="0.7490196"/>
      <stop offset="1.0" stop-color="#8ae2ff" stop-opacity="0.0"/>
    </radialGradient>
    <radialGradient cx="0" cy="0" gradientTransform="matrix(0.1186, 0.0, 0.0, 0.1186, 1.55, -91.1)" gradientUnits="userSpaceOnUse" id="gradient1" r="819.2" spreadMethod="pad">
      <stop offset="0.0" stop-color="#6600ff" stop-opacity="0.011764706"/>
      <stop offset="0.47843137254901963" stop-color="#8aeeff" stop-opacity="0.7490196"/>
      <stop offset="1.0" stop-color="#8ae2ff" stop-opacity="0.0"/>
    </radialGradient>
  </defs>
</svg>
