<?xml version="1.0" encoding="UTF-8" standalone="no"?>
<svg xmlns:ffdec="https://www.free-decompiler.com/flash" xmlns:xlink="http://www.w3.org/1999/xlink" ffdec:objectType="shape" height="174.75px" width="173.3px" xmlns="http://www.w3.org/2000/svg">
  <g transform="matrix(1.0, 0.0, 0.0, 1.0, 90.15, 176.5)">
    <path d="M24.8 -155.15 Q21.9 -157.1 18.1 -157.95 L-13.25 -160.6 Q-27.45 -155.3 -39.2 -143.75 L-48.45 -133.7 -57.0 -124.0 Q-65.2 -115.2 -69.25 -104.85 -73.0 -95.4 -73.0 -85.25 -73.0 -74.95 -69.1 -66.65 -65.15 -58.2 -54.6 -46.4 -50.75 -42.1 -15.55 -32.15 17.3 -22.85 21.5 -22.85 44.0 -22.85 57.5 -54.1 61.95 -64.35 64.75 -76.55 66.8 -85.6 66.8 -88.85 66.8 -98.4 61.65 -109.65 L50.65 -130.5 48.2 -135.8 Q46.85 -138.8 45.15 -140.85 43.7 -142.65 38.85 -145.0 33.6 -147.6 31.5 -149.5 L24.8 -155.15 M8.05 -113.15 L9.65 -112.0 Q13.35 -111.9 15.05 -107.0 L16.1 -102.0 Q16.1 -92.85 14.55 -88.2 10.75 -76.75 -1.3 -76.75 -12.95 -76.75 -17.85 -84.1 -20.8 -88.45 -20.8 -93.85 -20.8 -96.0 -19.7 -99.5 -18.25 -104.05 -15.7 -107.45 -9.15 -116.35 2.2 -114.55 L5.1 -114.5 6.05 -114.05 Q7.05 -113.75 8.05 -113.15 M2.3 -111.2 Q-1.8 -111.6 -5.1 -112.85 -10.35 -111.1 -14.1 -106.15 -19.0 -99.7 -19.0 -93.9 -19.0 -89.25 -15.6 -85.05 -10.75 -79.05 -1.25 -79.05 8.2 -79.05 12.4 -87.9 14.55 -92.35 14.8 -97.1 14.8 -100.4 12.85 -104.5 10.5 -109.5 7.0 -110.4 L7.0 -110.6 2.3 -111.2 M79.15 -105.75 Q83.15 -92.4 83.15 -81.35 83.15 -45.8 59.25 -22.6 48.9 -12.6 35.9 -7.1 23.25 -1.75 10.75 -1.75 -0.2 -1.75 -16.0 -8.9 -21.9 -11.55 -36.15 -19.5 -38.0 -20.5 -47.65 -24.5 -56.65 -28.2 -59.3 -29.9 -67.5 -35.2 -72.9 -41.4 -83.45 -53.3 -87.2 -64.9 -90.15 -74.0 -90.15 -88.3 -90.15 -101.9 -84.65 -112.85 -78.45 -125.3 -63.55 -138.25 -60.75 -140.65 -52.65 -150.25 -45.25 -158.95 -38.9 -163.65 -18.5 -178.9 18.25 -176.05 44.15 -172.0 57.65 -157.1 66.05 -147.75 70.9 -131.25 76.8 -113.65 79.15 -105.75" fill="url(#gradient0)" fill-rule="evenodd" stroke="none"/>
  </g>
  <defs>
    <radialGradient cx="0" cy="0" gradientTransform="matrix(0.1186, 0.0, 0.0, 0.1186, 1.55, -91.1)" gradientUnits="userSpaceOnUse" id="gradient0" r="819.2" spreadMethod="pad">
      <stop offset="0.0" stop-color="#6600ff" stop-opacity="0.011764706"/>
      <stop offset="0.47843137254901963" stop-color="#8aeeff" stop-opacity="0.7490196"/>
      <stop offset="1.0" stop-color="#8ae2ff" stop-opacity="0.0"/>
    </radialGradient>
  </defs>
</svg>
