<?xml version="1.0" encoding="UTF-8" standalone="no"?>
<svg xmlns:ffdec="https://www.free-decompiler.com/flash" xmlns:xlink="http://www.w3.org/1999/xlink" ffdec:objectType="shape" height="217.5px" width="188.4px" xmlns="http://www.w3.org/2000/svg">
  <g transform="matrix(1.0, 0.0, 0.0, 1.0, 92.15, 211.15)">
    <path d="M26.3 -177.4 L26.25 -177.5 25.3 -176.75 23.25 -179.0 Q20.9 -181.1 17.85 -181.1 16.5 -181.1 14.95 -180.2 L13.25 -179.15 12.45 -179.5 Q12.1 -179.8 12.1 -180.6 12.1 -184.35 19.2 -182.95 26.3 -181.5 26.3 -178.25 L26.3 -177.4 M91.0 -26.35 Q93.55 -27.2 95.1 -24.5 96.25 -22.5 96.25 -20.55 96.25 -18.55 94.0 -15.35 91.45 -11.8 89.05 -11.75 L91.2 -15.2 Q93.15 -18.5 93.15 -19.4 93.15 -20.2 92.0 -22.55 90.85 -24.9 90.85 -25.15 90.85 -26.4 91.0 -26.35" fill="#ffffff" fill-opacity="0.69803923" fill-rule="evenodd" stroke="none"/>
    <path d="M82.45 -150.9 L82.65 -151.1 83.0 -151.1 Q89.6 -137.0 91.45 -131.05 94.05 -122.8 94.05 -112.75 93.9 -107.7 93.25 -102.75 91.95 -92.85 89.55 -92.85 88.1 -92.85 87.75 -94.1 87.55 -94.75 87.65 -95.5 L89.1 -100.1 Q90.5 -104.4 90.5 -107.0 L88.25 -128.5 Q87.7 -133.25 84.95 -141.4 82.4 -149.05 82.4 -150.0 L82.45 -150.9" fill="#ffffff" fill-opacity="0.69803923" fill-rule="evenodd" stroke="none"/>
    <path d="M85.85 -103.35 Q85.85 -104.9 84.55 -110.55 L83.0 -116.95 83.25 -117.25 Q84.15 -115.5 86.15 -107.85 88.1 -100.5 88.1 -99.55 88.1 -97.95 87.15 -97.55 86.15 -97.05 85.25 -98.8 85.1 -99.6 85.45 -101.15 L85.85 -103.35 M-91.9 -66.45 L-91.55 -66.8 -90.5 -67.05 Q-88.4 -67.05 -84.95 -58.25 -82.7 -52.6 -80.55 -45.1 -79.3 -41.0 -74.0 -34.55 L-64.55 -23.95 -64.9 -23.75 Q-76.05 -32.1 -83.1 -44.35 -87.35 -51.8 -92.15 -65.2 L-91.9 -66.45" fill="#ffffff" fill-opacity="0.69803923" fill-rule="evenodd" stroke="none"/>
    <path d="M37.85 -211.15 Q40.15 -210.6 42.25 -209.7 45.7 -208.3 46.4 -206.75 46.0 -206.05 45.5 -205.9 L41.65 -208.35 37.6 -210.8 37.85 -211.15 M67.4 -128.1 Q67.4 -131.0 69.6 -129.1 71.75 -127.2 71.75 -124.4 L71.65 -123.15 71.5 -122.85 71.1 -122.25 68.9 -125.6 Q67.4 -127.8 67.4 -128.1 M-83.65 -32.85 Q-79.1 -24.6 -77.15 -22.1 L-77.25 -21.85 -85.55 -32.1 Q-89.85 -38.0 -90.85 -42.1 -87.1 -39.05 -83.65 -32.85 M-62.65 -10.85 L-62.8 -10.5 Q-65.1 -10.95 -66.65 -12.2 L-69.85 -14.8 -69.35 -15.0 Q-67.65 -14.2 -66.3 -13.2 L-62.65 -10.85" fill="#ffffff" fill-opacity="0.69803923" fill-rule="evenodd" stroke="none"/>
    <path d="M-56.2 -43.35 Q-54.4 -39.9 -52.85 -38.35 L-38.5 -26.7 Q-35.3 -24.1 -28.65 -20.85 -22.5 -17.8 -21.9 -17.2 L-21.4 -16.6 -21.4 -16.4 -21.65 -16.15 Q-34.2 -20.7 -38.9 -23.2 -45.45 -26.65 -51.5 -32.7 -54.5 -35.8 -57.1 -39.2 -62.3 -46.0 -60.85 -47.45 -59.95 -48.35 -59.0 -47.8 L-58.1 -47.0 -56.2 -43.35" fill="#ffffff" fill-opacity="0.69803923" fill-rule="evenodd" stroke="none"/>
    <path d="M-40.05 -1.95 L-39.6 -2.65 -28.35 0.8 Q-15.65 4.9 -8.75 5.75 L-8.75 6.1 Q-15.1 6.95 -24.4 4.85 -35.05 2.5 -39.85 -1.9 L-40.05 -1.95" fill="#ffffff" fill-opacity="0.69803923" fill-rule="evenodd" stroke="none"/>
    <path d="M-84.75 -107.85 L-84.1 -107.6 Q-83.95 -107.45 -85.05 -97.2 -86.3 -85.4 -85.8 -79.25 L-86.1 -79.2 Q-88.0 -84.55 -87.85 -93.0 -87.7 -102.7 -84.8 -107.65 L-84.75 -107.85" fill="#ffffff" fill-opacity="0.69803923" fill-rule="evenodd" stroke="none"/>
  </g>
</svg>
