<?xml version="1.0" encoding="UTF-8" standalone="no"?>
<svg xmlns:ffdec="https://www.free-decompiler.com/flash" xmlns:xlink="http://www.w3.org/1999/xlink" ffdec:objectType="shape" height="237.35px" width="213.1px" xmlns="http://www.w3.org/2000/svg">
  <g transform="matrix(1.0, 0.0, 0.0, 1.0, 118.95, 210.55)">
    <path d="M23.5 -209.0 L23.1 -209.1 Q22.7 -209.25 22.6 -209.5 24.8 -210.55 25.75 -210.55 L23.5 -209.0 M85.75 -99.75 Q85.25 -99.3 84.25 -99.05 L77.75 -98.55 Q72.15 -98.55 69.0 -102.25 66.75 -104.9 66.75 -107.3 66.75 -110.8 68.9 -110.6 71.1 -110.4 71.9 -105.8 72.1 -102.8 73.95 -101.35 77.2 -98.8 85.6 -100.05 L85.75 -99.75 M27.65 5.55 Q19.8 7.5 6.35 7.5 L2.0 7.25 -1.6 6.85 -16.7 7.05 -23.0 7.25 Q-26.2 7.25 -28.4 6.1 -30.4 5.1 -30.4 3.85 -30.4 2.7 -28.9 2.15 L-26.85 1.75 Q-24.75 1.75 -17.55 3.5 -9.75 5.4 -0.85 5.8 L3.0 5.8 Q19.4 4.4 29.55 2.3 L38.0 0.3 Q34.7 3.85 27.65 5.55" fill="#ffffff" fill-rule="evenodd" stroke="none"/>
    <path d="M41.15 -163.15 Q40.25 -163.3 39.4 -164.3 L37.25 -166.5 Q38.4 -166.5 39.95 -165.35 L41.75 -163.75 Q41.75 -163.3 41.15 -163.15 M92.6 -4.05 L91.9 -4.4 Q91.6 -4.65 91.6 -5.5 91.6 -6.75 91.85 -7.65 93.0 -7.55 94.15 -5.1 94.05 -4.8 93.55 -4.45 93.0 -4.05 92.6 -4.05 M-4.5 -185.3 L-6.55 -184.95 -9.15 -184.65 -10.5 -184.85 -12.0 -185.25 Q-5.85 -186.6 -4.5 -186.0 L-4.5 -185.3 M-85.85 -50.25 Q-85.5 -48.85 -84.35 -46.6 L-82.15 -43.0 -82.25 -42.6 -82.9 -42.1 Q-84.85 -43.8 -85.6 -46.0 -86.1 -47.5 -86.25 -50.25 L-85.85 -50.25" fill="#ffffff" fill-rule="evenodd" stroke="none"/>
    <path d="M-67.7 -34.35 Q-65.05 -33.25 -60.55 -29.25 -53.2 -22.9 -51.25 -21.4 -37.95 -11.1 -20.85 -7.25 -41.65 -11.25 -53.75 -18.55 -65.0 -25.35 -67.7 -34.35 M65.3 22.7 Q65.3 24.05 63.65 25.4 61.9 26.8 60.1 26.8 51.7 26.8 45.45 21.1 L45.45 20.95 Q47.55 20.95 50.5 22.3 53.35 23.65 55.05 23.65 57.85 23.65 60.4 22.75 L63.9 21.4 65.05 21.65 Q65.3 21.8 65.3 22.7" fill="#ffffff" fill-rule="evenodd" stroke="none"/>
    <path d="M64.45 -162.7 Q64.45 -158.8 56.45 -165.05 47.45 -172.85 45.5 -174.05 37.3 -178.7 32.1 -181.0 23.0 -185.05 8.1 -186.95 16.7 -189.2 40.8 -178.35 50.65 -173.9 57.35 -169.55 64.45 -164.95 64.45 -162.7 M63.15 -27.6 Q48.8 -14.15 42.15 -9.85 26.85 0.15 12.75 -2.2 34.15 -8.9 42.75 -13.1 54.1 -18.55 62.9 -27.85 L63.15 -27.6" fill="#d7eaff" fill-opacity="0.75686276" fill-rule="evenodd" stroke="none"/>
    <path d="M23.1 -209.1 Q22.7 -209.25 22.6 -209.5 24.8 -210.55 25.75 -210.55 L23.5 -209.0 23.1 -209.1 M84.25 -99.05 L77.75 -98.55 Q72.15 -98.55 69.0 -102.25 66.75 -104.9 66.75 -107.3 66.75 -110.8 68.9 -110.6 71.1 -110.4 71.9 -105.8 72.1 -102.8 73.95 -101.35 77.2 -98.8 85.6 -100.05 L85.75 -99.75 Q85.25 -99.3 84.25 -99.05 M27.65 5.55 Q19.8 7.5 6.35 7.5 L2.0 7.25 -1.6 6.85 -16.7 7.05 -23.0 7.25 Q-26.2 7.25 -28.4 6.1 -30.4 5.1 -30.4 3.85 -30.4 2.7 -28.9 2.15 L-26.85 1.75 Q-24.75 1.75 -17.55 3.5 -9.75 5.4 -0.85 5.8 L3.0 5.8 Q19.4 4.4 29.55 2.3 L38.0 0.3 Q34.7 3.85 27.65 5.55" fill="#ffffff" fill-opacity="0.7372549" fill-rule="evenodd" stroke="none"/>
    <path d="M-15.4 -177.0 Q-30.55 -175.0 -43.95 -166.5 -28.05 -177.3 -15.7 -180.4 -4.05 -183.25 3.45 -179.2 1.1 -178.2 -4.4 -177.85 L-15.4 -177.0 M-108.6 -139.8 Q-111.25 -138.8 -112.35 -137.75 -114.2 -135.9 -115.2 -133.75 L-116.65 -130.65 -117.5 -130.1 Q-117.7 -129.95 -118.3 -130.55 -119.15 -131.4 -118.9 -133.35 -118.75 -135.35 -117.6 -136.5 -112.25 -141.85 -104.65 -142.25 L-104.55 -142.15 Q-105.85 -140.8 -108.6 -139.8" fill="#ffffff" fill-opacity="0.69803923" fill-rule="evenodd" stroke="none"/>
    <path d="M-78.25 -153.45 Q-86.85 -143.25 -90.25 -137.2 L-90.6 -137.35 Q-88.95 -143.5 -83.5 -151.35 -77.3 -160.3 -71.45 -163.05 L-71.3 -163.25 -70.85 -162.5 -78.25 -153.45" fill="#dffbff" fill-opacity="0.827451" fill-rule="evenodd" stroke="none"/>
    <path d="M49.1 -163.75 L39.9 -168.55 Q29.5 -174.15 23.6 -176.0 L23.65 -176.3 Q29.3 -176.05 37.15 -172.7 46.0 -168.95 49.5 -164.35 L49.65 -164.25 49.1 -163.75" fill="#ffffff" fill-opacity="0.84705883" fill-rule="evenodd" stroke="none"/>
  </g>
</svg>
