<?xml version="1.0" encoding="UTF-8" standalone="no"?>
<svg xmlns:ffdec="https://www.free-decompiler.com/flash" xmlns:xlink="http://www.w3.org/1999/xlink" ffdec:objectType="shape" height="236.95px" width="213.6px" xmlns="http://www.w3.org/2000/svg">
  <g transform="matrix(1.0, 0.0, 0.0, 1.0, 120.35, 211.55)">
    <path d="M32.5 -211.05 Q32.3 -210.5 31.75 -210.25 L28.05 -210.1 Q27.3 -210.1 27.1 -210.4 27.4 -211.25 28.1 -211.55 L32.5 -211.05 M69.8 -118.55 Q72.15 -119.7 72.15 -116.8 69.85 -109.0 69.85 -107.35 69.85 -106.85 70.55 -105.65 L71.25 -104.1 71.2 -103.35 71.1 -103.5 70.35 -103.0 Q69.2 -103.6 68.25 -107.95 67.4 -111.65 67.4 -114.0 67.4 -117.35 69.8 -118.55 M-49.05 -2.7 Q-44.5 -0.45 -40.95 0.95 -26.2 6.9 1.6 6.75 L-1.25 7.55 -4.05 7.85 Q-25.15 7.85 -40.1 3.9 -51.7 0.75 -55.9 -3.4 -52.5 -4.05 -49.05 -2.7" fill="#ffffff" fill-rule="evenodd" stroke="none"/>
    <path d="M44.9 -159.35 L44.25 -158.15 42.8 -159.45 Q42.3 -160.1 42.3 -160.3 42.3 -161.05 42.7 -161.15 L43.25 -161.1 44.9 -159.35 M26.65 -184.0 Q26.25 -183.5 25.55 -183.5 21.75 -183.5 18.25 -184.35 L13.75 -185.5 8.15 -185.85 -0.75 -186.6 14.4 -187.35 Q16.65 -187.2 27.35 -185.05 L26.65 -184.0 M93.15 -0.5 Q92.9 -0.1 92.35 -0.1 92.0 -0.65 92.0 -1.9 L92.9 -2.0 Q93.25 -2.55 93.25 -1.3 L93.15 -0.5 M-88.9 -56.4 Q-87.55 -55.15 -86.05 -51.85 -84.75 -48.85 -84.75 -47.75 L-84.75 -46.9 -84.8 -47.0 -85.25 -46.55 Q-86.45 -47.1 -88.0 -50.35 -89.4 -53.3 -89.4 -54.25 L-89.25 -55.4 -89.3 -56.4 -88.9 -56.4" fill="#ffffff" fill-rule="evenodd" stroke="none"/>
    <path d="M-83.8 -60.15 L-77.6 -49.05 Q-69.15 -34.85 -58.75 -25.75 L-59.2 -25.45 Q-66.35 -29.2 -78.0 -45.5 -89.95 -62.15 -89.95 -69.3 L-89.85 -69.95 Q-87.3 -66.45 -83.8 -60.15 M69.1 15.45 Q69.6 13.25 70.55 12.55 71.7 13.3 71.7 15.55 71.7 18.95 69.3 21.8 66.45 25.4 61.45 25.4 L60.35 25.2 59.9 24.75 Q60.4 23.2 64.1 21.75 67.75 20.25 68.1 19.35 L69.1 15.45" fill="#ffffff" fill-rule="evenodd" stroke="none"/>
    <path d="M87.5 -132.1 Q81.1 -145.5 68.75 -157.05 54.9 -170.05 36.05 -178.15 L36.2 -178.5 Q40.95 -177.5 49.75 -172.35 58.4 -167.2 67.1 -160.35 88.35 -143.55 88.35 -135.05 L88.05 -133.3 87.5 -132.1 M41.3 -11.0 Q37.35 -8.7 30.7 -5.5 22.8 -1.65 16.35 0.8 4.85 5.25 -10.15 4.75 -25.0 4.3 -25.0 -0.2 -25.0 -1.15 -24.35 -1.5 L-22.75 -1.75 -15.2 -0.1 -8.0 1.5 Q8.95 1.5 26.1 -4.6 34.75 -7.65 41.05 -11.25 L41.3 -11.0" fill="#d7eaff" fill-opacity="0.75686276" fill-rule="evenodd" stroke="none"/>
    <path d="M31.75 -210.25 L28.05 -210.1 Q27.3 -210.1 27.1 -210.4 27.4 -211.25 28.1 -211.55 L32.5 -211.05 Q32.3 -210.5 31.75 -210.25 M69.8 -118.55 Q72.15 -119.7 72.15 -116.8 69.85 -109.0 69.85 -107.35 69.85 -106.85 70.55 -105.65 L71.25 -104.1 71.2 -103.35 71.1 -103.5 70.35 -103.0 Q69.2 -103.6 68.25 -107.95 67.4 -111.65 67.4 -114.0 67.4 -117.35 69.8 -118.55 M-49.05 -2.7 Q-44.5 -0.45 -40.95 0.95 -26.2 6.9 1.6 6.75 L-1.25 7.55 -4.05 7.85 Q-25.15 7.85 -40.1 3.9 -51.7 0.75 -55.9 -3.4 -52.5 -4.05 -49.05 -2.7" fill="#ffffff" fill-opacity="0.7372549" fill-rule="evenodd" stroke="none"/>
    <path d="M30.25 -173.0 L19.2 -176.1 Q4.7 -179.85 -7.8 -179.0 L-7.7 -179.45 Q-0.75 -181.65 17.2 -178.65 35.45 -175.7 40.1 -171.1 40.95 -170.2 40.35 -170.55 36.55 -171.2 30.25 -173.0 M-116.8 -135.35 L-116.2 -135.3 Q-115.5 -134.0 -116.9 -130.75 -118.3 -127.45 -118.0 -126.6 L-116.15 -123.45 Q-115.0 -121.75 -115.15 -120.65 -116.4 -120.45 -117.85 -121.85 -120.0 -124.05 -120.3 -127.4 -120.75 -131.5 -117.55 -134.7 L-116.8 -135.35" fill="#ffffff" fill-opacity="0.69803923" fill-rule="evenodd" stroke="none"/>
    <path d="M-35.4 -184.95 Q-35.25 -184.85 -35.35 -184.1 -35.35 -183.9 -45.8 -178.9 -57.9 -173.2 -63.5 -169.1 L-63.75 -169.35 Q-59.7 -174.3 -51.5 -179.15 -42.15 -184.75 -35.65 -184.85 L-35.4 -184.95" fill="#dffbff" fill-opacity="0.827451" fill-rule="evenodd" stroke="none"/>
    <path d="M67.1 -149.95 Q73.65 -142.8 74.95 -137.2 L75.1 -137.0 74.35 -136.8 Q74.15 -136.75 67.9 -144.95 60.75 -154.45 56.2 -158.55 L56.35 -158.85 Q61.35 -156.2 67.1 -149.95" fill="#ffffff" fill-opacity="0.84705883" fill-rule="evenodd" stroke="none"/>
  </g>
</svg>
