<?xml version="1.0" encoding="UTF-8" standalone="no"?>
<svg xmlns:ffdec="https://www.free-decompiler.com/flash" xmlns:xlink="http://www.w3.org/1999/xlink" ffdec:objectType="shape" height="202.15px" width="206.3px" xmlns="http://www.w3.org/2000/svg">
  <g transform="matrix(1.0, 0.0, 0.0, 1.0, 100.55, 193.25)">
    <path d="M97.2 -105.5 Q93.0 -125.65 91.1 -131.8 85.6 -149.35 75.05 -160.8 59.95 -177.25 31.5 -186.5 11.55 -191.35 -10.6 -188.1 -33.6 -184.7 -52.5 -173.5 -73.1 -161.3 -84.65 -142.1 -97.5 -120.8 -97.5 -93.25 -97.5 -77.0 -95.8 -66.9 -93.15 -51.0 -85.55 -38.9 -65.5 -7.0 -8.1 3.3 L12.25 3.3 35.9 1.3 Q55.85 -1.4 64.1 -8.5 L77.65 -20.15 82.6 -25.05 86.75 -28.1 87.65 -28.85 Q63.45 5.65 13.8 8.9 L-5.05 8.9 Q-59.8 4.25 -84.3 -34.45 -93.3 -48.65 -97.45 -66.55 -100.55 -79.95 -100.55 -93.1 -100.55 -118.9 -88.6 -140.05 -77.95 -158.95 -58.85 -172.25 -41.5 -184.4 -20.4 -189.75 -0.2 -194.85 17.75 -192.5 51.65 -187.9 70.3 -171.5 81.8 -161.3 90.0 -142.55 105.75 -106.35 105.75 -86.65 105.75 -74.55 102.4 -61.45 99.55 -50.2 94.6 -40.4 95.8 -43.9 96.65 -48.2 L97.65 -54.3 Q102.1 -66.15 102.1 -74.4 102.1 -81.85 97.2 -105.5 M17.35 -107.1 Q23.5 -97.2 23.5 -91.15 23.5 -89.0 22.0 -85.4 20.15 -81.15 17.15 -77.5 8.75 -67.5 -4.3 -67.5 -14.25 -67.5 -20.45 -80.05 -22.45 -84.15 -23.75 -89.05 -24.75 -92.7 -24.75 -93.9 -24.75 -104.45 -14.05 -114.1 -9.45 -118.25 -4.95 -119.9 -0.15 -121.6 2.8 -119.75 10.4 -118.4 17.35 -107.1 M20.6 -88.25 Q20.6 -107.6 0.6 -118.6 -9.05 -121.05 -16.5 -108.95 -19.05 -104.85 -20.8 -99.8 -22.25 -95.7 -22.25 -94.1 -22.25 -87.2 -18.35 -80.5 -12.5 -70.35 -0.5 -70.35 8.6 -70.35 15.35 -78.3 20.6 -84.5 20.6 -88.25" fill="url(#gradient0)" fill-rule="evenodd" stroke="none"/>
  </g>
  <defs>
    <radialGradient cx="0" cy="0" gradientTransform="matrix(0.1186, 0.0, 0.0, 0.1186, 1.55, -91.1)" gradientUnits="userSpaceOnUse" id="gradient0" r="819.2" spreadMethod="pad">
      <stop offset="0.0" stop-color="#6600ff" stop-opacity="0.011764706"/>
      <stop offset="0.47843137254901963" stop-color="#8aeeff" stop-opacity="0.7490196"/>
      <stop offset="1.0" stop-color="#8ae2ff" stop-opacity="0.0"/>
    </radialGradient>
  </defs>
</svg>
