<?xml version="1.0" encoding="UTF-8" standalone="no"?>
<svg xmlns:ffdec="https://www.free-decompiler.com/flash" xmlns:xlink="http://www.w3.org/1999/xlink" ffdec:objectType="shape" height="122.35px" width="101.3px" xmlns="http://www.w3.org/2000/svg">
  <g transform="matrix(1.0, 0.0, 0.0, 1.0, 39.35, 156.8)">
    <path d="M61.0 -79.65 Q57.1 -78.15 39.95 -81.75 24.25 -85.0 19.5 -87.3 L19.45 -88.2 20.35 -88.95 Q30.1 -92.65 48.55 -87.3 55.6 -85.25 59.5 -82.9 63.45 -80.6 61.0 -79.65 M-23.25 -154.4 Q-21.7 -151.75 -20.4 -148.15 -17.2 -138.7 -20.5 -137.45 -21.85 -136.95 -23.2 -138.75 -24.3 -140.35 -25.8 -144.3 -28.35 -151.05 -27.25 -154.65 -26.7 -156.4 -25.75 -156.75 -24.85 -157.1 -23.25 -154.4 M-35.9 -34.7 Q-37.75 -34.0 -38.5 -35.3 L-39.35 -36.05 -38.3 -37.8 -37.5 -37.9 -35.9 -40.0 Q-33.35 -43.4 -33.8 -43.25 -30.5 -44.55 -32.7 -39.8 -34.8 -35.15 -35.9 -34.7" fill="#ffffff" fill-opacity="0.76862746" fill-rule="evenodd" stroke="none"/>
  </g>
</svg>
