<?xml version="1.0" encoding="UTF-8" standalone="no"?>
<svg xmlns:ffdec="https://www.free-decompiler.com/flash" xmlns:xlink="http://www.w3.org/1999/xlink" ffdec:objectType="shape" height="111.25px" width="88.4px" xmlns="http://www.w3.org/2000/svg">
  <g transform="matrix(1.0, 0.0, 0.0, 1.0, 37.15, 148.55)">
    <path d="M36.65 -124.65 L40.85 -130.75 42.75 -133.05 44.45 -135.15 Q45.95 -136.5 47.55 -137.4 51.95 -139.1 49.8 -134.8 47.95 -131.1 45.1 -129.65 L44.0 -128.65 Q41.75 -126.5 37.05 -124.25 L36.65 -124.65 M29.05 -90.2 Q39.25 -88.3 51.25 -82.75 44.0 -80.6 30.85 -83.55 15.85 -87.7 9.05 -89.2 L8.9 -89.6 Q17.2 -92.4 29.05 -90.2 M-16.15 -131.55 Q-12.3 -109.35 -12.5 -107.15 L-12.6 -107.7 -12.9 -108.95 -15.05 -112.25 Q-17.0 -115.25 -20.55 -124.6 -22.15 -128.8 -23.25 -136.4 -24.35 -144.8 -23.35 -148.15 L-23.15 -148.55 -20.5 -139.95 -18.3 -135.7 -16.15 -131.55 M-19.65 -63.05 Q-22.4 -55.85 -27.15 -48.8 -30.85 -43.55 -36.45 -37.35 L-37.15 -37.4 Q-36.65 -48.1 -30.95 -54.75 -28.15 -58.0 -19.85 -63.45 L-19.65 -63.05" fill="#ffffff" fill-opacity="0.76862746" fill-rule="evenodd" stroke="none"/>
  </g>
</svg>
