<?xml version="1.0" encoding="UTF-8" standalone="no"?>
<svg xmlns:ffdec="https://www.free-decompiler.com/flash" xmlns:xlink="http://www.w3.org/1999/xlink" ffdec:objectType="shape" height="78.8px" width="77.9px" xmlns="http://www.w3.org/2000/svg">
  <g transform="matrix(1.0, 0.0, 0.0, 1.0, 39.0, 131.35)">
    <path d="M25.1 -111.55 Q15.85 -127.05 -0.25 -126.9 -8.65 -126.85 -17.9 -120.6 -26.6 -114.7 -27.0 -110.0 -27.9 -106.6 -30.85 -98.85 -32.05 -95.65 -32.05 -89.9 -32.05 -88.6 -30.45 -84.1 -28.45 -78.45 -25.65 -73.55 -17.3 -59.0 -6.4 -59.0 15.35 -59.0 25.3 -71.35 31.85 -79.5 31.85 -89.85 31.85 -93.6 30.3 -99.15 28.45 -105.95 25.1 -111.55 M27.15 -120.45 Q38.9 -110.15 38.9 -94.3 38.9 -88.5 36.75 -85.05 L28.75 -72.0 26.85 -68.05 Q24.95 -64.35 22.75 -61.45 15.75 -52.55 6.35 -52.55 -17.8 -52.55 -30.25 -65.75 -34.8 -70.55 -37.15 -76.45 -39.0 -81.15 -39.0 -84.8 -39.0 -90.65 -37.55 -93.3 -36.15 -95.95 -36.15 -103.4 -36.15 -117.95 -24.4 -125.6 -13.8 -132.5 1.4 -131.1 16.7 -129.6 27.15 -120.45" fill="url(#gradient0)" fill-rule="evenodd" stroke="none"/>
  </g>
  <defs>
    <radialGradient cx="0" cy="0" gradientTransform="matrix(0.1186, 0.0, 0.0, 0.1186, 1.55, -91.1)" gradientUnits="userSpaceOnUse" id="gradient0" r="819.2" spreadMethod="pad">
      <stop offset="0.0" stop-color="#6600ff" stop-opacity="0.011764706"/>
      <stop offset="0.47843137254901963" stop-color="#8aeeff" stop-opacity="0.7490196"/>
      <stop offset="1.0" stop-color="#8ae2ff" stop-opacity="0.0"/>
    </radialGradient>
  </defs>
</svg>
