<?xml version="1.0" encoding="UTF-8" standalone="no"?>
<svg xmlns:ffdec="https://www.free-decompiler.com/flash" xmlns:xlink="http://www.w3.org/1999/xlink" ffdec:objectType="shape" height="201.0px" width="172.85px" xmlns="http://www.w3.org/2000/svg">
  <g transform="matrix(1.0, 0.0, 0.0, 1.0, 71.7, 100.1)">
    <path d="M61.25 -78.65 Q61.85 -78.6 65.6 -75.75 L65.95 -75.5 67.25 -74.35 Q70.25 -71.7 71.9 -69.1 L76.65 -62.2 Q78.65 -58.5 79.9 -51.2 79.4 -51.25 79.4 -50.8 81.5 -49.65 82.95 -49.55 L84.15 -49.75 85.4 -50.05 85.65 -51.8 Q88.75 -51.3 91.5 -45.95 94.55 -39.95 95.45 -30.65 L95.7 -20.95 Q95.4 -20.95 95.3 -20.4 L95.25 -19.9 Q95.6 -18.5 98.55 -14.95 101.15 -10.4 101.15 -2.55 L100.95 -1.1 100.8 -0.6 100.75 -0.5 100.75 -0.3 100.75 -0.2 Q100.7 2.3 99.9 6.15 99.05 10.5 99.0 12.35 98.8 16.0 97.75 18.85 96.45 22.4 93.5 25.2 L93.35 24.9 Q93.15 24.65 92.95 24.75 L91.6 28.45 Q90.3 32.3 90.3 33.05 L90.9 35.05 90.95 35.55 91.05 36.1 88.8 38.85 86.95 40.75 Q85.25 42.75 85.05 43.6 84.7 44.9 82.25 46.3 79.35 47.95 79.0 48.45 L79.4 48.7 80.65 48.65 86.4 46.75 86.35 47.05 85.55 48.2 86.25 47.5 84.5 52.15 Q82.5 56.3 79.65 60.5 72.25 71.45 64.9 73.55 L64.3 72.05 Q63.9 72.5 63.2 74.85 62.4 77.15 62.4 78.05 62.4 79.15 63.25 80.35 L64.0 81.25 62.95 82.3 58.65 86.4 Q55.8 88.55 50.15 90.75 44.4 92.95 40.15 93.35 L39.05 93.15 38.15 92.6 Q37.7 92.8 37.15 94.05 36.25 95.15 33.8 95.65 L32.45 98.3 30.65 100.45 27.2 100.9 25.15 99.55 21.05 99.9 19.65 98.95 Q18.45 98.1 17.95 98.2 17.45 98.2 16.95 98.7 16.4 99.25 15.9 99.3 L10.85 98.9 Q5.8 98.05 5.8 95.75 5.8 95.15 6.1 94.9 L6.35 94.6 1.1 91.65 Q-0.8 90.8 -3.15 91.05 L-4.1 91.15 -4.65 91.55 -4.85 93.0 -8.45 93.35 Q-9.7 92.95 -12.25 91.35 -15.85 89.1 -16.1 89.0 L-15.15 90.2 Q-17.55 88.45 -19.75 85.05 -22.95 80.2 -25.0 73.35 L-25.35 73.3 Q-25.65 73.4 -25.85 75.0 L-25.4 77.75 -25.6 77.55 Q-27.8 76.05 -28.1 76.05 -29.15 76.15 -28.75 76.4 -29.15 78.35 -30.45 79.8 L-30.6 81.6 -34.85 78.3 Q-39.15 74.65 -41.55 71.6 L-47.8 63.55 Q-49.75 60.05 -51.65 50.8 L-50.6 49.95 -50.15 49.25 Q-51.3 48.0 -51.95 47.75 L-53.55 47.75 -55.25 48.1 -55.65 48.2 Q-57.45 47.45 -58.0 46.85 -59.55 45.15 -60.35 43.45 L-60.8 40.35 Q-61.15 37.75 -62.2 36.7 -64.6 34.5 -66.35 30.35 L-68.95 24.3 -69.25 21.45 -67.75 17.35 -66.55 14.1 -66.85 13.7 -68.55 13.85 -68.7 12.0 Q-67.4 9.65 -68.1 6.85 -68.75 4.3 -69.75 4.3 L-70.85 4.25 -71.65 3.45 -71.7 2.15 Q-71.35 0.7 -70.7 0.1 -69.85 -0.95 -69.85 -2.1 -69.85 -2.7 -70.35 -3.75 L-70.8 -5.45 Q-70.8 -6.8 -69.85 -10.35 L-68.65 -13.75 Q-67.65 -15.9 -66.35 -15.85 L-65.2 -15.6 -64.9 -15.35 Q-65.15 -16.35 -64.4 -18.1 -63.55 -20.05 -63.55 -20.45 L-63.75 -22.1 -63.95 -23.35 Q-64.0 -24.5 -64.45 -24.65 L-65.85 -25.45 Q-66.9 -26.65 -67.1 -28.75 L-67.15 -31.75 -67.05 -33.15 -65.75 -35.7 -62.7 -41.45 Q-58.35 -48.35 -49.75 -51.85 -49.25 -52.35 -48.2 -54.9 L-47.2 -57.7 -47.45 -59.5 -49.1 -59.6 -49.4 -59.55 -48.65 -61.8 Q-42.2 -67.4 -32.1 -69.7 L-32.1 -69.65 Q-32.1 -68.3 -31.65 -68.05 L-29.65 -71.6 Q-28.4 -74.15 -28.4 -75.6 -28.4 -76.6 -28.95 -77.6 -29.5 -78.8 -30.35 -79.05 L-30.25 -79.05 Q-30.05 -79.05 -30.05 -79.75 -30.05 -80.2 -30.3 -80.4 L-31.75 -81.5 Q-31.35 -83.4 -27.1 -86.1 L-24.8 -87.7 -21.9 -89.35 Q-9.9 -96.05 -1.6 -94.75 L-1.85 -94.2 -1.7 -93.6 3.15 -96.45 Q5.8 -97.85 8.05 -98.5 12.2 -99.85 21.7 -100.1 L23.65 -98.35 Q25.9 -96.3 27.85 -96.1 L29.55 -95.95 30.6 -96.7 31.5 -97.45 Q34.15 -96.45 36.75 -94.85 41.85 -91.6 41.9 -88.35 L41.45 -87.65 Q41.05 -87.15 41.55 -87.45 43.7 -86.35 44.8 -86.25 L45.9 -86.4 46.65 -87.05 46.95 -89.95 47.85 -90.2 Q49.6 -88.8 51.15 -87.25 54.8 -83.5 54.8 -81.1 54.8 -79.35 56.5 -78.15 57.8 -77.2 58.95 -77.1 L59.65 -77.1 59.9 -77.25 60.1 -78.3 60.45 -78.45 61.25 -78.65" fill="#ff0000" fill-rule="evenodd" stroke="none"/>
  </g>
</svg>
