<?xml version="1.0" encoding="UTF-8" standalone="no"?>
<svg xmlns:ffdec="https://www.free-decompiler.com/flash" xmlns:xlink="http://www.w3.org/1999/xlink" ffdec:objectType="shape" height="283.1px" width="228.8px" xmlns="http://www.w3.org/2000/svg">
  <g transform="matrix(1.0, 0.0, 0.0, 1.0, 112.9, 144.3)">
    <path d="M83.1 -101.4 L84.1 -101.1 84.7 -100.35 Q85.05 -99.75 85.0 -99.1 85.15 -98.7 84.65 -99.3 L83.9 -100.2 83.1 -101.0 83.05 -101.05 83.1 -101.4 M10.8 -132.95 L11.05 -133.15 Q15.95 -132.45 17.6 -130.95 16.15 -130.55 10.8 -132.95 M58.75 -130.85 Q58.05 -131.7 58.35 -132.05 L59.35 -131.25 59.2 -130.55 59.2 -130.4 58.75 -130.85 M52.5 -113.95 L52.9 -114.1 53.85 -114.0 54.55 -113.45 Q54.9 -113.4 54.3 -113.15 L53.3 -113.2 52.55 -113.6 52.45 -113.9 52.5 -113.95 M58.25 -113.65 L58.25 -114.0 59.0 -113.9 59.85 -113.4 59.6 -113.2 Q58.8 -113.3 58.25 -113.65 M44.0 -94.95 Q43.15 -95.7 42.95 -96.25 43.65 -96.1 44.45 -95.4 L45.15 -94.55 45.05 -94.25 44.0 -94.95 M85.75 -79.2 Q86.55 -79.0 87.15 -78.4 L87.9 -77.6 87.55 -77.5 Q87.2 -77.65 86.7 -78.15 L85.55 -79.0 85.75 -79.2 M93.3 -63.95 L95.4 -61.5 94.3 -62.65 93.3 -63.95 M89.35 -72.65 L90.1 -71.1 Q89.6 -70.95 89.45 -71.25 L89.25 -71.85 Q89.05 -72.55 89.15 -72.7 L89.35 -72.65 M106.5 -65.55 L106.65 -63.95 106.4 -64.1 106.05 -65.85 106.5 -65.55 M105.75 -57.7 Q106.2 -58.1 106.05 -57.6 L106.3 -55.9 106.5 -53.8 Q105.85 -54.75 105.55 -57.4 L105.5 -57.4 105.75 -57.7 M105.05 -50.95 Q106.5 -46.2 106.25 -44.2 105.5 -45.5 104.8 -51.15 L105.05 -50.95 M110.95 -34.8 L110.25 -37.05 110.55 -37.7 110.75 -37.2 111.15 -36.05 111.05 -34.95 110.95 -34.8 M95.4 -6.0 L95.2 -6.1 95.2 -7.4 Q95.3 -8.55 95.6 -8.9 95.8 -8.1 95.65 -7.15 L95.4 -6.0 M115.7 -16.2 L115.15 -15.1 114.7 -14.95 114.6 -15.45 Q114.7 -16.0 115.15 -16.75 L115.8 -17.85 115.9 -17.2 115.7 -16.2 M112.55 3.0 Q112.3 2.0 112.35 1.45 L112.5 1.35 112.75 2.1 112.8 3.15 112.55 3.0 M104.6 8.8 L104.8 8.95 104.7 10.35 104.55 11.35 Q104.15 10.4 104.6 8.8 M98.0 46.15 L97.85 47.0 97.3 47.15 Q97.25 46.85 97.35 46.5 97.4 46.15 97.55 46.1 L97.85 45.85 98.0 46.15 M102.35 47.25 L102.1 46.85 102.15 45.55 102.25 44.0 102.45 44.0 102.55 46.05 102.35 47.25 M99.7 50.7 L99.7 50.95 99.0 52.4 Q98.7 51.9 98.9 51.65 L99.2 51.15 Q99.5 50.65 99.7 50.7 M96.4 72.15 Q96.4 71.45 97.35 70.1 98.35 68.7 98.9 68.75 L97.85 70.55 96.6 72.25 96.4 72.15 M96.55 76.95 L96.85 77.2 Q97.35 77.6 96.95 77.6 L95.9 78.75 94.5 79.9 Q94.85 78.7 96.6 77.1 L96.55 76.95 M83.1 94.65 Q83.15 94.25 84.4 92.65 L85.0 92.7 84.7 93.3 84.1 94.25 83.25 94.7 83.1 94.65 M78.05 3.05 L77.9 2.4 77.95 1.5 78.25 1.3 78.35 1.95 78.4 2.95 78.05 3.05 M53.65 56.0 L53.55 55.55 Q54.2 55.2 55.6 56.2 56.95 57.1 57.3 57.85 57.0 57.9 55.5 57.1 L53.65 56.0 M40.65 70.2 Q40.8 69.85 41.1 69.75 L41.85 69.35 42.05 69.7 41.65 70.1 40.85 70.65 40.65 70.2 M78.35 87.75 L77.5 88.6 77.1 88.9 77.0 88.6 77.6 87.95 78.15 87.45 78.35 87.75 M72.25 110.25 L71.4 110.45 70.35 110.35 70.05 109.75 70.35 109.3 71.6 109.4 72.7 109.75 72.25 110.25 M45.9 109.55 L44.95 109.9 Q45.55 108.85 47.05 108.55 L47.05 108.95 45.9 109.55 M12.65 119.25 L12.95 119.55 12.75 120.0 11.95 120.15 11.55 119.45 12.15 119.25 Q12.5 119.1 12.65 119.25 M24.05 132.2 L21.45 134.45 Q20.95 134.35 20.85 134.15 21.8 132.6 24.05 132.2 M-58.95 -125.85 L-59.9 -125.0 -60.1 -125.05 Q-60.1 -126.1 -59.15 -126.3 L-58.95 -125.85 M-45.15 -132.15 L-44.2 -132.55 Q-43.5 -132.9 -42.85 -132.35 -42.35 -132.3 -43.15 -131.8 L-44.35 -131.3 -45.4 -130.5 -45.55 -130.55 -45.85 -130.75 Q-45.7 -131.85 -45.15 -132.15 M-0.2 -143.6 L-0.45 -143.3 -2.25 -143.85 -1.8 -144.3 Q-0.65 -144.0 -0.2 -143.6 M-3.95 -124.15 L-5.5 -123.45 -2.45 -125.1 Q-2.75 -124.8 -3.95 -124.15 M-18.7 -130.95 L-22.0 -129.3 -22.4 -129.4 -22.4 -129.6 -22.3 -130.3 -20.8 -131.2 -18.85 -131.65 -18.7 -130.95 M-8.2 -122.55 L-8.15 -122.2 -10.7 -121.25 Q-12.05 -120.85 -13.55 -120.75 L-13.65 -121.05 -10.9 -122.1 -8.2 -122.55 M-84.75 -111.6 L-84.65 -111.55 -85.25 -111.15 -86.65 -111.2 -85.5 -112.35 -84.75 -111.6 M-87.8 -35.55 Q-87.8 -33.75 -88.65 -33.2 -88.6 -35.4 -88.35 -35.85 L-87.8 -35.55 M-105.5 -11.1 Q-105.95 -9.1 -106.5 -8.7 L-106.5 -10.95 -106.3 -13.65 -105.85 -15.05 Q-105.4 -15.55 -105.0 -15.4 L-104.7 -14.5 -105.5 -11.1 M-107.45 -1.4 L-106.6 3.45 -106.8 3.9 -106.95 3.85 -107.65 3.45 -108.25 1.2 Q-108.5 -0.6 -108.2 -1.55 L-107.45 -1.4 M-95.7 -11.6 L-95.4 -7.8 Q-95.4 -5.9 -95.7 -3.95 L-96.05 -3.95 -96.25 -7.8 -96.05 -11.6 -95.7 -11.6 M-36.7 -68.9 L-33.85 -68.65 -33.55 -68.35 -36.35 -67.65 -40.0 -67.9 Q-38.5 -68.7 -36.7 -68.9 M-54.35 -87.15 L-56.6 -87.35 -56.45 -87.75 -54.45 -87.7 Q-54.2 -87.45 -54.35 -87.15 M-69.2 -92.55 Q-69.25 -93.35 -68.75 -93.9 L-68.0 -94.6 Q-67.8 -95.15 -67.8 -94.05 -67.8 -93.35 -68.2 -92.65 L-68.85 -91.65 -69.15 -91.7 -69.2 -91.85 -69.2 -92.55 M-78.6 -63.55 L-77.6 -64.4 -77.3 -63.65 -77.75 -62.4 -78.15 -62.45 -78.6 -63.55 M-53.8 46.75 Q-54.05 44.7 -53.75 42.6 -53.5 40.1 -52.7 39.5 L-52.35 39.3 Q-52.25 40.7 -52.6 42.7 -52.95 45.65 -53.8 46.75 M-75.65 59.3 L-75.95 59.1 Q-76.05 58.0 -75.3 56.85 L-74.8 56.9 Q-75.0 58.4 -75.65 59.3 M-61.35 88.15 L-60.65 88.0 -59.75 88.8 -59.85 89.25 -61.0 89.4 -61.35 88.15 M-13.25 66.25 L-12.9 63.25 -12.55 62.95 Q-12.1 63.65 -12.4 66.0 -12.8 68.25 -13.25 69.1 -13.45 68.75 -13.25 66.25 M-112.1 21.95 L-112.05 21.85 -112.0 21.1 -110.25 22.9 Q-109.35 23.8 -109.25 24.9 L-109.45 25.1 -110.3 24.95 -111.4 23.5 -112.1 21.95 M-112.9 50.1 L-112.45 50.05 Q-112.1 50.4 -111.9 51.4 L-112.0 51.65 Q-112.95 51.3 -112.9 50.1 M-99.9 56.45 Q-98.0 57.05 -96.85 60.0 -97.2 60.0 -100.05 57.55 L-99.9 56.45 M-34.75 114.4 L-35.2 113.9 -35.0 113.65 Q-34.7 113.7 -34.1 114.05 L-33.4 114.7 -33.55 115.1 -34.75 114.4 M-27.25 127.0 Q-25.9 127.7 -25.7 128.25 L-27.4 127.85 -29.3 127.15 -30.25 126.55 Q-30.5 126.0 -30.25 125.7 L-29.5 125.55 Q-29.05 126.05 -27.25 127.0 M-7.5 134.7 L-9.65 134.15 Q-11.35 133.7 -11.75 133.3 L-11.65 132.95 -9.4 133.1 Q-7.7 133.75 -7.5 134.7 M-2.75 137.05 L-3.05 137.7 -4.35 138.4 -5.65 138.8 -5.7 138.65 -6.15 138.5 -4.4 137.25 Q-3.5 136.65 -2.8 136.8 L-2.75 137.05 M-40.8 105.25 Q-39.4 105.65 -39.15 106.5 -40.95 106.0 -41.15 105.65 L-40.8 105.25" fill="#d2ffd2" fill-opacity="0.6" fill-rule="evenodd" stroke="none"/>
    <path d="M21.1 -129.65 L19.0 -129.75 18.5 -130.5 19.0 -130.65 20.1 -130.55 21.05 -129.95 21.1 -129.65 M6.65 -131.1 L3.5 -131.55 3.4 -131.6 Q3.3 -131.6 3.15 -131.7 L3.8 -131.85 6.65 -131.5 6.65 -131.1 M24.2 -117.6 Q22.95 -118.65 22.15 -120.25 L22.3 -120.5 24.6 -118.15 Q24.55 -117.7 24.2 -117.6 M28.0 -111.95 L27.25 -112.25 26.45 -112.6 26.5 -113.0 27.6 -112.55 Q27.85 -112.4 28.05 -112.3 L28.0 -111.95 M34.6 -105.35 Q35.95 -105.35 36.25 -105.0 L36.2 -104.7 Q35.0 -104.75 34.6 -105.35 M45.9 -108.15 L46.9 -107.95 46.95 -107.6 44.95 -107.25 43.2 -107.65 43.0 -107.75 44.6 -108.05 45.9 -108.15 M70.85 -75.95 Q70.7 -75.8 70.45 -75.95 70.2 -77.0 70.35 -77.8 L70.6 -77.65 Q70.9 -77.0 70.85 -75.95 M80.2 -77.65 L80.5 -77.85 80.95 -77.25 80.9 -76.55 80.5 -76.85 80.25 -77.3 80.2 -77.65 M41.55 -69.15 Q42.0 -69.05 42.3 -68.75 L42.25 -68.3 41.65 -68.4 41.0 -68.75 40.95 -69.2 41.55 -69.15 M22.6 -74.4 Q21.95 -76.35 22.1 -77.2 L23.15 -74.9 24.1 -72.4 23.95 -71.9 Q23.25 -72.35 22.6 -74.4 M72.95 -22.0 L72.55 -22.05 Q72.5 -22.85 73.6 -24.15 74.55 -25.4 75.2 -25.65 L74.15 -23.7 72.95 -22.0 M84.8 -78.65 L85.25 -77.75 85.6 -76.75 85.05 -77.15 84.55 -78.6 84.8 -78.65 M100.95 -58.9 L101.3 -58.45 102.15 -55.65 101.95 -55.55 100.95 -58.55 101.0 -58.7 Q100.9 -58.8 100.95 -58.9 M102.4 -52.7 L102.6 -51.65 102.3 -51.2 101.95 -51.65 101.4 -54.0 Q101.0 -55.4 101.2 -55.8 L101.75 -54.45 102.4 -52.7 M98.05 -19.5 L97.8 -19.5 Q97.3 -20.65 97.55 -21.2 L98.05 -19.5 M103.7 -10.6 L104.0 -9.45 103.8 -9.3 102.8 -11.25 Q102.5 -12.05 102.35 -13.2 L102.35 -13.4 103.15 -11.95 103.7 -10.6 M107.2 8.0 L107.35 7.7 Q107.4 7.3 107.55 7.25 L107.8 7.35 107.65 8.05 107.35 9.1 107.3 9.25 107.15 8.8 107.2 8.0 M84.9 13.75 Q83.95 15.1 83.35 15.15 L83.1 15.05 84.4 13.05 Q85.65 11.3 86.4 11.2 L84.9 13.75 M100.55 44.0 L100.55 43.25 Q100.7 42.65 101.3 42.0 L101.4 42.3 101.1 43.2 100.55 44.0 M93.8 27.4 L93.6 27.0 Q94.2 26.3 94.75 26.2 L94.8 26.45 93.8 27.4 M114.8 28.85 L114.55 30.0 114.1 29.85 114.0 29.9 114.2 29.45 Q114.45 28.6 114.8 28.85 M96.0 62.05 L96.05 62.15 96.25 62.65 95.8 64.25 94.9 65.9 94.65 65.5 95.8 62.25 96.0 62.05 M93.3 71.5 L92.6 72.85 91.65 74.35 91.05 75.15 Q90.7 75.2 90.6 74.9 L90.75 74.3 92.15 72.6 Q92.95 71.5 93.3 71.5 M81.0 96.1 L79.85 96.7 80.0 96.25 81.15 95.45 81.0 96.1 M78.7 26.85 L78.35 26.9 78.35 26.85 78.3 26.55 78.9 26.1 79.7 25.65 80.0 25.65 80.05 25.7 80.1 25.9 79.5 26.45 78.7 26.85 M32.75 81.65 Q33.65 81.75 34.9 82.4 36.8 83.15 37.2 84.15 35.85 84.0 34.5 83.45 33.0 82.8 32.8 81.95 L32.75 81.65 M21.1 81.05 L21.15 81.1 21.35 80.9 22.0 81.55 Q22.5 81.8 22.65 82.35 L22.75 82.8 22.75 82.9 22.6 83.05 21.9 82.5 21.25 81.6 21.1 81.05 M29.85 93.8 L30.45 97.25 Q30.1 97.15 29.9 96.9 L29.5 95.5 28.75 92.35 Q28.75 91.0 28.95 90.65 L29.85 93.8 M72.65 76.75 L72.7 76.75 71.6 78.05 71.45 77.9 71.9 77.2 72.5 76.55 72.75 76.6 72.65 76.75 M47.85 111.15 L48.45 110.7 48.85 110.75 49.2 110.85 49.2 111.25 48.65 111.35 47.7 111.55 47.5 111.55 47.85 111.15 M11.7 133.1 L10.8 133.15 Q10.1 133.05 9.85 132.45 9.55 132.35 10.35 132.2 L11.45 132.2 12.55 131.9 12.65 131.95 12.75 132.25 Q12.2 133.05 11.7 133.1 M33.25 132.95 L33.2 132.85 33.7 132.75 Q34.5 132.85 34.45 133.4 L33.35 133.7 Q33.15 133.35 33.25 132.95 M-21.0 -112.3 L-21.45 -111.95 -22.0 -111.8 -22.4 -112.0 -22.4 -112.5 -21.65 -112.9 -21.0 -112.3 M-4.6 -112.15 L-4.15 -112.3 -3.6 -111.15 Q-3.1 -109.7 -3.1 -107.75 L-3.35 -103.85 -3.75 -104.5 Q-3.95 -105.75 -3.8 -108.4 -3.9 -110.65 -4.6 -112.15 M-95.2 -53.75 L-94.25 -54.7 -93.9 -54.65 -94.6 -51.75 Q-95.25 -51.4 -95.5 -51.45 L-95.5 -52.25 -95.2 -53.75 M-82.1 -58.4 L-82.4 -58.85 Q-82.8 -59.8 -82.1 -61.25 -81.45 -62.85 -80.25 -63.2 -80.75 -62.25 -81.25 -60.1 -81.65 -58.6 -82.05 -58.5 L-82.1 -58.4 M-84.0 -51.9 L-80.9 -53.85 Q-80.45 -53.65 -80.5 -53.0 -81.9 -51.85 -83.75 -51.5 L-84.0 -51.9 M-96.85 -39.3 Q-96.8 -37.85 -98.55 -35.05 L-98.45 -34.9 -99.0 -34.95 Q-100.05 -35.25 -99.3 -35.35 L-98.3 -37.15 -96.85 -39.3 M-95.1 -29.05 Q-93.65 -35.55 -91.75 -37.15 -91.6 -35.15 -94.85 -28.7 L-95.1 -29.05 M-89.55 -3.7 L-89.3 -5.75 Q-88.55 -5.45 -88.65 -5.0 L-88.8 -4.3 Q-89.1 -3.55 -89.35 -3.45 L-89.55 -3.7 M-82.05 -12.75 Q-80.45 -12.85 -78.6 -12.0 L-74.95 -10.1 -75.7 -9.85 Q-76.95 -10.25 -79.45 -11.4 -81.65 -12.2 -83.35 -11.95 L-83.45 -12.55 -82.05 -12.75 M-27.6 -54.2 Q-27.3 -54.15 -27.15 -53.9 L-27.4 -53.15 -27.95 -52.45 -28.35 -52.7 -28.1 -53.35 -27.6 -54.2 M-44.55 -90.95 Q-44.85 -89.7 -46.45 -88.95 L-46.6 -89.25 -45.5 -90.25 Q-44.75 -90.75 -44.55 -90.95 M-66.4 -90.5 L-66.15 -89.95 Q-66.5 -88.8 -66.95 -88.25 L-67.25 -88.35 Q-67.45 -88.6 -67.0 -89.4 L-66.4 -90.5 M-74.65 -53.75 L-75.05 -53.95 -74.3 -55.3 -73.9 -55.75 -73.6 -55.6 -74.1 -54.6 -74.65 -53.75 M-73.05 47.3 L-73.4 47.35 -73.95 45.75 -74.35 44.5 Q-73.3 45.2 -73.05 47.3 M-56.55 48.15 L-59.75 50.55 -59.5 49.65 -58.3 48.4 -55.5 45.95 Q-54.25 45.4 -53.8 45.5 L-56.55 48.15 M-79.7 69.1 L-79.25 68.95 Q-78.3 69.55 -77.9 70.3 L-78.05 70.6 Q-78.4 70.65 -79.0 70.1 L-79.7 69.1 M-56.35 94.05 L-56.85 94.25 Q-57.75 94.35 -58.8 93.35 -59.95 92.25 -59.9 91.0 L-57.65 92.75 Q-56.5 93.45 -56.55 94.05 L-56.35 94.05 M-26.2 98.65 Q-25.35 98.95 -25.35 99.1 L-25.2 99.45 -25.45 99.3 -25.4 99.45 -27.1 98.6 -26.95 98.3 Q-26.85 98.25 -26.2 98.65 M-100.95 41.05 Q-100.8 42.05 -100.45 42.5 L-100.4 42.65 -100.6 42.95 Q-101.75 42.55 -101.85 41.9 L-102.25 40.65 Q-102.35 39.6 -101.75 39.0 -101.65 38.45 -101.35 39.5 L-100.95 41.05 M-15.95 113.25 L-16.15 113.4 -17.65 112.8 Q-17.25 112.1 -16.8 112.3 L-16.4 112.65 Q-15.9 113.0 -15.95 113.25 M-36.75 113.4 Q-41.3 110.65 -42.1 108.5 -40.4 108.8 -36.35 113.3 L-36.75 113.4 M-4.95 126.25 Q-6.25 126.2 -6.75 125.85 -6.85 125.5 -6.6 125.25 L-3.05 125.05 -2.85 125.3 -2.9 125.45 -3.3 125.95 -4.95 126.25 M-42.7 116.1 L-43.85 114.8 -45.1 112.95 Q-43.9 113.15 -42.25 115.45 L-42.1 115.4 -42.3 115.95 Q-42.75 116.8 -42.7 116.1 M-41.35 123.1 L-42.4 121.65 -41.9 121.6 Q-41.1 122.15 -40.65 122.85 L-41.35 123.1" fill="#d2ffd2" fill-opacity="0.6" fill-rule="evenodd" stroke="none"/>
  </g>
</svg>
