<?xml version="1.0" encoding="UTF-8" standalone="no"?>
<svg xmlns:ffdec="https://www.free-decompiler.com/flash" xmlns:xlink="http://www.w3.org/1999/xlink" ffdec:objectType="shape" height="281.45px" width="229.15px" xmlns="http://www.w3.org/2000/svg">
  <g transform="matrix(1.0, 0.0, 0.0, 1.0, 115.7, 141.1)">
    <path d="M28.55 -134.9 L26.9 -135.15 Q25.35 -135.6 25.3 -135.8 L25.6 -135.9 Q28.05 -135.4 28.4 -135.1 L28.55 -134.9 M22.55 -128.2 Q20.4 -128.8 18.6 -130.55 L18.85 -130.85 21.05 -129.8 Q22.45 -128.95 22.55 -128.2 M12.85 -139.15 L12.95 -138.55 Q11.45 -138.95 7.9 -140.95 8.35 -141.4 10.2 -140.55 L12.85 -139.15 M0.7 -122.8 L-4.8 -122.6 -5.05 -123.0 -4.25 -123.25 1.0 -122.95 0.7 -122.8 M63.0 -124.25 L62.05 -125.85 62.3 -126.2 62.65 -126.2 63.65 -125.0 63.45 -124.0 63.0 -124.25 M58.75 -112.3 L57.9 -112.55 Q57.2 -112.65 56.8 -112.95 L56.7 -113.2 57.85 -113.1 Q58.7 -113.05 59.1 -112.5 L58.75 -112.3 M62.1 -112.65 L62.6 -112.55 63.3 -111.65 Q62.6 -111.85 62.2 -112.2 L62.1 -112.65 M48.9 -88.75 Q48.6 -88.8 48.25 -89.45 L47.95 -90.3 48.0 -90.8 49.15 -89.0 49.25 -88.75 48.9 -88.75 M87.7 -95.25 L88.1 -94.75 88.15 -94.3 88.0 -94.05 87.65 -94.25 87.15 -94.8 86.85 -95.45 87.05 -95.9 87.7 -95.25 M90.05 -75.2 L90.85 -74.0 91.45 -72.8 91.45 -72.55 90.65 -73.7 89.9 -75.0 90.05 -75.2 M91.75 -68.45 L91.95 -68.35 93.4 -66.8 93.9 -66.1 92.85 -66.7 91.95 -67.4 91.8 -67.8 91.75 -68.45 M106.8 -50.4 L106.75 -51.2 107.0 -51.0 107.45 -50.35 107.45 -49.1 Q107.25 -48.4 107.35 -48.2 L107.15 -48.55 106.85 -49.7 106.8 -50.4 M108.25 -55.85 Q108.65 -55.55 108.9 -53.65 L109.1 -50.8 108.8 -50.6 Q108.4 -52.1 108.25 -55.85 M112.2 -37.95 L112.85 -34.95 112.75 -34.8 112.3 -36.45 Q111.9 -38.0 112.0 -38.15 L112.2 -37.95 M107.0 -40.6 Q107.0 -39.05 106.6 -38.7 106.1 -41.0 106.4 -43.15 L106.65 -43.0 107.0 -40.6 M110.6 -31.5 L111.25 -31.45 111.0 -29.95 110.55 -30.35 110.6 -31.5 M93.5 -1.15 L93.9 -1.7 94.2 -1.85 93.55 -0.05 93.5 0.2 93.3 -0.25 Q93.2 -0.55 93.5 -1.15 M112.9 -10.25 Q112.85 -8.25 111.05 -8.15 L111.9 -9.65 Q112.45 -10.55 112.75 -10.65 112.9 -11.15 112.9 -10.25 M113.05 6.0 L113.35 5.8 113.45 6.35 113.2 7.4 113.05 6.0 M103.8 17.15 L104.0 15.65 104.15 15.6 104.4 15.65 104.25 17.1 104.05 18.45 103.85 18.65 Q103.75 18.35 103.8 17.15 M101.65 50.75 L101.3 52.2 100.75 53.35 100.55 53.4 Q100.6 52.8 101.0 51.95 L101.55 50.6 101.65 50.75 M96.15 49.65 L96.35 49.9 95.95 50.55 95.6 50.85 95.45 50.75 95.3 50.5 95.6 50.15 96.15 49.65 M97.6 58.1 L97.3 59.0 97.3 57.6 Q97.25 56.45 97.35 56.15 L97.55 55.8 Q97.8 55.45 97.95 55.55 L98.0 55.75 97.6 58.1 M93.75 78.5 L92.95 80.2 92.85 79.5 93.45 77.8 94.2 76.35 94.25 76.25 94.35 76.85 93.75 78.5 M92.85 81.4 L92.8 81.75 92.55 82.65 91.65 83.25 90.95 83.6 91.2 83.15 91.85 82.2 92.35 81.9 92.85 81.4 M48.8 55.45 Q49.65 54.95 50.1 54.8 50.9 54.45 51.3 55.05 L51.05 55.35 48.95 55.65 48.8 55.45 M74.95 90.65 Q74.9 91.85 74.1 92.75 L73.2 93.4 73.1 93.15 74.0 91.85 74.95 90.65 M79.55 97.1 Q79.45 96.8 79.65 96.3 L80.5 95.8 Q80.95 96.1 80.75 96.75 L79.55 97.1 M41.35 111.55 L41.4 111.95 40.15 112.55 38.95 113.0 38.7 112.9 39.95 111.95 41.25 111.45 41.35 111.55 M63.25 108.4 L64.7 108.75 Q65.65 109.05 65.9 109.4 66.25 109.3 65.65 109.8 64.1 110.8 63.25 108.4 M8.05 119.45 L7.65 119.15 7.65 118.85 7.8 118.5 8.25 118.75 8.9 119.3 8.8 119.65 Q8.25 119.7 8.05 119.45 M14.1 135.15 L14.2 134.75 15.1 134.85 17.0 134.95 17.25 135.05 17.5 135.25 17.35 135.6 16.7 135.8 15.15 136.1 14.1 135.15 M-55.0 -129.0 Q-53.75 -129.4 -53.3 -129.95 L-52.9 -129.25 -53.15 -129.0 -54.8 -128.6 -55.0 -129.0 M-76.3 -114.2 L-76.7 -113.75 Q-77.5 -113.85 -78.75 -113.2 L-79.1 -113.9 -79.0 -114.35 -77.3 -115.15 -76.3 -114.2 M-65.45 -100.2 L-65.9 -99.0 -66.75 -97.55 -67.05 -97.6 -66.55 -99.3 Q-66.2 -100.55 -65.55 -100.75 L-65.45 -100.2 M-14.8 -132.2 L-14.4 -131.6 -14.5 -131.5 -15.95 -131.45 -16.05 -131.65 -15.55 -132.45 -15.4 -132.6 -14.8 -132.2 M-37.75 -132.95 L-38.45 -132.9 -38.8 -133.45 -37.95 -134.05 -37.25 -134.4 -36.85 -134.15 -36.6 -133.85 Q-36.5 -133.65 -36.9 -133.3 L-37.75 -132.95 M-87.8 -40.35 L-87.75 -39.95 -88.4 -40.0 Q-88.75 -42.6 -87.95 -43.6 -87.6 -42.5 -87.8 -40.35 M-102.15 -23.4 Q-102.05 -23.1 -102.45 -21.95 -102.8 -20.65 -103.45 -19.65 L-104.2 -19.4 -103.95 -20.55 -103.4 -22.15 -102.75 -22.9 -102.15 -23.4 M-106.95 -7.25 L-106.9 -7.15 -107.2 -5.3 -107.5 -5.2 -108.2 -6.2 -108.25 -6.45 -107.7 -7.1 -106.95 -7.25 M-93.85 -23.45 Q-94.85 -19.5 -95.2 -16.1 L-95.6 -15.95 -95.7 -17.1 Q-95.7 -19.75 -93.95 -23.9 L-93.85 -23.45 M-30.05 -69.05 L-30.2 -69.25 -30.3 -69.65 Q-29.3 -70.7 -27.6 -70.85 L-25.2 -70.65 -25.05 -70.25 -27.4 -69.7 Q-29.4 -69.45 -30.05 -69.05 M-48.75 -87.55 L-46.75 -87.3 Q-47.6 -86.55 -48.9 -86.85 -50.0 -87.1 -50.45 -87.6 L-48.75 -87.55 M-51.95 35.1 L-52.15 35.2 -52.6 35.15 Q-53.15 33.6 -52.8 31.65 -52.55 30.05 -51.9 29.0 L-51.5 28.9 -51.7 31.8 -51.95 35.1 M-74.15 52.3 L-73.7 50.5 -72.85 48.25 Q-72.45 49.4 -73.1 50.9 -73.6 52.0 -74.15 52.3 M-12.9 59.7 L-13.3 59.55 Q-14.3 58.15 -14.3 56.85 L-14.2 56.6 -13.15 58.0 Q-12.55 58.95 -12.9 59.7 M-114.35 16.05 L-114.75 16.05 -115.25 15.2 -115.4 14.0 -115.7 12.0 -114.9 10.2 Q-114.4 11.6 -114.35 13.65 L-114.35 16.05 M-102.85 47.45 L-102.4 47.35 -102.3 48.75 -101.85 51.4 -101.85 51.75 -102.05 52.25 -102.45 52.2 -102.9 51.4 -103.6 49.4 -102.85 47.45 M-114.3 41.7 L-114.2 42.1 -114.2 44.25 -114.65 44.3 Q-114.7 42.65 -115.15 42.0 -114.85 41.65 -114.3 41.7 M-37.75 111.8 L-40.1 111.75 -41.05 110.75 -40.8 110.45 -39.2 111.05 Q-38.3 111.4 -37.75 111.8 M-35.25 122.1 L-35.4 121.45 -34.4 122.05 Q-33.55 122.6 -33.0 123.4 L-33.0 124.15 -33.85 123.7 -34.8 122.85 -35.25 122.1 M-16.5 132.3 L-17.05 132.75 -18.85 132.85 -20.8 132.7 -20.1 132.05 -18.3 131.95 -16.6 132.15 -16.5 132.3 M-13.55 140.25 L-14.5 139.2 -12.05 139.25 Q-11.1 139.45 -10.3 139.8 L-10.5 140.05 -11.2 140.35 -12.1 140.3 -13.55 140.25 M-47.2 103.6 Q-46.25 103.4 -44.55 104.1 L-44.2 104.2 Q-44.0 104.3 -44.5 104.75 -46.65 104.55 -47.2 103.6" fill="#d2ffd2" fill-opacity="0.6" fill-rule="evenodd" stroke="none"/>
    <path d="M24.9 -126.9 L23.9 -127.6 Q23.7 -128.3 24.2 -128.5 L25.35 -127.4 24.9 -126.9 M11.75 -130.5 L10.6 -130.8 10.35 -131.25 13.0 -131.4 13.45 -131.25 13.55 -131.2 13.6 -130.9 11.75 -130.5 M29.8 -116.25 L30.95 -115.5 Q30.35 -115.2 29.1 -115.5 27.9 -115.95 27.4 -116.45 L28.55 -116.35 29.8 -116.25 M31.85 -110.6 L30.6 -110.9 Q31.25 -111.7 32.3 -111.35 L33.2 -110.75 33.2 -110.45 31.85 -110.6 M38.8 -104.45 Q38.55 -104.55 38.8 -105.0 40.3 -105.3 41.05 -104.55 L39.15 -104.45 38.8 -104.45 M52.4 -108.15 L53.4 -107.95 Q53.95 -107.75 53.9 -107.1 54.25 -106.95 53.65 -107.0 L49.2 -107.95 49.2 -108.3 52.4 -108.15 M71.5 -71.2 L71.55 -69.45 Q71.05 -70.15 71.05 -71.3 71.05 -72.2 71.3 -72.6 L71.5 -71.2 M27.65 -67.7 L27.6 -67.45 26.3 -68.15 Q25.5 -68.75 25.5 -69.45 L25.8 -69.45 Q27.05 -68.75 27.65 -67.7 M70.95 -16.8 L70.95 -18.35 Q71.0 -19.45 71.5 -19.6 L71.65 -19.35 Q71.65 -17.75 71.2 -16.85 L70.95 -16.8 M82.3 -74.2 L82.5 -74.3 82.85 -73.65 82.9 -73.1 82.8 -72.85 82.6 -72.85 82.45 -73.35 82.3 -74.2 M86.95 -73.2 L86.85 -73.75 Q86.85 -74.55 86.95 -74.4 87.95 -72.15 87.85 -71.6 L87.15 -72.65 86.95 -73.2 M104.5 -49.6 L104.6 -49.15 104.6 -49.05 104.4 -48.9 Q103.7 -49.95 103.5 -50.5 103.25 -51.3 103.3 -51.7 L103.45 -52.05 104.5 -49.6 M103.45 -46.45 L103.35 -45.65 103.2 -45.2 Q103.0 -45.4 102.9 -46.15 L102.75 -47.9 103.05 -48.35 103.25 -47.6 103.45 -46.45 M98.65 -16.65 Q98.65 -16.95 99.0 -16.8 99.75 -15.4 99.65 -14.4 99.15 -15.0 98.8 -16.4 L98.65 -16.65 M105.0 -7.15 L105.2 -7.15 106.35 -3.75 106.6 -2.75 Q106.7 -2.05 106.3 -1.95 106.3 -1.55 106.15 -2.15 L105.0 -7.15 M106.7 15.55 L106.6 15.6 106.5 14.45 106.5 12.9 106.7 12.85 106.7 15.55 M81.8 17.8 Q81.55 19.05 80.6 20.2 79.95 20.95 79.3 21.35 L79.05 21.2 80.2 19.5 81.45 17.5 81.6 17.5 81.8 17.8 M90.75 29.4 Q91.45 29.05 91.75 29.2 L90.95 29.9 89.85 30.75 Q90.05 29.85 90.75 29.4 M98.8 46.95 L99.1 46.65 Q99.6 46.3 99.6 46.45 98.5 48.6 98.1 48.75 L98.5 47.45 98.8 46.95 M111.05 35.25 L111.15 34.75 111.9 33.55 112.2 33.8 112.25 34.1 111.7 35.3 111.05 35.25 M92.65 68.7 L93.3 67.75 93.45 67.8 93.45 68.7 93.4 68.8 93.0 69.0 92.6 68.85 92.65 68.7 M87.75 78.55 L87.2 78.75 86.75 78.8 87.35 78.1 Q87.9 77.35 88.5 77.05 L88.95 77.15 88.5 77.8 87.75 78.55 M72.7 29.25 Q74.0 28.35 74.45 28.25 L74.45 28.45 74.0 28.95 73.2 29.4 72.8 29.45 72.8 29.4 72.7 29.25 M16.9 74.8 L18.4 76.6 18.25 76.7 17.65 76.25 17.05 75.45 16.8 74.9 16.9 74.95 16.9 74.8 M28.0 79.95 L30.1 80.65 30.05 80.85 29.95 81.2 28.15 81.1 28.35 84.2 Q28.6 86.95 28.45 87.65 L28.25 87.8 28.0 86.35 27.7 84.5 27.7 82.2 27.8 81.05 27.6 80.9 Q26.6 80.4 26.1 79.65 L26.1 79.3 28.0 79.95 M70.2 80.45 Q69.9 81.4 69.05 81.9 L68.85 81.75 Q69.4 80.65 70.0 80.4 L70.2 80.45 M72.8 101.8 Q71.25 102.5 70.8 102.75 L70.5 102.4 Q71.55 101.55 74.35 100.45 74.1 101.1 72.8 101.8 M42.95 113.3 L44.2 112.55 44.3 112.65 42.2 114.1 42.0 114.15 Q42.1 113.95 42.95 113.3 M4.55 131.75 Q4.5 131.45 5.0 131.4 L5.8 131.4 6.35 131.6 6.4 132.1 5.4 132.35 4.8 132.35 4.6 132.05 4.55 131.75 M29.05 132.5 L28.85 132.8 27.55 132.7 Q27.35 132.25 27.4 131.65 L27.85 131.5 29.2 131.85 29.05 132.5 M-17.45 -112.75 Q-18.2 -112.95 -18.3 -113.15 L-18.3 -113.45 -17.55 -113.55 -17.0 -113.4 -16.8 -113.15 -16.85 -112.7 -17.45 -112.75 M-3.7 -100.9 L-3.45 -100.4 Q-3.2 -99.75 -3.25 -98.25 L-3.1 -96.15 -2.25 -92.45 -2.45 -92.5 -3.3 -93.95 Q-3.7 -95.0 -3.9 -97.6 -4.25 -100.3 -3.9 -100.75 L-3.7 -100.9 M-90.85 -57.6 Q-91.75 -57.7 -91.8 -58.45 L-90.3 -59.6 -89.9 -58.7 -90.85 -57.6 M-88.15 -42.95 Q-89.1 -40.25 -91.25 -38.4 L-91.45 -38.8 Q-91.05 -40.2 -90.1 -41.55 -89.05 -43.15 -88.15 -42.95 M-93.3 -45.35 L-93.4 -44.75 -93.95 -43.3 -94.45 -42.7 Q-94.8 -42.05 -95.1 -41.95 L-95.2 -42.35 -95.3 -43.45 -94.25 -44.55 -93.3 -45.35 M-90.1 -13.05 L-90.15 -14.1 -89.25 -12.65 -88.6 -11.05 -88.85 -10.6 Q-89.1 -9.95 -89.3 -9.9 L-89.5 -10.15 -90.1 -13.05 M-38.8 -95.55 Q-38.8 -95.25 -39.75 -94.35 L-40.95 -93.4 -41.15 -93.5 -41.35 -93.9 -40.2 -94.8 -39.05 -95.65 -38.8 -95.55 M-65.2 -93.5 L-64.95 -94.2 Q-64.75 -94.8 -63.85 -94.85 L-64.7 -93.35 -65.2 -93.5 M-70.5 -62.05 L-71.1 -60.3 -71.7 -58.6 Q-72.3 -59.95 -71.6 -61.2 L-70.75 -62.25 -70.5 -62.05 M-79.85 -65.95 L-79.3 -67.65 Q-78.5 -69.15 -78.25 -70.05 L-77.4 -70.65 Q-77.35 -70.25 -78.4 -68.25 -79.55 -66.25 -79.85 -65.95 M-76.9 -58.85 Q-77.55 -57.35 -78.35 -56.9 L-77.85 -58.5 -77.35 -60.2 -76.3 -61.35 Q-76.15 -60.4 -76.9 -58.85 M-72.15 -8.45 Q-72.55 -8.6 -71.6 -8.55 -70.95 -8.65 -69.5 -7.95 L-67.45 -7.25 -63.75 -6.9 -63.75 -6.5 -65.4 -6.15 -69.05 -6.9 Q-71.7 -7.65 -72.05 -8.15 L-72.15 -8.45 M-77.2 36.55 L-77.0 36.2 Q-76.7 36.35 -76.15 37.8 -75.7 39.0 -75.7 39.5 L-75.8 39.65 Q-76.0 39.85 -76.25 39.85 L-76.8 38.25 -77.2 36.55 M-51.1 43.45 L-51.3 43.2 -50.05 42.15 -48.35 40.9 -46.2 39.9 Q-44.65 39.25 -44.5 39.35 L-44.2 39.55 -47.85 41.7 -51.1 43.45 M-62.1 89.85 L-63.4 88.9 -65.05 87.2 -65.35 86.15 -63.65 87.8 Q-62.25 89.45 -62.1 89.85 M-31.75 96.85 L-31.55 96.55 Q-30.35 96.9 -29.95 97.55 L-29.95 97.95 Q-31.0 97.85 -31.75 96.85 M-102.35 33.95 L-102.85 32.85 -103.05 31.9 -102.75 31.5 -102.45 31.3 Q-102.15 31.1 -101.95 31.8 L-101.65 32.9 -101.75 33.75 -102.35 33.95 M-82.8 66.45 Q-83.25 66.0 -83.05 65.0 -82.3 65.7 -81.95 66.35 L-82.15 66.85 -82.8 66.45 M-22.65 111.35 L-21.25 111.1 -20.95 111.35 -20.65 111.9 -20.9 112.05 -23.25 112.05 -24.1 111.85 -22.65 111.35 M-9.2 124.65 L-9.2 124.85 -10.0 125.4 -10.15 125.45 -10.5 124.9 -10.5 124.25 -10.35 124.15 -9.2 124.65 M-47.9 110.45 Q-48.45 110.05 -48.55 109.3 L-48.85 108.2 -48.45 108.45 -47.4 109.2 -47.05 109.9 -46.6 110.65 -47.05 110.7 -47.9 110.45 M-43.25 107.85 Q-44.3 107.1 -45.0 105.95 -46.05 104.4 -45.65 103.65 -43.7 105.25 -42.9 107.7 L-43.25 107.85 M-50.15 113.95 L-51.8 111.45 -51.5 110.85 Q-50.3 111.9 -48.2 115.5 -48.85 115.6 -50.15 113.95" fill="#d2ffd2" fill-opacity="0.6" fill-rule="evenodd" stroke="none"/>
  </g>
</svg>
