<?xml version="1.0" encoding="UTF-8" standalone="no"?>
<svg xmlns:ffdec="https://www.free-decompiler.com/flash" xmlns:xlink="http://www.w3.org/1999/xlink" ffdec:objectType="shape" height="68.4px" width="76.25px" xmlns="http://www.w3.org/2000/svg">
  <g transform="matrix(1.0, 0.0, 0.0, 1.0, -21.5, -20.1)">
    <path d="M97.75 21.6 L96.9 26.3 Q96.0 29.75 96.0 31.0 L95.75 32.2 95.75 32.75 Q95.75 34.35 95.15 35.4 L93.75 37.25 92.8 39.15 Q92.7 38.9 92.0 38.8 90.15 41.3 88.5 42.25 L89.35 40.7 83.25 49.75 Q75.65 61.5 73.0 63.5 72.25 63.15 71.75 62.15 71.25 61.15 71.25 60.0 68.25 64.4 65.5 67.5 60.3 73.3 54.25 74.5 51.75 78.1 45.35 82.3 L36.0 88.5 33.5 88.25 39.6 77.8 Q45.5 67.1 45.5 64.25 45.5 62.65 44.9 61.2 L43.5 58.5 36.4 61.9 Q31.95 64.0 31.0 65.5 L29.7 65.65 Q29.5 65.65 29.5 64.1 29.5 62.85 30.5 59.25 31.5 55.6 31.5 54.35 31.5 52.95 31.3 52.5 30.75 51.1 28.5 50.25 28.5 49.2 27.5 47.2 26.5 45.2 26.5 43.75 L25.45 43.95 Q24.3 44.2 24.0 44.5 L21.5 44.25 21.6 44.1 25.1 39.85 Q27.6 36.5 29.2 33.35 L28.5 35.8 Q27.25 40.15 26.5 41.5 28.6 42.8 29.15 44.3 L29.5 47.0 Q30.55 48.05 33.25 46.5 L33.55 46.95 33.5 48.75 Q33.5 53.0 36.5 54.1 L40.5 55.25 43.0 55.0 47.3 50.65 52.0 46.25 Q52.5 47.75 52.65 49.55 L52.75 53.0 Q52.75 54.85 52.15 58.55 L50.75 65.0 50.75 65.75 54.5 60.85 Q58.2 56.15 59.25 55.75 L57.2 59.6 62.25 52.75 Q58.55 62.25 56.65 65.8 63.2 62.25 71.45 49.15 77.4 39.7 79.75 33.45 L79.75 33.6 Q79.75 34.7 80.25 38.2 L80.75 43.75 84.5 39.7 Q87.8 36.15 88.25 35.25 L89.75 30.8 Q90.6 28.0 92.0 26.25 L92.7 27.3 93.0 28.0 94.3 24.35 Q95.7 21.3 97.25 20.5 L97.5 20.1 Q97.75 20.05 97.75 21.6 M79.2 23.25 L78.7 25.55 78.3 23.2 78.5 22.5 79.2 23.25 M70.25 26.75 L70.45 27.2 70.5 29.0 Q70.5 33.0 65.45 44.15 60.15 55.75 57.0 57.25 L56.5 56.75 Q62.4 46.95 64.9 41.75 69.35 32.55 69.5 26.75 L70.25 26.75" fill="#eeffee" fill-opacity="0.8" fill-rule="evenodd" stroke="none"/>
  </g>
</svg>
