<?xml version="1.0" encoding="UTF-8" standalone="no"?>
<svg xmlns:ffdec="https://www.free-decompiler.com/flash" xmlns:xlink="http://www.w3.org/1999/xlink" ffdec:objectType="shape" height="284.4px" width="230.75px" xmlns="http://www.w3.org/2000/svg">
  <g transform="matrix(1.0, 0.0, 0.0, 1.0, 116.3, 139.85)">
    <path d="M24.55 -131.45 Q23.6 -131.5 21.25 -133.05 18.9 -134.55 18.3 -135.25 L18.6 -135.6 21.35 -134.0 Q23.8 -132.6 24.55 -131.45 M33.9 -132.55 Q35.1 -131.6 35.45 -131.35 L35.6 -131.1 34.25 -131.2 33.3 -132.15 Q32.7 -132.8 32.55 -133.4 L32.7 -133.55 33.9 -132.55 M3.7 -126.4 L2.05 -126.35 2.0 -126.4 Q3.05 -126.9 3.7 -126.4 M8.75 -122.65 L6.2 -122.55 Q3.9 -122.6 3.55 -122.95 L3.4 -123.0 Q3.3 -123.2 3.85 -123.3 L5.3 -123.35 6.9 -123.45 9.6 -123.5 9.7 -123.2 8.75 -122.65 M60.0 -103.65 Q60.4 -104.1 61.1 -103.4 L60.95 -102.9 Q60.2 -103.1 60.05 -103.25 L60.0 -103.35 60.0 -103.65 M67.25 -119.2 L67.7 -117.75 67.75 -117.55 67.6 -117.2 Q67.45 -117.0 67.15 -117.4 66.85 -117.8 66.5 -118.7 65.9 -119.9 66.15 -120.65 66.05 -121.2 66.6 -120.45 L67.25 -119.2 M61.8 -111.8 L62.25 -112.05 Q62.5 -112.15 63.05 -111.65 63.65 -111.15 63.85 -110.5 L63.6 -110.3 Q62.6 -110.85 61.75 -111.5 L61.8 -111.8 M50.8 -84.0 Q50.25 -85.1 50.25 -85.35 L50.3 -85.9 50.45 -85.95 50.55 -85.9 51.35 -84.45 51.9 -82.65 51.7 -82.45 50.8 -84.0 M93.5 -64.45 L93.15 -65.8 92.9 -67.1 93.15 -67.15 93.8 -65.0 93.7 -64.5 93.5 -64.45 M96.05 -64.8 L97.3 -64.1 98.35 -62.9 98.25 -62.65 Q97.8 -62.75 97.0 -63.45 96.15 -64.2 96.0 -64.65 L96.05 -64.8 M90.1 -57.8 Q90.05 -58.25 90.15 -58.4 L90.35 -58.25 Q90.65 -57.55 90.55 -56.95 L90.3 -56.95 90.1 -57.8 M108.05 -43.45 L108.4 -43.0 108.85 -41.25 108.85 -41.3 Q108.8 -43.9 109.05 -44.7 L109.25 -44.45 109.45 -41.4 109.45 -38.85 109.45 -38.8 109.25 -37.65 Q108.95 -38.3 108.9 -39.6 L108.35 -40.9 Q107.65 -42.75 107.95 -43.45 L108.05 -43.45 M112.9 -28.25 L113.05 -29.45 113.5 -30.5 113.65 -30.4 113.55 -28.95 113.45 -27.05 113.4 -26.9 Q113.15 -27.2 112.9 -28.25 M107.05 -4.9 L107.95 -5.4 108.85 -5.45 107.55 -4.45 105.95 -3.55 105.25 -3.75 107.05 -4.9 M91.05 3.4 Q91.5 2.45 91.7 2.4 92.0 2.15 92.05 2.25 L92.1 2.4 92.2 2.5 91.5 3.85 90.65 5.05 90.5 4.95 Q90.5 4.45 91.05 3.4 M103.1 26.1 L103.0 25.4 103.2 24.05 103.45 24.9 103.3 25.95 103.1 26.1 M105.95 67.3 L105.55 67.9 105.35 67.95 Q105.25 67.75 105.65 66.75 L105.95 67.3 M96.15 59.5 L96.05 59.25 96.8 58.3 97.55 57.5 97.7 57.75 96.55 59.4 96.15 59.5 M89.7 58.95 L89.6 58.6 90.1 58.0 90.55 57.8 90.5 58.15 89.7 58.95 M97.5 63.95 L97.1 65.8 96.95 65.85 Q96.8 65.15 96.9 63.9 97.0 62.6 97.3 62.15 L97.45 62.15 97.5 63.95 M91.25 86.55 L90.9 88.15 90.7 88.15 90.65 87.9 90.55 87.15 Q90.55 85.95 90.85 85.35 91.2 84.7 91.7 84.85 L91.25 86.55 M85.25 90.8 Q85.4 89.95 86.3 88.3 87.25 86.55 87.95 86.55 L88.0 86.7 87.8 87.4 85.7 90.5 85.6 90.5 85.25 90.8 M70.8 95.55 L71.5 95.05 71.65 95.35 Q71.3 95.6 70.75 96.55 L69.85 97.65 68.4 98.85 68.3 98.6 70.8 95.55 M58.8 105.65 L57.4 103.85 57.3 102.85 58.9 104.65 59.7 105.65 Q60.1 106.1 60.15 106.8 L58.8 105.65 M53.15 122.55 Q52.85 122.65 53.4 122.05 L54.05 121.65 Q54.7 121.25 55.2 121.45 L55.0 121.8 53.4 122.85 53.15 122.55 M33.4 115.7 L32.4 116.1 32.25 115.85 Q32.25 115.65 32.75 115.35 33.35 115.0 33.95 114.9 L33.4 115.7 M10.45 128.45 L10.0 128.9 Q9.45 129.35 8.45 129.6 L7.3 129.55 7.3 129.3 7.75 128.85 Q8.25 128.3 8.9 128.2 L10.35 128.25 10.45 128.45 M10.9 129.65 L11.5 131.55 Q11.95 132.9 12.55 133.55 L12.15 133.95 11.2 132.6 10.5 131.0 10.6 130.2 10.65 129.75 10.9 129.65 M-49.05 -131.85 Q-48.5 -132.25 -47.1 -132.55 L-45.4 -132.8 -45.3 -132.45 Q-46.25 -131.85 -48.35 -131.1 L-48.55 -131.25 -49.05 -131.85 M-68.2 -117.1 L-68.0 -117.0 -67.7 -116.55 Q-67.5 -116.15 -68.0 -115.95 L-69.55 -115.65 Q-71.05 -115.65 -71.8 -116.4 -72.4 -116.65 -71.5 -117.0 L-69.85 -117.25 -68.2 -117.1 M-64.0 -105.3 Q-64.0 -105.7 -63.35 -106.3 -62.6 -106.95 -61.85 -106.85 L-61.8 -106.35 Q-62.65 -105.15 -63.6 -104.25 L-63.9 -104.4 -64.0 -105.3 M-16.3 -111.85 L-16.85 -112.05 Q-15.65 -113.0 -15.15 -112.75 L-14.9 -112.5 Q-15.15 -112.2 -16.3 -111.85 M-81.65 -86.85 L-80.45 -88.45 -80.2 -88.6 -79.55 -88.3 -79.3 -87.95 Q-79.8 -87.2 -81.25 -85.8 L-81.65 -85.85 -81.65 -86.85 M-88.4 -52.65 Q-88.05 -52.2 -88.2 -47.4 -88.6 -48.15 -88.75 -50.2 -88.95 -52.35 -88.4 -52.65 M-83.25 -52.45 L-83.45 -52.5 -83.0 -53.2 -82.45 -53.85 -82.05 -53.9 Q-81.85 -53.55 -82.05 -53.0 L-82.5 -52.3 -82.75 -52.35 -83.25 -52.45 M-91.45 -34.2 L-92.05 -30.75 Q-92.75 -27.65 -93.2 -27.3 L-93.3 -27.2 Q-93.5 -27.2 -93.5 -27.9 L-93.15 -29.9 -92.75 -32.05 -92.1 -35.75 -91.75 -35.75 Q-91.45 -35.25 -91.45 -34.2 M-97.2 -26.85 Q-97.4 -28.45 -96.8 -29.05 -96.65 -27.45 -97.2 -26.85 M-40.4 -88.85 L-42.0 -88.75 -41.75 -89.15 -40.55 -89.3 -39.4 -89.45 -39.2 -89.25 -40.4 -88.85 M-56.15 -97.1 Q-56.5 -98.05 -55.55 -98.55 L-55.05 -98.15 -55.65 -97.0 -55.8 -97.0 -56.15 -97.1 M-72.6 40.45 L-72.9 42.3 -73.2 42.0 -73.0 40.55 -72.8 39.05 -72.6 38.95 Q-72.45 39.3 -72.6 40.45 M-80.95 86.95 L-81.75 86.65 -82.9 85.0 -82.95 84.65 -82.45 84.05 -82.15 83.8 -80.7 86.55 -80.95 86.95 M-77.75 97.55 Q-78.0 97.05 -77.15 97.65 -76.85 97.8 -76.5 98.3 -75.9 99.1 -76.0 100.0 L-76.45 99.9 -78.0 98.15 -77.75 97.55 M-52.75 96.35 L-53.0 96.8 -53.15 96.95 -53.55 96.35 -54.0 95.65 -53.95 95.2 Q-53.55 95.15 -53.2 95.45 L-52.7 96.15 -52.75 96.35 M-87.95 3.75 Q-88.55 1.8 -88.2 1.35 L-87.85 1.1 Q-87.65 1.55 -87.55 3.15 L-87.95 3.75 M-114.05 2.1 L-113.05 2.0 -112.9 2.35 -115.05 5.8 -115.25 5.8 -115.65 5.45 -115.0 3.7 -114.05 2.1 M-116.3 33.6 L-116.05 31.45 -115.7 31.4 -115.15 35.65 -115.25 35.9 -116.05 36.1 -116.3 33.6 M-102.15 44.1 L-100.9 42.15 -99.5 40.4 Q-98.9 40.1 -98.6 40.15 L-98.1 40.0 -97.95 40.4 -99.75 42.05 Q-101.1 43.3 -101.55 44.45 L-102.15 44.1 M-96.95 36.95 Q-96.75 37.5 -96.65 38.9 L-96.85 39.2 -97.4 38.7 Q-98.05 38.25 -98.5 37.0 L-98.85 35.3 -98.6 35.25 Q-98.5 35.2 -97.95 35.6 -97.3 36.1 -96.95 36.95 M-25.8 133.7 L-27.6 133.95 -29.3 134.45 -29.5 134.15 -29.2 133.9 -28.55 133.3 Q-27.4 132.6 -26.65 132.65 -25.9 132.75 -25.8 133.7 M-19.2 138.2 L-20.05 137.1 -19.85 136.15 -19.6 136.1 -17.75 138.55 -17.75 138.75 -18.1 139.1 -19.2 138.2 M-3.35 144.55 L-4.05 144.3 -4.15 144.05 Q-4.1 143.8 -3.05 143.75 L-3.35 144.55 M-44.1 108.4 L-43.3 109.15 -43.5 109.5 Q-43.9 109.25 -45.05 108.85 L-46.45 108.25 -48.2 106.8 -48.0 106.45 Q-45.1 107.75 -44.1 108.4 M-54.6 101.95 Q-54.15 101.65 -50.25 102.95 L-52.7 102.85 Q-54.5 102.45 -54.6 101.95" fill="#d2ffd2" fill-opacity="0.6" fill-rule="evenodd" stroke="none"/>
    <path d="M17.15 -131.35 Q17.55 -131.8 18.5 -131.65 L19.55 -131.35 19.55 -131.0 18.5 -130.95 17.5 -130.9 17.35 -130.95 17.15 -131.35 M33.65 -115.75 L33.4 -116.05 34.2 -116.8 Q34.95 -117.45 35.4 -117.55 L35.95 -117.55 36.2 -117.3 35.8 -116.4 34.85 -116.0 33.65 -115.75 M39.35 -108.5 L36.15 -109.4 Q35.4 -109.75 35.35 -109.8 L35.4 -110.2 36.65 -109.85 37.8 -109.7 39.4 -108.8 39.35 -108.5 M53.8 -120.55 L54.05 -120.55 55.6 -119.55 55.65 -119.15 55.25 -119.1 Q54.95 -119.2 54.65 -119.4 54.0 -119.9 53.8 -120.55 M43.35 -104.6 Q43.7 -104.95 44.95 -104.95 46.2 -105.0 46.4 -104.6 46.15 -104.35 43.35 -104.6 M55.75 -106.65 L55.75 -106.85 56.15 -106.9 Q57.7 -106.75 59.95 -105.4 62.4 -103.95 62.8 -102.5 61.7 -103.0 59.25 -104.55 L55.75 -106.65 M73.1 -65.3 L73.4 -65.15 Q73.35 -64.95 73.6 -64.1 L73.8 -63.0 73.75 -62.9 73.4 -63.95 Q73.1 -64.75 73.1 -65.3 M98.05 -79.25 L97.95 -79.0 97.3 -79.75 97.8 -79.85 98.05 -79.25 M86.85 -68.2 L86.45 -68.35 85.65 -69.05 85.05 -70.2 85.05 -70.4 85.45 -70.3 86.4 -69.35 86.95 -68.4 86.85 -68.2 M89.4 -67.75 L89.55 -68.05 90.15 -67.15 90.55 -66.15 90.3 -66.05 89.7 -66.75 Q89.35 -67.25 89.35 -67.55 L89.4 -67.75 M107.0 -43.4 L106.8 -43.35 106.3 -44.2 105.95 -45.25 105.9 -45.35 106.05 -45.65 Q106.5 -45.45 106.75 -44.45 L107.0 -43.4 M101.55 -25.2 Q101.1 -26.25 101.25 -26.75 L101.3 -26.8 101.55 -25.2 M102.35 -18.7 L102.35 -19.45 102.45 -19.45 102.7 -19.55 102.8 -19.55 102.8 -19.05 102.7 -18.3 102.55 -18.15 102.35 -18.7 M101.8 -8.9 Q101.55 -9.15 100.55 -12.1 L101.4 -10.55 Q101.95 -9.25 101.8 -8.9 M114.2 -3.95 L114.0 -4.4 114.0 -5.15 Q114.0 -5.95 114.3 -6.35 L114.4 -6.0 114.45 -4.2 114.2 -3.95 M111.0 1.65 L111.2 2.3 111.15 3.75 111.05 4.05 110.7 4.1 110.5 4.1 110.75 1.8 111.0 1.65 M106.95 0.1 L107.1 0.5 Q107.6 2.2 107.75 5.0 107.9 8.1 107.15 9.0 107.0 7.65 107.0 4.55 L106.85 0.2 106.95 0.1 M107.2 21.55 L107.0 21.6 Q106.85 22.0 106.9 21.25 106.8 19.5 107.0 19.25 L107.25 19.65 107.2 21.55 M87.05 35.1 L86.45 35.85 86.35 35.8 86.85 34.9 Q87.3 34.3 87.7 34.05 L87.7 34.4 87.05 35.1 M108.15 40.7 L108.0 40.7 107.8 40.7 Q107.65 40.5 107.8 40.05 L108.4 39.2 Q109.05 38.5 109.6 38.6 L109.55 39.15 108.95 40.0 108.15 40.7 M96.05 52.15 L96.2 52.1 96.55 52.15 96.15 53.2 95.6 54.1 95.5 53.9 95.7 52.9 96.05 52.15 M86.85 55.95 L87.45 54.5 87.8 54.4 Q87.45 55.8 87.15 55.95 L86.85 55.95 M70.0 31.15 L70.1 31.5 69.35 32.5 68.3 33.5 68.1 33.25 Q68.3 32.5 68.95 31.8 L70.0 31.15 M27.4 72.3 Q28.0 73.05 28.3 74.9 28.75 76.9 28.25 77.6 L27.95 77.8 27.7 75.55 27.3 73.25 27.4 72.3 M14.3 72.05 L14.05 72.35 Q13.6 72.5 12.9 71.95 L11.65 70.9 11.75 70.7 Q12.45 70.45 13.3 71.05 L14.3 72.05 M71.7 86.25 Q72.15 85.15 72.65 85.05 L72.7 85.05 Q72.1 86.05 71.7 86.25 M67.2 83.95 L67.2 84.25 67.05 84.8 66.75 85.05 66.5 84.6 67.2 83.95 M67.65 90.05 L67.75 90.2 67.95 90.5 68.0 90.6 67.6 90.9 67.05 91.15 66.85 90.95 Q66.85 90.65 67.1 90.45 67.35 90.15 67.65 90.05 M66.15 104.0 L66.0 104.35 63.75 105.35 Q61.75 106.1 60.85 105.85 61.55 105.1 63.55 104.45 65.45 103.8 66.15 104.0 M54.95 112.45 L55.2 112.6 54.8 113.2 Q54.2 113.6 53.55 113.95 L53.3 113.95 53.05 113.6 53.0 113.1 53.0 113.2 Q53.55 112.9 54.95 112.45 M33.0 110.8 Q32.9 110.65 32.95 110.3 33.55 109.75 33.75 109.75 L33.85 109.75 34.0 109.95 Q33.85 110.65 33.0 110.8 M38.95 117.25 L37.4 118.15 37.2 118.0 Q36.9 118.0 37.5 117.55 38.9 116.5 39.25 116.65 L38.95 117.25 M0.95 108.85 L-0.7 108.75 -0.85 108.4 0.65 108.45 0.95 108.85 M22.75 130.15 Q23.65 130.65 23.85 131.45 24.05 131.75 23.35 131.7 L22.3 131.35 Q21.55 130.95 21.35 130.6 L21.3 130.45 21.25 130.05 Q21.35 129.65 21.8 129.7 22.1 129.65 22.75 130.15 M-17.85 -139.8 L-17.15 -139.85 -16.9 -139.65 Q-16.9 -139.4 -17.9 -139.05 L-17.85 -139.8 M-32.75 -100.2 L-33.1 -99.55 -34.3 -98.8 Q-34.35 -99.35 -33.95 -99.7 L-33.05 -100.3 -32.75 -100.2 M-11.05 -116.5 L-10.9 -116.3 -11.2 -115.8 -12.15 -114.95 -13.5 -114.8 -13.65 -114.9 -13.4 -115.4 -12.15 -116.35 -11.05 -116.5 M-5.9 -110.15 L-5.7 -110.4 Q-5.0 -110.55 -4.4 -110.05 -4.35 -109.85 -4.45 -109.8 L-5.3 -109.8 -5.9 -110.15 M-90.3 -50.1 L-90.45 -50.3 -90.55 -51.05 Q-89.65 -53.1 -89.0 -55.6 L-88.8 -55.65 -88.55 -56.1 Q-88.25 -55.05 -88.75 -52.8 -89.4 -50.4 -90.3 -50.1 M-91.7 -17.75 L-91.95 -17.65 -92.95 -19.55 Q-93.6 -20.9 -93.4 -21.9 L-93.15 -22.05 Q-92.55 -21.4 -92.05 -19.85 -91.6 -18.45 -91.7 -17.75 M-81.7 -9.5 L-81.95 -9.85 Q-81.85 -10.85 -81.25 -11.3 L-80.95 -11.05 -81.25 -10.0 -81.7 -9.5 M-1.35 -89.3 L-1.55 -90.2 -1.4 -90.4 1.5 -87.25 Q0.9 -87.25 -0.1 -87.95 -1.1 -88.7 -1.35 -89.3 M-71.4 -79.7 L-73.9 -76.05 Q-75.6 -73.7 -76.1 -73.55 -75.5 -75.65 -72.45 -79.15 -71.75 -80.0 -71.4 -79.7 M-68.25 -68.1 L-66.85 -70.0 -66.65 -69.8 -68.5 -65.6 -69.15 -64.7 -69.55 -64.95 -68.85 -66.65 -68.25 -68.1 M-76.6 -69.75 L-75.7 -68.75 -75.7 -67.25 -75.7 -65.4 -76.05 -65.2 -76.6 -66.7 -77.0 -68.8 -76.9 -69.55 -76.6 -69.75 M-57.65 -9.45 L-58.8 -7.8 Q-59.85 -6.85 -60.55 -6.75 L-61.35 -6.85 -61.55 -7.15 -57.65 -9.45 M-38.05 35.3 L-37.15 35.15 Q-37.7 36.2 -39.25 37.45 -40.95 38.85 -41.7 38.5 L-42.05 38.25 -40.0 36.9 -38.05 35.3 M-78.8 29.8 L-79.55 29.1 -79.95 27.9 -79.6 27.5 -79.2 28.25 Q-78.85 29.05 -78.8 29.8 M-72.4 60.8 Q-72.35 60.55 -71.9 60.4 -71.1 61.05 -71.1 61.3 L-71.05 61.4 -71.2 61.7 Q-72.05 61.9 -72.4 60.8 M-67.5 84.05 Q-69.1 82.85 -71.5 78.85 -72.0 77.65 -71.5 77.55 L-69.05 81.05 Q-67.5 83.45 -67.5 84.05 M-35.2 95.7 L-35.55 95.35 Q-35.65 95.05 -35.2 94.75 -34.6 95.0 -34.35 95.45 L-34.7 95.55 -35.2 95.7 M-28.9 112.45 L-27.2 112.55 -27.2 112.8 -28.9 113.4 -30.8 113.3 -30.8 113.05 Q-30.2 112.55 -28.9 112.45 M-52.05 104.3 L-52.75 104.2 Q-54.15 102.8 -55.95 101.6 L-55.95 101.5 -56.2 101.0 Q-55.35 101.0 -53.7 102.05 -51.9 103.15 -51.9 104.2 L-52.05 104.3 M-56.8 102.4 Q-58.3 99.8 -58.35 98.3 -57.4 98.95 -56.1 101.65 -54.7 104.15 -54.6 105.15 L-55.05 105.2 -56.8 102.4" fill="#d2ffd2" fill-opacity="0.6" fill-rule="evenodd" stroke="none"/>
  </g>
</svg>
