<?xml version="1.0" encoding="UTF-8" standalone="no"?>
<svg xmlns:ffdec="https://www.free-decompiler.com/flash" xmlns:xlink="http://www.w3.org/1999/xlink" ffdec:objectType="shape" height="279.95px" width="235.2px" xmlns="http://www.w3.org/2000/svg">
  <g transform="matrix(1.0, 0.0, 0.0, 1.0, 119.1, 141.2)">
    <path d="M20.6 -124.75 L20.7 -125.1 22.7 -124.05 23.0 -123.45 22.9 -123.15 21.7 -123.85 Q20.9 -124.4 20.6 -124.75 M23.35 -125.05 Q23.8 -125.5 24.75 -125.35 25.6 -125.25 25.85 -124.95 L25.8 -124.75 25.5 -124.35 24.45 -124.15 Q24.0 -124.2 23.05 -124.55 L23.0 -124.8 23.35 -125.05 M26.85 -128.8 Q28.65 -129.3 31.5 -128.75 34.65 -128.2 35.45 -126.65 L30.95 -127.45 26.4 -128.35 26.35 -128.55 26.85 -128.8 M4.55 -117.55 L4.8 -117.25 4.2 -116.9 3.0 -116.7 Q3.05 -117.2 3.55 -117.3 L4.55 -117.55 M48.15 -124.8 L47.65 -124.3 Q46.8 -123.9 46.25 -124.05 45.5 -124.25 45.45 -125.05 L46.85 -125.05 48.2 -125.25 48.3 -124.9 48.15 -124.8 M49.7 -125.35 L51.45 -124.8 51.6 -124.45 Q51.9 -124.15 51.15 -124.25 49.5 -124.65 49.25 -125.05 49.4 -125.25 49.7 -125.35 M74.4 -98.3 L74.4 -98.6 74.55 -99.0 75.4 -98.25 76.1 -97.25 75.85 -97.05 75.0 -97.6 74.4 -98.3 M73.2 -93.75 L72.95 -91.65 72.6 -89.95 74.0 -89.5 Q75.2 -89.0 75.35 -88.5 75.0 -88.45 72.55 -89.9 L72.45 -89.25 71.8 -88.6 72.35 -91.45 72.55 -92.45 70.2 -94.45 69.65 -95.15 69.7 -95.4 70.85 -94.65 71.8 -93.85 72.65 -92.85 Q72.85 -93.5 73.2 -93.75 M56.85 -63.35 Q57.25 -63.25 57.75 -62.1 L58.45 -60.4 58.3 -60.25 Q57.6 -60.6 57.1 -61.6 56.65 -62.55 56.6 -63.25 L56.85 -63.35 M99.3 -52.3 L99.5 -52.3 99.9 -52.05 100.05 -51.55 99.7 -51.2 Q99.3 -51.85 99.3 -52.3 M103.9 -46.15 L103.45 -45.95 103.2 -45.8 103.1 -46.05 103.95 -47.3 Q104.5 -48.3 104.65 -49.2 L105.0 -48.9 104.5 -47.4 103.9 -46.15 M104.8 -37.35 L105.15 -37.1 105.85 -35.8 106.0 -34.65 105.9 -34.6 105.55 -34.8 Q105.2 -35.25 105.0 -35.9 L104.7 -37.2 104.8 -37.35 M89.45 -39.45 L89.45 -38.4 89.3 -38.3 Q89.2 -38.6 89.25 -39.4 L89.35 -40.85 89.55 -40.6 89.45 -39.45 M87.45 -1.3 L85.75 -0.95 85.05 -1.1 Q85.65 -1.8 87.1 -2.1 L89.05 -1.9 89.15 -1.45 87.45 -1.3 M115.05 -20.95 L114.75 -19.75 114.3 -19.55 114.2 -19.8 114.95 -22.45 115.05 -22.5 115.25 -22.3 115.05 -20.95 M113.55 -14.2 Q113.35 -15.0 113.8 -15.35 L114.4 -13.9 115.05 -12.6 114.9 -12.4 114.75 -12.5 114.3 -12.85 Q113.65 -13.6 113.55 -14.2 M115.3 -11.4 L115.7 -11.1 116.1 -9.15 115.95 -8.95 Q115.8 -8.55 115.65 -9.3 115.15 -11.15 115.3 -11.4 M103.65 24.9 L104.05 26.85 Q104.2 28.35 104.0 28.7 103.75 28.4 103.65 24.9 M105.65 8.75 Q105.75 9.9 105.45 10.45 105.35 9.25 105.6 8.85 L105.65 8.75 M89.75 72.55 Q90.0 71.8 90.3 71.6 L90.4 71.9 90.4 72.5 90.1 72.85 Q89.9 72.9 89.75 72.55 M93.2 78.55 L94.1 78.0 95.45 77.95 95.2 78.4 94.35 79.05 93.4 79.4 93.25 79.35 93.05 79.1 Q92.95 78.9 93.2 78.55 M88.85 79.7 L90.55 79.75 90.5 80.3 89.25 80.45 88.0 80.25 87.7 79.75 87.55 79.5 87.65 79.3 Q87.95 79.25 88.85 79.7 M90.8 94.2 L91.1 94.6 90.0 95.85 88.95 96.75 88.8 96.5 Q89.4 95.6 90.65 94.25 L90.8 94.2 M80.1 17.3 L79.6 18.8 78.7 20.2 78.55 20.05 Q78.55 19.1 79.0 18.2 79.4 17.4 79.9 17.05 L80.1 17.3 M77.1 65.3 L76.3 65.65 76.2 65.5 77.0 65.0 78.05 64.5 77.95 64.85 77.1 65.3 M48.35 79.6 Q49.25 81.3 49.05 82.15 L48.75 82.5 47.9 80.4 46.9 78.3 46.75 77.4 Q47.5 77.85 48.35 79.6 M75.8 106.1 L75.85 106.25 75.8 106.6 74.75 107.05 73.7 107.25 73.3 106.75 73.5 106.45 75.8 106.1 M77.45 107.75 L80.05 105.1 82.15 103.4 Q81.2 105.0 78.3 107.65 L77.45 107.75 M52.35 111.2 L51.2 111.95 49.9 112.85 47.6 114.35 47.5 114.1 Q47.65 113.65 48.25 113.1 L50.35 111.75 Q52.25 110.5 52.65 110.75 L52.7 110.75 52.35 111.2 M15.7 104.35 L13.85 100.35 Q14.4 100.45 15.25 101.55 16.05 102.5 16.05 103.2 L15.95 104.15 15.7 104.35 M31.4 124.9 L31.1 125.3 28.45 125.15 Q26.1 124.95 25.3 124.25 26.2 123.85 28.55 124.2 30.75 124.45 31.4 124.9 M-70.9 -109.75 L-68.85 -110.6 -68.6 -110.55 Q-68.75 -110.05 -69.55 -109.1 L-71.0 -108.6 -72.6 -108.85 -72.6 -109.15 -70.9 -109.75 M-61.3 -103.85 L-61.15 -103.75 -60.65 -104.05 Q-60.8 -103.0 -62.1 -101.25 -63.45 -99.5 -64.45 -99.6 L-64.5 -99.85 -64.2 -100.6 -61.3 -103.85 M-45.75 -115.5 L-46.1 -115.75 -46.45 -116.15 -45.4 -116.95 Q-44.5 -117.55 -44.1 -117.5 L-44.05 -117.0 -44.85 -116.05 Q-45.4 -115.6 -45.75 -115.5 M-41.65 -111.05 L-39.65 -109.45 -37.45 -107.25 -37.1 -106.0 -39.65 -108.4 -40.65 -109.35 -43.35 -106.95 Q-44.15 -106.5 -44.25 -106.55 L-44.5 -106.85 -43.35 -108.0 -42.25 -109.1 -41.0 -109.75 -41.65 -111.05 M-21.9 -141.2 L-21.7 -140.75 -22.95 -140.15 -24.1 -139.7 -24.25 -139.7 -24.55 -140.0 Q-24.3 -140.8 -23.2 -141.05 L-21.9 -141.2 M-90.0 -67.65 L-92.35 -61.6 -92.55 -61.65 -92.6 -62.4 Q-92.65 -65.25 -91.25 -69.1 -89.7 -73.45 -87.8 -73.8 -88.35 -71.8 -90.0 -67.65 M-88.8 -54.2 L-88.2 -54.35 -87.85 -53.95 -88.95 -52.65 -90.15 -51.55 -90.5 -51.85 Q-89.9 -52.55 -88.8 -54.2 M-86.85 -25.55 L-87.05 -23.8 Q-87.45 -24.2 -87.45 -24.9 L-87.45 -26.3 -87.05 -26.4 -86.85 -25.55 M-107.7 -25.45 L-107.15 -23.8 -106.5 -21.55 -106.8 -21.25 Q-107.15 -21.4 -107.9 -22.65 L-109.2 -24.95 -109.35 -25.75 -109.1 -26.15 -107.7 -25.45 M-118.5 -1.5 L-118.15 0.25 -117.95 1.95 -118.0 2.2 -118.4 2.4 Q-119.1 1.75 -119.1 0.25 L-118.95 -1.5 -118.5 -1.5 M-20.6 -89.9 Q-21.8 -90.1 -22.0 -90.35 L-22.4 -90.8 -22.3 -91.0 -22.15 -91.15 -20.55 -90.85 Q-19.45 -90.55 -18.85 -90.05 L-18.85 -89.7 -20.6 -89.9 M-77.15 -71.1 L-77.4 -71.1 -77.6 -73.45 Q-77.7 -74.85 -77.3 -75.7 L-76.95 -75.7 Q-76.65 -74.9 -76.7 -73.3 -76.7 -71.7 -77.15 -71.1 M-69.5 18.15 L-68.75 16.25 Q-68.2 15.15 -67.5 14.65 L-67.25 14.7 -67.85 16.75 -68.65 18.2 -69.25 18.55 -69.4 18.45 -69.5 18.15 M-68.2 33.25 Q-68.95 34.75 -69.6 35.05 L-70.55 35.4 -70.85 35.2 -67.5 30.9 Q-67.45 31.75 -68.2 33.25 M-68.65 85.0 Q-67.35 85.35 -66.95 85.95 L-67.0 86.2 -68.4 86.0 -67.35 87.25 Q-65.55 89.4 -65.65 90.1 L-65.6 90.25 -66.2 89.95 -67.35 88.65 Q-68.1 87.6 -68.65 87.25 L-70.45 85.3 -70.9 84.9 -70.9 84.8 -70.95 84.7 -70.75 84.45 -70.2 84.55 Q-69.55 84.55 -68.65 85.0 M-107.45 18.65 Q-107.75 18.6 -108.3 18.15 L-108.7 16.9 Q-108.7 15.65 -108.25 15.05 L-107.85 15.35 Q-107.35 16.9 -107.15 18.45 L-107.45 18.65 M-92.0 58.85 Q-91.05 59.3 -89.7 61.25 -88.45 63.35 -88.8 64.4 L-89.05 64.4 -89.65 63.95 Q-90.6 61.8 -91.95 59.6 L-91.8 59.45 -92.0 58.85 M-98.85 67.35 L-98.85 69.15 Q-98.95 70.15 -99.45 70.8 L-99.75 70.75 -99.9 68.7 -100.2 66.15 -100.05 65.9 Q-99.65 66.15 -98.85 67.35 M-87.0 66.75 L-87.5 66.7 -88.15 62.8 Q-88.65 59.35 -88.15 57.8 -87.45 58.95 -87.1 62.4 -86.75 65.7 -87.0 66.75 M-35.3 125.9 L-35.1 126.2 -36.5 127.0 -38.5 127.7 -39.2 127.7 -39.45 127.4 -38.5 126.2 -37.1 126.05 -35.3 125.9 M-35.75 138.75 L-37.4 137.9 -38.7 136.75 -38.45 136.45 -35.55 137.85 -35.4 138.05 -35.75 138.75 M-7.1 134.75 L-8.1 134.95 Q-9.0 134.75 -9.3 134.25 L-9.0 133.85 -6.6 133.8 -6.55 134.15 -7.1 134.75 M-18.2 135.05 Q-18.6 134.95 -19.1 134.1 L-19.8 132.85 -19.85 132.6 -19.7 132.15 -19.15 132.05 -18.2 133.05 Q-17.45 134.1 -17.65 135.1 L-18.2 135.05 M-47.9 130.45 Q-49.95 129.9 -53.7 127.0 -54.55 126.2 -54.15 125.8 -52.2 126.95 -50.45 128.25 -48.2 129.8 -47.9 130.45" fill="#d2ffd2" fill-opacity="0.6" fill-rule="evenodd" stroke="none"/>
    <path d="M22.5 -132.2 L23.7 -131.4 23.65 -131.1 Q22.75 -131.2 21.05 -131.9 L20.9 -132.1 Q20.75 -132.35 20.85 -132.7 L22.5 -132.2 M0.3 -133.05 Q-0.75 -133.8 -1.0 -134.7 -1.3 -135.1 -0.45 -134.9 L0.75 -134.2 Q1.6 -133.75 1.85 -133.25 L1.95 -133.05 2.0 -132.7 Q2.0 -132.35 1.5 -132.4 1.1 -132.55 0.3 -133.05 M2.2 -123.1 L0.1 -122.7 -0.05 -122.95 0.2 -123.65 1.1 -123.9 Q1.9 -123.95 2.35 -123.45 L2.2 -123.1 M3.0 -113.9 L2.85 -113.95 2.65 -114.25 Q2.75 -114.95 3.7 -114.8 L3.8 -114.25 3.0 -113.9 M9.85 -101.25 L10.8 -100.7 11.7 -100.2 11.75 -100.0 Q11.5 -100.0 10.75 -100.3 L9.6 -101.15 9.85 -101.25 M36.45 -103.05 Q37.7 -103.0 37.95 -102.65 L38.1 -102.25 36.8 -102.6 36.45 -103.05 M70.75 -99.6 L72.2 -97.05 Q73.5 -94.85 73.7 -93.55 72.95 -94.2 71.8 -96.5 70.55 -98.8 70.4 -99.55 L70.75 -99.6 M56.55 -101.55 Q55.6 -101.9 55.4 -102.4 L55.35 -102.45 Q56.3 -102.25 56.55 -101.55 M55.2 -99.45 L55.6 -99.4 56.7 -98.65 57.85 -97.85 59.9 -96.45 59.85 -96.15 58.9 -96.35 57.1 -97.6 Q55.4 -98.85 55.25 -99.35 L55.2 -99.45 M80.35 -89.35 Q80.15 -90.2 80.25 -90.65 L80.4 -90.65 80.95 -89.3 81.75 -87.65 81.75 -87.45 80.75 -88.25 80.35 -89.35 M76.65 -46.15 L76.75 -47.45 77.0 -47.85 77.2 -47.7 77.3 -46.15 77.0 -44.65 76.8 -44.55 76.65 -46.15 M101.15 -63.45 Q101.2 -63.9 101.4 -63.1 L101.5 -61.85 101.35 -60.55 101.3 -60.4 101.1 -60.25 Q100.85 -60.2 100.75 -60.6 L100.7 -61.9 Q100.7 -63.05 101.15 -63.45 M90.55 -54.7 L90.65 -55.0 Q91.05 -55.05 91.4 -54.2 L91.15 -53.9 90.55 -54.65 90.55 -54.7 M95.9 -57.65 L95.65 -57.7 94.65 -59.5 94.75 -59.75 95.2 -59.65 95.7 -58.85 Q96.0 -58.2 95.9 -57.65 M97.95 -3.55 L98.25 -4.0 98.35 -3.75 98.05 -2.6 97.85 -2.8 97.95 -3.55 M103.2 -7.85 L103.5 -8.95 103.75 -8.85 Q103.55 -8.25 103.45 -6.85 L103.2 -6.45 103.0 -6.55 103.2 -7.85 M105.1 -5.2 L105.2 -5.35 105.95 -4.0 106.35 -2.4 106.25 -2.3 Q105.85 -2.7 105.45 -3.75 105.05 -4.75 105.1 -5.2 M107.2 20.85 Q108.1 18.75 108.6 18.3 L108.7 18.65 107.75 21.2 106.85 23.3 106.8 23.35 106.25 24.05 Q106.2 23.4 106.6 22.25 L106.6 20.85 Q106.75 18.95 107.25 18.55 L107.35 18.7 107.45 19.3 Q107.25 20.05 107.2 20.85 M92.45 49.35 L93.4 49.5 94.2 50.1 92.75 50.05 91.1 49.75 90.6 49.1 92.45 49.35 M106.4 33.05 Q106.8 32.55 107.1 32.5 L107.2 32.65 106.6 33.8 105.9 35.2 105.75 35.3 Q105.65 34.9 105.85 33.95 L106.4 33.05 M76.15 45.85 Q76.9 45.4 77.1 45.5 L77.45 45.5 77.45 45.9 76.45 46.6 75.2 46.9 75.1 46.8 76.15 45.85 M77.6 73.05 L77.4 72.95 77.6 72.3 Q77.85 71.75 78.25 71.3 L78.1 72.15 77.6 73.05 M54.0 92.6 L53.0 92.75 53.0 92.4 53.65 92.25 54.15 92.3 54.0 92.6 M60.25 97.2 L58.6 97.9 58.2 97.75 58.2 97.4 59.25 97.05 60.2 96.85 60.25 97.2 M62.55 111.75 Q62.5 111.5 63.25 110.95 L63.25 111.6 62.7 111.85 62.55 111.75 M57.45 102.65 L56.45 104.05 56.25 103.95 Q56.35 103.25 57.0 102.2 57.6 101.05 58.05 100.9 L58.2 100.95 57.45 102.65 M43.75 117.7 L42.7 118.85 41.75 120.1 41.55 120.05 41.55 119.8 41.85 119.0 Q42.3 117.95 42.85 117.6 43.4 117.15 43.75 117.7 M20.9 113.6 L19.65 114.0 17.9 114.15 17.9 113.85 Q20.4 112.95 21.35 112.75 L22.2 112.8 22.2 113.15 Q21.8 113.2 20.9 113.6 M39.35 117.3 L36.25 118.6 36.2 118.6 35.75 118.65 Q36.25 117.95 37.7 117.05 39.25 116.15 39.85 116.6 L39.85 116.8 39.35 117.3 M6.8 113.5 Q6.45 111.95 6.45 110.95 L6.8 109.8 7.35 112.65 7.55 114.2 7.4 115.55 6.8 113.5 M-38.1 -102.25 Q-38.05 -101.7 -40.1 -98.5 -40.1 -99.25 -39.35 -100.7 -38.6 -102.25 -38.1 -102.25 M-33.0 -99.55 L-33.4 -98.95 -34.05 -98.75 -34.15 -98.9 -34.45 -99.25 -34.6 -99.45 -34.05 -99.6 -33.35 -99.75 -33.0 -99.55 M-19.6 -120.1 L-19.8 -120.45 -19.35 -121.0 -17.85 -121.4 -17.65 -121.4 -17.35 -120.8 -17.25 -120.5 -19.6 -120.1 M-82.6 -77.05 L-82.7 -77.5 -81.45 -78.35 -80.05 -79.0 -79.3 -78.45 -79.3 -78.15 Q-80.75 -77.75 -82.45 -76.9 L-82.6 -77.05 M-96.2 -57.8 L-95.0 -59.2 -94.75 -59.05 -96.3 -55.7 -96.5 -55.6 -97.2 -55.85 Q-97.1 -56.55 -96.2 -57.8 M-84.1 -46.25 L-83.85 -45.6 Q-83.6 -44.8 -83.75 -44.1 -83.85 -43.45 -84.4 -42.45 L-84.65 -42.35 -84.9 -42.95 -84.85 -44.9 Q-84.65 -46.15 -84.3 -46.4 L-84.1 -46.25 M-89.05 -42.6 L-87.2 -42.95 -86.45 -42.65 -86.0 -42.5 -86.1 -42.05 -88.15 -41.95 Q-89.7 -41.75 -90.65 -41.2 L-90.85 -41.8 -89.05 -42.6 M-47.6 -92.65 Q-47.55 -92.15 -48.0 -91.3 L-49.9 -89.35 Q-51.8 -87.65 -52.15 -87.65 L-52.35 -87.7 Q-52.55 -87.8 -52.15 -88.3 L-51.0 -89.35 -49.9 -90.65 -47.8 -92.8 -47.6 -92.65 M-55.3 -89.5 Q-54.75 -90.75 -54.05 -90.85 -54.65 -89.65 -55.3 -89.5 M-60.8 -64.7 Q-60.8 -64.3 -61.55 -63.1 L-62.05 -62.9 Q-61.6 -64.65 -61.15 -64.8 L-60.8 -64.7 M-67.35 -26.95 L-68.45 -25.65 -68.5 -26.1 -67.7 -27.05 -66.85 -28.1 -66.65 -28.05 -67.35 -26.95 M-79.45 28.4 L-79.1 28.0 -78.7 28.7 Q-78.6 29.15 -78.65 29.65 L-78.8 29.75 -79.25 29.85 -79.45 29.95 -79.45 29.25 -79.45 28.4 M-79.0 45.25 L-79.75 43.85 -80.3 41.4 -80.05 41.3 Q-78.45 44.3 -78.05 45.55 L-77.75 46.75 -78.05 46.85 -79.0 45.25 M-77.75 78.85 L-79.3 78.05 -79.3 77.7 -79.0 77.65 -78.15 77.65 Q-76.9 77.75 -76.3 78.35 -75.7 79.0 -76.1 79.7 -76.8 79.25 -77.75 78.85 M-72.35 86.3 L-72.15 89.85 -72.2 89.95 -72.65 89.95 -73.1 88.45 -73.2 86.8 -72.65 86.2 -72.35 86.3 M-46.55 98.8 L-45.3 99.0 Q-44.85 99.25 -44.15 100.1 L-44.15 100.35 -44.7 100.4 Q-45.4 100.5 -46.3 99.95 L-47.3 99.15 -47.15 98.9 -46.55 98.8 M-96.2 3.4 L-96.25 1.3 -96.1 1.05 -95.45 0.9 -95.15 0.9 Q-95.1 1.8 -95.4 3.9 L-95.8 4.1 -96.2 3.4 M-98.45 17.75 L-98.75 17.45 -99.0 14.95 -98.6 14.65 Q-98.6 14.05 -98.15 15.1 L-98.05 16.1 Q-98.0 17.1 -98.45 17.75 M-83.0 33.2 Q-82.5 33.3 -80.1 36.85 L-81.95 35.2 Q-83.15 33.7 -83.0 33.2 M-18.25 104.5 Q-18.6 104.75 -19.1 104.8 L-20.1 104.5 -20.15 104.15 -19.5 104.1 -18.25 104.5 M-3.85 125.9 L-5.7 125.75 -5.8 125.3 -5.3 125.0 -4.6 125.05 Q-3.9 125.2 -3.5 125.75 L-3.85 125.9 M-44.65 101.7 L-44.4 101.85 -44.75 103.9 Q-45.1 105.5 -44.85 106.5 L-45.45 106.6 -45.55 104.65 Q-45.55 103.05 -45.35 102.75 L-44.85 102.05 -44.65 101.7 M-63.85 104.6 L-63.9 104.3 Q-63.7 104.15 -62.8 104.85 L-63.4 105.35 -63.85 104.6" fill="#d2ffd2" fill-opacity="0.6" fill-rule="evenodd" stroke="none"/>
  </g>
</svg>
