<?xml version="1.0" encoding="UTF-8" standalone="no"?>
<svg xmlns:ffdec="https://www.free-decompiler.com/flash" xmlns:xlink="http://www.w3.org/1999/xlink" ffdec:objectType="shape" height="216.9px" width="1652.25px" xmlns="http://www.w3.org/2000/svg">
  <g transform="matrix(1.0, 0.0, 0.0, 1.0, 322.4, 80.5)">
    <path d="M774.8 -26.4 Q774.8 -41.85 786.2 -53.4 800.85 -68.2 836.0 -79.2 853.8 -84.8 909.8 -65.85 923.1 -61.35 947.6 -52.15 965.0 -45.6 966.8 -45.6 L1007.45 -55.6 Q1050.35 -65.6 1065.2 -65.6 1116.15 -65.6 1133.75 -54.95 1140.5 -50.85 1144.3 -44.1 L1149.65 -31.6 Q1152.95 -23.9 1157.8 -19.1 1164.5 -12.55 1176.75 -8.2 1206.7 2.4 1278.8 2.4 1291.55 2.4 1303.25 9.65 1310.7 14.25 1322.85 25.95 L1329.85 32.5 1292.3 32.5 1292.3 85.7 1288.25 81.5 Q1280.1 73.1 1271.8 65.9 1271.0 68.9 1269.3 72.05 1264.5 80.8 1254.8 80.8 1232.6 80.8 1217.15 77.25 L1209.65 75.2 Q1191.4 81.6 1174.4 81.6 1146.85 81.6 1130.35 74.25 1122.15 70.6 1115.95 64.75 1106.45 71.2 1082.8 71.2 1052.25 71.2 1024.2 63.25 1003.5 57.4 990.8 49.6 L814.8 48.8 797.3 46.1 Q792.5 48.4 785.6 51.85 L745.0 72.1 Q686.0 100.8 670.4 100.8 658.65 100.8 651.35 91.2 648.55 87.5 647.15 83.25 645.9 79.35 646.4 76.8 489.8 78.45 416.35 77.05 L362.85 75.85 Q330.8 75.2 291.6 75.2 264.9 75.2 246.45 71.6 240.5 70.4 234.6 68.65 216.05 69.8 189.2 68.8 L44.0 69.6 Q-19.7 78.55 -51.4 93.2 -68.6 101.15 -69.75 101.55 -79.05 104.8 -92.8 104.8 -96.8 104.8 -103.8 101.6 -110.8 98.4 -114.8 98.4 L-129.95 104.35 Q-148.75 111.6 -166.4 117.4 -224.4 136.4 -260.0 136.4 -289.95 136.4 -308.9 117.55 -315.25 111.25 -319.3 103.85 -322.4 98.15 -322.4 96.0 -322.4 88.1 -318.45 82.75 -314.5 77.45 -305.4 73.0 -297.3 69.05 -281.55 64.15 -273.5 61.65 -245.2 53.6 -248.65 50.15 -251.4 44.3 -254.0 38.8 -254.0 35.6 -254.0 12.25 -154.9 -9.2 -123.65 -15.95 -79.15 -23.1 L-28.8 -31.2 Q34.7 -29.9 66.3 -24.55 102.75 -18.35 105.6 -5.6 L190.0 -5.6 262.75 -14.1 Q321.6 -20.8 340.0 -20.8 373.5 -20.8 383.3 -8.8 388.2 -2.8 386.4 3.2 386.4 13.85 378.3 20.75 L396.0 20.8 Q442.0 20.8 462.05 22.95 473.0 24.15 481.8 27.3 489.35 30.0 501.85 30.6 521.05 31.5 568.8 29.6 L610.55 28.85 610.4 26.0 Q610.4 13.5 634.6 3.9 656.8 -4.9 692.3 -8.85 727.45 -12.75 761.25 -10.3 L779.4 -8.45 Q776.5 -12.45 775.55 -15.75 774.8 -18.3 774.8 -26.4 M920.7 -14.8 Q917.3 -16.8 912.8 -16.8 904.45 -16.8 895.6 -1.4 L893.95 1.6 926.1 1.6 Q924.25 -5.2 925.6 -12.8 924.1 -12.8 920.7 -14.8 M1049.2 -8.8 Q1062.5 -8.8 1090.3 -4.5 L1088.0 -14.4 Q1086.25 -14.65 1083.65 -15.9 1081.75 -16.8 1077.2 -16.8 1044.5 -16.8 1021.7 -10.9 1004.85 -6.6 991.55 1.6 L994.0 1.6 Q1004.4 -1.8 1009.5 -4.75 L1014.4 -7.8 Q1016.4 -8.6 1022.9 -8.75 L1049.2 -8.8" fill="#3c411d" fill-rule="evenodd" stroke="none"/>
  </g>
</svg>
