<?xml version="1.0" encoding="UTF-8" standalone="no"?>
<svg xmlns:ffdec="https://www.free-decompiler.com/flash" xmlns:xlink="http://www.w3.org/1999/xlink" ffdec:objectType="shape" height="559.0px" width="103.5px" xmlns="http://www.w3.org/2000/svg">
  <g transform="matrix(1.0, 0.0, 0.0, 1.0, 54.0, 555.8)">
    <path d="M35.55 -555.8 L43.4 -555.8 43.45 -555.75 43.4 -555.3 43.1 -547.2 42.85 -540.9 Q42.2 -521.5 41.95 -497.85 41.8 -481.95 41.8 -431.75 L42.0 -177.95 42.25 -177.3 42.25 -171.0 38.35 -171.0 38.35 -171.55 38.15 -171.0 34.35 -171.0 Q34.05 -171.9 34.05 -173.35 34.05 -175.2 35.0 -176.45 35.65 -177.35 36.75 -177.85 35.2 -178.05 34.0 -178.5 31.95 -179.3 30.0 -179.3 L27.95 -179.5 27.55 -179.75 27.2 -180.75 Q28.6 -181.7 33.9 -186.9 L34.05 -188.3 34.25 -190.55 33.6 -190.35 Q32.25 -190.55 32.05 -190.7 31.8 -190.9 31.8 -192.45 31.8 -194.8 32.45 -195.5 32.9 -195.9 34.95 -196.3 L35.0 -196.25 35.45 -200.2 35.55 -201.6 Q35.55 -204.75 37.55 -205.2 L38.05 -203.65 37.8 -208.1 37.8 -241.95 Q37.15 -246.25 36.55 -252.2 36.0 -257.85 36.0 -259.65 L36.8 -283.4 37.8 -320.95 37.8 -360.2 38.15 -370.45 Q37.0 -369.55 36.2 -369.2 35.05 -369.65 34.8 -369.9 34.2 -370.5 34.2 -372.0 34.2 -374.05 38.5 -378.95 L38.5 -378.4 38.55 -379.75 39.15 -393.05 39.15 -403.25 39.1 -400.8 Q38.65 -414.15 37.05 -437.8 34.95 -469.35 34.95 -496.35 L35.25 -525.3 35.55 -555.8 M20.9 -425.8 Q20.35 -425.45 19.0 -425.45 L17.15 -425.75 16.5 -426.6 16.3 -427.95 17.9 -429.55 Q19.1 -430.25 21.15 -429.5 L21.4 -429.25 Q21.6 -429.1 21.6 -427.8 L21.5 -426.15 21.35 -426.15 20.9 -425.8 M11.7 -415.1 L10.55 -414.65 9.35 -415.05 Q9.0 -415.35 9.0 -416.8 9.0 -418.25 9.45 -418.45 L10.55 -418.6 Q12.5 -417.95 12.8 -416.8 L11.7 -415.1 M18.3 -367.1 Q20.1 -369.0 22.25 -369.45 L22.7 -368.1 21.4 -365.65 Q20.25 -363.85 18.55 -363.0 L17.2 -363.2 Q16.75 -363.4 16.75 -364.8 16.75 -365.55 18.3 -367.1 M25.85 -362.35 L26.3 -361.1 24.8 -359.2 Q23.6 -357.8 22.95 -357.75 21.8 -358.2 21.55 -358.45 21.0 -359.05 21.0 -360.55 21.0 -361.8 22.3 -362.4 23.75 -363.1 25.85 -362.35 M36.0 -313.65 Q34.55 -311.2 32.7 -310.6 L30.7 -311.25 30.35 -311.1 Q30.0 -311.2 30.0 -312.6 30.0 -314.4 31.9 -315.0 33.5 -315.5 34.95 -315.0 L36.0 -313.65 M2.05 -273.15 L0.55 -274.25 0.55 -275.4 2.1 -275.4 3.1 -274.05 3.9 -272.7 Q3.25 -272.5 2.05 -273.15 M10.1 -255.45 L8.3 -257.4 Q8.3 -258.05 8.7 -258.65 9.2 -259.5 10.1 -259.65 L11.9 -256.95 Q11.5 -255.75 10.1 -255.45 M32.4 -267.2 Q31.25 -265.5 29.55 -265.5 L27.9 -265.65 27.9 -265.8 27.4 -266.05 Q27.2 -266.15 27.2 -267.5 27.2 -269.0 29.65 -270.4 31.8 -271.65 33.15 -271.65 33.6 -269.05 32.4 -267.2 M24.55 -267.35 L26.55 -266.5 Q26.1 -265.8 24.05 -265.6 L23.85 -266.05 Q23.6 -266.7 23.6 -267.4 L24.55 -267.35 M36.65 -223.75 L37.55 -222.5 Q37.55 -221.15 37.1 -220.5 L35.55 -220.25 35.25 -220.1 Q34.95 -220.2 34.95 -221.6 34.95 -223.85 35.1 -223.65 L36.65 -223.75 M35.75 -211.8 Q36.8 -210.25 37.35 -207.2 37.1 -206.55 35.55 -206.3 L34.6 -208.0 Q34.05 -208.95 34.05 -210.35 34.05 -211.75 34.75 -211.9 L35.75 -211.8 M23.95 -217.0 L25.2 -213.4 24.75 -211.35 24.6 -210.9 Q24.35 -210.45 22.95 -210.45 21.05 -210.45 20.25 -212.75 19.8 -214.0 19.8 -215.3 19.8 -216.95 20.55 -218.55 21.25 -220.15 22.05 -220.5 23.25 -218.85 23.95 -217.0 M32.05 -175.05 Q32.05 -173.8 31.6 -173.25 L31.5 -173.15 30.45 -172.45 29.35 -172.45 29.1 -172.3 Q28.8 -172.4 28.8 -173.8 28.8 -175.5 31.15 -176.4 L31.6 -176.55 Q32.05 -176.45 32.05 -175.05 M27.6 -171.0 L22.25 -171.0 Q23.2 -171.95 24.95 -172.0 L25.2 -171.3 25.4 -171.35 27.55 -171.1 27.6 -171.0 M-13.05 -384.3 L-13.25 -383.95 Q-13.5 -383.9 -13.5 -385.3 -13.5 -386.05 -12.55 -386.9 -11.4 -387.85 -10.35 -386.55 L-10.1 -385.85 Q-11.0 -384.55 -13.05 -384.3 M-15.4 -347.75 Q-14.95 -347.65 -14.95 -346.25 -14.95 -345.45 -16.9 -342.2 -19.0 -338.75 -20.25 -338.05 -21.45 -338.45 -21.9 -338.95 -22.5 -339.65 -22.5 -341.2 -19.9 -347.6 -16.75 -347.95 L-15.4 -347.75 M-28.6 -317.15 Q-27.45 -317.7 -27.45 -319.5 L-26.2 -319.25 Q-25.85 -319.1 -25.85 -317.7 -25.85 -316.45 -26.1 -316.35 L-26.55 -315.65 -27.1 -315.25 Q-27.7 -314.8 -28.35 -314.55 L-29.45 -314.9 Q-29.8 -315.2 -29.8 -316.65 -29.8 -316.85 -28.6 -317.15 M-13.25 -233.75 Q-14.05 -234.05 -14.55 -234.95 -14.95 -235.8 -14.95 -236.8 -13.15 -237.75 -10.45 -238.5 L-5.95 -239.25 Q-6.75 -238.15 -9.35 -236.05 -12.3 -233.7 -13.25 -233.75" fill="url(#gradient0)" fill-rule="evenodd" stroke="none"/>
    <path d="M43.45 -555.75 L43.45 -555.8 44.5 -555.8 44.6 -553.75 43.8 -541.8 Q43.15 -530.1 42.95 -514.95 L42.95 -514.6 42.95 -514.2 42.85 -507.35 43.3 -451.8 43.5 -283.9 43.5 -266.5 Q43.2 -263.05 43.3 -260.85 L43.2 -259.2 Q43.6 -254.15 44.7 -249.25 45.1 -247.4 45.6 -245.9 L45.5 -178.65 45.3 -177.95 45.3 -128.45 45.05 -127.7 45.05 -42.55 44.85 -39.35 45.0 -39.15 Q45.3 -38.6 45.3 -37.1 45.3 -35.65 44.8 -34.2 L43.9 -32.4 43.8 -32.25 43.7 -32.4 Q42.3 -29.85 36.75 -25.5 L33.95 -23.4 33.65 -23.2 33.55 -23.15 22.05 -15.9 19.35 -14.4 18.3 -13.95 Q5.0 -7.7 -6.4 -4.4 L-6.4 -5.0 Q6.05 -7.85 15.85 -13.55 L17.3 -14.4 21.55 -17.75 Q25.3 -19.25 29.05 -21.4 39.0 -27.0 39.75 -32.4 L39.8 -32.65 41.1 -33.8 Q41.1 -34.9 41.3 -35.2 L41.25 -35.65 42.35 -36.05 42.25 -37.45 Q42.25 -38.7 42.6 -39.3 L42.45 -41.9 42.45 -127.1 42.25 -127.7 42.25 -171.0 42.25 -177.3 42.0 -177.95 41.8 -431.75 Q41.8 -481.95 41.95 -497.85 42.2 -521.5 42.85 -540.9 L43.1 -547.2 43.4 -555.3 43.45 -555.75 M-42.9 -3.9 L-40.15 -4.15 -36.1 -3.5 -30.45 -3.1 -20.95 -3.95 -20.25 -3.85 Q-12.95 -4.4 -6.4 -5.65 L-6.4 -5.1 Q-18.75 -2.0 -28.85 -2.0 -41.15 -2.0 -42.65 -2.95 L-43.15 -3.55 -45.75 -3.75 -42.9 -3.9" fill="#656a3c" fill-rule="evenodd" stroke="none"/>
    <path d="M-47.35 -171.0 L-47.35 -208.1 -47.55 -208.8 -47.8 -489.0 -48.2 -505.35 Q-48.45 -515.25 -47.8 -521.55 -47.3 -526.25 -48.25 -543.35 -48.05 -553.7 -44.35 -553.55 L-42.8 -555.15 -41.85 -555.75 35.55 -555.8 35.25 -525.3 34.95 -496.35 Q34.95 -469.35 37.05 -437.8 38.65 -414.15 39.1 -400.8 L39.15 -403.25 39.15 -393.05 38.55 -379.75 38.5 -378.4 38.5 -378.95 Q34.2 -374.05 34.2 -372.0 34.2 -370.5 34.8 -369.9 35.05 -369.65 36.2 -369.2 37.0 -369.55 38.15 -370.45 L37.8 -360.2 37.8 -320.95 36.8 -283.4 36.0 -259.65 Q36.0 -257.85 36.55 -252.2 37.15 -246.25 37.8 -241.95 L37.8 -208.1 38.05 -203.65 37.55 -205.2 Q35.55 -204.75 35.55 -201.6 L35.45 -200.2 35.0 -196.25 34.95 -196.3 Q32.9 -195.9 32.45 -195.5 31.8 -194.8 31.8 -192.45 31.8 -190.9 32.05 -190.7 32.25 -190.55 33.6 -190.35 L34.25 -190.55 34.05 -188.3 33.9 -186.9 Q28.6 -181.7 27.2 -180.75 L27.55 -179.75 27.95 -179.5 30.0 -179.3 Q31.95 -179.3 34.0 -178.5 35.2 -178.05 36.75 -177.85 35.65 -177.35 35.0 -176.45 34.05 -175.2 34.05 -173.35 34.05 -171.9 34.35 -171.0 L27.6 -171.0 27.55 -171.1 25.4 -171.35 25.2 -171.3 24.95 -172.0 Q23.2 -171.95 22.25 -171.0 L-47.35 -171.0 M38.15 -171.0 L38.35 -171.55 38.35 -171.0 38.15 -171.0 M32.05 -175.05 Q32.05 -176.45 31.6 -176.55 L31.15 -176.4 Q28.8 -175.5 28.8 -173.8 28.8 -172.4 29.1 -172.3 L29.35 -172.45 30.45 -172.45 31.5 -173.15 31.6 -173.25 Q32.05 -173.8 32.05 -175.05 M23.95 -217.0 Q23.25 -218.85 22.05 -220.5 21.25 -220.15 20.55 -218.55 19.8 -216.95 19.8 -215.3 19.8 -214.0 20.25 -212.75 21.05 -210.45 22.95 -210.45 24.35 -210.45 24.6 -210.9 L24.75 -211.35 25.2 -213.4 23.95 -217.0 M35.75 -211.8 L34.75 -211.9 Q34.05 -211.75 34.05 -210.35 34.05 -208.95 34.6 -208.0 L35.55 -206.3 Q37.1 -206.55 37.35 -207.2 36.8 -210.25 35.75 -211.8 M36.65 -223.75 L35.1 -223.65 Q34.95 -223.85 34.95 -221.6 34.95 -220.2 35.25 -220.1 L35.55 -220.25 37.1 -220.5 Q37.55 -221.15 37.55 -222.5 L36.65 -223.75 M24.55 -267.35 L23.6 -267.4 Q23.6 -266.7 23.85 -266.05 L24.05 -265.6 Q26.1 -265.8 26.55 -266.5 L24.55 -267.35 M32.4 -267.2 Q33.6 -269.05 33.15 -271.65 31.8 -271.65 29.65 -270.4 27.2 -269.0 27.2 -267.5 27.2 -266.15 27.4 -266.05 L27.9 -265.8 27.9 -265.65 29.55 -265.5 Q31.25 -265.5 32.4 -267.2 M10.1 -255.45 Q11.5 -255.75 11.9 -256.95 L10.1 -259.65 Q9.2 -259.5 8.7 -258.65 8.3 -258.05 8.3 -257.4 L10.1 -255.45 M2.05 -273.15 Q3.25 -272.5 3.9 -272.7 L3.1 -274.05 2.1 -275.4 0.55 -275.4 0.55 -274.25 2.05 -273.15 M36.0 -313.65 L34.95 -315.0 Q33.5 -315.5 31.9 -315.0 30.0 -314.4 30.0 -312.6 30.0 -311.2 30.35 -311.1 L30.7 -311.25 32.7 -310.6 Q34.55 -311.2 36.0 -313.65 M25.85 -362.35 Q23.75 -363.1 22.3 -362.4 21.0 -361.8 21.0 -360.55 21.0 -359.05 21.55 -358.45 21.8 -358.2 22.95 -357.75 23.6 -357.8 24.8 -359.2 L26.3 -361.1 25.85 -362.35 M18.3 -367.1 Q16.75 -365.55 16.75 -364.8 16.75 -363.4 17.2 -363.2 L18.55 -363.0 Q20.25 -363.85 21.4 -365.65 L22.7 -368.1 22.25 -369.45 Q20.1 -369.0 18.3 -367.1 M11.7 -415.1 L12.8 -416.8 Q12.5 -417.95 10.55 -418.6 L9.45 -418.45 Q9.0 -418.25 9.0 -416.8 9.0 -415.35 9.35 -415.05 L10.55 -414.65 11.7 -415.1 M20.9 -425.8 L21.35 -426.15 21.5 -426.15 21.6 -427.8 Q21.6 -429.1 21.4 -429.25 L21.15 -429.5 Q19.1 -430.25 17.9 -429.55 L16.3 -427.95 16.5 -426.6 17.15 -425.75 19.0 -425.45 Q20.35 -425.45 20.9 -425.8 M-13.25 -233.75 Q-12.3 -233.7 -9.35 -236.05 -6.75 -238.15 -5.95 -239.25 L-10.45 -238.5 Q-13.15 -237.75 -14.95 -236.8 -14.95 -235.8 -14.55 -234.95 -14.05 -234.05 -13.25 -233.75 M-28.6 -317.15 Q-29.8 -316.85 -29.8 -316.65 -29.8 -315.2 -29.45 -314.9 L-28.35 -314.55 Q-27.7 -314.8 -27.1 -315.25 L-26.55 -315.65 -26.1 -316.35 Q-25.85 -316.45 -25.85 -317.7 -25.85 -319.1 -26.2 -319.25 L-27.45 -319.5 Q-27.45 -317.7 -28.6 -317.15 M-15.4 -347.75 L-16.75 -347.95 Q-19.9 -347.6 -22.5 -341.2 -22.5 -339.65 -21.9 -338.95 -21.45 -338.45 -20.25 -338.05 -19.0 -338.75 -16.9 -342.2 -14.95 -345.45 -14.95 -346.25 -14.95 -347.65 -15.4 -347.75 M-13.05 -384.3 Q-11.0 -384.55 -10.1 -385.85 L-10.35 -386.55 Q-11.4 -387.85 -12.55 -386.9 -13.5 -386.05 -13.5 -385.3 -13.5 -383.9 -13.25 -383.95 L-13.05 -384.3" fill="url(#gradient1)" fill-rule="evenodd" stroke="none"/>
    <path d="M43.8 -541.8 L43.85 -542.55 Q45.65 -542.0 46.05 -537.9 L46.05 -329.5 Q45.9 -326.85 46.0 -321.35 L46.2 -312.7 Q46.2 -308.5 45.35 -298.05 44.45 -287.65 43.5 -283.9 L43.3 -451.8 42.85 -507.35 42.95 -514.2 42.95 -514.6 42.95 -514.95 Q43.15 -530.1 43.8 -541.8" fill="url(#gradient2)" fill-rule="evenodd" stroke="none"/>
    <path d="M-47.1 -32.4 L-47.3 -39.8 Q-47.65 -59.05 -47.35 -95.85 L-47.35 -101.1 -47.35 -171.0 22.25 -171.0 21.35 -169.45 Q21.65 -169.05 22.3 -168.65 L22.95 -168.35 24.1 -168.9 24.3 -168.4 24.5 -168.35 27.45 -168.7 28.0 -169.7 27.6 -171.0 34.35 -171.0 34.5 -170.65 Q34.95 -169.6 36.2 -168.8 L37.55 -169.25 38.15 -171.0 38.35 -171.0 37.55 -135.95 35.3 -134.9 Q33.5 -134.15 32.25 -134.15 L29.9 -133.75 Q28.75 -133.3 27.55 -131.9 31.25 -128.55 36.2 -128.55 L37.35 -128.8 36.6 -95.85 36.45 -90.25 38.25 -54.15 37.7 -47.9 35.25 -39.1 33.2 -32.4 -47.1 -32.4 M11.7 -153.9 L13.6 -153.7 Q16.15 -153.7 17.7 -155.65 19.0 -157.3 19.0 -159.45 19.0 -159.9 20.75 -161.7 22.5 -163.45 22.5 -163.9 22.5 -166.2 22.25 -166.0 17.85 -166.0 14.15 -161.2 11.25 -157.45 11.25 -156.1 L11.35 -154.25 11.7 -153.9 M3.35 -156.6 Q5.3 -158.0 5.5 -158.55 L4.8 -159.25 0.05 -158.75 Q-3.05 -158.3 -3.9 -157.45 L-3.35 -156.4 Q-3.0 -155.8 -3.0 -155.4 L0.9 -155.2 3.35 -156.6 M32.6 -167.95 L32.05 -167.8 Q30.25 -166.75 29.7 -165.65 29.35 -164.95 29.35 -163.8 29.35 -162.1 29.55 -161.65 29.75 -161.2 30.9 -160.4 33.15 -162.15 33.15 -166.45 33.15 -167.85 32.6 -167.95 M2.1 -51.65 L1.9 -52.65 1.65 -53.7 Q-0.4 -53.7 -1.8 -52.8 -3.0 -52.0 -3.0 -51.2 -3.0 -49.5 -2.55 -48.95 -2.2 -48.45 -0.9 -48.1 -0.5 -48.15 0.45 -48.55 L1.65 -48.9 2.1 -51.65 M20.95 -76.65 Q21.85 -77.25 22.05 -77.8 21.65 -78.85 20.7 -79.8 19.15 -79.8 17.65 -77.1 18.05 -76.7 18.8 -76.3 L19.45 -76.0 Q20.05 -76.0 20.95 -76.65 M27.2 -76.75 L29.1 -76.0 30.6 -77.1 32.7 -78.7 Q32.4 -79.75 31.35 -80.75 26.75 -80.75 26.75 -77.65 26.75 -76.25 27.0 -76.35 L27.2 -76.75 M3.25 -123.25 L0.25 -123.6 Q-1.0 -123.25 -1.0 -121.75 -1.0 -120.4 -0.7 -119.95 L-0.45 -119.6 3.25 -120.05 3.7 -121.9 Q3.25 -122.55 3.25 -123.25 M-18.65 -125.25 Q-16.2 -126.7 -15.85 -127.9 -16.25 -129.15 -17.65 -129.7 -18.15 -129.5 -22.45 -128.25 -26.55 -126.75 -26.55 -125.3 -26.55 -123.75 -25.95 -123.5 L-23.85 -123.25 Q-21.2 -123.75 -18.65 -125.25" fill="url(#gradient3)" fill-rule="evenodd" stroke="none"/>
    <path d="M34.35 -171.0 L38.15 -171.0 37.55 -169.25 36.2 -168.8 Q34.95 -169.6 34.5 -170.65 L34.35 -171.0 M38.35 -171.0 L42.25 -171.0 42.25 -127.7 42.45 -127.1 42.45 -41.9 42.6 -39.3 Q42.25 -38.7 42.25 -37.45 L42.35 -36.05 41.25 -35.65 41.3 -35.2 Q41.1 -34.9 41.1 -33.8 L39.8 -32.65 39.75 -32.4 33.2 -32.4 35.25 -39.1 37.7 -47.9 38.25 -54.15 36.45 -90.25 36.6 -95.85 37.35 -128.8 36.2 -128.55 Q31.25 -128.55 27.55 -131.9 28.75 -133.3 29.9 -133.75 L32.25 -134.15 Q33.5 -134.15 35.3 -134.9 L37.55 -135.95 38.35 -171.0 M3.35 -156.6 L0.9 -155.2 -3.0 -155.4 Q-3.0 -155.8 -3.35 -156.4 L-3.9 -157.45 Q-3.05 -158.3 0.05 -158.75 L4.8 -159.25 5.5 -158.55 Q5.3 -158.0 3.35 -156.6 M11.7 -153.9 L11.35 -154.25 11.25 -156.1 Q11.25 -157.45 14.15 -161.2 17.85 -166.0 22.25 -166.0 22.5 -166.2 22.5 -163.9 22.5 -163.45 20.75 -161.7 19.0 -159.9 19.0 -159.45 19.0 -157.3 17.7 -155.65 16.15 -153.7 13.6 -153.7 L11.7 -153.9 M32.6 -167.95 Q33.15 -167.85 33.15 -166.45 33.15 -162.15 30.9 -160.4 29.75 -161.2 29.55 -161.65 29.35 -162.1 29.35 -163.8 29.35 -164.95 29.7 -165.65 30.25 -166.75 32.05 -167.8 L32.6 -167.95 M27.6 -171.0 L28.0 -169.7 27.45 -168.7 24.5 -168.35 24.3 -168.4 24.1 -168.9 22.95 -168.35 22.3 -168.65 Q21.65 -169.05 21.35 -169.45 L22.25 -171.0 27.6 -171.0 M3.25 -123.25 Q3.25 -122.55 3.7 -121.9 L3.25 -120.05 -0.45 -119.6 -0.7 -119.95 Q-1.0 -120.4 -1.0 -121.75 -1.0 -123.25 0.25 -123.6 L3.25 -123.25 M27.2 -76.75 L27.0 -76.35 Q26.75 -76.25 26.75 -77.65 26.75 -80.75 31.35 -80.75 32.4 -79.75 32.7 -78.7 L30.6 -77.1 29.1 -76.0 27.2 -76.75 M20.95 -76.65 Q20.05 -76.0 19.45 -76.0 L18.8 -76.3 Q18.05 -76.7 17.65 -77.1 19.15 -79.8 20.7 -79.8 21.65 -78.85 22.05 -77.8 21.85 -77.25 20.95 -76.65 M2.1 -51.65 L1.65 -48.9 0.45 -48.55 Q-0.5 -48.15 -0.9 -48.1 -2.2 -48.45 -2.55 -48.95 -3.0 -49.5 -3.0 -51.2 -3.0 -52.0 -1.8 -52.8 -0.4 -53.7 1.65 -53.7 L1.9 -52.65 2.1 -51.65 M-18.65 -125.25 Q-21.2 -123.75 -23.85 -123.25 L-25.95 -123.5 Q-26.55 -123.75 -26.55 -125.3 -26.55 -126.75 -22.45 -128.25 -18.15 -129.5 -17.65 -129.7 -16.25 -129.15 -15.85 -127.9 -16.2 -126.7 -18.65 -125.25" fill="url(#gradient4)" fill-rule="evenodd" stroke="none"/>
    <path d="M33.2 -32.4 L39.75 -32.4 Q39.0 -27.0 29.05 -21.4 25.3 -19.25 21.55 -17.75 L17.3 -14.4 6.9 -14.4 12.3 -17.25 17.0 -19.85 Q16.4 -23.75 16.05 -28.9 20.65 -28.05 24.0 -24.1 L29.55 -27.8 32.4 -29.75 33.2 -32.4" fill="url(#gradient5)" fill-rule="evenodd" stroke="none"/>
    <path d="M-45.8 -14.4 Q-46.75 -21.3 -47.1 -32.4 L33.2 -32.4 32.4 -29.75 29.55 -27.8 24.0 -24.1 Q20.65 -28.05 16.05 -28.9 16.4 -23.75 17.0 -19.85 L12.3 -17.25 6.9 -14.4 -45.8 -14.4" fill="url(#gradient6)" fill-rule="evenodd" stroke="none"/>
    <path d="M6.9 -14.4 L17.3 -14.4 15.85 -13.55 Q6.05 -7.85 -6.4 -5.0 L-6.4 -5.1 -6.4 -5.65 -6.4 -9.15 Q-0.05 -11.35 6.9 -14.4" fill="url(#gradient7)" fill-rule="evenodd" stroke="none"/>
    <path d="M33.95 -23.4 L34.25 -23.6 Q43.8 -26.05 48.9 -25.7 L49.5 -24.35 Q40.85 -20.95 29.25 -14.4 L29.05 -14.3 Q13.35 -6.65 9.95 -5.15 1.95 -1.7 -6.4 0.65 L-6.4 -0.65 Q-22.4 3.2 -39.8 3.2 -46.75 3.2 -50.6 1.55 -54.0 0.1 -54.0 -2.1 -54.0 -4.2 -45.05 -6.35 L-44.55 -5.5 -44.3 -5.1 -44.25 -5.1 -44.2 -5.05 Q-43.6 -4.35 -42.9 -3.9 L-45.75 -3.75 -43.15 -3.55 -42.65 -2.95 Q-41.15 -2.0 -28.85 -2.0 -18.75 -2.0 -6.4 -5.1 L-6.4 -5.0 -6.4 -4.4 Q5.0 -7.7 18.3 -13.95 L19.35 -14.4 22.05 -15.9 33.55 -23.15 33.65 -23.2 33.95 -23.4" fill="#cfd297" fill-rule="evenodd" stroke="none"/>
    <path d="M-45.05 -6.35 L-45.3 -7.15 -45.25 -7.7 -43.75 -7.8 Q-41.7 -7.8 -37.85 -6.35 -33.95 -4.8 -33.6 -4.8 -21.6 -4.8 -6.4 -9.35 L-6.4 -9.15 -6.4 -5.65 Q-12.95 -4.4 -20.25 -3.85 L-20.95 -3.95 -30.45 -3.1 -36.1 -3.5 -40.15 -4.15 -42.9 -3.9 Q-43.6 -4.35 -44.2 -5.05 L-44.25 -5.1 -44.3 -5.1 -44.55 -5.5 -45.05 -6.35" fill="url(#gradient8)" fill-rule="evenodd" stroke="none"/>
    <path d="M-45.25 -7.7 Q-45.2 -8.75 -44.8 -9.5 L-45.2 -11.0 -6.4 -11.0 -6.4 -9.35 Q-21.6 -4.8 -33.6 -4.8 -33.95 -4.8 -37.85 -6.35 -41.7 -7.8 -43.75 -7.8 L-45.25 -7.7" fill="url(#gradient9)" fill-rule="evenodd" stroke="none"/>
    <path d="M-45.2 -11.0 L-45.8 -14.4 6.9 -14.4 Q-0.05 -11.35 -6.4 -9.15 L-6.4 -9.35 -6.4 -11.0 -45.2 -11.0" fill="url(#gradient10)" fill-rule="evenodd" stroke="none"/>
  </g>
  <defs>
    <linearGradient gradientTransform="matrix(0.002, 0.3963, -1.0, 0.0051, 72.4, -197.9)" gradientUnits="userSpaceOnUse" id="gradient0" spreadMethod="pad" x1="-819.2" x2="819.2">
      <stop offset="0.0" stop-color="#8ca47d"/>
      <stop offset="1.0" stop-color="#bcc180"/>
    </linearGradient>
    <linearGradient gradientTransform="matrix(-0.0023, 0.1032, -0.9997, -0.0224, -221.35, -460.75)" gradientUnits="userSpaceOnUse" id="gradient1" spreadMethod="pad" x1="-819.2" x2="819.2">
      <stop offset="0.0" stop-color="#698b6a"/>
      <stop offset="1.0" stop-color="#93a570"/>
    </linearGradient>
    <linearGradient gradientTransform="matrix(7.0E-4, 0.1466, -1.0, 0.0051, 73.85, -382.5)" gradientUnits="userSpaceOnUse" id="gradient2" spreadMethod="pad" x1="-819.2" x2="819.2">
      <stop offset="0.0" stop-color="#8ca47d"/>
      <stop offset="1.0" stop-color="#c6cb8a"/>
    </linearGradient>
    <linearGradient gradientTransform="matrix(-0.0023, 0.1042, -0.9997, -0.0226, -221.35, -463.7)" gradientUnits="userSpaceOnUse" id="gradient3" spreadMethod="pad" x1="-819.2" x2="819.2">
      <stop offset="0.0" stop-color="#698b6a"/>
      <stop offset="1.0" stop-color="#93a570"/>
    </linearGradient>
    <linearGradient gradientTransform="matrix(0.002, 0.4003, -1.0, 0.0051, 72.4, -198.15)" gradientUnits="userSpaceOnUse" id="gradient4" spreadMethod="pad" x1="-819.2" x2="819.2">
      <stop offset="0.0" stop-color="#8ca47d"/>
      <stop offset="1.0" stop-color="#bcc180"/>
    </linearGradient>
    <linearGradient gradientTransform="matrix(0.002, 0.3914, -1.0, 0.005, 72.4, -194.45)" gradientUnits="userSpaceOnUse" id="gradient5" spreadMethod="pad" x1="-819.2" x2="819.2">
      <stop offset="0.0" stop-color="#8ca47d"/>
      <stop offset="1.0" stop-color="#bcc180"/>
    </linearGradient>
    <linearGradient gradientTransform="matrix(-0.0023, 0.1019, -0.9997, -0.0221, -221.35, -454.1)" gradientUnits="userSpaceOnUse" id="gradient6" spreadMethod="pad" x1="-819.2" x2="819.2">
      <stop offset="0.0" stop-color="#698b6a"/>
      <stop offset="1.0" stop-color="#93a570"/>
    </linearGradient>
    <linearGradient gradientTransform="matrix(0.002, 0.3439, -1.0, 0.0044, 72.4, -172.65)" gradientUnits="userSpaceOnUse" id="gradient7" spreadMethod="pad" x1="-819.2" x2="819.2">
      <stop offset="0.0" stop-color="#8ca47d"/>
      <stop offset="1.0" stop-color="#bcc180"/>
    </linearGradient>
    <linearGradient gradientTransform="matrix(0.002, 0.3058, -1.0, 0.0039, 72.4, -154.75)" gradientUnits="userSpaceOnUse" id="gradient8" spreadMethod="pad" x1="-819.2" x2="819.2">
      <stop offset="0.0" stop-color="#8ca47d"/>
      <stop offset="1.0" stop-color="#bcc180"/>
    </linearGradient>
    <linearGradient gradientTransform="matrix(-0.0023, 0.0796, -0.9997, -0.0173, -221.35, -357.55)" gradientUnits="userSpaceOnUse" id="gradient9" spreadMethod="pad" x1="-819.2" x2="819.2">
      <stop offset="0.0" stop-color="#698b6a"/>
      <stop offset="1.0" stop-color="#93a570"/>
    </linearGradient>
    <linearGradient gradientTransform="matrix(-0.0023, 0.0895, -0.9997, -0.0194, -221.35, -400.75)" gradientUnits="userSpaceOnUse" id="gradient10" spreadMethod="pad" x1="-819.2" x2="819.2">
      <stop offset="0.0" stop-color="#698b6a"/>
      <stop offset="1.0" stop-color="#93a570"/>
    </linearGradient>
  </defs>
</svg>
