<?xml version="1.0" encoding="UTF-8" standalone="no"?>
<svg xmlns:ffdec="https://www.free-decompiler.com/flash" xmlns:xlink="http://www.w3.org/1999/xlink" ffdec:objectType="shape" height="400.9px" width="285.7px" xmlns="http://www.w3.org/2000/svg">
  <g transform="matrix(1.0, 0.0, 0.0, 1.0, 146.0, 101.05)">
    <path d="M21.45 9.55 L26.4 2.8 29.35 -3.1 30.35 -5.55 Q31.7 -9.05 32.75 -12.85 L32.85 -13.1 34.8 -22.1 Q35.85 -28.15 35.85 -30.8 35.85 -44.75 33.5 -55.8 32.7 -67.75 29.3 -75.65 25.9 -83.55 20.1 -87.25 18.0 -89.5 13.7 -91.2 5.15 -94.55 -4.5 -92.65 -15.9 -90.4 -22.75 -81.4 -28.35 -74.05 -30.15 -63.0 -32.45 -54.85 -32.45 -44.95 L-32.15 -36.4 -32.45 -33.55 Q-31.9 -24.25 -29.65 -15.7 L-29.0 -13.4 -28.85 -12.9 Q-27.8 -8.4 -26.1 -3.9 -18.15 17.6 -1.65 17.6 L-0.6 17.6 0.5 17.5 3.3 17.6 Q13.95 17.6 21.45 9.55 M25.85 -84.7 Q37.25 -70.75 37.25 -45.65 37.55 -37.7 37.3 -31.05 36.85 -18.45 34.25 -8.8 26.4 20.35 0.0 20.35 -22.45 20.35 -31.35 -11.3 -35.8 -27.3 -35.85 -44.8 -35.85 -68.1 -24.45 -82.6 -14.1 -95.75 0.7 -96.45 15.6 -97.2 25.85 -84.7" fill="#474d3c" fill-rule="evenodd" stroke="none"/>
    <path d="M-0.6 17.6 Q-11.5 15.25 -19.2 6.6 -22.85 2.45 -25.15 -2.4 -26.95 -6.3 -26.95 -8.25 -26.95 -14.1 -27.2 -17.0 -27.5 -19.9 -27.5 -26.1 L-28.05 -30.65 Q-28.8 -33.65 -30.4 -34.5 L-30.5 -39.7 Q-29.9 -52.8 -25.8 -64.65 -19.95 -81.55 -9.05 -86.2 L-8.45 -85.75 Q-0.5 -79.45 1.1 -79.45 2.8 -79.45 3.05 -80.1 L3.3 -81.4 Q2.8 -84.45 0.9 -87.95 L0.3 -88.0 Q6.05 -87.95 10.8 -86.05 L5.75 -85.25 20.2 -79.65 Q27.95 -71.4 31.15 -54.9 32.7 -46.9 33.1 -37.2 L31.2 -18.15 Q30.3 -9.65 26.75 -0.95 25.8 -2.1 24.3 -2.75 23.4 -2.5 22.45 -1.7 21.45 -0.85 21.45 -0.25 L21.7 1.35 Q22.55 2.2 24.3 2.75 L25.45 2.05 24.8 3.4 Q23.0 7.15 21.05 9.95 L21.45 9.55 Q13.95 17.6 3.3 17.6 L0.5 17.5 -0.6 17.6 M-11.95 -76.5 Q-13.75 -78.1 -16.5 -77.25 -16.35 -76.1 -14.9 -73.7 -13.25 -70.95 -12.1 -70.95 L-10.35 -71.2 -10.7 -71.5 -10.15 -73.25 Q-10.7 -75.35 -11.95 -76.5 M19.5 -9.75 Q19.5 -8.05 20.2 -8.25 L20.9 -8.8 Q23.55 -8.2 25.5 -10.25 L28.15 -13.6 27.75 -14.85 Q25.4 -16.0 22.4 -13.95 19.5 -11.95 19.5 -9.75 M-10.15 7.95 L-10.7 6.3 Q-12.85 6.3 -14.0 7.45 -14.55 8.05 -15.1 9.35 L-13.2 10.7 Q-11.95 10.2 -11.35 9.75 -10.5 9.1 -10.15 7.95 M-1.9 3.6 L-2.2 3.3 -6.3 3.15 Q-6.85 3.5 -8.25 5.2 L-7.95 6.85 -7.2 7.85 Q-6.7 8.25 -4.95 8.25 L-2.5 7.85 -1.75 7.4 Q-1.65 8.1 -1.65 5.35 -1.65 3.75 -1.9 3.6 M-22.3 -9.4 L-23.65 -9.35 -23.9 -9.5 Q-24.2 -9.25 -24.2 -7.55 -24.2 -5.9 -23.75 -5.8 L-23.35 -5.75 -20.65 -5.9 -19.8 -6.05 -18.95 -7.4 -19.5 -9.05 -22.3 -9.4" fill="#4e5342" fill-rule="evenodd" stroke="none"/>
    <path d="M-0.6 17.6 L-1.65 17.6 Q-18.15 17.6 -26.1 -3.9 -27.8 -8.4 -28.85 -12.9 L-29.0 -13.4 -29.65 -15.7 Q-31.9 -24.25 -32.45 -33.55 L-32.15 -36.4 -32.45 -44.95 Q-32.45 -54.85 -30.15 -63.0 -28.35 -74.05 -22.75 -81.4 -15.9 -90.4 -4.5 -92.65 5.15 -94.55 13.7 -91.2 18.0 -89.5 20.1 -87.25 25.9 -83.55 29.3 -75.65 32.7 -67.75 33.5 -55.8 35.85 -44.75 35.85 -30.8 35.85 -28.15 34.8 -22.1 L32.85 -13.1 32.75 -12.85 Q31.7 -9.05 30.35 -5.55 L29.35 -3.1 26.4 2.8 21.45 9.55 21.05 9.95 Q23.0 7.15 24.8 3.4 L25.45 2.05 24.3 2.75 Q22.55 2.2 21.7 1.35 L21.45 -0.25 Q21.45 -0.85 22.45 -1.7 23.4 -2.5 24.3 -2.75 25.8 -2.1 26.75 -0.95 30.3 -9.65 31.2 -18.15 L33.1 -37.2 Q32.7 -46.9 31.15 -54.9 27.95 -71.4 20.2 -79.65 L5.75 -85.25 10.8 -86.05 Q6.05 -87.95 0.3 -88.0 L0.9 -87.95 Q2.8 -84.45 3.3 -81.4 L3.05 -80.1 Q2.8 -79.45 1.1 -79.45 -0.5 -79.45 -8.45 -85.75 L-9.05 -86.2 Q-19.95 -81.55 -25.8 -64.65 -29.9 -52.8 -30.5 -39.7 L-30.4 -34.5 Q-28.8 -33.65 -28.05 -30.65 L-27.5 -26.1 Q-27.5 -19.9 -27.2 -17.0 -26.95 -14.1 -26.95 -8.25 -26.95 -6.3 -25.15 -2.4 -22.85 2.45 -19.2 6.6 -11.5 15.25 -0.6 17.6 M19.5 -9.75 Q19.5 -11.95 22.4 -13.95 25.4 -16.0 27.75 -14.85 L28.15 -13.6 25.5 -10.25 Q23.55 -8.2 20.9 -8.8 L20.2 -8.25 Q19.5 -8.05 19.5 -9.75 M-11.95 -76.5 Q-10.7 -75.35 -10.15 -73.25 L-10.7 -71.5 -10.35 -71.2 -12.1 -70.95 Q-13.25 -70.95 -14.9 -73.7 -16.35 -76.1 -16.5 -77.25 -13.75 -78.1 -11.95 -76.5 M-22.3 -9.4 L-19.5 -9.05 -18.95 -7.4 -19.8 -6.05 -20.65 -5.9 -23.35 -5.75 -23.75 -5.8 Q-24.2 -5.9 -24.2 -7.55 -24.2 -9.25 -23.9 -9.5 L-23.65 -9.35 -22.3 -9.4 M-1.9 3.6 Q-1.65 3.75 -1.65 5.35 -1.65 8.1 -1.75 7.4 L-2.5 7.85 -4.95 8.25 Q-6.7 8.25 -7.2 7.85 L-7.95 6.85 -8.25 5.2 Q-6.85 3.5 -6.3 3.15 L-2.2 3.3 -1.9 3.6 M-10.15 7.95 Q-10.5 9.1 -11.35 9.75 -11.95 10.2 -13.2 10.7 L-15.1 9.35 Q-14.55 8.05 -14.0 7.45 -12.85 6.3 -10.7 6.3 L-10.15 7.95" fill="#656b56" fill-rule="evenodd" stroke="none"/>
    <path d="M40.35 -55.15 L40.25 -40.15 40.25 -38.15 40.55 -26.8 40.55 -25.0 Q44.45 -24.05 46.85 -20.6 44.95 -18.7 40.25 -18.7 L40.2 -18.7 Q39.2 -8.25 35.65 0.8 25.75 25.95 0.0 25.95 -25.1 25.95 -34.9 -5.55 -39.8 -21.35 -39.7 -37.4 L-39.7 -38.6 Q-39.9 -43.9 -39.15 -49.6 -39.15 -52.55 -38.1 -58.35 -36.45 -67.2 -33.25 -74.5 -27.65 -87.35 -18.5 -92.85 -9.95 -100.35 0.45 -101.0 12.25 -101.8 21.2 -93.1 33.4 -88.55 37.8 -73.45 40.0 -65.9 40.35 -55.15 M25.85 -84.7 Q15.6 -97.2 0.7 -96.45 -14.1 -95.75 -24.45 -82.6 -35.85 -68.1 -35.85 -44.8 -35.8 -27.3 -31.35 -11.3 -22.45 20.35 0.0 20.35 26.4 20.35 34.25 -8.8 36.85 -18.45 37.3 -31.05 37.55 -37.7 37.25 -45.65 37.25 -70.75 25.85 -84.7 M-45.2 -3.85 Q-45.2 -8.05 -41.6 -7.15 -38.05 -6.2 -38.05 -3.4 -38.05 -0.65 -38.2 -2.2 -38.85 -1.0 -41.9 0.0 L-44.75 -2.35 Q-45.2 -2.9 -45.2 -3.85 M-26.4 20.6 L-26.95 22.25 -27.35 22.55 -28.6 23.1 -30.95 20.9 -31.9 19.65 Q-31.9 17.9 -30.75 17.45 L-29.15 17.3 Q-27.6 18.85 -26.4 20.6 M16.75 30.35 Q17.9 28.95 19.35 28.5 L22.25 28.3 20.9 31.45 19.25 31.75 Q17.3 31.05 16.75 30.35" fill="#b6bb73" fill-rule="evenodd" stroke="none"/>
    <path d="M117.3 107.65 L122.75 120.55 126.25 129.1 126.1 130.5 122.05 119.8 117.3 107.65" fill="url(#gradient0)" fill-rule="evenodd" stroke="none"/>
    <path d="M126.1 130.5 L131.0 144.45 Q139.7 171.25 139.7 193.05 139.7 212.8 137.95 222.65 134.7 241.0 124.1 254.5 95.65 290.85 8.8 299.85 L-20.9 299.85 Q-81.7 291.25 -115.45 269.45 -146.0 249.7 -146.0 225.6 -146.0 205.85 -141.15 182.0 -138.5 169.0 -135.0 158.2 L-128.7 141.75 -128.05 140.4 -127.65 138.95 -122.2 124.55 -110.85 95.8 -96.85 64.2 -94.3 57.75 Q-87.25 40.2 -79.45 22.25 -70.6 -2.25 -59.45 -25.3 L-58.15 -27.9 Q-55.1 -36.35 -53.95 -41.05 -50.25 -49.35 -47.55 -56.55 -44.6 -58.4 -40.6 -58.65 -35.7 -58.9 -32.0 -56.7 -29.55 -55.2 -28.6 -53.15 -17.6 -58.35 -3.85 -60.2 16.3 -62.9 31.45 -57.15 32.1 -58.15 33.25 -58.55 35.7 -59.45 39.75 -57.55 42.1 -56.45 44.3 -54.75 44.6 -55.2 45.15 -55.2 L45.5 -55.95 45.8 -55.65 Q45.9 -56.95 46.5 -57.6 47.05 -58.2 48.5 -58.7 51.1 -55.9 56.25 -42.05 62.15 -32.35 67.8 -18.65 L76.15 2.75 Q79.9 12.4 82.9 19.0 88.2 35.25 96.75 57.35 103.95 75.9 117.3 107.65 L122.05 119.8 126.1 130.5" fill="url(#gradient1)" fill-rule="evenodd" stroke="none"/>
    <path d="M59.1 -63.9 L62.65 -62.45 62.4 -60.8 62.4 -60.7 62.2 -59.15 Q58.5 -56.1 54.15 -51.0 L45.65 -40.65 43.4 -38.1 Q36.55 -29.75 26.8 -23.15 L25.1 -22.0 Q21.35 -19.65 17.4 -17.65 L12.35 -15.4 8.05 -14.25 0.55 -14.35 -2.2 -14.25 Q-17.05 -14.25 -29.6 -25.6 -32.5 -28.3 -36.1 -32.4 -38.9 -35.15 -41.3 -38.1 L-42.35 -39.25 -43.55 -40.65 -52.05 -51.0 Q-55.45 -55.05 -58.45 -57.75 -59.6 -60.35 -60.9 -62.3 L-57.0 -63.9 -53.95 -64.9 -53.9 -64.9 -53.85 -65.3 -53.85 -65.75 Q-48.15 -66.05 -43.2 -67.55 L-42.8 -67.6 -19.4 -70.1 Q-14.7 -69.85 -8.8 -69.85 L18.6 -70.85 18.6 -70.35 44.0 -67.75 43.55 -68.6 43.5 -68.85 46.7 -68.35 47.15 -68.2 54.0 -65.95 54.0 -65.5 54.2 -65.4 59.1 -63.9 M46.8 -63.9 L42.7 -64.4 41.9 -64.55 41.55 -64.6 41.0 -64.75 40.85 -64.75 39.85 -64.9 39.0 -65.3 32.7 -66.05 18.6 -67.05 1.05 -67.35 -16.5 -67.05 -28.4 -66.25 -33.3 -65.75 -34.7 -65.6 -36.55 -65.35 -36.9 -65.3 -37.75 -64.9 -40.6 -64.4 -44.7 -63.9 -44.9 -63.85 -46.4 -63.5 -52.1 -61.85 -52.4 -61.75 -52.8 -61.55 -53.0 -61.6 -54.15 -61.0 -53.7 -60.1 Q-48.55 -50.25 -41.8 -42.4 -36.05 -35.75 -28.45 -29.65 L-26.7 -28.4 -22.3 -25.4 -22.25 -25.35 -22.0 -25.25 Q-17.35 -22.75 -12.25 -20.65 L-7.75 -18.95 -4.75 -18.65 -4.4 -18.65 4.0 -19.4 Q13.7 -21.1 24.0 -26.8 26.35 -28.1 33.7 -32.7 L35.25 -33.6 Q40.0 -37.9 43.9 -42.4 50.95 -50.6 56.25 -61.0 L55.1 -61.6 55.05 -61.6 54.2 -61.85 52.9 -62.25 48.5 -63.5 46.8 -63.9" fill="#474d3c" fill-rule="evenodd" stroke="none"/>
    <path d="M20.2 -55.35 Q32.25 -56.35 44.3 -58.95 49.65 -60.1 55.05 -61.6 L55.1 -61.6 56.25 -61.0 Q50.95 -50.6 43.9 -42.4 40.0 -37.9 35.25 -33.6 L33.7 -32.7 Q26.35 -28.1 24.0 -26.8 13.7 -21.1 4.0 -19.4 6.05 -22.5 14.55 -24.45 L17.55 -25.05 Q19.55 -29.45 26.65 -34.0 29.6 -35.9 32.7 -37.25 34.7 -41.4 37.6 -43.4 L32.55 -45.85 24.0 -49.4 15.4 -49.35 Q-18.05 -49.35 -35.9 -51.9 L-38.95 -47.45 -39.65 -46.35 -39.2 -45.8 Q-34.6 -40.35 -33.65 -35.75 L-32.9 -35.05 -31.9 -35.35 -28.6 -35.95 Q-26.8 -35.95 -25.4 -35.3 -22.65 -42.55 -19.25 -43.95 -19.6 -41.65 -22.45 -32.45 L-22.45 -32.35 -21.8 -30.65 -20.35 -30.75 Q-15.5 -30.75 -13.35 -26.5 L-13.0 -25.25 Q-10.15 -24.25 -5.35 -19.25 L-4.75 -18.65 -7.75 -18.95 -12.25 -20.65 Q-17.35 -22.75 -22.0 -25.25 L-22.25 -25.35 -22.3 -25.4 -26.7 -28.4 -28.45 -29.65 Q-36.05 -35.75 -41.8 -42.4 -48.55 -50.25 -53.7 -60.1 -52.25 -59.15 -49.65 -58.4 L-49.45 -58.35 Q-45.35 -57.2 -37.85 -56.4 L-17.35 -55.15 -15.95 -55.1 -10.75 -55.0 -4.35 -54.9 6.6 -54.85 12.7 -54.95 20.2 -55.35 M46.05 -50.5 L25.7 -49.45 Q38.6 -48.05 45.0 -45.95 44.9 -47.65 46.05 -50.5 M11.55 -42.2 Q10.2 -41.35 8.8 -41.2 L1.1 -41.2 Q-1.2 -42.25 -2.3 -43.35 L-3.3 -44.75 -1.65 -44.7 -1.65 -44.75 -2.5 -45.6 Q0.65 -48.05 5.5 -47.25 5.1 -46.0 4.55 -45.35 4.1 -44.8 3.3 -44.5 L3.75 -44.5 13.45 -43.65 11.55 -42.2 M5.65 -34.5 Q4.25 -33.75 2.2 -33.75 0.45 -33.75 -1.2 -34.55 -2.15 -35.0 -3.6 -35.95 L-3.85 -35.55 Q-4.15 -35.5 -4.15 -37.2 L-4.0 -39.15 -3.85 -39.0 -0.15 -39.3 Q1.5 -39.15 7.4 -36.5 7.0 -35.25 5.65 -34.5 M4.65 -29.35 L3.6 -28.2 Q2.85 -27.7 1.1 -27.7 L-1.2 -27.95 -1.4 -28.25 -1.65 -27.85 Q-1.95 -27.8 -1.95 -29.5 L-1.8 -31.45 -1.65 -31.3 1.15 -31.25 Q3.0 -31.05 4.4 -30.2 L4.65 -29.35 M0.25 -24.95 L-0.55 -25.8 1.25 -27.1 Q2.3 -27.6 3.85 -27.7 3.55 -26.95 2.65 -26.15 1.55 -25.15 0.25 -24.95 M-42.35 -53.0 L-42.55 -52.8 -42.0 -52.95 -42.35 -53.0 M-14.3 -43.1 L-15.4 -43.65 -15.5 -45.85 Q-14.3 -46.15 -12.75 -45.3 L-13.3 -44.1 Q-13.7 -43.45 -14.3 -43.1" fill="#656b56" fill-rule="evenodd" stroke="none"/>
    <path d="M4.0 -19.4 L-4.4 -18.65 -4.75 -18.65 -5.35 -19.25 Q-10.15 -24.25 -13.0 -25.25 L-13.35 -26.5 Q-15.5 -30.75 -20.35 -30.75 L-21.8 -30.65 -22.45 -32.35 -22.45 -32.45 Q-19.6 -41.65 -19.25 -43.95 -22.65 -42.55 -25.4 -35.3 -26.8 -35.95 -28.6 -35.95 L-31.9 -35.35 -32.9 -35.05 -33.65 -35.75 Q-34.6 -40.35 -39.2 -45.8 L-39.65 -46.35 -38.95 -47.45 -35.9 -51.9 Q-18.05 -49.35 15.4 -49.35 L24.0 -49.4 32.55 -45.85 37.6 -43.4 Q34.7 -41.4 32.7 -37.25 29.6 -35.9 26.65 -34.0 19.55 -29.45 17.55 -25.05 L14.55 -24.45 Q6.05 -22.5 4.0 -19.4 M46.05 -50.5 Q44.9 -47.65 45.0 -45.95 38.6 -48.05 25.7 -49.45 L46.05 -50.5 M0.25 -24.95 Q1.55 -25.15 2.65 -26.15 3.55 -26.95 3.85 -27.7 2.3 -27.6 1.25 -27.1 L-0.55 -25.8 0.25 -24.95 M4.65 -29.35 L4.4 -30.2 Q3.0 -31.05 1.15 -31.25 L-1.65 -31.3 -1.8 -31.45 -1.95 -29.5 Q-1.95 -27.8 -1.65 -27.85 L-1.4 -28.25 -1.2 -27.95 1.1 -27.7 Q2.85 -27.7 3.6 -28.2 L4.65 -29.35 M5.65 -34.5 Q7.0 -35.25 7.4 -36.5 1.5 -39.15 -0.15 -39.3 L-3.85 -39.0 -4.0 -39.15 -4.15 -37.2 Q-4.15 -35.5 -3.85 -35.55 L-3.6 -35.95 Q-2.15 -35.0 -1.2 -34.55 0.45 -33.75 2.2 -33.75 4.25 -33.75 5.65 -34.5 M11.55 -42.2 L13.45 -43.65 3.75 -44.5 3.3 -44.5 Q4.1 -44.8 4.55 -45.35 5.1 -46.0 5.5 -47.25 0.65 -48.05 -2.5 -45.6 L-1.65 -44.75 -1.65 -44.7 -3.3 -44.75 -2.3 -43.35 Q-1.2 -42.25 1.1 -41.2 L8.8 -41.2 Q10.2 -41.35 11.55 -42.2 M-42.35 -53.0 L-42.0 -52.95 -42.55 -52.8 -42.35 -53.0 M-14.3 -43.1 Q-13.7 -43.45 -13.3 -44.1 L-12.75 -45.3 Q-14.3 -46.15 -15.5 -45.85 L-15.4 -43.65 -14.3 -43.1" fill="#4e5342" fill-rule="evenodd" stroke="none"/>
    <path d="M-28.4 -66.25 L-16.5 -67.05 1.05 -67.35 18.6 -67.05 32.7 -66.05 Q29.75 -61.8 26.0 -59.2 23.8 -57.75 21.3 -56.7 L12.7 -54.95 6.6 -54.85 -4.35 -54.9 Q-22.35 -57.0 -28.35 -66.15 L-28.4 -66.25" fill="#e2ba5a" fill-rule="evenodd" stroke="none"/>
    <path d="M21.75 -56.8 L20.2 -55.35 12.7 -54.95 21.3 -56.7 21.75 -56.8" fill="#d1be36" fill-rule="evenodd" stroke="none"/>
    <path d="M41.55 -64.6 L41.9 -64.55 42.7 -64.4 46.8 -63.9 43.0 -59.95 Q43.45 -59.45 44.3 -58.95 32.25 -56.35 20.2 -55.35 L21.75 -56.8 Q32.2 -59.55 41.55 -64.6 M-44.9 -63.85 L-44.7 -63.9 -40.6 -64.4 -37.75 -64.9 -36.9 -65.3 -36.55 -65.35 Q-29.15 -57.85 -17.35 -55.15 L-37.85 -56.4 -42.65 -61.45 -44.9 -63.85" fill="#b9be49" fill-rule="evenodd" stroke="none"/>
    <path d="M44.3 -58.95 Q43.45 -59.45 43.0 -59.95 L46.8 -63.9 48.5 -63.5 52.9 -62.25 54.2 -61.85 55.05 -61.6 Q49.65 -60.1 44.3 -58.95 M-53.7 -60.1 L-54.15 -61.0 -53.0 -61.6 -52.8 -61.55 -52.4 -61.75 -52.1 -61.85 -46.4 -63.5 -44.9 -63.85 -42.65 -61.45 -37.85 -56.4 Q-45.35 -57.2 -49.45 -58.35 L-49.65 -58.4 Q-52.25 -59.15 -53.7 -60.1" fill="#99a365" fill-rule="evenodd" stroke="none"/>
    <path d="M41.55 -64.6 Q32.2 -59.55 21.75 -56.8 L21.3 -56.7 Q23.8 -57.75 26.0 -59.2 29.75 -61.8 32.7 -66.05 L39.0 -65.3 39.85 -64.9 40.85 -64.75 41.0 -64.75 41.55 -64.6 M-36.55 -65.35 L-34.7 -65.6 -33.3 -65.75 -28.4 -66.25 -28.35 -66.15 Q-22.35 -57.0 -4.35 -54.9 L-10.75 -55.0 -15.95 -55.1 -17.35 -55.15 Q-29.15 -57.85 -36.55 -65.35" fill="#d6c049" fill-rule="evenodd" stroke="none"/>
  </g>
  <defs>
    <linearGradient gradientTransform="matrix(-2.0E-4, 0.2096, -1.0, -8.0E-4, 72.4, -71.1)" gradientUnits="userSpaceOnUse" id="gradient0" spreadMethod="pad" x1="-819.2" x2="819.2">
      <stop offset="0.0" stop-color="#003333"/>
      <stop offset="1.0" stop-color="#003333" stop-opacity="0.0"/>
    </linearGradient>
    <linearGradient gradientTransform="matrix(-0.002, 0.3665, -1.0, -0.0053, 107.55, -142.6)" gradientUnits="userSpaceOnUse" id="gradient1" spreadMethod="pad" x1="-819.2" x2="819.2">
      <stop offset="0.0" stop-color="#003333"/>
      <stop offset="1.0" stop-color="#003333" stop-opacity="0.0"/>
    </linearGradient>
  </defs>
</svg>
