<?xml version="1.0" encoding="UTF-8" standalone="no"?>
<svg xmlns:ffdec="https://www.free-decompiler.com/flash" xmlns:xlink="http://www.w3.org/1999/xlink" ffdec:objectType="shape" height="198.55px" width="355.55px" xmlns="http://www.w3.org/2000/svg">
  <g transform="matrix(1.0, 0.0, 0.0, 1.0, -1261.2, -357.9)">
    <path d="M1308.5 386.75 Q1314.8 385.5 1316.25 383.6 1323.55 374.1 1348.0 372.45 1359.35 369.75 1376.1 369.6 L1424.15 369.6 1439.95 371.55 1455.5 372.9 Q1456.2 372.9 1457.95 371.7 L1457.95 370.6 Q1457.95 353.1 1492.55 359.7 1503.55 360.2 1517.15 364.2 L1521.05 367.3 Q1536.35 372.3 1552.65 379.5 1560.9 385.4 1565.1 394.0 1567.65 399.25 1570.15 409.9 1572.7 420.65 1575.05 425.55 L1577.25 429.45 Q1580.35 427.55 1585.4 427.55 1587.05 427.55 1588.65 428.1 1589.05 425.35 1589.65 423.3 1593.1 410.85 1604.4 410.85 1612.7 410.85 1615.55 417.85 1616.95 421.35 1616.75 425.25 1616.75 438.4 1612.7 454.45 1606.15 480.35 1592.85 480.35 1591.75 480.35 1589.65 479.4 1585.4 483.9 1582.55 491.7 1582.35 492.25 1582.0 497.6 1581.45 503.85 1580.05 508.4 1575.5 523.45 1562.1 523.45 1551.8 523.45 1537.55 509.25 1533.15 504.85 1528.75 499.45 L1525.2 495.0 Q1517.7 495.0 1494.6 502.2 1484.25 505.45 1477.9 508.1 1472.95 511.9 1468.95 515.4 1473.5 519.95 1474.9 523.1 1476.1 525.8 1476.1 531.05 1476.1 538.15 1469.15 545.35 1459.9 554.8 1443.95 554.8 1428.8 550.8 1412.0 546.75 1378.45 538.7 1364.75 538.7 1329.6 538.7 1312.95 547.6 L1302.5 553.7 Q1297.0 556.45 1290.05 556.45 1277.6 556.45 1273.15 547.85 1271.75 545.15 1271.3 541.75 L1271.1 538.5 Q1271.1 530.3 1275.15 526.8 1281.7 521.1 1301.2 520.95 1299.95 512.95 1293.4 507.7 1289.25 504.35 1279.8 500.35 1270.15 496.25 1266.95 493.85 1261.2 489.5 1261.2 483.0 1261.2 475.3 1270.5 470.25 1277.55 466.45 1296.65 461.35 1296.35 455.7 1297.45 451.55 L1295.95 449.65 1292.55 444.85 Q1292.55 439.7 1295.65 436.6 1301.7 430.5 1318.35 432.05 1300.95 428.0 1290.9 421.85 1279.35 414.75 1279.35 405.9 1279.35 393.35 1296.0 389.2 1300.35 388.1 1308.5 386.75 M1547.25 423.4 Q1547.7 414.95 1547.3 413.2 1545.95 407.7 1538.95 404.65 1534.5 402.7 1527.25 401.45 1525.8 404.2 1525.8 408.95 1525.8 419.2 1530.0 435.55 L1549.75 433.3 Q1546.9 429.8 1547.25 423.4 M1556.35 492.9 L1557.1 489.5 1557.6 486.1 1555.95 486.1 1551.8 487.35 Q1553.95 490.5 1556.35 492.9 M1560.0 459.35 L1538.6 459.7 1538.15 460.45 1540.25 464.65 Q1552.8 463.55 1560.0 459.35 M1505.1 438.25 L1503.05 422.55 Q1501.15 408.15 1500.65 401.35 L1487.65 402.6 Q1473.0 402.6 1453.45 399.7 L1405.8 399.7 Q1396.0 400.9 1375.35 404.95 L1352.4 408.5 1352.95 412.45 1353.05 413.3 1353.4 415.85 Q1365.0 419.0 1375.05 422.35 L1380.65 421.05 Q1405.35 415.8 1428.25 415.8 1451.55 415.8 1462.35 426.6 1469.1 433.3 1469.1 440.3 1472.35 439.85 1481.95 440.65 L1503.25 438.45 1505.1 438.25 M1476.5 481.65 Q1484.75 478.2 1493.5 475.6 L1497.75 474.4 1486.8 474.8 Q1477.15 475.5 1473.2 478.7 L1476.5 481.65 M1409.1 475.4 Q1405.8 475.4 1403.6 474.7 L1399.55 473.15 Q1392.8 470.85 1375.45 470.85 1351.85 470.85 1331.4 476.65 1325.55 478.35 1316.85 481.45 1308.6 484.45 1305.35 485.3 1309.1 489.5 1319.05 503.85 L1328.25 516.85 1346.8 515.2 1365.35 513.55 Q1383.25 513.55 1402.7 518.3 L1416.05 521.55 1420.1 522.35 Q1421.65 520.5 1423.75 518.6 1428.0 514.85 1440.6 505.6 1443.45 500.95 1449.8 496.2 L1446.0 496.65 Q1445.35 495.9 1445.95 494.45 1446.8 492.25 1446.8 490.25 1446.8 488.15 1444.95 484.65 1443.1 481.15 1443.1 479.1 1443.1 476.95 1443.75 474.65 1426.9 482.0 1425.8 482.0 1419.9 482.0 1416.45 478.7 1413.0 475.4 1409.1 475.4" fill="#5c7250" fill-rule="evenodd" stroke="none"/>
  </g>
</svg>
