<?xml version="1.0" encoding="UTF-8" standalone="no"?>
<svg xmlns:ffdec="https://www.free-decompiler.com/flash" xmlns:xlink="http://www.w3.org/1999/xlink" ffdec:objectType="shape" height="376.3px" width="733.05px" xmlns="http://www.w3.org/2000/svg">
  <g transform="matrix(1.0, 0.0, 0.0, 1.0, 366.5, 375.55)">
    <path d="M213.45 -297.4 Q209.6 -298.95 206.95 -297.8 204.6 -296.75 204.6 -294.5 L204.7 -291.75 204.8 -292.05 206.05 -290.55 Q206.75 -289.95 209.3 -289.95 211.8 -289.95 212.85 -290.55 L213.85 -291.2 214.05 -291.2 Q214.25 -291.7 214.25 -294.3 214.25 -296.7 213.85 -296.9 L213.45 -297.4 M207.7 -351.0 L207.25 -350.4 193.15 -350.85 Q181.45 -349.75 176.55 -344.2 177.4 -343.3 183.3 -342.3 L192.2 -341.3 Q196.85 -341.3 202.15 -343.35 208.1 -345.7 208.1 -348.55 208.1 -351.1 207.7 -351.0 M319.45 -303.6 Q319.05 -304.8 317.8 -305.25 313.7 -305.65 307.55 -302.95 302.05 -300.55 299.85 -298.2 L301.15 -296.7 Q302.0 -296.15 304.6 -296.15 306.5 -296.15 311.95 -298.85 317.5 -301.6 319.45 -303.6 M315.35 -328.9 Q312.05 -326.65 312.05 -323.15 312.05 -322.75 312.95 -322.0 L317.0 -318.65 Q325.45 -321.4 327.65 -322.55 329.75 -323.65 329.75 -325.25 329.75 -327.65 329.35 -328.15 L328.95 -328.95 Q320.0 -332.15 315.35 -328.9 M253.05 -300.05 L256.95 -299.85 Q263.75 -299.85 271.05 -303.15 L273.45 -304.3 273.45 -304.0 Q273.45 -301.8 273.9 -300.85 275.1 -298.2 279.25 -298.2 L280.85 -298.35 281.4 -297.7 284.2 -297.0 Q287.75 -298.65 292.95 -299.75 L301.0 -301.35 Q309.15 -303.3 309.15 -309.15 309.15 -311.55 308.55 -312.3 L307.95 -313.25 Q308.75 -314.3 308.75 -315.35 308.75 -317.9 308.15 -318.1 307.8 -318.2 307.5 -317.8 302.9 -319.1 295.95 -316.8 L292.3 -315.35 Q286.45 -315.75 283.25 -314.05 L281.8 -313.0 281.7 -313.0 Q279.35 -312.55 277.55 -311.35 L277.2 -311.7 276.35 -312.05 Q265.8 -311.2 258.7 -309.2 250.8 -306.95 250.8 -304.2 250.8 -301.7 251.5 -301.0 L252.2 -300.3 253.05 -300.05 M218.25 -368.95 L283.25 -362.85 Q290.1 -362.45 342.2 -363.2 355.75 -363.2 361.65 -343.7 364.65 -333.95 364.9 -323.8 L362.45 -265.4 361.7 -247.8 362.85 -235.75 Q365.3 -211.25 365.3 -199.4 L363.25 -144.55 362.55 -126.7 363.25 -111.15 362.9 -88.5 362.45 -73.1 363.85 -63.2 Q366.55 -45.85 366.55 -37.95 366.55 -30.55 366.15 -28.7 L365.5 -26.3 Q366.75 -18.7 365.15 -12.85 L364.9 -11.95 364.75 -7.7 Q364.0 0.75 359.5 0.75 L334.75 -0.3 Q318.6 -0.65 315.2 -2.25 L314.7 -2.5 290.4 -1.65 149.15 -0.8 -328.95 0.0 -331.2 -0.7 -354.1 0.25 Q-361.05 0.25 -362.85 -4.05 -363.35 -5.2 -363.35 -8.95 -363.35 -13.35 -362.7 -16.55 -364.3 -24.2 -363.35 -32.25 L-363.65 -40.35 Q-365.35 -50.8 -364.7 -64.0 L-363.2 -80.0 -364.85 -114.85 -366.5 -149.7 -365.8 -190.8 Q-365.3 -233.35 -366.05 -255.5 L-366.05 -334.5 Q-357.8 -343.05 -353.0 -346.0 L-351.65 -346.75 Q-350.0 -353.7 -343.5 -358.15 -321.5 -373.25 -222.3 -373.9 L-171.6 -374.3 -168.75 -374.95 Q-166.4 -375.35 -166.4 -375.55 L34.05 -375.55 46.45 -374.1 57.55 -372.65 132.65 -372.25 151.6 -370.8 169.35 -369.35 218.25 -368.95 M-45.55 -30.9 L-42.55 -30.4 -36.5 -29.9 Q-29.8 -29.9 -26.95 -32.95 -25.6 -34.35 -24.5 -38.15 L-26.15 -40.6 Q-29.05 -40.6 -36.45 -38.6 -44.55 -36.45 -46.8 -34.65 L-45.55 -30.9 M-62.9 -78.55 Q-66.1 -78.7 -67.65 -76.45 -68.65 -74.95 -68.65 -73.4 -68.65 -70.9 -68.2 -70.85 L-66.2 -70.7 Q-61.55 -70.45 -60.15 -72.75 -59.35 -75.55 -58.75 -76.5 L-62.9 -78.55 M-35.25 -78.55 L-36.05 -80.85 Q-41.85 -82.3 -45.95 -80.4 -49.7 -78.7 -49.7 -75.65 -49.7 -72.9 -48.6 -72.4 L-44.75 -71.95 -37.95 -73.95 Q-35.4 -75.2 -35.25 -78.55 M-7.0 -86.2 Q-12.5 -89.1 -14.95 -87.7 -16.35 -86.9 -17.7 -84.55 -16.55 -83.35 -15.9 -83.05 -14.7 -82.5 -11.95 -82.5 -9.3 -82.5 -8.15 -83.35 L-6.6 -84.95 -7.0 -86.2 M-124.35 -15.85 Q-124.55 -16.45 -125.3 -17.65 L-126.0 -19.15 Q-133.15 -19.0 -135.55 -18.25 -138.35 -17.35 -138.35 -14.85 -138.35 -12.35 -138.05 -12.2 -137.55 -12.35 -137.15 -11.75 L-136.65 -11.3 -133.0 -10.9 Q-128.2 -10.9 -124.35 -15.85 M-161.9 -134.25 Q-156.0 -134.65 -148.5 -137.7 -139.2 -141.5 -136.3 -146.6 -141.7 -149.0 -154.75 -142.6 -163.55 -138.3 -168.9 -134.25 L-161.9 -134.25 M-115.5 -152.8 Q-112.8 -152.8 -111.6 -154.0 -111.05 -154.55 -110.55 -156.1 L-111.75 -158.6 Q-118.4 -159.6 -120.2 -157.35 L-120.05 -155.5 Q-119.85 -154.45 -119.2 -153.65 L-118.9 -153.2 -115.5 -152.8 M-90.45 -188.6 Q-87.05 -190.9 -86.2 -191.8 L-87.0 -194.25 Q-91.3 -194.7 -94.95 -192.2 -97.8 -190.25 -99.0 -187.65 -97.75 -186.45 -95.7 -185.6 -94.1 -186.2 -90.45 -188.6 M-38.95 -106.0 L-39.15 -106.2 Q-39.35 -105.9 -39.35 -103.3 -39.35 -100.85 -38.95 -100.75 L-38.55 -100.65 -33.2 -101.05 -31.95 -103.1 -32.75 -105.6 -36.95 -106.1 -38.95 -106.0 M-3.3 -141.25 L-4.25 -143.05 -4.95 -144.55 Q-10.6 -145.5 -14.5 -142.95 -16.4 -141.7 -19.55 -137.75 L-18.95 -135.9 -17.85 -135.05 -15.25 -134.85 Q-14.55 -134.85 -10.8 -136.75 -6.4 -138.95 -3.3 -141.25 M-50.5 -129.9 Q-50.5 -127.1 -49.7 -126.4 L-46.4 -125.4 Q-38.15 -128.45 -38.15 -131.15 -38.15 -133.7 -38.75 -134.0 -39.75 -134.1 -40.6 -134.85 -43.8 -135.8 -47.1 -134.25 -50.5 -132.65 -50.5 -129.9 M-28.0 -161.35 L-27.4 -160.65 -22.6 -161.05 -20.6 -161.45 -19.55 -164.75 Q-20.2 -165.55 -20.45 -166.45 L-20.6 -167.25 Q-23.55 -168.4 -26.0 -167.75 -28.65 -167.05 -28.65 -164.55 -28.65 -162.1 -28.0 -161.35 M-39.5 -158.5 L-38.15 -161.05 Q-41.15 -166.35 -45.45 -165.95 -49.7 -165.6 -49.7 -160.65 -49.7 -160.3 -48.75 -159.55 L-44.75 -156.1 Q-41.55 -155.95 -39.5 -158.5 M-209.55 -55.0 Q-216.15 -54.5 -216.15 -51.15 -216.15 -48.65 -215.8 -48.5 L-214.9 -48.05 -214.8 -47.6 -211.6 -47.2 Q-209.9 -47.2 -205.35 -49.65 -200.6 -52.2 -200.05 -53.8 -203.6 -55.5 -209.55 -55.0 M-220.45 -93.95 L-219.0 -96.9 Q-221.8 -97.8 -223.55 -97.75 -226.65 -97.75 -229.95 -94.45 L-229.1 -93.2 -228.9 -92.8 -225.6 -92.4 Q-221.9 -92.4 -220.45 -93.95 M-167.25 -56.7 Q-166.0 -55.45 -163.1 -55.05 -162.25 -55.45 -154.55 -59.45 -146.65 -63.3 -143.55 -63.3 -141.85 -63.3 -140.65 -62.4 L-138.6 -60.4 Q-135.5 -57.5 -129.3 -57.5 -124.95 -57.5 -122.2 -58.75 -118.35 -60.5 -118.35 -64.35 -118.35 -71.95 -125.1 -73.55 -130.8 -74.9 -140.4 -71.9 -148.65 -69.3 -156.9 -64.55 -164.75 -60.0 -167.25 -56.7 M-291.6 -23.1 Q-291.6 -22.7 -290.65 -21.95 L-286.25 -18.55 Q-284.15 -18.7 -281.65 -20.9 -279.25 -23.05 -279.25 -24.5 -279.25 -26.95 -279.85 -27.55 L-280.5 -28.25 Q-285.6 -29.85 -288.75 -28.15 -291.6 -26.55 -291.6 -23.1 M-296.05 -54.45 Q-299.65 -54.05 -302.75 -49.7 -301.5 -48.45 -300.95 -48.2 -299.75 -47.6 -297.0 -47.6 -292.95 -47.6 -291.25 -49.25 -289.85 -51.3 -288.75 -52.15 -292.9 -54.8 -296.05 -54.45 M-244.8 -75.45 L-244.3 -73.2 -241.1 -72.8 Q-236.1 -72.8 -231.2 -76.9 L-231.6 -78.15 Q-235.1 -81.35 -239.65 -79.75 -243.65 -78.35 -244.8 -75.45 M-274.5 -92.4 L-280.95 -91.3 Q-285.8 -90.25 -287.9 -88.65 -287.1 -87.45 -284.6 -87.0 L-278.25 -89.3 Q-276.5 -90.1 -274.5 -92.4 M-244.4 -130.1 Q-244.4 -132.5 -244.8 -132.65 -245.2 -132.8 -245.2 -133.2 L-259.0 -132.8 Q-262.95 -131.65 -262.95 -128.25 -262.95 -126.9 -261.6 -125.45 L-258.4 -122.5 Q-253.35 -123.1 -249.45 -124.75 -244.4 -126.95 -244.4 -130.1 M-204.35 -169.6 L-205.0 -169.3 Q-213.55 -168.5 -215.3 -164.55 L-214.9 -162.7 Q-213.25 -161.45 -210.75 -160.65 -207.55 -160.8 -205.45 -163.05 -203.75 -164.9 -203.75 -166.85 -203.75 -169.4 -204.35 -169.6 M-238.2 -151.35 Q-238.2 -153.8 -238.8 -154.6 L-239.45 -155.7 -245.95 -155.05 Q-243.75 -157.2 -241.9 -159.4 -255.4 -161.8 -265.25 -156.55 -273.9 -151.9 -273.9 -145.8 L-273.9 -145.55 -276.25 -144.6 Q-304.4 -132.85 -304.4 -128.25 L-304.4 -127.85 Q-308.55 -126.3 -309.35 -124.95 L-308.55 -123.75 -304.4 -122.5 Q-299.95 -124.65 -296.35 -125.85 -295.0 -126.3 -293.7 -127.85 L-293.75 -127.95 Q-260.6 -135.95 -248.55 -141.25 -238.2 -145.8 -238.2 -151.35 M-223.85 -166.5 Q-226.95 -165.95 -229.2 -163.95 -231.6 -161.8 -231.6 -159.0 -231.6 -156.75 -231.15 -155.85 -229.75 -153.2 -224.8 -153.2 -222.2 -153.2 -219.4 -155.25 -216.15 -157.6 -216.15 -160.85 -216.15 -164.25 -218.55 -165.75 -220.7 -167.1 -223.85 -166.5 M-225.2 -176.75 L-225.6 -177.1 -228.3 -177.15 -233.05 -176.3 Q-237.35 -175.0 -237.35 -172.8 -237.35 -170.35 -237.05 -170.2 L-236.15 -169.7 Q-233.6 -170.25 -230.3 -171.7 -226.6 -173.25 -224.6 -174.9 L-225.2 -176.75 M-185.6 -171.8 Q-192.1 -172.75 -194.25 -170.55 L-194.1 -168.7 Q-193.85 -167.65 -193.05 -166.85 L-192.75 -166.4 -189.3 -166.0 Q-186.65 -166.0 -185.45 -167.2 -184.9 -167.7 -184.35 -169.3 L-185.6 -171.8 M-186.85 -188.1 Q-195.4 -187.25 -200.35 -185.1 -205.8 -182.75 -205.8 -179.2 -205.8 -176.65 -205.2 -176.45 -204.9 -176.35 -204.6 -176.75 L-204.7 -176.3 -201.7 -175.9 Q-198.4 -175.9 -193.6 -180.35 -190.0 -183.7 -186.85 -188.1 M-166.55 -173.9 L-167.25 -174.65 Q-169.05 -174.65 -170.65 -173.65 -172.2 -172.75 -172.2 -171.8 -170.95 -170.55 -168.05 -170.15 -166.4 -170.95 -165.6 -172.2 -165.85 -173.0 -166.55 -173.9 M-165.5 -190.15 L-165.2 -193.05 -166.0 -194.25 Q-170.55 -196.2 -173.1 -194.25 -174.5 -193.15 -176.3 -190.55 L-175.2 -189.45 -171.8 -189.3 Q-166.35 -189.3 -165.5 -190.15 M-179.85 -231.2 L-180.65 -233.85 Q-186.1 -235.2 -188.35 -233.1 -189.75 -231.75 -189.75 -229.35 -189.75 -226.6 -188.8 -225.8 L-186.0 -224.8 Q-183.55 -225.4 -179.85 -231.2 M-169.7 -224.4 Q-167.1 -224.4 -166.25 -226.0 L-165.6 -228.5 Q-167.25 -234.15 -171.75 -234.1 -173.6 -234.1 -174.8 -232.8 -176.05 -231.35 -175.9 -228.9 L-172.95 -226.25 Q-170.85 -224.4 -169.7 -224.4 M-189.75 -275.55 Q-189.75 -278.1 -190.55 -278.3 -191.0 -278.4 -191.4 -278.0 -198.95 -278.8 -202.65 -276.55 -205.2 -275.0 -205.2 -272.65 -205.2 -270.05 -204.65 -269.85 L-204.15 -270.15 -203.45 -269.75 -199.65 -269.35 Q-197.15 -269.7 -194.7 -270.65 -189.75 -272.6 -189.75 -275.55 M-259.2 -221.9 Q-258.4 -220.05 -258.4 -219.45 L-257.9 -219.0 -254.3 -218.6 Q-251.85 -218.6 -245.3 -221.25 -238.75 -223.95 -233.65 -223.95 L-218.6 -222.7 Q-216.65 -222.7 -215.95 -223.95 -215.3 -225.2 -215.3 -228.9 -215.3 -231.5 -215.7 -231.6 L-216.15 -231.2 Q-256.85 -228.25 -260.05 -224.4 L-259.2 -221.9 M-251.4 -200.45 Q-251.4 -200.1 -250.45 -199.25 L-246.85 -195.9 Q-240.85 -196.45 -237.8 -199.6 -235.7 -201.75 -235.7 -203.75 -235.7 -206.2 -236.1 -206.7 L-236.55 -207.45 Q-243.2 -208.45 -247.6 -205.8 -251.4 -203.55 -251.4 -200.45 M-306.15 -218.25 L-311.85 -218.6 Q-311.85 -217.15 -311.2 -215.7 L-310.6 -214.05 -302.75 -212.85 Q-298.15 -213.4 -297.4 -215.7 -302.1 -217.45 -306.15 -218.25 M-254.1 -256.15 Q-254.1 -253.65 -253.5 -253.55 L-251.4 -253.45 Q-248.9 -254.35 -244.45 -256.5 -240.15 -258.6 -239.0 -259.45 -242.8 -264.45 -248.65 -262.1 -250.95 -261.2 -252.55 -259.45 -254.1 -257.7 -254.1 -256.15 M-273.2 -258.45 Q-282.55 -258.9 -282.55 -252.85 -282.55 -250.35 -282.1 -250.25 L-281.7 -250.15 -272.75 -249.45 -265.85 -248.5 Q-263.15 -248.5 -261.9 -250.4 L-260.45 -253.05 Q-264.1 -258.0 -273.2 -258.45 M-266.05 -304.4 Q-265.25 -303.6 -264.95 -302.9 L-264.8 -302.35 -260.25 -301.95 Q-258.0 -301.95 -255.5 -303.8 -252.85 -305.8 -250.8 -309.35 -252.2 -310.4 -256.15 -311.4 -259.65 -309.9 -261.1 -309.05 -263.4 -307.7 -266.05 -304.4 M-285.0 -298.95 L-285.45 -299.05 Q-289.8 -299.25 -297.1 -296.6 -305.25 -293.65 -305.25 -290.6 -305.25 -288.1 -304.8 -288.0 L-304.4 -287.9 Q-296.45 -287.7 -291.4 -289.25 -284.6 -291.4 -284.6 -296.35 -284.6 -298.85 -285.0 -298.95 M-287.5 -338.45 Q-286.85 -337.5 -285.0 -337.5 -283.15 -337.5 -282.55 -338.45 -286.8 -340.55 -287.5 -338.45 M-182.7 -334.3 Q-184.55 -335.6 -187.2 -335.9 L-191.4 -335.95 -191.6 -336.15 Q-191.8 -335.85 -191.8 -333.3 -191.8 -330.8 -191.35 -330.7 -190.95 -331.0 -190.95 -330.6 L-185.0 -331.2 -182.7 -331.85 -182.7 -334.3 M-162.5 -341.75 L-163.75 -344.2 Q-167.35 -345.6 -171.95 -343.9 -176.95 -342.1 -176.95 -338.25 -176.95 -335.7 -176.25 -335.65 L-174.05 -335.55 -167.65 -338.8 Q-164.1 -340.5 -162.5 -341.75 M-221.7 -327.1 Q-221.7 -329.5 -222.5 -330.35 L-223.35 -331.4 Q-229.75 -332.9 -236.75 -329.5 -243.55 -326.25 -243.55 -322.35 -243.55 -319.9 -242.9 -318.8 L-242.3 -317.4 -241.35 -317.05 -244.6 -316.55 Q-252.2 -315.0 -252.2 -312.65 -252.2 -311.45 -250.9 -309.85 L-248.1 -306.9 Q-236.55 -309.3 -232.95 -310.6 -227.45 -312.65 -227.45 -315.75 -227.45 -318.2 -228.5 -318.6 L-229.55 -319.05 -230.65 -318.85 -228.0 -320.3 Q-221.7 -324.05 -221.7 -327.1 M-218.0 -328.55 Q-218.0 -327.3 -216.75 -325.9 L-215.7 -324.85 Q-219.2 -323.45 -219.2 -320.1 -219.2 -317.55 -218.25 -317.5 L-215.1 -317.4 Q-211.6 -318.2 -208.9 -320.3 L-205.8 -323.15 -206.45 -325.65 -207.85 -325.75 -206.5 -326.75 Q-202.65 -329.65 -202.5 -332.25 -206.6 -334.65 -212.1 -333.8 -218.0 -332.85 -218.0 -328.55 M-43.65 -207.25 Q-47.25 -207.65 -51.05 -206.0 -57.1 -203.35 -57.1 -199.2 -57.1 -196.5 -55.95 -195.7 L-53.0 -194.7 Q-46.6 -196.1 -42.45 -198.95 L-37.3 -198.0 Q-35.35 -197.7 -33.75 -198.05 L-33.2 -198.0 Q-30.5 -198.5 -26.5 -200.95 -22.0 -203.65 -20.6 -206.25 -23.9 -212.25 -29.85 -210.3 L-30.15 -210.5 Q-32.55 -211.7 -36.25 -210.95 -39.75 -210.3 -42.4 -208.35 L-43.65 -207.25 M-67.4 -199.2 Q-73.4 -200.25 -76.65 -198.25 -79.4 -196.6 -80.4 -192.4 L-80.0 -190.55 Q-79.15 -189.9 -78.85 -189.05 -78.4 -188.5 -75.9 -188.5 -73.7 -188.5 -69.9 -190.95 -65.75 -193.65 -65.75 -195.9 -65.75 -198.4 -66.55 -198.8 -67.4 -198.8 -67.4 -199.2 M-13.8 -291.8 L-14.2 -291.2 -19.4 -290.9 Q-23.7 -289.65 -26.15 -286.25 L-24.35 -284.75 Q-23.15 -284.2 -20.4 -284.2 -13.4 -284.2 -13.4 -289.35 -13.4 -291.9 -13.8 -291.8 M-109.7 -214.9 L-105.6 -213.65 Q-104.35 -214.15 -98.4 -216.95 -92.45 -219.45 -89.1 -219.45 L-83.55 -218.9 -76.65 -218.55 Q-68.25 -219.15 -68.25 -226.65 -68.25 -245.2 -88.05 -232.55 -98.1 -226.1 -109.7 -214.9 M-140.0 -206.25 Q-135.65 -208.5 -130.8 -209.6 -127.15 -210.45 -126.0 -211.6 L-126.6 -212.85 Q-127.6 -212.85 -134.7 -210.65 -142.5 -208.2 -142.5 -207.05 -142.5 -204.5 -141.25 -205.1 -140.6 -205.4 -140.0 -206.25 M-138.35 -234.9 L-139.6 -237.35 Q-142.65 -237.95 -148.15 -236.05 -153.55 -234.2 -156.1 -231.8 L-155.7 -230.15 Q-154.85 -229.5 -154.55 -228.65 -154.05 -228.1 -151.55 -228.1 -149.1 -228.1 -145.2 -229.5 -139.7 -231.5 -138.35 -234.9 M-89.5 -253.45 Q-89.7 -253.25 -89.4 -253.05 L-86.2 -252.65 Q-84.4 -252.65 -79.2 -258.4 -81.9 -263.0 -86.5 -260.85 -88.2 -260.1 -89.5 -258.7 -90.75 -257.35 -90.75 -256.55 -90.75 -254.1 -90.4 -253.95 L-89.5 -253.45 M-122.3 -299.05 Q-126.6 -304.0 -130.1 -301.45 -133.0 -299.4 -133.0 -296.15 L-130.9 -294.65 -129.7 -294.1 Q-127.05 -293.55 -125.3 -295.4 L-122.3 -299.05 M-47.1 -319.45 L-47.2 -317.0 -47.15 -315.6 -50.65 -314.4 Q-53.6 -313.1 -53.6 -310.4 -53.6 -307.9 -52.95 -307.8 L-50.9 -307.7 Q-45.5 -308.15 -43.45 -309.25 -41.6 -310.25 -41.45 -312.45 -39.15 -312.6 -37.75 -314.55 -37.0 -315.65 -36.5 -317.0 -37.3 -319.4 -37.3 -320.7 L-43.55 -321.0 -46.4 -320.7 Q-46.65 -319.9 -47.1 -319.45 M-68.35 -304.4 L-63.9 -304.4 Q-56.8 -305.85 -55.45 -307.4 -54.55 -308.5 -53.2 -312.45 L-55.25 -315.15 -70.4 -313.35 Q-75.05 -311.95 -75.05 -307.1 L-75.05 -306.45 Q-77.65 -305.65 -80.75 -304.25 -89.15 -300.5 -89.8 -296.3 L-91.2 -295.85 Q-94.85 -294.3 -94.85 -290.8 -94.85 -288.35 -94.45 -287.85 L-94.05 -287.1 Q-93.95 -286.9 -93.3 -286.65 L-89.5 -286.25 Q-88.7 -286.25 -85.2 -288.35 -81.2 -290.8 -79.6 -293.05 L-80.0 -296.15 -80.15 -296.15 -75.15 -299.2 Q-70.0 -302.5 -68.35 -304.4 M-62.6 -325.4 L-63.5 -326.9 Q-68.45 -327.75 -71.5 -326.0 -74.25 -324.45 -74.25 -321.75 -74.25 -321.15 -72.85 -319.95 L-68.85 -316.8 Q-66.85 -317.6 -64.7 -319.8 L-61.45 -323.6 Q-61.65 -324.15 -62.6 -325.4 M-45.55 -348.75 Q-46.4 -350.0 -46.4 -351.2 -56.4 -352.7 -60.75 -351.1 -62.8 -350.35 -65.55 -347.1 L-64.5 -345.6 -64.35 -345.05 -54.2 -344.6 -48.9 -345.0 -46.4 -345.45 -45.55 -348.75 M-340.9 -37.3 L-341.75 -39.8 -345.9 -40.65 -347.9 -40.6 Q-348.3 -39.55 -348.65 -39.4 L-348.75 -36.7 Q-348.75 -34.05 -347.85 -33.5 -347.3 -33.1 -345.45 -32.75 -343.4 -33.6 -342.55 -34.2 -341.15 -35.2 -340.9 -37.3 M-347.1 -114.25 L-347.1 -110.55 Q-346.45 -109.9 -346.1 -109.05 -345.55 -108.45 -342.95 -108.45 L-335.8 -109.0 Q-333.3 -109.8 -320.1 -116.3 -320.35 -116.85 -323.1 -117.25 L-325.85 -117.55 Q-330.2 -116.3 -337.3 -115.45 L-347.1 -114.25 M-324.4 -142.9 L-324.4 -145.4 -328.8 -145.25 Q-331.0 -144.7 -331.0 -142.9 -331.0 -140.35 -329.75 -140.35 L-328.55 -140.85 Q-327.5 -141.25 -326.0 -142.15 -324.85 -142.9 -324.4 -142.9 M-356.15 -215.7 L-354.1 -216.15 -353.7 -218.6 Q-354.25 -219.5 -355.05 -219.65 L-357.0 -219.45 Q-357.0 -216.95 -356.15 -215.7 M-338.1 -224.7 Q-333.7 -226.5 -332.65 -228.1 L-333.5 -230.55 Q-336.25 -232.95 -341.75 -232.05 -347.5 -231.1 -347.5 -227.05 -347.5 -224.6 -347.2 -224.45 L-346.25 -223.95 -346.15 -223.55 -342.95 -223.15 Q-341.9 -223.15 -338.1 -224.7 M-330.0 -276.4 Q-333.5 -275.4 -333.5 -272.45 -333.5 -269.85 -333.05 -269.95 L-332.65 -270.6 -330.3 -269.1 Q-328.85 -268.5 -326.05 -268.5 L-321.95 -268.9 -320.3 -269.35 -319.45 -273.25 Q-319.45 -274.7 -321.1 -276.35 -326.75 -277.3 -330.0 -276.4 M-328.55 -317.4 Q-327.5 -316.35 -326.3 -315.9 -324.8 -315.35 -321.95 -315.35 -317.95 -315.35 -316.2 -316.7 -315.5 -317.25 -313.25 -320.7 -314.75 -321.6 -320.45 -321.7 L-328.55 -321.1 -328.55 -317.4 M336.8 -126.4 L335.55 -128.9 333.1 -128.1 Q331.65 -127.3 330.2 -125.15 331.4 -123.95 333.5 -123.1 336.0 -124.15 336.8 -126.4 M318.2 -39.35 L318.95 -38.95 322.75 -38.55 Q324.4 -38.55 325.45 -39.85 L327.7 -43.5 Q323.85 -49.15 320.6 -47.95 317.8 -46.85 317.8 -43.1 317.8 -40.5 318.0 -39.65 L318.2 -39.35 M277.85 -51.35 L276.2 -53.8 Q274.05 -54.65 270.05 -53.1 266.5 -51.7 263.4 -49.25 263.75 -48.2 266.15 -46.95 268.85 -45.55 271.65 -45.55 273.4 -45.55 275.15 -47.5 L277.85 -51.35 M270.7 -58.9 Q270.0 -60.0 270.0 -60.4 L265.75 -60.1 Q264.55 -59.8 264.25 -59.15 264.6 -58.15 265.65 -56.7 266.8 -55.1 267.95 -54.2 269.9 -54.5 270.75 -55.35 271.25 -55.85 271.65 -57.1 L270.7 -58.9 M316.55 -69.8 L314.5 -69.7 314.3 -69.9 Q314.1 -69.6 314.1 -67.0 314.1 -64.55 314.5 -64.45 314.9 -64.75 314.9 -64.35 L320.3 -64.75 321.5 -66.8 320.7 -69.3 316.55 -69.8 M300.7 -67.2 L299.95 -69.0 Q299.45 -70.05 299.45 -70.5 297.3 -71.5 293.2 -70.55 288.3 -69.5 288.3 -66.0 288.3 -63.4 288.7 -63.05 288.95 -62.75 289.95 -62.25 L290.05 -61.85 293.25 -61.45 Q295.6 -61.45 297.15 -62.45 298.7 -63.5 299.45 -63.5 L300.7 -67.2 M232.65 -38.15 L233.7 -37.9 237.85 -37.7 Q240.85 -37.7 242.3 -38.7 243.85 -39.8 244.45 -42.65 L243.2 -45.15 236.8 -44.3 Q231.65 -43.05 231.65 -40.8 231.65 -38.35 232.15 -38.25 L232.65 -38.15 M188.55 -27.6 Q192.85 -28.45 194.75 -30.25 L197.2 -32.55 196.8 -33.6 Q194.55 -37.5 189.45 -37.1 184.4 -36.7 184.4 -33.2 184.4 -30.35 185.55 -29.1 186.35 -28.15 188.55 -27.6 M242.35 -64.35 Q242.8 -63.8 242.5 -61.15 243.25 -58.8 249.4 -59.15 250.5 -59.45 251.35 -60.3 L252.7 -62.05 Q251.45 -64.25 248.4 -66.25 245.35 -68.25 243.2 -68.25 L242.35 -64.35 M217.0 -65.35 L217.3 -64.95 220.7 -64.55 Q222.3 -64.55 224.45 -65.7 227.7 -67.45 227.7 -70.7 227.7 -73.15 227.3 -73.65 L226.9 -74.45 Q222.5 -75.8 218.9 -74.0 215.35 -72.25 215.35 -69.05 215.35 -66.55 215.85 -66.15 216.15 -65.85 217.0 -65.35 M199.8 -103.0 Q195.35 -104.25 188.25 -102.0 181.8 -99.95 176.65 -96.3 171.4 -92.55 171.4 -89.9 171.4 -87.5 171.85 -87.0 L172.25 -86.2 172.75 -85.85 176.35 -85.55 Q177.6 -85.55 183.0 -88.35 188.4 -91.15 189.75 -91.15 194.5 -91.15 200.95 -89.05 203.1 -88.75 204.0 -89.95 205.05 -91.3 205.05 -95.25 205.05 -101.5 199.8 -103.0 M209.75 -177.35 Q209.75 -179.9 209.2 -180.3 208.4 -180.45 207.9 -181.05 192.85 -183.85 183.55 -180.85 174.25 -177.85 168.7 -168.3 171.15 -167.3 174.65 -164.6 176.25 -163.35 182.3 -163.35 190.9 -163.35 198.9 -166.25 209.75 -170.15 209.75 -177.35 M236.55 -193.45 L235.7 -195.9 Q230.0 -197.1 225.15 -195.45 219.65 -193.55 219.65 -189.1 219.65 -186.65 219.95 -186.5 L220.85 -186.0 225.0 -184.8 Q226.75 -185.35 230.7 -187.95 235.6 -191.2 236.55 -193.45 M320.7 -150.75 L323.7 -148.45 Q325.9 -147.05 328.55 -147.05 331.0 -147.05 331.6 -147.65 L332.25 -148.25 332.45 -148.25 Q332.65 -148.8 332.65 -151.35 332.65 -153.8 332.25 -154.0 L331.85 -154.45 Q328.7 -155.65 325.1 -153.85 L320.7 -150.75 M311.65 -127.55 L310.8 -127.25 Q307.6 -127.4 304.85 -126.0 302.15 -124.7 302.15 -123.1 302.15 -120.45 303.1 -119.6 303.7 -119.1 305.45 -118.55 306.5 -118.8 309.35 -121.05 312.45 -123.5 312.45 -124.75 312.45 -127.35 311.65 -127.55 M250.15 -121.85 Q247.8 -122.9 246.2 -123.1 L244.4 -123.1 244.4 -121.05 Q244.9 -120.25 246.55 -119.75 L248.1 -119.4 Q249.5 -119.95 250.15 -121.85 M273.6 -164.15 Q275.45 -165.75 277.2 -167.85 L275.1 -170.35 Q271.45 -171.9 268.35 -169.95 265.65 -168.25 265.65 -166.0 265.65 -163.55 265.95 -163.4 L266.85 -162.9 266.95 -162.5 270.15 -162.1 Q271.25 -162.1 273.6 -164.15 M311.6 -157.75 L312.35 -157.45 316.15 -157.15 Q318.1 -157.15 321.55 -159.4 325.5 -161.9 326.05 -164.55 321.65 -167.5 315.9 -165.85 310.4 -164.25 310.4 -161.05 310.4 -158.55 311.0 -158.1 L311.6 -157.75 M300.75 -151.1 Q297.05 -153.0 291.85 -151.95 286.5 -150.95 282.9 -147.5 280.25 -145.0 279.35 -141.85 273.55 -143.7 270.3 -142.6 266.05 -141.15 266.05 -134.65 265.65 -132.3 266.45 -130.3 266.9 -129.25 267.65 -128.5 263.2 -130.65 258.45 -129.1 252.85 -127.3 252.85 -123.1 252.85 -120.55 253.75 -120.25 L254.0 -120.15 250.8 -117.75 Q251.8 -116.5 254.5 -115.7 255.95 -116.6 259.8 -119.45 263.75 -122.4 264.75 -123.4 L270.15 -126.0 269.8 -127.1 Q271.6 -126.4 274.3 -126.4 278.8 -126.4 284.25 -132.25 L284.6 -132.6 285.0 -132.6 Q287.85 -132.6 295.15 -135.55 L295.25 -135.6 Q292.45 -133.4 292.45 -130.35 292.45 -127.7 293.35 -127.15 293.9 -126.75 295.75 -126.4 297.6 -127.75 301.45 -129.05 L308.2 -131.15 Q316.15 -133.8 316.15 -138.15 316.15 -140.6 315.75 -140.8 L315.35 -141.25 Q306.55 -139.9 301.6 -138.5 L300.3 -138.1 Q304.8 -140.95 304.8 -144.35 304.8 -149.05 300.75 -151.1 M95.45 -48.7 Q92.4 -46.4 92.4 -44.3 92.4 -41.35 93.25 -40.05 93.95 -38.9 96.55 -37.3 98.2 -38.3 100.95 -41.1 104.25 -44.5 104.4 -46.4 L103.55 -51.35 Q98.9 -51.35 95.45 -48.7 M154.3 -63.05 Q155.4 -64.1 157.8 -67.85 L156.15 -70.3 Q151.25 -71.85 147.8 -69.9 145.0 -68.3 145.0 -66.2 145.0 -63.6 145.4 -63.25 145.65 -62.95 146.65 -62.45 L147.15 -62.05 150.8 -61.65 Q152.85 -61.65 154.3 -63.05 M45.95 -32.75 Q50.45 -34.75 52.35 -35.95 L56.1 -38.95 Q55.35 -41.1 52.55 -42.25 48.35 -41.35 46.3 -40.55 41.45 -38.6 41.45 -35.85 41.45 -33.3 41.85 -33.4 L42.25 -34.0 45.95 -32.75 M34.05 -91.95 Q33.55 -92.75 32.1 -93.45 L30.75 -94.05 28.1 -93.45 Q26.45 -92.8 26.0 -91.95 L26.65 -90.75 26.75 -90.3 29.95 -89.9 Q32.6 -89.9 33.25 -90.45 L34.05 -91.95 M46.05 -126.5 L46.45 -125.8 47.35 -125.35 51.4 -124.95 Q53.55 -124.95 55.1 -125.75 57.55 -127.05 57.55 -130.1 57.55 -132.55 56.95 -133.05 56.35 -133.6 56.35 -133.85 50.05 -134.4 48.4 -134.0 45.6 -133.25 45.6 -129.5 45.6 -127.05 46.05 -126.5 M14.45 -116.85 Q15.45 -117.55 16.1 -119.6 L15.3 -122.1 Q10.3 -125.05 7.8 -123.9 6.3 -123.2 5.4 -120.45 L5.8 -117.95 7.0 -116.45 Q7.7 -115.9 10.35 -115.9 13.2 -115.9 14.45 -116.85 M35.3 -147.75 L34.9 -148.25 Q31.9 -148.1 28.8 -146.15 L26.5 -144.35 Q29.6 -145.9 35.3 -147.75 M34.5 -156.9 L33.25 -157.35 Q34.55 -158.35 35.3 -160.15 36.1 -162.2 36.65 -162.8 38.6 -164.8 46.6 -164.35 41.95 -162.5 38.45 -160.2 35.8 -158.45 34.5 -156.9 M15.15 -178.45 Q11.45 -176.9 8.7 -173.45 L9.65 -171.95 Q10.25 -171.35 12.8 -171.35 15.1 -171.35 19.55 -174.0 23.05 -176.0 24.75 -177.55 20.25 -180.55 15.15 -178.45 M139.65 -100.65 Q137.05 -100.65 134.5 -99.65 131.15 -98.3 129.35 -95.7 L130.35 -94.2 Q130.9 -93.6 133.45 -93.6 134.25 -93.6 136.35 -94.95 L140.5 -98.15 139.65 -100.65 M108.9 -120.0 Q108.9 -117.6 109.35 -117.1 L109.75 -116.3 117.15 -115.05 124.9 -117.6 Q128.3 -119.3 128.3 -122.5 128.3 -124.95 127.8 -125.15 L127.3 -125.4 Q120.3 -127.5 114.3 -125.15 108.9 -123.05 108.9 -120.0 M84.6 -109.7 Q84.6 -112.3 83.9 -112.6 L81.7 -113.0 Q78.0 -113.0 74.2 -111.35 69.95 -109.45 69.95 -107.0 69.95 -104.55 70.6 -103.85 L71.2 -103.1 78.6 -103.1 Q80.0 -103.35 82.35 -106.15 84.6 -108.8 84.6 -109.7 M82.6 -156.15 L82.4 -156.1 Q73.7 -152.05 71.2 -147.85 71.45 -147.1 72.05 -146.45 68.5 -145.2 63.75 -144.55 L60.1 -144.7 Q59.2 -145.0 59.2 -147.65 59.2 -149.4 60.45 -150.85 L62.1 -149.5 Q68.75 -152.3 72.1 -153.9 77.65 -156.55 79.4 -160.05 L82.75 -161.45 Q82.25 -179.45 53.45 -170.65 53.85 -171.7 53.85 -172.8 53.85 -175.8 51.0 -177.35 48.45 -178.75 44.8 -178.5 41.1 -178.25 38.55 -176.45 37.05 -175.35 36.35 -174.0 34.4 -173.6 31.4 -172.45 28.35 -171.3 26.35 -170.15 20.05 -172.35 16.65 -169.0 14.45 -166.85 14.45 -164.75 14.45 -163.55 15.95 -162.0 L19.4 -159.0 Q22.55 -160.6 25.5 -163.4 L27.95 -166.0 Q30.1 -165.2 32.4 -165.2 L36.55 -166.0 37.9 -166.55 39.4 -165.45 Q28.25 -160.75 15.7 -153.85 3.3 -147.0 3.3 -146.4 3.3 -145.75 4.8 -144.8 4.9 -144.7 9.5 -142.1 11.5 -142.55 21.75 -146.85 30.15 -150.35 34.9 -150.35 L38.3 -148.7 44.25 -150.4 44.0 -151.5 55.85 -156.7 58.7 -158.0 Q57.15 -156.15 57.15 -154.05 57.15 -153.7 57.9 -153.05 L54.35 -151.45 55.15 -150.8 56.35 -149.1 Q55.05 -148.2 49.65 -145.5 L50.2 -145.55 Q50.35 -142.8 52.25 -141.2 55.45 -138.35 63.75 -138.35 69.8 -138.35 73.25 -141.65 74.75 -143.05 75.45 -144.6 L80.85 -147.05 85.2 -147.65 Q83.75 -146.4 83.75 -144.75 83.75 -142.35 84.6 -141.5 L85.4 -140.45 90.55 -139.5 95.7 -139.2 Q102.1 -139.2 105.25 -141.15 108.45 -143.15 110.15 -148.25 104.4 -150.6 98.45 -150.75 99.45 -152.45 99.45 -154.25 99.45 -155.6 98.95 -156.7 L100.25 -158.15 97.15 -158.95 Q95.15 -160.55 92.45 -160.7 L92.05 -160.7 88.85 -161.05 Q86.4 -159.6 82.8 -157.7 L80.25 -156.35 82.6 -156.15 M127.25 -155.1 Q129.85 -155.1 131.35 -156.55 132.2 -157.35 133.0 -158.8 L132.2 -161.45 Q128.5 -163.3 125.4 -163.95 L121.45 -164.15 Q121.15 -163.4 120.75 -163.4 L120.65 -161.05 Q120.65 -159.35 121.55 -157.85 123.2 -155.1 127.25 -155.1 M131.35 -214.7 Q131.35 -213.45 132.2 -212.2 133.85 -209.75 137.95 -209.75 146.0 -209.75 150.55 -213.25 152.05 -214.45 156.3 -220.05 145.05 -226.35 137.9 -224.15 131.35 -222.2 131.35 -214.7 M110.75 -260.05 Q113.3 -260.05 113.8 -260.75 L114.45 -262.35 113.6 -264.8 Q111.45 -266.15 109.1 -264.85 107.9 -264.2 105.8 -262.1 L107.15 -260.55 Q108.0 -260.05 110.75 -260.05 M118.15 -286.85 Q118.15 -289.45 117.3 -290.1 L115.25 -291.2 Q112.95 -291.2 111.3 -289.85 110.15 -288.9 109.75 -287.6 L109.7 -287.65 109.1 -288.75 Q100.0 -290.0 95.95 -287.8 92.8 -286.1 92.8 -282.55 92.8 -281.2 92.95 -280.35 L91.95 -280.9 Q89.9 -280.35 89.15 -279.85 87.85 -279.0 87.85 -276.35 87.85 -273.65 89.0 -272.85 L91.95 -271.8 Q92.95 -272.2 94.5 -273.15 95.65 -273.9 96.1 -273.9 95.85 -276.15 95.0 -277.8 97.1 -276.75 101.05 -276.75 104.75 -276.75 107.45 -278.85 109.7 -280.65 110.2 -283.05 L110.45 -282.85 113.2 -282.15 Q114.1 -282.35 115.95 -283.1 L117.75 -283.8 117.95 -283.8 Q118.15 -284.3 118.15 -286.85 M80.45 -225.75 L79.6 -225.8 Q70.3 -226.25 62.75 -223.75 55.65 -221.35 55.65 -218.4 55.65 -215.95 56.3 -215.45 L56.9 -214.7 59.25 -214.25 64.75 -213.85 Q71.9 -213.85 77.2 -218.0 81.25 -221.2 81.25 -222.95 81.25 -225.45 80.45 -225.75 M27.35 -262.1 L25.35 -262.1 25.15 -262.3 Q24.95 -262.0 24.95 -259.45 24.95 -256.85 25.35 -256.85 L25.65 -257.1 25.65 -257.05 28.65 -256.75 Q31.2 -256.75 31.75 -257.5 L32.35 -259.05 31.55 -261.5 27.35 -262.1 M9.65 -253.05 L12.5 -255.6 15.05 -258.0 Q14.1 -260.25 11.3 -261.1 11.3 -261.8 8.85 -259.85 6.35 -257.95 6.35 -256.35 6.35 -253.75 7.25 -253.45 L9.65 -253.05 M67.2 -259.45 Q70.7 -260.75 71.75 -262.35 L70.95 -264.8 67.2 -266.05 Q65.8 -265.45 64.8 -263.9 63.9 -262.55 63.9 -261.5 L66.0 -260.1 67.2 -259.45 M47.95 -259.55 Q48.25 -260.15 48.25 -262.75 48.25 -265.15 47.75 -265.9 47.2 -266.6 47.2 -266.85 44.95 -266.85 41.45 -265.95 37.35 -264.9 35.25 -263.35 L35.65 -260.7 Q36.75 -259.6 37.65 -259.3 39.0 -258.8 41.85 -258.8 L45.75 -259.1 47.6 -259.45 47.95 -259.55 M70.95 -302.75 L69.3 -305.25 Q61.8 -307.2 56.65 -302.2 52.8 -298.45 52.8 -295.75 52.8 -293.3 53.2 -292.8 L53.6 -292.05 54.3 -291.6 56.95 -291.2 50.8 -289.8 Q46.7 -288.65 43.15 -287.1 L43.9 -288.1 43.1 -292.05 Q37.9 -292.05 30.8 -288.35 25.55 -285.6 24.0 -283.0 L22.5 -282.95 Q19.6 -282.45 18.5 -280.25 10.05 -282.5 -5.65 -277.0 -13.2 -274.4 -18.65 -271.15 -24.1 -267.9 -24.1 -266.05 -24.1 -263.65 -23.7 -263.15 L-23.3 -262.35 -17.9 -261.1 6.3 -269.8 Q14.3 -272.75 18.4 -274.6 L19.2 -273.45 Q21.15 -271.4 26.15 -271.4 L29.75 -271.85 29.9 -271.25 Q31.25 -267.7 36.05 -267.7 44.2 -267.7 58.15 -274.7 62.55 -276.9 65.55 -278.85 65.55 -276.4 66.0 -275.9 L66.4 -275.1 68.4 -274.75 68.5 -274.45 Q69.85 -271.8 74.65 -271.8 78.65 -271.8 83.85 -275.85 87.4 -278.6 89.5 -281.3 82.8 -289.5 75.15 -286.25 L72.15 -286.15 Q72.05 -290.85 65.5 -291.6 63.25 -291.85 60.55 -291.65 62.7 -292.5 65.1 -294.7 68.7 -298.1 70.95 -302.75 M20.0 -327.3 Q15.45 -328.9 7.45 -325.15 -0.8 -321.3 -0.8 -317.0 -0.8 -314.4 0.45 -314.5 1.05 -314.55 1.65 -315.15 5.55 -316.35 11.9 -319.6 18.05 -322.75 20.8 -324.8 L20.0 -327.3 M138.8 -338.85 Q139.25 -338.85 141.65 -340.3 144.65 -342.1 146.6 -344.2 142.75 -345.35 139.3 -344.95 135.05 -344.45 135.05 -341.55 135.05 -338.95 135.5 -339.05 L135.75 -339.3 135.8 -339.25 Q136.2 -338.85 138.8 -338.85 M98.55 -319.45 Q89.55 -320.7 86.1 -318.4 83.7 -316.8 83.7 -312.85 83.7 -311.45 84.65 -310.6 L88.65 -307.3 Q92.65 -307.3 96.4 -310.35 99.8 -313.1 99.8 -315.15 99.8 -317.55 99.2 -318.35 L98.55 -319.45 M121.45 -322.35 L119.0 -322.0 Q117.75 -321.45 117.75 -318.85 117.75 -316.15 118.7 -315.65 119.3 -315.35 121.45 -315.15 L123.95 -315.75 125.15 -319.05 123.75 -320.85 Q122.85 -321.8 121.45 -322.35 M275.55 -218.6 Q275.55 -215.85 276.5 -215.4 L280.9 -214.7 289.5 -218.6 Q294.5 -221.2 294.5 -223.75 294.5 -226.25 293.9 -226.65 L293.25 -227.05 280.85 -224.05 Q275.55 -222.45 275.55 -218.6 M251.95 -207.5 Q246.45 -203.8 246.45 -200.05 246.45 -197.6 246.85 -197.1 L247.25 -196.35 248.1 -195.9 252.0 -195.5 Q255.45 -195.5 260.85 -201.35 266.15 -207.05 266.45 -210.75 258.35 -211.75 251.95 -207.5 M250.35 -242.05 Q249.4 -243.05 248.1 -243.55 L245.65 -243.2 Q244.4 -242.7 244.4 -240.05 244.4 -237.4 245.3 -236.85 245.95 -236.5 248.1 -236.15 L250.55 -236.95 251.8 -240.25 250.35 -242.05 M258.65 -289.8 Q254.8 -288.35 253.85 -285.0 253.55 -284.7 253.75 -284.4 254.2 -283.8 256.75 -283.8 259.45 -283.8 262.35 -285.85 L266.05 -289.15 Q262.6 -291.25 258.65 -289.8 M322.05 -247.95 L321.1 -249.35 Q314.9 -248.4 312.05 -245.7 309.15 -242.95 309.15 -238.0 309.15 -235.5 309.8 -235.4 L312.05 -235.3 Q313.2 -235.3 317.6 -238.7 322.35 -242.35 322.35 -244.4 322.35 -247.1 322.05 -247.95 M289.15 -253.05 Q290.45 -253.55 290.95 -254.35 L291.2 -255.1 288.6 -255.15 287.1 -253.85 289.15 -253.05 M320.6 -295.95 L323.6 -294.9 Q328.95 -295.6 331.55 -298.6 333.5 -300.8 333.5 -303.35 333.5 -305.95 333.1 -305.85 L332.65 -305.25 Q329.35 -306.25 324.6 -304.5 319.45 -302.6 319.45 -299.45 319.45 -296.75 320.6 -295.95 M308.55 -283.8 Q307.9 -284.35 307.9 -284.6 300.4 -286.3 296.8 -283.4 294.5 -281.55 294.5 -279.25 294.5 -278.05 295.9 -276.5 L299.05 -273.45 Q303.2 -273.45 306.5 -276.7 309.15 -279.35 309.15 -280.9 309.15 -283.3 308.55 -283.8 M232.75 -217.55 L235.7 -217.15 Q238.4 -217.15 239.8 -218.3 L242.3 -221.3 Q239.05 -223.0 235.7 -222.8 232.0 -222.55 232.0 -219.85 232.0 -217.25 232.45 -217.35 232.65 -217.4 232.85 -218.0 L232.75 -217.55 M210.15 -231.6 Q210.65 -230.8 212.1 -230.3 L213.45 -229.95 Q214.1 -230.15 214.65 -230.7 L215.5 -231.2 Q216.8 -234.4 214.05 -233.5 L210.15 -231.6 M236.55 -240.9 Q236.55 -243.4 236.15 -243.4 L235.7 -243.15 Q230.2 -245.35 225.8 -242.15 222.1 -239.5 222.1 -236.55 222.1 -234.95 222.35 -234.2 221.3 -233.25 221.3 -231.8 221.3 -229.35 221.6 -229.2 L222.5 -228.7 223.0 -228.3 226.65 -227.9 Q233.25 -227.9 233.25 -233.25 L233.1 -235.05 233.35 -235.35 Q236.55 -238.65 236.55 -240.9 M200.5 -224.05 L199.65 -223.75 198.55 -223.85 201.35 -225.85 Q207.1 -230.05 207.9 -231.6 207.25 -232.9 206.6 -233.3 205.45 -234.05 202.7 -234.05 L202.1 -234.0 201.3 -234.05 Q192.5 -235.35 182.6 -232.1 172.4 -228.8 172.4 -224.15 172.4 -222.85 173.25 -221.95 L177.35 -218.4 Q182.55 -220.35 190.6 -222.5 L190.8 -222.25 186.85 -219.8 Q181.5 -215.6 181.5 -213.05 L181.7 -209.3 181.9 -208.7 182.6 -208.3 186.45 -207.9 Q187.55 -207.9 194.1 -212.9 201.3 -218.4 201.3 -221.3 201.3 -223.85 200.5 -224.05 M165.85 -282.1 Q168.3 -283.95 168.3 -285.85 168.3 -288.25 167.9 -288.75 167.45 -289.3 167.45 -289.55 164.95 -291.1 160.05 -289.15 155.1 -287.2 155.1 -284.6 155.1 -282.05 155.45 -281.7 L156.75 -280.9 Q156.55 -280.7 156.85 -280.45 L160.05 -280.05 Q163.25 -280.05 165.85 -282.1" fill="#5c6639" fill-rule="evenodd" stroke="none"/>
    <path d="M253.05 -300.05 L252.2 -300.3 251.5 -301.0 Q250.8 -301.7 250.8 -304.2 250.8 -306.95 258.7 -309.2 265.8 -311.2 276.35 -312.05 L277.2 -311.7 277.55 -311.35 Q279.35 -312.55 281.7 -313.0 L281.8 -313.0 283.25 -314.05 Q286.45 -315.75 292.3 -315.35 L295.95 -316.8 Q302.9 -319.1 307.5 -317.8 307.8 -318.2 308.15 -318.1 308.75 -317.9 308.75 -315.35 308.75 -314.3 307.95 -313.25 L308.55 -312.3 Q309.15 -311.55 309.15 -309.15 309.15 -303.3 301.0 -301.35 L292.95 -299.75 Q287.75 -298.65 284.2 -297.0 L281.4 -297.7 280.85 -298.35 279.25 -298.2 Q275.1 -298.2 273.9 -300.85 273.45 -301.8 273.45 -304.0 L273.45 -304.3 271.05 -303.15 Q263.75 -299.85 256.95 -299.85 L253.05 -300.05 M315.35 -328.9 Q320.0 -332.15 328.95 -328.95 L329.35 -328.15 Q329.75 -327.65 329.75 -325.25 329.75 -323.65 327.65 -322.55 325.45 -321.4 317.0 -318.65 L312.95 -322.0 Q312.05 -322.75 312.05 -323.15 312.05 -326.65 315.35 -328.9 M319.45 -303.6 Q317.5 -301.6 311.95 -298.85 306.5 -296.15 304.6 -296.15 302.0 -296.15 301.15 -296.7 L299.85 -298.2 Q302.05 -300.55 307.55 -302.95 313.7 -305.65 317.8 -305.25 319.05 -304.8 319.45 -303.6 M207.7 -351.0 Q208.1 -351.1 208.1 -348.55 208.1 -345.7 202.15 -343.35 196.85 -341.3 192.2 -341.3 L183.3 -342.3 Q177.4 -343.3 176.55 -344.2 181.45 -349.75 193.15 -350.85 L207.25 -350.4 207.7 -351.0 M213.45 -297.4 L213.85 -296.9 Q214.25 -296.7 214.25 -294.3 214.25 -291.7 214.05 -291.2 L213.85 -291.2 212.85 -290.55 Q211.8 -289.95 209.3 -289.95 206.75 -289.95 206.05 -290.55 L204.8 -292.05 204.7 -291.75 204.6 -294.5 Q204.6 -296.75 206.95 -297.8 209.6 -298.95 213.45 -297.4 M165.85 -282.1 Q163.25 -280.05 160.05 -280.05 L156.85 -280.45 Q156.55 -280.7 156.75 -280.9 L155.45 -281.7 Q155.1 -282.05 155.1 -284.6 155.1 -287.2 160.05 -289.15 164.95 -291.1 167.45 -289.55 167.45 -289.3 167.9 -288.75 168.3 -288.25 168.3 -285.85 168.3 -283.95 165.85 -282.1 M200.5 -224.05 Q201.3 -223.85 201.3 -221.3 201.3 -218.4 194.1 -212.9 187.55 -207.9 186.45 -207.9 L182.6 -208.3 181.9 -208.7 181.7 -209.3 181.5 -213.05 Q181.5 -215.6 186.85 -219.8 L190.8 -222.25 190.6 -222.5 Q182.55 -220.35 177.35 -218.4 L173.25 -221.95 Q172.4 -222.85 172.4 -224.15 172.4 -228.8 182.6 -232.1 192.5 -235.35 201.3 -234.05 L202.1 -234.0 202.7 -234.05 Q205.45 -234.05 206.6 -233.3 207.25 -232.9 207.9 -231.6 207.1 -230.05 201.35 -225.85 L198.55 -223.85 199.65 -223.75 200.5 -224.05 M236.55 -240.9 Q236.55 -238.65 233.35 -235.35 L233.1 -235.05 233.25 -233.25 Q233.25 -227.9 226.65 -227.9 L223.0 -228.3 222.5 -228.7 221.6 -229.2 Q221.3 -229.35 221.3 -231.8 221.3 -233.25 222.35 -234.2 222.1 -234.95 222.1 -236.55 222.1 -239.5 225.8 -242.15 230.2 -245.35 235.7 -243.15 L236.15 -243.4 Q236.55 -243.4 236.55 -240.9 M210.15 -231.6 L214.05 -233.5 Q216.8 -234.4 215.5 -231.2 L214.65 -230.7 Q214.1 -230.15 213.45 -229.95 L212.1 -230.3 Q210.65 -230.8 210.15 -231.6 M232.75 -217.55 L232.85 -218.0 Q232.65 -217.4 232.45 -217.35 232.0 -217.25 232.0 -219.85 232.0 -222.55 235.7 -222.8 239.05 -223.0 242.3 -221.3 L239.8 -218.3 Q238.4 -217.15 235.7 -217.15 L232.75 -217.55 M308.55 -283.8 Q309.15 -283.3 309.15 -280.9 309.15 -279.35 306.5 -276.7 303.2 -273.45 299.05 -273.45 L295.9 -276.5 Q294.5 -278.05 294.5 -279.25 294.5 -281.55 296.8 -283.4 300.4 -286.3 307.9 -284.6 307.9 -284.35 308.55 -283.8 M320.6 -295.95 Q319.45 -296.75 319.45 -299.45 319.45 -302.6 324.6 -304.5 329.35 -306.25 332.65 -305.25 L333.1 -305.85 Q333.5 -305.95 333.5 -303.35 333.5 -300.8 331.55 -298.6 328.95 -295.6 323.6 -294.9 L320.6 -295.95 M289.15 -253.05 L287.1 -253.85 288.6 -255.15 291.2 -255.1 290.95 -254.35 Q290.45 -253.55 289.15 -253.05 M322.05 -247.95 Q322.35 -247.1 322.35 -244.4 322.35 -242.35 317.6 -238.7 313.2 -235.3 312.05 -235.3 L309.8 -235.4 Q309.15 -235.5 309.15 -238.0 309.15 -242.95 312.05 -245.7 314.9 -248.4 321.1 -249.35 L322.05 -247.95 M258.65 -289.8 Q262.6 -291.25 266.05 -289.15 L262.35 -285.85 Q259.45 -283.8 256.75 -283.8 254.2 -283.8 253.75 -284.4 253.55 -284.7 253.85 -285.0 254.8 -288.35 258.65 -289.8 M250.35 -242.05 L251.8 -240.25 250.55 -236.95 248.1 -236.15 Q245.95 -236.5 245.3 -236.85 244.4 -237.4 244.4 -240.05 244.4 -242.7 245.65 -243.2 L248.1 -243.55 Q249.4 -243.05 250.35 -242.05 M251.95 -207.5 Q258.35 -211.75 266.45 -210.75 266.15 -207.05 260.85 -201.35 255.45 -195.5 252.0 -195.5 L248.1 -195.9 247.25 -196.35 246.85 -197.1 Q246.45 -197.6 246.45 -200.05 246.45 -203.8 251.95 -207.5 M275.55 -218.6 Q275.55 -222.45 280.85 -224.05 L293.25 -227.05 293.9 -226.65 Q294.5 -226.25 294.5 -223.75 294.5 -221.2 289.5 -218.6 L280.9 -214.7 276.5 -215.4 Q275.55 -215.85 275.55 -218.6 M121.45 -322.35 Q122.85 -321.8 123.75 -320.85 L125.15 -319.05 123.95 -315.75 121.45 -315.15 Q119.3 -315.35 118.7 -315.65 117.75 -316.15 117.75 -318.85 117.75 -321.45 119.0 -322.0 L121.45 -322.35 M98.55 -319.45 L99.2 -318.35 Q99.8 -317.55 99.8 -315.15 99.8 -313.1 96.4 -310.35 92.65 -307.3 88.65 -307.3 L84.65 -310.6 Q83.7 -311.45 83.7 -312.85 83.7 -316.8 86.1 -318.4 89.55 -320.7 98.55 -319.45 M138.8 -338.85 Q136.2 -338.85 135.8 -339.25 L135.75 -339.3 135.5 -339.05 Q135.05 -338.95 135.05 -341.55 135.05 -344.45 139.3 -344.95 142.75 -345.35 146.6 -344.2 144.65 -342.1 141.65 -340.3 139.25 -338.85 138.8 -338.85 M20.0 -327.3 L20.8 -324.8 Q18.05 -322.75 11.9 -319.6 5.55 -316.35 1.65 -315.15 1.05 -314.55 0.45 -314.5 -0.8 -314.4 -0.8 -317.0 -0.8 -321.3 7.45 -325.15 15.45 -328.9 20.0 -327.3 M70.95 -302.75 Q68.7 -298.1 65.1 -294.7 62.7 -292.5 60.55 -291.65 63.25 -291.85 65.5 -291.6 72.05 -290.85 72.15 -286.15 L75.15 -286.25 Q82.8 -289.5 89.5 -281.3 87.4 -278.6 83.85 -275.85 78.65 -271.8 74.65 -271.8 69.85 -271.8 68.5 -274.45 L68.4 -274.75 66.4 -275.1 66.0 -275.9 Q65.55 -276.4 65.55 -278.85 62.55 -276.9 58.15 -274.7 44.2 -267.7 36.05 -267.7 31.25 -267.7 29.9 -271.25 L29.75 -271.85 26.15 -271.4 Q21.15 -271.4 19.2 -273.45 L18.4 -274.6 Q14.3 -272.75 6.3 -269.8 L-17.9 -261.1 -23.3 -262.35 -23.7 -263.15 Q-24.1 -263.65 -24.1 -266.05 -24.1 -267.9 -18.65 -271.15 -13.2 -274.4 -5.65 -277.0 10.05 -282.5 18.5 -280.25 19.6 -282.45 22.5 -282.95 L24.0 -283.0 Q25.55 -285.6 30.8 -288.35 37.9 -292.05 43.1 -292.05 L43.9 -288.1 43.15 -287.1 Q46.7 -288.65 50.8 -289.8 L56.95 -291.2 54.3 -291.6 53.6 -292.05 53.2 -292.8 Q52.8 -293.3 52.8 -295.75 52.8 -298.45 56.65 -302.2 61.8 -307.2 69.3 -305.25 L70.95 -302.75 M47.95 -259.55 L47.6 -259.45 45.75 -259.1 41.85 -258.8 Q39.0 -258.8 37.65 -259.3 36.75 -259.6 35.65 -260.7 L35.25 -263.35 Q37.35 -264.9 41.45 -265.95 44.95 -266.85 47.2 -266.85 47.2 -266.6 47.75 -265.9 48.25 -265.15 48.25 -262.75 48.25 -260.15 47.95 -259.55 M67.2 -259.45 L66.0 -260.1 63.9 -261.5 Q63.9 -262.55 64.8 -263.9 65.8 -265.45 67.2 -266.05 L70.95 -264.8 71.75 -262.35 Q70.7 -260.75 67.2 -259.45 M9.65 -253.05 L7.25 -253.45 Q6.35 -253.75 6.35 -256.35 6.35 -257.95 8.85 -259.85 11.3 -261.8 11.3 -261.1 14.1 -260.25 15.05 -258.0 L12.5 -255.6 9.65 -253.05 M27.35 -262.1 L31.55 -261.5 32.35 -259.05 31.75 -257.5 Q31.2 -256.75 28.65 -256.75 L25.65 -257.05 25.65 -257.1 25.35 -256.85 Q24.95 -256.85 24.95 -259.45 24.95 -262.0 25.15 -262.3 L25.35 -262.1 27.35 -262.1 M80.45 -225.75 Q81.25 -225.45 81.25 -222.95 81.25 -221.2 77.2 -218.0 71.9 -213.85 64.75 -213.85 L59.25 -214.25 56.9 -214.7 56.3 -215.45 Q55.65 -215.95 55.65 -218.4 55.65 -221.35 62.75 -223.75 70.3 -226.25 79.6 -225.8 L80.45 -225.75 M118.15 -286.85 Q118.15 -284.3 117.95 -283.8 L117.75 -283.8 115.95 -283.1 Q114.1 -282.35 113.2 -282.15 L110.45 -282.85 110.2 -283.05 Q109.7 -280.65 107.45 -278.85 104.75 -276.75 101.05 -276.75 97.1 -276.75 95.0 -277.8 95.85 -276.15 96.1 -273.9 95.65 -273.9 94.5 -273.15 92.95 -272.2 91.95 -271.8 L89.0 -272.85 Q87.85 -273.65 87.85 -276.35 87.85 -279.0 89.15 -279.85 89.9 -280.35 91.95 -280.9 L92.95 -280.35 Q92.8 -281.2 92.8 -282.55 92.8 -286.1 95.95 -287.8 100.0 -290.0 109.1 -288.75 L109.7 -287.65 109.75 -287.6 Q110.15 -288.9 111.3 -289.85 112.95 -291.2 115.25 -291.2 L117.3 -290.1 Q118.15 -289.45 118.15 -286.85 M110.75 -260.05 Q108.0 -260.05 107.15 -260.55 L105.8 -262.1 Q107.9 -264.2 109.1 -264.85 111.45 -266.15 113.6 -264.8 L114.45 -262.35 113.8 -260.75 Q113.3 -260.05 110.75 -260.05 M131.35 -214.7 Q131.35 -222.2 137.9 -224.15 145.05 -226.35 156.3 -220.05 152.05 -214.45 150.55 -213.25 146.0 -209.75 137.95 -209.75 133.85 -209.75 132.2 -212.2 131.35 -213.45 131.35 -214.7 M127.25 -155.1 Q123.2 -155.1 121.55 -157.85 120.65 -159.35 120.65 -161.05 L120.75 -163.4 Q121.15 -163.4 121.45 -164.15 L125.4 -163.95 Q128.5 -163.3 132.2 -161.45 L133.0 -158.8 Q132.2 -157.35 131.35 -156.55 129.85 -155.1 127.25 -155.1 M82.6 -156.15 L80.25 -156.35 82.8 -157.7 Q86.4 -159.6 88.85 -161.05 L92.05 -160.7 92.45 -160.7 Q95.15 -160.55 97.15 -158.95 L100.25 -158.15 98.95 -156.7 Q99.45 -155.6 99.45 -154.25 99.45 -152.45 98.45 -150.75 104.4 -150.6 110.15 -148.25 108.45 -143.15 105.25 -141.15 102.1 -139.2 95.7 -139.2 L90.55 -139.5 85.4 -140.45 84.6 -141.5 Q83.75 -142.35 83.75 -144.75 83.75 -146.4 85.2 -147.65 L80.85 -147.05 75.45 -144.6 Q74.75 -143.05 73.25 -141.65 69.8 -138.35 63.75 -138.35 55.45 -138.35 52.25 -141.2 50.35 -142.8 50.2 -145.55 L49.65 -145.5 Q55.05 -148.2 56.35 -149.1 L55.15 -150.8 54.35 -151.45 57.9 -153.05 Q57.15 -153.7 57.15 -154.05 57.15 -156.15 58.7 -158.0 L55.85 -156.7 44.0 -151.5 44.25 -150.4 38.3 -148.7 34.9 -150.35 Q30.15 -150.35 21.75 -146.85 11.5 -142.55 9.5 -142.1 4.9 -144.7 4.8 -144.8 3.3 -145.75 3.3 -146.4 3.3 -147.0 15.7 -153.85 28.25 -160.75 39.4 -165.45 L37.9 -166.55 36.55 -166.0 32.4 -165.2 Q30.1 -165.2 27.95 -166.0 L25.5 -163.4 Q22.55 -160.6 19.4 -159.0 L15.95 -162.0 Q14.45 -163.55 14.45 -164.75 14.45 -166.85 16.65 -169.0 20.05 -172.35 26.35 -170.15 28.35 -171.3 31.4 -172.45 34.4 -173.6 36.35 -174.0 37.05 -175.35 38.55 -176.45 41.1 -178.25 44.8 -178.5 48.45 -178.75 51.0 -177.35 53.85 -175.8 53.85 -172.8 53.85 -171.7 53.45 -170.65 82.25 -179.45 82.75 -161.45 L79.4 -160.05 Q77.65 -156.55 72.1 -153.9 68.75 -152.3 62.1 -149.5 L60.45 -150.85 Q59.2 -149.4 59.2 -147.65 59.2 -145.0 60.1 -144.7 L63.75 -144.55 Q68.5 -145.2 72.05 -146.45 71.45 -147.1 71.2 -147.85 73.7 -152.05 82.4 -156.1 L82.6 -156.15 M84.6 -109.7 Q84.6 -108.8 82.35 -106.15 80.0 -103.35 78.6 -103.1 L71.2 -103.1 70.6 -103.85 Q69.95 -104.55 69.95 -107.0 69.95 -109.45 74.2 -111.35 78.0 -113.0 81.7 -113.0 L83.9 -112.6 Q84.6 -112.3 84.6 -109.7 M108.9 -120.0 Q108.9 -123.05 114.3 -125.15 120.3 -127.5 127.3 -125.4 L127.8 -125.15 Q128.3 -124.95 128.3 -122.5 128.3 -119.3 124.9 -117.6 L117.15 -115.05 109.75 -116.3 109.35 -117.1 Q108.9 -117.6 108.9 -120.0 M139.65 -100.65 L140.5 -98.15 136.35 -94.95 Q134.25 -93.6 133.45 -93.6 130.9 -93.6 130.35 -94.2 L129.35 -95.7 Q131.15 -98.3 134.5 -99.65 137.05 -100.65 139.65 -100.65 M15.15 -178.45 Q20.25 -180.55 24.75 -177.55 23.05 -176.0 19.55 -174.0 15.1 -171.35 12.8 -171.35 10.25 -171.35 9.65 -171.95 L8.7 -173.45 Q11.45 -176.9 15.15 -178.45 M34.5 -156.9 Q35.8 -158.45 38.45 -160.2 41.95 -162.5 46.6 -164.35 38.6 -164.8 36.65 -162.8 36.1 -162.2 35.3 -160.15 34.55 -158.35 33.25 -157.35 L34.5 -156.9 M35.3 -147.75 Q29.6 -145.9 26.5 -144.35 L28.8 -146.15 Q31.9 -148.1 34.9 -148.25 L35.3 -147.75 M14.45 -116.85 Q13.2 -115.9 10.35 -115.9 7.7 -115.9 7.0 -116.45 L5.8 -117.95 5.4 -120.45 Q6.3 -123.2 7.8 -123.9 10.3 -125.05 15.3 -122.1 L16.1 -119.6 Q15.45 -117.55 14.45 -116.85 M46.05 -126.5 Q45.6 -127.05 45.6 -129.5 45.6 -133.25 48.4 -134.0 50.05 -134.4 56.35 -133.85 56.35 -133.6 56.95 -133.05 57.55 -132.55 57.55 -130.1 57.55 -127.05 55.1 -125.75 53.55 -124.95 51.4 -124.95 L47.35 -125.35 46.45 -125.8 46.05 -126.5 M34.05 -91.95 L33.25 -90.45 Q32.6 -89.9 29.95 -89.9 L26.75 -90.3 26.65 -90.75 26.0 -91.95 Q26.45 -92.8 28.1 -93.45 L30.75 -94.05 32.1 -93.45 Q33.55 -92.75 34.05 -91.95 M45.95 -32.75 L42.25 -34.0 41.85 -33.4 Q41.45 -33.3 41.45 -35.85 41.45 -38.6 46.3 -40.55 48.35 -41.35 52.55 -42.25 55.35 -41.1 56.1 -38.95 L52.35 -35.95 Q50.45 -34.75 45.95 -32.75 M154.3 -63.05 Q152.85 -61.65 150.8 -61.65 L147.15 -62.05 146.65 -62.45 Q145.65 -62.95 145.4 -63.25 145.0 -63.6 145.0 -66.2 145.0 -68.3 147.8 -69.9 151.25 -71.85 156.15 -70.3 L157.8 -67.85 Q155.4 -64.1 154.3 -63.05 M95.45 -48.7 Q98.9 -51.35 103.55 -51.35 L104.4 -46.4 Q104.25 -44.5 100.95 -41.1 98.2 -38.3 96.55 -37.3 93.95 -38.9 93.25 -40.05 92.4 -41.35 92.4 -44.3 92.4 -46.4 95.45 -48.7 M300.75 -151.1 Q304.8 -149.05 304.8 -144.35 304.8 -140.95 300.3 -138.1 L301.6 -138.5 Q306.55 -139.9 315.35 -141.25 L315.75 -140.8 Q316.15 -140.6 316.15 -138.15 316.15 -133.8 308.2 -131.15 L301.45 -129.05 Q297.6 -127.75 295.75 -126.4 293.9 -126.75 293.35 -127.15 292.45 -127.7 292.45 -130.35 292.45 -133.4 295.25 -135.6 L295.15 -135.55 Q287.85 -132.6 285.0 -132.6 L284.6 -132.6 284.25 -132.25 Q278.8 -126.4 274.3 -126.4 271.6 -126.4 269.8 -127.1 L270.15 -126.0 264.75 -123.4 Q263.75 -122.4 259.8 -119.45 255.95 -116.6 254.5 -115.7 251.8 -116.5 250.8 -117.75 L254.0 -120.15 253.75 -120.25 Q252.85 -120.55 252.85 -123.1 252.85 -127.3 258.45 -129.1 263.2 -130.65 267.65 -128.5 266.9 -129.25 266.45 -130.3 265.65 -132.3 266.05 -134.65 266.05 -141.15 270.3 -142.6 273.55 -143.7 279.35 -141.85 280.25 -145.0 282.9 -147.5 286.5 -150.95 291.85 -151.95 297.05 -153.0 300.75 -151.1 M311.6 -157.75 L311.0 -158.1 Q310.4 -158.55 310.4 -161.05 310.4 -164.25 315.9 -165.85 321.65 -167.5 326.05 -164.55 325.5 -161.9 321.55 -159.4 318.1 -157.15 316.15 -157.15 L312.35 -157.45 311.6 -157.75 M273.6 -164.15 Q271.25 -162.1 270.15 -162.1 L266.95 -162.5 266.85 -162.9 265.95 -163.4 Q265.65 -163.55 265.65 -166.0 265.65 -168.25 268.35 -169.95 271.45 -171.9 275.1 -170.35 L277.2 -167.85 Q275.45 -165.75 273.6 -164.15 M250.15 -121.85 Q249.5 -119.95 248.1 -119.4 L246.55 -119.75 Q244.9 -120.25 244.4 -121.05 L244.4 -123.1 246.2 -123.1 Q247.8 -122.9 250.15 -121.85 M311.65 -127.55 Q312.45 -127.35 312.45 -124.75 312.45 -123.5 309.35 -121.05 306.5 -118.8 305.45 -118.55 303.7 -119.1 303.1 -119.6 302.15 -120.45 302.15 -123.1 302.15 -124.7 304.85 -126.0 307.6 -127.4 310.8 -127.25 L311.65 -127.55 M320.7 -150.75 L325.1 -153.85 Q328.7 -155.65 331.85 -154.45 L332.25 -154.0 Q332.65 -153.8 332.65 -151.35 332.65 -148.8 332.45 -148.25 L332.25 -148.25 331.6 -147.65 Q331.0 -147.05 328.55 -147.05 325.9 -147.05 323.7 -148.45 L320.7 -150.75 M236.55 -193.45 Q235.6 -191.2 230.7 -187.95 226.75 -185.35 225.0 -184.8 L220.85 -186.0 219.95 -186.5 Q219.65 -186.65 219.65 -189.1 219.65 -193.55 225.15 -195.45 230.0 -197.1 235.7 -195.9 L236.55 -193.45 M209.75 -177.35 Q209.75 -170.15 198.9 -166.25 190.9 -163.35 182.3 -163.35 176.25 -163.35 174.65 -164.6 171.15 -167.3 168.7 -168.3 174.25 -177.85 183.55 -180.85 192.85 -183.85 207.9 -181.05 208.4 -180.45 209.2 -180.3 209.75 -179.9 209.75 -177.35 M199.8 -103.0 Q205.05 -101.5 205.05 -95.25 205.05 -91.3 204.0 -89.95 203.1 -88.75 200.95 -89.05 194.5 -91.15 189.75 -91.15 188.4 -91.15 183.0 -88.35 177.6 -85.55 176.35 -85.55 L172.75 -85.85 172.25 -86.2 171.85 -87.0 Q171.4 -87.5 171.4 -89.9 171.4 -92.55 176.65 -96.3 181.8 -99.95 188.25 -102.0 195.35 -104.25 199.8 -103.0 M217.0 -65.35 Q216.15 -65.85 215.85 -66.15 215.35 -66.55 215.35 -69.05 215.35 -72.25 218.9 -74.0 222.5 -75.8 226.9 -74.45 L227.3 -73.65 Q227.7 -73.15 227.7 -70.7 227.7 -67.45 224.45 -65.7 222.3 -64.55 220.7 -64.55 L217.3 -64.95 217.0 -65.35 M242.35 -64.35 L243.2 -68.25 Q245.35 -68.25 248.4 -66.25 251.45 -64.25 252.7 -62.05 L251.35 -60.3 Q250.5 -59.45 249.4 -59.15 243.25 -58.8 242.5 -61.15 242.8 -63.8 242.35 -64.35 M188.55 -27.6 Q186.35 -28.15 185.55 -29.1 184.4 -30.35 184.4 -33.2 184.4 -36.7 189.45 -37.1 194.55 -37.5 196.8 -33.6 L197.2 -32.55 194.75 -30.25 Q192.85 -28.45 188.55 -27.6 M232.65 -38.15 L232.15 -38.25 Q231.65 -38.35 231.65 -40.8 231.65 -43.05 236.8 -44.3 L243.2 -45.15 244.45 -42.65 Q243.85 -39.8 242.3 -38.7 240.85 -37.7 237.85 -37.7 L233.7 -37.9 232.65 -38.15 M300.7 -67.2 L299.45 -63.5 Q298.7 -63.5 297.15 -62.45 295.6 -61.45 293.25 -61.45 L290.05 -61.85 289.95 -62.25 Q288.95 -62.75 288.7 -63.05 288.3 -63.4 288.3 -66.0 288.3 -69.5 293.2 -70.55 297.3 -71.5 299.45 -70.5 299.45 -70.05 299.95 -69.0 L300.7 -67.2 M316.55 -69.8 L320.7 -69.3 321.5 -66.8 320.3 -64.75 314.9 -64.35 Q314.9 -64.75 314.5 -64.45 314.1 -64.55 314.1 -67.0 314.1 -69.6 314.3 -69.9 L314.5 -69.7 316.55 -69.8 M270.7 -58.9 L271.65 -57.1 Q271.25 -55.85 270.75 -55.35 269.9 -54.5 267.95 -54.2 266.8 -55.1 265.65 -56.7 264.6 -58.15 264.25 -59.15 264.55 -59.8 265.75 -60.1 L270.0 -60.4 Q270.0 -60.0 270.7 -58.9 M277.85 -51.35 L275.15 -47.5 Q273.4 -45.55 271.65 -45.55 268.85 -45.55 266.15 -46.95 263.75 -48.2 263.4 -49.25 266.5 -51.7 270.05 -53.1 274.05 -54.65 276.2 -53.8 L277.85 -51.35 M318.2 -39.35 L318.0 -39.65 Q317.8 -40.5 317.8 -43.1 317.8 -46.85 320.6 -47.95 323.85 -49.15 327.7 -43.5 L325.45 -39.85 Q324.4 -38.55 322.75 -38.55 L318.95 -38.95 318.2 -39.35 M336.8 -126.4 Q336.0 -124.15 333.5 -123.1 331.4 -123.95 330.2 -125.15 331.65 -127.3 333.1 -128.1 L335.55 -128.9 336.8 -126.4 M-328.55 -317.4 L-328.55 -321.1 -320.45 -321.7 Q-314.75 -321.6 -313.25 -320.7 -315.5 -317.25 -316.2 -316.7 -317.95 -315.35 -321.95 -315.35 -324.8 -315.35 -326.3 -315.9 -327.5 -316.35 -328.55 -317.4 M-330.0 -276.4 Q-326.75 -277.3 -321.1 -276.35 -319.45 -274.7 -319.45 -273.25 L-320.3 -269.35 -321.95 -268.9 -326.05 -268.5 Q-328.85 -268.5 -330.3 -269.1 L-332.65 -270.6 -333.05 -269.95 Q-333.5 -269.85 -333.5 -272.45 -333.5 -275.4 -330.0 -276.4 M-338.1 -224.7 Q-341.9 -223.15 -342.95 -223.15 L-346.15 -223.55 -346.25 -223.95 -347.2 -224.45 Q-347.5 -224.6 -347.5 -227.05 -347.5 -231.1 -341.75 -232.05 -336.25 -232.95 -333.5 -230.55 L-332.65 -228.1 Q-333.7 -226.5 -338.1 -224.7 M-356.15 -215.7 Q-357.0 -216.95 -357.0 -219.45 L-355.05 -219.65 Q-354.25 -219.5 -353.7 -218.6 L-354.1 -216.15 -356.15 -215.7 M-324.4 -142.9 Q-324.85 -142.9 -326.0 -142.15 -327.5 -141.25 -328.55 -140.85 L-329.75 -140.35 Q-331.0 -140.35 -331.0 -142.9 -331.0 -144.7 -328.8 -145.25 L-324.4 -145.4 -324.4 -142.9 M-347.1 -114.25 L-337.3 -115.45 Q-330.2 -116.3 -325.85 -117.55 L-323.1 -117.25 Q-320.35 -116.85 -320.1 -116.3 -333.3 -109.8 -335.8 -109.0 L-342.95 -108.45 Q-345.55 -108.45 -346.1 -109.05 -346.45 -109.9 -347.1 -110.55 L-347.1 -114.25 M-340.9 -37.3 Q-341.15 -35.2 -342.55 -34.2 -343.4 -33.6 -345.45 -32.75 -347.3 -33.1 -347.85 -33.5 -348.75 -34.05 -348.75 -36.7 L-348.65 -39.4 Q-348.3 -39.55 -347.9 -40.6 L-345.9 -40.65 -341.75 -39.8 -340.9 -37.3 M-45.55 -348.75 L-46.4 -345.45 -48.9 -345.0 -54.2 -344.6 -64.35 -345.05 -64.5 -345.6 -65.55 -347.1 Q-62.8 -350.35 -60.75 -351.1 -56.4 -352.7 -46.4 -351.2 -46.4 -350.0 -45.55 -348.75 M-62.6 -325.4 Q-61.65 -324.15 -61.45 -323.6 L-64.7 -319.8 Q-66.85 -317.6 -68.85 -316.8 L-72.85 -319.95 Q-74.25 -321.15 -74.25 -321.75 -74.25 -324.45 -71.5 -326.0 -68.45 -327.75 -63.5 -326.9 L-62.6 -325.4 M-68.35 -304.4 Q-70.0 -302.5 -75.15 -299.2 L-80.15 -296.15 -80.0 -296.15 -79.6 -293.05 Q-81.2 -290.8 -85.2 -288.35 -88.7 -286.25 -89.5 -286.25 L-93.3 -286.65 Q-93.95 -286.9 -94.05 -287.1 L-94.45 -287.85 Q-94.85 -288.35 -94.85 -290.8 -94.85 -294.3 -91.2 -295.85 L-89.8 -296.3 Q-89.15 -300.5 -80.75 -304.25 -77.65 -305.65 -75.05 -306.45 L-75.05 -307.1 Q-75.05 -311.95 -70.4 -313.35 L-55.25 -315.15 -53.2 -312.45 Q-54.55 -308.5 -55.45 -307.4 -56.8 -305.85 -63.9 -304.4 L-68.35 -304.4 M-47.1 -319.45 Q-46.65 -319.9 -46.4 -320.7 L-43.55 -321.0 -37.3 -320.7 Q-37.3 -319.4 -36.5 -317.0 -37.0 -315.65 -37.75 -314.55 -39.15 -312.6 -41.45 -312.45 -41.6 -310.25 -43.45 -309.25 -45.5 -308.15 -50.9 -307.7 L-52.95 -307.8 Q-53.6 -307.9 -53.6 -310.4 -53.6 -313.1 -50.65 -314.4 L-47.15 -315.6 -47.2 -317.0 -47.1 -319.45 M-122.3 -299.05 L-125.3 -295.4 Q-127.05 -293.55 -129.7 -294.1 L-130.9 -294.65 -133.0 -296.15 Q-133.0 -299.4 -130.1 -301.45 -126.6 -304.0 -122.3 -299.05 M-89.5 -253.45 L-90.4 -253.95 Q-90.75 -254.1 -90.75 -256.55 -90.75 -257.35 -89.5 -258.7 -88.2 -260.1 -86.5 -260.85 -81.9 -263.0 -79.2 -258.4 -84.4 -252.65 -86.2 -252.65 L-89.4 -253.05 Q-89.7 -253.25 -89.5 -253.45 M-138.35 -234.9 Q-139.7 -231.5 -145.2 -229.5 -149.1 -228.1 -151.55 -228.1 -154.05 -228.1 -154.55 -228.65 -154.85 -229.5 -155.7 -230.15 L-156.1 -231.8 Q-153.55 -234.2 -148.15 -236.05 -142.65 -237.95 -139.6 -237.35 L-138.35 -234.9 M-140.0 -206.25 Q-140.6 -205.4 -141.25 -205.1 -142.5 -204.5 -142.5 -207.05 -142.5 -208.2 -134.7 -210.65 -127.6 -212.85 -126.6 -212.85 L-126.0 -211.6 Q-127.15 -210.45 -130.8 -209.6 -135.65 -208.5 -140.0 -206.25 M-109.7 -214.9 Q-98.1 -226.1 -88.05 -232.55 -68.25 -245.2 -68.25 -226.65 -68.25 -219.15 -76.65 -218.55 L-83.55 -218.9 -89.1 -219.45 Q-92.45 -219.45 -98.4 -216.95 -104.35 -214.15 -105.6 -213.65 L-109.7 -214.9 M-13.8 -291.8 Q-13.4 -291.9 -13.4 -289.35 -13.4 -284.2 -20.4 -284.2 -23.15 -284.2 -24.35 -284.75 L-26.15 -286.25 Q-23.7 -289.65 -19.4 -290.9 L-14.2 -291.2 -13.8 -291.8 M-67.4 -199.2 Q-67.4 -198.8 -66.55 -198.8 -65.75 -198.4 -65.75 -195.9 -65.75 -193.65 -69.9 -190.95 -73.7 -188.5 -75.9 -188.5 -78.4 -188.5 -78.85 -189.05 -79.15 -189.9 -80.0 -190.55 L-80.4 -192.4 Q-79.4 -196.6 -76.65 -198.25 -73.4 -200.25 -67.4 -199.2 M-43.65 -207.25 L-42.4 -208.35 Q-39.75 -210.3 -36.25 -210.95 -32.55 -211.7 -30.15 -210.5 L-29.85 -210.3 Q-23.9 -212.25 -20.6 -206.25 -22.0 -203.65 -26.5 -200.95 -30.5 -198.5 -33.2 -198.0 L-33.75 -198.05 Q-35.35 -197.7 -37.3 -198.0 L-42.45 -198.95 Q-46.6 -196.1 -53.0 -194.7 L-55.95 -195.7 Q-57.1 -196.5 -57.1 -199.2 -57.1 -203.35 -51.05 -206.0 -47.25 -207.65 -43.65 -207.25 M-218.0 -328.55 Q-218.0 -332.85 -212.1 -333.8 -206.6 -334.65 -202.5 -332.25 -202.65 -329.65 -206.5 -326.75 L-207.85 -325.75 -206.45 -325.65 -205.8 -323.15 -208.9 -320.3 Q-211.6 -318.2 -215.1 -317.4 L-218.25 -317.5 Q-219.2 -317.55 -219.2 -320.1 -219.2 -323.45 -215.7 -324.85 L-216.75 -325.9 Q-218.0 -327.3 -218.0 -328.55 M-221.7 -327.1 Q-221.7 -324.05 -228.0 -320.3 L-230.65 -318.85 -229.55 -319.05 -228.5 -318.6 Q-227.45 -318.2 -227.45 -315.75 -227.45 -312.65 -232.95 -310.6 -236.55 -309.3 -248.1 -306.9 L-250.9 -309.85 Q-252.2 -311.45 -252.2 -312.65 -252.2 -315.0 -244.6 -316.55 L-241.35 -317.05 -242.3 -317.4 -242.9 -318.8 Q-243.55 -319.9 -243.55 -322.35 -243.55 -326.25 -236.75 -329.5 -229.75 -332.9 -223.35 -331.4 L-222.5 -330.35 Q-221.7 -329.5 -221.7 -327.1 M-162.5 -341.75 Q-164.1 -340.5 -167.65 -338.8 L-174.05 -335.55 -176.25 -335.65 Q-176.95 -335.7 -176.95 -338.25 -176.95 -342.1 -171.95 -343.9 -167.35 -345.6 -163.75 -344.2 L-162.5 -341.75 M-182.7 -334.3 L-182.7 -331.85 -185.0 -331.2 -190.95 -330.6 Q-190.95 -331.0 -191.35 -330.7 -191.8 -330.8 -191.8 -333.3 -191.8 -335.85 -191.6 -336.15 L-191.4 -335.95 -187.2 -335.9 Q-184.55 -335.6 -182.7 -334.3 M-287.5 -338.45 Q-286.8 -340.55 -282.55 -338.45 -283.15 -337.5 -285.0 -337.5 -286.85 -337.5 -287.5 -338.45 M-285.0 -298.95 Q-284.6 -298.85 -284.6 -296.35 -284.6 -291.4 -291.4 -289.25 -296.45 -287.7 -304.4 -287.9 L-304.8 -288.0 Q-305.25 -288.1 -305.25 -290.6 -305.25 -293.65 -297.1 -296.6 -289.8 -299.25 -285.45 -299.05 L-285.0 -298.95 M-266.05 -304.4 Q-263.4 -307.7 -261.1 -309.05 -259.65 -309.9 -256.15 -311.4 -252.2 -310.4 -250.8 -309.35 -252.85 -305.8 -255.5 -303.8 -258.0 -301.95 -260.25 -301.95 L-264.8 -302.35 -264.95 -302.9 Q-265.25 -303.6 -266.05 -304.4 M-273.2 -258.45 Q-264.1 -258.0 -260.45 -253.05 L-261.9 -250.4 Q-263.15 -248.5 -265.85 -248.5 L-272.75 -249.45 -281.7 -250.15 -282.1 -250.25 Q-282.55 -250.35 -282.55 -252.85 -282.55 -258.9 -273.2 -258.45 M-254.1 -256.15 Q-254.1 -257.7 -252.55 -259.45 -250.95 -261.2 -248.65 -262.1 -242.8 -264.45 -239.0 -259.45 -240.15 -258.6 -244.45 -256.5 -248.9 -254.35 -251.4 -253.45 L-253.5 -253.55 Q-254.1 -253.65 -254.1 -256.15 M-306.15 -218.25 Q-302.1 -217.45 -297.4 -215.7 -298.15 -213.4 -302.75 -212.85 L-310.6 -214.05 -311.2 -215.7 Q-311.85 -217.15 -311.85 -218.6 L-306.15 -218.25 M-251.4 -200.45 Q-251.4 -203.55 -247.6 -205.8 -243.2 -208.45 -236.55 -207.45 L-236.1 -206.7 Q-235.7 -206.2 -235.7 -203.75 -235.7 -201.75 -237.8 -199.6 -240.85 -196.45 -246.85 -195.9 L-250.45 -199.25 Q-251.4 -200.1 -251.4 -200.45 M-259.2 -221.9 L-260.05 -224.4 Q-256.85 -228.25 -216.15 -231.2 L-215.7 -231.6 Q-215.3 -231.5 -215.3 -228.9 -215.3 -225.2 -215.95 -223.95 -216.65 -222.7 -218.6 -222.7 L-233.65 -223.95 Q-238.75 -223.95 -245.3 -221.25 -251.85 -218.6 -254.3 -218.6 L-257.9 -219.0 -258.4 -219.45 Q-258.4 -220.05 -259.2 -221.9 M-189.75 -275.55 Q-189.75 -272.6 -194.7 -270.65 -197.15 -269.7 -199.65 -269.35 L-203.45 -269.75 -204.15 -270.15 -204.65 -269.85 Q-205.2 -270.05 -205.2 -272.65 -205.2 -275.0 -202.65 -276.55 -198.95 -278.8 -191.4 -278.0 -191.0 -278.4 -190.55 -278.3 -189.75 -278.1 -189.75 -275.55 M-169.7 -224.4 Q-170.85 -224.4 -172.95 -226.25 L-175.9 -228.9 Q-176.05 -231.35 -174.8 -232.8 -173.6 -234.1 -171.75 -234.1 -167.25 -234.15 -165.6 -228.5 L-166.25 -226.0 Q-167.1 -224.4 -169.7 -224.4 M-179.85 -231.2 Q-183.55 -225.4 -186.0 -224.8 L-188.8 -225.8 Q-189.75 -226.6 -189.75 -229.35 -189.75 -231.75 -188.35 -233.1 -186.1 -235.2 -180.65 -233.85 L-179.85 -231.2 M-165.5 -190.15 Q-166.35 -189.3 -171.8 -189.3 L-175.2 -189.45 -176.3 -190.55 Q-174.5 -193.15 -173.1 -194.25 -170.55 -196.2 -166.0 -194.25 L-165.2 -193.05 -165.5 -190.15 M-166.55 -173.9 Q-165.85 -173.0 -165.6 -172.2 -166.4 -170.95 -168.05 -170.15 -170.95 -170.55 -172.2 -171.8 -172.2 -172.75 -170.65 -173.65 -169.05 -174.65 -167.25 -174.65 L-166.55 -173.9 M-186.85 -188.1 Q-190.0 -183.7 -193.6 -180.35 -198.4 -175.9 -201.7 -175.9 L-204.7 -176.3 -204.6 -176.75 Q-204.9 -176.35 -205.2 -176.45 -205.8 -176.65 -205.8 -179.2 -205.8 -182.75 -200.35 -185.1 -195.4 -187.25 -186.85 -188.1 M-185.6 -171.8 L-184.35 -169.3 Q-184.9 -167.7 -185.45 -167.2 -186.65 -166.0 -189.3 -166.0 L-192.75 -166.4 -193.05 -166.85 Q-193.85 -167.65 -194.1 -168.7 L-194.25 -170.55 Q-192.1 -172.75 -185.6 -171.8 M-225.2 -176.75 L-224.6 -174.9 Q-226.6 -173.25 -230.3 -171.7 -233.6 -170.25 -236.15 -169.7 L-237.05 -170.2 Q-237.35 -170.35 -237.35 -172.8 -237.35 -175.0 -233.05 -176.3 L-228.3 -177.15 -225.6 -177.1 -225.2 -176.75 M-223.85 -166.5 Q-220.7 -167.1 -218.55 -165.75 -216.15 -164.25 -216.15 -160.85 -216.15 -157.6 -219.4 -155.25 -222.2 -153.2 -224.8 -153.2 -229.75 -153.2 -231.15 -155.85 -231.6 -156.75 -231.6 -159.0 -231.6 -161.8 -229.2 -163.95 -226.95 -165.95 -223.85 -166.5 M-238.2 -151.35 Q-238.2 -145.8 -248.55 -141.25 -260.6 -135.95 -293.75 -127.95 L-293.7 -127.85 Q-295.0 -126.3 -296.35 -125.85 -299.95 -124.65 -304.4 -122.5 L-308.55 -123.75 -309.35 -124.95 Q-308.55 -126.3 -304.4 -127.85 L-304.4 -128.25 Q-304.4 -132.85 -276.25 -144.6 L-273.9 -145.55 -273.9 -145.8 Q-273.9 -151.9 -265.25 -156.55 -255.4 -161.8 -241.9 -159.4 -243.75 -157.2 -245.95 -155.05 L-239.45 -155.7 -238.8 -154.6 Q-238.2 -153.8 -238.2 -151.35 M-204.35 -169.6 Q-203.75 -169.4 -203.75 -166.85 -203.75 -164.9 -205.45 -163.05 -207.55 -160.8 -210.75 -160.65 -213.25 -161.45 -214.9 -162.7 L-215.3 -164.55 Q-213.55 -168.5 -205.0 -169.3 L-204.35 -169.6 M-244.4 -130.1 Q-244.4 -126.95 -249.45 -124.75 -253.35 -123.1 -258.4 -122.5 L-261.6 -125.45 Q-262.95 -126.9 -262.95 -128.25 -262.95 -131.65 -259.0 -132.8 L-245.2 -133.2 Q-245.2 -132.8 -244.8 -132.65 -244.4 -132.5 -244.4 -130.1 M-274.5 -92.4 Q-276.5 -90.1 -278.25 -89.3 L-284.6 -87.0 Q-287.1 -87.45 -287.9 -88.65 -285.8 -90.25 -280.95 -91.3 L-274.5 -92.4 M-244.8 -75.45 Q-243.65 -78.35 -239.65 -79.75 -235.1 -81.35 -231.6 -78.15 L-231.2 -76.9 Q-236.1 -72.8 -241.1 -72.8 L-244.3 -73.2 -244.8 -75.45 M-296.05 -54.45 Q-292.9 -54.8 -288.75 -52.15 -289.85 -51.3 -291.25 -49.25 -292.95 -47.6 -297.0 -47.6 -299.75 -47.6 -300.95 -48.2 -301.5 -48.45 -302.75 -49.7 -299.65 -54.05 -296.05 -54.45 M-291.6 -23.1 Q-291.6 -26.55 -288.75 -28.15 -285.6 -29.85 -280.5 -28.25 L-279.85 -27.55 Q-279.25 -26.95 -279.25 -24.5 -279.25 -23.05 -281.65 -20.9 -284.15 -18.7 -286.25 -18.55 L-290.65 -21.95 Q-291.6 -22.7 -291.6 -23.1 M-167.25 -56.7 Q-164.75 -60.0 -156.9 -64.55 -148.65 -69.3 -140.4 -71.9 -130.8 -74.9 -125.1 -73.55 -118.35 -71.95 -118.35 -64.35 -118.35 -60.5 -122.2 -58.75 -124.95 -57.5 -129.3 -57.5 -135.5 -57.5 -138.6 -60.4 L-140.65 -62.4 Q-141.85 -63.3 -143.55 -63.3 -146.65 -63.3 -154.55 -59.45 -162.25 -55.45 -163.1 -55.05 -166.0 -55.45 -167.25 -56.7 M-220.45 -93.95 Q-221.9 -92.4 -225.6 -92.4 L-228.9 -92.8 -229.1 -93.2 -229.95 -94.45 Q-226.65 -97.75 -223.55 -97.75 -221.8 -97.8 -219.0 -96.9 L-220.45 -93.95 M-209.55 -55.0 Q-203.6 -55.5 -200.05 -53.8 -200.6 -52.2 -205.35 -49.65 -209.9 -47.2 -211.6 -47.2 L-214.8 -47.6 -214.9 -48.05 -215.8 -48.5 Q-216.15 -48.65 -216.15 -51.15 -216.15 -54.5 -209.55 -55.0 M-39.5 -158.5 Q-41.55 -155.95 -44.75 -156.1 L-48.75 -159.55 Q-49.7 -160.3 -49.7 -160.65 -49.7 -165.6 -45.45 -165.95 -41.15 -166.35 -38.15 -161.05 L-39.5 -158.5 M-28.0 -161.35 Q-28.65 -162.1 -28.65 -164.55 -28.65 -167.05 -26.0 -167.75 -23.55 -168.4 -20.6 -167.25 L-20.45 -166.45 Q-20.2 -165.55 -19.55 -164.75 L-20.6 -161.45 -22.6 -161.05 -27.4 -160.65 -28.0 -161.35 M-50.5 -129.9 Q-50.5 -132.65 -47.1 -134.25 -43.8 -135.8 -40.6 -134.85 -39.75 -134.1 -38.75 -134.0 -38.15 -133.7 -38.15 -131.15 -38.15 -128.45 -46.4 -125.4 L-49.7 -126.4 Q-50.5 -127.1 -50.5 -129.9 M-3.3 -141.25 Q-6.4 -138.95 -10.8 -136.75 -14.55 -134.85 -15.25 -134.85 L-17.85 -135.05 -18.95 -135.9 -19.55 -137.75 Q-16.4 -141.7 -14.5 -142.95 -10.6 -145.5 -4.95 -144.55 L-4.25 -143.05 -3.3 -141.25 M-38.95 -106.0 L-36.95 -106.1 -32.75 -105.6 -31.95 -103.1 -33.2 -101.05 -38.55 -100.65 -38.95 -100.75 Q-39.35 -100.85 -39.35 -103.3 -39.35 -105.9 -39.15 -106.2 L-38.95 -106.0 M-90.45 -188.6 Q-94.1 -186.2 -95.7 -185.6 -97.75 -186.45 -99.0 -187.65 -97.8 -190.25 -94.95 -192.2 -91.3 -194.7 -87.0 -194.25 L-86.2 -191.8 Q-87.05 -190.9 -90.45 -188.6 M-115.5 -152.8 L-118.9 -153.2 -119.2 -153.65 Q-119.85 -154.45 -120.05 -155.5 L-120.2 -157.35 Q-118.4 -159.6 -111.75 -158.6 L-110.55 -156.1 Q-111.05 -154.55 -111.6 -154.0 -112.8 -152.8 -115.5 -152.8 M-161.9 -134.25 L-168.9 -134.25 Q-163.55 -138.3 -154.75 -142.6 -141.7 -149.0 -136.3 -146.6 -139.2 -141.5 -148.5 -137.7 -156.0 -134.65 -161.9 -134.25 M-124.35 -15.85 Q-128.2 -10.9 -133.0 -10.9 L-136.65 -11.3 -137.15 -11.75 Q-137.55 -12.35 -138.05 -12.2 -138.35 -12.35 -138.35 -14.85 -138.35 -17.35 -135.55 -18.25 -133.15 -19.0 -126.0 -19.15 L-125.3 -17.65 Q-124.55 -16.45 -124.35 -15.85 M-7.0 -86.2 L-6.6 -84.95 -8.15 -83.35 Q-9.3 -82.5 -11.95 -82.5 -14.7 -82.5 -15.9 -83.05 -16.55 -83.35 -17.7 -84.55 -16.35 -86.9 -14.95 -87.7 -12.5 -89.1 -7.0 -86.2 M-35.25 -78.55 Q-35.4 -75.2 -37.95 -73.95 L-44.75 -71.95 -48.6 -72.4 Q-49.7 -72.9 -49.7 -75.65 -49.7 -78.7 -45.95 -80.4 -41.85 -82.3 -36.05 -80.85 L-35.25 -78.55 M-62.9 -78.55 L-58.75 -76.5 Q-59.35 -75.55 -60.15 -72.75 -61.55 -70.45 -66.2 -70.7 L-68.2 -70.85 Q-68.65 -70.9 -68.65 -73.4 -68.65 -74.95 -67.65 -76.45 -66.1 -78.7 -62.9 -78.55 M-45.55 -30.9 L-46.8 -34.65 Q-44.55 -36.45 -36.45 -38.6 -29.05 -40.6 -26.15 -40.6 L-24.5 -38.15 Q-25.6 -34.35 -26.95 -32.95 -29.8 -29.9 -36.5 -29.9 L-42.55 -30.4 -45.55 -30.9" fill="#706d3f" fill-rule="evenodd" stroke="none"/>
  </g>
</svg>
