<?xml version="1.0" encoding="UTF-8" standalone="no"?>
<svg xmlns:ffdec="https://www.free-decompiler.com/flash" xmlns:xlink="http://www.w3.org/1999/xlink" ffdec:objectType="shape" height="666.8px" width="34.2px" xmlns="http://www.w3.org/2000/svg">
  <g transform="matrix(1.0, 0.0, 0.0, 1.0, 14.15, 666.8)">
    <path d="M11.95 -657.55 L12.1 -656.1 12.4 -657.05 11.95 -657.55 M12.6 -658.25 L12.55 -657.85 12.2 -648.7 12.05 -643.65 11.95 -640.4 11.9 -639.7 Q11.55 -627.4 11.55 -621.85 11.55 -615.7 12.95 -599.2 L12.95 -596.5 Q12.95 -591.75 13.6 -579.3 13.1 -568.0 13.1 -553.7 L13.3 -538.15 13.3 -534.3 13.45 -532.8 14.2 -509.5 14.2 -509.45 14.15 -509.1 14.15 -346.8 14.15 -246.6 14.2 -239.05 14.15 -231.65 14.15 -225.35 14.25 -211.15 14.2 -211.0 14.2 -208.2 14.2 -205.8 Q13.45 -199.6 13.05 -191.35 12.7 -183.75 12.7 -158.65 12.7 -131.25 13.75 -117.7 L13.75 -55.65 14.2 -54.5 13.75 -34.45 13.4 -18.25 13.7 -18.45 Q14.0 -18.3 14.0 -16.65 14.0 -15.1 13.3 -13.5 L13.2 -13.3 13.2 -13.0 13.1 -13.0 12.55 -11.75 14.25 -12.45 Q12.65 -10.25 4.1 -5.75 -5.25 -0.8 -6.2 0.0 -7.25 -0.15 -7.9 -0.7 L-8.5 -1.35 -8.85 -1.3 -9.1 -2.1 -9.1 -50.65 -9.2 -54.8 Q-8.45 -66.75 -8.4 -78.45 L-9.15 -101.9 -9.15 -104.1 Q-8.4 -113.8 -8.4 -119.55 L-8.65 -134.0 Q-8.1 -137.65 -8.1 -143.3 -8.1 -155.05 -9.9 -170.95 L-9.95 -171.7 -9.75 -176.6 -9.75 -218.0 -13.05 -246.75 Q-12.75 -253.25 -12.7 -261.0 L-12.7 -266.3 -10.8 -254.2 -10.05 -245.95 -10.15 -236.25 Q-10.15 -222.6 -8.4 -192.55 L-7.2 -174.75 -7.45 -167.5 Q-7.0 -148.8 -7.0 -121.0 L-7.05 -93.65 Q-7.2 -65.4 -7.5 -50.9 L-7.5 -3.15 -7.65 -2.2 Q-3.65 -3.6 3.25 -7.2 L11.2 -11.15 10.95 -12.0 10.75 -14.45 Q10.75 -17.0 12.3 -17.85 L12.25 -23.35 12.1 -33.75 12.05 -35.8 12.05 -36.25 12.1 -37.3 12.0 -40.1 11.95 -40.95 11.9 -43.1 11.9 -44.4 Q11.85 -48.9 12.15 -51.7 L12.15 -240.2 12.3 -240.95 12.55 -407.4 12.3 -493.25 11.5 -529.7 11.25 -574.15 11.25 -578.8 11.25 -583.5 11.2 -584.1 11.0 -615.15 10.3 -631.55 10.3 -633.55 9.8 -641.15 9.75 -641.95 Q9.15 -652.0 9.15 -655.95 L9.2 -656.8 9.2 -656.9 9.3 -659.35 8.9 -659.55 Q4.15 -661.7 -4.9 -661.7 -6.2 -661.7 -7.9 -660.65 L-9.45 -659.85 -10.95 -659.6 -10.95 -622.2 -11.2 -621.4 -11.2 -559.35 -11.75 -556.55 Q-12.45 -540.8 -12.5 -521.4 -12.6 -496.65 -11.9 -471.25 -12.1 -447.25 -11.75 -422.1 L-11.2 -396.15 -11.2 -373.3 -11.9 -355.6 Q-12.6 -340.05 -12.5 -331.45 -12.4 -321.95 -11.45 -315.6 L-11.45 -290.1 -11.9 -285.75 Q-12.65 -277.35 -12.65 -267.6 L-12.7 -267.6 Q-12.75 -280.55 -13.35 -300.8 L-13.7 -313.15 -13.7 -341.65 -13.85 -342.05 Q-12.9 -355.05 -12.95 -367.35 L-13.1 -424.95 Q-13.6 -429.4 -14.1 -438.0 L-14.1 -487.2 -14.15 -487.35 -14.15 -577.8 -13.95 -579.5 -13.95 -596.65 -13.65 -610.25 Q-13.35 -628.15 -14.1 -640.35 L-14.1 -646.85 -12.95 -658.1 -12.1 -664.35 -8.3 -666.35 -7.8 -666.65 0.15 -666.3 Q5.8 -665.35 9.7 -663.05 L11.25 -663.05 11.4 -661.9 12.7 -660.7 12.6 -658.25" fill="#656a3c" fill-rule="evenodd" stroke="none"/>
    <path d="M-9.45 -659.85 L-7.9 -660.65 Q-6.2 -661.7 -4.9 -661.7 4.15 -661.7 8.9 -659.55 L9.2 -656.9 9.2 -656.8 9.15 -655.95 Q9.15 -652.0 9.75 -641.95 L9.85 -613.3 9.95 -580.6 9.95 -524.35 Q11.25 -498.75 11.5 -447.55 L10.85 -433.45 Q10.1 -420.35 9.4 -412.9 L9.4 -406.35 Q7.95 -406.0 6.0 -404.05 4.15 -402.15 3.4 -400.55 L4.45 -399.9 Q5.1 -399.9 7.45 -401.5 8.8 -402.45 9.4 -403.1 L9.4 -315.8 Q8.7 -314.15 8.5 -312.5 8.35 -311.45 8.35 -309.1 8.35 -300.7 10.1 -281.5 11.8 -262.3 11.8 -255.0 11.8 -244.65 10.25 -230.6 8.65 -216.5 8.65 -207.25 L8.7 -205.15 8.9 -204.5 8.9 -158.3 Q9.8 -151.25 10.7 -139.5 L11.5 -126.5 10.45 -112.8 9.4 -99.1 9.7 -80.45 9.95 -52.5 Q10.0 -48.7 11.35 -40.45 L12.05 -35.8 12.1 -33.75 12.25 -23.35 12.2 -24.5 Q10.15 -13.2 -2.55 -5.25 -4.0 -8.85 -4.4 -13.35 L-4.65 -22.2 -4.0 -33.2 -2.55 -48.8 -2.55 -119.55 -2.25 -186.35 Q-2.25 -205.2 -5.4 -257.15 -8.55 -309.1 -8.55 -314.85 -8.55 -323.25 -7.5 -327.2 L-7.5 -346.75 -7.2 -345.95 -6.8 -345.45 -3.55 -344.8 -1.05 -344.4 Q0.6 -344.4 1.1 -345.9 L1.3 -348.05 Q-2.05 -350.8 -4.8 -350.8 -7.05 -350.8 -7.5 -349.0 L-7.5 -389.3 Q-8.55 -417.9 -9.6 -475.65 -9.6 -487.8 -8.4 -548.6 -7.25 -609.4 -7.25 -624.3 L-8.2 -637.5 -9.35 -656.45 -9.45 -659.85 M8.9 -470.9 Q8.9 -472.55 8.25 -472.7 L7.6 -472.5 Q5.2 -471.65 4.65 -470.25 4.45 -469.8 4.45 -468.15 4.45 -466.1 4.8 -465.2 5.15 -464.2 6.3 -463.15 7.6 -463.8 7.85 -464.6 L8.45 -467.65 8.9 -470.9 M7.6 -520.0 L6.8 -520.0 6.55 -518.4 Q6.55 -517.95 6.95 -517.45 L7.35 -517.1 8.1 -517.65 7.6 -520.0 M9.4 -553.2 L9.8 -554.75 Q9.0 -556.0 7.1 -557.25 4.95 -558.7 3.15 -558.7 2.85 -558.95 2.85 -556.35 2.85 -554.95 3.7 -553.85 4.9 -552.3 7.35 -552.3 9.0 -552.3 9.4 -553.2 M7.95 -98.55 L6.3 -98.8 Q4.95 -98.3 3.25 -97.05 0.75 -95.2 0.75 -93.45 0.75 -91.85 0.95 -91.75 L1.55 -91.45 2.5 -90.8 4.2 -90.65 Q6.25 -90.65 7.65 -93.6 8.65 -95.7 8.65 -96.7 8.65 -98.35 7.95 -98.55 M5.5 -167.85 Q4.95 -168.3 4.4 -168.4 L3.15 -168.35 Q2.6 -166.7 2.6 -165.9 L3.4 -165.2 Q5.25 -165.35 5.75 -166.25 5.6 -166.25 5.55 -167.05 L5.5 -167.85 M5.5 -232.15 Q5.5 -233.8 5.1 -233.75 L4.7 -233.35 Q2.05 -232.65 1.5 -231.45 1.3 -230.95 1.3 -228.2 1.3 -226.2 1.55 -225.65 1.8 -225.0 3.15 -224.0 L4.45 -224.9 4.95 -225.35 Q4.95 -226.5 5.25 -228.65 L5.5 -232.15" fill="url(#gradient0)" fill-rule="evenodd" stroke="none"/>
    <path d="M8.9 -659.55 L9.3 -659.35 9.2 -656.9 8.9 -659.55" fill="#b6bb73" fill-rule="evenodd" stroke="none"/>
    <path d="M-12.7 -267.6 L-12.65 -267.6 Q-12.65 -277.35 -11.9 -285.75 L-11.45 -290.1 -11.45 -315.6 Q-12.4 -321.95 -12.5 -331.45 -12.6 -340.05 -11.9 -355.6 L-11.2 -373.3 -11.2 -396.15 -11.75 -422.1 Q-12.1 -447.25 -11.9 -471.25 -12.6 -496.65 -12.5 -521.4 -12.45 -540.8 -11.75 -556.55 L-11.2 -559.35 -11.2 -621.4 -10.95 -622.2 -10.95 -659.6 -9.45 -659.85 -9.35 -656.45 -8.2 -637.5 -7.25 -624.3 Q-7.25 -609.4 -8.4 -548.6 -9.6 -487.8 -9.6 -475.65 -8.55 -417.9 -7.5 -389.3 L-7.5 -349.0 Q-7.05 -350.8 -4.8 -350.8 -2.05 -350.8 1.3 -348.05 L1.1 -345.9 Q0.6 -344.4 -1.05 -344.4 L-3.55 -344.8 -6.8 -345.45 -7.2 -345.95 -7.5 -346.75 -7.5 -327.2 Q-8.55 -323.25 -8.55 -314.85 -8.55 -309.1 -5.4 -257.15 -2.25 -205.2 -2.25 -186.35 L-2.55 -119.55 -2.55 -48.8 -4.0 -33.2 -4.65 -22.2 -4.4 -13.35 Q-4.0 -8.85 -2.55 -5.25 10.15 -13.2 12.2 -24.5 L12.25 -23.35 12.3 -17.85 Q10.75 -17.0 10.75 -14.45 L10.95 -12.0 11.2 -11.15 3.25 -7.2 Q-3.65 -3.6 -7.65 -2.2 L-7.5 -3.15 -7.5 -50.9 Q-7.2 -65.4 -7.05 -93.65 L-7.0 -121.0 Q-7.0 -148.8 -7.45 -167.5 L-7.2 -174.75 -8.4 -192.55 Q-10.15 -222.6 -10.15 -236.25 L-10.05 -245.95 -10.8 -254.2 -12.7 -266.3 -12.7 -267.6 M9.75 -641.95 L9.8 -641.15 10.3 -633.55 10.3 -631.55 11.0 -615.15 11.2 -584.1 11.25 -583.5 11.25 -578.8 11.25 -574.15 11.5 -529.7 12.3 -493.25 12.55 -407.4 12.3 -240.95 12.15 -240.2 12.15 -51.7 Q11.85 -48.9 11.9 -44.4 L11.9 -43.1 11.95 -40.95 12.0 -40.1 12.1 -37.3 12.05 -36.25 12.05 -35.8 11.35 -40.45 Q10.0 -48.7 9.95 -52.5 L9.7 -80.45 9.4 -99.1 10.45 -112.8 11.5 -126.5 10.7 -139.5 Q9.8 -151.25 8.9 -158.3 L8.9 -204.5 8.7 -205.15 8.65 -207.25 Q8.65 -216.5 10.25 -230.6 11.8 -244.65 11.8 -255.0 11.8 -262.3 10.1 -281.5 8.35 -300.7 8.35 -309.1 8.35 -311.45 8.5 -312.5 8.7 -314.15 9.4 -315.8 L9.4 -403.1 Q8.8 -402.45 7.45 -401.5 5.1 -399.9 4.45 -399.9 L3.4 -400.55 Q4.15 -402.15 6.0 -404.05 7.95 -406.0 9.4 -406.35 L9.4 -412.9 Q10.1 -420.35 10.85 -433.45 L11.5 -447.55 Q11.25 -498.75 9.95 -524.35 L9.95 -580.6 9.85 -613.3 9.75 -641.95 M9.4 -553.2 Q9.0 -552.3 7.35 -552.3 4.9 -552.3 3.7 -553.85 2.85 -554.95 2.85 -556.35 2.85 -558.95 3.15 -558.7 4.95 -558.7 7.1 -557.25 9.0 -556.0 9.8 -554.75 L9.4 -553.2 M7.6 -520.0 L8.1 -517.65 7.35 -517.1 6.95 -517.45 Q6.55 -517.95 6.55 -518.4 L6.8 -520.0 7.6 -520.0 M8.9 -470.9 L8.45 -467.65 7.85 -464.6 Q7.6 -463.8 6.3 -463.15 5.15 -464.2 4.8 -465.2 4.45 -466.1 4.45 -468.15 4.45 -469.8 4.65 -470.25 5.2 -471.65 7.6 -472.5 L8.25 -472.7 Q8.9 -472.55 8.9 -470.9 M5.5 -232.15 L5.25 -228.65 Q4.95 -226.5 4.95 -225.35 L4.45 -224.9 3.15 -224.0 Q1.8 -225.0 1.55 -225.65 1.3 -226.2 1.3 -228.2 1.3 -230.95 1.5 -231.45 2.05 -232.65 4.7 -233.35 L5.1 -233.75 Q5.5 -233.8 5.5 -232.15 M5.5 -167.85 L5.55 -167.05 Q5.6 -166.25 5.75 -166.25 5.25 -165.35 3.4 -165.2 L2.6 -165.9 Q2.6 -166.7 3.15 -168.35 L4.4 -168.4 Q4.95 -168.3 5.5 -167.85 M7.95 -98.55 Q8.65 -98.35 8.65 -96.7 8.65 -95.7 7.65 -93.6 6.25 -90.65 4.2 -90.65 L2.5 -90.8 1.55 -91.45 0.95 -91.75 Q0.75 -91.85 0.75 -93.45 0.75 -95.2 3.25 -97.05 4.95 -98.3 6.3 -98.8 L7.95 -98.55" fill="url(#gradient1)" fill-rule="evenodd" stroke="none"/>
    <path d="M14.15 -346.8 L14.15 -509.1 14.2 -509.45 14.2 -509.5 13.45 -532.8 13.3 -534.3 13.3 -538.15 13.1 -553.7 Q13.1 -568.0 13.6 -579.3 12.95 -591.75 12.95 -596.5 L12.95 -599.2 Q11.55 -615.7 11.55 -621.85 11.55 -627.4 11.9 -639.7 L11.95 -640.4 12.05 -643.65 12.2 -648.7 12.55 -657.85 12.6 -658.25 14.9 -654.6 Q17.15 -650.35 17.15 -646.8 17.15 -641.8 17.6 -633.2 L18.2 -619.6 Q18.65 -608.75 18.45 -587.45 L18.2 -566.45 Q18.2 -553.6 20.05 -385.45 20.1 -375.25 19.05 -365.3 17.5 -350.65 14.15 -346.8" fill="url(#gradient2)" fill-rule="evenodd" stroke="none"/>
  </g>
  <defs>
    <linearGradient gradientTransform="matrix(0.0011, 0.2144, -0.9986, 0.0051, -19.25, -479.35)" gradientUnits="userSpaceOnUse" id="gradient0" spreadMethod="pad" x1="-819.2" x2="819.2">
      <stop offset="0.0" stop-color="#698b6a"/>
      <stop offset="1.0" stop-color="#a4ad6d"/>
    </linearGradient>
    <linearGradient gradientTransform="matrix(1.0E-4, 0.2858, -1.0, 4.0E-4, -8.95, -403.25)" gradientUnits="userSpaceOnUse" id="gradient1" spreadMethod="pad" x1="-819.2" x2="819.2">
      <stop offset="0.0" stop-color="#8ca47d"/>
      <stop offset="1.0" stop-color="#b6bb73"/>
    </linearGradient>
    <linearGradient gradientTransform="matrix(1.0E-4, 0.2858, -1.0, 4.0E-4, -3.65, -529.5)" gradientUnits="userSpaceOnUse" id="gradient2" spreadMethod="pad" x1="-819.2" x2="819.2">
      <stop offset="0.0" stop-color="#8ca47d"/>
      <stop offset="1.0" stop-color="#bdc279"/>
    </linearGradient>
  </defs>
</svg>
