<?xml version="1.0" encoding="UTF-8" standalone="no"?>
<svg xmlns:ffdec="https://www.free-decompiler.com/flash" xmlns:xlink="http://www.w3.org/1999/xlink" ffdec:objectType="shape" height="1045.0px" width="1485.0px" xmlns="http://www.w3.org/2000/svg">
  <g transform="matrix(1.0, 0.0, 0.0, 1.0, -237.5, 402.5)">
    <path d="M240.0 80.0 L420.0 20.0 420.0 -300.0 800.0 -360.0 1280.0 -400.0 1360.0 -400.0 1360.0 240.0 1580.0 240.0 1580.0 540.0" fill="none" stroke="#00ffff" stroke-linecap="round" stroke-linejoin="round" stroke-width="5.0"/>
    <path d="M1720.0 540.0 L1720.0 -300.0 M1720.0 540.0 L1720.0 640.0 M240.0 300.0 L240.0 600.0 M240.0 300.0 L240.0 80.0 240.0 -260.0" fill="none" stroke="#ffff00" stroke-linecap="round" stroke-linejoin="round" stroke-width="5.0"/>
    <path d="M1580.0 540.0 L1720.0 540.0 M1580.0 540.0 L1220.0 540.0 940.0 520.0 700.0 400.0 440.0 300.0 240.0 300.0" fill="none" stroke="#0000ff" stroke-linecap="round" stroke-linejoin="round" stroke-width="5.0"/>
    <path d="M440.0 300.0 L480.0 300.0 840.0 260.0 1000.0 240.0 1360.0 240.0" fill="none" stroke="#ff0000" stroke-linecap="round" stroke-linejoin="round" stroke-width="5.0"/>
  </g>
</svg>
