<?xml version="1.0" encoding="UTF-8" standalone="no"?>
<svg xmlns:ffdec="https://www.free-decompiler.com/flash" xmlns:xlink="http://www.w3.org/1999/xlink" ffdec:objectType="shape" height="597.2px" width="187.1px" xmlns="http://www.w3.org/2000/svg">
  <g transform="matrix(1.0, 0.0, 0.0, 1.0, 93.55, 965.65)">
    <path d="M-66.55 -957.05 L-61.55 -957.1 -61.55 -945.15 -61.55 -702.7 -61.6 -539.95 -61.75 -499.8 Q-62.4 -430.7 -64.85 -411.55 L-64.85 -495.85 -66.15 -527.6 -66.55 -539.95 -66.8 -563.35 -66.5 -589.6 -66.5 -746.85 Q-65.7 -775.6 -65.35 -820.0 L-65.1 -856.55 -64.85 -893.3 Q-64.7 -910.05 -65.8 -945.15 L-66.55 -956.75 -66.55 -957.05 M43.1 -482.15 L42.75 -481.85 42.6 -481.9 41.85 -482.15 39.4 -482.75 41.15 -481.0 41.6 -480.55 41.65 -480.45 Q46.25 -475.7 46.25 -474.7 L46.2 -474.0 47.1 -473.8 54.1 -458.85 Q72.25 -418.7 75.9 -391.75 L76.05 -390.65 Q77.35 -380.75 78.45 -368.45 L74.8 -368.45 Q73.25 -380.0 71.1 -390.65 L69.85 -396.55 Q64.35 -420.9 58.7 -438.1 54.1 -452.05 45.25 -465.2 L44.35 -468.25 Q44.05 -468.3 43.7 -468.0 40.55 -469.6 35.95 -476.4 31.7 -482.7 31.7 -484.4 31.7 -485.65 32.0 -485.85 L32.4 -486.0 Q32.5 -486.7 32.8 -486.8 L34.05 -487.05 Q35.2 -486.65 37.55 -484.5 39.4 -485.1 42.7 -482.95 L43.1 -482.15 M-91.15 -958.2 Q-88.8 -956.4 -86.2 -952.6 L-85.5 -951.55 -85.5 -951.35 Q-85.35 -950.05 -85.3 -945.15 L-85.3 -942.3 Q-85.3 -931.9 -85.65 -909.05 L-86.4 -870.45 -86.05 -856.55 -85.65 -836.8 -86.3 -802.25 Q-86.65 -801.45 -87.2 -801.05 L-88.0 -808.15 -88.1 -806.8 -88.1 -679.3 -88.35 -677.55 -88.35 -513.7 -88.9 -513.75 -89.25 -513.75 -91.4 -513.7 -91.95 -513.65 -92.3 -513.65 -92.3 -514.55 -92.3 -517.25 -92.3 -676.5 -92.65 -678.1 -92.65 -713.05 -92.6 -715.5 -91.85 -735.25 Q-90.8 -765.8 -90.8 -778.7 L-91.15 -958.2 M17.3 -467.85 L18.0 -467.6 16.65 -469.95 Q19.95 -470.2 24.2 -466.2 26.9 -463.6 27.7 -462.05 30.4 -460.45 32.35 -455.9 34.15 -451.65 34.9 -446.3 47.6 -426.4 51.65 -396.8 L52.4 -390.65 Q53.4 -381.3 54.05 -368.45 L49.8 -368.45 49.8 -368.5 48.15 -380.3 47.35 -386.75 47.1 -388.4 46.8 -390.65 46.7 -391.25 Q45.05 -400.2 43.0 -409.15 40.5 -420.0 37.75 -430.0 L33.5 -441.55 29.8 -450.8 Q29.8 -455.25 23.25 -462.25 L17.3 -467.85 M12.5 -465.75 Q17.1 -461.55 22.5 -452.65 L21.65 -453.95 19.85 -455.45 18.25 -456.5 17.7 -456.8 16.65 -457.2 Q14.05 -461.15 11.15 -464.0 L12.5 -465.75 M7.3 -458.85 L9.65 -462.05 13.8 -456.45 Q12.95 -455.4 12.75 -453.05 L12.65 -451.15 Q12.65 -450.95 18.2 -437.9 L15.3 -443.45 10.05 -453.4 7.3 -458.85 M49.4 -430.3 Q52.45 -427.45 54.2 -423.25 53.9 -422.4 52.8 -421.85 51.55 -422.25 48.45 -424.85 45.35 -427.45 44.4 -428.85 45.6 -433.85 49.4 -430.3 M61.2 -388.7 Q62.5 -390.05 63.95 -388.05 63.1 -387.05 61.75 -387.05 L61.5 -387.65 Q61.2 -388.3 61.2 -388.7" fill="#8ca47d" fill-rule="evenodd" stroke="none"/>
    <path d="M-61.55 -957.1 L-66.55 -957.05 -75.85 -957.05 Q-76.95 -958.3 -79.2 -959.45 L-79.8 -957.05 -86.0 -957.05 -86.0 -954.1 -85.5 -951.55 -86.2 -952.6 Q-88.8 -956.4 -91.15 -958.2 L-91.15 -959.75 -91.15 -962.75 -89.9 -965.65 -89.6 -963.3 -87.2 -964.45 73.65 -963.5 79.8 -963.15 82.55 -963.1 Q82.8 -963.4 83.15 -963.5 L83.65 -963.15 83.85 -963.25 83.9 -963.05 84.5 -962.3 84.65 -961.95 84.5 -958.5 84.15 -949.6 84.0 -945.15 Q83.35 -910.7 83.35 -891.55 83.35 -873.35 83.6 -856.55 L83.6 -854.7 83.55 -851.9 Q83.35 -824.85 83.35 -740.9 L83.4 -735.15 83.15 -696.0 83.05 -539.95 82.95 -480.55 Q82.6 -457.4 82.95 -435.4 L83.0 -433.6 83.0 -431.65 83.0 -431.4 83.05 -430.3 83.05 -429.6 83.05 -429.2 83.05 -428.75 83.05 -428.35 83.05 -427.95 Q83.4 -415.1 83.95 -406.75 L84.0 -406.55 84.05 -405.65 84.15 -404.3 84.2 -403.65 84.2 -383.6 Q83.8 -379.6 84.0 -377.35 L83.85 -377.35 85.0 -368.45 82.8 -368.45 82.1 -374.85 80.2 -390.65 Q78.7 -400.95 77.2 -406.9 L75.1 -417.25 70.4 -434.3 Q65.4 -447.65 59.1 -461.45 L53.3 -472.3 46.7 -483.95 46.25 -484.75 45.25 -483.9 44.9 -483.55 43.15 -481.95 42.95 -481.75 41.65 -480.45 41.6 -480.55 42.6 -481.9 42.4 -481.6 42.75 -481.85 43.1 -482.15 43.35 -482.35 44.4 -483.3 44.8 -483.65 45.2 -484.0 45.85 -484.65 46.35 -485.1 43.1 -488.75 37.05 -495.2 Q41.0 -495.6 45.4 -489.7 L47.5 -486.2 47.9 -486.65 48.95 -484.4 Q55.5 -473.9 61.75 -461.45 67.3 -448.8 72.4 -434.3 L77.65 -413.45 77.85 -412.55 Q79.8 -404.05 81.35 -395.55 L82.05 -390.65 82.05 -476.15 81.85 -476.8 81.85 -539.95 81.85 -667.05 81.65 -668.7 81.65 -929.1 81.45 -945.15 81.2 -958.25 81.15 -958.25 81.05 -958.25 78.35 -958.15 78.15 -958.15 78.1 -958.15 78.05 -958.15 73.65 -957.95 25.6 -957.65 16.85 -957.6 -56.55 -957.1 -61.55 -957.1 M11.35 -471.2 L13.45 -469.9 12.6 -470.9 12.9 -471.3 17.3 -467.85 23.25 -462.25 Q29.8 -455.25 29.8 -450.8 L33.5 -441.55 37.75 -430.0 Q40.5 -420.0 43.0 -409.15 45.05 -400.2 46.7 -391.25 L46.8 -390.65 47.1 -388.4 47.35 -386.75 48.15 -380.3 49.8 -368.5 49.8 -368.45 47.7 -368.45 47.45 -370.55 Q46.2 -382.3 44.9 -390.65 43.75 -397.95 42.55 -402.6 L40.45 -412.95 35.75 -430.0 34.2 -434.15 34.15 -434.2 28.1 -448.9 19.9 -459.5 Q13.75 -467.3 11.35 -471.1 L11.2 -471.3 11.35 -471.2 M11.15 -464.0 Q14.05 -461.15 16.65 -457.2 L17.8 -455.35 22.15 -446.3 22.25 -446.5 22.55 -447.25 24.15 -445.45 24.65 -444.7 25.55 -443.4 25.5 -443.3 Q25.35 -442.85 25.35 -442.05 L25.5 -441.2 25.5 -441.0 Q25.5 -438.8 29.15 -428.5 30.95 -423.3 32.65 -419.85 33.35 -415.9 36.25 -405.15 37.9 -398.9 39.3 -394.35 L39.55 -390.65 Q40.2 -382.55 41.8 -372.6 L42.45 -368.45 41.6 -368.45 40.9 -374.25 Q39.85 -382.6 38.4 -390.65 33.6 -417.2 24.35 -440.05 L24.15 -440.55 Q21.35 -446.25 15.25 -454.5 L13.8 -456.45 9.65 -462.05 4.5 -468.85 Q8.0 -467.05 11.15 -464.0" fill="#656a3c" fill-rule="evenodd" stroke="none"/>
    <path d="M-66.55 -957.05 L-66.55 -956.75 -65.8 -945.15 Q-64.7 -910.05 -64.85 -893.3 L-65.1 -856.55 -65.35 -820.0 Q-65.7 -775.6 -66.5 -746.85 L-66.5 -589.6 -66.8 -563.35 -66.55 -539.95 -66.15 -527.6 -64.85 -495.85 -64.85 -411.55 -65.8 -411.1 Q-66.75 -410.6 -67.35 -410.45 L-67.8 -410.95 -68.35 -411.7 Q-70.15 -414.4 -71.55 -419.95 -79.3 -437.2 -79.75 -482.1 L-84.85 -458.95 Q-88.0 -444.75 -91.4 -433.45 L-91.4 -512.45 -91.95 -513.65 -91.4 -513.7 -89.25 -513.75 -88.9 -513.75 -88.35 -513.7 -88.35 -677.55 -88.1 -679.3 -88.1 -806.8 -88.0 -808.15 -87.2 -801.05 Q-86.65 -801.45 -86.3 -802.25 L-85.65 -836.8 -86.05 -856.55 -86.4 -870.45 -85.65 -909.05 Q-85.3 -931.9 -85.3 -942.3 L-85.3 -945.15 Q-85.35 -950.05 -85.5 -951.35 L-85.5 -951.55 -86.0 -954.1 -86.0 -957.05 -79.8 -957.05 -79.2 -959.45 Q-76.95 -958.3 -75.85 -957.05 L-66.55 -957.05 M42.95 -481.75 L43.15 -481.95 43.3 -481.65 42.95 -481.75 M11.35 -471.2 Q11.95 -474.4 14.8 -476.1 L15.6 -478.35 Q18.2 -483.3 25.65 -483.3 L27.85 -483.15 Q27.35 -484.9 27.35 -485.95 27.35 -494.0 31.4 -494.4 33.55 -494.65 36.35 -492.75 L38.55 -491.8 42.1 -484.15 42.7 -482.95 Q39.4 -485.1 37.55 -484.5 35.2 -486.65 34.05 -487.05 L32.8 -486.8 Q32.5 -486.7 32.4 -486.0 L32.0 -485.85 Q31.7 -485.65 31.7 -484.4 31.7 -482.7 35.95 -476.4 40.55 -469.6 43.7 -468.0 44.05 -468.3 44.35 -468.25 L45.25 -465.2 Q54.1 -452.05 58.7 -438.1 64.35 -420.9 69.85 -396.55 L71.1 -390.65 Q73.25 -380.0 74.8 -368.45 L54.05 -368.45 Q53.4 -381.3 52.4 -390.65 L51.65 -396.8 Q47.6 -426.4 34.9 -446.3 34.15 -451.65 32.35 -455.9 30.4 -460.45 27.7 -462.05 26.9 -463.6 24.2 -466.2 19.95 -470.2 16.65 -469.95 L18.0 -467.6 17.3 -467.85 12.9 -471.3 12.6 -470.9 13.45 -469.9 11.35 -471.2 M11.35 -471.1 Q13.75 -467.3 19.9 -459.5 L28.1 -448.9 34.15 -434.2 34.2 -434.15 36.4 -422.65 Q31.1 -437.65 24.05 -450.0 L23.9 -450.25 22.5 -452.65 Q17.1 -461.55 12.5 -465.75 L12.8 -466.1 Q11.2 -467.3 11.2 -469.4 11.2 -470.3 11.35 -471.1 M61.2 -388.7 Q61.2 -388.3 61.5 -387.65 L61.75 -387.05 Q63.1 -387.05 63.95 -388.05 62.5 -390.05 61.2 -388.7 M49.4 -430.3 Q45.6 -433.85 44.4 -428.85 45.35 -427.45 48.45 -424.85 51.55 -422.25 52.8 -421.85 53.9 -422.4 54.2 -423.25 52.45 -427.45 49.4 -430.3" fill="#779267" fill-rule="evenodd" stroke="none"/>
    <path d="M-61.55 -945.15 L-61.55 -957.1 -56.55 -957.1 -57.2 -945.15 -61.55 -945.15 M16.85 -957.6 L25.6 -957.65 25.5 -945.15 16.95 -945.15 16.85 -957.6 M78.05 -958.15 L78.1 -958.15 78.15 -958.15 78.35 -958.15 81.05 -958.25 81.15 -958.25 81.2 -958.25 81.45 -945.15 78.3 -945.15 77.7 -958.1 78.05 -958.15 M84.0 -945.15 L84.15 -949.6 84.5 -958.5 Q85.1 -960.5 86.0 -962.25 89.25 -968.45 93.55 -957.5 90.75 -952.7 89.65 -945.15 L84.0 -945.15" fill="url(#gradient0)" fill-rule="evenodd" stroke="none"/>
    <path d="M-56.25 -539.95 L-57.1 -566.7 -58.45 -604.5 Q-58.45 -611.4 -57.1 -629.0 -55.8 -646.6 -55.8 -653.5 L-57.2 -744.0 Q-58.4 -818.45 -58.6 -856.55 L-58.65 -870.3 -58.85 -877.3 -58.85 -878.65 Q-58.85 -894.65 -57.3 -942.95 L-57.2 -945.15 16.95 -945.15 17.6 -856.55 17.95 -815.15 19.1 -646.35 18.35 -645.7 19.1 -644.05 19.2 -599.7 Q19.2 -585.3 17.7 -539.95 L-34.65 -539.95 -35.05 -540.2 -35.15 -539.95 -56.25 -539.95 M78.3 -945.15 L78.45 -932.75 78.0 -919.25 Q77.65 -908.8 77.85 -903.55 L77.85 -779.25 Q77.9 -762.85 76.35 -705.25 L74.75 -645.4 74.9 -617.3 Q67.3 -607.9 66.05 -606.8 L65.8 -605.05 Q66.15 -603.6 67.6 -602.25 69.1 -600.9 70.6 -600.9 72.85 -600.9 75.05 -601.85 L75.9 -539.95 22.85 -539.95 Q22.6 -562.95 23.1 -599.7 L23.2 -638.55 24.9 -640.05 25.25 -642.6 Q24.35 -649.2 23.25 -649.45 23.5 -714.0 24.45 -813.8 L24.85 -856.55 25.5 -945.15 78.3 -945.15 M61.35 -758.95 Q61.7 -759.75 61.7 -763.5 61.7 -767.55 59.95 -770.9 58.3 -774.0 56.6 -774.0 56.6 -771.45 58.1 -764.7 59.6 -758.15 60.2 -757.75 L61.35 -758.95 M33.1 -782.9 Q36.15 -782.9 37.65 -781.15 38.2 -781.65 38.8 -781.4 39.15 -781.4 39.15 -784.9 39.15 -788.8 37.7 -791.1 36.0 -793.9 33.1 -792.3 L32.85 -790.0 32.45 -787.45 33.1 -782.9 M3.45 -671.35 L2.65 -668.0 Q4.3 -663.7 6.2 -660.9 L6.55 -660.2 Q6.85 -660.2 6.85 -663.7 6.85 -666.55 5.55 -669.1 4.35 -671.35 3.45 -671.35 M49.75 -623.5 L47.45 -615.4 Q47.85 -611.9 48.95 -610.85 51.0 -612.7 52.8 -618.5 54.8 -624.85 54.15 -629.4 L54.15 -629.95 Q51.4 -627.9 49.75 -623.5 M-16.6 -756.65 Q-19.3 -763.25 -21.35 -763.25 -20.85 -760.15 -19.65 -757.05 L-18.6 -754.35 Q-18.2 -754.5 -17.75 -754.9 -16.85 -755.55 -16.6 -756.65 M-23.5 -676.35 L-23.35 -679.15 -23.3 -682.55 Q-26.0 -684.95 -27.85 -681.45 L-27.85 -677.95 Q-26.35 -676.35 -23.5 -676.35 M-43.4 -674.45 L-43.45 -674.85 Q-42.95 -677.15 -43.25 -681.45 L-44.3 -681.6 Q-45.3 -681.6 -46.55 -680.9 -46.95 -679.15 -46.95 -675.7 L-46.7 -674.85 Q-46.25 -674.05 -44.95 -674.05 -43.65 -674.05 -43.4 -674.45 M-28.6 -573.45 Q-29.25 -570.9 -29.35 -568.2 L-29.25 -566.6 -29.05 -565.1 Q-28.55 -563.65 -27.2 -563.65 -25.25 -563.65 -24.7 -567.25 -24.45 -568.75 -24.45 -571.7 -24.45 -575.45 -24.95 -576.7 L-26.35 -578.3 Q-27.75 -576.7 -28.6 -573.45" fill="url(#gradient1)" fill-rule="evenodd" stroke="none"/>
    <path d="M-61.6 -539.95 L-61.55 -702.7 -61.55 -945.15 -57.2 -945.15 -57.3 -942.95 Q-58.85 -894.65 -58.85 -878.65 L-58.85 -877.3 -58.65 -870.3 -58.6 -856.55 Q-58.4 -818.45 -57.2 -744.0 L-55.8 -653.5 Q-55.8 -646.6 -57.1 -629.0 -58.45 -611.4 -58.45 -604.5 L-57.1 -566.7 -56.25 -539.95 -61.6 -539.95 M81.45 -945.15 L81.65 -929.1 81.65 -668.7 81.85 -667.05 81.85 -539.95 75.9 -539.95 75.05 -601.85 Q72.85 -600.9 70.6 -600.9 69.1 -600.9 67.6 -602.25 66.15 -603.6 65.8 -605.05 L66.05 -606.8 Q67.3 -607.9 74.9 -617.3 L74.75 -645.4 76.35 -705.25 Q77.9 -762.85 77.85 -779.25 L77.85 -903.55 Q77.65 -908.8 78.0 -919.25 L78.45 -932.75 78.3 -945.15 81.45 -945.15 M83.05 -539.95 L83.15 -696.0 83.4 -735.15 83.35 -740.9 Q83.35 -824.85 83.55 -851.9 L83.6 -854.7 83.6 -856.55 Q83.35 -873.35 83.35 -891.55 83.35 -910.7 84.0 -945.15 L89.65 -945.15 Q88.85 -935.5 88.85 -923.45 L88.9 -899.5 Q88.65 -885.8 87.3 -876.1 L87.2 -856.55 86.7 -826.75 86.7 -826.45 86.85 -806.95 87.7 -712.0 Q87.7 -697.2 88.45 -641.5 L89.2 -579.1 Q89.2 -571.95 87.85 -563.1 86.45 -554.2 86.45 -550.2 86.45 -546.7 87.3 -539.95 L83.05 -539.95 M-35.15 -539.95 L-35.05 -540.2 -34.65 -539.95 -35.15 -539.95 M17.7 -539.95 Q19.2 -585.3 19.2 -599.7 L19.1 -644.05 18.35 -645.7 19.1 -646.35 17.95 -815.15 17.6 -856.55 16.95 -945.15 25.5 -945.15 24.85 -856.55 24.45 -813.8 Q23.5 -714.0 23.25 -649.45 24.35 -649.2 25.25 -642.6 L24.9 -640.05 23.2 -638.55 23.1 -599.7 Q22.6 -562.95 22.85 -539.95 L17.7 -539.95 M49.75 -623.5 Q51.4 -627.9 54.15 -629.95 L54.15 -629.4 Q54.8 -624.85 52.8 -618.5 51.0 -612.7 48.95 -610.85 47.85 -611.9 47.45 -615.4 L49.75 -623.5 M3.45 -671.35 Q4.35 -671.35 5.55 -669.1 6.85 -666.55 6.85 -663.7 6.85 -660.2 6.55 -660.2 L6.2 -660.9 Q4.3 -663.7 2.65 -668.0 L3.45 -671.35 M33.1 -782.9 L32.45 -787.45 32.85 -790.0 33.1 -792.3 Q36.0 -793.9 37.7 -791.1 39.15 -788.8 39.15 -784.9 39.15 -781.4 38.8 -781.4 38.2 -781.65 37.65 -781.15 36.15 -782.9 33.1 -782.9 M61.35 -758.95 L60.2 -757.75 Q59.6 -758.15 58.1 -764.7 56.6 -771.45 56.6 -774.0 58.3 -774.0 59.95 -770.9 61.7 -767.55 61.7 -763.5 61.7 -759.75 61.35 -758.95 M-16.6 -756.65 Q-16.85 -755.55 -17.75 -754.9 -18.2 -754.5 -18.6 -754.35 L-19.65 -757.05 Q-20.85 -760.15 -21.35 -763.25 -19.3 -763.25 -16.6 -756.65 M-28.6 -573.45 Q-27.75 -576.7 -26.35 -578.3 L-24.95 -576.7 Q-24.45 -575.45 -24.45 -571.7 -24.45 -568.75 -24.7 -567.25 -25.25 -563.65 -27.2 -563.65 -28.55 -563.65 -29.05 -565.1 L-29.25 -566.6 -29.35 -568.2 Q-29.25 -570.9 -28.6 -573.45 M-43.4 -674.45 Q-43.65 -674.05 -44.95 -674.05 -46.25 -674.05 -46.7 -674.85 L-46.95 -675.7 Q-46.95 -679.15 -46.55 -680.9 -45.3 -681.6 -44.3 -681.6 L-43.25 -681.45 Q-42.95 -677.15 -43.45 -674.85 L-43.4 -674.45 M-23.5 -676.35 Q-26.35 -676.35 -27.85 -677.95 L-27.85 -681.45 Q-26.0 -684.95 -23.3 -682.55 L-23.35 -679.15 -23.5 -676.35" fill="url(#gradient2)" fill-rule="evenodd" stroke="none"/>
    <path d="M-56.55 -957.1 L16.85 -957.6 16.95 -945.15 -57.2 -945.15 -56.55 -957.1 M25.6 -957.65 L73.65 -957.95 78.05 -958.15 77.7 -958.1 78.3 -945.15 25.5 -945.15 25.6 -957.65" fill="url(#gradient3)" fill-rule="evenodd" stroke="none"/>
    <path d="M-64.85 -411.55 Q-62.4 -430.7 -61.75 -499.8 L-61.6 -539.95 -56.25 -539.95 Q-55.8 -533.75 -55.8 -529.75 -55.9 -522.85 -56.45 -516.0 L-56.45 -516.25 -52.65 -513.6 Q-49.75 -511.3 -49.75 -510.1 -49.75 -508.7 -50.25 -508.4 L-51.55 -507.95 -57.15 -509.8 -57.1 -510.25 Q-57.85 -504.8 -58.85 -501.65 L-58.85 -496.7 Q-58.2 -481.15 -57.95 -451.2 L-57.8 -422.65 Q-57.8 -409.1 -58.4 -390.65 L-59.25 -368.45 -67.8 -368.45 -67.8 -410.95 -67.35 -410.45 Q-66.75 -410.6 -65.8 -411.1 L-64.85 -411.55 M81.85 -539.95 L81.85 -476.8 82.05 -476.15 82.05 -390.65 81.35 -395.55 Q79.8 -404.05 77.85 -412.55 L78.0 -414.4 Q79.1 -429.0 79.1 -444.55 79.1 -468.45 76.95 -515.6 L75.9 -539.95 81.85 -539.95 M84.15 -404.3 L84.05 -405.65 84.0 -406.55 83.95 -406.75 Q83.4 -415.1 83.05 -427.95 L83.05 -428.35 83.05 -428.75 83.05 -429.2 83.05 -429.6 83.05 -430.3 83.0 -431.4 83.0 -431.65 83.0 -433.6 82.95 -435.4 Q82.6 -457.4 82.95 -480.55 L83.05 -539.95 87.3 -539.95 87.7 -538.8 Q88.9 -535.45 88.9 -534.65 88.9 -528.6 86.65 -504.3 L86.65 -467.25 Q87.3 -460.05 87.3 -445.5 L87.15 -424.85 Q86.8 -417.4 85.9 -412.7 87.3 -411.2 87.3 -407.65 87.3 -405.0 86.0 -403.1 84.8 -403.45 84.15 -404.3 M22.85 -539.95 L23.1 -534.4 Q23.65 -527.0 25.4 -518.75 32.25 -511.45 32.25 -506.25 L31.85 -505.7 29.9 -503.95 Q28.8 -504.45 27.7 -505.35 L28.15 -504.95 28.1 -504.8 Q27.45 -503.4 25.0 -503.4 L21.3 -502.85 17.7 -502.35 Q15.55 -502.35 14.95 -504.25 L14.75 -505.85 Q13.7 -505.95 13.35 -506.45 L12.9 -507.95 15.1 -512.5 16.95 -532.35 17.7 -539.95 22.85 -539.95 M37.9 -531.85 L40.0 -531.65 Q41.6 -531.15 41.6 -529.55 41.6 -528.2 41.3 -528.25 L40.95 -528.6 Q38.55 -528.8 37.4 -529.75 L35.75 -531.65 36.25 -531.8 37.9 -531.85 M69.15 -514.45 L68.5 -514.0 Q68.8 -513.6 66.65 -513.6 64.8 -513.6 63.7 -515.35 62.85 -516.75 62.85 -518.25 L62.9 -519.65 63.25 -519.95 Q64.55 -519.6 66.75 -518.4 69.35 -516.95 69.35 -516.05 69.35 -514.7 69.15 -514.45 M50.65 -537.2 L51.85 -535.9 Q53.05 -534.75 53.05 -533.9 53.05 -532.6 52.7 -532.55 L51.5 -532.5 50.2 -533.2 49.35 -533.55 49.25 -533.75 49.15 -535.6 Q49.15 -536.9 49.5 -537.05 L50.65 -537.2 M11.8 -517.4 L12.05 -514.75 Q12.05 -512.9 9.0 -510.75 L7.7 -511.25 7.2 -513.2 Q6.85 -514.65 6.85 -515.95 6.85 -517.2 7.1 -517.3 L7.3 -517.55 11.8 -517.4 M-34.65 -539.95 L-34.15 -539.75 Q-33.25 -539.35 -33.25 -538.05 -33.25 -537.35 -34.2 -535.75 -35.4 -533.8 -36.75 -533.8 -38.1 -533.8 -38.35 -534.5 L-38.6 -535.7 Q-36.45 -538.8 -35.15 -539.95 L-34.65 -539.95 M-4.05 -527.1 L-3.05 -528.3 Q-2.15 -529.05 -1.2 -529.2 L-0.55 -528.5 Q0.1 -527.9 0.1 -527.5 -0.3 -527.1 -1.3 -526.6 L-2.25 -526.15 Q-3.85 -526.45 -4.05 -527.1 M-19.2 -530.1 L-18.2 -530.05 Q-17.85 -528.55 -18.3 -527.75 -18.15 -527.65 -18.3 -527.5 L-19.9 -527.3 Q-21.2 -527.3 -21.6 -527.7 L-22.2 -528.6 -21.35 -529.85 -19.2 -530.1 M-5.1 -501.05 Q-5.1 -498.75 -6.4 -495.4 L-7.75 -491.9 Q-7.75 -490.85 -6.75 -488.35 -5.75 -485.9 -5.75 -484.8 -5.75 -482.9 -6.35 -481.2 -7.6 -477.8 -10.75 -477.8 -12.0 -477.8 -12.35 -478.1 L-12.75 -478.45 -13.05 -479.65 -13.1 -481.4 Q-13.1 -490.2 -12.15 -491.95 -9.45 -497.0 -6.9 -506.9 L-5.75 -506.9 Q-5.1 -505.1 -5.1 -501.05 M-49.4 -434.15 L-49.1 -434.75 Q-46.4 -435.7 -45.25 -434.35 -44.55 -433.55 -44.55 -432.3 L-45.05 -431.7 -47.2 -430.0 Q-48.25 -430.2 -49.3 -430.85 L-49.5 -430.85 -49.75 -432.4 Q-49.75 -433.65 -49.4 -434.15 M-30.95 -479.4 Q-29.95 -481.15 -28.2 -481.85 L-25.5 -481.95 -25.15 -481.45 -25.1 -480.25 Q-25.1 -479.4 -25.55 -478.55 -26.3 -477.15 -28.05 -477.15 -29.5 -477.15 -30.2 -478.1 L-30.95 -479.4" fill="url(#gradient4)" fill-rule="evenodd" stroke="none"/>
    <path d="M77.85 -412.55 L77.65 -413.45 72.4 -434.3 Q67.3 -448.8 61.75 -461.45 55.5 -473.9 48.95 -484.4 L47.9 -486.65 47.5 -486.2 45.4 -489.7 Q41.0 -495.6 37.05 -495.2 L43.1 -488.75 46.35 -485.1 45.85 -484.65 45.2 -484.0 44.8 -483.65 44.4 -483.3 43.35 -482.35 43.1 -482.15 42.7 -482.95 42.1 -484.15 38.55 -491.8 36.35 -492.75 Q33.55 -494.65 31.4 -494.4 27.35 -494.0 27.35 -485.95 27.35 -484.9 27.85 -483.15 L25.65 -483.3 Q18.2 -483.3 15.6 -478.35 L14.8 -476.1 Q11.95 -474.4 11.35 -471.2 L11.2 -471.3 11.35 -471.1 Q11.2 -470.3 11.2 -469.4 11.2 -467.3 12.8 -466.1 L12.5 -465.75 11.15 -464.0 Q8.0 -467.05 4.5 -468.85 L9.65 -462.05 7.3 -458.85 6.7 -458.05 6.4 -457.55 6.0 -457.05 4.05 -454.2 -0.35 -447.4 -2.6 -443.7 Q-8.55 -433.8 -9.85 -428.85 -11.55 -422.65 -21.1 -394.05 L-22.2 -390.65 Q-26.4 -377.8 -28.65 -368.45 L-59.25 -368.45 -58.4 -390.65 Q-57.8 -409.1 -57.8 -422.65 L-57.95 -451.2 Q-58.2 -481.15 -58.85 -496.7 L-58.85 -501.65 Q-57.85 -504.8 -57.1 -510.25 L-57.15 -509.8 -51.55 -507.95 -50.25 -508.4 Q-49.75 -508.7 -49.75 -510.1 -49.75 -511.3 -52.65 -513.6 L-56.45 -516.25 -56.45 -516.0 Q-55.9 -522.85 -55.8 -529.75 -55.8 -533.75 -56.25 -539.95 L-35.15 -539.95 Q-36.45 -538.8 -38.6 -535.7 L-38.35 -534.5 Q-38.1 -533.8 -36.75 -533.8 -35.4 -533.8 -34.2 -535.75 -33.25 -537.35 -33.25 -538.05 -33.25 -539.35 -34.15 -539.75 L-34.65 -539.95 17.7 -539.95 16.95 -532.35 15.1 -512.5 12.9 -507.95 13.35 -506.45 Q13.7 -505.95 14.75 -505.85 L14.95 -504.25 Q15.55 -502.35 17.7 -502.35 L21.3 -502.85 25.0 -503.4 Q27.45 -503.4 28.1 -504.8 L28.15 -504.95 27.7 -505.35 Q28.8 -504.45 29.9 -503.95 L31.85 -505.7 32.25 -506.25 Q32.25 -511.45 25.4 -518.75 23.65 -527.0 23.1 -534.4 L22.85 -539.95 75.9 -539.95 76.95 -515.6 Q79.1 -468.45 79.1 -444.55 79.1 -429.0 78.0 -414.4 L77.85 -412.55 M-71.55 -419.95 Q-70.15 -414.4 -68.35 -411.7 L-67.8 -410.95 -67.8 -368.45 -71.55 -368.45 -71.55 -419.95 M37.9 -531.85 L36.25 -531.8 35.75 -531.65 37.4 -529.75 Q38.55 -528.8 40.95 -528.6 L41.3 -528.25 Q41.6 -528.2 41.6 -529.55 41.6 -531.15 40.0 -531.65 L37.9 -531.85 M11.8 -517.4 L7.3 -517.55 7.1 -517.3 Q6.85 -517.2 6.85 -515.95 6.85 -514.65 7.2 -513.2 L7.7 -511.25 9.0 -510.75 Q12.05 -512.9 12.05 -514.75 L11.8 -517.4 M50.65 -537.2 L49.5 -537.05 Q49.15 -536.9 49.15 -535.6 L49.25 -533.75 49.35 -533.55 50.2 -533.2 51.5 -532.5 52.7 -532.55 Q53.05 -532.6 53.05 -533.9 53.05 -534.75 51.85 -535.9 L50.65 -537.2 M69.15 -514.45 Q69.35 -514.7 69.35 -516.05 69.35 -516.95 66.75 -518.4 64.55 -519.6 63.25 -519.95 L62.9 -519.65 62.85 -518.25 Q62.85 -516.75 63.7 -515.35 64.8 -513.6 66.65 -513.6 68.8 -513.6 68.5 -514.0 L69.15 -514.45 M-19.2 -530.1 L-21.35 -529.85 -22.2 -528.6 -21.6 -527.7 Q-21.2 -527.3 -19.9 -527.3 L-18.3 -527.5 Q-18.15 -527.65 -18.3 -527.75 -17.85 -528.55 -18.2 -530.05 L-19.2 -530.1 M-4.05 -527.1 Q-3.85 -526.45 -2.25 -526.15 L-1.3 -526.6 Q-0.3 -527.1 0.1 -527.5 0.1 -527.9 -0.55 -528.5 L-1.2 -529.2 Q-2.15 -529.05 -3.05 -528.3 L-4.05 -527.1 M-5.1 -501.05 Q-5.1 -505.1 -5.75 -506.9 L-6.9 -506.9 Q-9.45 -497.0 -12.15 -491.95 -13.1 -490.2 -13.1 -481.4 L-13.05 -479.65 -12.75 -478.45 -12.35 -478.1 Q-12.0 -477.8 -10.75 -477.8 -7.6 -477.8 -6.35 -481.2 -5.75 -482.9 -5.75 -484.8 -5.75 -485.9 -6.75 -488.35 -7.75 -490.85 -7.75 -491.9 L-6.4 -495.4 Q-5.1 -498.75 -5.1 -501.05 M-43.6 -498.6 Q-46.75 -497.0 -46.75 -492.55 L-46.65 -490.9 -46.55 -490.85 -46.15 -490.4 Q-45.8 -490.0 -44.55 -490.0 -41.55 -490.0 -40.7 -493.0 -40.3 -494.5 -40.5 -495.65 -40.5 -500.15 -43.6 -498.6 M-30.95 -479.4 L-30.2 -478.1 Q-29.5 -477.15 -28.05 -477.15 -26.3 -477.15 -25.55 -478.55 -25.1 -479.4 -25.1 -480.25 L-25.15 -481.45 -25.5 -481.95 -28.2 -481.85 Q-29.95 -481.15 -30.95 -479.4 M-49.4 -434.15 Q-49.75 -433.65 -49.75 -432.4 L-49.5 -430.85 -49.3 -430.85 Q-48.25 -430.2 -47.2 -430.0 L-45.05 -431.7 -44.55 -432.3 Q-44.55 -433.55 -45.25 -434.35 -46.4 -435.7 -49.1 -434.75 L-49.4 -434.15" fill="url(#gradient5)" fill-rule="evenodd" stroke="none"/>
    <path d="M42.75 -481.85 L42.4 -481.6 42.6 -481.9 41.6 -480.55 41.15 -481.0 39.4 -482.75 41.85 -482.15 42.6 -481.9 42.75 -481.85 M41.65 -480.45 L42.95 -481.75 43.3 -481.65 43.15 -481.95 44.9 -483.55 45.25 -483.9 46.25 -484.75 46.7 -483.95 53.3 -472.3 59.1 -461.45 Q65.4 -447.65 70.4 -434.3 L75.1 -417.25 77.2 -406.9 Q78.7 -400.95 80.2 -390.65 L82.1 -374.85 82.8 -368.45 78.45 -368.45 Q77.35 -380.75 76.05 -390.65 L75.9 -391.75 Q72.25 -418.7 54.1 -458.85 L47.1 -473.8 46.2 -474.0 46.25 -474.7 Q46.25 -475.7 41.65 -480.45 M-92.3 -517.25 L-92.3 -514.55 -93.55 -516.65 -92.3 -517.25" fill="#93a570" fill-rule="evenodd" stroke="none"/>
    <path d="M16.65 -457.2 L17.7 -456.8 18.75 -455.35 22.25 -446.5 22.15 -446.3 17.8 -455.35 16.65 -457.2 M6.0 -457.05 L6.4 -457.55 6.7 -458.05 7.3 -458.85 10.05 -453.4 15.3 -443.45 18.2 -437.9 Q12.65 -450.95 12.65 -451.15 L12.75 -453.05 Q12.95 -455.4 13.8 -456.45 L15.25 -454.5 Q21.35 -446.25 24.15 -440.55 L24.35 -440.05 Q33.6 -417.2 38.4 -390.65 39.85 -382.6 40.9 -374.25 L41.6 -368.45 31.35 -368.45 29.9 -369.95 30.25 -371.35 36.75 -370.85 33.5 -390.65 32.45 -396.6 Q29.05 -415.65 13.95 -443.2 L6.0 -457.05" fill="#62887b" fill-rule="evenodd" stroke="none"/>
    <path d="M17.7 -456.8 L18.25 -456.5 18.75 -455.35 17.7 -456.8 M-2.6 -443.7 L-0.35 -447.4 4.05 -454.2 6.0 -457.05 13.95 -443.2 Q29.05 -415.65 32.45 -396.6 L33.5 -390.65 36.75 -370.85 30.25 -371.35 29.9 -369.95 31.35 -368.45 18.45 -368.45 17.6 -373.75 Q15.8 -385.1 15.8 -388.35 L15.45 -390.65 12.45 -403.05 Q9.0 -416.85 8.65 -419.8 8.25 -423.6 5.35 -429.0 2.55 -434.2 -0.8 -437.65 L-2.6 -443.7 M-3.65 -395.9 L-2.9 -390.65 Q-0.8 -375.35 -0.15 -368.45 L-6.05 -368.45 -4.1 -390.65 -4.0 -391.95 -3.65 -395.9" fill="#55776c" fill-rule="evenodd" stroke="none"/>
    <path d="M34.2 -434.15 L35.75 -430.0 40.45 -412.95 42.55 -402.6 Q43.75 -397.95 44.9 -390.65 46.2 -382.3 47.45 -370.55 L47.7 -368.45 42.45 -368.45 41.8 -372.6 Q40.2 -382.55 39.55 -390.65 L39.3 -394.35 Q37.9 -398.9 36.25 -405.15 33.35 -415.9 32.65 -419.85 30.95 -423.3 29.15 -428.5 25.5 -438.8 25.5 -441.0 L25.5 -441.2 25.35 -442.05 Q25.35 -442.85 25.5 -443.3 L25.55 -443.4 24.65 -444.7 24.15 -445.45 22.55 -447.25 22.25 -446.5 18.75 -455.35 18.25 -456.5 19.85 -455.45 21.65 -453.95 22.5 -452.65 23.9 -450.25 24.05 -450.0 Q31.1 -437.65 36.4 -422.65 L34.2 -434.15 M-28.65 -368.45 Q-26.4 -377.8 -22.2 -390.65 L-21.1 -394.05 Q-11.55 -422.65 -9.85 -428.85 -8.55 -433.8 -2.6 -443.7 L-0.8 -437.65 -0.35 -435.75 Q-0.35 -433.65 -3.65 -395.9 L-4.0 -391.95 -4.1 -390.65 -6.05 -368.45 -28.65 -368.45" fill="#698b6a" fill-rule="evenodd" stroke="none"/>
    <path d="M-0.8 -437.65 Q2.55 -434.2 5.35 -429.0 8.25 -423.6 8.65 -419.8 9.0 -416.85 12.45 -403.05 L15.45 -390.65 15.8 -388.35 Q15.8 -385.1 17.6 -373.75 L18.45 -368.45 -0.15 -368.45 Q-0.8 -375.35 -2.9 -390.65 L-3.65 -395.9 Q-0.35 -433.65 -0.35 -435.75 L-0.8 -437.65 M8.0 -379.1 L7.5 -377.8 Q9.3 -375.25 10.8 -374.75 L11.9 -375.15 Q12.25 -375.45 12.25 -376.85 12.25 -378.95 8.0 -379.1" fill="#45686b" fill-rule="evenodd" stroke="none"/>
    <path d="M8.0 -379.1 Q12.25 -378.95 12.25 -376.85 12.25 -375.45 11.9 -375.15 L10.8 -374.75 Q9.3 -375.25 7.5 -377.8 L8.0 -379.1" fill="#50797c" fill-rule="evenodd" stroke="none"/>
    <path d="M-43.6 -498.6 Q-40.5 -500.15 -40.5 -495.65 -40.3 -494.5 -40.7 -493.0 -41.55 -490.0 -44.55 -490.0 -45.8 -490.0 -46.15 -490.4 L-46.55 -490.85 -46.65 -490.9 -46.75 -492.55 Q-46.75 -497.0 -43.6 -498.6" fill="url(#gradient6)" fill-rule="evenodd" stroke="none"/>
    <path d="M-91.4 -433.45 Q-88.0 -444.75 -84.85 -458.95 L-79.75 -482.1 Q-79.3 -437.2 -71.55 -419.95 L-71.55 -368.45 -91.75 -368.45 -91.7 -403.85 -91.4 -404.5 -91.4 -433.45" fill="url(#gradient7)" fill-rule="evenodd" stroke="none"/>
  </g>
  <defs>
    <linearGradient gradientTransform="matrix(6.0E-4, 0.1666, -1.0, 0.0072, -20.3, -693.1)" gradientUnits="userSpaceOnUse" id="gradient0" spreadMethod="pad" x1="-819.2" x2="819.2">
      <stop offset="0.0" stop-color="#8ca47d"/>
      <stop offset="1.0" stop-color="#bcc180"/>
    </linearGradient>
    <linearGradient gradientTransform="matrix(-0.0023, 0.2775, -0.9997, -0.0602, -342.35, -730.3)" gradientUnits="userSpaceOnUse" id="gradient1" spreadMethod="pad" x1="-819.2" x2="819.2">
      <stop offset="0.0" stop-color="#698b6a"/>
      <stop offset="1.0" stop-color="#93a570"/>
    </linearGradient>
    <linearGradient gradientTransform="matrix(6.0E-4, 0.3133, -1.0, 0.0136, -20.3, -471.1)" gradientUnits="userSpaceOnUse" id="gradient2" spreadMethod="pad" x1="-819.2" x2="819.2">
      <stop offset="0.0" stop-color="#8ca47d"/>
      <stop offset="1.0" stop-color="#bcc180"/>
    </linearGradient>
    <linearGradient gradientTransform="matrix(-0.0023, 0.1476, -0.9997, -0.032, -342.35, -830.9)" gradientUnits="userSpaceOnUse" id="gradient3" spreadMethod="pad" x1="-819.2" x2="819.2">
      <stop offset="0.0" stop-color="#698b6a"/>
      <stop offset="1.0" stop-color="#93a570"/>
    </linearGradient>
    <linearGradient gradientTransform="matrix(6.0E-4, 0.1165, -1.0, 0.0051, -20.3, -514.35)" gradientUnits="userSpaceOnUse" id="gradient4" spreadMethod="pad" x1="-819.2" x2="819.2">
      <stop offset="0.0" stop-color="#8ca47d"/>
      <stop offset="1.0" stop-color="#bcc180"/>
    </linearGradient>
    <linearGradient gradientTransform="matrix(-0.0023, 0.1032, -0.9997, -0.0224, -342.35, -610.7)" gradientUnits="userSpaceOnUse" id="gradient5" spreadMethod="pad" x1="-819.2" x2="819.2">
      <stop offset="0.0" stop-color="#698b6a"/>
      <stop offset="1.0" stop-color="#93a570"/>
    </linearGradient>
    <linearGradient gradientTransform="matrix(0.0, 0.0, 0.0, 0.0, 3.05, -41.55)" gradientUnits="userSpaceOnUse" id="gradient6" spreadMethod="pad" x1="-819.2" x2="819.2">
      <stop offset="0.0" stop-color="#8ca47d"/>
      <stop offset="1.0" stop-color="#bcc180"/>
    </linearGradient>
    <linearGradient gradientTransform="matrix(-0.0041, 0.1032, -1.797, -0.0224, -558.35, -610.7)" gradientUnits="userSpaceOnUse" id="gradient7" spreadMethod="pad" x1="-819.2" x2="819.2">
      <stop offset="0.0" stop-color="#698b6a"/>
      <stop offset="1.0" stop-color="#93a570"/>
    </linearGradient>
  </defs>
</svg>
