<?xml version="1.0" encoding="UTF-8" standalone="no"?>
<svg xmlns:ffdec="https://www.free-decompiler.com/flash" xmlns:xlink="http://www.w3.org/1999/xlink" ffdec:objectType="shape" height="535.15px" width="459.05px" xmlns="http://www.w3.org/2000/svg">
  <g transform="matrix(1.0, 0.0, 0.0, 1.0, 296.8, 539.1)">
    <path d="M111.55 -127.25 Q162.25 -83.55 162.25 -65.0 162.25 -53.05 137.75 -41.3 115.45 -30.6 77.1 -21.9 40.6 -13.65 -0.45 -9.4 -42.1 -5.05 -75.6 -6.15 L-129.5 -5.9 -144.4 -4.9 -160.05 -3.95 -189.2 -3.95 -196.7 -4.9 -203.6 -5.9 -246.5 -6.15 Q-261.25 -9.55 -278.4 -11.6 L-278.55 -7.25 Q-281.55 -8.6 -285.05 -8.7 -290.5 -8.9 -294.25 -5.95 L-294.35 -6.75 Q-295.0 -14.1 -294.35 -22.25 L-294.25 -96.8 -293.8 -97.6 -293.8 -153.55 -293.7 -154.4 -293.7 -270.3 -293.25 -271.15 -293.25 -316.6 -296.0 -329.15 -296.0 -329.65 -296.5 -331.25 Q-296.8 -332.55 -296.8 -337.25 -296.8 -348.7 -294.5 -380.75 L-292.7 -404.4 -291.2 -491.8 -291.2 -535.7 Q-288.25 -538.75 -285.85 -538.95 L-285.75 -539.1 -285.7 -539.0 Q-282.95 -539.1 -281.0 -535.3 L-280.45 -533.7 Q-258.65 -512.25 -231.9 -483.9 L-179.05 -427.05 Q-111.25 -353.95 -67.2 -313.35 -47.5 -292.8 -13.35 -256.15 23.6 -216.4 39.45 -199.75 L64.75 -171.45 Q77.85 -156.6 88.0 -146.7 L111.55 -127.25 M-209.6 -76.05 L-232.2 -76.25 -232.65 -75.85 Q-225.7 -75.7 -209.6 -76.05" fill="url(#gradient0)" fill-rule="evenodd" stroke="none"/>
  </g>
  <defs>
    <linearGradient gradientTransform="matrix(0.001, 0.1622, 0.9975, -0.0028, -1221.35, -262.1)" gradientUnits="userSpaceOnUse" id="gradient0" spreadMethod="pad" x1="-819.2" x2="819.2">
      <stop offset="0.0" stop-color="#ffffcc" stop-opacity="0.4"/>
      <stop offset="1.0" stop-color="#ffffcc" stop-opacity="0.0"/>
    </linearGradient>
  </defs>
</svg>
