<?xml version="1.0" encoding="UTF-8" standalone="no"?>
<svg xmlns:ffdec="https://www.free-decompiler.com/flash" xmlns:xlink="http://www.w3.org/1999/xlink" ffdec:objectType="shape" height="1545.0px" width="2985.0px" xmlns="http://www.w3.org/2000/svg">
  <g transform="matrix(1.0, 0.0, 0.0, 1.0, 2062.5, 122.5)">
    <path d="M-1060.0 500.0 L-840.0 380.0 -500.0 220.0 220.0 -100.0 780.0 -120.0 780.0 200.0 920.0 320.0 M-1980.0 1340.0 L-1980.0 740.0 -1200.0 740.0 -1180.0 700.0" fill="none" stroke="#00ffff" stroke-linecap="round" stroke-linejoin="round" stroke-width="5.0"/>
    <path d="M920.0 320.0 L920.0 0.0 M-2060.0 1340.0 L-2060.0 1420.0 M920.0 320.0 L920.0 520.0 920.0 620.0 M-2060.0 1340.0 L-2060.0 440.0" fill="none" stroke="#ffff00" stroke-linecap="round" stroke-linejoin="round" stroke-width="5.0"/>
    <path d="M920.0 520.0 L840.0 540.0 380.0 540.0 120.0 600.0 -780.0 1020.0 -820.0 1080.0 -900.0 1120.0 -960.0 1120.0 -1440.0 1340.0 -1980.0 1340.0 -2060.0 1340.0" fill="none" stroke="#0000ff" stroke-linecap="round" stroke-linejoin="round" stroke-width="5.0"/>
  </g>
</svg>
