<?xml version="1.0" encoding="UTF-8" standalone="no"?>
<svg xmlns:ffdec="https://www.free-decompiler.com/flash" xmlns:xlink="http://www.w3.org/1999/xlink" ffdec:objectType="shape" height="246.2px" width="520.4px" xmlns="http://www.w3.org/2000/svg">
  <g transform="matrix(1.0, 0.0, 0.0, 1.0, -543.85, -75.35)">
    <path d="M978.4 318.15 Q977.3 319.9 976.25 320.55 974.45 321.55 968.8 321.55 L963.7 321.25 961.0 320.9 960.55 320.2 Q960.05 319.6 960.05 317.65 960.05 315.2 963.95 314.5 968.8 313.65 977.75 316.2 L978.4 318.15 M675.5 219.05 L676.0 220.5 673.85 222.85 Q672.8 223.6 670.6 223.6 L668.1 223.3 668.0 222.95 667.3 222.55 Q667.05 222.45 667.05 220.5 667.05 218.0 670.4 217.7 673.6 217.4 675.5 219.05 M662.8 231.55 Q661.25 233.8 657.45 233.8 L655.1 233.5 655.2 233.15 Q654.95 233.45 654.7 233.3 654.2 233.1 654.2 231.05 654.2 228.5 656.95 228.05 659.8 227.6 662.35 230.55 L662.8 231.55 M648.35 228.45 Q648.35 231.75 646.45 234.5 643.75 238.35 638.45 238.35 632.45 238.35 629.9 233.55 629.1 232.0 628.75 230.15 L628.55 228.45 Q628.55 223.8 631.65 221.05 634.45 218.6 638.45 218.6 642.45 218.6 645.25 221.05 L646.2 222.0 658.45 221.0 659.1 223.6 Q657.05 226.35 648.35 228.1 L648.35 228.45 M626.9 226.85 L627.4 227.5 Q627.9 228.0 627.9 229.9 627.9 231.25 625.85 232.95 623.7 234.8 621.4 234.8 L617.8 231.05 Q617.8 228.55 620.6 227.15 623.45 225.75 626.9 226.85 M597.35 243.9 Q596.15 246.4 591.45 250.25 585.9 254.8 581.9 254.8 572.2 254.8 569.25 252.5 568.1 251.6 568.1 249.6 568.1 244.0 580.15 242.7 590.85 241.55 597.35 243.9 M553.6 252.25 Q549.4 254.9 547.75 254.8 L544.6 252.0 Q543.85 251.25 543.85 250.25 543.85 242.25 558.35 246.35 L559.0 248.3 Q557.25 250.0 553.6 252.25" fill="#454a30" fill-rule="evenodd" stroke="none"/>
    <path d="M1063.05 81.0 Q1064.25 83.2 1064.25 85.35 1064.25 93.7 1045.35 100.85 1038.8 103.35 1031.45 105.1 1025.25 106.6 1023.2 106.6 1010.95 106.6 1007.15 101.3 1005.45 98.95 1005.45 93.8 1005.45 84.25 1009.0 79.95 1012.15 76.15 1019.1 75.5 L1035.05 75.95 1056.0 77.1 Q1060.9 77.1 1063.05 81.0" fill="#564b3a" fill-rule="evenodd" stroke="none"/>
  </g>
</svg>
