<?xml version="1.0" encoding="UTF-8" standalone="no"?>
<svg xmlns:ffdec="https://www.free-decompiler.com/flash" xmlns:xlink="http://www.w3.org/1999/xlink" ffdec:objectType="shape" height="376.5px" width="219.1px" xmlns="http://www.w3.org/2000/svg">
  <g transform="matrix(1.0, 0.0, 0.0, 1.0, 109.55, 376.5)">
    <path d="M17.15 -375.95 L18.95 -375.75 20.55 -375.45 20.6 -375.45 Q23.1 -374.8 23.8 -373.3 L24.1 -372.1 24.1 -372.05 23.85 -371.55 22.1 -366.55 21.95 -366.05 21.9 -365.8 Q20.5 -360.55 19.15 -352.25 L19.05 -351.55 Q17.85 -343.9 17.25 -337.5 16.7 -331.55 16.7 -326.8 16.7 -310.85 21.35 -293.7 23.35 -286.4 27.25 -275.8 L28.1 -273.5 30.7 -266.7 Q34.2 -262.0 34.55 -256.85 L38.95 -245.05 Q43.2 -239.25 43.2 -232.55 L43.15 -231.6 Q45.35 -223.1 46.15 -215.25 L46.6 -206.55 46.6 -205.2 46.5 -197.45 Q45.45 -206.5 43.4 -215.25 L41.6 -222.1 40.0 -227.2 39.45 -227.2 37.35 -230.65 Q34.75 -234.85 32.25 -237.95 23.8 -248.25 16.05 -246.35 L14.7 -246.4 Q14.25 -246.5 14.25 -248.45 L14.3 -249.05 13.6 -248.65 12.8 -249.2 Q12.0 -249.95 12.0 -251.05 L14.5 -250.6 Q15.25 -254.0 18.75 -254.95 L19.65 -255.1 Q14.55 -258.65 8.75 -260.0 13.25 -263.95 19.0 -262.75 22.55 -262.05 26.15 -259.5 L23.55 -263.35 Q17.85 -270.85 10.85 -271.05 L11.5 -270.4 10.6 -268.95 7.75 -266.2 7.45 -265.95 Q7.1 -266.1 7.1 -268.15 7.1 -269.7 8.5 -270.9 L8.6 -270.95 5.95 -270.4 5.65 -270.55 Q5.3 -270.75 5.3 -272.7 5.3 -277.0 9.85 -277.6 14.15 -278.15 19.95 -275.4 L21.15 -274.8 19.4 -279.45 18.6 -280.6 Q11.55 -289.45 -0.55 -292.2 L-0.55 -294.3 Q7.75 -296.3 15.95 -290.0 L15.35 -292.0 Q9.4 -313.7 9.4 -338.0 9.4 -339.85 9.7 -342.2 L8.75 -341.6 5.85 -343.3 2.25 -345.65 Q4.5 -350.25 7.0 -349.25 8.7 -348.6 10.25 -345.45 10.95 -349.1 12.25 -353.65 15.45 -365.0 16.05 -371.15 16.3 -373.6 17.15 -375.95 M4.85 -330.55 Q1.1 -330.55 -0.55 -332.5 2.6 -335.9 7.75 -335.9 7.75 -335.55 8.45 -334.7 L9.4 -333.15 Q8.5 -330.55 4.85 -330.55 M3.7 -313.0 Q0.45 -313.85 -0.55 -314.55 L-3.95 -316.7 -3.95 -318.35 0.8 -317.95 Q4.25 -317.15 5.3 -314.75 5.0 -313.65 3.7 -313.0 M21.1 -223.75 L15.7 -223.1 15.3 -225.0 Q14.9 -226.7 14.9 -227.85 L17.95 -228.15 21.25 -227.5 21.9 -225.55 Q21.25 -224.6 21.1 -223.75 M17.85 -236.45 Q26.85 -244.4 34.9 -233.4 40.85 -225.35 42.35 -216.15 L41.7 -215.25 Q40.8 -214.1 39.7 -213.45 L41.75 -210.1 Q44.15 -205.9 44.15 -204.25 44.15 -202.95 42.9 -200.1 L40.75 -196.0 40.65 -196.1 42.05 -191.25 41.4 -188.2 40.7 -187.65 Q39.9 -187.1 38.65 -186.9 L33.75 -193.35 Q29.75 -198.1 27.6 -201.0 32.45 -207.1 36.75 -202.6 L34.8 -206.35 Q31.15 -212.95 26.7 -215.25 L24.35 -216.15 23.85 -217.6 Q26.85 -225.5 33.3 -220.5 L31.2 -224.1 Q26.45 -231.85 18.3 -235.0 L17.85 -236.45 M16.25 -81.6 L18.35 -86.6 30.25 -112.75 35.3 -124.9 Q30.0 -107.8 22.25 -92.55 L21.5 -91.1 16.25 -81.6 M24.65 -196.0 Q27.25 -196.0 28.65 -194.65 29.7 -193.65 30.5 -191.25 L30.05 -189.85 29.35 -188.65 29.75 -188.4 27.75 -188.2 Q26.1 -188.2 24.2 -191.0 22.55 -193.35 22.55 -194.05 L22.6 -195.8 Q22.75 -195.45 22.85 -195.65 L22.8 -195.8 24.65 -196.0 M32.35 -182.5 L34.55 -183.65 Q37.2 -181.9 38.7 -177.4 40.05 -172.05 40.75 -169.8 L40.1 -166.75 Q39.95 -165.75 38.3 -165.1 37.1 -166.3 34.25 -172.55 31.5 -178.55 31.5 -179.4 31.5 -181.6 32.35 -182.5 M30.2 -158.95 Q30.2 -160.95 31.2 -161.1 L32.15 -161.05 Q34.3 -159.45 35.2 -156.35 35.85 -154.3 35.85 -151.95 35.85 -149.35 35.35 -146.55 34.85 -143.45 33.9 -141.4 33.35 -141.95 31.75 -149.75 30.2 -157.35 30.2 -158.95 M33.9 -139.1 Q33.9 -137.25 32.95 -134.75 31.7 -131.55 31.5 -130.5 L30.2 -130.15 29.55 -132.85 Q29.05 -134.5 29.05 -136.35 29.05 -136.85 30.1 -139.0 31.45 -141.65 32.8 -142.7 L33.65 -141.75 33.9 -139.1 M21.75 -119.45 Q21.85 -120.3 23.5 -122.15 25.2 -124.0 26.3 -124.5 L25.1 -122.1 Q24.15 -120.65 22.55 -119.45 L21.75 -119.45" fill="#a8a63e" fill-rule="evenodd" stroke="none"/>
    <path d="M24.1 -372.1 L24.65 -373.1 26.4 -372.2 Q26.95 -371.55 26.95 -369.35 L23.7 -350.5 Q20.45 -331.1 20.45 -327.1 20.45 -301.35 33.85 -268.05 L43.05 -245.9 44.2 -242.95 44.15 -244.25 Q44.15 -245.85 46.3 -249.15 48.85 -252.9 52.25 -255.35 59.45 -260.45 66.8 -256.85 67.0 -263.85 70.35 -269.15 75.6 -277.4 84.95 -267.65 L84.95 -265.7 Q82.65 -264.2 73.55 -259.3 71.25 -258.1 70.8 -254.65 L70.7 -254.3 71.95 -253.2 Q75.95 -245.0 80.45 -239.5 87.4 -231.1 94.2 -231.1 L95.75 -231.15 95.85 -232.05 96.65 -232.05 97.3 -231.4 Q102.35 -232.6 105.9 -237.8 109.3 -242.85 109.3 -246.5 L109.55 -246.5 109.55 -240.0 Q105.25 -228.9 101.55 -227.05 L102.55 -225.9 Q104.95 -222.7 104.95 -218.75 104.95 -217.05 103.55 -213.7 101.6 -209.0 98.75 -209.0 L94.2 -209.3 92.1 -209.65 92.1 -215.65 Q96.95 -218.0 96.65 -223.6 L96.2 -226.9 Q88.65 -227.65 83.6 -231.6 80.25 -234.2 77.45 -238.25 L77.75 -235.9 77.8 -232.7 Q77.8 -228.75 76.35 -226.1 74.45 -222.65 70.5 -222.65 64.15 -222.65 62.05 -227.05 61.2 -228.9 61.2 -232.2 61.2 -236.85 61.95 -238.15 64.0 -241.5 72.6 -244.9 72.05 -246.55 69.2 -250.65 66.2 -254.95 65.3 -254.95 49.75 -254.95 46.9 -241.85 46.35 -239.4 46.4 -235.8 47.25 -232.4 47.25 -230.1 47.25 -228.45 48.5 -218.45 49.7 -208.45 49.7 -206.85 49.7 -188.4 47.8 -171.3 42.95 -127.5 25.55 -92.45 16.25 -73.7 3.75 -58.55 L5.0 -58.65 Q12.45 -58.65 16.75 -54.85 19.4 -52.5 22.45 -46.55 25.5 -40.4 27.8 -38.25 31.8 -34.45 38.65 -34.45 42.1 -34.45 44.7 -35.35 L44.5 -35.45 44.8 -36.4 46.8 -36.25 47.8 -36.9 Q52.15 -40.0 52.95 -46.95 53.3 -49.95 53.15 -53.35 51.35 -51.5 49.5 -51.5 L47.8 -51.55 Q43.0 -51.95 41.15 -54.65 39.95 -56.4 39.95 -59.65 39.95 -62.0 40.75 -63.75 41.95 -66.3 44.5 -66.3 L47.8 -66.15 Q51.8 -65.75 52.95 -64.25 53.45 -63.6 53.6 -62.4 L53.7 -61.9 53.75 -61.9 54.1 -60.65 Q56.0 -64.3 55.05 -70.7 L55.85 -70.7 57.75 -68.35 Q58.15 -67.45 58.15 -65.15 58.15 -61.3 55.4 -56.55 L54.4 -54.95 54.4 -54.45 Q54.4 -46.5 53.1 -41.75 52.05 -37.85 50.25 -35.4 L52.7 -34.55 Q59.2 -32.65 72.9 -32.35 74.1 -32.05 74.35 -31.75 74.7 -31.4 74.7 -29.25 74.7 -27.05 70.85 -22.75 66.85 -18.35 64.3 -18.35 52.45 -18.35 48.55 -25.7 L47.8 -27.3 Q46.85 -29.75 46.85 -32.45 44.75 -31.35 42.05 -31.35 32.75 -31.35 27.15 -35.75 23.85 -38.3 19.95 -44.8 16.35 -50.8 13.6 -52.4 9.15 -55.05 1.25 -52.5 L-1.4 -52.65 Q-23.15 -28.9 -53.6 -15.15 -73.8 -6.0 -97.85 -1.25 L-104.35 -0.05 -104.65 0.0 -107.85 -0.5 Q-109.15 -1.05 -109.55 -1.8 L-107.0 -2.2 -106.05 -2.35 -92.25 -5.15 Q-84.85 -6.9 -77.75 -9.1 L-76.45 -9.5 -75.9 -9.7 -74.4 -10.65 Q-70.25 -11.95 -63.6 -15.1 -58.95 -16.3 -53.6 -18.8 -48.7 -21.1 -43.25 -24.55 -36.85 -28.6 -32.35 -32.6 L-30.35 -34.5 -29.6 -34.3 Q-22.1 -37.3 -13.85 -44.25 -7.7 -49.4 -3.8 -54.55 L-3.95 -56.9 -1.7 -57.45 -1.1 -57.6 Q8.45 -68.6 16.25 -81.6 L21.5 -91.1 22.25 -92.55 Q30.0 -107.8 35.3 -124.9 45.45 -157.8 46.5 -197.45 L46.6 -205.2 46.6 -206.55 46.15 -215.25 Q45.35 -223.1 43.15 -231.6 L43.2 -232.55 Q43.2 -239.25 38.95 -245.05 L34.55 -256.85 Q34.2 -262.0 30.7 -266.7 L28.1 -273.5 27.25 -275.8 Q23.35 -286.4 21.35 -293.7 16.7 -310.85 16.7 -326.8 16.7 -331.55 17.25 -337.5 17.85 -343.9 19.05 -351.55 L19.15 -352.25 Q20.5 -360.55 21.9 -365.8 L21.95 -366.05 22.1 -366.55 23.85 -371.55 24.1 -372.05 24.1 -372.1 M-68.5 -104.55 L-69.9 -104.0 -67.7 -105.6 -65.05 -107.6 -61.3 -110.7 -60.95 -110.95 Q-56.95 -114.4 -53.6 -117.95 -42.6 -129.6 -38.3 -142.6 -35.55 -150.95 -34.8 -161.8 -34.5 -166.6 -34.5 -180.75 L-34.6 -180.8 -34.5 -183.15 -34.5 -183.3 Q-34.6 -184.55 -36.3 -186.5 -38.0 -188.5 -39.35 -189.15 L-49.1 -189.15 Q-51.55 -188.25 -53.6 -185.4 L-54.45 -184.1 Q-56.45 -179.95 -57.1 -179.1 L-53.6 -177.95 Q-50.5 -176.4 -48.1 -173.2 -45.2 -169.4 -45.2 -167.2 -45.2 -165.3 -46.5 -163.65 -48.1 -161.7 -50.75 -161.7 L-53.6 -162.15 Q-56.75 -163.2 -58.8 -166.8 -60.8 -170.25 -60.8 -172.75 -66.95 -170.45 -69.05 -164.2 -70.95 -158.6 -68.8 -153.55 -69.1 -152.6 -69.9 -151.6 -72.4 -152.15 -73.1 -155.1 L-73.35 -159.1 Q-73.35 -165.35 -71.8 -168.65 -70.55 -171.2 -67.15 -173.95 L-59.65 -180.3 Q-56.55 -183.25 -53.6 -186.95 -51.4 -189.7 -49.3 -192.9 -38.8 -192.15 -34.7 -190.35 -35.3 -204.05 -37.95 -215.25 L-39.7 -221.55 Q-42.45 -230.4 -51.15 -247.35 -59.25 -263.1 -62.6 -275.9 -67.8 -295.6 -67.8 -324.05 -67.8 -334.2 -62.55 -351.05 -56.6 -370.3 -50.25 -371.5 L-51.05 -369.45 -53.8 -362.55 -57.75 -352.35 -59.45 -347.85 Q-65.35 -331.2 -65.35 -323.7 -65.35 -298.55 -60.15 -280.05 -57.0 -268.85 -48.7 -252.1 -40.35 -235.15 -37.25 -224.4 -36.0 -220.0 -35.05 -215.25 -32.6 -202.95 -32.15 -188.2 -31.8 -187.4 -31.95 -186.1 L-32.05 -185.05 -32.05 -183.15 -32.05 -181.7 Q-32.05 -155.1 -36.85 -140.15 -42.1 -123.7 -53.6 -113.7 L-56.7 -111.25 Q-58.95 -109.55 -61.45 -108.1 -63.9 -106.65 -66.55 -105.4 L-68.5 -104.55 M74.5 -264.55 Q79.15 -267.25 82.2 -268.3 76.2 -274.4 72.75 -269.3 71.75 -267.8 70.6 -264.75 L69.2 -261.3 74.5 -264.55 M70.5 -226.7 Q76.2 -226.7 76.5 -232.9 76.7 -236.15 75.7 -240.85 73.95 -240.85 69.5 -237.8 64.8 -234.55 64.8 -232.55 64.8 -231.25 65.8 -229.5 67.4 -226.7 70.5 -226.7 M98.45 -224.75 Q99.55 -222.25 97.3 -218.6 94.3 -214.55 93.25 -212.7 L93.25 -210.95 Q98.6 -212.25 100.9 -214.85 102.5 -216.7 102.5 -218.9 102.5 -219.7 100.9 -222.05 L98.45 -225.05 98.45 -224.75 M42.35 -62.15 Q41.7 -61.2 41.7 -59.3 41.7 -57.7 43.9 -56.2 45.6 -54.95 47.8 -54.5 L49.5 -54.3 51.3 -54.3 Q51.95 -54.5 51.95 -56.55 51.95 -58.0 49.6 -60.35 L47.8 -61.8 Q45.6 -63.25 43.0 -63.4 L42.35 -62.15 M73.55 -30.05 Q59.2 -29.55 56.7 -31.7 55.2 -33.0 54.5 -33.25 L48.8 -33.8 47.8 -33.0 47.6 -32.85 47.8 -32.45 Q49.4 -29.4 51.55 -26.7 56.25 -20.65 60.55 -20.65 66.15 -20.65 70.2 -24.85 72.65 -27.45 73.55 -30.05 M-48.65 -167.4 Q-48.65 -169.0 -51.3 -171.0 L-53.6 -172.45 Q-55.45 -173.35 -57.55 -173.7 -57.1 -170.4 -53.6 -166.85 L-51.55 -164.95 -49.35 -165.05 Q-48.65 -165.3 -48.65 -167.4" fill="#47563d" fill-rule="evenodd" stroke="none"/>
    <path d="M-97.85 -1.25 Q-100.35 0.0 -102.4 0.0 L-104.35 -0.05 -97.85 -1.25 M-67.7 -105.6 L-64.35 -108.85 -64.05 -109.35 -63.8 -109.25 -63.8 -109.3 Q-62.3 -110.4 -60.95 -110.95 L-61.3 -110.7 -65.05 -107.6 -67.7 -105.6 M-18.05 -374.55 Q-15.65 -376.45 -13.2 -376.5 L-14.3 -374.6 -17.05 -370.4 Q-19.5 -366.7 -19.7 -364.35 L-21.8 -364.0 -22.55 -364.95 -22.8 -367.6 Q-22.8 -369.9 -19.75 -373.0 L-18.05 -374.55 M2.15 -375.6 Q11.95 -376.35 17.15 -375.95 16.3 -373.6 16.05 -371.15 15.45 -365.0 12.25 -353.65 10.95 -349.1 10.25 -345.45 8.7 -348.6 7.0 -349.25 4.5 -350.25 2.25 -345.65 L5.85 -343.3 8.75 -341.6 9.7 -342.2 Q9.4 -339.85 9.4 -338.0 9.4 -313.7 15.35 -292.0 L15.95 -290.0 Q7.75 -296.3 -0.55 -294.3 L-0.55 -292.2 Q11.55 -289.45 18.6 -280.6 L19.4 -279.45 21.15 -274.8 19.95 -275.4 Q14.15 -278.15 9.85 -277.6 5.3 -277.0 5.3 -272.7 5.3 -270.75 5.65 -270.55 L5.95 -270.4 8.6 -270.95 8.5 -270.9 Q7.1 -269.7 7.1 -268.15 7.1 -266.1 7.45 -265.95 L7.75 -266.2 10.6 -268.95 11.5 -270.4 10.85 -271.05 Q17.85 -270.85 23.55 -263.35 L26.15 -259.5 Q22.55 -262.05 19.0 -262.75 13.25 -263.95 8.75 -260.0 14.55 -258.65 19.65 -255.1 L18.75 -254.95 Q15.25 -254.0 14.5 -250.6 L12.0 -251.05 Q12.0 -249.95 12.8 -249.2 L13.6 -248.65 14.3 -249.05 14.25 -248.45 Q14.25 -246.5 14.7 -246.4 L16.05 -246.35 Q23.8 -248.25 32.25 -237.95 34.75 -234.85 37.35 -230.65 L39.45 -227.2 40.0 -227.2 41.6 -222.1 43.4 -215.25 Q45.45 -206.5 46.5 -197.45 45.45 -157.8 35.3 -124.9 L30.25 -112.75 18.35 -86.6 16.25 -81.6 Q8.45 -68.6 -1.1 -57.6 L-1.7 -57.45 -1.5 -57.85 -1.45 -57.95 Q2.9 -65.6 5.7 -72.35 2.9 -71.0 -1.2 -70.55 L-2.5 -71.2 Q-0.75 -72.9 2.8 -74.4 5.1 -75.4 7.0 -75.6 L8.4 -79.65 9.15 -82.4 8.1 -80.9 Q7.35 -79.4 6.15 -78.35 L4.75 -78.5 2.25 -79.3 1.95 -78.8 Q1.6 -78.7 1.6 -80.75 1.6 -82.55 5.05 -84.2 6.9 -85.05 8.35 -85.3 L5.95 -85.3 5.65 -85.4 Q5.3 -85.5 5.3 -87.45 5.3 -89.45 8.85 -92.3 L11.1 -93.9 Q12.4 -104.25 13.5 -120.6 L14.15 -131.15 13.6 -131.0 Q12.15 -132.7 10.95 -136.15 10.1 -138.75 9.85 -140.55 L11.8 -140.9 Q13.45 -140.1 14.55 -138.45 L15.0 -150.85 Q12.15 -152.55 10.7 -153.85 8.3 -155.95 8.4 -157.8 12.25 -159.2 13.95 -157.35 L15.15 -155.25 15.25 -166.1 Q15.25 -174.65 11.0 -188.75 10.05 -189.2 9.1 -189.8 L2.25 -194.05 1.6 -196.45 Q3.65 -200.35 7.4 -199.85 L2.6 -213.6 2.2 -213.9 Q1.25 -214.6 0.45 -215.25 L-5.55 -219.4 Q-4.7 -224.35 -1.25 -224.75 L-4.05 -233.65 -12.25 -235.65 -12.55 -236.8 Q-12.9 -237.8 -12.9 -239.7 -12.9 -241.45 -9.55 -242.25 L-6.65 -242.65 -7.55 -246.05 Q-8.5 -246.7 -9.4 -247.5 L-14.85 -253.0 Q-13.7 -254.85 -12.45 -255.7 L-12.85 -256.25 Q-15.95 -260.6 -15.95 -262.3 -15.95 -264.35 -15.6 -264.25 L-15.3 -263.75 Q-13.9 -263.75 -11.35 -262.6 L-11.95 -265.6 Q-13.85 -266.7 -15.95 -268.5 -18.75 -270.9 -20.7 -273.15 -20.7 -276.75 -17.85 -277.3 -16.15 -277.6 -13.8 -276.8 -14.7 -283.05 -15.2 -289.05 -17.8 -289.85 -19.7 -291.55 -22.45 -293.9 -22.45 -295.75 -22.45 -301.9 -15.8 -299.15 L-15.95 -304.8 -17.3 -306.3 -21.15 -310.55 Q-21.15 -313.0 -18.8 -314.0 L-15.65 -314.55 -14.8 -323.3 -16.45 -324.4 -16.95 -323.35 Q-17.5 -322.55 -18.55 -322.1 L-25.25 -325.8 Q-23.95 -328.85 -22.35 -328.9 L-20.95 -328.6 -21.0 -329.05 Q-21.0 -331.05 -20.5 -331.4 L-19.7 -331.5 Q-17.8 -331.85 -14.0 -328.55 -11.0 -345.85 -3.45 -363.55 L2.15 -375.6 M3.7 -313.0 Q5.0 -313.65 5.3 -314.75 4.25 -317.15 0.8 -317.95 L-3.95 -318.35 -3.95 -316.7 -0.55 -314.55 Q0.45 -313.85 3.7 -313.0 M4.85 -330.55 Q8.5 -330.55 9.4 -333.15 L8.45 -334.7 Q7.75 -335.55 7.75 -335.9 2.6 -335.9 -0.55 -332.5 1.1 -330.55 4.85 -330.55 M17.85 -236.45 L18.3 -235.0 Q26.45 -231.85 31.2 -224.1 L33.3 -220.5 Q26.85 -225.5 23.85 -217.6 L24.35 -216.15 26.7 -215.25 Q31.15 -212.95 34.8 -206.35 L36.75 -202.6 Q32.45 -207.1 27.6 -201.0 29.75 -198.1 33.75 -193.35 L38.65 -186.9 Q39.9 -187.1 40.7 -187.65 L41.4 -188.2 42.05 -191.25 40.65 -196.1 40.75 -196.0 42.9 -200.1 Q44.15 -202.95 44.15 -204.25 44.15 -205.9 41.75 -210.1 L39.7 -213.45 Q40.8 -214.1 41.7 -215.25 L42.35 -216.15 Q40.85 -225.35 34.9 -233.4 26.85 -244.4 17.85 -236.45 M21.1 -223.75 Q21.25 -224.6 21.9 -225.55 L21.25 -227.5 17.95 -228.15 14.9 -227.85 Q14.9 -226.7 15.3 -225.0 L15.7 -223.1 21.1 -223.75 M32.35 -182.5 Q31.5 -181.6 31.5 -179.4 31.5 -178.55 34.25 -172.55 37.1 -166.3 38.3 -165.1 39.95 -165.75 40.1 -166.75 L40.75 -169.8 Q40.05 -172.05 38.7 -177.4 37.2 -181.9 34.55 -183.65 L32.35 -182.5 M24.65 -196.0 L22.8 -195.8 22.85 -195.65 Q22.75 -195.45 22.6 -195.8 L22.55 -194.05 Q22.55 -193.35 24.2 -191.0 26.1 -188.2 27.75 -188.2 L29.75 -188.4 29.35 -188.65 30.05 -189.85 30.5 -191.25 Q29.7 -193.65 28.65 -194.65 27.25 -196.0 24.65 -196.0 M2.25 -182.15 L1.9 -183.8 2.25 -185.9 Q3.65 -185.9 6.85 -184.9 11.0 -183.6 12.65 -181.85 L12.35 -180.15 Q11.9 -179.25 9.85 -179.25 8.25 -179.25 6.55 -180.45 4.6 -181.8 2.25 -182.15 M5.65 -172.1 Q7.55 -174.0 10.3 -173.95 13.5 -173.9 14.6 -170.45 L13.95 -167.4 Q12.2 -167.95 9.65 -169.15 6.05 -170.85 5.65 -172.1 M33.9 -139.1 L33.65 -141.75 32.8 -142.7 Q31.45 -141.65 30.1 -139.0 29.05 -136.85 29.05 -136.35 29.05 -134.5 29.55 -132.85 L30.2 -130.15 31.5 -130.5 Q31.7 -131.55 32.95 -134.75 33.9 -137.25 33.9 -139.1 M30.2 -158.95 Q30.2 -157.35 31.75 -149.75 33.35 -141.95 33.9 -141.4 34.85 -143.45 35.35 -146.55 35.85 -149.35 35.85 -151.95 35.85 -154.3 35.2 -156.35 34.3 -159.45 32.15 -161.05 L31.2 -161.1 Q30.2 -160.95 30.2 -158.95 M21.75 -119.45 L22.55 -119.45 Q24.15 -120.65 25.1 -122.1 L26.3 -124.5 Q25.2 -124.0 23.5 -122.15 21.85 -120.3 21.75 -119.45 M9.9 -85.85 L8.9 -85.35 9.8 -85.35 9.9 -85.85 M-24.7 -347.55 Q-22.0 -347.8 -17.9 -347.6 L-17.4 -346.4 -16.6 -344.85 Q-17.8 -343.85 -20.75 -342.85 L-24.6 -341.6 Q-26.15 -342.05 -26.95 -342.7 -27.65 -343.25 -27.65 -343.7 L-27.2 -347.25 -24.7 -347.55 M-0.85 -65.8 L-0.7 -65.6 Q-0.4 -65.35 0.3 -65.15 0.3 -64.25 -0.35 -63.15 -1.2 -61.8 -2.5 -61.1 L-10.75 -61.1 -11.25 -62.3 -11.75 -63.85 -11.4 -65.8 Q-10.9 -66.3 -9.05 -66.3 L-0.85 -65.8" fill="#8c8a33" fill-rule="evenodd" stroke="none"/>
    <path d="M-107.0 -2.2 L-107.1 -3.6 -106.8 -5.05 -106.95 -7.15 Q-106.95 -12.35 -93.7 -45.35 L-76.4 -48.45 Q-70.4 -49.65 -64.65 -51.3 L-65.85 -51.35 -72.5 -51.7 -72.9 -51.85 Q-73.35 -52.0 -73.35 -53.95 -73.35 -57.2 -73.15 -56.4 L-59.15 -57.25 -53.6 -57.45 -47.3 -57.4 Q-39.5 -60.75 -32.15 -64.95 -22.0 -70.75 -14.45 -77.05 -16.95 -75.9 -18.55 -75.9 -19.85 -75.9 -21.9 -77.1 -23.8 -78.2 -25.55 -79.95 -24.7 -81.2 -15.75 -84.95 -6.75 -88.75 -4.6 -88.75 L-3.3 -86.6 Q-4.25 -83.6 -8.75 -80.35 -13.5 -71.75 -24.5 -60.75 -36.8 -48.5 -51.7 -38.35 -52.35 -37.95 -53.6 -37.5 L-56.45 -36.75 -50.25 -36.3 -41.65 -35.9 Q-40.4 -35.9 -32.4 -38.1 -30.25 -39.25 -29.3 -40.0 L-28.65 -40.25 Q-28.0 -40.1 -28.0 -38.05 -28.0 -36.9 -30.35 -34.5 L-32.35 -32.6 Q-36.85 -28.6 -43.25 -24.55 -48.7 -21.1 -53.6 -18.8 -58.95 -16.3 -63.6 -15.1 -70.25 -11.95 -74.4 -10.65 L-75.9 -9.7 -76.45 -9.5 -77.75 -9.1 Q-84.85 -6.9 -92.25 -5.15 L-106.05 -2.35 -107.0 -2.2 M-75.65 -88.9 L-72.95 -95.6 -71.05 -100.35 -68.5 -104.55 -66.55 -105.4 Q-63.9 -106.65 -61.45 -108.1 -58.95 -109.55 -56.7 -111.25 L-53.6 -113.7 Q-42.1 -123.7 -36.85 -140.15 -32.05 -155.1 -32.05 -181.7 L-32.05 -183.15 -32.05 -185.05 -31.95 -186.1 Q-31.8 -187.4 -32.15 -188.2 -32.6 -202.95 -35.05 -215.25 -36.0 -220.0 -37.25 -224.4 -40.35 -235.15 -48.7 -252.1 -57.0 -268.85 -60.15 -280.05 -65.35 -298.55 -65.35 -323.7 -65.35 -331.2 -59.45 -347.85 L-57.75 -352.35 -53.8 -362.55 -51.05 -369.45 Q-48.15 -373.95 -43.1 -374.1 L-40.05 -374.15 -44.9 -365.6 Q-57.4 -343.4 -57.4 -327.95 L-57.35 -326.0 Q-50.0 -340.75 -41.65 -348.55 -42.7 -344.15 -50.8 -323.25 -53.8 -315.55 -55.4 -309.6 L-55.15 -308.15 -53.55 -314.45 Q-50.45 -324.85 -46.2 -326.45 L-45.3 -325.8 Q-45.05 -325.45 -45.05 -323.4 L-47.65 -312.45 Q-49.9 -302.8 -50.2 -294.0 L-48.9 -298.9 Q-45.9 -308.45 -41.3 -309.1 L-40.2 -308.35 Q-39.85 -308.0 -39.85 -306.0 -39.85 -302.9 -41.0 -298.75 L-43.25 -291.25 Q-45.45 -283.5 -44.5 -276.05 L-44.3 -277.5 Q-43.3 -281.65 -38.9 -283.9 L-38.25 -284.05 Q-37.6 -283.85 -37.6 -281.8 L-38.35 -272.7 Q-39.05 -264.85 -38.9 -260.65 -39.2 -259.7 -40.65 -259.05 L-40.75 -259.05 -38.85 -253.3 Q-31.1 -229.9 -27.2 -215.25 L-26.15 -211.15 Q-20.35 -187.75 -20.35 -170.3 -20.35 -165.5 -22.85 -154.25 L-24.95 -145.8 Q-18.3 -157.7 -16.95 -164.8 L-15.65 -164.8 -13.75 -163.1 Q-12.9 -161.9 -12.9 -159.75 -12.9 -155.3 -23.55 -137.95 -28.65 -129.7 -32.6 -124.55 -41.45 -105.2 -53.6 -96.35 -63.55 -89.1 -75.65 -88.9 M74.5 -264.55 L69.2 -261.3 70.6 -264.75 Q71.75 -267.8 72.75 -269.3 76.2 -274.4 82.2 -268.3 79.15 -267.25 74.5 -264.55 M98.45 -224.75 L98.45 -225.05 100.9 -222.05 Q102.5 -219.7 102.5 -218.9 102.5 -216.7 100.9 -214.85 98.6 -212.25 93.25 -210.95 L93.25 -212.7 Q94.3 -214.55 97.3 -218.6 99.55 -222.25 98.45 -224.75 M1.75 -143.2 Q0.95 -143.95 0.95 -144.95 L2.05 -145.0 Q3.1 -144.95 4.0 -144.3 3.7 -143.35 2.55 -142.7 L1.75 -143.2 M1.1 -124.1 Q1.6 -123.95 1.6 -121.9 1.6 -120.15 -1.15 -117.2 -4.05 -114.1 -6.2 -114.1 -8.2 -114.1 -8.85 -114.75 L-9.8 -116.2 Q-8.95 -119.05 -4.65 -121.6 -1.3 -123.6 0.6 -123.85 0.85 -124.15 1.1 -124.1 M2.45 -132.65 Q1.3 -130.15 -2.15 -128.85 L-2.55 -128.45 Q-2.95 -128.45 -2.95 -130.5 -2.95 -131.4 -0.5 -134.1 1.85 -136.65 3.05 -137.3 3.35 -134.5 2.45 -132.65 M4.0 -102.7 Q4.0 -101.25 -0.8 -95.7 -6.7 -88.9 -12.25 -88.9 -21.15 -88.9 -21.15 -94.75 -21.15 -96.75 -11.5 -101.6 L1.25 -107.4 Q2.7 -106.85 3.25 -106.0 4.0 -104.95 4.0 -102.7 M73.55 -30.05 Q72.65 -27.45 70.2 -24.85 66.15 -20.65 60.55 -20.65 56.25 -20.65 51.55 -26.7 49.4 -29.4 47.8 -32.45 L47.6 -32.85 47.8 -33.0 48.8 -33.8 54.5 -33.25 Q55.2 -33.0 56.7 -31.7 59.2 -29.55 73.55 -30.05 M-23.45 -248.15 Q-23.45 -245.85 -25.5 -240.95 L-28.3 -235.0 -29.35 -236.05 Q-29.95 -236.95 -29.95 -239.05 -29.95 -241.15 -28.6 -244.3 -26.85 -248.4 -24.1 -249.6 L-23.75 -250.1 Q-23.45 -250.2 -23.45 -248.15 M-16.65 -232.6 Q-15.95 -231.95 -15.95 -229.8 -19.55 -219.4 -20.35 -218.75 -22.15 -220.45 -23.1 -222.5 -23.75 -223.95 -23.75 -224.9 -23.75 -225.9 -22.0 -228.95 -20.15 -232.3 -18.55 -233.5 L-16.65 -232.6 M-19.0 -215.35 Q-18.3 -217.2 -16.6 -217.75 L-15.5 -216.35 -15.25 -215.25 -15.15 -213.2 Q-15.15 -211.15 -16.1 -210.0 L-18.25 -207.7 -20.05 -207.7 -20.7 -211.75 Q-20.15 -212.5 -19.05 -215.25 L-19.0 -215.35 M-11.4 -204.9 Q-11.4 -202.8 -12.2 -201.65 L-14.2 -199.4 -16.6 -199.4 -16.75 -200.55 -16.95 -203.45 Q-16.95 -204.0 -15.25 -204.9 -13.55 -205.75 -13.55 -208.0 -12.25 -207.7 -11.9 -207.4 -11.4 -207.0 -11.4 -204.9 M-12.15 -200.05 Q-10.75 -200.0 -10.75 -197.95 -10.75 -196.05 -11.1 -195.0 L-11.75 -192.9 -12.85 -192.3 -14.85 -191.25 -16.45 -191.4 Q-16.95 -191.55 -16.95 -193.55 -16.95 -194.35 -15.8 -196.4 L-13.55 -199.7 -12.15 -200.05 M-12.6 -187.0 Q-14.0 -184.85 -15.3 -183.65 L-16.3 -185.6 -15.0 -188.95 Q-13.95 -190.25 -10.75 -189.95 L-12.6 -187.0 M-14.5 -175.2 Q-14.3 -174.55 -14.25 -173.25 L-14.2 -172.1 Q-14.2 -171.1 -14.85 -170.45 -15.3 -172.1 -15.3 -175.2 L-14.5 -175.2 M-86.35 -17.25 Q-84.05 -18.05 -81.15 -20.95 L-82.1 -21.95 -86.55 -22.05 Q-89.2 -21.35 -89.2 -19.0 L-89.15 -18.45 Q-89.8 -19.05 -91.15 -19.5 -93.0 -19.5 -93.95 -18.55 -93.95 -16.7 -91.15 -16.25 L-89.0 -17.45 Q-88.9 -17.0 -88.6 -17.0 L-86.35 -17.25 M-40.45 -82.05 L-41.3 -83.55 -40.65 -85.05 Q-40.35 -85.5 -39.5 -85.5 L-28.95 -84.0 -28.9 -84.0 Q-28.65 -86.0 -25.9 -86.7 -22.75 -87.55 -20.05 -85.65 L-21.6 -84.15 Q-23.15 -82.9 -25.9 -81.6 L-27.65 -81.45 Q-27.75 -80.3 -27.95 -80.15 L-28.3 -80.3 -39.2 -80.6 -40.45 -82.05 M-36.25 -64.0 Q-39.5 -60.8 -44.4 -60.8 -46.1 -60.8 -50.45 -61.85 L-53.6 -62.7 Q-56.65 -63.7 -58.2 -64.85 -58.1 -65.45 -54.9 -65.7 L-53.6 -65.75 -49.3 -65.8 Q-44.4 -65.8 -35.8 -69.9 -34.15 -69.25 -32.4 -68.1 L-36.25 -64.0 M-59.35 -81.45 L-62.95 -78.5 -63.7 -78.6 Q-64.65 -78.8 -65.7 -79.3 L-66.0 -78.8 Q-66.35 -78.7 -66.35 -80.75 -66.35 -84.05 -62.4 -85.2 -59.15 -86.1 -55.15 -85.3 -55.9 -84.4 -59.35 -81.45 M-46.5 -92.7 Q-43.5 -94.3 -40.0 -94.4 -40.0 -91.2 -41.4 -88.85 -43.15 -85.95 -46.35 -85.95 L-48.7 -86.25 -48.65 -86.6 -49.35 -87.05 Q-49.6 -87.25 -49.6 -89.2 -49.6 -91.1 -46.5 -92.7 M-79.0 -27.65 L-79.75 -28.0 Q-80.5 -28.15 -80.5 -26.15 -80.5 -24.2 -80.25 -24.0 -79.9 -24.05 -79.65 -23.55 L-74.0 -24.55 -73.8 -26.35 Q-74.65 -27.3 -79.0 -27.65 M-59.85 -27.85 L-57.75 -29.6 -63.55 -31.0 Q-68.35 -31.65 -72.2 -29.9 L-71.7 -28.0 -71.2 -26.35 -62.95 -26.35 Q-61.35 -26.75 -59.85 -27.85 M-53.9 -30.95 L-53.6 -31.1 -49.95 -33.3 -53.6 -34.5 Q-61.4 -36.85 -64.05 -35.9 L-64.05 -33.0 Q-63.2 -31.95 -61.65 -31.05 -59.55 -29.9 -57.4 -29.9 -56.2 -29.9 -53.9 -30.95" fill="#789445" fill-rule="evenodd" stroke="none"/>
    <path d="M-93.7 -45.35 L-90.2 -54.05 Q-82.45 -73.1 -76.4 -86.1 L-76.55 -85.8 -75.65 -88.9 Q-63.55 -89.1 -53.6 -96.35 -41.45 -105.2 -32.6 -124.55 -28.65 -129.7 -23.55 -137.95 -12.9 -155.3 -12.9 -159.75 -12.9 -161.9 -13.75 -163.1 L-15.65 -164.8 -16.95 -164.8 Q-18.3 -157.7 -24.95 -145.8 L-22.85 -154.25 Q-20.35 -165.5 -20.35 -170.3 -20.35 -187.75 -26.15 -211.15 L-27.2 -215.25 Q-31.1 -229.9 -38.85 -253.3 L-40.75 -259.05 -40.65 -259.05 Q-39.2 -259.7 -38.9 -260.65 -39.05 -264.85 -38.35 -272.7 L-37.6 -281.8 Q-37.6 -283.85 -38.25 -284.05 L-38.9 -283.9 Q-43.3 -281.65 -44.3 -277.5 L-44.5 -276.05 Q-45.45 -283.5 -43.25 -291.25 L-41.0 -298.75 Q-39.85 -302.9 -39.85 -306.0 -39.85 -308.0 -40.2 -308.35 L-41.3 -309.1 Q-45.9 -308.45 -48.9 -298.9 L-50.2 -294.0 Q-49.9 -302.8 -47.65 -312.45 L-45.05 -323.4 Q-45.05 -325.45 -45.3 -325.8 L-46.2 -326.45 Q-50.45 -324.85 -53.55 -314.45 L-55.15 -308.15 -55.4 -309.6 Q-53.8 -315.55 -50.8 -323.25 -42.7 -344.15 -41.65 -348.55 -50.0 -340.75 -57.35 -326.0 L-57.4 -327.95 Q-57.4 -343.4 -44.9 -365.6 L-40.05 -374.15 -18.05 -374.55 -19.75 -373.0 Q-22.8 -369.9 -22.8 -367.6 L-22.55 -364.95 -21.8 -364.0 -19.7 -364.35 Q-19.5 -366.7 -17.05 -370.4 L-14.3 -374.6 -7.35 -374.75 2.15 -375.6 -3.45 -363.55 Q-11.0 -345.85 -14.0 -328.55 -17.8 -331.85 -19.7 -331.5 L-20.5 -331.4 Q-21.0 -331.05 -21.0 -329.05 L-20.95 -328.6 -22.35 -328.9 Q-23.95 -328.85 -25.25 -325.8 L-18.55 -322.1 Q-17.5 -322.55 -16.95 -323.35 L-16.45 -324.4 -14.8 -323.3 -15.65 -314.55 -18.8 -314.0 Q-21.15 -313.0 -21.15 -310.55 L-17.3 -306.3 -15.95 -304.8 -15.8 -299.15 Q-22.45 -301.9 -22.45 -295.75 -22.45 -293.9 -19.7 -291.55 -17.8 -289.85 -15.2 -289.05 -14.7 -283.05 -13.8 -276.8 -16.15 -277.6 -17.85 -277.3 -20.7 -276.75 -20.7 -273.15 -18.75 -270.9 -15.95 -268.5 -13.85 -266.7 -11.95 -265.6 L-11.35 -262.6 Q-13.9 -263.75 -15.3 -263.75 L-15.6 -264.25 Q-15.95 -264.35 -15.95 -262.3 -15.95 -260.6 -12.85 -256.25 L-12.45 -255.7 Q-13.7 -254.85 -14.85 -253.0 L-9.4 -247.5 Q-8.5 -246.7 -7.55 -246.05 L-6.65 -242.65 -9.55 -242.25 Q-12.9 -241.45 -12.9 -239.7 -12.9 -237.8 -12.55 -236.8 L-12.25 -235.65 -4.05 -233.65 -1.25 -224.75 Q-4.7 -224.35 -5.55 -219.4 L0.45 -215.25 Q1.25 -214.6 2.2 -213.9 L2.6 -213.6 7.4 -199.85 Q3.65 -200.35 1.6 -196.45 L2.25 -194.05 9.1 -189.8 Q10.05 -189.2 11.0 -188.75 15.25 -174.65 15.25 -166.1 L15.15 -155.25 13.95 -157.35 Q12.25 -159.2 8.4 -157.8 8.3 -155.95 10.7 -153.85 12.15 -152.55 15.0 -150.85 L14.55 -138.45 Q13.45 -140.1 11.8 -140.9 L9.85 -140.55 Q10.1 -138.75 10.95 -136.15 12.15 -132.7 13.6 -131.0 L14.15 -131.15 13.5 -120.6 Q12.4 -104.25 11.1 -93.9 L8.85 -92.3 Q5.3 -89.45 5.3 -87.45 5.3 -85.5 5.65 -85.4 L5.95 -85.3 8.35 -85.3 Q6.9 -85.05 5.05 -84.2 1.6 -82.55 1.6 -80.75 1.6 -78.7 1.95 -78.8 L2.25 -79.3 4.75 -78.5 6.15 -78.35 Q7.35 -79.4 8.1 -80.9 L9.15 -82.4 8.4 -79.65 7.0 -75.6 Q5.1 -75.4 2.8 -74.4 -0.75 -72.9 -2.5 -71.2 L-1.2 -70.55 Q2.9 -71.0 5.7 -72.35 2.9 -65.6 -1.45 -57.95 L-1.5 -57.85 -1.7 -57.45 -3.95 -56.9 -3.8 -54.55 Q-7.7 -49.4 -13.85 -44.25 -22.1 -37.3 -29.6 -34.3 L-30.35 -34.5 Q-28.0 -36.9 -28.0 -38.05 -28.0 -40.1 -28.65 -40.25 L-29.3 -40.0 Q-30.25 -39.25 -32.4 -38.1 -40.4 -35.9 -41.65 -35.9 L-50.25 -36.3 -56.45 -36.75 -53.6 -37.5 Q-52.35 -37.95 -51.7 -38.35 -36.8 -48.5 -24.5 -60.75 -13.5 -71.75 -8.75 -80.35 -4.25 -83.6 -3.3 -86.6 L-4.6 -88.75 Q-6.75 -88.75 -15.75 -84.95 -24.7 -81.2 -25.55 -79.95 -23.8 -78.2 -21.9 -77.1 -19.85 -75.9 -18.55 -75.9 -16.95 -75.9 -14.45 -77.05 -22.0 -70.75 -32.15 -64.95 -39.5 -60.75 -47.3 -57.4 L-53.6 -57.45 -59.15 -57.25 -73.15 -56.4 Q-73.35 -57.2 -73.35 -53.95 -73.35 -52.0 -72.9 -51.85 L-72.5 -51.7 -65.85 -51.35 -64.65 -51.3 Q-70.4 -49.65 -76.4 -48.45 L-93.7 -45.35 M5.65 -172.1 Q6.05 -170.85 9.65 -169.15 12.2 -167.95 13.95 -167.4 L14.6 -170.45 Q13.5 -173.9 10.3 -173.95 7.55 -174.0 5.65 -172.1 M2.25 -182.15 Q4.6 -181.8 6.55 -180.45 8.25 -179.25 9.85 -179.25 11.9 -179.25 12.35 -180.15 L12.65 -181.85 Q11.0 -183.6 6.85 -184.9 3.65 -185.9 2.25 -185.9 L1.9 -183.8 2.25 -182.15 M4.0 -102.7 Q4.0 -104.95 3.25 -106.0 2.7 -106.85 1.25 -107.4 L-11.5 -101.6 Q-21.15 -96.75 -21.15 -94.75 -21.15 -88.9 -12.25 -88.9 -6.7 -88.9 -0.8 -95.7 4.0 -101.25 4.0 -102.7 M2.45 -132.65 Q3.35 -134.5 3.05 -137.3 1.85 -136.65 -0.5 -134.1 -2.95 -131.4 -2.95 -130.5 -2.95 -128.45 -2.55 -128.45 L-2.15 -128.85 Q1.3 -130.15 2.45 -132.65 M1.1 -124.1 Q0.85 -124.15 0.6 -123.85 -1.3 -123.6 -4.65 -121.6 -8.95 -119.05 -9.8 -116.2 L-8.85 -114.75 Q-8.2 -114.1 -6.2 -114.1 -4.05 -114.1 -1.15 -117.2 1.6 -120.15 1.6 -121.9 1.6 -123.95 1.1 -124.1 M1.75 -143.2 L2.55 -142.7 Q3.7 -143.35 4.0 -144.3 3.1 -144.95 2.05 -145.0 L0.95 -144.95 Q0.95 -143.95 1.75 -143.2 M9.9 -85.85 L9.8 -85.35 8.9 -85.35 9.9 -85.85 M-24.7 -347.55 L-27.2 -347.25 -27.65 -343.7 Q-27.65 -343.25 -26.95 -342.7 -26.15 -342.05 -24.6 -341.6 L-20.75 -342.85 Q-17.8 -343.85 -16.6 -344.85 L-17.4 -346.4 -17.9 -347.6 Q-22.0 -347.8 -24.7 -347.55 M-14.5 -175.2 L-15.3 -175.2 Q-15.3 -172.1 -14.85 -170.45 -14.2 -171.1 -14.2 -172.1 L-14.25 -173.25 Q-14.3 -174.55 -14.5 -175.2 M-12.6 -187.0 L-10.75 -189.95 Q-13.95 -190.25 -15.0 -188.95 L-16.3 -185.6 -15.3 -183.65 Q-14.0 -184.85 -12.6 -187.0 M-12.15 -200.05 L-13.55 -199.7 -15.8 -196.4 Q-16.95 -194.35 -16.95 -193.55 -16.95 -191.55 -16.45 -191.4 L-14.85 -191.25 -12.85 -192.3 -11.75 -192.9 -11.1 -195.0 Q-10.75 -196.05 -10.75 -197.95 -10.75 -200.0 -12.15 -200.05 M-11.4 -204.9 Q-11.4 -207.0 -11.9 -207.4 -12.25 -207.7 -13.55 -208.0 -13.55 -205.75 -15.25 -204.9 -16.95 -204.0 -16.95 -203.45 L-16.75 -200.55 -16.6 -199.4 -14.2 -199.4 -12.2 -201.65 Q-11.4 -202.8 -11.4 -204.9 M-19.0 -215.35 L-19.05 -215.25 Q-20.15 -212.5 -20.7 -211.75 L-20.05 -207.7 -18.25 -207.7 -16.1 -210.0 Q-15.15 -211.15 -15.15 -213.2 L-15.25 -215.25 -15.5 -216.35 -16.6 -217.75 Q-18.3 -217.2 -19.0 -215.35 M-16.65 -232.6 L-18.55 -233.5 Q-20.15 -232.3 -22.0 -228.95 -23.75 -225.9 -23.75 -224.9 -23.75 -223.95 -23.1 -222.5 -22.15 -220.45 -20.35 -218.75 -19.55 -219.4 -15.95 -229.8 -15.95 -231.95 -16.65 -232.6 M-23.45 -248.15 Q-23.45 -250.2 -23.75 -250.1 L-24.1 -249.6 Q-26.85 -248.4 -28.6 -244.3 -29.95 -241.15 -29.95 -239.05 -29.95 -236.95 -29.35 -236.05 L-28.3 -235.0 -25.5 -240.95 Q-23.45 -245.85 -23.45 -248.15 M-86.35 -17.25 L-88.6 -17.0 Q-88.9 -17.0 -89.0 -17.45 L-91.15 -16.25 Q-93.95 -16.7 -93.95 -18.55 -93.0 -19.5 -91.15 -19.5 -89.8 -19.05 -89.15 -18.45 L-89.2 -19.0 Q-89.2 -21.35 -86.55 -22.05 L-82.1 -21.95 -81.15 -20.95 Q-84.05 -18.05 -86.35 -17.25 M-36.25 -64.0 L-32.4 -68.1 Q-34.15 -69.25 -35.8 -69.9 -44.4 -65.8 -49.3 -65.8 L-53.6 -65.75 -54.9 -65.7 Q-58.1 -65.45 -58.2 -64.85 -56.65 -63.7 -53.6 -62.7 L-50.45 -61.85 Q-46.1 -60.8 -44.4 -60.8 -39.5 -60.8 -36.25 -64.0 M-40.45 -82.05 L-39.2 -80.6 -28.3 -80.3 -27.95 -80.15 Q-27.75 -80.3 -27.65 -81.45 L-25.9 -81.6 Q-23.15 -82.9 -21.6 -84.15 L-20.05 -85.65 Q-22.75 -87.55 -25.9 -86.7 -28.65 -86.0 -28.9 -84.0 L-28.95 -84.0 -39.5 -85.5 Q-40.35 -85.5 -40.65 -85.05 L-41.3 -83.55 -40.45 -82.05 M-0.85 -65.8 L-9.05 -66.3 Q-10.9 -66.3 -11.4 -65.8 L-11.75 -63.85 -11.25 -62.3 -10.75 -61.1 -2.5 -61.1 Q-1.2 -61.8 -0.35 -63.15 0.3 -64.25 0.3 -65.15 -0.4 -65.35 -0.7 -65.6 L-0.85 -65.8 M-46.5 -92.7 Q-49.6 -91.1 -49.6 -89.2 -49.6 -87.25 -49.35 -87.05 L-48.65 -86.6 -48.7 -86.25 -46.35 -85.95 Q-43.15 -85.95 -41.4 -88.85 -40.0 -91.2 -40.0 -94.4 -43.5 -94.3 -46.5 -92.7 M-59.35 -81.45 Q-55.9 -84.4 -55.15 -85.3 -59.15 -86.1 -62.4 -85.2 -66.35 -84.05 -66.35 -80.75 -66.35 -78.7 -66.0 -78.8 L-65.7 -79.3 Q-64.65 -78.8 -63.7 -78.6 L-62.95 -78.5 -59.35 -81.45 M-53.9 -30.95 Q-56.2 -29.9 -57.4 -29.9 -59.55 -29.9 -61.65 -31.05 -63.2 -31.95 -64.05 -33.0 L-64.05 -35.9 Q-61.4 -36.85 -53.6 -34.5 L-49.95 -33.3 -53.6 -31.1 -53.9 -30.95 M-59.85 -27.85 Q-61.35 -26.75 -62.95 -26.35 L-71.2 -26.35 -71.7 -28.0 -72.2 -29.9 Q-68.35 -31.65 -63.55 -31.0 L-57.75 -29.6 -59.85 -27.85 M-79.0 -27.65 Q-74.65 -27.3 -73.8 -26.35 L-74.0 -24.55 -79.65 -23.55 Q-79.9 -24.05 -80.25 -24.0 -80.5 -24.2 -80.5 -26.15 -80.5 -28.15 -79.75 -28.0 L-79.0 -27.65" fill="#5b7b44" fill-rule="evenodd" stroke="none"/>
  </g>
</svg>
