<?xml version="1.0" encoding="UTF-8" standalone="no"?>
<svg xmlns:ffdec="https://www.free-decompiler.com/flash" xmlns:xlink="http://www.w3.org/1999/xlink" ffdec:objectType="shape" height="52.8px" width="982.8px" xmlns="http://www.w3.org/2000/svg">
  <g transform="matrix(1.0, 0.0, 0.0, 1.0, -143.05, -640.25)">
    <path d="M740.55 673.2 L724.6 673.2 705.25 672.45 672.45 669.95 639.65 669.65 636.2 669.6 625.0 670.3 Q603.9 670.45 584.85 670.2 L576.05 670.1 559.05 671.6 531.65 671.6 Q551.1 665.25 554.15 660.4 542.9 663.9 515.25 670.65 L511.4 671.6 485.45 671.6 494.05 670.15 Q498.85 669.2 499.9 668.0 494.85 664.1 490.05 665.9 487.05 667.05 483.15 671.25 L483.5 671.6 423.2 671.6 413.55 670.05 412.45 670.0 Q406.15 669.75 400.6 669.95 L361.1 669.95 339.4 665.85 338.45 665.65 326.25 666.05 304.9 666.7 271.1 665.4 258.1 664.55 262.15 663.65 Q261.8 663.1 260.55 662.4 L259.4 661.7 Q252.15 660.3 241.2 663.15 L223.8 661.35 Q163.5 654.3 163.5 643.65 163.5 640.6 172.65 641.1 L201.3 644.3 Q203.55 643.15 207.15 642.45 212.6 641.35 229.15 640.55 L229.15 640.25 276.6 640.25 339.95 645.45 Q387.4 649.1 415.2 648.2 L449.5 648.2 Q464.4 650.65 486.8 649.3 L515.5 646.9 688.4 646.55 710.35 645.2 733.25 644.3 Q751.75 644.3 778.1 648.2 804.45 652.1 810.9 652.1 L830.95 650.65 865.85 648.85 905.75 647.45 923.85 646.55 985.25 648.2 1028.15 649.55 Q1055.1 646.55 1065.05 646.55 L1091.9 647.45 Q1117.75 648.55 1125.5 649.8 L1125.85 650.8 1120.0 651.8 1118.8 650.65 Q1117.85 649.85 1117.85 649.5 L1098.1 648.35 Q1091.55 648.2 1089.9 649.15 1090.5 649.75 1090.85 651.05 1091.2 652.15 1092.05 652.65 1094.35 654.0 1104.9 654.2 1080.35 657.9 1057.0 660.4 L1035.85 662.5 1032.6 661.15 Q1029.9 660.05 1027.85 660.7 1028.55 661.95 1029.8 663.05 970.8 668.15 906.15 668.65 L873.15 668.65 775.7 672.8 772.9 672.85 782.45 670.6 781.65 669.65 772.1 669.4 Q764.35 670.05 760.55 673.2 L761.2 674.15 759.05 674.2 758.25 673.9 757.85 673.55 757.2 673.55 Q750.15 671.15 745.75 671.25 741.9 671.3 740.55 673.2 M771.25 674.2 L767.55 674.1 772.45 672.95 771.25 674.2 M815.7 667.25 Q812.2 666.4 810.4 666.4 L810.4 668.35 Q811.2 669.1 813.15 669.7 L817.55 670.3 820.25 669.95 821.0 669.3 820.65 668.65 815.7 667.25 M912.3 666.05 L913.2 666.4 916.55 666.7 Q918.55 666.7 918.7 666.1 918.5 665.25 918.65 664.75 917.35 662.55 917.35 661.7 914.75 660.7 912.3 660.7 L911.65 663.8 912.0 664.85 912.3 666.05 M654.1 668.35 L656.45 668.05 656.35 667.7 656.35 665.75 Q653.0 662.2 647.35 663.6 644.45 664.3 640.45 666.7 649.95 668.35 654.1 668.35 M606.5 669.0 Q605.5 666.15 605.5 665.4 600.55 664.85 598.7 666.7 598.7 667.25 599.2 668.65 L599.65 670.3 Q605.6 670.3 606.5 669.0 M357.65 660.1 Q356.6 660.35 356.05 660.7 356.4 661.7 358.5 662.35 361.75 662.0 362.4 661.05 362.0 660.45 360.2 660.05 L358.5 659.75 357.65 660.1" fill="#b6bb73" fill-rule="evenodd" stroke="none"/>
    <path d="M531.65 671.6 L529.15 672.4 518.85 675.25 600.95 674.85 611.7 673.9 622.4 672.9 659.3 672.9 Q668.7 675.2 700.75 675.85 L719.5 676.55 727.55 676.3 731.2 676.4 Q731.75 674.9 733.5 674.3 L740.05 674.05 Q740.25 673.55 740.55 673.2 741.9 671.3 745.75 671.25 750.15 671.15 757.2 673.55 L758.25 673.9 759.05 674.2 761.2 674.15 760.55 673.2 Q764.35 670.05 772.1 669.4 L781.65 669.65 782.45 670.6 772.9 672.85 772.45 672.95 767.55 674.1 771.25 674.2 771.9 674.2 773.1 675.45 773.5 675.8 774.85 675.9 Q780.4 676.5 784.65 678.05 L903.3 674.15 1010.95 670.95 1016.05 671.5 1019.9 672.55 1020.55 674.7 Q1006.45 679.1 925.25 683.35 L779.4 690.75 730.65 690.75 695.55 689.5 Q669.1 689.35 657.65 686.85 L623.7 686.85 613.15 687.85 602.6 688.8 495.65 689.15 441.55 691.75 394.1 692.4 388.1 693.05 372.9 691.9 346.3 689.8 299.05 689.8 296.45 690.45 211.95 690.45 176.1 685.15 Q155.5 681.8 144.0 681.2 L143.55 680.65 Q143.05 680.05 143.05 678.1 143.05 669.85 167.95 671.3 181.9 672.15 210.95 676.0 L296.1 676.0 299.05 675.35 346.5 675.35 372.9 677.45 387.9 678.6 394.1 677.95 441.2 677.3 462.6 676.1 Q482.25 675.35 495.65 675.35 L497.5 675.35 511.4 671.6 515.25 670.65 Q542.9 663.9 554.15 660.4 551.1 665.25 531.65 671.6 M1029.8 663.05 Q1028.55 661.95 1027.85 660.7 1029.9 660.05 1032.6 661.15 L1035.85 662.5 1039.45 664.0 Q1052.4 668.5 1076.45 667.05 L1079.15 667.75 Q1081.25 668.4 1081.65 669.0 1081.2 669.65 1075.05 670.35 L1066.5 670.95 Q1051.7 670.95 1041.2 668.2 1033.3 666.15 1029.8 663.05 M1104.9 654.2 Q1094.35 654.0 1092.05 652.65 1091.2 652.15 1090.85 651.05 1090.5 649.75 1089.9 649.15 1091.55 648.2 1098.1 648.35 L1117.85 649.5 Q1117.85 649.85 1118.8 650.65 L1120.0 651.8 1120.3 652.1 Q1119.2 652.9 1114.75 653.6 L1107.95 654.2 1104.9 654.2 M241.2 663.15 Q252.15 660.3 259.4 661.7 L260.55 662.4 Q261.8 663.1 262.15 663.65 L258.1 664.55 Q253.25 665.8 243.6 668.9 230.55 673.1 221.85 672.25 L221.5 671.25 Q225.65 667.8 237.3 664.25 L241.2 663.15 M483.5 671.6 L483.15 671.25 Q487.05 667.05 490.05 665.9 494.85 664.1 499.9 668.0 498.85 669.2 494.05 670.15 L485.45 671.6 483.8 671.9 483.5 671.6 M654.1 668.35 Q649.95 668.35 640.45 666.7 644.45 664.3 647.35 663.6 653.0 662.2 656.35 665.75 L656.35 667.7 656.45 668.05 654.1 668.35 M912.3 666.05 L912.0 664.85 911.65 663.8 912.3 660.7 Q914.75 660.7 917.35 661.7 917.35 662.55 918.65 664.75 918.5 665.25 918.7 666.1 918.55 666.7 916.55 666.7 L913.2 666.4 912.3 666.05 M815.7 667.25 L820.65 668.65 821.0 669.3 820.25 669.95 817.55 670.3 813.15 669.7 Q811.2 669.1 810.4 668.35 L810.4 666.4 Q812.2 666.4 815.7 667.25 M357.65 660.1 L358.5 659.75 360.2 660.05 Q362.0 660.45 362.4 661.05 361.75 662.0 358.5 662.35 356.4 661.7 356.05 660.7 356.6 660.35 357.65 660.1 M606.5 669.0 Q605.6 670.3 599.65 670.3 L599.2 668.65 Q598.7 667.25 598.7 666.7 600.55 664.85 605.5 665.4 605.5 666.15 606.5 669.0" fill="#cfd297" fill-rule="evenodd" stroke="none"/>
  </g>
</svg>
