<?xml version="1.0" encoding="UTF-8" standalone="no"?>
<svg xmlns:ffdec="https://www.free-decompiler.com/flash" xmlns:xlink="http://www.w3.org/1999/xlink" ffdec:objectType="shape" height="29.0px" width="32.95px" xmlns="http://www.w3.org/2000/svg">
  <g transform="matrix(1.0, 0.0, 0.0, 1.0, -2.3, -3.0)">
    <path d="M33.0 3.4 L27.75 3.4 26.55 3.3 25.45 3.2 24.15 3.4 23.95 3.5 22.75 3.5 22.75 3.4 15.25 3.35 15.05 3.45 14.85 3.45 13.95 3.3 Q11.95 3.2 9.3 4.0 7.75 4.45 6.55 5.0 L6.3 5.1 Q8.95 3.0 14.1 3.0 L32.85 3.0 33.0 3.4 M3.5 10.6 L3.65 10.6 3.7 10.6 4.4 10.3 Q3.75 12.8 3.75 15.25 L3.85 19.2 3.85 19.3 3.4 19.1 3.4 12.2 3.5 10.6 M3.9 26.4 L5.4 28.0 Q9.4 31.9 15.15 31.9 15.75 31.9 16.0 31.2 L19.5 31.1 19.7 31.1 19.8 30.95 Q20.35 31.35 21.55 31.4 L22.75 31.35 22.75 31.25 Q28.55 30.35 31.2 28.45 L32.45 27.25 32.65 27.1 Q31.15 30.6 26.8 31.6 L29.9 31.9 31.85 31.85 31.8 32.0 14.1 32.0 Q5.7 32.0 3.9 26.4 M34.45 26.55 L33.1 26.55 33.15 26.5 Q33.95 25.5 34.95 20.35 L35.15 19.35 35.0 24.55 34.45 26.55 M35.15 18.85 L34.95 17.95 Q34.7 17.5 34.2 17.8 L33.95 15.15 33.9 14.35 33.6 11.85 33.45 10.85 33.3 10.6 32.25 8.85 32.85 8.55 32.9 8.5 Q33.3 8.15 33.3 7.7 L33.3 7.5 34.45 7.5 Q35.25 10.9 35.25 15.0 L35.15 18.85 M27.15 6.0 L26.55 5.8 27.0 5.85 27.15 6.0 M12.45 6.8 L12.5 6.75 12.45 6.6 12.65 6.6 Q13.2 6.15 13.8 6.45 L13.8 6.55 13.85 6.8 14.05 6.75 14.1 6.8 17.25 6.6 18.15 6.7 18.35 6.45 18.45 6.45 18.35 6.4 18.35 6.35 19.05 6.35 21.55 6.45 21.85 6.5 22.1 6.5 22.75 6.5 22.75 6.6 23.75 6.6 24.3 6.65 24.35 6.75 26.9 7.55 28.5 8.25 29.7 9.0 29.85 8.85 29.7 8.6 Q31.7 11.5 31.7 15.7 L31.05 21.95 30.55 22.55 29.45 24.35 26.55 26.05 25.45 26.55 12.95 26.55 12.35 26.45 12.1 26.25 8.8 25.5 6.6 24.5 6.3 24.3 Q5.75 22.65 5.5 20.65 5.35 19.5 5.35 17.15 L5.35 14.55 5.4 13.4 5.45 13.15 5.4 12.85 Q5.4 12.55 5.55 12.2 6.1 10.95 8.45 9.15 10.35 7.7 11.65 7.65 L12.05 7.2 12.1 7.15 12.45 6.8 M31.65 24.65 Q31.65 25.3 31.1 26.55 L31.05 26.65 30.9 26.7 Q30.25 27.65 28.25 28.8 26.0 30.05 23.65 30.45 L23.6 30.5 23.25 30.5 22.75 30.55 22.75 30.5 21.75 30.5 21.75 30.45 15.3 30.05 15.1 30.0 15.0 29.7 15.35 29.4 17.1 29.15 20.55 28.85 23.25 28.7 23.3 28.75 Q25.75 27.9 26.55 27.8 27.85 27.65 29.0 26.55 L30.0 25.7 30.15 25.3 Q30.65 24.15 31.4 23.85 L31.65 24.65 M18.4 28.55 L18.55 28.55 18.45 28.6 18.4 28.55" fill="#40414d" fill-rule="evenodd" stroke="none"/>
    <path d="M33.65 5.0 L31.65 5.0 Q32.2 5.35 32.6 5.8 33.25 6.55 33.3 7.5 L33.3 7.7 Q33.3 8.15 32.9 8.5 L32.85 8.55 32.25 8.85 33.3 10.6 33.45 10.85 33.6 11.85 33.9 14.35 33.95 15.15 34.2 17.8 Q34.7 17.5 34.95 17.95 L35.15 18.85 35.15 19.35 34.95 20.35 Q33.95 25.5 33.15 26.5 L33.1 26.55 34.45 26.55 32.55 30.55 31.85 31.85 29.9 31.9 26.8 31.6 Q31.15 30.6 32.65 27.1 L32.45 27.25 31.2 28.45 Q28.55 30.35 22.75 31.25 L22.75 31.35 21.55 31.4 Q20.35 31.35 19.8 30.95 L19.7 31.1 19.5 31.1 16.0 31.2 Q15.75 31.9 15.15 31.9 9.4 31.9 5.4 28.0 L3.9 26.4 Q2.3 24.4 2.3 22.8 L2.55 21.4 2.4 20.15 Q2.4 19.45 3.05 19.15 L3.4 19.1 3.85 19.3 3.85 19.2 3.75 15.25 Q3.75 12.8 4.4 10.3 L3.7 10.6 3.65 10.6 3.5 10.6 Q2.5 10.55 2.5 9.6 2.5 7.6 4.65 6.1 L6.3 5.1 6.55 5.0 Q7.75 4.45 9.3 4.0 11.95 3.2 13.95 3.3 L14.85 3.45 15.05 3.45 15.25 3.35 22.75 3.4 22.75 3.5 23.95 3.5 24.15 3.4 25.45 3.2 26.55 3.3 27.75 3.4 33.0 3.4 33.65 5.0 M26.55 5.8 L24.2 5.25 24.05 5.2 22.75 5.0 21.85 5.0 21.05 4.95 20.75 5.0 Q14.7 4.25 10.4 5.65 8.4 6.35 7.6 7.0 6.0 8.0 6.0 8.85 6.0 9.25 6.15 9.45 5.7 10.0 5.7 10.5 L5.65 11.3 5.55 12.2 Q5.4 12.55 5.4 12.85 L5.45 13.15 5.4 13.4 5.35 14.55 5.35 17.15 Q5.35 19.5 5.5 20.65 5.75 22.65 6.3 24.3 L6.6 24.5 8.8 25.5 12.1 26.25 12.35 26.45 12.95 26.55 25.45 26.55 26.55 26.05 29.45 24.35 30.55 22.55 31.05 21.95 31.7 15.7 Q31.7 11.5 29.7 8.6 L29.7 8.55 Q28.85 7.2 28.0 6.5 L27.15 6.0 27.0 5.85 26.55 5.8 M31.65 24.65 L31.4 23.85 Q30.65 24.15 30.15 25.3 L30.0 25.7 29.0 26.55 Q27.85 27.65 26.55 27.8 25.75 27.9 23.3 28.75 L23.25 28.7 20.55 28.85 17.1 29.15 15.35 29.4 15.0 29.7 15.1 30.0 15.3 30.05 21.75 30.45 21.75 30.5 22.75 30.5 22.75 30.55 23.25 30.5 23.6 30.5 23.65 30.45 Q26.0 30.05 28.25 28.8 30.25 27.65 30.9 26.7 L31.05 26.65 31.1 26.55 Q31.65 25.3 31.65 24.65 M6.65 8.65 L6.8 8.5 6.75 8.6 6.65 8.65 M18.4 28.55 L18.45 28.6 18.55 28.55 18.4 28.55" fill="#30313a" fill-rule="evenodd" stroke="none"/>
    <path d="M32.6 5.8 Q32.2 5.35 31.65 5.0 L33.65 5.0 34.0 5.95 32.6 5.8 M26.55 5.8 L27.15 6.0 28.0 6.5 Q28.85 7.2 29.7 8.55 L29.7 8.6 29.85 8.85 29.7 9.0 28.5 8.25 26.9 7.55 24.35 6.75 24.3 6.65 23.75 6.6 22.75 6.6 22.75 6.5 22.1 6.5 21.85 6.5 21.8 6.45 21.55 6.45 19.05 6.35 18.35 6.35 17.85 6.05 17.55 6.05 Q16.3 5.6 15.25 5.65 13.95 5.75 13.95 6.35 L13.95 6.5 13.8 6.55 13.8 6.45 Q13.2 6.15 12.65 6.6 L12.45 6.6 12.5 6.75 12.45 6.8 12.4 6.6 12.15 6.6 Q12.0 6.3 11.45 6.3 9.8 6.3 7.9 7.7 L7.2 8.3 Q6.5 8.9 6.15 9.45 6.0 9.25 6.0 8.85 6.0 8.0 7.6 7.0 8.4 6.35 10.4 5.65 14.7 4.25 20.75 5.0 L21.05 4.95 21.85 5.0 22.75 5.0 24.05 5.2 24.2 5.25 26.55 5.8 M6.65 8.65 L6.75 8.6 6.8 8.5 6.65 8.65" fill="#636476" fill-rule="evenodd" stroke="none"/>
    <path d="M32.6 5.8 L34.0 5.95 34.45 7.5 33.3 7.5 Q33.25 6.55 32.6 5.8 M6.15 9.45 Q6.5 8.9 7.2 8.3 L7.9 7.7 Q9.8 6.3 11.45 6.3 12.0 6.3 12.15 6.6 L12.4 6.6 12.45 6.8 12.1 7.15 12.05 7.2 11.65 7.65 Q10.35 7.7 8.45 9.15 6.1 10.95 5.55 12.2 L5.65 11.3 5.7 10.5 Q5.7 10.0 6.15 9.45 M13.8 6.55 L13.95 6.5 13.95 6.35 Q13.95 5.75 15.25 5.65 16.3 5.6 17.55 6.05 L17.85 6.05 18.35 6.35 18.35 6.4 18.45 6.45 18.35 6.45 18.15 6.7 17.25 6.6 14.1 6.8 14.05 6.75 13.85 6.8 13.8 6.55 M21.55 6.45 L21.8 6.45 21.85 6.5 21.55 6.45" fill="#9697a7" fill-rule="evenodd" stroke="none"/>
  </g>
</svg>
