<?xml version="1.0" encoding="UTF-8" standalone="no"?>
<svg xmlns:ffdec="https://www.free-decompiler.com/flash" xmlns:xlink="http://www.w3.org/1999/xlink" ffdec:objectType="shape" height="62.0px" width="90.0px" xmlns="http://www.w3.org/2000/svg">
  <g transform="matrix(1.0, 0.0, 0.0, 1.0, -196.85, -146.9)">
    <path d="M220.65 147.2 Q226.6 146.9 238.3 146.9 L246.35 146.9 Q262.7 146.9 275.3 148.65 282.1 149.65 284.45 157.8 285.5 161.65 286.15 167.25 286.85 172.95 286.8 177.85 L286.85 177.9 286.4 186.45 286.15 188.55 Q285.5 194.1 284.45 197.95 282.3 205.65 275.3 207.1 L263.0 208.55 Q256.95 208.9 245.35 208.9 L237.3 208.9 Q221.3 208.9 208.35 207.1 201.55 206.1 199.2 197.95 198.15 194.1 197.5 188.55 197.05 184.7 196.9 181.25 L196.85 177.9 196.85 177.85 Q196.8 172.95 197.5 167.25 198.15 161.65 199.2 157.8 201.45 150.1 208.35 148.65 213.65 147.6 220.65 147.2" fill="url(#gradient0)" fill-rule="evenodd" stroke="none"/>
  </g>
  <defs>
    <linearGradient gradientTransform="matrix(0.0, 0.0392, -0.0382, 0.0, 241.85, 177.9)" gradientUnits="userSpaceOnUse" id="gradient0" spreadMethod="pad" x1="-819.2" x2="819.2">
      <stop offset="0.0" stop-color="#3e3d3d"/>
      <stop offset="0.7450980392156863" stop-color="#131313"/>
    </linearGradient>
  </defs>
</svg>
