<?xml version="1.0" encoding="UTF-8" standalone="no"?>
<svg xmlns:ffdec="https://www.free-decompiler.com/flash" xmlns:xlink="http://www.w3.org/1999/xlink" ffdec:objectType="shape" height="232.05px" width="47.75px" xmlns="http://www.w3.org/2000/svg">
  <g transform="matrix(1.0, 0.0, 0.0, 1.0, -33.6, -283.4)">
    <path d="M34.25 284.65 L33.6 283.75 33.85 283.4 34.25 284.65 M79.85 291.1 Q80.25 290.8 80.6 290.6 L79.8 291.25 79.85 291.1 M33.7 357.85 L33.95 357.5 34.35 358.75 34.35 358.8 33.7 357.85 M80.55 440.45 L80.6 440.35 81.35 439.8 80.55 440.45 M80.55 365.45 L80.6 365.35 81.35 364.8 80.55 365.45 M34.35 433.8 L33.7 432.85 33.95 432.5 34.35 433.75 34.35 433.8 M80.55 515.45 L80.6 515.35 81.35 514.8 80.55 515.45 M34.45 508.95 L33.7 507.85 33.95 507.5 34.35 508.75 34.45 508.95" fill="#ff0000" fill-rule="evenodd" stroke="none"/>
  </g>
</svg>
