<?xml version="1.0" encoding="UTF-8" standalone="no"?>
<svg xmlns:ffdec="https://www.free-decompiler.com/flash" xmlns:xlink="http://www.w3.org/1999/xlink" ffdec:objectType="shape" height="1168.2px" width="1926.7px" xmlns="http://www.w3.org/2000/svg">
  <g transform="matrix(1.0, 0.0, 0.0, 1.0, -255.9, 825.05)">
    <path d="M2182.6 -86.35 L2164.0 343.15 263.4 297.35 263.7 54.4 1489.5 -128.95 2182.6 -86.35" fill="#424242" fill-rule="evenodd" stroke="none"/>
    <path d="M1449.0 -340.15 L328.05 -53.5 255.9 -627.5 691.3 -791.2 1213.05 -825.05 1894.5 -743.3 1895.55 -660.6 1850.45 -442.8 1474.85 -346.75 Q1486.95 -356.25 1486.95 -357.8 1486.95 -358.7 1490.85 -360.15 1495.15 -361.75 1495.95 -363.0 1495.7 -363.35 1494.1 -363.6 L1491.75 -363.75 1493.4 -365.8 Q1493.25 -366.9 1491.35 -368.6 L1497.95 -373.55 Q1501.65 -376.15 1501.65 -378.9 1501.65 -380.45 1499.0 -380.85 L1495.95 -381.0 1495.95 -380.05 1496.7 -379.4 1497.65 -378.75 Q1493.8 -375.7 1480.7 -362.3 1470.75 -352.2 1460.6 -346.65 L1460.05 -347.6 Q1465.9 -352.65 1452.5 -355.1 1435.8 -357.05 1432.1 -358.75 L1418.6 -364.25 Q1408.15 -368.45 1404.8 -370.3 L1399.1 -370.55 Q1397.2 -370.55 1396.5 -368.3 1396.1 -366.95 1396.1 -364.3 1396.1 -360.8 1408.55 -357.35 1415.05 -355.55 1424.3 -353.6 1432.35 -350.9 1437.3 -347.9 1443.75 -343.95 1448.5 -341.9 1448.5 -341.05 1449.0 -340.15 M1442.55 -348.6 Q1439.9 -350.85 1437.8 -351.9 1438.55 -351.85 1441.35 -350.6 1445.4 -349.45 1452.8 -349.5 L1452.55 -348.85 1452.25 -348.55 Q1446.6 -348.2 1446.0 -347.5 1446.35 -346.65 1446.0 -346.2 1444.95 -346.55 1442.55 -348.6 M1492.85 -361.65 Q1492.75 -361.25 1490.55 -361.0 L1488.35 -360.8 1488.75 -361.5 Q1489.15 -362.0 1491.05 -362.1 L1493.05 -361.95 1492.85 -361.65 M1499.2 -381.9 Q1499.0 -381.05 1500.45 -380.6 1501.65 -381.05 1501.95 -382.65 1501.8 -383.7 1500.45 -384.15 L1498.65 -383.0 1497.05 -381.75 1499.2 -381.9 M1455.55 -341.8 L1453.9 -341.4 1452.9 -341.75 1452.65 -341.9 1455.55 -341.8" fill="#494949" fill-rule="evenodd" stroke="none"/>
    <path d="M1474.85 -346.75 L1474.5 -346.5 Q1461.1 -336.0 1455.35 -336.0 1453.4 -336.0 1451.0 -337.9 1449.6 -339.05 1449.0 -340.15 1448.5 -341.05 1448.5 -341.9 1443.75 -343.95 1437.3 -347.9 1432.35 -350.9 1424.3 -353.6 1415.05 -355.55 1408.55 -357.35 1396.1 -360.8 1396.1 -364.3 1396.1 -366.95 1396.5 -368.3 1397.2 -370.55 1399.1 -370.55 L1404.8 -370.3 Q1408.15 -368.45 1418.6 -364.25 L1432.1 -358.75 Q1435.8 -357.05 1452.5 -355.1 1465.9 -352.65 1460.05 -347.6 L1460.6 -346.65 Q1470.75 -352.2 1480.7 -362.3 1493.8 -375.7 1497.65 -378.75 L1496.7 -379.4 1495.95 -380.05 1495.95 -381.0 1499.0 -380.85 Q1501.65 -380.45 1501.65 -378.9 1501.65 -376.15 1497.95 -373.55 L1491.35 -368.6 Q1493.25 -366.9 1493.4 -365.8 L1491.75 -363.75 1494.1 -363.6 Q1495.7 -363.35 1495.95 -363.0 1495.15 -361.75 1490.85 -360.15 1486.95 -358.7 1486.95 -357.8 1486.95 -356.25 1474.85 -346.75 M1499.2 -381.9 L1497.05 -381.75 1498.65 -383.0 1500.45 -384.15 Q1501.8 -383.7 1501.95 -382.65 1501.65 -381.05 1500.45 -380.6 1499.0 -381.05 1499.2 -381.9 M1492.85 -361.65 L1493.05 -361.95 1491.05 -362.1 Q1489.15 -362.0 1488.75 -361.5 L1488.35 -360.8 1490.55 -361.0 Q1492.75 -361.25 1492.85 -361.65 M1442.55 -348.6 Q1444.95 -346.55 1446.0 -346.2 1446.35 -346.65 1446.0 -347.5 1446.6 -348.2 1452.25 -348.55 L1452.55 -348.85 1452.8 -349.5 Q1445.4 -349.45 1441.35 -350.6 1438.55 -351.85 1437.8 -351.9 1439.9 -350.85 1442.55 -348.6 M1453.9 -341.4 L1454.25 -341.3 Q1456.2 -340.45 1457.6 -340.95 L1459.85 -341.7 1455.55 -341.8 1452.65 -341.9 1452.9 -341.75 1453.9 -341.4" fill="#5c4d2f" fill-rule="evenodd" stroke="none"/>
  </g>
</svg>
