<?xml version="1.0" encoding="UTF-8" standalone="no"?>
<svg xmlns:ffdec="https://www.free-decompiler.com/flash" xmlns:xlink="http://www.w3.org/1999/xlink" ffdec:objectType="shape" height="69.05px" width="685.4px" xmlns="http://www.w3.org/2000/svg">
  <g transform="matrix(1.0, 0.0, 0.0, 1.0, -646.4, -1115.75)">
    <path d="M1314.8 1127.45 L1316.25 1127.15 1316.3 1127.0 1322.3 1127.1 1329.3 1127.25 1330.55 1127.75 1331.45 1128.6 1331.8 1129.25 1331.45 1129.95 1330.55 1130.75 1329.3 1131.25 1322.3 1131.6 1317.55 1132.0 1316.3 1132.5 1305.8 1133.0 1297.9 1135.3 1289.75 1137.8 1283.3 1139.65 1274.55 1141.0 1273.3 1141.5 1265.8 1142.2 1264.3 1142.5 1261.3 1143.5 1250.55 1144.0 1249.05 1144.8 1248.3 1145.25 1247.3 1145.45 1244.3 1145.7 1241.3 1146.25 1236.55 1146.75 1235.25 1147.25 1233.55 1147.8 1229.3 1149.3 1227.3 1149.2 1227.15 1149.2 1227.0 1149.5 1226.8 1150.05 1226.25 1150.2 1219.55 1151.05 1220.1 1151.5 Q1224.35 1152.9 1228.05 1155.3 L1230.3 1155.55 Q1233.05 1155.95 1233.8 1158.35 L1233.8 1159.05 1233.5 1159.5 1233.25 1159.7 1232.3 1160.05 1230.75 1159.65 1225.8 1158.8 Q1225.3 1158.4 1224.7 1158.15 L1214.3 1153.55 1212.3 1153.3 1210.35 1152.8 1208.55 1151.8 1208.6 1151.05 Q1208.65 1150.65 1208.85 1150.3 L1209.3 1149.8 1210.25 1149.45 1207.55 1150.05 1206.55 1150.8 1205.3 1151.3 1203.75 1152.05 1200.05 1152.9 1199.25 1153.3 Q1193.5 1153.3 1188.05 1155.4 L1179.15 1158.7 Q1177.1 1159.4 1175.1 1160.4 1171.55 1162.15 1167.75 1163.3 L1167.2 1163.95 1166.25 1164.45 1164.5 1165.05 1163.95 1165.45 1163.25 1165.8 1161.3 1166.35 1160.25 1166.6 Q1157.85 1167.05 1156.0 1168.55 L1155.25 1168.7 1149.25 1169.1 1144.5 1169.55 1143.25 1170.05 1139.25 1170.1 1137.75 1170.3 1137.2 1170.7 1135.8 1171.4 1135.2 1171.7 1134.0 1172.3 1133.65 1172.95 1133.05 1173.8 1132.5 1174.55 1132.0 1175.3 1132.0 1176.05 1132.0 1176.8 1132.0 1177.55 1132.1 1179.0 1132.25 1179.8 1132.7 1180.3 1132.8 1180.4 1134.75 1181.05 1135.4 1181.85 1135.75 1182.55 1135.2 1183.2 1134.25 1183.8 1132.3 1184.15 1130.0 1184.8 1128.75 1184.8 1128.75 1184.2 Q1129.15 1183.65 1129.75 1183.3 L1129.05 1182.5 1128.5 1181.8 1128.5 1181.05 1128.5 1180.3 1128.5 1177.3 1128.5 1175.8 1128.5 1175.05 1128.5 1174.3 1128.5 1173.55 1128.5 1172.8 1129.05 1172.05 1129.75 1171.3 1130.5 1170.55 1132.0 1169.05 1133.5 1168.25 1134.3 1167.85 Q1137.85 1166.05 1142.0 1165.8 L1143.25 1165.55 1149.25 1165.45 1155.25 1165.3 1156.75 1164.5 1157.55 1164.15 1160.25 1163.2 1161.25 1162.8 1163.5 1162.5 1164.5 1162.25 1166.5 1161.55 1167.25 1161.4 1168.0 1161.4 1170.25 1161.3 1171.3 1160.8 1172.45 1160.2 Q1174.4 1159.1 1176.5 1158.2 L1178.5 1157.25 1179.25 1156.8 1182.25 1156.3 1183.3 1155.8 1184.5 1155.25 Q1187.3 1154.05 1190.25 1153.3 L1190.8 1152.8 1191.25 1152.55 1193.5 1151.9 1194.3 1151.7 1197.25 1151.3 1198.25 1150.8 1199.25 1150.3 1203.25 1149.8 1204.5 1149.05 1207.05 1147.55 Q1209.95 1145.9 1213.25 1145.1 L1214.8 1144.5 1216.3 1143.85 1218.25 1143.2 1219.3 1142.75 1223.8 1143.0 1224.75 1143.8 1225.5 1144.55 1225.8 1145.0 1225.8 1145.15 1227.3 1145.25 1229.0 1144.75 1230.3 1144.35 Q1233.35 1143.4 1236.3 1142.25 L1241.05 1141.75 1242.3 1141.45 Q1245.55 1141.1 1248.45 1139.6 1253.95 1136.8 1260.8 1138.5 L1283.75 1134.3 Q1287.05 1133.75 1290.15 1132.65 L1299.85 1129.65 1306.3 1128.0 1314.8 1127.45 M646.45 1118.05 L646.75 1117.35 647.65 1116.5 649.15 1116.0 653.15 1115.9 653.15 1115.75 Q656.8 1116.45 660.25 1117.8 663.8 1119.15 667.2 1121.0 L669.65 1122.25 672.15 1122.75 677.15 1123.85 678.4 1124.25 683.15 1124.75 685.15 1125.75 687.2 1126.7 690.15 1127.8 691.4 1128.25 692.15 1129.0 694.15 1129.55 695.4 1130.0 696.4 1130.75 696.4 1131.4 695.7 1132.3 695.15 1132.75 694.15 1133.0 692.2 1133.3 691.15 1133.45 690.15 1133.5 Q682.2 1129.55 673.3 1128.05 667.7 1127.1 662.55 1124.5 L657.15 1122.0 655.2 1121.7 653.7 1121.25 652.65 1120.75 649.15 1120.5 647.4 1120.25 646.75 1119.45 646.4 1118.75 646.45 1118.05 M706.2 1133.5 L706.95 1133.5 714.9 1136.05 721.95 1138.25 724.45 1139.0 732.65 1139.45 733.95 1139.75 756.4 1138.2 758.2 1138.1 766.2 1137.75 767.45 1138.25 774.2 1138.95 778.2 1139.25 780.2 1140.25 781.4 1140.8 782.2 1141.2 783.45 1141.75 784.2 1142.05 785.45 1142.5 786.45 1143.25 787.7 1144.0 788.9 1144.85 789.7 1145.5 792.4 1146.6 793.2 1146.95 794.4 1147.55 795.2 1148.0 796.45 1148.55 797.45 1149.3 797.95 1149.8 799.2 1150.1 800.45 1150.55 806.2 1151.05 810.45 1152.5 Q811.95 1153.05 813.3 1153.75 815.6 1155.0 818.2 1155.2 L819.4 1155.6 819.95 1156.05 821.45 1156.15 825.2 1156.0 828.2 1155.9 829.7 1156.05 830.7 1156.8 831.5 1157.5 832.45 1158.3 832.9 1159.05 833.2 1159.8 834.0 1160.45 835.2 1161.3 835.95 1161.8 838.5 1162.4 842.2 1163.15 843.45 1163.55 844.2 1164.3 844.85 1165.1 845.2 1165.8 845.4 1167.3 845.45 1168.05 845.45 1168.8 845.45 1169.55 845.45 1170.3 845.45 1171.05 845.45 1172.55 845.45 1173.3 845.15 1174.0 844.7 1174.8 844.2 1175.5 843.7 1176.05 843.2 1176.25 842.2 1176.45 841.2 1176.55 Q840.45 1176.3 839.8 1175.85 L839.2 1175.3 839.0 1174.5 839.0 1173.8 839.2 1173.05 840.2 1172.25 840.95 1171.55 840.95 1170.8 840.95 1170.05 840.95 1169.3 840.9 1168.55 840.7 1168.05 837.25 1167.45 Q836.45 1167.3 835.75 1166.95 L835.15 1166.65 Q834.45 1166.3 833.7 1166.05 L832.95 1165.3 832.3 1164.45 832.2 1164.05 830.95 1163.55 830.5 1162.75 830.15 1162.05 829.7 1161.3 829.5 1160.5 829.45 1159.8 828.7 1159.05 825.2 1158.7 822.45 1158.8 821.7 1159.55 821.15 1159.95 820.2 1160.3 819.2 1160.45 818.2 1160.55 816.7 1160.1 814.2 1159.45 812.7 1159.05 811.95 1158.3 Q809.4 1156.9 806.2 1156.4 L798.75 1154.9 795.7 1154.05 794.95 1153.3 794.45 1152.8 792.75 1151.95 792.15 1151.65 790.7 1151.05 789.2 1150.55 787.7 1150.05 785.15 1147.85 782.7 1146.3 779.95 1144.8 777.95 1143.75 Q772.1 1143.4 766.2 1143.75 L764.7 1143.25 759.45 1143.25 758.2 1143.75 737.2 1143.0 733.45 1142.5 732.9 1142.05 732.45 1141.75 Q723.4 1141.4 714.75 1138.6 709.55 1136.9 705.35 1134.05 L705.45 1133.75 705.45 1133.65 706.2 1133.5" fill="#716143" fill-rule="evenodd" stroke="none"/>
  </g>
</svg>
