<?xml version="1.0" encoding="UTF-8" standalone="no"?>
<svg xmlns:ffdec="https://www.free-decompiler.com/flash" xmlns:xlink="http://www.w3.org/1999/xlink" ffdec:objectType="shape" height="189.8px" width="1403.3px" xmlns="http://www.w3.org/2000/svg">
  <g transform="matrix(1.0, 0.0, 0.0, 1.0, -660.95, 389.6)">
    <path d="M2063.9 -312.0 L2064.25 -311.3 2064.1 -310.85 2062.75 -310.3 2058.2 -311.5 2053.75 -312.05 2053.0 -312.8 Q2052.65 -313.2 2052.6 -313.6 2052.5 -314.3 2052.95 -314.95 L2053.45 -315.4 2053.5 -315.55 2054.75 -315.25 2057.5 -314.3 2059.75 -313.3 2063.0 -312.8 2063.9 -312.0 M1801.7 -362.05 L1801.95 -361.95 1802.5 -361.6 1802.7 -361.35 1802.85 -360.95 1803.05 -360.65 1803.35 -360.6 1804.95 -361.7 1806.85 -362.85 1807.45 -362.9 1808.45 -362.95 1809.35 -362.7 1809.8 -362.3 1810.1 -361.95 1810.2 -361.6 1810.3 -361.2 1810.35 -360.85 1810.35 -360.45 1810.2 -360.1 1810.05 -359.7 1809.85 -359.35 1809.45 -358.95 1809.35 -358.55 1809.35 -358.2 1809.35 -357.85 1809.35 -357.45 1809.2 -357.1 1809.1 -356.7 1809.0 -356.3 1808.85 -355.6 1810.45 -353.9 1812.85 -352.2 1823.85 -351.7 1824.3 -351.3 1824.6 -350.95 1824.7 -350.55 1824.8 -350.2 1824.8 -349.85 1824.7 -349.45 1824.45 -349.05 1824.2 -348.75 1823.85 -348.45 Q1821.85 -347.7 1819.75 -348.0 L1827.1 -346.6 1831.85 -345.7 1832.3 -345.3 1832.6 -344.95 Q1837.65 -344.8 1843.25 -346.65 1850.75 -349.15 1858.75 -348.8 L1870.4 -349.25 Q1885.1 -351.1 1899.45 -354.85 1911.35 -357.95 1923.5 -358.85 L1924.0 -358.85 1925.0 -358.85 1925.85 -358.6 1926.2 -358.2 1926.5 -357.85 1926.6 -357.45 1926.7 -357.05 1926.75 -356.7 1926.75 -356.35 1926.6 -355.95 1926.35 -355.6 1926.0 -355.2 1925.6 -355.0 1925.0 -354.85 1927.55 -353.9 1927.85 -354.1 1929.45 -354.7 1929.5 -354.85 1930.5 -354.85 1932.0 -354.35 Q1933.5 -352.9 1935.25 -351.75 L1936.25 -351.45 1936.75 -351.05 1937.15 -350.9 1938.0 -350.65 1938.75 -350.45 1939.25 -350.05 1945.95 -347.9 1946.25 -348.05 1947.5 -348.25 1949.5 -348.35 1955.5 -345.0 1956.0 -344.8 1956.25 -344.55 Q1967.75 -338.05 1979.05 -331.05 1989.95 -324.3 1999.75 -316.3 L1999.95 -315.55 1999.95 -314.85 1999.75 -314.05 1999.5 -313.3 1998.95 -312.65 1998.25 -312.1 1997.75 -311.8 1996.5 -311.6 1995.5 -311.55 1993.75 -312.05 1990.7 -313.5 1986.75 -315.05 1986.4 -315.05 Q1986.4 -314.7 1986.75 -314.3 L1988.15 -312.75 1988.5 -312.05 1988.7 -311.3 1988.7 -310.6 1988.5 -309.8 1987.95 -309.1 1987.25 -308.3 1986.5 -307.55 1985.75 -306.8 1985.5 -306.05 1985.25 -305.3 1984.5 -304.55 1983.75 -303.8 1983.5 -303.05 1983.2 -302.35 1982.8 -301.55 1982.45 -300.85 1982.0 -300.05 1981.25 -299.3 1980.5 -298.55 Q1971.65 -296.05 1962.55 -294.5 L1958.75 -293.55 1958.0 -292.8 1957.25 -292.05 1955.5 -291.55 1954.5 -291.55 1952.75 -292.1 1951.25 -292.55 1950.25 -292.05 1949.75 -291.8 1947.5 -291.6 1944.5 -291.3 1941.75 -290.3 1937.75 -288.8 1936.0 -288.55 1935.25 -288.1 1934.75 -287.8 1927.0 -286.3 Q1924.15 -285.6 1921.75 -284.05 L1920.5 -283.75 1919.0 -283.3 1917.5 -282.8 Q1900.55 -280.55 1886.25 -289.05 1881.85 -289.95 1877.65 -291.6 1874.35 -292.9 1871.25 -294.55 L1866.8 -295.55 Q1865.45 -295.95 1864.2 -296.55 1859.9 -297.25 1855.8 -298.55 L1853.2 -299.55 1849.5 -300.45 1846.2 -301.55 Q1843.15 -301.9 1840.25 -303.1 1838.75 -303.7 1837.45 -304.55 L1834.8 -305.5 Q1833.45 -306.05 1832.25 -306.9 L1831.45 -307.55 1826.15 -309.6 Q1824.15 -310.35 1822.5 -311.6 L1822.2 -311.8 1820.7 -312.3 1819.2 -313.8 1817.7 -315.3 1816.95 -316.05 1816.5 -316.85 1816.15 -317.55 1815.8 -318.15 1815.4 -318.25 Q1813.85 -318.6 1813.2 -319.95 L1812.45 -320.2 1811.6 -320.45 Q1807.3 -322.45 1802.75 -323.85 L1802.7 -324.55 1802.25 -325.35 1801.9 -326.05 1801.5 -326.85 1801.2 -327.55 1801.0 -328.35 1800.9 -329.05 1800.75 -329.85 1800.7 -330.55 1799.95 -332.05 1798.35 -335.15 Q1797.95 -335.8 1797.7 -336.55 L1797.8 -337.3 1798.2 -338.8 1798.45 -339.55 1798.7 -340.3 1798.75 -342.6 1798.75 -344.85 1798.7 -346.35 1798.45 -347.1 1798.2 -347.85 1797.95 -348.6 1798.2 -349.35 1798.45 -350.1 1798.7 -350.85 1798.7 -351.6 1798.7 -352.35 1798.7 -353.1 1799.6 -355.25 1801.05 -359.05 1801.7 -361.35 1801.7 -362.05 M2002.75 -260.55 L2003.25 -260.6 2005.65 -261.45 2005.5 -261.55 2001.75 -261.05 2002.75 -260.55 M1997.5 -268.55 Q2006.5 -269.5 2015.0 -267.8 L2015.75 -267.7 2017.25 -267.8 2017.6 -268.5 2018.25 -269.3 2018.75 -269.8 2019.25 -269.95 2020.5 -270.2 2020.5 -270.3 2022.0 -269.8 2023.0 -269.05 2023.45 -268.3 2023.75 -267.55 2024.5 -267.65 2025.3 -267.95 2026.5 -268.3 2028.0 -267.8 Q2030.25 -266.35 2031.5 -264.05 2032.45 -262.35 2033.95 -261.0 L2035.5 -259.55 2036.55 -257.3 2038.25 -254.3 2039.25 -252.8 2039.5 -252.05 2039.75 -251.3 2040.0 -250.55 2040.25 -249.8 2040.75 -249.05 2041.25 -248.3 Q2042.4 -246.8 2044.25 -245.95 2046.65 -244.85 2048.5 -243.05 L2048.9 -242.25 2049.2 -240.8 2049.2 -238.55 2049.0 -237.8 2048.5 -237.05 2048.2 -236.3 2048.15 -234.8 2048.0 -234.05 2047.7 -233.3 2047.2 -232.6 2046.25 -231.8 2041.3 -230.75 2039.5 -230.3 2033.5 -230.3 Q2017.7 -229.3 2002.75 -232.8 L1990.25 -232.8 1988.5 -232.3 1968.5 -232.3 1966.75 -232.8 1965.8 -233.6 1965.0 -234.3 1964.75 -235.05 1964.45 -235.75 1964.05 -236.55 1963.75 -237.3 1963.35 -237.8 1959.75 -239.55 1951.5 -247.35 1942.5 -255.3 1942.5 -256.05 1942.55 -256.8 1942.75 -257.55 1943.5 -258.3 1944.25 -258.8 1945.25 -259.3 1944.5 -260.05 1943.8 -260.85 1942.75 -262.3 1942.75 -263.05 1942.85 -263.75 1943.25 -264.55 1943.85 -265.15 1945.5 -265.8 1947.0 -265.3 1948.0 -264.55 1948.75 -264.05 1949.15 -264.4 1950.35 -265.7 1951.75 -267.05 1953.5 -267.35 1995.75 -268.05 1997.5 -268.55 M1790.45 -260.3 L1791.95 -259.8 1793.0 -259.1 1795.7 -257.55 1796.4 -257.7 1797.2 -258.3 1797.7 -258.8 1798.2 -259.0 1799.45 -259.3 Q1815.2 -252.85 1829.55 -243.55 L1841.95 -235.55 1842.4 -234.75 1842.7 -234.05 1842.95 -233.3 1843.5 -232.9 1845.2 -232.3 1846.5 -231.55 1847.85 -230.7 1848.45 -230.05 1848.9 -229.25 1849.15 -228.55 1849.15 -227.8 1848.95 -227.05 1848.65 -226.3 1848.15 -225.6 1847.2 -224.8 1845.5 -224.25 1844.2 -223.8 1844.15 -223.05 1843.95 -222.3 1843.7 -221.55 1843.4 -220.85 1842.7 -220.05 1841.95 -219.35 1841.2 -218.8 1820.7 -214.8 1820.2 -214.35 1819.7 -214.05 1818.45 -213.85 1816.95 -213.8 Q1779.0 -206.1 1740.45 -204.3 L1736.45 -205.3 1734.7 -205.8 1733.7 -206.55 Q1731.0 -207.4 1728.25 -208.65 1726.1 -209.6 1724.95 -211.55 L1724.75 -212.3 1724.7 -213.05 1724.75 -213.8 1724.95 -214.55 1725.45 -215.25 1726.2 -216.05 1725.0 -217.3 Q1723.1 -218.75 1720.7 -219.3 L1705.85 -231.2 Q1698.55 -237.05 1691.7 -243.3 L1691.3 -244.1 1691.2 -244.8 1691.2 -245.55 1690.1 -247.0 1688.7 -248.55 1687.95 -249.3 1687.55 -250.1 1687.35 -250.8 1687.2 -251.55 1685.4 -253.0 Q1683.95 -254.05 1682.75 -255.35 L1682.15 -256.05 1682.15 -256.8 1682.25 -257.55 1682.4 -258.3 1682.9 -259.05 1683.3 -259.85 1683.4 -260.55 1683.4 -261.3 1683.55 -262.0 1683.9 -262.8 1684.4 -263.55 1684.95 -264.0 1685.45 -264.25 1686.4 -264.4 1686.45 -264.55 1687.7 -264.05 1689.2 -262.55 1690.7 -261.1 1692.2 -259.8 1692.85 -260.15 1693.7 -260.8 1695.45 -261.3 1696.95 -260.8 1704.75 -253.35 1712.95 -245.1 1715.2 -242.8 Q1718.8 -241.1 1722.15 -238.95 L1725.2 -236.8 1726.45 -236.3 1726.4 -236.5 1725.7 -237.35 1725.2 -238.05 1725.2 -238.8 1725.25 -239.55 1725.45 -240.3 1725.95 -241.0 1726.7 -241.8 1728.45 -242.3 1730.15 -241.7 1732.95 -240.55 1733.1 -240.8 1733.25 -241.55 1733.45 -242.3 1733.95 -243.0 1734.7 -243.8 1736.45 -244.3 1737.45 -244.3 Q1740.65 -243.4 1743.3 -241.4 1744.65 -240.4 1746.2 -239.8 L1746.35 -240.3 1746.55 -241.0 1746.95 -241.8 1747.7 -242.55 1749.45 -243.05 1752.45 -242.3 1754.2 -241.8 1755.45 -241.1 1756.7 -240.55 1761.95 -240.05 1762.6 -240.4 1763.2 -241.05 1763.7 -241.55 1765.45 -241.95 1768.45 -242.3 1769.0 -243.0 1769.7 -243.8 1771.45 -244.3 Q1774.35 -243.75 1777.2 -242.8 1779.9 -241.9 1782.45 -240.55 L1783.45 -240.55 1784.2 -241.3 1784.7 -241.8 1785.2 -242.0 1786.45 -242.3 1787.2 -242.95 1787.2 -243.55 1787.2 -244.3 1787.3 -245.0 1787.7 -245.8 1788.45 -246.55 1789.25 -247.0 1790.2 -247.75 1790.2 -248.3 1790.2 -249.05 1790.25 -249.8 1790.45 -250.55 1791.2 -251.3 1789.45 -252.8 1787.75 -254.35 1787.2 -255.05 1787.2 -255.8 1787.2 -256.55 1787.2 -257.3 1787.2 -258.05 1787.75 -258.75 1788.45 -259.55 1789.25 -259.95 1790.45 -260.3 M1730.95 -225.05 L1731.7 -224.3 1732.45 -223.55 1732.95 -223.05 1733.2 -222.9 1734.45 -223.05 1732.25 -224.65 Q1731.5 -225.25 1730.8 -225.15 L1730.95 -225.05 M1750.2 -212.2 L1749.45 -212.3 1741.7 -212.05 1750.45 -212.15 1750.2 -212.2 M858.9 -356.15 L859.5 -355.6 859.7 -355.4 860.0 -355.1 860.2 -355.05 860.65 -354.9 860.9 -354.75 861.15 -354.55 861.4 -354.4 861.5 -354.35 861.95 -354.3 862.4 -354.15 862.65 -354.0 Q863.55 -353.4 864.6 -353.0 L866.65 -352.05 867.7 -351.15 867.75 -351.0 867.85 -350.8 867.9 -350.6 867.9 -350.4 867.9 -350.25 867.8 -350.05 867.7 -349.85 867.55 -349.7 867.2 -349.5 866.9 -349.3 866.9 -349.1 867.0 -348.75 867.1 -348.55 867.15 -348.35 867.25 -348.0 867.35 -347.8 867.4 -347.6 867.4 -347.4 867.4 -347.25 867.4 -347.05 867.35 -346.85 867.25 -346.7 867.15 -346.5 867.05 -346.3 866.95 -346.1 866.9 -345.9 866.9 -345.75 866.8 -345.55 866.7 -345.35 866.6 -345.15 866.5 -345.0 866.45 -344.8 866.25 -344.6 866.1 -344.4 865.9 -344.25 865.8 -344.05 865.7 -343.85 865.55 -343.7 865.4 -343.5 865.2 -343.3 865.1 -343.1 865.0 -342.95 864.9 -342.75 864.7 -342.55 864.5 -342.35 864.35 -342.15 863.95 -341.95 863.7 -341.8 863.5 -341.6 863.35 -341.4 862.95 -341.2 862.7 -341.05 862.5 -340.85 862.35 -340.65 862.2 -340.5 862.15 -340.3 862.1 -340.1 862.0 -339.9 861.9 -339.75 861.7 -339.55 861.65 -339.35 861.5 -339.15 861.4 -339.0 861.2 -338.8 861.1 -338.6 860.9 -338.25 860.7 -338.05 860.45 -337.85 860.2 -337.65 860.1 -337.5 859.95 -337.3 859.7 -337.1 859.4 -336.9 859.15 -336.7 858.95 -336.55 858.9 -336.35 858.45 -335.75 857.8 -335.2 857.25 -334.75 855.55 -333.35 855.35 -333.15 854.95 -333.0 854.45 -332.8 854.25 -332.6 853.7 -332.05 853.15 -331.5 852.6 -330.9 851.05 -329.6 850.8 -329.4 850.45 -329.25 849.15 -328.65 848.75 -328.5 847.7 -327.9 847.55 -327.75 847.45 -327.55 847.2 -327.35 845.5 -326.25 844.15 -325.15 Q843.4 -324.15 842.25 -323.6 L842.1 -323.4 841.25 -322.85 840.9 -322.65 839.95 -322.1 839.7 -321.9 Q837.2 -319.85 834.3 -318.15 L830.65 -316.05 Q825.55 -313.2 820.15 -311.05 L818.9 -310.6 Q811.6 -308.25 804.2 -306.35 801.0 -305.5 797.7 -305.45 787.6 -305.3 777.75 -307.25 L774.45 -307.6 Q753.3 -307.7 732.15 -307.25 L730.85 -307.3 Q718.85 -307.95 707.05 -310.3 699.35 -311.85 691.9 -314.2 689.6 -314.9 687.4 -315.9 682.5 -318.15 677.25 -319.25 676.5 -319.45 675.85 -319.95 L675.35 -320.35 675.25 -320.55 675.15 -320.7 675.05 -320.9 674.85 -321.1 674.5 -321.5 674.35 -321.65 674.2 -321.85 673.95 -322.25 673.7 -322.4 672.4 -323.55 671.1 -324.75 Q670.05 -325.5 669.35 -326.55 L669.1 -327.1 668.9 -327.3 668.7 -327.5 668.55 -327.65 668.45 -327.85 668.35 -328.05 668.3 -328.25 668.2 -328.4 668.15 -328.6 668.1 -328.8 667.95 -328.95 667.8 -329.15 667.7 -329.35 667.6 -329.55 667.45 -329.7 667.3 -329.9 667.1 -330.1 667.0 -330.3 666.9 -330.45 666.8 -330.65 666.7 -330.85 666.7 -331.05 666.65 -331.2 666.55 -331.4 666.45 -331.6 666.45 -331.8 666.3 -332.15 666.2 -332.35 666.1 -332.55 665.95 -332.9 665.85 -333.1 665.3 -333.65 665.1 -333.85 664.2 -334.45 663.85 -334.6 663.65 -334.8 663.55 -335.0 663.4 -335.2 663.35 -335.35 663.15 -335.55 662.95 -335.75 662.8 -335.9 662.7 -336.1 662.6 -336.3 662.5 -336.5 662.4 -336.7 662.35 -336.85 662.15 -337.05 661.95 -337.25 661.8 -337.4 661.7 -337.6 661.55 -338.0 661.45 -338.15 661.35 -338.35 661.15 -338.75 661.05 -338.9 661.0 -339.1 660.95 -339.85 660.95 -340.6 660.95 -342.1 660.95 -343.6 661.05 -344.15 661.1 -344.35 661.65 -344.9 661.85 -345.1 662.65 -345.7 662.85 -345.85 Q663.2 -346.15 663.35 -346.6 L663.55 -346.8 664.35 -347.35 664.6 -347.55 665.35 -348.1 665.8 -348.3 667.35 -348.85 667.6 -349.0 667.9 -349.0 669.4 -349.25 669.9 -349.35 670.1 -349.55 670.35 -349.65 670.65 -349.75 671.15 -349.85 671.35 -350.05 671.7 -350.2 672.6 -350.8 672.95 -351.15 673.35 -351.55 673.85 -351.9 674.7 -352.6 674.85 -352.65 676.05 -353.05 676.35 -353.15 676.95 -353.35 676.95 -353.55 676.95 -353.75 676.95 -353.9 676.95 -354.1 677.0 -354.3 677.05 -354.5 677.15 -354.65 677.35 -354.85 677.7 -355.05 677.95 -355.15 678.1 -355.25 678.4 -355.3 678.9 -355.4 679.1 -355.6 679.2 -355.8 679.25 -356.0 679.3 -356.15 679.35 -356.35 679.9 -356.95 680.1 -357.1 Q680.45 -357.5 680.95 -357.7 L681.35 -357.85 681.6 -358.0 681.9 -358.05 683.15 -358.05 683.6 -357.95 684.6 -357.65 684.9 -357.5 685.2 -357.35 685.9 -357.4 686.1 -357.6 686.35 -357.7 686.8 -357.85 686.95 -358.05 686.95 -358.25 686.95 -358.6 686.95 -358.8 686.95 -359.0 686.95 -359.35 687.05 -359.55 687.4 -359.95 687.6 -360.1 687.8 -360.3 687.95 -360.45 688.1 -360.5 689.3 -360.85 689.6 -361.0 690.8 -361.35 691.05 -361.55 692.1 -362.1 692.55 -362.3 692.7 -362.5 692.7 -362.7 Q693.05 -363.7 694.05 -364.35 L701.3 -369.0 Q706.05 -372.1 711.25 -374.5 L711.4 -374.7 711.6 -374.85 712.05 -375.05 712.9 -375.45 713.1 -375.6 714.8 -377.05 717.05 -378.3 718.85 -379.0 719.15 -379.05 721.25 -379.4 722.25 -379.7 723.15 -379.95 723.35 -380.1 723.6 -380.25 726.3 -381.5 730.8 -383.5 732.35 -384.25 732.65 -384.3 733.3 -384.45 733.6 -384.6 733.85 -384.75 734.15 -384.8 735.1 -385.15 735.35 -385.25 735.65 -385.3 736.8 -385.6 737.05 -385.8 737.25 -385.95 737.35 -386.0 738.4 -386.3 739.0 -386.45 740.25 -386.95 740.35 -387.0 749.4 -388.15 753.75 -388.85 760.7 -389.55 Q768.1 -389.9 775.3 -388.3 L789.9 -385.35 804.6 -382.65 807.1 -382.3 Q814.45 -381.5 821.3 -378.7 L823.3 -377.75 823.5 -377.7 824.0 -377.55 824.35 -377.4 824.7 -377.25 824.95 -377.05 825.25 -376.95 Q826.5 -376.6 827.65 -375.95 829.5 -374.9 831.5 -374.15 L833.8 -373.0 834.0 -372.95 834.5 -372.8 834.85 -372.65 835.2 -372.5 835.45 -372.3 835.75 -372.2 838.15 -371.2 842.0 -369.05 843.75 -367.6 844.15 -367.4 844.4 -367.25 844.5 -367.05 844.7 -366.7 844.8 -366.5 844.9 -366.3 845.0 -366.1 845.4 -365.85 Q847.7 -364.85 849.6 -363.35 L853.9 -359.85 856.0 -357.85 856.4 -357.65 857.4 -357.1 857.65 -356.95 858.5 -356.35 858.9 -356.15 M885.7 -241.05 Q887.35 -242.05 889.25 -242.3 L894.2 -242.55 895.45 -242.05 896.15 -241.25 896.7 -240.55 896.7 -240.3 898.2 -240.3 Q900.7 -239.65 903.05 -238.5 904.7 -237.7 905.2 -236.05 L905.4 -235.3 905.45 -234.55 905.45 -233.8 906.45 -233.3 Q906.7 -233.15 906.95 -233.15 L907.95 -233.1 910.2 -233.55 Q924.15 -231.3 938.1 -231.15 L937.95 -231.55 937.95 -232.3 938.1 -233.0 938.45 -233.8 939.2 -234.55 941.2 -234.95 977.0 -235.55 974.25 -235.9 972.5 -236.3 971.75 -237.1 971.25 -237.8 971.05 -238.55 971.0 -239.3 971.0 -240.05 971.5 -240.75 972.25 -241.55 973.5 -242.8 Q979.05 -244.0 985.25 -243.8 L998.75 -243.8 999.5 -244.55 1001.25 -245.05 1006.0 -245.15 1007.25 -245.3 1008.75 -244.8 1009.65 -244.0 1009.85 -243.8 1010.2 -243.9 1010.25 -244.05 1011.25 -244.05 1012.75 -243.55 1013.45 -242.75 1014.0 -242.05 1014.2 -241.3 1014.25 -240.55 1014.25 -239.8 1014.5 -239.05 1014.8 -238.3 1015.25 -237.55 1015.25 -237.3 1015.3 -237.0 1015.4 -236.75 1016.7 -235.75 1017.75 -235.05 Q1019.0 -233.3 1019.85 -231.35 L1021.6 -227.5 1023.0 -223.8 1023.95 -222.25 1025.7 -220.0 1027.0 -218.55 1027.25 -217.8 1027.35 -217.05 1027.25 -216.3 1027.5 -215.55 1028.0 -214.05 1028.5 -212.55 1028.75 -211.8 1028.75 -211.05 1028.75 -210.3 1029.15 -209.5 1029.3 -208.8 1029.45 -207.3 1029.5 -206.55 1029.2 -205.8 1028.7 -205.1 1027.75 -204.3 1026.25 -203.8 1024.5 -204.3 1023.75 -205.05 1023.55 -204.55 1023.5 -203.8 1023.45 -203.05 1023.25 -202.3 1022.95 -201.55 1022.45 -200.8 1022.0 -200.3 1021.45 -200.1 1020.25 -199.85 1019.25 -199.8 1017.5 -200.3 1016.75 -201.05 1016.3 -201.8 1015.9 -202.5 1015.0 -204.05 1015.0 -204.8 1015.0 -205.55 1014.5 -207.05 1013.75 -209.3 1013.25 -210.8 1012.75 -212.3 1012.65 -212.55 1011.25 -212.8 1009.5 -213.3 1008.75 -214.05 1008.0 -214.8 1007.7 -215.5 1007.25 -216.3 1007.1 -216.7 Q1001.55 -216.2 996.5 -213.55 L979.3 -213.4 978.55 -212.25 978.25 -211.55 977.5 -210.8 976.75 -210.05 975.25 -208.55 Q974.85 -208.3 974.45 -208.15 973.85 -207.9 973.25 -207.8 L971.5 -208.3 970.75 -209.05 970.25 -209.8 970.05 -210.55 970.0 -211.3 970.0 -212.05 970.0 -212.8 970.2 -213.35 956.2 -213.3 954.45 -213.8 943.95 -213.8 938.7 -213.55 Q937.2 -212.3 935.25 -212.65 L932.55 -213.25 901.7 -212.8 900.2 -212.3 898.2 -212.3 896.45 -212.8 895.9 -213.5 895.2 -214.05 894.95 -214.25 893.45 -214.8 892.7 -215.55 Q879.05 -217.1 866.95 -223.3 L865.8 -222.85 865.2 -222.3 Q864.5 -221.25 863.2 -221.25 L857.2 -221.3 Q856.3 -221.55 855.55 -222.0 L854.95 -222.55 854.55 -223.35 854.45 -224.05 854.5 -224.8 854.7 -226.3 856.6 -228.65 859.7 -231.3 859.95 -231.55 861.15 -232.1 861.95 -232.55 864.45 -233.25 865.05 -233.4 865.45 -233.8 866.4 -233.8 868.45 -234.55 Q871.3 -237.3 875.15 -238.5 876.6 -238.95 877.95 -239.55 L882.25 -240.55 885.7 -241.05 M875.95 -226.3 L875.65 -226.7 874.45 -226.55 873.85 -226.05 874.95 -225.3 877.7 -224.7 875.95 -226.3" fill="#96815a" fill-rule="evenodd" stroke="none"/>
    <path d="M1802.75 -323.85 L1802.9 -322.3 1802.9 -320.1 1802.7 -319.3 1802.4 -318.6 1801.9 -317.85 1801.2 -317.05 1799.45 -316.55 1798.2 -316.75 1797.45 -316.9 1795.7 -317.3 1794.95 -318.05 1794.2 -318.8 1793.45 -319.55 1793.0 -320.35 1792.15 -321.8 1791.2 -323.3 1790.85 -323.2 1790.4 -322.6 1789.95 -321.8 1789.9 -321.1 1789.7 -320.3 1789.35 -319.65 1788.7 -318.8 Q1790.15 -318.05 1791.7 -317.75 1794.6 -317.2 1796.45 -315.05 L1796.9 -314.3 1797.15 -313.55 1797.15 -312.85 1796.95 -312.05 1796.65 -311.35 1796.15 -310.65 1795.2 -309.8 1793.45 -309.3 1792.2 -309.6 1791.2 -309.85 1790.7 -310.05 Q1786.05 -308.95 1783.2 -311.55 1771.25 -314.95 1758.2 -317.2 1754.9 -317.8 1751.7 -318.8 L1749.45 -318.65 1745.45 -318.55 1743.7 -319.05 1742.7 -319.85 1742.2 -320.3 Q1733.1 -322.0 1723.7 -322.05 L1722.75 -322.9 1722.2 -323.55 1722.0 -324.35 1721.95 -325.05 1722.0 -325.8 1722.2 -326.55 1722.8 -327.2 1725.2 -328.8 1726.2 -329.3 1753.7 -334.45 Q1756.55 -335.0 1758.2 -336.55 L1758.5 -337.3 1759.0 -338.05 1759.7 -338.8 1761.45 -339.3 1762.45 -339.3 1763.95 -338.8 1764.95 -338.05 1765.1 -338.1 1765.2 -338.8 1765.25 -339.55 1765.45 -340.3 1766.0 -341.05 1766.7 -341.85 1768.45 -342.35 1769.45 -342.35 1771.15 -341.75 1772.7 -341.1 1773.45 -340.85 1773.2 -341.3 1772.75 -342.1 1772.45 -342.85 1772.3 -343.6 1772.2 -345.1 1772.3 -346.55 1772.45 -347.35 1773.0 -348.05 1773.7 -348.85 1775.45 -349.35 1776.45 -349.35 1778.2 -348.8 1779.45 -348.35 1779.8 -348.65 1779.95 -349.35 1779.95 -350.1 1780.7 -350.85 1781.5 -351.25 1782.45 -351.6 1783.7 -351.1 1784.45 -350.35 1784.95 -349.85 Q1786.35 -352.6 1788.05 -355.25 1790.25 -358.75 1791.05 -362.8 L1791.45 -364.35 1791.45 -365.1 1791.45 -365.85 1791.8 -366.5 1792.45 -367.35 1793.25 -367.75 1794.45 -368.05 1796.2 -368.35 1796.75 -368.8 1797.2 -369.1 1798.45 -369.2 1798.45 -369.35 1799.95 -368.85 1800.9 -368.0 1801.45 -367.35 1801.65 -365.85 1801.75 -363.6 1801.7 -362.05 1801.7 -361.35 1801.05 -359.05 1799.6 -355.25 1798.7 -353.1 1798.7 -352.35 1798.7 -351.6 1798.7 -350.85 1798.45 -350.1 1798.2 -349.35 1797.95 -348.6 1798.2 -347.85 1798.45 -347.1 1798.7 -346.35 1798.75 -344.85 1798.75 -342.6 1798.7 -340.3 1798.45 -339.55 1798.2 -338.8 1797.8 -337.3 1797.7 -336.55 Q1797.95 -335.8 1798.35 -335.15 L1799.95 -332.05 1800.7 -330.55 1800.75 -329.85 1800.9 -329.05 1801.0 -328.35 1801.2 -327.55 1801.5 -326.85 1801.9 -326.05 1802.25 -325.35 1802.7 -324.55 1802.75 -323.85" fill="#ac996d" fill-rule="evenodd" stroke="none"/>
  </g>
</svg>
