<?xml version="1.0" encoding="UTF-8" standalone="no"?>
<svg xmlns:ffdec="https://www.free-decompiler.com/flash" xmlns:xlink="http://www.w3.org/1999/xlink" ffdec:objectType="shape" height="140.8px" width="574.6px" xmlns="http://www.w3.org/2000/svg">
  <g transform="matrix(1.0, 0.0, 0.0, 1.0, -488.9, -1013.5)">
    <path d="M542.9 1130.95 L542.9 1131.05 550.2 1130.85 Q557.25 1130.25 555.85 1132.9 554.45 1135.5 549.2 1138.75 543.9 1141.95 543.9 1143.05 L532.15 1149.5 Q520.5 1155.55 511.05 1154.0 501.6 1152.45 521.2 1149.85 L511.15 1150.05 508.9 1149.8 507.9 1149.0 507.15 1148.25 506.65 1147.55 506.4 1146.8 506.2 1145.3 506.05 1142.85 505.65 1142.3 505.45 1141.55 505.4 1140.8 505.4 1140.15 Q500.45 1139.95 495.8 1137.95 L493.9 1137.3 492.7 1136.5 491.95 1135.75 490.3 1133.6 489.65 1132.8 489.4 1132.05 489.15 1131.3 488.9 1130.55 488.9 1129.8 488.9 1129.05 488.95 1128.3 489.15 1127.55 489.65 1126.8 490.4 1126.05 491.15 1125.55 491.65 1125.35 493.15 1125.05 493.9 1125.2 494.15 1124.8 494.7 1124.1 495.65 1123.35 496.65 1122.8 498.1 1122.65 498.15 1122.55 Q501.65 1122.0 504.65 1123.8 506.6 1124.95 508.8 1124.45 510.7 1124.45 540.0 1129.0 L543.4 1129.5 543.35 1129.75 543.1 1130.5 542.9 1130.95 M512.65 1123.3 L520.8 1123.5 513.4 1124.0 509.65 1124.25 511.65 1123.8 512.65 1123.3 M1059.75 1015.5 L1059.75 1015.25 Q1060.55 1014.65 1061.7 1014.1 1062.95 1013.5 1063.5 1013.5 1061.0 1015.0 1059.75 1015.5 M1021.25 1025.65 L1024.4 1025.25 1021.15 1027.5 Q1017.55 1030.05 1014.8 1032.25 L1014.8 1032.0 1015.0 1030.5 1015.3 1029.8 1015.8 1029.05 1016.5 1028.25 1018.0 1026.75 Q1019.5 1025.85 1021.25 1025.65" fill="#8e774a" fill-rule="evenodd" stroke="none"/>
  </g>
</svg>
