<?xml version="1.0" encoding="UTF-8" standalone="no"?>
<svg xmlns:ffdec="https://www.free-decompiler.com/flash" xmlns:xlink="http://www.w3.org/1999/xlink" ffdec:objectType="shape" height="20.1px" width="280.1px" xmlns="http://www.w3.org/2000/svg">
  <g transform="matrix(1.0, 0.0, 0.0, 1.0, -1299.95, -699.95)">
    <path d="M1300.0 710.0 Q1300.0 705.8 1341.0 702.9 1382.0 700.0 1440.0 700.0 1498.0 700.0 1539.0 702.9 1580.0 705.8 1580.0 710.0 1580.0 714.2 1539.0 717.1 1498.0 720.0 1440.0 720.0 1382.0 720.0 1341.0 717.1 1300.0 714.2 1300.0 710.0" fill="#ffcc00" fill-opacity="0.33333334" fill-rule="evenodd" stroke="none"/>
    <path d="M1300.0 710.0 Q1300.0 705.8 1341.0 702.9 1382.0 700.0 1440.0 700.0 1498.0 700.0 1539.0 702.9 1580.0 705.8 1580.0 710.0 1580.0 714.2 1539.0 717.1 1498.0 720.0 1440.0 720.0 1382.0 720.0 1341.0 717.1 1300.0 714.2 1300.0 710.0 Z" fill="none" stroke="#ffcc00" stroke-linecap="round" stroke-linejoin="round" stroke-opacity="0.49411765" stroke-width="0.1"/>
  </g>
</svg>
