<?xml version="1.0" encoding="UTF-8" standalone="no"?>
<svg xmlns:ffdec="https://www.free-decompiler.com/flash" xmlns:xlink="http://www.w3.org/1999/xlink" ffdec:objectType="shape" height="1265.0px" width="2105.0px" xmlns="http://www.w3.org/2000/svg">
  <g transform="matrix(1.0, 0.0, 0.0, 1.0, 382.5, 842.5)">
    <path d="M1500.0 -380.0 L1420.0 -420.0 1420.0 -620.0 -120.0 -620.0 -120.0 -420.0 -180.0 -380.0 -320.0 -380.0 M-320.0 -40.0 L0.0 -40.0 140.0 20.0 300.0 60.0 660.0 60.0 1220.0 380.0 1720.0 380.0 M1460.0 -40.0 L1500.0 -60.0 M1720.0 60.0 L1460.0 60.0 1460.0 -40.0 M-380.0 -40.0 L-320.0 -40.0" fill="none" stroke="#00ffff" stroke-linecap="round" stroke-linejoin="round" stroke-width="5.0"/>
    <path d="M0.0 -40.0 L1460.0 -40.0" fill="none" stroke="#ff0000" stroke-linecap="round" stroke-linejoin="round" stroke-width="5.0"/>
    <path d="M-320.0 -380.0 L-320.0 -40.0 -320.0 420.0 M-320.0 -380.0 L-320.0 -840.0" fill="none" stroke="#ffff00" stroke-linecap="round" stroke-linejoin="round" stroke-width="5.0"/>
  </g>
</svg>
