<?xml version="1.0" encoding="UTF-8" standalone="no"?>
<svg xmlns:ffdec="https://www.free-decompiler.com/flash" xmlns:xlink="http://www.w3.org/1999/xlink" ffdec:objectType="shape" height="768.95px" width="1929.65px" xmlns="http://www.w3.org/2000/svg">
  <g transform="matrix(1.0, 0.0, 0.0, 1.0, -132.0, 593.0)">
    <path d="M1993.5 -568.0 Q1994.45 -562.3 1993.5 -551.45 1986.25 -547.05 1973.5 -546.0 1983.9 -542.0 1987.7 -536.55 1989.95 -533.3 1990.4 -528.55 1986.0 -500.35 1985.65 -489.3 1984.9 -465.45 1993.9 -453.2 2005.15 -438.0 2032.5 -438.0 2044.75 -438.0 2054.35 -443.75 2061.65 -434.7 2061.65 -419.75 2061.65 -409.45 2055.65 -404.5 2047.3 -397.55 2025.55 -397.55 2022.15 -397.55 2001.05 -402.6 1999.75 -400.4 1997.8 -398.5 1993.35 -394.2 1974.5 -383.0 1943.15 -384.25 1905.9 -383.25 L1868.0 -382.0 Q1799.85 -382.0 1754.05 -413.05 1738.3 -423.75 1728.15 -436.2 1720.0 -446.2 1720.0 -450.5 1720.0 -457.35 1722.7 -461.25 1725.6 -465.55 1733.05 -468.6 1707.7 -474.1 1698.6 -474.1 1695.8 -474.1 1693.25 -471.95 L1688.6 -467.15 Q1681.9 -460.2 1672.7 -460.2 1647.3 -460.2 1614.45 -473.5 1596.15 -480.9 1567.6 -496.3 L1561.95 -497.5 Q1502.55 -510.0 1484.0 -510.0 1473.25 -510.0 1470.0 -506.05 1466.75 -499.75 1462.0 -495.0 L1402.0 -495.0 1365.3 -503.95 Q1331.7 -511.0 1308.0 -511.0 1295.5 -511.0 1274.85 -504.6 1270.35 -503.2 1234.25 -490.5 1207.1 -480.95 1188.05 -476.4 1161.15 -470.0 1138.0 -470.0 1110.8 -470.0 1092.15 -476.7 1078.95 -481.5 1066.5 -491.5 L1057.05 -499.4 Q1051.7 -503.8 1047.6 -506.3 1036.45 -513.0 1022.0 -513.0 988.7 -513.0 970.4 -509.4 953.8 -506.15 946.55 -499.25 940.85 -493.8 938.95 -483.45 937.5 -470.5 936.0 -463.0 935.6 -459.25 930.8 -447.8 925.8 -435.8 923.0 -433.0 909.0 -418.1 889.85 -413.8 874.2 -410.3 849.0 -413.05 L825.05 -416.35 798.4 -420.25 Q764.0 -425.0 736.0 -425.0 709.7 -425.0 683.55 -418.9 673.95 -416.65 660.2 -412.65 L635.9 -405.5 Q604.15 -396.45 575.25 -392.1 534.7 -386.0 484.0 -386.0 L458.15 -387.75 373.0 -391.0 Q370.2 -392.85 365.15 -397.45 359.35 -402.65 358.0 -405.0 L297.0 -404.0 Q286.15 -402.8 282.15 -400.75 L278.8 -398.8 Q276.5 -397.6 273.25 -396.6 253.05 -390.6 155.0 -384.0 154.65 -383.25 150.55 -378.85 L142.0 -370.0 135.95 -370.1 136.0 -373.0 Q136.7 -393.5 133.65 -418.0 L132.55 -426.25 Q134.45 -428.9 136.15 -431.85 148.0 -452.9 148.0 -492.0 149.2 -495.55 156.4 -537.2 L160.6 -562.4 Q183.8 -563.8 243.55 -569.8 L292.75 -574.85 Q294.55 -573.1 295.6 -571.2 302.95 -569.5 308.05 -566.7 L317.8 -560.7 Q323.7 -557.4 331.0 -556.0 334.05 -568.25 337.6 -572.75 340.65 -576.6 345.45 -575.95 L355.8 -572.65 Q363.55 -570.0 370.0 -570.0 L385.9 -581.3 456.0 -582.0 474.0 -585.0 560.0 -585.65 565.5 -583.0 Q578.5 -583.0 585.45 -585.5 L586.4 -585.9 600.0 -586.0 669.25 -589.5 740.0 -593.0 883.0 -593.0 916.0 -590.0 1019.0 -589.0 Q1042.55 -590.5 1064.3 -583.35 L1079.55 -577.75 Q1087.5 -574.7 1092.0 -574.0 L1361.0 -573.0 1406.0 -569.5 1448.0 -566.0 1552.0 -566.0 1567.0 -569.0 1626.8 -568.85 Q1627.55 -566.45 1627.55 -565.65 1627.55 -559.0 1623.45 -555.1 L1622.9 -554.6 Q1663.9 -551.9 1716.25 -545.15 L1747.2 -540.95 Q1746.6 -546.55 1753.4 -552.15 1748.0 -554.6 1739.35 -556.25 L1737.35 -555.25 Q1729.1 -550.85 1725.4 -550.85 1714.5 -550.85 1709.65 -559.65 1707.1 -564.3 1706.95 -568.65 L1841.35 -568.35 1845.45 -566.15 1847.0 -566.0 1845.1 -568.35 1993.5 -568.0" fill="#5c5f60" fill-rule="evenodd" stroke="none"/>
    <path d="M139.7 -354.0 Q147.4 -351.85 151.25 -347.9 154.5 -344.6 155.45 -339.5 155.9 -336.9 155.9 -330.5 155.9 -315.35 151.75 -286.4 L144.8 -242.65 144.8 -155.45 143.6 -150.4 143.25 -149.05 147.3 -143.75 Q157.5 -140.95 161.1 -133.7 163.3 -129.3 163.3 -119.6 L163.1 -114.05 Q170.7 -97.0 179.5 -73.0 181.8 -53.95 182.9 -23.5 184.35 16.3 185.0 26.0 185.4 32.8 189.6 38.5 192.3 42.15 199.1 48.05 206.55 54.5 209.65 58.15 215.2 64.75 217.5 72.5 222.0 87.55 222.4 97.7 222.65 104.25 222.0 120.5 222.0 121.9 224.5 128.1 L227.0 134.75 Q227.0 138.3 226.55 139.2 226.1 140.2 223.95 141.15 213.5 145.6 204.0 152.0 194.8 158.3 194.45 163.35 L194.1 167.5 Q193.4 170.1 190.5 173.0 158.15 175.8 143.45 166.35 L141.5 166.75 Q141.9 167.15 142.4 167.2 142.75 167.45 142.75 169.0 142.75 172.25 133.6 175.95 L132.0 170.0 132.0 -31.0 Q131.8 -37.4 137.8 -112.75 144.0 -190.3 144.0 -212.5 144.0 -237.45 137.45 -302.7 134.35 -333.45 133.0 -355.45 L139.7 -354.0 M158.75 -75.25 L156.85 -59.8 Q150.35 -1.7 150.35 59.15 L150.35 88.95 Q150.35 101.25 146.65 106.15 144.6 108.8 144.1 110.05 142.95 112.85 142.95 118.1 142.95 126.75 146.65 132.0 L149.2 135.95 Q150.35 138.45 150.35 141.9 L150.1 143.75 Q178.9 145.6 189.05 142.7 193.3 141.45 194.5 139.35 195.0 138.4 195.0 136.0 195.0 133.5 193.0 122.9 191.0 112.25 191.0 109.75 190.4 102.7 190.95 98.6 192.0 91.0 198.0 91.0 205.8 91.0 205.85 101.05 L205.4 109.75 Q205.2 114.95 206.0 117.5 L207.0 118.0 Q209.0 112.65 209.0 105.0 209.0 100.7 206.55 90.95 203.6 79.05 203.0 75.0 202.25 69.7 196.65 64.2 187.15 55.65 179.0 47.0 168.7 35.9 168.8 18.4 168.85 13.5 169.95 3.35 171.0 -6.55 171.0 -11.5 170.65 -39.2 160.3 -70.65 L158.75 -75.25 M487.25 76.05 L488.0 76.75 Q488.3 77.25 488.3 78.55 488.3 79.85 480.3 85.95 L479.75 91.0 480.6 89.3 Q482.4 86.45 484.15 86.45 486.2 86.45 486.2 86.85 L486.25 87.0 Q488.3 83.95 489.15 83.95 491.25 83.95 493.35 95.6 494.35 101.4 494.95 107.45 L494.45 114.2 493.3 123.65 492.5 124.0 491.2 124.65 Q488.75 122.65 488.7 118.0 489.1 113.0 488.9 111.15 L482.95 117.6 483.75 117.2 Q485.95 118.45 485.9 120.7 L485.8 124.45 Q487.95 124.15 489.5 125.15 L491.2 126.75 Q492.5 125.8 495.55 121.15 498.4 116.8 499.5 116.35 501.05 117.7 501.45 121.15 L501.6 126.1 501.4 135.45 Q501.3 135.45 500.7 135.8 L499.5 136.3 Q497.2 134.6 497.25 131.8 497.75 128.65 497.45 127.15 486.95 139.6 484.15 139.6 L482.25 139.4 481.85 139.2 481.65 136.1 481.65 135.45 480.6 135.9 478.35 136.3 Q475.95 136.3 475.25 135.45 475.05 135.15 474.8 133.6 473.25 135.2 472.0 138.05 470.35 140.55 465.45 142.1 463.15 141.1 463.2 138.3 L463.4 136.6 Q461.65 137.95 460.45 137.95 L459.5 137.9 Q457.9 140.15 456.3 141.3 454.0 140.35 454.05 138.65 454.55 136.75 454.25 135.9 L454.05 135.25 Q451.55 139.15 450.75 141.5 L443.65 141.9 Q443.3 141.9 441.6 144.95 439.95 147.95 438.45 147.95 436.4 147.95 436.15 147.5 L435.95 141.1 433.45 141.3 431.45 141.25 429.5 140.85 429.3 137.4 Q429.3 134.95 431.7 126.7 L434.3 118.45 434.3 115.45 430.0 116.0 425.25 116.0 425.0 116.35 424.9 116.3 Q417.9 125.75 415.4 135.7 L415.0 135.95 413.95 136.3 Q412.35 135.75 412.0 134.65 411.85 134.3 411.85 132.75 411.85 126.45 416.25 116.3 L423.9 99.75 425.1 103.8 Q426.0 106.35 426.0 107.65 430.2 96.85 434.4 91.3 L428.0 93.0 Q428.0 92.75 426.5 92.25 428.5 90.45 436.2 87.65 438.25 86.6 442.65 82.5 447.05 79.4 451.85 80.95 458.15 78.6 462.2 77.75 L464.0 76.65 Q468.1 74.3 473.35 72.6 487.3 68.1 492.45 73.15 492.4 74.5 491.9 75.05 491.15 75.9 487.25 76.05 M488.5 92.5 Q486.9 94.25 485.5 96.75 L489.5 96.65 Q489.5 94.2 488.5 92.5 M486.55 104.15 L485.6 103.05 Q485.25 106.15 484.6 108.1 483.5 111.5 480.75 109.9 L480.0 112.2 480.0 114.6 Q484.75 110.75 487.45 104.55 486.95 104.45 486.55 104.15 M486.65 129.25 Q486.1 130.05 485.95 131.1 485.8 131.75 485.8 133.0 486.55 132.5 487.0 131.35 487.45 130.3 487.45 129.25 486.85 129.05 486.65 129.25 M454.4 89.65 L460.55 84.55 Q454.95 87.2 452.6 90.2 L454.3 89.8 454.4 89.65 M449.25 98.3 L449.25 100.8 Q449.85 100.4 450.5 99.05 L449.4 98.4 449.25 98.3 M456.7 98.55 L457.15 98.9 458.0 97.85 457.15 98.1 457.0 98.05 456.7 98.55 M470.9 83.3 L472.7 82.1 473.15 81.7 470.55 81.45 470.8 82.9 470.9 83.3 M473.75 86.25 L471.65 87.8 Q472.2 90.95 472.7 92.45 473.4 90.75 473.7 88.8 L473.95 86.55 473.75 86.25 M466.6 92.2 L466.1 94.35 Q466.15 94.5 467.3 95.05 468.6 95.65 469.2 96.2 L469.8 96.2 468.1 93.2 Q467.6 92.2 467.5 91.4 L466.6 92.2 M470.0 119.9 L470.0 123.85 Q472.7 120.95 473.95 117.0 L471.45 117.5 Q470.45 118.0 470.2 119.05 L470.0 119.9 M449.15 103.65 L449.05 102.25 449.05 102.45 448.4 105.35 Q448.95 104.8 449.15 103.65 M448.65 121.15 L449.65 121.3 450.35 118.65 448.85 120.7 448.65 121.15 M480.5 127.65 Q479.5 129.8 479.15 131.1 L479.35 131.3 Q480.75 129.8 481.15 127.75 481.4 125.85 481.65 125.3 L480.5 127.65 M473.05 126.65 Q471.3 127.75 467.7 132.15 L467.55 132.35 467.55 135.9 Q471.25 130.4 473.05 126.65 M443.2 107.95 L442.0 112.6 Q443.0 111.8 443.55 108.3 L444.2 103.8 443.2 107.95 M434.3 110.5 L434.3 106.6 434.1 106.0 Q431.35 108.6 429.05 111.3 L434.3 110.5 M439.1 121.95 L438.85 122.2 Q438.45 122.8 438.45 124.65 L438.65 124.65 438.85 123.4 439.1 121.95 M443.25 134.35 L442.9 135.25 443.45 134.2 443.25 134.35" fill="#4b4e4f" fill-rule="evenodd" stroke="none"/>
    <path d="M520.85 -251.6 Q521.25 -249.75 521.25 -248.25 L520.15 -233.35 Q519.0 -218.4 519.0 -210.75 L518.75 -188.45 518.5 -173.25 Q518.5 -169.65 519.7 -162.65 L522.4 -147.8 Q526.25 -124.65 526.25 -100.85 L527.75 -60.35 Q527.75 -57.65 533.7 -16.5 540.1 27.95 541.25 39.75 L541.25 45.0 540.2 45.4 538.25 46.0 Q539.25 38.5 539.25 34.0 539.25 20.2 535.75 1.75 L531.75 -13.65 Q528.75 -24.85 528.75 -29.35 528.75 -38.9 526.25 -68.85 523.75 -98.75 523.75 -104.0 523.75 -108.1 518.4 -139.55 513.0 -171.0 513.0 -177.85 513.0 -185.65 515.55 -214.9 518.3 -246.9 520.25 -254.25 L520.85 -251.6 M574.35 -205.25 Q579.85 -189.85 579.85 -187.25 579.85 -183.8 575.0 -155.85 L575.75 -129.7 576.35 -106.0 577.5 -79.75 Q578.7 -52.15 578.85 -38.5 L578.1 -38.0 576.1 -38.25 577.05 -51.55 577.6 -61.1 Q577.6 -67.55 574.5 -93.15 L571.35 -117.75 Q571.35 -121.9 572.1 -139.9 L567.1 -112.25 Q562.35 -86.3 555.9 -68.8 554.0 -63.65 553.4 -58.7 552.6 -52.25 552.6 -37.75 552.6 -35.5 554.6 -11.5 L554.6 -0.25 554.1 0.25 Q550.85 -46.0 550.85 -57.25 550.85 -60.9 560.85 -94.6 570.85 -128.35 570.85 -138.85 570.85 -141.35 572.7 -154.05 L573.1 -166.75 574.55 -166.75 577.1 -184.6 Q577.1 -187.75 575.8 -195.65 574.45 -203.6 573.6 -205.25 L574.35 -205.25 M447.5 -288.25 L448.25 -288.25 453.7 -250.3 Q457.75 -221.25 457.75 -218.1 L455.75 -211.25 Q453.75 -204.45 453.75 -203.5 453.75 -177.8 458.9 -147.25 466.05 -110.15 470.0 -87.25 470.8 -77.3 471.55 -72.6 472.85 -64.45 478.0 -58.0 481.1 -54.05 489.6 -44.65 L502.5 -30.0 Q512.5 -17.9 521.6 -2.35 L537.5 26.75 537.0 27.25 Q532.25 21.25 523.25 7.65 L507.3 -16.5 Q487.85 -45.75 483.0 -45.75 475.25 -45.75 471.8 -55.05 470.7 -58.1 468.25 -72.5 467.05 -79.65 464.25 -99.5 L460.25 -127.25 458.25 -140.75 Q457.9 -143.7 453.35 -146.9 449.0 -150.0 449.0 -153.0 L449.65 -157.4 Q450.25 -162.0 450.25 -163.5 L451.25 -183.55 452.25 -203.6 Q452.25 -205.4 450.75 -210.0 449.25 -214.55 449.25 -216.75 L452.0 -230.6 Q452.0 -234.75 450.05 -257.0 L447.5 -283.5 447.5 -288.25 M427.0 -16.5 Q434.75 -9.35 441.25 8.0 L439.75 10.5 438.25 12.85 Q438.25 17.4 442.5 24.05 446.75 30.7 446.75 36.1 L446.6 39.9 Q446.15 41.6 444.0 43.75 442.2 35.35 437.1 22.85 433.5 14.0 433.5 5.0 433.5 3.35 430.2 -6.2 427.0 -15.35 426.5 -16.0 L426.75 -16.15 427.0 -16.5 M428.5 -28.0 Q432.1 -28.7 435.05 -23.8 437.1 -20.45 438.25 -15.75 L438.25 -9.75 Q434.5 -11.55 432.2 -17.9 L428.5 -28.0" fill="#333333" fill-rule="evenodd" stroke="none"/>
  </g>
</svg>
