<?xml version="1.0" encoding="UTF-8" standalone="no"?>
<svg xmlns:ffdec="https://www.free-decompiler.com/flash" xmlns:xlink="http://www.w3.org/1999/xlink" ffdec:objectType="shape" height="1025.0px" width="3145.0px" xmlns="http://www.w3.org/2000/svg">
  <g transform="matrix(1.0, 0.0, 0.0, 1.0, 262.5, 762.5)">
    <path d="M-220.0 -680.0 L-220.0 -340.0 -100.0 -340.0 -100.0 -280.0 -260.0 -280.0 M-260.0 0.0 L620.0 0.0 700.0 40.0 780.0 40.0 820.0 60.0 900.0 60.0 940.0 80.0 1120.0 80.0 1240.0 60.0 1380.0 80.0 1780.0 100.0 1940.0 40.0 2100.0 40.0 2300.0 -80.0 2440.0 -100.0 2640.0 -80.0 2880.0 80.0" fill="none" stroke="#00ffff" stroke-linecap="round" stroke-linejoin="round" stroke-width="5.0"/>
    <path d="M-260.0 160.0 L460.0 160.0 1160.0 200.0 2040.0 180.0 2760.0 140.0" fill="none" stroke="#9900ff" stroke-linecap="round" stroke-linejoin="round" stroke-width="5.0"/>
    <path d="M-260.0 -280.0 L-260.0 0.0 -260.0 160.0 -260.0 260.0 M-260.0 -280.0 L-260.0 -760.0" fill="none" stroke="#ffff00" stroke-linecap="round" stroke-linejoin="round" stroke-width="5.0"/>
  </g>
</svg>
