<?xml version="1.0" encoding="UTF-8" standalone="no"?>
<svg xmlns:ffdec="https://www.free-decompiler.com/flash" xmlns:xlink="http://www.w3.org/1999/xlink" ffdec:objectType="shape" height="985.0px" width="2685.0px" xmlns="http://www.w3.org/2000/svg">
  <g transform="matrix(1.0, 0.0, 0.0, 1.0, 1602.5, 22.5)">
    <path d="M1080.0 680.0 L500.0 680.0 460.0 700.0 360.0 700.0 320.0 720.0 240.0 720.0 200.0 740.0 120.0 740.0 -120.0 680.0 -440.0 680.0 -680.0 740.0 -1460.0 740.0 M1020.0 -20.0 L1020.0 380.0 980.0 380.0 980.0 400.0 1080.0 400.0" fill="none" stroke="#00ffff" stroke-linecap="round" stroke-linejoin="round" stroke-width="5.0"/>
    <path d="M1080.0 400.0 L1080.0 -20.0 M1080.0 400.0 L1080.0 680.0 1080.0 840.0 1080.0 960.0" fill="none" stroke="#ffff00" stroke-linecap="round" stroke-linejoin="round" stroke-width="5.0"/>
    <path d="M1080.0 840.0 L-140.0 840.0 -780.0 800.0 -1600.0 800.0" fill="none" stroke="#9900ff" stroke-linecap="round" stroke-linejoin="round" stroke-width="5.0"/>
  </g>
</svg>
