<?xml version="1.0" encoding="UTF-8" standalone="no"?>
<svg xmlns:ffdec="https://www.free-decompiler.com/flash" xmlns:xlink="http://www.w3.org/1999/xlink" ffdec:objectType="shape" height="1296.6px" width="2107.8px" xmlns="http://www.w3.org/2000/svg">
  <g transform="matrix(1.0, 0.0, 0.0, 1.0, 323.1, 707.6)">
    <path d="M-274.5 132.5 Q-274.0 132.75 -273.25 135.0 L-275.75 135.0 -274.5 132.5" fill="#4b4e4f" fill-rule="evenodd" stroke="none"/>
    <path d="M1784.7 439.0 L1784.7 589.0 1106.7 589.0 1106.7 573.0 962.7 573.0 962.7 579.0 714.9 579.0 714.9 493.0 28.7 493.0 28.7 445.0 -323.1 445.0 -323.1 79.45 Q-316.25 81.1 -313.1 82.35 -308.65 85.6 -304.5 88.05 -296.45 92.85 -288.35 92.85 -280.25 92.85 -262.65 88.35 -243.85 83.5 -243.85 80.25 -243.85 78.95 -244.65 77.4 -245.3 76.15 -246.35 75.5 -245.45 74.3 -245.1 73.05 L-238.2 72.3 Q-234.05 71.8 -232.5 70.7 -230.85 69.5 -230.85 66.85 -230.85 65.55 -231.6 64.25 -232.95 62.0 -235.85 61.6 -234.45 60.0 -235.4 57.5 -236.45 54.8 -239.85 52.35 -237.55 50.8 -236.6 49.0 -235.85 47.55 -235.85 45.6 -235.85 43.35 -237.8 41.85 L-243.6 37.1 -240.9 33.9 Q-239.85 32.4 -239.85 31.85 -239.85 28.6 -255.0 28.1 L-288.35 29.3 Q-307.65 30.9 -321.7 33.5 L-323.1 33.8 -323.1 5.0 36.7 5.0 36.7 145.0 726.7 145.0 726.7 221.0 962.7 221.0 962.7 329.0 1130.7 329.0 1130.7 439.0 1730.7 439.0 1730.7 419.0 1782.7 419.0 1782.7 439.0 1784.7 439.0 M-267.4 74.85 Q-274.2 75.5 -284.6 74.85 L-267.4 74.85" fill="#34332f" fill-rule="evenodd" stroke="none"/>
    <path d="M1351.25 -464.0 Q1343.75 -465.25 1338.1 -462.45 1335.5 -461.2 1328.45 -455.4 1321.95 -450.1 1315.9 -447.65 1306.8 -444.0 1294.0 -444.0 1279.7 -444.0 1269.65 -449.5 L1262.25 -453.3 Q1257.8 -455.0 1252.25 -455.0 1248.85 -455.0 1236.15 -450.5 1223.45 -446.0 1217.25 -446.0 L1203.5 -444.75 1168.0 -443.5 Q1141.7 -443.5 1125.65 -449.75 L1116.0 -454.05 Q1111.55 -456.0 1108.25 -456.0 1103.25 -456.0 1100.35 -454.2 1099.25 -453.55 1096.1 -450.25 1090.55 -444.5 1077.75 -444.5 L1051.0 -447.0 1024.25 -449.5 Q1020.05 -449.5 1018.3 -446.6 L1017.25 -443.5 Q1018.05 -440.85 1024.25 -436.5 L1041.9 -435.05 1066.25 -434.0 Q1067.3 -433.3 1074.95 -432.6 L1086.25 -432.0 Q1095.1 -432.0 1100.3 -437.25 L1104.0 -440.85 Q1106.25 -442.5 1109.25 -442.5 L1113.0 -440.45 Q1117.75 -438.0 1123.55 -436.0 1142.45 -429.5 1168.0 -429.5 1187.45 -429.5 1222.55 -435.0 1240.15 -437.75 1254.25 -440.5 L1256.2 -438.7 Q1258.75 -436.5 1263.05 -434.75 1277.2 -429.0 1306.75 -429.0 1309.1 -429.0 1325.7 -437.7 1336.7 -443.45 1341.75 -446.55 1346.7 -441.15 1354.6 -436.6 1370.95 -427.15 1390.9 -425.95 1389.15 -420.1 1387.25 -411.5 L1389.25 -411.0 Q1390.25 -413.0 1390.75 -413.0 L1393.75 -386.2 Q1395.25 -371.5 1395.25 -368.0 1395.25 -360.75 1396.5 -339.5 1397.75 -318.25 1397.75 -312.5 1397.75 -306.6 1393.75 -294.5 1389.75 -282.35 1389.75 -278.0 1389.75 -267.7 1393.75 -219.7 L1397.5 -175.8 Q1396.75 -174.3 1396.25 -172.5 1392.75 -159.95 1360.4 -152.0 1331.9 -145.0 1299.0 -145.0 1296.5 -145.0 1283.65 -147.5 L1268.25 -150.0 Q1263.2 -150.0 1234.95 -142.85 1207.8 -136.05 1201.25 -133.5 1206.0 -132.7 1216.15 -130.0 1223.65 -128.0 1228.25 -128.0 1240.4 -128.0 1250.0 -132.5 1255.1 -134.9 1257.45 -135.6 1262.05 -137.0 1268.0 -137.0 L1287.15 -134.5 1306.25 -132.0 Q1309.05 -132.0 1317.4 -133.7 L1324.75 -135.0 Q1325.0 -132.25 1327.2 -130.6 1330.15 -128.5 1336.25 -128.5 1337.25 -128.5 1346.8 -131.35 1354.95 -133.8 1358.5 -135.0 L1366.25 -134.0 Q1364.8 -131.35 1364.85 -129.05 1364.9 -124.5 1372.25 -124.5 1374.05 -124.5 1377.35 -126.6 1380.3 -128.45 1383.75 -131.5 1386.2 -124.85 1396.85 -122.15 1403.35 -120.5 1412.0 -120.5 1417.45 -120.5 1420.3 -131.0 1422.25 -138.1 1422.25 -144.5 L1422.4 -149.25 Q1422.4 -151.3 1421.75 -152.7 1420.45 -155.5 1412.25 -162.0 1417.75 -167.5 1417.75 -173.25 1417.75 -178.1 1415.0 -181.05 1412.8 -183.45 1409.6 -183.8 L1407.75 -195.7 Q1404.75 -213.95 1404.75 -218.0 1404.75 -227.25 1402.75 -279.5 1402.75 -281.35 1406.75 -291.85 1410.75 -302.35 1410.75 -311.0 1410.75 -321.2 1407.5 -331.55 1404.25 -341.85 1404.25 -347.75 1404.25 -350.25 1406.25 -357.5 1408.25 -364.75 1408.25 -367.25 1408.25 -376.65 1407.25 -392.0 L1406.7 -399.6 Q1408.6 -397.2 1411.25 -395.5 1414.85 -404.65 1415.7 -407.8 1416.75 -411.65 1416.75 -416.5 L1415.7 -422.15 1414.85 -426.0 1420.25 -426.0 Q1421.25 -427.0 1421.9 -428.25 L1422.75 -430.5 Q1418.1 -434.55 1411.4 -438.1 1407.0 -450.5 1402.25 -450.5 1382.35 -450.5 1375.15 -453.3 1365.15 -458.75 1351.25 -464.0 M1386.2 -23.6 L1236.2 -23.6 1236.2 -89.6 1386.2 -89.6 1386.2 -23.6 M408.2 -117.55 L408.2 -107.6 212.2 -107.6 212.2 -563.6 174.2 -563.6 174.2 -687.6 264.2 -687.6 264.2 -695.6 314.2 -695.6 314.2 -687.6 340.2 -687.6 340.2 -653.6 1472.2 -653.6 1472.2 -107.6 1102.2 -107.6 1102.2 -51.6 532.2 -51.6 532.2 -111.6 560.4 -111.6 560.4 -123.6 433.3 -123.6 Q444.3 -126.2 449.5 -127.0 455.55 -127.95 460.65 -129.9 L468.75 -133.35 Q478.95 -137.5 497.0 -137.5 508.85 -137.5 523.7 -134.65 538.25 -131.9 548.0 -132.0 L586.15 -130.7 604.0 -129.0 Q607.15 -129.0 609.75 -132.2 611.15 -133.85 612.5 -136.5 L610.5 -139.5 Q462.55 -169.1 395.0 -117.5 L399.45 -117.25 405.75 -117.0 408.2 -117.55 M434.9 -302.7 Q435.85 -303.45 436.15 -304.8 436.9 -304.4 438.5 -302.1 440.75 -299.95 445.35 -299.95 446.75 -299.95 447.6 -302.4 448.05 -303.7 448.3 -305.35 L452.25 -300.0 Q455.95 -295.6 460.45 -295.6 462.05 -295.6 462.6 -297.0 L463.4 -299.4 Q463.9 -298.95 464.8 -296.65 466.35 -294.55 470.15 -294.55 475.15 -294.55 479.95 -290.25 485.0 -285.75 485.0 -280.25 485.0 -275.1 478.25 -235.25 478.25 -233.55 478.55 -232.9 479.1 -231.7 480.5 -231.15 L479.25 -228.1 476.85 -223.65 476.65 -223.85 474.2 -226.25 Q469.55 -223.4 465.65 -217.35 461.85 -210.75 459.9 -208.45 459.1 -204.4 457.15 -200.75 453.25 -196.2 451.85 -193.85 447.05 -189.55 441.0 -189.55 434.5 -189.55 425.6 -201.65 417.05 -213.3 414.85 -223.8 413.45 -230.4 408.9 -242.6 L402.15 -261.05 402.15 -289.4 408.65 -289.95 410.8 -292.65 Q411.55 -293.7 411.85 -293.7 415.8 -293.7 420.6 -296.05 426.35 -298.75 428.35 -302.9 L434.9 -302.7 M492.55 -302.1 Q492.0 -304.0 491.8 -308.2 491.15 -311.85 487.7 -313.45 L494.35 -316.2 Q497.85 -317.75 499.3 -319.65 503.05 -317.15 499.35 -310.25 496.45 -304.75 492.3 -301.3 L492.55 -302.1 M500.15 -335.85 Q497.2 -335.85 496.25 -334.2 495.8 -333.45 495.4 -330.65 494.6 -325.3 488.25 -325.05 487.35 -326.4 483.0 -329.45 479.2 -332.2 478.55 -334.2 L476.95 -339.6 Q475.8 -343.3 474.75 -344.75 466.95 -353.45 458.9 -354.15 451.0 -354.8 451.0 -347.45 451.0 -342.6 455.55 -340.25 462.3 -336.8 465.05 -333.15 L464.75 -333.95 Q462.75 -335.95 460.7 -339.65 L457.75 -344.45 Q465.25 -342.6 467.95 -340.2 469.9 -338.6 470.45 -335.25 471.15 -330.7 472.1 -328.65 474.25 -324.2 480.15 -319.65 L474.75 -319.65 472.65 -321.55 Q471.0 -322.6 468.3 -322.6 462.75 -322.6 459.8 -319.4 456.75 -314.85 454.5 -312.1 449.3 -316.6 435.95 -322.65 424.25 -328.0 422.4 -328.0 417.95 -328.0 417.6 -324.65 L418.05 -320.45 408.75 -319.6 Q404.9 -318.85 404.05 -315.85 403.55 -314.25 401.6 -313.6 L397.8 -312.9 Q392.75 -312.0 392.95 -307.5 L393.15 -293.7 392.95 -284.0 Q392.95 -254.75 403.65 -227.3 L410.95 -210.25 Q412.9 -205.9 413.7 -203.1 L412.85 -202.3 Q409.05 -198.6 405.85 -194.0 L404.9 -192.55 Q398.65 -188.55 398.65 -185.5 398.65 -183.65 399.25 -183.05 401.05 -181.15 408.1 -181.15 411.15 -181.15 415.75 -186.4 L420.5 -192.25 429.05 -185.35 Q437.55 -179.0 442.35 -179.0 447.5 -179.0 456.0 -185.55 460.3 -188.85 463.7 -192.25 464.55 -191.6 467.85 -186.5 471.5 -181.7 474.85 -181.7 L481.0 -182.0 Q483.4 -182.65 483.4 -185.6 483.4 -186.75 475.75 -197.3 L472.0 -202.45 Q476.9 -207.5 480.85 -213.5 L482.6 -216.2 Q487.7 -222.35 487.7 -223.4 487.7 -225.05 487.15 -225.0 L486.9 -224.8 Q489.0 -230.0 489.6 -234.95 492.5 -239.15 494.25 -247.6 496.85 -260.1 496.1 -272.15 495.4 -283.0 497.4 -289.05 498.75 -293.2 502.3 -296.6 506.6 -300.75 507.65 -302.45 510.1 -306.75 510.1 -314.35 L510.05 -317.9 Q509.8 -321.95 509.1 -325.3 506.7 -335.85 500.15 -335.85 M364.5 -411.5 Q379.0 -414.45 393.3 -418.75 L413.85 -424.8 Q435.9 -430.4 476.5 -429.5 L476.5 -431.0 478.5 -432.55 482.0 -433.0 484.85 -431.3 Q488.0 -429.1 492.05 -427.5 506.2 -422.0 534.0 -422.0 556.6 -422.0 563.55 -425.75 L566.8 -428.35 Q568.05 -429.5 570.0 -429.5 571.5 -429.5 572.75 -428.65 L575.55 -426.8 Q580.75 -423.95 594.0 -423.5 597.05 -423.35 603.9 -421.15 610.55 -419.0 613.0 -419.0 617.05 -419.0 618.4 -420.5 619.3 -421.5 621.0 -425.0 617.05 -430.9 604.4 -436.05 589.7 -442.0 573.0 -442.0 565.0 -442.0 562.25 -440.9 L558.95 -438.5 Q553.7 -435.0 522.75 -435.0 L501.65 -436.25 Q497.35 -436.9 488.55 -439.2 471.0 -443.7 442.0 -444.5 438.2 -444.55 430.7 -441.65 416.85 -436.25 413.4 -435.1 384.35 -425.5 343.75 -425.5 L312.05 -426.6 296.0 -428.05 Q291.25 -428.35 290.25 -427.0 289.5 -425.95 289.5 -420.5 289.3 -419.0 290.05 -417.5 291.45 -414.5 296.0 -414.5 L316.95 -413.55 364.5 -411.5 M1243.65 -210.65 Q1237.4 -222.15 1227.25 -213.0 1238.35 -207.0 1239.9 -195.85 1240.3 -193.05 1240.2 -187.05 L1240.2 -185.4 1232.15 -183.65 1231.75 -184.0 1230.75 -184.5 1224.25 -185.0 Q1216.5 -185.0 1200.65 -181.0 1184.75 -177.0 1171.0 -177.0 1166.4 -177.0 1158.05 -180.8 1148.45 -185.5 1143.65 -187.35 1135.3 -190.6 1129.95 -189.65 1123.15 -188.45 1119.25 -180.5 L1119.75 -177.5 Q1128.0 -170.45 1139.15 -167.35 1151.5 -164.0 1172.25 -164.0 1194.2 -164.0 1215.25 -171.5 L1219.8 -173.2 Q1235.1 -174.2 1241.8 -179.4 L1245.75 -179.0 1247.25 -181.5 Q1247.25 -182.75 1247.75 -186.35 1248.25 -190.0 1248.25 -192.75 1248.25 -195.85 1247.2 -200.65 1245.85 -206.6 1243.65 -210.65 M1134.75 -230.0 Q1136.95 -230.3 1138.05 -231.2 L1138.75 -232.0 1139.75 -236.5 Q1138.6 -239.6 1137.35 -246.3 1135.9 -254.25 1135.1 -257.05 1133.2 -263.9 1129.65 -267.25 L1129.2 -268.95 Q1126.1 -279.85 1118.25 -271.5 1120.5 -263.75 1121.55 -251.6 1122.25 -243.7 1122.25 -237.0 L1122.15 -230.05 Q1121.9 -226.55 1121.25 -223.5 L1123.25 -224.0 1128.5 -240.6 1129.6 -245.0 Q1132.6 -234.85 1134.75 -230.0 M1229.25 -308.5 L1228.75 -304.5 Q1228.75 -296.8 1232.75 -293.35 L1235.5 -290.7 Q1236.75 -288.85 1236.75 -285.75 1236.75 -284.25 1229.75 -262.85 1222.75 -241.5 1222.75 -233.25 1222.0 -230.2 1222.8 -227.6 1224.4 -222.5 1232.25 -222.5 1235.2 -222.5 1241.7 -251.95 1247.75 -279.5 1247.75 -285.0 L1247.9 -292.95 Q1247.85 -297.55 1246.65 -300.4 1243.4 -308.15 1229.25 -308.5 M30.2 -109.6 L-185.8 -109.6 -185.8 -707.6 30.2 -707.6 30.2 -109.6 M-108.0 -683.75 Q-108.0 -686.7 -108.75 -687.7 L-109.5 -689.0 Q-123.0 -689.9 -131.7 -681.0 -136.05 -679.5 -139.55 -673.05 -143.5 -665.75 -143.5 -659.5 L-143.55 -656.75 Q-144.8 -651.45 -145.45 -645.5 L-146.0 -636.4 -147.5 -629.6 -151.5 -613.0 Q-151.5 -611.3 -147.4 -594.4 -148.0 -591.8 -148.0 -589.75 -148.0 -587.25 -146.0 -563.85 -144.0 -540.5 -144.0 -538.0 L-144.1 -533.55 -144.5 -532.35 -149.5 -517.0 Q-149.5 -513.2 -147.3 -510.6 -145.75 -508.75 -143.25 -507.7 L-142.3 -495.8 Q-141.6 -488.45 -138.5 -484.0 -129.5 -470.95 -110.55 -448.55 -98.0 -433.7 -98.0 -429.25 -98.0 -427.25 -99.0 -416.85 -100.0 -406.5 -100.0 -401.5 -100.0 -390.5 -95.0 -382.85 L-91.55 -377.95 Q-90.0 -375.45 -90.0 -373.25 -90.0 -359.85 -92.5 -349.5 -94.7 -350.4 -97.5 -350.5 L-97.5 -334.6 -98.45 -331.2 Q-100.0 -324.25 -100.0 -314.0 -100.0 -311.5 -98.0 -307.6 L-97.5 -306.6 -97.5 -293.35 -98.0 -291.5 Q-100.0 -284.25 -100.0 -281.75 -100.0 -276.85 -97.0 -258.5 -94.0 -240.1 -94.0 -236.75 -94.0 -235.35 -96.75 -210.75 -99.5 -186.1 -99.5 -180.25 -98.2 -165.45 -94.45 -151.1 -87.05 -122.5 -75.0 -122.5 -72.5 -122.5 -71.5 -124.5 -70.5 -126.5 -68.0 -126.5 -65.4 -126.5 -55.35 -122.5 -45.3 -118.5 -38.0 -118.5 -34.75 -118.5 -34.35 -120.75 -34.1 -122.2 -34.5 -126.75 -34.5 -132.7 -41.7 -137.0 L-49.05 -140.85 -57.5 -145.5 Q-67.9 -152.05 -73.3 -162.05 -79.9 -174.2 -80.45 -193.0 L-80.1 -193.7 Q-78.1 -197.75 -77.45 -200.65 -76.5 -205.15 -76.5 -214.0 -76.5 -223.45 -82.0 -265.95 L-85.15 -290.05 Q-84.2 -303.0 -82.0 -321.1 -78.0 -354.15 -78.0 -369.0 -78.0 -410.7 -86.75 -435.35 -92.35 -451.2 -106.0 -468.0 L-116.3 -481.15 Q-121.8 -489.0 -125.25 -497.25 -129.65 -507.85 -131.85 -522.05 -128.0 -528.85 -128.0 -532.0 -128.0 -538.0 -132.5 -583.0 -132.5 -585.5 -130.5 -587.5 -128.5 -589.5 -128.5 -592.0 L-129.5 -608.1 Q-130.5 -622.6 -130.5 -629.5 -130.5 -638.55 -124.0 -653.95 -120.75 -661.7 -117.5 -668.5 -117.5 -672.35 -118.5 -675.05 L-116.7 -676.0 Q-111.2 -678.55 -110.65 -678.95 -108.0 -680.75 -108.0 -683.75" fill="#384759" fill-rule="evenodd" stroke="none"/>
    <path d="M1351.25 -464.0 Q1365.15 -458.75 1375.15 -453.3 1382.35 -450.5 1402.25 -450.5 1407.0 -450.5 1411.4 -438.1 1418.1 -434.55 1422.75 -430.5 L1421.9 -428.25 Q1421.25 -427.0 1420.25 -426.0 L1414.85 -426.0 1415.7 -422.15 1416.75 -416.5 Q1416.75 -411.65 1415.7 -407.8 1414.85 -404.65 1411.25 -395.5 1408.6 -397.2 1406.7 -399.6 L1407.25 -392.0 Q1408.25 -376.65 1408.25 -367.25 1408.25 -364.75 1406.25 -357.5 1404.25 -350.25 1404.25 -347.75 1404.25 -341.85 1407.5 -331.55 1410.75 -321.2 1410.75 -311.0 1410.75 -302.35 1406.75 -291.85 1402.75 -281.35 1402.75 -279.5 1404.75 -227.25 1404.75 -218.0 1404.75 -213.95 1407.75 -195.7 L1409.6 -183.8 Q1412.8 -183.45 1415.0 -181.05 1417.75 -178.1 1417.75 -173.25 1417.75 -167.5 1412.25 -162.0 1420.45 -155.5 1421.75 -152.7 1422.4 -151.3 1422.4 -149.25 L1422.25 -144.5 Q1422.25 -138.1 1420.3 -131.0 1417.45 -120.5 1412.0 -120.5 1403.35 -120.5 1396.85 -122.15 1386.2 -124.85 1383.75 -131.5 1380.3 -128.45 1377.35 -126.6 1374.05 -124.5 1372.25 -124.5 1364.9 -124.5 1364.85 -129.05 1364.8 -131.35 1366.25 -134.0 L1358.5 -135.0 Q1354.95 -133.8 1346.8 -131.35 1337.25 -128.5 1336.25 -128.5 1330.15 -128.5 1327.2 -130.6 1325.0 -132.25 1324.75 -135.0 L1317.4 -133.7 Q1309.05 -132.0 1306.25 -132.0 L1287.15 -134.5 1268.0 -137.0 Q1262.05 -137.0 1257.45 -135.6 1255.1 -134.9 1250.0 -132.5 1240.4 -128.0 1228.25 -128.0 1223.65 -128.0 1216.15 -130.0 1206.0 -132.7 1201.25 -133.5 1207.8 -136.05 1234.95 -142.85 1263.2 -150.0 1268.25 -150.0 L1283.65 -147.5 Q1296.5 -145.0 1299.0 -145.0 1331.9 -145.0 1360.4 -152.0 1392.75 -159.95 1396.25 -172.5 1396.75 -174.3 1397.5 -175.8 L1393.75 -219.7 Q1389.75 -267.7 1389.75 -278.0 1389.75 -282.35 1393.75 -294.5 1397.75 -306.6 1397.75 -312.5 1397.75 -318.25 1396.5 -339.5 1395.25 -360.75 1395.25 -368.0 1395.25 -371.5 1393.75 -386.2 L1390.75 -413.0 Q1390.25 -413.0 1389.25 -411.0 L1387.25 -411.5 Q1389.15 -420.1 1390.9 -425.95 1370.95 -427.15 1354.6 -436.6 1346.7 -441.15 1341.75 -446.55 1336.7 -443.45 1325.7 -437.7 1309.1 -429.0 1306.75 -429.0 1277.2 -429.0 1263.05 -434.75 1258.75 -436.5 1256.2 -438.7 L1254.25 -440.5 Q1240.15 -437.75 1222.55 -435.0 1187.45 -429.5 1168.0 -429.5 1142.45 -429.5 1123.55 -436.0 1117.75 -438.0 1113.0 -440.45 L1109.25 -442.5 Q1106.25 -442.5 1104.0 -440.85 L1100.3 -437.25 Q1095.1 -432.0 1086.25 -432.0 L1074.95 -432.6 Q1067.3 -433.3 1066.25 -434.0 L1041.9 -435.05 1024.25 -436.5 Q1018.05 -440.85 1017.25 -443.5 L1018.3 -446.6 Q1020.05 -449.5 1024.25 -449.5 L1051.0 -447.0 1077.75 -444.5 Q1090.55 -444.5 1096.1 -450.25 1099.25 -453.55 1100.35 -454.2 1103.25 -456.0 1108.25 -456.0 1111.55 -456.0 1116.0 -454.05 L1125.65 -449.75 Q1141.7 -443.5 1168.0 -443.5 L1203.5 -444.75 1217.25 -446.0 Q1223.45 -446.0 1236.15 -450.5 1248.85 -455.0 1252.25 -455.0 1257.8 -455.0 1262.25 -453.3 L1269.65 -449.5 Q1279.7 -444.0 1294.0 -444.0 1306.8 -444.0 1315.9 -447.65 1321.95 -450.1 1328.45 -455.4 1335.5 -461.2 1338.1 -462.45 1343.75 -465.25 1351.25 -464.0 M433.3 -123.6 L423.5 -121.25 408.2 -117.55 405.75 -117.0 399.45 -117.25 395.0 -117.5 Q462.55 -169.1 610.5 -139.5 L612.5 -136.5 Q611.15 -133.85 609.75 -132.2 607.15 -129.0 604.0 -129.0 L586.15 -130.7 548.0 -132.0 Q538.25 -131.9 523.7 -134.65 508.85 -137.5 497.0 -137.5 478.95 -137.5 468.75 -133.35 L460.65 -129.9 Q455.55 -127.95 449.5 -127.0 444.3 -126.2 433.3 -123.6 M1229.25 -308.5 Q1243.4 -308.15 1246.65 -300.4 1247.85 -297.55 1247.9 -292.95 L1247.75 -285.0 Q1247.75 -279.5 1241.7 -251.95 1235.2 -222.5 1232.25 -222.5 1224.4 -222.5 1222.8 -227.6 1222.0 -230.2 1222.75 -233.25 1222.75 -241.5 1229.75 -262.85 1236.75 -284.25 1236.75 -285.75 1236.75 -288.85 1235.5 -290.7 L1232.75 -293.35 Q1228.75 -296.8 1228.75 -304.5 L1229.25 -308.5 M1134.75 -230.0 Q1132.6 -234.85 1129.6 -245.0 L1128.5 -240.6 1123.25 -224.0 1121.25 -223.5 Q1121.9 -226.55 1122.15 -230.05 L1122.25 -237.0 Q1122.25 -243.7 1121.55 -251.6 1120.5 -263.75 1118.25 -271.5 1126.1 -279.85 1129.2 -268.95 L1129.65 -267.25 Q1133.2 -263.9 1135.1 -257.05 1135.9 -254.25 1137.35 -246.3 1138.6 -239.6 1139.75 -236.5 L1138.75 -232.0 1138.05 -231.2 Q1136.95 -230.3 1134.75 -230.0 M1243.65 -210.65 Q1245.85 -206.6 1247.2 -200.65 1248.25 -195.85 1248.25 -192.75 1248.25 -190.0 1247.75 -186.35 1247.25 -182.75 1247.25 -181.5 L1245.75 -179.0 1241.8 -179.4 Q1235.1 -174.2 1219.8 -173.2 L1215.25 -171.5 Q1194.2 -164.0 1172.25 -164.0 1151.5 -164.0 1139.15 -167.35 1128.0 -170.45 1119.75 -177.5 L1119.25 -180.5 Q1123.15 -188.45 1129.95 -189.65 1135.3 -190.6 1143.65 -187.35 1148.45 -185.5 1158.05 -180.8 1166.4 -177.0 1171.0 -177.0 1184.75 -177.0 1200.65 -181.0 1216.5 -185.0 1224.25 -185.0 L1230.75 -184.5 1231.75 -184.0 1232.15 -183.65 1240.2 -185.4 1240.2 -187.05 Q1240.3 -193.05 1239.9 -195.85 1238.35 -207.0 1227.25 -213.0 1237.4 -222.15 1243.65 -210.65 M364.5 -411.5 L316.95 -413.55 296.0 -414.5 Q291.45 -414.5 290.05 -417.5 289.3 -419.0 289.5 -420.5 289.5 -425.95 290.25 -427.0 291.25 -428.35 296.0 -428.05 L312.05 -426.6 343.75 -425.5 Q384.35 -425.5 413.4 -435.1 416.85 -436.25 430.7 -441.65 438.2 -444.55 442.0 -444.5 471.0 -443.7 488.55 -439.2 497.35 -436.9 501.65 -436.25 L522.75 -435.0 Q553.7 -435.0 558.95 -438.5 L562.25 -440.9 Q565.0 -442.0 573.0 -442.0 589.7 -442.0 604.4 -436.05 617.05 -430.9 621.0 -425.0 619.3 -421.5 618.4 -420.5 617.05 -419.0 613.0 -419.0 610.55 -419.0 603.9 -421.15 597.05 -423.35 594.0 -423.5 580.75 -423.95 575.55 -426.8 L572.75 -428.65 Q571.5 -429.5 570.0 -429.5 568.05 -429.5 566.8 -428.35 L563.55 -425.75 Q556.6 -422.0 534.0 -422.0 506.2 -422.0 492.05 -427.5 488.0 -429.1 484.85 -431.3 L482.0 -433.0 478.5 -432.55 476.5 -431.0 476.5 -429.5 Q435.9 -430.4 413.85 -424.8 L393.3 -418.75 Q379.0 -414.45 364.5 -411.5 M500.15 -335.85 Q506.7 -335.85 509.1 -325.3 509.8 -321.95 510.05 -317.9 L510.1 -314.35 Q510.1 -306.75 507.65 -302.45 506.6 -300.75 502.3 -296.6 498.75 -293.2 497.4 -289.05 495.4 -283.0 496.1 -272.15 496.85 -260.1 494.25 -247.6 492.5 -239.15 489.6 -234.95 489.0 -230.0 486.9 -224.8 L487.15 -225.0 Q487.7 -225.05 487.7 -223.4 487.7 -222.35 482.6 -216.2 L480.85 -213.5 Q476.9 -207.5 472.0 -202.45 L475.75 -197.3 Q483.4 -186.75 483.4 -185.6 483.4 -182.65 481.0 -182.0 L474.85 -181.7 Q471.5 -181.7 467.85 -186.5 464.55 -191.6 463.7 -192.25 460.3 -188.85 456.0 -185.55 447.5 -179.0 442.35 -179.0 437.55 -179.0 429.05 -185.35 L420.5 -192.25 415.75 -186.4 Q411.15 -181.15 408.1 -181.15 401.05 -181.15 399.25 -183.05 398.65 -183.65 398.65 -185.5 398.65 -188.55 404.9 -192.55 L405.85 -194.0 Q409.05 -198.6 412.85 -202.3 L413.7 -203.1 Q412.9 -205.9 410.95 -210.25 L403.65 -227.3 Q392.95 -254.75 392.95 -284.0 L393.15 -293.7 392.95 -307.5 Q392.75 -312.0 397.8 -312.9 L401.6 -313.6 Q403.55 -314.25 404.05 -315.85 404.9 -318.85 408.75 -319.6 L418.05 -320.45 417.6 -324.65 Q417.95 -328.0 422.4 -328.0 424.25 -328.0 435.95 -322.65 449.3 -316.6 454.5 -312.1 456.75 -314.85 459.8 -319.4 462.75 -322.6 468.3 -322.6 471.0 -322.6 472.65 -321.55 L474.75 -319.65 480.15 -319.65 Q474.25 -324.2 472.1 -328.65 471.15 -330.7 470.45 -335.25 469.9 -338.6 467.95 -340.2 465.25 -342.6 457.75 -344.45 L460.7 -339.65 Q462.75 -335.95 464.75 -333.95 L465.05 -333.15 Q462.3 -336.8 455.55 -340.25 451.0 -342.6 451.0 -347.45 451.0 -354.8 458.9 -354.15 466.95 -353.45 474.75 -344.75 475.8 -343.3 476.95 -339.6 L478.55 -334.2 Q479.2 -332.2 483.0 -329.45 487.35 -326.4 488.25 -325.05 494.6 -325.3 495.4 -330.65 495.8 -333.45 496.25 -334.2 497.2 -335.85 500.15 -335.85 M492.55 -302.1 L492.3 -301.3 Q496.45 -304.75 499.35 -310.25 503.05 -317.15 499.3 -319.65 497.85 -317.75 494.35 -316.2 L487.7 -313.45 Q491.15 -311.85 491.8 -308.2 492.0 -304.0 492.55 -302.1 M434.9 -302.7 L428.35 -302.9 Q426.35 -298.75 420.6 -296.05 415.8 -293.7 411.85 -293.7 411.55 -293.7 410.8 -292.65 L408.65 -289.95 402.15 -289.4 402.15 -261.05 408.9 -242.6 Q413.45 -230.4 414.85 -223.8 417.05 -213.3 425.6 -201.65 434.5 -189.55 441.0 -189.55 447.05 -189.55 451.85 -193.85 453.25 -196.2 457.15 -200.75 459.1 -204.4 459.9 -208.45 461.85 -210.75 465.65 -217.35 469.55 -223.4 474.2 -226.25 L476.65 -223.85 476.85 -223.65 479.25 -228.1 480.5 -231.15 Q479.1 -231.7 478.55 -232.9 478.25 -233.55 478.25 -235.25 485.0 -275.1 485.0 -280.25 485.0 -285.75 479.95 -290.25 475.15 -294.55 470.15 -294.55 466.35 -294.55 464.8 -296.65 463.9 -298.95 463.4 -299.4 L462.6 -297.0 Q462.05 -295.6 460.45 -295.6 455.95 -295.6 452.25 -300.0 L448.3 -305.35 Q448.05 -303.7 447.6 -302.4 446.75 -299.95 445.35 -299.95 440.75 -299.95 438.5 -302.1 436.9 -304.4 436.15 -304.8 435.85 -303.45 434.9 -302.7 M-108.0 -683.75 Q-108.0 -680.75 -110.65 -678.95 -111.2 -678.55 -116.7 -676.0 L-118.5 -675.05 Q-117.5 -672.35 -117.5 -668.5 -120.75 -661.7 -124.0 -653.95 -130.5 -638.55 -130.5 -629.5 -130.5 -622.6 -129.5 -608.1 L-128.5 -592.0 Q-128.5 -589.5 -130.5 -587.5 -132.5 -585.5 -132.5 -583.0 -128.0 -538.0 -128.0 -532.0 -128.0 -528.85 -131.85 -522.05 -129.65 -507.85 -125.25 -497.25 -121.8 -489.0 -116.3 -481.15 L-106.0 -468.0 Q-92.35 -451.2 -86.75 -435.35 -78.0 -410.7 -78.0 -369.0 -78.0 -354.15 -82.0 -321.1 -84.2 -303.0 -85.15 -290.05 L-82.0 -265.95 Q-76.5 -223.45 -76.5 -214.0 -76.5 -205.15 -77.45 -200.65 -78.1 -197.75 -80.1 -193.7 L-80.45 -193.0 Q-79.9 -174.2 -73.3 -162.05 -67.9 -152.05 -57.5 -145.5 L-49.05 -140.85 -41.7 -137.0 Q-34.5 -132.7 -34.5 -126.75 -34.1 -122.2 -34.35 -120.75 -34.75 -118.5 -38.0 -118.5 -45.3 -118.5 -55.35 -122.5 -65.4 -126.5 -68.0 -126.5 -70.5 -126.5 -71.5 -124.5 -72.5 -122.5 -75.0 -122.5 -87.05 -122.5 -94.45 -151.1 -98.2 -165.45 -99.5 -180.25 -99.5 -186.1 -96.75 -210.75 -94.0 -235.35 -94.0 -236.75 -94.0 -240.1 -97.0 -258.5 -100.0 -276.85 -100.0 -281.75 -100.0 -284.25 -98.0 -291.5 L-97.5 -293.35 -97.5 -306.6 -98.0 -307.6 Q-100.0 -311.5 -100.0 -314.0 -100.0 -324.25 -98.45 -331.2 L-97.5 -334.6 -97.5 -350.5 Q-94.7 -350.4 -92.5 -349.5 -90.0 -359.85 -90.0 -373.25 -90.0 -375.45 -91.55 -377.95 L-95.0 -382.85 Q-100.0 -390.5 -100.0 -401.5 -100.0 -406.5 -99.0 -416.85 -98.0 -427.25 -98.0 -429.25 -98.0 -433.7 -110.55 -448.55 -129.5 -470.95 -138.5 -484.0 -141.6 -488.45 -142.3 -495.8 L-143.25 -507.7 Q-145.75 -508.75 -147.3 -510.6 -149.5 -513.2 -149.5 -517.0 L-144.5 -532.35 -144.1 -533.55 -144.0 -538.0 Q-144.0 -540.5 -146.0 -563.85 -148.0 -587.25 -148.0 -589.75 -148.0 -591.8 -147.4 -594.4 -151.5 -611.3 -151.5 -613.0 L-147.5 -629.6 -146.0 -636.4 -145.45 -645.5 Q-144.8 -651.45 -143.55 -656.75 L-143.5 -659.5 Q-143.5 -665.75 -139.55 -673.05 -136.05 -679.5 -131.7 -681.0 -123.0 -689.9 -109.5 -689.0 L-108.75 -687.7 Q-108.0 -686.7 -108.0 -683.75" fill="#2e3a49" fill-rule="evenodd" stroke="none"/>
    <path d="M776.4 124.35 L777.6 124.65 Q784.8 126.4 803.5 127.0 803.5 129.2 800.6 133.65 798.25 137.3 799.55 138.95 803.45 143.9 848.5 145.5 850.85 146.7 854.2 150.45 L861.0 158.0 Q916.35 165.8 928.35 175.2 933.25 179.05 934.3 185.3 934.9 189.0 935.5 198.0 936.4 204.0 939.75 206.1 941.7 207.3 946.75 207.8 951.8 208.25 954.15 209.7 957.9 212.1 959.5 218.5 960.05 220.6 959.05 225.4 958.3 229.35 959.85 231.2 964.5 236.7 999.75 237.5 999.7 240.5 998.05 247.1 996.65 252.65 997.2 255.2 999.0 263.05 1022.25 264.5 1043.8 265.9 1049.55 269.55 1051.8 270.95 1052.1 273.0 1052.25 274.05 1051.7 276.65 1051.2 279.0 1051.6 280.25 1052.3 282.15 1055.25 283.45 1062.45 286.65 1086.75 287.5 1088.4 295.9 1094.95 299.6 1099.95 302.4 1109.5 303.1 L1125.9 303.9 Q1135.1 304.75 1139.75 308.0 1136.8 310.95 1135.2 313.55 L1134.25 315.5 Q1134.25 317.95 1146.35 322.55 1159.5 327.5 1170.25 327.5 L1198.4 327.05 Q1205.8 326.85 1206.5 328.05 1206.85 328.6 1206.5 330.2 L1205.6 334.15 Q1204.45 340.9 1206.75 349.0 L1211.75 349.0 Q1213.15 344.75 1214.0 339.25 1214.75 334.3 1214.75 330.25 1214.75 328.9 1212.0 324.35 1209.25 319.8 1209.25 317.5 1209.25 315.95 1210.9 312.1 1212.9 307.45 1213.4 305.45 1215.3 297.7 1207.6 294.5 L1229.75 294.0 Q1235.35 294.0 1240.6 295.1 L1247.9 296.75 Q1254.7 297.95 1263.75 292.0 1263.5 291.25 1262.3 289.8 1261.25 288.5 1261.25 288.0 1217.5 276.2 1200.3 287.7 1190.75 294.1 1190.75 306.5 L1190.7 308.95 1189.0 309.0 1179.65 308.4 1155.25 307.0 Q1153.35 303.85 1154.05 299.75 1154.6 296.4 1153.1 295.35 1150.6 293.65 1140.1 292.75 L1102.75 291.0 Q1102.95 286.2 1100.05 281.9 1096.85 277.1 1090.25 273.5 L1066.75 272.5 Q1067.9 263.75 1057.8 257.7 1044.7 249.85 1014.75 248.5 1014.35 245.35 1015.95 238.7 1017.3 233.2 1015.95 230.65 1011.9 222.9 974.75 221.0 974.0 219.15 973.2 213.6 972.4 208.4 971.0 205.5 966.4 196.0 948.5 193.0 L943.1 178.8 Q939.65 170.2 933.85 164.8 917.4 149.5 866.5 145.0 866.0 143.25 867.3 139.5 868.3 136.6 866.55 135.3 861.55 131.65 821.0 130.5 818.45 128.75 817.55 125.9 L816.75 120.9 Q815.85 114.9 808.0 113.5 L793.0 112.5 Q790.2 111.05 788.15 106.55 785.25 100.1 784.0 98.4 780.6 93.75 773.75 91.4 L773.95 87.45 774.05 85.2 Q776.1 82.6 779.5 79.8 L785.35 75.2 785.85 74.8 Q800.8 75.55 824.55 78.3 L833.5 79.35 829.0 80.5 Q835.9 82.55 837.5 84.2 L838.55 85.8 Q839.1 86.0 874.0 86.0 L894.35 85.4 Q897.55 85.05 900.15 83.95 903.9 82.3 916.5 81.15 921.45 82.5 932.5 82.5 937.3 82.5 939.7 81.1 L943.05 78.65 951.45 76.75 Q958.35 75.0 960.5 75.0 L961.5 75.05 Q961.55 77.5 962.0 78.05 L962.5 79.0 965.0 79.15 965.3 79.5 Q971.25 87.0 980.25 87.0 L1011.75 85.55 Q1039.3 89.5 1046.25 89.5 1051.3 89.5 1053.1 87.65 1055.9 84.7 1059.15 83.5 1065.55 81.1 1080.55 79.7 1085.5 80.6 1090.25 82.0 L1134.7 82.0 Q1145.2 82.5 1157.5 82.5 L1166.4 81.9 1184.8 82.65 1211.25 84.0 Q1281.15 84.0 1342.45 78.75 L1373.3 75.75 Q1373.65 77.1 1374.25 78.0 L1386.25 78.0 Q1403.05 74.4 1412.8 74.6 1420.0 74.75 1426.55 77.3 1437.35 81.55 1438.9 82.0 1447.9 84.5 1461.25 84.5 L1487.8 87.55 1519.7 89.9 1531.7 103.05 1543.55 116.2 Q1554.25 129.15 1554.25 140.5 1554.25 143.0 1552.0 161.9 1549.75 180.75 1549.75 183.25 1549.75 191.55 1553.5 209.6 1556.55 224.2 1557.15 231.8 1550.6 232.15 1546.75 245.0 1544.9 251.35 1534.3 258.35 1522.5 266.1 1506.25 270.0 1492.75 273.2 1456.3 274.85 1422.7 276.35 1414.25 279.5 1405.9 282.6 1387.15 288.2 1374.45 292.0 1371.25 294.5 L1385.05 297.05 1396.25 298.5 Q1412.75 298.5 1421.05 296.2 1426.35 294.7 1440.75 287.5 L1478.25 287.5 Q1480.9 291.85 1481.5 292.45 1483.05 294.0 1486.25 294.0 1489.25 294.0 1493.4 291.95 L1498.25 289.5 Q1499.35 289.5 1499.2 290.45 L1498.9 292.5 Q1499.45 295.5 1510.25 295.5 L1516.05 294.3 Q1522.8 292.7 1529.1 290.35 L1532.55 289.0 Q1535.0 291.0 1539.75 293.0 1536.6 298.15 1534.45 306.15 L1531.25 318.5 1533.25 319.0 Q1533.9 318.4 1535.8 313.55 1538.15 309.0 1541.5 309.0 1558.75 309.0 1569.8 291.55 1574.1 284.7 1576.55 276.4 1578.75 269.0 1578.75 263.0 1578.75 259.7 1576.65 256.2 1574.15 252.0 1570.25 251.5 L1564.75 253.0 1565.25 252.0 Q1569.5 250.45 1570.55 241.5 1570.75 239.6 1570.75 231.0 1570.75 223.95 1567.5 196.3 1564.25 168.7 1564.25 165.75 1564.25 164.1 1565.1 155.0 L1565.25 155.0 Q1567.85 149.8 1573.7 132.95 1579.75 115.6 1579.75 112.75 1579.75 107.6 1577.2 98.55 1575.1 91.1 1572.25 84.9 L1572.95 84.2 Q1576.25 80.95 1576.25 79.25 1576.25 76.2 1572.3 71.0 1566.55 63.5 1557.25 63.5 L1536.5 67.0 1524.5 69.1 1519.55 66.8 Q1513.95 64.0 1507.25 64.0 1503.9 64.0 1502.35 66.4 L1500.9 69.65 1492.05 68.8 1455.55 65.0 Q1399.2 59.5 1354.25 59.5 L1312.4 60.4 Q1269.3 61.35 1250.25 61.5 1248.55 61.5 1242.35 65.0 1236.15 68.5 1235.0 68.5 1227.9 68.5 1208.5 63.0 L1190.25 57.5 Q1187.85 57.5 1184.35 59.3 1179.95 61.8 1177.3 63.25 1168.65 67.95 1159.75 68.8 L1151.0 69.0 Q1114.7 68.75 1099.85 65.25 L1090.4 62.65 Q1085.45 61.5 1078.25 61.5 1075.75 61.5 1064.75 63.75 L1064.2 63.85 1064.2 56.4 1590.2 56.4 1590.2 352.4 1064.2 352.4 1064.2 298.4 904.2 298.4 904.2 168.4 776.4 168.4 776.4 124.35 M1061.5 64.4 L1059.65 64.75 1056.5 64.4 1061.5 64.4 M941.4 64.4 Q940.3 64.9 939.45 65.35 L918.2 66.65 916.4 66.0 Q909.5 63.5 907.0 63.5 L866.0 69.5 Q849.0 69.5 810.65 64.75 L790.8 62.4 914.2 62.4 914.2 64.4 941.4 64.4 M697.35 62.4 Q694.85 63.55 693.95 65.65 L693.5 68.5 Q693.5 74.55 705.0 78.8 710.0 80.65 728.5 85.0 725.95 87.95 727.15 91.25 728.45 94.7 733.45 97.5 741.5 102.05 755.3 103.45 757.95 104.9 761.45 105.0 763.0 108.8 767.05 110.4 L682.4 110.4 682.4 62.4 697.35 62.4 M1162.05 91.3 Q1150.45 91.05 1141.65 94.6 1140.2 95.2 1138.9 95.85 L1137.65 95.15 Q1132.8 92.75 1126.15 93.4 1120.0 94.0 1115.45 96.8 L1114.15 97.7 Q1105.25 101.75 1097.1 113.05 1092.15 119.85 1089.2 127.3 1086.25 134.6 1086.25 139.75 1086.25 142.0 1093.5 155.0 L1100.75 168.0 Q1100.75 170.5 1098.75 187.5 L1096.85 205.2 Q1094.05 207.45 1093.3 209.65 1092.75 211.25 1092.75 218.75 1092.75 225.1 1093.55 227.0 1095.7 232.3 1104.25 236.0 L1106.25 236.25 Q1106.75 236.4 1106.75 233.5 1106.75 232.55 1103.25 227.2 1099.75 221.9 1099.75 218.5 L1100.2 214.3 1100.3 214.5 Q1103.8 220.5 1104.25 220.5 1107.3 220.5 1108.95 219.5 L1110.25 218.5 Q1110.75 211.15 1112.4 194.15 1113.75 179.8 1113.75 177.25 1113.75 172.5 1111.55 167.5 1110.3 164.65 1106.75 158.85 1099.75 147.4 1099.75 139.5 1099.75 130.3 1111.75 114.95 L1118.95 106.35 1125.45 104.8 1130.25 103.5 1129.25 105.5 Q1129.85 106.45 1135.3 109.2 1140.8 112.0 1142.25 112.0 L1152.75 108.75 1163.25 105.5 Q1166.9 105.5 1177.75 107.65 1188.45 109.7 1189.25 110.5 1188.65 111.45 1188.65 112.55 L1188.75 113.5 1193.5 112.8 Q1194.1 115.9 1196.25 118.9 1198.1 121.55 1203.3 126.45 1209.0 131.85 1211.6 135.1 1216.1 140.7 1218.25 147.0 1205.0 153.6 1204.4 171.7 1204.2 177.2 1205.15 188.35 1206.25 200.4 1206.25 205.75 1206.25 210.0 1210.5 218.0 1214.75 226.0 1214.75 229.5 1214.75 233.2 1208.75 238.2 1204.15 242.0 1203.1 243.55 L1192.25 242.5 Q1182.1 242.5 1177.0 246.75 1173.15 251.5 1170.75 252.5 L1155.25 252.5 Q1149.25 250.55 1145.55 248.45 L1141.1 245.65 Q1137.45 243.5 1125.25 243.5 1117.8 243.5 1112.7 245.55 1106.75 247.9 1106.75 252.25 1106.75 255.2 1107.5 256.2 1108.25 257.2 1108.25 257.5 L1109.9 258.0 1115.25 258.5 Q1124.5 258.5 1129.05 258.15 1130.15 258.35 1131.75 259.65 L1137.25 264.0 1150.25 265.0 Q1150.9 265.65 1159.75 266.15 L1172.25 266.5 Q1178.15 266.5 1194.3 262.5 1216.3 257.05 1222.75 249.5 1222.0 248.35 1219.8 247.35 1224.3 243.55 1225.85 235.05 1226.75 230.05 1226.6 223.1 L1226.25 214.75 Q1226.25 210.45 1223.25 202.55 1220.25 194.7 1220.25 189.25 1220.25 177.3 1225.25 164.85 L1228.7 156.15 Q1230.25 151.55 1230.25 147.75 1230.25 140.3 1228.65 136.15 1227.25 132.4 1223.25 128.55 1209.75 117.65 1196.75 103.5 L1195.75 103.5 Q1191.25 98.65 1183.3 95.45 1173.65 91.55 1162.05 91.3" fill="#2f3c4a" fill-rule="evenodd" stroke="none"/>
    <path d="M1064.2 63.85 L1064.75 63.75 Q1075.75 61.5 1078.25 61.5 1085.45 61.5 1090.4 62.65 L1099.85 65.25 Q1114.7 68.75 1151.0 69.0 L1159.75 68.8 Q1168.65 67.95 1177.3 63.25 1179.95 61.8 1184.35 59.3 1187.85 57.5 1190.25 57.5 L1208.5 63.0 Q1227.9 68.5 1235.0 68.5 1236.15 68.5 1242.35 65.0 1248.55 61.5 1250.25 61.5 1269.3 61.35 1312.4 60.4 L1354.25 59.5 Q1399.2 59.5 1455.55 65.0 L1492.05 68.8 1500.9 69.65 1502.35 66.4 Q1503.9 64.0 1507.25 64.0 1513.95 64.0 1519.55 66.8 L1524.5 69.1 1536.5 67.0 1557.25 63.5 Q1566.55 63.5 1572.3 71.0 1576.25 76.2 1576.25 79.25 1576.25 80.95 1572.95 84.2 L1572.25 84.9 Q1575.1 91.1 1577.2 98.55 1579.75 107.6 1579.75 112.75 1579.75 115.6 1573.7 132.95 1567.85 149.8 1565.25 155.0 L1565.1 155.0 Q1564.25 164.1 1564.25 165.75 1564.25 168.7 1567.5 196.3 1570.75 223.95 1570.75 231.0 1570.75 239.6 1570.55 241.5 1569.5 250.45 1565.25 252.0 L1564.75 253.0 1570.25 251.5 Q1574.15 252.0 1576.65 256.2 1578.75 259.7 1578.75 263.0 1578.75 269.0 1576.55 276.4 1574.1 284.7 1569.8 291.55 1558.75 309.0 1541.5 309.0 1538.15 309.0 1535.8 313.55 1533.9 318.4 1533.25 319.0 L1531.25 318.5 1534.45 306.15 Q1536.6 298.15 1539.75 293.0 1535.0 291.0 1532.55 289.0 L1529.1 290.35 Q1522.8 292.7 1516.05 294.3 L1510.25 295.5 Q1499.45 295.5 1498.9 292.5 L1499.2 290.45 Q1499.35 289.5 1498.25 289.5 L1493.4 291.95 Q1489.25 294.0 1486.25 294.0 1483.05 294.0 1481.5 292.45 1480.9 291.85 1478.25 287.5 L1440.75 287.5 Q1426.35 294.7 1421.05 296.2 1412.75 298.5 1396.25 298.5 L1385.05 297.05 1371.25 294.5 Q1374.45 292.0 1387.15 288.2 1405.9 282.6 1414.25 279.5 1422.7 276.35 1456.3 274.85 1492.75 273.2 1506.25 270.0 1522.5 266.1 1534.3 258.35 1544.9 251.35 1546.75 245.0 1550.6 232.15 1557.15 231.8 1556.55 224.2 1553.5 209.6 1549.75 191.55 1549.75 183.25 1549.75 180.75 1552.0 161.9 1554.25 143.0 1554.25 140.5 1554.25 129.15 1543.55 116.2 L1531.7 103.05 1519.7 89.9 1487.8 87.55 1461.25 84.5 Q1447.9 84.5 1438.9 82.0 1437.35 81.55 1426.55 77.3 1420.0 74.75 1412.8 74.6 1403.05 74.4 1386.25 78.0 L1374.25 78.0 Q1373.65 77.1 1373.3 75.75 L1342.45 78.75 Q1281.15 84.0 1211.25 84.0 L1184.8 82.65 1166.4 81.9 1157.5 82.5 Q1145.2 82.5 1134.7 82.0 L1090.25 82.0 Q1085.5 80.6 1080.55 79.7 1065.55 81.1 1059.15 83.5 1055.9 84.7 1053.1 87.65 1051.3 89.5 1046.25 89.5 1039.3 89.5 1011.75 85.55 L980.25 87.0 Q971.25 87.0 965.3 79.5 L965.0 79.15 962.5 79.0 962.0 78.05 Q961.55 77.5 961.5 75.05 L960.5 75.0 Q958.35 75.0 951.45 76.75 L943.05 78.65 939.7 81.1 Q937.3 82.5 932.5 82.5 921.45 82.5 916.5 81.15 903.9 82.3 900.15 83.95 897.55 85.05 894.35 85.4 L874.0 86.0 Q839.1 86.0 838.55 85.8 L837.5 84.2 Q835.9 82.55 829.0 80.5 L833.5 79.35 824.55 78.3 Q800.8 75.55 785.85 74.8 L785.35 75.2 779.5 79.8 Q776.1 82.6 774.05 85.2 L773.95 87.45 773.75 91.4 Q780.6 93.75 784.0 98.4 785.25 100.1 788.15 106.55 790.2 111.05 793.0 112.5 L808.0 113.5 Q815.85 114.9 816.75 120.9 L817.55 125.9 Q818.45 128.75 821.0 130.5 861.55 131.65 866.55 135.3 868.3 136.6 867.3 139.5 866.0 143.25 866.5 145.0 917.4 149.5 933.85 164.8 939.65 170.2 943.1 178.8 L948.5 193.0 Q966.4 196.0 971.0 205.5 972.4 208.4 973.2 213.6 974.0 219.15 974.75 221.0 1011.9 222.9 1015.95 230.65 1017.3 233.2 1015.95 238.7 1014.35 245.35 1014.75 248.5 1044.7 249.85 1057.8 257.7 1067.9 263.75 1066.75 272.5 L1090.25 273.5 Q1096.85 277.1 1100.05 281.9 1102.95 286.2 1102.75 291.0 L1140.1 292.75 Q1150.6 293.65 1153.1 295.35 1154.6 296.4 1154.05 299.75 1153.35 303.85 1155.25 307.0 L1179.65 308.4 1189.0 309.0 1190.7 308.95 1190.75 306.5 Q1190.75 294.1 1200.3 287.7 1217.5 276.2 1261.25 288.0 1261.25 288.5 1262.3 289.8 1263.5 291.25 1263.75 292.0 1254.7 297.95 1247.9 296.75 L1240.6 295.1 Q1235.35 294.0 1229.75 294.0 L1207.6 294.5 Q1215.3 297.7 1213.4 305.45 1212.9 307.45 1210.9 312.1 1209.25 315.95 1209.25 317.5 1209.25 319.8 1212.0 324.35 1214.75 328.9 1214.75 330.25 1214.75 334.3 1214.0 339.25 1213.15 344.75 1211.75 349.0 L1206.75 349.0 Q1204.45 340.9 1205.6 334.15 L1206.5 330.2 Q1206.85 328.6 1206.5 328.05 1205.8 326.85 1198.4 327.05 L1170.25 327.5 Q1159.5 327.5 1146.35 322.55 1134.25 317.95 1134.25 315.5 L1135.2 313.55 Q1136.8 310.95 1139.75 308.0 1135.1 304.75 1125.9 303.9 L1109.5 303.1 Q1099.95 302.4 1094.95 299.6 1088.4 295.9 1086.75 287.5 1062.45 286.65 1055.25 283.45 1052.3 282.15 1051.6 280.25 1051.2 279.0 1051.7 276.65 1052.25 274.05 1052.1 273.0 1051.8 270.95 1049.55 269.55 1043.8 265.9 1022.25 264.5 999.0 263.05 997.2 255.2 996.65 252.65 998.05 247.1 999.7 240.5 999.75 237.5 964.5 236.7 959.85 231.2 958.3 229.35 959.05 225.4 960.05 220.6 959.5 218.5 957.9 212.1 954.15 209.7 951.8 208.25 946.75 207.8 941.7 207.3 939.75 206.1 936.4 204.0 935.5 198.0 934.9 189.0 934.3 185.3 933.25 179.05 928.35 175.2 916.35 165.8 861.0 158.0 L854.2 150.45 Q850.85 146.7 848.5 145.5 803.45 143.9 799.55 138.95 798.25 137.3 800.6 133.65 803.5 129.2 803.5 127.0 784.8 126.4 777.6 124.65 L776.4 124.35 Q771.5 122.95 771.2 120.2 771.1 119.1 771.6 117.1 L772.45 113.35 772.55 111.5 Q769.4 111.3 767.05 110.4 763.0 108.8 761.45 105.0 757.95 104.9 755.3 103.45 741.5 102.05 733.45 97.5 728.45 94.7 727.15 91.25 725.95 87.95 728.5 85.0 710.0 80.65 705.0 78.8 693.5 74.55 693.5 68.5 L693.95 65.65 Q694.85 63.55 697.35 62.4 698.5 61.85 700.0 61.5 740.85 61.5 748.9 60.75 L762.0 60.0 790.8 62.4 810.65 64.75 Q849.0 69.5 866.0 69.5 L907.0 63.5 Q909.5 63.5 916.4 66.0 L918.2 66.65 939.45 65.35 Q940.3 64.9 941.4 64.4 L942.2 64.0 Q951.55 59.5 972.0 59.5 L1005.25 60.5 1030.25 61.5 Q1032.75 61.5 1040.75 63.75 L1041.5 63.95 1051.25 64.0 1056.5 64.4 1059.65 64.75 1061.5 64.4 1064.2 63.85 M1162.05 91.3 Q1173.65 91.55 1183.3 95.45 1191.25 98.65 1195.75 103.5 L1196.75 103.5 Q1209.75 117.65 1223.25 128.55 1227.25 132.4 1228.65 136.15 1230.25 140.3 1230.25 147.75 1230.25 151.55 1228.7 156.15 L1225.25 164.85 Q1220.25 177.3 1220.25 189.25 1220.25 194.7 1223.25 202.55 1226.25 210.45 1226.25 214.75 L1226.6 223.1 Q1226.75 230.05 1225.85 235.05 1224.3 243.55 1219.8 247.35 1222.0 248.35 1222.75 249.5 1216.3 257.05 1194.3 262.5 1178.15 266.5 1172.25 266.5 L1159.75 266.15 Q1150.9 265.65 1150.25 265.0 L1137.25 264.0 1131.75 259.65 Q1130.15 258.35 1129.05 258.15 1124.5 258.5 1115.25 258.5 L1109.9 258.0 1108.25 257.5 Q1108.25 257.2 1107.5 256.2 1106.75 255.2 1106.75 252.25 1106.75 247.9 1112.7 245.55 1117.8 243.5 1125.25 243.5 1137.45 243.5 1141.1 245.65 L1145.55 248.45 Q1149.25 250.55 1155.25 252.5 L1170.75 252.5 Q1173.15 251.5 1177.0 246.75 1182.1 242.5 1192.25 242.5 L1203.1 243.55 Q1204.15 242.0 1208.75 238.2 1214.75 233.2 1214.75 229.5 1214.75 226.0 1210.5 218.0 1206.25 210.0 1206.25 205.75 1206.25 200.4 1205.15 188.35 1204.2 177.2 1204.4 171.7 1205.0 153.6 1218.25 147.0 1216.1 140.7 1211.6 135.1 1209.0 131.85 1203.3 126.45 1198.1 121.55 1196.25 118.9 1194.1 115.9 1193.5 112.8 L1188.75 113.5 1188.65 112.55 Q1188.65 111.45 1189.25 110.5 1188.45 109.7 1177.75 107.65 1166.9 105.5 1163.25 105.5 L1152.75 108.75 1142.25 112.0 Q1140.8 112.0 1135.3 109.2 1129.85 106.45 1129.25 105.5 L1130.25 103.5 1125.45 104.8 1118.95 106.35 1111.75 114.95 Q1099.75 130.3 1099.75 139.5 1099.75 147.4 1106.75 158.85 1110.3 164.65 1111.55 167.5 1113.75 172.5 1113.75 177.25 1113.75 179.8 1112.4 194.15 1110.75 211.15 1110.25 218.5 L1108.95 219.5 Q1107.3 220.5 1104.25 220.5 1103.8 220.5 1100.3 214.5 L1100.2 214.3 1099.75 218.5 Q1099.75 221.9 1103.25 227.2 1106.75 232.55 1106.75 233.5 1106.75 236.4 1106.25 236.25 L1104.25 236.0 Q1095.7 232.3 1093.55 227.0 1092.75 225.1 1092.75 218.75 1092.75 211.25 1093.3 209.65 1094.05 207.45 1096.85 205.2 L1098.75 187.5 Q1100.75 170.5 1100.75 168.0 L1093.5 155.0 Q1086.25 142.0 1086.25 139.75 1086.25 134.6 1089.2 127.3 1092.15 119.85 1097.1 113.05 1105.25 101.75 1114.15 97.7 L1115.45 96.8 Q1120.0 94.0 1126.15 93.4 1132.8 92.75 1137.65 95.15 L1138.9 95.85 Q1140.2 95.2 1141.65 94.6 1150.45 91.05 1162.05 91.3" fill="#26313c" fill-rule="evenodd" stroke="none"/>
  </g>
</svg>
