<?xml version="1.0" encoding="UTF-8" standalone="no"?>
<svg xmlns:ffdec="https://www.free-decompiler.com/flash" xmlns:xlink="http://www.w3.org/1999/xlink" ffdec:objectType="shape" height="1134.9px" width="3145.6px" xmlns="http://www.w3.org/2000/svg">
  <g transform="matrix(1.0, 0.0, 0.0, 1.0, 305.0, 628.5)">
    <path d="M2651.0 -455.5 Q2641.2 -457.9 2637.8 -454.55 2636.0 -452.8 2636.0 -448.75 2636.0 -444.35 2644.25 -433.65 2652.5 -422.95 2652.5 -421.75 2652.5 -419.25 2650.25 -400.75 2648.0 -382.25 2648.0 -379.75 2648.0 -373.65 2652.0 -362.95 2656.0 -352.3 2656.0 -351.25 2652.0 -337.5 2652.0 -334.0 2652.0 -332.35 2654.75 -319.0 L2657.5 -305.5 Q2657.5 -303.15 2655.95 -294.15 2654.0 -282.85 2651.2 -272.3 2642.95 -240.75 2632.0 -232.5 2629.55 -219.9 2625.1 -208.75 2623.0 -203.5 2617.2 -191.7 2612.55 -182.3 2610.7 -176.15 2608.0 -167.15 2608.0 -156.75 2608.0 -139.35 2605.0 -126.3 2602.0 -113.2 2602.0 -105.0 2602.0 -102.9 2606.0 -85.2 L2610.0 -67.5 Q2610.0 -36.95 2606.25 -23.45 2604.25 -16.3 2603.65 -12.1 2602.5 -3.8 2602.5 11.25 2602.5 13.75 2604.5 29.25 2606.5 44.75 2606.5 47.25 2606.5 67.15 2575.5 89.45 2566.1 96.25 2554.2 102.9 L2544.5 108.25 Q2544.5 110.7 2546.5 112.55 2535.75 117.4 2533.5 118.5 L2540.45 120.65 Q2545.35 122.0 2548.5 122.0 2551.65 122.0 2560.15 117.15 L2576.5 118.0 Q2591.8 118.0 2604.55 113.0 2626.0 104.55 2626.0 84.75 2626.0 84.15 2623.25 78.1 2620.5 72.05 2620.5 70.5 2620.5 68.4 2623.5 50.7 L2626.5 33.0 2621.75 9.7 Q2617.0 -13.95 2617.0 -18.25 2617.0 -22.05 2620.0 -44.7 L2623.0 -67.0 Q2623.0 -71.45 2619.0 -86.7 2615.0 -101.95 2615.0 -104.5 2615.0 -110.75 2624.6 -149.1 2635.4 -192.4 2643.0 -205.0 2644.6 -207.55 2648.95 -219.05 2653.85 -231.95 2658.4 -246.2 2671.0 -285.8 2671.0 -304.5 2671.0 -308.1 2668.0 -318.75 2665.0 -329.35 2665.0 -333.75 2665.0 -336.7 2668.0 -341.15 2671.0 -345.6 2671.0 -351.0 2671.0 -354.6 2666.0 -365.25 2661.0 -375.85 2661.0 -379.5 2661.0 -385.35 2664.0 -400.5 2667.0 -415.6 2667.0 -422.25 2667.0 -426.7 2664.95 -430.1 2663.65 -432.25 2660.1 -435.65 2656.2 -439.45 2654.45 -441.85 2651.4 -446.05 2650.0 -451.5 L2651.0 -455.5 M2836.6 260.0 L2780.0 260.0 2780.0 280.0 2740.0 280.0 2740.0 306.4 2124.6 306.4 2124.6 286.4 2070.6 286.4 2070.6 248.4 2016.6 248.4 2016.6 198.4 1940.6 198.4 1940.6 172.4 1796.8 172.4 1796.8 168.4 1580.8 168.4 1580.8 190.4 1460.8 190.4 1460.8 176.4 695.0 176.4 695.0 168.4 615.0 168.4 615.0 148.4 569.0 148.4 569.0 30.4 -297.0 30.4 -297.0 -591.6 -142.0 -591.6 -142.0 -581.5 Q-141.7 -580.55 -141.55 -579.0 L-142.0 -579.0 -142.0 -569.0 -141.8 -568.45 -141.85 -564.95 -141.7 -563.0 Q-142.15 -557.9 -144.05 -548.85 L-148.0 -530.0 Q-148.55 -527.25 -148.1 -524.95 -147.15 -520.5 -142.0 -520.5 -141.65 -520.5 -136.2 -512.35 -130.65 -504.15 -130.0 -504.0 L-100.0 -501.6 -82.0 -500.0 Q-79.7 -500.0 -77.45 -500.7 -74.1 -501.7 -68.0 -502.5 -66.45 -504.05 -61.7 -507.1 -57.15 -510.0 -56.5 -510.0 -54.9 -510.0 -53.45 -508.75 L-50.25 -506.0 Q-44.6 -502.0 -32.0 -502.0 L-13.1 -502.95 Q3.65 -504.25 14.0 -506.5 L41.15 -511.05 60.0 -513.5 Q66.2 -513.5 73.05 -509.4 L82.0 -504.0 108.0 -504.0 Q110.15 -504.35 113.8 -507.55 119.4 -510.5 132.0 -510.5 141.85 -510.5 158.55 -508.05 174.0 -505.75 174.0 -505.0 174.0 -501.95 175.15 -502.1 L180.0 -503.0 Q180.85 -503.0 184.05 -505.55 187.5 -508.25 187.5 -509.75 187.5 -512.7 187.0 -514.45 L186.5 -516.5 Q180.75 -516.2 165.4 -518.8 L148.0 -521.5 120.7 -520.2 Q96.75 -518.6 94.5 -517.0 L80.5 -517.0 Q73.6 -519.25 70.05 -521.55 68.15 -522.75 65.95 -524.3 62.25 -526.0 36.0 -526.0 31.3 -526.0 24.35 -523.8 L10.15 -519.0 Q-11.65 -512.0 -36.0 -512.0 -37.15 -512.0 -38.95 -513.35 L-42.7 -516.25 Q-48.65 -520.5 -56.0 -520.5 -59.25 -520.5 -62.0 -519.0 L-66.55 -515.75 Q-72.8 -511.0 -81.25 -511.0 -99.1 -511.0 -109.0 -512.6 -125.05 -515.25 -128.5 -522.5 -127.0 -524.0 -123.0 -525.5 -129.65 -524.25 -131.45 -531.6 -132.0 -533.95 -132.0 -541.5 -132.0 -546.9 -130.25 -553.2 -128.95 -549.4 -127.0 -547.0 L-127.0 -556.1 Q-124.75 -558.6 -124.05 -563.95 -123.65 -567.2 -123.75 -571.8 L-124.0 -577.5 -124.6 -591.6 326.0 -591.6 323.25 -590.35 Q309.75 -584.0 296.65 -575.55 282.15 -566.15 273.6 -557.55 263.75 -547.7 263.75 -540.75 263.75 -534.3 269.05 -516.85 274.3 -499.6 277.75 -494.25 263.0 -492.65 254.15 -480.3 249.9 -473.7 247.7 -470.75 243.95 -465.7 239.75 -463.75 223.15 -456.05 216.65 -446.75 211.75 -439.7 211.75 -429.75 211.75 -420.25 219.75 -411.35 L225.25 -405.35 Q227.75 -402.25 227.75 -399.75 227.75 -394.95 224.65 -391.3 222.9 -389.3 217.75 -385.6 212.85 -382.1 210.9 -379.45 207.75 -375.35 207.75 -369.75 207.75 -361.45 213.05 -356.15 216.15 -353.05 224.75 -348.6 233.2 -344.2 236.45 -340.8 241.75 -335.25 241.75 -326.5 241.75 -324.0 239.75 -320.1 237.75 -316.25 237.75 -313.75 237.75 -309.65 239.8 -307.2 241.55 -305.1 246.25 -302.8 L257.6 -297.45 Q266.2 -293.3 274.25 -288.25 260.35 -288.1 254.95 -279.55 251.75 -274.5 251.75 -266.5 251.75 -260.65 257.25 -252.85 262.7 -245.2 272.1 -237.7 293.6 -220.45 319.25 -215.25 310.25 -208.3 307.55 -202.4 305.75 -198.55 305.75 -191.25 305.75 -173.85 328.0 -155.9 333.55 -151.4 343.3 -144.25 350.25 -138.7 350.25 -135.75 350.25 -133.75 348.6 -130.35 L345.0 -123.35 Q339.75 -112.85 339.75 -103.5 339.75 -95.3 340.9 -92.5 343.05 -87.05 351.4 -83.1 370.6 -73.9 443.25 -64.75 L473.75 -42.65 Q508.65 -17.9 541.25 2.15 645.2 66.0 697.75 66.0 708.3 66.0 713.75 57.55 717.75 51.3 717.75 44.0 717.75 38.0 713.75 29.0 L713.75 -4.0 Q715.65 -3.8 717.75 -4.0 L776.25 -3.5 783.75 -2.0 881.5 -2.0 Q895.55 -8.85 914.95 -28.0 933.35 -46.25 950.95 -69.95 968.9 -94.15 979.75 -115.7 991.5 -139.15 991.5 -153.25 991.5 -162.7 986.05 -184.3 L978.5 -213.25 Q976.9 -221.1 969.45 -229.9 964.3 -236.0 953.65 -245.3 940.75 -256.55 937.55 -259.75 929.65 -267.7 927.5 -273.75 926.75 -275.9 925.8 -282.75 L923.8 -297.55 Q920.45 -320.2 914.7 -336.1 895.95 -387.75 847.5 -387.75 832.05 -387.75 820.2 -391.75 814.15 -393.8 810.45 -394.5 L794.75 -395.75 Q778.25 -395.75 764.45 -407.95 751.6 -419.3 742.65 -439.6 740.65 -444.2 738.95 -449.0 L744.15 -451.0 Q753.15 -454.5 761.0 -454.5 813.9 -454.35 820.65 -458.4 L822.45 -459.9 Q823.45 -460.75 824.85 -461.2 828.85 -462.5 842.75 -462.5 847.65 -462.5 885.95 -444.25 L923.75 -426.0 Q926.25 -426.0 930.25 -428.25 934.25 -430.5 936.75 -430.5 949.55 -430.5 956.55 -423.5 L961.65 -417.4 Q964.55 -413.7 967.0 -412.0 L980.5 -412.0 Q982.75 -413.85 982.95 -415.9 983.9 -417.0 992.0 -417.0 1003.5 -417.0 1015.3 -411.05 1021.4 -408.0 1035.95 -398.0 1049.3 -388.8 1058.15 -384.95 1065.55 -381.7 1073.25 -380.2 1075.1 -378.45 1078.25 -377.5 1079.4 -378.05 1080.3 -379.1 L1080.45 -379.25 1086.25 -379.0 Q1094.6 -379.0 1096.3 -382.1 1097.2 -383.75 1096.75 -386.5 1092.6 -389.4 1085.35 -393.5 1087.65 -395.0 1091.25 -395.0 1103.8 -395.0 1107.05 -393.65 L1111.7 -391.5 Q1115.75 -389.8 1122.25 -388.0 L1142.75 -388.0 Q1145.9 -389.9 1152.2 -395.8 1156.4 -399.7 1162.25 -401.0 L1169.3 -393.95 Q1174.45 -389.5 1178.75 -389.5 1181.65 -389.5 1192.75 -391.9 L1205.25 -394.5 1239.4 -397.7 1256.25 -399.0 1264.9 -397.3 Q1274.4 -396.45 1281.25 -400.5 L1294.25 -401.0 Q1298.7 -396.55 1305.8 -392.35 1314.1 -387.5 1319.25 -387.5 1322.15 -387.5 1357.15 -396.0 L1392.0 -404.5 1448.0 -404.55 Q1476.95 -404.7 1498.75 -405.5 L1510.45 -406.6 1521.75 -407.0 Q1523.4 -404.05 1525.7 -401.4 1529.15 -397.5 1531.75 -397.5 1540.65 -397.5 1577.75 -420.5 1593.15 -430.05 1603.45 -437.8 1614.75 -446.25 1614.75 -448.75 L1614.7 -451.95 1614.25 -452.5 Q1644.6 -460.35 1670.45 -472.35 1676.65 -475.2 1691.15 -482.45 1704.0 -488.85 1712.15 -492.45 1737.95 -503.85 1770.15 -511.25 1811.35 -520.7 1875.25 -527.0 L1874.75 -528.5 1836.25 -529.0 Q1795.65 -529.0 1783.55 -528.25 1767.35 -527.2 1755.65 -523.1 1749.65 -521.0 1724.5 -509.3 1695.15 -495.6 1662.25 -482.5 1657.7 -480.7 1645.3 -478.7 1630.8 -476.4 1624.65 -474.7 1599.75 -468.0 1599.75 -449.5 1595.8 -443.5 1565.2 -428.7 1555.05 -423.8 1544.35 -419.05 1535.15 -415.0 1534.75 -415.0 1533.25 -415.0 1532.9 -415.85 1532.4 -417.35 1531.95 -417.75 1528.95 -420.5 1512.25 -420.5 L1480.65 -418.0 1449.0 -415.5 Q1388.9 -415.5 1352.75 -409.0 L1332.05 -404.55 Q1323.4 -402.5 1318.75 -402.5 1310.0 -402.5 1306.55 -407.45 L1303.65 -411.45 Q1301.65 -413.6 1298.25 -414.5 L1280.25 -414.5 Q1279.0 -414.3 1274.0 -411.55 1269.35 -409.0 1266.25 -409.0 L1221.8 -407.0 1176.25 -405.0 Q1175.6 -405.0 1174.5 -406.5 L1171.9 -409.75 Q1167.45 -414.5 1160.25 -414.5 1156.7 -414.5 1148.4 -410.0 1139.55 -405.2 1136.75 -401.0 L1123.25 -401.0 Q1115.55 -404.25 1111.2 -405.6 1103.65 -408.0 1091.25 -408.0 1082.75 -408.0 1076.2 -400.5 L1075.0 -399.0 Q1071.75 -400.7 1068.1 -402.55 1042.25 -415.6 1027.25 -419.0 1023.25 -419.85 1018.0 -422.15 L1008.65 -426.05 Q995.65 -430.55 974.5 -429.5 973.4 -429.5 970.1 -431.6 L962.8 -436.35 Q951.55 -443.5 944.0 -444.5 920.2 -447.95 897.9 -457.8 890.9 -460.9 880.25 -466.35 L864.0 -474.5 Q848.6 -478.05 839.25 -478.3 831.85 -478.45 826.2 -476.5 820.2 -473.8 816.7 -472.45 810.45 -470.05 802.5 -469.5 753.35 -466.1 739.4 -462.85 L735.05 -461.6 Q732.25 -472.05 730.65 -483.5 727.25 -507.95 729.75 -532.25 732.2 -555.4 729.35 -571.25 L729.2 -572.1 736.55 -591.6 1750.8 -591.6 1750.8 -593.6 1906.9 -593.6 Q1906.75 -590.45 1906.75 -586.95 L1907.25 -567.25 1907.15 -522.75 Q1905.95 -518.6 1904.25 -515.75 1900.35 -509.05 1882.4 -503.85 1873.15 -501.15 1844.95 -495.6 1831.45 -492.9 1821.85 -490.55 1813.35 -495.75 1801.25 -495.75 1777.8 -495.75 1758.85 -471.75 1751.85 -462.85 1747.3 -452.95 1743.25 -444.1 1743.25 -439.5 1743.25 -424.25 1752.0 -414.25 1756.7 -408.85 1771.25 -399.35 L1774.6 -397.1 Q1771.4 -396.5 1768.3 -394.35 1762.6 -390.35 1758.75 -382.25 1755.25 -374.85 1755.25 -368.75 1755.25 -366.75 1757.7 -358.4 1747.6 -350.45 1738.25 -341.7 1699.25 -305.1 1699.25 -279.75 1699.25 -265.9 1705.4 -252.0 1712.7 -235.5 1726.75 -224.25 1731.7 -220.3 1731.65 -210.2 L1731.45 -202.3 Q1731.4 -198.0 1732.25 -195.75 1734.1 -190.9 1744.2 -180.55 1753.6 -170.9 1754.25 -167.25 1755.75 -158.5 1760.15 -139.4 1764.9 -118.9 1766.25 -111.75 1767.45 -104.65 1771.0 -97.2 1775.55 -87.6 1781.75 -83.25 1785.75 -80.35 1793.4 -77.45 1797.0 -76.05 1803.7 -73.7 1806.25 -63.75 1819.0 -52.25 L1816.5 -47.05 Q1811.25 -36.35 1811.25 -34.5 1811.25 -28.2 1812.05 -25.55 1813.55 -20.55 1818.9 -16.7 1832.55 -6.95 1877.75 -1.0 L1881.8 12.85 Q1886.3 26.05 1893.1 36.2 1914.4 68.0 1956.25 68.0 1961.5 68.0 1965.65 66.1 1976.05 77.9 2000.35 95.25 2028.95 115.7 2066.55 136.65 2105.0 158.05 2137.3 171.25 2172.75 185.75 2190.0 185.75 2212.25 185.75 2222.55 170.2 2229.0 160.45 2229.0 150.0 2229.0 141.75 2227.0 135.75 L2227.0 121.25 2237.0 121.75 2248.9 121.2 2258.5 120.25 2325.0 119.75 Q2376.1 114.2 2397.15 106.45 2408.2 102.35 2415.3 96.55 2421.85 91.2 2426.5 83.0 2429.2 78.3 2431.05 67.65 2432.7 58.2 2436.0 54.5 2441.25 48.65 2453.65 38.4 2464.8 29.2 2467.0 26.0 2473.85 16.0 2474.05 -2.2 2474.1 -7.4 2473.5 -17.3 L2473.2 -23.65 Q2483.45 -42.95 2498.45 -62.1 L2509.85 -76.1 Q2518.65 -79.85 2520.5 -88.65 L2525.75 -94.75 Q2540.35 -112.3 2546.65 -124.95 2555.0 -141.75 2555.0 -160.25 L2554.75 -169.0 Q2558.5 -172.3 2560.85 -174.8 2571.2 -176.85 2577.0 -182.15 2583.65 -188.2 2583.0 -195.75 2583.0 -203.6 2579.0 -208.25 2576.95 -210.7 2570.25 -214.8 2564.1 -218.6 2561.5 -222.4 L2561.2 -222.85 Q2563.0 -229.7 2563.0 -231.25 2563.0 -240.85 2562.45 -244.55 2561.95 -247.85 2560.6 -250.85 L2564.25 -262.1 Q2571.0 -282.15 2571.0 -283.75 2571.0 -288.65 2545.3 -312.2 L2526.5 -329.5 Q2517.3 -338.2 2515.5 -341.25 2499.1 -369.7 2486.55 -384.75 L2486.55 -385.95 Q2487.1 -403.35 2484.35 -411.6 2479.6 -426.15 2462.5 -438.25 2456.75 -442.3 2443.75 -444.3 L2417.85 -446.95 Q2400.75 -448.6 2390.4 -451.3 2375.8 -455.05 2367.0 -462.25 2355.0 -472.1 2353.2 -488.95 2352.9 -491.55 2352.5 -502.5 2352.25 -510.4 2351.0 -514.75 2349.35 -520.3 2347.5 -540.0 2346.1 -554.85 2342.8 -564.2 2342.1 -580.6 2340.65 -593.6 L2836.6 -593.6 2836.6 260.0 M2338.1 -293.15 L2338.45 -290.8 2338.05 -292.35 2338.1 -293.15 M2250.5 -563.4 L2251.35 -563.4 2251.5 -562.9 2250.5 -563.4 M1650.35 -192.4 Q1649.25 -186.95 1647.1 -184.5 L1647.1 -190.0 1648.6 -195.45 Q1649.8 -199.2 1651.6 -200.75 L1650.35 -192.4 M1529.25 -18.5 Q1512.4 -18.4 1505.25 -9.5 L1507.75 -6.5 1532.25 -6.0 1549.05 -7.55 1587.25 -9.5 1587.2 -7.55 Q1587.2 -6.55 1588.0 -6.1 1590.05 -5.0 1602.25 -5.0 1698.4 -5.0 1709.25 -15.0 1673.25 -19.7 1618.95 -22.95 1548.75 -27.1 1548.75 -20.0 1548.75 -17.8 1549.1 -17.0 L1541.65 -17.75 1529.25 -18.5 M1551.0 -181.1 L1544.2 -188.9 Q1537.1 -196.0 1537.1 -186.0 1537.1 -184.1 1541.85 -177.75 1547.65 -170.0 1553.35 -170.0 1556.25 -170.0 1557.45 -171.5 1558.1 -172.25 1558.1 -173.0 1555.75 -175.35 1551.0 -181.1 M1615.35 -231.35 Q1615.35 -230.55 1619.6 -220.65 1623.8 -210.85 1626.1 -206.25 1620.65 -205.75 1619.15 -199.2 1618.6 -196.95 1618.6 -190.5 L1618.1 -186.55 Q1617.8 -183.9 1618.65 -182.2 1621.05 -177.25 1634.6 -177.25 1636.15 -177.25 1637.65 -177.9 1638.4 -178.25 1639.35 -178.75 L1641.1 -174.85 Q1642.35 -172.05 1642.35 -170.85 1642.35 -152.95 1634.5 -132.35 1626.0 -112.65 1620.8 -98.05 1618.35 -97.55 1616.35 -95.3 1614.8 -93.55 1612.25 -88.85 1609.7 -84.2 1608.15 -82.45 1605.5 -79.5 1602.1 -79.5 1598.75 -79.5 1590.55 -88.7 1581.85 -98.5 1577.35 -99.75 1575.15 -100.3 1567.65 -90.25 1560.35 -80.5 1560.35 -78.6 1560.25 -76.85 1560.9 -75.3 1562.25 -72.25 1566.25 -72.25 1568.6 -72.25 1573.75 -76.95 L1580.6 -83.5 Q1584.75 -79.35 1603.6 -67.25 1605.55 -67.25 1611.85 -73.15 1619.0 -79.8 1620.85 -80.75 1621.75 -79.35 1623.05 -75.85 1624.8 -73.0 1629.25 -73.0 1630.85 -73.0 1632.4 -75.25 1633.85 -77.35 1633.85 -79.35 1633.85 -80.6 1629.6 -88.95 L1627.35 -93.05 Q1631.7 -98.1 1637.7 -111.2 1647.25 -131.95 1648.1 -144.0 1649.65 -165.1 1656.7 -176.7 1660.2 -182.55 1661.15 -185.25 L1661.85 -187.45 Q1664.35 -192.0 1664.35 -196.1 1664.35 -201.1 1663.2 -204.8 L1662.3 -207.15 1662.15 -207.75 Q1660.1 -215.75 1654.85 -215.75 1650.75 -215.75 1645.45 -209.55 1640.55 -202.9 1639.6 -202.0 1634.9 -205.75 1634.3 -211.6 L1634.0 -216.7 Q1633.85 -219.8 1633.1 -222.0 1629.6 -230.0 1622.9 -235.35 1615.35 -241.35 1615.35 -231.35 M1563.95 -200.45 Q1562.75 -201.5 1560.85 -201.5 1551.1 -194.1 1551.1 -191.75 1551.45 -189.05 1552.15 -186.55 1553.55 -181.5 1555.35 -181.5 1556.95 -181.5 1564.05 -175.1 1571.15 -168.75 1573.6 -168.75 1576.85 -168.75 1582.55 -173.3 1588.85 -178.35 1589.85 -183.5 L1591.4 -181.15 Q1592.5 -179.8 1593.85 -179.5 L1593.85 -180.0 Q1592.35 -183.25 1590.3 -196.2 1587.5 -207.5 1581.35 -207.5 L1577.15 -207.65 Q1575.4 -207.65 1574.25 -207.05 1572.05 -205.95 1565.35 -198.0 1565.05 -199.5 1563.95 -200.45 M1677.25 -396.45 Q1676.25 -396.25 1675.25 -397.0 1663.45 -397.95 1635.4 -382.75 1616.35 -372.4 1600.25 -361.0 1590.3 -353.95 1578.95 -349.7 1570.95 -346.65 1557.55 -343.6 L1533.7 -337.85 Q1518.9 -333.7 1505.25 -327.5 1507.75 -326.85 1508.75 -326.1 L1509.25 -325.5 Q1519.75 -324.0 1529.25 -324.0 L1545.25 -325.2 1570.25 -326.0 Q1587.0 -335.85 1632.65 -364.4 1677.75 -392.65 1677.75 -393.25 1677.75 -396.25 1677.25 -396.45 M123.25 -163.5 L122.5 -164.0 114.0 -164.0 Q108.7 -164.45 87.3 -159.8 L64.5 -155.0 Q63.65 -155.0 53.9 -158.05 L34.5 -163.55 Q24.35 -165.95 18.0 -166.05 L15.7 -166.1 Q6.5 -165.75 6.5 -158.0 6.5 -156.25 8.8 -153.2 10.2 -151.3 12.0 -149.5 18.95 -151.2 32.75 -150.8 L34.35 -149.5 Q41.1 -145.5 70.0 -145.5 85.95 -145.5 106.1 -152.0 113.55 -154.4 118.95 -156.9 124.0 -159.2 124.0 -160.0 124.0 -163.0 123.25 -163.5 M114.6 -226.0 L112.95 -221.5 Q112.0 -218.7 112.0 -216.25 113.0 -207.25 117.0 -203.5 117.6 -206.2 123.45 -226.2 127.5 -239.95 127.5 -247.0 127.5 -251.4 122.35 -252.65 118.25 -253.65 112.5 -252.5 L112.5 -236.5 Q116.2 -231.2 114.6 -226.0 M2.55 -240.2 Q1.15 -234.5 1.3 -227.0 1.35 -222.35 2.2 -213.3 3.0 -204.7 3.0 -201.0 L3.05 -199.65 3.0 -199.5 3.05 -199.5 3.25 -195.95 3.5 -193.5 7.5 -193.5 Q12.15 -204.3 13.15 -212.35 13.45 -214.9 13.5 -224.4 15.5 -232.25 15.5 -235.0 L15.6 -242.2 Q15.5 -245.5 14.7 -247.35 12.8 -251.65 3.0 -254.5 2.5 -249.0 2.5 -240.75 L2.55 -240.2 M46.65 -453.7 L44.4 -453.0 12.0 -452.0 Q-29.7 -452.0 -32.8 -448.75 -32.9 -447.1 -33.8 -446.5 -35.3 -445.5 -44.0 -445.5 -46.5 -445.5 -50.0 -447.5 -53.5 -449.5 -56.0 -449.5 L-57.3 -449.45 -57.5 -451.5 Q-67.9 -452.45 -77.0 -450.05 -81.55 -448.85 -84.5 -447.5 L-93.55 -446.95 -93.9 -446.9 -94.0 -447.0 -94.05 -446.85 Q-101.5 -445.7 -101.5 -442.5 L-98.75 -428.25 -96.0 -414.0 -91.75 -390.35 Q-87.5 -365.6 -87.5 -359.25 -87.5 -351.15 -90.5 -334.7 -93.5 -318.3 -93.5 -310.75 -93.5 -308.55 -90.5 -301.05 -87.5 -293.55 -87.5 -286.5 -87.5 -279.55 -90.25 -231.95 L-91.7 -206.85 Q-93.5 -211.15 -94.45 -210.15 -96.0 -208.55 -96.0 -187.25 -96.0 -184.75 -94.0 -172.6 -92.0 -160.5 -92.0 -158.0 -92.0 -155.5 -94.0 -153.5 -96.0 -151.5 -96.0 -149.0 -96.0 -146.5 -94.0 -140.75 -92.0 -135.0 -92.0 -132.5 -92.0 -131.4 -93.0 -129.2 L-94.3 -125.7 Q-95.1 -121.55 -88.0 -120.0 L-80.8 -122.3 -77.65 -122.55 -36.0 -124.5 Q-36.0 -125.0 -35.0 -126.0 -34.7 -126.95 -21.55 -127.8 L-8.5 -128.5 -8.25 -128.75 -4.25 -129.0 Q1.5 -129.0 12.45 -126.6 21.7 -125.35 26.5 -130.0 20.4 -134.2 -0.3 -135.1 L-38.65 -137.2 Q-61.15 -139.9 -72.2 -148.55 -86.2 -159.55 -84.5 -181.5 L-84.9 -183.25 Q-78.25 -201.95 -76.7 -227.95 -75.95 -240.15 -76.15 -258.1 L-76.5 -287.25 Q-76.5 -288.3 -79.5 -298.95 -82.5 -309.65 -82.5 -315.0 -82.5 -320.85 -79.5 -336.0 -76.5 -351.1 -76.5 -357.75 -76.5 -360.25 -78.5 -366.0 -80.5 -371.75 -80.5 -374.25 -80.5 -379.5 -82.5 -413.25 -82.5 -418.65 -82.05 -421.1 -81.5 -423.95 -79.7 -426.55 L-79.55 -426.7 Q-76.3 -427.6 -74.15 -429.05 -73.35 -429.55 -70.65 -432.2 -62.45 -431.95 -51.6 -431.95 L-52.0 -432.0 Q-44.25 -432.0 -39.0 -433.3 -39.05 -432.15 -39.8 -431.55 L-39.5 -431.05 Q-39.0 -430.45 -39.0 -433.3 L-36.9 -433.9 Q-35.15 -434.45 -29.95 -437.2 -26.95 -438.85 -23.55 -438.45 -19.15 -437.9 -10.0 -434.0 L19.4 -436.35 51.75 -438.0 78.9 -436.8 95.5 -434.25 Q114.8 -430.95 144.5 -432.0 L135.85 -428.05 Q128.95 -424.65 127.0 -423.5 L129.0 -423.0 Q132.65 -423.85 151.3 -429.7 L162.9 -432.7 174.0 -432.0 180.9 -432.6 Q183.9 -433.2 185.5 -434.0 185.5 -437.0 186.0 -438.5 185.4 -439.1 183.55 -441.7 181.5 -444.0 179.0 -444.0 L174.5 -444.25 174.0 -444.5 173.6 -444.4 169.7 -445.0 148.0 -446.0 130.75 -444.8 103.0 -442.5 Q97.65 -447.85 74.7 -451.45 L52.0 -454.0 46.65 -453.7 M1160.25 -17.5 L1168.25 -18.0 1163.5 -17.55 1160.25 -17.5 M1169.5 -191.25 Q1172.95 -188.95 1169.55 -182.55 1166.85 -177.45 1163.0 -174.25 L1163.25 -175.0 Q1162.7 -176.75 1162.55 -180.65 1161.95 -184.05 1158.75 -185.5 L1164.9 -188.05 Q1168.15 -189.5 1169.5 -191.25 M1038.25 -7.0 L1038.25 -2.5 Q1042.15 -0.05 1043.9 0.7 1046.9 2.0 1050.25 2.0 1064.05 2.0 1067.8 1.6 L1074.4 0.05 Q1087.95 -3.85 1139.75 -9.0 L1199.25 -13.5 1201.0 -13.7 Q1201.25 -13.6 1201.25 -16.5 1201.25 -19.75 1200.2 -20.8 L1197.25 -22.5 Q1143.95 -24.25 1101.45 -16.9 L1070.2 -11.0 Q1052.75 -7.85 1038.25 -7.0 M1121.6 -175.3 L1122.25 -178.0 1125.9 -173.05 Q1129.35 -169.0 1133.5 -169.0 1135.0 -169.0 1135.5 -170.3 L1136.25 -172.5 Q1136.7 -172.1 1137.55 -169.95 1138.95 -168.0 1142.5 -168.0 1147.1 -168.0 1151.55 -164.05 1156.25 -159.85 1156.25 -154.75 1156.25 -150.0 1150.0 -113.1 1150.0 -111.5 1150.25 -110.9 1150.75 -109.8 1152.05 -109.3 L1150.9 -106.45 1148.7 -102.35 1148.5 -102.55 1146.25 -104.75 Q1141.95 -102.1 1138.3 -96.5 1134.8 -90.4 1133.0 -88.25 1132.25 -84.5 1130.45 -81.15 1126.85 -76.9 1125.55 -74.75 1121.1 -70.75 1115.5 -70.75 1109.45 -70.75 1101.2 -81.95 1093.3 -92.75 1091.25 -102.5 1089.95 -108.6 1085.75 -119.9 L1079.5 -137.0 1079.5 -163.25 1085.5 -163.75 Q1086.5 -164.75 1087.5 -166.25 1088.2 -167.25 1088.5 -167.25 1092.15 -167.25 1096.6 -169.4 1101.9 -171.9 1103.75 -175.75 L1109.85 -175.55 Q1110.7 -176.25 1111.0 -177.5 1111.7 -177.15 1113.15 -175.0 1115.25 -173.0 1119.5 -173.0 1120.8 -173.0 1121.6 -175.3 M1142.75 -205.7 Q1143.4 -201.5 1144.3 -199.6 1146.3 -195.5 1151.75 -191.25 L1146.75 -191.25 1144.8 -193.0 Q1143.25 -194.0 1140.75 -194.0 1135.65 -194.0 1132.9 -191.05 L1128.0 -184.25 Q1123.15 -188.45 1110.8 -194.05 1099.95 -199.0 1098.25 -199.0 1094.15 -199.0 1093.8 -195.9 L1094.25 -192.0 1085.6 -191.2 Q1082.05 -190.5 1081.25 -187.75 1080.8 -186.25 1079.0 -185.65 L1075.45 -185.0 Q1070.8 -184.2 1071.0 -180.0 L1071.15 -167.25 1071.0 -158.25 Q1071.0 -131.15 1080.9 -105.75 L1087.65 -89.95 1090.2 -83.3 1089.4 -82.55 Q1085.9 -79.15 1082.95 -74.9 L1082.05 -73.55 Q1076.25 -69.85 1076.25 -67.0 1076.25 -65.3 1076.8 -64.75 1078.5 -63.0 1085.0 -63.0 1087.85 -63.0 1092.1 -67.85 1094.3 -70.3 1096.5 -73.25 L1104.4 -66.85 Q1112.3 -61.0 1116.75 -61.0 1121.5 -61.0 1129.4 -67.05 1133.35 -70.1 1136.5 -73.25 1137.3 -72.65 1140.35 -67.95 1143.75 -63.5 1146.85 -63.5 L1152.55 -63.75 Q1154.75 -64.35 1154.75 -67.1 1154.75 -68.15 1147.65 -77.95 L1144.2 -82.7 Q1148.75 -87.4 1152.4 -92.95 L1154.0 -95.45 Q1158.75 -101.15 1158.75 -102.1 1158.75 -103.65 1158.25 -103.6 L1158.0 -103.4 Q1159.95 -108.25 1160.5 -112.8 1163.2 -116.7 1164.8 -124.55 1167.2 -136.1 1166.5 -147.25 1165.85 -157.3 1167.7 -162.9 1168.95 -166.75 1172.25 -169.9 1176.25 -173.75 1177.2 -175.35 1179.5 -179.3 1179.5 -186.35 L1179.45 -189.65 Q1179.2 -193.4 1178.55 -196.5 1176.35 -206.25 1170.25 -206.25 1167.55 -206.25 1166.65 -204.75 1166.25 -204.05 1165.85 -201.45 1165.15 -196.5 1159.25 -196.25 1158.4 -197.5 1154.4 -200.35 1150.85 -202.9 1150.25 -204.75 L1148.8 -209.75 Q1147.7 -213.15 1146.75 -214.5 1139.5 -222.55 1132.05 -223.2 1124.75 -223.8 1124.75 -217.0 1124.75 -212.5 1128.95 -210.35 1135.2 -207.15 1137.75 -203.75 L1137.5 -204.5 Q1135.65 -206.35 1133.75 -209.8 1131.85 -213.35 1131.0 -214.25 1137.95 -212.5 1140.45 -210.3 1142.25 -208.8 1142.75 -205.7 M1174.0 -313.1 L1173.5 -313.0 1176.25 -314.0 Q1175.0 -313.35 1174.0 -313.1 M830.4 -409.15 Q813.0 -410.05 813.0 -398.0 813.0 -394.85 816.5 -395.35 818.25 -395.6 820.0 -396.5 850.15 -393.4 875.2 -384.05 890.2 -378.45 918.1 -363.8 947.3 -348.5 967.15 -340.65 1000.0 -327.7 1040.75 -319.5 1041.4 -318.85 1057.9 -318.1 L1074.25 -317.5 Q1076.7 -313.25 1093.65 -308.55 1108.3 -304.5 1113.25 -304.5 1143.85 -304.5 1162.3 -309.25 1167.6 -310.6 1172.2 -312.5 L1173.3 -312.95 Q1177.25 -309.95 1182.65 -314.7 1187.75 -319.2 1187.75 -323.5 1187.75 -326.5 1187.25 -327.0 L1186.75 -327.5 1172.25 -327.5 Q1165.95 -325.4 1150.55 -321.85 1135.85 -318.5 1133.75 -318.5 1112.05 -318.5 1094.7 -326.25 1090.4 -328.15 1084.45 -331.6 1080.25 -334.0 1079.25 -334.0 L1075.45 -333.5 Q1074.55 -333.0 1074.25 -333.0 L1074.25 -329.0 1059.25 -328.0 Q1039.15 -328.0 1016.85 -333.65 996.35 -340.25 976.95 -350.55 959.7 -360.35 952.6 -364.0 940.8 -370.15 933.0 -371.0 L939.35 -366.2 926.4 -373.15 Q897.2 -388.4 873.05 -397.8 845.7 -408.35 830.4 -409.15" fill="#384759" fill-rule="evenodd" stroke="none"/>
    <path d="M2651.0 -455.5 L2650.0 -451.5 Q2651.4 -446.05 2654.45 -441.85 2656.2 -439.45 2660.1 -435.65 2663.65 -432.25 2664.95 -430.1 2667.0 -426.7 2667.0 -422.25 2667.0 -415.6 2664.0 -400.5 2661.0 -385.35 2661.0 -379.5 2661.0 -375.85 2666.0 -365.25 2671.0 -354.6 2671.0 -351.0 2671.0 -345.6 2668.0 -341.15 2665.0 -336.7 2665.0 -333.75 2665.0 -329.35 2668.0 -318.75 2671.0 -308.1 2671.0 -304.5 2671.0 -285.8 2658.4 -246.2 2653.85 -231.95 2648.95 -219.05 2644.6 -207.55 2643.0 -205.0 2635.4 -192.4 2624.6 -149.1 2615.0 -110.75 2615.0 -104.5 2615.0 -101.95 2619.0 -86.7 2623.0 -71.45 2623.0 -67.0 L2620.0 -44.7 Q2617.0 -22.05 2617.0 -18.25 2617.0 -13.95 2621.75 9.7 L2626.5 33.0 2623.5 50.7 Q2620.5 68.4 2620.5 70.5 2620.5 72.05 2623.25 78.1 2626.0 84.15 2626.0 84.75 2626.0 104.55 2604.55 113.0 2591.8 118.0 2576.5 118.0 L2560.15 117.15 Q2551.65 122.0 2548.5 122.0 2545.35 122.0 2540.45 120.65 L2533.5 118.5 Q2535.75 117.4 2546.5 112.55 2544.5 110.7 2544.5 108.25 L2554.2 102.9 Q2566.1 96.25 2575.5 89.45 2606.5 67.15 2606.5 47.25 2606.5 44.75 2604.5 29.25 2602.5 13.75 2602.5 11.25 2602.5 -3.8 2603.65 -12.1 2604.25 -16.3 2606.25 -23.45 2610.0 -36.95 2610.0 -67.5 L2606.0 -85.2 Q2602.0 -102.9 2602.0 -105.0 2602.0 -113.2 2605.0 -126.3 2608.0 -139.35 2608.0 -156.75 2608.0 -167.15 2610.7 -176.15 2612.55 -182.3 2617.2 -191.7 2623.0 -203.5 2625.1 -208.75 2629.55 -219.9 2632.0 -232.5 2642.95 -240.75 2651.2 -272.3 2654.0 -282.85 2655.95 -294.15 2657.5 -303.15 2657.5 -305.5 L2654.75 -319.0 Q2652.0 -332.35 2652.0 -334.0 2652.0 -337.5 2656.0 -351.25 2656.0 -352.3 2652.0 -362.95 2648.0 -373.65 2648.0 -379.75 2648.0 -382.25 2650.25 -400.75 2652.5 -419.25 2652.5 -421.75 2652.5 -422.95 2644.25 -433.65 2636.0 -444.35 2636.0 -448.75 2636.0 -452.8 2637.8 -454.55 2641.2 -457.9 2651.0 -455.5 M735.05 -461.6 L739.4 -462.85 Q753.35 -466.1 802.5 -469.5 810.45 -470.05 816.7 -472.45 820.2 -473.8 826.2 -476.5 831.85 -478.45 839.25 -478.3 848.6 -478.05 864.0 -474.5 L880.25 -466.35 Q890.9 -460.9 897.9 -457.8 920.2 -447.95 944.0 -444.5 951.55 -443.5 962.8 -436.35 L970.1 -431.6 Q973.4 -429.5 974.5 -429.5 995.65 -430.55 1008.65 -426.05 L1018.0 -422.15 Q1023.25 -419.85 1027.25 -419.0 1042.25 -415.6 1068.1 -402.55 1071.75 -400.7 1075.0 -399.0 L1076.2 -400.5 Q1082.75 -408.0 1091.25 -408.0 1103.65 -408.0 1111.2 -405.6 1115.55 -404.25 1123.25 -401.0 L1136.75 -401.0 Q1139.55 -405.2 1148.4 -410.0 1156.7 -414.5 1160.25 -414.5 1167.45 -414.5 1171.9 -409.75 L1174.5 -406.5 Q1175.6 -405.0 1176.25 -405.0 L1221.8 -407.0 1266.25 -409.0 Q1269.35 -409.0 1274.0 -411.55 1279.0 -414.3 1280.25 -414.5 L1298.25 -414.5 Q1301.65 -413.6 1303.65 -411.45 L1306.55 -407.45 Q1310.0 -402.5 1318.75 -402.5 1323.4 -402.5 1332.05 -404.55 L1352.75 -409.0 Q1388.9 -415.5 1449.0 -415.5 L1480.65 -418.0 1512.25 -420.5 Q1528.95 -420.5 1531.95 -417.75 1532.4 -417.35 1532.9 -415.85 1533.25 -415.0 1534.75 -415.0 1535.15 -415.0 1544.35 -419.05 1555.05 -423.8 1565.2 -428.7 1595.8 -443.5 1599.75 -449.5 1599.75 -468.0 1624.65 -474.7 1630.8 -476.4 1645.3 -478.7 1657.7 -480.7 1662.25 -482.5 1695.15 -495.6 1724.5 -509.3 1749.65 -521.0 1755.65 -523.1 1767.35 -527.2 1783.55 -528.25 1795.65 -529.0 1836.25 -529.0 L1874.75 -528.5 1875.25 -527.0 Q1811.35 -520.7 1770.15 -511.25 1737.95 -503.85 1712.15 -492.45 1704.0 -488.85 1691.15 -482.45 1676.65 -475.2 1670.45 -472.35 1644.6 -460.35 1614.25 -452.5 L1614.7 -451.95 1614.75 -448.75 Q1614.75 -446.25 1603.45 -437.8 1593.15 -430.05 1577.75 -420.5 1540.65 -397.5 1531.75 -397.5 1529.15 -397.5 1525.7 -401.4 1523.4 -404.05 1521.75 -407.0 L1510.45 -406.6 1498.75 -405.5 Q1476.95 -404.7 1448.0 -404.55 L1392.0 -404.5 1357.15 -396.0 Q1322.15 -387.5 1319.25 -387.5 1314.1 -387.5 1305.8 -392.35 1298.7 -396.55 1294.25 -401.0 L1281.25 -400.5 Q1274.4 -396.45 1264.9 -397.3 L1256.25 -399.0 1239.4 -397.7 1205.25 -394.5 1192.75 -391.9 Q1181.65 -389.5 1178.75 -389.5 1174.45 -389.5 1169.3 -393.95 L1162.25 -401.0 Q1156.4 -399.7 1152.2 -395.8 1145.9 -389.9 1142.75 -388.0 L1122.25 -388.0 Q1115.75 -389.8 1111.7 -391.5 L1107.05 -393.65 Q1103.8 -395.0 1091.25 -395.0 1087.65 -395.0 1085.35 -393.5 1092.6 -389.4 1096.75 -386.5 1097.2 -383.75 1096.3 -382.1 1094.6 -379.0 1086.25 -379.0 L1080.45 -379.25 1080.3 -379.1 Q1079.4 -378.05 1078.25 -377.5 1075.1 -378.45 1073.25 -380.2 1065.55 -381.7 1058.15 -384.95 1049.3 -388.8 1035.95 -398.0 1021.4 -408.0 1015.3 -411.05 1003.5 -417.0 992.0 -417.0 983.9 -417.0 982.95 -415.9 982.75 -413.85 980.5 -412.0 L967.0 -412.0 Q964.55 -413.7 961.65 -417.4 L956.55 -423.5 Q949.55 -430.5 936.75 -430.5 934.25 -430.5 930.25 -428.25 926.25 -426.0 923.75 -426.0 L885.95 -444.25 Q847.65 -462.5 842.75 -462.5 828.85 -462.5 824.85 -461.2 823.45 -460.75 822.45 -459.9 L820.65 -458.4 Q813.9 -454.35 761.0 -454.5 753.15 -454.5 744.15 -451.0 L738.95 -449.0 Q734.75 -447.5 734.0 -447.5 729.1 -447.5 728.0 -451.45 L728.0 -453.75 Q728.0 -457.1 729.95 -458.9 731.55 -460.4 735.05 -461.6 M-124.6 -591.6 L-124.0 -577.5 -123.75 -571.8 Q-123.65 -567.2 -124.05 -563.95 -124.75 -558.6 -127.0 -556.1 L-127.0 -547.0 Q-128.95 -549.4 -130.25 -553.2 -132.0 -546.9 -132.0 -541.5 -132.0 -533.95 -131.45 -531.6 -129.65 -524.25 -123.0 -525.5 -127.0 -524.0 -128.5 -522.5 -125.05 -515.25 -109.0 -512.6 -99.1 -511.0 -81.25 -511.0 -72.8 -511.0 -66.55 -515.75 L-62.0 -519.0 Q-59.25 -520.5 -56.0 -520.5 -48.65 -520.5 -42.7 -516.25 L-38.95 -513.35 Q-37.15 -512.0 -36.0 -512.0 -11.65 -512.0 10.15 -519.0 L24.35 -523.8 Q31.3 -526.0 36.0 -526.0 62.25 -526.0 65.95 -524.3 68.15 -522.75 70.05 -521.55 73.6 -519.25 80.5 -517.0 L94.5 -517.0 Q96.75 -518.6 120.7 -520.2 L148.0 -521.5 165.4 -518.8 Q180.75 -516.2 186.5 -516.5 L187.0 -514.45 Q187.5 -512.7 187.5 -509.75 187.5 -508.25 184.05 -505.55 180.85 -503.0 180.0 -503.0 L175.15 -502.1 Q174.0 -501.95 174.0 -505.0 174.0 -505.75 158.55 -508.05 141.85 -510.5 132.0 -510.5 119.4 -510.5 113.8 -507.55 110.15 -504.35 108.0 -504.0 L82.0 -504.0 73.05 -509.4 Q66.2 -513.5 60.0 -513.5 L41.15 -511.05 14.0 -506.5 Q3.65 -504.25 -13.1 -502.95 L-32.0 -502.0 Q-44.6 -502.0 -50.25 -506.0 L-53.45 -508.75 Q-54.9 -510.0 -56.5 -510.0 -57.15 -510.0 -61.7 -507.1 -66.45 -504.05 -68.0 -502.5 -74.1 -501.7 -77.45 -500.7 -79.7 -500.0 -82.0 -500.0 L-100.0 -501.6 -130.0 -504.0 Q-130.65 -504.15 -136.2 -512.35 -141.65 -520.5 -142.0 -520.5 -147.15 -520.5 -148.1 -524.95 -148.55 -527.25 -148.0 -530.0 L-144.05 -548.85 Q-142.15 -557.9 -141.7 -563.0 L-141.85 -564.95 -141.8 -568.45 -142.0 -569.0 -142.0 -579.0 -141.55 -579.0 Q-141.7 -580.55 -142.0 -581.5 L-142.0 -591.6 -142.0 -595.0 -141.5 -595.0 -141.5 -597.25 Q-141.5 -607.15 -141.05 -609.4 -139.7 -615.75 -134.0 -619.5 L-133.9 -619.4 Q-132.1 -626.2 -125.5 -628.5 -125.8 -618.55 -124.95 -598.7 L-124.6 -591.6 M1677.25 -396.45 Q1677.75 -396.25 1677.75 -393.25 1677.75 -392.65 1632.65 -364.4 1587.0 -335.85 1570.25 -326.0 L1545.25 -325.2 1529.25 -324.0 Q1519.75 -324.0 1509.25 -325.5 L1508.75 -326.1 Q1507.75 -326.85 1505.25 -327.5 1518.9 -333.7 1533.7 -337.85 L1557.55 -343.6 Q1570.95 -346.65 1578.95 -349.7 1590.3 -353.95 1600.25 -361.0 1616.35 -372.4 1635.4 -382.75 1663.45 -397.95 1675.25 -397.0 1676.25 -396.25 1677.25 -396.45 M1563.95 -200.45 Q1565.05 -199.5 1565.35 -198.0 1572.05 -205.95 1574.25 -207.05 1575.4 -207.65 1577.15 -207.65 L1581.35 -207.5 Q1587.5 -207.5 1590.3 -196.2 1592.35 -183.25 1593.85 -180.0 L1593.85 -179.5 Q1592.5 -179.8 1591.4 -181.15 L1589.85 -183.5 Q1588.85 -178.35 1582.55 -173.3 1576.85 -168.75 1573.6 -168.75 1571.15 -168.75 1564.05 -175.1 1556.95 -181.5 1555.35 -181.5 1553.55 -181.5 1552.15 -186.55 1551.45 -189.05 1551.1 -191.75 1551.1 -194.1 1560.85 -201.5 1562.75 -201.5 1563.95 -200.45 M1615.35 -231.35 Q1615.35 -241.35 1622.9 -235.35 1629.6 -230.0 1633.1 -222.0 1633.85 -219.8 1634.0 -216.7 L1634.3 -211.6 Q1634.9 -205.75 1639.6 -202.0 1640.55 -202.9 1645.45 -209.55 1650.75 -215.75 1654.85 -215.75 1660.1 -215.75 1662.15 -207.75 L1662.3 -207.15 1663.2 -204.8 Q1664.35 -201.1 1664.35 -196.1 1664.35 -192.0 1661.85 -187.45 L1661.15 -185.25 Q1660.2 -182.55 1656.7 -176.7 1649.65 -165.1 1648.1 -144.0 1647.25 -131.95 1637.7 -111.2 1631.7 -98.1 1627.35 -93.05 L1629.6 -88.95 Q1633.85 -80.6 1633.85 -79.35 1633.85 -77.35 1632.4 -75.25 1630.85 -73.0 1629.25 -73.0 1624.8 -73.0 1623.05 -75.85 1621.75 -79.35 1620.85 -80.75 1619.0 -79.8 1611.85 -73.15 1605.55 -67.25 1603.6 -67.25 1584.75 -79.35 1580.6 -83.5 L1573.75 -76.95 Q1568.6 -72.25 1566.25 -72.25 1562.25 -72.25 1560.9 -75.3 1560.25 -76.85 1560.35 -78.6 1560.35 -80.5 1567.65 -90.25 1575.15 -100.3 1577.35 -99.75 1581.85 -98.5 1590.55 -88.7 1598.75 -79.5 1602.1 -79.5 1605.5 -79.5 1608.15 -82.45 1609.7 -84.2 1612.25 -88.85 1614.8 -93.55 1616.35 -95.3 1618.35 -97.55 1620.8 -98.05 1626.0 -112.65 1634.5 -132.35 1642.35 -152.95 1642.35 -170.85 1642.35 -172.05 1641.1 -174.85 L1639.35 -178.75 Q1638.4 -178.25 1637.65 -177.9 1636.15 -177.25 1634.6 -177.25 1621.05 -177.25 1618.65 -182.2 1617.8 -183.9 1618.1 -186.55 L1618.6 -190.5 Q1618.6 -196.95 1619.15 -199.2 1620.65 -205.75 1626.1 -206.25 1623.8 -210.85 1619.6 -220.65 1615.35 -230.55 1615.35 -231.35 M1551.0 -181.1 Q1555.75 -175.35 1558.1 -173.0 1558.1 -172.25 1557.45 -171.5 1556.25 -170.0 1553.35 -170.0 1547.65 -170.0 1541.85 -177.75 1537.1 -184.1 1537.1 -186.0 1537.1 -196.0 1544.2 -188.9 L1551.0 -181.1 M1529.25 -18.5 L1541.65 -17.75 1549.1 -17.0 Q1548.75 -17.8 1548.75 -20.0 1548.75 -27.1 1618.95 -22.95 1673.25 -19.7 1709.25 -15.0 1698.4 -5.0 1602.25 -5.0 1590.05 -5.0 1588.0 -6.1 1587.2 -6.55 1587.2 -7.55 L1587.25 -9.5 1549.05 -7.55 1532.25 -6.0 1507.75 -6.5 1505.25 -9.5 Q1512.4 -18.4 1529.25 -18.5 M1650.35 -192.4 L1651.6 -200.75 Q1649.8 -199.2 1648.6 -195.45 L1647.1 -190.0 1647.1 -184.5 Q1649.25 -186.95 1650.35 -192.4 M830.4 -409.15 Q845.7 -408.35 873.05 -397.8 897.2 -388.4 926.4 -373.15 L939.35 -366.2 933.0 -371.0 Q940.8 -370.15 952.6 -364.0 959.7 -360.35 976.95 -350.55 996.35 -340.25 1016.85 -333.65 1039.15 -328.0 1059.25 -328.0 L1074.25 -329.0 1074.25 -333.0 Q1074.55 -333.0 1075.45 -333.5 L1079.25 -334.0 Q1080.25 -334.0 1084.45 -331.6 1090.4 -328.15 1094.7 -326.25 1112.05 -318.5 1133.75 -318.5 1135.85 -318.5 1150.55 -321.85 1165.95 -325.4 1172.25 -327.5 L1186.75 -327.5 1187.25 -327.0 Q1187.75 -326.5 1187.75 -323.5 1187.75 -319.2 1182.65 -314.7 1177.25 -309.95 1173.3 -312.95 L1172.2 -312.5 Q1167.6 -310.6 1162.3 -309.25 1143.85 -304.5 1113.25 -304.5 1108.3 -304.5 1093.65 -308.55 1076.7 -313.25 1074.25 -317.5 L1057.9 -318.1 Q1041.4 -318.85 1040.75 -319.5 1000.0 -327.7 967.15 -340.65 947.3 -348.5 918.1 -363.8 890.2 -378.45 875.2 -384.05 850.15 -393.4 820.0 -396.5 818.25 -395.6 816.5 -395.35 813.0 -394.85 813.0 -398.0 813.0 -410.05 830.4 -409.15 M1174.0 -313.1 Q1175.0 -313.35 1176.25 -314.0 L1173.5 -313.0 1174.0 -313.1 M1142.75 -205.7 Q1142.25 -208.8 1140.45 -210.3 1137.95 -212.5 1131.0 -214.25 1131.85 -213.35 1133.75 -209.8 1135.65 -206.35 1137.5 -204.5 L1137.75 -203.75 Q1135.2 -207.15 1128.95 -210.35 1124.75 -212.5 1124.75 -217.0 1124.75 -223.8 1132.05 -223.2 1139.5 -222.55 1146.75 -214.5 1147.7 -213.15 1148.8 -209.75 L1150.25 -204.75 Q1150.85 -202.9 1154.4 -200.35 1158.4 -197.5 1159.25 -196.25 1165.15 -196.5 1165.85 -201.45 1166.25 -204.05 1166.65 -204.75 1167.55 -206.25 1170.25 -206.25 1176.35 -206.25 1178.55 -196.5 1179.2 -193.4 1179.45 -189.65 L1179.5 -186.35 Q1179.5 -179.3 1177.2 -175.35 1176.25 -173.75 1172.25 -169.9 1168.95 -166.75 1167.7 -162.9 1165.85 -157.3 1166.5 -147.25 1167.2 -136.1 1164.8 -124.55 1163.2 -116.7 1160.5 -112.8 1159.95 -108.25 1158.0 -103.4 L1158.25 -103.6 Q1158.75 -103.65 1158.75 -102.1 1158.75 -101.15 1154.0 -95.45 L1152.4 -92.95 Q1148.75 -87.4 1144.2 -82.7 L1147.65 -77.95 Q1154.75 -68.15 1154.75 -67.1 1154.75 -64.35 1152.55 -63.75 L1146.85 -63.5 Q1143.75 -63.5 1140.35 -67.95 1137.3 -72.65 1136.5 -73.25 1133.35 -70.1 1129.4 -67.05 1121.5 -61.0 1116.75 -61.0 1112.3 -61.0 1104.4 -66.85 L1096.5 -73.25 Q1094.3 -70.3 1092.1 -67.85 1087.85 -63.0 1085.0 -63.0 1078.5 -63.0 1076.8 -64.75 1076.25 -65.3 1076.25 -67.0 1076.25 -69.85 1082.05 -73.55 L1082.95 -74.9 Q1085.9 -79.15 1089.4 -82.55 L1090.2 -83.3 1087.65 -89.95 1080.9 -105.75 Q1071.0 -131.15 1071.0 -158.25 L1071.15 -167.25 1071.0 -180.0 Q1070.8 -184.2 1075.45 -185.0 L1079.0 -185.65 Q1080.8 -186.25 1081.25 -187.75 1082.05 -190.5 1085.6 -191.2 L1094.25 -192.0 1093.8 -195.9 Q1094.15 -199.0 1098.25 -199.0 1099.95 -199.0 1110.8 -194.05 1123.15 -188.45 1128.0 -184.25 L1132.9 -191.05 Q1135.65 -194.0 1140.75 -194.0 1143.25 -194.0 1144.8 -193.0 L1146.75 -191.25 1151.75 -191.25 Q1146.3 -195.5 1144.3 -199.6 1143.4 -201.5 1142.75 -205.7 M1121.6 -175.3 Q1120.8 -173.0 1119.5 -173.0 1115.25 -173.0 1113.15 -175.0 1111.7 -177.15 1111.0 -177.5 1110.7 -176.25 1109.85 -175.55 L1103.75 -175.75 Q1101.9 -171.9 1096.6 -169.4 1092.15 -167.25 1088.5 -167.25 1088.2 -167.25 1087.5 -166.25 1086.5 -164.75 1085.5 -163.75 L1079.5 -163.25 1079.5 -137.0 1085.75 -119.9 Q1089.95 -108.6 1091.25 -102.5 1093.3 -92.75 1101.2 -81.95 1109.45 -70.75 1115.5 -70.75 1121.1 -70.75 1125.55 -74.75 1126.85 -76.9 1130.45 -81.15 1132.25 -84.5 1133.0 -88.25 1134.8 -90.4 1138.3 -96.5 1141.95 -102.1 1146.25 -104.75 L1148.5 -102.55 1148.7 -102.35 1150.9 -106.45 1152.05 -109.3 Q1150.75 -109.8 1150.25 -110.9 1150.0 -111.5 1150.0 -113.1 1156.25 -150.0 1156.25 -154.75 1156.25 -159.85 1151.55 -164.05 1147.1 -168.0 1142.5 -168.0 1138.95 -168.0 1137.55 -169.95 1136.7 -172.1 1136.25 -172.5 L1135.5 -170.3 Q1135.0 -169.0 1133.5 -169.0 1129.35 -169.0 1125.9 -173.05 L1122.25 -178.0 1121.6 -175.3 M1038.25 -7.0 Q1052.75 -7.85 1070.2 -11.0 L1101.45 -16.9 Q1143.95 -24.25 1197.25 -22.5 L1200.2 -20.8 Q1201.25 -19.75 1201.25 -16.5 1201.25 -13.6 1201.0 -13.7 L1199.25 -13.5 1139.75 -9.0 Q1087.95 -3.85 1074.4 0.05 L1067.8 1.6 Q1064.05 2.0 1050.25 2.0 1046.9 2.0 1043.9 0.7 1042.15 -0.05 1038.25 -2.5 L1038.25 -7.0 M1169.5 -191.25 Q1168.15 -189.5 1164.9 -188.05 L1158.75 -185.5 Q1161.95 -184.05 1162.55 -180.65 1162.7 -176.75 1163.25 -175.0 L1163.0 -174.25 Q1166.85 -177.45 1169.55 -182.55 1172.95 -188.95 1169.5 -191.25 M1160.25 -17.5 L1163.5 -17.55 1168.25 -18.0 1160.25 -17.5 M46.65 -453.7 L52.0 -454.0 74.7 -451.45 Q97.65 -447.85 103.0 -442.5 L130.75 -444.8 148.0 -446.0 169.7 -445.0 173.6 -444.4 174.0 -444.5 174.5 -444.25 179.0 -444.0 Q181.5 -444.0 183.55 -441.7 185.4 -439.1 186.0 -438.5 185.5 -437.0 185.5 -434.0 183.9 -433.2 180.9 -432.6 L174.0 -432.0 162.9 -432.7 151.3 -429.7 Q132.65 -423.85 129.0 -423.0 L127.0 -423.5 Q128.95 -424.65 135.85 -428.05 L144.5 -432.0 Q114.8 -430.95 95.5 -434.25 L78.9 -436.8 51.75 -438.0 19.4 -436.35 -10.0 -434.0 Q-19.15 -437.9 -23.55 -438.45 -26.95 -438.85 -29.95 -437.2 -35.15 -434.45 -36.9 -433.9 L-39.0 -433.3 Q-39.0 -430.45 -39.5 -431.05 L-39.8 -431.55 Q-39.05 -432.15 -39.0 -433.3 -44.25 -432.0 -52.0 -432.0 L-51.6 -431.95 Q-62.45 -431.95 -70.65 -432.2 -73.35 -429.55 -74.15 -429.05 -76.3 -427.6 -79.55 -426.7 L-79.7 -426.55 Q-81.5 -423.95 -82.05 -421.1 -82.5 -418.65 -82.5 -413.25 -80.5 -379.5 -80.5 -374.25 -80.5 -371.75 -78.5 -366.0 -76.5 -360.25 -76.5 -357.75 -76.5 -351.1 -79.5 -336.0 -82.5 -320.85 -82.5 -315.0 -82.5 -309.65 -79.5 -298.95 -76.5 -288.3 -76.5 -287.25 L-76.15 -258.1 Q-75.95 -240.15 -76.7 -227.95 -78.25 -201.95 -84.9 -183.25 L-84.5 -181.5 Q-86.2 -159.55 -72.2 -148.55 -61.15 -139.9 -38.65 -137.2 L-0.3 -135.1 Q20.4 -134.2 26.5 -130.0 21.7 -125.35 12.45 -126.6 1.5 -129.0 -4.25 -129.0 L-8.25 -128.75 -8.5 -128.5 -21.55 -127.8 Q-34.7 -126.95 -35.0 -126.0 -36.0 -125.0 -36.0 -124.5 L-77.65 -122.55 -80.8 -122.3 -88.0 -120.0 Q-95.1 -121.55 -94.3 -125.7 L-93.0 -129.2 Q-92.0 -131.4 -92.0 -132.5 -92.0 -135.0 -94.0 -140.75 -96.0 -146.5 -96.0 -149.0 -96.0 -151.5 -94.0 -153.5 -92.0 -155.5 -92.0 -158.0 -92.0 -160.5 -94.0 -172.6 -96.0 -184.75 -96.0 -187.25 -96.0 -208.55 -94.45 -210.15 -93.5 -211.15 -91.7 -206.85 L-90.25 -231.95 Q-87.5 -279.55 -87.5 -286.5 -87.5 -293.55 -90.5 -301.05 -93.5 -308.55 -93.5 -310.75 -93.5 -318.3 -90.5 -334.7 -87.5 -351.15 -87.5 -359.25 -87.5 -365.6 -91.75 -390.35 L-96.0 -414.0 -98.75 -428.25 -101.5 -442.5 Q-101.5 -445.7 -94.05 -446.85 L-94.0 -447.0 -93.9 -446.9 -93.55 -446.95 -84.5 -447.5 Q-81.55 -448.85 -77.0 -450.05 -67.9 -452.45 -57.5 -451.5 L-57.3 -449.45 -56.0 -449.5 Q-53.5 -449.5 -50.0 -447.5 -46.5 -445.5 -44.0 -445.5 -35.3 -445.5 -33.8 -446.5 -32.9 -447.1 -32.8 -448.75 -29.7 -452.0 12.0 -452.0 L44.4 -453.0 46.65 -453.7 M2.55 -240.2 L2.5 -240.75 Q2.5 -249.0 3.0 -254.5 12.8 -251.65 14.7 -247.35 15.5 -245.5 15.6 -242.2 L15.5 -235.0 Q15.5 -232.25 13.5 -224.4 13.45 -214.9 13.15 -212.35 12.15 -204.3 7.5 -193.5 L3.5 -193.5 3.25 -195.95 3.05 -199.5 3.0 -199.5 3.05 -199.65 3.0 -201.0 Q3.0 -204.7 2.2 -213.3 1.35 -222.35 1.3 -227.0 1.15 -234.5 2.55 -240.2 M114.6 -226.0 Q116.2 -231.2 112.5 -236.5 L112.5 -252.5 Q118.25 -253.65 122.35 -252.65 127.5 -251.4 127.5 -247.0 127.5 -239.95 123.45 -226.2 117.6 -206.2 117.0 -203.5 113.0 -207.25 112.0 -216.25 112.0 -218.7 112.95 -221.5 L114.6 -226.0 M123.25 -163.5 Q124.0 -163.0 124.0 -160.0 124.0 -159.2 118.95 -156.9 113.55 -154.4 106.1 -152.0 85.95 -145.5 70.0 -145.5 41.1 -145.5 34.35 -149.5 L32.75 -150.8 Q18.95 -151.2 12.0 -149.5 10.2 -151.3 8.8 -153.2 6.5 -156.25 6.5 -158.0 6.5 -165.75 15.7 -166.1 L18.0 -166.05 Q24.35 -165.95 34.5 -163.55 L53.9 -158.05 Q63.65 -155.0 64.5 -155.0 L87.3 -159.8 Q108.7 -164.45 114.0 -164.0 L122.5 -164.0 123.25 -163.5" fill="#2e3a49" fill-rule="evenodd" stroke="none"/>
    <path d="M-297.0 30.4 L569.0 30.4 569.0 148.4 615.0 148.4 615.0 168.4 695.0 168.4 695.0 176.4 1460.8 176.4 1460.8 190.4 1580.8 190.4 1580.8 168.4 1796.8 168.4 1796.8 172.4 1940.6 172.4 1940.6 198.4 2016.6 198.4 2016.6 248.4 2070.6 248.4 2070.6 286.4 2124.6 286.4 2124.6 306.4 2740.0 306.4 2740.0 280.0 2780.0 280.0 2780.0 260.0 2836.6 260.0 2840.0 260.0 2840.0 306.4 2840.6 306.4 2840.6 446.4 2834.6 446.4 2834.6 506.4 2140.6 506.4 2140.6 488.4 1976.6 488.4 1976.6 476.4 1222.8 476.4 1222.8 432.4 629.0 432.4 629.0 386.4 461.0 386.4 461.05 358.4 -305.0 358.4 -305.0 226.4 -299.0 226.4 -299.0 30.4 -297.0 30.4" fill="#34332f" fill-rule="evenodd" stroke="none"/>
  </g>
</svg>
