<?xml version="1.0" encoding="UTF-8" standalone="no"?>
<svg xmlns:ffdec="https://www.free-decompiler.com/flash" xmlns:xlink="http://www.w3.org/1999/xlink" ffdec:objectType="shape" height="1345.0px" width="2785.0px" xmlns="http://www.w3.org/2000/svg">
  <g transform="matrix(1.0, 0.0, 0.0, 1.0, -17.5, 622.5)">
    <path d="M2800.0 520.0 L2320.0 520.0 2060.0 500.0 1780.0 500.0 1720.0 540.0 1680.0 520.0 1640.0 480.0 1380.0 480.0 1060.0 400.0 720.0 200.0 460.0 -20.0 440.0 -60.0 380.0 -60.0 220.0 40.0 220.0 -200.0 320.0 -220.0 320.0 -420.0" fill="none" stroke="#00ffff" stroke-linecap="round" stroke-linejoin="round" stroke-width="5.0"/>
    <path d="M2800.0 580.0 L1360.0 580.0 680.0 320.0 460.0 160.0 20.0 160.0" fill="none" stroke="#666666" stroke-linecap="round" stroke-linejoin="round" stroke-width="5.0"/>
    <path d="M20.0 160.0 L20.0 720.0 M20.0 -620.0 L20.0 160.0" fill="none" stroke="#ffff00" stroke-linecap="round" stroke-linejoin="round" stroke-width="5.0"/>
  </g>
</svg>
