<?xml version="1.0" encoding="UTF-8" standalone="no"?>
<svg xmlns:ffdec="https://www.free-decompiler.com/flash" xmlns:xlink="http://www.w3.org/1999/xlink" ffdec:objectType="shape" height="294.85px" width="2390.5px" xmlns="http://www.w3.org/2000/svg">
  <g transform="matrix(1.0, 0.0, 0.0, 1.0, 51.9, 98.4)">
    <path d="M2068.15 -31.7 L2085.0 -47.6 Q2155.05 -6.75 2259.1 0.15 L2338.6 5.5 2283.55 5.45 2310.05 142.9 2338.55 162.8 2310.4 163.85 Q2248.1 168.3 2088.2 153.6 1928.3 138.9 1901.45 144.7 1870.95 151.25 1839.7 152.05 1813.1 152.7 1786.65 149.2 1764.2 146.15 1742.25 140.4 1719.55 134.45 1697.7 125.7 L1446.55 184.4 Q1320.65 204.8 1306.65 190.7 1210.7 189.15 1111.25 159.95 1011.75 130.75 869.9 126.75 728.05 122.7 573.9 119.4 427.3 116.25 280.8 110.5 134.4 104.8 -12.2 96.7 -73.65 98.05 -40.0 -40.0 81.6 -127.85 366.45 -83.6 651.25 -39.35 704.0 -52.2 756.8 -65.05 952.15 -59.9 1147.45 -54.75 1224.5 -54.55 1301.55 -54.35 1384.2 -59.6 1529.6 -41.2 1751.95 -89.55 1780.15 -65.35 1905.05 -55.1 2029.95 -44.85 2023.5 -39.4 L2068.15 -31.7" fill="#705f3e" fill-rule="evenodd" stroke="none"/>
    <path d="M755.3 67.25 Q755.3 70.5 754.95 70.2 L754.6 70.85 Q754.05 71.5 752.05 71.5 751.45 71.5 746.85 65.6 742.3 59.75 742.3 59.3 L742.4 57.4 742.95 56.7 Q746.75 55.05 751.25 59.85 755.3 64.15 755.3 67.25" fill="#594b31" fill-rule="evenodd" stroke="none"/>
  </g>
</svg>
