<?xml version="1.0" encoding="UTF-8" standalone="no"?>
<svg xmlns:ffdec="https://www.free-decompiler.com/flash" xmlns:xlink="http://www.w3.org/1999/xlink" ffdec:objectType="shape" height="374.5px" width="2440.0px" xmlns="http://www.w3.org/2000/svg">
  <g transform="matrix(1.0, 0.0, 0.0, 1.0, -80.0, -1085.5)">
    <path d="M2520.0 1460.0 L80.0 1460.0 80.0 1260.0 2520.0 1260.0 2520.0 1460.0" fill="#666666" fill-rule="evenodd" stroke="none"/>
    <path d="M1760.0 1100.0 L1680.0 1120.0 1800.0 1100.0 2120.0 1100.0 2200.0 1120.0 2520.0 1100.0 2520.0 1200.0 2500.0 1220.0 2320.0 1200.0 2280.0 1180.0 2140.0 1200.0 1880.0 1200.0 1680.0 1220.0 1540.0 1200.0 1420.0 1180.0 1140.0 1200.0 800.0 1220.0 560.0 1220.0 420.0 1200.0 300.0 1220.0 80.0 1220.0 80.0 1100.0 300.0 1100.0 340.0 1120.0 420.0 1120.0 540.0 1100.0 660.0 1120.0 780.0 1100.0 1080.0 1100.0 1167.1 1108.7 1174.75 1111.25 Q1181.15 1113.45 1206.8 1117.95 1231.0 1122.25 1234.25 1122.25 1240.7 1122.25 1249.6 1116.95 L1280.0 1120.0 1340.0 1100.0 1427.75 1093.25 1544.25 1093.25 Q1556.6 1090.85 1594.6 1085.5 1595.0 1085.5 1600.2 1088.9 1605.45 1092.25 1611.35 1092.25 L1612.25 1092.25 1620.0 1100.0 1760.0 1100.0" fill="#ad9361" fill-rule="evenodd" stroke="none"/>
  </g>
</svg>
