<?xml version="1.0" encoding="UTF-8" standalone="no"?>
<svg xmlns:ffdec="https://www.free-decompiler.com/flash" xmlns:xlink="http://www.w3.org/1999/xlink" ffdec:objectType="shape" height="372.7px" width="1350.8px" xmlns="http://www.w3.org/2000/svg">
  <g transform="matrix(1.0, 0.0, 0.0, 1.0, -10.6, 140.2)">
    <path d="M1310.55 -137.6 Q1315.5 -140.9 1343.1 -140.0 1356.8 -133.55 1360.15 -120.15 1361.35 -115.35 1361.4 -108.75 L1361.25 -98.4 Q1361.25 -92.05 1360.1 -81.55 L1357.5 -59.75 Q1353.75 -26.35 1353.75 8.4 1353.75 31.8 1211.55 67.35 1161.1 79.95 1099.3 92.35 1051.5 102.0 1017.8 107.5 941.4 120.25 894.35 134.65 862.4 144.45 830.25 160.2 L804.6 172.7 Q789.4 179.9 774.9 185.3 736.8 199.55 677.8 211.25 L602.8 211.25 Q572.7 209.8 551.4 207.15 510.45 232.5 422.5 232.5 378.3 232.5 303.25 224.15 L253.25 218.35 Q229.95 215.7 223.1 215.6 167.65 215.0 139.8 208.1 131.2 205.95 125.35 203.2 121.0 200.85 120.0 200.6 92.65 194.75 74.95 187.45 62.35 182.3 38.1 168.75 25.65 161.8 16.95 118.15 14.1 103.7 12.15 87.55 10.6 75.05 10.6 71.55 10.6 55.3 13.2 48.15 17.6 36.25 30.6 36.25 53.35 36.25 112.85 29.4 L171.25 22.5 Q234.15 22.5 292.25 36.9 306.8 40.45 330.5 46.75 349.35 51.25 362.15 51.25 407.45 51.25 448.55 39.1 463.2 34.75 479.65 28.15 L504.45 17.85 Q517.0 12.7 524.3 11.0 533.65 8.85 540.5 10.5 L542.6 11.15 Q563.0 -1.65 612.7 -18.2 671.0 -37.65 740.3 -53.75 744.35 -54.65 786.0 -70.0 831.35 -86.15 854.65 -91.25 863.7 -93.2 886.3 -94.75 L929.25 -97.4 Q985.4 -101.15 995.9 -108.75 999.05 -111.1 999.65 -115.5 1000.25 -119.8 1002.8 -121.5 1011.6 -127.5 1067.8 -127.5 L1103.45 -124.35 1139.05 -121.25 Q1171.35 -121.25 1180.75 -123.85 L1187.9 -126.65 Q1192.55 -128.65 1198.1 -130.0 L1296.25 -131.25 Q1303.5 -132.4 1306.65 -134.4 1308.4 -135.55 1310.55 -137.6" fill="#ad9361" fill-rule="evenodd" stroke="none"/>
  </g>
</svg>
