<?xml version="1.0" encoding="UTF-8" standalone="no"?>
<svg xmlns:ffdec="https://www.free-decompiler.com/flash" xmlns:xlink="http://www.w3.org/1999/xlink" ffdec:objectType="shape" height="2065.0px" width="2465.0px" xmlns="http://www.w3.org/2000/svg">
  <g transform="matrix(1.0, 0.0, 0.0, 1.0, 102.5, 1442.5)">
    <path d="M2300.0 -760.0 L2060.0 -800.0 1920.0 -820.0 1680.0 -820.0 1440.0 -780.0 M1200.0 -780.0 L920.0 -780.0" fill="none" stroke="#0000ff" stroke-linecap="round" stroke-linejoin="round" stroke-width="5.0"/>
    <path d="M920.0 -780.0 L920.0 -540.0 M920.0 -780.0 L920.0 -1100.0 920.0 -1440.0" fill="none" stroke="#ffff00" stroke-linecap="round" stroke-linejoin="round" stroke-width="5.0"/>
    <path d="M720.0 -60.0 L720.0 -240.0 720.0 -520.0 M-100.0 -80.0 L60.0 -40.0 340.0 -40.0 660.0 180.0 920.0 320.0 1140.0 420.0 1460.0 480.0 1720.0 480.0 2360.0 460.0" fill="none" stroke="#00ffff" stroke-linecap="round" stroke-linejoin="round" stroke-width="5.0"/>
    <path d="M180.0 -220.0 L240.0 -260.0 200.0 -280.0 180.0 -320.0 M380.0 -200.0 L320.0 -220.0 240.0 -260.0 M160.0 -160.0 L200.0 -120.0 300.0 -120.0 M340.0 -40.0 L720.0 -60.0 M1520.0 320.0 L1420.0 300.0 M2040.0 300.0 L1960.0 300.0" fill="none" stroke="#ff0000" stroke-linecap="round" stroke-linejoin="round" stroke-width="5.0"/>
    <path d="M-100.0 80.0 L220.0 80.0 1200.0 620.0 2360.0 620.0" fill="none" stroke="#9900ff" stroke-linecap="round" stroke-linejoin="round" stroke-width="5.0"/>
    <path d="M720.0 -240.0 L2300.0 -240.0 M920.0 -780.0 L-0.05 -780.0" fill="none" stroke="#00ff00" stroke-linecap="round" stroke-linejoin="round" stroke-width="5.0"/>
    <path d="M920.0 -1100.0 L2360.0 -1100.0" fill="none" stroke="#000000" stroke-linecap="round" stroke-linejoin="round" stroke-width="5.0"/>
    <path d="M1440.0 -780.0 L1200.0 -780.0" fill="none" stroke="#ff00ff" stroke-linecap="round" stroke-linejoin="round" stroke-width="5.0"/>
  </g>
</svg>
