<?xml version="1.0" encoding="UTF-8" standalone="no"?>
<svg xmlns:ffdec="https://www.free-decompiler.com/flash" xmlns:xlink="http://www.w3.org/1999/xlink" ffdec:objectType="shape" height="194.4px" width="2443.5px" xmlns="http://www.w3.org/2000/svg">
  <g transform="matrix(1.0, 0.0, 0.0, 1.0, 10.0, -103.1)">
    <path d="M2422.3 146.55 Q2420.9 163.55 2426.75 174.0 2432.55 184.45 2433.1 198.5 2433.65 212.55 2433.45 216.55 2433.25 220.85 2432.1 222.5 2430.2 225.1 2424.45 226.45 2412.3 229.35 2365.7 229.35 L2353.85 228.25 2333.05 226.25 2314.35 225.85 2294.2 225.0 2238.7 225.0 2237.15 225.6 2167.5 226.25 2157.7 226.55 Q2147.1 227.25 2136.75 230.6 L2083.1 231.25 2047.75 233.25 2043.45 233.5 Q2043.65 236.65 2045.4 247.0 2047.4 258.75 2047.4 261.25 2047.4 265.85 2045.0 271.05 2041.85 277.75 2035.35 283.05 2017.65 297.5 1980.4 297.5 1927.65 297.5 1866.45 293.2 1823.25 290.2 1807.8 288.0 L1736.55 287.5 1726.0 286.0 1399.3 285.5 1383.75 283.75 1366.7 282.0 1294.95 281.5 1285.9 280.0 1226.7 279.5 1212.7 278.55 1197.6 278.0 1159.95 279.4 1122.35 281.5 1049.05 282.0 1040.05 283.5 930.4 284.0 921.6 284.95 911.3 285.5 719.3 276.3 Q505.35 267.45 395.45 269.5 L301.15 269.5 Q279.25 264.15 246.85 263.8 236.8 263.7 223.6 264.1 L207.8 264.5 196.3 265.8 186.7 267.5 136.05 268.0 128.7 268.95 119.5 269.5 Q99.15 269.5 87.1 266.45 81.95 265.15 71.2 260.35 62.8 256.6 53.6 255.7 40.3 254.35 16.1 257.0 -4.2 246.1 -5.95 230.45 -6.5 225.45 -5.3 216.9 -3.95 207.0 -3.95 203.5 -3.95 199.45 -7.0 176.7 -10.0 153.95 -10.0 151.75 -10.0 142.0 -7.55 134.6 -3.45 122.5 6.05 122.5 9.15 122.5 14.85 124.45 L23.65 127.5 87.85 129.5 147.1 130.2 147.1 127.55 182.5 125.95 Q213.75 124.35 234.0 124.4 284.95 124.45 297.95 134.0 L299.55 133.9 334.9 131.45 Q392.1 127.85 457.3 127.85 489.35 127.85 500.9 128.7 525.75 130.5 534.35 135.65 L544.5 135.5 556.05 132.5 606.25 131.5 Q622.95 130.9 644.15 127.9 L670.45 124.5 774.85 124.5 778.35 125.5 Q891.45 161.8 860.65 127.5 L895.4 128.0 Q891.05 125.6 887.55 122.75 L887.55 119.1 909.15 121.15 930.7 123.15 Q934.0 123.15 939.95 118.9 945.95 114.65 949.5 114.65 967.65 114.65 977.35 118.4 983.6 120.8 989.15 126.65 995.1 132.9 999.3 134.9 L1000.85 135.6 1096.25 136.5 1113.7 137.65 Q1111.3 132.65 1111.3 126.55 1111.3 123.05 1112.9 121.7 1114.35 120.5 1117.9 120.55 L1126.4 121.2 1138.65 121.85 1148.9 120.55 1159.1 119.25 Q1163.8 119.25 1177.45 115.3 1191.1 111.35 1196.25 111.35 L1230.75 113.45 1261.3 115.5 1273.6 114.55 1293.55 111.75 Q1296.85 111.4 1298.2 109.9 1298.7 109.35 1299.6 107.0 1301.1 103.1 1308.9 103.1 1318.95 103.1 1334.45 108.4 1348.75 113.3 1363.45 121.2 1369.5 124.4 1374.6 127.6 1407.75 123.15 1427.4 118.5 L1505.7 118.5 1517.55 120.65 Q1527.85 122.35 1531.3 123.5 L1618.1 124.5 1629.9 126.0 1641.7 127.5 1671.65 127.5 1671.45 126.4 1671.15 123.55 Q1671.15 121.4 1672.5 120.05 1674.05 118.5 1677.0 118.5 L1701.1 119.65 Q1711.2 121.1 1728.55 126.55 L1734.75 126.0 1748.55 124.5 1809.3 123.5 1825.05 120.5 Q1836.8 118.75 1863.0 117.5 L1863.0 116.5 1945.3 116.5 Q1955.05 117.1 1967.1 118.95 1980.15 121.0 1988.95 123.5 L2021.8 123.5 Q2024.05 121.25 2027.6 119.9 2031.15 118.5 2034.85 118.5 2038.3 118.5 2041.3 125.4 L2045.55 125.2 2062.1 124.35 2064.85 124.7 2065.25 125.0 2065.55 125.35 Q2065.85 125.5 2065.85 127.3 2065.85 129.7 2062.95 130.7 2058.45 132.25 2044.55 132.5 L2058.85 133.75 Q2065.5 133.75 2089.8 130.45 L2120.45 126.85 Q2158.85 124.9 2166.15 122.5 L2168.65 121.1 2173.75 120.6 Q2176.35 120.6 2178.6 121.9 L2181.65 124.05 2222.45 122.45 2243.4 120.6 2324.3 120.0 Q2375.05 109.75 2398.55 114.0 2414.2 116.8 2419.35 127.15 2423.65 129.5 2422.3 146.55" fill="#ad9361" fill-rule="evenodd" stroke="none"/>
  </g>
</svg>
