<?xml version="1.0" encoding="UTF-8" standalone="no"?>
<svg xmlns:ffdec="https://www.free-decompiler.com/flash" xmlns:xlink="http://www.w3.org/1999/xlink" ffdec:objectType="shape" height="78.75px" width="800.25px" xmlns="http://www.w3.org/2000/svg">
  <g transform="matrix(1.0, 0.0, 0.0, 1.0, -767.0, 297.35)">
    <path d="M874.9 -269.8 Q892.2 -270.2 894.1 -269.45 894.85 -269.15 894.3 -267.9 893.7 -266.5 895.0 -265.5 L908.0 -265.0 Q909.8 -264.25 911.45 -262.45 913.0 -260.65 913.0 -259.5 L940.5 -256.1 997.3 -249.05 Q1084.9 -239.0 1134.5 -239.0 1137.75 -239.0 1162.9 -242.55 1188.95 -245.65 1199.75 -243.5 1207.5 -242.15 1208.35 -244.15 L1208.5 -246.15 Q1208.55 -247.4 1209.25 -248.0 L1206.0 -249.55 Q1202.45 -251.2 1201.25 -253.0 1203.65 -256.85 1205.4 -258.2 1208.65 -260.6 1212.75 -258.5 1210.6 -259.75 1203.3 -266.55 L1191.25 -278.0 Q1196.65 -280.6 1200.7 -284.35 L1206.7 -289.8 Q1214.0 -295.0 1236.25 -295.0 1246.65 -295.0 1281.95 -288.25 1317.3 -281.5 1319.25 -281.5 1321.55 -281.5 1324.45 -282.35 L1330.5 -284.25 Q1340.25 -287.0 1355.25 -287.0 1412.5 -287.0 1438.6 -281.6 1465.85 -276.0 1464.75 -263.5 1472.5 -262.55 1489.85 -262.8 L1520.2 -262.95 Q1557.85 -262.2 1567.25 -251.0 1567.25 -249.65 1566.05 -248.0 1564.65 -246.0 1562.25 -245.0 L1510.75 -244.0 Q1484.55 -246.2 1462.55 -243.8 L1449.9 -241.95 1445.25 -241.0 1423.4 -242.05 Q1409.75 -243.5 1405.25 -246.5 1376.15 -246.75 1343.05 -249.45 L1295.25 -252.0 Q1293.3 -252.0 1292.9 -250.8 1292.7 -249.2 1292.2 -248.35 1290.4 -245.25 1276.8 -246.9 1277.25 -246.5 1277.25 -243.5 1277.25 -242.0 1275.0 -239.1 L1275.25 -236.25 Q1275.25 -233.05 1272.25 -231.4 L1266.25 -229.0 1264.0 -229.8 1262.15 -228.8 Q1239.2 -216.6 1196.25 -219.0 L1080.25 -219.0 Q949.4 -224.2 910.0 -238.5 L905.0 -240.2 Q888.75 -245.3 867.5 -247.2 L862.45 -247.6 827.05 -248.7 Q804.65 -248.9 796.85 -250.45 785.0 -252.8 785.0 -260.0 L785.15 -261.4 Q786.1 -267.15 795.45 -271.45 798.4 -272.85 802.2 -274.1 808.2 -276.05 818.45 -278.3 L819.0 -278.4 835.0 -282.0 830.45 -286.05 828.05 -288.6 Q826.35 -290.5 825.0 -292.5 828.45 -296.55 841.05 -297.2 854.4 -297.95 880.0 -295.0 883.2 -293.75 885.0 -291.0 882.35 -287.2 881.55 -286.55 L881.35 -286.35 Q878.0 -283.75 871.0 -282.5 871.5 -281.75 872.4 -281.55 873.0 -281.05 873.0 -278.0 873.0 -275.95 871.75 -274.9 871.25 -274.5 870.6 -274.25 L860.95 -272.1 860.5 -272.0 863.0 -269.5 874.9 -269.8 M1411.75 -269.5 L1432.75 -269.5 1377.75 -276.0 1411.75 -269.5 M1410.75 -258.0 L1426.25 -257.5 1410.25 -258.5 1410.75 -258.0 M816.0 -262.0 L814.0 -261.5 823.0 -262.0 Q818.0 -262.5 816.0 -262.0 M1240.25 -284.5 Q1220.25 -284.5 1218.25 -284.0 1215.25 -283.0 1213.25 -281.5 1223.25 -279.0 1228.25 -279.0 1231.45 -279.0 1232.65 -279.7 L1234.75 -281.5 1240.25 -284.5" fill="#9e8452" fill-rule="evenodd" stroke="none"/>
    <path d="M905.0 -240.2 L862.45 -247.6 867.5 -247.2 Q888.75 -245.3 905.0 -240.2 M785.15 -261.4 Q767.0 -264.8 767.0 -265.25 767.0 -268.55 768.4 -269.6 768.75 -269.9 772.0 -271.0 L795.45 -271.45 Q786.1 -267.15 785.15 -261.4 M819.0 -278.4 Q819.1 -282.65 821.5 -285.15 823.7 -287.35 828.05 -288.6 L830.45 -286.05 835.0 -282.0 819.0 -278.4 M881.35 -286.35 L904.0 -282.5 904.5 -283.25 Q905.0 -283.35 905.0 -280.25 905.0 -277.05 903.25 -275.95 L900.0 -275.0 Q884.8 -274.35 871.75 -274.9 873.0 -275.95 873.0 -278.0 873.0 -281.05 872.4 -281.55 871.5 -281.75 871.0 -282.5 878.0 -283.75 881.35 -286.35 M860.95 -272.1 L866.95 -271.25 874.9 -269.8 863.0 -269.5 860.5 -272.0 860.95 -272.1 M816.0 -262.0 Q818.0 -262.5 823.0 -262.0 L814.0 -261.5 816.0 -262.0" fill="#ad9361" fill-rule="evenodd" stroke="none"/>
  </g>
</svg>
