<?xml version="1.0" encoding="UTF-8" standalone="no"?>
<svg xmlns:ffdec="https://www.free-decompiler.com/flash" xmlns:xlink="http://www.w3.org/1999/xlink" ffdec:objectType="shape" height="640.0px" width="2051.3px" xmlns="http://www.w3.org/2000/svg">
  <g transform="matrix(1.0, 0.0, 0.0, 1.0, 33.05, 629.95)">
    <path d="M2002.1 -434.2 L2018.25 -429.75 2018.25 -5.75 1939.45 -12.95 1813.2 -12.95 1810.2 -11.95 1732.7 -10.95 Q1705.5 -10.5 1677.65 -7.55 L1640.2 -3.95 1615.15 -3.3 1588.2 -1.95 1528.2 -1.95 Q1525.65 -2.8 1517.1 -4.05 L1493.2 -6.95 1434.35 -7.55 Q1375.1 -8.3 1373.2 -8.95 L1264.2 -9.95 Q1250.7 -12.95 1234.9 -15.65 1203.65 -20.95 1184.2 -20.95 L1174.35 -20.45 1168.2 -19.95 1142.35 -19.3 1114.2 -17.95 1025.2 -16.95 957.15 -9.55 870.2 0.05 817.95 0.05 Q793.1 -1.85 782.0 -8.25 775.0 -12.3 773.1 -13.1 766.95 -15.65 756.95 -16.95 L699.95 -17.95 682.4 -19.8 663.7 -20.95 653.95 -20.45 647.95 -19.95 572.95 -18.95 Q570.5 -18.15 563.6 -16.8 L545.95 -13.95 412.95 -12.95 394.95 -13.55 385.25 -14.5 Q376.6 -14.7 345.95 -5.95 L238.95 -4.95 225.25 -3.45 211.95 -1.95 115.95 -1.95 Q82.7 -5.85 65.55 -6.0 51.0 -6.15 43.6 -3.55 41.1 -2.65 32.3 2.75 24.7 7.35 13.95 10.05 L-4.05 10.05 Q-9.5 6.85 -10.75 1.7 -11.65 -1.95 -10.45 -8.15 -8.8 -16.85 -8.75 -18.2 -8.35 -23.6 -11.05 -26.95 L-11.05 -142.45 Q-12.5 -157.3 -14.1 -253.55 -15.75 -349.85 -15.7 -409.25 -15.65 -468.65 -14.45 -479.2 -13.1 -485.5 -12.0 -492.05 -7.05 -521.2 -7.05 -557.2 -7.05 -560.7 -13.05 -579.55 L-19.05 -598.2 Q-19.05 -602.3 -12.6 -605.65 -6.65 -608.75 1.95 -609.95 L74.45 -610.95 Q80.0 -612.5 132.95 -611.9 L192.95 -610.95 226.9 -610.8 236.4 -611.05 Q237.45 -611.4 238.95 -613.05 242.2 -615.2 251.95 -617.95 L329.95 -618.45 Q335.95 -619.95 361.95 -621.95 L426.95 -622.95 441.6 -625.05 465.95 -627.95 613.95 -627.95 Q658.35 -625.9 688.4 -618.9 L705.75 -614.45 706.05 -614.4 Q713.85 -612.45 718.95 -612.45 L720.75 -612.45 Q776.05 -612.5 819.5 -616.9 L828.0 -617.8 Q855.9 -621.0 866.2 -623.95 L916.2 -624.45 Q935.1 -629.15 969.1 -629.0 L991.7 -628.75 Q1002.35 -628.85 1006.2 -629.95 L1117.05 -629.95 Q1130.7 -618.45 1174.25 -611.3 1189.8 -608.7 1221.45 -605.1 1245.95 -602.3 1250.3 -600.75 1270.25 -593.65 1323.0 -583.15 1371.85 -573.4 1426.7 -565.0 L1551.75 -546.4 Q1614.1 -536.9 1663.25 -526.55 1696.15 -519.6 1762.7 -499.6 1834.75 -477.9 1857.3 -472.5 1903.9 -461.4 2002.1 -434.2 M-33.05 -444.7 Q-30.15 -450.4 -27.5 -456.4 -33.05 -431.3 -33.05 -444.7" fill="#494949" fill-rule="evenodd" stroke="none"/>
  </g>
</svg>
