<?xml version="1.0" encoding="UTF-8" standalone="no"?>
<svg xmlns:ffdec="https://www.free-decompiler.com/flash" xmlns:xlink="http://www.w3.org/1999/xlink" ffdec:objectType="shape" height="1085.0px" width="2225.0px" xmlns="http://www.w3.org/2000/svg">
  <g transform="matrix(1.0, 0.0, 0.0, 1.0, 382.5, 822.5)">
    <path d="M1740.0 -720.0 L1740.0 -80.0 1680.0 -60.0 1160.0 -20.0 960.0 80.0 300.0 80.0 280.0 40.0 40.0 40.0 -40.0 0.0 -80.0 -40.0 -180.0 -60.0 M-180.0 -260.0 L80.0 -240.0 -20.0 -360.0 -120.0 -420.0 -180.0 -520.0 -180.0 -820.0" fill="none" stroke="#00ffff" stroke-linecap="round" stroke-linejoin="round" stroke-width="5.0"/>
    <path d="M1840.0 200.0 L1840.0 180.0 1840.0 -720.0 M-380.0 180.0 L-380.0 260.0 M-380.0 -700.0 L-380.0 180.0" fill="none" stroke="#ffff00" stroke-linecap="round" stroke-linejoin="round" stroke-width="5.0"/>
    <path d="M1840.0 180.0 L-380.0 180.0" fill="none" stroke="#9900ff" stroke-linecap="round" stroke-linejoin="round" stroke-width="5.0"/>
  </g>
</svg>
