<?xml version="1.0" encoding="UTF-8" standalone="no"?>
<svg xmlns:ffdec="https://www.free-decompiler.com/flash" xmlns:xlink="http://www.w3.org/1999/xlink" ffdec:objectType="shape" height="458.1px" width="2173.85px" xmlns="http://www.w3.org/2000/svg">
  <g transform="matrix(1.0, 0.0, 0.0, 1.0, 317.0, -915.15)">
    <path d="M1840.35 923.6 Q1848.8 916.95 1856.85 928.35 L1852.35 931.6 1826.85 932.1 Q1809.35 936.6 1806.85 936.6 L1804.3 936.25 1803.1 935.35 1802.85 933.85 Q1806.35 930.85 1810.45 929.4 1816.25 927.35 1819.35 925.6 L1828.45 924.5 1840.35 923.6 M1639.95 933.05 L1636.85 933.1 1567.5 932.85 1562.25 933.6 1536.5 934.1 Q1535.5 935.6 1532.25 935.6 L1528.7 935.3 1529.0 934.7 Q1528.65 933.75 1512.25 933.6 L1510.45 933.0 Q1509.75 932.5 1509.75 930.85 1509.75 929.25 1510.65 928.9 L1512.25 928.6 1574.75 926.6 1612.1 927.1 1641.4 927.45 1640.65 928.4 Q1639.5 929.6 1640.85 931.1 1640.3 932.8 1639.95 933.05 M557.1 938.1 Q558.8 936.3 560.9 935.2 568.35 931.25 587.0 931.25 L597.55 931.9 622.0 933.25 Q622.9 933.6 625.55 935.8 628.3 938.1 631.85 939.5 643.65 944.25 673.0 944.25 L689.25 943.15 704.0 941.25 709.0 940.25 Q703.1 939.6 701.55 936.8 701.0 935.85 701.0 933.0 701.0 929.2 703.8 928.3 L719.0 926.25 Q722.0 924.05 730.3 923.55 739.6 923.0 759.0 924.25 760.1 907.65 815.85 921.3 834.8 925.95 855.65 933.05 873.35 939.05 877.0 941.25 877.0 942.6 875.8 944.25 874.4 946.25 872.0 947.25 L842.0 947.25 832.7 945.55 Q831.0 949.25 826.0 949.25 823.7 949.25 816.15 947.15 807.8 944.8 802.5 944.25 L785.2 942.35 778.0 941.75 763.5 944.5 749.0 947.25 Q740.3 947.25 736.25 945.7 L733.3 944.05 727.95 945.75 Q698.8 955.25 674.0 955.25 L645.7 954.25 Q641.45 953.7 638.45 952.05 635.7 950.55 629.55 950.0 619.9 949.1 596.0 949.25 L583.65 948.25 576.0 947.25 Q560.75 947.25 556.5 943.8 555.15 942.7 555.0 941.25 L555.0 939.75 557.1 938.1 M354.8 931.05 Q355.2 932.4 354.5 936.75 359.15 936.55 363.1 937.5 368.85 933.7 378.1 931.7 390.25 929.0 410.85 929.05 L446.9 930.0 Q467.7 930.6 478.0 929.25 479.55 931.15 481.35 934.9 483.0 938.4 483.0 939.25 483.0 940.35 481.45 943.7 479.7 947.35 478.0 949.25 466.75 949.85 455.05 951.65 L443.0 953.25 409.9 950.35 375.0 947.8 Q374.95 949.85 374.7 950.45 L374.0 952.25 369.0 953.25 Q360.2 949.65 352.85 947.05 338.75 942.05 324.5 941.75 L236.45 938.55 Q206.55 937.25 190.0 937.25 L180.4 938.5 146.0 941.25 128.0 941.25 124.4 940.0 Q123.0 939.0 123.0 935.75 123.0 934.15 126.05 931.2 L130.0 927.25 151.4 925.75 166.0 924.25 Q163.75 922.35 174.25 922.65 L200.35 924.4 Q244.15 927.7 254.0 925.25 L330.0 925.25 Q337.5 926.75 350.0 927.25 354.05 928.8 354.8 931.05 M-317.0 923.0 Q-317.0 916.95 -309.45 917.2 -301.7 917.5 -277.0 924.75 -253.4 926.3 -240.85 930.5 -237.15 931.75 -230.6 934.6 L-219.0 939.25 Q-220.5 941.15 -221.8 943.65 -223.1 945.25 -227.0 945.25 -238.2 945.25 -272.95 937.3 -310.15 928.8 -316.5 928.25 -317.0 928.0 -317.0 923.0" fill="#5a8ca5" fill-rule="evenodd" stroke="none"/>
    <path d="M312.75 1232.4 L315.2 1227.9 Q316.1 1226.1 316.8 1227.45 317.6 1229.0 319.35 1236.7 319.35 1246.4 320.6 1252.65 321.25 1255.65 320.15 1261.15 318.95 1267.05 319.2 1269.5 320.2 1278.9 340.0 1283.25 L342.15 1283.8 Q343.1 1284.25 343.1 1286.25 343.1 1287.6 342.5 1289.7 341.85 1291.8 341.85 1293.55 341.85 1295.2 338.4 1298.8 333.8 1303.65 327.8 1302.65 330.25 1310.1 333.6 1317.95 L338.5 1329.25 Q343.1 1340.6 343.1 1353.25 343.1 1356.8 342.8 1357.95 341.9 1361.55 338.4 1362.65 341.05 1365.0 342.3 1366.85 343.1 1368.1 343.1 1368.75 343.1 1370.9 342.25 1371.95 341.6 1372.75 340.0 1373.25 L331.25 1373.25 318.75 1370.8 Q315.6 1370.05 315.6 1366.85 315.6 1364.75 317.1 1363.75 317.45 1363.45 322.5 1361.05 L322.5 1359.5 318.95 1359.2 314.65 1358.9 314.35 1357.0 314.35 1302.65 Q313.1 1294.9 310.45 1290.85 308.1 1288.35 308.1 1288.1 308.1 1287.4 310.6 1277.15 313.1 1266.9 313.1 1263.75 L313.1 1254.2 Q312.85 1248.25 311.25 1248.25 308.25 1248.25 307.95 1245.75 L308.1 1242.95 Q305.4 1241.75 301.45 1241.15 298.65 1240.7 297.15 1239.2 296.85 1238.25 296.85 1235.45 L301.8 1235.05 307.65 1235.15 Q310.65 1235.15 312.75 1232.4 M324.65 1290.15 L331.25 1290.15 327.95 1290.0 324.65 1290.15 M336.85 1352.65 Q336.85 1341.75 326.85 1325.45 328.65 1338.5 329.0 1340.15 330.55 1347.7 334.65 1356.7 L336.55 1356.4 336.8 1355.35 336.85 1352.65" fill="#666666" fill-rule="evenodd" stroke="none"/>
  </g>
</svg>
