<?xml version="1.0" encoding="UTF-8" standalone="no"?>
<svg xmlns:ffdec="https://www.free-decompiler.com/flash" xmlns:xlink="http://www.w3.org/1999/xlink" ffdec:objectType="shape" height="3.15px" width="4.2px" xmlns="http://www.w3.org/2000/svg">
  <g transform="matrix(1.0, 0.0, 0.0, 1.0, 2.2, 3.25)">
    <path d="M1.25 -1.8 Q1.35 -2.0 1.55 -2.25 L1.5 -2.3 0.2 -2.25 0.1 -2.3 Q-0.1 -2.4 -0.35 -2.7 L-0.4 -2.75 -0.5 -2.75 -0.6 -2.7 -1.0 -2.6 Q-1.75 -2.4 -1.85 -2.0 L-0.8 -1.65 -0.8 -1.6 -0.85 -1.45 Q-0.85 -1.4 -0.9 -1.4 L-0.9 -1.35 Q-0.9 -1.3 -0.9 -1.1 -0.9 -0.7 -0.15 -0.5 0.05 -0.4 0.45 -0.5 L0.6 -0.5 Q1.05 -0.6 1.1 -0.8 L1.15 -1.2 1.15 -1.25 Q1.2 -1.6 1.2 -1.7 L1.2 -1.75 1.25 -1.75 1.25 -1.8 M1.9 -2.1 Q1.85 -1.95 1.7 -1.75 1.5 -1.6 1.45 -1.45 1.4 -1.25 1.45 -1.0 1.45 -0.7 1.4 -0.5 1.3 -0.2 0.65 -0.1 L-0.3 -0.15 Q-1.1 -0.4 -1.25 -0.8 -1.35 -1.0 -1.25 -1.3 L-1.25 -1.35 -1.4 -1.35 -1.9 -1.45 Q-2.05 -1.5 -2.2 -1.6 L-2.2 -1.85 -1.8 -2.75 Q-1.75 -2.9 -1.4 -2.95 -1.0 -2.95 -0.85 -3.1 -0.65 -3.3 -0.35 -3.25 -0.1 -3.2 -0.1 -3.0 L0.0 -2.9 0.3 -2.65 Q0.85 -2.5 1.75 -2.65 1.95 -2.7 2.0 -2.65 2.05 -2.5 1.9 -2.1" fill="#111111" fill-rule="evenodd" stroke="none"/>
    <path d="M0.1 -2.3 L0.15 -2.15 0.15 -2.1 0.2 -2.1 0.6 -1.9 1.25 -1.8 1.25 -1.75 1.2 -1.75 1.2 -1.7 Q1.2 -1.6 1.15 -1.25 L1.15 -1.2 1.1 -1.35 0.65 -1.3 Q0.25 -1.15 -0.25 -1.2 L-0.15 -0.9 Q0.0 -0.6 0.45 -0.5 0.05 -0.4 -0.15 -0.5 -0.9 -0.7 -0.9 -1.1 -0.9 -1.3 -0.9 -1.35 L-0.9 -1.4 Q-0.85 -1.4 -0.85 -1.45 L-0.8 -1.6 -0.8 -1.65 -1.85 -2.0 Q-1.65 -2.05 -1.3 -2.15 L-0.75 -2.2 -0.65 -2.5 -0.6 -2.7 -0.5 -2.75 -0.4 -2.75 -0.35 -2.7 Q-0.1 -2.4 0.1 -2.3" fill="#d9c88d" fill-rule="evenodd" stroke="none"/>
    <path d="M0.1 -2.3 L0.2 -2.25 1.5 -2.3 1.55 -2.25 Q1.35 -2.0 1.25 -1.8 L0.6 -1.9 0.2 -2.1 0.15 -2.1 0.15 -2.15 0.1 -2.3 M1.15 -1.2 L1.1 -0.8 Q1.05 -0.6 0.6 -0.5 L0.45 -0.5 Q0.0 -0.6 -0.15 -0.9 L-0.25 -1.2 Q0.25 -1.15 0.65 -1.3 L1.1 -1.35 1.15 -1.2 M-1.85 -2.0 Q-1.75 -2.4 -1.0 -2.6 L-0.6 -2.7 -0.65 -2.5 -0.75 -2.2 -1.3 -2.15 Q-1.65 -2.05 -1.85 -2.0" fill="#feeab4" fill-rule="evenodd" stroke="none"/>
  </g>
</svg>
