<?xml version="1.0" encoding="UTF-8" standalone="no"?>
<svg xmlns:ffdec="https://www.free-decompiler.com/flash" xmlns:xlink="http://www.w3.org/1999/xlink" ffdec:objectType="shape" height="48.0px" width="48.0px" xmlns="http://www.w3.org/2000/svg">
  <g transform="matrix(1.0, 0.0, 0.0, 1.0, 0.0, 0.0)">
    <path d="M46.6 2.5 L46.85 2.9 47.05 3.2 47.35 3.85 47.7 5.0 47.95 6.15 48.0 6.55 48.0 7.4 48.0 7.5 48.0 40.5 48.0 40.6 47.9 42.25 47.8 42.65 47.8 42.75 47.75 42.85 47.55 43.5 47.05 44.7 46.85 45.05 46.6 45.45 46.55 45.4 46.55 45.5 46.45 45.65 46.0 46.1 45.95 46.15 45.8 46.3 45.05 46.85 44.7 47.05 44.05 47.35 43.65 47.5 43.4 47.55 43.25 47.6 43.15 47.65 43.1 47.65 43.0 47.7 42.9 47.7 42.85 47.7 42.8 47.7 42.45 47.8 42.2 47.85 42.1 47.85 41.7 47.9 41.6 47.95 41.35 47.95 41.3 47.95 41.3 47.9 41.1 47.95 41.05 47.95 40.85 47.95 40.6 48.0 40.45 48.0 37.45 48.0 37.45 47.9 37.3 47.95 37.25 47.95 36.6 48.0 35.0 48.0 35.0 47.9 34.85 47.95 34.8 47.95 34.35 48.0 13.45 48.0 13.35 48.0 7.4 48.0 7.05 47.95 6.7 47.95 6.35 47.9 5.95 47.8 5.9 47.8 5.0 47.65 4.95 47.65 4.3 47.45 4.0 47.35 3.95 47.35 3.8 47.3 3.3 47.05 3.1 46.95 2.95 46.85 2.9 46.8 2.65 46.65 2.6 46.6 2.2 46.3 1.85 45.95 1.6 45.7 1.15 45.1 0.7 44.3 0.65 44.15 0.6 44.1 0.4 43.5 0.35 43.25 0.25 43.05 0.1 42.0 0.0 40.75 0.0 40.6 0.0 38.2 0.0 38.1 0.0 7.5 0.0 7.35 0.05 6.35 0.25 5.0 0.35 4.65 0.7 3.65 1.25 2.65 1.9 1.9 Q2.95 0.9 4.55 0.4 L4.75 0.4 4.85 0.35 5.2 0.25 5.3 0.25 6.0 0.15 6.85 0.0 7.1 0.0 7.4 0.0 7.8 0.0 10.9 0.0 11.1 0.0 14.9 0.0 14.9 0.1 14.95 0.1 15.0 0.0 16.1 0.0 16.1 0.1 16.2 0.1 16.25 0.0 17.1 0.0 17.1 0.1 17.15 0.0 18.05 0.0 18.05 0.1 18.1 0.1 18.15 0.0 18.3 0.0 18.6 0.0 34.7 0.0 34.8 0.0 37.1 0.0 37.2 0.0 37.7 0.0 37.85 0.0 38.0 0.0 40.55 0.0 40.9 0.0 41.1 0.0 41.85 0.1 42.25 0.2 42.4 0.2 42.8 0.3 42.85 0.3 43.2 0.4 43.35 0.45 43.45 0.45 43.7 0.55 44.7 0.95 45.0 1.15 45.05 1.15 45.55 1.45 46.3 2.15 46.6 2.5 M7.05 46.35 L7.0 46.3 7.0 46.5 7.05 46.35" fill="#ff0000" fill-rule="evenodd" stroke="none"/>
  </g>
</svg>
