<?xml version="1.0" encoding="UTF-8" standalone="no"?>
<svg xmlns:ffdec="https://www.free-decompiler.com/flash" xmlns:xlink="http://www.w3.org/1999/xlink" ffdec:objectType="shape" height="12.5px" width="163.1px" xmlns="http://www.w3.org/2000/svg">
  <g transform="matrix(1.0, 0.0, 0.0, 1.0, -0.5, 0.0)">
    <path d="M158.05 12.5 L158.05 12.35 156.2 12.5 6.15 12.5 5.75 12.5 5.75 12.45 Q3.8 12.15 2.3 10.7 0.5 8.85 0.5 6.25 0.5 3.7 2.3 1.85 3.8 0.35 5.75 0.1 L5.75 0.0 6.15 0.0 156.2 0.0 158.05 0.2 158.05 0.05 Q160.15 0.25 161.75 1.85 163.6 3.7 163.6 6.25 163.6 8.85 161.75 10.7 160.15 12.25 158.05 12.5" fill="#353931" fill-rule="evenodd" stroke="none"/>
  </g>
</svg>
