<?xml version="1.0" encoding="UTF-8" standalone="no"?>
<svg xmlns:ffdec="https://www.free-decompiler.com/flash" xmlns:xlink="http://www.w3.org/1999/xlink" ffdec:objectType="shape" height="12.5px" width="226.7px" xmlns="http://www.w3.org/2000/svg">
  <g transform="matrix(1.0, 0.0, 0.0, 1.0, -0.5, 0.0)">
    <path d="M227.2 6.25 Q227.2 8.85 225.35 10.7 223.75 12.25 221.65 12.5 L221.65 12.35 218.95 12.5 6.3 12.5 6.15 12.5 5.7 12.5 5.7 12.45 Q3.8 12.15 2.3 10.7 0.5 8.85 0.5 6.25 0.5 3.7 2.3 1.85 3.8 0.35 5.7 0.1 L5.7 0.0 6.3 0.0 218.95 0.0 221.65 0.25 221.65 0.05 Q223.75 0.25 225.35 1.85 227.2 3.7 227.2 6.25" fill="#353931" fill-rule="evenodd" stroke="none"/>
  </g>
</svg>
