<?xml version="1.0" encoding="UTF-8" standalone="no"?>
<svg xmlns:ffdec="https://www.free-decompiler.com/flash" xmlns:xlink="http://www.w3.org/1999/xlink" ffdec:objectType="shape" height="45.75px" width="187.25px" xmlns="http://www.w3.org/2000/svg">
  <g transform="matrix(1.0, 0.0, 0.0, 1.0, 0.0, 0.0)">
    <path d="M184.55 15.15 Q184.55 10.05 181.05 6.35 177.6 2.75 172.7 2.75 L14.3 2.75 Q9.55 2.85 6.2 6.35 2.9 9.9 2.75 14.85 L2.75 15.55 Q2.9 20.45 6.2 23.9 7.7 25.5 9.55 26.4 11.8 27.6 14.6 27.6 L76.45 27.6 91.25 42.4 106.05 27.6 172.7 27.6 Q177.6 27.6 181.05 23.9 184.55 20.3 184.55 15.25 L184.55 15.15 M187.25 15.25 Q187.25 21.4 183.05 25.8 L183.05 25.85 Q178.75 30.3 172.7 30.3 L107.3 30.3 92.25 45.35 Q91.8 45.75 91.25 45.75 90.7 45.75 90.3 45.35 L75.25 30.3 14.6 30.3 Q11.2 30.3 8.35 28.85 L8.25 28.8 Q6.0 27.7 4.25 25.8 0.2 21.55 0.0 15.7 L0.0 15.55 0.0 14.8 Q0.2 8.75 4.25 4.5 L4.25 4.45 Q8.4 0.1 14.3 0.0 L172.7 0.0 Q178.75 0.0 183.05 4.45 187.25 8.95 187.25 15.15 L187.25 15.25" fill="#b28e2d" fill-rule="evenodd" stroke="none"/>
    <path d="M184.55 15.15 L184.55 15.25 Q184.55 20.3 181.05 23.9 177.6 27.6 172.7 27.6 L106.05 27.6 91.25 42.4 76.45 27.6 14.6 27.6 Q11.8 27.6 9.55 26.4 7.7 25.5 6.2 23.9 2.9 20.45 2.75 15.55 L2.75 14.85 Q2.9 9.9 6.2 6.35 9.55 2.85 14.3 2.75 L172.7 2.75 Q177.6 2.75 181.05 6.35 184.55 10.05 184.55 15.15" fill="#333333" fill-rule="evenodd" stroke="none"/>
  </g>
</svg>
