<?xml version="1.0" encoding="UTF-8" standalone="no"?>
<svg xmlns:ffdec="https://www.free-decompiler.com/flash" xmlns:xlink="http://www.w3.org/1999/xlink" ffdec:objectType="shape" height="339.2px" width="260.8px" xmlns="http://www.w3.org/2000/svg">
  <g transform="matrix(1.0, 0.0, 0.0, 1.0, 10.4, 2.0)">
    <path d="M18.7 -1.85 L21.8 -1.85 21.8 -1.8 239.8 -1.8 239.8 -1.85 240.1 -1.8 240.95 -1.8 241.15 -1.75 Q241.5 -2.15 242.7 -0.95 L244.25 0.4 245.35 1.7 245.55 1.85 Q249.75 5.4 249.8 6.4 L249.8 6.45 249.75 7.05 249.8 7.05 249.85 8.2 249.9 9.35 250.25 9.35 250.25 10.85 250.25 12.2 250.25 14.3 250.3 14.3 250.3 15.5 250.35 21.35 Q250.35 22.2 249.8 22.35 244.4 28.65 242.55 29.0 L242.2 29.5 242.15 29.55 242.7 30.05 244.25 31.4 245.35 32.7 245.55 32.85 Q249.75 36.4 249.8 37.4 L249.8 37.45 249.75 38.05 249.8 38.05 249.85 39.2 249.9 40.35 250.25 40.35 250.25 41.85 250.25 43.2 250.25 45.3 250.3 45.3 250.3 46.5 250.35 52.35 Q250.35 53.2 249.8 53.35 244.4 59.65 242.55 60.0 L242.2 60.5 242.15 60.55 242.7 61.05 244.25 62.4 245.35 63.7 245.55 63.85 Q249.75 67.4 249.8 68.4 L249.8 68.45 249.75 69.05 249.8 69.05 249.85 70.2 249.9 71.35 250.25 71.35 250.25 72.85 250.25 74.2 250.25 76.3 250.3 76.3 250.3 77.5 250.35 83.35 Q250.35 84.2 249.8 84.35 244.4 90.65 242.55 91.0 L242.2 91.5 242.15 91.55 242.7 92.05 244.25 93.4 245.35 94.7 245.55 94.85 Q249.75 98.4 249.8 99.4 L249.8 99.45 249.75 100.05 249.8 100.05 249.85 101.2 249.9 102.35 250.25 102.35 250.25 103.85 250.25 105.2 250.25 107.3 250.3 107.3 250.3 108.5 250.35 114.35 Q250.35 115.2 249.8 115.35 244.4 121.65 242.55 122.0 L242.2 122.5 242.15 122.55 242.7 123.05 244.25 124.4 245.35 125.7 245.55 125.85 Q249.75 129.4 249.8 130.4 L249.8 130.45 249.75 131.05 249.8 131.05 249.85 132.2 249.9 133.35 250.25 133.35 250.25 134.85 250.25 136.2 250.25 138.3 250.3 138.3 250.3 139.5 250.35 145.35 Q250.35 146.2 249.8 146.35 244.4 152.65 242.55 153.0 L242.2 153.5 242.15 153.55 242.7 154.05 244.25 155.4 245.35 156.7 245.55 156.85 Q249.75 160.4 249.8 161.4 L249.8 161.45 249.75 162.05 249.8 162.05 249.85 163.2 249.9 164.35 250.25 164.35 250.25 165.85 250.25 167.2 250.25 169.3 250.3 169.3 250.3 170.5 250.35 176.35 Q250.35 177.2 249.8 177.35 244.5 183.5 242.65 184.0 L242.7 184.05 244.25 185.4 245.35 186.7 245.55 186.85 Q249.75 190.4 249.8 191.4 L249.8 191.45 249.75 192.05 249.8 192.05 249.85 193.2 249.9 194.35 250.25 194.35 250.25 195.85 250.25 197.2 250.25 199.3 250.3 199.3 250.3 200.5 250.35 206.35 Q250.35 207.2 249.8 207.35 244.5 213.5 242.65 214.0 L242.7 214.05 244.25 215.4 245.35 216.7 245.55 216.85 Q249.75 220.4 249.8 221.4 L249.8 221.45 249.75 222.05 249.8 222.05 249.85 223.2 249.9 224.35 250.25 224.35 250.25 225.85 250.25 227.2 250.25 229.3 250.3 229.3 250.3 230.5 250.35 236.35 Q250.35 237.2 249.8 237.35 244.4 243.65 242.55 244.0 L242.2 244.5 242.15 244.55 242.7 245.05 244.25 246.4 245.35 247.7 245.55 247.85 Q249.75 251.4 249.8 252.4 L249.8 252.45 249.75 253.05 249.8 253.05 249.85 254.2 249.9 255.35 250.25 255.35 250.25 256.85 250.25 258.2 250.25 260.3 250.3 260.3 250.3 261.5 250.35 267.35 Q250.35 268.2 249.8 268.35 244.4 274.65 242.55 275.0 L242.2 275.5 242.15 275.55 242.7 276.05 244.25 277.4 245.35 278.7 245.55 278.85 Q249.75 282.4 249.8 283.4 L249.8 283.45 249.75 284.05 249.8 284.05 249.85 285.2 249.9 286.35 250.25 286.35 250.25 287.85 250.25 289.2 250.25 291.3 250.3 291.3 250.3 292.5 250.35 298.35 Q250.35 299.2 249.8 299.35 244.5 305.5 242.65 306.0 L242.7 306.05 244.25 307.4 245.35 308.7 245.55 308.85 Q249.75 312.4 249.8 313.4 L249.8 313.45 249.75 314.05 249.8 314.05 249.85 315.2 249.9 316.35 250.25 316.35 250.25 317.85 250.25 319.2 250.25 321.3 250.3 321.3 250.3 322.5 250.35 328.35 Q250.35 329.2 249.8 329.35 244.4 335.65 242.55 336.0 L242.2 336.5 241.6 336.75 241.55 336.8 239.6 337.1 238.8 337.1 237.9 337.1 237.75 337.1 234.0 337.1 233.35 337.1 233.05 337.1 232.2 337.1 205.45 337.1 189.45 337.1 184.2 337.1 183.6 337.1 183.6 337.2 173.75 337.2 Q172.95 337.1 172.8 336.8 L172.7 336.6 169.25 333.05 166.15 329.55 166.15 329.05 166.05 328.9 165.95 328.6 166.0 327.85 Q165.85 327.35 165.85 326.5 L165.75 323.8 165.55 323.8 165.6 323.05 165.55 323.05 165.55 322.85 165.55 322.55 165.55 322.5 165.55 321.3 165.55 319.2 165.55 319.05 165.45 318.2 165.55 316.9 165.55 316.35 165.6 315.75 165.55 315.2 165.65 314.0 165.85 313.25 165.85 312.9 Q165.85 312.5 166.2 312.15 L166.75 311.75 Q167.4 310.8 171.1 307.7 L172.6 306.55 Q171.85 306.0 169.25 303.05 L166.15 299.55 166.15 299.05 166.05 298.9 165.95 298.6 166.0 297.85 Q165.85 297.35 165.85 296.5 L165.75 293.8 165.55 293.8 165.6 293.05 165.55 293.05 165.55 292.85 165.55 292.55 165.55 292.5 165.55 291.3 165.55 289.2 165.55 289.05 165.45 288.2 165.55 286.9 165.55 286.35 165.6 285.75 165.55 285.2 165.65 284.0 165.85 283.25 165.85 282.9 Q165.85 282.5 166.2 282.15 L166.75 281.75 Q167.4 280.8 171.1 277.7 172.35 276.65 173.25 276.1 L172.8 275.8 172.7 275.6 169.25 272.05 166.15 268.55 166.15 268.05 166.05 267.9 165.95 267.6 166.0 266.85 Q165.85 266.35 165.85 265.5 L165.75 262.8 165.55 262.8 165.6 262.05 165.55 262.05 165.55 261.85 165.55 261.55 165.55 261.5 165.55 260.3 165.55 258.2 165.55 258.05 165.45 257.2 165.55 255.9 165.55 255.35 165.6 254.75 165.55 254.2 165.65 253.0 165.85 252.25 165.85 251.9 Q165.85 251.5 166.2 251.15 L166.75 250.75 Q167.4 249.8 171.1 246.7 172.35 245.65 173.25 245.1 L172.8 244.8 172.7 244.6 169.25 241.05 166.15 237.55 166.15 237.05 166.05 236.9 165.95 236.6 166.0 235.85 Q165.85 235.35 165.85 234.5 L165.75 231.8 165.55 231.8 165.6 231.05 165.55 231.05 165.55 230.85 165.55 230.55 165.55 230.5 165.55 229.3 165.55 227.2 165.55 227.05 165.45 226.2 165.55 224.9 165.55 224.35 165.6 223.75 165.55 223.2 165.65 222.0 165.85 221.25 165.85 220.9 Q165.85 220.5 166.2 220.15 L166.75 219.75 Q167.4 218.8 171.1 215.7 L172.6 214.55 Q171.85 214.0 169.25 211.05 L166.15 207.55 166.15 207.05 166.05 206.9 165.95 206.6 166.0 205.85 Q165.85 205.35 165.85 204.5 L165.75 201.8 165.55 201.8 165.6 201.05 165.55 201.05 165.55 200.85 165.55 200.55 165.55 200.5 165.55 199.3 165.55 197.2 165.55 197.05 165.45 196.2 165.55 194.9 165.55 194.35 165.6 193.75 165.55 193.2 165.65 192.0 165.85 191.25 165.85 190.9 Q165.85 190.5 166.2 190.15 L166.75 189.75 Q167.4 188.8 171.1 185.7 L172.6 184.55 Q171.85 184.0 169.25 181.05 L166.15 177.55 166.15 177.05 166.05 176.9 165.95 176.6 166.0 175.85 Q165.85 175.35 165.85 174.5 L165.75 171.8 165.55 171.8 165.6 171.05 165.55 171.05 165.55 170.85 165.55 170.55 165.55 170.5 165.55 169.3 165.55 167.2 165.55 167.05 165.45 166.2 165.55 164.9 165.55 164.35 165.6 163.75 165.55 163.2 165.65 162.0 165.85 161.25 165.85 160.9 Q165.85 160.5 166.2 160.15 L166.75 159.75 Q167.4 158.8 171.1 155.7 172.35 154.65 173.25 154.1 L172.8 153.8 172.7 153.6 169.25 150.05 166.15 146.55 166.15 146.05 166.05 145.9 165.95 145.6 166.0 144.85 Q165.85 144.35 165.85 143.5 L165.75 140.8 165.55 140.8 165.6 140.05 165.55 140.05 165.55 139.85 165.55 139.55 165.55 139.5 165.55 138.3 165.55 136.2 165.55 136.05 165.45 135.2 165.55 133.9 165.55 133.35 165.6 132.75 165.55 132.2 165.65 131.0 165.85 130.25 165.85 129.9 Q165.85 129.5 166.2 129.15 L166.75 128.75 Q167.4 127.8 171.1 124.7 172.35 123.65 173.25 123.1 L172.8 122.8 172.7 122.6 169.25 119.05 166.15 115.55 166.15 115.05 166.05 114.9 165.95 114.6 166.0 113.85 Q165.85 113.35 165.85 112.5 L165.75 109.8 165.55 109.8 165.6 109.05 165.55 109.05 165.55 108.85 165.55 108.55 165.55 108.5 165.55 107.3 165.55 105.2 165.55 105.05 165.45 104.2 165.55 102.9 165.55 102.35 165.6 101.75 165.55 101.2 165.65 100.0 165.85 99.25 165.85 98.9 Q165.85 98.5 166.2 98.15 L166.75 97.75 Q167.4 96.8 171.1 93.7 172.35 92.65 173.25 92.1 L172.8 91.8 172.7 91.6 169.25 88.05 166.15 84.55 166.15 84.05 166.05 83.9 165.95 83.6 166.0 82.85 Q165.85 82.35 165.85 81.5 L165.75 78.8 165.55 78.8 165.6 78.05 165.55 78.05 165.55 77.85 165.55 77.55 165.55 77.5 165.55 76.3 165.55 74.2 165.55 74.05 165.45 73.2 165.55 71.9 165.55 71.35 165.6 70.75 165.55 70.2 165.65 69.0 165.85 68.25 165.85 67.9 Q165.85 67.5 166.2 67.15 L166.75 66.75 Q167.4 65.8 171.1 62.7 172.35 61.65 173.25 61.1 L172.8 60.8 172.7 60.6 169.25 57.05 166.15 53.55 166.15 53.05 166.05 52.9 165.95 52.6 166.0 51.85 Q165.85 51.35 165.85 50.5 L165.75 47.8 165.55 47.8 165.6 47.05 165.55 47.05 165.55 46.85 165.55 46.55 165.55 46.5 165.55 45.3 165.55 43.2 165.55 43.05 165.45 42.2 165.55 40.9 165.55 40.35 165.6 39.75 165.55 39.2 165.65 38.0 165.85 37.25 165.85 36.9 Q165.85 36.5 166.2 36.15 L166.75 35.75 Q167.4 34.8 171.1 31.7 L173.15 30.15 156.15 30.15 157.6 31.4 158.7 32.7 158.9 32.85 Q163.05 36.4 163.1 37.4 L163.1 37.45 163.05 38.05 163.1 38.05 163.15 39.2 163.2 40.35 163.55 40.35 163.55 41.85 163.55 43.2 163.55 45.3 163.65 45.3 163.65 46.5 163.65 52.35 Q163.65 53.2 163.1 53.35 157.75 59.65 155.85 60.0 L155.5 60.5 155.45 60.55 156.0 61.05 157.6 62.4 158.7 63.7 158.9 63.85 Q163.05 67.4 163.1 68.4 L163.1 68.45 163.05 69.05 163.1 69.05 163.15 70.2 163.2 71.35 163.55 71.35 163.55 72.85 163.55 74.2 163.55 76.3 163.65 76.3 163.65 77.5 163.65 83.35 Q163.65 84.2 163.1 84.35 157.75 90.65 155.85 91.0 L155.5 91.5 155.45 91.55 156.0 92.05 157.6 93.4 158.7 94.7 158.9 94.85 Q163.05 98.4 163.1 99.4 L163.1 99.45 163.05 100.05 163.1 100.05 163.15 101.2 163.2 102.35 163.55 102.35 163.55 103.85 163.55 105.2 163.55 107.3 163.65 107.3 163.65 108.5 163.65 114.35 Q163.65 115.2 163.1 115.35 157.75 121.65 155.85 122.0 L155.5 122.5 155.45 122.55 156.0 123.05 157.6 124.4 158.7 125.7 158.9 125.85 Q163.05 129.4 163.1 130.4 L163.1 130.45 163.05 131.05 163.1 131.05 163.15 132.2 163.2 133.35 163.55 133.35 163.55 134.85 163.55 136.2 163.55 138.3 163.65 138.3 163.65 139.5 163.65 145.35 Q163.65 146.2 163.1 146.35 157.75 152.65 155.85 153.0 L155.5 153.5 155.45 153.55 156.0 154.05 157.6 155.4 158.7 156.7 158.9 156.85 Q163.05 160.4 163.1 161.4 L163.1 161.45 163.05 162.05 163.1 162.05 163.15 163.2 163.2 164.35 163.55 164.35 163.55 165.85 163.55 167.2 163.55 169.3 163.65 169.3 163.65 170.5 163.65 176.35 Q163.65 177.2 163.1 177.35 157.85 183.5 155.95 184.0 L156.0 184.05 157.6 185.4 158.7 186.7 158.9 186.85 Q163.05 190.4 163.1 191.4 L163.1 191.45 163.05 192.05 163.1 192.05 163.15 193.2 163.2 194.35 163.55 194.35 163.55 195.85 163.55 197.2 163.55 199.3 163.65 199.3 163.65 200.5 163.65 206.35 Q163.65 207.2 163.1 207.35 157.85 213.5 155.95 214.0 L156.0 214.05 157.6 215.4 158.7 216.7 158.9 216.85 Q163.05 220.4 163.1 221.4 L163.1 221.45 163.05 222.05 163.1 222.05 163.15 223.2 163.2 224.35 163.55 224.35 163.55 225.85 163.55 227.2 163.55 229.3 163.65 229.3 163.65 230.5 163.65 236.35 Q163.65 237.2 163.1 237.35 157.75 243.65 155.85 244.0 L155.5 244.5 155.45 244.55 156.0 245.05 157.6 246.4 158.7 247.7 158.9 247.85 Q163.05 251.4 163.1 252.4 L163.1 252.45 163.05 253.05 163.1 253.05 163.15 254.2 163.2 255.35 163.55 255.35 163.55 256.85 163.55 258.2 163.55 260.3 163.65 260.3 163.65 261.5 163.65 267.35 Q163.65 268.2 163.1 268.35 157.75 274.65 155.85 275.0 L155.5 275.5 155.45 275.55 156.0 276.05 157.6 277.4 158.7 278.7 158.9 278.85 Q163.05 282.4 163.1 283.4 L163.1 283.45 163.05 284.05 163.1 284.05 163.15 285.2 163.2 286.35 163.55 286.35 163.55 287.85 163.55 289.2 163.55 291.3 163.65 291.3 163.65 292.5 163.65 298.35 Q163.65 299.2 163.1 299.35 157.85 305.5 155.95 306.0 L156.0 306.05 157.6 307.4 158.7 308.7 158.9 308.85 Q163.05 312.4 163.1 313.4 L163.1 313.45 163.05 314.05 163.1 314.05 163.15 315.2 163.2 316.35 163.55 316.35 163.55 317.85 163.55 319.2 163.55 321.3 163.65 321.3 163.65 322.5 163.65 328.35 Q163.65 329.2 163.1 329.35 157.75 335.65 155.85 336.0 L155.5 336.5 154.9 336.75 154.85 336.8 152.95 337.1 152.1 337.1 151.2 337.1 151.1 337.1 147.3 337.1 146.35 337.1 132.9 337.1 128.3 337.1 125.15 337.1 118.5 337.1 118.5 337.15 -2.1 337.2 Q-2.9 337.1 -3.1 336.8 L-3.15 336.6 -6.65 333.05 -9.7 329.55 -9.7 329.05 -9.8 328.9 -9.9 328.6 -9.9 327.85 -10.05 326.5 -10.1 323.8 -10.3 323.8 -10.25 323.05 -10.35 323.05 -10.35 322.85 -10.35 322.55 -10.35 322.5 -10.35 321.3 -10.3 319.2 -10.3 319.05 -10.4 318.2 -10.35 316.9 -10.3 316.9 -10.3 316.35 -10.25 315.75 -10.3 315.2 -10.2 314.0 -10.0 313.25 -10.05 312.9 Q-10.05 312.5 -9.65 312.15 L-9.1 311.75 Q-8.5 310.8 -4.75 307.7 L-3.25 306.55 Q-4.05 306.0 -6.65 303.05 L-9.7 299.55 -9.7 299.05 -9.8 298.9 -9.9 298.6 -9.9 297.85 -10.05 296.5 -10.1 293.8 -10.3 293.8 -10.25 293.05 -10.35 293.05 -10.35 292.85 -10.35 292.55 -10.35 292.5 -10.35 291.3 -10.3 289.2 -10.3 289.05 -10.4 288.2 -10.35 286.9 -10.3 286.9 -10.3 286.35 -10.25 285.75 -10.3 285.2 -10.2 284.0 -10.0 283.25 -10.05 282.9 Q-10.05 282.5 -9.65 282.15 L-9.1 281.75 Q-8.5 280.8 -4.75 277.7 L-2.6 276.1 -3.1 275.8 -3.15 275.6 -6.65 272.05 -9.7 268.55 -9.7 268.05 -9.8 267.9 -9.9 267.6 -9.9 266.85 -10.05 265.5 -10.1 262.8 -10.3 262.8 -10.25 262.05 -10.35 262.05 -10.35 261.85 -10.35 261.55 -10.35 261.5 -10.35 260.3 -10.3 258.2 -10.3 258.05 -10.4 257.2 -10.35 255.9 -10.3 255.9 -10.3 255.35 -10.25 254.75 -10.3 254.2 -10.2 253.0 -10.0 252.25 -10.05 251.9 Q-10.05 251.5 -9.65 251.15 L-9.1 250.75 Q-8.5 249.8 -4.75 246.7 L-2.6 245.1 -3.1 244.8 -3.15 244.6 -6.65 241.05 -9.7 237.55 -9.7 237.05 -9.8 236.9 -9.9 236.6 -9.9 235.85 -10.05 234.5 -10.1 231.8 -10.3 231.8 -10.25 231.05 -10.35 231.05 -10.35 230.85 -10.35 230.55 -10.35 230.5 -10.35 229.3 -10.3 227.2 -10.3 227.05 -10.4 226.2 -10.35 224.9 -10.3 224.9 -10.3 224.35 -10.25 223.75 -10.3 223.2 -10.2 222.0 -10.0 221.25 -10.05 220.9 Q-10.05 220.5 -9.65 220.15 L-9.1 219.75 Q-8.5 218.8 -4.75 215.7 L-3.25 214.55 Q-4.05 214.0 -6.65 211.05 L-9.7 207.55 -9.7 207.05 -9.8 206.9 -9.9 206.6 -9.9 205.85 -10.05 204.5 -10.1 201.8 -10.3 201.8 -10.25 201.05 -10.35 201.05 -10.35 200.85 -10.35 200.55 -10.35 200.5 -10.35 199.3 -10.3 197.2 -10.3 197.05 -10.4 196.2 -10.35 194.9 -10.3 194.9 -10.3 194.35 -10.25 193.75 -10.3 193.2 -10.2 192.0 -10.0 191.25 -10.05 190.9 Q-10.05 190.5 -9.65 190.15 L-9.1 189.75 Q-8.5 188.8 -4.75 185.7 L-3.25 184.55 Q-4.05 184.0 -6.65 181.05 L-9.7 177.55 -9.7 177.05 -9.8 176.9 -9.9 176.6 -9.9 175.85 -10.05 174.5 -10.1 171.8 -10.3 171.8 -10.25 171.05 -10.35 171.05 -10.35 170.85 -10.35 170.55 -10.35 170.5 -10.35 169.3 -10.3 167.2 -10.3 167.05 -10.4 166.2 -10.35 164.9 -10.3 164.9 -10.3 164.35 -10.25 163.75 -10.3 163.2 -10.2 162.0 -10.0 161.25 -10.05 160.9 Q-10.05 160.5 -9.65 160.15 L-9.1 159.75 Q-8.5 158.8 -4.75 155.7 L-2.6 154.1 -3.1 153.8 -3.15 153.6 -6.65 150.05 -9.7 146.55 -9.7 146.05 -9.8 145.9 -9.9 145.6 -9.9 144.85 -10.05 143.5 -10.1 140.8 -10.3 140.8 -10.25 140.05 -10.35 140.05 -10.35 139.85 -10.35 139.55 -10.35 139.5 -10.35 138.3 -10.3 136.2 -10.3 136.05 -10.4 135.2 -10.35 133.9 -10.3 133.9 -10.3 133.35 -10.25 132.75 -10.3 132.2 -10.2 131.0 -10.0 130.25 -10.05 129.9 Q-10.05 129.5 -9.65 129.15 L-9.1 128.75 Q-8.5 127.8 -4.75 124.7 L-2.6 123.1 -3.1 122.8 -3.15 122.6 -6.65 119.05 -9.7 115.55 -9.7 115.05 -9.8 114.9 -9.9 114.6 -9.9 113.85 -10.05 112.5 -10.1 109.8 -10.3 109.8 -10.25 109.05 -10.35 109.05 -10.35 108.85 -10.35 108.55 -10.35 108.5 -10.35 107.3 -10.3 105.2 -10.3 105.05 -10.4 104.2 -10.35 102.9 -10.3 102.9 -10.3 102.35 -10.25 101.75 -10.3 101.2 -10.2 100.0 -10.0 99.25 -10.05 98.9 Q-10.05 98.5 -9.65 98.15 L-9.1 97.75 Q-8.5 96.8 -4.75 93.7 L-2.6 92.1 -3.1 91.8 -3.15 91.6 -6.65 88.05 -9.7 84.55 -9.7 84.05 -9.8 83.9 -9.9 83.6 -9.9 82.85 -10.05 81.5 -10.1 78.8 -10.3 78.8 -10.25 78.05 -10.35 78.05 -10.35 77.85 -10.35 77.55 -10.35 77.5 -10.35 76.3 -10.3 74.2 -10.3 74.05 -10.4 73.2 -10.35 71.9 -10.3 71.9 -10.3 71.35 -10.25 70.75 -10.3 70.2 -10.2 69.0 -10.0 68.25 -10.05 67.9 Q-10.05 67.5 -9.65 67.15 L-9.1 66.75 Q-8.5 65.8 -4.75 62.7 L-2.6 61.1 -3.1 60.8 -3.15 60.6 -6.65 57.05 -9.7 53.55 -9.7 53.05 -9.8 52.9 -9.9 52.6 -9.9 51.85 -10.05 50.5 -10.1 47.8 -10.3 47.8 -10.25 47.05 -10.35 47.05 -10.35 46.85 -10.35 46.55 -10.35 46.5 -10.35 45.3 -10.3 43.2 -10.3 43.05 -10.4 42.2 -10.35 40.9 -10.3 40.9 -10.3 40.35 -10.25 39.75 -10.3 39.2 -10.2 38.0 -10.0 37.25 -10.05 36.9 Q-10.05 36.5 -9.65 36.15 L-9.1 35.75 Q-8.5 34.8 -4.75 31.7 L-2.6 30.1 -3.1 29.8 -3.15 29.6 -6.65 26.05 -9.7 22.55 -9.7 22.05 -9.8 21.9 -9.9 21.6 -9.9 20.85 -10.05 19.5 -10.1 16.8 -10.3 16.8 -10.25 16.05 -10.35 16.05 -10.35 15.85 -10.35 15.55 -10.35 15.5 -10.35 14.3 -10.3 12.2 -10.3 12.05 -10.4 11.2 -10.35 9.9 -10.3 9.9 -10.3 9.35 -10.25 8.75 -10.3 8.2 -10.2 7.0 -10.0 6.25 -10.05 5.9 Q-10.05 5.5 -9.65 5.15 L-9.1 4.75 Q-8.5 3.8 -4.75 0.7 -1.85 -1.75 -0.8 -1.6 L-0.3 -1.65 1.15 -1.85 13.7 -1.85 14.1 -1.75 16.2 -1.95 17.8 -2.0 18.7 -1.85 M247.05 22.05 Q247.6 21.6 248.05 21.3 L248.0 21.15 248.0 19.75 Q248.0 18.95 248.25 18.35 L248.15 16.8 248.1 16.05 247.95 16.05 247.95 15.5 247.95 14.3 247.75 14.3 247.75 12.2 247.75 9.35 247.75 8.2 247.75 8.0 247.8 6.9 245.4 4.8 242.5 1.65 241.15 0.6 240.7 0.25 240.6 0.15 240.55 0.15 239.6 0.2 239.6 0.1 237.9 0.1 237.15 0.0 198.65 0.0 198.65 0.05 98.85 0.05 98.85 0.0 1.55 -0.05 1.55 0.0 Q1.4 0.2 1.0 0.2 L0.05 0.15 0.0 0.15 -0.05 0.2 Q-0.25 0.55 -0.85 0.55 L-1.4 0.55 -2.6 1.65 Q-6.65 5.7 -7.7 5.95 L-7.9 8.2 -8.05 9.35 -8.35 9.35 -8.35 12.2 -8.35 14.3 -8.2 14.3 -8.2 14.7 -8.2 15.5 -8.15 16.05 -7.85 16.05 -7.85 16.8 -7.8 18.35 -7.8 20.2 -8.05 21.15 -7.1 21.9 -5.8 23.15 Q-2.5 26.7 -2.0 28.0 L7.05 27.95 8.75 27.9 21.8 28.05 21.8 28.1 98.85 28.1 98.85 28.0 198.65 28.0 239.15 28.0 240.05 28.0 240.25 28.0 240.3 27.95 Q240.75 27.25 241.75 26.55 242.5 25.95 243.05 25.85 L245.65 23.3 247.05 22.05 M247.05 53.05 Q247.6 52.6 248.05 52.3 L248.0 52.15 248.0 50.75 Q248.0 49.95 248.25 49.35 L248.15 47.8 248.1 47.05 247.95 47.05 247.95 46.5 247.95 45.3 247.75 45.3 247.75 43.2 247.75 40.35 247.75 39.2 247.75 39.0 247.8 37.9 245.4 35.8 242.5 32.65 241.15 31.6 240.7 31.25 240.6 31.15 240.55 31.15 239.6 31.2 239.6 31.1 237.9 31.1 237.15 31.0 198.65 31.0 189.45 31.0 184.2 31.0 183.6 31.0 180.3 31.0 179.1 31.0 177.95 31.0 177.95 30.95 177.45 30.95 177.4 31.0 Q177.25 31.2 176.85 31.2 L175.9 31.15 175.85 31.15 175.8 31.2 Q175.6 31.55 175.0 31.55 L174.5 31.55 174.45 31.55 173.55 32.4 173.25 32.65 Q169.2 36.7 168.15 36.95 L167.95 39.2 167.8 40.35 167.55 40.35 167.5 43.2 167.5 45.3 167.7 45.3 167.7 45.7 167.7 46.5 167.7 47.05 168.0 47.05 168.0 47.8 168.05 49.35 168.05 51.2 167.8 52.15 168.75 52.9 170.05 54.15 Q173.35 57.7 173.85 59.0 L177.95 59.0 179.1 59.0 179.45 59.0 180.55 59.0 198.65 59.0 239.15 59.0 240.05 59.0 240.25 59.0 240.3 58.95 Q240.75 58.25 241.75 57.55 242.5 56.95 243.05 56.85 L245.65 54.3 247.05 53.05 M247.05 84.05 Q247.6 83.6 248.05 83.3 L248.0 83.15 248.0 81.75 Q248.0 80.95 248.25 80.35 L248.15 78.8 248.1 78.05 247.95 78.05 247.95 77.5 247.95 76.3 247.75 76.3 247.75 74.2 247.75 71.35 247.75 70.2 247.75 70.0 247.8 68.9 245.4 66.8 242.5 63.65 241.15 62.6 240.7 62.25 240.6 62.15 240.55 62.15 239.6 62.2 239.6 62.1 237.9 62.1 237.15 62.0 198.65 62.0 189.45 62.0 184.2 62.0 183.6 62.0 180.3 62.0 179.1 62.0 177.95 62.0 177.95 61.95 177.45 61.95 177.4 62.0 Q177.25 62.2 176.85 62.2 L175.9 62.15 175.85 62.15 175.8 62.2 Q175.6 62.55 175.0 62.55 L174.5 62.55 174.45 62.55 173.55 63.4 173.25 63.65 Q169.2 67.7 168.15 67.95 L167.95 70.2 167.8 71.35 167.55 71.35 167.5 74.2 167.5 76.3 167.7 76.3 167.7 76.7 167.7 77.5 167.7 78.05 168.0 78.05 168.0 78.8 168.05 80.35 168.05 82.2 167.8 83.15 168.75 83.9 170.05 85.15 Q173.35 88.7 173.85 90.0 L177.95 90.0 179.1 90.0 179.45 90.0 180.55 90.0 198.65 90.0 239.15 90.0 240.05 90.0 240.25 90.0 240.3 89.95 Q240.75 89.25 241.75 88.55 242.5 87.95 243.05 87.85 L245.65 85.3 247.05 84.05 M175.8 93.2 Q175.6 93.55 175.0 93.55 L174.5 93.55 174.45 93.55 173.55 94.4 173.25 94.65 Q169.2 98.7 168.15 98.95 L167.95 101.2 167.8 102.35 167.55 102.35 167.5 105.2 167.5 107.3 167.7 107.3 167.7 107.7 167.7 108.5 167.7 109.05 168.0 109.05 168.0 109.8 168.05 111.35 168.05 113.2 167.8 114.15 168.75 114.9 170.05 116.15 Q173.35 119.7 173.85 121.0 L177.95 121.0 179.1 121.0 179.45 121.0 180.55 121.0 198.65 121.0 239.15 121.0 240.05 121.0 240.25 121.0 240.3 120.95 Q240.75 120.25 241.75 119.55 242.5 118.95 243.05 118.85 L245.65 116.3 247.05 115.05 Q247.6 114.6 248.05 114.3 L248.0 114.15 248.0 112.75 Q248.0 111.95 248.25 111.35 L248.15 109.8 248.1 109.05 247.95 109.05 247.95 108.5 247.95 107.3 247.75 107.3 247.75 105.2 247.75 102.35 247.75 101.2 247.75 101.0 247.8 99.9 245.4 97.8 242.5 94.65 241.15 93.6 240.7 93.25 240.6 93.15 240.55 93.15 239.6 93.2 239.6 93.1 237.9 93.1 237.15 93.0 198.65 93.0 189.45 93.0 184.2 93.0 183.6 93.0 180.3 93.0 179.1 93.0 177.95 93.0 177.95 92.95 177.45 92.95 177.4 93.0 Q177.25 93.2 176.85 93.2 L175.9 93.15 175.85 93.15 175.8 93.2 M247.05 146.05 Q247.6 145.6 248.05 145.3 L248.0 145.15 248.0 143.75 Q248.0 142.95 248.25 142.35 L248.15 140.8 248.1 140.05 247.95 140.05 247.95 139.5 247.95 138.3 247.75 138.3 247.75 136.2 247.75 133.35 247.75 132.2 247.75 132.0 247.8 130.9 245.4 128.8 242.5 125.65 241.15 124.6 240.7 124.25 240.6 124.15 240.55 124.15 239.6 124.2 239.6 124.1 237.9 124.1 237.15 124.0 198.65 124.0 189.45 124.0 184.2 124.0 183.6 124.0 180.3 124.0 179.1 124.0 177.95 124.0 177.95 123.95 177.45 123.95 177.4 124.0 Q177.25 124.2 176.85 124.2 L175.9 124.15 175.85 124.15 175.8 124.2 Q175.6 124.55 175.0 124.55 L174.5 124.55 174.45 124.55 173.55 125.4 173.25 125.65 Q169.2 129.7 168.15 129.95 L167.95 132.2 167.8 133.35 167.55 133.35 167.5 136.2 167.5 138.3 167.7 138.3 167.7 138.7 167.7 139.5 167.7 140.05 168.0 140.05 168.0 140.8 168.05 142.35 168.05 144.2 167.8 145.15 168.75 145.9 170.05 147.15 Q173.35 150.7 173.85 152.0 L177.95 152.0 179.1 152.0 179.45 152.0 180.55 152.0 198.65 152.0 239.15 152.0 240.05 152.0 240.25 152.0 240.3 151.95 Q240.75 151.25 241.75 150.55 242.5 149.95 243.05 149.85 L245.65 147.3 247.05 146.05 M247.05 177.05 Q247.6 176.6 248.05 176.3 L248.0 176.15 248.0 174.75 Q248.0 173.95 248.25 173.35 L248.15 171.8 248.1 171.05 247.95 171.05 247.95 170.5 247.95 169.3 247.75 169.3 247.75 167.2 247.75 164.35 247.75 163.2 247.75 163.0 247.8 161.9 245.4 159.8 242.5 156.65 241.15 155.6 240.7 155.25 240.6 155.15 240.55 155.15 239.6 155.2 239.6 155.1 237.9 155.1 237.15 155.0 198.65 155.0 189.45 155.0 184.2 155.0 183.6 155.0 180.3 155.0 179.1 155.0 177.95 155.0 177.95 154.95 177.45 154.95 177.4 155.0 Q177.25 155.2 176.85 155.2 L175.9 155.15 175.85 155.15 175.8 155.2 Q175.6 155.55 175.0 155.55 L174.5 155.55 174.45 155.55 173.55 156.4 173.25 156.65 Q169.2 160.7 168.15 160.95 L167.95 163.2 167.8 164.35 167.55 164.35 167.5 167.2 167.5 169.3 167.7 169.3 167.7 169.7 167.7 170.5 167.7 171.05 168.0 171.05 168.0 171.8 168.05 173.35 168.05 175.2 167.8 176.15 168.75 176.9 170.05 178.15 Q173.35 181.7 173.85 183.0 L177.95 183.0 179.1 183.0 179.45 183.0 180.55 183.0 198.65 183.0 239.15 183.0 240.05 183.0 240.25 183.0 240.3 182.95 Q240.75 182.25 241.75 181.55 242.5 180.95 243.05 180.85 L245.65 178.3 247.05 177.05 M174.5 185.55 L174.45 185.55 173.55 186.4 173.25 186.65 Q169.2 190.7 168.15 190.95 L167.95 193.2 167.8 194.35 167.55 194.35 167.5 197.2 167.5 199.3 167.7 199.3 167.7 199.7 167.7 200.5 167.7 201.05 168.0 201.05 168.0 201.8 168.05 203.35 168.05 205.2 167.8 206.15 168.75 206.9 170.05 208.15 Q173.35 211.7 173.85 213.0 L177.95 213.0 179.1 213.0 179.45 213.0 180.55 213.0 198.65 213.0 239.15 213.0 240.05 213.0 240.25 213.0 240.3 212.95 Q240.75 212.25 241.75 211.55 242.5 210.95 243.05 210.85 L245.65 208.3 247.05 207.05 Q247.6 206.6 248.05 206.3 L248.0 206.15 248.0 204.75 Q248.0 203.95 248.25 203.35 L248.15 201.8 248.1 201.05 247.95 201.05 247.95 200.5 247.95 199.3 247.75 199.3 247.75 197.2 247.75 194.35 247.75 193.2 247.75 193.0 247.8 191.9 245.4 189.8 242.5 186.65 241.15 185.6 240.7 185.25 240.6 185.15 240.55 185.15 239.6 185.2 239.6 185.1 238.8 185.1 237.9 185.1 237.75 185.1 234.0 185.1 233.35 185.1 233.05 185.1 232.2 185.1 205.45 185.1 198.65 185.1 198.65 185.0 189.45 185.0 184.2 185.0 183.6 185.0 180.3 185.0 179.1 185.0 177.95 185.0 177.95 184.95 177.45 184.95 177.4 185.0 Q177.25 185.2 176.9 185.2 L176.6 185.2 175.9 185.15 175.8 185.2 Q175.6 185.55 175.0 185.55 L174.5 185.55 M153.85 31.15 L152.95 31.2 152.95 31.1 151.2 31.1 150.5 31.0 150.4 31.0 141.85 31.0 132.9 31.0 92.2 31.05 92.2 31.0 1.55 30.95 1.55 31.0 Q1.4 31.2 1.0 31.2 L0.05 31.15 0.0 31.15 -0.05 31.2 Q-0.25 31.55 -0.85 31.55 L-1.4 31.55 -2.6 32.65 Q-6.65 36.7 -7.7 36.95 L-7.9 39.2 -8.05 40.35 -8.35 40.35 -8.35 43.2 -8.35 45.3 -8.2 45.3 -8.2 45.7 -8.2 46.5 -8.15 47.05 -7.85 47.05 -7.85 47.8 -7.8 49.35 -7.8 51.2 -8.05 52.15 -7.1 52.9 -5.8 54.15 Q-2.5 57.7 -2.0 59.0 L7.05 58.95 8.75 58.9 21.8 59.05 21.8 59.1 92.2 59.1 92.2 59.0 126.6 59.0 127.75 59.0 141.85 59.0 152.45 59.0 153.35 59.0 153.6 59.0 153.6 58.95 155.05 57.55 156.4 56.85 158.95 54.3 160.4 53.05 161.35 52.3 161.35 52.15 161.35 50.75 161.55 49.35 161.45 47.8 161.4 47.05 161.25 47.05 161.25 46.5 161.25 45.3 161.05 45.3 161.05 43.2 161.05 40.35 161.05 39.2 161.05 39.0 161.1 37.9 158.7 35.8 155.8 32.65 154.45 31.6 154.0 31.25 153.95 31.15 153.85 31.15 M160.4 84.05 L161.35 83.3 161.35 83.15 161.35 81.75 161.55 80.35 161.45 78.8 161.4 78.05 161.25 78.05 161.25 77.5 161.25 76.3 161.05 76.3 161.05 74.2 161.05 71.35 161.05 70.2 161.05 70.0 161.1 68.9 158.7 66.8 155.8 63.65 154.45 62.6 154.0 62.25 153.95 62.15 153.85 62.15 152.95 62.2 152.95 62.1 151.2 62.1 150.5 62.0 150.4 62.0 141.85 62.0 132.9 62.0 92.2 62.05 92.2 62.0 1.55 61.95 1.55 62.0 Q1.4 62.2 1.0 62.2 L0.05 62.15 0.0 62.15 -0.05 62.2 Q-0.25 62.55 -0.85 62.55 L-1.4 62.55 -2.6 63.65 Q-6.65 67.7 -7.7 67.95 L-7.9 70.2 -8.05 71.35 -8.35 71.35 -8.35 74.2 -8.35 76.3 -8.2 76.3 -8.2 76.7 -8.2 77.5 -8.15 78.05 -7.85 78.05 -7.85 78.8 -7.8 80.35 -7.8 82.2 -8.05 83.15 -7.1 83.9 -5.8 85.15 Q-2.5 88.7 -2.0 90.0 L7.05 89.95 8.75 89.9 21.8 90.05 21.8 90.1 92.2 90.1 92.2 90.0 126.6 90.0 127.75 90.0 141.85 90.0 152.45 90.0 153.35 90.0 153.6 90.0 153.6 89.95 155.05 88.55 156.4 87.85 158.95 85.3 160.4 84.05 M141.85 93.0 L132.9 93.0 92.2 93.05 92.2 93.0 1.55 92.95 1.55 93.0 Q1.4 93.2 1.0 93.2 L0.05 93.15 0.0 93.15 -0.05 93.2 Q-0.25 93.55 -0.85 93.55 L-1.4 93.55 -2.6 94.65 Q-6.65 98.7 -7.7 98.95 L-7.9 101.2 -8.05 102.35 -8.35 102.35 -8.35 105.2 -8.35 107.3 -8.2 107.3 -8.2 107.7 -8.2 108.5 -8.15 109.05 -7.85 109.05 -7.85 109.8 -7.8 111.35 -7.8 113.2 -8.05 114.15 -7.1 114.9 -5.8 116.15 Q-2.5 119.7 -2.0 121.0 L7.05 120.95 8.75 120.9 21.8 121.05 21.8 121.1 92.2 121.1 92.2 121.0 126.6 121.0 127.75 121.0 141.85 121.0 152.45 121.0 153.35 121.0 153.6 121.0 153.6 120.95 155.05 119.55 156.4 118.85 158.95 116.3 160.4 115.05 161.35 114.3 161.35 114.15 161.35 112.75 161.55 111.35 161.45 109.8 161.4 109.05 161.25 109.05 161.25 108.5 161.25 107.3 161.05 107.3 161.05 105.2 161.05 102.35 161.05 101.2 161.05 101.0 161.1 99.9 158.7 97.8 155.8 94.65 154.45 93.6 154.0 93.25 153.95 93.15 153.85 93.15 152.95 93.2 152.95 93.1 151.2 93.1 150.5 93.0 150.4 93.0 141.85 93.0 M160.4 146.05 L161.35 145.3 161.35 145.15 161.35 143.75 161.55 142.35 161.45 140.8 161.4 140.05 161.25 140.05 161.25 139.5 161.25 138.3 161.05 138.3 161.05 136.2 161.05 133.35 161.05 132.2 161.05 132.0 161.1 130.9 158.7 128.8 155.8 125.65 154.45 124.6 154.0 124.25 153.95 124.15 153.85 124.15 152.95 124.2 152.95 124.1 151.2 124.1 150.5 124.0 150.4 124.0 141.85 124.0 132.9 124.0 92.2 124.05 92.2 124.0 1.55 123.95 1.55 124.0 Q1.4 124.2 1.0 124.2 L0.05 124.15 0.0 124.15 -0.05 124.2 Q-0.25 124.55 -0.85 124.55 L-1.4 124.55 -2.6 125.65 Q-6.65 129.7 -7.7 129.95 L-7.9 132.2 -8.05 133.35 -8.35 133.35 -8.35 136.2 -8.35 138.3 -8.2 138.3 -8.2 138.7 -8.2 139.5 -8.15 140.05 -7.85 140.05 -7.85 140.8 -7.8 142.35 -7.8 144.2 -8.05 145.15 -7.1 145.9 -5.8 147.15 Q-2.5 150.7 -2.0 152.0 L7.05 151.95 8.75 151.9 21.8 152.05 21.8 152.1 92.2 152.1 92.2 152.0 126.6 152.0 127.75 152.0 141.85 152.0 152.45 152.0 153.35 152.0 153.6 152.0 153.6 151.95 155.05 150.55 156.4 149.85 158.95 147.3 160.4 146.05 M160.4 177.05 L161.35 176.3 161.35 176.15 161.35 174.75 161.55 173.35 161.45 171.8 161.4 171.05 161.25 171.05 161.25 170.5 161.25 169.3 161.05 169.3 161.05 167.2 161.05 164.35 161.05 163.2 161.05 163.0 161.1 161.9 158.7 159.8 155.8 156.65 154.45 155.6 154.0 155.25 153.95 155.15 153.85 155.15 152.95 155.2 152.95 155.1 151.2 155.1 150.5 155.0 150.4 155.0 141.85 155.0 132.9 155.0 92.2 155.05 92.2 155.0 1.55 154.95 1.55 155.0 Q1.4 155.2 1.0 155.2 L0.05 155.15 0.0 155.15 -0.05 155.2 Q-0.25 155.55 -0.85 155.55 L-1.4 155.55 -2.6 156.65 Q-6.65 160.7 -7.7 160.95 L-7.9 163.2 -8.05 164.35 -8.35 164.35 -8.35 167.2 -8.35 169.3 -8.2 169.3 -8.2 169.7 -8.2 170.5 -8.15 171.05 -7.85 171.05 -7.85 171.8 -7.8 173.35 -7.8 175.2 -8.05 176.15 -7.1 176.9 -5.8 178.15 Q-2.5 181.7 -2.0 183.0 L7.05 182.95 8.75 182.9 21.8 183.05 21.8 183.1 92.2 183.1 92.2 183.0 126.6 183.0 127.75 183.0 141.85 183.0 152.45 183.0 153.35 183.0 153.6 183.0 153.6 182.95 155.05 181.55 156.4 180.85 158.95 178.3 160.4 177.05 M153.85 185.15 L152.95 185.2 152.95 185.1 151.2 185.1 151.1 185.1 147.3 185.1 146.35 185.1 141.85 185.1 141.85 185.0 132.9 185.0 92.2 185.05 92.2 185.0 1.55 184.95 1.55 185.0 Q1.4 185.2 1.05 185.2 L0.75 185.2 0.05 185.15 -0.05 185.2 Q-0.25 185.55 -0.85 185.55 L-1.4 185.55 -2.6 186.65 Q-6.65 190.7 -7.7 190.95 L-7.9 193.2 -8.05 194.35 -8.35 194.35 -8.35 197.2 -8.35 199.3 -8.2 199.3 -8.2 199.7 -8.2 200.5 -8.15 201.05 -7.85 201.05 -7.85 201.8 -7.8 203.35 -7.8 205.2 -8.05 206.15 -7.1 206.9 -5.8 208.15 Q-2.5 211.7 -2.0 213.0 L7.05 212.95 8.75 212.9 21.8 213.05 21.8 213.1 92.2 213.1 92.2 213.0 126.6 213.0 127.75 213.0 141.85 213.0 152.45 213.0 153.35 213.0 153.6 213.0 153.6 212.95 155.05 211.55 156.4 210.85 158.95 208.3 160.4 207.05 161.35 206.3 161.35 206.15 161.35 204.75 161.55 203.35 161.45 201.8 161.4 201.05 161.25 201.05 161.25 200.5 161.25 199.3 161.05 199.3 161.05 197.2 161.05 194.35 161.05 193.2 161.05 193.0 161.1 191.9 158.7 189.8 155.8 186.65 154.45 185.6 154.0 185.25 153.95 185.15 153.85 185.15 M153.85 215.15 L152.95 215.2 152.95 215.1 151.2 215.1 151.1 215.1 147.3 215.1 146.35 215.1 141.85 215.1 141.85 215.0 132.9 215.0 92.2 215.05 92.2 215.0 1.55 214.95 1.55 215.0 Q1.4 215.2 1.05 215.2 L0.75 215.2 0.05 215.15 -0.05 215.2 Q-0.25 215.55 -0.85 215.55 L-1.4 215.55 -2.6 216.65 Q-6.65 220.7 -7.7 220.95 L-7.9 223.2 -8.05 224.35 -8.35 224.35 -8.35 227.2 -8.35 229.3 -8.2 229.3 -8.2 229.7 -8.2 230.5 -8.15 231.05 -7.85 231.05 -7.85 231.8 -7.8 233.35 -7.8 235.2 -8.05 236.15 -7.1 236.9 -5.8 238.15 Q-2.5 241.7 -2.0 243.0 L7.05 242.95 8.75 242.9 21.8 243.05 21.8 243.1 92.2 243.1 92.2 243.0 126.6 243.0 127.75 243.0 141.85 243.0 152.45 243.0 153.35 243.0 153.6 243.0 153.6 242.95 155.05 241.55 156.4 240.85 158.95 238.3 160.4 237.05 161.35 236.3 161.35 236.15 161.35 234.75 161.55 233.35 161.45 231.8 161.4 231.05 161.25 231.05 161.25 230.5 161.25 229.3 161.05 229.3 161.05 227.2 161.05 224.35 161.05 223.2 161.05 223.0 161.1 221.9 158.7 219.8 155.8 216.65 154.45 215.6 154.0 215.25 153.95 215.15 153.85 215.15 M141.85 246.0 L132.9 246.0 92.2 246.05 92.2 246.0 1.55 245.95 1.55 246.0 Q1.4 246.2 1.0 246.2 L0.05 246.15 0.0 246.15 -0.05 246.2 Q-0.25 246.55 -0.85 246.55 L-1.4 246.55 -2.6 247.65 Q-6.65 251.7 -7.7 251.95 L-7.9 254.2 -8.05 255.35 -8.35 255.35 -8.35 258.2 -8.35 260.3 -8.2 260.3 -8.2 260.7 -8.2 261.5 -8.15 262.05 -7.85 262.05 -7.85 262.8 -7.8 264.35 -7.8 266.2 -8.05 267.15 -7.1 267.9 -5.8 269.15 Q-2.5 272.7 -2.0 274.0 L7.05 273.95 8.75 273.9 21.8 274.05 21.8 274.1 92.2 274.1 92.2 274.0 126.6 274.0 127.75 274.0 141.85 274.0 152.45 274.0 153.35 274.0 153.6 274.0 153.6 273.95 155.05 272.55 156.4 271.85 158.95 269.3 160.4 268.05 161.35 267.3 161.35 267.15 161.35 265.75 161.55 264.35 161.45 262.8 161.4 262.05 161.25 262.05 161.25 261.5 161.25 260.3 161.05 260.3 161.05 258.2 161.05 255.35 161.05 254.2 161.05 254.0 161.1 252.9 158.7 250.8 155.8 247.65 154.45 246.6 154.0 246.25 153.95 246.15 153.85 246.15 152.95 246.2 152.95 246.1 151.2 246.1 150.5 246.0 150.4 246.0 141.85 246.0 M141.85 277.0 L132.9 277.0 92.2 277.05 92.2 277.0 1.55 276.95 1.55 277.0 Q1.4 277.2 1.0 277.2 L0.05 277.15 0.0 277.15 -0.05 277.2 Q-0.25 277.55 -0.85 277.55 L-1.4 277.55 -2.6 278.65 Q-6.65 282.7 -7.7 282.95 L-7.9 285.2 -8.05 286.35 -8.35 286.35 -8.35 289.2 -8.35 291.3 -8.2 291.3 -8.2 291.7 -8.2 292.5 -8.15 293.05 -7.85 293.05 -7.85 293.8 -7.8 295.35 -7.8 297.2 -8.05 298.15 -7.1 298.9 -5.8 300.15 Q-2.5 303.7 -2.0 305.0 L7.05 304.95 8.75 304.9 21.8 305.05 21.8 305.1 92.2 305.1 92.2 305.0 126.6 305.0 127.75 305.0 141.85 305.0 152.45 305.0 153.35 305.0 153.6 305.0 153.6 304.95 155.05 303.55 156.4 302.85 158.95 300.3 160.4 299.05 161.35 298.3 161.35 298.15 161.35 296.75 161.55 295.35 161.45 293.8 161.4 293.05 161.25 293.05 161.25 292.5 161.25 291.3 161.05 291.3 161.05 289.2 161.05 286.35 161.05 285.2 161.05 285.0 161.1 283.9 158.7 281.8 155.8 278.65 154.45 277.6 154.0 277.25 153.95 277.15 153.85 277.15 152.95 277.2 152.95 277.1 151.2 277.1 150.5 277.0 150.4 277.0 141.85 277.0 M160.4 329.05 L161.35 328.3 161.35 328.15 161.35 326.75 161.55 325.35 161.45 323.8 161.4 323.05 161.25 323.05 161.25 322.5 161.25 321.3 161.05 321.3 161.05 319.2 161.05 316.35 161.05 315.2 161.05 315.0 161.1 313.9 158.7 311.8 155.8 308.65 154.45 307.6 154.0 307.25 153.95 307.15 153.85 307.15 152.95 307.2 152.95 307.1 151.2 307.1 151.1 307.1 147.3 307.1 146.35 307.1 141.85 307.1 141.85 307.0 132.9 307.0 92.2 307.05 92.2 307.0 1.55 306.95 1.55 307.0 Q1.4 307.2 1.05 307.2 L0.75 307.2 0.05 307.15 -0.05 307.2 Q-0.25 307.55 -0.85 307.55 L-1.4 307.55 -2.6 308.65 Q-6.65 312.7 -7.7 312.95 L-7.9 315.2 -8.05 316.35 -8.35 316.35 -8.35 319.2 -8.35 321.3 -8.2 321.3 -8.2 321.7 -8.2 322.5 -8.15 323.05 -7.85 323.05 -7.85 323.8 -7.8 325.35 -7.8 327.2 -8.05 328.15 -7.1 328.9 -5.8 330.15 Q-2.5 333.7 -2.0 335.0 L7.05 334.95 8.75 334.9 21.8 335.05 21.8 335.1 92.2 335.1 92.2 335.0 126.6 335.0 127.75 335.0 141.85 335.0 152.45 335.0 153.35 335.0 153.6 335.0 153.6 334.95 155.05 333.55 156.4 332.85 158.95 330.3 160.4 329.05 M247.05 237.05 Q247.6 236.6 248.05 236.3 L248.0 236.15 248.0 234.75 Q248.0 233.95 248.25 233.35 L248.15 231.8 248.1 231.05 247.95 231.05 247.95 230.5 247.95 229.3 247.75 229.3 247.75 227.2 247.75 224.35 247.75 223.2 247.75 223.0 247.8 221.9 245.4 219.8 242.5 216.65 241.15 215.6 240.7 215.25 240.6 215.15 240.55 215.15 239.6 215.2 239.6 215.1 238.8 215.1 237.9 215.1 237.75 215.1 233.35 215.1 233.05 215.1 232.2 215.1 205.45 215.1 198.65 215.1 198.65 215.0 189.45 215.0 184.2 215.0 183.6 215.0 180.3 215.0 179.1 215.0 177.95 215.0 177.95 214.95 177.45 214.95 177.4 215.0 Q177.25 215.2 176.9 215.2 L176.6 215.2 175.9 215.15 175.8 215.2 Q175.6 215.55 175.0 215.55 L174.5 215.55 174.45 215.55 173.55 216.4 173.25 216.65 Q169.2 220.7 168.15 220.95 L167.95 223.2 167.8 224.35 167.55 224.35 167.5 227.2 167.5 229.3 167.7 229.3 167.7 229.7 167.7 230.5 167.7 231.05 168.0 231.05 168.0 231.8 168.05 233.35 168.05 235.2 167.8 236.15 168.75 236.9 170.05 238.15 Q173.35 241.7 173.85 243.0 L177.95 243.0 179.1 243.0 179.45 243.0 180.55 243.0 198.65 243.0 239.15 243.0 240.05 243.0 240.25 243.0 240.3 242.95 Q240.75 242.25 241.75 241.55 242.5 240.95 243.05 240.85 L245.65 238.3 247.05 237.05 M247.05 268.05 Q247.6 267.6 248.05 267.3 L248.0 267.15 248.0 265.75 Q248.0 264.95 248.25 264.35 L248.15 262.8 248.1 262.05 247.95 262.05 247.95 261.5 247.95 260.3 247.75 260.3 247.75 258.2 247.75 255.35 247.75 254.2 247.75 254.0 247.8 252.9 245.4 250.8 242.5 247.65 241.15 246.6 240.7 246.25 240.6 246.15 240.55 246.15 239.6 246.2 239.6 246.1 237.9 246.1 237.15 246.0 198.65 246.0 189.45 246.0 184.2 246.0 183.6 246.0 180.3 246.0 179.1 246.0 177.95 246.0 177.95 245.95 177.45 245.95 177.4 246.0 Q177.25 246.2 176.85 246.2 L175.9 246.15 175.85 246.15 175.8 246.2 Q175.6 246.55 175.0 246.55 L174.5 246.55 174.45 246.55 173.55 247.4 173.25 247.65 Q169.2 251.7 168.15 251.95 L167.95 254.2 167.8 255.35 167.55 255.35 167.5 258.2 167.5 260.3 167.7 260.3 167.7 260.7 167.7 261.5 167.7 262.05 168.0 262.05 168.0 262.8 168.05 264.35 168.05 266.2 167.8 267.15 168.75 267.9 170.05 269.15 Q173.35 272.7 173.85 274.0 L177.95 274.0 179.1 274.0 179.45 274.0 180.55 274.0 198.65 274.0 239.15 274.0 240.05 274.0 240.25 274.0 240.3 273.95 Q240.75 273.25 241.75 272.55 242.5 271.95 243.05 271.85 L245.65 269.3 247.05 268.05 M247.05 299.05 Q247.6 298.6 248.05 298.3 L248.0 298.15 248.0 296.75 Q248.0 295.95 248.25 295.35 L248.15 293.8 248.1 293.05 247.95 293.05 247.95 292.5 247.95 291.3 247.75 291.3 247.75 289.2 247.75 286.35 247.75 285.2 247.75 285.0 247.8 283.9 245.4 281.8 242.5 278.65 241.15 277.6 240.7 277.25 240.6 277.15 240.55 277.15 239.6 277.2 239.6 277.1 237.9 277.1 237.15 277.0 198.65 277.0 189.45 277.0 184.2 277.0 183.6 277.0 180.3 277.0 179.1 277.0 177.95 277.0 177.95 276.95 177.45 276.95 177.4 277.0 Q177.25 277.2 176.85 277.2 L175.9 277.15 175.85 277.15 175.8 277.2 Q175.6 277.55 175.0 277.55 L174.5 277.55 174.45 277.55 173.55 278.4 173.25 278.65 Q169.2 282.7 168.15 282.95 L167.95 285.2 167.8 286.35 167.55 286.35 167.5 289.2 167.5 291.3 167.7 291.3 167.7 291.7 167.7 292.5 167.7 293.05 168.0 293.05 168.0 293.8 168.05 295.35 168.05 297.2 167.8 298.15 168.75 298.9 170.05 300.15 Q173.35 303.7 173.85 305.0 L177.95 305.0 179.1 305.0 179.45 305.0 180.55 305.0 198.65 305.0 239.15 305.0 240.05 305.0 240.25 305.0 240.3 304.95 Q240.75 304.25 241.75 303.55 242.5 302.95 243.05 302.85 L245.65 300.3 247.05 299.05 M240.55 307.15 L239.6 307.2 239.6 307.1 237.9 307.1 237.75 307.1 234.0 307.1 233.35 307.1 233.05 307.1 232.2 307.1 205.45 307.1 198.65 307.1 198.65 307.0 189.45 307.0 184.2 307.0 183.6 307.0 180.3 307.0 179.1 307.0 177.95 307.0 177.95 306.95 177.45 306.95 177.4 307.0 Q177.25 307.2 176.9 307.2 L176.6 307.2 175.9 307.15 175.8 307.2 Q175.6 307.55 175.0 307.55 L174.5 307.55 174.45 307.55 173.55 308.4 173.25 308.65 Q169.2 312.7 168.15 312.95 L167.95 315.2 167.8 316.35 167.55 316.35 167.5 319.2 167.5 321.3 167.7 321.3 167.7 321.7 167.7 322.5 167.7 323.05 168.0 323.05 168.0 323.8 168.05 325.35 168.05 327.2 167.8 328.15 168.75 328.9 170.05 330.15 Q173.35 333.7 173.85 335.0 L177.95 335.0 179.1 335.0 179.45 335.0 180.55 335.0 198.65 335.0 239.15 335.0 240.05 335.0 240.25 335.0 240.3 334.95 Q240.75 334.25 241.75 333.55 242.5 332.95 243.05 332.85 L245.65 330.3 247.05 329.05 Q247.6 328.6 248.05 328.3 L248.0 328.15 248.0 326.75 Q248.0 325.95 248.25 325.35 L248.15 323.8 248.1 323.05 247.95 323.05 247.95 322.5 247.95 321.3 247.75 321.3 247.75 319.2 247.75 316.35 247.75 315.2 247.75 315.0 247.8 313.9 245.4 311.8 242.5 308.65 241.15 307.6 240.7 307.25 240.6 307.15 240.55 307.15" fill="#92a387" fill-rule="evenodd" stroke="none"/>
    <path d="M240.7 0.25 L241.15 0.6 242.5 1.65 245.4 4.8 247.8 6.9 247.75 8.0 247.75 8.2 247.75 9.35 247.75 12.2 247.75 14.3 247.95 14.3 247.95 15.5 247.95 16.05 248.1 16.05 248.15 16.8 248.25 18.35 Q248.0 18.95 248.0 19.75 L248.0 21.15 248.05 21.3 Q247.6 21.6 247.05 22.05 L246.95 21.9 246.9 21.9 Q246.35 21.9 245.05 20.75 L244.45 20.2 244.35 20.3 243.95 19.75 243.8 19.3 243.8 18.35 243.8 16.8 243.65 16.8 243.6 12.2 243.55 10.8 243.6 8.6 243.25 8.4 243.1 8.2 242.4 7.35 241.3 6.45 239.5 5.0 237.85 4.85 235.0 4.85 235.0 4.9 198.65 4.9 198.65 4.95 191.3 4.95 191.3 5.0 21.8 5.05 21.8 5.15 10.55 5.1 10.55 5.05 0.45 5.0 -0.6 6.1 Q-2.05 7.5 -3.15 8.2 L-3.45 8.4 -3.45 8.8 -3.45 9.35 -3.45 9.9 -3.4 10.35 -3.4 10.55 -3.45 10.95 -3.4 11.65 -3.45 12.2 -3.5 15.85 -3.5 16.0 -3.4 16.05 -3.4 17.4 -3.15 19.1 -3.15 19.6 -3.35 20.2 Q-4.4 20.2 -5.5 20.8 L-6.4 21.45 -6.8 21.55 -7.1 21.9 -8.05 21.15 -7.8 20.2 -7.8 18.35 -7.85 16.8 -7.85 16.05 -8.15 16.05 -8.2 15.5 -8.2 14.7 -8.2 14.3 -8.35 14.3 -8.35 12.2 -8.35 9.35 -8.05 9.35 -7.9 8.2 -7.7 5.95 Q-6.65 5.7 -2.6 1.65 L-1.4 0.55 -0.85 0.55 Q-0.25 0.55 -0.05 0.2 L0.05 0.15 1.0 0.2 Q1.4 0.2 1.55 0.0 L1.55 -0.05 98.85 0.0 98.85 0.05 198.65 0.05 198.65 0.1 237.9 0.1 239.6 0.1 239.6 0.2 240.55 0.15 240.7 0.25 M240.7 31.25 L241.15 31.6 242.5 32.65 245.4 35.8 247.8 37.9 247.75 39.0 247.75 39.2 247.75 40.35 247.75 43.2 247.75 45.3 247.95 45.3 247.95 46.5 247.95 47.05 248.1 47.05 248.15 47.8 248.25 49.35 Q248.0 49.95 248.0 50.75 L248.0 52.15 248.05 52.3 Q247.6 52.6 247.05 53.05 L246.95 52.9 246.9 52.9 Q246.35 52.9 245.05 51.75 L244.45 51.2 244.35 51.3 243.95 50.75 243.8 50.3 243.8 49.35 243.8 47.8 243.65 47.8 243.6 43.2 243.55 41.8 243.6 39.6 243.25 39.4 243.1 39.2 242.4 38.35 241.3 37.45 239.5 36.0 237.85 35.85 235.0 35.85 235.0 35.9 183.6 35.95 183.6 36.05 180.3 36.05 180.3 36.1 179.1 36.1 179.1 36.05 176.3 36.0 175.25 37.1 172.7 39.2 172.4 39.4 172.4 39.8 172.4 40.35 172.4 40.9 172.5 41.35 172.5 41.55 172.4 41.95 172.45 42.65 172.4 43.2 172.35 46.85 172.35 47.0 172.5 47.05 172.5 48.4 172.7 50.1 172.7 50.6 172.5 51.2 Q171.45 51.2 170.35 51.8 L169.45 52.45 169.1 52.55 168.75 52.9 167.8 52.15 168.05 51.2 168.05 49.35 168.0 47.8 168.0 47.05 167.7 47.05 167.7 46.5 167.7 45.7 167.7 45.3 167.5 45.3 167.5 43.2 167.55 40.35 167.8 40.35 167.95 39.2 168.15 36.95 Q169.2 36.7 173.25 32.65 L173.55 32.4 174.5 31.55 175.0 31.55 Q175.6 31.55 175.8 31.2 L175.9 31.15 176.85 31.2 Q177.25 31.2 177.4 31.0 L177.45 30.95 177.95 30.95 177.95 31.0 179.1 31.0 180.3 31.0 183.6 31.0 184.2 31.0 189.45 31.0 198.65 31.0 198.65 31.1 237.9 31.1 239.6 31.1 239.6 31.2 240.55 31.15 240.7 31.25 M240.7 62.25 L241.15 62.6 242.5 63.65 245.4 66.8 247.8 68.9 247.75 70.0 247.75 70.2 247.75 71.35 247.75 74.2 247.75 76.3 247.95 76.3 247.95 77.5 247.95 78.05 248.1 78.05 248.15 78.8 248.25 80.35 Q248.0 80.95 248.0 81.75 L248.0 83.15 248.05 83.3 Q247.6 83.6 247.05 84.05 L246.95 83.9 246.9 83.9 Q246.35 83.9 245.05 82.75 L244.45 82.2 244.35 82.3 243.95 81.75 243.8 81.3 243.8 80.35 243.8 78.8 243.65 78.8 243.6 74.2 243.55 72.8 243.6 70.6 243.25 70.4 243.1 70.2 242.4 69.35 241.3 68.45 239.5 67.0 237.85 66.85 235.0 66.85 235.0 66.9 183.6 66.95 183.6 67.05 180.3 67.05 180.3 67.1 179.1 67.1 179.1 67.05 176.3 67.0 175.25 68.1 172.7 70.2 172.4 70.4 172.4 70.8 172.4 71.35 172.4 71.9 172.5 72.35 172.5 72.55 172.4 72.95 172.45 73.65 172.4 74.2 172.35 77.85 172.35 78.0 172.5 78.05 172.5 79.4 172.7 81.1 172.7 81.6 172.5 82.2 Q171.45 82.2 170.35 82.8 L169.45 83.45 169.1 83.55 168.75 83.9 167.8 83.15 168.05 82.2 168.05 80.35 168.0 78.8 168.0 78.05 167.7 78.05 167.7 77.5 167.7 76.7 167.7 76.3 167.5 76.3 167.5 74.2 167.55 71.35 167.8 71.35 167.95 70.2 168.15 67.95 Q169.2 67.7 173.25 63.65 L173.55 63.4 174.5 62.55 175.0 62.55 Q175.6 62.55 175.8 62.2 L175.9 62.15 176.85 62.2 Q177.25 62.2 177.4 62.0 L177.45 61.95 177.95 61.95 177.95 62.0 179.1 62.0 180.3 62.0 183.6 62.0 184.2 62.0 189.45 62.0 198.65 62.0 198.65 62.1 237.9 62.1 239.6 62.1 239.6 62.2 240.55 62.15 240.7 62.25 M174.5 93.55 L175.0 93.55 Q175.6 93.55 175.8 93.2 L175.9 93.15 176.85 93.2 Q177.25 93.2 177.4 93.0 L177.45 92.95 177.95 92.95 177.95 93.0 179.1 93.0 180.3 93.0 183.6 93.0 184.2 93.0 189.45 93.0 198.65 93.0 198.65 93.1 237.9 93.1 239.6 93.1 239.6 93.2 240.55 93.15 240.7 93.25 241.15 93.6 242.5 94.65 245.4 97.8 247.8 99.9 247.75 101.0 247.75 101.2 247.75 102.35 247.75 105.2 247.75 107.3 247.95 107.3 247.95 108.5 247.95 109.05 248.1 109.05 248.15 109.8 248.25 111.35 Q248.0 111.95 248.0 112.75 L248.0 114.15 248.05 114.3 Q247.6 114.6 247.05 115.05 L246.95 114.9 246.9 114.9 Q246.35 114.9 245.05 113.75 L244.45 113.2 244.35 113.3 243.95 112.75 243.8 112.3 243.8 111.35 243.8 109.8 243.65 109.8 243.6 105.2 243.55 103.8 243.6 101.6 243.25 101.4 243.1 101.2 242.4 100.35 241.3 99.45 239.5 98.0 237.85 97.85 235.0 97.85 235.0 97.9 183.6 97.95 183.6 98.05 180.3 98.05 180.3 98.1 179.1 98.1 179.1 98.05 176.3 98.0 175.25 99.1 172.7 101.2 172.4 101.4 172.4 101.8 172.4 102.35 172.4 102.9 172.5 103.35 172.5 103.55 172.4 103.95 172.45 104.65 172.4 105.2 172.35 108.85 172.35 109.0 172.5 109.05 172.5 110.4 172.7 112.1 172.7 112.6 172.5 113.2 Q171.45 113.2 170.35 113.8 L169.45 114.45 169.1 114.55 168.75 114.9 167.8 114.15 168.05 113.2 168.05 111.35 168.0 109.8 168.0 109.05 167.7 109.05 167.7 108.5 167.7 107.7 167.7 107.3 167.5 107.3 167.5 105.2 167.55 102.35 167.8 102.35 167.95 101.2 168.15 98.95 Q169.2 98.7 173.25 94.65 L173.55 94.4 174.5 93.55 M240.7 124.25 L241.15 124.6 242.5 125.65 245.4 128.8 247.8 130.9 247.75 132.0 247.75 132.2 247.75 133.35 247.75 136.2 247.75 138.3 247.95 138.3 247.95 139.5 247.95 140.05 248.1 140.05 248.15 140.8 248.25 142.35 Q248.0 142.95 248.0 143.75 L248.0 145.15 248.05 145.3 Q247.6 145.6 247.05 146.05 L246.95 145.9 246.9 145.9 Q246.35 145.9 245.05 144.75 L244.45 144.2 244.35 144.3 243.95 143.75 243.8 143.3 243.8 142.35 243.8 140.8 243.65 140.8 243.6 136.2 243.55 134.8 243.6 132.6 243.25 132.4 243.1 132.2 242.4 131.35 241.3 130.45 239.5 129.0 237.85 128.85 235.0 128.85 235.0 128.9 183.6 128.95 183.6 129.05 180.3 129.05 180.3 129.1 179.1 129.1 179.1 129.05 176.3 129.0 175.25 130.1 172.7 132.2 172.4 132.4 172.4 132.8 172.4 133.35 172.4 133.9 172.5 134.35 172.5 134.55 172.4 134.95 172.45 135.65 172.4 136.2 172.35 139.85 172.35 140.0 172.5 140.05 172.5 141.4 172.7 143.1 172.7 143.6 172.5 144.2 Q171.45 144.2 170.35 144.8 L169.45 145.45 169.1 145.55 168.75 145.9 167.8 145.15 168.05 144.2 168.05 142.35 168.0 140.8 168.0 140.05 167.7 140.05 167.7 139.5 167.7 138.7 167.7 138.3 167.5 138.3 167.5 136.2 167.55 133.35 167.8 133.35 167.95 132.2 168.15 129.95 Q169.2 129.7 173.25 125.65 L173.55 125.4 174.5 124.55 175.0 124.55 Q175.6 124.55 175.8 124.2 L175.9 124.15 176.85 124.2 Q177.25 124.2 177.4 124.0 L177.45 123.95 177.95 123.95 177.95 124.0 179.1 124.0 180.3 124.0 183.6 124.0 184.2 124.0 189.45 124.0 198.65 124.0 198.65 124.1 237.9 124.1 239.6 124.1 239.6 124.2 240.55 124.15 240.7 124.25 M243.95 174.75 L243.8 174.3 243.8 173.35 243.8 171.8 243.65 171.8 243.6 167.2 243.55 165.8 243.6 163.6 243.25 163.4 243.1 163.2 242.4 162.35 241.3 161.45 239.5 160.0 237.85 159.85 235.0 159.85 235.0 159.9 183.6 159.95 183.6 160.05 180.3 160.05 180.3 160.1 179.1 160.1 179.1 160.05 176.3 160.0 175.25 161.1 172.7 163.2 172.4 163.4 172.4 163.8 172.4 164.35 172.4 164.9 172.5 165.35 172.5 165.55 172.4 165.95 172.45 166.65 172.4 167.2 172.35 170.85 172.35 171.0 172.5 171.05 172.5 172.4 172.7 174.1 172.7 174.6 172.5 175.2 Q171.45 175.2 170.35 175.8 L169.45 176.45 169.1 176.55 168.75 176.9 167.8 176.15 168.05 175.2 168.05 173.35 168.0 171.8 168.0 171.05 167.7 171.05 167.7 170.5 167.7 169.7 167.7 169.3 167.5 169.3 167.5 167.2 167.55 164.35 167.8 164.35 167.95 163.2 168.15 160.95 Q169.2 160.7 173.25 156.65 L173.55 156.4 174.5 155.55 175.0 155.55 Q175.6 155.55 175.8 155.2 L175.9 155.15 176.85 155.2 Q177.25 155.2 177.4 155.0 L177.45 154.95 177.95 154.95 177.95 155.0 179.1 155.0 180.3 155.0 183.6 155.0 184.2 155.0 189.45 155.0 198.65 155.0 198.65 155.1 237.9 155.1 239.6 155.1 239.6 155.2 240.55 155.15 240.7 155.25 241.15 155.6 242.5 156.65 245.4 159.8 247.8 161.9 247.75 163.0 247.75 163.2 247.75 164.35 247.75 167.2 247.75 169.3 247.95 169.3 247.95 170.5 247.95 171.05 248.1 171.05 248.15 171.8 248.25 173.35 Q248.0 173.95 248.0 174.75 L248.0 176.15 248.05 176.3 Q247.6 176.6 247.05 177.05 L246.95 176.9 246.9 176.9 Q246.35 176.9 245.05 175.75 L244.45 175.2 244.35 175.3 243.95 174.75 M174.5 185.55 L175.0 185.55 Q175.6 185.55 175.8 185.2 L175.9 185.15 176.6 185.2 176.9 185.2 Q177.25 185.2 177.4 185.0 L177.45 184.95 177.95 184.95 177.95 185.0 179.1 185.0 180.3 185.0 183.6 185.0 184.2 185.0 189.45 185.0 198.65 185.0 198.65 185.1 205.45 185.1 232.2 185.1 233.05 185.1 233.35 185.1 234.0 185.1 237.75 185.1 237.9 185.1 238.8 185.1 239.6 185.1 239.6 185.2 240.55 185.15 240.7 185.25 241.15 185.6 242.5 186.65 245.4 189.8 247.8 191.9 247.75 193.0 247.75 193.2 247.75 194.35 247.75 197.2 247.75 199.3 247.95 199.3 247.95 200.5 247.95 201.05 248.1 201.05 248.15 201.8 248.25 203.35 Q248.0 203.95 248.0 204.75 L248.0 206.15 248.05 206.3 Q247.6 206.6 247.05 207.05 L246.95 206.9 246.9 206.9 Q246.35 206.9 245.05 205.75 L244.45 205.2 244.35 205.3 243.95 204.75 243.8 204.3 243.8 203.35 243.8 201.8 243.65 201.8 243.6 197.2 243.55 195.8 243.6 193.6 243.25 193.4 243.1 193.2 242.4 192.35 241.3 191.45 239.5 190.0 237.85 189.85 235.0 189.85 235.0 189.9 183.6 189.95 183.6 190.05 180.3 190.05 180.3 190.1 179.1 190.1 179.1 190.05 176.3 190.0 175.25 191.1 172.7 193.2 172.4 193.4 172.4 193.8 172.4 194.35 172.4 194.9 172.5 195.35 172.5 195.55 172.4 195.95 172.45 196.65 172.4 197.2 172.35 200.85 172.35 201.0 172.5 201.05 172.5 202.4 172.7 204.1 172.7 204.6 172.5 205.2 Q171.45 205.2 170.35 205.8 L169.45 206.45 169.1 206.55 168.75 206.9 167.8 206.15 168.05 205.2 168.05 203.35 168.0 201.8 168.0 201.05 167.7 201.05 167.7 200.5 167.7 199.7 167.7 199.3 167.5 199.3 167.5 197.2 167.55 194.35 167.8 194.35 167.95 193.2 168.15 190.95 Q169.2 190.7 173.25 186.65 L173.55 186.4 174.5 185.55 M151.2 31.1 L152.95 31.1 152.95 31.2 153.85 31.15 154.0 31.25 154.45 31.6 155.8 32.65 158.7 35.8 161.1 37.9 161.05 39.0 161.05 39.2 161.05 40.35 161.05 43.2 161.05 45.3 161.25 45.3 161.25 46.5 161.25 47.05 161.4 47.05 161.45 47.8 161.55 49.35 161.35 50.75 161.35 52.15 161.35 52.3 160.4 53.05 160.25 52.9 160.2 52.9 Q159.65 52.9 158.4 51.75 L157.8 51.2 157.65 51.3 157.25 50.75 157.15 50.3 157.1 49.35 157.1 47.8 156.95 47.8 156.9 43.2 156.85 41.8 156.9 39.6 156.55 39.4 156.4 39.2 155.7 38.35 154.65 37.45 152.85 36.0 151.15 35.85 148.3 35.85 148.3 35.9 118.5 35.95 118.5 36.0 21.8 36.05 21.8 36.15 10.55 36.1 10.55 36.05 0.45 36.0 -0.6 37.1 Q-2.05 38.5 -3.15 39.2 L-3.45 39.4 -3.45 39.8 -3.45 40.35 -3.45 40.9 -3.4 41.35 -3.4 41.55 -3.45 41.95 -3.4 42.65 -3.45 43.2 -3.5 46.85 -3.5 47.0 -3.4 47.05 -3.4 48.4 -3.15 50.1 -3.15 50.6 -3.35 51.2 Q-4.4 51.2 -5.5 51.8 L-6.4 52.45 -6.8 52.55 -7.1 52.9 -8.05 52.15 -7.8 51.2 -7.8 49.35 -7.85 47.8 -7.85 47.05 -8.15 47.05 -8.2 46.5 -8.2 45.7 -8.2 45.3 -8.35 45.3 -8.35 43.2 -8.35 40.35 -8.05 40.35 -7.9 39.2 -7.7 36.95 Q-6.65 36.7 -2.6 32.65 L-1.4 31.55 -0.85 31.55 Q-0.25 31.55 -0.05 31.2 L0.05 31.15 1.0 31.2 Q1.4 31.2 1.55 31.0 L1.55 30.95 92.2 31.0 92.2 31.05 132.9 31.0 141.85 31.0 141.85 31.1 151.2 31.1 M157.25 81.75 L157.15 81.3 157.1 80.35 157.1 78.8 156.95 78.8 156.9 74.2 156.85 72.8 156.9 70.6 156.55 70.4 156.4 70.2 155.7 69.35 154.65 68.45 152.85 67.0 151.15 66.85 148.3 66.85 148.3 66.9 118.5 66.95 118.5 67.0 21.8 67.05 21.8 67.15 10.55 67.1 10.55 67.05 0.45 67.0 -0.6 68.1 Q-2.05 69.5 -3.15 70.2 L-3.45 70.4 -3.45 70.8 -3.45 71.35 -3.45 71.9 -3.4 72.35 -3.4 72.55 -3.45 72.95 -3.4 73.65 -3.45 74.2 -3.5 77.85 -3.5 78.0 -3.4 78.05 -3.4 79.4 -3.15 81.1 -3.15 81.6 -3.35 82.2 Q-4.4 82.2 -5.5 82.8 L-6.4 83.45 -6.8 83.55 -7.1 83.9 -8.05 83.15 -7.8 82.2 -7.8 80.35 -7.85 78.8 -7.85 78.05 -8.15 78.05 -8.2 77.5 -8.2 76.7 -8.2 76.3 -8.35 76.3 -8.35 74.2 -8.35 71.35 -8.05 71.35 -7.9 70.2 -7.7 67.95 Q-6.65 67.7 -2.6 63.65 L-1.4 62.55 -0.85 62.55 Q-0.25 62.55 -0.05 62.2 L0.05 62.15 1.0 62.2 Q1.4 62.2 1.55 62.0 L1.55 61.95 92.2 62.0 92.2 62.05 132.9 62.0 141.85 62.0 141.85 62.1 151.2 62.1 152.95 62.1 152.95 62.2 153.85 62.15 154.0 62.25 154.45 62.6 155.8 63.65 158.7 66.8 161.1 68.9 161.05 70.0 161.05 70.2 161.05 71.35 161.05 74.2 161.05 76.3 161.25 76.3 161.25 77.5 161.25 78.05 161.4 78.05 161.45 78.8 161.55 80.35 161.35 81.75 161.35 83.15 161.35 83.3 160.4 84.05 160.25 83.9 160.2 83.9 Q159.65 83.9 158.4 82.75 L157.8 82.2 157.65 82.3 157.25 81.75 M0.05 93.15 L1.0 93.2 Q1.4 93.2 1.55 93.0 L1.55 92.95 92.2 93.0 92.2 93.05 132.9 93.0 141.85 93.0 141.85 93.1 151.2 93.1 152.95 93.1 152.95 93.2 153.85 93.15 154.0 93.25 154.45 93.6 155.8 94.65 158.7 97.8 161.1 99.9 161.05 101.0 161.05 101.2 161.05 102.35 161.05 105.2 161.05 107.3 161.25 107.3 161.25 108.5 161.25 109.05 161.4 109.05 161.45 109.8 161.55 111.35 161.35 112.75 161.35 114.15 161.35 114.3 160.4 115.05 160.25 114.9 160.2 114.9 Q159.65 114.9 158.4 113.75 L157.8 113.2 157.65 113.3 157.25 112.75 157.15 112.3 157.1 111.35 157.1 109.8 156.95 109.8 156.9 105.2 156.85 103.8 156.9 101.6 156.55 101.4 156.4 101.2 155.7 100.35 154.65 99.45 152.85 98.0 151.15 97.85 148.3 97.85 148.3 97.9 118.5 97.95 118.5 98.0 21.8 98.05 21.8 98.15 10.55 98.1 10.55 98.05 0.45 98.0 -0.6 99.1 Q-2.05 100.5 -3.15 101.2 L-3.45 101.4 -3.45 101.8 -3.45 102.35 -3.45 102.9 -3.4 103.35 -3.4 103.55 -3.45 103.95 -3.4 104.65 -3.45 105.2 -3.5 108.85 -3.5 109.0 -3.4 109.05 -3.4 110.4 -3.15 112.1 -3.15 112.6 -3.35 113.2 Q-4.4 113.2 -5.5 113.8 L-6.4 114.45 -6.8 114.55 -7.1 114.9 -8.05 114.15 -7.8 113.2 -7.8 111.35 -7.85 109.8 -7.85 109.05 -8.15 109.05 -8.2 108.5 -8.2 107.7 -8.2 107.3 -8.35 107.3 -8.35 105.2 -8.35 102.35 -8.05 102.35 -7.9 101.2 -7.7 98.95 Q-6.65 98.7 -2.6 94.65 L-1.4 93.55 -0.85 93.55 Q-0.25 93.55 -0.05 93.2 L0.05 93.15 M157.25 143.75 L157.15 143.3 157.1 142.35 157.1 140.8 156.95 140.8 156.9 136.2 156.85 134.8 156.9 132.6 156.55 132.4 156.4 132.2 155.7 131.35 154.65 130.45 152.85 129.0 151.15 128.85 148.3 128.85 148.3 128.9 118.5 128.95 118.5 129.0 21.8 129.05 21.8 129.15 10.55 129.1 10.55 129.05 0.45 129.0 -0.6 130.1 Q-2.05 131.5 -3.15 132.2 L-3.45 132.4 -3.45 132.8 -3.45 133.35 -3.45 133.9 -3.4 134.35 -3.4 134.55 -3.45 134.95 -3.4 135.65 -3.45 136.2 -3.5 139.85 -3.5 140.0 -3.4 140.05 -3.4 141.4 -3.15 143.1 -3.15 143.6 -3.35 144.2 Q-4.4 144.2 -5.5 144.8 L-6.4 145.45 -6.8 145.55 -7.1 145.9 -8.05 145.15 -7.8 144.2 -7.8 142.35 -7.85 140.8 -7.85 140.05 -8.15 140.05 -8.2 139.5 -8.2 138.7 -8.2 138.3 -8.35 138.3 -8.35 136.2 -8.35 133.35 -8.05 133.35 -7.9 132.2 -7.7 129.95 Q-6.65 129.7 -2.6 125.65 L-1.4 124.55 -0.85 124.55 Q-0.25 124.55 -0.05 124.2 L0.05 124.15 1.0 124.2 Q1.4 124.2 1.55 124.0 L1.55 123.95 92.2 124.0 92.2 124.05 132.9 124.0 141.85 124.0 141.85 124.1 151.2 124.1 152.95 124.1 152.95 124.2 153.85 124.15 154.0 124.25 154.45 124.6 155.8 125.65 158.7 128.8 161.1 130.9 161.05 132.0 161.05 132.2 161.05 133.35 161.05 136.2 161.05 138.3 161.25 138.3 161.25 139.5 161.25 140.05 161.4 140.05 161.45 140.8 161.55 142.35 161.35 143.75 161.35 145.15 161.35 145.3 160.4 146.05 160.25 145.9 160.2 145.9 Q159.65 145.9 158.4 144.75 L157.8 144.2 157.65 144.3 157.25 143.75 M157.25 174.75 L157.15 174.3 157.1 173.35 157.1 171.8 156.95 171.8 156.9 167.2 156.85 165.8 156.9 163.6 156.55 163.4 156.4 163.2 155.7 162.35 154.65 161.45 152.85 160.0 151.15 159.85 148.3 159.85 148.3 159.9 118.5 159.95 118.5 160.0 21.8 160.05 21.8 160.15 10.55 160.1 10.55 160.05 0.45 160.0 -0.6 161.1 Q-2.05 162.5 -3.15 163.2 L-3.45 163.4 -3.45 163.8 -3.45 164.35 -3.45 164.9 -3.4 165.35 -3.4 165.55 -3.45 165.95 -3.4 166.65 -3.45 167.2 -3.5 170.85 -3.5 171.0 -3.4 171.05 -3.4 172.4 -3.15 174.1 -3.15 174.6 -3.35 175.2 Q-4.4 175.2 -5.5 175.8 L-6.4 176.45 -6.8 176.55 -7.1 176.9 -8.05 176.15 -7.8 175.2 -7.8 173.35 -7.85 171.8 -7.85 171.05 -8.15 171.05 -8.2 170.5 -8.2 169.7 -8.2 169.3 -8.35 169.3 -8.35 167.2 -8.35 164.35 -8.05 164.35 -7.9 163.2 -7.7 160.95 Q-6.65 160.7 -2.6 156.65 L-1.4 155.55 -0.85 155.55 Q-0.25 155.55 -0.05 155.2 L0.05 155.15 1.0 155.2 Q1.4 155.2 1.55 155.0 L1.55 154.95 92.2 155.0 92.2 155.05 132.9 155.0 141.85 155.0 141.85 155.1 151.2 155.1 152.95 155.1 152.95 155.2 153.85 155.15 154.0 155.25 154.45 155.6 155.8 156.65 158.7 159.8 161.1 161.9 161.05 163.0 161.05 163.2 161.05 164.35 161.05 167.2 161.05 169.3 161.25 169.3 161.25 170.5 161.25 171.05 161.4 171.05 161.45 171.8 161.55 173.35 161.35 174.75 161.35 176.15 161.35 176.3 160.4 177.05 160.25 176.9 160.2 176.9 Q159.65 176.9 158.4 175.75 L157.8 175.2 157.65 175.3 157.25 174.75 M-7.1 206.9 L-8.05 206.15 -7.8 205.2 -7.8 203.35 -7.85 201.8 -7.85 201.05 -8.15 201.05 -8.2 200.5 -8.2 199.7 -8.2 199.3 -8.35 199.3 -8.35 197.2 -8.35 194.35 -8.05 194.35 -7.9 193.2 -7.7 190.95 Q-6.65 190.7 -2.6 186.65 L-1.4 185.55 -0.85 185.55 Q-0.25 185.55 -0.05 185.2 L0.05 185.15 0.75 185.2 1.05 185.2 Q1.4 185.2 1.55 185.0 L1.55 184.95 92.2 185.0 92.2 185.05 132.9 185.0 141.85 185.0 141.85 185.1 146.35 185.1 147.3 185.1 151.1 185.1 151.2 185.1 152.95 185.1 152.95 185.2 153.85 185.15 154.0 185.25 154.45 185.6 155.8 186.65 158.7 189.8 161.1 191.9 161.05 193.0 161.05 193.2 161.05 194.35 161.05 197.2 161.05 199.3 161.25 199.3 161.25 200.5 161.25 201.05 161.4 201.05 161.45 201.8 161.55 203.35 161.35 204.75 161.35 206.15 161.35 206.3 160.4 207.05 160.25 206.9 160.2 206.9 Q159.65 206.9 158.4 205.75 L157.8 205.2 157.65 205.3 157.25 204.75 157.15 204.3 157.1 203.35 157.1 201.8 156.95 201.8 156.9 197.2 156.85 195.8 156.9 193.6 156.55 193.4 156.4 193.2 155.7 192.35 154.65 191.45 152.85 190.0 151.15 189.85 148.3 189.85 148.3 189.9 118.5 189.95 118.5 190.0 21.8 190.05 21.8 190.15 10.55 190.1 10.55 190.05 0.45 190.0 -0.6 191.1 Q-2.05 192.5 -3.15 193.2 L-3.45 193.4 -3.45 193.8 -3.45 194.35 -3.45 194.9 -3.4 195.35 -3.4 195.55 -3.45 195.95 -3.4 196.65 -3.45 197.2 -3.5 200.85 -3.5 201.0 -3.4 201.05 -3.4 202.4 -3.15 204.1 -3.15 204.6 -3.35 205.2 Q-4.4 205.2 -5.5 205.8 L-6.4 206.45 -6.8 206.55 -7.1 206.9 M-7.1 236.9 L-8.05 236.15 -7.8 235.2 -7.8 233.35 -7.85 231.8 -7.85 231.05 -8.15 231.05 -8.2 230.5 -8.2 229.7 -8.2 229.3 -8.35 229.3 -8.35 227.2 -8.35 224.35 -8.05 224.35 -7.9 223.2 -7.7 220.95 Q-6.65 220.7 -2.6 216.65 L-1.4 215.55 -0.85 215.55 Q-0.25 215.55 -0.05 215.2 L0.05 215.15 0.75 215.2 1.05 215.2 Q1.4 215.2 1.55 215.0 L1.55 214.95 92.2 215.0 92.2 215.05 132.9 215.0 141.85 215.0 141.85 215.1 146.35 215.1 147.3 215.1 151.1 215.1 151.2 215.1 152.95 215.1 152.95 215.2 153.85 215.15 154.0 215.25 154.45 215.6 155.8 216.65 158.7 219.8 161.1 221.9 161.05 223.0 161.05 223.2 161.05 224.35 161.05 227.2 161.05 229.3 161.25 229.3 161.25 230.5 161.25 231.05 161.4 231.05 161.45 231.8 161.55 233.35 161.35 234.75 161.35 236.15 161.35 236.3 160.4 237.05 160.25 236.9 160.2 236.9 Q159.65 236.9 158.4 235.75 L157.8 235.2 157.65 235.3 157.25 234.75 157.15 234.3 157.1 233.35 157.1 231.8 156.95 231.8 156.9 227.2 156.85 225.8 156.9 223.6 156.55 223.4 156.4 223.2 155.7 222.35 154.65 221.45 152.85 220.0 151.15 219.85 148.3 219.85 148.3 219.9 118.5 219.95 118.5 220.0 21.8 220.05 21.8 220.15 10.55 220.1 10.55 220.05 0.45 220.0 -0.6 221.1 Q-2.05 222.5 -3.15 223.2 L-3.45 223.4 -3.45 223.8 -3.45 224.35 -3.45 224.9 -3.4 225.35 -3.4 225.55 -3.45 225.95 -3.4 226.65 -3.45 227.2 -3.5 230.85 -3.5 231.0 -3.4 231.05 -3.4 232.4 -3.15 234.1 -3.15 234.6 -3.35 235.2 Q-4.4 235.2 -5.5 235.8 L-6.4 236.45 -6.8 236.55 -7.1 236.9 M141.85 246.0 L141.85 246.1 151.2 246.1 152.95 246.1 152.95 246.2 153.85 246.15 154.0 246.25 154.45 246.6 155.8 247.65 158.7 250.8 161.1 252.9 161.05 254.0 161.05 254.2 161.05 255.35 161.05 258.2 161.05 260.3 161.25 260.3 161.25 261.5 161.25 262.05 161.4 262.05 161.45 262.8 161.55 264.35 161.35 265.75 161.35 267.15 161.35 267.3 160.4 268.05 160.25 267.9 160.2 267.9 Q159.65 267.9 158.4 266.75 L157.8 266.2 157.65 266.3 157.25 265.75 157.15 265.3 157.1 264.35 157.1 262.8 156.95 262.8 156.9 258.2 156.85 256.8 156.9 254.6 156.55 254.4 156.4 254.2 155.7 253.35 154.65 252.45 152.85 251.0 151.15 250.85 148.3 250.85 148.3 250.9 118.5 250.95 118.5 251.0 21.8 251.05 21.8 251.15 10.55 251.1 10.55 251.05 0.45 251.0 -0.6 252.1 Q-2.05 253.5 -3.15 254.2 L-3.45 254.4 -3.45 254.8 -3.45 255.35 -3.45 255.9 -3.4 256.35 -3.4 256.55 -3.45 256.95 -3.4 257.65 -3.45 258.2 -3.5 261.85 -3.5 262.0 -3.4 262.05 -3.4 263.4 -3.15 265.1 -3.15 265.6 -3.35 266.2 Q-4.4 266.2 -5.5 266.8 L-6.4 267.45 -6.8 267.55 -7.1 267.9 -8.05 267.15 -7.8 266.2 -7.8 264.35 -7.85 262.8 -7.85 262.05 -8.15 262.05 -8.2 261.5 -8.2 260.7 -8.2 260.3 -8.35 260.3 -8.35 258.2 -8.35 255.35 -8.05 255.35 -7.9 254.2 -7.7 251.95 Q-6.65 251.7 -2.6 247.65 L-1.4 246.55 -0.85 246.55 Q-0.25 246.55 -0.05 246.2 L0.05 246.15 1.0 246.2 Q1.4 246.2 1.55 246.0 L1.55 245.95 92.2 246.0 92.2 246.05 132.9 246.0 141.85 246.0 M0.05 277.15 L1.0 277.2 Q1.4 277.2 1.55 277.0 L1.55 276.95 92.2 277.0 92.2 277.05 132.9 277.0 141.85 277.0 141.85 277.1 151.2 277.1 152.95 277.1 152.95 277.2 153.85 277.15 154.0 277.25 154.45 277.6 155.8 278.65 158.7 281.8 161.1 283.9 161.05 285.0 161.05 285.2 161.05 286.35 161.05 289.2 161.05 291.3 161.25 291.3 161.25 292.5 161.25 293.05 161.4 293.05 161.45 293.8 161.55 295.35 161.35 296.75 161.35 298.15 161.35 298.3 160.4 299.05 160.25 298.9 160.2 298.9 Q159.65 298.9 158.4 297.75 L157.8 297.2 157.65 297.3 157.25 296.75 157.15 296.3 157.1 295.35 157.1 293.8 156.95 293.8 156.9 289.2 156.85 287.8 156.9 285.6 156.55 285.4 156.4 285.2 155.7 284.35 154.65 283.45 152.85 282.0 151.15 281.85 148.3 281.85 148.3 281.9 118.5 281.95 118.5 282.0 21.8 282.05 21.8 282.15 10.55 282.1 10.55 282.05 0.45 282.0 -0.6 283.1 Q-2.05 284.5 -3.15 285.2 L-3.45 285.4 -3.45 285.8 -3.45 286.35 -3.45 286.9 -3.4 287.35 -3.4 287.55 -3.45 287.95 -3.4 288.65 -3.45 289.2 -3.5 292.85 -3.5 293.0 -3.4 293.05 -3.4 294.4 -3.15 296.1 -3.15 296.6 -3.35 297.2 Q-4.4 297.2 -5.5 297.8 L-6.4 298.45 -6.8 298.55 -7.1 298.9 -8.05 298.15 -7.8 297.2 -7.8 295.35 -7.85 293.8 -7.85 293.05 -8.15 293.05 -8.2 292.5 -8.2 291.7 -8.2 291.3 -8.35 291.3 -8.35 289.2 -8.35 286.35 -8.05 286.35 -7.9 285.2 -7.7 282.95 Q-6.65 282.7 -2.6 278.65 L-1.4 277.55 -0.85 277.55 Q-0.25 277.55 -0.05 277.2 L0.05 277.15 M157.25 326.75 L157.15 326.3 157.1 325.35 157.1 323.8 156.95 323.8 156.9 319.2 156.85 317.8 156.9 315.6 156.55 315.4 156.4 315.2 155.7 314.35 154.65 313.45 152.85 312.0 151.15 311.85 148.3 311.85 148.3 311.9 118.5 311.95 118.5 312.0 21.8 312.05 21.8 312.15 10.55 312.1 10.55 312.05 0.45 312.0 -0.6 313.1 Q-2.05 314.5 -3.15 315.2 L-3.45 315.4 -3.45 315.8 -3.45 316.35 -3.45 316.9 -3.4 317.35 -3.4 317.55 -3.45 317.95 -3.4 318.65 -3.45 319.2 -3.5 322.85 -3.5 323.0 -3.4 323.05 -3.4 324.4 -3.15 326.1 -3.15 326.6 -3.35 327.2 Q-4.4 327.2 -5.5 327.8 L-6.4 328.45 -6.8 328.55 -7.1 328.9 -8.05 328.15 -7.8 327.2 -7.8 325.35 -7.85 323.8 -7.85 323.05 -8.15 323.05 -8.2 322.5 -8.2 321.7 -8.2 321.3 -8.35 321.3 -8.35 319.2 -8.35 316.35 -8.05 316.35 -7.9 315.2 -7.7 312.95 Q-6.65 312.7 -2.6 308.65 L-1.4 307.55 -0.85 307.55 Q-0.25 307.55 -0.05 307.2 L0.05 307.15 0.75 307.2 1.05 307.2 Q1.4 307.2 1.55 307.0 L1.55 306.95 92.2 307.0 92.2 307.05 132.9 307.0 141.85 307.0 141.85 307.1 146.35 307.1 147.3 307.1 151.1 307.1 151.2 307.1 152.95 307.1 152.95 307.2 153.85 307.15 154.0 307.25 154.45 307.6 155.8 308.65 158.7 311.8 161.1 313.9 161.05 315.0 161.05 315.2 161.05 316.35 161.05 319.2 161.05 321.3 161.25 321.3 161.25 322.5 161.25 323.05 161.4 323.05 161.45 323.8 161.55 325.35 161.35 326.75 161.35 328.15 161.35 328.3 160.4 329.05 160.25 328.9 160.2 328.9 Q159.65 328.9 158.4 327.75 L157.8 327.2 157.65 327.3 157.25 326.75 M240.7 215.25 L241.15 215.6 242.5 216.65 245.4 219.8 247.8 221.9 247.75 223.0 247.75 223.2 247.75 224.35 247.75 227.2 247.75 229.3 247.95 229.3 247.95 230.5 247.95 231.05 248.1 231.05 248.15 231.8 248.25 233.35 Q248.0 233.95 248.0 234.75 L248.0 236.15 248.05 236.3 Q247.6 236.6 247.05 237.05 L246.95 236.9 246.9 236.9 Q246.35 236.9 245.05 235.75 L244.45 235.2 244.35 235.3 243.95 234.75 243.8 234.3 243.8 233.35 243.8 231.8 243.65 231.8 243.6 227.2 243.55 225.8 243.6 223.6 243.25 223.4 243.1 223.2 242.4 222.35 241.3 221.45 239.5 220.0 237.85 219.85 235.0 219.85 235.0 219.9 183.6 219.95 183.6 220.05 180.3 220.05 180.3 220.1 179.1 220.1 179.1 220.05 176.3 220.0 175.25 221.1 172.7 223.2 172.4 223.4 172.4 223.8 172.4 224.35 172.4 224.9 172.5 225.35 172.5 225.55 172.4 225.95 172.45 226.65 172.4 227.2 172.35 230.85 172.35 231.0 172.5 231.05 172.5 232.4 172.7 234.1 172.7 234.6 172.5 235.2 Q171.45 235.2 170.35 235.8 L169.45 236.45 169.1 236.55 168.75 236.9 167.8 236.15 168.05 235.2 168.05 233.35 168.0 231.8 168.0 231.05 167.7 231.05 167.7 230.5 167.7 229.7 167.7 229.3 167.5 229.3 167.5 227.2 167.55 224.35 167.8 224.35 167.95 223.2 168.15 220.95 Q169.2 220.7 173.25 216.65 L173.55 216.4 174.5 215.55 175.0 215.55 Q175.6 215.55 175.8 215.2 L175.9 215.15 176.6 215.2 176.9 215.2 Q177.25 215.2 177.4 215.0 L177.45 214.95 177.95 214.95 177.95 215.0 179.1 215.0 180.3 215.0 183.6 215.0 184.2 215.0 189.45 215.0 198.65 215.0 198.65 215.1 205.45 215.1 232.2 215.1 233.05 215.1 233.35 215.1 237.75 215.1 237.9 215.1 238.8 215.1 239.6 215.1 239.6 215.2 240.55 215.15 240.7 215.25 M240.7 246.25 L241.15 246.6 242.5 247.65 245.4 250.8 247.8 252.9 247.75 254.0 247.75 254.2 247.75 255.35 247.75 258.2 247.75 260.3 247.95 260.3 247.95 261.5 247.95 262.05 248.1 262.05 248.15 262.8 248.25 264.35 Q248.0 264.95 248.0 265.75 L248.0 267.15 248.05 267.3 Q247.6 267.6 247.05 268.05 L246.95 267.9 246.9 267.9 Q246.35 267.9 245.05 266.75 L244.45 266.2 244.35 266.3 243.95 265.75 243.8 265.3 243.8 264.35 243.8 262.8 243.65 262.8 243.6 258.2 243.55 256.8 243.6 254.6 243.25 254.4 243.1 254.2 242.4 253.35 241.3 252.45 239.5 251.0 237.85 250.85 235.0 250.85 235.0 250.9 183.6 250.95 183.6 251.05 180.3 251.05 180.3 251.1 179.1 251.1 179.1 251.05 176.3 251.0 175.25 252.1 172.7 254.2 172.4 254.4 172.4 254.8 172.4 255.35 172.4 255.9 172.5 256.35 172.5 256.55 172.4 256.95 172.45 257.65 172.4 258.2 172.35 261.85 172.35 262.0 172.5 262.05 172.5 263.4 172.7 265.1 172.7 265.6 172.5 266.2 Q171.45 266.2 170.35 266.8 L169.45 267.45 169.1 267.55 168.75 267.9 167.8 267.15 168.05 266.2 168.05 264.35 168.0 262.8 168.0 262.05 167.7 262.05 167.7 261.5 167.7 260.7 167.7 260.3 167.5 260.3 167.5 258.2 167.55 255.35 167.8 255.35 167.95 254.2 168.15 251.95 Q169.2 251.7 173.25 247.65 L173.55 247.4 174.5 246.55 175.0 246.55 Q175.6 246.55 175.8 246.2 L175.9 246.15 176.85 246.2 Q177.25 246.2 177.4 246.0 L177.45 245.95 177.95 245.95 177.95 246.0 179.1 246.0 180.3 246.0 183.6 246.0 184.2 246.0 189.45 246.0 198.65 246.0 198.65 246.1 237.9 246.1 239.6 246.1 239.6 246.2 240.55 246.15 240.7 246.25 M240.7 277.25 L241.15 277.6 242.5 278.65 245.4 281.8 247.8 283.9 247.75 285.0 247.75 285.2 247.75 286.35 247.75 289.2 247.75 291.3 247.95 291.3 247.95 292.5 247.95 293.05 248.1 293.05 248.15 293.8 248.25 295.35 Q248.0 295.95 248.0 296.75 L248.0 298.15 248.05 298.3 Q247.6 298.6 247.05 299.05 L246.95 298.9 246.9 298.9 Q246.35 298.9 245.05 297.75 L244.45 297.2 244.35 297.3 243.95 296.75 243.8 296.3 243.8 295.35 243.8 293.8 243.65 293.8 243.6 289.2 243.55 287.8 243.6 285.6 243.25 285.4 243.1 285.2 242.4 284.35 241.3 283.45 239.5 282.0 237.85 281.85 235.0 281.85 235.0 281.9 183.6 281.95 183.6 282.05 180.3 282.05 180.3 282.1 179.1 282.1 179.1 282.05 176.3 282.0 175.25 283.1 172.7 285.2 172.4 285.4 172.4 285.8 172.4 286.35 172.4 286.9 172.5 287.35 172.5 287.55 172.4 287.95 172.45 288.65 172.4 289.2 172.35 292.85 172.35 293.0 172.5 293.05 172.5 294.4 172.7 296.1 172.7 296.6 172.5 297.2 Q171.45 297.2 170.35 297.8 L169.45 298.45 169.1 298.55 168.75 298.9 167.8 298.15 168.05 297.2 168.05 295.35 168.0 293.8 168.0 293.05 167.7 293.05 167.7 292.5 167.7 291.7 167.7 291.3 167.5 291.3 167.5 289.2 167.55 286.35 167.8 286.35 167.95 285.2 168.15 282.95 Q169.2 282.7 173.25 278.65 L173.55 278.4 174.5 277.55 175.0 277.55 Q175.6 277.55 175.8 277.2 L175.9 277.15 176.85 277.2 Q177.25 277.2 177.4 277.0 L177.45 276.95 177.95 276.95 177.95 277.0 179.1 277.0 180.3 277.0 183.6 277.0 184.2 277.0 189.45 277.0 198.65 277.0 198.65 277.1 237.9 277.1 239.6 277.1 239.6 277.2 240.55 277.15 240.7 277.25 M174.5 307.55 L175.0 307.55 Q175.6 307.55 175.8 307.2 L175.9 307.15 176.6 307.2 176.9 307.2 Q177.25 307.2 177.4 307.0 L177.45 306.95 177.95 306.95 177.95 307.0 179.1 307.0 180.3 307.0 183.6 307.0 184.2 307.0 189.45 307.0 198.65 307.0 198.65 307.1 205.45 307.1 232.2 307.1 233.05 307.1 233.35 307.1 234.0 307.1 237.75 307.1 237.9 307.1 239.6 307.1 239.6 307.2 240.55 307.15 240.7 307.25 241.15 307.6 242.5 308.65 245.4 311.8 247.8 313.9 247.75 315.0 247.75 315.2 247.75 316.35 247.75 319.2 247.75 321.3 247.95 321.3 247.95 322.5 247.95 323.05 248.1 323.05 248.15 323.8 248.25 325.35 Q248.0 325.95 248.0 326.75 L248.0 328.15 248.05 328.3 Q247.6 328.6 247.05 329.05 L246.95 328.9 246.9 328.9 Q246.35 328.9 245.05 327.75 L244.45 327.2 244.35 327.3 243.95 326.75 243.8 326.3 243.8 325.35 243.8 323.8 243.65 323.8 243.6 319.2 243.55 317.8 243.6 315.6 243.25 315.4 243.1 315.2 242.4 314.35 241.3 313.45 239.5 312.0 237.85 311.85 235.0 311.85 235.0 311.9 183.6 311.95 183.6 312.05 180.3 312.05 180.3 312.1 179.1 312.1 179.1 312.05 176.3 312.0 175.25 313.1 172.7 315.2 172.4 315.4 172.4 315.8 172.4 316.35 172.4 316.9 172.5 317.35 172.5 317.55 172.4 317.95 172.45 318.65 172.4 319.2 172.35 322.85 172.35 323.0 172.5 323.05 172.5 324.4 172.7 326.1 172.7 326.6 172.5 327.2 Q171.45 327.2 170.35 327.8 L169.45 328.45 169.1 328.55 168.75 328.9 167.8 328.15 168.05 327.2 168.05 325.35 168.0 323.8 168.0 323.05 167.7 323.05 167.7 322.5 167.7 321.7 167.7 321.3 167.5 321.3 167.5 319.2 167.55 316.35 167.8 316.35 167.95 315.2 168.15 312.95 Q169.2 312.7 173.25 308.65 L173.55 308.4 174.5 307.55" fill="#6a7c5f" fill-rule="evenodd" stroke="none"/>
    <path d="M-7.1 21.9 L-6.8 21.55 -6.4 21.45 -5.5 20.8 Q-4.4 20.2 -3.35 20.2 L-2.9 20.2 -2.85 20.3 -2.8 20.5 -1.6 21.6 0.15 23.6 0.7 23.45 0.85 23.45 3.25 23.45 3.45 23.35 21.8 23.45 21.8 23.6 191.3 23.6 191.3 23.7 198.65 23.7 198.65 23.9 205.45 23.9 232.2 23.9 233.35 23.9 235.0 23.9 235.0 23.95 238.55 23.95 238.75 23.7 238.95 23.7 243.25 20.1 243.95 19.75 244.35 20.3 244.45 20.2 245.05 20.75 Q246.35 21.9 246.9 21.9 L246.95 21.9 247.05 22.05 245.65 23.3 243.05 25.85 Q242.5 25.95 241.75 26.55 240.75 27.25 240.3 27.95 L240.05 28.0 239.15 28.0 237.1 27.95 235.0 27.95 233.35 27.95 232.2 27.95 205.45 27.95 198.65 27.95 198.65 28.0 98.85 28.0 98.85 28.1 21.8 28.1 21.8 28.05 8.75 27.9 7.05 27.95 -2.0 28.0 Q-2.5 26.7 -5.8 23.15 L-7.1 21.9 M168.75 52.9 L169.1 52.55 169.45 52.45 170.35 51.8 Q171.45 51.2 172.5 51.2 L172.95 51.2 173.0 51.3 173.05 51.5 174.25 52.6 176.05 54.6 176.55 54.45 176.7 54.45 179.15 54.45 179.3 54.35 183.6 54.4 183.6 54.7 198.65 54.7 198.65 54.9 205.45 54.9 232.2 54.9 233.35 54.9 235.0 54.9 235.0 54.95 238.55 54.95 238.75 54.7 238.95 54.7 243.25 51.1 243.95 50.75 244.35 51.3 244.45 51.2 245.05 51.75 Q246.35 52.9 246.9 52.9 L246.95 52.9 247.05 53.05 245.65 54.3 243.05 56.85 Q242.5 56.95 241.75 57.55 240.75 58.25 240.3 58.95 L240.05 59.0 239.15 59.0 237.1 58.95 235.0 58.95 233.35 58.95 232.2 58.95 205.45 58.95 198.65 58.95 198.65 59.0 180.55 59.0 179.45 59.0 179.1 59.0 177.95 59.0 173.85 59.0 Q173.35 57.7 170.05 54.15 L168.75 52.9 M168.75 83.9 L169.1 83.55 169.45 83.45 170.35 82.8 Q171.45 82.2 172.5 82.2 L172.95 82.2 173.0 82.3 173.05 82.5 174.25 83.6 176.05 85.6 176.55 85.45 176.7 85.45 179.15 85.45 179.3 85.35 183.6 85.4 183.6 85.7 198.65 85.7 198.65 85.9 205.45 85.9 232.2 85.9 233.35 85.9 235.0 85.9 235.0 85.95 238.55 85.95 238.75 85.7 238.95 85.7 243.25 82.1 243.95 81.75 244.35 82.3 244.45 82.2 245.05 82.75 Q246.35 83.9 246.9 83.9 L246.95 83.9 247.05 84.05 245.65 85.3 243.05 87.85 Q242.5 87.95 241.75 88.55 240.75 89.25 240.3 89.95 L240.05 90.0 239.15 90.0 237.1 89.95 235.0 89.95 233.35 89.95 232.2 89.95 205.45 89.95 198.65 89.95 198.65 90.0 180.55 90.0 179.45 90.0 179.1 90.0 177.95 90.0 173.85 90.0 Q173.35 88.7 170.05 85.15 L168.75 83.9 M168.75 114.9 L169.1 114.55 169.45 114.45 170.35 113.8 Q171.45 113.2 172.5 113.2 L172.95 113.2 173.0 113.3 173.05 113.5 174.25 114.6 176.05 116.6 176.55 116.45 176.7 116.45 179.15 116.45 179.3 116.35 183.6 116.4 183.6 116.7 198.65 116.7 198.65 116.9 205.45 116.9 232.2 116.9 233.35 116.9 235.0 116.9 235.0 116.95 238.55 116.95 238.75 116.7 238.95 116.7 243.25 113.1 243.95 112.75 244.35 113.3 244.45 113.2 245.05 113.75 Q246.35 114.9 246.9 114.9 L246.95 114.9 247.05 115.05 245.65 116.3 243.05 118.85 Q242.5 118.95 241.75 119.55 240.75 120.25 240.3 120.95 L240.05 121.0 239.15 121.0 237.1 120.95 235.0 120.95 233.35 120.95 232.2 120.95 205.45 120.95 198.65 120.95 198.65 121.0 180.55 121.0 179.45 121.0 179.1 121.0 177.95 121.0 173.85 121.0 Q173.35 119.7 170.05 116.15 L168.75 114.9 M247.05 146.05 L245.65 147.3 243.05 149.85 Q242.5 149.95 241.75 150.55 240.75 151.25 240.3 151.95 L240.05 152.0 239.15 152.0 237.1 151.95 235.0 151.95 233.35 151.95 232.2 151.95 205.45 151.95 198.65 151.95 198.65 152.0 180.55 152.0 179.45 152.0 179.1 152.0 177.95 152.0 173.85 152.0 Q173.35 150.7 170.05 147.15 L168.75 145.9 169.1 145.55 169.45 145.45 170.35 144.8 Q171.45 144.2 172.5 144.2 L172.95 144.2 173.0 144.3 173.05 144.5 174.25 145.6 176.05 147.6 176.55 147.45 176.7 147.45 179.15 147.45 179.3 147.35 183.6 147.4 183.6 147.7 198.65 147.7 198.65 147.9 205.45 147.9 232.2 147.9 233.35 147.9 235.0 147.9 235.0 147.95 238.55 147.95 238.75 147.7 238.95 147.7 243.25 144.1 243.95 143.75 244.35 144.3 244.45 144.2 245.05 144.75 Q246.35 145.9 246.9 145.9 L246.95 145.9 247.05 146.05 M243.95 174.75 L244.35 175.3 244.45 175.2 245.05 175.75 Q246.35 176.9 246.9 176.9 L246.95 176.9 247.05 177.05 245.65 178.3 243.05 180.85 Q242.5 180.95 241.75 181.55 240.75 182.25 240.3 182.95 L240.05 183.0 239.15 183.0 237.1 182.95 235.0 182.95 233.35 182.95 232.2 182.95 205.45 182.95 198.65 182.95 198.65 183.0 180.55 183.0 179.45 183.0 179.1 183.0 177.95 183.0 173.85 183.0 Q173.35 181.7 170.05 178.15 L168.75 176.9 169.1 176.55 169.45 176.45 170.35 175.8 Q171.45 175.2 172.5 175.2 L172.95 175.2 173.0 175.3 173.05 175.5 174.25 176.6 176.05 178.6 176.55 178.45 176.7 178.45 179.15 178.45 179.3 178.35 183.6 178.4 183.6 178.7 198.65 178.7 198.65 178.9 205.45 178.9 232.2 178.9 233.35 178.9 235.0 178.9 235.0 178.95 238.55 178.95 238.75 178.7 238.95 178.7 243.25 175.1 243.95 174.75 M247.05 207.05 L245.65 208.3 243.05 210.85 Q242.5 210.95 241.75 211.55 240.75 212.25 240.3 212.95 L240.05 213.0 239.15 213.0 237.1 212.95 235.0 212.95 233.35 212.95 232.2 212.95 205.45 212.95 198.65 212.95 198.65 213.0 180.55 213.0 179.45 213.0 179.1 213.0 177.95 213.0 173.85 213.0 Q173.35 211.7 170.05 208.15 L168.75 206.9 169.1 206.55 169.45 206.45 170.35 205.8 Q171.45 205.2 172.5 205.2 L172.95 205.2 173.0 205.3 173.05 205.5 174.25 206.6 176.05 208.6 176.55 208.45 176.7 208.45 179.15 208.45 179.3 208.35 183.6 208.4 183.6 208.7 198.65 208.7 198.65 208.9 205.45 208.9 232.2 208.9 233.35 208.9 235.0 208.9 235.0 208.95 238.55 208.95 238.75 208.7 238.95 208.7 243.25 205.1 243.95 204.75 244.35 205.3 244.45 205.2 245.05 205.75 Q246.35 206.9 246.9 206.9 L246.95 206.9 247.05 207.05 M-7.1 52.9 L-6.8 52.55 -6.4 52.45 -5.5 51.8 Q-4.4 51.2 -3.35 51.2 L-2.9 51.2 -2.85 51.3 -2.8 51.5 -1.6 52.6 0.15 54.6 0.7 54.45 0.85 54.45 3.25 54.45 3.45 54.35 21.8 54.45 21.8 54.6 118.5 54.6 118.5 54.7 141.85 54.7 141.85 54.9 148.3 54.9 148.3 54.95 149.6 54.95 151.9 54.95 152.05 54.7 152.25 54.7 Q155.5 52.15 156.55 51.1 L157.25 50.75 157.65 51.3 157.8 51.2 158.4 51.75 Q159.65 52.9 160.2 52.9 L160.25 52.9 160.4 53.05 158.95 54.3 156.4 56.85 155.05 57.55 153.6 58.95 153.35 59.0 152.45 59.0 150.4 58.95 149.6 58.95 148.3 58.95 141.85 58.95 141.85 59.0 127.75 59.0 126.6 59.0 92.2 59.0 92.2 59.1 21.8 59.1 21.8 59.05 8.75 58.9 7.05 58.95 -2.0 59.0 Q-2.5 57.7 -5.8 54.15 L-7.1 52.9 M157.25 81.75 L157.65 82.3 157.8 82.2 158.4 82.75 Q159.65 83.9 160.2 83.9 L160.25 83.9 160.4 84.05 158.95 85.3 156.4 87.85 155.05 88.55 153.6 89.95 153.35 90.0 152.45 90.0 150.4 89.95 149.6 89.95 148.3 89.95 141.85 89.95 141.85 90.0 127.75 90.0 126.6 90.0 92.2 90.0 92.2 90.1 21.8 90.1 21.8 90.05 8.75 89.9 7.05 89.95 -2.0 90.0 Q-2.5 88.7 -5.8 85.15 L-7.1 83.9 -6.8 83.55 -6.4 83.45 -5.5 82.8 Q-4.4 82.2 -3.35 82.2 L-2.9 82.2 -2.85 82.3 -2.8 82.5 -1.6 83.6 0.15 85.6 0.7 85.45 0.85 85.45 3.25 85.45 3.45 85.35 21.8 85.45 21.8 85.6 118.5 85.6 118.5 85.7 141.85 85.7 141.85 85.9 148.3 85.9 148.3 85.95 149.6 85.95 151.9 85.95 152.05 85.7 152.25 85.7 Q155.5 83.15 156.55 82.1 L157.25 81.75 M-7.1 114.9 L-6.8 114.55 -6.4 114.45 -5.5 113.8 Q-4.4 113.2 -3.35 113.2 L-2.9 113.2 -2.85 113.3 -2.8 113.5 -1.6 114.6 0.15 116.6 0.7 116.45 0.85 116.45 3.25 116.45 3.45 116.35 21.8 116.45 21.8 116.6 118.5 116.6 118.5 116.7 141.85 116.7 141.85 116.9 148.3 116.9 148.3 116.95 149.6 116.95 151.9 116.95 152.05 116.7 152.25 116.7 Q155.5 114.15 156.55 113.1 L157.25 112.75 157.65 113.3 157.8 113.2 158.4 113.75 Q159.65 114.9 160.2 114.9 L160.25 114.9 160.4 115.05 158.95 116.3 156.4 118.85 155.05 119.55 153.6 120.95 153.35 121.0 152.45 121.0 150.4 120.95 149.6 120.95 148.3 120.95 141.85 120.95 141.85 121.0 127.75 121.0 126.6 121.0 92.2 121.0 92.2 121.1 21.8 121.1 21.8 121.05 8.75 120.9 7.05 120.95 -2.0 121.0 Q-2.5 119.7 -5.8 116.15 L-7.1 114.9 M157.25 143.75 L157.65 144.3 157.8 144.2 158.4 144.75 Q159.65 145.9 160.2 145.9 L160.25 145.9 160.4 146.05 158.95 147.3 156.4 149.85 155.05 150.55 153.6 151.95 153.35 152.0 152.45 152.0 150.4 151.95 149.6 151.95 148.3 151.95 141.85 151.95 141.85 152.0 127.75 152.0 126.6 152.0 92.2 152.0 92.2 152.1 21.8 152.1 21.8 152.05 8.75 151.9 7.05 151.95 -2.0 152.0 Q-2.5 150.7 -5.8 147.15 L-7.1 145.9 -6.8 145.55 -6.4 145.45 -5.5 144.8 Q-4.4 144.2 -3.35 144.2 L-2.9 144.2 -2.85 144.3 -2.8 144.5 -1.6 145.6 0.15 147.6 0.7 147.45 0.85 147.45 3.25 147.45 3.45 147.35 21.8 147.45 21.8 147.6 118.5 147.6 118.5 147.7 141.85 147.7 141.85 147.9 148.3 147.9 148.3 147.95 149.6 147.95 151.9 147.95 152.05 147.7 152.25 147.7 Q155.5 145.15 156.55 144.1 L157.25 143.75 M157.25 174.75 L157.65 175.3 157.8 175.2 158.4 175.75 Q159.65 176.9 160.2 176.9 L160.25 176.9 160.4 177.05 158.95 178.3 156.4 180.85 155.05 181.55 153.6 182.95 153.35 183.0 152.45 183.0 150.4 182.95 149.6 182.95 148.3 182.95 141.85 182.95 141.85 183.0 127.75 183.0 126.6 183.0 92.2 183.0 92.2 183.1 21.8 183.1 21.8 183.05 8.75 182.9 7.05 182.95 -2.0 183.0 Q-2.5 181.7 -5.8 178.15 L-7.1 176.9 -6.8 176.55 -6.4 176.45 -5.5 175.8 Q-4.4 175.2 -3.35 175.2 L-2.9 175.2 -2.85 175.3 -2.8 175.5 -1.6 176.6 0.15 178.6 0.7 178.45 0.85 178.45 3.25 178.45 3.45 178.35 21.8 178.45 21.8 178.6 118.5 178.6 118.5 178.7 141.85 178.7 141.85 178.9 148.3 178.9 148.3 178.95 149.6 178.95 151.9 178.95 152.05 178.7 152.25 178.7 Q155.5 176.15 156.55 175.1 L157.25 174.75 M-7.1 206.9 L-6.8 206.55 -6.4 206.45 -5.5 205.8 Q-4.4 205.2 -3.35 205.2 L-2.9 205.2 -2.85 205.3 -2.8 205.5 -1.6 206.6 0.15 208.6 0.7 208.45 0.85 208.45 3.25 208.45 3.45 208.35 21.8 208.45 21.8 208.6 118.5 208.6 118.5 208.7 141.85 208.7 141.85 208.9 148.3 208.9 148.3 208.95 149.6 208.95 151.9 208.95 152.05 208.7 152.25 208.7 Q155.5 206.15 156.55 205.1 L157.25 204.75 157.65 205.3 157.8 205.2 158.4 205.75 Q159.65 206.9 160.2 206.9 L160.25 206.9 160.4 207.05 158.95 208.3 156.4 210.85 155.05 211.55 153.6 212.95 153.35 213.0 152.45 213.0 150.4 212.95 149.6 212.95 148.3 212.95 141.85 212.95 141.85 213.0 127.75 213.0 126.6 213.0 92.2 213.0 92.2 213.1 21.8 213.1 21.8 213.05 8.75 212.9 7.05 212.95 -2.0 213.0 Q-2.5 211.7 -5.8 208.15 L-7.1 206.9 M-7.1 236.9 L-6.8 236.55 -6.4 236.45 -5.5 235.8 Q-4.4 235.2 -3.35 235.2 L-2.9 235.2 -2.85 235.3 -2.8 235.5 -1.6 236.6 0.15 238.6 0.7 238.45 0.85 238.45 3.25 238.45 3.45 238.35 21.8 238.45 21.8 238.6 118.5 238.6 118.5 238.7 141.85 238.7 141.85 238.9 148.3 238.9 148.3 238.95 149.6 238.95 151.9 238.95 152.05 238.7 152.25 238.7 Q155.5 236.15 156.55 235.1 L157.25 234.75 157.65 235.3 157.8 235.2 158.4 235.75 Q159.65 236.9 160.2 236.9 L160.25 236.9 160.4 237.05 158.95 238.3 156.4 240.85 155.05 241.55 153.6 242.95 153.35 243.0 152.45 243.0 150.4 242.95 149.6 242.95 148.3 242.95 141.85 242.95 141.85 243.0 127.75 243.0 126.6 243.0 92.2 243.0 92.2 243.1 21.8 243.1 21.8 243.05 8.75 242.9 7.05 242.95 -2.0 243.0 Q-2.5 241.7 -5.8 238.15 L-7.1 236.9 M-7.1 267.9 L-6.8 267.55 -6.4 267.45 -5.5 266.8 Q-4.4 266.2 -3.35 266.2 L-2.9 266.2 -2.85 266.3 -2.8 266.5 -1.6 267.6 0.15 269.6 0.7 269.45 0.85 269.45 3.25 269.45 3.45 269.35 21.8 269.45 21.8 269.6 118.5 269.6 118.5 269.7 141.85 269.7 141.85 269.9 148.3 269.9 148.3 269.95 149.6 269.95 151.9 269.95 152.05 269.7 152.25 269.7 Q155.5 267.15 156.55 266.1 L157.25 265.75 157.65 266.3 157.8 266.2 158.4 266.75 Q159.65 267.9 160.2 267.9 L160.25 267.9 160.4 268.05 158.95 269.3 156.4 271.85 155.05 272.55 153.6 273.95 153.35 274.0 152.45 274.0 150.4 273.95 149.6 273.95 148.3 273.95 141.85 273.95 141.85 274.0 127.75 274.0 126.6 274.0 92.2 274.0 92.2 274.1 21.8 274.1 21.8 274.05 8.75 273.9 7.05 273.95 -2.0 274.0 Q-2.5 272.7 -5.8 269.15 L-7.1 267.9 M-7.1 298.9 L-6.8 298.55 -6.4 298.45 -5.5 297.8 Q-4.4 297.2 -3.35 297.2 L-2.9 297.2 -2.85 297.3 -2.8 297.5 -1.6 298.6 0.15 300.6 0.7 300.45 0.85 300.45 3.25 300.45 3.45 300.35 21.8 300.45 21.8 300.6 118.5 300.6 118.5 300.7 141.85 300.7 141.85 300.9 148.3 300.9 148.3 300.95 149.6 300.95 151.9 300.95 152.05 300.7 152.25 300.7 Q155.5 298.15 156.55 297.1 L157.25 296.75 157.65 297.3 157.8 297.2 158.4 297.75 Q159.65 298.9 160.2 298.9 L160.25 298.9 160.4 299.05 158.95 300.3 156.4 302.85 155.05 303.55 153.6 304.95 153.35 305.0 152.45 305.0 150.4 304.95 149.6 304.95 148.3 304.95 141.85 304.95 141.85 305.0 127.75 305.0 126.6 305.0 92.2 305.0 92.2 305.1 21.8 305.1 21.8 305.05 8.75 304.9 7.05 304.95 -2.0 305.0 Q-2.5 303.7 -5.8 300.15 L-7.1 298.9 M157.25 326.75 L157.65 327.3 157.8 327.2 158.4 327.75 Q159.65 328.9 160.2 328.9 L160.25 328.9 160.4 329.05 158.95 330.3 156.4 332.85 155.05 333.55 153.6 334.95 153.35 335.0 152.45 335.0 150.4 334.95 149.6 334.95 148.3 334.95 141.85 334.95 141.85 335.0 127.75 335.0 126.6 335.0 92.2 335.0 92.2 335.1 21.8 335.1 21.8 335.05 8.75 334.9 7.05 334.95 -2.0 335.0 Q-2.5 333.7 -5.8 330.15 L-7.1 328.9 -6.8 328.55 -6.4 328.45 -5.5 327.8 Q-4.4 327.2 -3.35 327.2 L-2.9 327.2 -2.85 327.3 -2.8 327.5 -1.6 328.6 0.15 330.6 0.7 330.45 0.85 330.45 3.25 330.45 3.45 330.35 21.8 330.45 21.8 330.6 118.5 330.6 118.5 330.7 141.85 330.7 141.85 330.9 148.3 330.9 148.3 330.95 149.6 330.95 151.9 330.95 152.05 330.7 152.25 330.7 Q155.5 328.15 156.55 327.1 L157.25 326.75 M168.75 236.9 L169.1 236.55 169.45 236.45 170.35 235.8 Q171.45 235.2 172.5 235.2 L172.95 235.2 173.0 235.3 173.05 235.5 174.25 236.6 176.05 238.6 176.55 238.45 176.7 238.45 179.15 238.45 179.3 238.35 183.6 238.4 183.6 238.7 198.65 238.7 198.65 238.9 205.45 238.9 232.2 238.9 233.35 238.9 235.0 238.9 235.0 238.95 238.55 238.95 238.75 238.7 238.95 238.7 243.25 235.1 243.95 234.75 244.35 235.3 244.45 235.2 245.05 235.75 Q246.35 236.9 246.9 236.9 L246.95 236.9 247.05 237.05 245.65 238.3 243.05 240.85 Q242.5 240.95 241.75 241.55 240.75 242.25 240.3 242.95 L240.05 243.0 239.15 243.0 237.1 242.95 235.0 242.95 233.35 242.95 232.2 242.95 205.45 242.95 198.65 242.95 198.65 243.0 180.55 243.0 179.45 243.0 179.1 243.0 177.95 243.0 173.85 243.0 Q173.35 241.7 170.05 238.15 L168.75 236.9 M168.75 267.9 L169.1 267.55 169.45 267.45 170.35 266.8 Q171.45 266.2 172.5 266.2 L172.95 266.2 173.0 266.3 173.05 266.5 174.25 267.6 176.05 269.6 176.55 269.45 176.7 269.45 179.15 269.45 179.3 269.35 183.6 269.4 183.6 269.7 198.65 269.7 198.65 269.9 205.45 269.9 232.2 269.9 233.35 269.9 235.0 269.9 235.0 269.95 238.55 269.95 238.75 269.7 238.95 269.7 243.25 266.1 243.95 265.75 244.35 266.3 244.45 266.2 245.05 266.75 Q246.35 267.9 246.9 267.9 L246.95 267.9 247.05 268.05 245.65 269.3 243.05 271.85 Q242.5 271.95 241.75 272.55 240.75 273.25 240.3 273.95 L240.05 274.0 239.15 274.0 237.1 273.95 235.0 273.95 233.35 273.95 232.2 273.95 205.45 273.95 198.65 273.95 198.65 274.0 180.55 274.0 179.45 274.0 179.1 274.0 177.95 274.0 173.85 274.0 Q173.35 272.7 170.05 269.15 L168.75 267.9 M168.75 298.9 L169.1 298.55 169.45 298.45 170.35 297.8 Q171.45 297.2 172.5 297.2 L172.95 297.2 173.0 297.3 173.05 297.5 174.25 298.6 176.05 300.6 176.55 300.45 176.7 300.45 179.15 300.45 179.3 300.35 183.6 300.4 183.6 300.7 198.65 300.7 198.65 300.9 205.45 300.9 232.2 300.9 233.35 300.9 235.0 300.9 235.0 300.95 238.55 300.95 238.75 300.7 238.95 300.7 243.25 297.1 243.95 296.75 244.35 297.3 244.45 297.2 245.05 297.75 Q246.35 298.9 246.9 298.9 L246.95 298.9 247.05 299.05 245.65 300.3 243.05 302.85 Q242.5 302.95 241.75 303.55 240.75 304.25 240.3 304.95 L240.05 305.0 239.15 305.0 237.1 304.95 235.0 304.95 233.35 304.95 232.2 304.95 205.45 304.95 198.65 304.95 198.65 305.0 180.55 305.0 179.45 305.0 179.1 305.0 177.95 305.0 173.85 305.0 Q173.35 303.7 170.05 300.15 L168.75 298.9 M168.75 328.9 L169.1 328.55 169.45 328.45 170.35 327.8 Q171.45 327.2 172.5 327.2 L172.95 327.2 173.0 327.3 173.05 327.5 174.25 328.6 176.05 330.6 176.55 330.45 176.7 330.45 179.15 330.45 179.3 330.35 183.6 330.4 183.6 330.7 198.65 330.7 198.65 330.9 205.45 330.9 232.2 330.9 233.35 330.9 235.0 330.9 235.0 330.95 238.55 330.95 238.75 330.7 238.95 330.7 243.25 327.1 243.95 326.75 244.35 327.3 244.45 327.2 245.05 327.75 Q246.35 328.9 246.9 328.9 L246.95 328.9 247.05 329.05 245.65 330.3 243.05 332.85 Q242.5 332.95 241.75 333.55 240.75 334.25 240.3 334.95 L240.05 335.0 239.15 335.0 237.1 334.95 235.0 334.95 233.35 334.95 232.2 334.95 205.45 334.95 198.65 334.95 198.65 335.0 180.55 335.0 179.45 335.0 179.1 335.0 177.95 335.0 173.85 335.0 Q173.35 333.7 170.05 330.15 L168.75 328.9" fill="#a4b39c" fill-rule="evenodd" stroke="none"/>
  </g>
</svg>
