<?xml version="1.0" encoding="UTF-8" standalone="no"?>
<svg xmlns:ffdec="https://www.free-decompiler.com/flash" xmlns:xlink="http://www.w3.org/1999/xlink" ffdec:objectType="shape" height="47.35px" width="3.2px" xmlns="http://www.w3.org/2000/svg">
  <g transform="matrix(1.0, 0.0, 0.0, 1.0, -313.6, -15.05)">
    <path d="M315.0 15.05 L315.25 15.15 315.4 15.25 315.5 15.3 Q315.6 19.95 316.15 24.5 316.7 29.2 315.3 33.5 315.2 33.8 314.9 33.4 315.0 29.15 314.65 24.9 314.25 20.55 314.35 16.05 L314.5 15.3 314.6 15.25 314.75 15.15 315.0 15.05 M314.95 51.75 L315.0 51.65 315.05 51.7 315.4 51.55 Q316.95 53.65 316.8 56.7 L316.65 60.75 316.1 62.3 315.75 62.4 Q315.45 62.4 315.25 62.15 L315.2 61.95 315.2 61.6 315.25 61.5 Q313.9 60.95 314.1 58.75 L314.15 58.55 Q313.55 57.2 313.6 55.6 313.6 53.5 314.75 51.95 L314.95 51.75" fill="#50564a" fill-rule="evenodd" stroke="none"/>
  </g>
</svg>
