<?xml version="1.0" encoding="UTF-8" standalone="no"?>
<svg xmlns:ffdec="https://www.free-decompiler.com/flash" xmlns:xlink="http://www.w3.org/1999/xlink" ffdec:objectType="shape" height="12.5px" width="12.95px" xmlns="http://www.w3.org/2000/svg">
  <g transform="matrix(1.0, 0.0, 0.0, 1.0, -3.65, -4.4)">
    <path d="M16.15 5.95 L16.15 5.9 Q16.6 6.75 16.6 8.0 L16.6 13.35 Q16.55 16.9 12.25 16.9 L7.9 16.9 Q5.15 16.85 4.15 15.45 L4.15 15.5 Q3.65 14.65 3.65 13.35 L3.65 8.0 Q3.65 5.8 5.25 4.95 L5.4 4.9 5.55 4.8 5.6 4.8 5.75 4.75 7.9 4.4 8.0 4.4 12.25 4.4 Q15.15 4.4 16.15 5.95 M15.4 6.6 L15.3 6.5 Q14.5 5.4 12.25 5.4 L8.0 5.4 7.9 5.4 6.15 5.7 6.05 5.7 6.0 5.75 5.9 5.8 5.85 5.8 5.8 5.8 5.75 5.85 5.7 5.85 Q4.65 6.5 4.65 8.0 L4.65 13.35 4.9 14.8 5.0 14.9 Q5.8 15.85 7.95 15.9 L12.25 15.9 Q15.5 15.9 15.6 13.35 L15.6 8.0 15.4 6.6 M5.75 5.75 L6.0 5.7 6.1 5.6 6.0 5.7 5.9 5.7 5.75 5.75" fill="#00ccff" fill-rule="evenodd" stroke="none"/>
    <path d="M14.5 7.1 Q13.85 6.4 12.25 6.4 L8.0 6.4 7.9 6.4 6.5 6.6 6.25 6.7 6.45 6.6 6.15 6.7 6.15 6.75 6.2 6.7 6.15 6.8 5.7 7.5 5.75 7.5 5.7 7.5 5.75 7.55 5.7 7.55 5.65 8.0 5.65 13.35 Q5.65 13.9 5.8 14.3 6.45 14.85 7.95 14.9 L12.25 14.9 Q14.45 14.9 14.6 13.3 L14.6 8.0 14.5 7.1 M15.4 6.6 L15.6 8.0 15.6 13.35 Q15.5 15.9 12.25 15.9 L7.95 15.9 Q5.8 15.85 5.0 14.9 L4.9 14.8 4.65 13.35 4.65 8.0 Q4.65 6.5 5.7 5.85 L5.75 5.85 5.8 5.8 5.85 5.8 5.9 5.8 6.0 5.75 6.05 5.7 6.15 5.7 7.9 5.4 8.0 5.4 12.25 5.4 Q14.5 5.4 15.3 6.5 L15.4 6.6 M5.75 5.75 L5.9 5.7 6.0 5.7 6.1 5.6 6.0 5.7 5.75 5.75 M6.5 6.6 L6.35 6.7 6.5 6.6 M6.2 7.7 L6.35 7.7 6.2 7.7" fill="#00ccff" fill-opacity="0.49803922" fill-rule="evenodd" stroke="none"/>
    <path d="M14.5 7.1 L14.6 8.0 14.6 13.3 Q14.45 14.9 12.25 14.9 L7.95 14.9 Q6.45 14.85 5.8 14.3 5.65 13.9 5.65 13.35 L5.65 8.0 5.7 7.55 5.75 7.55 5.7 7.5 5.75 7.5 5.7 7.5 6.15 6.8 6.2 6.7 6.15 6.75 6.15 6.7 6.45 6.6 6.25 6.7 6.5 6.6 7.9 6.4 8.0 6.4 12.25 6.4 Q13.85 6.4 14.5 7.1 M13.6 7.65 L12.25 7.4 8.0 7.4 7.9 7.4 6.8 7.55 6.9 7.5 6.9 7.45 6.85 7.5 6.8 7.55 6.8 7.5 6.8 7.55 6.75 7.6 6.65 8.0 6.65 13.35 6.7 13.65 7.95 13.9 12.25 13.9 Q13.4 13.9 13.6 13.2 L13.6 8.0 13.6 7.65 M6.5 6.6 L6.35 6.7 6.5 6.6 M6.2 7.7 L6.35 7.7 6.2 7.7" fill="#00ccff" fill-opacity="0.24705882" fill-rule="evenodd" stroke="none"/>
  </g>
</svg>
