<?xml version="1.0" encoding="UTF-8" standalone="no"?>
<svg xmlns:ffdec="https://www.free-decompiler.com/flash" xmlns:xlink="http://www.w3.org/1999/xlink" ffdec:objectType="shape" height="8.8px" width="40.0px" xmlns="http://www.w3.org/2000/svg">
  <g transform="matrix(1.0, 0.0, 0.0, 1.0, 20.0, 8.8)">
    <path d="M18.65 -8.6 L18.7 -8.6 Q20.05 -8.1 20.0 -6.35 L20.0 -2.4 Q20.05 -0.7 18.7 -0.2 L18.65 -0.2 17.4 0.0 17.2 0.0 -17.2 0.0 -18.3 -0.1 -18.5 -0.15 Q-20.05 -0.6 -20.0 -2.4 L-20.0 -6.35 Q-20.05 -8.2 -18.5 -8.65 L-18.3 -8.7 -17.2 -8.8 17.4 -8.8 18.65 -8.6 M17.3 -8.0 L-17.2 -8.0 -18.3 -7.8 -18.9 -7.25 -19.2 -6.35 -19.2 -2.4 -18.95 -1.55 -18.9 -1.55 -18.3 -1.0 -17.2 -0.8 17.3 -0.8 Q19.15 -0.85 19.2 -2.4 L19.2 -6.35 Q19.15 -7.95 17.3 -8.0" fill="#333333" fill-rule="evenodd" stroke="none"/>
  </g>
</svg>
