<?xml version="1.0" encoding="UTF-8" standalone="no"?>
<svg xmlns:ffdec="https://www.free-decompiler.com/flash" xmlns:xlink="http://www.w3.org/1999/xlink" ffdec:objectType="shape" height="44.3px" width="93.25px" xmlns="http://www.w3.org/2000/svg">
  <g transform="matrix(1.0, 0.0, 0.0, 1.0, 8.85, 16.55)">
    <path d="M78.2 -10.05 Q84.4 -3.5 84.4 5.6 L84.4 5.7 Q84.4 14.7 78.2 21.15 L78.2 21.2 Q71.95 27.75 63.1 27.75 L12.45 27.75 Q7.4 27.75 3.2 25.55 L3.35 25.6 Q-0.05 24.0 -2.7 21.15 -8.6 14.95 -8.85 6.35 L-8.85 6.2 -8.85 5.15 -8.85 5.05 Q-8.6 -3.75 -2.7 -10.0 L-2.65 -10.05 Q3.4 -16.4 12.0 -16.55 L63.1 -16.55 Q71.95 -16.55 78.2 -10.05" fill="#b28e2d" fill-rule="evenodd" stroke="none"/>
    <path d="M0.2 -7.3 Q5.1 -12.4 12.05 -12.55 L63.1 -12.55 Q70.25 -12.55 75.3 -7.3 80.4 -1.9 80.4 5.6 L80.4 5.7 Q80.4 13.1 75.3 18.4 70.25 23.75 63.1 23.75 L12.45 23.75 Q8.4 23.75 5.05 22.0 2.35 20.7 0.2 18.4 -4.65 13.3 -4.85 6.2 L-4.85 5.15 Q-4.65 -2.1 0.2 -7.3" fill="#333333" fill-rule="evenodd" stroke="none"/>
  </g>
</svg>
