<?xml version="1.0" encoding="UTF-8" standalone="no"?>
<svg xmlns:ffdec="https://www.free-decompiler.com/flash" xmlns:xlink="http://www.w3.org/1999/xlink" ffdec:objectType="shape" height="44.3px" width="159.4px" xmlns="http://www.w3.org/2000/svg">
  <g transform="matrix(1.0, 0.0, 0.0, 1.0, 44.4, 16.55)">
    <path d="M108.8 -10.05 Q115.0 -3.5 115.0 5.6 L115.0 5.7 Q115.0 14.7 108.8 21.15 L108.8 21.2 Q102.55 27.75 93.7 27.75 L-23.1 27.75 Q-28.15 27.75 -32.35 25.55 L-32.2 25.6 Q-35.6 24.0 -38.25 21.15 -44.15 14.95 -44.4 6.35 L-44.4 6.2 -44.4 5.15 -44.4 5.05 Q-44.15 -3.75 -38.25 -10.0 L-38.2 -10.05 Q-32.15 -16.4 -23.55 -16.55 L93.7 -16.55 Q102.55 -16.55 108.8 -10.05" fill="#b28e2d" fill-rule="evenodd" stroke="none"/>
    <path d="M93.7 -12.55 Q100.85 -12.55 105.9 -7.3 111.0 -1.9 111.0 5.6 L111.0 5.7 Q111.0 13.1 105.9 18.4 100.85 23.75 93.7 23.75 L-23.1 23.75 Q-27.15 23.75 -30.5 22.0 -33.2 20.7 -35.35 18.4 -40.2 13.3 -40.4 6.2 L-40.4 5.15 Q-40.2 -2.1 -35.35 -7.3 -30.45 -12.4 -23.5 -12.55 L93.7 -12.55" fill="#333333" fill-rule="evenodd" stroke="none"/>
  </g>
</svg>
