<?xml version="1.0" encoding="UTF-8" standalone="no"?>
<svg xmlns:ffdec="https://www.free-decompiler.com/flash" xmlns:xlink="http://www.w3.org/1999/xlink" ffdec:objectType="shape" height="26.0px" width="131.1px" xmlns="http://www.w3.org/2000/svg">
  <g transform="matrix(1.0, 0.0, 0.0, 1.0, -27.4, -4.5)">
    <path d="M82.5 30.5 L57.4 30.5 57.4 4.5 82.5 4.5 82.5 30.5" fill="url(#gradient0)" fill-rule="evenodd" stroke="none"/>
    <path d="M83.5 30.5 L82.5 30.5 82.5 4.5 83.5 4.5 83.5 30.5" fill="url(#gradient1)" fill-rule="evenodd" stroke="none"/>
    <path d="M118.3 30.5 L114.0 30.5 114.0 4.5 118.3 4.5 118.3 30.5" fill="url(#gradient2)" fill-rule="evenodd" stroke="none"/>
    <path d="M114.0 30.5 L83.5 30.5 83.5 4.5 114.0 4.5 114.0 30.5" fill="url(#gradient3)" fill-rule="evenodd" stroke="none"/>
    <path d="M145.35 4.5 L149.3 4.5 Q153.8 4.5 156.2 6.3 157.95 7.75 158.4 10.4 L158.5 12.2 158.5 22.85 158.4 24.7 Q157.3 30.5 149.3 30.5 L145.35 30.5 145.35 4.5" fill="url(#gradient4)" fill-rule="evenodd" stroke="none"/>
    <path d="M145.35 4.5 L145.35 30.5 141.0 30.5 141.0 4.5 145.35 4.5" fill="url(#gradient5)" fill-rule="evenodd" stroke="none"/>
    <path d="M141.0 30.5 L118.3 30.5 118.3 4.5 141.0 4.5 141.0 30.5" fill="url(#gradient6)" fill-rule="evenodd" stroke="none"/>
    <path d="M57.4 30.5 L53.65 30.5 53.65 4.5 57.4 4.5 57.4 30.5" fill="url(#gradient7)" fill-rule="evenodd" stroke="none"/>
    <path d="M53.65 30.5 L49.5 30.5 49.5 4.5 53.65 4.5 53.65 30.5" fill="url(#gradient8)" fill-rule="evenodd" stroke="none"/>
    <path d="M49.5 30.5 L36.6 30.5 35.8 30.5 Q28.6 30.2 27.55 24.7 L27.4 22.85 27.4 12.2 Q27.5 4.85 35.8 4.55 L36.6 4.5 49.5 4.5 49.5 30.5" fill="url(#gradient9)" fill-rule="evenodd" stroke="none"/>
  </g>
  <defs>
    <linearGradient gradientTransform="matrix(0.0, 0.0167, -0.0159, 0.0, 150.95, 18.1)" gradientUnits="userSpaceOnUse" id="gradient0" spreadMethod="pad" x1="-819.2" x2="819.2">
      <stop offset="0.0" stop-color="#202020"/>
      <stop offset="1.0" stop-color="#757575"/>
    </linearGradient>
    <linearGradient gradientTransform="matrix(0.0, 0.0167, -0.0742, 0.0, 402.4, 18.1)" gradientUnits="userSpaceOnUse" id="gradient1" spreadMethod="pad" x1="-819.2" x2="819.2">
      <stop offset="0.0" stop-color="#202020"/>
      <stop offset="1.0" stop-color="#757575"/>
    </linearGradient>
    <linearGradient gradientTransform="matrix(0.0, 0.0167, -0.0742, 0.0, 423.65, 18.1)" gradientUnits="userSpaceOnUse" id="gradient2" spreadMethod="pad" x1="-819.2" x2="819.2">
      <stop offset="0.0" stop-color="#202020"/>
      <stop offset="1.0" stop-color="#757575"/>
    </linearGradient>
    <linearGradient gradientTransform="matrix(0.0, 0.0167, -0.2828, 0.0, 1299.3, 18.1)" gradientUnits="userSpaceOnUse" id="gradient3" spreadMethod="pad" x1="-819.2" x2="819.2">
      <stop offset="0.0" stop-color="#202020"/>
      <stop offset="1.0" stop-color="#757575"/>
    </linearGradient>
    <linearGradient gradientTransform="matrix(0.0, 0.0167, -0.0159, 0.0, 204.25, 18.1)" gradientUnits="userSpaceOnUse" id="gradient4" spreadMethod="pad" x1="-819.2" x2="819.2">
      <stop offset="0.0" stop-color="#202020"/>
      <stop offset="1.0" stop-color="#757575"/>
    </linearGradient>
    <linearGradient gradientTransform="matrix(0.0, 0.0167, -0.0742, 0.0, 432.3, 18.1)" gradientUnits="userSpaceOnUse" id="gradient5" spreadMethod="pad" x1="-819.2" x2="819.2">
      <stop offset="0.0" stop-color="#202020"/>
      <stop offset="1.0" stop-color="#757575"/>
    </linearGradient>
    <linearGradient gradientTransform="matrix(0.0, 0.0167, -0.1326, 0.0, 664.1, 18.1)" gradientUnits="userSpaceOnUse" id="gradient6" spreadMethod="pad" x1="-819.2" x2="819.2">
      <stop offset="0.0" stop-color="#202020"/>
      <stop offset="1.0" stop-color="#757575"/>
    </linearGradient>
    <linearGradient gradientTransform="matrix(0.0, 0.0167, -0.1216, 0.0, 1071.35, 18.1)" gradientUnits="userSpaceOnUse" id="gradient7" spreadMethod="pad" x1="-819.2" x2="819.2">
      <stop offset="0.0" stop-color="#202020"/>
      <stop offset="1.0" stop-color="#757575"/>
    </linearGradient>
    <linearGradient gradientTransform="matrix(0.0, 0.0167, -0.0763, 0.0, 697.0, 18.1)" gradientUnits="userSpaceOnUse" id="gradient8" spreadMethod="pad" x1="-819.2" x2="819.2">
      <stop offset="0.0" stop-color="#202020"/>
      <stop offset="1.0" stop-color="#757575"/>
    </linearGradient>
    <linearGradient gradientTransform="matrix(0.0, 0.0167, -0.0159, 0.0, 186.65, 18.1)" gradientUnits="userSpaceOnUse" id="gradient9" spreadMethod="pad" x1="-819.2" x2="819.2">
      <stop offset="0.0" stop-color="#202020"/>
      <stop offset="1.0" stop-color="#757575"/>
    </linearGradient>
  </defs>
</svg>
