<?xml version="1.0" encoding="UTF-8" standalone="no"?>
<svg xmlns:ffdec="https://www.free-decompiler.com/flash" xmlns:xlink="http://www.w3.org/1999/xlink" ffdec:objectType="shape" height="1032.25px" width="1536.35px" xmlns="http://www.w3.org/2000/svg">
  <g transform="matrix(1.0, 0.0, 0.0, 1.0, 193.45, 144.5)">
    <path d="M279.9 459.45 L279.9 459.2 Q279.75 448.95 268.75 448.95 L222.9 448.95 Q211.75 448.95 211.75 459.45 L211.75 505.15 Q211.75 515.65 222.9 515.65 L228.0 515.65 229.25 515.45 233.25 515.65 268.75 515.65 273.35 515.1 Q276.45 514.0 278.4 511.45 279.9 509.0 279.9 505.15 L279.9 459.45 M1328.25 -129.85 Q1342.9 -115.2 1342.9 -94.5 L1342.9 837.75 Q1342.9 858.45 1328.25 873.1 1313.6 887.75 1292.9 887.75 L-143.45 887.75 Q-164.15 887.75 -178.8 873.1 -193.45 858.45 -193.45 837.75 L-193.45 -94.5 Q-193.45 -115.2 -178.8 -129.85 -164.15 -144.5 -143.45 -144.5 L1292.9 -144.5 Q1313.6 -144.5 1328.25 -129.85" fill="#ff0000" fill-opacity="0.0" fill-rule="evenodd" stroke="none"/>
  </g>
</svg>
