<?xml version="1.0" encoding="UTF-8" standalone="no"?>
<svg xmlns:ffdec="https://www.free-decompiler.com/flash" xmlns:xlink="http://www.w3.org/1999/xlink" ffdec:objectType="shape" height="1032.25px" width="1536.35px" xmlns="http://www.w3.org/2000/svg">
  <g transform="matrix(1.0, 0.0, 0.0, 1.0, 193.45, 144.5)">
    <path d="M289.9 459.45 L289.9 459.2 289.9 459.1 Q289.95 438.95 268.75 438.95 L222.9 438.95 Q212.4 438.95 207.25 444.25 201.65 449.25 201.75 459.45 L201.75 505.15 Q201.65 515.35 207.25 520.4 212.4 525.65 222.9 525.65 L268.75 525.65 Q279.25 525.65 284.4 520.4 290.0 515.35 289.9 505.15 L289.9 459.45 M1328.25 -129.85 Q1342.9 -115.2 1342.9 -94.5 L1342.9 837.75 Q1342.9 858.45 1328.25 873.1 1313.6 887.75 1292.9 887.75 L-143.45 887.75 Q-164.15 887.75 -178.8 873.1 -193.45 858.45 -193.45 837.75 L-193.45 -94.5 Q-193.45 -115.2 -178.8 -129.85 -164.15 -144.5 -143.45 -144.5 L1292.9 -144.5 Q1313.6 -144.5 1328.25 -129.85" fill="#252525" fill-opacity="0.49803922" fill-rule="evenodd" stroke="none"/>
  </g>
</svg>
