<?xml version="1.0" encoding="UTF-8" standalone="no"?>
<svg xmlns:ffdec="https://www.free-decompiler.com/flash" xmlns:xlink="http://www.w3.org/1999/xlink" ffdec:objectType="shape" height="46.5px" width="189.45px" xmlns="http://www.w3.org/2000/svg">
  <g transform="matrix(1.0, 0.0, 0.0, 1.0, -29.95, -105.4)">
    <path d="M208.2 110.75 L209.05 110.8 Q213.75 111.25 214.5 115.8 L214.6 117.0 214.6 140.75 214.5 141.95 Q213.75 146.45 209.05 146.95 L208.2 147.0 41.7 147.0 40.85 146.95 Q36.15 146.45 35.45 141.95 L35.35 140.75 35.35 117.0 35.45 115.8 Q36.15 111.25 40.85 110.8 L41.7 110.75 208.2 110.75 M208.85 112.05 L208.2 112.0 41.7 112.0 41.05 112.05 41.0 112.05 Q37.25 112.4 36.7 116.0 L36.7 116.05 36.6 117.0 36.6 140.75 36.7 141.75 Q37.25 145.3 41.0 145.7 L41.05 145.7 41.7 145.75 208.2 145.75 208.85 145.7 208.9 145.7 Q212.65 145.3 213.25 141.75 L213.35 140.75 213.35 117.0 213.25 116.05 213.25 116.0 Q212.65 112.4 208.9 112.05 L208.85 112.05" fill="#8a9b80" fill-rule="evenodd" stroke="none"/>
    <path d="M208.2 110.75 L41.7 110.75 40.85 110.8 Q36.15 111.25 35.45 115.8 L35.35 117.0 35.35 140.75 35.45 141.95 Q36.15 146.45 40.85 146.95 L41.7 147.0 208.2 147.0 209.05 146.95 Q213.75 146.45 214.5 141.95 L214.6 140.75 214.6 117.0 214.5 115.8 Q213.75 111.25 209.05 110.8 L208.2 110.75 M217.4 116.4 L217.4 140.9 Q217.4 149.9 208.4 149.9 L40.95 149.9 Q31.95 149.9 31.95 140.9 L31.95 116.4 Q31.95 107.4 40.95 107.4 L208.4 107.4 Q217.4 107.4 217.4 116.4" fill="#808e77" fill-rule="evenodd" stroke="none"/>
    <path d="M208.85 112.05 L208.9 112.05 Q212.65 112.4 213.25 116.0 L213.25 116.05 213.35 117.0 213.35 140.75 213.25 141.75 Q212.65 145.3 208.9 145.7 L208.85 145.7 208.2 145.75 41.7 145.75 41.05 145.7 41.0 145.7 Q37.25 145.3 36.7 141.75 L36.6 140.75 36.6 117.0 36.7 116.05 36.7 116.0 Q37.25 112.4 41.0 112.05 L41.05 112.05 41.7 112.0 208.2 112.0 208.85 112.05" fill="#a8b69e" fill-rule="evenodd" stroke="none"/>
    <path d="M217.4 116.4 Q217.4 107.4 208.4 107.4 L40.95 107.4 Q31.95 107.4 31.95 116.4 L31.95 140.9 Q31.95 149.9 40.95 149.9 L208.4 149.9 Q217.4 149.9 217.4 140.9 L217.4 116.4 M208.4 105.4 Q219.4 105.4 219.4 116.4 L219.4 140.9 Q219.4 151.9 208.4 151.9 L40.95 151.9 Q29.95 151.9 29.95 140.9 L29.95 116.4 Q29.95 105.4 40.95 105.4 L208.4 105.4" fill="#636a5b" fill-rule="evenodd" stroke="none"/>
  </g>
</svg>
