<?xml version="1.0" encoding="UTF-8" standalone="no"?>
<svg xmlns:ffdec="https://www.free-decompiler.com/flash" xmlns:xlink="http://www.w3.org/1999/xlink" ffdec:objectType="shape" height="60.05px" width="196.1px" xmlns="http://www.w3.org/2000/svg">
  <g transform="matrix(1.0, 0.0, 0.0, 1.0, -184.05, -367.7)">
    <path d="M333.25 386.4 L335.45 385.45 336.85 385.7 337.7 386.55 336.8 387.2 Q335.7 387.75 334.8 388.0 L333.0 387.95 Q332.25 387.85 331.95 387.25 331.85 387.05 333.25 386.4 M188.65 384.65 Q187.55 384.45 187.35 384.15 187.15 383.9 187.6 382.85 188.0 381.95 189.2 381.05 190.85 379.9 193.05 379.7 L193.45 380.5 Q191.95 383.35 188.65 384.65 M233.15 371.25 L231.45 371.15 Q230.8 371.0 231.15 370.2 231.3 369.9 233.35 369.05 L236.55 367.7 Q237.55 367.9 237.75 368.05 238.05 368.35 237.65 369.25 L236.0 370.15 233.15 371.25 M262.55 389.95 Q262.75 390.35 262.4 391.25 L261.1 393.35 260.6 393.55 258.8 393.9 Q258.1 392.8 258.8 391.2 259.5 389.55 261.85 389.35 L262.55 389.95 M301.3 394.15 L302.35 394.75 Q303.1 396.8 300.85 397.75 L299.15 397.4 298.4 396.45 Q298.1 395.8 298.6 395.15 299.3 394.3 301.3 394.15 M186.95 425.95 Q185.45 425.7 184.05 424.8 L184.6 423.55 185.95 423.5 188.35 423.8 188.8 424.95 Q187.65 425.75 186.95 425.95 M380.15 404.05 L379.75 404.2 378.3 404.45 Q376.7 403.65 376.15 402.5 375.55 401.3 377.8 401.15 L378.95 401.6 379.8 402.55 380.15 404.05 M327.45 426.0 L328.7 425.95 331.35 426.2 332.7 427.0 Q332.25 427.6 331.7 427.75 L327.85 426.9 327.45 426.0" fill="#e0653c" fill-rule="evenodd" stroke="none"/>
  </g>
</svg>
