<?xml version="1.0" encoding="UTF-8" standalone="no"?>
<svg xmlns:ffdec="https://www.free-decompiler.com/flash" xmlns:xlink="http://www.w3.org/1999/xlink" ffdec:objectType="shape" height="64.0px" width="193.3px" xmlns="http://www.w3.org/2000/svg">
  <g transform="matrix(1.0, 0.0, 0.0, 1.0, -181.65, -360.4)">
    <path d="M339.2 381.95 Q339.05 381.7 339.9 381.0 L340.95 380.15 342.5 380.5 Q343.1 380.7 343.4 381.35 343.95 382.45 340.8 383.05 L339.8 382.75 339.2 381.95 M373.2 395.35 L374.95 396.65 374.55 397.15 373.15 397.6 370.2 396.15 Q368.55 395.15 368.45 394.9 368.15 394.35 368.75 394.25 L369.45 394.25 Q372.1 394.6 373.2 395.35 M200.75 375.75 Q200.05 375.85 200.45 375.0 201.05 373.65 203.55 373.0 206.3 372.35 208.45 373.3 L205.25 374.6 202.4 375.65 200.75 375.75 M248.95 360.9 Q249.35 361.2 248.95 362.05 248.3 363.6 244.6 364.4 L243.85 364.0 Q243.75 363.8 244.15 362.9 L245.85 361.6 Q247.15 360.75 247.8 360.4 L248.95 360.9 M259.3 380.75 Q259.65 379.95 260.35 379.85 L261.05 379.85 Q263.3 380.3 263.6 381.35 263.5 382.6 263.9 383.15 L262.95 383.85 261.1 384.45 Q260.35 383.95 259.7 382.45 259.15 381.05 259.3 380.75 M305.0 390.75 Q304.55 389.75 306.6 389.3 L311.7 389.5 309.55 390.45 307.55 391.2 305.95 391.3 Q305.3 391.35 305.0 390.75 M323.2 422.5 L325.55 424.0 325.4 424.15 324.05 424.4 322.05 423.8 Q321.55 422.75 323.2 422.5 M184.85 420.8 L184.55 421.0 182.9 421.35 181.65 420.5 Q182.25 419.05 184.2 418.75 L184.85 420.8" fill="#e0653c" fill-rule="evenodd" stroke="none"/>
  </g>
</svg>
