<?xml version="1.0" encoding="UTF-8" standalone="no"?>
<svg xmlns:ffdec="https://www.free-decompiler.com/flash" xmlns:xlink="http://www.w3.org/1999/xlink" ffdec:objectType="shape" height="54.45px" width="221.25px" xmlns="http://www.w3.org/2000/svg">
  <g transform="matrix(1.0, 0.0, 0.0, 1.0, -158.25, -364.5)">
    <path d="M358.4 383.15 Q360.4 382.9 362.0 383.9 L358.3 385.0 356.3 384.8 355.15 384.25 Q357.25 383.35 358.4 383.15 M365.9 392.4 L364.6 391.2 Q366.3 390.9 368.35 391.2 370.15 391.45 371.55 392.15 371.45 392.6 369.7 392.85 L365.9 392.4 M160.55 376.2 Q163.05 374.8 166.1 374.8 L166.25 375.0 166.0 376.0 Q165.75 376.55 163.4 378.1 161.05 379.65 160.0 379.95 158.05 378.55 158.25 378.1 158.6 377.2 160.55 376.2 M257.55 366.05 L262.0 364.55 Q264.25 364.2 264.75 365.6 L259.9 367.1 Q257.5 367.1 258.2 366.8 L257.55 366.05 M257.7 391.75 Q256.6 391.4 256.5 391.25 256.0 391.0 256.4 390.1 256.8 389.15 258.95 388.6 L264.05 388.25 263.9 388.9 260.9 390.45 257.7 391.75 M259.5 377.3 L259.45 375.65 Q261.55 375.2 263.2 375.65 264.75 376.0 265.4 376.95 264.8 377.55 262.8 377.9 L259.5 377.3 M308.75 394.35 L306.6 393.0 Q306.6 392.35 307.85 391.6 309.5 390.6 312.1 390.6 L312.3 390.75 312.45 391.45 311.0 393.0 308.75 394.35 M224.75 408.4 L225.45 409.45 Q225.65 409.9 225.2 410.9 224.7 412.05 223.15 413.3 L222.2 413.5 220.4 413.65 219.95 413.85 Q219.65 413.9 220.05 413.0 221.7 409.25 224.75 408.4 M373.9 402.55 Q373.2 402.35 372.9 401.7 372.55 401.0 374.25 400.6 L379.1 400.35 379.5 400.85 377.6 401.95 375.55 402.9 373.9 402.55 M357.95 418.55 L357.1 418.7 355.4 418.8 355.15 418.95 Q354.9 419.0 354.6 418.35 353.25 415.6 355.6 415.0 L357.2 415.75 Q357.75 416.1 358.1 416.8 358.5 417.65 357.95 418.55" fill="#e0653c" fill-rule="evenodd" stroke="none"/>
  </g>
</svg>
