<?xml version="1.0" encoding="UTF-8" standalone="no"?>
<svg xmlns:ffdec="https://www.free-decompiler.com/flash" xmlns:xlink="http://www.w3.org/1999/xlink" ffdec:objectType="shape" height="48.5px" width="296.45px" xmlns="http://www.w3.org/2000/svg">
  <g transform="matrix(1.0, 0.0, 0.0, 1.0, 23.0, -5.0)">
    <path d="M271.45 42.5 L271.45 16.0 Q271.45 7.0 262.45 7.0 L-12.0 7.0 Q-21.0 7.0 -21.0 16.0 L-21.0 42.5 Q-21.0 51.5 -12.0 51.5 L262.45 51.5 Q271.45 51.5 271.45 42.5 M262.45 5.0 Q273.45 5.0 273.45 16.0 L273.45 42.5 Q273.45 53.5 262.45 53.5 L-12.0 53.5 Q-23.0 53.5 -23.0 42.5 L-23.0 16.0 Q-23.0 5.0 -12.0 5.0 L262.45 5.0" fill="#636a5b" fill-rule="evenodd" stroke="none"/>
    <path d="M268.55 15.4 L268.65 16.6 268.65 42.35 268.55 43.55 Q267.8 48.05 263.1 48.55 L262.25 48.6 -11.25 48.6 -12.1 48.55 Q-16.8 48.05 -17.5 43.55 L-17.6 42.35 -17.6 16.6 -17.5 15.4 Q-16.8 10.85 -12.1 10.4 L-11.25 10.35 262.25 10.35 263.1 10.4 Q267.8 10.85 268.55 15.4 M267.4 16.6 L267.3 15.65 267.3 15.6 Q266.7 12.0 262.95 11.65 L262.9 11.65 262.25 11.6 -11.25 11.6 -11.9 11.65 -11.95 11.65 Q-15.7 12.0 -16.25 15.6 L-16.25 15.65 -16.35 16.6 -16.35 42.35 -16.25 43.35 Q-15.7 46.9 -11.95 47.3 L-11.9 47.3 -11.25 47.35 262.25 47.35 262.9 47.3 262.95 47.3 Q266.7 46.9 267.3 43.35 L267.4 42.35 267.4 16.6" fill="#8a9b80" fill-rule="evenodd" stroke="none"/>
    <path d="M267.4 16.6 L267.4 42.35 267.3 43.35 Q266.7 46.9 262.95 47.3 L262.9 47.3 262.25 47.35 -11.25 47.35 -11.9 47.3 -11.95 47.3 Q-15.7 46.9 -16.25 43.35 L-16.35 42.35 -16.35 16.6 -16.25 15.65 -16.25 15.6 Q-15.7 12.0 -11.95 11.65 L-11.9 11.65 -11.25 11.6 262.25 11.6 262.9 11.65 262.95 11.65 Q266.7 12.0 267.3 15.6 L267.3 15.65 267.4 16.6" fill="#a8b69e" fill-rule="evenodd" stroke="none"/>
    <path d="M268.55 15.4 Q267.8 10.85 263.1 10.4 L262.25 10.35 -11.25 10.35 -12.1 10.4 Q-16.8 10.85 -17.5 15.4 L-17.6 16.6 -17.6 42.35 -17.5 43.55 Q-16.8 48.05 -12.1 48.55 L-11.25 48.6 262.25 48.6 263.1 48.55 Q267.8 48.05 268.55 43.55 L268.65 42.35 268.65 16.6 268.55 15.4 M271.45 42.5 Q271.45 51.5 262.45 51.5 L-12.0 51.5 Q-21.0 51.5 -21.0 42.5 L-21.0 16.0 Q-21.0 7.0 -12.0 7.0 L262.45 7.0 Q271.45 7.0 271.45 16.0 L271.45 42.5" fill="#808e77" fill-rule="evenodd" stroke="none"/>
  </g>
</svg>
