<?xml version="1.0" encoding="UTF-8" standalone="no"?>
<svg xmlns:ffdec="https://www.free-decompiler.com/flash" xmlns:xlink="http://www.w3.org/1999/xlink" ffdec:objectType="shape" height="12.5px" width="279.5px" xmlns="http://www.w3.org/2000/svg">
  <g transform="matrix(1.0, 0.0, 0.0, 1.0, -0.5, 0.0)">
    <path d="M278.15 10.7 Q276.55 12.25 274.45 12.5 L274.45 12.35 272.6 12.5 6.15 12.5 5.75 12.5 5.75 12.45 Q3.8 12.15 2.3 10.7 0.5 8.85 0.5 6.25 0.5 3.7 2.3 1.85 3.8 0.35 5.75 0.1 L5.75 0.0 6.15 0.0 272.6 0.0 274.45 0.2 274.45 0.05 Q276.55 0.25 278.15 1.85 280.0 3.7 280.0 6.25 280.0 8.85 278.15 10.7" fill="#353931" fill-rule="evenodd" stroke="none"/>
  </g>
</svg>
