<?xml version="1.0" encoding="UTF-8" standalone="no"?>
<svg xmlns:ffdec="https://www.free-decompiler.com/flash" xmlns:xlink="http://www.w3.org/1999/xlink" ffdec:objectType="shape" height="494.6px" width="137.7px" xmlns="http://www.w3.org/2000/svg">
  <g transform="matrix(1.0, 0.0, 0.0, 1.0, 0.0, 0.0)">
    <path d="M123.0 3.95 L113.4 3.8 Q110.3 3.0 106.65 2.95 L83.15 2.85 62.7 3.6 62.7 3.9 61.95 3.95 59.6 3.9 55.95 3.9 48.0 4.3 Q45.95 4.4 45.0 5.3 L43.9 5.7 43.5 6.05 Q43.3 6.0 43.25 6.15 L43.2 6.15 Q33.85 12.0 33.5 23.0 33.4 23.7 33.55 24.4 33.25 24.45 33.2 24.8 L33.0 24.85 32.95 24.85 32.7 24.85 32.6 24.85 32.35 24.85 30.0 25.05 25.85 24.9 24.55 24.65 24.55 24.6 21.6 23.7 21.5 23.6 21.3 23.15 Q21.1 22.7 21.2 22.25 L21.05 21.75 Q21.0 21.45 21.2 21.35 L21.25 20.8 21.2 19.45 Q20.6 18.95 20.0 18.9 18.8 18.75 17.95 18.2 17.5 17.75 17.05 17.55 16.2 17.05 15.55 16.85 L15.65 16.75 14.7 16.45 14.5 16.4 Q12.8 16.65 11.45 17.45 L8.75 18.55 Q7.55 19.15 6.45 19.85 7.75 24.3 8.5 28.9 L8.6 28.85 Q8.55 29.4 8.9 29.85 L9.0 31.2 9.25 37.1 Q9.45 40.4 9.25 43.85 9.15 43.95 9.2 44.25 L9.1 44.75 Q8.25 57.6 7.8 70.65 L9.4 74.0 10.95 77.55 11.0 77.6 12.6 79.35 14.55 81.8 15.45 82.35 15.7 82.5 14.85 82.35 14.65 82.3 Q13.8 82.3 12.9 81.55 L12.25 81.25 11.25 81.05 Q9.5 81.7 7.4 81.0 L7.4 81.25 Q8.0 86.6 7.25 91.75 7.2 99.6 7.55 107.45 9.0 109.45 11.45 111.0 L11.7 111.15 12.25 111.3 13.65 111.8 13.75 111.9 12.5 111.85 Q11.4 112.65 10.45 113.75 L10.45 113.8 13.4 114.95 17.3 115.8 20.15 115.15 20.25 115.1 20.7 115.2 20.75 115.25 20.7 115.3 20.6 115.3 Q19.65 115.55 18.75 115.95 17.9 116.2 17.2 116.7 L17.2 116.75 17.05 116.8 16.4 117.15 14.1 118.15 13.15 118.3 12.65 118.7 11.1 119.2 11.7 122.0 12.3 124.8 12.7 125.8 13.5 127.2 14.3 127.85 14.3 127.95 12.6 126.95 12.4 126.85 12.25 126.85 12.1 126.85 11.1 128.6 9.85 130.85 7.6 133.2 7.3 146.25 7.25 147.6 7.15 154.25 7.05 161.0 7.05 173.9 6.65 173.9 6.6 181.8 6.3 181.8 6.25 186.9 5.8 216.4 8.35 220.4 9.05 221.6 10.35 221.95 Q11.15 222.3 11.25 222.65 L11.8 223.05 12.0 223.15 13.6 223.95 15.55 224.3 15.5 224.35 14.2 224.4 13.6 224.35 13.3 224.65 12.3 225.7 10.25 227.7 10.05 227.9 9.1 230.4 Q8.15 232.85 6.6 235.15 6.5 235.1 6.55 235.25 L6.6 235.55 6.65 235.8 7.5 237.2 7.9 237.85 8.3 238.65 9.7 240.6 9.8 240.65 Q10.1 240.65 10.5 240.95 L10.85 241.15 11.8 241.2 13.7 241.6 13.95 241.65 15.5 241.95 15.35 242.2 14.35 242.05 13.35 242.15 13.2 242.15 13.25 242.2 13.05 242.3 11.8 242.0 Q10.55 242.2 9.5 242.85 L9.0 243.05 8.6 243.45 Q7.75 244.2 6.75 244.55 L7.25 246.65 7.8 250.25 7.85 250.55 7.7 251.25 7.7 251.5 7.75 251.75 8.25 252.55 8.3 252.6 Q7.8 252.55 7.4 252.15 L6.8 253.3 5.7 257.5 5.1 259.5 Q4.6 288.0 4.25 316.5 4.15 322.75 4.65 328.65 6.5 329.5 8.35 330.8 11.0 332.6 13.95 334.1 L14.35 334.3 14.3 334.7 14.3 334.75 14.4 335.3 14.05 335.4 Q13.45 336.2 10.3 337.2 L9.95 337.3 Q10.6 337.6 10.9 338.5 L11.15 338.55 10.9 338.65 10.9 338.8 11.25 339.1 12.6 340.8 12.75 341.2 12.0 341.35 12.2 341.65 11.95 341.75 9.65 341.7 8.35 342.0 Q6.4 342.35 4.9 343.3 L4.55 343.55 Q4.15 364.2 4.05 385.0 5.7 388.7 6.7 392.8 L8.9 401.9 9.05 401.8 9.05 402.45 9.05 402.55 9.35 403.1 9.45 403.45 Q9.05 403.95 8.8 404.65 L8.85 404.7 8.85 404.75 8.8 404.65 Q8.65 404.7 8.65 404.9 L8.45 405.3 8.45 405.25 8.4 405.35 8.0 406.55 7.4 407.65 Q6.6 410.1 5.2 412.5 3.6 414.95 3.25 417.65 L3.25 418.2 Q3.2 418.35 3.3 418.5 2.4 420.2 2.6 422.8 3.3 434.15 3.0 445.25 L3.0 448.25 2.8 452.3 2.75 453.45 2.75 462.65 Q2.6 466.4 2.75 470.15 L3.05 472.35 2.95 472.8 Q3.2 474.95 3.8 477.2 L4.2 480.9 4.25 480.95 Q5.25 482.85 6.7 484.55 L8.7 487.1 10.9 489.8 11.15 489.95 13.4 491.8 15.55 491.9 21.45 492.1 22.75 492.0 Q23.15 491.95 23.05 492.15 L23.7 492.1 23.85 492.15 23.55 492.3 29.4 492.2 40.0 491.05 56.15 490.15 60.35 490.5 60.35 490.35 61.75 490.45 62.0 490.55 64.4 490.55 64.65 490.5 Q65.2 490.4 65.65 490.75 74.75 491.8 83.95 491.15 L87.1 491.2 99.4 490.45 114.35 490.05 127.0 490.2 129.4 489.95 129.3 489.65 137.7 489.75 137.7 492.6 136.05 492.35 135.5 492.35 133.3 492.25 131.95 492.3 130.0 492.45 105.45 492.55 94.35 492.8 92.25 493.1 88.75 493.3 87.1 493.25 87.05 493.25 87.05 493.3 85.7 493.45 Q82.6 493.4 79.6 493.5 L77.8 493.5 76.2 493.45 Q72.8 493.6 69.35 493.3 L60.8 493.15 58.25 493.15 56.55 493.15 56.65 493.05 51.25 492.85 48.05 493.3 24.7 494.35 24.55 494.4 20.15 494.4 18.05 494.6 15.25 494.3 12.2 494.35 12.0 494.0 11.8 493.75 11.35 493.45 9.2 491.55 5.2 486.4 2.7 483.3 2.6 482.15 2.2 481.1 2.25 481.05 Q2.3 480.95 2.4 480.95 1.35 475.55 1.1 469.9 0.55 462.5 0.45 455.0 -0.05 453.7 0.0 452.05 L0.05 439.1 Q0.0 433.35 0.25 427.9 L0.25 427.5 0.35 424.95 0.1 423.3 0.45 423.4 Q0.4 423.0 0.5 422.7 L0.3 414.4 1.6 412.4 2.7 409.65 3.45 408.75 3.9 407.9 5.1 406.5 7.6 403.4 Q6.3 400.1 5.1 395.6 L4.95 395.2 4.0 392.75 4.0 393.3 3.55 391.6 Q2.45 388.9 1.75 386.2 L1.45 385.55 Q1.6 377.25 1.15 369.0 1.1 368.8 1.2 368.7 L1.2 368.5 1.2 366.6 Q1.4 359.9 1.2 353.75 1.15 353.3 1.25 353.1 1.15 351.55 1.45 350.1 L1.85 345.8 1.7 345.65 1.75 342.4 2.6 341.8 4.05 340.25 4.55 340.2 4.55 340.45 8.2 340.45 8.3 340.4 9.55 340.45 10.35 340.5 10.85 340.6 10.6 340.3 9.6 339.0 8.7 338.9 7.8 339.0 6.55 337.1 7.05 336.45 7.4 335.65 8.2 335.5 12.1 334.55 12.0 334.55 8.75 333.55 6.6 332.8 5.25 332.2 Q4.35 331.4 3.05 331.0 L2.5 330.8 2.1 330.0 1.65 329.45 1.1 322.7 1.5 311.25 Q1.45 290.0 2.95 268.75 3.3 263.05 2.55 258.05 3.2 256.0 3.15 254.3 L5.95 251.25 6.2 251.05 Q5.4 250.0 5.05 248.5 L4.85 247.4 4.35 245.5 3.85 245.45 Q3.75 244.75 4.1 244.3 L4.0 243.9 5.4 242.95 5.4 243.15 5.85 242.65 6.9 241.5 Q6.35 240.9 6.05 240.0 L5.2 237.2 3.85 236.15 3.9 234.4 3.9 234.3 5.1 232.7 Q6.5 230.65 6.7 228.9 L7.35 227.45 Q7.7 226.7 8.55 226.1 L8.5 226.0 9.05 226.05 10.35 224.35 10.75 224.05 10.85 224.1 10.1 223.45 8.2 222.8 7.7 222.65 7.6 222.7 7.5 222.55 7.35 222.2 5.85 220.3 5.7 220.0 5.7 220.15 3.3 217.3 3.1 214.45 3.25 190.15 3.4 189.45 3.45 186.9 3.75 175.7 3.8 175.7 3.95 170.65 4.0 170.65 4.15 146.1 4.8 146.1 4.2 134.6 4.3 132.35 5.25 131.45 6.15 130.05 6.8 129.55 Q6.75 129.45 6.9 129.5 L7.65 128.7 10.7 125.2 10.75 125.2 Q9.9 123.95 9.65 122.2 9.4 120.8 9.7 119.75 L9.65 119.2 9.4 119.05 9.55 118.85 9.55 118.7 9.55 118.6 9.4 118.55 Q9.45 118.45 9.55 118.5 L9.45 117.55 9.5 117.55 Q9.55 117.05 10.1 117.15 L10.2 117.4 11.5 117.15 13.2 116.75 13.35 116.65 11.1 116.1 Q9.8 115.65 8.95 114.75 L8.8 114.75 8.75 114.6 8.5 113.9 9.0 113.25 9.15 112.85 9.85 112.05 Q8.75 111.65 7.65 110.75 L7.65 110.9 5.05 108.25 4.8 108.1 5.45 79.4 6.6 78.9 7.65 78.65 7.7 78.65 9.7 79.15 10.9 79.35 8.3 76.05 6.2 73.45 6.05 73.35 5.6 73.1 Q5.7 65.4 5.95 57.7 L6.8 52.35 Q6.75 49.85 6.85 47.45 L7.05 46.35 7.05 45.1 Q6.15 39.65 7.0 34.65 L7.0 34.55 5.2 26.15 3.7 19.7 3.8 19.6 3.7 19.35 3.9 19.0 8.2 16.25 Q10.05 15.0 12.0 14.1 L12.25 14.1 Q12.8 13.7 13.5 13.5 L13.95 13.1 Q13.9 12.95 14.1 13.05 L14.15 13.05 14.5 13.25 Q14.55 13.15 14.65 13.2 15.0 13.2 15.5 13.5 L17.65 14.65 Q26.65 2.1 44.85 1.2 L45.4 1.1 45.8 1.1 46.0 1.1 46.5 1.1 46.35 1.15 47.6 1.2 49.15 1.25 50.5 1.2 51.85 1.3 52.0 1.25 52.3 1.15 55.95 1.05 59.6 0.9 61.15 0.85 61.4 0.85 61.6 0.8 85.45 0.4 85.65 0.6 90.2 0.2 92.75 0.0 95.35 0.05 101.9 0.1 105.05 0.3 Q121.3 0.5 137.7 0.35 L137.7 2.8 126.65 2.9 Q125.3 3.45 123.45 3.4 L123.55 4.0 123.5 4.05 123.05 3.95 123.0 3.95 M39.8 5.6 L39.1 5.65 38.45 5.7 38.2 5.7 35.75 6.55 30.6 8.0 28.75 8.95 Q24.4 11.3 21.05 14.65 L21.1 15.75 21.25 17.05 21.6 17.2 Q22.4 17.45 23.0 18.0 L23.15 19.15 23.15 19.8 23.15 20.15 23.15 20.6 23.15 21.45 23.2 21.45 23.85 21.6 24.25 21.55 26.0 22.1 26.25 22.1 26.75 22.2 27.05 22.25 28.45 22.6 31.95 22.25 Q31.55 20.95 31.95 19.05 32.25 17.65 32.85 16.55 33.0 15.6 33.3 14.75 34.85 10.0 38.1 7.0 L38.4 7.05 38.5 6.9 39.85 5.6 39.8 5.6 M35.2 5.4 L35.05 5.3 34.95 5.35 35.2 5.4 M0.2 338.6 L0.15 338.6 0.25 338.55 0.2 338.6 M12.3 36.9 L12.25 37.05 12.25 36.85 12.3 36.9" fill="#57431a" fill-rule="evenodd" stroke="none"/>
  </g>
</svg>
