<?xml version="1.0" encoding="UTF-8" standalone="no"?>
<svg xmlns:ffdec="https://www.free-decompiler.com/flash" xmlns:xlink="http://www.w3.org/1999/xlink" ffdec:objectType="shape" height="113.75px" width="516.0px" xmlns="http://www.w3.org/2000/svg">
  <g transform="matrix(1.0, 0.0, 0.0, 1.0, 268.25, 7.3)">
    <path d="M247.75 76.85 L247.7 76.85 Q246.9 91.7 231.25 91.7 L-26.25 91.7 -40.6 106.05 Q-41.05 106.45 -41.6 106.45 -42.15 106.45 -42.55 106.05 L-56.9 91.7 -251.75 91.7 Q-267.4 91.7 -268.2 76.85 L-268.25 76.85 -268.25 9.2 Q-268.25 -7.3 -251.75 -7.3 L231.25 -7.3 Q247.75 -7.3 247.75 9.2 L247.75 76.85 M244.75 75.65 L244.75 9.2 Q244.75 -4.3 231.25 -4.3 L-251.75 -4.3 Q-265.25 -4.3 -265.25 9.2 L-265.25 75.65 -265.2 76.85 Q-264.4 88.7 -251.75 88.7 L-74.5 88.7 -74.5 88.55 -65.4 88.55 -65.4 88.35 -64.6 88.35 -64.6 88.3 -56.4 88.3 -41.6 103.1 -26.8 88.3 -18.4 88.3 -18.4 88.35 -14.4 88.35 -14.4 88.55 -11.5 88.55 -11.5 88.7 231.25 88.7 Q243.9 88.7 244.7 76.85 L244.75 75.65" fill="#b28e2d" fill-rule="evenodd" stroke="none"/>
    <path d="M244.75 75.65 L244.7 76.85 Q243.9 88.7 231.25 88.7 L-11.5 88.7 -11.5 88.55 -14.4 88.55 -14.4 88.35 -18.4 88.35 -18.4 88.3 -26.8 88.3 -41.6 103.1 -56.4 88.3 -64.6 88.3 -64.6 88.35 -65.4 88.35 -65.4 88.55 -74.5 88.55 -74.5 88.7 -251.75 88.7 Q-264.4 88.7 -265.2 76.85 L-265.25 75.65 -265.25 9.2 Q-265.25 -4.3 -251.75 -4.3 L231.25 -4.3 Q244.75 -4.3 244.75 9.2 L244.75 75.65" fill="#333333" fill-rule="evenodd" stroke="none"/>
  </g>
</svg>
