<?xml version="1.0" encoding="UTF-8" standalone="no"?>
<svg xmlns:ffdec="https://www.free-decompiler.com/flash" xmlns:xlink="http://www.w3.org/1999/xlink" ffdec:objectType="shape" height="94.75px" width="378.0px" xmlns="http://www.w3.org/2000/svg">
  <g transform="matrix(1.0, 0.0, 0.0, 1.0, 268.25, -11.7)">
    <path d="M93.25 11.7 Q107.8 11.7 109.55 24.5 L109.75 28.2 109.75 76.85 109.7 76.85 Q108.9 91.7 93.25 91.7 L-26.25 91.7 -40.6 106.05 Q-41.05 106.45 -41.6 106.45 -42.15 106.45 -42.55 106.05 L-56.9 91.7 -251.75 91.7 Q-267.4 91.7 -268.2 76.85 L-268.25 76.85 -268.25 28.2 Q-268.25 11.7 -251.75 11.7 L93.25 11.7 M93.25 14.7 L-251.75 14.7 Q-265.25 14.7 -265.25 28.2 L-265.25 75.65 -265.2 76.85 Q-264.4 88.7 -251.75 88.7 L-74.5 88.7 -74.5 88.55 -65.4 88.55 -65.4 88.35 -64.6 88.35 -64.6 88.3 -56.4 88.3 -41.6 103.1 -26.8 88.3 -18.4 88.3 -18.4 88.35 -14.4 88.35 -14.4 88.55 -11.5 88.55 -11.5 88.7 93.25 88.7 Q105.9 88.7 106.7 76.85 L106.75 75.65 106.75 28.2 106.45 24.5 Q104.75 14.7 93.25 14.7" fill="#b28e2d" fill-rule="evenodd" stroke="none"/>
    <path d="M93.25 14.7 Q104.75 14.7 106.45 24.5 L106.75 28.2 106.75 75.65 106.7 76.85 Q105.9 88.7 93.25 88.7 L-11.5 88.7 -11.5 88.55 -14.4 88.55 -14.4 88.35 -18.4 88.35 -18.4 88.3 -26.8 88.3 -41.6 103.1 -56.4 88.3 -64.6 88.3 -64.6 88.35 -65.4 88.35 -65.4 88.55 -74.5 88.55 -74.5 88.7 -251.75 88.7 Q-264.4 88.7 -265.2 76.85 L-265.25 75.65 -265.25 28.2 Q-265.25 14.7 -251.75 14.7 L93.25 14.7" fill="#333333" fill-rule="evenodd" stroke="none"/>
  </g>
</svg>
