<?xml version="1.0" encoding="UTF-8" standalone="no"?>
<svg xmlns:ffdec="https://www.free-decompiler.com/flash" xmlns:xlink="http://www.w3.org/1999/xlink" ffdec:objectType="shape" height="1032.25px" width="1536.35px" xmlns="http://www.w3.org/2000/svg">
  <g transform="matrix(1.0, 0.0, 0.0, 1.0, 193.45, 144.5)">
    <path d="M1328.25 -129.85 Q1342.9 -115.2 1342.9 -94.5 L1342.9 837.75 Q1342.9 858.45 1328.25 873.1 1313.6 887.75 1292.9 887.75 L-143.45 887.75 Q-164.15 887.75 -178.8 873.1 -193.45 858.45 -193.45 837.75 L-193.45 -94.5 Q-193.45 -115.2 -178.8 -129.85 -164.15 -144.5 -143.45 -144.5 L1292.9 -144.5 Q1313.6 -144.5 1328.25 -129.85 M575.2 248.2 L575.2 247.95 Q574.9 237.95 564.3 237.95 L133.15 237.95 Q122.55 237.95 122.25 247.9 L122.25 433.95 Q122.25 444.4 133.15 444.4 L564.3 444.4 Q575.2 444.4 575.2 433.95 L575.2 248.4 575.2 248.2" fill="#252525" fill-opacity="0.49803922" fill-rule="evenodd" stroke="none"/>
  </g>
</svg>
