<?xml version="1.0" encoding="UTF-8" standalone="no"?>
<svg xmlns:ffdec="https://www.free-decompiler.com/flash" xmlns:xlink="http://www.w3.org/1999/xlink" ffdec:objectType="shape" height="31.0px" width="451.05px" xmlns="http://www.w3.org/2000/svg">
  <g transform="matrix(1.0, 0.0, 0.0, 1.0, -106.35, -17.7)">
    <path d="M557.3 31.9 L557.4 31.9 557.4 35.7 557.4 35.9 557.1 35.9 Q556.25 40.45 552.7 44.0 548.0 48.7 541.4 48.7 L122.35 48.7 Q115.75 48.7 111.05 44.0 107.5 40.45 106.65 35.9 L106.35 35.9 106.35 35.7 106.35 31.9 106.45 31.9 Q107.0 26.45 111.05 22.4 115.75 17.7 122.35 17.7 L541.4 17.7 Q548.0 17.7 552.7 22.4 556.75 26.45 557.3 31.9" fill="#3d2f16" fill-opacity="0.8980392" fill-rule="evenodd" stroke="none"/>
  </g>
</svg>
