<?xml version="1.0" encoding="UTF-8" standalone="no"?>
<svg xmlns:ffdec="https://www.free-decompiler.com/flash" xmlns:xlink="http://www.w3.org/1999/xlink" ffdec:objectType="shape" height="337.0px" width="665.4px" xmlns="http://www.w3.org/2000/svg">
  <g transform="matrix(1.0, 0.0, 0.0, 1.0, 0.0, 0.0)">
    <path d="M665.4 27.65 L665.4 309.3 665.3 310.3 665.3 316.95 Q665.3 319.05 663.85 320.5 L648.7 335.55 Q647.2 337.0 645.15 337.0 L20.05 337.0 Q18.0 337.0 16.55 335.5 L1.5 320.45 Q0.0 319.0 0.0 316.95 L0.0 20.0 Q0.0 17.9 1.5 16.45 L16.55 1.45 Q18.0 0.0 20.05 0.0 L645.15 0.0 Q647.2 0.0 648.7 1.45 L663.85 16.45 Q665.3 17.9 665.3 20.0 L665.3 26.6 665.4 27.65 M652.4 23.3 L641.9 12.85 23.35 12.85 12.9 23.3 12.9 313.65 23.35 324.1 641.9 324.1 652.4 313.6 652.4 309.3 652.45 308.55 652.45 28.35 652.4 27.65 652.4 23.3" fill="#000000" fill-rule="evenodd" stroke="none"/>
    <path d="M661.6 17.35 L663.1 18.85 663.1 26.25 663.2 26.35 663.2 310.55 663.1 310.65 663.1 318.15 661.6 319.65 661.6 319.6 647.8 333.35 647.85 333.35 646.3 334.85 18.95 334.85 17.35 333.35 17.4 333.35 3.65 319.6 3.65 319.65 2.15 318.15 2.15 18.85 3.65 17.35 3.65 17.4 17.4 3.55 17.35 3.55 18.95 2.1 26.9 2.1 27.0 2.05 638.85 2.05 638.95 2.1 646.3 2.1 647.85 3.55 647.8 3.55 661.6 17.4 661.6 17.35 M661.6 27.65 L661.6 19.45 645.85 3.55 19.45 3.55 3.65 19.45 3.65 317.55 19.45 333.35 645.85 333.35 661.6 317.55 661.6 309.3 661.7 309.3 661.7 27.65 661.6 27.65" fill="#957b47" fill-rule="evenodd" stroke="none"/>
    <path d="M660.3 27.65 L660.3 20.0 645.15 5.0 20.05 5.0 5.0 20.0 5.0 316.95 20.05 332.0 645.15 332.0 660.3 316.95 660.3 309.3 660.4 309.3 660.4 27.65 660.3 27.65 M661.6 27.65 L661.7 27.65 661.7 309.3 661.6 309.3 661.6 317.55 645.85 333.35 19.45 333.35 3.65 317.55 3.65 19.45 19.45 3.55 645.85 3.55 661.6 19.45 661.6 27.65" fill="#dcc001" fill-rule="evenodd" stroke="none"/>
    <path d="M657.4 27.65 L657.45 27.65 657.45 309.3 657.4 309.3 657.4 315.7 643.95 329.1 21.3 329.1 7.9 315.7 7.9 21.25 21.3 7.85 643.95 7.85 657.4 21.25 657.4 27.65" fill="#6f5b35" fill-rule="evenodd" stroke="none"/>
    <path d="M660.3 27.65 L660.4 27.65 660.4 309.3 660.3 309.3 660.3 316.95 645.15 332.0 20.05 332.0 5.0 316.95 5.0 20.0 20.05 5.0 645.15 5.0 660.3 20.0 660.3 27.65 M657.4 27.65 L657.4 21.25 643.95 7.85 21.3 7.85 7.9 21.25 7.9 315.7 21.3 329.1 643.95 329.1 657.4 315.7 657.4 309.3 657.45 309.3 657.45 27.65 657.4 27.65" fill="#504414" fill-rule="evenodd" stroke="none"/>
  </g>
</svg>
