<?xml version="1.0" encoding="UTF-8" standalone="no"?>
<svg xmlns:ffdec="https://www.free-decompiler.com/flash" xmlns:xlink="http://www.w3.org/1999/xlink" ffdec:objectType="shape" height="183.8px" width="179.9px" xmlns="http://www.w3.org/2000/svg">
  <g transform="matrix(1.0, 0.0, 0.0, 1.0, 103.5, 203.8)">
    <path d="M61.4 -192.75 Q61.3 -183.65 62.0 -165.15 62.65 -145.2 63.15 -141.05 63.9 -134.5 68.0 -115.35 68.85 -115.65 70.15 -115.35 70.55 -116.55 70.8 -118.9 71.55 -123.55 72.9 -125.8 73.1 -126.4 73.75 -126.65 L74.95 -126.55 Q75.55 -126.35 75.75 -125.65 76.35 -124.25 76.4 -121.45 76.65 -114.75 73.1 -75.8 L69.05 -35.5 69.2 -35.1 Q69.5 -34.65 69.5 -33.4 L69.5 -33.3 Q69.55 -31.0 68.7 -30.45 L68.3 -30.05 67.85 -29.35 67.35 -28.95 66.55 -28.6 65.65 -28.75 64.85 -29.1 10.0 -25.45 -44.25 -22.05 -44.75 -21.6 -45.5 -21.4 -51.5 -20.95 -58.75 -20.2 -66.55 -20.0 Q-74.15 -20.0 -80.25 -22.5 -81.5 -23.0 -86.65 -25.8 -86.95 -25.55 -87.3 -25.5 L-88.15 -25.45 Q-90.25 -25.85 -91.35 -27.55 L-91.6 -28.3 -91.45 -29.1 -90.85 -30.75 Q-90.8 -31.3 -90.35 -31.6 -89.95 -32.05 -89.4 -32.15 L-88.8 -32.2 -103.45 -112.95 -103.45 -113.75 -103.1 -114.35 -102.5 -114.9 -101.75 -115.35 -100.85 -115.35 -100.15 -114.85 Q-98.05 -112.55 -96.1 -108.05 L-96.1 -108.0 -94.75 -104.55 -94.0 -104.85 Q-87.6 -105.95 -86.0 -111.45 -85.05 -115.05 -84.45 -123.0 L-84.35 -123.25 Q-82.75 -131.7 -81.95 -142.9 L-81.85 -143.2 Q-80.15 -150.85 -80.75 -163.1 -81.05 -170.1 -82.1 -182.95 L-82.1 -183.05 -81.95 -188.8 -81.85 -189.1 Q-83.05 -193.5 -83.05 -194.55 L-83.1 -202.2 Q-83.1 -202.85 -82.6 -203.3 -82.15 -203.8 -81.5 -203.8 L-80.85 -203.8 Q-80.15 -203.8 -79.75 -203.4 -79.3 -203.0 -79.2 -202.35 -78.05 -192.2 -76.65 -186.75 L-76.65 -186.65 Q-74.85 -178.8 -68.85 -173.7 L-68.75 -173.7 -68.1 -173.85 -67.0 -173.75 Q-66.45 -173.55 -66.25 -172.95 L-62.25 -165.9 -62.35 -165.9 Q-59.45 -161.05 -58.3 -158.45 L-58.15 -157.8 -58.15 -157.4 -58.35 -156.45 Q-58.65 -156.15 -59.05 -155.95 -59.4 -155.6 -60.05 -155.8 -58.9 -150.1 -54.85 -143.65 -49.4 -135.05 -41.3 -129.05 L-40.85 -128.45 -40.3 -128.55 Q-39.0 -129.45 -37.55 -130.1 -33.55 -131.8 -30.6 -130.15 L-29.85 -130.25 Q-24.2 -137.7 -22.5 -148.0 L-22.55 -148.0 Q-21.6 -154.3 -20.5 -167.0 -20.45 -167.65 -20.05 -168.0 -19.65 -168.45 -19.05 -168.55 -18.45 -168.6 -17.95 -168.15 L-17.5 -167.8 Q-16.15 -173.1 -16.0 -181.15 L-15.6 -199.35 -15.0 -200.45 -13.95 -200.8 -13.15 -200.8 -12.1 -200.5 -11.6 -199.6 Q-9.55 -192.85 -8.2 -184.9 L-8.2 -184.65 Q-8.15 -181.95 -7.75 -180.55 L-7.75 -180.6 Q-7.45 -179.45 -6.5 -179.45 -4.25 -179.65 -1.9 -177.95 L-0.25 -177.3 Q0.1 -177.15 0.55 -176.95 L1.45 -176.25 1.75 -175.85 1.9 -175.55 2.25 -174.15 2.1 -173.85 Q2.45 -173.2 2.25 -172.6 1.95 -172.0 1.45 -171.65 L-0.75 -171.35 -1.15 -171.35 -1.3 -171.2 -1.05 -167.95 Q3.7 -137.3 11.95 -136.65 L11.95 -136.85 Q11.9 -137.4 12.2 -137.8 L12.95 -138.5 13.9 -138.55 14.7 -138.2 16.55 -136.05 16.4 -136.15 18.45 -134.35 20.15 -134.35 Q25.95 -139.75 27.5 -148.2 28.3 -153.65 29.3 -165.15 L29.35 -165.35 29.45 -165.75 29.45 -165.95 Q29.7 -167.0 30.7 -167.6 L31.7 -167.9 32.6 -167.6 33.1 -166.7 Q34.0 -163.8 34.3 -157.2 L34.3 -157.1 Q34.35 -153.2 34.65 -150.5 L38.4 -150.7 Q39.45 -151.9 40.6 -154.9 L42.25 -158.9 42.0 -159.1 Q41.45 -159.2 41.45 -161.4 L41.45 -161.45 Q41.2 -163.95 45.1 -167.35 L50.25 -171.55 51.1 -171.95 51.9 -171.8 Q54.1 -175.7 55.5 -181.7 57.55 -192.1 58.35 -193.45 58.65 -194.0 59.1 -194.15 L60.15 -194.25 61.1 -193.75 61.4 -192.75" fill="#ffff00" fill-opacity="0.5019608" fill-rule="evenodd" stroke="none"/>
    <path d="M59.75 -192.75 Q59.7 -183.65 60.35 -165.15 61.1 -145.05 61.55 -140.9 62.35 -133.75 67.15 -111.75 67.5 -111.8 68.25 -113.3 L71.05 -113.35 Q71.8 -114.4 72.45 -118.6 73.1 -123.0 74.2 -125.1 74.7 -123.9 74.8 -121.45 75.0 -114.75 71.5 -75.95 L67.3 -34.7 Q67.85 -35.0 67.85 -33.3 67.95 -31.9 67.5 -31.55 L66.75 -31.1 66.75 -30.65 66.35 -30.2 65.6 -30.6 65.6 -30.8 9.85 -27.05 -45.05 -23.65 -45.65 -23.0 -51.9 -22.55 -58.8 -21.8 -66.55 -21.6 Q-73.85 -21.6 -79.75 -24.05 L-86.85 -27.85 -87.75 -27.05 Q-89.25 -27.35 -89.95 -28.45 -89.3 -29.9 -89.25 -30.5 L-86.85 -30.9 -101.9 -113.2 -101.4 -113.8 Q-99.4 -111.6 -97.65 -107.4 L-94.85 -100.5 Q-94.45 -100.8 -94.25 -101.75 L-93.7 -103.3 Q-86.35 -104.6 -84.45 -111.0 -83.4 -114.75 -82.9 -122.95 -81.2 -131.5 -80.4 -142.85 -78.55 -150.7 -79.15 -163.15 L-80.45 -183.1 -80.4 -188.7 -80.1 -188.7 Q-81.4 -193.5 -81.4 -194.55 L-81.5 -202.2 -80.85 -202.2 Q-79.65 -191.8 -78.25 -186.35 -76.05 -176.85 -68.25 -171.2 L-68.3 -172.15 -67.7 -172.3 -63.75 -165.1 Q-60.85 -160.3 -59.75 -157.8 L-59.75 -157.4 Q-60.05 -157.2 -62.2 -158.6 -61.55 -151.3 -56.25 -142.85 -50.55 -133.9 -42.25 -127.75 -41.85 -126.9 -39.8 -126.9 -38.5 -127.9 -36.85 -128.6 -33.45 -130.1 -31.05 -128.55 L-29.05 -128.7 Q-22.7 -136.65 -20.95 -147.75 -20.0 -154.2 -18.95 -166.9 L-17.8 -165.6 -17.0 -164.05 Q-14.6 -170.15 -14.4 -181.15 L-13.95 -199.2 -13.15 -199.2 Q-11.1 -192.4 -9.85 -184.65 L-9.4 -180.25 Q-8.65 -177.6 -6.35 -177.8 -4.55 -177.95 -2.7 -176.55 L-0.9 -175.85 -0.25 -175.45 0.25 -175.15 0.4 -174.8 0.65 -174.15 0.7 -173.1 -0.75 -172.95 Q-1.65 -172.95 -2.4 -173.45 L-2.85 -171.35 -2.7 -167.75 Q2.45 -135.05 12.1 -135.05 13.35 -135.05 13.5 -135.75 L13.6 -137.0 15.2 -135.1 Q16.55 -133.65 17.85 -132.75 L20.75 -132.75 Q27.45 -138.5 29.0 -147.9 29.85 -153.45 30.9 -165.1 L30.95 -165.45 31.65 -166.25 Q32.35 -163.55 32.65 -157.1 32.8 -151.8 33.35 -148.85 L39.0 -149.15 Q40.5 -150.2 42.1 -154.3 44.1 -159.55 44.75 -160.6 44.4 -160.6 43.85 -160.2 L43.15 -160.2 43.05 -161.45 Q43.0 -163.45 46.15 -166.2 47.85 -167.75 51.25 -170.3 51.6 -169.7 51.6 -168.7 55.3 -173.2 57.05 -181.45 59.05 -191.35 59.75 -192.75" fill="#ffffff" fill-rule="evenodd" stroke="none"/>
  </g>
</svg>
