<?xml version="1.0" encoding="UTF-8" standalone="no"?>
<svg xmlns:ffdec="https://www.free-decompiler.com/flash" xmlns:xlink="http://www.w3.org/1999/xlink" ffdec:objectType="shape" height="78.0px" width="388.95px" xmlns="http://www.w3.org/2000/svg">
  <g transform="matrix(1.0, 0.0, 0.0, 1.0, 0.0, 30.0)">
    <path d="M19.0 -30.0 L369.95 -30.0 Q388.95 -30.0 388.95 -11.0 L388.95 29.0 Q388.95 48.0 369.95 48.0 L19.0 48.0 Q0.0 48.0 0.0 29.0 L0.0 -11.0 Q0.0 -30.0 19.0 -30.0" fill="#968105" fill-rule="evenodd" stroke="none"/>
    <path d="M2.0 -11.0 Q2.0 -28.0 19.0 -28.0 L369.95 -28.0 Q386.95 -28.0 386.95 -11.0 L386.95 29.0 Q386.95 46.0 369.95 46.0 L19.0 46.0 Q2.0 46.0 2.0 29.0 L2.0 -11.0 M19.0 -26.0 Q4.0 -26.0 4.0 -11.0 L4.0 29.0 Q4.0 44.0 19.0 44.0 L369.95 44.0 Q384.95 44.0 384.95 29.0 L384.95 -11.0 Q384.95 -26.0 369.95 -26.0 L19.0 -26.0" fill="#d7bc22" fill-rule="evenodd" stroke="none"/>
    <path d="M19.0 -26.0 L369.95 -26.0 Q384.95 -26.0 384.95 -11.0 L384.95 29.0 Q384.95 44.0 369.95 44.0 L19.0 44.0 Q4.0 44.0 4.0 29.0 L4.0 -11.0 Q4.0 -26.0 19.0 -26.0" fill="#000000" fill-opacity="0.7490196" fill-rule="evenodd" stroke="none"/>
  </g>
</svg>
