<?xml version="1.0" encoding="UTF-8" standalone="no"?>
<svg xmlns:ffdec="https://www.free-decompiler.com/flash" xmlns:xlink="http://www.w3.org/1999/xlink" ffdec:objectType="shape" height="60.0px" width="239.95px" xmlns="http://www.w3.org/2000/svg">
  <g transform="matrix(1.0, 0.0, 0.0, 1.0, -73.6, -59.0)">
    <path d="M313.55 73.6 L313.55 104.35 Q313.55 119.0 298.95 119.0 L88.2 119.0 Q73.6 119.0 73.6 104.35 L73.6 73.6 Q73.6 59.0 88.2 59.0 L298.95 59.0 Q313.55 59.0 313.55 73.6" fill="#968105" fill-opacity="0.8" fill-rule="evenodd" stroke="none"/>
    <path d="M312.0 73.6 L312.0 104.35 Q312.0 117.45 298.95 117.45 L88.2 117.45 Q75.15 117.45 75.15 104.35 L75.15 73.6 Q75.15 60.55 88.2 60.55 L298.95 60.55 Q312.0 60.55 312.0 73.6 M310.45 73.6 Q310.45 62.05 298.95 62.05 L88.2 62.05 Q76.7 62.05 76.7 73.6 L76.7 104.35 Q76.7 115.9 88.2 115.9 L298.95 115.9 Q310.45 115.9 310.45 104.35 L310.45 73.6" fill="#d7bc22" fill-opacity="0.8" fill-rule="evenodd" stroke="none"/>
    <path d="M310.45 73.6 L310.45 104.35 Q310.45 115.9 298.95 115.9 L88.2 115.9 Q76.7 115.9 76.7 104.35 L76.7 73.6 Q76.7 62.05 88.2 62.05 L298.95 62.05 Q310.45 62.05 310.45 73.6" fill="#000000" fill-opacity="0.5882353" fill-rule="evenodd" stroke="none"/>
  </g>
</svg>
