<?xml version="1.0" encoding="UTF-8" standalone="no"?>
<svg xmlns:ffdec="https://www.free-decompiler.com/flash" xmlns:xlink="http://www.w3.org/1999/xlink" ffdec:objectType="shape" height="60.0px" width="299.2px" xmlns="http://www.w3.org/2000/svg">
  <g transform="matrix(1.0, 0.0, 0.0, 1.0, -44.85, -59.0)">
    <path d="M344.05 73.6 L344.05 104.35 Q344.05 119.0 329.45 119.0 L59.45 119.0 Q44.85 119.0 44.85 104.35 L44.85 73.6 Q44.85 59.0 59.45 59.0 L329.45 59.0 Q344.05 59.0 344.05 73.6" fill="#968105" fill-rule="evenodd" stroke="none"/>
    <path d="M340.95 73.6 Q340.95 62.05 329.45 62.05 L59.45 62.05 Q47.95 62.05 47.95 73.6 L47.95 104.35 Q47.95 115.9 59.45 115.9 L329.45 115.9 Q340.95 115.9 340.95 104.35 L340.95 73.6 M329.45 60.55 Q342.5 60.55 342.5 73.6 L342.5 104.35 Q342.5 117.45 329.45 117.45 L59.45 117.45 Q46.4 117.45 46.4 104.35 L46.4 73.6 Q46.4 60.55 59.45 60.55 L329.45 60.55" fill="#d7bc22" fill-rule="evenodd" stroke="none"/>
    <path d="M340.95 73.6 L340.95 104.35 Q340.95 115.9 329.45 115.9 L59.45 115.9 Q47.95 115.9 47.95 104.35 L47.95 73.6 Q47.95 62.05 59.45 62.05 L329.45 62.05 Q340.95 62.05 340.95 73.6" fill="#000000" fill-opacity="0.7490196" fill-rule="evenodd" stroke="none"/>
  </g>
</svg>
