<?xml version="1.0" encoding="UTF-8" standalone="no"?>
<svg xmlns:ffdec="https://www.free-decompiler.com/flash" xmlns:xlink="http://www.w3.org/1999/xlink" ffdec:objectType="shape" height="108.9px" width="88.9px" xmlns="http://www.w3.org/2000/svg">
  <g transform="matrix(1.0, 0.0, 0.0, 1.0, 10.35, 99.1)">
    <path d="M22.1 -99.05 L22.45 -98.9 Q23.25 -98.9 23.25 -97.15 L23.1 -95.8 23.1 -95.85 23.05 -95.5 22.75 -94.8 Q22.45 -94.5 22.05 -94.5 L21.75 -94.15 Q21.3 -93.65 20.75 -93.7 19.5 -93.4 19.5 -95.5 19.5 -98.5 21.4 -99.05 L22.1 -99.05 M62.6 -95.7 Q63.3 -95.9 63.75 -95.2 64.05 -94.9 64.05 -93.85 64.2 -92.85 61.75 -90.65 L61.7 -90.65 Q59.55 -88.7 58.45 -88.4 L57.9 -88.35 57.45 -88.65 57.2 -89.15 57.1 -89.7 57.15 -90.35 Q57.8 -91.65 59.85 -93.6 L59.9 -93.6 Q61.5 -95.2 62.05 -95.45 L62.6 -95.7 M59.1 -58.55 Q59.4 -58.85 59.8 -58.85 L61.6 -58.45 61.95 -58.05 62.05 -57.6 Q62.05 -56.3 61.3 -55.75 L60.65 -55.5 60.05 -55.5 59.6 -55.6 59.25 -55.9 Q58.8 -56.4 58.8 -57.85 58.8 -58.25 59.1 -58.55 M60.55 -51.75 L60.55 -51.8 60.6 -51.85 60.55 -51.75 M60.55 -51.0 Q60.7 -52.5 62.25 -53.15 64.0 -53.9 64.0 -51.15 L63.85 -49.55 Q63.55 -48.5 62.5 -48.5 61.6 -48.5 61.1 -49.1 L61.0 -49.15 Q60.35 -49.4 60.35 -50.3 L60.55 -51.0 M11.25 -62.85 Q11.65 -62.85 11.95 -62.55 L12.6 -61.75 Q13.05 -61.15 13.05 -60.0 L12.85 -58.4 12.85 -58.35 12.5 -57.35 12.0 -56.85 11.3 -56.75 Q10.95 -56.9 10.75 -57.2 9.25 -59.4 9.3 -60.75 L9.4 -61.85 9.7 -62.5 Q10.15 -63.05 10.75 -62.85 L11.25 -62.85 M7.95 -49.8 L8.6 -49.4 Q9.0 -48.8 9.0 -48.1 L8.9 -47.6 Q8.55 -46.9 7.55 -46.6 L7.1 -46.6 4.9 -47.0 Q4.5 -47.1 4.3 -47.35 L3.3 -48.85 3.3 -49.3 3.5 -49.7 Q3.8 -50.45 5.45 -50.25 L7.95 -49.8 M18.85 -60.25 L18.8 -60.85 19.05 -61.4 19.1 -61.45 19.5 -61.7 20.2 -61.95 20.8 -61.95 21.3 -61.6 21.5 -61.0 21.35 -60.45 Q21.05 -59.8 19.85 -59.7 L19.25 -59.8 18.85 -60.25 M34.4 -72.55 L34.95 -72.5 35.2 -72.4 Q36.0 -72.4 36.0 -70.65 36.0 -69.15 35.15 -68.8 L35.2 -68.85 35.1 -68.8 35.05 -68.7 34.45 -68.35 33.95 -68.25 33.4 -68.3 33.0 -68.6 32.65 -69.0 Q32.5 -69.15 32.5 -70.35 32.5 -71.75 33.25 -72.2 L34.4 -72.55 M25.55 -57.15 L25.95 -57.65 26.5 -57.85 27.25 -57.85 27.8 -57.7 28.8 -56.6 28.8 -56.65 Q29.3 -55.9 29.25 -55.35 29.35 -54.3 28.05 -53.9 L27.5 -53.85 27.05 -54.15 26.35 -55.1 Q25.7 -55.95 25.55 -56.55 L25.55 -57.15 M23.45 -52.65 Q24.3 -53.05 25.5 -53.1 L26.1 -52.9 26.5 -52.4 26.75 -51.65 Q26.9 -51.3 26.7 -50.9 25.65 -48.75 23.55 -48.85 L23.1 -48.95 22.85 -49.15 22.5 -49.4 Q22.05 -49.65 22.05 -51.0 21.9 -51.95 23.4 -52.65 L23.45 -52.65 M28.4 -39.1 Q30.1 -36.5 30.05 -34.5 L29.85 -33.0 29.75 -33.0 29.55 -32.4 29.05 -32.05 28.55 -31.9 28.0 -31.85 27.55 -32.15 27.3 -32.6 25.95 -35.85 23.7 -39.85 23.55 -40.35 23.7 -40.85 24.1 -41.25 Q26.1 -42.55 28.4 -39.1 M19.8 -43.7 L20.0 -42.1 19.5 -39.45 19.5 -39.4 Q19.0 -37.8 19.0 -36.85 L18.9 -33.7 19.05 -32.65 19.05 -31.9 18.85 -31.3 19.25 -28.7 19.2 -28.25 18.95 -27.9 18.7 -27.65 Q18.4 -27.35 18.0 -27.35 17.6 -27.35 17.3 -27.65 16.9 -27.95 16.15 -30.35 L15.0 -30.35 14.85 -30.35 13.75 -30.65 13.5 -30.85 Q13.0 -31.15 13.0 -32.55 L13.15 -33.75 13.05 -37.1 12.6 -39.15 12.6 -39.1 Q11.95 -40.9 12.0 -41.6 11.85 -42.9 14.3 -45.2 L14.65 -45.4 15.05 -45.5 18.3 -45.35 18.75 -45.2 19.1 -44.9 19.75 -43.85 19.8 -43.7 M8.6 -37.55 L8.95 -37.2 9.15 -36.8 9.25 -36.2 8.95 -35.65 Q8.85 -35.45 7.65 -34.95 L7.6 -34.95 6.55 -34.5 5.9 -34.35 4.9 -34.45 4.85 -34.45 Q3.2 -34.8 3.0 -35.25 2.75 -35.55 2.8 -35.95 2.85 -36.4 3.2 -36.65 3.7 -37.1 5.45 -37.45 L8.1 -37.75 8.6 -37.55 M1.0 -25.5 Q0.85 -25.75 2.25 -27.6 L2.7 -27.95 Q5.3 -28.9 5.9 -27.65 L6.05 -27.05 5.85 -26.45 Q4.2 -24.45 2.0 -24.5 1.6 -24.5 1.3 -24.8 1.0 -25.1 1.0 -25.5 M0.2 -25.45 Q0.0 -25.2 -0.35 -25.1 L-1.85 -25.0 Q-2.15 -25.0 -2.4 -25.2 L-2.8 -25.65 -3.05 -26.4 -3.1 -26.85 -3.0 -27.6 -2.65 -28.25 -2.0 -28.5 -1.25 -28.5 Q-0.85 -28.5 -0.55 -28.2 0.5 -27.2 0.4 -26.35 L0.4 -26.1 0.2 -25.45 M25.9 -14.5 L26.45 -14.95 26.75 -15.05 27.4 -15.05 27.9 -14.6 Q29.3 -12.35 29.95 -8.0 L29.95 -7.95 30.8 -1.6 30.8 -1.4 30.75 -0.8 30.6 -0.35 Q30.25 0.4 28.75 0.4 L27.25 0.15 26.95 -0.2 Q26.8 -0.45 26.8 -0.7 L26.8 -0.85 Q26.75 -5.85 25.75 -13.85 25.7 -14.25 25.9 -14.5 M46.55 -28.65 Q46.35 -28.85 46.3 -29.15 L46.35 -29.75 Q46.7 -30.6 47.5 -30.85 L49.25 -31.1 49.95 -30.8 50.25 -30.1 50.6 -29.5 50.75 -29.05 50.65 -28.55 Q50.05 -27.25 49.4 -27.05 L49.0 -27.0 48.55 -27.1 Q47.65 -27.55 46.55 -28.65 M69.8 -3.35 Q70.7 -4.95 73.35 -6.1 76.35 -7.4 78.05 -6.35 L78.5 -5.85 78.5 -5.2 78.1 -4.65 Q77.35 -4.15 74.35 -3.0 L74.4 -3.0 Q71.1 -1.7 70.55 -1.85 70.2 -1.9 69.95 -2.1 L69.65 -2.7 69.8 -3.35 M71.5 1.0 L71.5 1.65 71.25 2.35 71.0 2.75 70.6 3.0 69.7 3.25 69.2 3.25 67.55 2.55 67.2 2.0 67.1 1.55 67.1 1.0 67.4 0.55 Q68.35 -0.4 70.35 0.05 L70.75 0.2 71.15 0.5 71.5 1.0 M36.95 0.8 Q37.55 1.4 37.55 2.25 L37.55 2.45 37.25 3.2 Q37.05 3.75 35.5 3.75 34.2 3.75 33.9 3.4 L33.6 3.05 33.55 2.95 33.3 2.55 33.3 2.05 Q33.65 0.5 34.2 0.4 L36.5 0.55 36.95 0.8 M31.6 6.05 L32.35 6.1 Q33.0 6.1 33.0 7.85 L33.0 8.55 32.75 9.2 32.2 9.55 32.15 9.6 31.5 9.8 31.05 9.8 30.35 9.5 Q30.0 9.45 30.0 8.0 L30.05 7.0 Q30.1 6.6 30.4 6.35 30.65 6.05 31.05 6.05 L31.6 6.05 M27.4 2.7 L27.6 3.0 27.75 3.65 27.45 4.25 26.4 4.95 25.85 5.0 Q24.05 4.7 23.75 4.15 L23.55 3.8 23.5 3.4 23.55 2.95 Q23.6 2.55 23.9 2.3 24.15 2.05 24.55 2.05 L26.95 2.35 27.4 2.7 M-10.15 -81.95 L-9.65 -82.3 Q-7.9 -82.85 -6.45 -81.95 L-4.9 -80.3 -4.75 -79.75 Q-4.75 -79.4 -4.9 -79.1 L-4.95 -79.0 Q-5.3 -78.4 -6.05 -78.25 L-6.6 -78.3 -8.6 -78.85 -8.85 -79.0 Q-10.4 -79.9 -10.35 -81.35 L-10.15 -81.95" fill="#ffff00" fill-opacity="0.5019608" fill-rule="evenodd" stroke="none"/>
    <path d="M63.05 -93.85 Q63.05 -93.15 61.05 -91.4 59.15 -89.65 58.15 -89.35 L58.05 -89.9 Q58.65 -91.1 60.55 -92.9 L62.55 -94.6 Q63.05 -95.1 63.05 -93.85 M59.8 -57.85 L61.05 -57.6 Q61.05 -56.85 60.65 -56.5 L60.05 -56.5 Q59.8 -56.85 59.8 -57.85 M63.05 -51.25 Q63.05 -50.45 62.7 -50.15 L62.65 -50.1 62.55 -49.85 62.35 -49.85 61.9 -49.5 61.4 -49.6 61.3 -50.5 61.4 -51.3 Q61.65 -51.75 62.65 -52.0 63.05 -52.5 63.05 -51.25 M22.15 -96.15 L22.05 -95.5 21.0 -94.85 Q20.9 -94.7 20.75 -94.7 20.5 -94.7 20.5 -95.5 20.5 -97.65 21.75 -98.1 L22.1 -97.95 22.25 -97.15 22.15 -96.15 M19.75 -60.7 L19.8 -60.75 20.5 -61.0 Q20.35 -60.75 19.75 -60.7 M11.75 -61.25 L12.05 -60.0 11.9 -58.7 11.55 -57.75 Q10.3 -59.6 10.3 -60.75 10.3 -62.0 10.55 -61.85 L11.25 -61.85 11.75 -61.25 M34.55 -71.6 L34.85 -71.45 35.0 -70.65 Q35.0 -69.9 34.65 -69.7 L34.25 -69.35 33.75 -69.25 33.55 -69.45 33.5 -70.35 Q33.5 -71.15 33.85 -71.4 L34.55 -71.6 M27.25 -56.85 L27.95 -56.1 28.25 -55.35 27.75 -54.85 27.15 -55.7 Q26.65 -56.35 26.5 -56.85 L27.25 -56.85 M23.2 -50.1 Q23.05 -50.25 23.05 -51.0 23.05 -51.4 23.8 -51.75 L25.55 -52.1 25.8 -51.35 Q25.05 -49.8 23.55 -49.85 L23.2 -50.1 M28.25 -32.85 Q27.85 -34.35 26.85 -36.3 L24.55 -40.35 Q25.9 -41.05 27.55 -38.55 29.05 -36.25 29.05 -34.5 L28.9 -33.4 28.75 -33.0 28.25 -32.85 M18.85 -43.4 L19.0 -42.1 18.5 -39.7 Q18.0 -37.9 18.0 -36.85 L17.85 -33.6 18.05 -32.65 18.05 -31.9 18.0 -32.1 17.7 -31.95 18.25 -28.6 18.0 -28.35 Q17.7 -28.65 17.05 -30.8 L16.85 -31.5 16.5 -31.35 15.0 -31.35 14.2 -31.55 Q14.0 -31.75 14.0 -32.55 L14.15 -33.7 14.05 -37.1 13.55 -39.45 Q13.0 -41.0 13.0 -41.6 13.0 -42.6 15.0 -44.5 L18.25 -44.35 18.85 -43.4 M7.75 -48.85 L8.0 -48.1 7.25 -47.6 5.05 -48.0 4.25 -49.1 5.3 -49.25 7.75 -48.85 M7.25 -35.9 L6.0 -35.35 5.0 -35.45 3.8 -35.85 5.65 -36.5 8.05 -36.75 8.25 -36.35 Q8.15 -36.25 7.25 -35.9 M5.05 -27.1 Q3.75 -25.5 2.0 -25.5 L3.05 -27.0 5.05 -27.1 M27.05 -14.1 Q28.35 -11.95 28.95 -7.85 L29.8 -1.5 29.75 -0.9 Q29.55 -0.6 28.75 -0.6 L27.8 -0.7 27.8 -0.85 Q27.75 -5.9 26.75 -14.0 L27.05 -14.1 M49.75 -29.0 Q49.35 -28.15 49.0 -28.0 48.2 -28.4 47.25 -29.35 L47.9 -29.95 49.25 -30.1 49.75 -29.0 M73.75 -5.2 Q76.2 -6.25 77.55 -5.5 76.85 -5.05 74.0 -3.95 71.1 -2.8 70.65 -2.85 71.45 -4.2 73.75 -5.2 M70.3 2.0 L69.4 2.25 68.15 1.75 68.05 1.3 Q68.75 0.7 70.15 1.0 L70.55 1.3 70.3 2.0 M35.5 2.75 L34.5 2.6 34.25 2.25 Q34.45 1.4 34.65 1.3 L36.25 1.5 36.55 2.25 36.4 2.6 35.5 2.75 M31.9 7.0 L32.0 7.85 32.0 8.55 31.8 8.55 31.5 8.8 31.05 8.8 31.0 8.0 31.05 7.05 31.75 7.05 31.9 7.0 M26.0 4.0 L24.5 3.5 24.55 3.05 26.55 3.25 26.75 3.55 26.0 4.0 M-7.0 -81.1 L-5.75 -79.75 -5.8 -79.55 -6.25 -79.25 -8.35 -79.85 Q-9.35 -80.45 -9.35 -81.35 -8.05 -81.75 -7.0 -81.1 M-0.6 -26.35 L-0.6 -26.1 -1.85 -26.0 -2.1 -26.75 -2.0 -27.5 -1.25 -27.5 Q-0.6 -26.85 -0.6 -26.35" fill="#ffffff" fill-rule="evenodd" stroke="none"/>
  </g>
</svg>
