<?xml version="1.0" encoding="UTF-8" standalone="no"?>
<svg xmlns:ffdec="https://www.free-decompiler.com/flash" xmlns:xlink="http://www.w3.org/1999/xlink" ffdec:objectType="shape" height="103.5px" width="66.55px" xmlns="http://www.w3.org/2000/svg">
  <g transform="matrix(1.0, 0.0, 0.0, 1.0, 19.5, 104.85)">
    <path d="M33.55 -104.45 Q33.85 -104.15 34.0 -103.1 L34.0 -103.0 34.05 -102.4 33.9 -101.75 32.55 -100.85 32.0 -100.85 31.55 -101.15 Q31.15 -101.55 30.9 -102.3 L30.85 -102.65 30.6 -103.2 30.65 -103.8 Q31.05 -104.85 32.75 -104.85 L33.2 -104.75 33.55 -104.45 M37.55 -32.1 L38.2 -31.85 38.55 -31.3 40.05 -23.9 40.05 -23.6 39.8 -22.3 39.8 -22.35 Q39.7 -21.6 39.2 -21.15 L38.7 -20.85 38.15 -20.9 37.7 -21.3 Q36.6 -22.75 36.0 -28.95 L36.0 -29.05 36.2 -30.4 36.25 -31.1 Q36.25 -31.5 36.55 -31.8 36.85 -32.1 37.25 -32.1 L37.55 -32.1 M18.25 -13.1 L18.55 -13.1 19.2 -12.85 19.55 -12.3 Q20.05 -10.2 20.05 -6.5 L20.0 -3.05 19.8 -2.5 19.35 -2.15 17.75 -1.85 Q17.45 -1.85 17.2 -2.0 L16.8 -2.5 16.6 -3.05 16.55 -3.5 16.85 -7.8 17.25 -12.25 17.6 -12.85 18.25 -13.1 M31.2 -12.5 L31.55 -11.95 32.0 -8.35 31.95 -5.65 31.95 -5.55 30.45 -1.9 30.1 -1.5 29.55 -1.35 29.25 -1.35 Q28.95 -1.35 28.75 -1.5 L28.35 -1.9 28.25 -2.45 29.05 -11.75 Q29.05 -12.2 29.35 -12.45 29.65 -12.75 30.05 -12.75 L30.55 -12.75 31.2 -12.5 M47.05 -9.25 L46.95 -8.85 46.55 -8.1 46.2 -7.75 45.65 -7.6 Q45.4 -7.6 45.15 -7.75 44.1 -8.3 43.15 -9.8 42.95 -10.1 43.0 -10.5 L43.35 -11.1 44.0 -11.35 45.05 -11.5 45.5 -11.45 45.85 -11.2 47.0 -9.7 47.05 -9.25 M-18.5 -32.0 L-17.85 -32.25 -17.35 -32.25 -16.85 -32.1 -16.5 -31.75 Q-16.0 -31.1 -16.0 -29.35 -15.95 -27.85 -17.2 -26.25 L-17.8 -25.85 -18.55 -26.0 -18.75 -26.1 -19.3 -26.6 Q-19.5 -26.9 -19.5 -28.05 L-19.2 -29.95 -19.2 -30.0 -18.85 -31.35 -18.5 -32.0" fill="#ffff00" fill-opacity="0.5019608" fill-rule="evenodd" stroke="none"/>
    <path d="M33.0 -102.95 L33.05 -102.35 32.25 -101.85 31.85 -102.6 31.55 -103.35 Q31.8 -103.85 32.75 -103.85 L33.0 -102.95 M37.25 -31.1 L37.55 -31.1 39.05 -23.8 38.8 -22.5 Q38.75 -22.1 38.5 -21.85 37.55 -23.25 37.0 -29.05 37.0 -29.75 37.15 -30.25 L37.25 -31.1 M18.25 -12.1 L18.55 -12.1 Q19.05 -10.05 19.05 -6.5 L19.0 -3.1 17.75 -2.85 17.55 -3.4 17.85 -7.75 18.25 -12.1 M29.25 -2.35 L30.05 -11.75 30.55 -11.75 31.0 -8.35 30.95 -5.8 29.55 -2.35 29.25 -2.35 M45.65 -8.6 Q44.8 -9.1 44.0 -10.35 L45.15 -10.5 46.05 -9.35 45.65 -8.6 M-17.35 -31.25 Q-17.0 -30.7 -17.0 -29.35 -17.0 -28.15 -18.0 -26.85 L-18.4 -27.05 -18.5 -28.05 -18.25 -29.7 -17.85 -31.25 -17.35 -31.25" fill="#ffffff" fill-rule="evenodd" stroke="none"/>
  </g>
</svg>
