<?xml version="1.0" encoding="UTF-8" standalone="no"?>
<svg xmlns:ffdec="https://www.free-decompiler.com/flash" xmlns:xlink="http://www.w3.org/1999/xlink" ffdec:objectType="shape" height="114.6px" width="109.65px" xmlns="http://www.w3.org/2000/svg">
  <g transform="matrix(1.0, 0.0, 0.0, 1.0, 37.5, 109.85)">
    <path d="M70.25 -109.8 L70.75 -109.75 70.8 -109.75 71.35 -109.5 Q72.15 -108.95 72.15 -108.0 L72.05 -107.45 71.95 -107.3 71.85 -107.15 71.6 -106.9 71.55 -106.85 70.9 -106.55 70.45 -106.4 70.25 -106.4 Q69.65 -106.4 69.4 -106.6 L69.35 -106.6 Q68.6 -106.7 68.6 -108.15 68.6 -109.0 68.95 -109.35 69.4 -109.95 70.25 -109.8 M57.2 -86.0 Q56.6 -85.25 56.0 -85.25 L54.25 -85.4 Q53.8 -85.6 53.5 -86.35 L53.35 -87.15 Q53.35 -89.2 55.55 -89.2 57.75 -89.2 57.75 -87.45 57.75 -86.75 57.2 -86.0 M41.05 -65.95 L41.05 -65.9 41.1 -65.85 41.25 -65.45 41.25 -65.35 41.25 -64.65 41.1 -64.2 40.6 -63.55 39.9 -63.3 39.7 -63.25 39.35 -63.15 39.1 -63.15 38.9 -63.2 Q38.5 -63.2 38.2 -63.5 37.55 -63.75 37.55 -64.85 L37.8 -65.8 38.05 -66.25 Q38.3 -66.6 38.9 -66.6 L39.85 -66.65 40.5 -66.5 41.05 -65.95 M36.9 -85.55 Q37.9 -85.6 37.9 -83.9 37.9 -82.7 37.3 -82.4 L37.1 -82.25 36.75 -82.0 36.1 -81.75 35.85 -81.75 35.6 -81.85 35.25 -81.95 35.15 -82.0 34.9 -82.2 Q34.35 -82.45 34.25 -83.55 34.05 -84.15 34.7 -84.6 L35.1 -84.85 35.2 -85.0 Q35.35 -85.4 35.8 -85.6 L35.85 -85.6 36.35 -85.65 36.55 -85.65 36.75 -85.6 36.9 -85.55 M4.1 -77.35 L4.1 -77.4 Q4.25 -77.95 4.7 -78.1 L5.25 -78.25 6.0 -78.0 7.05 -77.3 7.25 -77.1 7.55 -76.75 7.55 -76.7 7.6 -76.35 7.55 -75.85 7.5 -75.75 7.45 -75.7 Q6.95 -74.55 6.35 -74.5 L5.55 -74.65 Q4.7 -74.85 4.05 -76.2 L3.9 -76.7 4.1 -77.35 M32.5 -69.75 Q33.25 -70.25 34.15 -70.1 34.6 -70.2 35.0 -69.75 L35.1 -69.7 35.15 -69.55 35.4 -69.15 35.4 -69.05 35.4 -68.85 35.4 -68.5 Q35.65 -67.65 34.5 -66.9 L34.0 -66.6 33.8 -66.45 33.75 -66.4 33.35 -66.3 33.1 -66.3 33.0 -66.3 32.9 -66.35 32.85 -66.35 32.3 -66.5 Q31.45 -66.85 31.45 -68.0 31.45 -69.1 32.45 -69.7 L32.45 -69.75 32.5 -69.75 M21.9 -41.4 L21.9 -41.3 22.15 -40.2 22.3 -39.55 22.35 -38.4 22.9 -31.9 23.2 -27.7 23.9 -28.35 Q26.15 -30.4 27.4 -29.75 L28.05 -29.25 28.05 -29.1 28.1 -29.05 28.1 -29.0 28.15 -28.45 28.15 -28.3 28.15 -28.2 27.95 -27.8 27.9 -27.75 27.8 -27.65 27.8 -27.6 26.5 -26.1 26.9 -25.85 27.0 -25.7 27.4 -25.15 27.4 -24.4 27.4 -24.35 27.2 -24.1 27.05 -23.95 27.05 -23.9 26.95 -23.8 23.95 -21.3 Q23.05 -20.55 22.9 -19.9 L23.35 -18.75 23.35 -18.0 23.3 -17.9 23.3 -17.8 23.1 -17.55 Q23.4 -17.0 24.55 -16.1 L27.45 -13.85 27.9 -13.35 27.95 -13.15 28.0 -12.75 Q28.0 -11.4 26.9 -11.2 L26.1 -11.35 22.9 -12.9 Q21.35 -12.45 20.15 -11.6 19.25 -10.95 19.15 -10.25 L19.25 -9.9 19.35 -9.65 19.75 -9.05 Q20.95 -7.1 20.8 -6.5 L20.8 -6.3 20.8 -6.2 20.8 -6.15 Q20.7 -5.55 20.4 -5.35 20.0 -5.05 19.55 -5.05 19.15 -5.05 18.65 -5.45 L18.55 -5.6 18.45 -5.7 Q17.4 -6.95 16.05 -9.55 L16.05 -9.6 16.0 -9.65 13.8 -13.4 13.75 -13.5 13.55 -14.15 13.6 -14.6 13.85 -15.85 Q13.85 -16.9 14.15 -18.55 L13.95 -19.2 13.8 -19.4 Q12.85 -20.4 12.85 -21.3 L12.65 -22.95 12.55 -24.45 12.55 -24.55 12.6 -25.45 12.6 -25.5 12.6 -25.9 Q12.6 -28.5 13.0 -31.1 13.4 -33.7 13.4 -36.65 L13.65 -37.4 Q13.9 -37.8 14.4 -37.85 L14.6 -37.9 15.3 -37.9 15.4 -37.9 16.05 -37.2 Q16.5 -36.15 16.5 -34.3 L16.4 -32.7 16.75 -31.8 16.75 -31.7 Q16.95 -31.35 17.6 -31.1 18.75 -32.85 19.0 -35.45 L18.95 -40.45 18.95 -40.55 Q18.95 -42.05 20.15 -42.25 L20.25 -42.25 21.3 -42.2 21.3 -42.15 21.9 -41.4 M4.9 -4.95 L5.35 -4.5 4.85 -2.3 Q4.15 -0.5 3.25 0.0 L2.0 -0.15 Q1.35 -0.95 1.35 -1.65 1.35 -3.0 1.5 -3.55 1.85 -4.65 3.0 -5.3 L4.9 -4.95 M25.15 -3.3 Q25.5 -3.95 26.25 -3.8 L26.35 -3.8 27.0 -3.65 27.25 -3.55 Q28.55 -2.4 28.4 -1.35 L28.35 -0.35 28.3 0.1 28.2 0.3 Q28.0 0.8 26.85 1.05 L26.05 1.0 26.0 0.95 25.4 0.3 25.35 0.25 Q24.85 -0.95 24.85 -2.15 24.85 -3.0 25.2 -3.3 L25.15 -3.3 M48.25 -20.75 Q48.9 -20.3 48.9 -19.25 L48.9 -19.15 48.85 -18.55 48.8 -18.2 48.7 -17.95 Q48.5 -17.45 47.35 -17.2 L46.55 -17.25 46.5 -17.3 46.45 -17.3 46.15 -17.55 Q45.75 -17.75 45.5 -19.6 L45.4 -19.8 Q45.4 -20.15 45.55 -20.35 45.65 -20.75 46.05 -20.95 L46.65 -21.15 48.05 -20.95 48.25 -20.75 M43.0 -13.1 Q44.15 -12.15 44.0 -11.0 44.0 -10.05 43.25 -9.3 42.85 -8.9 42.4 -8.9 L42.35 -8.9 Q41.45 -8.9 41.0 -9.45 40.5 -9.95 40.5 -10.9 40.5 -12.5 41.3 -13.1 L42.1 -13.4 42.85 -13.15 43.0 -13.1 M45.6 3.7 L45.5 3.9 45.2 4.25 45.15 4.3 44.75 4.55 44.6 4.65 44.0 4.75 43.45 4.6 Q42.7 4.3 42.25 2.45 L42.25 2.5 42.15 1.8 Q42.25 1.25 42.7 1.05 L42.7 1.1 43.05 0.85 43.15 0.85 43.25 0.85 Q44.4 0.65 45.1 1.5 L45.15 1.55 Q45.6 2.05 45.65 3.2 L45.65 3.25 45.6 3.7 M-36.8 -87.45 Q-36.0 -88.15 -34.5 -87.8 L-34.4 -87.8 -33.75 -87.35 -33.7 -87.3 -33.6 -87.25 Q-33.0 -86.25 -33.15 -85.7 L-33.25 -85.2 -33.4 -85.05 -33.6 -84.85 -33.7 -84.75 -33.75 -84.7 Q-34.65 -84.25 -35.35 -84.25 L-35.8 -84.25 Q-36.15 -84.25 -36.45 -84.5 L-36.7 -84.65 -36.8 -84.75 -36.8 -84.8 Q-37.5 -85.3 -37.5 -86.4 L-37.35 -87.0 -36.8 -87.45 M-16.25 -26.4 Q-17.2 -26.45 -17.3 -28.0 -17.4 -29.0 -16.2 -29.7 -15.65 -30.1 -14.9 -30.25 L-13.95 -30.05 -13.45 -29.55 -13.4 -29.45 -13.3 -29.2 -13.3 -29.1 -13.3 -28.9 -13.3 -28.7 Q-13.25 -28.45 -13.45 -28.1 L-13.5 -28.0 -13.9 -27.5 Q-14.0 -27.1 -14.35 -27.0 -14.7 -26.75 -15.25 -26.55 L-15.45 -26.45 -15.85 -26.35 -16.25 -26.4 M-13.8 -0.3 L-13.55 0.0 -13.5 0.05 Q-13.25 0.5 -13.4 0.95 -13.85 3.4 -15.05 4.15 -15.35 4.4 -15.75 4.4 L-16.3 4.25 -16.65 4.05 Q-17.3 3.9 -17.3 2.5 -17.3 1.85 -16.7 0.85 L-16.7 0.9 Q-16.0 -0.5 -14.75 -0.6 L-14.0 -0.45 -13.8 -0.3" fill="#ffff00" fill-opacity="0.5019608" fill-rule="evenodd" stroke="none"/>
    <path d="M69.35 -108.15 Q69.35 -109.15 70.1 -109.05 L70.7 -109.0 70.9 -108.9 Q71.4 -108.55 71.4 -108.0 L71.35 -107.75 71.2 -107.55 70.45 -107.15 70.25 -107.15 69.7 -107.25 69.55 -107.35 Q69.35 -107.4 69.35 -108.15 M56.15 -86.75 L55.3 -86.1 Q55.2 -86.0 55.05 -86.0 L54.75 -86.05 54.25 -86.35 54.05 -86.65 54.1 -87.05 Q54.8 -88.25 55.25 -88.15 L55.45 -88.1 56.25 -87.45 56.35 -87.05 56.15 -86.75 M40.5 -64.85 L40.35 -64.4 40.15 -64.15 39.85 -64.05 39.35 -63.9 39.1 -63.9 38.9 -63.95 38.55 -64.1 Q38.3 -64.25 38.3 -64.85 L38.45 -65.5 38.6 -65.75 38.9 -65.85 39.85 -65.9 40.15 -65.8 40.35 -65.55 40.5 -65.15 40.5 -64.85 M35.85 -84.65 L36.05 -84.85 36.35 -84.9 36.55 -84.85 36.8 -84.8 Q37.15 -84.75 37.15 -83.9 37.15 -83.15 36.85 -83.05 L36.7 -82.9 36.3 -82.6 36.1 -82.5 35.85 -82.5 35.45 -82.65 35.25 -82.8 Q35.0 -82.95 35.0 -83.65 34.85 -84.05 35.8 -84.25 L35.75 -84.4 35.85 -84.65 M4.65 -76.7 L4.7 -76.9 4.8 -77.15 5.0 -77.4 5.25 -77.5 5.55 -77.4 6.65 -76.65 6.85 -76.35 6.8 -76.05 Q6.45 -75.3 6.15 -75.25 L5.8 -75.3 Q5.2 -75.5 4.7 -76.5 L4.65 -76.7 M34.05 -69.35 L34.5 -69.15 34.65 -68.85 34.65 -68.4 Q34.75 -67.95 34.05 -67.5 L33.55 -67.2 33.35 -67.05 33.1 -67.05 32.85 -67.1 32.6 -67.15 Q32.2 -67.35 32.2 -68.0 32.2 -68.7 32.85 -69.1 L34.05 -69.35 M21.4 -40.0 L21.55 -39.4 21.6 -38.3 22.15 -31.85 22.5 -26.15 24.35 -27.75 Q26.2 -29.4 27.05 -29.0 L27.35 -28.8 27.4 -28.45 27.25 -28.15 Q26.4 -27.4 25.5 -25.95 L25.5 -25.9 24.6 -24.5 24.8 -24.65 25.7 -25.35 26.05 -25.45 26.35 -25.3 26.5 -25.15 26.65 -24.9 26.65 -24.6 26.45 -24.4 23.4 -21.85 Q22.15 -20.75 22.05 -19.75 L22.6 -18.5 22.6 -18.2 22.4 -17.9 22.25 -17.85 22.25 -17.75 Q22.3 -16.9 24.0 -15.5 25.05 -14.65 27.05 -13.15 L27.2 -12.95 27.25 -12.75 Q27.25 -12.05 26.75 -11.95 L26.4 -12.0 22.95 -13.65 Q21.05 -13.2 19.7 -12.2 18.45 -11.25 18.4 -10.25 L18.6 -9.5 18.6 -9.45 19.05 -8.65 Q20.1 -7.0 20.05 -6.6 L20.05 -6.3 19.9 -6.0 Q19.55 -5.6 19.15 -6.0 L19.05 -6.1 Q18.05 -7.3 16.65 -9.95 L14.4 -13.85 14.3 -14.15 14.35 -14.45 14.6 -15.75 Q14.6 -16.85 14.9 -18.55 L14.9 -18.6 14.6 -19.6 14.4 -19.8 14.35 -19.85 Q13.6 -20.7 13.6 -21.35 L13.4 -22.95 13.3 -24.5 13.3 -24.55 13.35 -25.35 13.35 -25.9 Q13.35 -28.4 13.75 -30.95 14.15 -33.6 14.15 -36.65 L14.25 -36.95 14.55 -37.1 14.75 -37.15 15.1 -37.15 15.3 -36.9 Q15.75 -36.0 15.75 -34.3 L15.65 -32.7 16.0 -31.5 Q16.25 -30.7 17.5 -30.35 L17.95 -30.35 Q19.4 -32.25 19.75 -35.35 L19.7 -40.5 19.7 -40.55 Q19.7 -41.35 20.3 -41.5 L20.35 -41.5 20.55 -41.55 20.9 -41.5 21.15 -41.2 21.4 -40.0 M4.05 -4.15 L4.15 -3.5 Q4.15 -2.25 3.6 -1.05 L3.45 -0.9 Q3.35 -0.8 3.25 -0.8 L2.95 -0.75 2.65 -0.8 2.4 -1.0 2.3 -1.2 Q2.1 -1.45 2.1 -2.05 L2.45 -2.95 2.45 -3.0 3.1 -4.05 3.2 -4.2 Q3.35 -4.45 3.55 -4.4 L4.05 -4.15 M27.65 -1.35 L27.6 -0.35 27.55 -0.1 Q27.4 0.2 26.6 0.35 L26.3 0.3 26.05 0.05 Q25.6 -1.0 25.6 -2.15 25.6 -3.2 26.15 -3.05 L26.25 -3.05 26.35 -3.05 26.7 -2.95 Q27.7 -2.1 27.65 -1.35 M47.65 -20.2 Q48.15 -19.95 48.15 -19.25 L48.15 -19.2 48.1 -18.6 48.05 -18.35 Q47.9 -18.05 47.1 -17.9 L46.85 -17.9 46.6 -18.1 Q46.4 -18.3 46.15 -19.8 L46.2 -20.1 46.4 -20.3 46.65 -20.4 47.65 -20.25 47.65 -20.2 M42.1 -12.65 L42.45 -12.5 Q43.3 -11.8 43.25 -11.0 43.25 -10.35 42.7 -9.8 42.55 -9.65 42.35 -9.65 41.25 -9.6 41.25 -10.9 41.25 -12.05 41.75 -12.5 L42.1 -12.65 M44.5 2.0 Q44.85 2.35 44.9 3.25 L44.85 3.5 44.7 3.7 44.3 3.95 44.0 4.0 43.75 3.95 Q43.3 3.7 42.9 2.25 L42.9 1.95 43.05 1.75 43.3 1.6 Q44.05 1.5 44.5 2.0 M-34.3 -86.8 Q-33.85 -86.1 -33.9 -85.8 L-33.95 -85.55 -34.15 -85.35 Q-34.8 -85.0 -35.35 -85.0 L-35.8 -85.0 -36.15 -85.15 -36.25 -85.2 -36.35 -85.3 Q-36.75 -85.65 -36.75 -86.4 L-36.7 -86.65 -36.5 -86.8 -34.65 -87.05 -34.3 -86.8 M-15.85 -29.05 L-14.75 -29.5 -14.4 -29.45 -14.15 -29.15 -14.05 -28.9 -14.05 -28.7 -14.15 -28.45 -14.65 -27.75 -14.7 -27.7 Q-15.0 -27.4 -15.65 -27.2 L-15.85 -27.1 -16.15 -27.15 Q-16.55 -27.2 -16.55 -28.05 -16.6 -28.6 -15.85 -29.05 M-14.4 0.2 L-14.2 0.45 -14.15 0.75 Q-14.55 2.9 -15.5 3.55 L-15.75 3.65 -16.0 3.6 Q-16.2 3.5 -16.35 3.35 -16.55 3.3 -16.55 2.5 L-16.1 1.25 Q-15.55 0.25 -14.7 0.15 L-14.4 0.2" fill="#ffffff" fill-rule="evenodd" stroke="none"/>
  </g>
</svg>
