<?xml version="1.0" encoding="UTF-8" standalone="no"?>
<svg xmlns:ffdec="https://www.free-decompiler.com/flash" xmlns:xlink="http://www.w3.org/1999/xlink" ffdec:objectType="shape" height="90.7px" width="49.8px" xmlns="http://www.w3.org/2000/svg">
  <g transform="matrix(1.0, 0.0, 0.0, 1.0, -2.65, 81.4)">
    <path d="M23.5 -77.6 L23.8 -77.25 23.85 -77.1 23.9 -77.05 24.0 -76.75 24.0 -76.65 24.0 -76.5 24.0 -76.2 23.95 -75.9 23.75 -75.6 23.7 -75.5 Q22.5 -74.25 16.6 -71.15 L17.8 -69.95 17.95 -70.25 Q18.2 -70.75 18.75 -70.85 L18.85 -70.85 Q23.45 -72.6 24.5 -71.2 L24.55 -71.15 24.65 -71.05 24.8 -70.3 24.65 -69.6 24.55 -69.5 Q23.7 -68.5 21.4 -68.2 L20.25 -68.15 23.0 -66.4 23.05 -66.35 24.5 -65.65 24.8 -65.5 26.95 -64.1 27.0 -64.05 27.05 -64.0 27.5 -63.5 27.8 -62.95 Q27.95 -62.6 27.7 -62.1 L27.7 -62.0 27.55 -61.75 27.5 -61.7 26.95 -61.2 26.85 -61.15 26.75 -61.1 25.95 -61.2 25.9 -61.25 21.4 -63.65 21.3 -63.6 20.95 -63.3 20.55 -63.2 20.3 -63.2 20.2 -63.2 Q19.55 -63.35 19.25 -63.55 L18.5 -63.6 18.4 -63.55 18.35 -63.2 18.75 -61.95 18.8 -61.65 18.8 -61.4 18.75 -60.95 18.7 -60.85 18.7 -60.75 18.6 -60.6 18.55 -60.6 18.45 -60.5 18.1 -60.2 17.95 -60.1 17.8 -60.05 Q18.25 -58.1 20.85 -52.05 L24.8 -42.95 24.8 -42.85 24.8 -42.15 24.8 -42.1 Q24.5 -41.4 23.8 -41.15 L23.65 -41.05 22.9 -41.1 22.75 -41.2 22.25 -41.65 22.25 -41.7 18.9 -46.95 19.25 -44.8 19.4 -43.9 20.1 -43.85 20.75 -43.35 20.7 -43.35 Q22.05 -41.5 23.55 -37.7 L23.55 -37.6 23.55 -37.4 23.55 -37.2 23.55 -37.1 Q23.4 -35.9 22.35 -35.6 L22.05 -35.5 21.75 -35.5 21.35 -35.65 21.05 -35.9 20.95 -36.0 20.9 -36.05 20.75 -36.3 21.5 -31.85 23.75 -18.7 Q23.9 -18.25 23.65 -17.85 L23.0 -17.35 22.75 -17.25 22.85 -16.7 23.25 -15.2 23.3 -14.9 23.8 -13.65 23.8 -13.6 23.9 -13.5 24.6 -11.8 24.6 -11.7 24.6 -11.5 Q24.8 -10.5 23.7 -10.1 L23.65 -10.05 23.35 -10.0 23.1 -10.0 22.9 -10.05 22.85 -10.1 22.35 -10.35 22.3 -10.45 22.25 -10.5 Q21.2 -11.8 20.25 -13.65 L20.2 -13.75 19.25 -15.5 18.85 -15.65 18.9 -15.1 Q19.25 -12.85 19.7 -11.45 L19.7 -11.4 19.6 -10.55 19.55 -10.4 19.0 -9.9 18.9 -9.85 18.8 -9.8 18.0 -9.9 17.95 -9.95 17.8 -10.0 17.55 -9.8 17.45 -9.75 17.4 -9.7 17.3 -9.65 17.15 -9.6 16.65 -9.5 16.3 -9.55 Q15.1 -9.75 15.25 -11.55 L15.3 -12.1 15.1 -13.6 Q14.8 -15.65 14.85 -16.85 L14.85 -16.9 14.8 -18.35 14.75 -18.4 Q14.25 -18.65 14.15 -19.15 L13.15 -23.7 12.35 -28.1 11.35 -33.55 11.25 -33.75 11.05 -35.9 10.95 -36.0 Q9.8 -37.05 9.8 -38.95 9.8 -40.2 10.15 -41.0 L10.1 -41.15 10.0 -41.2 9.9 -41.3 Q9.5 -41.65 9.5 -42.1 L9.45 -42.7 9.45 -42.8 9.7 -43.75 9.6 -43.9 9.6 -43.95 8.85 -47.6 8.75 -47.7 8.3 -50.75 8.15 -51.25 8.2 -51.25 7.65 -53.1 7.5 -53.35 7.4 -53.7 7.4 -53.8 7.2 -56.3 7.4 -60.75 7.35 -62.55 7.2 -63.0 Q6.5 -63.95 6.35 -64.55 L6.25 -64.7 Q5.8 -65.9 5.8 -67.95 L6.0 -69.3 5.95 -69.55 Q5.85 -71.45 10.6 -76.3 L10.6 -76.35 15.2 -80.85 15.25 -80.85 Q15.6 -81.35 16.0 -81.3 16.85 -81.6 17.35 -80.7 L17.5 -79.8 17.5 -79.75 Q17.5 -79.15 16.0 -77.05 L15.95 -77.0 15.9 -76.95 Q14.9 -75.65 14.85 -74.6 14.85 -74.05 15.1 -73.4 L18.3 -75.85 Q21.15 -78.1 22.75 -77.9 L22.8 -77.9 Q23.2 -77.9 23.5 -77.6 M19.25 -60.6 L19.75 -60.7 19.95 -60.7 20.1 -60.7 20.5 -60.4 20.6 -60.3 22.95 -58.35 23.0 -58.35 Q25.15 -56.5 25.1 -55.4 L25.1 -55.35 25.1 -55.2 25.1 -55.1 25.1 -55.05 25.05 -54.9 Q25.2 -54.25 24.65 -53.85 24.3 -53.55 23.6 -53.55 22.7 -53.35 20.7 -55.8 19.15 -57.55 18.5 -58.8 L18.5 -58.75 18.25 -59.4 Q18.25 -60.0 18.6 -60.25 L19.15 -60.6 19.25 -60.6 M18.5 -25.25 Q17.95 -26.0 17.7 -26.8 L17.6 -27.05 17.55 -27.3 17.55 -25.6 17.6 -25.3 17.5 -24.8 17.4 -24.65 17.3 -24.45 16.9 -23.65 16.8 -22.25 17.05 -21.4 17.05 -21.35 17.1 -21.1 17.45 -20.0 17.95 -19.7 Q18.4 -19.45 18.4 -18.9 L18.4 -18.85 19.1 -20.8 Q19.2 -21.25 19.65 -21.45 L19.7 -21.45 19.75 -22.2 19.8 -22.75 19.15 -24.8 18.5 -25.25 M19.95 -1.85 Q20.0 -2.25 20.3 -2.45 20.6 -2.8 21.1 -2.8 L21.25 -2.8 22.0 -2.55 22.15 -2.5 Q22.65 -2.05 22.95 -1.0 L23.05 -0.65 23.45 0.75 23.45 0.7 23.4 1.6 23.4 1.55 Q23.25 2.3 22.05 2.4 21.25 2.55 20.75 1.95 20.25 1.45 20.05 0.3 L19.95 0.2 19.8 -1.1 19.8 -1.15 19.8 -1.25 19.8 -1.35 19.8 -1.4 19.85 -1.75 19.95 -1.85 M31.6 -23.25 L32.7 -23.5 Q34.25 -23.5 34.65 -22.3 L34.65 -21.55 34.5 -21.2 34.4 -21.05 Q33.7 -20.1 31.75 -20.1 30.25 -20.1 30.05 -21.0 L29.9 -21.75 Q29.85 -22.7 31.5 -23.25 L31.6 -23.25 M32.35 -18.95 L32.45 -18.95 Q34.75 -18.9 35.4 -18.1 L35.45 -18.0 35.7 -17.5 35.7 -17.55 Q35.85 -17.15 35.6 -16.65 L35.5 -16.5 35.4 -16.35 35.3 -16.25 Q34.65 -15.45 33.7 -15.6 L28.75 -16.05 Q28.25 -16.1 27.95 -16.5 L27.9 -16.5 27.6 -17.3 Q27.6 -17.8 27.95 -18.15 28.2 -18.65 29.5 -18.9 L29.55 -18.9 29.7 -18.9 30.75 -19.0 31.15 -18.95 32.35 -18.95 M29.85 -7.3 L29.9 -7.2 Q31.95 -5.75 31.7 -4.95 L31.7 -4.9 31.7 -4.75 31.7 -4.7 31.6 -4.4 31.5 -4.2 31.1 -3.7 31.0 -3.65 30.8 -3.55 30.2 -3.4 Q29.9 -3.4 29.65 -3.55 L27.9 -4.75 27.7 -4.95 26.6 -6.05 Q26.15 -6.4 26.15 -6.95 26.15 -7.55 26.5 -7.8 L27.0 -8.15 Q28.0 -8.7 29.8 -7.3 L29.85 -7.3 M27.8 -1.55 Q28.25 -1.55 28.55 -1.25 L28.9 -0.9 28.95 -0.8 29.7 1.85 29.7 1.95 29.7 2.05 29.7 2.1 29.65 2.35 29.65 2.45 29.3 2.95 28.95 3.25 28.85 3.3 28.8 3.35 28.4 3.45 28.3 3.45 28.15 3.45 27.85 3.45 27.6 3.35 27.4 3.3 27.3 3.25 26.7 2.6 26.65 2.55 Q26.35 2.05 26.3 1.3 L26.2 0.45 26.2 0.35 Q26.2 -1.05 27.25 -1.45 L27.3 -1.45 27.8 -1.55 M40.2 -10.6 L40.25 -10.6 40.25 -10.55 40.5 -10.45 40.6 -10.4 40.65 -10.4 Q41.35 -10.05 41.35 -8.95 L41.35 -8.85 41.3 -8.45 41.15 -7.85 41.1 -7.8 40.95 -7.65 40.9 -7.6 40.45 -7.35 40.3 -7.3 40.05 -7.25 40.0 -7.25 39.9 -7.25 39.8 -7.25 39.0 -7.35 39.0 -7.3 Q39.0 -6.65 38.6 -6.2 L37.85 -5.75 Q36.45 -5.75 35.25 -6.6 L35.2 -6.6 34.1 -7.7 32.9 -9.75 Q32.9 -10.4 33.5 -10.75 35.25 -11.25 37.2 -9.85 L37.4 -9.7 Q37.4 -10.1 37.75 -10.45 L38.15 -10.75 38.65 -11.0 39.45 -10.9 39.55 -10.85 39.6 -10.85 40.2 -10.6 M33.35 -8.75 L33.35 -8.85 33.45 -8.7 33.35 -8.75 M44.3 -27.75 L44.85 -27.65 44.9 -27.65 45.35 -27.5 45.9 -27.2 46.25 -26.85 46.3 -26.65 46.35 -26.55 46.35 -25.8 46.25 -25.6 45.9 -25.1 45.8 -25.0 45.7 -24.9 45.65 -24.85 44.6 -24.65 Q43.25 -24.65 42.9 -25.55 L42.7 -26.1 Q42.6 -26.75 42.95 -27.15 43.3 -27.6 44.15 -27.75 L44.2 -27.75 44.3 -27.75 M51.75 -12.5 L51.65 -12.4 51.6 -12.35 51.4 -12.25 51.0 -12.15 50.8 -12.15 50.75 -12.15 50.4 -12.2 50.3 -12.2 49.65 -12.6 49.6 -12.7 49.35 -12.95 49.25 -13.05 Q48.95 -13.4 48.95 -13.8 48.95 -15.55 50.7 -15.55 52.45 -15.55 52.45 -13.8 L52.45 -13.65 52.45 -13.55 52.45 -13.5 Q52.45 -13.1 51.75 -12.45 L51.75 -12.5 M15.2 3.2 L15.15 3.25 14.7 3.5 14.55 3.55 14.25 3.6 14.2 3.6 14.1 3.6 14.0 3.6 13.15 3.45 13.15 3.55 13.15 3.6 13.15 3.75 13.15 3.95 13.05 4.4 12.95 4.6 Q12.55 5.15 11.7 5.45 L11.65 5.5 11.35 5.55 11.15 5.55 11.1 5.55 Q10.1 5.35 9.85 4.95 L9.8 4.95 Q9.45 4.6 9.45 4.15 9.45 3.7 9.7 3.35 10.7 1.95 11.8 2.15 L12.25 2.25 12.25 1.95 Q12.3 1.1 12.65 0.75 13.1 0.0 14.05 0.15 14.8 0.1 15.2 0.55 15.6 0.95 15.6 1.85 L15.6 1.95 15.55 2.4 15.4 3.0 15.35 3.05 15.2 3.2 M10.7 6.1 Q11.2 6.1 11.6 6.45 L12.3 7.35 12.3 7.45 12.3 8.15 12.25 8.3 12.15 8.5 11.75 9.0 11.65 9.05 10.45 9.3 Q9.95 9.3 9.6 8.9 9.05 8.4 9.05 7.75 L9.05 7.6 9.1 7.2 9.2 7.05 9.55 6.45 Q9.85 6.1 10.35 6.1 L10.7 6.1 M7.35 2.15 L8.5 3.0 8.6 3.75 8.35 4.7 7.35 5.5 7.3 5.6 7.25 5.6 7.15 5.65 7.25 5.5 6.6 5.5 6.5 5.6 6.35 5.6 6.2 5.5 5.85 5.5 5.85 5.8 5.8 6.3 5.8 6.35 5.65 6.55 4.3 7.4 4.25 7.4 4.15 7.4 3.9 7.4 3.6 7.3 3.2 7.0 3.1 6.95 Q2.65 6.6 2.65 6.05 2.65 5.6 2.9 5.25 3.55 4.25 4.55 4.4 L4.6 4.4 4.7 4.4 4.6 3.85 Q4.6 2.8 5.75 2.1 L7.35 2.15" fill="#ffff00" fill-opacity="0.5019608" fill-rule="evenodd" stroke="none"/>
    <path d="M22.95 -77.05 L23.15 -76.8 23.25 -76.5 23.25 -76.2 23.1 -76.0 Q21.9 -74.75 15.65 -71.5 L15.35 -71.45 Q16.35 -70.1 18.15 -68.65 L22.55 -65.75 22.6 -65.7 22.65 -65.7 24.25 -64.9 24.3 -64.9 26.55 -63.4 26.8 -63.1 26.8 -63.05 26.85 -63.0 27.05 -62.7 27.0 -62.35 26.85 -62.1 26.55 -61.85 26.2 -61.9 Q23.25 -63.35 21.05 -64.7 L21.05 -64.6 20.9 -64.25 20.75 -64.1 20.55 -63.95 20.3 -63.95 Q19.7 -64.05 19.5 -64.3 L18.3 -64.35 17.65 -63.8 17.65 -63.85 17.6 -63.15 Q17.6 -62.6 18.05 -61.65 L18.05 -61.4 18.0 -61.15 17.9 -61.0 17.65 -60.8 17.35 -60.8 17.05 -61.0 17.0 -61.05 16.9 -60.95 16.85 -60.7 Q16.85 -59.45 20.1 -51.75 L24.05 -42.65 24.05 -42.35 23.45 -41.8 23.1 -41.8 22.9 -42.0 18.25 -49.35 18.05 -49.65 18.0 -49.4 17.9 -48.35 18.1 -47.1 18.5 -44.65 20.75 -31.7 23.0 -18.55 22.95 -18.25 22.7 -18.05 22.4 -18.0 22.15 -18.15 21.8 -18.6 21.8 -18.2 22.1 -16.55 22.55 -14.85 22.55 -14.8 23.15 -13.2 23.85 -11.5 23.85 -11.4 Q23.9 -10.95 23.35 -10.75 L23.1 -10.75 22.85 -10.9 Q21.8 -12.15 20.9 -13.95 L19.7 -16.2 19.45 -16.2 19.1 -16.3 18.95 -16.65 18.9 -17.3 18.9 -17.35 Q18.9 -18.3 19.75 -20.5 L20.0 -20.8 20.35 -20.8 20.5 -22.1 20.55 -22.8 19.6 -25.5 19.4 -25.5 Q19.2 -25.5 19.1 -25.65 18.55 -26.3 18.35 -27.15 L18.3 -27.2 18.0 -28.55 17.05 -30.6 16.8 -30.3 16.8 -25.4 16.85 -25.3 16.8 -25.1 16.7 -24.9 16.15 -23.8 16.05 -22.15 Q16.1 -21.65 16.3 -21.1 L16.35 -21.0 16.8 -19.55 16.8 -19.5 16.9 -19.15 17.15 -19.25 17.5 -19.1 17.65 -18.8 18.15 -14.95 Q18.5 -12.65 18.95 -11.2 L18.9 -10.8 18.6 -10.55 18.25 -10.6 17.35 -11.2 17.25 -10.65 17.15 -10.45 17.0 -10.35 16.9 -10.3 16.65 -10.25 16.45 -10.3 Q15.9 -10.45 16.0 -11.45 L16.05 -12.2 15.85 -13.7 Q15.55 -15.65 15.6 -16.8 L15.4 -18.9 Q15.2 -18.9 15.1 -19.0 L14.85 -19.3 13.85 -23.85 13.05 -28.25 12.0 -33.75 12.0 -33.8 11.7 -36.35 11.45 -36.5 Q10.55 -37.35 10.55 -38.95 10.55 -40.2 10.9 -40.9 L10.75 -41.7 10.4 -41.8 10.25 -42.15 10.2 -42.75 10.2 -42.8 10.4 -43.55 10.3 -43.95 10.35 -43.9 9.5 -47.8 9.0 -50.95 8.9 -51.4 8.3 -53.35 8.2 -53.65 8.15 -53.7 8.15 -53.85 7.95 -56.3 8.15 -60.65 8.1 -62.65 7.85 -63.35 Q7.05 -64.45 6.95 -64.95 L6.95 -64.9 Q6.55 -66.0 6.55 -67.95 L6.75 -69.3 6.7 -69.55 Q6.65 -71.2 11.1 -75.8 L15.7 -80.3 16.05 -80.55 Q16.45 -80.7 16.65 -80.25 L16.75 -79.7 15.35 -77.5 Q14.1 -75.85 14.1 -74.6 14.1 -73.45 14.85 -72.2 L14.85 -72.25 15.05 -72.45 18.75 -75.25 Q21.3 -77.25 22.7 -77.15 L22.95 -77.05 M18.6 -69.5 L18.6 -69.85 18.9 -70.1 Q23.1 -71.7 23.95 -70.65 L24.05 -70.3 23.95 -69.95 Q23.25 -69.15 21.3 -68.95 L19.4 -68.9 19.1 -69.0 18.75 -69.25 18.6 -69.5 M19.75 -59.95 L20.0 -59.8 Q21.5 -58.5 22.45 -57.75 24.3 -56.2 24.35 -55.35 L24.35 -55.2 24.3 -54.9 24.3 -54.85 Q24.45 -54.3 23.5 -54.3 22.9 -54.2 21.2 -56.25 19.75 -57.95 19.1 -59.15 L19.0 -59.4 19.1 -59.7 19.35 -59.85 19.5 -59.9 19.75 -59.95 M22.8 -37.2 Q22.7 -36.45 22.05 -36.25 L21.75 -36.25 21.5 -36.45 Q20.55 -37.65 20.0 -39.5 L19.05 -42.45 19.05 -42.8 19.35 -43.05 19.5 -43.1 19.8 -43.1 20.05 -42.9 Q21.35 -41.1 22.8 -37.4 L22.8 -37.2 M31.75 -20.85 Q30.85 -20.85 30.7 -21.3 L30.65 -21.65 Q30.65 -22.15 31.7 -22.5 L32.7 -22.75 Q33.65 -22.75 33.9 -22.0 L33.9 -21.75 33.8 -21.5 Q33.25 -20.85 31.75 -20.85 M34.9 -16.95 L34.75 -16.75 34.7 -16.7 Q34.35 -16.25 33.8 -16.35 L28.8 -16.8 Q28.6 -16.8 28.5 -16.95 L28.35 -17.3 28.5 -17.65 29.65 -18.15 29.65 -18.1 30.75 -18.25 30.9 -18.2 32.35 -18.2 32.4 -18.2 Q34.3 -18.15 34.8 -17.6 L34.95 -17.3 34.9 -16.95 M29.25 -6.7 Q31.05 -5.5 30.95 -5.05 L30.95 -4.9 30.85 -4.6 30.6 -4.3 30.4 -4.2 30.2 -4.15 29.95 -4.2 28.3 -5.3 28.3 -5.35 27.05 -6.65 Q26.9 -6.75 26.9 -6.95 L27.0 -7.25 27.25 -7.45 Q27.95 -7.75 29.3 -6.7 L29.25 -6.7 M21.6 -1.9 Q22.05 -1.5 22.3 -0.5 L22.3 -0.55 22.7 0.95 22.65 1.3 Q22.55 1.65 21.9 1.65 21.05 1.75 20.7 0.1 L20.55 -1.15 20.55 -1.25 20.6 -1.6 20.8 -1.9 21.1 -2.05 21.25 -2.05 21.6 -1.9 M28.2 -0.5 L28.95 1.85 28.95 1.95 28.9 2.2 28.75 2.45 28.55 2.6 28.15 2.7 27.85 2.7 27.6 2.6 27.35 2.35 Q27.05 1.9 27.05 1.25 L26.95 0.4 26.95 0.35 Q26.95 -0.5 27.55 -0.75 L27.8 -0.8 28.05 -0.7 28.2 -0.5 M38.8 -10.25 L39.05 -10.2 39.35 -10.1 39.8 -9.95 39.95 -9.85 40.1 -9.75 40.25 -9.7 Q40.6 -9.5 40.6 -8.95 L40.6 -8.9 40.55 -8.5 40.45 -8.2 40.15 -8.05 39.9 -8.0 39.8 -8.0 Q38.9 -8.0 38.4 -8.65 38.1 -9.1 38.1 -9.55 L38.25 -9.9 38.55 -10.15 38.8 -10.25 M36.4 -9.1 Q37.7 -8.15 37.6 -7.5 L37.5 -7.2 36.9 -6.65 36.7 -6.6 36.5 -6.6 36.1 -6.75 35.8 -7.0 35.7 -7.3 35.65 -7.3 35.4 -7.45 33.95 -9.15 33.8 -9.45 33.9 -9.8 34.2 -9.95 34.55 -10.05 34.75 -10.1 34.95 -10.0 36.35 -9.1 36.4 -9.1 M45.55 -26.45 L45.6 -26.3 45.6 -26.0 45.35 -25.6 45.25 -25.5 44.6 -25.4 Q43.75 -25.4 43.55 -25.9 L43.45 -26.15 Q43.35 -26.8 44.3 -27.0 L44.55 -26.95 45.2 -26.75 45.4 -26.65 45.55 -26.45 M50.8 -12.9 L50.45 -12.95 Q50.25 -13.0 50.15 -13.1 L49.85 -13.45 49.7 -13.8 Q49.7 -14.8 50.7 -14.8 51.7 -14.8 51.7 -13.8 L51.7 -13.65 51.2 -13.0 51.0 -12.9 50.8 -12.9 M14.0 0.9 Q14.85 0.9 14.85 1.85 L14.85 1.9 14.8 2.35 14.7 2.65 14.4 2.8 14.1 2.85 14.0 2.85 Q12.9 2.85 13.0 2.0 13.0 1.45 13.25 1.25 13.45 0.85 13.95 0.9 L14.0 0.9 M12.05 3.05 L12.4 3.75 12.4 3.95 12.35 4.15 11.35 4.8 11.15 4.8 Q10.55 4.7 10.35 4.45 L10.2 4.15 10.3 3.8 Q11.0 2.85 11.7 2.9 11.9 2.9 12.05 3.05 M11.55 7.95 L11.5 8.1 11.25 8.4 10.45 8.55 10.1 8.4 Q9.8 8.1 9.8 7.75 L9.8 7.7 9.85 7.3 10.05 7.0 Q10.15 6.85 10.35 6.85 L10.7 6.85 11.05 7.0 11.55 7.65 11.55 7.95 M6.8 3.2 L7.6 3.9 7.6 4.05 Q7.6 4.7 6.95 4.95 L6.6 4.9 6.1 4.65 5.9 4.5 5.8 4.3 5.75 4.05 Q5.7 3.9 5.8 3.8 L5.95 3.55 Q6.1 3.45 6.1 3.65 L6.2 3.35 Q6.3 3.2 6.45 3.2 L6.8 3.2 M4.5 5.15 L4.75 5.2 4.95 5.4 5.05 5.55 5.1 5.8 5.05 6.1 4.15 6.65 3.9 6.65 3.7 6.5 3.55 6.35 3.4 6.05 3.5 5.7 Q3.9 5.1 4.5 5.15" fill="#ffffff" fill-rule="evenodd" stroke="none"/>
  </g>
</svg>
