<?xml version="1.0" encoding="UTF-8" standalone="no"?>
<svg xmlns:ffdec="https://www.free-decompiler.com/flash" xmlns:xlink="http://www.w3.org/1999/xlink" ffdec:objectType="shape" height="37.85px" width="44.15px" xmlns="http://www.w3.org/2000/svg">
  <g transform="matrix(1.0, 0.0, 0.0, 1.0, -1.85, -4.0)">
    <path d="M35.4 5.95 L36.45 7.25 36.6 7.55 Q36.8 7.85 36.8 9.3 36.8 11.7 34.35 14.0 33.65 14.65 32.65 14.85 L31.1 14.9 29.65 14.85 29.4 14.8 28.2 14.6 27.75 14.3 Q27.0 13.85 26.65 13.8 L26.5 13.75 25.8 13.05 25.7 12.9 Q25.35 12.35 25.15 11.6 L25.0 11.15 Q24.6 9.95 24.75 9.1 L24.7 8.15 Q25.0 6.95 25.7 6.1 26.4 5.2 27.6 4.7 29.1 4.0 30.9 4.0 L32.3 4.05 34.0 4.85 Q34.55 5.1 35.4 5.95 M29.15 4.5 L30.45 4.25 28.9 4.5 29.15 4.5 M25.8 12.25 L25.8 12.15 25.7 12.0 25.8 12.25" fill="url(#gradient0)" fill-rule="evenodd" stroke="none"/>
    <path d="M13.6 34.5 L13.75 35.7 Q13.75 37.3 12.1 38.85 L10.95 39.4 9.9 39.45 8.95 39.4 8.8 39.4 7.95 39.25 7.65 39.05 6.95 38.7 6.8 38.7 6.35 38.2 6.3 38.1 Q6.05 37.75 5.95 37.25 L5.85 36.95 Q5.55 36.15 5.65 35.55 L5.6 34.9 Q5.8 34.15 6.3 33.55 6.75 32.95 7.55 32.6 8.55 32.15 9.75 32.15 L10.7 32.2 11.85 32.7 12.8 33.45 13.5 34.35 13.6 34.5 M8.45 32.5 L8.6 32.5 9.5 32.35 8.45 32.5 M6.3 37.5 L6.35 37.7 6.35 37.6 6.3 37.5" fill="url(#gradient1)" fill-rule="evenodd" stroke="none"/>
    <path d="M36.7 34.5 Q36.9 34.8 36.9 36.25 36.9 38.65 34.45 40.95 33.75 41.6 32.75 41.8 L31.2 41.85 29.75 41.8 29.5 41.75 28.3 41.55 27.85 41.25 26.75 40.75 26.6 40.7 25.9 40.0 25.8 39.85 Q25.45 39.3 25.25 38.55 L25.1 38.1 Q24.7 36.9 24.85 36.05 L24.8 35.1 Q25.1 33.9 25.8 33.05 26.5 32.15 27.7 31.65 29.2 30.95 31.0 30.95 L32.4 31.0 34.1 31.8 35.5 32.9 36.55 34.2 36.7 34.5 M29.25 31.45 L30.55 31.2 29.0 31.45 29.25 31.45 M25.9 39.2 L25.9 39.1 25.8 38.95 25.9 39.2" fill="url(#gradient2)" fill-rule="evenodd" stroke="none"/>
    <path d="M9.05 16.1 L9.75 17.0 9.85 17.15 10.0 18.35 Q10.0 19.95 8.35 21.5 L7.2 22.05 6.15 22.1 5.2 22.05 5.05 22.05 4.2 21.9 3.9 21.7 3.2 21.35 3.05 21.35 2.6 20.85 2.55 20.75 Q2.3 20.4 2.2 19.9 L2.1 19.6 Q1.8 18.8 1.9 18.2 L1.85 17.55 Q2.05 16.8 2.55 16.2 3.0 15.6 3.8 15.25 4.8 14.8 6.0 14.8 L6.95 14.85 Q7.35 14.9 8.1 15.35 L9.05 16.1 M4.85 15.15 L5.75 15.0 4.7 15.15 4.85 15.15 M2.6 20.25 L2.55 20.15 2.6 20.35 2.6 20.25" fill="url(#gradient3)" fill-rule="evenodd" stroke="none"/>
    <path d="M45.85 17.15 L46.0 18.35 Q46.0 19.95 44.35 21.5 L43.2 22.05 42.15 22.1 41.2 22.05 41.05 22.05 40.2 21.9 39.9 21.7 39.2 21.35 39.05 21.35 38.6 20.85 38.55 20.75 38.2 19.9 38.1 19.6 Q37.8 18.8 37.9 18.2 L37.85 17.55 Q38.05 16.8 38.55 16.2 39.0 15.6 39.8 15.25 40.8 14.8 42.0 14.8 L42.95 14.85 Q43.35 14.9 44.1 15.35 L45.05 16.1 45.75 17.0 45.85 17.15 M41.75 15.0 L40.7 15.15 40.85 15.15 41.75 15.0 M38.6 20.25 L38.55 20.15 38.6 20.35 38.6 20.25" fill="url(#gradient4)" fill-rule="evenodd" stroke="none"/>
  </g>
  <defs>
    <radialGradient cx="0" cy="0" gradientTransform="matrix(0.0061, -4.0E-4, 4.0E-4, 0.0061, 30.75, 9.45)" gradientUnits="userSpaceOnUse" id="gradient0" r="819.2" spreadMethod="pad">
      <stop offset="0.0" stop-color="#ffffff"/>
      <stop offset="0.6392156862745098" stop-color="#fbefbf"/>
      <stop offset="1.0" stop-color="#f0cb2c" stop-opacity="0.0"/>
    </radialGradient>
    <radialGradient cx="0" cy="0" gradientTransform="matrix(0.0041, -2.0E-4, 2.0E-4, 0.0041, 9.7, 35.8)" gradientUnits="userSpaceOnUse" id="gradient1" r="819.2" spreadMethod="pad">
      <stop offset="0.0" stop-color="#ffffff"/>
      <stop offset="0.6392156862745098" stop-color="#fbefbf"/>
      <stop offset="1.0" stop-color="#f0cb2c" stop-opacity="0.0"/>
    </radialGradient>
    <radialGradient cx="0" cy="0" gradientTransform="matrix(0.0061, -4.0E-4, 4.0E-4, 0.0061, 30.85, 36.4)" gradientUnits="userSpaceOnUse" id="gradient2" r="819.2" spreadMethod="pad">
      <stop offset="0.0" stop-color="#ffffff"/>
      <stop offset="0.6392156862745098" stop-color="#fbefbf"/>
      <stop offset="1.0" stop-color="#f0cb2c" stop-opacity="0.0"/>
    </radialGradient>
    <radialGradient cx="0" cy="0" gradientTransform="matrix(0.0041, -2.0E-4, 2.0E-4, 0.0041, 5.95, 18.45)" gradientUnits="userSpaceOnUse" id="gradient3" r="819.2" spreadMethod="pad">
      <stop offset="0.0" stop-color="#ffffff"/>
      <stop offset="0.6392156862745098" stop-color="#fbefbf"/>
      <stop offset="1.0" stop-color="#f0cb2c" stop-opacity="0.0"/>
    </radialGradient>
    <radialGradient cx="0" cy="0" gradientTransform="matrix(0.0041, -2.0E-4, 2.0E-4, 0.0041, 41.95, 18.45)" gradientUnits="userSpaceOnUse" id="gradient4" r="819.2" spreadMethod="pad">
      <stop offset="0.0" stop-color="#ffffff"/>
      <stop offset="0.6392156862745098" stop-color="#fbefbf"/>
      <stop offset="1.0" stop-color="#f0cb2c" stop-opacity="0.0"/>
    </radialGradient>
  </defs>
</svg>
