<?xml version="1.0" encoding="UTF-8" standalone="no"?>
<svg xmlns:ffdec="https://www.free-decompiler.com/flash" xmlns:xlink="http://www.w3.org/1999/xlink" ffdec:objectType="shape" height="48.0px" width="48.0px" xmlns="http://www.w3.org/2000/svg">
  <g transform="matrix(1.0, 0.0, 0.0, 1.0, 0.0, 0.0)">
    <path d="M0.0 8.2 L0.0 7.9 0.2 5.75 0.0 8.2" fill="#553300" fill-rule="evenodd" stroke="none"/>
    <path d="M0.0 19.2 L0.0 17.45 Q4.05 16.65 6.65 15.6 L9.25 14.4 7.3 11.6 3.8 8.65 0.35 5.9 0.2 5.75 Q0.3 4.95 0.55 4.3 L0.85 4.5 2.5 5.7 2.55 5.75 5.3 8.0 6.5 9.05 10.6 8.65 10.65 8.2 9.0 5.75 6.4 2.35 Q10.75 4.7 13.45 6.8 14.95 7.95 15.65 7.95 L16.3 7.8 16.25 7.35 11.85 1.25 10.25 0.05 10.15 0.0 12.75 0.0 21.1 5.75 22.25 2.75 23.2 0.0 25.45 0.0 25.85 2.5 26.5 6.75 Q26.75 6.75 27.0 7.0 L27.75 7.25 Q30.45 7.25 36.55 4.15 L36.95 3.95 Q40.05 2.35 40.95 2.45 L43.25 1.45 41.25 3.05 39.25 4.3 Q31.25 7.9 31.0 8.4 31.65 9.15 29.75 11.4 38.45 13.2 41.85 13.45 L43.25 13.65 36.1 15.15 31.15 16.5 Q31.8 18.6 32.85 20.3 L33.75 21.85 Q33.75 22.8 32.6 22.05 L32.4 24.15 31.2 24.05 30.25 23.9 Q28.25 23.9 28.1 25.7 L28.15 28.1 26.2 26.6 Q25.3 25.95 23.95 25.95 23.4 25.95 22.9 27.15 22.35 28.45 22.4 30.1 22.2 31.85 21.4 33.65 L20.8 34.45 Q20.5 33.35 20.5 32.55 L20.55 29.9 Q20.9 27.0 20.05 24.9 19.3 23.0 18.25 23.0 16.7 23.0 15.05 26.0 12.1 31.45 10.2 33.9 10.05 34.0 10.0 33.5 L12.15 28.1 13.55 24.35 13.5 23.85 13.45 24.1 12.8 24.95 Q12.7 24.8 12.75 22.45 L12.8 17.75 9.4 17.7 Q2.6 17.7 0.0 19.2" fill="#ffffff" fill-rule="evenodd" stroke="none"/>
    <path d="M0.0 20.55 L0.0 19.2 Q2.6 17.7 9.4 17.7 L12.8 17.75 12.75 22.45 Q12.7 24.8 12.8 24.95 L13.45 24.1 13.5 23.85 13.55 24.35 12.15 28.1 10.0 33.5 Q10.05 34.0 10.2 33.9 12.1 31.45 15.05 26.0 16.7 23.0 18.25 23.0 19.3 23.0 20.05 24.9 20.9 27.0 20.55 29.9 L20.5 32.55 Q20.5 33.35 20.8 34.45 L21.4 33.65 Q22.2 31.85 22.4 30.1 22.35 28.45 22.9 27.15 23.4 25.95 23.95 25.95 25.3 25.95 26.2 26.6 L28.15 28.1 28.1 25.7 Q28.25 23.9 30.25 23.9 L31.2 24.05 32.4 24.15 32.6 22.05 Q33.75 22.8 33.75 21.85 L32.85 20.3 Q31.8 18.6 31.15 16.5 L36.1 15.15 43.25 13.65 41.85 13.45 Q38.45 13.2 29.75 11.4 31.65 9.15 31.0 8.4 31.25 7.9 39.25 4.3 L41.25 3.05 43.25 1.45 40.95 2.45 Q40.05 2.35 36.95 3.95 L36.55 4.15 Q30.45 7.25 27.75 7.25 L27.0 7.0 Q26.75 6.75 26.5 6.75 L25.85 2.5 25.45 0.0 28.3 0.0 28.2 2.2 Q28.2 3.0 29.5 3.4 L31.55 3.65 35.5 2.0 Q39.75 0.35 43.35 0.35 L44.35 0.7 Q44.0 1.95 40.2 4.75 36.2 7.65 35.35 9.5 36.1 10.05 40.7 11.2 44.7 12.2 45.75 13.85 42.85 15.9 40.0 17.35 37.45 18.65 36.0 19.0 L37.1 21.65 Q37.1 25.45 34.8 27.15 30.55 30.2 29.75 31.25 25.65 28.95 24.65 28.95 23.65 28.95 22.8 31.45 21.6 34.9 20.65 36.15 20.25 33.2 19.4 30.6 L18.15 26.5 18.0 26.2 Q16.8 28.2 13.15 32.35 L9.05 36.85 Q9.2 34.55 10.15 29.75 L11.05 25.35 Q11.05 21.05 9.45 20.65 L0.0 20.55 M0.0 17.45 L0.0 16.65 1.65 15.35 Q3.45 14.2 7.15 13.85 L7.5 13.25 Q3.25 9.0 1.7 8.2 1.15 8.2 0.75 7.55 0.35 6.85 0.35 5.9 L3.8 8.65 7.3 11.6 9.25 14.4 6.65 15.6 Q4.05 16.65 0.0 17.45 M12.75 0.0 L14.3 0.0 16.75 1.8 Q18.15 2.85 20.7 4.25 L22.4 0.0 23.2 0.0 22.25 2.75 21.1 5.75 12.75 0.0 M11.85 1.25 L16.25 7.35 16.3 7.8 15.65 7.95 Q14.95 7.95 13.45 6.8 10.75 4.7 6.4 2.35 L9.0 5.75 10.65 8.2 10.6 8.65 6.5 9.05 5.3 8.0 5.55 8.0 6.5 8.1 7.45 8.0 8.25 7.7 8.35 7.15 5.15 2.75 5.25 2.05 Q5.7 1.25 6.75 1.25 9.0 1.25 9.6 1.95 L11.95 4.45 12.35 4.15 12.75 3.65 11.85 1.25" fill="#e4ffee" fill-rule="evenodd" stroke="none"/>
    <path d="M0.0 21.65 L0.0 20.55 9.45 20.65 Q11.05 21.05 11.05 25.35 L10.15 29.75 Q9.2 34.55 9.05 36.85 L13.15 32.35 Q16.8 28.2 18.0 26.2 L18.15 26.5 19.4 30.6 Q20.25 33.2 20.65 36.15 21.6 34.9 22.8 31.45 23.65 28.95 24.65 28.95 25.65 28.95 29.75 31.25 30.55 30.2 34.8 27.15 37.1 25.45 37.1 21.65 L36.0 19.0 Q37.45 18.65 40.0 17.35 42.85 15.9 45.75 13.85 44.7 12.2 40.7 11.2 36.1 10.05 35.35 9.5 36.2 7.65 40.2 4.75 44.0 1.95 44.35 0.7 L45.35 1.25 40.9 6.95 43.9 10.2 46.9 13.25 Q46.9 15.45 43.45 18.35 39.45 21.65 38.5 24.3 37.65 26.65 35.25 29.45 32.55 32.5 30.75 32.5 L25.45 32.25 Q21.95 32.7 21.95 36.35 21.95 37.35 20.4 37.0 L19.45 34.15 Q18.85 32.2 16.55 32.2 13.5 32.2 11.95 34.3 L9.05 38.0 7.95 35.8 8.5 28.95 Q8.5 27.5 6.0 25.55 L0.0 21.65 M0.0 16.65 L0.0 15.4 2.3 13.35 Q3.0 12.45 3.0 11.95 2.45 9.35 1.7 8.2 3.25 9.0 7.5 13.25 L7.15 13.85 Q3.45 14.2 1.65 15.35 L0.0 16.65 M14.3 0.0 L17.1 0.0 19.75 1.85 20.85 0.0 22.4 0.0 20.7 4.25 Q18.15 2.85 16.75 1.8 L14.3 0.0 M28.3 0.0 L32.0 0.0 34.8 1.25 39.8 0.0 40.5 0.0 43.35 0.35 Q39.75 0.35 35.5 2.0 L31.55 3.65 29.5 3.4 Q28.2 3.0 28.2 2.2 L28.3 0.0 M10.25 0.05 L11.85 1.25 12.75 3.65 12.35 4.15 11.95 4.45 9.6 1.95 Q9.0 1.25 6.75 1.25 5.7 1.25 5.25 2.05 L5.15 2.75 8.35 7.15 8.25 7.7 7.45 8.0 6.5 8.1 5.55 8.0 5.3 8.0 2.55 5.75 2.5 5.7 0.85 4.5 1.4 4.4 1.2 3.8 1.25 3.65 4.65 6.1 5.25 5.35 5.35 4.55 4.3 2.95 4.55 0.75 8.2 0.35 10.25 0.05" fill="#a9ffb8" fill-rule="evenodd" stroke="none"/>
    <path d="M46.1 1.9 L45.8 2.5 43.25 6.55 Q43.25 7.45 45.45 10.05 47.6 12.65 47.6 13.5 47.6 14.9 45.9 17.2 43.1 20.9 42.2 22.5 37.15 31.35 31.4 33.95 29.25 34.9 25.35 34.9 L23.65 36.45 Q22.15 37.95 20.6 37.95 19.6 37.95 18.9 36.85 18.4 36.05 18.4 35.65 18.4 35.0 17.25 35.0 L15.3 35.05 Q15.1 35.05 12.4 36.55 L9.3 38.3 9.05 38.0 11.95 34.3 Q13.5 32.2 16.55 32.2 18.85 32.2 19.45 34.15 L20.4 37.0 Q21.95 37.35 21.95 36.35 21.95 32.7 25.45 32.25 L30.75 32.5 Q32.55 32.5 35.25 29.45 37.65 26.65 38.5 24.3 39.45 21.65 43.45 18.35 46.9 15.45 46.9 13.25 L43.9 10.2 40.9 6.95 45.35 1.25 46.1 1.9 M0.0 23.25 L0.0 21.65 6.0 25.55 Q8.5 27.5 8.5 28.95 L7.95 35.8 4.75 29.7 Q1.7 24.15 0.0 23.25 M0.0 15.4 L0.0 13.75 0.85 13.45 Q1.25 13.2 1.25 12.55 L0.9 10.6 0.0 8.5 0.0 8.2 0.2 5.75 0.35 5.9 Q0.35 6.85 0.75 7.55 1.15 8.2 1.7 8.2 2.45 9.35 3.0 11.95 3.0 12.45 2.3 13.35 L0.0 15.4 M0.55 4.3 Q1.95 0.0 7.5 0.0 L10.15 0.0 10.25 0.05 8.2 0.35 4.55 0.75 4.3 2.95 5.35 4.55 5.25 5.35 4.65 6.1 1.25 3.65 1.2 3.8 1.4 4.4 0.85 4.5 0.55 4.3 M17.1 0.0 L20.85 0.0 19.75 1.85 17.1 0.0 M32.0 0.0 L39.8 0.0 34.8 1.25 32.0 0.0" fill="#6eed82" fill-rule="evenodd" stroke="none"/>
    <path d="M45.8 2.5 L46.0 2.5 45.8 3.1 Q45.5 3.7 45.5 4.25 45.5 5.8 46.65 8.4 L48.0 11.25 48.0 14.4 Q43.35 24.95 39.4 29.8 33.35 37.3 25.65 37.3 24.4 37.3 22.4 38.2 L20.6 39.1 13.3 37.85 Q10.85 37.85 10.55 38.45 10.45 38.8 10.8 39.2 10.8 39.8 10.6 39.75 L9.65 39.5 Q8.45 39.5 7.75 38.5 5.2 34.85 0.45 29.75 L0.35 29.7 0.0 29.7 0.0 29.4 0.0 23.25 Q1.7 24.15 4.75 29.7 L7.95 35.8 9.05 38.0 9.3 38.3 12.4 36.55 Q15.1 35.05 15.3 35.05 L17.25 35.0 Q18.4 35.0 18.4 35.65 18.4 36.05 18.9 36.85 19.6 37.95 20.6 37.95 22.15 37.95 23.65 36.45 L25.35 34.9 Q29.25 34.9 31.4 33.95 37.15 31.35 42.2 22.5 43.1 20.9 45.9 17.2 47.6 14.9 47.6 13.5 47.6 12.65 45.45 10.05 43.25 7.45 43.25 6.55 L45.8 2.5 M0.0 13.75 L0.0 8.5 0.9 10.6 1.25 12.55 Q1.25 13.2 0.85 13.45 L0.0 13.75" fill="#35d24b" fill-rule="evenodd" stroke="none"/>
    <path d="M46.1 1.9 L47.05 3.2 Q47.6 4.3 47.85 5.8 L48.0 7.9 48.0 11.25 46.65 8.4 Q45.5 5.8 45.5 4.25 45.5 3.7 45.8 3.1 L46.0 2.5 45.8 2.5 46.1 1.9 M48.0 14.4 L48.0 27.3 Q47.05 28.8 41.05 33.85 35.6 38.95 32.55 40.2 27.6 42.25 16.3 42.25 7.7 42.25 0.0 33.0 L0.0 29.7 0.35 29.7 0.45 29.75 Q5.2 34.85 7.75 38.5 8.45 39.5 9.65 39.5 L10.6 39.75 Q10.8 39.8 10.8 39.2 10.45 38.8 10.55 38.45 10.85 37.85 13.3 37.85 L20.6 39.1 22.4 38.2 Q24.4 37.3 25.65 37.3 33.35 37.3 39.4 29.8 43.35 24.95 48.0 14.4" fill="#1eb536" fill-rule="evenodd" stroke="none"/>
    <path d="M48.0 31.05 L48.0 35.25 Q40.55 40.2 32.85 43.85 25.2 47.4 22.1 47.45 L21.15 47.5 Q14.05 48.3 9.0 45.5 3.7 41.8 0.0 40.2 L0.0 40.1 0.0 37.0 Q4.7 41.45 10.25 43.6 14.2 45.1 17.25 45.1 19.35 45.1 32.4 42.45 L33.05 42.15 48.0 31.05" fill="#218b30" fill-rule="evenodd" stroke="none"/>
    <path d="M48.0 27.3 L48.0 31.05 33.05 42.15 32.4 42.45 Q19.35 45.1 17.25 45.1 14.2 45.1 10.25 43.6 4.7 41.45 0.0 37.0 L0.0 33.0 Q7.7 42.25 16.3 42.25 27.6 42.25 32.55 40.2 35.6 38.95 41.05 33.85 47.05 28.8 48.0 27.3" fill="#1fa233" fill-rule="evenodd" stroke="none"/>
    <path d="M48.0 35.25 L48.0 39.25 Q46.15 40.3 34.85 47.45 L34.15 48.0 11.35 48.0 11.35 47.75 8.45 46.7 Q4.9 45.2 0.2 42.45 L0.0 40.2 Q3.7 41.8 9.0 45.5 14.05 48.3 21.15 47.5 L22.1 47.45 Q25.2 47.4 32.85 43.85 40.55 40.2 48.0 35.25" fill="#21712d" fill-rule="evenodd" stroke="none"/>
    <path d="M48.0 39.25 L48.0 40.1 Q48.0 45.3 44.75 47.1 43.05 48.0 40.5 48.0 L34.15 48.0 34.85 47.45 Q46.15 40.3 48.0 39.25 M11.35 48.0 L7.25 48.0 7.0 48.0 6.75 48.0 5.45 47.85 5.4 47.85 5.2 47.8 5.05 47.75 4.3 47.55 2.95 46.9 2.25 46.35 Q0.7 44.95 0.2 42.45 4.9 45.2 8.45 46.7 L11.35 47.75 11.35 48.0" fill="#23562b" fill-rule="evenodd" stroke="none"/>
  </g>
</svg>
