<?xml version="1.0" encoding="UTF-8" standalone="no"?>
<svg xmlns:ffdec="https://www.free-decompiler.com/flash" xmlns:xlink="http://www.w3.org/1999/xlink" ffdec:objectType="shape" height="35.65px" width="35.25px" xmlns="http://www.w3.org/2000/svg">
  <g transform="matrix(1.0, 0.0, 0.0, 1.0, -50.0, -180.05)">
    <path d="M55.0 185.55 Q55.25 185.5 55.6 185.8 L55.8 186.0 56.2 186.4 57.3 187.1 57.2 186.85 56.85 186.2 56.35 185.4 56.05 183.85 56.0 183.65 56.0 183.6 54.65 183.2 51.1 182.8 50.55 182.85 50.7 182.55 55.95 182.95 55.9 181.6 55.9 181.15 55.9 181.0 55.9 180.9 55.7 180.05 55.85 180.05 56.35 180.05 56.4 180.6 56.45 180.9 56.5 181.25 56.5 181.3 56.5 181.45 56.55 181.8 56.6 182.4 56.65 182.9 56.7 183.15 56.75 183.7 56.8 183.9 56.9 184.8 57.05 185.35 58.1 187.1 58.3 187.4 58.35 187.5 58.35 187.55 60.1 188.8 60.55 189.1 60.6 189.1 60.85 189.3 60.95 189.2 61.1 189.3 61.1 189.5 61.15 189.55 61.2 189.55 61.35 189.8 61.35 189.75 61.6 189.75 61.65 190.05 61.6 190.15 61.95 190.2 Q63.15 190.2 63.9 189.5 L63.6 189.05 Q62.8 188.25 61.55 188.15 L61.6 188.05 61.65 187.75 61.6 187.35 61.6 187.3 61.55 187.1 61.25 186.05 60.6 184.5 60.6 184.45 60.5 184.35 60.45 184.15 60.35 184.0 60.25 183.85 60.2 183.65 59.9 183.2 59.65 182.7 59.1 181.75 57.85 180.05 58.45 180.05 59.7 181.9 60.55 183.55 61.15 184.9 61.6 186.35 61.7 187.1 61.75 187.15 61.75 187.75 Q62.9 188.15 63.6 188.85 L64.0 189.4 64.4 188.8 64.9 187.3 64.65 186.4 64.4 185.8 62.65 184.15 61.4 182.4 60.4 181.1 59.35 180.05 60.6 180.05 61.1 180.85 61.9 182.05 61.95 182.2 62.5 182.85 62.85 183.35 62.95 183.25 62.95 183.2 62.7 182.65 62.45 182.1 Q62.45 181.7 61.85 181.0 L61.9 180.95 63.0 180.8 Q64.45 180.8 65.75 182.55 L66.35 183.45 66.15 182.45 Q66.15 181.6 66.65 180.55 L66.95 180.05 68.1 180.05 68.1 180.85 68.35 182.75 68.55 183.1 69.1 184.0 69.1 183.95 69.0 183.55 68.9 182.7 68.9 182.1 68.85 181.7 69.25 180.05 69.7 180.05 69.65 180.15 69.45 181.95 69.8 184.1 69.9 184.35 70.1 184.35 71.2 183.25 71.9 182.05 72.0 181.5 72.15 181.15 72.2 181.05 72.45 180.75 72.3 180.05 73.1 180.05 73.2 180.3 73.35 180.1 73.45 180.05 74.95 180.05 73.6 181.4 72.15 183.2 70.15 185.2 70.1 185.3 69.45 185.95 69.35 186.0 69.25 186.05 69.0 186.1 69.0 186.15 68.9 186.2 68.8 186.3 68.55 186.5 68.3 186.7 68.1 186.8 68.0 186.85 67.95 186.9 67.9 186.95 67.9 187.0 67.85 187.0 67.5 187.1 67.1 187.05 67.3 187.5 67.5 188.0 67.55 188.95 67.5 189.7 67.4 190.35 67.35 190.5 67.3 190.9 67.4 190.85 67.4 190.95 67.35 191.0 67.3 191.1 67.0 191.55 66.1 192.75 66.1 192.8 66.1 193.4 66.1 193.45 66.3 194.0 66.3 194.1 66.45 194.65 66.6 195.0 67.0 196.0 67.0 196.15 67.05 196.35 67.05 196.95 66.85 196.15 66.4 194.75 66.4 194.7 66.2 194.15 66.0 193.65 65.6 194.45 65.6 195.25 65.65 195.7 65.65 196.0 65.65 196.25 65.65 196.3 65.65 197.2 65.65 197.75 65.65 197.8 65.85 198.1 66.05 198.6 66.05 198.65 66.85 199.5 67.0 199.8 67.35 200.35 67.4 200.3 68.1 200.9 68.7 201.05 69.2 201.05 69.95 201.1 69.85 200.9 69.8 200.75 69.6 200.15 Q69.3 199.4 68.75 199.05 L67.65 198.3 67.35 198.15 67.05 198.0 67.0 197.7 67.0 197.65 67.05 197.1 67.2 197.6 67.2 197.7 67.45 197.9 67.5 197.9 67.7 198.05 69.25 199.35 69.3 199.4 69.35 199.5 69.9 200.45 70.1 200.9 70.2 201.2 70.45 201.3 70.5 201.15 70.6 201.15 71.25 201.0 71.85 200.85 72.0 200.8 73.55 203.2 74.0 204.25 74.15 204.9 74.4 206.0 74.4 206.95 74.35 207.35 74.1 207.35 72.85 206.8 71.75 206.3 71.3 206.0 70.15 207.25 69.9 207.55 70.25 207.8 70.7 208.15 70.8 208.2 73.75 210.4 74.25 210.8 Q76.4 212.75 77.05 214.7 L77.1 214.7 77.15 214.75 77.3 214.9 77.7 215.35 79.35 213.9 80.25 213.1 80.2 212.9 79.7 212.8 79.0 212.6 Q78.35 212.6 77.7 213.0 L77.0 213.3 76.95 213.3 76.8 213.35 76.55 213.3 76.65 213.25 76.95 212.95 77.05 212.9 77.4 212.55 Q77.95 212.2 79.1 212.2 L79.6 212.3 80.15 212.4 80.35 212.45 Q82.7 211.55 83.4 210.3 L83.85 208.5 83.85 208.0 83.5 207.45 82.55 205.85 81.95 204.5 81.85 203.1 Q81.85 202.55 81.45 201.85 L80.5 200.55 79.8 199.25 79.8 199.1 79.75 198.9 79.65 198.3 79.25 196.65 Q78.85 195.1 77.9 194.45 L77.75 193.7 77.65 193.1 77.65 193.05 Q77.65 192.8 77.75 193.05 L77.8 193.15 78.35 194.2 78.4 194.35 78.95 195.45 79.7 197.1 79.6 196.1 Q79.7 195.0 79.0 193.9 L78.85 193.7 78.6 193.5 78.0 192.8 77.65 192.5 77.55 192.4 76.9 191.35 76.85 191.2 76.75 191.15 76.6 191.7 76.5 191.75 76.45 191.75 76.35 191.4 76.3 190.9 76.25 190.2 Q76.25 189.05 77.55 187.2 79.05 185.0 79.3 184.0 L81.0 180.35 81.1 180.15 81.75 180.25 81.85 180.25 81.05 181.75 Q80.3 183.4 80.3 184.45 L79.8 185.25 78.65 186.6 Q77.05 188.7 77.05 190.55 L77.05 190.6 77.1 190.65 77.5 191.5 78.85 192.7 Q80.3 194.0 80.3 194.45 L80.2 195.6 80.1 196.6 80.7 197.6 80.65 197.7 80.7 197.75 81.45 198.9 Q82.6 199.65 83.35 200.95 L84.4 203.2 84.35 203.35 84.2 203.4 83.95 203.3 82.95 202.7 82.75 202.55 82.5 202.55 82.35 202.7 82.25 202.6 82.4 203.85 82.55 204.4 82.65 204.9 83.1 205.75 84.0 206.8 84.4 207.4 84.55 207.45 Q85.25 207.75 85.25 208.05 85.25 209.2 83.2 211.35 81.3 213.35 80.8 213.35 L80.45 213.3 79.15 214.75 78.2 215.7 76.85 215.7 76.0 214.6 75.55 213.4 75.65 214.3 75.4 213.5 74.75 212.55 74.9 213.65 74.75 214.55 74.7 214.85 74.65 215.7 74.05 215.7 74.35 213.95 73.9 212.1 Q73.5 210.95 73.0 210.65 L73.1 210.45 71.95 209.65 71.3 209.05 70.55 208.6 70.45 208.55 70.35 208.5 70.15 208.3 70.05 208.25 69.55 207.85 68.55 208.55 68.15 208.25 67.85 208.0 67.0 208.5 66.3 208.8 Q66.85 210.65 66.9 213.2 L66.7 213.4 66.9 213.4 66.9 213.7 67.0 213.5 67.0 213.35 67.65 212.55 68.3 211.1 68.35 210.9 68.6 210.0 68.65 209.3 68.65 209.15 68.75 209.9 68.7 210.25 69.0 210.85 69.05 212.65 69.3 213.95 69.7 215.6 70.3 214.0 70.6 212.55 70.15 210.55 70.15 210.5 69.9 209.55 69.95 209.4 70.65 210.3 70.7 210.3 70.8 210.45 71.25 211.05 71.65 212.2 71.35 211.85 71.55 212.5 71.7 213.1 71.9 213.9 72.35 215.1 72.85 215.7 72.15 215.7 71.5 214.4 71.1 212.75 70.8 214.2 Q70.5 214.75 70.3 215.7 L69.45 215.7 Q68.95 214.35 68.55 211.7 L68.0 213.0 66.25 215.1 66.05 214.95 65.95 214.7 66.2 213.7 66.4 212.45 66.2 211.1 65.85 209.1 65.8 209.05 64.15 211.3 62.7 213.3 62.6 213.6 Q61.95 214.6 61.8 215.7 L60.9 215.7 Q60.9 214.65 61.05 213.85 L61.45 212.05 62.05 210.7 62.2 210.45 62.95 209.45 63.4 208.9 63.5 208.75 63.55 208.7 63.15 206.85 63.05 205.75 63.0 205.6 63.0 204.8 62.95 204.75 62.1 204.15 62.1 203.05 62.1 203.0 62.15 202.8 61.2 202.15 61.1 202.1 60.85 201.9 60.45 201.6 60.45 201.65 60.1 201.4 60.0 201.35 60.0 201.1 60.25 200.35 60.6 198.8 60.6 198.7 60.6 198.65 60.4 198.45 60.25 198.45 60.2 198.3 60.45 197.45 60.5 197.4 60.8 196.5 60.85 196.45 60.9 196.4 59.8 195.0 59.75 194.95 59.2 194.3 58.9 193.9 Q58.85 193.45 59.85 192.35 L60.25 191.9 60.15 190.45 Q58.85 190.25 57.65 189.4 L57.2 189.0 56.35 188.2 Q55.75 187.45 55.5 186.75 L55.55 187.3 55.7 187.8 55.7 187.9 55.85 188.35 55.85 188.4 55.9 188.55 55.95 188.65 55.95 188.7 56.2 189.2 56.35 189.5 57.85 190.75 58.1 191.0 59.05 191.8 59.0 191.8 58.5 191.6 58.45 191.6 55.4 190.8 54.6 190.9 54.2 190.85 53.9 190.85 53.55 191.0 52.15 191.7 51.9 191.9 51.4 192.5 50.75 193.6 50.35 194.8 50.4 194.95 50.45 195.5 50.8 195.3 50.8 195.25 50.9 195.15 51.35 195.25 Q50.7 195.5 50.2 196.2 L50.0 196.55 50.0 193.2 50.7 192.15 51.35 191.5 52.6 190.7 Q53.95 190.05 55.85 190.05 L56.15 190.1 55.75 189.55 54.8 189.65 51.6 189.9 50.5 189.85 50.0 189.8 50.0 189.2 52.3 189.35 54.4 189.1 55.4 188.85 55.25 188.3 55.25 188.2 54.65 187.8 54.55 187.7 52.7 186.15 51.05 184.5 50.2 183.85 50.35 183.3 51.6 184.4 53.2 186.0 55.1 187.45 55.0 186.7 54.9 185.8 55.0 185.55 M60.2 215.7 L58.8 215.7 59.4 214.7 59.25 214.15 58.7 214.05 Q57.55 213.85 56.7 213.3 L56.4 213.1 55.05 211.85 53.95 211.85 53.35 211.7 53.25 212.2 Q52.85 212.5 52.75 213.05 L52.45 213.4 52.35 213.85 52.3 214.1 53.65 215.35 53.75 215.45 53.9 215.55 53.3 215.4 Q52.1 214.6 52.0 214.1 L51.7 213.8 51.5 213.8 51.0 213.8 50.85 213.6 51.4 213.65 51.8 213.65 52.0 213.35 52.35 213.35 52.45 213.25 52.8 212.75 53.15 211.75 52.65 211.75 52.45 211.75 52.4 211.65 52.65 211.45 52.3 211.25 52.1 210.9 52.05 210.85 51.3 209.95 51.3 209.9 51.1 209.85 51.05 209.75 50.65 209.55 50.3 209.45 50.0 209.4 50.0 209.0 Q50.4 209.3 51.0 209.4 L51.25 209.45 52.05 208.75 52.4 208.2 53.0 206.8 52.9 206.35 52.95 206.15 52.9 205.55 52.65 205.25 52.65 205.2 52.6 204.95 52.3 202.95 Q52.3 202.15 52.55 201.45 L52.35 200.95 52.1 199.85 51.8 200.0 51.75 200.15 51.5 200.35 51.25 200.55 50.35 201.5 50.3 201.6 50.15 201.95 50.0 202.2 50.0 201.2 50.85 200.35 50.0 200.55 50.0 200.15 52.15 199.2 52.25 198.9 52.4 198.45 52.6 198.15 52.65 198.0 52.65 197.95 52.5 197.95 52.35 197.95 51.4 197.85 50.95 197.85 50.8 197.8 52.8 197.75 Q53.25 196.9 53.95 196.45 L54.45 196.15 53.4 195.65 Q53.1 195.45 52.85 195.4 L53.85 195.35 55.35 196.15 55.6 196.3 55.9 196.45 Q55.65 196.65 55.4 196.65 L55.05 196.65 54.95 196.65 54.85 196.65 54.3 197.0 53.55 197.45 53.45 197.65 53.25 197.95 53.25 198.0 52.85 198.8 52.65 199.5 52.8 200.55 52.8 200.65 52.85 200.65 53.1 200.4 54.15 199.35 55.65 198.45 56.1 198.25 58.6 197.75 58.8 197.7 Q57.7 198.15 56.85 198.55 L54.65 199.75 54.5 199.85 Q53.4 200.75 53.05 201.95 52.9 202.5 52.9 203.15 L53.0 204.7 Q52.95 204.0 53.85 203.0 L54.55 202.25 54.9 201.9 54.95 201.9 55.0 201.85 Q56.05 200.9 57.15 200.25 L57.35 200.1 58.05 199.7 58.4 199.5 58.6 199.5 58.65 199.5 58.65 199.6 58.65 199.65 58.25 199.85 57.9 200.15 57.1 201.15 56.95 201.5 56.55 202.6 56.25 204.1 56.25 204.3 56.2 204.4 56.15 204.75 56.05 205.5 55.7 207.4 55.65 207.45 55.55 207.75 55.3 208.3 55.0 208.9 54.85 209.15 54.05 210.5 54.7 210.1 56.3 208.7 56.45 208.6 56.5 208.5 56.95 207.9 56.95 207.85 57.55 206.8 57.75 206.3 58.3 204.95 58.5 204.55 58.7 204.15 59.4 203.25 59.2 204.3 59.1 204.65 58.9 205.35 58.35 206.5 58.25 206.7 57.8 207.55 57.25 208.3 56.85 208.85 56.65 209.05 56.4 209.4 56.1 209.7 55.65 210.2 55.3 210.55 56.0 210.3 56.25 210.15 57.85 209.35 58.2 209.15 59.65 207.8 60.3 206.9 60.4 206.75 60.85 205.95 61.1 205.45 61.65 204.55 61.75 205.0 61.75 205.4 61.75 205.5 61.7 205.7 61.65 205.9 61.65 205.95 61.6 206.05 61.55 206.4 61.45 206.75 61.4 206.9 61.25 207.3 61.1 207.65 61.0 207.8 60.85 208.15 60.45 208.95 60.05 209.9 60.0 210.0 59.95 210.25 59.9 210.3 59.8 211.0 59.7 212.1 59.6 212.9 59.7 213.95 59.75 214.15 59.85 214.55 60.0 215.2 60.2 215.7 M50.0 191.15 L50.0 190.6 51.1 191.0 50.85 191.1 50.45 191.15 50.0 191.15 M52.75 193.8 L52.85 193.75 55.75 193.35 57.05 193.65 57.65 193.85 58.05 194.05 58.05 194.15 58.05 194.2 57.9 194.2 57.8 194.15 57.85 194.15 57.65 194.05 57.3 193.85 56.4 193.6 56.3 193.6 56.25 193.6 56.15 193.6 56.05 193.55 55.9 193.55 55.85 193.55 54.9 193.65 53.9 193.85 52.75 193.8 M58.7 188.7 L58.7 188.75 58.45 188.8 57.75 187.8 57.7 187.8 Q57.35 187.8 56.5 187.3 L56.0 187.0 56.85 188.2 57.2 188.6 58.15 189.4 Q59.1 190.0 60.15 190.15 L60.45 189.7 60.4 189.65 60.5 189.65 60.55 189.6 Q60.1 188.85 58.75 188.65 L58.7 188.7 M64.05 190.15 Q63.25 190.7 61.85 190.75 L61.65 190.75 61.6 190.75 61.05 190.35 60.8 190.15 60.65 189.95 60.45 190.15 60.35 190.35 60.35 190.5 Q60.4 191.3 60.8 191.85 L61.05 192.15 61.35 192.45 62.15 192.9 62.45 193.0 63.05 193.15 63.15 193.15 63.4 193.15 63.7 193.15 63.8 193.1 64.7 192.9 64.8 192.85 65.15 192.65 65.35 192.5 65.95 192.1 66.15 191.85 66.25 191.7 66.9 191.05 67.15 190.5 67.15 190.45 67.2 190.1 67.05 189.4 67.05 189.2 66.75 187.75 66.75 187.7 66.7 187.65 66.55 187.5 66.55 187.45 Q66.3 186.85 66.05 186.95 L65.75 186.6 65.7 186.55 65.5 186.3 65.35 186.25 65.25 186.2 65.25 186.35 65.25 186.5 65.3 186.7 65.2 187.4 65.15 187.45 65.15 187.7 65.1 187.75 65.05 188.05 Q65.05 189.0 64.6 189.65 L64.35 189.95 64.25 190.05 64.05 190.15 M62.35 194.0 L62.3 193.95 62.2 193.85 62.2 193.8 62.05 193.55 62.05 193.5 61.95 193.3 61.4 193.15 61.0 192.95 60.5 192.4 60.45 192.45 Q59.75 192.9 59.7 193.5 L59.7 193.7 59.65 193.75 60.0 194.4 60.35 194.8 60.55 195.05 61.25 195.8 61.35 195.7 61.4 195.65 62.05 195.1 62.3 194.7 62.45 194.45 62.45 194.25 62.4 194.1 62.4 194.05 62.35 194.0 M72.65 180.85 L72.6 180.85 72.55 180.95 72.65 180.85 M63.85 181.75 L63.45 181.5 63.35 181.5 62.95 181.45 63.55 182.8 63.6 183.05 63.8 184.2 64.5 184.9 64.85 185.25 65.2 185.5 65.75 185.8 66.7 186.4 67.0 186.35 67.5 186.3 67.75 186.25 68.05 185.95 68.95 185.0 68.85 184.9 68.8 184.9 Q68.05 184.55 67.85 183.05 L67.8 182.75 67.55 181.1 67.65 180.75 67.55 180.75 67.55 180.65 67.45 180.8 67.0 181.5 66.75 182.45 66.8 182.8 66.85 183.7 66.9 183.9 Q67.0 184.55 67.25 184.9 L67.4 185.1 67.45 185.15 67.4 185.15 67.3 185.2 66.9 184.95 66.8 184.95 66.65 184.8 66.35 184.55 66.1 184.2 66.1 184.15 65.9 183.95 64.95 182.35 64.55 182.05 63.85 181.75 M71.25 193.5 L72.35 193.65 72.45 193.65 72.9 193.75 73.3 193.85 74.65 194.0 74.6 194.25 74.6 194.3 74.55 194.55 75.25 196.15 Q75.9 197.8 75.9 199.1 L75.9 199.25 75.9 199.4 75.85 199.45 75.8 199.5 75.7 199.5 75.5 198.15 75.5 198.1 Q75.5 197.15 75.15 196.35 L74.3 194.65 74.2 194.3 72.75 194.15 72.55 194.1 71.15 193.7 70.6 193.55 70.65 193.55 70.75 193.5 71.25 193.5 M71.15 189.7 L71.2 189.65 71.25 189.65 71.35 189.7 71.45 189.7 71.7 189.8 71.25 189.75 71.15 189.7 M73.25 200.15 L72.85 200.1 71.85 199.8 Q71.05 199.4 70.6 198.7 L70.05 197.45 69.65 196.6 69.25 196.45 69.0 196.5 68.65 196.25 68.55 196.2 68.6 196.15 68.45 195.65 68.45 195.6 68.3 194.7 68.6 194.25 68.7 194.15 68.75 194.15 69.2 193.4 69.2 193.35 68.85 192.2 68.75 192.1 Q68.35 191.5 67.75 191.2 L68.7 191.4 68.95 192.15 69.1 192.6 69.35 193.3 69.55 193.7 69.55 193.8 69.4 194.1 69.25 194.35 68.95 194.75 68.8 194.9 68.8 195.05 69.0 195.7 69.15 196.0 69.15 196.1 69.35 196.1 70.25 196.15 71.55 196.35 72.3 196.45 72.55 196.5 Q73.2 196.65 73.55 196.95 L73.65 197.05 Q74.0 197.4 74.0 198.05 L74.45 199.05 74.5 199.2 74.55 199.2 74.8 199.4 74.95 199.5 74.85 199.8 74.9 199.95 74.95 200.0 74.75 200.25 74.6 199.95 73.75 200.15 73.25 200.15 M65.45 194.1 L65.55 193.9 65.85 193.2 65.8 193.0 65.65 192.85 65.6 192.8 Q64.85 193.45 64.1 193.5 L64.0 193.5 63.85 193.5 63.65 193.55 63.5 193.55 63.3 193.55 62.5 193.35 62.2 193.35 62.15 193.35 62.2 193.4 62.55 193.95 62.9 194.4 63.55 194.4 65.25 194.35 65.3 194.35 65.3 194.3 65.35 194.2 65.45 194.1 M65.3 196.8 L65.3 196.75 65.3 195.95 65.2 195.1 65.1 194.55 63.55 194.55 63.2 194.55 62.35 195.0 61.9 195.55 61.65 195.85 61.35 196.55 61.25 196.95 61.15 197.35 61.05 197.75 61.05 197.95 Q61.1 198.1 61.5 198.3 L61.6 198.35 61.75 198.4 61.95 198.5 62.05 198.5 62.2 198.6 63.15 199.05 63.5 199.1 63.8 199.15 64.05 199.1 64.6 198.75 64.9 198.5 65.0 198.45 65.1 198.4 65.2 198.2 65.25 197.8 65.25 197.35 65.25 197.15 65.3 196.8 M71.9 197.05 L71.8 197.05 71.4 196.95 71.2 196.9 71.15 196.9 71.05 196.9 70.95 196.85 70.7 197.65 70.85 198.2 71.5 198.95 72.0 199.25 73.05 199.55 73.7 199.6 74.15 199.45 74.3 199.25 74.1 198.75 73.4 197.6 73.25 197.45 72.55 197.2 71.9 197.05 M80.05 197.75 L80.1 198.2 80.2 198.75 80.8 199.0 80.95 199.0 80.5 198.4 80.15 197.8 80.05 197.75 M83.05 201.35 L82.8 200.9 82.4 200.45 82.15 200.15 80.75 199.2 80.7 199.4 80.6 199.55 80.55 199.65 80.95 200.1 81.15 200.3 82.15 201.4 83.5 202.2 83.5 202.05 83.05 201.35 M81.6 209.2 L81.65 209.5 81.6 210.0 81.5 210.5 81.5 210.9 81.45 211.3 81.25 211.4 80.9 210.9 81.1 210.4 Q81.1 209.95 80.25 209.75 79.4 209.5 79.4 209.0 79.4 208.8 79.55 208.7 L79.75 208.5 79.75 208.45 79.7 208.25 79.75 208.3 80.05 208.25 80.25 208.4 80.65 208.7 80.75 208.7 80.8 208.75 80.9 208.75 81.05 208.8 81.45 208.95 81.6 209.2 M72.95 203.25 L72.75 202.85 72.5 202.45 72.3 202.15 71.55 201.25 71.2 201.4 71.1 201.5 Q70.85 201.5 70.75 201.8 L70.75 201.85 70.7 202.1 70.7 202.2 71.1 204.1 71.2 204.35 71.35 204.95 71.4 205.05 71.5 205.3 71.55 205.4 71.7 205.55 72.0 205.8 72.1 205.9 72.5 206.05 73.25 206.25 73.35 206.3 73.4 206.3 73.5 206.35 73.65 206.4 73.75 206.45 73.75 206.4 73.7 206.35 73.7 206.25 73.5 205.0 73.3 204.4 73.0 203.4 73.0 203.35 73.0 203.3 72.95 203.25 M67.8 206.8 L68.3 207.3 68.35 207.35 68.8 207.55 69.0 207.45 69.05 207.4 69.35 207.15 69.9 206.75 Q71.2 205.7 71.05 204.3 L70.9 203.75 70.75 202.95 70.6 202.2 70.6 202.15 70.55 202.05 70.5 201.7 69.55 201.6 68.3 201.45 68.2 201.45 67.95 201.6 67.75 201.75 67.65 202.1 67.6 202.2 67.3 203.1 67.05 203.85 67.05 203.9 67.05 204.25 67.0 204.3 67.45 206.15 67.8 206.8 M67.35 202.2 L67.35 202.15 67.5 201.65 67.4 201.4 67.45 201.35 67.4 201.25 67.4 201.2 65.9 199.05 65.5 198.55 65.4 198.65 65.15 198.6 65.0 198.65 Q64.65 198.75 64.2 199.1 L64.1 199.2 64.0 199.3 63.85 199.4 63.65 199.75 63.45 200.1 63.4 200.2 63.35 200.35 63.15 201.05 63.0 201.7 62.95 201.75 62.85 202.4 62.8 202.8 62.85 202.9 62.85 203.35 62.75 203.6 63.45 204.0 63.6 204.05 63.8 204.1 64.7 204.25 65.05 204.3 65.4 204.35 66.0 204.2 66.6 204.05 66.7 204.1 66.8 203.95 66.85 203.85 67.0 203.65 67.0 203.6 67.05 203.4 67.25 202.55 67.35 202.2 M63.4 199.85 L63.4 199.6 63.4 199.55 63.3 199.4 Q63.2 199.1 63.05 199.25 L62.9 199.15 62.7 199.05 62.75 199.0 62.35 198.85 62.3 198.85 Q61.3 198.4 61.3 198.95 L61.0 199.75 60.7 200.6 60.65 201.0 60.6 201.1 60.65 201.15 61.2 201.55 61.6 201.75 61.7 201.8 61.95 201.9 62.5 202.2 62.55 201.95 62.7 201.7 63.05 201.0 63.4 199.85 M66.8 204.9 L66.7 204.6 66.3 204.55 65.3 204.4 64.35 204.45 63.95 204.45 63.85 204.45 63.75 206.75 63.95 207.75 64.05 208.25 64.1 208.45 64.15 208.7 64.65 208.65 65.7 208.25 65.85 208.25 66.05 208.15 67.0 207.85 67.35 207.45 67.65 207.1 Q67.3 206.6 67.3 206.2 L66.8 204.9 M64.0 209.3 L63.8 209.25 63.7 209.1 63.7 209.0 62.75 210.45 62.6 210.7 62.4 211.05 61.95 212.1 61.7 213.05 61.55 214.35 Q61.85 213.35 63.6 211.25 L64.25 210.45 65.2 209.15 64.0 209.3 M55.65 204.6 L55.7 203.7 55.9 203.0 56.1 202.35 56.35 201.7 56.7 201.1 56.65 201.05 55.0 202.4 54.0 203.75 Q53.3 205.05 53.4 206.35 L53.25 206.1 53.25 206.2 53.25 206.3 53.35 206.35 53.4 206.35 53.5 206.35 53.45 206.45 53.85 206.75 54.25 206.85 54.55 206.85 54.7 206.85 55.1 206.95 55.25 206.75 55.65 204.6 M53.35 206.9 L53.3 206.9 53.2 206.8 53.15 206.9 53.15 206.95 52.95 207.25 52.9 207.4 52.45 208.2 52.25 208.65 51.65 209.75 51.55 209.85 51.85 210.2 52.05 210.5 52.9 211.2 54.35 209.1 54.9 207.85 55.1 207.2 54.25 207.15 53.55 206.9 53.55 207.0 53.5 207.0 53.45 206.95 53.35 206.9 M59.8 209.15 L60.4 207.7 60.25 207.95 59.75 208.55 59.65 208.75 59.5 209.0 59.1 209.4 59.6 209.75 59.8 209.15 M59.25 210.8 L59.5 210.1 59.55 210.0 58.95 209.5 58.65 209.55 58.5 209.55 Q57.35 210.35 55.9 210.75 L55.75 210.9 55.2 211.7 55.7 212.15 56.6 212.95 56.7 213.05 Q57.6 213.7 58.8 213.9 L59.2 213.95 59.15 213.45 59.1 213.1 59.1 212.35 59.1 212.15 59.15 211.85 59.2 210.95 59.25 210.8 M55.2 211.4 L55.45 211.1 55.7 210.8 54.7 211.0 54.0 211.4 54.15 211.4 54.6 211.45 54.85 211.5 54.9 211.5 55.0 211.5 55.05 211.5 55.05 211.45 55.1 211.45 55.2 211.4" fill="#111111" fill-rule="evenodd" stroke="none"/>
    <path d="M76.2 180.05 L77.75 180.05 79.8 180.05 79.95 180.05 81.1 180.15 81.0 180.35 79.3 184.0 Q79.05 185.0 77.55 187.2 76.25 189.05 76.25 190.2 L76.3 190.9 76.35 191.4 76.45 191.75 76.5 191.75 76.65 192.85 76.95 194.65 77.55 196.2 78.45 197.85 78.25 197.9 Q78.05 197.9 77.8 197.25 L77.55 196.55 76.3 194.75 74.9 192.85 74.65 192.45 74.2 191.9 72.45 190.1 72.25 189.85 71.7 189.8 71.45 189.7 71.35 189.7 71.25 189.65 71.2 189.65 71.15 189.7 70.6 189.45 70.55 189.45 70.85 189.85 71.95 191.75 72.5 192.75 72.9 193.75 72.45 193.65 72.35 193.65 71.25 193.5 71.25 192.7 71.25 192.5 Q71.2 191.25 70.35 190.65 69.7 190.15 68.35 189.85 L68.15 189.85 67.4 190.35 67.5 189.7 67.55 188.95 67.5 188.0 67.3 187.5 67.65 187.45 68.9 187.6 69.25 187.35 69.5 187.2 70.05 186.9 70.9 186.5 Q71.8 186.5 72.5 185.55 L73.6 184.2 73.6 184.25 74.25 183.75 74.15 184.05 73.85 184.9 73.5 186.3 Q72.85 187.45 71.8 187.85 L71.5 187.9 70.95 188.05 70.9 188.1 70.75 188.15 Q70.45 188.35 70.45 188.85 L70.55 189.25 Q70.75 189.55 71.2 189.55 L71.95 188.9 72.45 188.25 73.1 187.4 74.35 185.5 74.45 185.65 74.75 185.55 75.6 183.9 76.25 182.4 76.95 181.5 77.75 180.05 74.5 181.75 76.2 180.05 M50.85 213.6 L50.5 212.95 50.1 211.3 Q50.6 211.85 51.25 211.85 L51.85 211.6 52.05 211.25 52.05 210.9 52.1 210.9 52.3 211.25 52.65 211.45 52.4 211.65 52.45 211.75 52.65 211.75 53.15 211.75 52.8 212.75 52.45 213.25 52.35 213.35 52.0 213.35 51.8 213.65 51.4 213.65 50.85 213.6 M50.0 209.0 L50.0 202.2 50.15 201.95 50.3 201.6 50.35 201.5 51.25 200.55 51.5 200.35 Q50.95 201.95 50.95 204.0 L51.15 205.6 Q51.5 207.15 51.8 207.15 L52.1 207.05 52.6 205.45 52.65 205.25 52.9 205.55 52.95 206.15 52.9 206.35 53.0 206.8 52.4 208.2 52.05 208.75 51.25 209.45 51.0 209.4 Q50.4 209.3 50.0 209.0 M67.15 190.5 L66.9 191.05 66.25 191.7 66.15 191.85 65.95 192.1 65.35 192.5 65.15 192.65 64.8 192.85 64.7 192.9 63.8 193.1 63.7 193.15 63.4 193.15 63.15 193.15 63.05 193.15 62.45 193.0 62.15 192.9 61.35 192.45 61.05 192.15 60.8 191.85 Q60.4 191.3 60.35 190.5 L60.35 190.35 60.45 190.15 60.65 189.95 60.8 190.15 61.05 190.35 61.6 190.75 61.65 190.75 61.85 190.75 Q63.25 190.7 64.05 190.15 L64.25 190.8 64.45 191.0 66.0 191.3 67.15 190.5 M59.7 193.5 L60.7 194.0 60.9 194.0 61.25 194.05 61.5 194.05 62.25 194.0 62.35 194.0 62.4 194.05 62.4 194.1 62.45 194.25 62.45 194.45 62.3 194.7 62.05 195.1 61.4 195.65 61.35 195.7 61.25 195.8 60.55 195.05 60.35 194.8 60.0 194.4 59.65 193.75 59.7 193.7 59.7 193.5 M72.95 183.2 Q73.65 182.55 74.0 182.55 73.9 183.25 72.5 184.5 L72.4 184.45 72.2 184.35 72.2 184.15 Q72.2 183.85 72.95 183.2 M79.2 209.05 L78.65 207.9 77.8 204.95 76.95 203.55 76.7 203.25 76.35 202.75 76.3 202.7 76.1 202.25 75.8 201.8 75.75 201.7 74.75 201.15 73.6 200.5 73.25 200.15 73.75 200.15 74.6 199.95 74.75 200.25 74.95 200.0 74.9 199.95 74.85 199.8 74.95 199.5 74.8 199.4 74.55 199.2 74.5 199.2 74.45 199.05 74.0 198.05 Q74.0 197.4 73.65 197.05 L73.55 196.95 Q73.2 196.65 72.55 196.5 L72.3 196.45 71.55 196.35 70.25 196.15 69.35 196.1 69.15 196.0 69.0 195.7 68.8 195.05 68.8 194.9 68.95 194.75 69.25 194.35 69.4 194.1 70.0 194.45 70.95 194.85 71.65 195.0 72.5 195.3 72.95 195.5 73.4 195.8 74.25 196.65 75.2 199.0 75.45 199.85 75.6 199.7 75.7 199.65 75.75 199.7 78.0 203.45 78.3 205.25 Q78.35 206.1 78.8 206.65 L80.2 207.8 81.05 208.8 80.9 208.75 80.8 208.75 80.75 208.7 80.65 208.7 80.25 208.4 80.05 208.25 79.75 208.3 79.7 208.25 79.75 208.45 79.75 208.5 79.55 208.6 79.5 208.65 79.5 208.7 79.2 209.05 M63.3 193.55 L63.5 193.65 63.6 193.7 65.45 194.1 65.35 194.2 65.3 194.3 65.3 194.35 65.25 194.35 63.55 194.4 62.9 194.4 62.55 193.95 62.2 193.4 62.15 193.35 62.2 193.35 62.5 193.35 63.3 193.55 M61.05 197.75 L62.0 198.05 62.5 198.05 64.45 197.35 64.85 197.1 65.3 196.8 65.25 197.15 65.25 197.35 65.25 197.8 65.2 198.2 65.1 198.4 65.0 198.45 64.9 198.5 64.6 198.75 64.05 199.1 63.8 199.15 63.5 199.1 63.15 199.05 62.2 198.6 62.05 198.5 61.95 198.5 61.75 198.4 61.6 198.35 61.5 198.3 Q61.1 198.1 61.05 197.95 L61.05 197.75 M77.65 192.5 L78.0 192.8 78.6 193.5 78.85 193.7 79.0 193.9 Q79.7 195.0 79.6 196.1 L79.7 197.1 78.95 195.45 78.4 194.35 78.35 194.2 77.8 193.15 77.75 193.05 Q77.65 192.8 77.65 193.05 L77.65 192.8 77.65 192.5 M80.95 200.1 L81.05 200.15 83.05 201.35 83.5 202.05 83.5 202.2 82.15 201.4 81.15 200.3 80.95 200.1 M73.4 206.3 L73.35 206.3 73.25 206.25 72.5 206.05 72.1 205.9 72.0 205.8 71.7 205.55 71.55 205.4 71.5 205.3 71.4 205.05 71.35 204.95 71.2 204.35 71.1 204.1 70.7 202.2 70.7 202.1 70.75 201.85 70.75 201.8 70.85 202.15 72.05 204.5 73.05 205.85 73.35 206.2 73.4 206.3 M70.75 202.95 L70.9 203.75 71.05 204.3 Q71.2 205.7 69.9 206.75 L69.35 207.15 69.05 207.4 69.0 207.45 68.8 207.55 68.35 207.35 68.3 207.3 67.8 206.8 68.05 206.65 68.1 206.6 68.3 206.45 68.35 206.45 69.0 205.8 69.5 205.15 70.25 203.95 70.55 203.3 70.75 202.95 M67.35 202.2 L67.25 202.55 67.05 203.4 67.0 203.6 67.0 203.65 66.85 203.85 66.8 203.95 66.7 204.1 66.6 204.05 66.0 204.2 65.4 204.35 65.05 204.3 64.7 204.25 63.8 204.1 63.6 204.05 63.45 204.0 62.75 203.6 62.85 203.35 62.85 202.9 62.8 202.8 62.85 202.4 63.1 202.55 Q64.2 203.3 65.15 203.15 L65.95 202.95 66.6 202.65 67.35 202.2 M60.7 200.6 L61.05 200.65 61.65 200.65 61.85 200.6 62.1 200.5 63.4 199.85 63.05 201.0 62.7 201.7 62.55 201.95 62.5 202.2 61.95 201.9 61.7 201.8 61.6 201.75 61.2 201.55 60.65 201.15 60.6 201.1 60.65 201.0 60.7 200.6 M64.05 208.25 L64.3 208.2 Q65.1 208.1 65.9 206.8 L66.6 205.35 66.8 204.9 67.3 206.2 Q67.3 206.6 67.65 207.1 L67.35 207.45 67.0 207.85 66.05 208.15 65.85 208.25 65.7 208.25 64.65 208.65 64.15 208.7 64.1 208.45 64.05 208.25 M55.0 202.4 L55.0 203.1 55.15 203.9 Q55.35 204.45 55.65 204.6 L55.25 206.75 55.1 206.95 54.7 206.85 54.55 206.85 54.25 206.85 53.85 206.75 53.45 206.45 53.5 206.35 53.4 206.35 53.35 206.35 53.25 206.3 53.25 206.2 53.25 206.1 53.4 206.35 Q53.3 205.05 54.0 203.75 L55.0 202.4 M51.65 209.75 L52.25 208.65 52.45 208.2 52.9 207.4 52.95 207.25 53.15 206.95 53.15 206.9 53.2 206.8 53.3 206.9 53.35 206.9 53.3 207.25 Q53.3 207.75 53.45 208.25 53.7 208.95 54.35 209.1 L52.9 211.2 52.05 210.5 51.85 210.2 51.65 209.75 M55.2 211.4 L55.1 211.45 55.05 211.45 55.05 211.5 55.0 211.5 54.9 211.5 54.85 211.5 54.6 211.45 54.15 211.4 54.0 211.4 54.7 211.0 55.7 210.8 55.45 211.1 55.2 211.4" fill="#ffd782" fill-rule="evenodd" stroke="none"/>
    <path d="M74.95 180.05 L76.2 180.05 74.5 181.75 77.75 180.05 76.95 181.5 76.25 182.4 75.6 183.9 74.75 185.55 74.45 185.65 74.35 185.5 73.1 187.4 72.45 188.25 71.95 188.9 71.2 189.55 Q70.75 189.55 70.55 189.25 L70.45 188.85 Q70.45 188.35 70.75 188.15 L70.9 188.1 70.95 188.05 71.5 187.9 71.8 187.85 Q72.85 187.45 73.5 186.3 L73.85 184.9 74.15 184.05 74.25 183.75 73.6 184.25 73.6 184.2 72.5 185.55 Q71.8 186.5 70.9 186.5 L70.05 186.9 69.5 187.2 69.25 187.35 68.9 187.6 67.65 187.45 67.3 187.5 67.1 187.05 67.5 187.1 67.85 187.0 67.9 187.0 67.9 186.95 67.95 186.9 68.0 186.85 68.1 186.8 68.3 186.7 68.55 186.5 68.8 186.3 68.9 186.2 69.0 186.15 69.0 186.1 69.25 186.05 69.35 186.0 69.45 185.95 70.1 185.3 70.15 185.2 72.15 183.2 73.6 181.4 74.95 180.05 M50.1 211.3 L50.05 210.85 50.0 210.6 50.0 210.55 50.0 210.45 50.0 210.3 50.0 209.4 50.3 209.45 50.65 209.55 51.05 209.75 50.95 209.7 52.05 210.9 52.05 211.25 51.85 211.6 51.25 211.85 Q50.6 211.85 50.1 211.3 M67.15 190.5 L66.0 191.3 64.45 191.0 64.25 190.8 64.05 190.15 64.25 190.05 64.35 189.95 64.6 189.65 Q65.05 189.0 65.05 188.05 L65.1 187.75 65.45 188.45 65.85 189.15 66.1 189.5 66.55 188.75 66.6 188.45 66.7 187.8 66.7 187.65 66.75 187.7 66.75 187.75 67.05 189.2 67.05 189.4 67.2 190.1 67.15 190.45 67.15 190.5 M59.7 193.5 Q59.75 192.9 60.45 192.45 L60.5 192.4 61.0 192.95 61.4 193.15 61.95 193.3 62.05 193.5 62.05 193.55 62.2 193.8 62.2 193.85 62.3 193.95 62.35 194.0 62.25 194.0 61.5 194.05 61.25 194.05 60.9 194.0 60.7 194.0 59.7 193.5 M72.95 183.2 Q72.2 183.85 72.2 184.15 L72.2 184.35 72.4 184.45 72.5 184.5 Q73.9 183.25 74.0 182.55 73.65 182.55 72.95 183.2 M69.55 193.7 L70.55 193.5 70.75 193.5 70.65 193.55 70.6 193.55 71.15 193.7 72.55 194.1 72.75 194.15 74.2 194.3 74.3 194.65 75.15 196.35 Q75.5 197.15 75.5 198.1 L75.5 198.15 75.7 199.5 75.8 199.5 75.7 199.65 75.6 199.7 75.45 199.85 75.2 199.0 74.25 196.65 73.4 195.8 72.95 195.5 72.5 195.3 71.65 195.0 70.95 194.85 70.0 194.45 69.4 194.1 69.55 193.8 69.55 193.7 M63.3 193.55 L63.5 193.55 63.65 193.55 63.85 193.5 64.0 193.5 64.1 193.5 Q64.85 193.45 65.6 192.8 L65.65 192.85 65.8 193.0 65.85 193.2 65.55 193.9 65.45 194.1 63.6 193.7 63.5 193.65 63.3 193.55 M61.05 197.75 L61.15 197.35 61.25 196.95 61.35 196.55 61.65 195.85 61.9 195.55 62.35 195.0 63.2 194.55 63.55 194.55 65.1 194.55 65.2 195.1 65.3 195.95 65.3 196.75 65.3 196.8 64.85 197.1 64.45 197.35 62.5 198.05 62.0 198.05 61.05 197.75 M63.1 195.35 L62.85 195.4 Q62.05 195.5 62.05 196.1 L62.15 196.65 62.15 196.7 62.2 196.75 62.2 196.8 62.25 197.0 62.8 196.95 63.9 195.8 64.15 195.55 63.75 195.4 63.1 195.35 M80.95 200.1 L80.55 199.65 80.6 199.55 80.7 199.4 80.75 199.2 82.15 200.15 82.4 200.45 82.8 200.9 83.05 201.35 81.05 200.15 80.95 200.1 M80.05 197.75 L80.15 197.8 80.5 198.4 80.95 199.0 80.8 199.0 80.2 198.75 80.1 198.2 80.05 197.75 M70.75 201.8 Q70.85 201.5 71.1 201.5 L71.2 201.4 71.55 201.25 72.3 202.15 72.5 202.45 72.75 202.85 72.95 203.25 72.55 202.7 72.05 202.1 71.9 202.1 71.75 202.25 71.7 202.35 71.65 202.6 Q71.65 202.9 72.0 203.3 L72.6 203.95 72.85 203.7 73.0 203.35 73.0 203.4 73.3 204.4 73.5 205.0 73.7 206.25 73.7 206.35 73.75 206.4 73.75 206.45 73.65 206.4 73.5 206.35 73.4 206.3 73.35 206.2 73.05 205.85 72.05 204.5 70.85 202.15 70.75 201.8 M70.75 202.95 L70.55 203.3 70.25 203.95 69.5 205.15 69.0 205.8 68.35 206.45 68.3 206.45 68.1 206.6 68.05 206.65 67.8 206.8 67.45 206.15 67.0 204.3 67.05 204.25 67.05 203.9 67.05 203.85 67.3 203.1 67.6 202.2 67.65 202.1 67.75 201.75 67.95 201.6 68.2 201.45 68.3 201.45 69.55 201.6 70.5 201.7 70.55 202.05 70.6 202.15 70.6 202.2 70.75 202.95 M62.85 202.4 L62.95 201.75 63.0 201.7 63.15 201.05 63.35 200.35 63.4 200.2 63.45 200.1 63.65 199.75 63.85 199.4 64.0 199.3 64.1 199.2 64.2 199.1 Q64.65 198.75 65.0 198.65 L65.15 198.6 65.4 198.65 65.5 198.55 65.9 199.05 67.4 201.2 67.4 201.25 67.45 201.35 67.4 201.4 67.5 201.65 67.35 202.15 67.35 202.2 66.6 202.65 65.95 202.95 65.15 203.15 Q64.2 203.3 63.1 202.55 L62.85 202.4 M65.7 199.4 L65.3 199.35 65.25 199.35 Q64.8 199.55 64.45 199.9 L64.3 200.05 Q64.0 200.45 64.0 200.95 L64.2 201.35 64.35 201.5 64.6 201.75 64.8 201.65 64.95 201.45 65.4 200.7 65.65 200.25 65.85 199.8 65.7 199.4 M67.85 203.5 L68.1 204.05 68.55 204.45 68.9 204.4 69.1 203.95 69.3 203.35 69.55 202.75 Q69.55 202.35 69.35 202.35 L69.15 202.4 Q68.75 202.45 68.35 202.7 67.85 203.05 67.85 203.5 M62.7 199.05 L62.9 199.15 63.05 199.25 Q63.2 199.1 63.3 199.4 L63.4 199.55 63.4 199.6 63.4 199.85 62.1 200.5 61.85 200.6 61.65 200.65 61.05 200.65 60.7 200.6 61.0 199.75 61.3 198.95 Q61.3 198.4 62.3 198.85 L62.1 198.85 Q61.65 198.9 61.65 199.35 L61.7 199.75 61.85 199.85 62.7 199.05 M64.05 208.25 L63.95 207.75 63.75 206.75 63.85 204.45 63.95 204.45 64.35 204.45 65.3 204.4 66.3 204.55 66.7 204.6 66.8 204.9 66.6 205.35 65.9 206.8 Q65.1 208.1 64.3 208.2 L64.05 208.25 M64.65 206.15 L65.05 206.45 66.1 205.1 65.85 204.7 64.95 205.0 Q64.35 205.3 64.35 205.7 64.35 205.9 64.65 206.15 M55.0 202.4 L56.65 201.05 56.7 201.1 56.35 201.7 56.1 202.35 55.9 203.0 55.7 203.7 55.65 204.6 Q55.35 204.45 55.15 203.9 L55.0 203.1 55.0 202.4 M51.5 200.35 L51.75 200.15 51.8 200.0 52.1 199.85 52.35 200.95 52.55 201.45 Q52.3 202.15 52.3 202.95 L52.6 204.95 52.65 205.2 52.65 205.25 52.6 205.45 52.1 207.05 51.8 207.15 Q51.5 207.15 51.15 205.6 L50.95 204.0 Q50.95 201.95 51.5 200.35 M54.35 209.1 Q53.7 208.95 53.45 208.25 53.3 207.75 53.3 207.25 L53.35 206.9 53.45 206.95 53.5 207.0 53.55 207.0 53.55 206.9 54.25 207.15 55.1 207.2 54.9 207.85 54.35 209.1" fill="#ffffe1" fill-rule="evenodd" stroke="none"/>
    <path d="M57.5 215.7 L55.8 215.7 55.05 215.7 53.9 215.55 53.75 215.45 56.05 213.35 56.4 213.1 56.7 213.3 Q57.55 213.85 58.7 214.05 L57.5 215.7 M57.85 180.05 L59.1 181.75 59.65 182.7 59.9 183.2 60.2 183.65 60.25 183.85 60.35 184.0 60.45 184.15 60.5 184.35 60.6 184.45 60.6 184.5 61.25 186.05 61.55 187.1 61.6 187.3 61.6 187.35 61.65 187.75 61.6 188.05 61.55 188.15 Q62.8 188.25 63.6 189.05 L63.9 189.5 Q63.15 190.2 61.95 190.2 L61.6 190.15 61.65 190.05 61.6 189.75 61.35 189.75 61.35 189.8 61.2 189.55 61.15 189.55 61.1 189.5 61.1 189.3 60.95 189.2 60.85 189.3 60.6 189.1 60.55 189.1 60.1 188.8 58.35 187.55 58.35 187.5 58.3 187.4 58.1 187.1 57.05 185.35 56.9 184.8 56.8 183.9 56.75 183.7 56.7 183.15 56.65 182.9 56.6 182.4 56.55 181.8 56.5 181.45 56.5 181.3 56.5 181.25 56.45 180.9 56.4 180.6 56.35 180.05 57.85 180.05 M69.25 199.35 L70.15 199.8 71.55 200.45 72.15 200.65 72.2 200.65 72.55 200.8 73.55 201.2 73.6 201.2 73.65 201.3 73.7 201.3 75.0 202.9 75.05 202.95 75.35 203.45 75.25 204.0 75.15 204.65 75.35 206.2 75.7 207.15 76.45 208.1 77.95 210.05 78.15 210.35 78.9 209.4 79.2 209.05 79.5 208.7 79.5 208.65 79.55 208.6 79.75 208.5 79.55 208.7 Q79.4 208.8 79.4 209.0 79.4 209.5 80.25 209.75 81.1 209.95 81.1 210.4 L80.9 210.9 81.25 211.4 81.45 211.3 81.5 210.9 81.5 210.5 81.6 210.0 81.65 209.5 81.6 209.2 Q83.1 209.0 83.65 208.6 L83.85 208.5 83.4 210.3 Q82.7 211.55 80.35 212.45 L80.15 212.4 79.6 212.3 79.1 212.2 Q77.95 212.2 77.4 212.55 L77.05 212.9 76.95 212.95 76.65 213.25 76.55 213.3 76.8 213.35 76.8 213.5 76.85 213.4 76.95 213.3 77.0 213.3 77.7 213.0 Q78.35 212.6 79.0 212.6 L79.7 212.8 80.2 212.9 80.25 213.1 79.35 213.9 77.7 215.35 77.3 214.9 77.15 214.75 77.1 214.7 77.05 214.7 Q76.4 212.75 74.25 210.8 L73.75 210.4 70.8 208.2 70.7 208.15 70.25 207.8 69.9 207.55 70.15 207.25 71.3 206.0 71.75 206.3 72.85 206.8 74.1 207.35 74.35 207.35 74.4 206.95 74.4 206.0 74.15 204.9 74.0 204.25 73.55 203.2 72.0 200.8 71.85 200.85 71.25 201.0 70.6 201.15 70.5 201.15 70.45 201.3 70.2 201.2 70.1 200.9 69.9 200.45 69.35 199.5 69.3 199.4 69.25 199.35 M67.05 197.1 L67.0 197.65 67.0 197.7 67.05 198.0 67.35 198.15 67.65 198.3 68.75 199.05 Q69.3 199.4 69.6 200.15 L69.8 200.75 69.85 200.9 69.95 201.1 69.2 201.05 68.7 201.05 68.1 200.9 67.4 200.3 67.35 200.35 67.0 199.8 66.85 199.5 66.05 198.65 66.05 198.6 65.85 198.1 65.65 197.8 65.65 197.75 65.65 197.2 65.65 196.3 65.65 196.25 65.65 196.0 65.65 195.7 65.6 195.25 65.6 194.45 66.0 193.65 66.2 194.15 66.4 194.7 66.4 194.75 66.85 196.15 67.05 196.95 67.05 197.1 M76.95 211.65 L77.0 211.6 76.95 211.55 76.95 211.65 M59.65 208.75 L59.75 208.55 60.25 207.95 60.4 207.7 59.8 209.15 59.7 208.95 59.65 208.75 M56.6 212.95 L59.25 210.8 59.2 210.95 59.15 211.85 59.1 212.15 59.1 212.35 59.1 213.1 59.15 213.45 58.8 213.9 Q57.6 213.7 56.7 213.05 L56.6 212.95" fill="#b3deec" fill-rule="evenodd" stroke="none"/>
    <path d="M55.0 185.55 L53.1 184.4 Q51.5 183.4 50.5 182.95 L50.55 182.85 51.1 182.8 54.65 183.2 56.0 183.6 56.0 183.65 56.05 183.85 56.35 185.4 56.85 186.2 57.2 186.85 55.8 186.0 55.6 185.8 Q55.25 185.5 55.0 185.55 M58.45 180.05 L59.35 180.05 60.4 181.1 61.4 182.4 62.65 184.15 64.4 185.8 64.65 186.4 64.9 187.3 64.4 188.8 64.0 189.4 63.6 188.85 Q62.9 188.15 61.75 187.75 L61.75 187.15 61.7 187.1 61.6 186.35 61.15 184.9 60.55 183.55 59.7 181.9 58.45 180.05 M69.7 180.05 L72.3 180.05 72.45 180.75 72.2 181.05 72.15 181.15 72.0 181.5 71.9 182.05 71.2 183.25 70.1 184.35 69.9 184.35 69.8 184.1 69.45 181.95 69.65 180.15 69.7 180.05 M60.45 215.7 L60.2 215.7 60.0 215.2 59.85 214.55 59.75 214.15 59.7 213.95 59.6 212.9 59.7 212.1 59.8 211.0 59.9 210.3 59.95 210.25 60.0 210.0 60.05 209.9 60.45 208.95 60.6 208.7 61.0 207.8 61.1 207.65 61.25 207.3 61.4 206.9 61.45 206.75 61.55 206.4 61.6 206.05 61.65 205.95 61.65 205.9 61.7 205.7 61.75 205.5 61.75 205.4 61.9 206.6 61.9 207.05 61.85 207.65 61.75 208.1 61.3 209.8 61.1 210.35 61.05 210.6 60.9 210.95 60.75 211.35 60.65 211.65 60.65 211.7 60.45 213.2 60.35 214.7 60.35 214.95 60.45 215.7 M53.3 215.4 L53.05 215.3 52.8 215.2 52.2 214.9 52.05 214.8 51.9 214.7 51.8 214.7 51.7 214.6 51.65 214.55 51.55 214.5 51.35 214.3 51.05 213.9 51.0 213.8 51.5 213.8 51.7 213.8 52.0 214.1 Q52.1 214.6 53.3 215.4 M50.0 198.6 L50.0 197.8 50.7 197.8 50.75 197.8 50.95 197.85 51.4 197.85 52.35 197.95 52.5 197.95 52.65 198.0 52.6 198.15 50.0 198.6 M50.0 193.2 L50.0 191.2 51.35 191.5 50.7 192.15 50.0 193.2 M50.0 190.15 L50.0 189.8 50.5 189.85 51.6 189.9 54.8 189.65 55.75 189.55 56.15 190.1 55.85 190.05 Q53.95 190.05 52.6 190.7 L50.7 190.3 50.0 190.15 M50.4 194.95 L50.35 194.8 50.75 193.6 51.4 192.5 51.9 191.9 52.15 191.7 53.55 191.0 53.9 190.85 54.2 190.85 54.6 190.9 55.4 190.8 58.45 191.6 58.5 191.6 59.0 191.95 57.4 191.8 56.6 191.95 56.1 192.1 55.75 192.1 55.05 192.2 Q54.05 192.4 52.65 193.1 L51.55 193.7 Q50.6 194.35 50.4 194.95 M59.2 194.3 L59.75 194.95 59.7 195.0 58.5 195.25 55.6 195.5 54.6 195.35 54.25 195.2 53.4 194.9 53.1 194.95 53.85 195.35 52.85 195.4 52.7 195.3 52.65 195.25 52.45 195.15 52.15 195.1 51.35 195.25 52.75 195.4 52.85 195.4 Q53.1 195.45 53.4 195.65 L54.45 196.15 53.95 196.45 53.55 196.45 50.95 196.3 50.2 196.2 Q50.7 195.5 51.35 195.25 L50.9 195.15 51.65 194.5 51.8 194.35 52.75 193.8 53.9 193.85 54.3 193.85 57.3 193.85 57.65 194.05 57.85 194.15 57.8 194.15 57.9 194.2 58.05 194.2 58.05 194.15 59.2 194.3 M60.6 198.8 L60.25 200.35 60.0 201.1 60.0 201.35 60.1 201.4 58.85 202.7 58.85 202.75 58.2 204.0 58.15 204.15 58.05 204.55 57.6 206.15 57.35 207.05 56.95 207.85 56.95 207.9 56.5 208.5 56.45 208.6 56.3 208.7 55.6 209.0 55.3 209.4 54.7 210.1 54.05 210.5 54.85 209.15 55.0 208.9 55.3 208.3 55.55 207.75 55.65 207.45 55.7 207.4 56.05 205.5 56.15 204.75 56.2 204.4 56.25 204.3 56.25 204.1 56.55 202.6 56.95 201.5 57.1 201.15 57.9 200.15 58.25 199.85 58.65 199.65 58.65 199.6 58.75 199.55 59.4 199.2 60.4 198.85 60.45 198.85 60.6 198.8 M65.1 187.75 L65.15 187.7 65.15 187.45 65.2 187.4 65.3 186.7 65.25 186.5 65.25 186.35 65.25 186.2 65.35 186.25 65.5 186.3 65.7 186.55 65.75 186.6 66.05 186.95 Q66.3 186.85 66.55 187.45 L66.55 187.5 66.7 187.65 66.7 187.8 66.6 188.45 66.55 188.75 66.1 189.5 65.85 189.15 65.45 188.45 65.1 187.75 M52.8 200.55 L52.65 199.5 52.85 198.8 53.25 198.0 53.25 197.95 53.45 197.65 53.55 197.45 54.3 197.0 54.85 196.65 54.95 196.65 55.8 196.95 56.9 197.0 56.7 197.15 Q56.1 197.45 55.35 198.05 L54.85 198.5 53.6 199.65 53.55 199.7 52.8 200.55 M58.6 197.75 L58.5 197.75 58.95 197.6 58.65 198.0 58.2 198.5 57.75 198.95 56.95 199.6 55.2 201.3 54.75 201.8 54.55 202.0 54.4 202.25 Q54.05 202.65 53.85 203.0 52.95 204.0 53.0 204.7 L52.9 203.15 Q52.9 202.5 53.05 201.95 53.4 200.75 54.5 199.85 L54.65 199.75 56.85 198.55 Q57.7 198.15 58.8 197.7 L58.6 197.75 M63.85 181.75 L64.55 182.05 64.95 182.35 65.9 183.95 66.1 184.15 66.1 184.2 66.35 184.55 66.65 184.8 66.8 184.95 66.9 184.95 67.3 185.2 67.4 185.15 67.45 185.15 67.4 185.1 67.25 184.9 Q67.0 184.55 66.9 183.9 L66.85 183.7 66.8 182.8 66.75 182.45 67.0 181.5 67.45 180.8 67.55 180.65 67.55 180.75 67.65 180.75 67.55 181.1 67.8 182.75 67.85 183.05 Q68.05 184.55 68.8 184.9 L68.85 184.9 68.95 185.0 68.05 185.95 67.75 186.25 67.5 186.3 67.0 186.35 66.7 186.4 65.75 185.8 65.2 185.5 64.85 185.25 64.5 184.9 63.8 184.2 63.6 183.05 63.55 182.8 62.95 181.45 63.35 181.5 63.45 181.5 63.85 181.75 M67.4 190.35 L68.15 189.85 68.35 189.85 Q69.7 190.15 70.35 190.65 71.2 191.25 71.25 192.5 L71.25 192.7 71.25 193.5 70.75 193.5 70.55 193.5 69.55 193.7 69.35 193.3 69.1 192.6 68.95 192.15 68.7 191.4 67.75 191.2 Q68.35 191.5 68.75 192.1 L68.85 192.2 69.2 193.35 69.2 193.4 68.75 194.15 68.7 194.15 68.6 194.25 68.3 194.7 68.45 195.6 68.45 195.65 68.6 196.15 68.55 196.2 68.65 196.25 69.0 196.5 69.25 196.45 69.65 196.6 70.05 197.45 70.6 198.7 Q71.05 199.4 71.85 199.8 L72.85 200.1 73.25 200.15 73.6 200.5 74.75 201.15 75.75 201.7 75.8 201.8 76.1 202.25 76.3 202.7 76.35 202.75 76.7 203.25 76.95 203.55 77.8 204.95 78.65 207.9 79.2 209.05 78.9 209.4 78.15 210.35 77.95 210.05 76.45 208.1 75.7 207.15 75.35 206.2 75.15 204.65 75.25 204.0 75.35 203.45 75.05 202.95 75.0 202.9 73.7 201.3 73.65 201.3 73.6 201.2 73.55 201.2 72.55 200.8 72.2 200.65 72.15 200.65 71.55 200.45 70.15 199.8 69.25 199.35 67.7 198.05 67.5 197.9 67.45 197.9 67.2 197.7 67.2 197.6 67.2 197.45 67.05 196.35 67.0 196.15 67.05 196.25 67.05 196.0 66.6 194.6 66.4 194.2 66.35 194.1 66.3 194.0 66.1 193.45 66.1 193.4 66.1 192.8 66.1 192.75 67.0 191.55 67.3 191.1 67.35 191.0 67.4 190.95 67.4 190.85 67.3 190.9 67.35 190.5 67.4 190.35 M72.9 193.75 L72.5 192.75 71.95 191.75 70.85 189.85 70.55 189.45 70.6 189.45 71.15 189.7 71.25 189.75 71.7 189.8 72.25 189.85 72.45 190.1 74.2 191.9 74.65 192.45 74.9 192.85 76.3 194.75 77.55 196.55 77.8 197.25 Q78.05 197.9 78.25 197.9 L78.45 197.85 77.55 196.2 76.95 194.65 76.65 192.85 76.5 191.75 76.6 191.7 76.75 191.15 76.85 191.2 76.9 191.35 77.55 192.4 77.65 192.5 77.65 192.8 77.65 193.05 77.65 193.1 77.75 193.7 77.9 194.45 Q78.85 195.1 79.25 196.65 L79.65 198.3 79.75 198.9 79.8 199.1 79.8 199.25 80.5 200.55 81.45 201.85 Q81.85 202.55 81.85 203.1 L81.95 204.5 82.55 205.85 83.5 207.45 83.85 208.0 83.85 208.5 83.65 208.6 Q83.1 209.0 81.6 209.2 L81.45 208.95 81.05 208.8 80.2 207.8 78.8 206.65 Q78.35 206.1 78.3 205.25 L78.0 203.45 75.75 199.7 75.7 199.65 75.8 199.5 75.85 199.45 75.9 199.4 75.9 199.25 75.9 199.1 Q75.9 197.8 75.25 196.15 L74.55 194.55 74.6 194.3 74.6 194.25 74.65 194.0 73.3 193.85 72.9 193.75 M63.1 195.35 L63.75 195.4 64.15 195.55 63.9 195.8 62.8 196.95 62.25 197.0 62.2 196.8 62.2 196.75 62.15 196.7 62.15 196.65 62.05 196.1 Q62.05 195.5 62.85 195.4 L63.1 195.35 M73.25 197.45 L72.95 197.35 73.4 197.65 73.7 198.3 73.6 198.7 73.2 199.1 73.1 199.1 72.15 198.9 71.85 198.65 71.65 197.7 Q71.65 197.15 71.95 197.1 L71.9 197.05 72.55 197.2 73.25 197.45 M72.95 203.25 L73.0 203.3 73.0 203.35 72.85 203.7 72.6 203.95 72.0 203.3 Q71.65 202.9 71.65 202.6 L71.7 202.35 71.75 202.25 71.9 202.1 72.05 202.1 72.55 202.7 72.95 203.25 M67.85 203.5 Q67.85 203.05 68.35 202.7 68.75 202.45 69.15 202.4 L69.35 202.35 Q69.55 202.35 69.55 202.75 L69.3 203.35 69.1 203.95 68.9 204.4 68.55 204.45 68.1 204.05 67.85 203.5 M65.7 199.4 L65.85 199.8 65.65 200.25 65.4 200.7 64.95 201.45 64.8 201.65 64.6 201.75 64.35 201.5 64.2 201.35 64.0 200.95 Q64.0 200.45 64.3 200.05 L64.45 199.9 Q64.8 199.55 65.25 199.35 L65.3 199.35 65.7 199.4 M62.7 199.05 L61.85 199.85 61.7 199.75 61.65 199.35 Q61.65 198.9 62.1 198.85 L62.3 198.85 62.35 198.85 62.75 199.0 62.7 199.05 M64.65 206.15 Q64.35 205.9 64.35 205.7 64.35 205.3 64.95 205.0 L65.85 204.7 66.1 205.1 65.05 206.45 64.65 206.15 M56.1 209.7 L56.4 209.4 56.65 209.05 56.85 208.85 57.25 208.3 57.8 207.55 58.25 206.7 58.35 206.5 58.9 205.35 59.3 204.7 59.5 204.4 60.25 203.25 60.3 203.35 60.3 203.45 60.35 203.6 60.35 203.7 60.15 204.65 60.05 204.95 59.65 205.8 59.0 206.9 58.95 207.0 57.45 209.0 57.15 209.25 56.7 209.55 56.3 209.7 56.25 209.75 56.1 209.7 M59.65 208.75 L59.7 208.95 59.8 209.15 59.6 209.75 59.1 209.4 59.5 209.0 59.65 208.75 M56.6 212.95 L55.7 212.15 55.2 211.7 55.75 210.9 55.9 210.75 Q57.35 210.35 58.5 209.55 L58.65 209.55 58.95 209.5 59.55 210.0 59.5 210.1 59.25 210.8 56.6 212.95 M56.4 213.1 L56.05 213.35 53.75 215.45 53.65 215.35 52.3 214.1 52.35 213.85 52.45 213.4 52.75 213.05 Q52.85 212.5 53.25 212.2 L53.35 211.7 53.95 211.85 55.05 211.85 56.4 213.1" fill="#ffffff" fill-rule="evenodd" stroke="none"/>
    <path d="M50.5 182.95 Q51.5 183.4 53.1 184.4 L55.0 185.55 54.9 185.8 55.0 186.7 55.1 187.45 53.2 186.0 51.6 184.4 50.35 183.3 50.5 182.95 M55.8 186.0 L57.2 186.85 57.3 187.1 56.2 186.4 55.8 186.0 M74.05 215.7 L72.85 215.7 72.35 215.1 71.9 213.9 71.7 213.1 71.55 212.5 71.35 211.85 71.65 212.2 71.25 211.05 70.8 210.45 70.7 210.3 70.65 210.3 69.95 209.4 69.9 209.55 70.15 210.5 70.15 210.55 70.6 212.55 70.3 214.0 69.7 215.6 69.3 213.95 69.05 212.65 69.0 210.85 68.7 210.25 68.75 209.9 68.65 209.15 68.65 209.3 68.6 210.0 68.35 210.9 68.3 211.1 67.65 212.55 67.0 213.35 67.0 213.5 66.9 213.7 66.9 213.4 66.7 213.4 66.9 213.2 Q66.85 210.65 66.3 208.8 L67.0 208.5 67.85 208.0 68.15 208.25 68.55 208.55 69.55 207.85 70.05 208.25 70.15 208.3 70.35 208.5 70.45 208.55 70.55 208.6 71.3 209.05 71.95 209.65 73.1 210.45 73.0 210.65 Q73.5 210.95 73.9 212.1 L74.35 213.95 74.05 215.7 M60.9 215.7 L60.45 215.7 60.35 214.95 60.35 214.7 60.45 213.2 60.65 211.7 60.65 211.65 60.75 211.35 60.9 210.95 61.05 210.6 61.1 210.35 61.3 209.8 61.75 208.1 61.85 207.65 61.9 207.05 61.9 206.6 61.75 205.4 61.75 205.0 61.65 204.55 61.1 205.45 60.85 205.95 60.4 206.75 60.3 206.9 59.65 207.8 58.2 209.15 57.85 209.35 56.25 210.15 56.0 210.3 55.3 210.55 55.65 210.2 56.1 209.7 56.25 209.75 56.3 209.7 56.7 209.55 57.15 209.25 57.45 209.0 58.95 207.0 59.0 206.9 59.65 205.8 60.05 204.95 60.15 204.65 60.35 203.7 60.35 203.6 60.3 203.45 60.3 203.35 60.25 203.25 59.5 204.4 59.3 204.7 58.9 205.35 59.1 204.65 59.2 204.3 59.4 203.25 58.7 204.15 58.5 204.55 58.3 204.95 57.75 206.3 57.55 206.8 56.95 207.85 57.35 207.05 57.6 206.15 58.05 204.55 58.15 204.15 58.2 204.0 58.85 202.75 58.85 202.7 60.1 201.4 60.45 201.65 60.45 201.6 60.85 201.9 61.1 202.1 61.2 202.15 62.15 202.8 62.1 203.0 62.1 203.05 62.1 204.15 62.95 204.75 63.0 204.8 63.0 205.6 63.05 205.75 63.15 206.85 63.55 208.7 63.5 208.75 63.4 208.9 62.95 209.45 62.2 210.45 62.05 210.7 61.45 212.05 61.05 213.85 Q60.9 214.65 60.9 215.7 M58.8 215.7 L57.5 215.7 58.7 214.05 59.25 214.15 59.4 214.7 58.8 215.7 M50.0 201.2 L50.0 200.55 50.85 200.35 50.0 201.2 M50.0 200.15 L50.0 198.6 52.6 198.15 52.4 198.45 52.25 198.9 52.15 199.2 50.0 200.15 M50.0 197.8 L50.0 196.55 50.2 196.2 50.95 196.3 53.55 196.45 53.95 196.45 Q53.25 196.9 52.8 197.75 L50.8 197.8 50.95 197.85 50.75 197.8 50.7 197.8 50.0 197.8 M50.0 191.2 L50.0 191.15 50.45 191.15 50.85 191.1 51.1 191.0 50.0 190.6 50.0 190.15 50.7 190.3 52.6 190.7 51.35 191.5 50.0 191.2 M58.5 191.6 L59.0 191.8 59.05 191.8 58.1 191.0 57.85 190.75 56.35 189.5 56.2 189.2 55.95 188.7 55.95 188.65 55.9 188.55 55.85 188.4 55.85 188.35 55.7 187.9 55.7 187.8 55.55 187.3 55.5 186.75 Q55.75 187.45 56.35 188.2 L57.2 189.0 57.65 189.4 Q58.85 190.25 60.15 190.45 L60.25 191.9 59.85 192.35 Q58.85 193.45 58.9 193.9 L59.2 194.3 58.05 194.15 58.05 194.05 57.65 193.85 57.05 193.65 55.75 193.35 52.85 193.75 52.75 193.8 51.8 194.35 51.65 194.5 50.9 195.15 50.8 195.25 50.8 195.3 50.45 195.5 50.4 194.95 Q50.6 194.35 51.55 193.7 L52.65 193.1 Q54.05 192.4 55.05 192.2 L55.75 192.1 56.1 192.1 56.6 191.95 57.4 191.8 59.0 191.95 58.5 191.6 M59.75 194.95 L59.8 195.0 60.9 196.4 60.85 196.45 60.8 196.5 60.5 197.4 60.45 197.45 60.2 198.3 60.25 198.45 60.4 198.45 60.6 198.65 60.6 198.7 60.6 198.8 60.45 198.85 60.4 198.85 59.4 199.2 58.75 199.55 58.65 199.6 58.65 199.5 58.6 199.5 58.4 199.5 58.05 199.7 57.35 200.1 57.15 200.25 Q56.05 200.9 55.0 201.85 L54.95 201.9 54.9 201.9 54.55 202.25 53.85 203.0 Q54.05 202.65 54.4 202.25 L54.55 202.0 54.75 201.8 55.2 201.3 56.95 199.6 57.75 198.95 58.2 198.5 58.65 198.0 58.95 197.6 58.5 197.75 58.6 197.75 56.1 198.25 55.65 198.45 54.15 199.35 53.1 200.4 52.85 200.65 52.8 200.65 52.8 200.55 53.55 199.7 53.6 199.65 54.85 198.5 55.35 198.05 Q56.1 197.45 56.7 197.15 L56.9 197.0 55.8 196.95 54.95 196.65 55.05 196.65 55.4 196.65 Q55.65 196.65 55.9 196.45 L55.6 196.3 55.35 196.15 53.85 195.35 53.1 194.95 53.4 194.9 54.25 195.2 54.6 195.35 55.6 195.5 58.5 195.25 59.7 195.0 59.75 194.95 M58.7 188.7 L58.75 188.65 Q60.1 188.85 60.55 189.6 L60.5 189.65 60.4 189.65 60.45 189.7 60.15 190.15 Q59.1 190.0 58.15 189.4 L57.2 188.6 56.85 188.2 56.0 187.0 56.5 187.3 Q57.35 187.8 57.7 187.8 L57.75 187.8 58.45 188.8 58.7 188.75 58.7 188.7 M53.9 193.85 L54.9 193.65 55.85 193.55 55.9 193.55 56.05 193.55 56.15 193.6 56.25 193.6 56.3 193.6 56.4 193.6 57.3 193.85 54.3 193.85 53.9 193.85 M52.85 195.4 L52.75 195.4 51.35 195.25 52.15 195.1 52.45 195.15 52.65 195.25 52.7 195.3 52.85 195.4 M52.5 197.95 L52.65 197.95 52.65 198.0 52.5 197.95 M56.3 208.7 L54.7 210.1 55.3 209.4 55.6 209.0 56.3 208.7 M60.45 208.95 L60.85 208.15 61.0 207.8 60.6 208.7 60.45 208.95 M64.0 209.3 L65.2 209.15 64.25 210.45 63.6 211.25 Q61.85 213.35 61.55 214.35 L61.7 213.05 61.95 212.1 62.4 211.05 62.6 210.7 62.75 210.45 63.7 209.0 63.7 209.1 63.8 209.25 64.0 209.3 M59.15 213.45 L59.2 213.95 58.8 213.9 59.15 213.45" fill="#c7e6ef" fill-rule="evenodd" stroke="none"/>
    <path d="M66.3 194.0 L66.35 194.1 66.4 194.2 66.6 194.6 67.05 196.0 67.05 196.25 67.0 196.15 67.0 196.0 66.6 195.0 66.45 194.65 66.3 194.1 66.3 194.0 M67.05 196.35 L67.2 197.45 67.2 197.6 67.05 197.1 67.05 196.95 67.05 196.35" fill="#665542" fill-rule="evenodd" stroke="none"/>
    <path d="M69.15 196.0 L69.35 196.1 69.15 196.1 69.15 196.0" fill="#404040" fill-rule="evenodd" stroke="none"/>
    <path d="M73.25 197.45 L73.4 197.6 74.1 198.75 74.3 199.25 74.15 199.45 73.7 199.6 73.05 199.55 72.0 199.25 71.5 198.95 70.85 198.2 70.7 197.65 70.95 196.85 71.05 196.9 71.15 196.9 71.2 196.9 71.4 196.95 71.8 197.05 71.9 197.05 71.95 197.1 Q71.65 197.15 71.65 197.7 L71.85 198.65 72.15 198.9 73.1 199.1 73.2 199.1 73.6 198.7 73.7 198.3 73.4 197.65 72.95 197.35 73.25 197.45" fill="#5bcae1" fill-rule="evenodd" stroke="none"/>
    <path d="M76.8 213.35 L76.95 213.3 76.85 213.4 76.8 213.5 76.8 213.35 M76.95 211.65 L76.95 211.55 77.0 211.6 76.95 211.65" fill="#a68a6c" fill-rule="evenodd" stroke="none"/>
    <path d="M52.05 210.9 L50.95 209.7 51.05 209.75 51.1 209.85 51.3 209.9 51.3 209.95 52.05 210.85 52.1 210.9 52.05 210.9" fill="#253325" fill-rule="evenodd" stroke="none"/>
    <path d="M51.65 209.75 L51.85 210.2 51.55 209.85 51.65 209.75" fill="#567356" fill-rule="evenodd" stroke="none"/>
  </g>
</svg>
