<?xml version="1.0" encoding="UTF-8" standalone="no"?>
<svg xmlns:ffdec="https://www.free-decompiler.com/flash" xmlns:xlink="http://www.w3.org/1999/xlink" ffdec:objectType="shape" height="123.0px" width="350.95px" xmlns="http://www.w3.org/2000/svg">
  <g transform="matrix(1.0, 0.0, 0.0, 1.0, 0.0, 0.0)">
    <path d="M350.95 19.0 L350.95 104.0 Q350.95 123.0 331.95 123.0 L19.0 123.0 Q0.0 123.0 0.0 104.0 L0.0 19.0 Q0.0 0.0 19.0 0.0 L331.95 0.0 Q350.95 0.0 350.95 19.0" fill="#968105" fill-rule="evenodd" stroke="none"/>
    <path d="M346.95 19.0 L346.95 104.0 Q346.95 119.0 331.95 119.0 L19.0 119.0 Q4.0 119.0 4.0 104.0 L4.0 19.0 Q4.0 4.0 19.0 4.0 L331.95 4.0 Q346.95 4.0 346.95 19.0" fill="#000000" fill-opacity="0.7490196" fill-rule="evenodd" stroke="none"/>
    <path d="M346.95 19.0 Q346.95 4.0 331.95 4.0 L19.0 4.0 Q4.0 4.0 4.0 19.0 L4.0 104.0 Q4.0 119.0 19.0 119.0 L331.95 119.0 Q346.95 119.0 346.95 104.0 L346.95 19.0 M331.95 2.0 Q348.95 2.0 348.95 19.0 L348.95 104.0 Q348.95 121.0 331.95 121.0 L19.0 121.0 Q2.0 121.0 2.0 104.0 L2.0 19.0 Q2.0 2.0 19.0 2.0 L331.95 2.0" fill="#d7bc22" fill-rule="evenodd" stroke="none"/>
  </g>
</svg>
