<?xml version="1.0" encoding="UTF-8" standalone="no"?>
<svg xmlns:ffdec="https://www.free-decompiler.com/flash" xmlns:xlink="http://www.w3.org/1999/xlink" ffdec:objectType="shape" height="191.0px" width="289.05px" xmlns="http://www.w3.org/2000/svg">
  <g transform="matrix(1.0, 0.0, 0.0, 1.0, 77.3, 0.3)">
    <path d="M-45.75 -0.3 L198.9 -0.3 201.15 0.25 201.15 0.35 Q211.75 3.0 211.75 16.2 L211.75 178.5 211.65 178.9 210.4 182.0 209.6 184.2 209.45 184.2 Q206.8 188.65 201.15 190.05 L201.15 190.15 199.9 190.25 197.85 190.7 -45.75 190.7 Q-55.8 190.7 -59.7 184.6 L-60.7 182.45 -61.1 181.7 Q-61.3 180.15 -61.8 178.1 L-62.25 176.45 -62.25 159.2 -76.9 144.55 Q-77.3 144.1 -77.3 143.55 -77.3 143.0 -76.9 142.6 L-62.25 127.95 -62.25 16.2 Q-62.25 -0.3 -45.75 -0.3 M201.15 3.6 Q199.35 2.95 197.15 2.8 L195.95 2.7 -45.75 2.7 Q-59.25 2.7 -59.25 16.2 L-59.25 23.95 -59.2 23.95 -59.2 24.2 -59.15 24.2 -59.15 116.2 -59.2 116.2 -59.2 120.55 -59.15 120.55 -59.15 128.75 -73.95 143.55 -59.15 158.35 -59.15 170.2 -59.2 170.2 -59.2 173.95 -59.25 173.95 -59.25 174.85 Q-59.1 181.0 -56.0 184.2 -52.6 187.7 -45.75 187.7 L196.1 187.7 197.15 187.65 201.15 186.9 Q203.8 186.0 205.5 184.2 208.6 181.0 208.75 174.85 L208.75 16.2 Q208.75 6.1 201.15 3.6" fill="#b28e2d" fill-rule="evenodd" stroke="none"/>
    <path d="M201.15 3.6 Q208.75 6.1 208.75 16.2 L208.75 174.85 Q208.6 181.0 205.5 184.2 203.8 186.0 201.15 186.9 L197.15 187.65 196.1 187.7 -45.75 187.7 Q-52.6 187.7 -56.0 184.2 -59.1 181.0 -59.25 174.85 L-59.25 173.95 -59.2 173.95 -59.2 170.2 -59.15 170.2 -59.15 158.35 -73.95 143.55 -59.15 128.75 -59.15 120.55 -59.2 120.55 -59.2 116.2 -59.15 116.2 -59.15 24.2 -59.2 24.2 -59.2 23.95 -59.25 23.95 -59.25 16.2 Q-59.25 2.7 -45.75 2.7 L195.95 2.7 197.15 2.8 Q199.35 2.95 201.15 3.6" fill="#333333" fill-rule="evenodd" stroke="none"/>
  </g>
</svg>
