<?xml version="1.0" encoding="UTF-8" standalone="no"?>
<svg xmlns:ffdec="https://www.free-decompiler.com/flash" xmlns:xlink="http://www.w3.org/1999/xlink" ffdec:objectType="shape" height="200.1px" width="158.25px" xmlns="http://www.w3.org/2000/svg">
  <g transform="matrix(1.0, 0.0, 0.0, 1.0, 38.0, 208.85)">
    <path d="M66.0 -207.85 L65.5 -207.1 62.95 -207.2 Q60.3 -207.4 60.0 -207.85 L60.6 -208.45 61.0 -208.85 Q65.5 -208.6 66.0 -207.85 M114.8 -176.05 Q112.3 -174.3 105.0 -170.35 L101.5 -169.6 101.7 -170.05 102.5 -171.1 Q107.0 -172.55 112.8 -177.35 L120.25 -183.1 Q120.1 -179.85 114.8 -176.05 M84.15 -166.25 L81.5 -166.6 81.5 -167.35 83.55 -167.4 Q85.35 -167.3 86.0 -166.85 85.65 -166.3 84.15 -166.25 M77.25 -164.6 L74.05 -163.65 69.75 -162.85 69.0 -162.1 Q12.3 -153.35 -15.2 -129.4 -36.95 -110.5 -36.5 -87.0 -36.5 -86.25 -37.0 -85.75 -38.0 -88.4 -38.0 -92.6 -38.0 -116.75 -11.6 -135.55 18.9 -157.25 78.25 -166.1 78.25 -165.35 77.25 -164.6 M2.25 -8.75 L1.5 -8.75 -1.0 -26.15 Q-3.15 -36.9 -7.25 -43.25 -9.55 -46.85 -14.35 -51.8 L-22.8 -60.2 Q-32.8 -70.45 -32.5 -77.0 L-31.75 -77.25 Q-27.4 -69.2 -20.5 -60.8 L-9.1 -47.7 Q-3.0 -40.55 -0.3 -35.15 3.25 -28.1 3.25 -20.35 3.25 -13.75 2.25 -8.75" fill="#ffffff" fill-opacity="0.5019608" fill-rule="evenodd" stroke="none"/>
  </g>
</svg>
