<?xml version="1.0" encoding="UTF-8" standalone="no"?>
<svg xmlns:ffdec="https://www.free-decompiler.com/flash" xmlns:xlink="http://www.w3.org/1999/xlink" ffdec:objectType="shape" height="92.75px" width="103.0px" xmlns="http://www.w3.org/2000/svg">
  <g transform="matrix(1.0, 0.0, 0.0, 1.0, 54.75, 103.25)">
    <path d="M44.35 -51.1 Q40.55 -46.4 39.5 -45.75 L45.05 -56.0 Q46.25 -58.15 46.25 -63.35 46.25 -66.3 41.15 -71.0 35.95 -75.7 31.5 -76.75 30.5 -77.75 30.5 -78.25 42.4 -73.95 45.9 -68.8 48.25 -65.25 48.25 -57.0 48.25 -55.95 44.35 -51.1 M9.05 -13.7 L7.25 -10.5 6.5 -10.5 6.25 -11.6 Q6.95 -13.3 8.3 -14.85 L10.25 -16.5 9.05 -13.7 M-27.4 -91.9 L-45.2 -89.2 -47.0 -89.0 -50.2 -89.05 -54.5 -89.5 -54.75 -91.0 Q-53.85 -93.15 -49.05 -97.95 -44.4 -102.65 -42.75 -103.25 -43.85 -101.75 -47.7 -97.6 -51.05 -94.1 -52.25 -92.0 L-52.45 -91.7 -53.0 -91.25 -42.05 -91.85 -33.0 -92.25 -29.3 -92.1 -27.5 -92.0 -27.4 -91.9" fill="#ffffff" fill-opacity="0.5019608" fill-rule="evenodd" stroke="none"/>
  </g>
</svg>
