<?xml version="1.0" encoding="UTF-8" standalone="no"?>
<svg xmlns:ffdec="https://www.free-decompiler.com/flash" xmlns:xlink="http://www.w3.org/1999/xlink" ffdec:objectType="shape" height="81.6px" width="66.0px" xmlns="http://www.w3.org/2000/svg">
  <g transform="matrix(1.0, 0.0, 0.0, 1.0, 19.5, 79.1)">
    <path d="M23.25 -51.35 Q23.25 -58.0 15.1 -64.5 7.15 -70.8 -4.35 -73.75 -11.45 -75.6 -18.0 -75.55 L-18.05 -75.55 -19.5 -77.0 Q6.15 -82.4 25.9 -73.8 46.5 -64.8 46.5 -46.0 46.5 -33.95 34.8 -23.3 30.25 -19.15 20.55 -12.0 L1.0 2.5 -0.9 2.45 Q-1.5 2.35 -1.5 0.75 -1.5 -0.9 2.4 -5.35 L11.0 -15.25 Q23.5 -31.0 23.5 -46.1 23.5 -47.0 23.1 -48.3 L23.25 -51.35" fill="#ffffff" fill-opacity="0.5019608" fill-rule="evenodd" stroke="none"/>
  </g>
</svg>
