<?xml version="1.0" encoding="UTF-8" standalone="no"?>
<svg xmlns:ffdec="https://www.free-decompiler.com/flash" xmlns:xlink="http://www.w3.org/1999/xlink" ffdec:objectType="shape" height="42.95px" width="417.15px" xmlns="http://www.w3.org/2000/svg">
  <g transform="matrix(1.0, 0.0, 0.0, 1.0, 6.4, -40.35)">
    <path d="M63.9 51.4 Q64.85 53.05 65.95 53.5 L66.15 53.8 66.9 54.65 67.75 55.65 67.8 57.15 67.25 65.4 Q66.55 63.6 66.55 62.4 66.55 61.8 67.05 60.9 67.55 60.05 67.55 59.4 67.55 58.65 67.2 58.15 L66.55 57.3 66.25 57.3 65.55 60.45 Q65.3 61.55 65.3 64.0 L65.3 64.1 Q64.65 63.2 63.65 63.25 L64.25 62.55 63.75 61.8 63.0 61.8 63.0 61.6 Q63.0 60.8 62.7 60.45 L62.0 60.05 Q60.5 61.55 60.5 63.0 60.5 63.85 60.7 64.0 L61.35 64.2 61.45 64.35 Q60.4 64.45 59.95 64.9 L59.5 65.5 58.1 65.35 59.8 64.05 59.55 63.3 Q56.85 63.3 55.55 64.55 L55.6 64.6 55.5 64.55 54.0 64.55 Q53.1 64.55 52.1 65.15 51.05 65.8 51.05 66.5 L51.05 66.9 49.25 67.25 49.0 67.25 49.0 67.3 46.55 67.85 47.05 67.6 Q48.8 66.8 48.8 66.25 L48.75 65.5 48.55 65.3 Q47.3 65.25 45.3 66.25 L44.5 66.7 44.75 67.05 43.65 68.25 44.35 68.3 42.5 68.85 42.55 68.7 42.0 68.8 Q41.3 68.55 41.1 67.7 L40.05 68.0 39.85 68.1 Q40.2 68.25 40.55 68.55 L39.9 69.55 38.55 70.15 38.0 70.5 38.0 70.3 37.25 70.1 37.05 69.1 Q37.05 68.65 37.4 68.35 L37.0 68.0 36.35 68.7 35.5 69.3 34.95 69.4 34.7 69.6 Q34.3 70.0 34.3 70.75 L34.25 71.55 32.9 71.75 30.6 71.35 Q30.0 70.85 30.0 69.9 L29.25 70.05 29.25 70.25 28.95 70.3 Q28.5 70.45 28.35 70.95 14.15 68.25 4.8 65.25 6.2 64.25 7.95 63.4 L7.75 64.35 Q7.75 65.6 8.05 65.05 L9.5 65.25 13.0 64.3 Q14.55 63.85 14.55 63.0 L14.4 62.2 15.0 62.25 15.55 62.0 15.55 62.1 15.75 63.1 16.5 63.3 19.2 62.55 19.3 62.55 Q19.35 63.25 19.65 63.55 L20.5 64.0 21.8 63.5 22.05 62.3 21.55 61.55 20.75 61.45 20.75 61.25 20.6 60.5 Q21.7 60.15 22.25 59.55 L21.75 58.8 21.5 58.75 22.85 58.4 22.55 58.8 23.55 59.55 24.5 59.7 Q23.25 60.5 23.25 61.35 23.25 62.15 23.6 62.45 L24.5 62.75 26.0 62.75 27.2 61.95 Q27.75 61.3 27.75 60.85 L27.65 59.8 27.5 59.3 27.2 59.2 27.75 59.05 Q27.75 59.75 28.05 60.05 29.0 60.0 29.25 59.55 28.95 59.1 28.4 59.0 L27.85 59.0 30.0 58.25 31.25 57.8 31.25 61.3 31.5 61.55 31.75 61.3 31.65 57.7 34.5 56.75 35.2 55.95 35.75 55.85 Q34.55 56.5 34.55 57.1 34.55 57.85 34.7 58.1 L34.8 58.3 39.65 57.55 Q41.05 57.2 41.8 56.05 L41.55 55.3 40.65 55.05 41.0 55.0 44.55 54.5 44.9 54.95 46.0 56.0 48.0 55.55 Q48.95 55.25 49.05 54.3 L48.7 53.9 53.8 53.25 Q52.8 53.75 52.3 54.25 L52.6 54.9 53.5 55.55 57.0 55.55 Q58.45 55.2 58.8 54.55 L56.9 52.85 60.4 52.45 Q62.8 52.1 63.9 51.4 M71.55 58.3 L72.25 58.65 72.25 58.85 72.25 59.1 72.15 59.05 71.55 58.3 M76.35 60.15 L77.25 60.4 76.7 60.6 76.35 60.15 M78.65 60.75 L80.25 61.05 Q79.5 61.1 79.1 61.55 L78.65 60.8 78.65 60.75 M81.25 61.2 L83.5 61.35 84.25 61.35 Q90.65 61.35 92.7 62.25 93.75 62.7 95.05 63.6 L95.35 63.75 96.0 63.9 97.5 64.75 99.9 65.9 103.0 67.2 103.15 67.3 103.65 67.5 104.35 67.6 106.8 68.05 107.1 68.8 108.0 69.25 109.3 68.6 109.75 68.7 Q108.8 69.1 108.8 69.85 L108.8 70.0 108.5 70.0 Q107.25 70.15 107.25 71.5 107.25 72.25 107.5 72.4 L107.75 72.5 111.0 72.85 111.0 73.0 Q110.8 73.05 110.65 73.2 L108.35 73.3 Q107.8 73.75 107.75 74.45 106.25 73.85 104.85 74.1 L103.6 73.55 Q102.2 73.05 101.5 73.05 L101.3 74.15 Q101.3 74.5 101.6 74.9 L102.25 75.45 101.95 75.8 101.5 75.8 100.6 76.1 Q100.35 76.3 100.3 76.95 L99.1 76.8 Q96.15 76.75 95.8 79.05 L96.7 79.6 95.0 79.45 95.8 78.55 95.55 77.8 95.35 77.75 95.5 77.6 96.0 77.0 Q95.45 75.75 95.0 75.55 93.7 75.5 93.25 75.95 93.0 76.25 93.0 76.9 L93.1 77.75 92.5 77.75 91.9 78.25 89.75 78.1 90.05 77.8 Q88.75 77.65 87.8 76.9 87.35 76.5 86.25 77.25 L86.35 77.55 84.95 76.8 85.0 76.75 Q85.5 76.35 85.5 75.1 L85.4 74.3 85.3 74.25 83.65 74.2 83.2 74.4 81.4 73.15 82.15 72.6 Q83.0 71.95 83.0 71.5 83.0 70.75 82.8 70.65 L82.55 70.5 81.2 70.4 Q82.55 69.45 82.55 68.35 82.55 67.8 81.0 66.8 L78.25 67.0 78.25 66.55 Q78.25 65.65 76.8 65.4 L75.85 65.35 75.75 64.8 74.6 64.65 74.6 64.6 75.55 64.55 75.55 64.25 75.7 63.95 75.85 63.55 76.0 63.75 76.05 64.55 76.3 64.75 76.45 64.9 77.5 65.0 Q78.75 65.0 78.8 64.55 L79.0 64.3 79.05 64.4 Q79.75 65.3 80.75 65.3 81.3 65.3 81.75 64.75 82.3 64.1 82.3 63.0 82.3 61.55 81.25 61.2 M259.45 71.25 L260.05 71.15 260.05 71.4 Q260.25 72.3 261.4 72.3 263.5 72.3 263.65 70.65 L274.2 69.35 274.25 69.35 Q277.25 68.9 278.75 68.1 281.85 67.5 286.85 65.2 L291.6 62.95 294.15 61.45 297.15 59.4 297.15 59.35 Q298.75 58.15 299.8 57.7 L303.4 56.5 304.15 56.65 304.5 56.65 306.8 56.15 307.3 56.15 Q310.25 56.25 311.15 55.45 L311.2 55.35 312.5 54.5 312.5 54.55 Q313.4 53.75 313.8 52.95 L315.6 50.65 313.9 53.55 314.2 53.7 313.15 54.65 313.3 55.05 Q312.75 55.15 312.05 55.65 L310.1 57.3 310.05 56.85 307.15 58.45 307.15 58.6 307.2 59.0 Q305.55 59.6 305.55 61.1 305.55 61.7 306.05 62.25 L307.15 62.9 307.05 63.9 307.05 63.95 306.65 63.95 305.9 64.05 305.85 64.5 305.8 64.45 305.55 64.3 Q303.15 63.9 303.15 65.6 303.15 66.5 303.4 66.85 L304.4 67.55 Q305.15 67.0 306.05 65.35 L307.3 66.45 Q306.55 67.1 306.55 67.5 306.55 68.25 306.7 68.3 L306.8 68.3 307.0 68.4 307.75 68.5 307.8 68.55 308.1 68.55 308.2 69.1 307.9 69.0 Q307.45 69.0 306.6 69.75 305.8 70.45 305.8 70.85 305.8 71.45 305.95 71.75 L305.9 71.75 Q305.0 72.45 304.4 73.3 L305.3 74.1 305.55 74.55 Q303.15 75.8 303.15 76.85 L303.2 77.0 301.8 77.25 301.7 76.7 300.65 77.8 Q299.6 78.55 298.65 78.55 L297.45 78.25 297.55 78.8 297.65 79.25 297.95 79.4 299.15 79.5 299.65 79.45 299.65 79.8 299.1 79.85 297.85 79.95 Q296.5 78.6 294.75 79.0 293.2 79.35 292.7 80.3 L291.2 80.4 271.8 81.6 270.5 81.65 271.05 81.05 270.55 80.05 Q268.75 80.0 268.0 80.5 267.45 79.45 265.55 79.95 L264.25 80.45 263.9 80.1 263.5 79.0 263.65 78.75 Q264.3 77.8 264.3 76.25 L264.1 75.3 263.4 75.05 Q261.95 75.25 261.0 76.0 L260.9 76.1 260.95 75.7 261.05 74.55 260.95 73.5 260.8 73.05 Q259.25 72.5 258.55 73.4 L258.2 74.2 257.95 74.1 Q259.15 71.85 259.5 71.5 L259.45 71.25 M316.2 49.6 Q317.5 47.05 317.5 44.5 L317.5 43.65 317.75 43.65 317.95 43.7 Q318.25 45.0 317.7 46.7 L317.4 46.65 317.35 47.45 316.8 48.5 316.2 49.6 M318.95 44.25 L319.3 44.55 Q319.15 44.55 319.15 44.8 L319.1 44.65 318.95 44.25 M319.35 45.45 L320.45 46.9 320.55 47.0 319.2 46.85 319.4 46.15 319.35 45.45 M393.95 65.3 Q382.8 68.8 364.9 71.95 L365.55 71.3 365.05 70.55 Q365.15 70.3 364.0 70.3 364.4 70.85 364.4 71.55 L364.4 72.05 360.85 72.65 Q358.3 71.65 357.65 70.55 L355.4 71.25 355.15 70.65 Q354.85 70.15 354.4 70.0 L353.25 70.05 353.05 70.75 350.4 71.0 Q347.15 71.0 346.2 69.8 L345.95 69.3 345.15 69.3 344.9 69.3 342.95 68.8 Q341.75 68.3 341.4 67.8 L341.4 66.75 342.95 66.6 342.9 66.55 340.65 66.5 340.65 66.55 Q340.65 68.55 339.15 68.55 337.55 68.55 335.5 67.65 L334.0 66.9 Q332.4 67.05 332.3 67.5 L332.5 68.15 331.4 68.3 331.55 67.5 330.4 67.75 329.2 67.4 327.9 67.0 327.2 66.75 Q326.9 66.55 326.9 65.75 326.9 64.95 327.35 64.65 326.75 63.95 325.6 64.0 323.75 64.05 323.45 65.8 L322.75 64.7 322.8 64.4 322.8 64.3 322.5 64.3 322.05 63.75 322.05 63.65 321.9 63.4 322.15 63.05 321.6 62.0 321.8 61.6 321.8 61.5 321.65 60.8 320.6 60.45 319.9 59.8 Q320.25 58.15 320.95 57.85 L320.9 57.85 320.4 58.0 320.15 58.15 320.25 57.9 319.3 57.0 Q318.8 56.6 318.8 56.15 318.8 54.1 320.45 54.1 L321.0 54.15 320.95 54.1 320.15 53.8 318.9 53.55 318.65 53.55 318.55 53.3 317.4 53.05 317.05 53.3 316.55 53.85 316.15 52.4 316.1 52.0 316.4 52.3 321.15 52.45 321.15 52.6 Q321.15 53.85 321.3 54.0 L322.55 54.35 323.1 54.45 Q322.8 54.6 322.8 55.35 322.8 56.6 323.15 56.05 L324.4 56.5 325.65 55.5 325.05 54.5 324.35 54.5 324.85 54.25 325.3 53.75 324.95 52.55 326.2 52.6 326.15 52.85 326.7 54.0 Q327.4 55.3 328.4 55.3 329.6 55.3 330.3 54.75 330.9 54.25 330.9 53.5 L330.75 52.85 333.5 53.0 333.15 53.05 332.9 53.5 335.3 54.05 335.35 54.05 Q334.65 54.3 334.15 55.05 L335.9 56.5 337.15 56.2 337.65 55.55 337.2 54.4 343.1 55.6 340.9 55.5 340.65 55.7 340.4 56.05 Q341.1 56.65 342.4 57.05 342.2 57.2 342.15 57.5 L342.15 57.75 354.7 58.9 Q354.4 59.0 354.25 59.35 L353.8 59.1 Q352.4 58.3 349.4 58.55 348.55 58.9 348.55 59.75 L349.4 60.3 351.75 60.65 352.9 60.8 354.8 60.35 355.05 60.55 356.55 61.0 Q357.15 61.0 357.65 60.55 L357.55 59.8 355.6 58.85 355.9 58.3 355.9 58.0 Q354.8 57.45 353.2 57.0 L354.4 57.05 356.0 56.7 356.45 56.6 358.3 57.15 358.4 57.2 358.4 57.25 356.3 57.3 Q356.15 58.0 356.15 58.75 L356.45 58.9 356.15 59.05 364.55 62.05 366.65 62.05 367.15 61.75 367.05 60.55 366.55 60.3 371.75 61.05 373.6 60.9 374.65 60.55 374.2 60.2 373.8 60.0 371.05 59.75 370.95 58.8 377.75 59.8 377.4 59.75 377.1 59.9 Q376.75 60.05 376.65 60.5 L377.05 61.0 375.55 60.8 Q373.8 60.95 372.8 61.75 373.5 63.2 374.9 63.8 L376.9 63.8 377.8 63.25 378.3 62.25 377.75 61.4 378.05 61.55 381.4 62.25 381.75 62.05 382.65 62.3 382.65 62.35 Q382.65 62.85 382.8 63.25 L382.7 63.15 381.9 62.55 379.4 62.55 Q378.55 62.9 378.55 63.75 L379.4 64.3 382.15 64.8 383.15 64.5 383.65 64.05 385.4 64.3 387.05 64.0 387.25 63.6 387.3 63.55 390.15 64.25 391.0 64.1 393.75 65.2 393.95 65.3 M343.55 75.2 L343.3 75.25 341.95 75.4 342.05 74.85 342.05 74.8 343.55 75.2 M118.1 81.1 L117.7 81.05 117.65 80.95 118.1 81.0 118.1 81.1 M114.25 80.85 L113.1 80.8 113.55 79.95 113.55 79.9 Q113.6 80.6 113.8 80.05 L114.3 80.2 114.25 80.85 M104.65 80.2 L102.95 80.1 101.25 79.95 102.0 79.0 102.0 78.55 102.05 78.55 102.5 79.05 Q103.35 79.8 104.65 80.2 M82.45 78.35 L81.5 78.25 81.1 78.0 Q81.8 78.0 82.25 77.6 L82.3 77.6 82.45 78.35 M77.55 77.85 L77.05 77.8 77.2 77.55 77.55 77.8 77.55 77.85 M45.4 73.8 L43.7 73.55 43.15 73.45 46.05 72.75 46.55 72.6 46.65 72.85 46.8 73.05 47.2 73.05 46.7 73.2 45.4 73.8 M39.55 72.9 L38.15 72.65 36.75 72.4 36.8 72.3 39.55 72.9 M361.3 58.25 L363.85 59.45 359.85 58.65 360.8 58.05 360.8 57.95 361.3 58.25 M363.55 69.3 L362.7 69.45 363.8 70.1 363.8 70.05 363.55 69.3 M352.55 68.5 L352.15 68.5 352.65 68.95 352.55 68.5 M330.05 55.25 L330.35 55.65 331.4 55.8 332.65 55.6 333.15 55.05 333.05 54.3 331.65 54.3 Q330.85 54.45 330.05 55.25 M341.05 53.75 L339.65 53.75 338.4 53.5 341.05 53.75 M330.55 64.8 L329.9 64.75 330.65 65.0 330.55 64.8 M326.15 70.85 L325.5 70.75 325.6 70.6 325.8 70.5 326.15 70.85 M316.95 54.65 L317.65 54.95 317.65 55.5 317.45 57.0 317.35 57.35 317.4 57.45 Q317.8 58.2 317.8 59.0 L317.45 59.65 317.65 59.8 318.35 60.25 318.35 60.35 317.95 60.7 316.9 59.3 317.05 59.2 317.05 58.35 316.8 57.4 Q316.4 57.3 316.15 57.05 L315.7 57.05 Q316.05 56.6 316.65 56.3 L316.8 56.5 317.65 55.75 316.95 54.65 M318.05 62.25 L318.15 62.3 318.35 62.65 Q318.55 62.9 318.55 63.6 318.55 64.35 318.05 65.2 L317.55 66.05 317.65 66.3 317.85 66.55 318.15 66.55 318.4 67.0 318.4 70.75 317.9 71.3 Q317.45 71.1 316.9 69.6 L316.5 68.3 316.15 68.3 315.75 68.3 315.25 68.2 315.3 68.05 Q315.05 68.75 315.05 67.5 315.05 67.05 315.5 66.45 L315.8 66.2 316.25 65.8 315.8 65.1 315.7 65.0 315.4 64.35 Q315.4 63.7 315.65 63.25 L315.25 63.1 315.05 62.1 Q315.05 61.45 315.45 61.2 L315.25 60.4 315.25 60.3 315.2 60.2 315.15 60.1 315.1 59.85 315.0 59.6 315.05 59.45 315.05 58.85 315.15 58.05 Q315.25 57.6 315.5 57.3 L315.4 57.85 315.95 59.1 315.9 59.15 Q315.65 59.5 315.65 60.3 315.65 61.35 316.65 63.75 317.7 63.15 318.05 62.25 M333.45 72.5 L334.35 72.55 335.35 72.4 335.6 72.5 Q335.45 72.65 335.45 72.95 L333.55 72.5 333.45 72.5 M337.8 73.7 L338.25 73.9 338.15 74.0 337.7 73.8 337.8 73.7 M335.45 70.75 L335.55 70.45 335.6 70.45 335.8 70.75 335.45 70.75 M381.2 60.35 L381.15 60.3 379.7 60.05 382.4 60.35 383.25 60.5 381.2 60.35 M254.5 80.9 L254.9 80.75 254.75 81.0 254.6 81.0 254.5 80.9 M248.45 78.45 L248.4 78.75 248.4 78.8 248.15 78.75 248.4 78.4 248.45 78.45 M267.4 77.0 L265.9 77.0 Q265.55 77.05 265.2 77.65 264.9 78.2 264.9 78.8 265.55 79.55 267.15 79.55 L268.3 79.3 268.55 78.3 267.4 77.0 M323.55 61.55 L323.45 61.55 323.55 61.6 323.55 61.55 M309.05 65.55 L308.9 65.5 308.45 65.75 308.55 65.55 308.5 65.3 308.65 65.3 309.2 65.25 309.2 65.4 309.05 65.55 M305.15 68.7 L304.4 68.5 303.65 68.55 303.45 68.95 303.4 69.75 Q303.4 70.55 303.7 70.75 L304.4 71.0 305.3 70.25 305.4 69.6 305.15 68.7 M315.8 65.85 L315.95 65.95 315.8 66.0 315.8 65.85 M318.65 72.55 Q318.4 73.0 317.55 73.05 L317.15 72.75 317.4 71.55 Q318.1 71.5 318.55 71.8 L318.65 72.55 M301.85 60.65 L300.2 61.25 300.15 61.75 300.3 62.75 Q300.7 63.75 302.15 63.75 L303.35 63.3 305.3 62.05 Q304.8 60.55 303.65 60.0 L301.85 60.65 M115.8 70.4 L115.7 70.15 115.85 70.2 115.8 70.4 M111.65 75.35 L111.15 75.55 Q110.8 75.7 110.55 75.9 L110.55 75.65 111.1 75.0 111.9 75.0 111.8 75.1 111.65 75.35 M82.65 76.7 L82.55 76.75 82.15 76.2 82.5 76.0 Q82.5 76.45 82.65 76.7 M122.45 71.5 L122.15 71.3 122.1 71.0 123.1 71.0 122.5 71.45 122.45 71.5 M12.35 61.65 L12.25 61.75 12.5 61.9 11.45 61.95 12.35 61.65 M71.35 61.0 L71.5 61.3 71.1 61.3 71.25 61.1 71.35 61.0 M69.85 64.7 L69.9 64.75 69.5 65.15 69.5 64.75 69.85 64.7 M67.15 68.6 Q66.6 69.75 66.55 70.9 L66.3 69.75 66.4 68.75 66.55 68.3 66.75 68.3 67.1 66.8 67.15 66.6 67.05 68.05 66.8 68.3 67.05 68.3 67.15 68.6 M74.35 61.55 L74.5 61.4 75.05 61.8 74.35 61.55 M70.8 65.15 L70.85 65.2 70.8 65.2 70.8 65.15 M63.55 63.4 L63.5 64.75 Q63.5 65.6 63.65 65.75 L63.05 65.8 63.05 66.1 62.6 66.15 62.75 65.25 62.65 64.5 62.8 64.5 63.55 63.4 M58.7 70.55 L58.6 70.55 58.65 70.55 58.7 70.55 M55.5 70.35 Q55.55 71.05 55.8 70.75 L55.8 70.9 56.15 71.0 54.3 71.3 54.3 70.85 55.5 70.35 M52.8 71.5 L53.05 71.6 52.0 71.8 51.8 71.85 51.85 71.8 52.0 71.8 52.8 71.5 M49.35 72.45 L48.6 72.65 48.85 72.25 49.35 72.45 M79.5 70.55 L79.8 70.55 79.5 70.7 Q79.35 70.9 79.3 71.6 L78.35 70.75 78.5 69.9 78.5 69.8 79.5 70.55 M56.3 65.55 L56.45 65.65 56.3 65.85 56.3 65.55 M54.25 71.35 L54.25 71.3 54.25 71.35" fill="#11d1db" fill-rule="evenodd" stroke="none"/>
    <path d="M-0.65 63.35 L4.45 62.65 Q9.1 61.8 11.15 60.85 L11.2 60.8 18.15 57.85 18.15 57.8 23.5 55.6 25.15 54.95 Q26.8 54.2 31.2 54.3 L31.95 54.3 37.65 53.75 38.5 53.75 40.05 53.4 41.25 53.1 48.2 52.35 52.25 50.85 52.3 50.8 52.35 50.8 52.4 50.8 Q53.7 50.45 54.9 49.6 L55.85 48.75 55.85 48.8 Q57.0 47.7 57.55 46.5 L60.1 46.5 60.5 46.7 Q61.1 47.1 61.75 47.1 L62.1 47.1 62.45 48.4 63.25 50.3 63.9 51.4 Q62.8 52.1 60.4 52.45 L56.9 52.85 58.8 54.55 Q58.45 55.2 57.0 55.55 L53.5 55.55 52.6 54.9 52.3 54.25 Q52.8 53.75 53.8 53.25 L48.7 53.9 49.05 54.3 Q48.95 55.25 48.0 55.55 L46.0 56.0 44.9 54.95 44.55 54.5 41.0 55.0 40.65 55.05 41.55 55.3 41.8 56.05 Q41.05 57.2 39.65 57.55 L34.8 58.3 34.7 58.1 Q34.55 57.85 34.55 57.1 34.55 56.5 35.75 55.85 L35.2 55.95 34.5 56.75 31.65 57.7 31.75 61.3 31.5 61.55 31.25 61.3 31.25 57.8 30.0 58.25 27.85 59.0 28.4 59.0 Q28.95 59.1 29.25 59.55 29.0 60.0 28.05 60.05 27.75 59.75 27.75 59.05 L27.2 59.2 27.5 59.3 27.65 59.8 27.75 60.85 Q27.75 61.3 27.2 61.95 L26.0 62.75 24.5 62.75 23.6 62.45 Q23.25 62.15 23.25 61.35 23.25 60.5 24.5 59.7 L23.55 59.55 22.55 58.8 22.85 58.4 21.5 58.75 21.75 58.8 22.25 59.55 Q21.7 60.15 20.6 60.5 L20.75 61.25 20.75 61.45 21.55 61.55 22.05 62.3 21.8 63.5 20.5 64.0 19.65 63.55 Q19.35 63.25 19.3 62.55 L19.2 62.55 16.5 63.3 15.75 63.1 15.55 62.1 15.55 62.0 15.0 62.25 14.4 62.2 14.55 63.0 Q14.55 63.85 13.0 64.3 L9.5 65.25 8.05 65.05 Q7.75 65.6 7.75 64.35 L7.95 63.4 Q6.2 64.25 4.8 65.25 L-0.65 63.35 M67.75 55.65 Q69.1 57.05 71.55 58.3 L72.15 59.05 72.25 59.1 72.3 59.3 71.7 59.35 Q71.25 59.55 71.25 60.35 L71.35 61.0 71.25 61.1 71.1 61.3 70.5 61.3 Q69.35 61.5 69.05 61.8 68.75 62.15 68.75 63.1 68.75 63.45 69.35 64.2 L69.85 64.7 69.5 64.75 69.5 65.15 69.15 65.4 Q68.25 66.0 68.25 66.5 L68.25 66.95 67.55 67.85 67.15 68.6 67.05 68.3 66.8 68.3 67.05 68.05 67.15 66.6 67.3 65.5 67.25 65.4 67.8 57.15 67.75 55.65 M315.6 50.65 L316.2 49.6 316.8 48.5 317.35 47.45 317.4 46.65 317.7 46.7 Q318.25 45.0 317.95 43.7 L317.9 43.55 318.65 43.55 318.95 44.25 319.1 44.65 319.15 44.8 319.35 45.45 319.4 46.15 319.2 46.85 320.55 47.0 Q321.8 48.2 322.8 48.25 L328.25 48.75 331.85 48.4 334.35 47.45 Q336.0 46.5 336.6 45.35 L338.0 45.25 338.1 45.25 Q339.65 45.3 346.8 46.95 L347.85 47.45 349.2 48.0 349.25 48.0 Q349.2 49.05 349.5 49.2 L352.95 51.35 353.85 51.8 Q357.15 53.45 359.05 53.8 L360.5 54.45 360.5 54.4 370.4 55.9 370.5 55.9 381.25 55.9 381.4 55.9 385.65 55.15 389.0 54.5 Q395.5 54.7 399.9 57.35 L401.3 58.95 401.5 59.1 403.15 60.0 Q405.15 59.5 406.4 60.0 407.15 60.3 407.35 60.85 L407.4 61.0 406.8 61.75 Q406.15 62.45 405.4 62.5 L402.5 62.7 400.2 63.05 393.95 65.3 393.75 65.2 391.0 64.1 390.15 64.25 387.3 63.55 387.25 63.6 387.05 64.0 385.4 64.3 383.65 64.05 383.15 64.5 382.15 64.8 379.4 64.3 378.55 63.75 Q378.55 62.9 379.4 62.55 L381.9 62.55 382.7 63.15 382.8 63.25 Q382.65 62.85 382.65 62.35 L382.65 62.3 381.75 62.05 381.4 62.25 378.05 61.55 377.75 61.4 378.3 62.25 377.8 63.25 376.9 63.8 374.9 63.8 Q373.5 63.2 372.8 61.75 373.8 60.95 375.55 60.8 L377.05 61.0 376.65 60.5 Q376.75 60.05 377.1 59.9 L377.4 59.75 377.75 59.8 370.95 58.8 371.05 59.75 373.8 60.0 374.2 60.2 374.65 60.55 373.6 60.9 371.75 61.05 366.55 60.3 367.05 60.55 367.15 61.75 366.65 62.05 364.55 62.05 356.15 59.05 356.45 58.9 356.15 58.75 Q356.15 58.0 356.3 57.3 L358.4 57.25 358.4 57.2 358.3 57.15 356.45 56.6 356.0 56.7 354.4 57.05 353.2 57.0 Q354.8 57.45 355.9 58.0 L355.9 58.3 355.6 58.85 357.55 59.8 357.65 60.55 Q357.15 61.0 356.55 61.0 L355.05 60.55 354.8 60.35 352.9 60.8 351.75 60.65 349.4 60.3 348.55 59.75 Q348.55 58.9 349.4 58.55 352.4 58.3 353.8 59.1 L354.25 59.35 Q354.4 59.0 354.7 58.9 L342.15 57.75 342.15 57.5 Q342.2 57.2 342.4 57.05 341.1 56.65 340.4 56.05 L340.65 55.7 340.9 55.5 343.1 55.6 337.2 54.4 337.65 55.55 337.15 56.2 335.9 56.5 334.15 55.05 Q334.65 54.3 335.35 54.05 L335.3 54.05 332.9 53.5 333.15 53.05 333.5 53.0 330.75 52.85 330.9 53.5 Q330.9 54.25 330.3 54.75 329.6 55.3 328.4 55.3 327.4 55.3 326.7 54.0 L326.15 52.85 326.2 52.6 324.95 52.55 325.3 53.75 324.85 54.25 324.35 54.5 325.05 54.5 325.65 55.5 324.4 56.5 323.15 56.05 Q322.8 56.6 322.8 55.35 322.8 54.6 323.1 54.45 L322.55 54.35 321.3 54.0 Q321.15 53.85 321.15 52.6 L321.15 52.45 316.4 52.3 316.1 52.0 316.15 52.4 316.55 53.85 316.65 54.5 316.95 54.65 317.65 55.75 316.8 56.5 316.65 56.3 Q316.05 56.6 315.7 57.05 L316.15 57.05 Q316.4 57.3 316.8 57.4 L317.05 58.35 317.05 59.2 316.9 59.3 317.95 60.7 318.15 61.5 318.05 62.25 Q317.7 63.15 316.65 63.75 315.65 61.35 315.65 60.3 315.65 59.5 315.9 59.15 L315.95 59.1 315.4 57.85 315.5 57.3 Q315.25 57.6 315.15 58.05 L314.6 58.7 314.6 58.75 314.5 58.65 314.8 57.65 Q314.8 54.75 313.3 55.05 L313.15 54.65 314.2 53.7 313.9 53.55 315.6 50.65 M81.5 78.25 L80.35 78.15 80.5 78.0 81.0 78.0 81.1 78.0 81.5 78.25 M69.7 76.95 L68.75 76.85 68.95 76.75 69.7 76.95 M361.3 58.25 L360.8 57.95 360.8 58.05 359.85 58.65 363.85 59.45 361.3 58.25 M341.05 53.75 L338.4 53.5 339.65 53.75 341.05 53.75 M330.05 55.25 Q330.85 54.45 331.65 54.3 L333.05 54.3 333.15 55.05 332.65 55.6 331.4 55.8 330.35 55.65 330.05 55.25 M381.2 60.35 L383.25 60.5 382.4 60.35 379.7 60.05 381.15 60.3 381.2 60.35 M308.8 69.3 L309.3 69.3 309.25 69.55 308.85 69.5 308.8 69.3 M74.6 64.6 L74.55 64.45 74.75 64.5 75.55 64.25 75.55 64.55 74.6 64.6 M12.35 61.65 L11.45 61.95 12.5 61.9 12.25 61.75 12.35 61.65 M74.35 61.55 L75.05 61.8 75.55 62.15 74.1 61.7 74.35 61.55 M65.9 72.4 L66.1 72.55 65.8 72.55 65.9 72.4 M73.9 64.1 L73.7 64.1 73.75 64.0 73.9 64.1" fill="#13e1ec" fill-rule="evenodd" stroke="none"/>
    <path d="M72.25 58.65 L72.6 58.8 72.6 58.75 76.35 60.15 76.7 60.6 77.25 60.4 78.65 60.75 78.65 60.8 79.1 61.55 Q79.5 61.1 80.25 61.05 L81.25 61.2 Q82.3 61.55 82.3 63.0 82.3 64.1 81.75 64.75 81.3 65.3 80.75 65.3 79.75 65.3 79.05 64.4 L79.0 64.3 78.8 64.55 Q78.75 65.0 77.5 65.0 L76.45 64.9 76.3 64.75 76.05 64.55 76.0 63.75 75.85 63.55 75.7 63.95 75.55 64.25 74.75 64.5 74.55 64.45 74.6 64.6 74.6 64.65 75.75 64.8 75.85 65.35 76.8 65.4 Q78.25 65.65 78.25 66.55 L78.25 67.0 81.0 66.8 Q82.55 67.8 82.55 68.35 82.55 69.45 81.2 70.4 L82.55 70.5 82.8 70.65 Q83.0 70.75 83.0 71.5 83.0 71.95 82.15 72.6 L81.4 73.15 83.2 74.4 83.65 74.2 85.3 74.25 85.4 74.3 85.5 75.1 Q85.5 76.35 85.0 76.75 L84.95 76.8 86.35 77.55 86.25 77.25 Q87.35 76.5 87.8 76.9 88.75 77.65 90.05 77.8 L89.75 78.1 91.9 78.25 92.5 77.75 93.1 77.75 93.0 76.9 Q93.0 76.25 93.25 75.95 93.7 75.5 95.0 75.55 95.45 75.75 96.0 77.0 L95.5 77.6 95.35 77.75 95.55 77.8 95.8 78.55 95.0 79.45 82.45 78.35 82.3 77.6 82.25 77.6 Q81.8 78.0 81.1 78.0 L81.0 78.0 80.5 78.0 80.35 78.15 77.55 77.85 77.55 77.8 77.2 77.55 77.05 77.8 73.45 77.4 73.4 77.4 73.25 77.3 72.6 77.3 72.5 77.3 71.4 76.25 70.15 75.35 Q66.55 72.6 66.55 71.05 L66.55 70.9 Q66.6 69.75 67.15 68.6 L67.55 67.85 68.25 66.95 68.25 66.5 Q68.25 66.0 69.15 65.4 L69.5 65.15 69.9 64.75 69.85 64.7 69.35 64.2 Q68.75 63.45 68.75 63.1 68.75 62.15 69.05 61.8 69.35 61.5 70.5 61.3 L71.1 61.3 71.5 61.3 71.35 61.0 71.25 60.35 Q71.25 59.55 71.7 59.35 L72.3 59.3 72.25 59.1 72.25 58.85 72.25 58.65 M106.8 68.05 L108.5 68.45 109.3 68.6 108.0 69.25 107.1 68.8 106.8 68.05 M109.75 68.7 L113.1 69.5 115.85 70.1 115.85 70.2 115.7 70.15 115.8 70.4 115.8 70.5 Q115.8 71.25 116.05 71.3 L116.45 71.3 115.9 72.35 115.5 73.75 Q115.5 74.5 115.65 74.75 L115.75 74.95 114.95 75.9 Q114.0 77.05 114.0 77.75 L114.2 78.7 113.75 78.75 113.65 78.65 113.6 78.75 113.55 78.5 112.2 78.55 112.3 78.25 Q109.75 77.45 108.75 77.9 108.05 78.25 108.05 79.5 L108.1 80.45 105.6 80.3 104.75 80.2 104.65 80.2 Q103.35 79.8 102.5 79.05 L102.05 78.55 102.0 78.55 102.0 79.0 101.25 79.95 96.75 79.6 96.7 79.6 95.8 79.05 Q96.15 76.75 99.1 76.8 L100.3 76.95 Q100.35 76.3 100.6 76.1 L101.5 75.8 101.95 75.8 102.25 75.45 101.6 74.9 Q101.3 74.5 101.3 74.15 L101.5 73.05 Q102.2 73.05 103.6 73.55 L104.85 74.1 Q106.25 73.85 107.75 74.45 107.8 73.75 108.35 73.3 L110.65 73.2 Q110.8 73.05 111.0 73.0 L111.0 72.85 107.75 72.5 107.5 72.4 Q107.25 72.25 107.25 71.5 107.25 70.15 108.5 70.0 L108.8 70.0 108.8 69.85 Q108.8 69.1 109.75 68.7 M117.8 70.45 L118.25 70.5 118.0 71.05 117.8 70.9 117.8 70.45 M133.15 70.55 L135.45 70.35 134.7 71.05 134.05 71.05 Q133.95 70.5 133.55 70.55 L133.2 70.7 133.15 70.55 M136.75 70.2 L139.15 69.85 139.75 69.75 149.45 68.5 Q152.35 68.5 155.55 69.6 L155.6 69.65 160.05 70.75 161.1 70.95 161.6 71.05 161.95 71.1 162.65 71.25 167.6 72.2 182.2 73.65 182.25 73.65 194.85 73.75 199.8 73.25 200.85 73.35 211.35 71.5 213.55 71.15 Q223.75 69.6 231.75 69.6 L235.2 70.05 235.75 70.15 236.1 70.25 237.7 70.55 237.05 71.25 237.65 71.95 237.4 72.3 238.4 73.0 239.0 72.85 239.4 73.05 Q240.05 72.8 240.3 72.05 L239.75 70.9 241.15 71.15 241.15 71.6 Q241.15 72.4 241.3 72.45 L241.45 72.5 242.05 73.0 Q241.4 73.65 241.1 74.7 L239.9 74.2 Q238.6 73.85 238.45 74.75 L237.4 74.5 236.15 74.55 235.95 74.95 235.9 75.75 Q235.9 76.45 236.15 76.7 L235.9 76.9 Q235.05 77.7 235.05 79.6 L235.25 80.15 236.4 81.0 Q238.4 79.6 238.4 78.25 L238.3 76.75 237.65 76.5 238.6 75.35 239.05 76.0 Q239.8 76.95 240.8 77.0 L240.9 77.6 241.15 77.8 241.2 77.85 Q239.85 78.35 238.8 79.35 L238.9 80.0 Q239.1 80.25 240.4 80.75 L241.2 80.75 240.1 81.1 Q238.35 81.75 238.3 82.85 L237.8 82.85 237.05 82.85 236.4 82.9 237.8 82.05 237.55 81.3 235.4 81.0 233.45 81.55 Q232.1 82.1 232.05 83.0 L199.4 83.3 Q168.15 83.3 140.15 82.2 L140.3 82.0 140.55 80.8 Q140.05 80.2 140.05 79.75 L137.35 80.0 137.3 79.75 136.7 79.7 136.45 79.45 135.5 78.35 135.5 77.95 135.95 77.65 136.05 77.9 136.05 78.1 136.25 79.1 137.0 79.3 137.1 79.3 137.5 79.75 137.75 79.5 137.8 79.0 138.25 78.5 137.35 77.25 137.05 76.8 136.75 76.5 136.1 76.35 136.15 76.25 137.0 75.0 137.0 74.8 138.5 74.75 138.8 74.0 138.55 73.65 139.0 73.75 139.75 73.05 139.65 72.8 140.0 72.8 142.5 72.45 Q144.05 72.0 145.05 71.25 L144.75 70.45 144.55 70.2 144.0 69.8 140.05 69.9 Q139.05 70.05 138.45 70.35 137.5 70.75 137.5 71.4 137.5 72.15 137.65 72.35 L137.8 72.5 138.4 72.6 138.0 73.0 137.5 72.55 136.85 72.7 Q136.55 72.8 136.55 73.6 L136.55 73.8 136.1 73.45 135.8 73.25 136.35 72.35 137.0 71.0 136.75 70.2 M251.3 71.65 L251.6 71.65 251.3 71.9 251.3 71.65 M257.8 71.55 L259.45 71.25 259.5 71.5 Q259.15 71.85 257.95 74.1 L258.2 74.2 258.55 73.4 Q259.25 72.5 260.8 73.05 L260.95 73.5 261.05 74.55 260.95 75.7 260.9 76.1 261.0 76.0 Q261.95 75.25 263.4 75.05 L264.1 75.3 264.3 76.25 Q264.3 77.8 263.65 78.75 L263.5 79.0 263.9 80.1 263.4 79.8 Q260.35 77.95 257.9 78.65 L257.9 78.5 Q257.9 77.7 257.65 77.65 L256.9 77.5 255.3 77.3 254.95 76.75 255.15 76.75 256.9 76.5 Q257.55 76.2 257.55 75.25 L256.9 74.6 255.15 72.8 256.3 72.6 257.15 72.05 Q257.35 71.9 257.65 71.9 L257.8 71.55 M260.05 71.15 L263.65 70.65 Q263.5 72.3 261.4 72.3 260.25 72.3 260.05 71.4 L260.05 71.15 M364.9 71.95 L364.4 72.05 364.4 71.55 Q364.4 70.85 364.0 70.3 365.15 70.3 365.05 70.55 L365.55 71.3 364.9 71.95 M360.85 72.65 L349.85 74.3 343.55 75.2 342.05 74.8 341.45 74.55 339.75 73.85 338.9 74.0 338.25 73.9 337.8 73.7 337.3 73.25 337.1 72.9 335.6 72.5 335.35 72.4 334.35 72.55 333.45 72.5 331.1 72.15 326.65 71.55 326.65 71.25 326.15 70.85 325.8 70.5 325.6 70.6 325.5 70.75 325.15 71.05 322.55 71.05 322.2 69.35 321.8 67.75 321.0 66.35 Q320.55 65.45 320.55 64.65 L320.65 63.8 320.4 63.8 319.05 63.25 319.05 60.3 Q320.25 60.3 321.05 61.15 L321.6 62.0 322.15 63.05 321.9 63.4 321.8 63.45 322.05 63.75 322.5 64.3 322.75 64.7 323.45 65.8 Q323.75 64.05 325.6 64.0 326.75 63.95 327.35 64.65 326.9 64.95 326.9 65.75 326.9 66.55 327.2 66.75 L327.9 67.0 329.2 67.4 330.4 67.75 331.55 67.5 331.4 68.3 332.5 68.15 332.3 67.5 Q332.4 67.05 334.0 66.9 L335.5 67.65 Q337.55 68.55 339.15 68.55 340.65 68.55 340.65 66.55 L340.65 66.5 342.9 66.55 342.95 66.6 341.4 66.75 341.4 67.8 Q341.75 68.3 342.95 68.8 L344.9 69.3 345.15 69.3 345.95 69.3 346.2 69.8 Q347.15 71.0 350.4 71.0 L353.05 70.75 353.25 70.05 354.4 70.0 Q354.85 70.15 355.15 70.65 L355.4 71.25 357.65 70.55 Q358.3 71.65 360.85 72.65 M312.65 78.7 L308.1 79.1 Q306.8 78.05 306.8 77.75 306.8 76.95 308.25 76.15 309.65 75.4 309.65 74.35 309.65 73.75 309.05 73.5 308.4 73.25 308.4 72.6 308.4 72.0 308.85 70.8 L309.25 69.55 309.3 69.3 308.8 69.3 308.3 69.3 308.2 69.1 308.1 68.55 308.1 68.5 307.75 68.5 307.0 68.4 306.8 68.3 306.7 68.3 Q306.55 68.25 306.55 67.5 306.55 67.1 307.3 66.45 L306.05 65.35 Q305.15 67.0 304.4 67.55 L303.4 66.85 Q303.15 66.5 303.15 65.6 303.15 63.9 305.55 64.3 L305.8 64.45 305.85 64.5 305.9 64.05 306.65 63.95 307.05 63.95 307.05 63.9 307.15 62.9 306.05 62.25 Q305.55 61.7 305.55 61.1 305.55 59.6 307.2 59.0 L307.15 58.6 307.15 58.45 310.05 56.85 310.1 57.3 312.05 55.65 Q312.75 55.15 313.3 55.05 314.8 54.75 314.8 57.65 L314.5 58.65 314.6 58.75 315.0 59.6 315.1 59.85 315.15 60.1 315.2 60.2 315.25 60.3 315.25 60.4 315.45 61.2 Q315.05 61.45 315.05 62.1 L315.25 63.1 315.65 63.25 Q315.4 63.7 315.4 64.35 L315.7 65.0 315.8 65.1 315.8 65.85 315.8 66.0 315.8 66.2 315.5 66.45 Q315.05 67.05 315.05 67.5 315.05 68.75 315.3 68.05 L315.25 68.2 315.75 68.3 315.65 69.85 Q315.65 70.35 314.3 72.05 L313.2 73.3 313.9 74.65 Q313.9 76.8 313.4 77.75 L312.65 78.7 M270.5 81.65 L263.75 81.95 264.55 80.8 264.25 80.45 265.55 79.95 Q267.45 79.45 268.0 80.5 268.75 80.0 270.55 80.05 L271.05 81.05 270.5 81.65 M254.9 82.3 L254.05 82.35 254.3 82.05 254.55 81.3 254.25 80.95 254.5 80.9 254.6 81.0 254.75 81.0 254.55 81.9 254.9 82.3 M250.15 82.5 L249.25 82.5 248.4 82.55 248.5 82.4 248.85 81.95 250.15 82.5 M244.45 82.65 L243.25 82.7 Q243.65 82.05 243.65 81.3 L243.6 80.6 243.9 80.5 244.1 80.0 244.15 79.1 Q244.15 78.3 243.85 77.95 L244.2 77.85 244.15 78.25 244.4 79.35 Q244.85 80.15 245.95 80.3 L245.65 80.45 Q244.3 81.3 244.3 81.85 244.3 82.4 244.45 82.65 M137.55 82.1 L136.6 82.05 Q136.85 81.9 137.05 81.8 L137.55 82.1 M136.5 82.05 L136.1 82.0 136.4 81.95 136.5 82.05 M132.9 81.85 L130.65 81.75 130.9 81.55 131.1 81.55 132.0 81.8 132.7 81.75 132.9 81.85 M125.8 81.5 L122.95 81.35 123.8 80.8 Q124.3 81.3 125.45 81.3 L125.8 81.5 M119.65 81.2 L118.1 81.1 118.1 81.0 118.5 81.0 119.15 81.0 119.65 81.2 M117.7 81.05 L117.35 81.05 114.25 80.85 114.3 80.2 117.65 80.95 117.7 81.05 M113.1 80.8 L112.2 80.75 113.55 79.95 113.1 80.8 M110.65 80.65 L110.15 80.6 110.3 80.1 110.25 79.3 110.5 79.3 110.5 79.75 Q110.5 80.35 110.65 80.65 M43.15 73.45 L39.65 72.9 39.55 72.9 36.8 72.3 36.75 72.4 32.9 71.75 34.25 71.55 34.3 70.75 Q34.3 70.0 34.7 69.6 L34.95 69.4 35.5 69.3 36.35 68.7 37.0 68.0 37.4 68.35 Q37.05 68.65 37.05 69.1 L37.25 70.1 38.0 70.3 38.0 70.5 38.55 70.15 39.9 69.55 40.55 68.55 Q40.2 68.25 39.85 68.1 L40.05 68.0 41.1 67.7 Q41.3 68.55 42.0 68.8 L42.55 68.7 42.5 68.85 44.35 68.3 43.65 68.25 44.75 67.05 44.5 66.7 45.3 66.25 Q47.3 65.25 48.55 65.3 L48.75 65.5 48.8 66.25 Q48.8 66.8 47.05 67.6 L46.55 67.85 49.0 67.3 49.0 67.25 49.25 67.25 51.05 66.9 51.05 66.5 Q51.05 65.8 52.1 65.15 53.1 64.55 54.0 64.55 L55.5 64.55 55.6 64.6 55.55 64.55 Q56.85 63.3 59.55 63.3 L59.8 64.05 58.1 65.35 59.5 65.5 59.95 64.9 Q60.4 64.45 61.45 64.35 L61.35 64.2 60.7 64.0 Q60.5 63.85 60.5 63.0 60.5 61.55 62.0 60.05 L62.7 60.45 Q63.0 60.8 63.0 61.6 L63.0 61.8 63.75 61.8 64.25 62.55 63.65 63.25 63.55 63.4 62.8 64.5 62.65 64.5 62.75 65.25 62.6 66.15 62.3 66.85 Q61.8 67.8 61.8 68.4 61.8 70.25 59.75 70.8 L58.7 70.55 58.65 70.55 58.45 70.05 Q58.45 68.95 58.25 68.8 L55.5 70.35 54.3 70.85 52.8 71.5 52.0 71.8 51.85 71.8 51.8 71.85 51.25 72.3 50.25 72.55 49.35 72.45 48.85 72.25 48.25 71.9 46.55 72.6 46.05 72.75 43.15 73.45 M30.6 71.35 L28.35 70.95 Q28.5 70.45 28.95 70.3 L29.25 70.25 29.25 70.05 30.0 69.9 Q30.0 70.85 30.6 71.35 M352.55 68.5 L352.65 68.95 352.15 68.5 352.55 68.5 M363.55 69.3 L363.8 70.05 363.8 70.1 362.7 69.45 363.55 69.3 M330.55 64.8 L330.65 65.0 329.9 64.75 330.55 64.8 M331.9 72.55 L334.35 73.0 Q335.9 73.4 336.3 73.75 L335.25 74.7 332.9 75.05 332.05 74.75 Q331.8 74.5 331.8 73.65 L331.9 72.55 M335.45 70.75 L335.8 70.75 335.6 70.45 335.55 70.45 335.45 70.75 M250.05 73.8 L248.75 73.65 249.75 73.2 250.55 74.05 251.25 73.75 250.45 74.35 250.05 73.8 M245.65 72.4 L246.0 73.3 246.7 73.7 Q246.05 74.0 246.05 74.75 L246.05 74.8 245.7 72.95 245.65 72.8 245.6 72.75 245.65 72.45 245.65 72.4 M251.05 75.8 Q249.1 75.85 249.0 75.4 L249.0 75.3 249.4 75.3 250.45 74.7 251.05 75.8 251.9 76.55 252.0 76.55 251.15 76.8 251.05 75.8 M248.45 78.45 L248.4 78.4 248.15 78.75 248.4 78.8 248.45 79.55 248.8 79.75 249.95 79.8 250.35 79.8 249.05 81.1 248.95 80.3 248.8 80.05 247.3 79.85 247.3 79.5 Q247.3 79.2 247.7 78.9 L248.5 78.2 248.45 78.45 M251.35 79.65 L252.4 79.55 252.55 80.0 251.35 79.65 M267.4 77.0 L268.55 78.3 268.3 79.3 267.15 79.55 Q265.55 79.55 264.9 78.8 264.9 78.2 265.2 77.65 265.55 77.05 265.9 77.0 L267.4 77.0 M309.05 65.55 L309.2 65.4 309.2 65.25 308.65 65.3 308.5 65.3 308.55 65.55 308.45 65.75 308.9 65.5 309.05 65.55 M305.15 68.7 L305.4 69.6 305.3 70.25 304.4 71.0 303.7 70.75 Q303.4 70.55 303.4 69.75 L303.45 68.95 303.65 68.55 304.4 68.5 305.15 68.7 M311.15 69.85 L311.9 69.25 311.4 69.05 311.15 69.85 M301.85 60.65 L303.65 60.0 Q304.8 60.55 305.3 62.05 L303.35 63.3 302.15 63.75 Q300.7 63.75 300.3 62.75 L300.15 61.75 300.2 61.25 301.85 60.65 M111.65 75.35 L111.05 76.5 Q111.05 77.25 111.25 77.3 L112.0 77.3 Q113.7 77.05 114.6 75.45 115.3 74.15 115.3 72.55 115.3 71.75 115.1 71.7 L114.5 71.55 Q112.85 72.2 112.55 72.95 112.4 73.35 112.55 73.75 L111.9 75.0 111.1 75.0 110.55 75.65 110.55 75.9 Q110.8 75.7 111.15 75.55 L111.65 75.35 M117.75 70.85 L117.75 70.8 117.75 70.85 M118.75 73.6 L118.8 73.4 Q119.35 74.5 120.0 74.5 L120.05 74.5 119.4 74.75 119.15 74.6 Q118.75 74.35 118.75 73.6 M82.65 76.7 Q82.5 76.45 82.5 76.0 L82.15 76.2 82.55 76.75 82.65 76.7 M118.4 75.3 L119.3 75.15 119.25 76.0 118.75 76.15 118.4 75.3 M122.45 71.5 L122.25 71.7 122.15 71.3 122.45 71.5 M134.05 74.8 L133.5 75.05 133.75 74.2 134.05 74.8 M132.05 76.8 L132.35 77.3 Q132.05 77.35 131.9 77.6 L131.85 77.8 130.95 77.4 130.9 77.4 131.05 76.2 Q131.55 76.8 132.0 76.8 L132.05 76.8 M140.75 77.0 L140.55 76.8 139.1 76.6 Q138.55 76.8 138.55 77.6 138.55 78.35 138.7 78.6 L138.8 78.8 140.75 78.55 140.8 77.75 140.75 77.0 M133.35 73.6 L133.4 73.6 133.45 73.65 133.5 73.7 133.35 73.6 M122.25 75.35 L121.9 75.4 121.45 74.45 122.0 74.4 Q122.0 75.2 122.25 75.35 M123.4 79.95 L123.6 80.0 124.1 80.45 123.95 80.6 124.0 80.5 123.45 80.3 Q123.1 80.25 123.1 79.75 L123.25 79.8 123.4 79.95 M75.05 61.8 L74.5 61.4 74.35 61.55 74.1 61.7 75.55 62.15 75.05 61.8 M70.8 65.15 L70.8 65.2 70.85 65.2 70.8 65.15 M73.9 64.1 L73.75 64.0 73.7 64.1 73.9 64.1 M75.1 71.3 L75.2 71.4 75.45 71.3 75.1 71.3 M79.5 70.55 L78.5 69.8 78.5 69.9 78.35 70.75 79.3 71.6 Q79.35 70.9 79.5 70.7 L79.8 70.55 79.5 70.55 M56.3 65.55 L56.3 65.85 56.45 65.65 56.3 65.55" fill="#0fc4d4" fill-rule="evenodd" stroke="none"/>
    <path d="M115.85 70.1 L117.8 70.45 117.8 70.9 118.0 71.05 118.25 70.5 123.85 71.0 133.15 70.55 133.2 70.7 133.55 70.55 Q133.95 70.5 134.05 71.05 L134.7 71.05 135.45 70.35 136.75 70.2 137.0 71.0 136.35 72.35 135.8 73.25 136.1 73.45 136.55 73.8 136.55 73.6 Q136.55 72.8 136.85 72.7 L137.5 72.55 138.0 73.0 138.4 72.6 137.8 72.5 137.65 72.35 Q137.5 72.15 137.5 71.4 137.5 70.75 138.45 70.35 139.05 70.05 140.05 69.9 L144.0 69.8 144.55 70.2 144.75 70.45 145.05 71.25 Q144.05 72.0 142.5 72.45 L140.0 72.8 139.65 72.8 139.75 73.05 139.0 73.75 138.55 73.65 138.8 74.0 138.5 74.75 137.0 74.8 137.0 75.0 136.15 76.25 136.1 76.35 136.75 76.5 137.05 76.8 137.35 77.25 138.25 78.5 137.8 79.0 137.75 79.5 137.5 79.75 137.1 79.3 137.0 79.3 136.25 79.1 136.05 78.1 136.05 77.9 135.95 77.65 135.5 77.95 135.5 78.35 136.45 79.45 136.7 79.7 137.3 79.75 137.35 80.0 140.05 79.75 Q140.05 80.2 140.55 80.8 L140.3 82.0 140.15 82.2 137.55 82.1 137.05 81.8 Q136.85 81.9 136.6 82.05 L136.5 82.05 136.4 81.95 136.1 82.0 132.9 81.85 132.7 81.75 132.0 81.8 131.1 81.55 130.9 81.55 130.65 81.75 125.85 81.5 125.8 81.5 125.45 81.3 Q124.3 81.3 123.8 80.8 L122.95 81.35 119.65 81.2 119.15 81.0 118.5 81.0 118.1 81.0 117.65 80.95 114.3 80.2 113.8 80.05 Q113.6 80.6 113.55 79.9 L113.55 79.95 112.2 80.75 112.15 80.75 110.65 80.65 Q110.5 80.35 110.5 79.75 L110.5 79.3 110.25 79.3 110.3 80.1 110.15 80.6 108.1 80.45 108.05 79.5 Q108.05 78.25 108.75 77.9 109.75 77.45 112.3 78.25 L112.2 78.55 113.55 78.5 113.6 78.75 113.65 78.65 113.75 78.75 114.2 78.7 114.0 77.75 Q114.0 77.05 114.95 75.9 L115.75 74.95 115.65 74.75 Q115.5 74.5 115.5 73.75 L115.9 72.35 116.45 71.3 116.05 71.3 Q115.8 71.25 115.8 70.5 L115.8 70.4 115.85 70.2 115.85 70.1 M237.7 70.55 L238.65 70.7 239.75 70.9 240.3 72.05 Q240.05 72.8 239.4 73.05 L239.0 72.85 238.4 73.0 237.4 72.3 237.65 71.95 237.05 71.25 237.7 70.55 M241.15 71.15 L241.2 71.15 244.6 71.65 244.75 71.65 251.3 71.65 251.3 71.9 251.6 71.65 257.0 71.65 257.2 71.65 257.8 71.55 257.65 71.9 Q257.35 71.9 257.15 72.05 L256.3 72.6 255.15 72.8 256.9 74.6 257.55 75.25 Q257.55 76.2 256.9 76.5 L255.15 76.75 254.95 76.75 255.3 77.3 256.9 77.5 257.65 77.65 Q257.9 77.7 257.9 78.5 L257.9 78.65 Q260.35 77.95 263.4 79.8 L263.9 80.1 264.25 80.45 264.55 80.8 263.75 81.95 263.75 82.0 254.95 82.35 254.9 82.3 254.55 81.9 254.75 81.0 254.9 80.75 254.5 80.9 254.25 80.95 254.55 81.3 254.3 82.05 254.05 82.35 250.2 82.5 250.15 82.5 248.85 81.95 248.5 82.4 248.4 82.55 248.35 82.55 244.45 82.7 244.45 82.65 Q244.3 82.4 244.3 81.85 244.3 81.3 245.65 80.45 L245.95 80.3 Q244.85 80.15 244.4 79.35 L244.15 78.25 244.2 77.85 243.85 77.95 Q244.15 78.3 244.15 79.1 L244.1 80.0 243.9 80.5 243.6 80.6 243.65 81.3 Q243.65 82.05 243.25 82.7 L238.3 82.85 Q238.35 81.75 240.1 81.1 L241.2 80.75 240.4 80.75 Q239.1 80.25 238.9 80.0 L238.8 79.35 Q239.85 78.35 241.2 77.85 L241.15 77.8 240.9 77.6 240.8 77.0 Q239.8 76.95 239.05 76.0 L238.6 75.35 237.65 76.5 238.3 76.75 238.4 78.25 Q238.4 79.6 236.4 81.0 L235.25 80.15 235.05 79.6 Q235.05 77.7 235.9 76.9 L236.15 76.7 Q235.9 76.45 235.9 75.75 L235.95 74.95 236.15 74.55 237.4 74.5 238.45 74.75 Q238.6 73.85 239.9 74.2 L241.1 74.7 Q241.4 73.65 242.05 73.0 L241.45 72.5 241.3 72.45 Q241.15 72.4 241.15 71.6 L241.15 71.15 M341.95 75.4 L312.65 78.7 313.4 77.75 Q313.9 76.8 313.9 74.65 L313.2 73.3 314.3 72.05 Q315.65 70.35 315.65 69.85 L315.75 68.3 316.15 68.3 316.5 68.3 316.9 69.6 Q317.45 71.1 317.9 71.3 L318.4 70.75 318.4 67.0 318.15 66.55 317.85 66.55 317.65 66.3 317.55 66.05 318.05 65.2 Q318.55 64.35 318.55 63.6 318.55 62.9 318.35 62.65 L318.15 62.3 318.05 62.25 318.15 61.5 317.95 60.7 318.35 60.35 318.35 60.25 317.65 59.8 317.45 59.65 317.8 59.0 Q317.8 58.2 317.4 57.45 L317.35 57.35 317.45 57.0 317.65 55.5 317.65 54.95 316.95 54.65 316.65 54.5 316.55 53.85 317.05 53.3 317.4 53.05 318.55 53.3 318.65 53.55 318.9 53.55 320.15 53.8 320.95 54.1 321.0 54.15 320.45 54.1 Q318.8 54.1 318.8 56.15 318.8 56.6 319.3 57.0 L320.25 57.9 320.15 58.15 320.4 58.0 320.9 57.85 320.95 57.85 Q320.25 58.15 319.9 59.8 L320.6 60.45 321.65 60.8 321.8 61.5 321.8 61.6 321.6 62.0 321.05 61.15 Q320.25 60.3 319.05 60.3 L319.05 63.25 320.4 63.8 320.65 63.8 320.55 64.65 Q320.55 65.45 321.0 66.35 L321.8 67.75 322.2 69.35 322.55 71.05 325.15 71.05 325.5 70.75 326.15 70.85 326.65 71.25 326.65 71.55 331.1 72.15 333.45 72.5 333.55 72.5 335.45 72.95 Q335.45 72.65 335.6 72.5 L337.1 72.9 337.3 73.25 337.8 73.7 337.7 73.8 338.15 74.0 338.25 73.9 338.9 74.0 339.75 73.85 341.45 74.55 342.05 74.8 342.05 74.85 341.95 75.4 M308.1 79.1 L299.9 79.75 299.65 79.8 299.65 79.45 299.15 79.5 297.95 79.4 297.65 79.25 297.55 78.8 297.45 78.25 298.65 78.55 Q299.6 78.55 300.65 77.8 L301.7 76.7 301.8 77.25 303.2 77.0 303.15 76.85 Q303.15 75.8 305.55 74.55 L305.3 74.1 304.4 73.3 Q305.0 72.45 305.9 71.75 L305.95 71.75 Q305.8 71.45 305.8 70.85 305.8 70.45 306.6 69.75 307.45 69.0 307.9 69.0 L308.2 69.1 308.3 69.3 308.8 69.3 308.85 69.5 309.25 69.55 308.85 70.8 Q308.4 72.0 308.4 72.6 308.4 73.25 309.05 73.5 309.65 73.75 309.65 74.35 309.65 75.4 308.25 76.15 306.8 76.95 306.8 77.75 306.8 78.05 308.1 79.1 M297.85 79.95 L292.95 80.3 292.65 80.3 292.7 80.3 Q293.2 79.35 294.75 79.0 296.5 78.6 297.85 79.95 M236.4 82.9 L232.05 83.0 Q232.1 82.1 233.45 81.55 L235.4 81.0 237.55 81.3 237.8 82.05 236.4 82.9 M73.4 77.4 L72.6 77.3 73.25 77.3 73.4 77.4 M72.5 77.3 L69.7 76.95 68.95 76.75 68.75 76.85 66.5 76.6 51.25 74.65 48.9 74.3 48.85 74.3 48.75 74.3 47.85 74.15 47.0 74.05 45.4 73.8 46.7 73.2 47.2 73.05 46.8 73.05 46.65 72.85 46.55 72.6 48.25 71.9 48.85 72.25 48.6 72.65 49.35 72.45 50.25 72.55 51.25 72.3 51.8 71.85 52.0 71.8 53.05 71.6 52.8 71.5 54.3 70.85 54.3 71.3 56.15 71.0 55.8 70.9 55.8 70.75 Q55.55 71.05 55.5 70.35 L58.25 68.8 Q58.45 68.95 58.45 70.05 L58.65 70.55 58.6 70.55 58.7 70.55 59.75 70.8 Q61.8 70.25 61.8 68.4 61.8 67.8 62.3 66.85 L62.6 66.15 63.05 66.1 63.05 65.8 63.65 65.75 Q63.5 65.6 63.5 64.75 L63.55 63.4 63.65 63.25 Q64.65 63.2 65.3 64.1 L65.3 64.0 Q65.3 61.55 65.55 60.45 L66.25 57.3 66.55 57.3 67.2 58.15 Q67.55 58.65 67.55 59.4 67.55 60.05 67.05 60.9 66.55 61.8 66.55 62.4 66.55 63.6 67.25 65.4 L67.3 65.5 67.15 66.6 67.1 66.8 66.75 68.3 66.55 68.3 66.4 68.75 66.3 69.75 66.55 70.9 66.55 71.05 Q66.55 72.6 70.15 75.35 L71.4 76.25 72.5 77.3 M331.9 72.55 L331.8 73.65 Q331.8 74.5 332.05 74.75 L332.9 75.05 335.25 74.7 336.3 73.75 Q335.9 73.4 334.35 73.0 L331.9 72.55 M245.65 72.4 L245.65 72.45 245.6 72.75 245.65 72.8 245.7 72.95 246.05 74.8 246.05 74.75 Q246.05 74.0 246.7 73.7 L246.0 73.3 245.65 72.4 M250.05 73.8 L250.45 74.35 251.25 73.75 250.55 74.05 249.75 73.2 248.75 73.65 250.05 73.8 M251.05 75.8 L251.15 76.8 252.0 76.55 251.9 76.55 251.05 75.8 250.45 74.7 249.4 75.3 249.0 75.3 249.0 75.4 Q249.1 75.85 251.05 75.8 M248.4 78.8 L248.4 78.75 248.45 78.45 248.5 78.2 247.7 78.9 Q247.3 79.2 247.3 79.5 L247.3 79.85 248.8 80.05 248.95 80.3 249.05 81.1 250.35 79.8 249.95 79.8 248.8 79.75 248.45 79.55 248.4 78.8 M251.35 79.65 L252.55 80.0 252.4 79.55 251.35 79.65 M314.6 58.75 L314.6 58.7 315.15 58.05 315.05 58.85 315.05 59.45 315.0 59.6 314.6 58.75 M315.8 65.1 L316.25 65.8 315.8 66.2 315.8 66.0 315.95 65.95 315.8 65.85 315.8 65.1 M323.55 61.55 L323.55 61.6 323.45 61.55 323.55 61.55 M307.75 68.5 L308.1 68.5 308.1 68.55 307.8 68.55 307.75 68.5 M311.15 69.85 L311.4 69.05 311.9 69.25 311.15 69.85 M321.9 63.4 L322.05 63.65 322.05 63.75 321.8 63.45 321.9 63.4 M322.5 64.3 L322.8 64.3 322.8 64.4 322.75 64.7 322.5 64.3 M318.65 72.55 L318.55 71.8 Q318.1 71.5 317.4 71.55 L317.15 72.75 317.55 73.05 Q318.4 73.0 318.65 72.55 M111.9 75.0 L112.55 73.75 Q112.4 73.35 112.55 72.95 112.85 72.2 114.5 71.55 L115.1 71.7 Q115.3 71.75 115.3 72.55 115.3 74.15 114.6 75.45 113.7 77.05 112.0 77.3 L111.25 77.3 Q111.05 77.25 111.05 76.5 L111.65 75.35 111.8 75.1 111.9 75.0 M118.75 73.6 Q118.75 74.35 119.15 74.6 L119.4 74.75 120.05 74.5 120.0 74.5 Q119.35 74.5 118.8 73.4 L118.75 73.6 M117.75 70.85 L117.75 70.8 117.75 70.85 M118.4 75.3 L118.75 76.15 119.25 76.0 119.3 75.15 118.4 75.3 M122.15 71.3 L122.25 71.7 122.45 71.5 122.5 71.45 123.1 71.0 122.1 71.0 122.15 71.3 M133.35 73.6 L133.5 73.7 133.45 73.65 133.4 73.6 133.35 73.6 M140.75 77.0 L140.8 77.75 140.75 78.55 138.8 78.8 138.7 78.6 Q138.55 78.35 138.55 77.6 138.55 76.8 139.1 76.6 L140.55 76.8 140.75 77.0 M132.05 76.8 L132.0 76.8 Q131.55 76.8 131.05 76.2 L130.9 77.4 130.95 77.4 131.85 77.8 131.9 77.6 Q132.05 77.35 132.35 77.3 L132.05 76.8 M134.05 74.8 L133.75 74.2 133.5 75.05 134.05 74.8 M123.4 79.95 L123.25 79.8 123.1 79.75 Q123.1 80.25 123.45 80.3 L124.0 80.5 123.95 80.6 124.1 80.45 123.6 80.0 123.4 79.95 M122.25 75.35 Q122.0 75.2 122.0 74.4 L121.45 74.45 121.9 75.4 122.25 75.35 M65.9 72.4 L65.8 72.55 66.1 72.55 65.9 72.4 M75.1 71.3 L75.45 71.3 75.2 71.4 75.1 71.3 M54.25 71.35 L54.25 71.3 54.25 71.35" fill="#32b8cb" fill-rule="evenodd" stroke="none"/>
    <path d="M-0.65 63.35 L-4.5 63.5 Q-6.2 63.5 -6.4 61.85 L-6.4 61.7 Q-6.65 59.75 -3.15 59.45 L6.05 58.3 11.0 56.95 13.85 55.75 13.9 55.75 16.95 54.35 16.9 54.35 Q18.6 53.45 19.85 53.05 L22.1 52.0 22.25 51.95 Q24.3 51.15 28.9 50.6 L28.7 50.8 32.15 50.35 34.65 50.4 34.95 50.5 35.05 50.5 35.15 50.5 35.2 50.5 37.5 50.4 Q38.6 49.8 41.1 49.6 47.35 49.15 50.9 48.15 52.75 47.6 54.0 46.25 L54.0 46.2 54.3 45.85 Q53.9 44.95 54.7 43.85 54.85 43.6 55.15 43.5 58.8 42.05 59.7 42.2 60.35 42.2 61.5 43.0 L62.7 42.2 Q62.9 42.0 63.2 42.0 L63.7 42.15 64.1 42.5 Q64.65 43.35 64.95 45.1 L65.45 47.55 65.5 47.6 66.0 47.6 66.65 47.85 Q67.7 48.65 68.45 50.4 L69.2 51.6 Q70.05 53.15 71.35 54.2 75.95 57.85 87.35 57.85 90.7 57.85 95.25 59.85 L95.9 59.95 97.2 60.75 99.3 61.85 99.4 61.9 101.3 62.8 101.35 62.85 101.45 62.85 106.7 64.2 106.75 64.2 107.2 64.3 107.1 64.3 111.2 65.2 111.45 65.25 Q113.2 66.1 117.2 66.8 L124.75 67.5 Q130.6 67.5 139.15 66.05 147.9 64.5 149.6 64.5 154.35 64.5 157.9 66.1 L158.85 66.55 161.7 67.2 Q170.5 69.25 182.4 70.15 L190.25 70.25 198.75 69.85 201.0 69.5 202.45 69.5 209.7 68.1 Q217.85 66.45 224.35 65.75 L232.35 66.05 232.6 66.0 236.65 66.75 245.0 67.65 256.7 67.65 Q264.5 67.2 272.0 65.8 L275.6 65.05 282.15 62.75 Q287.8 60.85 290.05 59.4 L290.05 59.45 295.8 55.65 295.8 55.7 Q298.7 54.15 303.9 53.2 L304.55 53.1 305.05 53.1 306.45 53.15 307.85 52.7 310.5 50.9 Q312.7 49.5 313.35 48.25 L314.5 45.05 Q314.25 43.95 314.25 42.15 314.15 40.9 315.6 40.5 L317.9 40.45 Q320.85 40.85 322.05 42.35 L322.15 42.55 322.75 44.4 Q323.15 45.0 324.0 45.3 L325.0 45.35 Q330.35 45.35 332.75 43.9 L332.7 43.9 334.15 42.55 334.65 42.1 340.25 42.45 345.1 43.3 345.2 43.35 347.4 44.25 349.2 44.85 349.1 44.85 351.35 45.7 351.85 46.1 352.25 47.45 352.9 47.9 354.2 48.6 354.35 48.7 Q354.85 49.05 357.5 49.9 L357.45 49.9 361.25 51.25 363.9 51.65 370.75 52.4 380.9 52.4 385.0 51.6 385.05 51.6 389.35 51.0 Q394.85 51.0 398.6 52.25 400.0 52.75 401.95 53.9 L402.1 54.05 403.0 55.45 403.0 55.4 Q403.4 56.05 403.95 56.35 L404.85 56.8 404.9 56.8 406.55 57.1 406.6 57.1 Q408.75 57.05 409.7 57.6 L409.75 57.65 Q410.55 58.05 410.7 58.7 L410.75 59.2 410.5 59.65 410.1 60.15 410.0 60.25 Q409.45 60.85 408.5 60.85 L407.35 60.85 Q407.15 60.3 406.4 60.0 405.15 59.5 403.15 60.0 L401.5 59.1 401.3 58.95 399.9 57.35 Q395.5 54.7 389.0 54.5 L385.65 55.15 381.4 55.9 381.25 55.9 370.5 55.9 370.4 55.9 360.5 54.4 360.5 54.45 359.05 53.8 Q357.15 53.45 353.85 51.8 L352.95 51.35 349.5 49.2 Q349.2 49.05 349.25 48.0 L349.2 48.0 347.85 47.45 346.8 46.95 Q339.65 45.3 338.1 45.25 L338.0 45.25 336.6 45.35 Q336.0 46.5 334.35 47.45 L331.85 48.4 328.25 48.75 322.8 48.25 Q321.8 48.2 320.55 47.0 L320.45 46.9 319.35 45.45 319.15 44.8 Q319.15 44.55 319.3 44.55 L318.95 44.25 318.65 43.55 317.9 43.55 317.95 43.7 317.75 43.65 317.5 43.65 317.5 44.5 Q317.5 47.05 316.2 49.6 L315.6 50.65 313.8 52.95 Q313.4 53.75 312.5 54.55 L312.5 54.5 311.2 55.35 311.15 55.45 Q310.25 56.25 307.3 56.15 L306.8 56.15 304.5 56.65 304.15 56.65 303.4 56.5 299.8 57.7 Q298.75 58.15 297.15 59.35 L297.15 59.4 294.15 61.45 291.6 62.95 286.85 65.2 Q281.85 67.5 278.75 68.1 277.25 68.9 274.25 69.35 L274.2 69.35 263.65 70.65 260.05 71.15 259.45 71.25 257.8 71.55 257.2 71.65 257.0 71.65 251.6 71.65 251.3 71.65 244.75 71.65 244.6 71.65 241.2 71.15 241.15 71.15 239.75 70.9 238.65 70.7 237.7 70.55 236.1 70.25 235.75 70.15 235.2 70.05 231.75 69.6 Q223.75 69.6 213.55 71.15 L211.35 71.5 200.85 73.35 199.8 73.25 194.85 73.75 182.25 73.65 182.2 73.65 167.6 72.2 162.65 71.25 161.95 71.1 161.6 71.05 161.1 70.95 160.05 70.75 155.6 69.65 155.55 69.6 Q152.35 68.5 149.45 68.5 L139.75 69.75 139.15 69.85 136.75 70.2 135.45 70.35 133.15 70.55 123.85 71.0 118.25 70.5 117.8 70.45 115.85 70.1 113.1 69.5 109.75 68.7 109.3 68.6 108.5 68.45 106.8 68.05 104.35 67.6 103.65 67.5 103.15 67.3 103.0 67.2 99.9 65.9 97.5 64.75 96.0 63.9 95.35 63.75 95.05 63.6 Q93.75 62.7 92.7 62.25 90.65 61.35 84.25 61.35 L83.5 61.35 81.25 61.2 80.25 61.05 78.65 60.75 77.25 60.4 76.35 60.15 72.6 58.75 72.6 58.8 72.25 58.65 71.55 58.3 Q69.1 57.05 67.75 55.65 L66.9 54.65 66.15 53.8 65.95 53.5 Q64.85 53.05 63.9 51.4 L63.25 50.3 62.45 48.4 62.1 47.1 61.75 47.1 Q61.1 47.1 60.5 46.7 L60.1 46.5 57.55 46.5 Q57.0 47.7 55.85 48.8 L55.85 48.75 54.9 49.6 Q53.7 50.45 52.4 50.8 L52.35 50.8 52.3 50.8 52.25 50.85 48.2 52.35 41.25 53.1 40.05 53.4 38.5 53.75 37.65 53.75 31.95 54.3 31.2 54.3 Q26.8 54.2 25.15 54.95 L23.5 55.6 18.15 57.8 18.15 57.85 11.2 60.8 11.15 60.85 Q9.1 61.8 4.45 62.65 L-0.65 63.35" fill="#a0f7fe" fill-rule="evenodd" stroke="none"/>
  </g>
</svg>
