<?xml version="1.0" encoding="UTF-8" standalone="no"?>
<svg xmlns:ffdec="https://www.free-decompiler.com/flash" xmlns:xlink="http://www.w3.org/1999/xlink" ffdec:objectType="shape" height="78.2px" width="105.25px" xmlns="http://www.w3.org/2000/svg">
  <g transform="matrix(1.0, 0.0, 0.0, 1.0, 48.25, 80.45)">
    <path d="M54.25 -67.5 Q56.35 -65.55 56.85 -63.0 L57.0 -58.5 56.75 -54.75 56.0 -54.25 53.65 -58.25 53.35 -58.75 Q51.8 -59.5 51.1 -61.3 50.3 -63.25 46.5 -63.75 L41.3 -65.45 Q36.85 -67.0 34.0 -67.0 L26.4 -66.8 18.75 -66.25 Q-4.65 -64.85 -21.95 -54.7 -29.1 -50.5 -33.25 -45.75 -37.25 -41.2 -37.25 -37.6 -37.25 -34.25 -35.2 -32.25 -33.55 -30.65 -29.75 -29.15 L-22.05 -26.25 Q-17.05 -24.2 -13.25 -21.5 -8.0 -17.7 -5.3 -12.6 -4.05 -10.2 -2.0 -3.5 -2.25 -2.75 -3.0 -2.25 -9.9 -12.25 -30.65 -24.8 -40.15 -30.55 -43.05 -32.8 -48.25 -36.8 -48.25 -40.0 -48.25 -46.6 -33.0 -56.95 -22.55 -64.05 -10.0 -70.0 19.55 -84.15 39.0 -79.15 46.5 -77.25 50.85 -72.7 53.3 -70.2 54.2 -67.5 L54.25 -67.5 M54.75 -61.25 L54.65 -61.45 54.65 -61.35 54.75 -61.25" fill="#ffffff" fill-opacity="0.5019608" fill-rule="evenodd" stroke="none"/>
  </g>
</svg>
