<?xml version="1.0" encoding="UTF-8" standalone="no"?>
<svg xmlns:ffdec="https://www.free-decompiler.com/flash" xmlns:xlink="http://www.w3.org/1999/xlink" ffdec:objectType="shape" height="102.65px" width="112.0px" xmlns="http://www.w3.org/2000/svg">
  <g transform="matrix(1.0, 0.0, 0.0, 1.0, 45.0, 100.9)">
    <path d="M66.0 -76.3 L66.0 -77.0 Q66.0 -80.4 62.15 -84.35 57.85 -88.8 50.65 -91.45 31.6 -98.5 4.5 -89.5 -7.35 -85.5 -14.8 -81.0 -19.15 -78.85 -24.75 -73.75 -30.2 -68.85 -34.25 -63.3 L-36.35 -60.15 -37.55 -58.0 Q-38.75 -55.75 -38.75 -53.35 -38.75 -51.0 -35.05 -47.75 L-35.35 -47.9 -35.2 -47.75 -35.0 -47.7 -34.7 -47.45 Q-30.6 -43.95 -23.95 -40.75 -15.0 -36.4 -5.95 -34.5 -3.65 -32.65 -1.8 -31.55 4.0 -24.85 4.0 -16.0 4.0 -12.7 3.55 -10.45 L4.3 -11.9 4.3 -11.35 4.3 -8.75 3.5 -7.35 3.5 -6.0 3.0 -2.8 Q2.5 -0.8 2.5 0.75 L0.0 1.75 -1.35 1.3 Q-1.75 1.0 -1.75 -0.6 -1.75 -2.85 -0.45 -8.35 L-0.3 -9.05 -0.25 -11.75 Q-0.25 -21.05 -6.6 -27.65 -11.1 -32.3 -20.6 -37.0 -32.85 -43.05 -34.65 -44.25 L-37.0 -46.05 -37.65 -46.25 Q-45.0 -49.2 -45.0 -53.5 -45.0 -58.1 -38.65 -66.15 -31.85 -74.75 -21.4 -82.45 5.85 -102.5 35.0 -100.75 52.4 -99.15 60.8 -91.95 67.0 -86.6 67.0 -79.85 67.0 -78.4 66.35 -77.05 L66.0 -76.3" fill="#ffffff" fill-opacity="0.5019608" fill-rule="evenodd" stroke="none"/>
  </g>
</svg>
