<?xml version="1.0" encoding="UTF-8" standalone="no"?>
<svg xmlns:ffdec="https://www.free-decompiler.com/flash" xmlns:xlink="http://www.w3.org/1999/xlink" ffdec:objectType="shape" height="232.9px" width="228.65px" xmlns="http://www.w3.org/2000/svg">
  <g transform="matrix(1.0, 0.0, 0.0, 1.0, 120.0, 135.85)">
    <path d="M107.25 -83.15 L107.05 -82.15 105.35 -79.3 105.3 -79.25 105.1 -79.0 106.0 -79.0 Q107.0 -78.65 107.9 -77.25 108.65 -76.0 108.65 -75.35 108.65 -73.85 107.0 -73.25 L104.35 -73.95 104.25 -73.6 103.6 -72.15 103.55 -72.05 102.35 -69.95 101.6 -69.15 Q101.1 -68.85 100.55 -68.85 L100.25 -68.85 Q99.6 -68.85 99.1 -69.2 98.6 -69.6 98.4 -70.15 L98.2 -70.7 Q98.05 -71.1 98.05 -71.5 L98.25 -72.3 99.05 -74.75 99.05 -74.8 Q99.35 -75.95 99.75 -76.7 99.05 -76.95 98.7 -77.45 97.85 -77.95 97.5 -78.4 L97.2 -78.85 97.2 -78.9 Q96.85 -79.35 96.8 -79.95 96.75 -80.7 97.2 -81.3 97.65 -82.5 100.75 -82.5 L101.05 -82.45 101.6 -83.8 101.6 -83.75 Q103.0 -86.7 104.55 -86.25 L105.55 -86.0 106.25 -85.3 106.95 -84.15 107.25 -83.15 M102.2 -81.9 L101.05 -82.45 101.0 -82.3 102.2 -81.9 M103.2 -78.5 L103.15 -78.3 103.2 -78.25 103.1 -78.25 103.2 -78.25 103.4 -78.5 103.2 -78.5 M103.25 -78.65 L103.4 -78.7 103.3 -78.75 103.25 -78.65 M87.25 2.15 L86.9 2.25 86.95 2.7 87.8 2.35 Q90.55 1.55 90.55 4.5 90.55 5.7 89.8 6.75 L89.65 7.0 89.7 7.05 90.45 7.7 90.95 8.45 91.25 9.5 91.0 10.55 Q90.45 11.5 89.4 12.05 L88.1 12.2 87.2 12.0 87.0 11.9 87.25 13.25 Q87.25 14.75 86.55 15.75 85.75 16.8 84.5 16.8 82.45 16.8 82.05 15.3 L82.05 13.6 Q82.05 11.9 82.55 11.05 L82.6 10.5 82.6 10.55 82.6 10.5 82.9 9.9 Q82.15 10.45 80.65 10.55 L79.85 10.45 79.15 10.0 Q78.25 9.3 78.25 7.5 78.25 6.65 78.85 6.1 79.4 5.5 80.25 5.5 L80.9 5.5 81.25 5.55 82.1 5.8 82.0 4.0 82.05 2.0 Q82.05 1.2 82.65 0.65 83.25 0.05 84.05 0.05 L84.75 0.05 Q85.3 0.05 85.75 0.35 L86.5 1.1 86.85 2.05 87.25 2.15 M84.25 8.25 L83.75 8.2 83.5 9.05 83.15 9.65 84.65 9.5 85.25 9.7 Q85.15 8.75 85.9 8.0 L86.15 7.8 85.95 7.7 85.7 7.9 85.6 8.0 84.55 8.25 84.25 8.25 M87.05 15.05 L86.8 15.5 87.05 14.85 87.05 15.05 M34.9 84.8 L35.6 84.9 35.95 85.0 Q36.5 83.8 37.95 83.6 40.3 83.35 40.3 85.65 L40.3 85.9 40.6 85.8 40.65 85.85 41.45 85.6 Q44.3 84.85 44.3 87.75 44.3 88.75 43.3 90.0 L42.5 90.85 42.6 91.0 43.0 92.05 43.55 94.75 43.35 95.9 42.6 96.8 41.45 97.05 40.35 96.65 Q39.45 96.0 38.5 94.45 L38.45 94.35 37.8 93.05 37.65 92.7 36.5 93.3 35.0 93.3 33.55 91.75 Q33.55 90.65 33.9 89.85 L33.8 89.8 33.2 89.45 32.55 88.7 32.3 87.75 Q32.2 85.8 34.2 84.95 L34.9 84.8 M-14.2 -131.95 L-14.25 -132.0 -13.75 -129.65 Q-13.7 -129.05 -13.95 -128.5 -14.2 -127.95 -14.75 -127.6 L-15.5 -127.35 -15.4 -127.0 Q-15.3 -126.4 -15.5 -125.85 L-14.35 -125.6 -14.25 -125.55 -14.5 -126.4 -14.3 -127.4 Q-13.95 -128.3 -12.6 -128.85 L-9.85 -128.8 -9.0 -127.95 Q-8.7 -127.4 -8.75 -126.75 -8.85 -126.15 -9.25 -125.7 -10.4 -124.35 -11.9 -124.1 L-12.8 -124.15 -12.65 -123.95 -11.9 -123.0 Q-11.5 -122.6 -11.4 -122.0 -11.25 -121.4 -11.5 -120.8 -12.15 -119.25 -13.3 -118.95 L-14.4 -118.9 Q-14.95 -119.0 -15.35 -119.4 -17.9 -121.75 -17.6 -123.05 L-17.5 -123.65 -17.7 -123.55 -19.2 -123.15 -20.75 -123.35 -20.9 -123.45 Q-22.1 -123.4 -22.1 -126.05 -22.2 -128.55 -19.5 -128.95 L-19.2 -129.0 -18.65 -129.0 -19.3 -130.8 -19.3 -130.85 -19.5 -133.75 Q-19.5 -134.5 -19.0 -135.05 -18.5 -135.65 -17.75 -135.7 L-17.0 -135.8 -15.7 -135.55 Q-15.1 -135.15 -14.85 -134.45 L-14.2 -131.95 M-117.3 -86.7 Q-116.7 -86.65 -116.8 -86.4 L-116.75 -86.4 Q-115.45 -86.15 -114.65 -85.45 L-114.0 -86.15 Q-113.0 -87.15 -111.85 -87.1 -111.0 -87.1 -110.4 -86.5 -109.85 -85.95 -109.85 -85.1 L-109.85 -83.6 -109.5 -83.55 Q-108.75 -83.5 -108.25 -82.9 -107.75 -82.35 -107.75 -81.6 -107.75 -80.1 -108.9 -79.0 L-109.25 -78.75 Q-108.5 -78.05 -108.5 -77.05 -108.5 -75.95 -109.35 -75.0 -110.25 -74.0 -111.25 -74.0 -112.55 -74.0 -113.15 -75.25 L-113.3 -75.6 Q-113.4 -75.55 -113.55 -75.45 L-113.75 -75.35 -113.95 -75.25 -114.0 -75.4 -115.75 -75.0 Q-117.3 -75.0 -117.85 -76.25 -118.15 -76.9 -118.1 -77.65 -118.1 -79.15 -116.6 -79.65 L-116.7 -79.75 -116.6 -79.8 Q-118.2 -80.3 -119.15 -81.85 -120.0 -83.25 -120.0 -84.3 -120.0 -86.15 -118.55 -86.45 L-117.65 -86.75 -117.3 -86.7 M-113.25 -79.75 L-113.3 -79.7 -113.15 -79.6 -113.1 -79.65 -113.05 -79.65 -113.0 -79.7 -113.1 -79.9 -113.25 -79.75 M-112.9 -79.6 L-113.0 -79.6 -112.9 -79.5 -112.8 -79.4 -112.75 -79.45 -112.9 -79.6 M-92.35 63.9 Q-92.15 64.55 -92.35 65.2 -92.7 66.15 -93.4 67.1 L-93.45 67.15 Q-95.35 69.35 -97.65 68.4 L-98.65 67.65 Q-98.7 68.25 -98.9 68.5 L-99.4 69.25 -100.1 69.7 -100.25 69.75 -100.25 70.15 Q-100.3 70.8 -100.7 71.3 L-100.7 71.35 -100.4 71.5 Q-99.8 70.05 -99.15 70.0 L-96.2 70.1 Q-95.85 70.2 -95.55 70.4 L-95.15 70.7 Q-94.6 71.1 -94.4 71.75 -94.25 72.35 -94.45 73.0 L-94.7 73.7 -95.25 74.5 Q-95.6 74.8 -96.05 74.95 L-96.95 75.2 -98.1 75.15 -98.55 75.0 -99.55 74.65 -99.95 75.1 Q-100.4 75.5 -101.7 76.1 L-101.65 76.1 Q-103.15 76.85 -104.45 77.05 L-105.65 76.85 -106.55 75.9 -106.7 74.7 Q-106.6 74.05 -106.1 73.6 L-104.65 72.3 -105.5 71.8 -106.05 71.15 -106.25 70.25 Q-106.45 68.95 -104.9 67.95 L-104.8 67.9 -104.3 67.6 -104.35 66.65 Q-104.35 64.65 -103.35 64.1 -103.0 63.55 -101.25 63.55 -100.7 63.55 -100.25 63.85 L-100.1 63.9 -99.65 64.15 Q-98.9 64.25 -98.7 65.45 L-98.6 65.35 -97.65 64.0 -97.6 64.0 Q-96.75 62.6 -94.3 62.5 -93.65 62.5 -93.1 62.9 -92.55 63.25 -92.35 63.9" fill="#d7fffb" fill-opacity="0.5019608" fill-rule="evenodd" stroke="none"/>
    <path d="M104.55 -84.25 L105.25 -83.1 103.75 -80.5 103.05 -80.5 102.95 -80.4 Q102.8 -80.45 102.8 -81.25 L103.4 -82.9 Q104.05 -84.25 104.55 -84.25 M102.5 -76.35 L102.55 -75.55 Q102.55 -74.4 101.85 -73.1 L100.55 -70.85 100.25 -70.85 100.05 -71.4 100.95 -74.25 Q101.55 -76.25 102.25 -76.5 L102.5 -76.35 M105.4 -75.85 L103.8 -75.6 103.55 -77.6 104.25 -77.55 105.8 -76.5 Q105.75 -76.0 105.4 -75.85 M101.3 -79.1 L100.5 -78.85 Q99.4 -79.3 99.0 -79.75 L98.8 -80.1 Q99.1 -80.5 100.75 -80.5 L101.05 -79.9 101.3 -79.35 101.3 -79.1 M88.25 4.55 L88.5 5.0 87.0 6.3 86.5 6.05 87.25 4.15 88.25 4.55 M84.75 2.05 L85.0 4.0 84.95 5.3 84.55 6.25 84.25 6.25 Q84.0 5.5 84.0 4.0 L84.05 2.05 84.75 2.05 M84.75 11.8 L85.1 12.05 85.25 12.9 85.05 14.5 84.5 15.05 83.85 14.3 83.75 13.0 Q83.75 12.15 84.0 11.95 L84.75 11.8 M89.25 9.55 L88.5 10.25 87.25 9.75 Q87.25 9.4 87.7 9.1 88.2 8.8 88.75 8.8 L89.25 9.55 M80.25 7.5 L80.9 7.5 81.75 8.05 Q81.5 8.5 80.55 8.55 80.25 8.25 80.25 7.5 M37.8 85.3 L38.75 86.5 38.25 87.55 37.25 87.55 36.8 85.3 37.8 85.3 M36.55 88.05 L36.25 88.8 34.3 87.75 Q34.3 87.1 35.0 86.8 35.5 86.95 36.05 87.4 L36.55 88.05 M37.25 89.55 L37.75 90.3 37.1 91.05 36.05 91.5 35.8 91.3 35.75 90.5 Q35.75 89.7 36.25 89.55 L37.25 89.55 M39.3 91.3 Q40.6 91.1 41.05 92.6 L41.55 95.05 40.2 93.4 39.3 91.3 M42.75 88.5 L42.25 89.0 41.05 89.0 Q40.8 89.6 40.8 88.35 40.8 87.7 41.55 87.65 L43.05 87.8 42.75 88.5 M-17.5 -133.75 L-16.75 -133.85 -16.2 -131.6 -15.75 -129.35 Q-17.0 -129.45 -17.35 -131.2 L-17.5 -133.75 M-17.35 -126.6 Q-17.55 -126.1 -18.25 -125.5 L-19.75 -125.1 -20.0 -125.25 -20.1 -126.05 Q-20.1 -126.85 -19.2 -127.0 L-17.75 -127.0 -17.35 -126.6 M-12.25 -126.1 L-12.5 -126.5 -11.85 -127.0 Q-11.25 -127.25 -10.75 -127.0 -11.4 -126.25 -12.25 -126.1 M-14.0 -120.85 Q-15.6 -122.35 -15.6 -123.05 L-15.35 -123.85 -14.25 -122.75 -13.35 -121.6 Q-13.6 -121.0 -14.0 -120.85 M-114.75 -81.1 Q-115.9 -81.4 -117.05 -82.4 -118.1 -83.35 -118.1 -83.9 -118.1 -84.65 -117.8 -84.75 L-117.5 -84.75 Q-116.2 -83.7 -114.5 -81.5 L-114.75 -81.1 M-112.6 -84.75 L-111.85 -85.1 Q-111.85 -82.85 -112.1 -81.75 L-112.75 -81.6 Q-113.1 -82.15 -113.1 -83.5 -113.1 -84.35 -112.6 -84.75 M-112.5 -77.5 Q-112.15 -78.0 -111.25 -78.0 -110.6 -77.35 -110.35 -76.1 L-110.5 -75.85 -112.1 -76.0 -112.5 -77.5 M-114.35 -77.35 L-114.65 -77.15 -115.5 -76.85 -115.9 -77.0 -116.5 -77.5 -115.35 -78.15 -114.35 -78.1 -114.35 -77.35 M-110.25 -80.5 L-110.6 -80.55 -111.35 -80.85 -110.85 -81.55 -109.75 -81.6 Q-109.75 -80.95 -110.25 -80.5 M-94.25 64.5 L-95.0 65.85 Q-95.9 66.9 -97.0 66.5 L-96.05 65.2 Q-95.55 64.55 -94.25 64.5 M-100.75 65.8 Q-100.6 65.9 -100.6 66.65 L-100.7 67.6 -100.85 67.8 -101.5 68.05 -102.15 67.75 Q-102.35 67.5 -102.35 66.65 -102.35 65.85 -102.0 65.65 L-101.25 65.55 -100.75 65.8 M-96.35 72.3 L-96.6 73.0 -97.5 73.25 -97.95 73.1 -98.75 72.75 -98.25 71.8 -96.75 72.0 -96.35 72.3 M-102.25 70.05 L-102.45 70.3 -103.0 70.75 -103.45 70.6 -104.25 70.25 -103.8 69.6 -102.75 69.3 -102.25 70.05 M-104.75 75.05 L-102.5 73.0 Q-101.45 73.1 -101.25 73.55 L-102.55 74.3 -104.75 75.05" fill="#ffffff" fill-rule="evenodd" stroke="none"/>
  </g>
</svg>
