<?xml version="1.0" encoding="UTF-8" standalone="no"?>
<svg xmlns:ffdec="https://www.free-decompiler.com/flash" xmlns:xlink="http://www.w3.org/1999/xlink" ffdec:objectType="shape" height="152.45px" width="596.7px" xmlns="http://www.w3.org/2000/svg">
  <g transform="matrix(1.0, 0.0, 0.0, 1.0, 322.3, 48.9)">
    <path d="M39.9 -48.6 L40.05 -47.55 Q40.05 -46.7 39.7 -46.3 L39.9 -45.45 Q39.7 -44.7 38.55 -44.15 L37.95 -44.45 Q37.95 -45.0 38.2 -45.55 L37.9 -45.6 Q37.65 -45.7 37.65 -46.65 37.65 -47.05 38.0 -47.7 38.5 -48.55 39.45 -48.9 L39.9 -48.6 M25.05 -23.1 L25.95 -22.45 Q26.3 -21.95 26.3 -20.9 L24.45 -17.85 23.55 -19.0 Q23.25 -19.45 23.25 -20.0 23.25 -20.4 23.6 -21.15 24.1 -22.25 25.05 -23.1 M89.6 -11.0 L89.55 -9.7 89.3 -9.15 88.25 -9.0 87.85 -9.5 87.8 -10.8 Q87.8 -13.05 89.0 -13.25 89.6 -12.35 89.6 -11.0 M274.4 49.05 L274.35 50.35 274.1 50.9 273.05 51.05 272.65 50.55 272.6 49.25 Q272.6 47.0 273.8 46.8 274.4 47.7 274.4 49.05 M222.45 42.8 Q222.45 42.4 222.8 41.75 223.3 40.9 224.25 40.55 L224.7 40.85 224.85 41.9 Q224.85 42.75 224.5 43.15 L224.7 44.0 Q224.5 44.75 223.35 45.3 L222.75 45.0 223.0 43.9 222.7 43.85 Q222.45 43.75 222.45 42.8 M152.3 83.25 L150.45 86.3 149.55 85.15 Q149.25 84.7 149.25 84.15 149.25 83.75 149.6 83.0 150.1 81.9 151.05 81.05 L151.95 81.7 Q152.3 82.2 152.3 83.25 M-268.15 -20.7 L-268.4 -20.25 -269.05 -20.0 -269.8 -19.65 -270.6 -19.9 -270.85 -21.05 Q-270.85 -21.8 -270.1 -22.35 L-268.9 -22.95 -268.3 -22.65 Q-268.1 -22.5 -268.1 -21.6 L-268.15 -20.7 M-147.8 -0.7 L-147.6 0.6 Q-147.6 1.6 -147.85 1.9 L-148.65 2.25 -149.6 2.0 -149.75 0.8 -149.65 -0.4 Q-149.45 -0.9 -148.35 -1.2 L-147.8 -0.7 M-95.55 -47.4 L-95.6 -46.5 -95.85 -46.05 -96.5 -45.8 Q-97.0 -45.5 -97.25 -45.45 L-98.05 -45.7 -98.3 -46.85 Q-98.3 -47.6 -97.55 -48.15 L-96.35 -48.75 -95.75 -48.45 Q-95.55 -48.3 -95.55 -47.4 M-9.45 101.55 L-9.5 102.85 -9.75 103.4 -10.8 103.55 -11.2 103.05 -11.25 101.75 Q-11.25 99.5 -10.05 99.3 -9.45 100.2 -9.45 101.55 M-206.9 80.0 L-207.8 78.85 -208.1 77.85 -207.75 76.7 Q-207.25 75.6 -206.3 74.75 -205.65 75.0 -205.4 75.4 -205.05 75.9 -205.05 76.95 L-206.9 80.0 M-176.6 65.0 Q-176.6 65.85 -176.95 66.25 L-176.75 67.1 Q-176.95 67.85 -178.1 68.4 L-178.7 68.1 -178.45 67.0 -178.75 66.95 -179.0 65.9 -178.65 64.85 Q-178.15 64.0 -177.2 63.65 -176.8 63.85 -176.75 63.95 -176.6 64.05 -176.6 65.0 M-320.15 54.35 Q-320.15 55.35 -320.4 55.65 L-321.2 56.0 -322.15 55.75 -322.3 54.55 -322.2 53.35 Q-322.0 52.85 -320.9 52.55 L-320.35 53.05 -320.15 54.35" fill="#ffffff" fill-opacity="0.9882353" fill-rule="evenodd" stroke="none"/>
  </g>
</svg>
