<?xml version="1.0" encoding="UTF-8" standalone="no"?>
<svg xmlns:ffdec="https://www.free-decompiler.com/flash" xmlns:xlink="http://www.w3.org/1999/xlink" ffdec:objectType="shape" height="184.1px" width="566.9px" xmlns="http://www.w3.org/2000/svg">
  <g transform="matrix(1.0, 0.0, 0.0, 1.0, 319.55, 89.75)">
    <path d="M62.55 -33.45 Q62.1 -33.0 61.35 -33.0 L61.2 -32.9 Q61.05 -32.95 61.05 -33.9 L61.15 -34.95 61.35 -35.3 62.1 -35.3 Q62.55 -34.55 62.55 -33.45 M247.35 11.9 Q246.9 12.35 246.15 12.35 L246.0 12.45 Q245.85 12.4 245.85 11.45 L245.95 10.4 246.15 10.05 246.9 10.05 Q247.35 10.8 247.35 11.9 M-318.05 -33.25 L-318.35 -33.0 Q-318.65 -32.75 -319.1 -32.65 L-319.45 -33.2 -319.55 -34.5 -319.55 -35.6 -319.4 -36.0 -318.5 -36.0 Q-318.05 -35.3 -318.05 -33.25 M-145.5 -87.0 L-145.8 -86.75 Q-146.1 -86.5 -146.55 -86.4 L-146.9 -86.95 -147.0 -88.25 -147.0 -89.35 -146.85 -89.75 -145.95 -89.75 Q-145.5 -89.05 -145.5 -87.0 M-122.25 -9.65 L-122.0 -11.25 Q-121.75 -11.75 -121.1 -12.0 L-120.25 -11.1 -120.05 -9.65 Q-120.05 -8.6 -120.2 -8.2 L-120.8 -7.2 -122.1 -7.2 -122.25 -9.65 M-65.9 93.8 Q-66.35 94.25 -67.1 94.25 L-67.25 94.35 -67.4 93.35 -67.3 92.3 -67.1 91.95 -66.35 91.95 Q-65.9 92.7 -65.9 93.8 M-293.65 59.35 L-292.8 60.25 -292.6 61.7 Q-292.6 62.75 -292.75 63.15 L-293.35 64.15 -294.65 64.15 -294.8 61.7 -294.55 60.1 Q-294.3 59.6 -293.65 59.35" fill="#ffffff" fill-opacity="0.9882353" fill-rule="evenodd" stroke="none"/>
  </g>
</svg>
