<?xml version="1.0" encoding="UTF-8" standalone="no"?>
<svg xmlns:ffdec="https://www.free-decompiler.com/flash" xmlns:xlink="http://www.w3.org/1999/xlink" ffdec:objectType="shape" height="178.85px" width="542.15px" xmlns="http://www.w3.org/2000/svg">
  <g transform="matrix(1.0, 0.0, 0.0, 1.0, 294.2, 62.2)">
    <path d="M61.95 -60.6 L61.8 -60.35 Q61.65 -60.3 61.65 -61.25 61.65 -62.15 61.85 -62.2 L62.4 -62.1 62.8 -61.8 63.15 -61.2 Q63.0 -60.75 61.95 -60.6 M246.75 -15.25 L246.6 -15.0 Q246.45 -14.95 246.45 -15.9 246.45 -16.8 246.65 -16.85 L247.2 -16.75 247.6 -16.45 247.95 -15.85 Q247.8 -15.4 246.75 -15.25 M223.65 88.4 L224.4 90.2 224.4 92.95 223.35 93.55 222.45 92.65 Q222.3 92.3 222.3 91.15 222.3 88.85 223.65 88.4 M39.6 3.5 L38.55 4.1 37.65 3.2 Q37.5 2.85 37.5 1.7 37.5 -0.6 38.85 -1.05 L39.6 0.75 39.6 3.5 M-119.65 -39.1 L-119.45 -37.8 -119.6 -35.9 -119.9 -35.65 Q-120.3 -35.4 -120.95 -35.3 L-121.5 -36.1 -121.65 -37.65 -121.45 -38.55 -120.2 -39.6 -119.65 -39.1 M-66.5 66.65 L-66.65 66.9 -66.8 66.0 Q-66.8 65.1 -66.6 65.05 L-66.05 65.15 -65.65 65.45 -65.3 66.05 Q-65.45 66.5 -66.5 66.65 M-96.4 1.7 L-96.2 3.0 -96.3 4.1 -96.5 4.4 -97.25 4.7 -98.05 4.3 -98.3 3.0 Q-98.3 1.2 -96.95 1.2 L-96.4 1.7 M-268.75 28.8 L-268.85 29.9 -269.05 30.2 -269.8 30.5 -270.6 30.1 -270.85 28.8 Q-270.85 27.0 -269.5 27.0 L-268.95 27.5 -268.75 28.8 M-292.2 32.25 L-292.0 33.55 -292.15 35.45 -292.45 35.7 -293.5 36.05 -294.05 35.25 -294.2 33.7 -294.0 32.8 -292.75 31.75 -292.2 32.25 M-177.8 111.5 L-177.05 113.3 -177.05 116.05 -178.1 116.65 -179.0 115.75 -179.15 114.25 Q-179.15 111.95 -177.8 111.5" fill="#ffffff" fill-opacity="0.9882353" fill-rule="evenodd" stroke="none"/>
  </g>
</svg>
