<?xml version="1.0" encoding="UTF-8" standalone="no"?>
<svg xmlns:ffdec="https://www.free-decompiler.com/flash" xmlns:xlink="http://www.w3.org/1999/xlink" ffdec:objectType="shape" height="47.0px" width="155.0px" xmlns="http://www.w3.org/2000/svg">
  <g transform="matrix(1.0, 0.0, 0.0, 1.0, 0.0, -13.5)">
    <path d="M153.35 15.2 Q155.0 16.95 155.0 20.5 L155.0 53.55 Q155.0 57.05 153.35 58.85 151.4 60.5 147.6 60.5 L115.4 60.5 Q111.6 60.5 109.7 58.85 108.0 57.05 108.0 53.55 L108.0 20.5 Q108.0 16.95 109.7 15.2 111.6 13.5 115.4 13.5 L147.6 13.5 Q151.4 13.5 153.35 15.2 M99.35 15.2 Q101.0 16.95 101.0 20.5 L101.0 53.55 Q101.0 57.05 99.35 58.85 97.4 60.5 93.6 60.5 L61.4 60.5 Q57.6 60.5 55.7 58.85 54.0 57.05 54.0 53.55 L54.0 20.5 Q54.0 16.95 55.7 15.2 57.6 13.5 61.4 13.5 L93.6 13.5 Q97.4 13.5 99.35 15.2 M47.0 20.5 L47.0 53.55 Q47.0 57.05 45.35 58.85 43.4 60.5 39.6 60.5 L7.4 60.5 Q3.6 60.5 1.7 58.85 0.0 57.05 0.0 53.55 L0.0 20.5 Q0.0 16.95 1.7 15.2 3.6 13.5 7.4 13.5 L39.6 13.5 Q43.4 13.5 45.35 15.2 47.0 16.95 47.0 20.5" fill="#ff0000" fill-rule="evenodd" stroke="none"/>
  </g>
</svg>
