<?xml version="1.0" encoding="UTF-8" standalone="no"?>
<svg xmlns:ffdec="https://www.free-decompiler.com/flash" xmlns:xlink="http://www.w3.org/1999/xlink" ffdec:objectType="shape" height="45.55px" width="29.35px" xmlns="http://www.w3.org/2000/svg">
  <g transform="matrix(1.0, 0.0, 0.0, 1.0, 43.6, 33.45)">
    <path d="M-25.7 -1.0 L-26.15 -1.35 -26.1 -1.35 -25.75 -1.2 -23.45 -0.35 -22.05 0.25 -22.15 -0.75 -22.2 -0.9 -22.25 -1.25 -22.65 -2.85 -22.65 -3.0 Q-22.25 -3.05 -21.6 -1.75 L-21.0 -0.15 -21.0 0.0 -21.0 0.1 -21.25 1.6 -22.25 3.65 -22.45 4.0 -23.45 5.2 -23.8 5.45 -25.65 6.75 -26.0 6.95 -26.05 7.0 -26.15 7.05 -26.1 8.1 -25.7 8.1 -25.25 7.85 Q-24.6 8.8 -24.75 10.05 L-24.95 12.1 -26.65 12.1 -26.35 10.1 -26.35 9.35 -26.5 9.25 -28.1 8.25 -28.2 7.25 Q-28.2 6.3 -27.6 5.8 -27.1 5.4 -24.6 4.1 L-23.4 3.35 Q-22.45 2.3 -22.15 1.35 L-22.75 0.9 -23.5 0.05 -23.55 0.0 -25.05 -0.75 -25.7 -1.0 M-14.65 -4.6 L-14.65 -4.85 -14.7 -6.0 -14.55 -6.0 -14.45 -5.3 -14.4 -5.3 -14.25 -4.55 -14.3 -4.15 -14.25 -3.65 -14.45 -2.95 -14.55 -2.65 -14.55 -2.4 -14.55 -2.2 Q-14.65 -0.4 -16.45 2.1 L-17.35 3.7 -19.6 6.65 -19.6 6.7 -18.4 9.4 -17.35 12.1 -19.55 12.1 -19.6 11.9 -20.2 10.3 -21.65 7.0 -21.4 6.6 -20.7 5.7 -20.3 5.15 -18.9 3.3 -18.65 3.0 -16.75 0.45 -15.7 -1.2 Q-14.9 -2.85 -14.65 -4.6" fill="#111111" fill-rule="evenodd" stroke="none"/>
    <path d="M-23.5 0.05 L-25.4 -0.55 Q-25.65 -0.7 -25.7 -1.0 L-25.05 -0.75 -23.55 0.0 -23.5 0.05 M-25.75 -1.2 L-25.8 -1.6 Q-25.8 -6.1 -20.1 -6.65 -17.8 -6.85 -16.2 -6.0 -15.1 -5.45 -14.65 -4.6 -14.9 -2.85 -15.7 -1.2 L-16.75 0.45 -18.65 3.0 -18.9 3.3 -20.3 5.15 -20.7 5.7 -21.4 6.6 -21.65 7.0 -20.2 10.3 -19.6 11.9 -19.85 11.25 Q-20.8 11.0 -20.85 12.1 L-24.95 12.1 -24.75 10.05 Q-24.6 8.8 -25.25 7.85 L-25.7 8.1 -26.1 8.1 -26.15 7.05 -26.05 7.0 -26.0 6.95 -25.65 6.75 -23.8 5.45 -23.45 5.2 -22.45 4.0 -22.25 3.65 -21.25 1.6 -21.0 0.1 -21.0 0.0 -21.0 -0.15 -21.6 -1.75 Q-22.25 -3.05 -22.65 -3.0 L-22.65 -2.85 -22.25 -1.25 -22.2 -0.9 -22.15 -0.75 -22.05 0.25 -23.45 -0.35 -25.75 -1.2 M-14.45 -2.95 L-14.55 -2.2 -14.55 -2.4 -14.55 -2.65 -14.45 -2.95 M-21.9 10.35 Q-21.7 10.35 -21.45 9.85 L-21.3 9.35 Q-21.3 8.75 -22.05 8.65 -22.8 8.55 -22.8 9.3 -22.8 10.35 -21.9 10.35" fill="#ff3300" fill-rule="evenodd" stroke="none"/>
    <path d="M-19.55 12.1 L-20.85 12.1 Q-20.8 11.0 -19.85 11.25 L-19.6 11.9 -19.55 12.1 M-21.9 10.35 Q-22.8 10.35 -22.8 9.3 -22.8 8.55 -22.05 8.65 -21.3 8.75 -21.3 9.35 L-21.45 9.85 Q-21.7 10.35 -21.9 10.35" fill="#d22b00" fill-rule="evenodd" stroke="none"/>
    <path d="M-43.6 -31.7 L-43.6 -33.45 -41.15 -32.4 Q-39.0 -31.3 -38.05 -30.25 L-33.75 -26.4 Q-30.9 -23.7 -30.1 -22.35 -29.9 -22.25 -29.85 -22.15 L-29.65 -21.55 -30.25 -19.85 Q-30.9 -18.05 -30.9 -16.65 -30.9 -15.3 -28.95 -12.65 -27.75 -11.05 -27.25 -9.95 L-26.3 -8.85 -26.5 -8.0 -26.9 -7.35 -26.85 -7.8 -27.25 -8.5 -29.25 -10.7 Q-30.9 -12.45 -31.4 -13.7 L-31.65 -14.15 Q-32.45 -15.7 -32.45 -17.6 L-32.45 -17.75 -32.45 -17.95 -32.4 -18.15 -32.2 -19.95 -31.95 -20.6 -31.75 -21.7 -35.05 -24.95 -38.4 -28.2 -39.0 -28.7 -41.8 -30.85 -42.55 -31.25 -43.6 -31.7 M-30.1 -8.15 L-30.1 -7.85 -30.25 -7.85 -31.05 -9.45 -32.55 -10.65 Q-33.95 -11.75 -37.55 -11.75 -40.05 -11.75 -41.05 -11.2 L-42.4 -10.25 -42.45 -10.15 -42.65 -10.1 -42.75 -10.6 Q-42.65 -11.95 -40.95 -16.4 -40.95 -17.75 -42.6 -18.25 L-43.5 -18.45 -43.5 -20.55 -42.95 -20.5 -42.75 -20.45 -42.15 -20.5 -38.65 -20.4 -36.1 -19.85 -37.9 -19.8 -40.2 -19.3 -40.4 -19.2 -40.15 -18.9 Q-39.3 -18.1 -39.2 -16.55 L-39.2 -15.25 -40.0 -13.35 -39.6 -13.6 -38.25 -13.9 -38.05 -13.85 -33.6 -12.85 -33.25 -12.5 Q-32.9 -12.4 -32.5 -12.1 L-31.8 -11.55 Q-30.65 -10.55 -30.25 -9.75 L-30.05 -9.05 -30.1 -8.15 M-43.55 -23.45 L-43.55 -29.1 -43.6 -30.65 -40.65 -28.7 -36.9 -24.95 -34.45 -22.5 -34.5 -22.4 -37.4 -24.95 -40.35 -27.4 -41.15 -27.9 -43.55 -29.1 -43.1 -28.1 -42.95 -27.75 -42.8 -26.15 -42.95 -24.95 -43.15 -24.25 -43.55 -23.45 M-41.2 -20.0 L-41.3 -19.95 -41.25 -19.95 -41.2 -20.0" fill="#111111" fill-rule="evenodd" stroke="none"/>
    <path d="M-43.6 -31.7 L-42.55 -31.25 -41.8 -30.85 -39.0 -28.7 -38.4 -28.2 -35.05 -24.95 -31.75 -21.7 -31.95 -20.6 -32.2 -19.95 -32.4 -18.15 -32.45 -17.95 -32.45 -17.75 -32.45 -17.6 Q-32.45 -15.7 -31.65 -14.15 L-31.4 -13.7 Q-30.9 -12.45 -29.25 -10.7 L-27.25 -8.5 -27.7 -7.9 -28.3 -7.5 Q-28.5 -7.25 -29.0 -7.2 -29.85 -7.15 -30.1 -8.15 L-30.05 -9.05 -30.25 -9.75 Q-30.65 -10.55 -31.8 -11.55 L-32.5 -12.1 Q-32.9 -12.4 -33.25 -12.5 L-33.6 -12.85 -38.05 -13.85 -38.25 -13.9 -39.6 -13.6 -40.0 -13.35 -39.2 -15.25 -39.2 -16.55 Q-39.3 -18.1 -40.15 -18.9 L-40.4 -19.2 -40.2 -19.3 -37.9 -19.8 -36.1 -19.85 -38.65 -20.4 -42.15 -20.5 -42.75 -20.45 -42.95 -20.5 -43.5 -20.55 -43.55 -23.45 -43.15 -24.25 -42.95 -24.95 -42.8 -26.15 -42.95 -27.75 -43.1 -28.1 -43.55 -29.1 -41.15 -27.9 -40.35 -27.4 -37.4 -24.95 -34.5 -22.4 -34.45 -22.5 -36.9 -24.95 -40.65 -28.7 -43.6 -30.65 -43.6 -31.7 M-43.55 -29.1 L-43.6 -29.15 -43.55 -29.1" fill="#b10707" fill-rule="evenodd" stroke="none"/>
  </g>
</svg>
