<?xml version="1.0" encoding="UTF-8" standalone="no"?>
<svg xmlns:ffdec="https://www.free-decompiler.com/flash" xmlns:xlink="http://www.w3.org/1999/xlink" ffdec:objectType="shape" height="42.5px" width="107.45px" xmlns="http://www.w3.org/2000/svg">
  <g transform="matrix(1.0, 0.0, 0.0, 1.0, 4.2, 3.5)">
    <path d="M96.9 8.0 Q96.9 2.85 91.85 2.85 L7.15 2.85 Q2.15 2.85 2.15 8.0 L2.15 27.4 Q2.15 32.6 7.15 32.65 L91.85 32.65 Q96.9 32.6 96.9 27.4 L96.9 8.0 M7.15 -3.5 L91.85 -3.5 Q103.25 -3.55 103.25 8.0 L103.25 27.4 Q103.25 39.0 91.85 39.0 L7.15 39.0 Q-4.2 39.0 -4.2 27.4 L-4.2 8.0 Q-4.2 -3.55 7.15 -3.5" fill="#ffd79b" fill-opacity="0.3647059" fill-rule="evenodd" stroke="none"/>
  </g>
</svg>
