<?xml version="1.0" encoding="UTF-8" standalone="no"?>
<svg xmlns:ffdec="https://www.free-decompiler.com/flash" xmlns:xlink="http://www.w3.org/1999/xlink" ffdec:objectType="shape" height="381.15px" width="381.1px" xmlns="http://www.w3.org/2000/svg">
  <g transform="matrix(1.0, 0.0, 0.0, 1.0, 0.0, 0.0)">
    <path d="M327.7 58.3 Q366.4 98.25 377.1 149.8 L378.3 156.3 378.5 157.1 379.55 164.45 Q380.5 172.35 380.9 180.55 L381.0 182.95 381.0 184.55 381.1 190.6 381.1 190.7 381.1 193.5 380.65 204.8 Q376.0 274.6 325.2 325.3 277.95 372.65 214.05 379.85 L190.55 381.15 Q111.55 381.15 55.8 325.3 5.1 274.6 0.5 204.8 0.1 199.25 0.0 193.5 L0.0 190.7 0.0 190.6 0.1 184.55 0.15 182.95 0.25 180.55 Q0.8 168.55 2.7 157.1 L2.85 156.3 4.05 149.8 Q15.0 96.6 55.8 55.8 111.55 0.0 190.55 0.0 L214.05 1.3 Q277.95 8.5 325.2 55.8 L327.7 58.3" fill="#2d3427" fill-rule="evenodd" stroke="none"/>
  </g>
</svg>
