<?xml version="1.0" encoding="UTF-8" standalone="no"?>
<svg xmlns:ffdec="https://www.free-decompiler.com/flash" xmlns:xlink="http://www.w3.org/1999/xlink" ffdec:objectType="shape" height="86.95px" width="86.95px" xmlns="http://www.w3.org/2000/svg">
  <g transform="matrix(1.0, 0.0, 0.0, 1.0, 43.35, 43.5)">
    <path d="M25.3 -25.0 L25.2 -25.05 Q14.5 -35.65 0.1 -35.7 -15.05 -35.7 -25.7 -25.05 -35.55 -15.2 -35.55 -0.05 -35.55 14.35 -25.6 25.05 L-25.65 24.95 Q-15.0 35.65 0.1 35.65 14.5 35.65 25.2 24.95 35.75 14.25 35.8 -0.05 35.85 -15.2 25.3 -25.0 M30.7 -30.6 L30.6 -30.7 Q43.55 -18.6 43.6 -0.05 43.65 17.45 30.75 30.45 L30.7 30.45 Q17.7 43.45 0.1 43.45 -18.3 43.45 -31.2 30.45 L-31.3 30.35 Q-43.35 17.35 -43.35 -0.05 -43.35 -18.6 -31.2 -30.6 -18.25 -43.5 0.1 -43.5 17.7 -43.55 30.7 -30.6" fill="#ffe0b0" fill-opacity="0.52156866" fill-rule="evenodd" stroke="none"/>
  </g>
</svg>
