<?xml version="1.0" encoding="UTF-8" standalone="no"?>
<svg xmlns:ffdec="https://www.free-decompiler.com/flash" xmlns:xlink="http://www.w3.org/1999/xlink" ffdec:objectType="shape" height="60.75px" width="60.75px" xmlns="http://www.w3.org/2000/svg">
  <g transform="matrix(1.0, 0.0, 0.0, 1.0, 30.25, 30.4)">
    <path d="M20.75 -20.55 Q11.95 -29.35 0.1 -29.35 -12.35 -29.35 -21.05 -20.55 -29.2 -12.5 -29.2 -0.05 -29.25 11.8 -21.05 20.55 -12.35 29.25 0.1 29.3 11.95 29.25 20.75 20.55 29.4 11.8 29.45 -0.05 29.45 -12.5 20.75 -20.55 M21.5 -21.3 L21.45 -21.3 Q30.45 -13.0 30.5 -0.05 30.5 12.2 21.5 21.3 12.35 30.35 0.1 30.35 -12.75 30.35 -21.8 21.3 L-21.8 21.25 Q-30.25 12.2 -30.25 -0.05 -30.3 -13.0 -21.8 -21.3 -12.75 -30.45 0.1 -30.4 12.35 -30.45 21.5 -21.3" fill="#ffc56c" fill-opacity="0.011764706" fill-rule="evenodd" stroke="none"/>
  </g>
</svg>
