<?xml version="1.0" encoding="UTF-8" standalone="no"?>
<svg xmlns:ffdec="https://www.free-decompiler.com/flash" xmlns:xlink="http://www.w3.org/1999/xlink" ffdec:objectType="shape" height="17.0px" width="69.05px" xmlns="http://www.w3.org/2000/svg">
  <g transform="matrix(1.0, 0.0, 0.0, 1.0, -281.85, -8.75)">
    <path d="M281.85 12.75 L281.85 9.25 323.9 9.25 324.55 9.5 337.4 9.75 350.4 10.0 350.55 10.05 350.65 10.85 Q350.65 11.5 349.9 12.1 L349.75 12.2 350.15 13.9 Q350.2 15.45 349.65 17.75 L349.6 21.25 Q349.35 23.55 348.4 24.75 L344.4 24.9 339.9 25.25 323.9 25.25 311.05 24.8 306.65 24.5 281.85 24.6 281.85 21.75 293.3 21.75 291.75 20.2 289.15 17.3 Q285.8 17.35 285.4 17.75 L281.85 18.95 281.85 18.0 281.9 18.0 285.4 16.75 286.4 16.8 286.4 16.75 289.55 16.8 289.7 16.95 290.15 17.05 292.75 16.75 294.4 16.25 301.4 16.05 302.35 16.35 302.15 16.55 304.85 17.1 Q310.3 18.85 313.3 20.65 L314.1 21.1 314.35 21.35 314.65 21.55 314.65 21.65 315.0 22.15 315.65 22.15 317.9 21.85 323.9 21.5 329.75 21.9 334.9 22.5 335.85 22.5 343.0 21.85 343.2 20.65 343.55 18.3 Q343.55 17.8 342.2 17.0 341.15 16.4 339.85 16.15 339.3 15.05 339.35 14.75 L339.55 13.25 339.05 13.65 339.05 13.0 339.25 12.75 281.85 12.75 M281.85 16.15 L281.85 16.0 282.0 16.0 281.85 16.15 M281.85 14.7 L281.85 14.3 282.8 14.75 282.1 15.85 282.05 15.9 282.05 14.8 281.85 14.7 M344.2 17.5 L344.3 17.75 343.8 20.35 343.35 21.85 345.45 21.65 346.8 20.15 347.5 19.25 346.85 15.5 346.7 13.2 346.3 12.75 340.25 12.75 340.4 14.05 340.9 14.7 341.9 15.3 342.15 15.5 Q342.75 16.25 344.1 17.4 L344.2 17.5 M347.5 21.05 L347.15 21.4 347.0 21.6 347.25 21.6 347.5 21.05 M341.15 18.5 L341.55 18.8 341.3 19.5 340.4 19.75 339.15 19.25 Q339.35 18.4 339.55 18.3 L341.15 18.5 M312.05 21.05 L311.3 20.25 306.3 18.15 Q302.95 16.8 301.4 16.8 L297.55 16.95 294.4 17.25 291.65 17.35 290.1 17.3 291.15 18.5 291.7 19.3 293.3 20.3 Q295.65 21.05 297.15 21.75 L306.9 21.75 312.1 22.0 312.05 21.05 M298.4 18.3 L299.1 18.45 300.05 18.8 299.4 19.8 298.05 19.5 Q297.8 20.1 297.8 18.85 297.8 18.1 298.1 18.2 L298.4 18.3" fill="#a0a89d" fill-rule="evenodd" stroke="none"/>
    <path d="M281.85 21.75 L281.85 18.95 285.4 17.75 Q285.8 17.35 289.15 17.3 L291.75 20.2 293.3 21.75 281.85 21.75 M281.85 17.4 L281.85 16.15 282.0 16.0 282.05 16.0 282.05 15.9 282.1 15.85 282.8 14.75 281.85 14.3 281.85 12.75 339.25 12.75 339.05 13.0 339.05 13.65 338.4 14.25 Q337.4 15.3 337.4 15.6 337.4 16.85 337.65 16.3 L339.15 16.75 340.05 16.55 339.85 16.15 Q341.15 16.4 342.2 17.0 343.55 17.8 343.55 18.3 L343.2 20.65 343.0 21.85 335.85 22.5 334.9 22.5 329.75 21.9 323.9 21.5 317.9 21.85 315.65 22.15 315.0 22.15 314.65 21.65 314.65 21.55 314.35 21.35 314.1 21.1 313.3 20.65 Q310.3 18.85 304.85 17.1 L305.05 17.15 307.15 17.55 306.75 17.2 306.4 17.05 302.65 15.8 302.35 16.35 301.4 16.05 294.4 16.25 292.75 16.75 290.15 17.05 289.7 16.95 289.55 16.8 286.4 16.75 286.4 16.8 285.4 16.75 281.9 18.0 282.65 17.55 282.55 17.3 281.85 17.4 M342.15 15.5 L341.9 15.3 340.9 14.7 340.4 14.05 340.25 12.75 346.3 12.75 346.7 13.2 346.85 15.5 347.5 19.25 346.8 20.15 345.45 21.65 343.35 21.85 343.8 20.35 344.3 17.75 344.2 17.5 345.55 18.55 345.65 18.25 Q345.35 17.55 343.95 16.5 L342.4 15.25 342.3 15.3 342.15 15.5 M347.5 21.05 L347.25 21.6 347.0 21.6 347.15 21.4 347.5 21.05 M341.15 18.5 L339.55 18.3 Q339.35 18.4 339.15 19.25 L340.4 19.75 341.3 19.5 341.55 18.8 341.15 18.5 M298.4 18.3 L298.1 18.2 Q297.8 18.1 297.8 18.85 297.8 20.1 298.05 19.5 L299.4 19.8 300.05 18.8 299.1 18.45 298.4 18.3 M312.05 21.05 L312.1 22.0 306.9 21.75 297.15 21.75 Q295.65 21.05 293.3 20.3 L291.7 19.3 291.15 18.5 290.1 17.3 291.65 17.35 294.4 17.25 297.55 16.95 301.4 16.8 Q302.95 16.8 306.3 18.15 L311.3 20.25 312.05 21.05" fill="#8b9487" fill-rule="evenodd" stroke="none"/>
    <path d="M281.85 18.0 L281.85 17.4 282.55 17.3 282.65 17.55 281.9 18.0 281.85 18.0 M281.85 16.0 L281.85 14.7 282.05 14.8 282.05 15.9 282.05 16.0 282.0 16.0 281.85 16.0 M339.05 13.65 L339.55 13.25 339.35 14.75 Q339.3 15.05 339.85 16.15 L340.05 16.55 339.15 16.75 337.65 16.3 Q337.4 16.85 337.4 15.6 337.4 15.3 338.4 14.25 L339.05 13.65 M304.85 17.1 L302.15 16.55 302.35 16.35 302.65 15.8 306.4 17.05 306.75 17.2 307.15 17.55 305.05 17.15 304.85 17.1 M344.2 17.5 L344.1 17.4 Q342.75 16.25 342.15 15.5 L342.3 15.3 342.4 15.25 343.95 16.5 Q345.35 17.55 345.65 18.25 L345.55 18.55 344.2 17.5" fill="#6c7568" fill-rule="evenodd" stroke="none"/>
    <path d="M350.6 9.05 L350.9 9.75 350.9 24.75 350.6 25.45 349.9 25.75 281.85 25.75 281.85 23.75 347.85 23.75 348.3 23.75 348.45 23.7 349.0 23.6 348.95 14.75 348.85 14.75 348.85 13.35 349.0 12.35 348.95 11.3 Q348.85 10.7 348.45 10.4 L281.85 10.4 281.85 8.75 349.9 8.75 Q350.3 8.75 350.6 9.05" fill="#5e6556" fill-rule="evenodd" stroke="none"/>
  </g>
</svg>
