<?xml version="1.0" encoding="UTF-8" standalone="no"?>
<svg xmlns:ffdec="https://www.free-decompiler.com/flash" xmlns:xlink="http://www.w3.org/1999/xlink" ffdec:objectType="shape" height="14.45px" width="15.15px" xmlns="http://www.w3.org/2000/svg">
  <g transform="matrix(1.0, 0.0, 0.0, 1.0, 7.6, 15.2)">
    <path d="M0.4 -15.15 L0.45 -15.0 Q0.25 -14.9 0.05 -14.8 -0.1 -14.75 -0.25 -14.75 -1.2 -14.75 -2.2 -13.95 -3.15 -13.25 -3.15 -12.8 -3.15 -12.7 -3.05 -12.65 L-2.8 -12.45 Q-2.0 -12.45 -1.8 -12.55 -1.65 -12.55 -1.6 -12.45 -1.8 -12.2 -1.95 -12.1 -2.4 -11.9 -3.15 -11.9 -3.85 -11.9 -4.2 -12.25 -4.45 -12.5 -4.45 -12.65 -4.45 -13.7 -3.3 -14.45 -1.95 -15.3 0.2 -15.2 L0.4 -15.15 M7.55 -7.6 Q7.55 -7.35 7.3 -6.4 L7.1 -5.45 Q7.1 -5.1 6.6 -4.3 6.1 -3.4 5.8 -3.4 L5.6 -3.45 5.55 -3.5 Q5.5 -3.5 5.5 -3.65 5.5 -3.75 6.1 -5.1 6.7 -6.6 6.7 -7.65 6.7 -7.95 6.5 -8.35 L5.95 -9.25 5.75 -9.2 Q5.4 -8.85 5.05 -7.8 4.7 -6.8 4.15 -6.3 L3.75 -6.3 Q3.7 -6.45 3.7 -6.8 3.7 -7.1 3.8 -7.9 3.95 -8.7 3.95 -9.0 3.95 -9.4 3.85 -10.5 3.7 -11.6 3.7 -11.8 3.7 -12.15 3.75 -12.25 3.85 -12.45 4.3 -12.7 L5.25 -12.7 Q6.8 -11.7 7.3 -10.25 7.55 -9.45 7.55 -7.6 M-5.1 -8.05 Q-4.7 -7.55 -4.4 -7.0 -3.95 -6.25 -3.95 -5.75 -3.95 -5.7 -4.0 -5.55 -4.05 -5.4 -4.2 -5.3 -4.8 -5.35 -5.25 -5.9 -5.9 -6.55 -6.15 -6.7 L-6.2 -6.1 -6.25 -5.6 Q-6.25 -3.7 -4.9 -2.45 L-4.0 -1.7 Q-3.55 -1.35 -3.55 -1.1 -3.55 -0.8 -3.9 -0.75 -5.45 -0.75 -6.65 -3.1 -7.1 -3.9 -7.35 -4.9 -7.6 -5.7 -7.6 -6.15 -7.6 -7.65 -7.45 -8.75 -7.1 -10.7 -6.3 -10.45 -5.9 -10.05 -5.65 -9.25 -5.4 -8.4 -5.1 -8.05" fill="#ffffff" fill-opacity="0.5019608" fill-rule="evenodd" stroke="none"/>
  </g>
</svg>
