<?xml version="1.0" encoding="UTF-8" standalone="no"?>
<svg xmlns:ffdec="https://www.free-decompiler.com/flash" xmlns:xlink="http://www.w3.org/1999/xlink" ffdec:objectType="shape" height="31.4px" width="82.15px" xmlns="http://www.w3.org/2000/svg">
  <g transform="matrix(1.0, 0.0, 0.0, 1.0, 3.9, -3.05)">
    <path d="M68.95 7.65 L68.85 7.6 68.7 7.5 68.3 7.45 68.2 7.45 67.3 7.15 67.15 7.1 63.0 6.9 46.45 6.9 46.45 6.85 30.4 6.85 30.15 6.85 27.05 6.85 27.05 6.9 24.1 6.9 8.75 6.9 Q7.9 6.85 7.65 7.2 L7.65 7.35 7.25 7.3 6.35 7.4 5.95 7.5 5.7 7.6 Q4.6 7.8 4.3 8.3 L4.1 8.4 3.8 8.55 3.5 8.65 3.4 8.75 Q1.9 9.55 1.85 10.5 L1.5 10.75 1.2 11.15 1.45 11.3 Q1.0 11.75 1.0 12.4 L1.0 12.6 0.75 13.9 0.5 15.3 0.45 16.45 0.45 19.05 Q0.45 21.4 0.6 22.55 0.85 24.55 1.4 26.2 L1.7 26.4 3.9 27.4 7.2 28.15 7.45 28.35 8.05 28.45 68.55 28.45 69.65 27.95 Q71.4 27.1 72.55 26.25 L73.65 24.45 74.15 23.85 74.8 17.6 Q74.8 12.7 72.05 9.5 L70.8 8.4 68.95 7.65 M-1.0 28.3 Q-2.05 27.0 -2.4 25.85 -2.9 25.65 -3.0 25.05 L-3.0 23.9 -3.45 22.85 -3.4 22.6 -3.15 22.5 -3.45 21.85 Q-3.45 21.3 -3.0 21.2 L-3.35 21.1 -3.65 20.75 Q-3.05 19.6 -3.05 19.25 L-3.25 19.1 -3.45 18.95 -3.05 17.55 -3.25 17.3 -3.45 17.0 -3.25 16.65 -3.05 16.3 -3.2 14.75 -3.65 14.3 Q-3.65 13.5 -2.8 12.3 L-2.8 12.2 Q-3.6 12.1 -3.6 10.65 -3.6 10.4 -3.75 10.35 L-3.9 10.25 Q-3.7 10.05 -3.05 9.8 L-3.05 9.65 -3.2 9.15 -2.25 9.0 -3.35 9.0 -3.45 8.55 Q-3.45 8.15 -2.45 8.15 -1.5 6.3 0.15 5.35 2.7 3.9 7.95 3.45 L25.8 3.75 30.05 3.3 34.8 3.3 36.15 3.35 Q36.7 3.2 37.55 3.75 L41.25 3.75 51.3 3.15 51.3 3.05 55.8 3.05 Q56.15 3.25 55.95 3.5 L63.0 3.5 63.0 3.2 63.45 3.15 Q65.7 3.15 68.7 4.0 71.8 4.9 72.95 6.05 76.4 7.3 76.4 9.6 L76.25 10.15 Q77.85 12.35 77.85 14.4 77.85 14.95 77.35 14.95 L77.3 14.95 Q77.05 14.8 76.7 13.85 L77.0 16.25 77.05 17.05 77.3 19.7 Q78.25 19.15 78.25 21.15 77.15 27.3 76.25 28.4 L75.75 29.0 75.55 29.15 75.45 29.3 75.55 29.45 75.6 29.5 75.1 30.25 74.6 30.6 74.65 30.85 74.65 31.2 Q74.65 31.7 74.3 31.8 L74.05 31.45 74.0 31.35 73.9 31.0 73.35 31.55 71.95 32.8 71.4 33.15 Q69.3 34.45 68.0 34.45 L67.15 33.85 66.65 33.5 66.95 33.25 Q67.0 33.0 67.35 32.9 L56.4 33.9 53.2 33.9 52.6 33.8 52.25 33.65 47.9 33.2 46.45 33.2 46.25 33.2 44.3 33.15 36.55 33.15 36.55 33.7 36.15 33.75 35.6 33.8 34.5 33.9 32.05 33.9 30.4 33.85 30.4 33.75 30.25 33.75 30.15 33.75 30.15 33.7 21.1 33.4 18.5 33.2 16.65 33.3 15.4 33.1 15.4 33.3 Q15.35 33.6 14.85 33.6 L13.35 33.45 13.4 33.65 13.35 33.9 13.0 34.1 12.3 33.9 11.95 33.6 11.75 33.3 11.1 33.3 11.0 33.3 10.25 33.8 Q4.5 33.8 0.5 29.9 L-1.0 28.3 M52.5 3.6 Q52.3 3.6 52.05 3.75 L54.9 3.6 52.5 3.6 M44.1 32.4 L44.1 32.45 45.7 32.4 46.65 32.5 46.85 32.4 62.5 32.4 63.35 32.3 64.65 32.5 Q68.15 32.5 71.35 30.7 73.35 29.55 74.0 28.6 L74.15 28.55 Q74.75 27.2 74.75 26.55 L74.5 25.75 Q73.75 26.05 73.25 27.2 L73.1 27.6 72.1 28.45 Q70.95 29.55 69.65 29.7 L66.25 30.7 65.35 31.0 62.15 31.3 46.45 31.3 46.45 31.25 44.5 31.25 44.1 31.2 39.6 31.15 36.55 31.3 36.55 31.35 33.05 31.4 Q31.35 31.55 31.05 31.95 L33.05 32.4 39.3 32.4 39.4 32.35 44.1 32.4 M35.55 5.3 L34.7 5.25 30.3 5.25 29.55 5.3 30.15 5.3 30.15 5.35 37.55 5.35 35.55 5.3 M15.75 5.25 L15.0 5.3 15.85 5.3 15.75 5.25 M13.55 30.5 L13.65 30.45 13.5 30.45 13.55 30.5 M-1.1 21.15 L-1.05 21.2 -1.05 21.1 -1.1 21.15" fill="#30313a" fill-rule="evenodd" stroke="none"/>
    <path d="M68.95 7.65 L68.95 7.7 69.55 7.95 Q71.75 8.95 72.15 9.8 72.35 10.15 71.7 10.15 L70.0 9.45 Q68.5 8.75 67.45 8.65 L67.35 8.5 30.15 8.5 30.15 8.45 30.0 8.45 Q29.7 7.6 27.05 7.75 L27.05 7.65 25.05 7.65 Q23.0 7.75 22.2 8.4 L22.1 8.4 16.95 8.4 16.4 7.9 11.15 7.65 Q6.6 7.75 5.55 8.7 L3.6 9.3 Q2.1 10.0 2.1 10.65 L2.15 10.8 1.9 10.9 1.9 10.8 1.85 10.95 Q1.7 11.0 1.55 11.15 L1.45 11.3 1.2 11.15 1.5 10.75 1.85 10.5 Q1.9 9.55 3.4 8.75 L3.8 8.55 4.1 8.4 4.3 8.3 Q4.6 7.8 5.7 7.6 L5.95 7.5 6.35 7.4 7.25 7.3 7.65 7.35 7.65 7.2 Q7.9 6.85 8.75 6.9 L24.1 6.9 27.05 6.9 27.05 6.85 30.15 6.85 30.4 6.85 46.45 6.85 46.45 6.9 63.0 6.9 67.15 7.1 67.3 7.15 68.2 7.45 68.3 7.45 68.7 7.5 68.85 7.6 68.95 7.65" fill="#636476" fill-rule="evenodd" stroke="none"/>
    <path d="M30.0 8.45 L30.15 8.45 30.15 8.5 67.35 8.5 67.45 8.65 Q68.5 8.75 70.0 9.45 L71.7 10.15 Q72.35 10.15 72.15 9.8 71.75 8.95 69.55 7.95 L68.95 7.7 68.95 7.65 70.8 8.4 72.05 9.5 Q74.8 12.7 74.8 17.6 L74.15 23.85 73.65 24.45 72.55 26.25 Q71.4 27.1 69.65 27.95 L68.55 28.45 8.05 28.45 7.45 28.35 7.2 28.15 3.9 27.4 1.7 26.4 1.4 26.2 Q0.85 24.55 0.6 22.55 0.45 21.4 0.45 19.05 L0.45 16.45 0.5 15.3 0.75 13.9 1.0 12.6 1.05 12.95 1.25 13.15 1.5 13.15 2.05 12.2 3.2 11.4 13.15 9.45 16.7 9.45 17.05 9.35 17.2 8.85 16.95 8.4 22.1 8.4 Q21.7 8.55 21.65 8.7 L21.6 8.7 21.65 8.75 22.15 9.2 22.5 9.4 27.05 9.4 27.05 9.35 28.45 9.45 Q30.05 9.45 30.05 8.7 L30.0 8.45 M3.8 8.55 L3.4 8.75 3.5 8.65 3.8 8.55 M1.85 10.95 L1.9 10.8 1.9 10.9 1.85 10.95 M77.3 14.95 L77.3 15.25 Q77.3 16.0 77.0 16.25 L76.7 13.85 Q77.05 14.8 77.3 14.95 M75.75 29.0 L75.55 29.45 75.45 29.3 75.55 29.15 75.75 29.0 M75.1 30.25 L74.65 30.85 74.6 30.6 75.1 30.25 M74.05 31.45 L71.95 32.8 73.35 31.55 73.9 31.0 74.0 31.35 74.05 31.45 M67.15 33.85 L65.8 33.9 56.4 33.9 67.35 32.9 Q67.0 33.0 66.95 33.25 L66.65 33.5 67.15 33.85 M53.2 33.9 L34.5 33.9 35.6 33.8 36.15 33.75 36.55 33.7 36.55 33.15 44.3 33.15 46.25 33.2 46.45 33.2 47.9 33.2 52.25 33.65 52.6 33.8 53.2 33.9 M32.05 33.9 L13.35 33.9 13.4 33.65 13.35 33.45 14.85 33.6 Q15.35 33.6 15.4 33.3 L15.4 33.1 16.65 33.3 18.5 33.2 21.1 33.4 30.15 33.7 30.15 33.75 30.25 33.75 30.4 33.75 30.4 33.85 32.05 33.9 M12.3 33.9 L9.2 33.9 Q0.8 33.9 -1.0 28.3 L0.5 29.9 Q4.5 33.8 10.25 33.8 L11.0 33.3 11.1 33.3 11.75 33.3 11.95 33.6 12.3 33.9 M44.1 32.4 L39.4 32.35 39.3 32.4 33.05 32.4 31.05 31.95 Q31.35 31.55 33.05 31.4 L36.55 31.35 36.55 31.3 39.6 31.15 44.1 31.2 44.5 31.25 46.45 31.25 46.45 31.3 62.15 31.3 65.35 31.0 66.25 30.7 69.65 29.7 Q70.95 29.55 72.1 28.45 L73.1 27.6 73.25 27.2 Q73.75 26.05 74.5 25.75 L74.75 26.55 Q74.75 27.2 74.15 28.55 L74.0 28.6 Q73.35 29.55 71.35 30.7 68.15 32.5 64.65 32.5 L63.35 32.3 62.5 32.4 46.85 32.4 46.65 32.5 45.7 32.4 44.1 32.45 44.1 32.4 M15.75 5.25 L15.85 5.3 15.0 5.3 15.75 5.25 M35.55 5.3 L37.55 5.35 30.15 5.35 30.15 5.3 29.55 5.3 30.3 5.25 34.7 5.25 35.55 5.3 M-1.1 21.15 L-1.05 21.1 -1.05 21.2 -1.1 21.15 M13.55 30.5 L13.5 30.45 13.65 30.45 13.55 30.5" fill="#40414d" fill-rule="evenodd" stroke="none"/>
    <path d="M1.45 11.3 L1.55 11.15 Q1.7 11.0 1.85 10.95 L1.9 10.9 2.15 10.8 2.1 10.65 Q2.1 10.0 3.6 9.3 L5.55 8.7 Q6.6 7.75 11.15 7.65 L16.4 7.9 16.95 8.4 17.2 8.85 17.05 9.35 16.7 9.45 13.15 9.45 3.2 11.4 2.05 12.2 1.5 13.15 1.25 13.15 1.05 12.95 1.0 12.6 1.0 12.4 Q1.0 11.75 1.45 11.3 M22.1 8.4 L22.2 8.4 Q23.0 7.75 25.05 7.65 L27.05 7.65 27.05 7.75 Q29.7 7.6 30.0 8.45 L30.05 8.7 Q30.05 9.45 28.45 9.45 L27.05 9.35 27.05 9.4 22.5 9.4 22.15 9.2 21.65 8.75 21.6 8.7 21.65 8.7 Q21.7 8.55 22.1 8.4" fill="#9697a7" fill-rule="evenodd" stroke="none"/>
  </g>
</svg>
