<?xml version="1.0" encoding="UTF-8" standalone="no"?>
<svg xmlns:ffdec="https://www.free-decompiler.com/flash" xmlns:xlink="http://www.w3.org/1999/xlink" ffdec:objectType="shape" height="353.6px" width="185.15px" xmlns="http://www.w3.org/2000/svg">
  <g transform="matrix(1.0, 0.0, 0.0, 1.0, -873.75, -261.4)">
    <path d="M1054.7 284.05 Q1052.95 288.05 1052.95 288.35 1052.95 289.85 1055.95 293.85 1058.9 297.9 1058.9 300.45 1058.9 306.05 1053.9 310.5 1051.3 312.8 1050.45 314.05 1048.9 316.35 1048.9 319.45 1048.9 323.7 1050.8 327.65 1052.65 331.6 1052.65 334.05 1052.65 352.75 1050.15 391.1 1047.65 429.45 1047.65 447.55 L1047.5 476.55 Q1047.6 506.0 1048.55 521.2 L1051.35 557.7 Q1053.9 590.2 1053.9 594.85 1053.9 603.45 1052.65 607.0 1049.9 615.0 1040.75 615.0 1039.5 615.0 1028.8 608.75 L1001.45 592.6 Q954.55 565.3 914.8 547.4 896.1 539.0 887.15 530.1 877.5 520.5 877.5 508.75 L877.5 469.9 Q877.5 435.85 878.65 417.85 877.9 414.65 877.8 410.6 877.65 405.35 878.75 395.65 L878.75 379.2 875.7 360.85 Q873.75 349.75 873.75 339.75 873.75 328.85 874.3 325.7 875.4 319.55 879.9 315.7 887.15 309.55 912.6 304.6 931.45 294.45 956.4 292.2 L963.45 291.35 Q969.35 289.35 971.9 288.7 976.75 287.45 980.45 287.35 987.6 285.2 995.25 282.15 L1027.05 267.65 Q1042.45 260.6 1048.5 261.5 1056.4 262.6 1056.4 276.25 1056.4 280.0 1054.7 284.05 M950.75 491.9 L951.4 491.9 Q951.4 487.9 951.05 487.9 951.05 490.9 950.75 491.9" fill="#dddac8" fill-rule="evenodd" stroke="none"/>
  </g>
</svg>
