<?xml version="1.0" encoding="UTF-8" standalone="no"?>
<svg xmlns:ffdec="https://www.free-decompiler.com/flash" xmlns:xlink="http://www.w3.org/1999/xlink" ffdec:objectType="shape" height="1424.3px" width="2309.75px" xmlns="http://www.w3.org/2000/svg">
  <g transform="matrix(1.0, 0.0, 0.0, 1.0, 186.45, 953.4)">
    <path d="M1329.05 -797.8 Q1275.05 -795.25 1231.55 -783.4 1201.2 -775.1 1167.0 -759.05 L1141.1 -746.65 Q1126.75 -739.9 1116.4 -736.1 1088.9 -725.9 1060.9 -725.9 1039.85 -725.9 1034.2 -733.7 L1031.4 -739.1 Q1030.0 -741.55 1027.15 -741.55 L1003.4 -738.7 979.65 -735.9 Q956.75 -735.9 942.7 -739.4 L940.9 -735.9 Q953.4 -723.4 953.4 -716.25 953.4 -712.2 952.85 -710.45 951.3 -705.55 945.7 -702.05 937.65 -697.05 922.15 -695.1 1009.3 -701.55 1075.7 -709.0 1165.05 -719.0 1240.8 -734.05 1264.4 -738.7 1304.2 -747.45 L1369.15 -761.4 Q1451.6 -778.35 1546.85 -790.9 L1657.0 -790.9 Q1651.4 -794.15 1649.85 -801.6 1648.9 -806.1 1649.65 -811.5 1650.25 -815.65 1651.25 -817.8 L1515.0 -817.15 Q1507.75 -814.05 1503.0 -809.85 1498.05 -805.45 1495.55 -804.3 1484.95 -799.4 1434.65 -798.4 L1329.05 -797.8 M1843.3 -692.3 L1805.4 -707.4 Q1759.45 -725.75 1733.55 -735.0 1694.8 -748.8 1673.1 -752.8 L1550.0 -752.8 Q1450.0 -739.9 1375.95 -724.75 1355.75 -720.65 1318.85 -712.4 1283.8 -704.55 1263.5 -700.5 1195.7 -686.9 1103.55 -676.25 985.75 -662.65 787.15 -648.4 L676.55 -647.8 667.15 -645.9 219.65 -645.9 Q201.8 -648.3 160.2 -650.55 L120.0 -652.8 52.5 -653.4 Q15.4 -654.0 -7.45 -657.0 L54.75 -657.0 54.75 -689.4 56.6 -691.45 117.5 -690.9 140.25 -688.3 Q171.05 -685.4 215.3 -684.05 L667.8 -684.05 677.15 -685.9 738.0 -686.25 717.35 -689.65 665.9 -699.1 Q643.0 -703.4 638.4 -703.4 L553.4 -699.9 494.65 -695.9 369.65 -695.9 Q367.75 -696.45 362.95 -698.55 356.9 -701.2 355.3 -702.8 320.45 -702.1 305.45 -702.75 291.25 -703.4 287.9 -705.55 285.6 -707.05 287.25 -711.35 289.4 -716.9 288.4 -720.3 287.7 -720.3 283.4 -718.55 278.55 -716.6 274.65 -715.9 L124.65 -715.9 116.25 -717.8 59.85 -718.15 Q58.0 -721.9 54.75 -724.75 L54.75 -926.05 200.3 -926.55 Q307.45 -931.65 383.9 -937.0 L557.15 -950.9 630.3 -951.55 635.9 -952.45 Q639.65 -953.05 639.65 -953.4 L1029.65 -953.4 1039.65 -951.55 1157.15 -950.9 1167.15 -949.05 1229.65 -948.4 Q1237.5 -947.0 1247.8 -944.05 L1357.15 -943.4 Q1371.2 -941.75 1486.05 -936.45 1590.5 -931.65 1595.0 -929.05 L1846.85 -928.4 1858.1 -926.55 1951.85 -925.9 Q1966.6 -922.05 1995.35 -922.0 L2019.8 -922.2 Q2034.5 -922.35 2043.9 -921.95 2070.65 -920.85 2084.65 -914.35 2102.3 -906.15 2105.0 -887.8 2106.55 -877.7 2106.25 -861.4 2105.6 -842.75 2105.6 -833.4 L2105.6 -724.65 2105.3 -658.1 Q2104.65 -589.4 2103.1 -554.05 L2103.1 -392.8 Q2103.25 -391.7 2102.15 -389.1 2100.9 -386.1 2098.75 -383.4 2092.85 -375.9 2084.35 -375.9 2074.45 -375.9 2069.5 -382.35 2067.75 -384.6 2065.6 -390.9 L2065.6 -559.65 2068.1 -570.9 2068.1 -783.4 2066.85 -783.4 Q2059.25 -783.4 2052.45 -789.65 L2048.0 -793.95 Q2045.85 -795.9 2044.35 -795.9 2040.75 -795.9 2038.4 -794.9 L2034.35 -793.4 1869.35 -793.4 1852.5 -795.3 1687.5 -795.3 1679.3 -791.0 1677.6 -790.2 Q1691.05 -787.1 1726.8 -775.75 1770.6 -761.85 1813.5 -746.25 1930.6 -703.8 1930.6 -689.65 1930.6 -683.2 1926.95 -678.4 L1925.45 -676.7 Q1919.65 -670.9 1908.1 -670.9 1899.75 -670.9 1869.8 -682.0 1862.1 -684.85 1843.3 -692.3 M907.0 -694.0 Q894.35 -693.65 878.4 -694.65 878.0 -694.05 877.5 -692.0 L907.0 -694.0 M717.4 -28.25 Q729.75 -11.15 739.15 3.15 764.65 41.95 767.95 58.9 L792.15 60.95 Q827.65 65.2 853.15 74.2 880.9 83.95 880.9 94.35 880.9 99.6 877.15 105.45 871.85 113.75 862.15 113.75 852.7 113.75 827.55 107.1 801.65 100.25 795.3 100.0 732.35 96.9 715.6 92.0 707.6 89.65 705.1 85.9 703.4 83.35 703.4 77.5 703.4 65.45 726.45 61.05 L718.5 47.6 Q705.75 25.5 700.9 18.1 691.05 3.1 684.05 -1.55 641.1 -30.1 622.7 -47.75 598.4 -71.1 598.4 -90.9 598.4 -140.85 648.4 -101.3 664.2 -88.85 684.4 -67.7 L704.05 -46.55 717.4 -28.25" fill="#111111" fill-rule="evenodd" stroke="none"/>
    <path d="M1925.45 -676.7 L1925.6 -675.9 Q1927.85 -669.05 1932.4 -657.9 L1939.8 -639.55 Q1948.1 -617.6 1948.1 -602.8 1948.1 -585.2 1941.85 -566.95 1938.55 -557.3 1937.55 -553.15 1935.6 -545.05 1935.6 -536.25 1935.6 -531.5 1939.9 -513.3 L1949.35 -474.95 Q1963.1 -419.25 1963.1 -403.1 L1963.55 -394.0 Q1963.6 -387.6 1961.85 -383.35 1956.7 -370.9 1934.35 -370.9 1870.3 -370.9 1803.9 -384.15 1779.55 -389.0 1759.45 -394.8 1742.55 -399.65 1736.25 -402.8 1718.6 -411.5 1698.5 -414.95 L1683.0 -417.0 1669.95 -418.45 Q1656.95 -420.3 1651.9 -425.8 1645.6 -432.6 1645.6 -449.35 1645.6 -453.95 1653.45 -471.65 1662.35 -491.65 1673.9 -510.35 1688.2 -533.6 1702.05 -547.1 1718.8 -563.4 1733.1 -563.4 1739.85 -563.4 1744.9 -559.0 1747.8 -556.5 1752.5 -550.9 1759.85 -565.75 1770.15 -588.75 1779.3 -607.0 1791.85 -620.9 1806.0 -636.35 1820.05 -660.15 1826.9 -671.75 1830.25 -676.65 1836.25 -685.4 1843.1 -692.15 L1843.3 -692.3 Q1862.1 -684.85 1869.8 -682.0 1899.75 -670.9 1908.1 -670.9 1919.65 -670.9 1925.45 -676.7 M1284.15 22.55 Q1297.65 22.2 1303.35 22.45 1313.6 23.0 1324.05 25.6 L1444.65 26.25 1459.65 28.45 1473.4 30.6 1564.35 31.25 Q1647.3 34.2 1690.75 39.3 L1736.0 44.5 Q1769.8 48.05 1818.1 51.55 1842.7 53.35 1860.4 56.05 1880.9 59.15 1904.35 61.25 L1920.75 63.6 1934.35 65.3 Q1972.6 66.1 2008.75 69.15 2038.9 71.7 2040.0 72.8 2051.3 81.7 2055.5 94.85 2058.85 105.4 2058.25 121.3 L2055.75 150.2 Q2054.2 168.05 2055.6 179.65 2067.45 274.2 2069.0 288.65 2075.6 350.55 2075.6 395.3 2075.6 410.8 2066.9 417.75 2059.6 423.55 2040.6 426.8 2014.2 430.35 1996.5 433.35 1964.0 438.85 1934.35 448.4 L1601.85 448.4 1581.25 444.05 1514.65 443.4 1495.9 441.55 1424.65 440.9 Q1372.35 435.7 1355.1 435.2 1337.95 434.75 1280.9 429.05 L1152.15 428.4 Q1140.4 427.15 1135.25 418.2 1133.25 414.75 1132.95 411.15 1132.7 407.75 1134.05 405.9 1094.8 391.55 1084.4 305.7 1080.85 276.7 1080.55 237.85 L1080.9 186.55 Q1080.3 168.75 1080.05 152.8 1079.6 122.05 1081.3 98.55 1086.6 25.25 1112.15 18.75 L1227.15 18.75 Q1255.25 23.3 1284.15 22.55 M2123.3 -199.85 L2119.05 -200.0 Q2111.0 -200.0 2104.8 -196.65 2101.0 -199.15 2096.55 -197.45 2095.15 -196.95 2093.9 -196.05 2091.8 -197.55 2089.5 -198.15 2084.65 -199.45 2081.35 -196.15 2077.8 -192.6 2077.8 -185.0 L2081.55 -151.9 Q2085.3 -117.15 2085.3 -82.8 2085.3 -71.4 2084.05 -66.85 L2084.05 -9.65 2085.1 -6.9 Q2086.05 -4.15 2087.05 -2.35 2088.45 0.0 2090.4 1.45 L2091.25 3.25 2091.6 3.85 Q2071.2 5.45 2033.1 3.75 2033.95 6.35 2033.3 10.05 2032.55 14.0 2030.25 17.45 2024.5 26.25 2013.1 26.25 1995.15 17.2 1977.75 2.3 1943.1 -27.35 1943.1 -56.55 1947.25 -81.55 1945.6 -101.55 1944.75 -111.05 1939.45 -117.1 1936.1 -120.95 1928.4 -125.2 1920.4 -129.7 1917.85 -132.3 1913.1 -137.1 1913.1 -144.65 1913.1 -150.65 1916.85 -156.05 1922.0 -163.4 1931.85 -163.4 1938.3 -163.4 1949.65 -156.85 1960.95 -150.3 1964.35 -150.3 1973.55 -150.3 1980.55 -158.2 1984.35 -162.55 1991.45 -175.6 1998.15 -187.95 2003.2 -193.0 2011.05 -200.9 2021.85 -200.9 2032.9 -200.9 2043.2 -193.1 2048.8 -188.85 2050.85 -187.75 2055.35 -185.3 2060.3 -185.3 L2066.25 -191.2 Q2073.45 -198.1 2080.4 -202.6 2103.25 -217.35 2120.0 -204.65 2121.85 -203.25 2123.3 -199.85 M1798.1 -210.9 Q1813.85 -210.9 1846.25 -180.15 L1855.4 -171.15 Q1867.25 -177.35 1875.5 -177.7 1893.1 -178.5 1893.1 -152.8 1893.1 -150.6 1881.85 -140.6 1872.25 -132.1 1859.9 -122.7 1861.55 -119.05 1864.3 -115.5 1868.1 -110.6 1868.1 -105.3 1868.1 -96.85 1861.25 -90.35 1853.9 -83.4 1843.1 -83.4 1839.45 -83.4 1831.8 -86.85 L1823.75 -90.3 Q1822.75 -90.3 1805.55 -82.0 1788.35 -73.75 1783.1 -73.75 1773.8 -73.75 1760.05 -78.75 1746.5 -83.65 1733.75 -91.55 1720.15 -99.9 1712.1 -108.8 1703.1 -118.7 1703.1 -127.15 1703.1 -134.55 1706.85 -138.7 1713.05 -145.5 1729.35 -145.3 1730.4 -147.0 1729.45 -151.3 1728.1 -157.15 1728.1 -159.65 1728.1 -163.85 1729.75 -167.15 1730.8 -169.3 1733.75 -172.8 1727.65 -180.2 1721.15 -186.2 L1712.4 -193.9 Q1708.65 -197.25 1707.25 -199.95 1705.6 -203.2 1705.6 -208.4 1705.6 -214.55 1709.25 -220.1 1713.15 -226.0 1719.2 -227.8 1734.95 -232.45 1752.5 -207.8 1757.9 -211.6 1759.8 -212.65 1765.6 -215.9 1770.6 -215.9 1773.75 -215.9 1784.35 -213.4 1795.0 -210.9 1798.1 -210.9" fill="#151214" fill-rule="evenodd" stroke="none"/>
    <path d="M1042.25 34.4 Q1042.35 44.55 1040.85 62.8 1040.85 98.4 1037.2 115.3 L1037.2 347.8 Q1033.1 353.4 1029.25 360.75 L1109.05 360.3 Q1139.3 351.8 1152.3 364.5 1156.95 369.0 1158.1 375.05 1159.1 380.35 1157.15 382.8 L1158.4 389.65 1158.4 390.3 Q1179.35 387.9 1188.2 397.15 1193.4 402.55 1193.4 409.65 1193.4 419.85 1181.0 426.3 1168.6 432.75 1141.45 436.7 1096.55 443.2 967.15 445.9 L859.65 445.9 850.9 444.05 764.65 443.4 722.4 436.85 706.15 437.15 Q605.9 438.3 519.45 445.45 L492.95 448.0 Q423.45 454.6 382.1 457.5 L224.75 457.8 215.1 458.75 27.15 459.05 Q25.25 460.45 22.8 461.65 4.15 470.9 -50.0 470.9 -148.4 470.9 -175.35 450.4 -184.8 443.25 -186.2 432.85 -186.65 429.4 -186.35 424.55 L-185.9 417.5 Q-185.9 411.65 -182.15 363.7 L-176.55 292.8 Q-175.3 249.5 -172.0 223.0 -165.85 173.4 -149.65 173.4 -140.5 173.4 -129.1 186.2 -119.7 196.75 -116.55 205.3 -117.25 194.85 -115.1 185.9 -110.85 168.4 -94.65 168.4 -86.8 168.4 -78.3 171.5 -70.45 174.35 -64.05 179.05 -57.25 169.95 -51.45 159.2 -43.75 144.95 -43.75 137.5 L-44.95 129.85 Q-45.95 122.4 -44.8 116.7 -41.2 98.75 -17.5 98.75 -2.55 98.75 17.35 126.35 24.45 136.15 30.45 147.1 35.6 156.55 36.55 160.3 37.5 145.25 53.85 134.55 70.3 123.75 92.5 123.75 117.1 123.75 117.95 150.3 118.25 159.1 115.9 172.0 L112.5 189.05 112.5 189.65 Q115.75 183.65 125.5 161.15 136.45 135.8 143.0 122.45 166.95 73.75 183.4 73.75 199.25 73.75 202.9 88.25 204.75 95.55 203.4 103.4 203.4 106.65 201.35 124.85 199.0 146.15 198.4 154.05 L198.4 154.65 Q200.35 149.8 204.65 133.45 209.75 113.85 212.6 104.8 224.1 68.75 237.15 68.75 247.6 68.75 252.2 72.6 255.75 75.55 256.85 82.05 L258.3 93.9 Q259.7 100.95 264.05 105.0 264.55 102.95 264.5 90.45 264.45 76.6 265.65 68.15 269.75 38.75 290.9 38.75 301.8 38.75 319.2 55.4 327.95 63.8 335.3 72.8 334.9 68.6 334.75 64.05 334.45 55.15 336.25 48.25 341.9 26.25 367.15 26.25 L390.3 27.5 409.65 28.75 Q418.5 28.75 430.5 40.2 437.95 47.3 447.8 60.3 452.95 55.6 463.75 41.0 474.4 28.75 484.65 28.75 502.1 28.75 508.85 52.75 510.55 58.8 511.4 65.0 L518.35 64.5 524.3 64.4 531.2 54.35 Q548.0 31.25 559.65 31.25 567.35 31.25 578.4 36.25 589.5 41.25 597.15 41.25 602.3 41.25 607.85 45.85 615.1 51.9 619.65 53.75 629.7 36.15 639.95 26.25 655.5 11.25 677.15 6.25 692.9 6.6 710.65 28.1 715.4 33.85 724.75 46.9 L733.15 58.3 Q767.1 46.4 802.4 38.35 849.95 27.55 890.4 25.8 901.95 25.3 912.15 25.6 L924.3 20.9 Q1013.85 -18.2 1034.95 7.2 1042.2 16.05 1042.25 34.4 M375.3 64.05 Q373.4 75.0 373.4 100.0 373.4 103.15 375.9 147.35 L376.0 148.65 Q384.75 151.85 388.25 155.3 L390.65 156.75 Q386.4 146.8 384.55 127.45 382.95 103.2 381.8 91.95 379.9 72.35 375.3 64.05 M424.15 163.65 Q420.55 167.85 416.25 169.65 424.35 173.2 433.7 176.95 L433.6 176.05 Q432.1 161.7 429.05 155.9 427.35 160.0 424.15 163.65 M304.65 97.5 Q303.6 102.75 299.7 134.25 L297.9 148.5 Q300.4 146.5 303.8 145.0 308.55 142.9 314.65 141.8 L314.45 140.3 Q310.55 111.55 305.9 98.75 L304.65 97.5 M291.95 184.65 L288.7 198.9 Q294.0 194.1 294.0 189.65 294.0 188.35 292.8 180.55 L291.95 184.65 M156.55 228.9 Q156.3 219.7 158.5 202.75 160.6 186.55 160.3 182.15 153.75 194.4 141.7 225.25 L132.25 249.0 158.7 243.1 Q156.75 237.05 156.55 228.9" fill="#111111" fill-rule="evenodd" stroke="none"/>
  </g>
</svg>
