<?xml version="1.0" encoding="UTF-8" standalone="no"?>
<svg xmlns:ffdec="https://www.free-decompiler.com/flash" xmlns:xlink="http://www.w3.org/1999/xlink" ffdec:objectType="shape" height="193.25px" width="108.5px" xmlns="http://www.w3.org/2000/svg">
  <g transform="matrix(1.0, 0.0, 0.0, 1.0, -445.4, -365.8)">
    <path d="M478.55 370.55 L478.8 376.5 478.5 382.8 478.1 392.4 477.6 392.4 Q477.45 391.5 477.45 389.3 L478.1 370.55 478.55 370.55 M452.8 365.8 L453.3 365.85 Q454.4 371.95 456.5 379.85 457.2 382.55 457.2 389.95 L457.2 392.1 456.6 392.1 Q456.45 388.45 454.55 377.5 L452.7 366.35 452.8 365.8 M449.6 395.7 Q453.2 405.05 453.2 406.2 L453.15 407.5 452.75 408.05 Q451.1 405.5 449.0 399.2 446.65 392.2 445.4 389.85 445.85 386.1 449.6 395.7 M512.0 372.75 L509.85 376.2 509.1 376.2 Q508.95 376.6 508.95 375.85 508.95 374.95 510.35 372.35 512.0 369.3 513.6 368.7 L513.7 368.65 513.8 369.15 Q513.8 369.8 512.0 372.75 M548.55 525.35 Q545.5 523.05 544.55 522.6 L544.65 521.9 Q545.35 522.1 549.05 524.15 L553.8 526.7 553.8 527.25 Q554.1 527.4 553.35 527.4 551.55 527.4 548.55 525.35 M491.4 527.4 L491.6 532.25 Q491.6 535.65 491.25 537.2 L490.65 537.25 Q490.5 537.2 490.5 536.75 L490.95 527.4 491.4 527.4 M493.4 534.6 L493.85 534.6 494.25 541.2 494.4 548.7 494.25 559.05 493.8 559.05 493.65 558.75 493.65 539.1 Q493.35 538.35 493.35 536.6 L493.4 534.6 M507.95 537.75 L509.1 545.0 508.85 545.25 508.2 545.25 507.45 540.15 507.45 537.8 507.95 537.75" fill="#2f2c2c" fill-rule="evenodd" stroke="none"/>
  </g>
</svg>
