<?xml version="1.0" encoding="UTF-8" standalone="no"?>
<svg xmlns:ffdec="https://www.free-decompiler.com/flash" xmlns:xlink="http://www.w3.org/1999/xlink" ffdec:objectType="shape" height="362.95px" width="1582.65px" xmlns="http://www.w3.org/2000/svg">
  <g transform="matrix(1.0, 0.0, 0.0, 1.0, -586.65, -617.6)">
    <path d="M1556.85 684.95 Q1556.85 681.9 1549.0 681.9 1541.15 681.9 1541.15 684.95 L1541.05 685.3 Q1541.05 685.9 1541.55 686.4 1543.15 688.05 1548.95 688.05 1554.6 688.05 1556.2 686.85 1556.85 686.35 1556.85 684.95 M1722.45 646.85 L1722.5 646.85 Q1729.25 645.85 1735.65 642.6 L1738.05 641.45 1738.5 641.6 1742.25 641.85 1745.25 641.85 1745.4 641.8 1754.15 643.25 Q1766.3 645.5 1772.0 648.85 1773.95 650.0 1774.85 652.0 1776.0 654.65 1776.45 655.15 1779.5 658.6 1795.25 659.1 L1801.5 659.25 Q1806.85 659.85 1809.5 662.45 L1813.15 666.5 1818.7 670.25 Q1822.55 672.6 1824.45 673.05 L1821.25 675.6 1814.55 683.1 1808.5 689.85 1808.2 689.7 1808.0 689.85 Q1786.1 695.6 1774.25 703.35 1771.5 705.15 1768.9 707.4 L1768.9 707.55 Q1768.9 709.45 1763.45 714.8 L1763.1 714.4 1762.25 714.4 1762.1 715.25 Q1760.9 715.25 1760.2 716.95 1759.6 718.4 1759.6 720.15 1759.6 721.2 1760.35 722.2 L1760.5 722.9 1761.05 723.0 1761.85 723.65 Q1764.9 725.85 1770.9 726.15 L1771.8 726.75 Q1804.4 731.45 1817.9 735.65 1832.45 740.15 1836.05 747.25 1839.0 753.0 1841.6 760.7 L1845.8 773.15 Q1851.5 787.9 1854.0 799.0 L1854.85 802.85 1854.6 802.65 1854.6 806.85 Q1855.4 808.15 1859.1 816.7 1861.75 822.65 1865.5 826.2 L1868.75 828.8 1867.55 829.2 1876.45 834.6 Q1879.05 836.15 1879.05 839.0 1879.05 841.8 1877.4 842.75 1876.0 843.6 1872.3 843.6 L1867.1 843.75 Q1869.65 846.2 1877.45 851.45 1884.0 856.4 1884.0 860.1 1884.0 862.75 1881.95 864.85 L1878.05 869.0 Q1876.9 870.8 1867.3 872.6 L1856.75 874.05 Q1851.5 874.05 1844.0 871.25 1836.5 868.4 1834.5 868.4 1833.8 868.4 1832.4 869.8 1830.9 871.25 1829.3 871.5 L1811.85 871.5 1809.25 871.4 Q1802.4 868.85 1791.75 865.75 1778.95 862.05 1757.4 856.8 L1736.05 856.8 Q1734.3 855.65 1732.9 854.1 1729.1 850.0 1729.1 847.0 1729.1 840.6 1734.0 838.9 1738.2 837.45 1744.85 839.6 1750.9 841.6 1755.7 845.3 1760.6 849.15 1760.6 852.1 1760.6 854.6 1759.2 856.7 1768.4 855.1 1776.6 853.1 L1769.95 846.25 Q1768.1 844.3 1768.1 840.75 1768.1 835.95 1772.55 833.65 1779.4 830.1 1798.1 830.35 1797.65 824.6 1798.45 821.2 1799.85 814.95 1807.6 812.1 L1806.65 807.6 Q1806.1 805.0 1806.1 803.5 1806.1 801.8 1807.25 798.6 L1809.1 793.35 Q1803.2 791.8 1800.55 788.8 1798.65 786.7 1797.75 782.7 L1796.15 775.95 Q1794.65 772.0 1791.1 769.35 1782.15 762.65 1769.25 757.05 1761.95 753.85 1746.35 748.35 1722.25 743.6 1699.45 737.45 1683.55 733.15 1673.25 729.25 L1668.85 729.6 1520.85 729.6 Q1497.3 724.2 1489.75 719.15 1483.1 714.7 1483.1 706.0 1483.1 700.25 1483.45 698.2 1483.95 695.05 1485.75 692.95 1488.85 689.4 1504.35 683.0 1522.45 675.5 1537.8 672.3 L1569.0 672.5 1569.85 672.75 1591.85 672.75 1625.6 667.55 1670.75 661.0 Q1682.9 659.3 1698.0 655.8 1713.95 652.15 1717.05 649.6 L1720.15 648.1 1722.45 646.85 M1862.85 816.4 Q1865.05 818.4 1868.75 820.05 1872.15 821.55 1872.15 824.15 1872.15 825.3 1871.55 826.4 1868.05 824.1 1865.85 821.4 1864.35 819.55 1862.6 816.1 L1862.85 816.4 M1787.05 872.1 L1782.65 872.55 1774.95 873.45 1771.9 873.5 1769.9 873.5 1769.6 873.95 1767.85 875.15 1763.45 876.35 1751.85 876.5 1750.8 876.7 Q1750.3 876.95 1750.25 877.7 L1748.7 877.8 Q1744.65 878.0 1738.35 879.55 1732.75 880.95 1727.0 880.95 L1726.8 880.95 1723.55 880.55 Q1710.4 881.55 1708.15 883.55 L1707.05 885.7 Q1706.3 886.6 1701.35 886.6 1695.35 886.6 1693.15 882.45 1692.45 881.1 1692.2 879.5 L1692.1 878.0 Q1692.1 870.5 1698.2 866.85 1703.25 863.8 1715.4 862.15 L1720.4 861.5 Q1711.8 864.9 1711.8 867.45 L1712.1 869.1 Q1713.05 870.6 1716.15 870.6 1718.15 870.6 1725.7 867.25 1734.1 863.55 1735.2 863.25 L1757.9 863.4 Q1765.05 865.1 1787.05 872.1 M1596.45 685.35 Q1598.0 686.85 1604.3 686.85 1613.65 686.85 1625.25 684.8 1636.8 682.8 1636.8 681.2 1636.8 677.4 1626.8 678.3 L1609.05 679.25 1619.3 677.75 1668.65 673.05 Q1682.25 671.0 1693.3 667.8 1706.85 663.85 1706.85 660.6 1706.85 655.9 1690.05 660.25 1670.4 666.25 1664.6 667.2 1651.1 669.5 1608.0 674.05 1579.35 677.1 1579.35 679.95 L1579.65 681.6 Q1580.75 683.1 1584.9 683.1 L1597.85 681.15 Q1596.15 682.1 1596.15 683.7 L1596.0 684.3 Q1595.95 684.85 1596.45 685.35 M1504.1 706.6 Q1507.5 708.0 1512.2 709.25 L1521.35 711.85 1547.1 711.85 1550.85 711.1 1590.85 711.35 Q1583.75 709.0 1580.5 707.3 1573.4 703.65 1573.1 699.5 L1573.1 699.25 1539.05 704.25 1505.6 706.1 1504.1 706.6 M1772.1 695.65 L1773.35 695.9 1776.8 695.15 1783.65 694.05 1785.3 692.4 Q1785.3 691.5 1785.1 691.4 L1784.9 691.2 Q1781.8 691.0 1777.4 692.0 1772.85 693.0 1771.5 694.2 L1771.65 695.1 1772.1 695.65 M1745.55 717.2 Q1745.55 714.1 1750.9 711.35 1756.2 708.6 1756.2 706.2 1756.2 702.95 1753.55 702.95 1751.2 702.95 1747.75 705.35 1744.35 707.7 1741.95 710.95 1739.3 714.5 1739.3 717.3 1739.3 722.45 1740.35 724.85 1741.4 727.25 1743.65 728.95 1735.8 726.85 1734.3 726.85 1732.4 726.85 1732.4 729.35 1732.4 731.2 1741.2 735.0 1751.25 739.35 1760.55 739.35 1761.8 739.35 1762.75 738.45 1763.7 737.55 1763.7 736.25 L1763.7 736.2 1768.75 737.85 Q1783.0 742.5 1784.3 742.5 1785.95 742.5 1786.8 741.25 1787.4 740.35 1787.4 739.35 1787.4 735.85 1780.85 733.75 1778.55 733.0 1766.5 730.6 1756.6 728.65 1752.1 726.3 1745.55 722.9 1745.55 717.2 M1830.85 761.65 Q1827.9 757.0 1824.65 753.25 1815.6 742.85 1815.6 751.85 1827.6 768.4 1830.05 770.8 1828.65 771.3 1828.65 773.75 1828.65 774.7 1829.0 775.25 L1829.9 776.25 1828.1 775.05 Q1827.0 774.3 1825.85 774.3 1823.45 774.3 1822.7 776.15 1822.4 776.85 1822.4 778.4 1833.2 803.1 1834.95 803.1 1836.65 803.1 1837.7 801.2 L1838.1 801.5 1839.2 809.2 Q1840.6 814.95 1843.65 814.95 1846.3 814.95 1846.8 811.2 L1846.8 807.0 Q1846.8 802.7 1844.5 797.15 1841.35 789.5 1840.55 786.35 L1837.25 776.1 Q1835.7 772.15 1832.2 770.95 L1832.05 770.9 Q1833.65 770.1 1833.65 767.25 1833.65 766.1 1830.85 761.65 M1857.75 828.45 L1859.0 828.2 1859.3 827.75 1859.6 826.8 Q1857.75 825.8 1855.1 821.75 1853.1 818.75 1851.0 819.3 L1850.95 819.55 1850.85 820.95 Q1850.85 822.2 1852.8 825.0 1855.2 828.45 1857.75 828.45 M1835.55 794.15 L1835.25 794.15 Q1834.6 792.2 1834.35 790.4 1835.55 792.6 1835.55 794.15 M1701.0 875.65 L1702.4 875.9 Q1705.9 875.9 1707.9 874.8 1709.6 873.85 1709.6 872.6 L1709.45 871.5 1709.3 871.2 Q1708.25 871.0 1704.95 872.0 1701.4 873.05 1700.25 874.2 L1700.4 875.1 1701.0 875.65 M1714.35 875.55 L1714.65 877.2 Q1715.35 878.7 1717.4 878.7 1722.25 878.7 1737.15 875.1 1751.85 871.6 1751.85 870.6 1751.85 865.6 1733.1 869.15 1725.95 870.5 1720.2 872.4 1714.35 874.4 1714.35 875.55 M1068.1 658.5 L1068.35 658.25 1068.25 657.35 1068.25 653.3 1068.3 651.35 Q1068.0 648.4 1068.0 645.2 L1068.0 645.15 Q1067.95 644.35 1066.95 641.65 L1066.0 638.9 Q1066.0 636.35 1067.05 638.1 L1068.3 638.35 Q1069.45 638.8 1072.25 640.25 L1087.0 640.15 1087.5 640.0 1092.25 640.0 1096.75 639.85 Q1099.2 640.25 1101.05 641.05 L1101.25 641.0 Q1101.4 641.0 1107.0 644.15 L1112.3 645.45 Q1119.8 647.0 1120.75 647.5 L1122.95 648.35 1123.75 648.35 1124.15 648.45 1124.35 648.85 1124.35 648.9 1124.35 649.15 1125.1 649.1 1127.0 649.1 1127.5 650.0 1127.5 650.25 1128.45 650.45 1128.8 650.5 1129.75 650.9 1129.85 651.15 1129.75 651.4 Q1129.2 652.1 1128.55 652.1 L1127.1 651.75 Q1126.7 652.85 1127.2 655.3 1127.15 657.45 1123.9 658.4 L1116.85 659.3 Q1111.0 660.0 1110.1 661.0 L1108.9 662.7 Q1107.85 664.05 1107.0 664.1 L1100.75 664.25 Q1097.7 664.6 1095.25 665.7 L1092.25 667.25 1083.55 669.9 1083.35 669.95 1083.35 669.6 1082.3 668.75 1082.5 668.5 1081.75 668.1 1080.15 667.25 1076.15 665.85 Q1074.7 665.4 1074.65 664.8 L1073.6 664.4 Q1069.25 662.9 1068.55 660.6 L1068.1 660.55 1068.1 658.5 M1070.95 641.85 L1070.35 641.6 1070.75 641.9 1070.95 641.85 M1037.75 860.6 Q1054.85 864.05 1077.4 867.8 L1077.7 867.65 Q1083.2 865.15 1087.85 866.85 L1088.1 867.15 1088.35 868.75 Q1088.35 870.45 1083.05 872.35 L1082.5 872.9 1080.85 873.35 1080.0 873.35 1075.85 874.35 1073.55 874.0 1072.85 873.35 1042.95 869.0 Q1019.95 865.35 1017.85 865.35 1016.25 865.35 999.4 860.1 984.0 855.3 978.55 854.9 L978.3 855.0 975.2 855.75 974.85 856.25 Q972.6 859.05 968.1 859.05 959.55 859.05 952.0 856.35 934.15 855.3 926.2 849.4 921.05 845.55 921.05 840.9 921.05 836.1 923.35 834.05 926.9 830.9 935.55 834.8 937.05 833.95 939.2 833.7 945.0 833.05 954.45 836.6 959.9 838.65 964.8 841.4 L969.65 841.15 Q974.9 840.85 975.75 841.25 980.15 843.4 981.25 846.75 996.05 850.3 1016.4 855.85 L1032.3 859.45 1023.65 859.65 1022.65 859.8 Q1022.1 860.05 1022.1 861.0 L1023.65 862.8 1035.6 862.8 Q1037.65 861.8 1037.75 860.6" fill="#344d32" fill-rule="evenodd" stroke="none"/>
    <path d="M1556.85 684.95 Q1556.85 686.35 1556.2 686.85 1554.6 688.05 1548.95 688.05 1543.15 688.05 1541.55 686.4 1541.05 685.9 1541.05 685.3 L1541.15 684.95 Q1541.15 681.9 1549.0 681.9 1556.85 681.9 1556.85 684.95 M1809.25 871.4 Q1815.6 873.7 1818.75 875.55 1820.35 875.35 1824.65 876.8 1836.7 880.85 1840.55 881.7 L1840.7 881.45 1840.85 882.35 Q1840.85 882.8 1839.3 884.0 L1827.45 884.0 1812.6 882.25 Q1807.55 881.05 1807.65 878.7 L1792.6 873.85 1787.05 872.1 Q1765.05 865.1 1757.9 863.4 L1735.2 863.25 Q1734.1 863.55 1725.7 867.25 1718.15 870.6 1716.15 870.6 1713.05 870.6 1712.1 869.1 L1711.8 867.45 Q1711.8 864.9 1720.4 861.5 L1721.15 861.2 Q1728.3 858.4 1735.55 856.8 L1736.05 856.8 1757.4 856.8 Q1778.95 862.05 1791.75 865.75 1802.4 868.85 1809.25 871.4 M1596.45 685.35 Q1595.95 684.85 1596.0 684.3 L1596.15 683.7 Q1596.15 682.1 1597.85 681.15 L1584.9 683.1 Q1580.75 683.1 1579.65 681.6 L1579.35 679.95 Q1579.35 677.1 1608.0 674.05 1651.1 669.5 1664.6 667.2 1670.4 666.25 1690.05 660.25 1706.85 655.9 1706.85 660.6 1706.85 663.85 1693.3 667.8 1682.25 671.0 1668.65 673.05 L1619.3 677.75 1609.05 679.25 1626.8 678.3 Q1636.8 677.4 1636.8 681.2 1636.8 682.8 1625.25 684.8 1613.65 686.85 1604.3 686.85 1598.0 686.85 1596.45 685.35 M1772.1 695.65 L1771.65 695.1 1771.5 694.2 Q1772.85 693.0 1777.4 692.0 1781.8 691.0 1784.9 691.2 L1785.1 691.4 Q1785.3 691.5 1785.3 692.4 L1783.65 694.05 1776.8 695.15 1773.35 695.9 1772.1 695.65 M1745.55 717.2 Q1745.55 722.9 1752.1 726.3 1756.6 728.65 1766.5 730.6 1778.55 733.0 1780.85 733.75 1787.4 735.85 1787.4 739.35 1787.4 740.35 1786.8 741.25 1785.95 742.5 1784.3 742.5 1783.0 742.5 1768.75 737.85 L1763.7 736.2 1763.7 736.25 Q1763.7 737.55 1762.75 738.45 1761.8 739.35 1760.55 739.35 1751.25 739.35 1741.2 735.0 1732.4 731.2 1732.4 729.35 1732.4 726.85 1734.3 726.85 1735.8 726.85 1743.65 728.95 1741.4 727.25 1740.35 724.85 1739.3 722.45 1739.3 717.3 1739.3 714.5 1741.95 710.95 1744.35 707.7 1747.75 705.35 1751.2 702.95 1753.55 702.95 1756.2 702.95 1756.2 706.2 1756.2 708.6 1750.9 711.35 1745.55 714.1 1745.55 717.2 M1830.85 761.65 Q1833.65 766.1 1833.65 767.25 1833.65 770.1 1832.05 770.9 L1832.2 770.95 Q1835.7 772.15 1837.25 776.1 L1840.55 786.35 Q1841.35 789.5 1844.5 797.15 1846.8 802.7 1846.8 807.0 L1846.8 811.2 Q1846.3 814.95 1843.65 814.95 1840.6 814.95 1839.2 809.2 L1838.1 801.5 1837.7 801.2 Q1836.65 803.1 1834.95 803.1 1833.2 803.1 1822.4 778.4 1822.4 776.85 1822.7 776.15 1823.45 774.3 1825.85 774.3 1827.0 774.3 1828.1 775.05 L1829.9 776.25 1829.0 775.25 Q1828.65 774.7 1828.65 773.75 1828.65 771.3 1830.05 770.8 1827.6 768.4 1815.6 751.85 1815.6 742.85 1824.65 753.25 1827.9 757.0 1830.85 761.65 M1937.4 851.15 Q1937.4 849.15 1939.7 848.55 L1955.55 849.0 1970.55 849.3 1971.8 849.65 1987.4 849.95 2037.15 853.05 Q2042.35 853.6 2043.85 854.45 2044.95 855.1 2044.95 856.8 2044.95 858.2 2044.35 858.75 2042.9 859.95 2038.05 859.95 L2011.5 858.6 1987.95 856.5 1971.15 856.2 1969.8 855.9 1954.95 855.6 1939.65 852.55 Q1937.4 852.05 1937.4 851.15 M1929.9 848.4 L1916.15 848.4 Q1910.2 848.2 1907.65 847.2 L1905.9 845.9 Q1905.9 845.4 1906.25 844.9 1906.7 844.3 1907.4 844.2 L1913.75 844.4 1929.9 845.25 1931.05 845.55 Q1931.55 845.8 1931.55 846.75 L1931.0 847.6 1929.9 848.4 M1835.55 794.15 Q1835.55 792.6 1834.35 790.4 1834.6 792.2 1835.25 794.15 L1835.55 794.15 M1857.75 828.45 Q1855.2 828.45 1852.8 825.0 1850.85 822.2 1850.85 820.95 L1850.95 819.55 1851.0 819.3 Q1853.1 818.75 1855.1 821.75 1857.75 825.8 1859.6 826.8 L1859.3 827.75 1859.0 828.2 1857.75 828.45 M1821.15 880.65 L1824.75 880.25 Q1823.4 879.35 1821.8 878.75 1821.8 879.75 1821.15 880.6 L1821.15 880.65 M1934.2 900.0 L1933.05 900.9 1911.8 900.9 1875.85 894.8 Q1845.9 889.35 1845.9 887.4 1845.9 885.85 1872.7 890.55 L1911.5 897.45 1933.05 897.75 1934.1 898.05 Q1934.6 898.3 1934.6 899.25 1934.6 899.65 1934.2 900.0 M1909.95 908.7 Q1906.45 907.7 1894.5 906.2 1888.05 905.4 1888.05 902.4 1888.05 898.9 1894.75 899.5 L1909.65 902.3 1924.95 902.45 Q1939.3 901.5 1976.2 910.6 1991.3 914.35 2001.55 917.8 2012.4 921.5 2012.4 923.1 2012.4 924.15 2011.8 925.0 2010.95 926.25 2008.95 926.25 2007.4 926.25 1992.15 921.85 L1975.25 916.95 1955.1 913.9 Q1936.75 911.2 1925.25 908.85 L1909.95 908.7 M1714.35 875.55 Q1714.35 874.4 1720.2 872.4 1725.95 870.5 1733.1 869.15 1751.85 865.6 1751.85 870.6 1751.85 871.6 1737.15 875.1 1722.25 878.7 1717.4 878.7 1715.35 878.7 1714.65 877.2 L1714.35 875.55 M1701.0 875.65 L1700.4 875.1 1700.25 874.2 Q1701.4 873.05 1704.95 872.0 1708.25 871.0 1709.3 871.2 L1709.45 871.5 1709.6 872.6 Q1709.6 873.85 1707.9 874.8 1705.9 875.9 1702.4 875.9 L1701.0 875.65 M2144.9 867.15 Q2129.6 867.15 2108.85 864.0 L2080.85 859.2 2065.55 859.05 Q2064.2 857.8 2064.0 856.8 2079.25 855.5 2088.7 856.9 2093.75 857.65 2099.3 859.2 L2122.1 860.65 Q2144.0 862.6 2147.1 865.25 L2146.25 866.7 Q2145.85 867.15 2144.9 867.15 M2060.85 865.4 Q2060.85 863.5 2071.85 864.55 L2092.4 866.55 2093.5 866.8 Q2094.0 867.0 2094.0 867.95 L2093.55 868.75 2092.4 869.7 2087.4 869.7 2077.9 868.35 2062.4 867.15 2060.85 865.4 M2045.85 932.9 Q2047.6 928.7 2055.35 932.6 2059.45 934.6 2065.2 938.4 L2064.35 939.85 Q2064.0 940.25 2063.4 940.25 2049.15 936.2 2045.85 932.9 M1129.75 651.4 L1130.4 652.25 1131.3 653.7 1134.4 655.65 1135.65 656.5 1139.75 657.25 1139.9 657.3 1150.4 656.75 1150.6 656.05 Q1151.1 655.25 1152.4 655.0 L1171.4 655.0 1187.95 661.8 Q1201.7 667.7 1203.85 669.8 L1217.95 674.85 Q1228.25 678.6 1228.25 679.1 1228.25 680.75 1226.35 681.25 L1224.6 681.25 1224.25 681.3 1217.1 681.9 Q1216.7 683.05 1214.45 684.45 1212.5 685.65 1210.85 686.15 L1200.0 685.75 1199.4 685.7 Q1199.05 686.15 1198.6 686.15 L1195.7 685.55 Q1194.15 685.75 1192.9 686.7 L1189.95 689.3 Q1185.2 692.9 1174.4 692.15 L1155.4 692.15 1151.7 691.35 1151.15 692.25 Q1150.6 692.75 1149.9 692.75 L1147.7 692.35 Q1134.25 693.4 1131.95 694.7 L1131.25 695.45 1129.4 695.75 Q1128.1 695.75 1127.55 694.75 1127.15 693.5 1126.75 693.0 L1125.95 694.1 Q1125.4 694.75 1124.4 694.75 1123.4 694.75 1121.5 693.75 L1121.05 694.8 Q1120.45 695.75 1119.4 695.75 1118.25 695.75 1116.9 694.0 L1116.45 695.25 Q1115.95 696.25 1114.9 696.25 1114.15 696.25 1113.5 695.7 L1112.75 695.0 Q1112.6 696.75 1112.15 697.0 L1108.65 697.25 Q1106.55 697.25 1104.35 696.1 1104.15 696.65 1103.5 696.65 1103.1 696.65 1099.4 693.6 L1094.25 689.35 1090.2 686.0 Q1086.75 683.0 1086.75 682.4 1086.75 681.9 1086.9 681.65 L1086.8 679.25 1086.85 674.95 1084.45 671.25 1083.55 669.9 1092.25 667.25 1095.25 665.7 Q1097.7 664.6 1100.75 664.25 L1107.0 664.1 Q1107.85 664.05 1108.9 662.7 L1110.1 661.0 Q1111.0 660.0 1116.85 659.3 L1123.9 658.4 Q1127.15 657.45 1127.2 655.3 1126.7 652.85 1127.1 651.75 L1128.55 652.1 Q1129.2 652.1 1129.75 651.4 M1104.65 674.15 L1104.8 674.15 1104.1 673.65 1104.65 674.15 M1229.15 881.15 Q1235.75 882.45 1244.3 882.75 L1245.4 883.05 Q1245.9 883.3 1245.9 884.25 L1245.45 885.0 1244.3 885.9 1236.8 885.9 Q1230.15 884.25 1219.65 883.05 L1180.55 882.75 Q1179.2 881.55 1179.0 880.55 1179.25 880.3 1179.95 880.0 L1180.55 879.65 1219.35 879.65 1229.15 881.15 M1238.1 876.15 Q1238.1 872.5 1260.25 876.0 1268.45 877.3 1275.5 878.95 1282.4 880.55 1282.4 881.15 1282.4 882.55 1281.8 883.05 1280.35 884.3 1275.2 884.3 1267.1 884.3 1252.95 881.4 1238.1 878.35 1238.1 876.15 M1032.3 859.45 L1036.2 859.35 1036.2 859.05 1037.25 859.3 Q1037.75 859.5 1037.75 860.45 L1037.75 860.6 Q1037.65 861.8 1035.6 862.8 L1023.65 862.8 1022.1 861.0 Q1022.1 860.05 1022.65 859.8 L1023.65 859.65 1032.3 859.45 M995.4 866.2 Q995.85 866.4 995.85 867.35 995.85 868.3 995.35 868.7 L994.35 869.0 975.05 869.3 Q974.65 870.1 973.65 870.3 L947.4 870.3 Q943.05 869.05 933.95 867.3 L918.65 864.3 Q900.9 860.55 900.9 856.8 900.9 855.1 911.7 858.45 924.25 862.35 925.85 862.35 926.7 862.35 927.2 861.75 927.75 861.0 928.05 860.9 984.0 860.55 984.9 860.25 985.7 860.55 986.55 861.5 L985.05 863.1 983.7 864.0 955.05 864.15 960.7 864.7 968.1 865.7 994.35 865.95 995.4 866.2 M741.65 838.85 L740.55 839.7 732.45 839.7 Q720.55 835.3 704.7 832.85 L696.85 831.45 Q694.05 830.7 694.05 829.35 L694.1 828.45 694.35 828.05 Q696.95 827.8 712.4 831.15 731.7 835.3 740.55 836.55 L741.7 836.8 Q742.2 837.0 742.2 837.95 L741.65 838.85" fill="#445733" fill-rule="evenodd" stroke="none"/>
    <path d="M1537.8 672.3 L1535.85 672.25 1534.45 671.25 Q1534.0 670.9 1534.0 670.55 1534.0 670.15 1534.4 669.6 1534.95 668.9 1535.85 668.5 L1569.35 668.5 1570.25 668.75 1591.0 668.75 1626.5 663.35 Q1654.65 658.85 1670.85 657.0 1675.65 656.5 1687.85 653.95 L1702.0 650.75 1711.0 647.25 Q1715.7 645.75 1717.15 646.9 L1718.5 647.05 1718.75 646.9 Q1721.55 645.7 1723.6 645.4 L1724.0 645.75 1722.45 646.85 1720.15 648.1 1717.05 649.6 Q1713.95 652.15 1698.0 655.8 1682.9 659.3 1670.75 661.0 L1625.6 667.55 1591.85 672.75 1569.85 672.75 1569.0 672.5 1537.8 672.3 M1763.45 714.8 L1763.5 715.85 Q1763.5 716.75 1762.95 717.8 L1762.1 720.25 Q1762.35 720.55 1768.3 722.1 L1771.45 722.95 Q1774.55 721.4 1784.55 723.2 L1813.3 730.0 Q1823.95 731.0 1829.4 735.0 L1833.35 738.5 Q1835.7 740.65 1837.75 741.75 1840.15 743.05 1842.35 747.95 L1845.25 755.65 1847.1 762.65 Q1848.2 767.45 1849.0 769.5 L1851.25 776.45 Q1852.75 781.1 1854.55 783.4 1856.55 786.0 1857.0 790.05 L1857.75 797.25 1860.0 808.65 1859.0 806.25 1857.9 806.25 1857.9 806.55 Q1856.45 804.25 1854.85 802.85 L1854.0 799.0 Q1851.5 787.9 1845.8 773.15 L1841.6 760.7 Q1839.0 753.0 1836.05 747.25 1832.45 740.15 1817.9 735.65 1804.4 731.45 1771.8 726.75 L1770.9 726.15 Q1764.9 725.85 1761.85 723.65 L1761.05 723.0 1760.5 722.9 1760.35 722.2 Q1759.6 721.2 1759.6 720.15 1759.6 718.4 1760.2 716.95 1760.9 715.25 1762.1 715.25 L1762.25 714.4 1763.1 714.4 1763.45 714.8 M1771.9 873.5 L1769.6 873.95 1769.9 873.5 1771.9 873.5 M1727.05 881.6 L1727.0 881.05 1727.0 880.95 Q1732.75 880.95 1738.35 879.55 1744.65 878.0 1748.7 877.8 L1750.25 877.7 1750.25 877.95 1751.2 878.95 Q1741.65 879.5 1736.65 880.9 L1730.7 882.1 1730.4 881.8 1729.35 881.55 1727.05 881.6" fill="#031c32" fill-rule="evenodd" stroke="none"/>
    <path d="M1738.05 641.45 L1737.85 640.9 1737.85 640.55 1738.0 640.4 1740.35 640.45 Q1744.55 638.6 1748.0 637.85 L1748.05 637.9 1750.8 637.05 1754.25 635.6 1757.1 635.6 1758.5 635.5 1758.5 635.35 1768.25 635.35 1770.6 635.55 Q1771.75 635.65 1772.45 636.2 L1772.7 636.2 1772.8 636.3 1777.75 637.1 1778.3 637.45 Q1780.2 636.8 1783.45 636.5 L1789.55 635.75 1791.2 634.0 1792.45 632.8 1792.4 632.4 Q1792.4 632.1 1792.65 632.0 L1792.45 631.85 1792.4 631.4 1792.7 631.3 Q1792.85 630.85 1793.65 630.85 L1793.7 630.85 1795.35 630.15 Q1798.75 628.7 1802.35 626.7 1802.4 628.9 1804.25 629.85 1805.25 630.4 1808.95 631.2 1817.25 632.9 1821.25 638.35 L1832.95 639.5 1839.1 640.25 1842.7 644.5 1845.4 647.5 1839.9 650.75 1837.65 652.7 1837.65 652.9 1836.65 655.65 1835.85 658.05 Q1836.65 660.7 1836.65 662.4 L1836.65 662.8 1836.55 663.1 1836.15 663.35 Q1835.9 664.0 1829.35 669.15 L1825.5 672.2 1825.85 672.4 Q1826.05 672.6 1825.7 672.85 L1825.1 673.1 1824.45 673.05 Q1822.55 672.6 1818.7 670.25 L1813.15 666.5 1809.5 662.45 Q1806.85 659.85 1801.5 659.25 L1795.25 659.1 Q1779.5 658.6 1776.45 655.15 1776.0 654.65 1774.85 652.0 1773.95 650.0 1772.0 648.85 1766.3 645.5 1754.15 643.25 L1745.4 641.8 1745.25 641.85 1742.25 641.85 1738.5 641.6 1738.05 641.45 M1834.8 655.5 L1834.9 655.6 1834.9 655.5 1834.8 655.5" fill="#273a25" fill-rule="evenodd" stroke="none"/>
    <path d="M1802.35 626.7 L1802.35 626.55 1802.4 626.0 Q1803.15 625.8 1803.55 626.0 L1803.75 625.85 1815.4 625.5 Q1817.35 622.5 1819.6 621.9 1820.05 621.6 1821.0 621.25 1823.1 620.5 1825.75 620.35 L1832.25 620.1 1851.4 620.0 1854.7 618.1 Q1856.9 616.95 1856.9 618.55 L1856.65 619.45 1856.65 619.5 1856.65 619.8 1856.65 620.9 1856.2 624.45 1856.1 625.0 1856.3 625.65 1856.15 627.15 1856.05 629.45 Q1855.85 630.15 1855.05 630.9 L1855.05 631.1 1855.15 632.05 1855.1 633.15 1855.15 634.55 1855.1 638.45 Q1854.9 640.6 1853.9 642.75 L1853.85 642.8 Q1853.7 643.3 1853.0 643.35 L1852.75 643.3 1848.45 645.9 1846.6 646.9 1846.85 647.1 1846.55 647.65 Q1846.4 647.85 1846.0 647.85 L1845.4 647.5 1842.7 644.5 1839.1 640.25 1832.95 639.5 1821.25 638.35 Q1817.25 632.9 1808.95 631.2 1805.25 630.4 1804.25 629.85 1802.4 628.9 1802.35 626.7" fill="#233421" fill-rule="evenodd" stroke="none"/>
    <path d="M1860.0 808.65 L1862.1 814.55 1862.85 816.4 1862.6 816.1 Q1864.35 819.55 1865.85 821.4 1868.05 824.1 1871.55 826.4 1883.85 834.55 1911.95 837.45 L1938.05 837.75 Q1950.1 838.75 1957.35 840.1 L1968.0 842.5 Q1981.75 845.4 2021.15 847.2 L2022.25 847.45 Q2022.6 847.6 2022.75 848.15 L2028.5 848.4 2075.4 848.7 2079.7 849.15 2084.3 849.65 2148.95 849.95 2169.1 851.6 2169.05 852.95 2169.3 854.7 Q2157.15 852.3 2148.5 851.55 L2084.9 851.4 2075.4 850.25 2051.7 850.05 Q2027.95 849.85 2027.55 849.65 L2022.0 849.6 2021.15 850.25 2016.15 850.25 1999.0 849.35 1994.45 849.3 1986.4 848.4 1969.1 846.1 1965.05 845.55 1951.35 843.75 1940.7 842.75 1935.05 842.55 1929.15 842.15 1923.65 841.95 1917.9 841.5 1902.6 841.2 Q1890.1 838.55 1881.45 834.8 1873.6 832.15 1868.75 828.8 L1865.5 826.2 Q1861.75 822.65 1859.1 816.7 1855.4 808.15 1854.6 806.85 L1854.6 802.65 1854.85 802.85 Q1856.45 804.25 1857.9 806.55 L1857.9 806.25 1859.0 806.25 1860.0 808.65 M1763.45 876.35 L1770.9 876.2 Q1778.9 875.9 1784.75 876.2 L1789.25 876.3 1789.9 876.65 Q1795.55 877.35 1798.3 878.9 1800.0 879.85 1802.6 881.95 1805.3 883.7 1809.75 884.45 L1823.95 890.5 Q1832.05 893.85 1838.7 895.25 1851.45 898.05 1855.9 901.35 L1858.7 904.0 1861.35 906.55 Q1865.5 909.4 1878.05 911.5 1893.95 914.15 1928.85 916.8 L1945.55 917.15 1946.7 917.35 1952.4 917.75 1953.55 918.05 Q1954.05 918.3 1954.05 919.25 L1953.5 920.0 1953.4 920.1 Q1992.45 925.7 2005.75 928.4 2033.85 934.15 2051.45 943.4 2069.25 952.8 2092.55 963.15 2105.85 969.05 2131.2 979.65 L2131.35 980.1 Q2131.35 980.55 2129.85 980.55 2128.45 980.55 2095.75 965.65 2063.9 951.1 2047.7 943.2 2029.45 934.2 2004.45 929.45 1994.8 927.6 1977.65 925.15 L1948.3 920.9 1946.15 920.9 1945.25 920.55 1928.7 920.25 1927.55 920.15 1919.3 920.1 Q1879.6 916.85 1864.4 911.4 1859.9 909.8 1852.75 906.1 1845.1 902.15 1839.15 899.85 L1814.2 890.1 Q1801.7 885.3 1792.45 882.15 L1792.1 882.15 Q1790.65 882.15 1787.8 880.6 L1786.65 880.25 1752.75 880.4 Q1745.1 882.9 1737.85 883.85 L1730.15 884.4 1729.35 884.7 1723.05 884.7 1722.25 884.35 1721.4 884.3 Q1721.0 885.15 1721.0 883.65 1721.0 882.75 1721.25 882.75 L1721.55 882.85 Q1721.6 881.95 1722.8 881.8 L1727.05 881.6 1729.35 881.55 1730.4 881.8 1730.7 882.1 1736.65 880.9 Q1741.65 879.5 1751.2 878.95 L1750.25 877.95 1750.25 877.7 Q1750.3 876.95 1750.8 876.7 L1751.85 876.5 1763.45 876.35 M1939.6 841.35 L1937.75 841.2 1936.2 841.2 1939.6 841.35 M1794.45 881.2 L1793.8 880.85 1793.85 881.0 1794.45 881.2 M1784.1 878.45 L1778.75 878.7 1784.5 878.7 1784.1 878.45 M586.95 821.25 Q588.95 821.25 594.9 823.1 L601.95 825.3 Q650.55 825.15 651.2 824.85 L651.7 825.0 Q652.3 825.15 652.65 825.45 652.45 826.05 650.85 826.8 L601.35 826.8 593.5 825.25 Q588.1 824.0 586.65 822.0 586.65 821.55 586.95 821.25" fill="#061f32" fill-rule="evenodd" stroke="none"/>
    <path d="M1083.35 669.95 L1083.35 671.25 1082.75 671.6 1080.75 670.4 Q1080.1 669.8 1080.1 668.65 L1080.1 668.3 1080.25 668.15 Q1081.35 668.15 1082.3 668.75 L1083.35 669.6 1083.35 669.95 M1068.1 660.55 L1068.1 662.0 1067.5 662.35 Q1067.0 661.85 1066.9 661.0 L1066.85 659.6 1066.85 658.45 Q1066.95 657.25 1067.5 656.85 L1068.1 657.35 1068.1 658.5 1068.1 660.55" fill="#37302a" fill-rule="evenodd" stroke="none"/>
    <path d="M1124.35 648.85 L1125.1 649.1 1124.35 649.15 1124.35 648.9 1124.35 648.85 M1127.5 650.0 L1128.45 650.45 1127.5 650.25 1127.5 650.0" fill="#887a5a" fill-rule="evenodd" stroke="none"/>
  </g>
</svg>
