<?xml version="1.0" encoding="UTF-8" standalone="no"?>
<svg xmlns:ffdec="https://www.free-decompiler.com/flash" xmlns:xlink="http://www.w3.org/1999/xlink" ffdec:objectType="shape" height="344.05px" width="466.8px" xmlns="http://www.w3.org/2000/svg">
  <g transform="matrix(1.0, 0.0, 0.0, 1.0, -253.15, -627.5)">
    <path d="M253.15 639.15 Q253.15 634.6 254.5 633.8 255.9 632.95 256.25 640.35 257.3 640.8 258.75 642.15 259.0 643.6 258.35 646.5 L258.55 647.05 Q259.7 650.45 259.95 652.35 L260.65 652.8 260.25 653.7 260.0 654.0 259.85 655.45 257.15 655.85 254.55 655.65 254.5 654.45 Q253.5 653.45 253.25 651.1 L253.15 647.25 Q253.15 643.6 253.45 642.3 L253.15 639.15" fill="#6f6f40" fill-rule="evenodd" stroke="none"/>
    <path d="M489.6 656.7 L483.1 647.15 478.0 639.3 475.35 638.7 Q466.55 636.8 466.55 632.8 466.55 627.75 472.1 627.5 477.1 627.25 484.35 630.8 488.75 632.95 492.3 635.7 493.7 633.8 495.6 634.6 L496.25 634.95 Q497.8 635.95 499.0 638.2 L500.3 641.15 Q501.45 644.3 501.9 648.0 L502.15 650.3 502.15 651.35 502.15 652.95 Q502.15 664.8 499.2 669.15 L497.5 670.9 493.1 669.35 Q492.2 664.2 491.4 657.0 L490.0 657.15 489.6 656.7" fill="#5a5a34" fill-rule="evenodd" stroke="none"/>
    <path d="M495.6 634.6 Q496.85 632.4 497.8 633.7 498.55 634.8 499.0 638.2 497.8 635.95 496.25 634.95 L495.6 634.6 M499.2 669.15 Q497.75 675.9 493.1 675.9 489.15 675.9 488.1 673.9 487.8 673.3 487.8 671.55 487.8 666.55 489.6 656.7 L490.0 657.15 491.4 657.0 Q492.2 664.2 493.1 669.35 L497.5 670.9 499.2 669.15" fill="#68683c" fill-rule="evenodd" stroke="none"/>
    <path d="M701.95 971.55 L701.95 971.2 717.6 970.35 Q719.0 970.9 719.95 971.55 L701.95 971.55" fill="#4b4b2b" fill-rule="evenodd" stroke="none"/>
  </g>
</svg>
