<?xml version="1.0" encoding="UTF-8" standalone="no"?>
<svg xmlns:ffdec="https://www.free-decompiler.com/flash" xmlns:xlink="http://www.w3.org/1999/xlink" ffdec:objectType="shape" height="144.2px" width="720.6px" xmlns="http://www.w3.org/2000/svg">
  <g transform="matrix(1.0, 0.0, 0.0, 1.0, -605.1, -683.1)">
    <path d="M723.8 719.0 Q723.8 718.1 724.25 718.25 L724.65 718.5 728.6 719.3 730.35 716.6 732.45 718.5 Q732.85 717.8 733.35 717.6 L737.55 718.1 Q737.6 717.0 737.75 716.9 L738.9 716.95 Q738.4 713.15 738.85 711.6 738.9 711.5 740.35 710.9 L741.8 710.3 741.75 708.2 Q741.55 706.75 741.75 706.15 742.15 704.7 744.55 704.35 747.45 703.9 750.45 706.4 L752.3 705.85 Q752.6 705.55 753.25 705.2 L757.2 707.3 759.45 708.0 761.8 705.2 Q762.95 703.7 764.95 703.05 765.9 702.4 767.6 702.0 772.65 700.8 773.55 699.85 L777.75 701.0 Q778.5 700.1 781.05 699.35 L783.95 698.8 786.3 698.5 Q786.95 696.4 788.75 695.45 791.05 694.5 792.5 693.45 797.05 690.05 800.35 689.15 L802.8 693.0 803.45 691.35 Q806.75 692.8 807.75 692.85 808.4 693.0 809.0 692.4 810.05 691.3 813.5 691.25 L818.25 691.85 Q819.85 688.6 820.5 686.4 L827.6 688.75 Q828.45 687.45 831.0 686.45 L835.0 684.55 839.15 685.55 Q841.35 686.4 840.65 689.45 841.95 688.9 841.85 687.45 842.65 686.9 850.2 689.5 850.35 688.9 851.15 688.95 L856.95 691.05 Q857.55 690.85 857.9 689.45 858.2 688.4 859.7 688.55 L864.05 690.4 864.2 690.35 864.5 690.45 866.6 689.5 867.25 690.0 867.55 690.25 867.65 689.6 868.8 690.1 Q869.05 689.35 869.4 689.6 L869.75 689.9 873.35 691.7 Q874.5 691.0 875.65 690.0 876.5 690.9 877.2 692.15 877.75 691.65 878.3 691.65 L882.2 693.25 Q882.5 692.35 882.7 692.35 883.05 692.35 884.25 692.95 885.1 692.15 887.0 692.3 889.3 692.5 891.1 694.55 L891.65 694.5 Q891.65 693.5 891.95 693.05 L893.4 693.05 Q893.65 693.6 893.5 694.25 L893.25 695.6 893.75 695.5 894.8 695.1 897.9 698.0 899.75 699.2 902.7 697.0 Q904.15 695.85 906.15 695.75 L908.85 695.35 Q913.8 695.35 914.9 694.65 L918.5 696.75 Q919.4 696.05 921.9 695.95 L924.75 696.0 927.05 696.3 Q928.15 694.45 930.05 693.95 L934.05 692.95 Q939.1 690.75 942.4 690.65 L943.6 694.9 944.65 693.45 948.2 695.9 949.5 695.75 953.95 695.65 Q955.8 696.2 958.2 697.3 L960.0 695.1 961.7 692.65 967.65 696.55 Q968.7 695.5 971.35 695.1 L975.55 694.25 Q976.55 694.95 979.1 696.15 980.9 697.45 979.45 700.2 980.8 699.9 981.05 698.6 981.95 698.2 988.25 702.4 988.55 701.9 989.3 702.1 L994.1 705.45 Q994.7 705.35 995.35 704.15 995.9 703.15 997.3 703.7 L1001.0 706.6 1003.35 706.2 1003.85 706.8 1004.05 707.05 1004.35 706.5 1005.25 707.2 Q1005.65 706.55 1006.0 706.9 L1006.2 707.25 1009.05 709.8 1011.6 708.7 1012.5 711.1 1012.7 711.0 Q1012.65 709.55 1012.9 708.95 1013.5 707.65 1015.8 707.5 1018.55 707.35 1021.15 710.1 L1022.9 709.75 Q1023.25 709.45 1023.95 709.2 L1027.4 711.65 1029.4 712.55 1032.0 710.0 Q1033.25 708.65 1035.2 708.25 1036.2 707.65 1037.85 707.45 1042.75 706.8 1043.75 705.95 L1047.6 707.5 Q1048.4 706.7 1050.9 706.25 L1053.7 705.95 1055.95 705.85 Q1056.8 703.85 1058.6 703.15 1060.9 702.4 1062.4 701.55 1067.15 698.7 1070.35 698.1 L1072.2 702.15 1073.0 700.55 Q1076.05 702.3 1076.9 702.5 1077.55 702.7 1078.15 702.2 1079.3 701.2 1082.55 701.45 L1087.0 702.5 Q1088.85 699.55 1089.75 697.4 L1096.2 700.4 Q1097.15 699.25 1099.7 698.5 L1103.7 697.05 1107.55 698.4 Q1109.5 699.5 1108.45 702.4 1109.7 701.95 1109.8 700.55 1110.6 700.1 1117.45 703.35 1117.65 702.8 1118.4 702.95 L1120.5 704.0 1121.25 703.5 Q1122.0 703.5 1122.85 704.05 L1123.65 704.45 Q1124.0 702.55 1126.45 701.65 1128.35 701.0 1130.85 701.0 1137.3 701.0 1140.9 702.75 L1142.35 703.4 Q1149.15 701.8 1150.9 702.4 L1157.1 702.1 Q1158.55 701.0 1159.95 701.0 1162.95 701.0 1163.55 701.9 1164.15 702.75 1165.95 702.75 1166.4 702.75 1168.25 701.6 1170.1 700.4 1170.6 700.4 L1171.3 700.55 1173.0 701.2 Q1174.9 702.05 1176.2 703.2 1180.35 703.35 1182.45 702.3 L1183.45 702.35 1183.55 701.15 Q1183.95 698.55 1186.2 698.55 1187.15 698.55 1190.4 700.15 1193.65 701.7 1197.6 701.7 1198.35 701.7 1199.1 701.05 1199.85 700.4 1200.6 700.4 1201.75 700.4 1202.25 700.95 L1203.45 702.15 1204.95 701.0 Q1206.9 701.7 1208.7 702.6 1209.8 701.0 1210.25 698.5 1210.9 696.85 1214.0 696.8 L1216.0 698.35 Q1218.0 699.65 1219.95 699.45 1222.0 699.2 1224.15 699.45 L1226.85 699.75 1228.25 699.9 Q1228.8 699.15 1230.0 699.15 1230.75 699.15 1231.95 699.7 1233.15 700.25 1233.9 700.25 1238.35 700.25 1243.25 698.8 L1244.3 697.25 1245.1 698.2 Q1246.0 698.0 1246.55 698.2 1247.35 698.5 1248.55 699.95 L1249.95 699.15 Q1253.05 699.15 1253.1 699.9 L1252.8 701.55 1253.0 701.3 1252.95 701.15 1253.15 701.25 1254.3 701.0 1255.35 701.05 1260.6 697.8 Q1266.6 694.2 1268.0 694.2 L1269.85 694.15 Q1270.55 694.3 1270.55 695.25 1270.55 696.15 1271.05 696.05 L1272.15 695.85 1273.85 693.75 Q1275.75 691.8 1277.4 691.8 L1281.75 691.75 1282.6 691.85 Q1285.35 691.8 1288.7 692.5 L1289.5 691.35 Q1291.5 689.75 1294.6 691.1 L1295.25 691.2 Q1295.8 690.15 1296.4 686.9 1296.85 684.15 1298.1 684.15 L1298.75 684.15 Q1299.35 683.45 1300.25 683.1 1300.7 683.55 1300.95 684.4 1301.8 684.6 1302.15 685.0 L1303.4 685.85 1304.0 685.55 1305.75 685.25 1306.3 684.5 Q1306.7 683.7 1308.6 683.7 1311.1 683.7 1311.7 684.75 1312.0 685.3 1311.95 686.4 1316.4 684.75 1317.35 684.55 L1317.65 684.5 Q1318.3 684.15 1318.7 684.15 L1320.15 684.25 1320.25 684.25 Q1323.0 684.3 1324.95 685.85 L1325.1 686.4 Q1325.4 686.85 1324.0 686.85 L1324.5 688.05 1323.75 688.85 Q1322.85 688.85 1321.65 687.6 1320.65 686.5 1320.45 685.85 1319.15 686.0 1317.15 687.45 1315.3 688.85 1314.3 688.85 1311.65 688.85 1309.85 687.85 L1309.65 687.75 1309.55 687.7 1307.9 686.85 1307.15 687.65 1307.15 687.8 1307.05 687.75 1307.0 687.75 Q1305.9 688.65 1304.85 688.65 L1304.3 688.85 Q1303.45 688.85 1302.45 687.9 L1302.15 687.75 1300.1 686.55 Q1299.5 687.5 1299.35 689.35 1299.15 691.2 1299.45 693.05 L1298.7 693.9 1294.5 693.35 1294.05 694.3 1293.05 695.1 1289.5 694.8 1289.0 695.55 1285.0 694.85 Q1282.55 694.45 1278.75 695.7 L1277.4 695.0 1276.65 695.6 1275.9 696.95 1274.45 698.0 1274.0 698.2 1273.95 698.4 1273.85 699.0 1271.65 698.8 1268.55 698.4 1267.85 698.35 Q1268.25 698.65 1268.25 699.45 1268.25 699.95 1264.05 700.8 1259.55 701.7 1256.7 702.75 L1256.7 703.05 1255.75 703.15 1255.55 703.2 1254.7 703.3 1252.5 703.8 Q1251.35 702.7 1251.2 702.2 L1251.05 701.4 1251.05 700.85 1248.95 702.45 Q1248.2 703.2 1247.45 703.2 1246.1 703.2 1245.25 702.3 L1244.0 700.7 Q1239.8 704.9 1234.5 704.9 L1234.05 704.35 Q1233.6 703.8 1232.45 703.8 1231.5 703.8 1228.6 702.6 1225.75 701.4 1220.55 701.4 L1217.9 701.3 1216.35 701.15 1214.95 699.85 Q1213.8 698.85 1212.75 698.4 1212.3 699.35 1211.7 702.05 1210.8 704.3 1207.95 704.3 1207.05 704.3 1206.35 703.8 L1205.4 703.05 Q1204.7 703.45 1204.25 704.45 1203.9 705.3 1202.6 705.6 1202.4 705.25 1202.15 702.75 L1201.9 702.55 1200.9 702.3 Q1199.9 702.3 1198.95 703.2 1197.85 704.15 1197.0 704.3 L1194.8 702.15 Q1192.7 702.25 1192.35 703.15 1192.0 704.1 1190.7 704.3 L1190.15 702.65 Q1189.5 701.4 1186.95 700.55 1185.55 701.0 1185.25 702.15 1185.1 702.85 1185.1 704.3 1184.9 706.95 1179.95 706.95 1174.55 706.95 1173.75 706.2 1172.95 705.45 1171.5 705.45 L1171.3 705.45 Q1170.6 705.55 1169.75 706.15 1168.7 706.8 1167.95 706.8 1166.3 706.8 1164.2 705.7 1162.45 704.6 1162.35 704.6 L1159.5 705.6 Q1157.1 706.95 1156.2 706.95 L1155.9 706.95 1154.3 707.55 1149.7 706.45 1145.8 705.5 1143.75 705.75 1141.35 705.6 1141.1 705.55 1135.6 706.05 1129.4 706.65 1129.35 707.1 1129.2 707.05 1125.8 707.15 Q1124.6 707.2 1122.4 706.3 L1121.55 706.0 1118.1 707.4 1117.75 707.6 Q1117.4 707.6 1117.35 706.9 L1117.25 707.0 Q1112.3 706.05 1106.4 702.95 1105.75 702.6 1104.6 701.5 L1102.9 700.05 Q1101.55 699.3 1097.7 700.65 1093.7 702.1 1091.2 704.55 1090.3 705.45 1083.15 705.75 L1080.6 705.95 Q1076.7 706.7 1076.9 708.0 L1071.0 706.2 1064.45 703.0 Q1062.8 703.4 1062.2 704.8 1061.7 705.95 1062.3 707.6 L1061.5 708.1 Q1056.6 707.95 1052.4 710.2 L1051.75 710.5 Q1047.7 712.1 1041.7 710.75 1041.45 711.3 1037.25 709.4 1036.2 709.4 1034.55 710.75 L1033.55 711.55 Q1031.5 713.4 1031.15 714.3 L1031.05 714.55 1025.8 715.35 1025.4 715.4 1025.2 715.5 1025.0 715.6 1022.85 714.1 Q1021.45 713.0 1020.35 713.0 1018.95 713.0 1017.9 714.25 1016.85 715.5 1016.45 715.5 L1013.1 714.85 1011.35 714.05 1010.65 713.65 1007.25 711.5 Q1006.45 711.0 1005.9 710.85 L1004.8 709.5 1003.9 709.25 1003.35 709.5 1002.75 709.1 Q1002.0 708.2 1000.9 707.95 L1000.2 707.95 1000.3 708.0 999.4 707.75 996.05 707.35 Q994.9 707.2 992.75 706.0 991.0 705.0 989.6 705.2 988.3 705.45 987.6 706.0 982.8 704.35 977.35 700.45 L975.8 698.75 974.3 697.1 969.15 696.95 Q964.9 697.8 962.1 699.95 L960.0 700.35 953.95 700.0 951.4 699.85 Q947.45 700.05 947.5 701.35 L941.9 698.75 935.8 694.7 Q934.1 694.85 933.35 696.1 932.7 697.2 933.1 698.9 L932.2 699.3 Q929.15 698.8 926.3 699.25 L926.4 699.65 925.6 701.35 Q925.2 702.15 923.4 702.75 L926.4 705.6 925.1 706.75 925.1 706.8 Q925.1 708.1 921.05 709.95 L916.6 711.5 913.05 711.95 912.7 711.95 912.45 711.95 912.1 711.95 909.4 711.55 904.85 710.4 897.6 708.05 Q897.3 708.6 897.3 707.1 L897.35 706.15 895.0 705.05 Q888.4 702.0 881.85 702.0 870.4 702.0 865.95 698.95 864.45 697.95 863.15 696.15 L861.0 693.35 861.0 692.25 859.45 692.5 855.75 691.95 Q853.7 691.35 852.35 692.0 851.05 692.55 850.5 693.2 845.25 692.75 838.6 690.2 L836.55 688.95 Q835.25 687.9 834.55 687.65 833.05 687.1 829.25 688.85 825.25 690.7 822.95 693.45 822.1 694.45 814.65 695.5 L812.05 696.05 Q808.1 697.15 808.5 698.4 L802.1 697.2 794.75 694.75 Q793.1 695.25 792.65 696.75 792.3 697.95 793.15 699.6 L792.4 700.15 Q787.3 700.55 783.1 703.2 L782.5 703.6 Q778.5 705.65 772.05 704.9 771.9 705.5 767.2 704.0 766.1 704.15 764.55 705.7 L764.2 705.8 763.85 705.5 763.15 706.35 762.5 706.25 Q762.15 706.35 758.9 709.65 L758.5 710.0 754.55 710.15 Q751.8 710.15 750.9 710.7 L749.75 710.85 Q744.3 711.8 743.6 713.9 743.45 714.3 743.55 716.9 L741.75 719.65 740.4 719.6 739.25 719.55 739.15 718.7 739.1 718.7 738.5 719.55 733.75 719.75 732.05 720.0 730.65 720.3 729.0 720.25 728.2 720.65 724.1 719.75 Q723.8 720.5 723.8 719.0 M1291.9 704.8 L1292.45 705.3 1292.6 705.75 Q1292.6 706.15 1291.35 706.2 L1291.35 705.9 1291.3 705.05 1291.9 704.8 M1266.0 734.6 L1266.1 734.65 Q1264.95 736.55 1264.95 738.95 1264.95 739.35 1266.05 741.25 L1265.65 741.95 Q1264.55 741.65 1264.0 741.15 L1263.7 740.9 1261.5 739.5 1261.2 739.5 1260.8 739.75 1256.25 741.95 1252.6 741.25 1249.7 740.65 1248.9 740.55 Q1244.0 740.55 1240.5 742.5 L1237.35 743.95 1234.35 744.45 Q1233.6 744.45 1233.4 745.1 L1233.3 745.3 Q1233.05 745.7 1232.45 745.7 L1230.05 745.15 1227.6 744.6 1226.55 745.0 1225.85 745.2 1223.55 745.25 1222.0 745.45 1220.55 745.7 1215.3 745.4 1209.25 743.95 1207.35 743.4 1200.05 741.3 1195.65 740.3 1194.95 740.15 Q1193.95 740.45 1192.75 741.1 L1191.2 741.95 Q1189.1 741.95 1188.45 740.7 L1188.3 740.55 1187.6 740.55 1186.4 740.5 1186.15 740.2 1184.1 740.9 1181.25 742.55 1175.7 742.1 1175.7 743.55 1174.95 743.85 1171.3 743.05 Q1168.4 742.3 1166.55 741.35 L1165.85 741.0 1164.1 740.65 1161.85 740.25 1161.05 740.4 1160.7 740.45 1160.0 740.5 1158.95 740.1 1158.8 740.05 1157.75 739.65 1157.35 741.0 1157.25 741.35 Q1156.55 742.9 1155.6 743.25 L1154.0 743.25 1152.45 743.3 1151.2 743.5 1149.3 743.85 1143.4 741.95 1139.65 740.65 1137.9 740.55 1138.0 741.3 1137.85 741.2 Q1136.9 740.55 1136.25 739.25 L1136.0 738.7 Q1132.45 740.25 1129.5 744.5 1128.35 746.15 1126.55 746.75 1126.5 747.9 1125.85 748.95 L1123.45 748.8 Q1122.1 748.75 1118.85 745.9 L1117.45 748.8 1116.45 748.35 1116.45 747.3 1114.7 747.95 1109.5 749.05 Q1108.6 749.25 1107.35 750.25 1108.2 752.3 1108.75 752.95 1108.75 753.65 1108.35 753.8 1107.85 754.25 1105.1 752.5 L1104.0 755.0 1104.0 755.45 Q1103.9 755.75 1103.15 755.25 L1101.95 753.95 1101.75 754.05 1100.75 754.4 Q1094.2 751.05 1091.65 750.35 L1088.95 749.55 1087.8 748.75 1087.55 748.5 1086.95 749.85 Q1086.75 750.15 1085.25 749.4 1083.8 748.7 1083.9 748.45 1083.3 749.3 1082.55 751.6 1081.7 753.45 1080.05 753.9 L1078.55 751.7 1078.0 751.05 1077.65 751.3 1075.8 752.7 1076.65 754.45 Q1076.5 754.75 1075.55 754.25 L1074.55 753.7 1073.4 754.6 1072.15 757.7 Q1070.6 760.05 1068.2 758.75 1067.3 758.35 1067.05 757.1 L1066.75 755.15 1063.45 753.7 1063.7 753.1 1061.2 751.45 1060.5 751.2 Q1060.1 751.0 1059.3 751.65 1058.4 752.3 1057.65 751.95 1057.0 751.65 1056.75 750.95 1056.55 750.15 1055.9 749.85 1054.65 749.35 1052.1 749.9 L1051.65 750.0 1051.55 750.2 Q1050.8 751.9 1049.8 752.3 L1046.55 753.3 Q1045.75 752.3 1045.6 751.3 L1038.8 751.8 1036.55 753.15 1035.25 751.45 1034.35 751.25 1034.25 751.55 1033.4 753.1 1032.8 753.0 1031.95 750.45 1030.65 749.85 1030.4 749.05 1030.1 748.05 1025.8 744.8 1025.5 744.55 1023.5 743.0 1021.25 741.4 1021.0 741.6 1019.45 742.2 1019.1 742.25 1018.95 742.25 1018.6 742.25 Q1016.0 742.25 1015.35 741.2 L1015.35 741.0 1015.1 741.0 Q1013.85 741.0 1013.3 740.4 L1012.7 741.25 1012.05 740.25 1010.8 740.5 Q1010.0 741.9 1010.05 743.9 1009.1 744.0 1007.6 743.25 L1005.35 741.95 1004.5 743.35 Q1004.3 743.7 1003.2 742.75 1002.35 742.0 1001.85 740.65 L1001.7 740.0 Q998.0 741.05 994.45 744.9 993.05 746.35 991.25 746.7 991.05 747.8 990.25 748.75 L987.9 748.25 Q986.5 748.05 983.75 744.75 L981.9 747.4 981.05 746.85 981.1 745.85 979.35 746.2 973.95 746.6 Q973.1 746.65 971.7 747.4 972.25 749.65 972.7 750.35 972.6 751.0 972.25 751.1 971.6 751.5 969.15 749.4 L967.75 751.75 967.75 752.15 Q967.6 752.4 966.85 751.75 L965.85 750.3 965.6 750.4 964.6 750.6 960.0 747.55 Q957.5 745.95 956.15 745.4 L953.6 744.25 952.6 743.25 952.35 742.95 951.55 744.2 Q951.3 744.4 949.95 743.5 948.6 742.6 948.75 742.35 948.0 743.15 946.95 745.3 945.85 747.05 944.15 747.25 L942.95 744.85 942.5 744.15 942.15 744.35 940.1 745.5 940.75 747.35 Q940.5 747.55 939.6 747.0 L938.75 746.3 Q938.05 746.7 937.45 747.05 L935.8 749.9 Q933.95 752.0 931.75 750.45 930.95 749.85 930.85 748.55 L930.8 746.6 927.7 744.75 928.05 744.15 Q928.0 743.8 925.85 742.2 L925.2 741.8 Q924.85 741.6 923.9 742.1 L922.25 742.2 Q921.65 741.8 921.55 741.1 921.4 740.25 920.8 739.9 919.65 739.2 917.05 739.4 L916.55 739.4 916.45 739.6 Q915.5 741.2 914.45 741.4 L911.05 742.0 Q910.4 740.85 910.4 739.85 L903.6 739.4 Q901.5 740.4 901.2 740.4 L900.15 738.55 899.25 738.2 899.05 738.5 898.1 739.9 897.5 739.75 897.05 737.15 895.8 736.3 Q895.65 736.15 895.65 735.5 L895.5 734.5 891.4 730.4 891.15 730.15 890.45 729.35 Q888.6 729.05 884.25 726.8 880.0 724.6 878.05 722.95 877.2 723.1 876.8 723.75 L876.55 723.65 876.6 723.7 876.8 723.75 Q876.4 724.35 876.4 725.35 L876.55 725.6 Q875.65 725.15 874.95 724.3 L874.15 724.4 872.9 724.2 Q870.3 726.2 868.3 729.85 867.25 731.65 865.5 732.45 865.6 733.55 865.05 734.7 L862.5 734.85 Q861.05 734.95 857.3 732.35 L856.25 735.45 855.15 735.1 854.95 734.05 853.3 734.85 847.95 736.55 Q847.05 736.85 845.9 737.95 847.05 740.0 847.7 740.6 847.75 741.3 847.45 741.45 846.9 742.0 843.8 740.5 L843.0 743.15 843.1 743.6 842.2 743.45 840.7 742.25 840.5 742.4 839.55 742.8 Q832.25 740.2 829.45 739.75 L826.6 739.25 825.25 738.5 824.95 738.25 824.5 739.75 822.7 739.45 Q821.0 738.9 821.1 738.6 820.65 739.55 820.1 741.95 819.45 743.9 817.85 744.5 L816.0 742.45 815.3 741.9 815.05 742.15 813.25 743.8 814.4 745.45 813.15 745.4 812.05 744.9 810.95 745.95 810.05 749.2 Q808.75 751.75 806.15 750.75 805.15 750.35 804.65 749.1 L804.1 747.15 800.5 746.1 800.65 745.45 Q800.5 745.1 797.85 744.05 L797.1 743.8 Q796.65 743.7 795.85 744.45 795.0 745.1 794.15 744.85 793.45 744.65 793.1 743.95 792.8 743.2 792.05 743.0 790.75 742.6 788.05 743.4 L787.65 743.55 787.55 743.8 Q787.05 745.55 786.1 746.05 L782.75 747.45 Q781.75 746.5 781.5 745.5 777.9 746.5 774.45 746.7 L772.3 748.35 770.7 746.7 769.75 746.65 769.65 746.95 769.0 748.55 768.35 748.55 767.15 746.1 765.65 745.6 765.6 745.5 762.3 745.65 Q758.5 745.65 756.15 746.8 753.85 747.9 752.5 747.9 751.1 747.9 750.1 747.3 L750.3 747.85 751.05 749.4 Q751.25 749.9 749.75 749.65 L748.0 748.7 747.0 749.7 Q747.0 751.65 748.2 753.7 747.4 754.35 745.6 754.55 L742.85 754.6 742.85 756.6 741.35 756.75 Q740.15 756.5 739.0 755.4 L738.5 754.85 Q735.7 758.25 734.6 764.35 734.35 765.75 733.75 766.8 L732.7 768.2 Q733.1 769.45 732.9 770.95 L730.5 771.95 Q729.15 772.55 724.8 770.9 L724.65 774.75 723.5 774.7 723.05 773.6 721.65 775.1 717.0 778.8 Q716.25 779.4 715.4 781.05 L717.9 783.45 Q718.15 784.2 717.9 784.55 L714.15 784.65 714.15 787.95 714.35 788.4 713.4 788.55 711.65 787.7 711.5 787.9 710.7 788.75 Q702.95 788.2 700.15 788.65 L697.25 789.0 695.75 788.65 695.4 788.5 695.4 790.3 693.55 790.55 Q691.8 790.5 691.8 790.15 691.6 791.4 691.8 794.25 691.75 796.7 690.35 797.95 L687.95 796.25 687.15 795.8 686.95 796.2 685.7 798.7 687.3 800.2 Q687.2 800.55 686.1 800.5 L684.9 800.35 684.15 801.9 684.2 805.9 Q683.7 809.2 680.85 808.95 679.8 808.85 679.0 807.6 L677.9 805.6 674.1 805.6 674.1 804.8 Q673.85 804.45 671.0 804.15 L670.2 804.15 Q669.75 804.15 669.2 805.25 668.6 806.35 667.7 806.35 666.95 806.35 666.45 805.65 665.9 804.9 665.15 804.9 663.75 804.9 661.45 806.7 L661.05 807.0 661.05 807.3 Q661.05 809.5 660.25 810.4 L657.45 813.1 Q656.25 812.35 655.75 811.3 652.55 813.65 649.3 815.05 L647.7 817.6 645.7 816.35 644.75 816.55 644.75 816.95 644.6 819.0 643.95 819.2 Q643.3 818.05 642.1 816.8 L640.55 816.75 639.95 816.0 639.3 815.05 633.35 813.35 627.45 811.75 629.1 809.5 627.65 809.1 624.75 808.95 624.75 808.75 621.5 808.5 619.8 808.0 Q619.65 807.7 619.9 807.1 L620.25 805.65 619.5 802.95 Q619.1 801.7 619.2 800.75 L617.85 799.05 618.55 798.6 614.75 797.0 613.8 795.8 Q614.15 795.05 615.2 794.2 L615.25 794.25 615.2 794.1 615.1 792.1 615.0 791.5 613.95 791.35 Q611.7 790.65 611.3 789.95 L614.45 789.9 614.1 789.15 Q617.0 789.65 617.25 788.8 615.05 786.0 615.05 784.0 615.05 783.1 615.2 782.95 L615.35 782.7 619.65 783.6 620.3 783.0 620.1 785.0 Q620.1 785.7 620.95 787.9 L621.5 789.4 621.8 790.4 621.5 791.1 620.95 791.9 620.1 793.25 Q620.1 795.05 621.5 797.3 L622.55 798.6 622.55 798.7 624.75 806.15 626.9 803.95 628.1 802.3 632.55 803.45 Q632.55 806.75 632.85 808.2 L634.35 808.3 636.3 808.25 636.3 808.4 Q636.3 810.05 636.6 811.05 640.65 811.55 641.6 812.0 L644.6 812.55 644.75 812.55 Q645.65 812.35 648.45 810.0 L648.85 809.75 Q651.1 808.4 651.9 806.75 L653.4 804.75 660.05 804.45 660.35 803.5 656.15 803.1 653.5 803.1 653.55 802.9 659.9 802.45 660.65 803.0 661.05 803.65 670.85 803.8 671.0 803.75 Q673.35 802.75 675.35 801.5 L678.35 801.95 Q681.9 795.75 683.65 790.95 L686.6 783.7 690.2 783.6 690.25 783.35 700.2 784.0 Q703.95 783.8 704.1 782.25 703.5 780.25 703.5 779.35 L710.25 780.0 710.4 775.95 711.5 775.75 Q714.3 775.3 715.75 773.7 L717.9 769.8 Q720.55 764.7 730.05 765.9 L731.75 758.5 Q732.9 753.5 732.9 750.65 L733.75 750.55 Q737.9 750.05 740.15 748.55 742.25 747.2 742.25 745.35 742.15 741.95 745.0 741.5 L746.25 741.1 Q746.7 742.4 748.15 743.35 L748.0 742.55 Q748.0 741.0 749.1 740.5 751.85 739.2 753.05 738.25 755.6 736.2 757.0 738.1 L758.55 740.5 Q759.2 740.5 759.9 739.95 760.65 739.4 761.25 739.4 764.0 739.4 765.95 741.1 L767.85 742.05 Q768.5 742.6 770.55 743.35 L770.7 743.4 Q771.6 743.5 774.85 742.4 L775.3 742.3 Q777.75 741.85 778.95 740.75 L780.85 739.55 787.3 741.2 787.8 740.5 Q787.7 740.3 786.6 739.9 L786.9 739.9 787.95 739.85 788.2 740.15 788.45 740.85 797.75 743.7 797.95 743.7 802.65 743.15 Q803.5 743.65 805.4 744.35 810.3 740.35 813.1 736.95 L817.7 731.95 821.15 732.85 821.25 732.65 830.6 736.05 Q834.25 736.9 834.8 735.7 834.65 733.9 834.9 733.15 L841.2 735.65 842.3 732.4 843.4 732.55 Q846.2 733.0 848.0 732.1 L851.0 729.55 Q854.75 726.15 863.5 729.8 L866.95 724.35 Q869.25 720.6 869.9 718.25 L872.05 718.65 872.05 718.7 Q874.05 714.8 882.65 718.5 886.75 720.3 890.4 723.0 893.9 725.65 893.9 726.85 893.9 727.9 893.4 728.55 L894.9 728.9 895.65 728.9 895.5 729.15 895.05 730.35 898.7 733.45 900.85 735.3 900.95 735.35 Q901.8 735.65 905.05 735.4 L905.55 735.4 Q907.9 735.55 909.25 734.7 L911.35 734.05 916.85 737.05 917.5 736.55 Q917.4 736.2 914.3 734.2 L912.15 732.9 912.3 732.75 917.6 735.6 918.0 736.35 918.0 737.0 925.9 741.9 926.0 741.9 930.55 742.45 932.75 744.25 Q938.3 741.55 941.8 739.0 L947.3 735.2 950.25 736.95 950.4 736.75 958.2 742.05 Q959.2 742.65 960.0 742.9 961.55 743.45 962.1 742.7 962.45 741.05 962.85 740.4 L968.0 744.15 969.9 741.35 970.85 741.75 Q973.35 742.75 975.15 742.3 975.75 742.2 978.6 740.6 982.95 738.25 990.15 743.75 L994.7 739.3 Q997.8 736.3 999.0 734.25 1002.75 736.15 1005.35 736.3 1005.95 737.0 1007.0 737.0 1008.45 737.0 1009.4 736.15 L1009.0 735.25 Q1009.0 733.55 1010.25 734.0 1012.9 735.0 1013.95 735.0 L1018.25 734.5 Q1021.35 734.5 1022.65 736.2 1023.35 737.05 1023.65 738.15 L1024.65 739.15 1024.95 739.0 1025.5 739.25 1026.85 739.95 1026.75 740.45 1028.0 741.1 1029.7 741.75 1029.65 741.85 1029.05 744.0 Q1032.45 745.85 1033.1 746.6 L1035.5 748.15 1035.65 748.2 1039.7 747.6 1040.15 747.55 Q1042.5 747.35 1043.75 746.4 L1045.7 745.4 1051.6 747.6 1052.15 747.05 1051.45 746.5 1052.4 746.4 1052.6 746.75 1052.75 747.4 1061.25 751.1 1061.35 751.15 1065.9 751.05 Q1066.6 751.65 1068.35 752.5 1073.45 749.05 1076.55 746.0 L1081.45 741.55 1084.65 742.85 1084.75 742.65 1093.2 746.85 1097.15 746.95 Q1097.3 745.15 1097.55 744.45 L1103.2 747.45 1104.7 744.4 1105.7 744.7 Q1108.3 745.35 1110.05 744.7 L1113.2 742.5 Q1117.15 739.6 1125.0 744.0 L1128.95 739.0 1131.25 735.7 Q1131.05 735.85 1131.05 734.6 1131.05 734.2 1131.7 733.45 L1132.75 732.3 Q1134.7 730.4 1136.25 730.4 1138.75 730.4 1144.25 733.4 1149.75 736.35 1152.05 736.35 1153.2 736.35 1154.65 733.65 1156.05 731.1 1156.05 729.75 L1156.65 729.55 1158.0 729.3 Q1159.15 729.3 1160.1 729.95 L1161.5 731.0 1165.0 729.3 Q1167.05 728.55 1170.6 728.55 L1171.3 728.55 Q1175.8 728.65 1176.8 729.8 1177.9 731.0 1178.7 731.0 1180.7 731.0 1185.15 731.95 1189.6 732.9 1194.95 732.9 1195.7 732.9 1196.3 733.45 1196.85 734.0 1197.6 734.0 1198.35 734.0 1199.1 733.45 1199.85 732.9 1200.6 732.9 1202.8 732.9 1204.95 736.0 1207.05 739.05 1211.4 739.05 1213.15 739.05 1217.4 737.2 1221.6 735.3 1227.6 735.3 L1230.65 734.95 1235.7 734.6 1239.1 734.3 1239.45 733.05 1242.9 732.6 1242.9 730.7 1243.7 730.4 Q1244.5 730.45 1245.35 731.05 1246.2 731.55 1246.95 731.55 1249.95 731.55 1250.05 730.35 1250.2 729.15 1251.2 729.15 1253.2 729.15 1254.4 731.2 1255.65 733.2 1256.55 733.2 1257.3 733.2 1258.3 732.45 1259.25 731.7 1260.0 731.7 1261.15 731.7 1263.65 733.15 L1263.6 734.6 Q1263.6 736.1 1263.9 735.6 L1264.95 735.75 1266.0 734.6 M627.7 768.7 Q628.45 767.6 629.95 766.6 634.45 763.55 635.1 762.15 L639.45 762.05 Q639.9 760.8 642.15 759.1 L644.75 757.45 Q645.85 756.8 646.95 756.3 646.95 753.7 648.4 752.05 L651.45 748.5 Q654.85 743.15 657.75 741.0 L661.2 744.6 661.35 742.45 665.95 742.75 Q666.6 742.65 667.0 741.8 667.7 740.2 671.0 738.95 L675.75 738.0 Q676.35 733.85 676.35 731.1 L683.85 731.35 Q684.3 729.65 686.45 727.6 L689.75 724.15 694.05 723.85 Q696.4 724.1 696.6 727.8 697.65 726.7 697.15 725.15 697.75 724.2 705.75 724.6 705.75 723.9 706.5 723.7 L712.7 724.1 Q713.2 723.7 713.15 722.0 713.1 720.65 714.6 720.35 L719.6 721.0 721.5 719.1 722.3 719.45 722.6 719.6 Q723.25 719.85 723.5 720.15 L722.85 720.8 727.05 721.3 726.3 721.85 726.05 722.2 724.65 721.65 723.65 721.95 Q723.4 722.15 723.3 722.55 L722.55 722.5 Q721.35 722.05 720.25 722.5 719.85 722.65 719.6 722.9 L719.7 722.9 718.75 723.2 Q718.0 723.45 715.5 724.85 714.35 725.45 711.8 725.5 709.65 725.55 708.5 726.7 707.45 727.75 707.1 728.7 701.9 730.0 694.8 729.35 L692.5 728.6 Q690.95 727.85 690.2 727.8 688.6 727.65 685.45 730.9 682.1 734.4 680.7 738.3 680.2 739.7 673.35 743.4 L671.0 744.85 Q667.5 747.5 668.25 748.8 L661.75 749.6 654.0 749.2 Q652.55 750.4 652.55 752.2 652.55 753.7 653.85 755.25 L653.25 756.15 Q648.45 758.35 645.25 762.75 L644.75 763.4 Q641.45 767.1 635.1 768.4 635.1 769.15 630.2 769.0 629.15 769.55 628.1 771.8 L627.75 772.05 627.35 771.85 627.0 771.65 Q626.6 770.15 627.7 768.7 M621.15 781.2 L621.0 781.4 621.0 781.2 621.15 781.2 M727.9 722.75 L728.0 723.05 727.75 722.95 727.75 722.9 727.9 722.75 M656.45 781.0 L655.85 781.8 655.65 781.7 656.35 781.05 656.45 781.0 M685.2 772.1 L684.95 773.35 683.85 774.15 685.2 772.1 M692.95 788.2 L693.5 789.1 693.45 788.55 693.4 788.4 692.95 788.2 M789.5 721.15 L788.7 721.65 788.5 721.5 789.4 721.2 789.5 721.15 M782.65 738.65 L781.35 738.25 781.45 738.1 782.35 738.3 782.65 738.65 M763.35 738.75 L763.3 738.9 763.1 738.9 763.35 738.75 M741.1 754.5 L740.8 754.5 740.85 754.55 741.1 754.5 M804.95 742.5 L804.9 742.5 805.1 742.45 804.95 742.5 M866.85 692.6 L866.8 692.6 Q866.35 692.25 865.85 692.1 L866.3 693.35 866.75 692.8 866.85 692.6 M868.05 692.45 L869.35 694.8 Q871.0 697.1 873.2 697.1 882.1 697.1 884.8 696.1 885.65 695.75 886.5 695.5 L884.95 694.55 Q881.95 693.0 878.45 693.6 L877.6 693.8 Q876.7 694.0 875.9 694.35 874.95 694.8 874.15 695.45 L873.65 695.9 869.0 692.45 868.05 692.45 M819.1 722.15 L818.55 723.05 817.35 723.4 819.1 722.15 M823.05 737.65 L822.65 737.4 823.0 738.25 823.1 737.75 823.05 737.65 M949.2 727.1 L951.15 726.3 950.4 727.0 949.2 727.1 M932.75 742.4 L932.9 742.4 932.8 742.45 932.75 742.4 M950.55 742.45 L950.7 742.0 950.8 741.9 950.45 741.55 950.55 742.45 M916.35 704.0 L917.4 704.1 917.3 703.3 916.0 704.0 916.35 704.0 M912.2 699.15 Q911.9 699.65 908.0 697.15 906.9 697.05 905.1 698.15 L904.0 698.85 Q901.95 700.2 901.35 701.05 906.35 703.35 910.05 703.35 913.95 703.35 917.4 701.7 L917.9 701.85 919.45 700.6 Q916.2 700.65 912.2 699.15 M894.4 723.5 L894.75 723.4 894.6 723.7 894.4 723.5 M892.15 707.5 L892.15 707.7 891.4 707.5 892.15 707.25 892.2 707.25 892.15 707.5 M924.05 718.6 L923.25 718.85 923.1 718.7 923.95 718.55 924.05 718.6 M1020.4 729.8 L1020.85 730.0 1020.8 730.55 1020.45 730.4 1020.4 729.8 M1003.95 741.0 L1003.7 740.85 1003.75 740.95 1003.95 741.0 M1123.7 705.55 L1123.6 705.4 1123.4 705.45 1123.65 705.55 1123.7 705.55 M1056.15 728.35 L1055.35 728.7 1055.2 728.6 1056.05 728.35 1056.15 728.35 M1083.45 733.0 L1082.2 733.25 1084.05 732.15 1083.45 733.0 M1085.8 747.85 L1085.8 747.65 1085.55 747.35 1085.7 748.25 1085.8 747.85 M1176.0 741.55 L1177.15 741.25 1176.05 741.3 1176.0 741.55 M1189.9 740.1 L1190.15 740.1 1190.6 739.65 1190.55 739.65 1189.9 740.1 M1227.2 742.45 L1227.35 742.4 Q1228.1 742.4 1229.3 743.15 1230.45 743.85 1231.2 743.85 L1232.4 743.2 Q1230.5 742.6 1229.45 741.7 L1227.5 740.1 Q1226.1 739.35 1223.4 739.35 1222.65 739.35 1221.2 740.25 1219.7 741.15 1214.45 741.15 L1212.45 742.25 1217.9 742.8 1219.2 743.15 1225.1 744.0 Q1225.95 744.0 1226.3 743.2 1226.65 742.5 1227.2 742.45 M1159.25 703.8 L1159.5 703.7 1159.75 703.45 1159.65 703.45 1159.25 703.8 M1149.05 704.7 L1149.6 704.6 1148.7 704.6 1149.05 704.7 M1163.95 734.65 L1163.8 734.7 1165.75 735.4 Q1165.1 734.9 1164.3 734.75 L1163.95 734.65 M1155.35 740.6 L1155.05 741.25 1155.65 740.1 1155.35 740.6 M1171.3 742.05 L1171.95 742.1 1172.7 742.1 1172.3 741.95 1171.8 741.95 1171.3 741.9 1170.6 741.8 1171.3 742.05 M1281.05 705.2 L1281.1 705.2 1280.6 706.0 1279.05 705.85 1281.05 705.2 M1268.7 701.0 L1270.25 701.2 1268.45 701.1 1268.7 701.0 M1260.05 703.6 L1261.1 703.15 1261.2 703.5 1262.0 704.15 1261.2 704.45 Q1260.5 704.35 1260.15 703.8 L1260.05 703.6 M1264.55 704.75 L1266.15 704.7 1265.55 705.05 1264.55 704.75 M1258.4 738.35 L1258.1 739.05 1258.2 739.05 Q1259.0 739.05 1259.2 738.6 L1258.4 738.35 M619.8 797.7 L617.9 796.85 619.35 798.05 619.8 797.7 M626.05 801.95 L625.55 802.8 625.2 802.6 625.05 802.35 626.05 801.95 M624.25 806.85 L623.3 805.4 623.55 806.8 624.25 806.85 M677.5 799.9 L677.4 800.05 677.35 800.05 677.5 799.9" fill="#656c41" fill-rule="evenodd" stroke="none"/>
    <path d="M1320.15 684.25 Q1322.8 683.95 1325.7 686.0 L1325.45 687.85 Q1324.8 689.3 1322.7 689.3 1321.95 689.3 1321.3 688.7 1320.6 688.05 1319.85 688.05 1318.2 688.05 1317.65 690.3 1317.1 692.75 1315.55 693.2 L1311.95 693.5 1312.5 693.85 1312.65 694.95 1311.95 695.7 1308.2 698.25 1308.65 698.65 1308.9 699.8 1308.75 701.55 Q1308.6 701.55 1308.1 702.0 L1306.7 702.45 Q1305.15 702.45 1304.45 701.1 1303.6 699.6 1303.05 699.45 1301.9 700.05 1302.05 702.1 1302.15 703.9 1299.95 704.45 L1298.85 704.25 Q1297.25 705.0 1295.6 704.8 L1292.7 704.5 1292.6 704.5 1291.9 704.8 1291.3 705.05 1291.35 705.9 1291.35 706.2 Q1291.2 707.05 1290.5 707.85 1289.6 708.85 1289.45 712.95 L1289.3 716.25 Q1288.7 718.1 1285.95 719.9 1280.25 723.6 1270.95 727.0 1268.6 727.9 1267.85 728.85 1266.95 730.05 1266.95 732.75 1266.95 733.45 1266.0 734.6 L1264.95 735.75 1263.9 735.6 Q1263.6 736.1 1263.6 734.6 L1263.65 733.15 Q1261.15 731.7 1260.0 731.7 1259.25 731.7 1258.3 732.45 1257.3 733.2 1256.55 733.2 1255.65 733.2 1254.4 731.2 1253.2 729.15 1251.2 729.15 1250.2 729.15 1250.05 730.35 1249.95 731.55 1246.95 731.55 1246.2 731.55 1245.35 731.05 1244.5 730.45 1243.7 730.4 L1242.9 730.7 1242.9 732.6 1239.45 733.05 1239.1 734.3 1235.7 734.6 1230.65 734.95 1227.6 735.3 Q1221.6 735.3 1217.4 737.2 1213.15 739.05 1211.4 739.05 1207.05 739.05 1204.95 736.0 1202.8 732.9 1200.6 732.9 1199.85 732.9 1199.1 733.45 1198.35 734.0 1197.6 734.0 1196.85 734.0 1196.3 733.45 1195.7 732.9 1194.95 732.9 1189.6 732.9 1185.15 731.95 1180.7 731.0 1178.7 731.0 1177.9 731.0 1176.8 729.8 1175.8 728.65 1171.3 728.55 L1170.6 728.55 Q1167.05 728.55 1165.0 729.3 L1161.5 731.0 1160.1 729.95 Q1159.15 729.3 1158.0 729.3 L1156.65 729.55 1156.05 729.75 Q1156.05 731.1 1154.65 733.65 1153.2 736.35 1152.05 736.35 1149.75 736.35 1144.25 733.4 1138.75 730.4 1136.25 730.4 1134.7 730.4 1132.75 732.3 L1131.7 733.45 Q1131.05 734.2 1131.05 734.6 1131.05 735.85 1131.25 735.7 L1128.95 739.0 1125.0 744.0 Q1117.15 739.6 1113.2 742.5 L1110.05 744.7 Q1108.3 745.35 1105.7 744.7 L1104.7 744.4 1103.2 747.45 1097.55 744.45 Q1097.3 745.15 1097.15 746.95 L1093.2 746.85 1084.75 742.65 1084.65 742.85 1081.45 741.55 1076.55 746.0 Q1073.45 749.05 1068.35 752.5 1066.6 751.65 1065.9 751.05 L1061.35 751.15 1061.25 751.1 1052.75 747.4 1052.6 746.75 1052.4 746.4 1051.45 746.5 1052.15 747.05 1051.6 747.6 1045.7 745.4 1043.75 746.4 Q1042.5 747.35 1040.15 747.55 L1039.7 747.6 1035.65 748.2 1035.5 748.15 1033.1 746.6 Q1032.45 745.85 1029.05 744.0 L1029.65 741.85 1029.7 741.75 1028.0 741.1 1026.75 740.45 1026.85 739.95 1025.5 739.25 1024.95 739.0 1024.65 739.15 1023.65 738.15 Q1023.35 737.05 1022.65 736.2 1021.35 734.5 1018.25 734.5 L1013.95 735.0 Q1012.9 735.0 1010.25 734.0 1009.0 733.55 1009.0 735.25 L1009.4 736.15 Q1008.45 737.0 1007.0 737.0 1005.95 737.0 1005.35 736.3 1002.75 736.15 999.0 734.25 997.8 736.3 994.7 739.3 L990.15 743.75 Q982.95 738.25 978.6 740.6 975.75 742.2 975.15 742.3 973.35 742.75 970.85 741.75 L969.9 741.35 968.0 744.15 962.85 740.4 Q962.45 741.05 962.1 742.7 961.55 743.45 960.0 742.9 959.2 742.65 958.2 742.05 L950.4 736.75 950.25 736.95 947.3 735.2 941.8 739.0 Q938.3 741.55 932.75 744.25 L930.55 742.45 926.0 741.9 925.9 741.9 918.0 737.0 918.0 736.35 917.6 735.6 912.3 732.75 912.15 732.9 914.3 734.2 Q917.4 736.2 917.5 736.55 L916.85 737.05 911.35 734.05 909.25 734.7 Q907.9 735.55 905.55 735.4 L905.05 735.4 Q901.8 735.65 900.95 735.35 L900.85 735.3 898.7 733.45 895.05 730.35 895.5 729.15 895.65 728.9 894.9 728.9 893.4 728.55 Q893.9 727.9 893.9 726.85 893.9 725.65 890.4 723.0 886.75 720.3 882.65 718.5 874.05 714.8 872.05 718.7 L872.05 718.65 869.9 718.25 Q869.25 720.6 866.95 724.35 L863.5 729.8 Q854.75 726.15 851.0 729.55 L848.0 732.1 Q846.2 733.0 843.4 732.55 L842.3 732.4 841.2 735.65 834.9 733.15 Q834.65 733.9 834.8 735.7 834.25 736.9 830.6 736.05 L821.25 732.65 821.15 732.85 817.7 731.95 813.1 736.95 Q810.3 740.35 805.4 744.35 803.5 743.65 802.65 743.15 L797.95 743.7 797.75 743.7 788.45 740.85 788.2 740.15 787.95 739.85 786.9 739.9 786.6 739.9 Q787.7 740.3 787.8 740.5 L787.3 741.2 780.85 739.55 778.95 740.75 Q777.75 741.85 775.3 742.3 L774.85 742.4 Q771.6 743.5 770.7 743.4 L770.55 743.35 Q768.5 742.6 767.85 742.05 L765.95 741.1 Q764.0 739.4 761.25 739.4 760.65 739.4 759.9 739.95 759.2 740.5 758.55 740.5 L757.0 738.1 Q755.6 736.2 753.05 738.25 751.85 739.2 749.1 740.5 748.0 741.0 748.0 742.55 L748.15 743.35 Q746.7 742.4 746.25 741.1 L745.0 741.5 Q742.15 741.95 742.25 745.35 742.25 747.2 740.15 748.55 737.9 750.05 733.75 750.55 L732.9 750.65 Q732.9 753.5 731.75 758.5 L730.05 765.9 Q720.55 764.7 717.9 769.8 L715.75 773.7 Q714.3 775.3 711.5 775.75 L710.4 775.95 710.25 780.0 703.5 779.35 Q703.5 780.25 704.1 782.25 703.95 783.8 700.2 784.0 L690.25 783.35 690.2 783.6 686.6 783.7 683.65 790.95 Q681.9 795.75 678.35 801.95 L675.35 801.5 Q673.35 802.75 671.0 803.75 L670.85 803.8 661.05 803.65 660.65 803.0 659.9 802.45 653.55 802.9 653.5 803.1 656.15 803.1 660.35 803.5 660.05 804.45 653.4 804.75 651.9 806.75 Q651.1 808.4 648.85 809.75 L648.45 810.0 Q645.65 812.35 644.75 812.55 L644.6 812.55 641.6 812.0 Q640.65 811.55 636.6 811.05 636.3 810.05 636.3 808.4 L636.3 808.25 634.35 808.3 632.85 808.2 Q632.55 806.75 632.55 803.45 L628.1 802.3 626.9 803.95 624.75 806.15 622.55 798.7 622.55 798.6 621.5 797.3 Q620.1 795.05 620.1 793.25 L620.95 791.9 621.5 791.1 621.8 790.4 621.5 789.4 620.95 787.9 Q620.1 785.7 620.1 785.0 L620.3 783.0 Q620.5 781.95 621.0 781.4 L621.15 781.2 621.5 780.95 Q624.0 779.6 626.3 777.6 L626.3 777.3 Q626.3 776.15 627.5 773.15 L628.1 771.8 Q629.15 769.55 630.2 769.0 635.1 769.15 635.1 768.4 641.45 767.1 644.75 763.4 L645.25 762.75 Q648.45 758.35 653.25 756.15 L653.85 755.25 Q652.55 753.7 652.55 752.2 652.55 750.4 654.0 749.2 L661.75 749.6 668.25 748.8 Q667.5 747.5 671.0 744.85 L673.35 743.4 Q680.2 739.7 680.7 738.3 682.1 734.4 685.45 730.9 688.6 727.65 690.2 727.8 690.95 727.85 692.5 728.6 L694.8 729.35 Q701.9 730.0 707.1 728.7 707.45 727.75 708.5 726.7 709.65 725.55 711.8 725.5 714.35 725.45 715.5 724.85 718.0 723.45 718.75 723.2 L719.7 722.9 719.6 722.9 Q719.85 722.65 720.25 722.5 721.35 722.05 722.55 722.5 L723.3 722.55 Q723.4 722.15 723.65 721.95 L724.65 721.65 726.05 722.2 726.3 721.85 727.05 721.3 Q727.55 721.0 728.2 720.65 L729.0 720.25 730.65 720.3 732.05 720.0 733.75 719.75 738.5 719.55 739.25 719.55 740.4 719.6 741.75 719.65 743.55 716.9 Q743.45 714.3 743.6 713.9 744.3 711.8 749.75 710.85 L750.9 710.7 Q751.8 710.15 754.55 710.15 L758.5 710.0 758.9 709.65 Q762.15 706.35 762.5 706.25 L763.15 706.35 763.7 706.55 764.55 705.7 Q766.1 704.15 767.2 704.0 771.9 705.5 772.05 704.9 778.5 705.65 782.5 703.6 L783.1 703.2 Q787.3 700.55 792.4 700.15 L793.15 699.6 Q792.3 697.95 792.65 696.75 793.1 695.25 794.75 694.75 L802.1 697.2 808.5 698.4 Q808.1 697.15 812.05 696.05 L814.65 695.5 Q822.1 694.45 822.95 693.45 825.25 690.7 829.25 688.85 833.05 687.1 834.55 687.65 835.25 687.9 836.55 688.95 L838.6 690.2 Q845.25 692.75 850.5 693.2 851.05 692.55 852.35 692.0 853.7 691.35 855.75 691.95 L859.45 692.5 861.0 692.25 861.0 693.35 863.15 696.15 Q864.45 697.95 865.95 698.95 870.4 702.0 881.85 702.0 888.4 702.0 895.0 705.05 L897.35 706.15 897.3 707.1 Q897.3 708.6 897.6 708.05 L904.85 710.4 909.4 711.55 912.1 711.95 912.45 711.95 912.7 711.95 913.05 711.95 916.6 711.5 921.05 709.95 Q925.1 708.1 925.1 706.8 L925.1 706.75 926.4 705.6 923.4 702.75 Q925.2 702.15 925.6 701.35 L926.4 699.65 926.3 699.25 Q929.15 698.8 932.2 699.3 L933.1 698.9 Q932.7 697.2 933.35 696.1 934.1 694.85 935.8 694.7 L941.9 698.75 947.5 701.35 Q947.45 700.05 951.4 699.85 L953.95 700.0 960.0 700.35 962.1 699.95 Q964.9 697.8 969.15 696.95 L974.3 697.1 975.8 698.75 977.35 700.45 Q982.8 704.35 987.6 706.0 988.3 705.45 989.6 705.2 991.0 705.0 992.75 706.0 994.9 707.2 996.05 707.35 L999.4 707.75 1000.3 708.0 1000.2 707.95 1000.9 707.95 Q1002.0 708.2 1002.75 709.1 L1003.35 709.5 1003.9 709.25 1004.8 709.5 1005.9 710.85 Q1006.45 711.0 1007.25 711.5 L1010.65 713.65 1011.35 714.05 1013.1 714.85 1016.45 715.5 Q1016.85 715.5 1017.9 714.25 1018.95 713.0 1020.35 713.0 1021.45 713.0 1022.85 714.1 L1025.0 715.6 1025.2 715.5 1025.4 715.4 1025.8 715.35 1031.05 714.55 1031.15 714.3 Q1031.5 713.4 1033.55 711.55 L1034.55 710.75 Q1036.2 709.4 1037.25 709.4 1041.45 711.3 1041.7 710.75 1047.7 712.1 1051.75 710.5 L1052.4 710.2 Q1056.6 707.95 1061.5 708.1 L1062.3 707.6 Q1061.7 705.95 1062.2 704.8 1062.8 703.4 1064.45 703.0 L1071.0 706.2 1076.9 708.0 Q1076.7 706.7 1080.6 705.95 L1083.15 705.75 Q1090.3 705.45 1091.2 704.55 1093.7 702.1 1097.7 700.65 1101.55 699.3 1102.9 700.05 L1104.6 701.5 Q1105.75 702.6 1106.4 702.95 1112.3 706.05 1117.25 707.0 L1117.35 706.9 Q1117.4 707.6 1117.75 707.6 L1118.1 707.4 1121.55 706.0 1122.4 706.3 Q1124.6 707.2 1125.8 707.15 L1129.2 707.05 1129.35 707.1 1129.4 706.65 1135.6 706.05 1141.1 705.55 1141.35 705.6 1143.75 705.75 1145.8 705.5 1149.7 706.45 1154.3 707.55 1155.9 706.95 1156.2 706.95 Q1157.1 706.95 1159.5 705.6 L1162.35 704.6 Q1162.45 704.6 1164.2 705.7 1166.3 706.8 1167.95 706.8 1168.7 706.8 1169.75 706.15 1170.6 705.55 1171.3 705.45 L1171.5 705.45 Q1172.95 705.45 1173.75 706.2 1174.55 706.95 1179.95 706.95 1184.9 706.95 1185.1 704.3 1185.1 702.85 1185.25 702.15 1185.55 701.0 1186.95 700.55 1189.5 701.4 1190.15 702.65 L1190.7 704.3 Q1192.0 704.1 1192.35 703.15 1192.7 702.25 1194.8 702.15 L1197.0 704.3 Q1197.85 704.15 1198.95 703.2 1199.9 702.3 1200.9 702.3 L1201.9 702.55 1202.15 702.75 Q1202.4 705.25 1202.6 705.6 1203.9 705.3 1204.25 704.45 1204.7 703.45 1205.4 703.05 L1206.35 703.8 Q1207.05 704.3 1207.95 704.3 1210.8 704.3 1211.7 702.05 1212.3 699.35 1212.75 698.4 1213.8 698.85 1214.95 699.85 L1216.35 701.15 1217.9 701.3 1220.55 701.4 Q1225.75 701.4 1228.6 702.6 1231.5 703.8 1232.45 703.8 1233.6 703.8 1234.05 704.35 L1234.5 704.9 Q1239.8 704.9 1244.0 700.7 L1245.25 702.3 Q1246.1 703.2 1247.45 703.2 1248.2 703.2 1248.95 702.45 L1251.05 700.85 1251.05 701.4 1251.2 702.2 Q1251.35 702.7 1252.5 703.8 L1254.7 703.3 1255.55 703.2 1255.75 703.15 1256.7 703.05 1256.7 702.75 Q1259.55 701.7 1264.05 700.8 1268.25 699.95 1268.25 699.45 1268.25 698.65 1267.85 698.35 L1268.55 698.4 1271.65 698.8 1273.85 699.0 1273.95 698.4 1274.45 698.0 1275.9 696.95 1276.65 695.6 1277.4 695.0 1278.75 695.7 Q1282.55 694.45 1285.0 694.85 L1289.0 695.55 1289.5 694.8 1293.05 695.1 1294.05 694.3 1294.5 693.35 1298.7 693.9 1299.45 693.05 Q1299.15 691.2 1299.35 689.35 1299.5 687.5 1300.1 686.55 L1302.15 687.75 1302.45 687.9 Q1303.45 688.85 1304.3 688.85 L1304.85 688.65 Q1305.9 688.65 1307.0 687.75 L1307.05 687.75 1307.15 687.8 1307.15 687.65 1307.9 686.85 1309.55 687.7 1309.5 687.75 1309.65 687.75 1309.85 687.85 Q1311.65 688.85 1314.3 688.85 1315.3 688.85 1317.15 687.45 1319.15 686.0 1320.45 685.85 1320.65 686.5 1321.65 687.6 1322.85 688.85 1323.75 688.85 L1324.5 688.05 1324.0 686.85 Q1325.4 686.85 1325.1 686.4 L1324.95 685.85 Q1323.0 684.3 1320.25 684.25 L1320.15 684.25 M727.9 722.75 L727.75 722.9 727.75 722.95 728.0 723.05 727.9 722.75 M685.2 772.1 L683.85 774.15 684.95 773.35 685.2 772.1 M656.45 781.0 L656.35 781.05 655.65 781.7 655.85 781.8 656.45 781.0 M789.5 721.15 L789.4 721.2 788.5 721.5 788.7 721.65 789.5 721.15 M782.65 738.65 L782.35 738.3 781.45 738.1 781.35 738.25 782.65 738.65 M746.0 739.6 Q745.9 740.05 746.1 740.5 L746.05 740.3 746.1 739.55 746.0 739.6 M763.35 738.75 L763.1 738.9 763.3 738.9 763.35 738.75 M804.95 742.5 L805.1 742.45 804.9 742.5 804.95 742.5 M819.1 722.15 L817.35 723.4 818.55 723.05 819.1 722.15 M868.05 692.45 L869.0 692.45 873.65 695.9 874.15 695.45 Q874.95 694.8 875.9 694.35 876.7 694.0 877.6 693.8 L878.45 693.6 Q881.95 693.0 884.95 694.55 L886.5 695.5 Q885.65 695.75 884.8 696.1 882.1 697.1 873.2 697.1 871.0 697.1 869.35 694.8 L868.05 692.45 M866.85 692.6 L866.75 692.8 866.3 693.35 865.85 692.1 Q866.35 692.25 866.8 692.6 L866.85 692.6 M949.2 727.1 L950.4 727.0 951.15 726.3 949.2 727.1 M932.75 742.4 L932.8 742.45 932.9 742.4 932.75 742.4 M912.2 699.15 Q916.2 700.65 919.45 700.6 L917.9 701.85 917.4 701.7 Q913.95 703.35 910.05 703.35 906.35 703.35 901.35 701.05 901.95 700.2 904.0 698.85 L905.1 698.15 Q906.9 697.05 908.0 697.15 911.9 699.65 912.2 699.15 M916.35 704.0 L916.0 704.0 917.3 703.3 917.4 704.1 916.35 704.0 M892.15 707.5 L892.2 707.25 892.15 707.25 891.4 707.5 892.15 707.7 892.15 707.5 M894.4 723.5 L894.6 723.7 894.75 723.4 894.4 723.5 M924.05 718.6 L923.95 718.55 923.1 718.7 923.25 718.85 924.05 718.6 M1020.4 729.8 L1020.45 730.4 1020.8 730.55 1020.85 730.0 1020.4 729.8 M1083.45 733.0 L1084.05 732.15 1082.2 733.25 1083.45 733.0 M1056.15 728.35 L1056.05 728.35 1055.2 728.6 1055.35 728.7 1056.15 728.35 M1281.05 705.2 L1279.05 705.85 1280.6 706.0 1281.1 705.2 1281.05 705.2 M1264.55 704.75 L1265.55 705.05 1266.15 704.7 1264.55 704.75 M1260.05 703.6 L1260.15 703.8 Q1260.5 704.35 1261.2 704.45 L1262.0 704.15 1261.2 703.5 1261.1 703.15 1260.05 703.6 M1268.7 701.0 L1268.45 701.1 1270.25 701.2 1268.7 701.0 M626.05 801.95 L625.05 802.35 625.2 802.6 625.55 802.8 626.05 801.95 M677.5 799.9 L677.35 800.05 677.4 800.05 677.5 799.9" fill="#707746" fill-rule="evenodd" stroke="none"/>
    <path d="M1273.6 743.8 Q1274.8 742.4 1275.9 742.4 L1276.3 743.25 1276.35 744.8 1276.35 747.3 Q1276.05 747.7 1272.3 749.3 1269.35 750.6 1267.6 752.6 1266.65 753.65 1263.3 753.65 L1262.0 753.5 1261.75 753.95 1261.2 753.3 1261.05 753.1 1260.45 752.75 1260.45 752.45 Q1258.5 750.3 1256.6 750.3 L1255.4 750.45 1255.25 750.3 1253.5 753.8 1250.7 754.05 1247.0 756.7 1243.25 759.3 Q1242.1 759.3 1241.4 758.5 L1240.7 757.55 1238.1 760.7 Q1234.75 760.7 1234.0 759.2 L1233.6 756.8 1233.8 756.55 1234.65 756.15 1235.65 757.25 Q1236.35 758.15 1236.35 759.0 1237.9 758.95 1239.2 757.1 L1239.75 756.3 1240.3 755.7 1240.85 755.1 1241.95 756.15 1242.6 757.25 Q1244.2 756.6 1244.9 755.3 L1245.6 754.35 1245.7 753.1 1246.1 753.05 1246.7 753.15 1246.8 753.2 1246.85 753.15 1247.6 753.55 Q1248.3 754.15 1248.9 754.2 1248.7 753.6 1248.65 752.55 L1250.35 751.9 1251.5 752.1 1252.65 750.55 Q1254.7 749.15 1255.05 747.8 1256.6 746.95 1256.9 747.3 L1257.65 748.05 Q1258.5 748.05 1259.55 748.75 L1260.7 749.95 1261.2 750.45 1262.3 751.4 1262.9 751.9 1263.2 752.1 1267.25 749.2 1267.3 749.2 1268.75 748.4 Q1272.55 746.35 1273.55 745.45 L1274.85 745.7 1274.3 744.8 1273.75 744.1 1273.6 743.8 M1192.6 751.1 Q1193.65 751.7 1194.4 751.75 1195.15 752.05 1197.0 754.2 1196.7 755.1 1196.25 755.1 L1193.7 755.1 1188.2 754.6 Q1188.05 752.95 1186.5 750.75 1185.75 750.75 1185.75 752.55 1185.75 753.05 1184.25 753.05 1183.05 753.05 1181.85 751.9 1180.9 750.95 1180.4 749.75 1178.15 750.55 1176.95 753.25 1175.9 755.55 1173.9 755.55 1172.7 755.55 1171.3 754.55 L1168.85 752.15 Q1167.6 751.65 1166.9 750.0 L1166.85 749.85 Q1164.65 747.75 1162.65 747.75 L1160.7 749.25 1160.6 750.45 Q1159.85 752.1 1156.75 752.5 L1155.0 753.8 Q1154.3 753.8 1149.3 751.05 L1145.55 749.0 1145.5 749.0 1145.25 749.0 1143.75 748.7 1141.95 748.65 1141.15 747.85 1140.8 747.7 1138.85 747.05 1138.75 747.55 1137.15 746.75 Q1137.85 749.4 1137.5 750.25 1136.95 751.5 1134.55 752.7 1131.1 754.45 1130.6 754.8 L1127.75 753.5 1126.7 756.0 Q1119.75 753.3 1116.9 755.9 1116.1 756.65 1114.95 758.5 1113.9 760.3 1113.05 760.95 L1113.05 761.15 1112.2 760.8 Q1111.45 760.3 1111.5 759.95 L1111.7 759.15 Q1110.65 759.85 1107.6 763.8 1104.6 767.15 1102.5 765.75 1101.95 765.4 1101.6 762.85 1101.2 760.25 1100.45 759.75 1100.0 759.5 1099.45 759.4 L1097.25 759.35 1095.4 759.7 Q1093.45 758.7 1093.05 758.25 L1092.75 756.9 1089.0 756.7 1085.35 756.55 Q1084.4 757.4 1083.5 761.0 1082.05 763.45 1077.15 760.7 1076.1 762.15 1075.15 765.65 1073.85 768.5 1070.35 768.9 1069.7 767.45 1069.8 766.75 L1070.15 765.55 Q1069.85 765.4 1069.5 764.5 1067.8 764.8 1066.05 765.4 1065.55 764.05 1065.65 763.7 L1065.8 762.6 1064.0 760.85 1061.6 759.1 Q1059.65 758.05 1058.4 758.05 1057.5 758.1 1056.9 758.65 L1056.05 759.85 1054.85 760.8 1050.7 759.45 Q1049.45 761.95 1047.45 761.3 L1043.5 759.35 1040.15 758.2 1034.25 758.45 1031.2 758.6 1028.6 758.55 Q1027.35 757.85 1025.85 755.1 L1024.7 752.4 1022.5 750.95 1021.0 751.35 1017.25 748.6 Q1016.2 750.3 1013.7 751.45 1011.25 752.65 1008.65 752.85 L1006.95 751.5 Q1005.15 750.2 1004.7 750.15 L1001.75 748.15 Q1002.05 750.9 1001.55 751.7 1000.85 752.85 998.35 753.7 994.65 754.95 994.15 755.25 L991.45 753.55 990.05 755.9 Q983.5 752.25 980.4 754.4 979.55 754.95 978.1 756.7 L975.85 758.85 975.85 759.1 975.05 758.6 Q974.35 758.0 974.55 757.6 L974.75 756.9 Q973.65 757.4 970.1 760.95 966.65 763.75 964.75 762.15 964.2 761.75 964.25 759.15 964.2 756.5 963.55 755.9 L962.6 755.4 960.45 755.05 960.0 755.1 958.55 755.2 Q956.75 753.9 956.45 753.35 L956.3 752.0 952.65 751.25 949.0 750.6 Q947.95 751.3 946.6 754.75 944.8 757.0 940.35 753.6 939.05 754.9 937.65 758.2 936.0 760.9 932.45 760.8 932.0 759.25 932.2 758.6 L932.75 757.4 Q932.45 757.25 932.2 756.25 L928.65 756.65 928.45 754.9 928.85 753.85 927.25 751.95 925.2 749.85 Q923.35 748.55 922.15 748.35 921.2 748.25 920.6 748.7 L919.55 749.8 918.25 750.6 914.35 748.7 Q912.7 750.95 910.8 750.05 L907.2 747.55 904.0 745.95 898.15 745.35 895.1 745.05 892.5 744.65 Q891.35 743.8 890.35 740.8 L889.55 738.05 887.55 736.25 885.5 734.4 885.2 734.15 884.9 734.25 882.8 733.35 Q880.6 732.5 880.1 732.6 L876.55 731.35 Q877.65 733.95 877.35 734.85 877.0 736.15 874.65 737.6 871.3 739.7 870.8 740.15 L867.65 739.15 866.85 741.8 Q859.25 739.85 856.6 742.7 855.85 743.55 854.95 745.55 854.05 747.45 853.25 748.2 L853.25 748.4 852.3 748.2 Q851.5 747.75 851.5 747.3 L851.6 746.55 Q850.6 747.35 847.95 751.65 845.25 755.35 842.9 754.2 842.25 753.9 841.55 751.3 840.8 748.75 839.9 748.3 L838.8 748.05 836.5 748.25 834.65 748.8 Q832.5 748.0 832.0 747.55 L831.5 746.25 827.55 746.45 823.7 746.65 Q822.8 747.6 822.4 751.35 821.2 753.95 815.75 751.75 814.8 753.3 814.3 756.9 813.35 759.95 809.7 760.75 808.8 759.35 808.85 758.6 L809.05 757.4 808.2 756.35 804.7 757.6 Q804.05 756.35 804.05 755.9 L804.1 754.8 Q803.45 754.2 802.0 753.25 L799.25 751.7 Q797.05 750.9 795.75 751.0 794.8 751.15 794.3 751.75 L793.55 753.05 792.45 754.15 787.95 753.25 Q786.9 755.9 784.7 755.45 L780.35 753.9 776.7 753.05 770.55 753.9 767.45 754.4 764.65 754.6 763.1 753.45 762.15 754.55 757.25 754.05 Q757.25 756.45 755.6 759.2 754.05 761.9 751.8 763.7 L749.55 763.4 746.75 763.45 743.0 763.2 Q744.75 765.8 744.75 766.95 744.75 768.55 742.95 771.0 L739.95 775.2 736.65 775.1 736.65 778.35 733.75 778.65 Q728.4 779.55 727.05 782.85 726.6 784.0 726.25 786.6 725.95 789.1 725.4 790.2 L725.5 790.45 724.5 790.5 Q723.6 790.3 723.5 789.8 L723.35 788.9 Q722.6 790.15 721.3 795.95 719.75 801.0 717.15 800.5 716.45 800.4 715.05 797.7 713.6 795.05 712.65 794.85 L711.5 794.9 Q710.55 795.15 709.35 795.9 L707.7 797.2 704.8 796.65 703.95 795.3 700.2 796.85 Q697.5 797.85 696.6 798.4 696.0 799.8 696.65 804.15 696.25 807.55 690.35 806.85 689.9 808.95 690.45 813.25 690.4 817.0 687.15 819.1 685.9 817.8 685.7 817.0 L685.55 815.5 684.45 814.65 681.45 817.25 680.35 815.55 680.1 814.25 677.6 813.25 674.55 812.4 671.0 812.75 Q670.1 813.25 669.8 814.1 L669.45 815.85 Q669.25 816.9 668.7 817.45 L664.1 817.9 Q663.9 821.25 661.65 821.5 L657.0 821.2 653.25 821.5 Q653.0 821.5 647.6 824.55 L644.75 826.15 642.15 827.3 Q640.65 827.15 638.1 824.75 L635.85 822.35 633.05 821.8 630.2 821.15 626.0 820.65 625.7 819.45 624.6 819.45 Q622.65 819.25 621.5 818.75 620.05 817.8 619.95 816.6 620.7 814.35 620.7 813.6 L616.05 811.8 Q613.6 809.05 609.4 799.8 605.1 790.35 605.1 787.2 L606.35 785.9 607.55 784.7 Q607.55 783.95 606.95 782.35 606.3 780.75 606.3 780.0 606.3 778.25 608.5 777.05 611.15 775.55 614.75 777.35 L616.4 776.15 617.1 775.05 621.5 776.1 623.85 776.2 625.3 772.15 Q626.0 770.05 627.7 768.7 626.6 770.15 627.0 771.65 L627.35 771.85 626.35 774.5 624.6 778.2 621.5 778.05 617.85 777.15 617.7 779.8 Q615.45 778.35 611.65 778.65 607.85 778.95 607.85 780.6 607.85 781.5 608.8 783.2 609.75 784.95 609.75 785.65 L606.6 788.0 Q608.2 790.85 608.2 791.45 L607.85 792.55 Q607.85 793.35 608.15 794.15 608.95 796.3 611.6 800.4 615.25 802.0 615.35 804.3 615.4 805.55 614.75 807.3 L615.35 808.0 617.25 810.4 621.5 812.1 621.8 812.15 Q622.25 813.55 622.25 816.85 624.45 817.35 629.0 819.25 630.8 819.45 632.25 818.1 L633.5 819.75 633.5 820.45 637.7 820.35 Q638.65 822.2 639.6 822.4 L640.95 824.1 641.0 825.05 641.0 825.35 Q642.65 825.0 644.45 823.8 L644.75 823.65 646.65 821.8 654.55 820.6 658.5 820.05 Q661.95 817.75 662.85 816.15 L667.7 815.7 Q668.35 815.15 668.7 814.0 L669.25 812.1 Q669.75 811.15 671.0 810.65 L675.45 810.35 Q676.5 810.45 676.85 811.05 677.2 811.55 678.95 811.75 680.6 811.9 680.85 812.3 L681.6 814.1 682.3 813.45 Q683.1 812.75 684.0 812.85 685.15 812.95 685.65 813.55 L686.85 814.85 Q688.55 810.1 688.95 805.0 L689.2 804.85 690.2 804.7 Q691.15 804.75 691.85 805.35 L692.55 806.0 Q695.1 804.8 695.15 801.4 694.75 797.45 695.1 795.75 698.25 796.05 701.05 794.8 L703.35 793.45 Q704.25 793.55 705.35 794.25 L707.1 795.3 Q708.35 793.4 708.3 792.75 L710.7 793.3 Q711.2 793.35 711.5 792.85 L712.25 791.95 Q713.1 792.25 715.1 795.05 717.15 797.8 718.2 798.2 719.85 788.3 724.25 782.35 728.4 776.7 733.75 776.5 L735.05 776.55 735.05 773.1 738.8 773.8 Q738.8 770.65 739.75 769.35 740.7 768.05 740.7 767.35 740.7 766.45 741.15 766.45 L743.25 766.7 742.45 765.35 Q741.7 764.25 740.4 763.45 740.1 764.2 740.1 762.7 L742.1 761.1 745.7 761.45 Q745.7 760.55 746.0 760.15 L747.6 760.85 Q749.2 761.5 751.35 761.95 751.35 759.35 753.55 756.6 755.7 753.85 755.7 751.35 L756.05 751.55 757.25 751.95 761.3 752.5 761.15 751.9 Q763.2 751.9 764.15 751.3 L764.3 751.65 764.3 751.85 764.1 752.45 764.05 752.7 767.7 752.4 768.05 752.4 770.3 751.45 778.15 752.7 782.05 753.35 Q785.9 752.5 787.15 751.45 L791.9 752.45 Q792.7 752.2 793.25 751.35 L794.25 750.0 Q794.95 749.35 796.25 749.3 797.95 749.3 800.6 750.3 801.6 750.7 801.75 751.3 802.0 751.8 803.6 752.45 805.15 753.0 805.3 753.45 L805.6 755.1 806.45 754.75 808.2 754.8 Q809.25 755.15 809.6 755.8 L810.45 757.2 Q813.2 753.85 814.85 749.85 L815.1 749.75 816.1 749.95 Q817.0 750.25 817.5 750.9 L818.05 751.65 Q820.75 751.4 821.6 748.65 822.2 745.35 822.95 744.1 825.85 745.25 828.8 745.0 L831.35 744.6 Q832.2 744.9 833.1 745.8 L834.5 747.15 Q836.15 745.95 836.25 745.4 L838.45 746.5 839.3 746.4 840.25 745.85 Q841.0 746.35 842.2 749.15 843.55 752.0 844.45 752.6 848.4 745.05 854.0 741.5 860.0 737.7 865.75 739.85 L866.6 737.05 870.0 738.7 Q870.75 736.15 872.0 735.35 873.2 734.6 873.35 734.05 873.6 733.3 874.05 733.4 L875.95 734.2 875.55 732.85 Q875.05 731.8 874.05 730.8 873.55 731.3 873.95 730.1 L876.2 729.35 879.6 730.65 Q879.8 729.95 880.2 729.7 L881.55 730.75 882.45 731.35 882.6 731.0 881.7 730.5 879.55 728.5 Q881.8 730.4 882.9 730.4 L883.6 730.3 885.1 732.1 885.4 732.5 Q886.25 733.1 887.25 733.25 L888.45 733.2 888.75 735.05 888.45 735.55 Q891.95 736.3 891.9 737.55 891.9 739.3 892.55 739.9 L892.95 741.75 892.6 742.5 892.45 742.7 895.9 743.3 896.2 743.3 898.55 742.9 Q901.55 744.3 905.45 745.9 908.35 747.1 908.9 747.45 912.7 747.5 914.05 746.8 L918.2 748.85 Q918.95 748.75 919.75 748.15 L921.0 747.05 923.05 746.85 Q924.55 747.25 926.75 748.85 927.55 749.4 927.6 750.0 927.65 750.55 929.0 751.55 930.25 752.45 930.35 752.85 L930.15 754.5 931.0 754.35 Q931.95 754.25 932.6 754.75 933.5 755.4 933.65 756.05 L934.1 757.6 Q937.45 755.05 940.0 751.55 L940.3 751.6 941.15 752.0 Q941.9 752.5 942.15 753.25 L942.5 754.1 Q945.05 754.45 946.6 752.05 947.95 749.05 948.95 748.0 951.4 749.75 954.15 750.25 L956.65 750.35 957.9 751.95 958.85 753.55 960.0 753.05 960.95 752.3 962.6 753.85 963.45 753.95 964.5 753.65 Q965.0 754.25 965.45 757.25 965.95 760.25 966.6 761.0 972.2 754.75 978.35 752.65 984.85 750.4 989.55 753.8 L991.05 751.35 993.8 753.7 Q995.15 751.45 996.45 750.95 997.8 750.5 998.1 750.0 998.5 749.35 998.85 749.6 L1000.45 750.75 1000.35 749.4 Q1000.25 748.25 999.55 747.05 998.95 747.45 999.6 746.35 L1001.9 746.2 1004.7 748.2 1005.5 747.45 1006.45 748.75 1009.05 751.35 Q1010.15 749.45 1013.15 748.6 1015.45 747.9 1016.6 746.65 1017.4 746.5 1017.8 746.2 L1018.1 745.9 1019.75 747.45 Q1021.3 748.3 1023.0 747.8 L1023.2 748.25 1023.55 749.5 1023.35 750.05 1024.35 750.15 Q1026.85 750.55 1027.0 751.55 1027.2 753.35 1028.0 753.85 L1028.6 755.65 1028.35 756.35 1028.25 756.6 1031.75 756.7 1032.05 756.7 1034.3 756.0 1041.55 758.0 1045.15 759.05 Q1048.9 758.5 1050.25 757.65 L1054.6 759.1 Q1055.3 758.95 1056.0 758.15 L1057.1 756.9 Q1057.8 756.35 1059.1 756.45 1060.65 756.6 1063.05 757.85 1063.95 758.3 1064.05 758.95 L1065.65 760.2 Q1067.05 761.0 1067.1 761.35 L1067.15 763.0 1068.0 762.75 1069.65 762.95 Q1070.65 763.45 1070.9 764.1 L1071.5 765.55 Q1074.5 762.55 1076.55 758.75 L1076.8 758.75 Q1077.0 758.6 1077.75 759.0 1078.5 759.4 1078.9 760.1 L1079.35 760.85 Q1081.95 760.9 1083.1 758.3 1084.05 755.1 1084.9 753.95 1087.55 755.35 1090.35 755.4 L1092.8 755.25 Q1093.6 755.65 1094.3 756.6 L1095.45 758.05 Q1097.2 757.05 1097.35 756.55 L1099.25 757.85 Q1099.7 758.05 1100.1 757.85 1100.8 757.45 1101.05 757.4 1101.7 757.9 1102.55 760.8 1103.4 763.65 1104.15 764.4 1108.85 757.45 1114.65 754.45 1120.7 751.35 1125.9 754.05 L1127.0 751.4 1130.05 753.3 Q1131.05 750.9 1132.35 750.25 1133.55 749.6 1133.8 749.05 1134.1 748.4 1134.5 748.55 L1136.25 749.5 1136.0 748.2 Q1135.75 747.15 1135.0 746.2 L1134.45 746.15 Q1132.85 744.75 1132.35 743.85 L1132.4 743.6 1132.65 743.1 Q1133.3 743.1 1134.95 744.45 L1135.6 744.45 Q1136.35 743.75 1138.65 744.1 L1139.1 744.2 1139.15 744.15 1139.8 743.95 1141.35 744.55 1141.4 744.7 Q1143.05 745.2 1145.0 746.1 L1145.45 746.2 1146.6 746.65 1149.05 747.65 1151.1 748.7 1154.1 750.3 1155.15 749.45 1156.95 749.05 1157.6 749.6 1158.85 747.95 1159.55 747.25 Q1160.4 746.3 1161.35 745.75 L1162.0 745.45 1164.0 745.05 1164.25 745.05 1164.3 745.4 1168.8 749.4 1171.3 751.35 Q1172.35 752.0 1173.1 752.25 L1173.2 752.4 1173.3 752.35 1173.85 752.4 1174.5 752.9 1175.4 751.65 1175.7 751.35 1175.65 751.2 Q1178.0 749.45 1179.05 747.95 L1180.35 748.0 1180.5 748.1 1181.8 748.95 1182.0 749.9 1182.3 751.2 1183.7 751.35 1183.8 751.3 1184.15 751.35 1184.25 750.9 1184.45 750.75 1185.0 750.8 1185.15 749.9 1185.15 749.5 1186.05 748.35 Q1186.35 748.6 1187.1 750.55 1187.95 751.85 1189.45 752.25 L1190.25 753.2 1191.3 752.0 1192.6 751.1 M722.6 719.6 L722.55 718.85 723.8 719.0 Q723.8 720.5 724.1 719.75 L728.2 720.65 Q727.55 721.0 727.05 721.3 L722.85 720.8 723.5 720.15 Q723.25 719.85 722.6 719.6 M746.0 739.6 L746.1 739.55 746.05 740.3 746.1 740.5 Q745.9 740.05 746.0 739.6 M1012.85 743.2 L1012.95 743.4 1013.3 744.15 1012.85 743.2" fill="#3c3f27" fill-rule="evenodd" stroke="none"/>
    <path d="M1266.05 741.25 Q1267.0 739.95 1269.65 740.9 1272.8 742.05 1273.6 743.8 L1273.75 744.1 1273.85 744.95 1273.55 745.45 Q1272.55 746.35 1268.75 748.4 L1267.3 749.2 1267.25 749.2 1263.45 751.0 1262.9 751.9 1262.3 751.4 1261.2 750.45 1260.7 749.95 1259.55 748.75 1257.45 746.7 1255.1 747.0 1255.1 747.3 1255.05 747.8 Q1254.7 749.15 1252.65 750.55 L1251.4 751.3 1250.35 751.9 1248.65 752.55 1248.1 752.7 1248.05 752.9 1246.95 753.05 1246.85 753.15 1246.8 753.2 1246.7 753.15 1246.4 752.9 1245.75 752.75 1245.7 753.1 1245.6 754.35 1244.9 755.3 Q1244.1 755.95 1242.6 756.15 1242.35 755.1 1241.55 754.25 L1240.85 755.1 1240.3 755.7 1239.75 756.3 1238.1 757.55 Q1232.3 751.7 1231.65 750.05 1233.15 750.05 1234.75 751.65 L1236.8 753.5 1237.8 753.35 1236.05 751.2 1236.15 751.1 Q1235.0 751.1 1234.55 750.35 1233.6 748.8 1233.05 748.8 1232.3 748.8 1231.9 749.35 1231.5 749.9 1230.75 749.9 1229.55 749.9 1229.05 748.75 1228.55 747.6 1226.85 747.6 L1223.75 747.45 1223.55 748.5 Q1223.25 750.05 1223.25 751.05 L1222.5 751.35 1221.95 751.2 1221.95 751.8 1221.35 752.2 1219.95 752.55 1218.35 752.2 1217.3 751.5 1217.3 750.05 1218.2 750.0 1218.95 750.05 1216.3 748.9 1216.1 748.8 Q1215.15 749.3 1214.25 749.3 1213.55 749.3 1212.05 748.5 1210.65 747.75 1209.95 747.9 1209.7 747.95 1209.6 748.4 1209.55 748.8 1208.7 748.8 L1207.45 748.55 Q1206.6 748.0 1200.15 746.85 1199.05 746.35 1197.65 746.3 1198.2 747.2 1198.2 748.05 1198.2 749.5 1195.6 750.05 1193.8 750.45 1192.6 751.1 L1191.3 752.0 1190.9 752.4 1189.45 752.25 Q1187.95 751.85 1187.1 750.55 1186.35 748.6 1186.05 748.35 L1185.15 749.5 1185.15 749.9 1185.0 750.8 1184.45 750.75 1184.25 750.9 1183.8 751.3 1183.7 751.35 1182.3 751.2 1182.0 749.9 1181.8 748.95 1180.5 748.1 1180.35 748.0 1179.4 747.4 1179.05 747.95 Q1178.0 749.45 1175.65 751.2 L1175.7 751.35 1175.4 751.65 1175.25 751.8 1174.8 751.8 1173.9 752.4 1173.85 752.4 1173.3 752.35 1173.2 752.4 1173.1 752.25 Q1172.35 752.0 1171.3 751.35 L1168.8 749.4 1164.3 745.4 1164.25 745.05 1164.0 745.05 1162.0 745.45 1161.35 745.75 Q1160.4 746.3 1159.55 747.25 L1158.85 747.95 Q1158.0 748.65 1156.95 749.05 L1155.15 749.45 1154.3 749.45 Q1153.6 749.45 1149.05 747.65 L1146.6 746.65 1145.45 746.2 1141.35 744.55 1139.8 743.95 1139.15 744.15 1139.1 744.2 1138.65 744.1 Q1136.35 743.75 1135.6 744.45 L1134.95 744.45 Q1133.3 743.1 1132.65 743.1 L1132.4 743.6 1132.35 743.85 Q1132.85 744.75 1134.45 746.15 L1135.0 746.2 Q1135.75 747.15 1136.0 748.2 L1136.25 749.5 1134.5 748.55 Q1134.1 748.4 1133.8 749.05 1133.55 749.6 1132.35 750.25 1131.05 750.9 1130.05 753.3 L1127.0 751.4 1125.9 754.05 Q1120.7 751.35 1114.65 754.45 1108.85 757.45 1104.15 764.4 1103.4 763.65 1102.55 760.8 1101.7 757.9 1101.05 757.4 1100.8 757.45 1100.1 757.85 1099.7 758.05 1099.25 757.85 L1097.35 756.55 Q1097.2 757.05 1095.45 758.05 L1094.3 756.6 Q1093.6 755.65 1092.8 755.25 L1090.35 755.4 Q1087.55 755.35 1084.9 753.95 1084.05 755.1 1083.1 758.3 1081.95 760.9 1079.35 760.85 L1078.9 760.1 Q1078.5 759.4 1077.75 759.0 1077.0 758.6 1076.8 758.75 L1076.55 758.75 Q1074.5 762.55 1071.5 765.55 L1070.9 764.1 Q1070.65 763.45 1069.65 762.95 L1068.0 762.75 1067.15 763.0 1067.1 761.35 Q1067.05 761.0 1065.65 760.2 L1064.05 758.95 Q1063.95 758.3 1063.05 757.85 1060.65 756.6 1059.1 756.45 1057.8 756.35 1057.1 756.9 L1056.0 758.15 Q1055.3 758.95 1054.6 759.1 L1050.25 757.65 Q1048.9 758.5 1045.15 759.05 L1041.55 758.0 1034.3 756.0 1032.05 756.7 1031.75 756.7 1028.25 756.6 1028.35 756.35 1028.6 755.65 1028.0 753.85 Q1027.2 753.35 1027.0 751.55 1026.85 750.55 1024.35 750.15 L1023.35 750.05 1023.55 749.5 1023.2 748.25 1023.0 747.8 Q1021.3 748.3 1019.75 747.45 L1018.1 745.9 1017.8 746.2 Q1017.4 746.5 1016.6 746.65 1015.45 747.9 1013.15 748.6 1010.15 749.45 1009.05 751.35 L1006.45 748.75 1005.5 747.45 1004.7 748.2 1001.9 746.2 999.6 746.35 Q998.95 747.45 999.55 747.05 1000.25 748.25 1000.35 749.4 L1000.45 750.75 998.85 749.6 Q998.5 749.35 998.1 750.0 997.8 750.5 996.45 750.95 995.15 751.45 993.8 753.7 L991.05 751.35 989.55 753.8 Q984.85 750.4 978.35 752.65 972.2 754.75 966.6 761.0 965.95 760.25 965.45 757.25 965.0 754.25 964.5 753.65 L963.45 753.95 962.6 753.85 960.95 752.3 960.0 753.05 958.85 753.55 957.9 751.95 956.65 750.35 954.15 750.25 Q951.4 749.75 948.95 748.0 947.95 749.05 946.6 752.05 945.05 754.45 942.5 754.1 L942.15 753.25 Q941.9 752.5 941.15 752.0 L940.3 751.6 940.0 751.55 Q937.45 755.05 934.1 757.6 L933.65 756.05 Q933.5 755.4 932.6 754.75 931.95 754.25 931.0 754.35 L930.15 754.5 930.35 752.85 Q930.25 752.45 929.0 751.55 927.65 750.55 927.6 750.0 927.55 749.4 926.75 748.85 924.55 747.25 923.05 746.85 L921.0 747.05 919.75 748.15 Q918.95 748.75 918.2 748.85 L914.05 746.8 Q912.7 747.5 908.9 747.45 908.35 747.1 905.45 745.9 901.55 744.3 898.55 742.9 L896.2 743.3 895.9 743.3 892.45 742.7 892.6 742.5 892.95 741.75 892.55 739.9 Q891.9 739.3 891.9 737.55 891.95 736.3 888.45 735.55 L888.75 735.05 888.45 733.2 887.25 733.25 Q886.25 733.1 885.4 732.5 L885.1 732.1 883.6 730.3 882.9 730.4 Q881.8 730.4 879.55 728.5 L881.7 730.5 882.6 731.0 882.45 731.35 881.55 730.75 880.2 729.7 Q879.8 729.95 879.6 730.65 L876.2 729.35 873.95 730.1 Q873.55 731.3 874.05 730.8 875.05 731.8 875.55 732.85 L875.95 734.2 874.05 733.4 Q873.6 733.3 873.35 734.05 873.2 734.6 872.0 735.35 870.75 736.15 870.0 738.7 L866.6 737.05 865.75 739.85 Q860.0 737.7 854.0 741.5 848.4 745.05 844.45 752.6 843.55 752.0 842.2 749.15 841.0 746.35 840.25 745.85 L839.3 746.4 838.45 746.5 836.25 745.4 Q836.15 745.95 834.5 747.15 L833.1 745.8 Q832.2 744.9 831.35 744.6 L828.8 745.0 Q825.85 745.25 822.95 744.1 822.2 745.35 821.6 748.65 820.75 751.4 818.05 751.65 L817.5 750.9 Q817.0 750.25 816.1 749.95 L815.1 749.75 814.85 749.85 Q813.2 753.85 810.45 757.2 L809.6 755.8 Q809.25 755.15 808.2 754.8 L806.45 754.75 805.6 755.1 805.3 753.45 Q805.15 753.0 803.6 752.45 802.0 751.8 801.75 751.3 801.6 750.7 800.6 750.3 797.95 749.3 796.25 749.3 794.95 749.35 794.25 750.0 L793.25 751.35 Q792.7 752.2 791.9 752.45 L787.15 751.45 Q785.9 752.5 782.05 753.35 L778.15 752.7 770.3 751.45 768.05 752.4 767.7 752.4 764.05 752.7 764.1 752.45 764.3 751.85 764.3 751.65 764.15 751.3 Q763.2 751.9 761.15 751.9 L761.3 752.5 757.25 751.95 756.05 751.55 755.7 751.35 Q755.7 753.85 753.55 756.6 751.35 759.35 751.35 761.95 749.2 761.5 747.6 760.85 L746.0 760.15 Q745.7 760.55 745.7 761.45 L742.1 761.1 740.1 762.7 Q740.1 764.2 740.4 763.45 741.7 764.25 742.45 765.35 L743.25 766.7 741.15 766.45 Q740.7 766.45 740.7 767.35 740.7 768.05 739.75 769.35 738.8 770.65 738.8 773.8 L735.05 773.1 735.05 776.55 733.75 776.5 Q728.4 776.7 724.25 782.35 719.85 788.3 718.2 798.2 717.15 797.8 715.1 795.05 713.1 792.25 712.25 791.95 L711.5 792.85 Q711.2 793.35 710.7 793.3 L708.3 792.75 Q708.35 793.4 707.1 795.3 L705.35 794.25 Q704.25 793.55 703.35 793.45 L701.05 794.8 Q698.25 796.05 695.1 795.75 694.75 797.45 695.15 801.4 695.1 804.8 692.55 806.0 L691.85 805.35 Q691.15 804.75 690.2 804.7 L689.2 804.85 688.95 805.0 Q688.55 810.1 686.85 814.85 L685.65 813.55 Q685.15 812.95 684.0 812.85 683.1 812.75 682.3 813.45 L681.6 814.1 680.85 812.3 Q680.6 811.9 678.95 811.75 677.2 811.55 676.85 811.05 676.5 810.45 675.45 810.35 L671.0 810.65 Q669.75 811.15 669.25 812.1 L668.7 814.0 Q668.35 815.15 667.7 815.7 L662.85 816.15 Q661.95 817.75 658.5 820.05 L654.55 820.6 646.65 821.8 644.75 823.65 644.45 823.8 Q642.65 825.0 641.0 825.35 L641.0 825.05 640.95 824.1 639.6 822.4 Q638.65 822.2 637.7 820.35 L633.5 820.45 633.5 819.75 632.25 818.1 Q630.8 819.45 629.0 819.25 624.45 817.35 622.25 816.85 622.25 813.55 621.8 812.15 L621.5 812.1 617.25 810.4 615.35 808.0 614.75 807.3 Q615.4 805.55 615.35 804.3 615.25 802.0 611.6 800.4 608.95 796.3 608.15 794.15 607.85 793.35 607.85 792.55 L608.2 791.45 Q608.2 790.85 606.6 788.0 L609.75 785.65 Q609.75 784.95 608.8 783.2 607.85 781.5 607.85 780.6 607.85 778.95 611.65 778.65 615.45 778.35 617.7 779.8 L617.85 777.15 621.5 778.05 624.6 778.2 626.35 774.5 627.35 771.85 627.75 772.05 628.1 771.8 627.5 773.15 Q626.3 776.15 626.3 777.3 L626.3 777.6 Q624.0 779.6 621.5 780.95 L621.15 781.2 621.0 781.2 621.0 781.4 Q620.5 781.95 620.3 783.0 L619.65 783.6 615.35 782.7 615.2 782.95 Q615.05 783.1 615.05 784.0 615.05 786.0 617.25 788.8 617.0 789.65 614.1 789.15 L614.45 789.9 611.3 789.95 Q611.7 790.65 613.95 791.35 L615.0 791.5 615.1 792.1 615.2 794.1 615.25 794.25 615.2 794.2 Q614.15 795.05 613.8 795.8 L614.75 797.0 618.55 798.6 617.85 799.05 619.2 800.75 Q619.1 801.7 619.5 802.95 L620.25 805.65 619.9 807.1 Q619.65 807.7 619.8 808.0 L621.5 808.5 624.75 808.75 624.75 808.95 627.65 809.1 629.1 809.5 627.45 811.75 633.35 813.35 639.3 815.05 639.95 816.0 640.55 816.75 642.1 816.8 Q643.3 818.05 643.95 819.2 L644.6 819.0 644.75 816.95 644.75 816.55 645.7 816.35 647.7 817.6 649.3 815.05 Q652.55 813.65 655.75 811.3 656.25 812.35 657.45 813.1 L660.25 810.4 Q661.05 809.5 661.05 807.3 L661.05 807.0 661.45 806.7 Q663.75 804.9 665.15 804.9 665.9 804.9 666.45 805.65 666.95 806.35 667.7 806.35 668.6 806.35 669.2 805.25 669.75 804.15 670.2 804.15 L671.0 804.15 Q673.85 804.45 674.1 804.8 L674.1 805.6 677.9 805.6 679.0 807.6 Q679.8 808.85 680.85 808.95 683.7 809.2 684.2 805.9 L684.15 801.9 684.9 800.35 686.1 800.5 Q687.2 800.55 687.3 800.2 L685.7 798.7 686.95 796.2 687.15 795.8 687.95 796.25 690.35 797.95 Q691.75 796.7 691.8 794.25 691.6 791.4 691.8 790.15 691.8 790.5 693.55 790.55 L695.4 790.3 695.4 788.5 695.75 788.65 697.25 789.0 700.15 788.65 Q702.95 788.2 710.7 788.75 L711.5 787.9 711.65 787.7 713.4 788.55 714.35 788.4 714.15 787.95 714.15 784.65 717.9 784.55 Q718.15 784.2 717.9 783.45 L715.4 781.05 Q716.25 779.4 717.0 778.8 L721.65 775.1 723.05 773.6 723.5 774.7 724.65 774.75 724.8 770.9 Q729.15 772.55 730.5 771.95 L732.9 770.95 Q733.1 769.45 732.7 768.2 L733.75 766.8 Q734.35 765.75 734.6 764.35 735.7 758.25 738.5 754.85 L739.0 755.4 Q740.15 756.5 741.35 756.75 L742.85 756.6 742.85 754.6 745.6 754.55 Q747.4 754.35 748.2 753.7 747.0 751.65 747.0 749.7 L748.0 748.7 749.75 749.65 Q751.25 749.9 751.05 749.4 L750.3 747.85 750.1 747.3 Q751.1 747.9 752.5 747.9 753.85 747.9 756.15 746.8 758.5 745.65 762.3 745.65 L765.6 745.5 765.65 745.6 767.15 746.1 768.35 748.55 769.0 748.55 769.65 746.95 769.75 746.65 770.7 746.7 772.3 748.35 774.45 746.7 Q777.9 746.5 781.5 745.5 781.75 746.5 782.75 747.45 L786.1 746.05 Q787.05 745.55 787.55 743.8 L787.65 743.55 788.05 743.4 Q790.75 742.6 792.05 743.0 792.8 743.2 793.1 743.95 793.45 744.65 794.15 744.85 795.0 745.1 795.85 744.45 796.65 743.7 797.1 743.8 L797.85 744.05 Q800.5 745.1 800.65 745.45 L800.5 746.1 804.1 747.15 804.65 749.1 Q805.15 750.35 806.15 750.75 808.75 751.75 810.05 749.2 L810.95 745.95 812.05 744.9 813.15 745.4 814.4 745.45 813.25 743.8 815.05 742.15 815.3 741.9 816.0 742.45 817.85 744.5 Q819.45 743.9 820.1 741.95 820.65 739.55 821.1 738.6 821.0 738.9 822.7 739.45 L824.5 739.75 824.95 738.25 825.25 738.5 826.6 739.25 829.45 739.75 Q832.25 740.2 839.55 742.8 L840.5 742.4 840.7 742.25 842.2 743.45 843.1 743.6 843.0 743.15 843.8 740.5 Q846.9 742.0 847.45 741.45 847.75 741.3 847.7 740.6 847.05 740.0 845.9 737.95 847.05 736.85 847.95 736.55 L853.3 734.85 854.95 734.05 855.15 735.1 856.25 735.45 857.3 732.35 Q861.05 734.95 862.5 734.85 L865.05 734.7 Q865.6 733.55 865.5 732.45 867.25 731.65 868.3 729.85 870.3 726.2 872.9 724.2 L874.15 724.4 874.95 724.3 Q875.65 725.15 876.55 725.6 L876.4 725.35 Q876.4 724.35 876.8 723.75 L876.6 723.7 876.55 723.65 876.8 723.75 Q877.2 723.1 878.05 722.95 880.0 724.6 884.25 726.8 888.6 729.05 890.45 729.35 L891.15 730.15 891.4 730.4 895.5 734.5 895.65 735.5 Q895.65 736.15 895.8 736.3 L897.05 737.15 897.5 739.75 898.1 739.9 899.05 738.5 899.25 738.2 900.15 738.55 901.2 740.4 Q901.5 740.4 903.6 739.4 L910.4 739.85 Q910.4 740.85 911.05 742.0 L914.45 741.4 Q915.5 741.2 916.45 739.6 L916.55 739.4 917.05 739.4 Q919.65 739.2 920.8 739.9 921.4 740.25 921.55 741.1 921.65 741.8 922.25 742.2 L923.9 742.1 Q924.85 741.6 925.2 741.8 L925.85 742.2 Q928.0 743.8 928.05 744.15 L927.7 744.75 930.8 746.6 930.85 748.55 Q930.95 749.85 931.75 750.45 933.95 752.0 935.8 749.9 L937.45 747.05 Q938.05 746.7 938.75 746.3 L939.6 747.0 Q940.5 747.55 940.75 747.35 L940.1 745.5 942.15 744.35 942.5 744.15 942.95 744.85 944.15 747.25 Q945.85 747.05 946.95 745.3 948.0 743.15 948.75 742.35 948.6 742.6 949.95 743.5 951.3 744.4 951.55 744.2 L952.35 742.95 952.6 743.25 953.6 744.25 956.15 745.4 Q957.5 745.95 960.0 747.55 L964.6 750.6 965.6 750.4 965.85 750.3 966.85 751.75 Q967.6 752.4 967.75 752.15 L967.75 751.75 969.15 749.4 Q971.6 751.5 972.25 751.1 972.6 751.0 972.7 750.35 972.25 749.65 971.7 747.4 973.1 746.65 973.95 746.6 L979.35 746.2 981.1 745.85 981.05 746.85 981.9 747.4 983.75 744.75 Q986.5 748.05 987.9 748.25 L990.25 748.75 Q991.05 747.8 991.25 746.7 993.05 746.35 994.45 744.9 998.0 741.05 1001.7 740.0 L1001.85 740.65 Q1002.35 742.0 1003.2 742.75 1004.3 743.7 1004.5 743.35 L1005.35 741.95 1007.6 743.25 Q1009.1 744.0 1010.05 743.9 1010.0 741.9 1010.8 740.5 L1012.05 740.25 1012.7 741.25 1013.3 740.4 Q1013.85 741.0 1015.1 741.0 L1015.35 741.0 1015.35 741.2 Q1016.0 742.25 1018.6 742.25 L1018.95 742.25 1019.1 742.25 1019.45 742.2 1021.0 741.6 1021.25 741.4 1023.5 743.0 1025.5 744.55 1025.8 744.8 1030.1 748.05 1030.4 749.05 1030.65 749.85 1031.95 750.45 1032.8 753.0 1033.4 753.1 1034.25 751.55 1034.35 751.25 1035.25 751.45 1036.55 753.15 1038.8 751.8 1045.6 751.3 Q1045.75 752.3 1046.55 753.3 L1049.8 752.3 Q1050.8 751.9 1051.55 750.2 L1051.65 750.0 1052.1 749.9 Q1054.65 749.35 1055.9 749.85 1056.55 750.15 1056.75 750.95 1057.0 751.65 1057.65 751.95 1058.4 752.3 1059.3 751.65 1060.1 751.0 1060.5 751.2 L1061.2 751.45 1063.7 753.1 1063.45 753.7 1066.75 755.15 1067.05 757.1 Q1067.3 758.35 1068.2 758.75 1070.6 760.05 1072.15 757.7 L1073.4 754.6 1074.55 753.7 1075.55 754.25 Q1076.5 754.75 1076.65 754.45 L1075.8 752.7 1077.65 751.3 1078.0 751.05 1078.55 751.7 1080.05 753.9 Q1081.7 753.45 1082.55 751.6 1083.3 749.3 1083.9 748.45 1083.8 748.7 1085.25 749.4 1086.75 750.15 1086.95 749.85 L1087.55 748.5 1087.8 748.75 1088.95 749.55 1091.65 750.35 Q1094.2 751.05 1100.75 754.4 L1101.75 754.05 1101.95 753.95 1103.15 755.25 Q1103.9 755.75 1104.0 755.45 L1104.0 755.0 1105.1 752.5 Q1107.85 754.25 1108.35 753.8 1108.75 753.65 1108.75 752.95 1108.2 752.3 1107.35 750.25 1108.6 749.25 1109.5 749.05 L1114.7 747.95 1116.45 747.3 1116.45 748.35 1117.45 748.8 1118.85 745.9 Q1122.1 748.75 1123.45 748.8 L1125.85 748.95 Q1126.5 747.9 1126.55 746.75 1128.35 746.15 1129.5 744.5 1132.45 740.25 1136.0 738.7 L1136.25 739.25 Q1136.9 740.55 1137.85 741.2 L1138.0 741.3 1137.9 740.55 1139.65 740.65 1143.4 741.95 1149.3 743.85 1151.2 743.5 1152.45 743.3 1153.2 744.0 1154.0 743.25 1155.6 743.25 Q1156.55 742.9 1157.25 741.35 L1157.75 741.3 1157.35 741.0 1157.75 739.65 1158.8 740.05 1158.9 740.1 1158.95 740.1 1160.0 740.5 1160.7 740.45 1160.7 740.75 1161.25 740.6 1161.05 740.4 1161.85 740.25 1164.1 740.65 1165.85 741.0 1166.55 741.35 Q1168.4 742.3 1171.3 743.05 L1174.95 743.85 1175.7 743.55 1175.7 742.1 1181.25 742.55 1184.1 740.9 1186.15 740.2 1186.4 740.5 1187.6 740.55 1188.3 740.55 1188.45 740.7 Q1189.1 741.95 1191.2 741.95 L1192.75 741.1 Q1193.95 740.45 1194.95 740.15 L1195.65 740.3 1196.85 740.85 Q1199.7 742.3 1202.1 743.95 L1207.2 744.75 1209.25 743.95 1215.3 745.4 1220.55 745.7 1222.0 745.45 1223.55 745.25 1225.85 745.2 1227.45 745.4 Q1230.0 745.4 1230.65 746.25 1231.35 747.2 1232.15 747.3 1233.6 747.5 1234.7 748.25 L1235.6 748.95 Q1238.25 746.75 1240.1 745.7 L1239.65 745.7 1233.9 745.4 1233.3 745.3 1233.4 745.1 Q1233.6 744.45 1234.35 744.45 L1237.35 743.95 1240.1 744.0 Q1241.65 744.0 1241.8 743.4 1241.95 742.8 1244.45 742.8 L1247.6 742.45 1249.7 740.65 1252.6 741.25 1256.25 741.95 1260.8 739.75 1261.45 740.5 1263.7 740.9 1264.0 741.15 Q1264.55 741.65 1265.65 741.95 L1266.05 741.25 M738.5 719.55 L739.1 718.7 739.15 718.7 739.25 719.55 738.5 719.55 M763.15 706.35 L763.85 705.5 764.2 705.8 764.55 705.7 763.7 706.55 763.15 706.35 M692.95 788.2 L693.4 788.4 693.45 788.55 693.5 789.1 692.95 788.2 M741.1 754.5 L740.85 754.55 740.8 754.5 741.1 754.5 M823.05 737.65 L823.1 737.75 823.0 738.25 822.65 737.4 823.05 737.65 M950.55 742.45 L950.45 741.55 950.8 741.9 950.7 742.0 950.55 742.45 M1003.95 741.0 L1003.75 740.95 1003.7 740.85 1003.95 741.0 M1012.85 743.2 L1013.3 744.15 1012.95 743.4 1012.85 743.2 M1176.0 741.55 L1176.05 741.3 1177.15 741.25 1176.0 741.55 M1085.8 747.85 L1085.7 748.25 1085.55 747.35 1085.8 747.65 1085.8 747.85 M1193.05 741.4 L1198.4 743.0 Q1194.9 740.85 1194.0 740.85 1193.8 740.85 1193.05 741.4 M1189.9 740.1 L1190.55 739.65 1190.6 739.65 1190.15 740.1 1189.9 740.1 M1217.9 742.8 L1212.45 742.25 1214.45 741.15 Q1219.7 741.15 1221.2 740.25 1222.65 739.35 1223.4 739.35 1226.1 739.35 1227.5 740.1 L1229.45 741.7 Q1230.5 742.6 1232.4 743.2 L1231.2 743.85 Q1230.45 743.85 1229.3 743.15 1228.1 742.4 1227.35 742.4 L1227.2 742.45 Q1225.85 741.5 1223.25 741.5 L1218.6 742.8 1217.9 742.8 M1163.95 734.65 L1164.3 734.75 Q1165.1 734.9 1165.75 735.4 L1163.8 734.7 1163.95 734.65 M1155.35 740.6 L1155.65 740.1 1155.05 741.25 1155.35 740.6 M1171.3 742.05 L1170.6 741.8 1171.3 741.9 1171.8 741.95 1172.3 741.95 1172.7 742.1 1171.95 742.1 1171.3 742.05 M1258.4 738.35 L1259.2 738.6 Q1259.0 739.05 1258.2 739.05 L1258.1 739.05 1258.4 738.35 M1244.15 745.15 L1243.95 745.2 1244.1 745.3 1244.15 745.35 1244.15 745.15 M1240.05 753.1 L1239.55 752.8 1239.2 752.65 1239.45 753.35 1240.05 753.1 M1221.95 746.55 L1222.15 746.3 1221.8 746.0 Q1221.5 746.0 1221.65 746.35 L1221.7 746.45 1221.95 746.55 M1258.4 743.35 L1257.55 743.45 1259.7 746.55 Q1259.85 747.35 1259.85 745.85 L1259.0 744.3 1258.4 743.35 M619.8 797.7 L619.35 798.05 617.9 796.85 619.8 797.7 M624.25 806.85 L623.55 806.8 623.3 805.4 624.25 806.85" fill="#535936" fill-rule="evenodd" stroke="none"/>
  </g>
</svg>
