<?xml version="1.0" encoding="UTF-8" standalone="no"?>
<svg xmlns:ffdec="https://www.free-decompiler.com/flash" xmlns:xlink="http://www.w3.org/1999/xlink" ffdec:objectType="shape" height="486.25px" width="1609.6px" xmlns="http://www.w3.org/2000/svg">
  <g transform="matrix(1.0, 0.0, 0.0, 1.0, -24.75, -598.4)">
    <path d="M1634.35 1024.05 Q1634.35 1029.85 1629.9 1037.45 1624.65 1046.45 1615.45 1053.35 1590.65 1071.9 1549.65 1067.15 L1471.55 1067.8 1346.65 1076.25 1189.65 1084.65 937.15 1084.65 Q848.15 1081.1 688.5 1065.2 L555.45 1052.1 Q476.8 1044.8 410.3 1040.3 L57.5 1039.65 Q42.5 1038.85 36.2 1028.0 32.5 1021.55 32.5 1013.75 32.5 1007.1 38.45 995.7 44.35 984.3 44.35 982.8 44.35 980.35 42.9 975.05 L39.7 963.8 Q35.0 946.8 35.0 933.1 35.0 911.1 40.05 900.05 42.2 895.4 45.15 892.7 45.0 890.1 45.15 887.25 L45.5 883.15 Q45.5 871.45 46.4 865.85 L46.4 828.25 Q47.4 824.05 47.75 814.9 48.05 806.0 49.25 801.35 L49.25 733.45 Q54.75 729.3 63.45 727.95 70.75 726.7 78.25 727.8 L79.7 728.05 Q87.35 729.3 92.35 732.5 L92.1 729.1 Q91.8 724.25 92.1 722.5 92.55 719.85 95.5 718.85 101.6 717.0 132.95 721.2 L166.85 721.45 Q205.55 726.05 243.6 732.55 287.1 739.9 310.85 746.65 317.15 748.45 362.5 771.0 407.55 793.4 407.55 794.45 407.55 797.9 406.65 800.95 411.55 802.85 414.4 803.55 415.2 801.05 416.05 799.9 417.65 797.9 421.95 797.9 428.4 797.9 457.95 812.75 472.95 820.3 489.35 829.2 495.6 832.25 525.75 845.5 552.75 857.8 552.75 860.55 552.75 863.6 551.9 864.7 551.15 865.85 549.25 865.9 L536.75 865.05 534.65 865.15 533.7 865.6 Q536.25 866.85 537.95 868.8 539.55 870.6 539.55 871.85 539.55 874.85 536.95 876.35 535.8 877.1 534.25 877.35 521.25 871.85 502.35 865.6 483.9 859.5 454.9 851.2 425.35 842.75 420.95 841.3 L398.7 834.1 420.85 843.95 Q453.25 857.75 478.7 865.25 538.65 886.15 571.9 895.45 625.25 910.3 680.4 917.85 L707.2 918.15 Q718.25 920.45 730.35 921.65 L746.1 923.05 Q752.6 923.8 755.05 925.55 757.9 927.55 757.9 932.2 757.9 936.65 751.25 939.4 745.55 941.8 733.7 943.4 L708.95 945.9 680.75 948.8 651.35 948.95 634.4 950.0 622.5 950.45 598.35 951.7 590.05 953.15 608.65 954.75 Q719.7 964.7 809.05 979.05 849.9 985.6 980.45 998.3 L1224.05 1021.55 1422.8 1021.55 Q1439.95 1020.4 1521.75 1008.65 L1600.6 997.15 Q1623.0 997.15 1630.7 1009.1 1634.35 1014.7 1634.35 1024.05 M599.65 883.75 Q604.2 883.75 616.55 885.8 629.0 887.9 641.95 890.85 L636.45 890.5 582.0 890.35 Q583.0 888.45 586.0 886.75 591.3 883.75 599.65 883.75 M368.4 814.2 Q368.4 811.85 369.8 810.3 371.65 808.3 375.75 808.3 381.25 808.3 395.25 813.25 L413.4 820.0 Q408.35 817.4 398.05 812.95 L380.75 805.6 Q370.95 801.3 366.05 798.25 L357.8 797.15 359.55 799.8 360.4 801.7 Q360.4 803.8 359.2 805.4 365.1 808.4 365.1 811.5 365.1 813.9 363.65 815.2 L368.75 816.45 Q368.4 815.45 368.4 814.2 M333.15 809.2 Q326.1 805.6 322.75 804.15 313.85 800.3 308.25 799.9 L309.95 800.7 Q315.05 803.35 326.3 811.3 328.4 809.1 333.15 809.2" fill="#6f6f40" fill-rule="evenodd" stroke="none"/>
    <path d="M122.75 624.5 Q119.35 625.5 116.9 626.7 113.1 628.7 109.85 629.4 L90.75 632.35 Q89.0 634.8 87.2 639.0 85.7 642.5 84.55 646.25 L104.9 649.8 116.95 651.85 Q121.25 652.8 122.7 654.45 124.2 656.0 124.2 659.7 124.2 662.5 122.3 664.65 119.65 667.65 114.1 667.65 L78.25 666.45 Q65.35 665.35 57.0 663.25 42.45 659.65 41.75 653.05 40.15 650.1 38.45 645.8 36.85 641.7 35.35 636.65 L34.15 632.7 34.2 631.15 Q24.75 620.75 24.75 616.65 24.75 608.75 33.9 606.9 L58.9 606.65 68.65 603.5 Q74.0 601.8 78.25 600.9 L82.6 600.1 Q100.65 597.8 101.55 613.0 L101.65 613.4 102.05 613.95 Q104.8 613.3 109.75 611.2 115.1 608.95 118.3 608.05 121.3 607.25 121.95 607.4 L123.5 608.0 124.7 608.15 124.7 607.7 Q124.7 604.2 126.5 602.35 128.4 600.4 133.9 598.4 L168.75 598.4 Q174.65 599.3 188.0 602.35 203.05 605.85 216.75 609.75 L228.85 613.4 238.75 616.3 Q261.5 623.35 278.35 632.1 284.85 635.45 298.65 639.8 L322.8 647.15 Q336.4 651.5 343.0 655.25 351.4 660.15 351.4 665.35 351.4 668.05 349.55 670.3 347.1 673.35 342.25 673.35 336.1 673.35 311.4 664.1 288.7 655.65 272.5 647.9 257.55 640.75 237.3 634.2 L229.9 631.85 208.0 625.85 193.75 621.75 153.2 621.75 140.45 622.5 127.3 623.35 122.75 624.5 M161.85 659.65 Q163.75 656.55 168.75 654.5 159.8 649.85 156.35 646.35 152.95 642.95 152.95 638.6 152.95 625.1 166.6 631.5 170.5 633.35 177.4 637.9 183.9 642.15 185.5 642.75 L186.9 643.25 194.05 644.4 209.8 648.5 Q219.1 651.0 223.45 651.0 L230.35 649.75 238.55 648.4 271.55 648.4 Q276.4 648.85 278.5 652.25 279.75 654.3 279.75 656.85 279.75 659.65 277.55 661.95 L275.4 663.6 283.8 665.05 Q295.85 667.45 304.05 672.2 308.25 674.7 317.0 681.9 325.35 688.85 332.85 692.9 345.65 699.95 364.65 709.3 385.35 719.5 402.6 727.1 425.35 737.1 446.25 748.55 457.5 754.75 473.95 764.1 486.6 770.8 497.3 773.45 509.85 776.6 528.0 776.6 529.45 776.6 567.95 787.4 606.4 798.1 610.5 798.1 L629.7 797.9 Q632.05 794.55 632.95 794.0 635.25 792.65 641.6 792.65 659.5 792.65 670.4 798.35 674.5 800.5 676.8 803.05 678.7 805.2 678.7 806.8 678.7 809.35 677.7 810.8 676.8 812.15 674.3 813.3 665.95 816.3 658.1 819.65 L606.25 819.65 566.1 810.0 Q541.7 803.9 522.55 798.1 470.8 782.5 430.9 761.05 412.55 751.2 391.1 740.55 364.05 727.1 342.95 717.95 334.65 714.25 324.25 707.1 309.9 697.3 306.45 695.2 295.35 688.6 283.0 684.75 269.5 680.55 252.15 678.8 L247.45 679.0 242.2 678.35 199.85 678.1 Q174.7 676.45 166.55 672.95 162.9 671.4 161.5 669.2 160.5 667.45 160.5 664.55 160.5 661.65 161.85 659.65" fill="#4b4b2b" fill-rule="evenodd" stroke="none"/>
  </g>
</svg>
