<?xml version="1.0" encoding="UTF-8" standalone="no"?>
<svg xmlns:ffdec="https://www.free-decompiler.com/flash" xmlns:xlink="http://www.w3.org/1999/xlink" ffdec:objectType="shape" height="209.7px" width="203.75px" xmlns="http://www.w3.org/2000/svg">
  <g transform="matrix(1.0, 0.0, 0.0, 1.0, 132.35, 197.45)">
    <path d="M-69.85 -159.85 Q-54.4 -174.35 -47.2 -179.0 -30.75 -189.75 -15.55 -187.25 -38.6 -180.0 -47.85 -175.5 -60.1 -169.6 -69.6 -159.6 L-69.85 -159.85 M-71.25 -14.3 Q-71.25 -18.5 -62.65 -11.75 -52.95 -3.35 -50.8 -2.05 -42.0 2.95 -36.4 5.45 -26.55 9.8 -10.5 11.85 -19.8 14.3 -45.75 2.6 -56.35 -2.2 -63.6 -6.9 -71.25 -11.85 -71.25 -14.3" fill="#ffffff" fill-opacity="0.69803923" fill-rule="evenodd" stroke="none"/>
    <path d="M28.9 -24.5 Q32.2 -27.5 40.8 -29.45 49.95 -31.45 53.75 -34.25 57.7 -37.15 61.05 -41.4 64.35 -45.6 66.25 -46.9 64.35 -40.3 52.15 -31.5 39.9 -22.75 32.5 -22.75 30.5 -22.75 28.9 -24.5 M-92.9 -71.6 L-93.4 -71.5 Q-93.4 -72.55 -93.9 -73.0 L-93.9 -75.85 -93.5 -75.85 -92.9 -71.6" fill="#ffffff" fill-opacity="0.69803923" fill-rule="evenodd" stroke="none"/>
    <path d="M-84.3 -165.05 L-86.3 -161.85 Q-88.1 -158.8 -88.1 -157.95 -88.1 -157.2 -87.05 -155.0 L-85.95 -152.6 Q-85.95 -151.45 -86.1 -151.5 -88.45 -150.7 -89.9 -153.2 -90.95 -155.05 -90.95 -156.9 -90.95 -158.75 -88.9 -161.7 -86.5 -165.0 -84.3 -165.05 M-26.05 -11.35 L-26.0 -11.25 -25.15 -11.95 -23.25 -9.85 Q-21.05 -7.9 -18.2 -7.9 -16.95 -7.9 -15.55 -8.75 L-13.95 -9.7 -13.2 -9.4 Q-12.9 -9.1 -12.9 -8.35 -12.9 -4.9 -19.5 -6.2 -26.05 -7.55 -26.05 -10.55 L-26.05 -11.35" fill="#ffffff" fill-opacity="0.69803923" fill-rule="evenodd" stroke="none"/>
    <path d="M44.0 -183.0 Q42.25 -183.0 38.45 -184.7 L30.45 -188.35 Q18.05 -193.75 6.55 -193.75 L-15.8 -192.6 -16.2 -192.7 -16.75 -193.1 Q-7.25 -200.6 20.35 -195.15 30.85 -193.1 38.85 -190.0 46.8 -186.95 46.8 -185.1 46.8 -183.9 46.3 -183.5 45.7 -183.0 44.0 -183.0 M-31.9 -188.75 Q-31.75 -188.6 -31.75 -187.85 -31.75 -187.7 -47.25 -179.5 -64.95 -170.15 -73.3 -162.8 -78.65 -158.05 -84.2 -149.45 L-93.0 -136.05 -93.4 -136.05 Q-90.15 -152.1 -66.25 -171.5 -56.85 -179.2 -47.75 -184.3 -38.8 -189.3 -34.8 -189.3 L-32.1 -189.0 -31.9 -188.75 M-121.15 -72.65 Q-125.5 -71.2 -128.0 -66.25 L-130.25 -61.65 Q-131.75 -61.65 -132.15 -62.6 -132.4 -63.05 -132.3 -63.65 -132.3 -73.35 -121.05 -73.8 L-120.8 -73.35 -120.55 -72.55 -121.15 -72.65" fill="#ffffff" fill-opacity="0.69803923" fill-rule="evenodd" stroke="none"/>
    <path d="M36.75 -170.7 L36.95 -171.15 Q37.6 -170.5 38.2 -170.5 L39.9 -168.8 39.65 -168.55 36.75 -170.7 M-68.75 -124.45 Q-67.55 -125.65 -65.5 -125.5 -65.7 -121.7 -69.75 -115.35 -74.05 -108.55 -74.65 -104.55 -75.25 -100.45 -74.75 -95.85 -74.2 -91.3 -74.55 -89.35 -77.4 -94.5 -75.35 -107.25 -73.25 -119.95 -68.75 -124.45" fill="#ffffff" fill-opacity="0.69803923" fill-rule="evenodd" stroke="none"/>
    <path d="M-34.95 -180.65 Q-34.8 -180.6 -34.8 -179.8 L-44.95 -174.0 Q-56.65 -167.55 -62.0 -163.15 L-62.3 -163.4 Q-58.5 -168.55 -50.6 -173.9 -41.65 -180.05 -35.15 -180.55 L-34.95 -180.65" fill="#ffffff" fill-opacity="0.69803923" fill-rule="evenodd" stroke="none"/>
    <path d="M51.45 -156.45 Q56.65 -154.1 62.7 -148.2 69.65 -141.55 71.25 -136.0 L71.4 -135.85 Q71.4 -135.7 70.7 -135.6 L63.8 -143.3 Q56.05 -152.3 51.3 -156.15 L51.45 -156.45" fill="#ffffff" fill-opacity="0.69803923" fill-rule="evenodd" stroke="none"/>
  </g>
</svg>
