<?xml version="1.0" encoding="UTF-8" standalone="no"?>
<svg xmlns:ffdec="https://www.free-decompiler.com/flash" xmlns:xlink="http://www.w3.org/1999/xlink" ffdec:objectType="shape" height="197.55px" width="199.8px" xmlns="http://www.w3.org/2000/svg">
  <g transform="matrix(1.0, 0.0, 0.0, 1.0, 104.5, 194.8)">
    <path d="M67.15 -109.8 L67.15 -108.9 67.0 -108.65 66.15 -108.5 65.9 -108.85 65.85 -109.85 Q65.85 -111.45 66.65 -111.75 67.15 -111.05 67.15 -109.8 M77.2 -35.9 Q80.8 -39.95 83.85 -44.75 93.55 -60.15 94.15 -78.15 L95.0 -78.15 95.3 -75.5 94.3 -70.5 93.15 -64.75 92.15 -58.9 91.25 -54.15 Q81.4 -30.05 76.75 -30.05 75.1 -30.05 74.5 -31.35 74.25 -31.95 74.25 -32.8 L77.2 -35.9" fill="#ffffff" fill-rule="evenodd" stroke="none"/>
    <path d="M24.45 -188.0 L22.75 -187.75 Q21.25 -187.75 14.6 -189.5 L6.85 -191.25 Q-11.45 -191.25 -29.9 -184.65 -39.25 -181.35 -46.05 -177.5 L-46.3 -177.75 Q-42.05 -180.25 -34.85 -183.7 -26.35 -187.85 -19.4 -190.5 -7.0 -195.25 9.15 -194.75 25.15 -194.25 25.15 -189.4 25.15 -188.35 24.45 -188.0 M-96.7 -45.95 L-96.1 -47.25 Q-89.2 -32.8 -75.9 -20.35 -60.95 -6.35 -40.65 2.35 L-40.8 2.75 Q-45.9 1.7 -55.4 -3.9 -64.7 -9.4 -74.1 -16.8 -97.0 -34.9 -97.0 -44.05 L-96.7 -45.95" fill="#ffffff" fill-rule="evenodd" stroke="none"/>
    <path d="M9.2 -8.6 Q6.0 -8.6 2.25 -10.2 -1.35 -11.7 -2.4 -13.3 -0.95 -15.0 1.5 -15.0 L9.5 -13.5 Q17.25 -12.05 22.7 -12.05 31.85 -12.05 39.2 -14.2 43.0 -15.3 45.85 -16.55 L46.0 -16.25 Q41.25 -14.15 34.7 -12.3 21.55 -8.6 9.2 -8.6 M-103.95 -91.1 L-102.8 -92.45 -101.95 -92.0 Q-101.7 -91.7 -101.7 -90.75 -101.7 -88.25 -102.3 -84.0 L-103.2 -76.4 -103.7 -76.4 Q-103.7 -81.0 -104.5 -90.05 L-103.95 -91.1 M-103.2 -74.55 L-102.75 -72.4 -102.35 -69.95 -102.8 -69.7 Q-103.75 -71.15 -103.75 -72.5 L-103.7 -74.55 -103.2 -74.55" fill="#ffffff" fill-rule="evenodd" stroke="none"/>
    <path d="M-79.2 -151.0 Q-79.2 -150.0 -80.55 -149.35 -81.9 -148.7 -83.6 -148.8 -88.05 -149.1 -88.65 -153.15 L-88.8 -153.65 -88.1 -153.9 Q-86.8 -153.9 -85.7 -152.4 L-84.5 -150.9 -82.25 -151.25 -80.05 -152.05 -79.35 -151.85 Q-79.2 -151.75 -79.2 -151.0 M-19.2 -7.3 Q-14.45 -8.6 -13.4 -10.7 -12.9 -11.65 -13.1 -14.8 L-12.1 -15.15 -11.15 -14.2 -10.95 -13.45 Q-10.95 -10.8 -12.25 -9.1 -14.3 -6.4 -18.95 -6.95 L-19.2 -7.3" fill="#d7eaff" fill-opacity="0.75686276" fill-rule="evenodd" stroke="none"/>
    <path d="M67.15 -108.9 L67.0 -108.65 66.15 -108.5 65.9 -108.85 65.85 -109.85 Q65.85 -111.45 66.65 -111.75 67.15 -111.05 67.15 -109.8 L67.15 -108.9 M74.5 -31.35 Q74.25 -31.95 74.25 -32.8 L77.2 -35.9 Q80.8 -39.95 83.85 -44.75 93.55 -60.15 94.15 -78.15 L95.0 -78.15 95.3 -75.5 94.3 -70.5 93.15 -64.75 92.15 -58.9 91.25 -54.15 Q81.4 -30.05 76.75 -30.05 75.1 -30.05 74.5 -31.35" fill="#ffffff" fill-opacity="0.7372549" fill-rule="evenodd" stroke="none"/>
    <path d="M52.2 -176.5 L51.85 -176.15 50.2 -177.3 48.4 -178.6 48.55 -179.05 Q50.05 -178.8 50.95 -177.85 L52.2 -176.5 M53.45 -175.3 Q56.35 -172.4 62.7 -167.1 L63.0 -166.1 63.1 -164.5 62.35 -164.2 Q61.95 -164.3 61.4 -164.85 59.7 -166.5 57.3 -169.6 L53.1 -174.95 53.45 -175.3 M-51.9 -150.8 Q-51.8 -148.85 -53.3 -147.3 L-59.4 -143.1 Q-65.25 -139.05 -68.75 -135.55 -74.6 -129.7 -77.95 -123.65 L-80.75 -117.85 -81.0 -117.9 Q-79.3 -122.35 -76.25 -127.8 -70.2 -138.55 -62.35 -146.4 -60.25 -148.5 -56.9 -149.9 -53.6 -151.25 -51.9 -150.8" fill="#ffffff" fill-opacity="0.69803923" fill-rule="evenodd" stroke="none"/>
    <path d="M4.35 -187.7 L4.15 -186.85 -7.5 -185.75 Q-20.8 -184.65 -27.5 -182.8 L-27.65 -183.2 Q-22.1 -186.35 -12.7 -187.95 -2.0 -189.9 4.15 -187.65 L4.35 -187.7" fill="#dffbff" fill-opacity="0.827451" fill-rule="evenodd" stroke="none"/>
    <path d="M84.55 -103.15 L84.65 -102.95 83.9 -103.0 Q83.7 -103.05 80.8 -112.9 77.45 -124.25 74.6 -129.75 L74.95 -129.95 Q78.7 -125.7 81.8 -117.85 85.45 -108.9 84.55 -103.15" fill="#ffffff" fill-opacity="0.84705883" fill-rule="evenodd" stroke="none"/>
  </g>
</svg>
