<?xml version="1.0" encoding="UTF-8" standalone="no"?>
<svg xmlns:ffdec="https://www.free-decompiler.com/flash" xmlns:xlink="http://www.w3.org/1999/xlink" ffdec:objectType="shape" height="197.8px" width="219.55px" xmlns="http://www.w3.org/2000/svg">
  <g transform="matrix(1.0, 0.0, 0.0, 1.0, 132.3, 195.05)">
    <path d="M24.45 -188.0 L22.75 -187.75 Q21.25 -187.75 14.6 -189.5 L6.85 -191.25 Q-11.45 -191.25 -29.9 -184.65 -39.25 -181.35 -46.05 -177.5 L-46.3 -177.75 Q-42.05 -180.25 -34.85 -183.7 -26.35 -187.85 -19.4 -190.5 -7.0 -195.25 9.15 -194.75 25.15 -194.25 25.15 -189.4 25.15 -188.35 24.45 -188.0 M-96.7 -45.95 L-96.1 -47.25 Q-89.2 -32.8 -75.9 -20.35 -60.95 -6.35 -40.65 2.35 L-40.8 2.75 Q-45.9 1.7 -55.4 -3.9 -64.7 -9.4 -74.1 -16.8 -97.0 -34.9 -97.0 -44.05 L-96.7 -45.95" fill="#ffffff" fill-opacity="0.69803923" fill-rule="evenodd" stroke="none"/>
    <path d="M9.65 -20.4 Q6.65 -20.4 3.2 -21.85 -0.15 -23.25 -1.1 -24.75 0.25 -26.3 2.5 -26.3 L9.9 -24.95 Q17.1 -23.6 22.15 -23.6 30.65 -23.6 37.45 -25.6 40.95 -26.6 43.6 -27.75 L43.75 -27.5 Q39.35 -25.55 33.25 -23.8 21.1 -20.4 9.65 -20.4 M-94.15 -98.1 L-93.4 -97.7 Q-93.15 -97.4 -93.15 -96.55 -93.15 -94.2 -93.7 -90.25 L-94.55 -83.25 -95.0 -83.25 Q-95.0 -87.5 -95.75 -95.9 L-95.25 -96.85 -94.15 -98.1 M-94.55 -81.5 L-94.1 -79.5 Q-93.75 -78.1 -93.75 -77.25 L-94.15 -77.0 Q-95.05 -78.35 -95.05 -79.6 L-95.0 -81.5 -94.55 -81.5" fill="#ffffff" fill-opacity="0.69803923" fill-rule="evenodd" stroke="none"/>
    <path d="M-79.2 -151.0 Q-79.2 -150.0 -80.55 -149.35 -81.9 -148.7 -83.6 -148.8 -88.05 -149.1 -88.65 -153.15 L-88.8 -153.65 -88.1 -153.9 Q-86.8 -153.9 -85.7 -152.4 L-84.5 -150.9 -82.25 -151.25 -80.05 -152.05 -79.35 -151.85 Q-79.2 -151.75 -79.2 -151.0 M-19.2 -7.3 Q-14.45 -8.6 -13.4 -10.7 -12.9 -11.65 -13.1 -14.8 L-12.1 -15.15 -11.15 -14.2 -10.95 -13.45 Q-10.95 -10.8 -12.25 -9.1 -14.3 -6.4 -18.95 -6.95 L-19.2 -7.3" fill="#ffffff" fill-opacity="0.69803923" fill-rule="evenodd" stroke="none"/>
    <path d="M84.5 -148.55 Q84.05 -148.55 76.85 -158.75 69.05 -169.8 65.25 -172.5 59.5 -176.5 51.45 -182.25 44.45 -186.5 32.85 -190.05 37.5 -190.85 46.8 -186.65 55.4 -182.75 64.9 -176.05 74.5 -169.3 80.55 -162.7 87.25 -155.5 87.25 -151.05 87.25 -150.25 86.65 -149.5 85.85 -148.55 84.5 -148.55 M8.65 -189.4 L3.5 -190.2 -10.05 -191.05 Q-25.25 -191.05 -46.15 -180.5 -53.1 -177.05 -67.8 -167.75 -64.3 -170.15 -57.0 -176.3 -51.25 -181.15 -46.65 -183.7 -33.2 -191.1 -1.0 -195.05 5.35 -195.1 8.85 -193.9 11.85 -192.85 11.85 -191.25 11.85 -189.4 8.65 -189.4 M-129.5 -64.25 Q-129.5 -62.7 -128.6 -60.2 L-127.25 -56.35 -127.5 -55.0 -127.6 -54.8 -128.5 -54.6 Q-130.25 -54.6 -131.3 -57.75 -131.85 -59.35 -132.05 -61.05 L-132.3 -65.5 Q-132.05 -67.4 -128.85 -69.25 L-129.15 -66.65 -129.5 -64.25" fill="#ffffff" fill-opacity="0.69803923" fill-rule="evenodd" stroke="none"/>
    <path d="M45.05 -164.95 Q47.6 -162.4 53.15 -157.75 L53.4 -156.9 53.5 -155.5 52.85 -155.25 Q52.5 -155.3 52.0 -155.8 50.55 -157.25 48.45 -159.95 L44.75 -164.65 45.05 -164.95 M43.65 -165.7 L42.2 -166.7 40.65 -167.85 40.75 -168.25 Q42.1 -168.0 42.85 -167.2 L43.95 -166.0 43.65 -165.7 M-51.6 -142.7 Q-48.7 -143.9 -47.2 -143.5 -47.1 -141.8 -48.45 -140.45 L-53.75 -136.75 Q-58.9 -133.2 -61.95 -130.15 -67.1 -125.0 -70.0 -119.7 L-72.45 -114.65 -72.7 -114.7 Q-71.2 -118.6 -68.55 -123.35 -63.25 -132.75 -56.35 -139.65 -54.5 -141.5 -51.6 -142.7" fill="#ffffff" fill-opacity="0.69803923" fill-rule="evenodd" stroke="none"/>
    <path d="M4.35 -187.7 L4.15 -186.85 -7.5 -185.75 Q-20.8 -184.65 -27.5 -182.8 L-27.65 -183.2 Q-22.1 -186.35 -12.7 -187.95 -2.0 -189.9 4.15 -187.65 L4.35 -187.7" fill="#ffffff" fill-opacity="0.69803923" fill-rule="evenodd" stroke="none"/>
    <path d="M84.55 -103.15 L84.65 -102.95 83.9 -103.0 Q83.7 -103.05 80.8 -112.9 77.45 -124.25 74.6 -129.75 L74.95 -129.95 Q78.7 -125.7 81.8 -117.85 85.45 -108.9 84.55 -103.15" fill="#ffffff" fill-opacity="0.69803923" fill-rule="evenodd" stroke="none"/>
  </g>
</svg>
