<?xml version="1.0" encoding="UTF-8" standalone="no"?>
<svg xmlns:ffdec="https://www.free-decompiler.com/flash" xmlns:xlink="http://www.w3.org/1999/xlink" ffdec:objectType="shape" height="183.25px" width="233.25px" xmlns="http://www.w3.org/2000/svg">
  <g transform="matrix(1.0, 0.0, 0.0, 1.0, 130.9, 194.1)">
    <path d="M50.1 -176.75 Q48.25 -176.75 43.85 -179.1 L33.95 -184.25 Q17.75 -191.75 -2.0 -191.75 L-5.05 -192.0 -5.85 -192.35 Q-2.05 -194.6 7.9 -193.95 16.85 -193.4 27.65 -190.8 38.25 -188.25 45.35 -185.0 53.05 -181.45 53.05 -178.65 53.05 -177.9 52.3 -177.35 51.45 -176.75 50.1 -176.75 M-107.95 -106.65 Q-105.35 -106.55 -106.05 -93.4 L-105.65 -81.85 Q-105.25 -75.15 -104.0 -70.35 -101.2 -59.6 -94.65 -47.1 -88.6 -35.6 -80.1 -23.9 L-80.15 -23.7 -80.6 -23.4 Q-92.55 -36.05 -101.7 -59.15 -110.65 -81.7 -110.65 -97.75 -110.65 -101.55 -109.8 -104.2 -109.0 -106.7 -107.95 -106.65" fill="#ffffff" fill-opacity="0.69803923" fill-rule="evenodd" stroke="none"/>
    <path d="M9.75 -22.0 Q9.2 -21.3 7.65 -21.3 -5.7 -21.3 -17.5 -26.25 -28.95 -31.05 -32.1 -37.55 -28.35 -36.6 -24.85 -34.45 L-18.45 -30.25 Q-8.95 -24.55 9.4 -22.35 L9.75 -22.0 M-90.85 -106.05 Q-91.8 -103.6 -92.8 -98.4 -93.95 -92.6 -94.65 -90.4 L-94.8 -92.05 -95.0 -93.8 Q-95.0 -101.1 -91.0 -109.65 -86.9 -118.5 -81.1 -123.0 -80.6 -123.4 -80.6 -122.15 -80.6 -121.55 -85.15 -115.15 -90.0 -108.2 -90.85 -106.05" fill="#ffffff" fill-opacity="0.69803923" fill-rule="evenodd" stroke="none"/>
    <path d="M-77.05 -156.4 Q-76.9 -156.25 -76.9 -155.5 -76.9 -153.95 -78.0 -152.35 -79.35 -150.3 -81.55 -150.65 -80.4 -153.0 -77.6 -156.6 L-77.05 -156.4 M-19.05 -19.7 L-18.85 -20.75 -17.0 -21.0 Q-14.05 -21.0 -12.45 -17.65 -11.4 -15.4 -11.4 -13.9 L-11.6 -11.9 Q-11.9 -10.5 -12.65 -11.0 -12.5 -13.85 -12.9 -15.5 -13.55 -18.55 -18.85 -18.9 L-19.05 -19.7" fill="#ffffff" fill-opacity="0.69803923" fill-rule="evenodd" stroke="none"/>
    <path d="M90.4 -138.25 Q84.6 -154.5 75.35 -164.5 81.15 -162.65 91.8 -144.1 102.35 -125.75 102.35 -118.05 102.35 -116.3 102.0 -115.5 101.5 -114.4 99.8 -113.25 97.3 -117.95 94.75 -125.35 L90.4 -138.25 M56.8 -171.35 Q48.25 -176.1 37.6 -180.8 16.35 -190.3 5.3 -190.3 L0.25 -190.8 -4.5 -191.6 Q15.0 -194.65 35.1 -187.3 52.7 -180.9 58.0 -172.4 L57.8 -171.7 Q57.6 -171.35 56.8 -171.35 M-122.3 -54.25 L-123.05 -53.05 Q-123.6 -52.5 -125.15 -52.5 -128.75 -52.5 -130.2 -56.6 -130.9 -58.65 -130.9 -60.85 -130.9 -61.6 -130.7 -61.5 L-130.5 -61.3 -126.8 -58.1 -122.3 -54.25" fill="#ffffff" fill-opacity="0.69803923" fill-rule="evenodd" stroke="none"/>
    <path d="M52.85 -154.45 Q50.05 -158.65 49.15 -160.45 L50.25 -159.5 51.4 -158.6 Q55.85 -154.15 58.6 -146.55 61.45 -138.75 60.7 -132.5 60.65 -131.95 59.9 -132.7 59.5 -133.1 58.4 -139.7 57.1 -146.8 56.35 -148.65 55.4 -150.7 52.85 -154.45 M-33.4 -150.7 Q-42.6 -148.4 -55.0 -138.6 L-55.45 -138.65 Q-55.5 -139.4 -54.6 -140.3 -46.5 -148.4 -36.35 -152.55 -26.55 -156.55 -20.65 -154.55 -23.55 -152.85 -26.95 -152.05 L-33.4 -150.7" fill="#ffffff" fill-opacity="0.69803923" fill-rule="evenodd" stroke="none"/>
    <path d="M42.75 -178.2 L42.2 -177.45 Q42.05 -177.35 31.1 -181.2 18.5 -185.6 11.65 -186.65 L11.65 -187.0 Q18.0 -187.6 27.3 -185.35 37.8 -182.75 42.55 -178.25 L42.75 -178.2" fill="#ffffff" fill-opacity="0.69803923" fill-rule="evenodd" stroke="none"/>
    <path d="M83.35 -68.1 L83.35 -67.9 Q83.2 -67.8 82.6 -68.25 L83.85 -78.6 Q85.4 -90.35 85.05 -96.45 L85.35 -96.55 Q87.05 -91.1 86.75 -82.65 86.4 -73.0 83.35 -68.1" fill="#ffffff" fill-opacity="0.69803923" fill-rule="evenodd" stroke="none"/>
  </g>
</svg>
