<?xml version="1.0" encoding="UTF-8" standalone="no"?>
<svg xmlns:ffdec="https://www.free-decompiler.com/flash" xmlns:xlink="http://www.w3.org/1999/xlink" ffdec:objectType="shape" height="192.15px" width="204.95px" xmlns="http://www.w3.org/2000/svg">
  <g transform="matrix(1.0, 0.0, 0.0, 1.0, 103.35, 195.35)">
    <path d="M-73.8 -150.55 Q-73.8 -147.7 -83.1 -137.1 -92.1 -126.85 -95.05 -125.55 L-88.1 -133.15 Q-84.3 -137.4 -82.65 -140.25 L-76.1 -151.65 Q-73.8 -155.15 -73.8 -150.55 M-98.15 -76.9 Q-91.75 -55.2 -85.85 -43.85 -75.8 -24.55 -58.0 -10.25 L-58.3 -10.0 Q-68.25 -16.85 -75.85 -24.1 -85.05 -32.9 -87.9 -39.75 L-88.05 -40.15 -91.0 -44.45 -93.4 -48.65 -98.05 -54.0 -98.65 -54.7 -100.45 -55.75 Q-102.25 -56.75 -102.35 -58.8 L-103.35 -59.5 Q-103.35 -64.6 -98.3 -59.5 L-95.75 -56.6 Q-99.3 -65.2 -99.3 -70.5 L-98.95 -73.35 Q-98.55 -75.85 -98.5 -76.9 L-98.15 -76.9" fill="#ffffff" fill-rule="evenodd" stroke="none"/>
    <path d="M101.0 -98.4 Q101.6 -95.15 101.6 -92.1 101.6 -87.7 99.55 -79.45 L97.5 -72.1 Q97.5 -70.75 93.0 -62.5 88.4 -54.2 86.5 -52.3 L85.8 -52.35 Q85.6 -52.4 85.6 -53.15 85.6 -53.75 86.1 -55.55 L86.6 -58.0 Q86.6 -58.6 91.3 -67.1 96.2 -75.95 96.75 -78.3 99.9 -92.05 100.55 -98.4 L101.0 -98.4 M-5.35 -165.25 L-5.6 -165.05 -6.6 -164.85 Q-8.8 -164.85 -13.9 -167.25 -19.6 -169.9 -21.5 -170.25 L-32.3 -172.5 -44.75 -174.8 Q-29.9 -175.7 -19.1 -172.65 -12.5 -170.8 -5.0 -166.35 L-5.35 -165.25" fill="#ffffff" fill-rule="evenodd" stroke="none"/>
    <path d="M3.45 -188.4 L-9.15 -187.45 Q-20.7 -182.85 -24.25 -180.95 -30.35 -177.7 -36.1 -172.15 L-45.6 -163.15 Q-41.6 -170.85 -32.4 -178.15 -23.95 -184.8 -13.45 -189.5 -3.25 -194.1 5.05 -195.1 13.85 -196.15 17.15 -192.75 15.1 -189.6 3.45 -188.4 M-54.35 -72.7 Q-53.9 -72.55 -53.9 -71.7 -53.9 -71.35 -55.8 -68.45 -57.9 -65.25 -58.4 -63.75 L-58.9 -63.6 -59.1 -63.95 -59.2 -65.0 Q-59.2 -67.15 -58.3 -69.25 -57.2 -71.75 -55.3 -72.95 L-54.35 -72.7" fill="#ffffff" fill-rule="evenodd" stroke="none"/>
    <path d="M74.55 -136.05 L74.65 -136.4 75.25 -136.9 Q77.05 -135.3 77.75 -133.25 78.25 -131.85 78.35 -129.3 L78.0 -129.3 Q77.7 -130.6 76.6 -132.7 L74.55 -136.05 M4.4 -4.35 L6.85 -4.6 8.1 -4.4 9.5 -4.05 Q3.75 -2.8 2.5 -3.35 L2.5 -4.0 4.4 -4.35 M-86.95 -171.85 Q-86.65 -171.65 -86.65 -170.85 -86.65 -169.7 -86.9 -168.85 -87.95 -168.95 -89.0 -171.2 L-88.45 -171.8 Q-87.95 -172.2 -87.6 -172.2 L-86.95 -171.85 M-36.2 -21.45 Q-37.3 -21.45 -38.75 -22.5 L-40.4 -24.0 -39.85 -24.55 Q-39.0 -24.4 -38.2 -23.5 L-36.2 -21.45" fill="#d7eaff" fill-opacity="0.75686276" fill-rule="evenodd" stroke="none"/>
    <path d="M-73.8 -150.55 Q-73.8 -147.7 -83.1 -137.1 -92.1 -126.85 -95.05 -125.55 L-88.1 -133.15 Q-84.3 -137.4 -82.65 -140.25 L-76.1 -151.65 Q-73.8 -155.15 -73.8 -150.55 M-98.15 -76.9 Q-91.75 -55.2 -85.85 -43.85 -75.8 -24.55 -58.0 -10.25 L-58.3 -10.0 Q-68.25 -16.85 -75.85 -24.1 -85.05 -32.9 -87.9 -39.75 L-88.05 -40.15 -91.0 -44.45 -93.4 -48.65 -98.05 -54.0 -98.65 -54.7 -100.45 -55.75 Q-102.25 -56.75 -102.35 -58.8 L-103.35 -59.5 Q-103.35 -64.6 -98.3 -59.5 L-95.75 -56.6 Q-99.3 -65.2 -99.3 -70.5 L-98.95 -73.35 Q-98.55 -75.85 -98.5 -76.9 L-98.15 -76.9" fill="#ffffff" fill-opacity="0.7372549" fill-rule="evenodd" stroke="none"/>
    <path d="M19.7 -150.8 Q20.6 -148.5 20.2 -146.55 19.7 -146.15 19.4 -146.05 19.0 -145.9 18.45 -146.45 18.25 -146.65 17.6 -149.7 16.9 -153.15 16.25 -154.45 L16.55 -154.85 Q16.65 -154.75 16.85 -154.7 L17.6 -154.2 Q19.0 -152.75 19.7 -150.8 M71.45 -70.75 L71.75 -82.5 Q74.1 -75.05 72.9 -64.5 71.75 -54.8 68.0 -45.05 64.45 -35.6 59.8 -29.65 54.8 -23.3 50.55 -23.4 49.8 -26.75 56.5 -34.95 59.95 -39.2 63.95 -43.65 68.4 -53.9 69.5 -57.4 71.3 -63.45 71.45 -70.75" fill="#ffffff" fill-opacity="0.69803923" fill-rule="evenodd" stroke="none"/>
    <path d="M93.65 -71.8 L94.05 -71.75 Q93.95 -65.35 90.6 -56.4 86.9 -46.2 81.9 -42.05 L81.8 -41.8 81.2 -42.45 Q81.05 -42.6 86.05 -53.1 91.85 -65.15 93.65 -71.8" fill="#dffbff" fill-opacity="0.827451" fill-rule="evenodd" stroke="none"/>
    <path d="M0.2 -4.0 Q-5.4 -2.95 -13.75 -4.25 -23.3 -5.6 -27.8 -9.2 L-28.05 -9.25 -27.55 -9.85 -17.45 -7.6 Q-5.95 -4.7 0.2 -4.4 L0.2 -4.0" fill="#ffffff" fill-opacity="0.84705883" fill-rule="evenodd" stroke="none"/>
  </g>
</svg>
