<?xml version="1.0" encoding="UTF-8" standalone="no"?>
<svg xmlns:ffdec="https://www.free-decompiler.com/flash" xmlns:xlink="http://www.w3.org/1999/xlink" ffdec:objectType="shape" height="169.75px" width="224.4px" xmlns="http://www.w3.org/2000/svg">
  <g transform="matrix(1.0, 0.0, 0.0, 1.0, 120.25, 178.35)">
    <path d="M94.8 -121.75 Q94.3 -120.6 92.6 -119.5 90.45 -126.15 87.35 -139.5 83.6 -151.25 75.0 -159.75 83.8 -152.35 89.25 -142.95 95.05 -133.0 95.05 -124.25 L94.8 -121.75 M104.15 -86.55 Q104.15 -82.0 102.6 -73.0 101.05 -64.8 101.05 -64.25 99.15 -57.65 96.75 -51.2 91.95 -38.25 89.55 -38.25 87.75 -38.25 87.25 -39.55 87.0 -40.25 87.1 -41.05 87.1 -41.45 92.35 -51.85 98.0 -63.15 99.65 -69.6 103.0 -82.55 103.0 -98.0 L103.5 -98.0 Q104.15 -91.75 104.15 -86.55 M-115.9 -50.65 Q-118.05 -50.65 -120.25 -52.0 -119.6 -53.15 -117.05 -53.6 -114.3 -54.15 -113.75 -52.25 -115.1 -50.65 -115.9 -50.65" fill="#ffffff" fill-rule="evenodd" stroke="none"/>
    <path d="M24.85 -169.85 L25.05 -169.0 Q25.05 -168.15 22.7 -167.5 L20.15 -167.0 17.55 -167.2 Q14.95 -167.6 14.3 -168.55 L14.15 -169.0 24.65 -170.0 24.85 -169.85 M82.75 -19.5 L83.3 -17.4 83.25 -16.6 82.9 -16.6 Q81.75 -16.65 81.1 -17.65 80.5 -18.5 80.5 -19.5 80.5 -21.0 82.15 -21.85 82.2 -21.05 82.75 -19.5" fill="#ffffff" fill-rule="evenodd" stroke="none"/>
    <path d="M32.85 -14.0 L32.7 -14.35 Q32.5 -14.5 32.5 -15.3 32.5 -16.95 39.7 -19.85 L48.15 -23.3 54.6 -28.95 56.3 -30.45 Q63.6 -38.8 65.75 -38.65 60.35 -33.25 54.3 -23.4 L45.2 -8.6 Q43.35 -9.4 43.35 -11.0 43.35 -13.95 48.95 -21.45 43.05 -17.05 34.7 -13.55 L32.85 -14.0 M70.15 -43.05 Q70.1 -42.5 69.2 -41.5 68.05 -40.4 66.75 -40.0 L66.55 -40.15 66.3 -40.65 67.65 -42.05 Q68.75 -43.05 70.15 -43.05" fill="#ffffff" fill-rule="evenodd" stroke="none"/>
    <path d="M86.95 -82.35 L87.4 -82.45 87.65 -80.5 87.2 -73.4 85.95 -66.15 85.5 -62.7 Q85.15 -60.4 85.35 -59.0 85.6 -56.2 83.6 -54.55 81.6 -53.0 81.6 -56.7 81.6 -58.45 83.5 -61.55 85.5 -64.85 85.95 -69.55 L86.6 -75.95 86.95 -82.35 M-48.2 -177.45 L-47.4 -177.2 Q-47.15 -177.0 -47.15 -176.25 L-50.05 -174.25 Q-54.1 -171.75 -57.55 -169.05 -69.85 -159.35 -78.7 -144.65 -82.35 -138.5 -85.1 -128.7 -88.9 -115.1 -89.8 -112.6 L-90.1 -112.6 -90.3 -112.9 -90.3 -113.75 Q-90.3 -119.05 -86.85 -128.9 -83.2 -139.3 -77.6 -149.25 -63.2 -174.8 -48.2 -177.45" fill="#d7eaff" fill-opacity="0.75686276" fill-rule="evenodd" stroke="none"/>
    <path d="M92.6 -119.5 Q90.45 -126.15 87.35 -139.5 83.6 -151.25 75.0 -159.75 83.8 -152.35 89.25 -142.95 95.05 -133.0 95.05 -124.25 L94.8 -121.75 Q94.3 -120.6 92.6 -119.5 M104.15 -86.55 Q104.15 -82.0 102.6 -73.0 101.05 -64.8 101.05 -64.25 99.15 -57.65 96.75 -51.2 91.95 -38.25 89.55 -38.25 87.75 -38.25 87.25 -39.55 87.0 -40.25 87.1 -41.05 87.1 -41.45 92.35 -51.85 98.0 -63.15 99.65 -69.6 103.0 -82.55 103.0 -98.0 L103.5 -98.0 Q104.15 -91.75 104.15 -86.55 M-120.25 -52.0 Q-119.6 -53.15 -117.05 -53.6 -114.3 -54.15 -113.75 -52.25 -115.1 -50.65 -115.9 -50.65 -118.05 -50.65 -120.25 -52.0" fill="#ffffff" fill-opacity="0.7372549" fill-rule="evenodd" stroke="none"/>
    <path d="M-75.4 -126.95 L-74.05 -127.85 -73.7 -127.75 Q-73.5 -127.75 -72.95 -127.25 -71.9 -126.15 -74.7 -119.7 L-77.85 -112.05 -78.4 -104.35 -78.5 -102.3 Q-77.8 -92.25 -79.3 -90.95 -79.3 -97.8 -81.75 -108.05 L-85.35 -123.4 Q-83.7 -124.05 -82.65 -123.0 -80.8 -121.1 -79.6 -112.75 -78.6 -119.4 -75.4 -126.95 M-78.4 -89.35 L-78.35 -87.6 Q-78.45 -86.25 -79.35 -85.3 L-79.7 -86.9 Q-79.7 -88.4 -79.15 -89.45 L-78.85 -89.5 -78.4 -89.35" fill="#ffffff" fill-opacity="0.69803923" fill-rule="evenodd" stroke="none"/>
    <path d="M-96.95 -65.6 L-97.25 -65.4 Q-100.3 -71.05 -101.75 -80.45 -103.4 -91.2 -101.0 -97.25 L-101.05 -97.55 -100.2 -97.3 Q-100.05 -97.2 -99.35 -85.6 -98.6 -72.3 -96.95 -65.6" fill="#dffbff" fill-opacity="0.827451" fill-rule="evenodd" stroke="none"/>
    <path d="M-39.8 -168.85 L-40.05 -169.05 Q-35.65 -172.75 -27.75 -175.7 -18.7 -179.1 -13.05 -178.1 L-12.8 -178.2 Q-12.65 -178.05 -12.85 -177.4 -12.9 -177.25 -22.9 -174.55 -34.3 -171.45 -39.8 -168.85" fill="#ffffff" fill-opacity="0.84705883" fill-rule="evenodd" stroke="none"/>
  </g>
</svg>
