<?xml version="1.0" encoding="UTF-8" standalone="no"?>
<svg xmlns:ffdec="https://www.free-decompiler.com/flash" xmlns:xlink="http://www.w3.org/1999/xlink" ffdec:objectType="shape" height="144.9px" width="147.3px" xmlns="http://www.w3.org/2000/svg">
  <g transform="matrix(1.0, 0.0, 0.0, 1.0, 74.3, 163.0)">
    <path d="M20.6 -162.65 Q46.65 -157.4 52.75 -144.9 53.95 -142.35 56.1 -134.05 57.8 -127.3 60.75 -123.5 68.1 -113.9 70.9 -102.85 73.0 -94.5 73.0 -82.25 73.0 -78.6 71.2 -70.5 68.6 -58.5 63.75 -48.6 48.85 -18.1 19.15 -18.1 13.75 -18.1 0.5 -22.6 L-12.9 -25.1 Q-31.35 -28.75 -38.5 -31.55 -55.85 -38.4 -63.15 -50.25 -74.3 -68.2 -74.3 -88.3 -74.3 -114.9 -60.25 -133.35 -42.1 -157.15 -3.75 -160.1 L8.3 -161.95 Q14.95 -163.65 20.6 -162.65 M49.45 -123.0 Q34.85 -151.9 15.6 -151.9 L-3.9 -150.05 -10.25 -149.3 -12.25 -149.0 -12.7 -149.0 -20.9 -147.9 Q-25.25 -146.45 -29.05 -144.65 -41.8 -138.6 -49.25 -127.55 -56.6 -116.55 -59.45 -109.3 -62.65 -101.2 -62.65 -91.85 -62.65 -83.1 -59.85 -72.55 -56.9 -61.25 -52.15 -53.5 -46.25 -43.85 -19.15 -37.85 L-14.3 -36.0 -13.55 -36.05 Q-10.95 -36.05 -4.6 -34.3 1.75 -32.6 12.25 -32.6 41.7 -32.6 54.0 -59.6 60.65 -74.3 60.65 -89.9 60.65 -92.85 57.85 -101.95 54.4 -113.2 49.45 -123.0 M1.9 -97.1 Q1.9 -101.05 -1.3 -99.85 -4.55 -98.65 -4.55 -95.3 -4.55 -94.75 -3.1 -94.2 -1.9 -93.75 -1.5 -93.75 1.0 -93.75 1.65 -95.15 L1.9 -97.1 M2.8 -94.2 Q1.85 -92.5 -1.5 -92.5 -4.65 -92.5 -5.75 -93.8 -6.25 -94.4 -6.25 -95.3 -6.25 -96.95 -4.8 -98.95 -3.35 -100.85 -1.55 -101.7 3.15 -104.0 3.15 -96.85 3.15 -94.85 2.8 -94.2" fill="url(#gradient0)" fill-rule="evenodd" stroke="none"/>
  </g>
  <defs>
    <radialGradient cx="0" cy="0" gradientTransform="matrix(0.1186, 0.0, 0.0, 0.1186, 1.55, -91.1)" gradientUnits="userSpaceOnUse" id="gradient0" r="819.2" spreadMethod="pad">
      <stop offset="0.0" stop-color="#6600ff" stop-opacity="0.011764706"/>
      <stop offset="0.47843137254901963" stop-color="#8aeeff" stop-opacity="0.7490196"/>
      <stop offset="1.0" stop-color="#8ae2ff" stop-opacity="0.0"/>
    </radialGradient>
  </defs>
</svg>
