<?xml version="1.0" encoding="UTF-8" standalone="no"?>
<svg xmlns:ffdec="https://www.free-decompiler.com/flash" xmlns:xlink="http://www.w3.org/1999/xlink" ffdec:objectType="shape" height="129.85px" width="129.0px" xmlns="http://www.w3.org/2000/svg">
  <g transform="matrix(1.0, 0.0, 0.0, 1.0, 65.75, 155.15)">
    <path d="M18.4 -153.8 Q46.3 -148.5 57.0 -120.75 63.25 -104.5 63.25 -80.25 63.25 -57.5 47.05 -40.7 40.1 -33.45 31.7 -29.35 23.45 -25.3 15.85 -25.3 8.7 -25.3 -7.3 -30.5 L-24.1 -35.9 Q-33.15 -36.7 -42.55 -41.85 -50.55 -46.2 -54.0 -50.65 -59.9 -58.3 -63.0 -68.7 -65.75 -77.75 -65.75 -86.55 -65.75 -95.4 -62.25 -105.3 L-54.85 -125.5 Q-48.4 -145.9 -31.5 -152.25 -18.45 -157.15 1.5 -153.8 L18.4 -153.8 M31.6 -135.75 Q24.0 -141.1 6.65 -141.1 -9.95 -141.1 -15.15 -140.8 -23.4 -140.3 -27.75 -138.5 -32.1 -136.65 -35.6 -132.1 -38.1 -128.85 -43.25 -119.5 -48.15 -107.2 -49.6 -102.35 -51.9 -94.4 -51.9 -86.3 -51.9 -76.9 -51.05 -73.15 -49.7 -67.6 -44.5 -59.6 -37.45 -49.05 -26.8 -47.3 L-4.6 -42.85 Q6.65 -40.4 10.85 -40.4 34.8 -40.4 44.9 -65.45 50.55 -79.4 50.55 -94.1 50.55 -102.65 49.6 -107.85 48.15 -115.4 44.25 -120.75 L38.0 -129.35 Q34.8 -133.55 31.6 -135.75 M0.6 -96.85 Q0.6 -99.2 -1.05 -98.6 -2.75 -98.0 -2.75 -96.8 L-2.65 -96.05 -2.6 -96.25 -1.6 -95.15 -0.85 -95.3 Q-0.05 -95.45 0.35 -95.75 L0.5 -95.95 0.6 -96.85 M1.4 -97.05 Q1.4 -96.35 0.85 -95.3 0.3 -94.3 0.0 -94.3 -2.15 -94.3 -2.95 -95.05 -3.4 -95.4 -3.4 -95.9 -3.4 -97.25 -2.85 -98.1 L-1.0 -100.05 Q0.25 -99.7 0.9 -98.6 L1.4 -97.05" fill="url(#gradient0)" fill-rule="evenodd" stroke="none"/>
  </g>
  <defs>
    <radialGradient cx="0" cy="0" gradientTransform="matrix(0.1186, 0.0, 0.0, 0.1186, 1.55, -91.1)" gradientUnits="userSpaceOnUse" id="gradient0" r="819.2" spreadMethod="pad">
      <stop offset="0.0" stop-color="#6600ff" stop-opacity="0.011764706"/>
      <stop offset="0.47843137254901963" stop-color="#8aeeff" stop-opacity="0.7490196"/>
      <stop offset="1.0" stop-color="#8ae2ff" stop-opacity="0.0"/>
    </radialGradient>
  </defs>
</svg>
