<?xml version="1.0" encoding="UTF-8" standalone="no"?>
<svg xmlns:ffdec="https://www.free-decompiler.com/flash" xmlns:xlink="http://www.w3.org/1999/xlink" ffdec:objectType="shape" height="23.95px" width="33.2px" xmlns="http://www.w3.org/2000/svg">
  <g transform="matrix(1.0, 0.0, 0.0, 1.0, 31.3, 95.1)">
    <path d="M1.6 -95.1 L1.9 -94.65 Q1.3 -93.2 -0.15 -92.65 L-0.25 -92.15 -3.0 -91.3 -2.45 -91.4 -3.2 -90.8 Q-6.45 -90.4 -9.25 -89.35 -13.1 -87.9 -19.8 -88.4 L-30.95 -89.65 -31.3 -90.15 Q-26.0 -89.95 -16.35 -90.55 L-6.0 -91.2 -5.0 -91.65 -0.35 -93.25 -0.3 -93.1 0.3 -93.75 1.6 -95.1 M0.55 -71.15 L0.05 -71.75 Q-3.65 -85.9 0.2 -91.7 -0.25 -81.2 0.8 -71.3 L0.55 -71.15" fill="#ffffff" fill-opacity="0.76862746" fill-rule="evenodd" stroke="none"/>
  </g>
</svg>
