<?xml version="1.0" encoding="UTF-8" standalone="no"?>
<svg xmlns:ffdec="https://www.free-decompiler.com/flash" xmlns:xlink="http://www.w3.org/1999/xlink" ffdec:objectType="shape" height="182.0px" width="564.25px" xmlns="http://www.w3.org/2000/svg">
  <g transform="matrix(1.0, 0.0, 0.0, 1.0, -740.0, 74.0)">
    <path d="M1304.25 -12.0 Q1304.25 -4.95 1295.8 4.5 1287.9 13.35 1275.35 21.5 1262.7 29.7 1250.35 34.0 1236.95 38.6 1228.25 37.0 L1224.25 44.0 Q1240.55 46.05 1248.25 53.8 1254.25 59.8 1254.25 68.25 1254.25 77.5 1246.3 83.45 1233.8 92.8 1206.25 86.5 1204.05 88.0 1201.95 91.95 L1198.2 99.15 Q1192.8 108.0 1182.25 108.0 1157.95 108.0 1136.35 104.15 1117.55 100.85 1095.05 93.5 1082.8 89.5 1049.45 77.2 1015.4 64.65 990.75 56.5 983.55 54.15 957.65 47.9 932.35 41.8 918.45 37.1 872.0 21.5 872.0 -2.0 872.0 -11.85 882.5 -20.0 879.65 -21.6 877.25 -24.55 874.65 -27.6 872.95 -28.7 866.2 -33.05 842.0 -33.5 L771.5 -33.5 Q753.55 -29.3 745.35 -37.95 740.0 -43.6 740.0 -52.0 740.0 -60.0 745.05 -64.95 751.2 -71.05 766.0 -74.0 L838.0 -74.0 Q847.6 -72.05 903.9 -68.6 L964.0 -66.0 1034.25 -66.0 Q1063.4 -62.4 1098.45 -59.95 L1153.25 -56.5 1270.25 -56.0 Q1285.0 -53.45 1288.65 -45.15 1289.9 -42.25 1289.95 -38.25 L1289.75 -32.25 Q1289.75 -31.05 1297.0 -23.45 1304.25 -15.8 1304.25 -12.0" fill="#3f2e3f" fill-rule="evenodd" stroke="none"/>
  </g>
</svg>
