<?xml version="1.0" encoding="UTF-8" standalone="no"?>
<svg xmlns:ffdec="https://www.free-decompiler.com/flash" xmlns:xlink="http://www.w3.org/1999/xlink" ffdec:objectType="shape" height="167.25px" width="840.65px" xmlns="http://www.w3.org/2000/svg">
  <g transform="matrix(1.0, 0.0, 0.0, 1.0, -507.85, -28.75)">
    <path d="M1332.55 159.25 L1333.85 157.15 Q1335.15 155.8 1341.2 158.3 L1341.25 158.0 1342.75 158.0 1343.4 159.0 1343.45 159.3 1345.05 160.05 1345.0 159.1 Q1345.0 157.55 1345.15 157.75 L1345.25 158.25 Q1345.8 157.7 1347.75 158.0 L1348.5 158.75 Q1348.5 160.25 1347.75 161.0 L1346.75 161.0 1347.4 162.0 1347.5 164.35 1347.35 166.75 1346.25 168.25 1344.45 168.4 Q1344.0 168.4 1344.0 166.85 1344.0 165.4 1344.55 163.65 L1344.85 162.75 1343.5 162.85 1343.25 164.75 1341.5 165.0 1341.05 163.95 1341.0 162.85 1338.5 162.5 1338.5 167.25 1338.5 167.65 Q1338.15 168.0 1336.6 168.0 1333.4 168.0 1333.05 166.05 1333.2 163.8 1332.75 163.25 L1332.25 164.45 Q1331.8 165.25 1330.25 165.25 1326.7 165.25 1324.0 161.25 L1324.0 160.0 1325.9 160.25 1329.25 160.5 Q1331.6 160.5 1332.55 159.25 M1171.25 160.75 Q1180.25 160.75 1185.3 163.4 L1188.0 164.55 Q1189.25 164.75 1191.25 163.75 1192.5 165.35 1193.0 166.95 L1193.5 169.5 1194.2 167.2 Q1194.8 165.3 1195.5 164.0 L1199.05 165.55 Q1201.25 166.5 1202.75 166.5 1204.25 166.5 1204.3 165.55 1204.35 164.15 1204.5 164.0 1206.8 164.5 1211.3 167.15 L1218.75 171.5 1219.0 169.5 1220.3 169.65 Q1221.8 169.9 1222.75 170.5 L1223.0 168.5 1222.7 168.15 Q1222.7 167.75 1224.25 167.75 1227.4 167.75 1228.2 169.8 L1229.5 173.0 Q1230.0 172.5 1230.0 169.0 L1231.0 168.6 Q1231.9 168.15 1232.75 168.0 1234.1 169.35 1234.5 171.75 1236.0 169.5 1236.5 168.0 1237.35 168.0 1238.0 168.9 L1238.75 170.5 1240.4 168.9 Q1241.85 167.75 1245.25 167.75 L1249.95 168.4 1254.6 169.0 Q1256.15 169.0 1256.5 169.4 L1256.5 169.75 1254.55 173.95 Q1253.25 176.2 1252.25 177.25 1250.45 175.45 1250.3 174.05 L1250.0 171.75 Q1248.35 171.75 1246.25 173.15 1245.25 173.75 1243.0 171.5 1241.9 172.9 1241.55 176.15 L1241.25 180.75 1239.5 181.0 1238.9 177.65 Q1238.5 175.65 1237.75 174.25 L1237.5 173.75 Q1236.55 174.3 1236.4 175.95 1236.25 177.35 1234.25 178.0 1233.5 177.25 1233.1 175.95 L1232.5 173.75 Q1232.2 174.0 1230.75 177.25 L1228.75 181.0 1227.5 181.0 1226.8 176.15 Q1226.35 173.1 1225.75 171.25 1225.6 171.55 1225.55 172.8 L1225.5 174.0 1225.25 174.75 1223.2 174.6 Q1221.95 174.1 1221.75 173.5 1221.6 173.5 1221.55 174.25 L1221.5 175.0 Q1221.25 175.75 1220.25 176.25 1219.25 175.7 1218.25 174.4 1217.6 173.6 1215.5 173.25 1215.5 175.5 1214.25 178.0 L1212.25 181.25 Q1210.6 180.55 1208.5 176.75 1206.35 172.8 1205.75 169.0 L1205.65 169.2 Q1205.5 169.55 1205.5 170.5 L1203.5 170.45 Q1201.9 170.05 1201.5 169.5 L1201.25 171.3 1203.5 171.75 Q1202.5 177.25 1201.25 176.65 1199.95 175.4 1198.65 175.0 L1198.5 175.0 1198.5 174.95 1197.25 174.75 Q1196.0 174.75 1195.35 177.2 1194.55 180.1 1192.25 181.25 1190.25 180.95 1189.75 178.0 L1189.25 187.5 1188.25 188.0 Q1187.45 187.7 1187.15 186.7 L1186.75 185.25 1186.0 190.0 Q1185.4 193.45 1185.25 195.5 L1184.25 196.0 Q1183.1 193.65 1182.3 188.05 L1181.0 179.75 1181.0 174.85 1179.0 169.8 1178.5 171.25 1175.7 171.45 Q1173.5 171.1 1172.5 170.5 1172.5 173.25 1170.75 175.0 L1169.5 175.0 1168.05 169.55 Q1167.15 166.35 1167.05 164.9 1166.65 164.8 1166.6 165.0 L1166.45 166.2 Q1166.2 167.0 1165.25 167.0 1164.6 167.0 1163.25 166.0 L1160.75 164.25 Q1160.3 165.7 1159.8 168.7 1159.1 171.35 1157.25 173.0 1156.5 171.8 1156.1 169.9 L1155.5 166.75 Q1155.1 167.95 1154.25 168.25 1151.8 166.85 1149.85 163.25 1146.65 163.05 1141.65 159.7 1138.05 157.3 1136.0 155.25 1138.6 155.1 1144.75 158.15 L1148.45 160.1 1147.0 157.0 Q1151.5 156.15 1156.15 157.5 L1160.75 159.0 1164.75 159.9 1171.25 160.75 M1197.1 170.95 L1197.35 171.0 1196.75 168.25 1196.5 167.75 1196.1 170.95 1197.1 170.95 M1182.25 166.0 Q1182.0 165.5 1179.5 165.5 L1180.5 166.5 1180.85 166.7 1181.75 166.75 1182.25 166.0 M1175.5 169.25 L1175.9 169.0 1175.6 169.0 1175.5 169.0 1175.5 169.25 M1188.75 172.5 L1188.4 173.75 1188.85 173.15 1188.75 172.5 M1185.4 180.9 L1185.25 181.0 1184.0 179.65 1184.5 183.0 1184.75 183.25 1185.4 180.9 M1029.25 119.75 L1039.5 123.55 Q1046.5 126.5 1048.5 130.0 L1050.5 128.0 1052.45 130.2 1052.5 131.5 1053.8 129.65 1055.25 127.75 1056.1 127.95 Q1057.05 128.3 1057.5 128.75 1055.0 130.85 1053.8 135.75 L1051.75 143.0 1050.5 143.0 Q1050.2 141.65 1050.05 139.25 L1049.75 135.5 1049.25 142.75 1047.5 143.0 1046.55 138.5 Q1045.9 135.7 1045.75 134.0 1043.55 138.25 1042.75 142.0 L1041.5 142.0 1039.3 135.95 Q1037.8 131.75 1037.75 130.0 L1037.5 130.0 1037.15 131.55 Q1037.0 132.5 1035.5 134.0 1033.0 130.25 1033.0 125.75 L1032.4 126.2 1032.0 127.0 Q1029.7 126.0 1028.3 124.75 1027.0 123.6 1027.0 122.85 1027.0 121.25 1027.75 120.55 1027.85 120.45 1029.25 119.75 M1057.15 131.9 Q1057.4 131.25 1058.25 130.75 L1060.0 132.2 1060.55 132.6 1061.25 131.75 1061.4 131.8 1061.0 130.5 Q1063.5 129.65 1069.6 133.55 1076.0 137.7 1075.5 141.25 1072.75 143.95 1071.9 144.2 1070.65 144.55 1066.75 143.25 1066.25 153.75 1064.25 159.75 L1062.5 160.0 1062.05 159.55 1062.0 157.75 Q1062.0 156.5 1063.0 153.65 1064.0 150.75 1064.0 149.5 L1063.5 147.2 1063.5 147.75 Q1063.1 149.0 1061.75 150.0 L1060.5 150.0 1059.55 144.75 Q1059.0 141.4 1059.0 139.85 L1059.1 137.4 1057.0 133.0 Q1057.0 132.25 1057.15 131.9 M539.65 34.2 L538.35 34.0 538.35 35.0 Q538.35 37.95 538.15 38.8 537.35 41.7 534.35 42.0 L533.85 39.85 Q532.9 41.25 530.35 42.0 L529.9 40.15 529.85 37.5 529.95 35.3 527.45 36.85 Q524.65 38.35 525.1 40.75 L523.35 41.0 Q523.05 40.55 522.9 39.4 L522.6 37.25 522.3 39.75 521.6 43.0 516.65 38.6 Q515.05 37.05 514.65 35.2 513.15 36.45 512.1 38.25 510.0 37.05 509.4 34.25 508.65 30.75 507.85 29.75 L508.15 29.05 510.1 28.75 510.65 28.8 511.6 28.75 515.25 29.55 519.1 29.75 519.25 31.05 521.2 31.05 Q521.55 29.65 522.1 28.75 523.45 29.75 524.15 30.9 L524.3 31.15 527.05 31.2 528.3 30.7 Q530.7 29.65 531.35 29.0 533.05 29.95 534.1 31.45 L535.6 31.5 536.0 31.2 Q536.25 31.2 536.35 32.15 L536.85 32.2 536.85 31.85 Q536.85 28.3 542.6 30.9 548.35 33.55 548.35 36.35 548.35 37.9 546.35 40.0 L543.0 36.65 Q541.35 35.2 539.65 34.2 M535.85 34.5 L535.75 34.55 535.4 34.65 535.35 35.5 535.8 34.7 535.85 34.5 M520.35 35.0 L519.75 34.7 519.85 35.0 520.35 35.5 520.45 35.0 520.35 35.0" fill="#344d32" fill-rule="evenodd" stroke="none"/>
  </g>
</svg>
