<?xml version="1.0" encoding="UTF-8" standalone="no"?>
<svg xmlns:ffdec="https://www.free-decompiler.com/flash" xmlns:xlink="http://www.w3.org/1999/xlink" ffdec:objectType="shape" height="924.65px" width="1070.1px" xmlns="http://www.w3.org/2000/svg">
  <g transform="matrix(1.0, 0.0, 0.0, 1.0, 111.25, 9.9)">
    <path d="M608.85 60.3 L565.65 78.6 553.25 58.9 Q551.35 58.2 548.2 54.7 544.55 50.65 544.45 47.75 L547.4 47.55 544.1 39.45 570.8 44.3 Q579.5 48.9 591.05 53.65 601.4 57.95 608.85 60.3 M542.75 34.35 L542.3 20.75 558.85 17.9 579.4 40.6 Q570.9 33.35 551.8 33.35 L542.75 34.35 M581.55 41.0 Q579.6 36.45 573.25 29.15 565.7 20.4 558.65 16.5 568.05 12.05 575.45 6.8 583.15 1.3 589.65 -5.75 L581.55 41.0 M460.35 120.35 L465.2 101.05 469.6 117.75 465.7 100.0 Q475.45 82.35 499.15 57.25 523.05 32.0 540.2 21.4 L541.6 32.05 Q529.65 36.1 524.35 42.3 519.25 48.35 519.25 57.8 L520.3 63.95 521.75 71.3 Q526.65 77.3 531.4 80.3 536.55 83.6 541.9 83.6 545.95 83.6 552.75 80.7 558.75 78.1 561.3 75.95 L563.25 79.55 Q539.3 92.75 526.1 116.45 512.05 141.65 514.25 172.2 L499.25 165.95 494.0 162.7 490.8 160.75 Q484.55 156.15 478.5 146.15 472.7 136.5 471.15 128.45 L472.95 143.9 458.25 130.75 457.8 130.35 460.35 120.35 M514.55 178.15 Q514.85 186.85 510.45 199.4 507.2 208.45 505.15 211.5 L504.55 213.8 Q489.05 207.75 471.95 195.45 457.15 184.8 453.4 179.15 L457.05 136.7 457.35 133.45 457.65 133.8 Q464.9 142.6 480.75 155.45 499.5 170.7 514.55 178.15 M504.6 214.7 Q511.85 231.7 513.7 238.05 515.75 244.95 515.75 253.15 L515.55 257.9 514.7 266.4 503.05 254.6 514.65 268.95 514.1 276.3 Q513.05 283.9 510.75 285.4 L484.25 259.5 Q483.45 258.7 482.3 258.35 L477.15 257.95 Q468.2 257.95 460.9 262.6 458.4 264.2 455.1 267.0 L449.7 271.6 453.1 180.3 466.8 196.3 Q472.85 213.6 501.5 251.85 L494.0 238.3 Q489.2 226.7 484.4 218.8 479.0 209.85 468.95 197.6 L504.5 214.25 504.6 214.7 M812.5 383.85 Q804.0 431.15 801.2 455.05 796.3 497.25 794.25 563.1 L773.9 563.2 753.5 563.8 753.35 555.5 Q753.35 524.25 762.3 482.9 772.55 435.6 793.55 379.75 L825.2 271.6 826.7 270.5 Q829.25 269.2 834.8 268.4 L814.55 369.95 812.5 383.85 M553.35 262.85 Q575.45 258.5 609.3 254.25 L639.9 250.75 615.75 252.85 Q577.3 256.55 552.3 261.1 L551.9 254.85 602.5 214.8 624.9 213.85 660.8 215.2 696.1 216.55 Q667.05 212.0 640.55 212.0 L603.7 213.85 Q647.45 181.4 680.7 163.2 717.7 142.95 733.45 145.15 L724.3 143.6 Q738.6 138.6 746.4 137.3 L767.5 135.9 755.75 134.7 Q765.2 133.0 768.35 133.0 788.4 133.0 809.2 136.25 L829.5 140.05 802.9 139.3 817.6 140.9 826.3 141.4 Q835.2 141.4 852.55 138.7 L874.65 135.5 857.2 157.35 763.85 150.1 Q792.4 154.7 805.85 157.45 809.4 157.85 846.05 157.85 L856.95 157.7 841.0 191.7 705.55 216.7 728.4 216.85 Q765.45 216.85 785.1 216.05 802.15 215.4 808.2 214.0 L833.05 223.1 828.8 246.55 809.9 249.35 814.85 249.65 Q808.8 249.5 802.75 251.45 795.45 253.85 794.45 257.3 795.35 257.95 796.1 265.15 796.85 271.8 796.85 277.25 L796.05 289.55 595.55 287.25 553.35 262.85 M836.45 139.45 L820.65 137.75 806.4 135.55 863.2 136.25 849.0 138.4 836.45 139.45 M784.15 215.45 Q778.95 215.75 756.55 215.9 727.8 216.05 713.15 216.35 833.55 193.25 841.75 192.1 840.4 196.05 837.5 200.3 831.65 208.8 823.75 210.5 L804.0 213.55 784.15 215.45 M799.8 257.35 Q804.25 257.15 821.4 251.9 835.5 247.55 841.8 245.15 L830.05 252.6 857.1 238.6 841.55 255.95 825.65 258.1 817.65 258.55 809.65 259.45 799.8 257.35 M799.1 280.25 L815.6 289.05 797.95 290.75 799.1 280.25 M838.75 270.2 L837.2 265.45 824.05 267.8 816.55 287.65 799.15 278.85 798.2 259.5 817.9 262.55 829.6 261.7 844.05 258.2 865.0 235.75 862.2 300.6 861.65 309.35 838.75 270.2 M719.75 247.25 L642.75 242.55 689.55 247.5 699.0 247.45 719.75 247.25 M458.65 323.1 Q488.45 322.9 533.05 324.9 L611.45 328.2 725.8 330.6 688.65 332.35 Q659.75 332.9 624.6 332.9 614.75 332.9 541.35 330.5 467.55 328.1 457.6 328.05 L458.65 323.1 M426.4 357.05 Q442.65 356.95 457.45 354.35 471.85 351.8 496.8 351.8 L581.5 355.5 685.4 359.2 699.35 358.9 728.8 358.0 755.95 356.7 774.65 358.4 Q789.9 360.15 793.95 361.05 L792.6 365.5 739.95 366.15 744.85 365.65 Q661.0 364.8 560.05 362.7 476.5 360.85 470.3 360.85 L424.55 362.2 426.4 357.05 M437.7 345.15 L466.95 343.55 510.25 342.05 569.8 345.5 652.2 348.9 Q665.2 348.9 725.45 347.1 L798.9 344.55 Q796.7 351.7 783.85 354.3 775.6 356.0 756.6 356.4 L724.2 356.85 705.7 356.95 600.95 352.4 510.0 347.8 Q490.05 347.8 473.85 348.75 454.75 349.9 437.8 352.5 L437.7 345.15 M423.45 352.8 L421.65 352.8 423.4 351.5 423.8 351.9 423.45 352.8 M412.8 366.65 Q435.9 366.05 458.95 365.75 L487.8 365.75 Q521.3 366.05 548.35 367.5 L594.1 369.15 626.6 369.85 667.1 368.95 Q702.85 368.0 713.95 368.0 L748.35 368.3 791.3 370.05 787.6 383.1 411.95 374.75 412.8 366.65 M447.65 333.0 L492.5 331.45 568.7 334.15 636.2 336.85 Q675.3 336.85 715.75 335.55 765.1 333.95 803.25 330.75 801.25 337.1 783.95 339.3 L772.0 340.25 766.25 340.3 Q759.5 340.3 685.75 342.75 L633.1 344.3 614.75 344.6 554.35 341.25 494.8 337.9 447.4 341.7 447.65 333.0 M437.15 342.65 L433.1 343.0 433.15 343.0 Q434.8 342.2 437.05 342.65 L437.15 342.65 M467.95 315.1 L514.9 313.65 Q559.3 313.65 650.35 317.5 L749.4 321.3 Q761.95 321.3 778.75 320.45 803.6 319.15 807.9 316.8 L804.55 326.85 Q645.9 326.65 568.3 323.45 L519.0 321.05 468.95 319.45 467.95 315.1 M483.15 303.75 L810.45 309.35 Q809.35 312.5 801.15 314.3 795.6 315.5 787.8 315.95 L767.9 316.65 752.55 317.05 Q746.9 317.05 669.35 314.85 576.6 312.2 482.65 310.7 L483.15 303.75 M396.45 378.4 L786.7 386.2 784.65 393.7 396.75 386.95 396.45 378.4 M493.15 297.1 L812.0 305.1 785.2 305.75 766.15 306.05 Q742.1 306.05 642.55 303.3 525.5 300.05 492.9 299.45 L493.15 297.1 M940.0 292.75 L939.75 287.65 Q939.75 287.05 943.4 283.6 L947.0 280.3 Q946.4 288.55 940.0 292.75 M833.35 221.9 L809.2 213.8 835.15 209.0 833.35 221.9 M503.15 288.85 L815.35 294.0 812.8 302.85 502.6 293.55 503.15 288.85 M382.25 391.25 L400.15 390.95 456.2 392.35 Q513.15 393.8 523.8 393.85 L626.7 394.5 782.65 397.95 780.1 410.6 768.1 411.0 760.3 411.15 655.85 408.25 555.2 406.55 Q507.25 405.8 497.1 405.15 L440.3 402.2 Q394.75 400.3 381.25 401.65 L382.25 391.25 M367.85 406.2 L397.25 405.0 472.5 407.5 553.35 410.6 Q576.5 411.4 669.95 412.8 L779.05 414.35 774.0 428.25 367.65 417.05 367.85 406.2 M312.85 471.7 L381.25 473.1 382.45 472.05 Q383.8 470.95 384.4 470.95 L393.9 471.4 413.4 472.15 442.15 472.5 Q462.85 472.5 504.1 471.0 545.35 469.45 557.95 469.45 584.35 469.45 610.15 470.85 L694.85 476.7 757.5 481.75 754.55 492.65 Q666.5 491.5 592.4 489.15 532.45 487.3 506.25 487.3 476.85 487.3 413.8 489.15 L311.65 492.15 312.85 471.7 M306.7 492.15 L306.1 492.15 Q306.65 492.15 306.1 491.9 L306.4 491.6 306.7 492.15 M322.5 452.5 L361.5 452.0 Q371.55 452.0 426.85 453.85 482.2 455.65 488.45 455.65 L557.1 455.05 627.4 454.55 Q664.1 454.55 701.5 456.35 740.0 458.15 762.2 461.1 L759.8 474.0 Q704.95 469.85 627.8 467.2 571.9 465.25 553.55 465.25 544.1 465.25 470.0 467.15 395.85 469.0 376.65 469.0 344.25 468.75 322.65 468.15 L322.5 452.5 M342.3 437.9 Q397.05 437.7 454.45 441.5 L497.8 444.2 Q523.1 445.4 549.45 445.4 L594.4 444.45 604.95 444.6 Q616.65 444.75 627.0 445.05 L765.8 449.1 765.15 455.55 698.6 452.7 Q621.65 449.9 566.65 449.9 543.25 450.1 519.8 450.55 L478.95 451.05 Q462.1 451.05 413.9 449.6 362.35 448.05 339.1 447.85 L342.3 437.9 M351.25 421.15 L772.85 431.95 768.65 445.55 Q731.35 444.85 628.4 441.95 541.1 439.5 524.8 439.5 497.2 439.5 475.6 438.25 L349.15 433.2 351.25 421.15 M300.25 497.15 Q311.0 497.4 408.1 494.95 508.25 492.45 512.5 492.45 L547.5 493.3 618.1 495.2 Q690.7 497.15 698.6 497.15 L719.95 497.05 Q751.9 496.85 751.9 496.15 L748.75 521.65 Q645.95 518.2 499.35 514.1 362.85 510.3 348.05 510.3 L298.8 511.55 300.25 497.15 M279.3 517.15 Q308.85 516.45 359.2 515.95 460.3 515.95 555.55 520.75 L620.9 524.0 Q655.1 525.5 683.65 525.5 L711.4 525.25 Q748.4 524.85 748.4 524.15 L747.05 560.1 676.75 560.1 Q613.45 559.7 499.05 554.1 389.05 548.75 332.65 548.75 289.4 548.75 266.3 551.35 265.2 545.4 268.3 535.4 271.95 523.45 279.3 517.15 M579.85 10.45 Q580.3 10.9 580.9 10.9 581.5 10.9 581.95 10.45 L582.4 9.4 Q582.4 8.8 581.95 8.35 581.5 7.9 580.9 7.9 580.3 7.9 579.85 8.35 579.4 8.8 579.4 9.4 579.4 10.0 579.85 10.45 M581.2 57.8 Q580.5 58.15 580.5 58.7 580.5 59.25 581.2 59.65 L582.8 60.0 584.45 59.65 Q585.1 59.25 585.1 58.7 585.1 58.15 584.45 57.8 L582.8 57.4 Q581.85 57.4 581.2 57.8 M541.0 35.2 Q542.2 36.6 541.7 37.1 L541.3 36.3 Q540.9 35.5 541.0 35.2 M529.75 70.65 L537.55 67.3 Q533.55 66.5 531.2 61.65 529.5 58.2 529.5 55.85 529.5 48.55 542.5 40.45 L545.25 45.6 540.6 47.5 Q544.25 50.2 544.1 54.65 L535.15 55.65 535.45 51.65 534.4 58.8 Q537.6 62.4 540.05 63.6 541.7 64.35 544.05 64.35 545.3 64.35 547.85 63.05 550.25 61.8 551.9 60.4 L552.2 67.1 544.75 67.1 547.75 67.4 Q551.0 68.05 551.95 70.0 L529.75 70.65 M528.25 51.15 Q526.1 55.7 527.05 61.45 L528.5 64.6 Q529.8 68.3 529.05 71.05 L522.2 66.6 521.6 61.7 521.35 58.25 Q521.35 50.25 525.35 45.1 529.35 39.9 538.9 35.55 L539.25 37.95 Q534.2 37.95 530.65 44.85 529.1 47.75 528.25 51.15 M503.5 63.45 Q504.15 62.8 504.15 61.9 504.15 61.0 503.5 60.35 502.85 59.7 501.9 59.7 500.95 59.7 500.3 60.35 499.65 61.0 499.65 61.9 499.65 62.8 500.3 63.45 500.95 64.1 501.9 64.1 502.85 64.1 503.5 63.45 M498.35 81.7 L503.45 80.65 Q509.25 79.9 512.9 81.45 L517.7 94.35 515.4 94.2 Q512.95 93.8 512.25 92.85 512.25 88.25 508.2 85.0 504.1 81.7 498.35 81.7 M488.8 97.75 Q488.8 93.15 492.1 89.9 495.35 86.6 499.95 86.6 504.55 86.6 507.85 89.9 511.1 93.15 511.1 97.75 511.1 102.35 507.85 105.65 504.55 108.9 499.95 108.9 495.35 108.9 492.1 105.65 488.8 102.35 488.8 97.75 M493.5 107.2 Q494.85 108.0 497.55 108.85 L500.95 109.65 Q506.75 109.65 510.3 105.85 514.05 101.8 512.95 95.65 L517.4 95.4 Q512.9 105.05 508.6 109.05 504.6 112.75 499.25 112.75 495.35 112.75 490.25 109.85 485.2 107.0 481.95 102.95 L481.8 102.75 481.35 101.55 Q481.2 101.15 481.2 100.5 481.2 99.45 483.45 87.05 L496.85 78.3 495.6 82.45 Q491.4 84.7 488.3 88.7 485.2 92.7 485.2 95.8 485.2 98.45 486.5 100.95 488.55 104.95 493.5 107.2 M524.8 97.6 Q524.65 87.7 517.8 80.75 510.95 73.8 501.45 73.95 491.95 74.1 485.3 81.25 478.65 88.4 478.8 98.3 478.95 108.3 485.8 115.3 492.65 122.3 502.15 122.15 511.65 122.0 518.3 114.8 524.95 107.55 524.8 97.6 M495.6 99.85 L495.2 94.75 493.25 94.8 493.8 101.2 Q495.2 103.5 499.0 104.2 500.9 104.55 502.6 100.1 L503.95 99.4 502.75 94.5 499.85 94.6 495.6 99.85 M565.8 55.75 Q569.7 54.55 571.65 52.1 L562.3 56.5 565.8 55.75 M548.8 49.8 L548.9 49.75 549.25 49.5 Q549.2 49.4 548.8 49.8 M553.5 66.5 L553.6 65.05 555.05 65.65 Q556.85 66.9 558.65 70.15 556.55 70.8 554.95 69.35 553.5 68.1 553.5 66.5 M502.4 189.45 Q501.85 189.45 501.5 189.85 501.1 190.2 501.1 190.75 501.1 191.3 501.5 191.7 501.85 192.05 502.4 192.05 502.95 192.05 503.35 191.7 L503.7 190.75 503.35 189.85 Q502.95 189.45 502.4 189.45 M483.2 92.75 Q483.1 93.3 483.4 93.4 L483.45 93.15 483.2 92.75 M467.85 230.1 Q468.35 230.6 469.05 230.6 469.75 230.6 470.25 230.1 470.75 229.6 470.75 228.9 470.75 228.2 470.25 227.7 469.75 227.2 469.05 227.2 468.35 227.2 467.85 227.7 467.35 228.2 467.35 228.9 467.35 229.6 467.85 230.1 M394.75 336.0 L328.9 391.75 263.95 448.45 Q246.25 469.1 240.1 483.0 235.7 493.05 235.7 505.1 235.7 513.5 237.3 525.85 239.2 540.35 242.2 550.5 L209.45 546.55 Q205.2 537.1 202.05 522.05 199.1 508.15 199.1 499.8 199.1 488.45 203.55 477.6 209.2 463.8 220.0 457.5 L217.6 457.2 338.55 366.3 Q356.7 352.95 394.35 322.55 438.7 286.8 466.5 262.0 L477.25 260.9 Q416.35 313.65 405.1 325.8 L394.75 336.0 M596.15 237.95 L587.75 238.45 605.4 238.45 596.15 237.95" fill="#c8c3b8" fill-rule="evenodd" stroke="none"/>
    <path d="M937.0 614.55 L937.3 431.95 Q939.25 356.65 935.65 278.65 932.45 209.8 928.1 191.9 L928.05 194.3 Q917.95 156.85 908.75 144.65 904.45 139.0 899.25 136.85 895.1 135.1 888.5 135.1 882.7 135.1 875.9 140.35 868.0 146.45 860.65 158.3 842.15 188.3 832.3 245.55 835.25 245.55 847.05 241.25 861.85 235.8 865.9 229.95 L868.25 231.9 868.4 231.7 Q867.85 225.7 867.85 214.6 867.9 205.45 868.2 201.0 L869.7 234.2 882.9 245.15 881.45 386.75 880.3 382.85 877.3 583.9 877.25 585.2 874.05 584.15 878.35 323.25 873.2 319.8 Q867.9 316.35 867.25 316.35 866.65 316.35 864.45 318.1 L862.35 319.8 841.25 301.15 Q841.75 320.9 839.65 368.65 837.25 421.85 837.25 450.9 837.25 466.3 838.6 497.95 839.95 529.55 839.95 547.35 L839.65 571.25 836.75 569.65 836.8 563.4 Q837.2 506.8 836.35 474.85 835.35 435.65 835.35 422.9 835.35 405.0 836.6 368.15 L837.8 326.25 837.05 277.4 814.55 369.95 834.8 268.4 Q829.25 269.2 826.7 270.5 L825.2 271.6 793.55 379.75 Q772.55 435.6 762.3 482.9 753.35 524.25 753.35 555.5 L753.5 563.8 773.9 563.2 794.25 563.1 Q796.3 497.25 801.2 455.05 804.0 431.15 812.5 383.85 L813.75 379.75 804.0 488.95 Q799.0 543.85 798.45 561.4 L798.35 564.8 789.15 568.3 748.25 566.2 746.9 563.1 746.6 562.45 743.55 563.05 735.15 564.6 726.85 564.75 588.75 562.3 503.85 558.3 468.0 555.7 467.1 555.65 466.75 555.65 401.15 553.75 Q366.75 553.05 323.7 553.05 L289.6 553.35 266.05 553.85 254.5 554.2 Q253.3 554.2 248.15 555.85 L252.5 552.85 244.05 555.45 220.65 552.1 208.55 551.2 200.05 530.65 Q201.0 530.65 201.1 530.35 200.6 529.65 199.6 529.35 197.4 523.2 196.2 515.55 195.15 509.0 195.15 504.0 195.15 484.4 205.0 468.35 212.8 455.6 225.45 446.85 L303.4 386.9 381.3 325.25 446.7 272.65 446.0 250.8 445.65 236.0 Q445.65 201.7 451.05 168.75 452.95 157.0 456.85 137.65 L457.05 136.7 453.4 179.15 Q457.15 184.8 471.95 195.45 489.05 207.75 504.55 213.8 L506.05 214.85 504.5 214.25 468.95 197.6 Q479.0 209.85 484.4 218.8 489.2 226.7 494.0 238.3 L466.8 196.3 453.1 180.3 449.7 271.6 455.1 267.0 Q458.4 264.2 460.9 262.6 468.2 257.95 477.15 257.95 L482.3 258.35 Q483.45 258.7 484.25 259.5 L489.45 285.2 510.75 285.4 Q513.05 283.9 514.1 276.3 L514.65 268.95 503.05 254.6 514.7 266.4 515.55 257.9 515.75 253.15 Q515.75 244.95 513.7 238.05 511.85 231.7 504.6 214.7 L514.6 224.85 Q515.25 223.25 516.3 218.0 517.4 212.65 517.4 210.7 517.4 203.05 515.3 199.85 L505.15 211.5 Q507.2 208.45 510.45 199.4 514.85 186.85 514.55 178.15 514.8 174.1 508.9 171.15 L503.8 168.8 Q500.8 167.35 499.25 165.95 L514.25 172.2 Q512.05 141.65 526.1 116.45 539.3 92.75 563.25 79.55 L561.3 75.95 Q557.85 73.7 550.55 76.85 543.45 80.6 542.15 80.6 536.6 80.6 531.75 78.45 526.65 76.2 521.75 71.3 L520.3 63.95 519.25 57.8 Q519.25 48.35 524.35 42.3 529.65 36.1 541.6 32.05 L540.2 21.4 Q523.05 32.0 499.15 57.25 475.45 82.35 465.7 100.0 L469.6 117.75 465.2 101.05 460.35 120.35 463.9 102.1 Q466.3 89.4 486.8 65.65 508.9 40.0 537.7 19.15 L536.05 20.9 Q547.85 19.0 565.7 9.1 583.55 -0.75 591.75 -9.9 591.65 -2.3 591.95 4.9 591.05 -0.7 589.65 -5.75 583.15 1.3 575.45 6.8 568.05 12.05 558.65 16.5 565.7 20.4 573.25 29.15 579.6 36.45 581.55 41.0 L582.25 43.0 580.9 43.55 579.4 40.6 558.85 17.9 542.3 20.75 542.75 34.35 543.15 35.55 Q543.6 36.65 544.15 37.15 545.75 38.6 553.7 40.15 L576.65 44.5 570.8 44.3 544.1 39.45 547.4 47.55 544.45 47.75 Q544.55 50.65 548.2 54.7 551.35 58.2 553.25 58.9 L565.65 78.6 608.85 60.3 602.85 57.2 592.5 35.45 Q590.3 38.25 586.45 40.75 L585.8 41.2 Q588.95 34.9 590.4 29.8 592.5 22.2 592.5 11.85 592.85 23.6 601.45 41.85 606.15 51.8 611.7 61.15 599.4 67.55 583.15 81.0 569.35 92.45 563.95 99.0 L565.95 97.55 Q559.2 104.7 556.35 118.0 554.6 126.15 554.6 134.8 554.6 135.8 552.3 140.2 L553.4 141.45 Q554.5 142.8 554.5 143.4 554.5 156.8 552.95 183.6 551.35 210.4 551.35 223.85 L551.6 250.65 Q603.7 210.0 638.15 186.75 674.05 162.6 701.55 150.0 728.05 137.9 754.25 133.25 776.6 129.25 808.65 129.25 L847.45 131.2 878.95 133.1 889.15 132.3 Q895.0 131.7 898.45 132.4 908.5 134.4 916.1 150.45 928.5 176.75 934.05 205.45 939.8 235.45 939.8 276.75 L939.75 285.1 947.9 278.8 Q949.55 280.45 950.8 286.15 952.05 291.95 952.05 298.15 L951.85 302.55 954.35 304.15 954.4 305.95 954.45 307.3 951.85 305.3 952.0 626.15 949.9 624.25 949.9 622.85 949.75 303.35 946.4 307.7 946.65 620.7 946.65 621.75 945.0 620.6 945.0 619.6 945.35 309.0 940.8 313.9 938.75 615.65 938.75 616.75 937.0 615.75 937.0 614.55 M872.4 178.85 L874.95 172.45 876.25 169.35 Q876.05 169.15 877.25 168.1 878.45 167.0 879.15 167.0 880.15 167.0 883.0 168.3 L890.0 208.5 881.45 168.15 876.95 173.35 872.4 178.85 M890.75 222.0 L892.0 241.0 895.75 592.3 894.0 591.5 894.2 566.85 Q894.2 545.25 893.6 524.9 L892.3 482.95 Q890.4 412.7 890.4 270.5 L890.75 222.0 M900.4 594.4 L898.15 401.4 896.05 214.6 Q896.05 197.75 898.65 181.55 901.6 162.95 906.3 158.05 911.15 164.15 914.0 188.65 916.4 209.15 916.4 231.05 L915.45 365.55 Q915.55 419.1 916.75 467.8 917.85 515.0 917.85 530.0 L917.7 558.85 Q917.35 587.25 916.65 602.75 L915.65 602.25 914.35 514.8 Q913.0 421.9 913.0 374.4 913.0 352.3 914.6 301.0 916.2 249.7 916.2 240.7 916.2 227.5 913.05 200.55 909.85 173.65 906.7 160.05 904.65 166.1 901.45 185.45 898.35 204.2 898.35 209.45 L899.3 228.7 901.0 265.4 901.7 314.05 Q901.7 339.15 900.8 389.5 L899.9 440.35 Q899.9 469.3 901.35 531.7 902.6 588.5 902.45 595.4 L900.4 594.4 M919.6 604.35 L919.2 566.75 919.0 544.85 918.1 370.85 917.15 227.6 Q917.15 213.85 923.35 205.6 L924.75 214.9 922.8 209.25 Q918.9 241.6 918.9 271.7 918.9 279.45 920.05 303.2 921.2 327.0 921.2 366.5 L921.85 605.6 919.6 604.35 M925.9 224.0 L927.05 234.6 Q929.55 257.75 929.55 263.1 L928.65 335.25 927.75 402.3 928.8 539.3 928.55 566.55 927.95 609.1 925.9 607.9 926.65 290.45 Q926.65 237.4 925.9 224.65 L925.9 224.0 M595.55 287.25 L796.05 289.55 796.85 277.25 Q796.85 271.8 796.1 265.15 795.35 257.95 794.45 257.3 795.45 253.85 802.75 251.45 808.8 249.5 814.85 249.65 L809.9 249.35 828.8 246.55 833.05 223.1 808.2 214.0 Q802.15 215.4 785.1 216.05 765.45 216.85 728.4 216.85 L705.55 216.7 841.0 191.7 856.95 157.7 846.05 157.85 Q809.4 157.85 805.85 157.45 792.4 154.7 763.85 150.1 L857.2 157.35 874.65 135.5 852.55 138.7 Q835.2 141.4 826.3 141.4 L817.6 140.9 802.9 139.3 829.5 140.05 809.2 136.25 Q788.4 133.0 768.35 133.0 765.2 133.0 755.75 134.7 L767.5 135.9 746.4 137.3 Q738.6 138.6 724.3 143.6 L733.45 145.15 Q717.7 142.95 680.7 163.2 647.45 181.4 603.7 213.85 L640.55 212.0 Q667.05 212.0 696.1 216.55 L660.8 215.2 624.9 213.85 602.5 214.8 551.9 254.85 552.3 261.1 Q577.3 256.55 615.75 252.85 L639.9 250.75 609.3 254.25 Q575.45 258.5 553.35 262.85 546.95 271.15 534.35 277.8 523.55 283.5 517.05 284.0 L595.55 287.25 M836.45 139.45 L849.0 138.4 863.2 136.25 806.4 135.55 820.65 137.75 836.45 139.45 M862.2 300.6 L865.0 235.75 844.05 258.2 829.6 261.7 817.9 262.55 798.2 259.5 799.15 278.85 816.55 287.65 824.05 267.8 837.2 265.45 838.75 270.2 841.6 300.85 862.25 317.55 880.6 303.9 879.6 247.9 867.8 235.95 862.6 303.5 862.2 300.6 M799.1 280.25 L797.95 290.75 815.6 289.05 799.1 280.25 M799.8 257.35 L809.65 259.45 817.65 258.55 825.65 258.1 841.55 255.95 857.1 238.6 830.05 252.6 841.8 245.15 Q835.5 247.55 821.4 251.9 804.25 257.15 799.8 257.35 M784.15 215.45 L804.0 213.55 823.75 210.5 Q831.65 208.8 837.5 200.3 840.4 196.05 841.75 192.1 833.55 193.25 713.15 216.35 727.8 216.05 756.55 215.9 778.95 215.75 784.15 215.45 M457.6 328.05 Q467.55 328.1 541.35 330.5 614.75 332.9 624.6 332.9 659.75 332.9 688.65 332.35 L725.8 330.6 611.45 328.2 533.05 324.9 Q488.45 322.9 458.65 323.1 L439.2 324.95 440.3 329.3 457.6 328.05 M719.75 247.25 L699.0 247.45 689.55 247.5 642.75 242.55 719.75 247.25 M424.55 362.2 L470.3 360.85 Q476.5 360.85 560.05 362.7 661.0 364.8 744.85 365.65 L739.95 366.15 792.6 365.5 793.95 361.05 Q789.9 360.15 774.65 358.4 L755.95 356.7 728.8 358.0 699.35 358.9 685.4 359.2 581.5 355.5 496.8 351.8 Q471.85 351.8 457.45 354.35 442.65 356.95 426.4 357.05 L402.85 357.15 402.8 361.4 424.55 362.2 M437.8 352.5 Q454.75 349.9 473.85 348.75 490.05 347.8 510.0 347.8 L600.95 352.4 705.7 356.95 724.2 356.85 756.6 356.4 Q775.6 356.0 783.85 354.3 796.7 351.7 798.9 344.55 L725.45 347.1 Q665.2 348.9 652.2 348.9 L569.8 345.5 510.25 342.05 466.95 343.55 437.7 345.15 416.55 347.65 Q417.8 350.45 419.85 351.9 420.9 352.65 421.65 352.8 L423.45 352.8 437.8 352.5 M411.95 374.75 L787.6 383.1 791.3 370.05 748.35 368.3 713.95 368.0 Q702.85 368.0 667.1 368.95 L626.6 369.85 594.1 369.15 548.35 367.5 Q521.3 366.05 487.8 365.75 L458.95 365.75 Q435.9 366.05 412.8 366.65 L390.4 367.5 389.05 375.35 389.75 375.45 411.95 374.75 M447.4 341.7 L494.8 337.9 554.35 341.25 614.75 344.6 633.1 344.3 685.75 342.75 Q759.5 340.3 766.25 340.3 L772.0 340.25 783.95 339.3 Q801.25 337.1 803.25 330.75 765.1 333.95 715.75 335.55 675.3 336.85 636.2 336.85 L568.7 334.15 492.5 331.45 447.65 333.0 426.7 335.1 428.4 343.4 433.1 343.0 437.15 342.65 447.4 341.7 M468.95 319.45 L519.0 321.05 568.3 323.45 Q645.9 326.65 804.55 326.85 L807.9 316.8 Q803.6 319.15 778.75 320.45 761.95 321.3 749.4 321.3 L650.35 317.5 Q559.3 313.65 514.9 313.65 L467.95 315.1 448.25 316.6 Q448.8 317.7 458.95 318.7 L468.95 319.45 M482.65 310.7 Q576.6 312.2 669.35 314.85 746.9 317.05 752.55 317.05 L767.9 316.65 787.8 315.95 Q795.6 315.5 801.15 314.3 809.35 312.5 810.45 309.35 L483.15 303.75 461.75 307.15 462.35 311.7 482.65 310.7 M396.75 386.95 L784.65 393.7 786.7 386.2 396.45 378.4 373.3 381.5 373.8 387.6 396.75 386.95 M492.9 299.45 Q525.5 300.05 642.55 303.3 742.1 306.05 766.15 306.05 L785.2 305.75 812.0 305.1 493.15 297.1 473.65 298.95 492.9 299.45 M940.0 292.75 Q946.4 288.55 947.0 280.3 L943.4 283.6 Q939.75 287.05 939.75 287.65 L940.0 292.75 M944.2 291.35 L944.2 296.75 939.7 304.4 939.35 301.95 940.6 312.35 Q945.35 308.25 945.35 307.25 L944.2 291.35 M833.35 221.9 L835.15 209.0 809.2 213.8 833.35 221.9 M878.65 320.85 L880.4 306.4 869.5 315.75 878.65 320.85 M858.8 575.85 L858.1 549.3 Q857.0 515.2 857.0 467.7 857.0 440.15 857.85 407.55 859.2 356.15 862.1 325.6 L862.2 359.4 860.75 481.6 860.85 576.8 858.8 575.85 M947.3 305.35 Q949.4 304.0 949.4 303.0 L948.2 285.7 947.3 305.35 M502.6 293.55 L812.8 302.85 815.35 294.0 503.15 288.85 483.45 293.45 502.6 293.55 M381.25 401.65 Q394.75 400.3 440.3 402.2 L497.1 405.15 Q507.25 405.8 555.2 406.55 L655.85 408.25 760.3 411.15 768.1 411.0 780.1 410.6 782.65 397.95 626.7 394.5 523.8 393.85 Q513.15 393.8 456.2 392.35 L400.15 390.95 382.25 391.25 361.85 393.75 362.5 401.85 381.25 401.65 M367.65 417.05 L774.0 428.25 779.05 414.35 669.95 412.8 Q576.5 411.4 553.35 410.6 L472.5 407.5 397.25 405.0 367.85 406.2 342.0 409.85 Q342.4 409.85 342.55 413.45 342.6 415.25 367.65 417.05 M311.65 492.15 L413.8 489.15 Q476.85 487.3 506.25 487.3 532.45 487.3 592.4 489.15 666.5 491.5 754.55 492.65 L757.5 481.75 694.85 476.7 610.15 470.85 Q584.35 469.45 557.95 469.45 545.35 469.45 504.1 471.0 462.85 472.5 442.15 472.5 L413.4 472.15 393.9 471.4 384.4 470.95 Q383.8 470.95 382.45 472.05 L381.25 473.1 312.85 471.7 280.8 473.35 283.1 473.35 Q280.6 494.7 306.0 492.15 L306.1 492.15 306.7 492.15 311.65 492.15 M322.65 468.15 Q344.25 468.75 376.65 469.0 395.85 469.0 470.0 467.15 544.1 465.25 553.55 465.25 571.9 465.25 627.8 467.2 704.95 469.85 759.8 474.0 L762.2 461.1 Q740.0 458.15 701.5 456.35 664.1 454.55 627.4 454.55 L557.1 455.05 488.45 455.65 Q482.2 455.65 426.85 453.85 371.55 452.0 361.5 452.0 L322.5 452.5 296.7 455.4 298.35 455.4 Q293.0 465.65 322.65 468.15 M339.1 447.85 Q362.35 448.05 413.9 449.6 462.1 451.05 478.95 451.05 L519.8 450.55 Q543.25 450.1 566.65 449.9 621.65 449.9 698.6 452.7 L765.15 455.55 765.8 449.1 627.0 445.05 Q616.65 444.75 604.95 444.6 L594.4 444.45 549.45 445.4 Q523.1 445.4 497.8 444.2 L454.45 441.5 Q397.05 437.7 342.3 437.9 L324.0 440.45 Q309.35 442.75 308.0 443.4 L309.0 449.3 339.1 447.85 M349.15 433.2 L475.6 438.25 Q497.2 439.5 524.8 439.5 541.1 439.5 628.4 441.95 731.35 444.85 768.65 445.55 L772.85 431.95 351.25 421.15 326.45 421.9 324.6 435.8 349.15 433.2 M298.8 511.55 L348.05 510.3 Q362.85 510.3 499.35 514.1 645.95 518.2 748.75 521.65 L751.9 496.15 Q751.9 496.85 719.95 497.05 L698.6 497.15 Q690.7 497.15 618.1 495.2 L547.5 493.3 512.5 492.45 Q508.25 492.45 408.1 494.95 311.0 497.4 300.25 497.15 L264.65 494.65 263.95 494.8 264.0 494.9 270.85 515.35 298.8 511.55 M266.3 551.35 Q289.4 548.75 332.65 548.75 389.05 548.75 499.05 554.1 613.45 559.7 676.75 560.1 L747.05 560.1 748.4 524.15 Q748.4 524.85 711.4 525.25 L683.65 525.5 Q655.1 525.5 620.9 524.0 L555.55 520.75 Q460.3 515.95 359.2 515.95 308.85 516.45 279.3 517.15 L249.15 519.1 252.75 519.1 266.3 551.35 M576.55 82.65 Q588.05 71.8 598.45 67.3 L563.45 81.1 Q541.75 93.85 530.45 112.05 518.6 131.15 518.6 155.75 L518.75 168.8 Q522.6 167.35 534.95 155.7 547.3 144.1 548.9 140.45 553.45 130.3 554.7 122.9 556.25 113.85 558.15 108.55 562.8 95.6 576.55 82.65 M544.1 54.65 Q544.25 50.2 540.6 47.5 L545.25 45.6 542.5 40.45 Q529.5 48.55 529.5 55.85 529.5 58.2 531.2 61.65 533.55 66.5 537.55 67.3 L529.75 70.65 Q532.0 75.2 536.0 76.75 538.0 77.5 541.3 77.5 L549.55 76.55 Q554.8 75.3 556.0 73.0 L551.95 70.0 Q551.0 68.05 547.75 67.4 L544.75 67.1 552.2 67.1 551.9 60.4 Q548.35 61.85 541.0 60.45 L534.4 58.8 535.45 51.65 535.15 55.65 Q538.65 59.3 539.7 59.95 540.7 60.6 542.95 60.6 544.75 60.6 548.3 59.0 L544.1 54.65 M541.0 35.2 Q540.9 35.5 541.3 36.3 L541.7 37.1 Q542.2 36.6 541.0 35.2 M528.25 51.15 Q529.25 48.95 531.0 47.05 535.1 42.55 542.4 40.1 L539.25 37.95 538.9 35.55 Q529.35 39.9 525.35 45.1 521.35 50.25 521.35 58.25 L521.6 61.7 522.2 66.6 529.1 74.65 529.05 71.05 Q529.8 68.3 528.5 64.6 L527.05 61.45 Q526.1 55.7 528.25 51.15 M512.9 81.45 Q509.25 79.9 503.45 80.65 L498.35 81.7 496.0 84.45 Q507.15 82.55 512.25 92.85 512.95 93.8 515.4 94.2 L517.7 94.35 522.15 95.6 512.9 81.45 M488.8 97.75 Q488.8 102.35 492.1 105.65 495.35 108.9 499.95 108.9 504.55 108.9 507.85 105.65 511.1 102.35 511.1 97.75 511.1 93.15 507.85 89.9 504.55 86.6 499.95 86.6 495.35 86.6 492.1 89.9 488.8 93.15 488.8 97.75 M493.5 107.2 Q490.25 105.6 488.75 102.15 487.8 99.85 487.8 97.55 487.8 94.55 489.9 90.7 491.65 87.55 495.6 82.45 L496.85 78.3 483.45 87.05 Q481.2 99.45 481.2 100.5 481.2 101.15 481.35 101.55 L481.8 102.75 481.95 102.95 485.55 107.5 489.8 112.6 Q483.6 108.1 481.7 105.65 479.6 103.0 478.8 98.3 478.65 88.4 485.3 81.25 491.95 74.1 501.45 73.95 510.95 73.8 517.8 80.75 524.65 87.7 524.8 97.6 519.9 108.6 516.7 112.4 511.7 118.3 503.8 118.3 L501.0 117.8 497.25 116.7 Q499.75 117.15 505.0 115.25 510.45 113.3 514.75 110.2 526.25 102.0 517.4 95.4 L512.95 95.65 Q514.05 101.8 510.3 105.85 506.75 109.65 500.95 109.65 L497.55 108.85 Q494.85 108.0 493.5 107.2 M493.8 101.2 L493.25 94.8 495.2 94.75 495.6 99.85 Q499.0 100.05 501.15 98.7 L502.65 97.35 499.85 94.6 502.75 94.5 503.95 99.4 502.6 100.1 Q498.8 101.95 495.9 101.75 L493.8 101.2 M548.8 49.8 Q549.2 49.4 549.25 49.5 L548.9 49.75 548.8 49.8 M553.5 66.5 Q553.5 68.1 554.95 69.35 556.55 70.8 558.65 70.15 556.85 66.9 555.05 65.65 L553.6 65.05 553.5 66.5 M549.9 143.35 L545.1 148.15 540.25 153.0 528.85 161.85 Q517.85 170.55 517.55 171.95 516.8 202.85 517.75 206.95 518.0 208.05 518.55 208.9 518.95 210.4 518.95 216.0 518.95 219.45 517.4 227.3 L515.85 234.8 517.35 242.15 548.85 228.85 549.9 143.35 M490.8 160.75 Q482.7 155.5 472.4 146.9 461.95 138.2 457.7 133.5 L458.25 130.75 472.95 143.9 471.15 128.45 Q472.7 136.5 478.5 146.15 484.55 156.15 490.8 160.75 M483.2 92.75 L483.45 93.15 483.4 93.4 Q483.1 93.3 483.2 92.75 M405.1 325.8 Q416.35 313.65 477.25 260.9 L466.5 262.0 Q438.7 286.8 394.35 322.55 356.7 352.95 338.55 366.3 L217.6 457.2 220.0 457.5 Q209.2 463.8 203.55 477.6 199.1 488.45 199.1 499.8 199.1 508.15 202.05 522.05 205.2 537.1 209.45 546.55 L242.2 550.5 Q239.2 540.35 237.3 525.85 235.7 513.5 235.7 505.1 235.7 493.05 240.1 483.0 246.25 469.1 263.95 448.45 L328.9 391.75 394.75 336.0 397.8 333.4 Q365.95 362.85 310.15 413.15 273.95 445.7 262.4 457.65 247.2 473.35 242.55 484.55 238.6 494.1 238.6 511.35 238.6 536.8 247.5 551.8 L247.7 551.8 248.2 551.7 247.55 548.2 247.15 546.05 Q247.15 545.55 247.95 543.8 248.75 542.05 248.75 541.55 248.75 538.0 246.25 529.6 L243.7 521.8 243.65 520.2 Q243.9 519.3 245.4 518.65 249.35 516.95 265.45 515.5 L261.9 501.85 263.25 503.65 258.15 490.8 279.1 490.95 Q278.8 485.85 275.7 473.15 L294.35 466.55 292.55 452.15 Q299.65 450.55 303.05 444.3 304.1 442.4 304.65 440.2 L305.0 438.4 321.75 436.55 324.4 417.3 338.9 416.2 339.0 405.35 358.5 401.95 356.85 390.9 369.95 387.15 367.15 378.1 383.1 376.55 383.1 363.4 398.5 360.75 397.3 354.4 413.9 352.2 412.0 345.4 425.05 341.85 424.05 331.55 437.3 329.6 435.15 321.25 445.85 320.0 444.1 312.5 458.8 310.7 457.15 304.35 470.45 300.0 468.65 294.3 482.2 292.9 479.9 288.0 486.3 287.0 481.95 261.5 404.35 326.55 405.1 325.8 M596.15 237.95 L605.4 238.45 587.75 238.45 596.15 237.95 M547.75 230.65 L516.3 243.4 516.25 283.65 550.6 264.8 547.75 230.65" fill="#817d77" fill-rule="evenodd" stroke="none"/>
    <path d="M868.2 201.0 Q867.9 205.45 867.85 214.6 867.85 225.7 868.4 231.7 L868.25 231.9 865.9 229.95 Q861.85 235.8 847.05 241.25 835.25 245.55 832.3 245.55 842.15 188.3 860.65 158.3 868.0 146.45 875.9 140.35 882.7 135.1 888.5 135.1 895.1 135.1 899.25 136.85 904.45 139.0 908.75 144.65 917.95 156.85 928.05 194.3 L928.1 191.9 Q932.45 209.8 935.65 278.65 939.25 356.65 937.3 431.95 L937.0 614.55 935.8 613.8 927.95 609.1 928.55 566.55 928.8 539.3 927.75 402.3 928.65 335.25 929.55 263.1 Q929.55 257.75 927.05 234.6 L925.9 224.0 Q925.5 218.05 924.75 214.9 L923.35 205.6 Q917.15 213.85 917.15 227.6 L918.1 370.85 919.0 544.85 919.2 566.75 919.6 604.35 916.65 602.75 Q917.35 587.25 917.7 558.85 L917.85 530.0 Q917.85 515.0 916.75 467.8 915.55 419.1 915.45 365.55 L916.4 231.05 Q916.4 209.15 914.0 188.65 911.15 164.15 906.3 158.05 901.6 162.95 898.65 181.55 896.05 197.75 896.05 214.6 L898.15 401.4 900.4 594.4 895.75 592.3 892.0 241.0 890.75 222.0 890.0 208.5 883.0 168.3 Q880.15 167.0 879.15 167.0 878.45 167.0 877.25 168.1 876.05 169.15 876.25 169.35 L874.95 172.45 872.4 178.85 Q870.15 185.7 869.1 192.5 L868.2 201.0 M938.75 615.65 L940.8 313.9 945.35 309.0 945.0 619.6 938.75 615.65 M946.65 620.7 L946.4 307.7 949.75 303.35 949.9 622.85 946.65 620.7 M592.5 11.85 Q592.5 22.2 590.4 29.8 588.95 34.9 585.8 41.2 L586.45 40.75 Q590.3 38.25 592.5 35.45 L602.85 57.2 608.85 60.3 Q601.4 57.95 591.05 53.65 579.5 48.9 570.8 44.3 L576.65 44.5 553.7 40.15 Q545.75 38.6 544.15 37.15 543.6 36.65 543.15 35.55 L542.75 34.35 551.8 33.35 Q570.9 33.35 579.4 40.6 L580.9 43.55 582.25 43.0 581.55 41.0 589.65 -5.75 Q591.05 -0.7 591.95 4.9 L592.45 10.2 592.5 11.85 M521.75 71.3 Q526.65 76.2 531.75 78.45 536.6 80.6 542.15 80.6 543.45 80.6 550.55 76.85 557.85 73.7 561.3 75.95 558.75 78.1 552.75 80.7 545.95 83.6 541.9 83.6 536.55 83.6 531.4 80.3 526.65 77.3 521.75 71.3 M499.25 165.95 Q500.8 167.35 503.8 168.8 L508.9 171.15 Q514.8 174.1 514.55 178.15 499.5 170.7 480.75 155.45 464.9 142.6 457.65 133.8 L457.35 133.45 457.5 133.25 457.7 133.5 Q461.95 138.2 472.4 146.9 482.7 155.5 490.8 160.75 L494.0 162.7 499.25 165.95 M505.15 211.5 L515.3 199.85 Q517.4 203.05 517.4 210.7 517.4 212.65 516.3 218.0 515.25 223.25 514.6 224.85 L504.6 214.7 504.5 214.25 506.05 214.85 504.55 213.8 505.15 211.5 M510.75 285.4 L489.45 285.2 484.25 259.5 510.75 285.4 M466.8 196.3 L494.0 238.3 501.5 251.85 Q472.85 213.6 466.8 196.3 M798.35 564.8 L798.45 561.4 Q799.0 543.85 804.0 488.95 L813.75 379.75 812.5 383.85 814.55 369.95 837.05 277.4 837.8 326.25 836.6 368.15 Q835.35 405.0 835.35 422.9 835.35 435.65 836.35 474.85 837.2 506.8 836.8 563.4 L836.75 569.65 819.9 564.8 829.65 560.55 822.95 559.25 818.45 558.65 Q806.7 558.65 798.35 564.8 M839.65 571.25 L839.95 547.35 Q839.95 529.55 838.6 497.95 837.25 466.3 837.25 450.9 837.25 421.85 839.65 368.65 841.75 320.9 841.25 301.15 L862.35 319.8 864.45 318.1 Q866.65 316.35 867.25 316.35 867.9 316.35 873.2 319.8 L878.35 323.25 874.05 584.15 860.85 580.1 860.85 576.8 860.75 481.6 862.2 359.4 862.1 325.6 Q859.2 356.15 857.85 407.55 857.0 440.15 857.0 467.7 857.0 515.2 858.1 549.3 L858.8 575.85 858.75 579.55 Q855.55 578.85 848.25 575.6 841.1 572.45 839.65 571.25 M553.35 262.85 L595.55 287.25 517.05 284.0 Q523.55 283.5 534.35 277.8 546.95 271.15 553.35 262.85 M862.2 300.6 L862.6 303.5 867.8 235.95 879.6 247.9 880.6 303.9 862.25 317.55 841.6 300.85 838.75 270.2 861.65 309.35 862.2 300.6 M457.6 328.05 L440.3 329.3 439.2 324.95 458.65 323.1 457.6 328.05 M424.55 362.2 L402.8 361.4 402.85 357.15 426.4 357.05 424.55 362.2 M437.8 352.5 L423.45 352.8 423.8 351.9 423.4 351.5 421.65 352.8 Q420.9 352.65 419.85 351.9 417.8 350.45 416.55 347.65 L437.7 345.15 437.8 352.5 M412.8 366.65 L411.95 374.75 389.75 375.45 389.05 375.35 390.4 367.5 412.8 366.65 M447.4 341.7 L437.15 342.65 437.05 342.65 Q434.8 342.2 433.15 343.0 L433.1 343.0 428.4 343.4 426.7 335.1 447.65 333.0 447.4 341.7 M467.95 315.1 L468.95 319.45 458.95 318.7 Q448.8 317.7 448.25 316.6 L467.95 315.1 M482.65 310.7 L462.35 311.7 461.75 307.15 483.15 303.75 482.65 310.7 M396.75 386.95 L373.8 387.6 373.3 381.5 396.45 378.4 396.75 386.95 M492.9 299.45 L473.65 298.95 493.15 297.1 492.9 299.45 M944.2 291.35 L945.35 307.25 Q945.35 308.25 940.6 312.35 L939.35 301.95 939.7 304.4 944.2 296.75 944.2 291.35 M878.65 320.85 L869.5 315.75 880.4 306.4 878.65 320.85 M947.3 305.35 L948.2 285.7 949.4 303.0 Q949.4 304.0 947.3 305.35 M502.6 293.55 L483.45 293.45 503.15 288.85 502.6 293.55 M381.25 401.65 L362.5 401.85 361.85 393.75 382.25 391.25 381.25 401.65 M367.65 417.05 Q342.6 415.25 342.55 413.45 342.4 409.85 342.0 409.85 L367.85 406.2 367.65 417.05 M311.65 492.15 L306.7 492.15 306.4 491.6 306.1 491.9 Q306.65 492.15 306.1 492.15 L306.0 492.15 Q280.6 494.7 283.1 473.35 L280.8 473.35 312.85 471.7 311.65 492.15 M322.65 468.15 Q293.0 465.65 298.35 455.4 L296.7 455.4 322.5 452.5 322.65 468.15 M339.1 447.85 L309.0 449.3 308.0 443.4 Q309.35 442.75 324.0 440.45 L342.3 437.9 339.1 447.85 M349.15 433.2 L324.6 435.8 326.45 421.9 351.25 421.15 349.15 433.2 M298.8 511.55 L270.85 515.35 264.0 494.9 263.95 494.8 264.65 494.65 300.25 497.15 298.8 511.55 M266.3 551.35 L252.75 519.1 249.15 519.1 279.3 517.15 Q271.95 523.45 268.3 535.4 265.2 545.4 266.3 551.35 M581.2 57.8 Q581.85 57.4 582.8 57.4 L584.45 57.8 Q585.1 58.15 585.1 58.7 585.1 59.25 584.45 59.65 L582.8 60.0 581.2 59.65 Q580.5 59.25 580.5 58.7 580.5 58.15 581.2 57.8 M579.85 10.45 Q579.4 10.0 579.4 9.4 579.4 8.8 579.85 8.35 580.3 7.9 580.9 7.9 581.5 7.9 581.95 8.35 582.4 8.8 582.4 9.4 L581.95 10.45 Q581.5 10.9 580.9 10.9 580.3 10.9 579.85 10.45 M576.55 82.65 Q562.8 95.6 558.15 108.55 556.25 113.85 554.7 122.9 553.45 130.3 548.9 140.45 547.3 144.1 534.95 155.7 522.6 167.35 518.75 168.8 L518.6 155.75 Q518.6 131.15 530.45 112.05 541.75 93.85 563.45 81.1 L598.45 67.3 Q588.05 71.8 576.55 82.65 M544.1 54.65 L548.3 59.0 Q544.75 60.6 542.95 60.6 540.7 60.6 539.7 59.95 538.65 59.3 535.15 55.65 L544.1 54.65 M534.4 58.8 L541.0 60.45 Q548.35 61.85 551.9 60.4 550.25 61.8 547.85 63.05 545.3 64.35 544.05 64.35 541.7 64.35 540.05 63.6 537.6 62.4 534.4 58.8 M551.95 70.0 L556.0 73.0 Q554.8 75.3 549.55 76.55 L541.3 77.5 Q538.0 77.5 536.0 76.75 532.0 75.2 529.75 70.65 L551.95 70.0 M539.25 37.95 L542.4 40.1 Q535.1 42.55 531.0 47.05 529.25 48.95 528.25 51.15 529.1 47.75 530.65 44.85 534.2 37.95 539.25 37.95 M529.05 71.05 L529.1 74.65 522.2 66.6 529.05 71.05 M503.5 63.45 Q502.85 64.1 501.9 64.1 500.95 64.1 500.3 63.45 499.65 62.8 499.65 61.9 499.65 61.0 500.3 60.35 500.95 59.7 501.9 59.7 502.85 59.7 503.5 60.35 504.15 61.0 504.15 61.9 504.15 62.8 503.5 63.45 M512.9 81.45 L522.15 95.6 517.7 94.35 512.9 81.45 M512.25 92.85 Q507.15 82.55 496.0 84.45 L498.35 81.7 Q504.1 81.7 508.2 85.0 512.25 88.25 512.25 92.85 M495.6 82.45 Q491.65 87.55 489.9 90.7 487.8 94.55 487.8 97.55 487.8 99.85 488.75 102.15 490.25 105.6 493.5 107.2 488.55 104.95 486.5 100.95 485.2 98.45 485.2 95.8 485.2 92.7 488.3 88.7 491.4 84.7 495.6 82.45 M517.4 95.4 Q526.25 102.0 514.75 110.2 510.45 113.3 505.0 115.25 499.75 117.15 497.25 116.7 L501.0 117.8 503.8 118.3 Q511.7 118.3 516.7 112.4 519.9 108.6 524.8 97.6 524.95 107.55 518.3 114.8 511.65 122.0 502.15 122.15 492.65 122.3 485.8 115.3 478.95 108.3 478.8 98.3 479.6 103.0 481.7 105.65 483.6 108.1 489.8 112.6 L485.55 107.5 481.95 102.95 Q485.2 107.0 490.25 109.85 495.35 112.75 499.25 112.75 504.6 112.75 508.6 109.05 512.9 105.05 517.4 95.4 M493.8 101.2 L495.9 101.75 Q498.8 101.95 502.6 100.1 500.9 104.55 499.0 104.2 495.2 103.5 493.8 101.2 M499.85 94.6 L502.65 97.35 501.15 98.7 Q499.0 100.05 495.6 99.85 L499.85 94.6 M565.8 55.75 L562.3 56.5 571.65 52.1 Q569.7 54.55 565.8 55.75 M549.9 143.35 L548.85 228.85 517.35 242.15 515.85 234.8 517.4 227.3 Q518.95 219.45 518.95 216.0 518.95 210.4 518.55 208.9 518.0 208.05 517.75 206.95 516.8 202.85 517.55 171.95 517.85 170.55 528.85 161.85 L540.25 153.0 545.1 148.15 549.9 143.35 M502.4 189.45 Q502.95 189.45 503.35 189.85 L503.7 190.75 503.35 191.7 Q502.95 192.05 502.4 192.05 501.85 192.05 501.5 191.7 501.1 191.3 501.1 190.75 501.1 190.2 501.5 189.85 501.85 189.45 502.4 189.45 M467.85 230.1 Q467.35 229.6 467.35 228.9 467.35 228.2 467.85 227.7 468.35 227.2 469.05 227.2 469.75 227.2 470.25 227.7 470.75 228.2 470.75 228.9 470.75 229.6 470.25 230.1 469.75 230.6 469.05 230.6 468.35 230.6 467.85 230.1 M405.1 325.8 L404.35 326.55 481.95 261.5 486.3 287.0 479.9 288.0 482.2 292.9 468.65 294.3 470.45 300.0 457.15 304.35 458.8 310.7 444.1 312.5 445.85 320.0 435.15 321.25 437.3 329.6 424.05 331.55 425.05 341.85 412.0 345.4 413.9 352.2 397.3 354.4 398.5 360.75 383.1 363.4 383.1 376.55 367.15 378.1 369.95 387.15 356.85 390.9 358.5 401.95 339.0 405.35 338.9 416.2 324.4 417.3 321.75 436.55 305.0 438.4 304.65 440.2 Q304.1 442.4 303.05 444.3 299.65 450.55 292.55 452.15 L294.35 466.55 275.7 473.15 Q278.8 485.85 279.1 490.95 L258.15 490.8 263.25 503.65 261.9 501.85 265.45 515.5 Q249.35 516.95 245.4 518.65 243.9 519.3 243.65 520.2 L243.7 521.8 246.25 529.6 Q248.75 538.0 248.75 541.55 248.75 542.05 247.95 543.8 247.15 545.55 247.15 546.05 L247.55 548.2 248.2 551.7 247.7 551.8 247.5 551.8 Q238.6 536.8 238.6 511.35 238.6 494.1 242.55 484.55 247.2 473.35 262.4 457.65 273.95 445.7 310.15 413.15 365.95 362.85 397.8 333.4 L394.75 336.0 405.1 325.8 M547.75 230.65 L550.6 264.8 516.25 283.65 516.3 243.4 547.75 230.65" fill="#aca79e" fill-rule="evenodd" stroke="none"/>
    <path d="M877.3 583.9 L880.3 382.85 881.45 386.75 882.9 245.15 869.7 234.2 868.2 201.0 869.1 192.5 Q870.15 185.7 872.4 178.85 L876.95 173.35 881.45 168.15 890.0 208.5 890.75 222.0 890.4 270.5 Q890.4 412.7 892.3 482.95 L893.6 524.9 Q894.2 545.25 894.2 566.85 L894.0 591.5 890.65 590.25 877.3 584.25 877.3 583.9 M924.75 214.9 Q925.5 218.05 925.9 224.0 L925.9 224.65 Q926.65 237.4 926.65 290.45 L925.9 607.9 921.85 605.6 921.2 366.5 Q921.2 327.0 920.05 303.2 918.9 279.45 918.9 271.7 918.9 241.6 922.8 209.25 L924.75 214.9 M902.45 595.4 Q902.6 588.5 901.35 531.7 899.9 469.3 899.9 440.35 L900.8 389.5 Q901.7 339.15 901.7 314.05 L901.0 265.4 899.3 228.7 898.35 209.45 Q898.35 204.2 901.45 185.45 904.65 166.1 906.7 160.05 909.85 173.65 913.05 200.55 916.2 227.5 916.2 240.7 916.2 249.7 914.6 301.0 913.0 352.3 913.0 374.4 913.0 421.9 914.35 514.8 L915.65 602.25 Q909.7 599.1 903.65 596.2 L902.45 595.4" fill="#a09c94" fill-rule="evenodd" stroke="none"/>
    <path d="M895.75 592.3 L900.4 594.4 902.45 595.4 903.65 596.2 Q899.5 594.2 895.25 592.3 L890.65 590.25 894.0 591.5 895.75 592.3" fill="#003300" fill-rule="evenodd" stroke="none"/>
    <path d="M743.55 563.05 L746.6 562.45 746.9 563.1 743.55 563.05" fill="#83a702" fill-rule="evenodd" stroke="none"/>
    <path d="M401.15 553.75 L466.75 555.65 467.1 555.65 468.0 555.7 446.1 555.2 390.05 553.75 401.15 553.75" fill="#9d7242" fill-rule="evenodd" stroke="none"/>
    <path d="M789.15 568.3 L798.35 564.8 Q806.7 558.65 818.45 558.65 L822.95 559.25 829.65 560.55 819.9 564.8 836.75 569.65 839.65 571.25 Q841.1 572.45 848.25 575.6 855.55 578.85 858.75 579.55 L877.25 585.2 890.65 590.25 895.25 592.3 Q899.5 594.2 903.65 596.2 L915.7 603.95 916.55 604.5 919.65 606.35 921.85 607.6 925.9 609.8 927.9 610.85 937.0 615.75 938.75 616.75 945.0 620.6 946.65 621.75 949.9 624.25 952.0 626.15 956.05 633.3 952.0 631.6 938.75 627.9 936.95 627.5 936.95 627.45 935.45 627.4 935.45 627.55 936.95 628.4 938.75 629.45 952.0 637.2 958.85 642.55 958.8 643.15 928.0 638.5 927.95 637.85 927.65 637.35 Q927.45 637.15 927.25 637.25 927.0 637.3 926.85 637.6 926.7 637.9 926.7 638.35 L920.1 637.45 916.45 640.05 889.25 641.6 899.1 648.0 890.55 648.15 888.1 648.45 886.35 648.0 885.65 647.4 884.75 647.2 Q883.55 647.2 881.95 647.85 L853.75 652.25 Q833.25 655.55 821.45 656.75 L820.4 655.9 Q857.3 647.8 891.8 645.2 L872.7 639.65 912.15 637.25 893.4 630.25 944.35 638.3 955.85 641.3 Q950.3 636.8 940.6 632.9 L924.25 626.3 925.7 624.55 Q933.2 624.2 940.15 625.8 947.0 627.3 954.1 630.9 924.55 604.8 876.2 588.1 865.75 584.5 844.6 578.4 830.35 574.3 827.8 572.4 L836.3 572.55 815.95 565.85 825.5 560.75 821.45 560.5 Q816.75 560.5 805.9 564.75 795.1 569.0 790.6 569.0 L789.65 568.8 789.15 568.3 M735.15 564.6 L736.55 564.55 681.4 574.0 692.85 577.2 Q695.1 578.3 700.5 577.85 L705.45 577.15 723.55 575.3 Q699.7 581.15 674.9 582.5 L655.25 583.55 Q643.75 584.4 633.0 586.3 L671.4 585.35 625.85 589.95 633.25 591.1 638.9 592.05 642.0 592.6 646.4 593.35 653.3 594.05 Q670.45 596.15 724.8 606.05 768.35 613.95 779.8 613.5 L774.5 613.9 743.25 615.75 Q704.85 618.5 647.75 624.25 L627.8 627.7 637.3 627.55 629.5 628.9 671.05 628.55 674.0 629.2 659.15 630.95 Q652.9 631.3 644.15 631.3 L634.15 631.05 620.8 629.85 Q620.3 629.85 618.9 630.85 617.5 631.85 617.0 631.85 L604.6 630.95 Q585.65 630.95 569.5 638.65 575.2 640.25 583.7 641.05 L595.3 641.65 601.75 641.45 Q607.65 641.25 608.65 641.5 575.4 644.25 525.4 651.6 481.65 658.05 462.7 662.1 L457.75 661.6 462.95 660.6 509.15 651.6 515.55 650.35 541.45 645.35 553.05 644.25 549.35 644.2 576.5 641.35 561.3 640.0 591.8 629.25 Q599.25 629.9 616.7 627.05 632.15 624.55 639.4 622.3 L643.75 621.6 738.75 613.75 Q709.15 604.75 671.85 598.45 638.4 592.85 612.4 591.55 L655.9 579.25 678.7 578.1 688.2 578.65 691.35 579.05 676.9 574.3 726.85 564.75 735.15 564.6 M436.95 731.5 Q440.3 732.55 443.5 736.3 448.35 741.95 456.95 747.95 460.0 751.6 465.75 754.1 471.3 756.45 476.15 756.45 480.25 756.45 484.05 755.4 490.65 753.6 494.5 749.15 L570.2 741.75 565.0 739.05 568.5 739.1 Q573.25 739.65 579.75 742.25 L597.95 751.25 Q598.65 750.3 599.55 748.15 600.45 745.95 600.45 745.15 L599.8 742.1 Q599.1 739.8 598.45 738.8 594.3 732.05 586.25 732.5 L587.4 731.9 589.8 731.1 592.1 730.6 Q594.5 730.6 597.2 732.6 600.25 734.9 601.15 738.25 603.35 742.4 603.35 744.75 603.35 748.35 601.85 751.3 599.6 755.7 594.8 755.9 592.05 750.35 589.65 748.25 585.6 744.75 578.35 744.75 L548.75 748.4 Q522.4 751.95 510.15 751.85 508.85 751.85 498.95 756.3 489.05 760.75 480.75 760.75 467.5 760.75 453.35 747.8 L448.1 744.15 448.75 747.55 Q448.25 757.35 448.9 761.9 449.2 764.35 449.9 766.15 L447.9 766.35 Q445.2 766.35 443.2 765.5 L439.65 763.3 428.9 754.85 Q423.45 750.75 421.35 750.6 L412.8 750.3 406.95 750.75 398.25 751.85 403.75 766.7 Q399.65 767.4 391.1 759.15 379.1 747.55 372.7 743.55 L371.05 742.8 372.2 742.4 379.3 743.3 384.8 748.55 Q387.7 751.05 394.9 755.4 L395.65 748.1 402.7 747.05 411.6 746.2 Q432.05 746.2 446.3 761.7 L446.2 747.4 Q444.7 742.35 443.55 740.65 L443.75 740.7 442.45 739.25 436.8 734.9 Q432.0 731.55 430.7 731.4 L427.65 729.4 436.95 731.5 M625.5 732.5 L614.8 728.1 617.65 727.8 622.6 728.8 Q628.0 730.05 630.7 731.15 L654.25 729.8 677.5 731.05 Q671.75 732.35 659.15 733.15 644.25 734.05 634.1 732.9 L645.1 739.7 Q640.65 742.65 639.65 742.65 L625.75 741.45 611.4 739.65 634.4 737.25 625.5 732.5 M664.05 724.7 L660.25 724.15 664.85 723.55 661.7 720.0 Q668.0 723.05 669.0 723.05 690.2 723.05 725.7 717.3 L767.75 709.5 753.1 704.05 Q756.6 701.7 763.6 700.75 L770.5 700.25 776.75 701.1 784.55 702.4 778.0 695.95 781.55 695.8 Q784.15 695.8 792.4 698.2 801.2 700.7 804.85 702.85 L804.5 699.85 804.4 699.05 804.65 694.75 806.4 705.5 782.05 698.35 789.7 705.7 782.2 703.9 Q775.05 702.45 771.0 702.45 L766.3 702.85 759.45 703.75 771.9 710.45 Q757.85 713.55 729.15 718.0 694.45 723.4 671.7 725.2 L676.05 730.0 664.05 724.7 M840.4 575.25 L840.4 575.4 841.7 575.45 840.3 574.6 837.3 574.15 832.9 574.0 837.4 574.7 840.4 575.25 M917.05 637.45 L917.55 637.4 917.3 637.3 917.05 637.45 M916.25 656.85 L917.75 652.2 916.3 657.25 916.25 656.85 M878.3 616.75 L875.5 615.6 873.25 614.85 879.35 615.55 880.35 615.95 882.0 618.2 878.3 616.75 M872.85 608.85 L855.95 607.55 863.4 603.05 848.45 605.2 Q850.45 602.75 855.75 601.1 L860.75 599.95 Q863.65 599.95 865.4 601.2 866.95 602.3 866.85 603.7 L866.05 604.15 Q869.45 604.4 874.15 606.2 878.15 607.75 880.45 609.25 L883.05 612.55 879.1 610.05 878.1 609.45 873.8 608.95 873.6 608.9 872.85 608.85 M-47.95 564.0 Q0.35 549.6 64.6 540.55 114.7 533.45 138.5 533.45 L147.8 533.9 129.65 530.7 Q144.5 526.6 160.0 526.6 L170.35 526.95 166.75 524.45 199.6 529.35 Q200.6 529.65 201.1 530.35 201.0 530.65 200.05 530.65 L140.55 529.45 154.4 536.15 Q140.55 534.35 97.75 540.35 31.1 549.75 13.35 551.55 L14.15 551.15 -47.95 564.0 M244.05 555.45 L247.4 554.4 252.3 552.95 252.5 552.85 252.45 552.9 248.15 555.85 246.35 556.9 Q236.4 562.45 224.55 564.95 213.1 567.35 198.4 567.25 L193.0 568.45 185.75 570.5 195.75 570.1 Q226.65 570.1 236.8 581.3 L200.55 584.7 193.4 584.75 207.45 582.85 233.8 580.8 Q223.9 577.8 201.9 574.95 177.85 571.85 157.0 571.75 L171.85 571.35 233.4 559.8 244.05 555.45 M193.25 584.8 L197.85 585.45 197.15 585.65 Q187.05 590.3 160.95 595.0 132.15 600.15 115.2 598.95 L161.05 610.85 171.05 616.0 155.75 615.0 167.05 616.55 Q147.0 616.55 119.25 620.5 L71.35 628.0 69.4 628.15 46.75 628.5 61.8 628.8 -17.1 631.85 61.05 625.3 Q120.2 619.7 139.8 615.85 L143.9 614.75 Q150.35 613.75 162.3 614.25 L100.65 598.45 72.5 592.75 119.9 597.45 Q139.45 596.25 157.55 593.1 174.95 590.1 193.25 584.8 M439.8 739.35 L441.8 740.05 440.95 740.65 Q440.35 740.9 439.8 739.35" fill="#003300" fill-rule="evenodd" stroke="none"/>
    <path d="M789.15 568.3 L789.65 568.8 790.6 569.0 Q795.1 569.0 805.9 564.75 816.75 560.5 821.45 560.5 L825.5 560.75 815.95 565.85 836.3 572.55 827.8 572.4 Q830.35 574.3 844.6 578.4 865.75 584.5 876.2 588.1 924.55 604.8 954.1 630.9 947.0 627.3 940.15 625.8 933.2 624.2 925.7 624.55 L880.45 609.25 Q878.15 607.75 874.15 606.2 869.45 604.4 866.05 604.15 L866.85 603.7 Q866.95 602.3 865.4 601.2 863.65 599.95 860.75 599.95 L855.75 601.1 Q850.45 602.75 848.45 605.2 L863.4 603.05 855.95 607.55 872.85 608.85 Q867.2 608.6 859.6 610.3 852.1 612.0 849.1 613.95 L857.05 613.65 855.35 613.1 865.8 611.75 859.0 615.55 875.5 615.6 878.3 616.75 877.45 620.25 Q893.45 620.7 916.3 627.5 935.7 633.3 944.35 638.3 L893.4 630.25 912.15 637.25 872.7 639.65 891.8 645.2 Q857.3 647.8 820.4 655.9 817.6 654.4 811.45 653.1 804.2 651.6 799.5 652.35 L780.95 651.05 772.25 650.9 707.6 653.7 651.1 656.75 Q634.85 658.85 627.4 662.3 L603.85 670.4 Q583.55 677.2 580.25 679.5 L597.7 674.1 Q604.65 672.3 611.85 672.3 L616.55 672.55 608.2 678.0 698.05 664.15 681.15 671.5 688.8 668.8 Q694.9 666.4 702.7 666.4 L707.45 666.8 Q707.3 666.9 707.3 667.4 707.3 668.4 707.9 670.25 L747.95 663.0 Q718.85 671.0 711.15 674.4 707.4 676.05 705.75 677.7 704.85 678.6 703.3 681.15 713.55 679.8 733.45 675.9 751.95 672.7 766.95 672.7 793.95 672.7 818.4 679.35 L819.2 680.25 Q806.6 678.1 798.9 678.1 L779.1 679.7 779.05 679.7 Q770.85 679.8 754.5 682.5 735.1 685.65 722.95 689.95 L736.65 687.75 726.1 693.9 Q730.85 692.35 741.15 690.25 754.45 687.5 761.9 687.5 772.3 687.5 783.6 691.0 793.35 694.0 804.5 699.85 L804.85 702.85 Q801.2 700.7 792.4 698.2 784.15 695.8 781.55 695.8 L778.0 695.95 784.55 702.4 776.75 701.1 770.5 700.25 763.6 700.75 Q756.6 701.7 753.1 704.05 L767.75 709.5 725.7 717.3 Q690.2 723.05 669.0 723.05 668.0 723.05 661.7 720.0 L664.85 723.55 660.25 724.15 664.05 724.7 Q657.05 724.9 648.2 726.5 638.05 728.35 630.7 731.15 628.0 730.05 622.6 728.8 L617.65 727.8 614.8 728.1 625.5 732.5 601.15 738.25 Q600.25 734.9 597.2 732.6 594.5 730.6 592.1 730.6 L589.8 731.1 587.4 731.9 586.25 732.5 Q594.3 732.05 598.45 738.8 L579.75 742.25 Q573.25 739.65 568.5 739.1 L565.0 739.05 570.2 741.75 494.5 749.15 478.05 747.25 476.2 747.45 476.0 748.8 456.95 747.95 Q448.35 741.95 443.5 736.3 440.3 732.55 436.95 731.5 L460.6 731.35 Q459.75 729.0 423.3 723.05 385.6 716.9 370.4 717.6 L370.4 713.45 Q366.1 711.4 333.6 710.5 L301.85 710.0 273.25 710.75 240.7 711.45 Q184.5 711.45 180.35 709.3 L294.8 676.2 295.95 676.1 329.05 673.2 395.45 670.75 Q435.35 668.6 462.7 662.1 481.65 658.05 525.4 651.6 575.4 644.25 608.65 641.5 607.65 641.25 601.75 641.45 L595.3 641.65 583.7 641.05 Q575.2 640.25 569.5 638.65 L604.9 636.6 638.75 635.5 670.3 637.15 658.45 644.25 707.3 637.0 701.95 641.25 754.5 638.9 729.75 635.8 729.55 634.45 693.05 634.8 696.9 632.3 Q684.65 626.05 671.05 628.55 L629.5 628.9 637.3 627.55 627.8 627.7 647.75 624.25 693.85 627.05 697.25 627.0 710.05 625.65 731.55 624.35 Q740.3 624.05 746.15 624.05 L760.65 624.4 782.0 625.2 Q781.2 623.6 777.45 621.55 773.1 619.2 769.2 619.15 L809.6 618.45 Q804.8 616.4 794.3 615.0 L774.5 613.9 779.8 613.5 Q768.35 613.95 724.8 606.05 670.45 596.15 653.3 594.05 L662.3 593.7 665.1 594.2 672.3 591.75 Q681.2 588.8 689.8 586.4 L686.55 589.5 686.7 589.85 687.35 589.95 Q695.75 589.95 733.85 584.25 772.0 578.5 787.5 578.5 L792.2 578.65 789.15 581.75 820.45 578.55 Q817.6 577.05 812.65 575.65 806.55 573.95 801.65 573.95 L777.1 574.9 733.35 573.75 Q715.45 573.55 697.55 573.5 L748.25 566.2 789.15 568.3 M824.95 585.4 L831.15 585.35 Q851.7 585.35 869.6 593.3 L855.65 584.45 Q845.5 579.45 833.35 579.45 830.7 579.45 819.65 581.95 808.05 584.55 803.65 586.35 815.5 584.15 819.3 584.0 821.65 583.9 822.5 584.8 823.45 585.35 824.95 585.4 M692.85 577.2 L705.45 577.15 700.5 577.85 Q695.1 578.3 692.85 577.2 M633.25 591.1 L635.7 590.85 Q638.3 590.85 638.9 592.05 L633.25 591.1 M642.0 592.6 L643.95 591.8 645.3 591.35 646.0 591.4 646.4 591.65 646.4 593.35 642.0 592.6 M814.85 593.0 Q808.65 594.6 802.9 598.65 L816.6 595.4 813.7 597.85 817.1 598.8 822.2 599.55 826.4 599.1 830.6 598.6 833.55 598.8 Q836.55 599.2 838.05 600.25 L839.45 601.0 Q838.8 598.9 835.75 596.5 832.2 593.65 829.65 595.05 L829.65 591.85 829.75 591.85 Q821.45 591.25 814.85 593.0 M756.55 585.1 Q754.6 585.1 752.35 586.85 749.8 588.95 749.3 591.9 L763.9 587.7 Q763.05 586.6 760.45 585.8 758.2 585.1 756.55 585.1 M771.65 591.5 L781.85 590.95 786.15 589.55 771.65 591.5 M742.9 670.65 Q744.6 670.35 746.7 670.7 L741.6 671.05 742.9 670.65 M776.15 682.0 L793.95 685.15 765.15 683.25 776.15 682.0 M880.35 615.95 L879.35 615.55 888.3 615.8 880.35 615.95 M-47.95 564.0 L14.15 551.15 13.35 551.55 Q31.1 549.75 97.75 540.35 140.55 534.35 154.4 536.15 L140.55 529.45 200.05 530.65 208.55 551.2 220.65 552.1 203.35 558.55 Q215.55 558.25 215.7 558.45 L221.3 558.9 233.4 559.8 171.85 571.35 157.0 571.75 152.05 571.8 Q130.0 565.8 108.8 563.55 L79.05 562.1 Q55.85 562.1 49.15 564.95 47.0 565.85 45.35 567.65 43.4 569.85 42.3 570.55 L63.65 567.85 56.45 569.3 Q44.1 572.3 40.1 577.25 L68.4 571.25 50.5 578.8 85.35 573.0 89.6 575.15 79.6 580.05 125.75 577.6 170.9 579.3 Q202.95 581.15 207.45 582.85 L193.4 584.75 193.25 584.8 Q174.95 590.1 157.55 593.1 139.45 596.25 119.9 597.45 113.6 595.5 82.95 592.25 46.95 588.45 27.75 589.7 L28.4 588.0 Q27.15 586.75 22.95 586.65 L15.8 586.75 2.8 588.0 Q6.4 586.2 9.95 584.35 L3.0 583.7 Q0.2 583.7 -7.8 586.0 -16.85 588.6 -22.0 591.5 L-0.3 586.0 -11.3 592.05 15.0 590.0 7.0 593.6 26.8 593.8 21.35 596.5 Q15.8 599.75 15.55 602.55 L77.85 602.75 53.75 611.75 Q56.7 610.95 71.3 609.05 L88.85 607.15 Q101.5 607.15 111.6 608.9 121.25 610.55 139.8 615.85 120.2 619.7 61.05 625.3 L-17.1 631.85 -39.4 633.0 -39.55 633.15 Q-58.6 633.5 -79.5 625.6 -98.5 618.45 -111.25 607.75 L-47.95 564.0 M201.9 551.65 Q195.65 551.15 191.4 553.05 187.2 554.95 184.1 559.6 L201.9 551.65 M7.65 566.55 L10.25 566.15 Q11.3 565.75 11.3 565.15 11.3 564.55 10.25 564.15 L7.65 563.75 5.1 564.15 Q4.0 564.55 4.0 565.15 4.0 565.75 5.1 566.15 L7.65 566.55 M152.65 542.4 Q151.9 543.0 149.45 546.15 L162.5 541.5 Q159.9 540.7 157.9 540.7 154.7 540.7 152.65 542.4 M132.5 546.4 Q128.75 547.95 125.6 551.55 L141.55 545.0 Q136.35 544.8 132.5 546.4 M0.4 621.05 Q1.0 623.0 1.8 623.7 2.35 624.25 3.25 624.25 4.5 624.25 8.0 623.1 11.85 621.8 13.55 620.55 L7.4 619.0 4.65 619.2 Q1.85 619.7 0.4 621.05 M428.45 687.55 Q436.45 686.75 440.25 685.25 438.25 683.85 426.2 682.3 414.15 680.75 405.4 680.75 L392.6 682.0 378.1 683.55 Q380.7 685.65 387.85 686.2 391.45 686.5 395.2 686.35 L406.8 687.2 420.65 688.05 428.45 687.55 M432.75 679.25 L457.95 671.45 455.5 671.2 452.85 671.1 Q444.85 671.1 440.2 673.9 437.5 675.5 432.75 679.25 M335.5 681.55 L370.4 678.8 376.05 682.95 380.25 678.5 372.65 677.35 361.65 676.45 351.35 677.15 Q340.8 678.4 335.5 681.55 M369.8 683.15 L369.5 684.5 Q369.35 686.05 370.4 687.35 L369.8 683.15 M370.4 741.9 L370.4 726.2 Q375.95 731.75 399.75 732.2 403.25 732.3 430.7 731.4 432.0 731.55 436.8 734.9 L442.45 739.25 443.75 740.7 443.55 740.65 Q444.7 742.35 446.2 747.4 L379.3 743.3 372.2 742.4 370.4 741.9 M439.8 739.35 Q440.35 740.9 440.95 740.65 L441.8 740.05 439.8 739.35 M448.75 747.55 L448.1 744.15 453.35 747.8 448.75 747.55 M622.5 665.8 L618.85 666.4 626.3 664.65 Q624.85 665.4 622.5 665.8 M499.65 667.5 Q486.6 667.5 474.8 678.3 L512.9 668.95 Q511.55 668.3 507.15 667.85 L499.65 667.5 M540.3 670.35 L537.35 669.7 Q535.7 669.7 532.65 671.2 529.3 672.8 528.2 674.45 L544.15 671.4 Q543.25 671.0 540.3 670.35 M571.0 729.15 Q568.95 728.95 567.4 729.15 L566.3 729.45 571.0 729.15 M-6.15 560.4 Q-8.1 560.4 -9.85 561.35 -12.25 562.6 -13.5 565.4 L-0.85 562.0 -6.15 560.4 M-31.0 589.55 L-13.85 581.3 Q-18.55 580.8 -23.25 582.95 -28.05 585.2 -31.0 589.55 M-8.25 617.5 L-23.5 614.3 -33.75 618.6 -8.25 617.5" fill="#689a01" fill-rule="evenodd" stroke="none"/>
    <path d="M925.7 624.55 L924.25 626.3 940.6 632.9 Q950.3 636.8 955.85 641.3 L944.35 638.3 Q935.7 633.3 916.3 627.5 893.45 620.7 877.45 620.25 L878.3 616.75 882.0 618.2 880.35 615.95 888.3 615.8 879.35 615.55 873.25 614.85 875.5 615.6 859.0 615.55 865.8 611.75 855.35 613.1 857.05 613.65 849.1 613.95 Q852.1 612.0 859.6 610.3 867.2 608.6 872.85 608.85 L873.6 608.9 873.8 608.95 878.1 609.45 878.4 609.9 879.1 610.05 883.05 612.55 880.45 609.25 925.7 624.55 M748.25 566.2 L697.55 573.5 Q715.45 573.55 733.35 573.75 L777.1 574.9 801.65 573.95 Q806.55 573.95 812.65 575.65 817.6 577.05 820.45 578.55 L789.15 581.75 792.2 578.65 787.5 578.5 Q772.0 578.5 733.85 584.25 695.75 589.95 687.35 589.95 L686.7 589.85 686.55 589.5 689.8 586.4 Q681.2 588.8 672.3 591.75 L665.1 594.2 662.3 593.7 653.3 594.05 646.4 593.35 646.4 591.65 646.0 591.4 645.3 591.35 643.95 591.8 642.0 592.6 638.9 592.05 Q638.3 590.85 635.7 590.85 L633.25 591.1 625.85 589.95 671.4 585.35 633.0 586.3 Q643.75 584.4 655.25 583.55 L674.9 582.5 Q699.7 581.15 723.55 575.3 L705.45 577.15 692.85 577.2 681.4 574.0 736.55 564.55 735.15 564.6 743.55 563.05 746.9 563.1 748.25 566.2 M824.95 585.4 Q823.45 585.35 822.5 584.8 821.65 583.9 819.3 584.0 815.5 584.15 803.65 586.35 808.05 584.55 819.65 581.95 830.7 579.45 833.35 579.45 845.5 579.45 855.65 584.45 L869.6 593.3 Q851.7 585.35 831.15 585.35 L824.95 585.4 M774.5 613.9 L794.3 615.0 Q804.8 616.4 809.6 618.45 L769.2 619.15 Q773.1 619.2 777.45 621.55 781.2 623.6 782.0 625.2 L760.65 624.4 746.15 624.05 Q740.3 624.05 731.55 624.35 L710.05 625.65 697.25 627.0 693.85 627.05 647.75 624.25 Q704.85 618.5 743.25 615.75 L774.5 613.9 M671.05 628.55 Q684.65 626.05 696.9 632.3 L693.05 634.8 729.55 634.45 729.75 635.8 754.5 638.9 701.95 641.25 707.3 637.0 658.45 644.25 670.3 637.15 638.75 635.5 604.9 636.6 569.5 638.65 Q585.65 630.95 604.6 630.95 L617.0 631.85 Q617.5 631.85 618.9 630.85 620.3 629.85 620.8 629.85 L634.15 631.05 644.15 631.3 Q652.9 631.3 659.15 630.95 L674.0 629.2 671.05 628.55 M370.4 717.6 Q385.6 716.9 423.3 723.05 459.75 729.0 460.6 731.35 L436.95 731.5 427.65 729.4 430.7 731.4 Q403.25 732.3 399.75 732.2 375.95 731.75 370.4 726.2 L370.4 717.6 M804.5 699.85 Q793.35 694.0 783.6 691.0 772.3 687.5 761.9 687.5 754.45 687.5 741.15 690.25 730.85 692.35 726.1 693.9 L736.65 687.75 722.95 689.95 Q735.1 685.65 754.5 682.5 770.85 679.8 779.05 679.7 777.85 679.7 777.05 680.4 776.15 681.05 776.15 682.0 L765.15 683.25 793.95 685.15 Q798.3 685.15 801.35 689.25 804.4 693.3 804.4 699.05 L804.5 699.85 M818.4 679.35 Q793.95 672.7 766.95 672.7 751.95 672.7 733.45 675.9 713.55 679.8 703.3 681.15 704.85 678.6 705.75 677.7 707.4 676.05 711.15 674.4 718.85 671.0 747.95 663.0 L707.9 670.25 Q707.3 668.4 707.3 667.4 707.3 666.9 707.45 666.8 L702.7 666.4 Q694.9 666.4 688.8 668.8 L681.15 671.5 698.05 664.15 608.2 678.0 616.55 672.55 611.85 672.3 Q604.65 672.3 597.7 674.1 L580.25 679.5 Q583.55 677.2 603.85 670.4 L627.4 662.3 Q634.85 658.85 651.1 656.75 L707.6 653.7 772.25 650.9 780.95 651.05 799.5 652.35 Q801.55 652.5 808.85 654.2 L817.1 656.2 817.85 656.7 Q824.7 662.55 827.0 667.5 828.25 670.05 829.85 678.15 L813.55 672.75 818.4 679.35 M814.85 593.0 Q821.45 591.25 829.75 591.85 L829.65 591.85 829.65 595.05 Q832.2 593.65 835.75 596.5 838.8 598.9 839.45 601.0 L838.05 600.25 Q836.55 599.2 833.55 598.8 L830.6 598.6 826.4 599.1 822.2 599.55 817.1 598.8 813.7 597.85 816.6 595.4 802.9 598.65 Q808.65 594.6 814.85 593.0 M771.65 591.5 L786.15 589.55 781.85 590.95 771.65 591.5 M756.55 585.1 Q758.2 585.1 760.45 585.8 763.05 586.6 763.9 587.7 L749.3 591.9 Q749.8 588.95 752.35 586.85 754.6 585.1 756.55 585.1 M742.9 670.65 L741.6 671.05 746.7 670.7 Q744.6 670.35 742.9 670.65 M220.65 552.1 L244.05 555.45 233.4 559.8 221.3 558.9 215.7 558.45 Q215.55 558.25 203.35 558.55 L220.65 552.1 M201.9 551.65 L184.1 559.6 Q187.2 554.95 191.4 553.05 195.65 551.15 201.9 551.65 M207.45 582.85 Q202.95 581.15 170.9 579.3 L125.75 577.6 79.6 580.05 89.6 575.15 85.35 573.0 50.5 578.8 68.4 571.25 40.1 577.25 Q44.1 572.3 56.45 569.3 L63.65 567.85 42.3 570.55 Q43.4 569.85 45.35 567.65 47.0 565.85 49.15 564.95 55.85 562.1 79.05 562.1 L108.8 563.55 Q130.0 565.8 152.05 571.8 L157.0 571.75 Q177.85 571.85 201.9 574.95 223.9 577.8 233.8 580.8 L207.45 582.85 M119.9 597.45 L72.5 592.75 100.65 598.45 162.3 614.25 Q150.35 613.75 143.9 614.75 L139.8 615.85 Q121.25 610.55 111.6 608.9 101.5 607.15 88.85 607.15 L71.3 609.05 Q56.7 610.95 53.75 611.75 L77.85 602.75 15.55 602.55 Q15.8 599.75 21.35 596.5 L26.8 593.8 7.0 593.6 15.0 590.0 -11.3 592.05 -0.3 586.0 -22.0 591.5 Q-16.85 588.6 -7.8 586.0 0.2 583.7 3.0 583.7 L9.95 584.35 Q6.4 586.2 2.8 588.0 L15.8 586.75 22.95 586.65 Q27.15 586.75 28.4 588.0 L27.75 589.7 Q46.95 588.45 82.95 592.25 113.6 595.5 119.9 597.45 M132.5 546.4 Q136.35 544.8 141.55 545.0 L125.6 551.55 Q128.75 547.95 132.5 546.4 M152.65 542.4 Q154.7 540.7 157.9 540.7 159.9 540.7 162.5 541.5 L149.45 546.15 Q151.9 543.0 152.65 542.4 M7.65 566.55 L5.1 566.15 Q4.0 565.75 4.0 565.15 4.0 564.55 5.1 564.15 L7.65 563.75 10.25 564.15 Q11.3 564.55 11.3 565.15 11.3 565.75 10.25 566.15 L7.65 566.55 M0.4 621.05 Q1.85 619.7 4.65 619.2 L7.4 619.0 13.55 620.55 Q11.85 621.8 8.0 623.1 4.5 624.25 3.25 624.25 2.35 624.25 1.8 623.7 1.0 623.0 0.4 621.05 M432.75 679.25 Q437.5 675.5 440.2 673.9 444.85 671.1 452.85 671.1 L455.5 671.2 457.95 671.45 432.75 679.25 M428.45 687.55 L420.65 688.05 406.8 687.2 395.2 686.35 Q391.45 686.5 387.85 686.2 380.7 685.65 378.1 683.55 L392.6 682.0 405.4 680.75 Q414.15 680.75 426.2 682.3 438.25 683.85 440.25 685.25 436.45 686.75 428.45 687.55 M335.5 681.55 Q340.8 678.4 351.35 677.15 L361.65 676.45 372.65 677.35 380.25 678.5 376.05 682.95 370.4 678.8 335.5 681.55 M369.8 683.15 L370.4 687.35 Q369.35 686.05 369.5 684.5 L369.8 683.15 M622.5 665.8 Q624.85 665.4 626.3 664.65 L618.85 666.4 622.5 665.8 M540.3 670.35 Q543.25 671.0 544.15 671.4 L528.2 674.45 Q529.3 672.8 532.65 671.2 535.7 669.7 537.35 669.7 L540.3 670.35 M499.65 667.5 L507.15 667.85 Q511.55 668.3 512.9 668.95 L474.8 678.3 Q486.6 667.5 499.65 667.5 M-8.25 617.5 L-33.75 618.6 -23.5 614.3 -8.25 617.5 M-31.0 589.55 Q-28.05 585.2 -23.25 582.95 -18.55 580.8 -13.85 581.3 L-31.0 589.55 M-6.15 560.4 L-0.85 562.0 -13.5 565.4 Q-12.25 562.6 -9.85 561.35 -8.1 560.4 -6.15 560.4" fill="#83a702" fill-rule="evenodd" stroke="none"/>
    <path d="M938.75 629.45 L936.95 628.4 936.95 627.5 938.75 627.9 938.75 629.45 M927.9 610.85 L925.9 609.8 925.9 607.9 927.95 609.1 927.9 610.85 M921.85 607.6 L919.65 606.35 919.6 604.35 921.85 605.6 921.85 607.6 M916.55 604.5 L915.7 603.95 915.65 602.25 916.65 602.75 916.55 604.5 M840.4 575.25 L837.4 574.7 837.3 574.15 840.3 574.6 840.4 575.25 M879.1 610.05 L878.4 609.9 878.1 609.45 879.1 610.05" fill="#817d77" fill-rule="evenodd" stroke="none"/>
    <path d="M925.9 609.8 L921.85 607.6 921.85 605.6 925.9 607.9 925.9 609.8 M915.7 603.95 L903.65 596.2 Q909.7 599.1 915.65 602.25 L915.7 603.95 M890.65 590.25 L877.25 585.2 877.3 584.25 890.65 590.25" fill="#a09c94" fill-rule="evenodd" stroke="none"/>
    <path d="M881.95 647.85 Q883.55 647.2 884.75 647.2 L885.65 647.4 886.35 648.0 Q883.55 648.9 879.55 657.0 881.4 651.55 881.95 647.85 M888.1 648.45 L890.55 648.15 883.65 673.4 Q886.55 658.7 888.1 648.45 M916.45 640.05 L920.1 637.45 917.75 652.2 916.25 656.85 915.35 658.75 901.85 682.2 900.35 685.55 879.4 744.6 Q871.85 757.5 864.8 814.15 863.1 827.5 860.15 855.0 L857.85 875.15 Q857.9 831.05 860.1 811.25 864.0 775.8 877.95 738.0 891.05 702.4 907.35 668.5 912.75 657.3 914.3 652.75 916.55 646.35 916.45 640.05 M643.75 621.6 L639.4 622.3 634.1 621.5 643.75 621.6 M549.35 644.2 L553.05 644.25 541.45 645.35 511.0 642.75 450.6 637.7 401.15 634.15 442.25 636.65 549.35 644.2 M688.2 578.65 L678.7 578.1 631.65 573.55 Q647.1 572.75 660.85 574.0 674.25 575.25 688.2 578.65 M813.25 682.65 L815.8 682.8 Q811.9 710.35 806.15 731.0 803.8 739.65 796.05 762.15 797.35 753.15 801.45 735.35 804.4 722.45 805.6 718.15 L814.25 686.55 813.9 684.6 813.25 682.65 M856.05 759.5 Q865.35 736.55 869.9 723.75 L863.4 747.4 Q840.9 809.55 840.8 809.3 847.5 782.15 856.05 759.5 M865.25 689.0 L871.35 676.6 864.25 693.5 Q849.05 722.7 830.9 747.5 849.8 719.5 865.25 689.0 M193.0 568.45 L198.4 567.25 269.15 569.15 295.1 572.35 297.75 572.55 321.1 573.75 312.15 574.05 409.15 581.75 Q380.85 582.35 353.25 580.35 334.75 579.05 306.65 575.65 L261.8 570.55 Q235.75 568.2 211.1 568.2 L193.0 568.45 M193.25 584.8 L193.4 584.75 200.55 584.7 329.7 591.55 467.25 600.3 569.5 609.35 470.15 603.0 334.55 595.7 Q245.75 590.8 207.95 585.3 L197.85 585.45 193.25 584.8 M61.8 628.8 L46.75 628.5 69.4 628.15 70.65 628.25 104.95 632.7 217.55 642.45 306.95 644.4 360.75 648.0 Q402.0 651.1 421.45 653.3 L413.85 652.95 199.7 641.8 176.1 640.7 134.0 636.95 61.8 628.8 M167.05 616.55 L155.75 615.0 171.05 616.0 229.5 624.85 167.05 616.55 M335.85 633.05 L313.6 633.95 296.35 634.1 287.55 634.0 294.95 633.75 273.8 630.9 284.25 631.85 335.85 633.05 M370.6 624.25 L494.5 620.5 519.9 620.65 392.05 625.45 Q362.8 625.65 334.25 626.35 L370.6 624.25 M505.1 583.4 L532.95 586.35 507.05 584.95 478.65 583.5 505.1 583.4 M568.45 590.0 L610.4 594.35 604.9 594.1 592.5 593.0 568.45 590.0 M362.75 572.5 L399.95 570.1 Q416.2 569.2 431.55 569.2 495.1 569.2 523.75 571.5 477.85 570.9 454.9 570.95 416.8 571.05 362.75 572.5" fill="#56391b" fill-rule="evenodd" stroke="none"/>
    <path d="M821.45 656.75 Q833.25 655.55 853.75 652.25 L881.95 647.85 Q881.4 651.55 879.55 657.0 883.55 648.9 886.35 648.0 L888.1 648.45 Q886.55 658.7 883.65 673.4 L890.55 648.15 899.1 648.0 889.25 641.6 916.45 640.05 Q916.55 646.35 914.3 652.75 912.75 657.3 907.35 668.5 891.05 702.4 877.95 738.0 864.0 775.8 860.1 811.25 857.9 831.05 857.85 875.15 L857.85 877.85 857.45 879.1 Q857.25 879.45 857.2 879.75 L857.1 880.2 857.55 888.75 Q857.55 896.3 855.95 899.65 853.5 904.8 845.55 907.8 827.35 914.75 764.6 914.75 710.15 914.75 649.7 908.55 L611.2 904.05 591.2 901.55 Q582.35 900.8 552.8 890.05 516.55 876.85 485.75 860.3 L443.3 837.95 Q393.25 816.25 371.7 794.2 356.95 779.1 356.95 765.6 356.95 759.85 359.75 754.15 363.25 747.0 370.4 741.9 L372.2 742.4 371.05 742.8 372.7 743.55 Q379.1 747.55 391.1 759.15 399.65 767.4 403.75 766.7 L398.25 751.85 406.95 750.75 412.8 750.3 421.35 750.6 Q423.45 750.75 428.9 754.85 L439.65 763.3 443.2 765.5 Q445.2 766.35 447.9 766.35 L449.9 766.15 Q449.2 764.35 448.9 761.9 448.25 757.35 448.75 747.55 L453.35 747.8 Q467.5 760.75 480.75 760.75 489.05 760.75 498.95 756.3 508.85 751.85 510.15 751.85 522.4 751.95 548.75 748.4 L578.35 744.75 Q585.6 744.75 589.65 748.25 592.05 750.35 594.8 755.9 599.6 755.7 601.85 751.3 603.35 748.35 603.35 744.75 603.35 742.4 601.15 738.25 L625.5 732.5 634.4 737.25 611.4 739.65 625.75 741.45 639.65 742.65 Q640.65 742.65 645.1 739.7 L634.1 732.9 Q644.25 734.05 659.15 733.15 671.75 732.35 677.5 731.05 L654.25 729.8 630.7 731.15 Q638.05 728.35 648.2 726.5 657.05 724.9 664.05 724.7 L676.05 730.0 671.7 725.2 Q694.45 723.4 729.15 718.0 757.85 713.55 771.9 710.45 L759.45 703.75 766.3 702.85 771.0 702.45 Q775.05 702.45 782.2 703.9 L789.7 705.7 782.05 698.35 806.4 705.5 Q807.65 703.15 807.45 699.1 807.45 688.4 788.9 681.15 L813.25 682.65 813.9 684.6 814.25 686.55 805.6 718.15 Q804.4 722.45 801.45 735.35 797.35 753.15 796.05 762.15 803.8 739.65 806.15 731.0 811.9 710.35 815.8 682.8 L822.75 683.3 818.8 676.3 832.1 683.65 Q831.65 671.4 828.9 666.15 827.85 664.05 825.7 661.6 L821.45 656.75 M329.05 673.2 L295.95 676.1 293.75 676.3 Q246.3 679.1 196.85 669.85 246.7 663.35 300.15 660.25 L370.85 658.0 Q426.95 658.0 452.45 662.3 L329.05 673.2 M456.95 747.95 L476.0 748.8 476.2 747.45 478.05 747.25 494.5 749.15 Q490.65 753.6 484.05 755.4 480.25 756.45 476.15 756.45 471.3 756.45 465.75 754.1 460.0 751.6 456.95 747.95 M579.75 742.25 L598.45 738.8 Q599.1 739.8 599.8 742.1 L600.45 745.15 Q600.45 745.95 599.55 748.15 598.65 750.3 597.95 751.25 L579.75 742.25 M655.9 579.25 L612.4 591.55 Q638.4 592.85 671.85 598.45 709.15 604.75 738.75 613.75 L643.75 621.6 634.1 621.5 Q613.0 621.05 589.75 620.75 543.8 620.1 519.9 620.65 L494.5 620.5 Q471.7 619.75 425.15 614.85 369.55 608.95 333.9 602.15 367.55 601.25 409.15 604.4 436.45 606.5 484.1 611.95 L470.15 603.0 569.5 609.35 467.25 600.3 483.95 597.8 500.05 595.6 555.95 593.85 604.9 594.1 610.4 594.35 568.45 590.0 532.95 586.35 505.1 583.4 Q522.95 579.65 552.95 578.1 570.75 577.2 589.4 577.2 L655.9 579.25 M591.8 629.25 L561.3 640.0 576.5 641.35 549.35 644.2 442.25 636.65 401.15 634.15 Q382.15 633.65 335.85 633.05 L284.25 631.85 273.8 630.9 229.5 624.85 171.05 616.0 161.05 610.85 Q188.05 610.15 218.8 614.2 L289.2 624.35 Q284.45 622.65 282.3 621.25 279.95 619.75 278.9 619.35 273.35 617.15 237.9 609.8 L246.7 609.35 253.0 609.15 261.45 609.65 272.25 610.5 370.6 624.25 334.25 626.35 320.1 626.6 355.45 629.95 390.0 632.35 425.05 631.2 461.45 630.0 527.9 631.0 Q528.9 631.0 529.9 628.9 L591.8 629.25 M541.45 645.35 L515.55 650.35 518.55 647.75 511.0 642.75 541.45 645.35 M509.15 651.6 L462.95 660.6 413.85 652.95 421.45 653.3 Q402.0 651.1 360.75 648.0 L306.95 644.4 264.55 642.15 309.4 639.3 Q322.45 638.2 346.75 638.2 425.05 638.2 509.15 651.6 M688.2 578.65 Q674.25 575.25 660.85 574.0 647.1 572.75 631.65 573.55 L615.1 573.8 605.75 571.05 Q594.45 567.8 584.1 566.35 L574.1 566.35 574.1 566.85 557.15 567.4 547.6 567.3 Q535.65 563.3 519.85 560.4 L499.75 557.4 Q509.9 557.7 518.55 559.15 L523.15 558.75 Q551.3 558.9 551.55 559.15 L560.05 559.65 569.15 560.15 579.05 560.65 584.15 561.15 Q588.6 561.6 590.55 562.3 L726.85 564.75 676.9 574.3 691.35 579.05 688.2 578.65 M865.25 689.0 Q849.8 719.5 830.9 747.5 849.05 722.7 864.25 693.5 L871.35 676.6 865.25 689.0 M856.05 759.5 Q847.5 782.15 840.8 809.3 840.9 809.55 863.4 747.4 L869.9 723.75 Q865.35 736.55 856.05 759.5 M247.4 554.4 L247.75 554.0 Q248.7 553.35 252.3 552.95 L247.4 554.4 M252.45 552.9 L267.0 552.15 Q295.05 551.9 295.3 551.65 L307.8 551.15 Q327.5 551.25 327.75 551.5 343.55 551.4 344.0 551.15 L349.5 551.5 361.5 550.9 361.5 550.65 368.8 551.0 375.0 551.5 377.3 551.65 379.8 552.0 Q401.05 552.25 401.3 552.5 L404.55 552.75 405.05 553.25 407.5 553.15 Q418.55 553.15 418.8 553.4 L421.45 553.55 424.3 553.9 426.45 554.05 428.8 554.4 439.8 554.9 482.05 554.9 490.25 556.0 493.05 556.75 492.55 556.6 478.0 555.35 478.0 555.85 Q429.75 559.6 406.05 564.85 L401.9 565.85 390.75 565.55 335.0 563.1 304.25 562.6 Q263.65 561.1 262.75 561.45 263.1 561.8 261.7 562.1 L248.0 562.85 247.1 562.6 Q246.75 562.5 246.75 564.0 246.75 565.55 247.0 565.5 L247.25 565.1 254.75 565.6 279.35 568.95 298.0 572.1 297.75 572.55 295.1 572.35 269.15 569.15 198.4 567.25 Q213.1 567.35 224.55 564.95 236.4 562.45 246.35 556.9 L248.15 555.85 252.45 552.9 M69.4 628.15 L71.35 628.0 70.65 628.25 69.4 628.15 M197.15 585.65 L197.85 585.45 207.95 585.3 197.15 585.65 M304.5 559.6 Q306.2 560.3 312.75 561.1 L321.0 561.85 Q346.2 561.85 362.75 562.35 L383.0 562.85 388.05 562.35 Q388.9 561.95 388.5 560.6 381.2 558.9 346.6 557.65 308.85 556.3 304.5 559.6 M118.65 654.0 L166.0 651.15 227.0 648.15 Q236.45 647.85 262.35 647.85 L311.35 649.35 Q263.45 649.2 224.8 652.3 194.8 654.75 148.55 661.25 L118.65 654.0 M104.95 632.7 Q138.95 632.05 159.15 633.35 185.85 635.05 225.8 641.5 L217.55 642.45 104.95 632.7 M292.65 594.7 L291.2 594.75 292.65 594.65 292.65 594.7 M311.0 654.75 L346.4 654.3 233.3 661.0 311.0 654.75 M523.85 569.85 L491.0 567.35 460.5 566.85 453.0 566.35 433.6 566.3 Q458.15 563.6 475.1 563.6 491.25 563.6 520.7 567.25 L528.85 568.3 Q528.85 569.55 529.1 569.5 L529.35 569.1 536.85 569.6 546.85 570.85 546.05 570.7 547.1 570.85 547.35 570.85 Q545.6 571.6 542.1 572.1 L541.75 572.25 529.8 571.75 529.0 571.1 Q527.35 570.1 523.85 569.85 M582.35 570.35 L586.85 569.85 589.1 570.1 582.35 570.35 M371.75 659.95 L371.8 659.9 370.45 659.75 370.45 659.9 371.75 659.95 M379.3 743.3 L446.2 747.4 446.3 761.7 Q432.05 746.2 411.6 746.2 L402.7 747.05 395.65 748.1 394.9 755.4 Q387.7 751.05 384.8 748.55 L379.3 743.3" fill="#825b39" fill-rule="evenodd" stroke="none"/>
    <path d="M678.7 578.1 L655.9 579.25 589.4 577.2 Q570.75 577.2 552.95 578.1 522.95 579.65 505.1 583.4 L478.65 583.5 507.05 584.95 532.95 586.35 568.45 590.0 592.5 593.0 604.9 594.1 555.95 593.85 500.05 595.6 483.95 597.8 467.25 600.3 329.7 591.55 200.55 584.7 236.8 581.3 Q226.65 570.1 195.75 570.1 L185.75 570.5 193.0 568.45 211.1 568.2 Q235.75 568.2 261.8 570.55 L306.65 575.65 Q334.75 579.05 353.25 580.35 380.85 582.35 409.15 581.75 L312.15 574.05 321.1 573.75 297.75 572.55 298.0 572.1 279.35 568.95 254.75 565.6 247.25 565.1 247.0 565.5 Q246.75 565.55 246.75 564.0 246.75 562.5 247.1 562.6 L248.0 562.85 261.7 562.1 Q263.1 561.8 262.75 561.45 263.65 561.1 304.25 562.6 L335.0 563.1 390.75 565.55 401.9 565.85 406.05 564.85 Q429.75 559.6 478.0 555.85 L478.0 555.35 492.55 556.6 493.05 556.75 494.3 557.2 494.4 557.25 494.4 557.3 498.1 557.35 498.3 557.35 499.2 557.4 499.75 557.4 519.85 560.4 Q535.65 563.3 547.6 567.3 L557.15 567.4 574.1 566.85 574.1 566.35 584.1 566.35 Q594.45 567.8 605.75 571.05 L615.1 573.8 631.65 573.55 678.7 578.1 M639.4 622.3 Q632.15 624.55 616.7 627.05 599.25 629.9 591.8 629.25 L529.9 628.9 Q528.9 631.0 527.9 631.0 L461.45 630.0 425.05 631.2 390.0 632.35 355.45 629.95 320.1 626.6 334.25 626.35 Q362.8 625.65 392.05 625.45 L519.9 620.65 Q543.8 620.1 589.75 620.75 613.0 621.05 634.1 621.5 L639.4 622.3 M515.55 650.35 L509.15 651.6 Q425.05 638.2 346.75 638.2 322.45 638.2 309.4 639.3 L264.55 642.15 306.95 644.4 217.55 642.45 225.8 641.5 Q185.85 635.05 159.15 633.35 138.95 632.05 104.95 632.7 L70.65 628.25 71.35 628.0 119.25 620.5 Q147.0 616.55 167.05 616.55 L229.5 624.85 273.8 630.9 294.95 633.75 287.55 634.0 296.35 634.1 313.6 633.95 335.85 633.05 Q382.15 633.65 401.15 634.15 L450.6 637.7 511.0 642.75 518.55 647.75 515.55 650.35 M462.95 660.6 L457.75 661.6 452.45 662.3 Q426.95 658.0 370.85 658.0 L300.15 660.25 Q246.7 663.35 196.85 669.85 L148.55 661.25 Q194.8 654.75 224.8 652.3 263.45 649.2 311.35 649.35 L262.35 647.85 Q236.45 647.85 227.0 648.15 L166.0 651.15 118.65 654.0 Q112.7 652.65 91.05 651.35 L47.0 648.5 Q-15.55 643.75 -39.55 633.15 L-39.4 633.0 -17.1 631.85 61.8 628.8 134.0 636.95 176.1 640.7 199.7 641.8 413.85 652.95 462.95 660.6 M161.05 610.85 L115.2 598.95 Q132.15 600.15 160.95 595.0 187.05 590.3 197.15 585.65 L207.95 585.3 Q245.75 590.8 334.55 595.7 L470.15 603.0 484.1 611.95 Q436.45 606.5 409.15 604.4 367.55 601.25 333.9 602.15 369.55 608.95 425.15 614.85 471.7 619.75 494.5 620.5 L370.6 624.25 272.25 610.5 261.45 609.65 253.0 609.15 246.7 609.35 237.9 609.8 Q273.35 617.15 278.9 619.35 279.95 619.75 282.3 621.25 284.45 622.65 289.2 624.35 L218.8 614.2 Q188.05 610.15 161.05 610.85 M304.5 559.6 Q308.85 556.3 346.6 557.65 381.2 558.9 388.5 560.6 388.9 561.95 388.05 562.35 L383.0 562.85 362.75 562.35 Q346.2 561.85 321.0 561.85 L312.75 561.1 Q306.2 560.3 304.5 559.6 M292.65 594.7 L292.65 594.65 291.2 594.75 292.65 594.7 M311.0 654.75 L233.3 661.0 346.4 654.3 311.0 654.75 M523.85 569.85 Q527.35 570.1 529.0 571.1 L529.8 571.75 541.75 572.25 542.1 572.1 Q545.6 571.6 547.35 570.85 L547.1 570.85 546.05 570.7 546.85 570.85 536.85 569.6 529.35 569.1 529.1 569.5 Q528.85 569.55 528.85 568.3 L520.7 567.25 Q491.25 563.6 475.1 563.6 458.15 563.6 433.6 566.3 L453.0 566.35 460.5 566.85 491.0 567.35 523.85 569.85 M582.35 570.35 L589.1 570.1 586.85 569.85 582.35 570.35 M362.75 572.5 Q416.8 571.05 454.9 570.95 477.85 570.9 523.75 571.5 495.1 569.2 431.55 569.2 416.2 569.2 399.95 570.1 L362.75 572.5" fill="#9d7242" fill-rule="evenodd" stroke="none"/>
    <path d="M820.4 655.9 L821.45 656.75 825.7 661.6 Q827.85 664.05 828.9 666.15 831.65 671.4 832.1 683.65 L818.8 676.3 822.75 683.3 815.8 682.8 813.25 682.65 788.9 681.15 Q807.45 688.4 807.45 699.1 807.65 703.15 806.4 705.5 L804.65 694.75 804.4 699.05 Q804.4 693.3 801.35 689.25 798.3 685.15 793.95 685.15 L776.15 682.0 Q776.15 681.05 777.05 680.4 777.85 679.7 779.05 679.7 L779.1 679.7 798.9 678.1 Q806.6 678.1 819.2 680.25 L818.4 679.35 813.55 672.75 829.85 678.15 Q828.25 670.05 827.0 667.5 824.7 662.55 817.85 656.7 L817.1 656.2 808.85 654.2 Q801.55 652.5 799.5 652.35 804.2 651.6 811.45 653.1 817.6 654.4 820.4 655.9 M462.7 662.1 Q435.35 668.6 395.45 670.75 L329.05 673.2 452.45 662.3 457.75 661.6 462.7 662.1 M295.95 676.1 L294.8 676.2 293.75 676.3 295.95 676.1" fill="#0e3d0e" fill-rule="evenodd" stroke="none"/>
    <path d="M936.95 628.4 L935.45 627.55 935.45 627.4 936.95 627.45 936.95 627.5 936.95 628.4 M949.9 624.25 L946.65 621.75 946.65 620.7 949.9 622.85 949.9 624.25 M945.0 620.6 L938.75 616.75 938.75 615.65 945.0 619.6 945.0 620.6 M937.0 615.75 L927.9 610.85 927.95 609.1 935.8 613.8 937.0 614.55 937.0 615.75 M919.65 606.35 L916.55 604.5 916.65 602.75 919.6 604.35 919.65 606.35 M247.7 551.8 L247.5 551.8 247.7 551.8" fill="#aca79e" fill-rule="evenodd" stroke="none"/>
    <path d="M371.75 659.95 L370.45 659.9 370.45 659.75 371.8 659.9 371.75 659.95" fill="#003200" fill-rule="evenodd" stroke="none"/>
  </g>
</svg>
