<?xml version="1.0" encoding="UTF-8" standalone="no"?>
<svg xmlns:ffdec="https://www.free-decompiler.com/flash" xmlns:xlink="http://www.w3.org/1999/xlink" ffdec:objectType="shape" height="608.55px" width="19.0px" xmlns="http://www.w3.org/2000/svg">
  <g transform="matrix(1.0, 0.0, 0.0, 1.0, -509.75, 0.0)">
    <path d="M514.7 40.85 L514.0 40.25 Q512.8 39.0 512.8 37.55 512.8 35.9 514.7 35.0 L514.65 34.25 Q512.3 34.15 511.3 32.75 510.75 31.95 510.75 31.0 510.75 26.45 513.4 24.75 L512.65 23.15 512.85 22.9 Q509.75 13.9 509.75 11.1 509.75 7.7 510.55 6.6 L511.1 5.95 Q511.55 3.2 513.75 1.55 L514.25 1.2 Q516.6 -0.3 519.75 0.05 523.35 0.45 525.75 3.15 L525.8 3.2 525.9 3.3 Q528.5 6.3 528.5 11.1 528.5 14.2 525.65 25.6 L527.2 25.1 526.9 26.55 Q528.75 27.8 528.75 28.9 L528.5 32.0 Q527.85 34.05 525.75 34.05 L525.5 34.05 525.15 36.1 Q526.0 36.9 526.25 38.0 525.45 37.55 523.75 37.55 L523.55 37.85 523.5 38.6 523.7 39.65 524.5 39.8 526.3 38.7 526.3 38.75 Q526.3 40.2 524.75 41.25 L524.5 41.4 524.45 43.5 Q526.25 44.1 526.25 45.85 526.25 47.0 525.3 48.0 L524.3 48.75 524.1 60.5 524.3 74.9 524.95 81.45 Q526.6 98.35 526.6 103.1 L526.1 99.3 526.1 126.4 525.8 127.15 525.85 128.7 526.1 128.45 526.05 206.75 526.1 224.95 526.15 232.3 526.2 234.8 526.15 240.2 526.1 256.5 526.35 257.45 526.35 275.8 526.35 351.85 526.1 352.8 526.1 566.3 527.1 595.85 Q527.1 602.6 526.65 606.3 L526.4 608.0 525.3 608.25 525.3 603.0 524.55 588.5 Q523.8 576.75 523.8 573.85 L525.05 545.55 524.8 537.3 524.45 536.55 524.6 528.8 Q524.25 493.45 524.55 481.3 L524.55 459.55 524.75 442.85 Q524.75 436.9 523.95 425.8 L523.75 423.3 523.8 310.75 523.8 309.7 524.05 304.0 524.05 285.75 523.55 229.0 523.55 139.3 523.5 139.0 523.5 119.05 523.3 118.75 523.3 54.25 522.75 53.4 522.75 49.05 517.25 48.5 517.25 72.9 517.25 89.2 517.05 115.0 517.05 152.05 Q517.2 154.6 516.8 163.85 516.9 168.0 517.75 170.0 L517.75 170.8 Q517.75 176.05 518.3 178.3 L518.3 228.55 Q518.25 238.85 517.8 253.3 L517.8 294.3 Q517.65 295.85 517.65 297.55 L517.8 304.65 517.8 317.8 517.85 318.0 Q517.75 325.9 518.05 337.75 L518.25 386.8 518.25 430.3 518.1 447.7 518.25 451.5 518.3 481.3 518.95 535.35 518.75 537.0 518.3 545.05 Q517.9 550.15 518.05 553.05 L518.05 574.8 Q516.95 580.1 516.65 587.2 L516.55 599.15 516.55 606.0 516.85 607.55 515.6 607.0 Q515.6 592.25 516.1 566.0 L516.1 353.4 515.85 352.45 515.85 275.25 515.85 257.15 516.1 256.2 516.1 97.55 515.85 99.55 515.55 101.75 514.15 111.8 513.9 113.45 513.9 113.3 Q516.1 80.3 516.1 68.25 L516.1 67.15 515.9 61.35 515.9 61.3 515.95 61.1 515.95 61.05 515.75 52.6 515.6 53.05 515.35 48.5 515.3 47.6 Q514.25 46.8 514.25 45.6 514.25 45.05 514.8 44.6 L514.8 44.8 Q514.8 45.65 515.1 46.05 L516.0 46.55 517.55 44.3 517.05 43.55 515.15 43.65 515.0 41.05 515.05 41.05 516.2 38.65 Q516.8 37.15 516.8 36.55 516.8 35.75 516.6 35.7 L516.0 35.55 514.85 36.7 514.05 37.85 514.3 39.55 514.7 40.85 M528.0 31.0 L527.55 30.25 Q525.1 30.25 524.0 32.0 524.4 32.5 525.75 32.5 L528.0 31.0 M527.0 28.0 L526.55 27.0 522.05 27.4 Q519.5 28.25 519.5 29.85 L519.55 30.7 519.75 30.8 Q523.5 30.05 527.0 28.0 M524.45 5.45 Q522.4 2.75 519.3 2.2 516.3 1.7 514.1 3.4 511.75 5.25 511.75 8.8 511.75 12.9 514.4 24.25 516.45 23.4 519.75 23.85 522.4 24.2 524.7 25.3 L524.85 24.5 526.8 13.25 Q526.8 8.45 524.45 5.45 M519.55 34.35 Q521.65 34.5 523.1 35.0 L523.3 33.35 522.55 32.8 Q521.1 31.5 519.35 31.5 517.25 31.5 516.6 32.9 L516.35 33.4 516.55 34.45 519.55 34.35 M523.75 36.3 Q522.6 34.95 520.55 35.75 518.5 36.5 518.5 38.0 L518.55 38.9 518.75 39.05 521.3 38.15 523.75 36.3 M518.95 27.9 L522.0 26.0 Q521.25 25.25 521.25 24.8 517.85 24.65 516.2 26.0 L515.7 26.55 515.75 26.35 515.55 25.8 Q514.2 25.85 513.05 27.25 512.05 28.45 512.05 29.15 512.05 29.75 512.65 30.85 L513.5 32.05 513.55 31.8 Q513.05 30.8 514.1 29.1 L515.15 27.55 515.0 28.5 Q515.0 29.3 515.3 29.65 L516.0 30.05 518.95 27.9 M522.75 43.15 L522.75 42.1 520.75 42.3 517.25 41.95 517.25 43.65 520.25 43.2 522.75 43.15 M521.25 44.8 Q520.4 44.8 518.05 46.8 518.9 46.95 520.3 46.35 L521.55 45.75 521.5 46.35 Q521.5 47.1 521.8 47.35 L522.25 47.75 523.4 47.15 524.25 46.5 524.05 46.05 Q523.3 45.65 522.8 45.65 L521.75 45.8 521.7 45.65 521.75 45.55 521.25 44.8" fill="#767225" fill-rule="evenodd" stroke="none"/>
    <path d="M526.25 38.0 L526.3 38.05 526.5 38.5 526.3 38.7 524.5 39.8 523.7 39.65 523.5 38.6 523.55 37.85 523.75 37.55 Q525.45 37.55 526.25 38.0 M514.8 44.6 Q514.8 43.95 514.95 43.75 L515.15 43.65 517.05 43.55 517.55 44.3 516.0 46.55 515.1 46.05 Q514.8 45.65 514.8 44.8 L514.8 44.6 M515.0 41.05 L514.75 41.05 514.7 40.85 514.3 39.55 514.05 37.85 514.85 36.7 516.0 35.55 516.6 35.7 Q516.8 35.75 516.8 36.55 516.8 37.15 516.2 38.65 L515.05 41.05 515.0 41.05 M527.0 28.0 Q523.5 30.05 519.75 30.8 L519.55 30.7 519.5 29.85 Q519.5 28.25 522.05 27.4 L526.55 27.0 527.0 28.0 M528.0 31.0 L525.75 32.5 Q524.4 32.5 524.0 32.0 525.1 30.25 527.55 30.25 L528.0 31.0 M518.95 27.9 L516.0 30.05 515.3 29.65 Q515.0 29.3 515.0 28.5 L515.15 27.55 514.1 29.1 Q513.05 30.8 513.55 31.8 L513.5 32.05 512.65 30.85 Q512.05 29.75 512.05 29.15 512.05 28.45 513.05 27.25 514.2 25.85 515.55 25.8 L515.75 26.35 515.7 26.55 516.2 26.0 Q517.85 24.65 521.25 24.8 521.25 25.25 522.0 26.0 L518.95 27.9 M523.75 36.3 L521.3 38.15 518.75 39.05 518.55 38.9 518.5 38.0 Q518.5 36.5 520.55 35.75 522.6 34.95 523.75 36.3 M521.25 44.8 L521.75 45.55 521.7 45.65 521.75 45.8 522.8 45.65 Q523.3 45.65 524.05 46.05 L524.25 46.5 523.4 47.15 522.25 47.75 521.8 47.35 Q521.5 47.1 521.5 46.35 L521.55 45.75 520.3 46.35 Q518.9 46.95 518.05 46.8 520.4 44.8 521.25 44.8" fill="#9d974f" fill-rule="evenodd" stroke="none"/>
    <path d="M525.3 608.25 L520.85 608.55 Q519.35 608.55 516.85 607.55 L516.55 606.0 516.55 599.15 516.65 587.2 Q516.95 580.1 518.05 574.8 L518.05 553.05 Q517.9 550.15 518.3 545.05 L518.75 537.0 518.95 535.35 518.3 481.3 518.25 451.5 518.1 447.7 518.25 430.3 518.25 386.8 518.05 337.75 Q517.75 325.9 517.85 318.0 L517.8 317.8 517.8 304.65 517.65 297.55 Q517.65 295.85 517.8 294.3 L517.8 253.3 Q518.25 238.85 518.3 228.55 L518.3 178.3 Q517.75 176.05 517.75 170.8 L517.75 170.0 Q516.9 168.0 516.8 163.85 517.2 154.6 517.05 152.05 L517.05 115.0 517.25 89.2 517.25 72.9 517.25 48.5 522.75 49.05 522.75 53.4 523.3 54.25 523.3 118.75 523.5 119.05 523.5 139.0 523.55 139.3 523.55 229.0 524.05 285.75 524.05 304.0 523.8 309.7 523.8 310.75 523.75 423.3 523.95 425.8 Q524.75 436.9 524.75 442.85 L524.55 459.55 524.55 481.3 Q524.25 493.45 524.6 528.8 L524.45 536.55 524.8 537.3 525.05 545.55 523.8 573.85 Q523.8 576.75 524.55 588.5 L525.3 603.0 525.3 608.25 M524.45 5.45 Q526.8 8.45 526.8 13.25 L524.85 24.5 524.7 25.3 Q522.4 24.2 519.75 23.85 516.45 23.4 514.4 24.25 511.75 12.9 511.75 8.8 511.75 5.25 514.1 3.4 516.3 1.7 519.3 2.2 522.4 2.75 524.45 5.45 M519.55 34.35 L516.55 34.45 516.35 33.4 516.6 32.9 Q517.25 31.5 519.35 31.5 521.1 31.5 522.55 32.8 L523.3 33.35 523.1 35.0 Q521.65 34.5 519.55 34.35 M522.75 43.15 L520.25 43.2 517.25 43.65 517.25 41.95 520.75 42.3 522.75 42.1 522.75 43.15" fill="#898050" fill-rule="evenodd" stroke="none"/>
  </g>
</svg>
