<?xml version="1.0" encoding="UTF-8" standalone="no"?>
<svg xmlns:ffdec="https://www.free-decompiler.com/flash" xmlns:xlink="http://www.w3.org/1999/xlink" ffdec:objectType="shape" height="489.6px" width="1544.8px" xmlns="http://www.w3.org/2000/svg">
  <g transform="matrix(1.0, 0.0, 0.0, 1.0, 0.4, 12.8)">
    <path d="M814.1 -0.45 Q815.0 -1.8 817.8 0.05 L817.8 0.0 819.4 0.0 819.4 0.45 819.65 0.5 Q821.35 0.95 821.8 1.4 821.45 2.45 819.4 2.6 L819.4 11.4 818.8 12.0 817.8 12.0 816.5 7.2 Q815.35 3.85 813.8 2.4 L811.7 6.9 Q810.1 10.35 810.6 12.4 L810.25 12.65 809.6 13.0 Q807.5 12.4 807.4 9.55 L807.6 5.6 807.4 5.6 Q807.4 7.4 807.05 8.7 806.35 11.4 804.4 11.4 802.25 11.4 801.0 9.7 L799.3 10.9 798.55 11.35 Q798.2 15.6 796.4 19.2 L795.4 19.2 Q794.75 17.15 792.15 13.75 L790.55 11.55 787.2 11.15 784.4 16.8 782.6 16.8 Q782.35 15.7 782.25 14.1 L782.0 11.4 781.0 20.8 Q780.75 20.8 780.1 21.15 L778.6 21.6 778.15 15.9 777.4 10.2 772.5 15.2 Q769.75 18.05 769.2 20.8 L767.25 18.8 765.8 17.2 765.1 18.4 763.4 20.0 763.0 19.1 762.8 18.55 762.6 18.4 Q762.55 21.05 761.6 22.6 760.15 22.35 758.8 20.0 757.6 17.45 757.2 17.0 757.0 18.0 757.0 21.6 756.85 21.6 756.2 21.95 L754.6 22.4 754.45 21.85 752.85 22.15 752.0 22.6 751.95 22.55 751.45 23.35 Q749.25 27.0 748.8 28.2 747.35 26.75 747.05 24.95 L746.8 22.6 745.2 24.8 742.2 24.8 742.0 22.4 741.8 22.0 741.35 23.8 740.4 25.6 738.6 25.6 Q738.15 24.9 737.55 22.15 L737.45 21.75 Q737.0 22.0 736.6 22.3 L735.4 23.4 735.4 27.4 735.4 27.7 733.9 28.0 Q732.05 28.0 731.25 26.1 L730.6 23.8 Q730.6 31.3 728.4 37.6 L727.4 37.6 Q727.15 35.45 727.05 31.85 L726.8 25.6 726.55 26.35 726.0 27.2 724.2 27.2 Q723.8 24.8 723.8 18.8 L723.6 18.4 723.1 22.35 Q722.2 25.2 719.4 25.6 719.15 24.85 719.05 23.45 L718.8 20.8 Q718.5 22.4 716.5 25.4 714.4 28.55 712.2 30.4 711.8 29.2 711.8 25.0 L710.3 24.65 708.2 24.0 Q707.65 25.5 707.5 27.9 L707.4 32.8 Q707.25 32.8 706.6 33.15 L705.0 33.6 704.6 31.8 704.2 30.0 Q704.7 31.75 703.35 35.1 701.75 38.95 701.8 41.2 L700.8 41.8 Q699.1 39.3 698.45 34.75 697.85 30.75 698.2 26.6 L695.2 29.0 692.6 28.8 692.6 26.65 690.25 27.15 688.4 29.6 Q686.8 28.8 686.25 28.2 L686.05 28.0 684.35 28.2 683.6 29.6 Q682.2 29.6 682.2 28.4 L681.8 28.4 681.6 33.2 680.8 33.6 678.0 29.6 677.8 29.6 677.8 34.4 678.05 34.9 Q678.05 35.4 676.8 35.4 673.15 35.4 672.15 33.45 L671.6 32.45 669.95 31.5 669.1 30.9 669.0 32.6 Q668.8 33.2 668.0 33.6 L666.25 32.95 665.9 32.5 665.6 33.0 Q662.45 31.5 660.4 30.0 L659.25 31.65 Q657.7 32.9 655.4 31.6 L655.4 37.0 655.6 37.3 Q655.55 37.6 654.3 37.6 L652.1 37.4 651.4 37.2 651.2 36.85 651.0 35.3 Q651.0 31.25 653.85 28.9 659.45 24.25 674.6 26.8 675.0 26.6 675.0 25.4 675.2 25.05 676.6 25.4 L679.4 25.8 680.9 25.75 682.05 24.6 Q682.9 24.0 684.8 23.0 L686.2 24.8 686.6 25.4 688.55 25.3 690.2 23.35 Q692.25 20.9 692.8 20.6 L694.6 20.8 694.6 24.85 Q696.1 23.55 698.15 22.95 L699.2 22.2 699.6 22.6 702.6 22.4 702.65 23.1 Q703.0 22.15 703.6 21.6 704.2 22.2 705.2 24.2 705.5 23.2 706.8 23.0 L711.8 22.8 Q711.8 21.0 712.8 19.8 713.45 20.6 713.7 22.0 L713.8 24.6 713.8 24.8 Q715.55 23.1 716.75 20.5 L718.6 16.0 721.0 16.0 721.0 21.0 721.9 17.3 Q722.7 14.4 724.8 13.4 725.8 15.8 725.8 21.0 727.0 18.2 727.0 15.4 L727.15 15.05 Q727.4 14.6 728.0 14.2 729.6 16.1 730.5 18.35 731.55 17.55 733.65 16.9 L733.8 15.2 Q735.55 15.15 736.75 16.05 742.5 14.65 745.85 15.55 746.2 15.3 746.8 15.2 747.15 15.55 747.3 16.2 L747.4 16.0 749.0 16.0 749.0 17.0 Q749.8 16.4 751.8 16.4 L752.2 15.5 749.8 15.2 749.6 15.5 Q749.4 15.55 749.4 14.3 749.4 13.1 749.9 13.2 L750.4 13.4 754.2 13.55 755.2 12.6 756.45 13.7 758.0 13.85 763.6 14.4 763.9 14.4 764.65 14.45 Q765.9 13.95 766.6 14.2 L766.45 14.75 Q767.15 14.95 767.55 15.4 L768.6 17.0 Q768.6 15.2 769.8 12.8 770.5 12.8 771.35 13.5 L772.4 14.8 774.35 10.5 Q775.9 7.8 778.8 6.4 779.4 7.0 779.4 9.4 L780.0 10.2 780.9 7.75 Q781.7 5.8 782.8 4.8 783.55 6.6 783.9 8.65 L785.8 8.55 786.2 6.2 786.75 5.9 788.3 5.6 Q789.6 5.6 790.7 7.15 L792.05 6.35 794.45 5.15 794.6 4.0 795.75 4.75 Q798.4 4.0 801.6 4.2 802.8 3.6 802.9 2.4 803.05 1.2 804.0 0.6 805.0 1.35 805.0 3.4 L805.0 3.6 807.5 2.5 808.6 2.15 808.6 2.1 Q808.6 -0.3 809.0 -0.75 809.8 -1.7 814.0 -2.4 L814.6 -1.8 Q811.65 0.9 811.3 1.65 L811.25 1.85 811.55 1.75 Q811.95 1.0 812.3 0.6 813.1 -0.25 813.95 -0.2 L814.1 -0.45 M830.25 -3.25 L831.45 -3.8 831.9 -3.9 832.3 -4.7 832.8 -5.0 834.35 -4.95 834.45 -5.1 Q834.85 -5.45 835.6 -5.6 L836.0 -4.95 837.15 -4.95 837.5 -6.05 Q837.65 -6.6 841.0 -6.6 L843.4 -6.4 843.45 -4.85 846.6 -4.85 847.2 -5.8 848.1 -4.8 850.8 -4.8 851.0 -4.6 851.0 -5.2 850.75 -5.5 Q850.75 -5.8 852.0 -5.8 L853.45 -6.05 Q855.15 -5.85 857.6 -3.4 L858.45 -6.15 Q859.05 -8.0 861.5 -8.0 863.35 -8.0 863.85 -7.05 L864.8 -5.2 865.9 -6.05 Q866.9 -6.85 868.2 -7.2 L868.2 -4.0 Q868.7 -4.5 868.8 -6.2 869.35 -7.7 872.2 -8.0 L872.2 -4.0 874.25 -4.55 877.0 -5.0 879.4 -4.8 879.4 -4.05 880.6 -3.75 881.45 -2.9 882.4 -5.0 883.9 -3.75 885.2 -2.6 Q886.2 -2.6 885.8 -3.4 885.4 -4.2 886.4 -4.2 887.3 -4.2 887.9 -3.8 L888.0 -5.6 889.2 -5.6 889.55 -3.95 890.75 -6.15 Q892.8 -9.6 893.9 -9.6 895.2 -9.6 897.95 -7.8 L900.65 -6.4 900.6 -6.6 901.0 -7.2 Q901.6 -6.95 902.2 -6.3 903.95 -7.4 905.8 -7.4 L903.75 -6.0 905.4 -6.0 905.4 -6.4 906.75 -6.05 911.0 -6.2 Q911.6 -6.65 913.2 -8.65 915.25 -10.4 919.1 -10.4 923.1 -10.4 924.75 -9.05 L926.25 -7.35 926.4 -11.2 927.6 -11.2 928.15 -7.35 930.4 -8.2 932.55 -7.8 934.4 -8.2 939.6 -8.0 940.9 -6.15 Q941.2 -5.65 941.8 -5.25 L942.75 -5.95 Q943.5 -6.4 944.2 -6.4 L945.8 -7.95 945.6 -10.4 946.8 -10.4 947.35 -8.75 Q949.95 -9.8 952.0 -12.2 953.8 -10.05 953.8 -7.4 L954.15 -7.05 954.6 -6.6 955.95 -9.75 Q957.1 -12.35 958.0 -12.8 959.4 -9.65 959.4 -7.0 L960.1 -8.8 Q960.9 -10.5 962.4 -11.4 963.95 -9.25 966.6 -8.85 969.8 -8.35 971.9 -7.0 972.85 -8.15 973.6 -8.4 L973.75 -8.6 Q974.7 -9.8 975.2 -9.8 978.3 -9.8 980.2 -7.8 L981.2 -6.95 984.2 -7.0 Q985.2 -7.0 985.5 -8.0 985.8 -9.0 986.8 -9.0 L987.6 -9.0 989.2 -8.9 991.0 -8.55 991.7 -8.3 Q993.9 -11.4 995.2 -11.4 996.5 -11.4 996.85 -10.65 L997.0 -9.6 997.5 -10.4 Q997.9 -11.15 998.4 -11.4 1000.35 -10.65 1000.25 -9.1 1000.15 -6.45 1000.4 -5.8 L1000.85 -5.45 1001.4 -4.8 1002.2 -5.75 Q1002.8 -6.6 1004.0 -6.6 L1005.85 -6.4 1006.8 -5.8 1007.4 -4.6 Q1006.85 -4.05 1004.4 -2.4 L1001.2 0.0 1000.2 0.0 Q999.8 -1.8 998.2 -6.6 L998.0 -7.0 Q997.8 -5.2 997.2 -4.0 L996.55 -4.0 Q995.95 -3.4 994.7 -2.9 L994.7 -2.8 994.4 2.0 993.6 2.4 Q992.95 1.35 992.75 -0.5 L992.65 -2.35 991.95 -2.25 991.6 -0.75 991.6 0.2 991.25 0.35 Q990.7 1.65 989.8 2.4 L988.4 0.0 Q988.2 0.4 988.2 1.6 988.05 1.6 987.4 1.95 L985.8 2.4 Q985.45 1.15 983.9 -0.8 L983.4 -0.8 982.85 -2.05 982.1 -2.85 982.0 -2.95 982.0 -2.6 Q982.0 -0.6 981.8 -0.2 L981.05 0.05 980.0 0.4 Q978.9 -1.1 978.1 -3.0 977.3 -4.75 977.25 -5.95 L975.6 -6.35 Q975.5 -5.1 973.6 -1.95 971.55 1.5 970.4 2.0 L968.95 1.5 Q968.4 1.1 968.4 -0.2 968.4 -1.2 970.2 -4.4 L970.3 -4.55 968.5 -5.45 966.8 -5.4 966.8 0.2 966.4 0.7 Q966.0 1.2 964.8 1.2 963.8 1.2 962.8 -1.0 962.0 -2.8 962.0 -3.35 L961.5 -3.85 961.4 -4.85 961.2 -4.75 Q960.7 -0.9 959.2 0.8 958.35 -1.1 957.9 -3.05 L957.05 -2.7 956.2 -0.8 955.6 4.0 Q954.6 3.6 953.95 2.65 L951.55 5.5 950.25 4.6 953.05 0.75 952.9 0.15 951.4 1.6 951.0 0.75 950.6 0.8 948.85 -2.2 948.0 -1.4 Q947.1 -1.55 946.65 -1.8 L946.6 -1.0 945.6 -0.6 945.5 -0.6 944.4 1.6 941.0 1.6 Q940.2 0.4 939.8 -0.8 L940.0 -1.4 940.55 -1.5 939.25 -1.75 939.4 -0.1 Q939.4 1.2 939.2 1.45 L938.4 1.8 Q936.6 0.1 936.6 -2.3 L936.6 -2.5 934.7 -3.3 932.2 -4.6 932.0 -4.6 930.1 -4.65 928.75 -3.8 928.55 -3.65 928.55 -3.6 929.0 2.3 Q929.0 3.6 928.8 3.85 L928.0 4.2 Q926.7 3.5 926.35 0.75 L926.2 -2.4 924.15 -3.0 924.2 -0.9 924.0 5.4 922.6 5.6 921.85 3.95 Q921.4 2.9 921.4 1.7 L921.85 -2.3 922.05 -3.65 917.8 -5.0 Q918.55 -3.4 916.95 -1.1 L916.75 1.0 Q916.35 2.55 913.8 7.0 913.7 9.45 912.0 12.2 910.7 11.3 909.75 6.85 L908.15 5.5 Q907.95 6.05 907.2 6.4 L906.45 5.55 906.0 6.4 905.0 6.4 Q903.95 4.85 903.1 2.55 902.2 -0.05 902.2 -2.0 L902.25 -2.4 901.65 -3.8 Q900.4 -2.2 899.6 -0.1 898.15 5.2 896.8 7.4 L895.35 5.9 Q895.0 5.45 895.0 4.8 L897.75 -1.4 Q898.85 -3.2 900.05 -4.5 898.9 -4.9 897.5 -5.6 L893.8 -7.6 893.55 -6.85 Q893.8 -7.1 894.0 -7.2 L894.55 -6.8 894.6 -5.4 892.9 -0.9 Q891.25 3.0 890.5 3.9 L890.0 5.6 889.75 5.35 889.6 7.0 888.2 7.2 Q887.85 5.65 887.8 2.05 L887.6 1.4 Q887.4 1.4 887.4 3.2 887.25 3.2 886.6 3.55 L885.0 4.0 884.25 1.85 Q883.75 0.35 883.6 -0.8 L880.8 2.6 Q879.35 1.85 878.45 0.45 L878.2 0.2 878.2 0.05 Q877.55 -1.15 877.4 -2.4 L877.0 -2.4 876.55 -0.2 875.6 2.4 873.8 2.4 Q873.2 0.6 873.6 -1.8 L870.65 0.4 867.2 3.2 Q866.2 1.6 866.2 -2.6 864.1 -3.1 863.0 -4.35 L861.8 -6.0 Q860.3 -4.5 859.2 -1.0 858.0 2.75 857.0 4.0 855.8 2.2 855.8 -2.0 L855.4 -2.0 Q854.6 1.0 854.4 2.8 L853.6 3.2 Q852.95 2.95 852.7 2.1 L852.4 0.4 852.0 6.8 851.2 7.2 848.65 3.65 Q847.5 1.85 846.95 -0.7 L846.55 -0.75 846.05 0.9 Q845.45 2.6 844.2 3.2 L841.7 0.0 840.9 -0.9 838.6 -1.0 838.6 -0.8 839.6 -0.8 840.15 -0.1 840.2 1.6 840.15 3.35 839.6 4.0 838.6 4.0 838.25 3.35 838.2 1.6 Q838.2 0.25 838.35 -0.4 L837.0 0.0 836.2 -1.05 832.2 -1.2 832.1 -1.4 832.0 -1.4 831.4 -1.4 831.4 -0.8 831.15 1.45 827.4 3.2 Q826.05 2.25 824.6 -1.6 L824.85 -1.9 Q825.25 -2.25 826.0 -2.4 L827.0 -1.25 827.8 -0.6 828.0 -3.2 829.1 -3.25 830.25 -3.25 M905.3 -4.0 L904.75 -4.0 905.2 -3.6 905.3 -4.0 M918.2 -7.75 Q918.85 -7.2 922.35 -6.5 L922.4 -7.2 922.8 -7.2 921.0 -8.4 917.55 -8.1 918.2 -7.75 M914.75 -6.85 L914.8 -6.95 914.55 -6.8 914.1 -6.4 914.75 -6.85 M923.85 -6.2 L924.15 -6.15 923.8 -6.4 923.85 -6.2 M942.55 -0.75 L942.6 -0.6 942.95 -0.7 942.55 -0.75 M977.3 -7.6 Q976.6 -7.5 975.8 -6.85 L977.25 -6.9 977.3 -7.6 M995.4 -7.6 L995.35 -7.35 995.65 -7.3 995.6 -7.6 995.4 -7.6 M1544.0 474.4 Q1543.6 475.2 1542.4 475.6 1540.6 474.65 1539.55 473.3 L1538.0 471.4 Q1535.9 469.6 1526.8 469.6 1526.5 469.6 1524.45 472.2 L1521.6 475.2 Q1520.65 474.6 1518.35 471.85 1515.85 468.85 1514.8 468.0 L1510.45 471.3 1508.8 474.0 Q1503.15 474.0 1502.2 470.65 1502.2 466.6 1502.0 465.2 1499.05 469.35 1496.0 472.0 1494.5 469.9 1489.85 464.55 L1482.8 456.8 Q1478.35 459.7 1478.5 464.8 L1478.9 469.65 Q1479.15 472.8 1478.8 475.2 1478.55 475.2 1477.15 475.85 L1474.0 476.8 Q1473.0 471.15 1466.1 466.9 1457.7 461.75 1455.2 457.6 L1453.8 459.75 1451.2 462.8 Q1449.0 462.3 1446.15 457.65 1443.0 452.6 1437.6 450.4 L1433.7 454.8 Q1431.15 457.65 1430.4 458.0 1427.6 457.75 1426.15 456.6 1425.2 455.85 1425.2 455.2 L1405.2 454.4 1404.8 455.0 Q1404.4 455.1 1404.4 452.6 1404.4 450.2 1404.95 450.35 L1406.4 450.8 1415.7 451.4 1428.0 452.0 Q1430.85 452.0 1436.15 449.95 1442.55 447.4 1445.35 446.85 1457.55 444.35 1469.6 456.4 1471.2 455.65 1471.5 454.35 L1471.8 452.1 Q1472.25 449.6 1479.2 449.6 L1483.4 452.5 Q1488.15 455.95 1492.65 457.95 1507.75 464.8 1522.4 457.6 1523.25 458.45 1523.45 459.55 L1523.6 462.4 1523.6 463.1 Q1523.65 460.8 1525.7 461.15 L1532.0 462.4 Q1534.65 462.05 1532.35 462.0 L1538.8 462.2 Q1540.75 462.4 1541.2 463.35 L1541.85 466.3 Q1542.55 469.05 1544.4 472.0 L1544.0 474.4 M1507.85 467.2 L1509.6 465.2 1510.0 464.8 1508.0 464.85 1506.0 465.2 1506.0 468.8 1506.4 469.2 1507.85 467.2 M1339.55 442.75 L1339.2 444.4 1336.4 444.8 Q1335.6 443.6 1335.6 438.8 L1335.2 437.6 1333.9 438.8 Q1332.6 440.0 1330.2 440.0 1313.2 432.6 1310.0 427.6 1324.9 426.4 1328.75 428.85 L1330.55 430.7 Q1331.3 431.6 1332.8 431.6 1338.5 431.6 1339.6 434.85 1339.95 435.9 1339.8 437.35 L1339.6 439.0 1339.55 442.75 M911.7 7.1 L911.15 7.2 911.2 8.4 911.6 8.4 911.7 7.1 M817.4 3.0 L817.4 2.6 816.75 2.55 817.0 3.0 817.4 3.0 M810.0 4.8 L809.55 4.8 809.8 5.6 810.2 4.65 810.0 4.8 M796.2 12.2 L796.2 12.6 796.6 12.6 796.6 12.15 796.2 12.2 M784.15 10.9 L784.2 12.4 784.95 10.95 784.15 10.9 M760.6 17.05 L758.9 16.45 760.4 18.2 760.6 17.05 M732.55 23.75 L733.0 25.0 733.2 25.2 733.25 24.25 732.55 23.75 M749.0 23.6 L750.1 22.4 749.0 22.4 749.0 23.6 M692.4 24.2 L691.65 25.15 692.6 25.1 692.6 24.6 692.4 24.2 M674.8 33.0 L675.8 33.0 675.8 30.75 674.4 32.3 674.8 33.0 M790.4 318.8 L786.6 318.45 Q785.85 318.2 785.2 317.2 788.65 315.45 794.65 317.2 798.75 318.4 806.65 322.25 L819.55 328.3 Q826.8 331.2 831.8 331.2 835.25 331.2 840.65 335.8 846.8 341.0 846.8 346.4 847.25 346.4 847.6 345.65 L848.4 344.0 Q854.5 343.9 855.95 348.7 856.65 351.15 856.4 354.4 856.85 353.5 857.2 350.75 L858.0 345.6 Q861.6 347.0 866.0 350.65 L873.35 357.05 Q882.05 364.4 888.8 361.6 889.65 362.45 889.85 363.55 L890.0 366.4 890.0 368.0 Q891.35 364.0 893.15 363.15 L897.6 362.8 900.85 362.85 907.7 363.85 Q917.9 366.35 920.8 373.6 921.2 373.2 921.2 369.6 L925.0 369.4 931.2 369.2 Q934.15 369.2 934.85 370.8 935.55 372.4 937.6 372.4 939.6 372.4 940.8 374.0 942.0 375.6 944.0 375.6 945.9 375.6 947.8 373.2 949.7 370.8 952.8 370.8 L962.25 371.8 Q966.6 372.85 971.2 375.2 L971.6 377.0 971.2 380.0 Q970.7 380.0 970.5 380.6 970.3 381.2 968.0 381.2 966.6 381.2 962.55 378.6 L958.4 376.0 Q954.4 376.0 953.0 376.9 952.1 377.45 951.7 379.3 950.6 384.15 944.4 387.2 L941.35 383.5 Q939.4 381.05 938.4 378.0 935.05 378.0 932.2 376.4 L930.0 374.8 Q926.25 375.25 924.45 377.6 L921.6 380.8 Q915.1 378.2 911.35 375.8 909.1 374.4 907.8 374.4 905.9 374.4 903.9 371.85 L901.6 368.4 Q901.2 369.2 901.2 372.8 900.7 372.8 899.4 373.45 897.95 374.2 896.4 374.4 896.0 373.8 895.6 372.0 895.2 370.2 894.8 369.6 894.25 370.1 892.35 372.95 891.1 374.8 889.6 374.8 884.2 374.8 877.85 369.0 L873.6 365.0 Q871.55 363.2 870.4 363.2 868.15 363.2 867.75 360.9 867.45 359.45 864.0 361.6 862.7 361.1 862.2 359.4 L861.6 356.0 Q861.15 356.0 860.05 357.45 L857.6 360.4 Q852.8 357.25 852.6 355.1 853.2 353.0 852.4 351.6 L849.85 351.55 Q847.65 351.65 846.4 352.4 843.55 349.55 843.25 348.15 L842.8 346.0 Q842.35 344.7 838.4 346.0 834.55 344.95 834.85 342.05 834.95 340.7 834.65 340.3 834.15 339.6 832.0 339.6 829.65 339.6 826.8 336.6 L824.4 333.6 821.2 336.4 818.0 339.2 Q816.5 337.7 815.8 335.6 L814.8 332.0 813.6 331.2 Q813.35 331.95 813.25 334.05 L813.2 336.0 812.65 336.65 Q811.75 337.35 810.0 337.6 806.0 333.6 806.0 327.2 L805.8 327.8 Q805.6 328.4 803.2 328.4 798.9 328.4 796.2 323.6 794.8 321.1 794.05 320.3 792.6 318.8 790.4 318.8 M86.4 46.0 L86.8 49.0 Q86.25 49.75 85.95 51.2 L85.35 53.5 Q84.2 56.0 78.8 56.0 78.45 56.0 76.5 53.5 L74.0 50.4 Q73.1 53.05 68.8 57.85 65.0 61.95 64.0 68.4 L61.2 68.8 Q60.75 65.95 60.45 61.0 L60.0 53.2 59.6 52.4 Q58.8 53.6 58.0 56.1 56.8 58.0 52.8 58.0 47.55 58.0 46.3 53.75 L45.6 48.0 45.2 48.0 45.1 52.85 Q44.55 56.65 42.0 59.2 L38.4 53.2 Q37.2 54.4 37.2 60.0 36.5 60.7 34.2 60.45 31.65 60.2 30.0 58.8 L28.9 61.25 Q27.95 63.0 26.0 64.0 24.45 55.9 23.5 53.2 22.6 50.7 21.45 50.95 L18.5 52.8 Q16.05 54.4 13.4 54.4 11.4 54.4 8.3 53.0 5.2 51.6 3.2 51.6 L0.2 51.25 -0.4 50.0 Q1.85 45.2 8.3 45.55 L13.75 45.85 Q16.95 45.75 19.2 44.4 21.45 46.4 23.1 50.05 24.15 52.4 26.4 52.4 32.6 52.4 34.25 50.0 34.7 49.35 35.2 45.2 36.75 44.95 38.75 46.1 40.05 46.85 40.8 47.6 41.2 46.8 41.2 43.6 45.0 43.6 46.5 44.3 48.9 45.45 50.0 49.2 50.8 49.2 50.8 44.8 L52.8 44.4 65.0 46.2 Q69.85 47.4 69.2 51.6 69.8 51.2 70.85 47.9 73.0 44.8 79.8 44.8 81.6 44.8 83.25 45.85 L86.4 46.0" fill="#689a01" fill-rule="evenodd" stroke="none"/>
  </g>
</svg>
