<?xml version="1.0" encoding="UTF-8" standalone="no"?>
<svg xmlns:ffdec="https://www.free-decompiler.com/flash" xmlns:xlink="http://www.w3.org/1999/xlink" ffdec:objectType="shape" height="482.1px" width="1034.0px" xmlns="http://www.w3.org/2000/svg">
  <g transform="matrix(1.0, 0.0, 0.0, 1.0, -33.8, -195.9)">
    <path d="M191.1 370.3 L190.55 370.3 Q170.5 370.3 117.5 341.45 101.25 332.6 81.85 321.0 L64.1 310.3 Q47.0 301.15 40.0 291.4 33.75 282.7 35.25 272.95 36.25 266.1 35.85 252.5 L35.25 237.3 Q33.25 221.8 34.05 208.65 34.4 203.2 35.35 198.75 L214.0 198.75 214.0 196.4 219.75 197.25 246.05 200.8 291.6 201.2 297.8 202.45 392.45 202.45 416.35 200.7 439.9 196.25 886.75 195.9 886.75 329.5 1067.8 329.5 Q1041.75 338.35 982.4 353.2 947.6 361.85 927.5 366.15 925.55 368.2 922.45 368.15 L917.65 368.15 Q906.4 370.3 902.3 370.3 895.95 370.3 891.95 368.15 L815.85 368.15 815.85 360.8 191.1 360.8 191.1 370.3" fill="#816b4f" fill-rule="evenodd" stroke="none"/>
    <path d="M815.85 368.15 L815.85 564.4 191.1 564.4 191.1 370.3 191.1 360.8 815.85 360.8 815.85 368.15 M277.9 421.3 L277.9 421.65 278.25 421.5 278.25 421.35 277.9 421.3 M405.75 484.9 L405.75 485.0 405.9 485.0 405.75 484.9" fill="#dddac8" fill-rule="evenodd" stroke="none"/>
    <path d="M882.55 511.5 Q888.05 505.35 896.75 502.3 905.15 499.35 914.2 500.2 923.5 501.0 930.75 505.6 938.65 510.6 942.35 518.95 952.65 534.3 955.0 553.2 955.9 560.3 955.95 570.0 L955.85 586.95 956.4 605.3 Q956.6 623.85 955.0 633.4 954.0 639.55 954.1 649.6 954.25 660.8 953.95 663.95 953.25 670.9 950.15 674.15 946.4 678.0 938.3 678.0 928.35 678.0 914.55 671.55 903.75 666.5 897.1 661.15 883.25 649.7 874.55 646.4 L870.85 645.15 Q870.0 644.8 870.0 643.5 L871.7 637.5 Q873.4 631.55 873.4 629.7 873.4 622.7 871.7 607.15 870.0 591.6 870.0 584.05 870.0 572.25 870.35 569.75 871.0 565.1 875.0 551.85 L874.35 552.25 872.55 552.55 Q869.75 552.55 869.15 548.8 L869.15 545.65 Q869.15 543.7 874.2 529.75 879.7 514.65 882.55 511.5" fill="#61503a" fill-rule="evenodd" stroke="none"/>
    <path d="M151.4 490.1 Q151.7 494.5 151.55 502.8 151.4 511.5 151.6 515.5 152.55 532.4 152.45 565.75 L153.25 585.2 Q153.2 603.6 149.15 610.05 L117.3 610.5 114.5 610.9 Q110.7 610.9 109.1 573.8 L108.25 536.45 Q107.9 527.9 108.0 520.05 108.15 504.95 110.4 493.8 117.3 459.2 142.45 465.05 150.35 475.4 151.4 490.1" fill="#6b6643" fill-rule="evenodd" stroke="none"/>
  </g>
</svg>
