<?xml version="1.0" encoding="UTF-8" standalone="no"?>
<svg xmlns:ffdec="https://www.free-decompiler.com/flash" xmlns:xlink="http://www.w3.org/1999/xlink" ffdec:objectType="shape" height="49.5px" width="45.5px" xmlns="http://www.w3.org/2000/svg">
  <g transform="matrix(1.0, 0.0, 0.0, 1.0, 19.5, 107.0)">
    <path d="M2.0 -96.0 L-4.0 -97.0 Q-9.45 -95.25 -13.05 -92.45 -17.6 -88.95 -18.5 -88.5 L-19.35 -89.45 -19.5 -93.0 Q-19.5 -97.2 -14.35 -101.95 -9.15 -106.8 -4.0 -107.0 L2.5 -106.5 Q5.9 -99.55 5.9 -90.1 5.9 -80.6 2.5 -72.0 4.25 -70.25 6.65 -69.45 11.9 -67.65 24.5 -66.5 L25.65 -65.55 Q26.0 -65.1 26.0 -62.0 L25.75 -57.85 25.5 -57.5 9.0 -57.5 Q5.55 -60.0 0.0 -60.8 L-9.3 -61.4 Q-14.4 -61.65 -16.55 -62.8 -19.5 -64.4 -19.5 -68.5 L-19.45 -72.2 -19.0 -74.0 -18.0 -74.5 -5.5 -74.5 Q-2.3 -75.35 0.3 -80.95 2.5 -85.75 2.5 -89.25 L2.45 -93.35 2.0 -96.0" fill="#99ff33" fill-rule="evenodd" stroke="none"/>
  </g>
</svg>
