<?xml version="1.0" encoding="UTF-8" standalone="no"?>
<svg xmlns:ffdec="https://www.free-decompiler.com/flash" xmlns:xlink="http://www.w3.org/1999/xlink" ffdec:objectType="shape" height="1105.05px" width="2925.0px" xmlns="http://www.w3.org/2000/svg">
  <g transform="matrix(1.0, 0.0, 0.0, 1.0, 1162.5, 1382.55)">
    <path d="M1580.0 -840.0 L1580.15 -1380.05 -600.0 -1380.0 -600.0 -880.0 -480.0 -840.0 -400.0 -820.0 -340.0 -760.0 -340.0 -720.0 -380.0 -660.0 -420.0 -660.0 -440.0 -700.0 -580.0 -720.0 -660.0 -680.0 -660.0 -280.0 1760.0 -280.0 1760.0 -680.0 1680.0 -720.0 1540.0 -700.0 1520.0 -660.0 1480.0 -660.0 1440.0 -700.0 1420.0 -760.0 1500.0 -820.0 1580.0 -840.0 M-1020.0 -1200.0 L-1020.0 -1100.2 -1160.0 -1100.2 -1160.0 -1200.0 -1020.0 -1200.0 Z" fill="none" stroke="#00ffff" stroke-linecap="round" stroke-linejoin="round" stroke-width="5.0"/>
  </g>
</svg>
