<?xml version="1.0" encoding="UTF-8" standalone="no"?>
<svg xmlns:ffdec="https://www.free-decompiler.com/flash" xmlns:xlink="http://www.w3.org/1999/xlink" ffdec:objectType="shape" height="65.15px" width="62.55px" xmlns="http://www.w3.org/2000/svg">
  <g transform="matrix(1.0, 0.0, 0.0, 1.0, -66.95, 816.85)">
    <path d="M69.25 -810.5 L69.55 -810.35 87.5 -808.9 Q90.15 -809.9 94.2 -809.75 L93.2 -810.15 Q92.0 -810.7 91.8 -811.35 93.25 -812.25 106.95 -814.1 121.1 -816.05 122.35 -816.55 L122.35 -816.85 Q125.25 -816.55 125.6 -815.9 122.7 -814.5 113.4 -812.05 103.45 -809.4 99.75 -809.4 L98.3 -809.4 100.7 -809.05 Q112.05 -807.05 117.95 -802.9 L114.05 -802.75 Q120.25 -799.5 124.3 -794.3 L106.0 -798.9 Q95.1 -801.65 69.85 -805.15 L69.4 -805.7 Q68.9 -806.3 68.9 -808.25 68.9 -810.3 69.25 -810.5 M108.7 -767.15 L110.65 -766.2 Q119.0 -765.85 129.5 -761.8 127.75 -761.5 117.3 -756.55 L106.9 -751.7 Q100.5 -751.7 96.35 -752.7 94.5 -753.1 90.35 -754.75 83.4 -757.45 70.85 -756.6 68.25 -757.2 66.95 -758.55 L67.3 -760.35 Q68.2 -762.25 70.85 -762.45 L100.1 -765.7 96.8 -768.15 Q84.2 -777.6 81.7 -778.85 L81.7 -779.15 Q87.0 -777.2 93.5 -774.3 L99.7 -771.5 108.7 -767.15" fill="#9ca971" fill-rule="evenodd" stroke="none"/>
    <path d="M93.5 -774.3 L91.5 -776.9 Q88.5 -780.85 85.7 -785.3 83.35 -789.05 83.35 -789.4 83.35 -793.1 88.25 -793.2 90.4 -793.25 90.95 -793.65 91.85 -794.3 90.8 -796.55 101.75 -803.2 107.05 -791.85 110.5 -784.55 110.5 -775.45 110.5 -772.2 109.5 -769.1 L108.7 -767.15 99.7 -771.5 93.5 -774.3" fill="#95a06a" fill-rule="evenodd" stroke="none"/>
  </g>
</svg>
