<?xml version="1.0" encoding="UTF-8" standalone="no"?>
<svg xmlns:ffdec="https://www.free-decompiler.com/flash" xmlns:xlink="http://www.w3.org/1999/xlink" ffdec:objectType="shape" height="491.65px" width="1174.55px" xmlns="http://www.w3.org/2000/svg">
  <g transform="matrix(1.0, 0.0, 0.0, 1.0, -1293.4, 588.65)">
    <path d="M1662.45 -250.9 L1660.4 -253.75 1660.25 -253.9 1662.75 -254.1 Q1666.8 -254.1 1668.85 -252.9 1670.0 -252.15 1671.85 -249.7 1676.4 -243.6 1686.05 -239.95 1723.7 -225.8 1867.6 -225.8 1870.15 -225.8 1870.65 -225.2 L1871.45 -223.8 Q1873.75 -221.85 1890.95 -221.85 1909.8 -221.85 1923.5 -225.25 1933.4 -227.7 1944.1 -233.1 L1961.9 -241.95 Q1973.0 -246.6 1986.1 -248.3 2014.0 -251.95 2034.2 -261.9 2040.15 -264.8 2049.05 -270.2 2058.0 -275.65 2062.05 -277.65 2080.35 -286.75 2093.4 -296.1 2100.35 -301.1 2110.75 -310.0 2118.35 -326.75 2124.4 -327.75 L2126.35 -327.65 Q2128.45 -331.7 2130.25 -336.7 L2133.85 -347.35 Q2135.85 -353.05 2137.65 -355.95 L2139.25 -351.3 Q2139.8 -349.1 2139.8 -346.55 2139.8 -334.7 2131.8 -322.55 2129.3 -318.8 2126.05 -315.0 L2122.45 -311.05 2120.0 -308.6 2116.85 -305.7 Q2111.45 -300.85 2105.2 -296.2 2086.15 -282.3 2058.8 -270.75 2048.85 -266.55 2040.05 -261.1 2028.75 -254.15 2026.95 -253.2 2011.45 -245.2 1972.15 -240.15 1966.7 -239.45 1957.15 -235.3 1945.25 -229.8 1938.4 -226.8 1911.7 -215.1 1890.95 -215.1 1875.1 -215.1 1871.5 -216.2 L1840.2 -217.3 Q1798.6 -217.3 1746.5 -222.2 L1718.9 -225.2 1691.4 -228.35 Q1678.0 -229.8 1670.55 -238.65 1668.35 -241.3 1665.25 -246.45 L1662.45 -250.9 M2092.55 -213.2 Q2097.65 -204.3 2115.05 -193.3 2128.0 -185.05 2159.25 -170.25 2188.0 -156.65 2261.75 -155.75 L2277.75 -155.65 Q2281.0 -158.45 2287.8 -159.65 L2297.3 -161.3 Q2303.35 -162.5 2308.1 -164.55 2318.25 -169.35 2325.1 -171.95 2338.0 -176.9 2342.6 -174.75 2343.75 -174.15 2344.45 -172.95 2345.05 -171.9 2346.05 -171.3 2347.15 -171.2 2348.55 -170.5 L2352.9 -170.05 Q2355.9 -169.4 2354.3 -165.75 L2354.4 -165.65 Q2355.9 -163.6 2355.45 -162.6 2354.55 -160.75 2354.1 -160.35 2352.95 -159.35 2351.2 -159.55 2350.1 -159.8 2348.7 -160.45 2347.05 -161.25 2345.8 -162.15 L2345.9 -162.05 2343.25 -161.0 2339.0 -161.2 2341.75 -160.45 2343.95 -159.55 2343.45 -158.35 2341.4 -156.75 2333.65 -151.65 2333.1 -151.35 2333.05 -151.35 2324.6 -150.75 2312.15 -150.35 Q2296.75 -150.15 2277.65 -151.2 L2275.15 -151.35 2272.25 -151.55 2267.25 -151.85 Q2258.9 -152.6 2221.05 -152.8 2191.5 -152.9 2185.55 -155.75 2181.1 -157.85 2173.5 -159.75 2166.0 -161.7 2164.35 -162.45 2162.7 -163.25 2162.45 -164.95 2162.2 -166.65 2160.3 -167.55 2138.85 -177.1 2124.0 -184.25 L2122.5 -183.45 Q2121.4 -182.9 2120.2 -183.45 2115.35 -185.75 2099.5 -199.45 2094.55 -203.75 2091.2 -206.95 L2088.35 -209.8 Q2083.1 -215.35 2083.85 -216.9 L2086.75 -220.55 2086.9 -220.8 2087.0 -220.9 2087.05 -220.95 2087.05 -221.0 2088.85 -222.9 Q2093.15 -227.45 2094.6 -228.15 L2094.95 -227.25 2093.1 -226.35 Q2091.9 -225.85 2091.4 -224.7 2088.95 -219.5 2092.55 -213.2 M1880.4 -160.85 L1877.0 -160.2 Q1877.45 -160.55 1879.05 -161.3 1882.45 -162.9 1891.1 -166.25 L1898.95 -169.45 1897.2 -170.8 Q1891.05 -175.6 1882.6 -175.6 L1873.0 -174.1 Q1863.3 -172.55 1852.7 -172.35 1851.25 -171.6 1848.35 -170.9 L1848.7 -170.5 1848.75 -169.85 1848.75 -168.2 Q1848.75 -164.05 1846.25 -160.95 1843.3 -157.3 1838.05 -157.3 1830.6 -157.3 1827.3 -158.4 1826.5 -158.65 1822.7 -160.95 1816.05 -164.9 1792.35 -165.8 1791.05 -165.05 1789.75 -164.8 1787.1 -164.25 1787.1 -166.55 1787.1 -166.9 1812.35 -173.2 L1822.95 -175.8 1838.05 -179.4 Q1840.05 -179.4 1844.75 -176.6 1849.4 -173.8 1850.2 -173.8 L1868.75 -175.05 1887.35 -176.35 Q1890.15 -176.35 1904.8 -183.8 1920.45 -191.7 1922.85 -192.3 1929.55 -194.0 1941.4 -193.85 1963.0 -193.6 1975.4 -194.1 L1975.8 -192.65 Q1968.7 -192.05 1940.0 -178.85 1929.7 -174.15 1922.35 -171.15 1920.3 -169.1 1917.65 -168.2 L1911.25 -167.05 Q1907.6 -166.0 1905.8 -166.0 1904.5 -166.0 1903.2 -166.5 L1892.1 -163.85 1880.4 -160.85 M2255.65 -264.0 Q2256.95 -262.2 2258.15 -261.65 L2262.5 -260.9 Q2266.75 -260.15 2268.1 -259.2 L2241.95 -257.45 2226.3 -256.0 Q2224.6 -256.8 2224.1 -258.8 2223.7 -260.4 2224.3 -261.65 2225.25 -262.9 2226.95 -263.75 2230.25 -265.5 2233.8 -263.85 2235.5 -263.05 2242.7 -265.5 2250.0 -267.9 2253.2 -266.4 2254.4 -265.8 2255.65 -264.0 M2047.4 -140.25 Q2047.4 -142.3 2051.6 -144.85 2055.65 -147.3 2060.8 -148.5 2066.45 -149.8 2070.0 -148.7 2074.2 -147.4 2074.2 -143.0 2074.2 -138.6 2068.75 -136.2 2063.9 -134.1 2056.1 -134.1 2050.7 -134.1 2048.55 -136.95 2047.4 -138.5 2047.4 -140.25 M2003.9 -172.0 Q2004.25 -171.55 2004.25 -169.45 2004.25 -166.15 1995.35 -163.45 1988.2 -161.3 1984.65 -161.3 1980.45 -161.3 1979.25 -163.6 1978.85 -164.35 1978.85 -166.35 1978.85 -171.15 1984.35 -172.7 L1993.55 -173.45 1998.65 -173.35 2003.5 -172.7 2003.9 -172.0 M2355.0 -268.05 Q2355.35 -268.75 2357.3 -269.55 L2361.2 -269.75 Q2365.45 -267.7 2367.05 -266.3 2368.7 -264.75 2367.95 -263.25 2367.15 -261.5 2365.4 -261.65 2363.15 -261.9 2356.75 -264.95 2355.25 -265.65 2355.0 -266.6 L2355.0 -268.05 M2415.65 -271.15 L2416.7 -272.1 Q2418.95 -272.55 2423.15 -269.55 2427.05 -266.8 2428.0 -264.75 L2423.5 -265.45 Q2421.3 -265.7 2419.9 -266.4 L2417.1 -268.0 2415.35 -269.15 2415.65 -271.15 M2296.65 -110.1 Q2313.7 -106.1 2327.55 -104.8 2328.75 -103.75 2329.45 -102.25 2330.85 -99.5 2333.3 -98.35 L2341.0 -97.8 2349.8 -97.9 2349.9 -97.55 2349.95 -97.1 2332.15 -97.0 Q2319.55 -97.15 2316.3 -98.7 2307.8 -102.7 2301.9 -103.05 2294.15 -103.6 2283.55 -107.25 2280.15 -108.5 2268.15 -111.05 L2286.3 -110.3 2296.65 -110.1 M2314.9 -132.25 Q2314.8 -132.45 2315.4 -133.65 2315.95 -134.85 2316.2 -134.65 L2316.3 -134.25 Q2317.2 -134.4 2321.0 -132.75 2325.15 -131.05 2327.2 -129.45 L2326.6 -128.7 2325.55 -128.1 2321.55 -129.05 Q2319.35 -129.6 2317.95 -130.25 2316.45 -130.95 2315.85 -131.6 L2315.15 -132.35 Q2315.05 -132.15 2314.9 -132.25 M1303.55 -408.2 Q1305.05 -406.65 1306.9 -403.5 L1310.05 -398.85 1317.55 -390.3 1318.1 -389.7 Q1326.15 -383.5 1334.6 -377.35 L1345.2 -369.75 1351.75 -365.25 Q1369.2 -353.35 1383.5 -345.7 1384.65 -345.0 1385.8 -344.4 1395.2 -339.5 1403.2 -336.5 L1404.5 -335.95 1406.2 -335.35 Q1410.95 -333.75 1415.05 -332.8 L1420.15 -331.95 1421.35 -331.85 1422.95 -331.7 1424.6 -331.55 Q1449.65 -329.3 1461.2 -330.05 L1471.3 -331.2 1476.65 -332.4 1476.7 -332.4 Q1480.75 -333.6 1483.65 -335.35 1484.7 -335.95 1485.6 -336.7 L1485.9 -336.9 1486.05 -337.05 Q1490.2 -340.55 1490.7 -345.7 1490.8 -346.95 1490.25 -347.95 L1489.35 -349.65 1489.95 -350.25 Q1490.65 -348.95 1491.65 -342.85 L1492.05 -340.35 1493.8 -332.5 1494.25 -330.0 1493.45 -320.35 1490.05 -314.65 1488.6 -312.4 1488.65 -309.7 Q1488.65 -306.05 1477.8 -296.0 1466.9 -286.0 1462.3 -285.5 L1462.15 -285.55 Q1455.15 -282.0 1449.75 -284.3 L1428.35 -285.65 Q1407.45 -290.55 1391.45 -296.5 L1398.6 -291.6 Q1405.6 -286.4 1411.3 -283.25 1402.0 -287.0 1399.2 -287.6 1390.35 -289.6 1384.9 -293.0 1380.7 -295.6 1373.2 -296.3 1370.35 -296.55 1361.65 -302.6 L1349.6 -311.45 1349.85 -311.85 1350.05 -312.05 1356.0 -307.7 Q1359.95 -304.55 1361.45 -304.4 1363.6 -304.2 1365.7 -305.85 1366.85 -306.85 1368.15 -307.15 L1365.0 -309.05 Q1356.1 -314.6 1346.6 -322.95 L1329.0 -339.15 Q1322.8 -344.7 1310.75 -370.15 1304.9 -382.5 1302.15 -389.25 1299.3 -392.6 1296.7 -397.35 L1294.8 -401.1 1294.75 -401.15 1294.5 -401.65 1293.4 -404.55 1294.2 -412.9 1294.95 -412.6 1295.3 -412.4 1294.2 -413.2 1294.65 -417.75 1295.0 -417.35 1297.25 -415.3 Q1298.95 -412.0 1299.75 -411.4 L1303.55 -408.2 M1347.15 -505.1 L1349.5 -503.3 Q1352.45 -501.5 1355.4 -501.25 L1356.9 -501.35 1357.15 -501.6 1357.5 -502.35 1357.55 -502.7 1357.65 -502.95 1357.65 -503.05 1357.7 -503.85 1357.75 -503.95 1357.65 -505.5 1357.55 -505.85 Q1349.8 -507.7 1348.4 -507.25 L1348.3 -507.25 Q1347.45 -506.85 1347.15 -505.1 M1328.0 -515.4 Q1333.95 -514.85 1334.3 -518.8 1334.7 -522.95 1328.5 -522.4 1322.55 -521.8 1320.1 -518.6 1323.85 -519.55 1324.4 -517.85 1325.0 -515.7 1328.0 -515.4 M1393.5 -501.9 L1388.7 -501.25 1357.3 -496.8 1355.5 -496.5 1356.3 -495.9 Q1359.75 -493.1 1361.05 -492.2 1368.85 -486.65 1377.4 -485.8 1383.95 -485.15 1387.85 -480.0 L1391.9 -474.7 Q1394.85 -471.3 1398.7 -468.45 L1398.9 -467.8 1387.8 -473.75 1386.4 -473.75 Q1385.95 -473.8 1380.05 -477.6 1379.85 -476.65 1380.0 -478.05 L1370.45 -483.05 Q1370.3 -483.05 1365.7 -485.15 1361.05 -487.3 1360.1 -487.4 1359.0 -487.5 1357.0 -486.6 1355.05 -485.85 1354.0 -485.95 1353.7 -485.95 1346.6 -491.5 L1343.0 -494.4 1334.1 -492.9 1332.15 -492.65 1325.6 -499.3 1324.25 -499.8 Q1322.25 -500.5 1320.15 -501.35 L1318.95 -501.85 Q1312.55 -504.5 1304.3 -508.4 L1303.15 -509.0 1302.95 -509.1 1304.7 -530.6 Q1305.15 -537.3 1305.05 -540.95 1307.75 -546.25 1314.45 -552.35 1325.6 -561.6 1330.6 -566.2 L1347.25 -580.45 Q1353.7 -585.85 1356.5 -588.65 L1363.45 -588.35 1375.0 -587.25 1369.35 -583.65 1368.35 -583.05 Q1360.25 -579.0 1350.8 -573.1 L1347.25 -570.7 1344.7 -569.3 Q1339.6 -566.35 1335.75 -564.35 L1337.0 -554.0 1338.45 -546.35 1338.55 -545.45 Q1339.75 -539.1 1340.25 -537.25 L1340.5 -536.35 Q1342.35 -534.1 1343.7 -532.9 L1343.9 -532.75 Q1348.3 -529.1 1358.85 -528.15 L1367.2 -527.35 1413.15 -524.0 1423.3 -523.7 Q1436.55 -523.45 1443.0 -525.2 1450.4 -527.15 1456.4 -527.35 L1463.55 -527.3 1470.25 -528.95 1478.8 -530.0 1485.4 -530.4 Q1495.3 -530.4 1503.4 -529.9 1504.8 -531.35 1508.15 -531.85 1511.95 -526.45 1513.35 -521.85 L1513.15 -520.3 1511.8 -511.35 1506.15 -454.55 1505.85 -451.5 1505.45 -447.85 Q1500.05 -454.95 1495.65 -459.9 L1488.35 -467.55 1488.6 -467.75 Q1489.6 -468.8 1490.65 -468.7 L1490.9 -468.6 1493.2 -467.45 1494.6 -466.65 Q1496.95 -465.45 1498.05 -465.15 L1499.3 -464.5 Q1500.6 -463.9 1502.6 -463.7 1504.05 -463.55 1505.15 -464.85 1506.0 -465.9 1506.1 -467.05 1506.2 -467.8 1503.1 -469.6 1500.1 -471.4 1496.35 -472.8 1487.2 -476.15 1486.1 -472.85 1483.4 -474.15 1481.05 -474.2 1452.8 -498.4 1416.45 -503.35 1418.3 -500.7 1416.9 -498.45 1420.05 -497.7 1424.25 -495.3 L1424.8 -494.95 Q1427.65 -502.25 1442.05 -484.95 L1431.4 -487.1 Q1423.9 -489.05 1424.2 -492.1 L1424.5 -494.05 1425.1 -493.65 1424.3 -494.2 Q1421.8 -495.75 1420.95 -495.8 1417.3 -496.15 1413.55 -494.05 1409.75 -491.95 1408.9 -492.05 L1398.55 -498.85 1393.5 -501.9 M1418.15 -461.35 Q1417.55 -460.65 1416.25 -460.75 1410.6 -461.25 1409.0 -462.15 1407.7 -462.85 1407.85 -464.8 1408.0 -466.45 1409.8 -467.0 L1415.3 -467.15 Q1416.65 -467.0 1417.8 -465.05 1418.8 -463.35 1418.75 -462.55 L1418.15 -461.35 M1478.15 -487.6 L1478.0 -488.05 1472.6 -488.7 Q1472.0 -488.55 1470.95 -487.1 L1471.05 -486.2 1471.6 -485.4 Q1471.8 -485.05 1473.1 -484.95 L1478.1 -485.15 Q1477.9 -486.1 1478.7 -486.65 L1478.15 -487.6 M1501.8 -481.75 Q1503.1 -481.6 1503.4 -482.0 L1503.85 -482.85 1503.5 -484.1 1502.75 -484.15 1500.6 -484.1 Q1498.95 -483.9 1498.5 -483.25 1499.45 -481.95 1501.8 -481.75 M1503.3 -526.65 L1502.25 -526.7 Q1499.95 -526.95 1495.6 -526.55 L1503.3 -526.65 M1495.45 -496.3 L1496.2 -497.2 1496.0 -498.45 1492.2 -498.85 Q1491.2 -498.75 1490.1 -497.95 L1490.25 -497.25 1491.3 -496.45 1493.4 -496.0 1495.45 -496.3 M1472.85 -504.6 L1475.2 -503.95 1479.7 -503.0 1480.3 -502.95 1480.55 -502.9 1484.0 -503.15 Q1485.3 -503.65 1485.4 -505.15 1485.55 -506.4 1485.3 -506.5 L1485.1 -506.75 Q1484.1 -507.3 1478.55 -506.85 L1471.95 -505.7 Q1472.1 -504.95 1472.85 -504.6 M1484.75 -410.1 Q1486.4 -411.05 1487.5 -410.95 1490.3 -410.7 1494.2 -404.95 1498.1 -399.25 1499.6 -399.15 L1500.6 -398.95 1499.8 -390.1 1491.35 -397.65 Q1480.1 -407.75 1474.25 -412.05 1475.55 -412.2 1478.8 -410.75 1481.9 -409.3 1482.1 -409.25 1483.15 -409.2 1484.75 -410.1 M1412.4 -318.85 L1412.15 -318.45 Q1421.7 -316.5 1422.35 -316.9 1422.3 -317.2 1420.95 -317.6 L1419.7 -318.0 1412.7 -319.1 1412.4 -318.85 M1379.45 -326.45 L1382.55 -325.3 1385.5 -324.5 1387.55 -324.7 1388.25 -324.95 1388.4 -324.8 1388.7 -326.25 Q1388.8 -327.55 1388.55 -327.5 L1388.3 -327.25 Q1387.75 -327.8 1384.45 -328.25 L1378.85 -328.4 1378.9 -327.45 Q1379.05 -326.9 1379.45 -326.45 M1370.7 -266.15 Q1369.0 -266.3 1366.95 -267.3 1364.9 -268.3 1364.1 -269.3 L1364.0 -270.4 1364.35 -271.7 Q1366.9 -271.5 1370.0 -269.55 1372.65 -267.95 1374.7 -265.85 L1370.7 -266.15 M1330.95 -287.6 Q1333.5 -286.25 1335.3 -284.4 1337.1 -282.35 1337.0 -280.85 1336.9 -279.95 1335.3 -279.15 1333.9 -278.5 1333.2 -278.6 1328.15 -279.05 1325.7 -282.55 1324.1 -284.8 1324.2 -286.2 1324.65 -290.85 1330.95 -287.6 M1445.15 -266.5 Q1445.4 -269.2 1448.45 -267.55 1451.15 -266.05 1452.15 -264.25 1451.3 -263.25 1449.0 -262.05 L1445.55 -263.25 1445.3 -264.25 Q1445.0 -265.25 1445.15 -266.5 M1857.7 -152.25 L1866.3 -153.5 Q1862.85 -151.9 1855.6 -147.45 1849.3 -143.55 1845.45 -142.1 1840.85 -144.15 1839.8 -145.0 L1838.75 -146.25 Q1841.6 -150.3 1849.9 -151.45 L1857.7 -152.25" fill="#948f5c" fill-rule="evenodd" stroke="none"/>
    <path d="M2131.8 -322.55 Q2134.9 -317.2 2137.65 -306.45 2107.6 -274.4 2092.7 -214.05 L2092.55 -213.2 Q2088.95 -219.5 2091.4 -224.7 2091.9 -225.85 2093.1 -226.35 L2094.95 -227.25 2094.6 -228.15 Q2093.15 -227.45 2088.85 -222.9 L2087.05 -221.0 2087.05 -220.95 2087.0 -220.9 2086.9 -220.8 2086.75 -220.55 2083.85 -216.9 Q2083.1 -215.35 2088.35 -209.8 L2091.2 -206.95 Q2094.55 -203.75 2099.5 -199.45 2115.35 -185.75 2120.2 -183.45 2121.4 -182.9 2122.5 -183.45 L2124.0 -184.25 Q2138.85 -177.1 2160.3 -167.55 2162.2 -166.65 2162.45 -164.95 2162.7 -163.25 2164.35 -162.45 2166.0 -161.7 2173.5 -159.75 2181.1 -157.85 2185.55 -155.75 2191.5 -152.9 2221.05 -152.8 2258.9 -152.6 2267.25 -151.85 L2272.25 -151.55 2275.15 -151.35 2277.65 -151.2 Q2296.75 -150.15 2312.15 -150.35 L2324.6 -150.75 2333.05 -151.35 Q2331.1 -150.3 2328.95 -149.35 2323.6 -146.95 2318.8 -145.85 2312.25 -141.8 2299.35 -134.9 2272.75 -120.65 2263.1 -119.75 L2241.6 -117.4 2240.75 -117.3 2235.5 -116.75 2223.65 -116.1 Q2221.05 -118.4 2217.1 -120.35 2213.5 -123.5 2209.5 -125.6 2203.05 -129.05 2199.0 -127.95 2197.15 -127.45 2196.0 -125.95 L2188.15 -126.3 Q2176.15 -126.35 2167.05 -123.3 2148.85 -127.9 2127.2 -135.35 L2103.3 -147.35 Q2091.25 -149.75 2083.2 -169.2 L2081.1 -161.1 Q2070.4 -122.85 2056.25 -122.85 2021.05 -122.85 1990.25 -128.4 1966.45 -132.7 1937.15 -142.1 1903.4 -153.6 1884.6 -159.55 L1880.4 -160.85 1892.1 -163.85 1903.2 -166.5 Q1904.5 -166.0 1905.8 -166.0 1907.6 -166.0 1911.25 -167.05 L1917.65 -168.2 Q1920.3 -169.1 1922.35 -171.15 1929.7 -174.15 1940.0 -178.85 1968.7 -192.05 1975.8 -192.65 L1975.4 -194.1 Q1963.0 -193.6 1941.4 -193.85 1929.55 -194.0 1922.85 -192.3 1920.45 -191.7 1904.8 -183.8 1890.15 -176.35 1887.35 -176.35 L1868.75 -175.05 1850.2 -173.8 Q1849.4 -173.8 1844.75 -176.6 1840.05 -179.4 1838.05 -179.4 L1822.95 -175.8 1820.25 -176.35 Q1813.1 -177.75 1789.1 -185.15 1760.35 -193.95 1734.85 -203.3 1660.4 -230.55 1660.4 -244.65 1660.4 -247.1 1661.4 -249.15 L1662.45 -250.9 1665.25 -246.45 Q1668.35 -241.3 1670.55 -238.65 1678.0 -229.8 1691.4 -228.35 L1718.9 -225.2 1746.5 -222.2 Q1798.6 -217.3 1840.2 -217.3 L1871.5 -216.2 Q1875.1 -215.1 1890.95 -215.1 1911.7 -215.1 1938.4 -226.8 1945.25 -229.8 1957.15 -235.3 1966.7 -239.45 1972.15 -240.15 2011.45 -245.2 2026.95 -253.2 2028.75 -254.15 2040.05 -261.1 2048.85 -266.55 2058.8 -270.75 2086.15 -282.3 2105.2 -296.2 2111.45 -300.85 2116.85 -305.7 L2120.0 -308.6 2122.45 -311.05 2126.05 -315.0 Q2129.3 -318.8 2131.8 -322.55 M1879.05 -161.3 Q1863.65 -166.05 1848.75 -169.85 L1848.7 -170.5 1848.35 -170.9 Q1851.25 -171.6 1852.7 -172.35 1863.3 -172.55 1873.0 -174.1 L1882.6 -175.6 Q1891.05 -175.6 1897.2 -170.8 L1898.95 -169.45 1891.1 -166.25 Q1882.45 -162.9 1879.05 -161.3 M2003.9 -172.0 L2003.5 -172.7 1998.65 -173.35 1993.55 -173.45 1984.35 -172.7 Q1978.85 -171.15 1978.85 -166.35 1978.85 -164.35 1979.25 -163.6 1980.45 -161.3 1984.65 -161.3 1988.2 -161.3 1995.35 -163.45 2004.25 -166.15 2004.25 -169.45 2004.25 -171.55 2003.9 -172.0 M2047.4 -140.25 Q2047.4 -138.5 2048.55 -136.95 2050.7 -134.1 2056.1 -134.1 2063.9 -134.1 2068.75 -136.2 2074.2 -138.6 2074.2 -143.0 2074.2 -147.4 2070.0 -148.7 2066.45 -149.8 2060.8 -148.5 2055.65 -147.3 2051.6 -144.85 2047.4 -142.3 2047.4 -140.25 M2152.1 -157.95 L2150.25 -158.25 Q2150.7 -157.5 2162.1 -153.3 L2162.05 -153.75 2161.9 -154.15 2153.7 -157.6 2152.1 -157.95" fill="#97965f" fill-rule="evenodd" stroke="none"/>
    <path d="M2241.6 -117.4 L2243.85 -116.5 2240.75 -117.3 2241.6 -117.4" fill="#638154" fill-rule="evenodd" stroke="none"/>
    <path d="M2298.5 -373.85 L2305.55 -369.65 2297.35 -374.4 2298.5 -373.85 M2467.95 -148.75 L2467.7 -147.95 2467.7 -147.75 2465.5 -148.65 2462.75 -149.4 2467.0 -149.2 2467.95 -148.75" fill="#668857" fill-rule="evenodd" stroke="none"/>
  </g>
</svg>
