<?xml version="1.0" encoding="UTF-8" standalone="no"?>
<svg xmlns:ffdec="https://www.free-decompiler.com/flash" xmlns:xlink="http://www.w3.org/1999/xlink" ffdec:objectType="shape" height="1905.0px" width="2985.0px" xmlns="http://www.w3.org/2000/svg">
  <g transform="matrix(1.0, 0.0, 0.0, 1.0, 2682.5, -17.5)">
    <path d="M-2680.0 1160.0 L-2680.0 1920.0" fill="none" stroke="#ffff00" stroke-linecap="round" stroke-linejoin="round" stroke-width="5.0"/>
    <path d="M-360.0 840.0 L-40.0 800.0 160.0 720.0 280.0 680.0 280.0 320.0 160.0 280.0 -60.0 240.0 -560.0 260.0 -1240.0 240.0 -1880.0 100.0 -2500.0 20.0 -2620.0 20.0 -2620.0 420.0 -2500.0 460.0 -1900.0 620.0 -1620.0 680.0 -1620.0 860.0 -2180.0 1120.0 -2560.0 1300.0 -2660.0 1300.0 -2660.0 1740.0 -2560.0 1740.0 -2320.0 1720.0 -2080.0 1620.0 -1460.0 1360.0 -840.0 1020.0 -360.0 840.0" fill="none" stroke="#00ffff" stroke-linecap="round" stroke-linejoin="round" stroke-width="5.0"/>
    <path d="M300.0 880.0 L60.0 900.0 -360.0 1000.0 -840.0 1200.0 -1380.0 1480.0 -1920.0 1720.0 -2260.0 1820.0 -2680.0 1820.0" fill="none" stroke="#666666" stroke-linecap="round" stroke-linejoin="round" stroke-width="5.0"/>
    <path d="M-1620.0 680.0 L-980.0 800.0 -360.0 840.0" fill="none" stroke="#ff0000" stroke-linecap="round" stroke-linejoin="round" stroke-width="5.0"/>
  </g>
</svg>
