<?xml version="1.0" encoding="UTF-8" standalone="no"?>
<svg xmlns:ffdec="https://www.free-decompiler.com/flash" xmlns:xlink="http://www.w3.org/1999/xlink" ffdec:objectType="shape" height="1585.05px" width="3165.1px" xmlns="http://www.w3.org/2000/svg">
  <g transform="matrix(1.0, 0.0, 0.0, 1.0, 2862.6, -257.5)">
    <path d="M-2600.0 600.0 L-2600.0 1300.0" fill="none" stroke="#ffff00" stroke-linecap="round" stroke-linejoin="round" stroke-width="5.0"/>
    <path d="M160.0 280.0 L-20.0 280.0 -560.0 420.0 -1300.0 620.0 -2000.0 700.0 -2500.0 760.0 -2580.0 800.0 -2580.0 1180.0 -2500.0 1200.0 -2120.0 1200.0 -1640.0 1180.0 -1120.0 1140.0 -820.0 1100.0 -220.0 900.0 160.0 720.0 280.0 680.0 280.0 320.0 160.0 280.0 M-2860.1 340.15 L-2860.1 1840.05" fill="none" stroke="#00ffff" stroke-linecap="round" stroke-linejoin="round" stroke-width="5.0"/>
    <path d="M300.0 880.0 L60.0 900.0 -380.0 1060.0 -840.0 1200.0 -1440.0 1280.0 -2140.0 1300.0 -2620.0 1300.0" fill="none" stroke="#666666" stroke-linecap="round" stroke-linejoin="round" stroke-width="5.0"/>
    <path d="M260.0 260.0 L260.0 1140.0" fill="none" stroke="#ffff00" stroke-linecap="round" stroke-linejoin="round" stroke-width="5.0"/>
  </g>
</svg>
