<?xml version="1.0" encoding="UTF-8" standalone="no"?>
<svg xmlns:ffdec="https://www.free-decompiler.com/flash" xmlns:xlink="http://www.w3.org/1999/xlink" ffdec:objectType="shape" height="1785.0px" width="2785.0px" xmlns="http://www.w3.org/2000/svg">
  <g transform="matrix(1.0, 0.0, 0.0, 1.0, 1122.5, 1622.5)">
    <path d="M520.0 -800.0 L900.0 -900.0 1260.0 -1040.0 1660.0 -1120.0 1660.0 -1620.0 1100.0 -1540.0 939.9 -1520.05 880.05 -1560.0 880.0 -1560.0 520.1 -1440.1 520.1 -1359.9 220.0 -1240.0 219.95 -1239.95 0.0 -1180.0 0.0 -520.0 -780.0 -520.0 -780.0 -440.0 -859.95 -380.0 -860.0 -380.0 -1120.0 -380.0 M1500.0 -320.0 L720.0 -100.0 620.0 -60.0 360.0 0.0 140.0 40.0 -40.0 0.0 -1120.0 -20.0 M520.0 -800.0 L520.0 -560.0 1120.0 -780.0 1500.0 -860.0" fill="none" stroke="#00ffff" stroke-linecap="round" stroke-linejoin="round" stroke-width="5.0"/>
    <path d="M520.1 -1359.9 L840.0 -1340.0 M640.0 -80.0 L540.0 -100.0 100.0 -340.0 M380.0 -460.0 L180.0 -420.0 M360.0 -560.0 L120.0 -620.0 M520.0 -800.0 L360.0 -720.0 240.0 -720.0" fill="none" stroke="#ff0000" stroke-linecap="round" stroke-linejoin="round" stroke-width="5.0"/>
    <path d="M-1120.0 80.0 L560.0 140.0 1480.0 -200.0" fill="none" stroke="#666666" stroke-linecap="round" stroke-linejoin="round" stroke-width="5.0"/>
    <path d="M-1080.0 -580.0 L-1080.0 160.0" fill="none" stroke="#ffff00" stroke-linecap="round" stroke-linejoin="round" stroke-width="5.0"/>
  </g>
</svg>
