<?xml version="1.0" encoding="UTF-8" standalone="no"?>
<svg xmlns:ffdec="https://www.free-decompiler.com/flash" xmlns:xlink="http://www.w3.org/1999/xlink" ffdec:objectType="shape" height="724.8px" width="1060.25px" xmlns="http://www.w3.org/2000/svg">
  <g transform="matrix(1.0, 0.0, 0.0, 1.0, 471.5, 294.95)">
    <path d="M582.6 -291.7 L578.85 -294.95 582.45 -294.95 Q587.6 -289.5 588.75 -283.9 586.7 -287.85 582.6 -291.7 M-471.5 -283.95 Q-470.35 -289.5 -465.25 -294.95 L-461.65 -294.95 -465.35 -291.75 Q-469.45 -287.9 -471.5 -283.95" fill="#878e4f" fill-rule="evenodd" stroke="none"/>
    <path d="M98.8 306.85 L107.8 306.1 136.6 306.0 191.8 302.75 217.9 301.45 Q233.45 308.25 248.3 316.5 259.25 322.55 269.45 329.65 L271.2 330.85 Q283.6 339.55 294.9 349.75 319.8 372.3 321.65 405.75 322.2 415.2 320.6 423.75 L319.6 428.05 317.6 428.25 -9.8 428.25 -10.2 428.6 -11.25 428.25 -11.8 428.25 -12.4 429.65 -13.25 429.85 -12.35 428.25 -356.7 428.25 Q-392.45 409.15 -403.1 402.45 -411.1 397.05 -433.9 379.65 L-470.6 352.05 -466.3 353.3 Q-459.65 355.3 -453.7 355.5 -451.5 353.35 -444.6 348.8 L-433.7 341.7 -435.65 344.15 Q-426.2 338.0 -413.6 332.05 -387.9 319.95 -362.95 315.55 -369.3 317.3 -375.8 319.5 L-375.2 319.3 -364.05 316.45 -360.9 315.55 Q-343.9 310.8 -325.05 307.15 L-324.4 307.0 -324.65 307.0 -325.65 307.15 -325.95 306.9 Q-327.0 306.75 -327.1 306.5 L-326.6 306.3 Q-329.35 303.95 -334.05 302.2 -335.35 301.7 -336.2 300.95 L-267.3 304.3 -210.55 304.3 -203.45 303.55 -180.5 303.45 -172.1 302.7 -89.95 302.7 -81.6 303.45 -47.05 303.55 -27.35 304.7 4.25 306.85 98.8 306.85" fill="url(#gradient0)" fill-rule="evenodd" stroke="none"/>
    <path d="M-372.05 307.35 L-374.95 307.05 -360.35 305.8 Q-366.65 307.35 -372.05 307.35" fill="#ffff99" fill-opacity="0.654902" fill-rule="evenodd" stroke="none"/>
  </g>
  <defs>
    <linearGradient gradientTransform="matrix(0.3043, 0.1746, -0.497, 0.8659, -2.55, 6.5)" gradientUnits="userSpaceOnUse" id="gradient0" spreadMethod="pad" x1="-819.2" x2="819.2">
      <stop offset="0.0" stop-color="#ffff99" stop-opacity="0.6509804"/>
      <stop offset="1.0" stop-color="#ffff99" stop-opacity="0.0"/>
    </linearGradient>
  </defs>
</svg>
