<?xml version="1.0" encoding="UTF-8" standalone="no"?>
<svg xmlns:ffdec="https://www.free-decompiler.com/flash" xmlns:xlink="http://www.w3.org/1999/xlink" ffdec:objectType="shape" height="1085.0px" width="2345.0px" xmlns="http://www.w3.org/2000/svg">
  <g transform="matrix(1.0, 0.0, 0.0, 1.0, -357.5, 1002.5)">
    <path d="M2260.0 80.0 L1960.0 60.0 1840.0 20.0 1620.0 20.0 1180.0 -60.0 800.0 -180.0 520.0 -380.0 360.0 -380.0 360.0 -1000.0" fill="none" stroke="#00ffff" stroke-linecap="round" stroke-linejoin="round" stroke-width="5.0"/>
    <path d="M840.0 -440.0 L920.0 -440.0 M840.0 -520.0 L939.9 -520.1 M840.0 -360.0 L940.0 -360.0 M1080.0 -260.0 L1160.0 -240.0 1200.0 -200.0 1260.0 -200.0 1300.0 -160.0 1340.0 -160.0 1480.0 -60.0 1620.0 0.0 M1960.0 40.0 L2100.0 20.0 2260.0 -40.0 2320.0 -60.0 2360.0 -80.0 2420.0 -100.0 2700.0 -220.0" fill="none" stroke="#ff0000" stroke-linecap="round" stroke-linejoin="round" stroke-width="5.0"/>
  </g>
</svg>
