<?xml version="1.0" encoding="UTF-8" standalone="no"?>
<svg xmlns:ffdec="https://www.free-decompiler.com/flash" xmlns:xlink="http://www.w3.org/1999/xlink" ffdec:objectType="shape" height="101.45px" width="735.55px" xmlns="http://www.w3.org/2000/svg">
  <g transform="matrix(1.0, 0.0, 0.0, 1.0, 183.05, -279.8)">
    <path d="M253.8 281.6 L264.25 282.3 284.6 282.3 297.15 284.9 314.0 287.0 Q320.2 288.05 332.6 291.0 L339.2 292.5 352.45 294.7 354.0 294.95 Q379.5 297.65 392.3 299.9 403.8 301.85 427.0 307.55 L490.35 320.85 Q552.5 334.8 552.5 339.4 552.5 342.65 511.95 346.3 L477.7 349.15 456.25 351.15 430.3 355.7 Q381.5 363.95 348.4 367.0 326.65 369.0 287.6 374.1 254.3 378.4 217.05 381.25 L166.5 381.25 Q122.1 381.3 51.45 373.15 -24.05 363.55 -53.0 360.5 -73.5 358.4 -90.05 355.7 -112.4 352.1 -123.35 348.05 L-138.0 342.5 Q-144.8 339.95 -149.15 339.05 L-166.8 337.1 Q-183.05 335.05 -183.05 333.5 -183.05 331.7 -159.05 324.4 L-129.9 315.8 Q-113.25 310.45 -104.8 308.7 L-83.0 304.85 Q-61.65 300.45 -33.35 295.8 22.45 286.65 73.75 282.55 80.65 281.9 84.0 282.3 L89.25 282.3 90.45 282.35 91.4 282.35 92.25 282.55 99.85 283.3 106.65 284.4 112.15 285.15 126.9 286.4 142.6 287.5 169.95 287.45 Q170.75 286.55 175.0 286.5 L178.3 286.5 180.75 286.4 186.4 286.35 194.05 285.55 201.45 284.8 206.85 283.9 210.5 282.9 Q215.65 281.75 220.95 281.55 L225.7 281.4 231.25 281.0 234.9 280.65 240.6 280.7 252.25 281.55 252.1 281.55 Q251.95 281.55 251.8 281.7 L252.35 281.9 252.65 281.55 253.7 281.6 Q253.5 281.65 253.25 281.85 L253.35 281.9 253.8 282.0 253.95 281.75 253.95 281.65 253.8 281.6 M100.85 286.0 L100.6 286.55 Q100.6 287.35 103.75 288.15 106.8 288.95 109.6 288.95 L111.7 289.05 115.4 289.3 115.85 289.4 116.45 289.55 116.95 289.35 Q117.2 289.15 117.5 289.15 L118.55 289.3 119.05 289.6 123.8 290.1 125.45 290.15 125.9 290.0 126.3 289.6 127.15 290.0 128.25 290.25 130.1 290.5 130.7 290.2 131.25 289.95 131.7 290.0 132.1 290.1 131.95 290.55 132.0 290.9 133.75 290.95 135.05 290.95 135.1 291.05 Q135.35 291.55 136.0 291.55 L136.65 291.45 137.35 291.8 138.65 291.45 138.9 291.2 138.95 291.2 139.3 291.1 140.0 291.2 140.2 291.95 Q140.6 292.35 141.9 292.35 L142.5 292.3 142.6 292.45 142.95 292.65 143.2 292.65 143.35 292.35 143.2 292.05 143.0 292.05 143.05 292.0 Q143.6 291.65 143.7 291.65 144.2 291.65 144.55 291.95 L145.35 292.25 145.45 292.25 146.55 292.95 146.8 292.95 146.7 292.9 146.8 292.8 146.9 292.5 146.8 292.25 147.0 292.15 147.55 292.25 148.9 292.2 149.35 292.25 149.75 292.2 149.8 291.9 150.0 291.85 150.25 292.0 150.55 291.85 150.75 291.9 150.85 292.0 151.15 292.15 150.65 292.2 Q150.4 292.2 150.3 292.45 L150.55 292.6 150.95 292.75 151.35 292.65 151.4 292.45 151.4 292.2 151.35 292.2 151.25 292.15 151.7 292.2 152.2 292.15 152.5 291.8 152.45 291.55 152.4 291.55 152.05 291.5 152.05 291.35 152.05 291.2 152.05 291.1 151.65 291.25 151.4 291.45 150.8 291.4 150.65 291.6 150.55 291.45 150.2 291.45 149.2 291.2 149.25 291.05 149.2 290.9 149.2 290.85 148.1 290.85 148.1 291.05 148.1 291.1 147.45 291.1 147.45 291.05 147.45 290.8 147.35 290.85 146.2 291.1 146.7 291.3 145.25 290.9 143.4 290.3 140.85 290.15 138.1 290.05 137.3 290.25 Q136.4 289.2 135.65 289.5 135.0 289.65 134.95 290.35 L134.9 290.35 134.45 289.6 Q133.75 288.95 133.15 288.95 L132.85 289.05 132.2 288.9 131.3 288.75 130.35 288.7 130.05 288.7 127.95 288.3 127.6 288.4 127.35 288.3 126.9 288.25 125.9 288.35 125.6 288.15 Q124.85 287.6 123.95 287.6 L119.9 287.35 Q118.8 286.95 115.45 286.5 111.0 285.1 110.25 285.9 L109.7 286.65 Q109.3 287.1 108.35 287.1 L104.85 286.45 101.45 285.7 Q101.05 285.7 100.85 286.0 M124.0 290.5 L123.85 290.5 123.9 290.85 124.3 290.7 124.0 290.5 M130.8 290.75 L130.35 290.7 129.8 290.95 130.15 291.1 130.5 291.25 130.8 291.1 130.9 290.9 130.8 290.75 M127.1 290.8 L127.25 290.55 127.2 290.3 126.55 290.15 126.3 290.5 126.35 290.7 126.45 290.8 126.7 290.9 127.1 290.8 M157.55 291.7 L157.25 291.75 157.25 292.05 157.5 292.25 157.8 292.2 158.0 292.0 158.0 291.85 157.55 291.7 M160.9 291.65 L161.2 291.7 161.45 291.65 161.5 291.55 161.45 291.45 161.45 291.35 160.8 291.5 160.9 291.55 160.9 291.65 M153.0 292.2 Q152.6 292.05 152.45 292.2 L152.2 292.45 152.3 292.65 152.6 292.75 152.95 292.6 153.2 292.35 153.0 292.2 M154.8 291.2 L154.75 290.95 154.75 290.9 153.9 290.9 Q153.65 291.0 153.65 291.2 L153.65 291.45 Q153.4 291.45 153.2 291.65 L153.7 292.0 154.2 291.7 154.1 291.55 154.25 291.55 154.75 291.5 154.8 291.2 M155.2 292.35 L155.45 292.2 155.35 291.95 154.7 292.05 154.75 292.2 155.2 292.35 M145.1 290.25 L144.4 290.55 144.95 290.75 145.35 290.85 145.75 290.75 145.9 290.55 145.85 290.3 145.1 290.25 M243.1 283.65 L243.95 283.75 244.7 283.9 244.9 283.85 245.85 284.4 246.2 284.25 246.15 284.25 246.2 284.2 246.2 283.85 246.0 283.6 246.25 283.4 246.8 283.4 247.9 283.1 248.4 283.05 248.8 282.9 248.8 282.65 248.9 282.6 249.15 282.65 249.45 282.45 249.7 282.45 249.75 282.55 249.95 282.6 249.6 282.75 249.3 283.1 249.6 283.2 249.95 283.2 250.35 283.1 250.35 282.85 250.25 282.65 250.25 282.6 250.5 282.55 251.05 282.35 251.3 282.05 251.2 281.75 251.1 281.8 250.75 281.75 250.75 281.65 250.65 281.55 250.25 281.65 250.15 281.85 249.6 281.95 249.45 282.2 249.3 282.05 249.0 282.1 248.0 282.1 248.05 281.9 247.95 281.8 247.9 281.75 Q247.25 281.8 247.05 281.95 L247.05 281.9 247.05 282.15 247.1 282.2 246.45 282.4 246.45 282.3 246.35 282.05 246.3 282.1 Q245.9 282.15 245.25 282.65 L245.75 282.75 244.4 282.6 242.5 282.35 240.15 282.75 237.6 283.2 Q237.2 283.3 236.95 283.55 235.9 282.75 235.2 283.15 234.7 283.5 234.8 284.2 L234.15 283.55 Q233.4 283.05 232.85 283.15 L232.55 283.35 231.95 283.25 231.1 283.4 230.25 283.5 229.95 283.5 227.85 283.55 227.6 283.75 227.35 283.75 226.95 283.7 226.0 284.1 225.8 283.9 224.1 283.7 220.3 284.25 Q219.25 284.1 216.05 284.25 211.7 283.9 211.1 284.8 L210.8 285.65 209.7 286.4 Q208.6 286.6 206.3 286.45 203.95 286.2 203.05 286.45 L202.55 286.85 Q202.35 287.1 202.45 287.4 202.6 288.25 205.65 288.3 L211.2 287.95 213.2 287.6 216.55 287.05 217.1 287.05 217.6 287.05 218.0 286.8 218.55 286.5 219.5 286.45 220.0 286.65 224.45 286.15 226.1 285.85 226.4 285.6 226.7 285.2 227.5 285.4 228.55 285.4 230.35 285.25 230.85 284.85 231.25 284.5 231.3 284.5 231.7 284.5 232.1 284.5 232.1 284.95 232.2 285.25 233.85 284.95 235.05 284.75 235.1 284.8 Q235.4 285.3 236.05 285.15 L236.55 284.85 236.55 284.9 237.3 285.1 238.4 284.4 238.65 284.2 238.95 284.05 239.6 284.0 240.0 284.6 241.55 284.75 242.05 284.5 242.25 284.65 242.65 284.8 242.85 284.75 242.95 284.4 242.7 284.1 Q242.6 284.1 242.55 284.2 L242.6 284.1 243.1 283.65 M244.95 282.1 L244.8 281.9 244.1 282.0 243.55 282.45 244.05 282.5 244.45 282.55 244.8 282.35 244.95 282.1 M251.75 282.3 L251.75 282.25 251.3 282.35 251.05 282.7 251.3 282.85 251.3 282.9 251.55 282.9 251.8 282.75 251.95 282.45 251.75 282.3 M224.75 286.9 L225.05 286.65 224.75 286.55 224.6 286.55 224.75 286.9 M227.6 285.65 L227.0 285.6 226.9 286.0 226.95 286.2 227.1 286.35 227.3 286.35 227.65 286.15 227.75 285.85 227.6 285.65 M230.5 285.9 L230.85 285.95 231.2 285.75 231.2 285.55 231.05 285.35 230.65 285.45 230.25 285.85 230.5 285.9" fill="#fafeab" fill-opacity="0.99215686" fill-rule="evenodd" stroke="none"/>
    <path d="M252.25 281.55 L252.65 281.55 252.35 281.9 251.8 281.7 Q251.95 281.55 252.1 281.55 L252.25 281.55 M253.7 281.6 L253.8 281.6 253.95 281.65 253.95 281.75 253.8 282.0 253.35 281.9 253.25 281.85 Q253.5 281.65 253.7 281.6 M100.85 286.0 Q101.05 285.7 101.45 285.7 L104.85 286.45 108.35 287.1 Q109.3 287.1 109.7 286.65 L110.25 285.9 Q111.0 285.1 115.45 286.5 118.8 286.95 119.9 287.35 L123.95 287.6 Q124.85 287.6 125.6 288.15 L125.9 288.35 126.9 288.25 127.35 288.3 127.6 288.4 127.95 288.3 130.05 288.7 130.35 288.7 131.3 288.75 132.2 288.9 132.85 289.05 133.15 288.95 Q133.75 288.95 134.45 289.6 L134.9 290.35 134.95 290.35 Q135.0 289.65 135.65 289.5 136.4 289.2 137.3 290.25 L138.1 290.05 140.85 290.15 143.4 290.3 145.25 290.9 146.7 291.3 146.2 291.1 147.35 290.85 147.45 290.8 147.45 291.05 147.45 291.1 148.1 291.1 148.1 291.05 148.1 290.85 149.2 290.85 149.2 290.9 149.25 291.05 149.2 291.2 150.2 291.45 150.55 291.45 150.65 291.6 150.8 291.4 151.4 291.45 151.65 291.25 152.05 291.1 152.05 291.2 152.05 291.35 152.05 291.5 152.4 291.55 152.45 291.55 152.5 291.8 152.2 292.15 151.7 292.2 151.25 292.15 151.35 292.2 151.4 292.2 151.4 292.45 151.35 292.65 150.95 292.75 150.55 292.6 150.3 292.45 Q150.4 292.2 150.65 292.2 L151.15 292.15 150.85 292.0 150.75 291.9 150.55 291.85 150.25 292.0 150.0 291.85 149.8 291.9 149.75 292.2 149.35 292.25 148.9 292.2 147.55 292.25 147.0 292.15 146.8 292.25 146.9 292.5 146.8 292.8 146.7 292.9 146.8 292.95 146.55 292.95 145.45 292.25 145.35 292.25 144.55 291.95 Q144.2 291.65 143.7 291.65 143.6 291.65 143.05 292.0 L143.0 292.05 143.2 292.05 143.35 292.35 143.2 292.65 142.95 292.65 142.6 292.45 142.5 292.3 141.9 292.35 Q140.6 292.35 140.2 291.95 L140.0 291.2 139.3 291.1 138.95 291.2 138.9 291.2 138.65 291.45 137.35 291.8 136.65 291.45 136.0 291.55 Q135.35 291.55 135.1 291.05 L135.05 290.95 133.75 290.95 132.0 290.9 131.95 290.55 132.1 290.1 131.7 290.0 131.25 289.95 130.7 290.2 130.1 290.5 128.25 290.25 127.15 290.0 126.3 289.6 125.9 290.0 125.45 290.15 123.8 290.1 119.05 289.6 118.55 289.3 117.5 289.15 Q117.2 289.15 116.95 289.35 L116.45 289.55 115.85 289.4 115.4 289.3 111.7 289.05 109.6 288.95 Q106.8 288.95 103.75 288.15 100.6 287.35 100.6 286.55 L100.85 286.0 M127.1 290.8 L126.7 290.9 126.45 290.8 126.35 290.7 126.3 290.5 126.55 290.15 127.2 290.3 127.25 290.55 127.1 290.8 M130.8 290.75 L130.9 290.9 130.8 291.1 130.5 291.25 130.15 291.1 129.8 290.95 130.35 290.7 130.8 290.75 M124.0 290.5 L124.3 290.7 123.9 290.85 123.85 290.5 124.0 290.5 M126.4 289.05 L126.6 288.95 126.4 288.95 126.4 289.05 M145.1 290.25 L145.85 290.3 145.9 290.55 145.75 290.75 145.35 290.85 144.95 290.75 144.4 290.55 145.1 290.25 M155.2 292.35 L154.75 292.2 154.7 292.05 155.35 291.95 155.45 292.2 155.2 292.35 M154.8 291.2 L154.75 291.5 154.25 291.55 154.1 291.55 154.2 291.7 153.7 292.0 153.2 291.65 Q153.4 291.45 153.65 291.45 L153.65 291.2 Q153.65 291.0 153.9 290.9 L154.75 290.9 154.75 290.95 154.8 291.2 M153.0 292.2 L153.2 292.35 152.95 292.6 152.6 292.75 152.3 292.65 152.2 292.45 152.45 292.2 Q152.6 292.05 153.0 292.2 M160.9 291.65 L160.9 291.55 160.8 291.5 161.45 291.35 161.45 291.45 161.5 291.55 161.45 291.65 161.2 291.7 160.9 291.65 M157.55 291.7 L158.0 291.85 158.0 292.0 157.8 292.2 157.5 292.25 157.25 292.05 157.25 291.75 157.55 291.7 M259.35 279.8 L259.35 279.9 259.45 280.0 258.95 279.95 259.35 279.8 M244.95 282.1 L244.8 282.35 244.45 282.55 244.05 282.5 243.55 282.45 244.1 282.0 244.8 281.9 244.95 282.1 M243.1 283.65 L242.6 284.1 242.55 284.2 Q242.6 284.1 242.7 284.1 L242.95 284.4 242.85 284.75 242.65 284.8 242.25 284.65 242.05 284.5 241.55 284.75 240.0 284.6 239.6 284.0 238.95 284.05 238.65 284.2 238.4 284.4 237.3 285.1 236.55 284.9 236.55 284.85 236.05 285.15 Q235.4 285.3 235.1 284.8 L235.05 284.75 233.85 284.95 232.2 285.25 232.1 284.95 232.1 284.5 231.7 284.5 231.3 284.5 231.25 284.5 230.85 284.85 230.35 285.25 228.55 285.4 227.5 285.4 226.7 285.2 226.4 285.6 226.1 285.85 224.45 286.15 220.0 286.65 219.5 286.45 218.55 286.5 218.0 286.8 217.6 287.05 217.1 287.05 216.55 287.05 213.2 287.6 211.2 287.95 205.65 288.3 Q202.6 288.25 202.45 287.4 202.35 287.1 202.55 286.85 L203.05 286.45 Q203.95 286.2 206.3 286.45 208.6 286.6 209.7 286.4 L210.8 285.65 211.1 284.8 Q211.7 283.9 216.05 284.25 219.25 284.1 220.3 284.25 L224.1 283.7 225.8 283.9 226.0 284.1 226.95 283.7 227.35 283.75 227.6 283.75 227.85 283.55 229.95 283.5 230.25 283.5 231.1 283.4 231.95 283.25 232.55 283.35 232.85 283.15 Q233.4 283.05 234.15 283.55 L234.8 284.2 Q234.7 283.5 235.2 283.15 235.9 282.75 236.95 283.55 237.2 283.3 237.6 283.2 L240.15 282.75 242.5 282.35 244.4 282.6 245.75 282.75 245.25 282.65 Q245.9 282.15 246.3 282.1 L246.35 282.05 246.45 282.3 246.45 282.4 247.1 282.2 247.05 282.15 247.05 281.9 247.05 281.95 Q247.25 281.8 247.9 281.75 L247.95 281.8 248.05 281.9 248.0 282.1 249.0 282.1 249.3 282.05 249.45 282.2 249.6 281.95 250.15 281.85 250.25 281.65 250.65 281.55 250.75 281.65 250.75 281.75 251.1 281.8 251.2 281.75 251.3 282.05 251.05 282.35 250.5 282.55 250.25 282.6 250.25 282.65 250.35 282.85 250.35 283.1 249.95 283.2 249.6 283.2 249.3 283.1 249.6 282.75 249.95 282.6 249.75 282.55 249.7 282.45 249.45 282.45 249.15 282.65 248.9 282.6 248.8 282.65 248.8 282.9 248.4 283.05 247.9 283.1 246.8 283.4 246.25 283.4 246.0 283.6 246.2 283.85 246.2 284.2 246.15 284.25 246.2 284.25 245.85 284.4 244.9 283.85 244.7 283.9 243.95 283.75 243.1 283.65 M251.75 282.3 L251.95 282.45 251.8 282.75 251.55 282.9 251.3 282.9 251.3 282.85 251.05 282.7 251.3 282.35 251.75 282.25 251.75 282.3 M226.85 284.5 L226.65 284.5 226.65 284.55 226.85 284.5 M230.5 285.9 L230.25 285.85 230.65 285.45 231.05 285.35 231.2 285.55 231.2 285.75 230.85 285.95 230.5 285.9 M227.6 285.65 L227.75 285.85 227.65 286.15 227.3 286.35 227.1 286.35 226.95 286.2 226.9 286.0 227.0 285.6 227.6 285.65 M224.75 286.9 L224.6 286.55 224.75 286.55 225.05 286.65 224.75 286.9" fill="#ffe375" fill-rule="evenodd" stroke="none"/>
    <path d="M121.55 284.25 Q121.25 284.25 121.1 284.0 L121.75 284.25 121.55 284.25" fill="#afbd93" fill-rule="evenodd" stroke="none"/>
    <path d="M126.4 289.05 L126.4 288.95 126.6 288.95 126.4 289.05 M226.85 284.5 L226.65 284.55 226.65 284.5 226.85 284.5" fill="#ffff99" fill-rule="evenodd" stroke="none"/>
  </g>
</svg>
