<?xml version="1.0" encoding="UTF-8" standalone="no"?>
<svg xmlns:ffdec="https://www.free-decompiler.com/flash" xmlns:xlink="http://www.w3.org/1999/xlink" ffdec:objectType="shape" height="43.15px" width="34.6px" xmlns="http://www.w3.org/2000/svg">
  <g transform="matrix(1.0, 0.0, 0.0, 1.0, 20.1, 102.35)">
    <path d="M0.55 -100.15 Q-10.75 -86.1 -14.2 -83.05 L-14.2 -66.7 -8.75 -66.1 Q-7.1 -74.85 -6.1 -76.95 -2.6 -84.5 5.6 -84.5 12.8 -84.5 14.2 -80.05 14.65 -78.65 14.45 -76.95 L14.2 -75.3 Q14.2 -70.95 10.15 -65.85 4.9 -59.2 -3.45 -59.2 L-17.1 -60.35 Q-19.4 -62.2 -19.85 -66.95 L-19.95 -73.85 -20.1 -82.05 Q-20.05 -85.7 -18.75 -88.1 -15.95 -93.2 0.0 -102.35 L0.3 -102.0 Q0.55 -101.85 0.55 -100.15 M8.45 -77.9 Q2.1 -78.85 0.35 -74.05 L-0.8 -69.8 Q-1.55 -67.3 -2.7 -66.1 L-2.7 -65.25 Q0.75 -65.45 4.35 -68.45 6.0 -69.8 8.45 -72.7 L8.45 -77.9" fill="#99ff33" fill-rule="evenodd" stroke="none"/>
  </g>
</svg>
