<?xml version="1.0" encoding="UTF-8" standalone="no"?>
<svg xmlns:ffdec="https://www.free-decompiler.com/flash" xmlns:xlink="http://www.w3.org/1999/xlink" ffdec:objectType="shape" height="429.8px" width="194.6px" xmlns="http://www.w3.org/2000/svg">
  <g transform="matrix(1.0, 0.0, 0.0, 1.0, 15.05, 64.75)">
    <path d="M75.2 -64.6 Q95.85 -63.4 115.5 -54.1 132.55 -46.0 144.75 -34.0 156.05 -22.9 157.85 -14.0 165.15 2.6 169.7 24.15 172.35 36.7 176.55 62.1 L176.55 131.15 177.3 134.25 177.35 134.35 178.15 135.8 178.15 138.65 Q179.55 147.05 179.55 156.6 L177.1 189.9 Q174.95 223.1 176.55 233.8 L175.55 235.1 Q174.9 235.75 173.4 235.9 L173.4 362.75 172.45 364.25 Q171.8 364.95 170.0 365.05 L169.55 365.05 Q167.4 365.05 166.8 364.55 L165.55 363.3 165.55 360.75 Q163.75 359.8 161.7 359.8 L160.25 359.9 Q158.45 357.45 157.0 357.65 156.9 357.25 155.15 357.25 L154.3 357.35 Q154.25 358.5 152.8 359.3 151.3 360.15 149.3 360.15 L148.95 360.15 148.9 360.15 145.95 360.05 143.55 359.75 Q138.4 359.0 135.45 356.7 133.6 355.3 132.95 353.8 L132.25 353.4 Q131.55 353.15 130.8 353.4 L124.5 350.85 Q121.65 349.8 119.75 349.6 L119.7 349.55 119.5 349.55 118.9 349.55 118.1 349.4 117.8 349.5 117.7 350.15 117.05 350.25 116.25 350.6 115.85 350.6 114.25 350.6 113.5 350.75 113.15 350.9 111.4 351.15 109.85 351.45 Q106.5 351.45 104.0 350.65 L101.15 349.8 99.2 348.6 Q96.3 347.4 96.05 346.25 L95.6 345.65 96.05 345.35 96.25 344.9 Q95.65 343.9 90.5 342.25 L87.25 341.35 87.25 341.3 87.15 340.75 87.05 340.6 Q86.3 340.55 85.15 341.3 L85.0 341.2 84.8 341.5 Q84.4 341.95 83.5 342.45 L83.45 342.5 82.8 342.65 82.35 342.85 81.0 343.05 Q80.0 343.35 79.55 343.65 71.05 343.1 66.6 340.7 L64.45 339.4 Q63.95 338.5 63.9 337.55 L61.6 336.4 Q56.25 333.7 54.05 333.2 L53.05 333.05 52.85 332.9 51.25 332.6 Q51.0 332.6 50.3 332.9 L48.2 334.15 Q45.55 335.25 42.75 335.25 39.3 335.25 35.45 333.8 34.4 332.9 31.7 331.4 28.4 329.5 27.65 329.4 L26.55 328.8 26.2 328.6 Q25.1 326.8 23.3 325.45 20.6 323.45 19.3 325.8 L17.95 326.0 17.55 326.3 14.85 327.0 12.85 327.6 11.55 327.4 Q9.9 327.2 8.95 327.75 3.2 327.45 0.7 326.15 L-0.95 324.8 -1.55 324.1 -1.7 324.0 -1.8 323.95 -1.75 323.35 Q-2.15 322.35 -2.95 322.45 L-3.2 322.55 -3.15 321.45 -3.85 321.45 -3.85 324.95 -5.3 325.7 Q-6.75 326.45 -7.7 326.55 L-9.4 322.65 Q-14.1 310.7 -14.85 293.55 -15.2 286.65 -15.0 275.9 L-14.7 258.3 -14.5 252.5 Q-14.15 248.9 -13.1 246.05 L-13.1 168.0 -12.95 168.0 Q-13.55 163.65 -13.55 158.55 -12.75 142.9 -13.1 135.6 -13.45 126.7 -13.3 109.6 L-13.1 91.7 -13.1 16.45 Q-13.1 -8.15 -7.55 -21.6 1.65 -44.0 28.7 -56.0 51.1 -66.0 75.2 -64.6" fill="#0000ff" fill-rule="evenodd" stroke="none"/>
  </g>
</svg>
