<?xml version="1.0" encoding="UTF-8" standalone="no"?>
<svg xmlns:ffdec="https://www.free-decompiler.com/flash" xmlns:xlink="http://www.w3.org/1999/xlink" ffdec:objectType="shape" height="162.95px" width="557.6px" xmlns="http://www.w3.org/2000/svg">
  <g transform="matrix(1.0, 0.0, 0.0, 1.0, 116.1, -111.65)">
    <path d="M395.7 147.85 Q395.5 145.8 396.05 145.1 L400.0 139.6 403.5 133.6 Q405.6 129.85 410.45 123.0 414.15 117.05 413.5 112.85 L415.2 112.0 415.3 111.95 419.6 111.95 419.95 112.6 Q421.15 114.7 423.1 114.7 L424.95 114.35 Q425.75 113.85 425.75 112.5 L425.75 111.95 440.2 111.9 Q439.75 115.95 439.95 120.6 439.95 129.5 440.5 131.65 440.85 133.1 441.5 134.55 L441.5 183.8 432.6 183.8 Q434.0 182.35 434.0 181.6 434.0 180.8 433.7 180.75 L433.4 180.8 431.05 182.25 Q429.65 183.3 429.45 183.8 L424.6 183.8 422.65 183.4 422.5 183.4 421.15 183.3 420.65 183.2 Q420.55 183.25 420.55 182.3 L420.85 179.95 420.55 178.2 Q420.85 174.55 420.75 172.9 420.6 170.9 420.6 167.9 L420.65 162.7 420.2 150.45 420.15 149.85 419.2 149.85 417.6 149.55 406.2 149.55 406.3 149.45 Q407.8 147.9 409.25 147.55 L408.5 147.3 407.9 147.2 407.9 147.3 Q405.9 146.7 404.1 148.05 403.1 148.8 402.75 149.55 L395.3 149.55 Q395.8 148.8 395.7 147.85 M402.45 112.25 L404.05 111.95 408.5 111.95 Q408.85 113.0 409.7 113.8 410.5 114.65 410.5 115.0 410.5 121.9 405.1 130.55 401.7 136.1 391.9 148.05 L384.5 148.05 Q380.45 146.6 378.95 147.7 L377.9 149.55 377.2 149.55 376.15 148.8 Q375.0 147.95 374.35 147.95 371.2 147.95 370.0 149.55 L369.8 149.55 Q364.4 149.9 361.8 150.75 L361.1 151.8 360.3 152.95 359.55 154.1 359.4 154.25 358.9 155.0 358.1 155.85 357.35 156.3 Q356.0 157.25 356.0 157.55 L356.25 158.0 354.2 160.65 351.3 164.5 347.85 169.0 Q336.55 161.2 329.75 157.6 331.95 159.3 344.4 170.9 L345.65 171.9 345.55 172.0 343.0 175.4 340.75 175.25 Q340.6 176.05 340.6 177.2 L341.0 178.0 336.7 183.15 336.35 183.1 335.9 183.55 335.55 183.45 334.8 183.6 334.1 183.5 334.05 183.4 333.65 183.4 322.95 183.5 Q321.1 181.45 318.65 181.45 314.8 181.45 313.8 182.45 L312.3 183.45 310.4 182.45 Q308.35 181.45 307.3 181.45 306.7 181.45 305.8 182.05 304.9 182.6 304.25 182.6 299.45 182.6 297.3 183.65 L291.45 183.7 Q290.35 182.6 287.75 182.6 284.3 182.6 282.7 183.75 L279.05 183.75 277.9 183.8 272.75 183.8 272.55 183.55 Q271.05 181.45 266.85 181.45 264.6 181.45 259.25 183.8 L238.55 183.8 237.25 183.65 Q237.05 182.2 236.6 181.75 236.0 181.2 234.65 180.95 L234.75 179.95 234.5 178.2 Q234.85 174.55 234.7 172.9 L234.65 172.4 Q240.3 172.05 249.95 170.25 L262.75 167.7 262.55 167.45 248.85 168.5 234.5 169.25 234.5 167.9 234.55 162.7 234.2 150.45 234.15 149.85 233.15 149.85 231.6 149.55 207.05 149.55 206.6 148.6 Q205.3 145.2 202.55 147.65 L200.8 149.55 198.65 149.55 198.4 149.05 Q197.65 147.55 195.4 147.55 194.25 147.55 192.0 149.55 L183.75 149.55 Q178.35 149.9 175.8 150.75 L174.55 152.55 174.35 152.9 173.5 154.1 173.4 154.2 172.8 155.0 170.55 157.5 168.15 160.65 168.05 160.8 167.05 162.2 165.7 163.85 161.4 169.55 161.1 169.55 Q156.35 169.8 156.35 173.95 L156.8 175.65 150.7 183.15 150.3 183.1 149.85 183.55 149.55 183.45 148.75 183.6 148.0 183.5 148.0 183.4 147.6 183.4 136.6 183.5 Q133.1 181.85 132.0 181.85 130.3 181.85 129.5 182.8 L128.25 183.55 124.9 183.55 Q123.8 183.2 122.95 182.35 121.6 180.95 120.35 180.95 119.65 180.95 116.95 182.5 L115.25 183.6 93.0 183.75 92.75 183.75 91.85 183.8 83.55 183.8 83.45 183.65 83.25 183.25 Q81.4 182.5 79.7 183.75 L79.65 183.8 77.9 183.8 77.6 183.8 52.55 183.8 Q51.25 183.75 50.6 183.4 L50.4 183.4 49.1 183.3 48.55 183.2 Q48.45 183.25 48.45 182.3 L48.75 179.95 48.45 178.2 Q48.8 174.55 48.65 172.9 48.5 170.9 48.5 167.9 L48.55 162.7 48.1 150.45 48.05 149.85 47.15 149.85 45.55 149.55 -2.3 149.55 Q-7.7 149.9 -10.3 150.75 L-11.5 152.55 -11.75 152.9 -11.95 153.2 -12.5 154.1 -12.75 154.35 -13.25 155.0 -15.55 157.5 -17.9 160.65 -18.45 161.45 -21.3 161.6 Q-23.55 162.4 -24.15 164.4 -24.7 166.15 -23.6 168.2 L-24.95 169.95 -25.4 170.55 -29.55 171.35 Q-30.65 171.65 -30.65 174.2 -30.65 174.9 -29.7 176.1 L-35.35 183.15 -35.7 183.1 -36.2 183.55 -36.55 183.45 -37.25 183.6 -37.75 183.6 -38.05 183.5 -38.05 183.4 -38.45 183.4 -93.1 183.75 -93.3 183.75 -94.2 183.8 -96.9 183.8 Q-97.45 182.4 -97.3 181.85 -97.8 181.85 -100.25 183.15 L-101.4 183.8 -116.1 183.8 -116.1 111.75 -106.1 111.7 -102.1 111.85 -100.9 111.95 Q-100.25 112.1 -100.0 112.4 -98.8 112.65 -98.55 114.55 -98.4 116.5 -98.5 120.55 L-98.3 131.55 -98.45 131.6 -107.5 136.2 -98.25 133.9 -98.2 145.55 -87.65 145.55 Q-85.4 148.85 -82.5 148.85 -79.75 148.85 -76.1 146.4 L-74.65 145.5 -53.25 145.4 -52.2 145.2 -51.3 144.6 -51.25 144.6 -50.95 144.8 -49.9 143.35 -46.85 139.45 -44.5 139.55 Q-42.5 139.45 -42.5 137.2 -42.5 135.85 -43.25 134.8 L-42.05 133.25 -39.0 132.35 Q-37.25 131.9 -37.25 131.0 L-37.35 129.6 -39.25 129.7 -30.7 119.25 -29.55 117.85 -29.5 117.65 -29.45 117.65 Q-29.1 116.5 -26.95 114.9 L-25.55 113.35 -24.55 112.7 -24.5 112.6 -22.95 112.1 -22.9 112.1 -22.8 112.15 Q-22.55 112.25 -22.25 112.5 L-20.5 112.15 -20.4 112.15 -18.2 112.15 -0.55 112.2 -0.55 112.25 1.3 112.25 1.15 112.35 Q-4.15 116.3 -6.4 119.2 -1.95 118.15 3.25 115.05 5.75 113.6 7.2 112.25 L30.35 112.25 31.95 111.95 55.6 111.9 56.35 112.65 Q58.9 115.05 61.55 115.05 L63.5 114.55 Q64.55 113.95 64.55 112.8 64.55 112.05 64.35 111.8 L64.3 111.7 65.25 111.65 68.5 111.85 82.3 111.7 85.15 111.95 Q85.8 112.1 86.1 112.4 87.25 112.65 87.5 114.55 87.7 116.5 87.55 120.55 L87.8 131.05 Q85.75 131.85 82.35 134.8 L74.55 141.7 Q69.7 145.9 66.75 147.55 L68.0 147.7 75.0 142.6 79.4 139.7 Q80.6 139.7 82.05 140.45 83.2 140.45 84.5 136.95 85.35 134.65 87.85 134.55 L87.9 145.55 89.15 145.55 Q89.45 146.45 90.75 146.45 L92.0 145.55 122.5 145.45 122.55 145.85 Q123.1 147.55 124.5 147.55 L125.5 147.3 125.9 146.25 125.3 145.45 132.8 145.4 133.9 145.2 134.75 144.6 135.05 144.8 Q137.4 141.45 145.3 131.55 151.65 123.55 156.55 117.85 L156.6 117.65 156.65 117.65 Q156.95 116.5 159.1 114.9 L160.5 113.35 161.55 112.7 161.6 112.6 163.1 112.1 163.15 112.1 163.75 112.5 165.6 112.15 203.8 112.25 195.65 116.35 195.9 116.6 202.25 114.7 Q206.5 114.7 211.95 112.25 L216.45 112.25 218.0 111.95 248.4 111.9 248.4 111.95 248.7 111.95 251.35 111.65 254.55 111.85 268.35 111.7 271.2 111.95 Q271.8 112.1 272.15 112.4 273.3 112.65 273.5 114.55 273.75 116.5 273.6 120.55 L273.8 131.9 273.95 145.55 299.25 145.5 299.1 146.95 Q299.1 147.9 299.35 148.3 299.9 149.2 301.65 149.2 303.25 149.2 305.6 146.95 L307.0 145.45 318.8 145.4 319.9 145.2 320.8 144.6 321.1 144.8 326.05 138.25 Q330.65 137.8 331.95 136.7 333.0 135.8 332.75 133.95 331.5 133.35 329.95 133.25 L331.3 131.55 334.45 127.7 342.1 127.0 Q347.0 126.25 348.85 125.35 345.0 124.05 339.6 124.4 L336.9 124.7 342.6 117.85 342.6 117.65 342.65 117.6 Q343.05 116.5 345.15 114.9 L346.55 113.35 347.6 112.7 347.65 112.6 349.15 112.1 349.85 112.5 351.6 112.15 372.2 112.2 372.75 112.6 Q375.2 114.3 378.5 114.3 L380.3 114.0 376.75 112.2 402.45 112.25 M347.5 113.4 L347.5 113.25 347.35 113.45 347.5 113.4 M430.3 264.15 Q429.4 263.5 427.45 263.3 425.15 263.05 425.15 264.35 425.15 265.6 425.3 265.15 L425.85 265.65 427.0 265.8 Q427.85 265.8 428.65 265.15 429.6 264.35 430.3 264.15 M429.05 237.5 Q430.2 236.75 431.35 236.3 L430.8 235.85 430.3 235.65 429.0 235.85 427.75 236.8 Q428.15 237.25 429.05 237.5 M408.5 202.75 Q408.85 203.8 409.7 204.6 410.5 205.45 410.5 205.8 410.5 212.7 405.1 221.35 401.7 226.9 391.9 238.85 L384.5 238.85 Q380.45 237.4 378.95 238.5 L377.9 240.35 377.2 240.35 376.15 239.6 Q375.0 238.75 374.35 238.75 371.2 238.75 370.0 240.35 L369.8 240.35 Q364.4 240.7 361.8 241.55 L361.1 242.6 360.3 243.75 359.55 244.9 359.4 245.05 358.9 245.8 358.1 246.65 357.35 247.1 Q356.0 248.05 356.0 248.35 L356.25 248.8 354.2 251.45 351.3 255.3 347.85 259.8 Q336.55 252.0 329.75 248.4 331.95 250.1 344.4 261.7 L345.65 262.7 345.55 262.8 343.0 266.2 340.75 266.05 Q340.6 266.85 340.6 268.0 L341.0 268.8 336.7 273.95 336.35 273.9 335.9 274.35 335.55 274.25 334.8 274.4 334.1 274.3 334.05 274.2 333.65 274.2 322.95 274.3 Q321.1 272.25 318.65 272.25 314.8 272.25 313.8 273.25 L312.3 274.25 310.4 273.25 Q308.35 272.25 307.3 272.25 306.7 272.25 305.8 272.85 304.9 273.4 304.25 273.4 299.45 273.4 297.3 274.45 L291.45 274.5 Q290.35 273.4 287.75 273.4 284.3 273.4 282.7 274.55 L279.05 274.55 277.9 274.6 272.75 274.6 272.55 274.35 Q271.05 272.25 266.85 272.25 264.6 272.25 259.25 274.6 L238.55 274.6 237.25 274.45 Q237.05 273.0 236.6 272.55 236.0 272.0 234.65 271.75 L234.75 270.75 234.5 269.0 Q234.85 265.35 234.7 263.7 L234.65 263.2 Q240.3 262.85 249.95 261.05 L262.75 258.5 262.55 258.25 248.85 259.3 234.5 260.05 234.5 258.7 234.55 253.5 234.2 241.25 234.15 240.65 233.15 240.65 231.6 240.35 207.05 240.35 206.6 239.4 Q205.3 236.0 202.55 238.45 L200.8 240.35 198.65 240.35 198.4 239.85 Q197.65 238.35 195.4 238.35 194.25 238.35 192.0 240.35 L183.75 240.35 Q178.35 240.7 175.8 241.55 L174.55 243.35 174.35 243.7 173.5 244.9 173.4 245.0 172.8 245.8 170.55 248.3 168.15 251.45 168.05 251.6 167.05 253.0 165.7 254.65 161.4 260.35 161.1 260.35 Q156.35 260.6 156.35 264.75 L156.8 266.45 150.7 273.95 150.3 273.9 149.85 274.35 149.55 274.25 148.75 274.4 148.0 274.3 148.0 274.2 147.6 274.2 136.6 274.3 Q133.1 272.65 132.0 272.65 130.3 272.65 129.5 273.6 L128.25 274.35 124.9 274.35 Q123.8 274.0 122.95 273.15 121.6 271.75 120.35 271.75 119.65 271.75 116.95 273.3 L115.25 274.4 93.0 274.55 92.75 274.55 91.85 274.6 83.55 274.6 83.45 274.45 83.25 274.05 Q81.4 273.3 79.7 274.55 L79.65 274.6 77.9 274.6 77.6 274.6 52.55 274.6 Q51.25 274.55 50.6 274.2 L50.4 274.2 49.1 274.1 48.55 274.0 Q48.45 274.05 48.45 273.1 L48.75 270.75 48.45 269.0 Q48.8 265.35 48.65 263.7 48.5 261.7 48.5 258.7 L48.55 253.5 48.1 241.25 48.05 240.65 47.15 240.65 45.55 240.35 -2.3 240.35 Q-7.7 240.7 -10.3 241.55 L-11.5 243.35 -11.75 243.7 -11.95 244.0 -12.5 244.9 -12.75 245.15 -13.25 245.8 -15.55 248.3 -17.9 251.45 -18.45 252.25 -21.3 252.4 Q-23.55 253.2 -24.15 255.2 -24.7 256.95 -23.6 259.0 L-24.95 260.75 -25.4 261.35 -29.55 262.15 Q-30.65 262.45 -30.65 265.0 -30.65 265.7 -29.7 266.9 L-35.35 273.95 -35.7 273.9 -36.2 274.35 -36.55 274.25 -37.25 274.4 -37.75 274.4 -38.05 274.3 -38.05 274.2 -38.45 274.2 -93.1 274.55 -93.3 274.55 -94.2 274.6 -96.9 274.6 Q-97.45 273.2 -97.3 272.65 -97.8 272.65 -100.25 273.95 L-101.4 274.6 -116.1 274.6 -116.1 202.55 -106.1 202.5 -102.1 202.65 -100.9 202.75 Q-100.25 202.9 -100.0 203.2 -98.8 203.45 -98.55 205.35 -98.4 207.3 -98.5 211.35 L-98.3 222.35 -98.45 222.4 -107.5 227.0 -98.25 224.7 -98.2 236.35 -87.65 236.35 Q-85.4 239.65 -82.5 239.65 -79.75 239.65 -76.1 237.2 L-74.65 236.3 -53.25 236.2 -52.2 236.0 -51.3 235.4 -51.25 235.4 -50.95 235.6 -49.9 234.15 -46.85 230.25 -44.5 230.35 Q-42.5 230.25 -42.5 228.0 -42.5 226.65 -43.25 225.6 L-42.05 224.05 -39.0 223.15 Q-37.25 222.7 -37.25 221.8 L-37.35 220.4 -39.25 220.5 -30.7 210.05 -29.55 208.65 -29.5 208.45 -29.45 208.45 Q-29.1 207.3 -26.95 205.7 L-25.55 204.15 -24.55 203.5 -24.5 203.4 -22.95 202.9 -22.9 202.9 -22.8 202.95 Q-22.55 203.05 -22.25 203.3 L-20.5 202.95 -20.4 202.95 -18.2 202.95 -0.55 203.0 -0.55 203.05 1.3 203.05 1.15 203.15 Q-4.15 207.1 -6.4 210.0 -1.95 208.95 3.25 205.85 5.75 204.4 7.2 203.05 L30.35 203.05 31.95 202.75 55.6 202.7 56.35 203.45 Q58.9 205.85 61.55 205.85 L63.5 205.35 Q64.55 204.75 64.55 203.6 64.55 202.85 64.35 202.6 L64.3 202.5 65.25 202.45 68.5 202.65 82.3 202.5 85.15 202.75 Q85.8 202.9 86.1 203.2 87.25 203.45 87.5 205.35 87.7 207.3 87.55 211.35 L87.8 221.85 Q85.75 222.65 82.35 225.6 L74.55 232.5 Q69.7 236.7 66.75 238.35 L68.0 238.5 75.0 233.4 79.4 230.5 Q80.6 230.5 82.05 231.25 83.2 231.25 84.5 227.75 85.35 225.45 87.85 225.35 L87.9 236.35 89.15 236.35 Q89.45 237.25 90.75 237.25 L92.0 236.35 122.5 236.25 122.55 236.65 Q123.1 238.35 124.5 238.35 L125.5 238.1 125.9 237.05 125.3 236.25 132.8 236.2 133.9 236.0 134.75 235.4 135.05 235.6 Q137.4 232.25 145.3 222.35 151.65 214.35 156.55 208.65 L156.6 208.45 156.65 208.45 Q156.95 207.3 159.1 205.7 L160.5 204.15 161.55 203.5 161.6 203.4 163.1 202.9 163.15 202.9 163.75 203.3 165.6 202.95 203.8 203.05 195.65 207.15 195.9 207.4 202.25 205.5 Q206.5 205.5 211.95 203.05 L216.45 203.05 218.0 202.75 248.4 202.7 248.4 202.75 248.7 202.75 251.35 202.45 254.55 202.65 268.35 202.5 271.2 202.75 Q271.8 202.9 272.15 203.2 273.3 203.45 273.5 205.35 273.75 207.3 273.6 211.35 L273.8 222.7 273.95 236.35 299.25 236.3 299.1 237.75 Q299.1 238.7 299.35 239.1 299.9 240.0 301.65 240.0 303.25 240.0 305.6 237.75 L307.0 236.25 318.8 236.2 319.9 236.0 320.8 235.4 321.1 235.6 326.05 229.05 Q330.65 228.6 331.95 227.5 333.0 226.6 332.75 224.75 331.5 224.15 329.95 224.05 L331.3 222.35 334.45 218.5 342.1 217.8 Q347.0 217.05 348.85 216.15 345.0 214.85 339.6 215.2 L336.9 215.5 342.6 208.65 342.6 208.45 342.65 208.4 Q343.05 207.3 345.15 205.7 L346.55 204.15 347.6 203.5 347.65 203.4 349.15 202.9 349.85 203.3 351.6 202.95 372.2 203.0 372.75 203.4 Q375.2 205.1 378.5 205.1 L380.3 204.8 376.75 203.0 402.45 203.05 404.05 202.75 408.5 202.75 M425.75 203.3 L425.75 202.75 440.2 202.7 Q439.75 206.75 439.95 211.4 439.95 220.3 440.5 222.45 440.85 223.9 441.5 225.35 L441.5 274.6 432.6 274.6 Q434.0 273.15 434.0 272.4 434.0 271.6 433.7 271.55 L433.4 271.6 431.05 273.05 Q429.65 274.1 429.45 274.6 L424.6 274.6 422.65 274.2 422.5 274.2 421.15 274.1 420.65 274.0 Q420.55 274.05 420.55 273.1 L420.85 270.75 420.55 269.0 Q420.85 265.35 420.75 263.7 420.6 261.7 420.6 258.7 L420.65 253.5 420.2 241.25 420.15 240.65 419.2 240.65 417.6 240.35 406.2 240.35 406.3 240.25 Q407.8 238.7 409.25 238.35 L408.5 238.1 407.9 238.0 407.9 238.1 Q405.9 237.5 404.1 238.85 403.1 239.6 402.75 240.35 L395.3 240.35 Q395.8 239.6 395.7 238.65 395.5 236.6 396.05 235.9 L400.0 230.4 403.5 224.4 Q405.6 220.65 410.45 213.8 414.15 207.85 413.5 203.65 L415.2 202.8 415.3 202.75 419.6 202.75 419.95 203.4 Q421.15 205.5 423.1 205.5 L424.95 205.15 Q425.75 204.65 425.75 203.3 M425.85 174.85 L427.0 175.0 Q427.85 175.0 428.65 174.35 429.6 173.55 430.3 173.35 429.4 172.7 427.45 172.5 425.15 172.25 425.15 173.55 425.15 174.8 425.3 174.35 L425.85 174.85 M427.75 146.0 Q428.15 146.45 429.05 146.7 430.2 145.95 431.35 145.5 L430.8 145.05 430.3 144.85 429.0 145.05 427.75 146.0 M347.5 204.2 L347.5 204.05 347.35 204.25 347.5 204.2 M58.05 179.95 L59.0 180.05 Q62.1 177.95 62.1 176.95 62.1 176.15 61.85 176.1 L61.6 176.2 Q60.65 176.2 59.15 177.1 57.6 178.05 57.6 178.8 L57.7 179.65 58.0 179.8 58.05 179.95 M56.15 152.45 L57.15 153.1 59.5 151.55 57.75 150.5 Q56.85 151.05 56.15 152.45 M27.05 137.35 L28.3 137.6 Q28.5 137.6 29.35 137.0 L30.75 135.85 30.5 134.95 Q29.65 134.95 28.25 135.65 L26.5 136.85 27.05 137.35 M8.0 121.45 Q6.15 122.2 4.85 123.45 L5.45 123.9 6.65 124.1 Q7.95 124.1 9.25 123.0 L11.55 121.25 8.0 121.45 M51.6 125.05 Q51.3 125.1 49.25 126.25 L49.5 126.7 Q50.1 127.3 51.5 127.3 53.25 127.3 53.65 126.75 L54.25 125.1 51.6 125.05 M289.55 155.05 L287.1 155.2 287.1 155.95 287.25 156.15 288.35 156.3 290.6 155.85 292.1 155.3 289.55 155.05 M247.75 140.85 L248.15 140.85 250.45 140.35 252.3 140.2 252.3 139.55 Q249.3 138.65 248.3 139.55 L247.75 140.85 M186.05 121.1 Q184.0 121.4 183.15 122.1 L183.3 122.7 Q184.35 123.45 185.85 123.45 187.65 123.45 188.05 122.9 L188.85 121.0 188.5 121.0 186.05 121.1 M234.3 122.4 L235.35 122.55 236.3 122.3 Q236.6 121.7 237.3 121.25 L237.05 120.85 Q236.05 120.15 235.1 120.5 234.25 120.85 233.8 121.95 L234.3 122.4 M161.5 113.4 L161.5 113.25 161.35 113.45 161.5 113.4 M159.55 171.7 L159.8 171.7 158.2 173.8 158.15 173.6 Q158.15 173.15 158.7 172.55 L159.55 171.7 M154.7 155.95 Q154.25 156.25 153.35 157.45 L153.7 157.95 154.65 158.1 Q156.35 158.1 157.0 157.25 L157.5 155.8 154.7 155.95 M121.15 155.75 Q121.15 157.0 121.4 156.3 L121.9 156.8 123.0 156.95 Q124.25 156.95 124.6 156.55 L125.0 155.2 124.55 154.7 124.5 154.5 122.25 154.55 Q121.15 154.8 121.15 155.75 M161.5 204.2 L161.5 204.05 161.35 204.25 161.5 204.2 M-101.1 159.3 L-100.4 157.6 -103.25 157.85 Q-105.25 158.25 -105.25 159.3 -105.25 160.05 -105.05 160.15 L-104.9 160.3 -103.4 160.55 Q-101.8 160.55 -101.1 159.3 M-89.6 165.35 L-93.4 165.2 Q-95.25 165.8 -95.25 166.55 -95.25 167.8 -95.0 167.2 L-94.4 167.45 -93.35 167.5 Q-91.65 167.5 -90.55 166.5 L-89.6 165.35 M188.85 211.8 L188.5 211.8 186.05 211.9 Q184.0 212.2 183.15 212.9 L183.3 213.5 Q184.35 214.25 185.85 214.25 187.65 214.25 188.05 213.7 L188.85 211.8 M237.05 211.65 Q236.05 210.95 235.1 211.3 234.25 211.65 233.8 212.75 L234.3 213.2 235.35 213.35 236.3 213.1 Q236.6 212.5 237.3 212.05 L237.05 211.65 M248.15 231.65 L250.45 231.15 252.3 231.0 252.3 230.35 Q249.3 229.45 248.3 230.35 L247.75 231.65 248.15 231.65 M287.1 246.75 L287.25 246.95 288.35 247.1 290.6 246.65 292.1 246.1 289.55 245.85 287.1 246.0 287.1 246.75 M62.1 267.75 Q62.1 266.95 61.85 266.9 L61.6 267.0 Q60.65 267.0 59.15 267.9 57.6 268.85 57.6 269.6 L57.7 270.45 58.0 270.6 58.05 270.75 59.0 270.85 Q62.1 268.75 62.1 267.75 M28.3 228.4 Q28.5 228.4 29.35 227.8 L30.75 226.65 30.5 225.75 Q29.65 225.75 28.25 226.45 L26.5 227.65 27.05 228.15 28.3 228.4 M8.0 212.25 Q6.15 213.0 4.85 214.25 L5.45 214.7 6.65 214.9 Q7.95 214.9 9.25 213.8 L11.55 212.05 8.0 212.25 M56.15 243.25 L57.15 243.9 59.5 242.35 57.75 241.3 Q56.85 241.85 56.15 243.25 M51.5 218.1 Q53.25 218.1 53.65 217.55 L54.25 215.9 51.6 215.85 Q51.3 215.9 49.25 217.05 L49.5 217.5 Q50.1 218.1 51.5 218.1 M158.15 264.4 Q158.15 263.95 158.7 263.35 L159.55 262.5 159.8 262.5 158.2 264.6 158.15 264.4 M157.5 246.6 L154.7 246.75 Q154.25 247.05 153.35 248.25 L153.7 248.75 154.65 248.9 Q156.35 248.9 157.0 248.05 L157.5 246.6 M124.5 245.3 L122.25 245.35 Q121.15 245.6 121.15 246.55 121.15 247.8 121.4 247.1 L121.9 247.6 123.0 247.75 Q124.25 247.75 124.6 247.35 L125.0 246.0 124.55 245.5 124.5 245.3 M-24.55 113.25 L-24.7 113.45 -24.55 113.4 -24.55 113.25 M-62.75 176.2 L-65.3 176.45 Q-66.6 176.75 -66.85 177.2 L-66.75 177.6 -66.2 178.0 -65.0 178.1 Q-64.4 178.1 -62.6 176.75 L-62.75 176.2 M-45.05 166.0 L-44.8 166.35 Q-44.55 166.65 -43.75 166.95 L-42.0 167.2 -40.75 167.1 -40.3 166.95 -40.05 165.85 -40.3 165.1 -43.35 165.05 -45.05 166.0 M-35.55 142.5 Q-34.75 142.5 -33.95 142.1 L-32.85 141.35 -33.1 140.95 Q-34.15 140.35 -35.55 140.45 -37.25 140.65 -38.9 142.0 -38.45 142.5 -35.55 142.5 M-24.55 204.2 L-24.55 204.05 -24.7 204.25 -24.55 204.2 M-89.6 256.15 L-93.4 256.0 Q-95.25 256.6 -95.25 257.35 -95.25 258.6 -95.0 258.0 L-94.4 258.25 -93.35 258.3 Q-91.65 258.3 -90.55 257.3 L-89.6 256.15 M-101.1 250.1 L-100.4 248.4 -103.25 248.65 Q-105.25 249.05 -105.25 250.1 -105.25 250.85 -105.05 250.95 L-104.9 251.1 -103.4 251.35 Q-101.8 251.35 -101.1 250.1 M-66.2 268.8 L-65.0 268.9 Q-64.4 268.9 -62.6 267.55 L-62.75 267.0 -65.3 267.25 Q-66.6 267.55 -66.85 268.0 L-66.75 268.4 -66.2 268.8 M-44.8 257.15 Q-44.55 257.45 -43.75 257.75 L-42.0 258.0 -40.75 257.9 -40.3 257.75 -40.05 256.65 -40.3 255.9 -43.35 255.85 -45.05 256.8 -44.8 257.15 M-35.55 233.3 Q-34.75 233.3 -33.95 232.9 L-32.85 232.15 -33.1 231.75 Q-34.15 231.15 -35.55 231.25 -37.25 231.45 -38.9 232.8 -38.45 233.3 -35.55 233.3" fill="#aa984f" fill-opacity="0.22352941" fill-rule="evenodd" stroke="none"/>
  </g>
</svg>
