<?xml version="1.0" encoding="UTF-8" standalone="no"?>
<svg xmlns:ffdec="https://www.free-decompiler.com/flash" xmlns:xlink="http://www.w3.org/1999/xlink" ffdec:objectType="shape" height="1585.15px" width="5144.8px" xmlns="http://www.w3.org/2000/svg">
  <g transform="matrix(1.0, 0.0, 0.0, 1.0, 122.4, 1382.55)">
    <path d="M160.15 200.1 L1960.05 200.1 3760.05 200.1 3760.0 -580.0 3380.0 -540.0 3160.0 -580.0 2540.0 -500.0 2200.0 -500.0 1680.0 -400.0 900.0 -300.0 580.0 -300.0 440.0 -360.0 340.0 -380.0 340.0 -960.0 M4420.0 -1380.05 L4420.0 200.1 5019.9 200.1 5019.9 -1380.05 M3760.05 200.1 L4420.0 200.1 M160.15 200.1 L-119.9 200.1 -119.9 -939.85" fill="none" stroke="#00ffff" stroke-linecap="round" stroke-linejoin="round" stroke-width="5.0"/>
    <path d="M160.15 -939.85 L160.15 -1100.0 M160.15 200.1 L160.15 -160.1" fill="none" stroke="#ffff00" stroke-linecap="round" stroke-linejoin="round" stroke-width="5.0"/>
    <path d="M140.0 -160.0 L160.0 -160.0 920.0 -160.0 2340.0 -300.0 5000.0 -300.0" fill="none" stroke="#666666" stroke-linecap="round" stroke-linejoin="round" stroke-width="5.0"/>
    <path d="M160.0 -160.0 L160.0 -940.0" fill="none" stroke="#ffff00" stroke-linecap="round" stroke-linejoin="round" stroke-width="5.0"/>
  </g>
</svg>
