<?xml version="1.0" encoding="UTF-8" standalone="no"?>
<svg xmlns:ffdec="https://www.free-decompiler.com/flash" xmlns:xlink="http://www.w3.org/1999/xlink" ffdec:objectType="shape" height="46.9px" width="43.3px" xmlns="http://www.w3.org/2000/svg">
  <g transform="matrix(1.0, 0.0, 0.0, 1.0, 26.05, 27.9)">
    <path d="M6.6 -26.9 Q6.45 -26.55 6.0 -26.4 5.75 -26.6 5.55 -27.0 5.35 -27.3 5.35 -27.45 5.35 -28.05 6.0 -27.9 6.65 -27.75 6.65 -27.25 L6.6 -26.9 M3.5 -12.8 Q6.9 -12.8 10.9 -9.15 14.45 -5.85 14.45 -4.35 L14.25 -3.4 Q14.0 -2.65 14.0 -2.4 14.0 -1.9 15.65 -0.2 17.25 1.45 17.25 3.4 17.25 4.95 16.4 7.55 15.1 11.3 12.95 11.3 12.7 11.3 12.5 11.15 12.0 11.85 11.0 11.85 9.9 11.85 9.5 10.35 L9.35 8.95 Q8.75 9.55 8.05 10.7 6.45 13.2 5.1 13.2 4.35 13.2 3.7 12.1 3.15 11.0 3.1 11.0 L0.75 11.2 0.6 11.6 Q1.3 11.65 1.85 11.95 2.15 11.65 2.7 11.6 3.85 11.6 3.85 12.8 3.85 13.25 3.6 13.6 L3.3 13.9 3.35 14.25 Q3.35 15.2 2.9 16.75 2.25 18.8 1.3 18.8 -0.25 18.8 -1.45 16.65 L-1.6 16.35 Q-3.45 18.65 -6.65 18.7 -6.3 18.7 -6.45 18.9 -6.65 19.15 -6.65 18.7 -6.65 19.5 -10.5 15.85 -14.35 12.2 -14.35 11.8 -14.35 10.8 -13.4 9.65 -12.25 8.3 -10.7 8.3 -10.0 8.3 -9.0 9.25 -7.95 10.1 -7.6 10.1 -5.9 9.55 -5.55 8.65 -6.15 8.0 -8.65 8.0 L-12.3 7.8 Q-13.25 7.5 -13.5 6.6 -13.8 5.4 -14.15 5.1 -14.65 4.6 -16.45 4.15 -18.0 3.7 -18.45 2.7 L-19.1 1.15 -19.2 0.1 Q-19.2 -1.3 -18.4 -5.05 -17.55 -9.2 -16.85 -10.0 L-15.25 -10.0 Q-14.5 -9.4 -13.5 -5.95 -12.7 -3.1 -11.1 -3.1 -10.85 -3.1 -8.2 -5.85 -5.6 -8.65 -4.45 -8.65 -3.4 -8.65 -2.95 -8.15 L-2.75 -7.65 Q-2.75 -7.05 -3.85 -5.45 -5.0 -3.9 -5.0 -3.55 -5.0 -1.25 -4.45 0.4 -3.55 3.35 -1.1 3.35 3.55 3.35 5.1 1.0 5.85 -0.1 5.85 -2.05 5.85 -4.9 3.3 -6.7 L1.5 -7.9 Q0.7 -8.6 0.7 -9.35 0.7 -10.5 1.2 -11.4 1.9 -12.8 3.5 -12.8 M1.65 14.35 Q1.1 13.8 0.5 13.55 L-0.05 13.4 -0.6 14.65 0.05 15.65 0.95 16.8 Q1.25 16.5 1.45 15.55 L1.65 14.35 M-8.8 -22.05 L-8.8 -21.65 Q-8.8 -20.9 -8.9 -20.55 -9.1 -20.0 -9.7 -20.0 -10.45 -20.0 -10.6 -20.45 -10.65 -20.65 -10.6 -20.95 -10.6 -21.5 -10.3 -21.9 -9.85 -22.5 -8.9 -22.1 L-8.8 -22.05 M-23.15 -17.05 L-23.15 -17.7 Q-23.15 -19.1 -21.9 -19.25 -20.7 -19.45 -20.7 -18.25 -20.7 -17.85 -21.2 -17.2 -21.75 -16.5 -22.35 -16.5 -23.0 -16.5 -23.15 -17.05 M-22.9 -3.1 Q-22.9 -2.55 -23.2 -2.05 -23.6 -1.25 -24.5 -1.25 -25.4 -1.25 -25.8 -2.05 -26.05 -2.55 -26.05 -2.95 -26.05 -4.6 -24.5 -4.75 -22.9 -4.9 -22.9 -3.1 M-9.95 -8.65 Q-9.95 -10.7 -8.05 -10.8 -7.3 -10.85 -6.75 -10.4 -6.15 -9.95 -6.15 -9.25 -6.15 -8.6 -6.85 -7.75 -7.55 -6.85 -8.3 -6.85 -9.15 -6.85 -9.6 -7.7 -9.95 -8.3 -9.95 -8.65 M-14.45 10.35 Q-15.25 11.4 -16.4 11.4 -17.55 11.4 -17.8 10.25 L-17.85 9.1 Q-17.85 7.4 -15.75 6.95 -14.9 6.75 -14.35 7.1 -13.7 7.4 -13.7 8.2 -13.7 9.4 -14.45 10.35" fill="#ffdc45" fill-opacity="0.9019608" fill-rule="evenodd" stroke="none"/>
    <path d="M6.2 -26.8 L5.9 -26.55 5.7 -26.6 Q5.6 -26.65 5.6 -27.0 5.6 -27.3 5.75 -27.4 6.0 -27.55 6.4 -27.2 6.4 -27.0 6.2 -26.8 M2.7 -8.7 Q2.45 -9.1 2.3 -9.75 2.3 -10.9 3.95 -10.9 4.3 -10.9 7.0 -9.8 9.5 -8.8 10.45 -8.3 11.9 -7.55 12.65 -6.35 13.2 -5.45 13.2 -4.6 13.2 -3.95 13.0 -3.45 L13.05 -3.45 Q12.5 -2.35 12.5 -1.65 12.5 -0.8 14.15 0.6 15.8 1.95 15.8 3.9 15.8 5.1 15.4 6.2 15.0 7.2 14.0 8.85 L13.75 8.95 13.7 8.65 13.8 8.45 Q13.4 8.7 13.0 8.7 12.8 8.7 11.7 7.4 10.65 6.0 10.3 6.0 9.3 6.0 8.8 6.75 8.45 7.8 7.8 8.95 6.5 11.2 4.95 11.2 4.75 11.2 3.0 10.15 1.25 9.05 0.85 9.05 L-0.65 9.1 Q-1.45 9.75 -1.95 13.15 -3.0 16.2 -6.7 16.2 -9.3 16.2 -10.35 14.8 L-10.4 14.45 -10.35 14.25 -9.95 14.2 -9.95 14.05 Q-9.95 13.1 -9.05 12.5 -8.6 12.2 -7.05 11.55 -4.15 10.35 -4.15 8.4 -4.15 7.35 -5.0 6.8 -5.6 6.4 -6.25 6.4 -6.45 6.4 -6.8 6.65 -7.2 7.0 -7.5 7.1 L-9.35 7.1 Q-10.55 6.75 -11.25 5.95 -11.85 5.3 -11.85 4.75 L-11.7 3.85 Q-12.1 3.65 -13.1 3.35 -14.35 2.9 -15.65 1.85 -16.8 0.95 -16.9 0.25 L-16.8 -1.35 -16.75 -2.5 Q-16.55 -3.7 -15.95 -3.7 -15.35 -3.7 -14.2 -2.1 -13.0 -0.55 -11.85 -0.55 -11.2 -0.55 -10.8 -1.25 L-10.0 -3.05 Q-8.6 -5.95 -4.85 -7.5 L-4.75 -7.35 Q-5.95 -5.7 -6.35 -4.15 L-6.6 -3.2 -6.7 -2.25 Q-6.7 0.0 -5.35 2.1 -3.55 4.85 -0.4 4.85 4.1 4.85 5.85 1.25 6.75 -0.65 6.75 -3.2 6.75 -5.1 6.25 -6.1 5.55 -7.4 3.9 -8.15 L3.65 -8.15 Q3.1 -8.15 2.75 -8.6 L2.3 -8.7 2.7 -8.7 M9.95 9.1 Q9.95 8.2 11.0 8.45 12.05 8.65 12.05 9.9 12.05 10.95 11.4 10.95 10.8 10.95 10.35 9.95 L9.95 9.1 M2.9 13.2 L2.3 13.25 Q2.15 13.05 2.15 12.85 L2.95 12.9 2.9 13.2 M2.05 16.65 Q1.7 17.15 1.1 17.15 -0.2 17.15 -0.65 15.95 -0.9 15.35 -0.9 14.55 -0.9 13.6 -0.4 13.2 0.05 12.85 0.7 13.05 2.3 13.6 2.3 15.5 2.3 16.2 2.05 16.65 M-22.55 -17.1 Q-22.55 -17.35 -22.2 -17.65 -21.75 -18.0 -21.3 -17.8 -21.3 -17.15 -21.9 -16.65 L-22.35 -16.65 -22.45 -16.7 -22.55 -17.1 M-24.0 -3.45 L-23.95 -2.75 Q-23.95 -2.15 -24.75 -2.0 -25.35 -2.0 -25.15 -2.15 L-25.2 -2.1 Q-25.3 -2.15 -25.3 -2.5 -25.3 -2.75 -24.9 -3.1 -24.4 -3.45 -24.0 -3.45 M-9.7 -20.35 L-9.95 -20.35 -10.0 -20.45 -10.05 -20.85 -10.05 -21.2 Q-10.05 -21.15 -10.0 -21.2 L-9.45 -21.2 -9.25 -21.05 -9.7 -20.35 M-9.05 -8.35 Q-9.05 -9.25 -8.15 -9.25 -7.25 -9.25 -7.25 -8.4 -7.25 -8.1 -7.6 -7.8 -7.95 -7.55 -8.15 -7.55 -8.8 -7.55 -9.0 -7.95 L-9.05 -8.35 M-14.6 -5.65 Q-14.75 -5.2 -15.65 -5.2 -16.65 -5.2 -16.85 -5.95 -16.95 -6.35 -16.85 -6.9 -16.85 -8.75 -15.7 -8.75 -14.5 -8.75 -14.5 -6.65 -14.5 -5.8 -14.6 -5.65 M-14.85 8.1 Q-14.8 8.3 -14.8 8.65 -14.8 9.1 -15.3 9.65 -15.85 10.15 -16.4 10.4 L-16.65 10.35 -16.95 10.1 -16.45 8.7 Q-16.05 7.7 -14.95 7.9 L-14.85 8.1 M-9.7 10.45 Q-9.7 10.95 -10.8 12.05 -12.0 13.2 -12.55 13.2 -13.5 13.2 -13.7 12.65 L-13.75 12.0 Q-13.75 10.5 -11.7 9.7 -9.7 8.9 -9.7 10.45" fill="#ffffff" fill-opacity="0.9019608" fill-rule="evenodd" stroke="none"/>
  </g>
</svg>
