<?xml version="1.0" encoding="UTF-8" standalone="no"?>
<svg xmlns:ffdec="https://www.free-decompiler.com/flash" xmlns:xlink="http://www.w3.org/1999/xlink" ffdec:objectType="shape" height="35.7px" width="32.85px" xmlns="http://www.w3.org/2000/svg">
  <g transform="matrix(1.0, 0.0, 0.0, 1.0, 9.8, 25.05)">
    <path d="M18.0 -19.7 L16.85 -20.85 17.0 -21.1 18.2 -19.85 Q19.2 -18.8 20.0 -17.6 L19.7 -17.6 Q18.95 -18.7 18.0 -19.7 M16.0 -21.6 L16.05 -21.85 16.35 -21.6 16.2 -21.5 16.0 -21.6 M15.4 -22.35 L15.2 -22.25 13.85 -23.05 13.95 -23.25 Q14.7 -22.85 15.4 -22.35 M-8.3 0.4 L-8.15 0.25 -8.0 0.65 -8.1 0.85 -8.3 0.4 M-7.05 2.8 L-6.8 2.8 -6.65 3.05 -6.95 3.05 -7.05 2.8 M-7.65 1.6 L-7.5 1.6 -7.25 2.05 -7.35 2.3 -7.75 1.6 -7.65 1.6 M-4.25 6.25 L-4.1 6.05 Q-3.1 7.0 -2.05 7.75 L-2.2 7.95 -4.25 6.25 M-4.6 5.5 L-4.8 5.7 -5.1 5.4 -6.5 3.6 -6.35 3.45 -4.95 5.2 -4.6 5.5 M-8.55 -0.75 L-8.75 -0.7 -8.9 -1.2 -8.8 -1.15 -8.7 -1.2 -8.55 -0.75 M-9.4 -3.1 L-9.2 -3.15 -8.95 -2.05 -9.15 -1.95 -9.4 -3.1 M-9.8 -6.75 L-9.6 -6.85 -9.4 -4.3 -9.6 -4.3 -9.8 -6.75 M-9.65 -9.75 L-9.55 -9.7 -9.45 -9.75 -9.6 -7.55 -9.8 -7.5 -9.65 -9.75 M-9.25 -10.95 L-9.3 -10.7 -9.55 -10.7 -9.45 -11.1 -9.25 -10.95 M-9.15 -11.45 L-9.35 -11.6 -9.2 -12.1 -9.05 -11.95 -9.15 -11.45 M-8.8 -13.6 L-8.65 -13.45 -8.85 -12.75 -9.0 -12.9 -8.8 -13.6 M-7.2 -17.05 L-7.05 -16.85 Q-7.85 -15.6 -8.35 -14.2 L-8.5 -14.4 Q-8.0 -15.75 -7.2 -17.05 M-5.6 -19.3 L-5.45 -19.1 -6.55 -17.6 -6.7 -17.8 -5.6 -19.3 M-4.95 -19.7 L-5.1 -19.85 -4.75 -20.2 -4.6 -20.0 -4.95 -19.7 M-0.55 -23.35 L-0.55 -23.1 -0.8 -22.9 -0.95 -23.15 -0.55 -23.35 M-1.7 -22.65 L-1.6 -22.45 Q-2.75 -21.75 -3.8 -20.8 L-3.95 -21.0 -1.7 -22.65 M7.55 10.6 L7.6 10.4 8.7 10.3 8.65 10.5 7.55 10.6 M5.1 10.45 L5.1 10.35 6.65 10.4 6.85 10.4 6.8 10.65 6.65 10.65 5.1 10.6 5.1 10.45 M2.5 10.1 L2.5 9.9 4.4 10.25 4.4 10.5 2.5 10.1 M0.15 9.05 L0.2 9.2 0.6 9.35 0.75 9.3 1.9 9.7 1.8 9.9 Q0.1 9.35 -1.45 8.4 L-1.35 8.2 0.15 9.05 M11.85 9.8 L11.8 9.55 11.9 9.5 11.95 9.75 11.85 9.8 M11.1 9.8 L11.15 10.0 9.65 10.35 9.6 10.15 11.1 9.8 M13.15 9.0 L13.15 9.2 12.85 9.35 12.8 9.15 13.15 9.0 M15.15 7.8 L15.25 8.05 14.2 8.7 14.1 8.45 15.15 7.8 M19.55 3.35 L19.8 3.4 19.3 4.15 18.95 4.15 19.55 3.35 M17.1 6.15 L18.0 5.2 18.8 4.3 18.8 4.35 18.85 4.65 18.2 5.4 17.25 6.4 17.1 6.15 M20.3 2.65 L20.05 2.6 20.65 1.6 20.8 1.85 20.3 2.7 20.3 2.65 M21.4 0.05 L21.65 0.15 21.15 1.2 21.0 0.95 21.4 0.05 M22.55 -2.7 L22.35 -2.9 Q22.75 -4.55 22.85 -6.35 L23.05 -6.35 Q22.95 -4.45 22.55 -2.7 M22.0 -0.75 L21.85 -0.75 21.7 -0.7 22.05 -1.7 22.25 -1.55 22.0 -0.75 M22.7 -9.65 L22.9 -9.7 23.05 -7.3 22.85 -7.25 22.7 -9.65 M22.35 -12.35 L22.75 -10.7 22.55 -10.7 22.2 -12.3 22.35 -12.35 M20.85 -15.7 L21.1 -15.7 Q21.7 -14.55 22.1 -13.3 L21.9 -13.25 Q21.45 -14.55 20.85 -15.7 M0.3 -23.5 L0.25 -23.7 1.2 -24.1 1.35 -23.9 0.3 -23.5 M2.6 -24.55 L2.65 -24.3 2.0 -24.15 1.9 -24.35 2.6 -24.55 M9.6 -24.55 L6.65 -24.8 3.4 -24.45 3.3 -24.7 6.65 -25.05 9.7 -24.75 9.6 -24.55 M20.75 -16.35 L20.5 -16.35 20.2 -16.85 20.5 -16.8 20.75 -16.35 M13.2 -23.6 L13.05 -23.45 Q11.85 -24.0 10.55 -24.35 L10.65 -24.55 Q11.95 -24.2 13.2 -23.6" fill="#ffdc45" fill-opacity="0.9019608" fill-rule="evenodd" stroke="none"/>
  </g>
</svg>
