<?xml version="1.0" encoding="UTF-8" standalone="no"?>
<svg xmlns:ffdec="https://www.free-decompiler.com/flash" xmlns:xlink="http://www.w3.org/1999/xlink" ffdec:objectType="shape" height="24.05px" width="28.35px" xmlns="http://www.w3.org/2000/svg">
  <g transform="matrix(1.0, 0.0, 0.0, 1.0, 13.45, 30.15)">
    <path d="M1.7 -27.0 L1.45 -25.6 Q1.35 -24.85 1.3 -24.15 1.4 -23.9 1.4 -23.55 L1.45 -23.5 Q1.45 -23.45 1.3 -23.4 L1.55 -23.0 Q0.9 -23.45 0.05 -24.15 -0.6 -24.6 -1.1 -24.6 -1.45 -24.6 -2.1 -24.3 -2.75 -24.0 -2.95 -24.0 L-3.55 -23.85 -4.15 -23.75 -4.3 -23.75 Q-7.8 -22.45 -7.8 -21.2 -7.7 -20.6 -7.25 -19.65 L-6.7 -18.8 -5.25 -17.05 -5.15 -17.0 -5.3 -16.9 -5.3 -16.85 -5.4 -16.8 Q-5.45 -16.45 -5.95 -16.3 -6.25 -16.2 -6.65 -16.2 -7.05 -16.2 -8.55 -17.0 -10.0 -17.75 -10.6 -17.7 -11.7 -17.65 -12.45 -18.2 -13.45 -18.95 -13.45 -20.4 -13.45 -22.9 -11.9 -24.3 -10.8 -25.25 -9.7 -25.25 L-8.4 -25.05 Q-7.3 -24.85 -6.85 -24.85 -5.45 -24.85 -4.9 -25.6 -4.55 -26.1 -4.5 -27.25 L-4.45 -28.0 Q-4.55 -28.4 -4.55 -28.55 -4.55 -29.55 -3.45 -29.95 -2.9 -30.15 -2.3 -30.15 -1.7 -30.15 -0.75 -29.75 0.25 -29.4 0.85 -28.95 1.45 -28.5 1.6 -28.05 1.75 -27.65 1.7 -27.0 M4.6 -22.6 L5.45 -22.65 Q6.2 -22.65 6.85 -22.4 7.9 -22.05 7.9 -21.2 7.9 -20.85 7.7 -20.55 L7.5 -20.25 Q7.5 -19.3 9.25 -18.8 L10.6 -18.55 Q11.35 -18.4 11.5 -18.3 12.65 -17.7 13.7 -16.45 14.9 -15.1 14.9 -14.15 14.9 -12.6 13.1 -11.5 12.7 -11.3 11.75 -10.8 11.0 -10.45 10.8 -10.25 10.45 -9.9 9.95 -8.7 9.4 -7.45 8.75 -6.8 8.2 -6.2 7.6 -6.1 L6.35 -6.1 Q4.9 -6.1 3.3 -6.9 L2.2 -7.45 Q1.55 -7.7 1.05 -7.7 0.85 -7.7 0.2 -7.5 -0.45 -7.25 -0.75 -7.25 -1.15 -7.25 -2.15 -7.65 -3.2 -8.05 -3.55 -8.4 -3.7 -8.6 -3.95 -9.5 -4.2 -10.55 -4.45 -12.3 -4.5 -12.55 -5.0 -13.45 -5.55 -14.3 -5.55 -14.35 -5.55 -15.55 -4.85 -16.2 -4.65 -16.4 -4.35 -16.5 L-4.1 -16.55 Q-3.95 -16.55 -3.85 -16.35 L-4.2 -15.75 Q-4.35 -15.5 -4.35 -15.25 -4.35 -14.65 -3.0 -12.9 -1.6 -11.1 -0.55 -10.45 -0.1 -10.2 1.3 -9.65 2.95 -9.0 3.4 -9.0 3.95 -9.0 4.75 -9.3 5.7 -9.6 6.1 -10.05 6.55 -10.6 6.6 -11.15 6.65 -11.4 6.55 -12.05 6.45 -12.6 6.55 -13.0 6.7 -13.55 7.35 -14.15 L8.4 -15.3 8.4 -15.85 8.45 -15.9 Q8.05 -18.2 6.55 -19.55 5.7 -20.35 4.8 -20.65 L3.65 -21.9 Q4.4 -22.5 4.6 -22.6 M-6.0 -17.0 L-6.0 -17.0" fill="#ffffff" fill-opacity="0.7529412" fill-rule="evenodd" stroke="none"/>
  </g>
</svg>
