<?xml version="1.0" encoding="UTF-8" standalone="no"?>
<svg xmlns:ffdec="https://www.free-decompiler.com/flash" xmlns:xlink="http://www.w3.org/1999/xlink" ffdec:objectType="shape" height="35.1px" width="33.0px" xmlns="http://www.w3.org/2000/svg">
  <g transform="matrix(1.0, 0.0, 0.0, 1.0, 15.45, 35.7)">
    <path d="M3.05 -35.4 Q5.05 -34.85 5.15 -33.15 L4.5 -33.1 Q4.0 -33.1 1.15 -33.7 -1.95 -34.3 -1.95 -34.65 -1.95 -35.2 -0.95 -35.5 -0.5 -35.65 0.05 -35.7 2.05 -35.7 3.05 -35.4 M15.55 -27.6 Q16.6 -26.05 15.7 -24.25 15.4 -24.5 15.05 -25.2 L14.4 -26.65 Q14.3 -26.9 13.7 -27.7 13.15 -28.45 13.15 -28.5 13.15 -28.85 13.4 -28.9 L13.8 -28.9 Q14.1 -28.9 14.6 -28.55 15.15 -28.2 15.55 -27.6 M15.75 -14.7 Q15.75 -15.15 15.95 -15.4 L16.05 -15.5 16.75 -14.5 Q17.2 -13.75 17.4 -13.15 17.95 -11.4 16.5 -10.2 L14.8 -8.55 Q13.9 -7.75 13.2 -7.75 L12.9 -7.75 12.65 -7.85 Q13.35 -9.1 14.1 -9.85 L15.05 -10.75 Q15.45 -11.2 15.6 -11.9 15.75 -12.75 15.75 -14.7 M14.0 -4.75 Q14.0 -4.35 13.55 -3.8 13.05 -3.25 12.45 -2.85 11.7 -2.45 11.15 -2.45 10.7 -2.45 10.4 -2.55 L10.3 -2.55 Q10.25 -2.6 10.25 -2.85 L12.0 -4.0 Q13.65 -5.15 13.4 -5.15 14.0 -5.15 14.0 -4.75 M6.0 -3.35 Q5.55 -3.0 5.1 -3.0 4.9 -3.0 4.65 -3.15 L4.25 -3.35 Q4.5 -3.85 5.1 -3.95 L5.7 -4.0 Q6.05 -4.0 6.3 -4.1 6.45 -3.65 6.0 -3.35 M1.0 -2.95 L1.9 -2.7 Q2.7 -2.4 2.75 -2.35 L2.35 -2.1 Q2.45 -1.95 2.45 -1.85 L2.4 -1.85 2.25 -1.75 2.1 -1.95 0.95 -1.2 Q-0.1 -0.6 -0.9 -0.6 -1.25 -0.6 -2.2 -0.8 -3.35 -1.05 -4.35 -1.45 -7.3 -2.6 -7.3 -4.35 -7.3 -5.0 -6.95 -5.15 L-6.6 -5.15 Q-6.45 -5.15 -4.5 -4.05 -3.0 -3.25 -2.2 -2.95 L-2.35 -3.1 Q-2.8 -3.25 -3.1 -3.65 L-3.05 -3.8 -2.8 -3.85 -2.5 -3.8 -2.2 -3.85 Q-1.2 -3.85 0.55 -3.15 L1.0 -2.95 M-0.85 -33.4 Q-2.8 -32.75 -5.75 -31.45 L-8.3 -30.3 Q-8.5 -30.3 -8.7 -30.45 -8.9 -30.6 -8.9 -30.85 -8.9 -32.15 -6.85 -33.15 -5.85 -33.65 -4.8 -33.9 -4.15 -33.9 -2.6 -33.55 -1.3 -33.3 -0.85 -33.4 M-11.65 -28.8 Q-11.25 -29.25 -11.0 -29.25 L-10.6 -29.25 Q-10.8 -28.75 -11.85 -25.15 -12.9 -21.65 -13.15 -21.2 -13.4 -21.45 -13.4 -21.8 L-13.35 -22.25 -13.45 -21.9 -13.5 -21.85 -13.95 -19.85 Q-14.05 -19.35 -14.2 -19.15 -14.35 -18.95 -14.65 -18.95 -14.95 -18.95 -15.2 -19.4 -15.45 -19.9 -15.45 -20.4 -15.45 -21.35 -14.9 -22.8 -14.3 -25.2 -13.55 -26.7 -12.65 -28.45 -11.65 -28.8 M-6.1 -30.1 L-4.65 -30.1 Q-4.7 -29.6 -6.15 -28.9 -7.15 -28.4 -8.7 -27.9 L-8.75 -27.95 Q-8.8 -28.05 -8.8 -28.25 -8.8 -28.8 -7.55 -29.5 L-6.1 -30.1 M-6.9 -8.4 L-6.65 -8.4 Q-6.25 -8.4 -5.65 -7.8 -5.1 -7.25 -5.0 -7.0 -5.05 -6.95 -5.05 -6.85 L-5.3 -6.85 Q-5.55 -6.85 -6.2 -7.5 L-6.95 -8.3 -6.9 -8.4 M-9.4 -7.8 Q-8.75 -7.1 -8.75 -6.7 -8.8 -6.65 -8.75 -6.6 L-9.0 -6.55 Q-9.3 -6.55 -9.75 -7.15 -10.25 -7.8 -10.35 -8.45 L-10.4 -8.5 -10.15 -8.5 Q-9.95 -8.5 -9.4 -7.8 M-14.2 -15.25 L-14.25 -15.2 -14.45 -15.15 Q-14.7 -15.15 -14.8 -15.25 L-14.95 -15.4 -15.0 -16.35 Q-14.9 -16.75 -14.8 -16.8 -14.65 -16.6 -14.4 -16.05 -14.2 -15.5 -14.2 -15.25" fill="#ffffff" fill-opacity="0.7529412" fill-rule="evenodd" stroke="none"/>
  </g>
</svg>
