<?xml version="1.0" encoding="UTF-8" standalone="no"?>
<svg xmlns:ffdec="https://www.free-decompiler.com/flash" xmlns:xlink="http://www.w3.org/1999/xlink" ffdec:objectType="shape" height="30.85px" width="31.1px" xmlns="http://www.w3.org/2000/svg">
  <g transform="matrix(1.0, 0.0, 0.0, 1.0, 14.1, 33.05)">
    <path d="M10.05 -28.35 Q9.25 -29.2 7.15 -30.0 5.05 -30.8 3.7 -30.8 3.35 -30.8 2.1 -30.3 0.9 -29.75 0.85 -29.75 0.75 -29.75 0.6 -29.9 L0.3 -30.25 Q1.15 -31.0 2.55 -31.65 4.0 -32.35 4.65 -32.85 5.4 -33.45 7.25 -32.35 8.2 -31.7 8.6 -31.45 9.3 -31.05 9.55 -31.05 L10.45 -30.95 Q10.65 -30.95 12.0 -31.65 L13.3 -31.65 Q14.55 -30.95 15.2 -29.0 15.65 -27.6 15.65 -26.0 15.65 -25.8 15.4 -24.9 15.1 -24.05 15.1 -23.95 15.1 -21.3 16.05 -19.9 L16.7 -18.9 Q17.0 -18.25 17.0 -17.25 L16.9 -16.15 Q16.7 -14.9 16.45 -13.9 15.55 -10.7 13.95 -10.7 13.5 -10.7 13.05 -10.9 12.65 -11.15 12.55 -11.15 12.25 -11.15 10.45 -9.8 8.4 -8.35 7.7 -8.05 L7.1 -8.05 7.05 -8.1 Q7.0 -8.2 7.0 -8.4 7.0 -8.6 8.75 -10.7 10.55 -12.75 11.45 -13.65 12.25 -14.45 13.05 -16.4 13.75 -18.2 13.75 -19.1 13.75 -19.85 13.55 -20.75 L13.2 -22.35 Q13.1 -22.85 12.75 -23.2 L12.1 -23.7 Q11.65 -24.0 11.45 -24.25 11.15 -24.6 11.05 -25.15 L10.9 -26.8 Q10.7 -27.7 10.05 -28.35 M0.5 -5.3 Q0.65 -5.25 0.8 -5.25 1.15 -5.25 2.55 -5.8 L3.5 -6.15 Q3.95 -6.45 4.8 -6.5 4.85 -6.4 4.8 -6.25 L4.9 -6.15 4.7 -6.05 Q4.55 -5.85 4.25 -5.55 3.55 -4.85 3.45 -4.45 3.3 -3.95 2.9 -3.45 2.65 -3.15 2.35 -2.95 L2.15 -2.65 Q1.8 -2.2 1.0 -2.2 -0.65 -2.2 -1.4 -2.8 -1.85 -3.1 -2.05 -3.15 -2.5 -3.35 -3.3 -3.35 -5.2 -3.35 -6.5 -4.7 -7.45 -5.7 -8.3 -7.7 -9.05 -9.85 -9.45 -10.65 -10.05 -12.05 -10.7 -12.05 -10.95 -12.05 -11.45 -11.75 -11.9 -11.45 -12.35 -11.45 -13.1 -11.45 -13.65 -13.3 -13.95 -14.2 -14.1 -15.1 -14.1 -15.3 -13.95 -15.8 -13.8 -16.35 -13.8 -16.55 L-14.1 -19.15 Q-14.1 -19.25 -13.55 -19.8 -12.95 -20.4 -12.25 -20.95 -10.25 -22.6 -9.15 -22.2 L-9.1 -22.25 Q-9.05 -22.25 -9.05 -22.05 L-9.75 -21.15 Q-10.45 -20.3 -10.45 -19.9 L-10.35 -18.3 Q-10.25 -16.75 -10.25 -16.0 -10.25 -15.25 -9.3 -14.15 -8.1 -12.7 -7.9 -12.3 -7.0 -10.65 -5.8 -9.0 -3.35 -5.75 -1.5 -5.75 -0.3 -5.75 0.2 -5.5 L0.5 -5.3 M-2.5 -28.65 L-3.2 -28.75 Q-3.8 -28.75 -4.75 -28.2 L-5.55 -27.65 Q-6.65 -27.65 -7.0 -27.6 L-7.4 -27.55 -7.95 -26.3 Q-8.25 -25.7 -8.15 -25.3 L-8.35 -25.05 -8.55 -24.9 Q-8.7 -25.05 -8.8 -25.25 -9.4 -25.25 -9.55 -25.6 L-9.55 -26.15 Q-9.55 -27.0 -8.35 -28.65 -7.4 -29.95 -6.95 -30.3 -5.1 -31.6 -3.6 -30.9 -3.05 -30.65 -2.7 -30.15 -2.35 -29.75 -2.35 -29.35 -2.35 -28.7 -2.5 -28.65 M-6.75 -25.4 Q-6.5 -25.5 -5.7 -25.4 L-5.7 -25.35 Q-5.65 -25.3 -5.65 -25.1 -5.65 -24.9 -5.65 -24.85 L-5.7 -24.7 -5.9 -24.65 -6.3 -24.65 -6.9 -24.7 -6.9 -24.75 -6.95 -25.1 Q-6.95 -25.35 -6.75 -25.4" fill="#deffbd" fill-opacity="0.7529412" fill-rule="evenodd" stroke="none"/>
  </g>
</svg>
