<?xml version="1.0" encoding="UTF-8" standalone="no"?>
<svg xmlns:ffdec="https://www.free-decompiler.com/flash" xmlns:xlink="http://www.w3.org/1999/xlink" ffdec:objectType="shape" height="33.0px" width="36.0px" xmlns="http://www.w3.org/2000/svg">
  <g transform="matrix(1.0, 0.0, 0.0, 1.0, 16.8, 34.55)">
    <path d="M9.9 -33.15 Q9.95 -32.85 10.1 -32.7 10.05 -32.6 9.85 -32.55 L9.0 -33.35 Q8.4 -33.85 7.55 -34.2 7.55 -34.5 7.75 -34.55 9.5 -34.2 9.8 -33.65 9.9 -33.5 9.9 -33.15 M16.4 -30.4 L16.6 -30.3 16.45 -30.3 Q16.8 -29.7 16.8 -29.2 L16.8 -28.9 16.75 -28.8 Q15.85 -29.4 15.35 -30.8 L15.4 -30.9 Q16.0 -31.0 16.4 -30.4 M17.55 -16.7 Q17.55 -16.45 17.2 -15.85 L16.75 -15.0 16.4 -15.0 16.35 -15.05 16.35 -15.25 Q16.35 -15.55 16.6 -16.25 16.9 -17.0 17.1 -17.15 L17.45 -17.15 17.5 -17.0 Q17.55 -16.9 17.55 -16.7 M19.2 -16.85 Q19.2 -16.15 18.75 -15.0 18.25 -13.6 17.45 -13.35 17.5 -13.65 17.7 -14.35 17.95 -14.95 17.95 -15.3 17.95 -15.9 17.6 -17.0 L17.05 -18.65 Q17.75 -18.6 18.5 -17.9 19.2 -17.3 19.2 -16.85 M17.5 -11.65 Q16.55 -10.45 15.95 -10.55 L15.75 -10.55 Q15.7 -10.6 15.7 -10.8 15.7 -11.15 16.75 -12.3 17.75 -13.45 18.1 -13.5 L18.3 -13.4 Q18.35 -13.35 18.35 -13.1 18.35 -12.7 17.5 -11.65 M-7.45 -33.3 Q-7.45 -32.85 -8.85 -32.35 L-8.9 -32.3 Q-8.95 -32.25 -8.95 -32.5 -8.95 -32.85 -8.45 -33.2 -7.9 -33.6 -7.55 -33.5 L-7.5 -33.55 Q-7.45 -33.5 -7.45 -33.3 M-15.6 -21.0 Q-15.85 -20.6 -16.2 -20.4 L-16.25 -20.35 Q-16.3 -20.35 -16.3 -20.6 -16.3 -20.95 -16.0 -21.3 -15.65 -21.75 -15.3 -21.55 L-15.6 -21.0 M-15.95 -20.4 Q-15.9 -20.4 -15.9 -20.2 -15.9 -19.95 -16.0 -19.05 -16.1 -18.2 -16.2 -17.45 L-16.55 -17.3 Q-16.8 -17.8 -16.8 -18.45 -16.8 -19.15 -16.65 -19.65 -16.45 -20.35 -16.05 -20.45 L-15.95 -20.4 M-16.45 -18.9 Q-16.45 -19.1 -16.5 -19.15 L-16.5 -19.1 -16.55 -18.6 Q-16.45 -18.7 -16.45 -18.9 M-14.9 -12.05 Q-14.5 -11.65 -13.8 -10.6 -13.15 -9.5 -12.45 -8.95 L-12.5 -8.75 Q-12.55 -8.6 -12.8 -8.6 -13.8 -8.6 -14.45 -10.05 -14.9 -10.95 -15.05 -12.0 L-14.9 -12.05 M-2.35 -1.6 L-3.85 -1.75 Q-4.15 -2.1 -4.4 -2.3 L-3.45 -2.4 Q-2.05 -2.35 -0.95 -2.35 L-0.5 -1.95 -0.6 -1.7 Q-0.75 -1.55 -1.45 -1.55 L-2.35 -1.6 M-5.7 -2.5 L-6.05 -2.5 Q-6.5 -2.5 -7.8 -3.25 -8.85 -3.95 -9.25 -4.35 -8.8 -5.05 -7.25 -4.15 -6.65 -3.85 -6.1 -3.4 -5.65 -2.95 -5.55 -2.75 L-5.55 -2.6 Q-5.6 -2.55 -5.7 -2.5" fill="#deffbd" fill-opacity="0.7529412" fill-rule="evenodd" stroke="none"/>
    <path d="M5.15 -22.7 Q6.15 -22.7 6.4 -22.55 6.95 -22.2 7.0 -20.85 L7.05 -20.85 Q7.8 -20.15 9.0 -19.35 10.05 -18.65 10.6 -17.4 11.15 -16.25 11.1 -15.05 11.05 -13.8 10.5 -13.05 9.9 -12.2 8.9 -12.2 L7.0 -12.5 Q6.45 -12.5 6.1 -12.1 5.95 -11.95 5.5 -11.25 5.1 -10.65 4.7 -10.4 4.15 -10.0 3.35 -10.0 2.15 -10.0 1.4 -10.8 0.65 -11.85 0.0 -12.4 -0.15 -12.55 -0.7 -12.75 -1.5 -13.05 -1.75 -13.15 -3.1 -13.75 -3.1 -14.65 L-3.1 -15.6 Q-2.65 -16.15 -2.05 -16.6 -1.4 -17.15 -1.05 -17.15 -0.65 -17.15 -0.45 -16.4 L0.0 -15.1 Q0.2 -14.9 0.5 -14.75 L1.75 -14.65 Q2.75 -14.65 3.75 -15.05 5.2 -15.65 5.2 -16.85 5.2 -18.25 3.8 -19.4 L2.9 -20.25 Q2.45 -20.7 2.45 -21.2 2.45 -21.85 2.65 -21.95 L2.9 -22.0 3.0 -22.0 Q3.35 -22.2 3.85 -22.4 4.65 -22.7 5.15 -22.7 M1.4 -21.45 L1.15 -21.4 Q1.0 -21.4 0.65 -21.6 L-0.05 -22.05 Q-1.1 -22.65 -2.05 -22.65 -3.0 -22.65 -3.5 -22.5 -4.65 -22.2 -4.65 -21.2 -4.65 -20.15 -3.55 -19.05 L-3.4 -19.0 Q-2.7 -18.55 -2.3 -18.05 L-2.25 -18.0 -2.3 -17.95 -2.15 -17.75 -2.2 -17.65 -2.4 -17.65 -2.6 -17.7 -2.7 -17.55 Q-2.75 -17.55 -3.25 -17.8 -3.75 -18.05 -3.85 -18.05 -4.65 -18.05 -5.05 -17.7 -5.45 -17.4 -6.35 -17.4 -7.15 -17.4 -7.6 -17.6 -8.7 -18.1 -8.7 -19.55 -8.7 -20.85 -8.3 -21.45 -8.0 -21.85 -7.25 -22.05 -6.25 -22.35 -6.05 -22.45 -5.3 -22.85 -4.9 -23.75 -4.35 -25.0 -3.75 -26.35 -3.4 -27.1 -3.0 -27.25 -1.8 -27.7 -1.15 -27.7 1.55 -27.7 1.9 -25.3 2.1 -23.9 1.4 -21.55 L1.4 -21.45" fill="#00e616" fill-opacity="0.2509804" fill-rule="evenodd" stroke="none"/>
  </g>
</svg>
