<?xml version="1.0" encoding="UTF-8" standalone="no"?>
<svg xmlns:ffdec="https://www.free-decompiler.com/flash" xmlns:xlink="http://www.w3.org/1999/xlink" ffdec:objectType="shape" height="36.2px" width="33.05px" xmlns="http://www.w3.org/2000/svg">
  <g transform="matrix(1.0, 0.0, 0.0, 1.0, 15.5, 36.15)">
    <path d="M1.15 -36.05 L1.95 -36.15 2.95 -36.05 Q3.5 -35.95 3.55 -35.7 3.5 -35.7 3.4 -35.75 L3.05 -35.8 Q2.85 -35.8 2.85 -35.75 L3.0 -35.6 1.4 -35.55 Q0.65 -35.55 0.25 -35.7 L0.25 -35.95 1.15 -36.05 M4.8 -35.05 Q4.7 -34.8 4.5 -34.75 L4.0 -35.0 4.0 -34.95 Q3.95 -34.95 3.95 -35.2 3.95 -35.4 4.0 -35.4 L4.15 -35.45 Q4.35 -35.4 4.55 -35.25 4.75 -35.1 4.8 -35.05 M16.4 -27.75 Q16.7 -27.25 16.7 -26.75 16.4 -26.9 16.15 -27.3 15.85 -27.65 15.8 -27.75 L15.85 -27.9 15.75 -28.0 Q15.75 -28.15 15.95 -28.15 16.1 -28.15 16.4 -27.75 M16.2 -9.6 L16.5 -9.75 Q16.95 -10.0 17.25 -10.9 17.4 -10.8 17.55 -10.85 17.6 -10.35 16.95 -9.7 16.35 -9.15 16.1 -9.2 L16.0 -9.25 Q16.05 -9.5 16.2 -9.6 M1.35 -0.75 L1.35 -0.55 0.2 -0.15 Q-0.45 0.05 -0.85 0.05 -1.25 0.05 -2.0 -0.15 L-2.35 -0.25 -2.5 -0.25 Q-2.6 -0.25 -2.65 -0.35 L-2.6 -0.35 Q-2.85 -0.5 -2.95 -0.6 L-2.95 -0.7 Q-2.6 -0.6 -1.1 -0.7 L0.75 -0.8 1.35 -0.75 M14.15 -3.15 Q14.1 -2.85 13.6 -2.55 L12.8 -2.15 Q12.7 -2.15 12.65 -2.2 L12.75 -2.35 Q12.7 -2.4 12.7 -2.55 12.7 -2.8 13.1 -3.05 13.45 -3.3 13.65 -3.3 13.7 -3.15 13.65 -3.0 L14.0 -3.2 14.15 -3.15 M-6.0 -33.45 Q-6.65 -33.1 -8.05 -32.05 L-8.2 -32.1 Q-8.25 -32.15 -8.25 -32.4 -8.25 -33.55 -6.0 -33.55 L-6.0 -33.45 M-13.25 -27.95 L-13.05 -27.9 -12.9 -27.85 Q-13.05 -27.25 -13.55 -26.25 -14.05 -25.25 -14.2 -25.15 L-14.35 -25.15 Q-14.4 -25.2 -14.4 -25.4 -14.4 -25.9 -13.95 -26.8 -13.55 -27.75 -13.25 -27.95 M-14.85 -22.25 Q-14.8 -22.05 -14.8 -21.6 -14.85 -20.9 -14.85 -20.15 -14.85 -19.75 -14.95 -19.55 L-15.05 -19.5 Q-15.1 -19.5 -15.2 -19.95 L-15.25 -19.85 Q-15.25 -20.15 -15.4 -20.75 L-15.5 -21.5 Q-15.5 -21.8 -15.45 -22.1 -15.35 -22.4 -15.3 -22.45 L-15.25 -21.9 -15.05 -22.25 -14.85 -22.25 M-7.85 -29.4 L-7.95 -29.5 Q-7.35 -29.95 -7.15 -29.9 -7.1 -29.85 -7.1 -29.75 -7.35 -29.65 -7.75 -29.4 L-7.85 -29.4 M-1.6 -2.4 L-1.35 -2.4 Q-1.3 -2.4 -1.05 -2.25 L-0.9 -2.25 Q-0.65 -2.25 -0.35 -2.0 L0.0 -1.65 Q-0.05 -1.6 -0.25 -1.6 L-0.35 -1.6 -0.55 -1.55 Q-0.7 -1.55 -1.05 -1.8 -1.5 -2.05 -1.6 -2.3 L-1.6 -2.4 M-4.0 -1.3 Q-4.1 -1.2 -4.2 -1.2 L-4.05 -1.0 Q-4.0 -0.85 -4.1 -0.85 -4.5 -0.95 -5.1 -1.4 -5.8 -1.9 -6.05 -2.45 L-6.1 -2.5 -5.85 -2.5 Q-5.7 -2.5 -5.05 -2.05 -4.3 -1.5 -3.95 -1.45 -3.95 -1.35 -4.0 -1.3" fill="#00e616" fill-opacity="0.2509804" fill-rule="evenodd" stroke="none"/>
  </g>
</svg>
