<?xml version="1.0" encoding="UTF-8" standalone="no"?>
<svg xmlns:ffdec="https://www.free-decompiler.com/flash" xmlns:xlink="http://www.w3.org/1999/xlink" ffdec:objectType="shape" height="8.1px" width="9.35px" xmlns="http://www.w3.org/2000/svg">
  <g transform="matrix(1.0, 0.0, 0.0, 1.0, 4.55, 22.4)">
    <path d="M4.1 -20.5 Q4.8 -19.7 4.8 -18.9 4.8 -17.1 2.95 -15.8 2.2 -15.2 1.15 -14.9 0.9 -14.95 0.8 -15.05 0.9 -15.35 1.25 -16.1 1.45 -16.65 1.45 -17.0 1.45 -18.0 0.85 -18.25 0.5 -18.45 -0.45 -18.4 -1.35 -18.35 -1.75 -18.5 -2.3 -18.75 -2.3 -19.75 L-2.4 -20.05 -2.4 -20.55 Q-2.4 -21.3 -2.3 -21.4 -2.2 -21.5 -1.9 -21.5 -1.65 -21.55 -1.2 -21.5 -1.05 -21.65 -0.7 -21.9 -0.3 -22.2 0.15 -22.4 L2.45 -22.4 Q3.1 -21.55 4.1 -20.5 M0.25 -15.25 Q0.25 -14.85 -0.55 -14.55 -1.2 -14.3 -1.65 -14.3 -2.15 -14.3 -2.45 -14.65 -2.6 -14.85 -2.75 -15.45 -2.9 -16.0 -3.05 -16.2 L-3.25 -16.35 -3.5 -16.3 Q-4.2 -16.3 -4.4 -16.9 -4.55 -17.25 -4.55 -17.55 -4.55 -18.1 -4.15 -18.75 -3.8 -19.35 -3.4 -19.2 L-3.2 -19.3 Q-2.75 -19.5 -2.55 -19.2 -2.25 -18.9 -2.4 -18.05 -2.4 -17.25 -1.8 -16.35 -1.0 -15.25 0.15 -15.4 L0.2 -15.45 Q0.25 -15.45 0.25 -15.25" fill="#fcffe5" fill-opacity="0.7529412" fill-rule="evenodd" stroke="none"/>
  </g>
</svg>
