<?xml version="1.0" encoding="UTF-8" standalone="no"?>
<svg xmlns:ffdec="https://www.free-decompiler.com/flash" xmlns:xlink="http://www.w3.org/1999/xlink" ffdec:objectType="shape" height="30.15px" width="30.95px" xmlns="http://www.w3.org/2000/svg">
  <g transform="matrix(1.0, 0.0, 0.0, 1.0, 14.4, 32.55)">
    <path d="M8.75 -27.8 L8.7 -27.8 Q8.05 -27.8 7.35 -28.1 6.9 -28.3 6.05 -28.85 5.25 -29.35 4.8 -29.55 L4.25 -29.75 Q3.05 -29.65 2.0 -28.6 L1.2 -27.85 Q0.8 -27.5 0.5 -27.5 0.3 -27.5 0.0 -27.65 L-0.35 -27.8 -0.35 -28.05 0.05 -28.0 Q0.45 -28.3 0.95 -28.95 L2.05 -30.55 Q3.5 -32.55 5.2 -32.55 6.8 -32.55 7.7 -31.4 8.05 -30.8 8.25 -30.6 8.55 -30.25 8.95 -30.25 9.8 -30.25 10.5 -30.45 11.15 -30.7 12.15 -30.7 14.1 -30.7 15.0 -28.65 15.55 -27.45 15.55 -26.4 15.55 -25.45 15.25 -24.3 14.95 -23.1 14.95 -22.45 14.95 -21.35 15.2 -20.65 15.35 -20.3 15.75 -19.65 16.15 -19.0 16.3 -18.4 16.55 -17.5 16.55 -16.0 16.55 -15.6 15.9 -13.75 15.2 -11.8 14.8 -11.5 14.3 -11.2 13.6 -11.05 L12.35 -10.95 Q10.75 -10.8 10.0 -10.0 9.5 -9.3 9.05 -8.85 8.2 -8.0 7.5 -8.0 6.45 -8.0 5.35 -9.25 5.0 -9.65 4.65 -10.15 L4.35 -10.6 Q4.2 -10.8 4.15 -11.0 L4.2 -11.1 Q4.35 -11.1 4.9 -10.75 5.4 -10.4 5.5 -10.4 7.25 -10.4 11.6 -15.15 11.6 -15.7 11.35 -16.9 11.1 -18.05 11.1 -18.8 11.1 -19.8 11.75 -20.8 12.45 -21.85 12.45 -22.85 12.45 -23.15 11.55 -24.85 10.7 -26.45 10.55 -26.6 9.95 -27.1 8.75 -27.8 M2.05 -9.05 L2.05 -9.1 2.1 -9.0 2.3 -9.3 2.7 -9.3 Q2.75 -9.3 2.75 -9.05 L2.25 -8.1 Q1.75 -7.1 1.75 -6.3 1.75 -6.2 2.0 -5.55 2.2 -4.9 2.2 -4.65 2.2 -3.7 1.85 -3.3 1.15 -2.4 -1.15 -2.4 -4.6 -2.4 -6.75 -4.15 -7.65 -4.85 -8.15 -5.7 -8.55 -6.45 -8.55 -7.15 -8.55 -8.2 -9.1 -9.7 -9.9 -11.9 -11.45 -11.9 -11.7 -11.9 -12.1 -11.45 -12.55 -11.0 -12.9 -11.0 -13.95 -11.0 -14.25 -12.1 -14.4 -12.5 -14.4 -12.9 L-14.4 -13.3 Q-13.5 -19.8 -12.35 -19.8 -11.3 -19.8 -11.25 -19.55 -11.2 -19.4 -11.15 -19.35 -11.0 -19.3 -10.5 -19.3 L-9.75 -20.2 Q-9.0 -21.15 -8.7 -21.25 -7.0 -21.1 -6.4 -20.75 L-6.05 -20.4 -5.6 -20.05 -6.1 -19.5 -6.05 -19.4 -6.2 -19.4 Q-6.6 -19.0 -7.2 -18.45 -7.75 -17.9 -7.9 -17.45 L-7.85 -17.45 Q-7.8 -17.35 -7.8 -17.15 -7.8 -16.95 -7.9 -17.0 L-7.8 -16.5 Q-7.65 -16.0 -7.65 -15.8 L-7.65 -15.45 -7.5 -15.2 Q-7.2 -14.75 -6.25 -13.7 -5.35 -12.75 -4.95 -12.1 -4.4 -11.15 -4.4 -10.2 -4.4 -9.9 -4.45 -9.55 L-4.45 -9.45 Q-3.65 -7.35 -2.0 -7.35 -0.8 -7.35 0.25 -7.95 1.4 -8.7 2.05 -9.05 M-3.05 -29.0 Q-2.5 -28.55 -2.5 -27.95 -2.5 -27.55 -3.15 -27.15 -3.8 -26.7 -3.8 -26.4 -3.8 -26.35 -4.2 -25.05 -4.2 -24.85 -4.05 -24.6 -3.9 -24.35 -3.9 -24.25 L-4.0 -24.1 Q-4.05 -24.05 -4.3 -24.05 -5.05 -24.05 -5.2 -24.95 -5.25 -25.15 -5.25 -26.15 -5.25 -26.45 -5.6 -27.2 -5.95 -27.9 -5.95 -28.15 -5.95 -29.05 -5.4 -29.4 -4.9 -29.7 -4.2 -29.6 -3.55 -29.45 -3.05 -29.0" fill="#fcffe5" fill-opacity="0.7529412" fill-rule="evenodd" stroke="none"/>
  </g>
</svg>
