<?xml version="1.0" encoding="UTF-8" standalone="no"?>
<svg xmlns:ffdec="https://www.free-decompiler.com/flash" xmlns:xlink="http://www.w3.org/1999/xlink" ffdec:objectType="shape" height="25.6px" width="5.0px" xmlns="http://www.w3.org/2000/svg">
  <g transform="matrix(1.0, 0.0, 0.0, 1.0, 0.15, 24.15)">
    <path d="M4.55 -22.55 Q4.65 -22.25 4.7 -21.9 4.8 -21.45 4.75 -21.0 4.8 -20.7 4.85 -20.05 L4.8 -20.0 Q4.7 -17.3 4.55 -16.45 4.4 -15.5 4.1 -14.5 L4.1 -14.6 4.25 -15.9 Q4.35 -17.3 4.35 -18.55 4.35 -19.9 4.2 -20.8 L4.05 -21.2 Q3.9 -21.35 3.7 -21.9 3.45 -22.05 3.35 -22.45 L3.35 -22.6 3.3 -22.6 Q3.2 -22.85 3.25 -23.25 L3.3 -23.25 3.25 -23.3 Q3.35 -23.75 3.4 -23.9 3.45 -23.95 3.55 -24.0 3.8 -24.25 4.2 -24.0 4.4 -23.9 4.5 -23.3 4.6 -22.85 4.55 -22.55 M1.35 -13.9 Q1.85 -13.45 1.6 -11.85 1.5 -11.35 1.25 -10.75 L1.2 -10.55 Q1.0 -10.45 0.85 -10.0 L0.6 -8.75 Q0.45 -7.85 0.5 -7.7 0.45 -7.45 0.5 -7.05 L0.5 -7.0 0.6 -5.6 0.65 -4.85 0.7 -3.8 0.75 -4.15 1.3 -5.9 1.3 -6.05 1.35 -5.55 1.3 -5.35 1.15 -4.6 Q0.85 -2.6 1.15 -1.25 L1.35 -0.25 Q1.4 0.3 1.3 1.0 L1.3 1.2 Q1.1 1.45 0.7 1.45 L0.6 1.45 0.55 1.4 0.35 1.4 Q0.05 1.35 -0.1 0.75 L-0.15 0.25 Q-0.15 -0.05 -0.05 -0.3 L0.15 -1.3 0.15 -3.5 Q0.25 -4.6 0.3 -6.55 0.35 -8.1 0.35 -9.4 0.45 -11.7 0.6 -12.55 0.75 -13.45 0.95 -13.8 1.15 -14.1 1.35 -13.9" fill="#420040" fill-rule="evenodd" stroke="none"/>
  </g>
</svg>
