<?xml version="1.0" encoding="UTF-8" standalone="no"?>
<svg xmlns:ffdec="https://www.free-decompiler.com/flash" xmlns:xlink="http://www.w3.org/1999/xlink" ffdec:objectType="shape" height="15.2px" width="7.75px" xmlns="http://www.w3.org/2000/svg">
  <g transform="matrix(1.0, 0.0, 0.0, 1.0, 9.05, 14.3)">
    <path d="M-1.8 0.9 L-1.95 0.9 -2.0 0.7 Q-2.1 0.35 -1.7 0.3 -1.45 0.3 -1.35 0.5 L-1.3 0.8 Q-1.4 0.85 -1.5 0.85 L-1.65 0.85 -1.7 0.9 -1.8 0.9" fill="#860086" fill-opacity="0.4" fill-rule="evenodd" stroke="none"/>
    <path d="M-4.2 -13.2 L-4.2 -13.15 -4.15 -12.95 -4.1 -12.85 -4.0 -12.85 -4.1 -12.75 -4.25 -12.75 Q-4.45 -12.7 -4.6 -12.85 -4.75 -12.95 -4.75 -13.05 -4.8 -13.15 -4.8 -13.3 L-4.7 -13.45 -4.6 -13.45 Q-4.4 -13.5 -4.25 -13.25 L-4.2 -13.2 M-9.05 -11.55 L-9.05 -11.7 -8.9 -11.75 -8.85 -11.75 Q-8.8 -11.7 -8.75 -11.6 L-8.8 -11.55 -8.95 -11.35 Q-9.0 -11.4 -9.05 -11.45 L-9.05 -11.55 M-4.9 -14.25 L-4.95 -14.25 -4.95 -14.3 -4.9 -14.25" fill="#860086" fill-opacity="0.29803923" fill-rule="evenodd" stroke="none"/>
  </g>
</svg>
