<?xml version="1.0" encoding="UTF-8" standalone="no"?>
<svg xmlns:ffdec="https://www.free-decompiler.com/flash" xmlns:xlink="http://www.w3.org/1999/xlink" ffdec:objectType="shape" height="13.95px" width="5.7px" xmlns="http://www.w3.org/2000/svg">
  <g transform="matrix(1.0, 0.0, 0.0, 1.0, 6.45, 12.75)">
    <path d="M-5.1 -12.75 L-4.85 -12.75 Q-4.05 -12.8 -3.9 -12.25 L-3.9 -12.15 Q-3.8 -11.9 -3.95 -11.8 -4.0 -11.7 -4.15 -11.7 -4.2 -11.7 -4.45 -11.85 L-4.5 -11.8 Q-4.6 -11.95 -4.85 -11.9 -5.15 -11.85 -5.3 -11.6 -5.7 -11.45 -5.95 -10.55 L-6.15 -9.7 -6.1 -9.65 Q-5.75 -9.55 -5.25 -9.1 -3.75 -7.75 -3.25 -5.95 L-3.2 -5.7 Q-3.2 -5.65 -3.25 -5.65 L-3.35 -5.65 Q-3.95 -7.05 -4.9 -8.0 L-5.7 -8.55 Q-6.1 -8.8 -6.3 -9.1 L-6.35 -9.25 -6.45 -9.45 Q-6.45 -9.55 -6.4 -9.6 -6.35 -9.65 -6.3 -9.65 L-6.2 -9.7 -6.25 -10.1 -6.25 -10.15 Q-6.25 -10.45 -6.2 -10.6 -6.2 -10.85 -6.15 -11.05 -6.15 -11.25 -6.05 -11.4 L-6.05 -11.6 -5.9 -11.95 Q-5.65 -12.45 -5.15 -12.75 L-5.1 -12.75 M-3.0 -0.45 L-2.85 -0.8 Q-2.8 -0.85 -2.75 -1.0 L-2.55 -0.85 -2.55 -1.0 -2.6 -1.75 Q-2.45 -1.7 -2.35 -1.55 L-2.3 -1.45 Q-2.2 -1.1 -2.15 -0.35 L-2.15 0.2 -2.1 0.3 Q-2.0 0.45 -2.0 0.6 L-2.05 0.85 Q-2.15 1.15 -2.4 1.2 L-2.7 1.2 Q-3.0 1.2 -3.15 1.05 L-3.2 1.0 Q-3.3 0.6 -3.25 0.35 L-3.1 -0.15 -3.0 -0.4 -3.0 -0.45" fill="#860086" fill-rule="evenodd" stroke="none"/>
    <path d="M-0.75 -7.8 L-0.85 -7.7 -0.95 -7.85 -1.0 -7.85 -0.95 -8.0 -0.8 -7.95 -0.8 -7.9 -0.75 -7.8" fill="#860086" fill-rule="evenodd" stroke="none"/>
    <path d="M-4.15 -9.5 L-4.15 -9.5 M-4.1 -8.9 L-4.05 -8.8 Q-4.0 -8.7 -4.0 -8.65 -4.0 -8.55 -4.05 -8.5 -4.15 -8.35 -4.3 -8.35 L-4.4 -8.4 -4.45 -8.45 -4.4 -8.45 -4.4 -8.75 Q-4.35 -8.9 -4.2 -8.9 L-4.1 -8.9" fill="#860086" fill-opacity="0.29803923" fill-rule="evenodd" stroke="none"/>
    <path d="M-3.6 1.0 Q-3.6 0.85 -3.4 0.85 -3.15 0.85 -3.15 1.05 L-3.15 1.2 -3.6 1.2 -3.6 1.0" fill="#860086" fill-opacity="0.4" fill-rule="evenodd" stroke="none"/>
  </g>
</svg>
