<?xml version="1.0" encoding="UTF-8" standalone="no"?>
<svg xmlns:ffdec="https://www.free-decompiler.com/flash" xmlns:xlink="http://www.w3.org/1999/xlink" ffdec:objectType="shape" height="19.35px" width="2.55px" xmlns="http://www.w3.org/2000/svg">
  <g transform="matrix(1.0, 0.0, 0.0, 1.0, 3.0, 18.85)">
    <path d="M-2.95 -18.85 L-2.95 -18.85 M-2.25 -18.6 L-2.25 -18.6 M-2.5 -17.95 L-2.4 -17.95 -2.5 -17.95" fill="#860086" fill-opacity="0.14901961" fill-rule="evenodd" stroke="none"/>
    <path d="M-2.05 -17.3 L-2.05 -17.35 -2.1 -17.25 -2.05 -17.3 M-2.4 -17.95 L-2.3 -17.75 Q-2.3 -17.65 -2.4 -17.5 L-2.55 -17.35 -2.75 -17.55 Q-2.75 -17.8 -2.6 -17.9 L-2.5 -17.95 -2.4 -17.95 M-0.45 0.25 L-0.55 0.5 -1.05 0.5 -1.15 0.45 -1.1 0.4 Q-1.0 0.05 -0.95 -0.05 -0.45 0.05 -0.45 0.25" fill="#debcfa" fill-rule="evenodd" stroke="none"/>
  </g>
</svg>
