<?xml version="1.0" encoding="UTF-8" standalone="no"?>
<svg xmlns:ffdec="https://www.free-decompiler.com/flash" xmlns:xlink="http://www.w3.org/1999/xlink" ffdec:objectType="shape" height="19.8px" width="7.7px" xmlns="http://www.w3.org/2000/svg">
  <g transform="matrix(1.0, 0.0, 0.0, 1.0, 0.85, 18.85)">
    <path d="M3.05 -16.75 Q4.15 -16.05 4.45 -14.85 L4.15 -15.15 Q3.75 -15.55 3.4 -15.7 L3.2 -15.8 2.9 -15.9 Q2.6 -15.95 2.5 -15.75 2.45 -15.75 2.4 -15.8 L2.35 -15.75 2.25 -15.55 Q2.3 -15.35 2.3 -15.25 2.2 -14.85 1.8 -14.9 1.25 -14.95 1.2 -15.4 1.2 -15.65 1.3 -15.85 L1.45 -16.25 1.75 -16.55 1.8 -16.5 1.8 -16.6 2.3 -16.8 2.7 -16.8 3.05 -16.75 M6.05 -11.95 Q6.0 -11.95 5.9 -12.05 5.65 -12.15 5.55 -12.35 L5.5 -12.35 5.4 -12.45 Q4.55 -12.4 3.9 -12.1 L3.6 -11.95 3.1 -11.45 3.1 -11.35 3.0 -11.35 2.8 -11.1 2.8 -11.15 2.9 -11.35 2.75 -11.35 Q3.0 -11.7 4.25 -12.6 L4.5 -12.8 Q5.05 -13.05 5.35 -13.1 L5.4 -13.1 Q6.0 -13.2 6.35 -13.05 L6.45 -13.05 Q6.95 -12.85 6.85 -12.4 6.8 -12.2 6.7 -12.1 L6.5 -11.9 6.2 -11.95 6.05 -11.95 M0.8 -1.25 L1.1 -0.95 1.15 -0.8 1.35 -0.15 Q1.4 0.2 1.3 0.65 L1.3 0.75 Q1.1 0.95 0.7 0.95 L0.65 0.9 0.35 0.9 Q0.05 0.85 -0.1 0.5 L-0.15 0.15 Q-0.15 0.0 -0.05 -0.2 L0.15 -0.7 0.1 -1.0 Q0.0 -1.45 0.1 -1.8 0.15 -1.95 0.2 -1.95 L0.25 -1.9 Q0.45 -1.65 0.45 -1.3 L0.8 -1.25" fill="#420040" fill-rule="evenodd" stroke="none"/>
    <path d="M1.55 -18.85 L1.55 -18.85 M0.9 -18.6 L0.9 -18.6 M0.95 -17.95 L1.05 -17.95 1.2 -17.9 Q1.35 -17.8 1.35 -17.55 L1.3 -17.55 Q1.15 -17.45 1.15 -17.35 L1.0 -17.5 Q0.9 -17.65 0.9 -17.75 L0.95 -17.85 0.95 -17.95 M0.65 -17.3 L0.65 -17.3 M-0.35 0.5 L-0.8 0.5 -0.85 0.2 Q-0.8 0.0 -0.35 -0.05 -0.25 0.05 -0.25 0.4 L-0.25 0.5 -0.35 0.5" fill="#c800c2" fill-opacity="0.8" fill-rule="evenodd" stroke="none"/>
  </g>
</svg>
