<?xml version="1.0" encoding="UTF-8" standalone="no"?>
<svg xmlns:ffdec="https://www.free-decompiler.com/flash" xmlns:xlink="http://www.w3.org/1999/xlink" ffdec:objectType="shape" height="17.65px" width="9.2px" xmlns="http://www.w3.org/2000/svg">
  <g transform="matrix(1.0, 0.0, 0.0, 1.0, 0.75, 17.15)">
    <path d="M2.25 -16.9 L2.4 -17.0 3.4 -16.9 3.4 -16.85 Q3.6 -16.75 3.7 -16.6 3.65 -16.6 3.25 -16.8 3.1 -16.9 2.75 -16.7 L2.65 -16.7 2.55 -16.6 2.55 -16.55 2.6 -16.35 2.65 -16.25 2.8 -16.3 3.15 -16.4 Q3.45 -16.35 3.5 -16.1 L3.45 -15.8 Q3.4 -15.65 3.2 -15.45 2.95 -15.25 2.6 -15.25 L2.55 -15.25 Q2.1 -15.5 2.0 -15.65 1.75 -15.95 1.85 -16.4 1.9 -16.6 2.25 -16.9 M6.8 -13.1 Q6.75 -13.3 6.85 -13.4 6.95 -13.85 7.2 -13.85 7.5 -13.85 7.7 -13.2 7.85 -13.2 8.0 -13.45 8.15 -13.65 8.45 -13.65 L8.35 -13.15 Q7.85 -12.65 7.65 -12.7 6.95 -12.75 6.8 -13.1 M4.4 -15.7 L4.4 -15.65 4.4 -15.7 M0.25 -0.85 L0.9 -0.75 Q1.1 -0.75 1.25 -0.4 L1.25 -0.35 1.15 0.0 1.05 0.5 0.45 0.5 Q0.15 0.45 0.0 0.1 L-0.05 -0.25 Q-0.05 -0.4 0.05 -0.6 L0.1 -0.7 0.25 -0.85 M-0.6 -17.05 L-0.5 -17.15 Q-0.1 -17.1 0.25 -17.0 L-0.75 -17.0 -0.6 -17.05" fill="#420040" fill-rule="evenodd" stroke="none"/>
  </g>
</svg>
