<?xml version="1.0" encoding="UTF-8" standalone="no"?>
<svg xmlns:ffdec="https://www.free-decompiler.com/flash" xmlns:xlink="http://www.w3.org/1999/xlink" ffdec:objectType="shape" height="4.65px" width="39.65px" xmlns="http://www.w3.org/2000/svg">
  <g transform="matrix(1.0, 0.0, 0.0, 1.0, 19.9, 1.85)">
    <path d="M6.0 -0.95 Q5.6 -0.9 5.45 -1.0 L5.5 -1.05 Q5.85 -1.1 6.25 -1.1 L7.05 -1.1 Q7.3 -1.1 7.45 -1.15 8.1 -1.15 8.75 -1.1 L9.65 -1.05 Q9.75 -1.05 9.85 -1.05 11.55 -1.1 13.25 -1.1 13.65 -1.1 14.1 -1.2 14.5 -1.25 14.9 -1.3 17.55 -1.25 17.1 -0.2 17.0 0.0 17.65 0.15 18.6 0.3 19.3 0.6 20.25 0.9 19.3 1.2 18.05 1.6 16.3 1.55 12.8 1.5 10.5 2.4 9.75 2.7 8.7 2.8 6.4 2.95 5.0 2.3 4.85 2.25 4.65 2.25 -0.8 2.45 -6.25 2.65 -8.1 2.75 -8.55 2.25 L-8.65 2.25 -8.75 2.2 -8.85 2.2 -8.85 2.15 -13.25 2.1 Q-14.0 2.15 -14.55 1.95 -15.75 1.55 -17.2 1.25 -18.3 1.25 -19.25 1.0 L-19.4 0.95 -19.55 0.95 Q-19.9 0.9 -19.9 0.75 -19.95 -0.35 -16.15 -0.35 -12.15 -0.4 -11.35 -1.5 -11.15 -1.8 -10.35 -1.85 L-9.05 -1.85 Q-8.6 -1.7 -8.3 -1.5 -7.9 -1.15 -6.85 -1.1 L-6.5 -1.1 -5.3 -1.05 -4.15 -1.05 Q-4.5 -0.95 -4.9 -0.95 -4.95 -0.85 -5.25 -0.85 -6.85 -0.85 -8.3 -0.65 -8.45 -0.6 -8.65 -0.6 L-9.25 -0.55 -9.35 -0.5 -9.4 -0.45 -9.75 -0.35 Q-9.95 -0.3 -10.1 -0.3 L-10.1 -0.45 Q-10.8 -0.45 -11.45 -0.35 -11.65 -0.3 -11.85 -0.25 -12.25 -0.1 -12.5 0.1 -12.75 0.3 -12.4 0.5 -10.95 0.5 -9.8 0.65 -9.4 0.75 -9.15 0.85 -8.2 1.2 -6.95 1.25 -5.95 1.0 -4.2 1.05 -3.35 1.05 -2.5 1.15 0.4 1.55 3.3 1.25 6.05 1.0 9.0 0.95 10.0 0.95 10.45 0.65 10.65 0.55 11.15 0.5 12.15 0.45 12.75 0.2 12.7 0.0 12.35 -0.15 11.75 -0.4 10.8 -0.45 8.55 -0.65 7.35 -0.85 8.4 -0.85 9.4 -0.75 8.95 -0.8 8.5 -0.85 7.6 -0.9 6.7 -0.85 L7.6 -0.95 Q6.85 -0.95 6.0 -0.95" fill="#ccfffe" fill-opacity="0.7529412" fill-rule="evenodd" stroke="none"/>
  </g>
</svg>
