<?xml version="1.0" encoding="UTF-8" standalone="no"?>
<svg xmlns:ffdec="https://www.free-decompiler.com/flash" xmlns:xlink="http://www.w3.org/1999/xlink" ffdec:objectType="shape" height="8.75px" width="7.75px" xmlns="http://www.w3.org/2000/svg">
  <g transform="matrix(1.0, 0.0, 0.0, 1.0, 3.3, 5.55)">
    <path d="M2.7 -4.35 Q2.45 -3.95 2.2 -3.6 L2.7 -3.65 Q2.9 -3.65 3.05 -3.65 L3.0 -4.15 Q2.9 -4.3 2.7 -4.35 M2.5 -4.7 L2.45 -4.75 2.45 -4.7 2.5 -4.7 M1.5 -0.95 Q1.8 -0.9 2.0 -0.95 2.05 -0.85 2.05 -0.7 2.0 -0.4 2.0 0.0 L1.95 0.75 Q2.2 0.15 2.6 -0.3 2.75 -0.45 3.0 -0.4 3.05 -0.55 3.1 -0.7 L3.2 -0.95 3.2 -1.1 Q3.1 -1.4 3.2 -1.55 2.9 -1.75 2.55 -1.8 2.25 -1.85 2.0 -1.9 1.45 -1.7 1.4 -1.1 1.4 -0.95 1.5 -0.95 M2.75 -5.0 Q2.9 -4.9 3.05 -4.8 3.2 -4.65 3.3 -4.45 3.35 -4.35 3.4 -4.25 3.3 -4.05 3.3 -3.8 3.3 -3.3 3.5 -3.15 3.7 -2.95 3.85 -2.7 L3.95 -2.55 Q4.0 -2.55 4.05 -2.5 L4.1 -2.45 4.1 -2.35 4.15 -2.35 4.1 -2.3 Q4.05 -2.2 4.0 -2.1 3.65 -1.5 3.7 -0.75 3.7 -0.2 4.05 -0.2 4.1 0.35 3.45 0.55 3.45 0.45 3.4 0.4 3.25 0.25 2.95 0.3 2.45 0.4 2.4 0.95 2.35 1.15 2.4 1.25 L2.4 1.45 Q2.3 1.5 2.2 1.55 2.15 1.55 2.1 1.5 2.0 1.45 1.85 1.45 1.15 1.7 0.8 2.35 0.75 2.4 0.75 2.5 L0.5 2.6 Q0.3 2.75 0.15 2.65 0.6 2.0 0.85 1.25 0.6 1.65 0.25 2.0 -0.15 2.4 -0.4 2.8 -1.2 2.95 -2.15 2.8 -2.2 2.6 -2.25 2.4 -2.4 2.1 -2.4 1.65 -2.4 1.45 -2.3 1.2 -2.25 1.05 -2.2 0.9 L-2.2 0.95 -2.15 1.0 -2.15 0.9 Q-2.3 0.75 -2.4 0.45 -2.4 0.35 -2.4 0.3 -2.55 0.1 -2.7 0.0 L-2.8 -0.05 -2.85 -0.1 Q-2.9 -0.15 -2.95 -0.15 -2.95 -0.2 -2.9 -0.2 L-2.8 -0.25 Q-2.7 -0.95 -2.35 -1.7 L-2.25 -1.8 Q-2.1 -2.15 -1.9 -2.5 L-1.85 -2.65 Q-1.55 -3.7 -0.4 -3.75 L-0.25 -3.75 Q0.0 -3.85 0.2 -3.9 L0.35 -3.85 Q0.45 -3.85 0.45 -3.8 L0.5 -3.8 Q0.6 -3.9 0.6 -3.85 L0.65 -3.8 Q0.7 -3.85 0.8 -3.85 0.85 -3.95 0.9 -4.0 1.35 -4.05 1.8 -4.4 2.3 -4.8 2.3 -5.25 2.55 -5.15 2.75 -5.0 M-1.25 -3.2 Q-1.4 -3.1 -1.5 -2.95 L-1.35 -3.1 Q-1.3 -3.15 -1.25 -3.2 M-0.9 -2.85 Q-0.75 -3.05 -0.6 -3.25 -0.8 -3.15 -1.0 -3.0 -1.4 -2.55 -1.65 -1.9 -2.05 -0.9 -2.0 0.15 L-1.95 0.35 -1.95 0.3 Q-1.9 0.1 -1.85 -0.1 -1.7 -0.65 -1.4 -1.05 L-1.35 -1.1 Q-1.3 -1.25 -1.2 -1.35 -1.35 -1.5 -1.35 -1.7 L-1.4 -1.8 -1.35 -1.85 Q-1.3 -1.9 -1.25 -1.9 L-1.25 -1.95 -1.2 -2.0 Q-1.1 -2.15 -0.95 -2.25 -0.9 -2.35 -0.8 -2.45 L-0.65 -2.4 -0.55 -2.35 Q0.05 -2.05 0.65 -2.05 0.4 -2.35 0.0 -2.55 -0.2 -2.65 -0.4 -2.7 -0.4 -2.65 -0.45 -2.65 -0.55 -2.5 -0.7 -2.6 -0.8 -2.7 -0.9 -2.8 L-0.9 -2.85 M-2.5 -0.25 L-2.55 -0.35 -2.55 -0.3 -2.5 -0.25 M-1.3 -0.65 L-1.3 -0.6 Q-1.25 -0.7 -1.2 -0.8 L-1.3 -0.65" fill="#ffffff" fill-rule="evenodd" stroke="none"/>
    <path d="M2.7 -4.35 Q2.45 -3.95 2.2 -3.6 L2.7 -3.65 Q2.9 -3.65 3.05 -3.65 L3.0 -4.15 Q2.9 -4.3 2.7 -4.35 M2.75 -5.0 Q2.55 -5.15 2.3 -5.25 2.3 -4.8 1.8 -4.4 1.35 -4.05 0.9 -4.0 0.85 -3.95 0.8 -3.85 0.7 -3.85 0.65 -3.8 L0.6 -3.85 Q0.6 -3.9 0.5 -3.8 L0.45 -3.8 Q0.45 -3.85 0.35 -3.85 L0.2 -3.9 Q0.0 -3.85 -0.25 -3.75 L-0.4 -3.75 Q-1.55 -3.7 -1.85 -2.65 L-1.9 -2.5 Q-2.1 -2.15 -2.25 -1.8 L-2.35 -1.7 Q-2.7 -0.95 -2.8 -0.25 L-2.9 -0.2 Q-2.95 -0.2 -2.95 -0.15 -2.9 -0.15 -2.85 -0.1 L-2.8 -0.05 -2.7 0.0 Q-2.55 0.1 -2.4 0.3 -2.4 0.35 -2.4 0.45 -2.3 0.75 -2.15 0.9 L-2.15 1.0 -2.2 0.95 -2.2 0.9 Q-2.25 1.05 -2.3 1.2 -2.4 1.45 -2.4 1.65 -2.4 2.1 -2.25 2.4 -2.2 2.6 -2.15 2.8 -1.2 2.95 -0.4 2.8 -0.15 2.4 0.25 2.0 0.6 1.65 0.85 1.25 0.6 2.0 0.15 2.65 0.3 2.75 0.5 2.6 L0.75 2.5 Q0.75 2.4 0.8 2.35 1.15 1.7 1.85 1.45 2.0 1.45 2.1 1.5 2.15 1.55 2.2 1.55 2.3 1.5 2.4 1.45 L2.4 1.25 Q2.35 1.15 2.4 0.95 2.45 0.4 2.95 0.3 3.25 0.25 3.4 0.4 3.45 0.45 3.45 0.55 4.1 0.35 4.05 -0.2 3.7 -0.2 3.7 -0.75 3.65 -1.5 4.0 -2.1 4.05 -2.2 4.1 -2.3 L4.15 -2.35 4.1 -2.35 4.1 -2.45 4.05 -2.5 Q4.0 -2.55 3.95 -2.55 L3.85 -2.7 Q3.7 -2.95 3.5 -3.15 3.3 -3.3 3.3 -3.8 3.3 -4.05 3.4 -4.25 3.35 -4.35 3.3 -4.45 3.2 -4.65 3.05 -4.8 2.9 -4.9 2.75 -5.0 M1.5 -0.95 Q1.4 -0.95 1.4 -1.1 1.45 -1.7 2.0 -1.9 2.25 -1.85 2.55 -1.8 2.9 -1.75 3.2 -1.55 3.1 -1.4 3.2 -1.1 L3.2 -0.95 3.1 -0.7 Q3.05 -0.55 3.0 -0.4 2.75 -0.45 2.6 -0.3 2.2 0.15 1.95 0.75 L2.0 0.0 Q2.0 -0.4 2.05 -0.7 2.05 -0.85 2.0 -0.95 1.8 -0.9 1.5 -0.95 M-0.9 -2.85 Q-0.75 -3.05 -0.6 -3.25 -0.8 -3.15 -1.0 -3.0 -1.4 -2.55 -1.65 -1.9 -2.05 -0.9 -2.0 0.15 L-1.95 0.35 -1.95 0.3 Q-1.9 0.1 -1.85 -0.1 -1.7 -0.65 -1.4 -1.05 L-1.35 -1.1 Q-1.3 -1.25 -1.2 -1.35 -1.35 -1.5 -1.35 -1.7 L-1.4 -1.8 -1.35 -1.85 Q-1.3 -1.9 -1.25 -1.9 L-1.25 -1.95 -1.2 -2.0 Q-1.1 -2.15 -0.95 -2.25 -0.9 -2.35 -0.8 -2.45 L-0.65 -2.4 -0.55 -2.35 Q0.05 -2.05 0.65 -2.05 0.4 -2.35 0.0 -2.55 -0.2 -2.65 -0.4 -2.7 -0.4 -2.65 -0.45 -2.65 -0.55 -2.5 -0.7 -2.6 -0.8 -2.7 -0.9 -2.8 L-0.9 -2.85 Z" fill="none" stroke="#ccffff" stroke-linecap="round" stroke-linejoin="round" stroke-opacity="0.3019608" stroke-width="0.2"/>
  </g>
</svg>
