<?xml version="1.0" encoding="UTF-8" standalone="no"?>
<svg xmlns:ffdec="https://www.free-decompiler.com/flash" xmlns:xlink="http://www.w3.org/1999/xlink" ffdec:objectType="shape" height="2.0px" width="10.55px" xmlns="http://www.w3.org/2000/svg">
  <g transform="matrix(1.0, 0.0, 0.0, 1.0, 7.1, 1.45)">
    <path d="M1.2 -1.2 Q1.5 -1.1 1.5 -1.05 1.15 -1.0 1.1 -0.9 0.9 -0.5 2.1 -0.5 L2.25 -0.5 Q2.3 -0.5 2.3 -0.45 2.35 -0.45 2.35 -0.4 2.15 -0.35 1.8 -0.25 1.7 -0.25 1.6 -0.25 1.2 -0.2 0.85 -0.15 0.55 -0.1 0.2 -0.1 0.25 -0.1 0.3 -0.05 0.55 0.0 0.3 0.05 0.0 0.1 -0.3 0.1 L-0.35 0.1 -0.3 0.15 Q-0.1 0.1 0.15 0.1 0.2 0.1 0.35 0.05 0.6 0.05 0.85 0.05 L0.85 0.0 0.9 0.0 Q1.0 -0.1 1.25 -0.15 1.5 -0.25 1.8 -0.25 L2.65 -0.2 Q2.9 -0.15 3.1 -0.1 2.85 0.05 2.3 0.15 2.15 0.15 1.95 0.2 2.3 0.15 2.2 0.05 2.15 0.05 2.1 0.05 2.05 0.0 1.9 -0.05 1.85 -0.05 1.75 -0.05 0.55 0.0 1.05 0.2 L0.95 0.25 Q0.9 0.25 0.8 0.3 L0.7 0.3 Q0.2 0.35 -0.2 0.25 -0.65 0.15 -0.5 0.1 L-0.55 0.1 Q-0.6 0.1 -0.65 0.1 -0.85 -0.2 -1.3 -0.3 L-1.25 -0.35 -1.2 -0.35 Q-1.15 -0.45 -1.35 -0.5 -3.55 -0.8 -3.5 -0.4 -4.25 -0.35 -4.7 -0.15 -4.55 -0.1 -4.4 -0.1 L-4.8 0.0 -4.85 0.0 -5.1 0.05 Q-5.85 -0.05 -6.35 -0.15 -6.2 -0.25 -5.85 -0.35 -5.65 -0.4 -5.55 -0.45 -5.1 -0.45 -6.05 -0.65 -6.3 -0.7 -6.45 -0.65 -6.5 -0.6 -6.65 -0.6 -6.25 -0.7 -5.95 -0.85 -4.65 -0.9 -3.45 -0.95 -2.45 -0.6 -0.85 -0.8 -0.65 -0.85 -0.5 -0.85 L-0.55 -0.9 Q-0.05 -0.9 0.45 -0.95 L0.35 -0.95 Q-0.2 -0.95 -0.75 -0.95 L-0.8 -1.0 -0.9 -0.95 Q-1.05 -0.95 -1.2 -1.0 -1.35 -1.05 -1.1 -1.1 L-1.0 -1.1 Q-1.05 -1.15 -0.9 -1.1 L-0.85 -1.15 -0.75 -1.1 Q0.6 -0.95 0.75 -1.05 L0.6 -1.1 0.35 -1.15 0.4 -1.15 Q0.45 -1.2 0.6 -1.2 0.75 -1.2 0.9 -1.25 L1.0 -1.25 Q1.05 -1.25 1.1 -1.2 L1.2 -1.2 M1.5 -0.7 Q0.95 -0.8 1.75 -0.9 1.65 -0.8 1.55 -0.75 1.55 -0.7 1.5 -0.7 M1.95 0.2 L1.9 0.2 Q1.8 0.25 1.7 0.25 L1.65 0.2 1.95 0.2 M-6.3 -0.95 Q-6.2 -0.95 -6.15 -0.95 L-6.3 -0.95 M-5.75 -0.95 L-5.6 -1.0 Q-5.45 -1.05 -5.25 -1.05 -4.4 -1.1 -3.7 -1.05 L-3.6 -1.0 -3.75 -1.0 Q-4.75 -1.0 -5.75 -0.95 M-6.4 -0.85 L-6.75 -0.7 Q-6.75 -0.8 -6.6 -0.85 L-6.4 -0.85 M-2.95 -0.95 L-2.95 -0.95 M-3.75 0.0 Q-3.55 0.0 -3.3 0.0 -3.1 0.0 -3.05 -0.05 -3.0 -0.1 -2.85 -0.1 -2.6 -0.05 -2.7 0.0 L-2.8 0.05 Q-3.35 0.05 -3.85 0.05 L-3.9 0.05 Q-4.35 0.05 -4.75 0.1 -4.4 0.05 -4.0 -0.05 -3.9 -0.05 -3.75 0.0" fill="#ffffff" fill-rule="evenodd" stroke="none"/>
    <path d="M1.2 -1.2 Q1.5 -1.1 1.5 -1.05 1.15 -1.0 1.1 -0.9 0.9 -0.5 2.1 -0.5 L2.25 -0.5 Q2.3 -0.5 2.3 -0.45 2.35 -0.45 2.35 -0.4 2.15 -0.35 1.8 -0.25 1.7 -0.25 1.6 -0.25 1.2 -0.2 0.85 -0.15 0.55 -0.1 0.2 -0.1 0.25 -0.1 0.3 -0.05 0.55 0.0 0.3 0.05 0.0 0.1 -0.3 0.1 L-0.35 0.1 -0.3 0.15 Q-0.1 0.1 0.15 0.1 0.2 0.1 0.35 0.05 0.6 0.05 0.85 0.05 L0.85 0.0 0.9 0.0 Q1.0 -0.1 1.25 -0.15 1.5 -0.25 1.8 -0.25 L2.65 -0.2 Q2.9 -0.15 3.1 -0.1 2.85 0.05 2.3 0.15 2.15 0.15 1.95 0.2 2.3 0.15 2.2 0.05 2.15 0.05 2.1 0.05 2.05 0.0 1.9 -0.05 1.85 -0.05 1.75 -0.05 0.55 0.0 1.05 0.2 L0.95 0.25 Q0.9 0.25 0.8 0.3 L0.7 0.3 Q0.2 0.35 -0.2 0.25 -0.65 0.15 -0.5 0.1 L-0.55 0.1 Q-0.6 0.1 -0.65 0.1 -0.85 -0.2 -1.3 -0.3 L-1.25 -0.35 -1.2 -0.35 Q-1.15 -0.45 -1.35 -0.5 -3.55 -0.8 -3.5 -0.4 -4.25 -0.35 -4.7 -0.15 -4.55 -0.1 -4.4 -0.1 L-4.8 0.0 -4.85 0.0 -5.1 0.05 Q-5.85 -0.05 -6.35 -0.15 -6.2 -0.25 -5.85 -0.35 -5.65 -0.4 -5.55 -0.45 -5.1 -0.45 -6.05 -0.65 -6.3 -0.7 -6.45 -0.65 -6.5 -0.6 -6.65 -0.6 -6.25 -0.7 -5.95 -0.85 -4.65 -0.9 -3.45 -0.95 -2.45 -0.6 -0.85 -0.8 -0.65 -0.85 -0.5 -0.85 L-0.55 -0.9 Q-0.05 -0.9 0.45 -0.95 L0.35 -0.95 Q-0.2 -0.95 -0.75 -0.95 L-0.8 -1.0 -0.9 -0.95 Q-1.05 -0.95 -1.2 -1.0 -1.35 -1.05 -1.1 -1.1 L-1.0 -1.1 Q-1.05 -1.15 -0.9 -1.1 L-0.85 -1.15 -0.75 -1.1 Q0.6 -0.95 0.75 -1.05 L0.6 -1.1 0.35 -1.15 0.4 -1.15 Q0.45 -1.2 0.6 -1.2 0.75 -1.2 0.9 -1.25 L1.0 -1.25 Q1.05 -1.25 1.1 -1.2 L1.2 -1.2 M1.5 -0.7 Q0.95 -0.8 1.75 -0.9 1.65 -0.8 1.55 -0.75 1.55 -0.7 1.5 -0.7 M-6.4 -0.85 L-6.6 -0.85 Q-6.75 -0.8 -6.75 -0.7 L-6.4 -0.85 M-5.75 -0.95 Q-4.75 -1.0 -3.75 -1.0 L-3.6 -1.0 -3.7 -1.05 Q-4.4 -1.1 -5.25 -1.05 -5.45 -1.05 -5.6 -1.0 L-5.75 -0.95 M-3.75 0.0 Q-3.55 0.0 -3.3 0.0 -3.1 0.0 -3.05 -0.05 -3.0 -0.1 -2.85 -0.1 -2.6 -0.05 -2.7 0.0 L-2.8 0.05 Q-3.35 0.05 -3.85 0.05 L-3.9 0.05 Q-4.35 0.05 -4.75 0.1 -4.4 0.05 -4.0 -0.05 -3.9 -0.05 -3.75 0.0 Z" fill="none" stroke="#ffffff" stroke-linecap="round" stroke-linejoin="round" stroke-opacity="0.3529412" stroke-width="0.2"/>
  </g>
</svg>
