<?xml version="1.0" encoding="UTF-8" standalone="no"?>
<svg xmlns:ffdec="https://www.free-decompiler.com/flash" xmlns:xlink="http://www.w3.org/1999/xlink" ffdec:objectType="shape" height="7.2px" width="37.3px" xmlns="http://www.w3.org/2000/svg">
  <g transform="matrix(1.0, 0.0, 0.0, 1.0, 19.75, 5.45)">
    <path d="M8.75 -5.25 Q8.75 -5.2 8.65 -5.1 8.5 -5.2 8.65 -5.35 8.8 -5.45 9.0 -5.4 8.75 -5.35 8.75 -5.25 M14.0 -2.05 Q13.8 -2.15 14.15 -2.1 14.2 -2.0 14.0 -2.05 M16.8 -1.85 Q17.15 -1.8 17.45 -1.8 17.5 -1.75 17.55 -1.7 17.45 -1.65 17.3 -1.65 17.05 -1.65 16.75 -1.65 16.7 -1.65 16.6 -1.65 L16.65 -1.6 Q16.35 -1.6 16.5 -1.65 L16.6 -1.7 Q16.75 -1.7 16.95 -1.7 17.05 -1.7 17.15 -1.7 L17.05 -1.75 Q16.9 -1.8 16.7 -1.75 16.65 -1.75 16.6 -1.75 16.25 -1.8 16.6 -1.85 16.7 -1.9 16.8 -1.85 M13.75 -1.05 Q13.9 -1.05 14.1 -1.1 14.25 -1.1 14.35 -1.05 14.4 -1.05 14.45 -1.0 L14.4 -0.95 Q14.3 -0.9 13.95 -0.9 13.55 -0.95 13.55 -1.0 13.65 -1.0 13.75 -1.05 M14.0 -1.0 Q14.25 -0.95 14.15 -1.0 13.8 -1.0 14.0 -1.0 M11.9 1.35 Q11.7 1.35 11.55 1.4 11.0 1.35 11.0 1.2 11.3 1.2 11.55 1.3 11.75 1.25 12.0 1.3 12.15 1.3 12.2 1.3 12.1 1.35 11.9 1.35 M14.65 1.55 Q14.55 1.5 14.5 1.5 14.8 1.55 15.3 1.6 15.65 1.65 15.9 1.7 15.6 1.85 15.1 1.65 14.95 1.6 14.65 1.55 M-14.1 -3.35 Q-14.15 -3.3 -14.3 -3.3 -14.6 -3.25 -14.55 -3.3 -14.4 -3.35 -14.35 -3.35 -14.3 -3.45 -14.1 -3.35 M-11.8 -2.1 Q-11.7 -2.15 -11.55 -2.15 -11.35 -2.15 -11.2 -2.1 -11.15 -2.1 -11.1 -2.1 -11.0 -2.0 -11.2 -1.95 -11.45 -1.85 -11.55 -1.9 -11.4 -2.0 -11.7 -2.0 -11.95 -2.05 -11.8 -2.1 M-18.8 -3.4 Q-18.95 -3.35 -19.0 -3.3 -19.4 -3.3 -19.7 -3.4 -19.9 -3.45 -19.65 -3.5 -19.25 -3.5 -18.9 -3.5 L-18.6 -3.5 Q-18.55 -3.4 -18.8 -3.4 M-5.0 -2.7 Q-4.8 -2.55 -5.2 -2.6 -5.55 -2.6 -5.55 -2.55 -5.75 -2.6 -5.55 -2.6 -5.45 -2.65 -5.65 -2.7 L-5.7 -2.7 Q-5.6 -2.75 -5.55 -2.75 -5.3 -2.7 -5.1 -2.7 L-5.0 -2.7 M-8.0 -2.8 Q-7.8 -2.75 -7.95 -2.75 -8.05 -2.75 -8.15 -2.75 L-8.25 -2.7 Q-8.35 -2.65 -8.35 -2.7 -8.3 -2.75 -8.5 -2.7 -8.7 -2.75 -8.5 -2.75 -8.4 -2.75 -8.3 -2.8 -8.15 -2.8 -8.0 -2.8 M-13.1 0.85 Q-13.0 0.9 -13.1 0.95 -13.15 0.95 -13.15 1.0 -13.4 0.95 -13.7 0.95 -13.95 1.0 -14.1 0.9 -14.0 0.9 -13.9 0.9 L-13.7 0.9 Q-13.6 0.9 -13.5 0.9 -13.5 0.85 -13.35 0.85 -13.3 0.85 -13.25 0.85 L-13.1 0.85 M-19.0 1.55 Q-18.85 1.55 -18.7 1.55 -18.65 1.6 -18.6 1.6 -18.55 1.65 -18.5 1.65 -18.5 1.75 -18.6 1.7 -18.7 1.6 -19.1 1.65 -19.65 1.7 -19.7 1.6 -19.55 1.55 -19.5 1.6 -19.35 1.65 -19.3 1.55 -19.25 1.55 -19.15 1.55 -19.05 1.55 -19.0 1.55" fill="#ffff99" fill-rule="evenodd" stroke="none"/>
    <path d="M6.05 -1.85 Q6.2 -1.9 6.45 -1.9 6.5 -1.75 6.6 -1.7 L6.45 -1.7 6.65 -1.65 Q7.1 -1.3 8.75 -1.35 8.95 -1.35 9.1 -1.4 9.05 -1.45 9.05 -1.5 L9.5 -1.5 9.5 -1.45 9.7 -1.45 Q9.55 -1.3 9.25 -1.15 9.1 -1.05 9.05 -1.0 8.15 -1.25 6.75 -1.2 6.35 -1.2 6.05 -1.2 4.0 -1.4 2.75 -0.95 3.6 -1.15 4.75 -1.1 L5.1 -1.1 5.1 -1.05 Q5.1 -1.0 5.2 -0.95 5.25 -0.9 5.3 -0.8 4.75 -0.75 4.25 -0.7 4.3 -0.75 4.35 -0.9 3.65 -1.0 2.9 -0.9 2.45 -0.85 2.65 -0.8 2.8 -0.75 2.95 -0.7 2.75 -0.65 2.5 -0.65 2.0 -0.6 1.65 -0.45 2.5 -0.35 3.5 -0.45 4.05 -0.5 4.55 -0.45 L4.6 -0.45 Q3.35 -0.4 2.45 -0.2 1.8 -0.3 1.0 -0.3 0.35 -0.35 -0.1 -0.25 -0.2 -0.2 0.1 -0.15 0.35 -0.1 0.55 -0.05 0.4 0.0 0.15 0.05 -0.2 0.1 -0.6 0.1 L-0.65 0.05 -0.7 0.05 Q-1.2 0.1 -1.55 0.0 -1.45 0.0 -1.3 0.0 -1.05 0.0 -0.85 0.0 -0.7 0.0 -0.6 0.0 -0.5 -0.05 -0.55 -0.1 -0.6 -0.15 -0.75 -0.2 -0.7 -0.25 -0.6 -0.25 -0.65 -0.3 -0.5 -0.35 -0.15 -0.45 0.05 -0.55 0.2 -0.6 0.15 -0.65 0.95 -0.7 1.65 -0.8 2.7 -0.95 2.5 -1.2 2.5 -1.3 2.4 -1.35 2.2 -1.35 2.0 -1.35 2.35 -1.3 2.45 -1.2 2.5 -1.15 2.3 -1.1 2.05 -1.05 2.0 -1.15 L1.95 -1.2 Q1.9 -1.15 1.8 -1.1 1.7 -1.15 1.6 -1.2 1.45 -1.2 1.3 -1.2 1.0 -1.15 0.75 -1.15 L0.7 -1.15 0.75 -1.2 0.7 -1.2 Q0.65 -1.25 0.7 -1.25 2.2 -1.35 3.55 -1.55 L3.5 -1.55 Q2.4 -1.55 1.55 -1.45 1.7 -1.6 2.45 -1.75 2.55 -1.75 2.7 -1.75 4.55 -1.7 6.0 -1.45 5.9 -1.5 5.8 -1.55 5.65 -1.6 5.45 -1.65 4.8 -1.75 4.2 -1.8 5.05 -1.8 5.85 -1.75 5.9 -1.8 6.05 -1.85 M9.1 -2.15 Q8.1 -2.15 7.05 -2.1 6.2 -2.05 5.4 -2.05 5.45 -2.1 5.3 -2.2 4.7 -2.3 3.95 -2.3 3.25 -2.3 2.85 -2.25 2.45 -2.35 2.0 -2.45 L2.05 -2.45 Q2.0 -2.5 2.05 -2.55 L2.1 -2.55 Q3.15 -2.45 4.3 -2.35 5.5 -2.2 6.85 -2.3 8.55 -2.3 10.1 -2.5 10.15 -2.5 10.2 -2.5 10.35 -2.25 10.4 -2.05 10.45 -1.9 9.95 -1.85 9.5 -1.9 9.05 -1.9 9.0 -1.95 8.95 -1.95 9.0 -1.95 9.0 -2.0 L9.15 -2.0 Q9.35 -2.05 9.1 -2.15 M9.1 -1.8 L9.6 -1.8 9.6 -1.75 Q9.6 -1.7 9.55 -1.7 L9.55 -1.65 9.05 -1.65 Q9.05 -1.75 9.1 -1.8 M9.5 -1.9 Q9.65 -1.95 9.75 -1.95 L9.55 -1.95 Q9.5 -1.9 9.45 -1.9 L9.5 -1.9 M2.35 -2.2 Q2.2 -2.15 2.25 -2.05 L2.1 -2.05 Q1.55 -2.15 1.0 -2.2 1.3 -2.25 1.55 -2.3 1.95 -2.25 2.35 -2.2 M0.15 -2.1 L0.55 -2.1 Q1.75 -1.95 2.3 -2.0 L2.3 -1.95 Q2.05 -1.95 1.75 -1.95 1.3 -1.95 0.6 -2.0 -0.15 -2.0 -0.8 -2.0 -0.35 -2.1 0.15 -2.1 M2.75 -1.7 L2.55 -1.7 Q2.35 -1.65 2.2 -1.6 L2.75 -1.7 M2.55 -0.15 Q2.6 -0.15 2.65 -0.15 L2.6 -0.2 Q3.6 -0.25 4.45 -0.3 4.45 -0.25 4.3 -0.25 4.1 -0.2 4.2 -0.15 4.8 -0.2 5.4 -0.25 5.95 -0.3 6.5 -0.3 L6.4 -0.25 Q6.5 -0.25 6.65 -0.25 L6.7 -0.2 Q6.8 -0.15 6.8 -0.05 L6.75 0.0 6.65 -0.1 6.65 -0.05 6.5 -0.1 6.4 -0.15 Q6.4 -0.05 6.4 0.1 6.15 0.2 5.75 0.2 5.85 0.15 5.75 0.1 5.85 0.0 5.7 -0.1 5.5 -0.15 5.2 -0.1 4.05 0.05 4.05 0.15 3.8 0.2 3.45 0.15 2.7 0.15 2.35 -0.05 L2.4 -0.1 2.55 -0.15 M2.5 -0.3 L2.55 -0.35 2.3 -0.35 2.5 -0.3 M9.15 -1.0 L9.15 -1.0 M0.2 0.55 Q0.35 0.75 -0.4 0.8 -0.95 0.9 -1.5 0.95 L-1.55 0.95 -1.6 1.0 Q-0.95 0.85 -0.5 0.7 L-0.55 0.65 Q-1.35 0.8 -2.15 0.95 -2.4 0.95 -2.65 0.95 L-2.7 0.95 Q-1.65 0.85 -0.8 0.6 -0.9 0.6 -1.0 0.6 -2.05 0.8 -3.2 0.9 L-3.3 0.85 Q-3.5 0.8 -3.75 0.8 -2.85 0.75 -1.95 0.65 -2.0 0.65 -2.05 0.65 -3.35 0.65 -4.6 0.65 L-4.75 0.65 -3.85 0.45 Q-2.7 0.55 -1.3 0.45 -0.9 0.4 -0.65 0.35 -0.6 0.3 -0.45 0.25 -0.65 0.2 -0.3 0.2 0.0 0.15 0.1 0.25 L-0.15 0.3 Q-0.15 0.35 -0.1 0.45 L0.0 0.55 0.05 0.55 Q0.15 0.55 0.2 0.55 M0.05 0.0 Q0.05 -0.05 -0.15 -0.05 -0.2 0.0 -0.35 0.0 -0.1 0.05 0.05 0.0 M-12.45 -0.3 Q-12.3 -0.4 -12.45 -0.5 -11.75 -0.65 -10.9 -0.65 -11.05 -0.45 -11.3 -0.25 L-11.35 -0.3 Q-11.4 -0.3 -11.5 -0.3 L-11.9 -0.25 Q-11.9 -0.15 -11.9 -0.1 L-12.55 -0.2 Q-12.5 -0.25 -12.45 -0.3 M-6.5 -1.55 Q-5.45 -1.55 -4.3 -1.4 -4.8 -1.6 -5.6 -1.65 -5.85 -1.65 -6.1 -1.65 -5.85 -1.7 -5.45 -1.7 -4.15 -1.75 -3.35 -1.45 -3.2 -1.4 -2.9 -1.45 -2.85 -1.45 -2.7 -1.45 L-2.3 -1.45 Q-2.1 -1.5 -2.0 -1.55 -1.8 -1.65 -1.3 -1.65 -0.95 -1.65 -0.65 -1.6 -0.4 -1.5 -0.25 -1.45 -0.1 -1.35 -0.3 -1.25 L-0.35 -1.25 Q-0.5 -1.3 -0.65 -1.3 L-0.9 -1.3 Q-1.05 -1.3 -1.15 -1.25 L-1.15 -1.2 Q-0.95 -1.15 -0.8 -1.05 -0.8 -1.0 -0.8 -0.9 -0.85 -0.85 -1.05 -0.8 -1.05 -0.85 -1.05 -0.9 -1.2 -0.95 -1.25 -1.0 -1.3 -1.05 -1.3 -1.1 -1.8 -1.25 -3.2 -1.25 L-3.2 -1.3 Q-3.55 -1.35 -4.0 -1.3 -5.3 -1.15 -5.15 -1.0 -5.8 -0.85 -5.85 -0.5 -5.9 -0.45 -6.0 -0.4 L-6.05 -0.4 -5.95 -0.35 Q-5.9 -0.4 -5.8 -0.4 L-5.75 -0.4 Q-5.8 -0.4 -5.75 -0.35 L-5.7 -0.35 Q-4.65 0.15 -4.1 -0.3 -3.9 -0.3 -3.8 -0.25 L-3.9 -0.25 Q-3.7 -0.2 -3.55 -0.15 L-3.5 -0.1 Q-3.45 -0.1 -3.45 -0.05 L-3.55 -0.05 Q-3.6 0.0 -3.65 0.05 L-3.7 0.05 Q-4.0 0.1 -4.3 0.05 -4.7 0.0 -5.15 0.0 -5.2 0.0 -5.2 0.05 L-5.15 0.05 Q-4.85 0.05 -4.65 0.15 -4.8 0.15 -4.95 0.15 L-4.95 0.2 -5.05 0.15 Q-5.3 0.15 -5.65 0.15 -6.1 0.1 -6.2 0.0 -6.35 -0.05 -6.45 -0.05 -6.0 -0.15 -6.15 -0.4 -6.25 -0.45 -6.4 -0.45 -9.0 -0.7 -7.65 -0.1 -7.1 -0.05 -6.75 -0.05 -6.7 0.0 -6.7 0.05 -6.85 0.1 -7.15 0.2 -7.55 0.25 -7.95 0.25 -7.5 0.2 -7.05 0.1 -7.1 0.05 -7.2 0.05 -8.1 0.15 -9.0 0.25 -9.2 0.2 -9.4 0.2 -8.5 0.1 -7.65 -0.05 L-7.7 -0.05 Q-8.75 0.05 -9.9 0.1 -10.55 -0.05 -11.05 -0.2 -10.55 -0.4 -10.3 -0.65 -9.95 -0.6 -9.95 -0.45 -9.95 -0.3 -9.85 -0.2 -9.6 -0.2 -9.45 -0.2 -9.3 -0.25 -9.1 -0.35 L-9.0 -0.35 Q-9.15 -0.4 -9.25 -0.45 -8.8 -0.8 -8.05 -1.05 -7.95 -1.05 -7.9 -1.0 -7.65 -0.9 -7.4 -0.85 -7.6 -0.8 -7.65 -0.7 L-7.6 -0.7 Q-6.85 -0.8 -6.5 -1.0 -6.35 -1.0 -6.25 -1.0 -6.65 -1.15 -6.65 -1.25 -5.9 -1.3 -5.15 -1.3 -5.2 -1.35 -5.25 -1.35 -5.95 -1.35 -6.6 -1.35 -6.55 -1.4 -6.5 -1.45 L-6.55 -1.45 Q-6.55 -1.5 -6.5 -1.55 M-9.0 -0.95 Q-9.4 -0.8 -9.45 -0.6 -9.6 -0.75 -9.0 -0.95 M-0.5 -1.35 L-0.55 -1.3 -0.5 -1.3 -0.5 -1.35 M-3.15 -1.35 L-3.15 -1.35 M-0.35 -0.25 L-0.3 -0.3 Q-0.4 -0.25 -0.5 -0.25 -0.45 -0.25 -0.35 -0.25 M-4.5 0.35 Q-4.35 0.4 -4.2 0.4 -4.55 0.45 -4.9 0.55 -5.05 0.4 -4.85 0.3 L-4.8 0.3 Q-4.55 0.3 -4.5 0.35 M-12.2 0.15 L-12.0 0.2 -12.05 0.2 -12.2 0.15 M-11.85 0.1 L-12.4 0.1 Q-12.6 0.0 -12.6 -0.1 -12.25 -0.05 -11.85 0.0 -11.8 0.05 -11.8 0.1 L-11.85 0.1" fill="#ffffff" fill-rule="evenodd" stroke="none"/>
    <path d="M6.05 -1.85 Q6.2 -1.9 6.45 -1.9 6.5 -1.75 6.6 -1.7 L6.45 -1.7 6.65 -1.65 Q7.1 -1.3 8.75 -1.35 8.95 -1.35 9.1 -1.4 9.05 -1.45 9.05 -1.5 L9.5 -1.5 9.5 -1.45 9.7 -1.45 Q9.55 -1.3 9.25 -1.15 9.1 -1.05 9.05 -1.0 8.15 -1.25 6.75 -1.2 6.35 -1.2 6.05 -1.2 4.0 -1.4 2.75 -0.95 3.6 -1.15 4.75 -1.1 L5.1 -1.1 5.1 -1.05 Q5.1 -1.0 5.2 -0.95 5.25 -0.9 5.3 -0.8 4.75 -0.75 4.25 -0.7 4.3 -0.75 4.35 -0.9 3.65 -1.0 2.9 -0.9 2.45 -0.85 2.65 -0.8 2.8 -0.75 2.95 -0.7 2.75 -0.65 2.5 -0.65 2.0 -0.6 1.65 -0.45 2.5 -0.35 3.5 -0.45 4.05 -0.5 4.55 -0.45 L4.6 -0.45 Q3.35 -0.4 2.45 -0.2 1.8 -0.3 1.0 -0.3 0.35 -0.35 -0.1 -0.25 -0.2 -0.2 0.1 -0.15 0.35 -0.1 0.55 -0.05 0.4 0.0 0.15 0.05 -0.2 0.1 -0.6 0.1 L-0.65 0.05 -0.7 0.05 Q-1.2 0.1 -1.55 0.0 -1.45 0.0 -1.3 0.0 -1.05 0.0 -0.85 0.0 -0.7 0.0 -0.6 0.0 -0.5 -0.05 -0.55 -0.1 -0.6 -0.15 -0.75 -0.2 -0.7 -0.25 -0.6 -0.25 -0.65 -0.3 -0.5 -0.35 -0.15 -0.45 0.05 -0.55 0.2 -0.6 0.15 -0.65 0.95 -0.7 1.65 -0.8 2.7 -0.95 2.5 -1.2 2.5 -1.3 2.4 -1.35 2.2 -1.35 2.0 -1.35 2.35 -1.3 2.45 -1.2 2.5 -1.15 2.3 -1.1 2.05 -1.05 2.0 -1.15 L1.95 -1.2 Q1.9 -1.15 1.8 -1.1 1.7 -1.15 1.6 -1.2 1.45 -1.2 1.3 -1.2 1.0 -1.15 0.75 -1.15 L0.7 -1.15 0.75 -1.2 0.7 -1.2 Q0.65 -1.25 0.7 -1.25 2.2 -1.35 3.55 -1.55 L3.5 -1.55 Q2.4 -1.55 1.55 -1.45 1.7 -1.6 2.45 -1.75 2.55 -1.75 2.7 -1.75 4.55 -1.7 6.0 -1.45 5.9 -1.5 5.8 -1.55 5.65 -1.6 5.45 -1.65 4.8 -1.75 4.2 -1.8 5.05 -1.8 5.85 -1.75 5.9 -1.8 6.05 -1.85 M9.1 -2.15 Q8.1 -2.15 7.05 -2.1 6.2 -2.05 5.4 -2.05 5.45 -2.1 5.3 -2.2 4.7 -2.3 3.95 -2.3 3.25 -2.3 2.85 -2.25 2.45 -2.35 2.0 -2.45 L2.05 -2.45 Q2.0 -2.5 2.05 -2.55 L2.1 -2.55 Q3.15 -2.45 4.3 -2.35 5.5 -2.2 6.85 -2.3 8.55 -2.3 10.1 -2.5 10.15 -2.5 10.2 -2.5 10.35 -2.25 10.4 -2.05 10.45 -1.9 9.95 -1.85 9.5 -1.9 9.05 -1.9 9.0 -1.95 8.95 -1.95 9.0 -1.95 9.0 -2.0 L9.15 -2.0 Q9.35 -2.05 9.1 -2.15 M9.1 -1.8 L9.6 -1.8 9.6 -1.75 Q9.6 -1.7 9.55 -1.7 L9.55 -1.65 9.05 -1.65 Q9.05 -1.75 9.1 -1.8 M9.5 -1.9 Q9.65 -1.95 9.75 -1.95 L9.55 -1.95 Q9.5 -1.9 9.45 -1.9 L9.5 -1.9 M0.15 -2.1 Q-0.35 -2.1 -0.8 -2.0 -0.15 -2.0 0.6 -2.0 1.3 -1.95 1.75 -1.95 2.05 -1.95 2.3 -1.95 L2.3 -2.0 Q1.75 -1.95 0.55 -2.1 L0.15 -2.1 M2.35 -2.2 Q1.95 -2.25 1.55 -2.3 1.3 -2.25 1.0 -2.2 1.55 -2.15 2.1 -2.05 L2.25 -2.05 Q2.2 -2.15 2.35 -2.2 M2.75 -1.7 L2.55 -1.7 Q2.35 -1.65 2.2 -1.6 L2.75 -1.7 M2.55 -0.15 Q2.6 -0.15 2.65 -0.15 L2.6 -0.2 Q3.6 -0.25 4.45 -0.3 4.45 -0.25 4.3 -0.25 4.1 -0.2 4.2 -0.15 4.8 -0.2 5.4 -0.25 5.95 -0.3 6.5 -0.3 L6.4 -0.25 Q6.5 -0.25 6.65 -0.25 L6.7 -0.2 Q6.8 -0.15 6.8 -0.05 L6.75 0.0 6.65 -0.1 6.65 -0.05 6.5 -0.1 6.4 -0.15 Q6.4 -0.05 6.4 0.1 6.15 0.2 5.75 0.2 5.85 0.15 5.75 0.1 5.85 0.0 5.7 -0.1 5.5 -0.15 5.2 -0.1 4.05 0.05 4.05 0.15 3.8 0.2 3.45 0.15 2.7 0.15 2.35 -0.05 L2.4 -0.1 2.55 -0.15 M2.5 -0.3 L2.3 -0.35 2.55 -0.35 2.5 -0.3 M0.2 0.55 Q0.35 0.75 -0.4 0.8 -0.95 0.9 -1.5 0.95 L-1.55 0.95 -1.6 1.0 Q-0.95 0.85 -0.5 0.7 L-0.55 0.65 Q-1.35 0.8 -2.15 0.95 -2.4 0.95 -2.65 0.95 L-2.7 0.95 Q-1.65 0.85 -0.8 0.6 -0.9 0.6 -1.0 0.6 -2.05 0.8 -3.2 0.9 L-3.3 0.85 Q-3.5 0.8 -3.75 0.8 -2.85 0.75 -1.95 0.65 -2.0 0.65 -2.05 0.65 -3.35 0.65 -4.6 0.65 L-4.75 0.65 -3.85 0.45 Q-2.7 0.55 -1.3 0.45 -0.9 0.4 -0.65 0.35 -0.6 0.3 -0.45 0.25 -0.65 0.2 -0.3 0.2 0.0 0.15 0.1 0.25 L-0.15 0.3 Q-0.15 0.35 -0.1 0.45 L0.0 0.55 0.05 0.55 Q0.15 0.55 0.2 0.55 M0.05 0.0 Q0.05 -0.05 -0.15 -0.05 -0.2 0.0 -0.35 0.0 -0.1 0.05 0.05 0.0 M-12.45 -0.3 Q-12.3 -0.4 -12.45 -0.5 -11.75 -0.65 -10.9 -0.65 -11.05 -0.45 -11.3 -0.25 L-11.35 -0.3 Q-11.4 -0.3 -11.5 -0.3 L-11.9 -0.25 Q-11.9 -0.15 -11.9 -0.1 L-12.55 -0.2 Q-12.5 -0.25 -12.45 -0.3 M-6.5 -1.55 Q-5.45 -1.55 -4.3 -1.4 -4.8 -1.6 -5.6 -1.65 -5.85 -1.65 -6.1 -1.65 -5.85 -1.7 -5.45 -1.7 -4.15 -1.75 -3.35 -1.45 -3.2 -1.4 -2.9 -1.45 -2.85 -1.45 -2.7 -1.45 L-2.3 -1.45 Q-2.1 -1.5 -2.0 -1.55 -1.8 -1.65 -1.3 -1.65 -0.95 -1.65 -0.65 -1.6 -0.4 -1.5 -0.25 -1.45 -0.1 -1.35 -0.3 -1.25 L-0.35 -1.25 Q-0.5 -1.3 -0.65 -1.3 L-0.9 -1.3 Q-1.05 -1.3 -1.15 -1.25 L-1.15 -1.2 Q-0.95 -1.15 -0.8 -1.05 -0.8 -1.0 -0.8 -0.9 -0.85 -0.85 -1.05 -0.8 -1.05 -0.85 -1.05 -0.9 -1.2 -0.95 -1.25 -1.0 -1.3 -1.05 -1.3 -1.1 -1.8 -1.25 -3.2 -1.25 L-3.2 -1.3 Q-3.55 -1.35 -4.0 -1.3 -5.3 -1.15 -5.15 -1.0 -5.8 -0.85 -5.85 -0.5 -5.9 -0.45 -6.0 -0.4 L-6.05 -0.4 -5.95 -0.35 Q-5.9 -0.4 -5.8 -0.4 L-5.75 -0.4 Q-5.8 -0.4 -5.75 -0.35 L-5.7 -0.35 Q-4.65 0.15 -4.1 -0.3 -3.9 -0.3 -3.8 -0.25 L-3.9 -0.25 Q-3.7 -0.2 -3.55 -0.15 L-3.5 -0.1 Q-3.45 -0.1 -3.45 -0.05 L-3.55 -0.05 Q-3.6 0.0 -3.65 0.05 L-3.7 0.05 Q-4.0 0.1 -4.3 0.05 -4.7 0.0 -5.15 0.0 -5.2 0.0 -5.2 0.05 L-5.15 0.05 Q-4.85 0.05 -4.65 0.15 -4.8 0.15 -4.95 0.15 L-4.95 0.2 -5.05 0.15 Q-5.3 0.15 -5.65 0.15 -6.1 0.1 -6.2 0.0 -6.35 -0.05 -6.45 -0.05 -6.0 -0.15 -6.15 -0.4 -6.25 -0.45 -6.4 -0.45 -9.0 -0.7 -7.65 -0.1 -7.1 -0.05 -6.75 -0.05 -6.7 0.0 -6.7 0.05 -6.85 0.1 -7.15 0.2 -7.55 0.25 -7.95 0.25 -7.5 0.2 -7.05 0.1 -7.1 0.05 -7.2 0.05 -8.1 0.15 -9.0 0.25 -9.2 0.2 -9.4 0.2 -8.5 0.1 -7.65 -0.05 L-7.7 -0.05 Q-8.75 0.05 -9.9 0.1 -10.55 -0.05 -11.05 -0.2 -10.55 -0.4 -10.3 -0.65 -9.95 -0.6 -9.95 -0.45 -9.95 -0.3 -9.85 -0.2 -9.6 -0.2 -9.45 -0.2 -9.3 -0.25 -9.1 -0.35 L-9.0 -0.35 Q-9.15 -0.4 -9.25 -0.45 -8.8 -0.8 -8.05 -1.05 -7.95 -1.05 -7.9 -1.0 -7.65 -0.9 -7.4 -0.85 -7.6 -0.8 -7.65 -0.7 L-7.6 -0.7 Q-6.85 -0.8 -6.5 -1.0 -6.35 -1.0 -6.25 -1.0 -6.65 -1.15 -6.65 -1.25 -5.9 -1.3 -5.15 -1.3 -5.2 -1.35 -5.25 -1.35 -5.95 -1.35 -6.6 -1.35 -6.55 -1.4 -6.5 -1.45 L-6.55 -1.45 Q-6.55 -1.5 -6.5 -1.55 M-9.0 -0.95 Q-9.6 -0.75 -9.45 -0.6 -9.4 -0.8 -9.0 -0.95 M-0.5 -1.35 L-0.55 -1.3 -0.5 -1.3 -0.5 -1.35 M-3.15 -1.35 L-3.15 -1.35 M-0.35 -0.25 L-0.3 -0.3 Q-0.4 -0.25 -0.5 -0.25 -0.45 -0.25 -0.35 -0.25 M-4.5 0.35 Q-4.35 0.4 -4.2 0.4 -4.55 0.45 -4.9 0.55 -5.05 0.4 -4.85 0.3 L-4.8 0.3 Q-4.55 0.3 -4.5 0.35 M-11.85 0.1 L-11.8 0.1 Q-11.8 0.05 -11.85 0.0 -12.25 -0.05 -12.6 -0.1 -12.6 0.0 -12.4 0.1 L-11.85 0.1 M-12.2 0.15 L-12.05 0.2 -12.0 0.2 -12.2 0.15 Z" fill="none" stroke="#ffffff" stroke-linecap="round" stroke-linejoin="round" stroke-opacity="0.3529412" stroke-width="0.2"/>
  </g>
</svg>
