<?xml version="1.0" encoding="UTF-8" standalone="no"?>
<svg xmlns:ffdec="https://www.free-decompiler.com/flash" xmlns:xlink="http://www.w3.org/1999/xlink" ffdec:objectType="shape" height="8.0px" width="8.05px" xmlns="http://www.w3.org/2000/svg">
  <g transform="matrix(1.0, 0.0, 0.0, 1.0, 3.6, 5.05)">
    <path d="M1.15 2.0 L1.2 2.1 Q1.05 2.3 0.85 2.55 L0.6 2.95 0.4 2.95 Q-0.05 2.95 -0.5 2.85 0.3 2.45 1.05 1.9 L1.1 1.85 1.15 2.0 M4.2 0.35 L4.15 0.25 4.25 0.1 4.2 0.35 M3.65 -0.1 L3.6 -0.1 Q3.65 -0.55 3.65 -0.95 4.1 -1.2 4.4 -1.5 4.45 -1.3 4.45 -1.05 4.45 -0.65 4.35 -0.3 4.25 -0.05 4.05 0.2 3.9 0.0 3.65 -0.1 M3.15 -1.1 Q3.2 -1.15 3.3 -1.2 L3.3 -1.1 3.15 -1.1 M4.35 -1.95 Q4.4 -1.8 4.4 -1.6 4.1 -1.25 3.65 -1.15 L3.65 -1.4 Q3.8 -1.5 3.95 -1.6 4.2 -1.75 4.35 -1.95 M0.7 -1.6 Q0.75 -2.3 0.0 -2.2 -0.05 -2.2 -0.15 -2.15 -0.45 -2.0 -0.45 -1.6 -0.35 -0.6 0.65 -0.95 0.45 -0.95 0.3 -1.0 0.7 -1.15 0.7 -1.6 M3.3 -3.85 Q2.95 -3.9 2.65 -3.75 2.6 -4.1 2.55 -4.45 2.9 -4.25 3.25 -3.9 L3.3 -3.85 M2.25 -4.65 Q2.25 -4.5 2.3 -4.3 2.35 -3.95 2.45 -3.6 2.2 -3.45 2.0 -3.1 1.1 -1.8 2.45 -1.15 2.6 -1.05 2.7 -1.0 2.95 -0.75 3.25 -0.8 L3.25 -0.6 3.2 -0.25 Q1.75 -0.65 1.15 0.85 1.05 1.15 1.05 1.45 L0.75 1.65 Q-0.05 2.2 -0.95 2.7 -1.75 2.45 -2.4 1.8 -2.8 1.4 -3.05 0.95 -3.05 0.1 -2.95 -0.75 L-2.95 -0.9 Q-2.25 -0.2 -1.15 -1.05 -0.6 -1.45 -0.45 -2.15 -0.1 -3.7 -1.9 -3.8 L-2.0 -3.8 Q-1.8 -4.0 -1.6 -4.2 L-0.95 -4.85 Q-0.3 -5.05 0.4 -5.05 L0.45 -5.05 Q0.0 -4.7 -0.4 -4.2 0.25 -4.55 1.05 -5.0 1.7 -4.95 2.25 -4.65 M1.05 2.9 L1.4 2.45 Q1.6 2.6 1.75 2.75 1.45 2.85 1.05 2.9 M0.0 -0.5 Q-0.1 -0.3 -0.2 -0.15 L-0.35 -0.35 Q-0.65 -0.8 -1.2 -0.75 -2.15 -0.3 -1.75 0.65 -1.7 0.8 -1.65 0.8 -0.6 1.1 0.0 0.15 L-0.15 -0.1 Q0.05 -0.4 0.2 -0.8 0.1 -0.7 0.0 -0.5 M-1.3 -0.35 L-1.25 -0.35 Q-1.2 -0.35 -1.25 -0.35 L-1.3 -0.35 M-3.25 -1.35 Q-3.2 -1.2 -3.1 -1.1 -3.3 -0.4 -3.3 0.35 L-3.3 0.4 Q-3.45 0.05 -3.5 -0.3 -3.4 -0.85 -3.25 -1.35 M-3.5 -1.95 Q-3.45 -1.8 -3.4 -1.6 L-3.35 -1.55 Q-3.5 -1.3 -3.6 -1.05 -3.6 -1.55 -3.5 -1.95 M-2.95 -3.25 Q-2.7 -3.6 -2.4 -3.9 -2.05 -4.25 -1.7 -4.5 -2.05 -4.1 -2.3 -3.65 -2.7 -3.5 -2.95 -3.25" fill="#ffffff" fill-opacity="0.101960786" fill-rule="evenodd" stroke="none"/>
  </g>
</svg>
