<?xml version="1.0" encoding="UTF-8" standalone="no"?>
<svg xmlns:ffdec="https://www.free-decompiler.com/flash" xmlns:xlink="http://www.w3.org/1999/xlink" ffdec:objectType="shape" height="13.55px" width="4.2px" xmlns="http://www.w3.org/2000/svg">
  <g transform="matrix(1.0, 0.0, 0.0, 1.0, 1.75, 12.1)">
    <path d="M-1.5 -1.95 Q-1.45 -2.1 -1.2 -1.1 -0.9 -0.1 -0.9 0.45 -0.85 1.4 -1.25 1.45 -1.6 1.5 -1.7 1.05 L-1.75 0.6 Q-1.8 -0.05 -1.7 -0.8 -1.65 -1.75 -1.5 -1.95" fill="#860086" fill-rule="evenodd" stroke="none"/>
    <path d="M1.7 -10.5 Q1.75 -11.05 1.85 -11.45 2.1 -12.4 2.3 -12.0 2.45 -11.65 2.45 -11.0 2.45 -10.45 2.2 -9.3 1.75 -7.9 1.5 -7.0 1.2 -5.75 1.15 -4.85 L1.1 -4.9 1.1 -4.1 1.05 -3.45 Q1.05 -1.8 1.5 -0.8 L1.8 -0.05 Q1.9 0.4 1.9 1.0 L1.9 1.15 Q1.8 1.4 1.5 1.4 L1.2 1.4 Q0.95 1.4 0.75 1.0 L0.65 0.55 Q0.65 0.35 0.65 0.1 L0.7 -0.35 0.35 -2.05 Q0.05 -3.55 0.05 -4.1 0.05 -4.9 0.25 -4.7 0.4 -4.6 0.6 -3.85 L0.8 -3.05 0.85 -3.65 0.85 -3.75 Q0.95 -4.65 0.95 -5.2 L1.05 -6.0 1.05 -6.1 Q1.05 -6.45 1.3 -7.65 L1.3 -7.75 Q1.55 -8.7 1.6 -9.2 L1.7 -9.6 1.7 -10.5" fill="#350034" fill-opacity="0.8" fill-rule="evenodd" stroke="none"/>
    <path d="M0.1 -4.9 Q0.1 -4.05 0.35 -0.2 0.35 0.1 0.3 0.35 L0.2 0.85 Q-0.05 1.4 -0.35 1.4 L-0.7 1.4 Q-1.3 1.35 -1.3 0.55 L-1.3 0.7 -1.1 0.8 -1.1 0.75 -1.2 0.65 -1.2 0.5 -1.25 0.3 -1.25 0.2 Q-1.25 -0.15 -0.8 -1.6 -0.45 -2.6 -0.4 -3.35 L-0.35 -4.1 -0.4 -4.5 Q-0.4 -5.25 -0.6 -6.25 L-0.65 -6.75 -0.7 -6.8 -0.75 -7.0 Q-0.95 -7.5 -0.95 -8.0 -0.95 -8.8 -0.6 -8.95 L-0.4 -9.0 -0.35 -9.0 -0.35 -8.85 Q-0.05 -8.65 0.0 -7.95 L0.0 -7.9 -0.05 -6.95 Q-0.05 -6.2 0.1 -5.0 L0.1 -4.9" fill="#c800c2" fill-opacity="0.8" fill-rule="evenodd" stroke="none"/>
  </g>
</svg>
