<?xml version="1.0" encoding="UTF-8" standalone="no"?>
<svg xmlns:ffdec="https://www.free-decompiler.com/flash" xmlns:xlink="http://www.w3.org/1999/xlink" ffdec:objectType="shape" height="14.25px" width="19.9px" xmlns="http://www.w3.org/2000/svg">
  <g transform="matrix(1.0, 0.0, 0.0, 1.0, 16.35, 19.4)">
    <path d="M0.95 -16.05 L0.95 -16.0 1.0 -16.0 1.0 -15.9 1.05 -15.85 1.05 -15.7 1.1 -15.65 1.1 -15.2 1.05 -15.2 1.05 -15.15 0.9 -15.15 0.9 -15.2 0.85 -15.2 0.8 -15.25 0.8 -15.3 0.7 -15.3 0.7 -15.2 0.75 -15.2 0.75 -15.1 0.9 -14.95 0.9 -14.9 0.95 -14.85 0.95 -14.7 1.0 -14.65 1.0 -14.55 1.05 -14.55 1.05 -14.35 1.1 -14.35 1.1 -14.1 1.05 -14.1 1.05 -13.95 0.95 -13.85 0.85 -13.85 0.85 -13.9 0.8 -13.95 0.7 -13.95 0.65 -14.0 0.5 -14.0 0.5 -13.95 0.55 -13.95 0.55 -13.8 0.6 -13.8 0.6 -13.7 0.5 -13.6 0.5 -13.55 0.4 -13.45 0.4 -13.35 0.35 -13.3 0.35 -13.25 0.3 -13.25 0.25 -13.2 0.0 -13.2 0.0 -13.25 -0.05 -13.2 -0.05 -13.15 -0.1 -13.15 -0.1 -13.1 -0.15 -13.05 -0.15 -13.0 -0.2 -12.95 -0.2 -12.9 -0.25 -12.85 -0.25 -12.8 -0.3 -12.8 -0.3 -12.75 -0.35 -12.75 Q-0.35 -12.7 -0.4 -12.7 L-0.4 -12.65 -0.45 -12.65 -0.45 -12.6 -0.55 -12.6 -0.6 -12.55 -0.65 -12.6 -0.7 -12.6 -1.0 -12.65 -1.05 -12.65 -1.15 -12.7 -1.15 -12.65 -1.05 -12.55 -1.05 -12.35 -1.0 -12.3 -0.95 -12.2 -0.95 -12.1 -0.9 -12.1 -0.9 -11.85 -0.85 -11.8 -0.8 -11.8 -0.75 -11.85 -0.7 -11.85 -0.7 -11.9 -0.65 -11.9 -0.6 -11.95 -0.55 -11.95 -0.55 -12.0 -0.5 -12.0 -0.5 -12.05 -0.45 -12.05 -0.45 -12.1 -0.15 -12.1 -0.15 -11.9 -0.05 -11.9 0.0 -11.85 0.0 -11.8 0.05 -11.8 0.1 -11.75 0.15 -11.75 0.2 -11.7 0.2 -11.65 0.4 -11.65 0.45 -11.7 0.55 -11.7 0.65 -11.75 0.7 -11.75 0.75 -11.8 0.8 -11.8 0.8 -11.9 0.85 -11.9 0.85 -11.95 0.9 -11.95 0.9 -12.0 0.95 -12.0 1.0 -12.05 1.05 -12.05 1.05 -12.1 1.3 -12.1 1.3 -12.05 1.35 -12.05 1.4 -12.0 1.5 -11.95 1.55 -11.9 1.8 -11.85 1.85 -11.85 Q1.85 -11.8 1.9 -11.8 L2.0 -11.75 2.0 -11.7 2.05 -11.7 2.05 -11.65 2.1 -11.6 2.1 -11.45 2.05 -11.45 2.05 -11.35 2.1 -11.3 2.1 -11.25 2.15 -11.25 2.15 -11.05 2.1 -11.05 2.1 -10.95 Q2.15 -10.95 2.25 -11.0 L2.25 -11.05 2.3 -11.05 2.4 -11.15 2.45 -11.15 2.5 -11.2 2.5 -11.25 2.55 -11.25 2.65 -11.3 2.75 -11.3 2.85 -11.2 2.9 -11.2 2.9 -11.15 3.05 -11.15 3.05 -11.2 3.1 -11.2 3.1 -11.25 3.15 -11.3 3.25 -11.35 3.45 -11.35 3.5 -11.3 3.5 -11.25 3.55 -11.2 3.55 -10.9 3.5 -10.9 3.5 -10.8 3.35 -10.65 3.2 -10.65 3.2 -10.6 3.25 -10.55 3.25 -10.4 3.3 -10.4 3.3 -10.2 3.2 -10.15 3.15 -10.1 3.0 -10.1 3.0 -10.05 3.05 -10.05 3.1 -10.0 3.1 -9.85 3.0 -9.75 2.95 -9.75 2.95 -9.7 2.9 -9.7 2.9 -9.65 2.85 -9.65 2.75 -9.55 2.75 -9.6 2.85 -9.7 2.85 -9.75 2.9 -9.75 2.9 -9.8 3.0 -9.9 2.9 -9.95 2.85 -10.0 2.85 -10.05 2.95 -10.15 3.05 -10.2 Q3.15 -10.25 3.2 -10.3 L3.2 -10.4 3.15 -10.45 3.15 -10.5 3.1 -10.55 3.1 -10.65 3.0 -10.65 3.0 -10.7 2.95 -10.7 2.95 -10.65 2.9 -10.6 2.9 -10.55 2.8 -10.45 2.8 -10.35 2.75 -10.3 2.65 -10.3 2.7 -10.35 2.65 -10.35 2.65 -10.4 2.6 -10.4 2.6 -10.35 2.55 -10.3 2.5 -10.3 2.5 -10.45 2.55 -10.45 2.55 -10.5 2.6 -10.55 2.65 -10.5 2.7 -10.5 2.7 -10.45 2.75 -10.45 2.8 -10.55 2.8 -10.65 2.85 -10.65 2.85 -10.75 2.9 -10.75 2.9 -10.8 2.95 -10.8 2.95 -10.85 3.0 -10.8 3.05 -10.8 3.05 -10.7 3.1 -10.7 3.1 -10.8 3.15 -10.85 3.2 -10.85 3.25 -10.8 3.25 -10.75 3.35 -10.75 3.4 -10.8 3.4 -10.85 3.45 -10.85 3.45 -10.95 3.5 -11.0 3.5 -11.1 3.45 -11.15 3.45 -11.2 3.4 -11.25 3.25 -11.25 3.2 -11.2 3.2 -11.15 3.05 -11.0 2.95 -11.0 2.85 -11.05 2.75 -11.15 2.7 -11.15 2.6 -11.15 2.55 -11.1 Q2.45 -11.05 2.35 -11.0 L2.2 -10.85 2.15 -10.85 2.15 -10.8 2.05 -10.8 2.0 -10.75 2.0 -10.25 2.05 -10.2 2.05 -10.15 2.1 -10.1 2.1 -10.0 2.05 -9.95 Q2.05 -9.9 2.05 -9.85 L2.0 -9.8 1.95 -9.7 1.95 -9.65 1.65 -9.65 1.65 -9.7 1.55 -9.7 1.5 -9.75 1.45 -9.75 1.45 -9.8 1.4 -9.8 1.4 -9.75 1.35 -9.75 1.35 -9.65 1.4 -9.65 1.4 -9.5 1.35 -9.45 1.4 -9.4 1.4 -9.25 1.35 -9.25 1.35 -9.1 1.3 -9.05 1.3 -8.9 1.25 -8.9 1.25 -8.8 1.2 -8.8 1.2 -8.7 Q1.2 -8.65 1.15 -8.6 L1.1 -8.5 1.05 -8.45 1.05 -8.35 1.0 -8.35 0.95 -8.3 0.6 -8.3 0.6 -8.35 0.55 -8.35 0.55 -8.4 0.45 -8.5 0.4 -8.5 0.4 -8.55 0.35 -8.55 0.3 -8.6 0.3 -8.65 0.25 -8.7 0.2 -8.7 0.05 -8.85 0.0 -8.85 0.0 -9.2 -0.05 -9.25 -0.05 -9.55 -0.1 -9.6 -0.1 -9.7 -0.2 -9.75 -0.25 -9.8 -0.3 -9.8 -0.3 -9.75 -0.6 -9.75 -0.6 -9.8 -0.65 -9.85 -0.65 -9.9 -0.75 -10.0 -0.8 -9.95 -0.85 -9.95 -0.85 -9.9 -0.9 -9.9 -0.9 -9.35 -0.95 -9.35 -0.95 -9.2 -1.0 -9.15 -1.0 -8.95 -1.05 -8.9 -1.05 -8.8 -1.1 -8.75 -1.1 -8.7 -1.15 -8.65 -1.15 -8.6 -1.2 -8.6 -1.2 -8.55 -1.15 -8.55 -1.15 -8.45 -0.95 -8.4 -0.9 -8.4 -0.9 -8.45 -0.7 -8.45 -0.65 -8.4 -0.65 -8.3 -0.6 -8.3 -0.6 -8.05 -0.55 -8.0 -0.55 -7.9 -0.5 -7.9 -0.5 -7.7 -0.45 -7.65 -0.45 -7.6 -0.35 -7.7 -0.3 -7.7 -0.3 -7.75 -0.25 -7.75 -0.25 -7.7 -0.1 -7.65 -0.05 -7.6 -0.05 -7.4 0.0 -7.4 0.0 -7.25 0.05 -7.2 0.05 -7.05 0.0 -7.0 0.0 -6.95 -0.05 -6.95 -0.05 -6.9 -0.1 -6.9 -0.1 -6.85 -0.15 -6.85 -0.15 -6.7 Q-0.15 -6.6 -0.2 -6.55 L-0.2 -6.35 -0.15 -6.25 0.25 -6.25 Q0.3 -6.25 0.3 -6.3 L0.6 -6.6 0.6 -6.65 0.65 -6.65 0.65 -6.7 0.7 -6.75 0.75 -6.75 0.75 -6.9 0.8 -6.95 0.8 -7.05 0.85 -7.1 1.0 -7.1 1.0 -7.0 1.05 -7.0 1.15 -6.95 1.2 -6.9 1.25 -6.9 1.25 -6.85 1.35 -6.85 1.35 -6.8 1.4 -6.8 1.45 -6.75 1.5 -6.65 1.5 -6.6 1.55 -6.55 1.55 -6.35 1.6 -6.3 1.6 -6.15 1.45 -6.0 1.45 -5.95 1.1 -5.95 1.1 -5.9 1.15 -5.85 1.15 -5.75 1.2 -5.7 1.2 -5.45 Q1.2 -5.4 1.15 -5.35 L1.1 -5.3 1.1 -5.25 1.0 -5.15 1.0 -5.3 1.05 -5.35 1.05 -5.4 1.1 -5.45 1.1 -5.65 1.05 -5.7 1.05 -5.8 1.0 -5.85 1.0 -6.1 1.05 -6.15 1.15 -6.15 1.3 -6.1 Q1.35 -6.1 1.4 -6.15 L1.45 -6.2 1.45 -6.45 1.4 -6.5 1.4 -6.6 1.35 -6.6 1.35 -6.65 1.3 -6.7 1.3 -6.75 1.2 -6.75 1.2 -6.8 1.15 -6.8 1.15 -6.85 1.05 -6.85 1.0 -6.9 1.0 -7.0 0.95 -7.0 0.95 -7.05 0.85 -7.05 0.85 -7.0 0.8 -6.95 0.8 -6.75 0.75 -6.7 0.7 -6.7 0.65 -6.65 0.65 -6.6 0.55 -6.5 0.55 -6.45 0.5 -6.45 0.45 -6.4 0.45 -6.35 0.4 -6.35 0.4 -6.3 0.35 -6.3 0.35 -6.25 0.3 -6.25 0.3 -6.2 0.45 -6.2 0.45 -6.25 0.5 -6.25 0.55 -6.2 0.55 -5.7 0.5 -5.7 0.5 -5.65 0.25 -5.65 0.25 -5.7 0.05 -5.7 0.05 -5.65 0.0 -5.6 0.0 -5.55 -0.05 -5.45 -0.05 -5.75 0.0 -5.75 0.05 -5.8 0.25 -5.8 0.3 -5.75 0.4 -5.75 0.45 -5.8 0.45 -6.05 0.4 -6.05 0.2 -6.1 0.15 -6.1 0.15 -6.15 -0.15 -6.15 -0.2 -6.2 -0.25 -6.2 -0.3 -6.25 -0.3 -6.35 -0.25 -6.4 -0.25 -6.9 -0.15 -7.0 -0.1 -7.0 -0.05 -7.05 -0.05 -7.2 -0.1 -7.25 -0.1 -7.45 -0.15 -7.5 -0.15 -7.55 -0.3 -7.6 -0.35 -7.55 -0.4 -7.55 -0.55 -7.4 -0.55 -7.3 -0.6 -7.25 -0.6 -7.2 -0.65 -7.1 -0.85 -7.1 -0.85 -7.15 -0.9 -7.1 -0.9 -6.95 -0.95 -6.9 -0.95 -6.85 -0.9 -6.8 -0.85 -6.7 -0.75 -6.6 -0.7 -6.6 -0.7 -6.65 -0.6 -6.75 -0.5 -6.75 -0.5 -6.65 -0.45 -6.65 -0.45 -6.55 Q-0.45 -6.5 -0.45 -6.45 L-0.45 -6.3 -0.5 -6.3 -0.5 -6.15 -0.55 -6.15 -0.55 -6.1 -0.6 -6.1 -0.8 -6.15 -0.9 -6.15 -0.95 -6.2 -1.0 -6.2 -1.05 -6.25 -1.05 -6.3 -1.1 -6.35 -1.15 -6.35 -1.15 -6.4 -1.25 -6.4 -1.3 -6.35 -1.4 -6.35 -1.5 -6.25 -1.6 -6.25 -1.65 -6.2 -1.7 -6.2 -1.7 -6.25 -1.9 -6.25 -1.9 -6.2 -1.85 -6.2 -1.85 -6.15 -1.9 -6.1 -1.9 -5.4 -1.95 -5.4 -1.95 -6.15 -2.0 -6.15 -2.0 -6.35 -1.9 -6.35 -1.8 -6.4 -1.7 -6.4 -1.7 -6.35 -1.65 -6.35 -1.5 -6.4 Q-1.45 -6.4 -1.4 -6.45 L-1.4 -6.5 -1.3 -6.5 -1.25 -6.55 -1.15 -6.55 -1.1 -6.5 -1.05 -6.5 -1.0 -6.45 -1.0 -6.4 -0.95 -6.35 -0.95 -6.3 -0.85 -6.3 -0.85 -6.25 -0.75 -6.25 -0.65 -6.2 -0.6 -6.2 -0.55 -6.25 -0.55 -6.6 -0.6 -6.6 -0.6 -6.55 -0.65 -6.5 -0.65 -6.45 -0.75 -6.45 -0.8 -6.5 -0.85 -6.5 -0.9 -6.6 -1.0 -6.75 -1.05 -6.75 -1.05 -6.95 -1.0 -7.0 -1.0 -7.2 -0.95 -7.2 -0.95 -7.25 -0.8 -7.25 -0.8 -7.2 -0.7 -7.2 -0.65 -7.25 -0.65 -7.3 -0.6 -7.35 -0.6 -7.8 -0.65 -7.85 -0.65 -7.95 -0.7 -7.95 -0.7 -8.2 -0.75 -8.2 -0.75 -8.25 -0.9 -8.25 Q-1.0 -8.2 -1.2 -8.25 L-1.25 -8.25 -1.25 -8.3 -1.3 -8.3 -1.3 -8.65 -1.25 -8.7 -1.25 -8.75 -1.2 -8.75 -1.2 -8.8 -1.15 -8.85 -1.15 -8.9 -1.1 -8.95 -1.1 -9.1 -1.05 -9.15 -1.05 -9.3 -1.0 -9.35 -1.0 -9.65 -1.05 -9.7 -1.0 -9.75 -1.0 -10.0 -0.95 -10.0 -0.8 -10.15 -0.7 -10.15 -0.65 -10.1 -0.65 -10.05 -0.55 -10.0 -0.55 -9.9 -0.5 -9.9 -0.45 -9.95 -0.4 -9.95 -0.4 -9.9 -0.35 -9.9 -0.3 -9.95 -0.2 -9.95 -0.15 -9.9 -0.1 -9.9 -0.1 -9.85 -0.05 -9.85 -0.05 -9.75 0.0 -9.75 0.0 -9.7 0.05 -9.65 0.05 -9.55 0.1 -9.55 0.1 -9.0 0.15 -9.0 0.15 -8.95 0.2 -8.95 0.2 -8.9 0.25 -8.9 0.25 -8.85 0.35 -8.85 0.4 -8.8 0.4 -8.75 0.55 -8.6 0.55 -8.55 0.6 -8.55 0.6 -8.5 0.75 -8.5 0.8 -8.45 0.9 -8.45 0.9 -8.5 0.95 -8.5 0.95 -8.55 1.05 -8.65 1.05 -8.7 1.1 -8.75 1.1 -8.85 1.15 -8.9 1.15 -9.0 1.2 -9.0 1.2 -9.1 1.25 -9.1 1.25 -9.55 1.2 -9.6 1.2 -9.75 1.25 -9.8 1.25 -9.85 1.3 -9.85 1.4 -9.95 1.45 -9.95 Q1.55 -9.9 1.6 -9.85 L1.7 -9.8 1.85 -9.8 1.9 -9.85 1.9 -9.9 1.95 -9.95 1.95 -10.15 1.9 -10.15 1.9 -10.75 1.95 -10.8 1.95 -10.85 2.0 -10.9 2.0 -10.95 1.95 -10.95 2.0 -11.0 2.0 -11.2 1.95 -11.25 1.95 -11.6 1.9 -11.65 1.85 -11.65 1.85 -11.7 1.8 -11.7 1.75 -11.75 1.5 -11.75 1.5 -11.8 1.45 -11.8 1.45 -11.85 1.4 -11.85 1.35 -11.9 1.3 -11.9 1.2 -12.0 1.15 -11.95 1.1 -11.95 1.05 -11.9 0.95 -11.85 0.95 -11.8 0.9 -11.75 0.85 -11.75 0.85 -11.7 0.8 -11.7 0.75 -11.65 0.7 -11.65 0.7 -11.6 0.5 -11.6 0.45 -11.55 0.15 -11.55 0.1 -11.6 0.05 -11.6 -0.05 -11.65 -0.15 -11.75 -0.2 -11.75 -0.25 -11.8 -0.25 -11.95 -0.4 -11.95 -0.45 -11.9 -0.45 -11.85 -0.5 -11.85 -0.5 -11.8 -0.55 -11.8 -0.65 -11.7 -0.7 -11.7 -0.7 -11.65 -0.9 -11.65 -1.0 -11.75 -1.0 -12.0 -1.05 -12.0 -1.05 -12.15 -1.15 -12.25 -1.15 -12.45 -1.2 -12.5 -1.2 -12.55 -1.25 -12.55 -1.25 -12.7 -1.6 -12.7 -1.65 -12.75 -1.65 -13.0 -1.6 -13.0 -1.6 -13.1 -1.65 -13.15 -1.7 -13.15 -1.8 -13.05 -1.8 -13.0 -1.85 -12.95 -1.85 -12.8 Q-1.8 -12.8 -1.8 -12.75 L-1.8 -12.55 -1.85 -12.55 -1.85 -12.45 -1.9 -12.5 -1.9 -12.75 -2.0 -12.75 -2.05 -12.8 -2.05 -12.85 -2.1 -12.85 -2.1 -12.9 -2.2 -12.9 -2.2 -12.85 -2.25 -12.85 -2.3 -12.8 -2.4 -12.8 -2.35 -12.85 -2.3 -12.85 -2.3 -12.9 -2.25 -12.9 -2.2 -12.95 -2.15 -12.9 -2.15 -13.0 -2.1 -13.05 -2.05 -13.05 -2.0 -13.0 -2.0 -12.9 -1.95 -12.9 -1.95 -12.85 -1.9 -12.85 -1.9 -12.95 -1.85 -13.0 -1.85 -13.15 -1.8 -13.15 -1.8 -13.3 -1.75 -13.35 -1.65 -13.35 -1.6 -13.3 -1.6 -13.25 -1.5 -13.25 -1.45 -13.2 -1.45 -13.0 -1.5 -12.95 -1.5 -12.9 -1.45 -12.85 -1.4 -12.85 -1.3 -12.8 -1.25 -12.8 -1.2 -12.85 -1.1 -12.9 -1.05 -12.9 -1.0 -12.85 -0.65 -12.8 -0.5 -12.8 -0.45 -12.85 -0.4 -12.85 -0.4 -12.9 -0.35 -12.9 -0.3 -12.95 -0.3 -13.0 -0.25 -13.0 -0.2 -13.1 -0.2 -13.15 -0.15 -13.2 -0.15 -13.5 -0.1 -13.5 -0.1 -13.65 -0.15 -13.65 -0.15 -13.95 Q-0.15 -14.0 -0.1 -14.0 L-0.05 -14.1 0.0 -14.15 0.05 -14.15 0.1 -14.2 0.1 -14.3 0.15 -14.35 0.15 -14.5 0.1 -14.5 0.1 -14.55 0.0 -14.55 -0.05 -14.6 -0.05 -14.65 -0.1 -14.65 -0.1 -14.85 -0.15 -14.85 -0.15 -14.95 -0.1 -14.95 -0.1 -15.1 -0.15 -15.1 -0.15 -15.2 -0.2 -15.25 -0.25 -15.25 -0.3 -15.3 -0.3 -15.35 -0.4 -15.35 -0.45 -15.3 -0.45 -15.25 -0.5 -15.25 -0.5 -15.2 -0.55 -15.2 -0.55 -15.15 -0.65 -15.15 -0.65 -15.1 -0.8 -15.1 -0.85 -15.15 -0.9 -15.15 -1.0 -15.25 -1.1 -15.45 -1.15 -15.5 -1.2 -15.5 -1.25 -15.55 -1.25 -15.9 -1.35 -16.1 Q-1.35 -16.15 -1.4 -16.2 L-1.45 -16.2 -1.5 -16.25 -1.75 -16.25 -1.75 -16.2 -1.8 -16.15 -2.15 -16.2 -2.15 -16.15 -2.2 -16.1 -2.2 -16.05 -2.6 -16.05 -2.6 -16.1 -2.7 -16.15 -2.75 -16.15 -2.75 -16.2 -2.8 -16.25 -2.85 -16.25 -2.9 -16.3 -3.05 -16.35 -3.05 -16.4 -3.1 -16.4 -3.15 -16.45 -3.15 -16.5 -3.2 -16.5 -3.3 -16.6 -3.3 -16.7 -3.2 -16.8 -3.2 -17.05 -3.25 -17.05 -3.25 -17.25 -3.2 -17.25 -3.25 -17.3 -3.25 -17.45 -3.2 -17.5 -3.2 -17.6 -3.15 -17.65 -3.15 -17.7 -3.1 -17.7 -3.05 -17.75 -3.0 -17.75 -2.95 -17.8 -2.8 -17.8 -2.8 -18.0 -2.85 -18.0 -2.9 -18.05 -3.1 -18.1 -3.3 -18.2 -3.45 -18.25 -3.45 -18.3 -3.9 -18.3 -3.9 -18.25 -4.3 -18.25 -4.4 -18.3 -4.5 -18.4 -4.5 -18.6 -4.6 -18.65 -4.75 -18.65 -4.9 -18.6 -4.95 -18.6 -4.95 -18.55 -5.25 -18.55 -5.35 -18.5 -5.4 -18.5 -5.4 -18.35 -5.45 -18.2 -5.5 -18.2 -5.5 -18.1 -5.55 -18.1 -5.55 -18.0 -5.6 -18.0 -5.6 -17.95 -5.65 -17.9 -5.75 -17.85 -5.8 -17.85 -5.85 -17.8 -5.85 -17.75 -5.9 -17.7 -5.9 -17.65 -5.95 -17.65 -6.0 -17.6 -6.05 -17.6 -6.25 -17.55 -6.3 -17.45 -6.35 -17.4 -6.35 -16.75 -6.4 -16.7 -6.4 -16.6 -6.45 -16.55 -6.5 -16.55 -6.5 -16.5 -6.55 -16.5 -6.55 -16.4 -6.6 -16.4 -6.6 -16.25 -6.65 -16.25 -6.7 -16.2 -6.7 -16.15 -6.75 -16.15 -6.8 -16.1 -6.8 -16.05 -6.85 -16.0 -6.95 -16.0 -7.0 -15.95 -7.05 -15.95 -7.1 -16.0 -7.15 -15.95 -7.2 -15.95 -7.2 -15.8 -7.25 -15.8 -7.25 -15.75 -7.3 -15.7 -7.3 -15.65 -7.35 -15.65 -7.35 -15.6 -7.45 -15.6 -7.45 -15.25 -7.4 -15.25 -7.4 -15.2 -7.3 -15.1 -7.3 -15.0 -7.2 -14.9 -7.2 -14.7 -7.15 -14.65 -7.15 -14.6 -7.1 -14.55 -7.1 -14.45 -6.9 -14.15 -6.85 -14.1 -6.8 -14.1 -6.8 -14.05 -6.75 -14.05 -6.75 -14.0 -6.7 -13.95 -6.65 -13.95 -6.65 -13.9 -6.6 -13.8 -6.55 -13.75 -6.5 -13.75 -6.5 -13.7 -6.45 -13.65 -6.45 -13.5 -6.5 -13.5 -6.5 -13.45 -6.45 -13.45 -6.45 -13.4 -6.25 -13.4 -6.2 -13.35 -6.0 -13.35 Q-6.0 -13.4 -5.95 -13.4 L-5.9 -13.45 -5.85 -13.45 -5.85 -13.5 -5.65 -13.5 -5.55 -13.4 -5.55 -13.3 -5.5 -13.25 -5.5 -12.8 -5.4 -12.8 -5.4 -12.75 -5.35 -12.7 -5.3 -12.7 -5.3 -12.25 -5.35 -12.25 -5.35 -12.15 -5.3 -12.15 -5.3 -11.95 -5.25 -11.95 -5.25 -11.9 -5.2 -11.9 -5.2 -11.85 -5.1 -11.85 -5.1 -11.8 -5.05 -11.75 -5.05 -11.6 Q-5.1 -11.55 -5.15 -11.45 L-5.2 -11.35 Q-5.2 -11.3 -5.25 -11.25 L-5.25 -11.15 -5.3 -11.1 -5.3 -11.05 -5.25 -11.05 -5.25 -11.0 -5.2 -11.0 -5.2 -10.9 -5.4 -10.6 -5.4 -10.5 -5.45 -10.5 -5.45 -10.35 -5.5 -10.3 -5.5 -10.0 -5.55 -9.95 -5.55 -9.6 -5.6 -9.55 -5.6 -9.45 -5.85 -9.45 -5.9 -9.55 -6.0 -9.65 -6.0 -9.75 -6.05 -9.75 -6.05 -9.7 -6.1 -9.65 -6.1 -9.6 -6.2 -9.55 -6.25 -9.55 -6.35 -9.5 -6.4 -9.5 -6.4 -9.4 -6.35 -9.35 -6.25 -9.35 -6.2 -9.4 -6.05 -9.4 -5.9 -9.25 -5.9 -8.95 -5.95 -8.95 -5.95 -8.9 -5.9 -8.85 -5.9 -8.8 -5.85 -8.75 -5.85 -8.65 -5.8 -8.6 Q-5.8 -8.55 -5.8 -8.5 L-5.8 -8.2 -5.85 -8.15 -5.85 -8.0 -5.9 -8.0 -5.9 -7.95 -6.0 -7.95 -6.0 -7.9 -6.05 -7.9 -6.1 -7.85 -6.2 -7.85 -6.2 -7.8 -6.35 -7.8 -6.4 -7.75 -6.5 -7.7 -6.55 -7.7 -6.65 -7.65 -6.75 -7.65 -6.8 -7.6 -6.85 -7.6 -6.85 -7.55 -7.05 -7.55 -7.15 -7.65 -7.2 -7.65 -7.2 -7.6 -7.25 -7.6 -7.25 -7.55 -7.35 -7.55 -7.3 -7.5 -7.3 -7.45 -7.4 -7.35 -7.45 -7.35 -7.55 -7.3 -7.7 -7.25 -7.9 -7.25 -7.9 -7.35 -8.05 -7.35 -8.05 -7.3 -8.15 -7.25 Q-8.25 -7.25 -8.35 -7.2 L-8.4 -7.15 -8.5 -7.15 -8.6 -7.1 -8.65 -7.05 -8.7 -7.05 -8.75 -7.0 -8.8 -7.0 -8.95 -6.95 -8.95 -6.9 -9.0 -6.9 -9.05 -6.85 -9.1 -6.85 -9.15 -6.9 -9.25 -6.9 -9.3 -6.95 -9.35 -6.95 -9.35 -7.0 -9.65 -7.0 -9.7 -6.95 -9.7 -6.85 -9.8 -6.75 -9.95 -6.75 -9.95 -6.8 -10.0 -6.85 -10.0 -6.8 -10.1 -6.8 -10.15 -6.75 -10.25 -6.75 -10.25 -6.95 -10.2 -7.0 -10.2 -7.25 -10.25 -7.3 -10.25 -7.4 -10.3 -7.4 -10.3 -7.45 -10.35 -7.45 -10.35 -7.5 -10.4 -7.5 -10.45 -7.5 -10.45 -7.6 -10.5 -7.65 -10.5 -7.7 -10.55 -7.75 -10.65 -7.7 -10.75 -7.75 -10.75 -7.8 -10.8 -7.8 -10.85 -7.85 -10.85 -7.8 -10.95 -7.8 -11.05 -7.75 -11.1 -7.75 -11.1 -7.7 -11.2 -7.7 -11.25 -7.65 -11.45 -7.65 -11.55 -7.75 -11.6 -7.85 -11.65 -7.9 -11.65 -8.0 -11.7 -8.0 -11.7 -8.1 -11.75 -8.2 -11.8 -8.25 -11.8 -8.35 -11.85 -8.35 -11.85 -8.45 -11.9 -8.45 -11.9 -8.35 -11.95 -8.35 -11.95 -8.4 -12.0 -8.45 -12.0 -8.5 -12.05 -8.55 -12.15 -8.6 -12.15 -8.65 -12.25 -8.65 -12.25 -8.7 -12.3 -8.7 -12.5 -8.75 -12.65 -8.75 -12.65 -8.7 -12.7 -8.65 -12.7 -8.6 -12.9 -8.6 -13.0 -8.7 -13.0 -9.2 -13.05 -9.25 -13.05 -9.35 Q-13.05 -9.4 -13.05 -9.45 L-13.05 -9.6 -13.1 -9.7 -13.05 -9.75 -13.05 -9.9 -13.0 -9.95 -13.0 -10.1 -13.05 -10.1 -13.1 -10.15 -13.15 -10.15 -13.3 -10.3 -13.3 -10.25 -13.35 -10.25 -13.35 -10.5 -13.4 -10.55 -13.35 -10.6 -13.35 -11.05 -13.3 -11.05 -13.3 -11.1 -13.2 -11.1 -13.15 -11.15 -13.15 -11.2 -12.85 -11.2 -12.85 -11.15 -12.9 -11.1 -13.05 -11.05 -13.15 -10.95 -13.2 -10.95 -13.2 -10.85 -13.25 -10.8 -13.25 -10.6 -13.3 -10.55 -13.3 -10.5 -13.25 -10.5 -13.25 -10.45 -13.2 -10.4 -13.2 -10.35 -13.15 -10.35 -13.15 -10.3 -13.1 -10.3 -13.05 -10.25 Q-13.0 -10.25 -12.95 -10.2 L-12.9 -10.15 -12.9 -9.95 -12.95 -9.95 -12.95 -9.65 Q-12.95 -9.6 -12.95 -9.55 L-12.95 -9.1 -12.9 -9.05 -12.9 -8.8 -12.85 -8.75 -12.8 -8.8 -12.75 -8.8 -12.75 -8.85 -12.7 -8.85 -12.7 -8.9 -12.5 -8.9 -12.45 -8.85 -12.25 -8.8 -12.2 -8.8 -12.1 -8.75 -12.0 -8.75 -12.0 -8.7 -11.95 -8.65 -11.95 -8.6 -11.9 -8.55 -11.8 -8.55 -11.7 -8.4 -11.6 -8.1 -11.55 -8.05 -11.55 -8.0 -11.35 -7.8 -11.3 -7.8 -11.3 -7.85 -11.25 -7.85 -11.25 -7.9 -11.2 -7.9 -11.15 -7.95 -11.15 -8.0 -11.1 -8.0 -11.05 -8.05 Q-10.95 -8.1 -10.9 -8.1 L-10.85 -8.15 -10.85 -8.2 -10.8 -8.2 -10.75 -8.25 -10.75 -8.35 -10.8 -8.35 -10.8 -8.4 -10.85 -8.4 -10.9 -8.45 -10.9 -8.65 -10.95 -8.65 -10.95 -8.85 -10.9 -8.9 -10.85 -8.9 -10.8 -8.95 -10.45 -8.95 -10.4 -9.0 -10.35 -9.0 -10.35 -9.05 -10.3 -9.05 -10.3 -9.2 -10.4 -9.2 -10.4 -9.25 -10.45 -9.25 -10.4 -9.3 -10.4 -9.35 -10.35 -9.4 -10.35 -9.45 -10.3 -9.5 -10.2 -9.45 -10.3 -9.4 -10.3 -9.35 -10.35 -9.3 -10.3 -9.3 -10.25 -9.25 -10.25 -9.2 -10.2 -9.2 -10.2 -9.15 -10.25 -9.1 -10.25 -8.95 -10.3 -8.95 -10.4 -8.85 -10.45 -8.85 -10.45 -8.8 -10.8 -8.8 -10.8 -8.75 -10.85 -8.75 -10.8 -8.7 -10.8 -8.55 -10.75 -8.55 -10.65 -8.5 -10.65 -8.35 Q-10.6 -8.3 -10.65 -8.25 L-10.65 -8.1 -10.7 -8.1 -10.75 -8.05 -10.8 -8.05 -10.8 -8.0 -10.85 -8.0 -10.9 -7.95 -10.7 -7.95 -10.7 -7.9 -10.65 -7.85 -10.6 -7.85 -10.6 -7.9 -10.5 -7.9 -10.45 -7.85 -10.45 -7.65 -10.4 -7.65 -10.4 -7.7 -10.35 -7.7 -10.35 -7.65 -10.3 -7.65 -10.3 -7.55 -10.25 -7.55 -10.2 -7.5 -10.2 -7.45 -10.15 -7.4 -10.15 -7.35 -10.1 -7.3 -10.1 -6.95 -10.05 -6.95 -10.05 -7.0 -9.95 -7.0 -9.95 -6.95 -9.9 -6.95 -9.85 -6.9 -9.85 -6.95 -9.8 -7.0 -9.8 -7.25 -9.85 -7.25 -9.85 -7.35 -9.9 -7.35 -9.9 -7.4 -9.95 -7.45 -10.1 -7.45 -10.2 -7.5 -10.2 -7.7 -10.25 -7.7 -10.25 -7.8 -10.3 -7.8 -10.3 -7.95 -10.25 -7.95 -10.25 -8.0 -10.2 -8.0 -10.2 -8.05 -10.15 -8.1 -10.0 -8.1 -10.0 -8.15 -9.9 -8.25 -9.6 -8.25 -9.5 -8.2 -9.45 -8.25 -9.45 -8.3 -9.4 -8.3 -9.4 -8.35 -8.95 -8.35 -8.9 -8.4 -8.9 -8.6 -8.85 -8.6 -8.85 -8.7 -8.8 -8.75 -8.8 -9.1 -8.85 -9.1 -8.85 -9.2 -9.0 -9.35 -9.0 -9.45 -9.05 -9.5 -9.05 -9.55 -9.15 -9.65 -9.2 -9.65 -9.25 -9.6 -9.3 -9.65 -9.4 -9.65 -9.45 -9.7 -9.5 -9.7 -9.55 -9.65 -9.75 -9.65 -9.75 -9.6 -9.8 -9.65 -9.85 -9.6 -9.9 -9.6 -9.9 -9.55 -10.0 -9.55 -10.0 -9.5 -10.05 -9.5 -10.05 -9.45 -10.15 -9.5 -10.05 -9.5 -10.05 -9.55 -10.0 -9.55 -10.0 -9.6 -9.95 -9.6 -9.95 -9.65 -9.9 -9.65 -9.9 -9.7 -9.8 -9.7 -9.75 -9.75 -9.7 -9.75 -9.7 -9.8 -9.55 -9.8 -9.55 -9.85 -9.5 -9.8 -9.35 -9.8 -9.35 -9.75 -9.3 -9.75 -9.25 -9.7 -9.05 -9.7 -9.05 -9.75 -9.0 -9.75 -8.9 -9.65 -8.9 -9.55 -8.85 -9.5 -8.85 -9.4 -8.8 -9.35 -8.8 -9.3 -8.75 -9.25 -8.75 -9.15 -8.7 -9.1 -8.7 -9.05 Q-8.7 -9.0 -8.7 -8.95 L-8.7 -8.8 -8.75 -8.75 -8.75 -8.5 -8.8 -8.45 -8.8 -8.3 -8.85 -8.3 -8.85 -8.25 -8.9 -8.25 -8.9 -8.2 -9.0 -8.2 -9.3 -8.15 -9.5 -8.15 -9.8 -8.1 -9.85 -8.1 -9.9 -8.05 -9.9 -8.0 -9.95 -7.95 -10.1 -7.9 -10.15 -7.85 -10.05 -7.75 -10.05 -7.65 Q-10.05 -7.6 -10.0 -7.6 L-9.85 -7.6 -9.85 -7.55 -9.8 -7.55 -9.8 -7.45 -9.75 -7.45 -9.75 -7.35 -9.7 -7.35 -9.7 -7.1 -9.65 -7.1 -9.6 -7.15 -9.45 -7.15 -9.45 -7.1 -9.25 -7.1 -9.2 -7.05 -9.05 -7.05 -9.05 -7.1 -8.95 -7.1 -8.8 -7.15 -8.75 -7.15 -8.7 -7.2 Q-8.65 -7.2 -8.6 -7.25 L-8.5 -7.3 -8.4 -7.3 -8.4 -7.35 -8.35 -7.35 -8.3 -7.4 -8.2 -7.45 Q-8.1 -7.45 -8.05 -7.5 L-8.0 -7.55 -7.9 -7.55 -7.85 -7.5 -7.85 -7.45 -7.8 -7.4 -7.7 -7.4 -7.7 -7.45 -7.65 -7.45 -7.6 -7.5 -7.5 -7.5 -7.5 -7.55 -7.45 -7.55 -7.45 -7.6 Q-7.4 -7.6 -7.35 -7.65 L-7.25 -7.75 -7.1 -7.75 -7.05 -7.7 -6.8 -7.7 -6.7 -7.75 -6.65 -7.75 -6.35 -7.9 -6.3 -7.9 -6.15 -8.0 -6.0 -8.05 -5.95 -8.1 -5.95 -8.2 -5.9 -8.2 -5.9 -8.6 -5.95 -8.65 -5.95 -8.75 -6.0 -8.8 -6.0 -8.85 -6.05 -8.85 -6.05 -9.0 -6.0 -9.05 -6.0 -9.1 -5.95 -9.15 -6.0 -9.2 -6.05 -9.2 -6.05 -9.25 -6.25 -9.25 -6.3 -9.2 -6.35 -9.25 -6.45 -9.25 -6.45 -9.3 -6.5 -9.3 -6.5 -9.75 -6.45 -9.8 -6.45 -9.85 -6.35 -9.95 -6.4 -10.0 -6.5 -10.05 -6.55 -10.05 -6.55 -10.1 -6.6 -10.15 -6.6 -10.25 -6.65 -10.25 -6.7 -10.3 -6.7 -10.35 -6.75 -10.4 -6.75 -10.7 -6.7 -10.7 -6.65 -10.75 -6.4 -10.75 -6.3 -10.8 -6.25 -10.8 -6.2 -10.9 -6.1 -11.0 -6.1 -11.05 -6.0 -11.15 -5.9 -11.3 -5.85 -11.35 -5.75 -11.35 -5.75 -11.4 -5.65 -11.45 -5.55 -11.45 -5.45 -11.55 -5.45 -11.65 -5.4 -11.65 -5.4 -11.85 -5.45 -11.85 -5.45 -12.25 -5.4 -12.25 -5.4 -12.6 -5.45 -12.6 -5.45 -12.65 -5.5 -12.65 -5.6 -12.75 -5.6 -13.2 -5.65 -13.25 -5.65 -13.3 -5.7 -13.35 -5.8 -13.35 -5.85 -13.3 -5.85 -13.25 -6.25 -13.2 -6.3 -13.25 -6.3 -13.2 -6.45 -13.2 -6.55 -13.25 -6.6 -13.3 Q-6.65 -13.35 -6.65 -13.4 L-6.65 -13.7 -6.9 -13.95 -6.95 -13.95 -6.95 -14.05 -7.0 -14.05 -7.0 -14.1 -7.05 -14.1 -7.05 -14.15 -7.1 -14.2 -7.1 -14.25 -7.15 -14.25 -7.15 -14.35 -7.2 -14.35 -7.2 -14.45 -7.25 -14.45 -7.25 -14.55 -7.3 -14.55 -7.3 -14.85 -7.35 -14.85 -7.35 -14.95 -7.4 -14.95 -7.4 -15.05 -7.45 -15.1 -7.45 -15.15 -7.5 -15.2 -7.5 -15.45 -7.55 -15.45 -7.55 -15.6 -7.5 -15.65 -7.45 -15.75 -7.4 -15.75 -7.35 -15.7 -7.3 -15.75 -7.3 -15.8 -7.25 -15.8 -7.25 -16.0 -7.2 -16.05 -7.2 -16.1 -7.05 -16.1 Q-7.0 -16.15 -6.95 -16.2 L-6.9 -16.2 -6.85 -16.25 -6.75 -16.3 -6.7 -16.4 -6.65 -16.45 -6.65 -16.5 -6.6 -16.55 -6.6 -16.65 -6.5 -16.75 -6.5 -16.9 -6.45 -16.9 -6.45 -17.1 -6.5 -17.15 -6.5 -17.5 -6.35 -17.65 -6.35 -17.7 -6.05 -17.7 -6.0 -17.75 -5.95 -17.75 -5.95 -17.85 -5.85 -17.95 -5.85 -18.0 -5.75 -18.0 -5.7 -18.05 -5.7 -18.1 -5.65 -18.15 -5.65 -18.2 -5.6 -18.25 -5.6 -18.35 -5.55 -18.4 -5.55 -18.55 -5.5 -18.6 -5.5 -18.65 -5.45 -18.65 -5.4 -18.7 -5.3 -18.7 -5.25 -18.75 -5.2 -18.75 -5.15 -18.75 -5.05 -18.8 -5.0 -18.85 -4.9 -18.9 -4.85 -18.95 -4.85 -19.0 -4.8 -19.05 -4.8 -19.1 -4.75 -19.15 -4.75 -19.2 -4.65 -19.3 -4.6 -19.3 -4.5 -19.4 -4.45 -19.4 -4.35 -19.3 -4.25 -19.3 -4.25 -19.25 -4.2 -19.25 -4.2 -19.0 -4.15 -18.95 -4.15 -18.7 -4.1 -18.7 -4.1 -18.65 -4.05 -18.6 -3.85 -18.6 -3.75 -18.7 -3.6 -18.75 -3.35 -18.8 -3.3 -18.85 -3.25 -18.85 -3.25 -18.9 -3.2 -18.9 -3.2 -18.95 -3.15 -18.95 -3.15 -19.0 -3.1 -19.0 -3.05 -19.05 -2.95 -19.05 -2.9 -19.0 -2.65 -19.0 -2.5 -18.85 -2.5 -18.75 -2.45 -18.75 -2.45 -18.6 -2.5 -18.55 -2.45 -18.55 -2.45 -18.45 -2.55 -18.35 -2.55 -18.15 -2.6 -18.1 -2.6 -18.05 -2.7 -18.0 -2.7 -17.85 -2.65 -17.8 -2.65 -17.65 -2.7 -17.65 -2.7 -17.6 -2.95 -17.6 -3.0 -17.55 -3.05 -17.55 -3.05 -17.45 -3.1 -17.4 -3.1 -17.1 -3.05 -17.05 -3.05 -16.7 -3.1 -16.65 -3.1 -16.6 -3.05 -16.6 -3.05 -16.55 -2.9 -16.5 -2.8 -16.45 -2.75 -16.45 -2.7 -16.5 -2.6 -16.45 -2.6 -16.4 -2.35 -16.4 -2.2 -16.55 -2.1 -16.55 -2.0 -16.65 -2.0 -16.7 -1.9 -16.7 -1.8 -16.75 -1.75 -16.8 -1.7 -16.8 -1.6 -16.9 -1.45 -16.95 -1.4 -16.95 -1.35 -17.0 -1.35 -17.25 -1.35 -17.3 Q-1.4 -17.3 -1.4 -17.35 L-1.5 -17.35 -1.5 -17.45 -1.55 -17.4 -1.65 -17.4 -1.75 -17.5 -1.75 -17.65 Q-1.75 -17.7 -1.7 -17.7 L-1.6 -17.8 -1.55 -17.8 -1.55 -17.75 -1.6 -17.75 -1.6 -17.6 -1.65 -17.6 -1.6 -17.55 -1.55 -17.55 -1.55 -17.6 -1.4 -17.6 -1.35 -17.55 -1.35 -17.5 -1.3 -17.45 -1.3 -17.4 -1.25 -17.35 -1.25 -17.0 -1.3 -16.95 -1.25 -16.9 -1.25 -16.8 -1.2 -16.75 -1.2 -16.6 -1.15 -16.6 -1.05 -16.5 -1.0 -16.35 -0.95 -16.35 -0.85 -16.25 -0.75 -16.25 -0.75 -16.3 -0.8 -16.35 -0.8 -16.55 -0.75 -16.55 -0.75 -16.65 -0.65 -16.7 -0.55 -16.7 -0.45 -16.65 -0.4 -16.65 -0.15 -16.4 -0.1 -16.4 -0.05 -16.35 0.0 -16.35 0.1 -16.25 0.15 -16.25 0.15 -16.2 0.2 -16.2 0.2 -16.15 0.3 -16.15 0.4 -16.1 0.5 -16.1 0.5 -16.15 0.6 -16.15 0.6 -16.2 0.85 -16.2 0.85 -16.15 0.9 -16.15 0.9 -16.1 0.95 -16.05 M0.9 -15.9 L0.85 -16.0 0.8 -16.05 0.7 -16.05 0.7 -16.0 0.55 -16.0 0.5 -15.95 0.25 -15.95 0.2 -16.0 0.15 -16.0 0.15 -16.05 0.1 -16.05 0.05 -16.1 0.05 -16.15 -0.05 -16.15 -0.05 -16.2 -0.1 -16.2 -0.1 -16.25 -0.3 -16.25 -0.3 -16.3 -0.35 -16.3 -0.35 -16.35 -0.4 -16.4 -0.4 -16.45 -0.45 -16.55 -0.45 -16.6 -0.55 -16.6 -0.6 -16.55 -0.65 -16.55 -0.65 -16.5 -0.7 -16.5 -0.7 -16.4 -0.65 -16.35 -0.65 -16.2 -0.7 -16.2 -0.7 -16.15 -0.95 -16.15 -1.0 -16.2 -1.05 -16.2 -1.05 -16.25 -1.1 -16.25 -1.1 -16.3 -1.3 -16.5 -1.3 -16.6 -1.35 -16.65 -1.35 -16.8 -1.55 -16.8 -1.65 -16.7 -1.7 -16.7 -1.75 -16.65 -1.95 -16.55 -1.95 -16.5 -2.0 -16.5 -2.0 -16.45 -2.05 -16.4 -2.1 -16.4 -2.0 -16.35 -1.95 -16.3 -1.85 -16.3 -1.85 -16.35 -1.75 -16.45 -1.65 -16.45 -1.6 -16.4 -1.45 -16.4 -1.25 -16.2 Q-1.25 -16.15 -1.2 -16.1 L-1.2 -15.95 -1.15 -15.9 -1.15 -15.85 -1.1 -15.85 -1.1 -15.7 -1.05 -15.65 -0.95 -15.65 -0.95 -15.6 -0.9 -15.55 -0.9 -15.4 -0.8 -15.3 -0.7 -15.3 -0.65 -15.35 -0.6 -15.35 -0.55 -15.4 -0.55 -15.45 -0.5 -15.45 -0.45 -15.5 -0.3 -15.45 -0.15 -15.35 0.0 -15.2 0.0 -15.15 0.05 -15.15 0.05 -14.75 0.1 -14.75 0.1 -14.7 0.15 -14.7 0.25 -14.6 0.25 -14.55 0.3 -14.5 0.3 -14.25 0.25 -14.2 0.25 -14.15 0.2 -14.1 0.2 -14.05 0.05 -13.9 0.05 -13.85 0.0 -13.85 0.0 -13.75 0.05 -13.75 0.05 -13.45 0.0 -13.45 0.0 -13.35 0.2 -13.35 0.3 -13.45 0.3 -13.5 0.4 -13.6 Q0.45 -13.65 0.45 -13.7 L0.5 -13.75 0.4 -13.85 Q0.4 -13.9 0.4 -13.95 L0.4 -14.05 0.45 -14.1 0.45 -14.15 0.75 -14.15 0.85 -14.1 0.9 -14.1 0.9 -14.15 0.95 -14.15 0.95 -14.35 0.9 -14.4 0.9 -14.6 0.85 -14.65 0.85 -14.75 0.8 -14.75 0.8 -14.9 0.75 -14.9 0.75 -15.0 0.7 -15.0 0.65 -15.05 0.65 -15.15 0.6 -15.15 0.6 -15.25 0.55 -15.3 0.55 -15.4 0.5 -15.4 0.5 -15.5 0.55 -15.5 0.55 -15.55 0.65 -15.55 0.65 -15.5 0.7 -15.5 0.9 -15.4 0.95 -15.35 0.95 -15.4 1.0 -15.45 1.0 -15.65 0.95 -15.65 0.95 -15.75 0.9 -15.8 0.9 -15.9 M-16.05 -12.35 L-16.05 -12.2 -16.1 -12.2 -16.1 -12.15 -16.15 -12.1 -16.15 -12.05 -16.2 -12.05 -16.3 -12.0 -16.35 -12.0 -16.35 -12.05 -16.25 -12.1 -16.15 -12.2 -16.15 -12.4 -16.1 -12.4 -16.1 -12.45 -16.05 -12.5 -15.85 -12.5 -15.75 -12.6 -15.6 -12.6 -15.55 -12.65 -15.45 -12.65 -15.45 -12.6 -15.35 -12.6 -15.35 -12.55 -15.25 -12.55 -15.25 -12.5 -15.2 -12.45 -15.2 -12.3 -15.3 -12.2 -15.3 -12.15 -15.25 -12.1 -15.25 -11.85 -15.15 -11.85 -15.05 -11.8 -15.15 -11.8 -15.2 -11.75 -15.25 -11.8 -15.4 -11.8 -15.4 -11.9 -15.35 -11.95 -15.35 -12.0 -15.4 -12.05 -15.4 -12.2 -15.35 -12.25 -15.35 -12.35 -15.3 -12.35 -15.3 -12.4 -15.4 -12.45 -15.4 -12.5 -15.7 -12.5 -15.75 -12.45 -15.8 -12.45 -15.85 -12.4 -16.0 -12.4 -16.05 -12.35 M-14.15 -13.25 L-14.05 -13.25 -13.95 -13.3 -13.95 -13.35 -14.05 -13.4 -14.05 -13.45 -14.1 -13.5 -14.1 -13.7 -14.0 -13.7 -14.0 -13.55 -13.95 -13.5 -13.85 -13.5 -13.85 -13.25 -13.9 -13.2 -13.9 -13.15 -14.05 -13.15 -14.1 -13.1 -14.1 -13.05 -14.2 -13.05 -14.2 -12.85 -14.05 -12.8 -14.0 -12.8 -14.0 -12.6 -13.95 -12.55 -13.95 -12.45 -14.0 -12.4 -14.0 -12.25 -13.95 -12.25 -13.95 -12.2 -13.85 -12.2 -13.85 -12.15 -13.8 -12.15 -13.75 -12.1 -13.75 -12.0 -13.7 -11.95 -13.7 -11.9 -13.65 -11.9 -13.6 -11.85 -13.45 -11.85 -13.45 -11.9 -13.35 -11.9 -13.3 -11.85 -13.2 -11.85 -13.05 -11.8 -13.0 -11.8 -12.95 -11.75 -12.95 -11.7 -12.9 -11.7 -12.85 -11.65 -12.75 -11.6 -12.75 -11.55 -12.7 -11.55 -12.7 -11.5 -12.6 -11.5 -12.6 -11.55 -12.5 -11.55 -12.5 -11.5 -12.45 -11.5 -12.4 -11.45 -12.4 -11.4 -12.35 -11.4 -12.3 -11.35 -12.25 -11.35 -12.25 -11.3 -12.2 -11.25 -12.15 -11.25 -12.15 -11.2 -12.1 -11.2 -12.1 -11.15 -12.05 -11.15 -12.0 -11.2 -11.95 -11.2 -11.95 -11.45 -11.85 -11.55 Q-11.85 -11.6 -11.8 -11.6 L-11.7 -11.6 -11.65 -11.65 -11.65 -11.7 -11.6 -11.75 -11.65 -11.75 -11.7 -11.8 -11.7 -11.85 -11.75 -11.85 -11.75 -12.0 -11.7 -12.0 -11.7 -12.05 -11.65 -12.05 -11.6 -12.1 -11.55 -12.1 -11.55 -12.25 -11.5 -12.3 -11.5 -12.35 -11.45 -12.4 -11.45 -12.6 -11.5 -12.65 -11.55 -12.65 -11.6 -12.7 -11.65 -12.7 -11.65 -12.75 -11.7 -12.75 -11.7 -12.8 -11.75 -12.85 -11.75 -12.9 -11.7 -12.9 -11.65 -12.85 Q-11.6 -12.8 -11.55 -12.8 L-11.5 -12.75 -11.45 -12.75 -11.4 -12.7 -11.3 -12.7 -11.3 -12.6 -11.35 -12.55 -11.35 -12.4 -11.4 -12.35 -11.4 -12.3 -11.45 -12.25 -11.45 -12.15 -11.5 -12.1 -11.5 -12.0 -11.55 -12.0 -11.55 -11.95 -11.6 -11.95 -11.6 -11.9 -11.55 -11.85 -11.55 -11.8 -11.5 -11.75 -11.5 -11.65 -11.55 -11.6 -11.55 -11.5 -11.65 -11.45 -11.75 -11.45 Q-11.75 -11.4 -11.8 -11.4 L-11.8 -11.35 -11.85 -11.35 -11.85 -11.15 -11.9 -11.1 -11.9 -11.05 -12.05 -11.05 -12.05 -11.0 -12.15 -11.0 -12.15 -11.05 -12.2 -11.05 -12.2 -11.1 -12.25 -11.15 -12.3 -11.15 -12.3 -11.2 -12.35 -11.25 -12.4 -11.25 -12.4 -11.3 -12.45 -11.3 -12.5 -11.35 -12.6 -11.35 -12.6 -11.3 -12.65 -11.3 -12.65 -11.25 -12.75 -11.15 -12.8 -11.15 -12.8 -11.3 -12.75 -11.35 -12.75 -11.4 -12.8 -11.45 -12.8 -11.5 -12.9 -11.5 -12.9 -11.55 -12.95 -11.55 -13.05 -11.6 -13.1 -11.65 -13.2 -11.7 -13.25 -11.75 -13.3 -11.75 -13.35 -11.8 -13.45 -11.8 -13.45 -11.75 -13.75 -11.75 -13.75 -11.8 -13.8 -11.8 -13.8 -12.0 -13.85 -12.0 -13.85 -12.1 -13.9 -12.1 -13.95 -12.05 -14.0 -12.1 -14.05 -12.1 -14.05 -12.05 -14.1 -12.0 -14.15 -11.9 -14.15 -11.8 -14.2 -11.8 -14.2 -11.75 -14.25 -11.75 -14.25 -11.7 -14.3 -11.7 -14.3 -11.65 -14.35 -11.65 -14.35 -11.6 -14.4 -11.55 -14.65 -11.55 -14.65 -11.6 -14.7 -11.65 -14.65 -11.7 -14.7 -11.7 -14.7 -11.65 -14.8 -11.65 -14.8 -11.7 -14.85 -11.7 -14.85 -11.75 -14.9 -11.7 -15.0 -11.7 -15.0 -11.75 -15.05 -11.8 -15.05 -11.85 -14.95 -11.95 -14.9 -11.9 -14.85 -11.9 -14.85 -11.85 -14.7 -11.85 -14.65 -11.8 -14.6 -11.8 -14.6 -11.7 -14.45 -11.7 -14.45 -11.75 -14.4 -11.75 -14.25 -11.9 -14.25 -12.0 -14.2 -12.0 -14.2 -12.1 -14.15 -12.1 -14.15 -12.2 -14.1 -12.2 -14.1 -12.45 -14.05 -12.5 -14.1 -12.55 -14.1 -12.7 -14.25 -12.7 -14.3 -12.75 -14.3 -13.1 -14.2 -13.2 -14.15 -13.2 -14.15 -13.25 M-2.65 -18.8 L-2.7 -18.85 -2.75 -18.85 -3.0 -18.9 -3.05 -18.85 -3.15 -18.85 -3.15 -18.8 -3.2 -18.8 -3.2 -18.75 -3.25 -18.75 -3.25 -18.7 -3.3 -18.7 -3.3 -18.65 -3.7 -18.65 -3.7 -18.55 -3.8 -18.55 -3.8 -18.5 -3.85 -18.5 -3.9 -18.45 -4.0 -18.45 -4.05 -18.5 -4.1 -18.5 -4.2 -18.55 -4.2 -18.6 -4.25 -18.65 -4.25 -18.9 -4.3 -18.9 -4.3 -19.15 -4.45 -19.15 -4.45 -19.2 -4.5 -19.2 -4.55 -19.15 -4.6 -19.15 -4.65 -19.1 -4.65 -19.05 -4.7 -19.0 -4.7 -18.95 -4.75 -18.95 -4.75 -18.85 -4.8 -18.85 -4.8 -18.8 -4.85 -18.8 -4.95 -18.7 -4.55 -18.7 -4.5 -18.65 -4.45 -18.65 -4.45 -18.4 -4.35 -18.4 -4.3 -18.35 -4.0 -18.35 -3.95 -18.4 -3.9 -18.4 -3.9 -18.45 -3.75 -18.45 -3.75 -18.5 -3.5 -18.5 -3.45 -18.45 -3.35 -18.45 -3.35 -18.4 -3.25 -18.4 Q-3.2 -18.35 -3.15 -18.3 L-3.1 -18.3 -3.0 -18.25 -2.95 -18.25 -2.9 -18.2 -2.8 -18.2 -2.75 -18.15 -2.7 -18.15 -2.65 -18.2 -2.7 -18.25 -2.7 -18.4 -2.55 -18.55 -2.55 -18.6 -2.6 -18.65 -2.6 -18.7 -2.65 -18.75 -2.65 -18.8 M-5.35 -11.8 L-5.35 -11.55 -5.4 -11.55 -5.4 -11.45 -5.45 -11.45 -5.45 -11.4 -5.55 -11.35 -5.6 -11.35 -5.65 -11.3 -5.7 -11.3 -5.7 -11.25 -5.75 -11.25 -5.8 -11.2 -5.85 -11.2 -5.85 -11.15 -5.95 -11.05 -6.0 -10.95 -6.05 -10.9 -6.05 -10.85 -6.2 -10.7 -6.25 -10.7 -6.25 -10.65 -6.4 -10.65 -6.5 -10.6 -6.6 -10.6 -6.6 -10.5 -6.65 -10.45 -6.6 -10.45 -6.6 -10.4 -6.55 -10.35 -6.55 -10.3 -6.5 -10.3 -6.5 -10.2 -6.45 -10.15 -6.35 -10.15 -6.3 -10.1 -6.25 -10.1 -6.25 -9.85 -6.3 -9.85 -6.3 -9.8 -6.35 -9.75 -6.35 -9.7 -6.4 -9.7 -6.4 -9.65 -6.2 -9.75 -6.1 -9.85 -6.1 -9.9 -5.95 -9.9 -5.95 -9.85 -5.9 -9.85 -5.9 -9.8 -5.85 -9.8 -5.85 -9.7 -5.8 -9.7 -5.8 -9.65 -5.75 -9.65 -5.75 -9.6 -5.65 -9.6 -5.65 -9.75 -5.6 -9.75 -5.6 -10.3 -5.55 -10.35 -5.55 -10.5 -5.5 -10.5 -5.5 -10.6 -5.45 -10.65 -5.45 -10.75 Q-5.4 -10.85 -5.35 -10.9 L-5.4 -10.95 -5.45 -10.95 -5.45 -11.0 -5.5 -11.0 -5.5 -11.15 -5.45 -11.2 -5.45 -11.25 -5.4 -11.25 -5.35 -11.3 -5.35 -11.35 -5.3 -11.4 -5.3 -11.5 -5.2 -11.6 -5.2 -11.65 -5.25 -11.7 -5.25 -11.75 -5.3 -11.75 -5.3 -11.8 -5.35 -11.8 M-2.4 -16.25 L-2.55 -16.25 -2.45 -16.2 -2.4 -16.2 -2.35 -16.25 -2.4 -16.25 M-2.6 -16.3 L-2.6 -16.3 M-13.7 -14.05 L-13.75 -13.95 -13.85 -13.85 -13.85 -13.8 -13.9 -13.8 -13.9 -13.75 -13.95 -13.75 -14.0 -13.8 Q-14.0 -13.85 -13.95 -13.85 L-13.9 -13.95 -13.85 -14.0 -13.85 -14.05 -13.8 -14.05 -13.8 -14.1 -13.75 -14.1 -13.7 -14.15 -13.65 -14.15 -13.65 -14.1 -13.7 -14.05 M-11.0 -7.9 L-11.0 -7.9 M-1.9 -7.25 L-1.8 -7.35 -1.8 -7.4 -1.75 -7.45 -1.7 -7.45 -1.65 -7.4 -1.55 -7.4 -1.5 -7.35 -1.5 -7.15 -1.45 -7.1 -1.45 -6.85 -1.55 -6.85 -1.55 -6.6 -1.5 -6.6 -1.5 -6.5 -1.45 -6.5 -1.45 -6.45 -1.55 -6.45 -1.55 -6.5 -1.6 -6.55 -1.6 -6.65 -1.65 -6.65 -1.65 -6.85 -1.6 -6.9 -1.6 -6.95 -1.55 -7.0 -1.55 -7.15 -1.6 -7.2 -1.6 -7.3 -1.65 -7.3 -1.7 -7.35 -1.75 -7.35 -1.75 -7.25 -1.85 -7.15 -1.85 -7.1 Q-1.85 -7.05 -1.9 -7.05 L-1.9 -7.0 -1.95 -6.95 -1.95 -6.85 -2.0 -6.85 -2.05 -6.8 -2.05 -6.75 -2.0 -6.75 -2.0 -6.5 -2.05 -6.45 -2.05 -6.4 -2.1 -6.4 -2.1 -6.35 -2.5 -6.35 -2.5 -6.3 -2.55 -6.25 -2.55 -6.1 -2.6 -6.1 -2.6 -6.2 -2.65 -6.25 -2.65 -6.3 -2.6 -6.35 -2.6 -6.45 -2.55 -6.45 -2.5 -6.5 -2.15 -6.5 -2.1 -6.55 -2.1 -6.65 -2.15 -6.7 -2.15 -6.85 -2.1 -6.9 -2.1 -6.95 -2.05 -6.95 -2.0 -7.0 -2.0 -7.05 -1.95 -7.1 -1.95 -7.15 -1.9 -7.15 -1.9 -7.25" fill="#ffffff" fill-rule="evenodd" stroke="none"/>
  </g>
</svg>
