<?xml version="1.0" encoding="UTF-8" standalone="no"?>
<svg xmlns:ffdec="https://www.free-decompiler.com/flash" xmlns:xlink="http://www.w3.org/1999/xlink" ffdec:objectType="shape" height="13.9px" width="20.15px" xmlns="http://www.w3.org/2000/svg">
  <g transform="matrix(1.0, 0.0, 0.0, 1.0, 16.3, 19.6)">
    <path d="M0.1 -17.15 L0.15 -17.15 0.15 -17.2 0.3 -17.2 0.4 -17.1 0.4 -17.05 0.5 -16.95 0.5 -16.65 0.45 -16.65 0.45 -16.7 0.4 -16.75 0.4 -16.9 0.35 -16.9 0.35 -17.0 0.3 -17.0 0.3 -17.05 0.25 -17.1 0.15 -17.05 0.1 -17.0 0.0 -17.0 -0.05 -16.95 -0.5 -17.0 -0.55 -17.0 -0.6 -16.95 -0.65 -16.95 -0.65 -16.8 -0.7 -16.8 -0.7 -16.75 -0.65 -16.75 -0.65 -16.7 -0.6 -16.65 -0.6 -16.5 -0.65 -16.45 -0.65 -16.4 -0.7 -16.35 -0.7 -16.3 -0.75 -16.3 -0.8 -16.25 -0.8 -16.2 -1.1 -16.2 -1.1 -16.25 -1.15 -16.3 -1.15 -16.35 -1.2 -16.4 -1.25 -16.4 -1.3 -16.45 -1.35 -16.45 -1.4 -16.4 -1.4 -16.35 -1.35 -16.3 Q-1.35 -16.25 -1.3 -16.2 L-1.3 -16.1 -1.25 -16.05 -1.25 -15.95 -1.3 -15.95 -1.25 -15.9 -1.25 -15.8 -1.2 -15.75 -1.2 -15.6 -1.15 -15.6 -1.15 -15.45 -1.1 -15.45 -1.1 -15.35 -1.05 -15.35 -1.05 -15.3 -1.0 -15.25 -1.0 -15.2 -0.95 -15.15 -0.95 -15.1 -1.0 -15.1 -1.0 -15.15 -1.05 -15.15 -1.2 -15.3 -1.2 -15.35 -1.25 -15.4 -1.25 -15.5 -1.3 -15.55 -1.3 -15.65 -1.35 -15.65 -1.35 -15.8 -1.4 -15.8 -1.4 -16.1 -1.45 -16.15 -1.45 -16.2 -1.5 -16.2 -1.5 -16.25 -1.55 -16.3 -1.6 -16.25 -1.6 -16.2 -1.65 -16.15 -1.85 -16.1 -1.8 -16.1 -1.8 -16.05 -1.95 -16.05 -1.95 -16.1 -2.25 -16.1 -2.25 -16.05 -2.3 -16.05 -2.45 -16.0 Q-2.7 -15.95 -2.95 -16.0 L-3.0 -16.0 -3.0 -16.05 -3.1 -16.05 -3.1 -16.1 -3.15 -16.1 -3.2 -16.15 -3.2 -16.2 -3.25 -16.2 -3.3 -16.25 -3.3 -16.3 -3.35 -16.35 -3.35 -16.55 -3.4 -16.6 -3.4 -16.85 -3.15 -17.1 -3.1 -17.1 -3.1 -17.15 -3.05 -17.15 -3.05 -17.2 -3.1 -17.25 -3.1 -17.35 -3.15 -17.4 -3.15 -17.5 -3.2 -17.5 -3.2 -17.6 -3.15 -17.6 -3.15 -17.65 -3.1 -17.7 -2.8 -17.7 -2.75 -17.75 -2.75 -17.9 -2.8 -17.9 -2.85 -17.95 -2.9 -17.95 -2.9 -18.05 -2.75 -18.05 -2.75 -18.4 -2.7 -18.4 -2.7 -18.45 -2.6 -18.55 -2.55 -18.55 -2.5 -18.6 -2.5 -18.75 -2.45 -18.75 -2.45 -18.85 -2.4 -18.85 -2.4 -19.05 -2.5 -19.05 -2.5 -19.1 -2.9 -19.1 -2.9 -19.15 -2.85 -19.2 -2.55 -19.15 -2.45 -19.1 -2.4 -19.1 -2.4 -19.05 -2.35 -19.05 -2.35 -18.55 -2.4 -18.5 -2.4 -18.45 -2.45 -18.45 -2.45 -18.4 -2.5 -18.35 -2.55 -18.35 -2.6 -18.3 -2.6 -17.95 -2.65 -17.95 -2.65 -17.65 -2.7 -17.6 -2.8 -17.55 -3.05 -17.55 -3.0 -17.5 -3.05 -17.45 -3.05 -17.4 -3.0 -17.4 -3.0 -17.0 -3.05 -17.0 -3.05 -16.95 -3.1 -16.95 -3.1 -16.9 -3.15 -16.9 -3.15 -16.85 -3.2 -16.8 -3.25 -16.8 -3.25 -16.6 -3.2 -16.55 -3.2 -16.35 -3.1 -16.25 -3.1 -16.2 -3.05 -16.2 -2.95 -16.15 -2.95 -16.1 Q-2.7 -16.05 -2.5 -16.1 L-2.45 -16.15 -2.3 -16.15 -2.3 -16.2 -2.25 -16.2 -2.25 -16.25 Q-2.1 -16.25 -2.0 -16.3 L-1.95 -16.3 -1.95 -16.25 -1.9 -16.2 Q-1.8 -16.25 -1.7 -16.3 L-1.7 -16.35 -1.6 -16.45 -1.55 -16.45 -1.55 -16.5 -1.5 -16.5 -1.5 -16.6 -1.45 -16.6 -1.45 -16.7 -1.5 -16.7 -1.5 -16.75 -1.55 -16.75 -1.65 -16.8 -1.7 -16.85 -1.7 -17.15 -1.65 -17.15 -1.65 -17.2 -1.6 -17.2 -1.6 -16.95 -1.5 -16.9 -1.45 -16.9 -1.45 -16.85 -1.4 -16.85 -1.4 -16.8 -1.35 -16.75 -1.35 -16.65 -1.4 -16.6 -1.4 -16.55 -1.25 -16.55 -1.2 -16.5 -1.2 -16.45 -1.15 -16.45 -1.15 -16.4 -1.1 -16.4 -1.1 -16.35 -1.05 -16.35 -1.05 -16.25 -0.95 -16.25 -0.95 -16.3 -0.8 -16.3 -0.8 -16.35 -0.7 -16.45 -0.7 -16.5 -0.65 -16.55 -0.65 -16.6 -0.7 -16.65 -0.7 -16.7 -0.75 -16.7 -0.75 -16.8 -0.7 -16.85 -0.7 -16.95 -0.65 -17.0 -0.65 -17.05 -0.5 -17.05 -0.4 -17.1 -0.05 -17.1 0.05 -17.15 0.1 -17.15 M0.95 -16.5 L0.95 -16.45 1.0 -16.4 1.05 -16.4 1.05 -16.35 1.15 -16.25 1.15 -16.15 1.1 -16.15 1.05 -16.2 1.05 -16.3 1.0 -16.3 1.0 -16.35 0.95 -16.35 0.95 -16.4 0.9 -16.4 0.9 -16.45 0.95 -16.45 0.95 -16.5 M1.35 -15.45 L1.35 -15.3 1.4 -15.3 1.4 -14.95 1.45 -14.9 1.45 -14.65 1.5 -14.6 1.55 -14.6 1.55 -14.35 1.5 -14.35 1.5 -14.3 1.4 -14.3 1.35 -14.35 1.25 -14.35 1.25 -14.2 1.3 -14.15 1.3 -14.05 1.35 -14.0 1.35 -13.85 1.3 -13.85 1.3 -13.75 1.2 -13.65 1.2 -13.6 Q1.05 -13.6 0.95 -13.65 L1.15 -13.7 1.2 -13.75 1.2 -13.85 1.25 -13.85 1.25 -14.05 1.15 -14.1 1.15 -14.4 1.2 -14.45 1.3 -14.45 1.3 -14.4 1.35 -14.4 1.35 -14.45 1.4 -14.4 1.5 -14.4 1.5 -14.55 1.45 -14.55 1.45 -14.6 1.4 -14.6 1.4 -14.85 1.35 -14.85 1.35 -15.05 1.3 -15.05 1.3 -15.15 1.35 -15.2 1.35 -15.45 M0.0 -14.85 L0.0 -14.75 0.05 -14.7 0.05 -14.65 0.1 -14.65 0.15 -14.7 0.25 -14.7 0.3 -14.65 0.3 -14.55 0.25 -14.5 0.3 -14.5 0.3 -14.25 0.25 -14.2 0.2 -14.2 0.2 -14.1 0.05 -13.95 -0.05 -13.95 -0.05 -13.7 -0.1 -13.7 -0.1 -13.95 -0.05 -14.0 0.05 -14.0 0.05 -14.05 0.1 -14.05 0.1 -14.1 0.15 -14.1 0.15 -14.25 0.2 -14.25 0.2 -14.5 0.1 -14.5 0.1 -14.6 0.05 -14.6 0.05 -14.65 -0.05 -14.65 -0.1 -14.7 -0.1 -15.1 -0.15 -15.15 -0.15 -15.25 -0.2 -15.25 -0.2 -15.3 -0.25 -15.35 -0.3 -15.35 -0.3 -15.4 -0.45 -15.4 -0.45 -15.35 -0.55 -15.25 -0.75 -15.25 -0.8 -15.2 -0.95 -15.2 -1.0 -15.25 -1.0 -15.3 -1.05 -15.35 -1.05 -15.4 -0.95 -15.3 -0.95 -15.25 -0.8 -15.25 -0.8 -15.3 -0.75 -15.35 -0.6 -15.35 -0.55 -15.4 -0.55 -15.45 -0.45 -15.45 -0.4 -15.5 -0.3 -15.45 -0.25 -15.4 -0.25 -15.35 -0.2 -15.35 -0.15 -15.3 -0.15 -15.25 -0.1 -15.25 -0.1 -15.2 -0.05 -15.2 -0.05 -15.15 0.0 -15.1 0.0 -14.85 M0.65 -13.85 L0.8 -13.85 0.9 -13.75 0.9 -13.7 0.8 -13.7 0.75 -13.75 0.7 -13.75 0.7 -13.55 0.65 -13.5 0.65 -13.45 0.6 -13.45 0.6 -13.4 0.4 -13.2 0.4 -13.15 0.3 -13.15 0.25 -13.2 0.25 -13.35 0.2 -13.35 0.15 -13.3 0.1 -13.3 0.05 -13.2 0.05 -12.9 0.0 -12.85 Q-0.05 -12.8 -0.1 -12.8 L-0.15 -12.75 -0.15 -12.7 -0.2 -12.65 -0.3 -12.6 -0.35 -12.55 -0.35 -12.5 Q-0.45 -12.45 -0.6 -12.45 L-0.6 -12.5 -0.7 -12.5 -0.75 -12.55 -0.8 -12.55 -0.8 -12.6 -0.85 -12.65 Q-1.05 -12.7 -1.2 -12.7 L-1.25 -12.65 Q-1.2 -12.6 -1.2 -12.55 L-1.1 -12.5 -1.1 -12.45 -1.05 -12.4 -0.95 -12.4 -0.95 -12.45 -0.9 -12.45 -0.85 -12.4 -0.85 -12.3 -0.8 -12.3 -0.8 -12.25 -0.75 -12.25 -0.75 -12.1 -0.7 -12.1 -0.7 -12.0 -0.65 -12.0 -0.65 -11.95 -0.6 -12.0 -0.5 -12.0 -0.5 -11.95 -0.55 -11.9 -0.55 -11.85 -0.7 -11.85 -0.75 -11.9 -0.8 -11.9 -0.8 -12.1 -0.9 -12.2 -0.9 -12.3 -1.05 -12.3 -1.1 -12.35 Q-1.15 -12.4 -1.2 -12.45 L-1.25 -12.55 -1.3 -12.6 -1.3 -12.65 -1.35 -12.65 -1.35 -12.7 -1.4 -12.75 -1.45 -12.75 -1.45 -12.8 -1.5 -12.8 -1.5 -12.9 -1.45 -12.95 -1.45 -13.0 -1.4 -13.0 -1.4 -13.05 -1.35 -13.1 -1.35 -13.2 -1.4 -13.25 -1.4 -13.3 -1.45 -13.3 -1.55 -13.35 -1.65 -13.35 -1.7 -13.4 -1.7 -13.6 -1.75 -13.6 -1.75 -13.55 -1.8 -13.5 -1.8 -13.3 -1.85 -13.3 -1.85 -13.65 -1.8 -13.65 -1.8 -13.75 -1.7 -13.75 -1.65 -13.7 -1.6 -13.7 -1.6 -13.5 -1.5 -13.5 -1.5 -13.45 -1.4 -13.45 -1.35 -13.4 -1.35 -13.35 -1.3 -13.3 -1.3 -13.2 -1.25 -13.2 -1.25 -13.0 -1.35 -12.9 -1.35 -12.8 -1.3 -12.75 -1.25 -12.75 -1.2 -12.8 -0.95 -12.8 -0.8 -12.75 -0.7 -12.65 -0.7 -12.6 -0.45 -12.6 -0.45 -12.65 Q-0.4 -12.7 -0.35 -12.7 -0.3 -12.75 -0.25 -12.8 L-0.25 -12.85 -0.2 -12.85 -0.2 -12.9 -0.05 -12.9 0.0 -12.95 0.0 -13.3 -0.05 -13.3 -0.05 -13.6 0.0 -13.6 0.0 -13.5 0.05 -13.45 0.05 -13.4 0.1 -13.4 0.15 -13.45 0.25 -13.45 0.3 -13.4 0.3 -13.35 0.35 -13.35 0.35 -13.3 0.55 -13.5 0.55 -13.55 0.6 -13.6 0.6 -13.65 0.65 -13.7 0.65 -13.85 M1.1 -12.35 L1.15 -12.35 1.25 -12.25 1.25 -12.2 1.35 -12.2 1.35 -12.15 1.45 -12.15 1.45 -12.1 1.65 -12.1 1.7 -12.05 1.75 -12.05 1.75 -12.0 1.85 -12.0 1.85 -11.95 2.0 -11.8 2.05 -11.8 2.05 -11.7 2.1 -11.7 2.1 -11.65 2.15 -11.6 2.15 -11.3 2.1 -11.3 2.1 -10.9 2.05 -10.9 2.05 -10.95 2.1 -10.95 2.05 -11.0 2.05 -11.1 2.0 -11.1 2.0 -11.25 2.05 -11.3 2.05 -11.35 2.1 -11.4 2.1 -11.55 2.05 -11.6 2.05 -11.55 2.0 -11.55 1.95 -11.6 1.95 -11.65 1.9 -11.65 1.9 -11.75 1.85 -11.75 1.85 -11.8 1.8 -11.8 1.8 -11.85 1.75 -11.85 1.7 -11.9 1.65 -11.9 Q1.65 -11.95 1.6 -11.95 L1.5 -11.95 1.45 -12.0 1.35 -12.0 1.35 -12.05 1.3 -12.05 1.25 -12.1 1.2 -12.1 1.15 -12.15 1.15 -12.2 1.1 -12.2 1.05 -12.25 0.85 -12.25 0.85 -12.1 0.8 -12.1 0.8 -12.0 0.75 -11.95 0.75 -11.85 0.65 -11.75 0.6 -11.75 0.55 -11.7 0.15 -11.7 0.1 -11.75 0.1 -11.85 0.05 -11.85 0.05 -11.95 -0.05 -12.05 -0.1 -12.0 -0.25 -12.05 -0.25 -12.1 -0.05 -12.1 0.0 -12.05 0.05 -12.05 0.05 -12.0 0.1 -11.95 0.1 -11.85 0.15 -11.8 0.2 -11.8 0.2 -11.85 0.25 -11.8 0.4 -11.8 0.45 -11.85 0.55 -11.85 0.6 -11.9 0.65 -11.9 0.65 -11.95 0.7 -11.95 0.7 -12.1 0.75 -12.1 0.75 -12.2 0.8 -12.25 0.8 -12.35 0.85 -12.4 0.95 -12.4 0.95 -12.35 1.1 -12.35 M2.2 -11.0 L2.2 -11.1 2.25 -11.1 2.25 -11.2 2.3 -11.25 2.3 -11.3 2.35 -11.35 2.55 -11.35 2.55 -11.3 2.65 -11.25 2.7 -11.3 2.75 -11.3 2.85 -11.35 Q2.9 -11.4 2.9 -11.45 2.95 -11.5 3.0 -11.5 L3.0 -11.6 3.05 -11.65 3.05 -11.7 3.2 -11.85 3.4 -11.85 3.4 -11.8 3.2 -11.8 3.15 -11.75 3.15 -11.7 3.1 -11.65 3.1 -11.6 3.05 -11.6 3.05 -11.5 3.0 -11.5 3.0 -11.45 2.95 -11.4 2.9 -11.3 2.9 -11.25 2.85 -11.25 2.75 -11.2 2.65 -11.25 2.55 -11.25 2.55 -11.3 2.4 -11.3 2.35 -11.25 2.35 -11.2 2.3 -11.2 2.3 -11.1 2.25 -11.1 2.25 -11.0 2.2 -11.0 2.2 -10.95 2.15 -10.95 2.15 -11.0 2.2 -11.0 M3.45 -11.15 L3.4 -11.1 3.4 -11.05 3.35 -11.05 3.35 -11.2 3.4 -11.2 3.4 -11.25 3.45 -11.3 3.55 -11.3 3.55 -11.25 3.6 -11.25 3.6 -11.2 3.7 -11.2 3.75 -11.25 3.75 -11.45 3.7 -11.5 3.7 -11.6 3.55 -11.6 3.55 -11.8 3.65 -11.8 3.65 -11.85 3.7 -11.8 3.7 -11.75 3.75 -11.7 3.75 -11.65 3.8 -11.6 3.8 -11.55 3.85 -11.5 3.85 -11.15 3.8 -11.1 3.8 -11.05 3.55 -11.05 3.55 -11.1 3.5 -11.1 3.5 -11.15 3.45 -11.15 M2.1 -10.85 L2.05 -10.8 2.05 -10.7 2.0 -10.75 2.0 -10.8 2.05 -10.8 2.05 -10.85 2.1 -10.85 M2.05 -10.3 L2.05 -10.2 Q2.05 -10.1 2.1 -10.05 L2.1 -9.85 2.15 -9.8 2.1 -9.8 2.1 -9.7 2.05 -9.65 2.05 -9.6 1.9 -9.6 1.9 -9.65 1.85 -9.7 1.9 -9.7 1.95 -9.75 2.0 -9.75 2.0 -9.85 2.05 -9.85 2.05 -10.0 2.0 -10.0 2.05 -10.2 2.0 -10.35 Q2.0 -10.4 2.05 -10.45 L2.05 -10.3 M1.8 -9.75 L1.85 -9.7 1.8 -9.65 1.8 -9.7 1.6 -9.7 1.55 -9.75 1.5 -9.75 1.5 -9.8 1.45 -9.75 1.45 -9.65 1.4 -9.65 1.45 -9.6 1.45 -9.4 1.4 -9.4 1.35 -9.45 1.35 -9.55 1.3 -9.55 1.3 -9.75 1.35 -9.75 1.35 -9.85 1.4 -9.9 1.45 -9.9 1.45 -9.95 1.55 -9.9 1.65 -9.8 1.7 -9.8 1.7 -9.75 1.8 -9.75 M0.0 -9.25 L0.05 -9.2 0.05 -9.15 0.0 -9.15 0.0 -9.0 0.05 -8.95 0.05 -8.7 0.1 -8.7 0.1 -8.6 0.15 -8.55 0.15 -8.5 0.2 -8.45 0.4 -8.35 0.45 -8.35 0.45 -8.3 0.5 -8.3 0.5 -8.25 0.55 -8.3 0.6 -8.25 0.6 -8.2 0.65 -8.2 0.65 -8.15 0.7 -8.15 0.7 -8.1 0.8 -8.1 0.8 -8.2 0.85 -8.2 0.85 -8.3 0.9 -8.35 0.9 -8.45 1.05 -8.45 1.05 -8.55 1.1 -8.6 1.1 -8.65 1.15 -8.7 Q1.15 -8.75 1.15 -8.8 L1.2 -8.8 1.2 -8.95 1.25 -9.0 1.25 -9.05 1.3 -9.05 1.3 -9.0 1.25 -9.0 1.25 -8.8 1.2 -8.75 1.2 -8.7 1.15 -8.65 1.15 -8.6 1.1 -8.6 Q1.1 -8.55 1.1 -8.5 L1.05 -8.4 0.95 -8.3 0.95 -8.15 0.9 -8.05 0.9 -8.0 0.85 -8.0 0.85 -7.95 0.8 -7.95 0.8 -7.9 0.7 -7.9 0.65 -7.95 Q0.6 -7.95 0.6 -8.0 L0.5 -8.15 0.45 -8.2 0.4 -8.2 0.4 -8.25 0.3 -8.3 0.2 -8.3 0.1 -8.35 0.1 -8.4 0.0 -8.5 0.0 -8.6 -0.05 -8.6 -0.05 -8.85 -0.1 -8.9 -0.1 -9.15 -0.05 -9.2 -0.05 -9.25 0.0 -9.25 M1.1 -7.15 L1.1 -7.1 1.15 -7.1 1.2 -7.05 1.15 -7.05 1.05 -7.1 0.95 -7.1 0.9 -7.15 0.95 -7.2 1.0 -7.2 1.0 -7.15 1.1 -7.15 M1.25 -7.05 L1.4 -7.05 1.4 -7.1 1.7 -7.1 1.7 -7.0 1.75 -7.0 1.75 -6.95 1.8 -6.9 1.8 -6.45 1.75 -6.4 1.75 -6.1 1.7 -6.05 1.7 -5.95 1.65 -5.95 1.65 -5.9 1.55 -5.9 1.45 -5.95 1.45 -6.05 1.4 -6.05 1.35 -6.0 1.3 -6.0 1.3 -6.1 1.35 -6.15 1.35 -6.2 1.5 -6.2 1.5 -6.15 1.55 -6.1 1.55 -6.05 1.6 -6.05 1.6 -6.15 1.65 -6.15 1.65 -6.25 1.7 -6.3 1.7 -6.35 1.75 -6.4 1.75 -6.6 1.7 -6.65 1.7 -6.85 1.65 -6.9 1.65 -6.95 1.55 -7.05 1.45 -7.05 1.35 -6.95 1.35 -6.85 1.2 -6.85 1.2 -7.05 1.25 -7.05 M0.6 -6.2 L0.6 -5.95 0.55 -5.9 0.55 -5.8 0.5 -5.8 0.5 -5.75 0.45 -5.7 0.45 -5.9 0.5 -5.9 0.5 -5.95 0.55 -6.0 0.55 -6.1 0.5 -6.1 0.5 -6.15 0.4 -6.25 0.3 -6.25 Q0.15 -6.2 0.0 -6.15 L-0.15 -6.15 -0.2 -6.2 -0.2 -6.5 Q-0.2 -6.55 -0.2 -6.6 L-0.15 -6.65 -0.15 -6.7 -0.1 -6.7 -0.1 -6.6 -0.15 -6.55 -0.15 -6.3 -0.05 -6.25 Q0.0 -6.25 0.05 -6.25 L0.15 -6.25 0.25 -6.3 0.3 -6.3 0.3 -6.35 0.45 -6.35 0.55 -6.3 0.55 -6.2 0.6 -6.2 M-14.2 -13.75 L-14.15 -13.75 -14.15 -13.85 -14.1 -13.85 -14.1 -13.95 -14.0 -13.95 -14.0 -13.85 -14.05 -13.8 -14.05 -13.55 -14.0 -13.5 -14.0 -13.3 -14.05 -13.3 -14.1 -13.25 -14.15 -13.25 -14.15 -13.2 -14.2 -13.25 -14.2 -13.3 -14.15 -13.35 -14.15 -13.4 -14.1 -13.4 -14.1 -13.45 -14.15 -13.45 -14.15 -13.6 -14.2 -13.65 -14.2 -13.75 M-16.1 -12.4 L-16.1 -12.45 -16.0 -12.55 -15.65 -12.55 -15.6 -12.6 -15.3 -12.6 -15.3 -12.55 -15.6 -12.55 -15.65 -12.5 -15.75 -12.5 -15.9 -12.45 -16.0 -12.45 -16.0 -12.4 -16.05 -12.4 -16.05 -12.25 -16.1 -12.25 -16.1 -12.2 -16.15 -12.2 -16.15 -12.15 -16.2 -12.1 -16.25 -12.1 -16.25 -12.05 -16.3 -12.05 -16.3 -12.1 -16.25 -12.15 -16.2 -12.15 -16.2 -12.25 -16.15 -12.25 -16.15 -12.35 -16.1 -12.4 M-14.1 -12.7 L-14.05 -12.65 -14.0 -12.65 -14.0 -12.15 -14.05 -12.1 -13.85 -12.1 -13.85 -12.0 -13.8 -11.9 -13.8 -11.85 -13.75 -11.85 -13.75 -11.75 -13.7 -11.75 -13.7 -11.65 -13.6 -11.65 -13.55 -11.6 -13.5 -11.6 -13.5 -11.55 -13.55 -11.55 Q-13.6 -11.6 -13.75 -11.6 L-13.75 -11.7 -13.85 -11.8 -13.85 -11.95 -13.9 -11.95 -13.9 -12.0 -14.0 -12.0 -14.1 -11.9 -14.1 -11.7 -14.15 -11.7 -14.15 -11.55 -14.2 -11.5 -14.2 -11.45 -14.35 -11.45 -14.4 -11.5 -14.45 -11.5 -14.5 -11.45 -14.55 -11.5 -14.6 -11.5 -14.6 -11.55 -14.7 -11.55 -14.75 -11.6 -14.75 -11.75 -14.7 -11.75 -14.7 -11.8 -14.6 -11.8 -14.6 -11.75 -14.55 -11.7 -14.55 -11.65 -14.45 -11.65 -14.35 -11.6 -14.3 -11.55 -14.25 -11.55 -14.25 -11.6 -14.2 -11.6 -14.2 -11.75 -14.15 -11.8 -14.15 -12.05 -14.1 -12.05 -14.1 -12.55 -14.2 -12.55 -14.2 -12.5 -14.25 -12.55 -14.3 -12.55 -14.3 -12.6 -14.25 -12.6 -14.25 -12.65 -14.2 -12.65 -14.2 -12.7 -14.1 -12.7 M-15.25 -12.35 L-15.25 -12.1 -15.3 -12.1 -15.3 -12.05 -15.25 -12.0 -15.25 -11.95 -15.2 -11.95 -15.2 -11.9 -15.1 -11.8 -15.15 -11.75 -15.35 -11.75 -15.35 -11.8 -15.4 -11.85 -15.4 -12.05 -15.3 -12.15 -15.3 -12.3 -15.25 -12.35 M-15.0 -11.8 L-15.0 -11.85 -14.8 -11.8 -15.0 -11.8 M-3.35 -18.55 L-3.3 -18.55 -3.25 -18.5 -3.2 -18.5 -3.2 -18.45 -3.15 -18.4 -3.15 -18.2 -3.2 -18.2 -3.25 -18.25 -3.25 -18.35 -3.3 -18.35 -3.3 -18.4 -3.35 -18.45 -3.5 -18.45 -3.55 -18.4 -3.65 -18.4 -3.7 -18.35 -3.8 -18.3 -3.85 -18.3 -3.95 -18.2 -4.0 -18.2 -4.35 -18.25 -4.4 -18.25 -4.4 -18.3 -4.45 -18.35 -4.45 -18.55 -4.5 -18.55 -4.5 -18.6 -4.7 -18.6 -4.75 -18.55 -5.0 -18.55 -5.05 -18.6 -5.05 -18.65 -4.8 -18.7 -4.7 -18.75 -4.65 -18.75 -4.65 -18.8 -4.5 -18.8 -4.5 -18.75 -4.45 -18.75 -4.45 -18.7 -4.4 -18.7 -4.4 -18.65 -4.35 -18.65 -4.35 -18.4 -4.3 -18.4 -4.2 -18.35 -3.95 -18.35 -3.9 -18.4 -3.85 -18.4 -3.75 -18.5 -3.7 -18.5 -3.7 -18.55 -3.35 -18.55 M-4.4 -19.6 L-4.4 -19.55 -4.35 -19.55 -4.35 -19.45 -4.2 -19.45 -4.1 -19.4 -4.05 -19.4 -3.95 -19.3 -3.95 -19.25 -4.0 -19.25 -4.0 -19.3 Q-4.15 -19.25 -4.25 -19.3 L-4.4 -19.35 -4.4 -19.4 -4.45 -19.4 -4.45 -19.45 -4.65 -19.45 -4.65 -19.4 -4.7 -19.4 -4.7 -19.05 -4.75 -19.0 -4.75 -18.9 -4.9 -18.75 -5.0 -18.7 -5.05 -18.7 -5.05 -18.65 -5.15 -18.65 -5.15 -18.55 -5.2 -18.6 -5.25 -18.6 -5.25 -18.65 -5.35 -18.65 -5.4 -18.6 -5.4 -18.5 -5.35 -18.45 -5.35 -18.25 -5.4 -18.25 -5.4 -18.2 -5.45 -18.2 -5.5 -18.15 -5.5 -18.1 -5.55 -18.1 -5.55 -17.9 Q-5.55 -17.85 -5.6 -17.8 L-5.65 -17.7 -5.7 -17.7 -5.8 -17.6 -5.9 -17.6 -5.9 -17.65 -5.95 -17.6 -6.3 -17.6 -6.3 -17.65 -6.4 -17.65 -6.45 -17.6 -6.45 -17.45 Q-6.45 -17.4 -6.45 -17.35 L-6.45 -16.9 -6.5 -16.9 -6.5 -16.75 -6.55 -16.75 -6.55 -16.7 -6.6 -16.65 -6.6 -16.55 -6.65 -16.55 -6.65 -16.8 -6.6 -16.8 -6.6 -17.0 -6.55 -17.05 -6.55 -17.5 -6.6 -17.55 -6.6 -17.6 -6.5 -17.65 -6.5 -17.7 -6.45 -17.75 -6.25 -17.75 -6.2 -17.7 -6.1 -17.7 -5.95 -17.75 -5.85 -17.75 -5.8 -17.8 -5.75 -17.8 -5.75 -17.85 -5.65 -17.95 -5.65 -18.2 -5.45 -18.4 -5.5 -18.4 -5.5 -18.7 -5.4 -18.8 -5.25 -18.8 -5.15 -18.7 -5.05 -18.75 -5.0 -18.8 -4.95 -18.8 -4.85 -18.9 -4.85 -18.95 -4.8 -19.0 -4.8 -19.4 -4.75 -19.45 -4.75 -19.55 -4.55 -19.55 -4.5 -19.6 -4.4 -19.6 M-6.8 -16.3 L-6.85 -16.3 -6.95 -16.2 -7.05 -16.2 -7.05 -16.25 -7.0 -16.25 -6.95 -16.3 -6.85 -16.35 -6.8 -16.35 -6.8 -16.3 M-6.7 -14.1 Q-6.65 -14.05 -6.6 -14.0 L-6.5 -13.95 -6.5 -13.85 -6.65 -13.7 -6.65 -13.35 -6.35 -13.35 -6.35 -13.4 -6.3 -13.35 -6.2 -13.35 -6.1 -13.4 -6.05 -13.4 -6.05 -13.45 -6.0 -13.45 -6.0 -13.5 -5.95 -13.5 -5.95 -13.55 -5.9 -13.6 -5.85 -13.6 -5.85 -13.7 -5.75 -13.7 -5.75 -13.65 -5.65 -13.65 -5.6 -13.6 -5.55 -13.6 -5.55 -13.5 -5.5 -13.5 -5.5 -13.15 -5.45 -13.1 -5.45 -13.05 -5.4 -13.0 -5.4 -13.05 -5.35 -13.05 -5.35 -13.1 -5.25 -13.1 -5.2 -13.05 -5.2 -13.0 -5.15 -12.95 -5.15 -12.85 -5.1 -12.85 -5.1 -12.4 -5.15 -12.35 -5.15 -12.45 -5.2 -12.5 -5.2 -12.7 -5.25 -12.75 -5.25 -12.9 -5.3 -12.95 -5.35 -12.95 -5.35 -12.85 -5.45 -12.85 -5.45 -12.9 -5.5 -12.9 -5.5 -12.95 -5.6 -13.05 -5.6 -13.45 -5.7 -13.55 -5.8 -13.55 -5.95 -13.4 -5.95 -13.3 -6.0 -13.3 -6.0 -13.25 -6.1 -13.25 -6.15 -13.3 -6.2 -13.25 -6.35 -13.25 -6.5 -13.2 -6.6 -13.2 -6.65 -13.25 -6.7 -13.25 -6.7 -13.55 -6.75 -13.6 -6.75 -13.7 -6.7 -13.75 -6.7 -13.8 -6.65 -13.85 -6.65 -13.95 -6.7 -13.95 -6.8 -14.05 -6.85 -14.0 -7.1 -14.0 -7.15 -14.05 -7.15 -14.15 -7.2 -14.15 -7.2 -14.3 -7.25 -14.3 -7.25 -14.45 -7.15 -14.35 -7.1 -14.25 Q-7.05 -14.2 -7.05 -14.15 L-7.05 -14.1 -6.85 -14.15 -6.75 -14.15 -6.7 -14.1 M-5.35 -12.15 Q-5.3 -12.15 -5.2 -12.2 L-5.15 -12.2 -5.15 -12.15 -5.2 -12.15 -5.2 -12.05 -5.3 -12.0 -5.3 -11.65 -5.35 -11.6 -5.35 -11.5 -5.45 -11.3 -5.45 -11.25 -5.7 -11.25 -5.7 -11.2 -5.75 -11.2 -5.75 -11.1 -5.8 -11.05 -5.8 -10.9 -5.85 -10.85 -5.85 -10.6 -5.9 -10.6 -5.9 -10.4 -5.95 -10.35 -6.15 -10.35 -6.15 -10.3 -6.2 -10.3 -6.2 -10.2 -6.15 -10.15 -6.1 -10.15 -6.1 -9.9 -6.05 -9.9 -6.05 -9.8 -6.0 -9.8 -5.95 -9.85 -5.85 -9.85 -5.85 -9.75 -5.8 -9.75 -5.8 -9.6 -5.75 -9.6 -5.75 -9.55 -5.7 -9.55 -5.7 -9.5 -5.65 -9.5 -5.55 -9.4 -5.45 -9.4 -5.4 -9.45 -5.4 -9.75 -5.35 -9.8 -5.35 -9.85 Q-5.25 -9.85 -5.2 -9.9 L-5.15 -9.95 -5.05 -9.95 -5.05 -9.9 -5.1 -9.9 -5.25 -9.75 -5.3 -9.75 -5.3 -9.45 -5.35 -9.45 -5.35 -9.4 -5.4 -9.35 -5.4 -9.3 -5.45 -9.3 -5.5 -9.25 -5.55 -9.25 -5.55 -9.3 -5.6 -9.35 -5.65 -9.35 -5.7 -9.4 -5.75 -9.4 -5.85 -9.5 -5.85 -9.6 -5.9 -9.65 -5.9 -9.75 -5.95 -9.75 -6.0 -9.7 -6.05 -9.7 -6.05 -9.65 -6.1 -9.65 -6.1 -9.5 -6.15 -9.5 -6.15 -9.6 -6.2 -9.55 -6.2 -9.5 -6.3 -9.5 -6.3 -9.45 -6.35 -9.45 -6.35 -9.25 -6.3 -9.25 -6.3 -9.3 -6.15 -9.35 -6.05 -9.35 -6.0 -9.4 -5.85 -9.4 Q-5.8 -9.35 -5.75 -9.3 L-5.7 -9.3 -5.7 -9.1 -5.65 -9.05 -5.65 -8.55 -5.7 -8.55 -5.7 -8.5 -5.75 -8.5 -5.75 -8.85 -5.8 -8.85 -5.8 -8.95 -5.75 -8.95 -5.75 -9.25 Q-5.85 -9.3 -5.9 -9.3 L-5.95 -9.35 -6.0 -9.3 -6.0 -9.25 -6.1 -9.25 -6.1 -9.2 -6.25 -9.2 -6.25 -9.15 -6.35 -9.15 -6.35 -9.1 -6.4 -9.1 -6.45 -9.15 -6.45 -9.5 -6.35 -9.6 -6.25 -9.65 -6.2 -9.65 -6.15 -9.7 -6.15 -9.85 -6.1 -9.9 -6.15 -9.9 -6.15 -10.05 -6.25 -10.05 -6.25 -10.1 -6.3 -10.1 -6.3 -10.35 -6.25 -10.35 -6.25 -10.4 -6.2 -10.45 -6.05 -10.5 -6.0 -10.5 -6.0 -10.65 -5.95 -10.65 -5.95 -10.75 -5.9 -10.75 -5.9 -11.05 -5.85 -11.1 -5.85 -11.15 -5.8 -11.15 -5.8 -11.3 -5.75 -11.35 -5.75 -11.4 -5.65 -11.4 -5.6 -11.35 -5.5 -11.35 -5.45 -11.4 -5.45 -11.45 -5.4 -11.5 -5.4 -12.1 -5.35 -12.15 M-4.8 -11.9 L-4.8 -11.8 -4.75 -11.75 -4.75 -11.65 -4.8 -11.65 -4.8 -11.55 -4.9 -11.45 -4.9 -11.4 -4.95 -11.4 -4.95 -11.2 -4.9 -11.2 -4.9 -11.15 -4.85 -11.15 -4.85 -11.05 -4.8 -11.0 -4.85 -11.0 -4.85 -10.85 -4.9 -10.8 -4.9 -10.75 -4.95 -10.7 -4.95 -10.65 -5.0 -10.65 -5.0 -10.75 -4.95 -10.8 -4.95 -11.05 -5.05 -11.05 -5.05 -11.35 -5.0 -11.35 -5.0 -11.45 -4.95 -11.5 -4.95 -11.6 -4.9 -11.6 -4.9 -11.7 -4.85 -11.7 -4.85 -11.75 -4.9 -11.75 -4.9 -11.8 -4.95 -11.8 -5.0 -11.75 -5.2 -11.75 -5.2 -11.8 -5.25 -11.85 -5.25 -11.95 -5.3 -11.95 -5.3 -12.0 -5.2 -12.0 -5.2 -11.95 -5.1 -11.85 -5.05 -11.85 -5.0 -11.9 -5.0 -11.95 -4.9 -11.95 -4.85 -11.9 -4.8 -11.9 M-13.45 -11.6 L-13.45 -11.55 -13.5 -11.55 -13.5 -11.6 -13.45 -11.65 -13.45 -11.6 M-13.25 -11.6 L-13.05 -11.6 -13.0 -11.55 -12.8 -11.55 -12.8 -11.5 -12.75 -11.5 -12.75 -11.25 -12.7 -11.25 -12.7 -11.35 -12.5 -11.35 -12.45 -11.3 -12.45 -11.25 -12.3 -11.1 -12.2 -11.1 -12.1 -11.0 -12.1 -10.85 -12.15 -10.85 -12.1 -10.8 -12.0 -10.75 -12.0 -10.9 -11.9 -11.0 -11.9 -11.05 -11.85 -11.1 -11.85 -11.15 -11.75 -11.25 -11.65 -11.25 -11.55 -11.35 -11.5 -11.3 -11.45 -11.3 -11.65 -11.1 -11.7 -11.1 -11.7 -11.05 -11.8 -11.05 -11.8 -10.95 -11.85 -10.95 -11.85 -10.85 -11.8 -10.85 -11.8 -10.8 -11.9 -10.7 -11.95 -10.7 -12.0 -10.75 -12.2 -10.75 -12.2 -10.85 -12.15 -10.9 -12.2 -10.9 -12.2 -10.95 -12.25 -11.0 -12.25 -11.05 -12.4 -11.05 -12.4 -11.15 -12.45 -11.15 -12.45 -11.2 -12.5 -11.25 -12.6 -11.25 -12.65 -11.2 -12.7 -11.2 -12.75 -11.15 -12.8 -11.2 -12.85 -11.2 -12.9 -11.15 -13.1 -11.15 -13.1 -11.1 -13.2 -11.15 -13.25 -11.15 -13.3 -11.1 -13.3 -10.8 -13.35 -10.8 -13.35 -10.7 -13.4 -10.7 -13.4 -11.1 -13.35 -11.1 -13.35 -11.2 -13.2 -11.2 -13.2 -11.15 -13.1 -11.2 -12.9 -11.2 -12.85 -11.25 -12.8 -11.25 -12.8 -11.35 -12.85 -11.4 -12.9 -11.4 -13.1 -11.45 -13.1 -11.5 -13.15 -11.5 -13.15 -11.55 -13.25 -11.55 -13.25 -11.6 M-11.3 -12.45 L-11.3 -12.6 -11.2 -12.6 -11.2 -12.55 -11.15 -12.55 -11.15 -12.3 -11.2 -12.3 -11.2 -12.25 -11.25 -12.25 -11.25 -12.3 -11.3 -12.3 -11.3 -12.45 M-11.45 -11.4 L-11.45 -11.8 -11.4 -11.8 -11.4 -11.35 -11.45 -11.35 -11.45 -11.4 M-8.65 -9.1 L-8.6 -9.1 -8.6 -8.95 -8.55 -8.95 -8.55 -8.9 -8.5 -8.85 -8.5 -8.3 -8.55 -8.2 Q-8.6 -8.1 -8.65 -8.05 L-8.7 -8.05 -8.7 -8.0 Q-8.75 -7.95 -8.8 -7.95 L-8.95 -8.0 -9.05 -8.05 -9.1 -8.05 -9.1 -8.1 -9.2 -8.2 -9.35 -8.2 -9.35 -8.15 -9.4 -8.15 -9.4 -8.1 -9.5 -8.1 -9.5 -8.05 Q-9.6 -8.0 -9.7 -8.05 L-9.7 -8.0 -9.75 -8.0 -9.75 -7.95 -9.8 -7.95 -9.8 -7.9 -9.85 -7.9 -9.85 -7.85 -9.9 -7.8 -9.8 -7.8 -9.75 -7.75 -9.75 -7.7 -9.7 -7.7 -9.7 -7.35 -9.65 -7.35 -9.65 -7.2 -9.5 -7.35 -9.45 -7.35 -9.45 -7.4 -9.35 -7.5 -9.3 -7.5 -9.3 -7.45 -9.2 -7.35 -9.15 -7.35 -9.15 -7.3 -9.05 -7.3 -8.9 -7.25 -8.8 -7.25 -8.8 -7.2 -8.9 -7.2 -8.9 -7.15 -9.1 -7.2 -9.15 -7.2 -9.2 -7.25 -9.3 -7.3 -9.35 -7.35 -9.4 -7.35 -9.4 -7.3 -9.45 -7.25 -9.5 -7.25 -9.5 -7.2 -9.55 -7.15 -9.55 -7.1 -9.6 -7.05 -9.65 -7.05 -9.65 -6.95 -9.7 -6.95 -9.7 -6.85 -9.75 -6.85 -9.75 -6.75 -9.9 -6.75 -9.95 -6.8 -10.1 -6.8 -10.1 -6.9 -10.05 -6.9 -10.0 -6.95 -9.85 -6.95 -9.85 -6.9 -9.8 -6.95 -9.8 -7.0 -9.75 -7.0 -9.75 -7.25 -9.8 -7.35 -9.75 -7.4 -9.75 -7.55 -9.8 -7.55 -9.8 -7.6 -9.9 -7.6 -10.0 -7.65 -10.0 -7.9 -9.95 -7.9 -9.95 -7.95 -9.85 -8.05 -9.75 -8.05 -9.75 -8.1 -9.55 -8.1 -9.55 -8.15 -9.5 -8.15 -9.45 -8.2 -9.4 -8.2 -9.4 -8.25 -9.35 -8.3 -9.1 -8.3 -8.9 -8.1 -8.7 -8.1 -8.7 -8.2 -8.65 -8.2 -8.65 -8.25 -8.55 -8.35 -8.55 -8.75 -8.6 -8.75 -8.6 -8.8 -8.65 -8.8 -8.65 -8.9 -8.7 -8.95 -8.7 -9.1 -8.65 -9.1 M-10.25 -9.95 L-10.35 -9.9 -10.4 -9.9 -10.45 -9.85 -10.5 -9.85 -10.5 -9.8 -10.55 -9.8 -10.55 -9.75 -10.6 -9.7 -10.6 -9.5 -10.55 -9.5 -10.55 -9.4 -10.5 -9.4 -10.5 -9.25 -10.45 -9.25 -10.45 -9.1 -10.4 -9.1 -10.4 -8.9 -10.45 -8.9 -10.45 -8.85 -10.5 -8.85 -10.5 -8.75 -10.65 -8.75 -10.65 -8.8 -10.8 -8.8 -10.8 -8.55 -10.75 -8.5 -10.75 -8.15 -10.8 -8.1 -10.8 -8.05 -10.85 -8.05 -10.85 -8.0 -10.9 -8.0 -10.9 -7.95 -11.0 -7.9 -11.05 -7.85 -11.1 -7.85 -11.1 -7.8 -11.15 -7.8 -11.1 -7.85 -11.1 -7.9 -11.05 -7.95 -11.05 -8.0 -11.0 -8.0 -10.95 -8.05 -10.9 -8.05 -10.9 -8.1 -10.85 -8.15 -10.85 -8.2 -10.8 -8.25 -10.8 -8.3 -10.85 -8.35 -10.85 -8.4 -10.9 -8.45 -10.9 -8.8 -10.85 -8.85 -10.85 -8.9 -10.55 -8.9 -10.55 -8.95 -10.5 -8.95 -10.5 -9.0 -10.45 -9.0 -10.45 -9.05 -10.5 -9.1 -10.5 -9.15 -10.55 -9.15 -10.55 -9.3 -10.6 -9.35 -10.6 -9.45 -10.65 -9.45 -10.65 -9.7 -10.6 -9.7 -10.6 -9.8 -10.55 -9.85 -10.5 -9.85 -10.5 -9.9 -10.45 -9.95 -10.4 -9.95 -10.4 -10.0 -9.95 -10.0 -9.95 -9.95 -10.25 -9.95 M-10.55 -7.9 L-10.45 -7.8 -10.45 -7.7 -10.4 -7.7 -10.4 -7.6 -10.45 -7.6 -10.5 -7.65 -10.55 -7.65 -10.6 -7.7 -10.6 -7.75 -10.65 -7.8 -10.75 -7.8 -10.75 -7.75 -10.8 -7.75 -10.85 -7.7 -10.9 -7.7 -10.9 -7.65 -11.0 -7.65 -11.1 -7.7 -11.3 -7.7 -11.4 -7.6 -11.6 -7.6 -11.6 -7.65 -11.65 -7.65 -11.65 -7.7 -11.7 -7.75 -11.7 -7.9 -11.75 -7.9 -11.8 -7.95 -11.8 -8.0 -11.85 -8.05 -11.9 -8.05 -11.9 -8.1 -11.95 -8.15 -11.95 -8.2 -12.05 -8.3 -12.15 -8.3 -12.15 -8.35 -12.2 -8.4 -12.2 -8.45 -12.25 -8.45 -12.25 -8.5 -12.3 -8.55 -12.35 -8.55 -12.45 -8.6 Q-12.5 -8.6 -12.5 -8.65 L-12.55 -8.65 -12.6 -8.6 -12.65 -8.6 -12.75 -8.55 -12.8 -8.5 -12.85 -8.5 -12.85 -8.45 -12.95 -8.45 -12.95 -8.5 -13.1 -8.55 -13.15 -8.6 -13.2 -8.6 -13.2 -8.9 -13.15 -8.95 -13.1 -9.05 -13.05 -9.1 -13.05 -9.25 -13.1 -9.25 -13.1 -9.85 -13.05 -9.85 -13.05 -9.9 -13.0 -9.95 -13.0 -10.0 -13.1 -10.0 -13.15 -10.05 -13.2 -10.05 -13.2 -10.1 -13.15 -10.1 -13.05 -10.05 -13.0 -10.0 -13.0 -9.7 -13.05 -9.7 -13.05 -9.4 -13.0 -9.35 -13.0 -9.25 -12.95 -9.2 -12.95 -8.95 -13.0 -8.9 -13.05 -8.9 -13.05 -8.65 -13.0 -8.65 -12.95 -8.6 -12.9 -8.6 -12.85 -8.65 -12.65 -8.75 -12.6 -8.75 -12.55 -8.7 -12.5 -8.7 -12.45 -8.65 -12.35 -8.65 -12.3 -8.6 -12.2 -8.6 -12.2 -8.55 -12.15 -8.5 -12.15 -8.45 -12.1 -8.45 -12.0 -8.35 -11.95 -8.35 -11.9 -8.3 -11.9 -8.25 -11.85 -8.25 -11.85 -8.15 -11.75 -8.1 -11.7 -8.05 -11.65 -8.05 -11.65 -8.0 -11.6 -8.0 -11.6 -7.8 -11.55 -7.8 -11.45 -7.75 -11.4 -7.75 -11.4 -7.8 -11.35 -7.8 -11.35 -7.85 -11.15 -7.85 -11.15 -7.8 -11.1 -7.75 -11.05 -7.75 -11.0 -7.8 -10.95 -7.8 -10.9 -7.85 -10.85 -7.85 -10.85 -7.9 -10.8 -7.9 -10.75 -7.95 -10.6 -7.95 -10.55 -7.9 M-7.3 -7.75 L-7.15 -7.75 -7.0 -7.6 -6.9 -7.55 -6.85 -7.55 -6.65 -7.5 -6.55 -7.55 -6.35 -7.55 -6.3 -7.6 -6.2 -7.6 -6.15 -7.65 -6.15 -7.7 -6.05 -7.75 -6.0 -7.8 -5.8 -7.8 -5.8 -7.85 -5.75 -7.9 -5.75 -8.0 -5.7 -8.0 -5.7 -8.1 -5.65 -8.1 -5.65 -7.85 -5.7 -7.8 -5.7 -7.75 -5.75 -7.75 -5.8 -7.7 -5.95 -7.7 -6.05 -7.65 -6.05 -7.6 -6.1 -7.6 -6.1 -7.5 -6.55 -7.45 -7.0 -7.5 -7.05 -7.55 -7.15 -7.6 -7.3 -7.6 -7.3 -7.55 -7.35 -7.5 -7.35 -7.45 -7.65 -7.45 -7.65 -7.55 -7.7 -7.55 -7.7 -7.6 -7.75 -7.6 -7.8 -7.55 -7.9 -7.55 -7.95 -7.6 -8.0 -7.55 -8.05 -7.55 -8.05 -7.5 -8.1 -7.5 -8.1 -7.45 -8.15 -7.4 -8.15 -7.35 -8.2 -7.35 -8.2 -7.4 -8.15 -7.45 -8.15 -7.5 -8.1 -7.55 -8.1 -7.6 -8.0 -7.7 -7.8 -7.7 -7.75 -7.75 -7.7 -7.7 -7.65 -7.7 -7.65 -7.65 -7.6 -7.65 -7.6 -7.55 -7.4 -7.55 -7.4 -7.65 -7.35 -7.7 -7.35 -7.75 -7.3 -7.75 M-0.8 -10.5 L-0.75 -10.5 -0.75 -10.45 -0.7 -10.45 -0.7 -10.3 -0.65 -10.25 -0.65 -10.2 -0.6 -10.15 -0.5 -10.15 -0.45 -10.1 -0.45 -10.05 -0.5 -10.0 -0.55 -10.0 -0.65 -10.1 -0.7 -10.1 -0.7 -10.15 -0.75 -10.2 -0.75 -10.25 -0.8 -10.3 -0.8 -10.35 -0.85 -10.3 -0.95 -10.35 -0.95 -10.25 -1.0 -10.2 -1.0 -10.0 -0.95 -9.95 -0.95 -9.9 Q-0.95 -9.85 -0.95 -9.8 L-0.95 -9.35 -1.0 -9.3 -1.0 -9.25 -1.05 -9.25 -1.05 -9.2 -1.1 -9.15 -1.1 -9.0 -1.15 -9.0 -1.15 -8.95 Q-1.25 -8.85 -1.3 -8.85 L-1.35 -8.8 Q-1.4 -8.75 -1.4 -8.7 L-1.45 -8.65 -1.45 -8.4 -1.5 -8.4 -1.5 -8.45 -1.55 -8.45 -1.55 -8.7 -1.5 -8.75 -1.45 -8.85 -1.35 -8.95 -1.3 -8.95 -1.2 -9.05 -1.2 -9.1 -1.15 -9.1 -1.15 -9.2 -1.1 -9.25 -1.1 -9.3 -1.05 -9.35 -1.05 -9.45 -1.0 -9.5 -1.0 -9.9 -1.05 -9.95 -1.05 -10.35 -1.0 -10.45 -0.85 -10.45 -0.8 -10.5 M-1.0 -8.25 L-1.0 -8.3 -0.8 -8.3 -0.8 -8.25 -0.75 -8.25 -0.75 -8.2 -0.65 -8.2 -0.65 -8.15 -0.6 -8.15 -0.6 -8.1 -0.55 -8.1 -0.55 -8.05 -0.5 -8.0 -0.5 -7.7 -0.4 -7.7 -0.4 -7.75 -0.3 -7.75 -0.2 -7.7 -0.15 -7.7 -0.05 -7.6 -0.05 -7.55 0.0 -7.55 0.0 -7.4 -0.05 -7.4 -0.05 -7.25 -0.1 -7.3 -0.1 -7.45 -0.15 -7.5 -0.15 -7.55 -0.2 -7.6 -0.2 -7.65 -0.25 -7.65 -0.25 -7.6 -0.4 -7.6 -0.55 -7.55 -0.55 -7.65 -0.6 -7.7 -0.55 -7.75 -0.55 -7.9 -0.6 -7.95 -0.6 -8.05 -0.65 -8.1 -0.7 -8.1 -0.7 -8.15 -0.8 -8.15 -0.85 -8.2 -1.0 -8.2 -1.0 -8.1 -1.1 -8.1 -1.1 -8.05 -1.15 -8.05 -1.15 -8.0 -1.3 -8.0 -1.35 -8.05 -1.35 -8.15 -1.1 -8.15 -1.1 -8.2 -1.05 -8.2 -1.05 -8.25 -1.0 -8.25 M-2.1 -7.55 L-2.05 -7.55 -2.0 -7.5 -1.95 -7.5 -1.9 -7.55 -1.8 -7.55 -1.8 -7.5 -1.75 -7.5 -1.75 -7.4 -1.8 -7.35 -1.8 -7.3 -1.9 -7.35 -1.95 -7.35 -1.95 -7.45 -2.0 -7.45 -2.05 -7.5 -2.15 -7.5 -2.15 -7.45 -2.2 -7.45 -2.2 -7.4 -2.15 -7.35 -2.15 -7.3 -2.1 -7.25 -2.1 -7.1 -2.25 -7.25 -2.25 -7.45 -2.2 -7.5 -2.2 -7.55 -2.1 -7.55 M-1.75 -7.85 L-1.5 -7.85 -1.45 -7.8 -1.4 -7.8 -1.35 -7.7 -1.3 -7.65 -1.3 -7.55 -1.25 -7.55 -1.25 -7.3 -1.35 -7.2 -1.4 -7.2 -1.4 -7.1 -1.45 -7.05 -1.45 -6.6 -1.35 -6.5 -1.25 -6.45 -1.35 -6.45 -1.4 -6.5 -1.45 -6.5 -1.45 -6.6 -1.5 -6.65 -1.5 -7.1 -1.45 -7.15 -1.45 -7.2 -1.4 -7.2 -1.4 -7.3 -1.35 -7.3 -1.35 -7.35 -1.3 -7.35 -1.3 -7.5 -1.35 -7.5 -1.35 -7.6 -1.45 -7.7 -1.45 -7.75 -1.7 -7.75 -1.75 -7.7 -1.75 -7.6 -1.8 -7.55 -1.8 -7.7 -1.75 -7.75 -1.75 -7.85 M-1.8 -6.5 L-1.75 -6.5 -1.7 -6.45 -1.7 -6.4 -1.6 -6.4 -1.4 -6.35 -1.75 -6.35 -1.75 -6.4 -1.85 -6.4 -1.85 -6.3 -1.9 -6.3 -1.9 -6.25 -1.95 -6.2 -1.95 -6.15 -2.0 -6.15 -2.0 -6.35 -1.95 -6.4 -1.95 -6.5 -1.9 -6.5 -1.9 -6.55 -1.8 -6.55 -1.8 -6.5 M-0.55 -7.45 L-0.55 -7.35 -0.6 -7.35 -0.6 -7.3 -0.65 -7.25 -0.9 -7.25 -0.9 -7.3 -1.1 -7.3 -1.1 -7.2 -1.15 -7.15 -1.15 -7.05 -1.1 -7.0 -1.1 -6.9 -1.05 -6.85 -1.05 -6.75 -1.0 -6.7 -1.0 -6.65 -0.95 -6.6 -0.85 -6.55 -0.75 -6.55 -0.65 -6.45 -0.65 -6.25 -0.7 -6.25 -0.7 -6.2 -0.75 -6.2 -0.75 -6.1 -0.8 -6.1 -0.85 -6.15 -0.8 -6.15 -0.8 -6.2 -0.75 -6.2 -0.75 -6.25 -0.7 -6.25 -0.7 -6.4 -0.75 -6.4 -0.8 -6.45 -0.9 -6.5 -0.95 -6.5 -0.95 -6.55 -1.0 -6.55 -1.0 -6.6 -1.05 -6.65 -1.1 -6.65 -1.1 -6.75 -1.15 -6.8 -1.15 -6.9 -1.2 -6.95 -1.2 -7.25 -1.15 -7.3 -1.15 -7.35 -1.1 -7.4 -0.85 -7.4 -0.85 -7.35 -0.8 -7.35 -0.8 -7.3 -0.6 -7.35 -0.6 -7.45 -0.55 -7.45" fill="#ffffff" fill-rule="evenodd" stroke="none"/>
  </g>
</svg>
