<?xml version="1.0" encoding="UTF-8" standalone="no"?>
<svg xmlns:ffdec="https://www.free-decompiler.com/flash" xmlns:xlink="http://www.w3.org/1999/xlink" ffdec:objectType="shape" height="6.65px" width="1.8px" xmlns="http://www.w3.org/2000/svg">
  <g transform="matrix(1.0, 0.0, 0.0, 1.0, 0.95, 6.3)">
    <path d="M0.15 -6.25 Q0.5 -6.15 0.5 -5.65 0.5 -5.35 0.3 -5.0 L0.25 -4.9 0.2 -4.85 0.15 -4.55 Q-0.05 -3.9 -0.05 -3.45 L-0.05 -3.4 -0.1 -3.15 -0.05 -2.7 Q0.0 -2.2 0.35 -1.55 0.8 -0.6 0.8 -0.45 L0.8 -0.35 0.75 -0.2 0.75 -0.1 0.7 -0.1 0.65 -0.05 0.85 -0.1 0.85 -0.2 Q0.85 0.3 0.25 0.35 L-0.1 0.35 Q-0.4 0.35 -0.65 0.0 L-0.75 -0.3 Q-0.8 -0.5 -0.8 -0.65 L-0.75 -1.1 -0.75 -1.15 -0.95 -1.6 -0.95 -2.35 -0.65 -2.35 Q-0.55 -3.35 -0.55 -3.65 L-0.55 -3.75 Q-0.4 -4.5 -0.4 -5.0 -0.4 -5.5 -0.45 -5.6 -0.4 -6.05 -0.1 -6.2 L-0.1 -6.3 -0.05 -6.3 0.15 -6.25" fill="#860086" fill-rule="evenodd" stroke="none"/>
  </g>
</svg>
