<?xml version="1.0" encoding="UTF-8" standalone="no"?>
<svg xmlns:ffdec="https://www.free-decompiler.com/flash" xmlns:xlink="http://www.w3.org/1999/xlink" ffdec:objectType="shape" height="5.45px" width="54.5px" xmlns="http://www.w3.org/2000/svg">
  <g transform="matrix(1.0, 0.0, 0.0, 1.0, 28.25, 1.55)">
    <path d="M15.85 -0.65 L15.9 -0.65 15.95 -0.7 16.2 -0.7 16.3 -0.75 Q16.65 -0.75 16.95 -0.7 L17.55 -0.7 Q19.15 -0.9 20.8 -1.05 22.8 -1.25 24.65 -1.55 L25.55 -1.55 Q25.85 -1.5 26.05 -1.45 26.35 -1.25 26.25 -1.0 26.05 -0.6 25.35 -0.3 24.95 -0.15 24.35 0.0 24.05 0.05 24.0 0.2 24.25 0.3 24.65 0.35 25.55 0.4 25.55 0.65 25.55 0.85 25.35 1.0 23.65 1.4 21.55 1.55 21.15 1.55 21.05 1.75 20.75 2.65 17.8 2.75 16.35 2.8 15.3 3.05 L14.6 3.1 Q14.25 3.05 14.0 2.95 13.65 2.85 13.35 2.95 14.25 3.6 11.95 3.8 8.4 4.15 7.45 3.2 7.4 3.1 7.5 3.0 5.75 3.25 3.55 3.2 1.5 3.2 0.45 2.75 1.2 2.7 2.1 2.75 1.8 2.7 1.6 2.65 1.75 2.6 2.0 2.6 L2.5 2.6 3.15 2.55 Q3.55 2.5 3.9 2.45 3.5 1.85 5.7 1.7 6.0 1.7 6.2 1.6 7.95 0.7 11.15 0.95 12.3 1.05 12.15 1.4 12.45 1.45 12.75 1.45 13.1 1.45 13.45 1.45 13.55 1.4 13.6 1.4 13.8 1.3 14.05 1.2 L14.0 1.1 14.0 1.05 14.1 1.0 Q14.65 0.75 15.6 0.75 15.65 0.75 15.65 0.7 15.7 0.7 15.65 0.7 15.6 0.65 15.45 0.6 L15.35 0.6 15.25 0.55 15.1 0.55 14.95 0.5 Q14.9 0.4 14.95 0.3 15.05 0.0 16.0 -0.05 17.15 -0.1 18.1 -0.25 18.15 -0.25 18.15 -0.3 18.15 -0.35 18.0 -0.35 L17.25 -0.4 Q16.85 -0.4 16.5 -0.45 16.0 -0.45 15.85 -0.6 L15.85 -0.65 M12.0 2.55 Q11.1 2.65 10.25 2.75 9.55 2.9 9.55 3.1 9.6 3.65 11.7 3.35 14.65 2.95 12.0 2.55 M-27.75 -0.65 Q-26.4 -1.1 -24.4 -0.95 L-24.2 -0.95 Q-24.1 -1.05 -23.75 -1.15 -23.15 -1.25 -22.6 -1.35 -22.15 -1.5 -21.65 -1.55 L-20.85 -1.55 Q-19.9 -1.3 -19.15 -1.05 -18.3 -0.7 -17.0 -0.85 L-16.9 -0.9 -15.6 -1.1 Q-15.35 -1.15 -15.1 -1.15 -14.5 -1.2 -13.9 -1.1 -13.55 -1.1 -13.2 -1.1 -12.5 -1.1 -12.2 -0.9 -12.2 -0.8 -12.4 -0.75 -12.95 -0.65 -13.55 -0.55 -14.6 -0.4 -15.65 -0.35 L-15.7 -0.25 Q-15.8 -0.2 -15.95 -0.15 -16.2 -0.05 -16.65 -0.05 -17.35 0.0 -17.65 0.15 L-17.55 0.2 Q-17.35 0.25 -17.05 0.25 L-16.8 0.3 -16.45 0.35 Q-16.0 0.4 -15.85 0.55 L-15.85 0.6 Q-15.95 0.65 -16.05 0.7 L-16.2 0.75 -16.3 0.75 -16.55 0.8 -16.55 0.85 Q-16.55 0.9 -16.6 0.95 -16.85 1.05 -17.3 1.05 L-17.85 1.1 -17.75 1.1 -17.55 1.15 -17.35 1.25 Q-14.35 1.15 -11.9 1.5 -11.65 1.55 -11.35 1.6 -10.5 1.75 -9.55 1.6 -8.55 1.4 -7.55 1.65 -7.15 1.75 -7.05 1.9 -5.85 1.8 -5.2 2.1 -5.0 2.2 -4.9 2.3 -4.85 2.4 -4.85 2.5 L-4.85 2.55 Q-4.9 2.6 -5.0 2.65 -4.85 2.65 -4.65 2.65 -4.55 2.6 -4.3 2.6 L-4.25 2.6 Q-3.95 2.55 -3.7 2.6 L-3.7 2.65 -3.5 2.65 Q-3.5 2.6 -3.45 2.55 L-3.4 2.55 -3.3 2.5 -3.1 2.5 -2.7 2.55 -2.2 2.55 Q-2.05 2.55 -1.95 2.6 L-1.8 2.6 -1.5 2.55 -1.3 2.55 -1.2 2.6 Q-1.15 2.6 -1.1 2.6 -1.0 2.6 -1.0 2.65 -1.1 2.7 -1.3 2.7 L-1.95 2.7 -2.0 2.75 Q-2.05 2.75 -2.1 2.75 L-2.3 2.75 -2.4 2.8 Q-2.55 2.85 -2.9 2.95 -3.75 3.15 -4.75 3.15 L-5.0 3.15 Q-6.85 3.45 -8.9 3.7 -11.45 3.95 -12.8 3.45 -13.0 3.35 -12.85 3.25 -12.65 3.1 -12.3 3.05 L-13.4 2.95 Q-14.15 2.9 -14.4 2.7 -14.45 2.6 -14.45 2.55 -18.4 2.7 -22.4 3.0 -23.5 3.05 -23.7 2.7 -23.8 2.5 -23.0 2.45 -22.75 2.45 -22.7 2.4 -23.6 2.25 -24.35 2.0 -25.05 1.75 -24.75 1.45 -24.4 1.15 -23.5 0.95 -23.25 0.95 -23.4 0.9 -24.25 0.8 -25.5 0.8 -26.5 0.8 -27.25 0.6 -27.9 0.3 -28.2 -0.05 -28.45 -0.4 -27.75 -0.65" fill="#ccfffe" fill-opacity="0.7529412" fill-rule="evenodd" stroke="none"/>
    <path d="M17.85 -0.5 L19.05 -0.65 19.25 -0.65 Q19.55 -0.7 19.85 -0.75 L20.1 -0.75 Q21.75 -0.85 23.45 -0.95 L24.05 -1.0 24.3 -0.95 24.5 -0.95 24.65 -0.9 Q24.7 -0.85 24.7 -0.8 24.7 -0.75 24.8 -0.75 24.95 -0.7 25.0 -0.6 L25.0 -0.55 Q24.8 -0.5 24.7 -0.4 24.5 -0.25 24.05 -0.25 L23.5 -0.2 Q23.55 -0.1 23.5 0.0 23.45 0.1 23.0 0.2 L22.55 0.3 Q23.05 0.45 22.65 0.65 22.2 0.85 21.55 1.05 21.3 1.15 20.95 1.2 L21.15 1.1 21.05 1.1 Q21.0 1.15 20.9 1.15 20.75 1.2 20.65 1.25 20.15 1.35 19.55 1.3 19.2 1.3 18.9 1.35 19.65 1.35 20.35 1.45 L20.5 1.5 20.7 1.6 Q19.95 1.9 18.95 2.15 17.75 2.45 16.7 2.7 15.8 2.95 15.1 2.7 11.8 1.55 7.0 2.2 8.55 2.25 7.9 2.6 7.6 2.75 6.9 2.85 4.6 3.0 2.35 2.9 L2.05 2.95 Q1.55 2.95 1.35 2.85 L1.35 2.85 1.3 2.8 Q1.65 2.6 2.65 2.65 L3.05 2.7 Q4.05 2.65 4.95 2.5 L5.15 2.45 4.85 2.4 Q4.7 2.4 4.55 2.35 L4.45 2.3 Q4.75 1.9 6.05 1.75 7.05 1.6 8.0 1.45 9.95 1.05 11.5 1.45 11.9 1.55 11.55 1.7 13.1 2.0 15.0 1.7 16.25 1.5 17.25 1.15 17.75 0.95 17.8 0.7 L17.85 0.7 Q17.35 0.65 16.55 0.6 16.45 0.6 16.45 0.55 17.4 0.5 18.3 0.35 18.75 0.3 19.25 0.3 L19.3 0.25 Q19.5 0.15 19.7 0.05 19.95 -0.05 19.9 -0.2 19.85 -0.3 19.9 -0.35 19.95 -0.4 20.1 -0.45 L20.25 -0.5 20.3 -0.5 Q20.0 -0.55 19.2 -0.45 18.75 -0.4 18.25 -0.45 L18.35 -0.45 Q18.55 -0.5 18.7 -0.55 L18.75 -0.55 17.85 -0.5 M21.2 -0.55 L21.5 -0.5 Q21.75 -0.5 21.5 -0.55 L21.2 -0.55 M-20.1 -0.95 L-19.85 -0.9 Q-19.75 -0.85 -19.75 -0.8 L-19.25 -0.7 -18.75 -0.55 -18.65 -0.5 Q-17.95 -0.45 -17.25 -0.45 L-17.15 -0.45 Q-16.3 -0.7 -15.4 -0.85 L-14.4 -0.8 Q-14.05 -0.8 -13.9 -0.7 L-13.9 -0.7 Q-13.85 -0.7 -13.85 -0.65 L-14.1 -0.65 Q-14.75 -0.5 -15.85 -0.45 -16.7 -0.35 -17.4 -0.2 -18.65 0.05 -20.05 0.15 L-20.0 0.15 Q-19.2 0.25 -18.55 0.4 -18.45 0.4 -18.45 0.45 -18.3 0.55 -18.2 0.7 -18.15 0.75 -18.2 0.8 L-18.25 0.85 Q-19.0 0.85 -19.4 1.0 -19.5 1.05 -19.6 1.1 L-19.65 1.25 Q-16.3 1.5 -12.7 1.6 -12.0 1.6 -11.55 1.75 -11.15 1.9 -10.5 1.85 -9.55 1.8 -8.9 1.9 -8.55 1.95 -8.2 1.95 -7.65 2.05 -7.1 2.15 -6.75 2.2 -6.6 2.3 L-6.6 2.35 -6.1 2.3 Q-5.85 2.35 -5.65 2.35 -5.35 2.4 -5.05 2.45 -4.75 2.45 -4.75 2.5 L-4.75 2.55 -4.8 2.55 Q-4.9 2.6 -5.0 2.6 L-5.25 2.6 Q-5.1 2.5 -5.3 2.5 -5.75 2.45 -6.15 2.45 -6.75 2.4 -6.95 2.45 L-7.3 2.5 -7.4 2.5 -7.35 2.55 -7.35 2.6 Q-7.35 2.7 -7.65 2.75 L-7.7 2.85 Q-7.0 3.0 -6.15 2.9 -5.25 2.8 -4.9 2.95 -4.5 2.9 -4.1 2.95 -5.35 3.3 -7.1 3.4 -8.3 3.45 -9.55 3.3 -10.15 3.25 -10.6 3.1 -10.55 2.95 -10.15 2.9 -9.8 2.85 -9.45 2.85 -9.0 2.8 -8.6 2.7 L-8.75 2.75 Q-8.9 2.8 -8.95 2.75 -8.95 2.7 -8.9 2.65 -8.85 2.55 -8.75 2.55 -9.65 2.5 -10.5 2.6 -11.05 2.65 -11.7 2.65 -12.5 2.6 -13.1 2.45 L-13.15 2.4 -13.15 2.35 Q-13.15 2.3 -13.15 2.25 L-13.2 2.2 Q-17.2 1.95 -21.3 2.2 -21.85 2.2 -22.35 2.1 -23.25 1.9 -23.45 1.55 -23.6 1.2 -22.6 1.15 -21.7 1.1 -20.85 1.05 -20.7 1.0 -20.6 1.0 -21.15 0.8 -21.9 0.75 -22.3 0.7 -22.6 0.6 -22.7 0.55 -22.65 0.45 -24.8 0.6 -25.45 0.0 -25.65 -0.15 -25.25 -0.25 -23.8 -0.45 -22.55 -0.8 -21.6 -1.05 -20.45 -1.0 -20.25 -1.0 -20.1 -0.95" fill="#ffffff" fill-rule="evenodd" stroke="none"/>
  </g>
</svg>
