<?xml version="1.0" encoding="UTF-8" standalone="no"?>
<svg xmlns:ffdec="https://www.free-decompiler.com/flash" xmlns:xlink="http://www.w3.org/1999/xlink" ffdec:objectType="shape" height="14.25px" width="2.65px" xmlns="http://www.w3.org/2000/svg">
  <g transform="matrix(1.0, 0.0, 0.0, 1.0, 1.65, 12.8)">
    <path d="M0.15 -5.45 L0.1 -5.3 Q0.1 -5.05 -0.1 -4.25 L-0.05 0.55 -0.05 0.7 Q-0.15 1.5 -0.75 1.45 L-0.85 1.45 -0.9 1.4 -1.1 1.4 Q-1.4 1.35 -1.55 0.75 L-1.65 0.25 -1.4 -0.1 Q-1.2 -0.5 -1.15 -0.8 L-1.05 -0.9 -1.05 -2.35 -0.9 -3.2 -0.8 -5.0 Q-0.65 -6.25 -0.2 -6.3 0.0 -6.3 0.1 -6.1 0.2 -6.25 0.15 -5.8 L0.2 -5.5 0.15 -5.45" fill="#debcfa" fill-rule="evenodd" stroke="none"/>
    <path d="M0.65 -9.85 L0.6 -9.9 Q-0.1 -7.95 -0.1 -5.85 L-0.05 -5.35 -0.05 -5.3 -0.1 -4.95 -0.05 -4.2 Q0.0 -3.45 0.35 -2.45 L0.65 -1.4 Q0.85 -1.25 0.85 -0.75 L0.85 -0.3 Q0.85 0.5 0.25 0.6 L-0.1 0.6 Q-0.4 0.6 -0.65 0.05 L-0.75 -0.5 Q-0.8 -0.75 -0.8 -1.05 L-0.75 -1.45 -0.95 -2.35 Q-1.15 -3.3 -1.15 -4.2 -1.15 -4.5 -1.0 -4.85 L-0.85 -5.2 Q-0.7 -5.05 -0.6 -4.8 L-0.6 -4.75 -0.55 -5.7 -0.55 -5.85 Q-0.4 -6.95 -0.4 -7.65 -0.2 -9.0 -0.15 -9.65 L-0.1 -9.7 -0.1 -9.85 -0.05 -9.85 Q0.05 -10.4 0.05 -11.25 0.05 -12.3 0.5 -12.7 1.0 -13.1 1.0 -11.75 1.0 -11.05 0.65 -9.85" fill="#860086" fill-rule="evenodd" stroke="none"/>
  </g>
</svg>
