<?xml version="1.0" encoding="UTF-8" standalone="no"?>
<svg xmlns:ffdec="https://www.free-decompiler.com/flash" xmlns:xlink="http://www.w3.org/1999/xlink" ffdec:objectType="shape" height="22.55px" width="0.0px" xmlns="http://www.w3.org/2000/svg">
  <g transform="matrix(1.0, 0.0, 0.0, 1.0, 0.0, 23.25)">
    <path d="M0.0 -20.75 Q0.0 -20.5 0.0 -20.45 0.0 -20.35 0.0 -20.55 0.0 -20.6 0.0 -20.65 0.0 -20.8 0.0 -20.9 L0.0 -20.75 M0.0 -0.9 L0.0 -1.1 Q0.0 -0.9 0.0 -0.75 L0.0 -0.9 M0.0 -13.0 L0.0 -12.95 Q0.0 -12.9 0.0 -12.6 0.0 -12.4 0.0 -12.5 L0.0 -13.0 M0.0 -22.9 Q0.0 -22.65 0.0 -22.6 L0.0 -22.9 Q0.0 -23.05 0.0 -23.15 0.0 -23.2 0.0 -23.25 0.0 -23.15 0.0 -22.9 M0.0 -12.25 L0.0 -11.9 Q0.0 -11.8 0.0 -11.7 L0.0 -11.65 Q0.0 -11.6 0.0 -11.55 L0.0 -11.85 Q0.0 -12.0 0.0 -12.1 L0.0 -12.25 M0.0 -3.85 Q0.0 -3.65 0.0 -3.7 L0.0 -4.2 Q0.0 -4.1 0.0 -3.85" fill="#ffffff" fill-rule="evenodd" stroke="none"/>
  </g>
</svg>
