<?xml version="1.0" encoding="UTF-8" standalone="no"?>
<svg xmlns:ffdec="https://www.free-decompiler.com/flash" xmlns:xlink="http://www.w3.org/1999/xlink" ffdec:objectType="shape" height="21.3px" width="0.0px" xmlns="http://www.w3.org/2000/svg">
  <g transform="matrix(1.0, 0.0, 0.0, 1.0, 0.0, 22.55)">
    <path d="M0.0 -20.15 L0.0 -19.75 Q0.0 -19.55 0.0 -19.4 0.0 -19.15 0.0 -19.6 0.0 -19.9 0.0 -20.2 L0.0 -20.15 M0.0 -2.25 L0.0 -2.15 Q0.0 -1.95 0.0 -1.75 0.0 -1.35 0.0 -1.25 0.0 -1.2 0.0 -1.4 0.0 -1.5 0.0 -1.65 0.0 -1.9 0.0 -2.05 L0.0 -2.25 M0.0 -12.9 L0.0 -12.85 Q0.0 -12.7 0.0 -12.5 0.0 -12.1 0.0 -11.8 0.0 -11.5 0.0 -11.6 L0.0 -11.9 Q0.0 -12.15 0.0 -12.45 0.0 -12.8 0.0 -12.9 M0.0 -21.95 Q0.0 -21.4 0.0 -21.3 0.0 -21.25 0.0 -21.45 0.0 -21.55 0.0 -21.75 0.0 -22.0 0.0 -22.2 0.0 -22.5 0.0 -22.55 0.0 -22.5 0.0 -21.95 M0.0 -11.85 Q0.0 -11.45 0.0 -11.15 0.0 -10.9 0.0 -11.05 0.0 -11.2 0.0 -11.4 0.0 -11.7 0.0 -12.0 0.0 -12.3 0.0 -12.35 0.0 -12.3 0.0 -11.85 M0.0 -4.7 L0.0 -4.2 Q0.0 -4.0 0.0 -3.95 0.0 -4.15 0.0 -4.5 0.0 -4.7 0.0 -4.9 L0.0 -4.7" fill="#ffffff" fill-rule="evenodd" stroke="none"/>
  </g>
</svg>
