<?xml version="1.0" encoding="UTF-8" standalone="no"?>
<svg xmlns:ffdec="https://www.free-decompiler.com/flash" xmlns:xlink="http://www.w3.org/1999/xlink" ffdec:objectType="shape" height="20.4px" width="0.0px" xmlns="http://www.w3.org/2000/svg">
  <g transform="matrix(1.0, 0.0, 0.0, 1.0, 0.0, 22.1)">
    <path d="M0.0 -19.5 Q0.0 -19.1 0.0 -18.8 0.0 -18.55 0.0 -18.5 L0.0 -18.9 Q0.0 -19.35 0.0 -19.7 L0.0 -19.9 Q0.0 -19.95 0.0 -19.5 M0.0 -3.25 L0.0 -3.15 Q0.0 -2.9 0.0 -2.65 0.0 -2.1 0.0 -1.8 0.0 -1.6 0.0 -1.85 0.0 -1.95 0.0 -2.05 0.0 -2.4 0.0 -2.7 0.0 -3.0 0.0 -3.2 L0.0 -3.25 M0.0 -12.75 Q0.0 -12.7 0.0 -12.55 0.0 -12.25 0.0 -11.95 0.0 -11.6 0.0 -11.3 L0.0 -11.4 Q0.0 -11.6 0.0 -11.85 L0.0 -12.4 Q0.0 -12.55 0.0 -12.65 L0.0 -12.75 M0.0 -21.1 Q0.0 -21.8 0.0 -22.1 0.0 -21.65 0.0 -20.75 0.0 -19.85 0.0 -21.1 M0.0 -12.5 L0.0 -12.4 Q0.0 -11.7 0.0 -11.2 0.0 -10.4 0.0 -11.55 0.0 -12.25 0.0 -12.55 L0.0 -12.5 M0.0 -5.35 Q0.0 -4.9 0.0 -4.5 0.0 -4.25 0.0 -4.15 0.0 -4.25 0.0 -4.75 0.0 -5.2 0.0 -5.6 0.0 -5.85 0.0 -5.9 0.0 -5.85 0.0 -5.35" fill="#ffffff" fill-rule="evenodd" stroke="none"/>
  </g>
</svg>
