<?xml version="1.0" encoding="UTF-8" standalone="no"?>
<svg xmlns:ffdec="https://www.free-decompiler.com/flash" xmlns:xlink="http://www.w3.org/1999/xlink" ffdec:objectType="shape" height="14.0px" width="0.0px" xmlns="http://www.w3.org/2000/svg">
  <g transform="matrix(1.0, 0.0, 0.0, 1.0, 0.0, 19.0)">
    <path d="M0.0 -15.6 Q0.0 -16.0 0.0 -16.45 0.0 -16.95 0.0 -17.35 0.0 -17.65 0.0 -17.8 L0.0 -17.6 Q0.0 -17.5 0.0 -17.4 0.0 -16.85 0.0 -16.45 0.0 -15.85 0.0 -15.55 0.0 -15.4 0.0 -15.6 M0.0 -17.65 Q0.0 -17.1 0.0 -16.7 0.0 -16.45 0.0 -17.25 0.0 -17.9 0.0 -18.55 0.0 -18.95 0.0 -19.0 L0.0 -18.95 Q0.0 -18.75 0.0 -18.5 0.0 -18.1 0.0 -17.65 M0.0 -11.25 Q0.0 -11.95 0.0 -12.3 0.0 -12.45 0.0 -12.55 0.0 -12.45 0.0 -12.25 0.0 -12.05 0.0 -11.1 0.0 -10.2 0.0 -10.7 0.0 -10.4 0.0 -11.25 M0.0 -5.0 Q0.0 -4.8 0.0 -6.55 0.0 -6.95 0.0 -7.1 0.0 -7.05 0.0 -5.45 0.0 -5.05 0.0 -5.0 M0.0 -7.7 L0.0 -7.65 Q0.0 -7.45 0.0 -7.2 0.0 -6.55 0.0 -6.2 0.0 -5.9 0.0 -5.8 0.0 -5.9 0.0 -6.05 0.0 -6.6 0.0 -7.0 0.0 -7.45 0.0 -7.65 L0.0 -7.7 M0.0 -11.1 Q0.0 -10.15 0.0 -11.35 0.0 -12.5 0.0 -12.55 0.0 -12.35 0.0 -11.1" fill="#ffffff" fill-rule="evenodd" stroke="none"/>
  </g>
</svg>
