<?xml version="1.0" encoding="UTF-8" standalone="no"?>
<svg xmlns:ffdec="https://www.free-decompiler.com/flash" xmlns:xlink="http://www.w3.org/1999/xlink" ffdec:objectType="shape" height="7.25px" width="0.0px" xmlns="http://www.w3.org/2000/svg">
  <g transform="matrix(1.0, 0.0, 0.0, 1.0, 0.0, 16.8)">
    <path d="M0.0 -15.1 Q0.0 -14.9 0.0 -16.8 0.0 -16.65 0.0 -13.1 0.0 -7.65 0.0 -10.5 0.0 -12.05 0.0 -14.55 0.0 -15.15 0.0 -15.1 M0.0 -14.2 L0.0 -14.3 Q0.0 -13.7 0.0 -12.35 0.0 -10.6 0.0 -12.25 0.0 -13.1 0.0 -14.1 L0.0 -14.2" fill="#ccfffe" fill-opacity="0.7529412" fill-rule="evenodd" stroke="none"/>
    <path d="M0.0 -14.2 L0.0 -14.1 Q0.0 -13.1 0.0 -12.25 0.0 -10.6 0.0 -12.35 0.0 -13.7 0.0 -14.3 L0.0 -14.2" fill="#ffffff" fill-rule="evenodd" stroke="none"/>
  </g>
</svg>
