<?xml version="1.0" encoding="UTF-8" standalone="no"?>
<svg xmlns:ffdec="https://www.free-decompiler.com/flash" xmlns:xlink="http://www.w3.org/1999/xlink" ffdec:objectType="shape" height="7.4px" width="73.05px" xmlns="http://www.w3.org/2000/svg">
  <g transform="matrix(1.0, 0.0, 0.0, 1.0, 53.9, 9.55)">
    <path d="M1.45 -9.45 L1.45 -9.4 Q1.5 -9.4 1.55 -9.4 L2.15 -9.4 2.2 -9.35 2.3 -9.35 2.4 -9.3 2.55 -9.3 2.55 -9.25 2.6 -9.25 2.65 -9.2 2.75 -9.2 2.75 -9.15 2.4 -9.15 2.4 -9.2 2.3 -9.2 2.3 -9.25 2.25 -9.25 2.1 -9.3 2.05 -9.35 1.5 -9.35 1.45 -9.3 1.25 -9.3 1.15 -9.35 1.1 -9.35 1.1 -9.45 1.0 -9.45 0.95 -9.5 -0.8 -9.5 -0.85 -9.45 -0.9 -9.45 -0.9 -9.35 -0.75 -9.35 -0.65 -9.3 -0.5 -9.3 -0.5 -9.15 -0.6 -9.15 -0.6 -9.05 -0.65 -9.05 -0.7 -9.0 -0.75 -9.0 -0.8 -8.95 -0.9 -8.95 -1.0 -8.9 -1.75 -8.9 -1.8 -8.95 -1.9 -8.95 -1.95 -9.0 -1.95 -9.05 -2.0 -9.05 -2.0 -9.1 -2.05 -9.1 -2.1 -9.15 -2.85 -9.15 -2.95 -9.1 -3.15 -9.1 -3.15 -9.05 -3.25 -9.05 -3.25 -9.0 -3.3 -9.0 -3.3 -8.95 -3.2 -8.95 -3.05 -8.9 -2.95 -8.9 -2.9 -8.85 -2.85 -8.85 -2.85 -8.8 -2.9 -8.8 -2.95 -8.75 -3.05 -8.75 -3.1 -8.7 -3.15 -8.7 -3.25 -8.65 -3.35 -8.65 -3.4 -8.6 -3.15 -8.6 -3.0 -8.55 -2.5 -8.55 -2.45 -8.5 -2.35 -8.55 -2.1 -8.55 -2.0 -8.5 -1.85 -8.5 -1.7 -8.45 -1.45 -8.45 -1.35 -8.4 -1.1 -8.4 -1.05 -8.35 -0.9 -8.35 -0.85 -8.3 -0.7 -8.3 -0.65 -8.25 -0.6 -8.25 -0.6 -8.2 -0.55 -8.2 -0.5 -8.15 -0.35 -8.15 -0.4 -8.1 -0.65 -8.1 -0.65 -8.15 -0.8 -8.15 -0.85 -8.2 -1.05 -8.2 -1.05 -8.25 -1.4 -8.25 -1.5 -8.3 -1.55 -8.35 -1.95 -8.35 -2.0 -8.4 -2.2 -8.4 -2.25 -8.45 -3.15 -8.45 -3.4 -8.5 -3.75 -8.5 -3.8 -8.45 -3.95 -8.45 -4.1 -8.4 -4.6 -8.4 -4.65 -8.35 -5.0 -8.35 -5.15 -8.4 -6.4 -8.4 -6.55 -8.35 -7.6 -8.35 -7.65 -8.3 -7.9 -8.3 -7.95 -8.25 -8.05 -8.25 -8.05 -8.2 -8.1 -8.2 -8.15 -8.15 -8.2 -8.15 -8.25 -8.1 -8.35 -8.1 -8.45 -8.05 -8.55 -8.05 -8.6 -8.0 -9.4 -8.0 -9.5 -7.95 -10.0 -7.95 -10.05 -7.9 -11.05 -7.9 -11.2 -7.95 -11.65 -7.95 -11.9 -7.9 -13.05 -7.9 -13.1 -7.85 -13.3 -7.85 -13.4 -7.8 -13.75 -7.8 -13.8 -7.75 -14.2 -7.75 -14.45 -7.7 -15.0 -7.7 -15.15 -7.75 -15.3 -7.75 -15.3 -7.85 -15.4 -7.9 -16.25 -7.9 -16.4 -7.95 -17.45 -7.95 -17.6 -7.9 -17.9 -7.9 -18.0 -7.85 -18.5 -7.85 -18.55 -7.9 -18.6 -7.9 -18.75 -7.85 -19.1 -7.85 -19.1 -7.8 -19.15 -7.8 -19.25 -7.75 -19.35 -7.75 -19.4 -7.7 -19.45 -7.7 -19.45 -7.6 -19.4 -7.55 -19.3 -7.55 Q-19.25 -7.55 -19.15 -7.55 L-19.1 -7.5 -19.05 -7.5 -19.05 -7.4 -18.85 -7.4 -18.8 -7.35 -18.75 -7.35 -18.7 -7.3 -18.65 -7.3 -18.65 -7.2 -18.7 -7.2 -18.75 -7.15 -18.75 -7.0 -18.8 -7.0 -18.8 -6.9 -18.95 -6.9 -18.95 -6.85 -19.0 -6.85 -19.0 -6.8 -19.1 -6.8 -19.1 -6.75 -19.15 -6.75 -19.2 -6.7 -19.25 -6.7 -19.3 -6.65 -19.4 -6.65 -19.45 -6.6 -19.55 -6.6 -19.6 -6.55 -19.7 -6.55 -19.8 -6.5 -19.9 -6.5 -19.9 -6.45 -19.95 -6.45 -20.0 -6.4 -20.0 -6.35 -19.9 -6.35 -19.9 -6.3 -19.95 -6.25 -20.05 -6.25 -20.05 -6.2 -20.1 -6.2 -20.1 -6.15 -20.15 -6.15 -20.2 -6.1 -20.25 -6.1 -20.3 -6.05 -20.35 -6.05 -20.4 -6.0 -20.45 -6.0 -20.45 -5.95 -20.5 -5.95 -20.55 -5.9 -20.65 -5.85 -20.75 -5.85 -20.9 -5.8 -21.0 -5.8 -21.0 -5.75 -21.05 -5.75 -21.15 -5.7 -21.25 -5.7 -21.3 -5.65 -22.4 -5.65 -22.45 -5.6 -22.45 -5.55 -22.5 -5.55 -22.6 -5.45 -22.6 -5.4 -22.7 -5.4 -22.7 -5.35 -22.75 -5.35 -22.8 -5.3 -22.85 -5.3 -22.85 -5.25 -22.75 -5.25 -22.65 -5.2 -22.6 -5.2 -22.6 -5.15 -22.45 -5.15 -22.35 -5.1 -22.25 -5.1 -22.2 -5.05 -21.2 -5.05 -21.1 -5.0 -21.0 -5.0 -20.95 -5.05 -20.15 -5.05 -20.15 -5.0 -19.85 -5.0 -19.75 -4.95 -18.2 -4.95 -18.25 -5.0 -18.25 -5.1 -18.15 -5.1 -18.05 -5.15 -18.0 -5.15 -18.05 -5.2 -18.05 -5.25 -17.95 -5.25 -17.9 -5.3 -17.8 -5.3 -17.7 -5.35 -17.7 -5.4 -17.4 -5.4 -17.4 -5.45 -17.3 -5.45 -17.3 -5.5 -17.25 -5.55 -17.2 -5.55 Q-17.2 -5.6 -17.1 -5.6 L-16.95 -5.65 -16.95 -5.7 -16.85 -5.7 -16.8 -5.75 -16.75 -5.75 -16.75 -5.8 -17.3 -5.8 -17.3 -5.95 -17.2 -5.95 -17.1 -6.0 -17.0 -6.0 -16.65 -6.05 -16.3 -6.05 -16.4 -6.0 -16.6 -6.0 -16.7 -5.95 -16.8 -5.95 -16.85 -5.9 Q-16.8 -5.9 -16.7 -5.9 L-16.6 -5.9 -16.55 -5.85 -16.35 -5.85 -16.25 -5.8 -16.25 -5.75 -16.35 -5.75 -16.35 -5.7 -16.4 -5.7 -16.45 -5.65 -16.5 -5.65 -16.6 -5.6 -16.7 -5.6 -16.75 -5.55 Q-16.8 -5.55 -16.85 -5.55 L-16.95 -5.55 -16.95 -5.5 -17.05 -5.5 -17.05 -5.45 -17.1 -5.45 -17.15 -5.4 -16.85 -5.4 -16.75 -5.35 -16.55 -5.35 -16.4 -5.3 -16.3 -5.3 -16.3 -5.25 -15.75 -5.25 -15.7 -5.3 -15.4 -5.3 -15.25 -5.35 -15.0 -5.35 -14.8 -5.4 -14.45 -5.4 -14.45 -5.35 -14.55 -5.35 -14.7 -5.3 -15.0 -5.3 -15.0 -5.25 -15.5 -5.25 -15.55 -5.2 -15.65 -5.2 -15.85 -5.15 -16.55 -5.15 -16.6 -5.2 -16.6 -5.25 -16.7 -5.25 -16.75 -5.3 -16.95 -5.3 -17.1 -5.35 -17.4 -5.35 -17.4 -5.3 -17.5 -5.3 -17.55 -5.25 -17.65 -5.25 -17.75 -5.2 -17.7 -5.2 -17.7 -5.15 -17.75 -5.15 -17.8 -5.1 -17.9 -5.1 -17.95 -5.05 -17.95 -5.0 -18.0 -5.0 -18.0 -4.95 -18.05 -4.9 -19.9 -4.9 -19.95 -4.95 -20.4 -4.95 -20.4 -5.0 -20.8 -5.0 -20.85 -4.95 -20.8 -4.95 -20.8 -4.85 -20.9 -4.85 -20.95 -4.8 -21.0 -4.8 -21.0 -4.75 -21.1 -4.75 -21.1 -4.7 -21.15 -4.7 -21.2 -4.65 -21.25 -4.65 -21.25 -4.6 -21.3 -4.6 -21.35 -4.55 -21.35 -4.5 -21.45 -4.5 -21.5 -4.45 -21.55 -4.45 Q-21.6 -4.45 -21.7 -4.4 L-21.85 -4.4 -21.85 -4.35 -24.05 -4.35 -24.1 -4.4 -24.35 -4.4 -24.55 -4.45 -24.75 -4.45 -24.85 -4.4 -25.35 -4.4 Q-25.5 -4.4 -25.7 -4.4 L-26.25 -4.35 -26.3 -4.3 -26.85 -4.3 -27.0 -4.25 -27.25 -4.25 -27.25 -4.2 -27.35 -4.2 -27.35 -4.15 -27.4 -4.15 -27.55 -4.1 -27.8 -4.1 -27.85 -4.05 -30.3 -4.05 -30.3 -4.1 -30.35 -4.1 -30.4 -4.15 -30.55 -4.1 -31.4 -4.1 Q-31.55 -4.1 -31.65 -4.15 L-32.65 -4.15 -32.7 -4.1 -33.2 -4.1 -34.0 -4.05 -34.1 -4.1 -34.65 -4.1 -34.75 -4.15 -35.1 -4.15 -35.1 -4.05 -35.15 -4.0 -35.15 -3.95 -35.3 -3.95 -35.35 -3.9 -35.6 -3.9 -35.6 -3.85 -35.7 -3.8 -35.8 -3.8 -35.9 -3.75 -35.95 -3.75 -35.95 -3.7 -36.8 -3.7 -36.7 -3.65 -36.55 -3.65 -36.45 -3.6 -36.5 -3.55 -36.3 -3.55 -36.25 -3.5 -36.1 -3.5 -36.1 -3.45 -35.95 -3.45 -35.95 -3.4 -35.9 -3.4 -35.85 -3.35 -35.65 -3.35 -35.55 -3.25 -35.25 -3.25 -35.2 -3.3 -34.6 -3.3 -34.45 -3.35 -33.75 -3.35 -33.65 -3.4 -32.4 -3.35 -32.25 -3.35 -32.25 -3.3 -32.2 -3.3 -32.2 -3.25 -32.1 -3.25 -32.05 -3.2 -32.0 -3.2 -31.95 -3.15 -31.85 -3.15 -31.85 -3.1 -31.75 -3.1 -31.75 -3.05 -31.8 -3.0 -30.7 -3.0 -30.65 -3.05 -30.55 -3.05 -30.5 -3.1 -30.4 -3.1 -30.3 -3.15 -29.85 -3.1 -29.5 -3.1 -29.35 -3.05 -28.7 -3.05 -28.65 -3.1 -28.3 -3.1 -28.15 -3.05 -27.95 -3.05 -27.95 -3.0 -28.2 -3.0 Q-28.75 -3.0 -29.35 -3.0 L-29.65 -3.05 -30.25 -3.05 -30.35 -3.0 -30.4 -3.0 -30.45 -2.95 -31.6 -2.95 -31.6 -2.85 -31.85 -2.85 -31.9 -2.8 -32.2 -2.8 -32.2 -2.75 -31.9 -2.75 -31.8 -2.7 -31.55 -2.7 -31.55 -2.65 -31.45 -2.6 -31.25 -2.6 -31.1 -2.55 -31.1 -2.5 -31.05 -2.5 -31.05 -2.45 -31.0 -2.45 -31.0 -2.4 -31.3 -2.4 -31.35 -2.45 -31.45 -2.45 -31.45 -2.5 -31.55 -2.5 -31.55 -2.55 -31.8 -2.55 -31.9 -2.6 -31.95 -2.65 -32.4 -2.65 -32.45 -2.7 -32.55 -2.7 -32.55 -2.75 -32.65 -2.75 -32.65 -2.85 -32.55 -2.85 -32.15 -2.9 -31.9 -2.9 -31.9 -2.95 -32.05 -2.95 -32.05 -3.0 -32.1 -3.05 -32.15 -3.05 -32.2 -3.1 -32.3 -3.1 -32.3 -3.15 -32.4 -3.15 -32.45 -3.2 -32.55 -3.2 -32.55 -3.3 -33.2 -3.3 -33.25 -3.35 -33.55 -3.3 -33.65 -3.3 Q-33.8 -3.3 -33.95 -3.3 L-34.3 -3.3 Q-34.4 -3.3 -34.55 -3.25 L-34.95 -3.25 -35.15 -3.2 -35.85 -3.2 -35.95 -3.3 -36.1 -3.3 -36.15 -3.35 -36.2 -3.35 -36.25 -3.4 -36.35 -3.4 -36.35 -3.45 -36.45 -3.45 -36.45 -3.5 -36.9 -3.5 -36.9 -3.55 -36.8 -3.55 -36.8 -3.6 -36.85 -3.65 -37.1 -3.65 -37.1 -3.7 -37.3 -3.7 -37.35 -3.65 -37.5 -3.7 -37.95 -3.7 -38.05 -3.75 -38.3 -3.75 -38.35 -3.8 -38.5 -3.8 -38.5 -3.85 -38.55 -3.85 Q-38.6 -3.9 -38.7 -3.9 L-38.75 -3.95 -38.95 -3.95 -39.0 -4.0 -39.75 -4.0 -39.85 -3.95 -40.15 -3.95 -40.2 -4.0 -40.3 -4.0 -40.45 -4.05 -40.65 -4.05 -40.65 -4.1 -40.75 -4.1 -40.75 -4.2 -40.8 -4.2 -40.8 -4.25 -40.75 -4.25 -40.7 -4.3 -40.65 -4.3 -40.65 -4.35 -40.55 -4.35 -40.5 -4.4 -40.55 -4.4 -40.55 -4.45 -40.5 -4.45 -40.5 -4.55 -40.55 -4.55 -40.6 -4.6 -40.65 -4.6 -40.75 -4.7 -40.8 -4.7 -40.8 -4.75 -40.85 -4.75 -40.9 -4.85 -40.9 -5.0 -40.75 -5.0 -40.55 -5.05 -40.6 -5.1 -40.6 -5.15 -40.7 -5.15 -40.7 -5.2 -40.95 -5.2 -41.0 -5.25 -41.3 -5.25 Q-41.35 -5.25 -41.4 -5.3 L-41.55 -5.3 -41.55 -5.45 -41.4 -5.45 -41.35 -5.5 -41.15 -5.5 -40.95 -5.55 -40.75 -5.55 -39.55 -5.6 -38.5 -5.6 -38.35 -5.65 -38.2 -5.65 -38.2 -5.75 -38.15 -5.75 -38.1 -5.8 -38.05 -5.8 -38.05 -5.9 -37.85 -5.9 -37.35 -5.95 -37.0 -5.95 -36.95 -6.0 -36.95 -6.05 -37.05 -6.1 -37.15 -6.1 -37.45 -6.2 -39.1 -6.2 -39.45 -6.25 -39.85 -6.25 -39.9 -6.2 -40.15 -6.2 -40.2 -6.15 -40.4 -6.15 -40.45 -6.2 -41.2 -6.2 -41.3 -6.25 -41.65 -6.25 -41.75 -6.3 -41.8 -6.3 Q-41.9 -6.3 -41.95 -6.3 L-42.35 -6.3 -42.4 -6.35 -42.9 -6.35 -42.95 -6.4 -43.05 -6.4 -43.15 -6.45 -43.3 -6.5 -43.35 -6.5 -43.35 -6.55 -43.55 -6.55 -43.65 -6.6 -43.8 -6.6 -43.95 -6.65 -44.5 -6.65 -44.55 -6.6 -45.8 -6.6 -45.85 -6.55 -46.2 -6.55 -46.25 -6.5 -46.8 -6.5 -46.85 -6.45 -47.15 -6.45 -47.2 -6.5 -48.0 -6.5 -48.3 -6.45 -49.7 -6.45 -49.75 -6.4 -49.8 -6.4 -49.8 -6.35 -49.85 -6.3 -49.75 -6.3 -49.75 -6.25 -49.8 -6.25 -49.8 -6.15 -49.85 -6.1 -49.8 -6.1 -49.8 -6.0 -50.1 -6.0 -50.2 -5.95 -51.75 -5.95 -51.8 -6.0 -52.35 -6.0 -52.35 -5.95 -52.4 -5.95 -52.7 -5.9 -53.1 -5.8 -53.4 -5.8 -53.5 -5.75 -53.85 -5.75 -53.8 -5.8 -53.7 -5.8 -53.65 -5.85 -53.35 -5.85 -53.3 -5.9 -53.05 -5.9 -52.95 -5.95 -52.85 -5.95 -52.7 -6.0 -52.6 -6.0 -52.6 -6.05 -52.45 -6.05 Q-52.0 -6.05 -51.55 -6.05 L-50.35 -6.05 -50.2 -6.1 -50.2 -6.15 -50.05 -6.15 -50.05 -6.2 -50.1 -6.25 -50.2 -6.25 -50.2 -6.45 -50.1 -6.45 -50.0 -6.5 -49.75 -6.5 -49.65 -6.55 -49.55 -6.5 -48.85 -6.5 Q-48.55 -6.5 -48.25 -6.55 L-47.9 -6.55 -47.75 -6.6 -47.1 -6.6 -47.0 -6.55 -46.7 -6.55 -46.55 -6.6 -46.15 -6.6 -46.15 -6.65 -45.9 -6.65 -45.7 -6.7 -43.8 -6.7 -43.75 -6.75 -43.7 -6.75 -43.65 -6.8 -43.6 -6.8 -43.6 -6.85 -43.5 -6.85 -43.5 -6.9 -42.9 -6.9 -42.9 -6.85 -42.8 -6.9 -42.65 -6.9 -42.6 -6.85 -42.55 -6.9 -41.3 -6.9 -41.15 -6.85 -40.95 -6.85 -40.9 -6.8 -40.75 -6.8 -40.75 -6.75 -40.65 -6.75 -40.6 -6.7 -40.15 -6.7 -40.0 -6.65 -39.9 -6.65 -39.9 -6.6 -39.45 -6.6 -39.35 -6.55 -38.8 -6.55 -38.75 -6.5 -37.15 -6.5 -37.1 -6.45 -37.0 -6.5 -35.9 -6.5 -35.85 -6.45 -35.65 -6.45 -35.65 -6.4 -35.6 -6.35 -35.6 -6.3 -35.6 -6.25 -35.5 -6.25 -35.5 -6.2 -35.45 -6.15 -35.45 -6.1 -35.5 -6.05 -36.0 -6.05 -36.15 -6.0 -36.5 -6.0 -36.5 -5.95 -36.55 -5.9 Q-36.6 -5.9 -36.7 -5.9 L-36.85 -5.85 -37.6 -5.85 -37.6 -5.8 -37.65 -5.75 -37.75 -5.75 -37.85 -5.7 -37.85 -5.65 -37.8 -5.6 -37.85 -5.55 -38.05 -5.55 Q-38.25 -5.5 -38.4 -5.5 L-38.65 -5.5 -38.75 -5.45 -38.9 -5.45 -39.05 -5.5 -39.35 -5.5 -39.45 -5.45 -40.7 -5.45 -40.8 -5.4 -41.0 -5.4 -41.0 -5.35 -40.7 -5.35 -40.6 -5.3 -40.4 -5.3 -40.25 -5.25 -40.2 -5.25 -40.2 -5.2 -40.15 -5.2 -40.15 -5.05 -40.2 -5.05 -40.25 -5.0 -40.4 -5.0 Q-40.5 -4.95 -40.55 -4.95 L-40.6 -4.95 -40.6 -4.9 -40.5 -4.9 -40.5 -4.85 -40.55 -4.85 -40.6 -4.8 -40.55 -4.8 -40.5 -4.75 -40.5 -4.7 -40.4 -4.7 -40.4 -4.65 -40.35 -4.65 -40.35 -4.6 -40.3 -4.55 -40.25 -4.55 -40.25 -4.5 -40.2 -4.45 -40.15 -4.45 -40.15 -4.4 -40.1 -4.4 -40.05 -4.35 -40.1 -4.3 -40.15 -4.3 -40.15 -4.25 -40.2 -4.25 -40.2 -4.2 -40.25 -4.2 -40.3 -4.15 -40.25 -4.15 -40.25 -4.1 -40.1 -4.1 Q-40.05 -4.1 -40.0 -4.1 L-38.9 -4.1 Q-38.65 -4.05 -38.45 -4.0 L-38.2 -3.9 -38.1 -3.9 -38.05 -3.85 -37.85 -3.85 -37.75 -3.8 -37.55 -3.8 -37.4 -3.75 -36.35 -3.75 -36.3 -3.8 -36.15 -3.8 -36.1 -3.85 -36.0 -3.85 -35.95 -3.9 -35.8 -3.9 -35.75 -3.95 -35.5 -3.95 -35.5 -4.0 -35.45 -4.0 -35.45 -4.15 -35.4 -4.2 -34.5 -4.2 -34.45 -4.15 -33.2 -4.15 -33.1 -4.2 -32.75 -4.2 -32.7 -4.25 -32.0 -4.25 Q-31.8 -4.25 -31.55 -4.25 -31.3 -4.2 -31.1 -4.2 L-30.1 -4.2 -30.0 -4.15 -27.9 -4.15 -27.8 -4.2 -27.8 -4.25 -27.7 -4.25 -27.7 -4.3 -27.65 -4.3 -27.55 -4.35 -26.95 -4.35 Q-26.75 -4.4 -26.5 -4.4 -26.25 -4.4 -26.0 -4.45 L-25.45 -4.5 -22.9 -4.5 -22.8 -4.45 -22.2 -4.45 -22.1 -4.5 -21.95 -4.5 -21.9 -4.55 -21.8 -4.55 -21.8 -4.6 -21.7 -4.6 -21.7 -4.7 -21.6 -4.7 -21.6 -4.75 -21.5 -4.75 -21.5 -4.8 -21.45 -4.85 -21.4 -4.85 -21.35 -4.9 -21.25 -4.9 -21.25 -4.95 -22.35 -4.95 -22.35 -5.0 -22.6 -5.0 -22.65 -5.05 -22.85 -5.05 -22.9 -5.1 -23.0 -5.1 -23.0 -5.15 -23.15 -5.15 -23.2 -5.2 -23.25 -5.2 -23.3 -5.25 -23.35 -5.25 -23.35 -5.3 -23.25 -5.3 -23.25 -5.35 -23.2 -5.4 -23.15 -5.4 -23.15 -5.45 -23.05 -5.45 -23.05 -5.5 -22.95 -5.5 -22.95 -5.55 -22.85 -5.6 -22.85 -5.65 -22.8 -5.65 -22.8 -5.7 -22.75 -5.7 -22.8 -5.75 -22.85 -5.75 -22.85 -5.85 -22.1 -5.85 -22.1 -5.75 -22.0 -5.75 -21.95 -5.7 -21.85 -5.7 -21.8 -5.75 -21.5 -5.75 -21.3 -5.85 -21.15 -5.9 -21.0 -5.9 -20.95 -5.95 -20.85 -6.0 -20.7 -6.0 -20.7 -6.05 -20.6 -6.05 -20.6 -6.1 -20.55 -6.1 -20.55 -6.15 -20.5 -6.15 -20.45 -6.2 -20.4 -6.2 -20.35 -6.25 -20.35 -6.45 -20.3 -6.45 -20.3 -6.5 -20.25 -6.5 -20.2 -6.55 -20.1 -6.55 -20.1 -6.6 -19.9 -6.6 -19.8 -6.65 -19.75 -6.65 -19.75 -6.7 -19.65 -6.7 -19.6 -6.75 -19.5 -6.75 -19.5 -6.8 -19.45 -6.8 -19.4 -6.85 -19.35 -6.85 -19.35 -6.9 -19.3 -6.9 -19.25 -6.95 -19.2 -6.95 -19.2 -7.0 -19.15 -7.0 -19.1 -7.05 -19.1 -7.2 -19.05 -7.2 -19.0 -7.25 -19.0 -7.3 -19.15 -7.3 -19.2 -7.35 -19.45 -7.35 -19.45 -7.4 -19.5 -7.4 -19.5 -7.45 -19.55 -7.45 -19.7 -7.5 -19.75 -7.5 -19.8 -7.55 -19.85 -7.55 -19.85 -7.7 -19.8 -7.7 -19.75 -7.75 -19.7 -7.75 -19.65 -7.8 -19.5 -7.8 -19.45 -7.85 -19.45 -7.9 -19.2 -7.9 -19.1 -7.95 -18.95 -7.95 -18.95 -8.0 -18.85 -8.0 -18.85 -8.05 -18.8 -8.05 -18.75 -8.1 -18.85 -8.1 -18.95 -8.15 -19.8 -8.15 -19.8 -8.2 -19.9 -8.2 -19.9 -8.25 -19.95 -8.25 -19.95 -8.3 -20.05 -8.3 -20.05 -8.4 -20.0 -8.4 -19.85 -8.45 -18.75 -8.45 -18.7 -8.5 -18.5 -8.5 -18.45 -8.55 -18.35 -8.55 -18.35 -8.6 -18.4 -8.65 -18.45 -8.65 -18.45 -8.7 -18.5 -8.7 -18.5 -8.75 -18.6 -8.85 -18.65 -8.85 -18.65 -8.9 -18.6 -8.95 -18.6 -9.0 -18.5 -9.0 -18.45 -9.05 -18.4 -9.05 -18.4 -9.1 -18.25 -9.1 -18.05 -9.15 -17.45 -9.15 -17.4 -9.1 -17.3 -9.1 -17.25 -9.05 -17.2 -9.05 -17.15 -9.0 -17.15 -8.95 -17.25 -8.95 -17.2 -8.9 -16.8 -8.9 -16.65 -8.95 -16.5 -8.95 -16.5 -9.0 -16.3 -9.0 -16.3 -9.05 -15.8 -9.05 -15.7 -9.0 -15.1 -9.0 -15.0 -8.95 -14.65 -8.95 -14.6 -8.9 Q-14.65 -8.9 -14.7 -8.9 L-15.4 -8.9 -15.45 -8.95 Q-15.5 -8.95 -15.55 -8.95 L-15.9 -8.95 -15.9 -9.0 -16.1 -9.0 -16.15 -8.95 -16.25 -8.95 -16.25 -8.9 -16.55 -8.9 -16.55 -8.85 -17.45 -8.85 -17.5 -8.9 -17.5 -8.95 -17.45 -8.95 -17.4 -9.0 -17.45 -9.05 -17.6 -9.05 -17.6 -9.1 -18.05 -9.1 -18.15 -9.05 -18.15 -9.0 -18.25 -9.0 -18.3 -8.95 -18.3 -8.9 -18.4 -8.9 -18.35 -8.85 -18.35 -8.8 -18.25 -8.8 -18.25 -8.7 -18.3 -8.65 -18.2 -8.65 -18.2 -8.55 -18.25 -8.5 -18.4 -8.5 -18.45 -8.45 -18.65 -8.45 -18.7 -8.4 -19.65 -8.4 -19.75 -8.35 -19.65 -8.25 -19.6 -8.25 -19.5 -8.2 -19.25 -8.2 -19.1 -8.25 -18.85 -8.2 -18.7 -8.2 -18.7 -8.15 -18.6 -8.15 -18.6 -8.1 -18.55 -8.1 -18.55 -8.05 -18.65 -7.95 -18.05 -7.95 -17.9 -8.0 -16.1 -8.0 -15.7 -7.95 -15.0 -7.95 -14.95 -7.9 -14.9 -7.9 -14.9 -7.8 -14.1 -7.8 -13.95 -7.85 -13.75 -7.85 -13.7 -7.9 -13.65 -7.9 Q-13.6 -7.9 -13.55 -7.9 L-13.35 -7.9 -13.3 -7.95 -13.1 -7.95 -12.95 -8.0 -11.6 -8.0 -11.55 -8.05 -11.3 -8.05 -11.15 -8.0 -10.0 -8.0 -9.9 -8.05 -9.5 -8.05 -9.45 -8.1 -9.3 -8.1 -9.3 -8.15 -9.25 -8.15 -9.2 -8.2 -9.15 -8.2 -9.05 -8.25 -8.8 -8.3 -8.55 -8.3 -8.5 -8.35 -8.35 -8.35 -8.3 -8.4 -8.2 -8.4 -8.15 -8.45 -6.9 -8.45 -6.8 -8.5 -6.3 -8.5 -6.25 -8.45 -5.95 -8.45 -5.8 -8.5 -4.3 -8.5 -4.25 -8.55 -4.15 -8.55 -4.15 -8.6 -3.9 -8.6 -3.85 -8.65 -3.65 -8.65 -3.6 -8.7 -3.45 -8.7 -3.45 -8.75 -3.3 -8.75 -3.25 -8.8 -3.2 -8.8 -3.25 -8.85 -3.45 -8.85 -3.5 -8.9 -3.7 -8.9 -3.7 -8.95 -3.65 -8.95 -3.6 -9.0 -3.6 -9.05 -3.5 -9.05 -3.5 -9.1 -3.3 -9.1 -3.15 -9.15 -1.8 -9.15 -1.8 -9.05 -1.7 -9.05 -1.7 -9.0 -1.55 -9.0 -1.45 -8.95 -1.1 -8.95 -1.05 -9.0 -0.95 -9.0 -0.95 -9.05 -0.85 -9.05 -0.85 -9.15 -0.8 -9.2 -0.75 -9.2 -0.75 -9.25 -0.8 -9.25 -0.9 -9.3 -1.05 -9.3 -1.1 -9.35 -1.1 -9.45 -1.05 -9.5 -1.0 -9.5 -0.95 -9.55 -0.55 -9.55 -0.5 -9.5 -0.35 -9.55 1.15 -9.55 1.25 -9.5 1.4 -9.5 1.45 -9.45 M0.3 -8.85 L0.1 -8.85 0.0 -8.8 Q-0.05 -8.8 -0.15 -8.8 L-0.9 -8.8 -0.9 -8.9 -0.85 -8.9 -0.85 -8.95 -0.6 -8.95 -0.6 -8.9 -0.55 -8.9 -0.55 -8.85 -0.35 -8.85 -0.25 -8.9 0.25 -8.9 0.3 -8.85 M0.25 -8.0 L0.35 -8.0 0.4 -7.95 0.65 -7.95 0.75 -7.9 1.2 -7.9 1.25 -7.95 1.45 -7.95 1.5 -8.0 1.65 -8.0 1.75 -8.05 2.5 -8.05 2.55 -8.0 2.95 -8.0 2.95 -7.95 3.0 -7.9 3.1 -7.9 3.15 -7.85 3.2 -7.85 3.6 -7.75 3.95 -7.75 4.05 -7.7 4.95 -7.7 5.0 -7.65 5.7 -7.65 5.8 -7.7 5.95 -7.7 5.95 -7.75 6.05 -7.75 6.1 -7.8 7.25 -7.8 7.4 -7.75 7.55 -7.75 7.6 -7.7 8.45 -7.7 8.5 -7.65 8.6 -7.65 8.7 -7.6 8.75 -7.6 8.75 -7.55 8.7 -7.55 8.6 -7.5 Q8.65 -7.5 8.75 -7.5 L9.2 -7.5 9.3 -7.45 9.4 -7.45 9.45 -7.4 9.5 -7.4 9.55 -7.35 9.6 -7.35 9.6 -7.3 9.65 -7.25 9.75 -7.25 9.85 -7.2 10.4 -7.2 Q10.65 -7.2 10.9 -7.25 L11.2 -7.25 11.65 -7.2 11.85 -7.2 11.85 -7.1 11.75 -7.1 11.75 -7.05 11.8 -7.05 11.8 -7.0 11.85 -7.0 11.85 -6.95 11.9 -6.95 11.95 -6.9 12.05 -6.9 12.1 -6.85 12.15 -6.85 12.15 -6.8 12.25 -6.8 12.3 -6.75 12.35 -6.75 12.35 -6.7 12.4 -6.7 12.45 -6.65 12.45 -6.5 Q12.45 -6.45 12.4 -6.45 L12.25 -6.4 12.1 -6.4 12.0 -6.35 11.85 -6.35 11.75 -6.3 11.2 -6.3 11.2 -6.25 10.9 -6.3 10.2 -6.3 9.85 -6.35 9.55 -6.35 9.45 -6.4 9.3 -6.4 9.25 -6.45 8.95 -6.45 8.75 -6.5 8.45 -6.5 Q8.35 -6.55 8.3 -6.55 L8.25 -6.55 8.25 -6.6 8.0 -6.6 7.95 -6.65 7.35 -6.65 7.25 -6.7 7.1 -6.7 7.1 -6.65 5.9 -6.65 5.95 -6.6 6.15 -6.6 6.15 -6.5 6.05 -6.5 6.05 -6.45 6.0 -6.45 5.95 -6.4 5.85 -6.4 5.65 -6.35 5.3 -6.35 5.25 -6.3 4.45 -6.3 4.2 -6.25 2.75 -6.25 2.6 -6.3 1.15 -6.3 1.1 -6.35 0.95 -6.35 0.95 -6.4 0.85 -6.4 0.85 -6.45 0.5 -6.45 0.45 -6.5 0.0 -6.5 0.0 -6.45 -0.05 -6.4 -0.2 -6.4 -0.25 -6.35 -0.55 -6.35 -0.8 -6.3 -1.2 -6.3 -1.2 -6.25 -1.5 -6.25 -1.55 -6.2 -2.4 -6.2 -2.65 -6.25 -3.05 -6.25 -3.1 -6.3 -3.3 -6.3 -3.45 -6.35 -3.75 -6.35 -3.8 -6.4 -4.4 -6.4 -4.45 -6.35 -4.75 -6.35 -4.8 -6.3 -4.8 -6.2 -4.85 -6.2 -4.9 -6.15 -5.2 -6.15 Q-5.25 -6.1 -5.35 -6.1 L-5.5 -6.1 -5.55 -6.05 Q-5.65 -6.05 -5.7 -6.05 L-5.8 -6.0 -5.9 -6.0 -6.0 -5.95 -6.4 -5.95 -6.45 -5.9 -6.7 -5.9 -6.8 -5.85 -7.05 -5.85 -7.1 -5.8 -7.45 -5.8 -7.55 -5.75 -8.0 -5.75 -8.15 -5.7 -8.3 -5.7 -8.35 -5.65 -7.9 -5.65 -7.8 -5.6 -7.6 -5.6 -7.6 -5.55 -7.2 -5.55 -6.75 -5.5 -6.45 -5.5 -6.3 -5.45 -6.15 -5.45 -6.05 -5.4 -5.6 -5.4 -5.55 -5.35 -4.35 -5.35 -4.15 -5.3 -3.3 -5.3 -3.0 -5.35 -2.75 -5.35 Q-2.65 -5.35 -2.55 -5.35 L-2.45 -5.4 -2.35 -5.4 -2.25 -5.35 -1.8 -5.35 -1.55 -5.3 -1.05 -5.3 -1.0 -5.25 -0.85 -5.25 -0.8 -5.2 -0.7 -5.2 -0.7 -5.15 -0.6 -5.15 -0.6 -4.9 -0.7 -4.9 -0.75 -4.85 Q-0.8 -4.85 -0.95 -4.8 -1.1 -4.8 -1.25 -4.75 L-1.65 -4.7 -1.85 -4.7 -1.8 -4.65 -1.25 -4.65 -1.05 -4.6 -0.8 -4.6 -0.7 -4.55 -0.55 -4.55 -0.55 -4.5 -0.5 -4.5 -0.5 -4.45 -0.4 -4.45 -0.4 -4.4 -0.3 -4.4 -0.3 -4.25 -0.2 -4.25 -0.2 -4.15 -0.15 -4.1 Q-0.15 -4.05 -0.2 -4.0 L-0.3 -4.0 -0.35 -3.95 -1.65 -3.95 -1.65 -3.9 -1.7 -3.9 -1.7 -3.85 -1.8 -3.85 -1.85 -3.8 -1.85 -3.75 -1.9 -3.7 -1.75 -3.7 -1.65 -3.65 -1.4 -3.65 Q-1.35 -3.65 -1.25 -3.65 L-1.25 -3.7 -0.6 -3.7 -0.6 -3.6 -0.25 -3.6 -0.2 -3.55 -0.1 -3.55 -0.05 -3.5 -0.05 -3.4 -0.15 -3.4 -0.15 -3.35 -0.25 -3.35 -0.25 -3.25 -0.1 -3.25 -0.1 -3.2 0.55 -3.2 0.6 -3.25 1.1 -3.25 1.25 -3.3 1.45 -3.3 1.55 -3.35 1.75 -3.35 2.35 -3.4 2.5 -3.35 2.65 -3.35 2.7 -3.3 2.8 -3.3 2.85 -3.25 3.0 -3.25 3.0 -3.2 3.1 -3.2 3.1 -3.15 3.15 -3.1 3.15 -3.05 3.25 -3.0 3.35 -3.0 3.35 -2.95 3.5 -2.95 3.55 -2.9 3.45 -2.8 3.25 -2.75 2.4 -2.75 2.25 -2.8 1.85 -2.8 1.8 -2.75 1.6 -2.75 1.55 -2.7 1.2 -2.7 1.2 -2.65 1.3 -2.65 1.4 -2.6 1.5 -2.6 1.6 -2.55 1.7 -2.55 1.7 -2.5 1.65 -2.45 1.7 -2.4 1.65 -2.4 1.6 -2.35 1.55 -2.35 1.5 -2.3 0.9 -2.3 0.75 -2.25 0.65 -2.25 0.55 -2.2 0.3 -2.15 -0.1 -2.15 -0.1 -2.2 -0.05 -2.2 0.0 -2.25 0.1 -2.25 0.2 -2.3 0.3 -2.3 0.3 -2.35 0.6 -2.35 0.7 -2.4 1.1 -2.4 1.15 -2.45 1.25 -2.45 1.2 -2.5 1.1 -2.5 1.05 -2.55 0.7 -2.55 0.65 -2.6 0.6 -2.6 0.6 -2.65 0.5 -2.65 0.5 -2.7 0.55 -2.75 0.85 -2.75 1.0 -2.8 1.3 -2.8 1.4 -2.85 2.7 -2.85 Q2.95 -2.85 3.2 -2.85 L3.15 -2.85 3.1 -2.9 3.0 -2.9 3.0 -2.95 2.9 -2.95 2.9 -3.0 2.85 -3.0 2.85 -3.05 2.6 -3.05 2.55 -3.1 2.5 -3.1 2.5 -3.15 2.45 -3.15 2.45 -3.2 2.4 -3.2 2.4 -3.25 2.3 -3.25 2.25 -3.3 1.9 -3.3 1.8 -3.25 1.7 -3.25 1.45 -3.2 1.35 -3.2 Q1.25 -3.2 1.2 -3.2 L1.15 -3.15 0.95 -3.15 0.85 -3.1 0.55 -3.1 0.5 -3.05 -0.5 -3.05 -0.6 -3.1 -0.65 -3.1 -0.65 -3.15 -0.7 -3.2 -0.75 -3.2 -0.75 -3.3 -0.7 -3.3 -0.7 -3.35 -0.65 -3.4 -0.6 -3.4 -0.55 -3.45 -0.5 -3.45 -0.5 -3.5 -0.7 -3.5 -0.7 -3.55 -1.05 -3.55 -1.1 -3.6 -1.25 -3.55 Q-1.3 -3.55 -1.35 -3.55 L-1.85 -3.55 -1.95 -3.6 -2.2 -3.6 -2.25 -3.55 -3.45 -3.55 -3.5 -3.6 -3.95 -3.6 -4.0 -3.65 -4.1 -3.65 -4.2 -3.7 -4.45 -3.7 -4.55 -3.75 -5.05 -3.75 -5.05 -3.7 -5.15 -3.7 -5.2 -3.65 -5.25 -3.65 -5.3 -3.6 -5.4 -3.6 -5.45 -3.55 -5.55 -3.55 -5.5 -3.5 -5.3 -3.5 -5.15 -3.45 -4.95 -3.45 -4.85 -3.4 -4.8 -3.4 -4.8 -3.35 -4.75 -3.35 -4.7 -3.3 -4.7 -3.25 -4.8 -3.25 -4.9 -3.2 -5.1 -3.2 -5.45 -3.15 -5.75 -3.15 -6.35 -3.1 -6.6 -3.1 -6.65 -3.05 -6.3 -3.05 -6.15 -3.0 -5.75 -3.0 -5.55 -2.95 -5.1 -2.95 -5.0 -2.9 -4.75 -2.9 -4.6 -2.85 -4.45 -2.85 -4.45 -2.6 -4.55 -2.6 -4.55 -2.4 -4.6 -2.4 -4.65 -2.35 -4.8 -2.35 -4.85 -2.4 -4.9 -2.4 -4.9 -2.65 -4.8 -2.65 -4.85 -2.7 -4.85 -2.75 -4.8 -2.8 -5.05 -2.8 -5.1 -2.85 -5.45 -2.85 -5.5 -2.9 -6.1 -2.9 Q-6.2 -2.9 -6.3 -2.9 L-6.35 -2.95 -7.0 -2.95 -7.05 -3.0 -7.25 -3.0 -7.25 -3.1 -7.05 -3.1 -7.05 -3.15 -7.1 -3.15 -7.1 -3.2 -5.75 -3.2 -5.65 -3.25 -5.3 -3.25 -5.2 -3.3 -5.25 -3.35 -5.4 -3.35 -5.45 -3.4 -5.7 -3.4 -5.8 -3.45 -6.05 -3.45 -6.1 -3.5 -6.0 -3.6 -5.9 -3.6 -5.9 -3.65 -5.7 -3.65 -5.7 -3.7 -5.6 -3.7 -5.6 -3.75 -5.5 -3.75 -5.5 -3.8 -5.4 -3.85 -5.1 -3.85 -5.1 -3.9 -5.0 -3.9 -4.9 -3.85 -4.25 -3.85 -4.15 -3.8 -4.1 -3.8 -3.9 -3.75 -3.7 -3.75 -3.7 -3.7 -3.55 -3.7 -3.45 -3.65 -3.1 -3.65 -3.05 -3.6 -2.75 -3.6 -2.65 -3.65 -2.25 -3.65 -2.25 -3.7 -2.45 -3.7 -2.5 -3.75 -2.55 -3.75 -2.6 -3.8 -2.55 -3.85 -2.45 -3.85 -2.4 -3.9 -2.3 -3.9 -2.25 -3.95 -2.2 -3.95 -2.2 -4.0 -2.15 -4.0 -2.1 -4.05 -0.75 -4.05 -0.75 -4.1 -0.7 -4.1 -0.7 -4.2 -0.8 -4.2 -0.8 -4.35 -0.9 -4.35 -0.9 -4.4 -1.0 -4.4 -1.0 -4.45 -1.1 -4.45 -1.1 -4.5 -1.3 -4.5 -1.35 -4.55 -2.05 -4.55 -2.05 -4.6 -2.3 -4.6 -2.35 -4.65 -2.45 -4.65 -2.45 -4.7 -2.4 -4.7 -2.35 -4.75 -2.2 -4.75 -2.1 -4.8 -1.6 -4.8 -1.55 -4.85 -1.45 -4.85 Q-1.4 -4.85 -1.35 -4.85 L-1.3 -4.85 -1.3 -4.9 -1.15 -4.9 -1.1 -4.95 -1.05 -4.95 -1.05 -5.1 -1.1 -5.1 -1.1 -5.15 -1.2 -5.15 -1.2 -5.2 -1.55 -5.2 -1.65 -5.25 -2.25 -5.25 -2.4 -5.3 -2.5 -5.25 -2.9 -5.25 -3.05 -5.2 -4.4 -5.25 -5.4 -5.25 Q-5.5 -5.3 -5.65 -5.3 L-6.25 -5.3 -6.35 -5.35 -6.5 -5.4 -6.7 -5.4 -6.8 -5.45 -7.75 -5.45 -7.8 -5.5 -8.0 -5.5 -8.05 -5.55 -8.85 -5.55 -8.85 -5.65 -8.8 -5.65 -8.8 -5.7 -8.75 -5.7 -8.65 -5.75 -8.55 -5.75 -8.4 -5.8 -8.15 -5.8 -8.1 -5.85 -7.65 -5.85 Q-7.6 -5.85 -7.55 -5.85 L-7.35 -5.9 -7.05 -5.95 -6.95 -6.0 -6.65 -6.0 Q-6.6 -6.05 -6.55 -6.05 L-6.15 -6.05 -6.05 -6.1 -6.0 -6.1 -5.8 -6.15 -5.75 -6.15 -5.6 -6.2 -5.45 -6.2 -5.25 -6.25 -5.25 -6.3 -5.3 -6.3 -5.3 -6.35 -5.25 -6.35 -5.15 -6.4 -4.95 -6.4 -4.8 -6.45 -4.55 -6.45 -4.55 -6.5 -4.2 -6.5 -3.8 -6.45 -3.45 -6.45 -3.35 -6.4 -3.05 -6.4 -3.0 -6.35 -2.5 -6.35 -2.45 -6.3 -1.6 -6.3 -1.6 -6.35 -1.5 -6.35 -1.45 -6.4 -0.95 -6.4 Q-0.9 -6.4 -0.8 -6.4 L-0.75 -6.4 -0.6 -6.45 -0.5 -6.45 -0.5 -6.55 -0.4 -6.55 -0.35 -6.6 0.75 -6.6 0.75 -6.55 0.9 -6.55 1.1 -6.5 1.3 -6.5 1.35 -6.45 1.45 -6.45 1.45 -6.4 1.5 -6.4 Q2.05 -6.35 2.65 -6.4 2.8 -6.35 2.95 -6.35 L4.05 -6.35 4.25 -6.4 5.05 -6.4 5.1 -6.45 5.5 -6.45 5.5 -6.5 5.55 -6.5 5.55 -6.55 5.3 -6.55 5.3 -6.65 5.35 -6.7 5.45 -6.7 Q5.5 -6.75 5.65 -6.75 L7.9 -6.75 8.1 -6.7 8.35 -6.7 8.4 -6.65 8.65 -6.65 8.65 -6.6 8.75 -6.6 8.85 -6.55 9.0 -6.55 9.2 -6.5 9.55 -6.5 9.65 -6.45 9.9 -6.45 10.0 -6.4 11.25 -6.4 11.6 -6.45 11.75 -6.45 11.9 -6.5 Q11.95 -6.5 11.95 -6.55 L11.95 -6.6 11.9 -6.6 11.9 -6.65 11.85 -6.65 11.85 -6.7 11.75 -6.75 11.65 -6.75 11.65 -6.8 11.6 -6.85 11.5 -6.85 11.45 -6.9 11.4 -6.9 11.35 -6.95 11.3 -6.95 11.25 -7.0 11.2 -7.0 11.2 -7.05 11.25 -7.05 11.25 -7.1 11.3 -7.1 11.3 -7.15 11.0 -7.15 10.7 -7.1 9.85 -7.1 9.6 -7.15 9.4 -7.15 9.3 -7.2 9.25 -7.2 9.15 -7.25 9.15 -7.3 9.1 -7.3 9.0 -7.4 8.35 -7.4 8.25 -7.45 8.1 -7.5 8.05 -7.5 8.05 -7.55 8.1 -7.55 8.15 -7.6 7.25 -7.6 7.1 -7.65 7.0 -7.7 6.55 -7.7 Q6.5 -7.7 6.45 -7.7 L6.4 -7.65 6.25 -7.6 6.05 -7.6 6.05 -7.55 4.75 -7.55 4.7 -7.6 3.8 -7.6 Q3.75 -7.6 3.7 -7.65 L3.2 -7.65 3.15 -7.7 3.0 -7.7 2.85 -7.75 2.7 -7.75 2.7 -7.8 2.6 -7.8 2.45 -7.85 2.45 -7.9 2.4 -7.95 2.15 -7.95 2.15 -8.0 2.05 -8.0 2.0 -7.95 1.7 -7.9 1.45 -7.85 1.35 -7.8 0.6 -7.8 0.55 -7.85 0.3 -7.85 0.25 -7.9 -0.2 -7.9 -0.2 -7.95 -0.3 -7.95 -0.4 -8.0 -0.4 -8.05 0.2 -8.05 0.25 -8.0 M0.85 -5.3 L1.75 -5.3 1.75 -5.2 1.85 -5.2 1.85 -5.15 1.75 -5.15 1.8 -5.1 2.35 -5.1 2.45 -5.15 3.55 -5.15 Q3.6 -5.15 3.7 -5.15 L3.75 -5.1 3.8 -5.1 3.85 -5.05 3.95 -5.05 4.05 -5.0 4.15 -5.0 4.15 -4.95 4.3 -4.95 4.35 -4.9 4.5 -4.9 4.5 -4.85 4.6 -4.85 4.6 -4.8 4.35 -4.8 4.3 -4.85 4.1 -4.9 3.85 -4.95 3.8 -5.0 3.6 -5.0 3.55 -5.05 3.3 -5.05 3.2 -5.1 2.75 -5.1 2.65 -5.05 2.8 -5.05 2.85 -5.0 3.0 -5.0 2.95 -4.95 2.8 -4.95 2.8 -4.9 2.7 -4.8 2.7 -4.7 2.4 -4.7 2.4 -4.8 Q2.35 -4.8 2.35 -4.85 L2.35 -4.9 2.45 -4.9 2.45 -4.95 2.5 -5.0 2.35 -5.0 2.3 -5.05 2.2 -5.0 1.7 -5.0 1.6 -5.05 1.65 -5.1 1.65 -5.15 1.6 -5.15 1.5 -5.2 1.5 -5.25 1.35 -5.25 1.25 -5.3 1.2 -5.25 0.85 -5.25 0.85 -5.15 0.8 -5.1 0.75 -5.1 0.75 -5.05 0.05 -5.05 0.0 -5.1 -0.6 -5.1 -0.55 -5.15 0.35 -5.15 0.4 -5.1 0.5 -5.1 0.5 -5.15 0.6 -5.15 0.6 -5.25 0.65 -5.25 0.75 -5.3 0.85 -5.3 M13.45 -7.05 L13.95 -7.05 14.0 -7.0 14.1 -7.0 14.15 -6.95 14.2 -6.95 14.2 -6.9 Q14.2 -6.85 14.25 -6.85 L14.3 -6.8 14.35 -6.8 14.4 -6.75 15.05 -6.75 15.1 -6.8 15.2 -6.8 15.3 -6.85 15.35 -6.9 16.05 -6.9 16.1 -6.85 16.25 -6.85 16.3 -6.8 16.35 -6.8 16.35 -6.75 16.45 -6.75 16.45 -6.65 16.25 -6.65 16.2 -6.6 16.25 -6.6 16.3 -6.55 16.8 -6.55 16.85 -6.6 17.35 -6.6 17.4 -6.55 17.7 -6.55 17.8 -6.5 17.9 -6.5 17.9 -6.45 17.85 -6.45 17.85 -6.4 18.35 -6.4 18.6 -6.35 18.9 -6.35 18.95 -6.3 19.05 -6.3 19.05 -6.25 19.15 -6.25 19.15 -6.2 19.1 -6.2 19.1 -6.15 18.9 -6.15 18.8 -6.25 18.7 -6.25 18.7 -6.3 18.45 -6.3 18.2 -6.35 17.5 -6.35 17.5 -6.45 17.55 -6.45 17.45 -6.5 17.15 -6.5 17.1 -6.55 17.05 -6.55 16.9 -6.5 16.2 -6.5 16.15 -6.55 16.1 -6.55 16.1 -6.5 15.2 -6.5 15.1 -6.45 15.15 -6.45 15.15 -6.4 15.2 -6.4 15.15 -6.35 15.0 -6.35 14.9 -6.4 14.8 -6.4 14.75 -6.45 14.65 -6.45 14.65 -6.5 14.8 -6.5 14.95 -6.55 15.8 -6.55 15.8 -6.6 15.75 -6.6 15.8 -6.65 15.9 -6.65 15.95 -6.7 16.1 -6.7 16.05 -6.75 16.0 -6.75 15.95 -6.8 15.55 -6.8 15.4 -6.75 15.2 -6.75 15.15 -6.7 14.05 -6.7 13.95 -6.75 13.9 -6.75 13.9 -6.85 13.95 -6.85 13.95 -6.9 13.9 -6.9 13.9 -6.95 13.75 -6.95 13.7 -7.0 13.6 -7.0 13.55 -6.95 13.3 -6.95 13.25 -6.9 13.1 -6.9 12.95 -6.85 12.6 -6.85 12.5 -6.8 12.45 -6.85 12.5 -6.85 12.55 -6.9 12.75 -6.9 12.8 -6.95 13.0 -6.95 13.1 -7.0 13.2 -7.0 13.4 -7.05 13.45 -7.05 M-40.5 -6.6 L-40.65 -6.65 -40.85 -6.65 -40.9 -6.7 -40.9 -6.75 -41.2 -6.75 -41.3 -6.8 -41.85 -6.8 -41.9 -6.85 -43.3 -6.85 -43.35 -6.8 -43.35 -6.75 -43.4 -6.75 -43.4 -6.7 -43.5 -6.7 -43.5 -6.65 -43.1 -6.65 -43.0 -6.6 -42.85 -6.6 -42.85 -6.55 -42.7 -6.55 -42.65 -6.5 -42.6 -6.5 -42.6 -6.45 -42.2 -6.45 -42.1 -6.4 -41.95 -6.4 -41.85 -6.35 -41.55 -6.35 -41.4 -6.3 -40.15 -6.3 -39.95 -6.35 -39.55 -6.35 -39.45 -6.3 -38.0 -6.3 -37.9 -6.25 -37.4 -6.25 -37.25 -6.2 -37.0 -6.2 -36.85 -6.15 -36.7 -6.15 -36.65 -6.1 -36.55 -6.1 -36.55 -6.05 -36.5 -6.05 -36.45 -6.1 -36.1 -6.1 -36.1 -6.15 -35.65 -6.15 -35.65 -6.2 -35.6 -6.2 -35.65 -6.25 -35.7 -6.25 -35.8 -6.3 -35.85 -6.3 -35.85 -6.35 -36.0 -6.35 -36.0 -6.4 -36.15 -6.4 -36.3 -6.45 -37.1 -6.45 Q-37.2 -6.45 -37.25 -6.45 L-38.2 -6.45 -38.7 -6.5 -39.0 -6.5 -39.25 -6.55 -39.8 -6.55 -39.9 -6.6 -40.0 -6.6 -40.1 -6.55 -40.2 -6.6 -40.5 -6.6" fill="#ffffff" fill-rule="evenodd" stroke="none"/>
  </g>
</svg>
