<?xml version="1.0" encoding="UTF-8" standalone="no"?>
<svg xmlns:ffdec="https://www.free-decompiler.com/flash" xmlns:xlink="http://www.w3.org/1999/xlink" ffdec:objectType="shape" height="8.25px" width="0.0px" xmlns="http://www.w3.org/2000/svg">
  <g transform="matrix(1.0, 0.0, 0.0, 1.0, 0.0, 17.15)">
    <path d="M0.0 -11.95 L0.0 -11.95 Q0.0 -12.1 0.0 -12.25 0.0 -12.55 0.0 -12.9 L0.0 -13.9 Q0.0 -14.25 0.0 -14.55 L0.0 -14.65 Q0.0 -14.7 0.0 -14.8 L0.0 -16.65 Q0.0 -16.85 0.0 -16.9 L0.0 -17.15 Q0.0 -17.1 0.0 -15.85 0.0 -14.65 0.0 -13.4 0.0 -12.65 0.0 -12.0 L0.0 -11.95 M0.0 -15.3 Q0.0 -15.4 0.0 -15.15 0.0 -14.6 0.0 -14.05 0.0 -13.3 0.0 -12.5 L0.0 -11.0 Q0.0 -10.8 0.0 -10.7 0.0 -10.55 0.0 -10.3 L0.0 -9.65 Q0.0 -9.5 0.0 -9.35 0.0 -9.1 0.0 -8.9 0.0 -8.65 0.0 -11.55 0.0 -13.05 0.0 -14.5 0.0 -15.25 0.0 -15.35 L0.0 -15.3 M0.0 -12.5 Q0.0 -12.05 0.0 -11.75 L0.0 -11.8 Q0.0 -11.95 0.0 -12.15 L0.0 -13.0 Q0.0 -13.4 0.0 -13.7 L0.0 -13.65 Q0.0 -13.55 0.0 -13.35 0.0 -12.9 0.0 -12.5" fill="#ccfffe" fill-opacity="0.7529412" fill-rule="evenodd" stroke="none"/>
  </g>
</svg>
