<?xml version="1.0" encoding="UTF-8" standalone="no"?>
<svg xmlns:ffdec="https://www.free-decompiler.com/flash" xmlns:xlink="http://www.w3.org/1999/xlink" ffdec:objectType="shape" height="6.85px" width="64.35px" xmlns="http://www.w3.org/2000/svg">
  <g transform="matrix(1.0, 0.0, 0.0, 1.0, 53.9, 9.2)">
    <path d="M2.1 -7.9 L2.6 -7.9 2.65 -7.95 2.8 -7.95 2.8 -8.0 3.4 -8.0 3.45 -7.95 3.6 -7.95 3.65 -7.9 3.8 -7.9 3.85 -7.85 3.9 -7.85 3.9 -7.8 3.85 -7.8 3.8 -7.75 3.95 -7.75 4.1 -7.7 4.15 -7.7 4.25 -7.65 4.3 -7.6 4.4 -7.6 4.45 -7.55 4.55 -7.5 4.75 -7.5 4.85 -7.45 4.95 -7.45 5.0 -7.4 5.1 -7.4 5.2 -7.35 5.45 -7.35 5.55 -7.3 5.75 -7.3 5.75 -7.25 5.8 -7.25 5.8 -7.2 5.85 -7.2 5.8 -7.15 5.8 -7.1 Q5.75 -7.1 5.8 -7.05 L5.8 -7.0 5.75 -6.95 4.9 -6.95 4.85 -6.9 4.7 -6.9 4.55 -6.85 4.5 -6.85 4.45 -6.8 4.25 -6.8 4.2 -6.75 4.05 -6.75 4.0 -6.7 3.9 -6.7 3.85 -6.65 3.75 -6.65 3.7 -6.6 3.6 -6.6 3.55 -6.55 3.45 -6.55 3.45 -6.5 3.4 -6.5 3.4 -6.45 3.35 -6.45 3.25 -6.4 3.15 -6.4 3.15 -6.35 3.05 -6.35 3.0 -6.3 2.8 -6.3 2.75 -6.25 2.45 -6.25 2.4 -6.2 1.7 -6.2 1.65 -6.25 1.55 -6.25 1.5 -6.3 1.5 -6.4 1.25 -6.4 1.15 -6.45 0.7 -6.45 0.65 -6.4 0.45 -6.4 0.4 -6.35 -0.2 -6.35 -0.2 -6.3 Q-0.25 -6.3 -0.35 -6.3 L-0.55 -6.25 -0.65 -6.25 -0.8 -6.2 -1.05 -6.2 -1.1 -6.15 -1.55 -6.15 -1.65 -6.1 -1.9 -6.1 Q-2.0 -6.1 -2.05 -6.1 L-2.1 -6.05 -2.85 -6.05 -3.0 -6.1 -3.85 -6.1 -4.05 -6.05 -4.15 -6.05 -4.2 -6.0 -4.2 -5.9 -4.15 -5.85 -4.05 -5.85 -4.05 -5.75 -4.0 -5.75 -3.95 -5.7 -3.95 -5.6 -3.9 -5.6 -3.85 -5.55 -3.2 -5.55 Q-3.0 -5.6 -2.8 -5.6 L-2.6 -5.6 -2.3 -5.65 Q-2.15 -5.65 -2.0 -5.7 L-1.7 -5.7 -1.65 -5.75 -1.3 -5.75 -1.3 -5.8 -0.55 -5.8 -0.55 -5.75 -0.45 -5.75 -0.35 -5.7 -0.2 -5.7 -0.05 -5.65 0.25 -5.65 0.3 -5.6 2.6 -5.6 2.75 -5.65 3.2 -5.65 3.55 -5.7 3.65 -5.7 3.75 -5.65 4.4 -5.65 4.55 -5.7 5.1 -5.7 5.2 -5.65 5.7 -5.65 5.75 -5.6 6.2 -5.6 6.25 -5.55 6.25 -5.5 6.3 -5.45 6.5 -5.45 6.55 -5.4 6.6 -5.4 6.65 -5.35 6.7 -5.35 6.7 -5.3 6.65 -5.3 6.65 -5.25 7.25 -5.25 7.35 -5.3 7.6 -5.3 7.7 -5.4 7.9 -5.4 8.5 -5.45 9.35 -5.45 9.4 -5.4 Q9.45 -5.4 9.55 -5.4 L9.75 -5.35 9.8 -5.3 9.75 -5.25 9.7 -5.25 9.75 -5.2 9.9 -5.2 9.9 -5.15 10.05 -5.15 10.05 -5.1 9.95 -5.1 9.1 -5.05 9.0 -5.1 8.9 -5.1 8.95 -5.05 9.1 -5.05 9.2 -5.0 9.65 -5.0 9.7 -4.95 9.85 -4.95 9.95 -4.9 10.2 -4.9 10.35 -4.85 Q10.45 -4.85 10.45 -4.8 L10.35 -4.8 10.3 -4.75 10.15 -4.75 9.95 -4.65 Q9.85 -4.65 9.8 -4.65 L9.7 -4.6 9.6 -4.6 9.55 -4.55 9.45 -4.55 9.4 -4.5 9.3 -4.5 9.3 -4.55 9.35 -4.55 9.35 -4.6 9.4 -4.6 9.45 -4.65 9.55 -4.65 9.55 -4.7 9.65 -4.7 9.75 -4.75 Q9.8 -4.75 9.9 -4.75 L9.95 -4.8 9.9 -4.85 9.6 -4.85 9.55 -4.9 9.45 -4.9 9.35 -4.95 9.0 -4.95 8.9 -5.0 8.8 -5.0 8.75 -4.95 8.65 -4.95 8.65 -4.85 8.6 -4.85 8.7 -4.8 8.75 -4.8 8.7 -4.75 8.3 -4.75 8.15 -4.7 8.0 -4.7 7.9 -4.65 7.75 -4.65 7.8 -4.7 8.0 -4.7 8.15 -4.75 8.4 -4.75 8.5 -4.8 8.35 -4.8 8.35 -4.85 8.4 -4.85 8.45 -4.9 8.45 -4.95 8.5 -4.95 8.55 -5.0 8.6 -5.0 8.6 -5.05 8.5 -5.05 8.5 -5.1 8.55 -5.15 9.5 -5.15 9.45 -5.2 9.25 -5.2 9.2 -5.25 9.25 -5.3 9.5 -5.3 9.35 -5.35 9.2 -5.35 9.2 -5.4 8.75 -5.4 8.7 -5.35 8.0 -5.35 8.0 -5.3 7.95 -5.3 7.85 -5.25 7.65 -5.25 7.5 -5.2 7.4 -5.2 7.25 -5.15 6.15 -5.15 6.1 -5.1 6.05 -5.1 6.0 -5.05 5.95 -5.05 5.9 -5.0 5.9 -4.95 5.8 -4.95 5.8 -4.9 5.85 -4.85 5.85 -4.75 5.75 -4.75 5.65 -4.7 4.35 -4.7 4.2 -4.65 4.05 -4.65 4.05 -4.6 4.0 -4.6 4.0 -4.55 4.05 -4.55 4.05 -4.5 4.1 -4.45 4.1 -4.4 4.15 -4.35 4.2 -4.35 4.2 -4.3 Q4.15 -4.25 4.05 -4.25 L3.95 -4.2 3.75 -4.2 3.7 -4.15 3.5 -4.15 3.5 -4.1 3.35 -4.1 3.3 -4.05 3.0 -4.05 2.9 -4.0 2.2 -4.0 2.05 -4.05 1.9 -4.05 1.85 -4.1 1.3 -4.1 1.1 -4.15 1.0 -4.2 0.9 -4.2 0.75 -4.25 0.55 -4.25 Q0.4 -4.3 0.3 -4.3 L0.25 -4.35 0.15 -4.4 0.05 -4.4 -0.1 -4.45 -0.15 -4.5 -0.35 -4.5 -0.35 -4.55 -1.05 -4.55 -1.25 -4.5 -1.65 -4.5 -1.7 -4.45 -1.85 -4.45 -1.85 -4.35 -2.1 -4.35 -2.3 -4.3 -2.55 -4.3 -2.65 -4.25 -2.8 -4.25 -2.9 -4.2 -2.7 -4.2 -2.6 -4.15 -1.95 -4.15 -1.9 -4.1 -1.8 -4.1 -1.6 -4.05 -1.55 -4.05 -1.55 -4.0 -1.45 -4.0 -1.45 -3.95 -1.35 -3.9 -1.4 -3.85 -1.4 -3.8 -1.45 -3.8 -1.45 -3.75 -0.4 -3.75 -0.4 -3.65 -0.35 -3.65 -0.3 -3.6 -0.2 -3.6 -0.15 -3.55 -0.05 -3.55 0.0 -3.5 0.05 -3.5 0.05 -3.45 0.1 -3.4 Q0.05 -3.35 -0.1 -3.3 L-0.5 -3.2 Q-0.65 -3.2 -0.7 -3.15 L-0.75 -3.15 -0.8 -3.1 -0.8 -3.05 -0.45 -3.0 0.45 -3.0 0.55 -3.05 0.85 -3.05 0.9 -3.1 1.1 -3.1 1.5 -3.2 1.7 -3.2 1.75 -3.25 1.85 -3.25 1.85 -3.3 2.45 -3.4 2.55 -3.45 3.05 -3.45 3.1 -3.4 3.4 -3.4 3.45 -3.35 3.6 -3.35 3.75 -3.3 4.1 -3.3 4.2 -3.25 4.6 -3.25 4.6 -3.2 4.8 -3.2 4.8 -3.15 4.8 -3.1 4.9 -3.1 4.9 -3.05 4.95 -3.0 5.05 -3.0 5.05 -2.95 5.1 -2.9 5.05 -2.85 4.55 -2.85 3.75 -2.8 3.5 -2.8 3.45 -2.75 3.6 -2.75 3.6 -2.7 3.7 -2.7 3.75 -2.65 3.7 -2.6 3.65 -2.6 3.65 -2.55 3.5 -2.55 3.5 -2.5 3.4 -2.5 3.35 -2.45 3.3 -2.45 3.25 -2.4 3.05 -2.4 2.95 -2.35 2.75 -2.35 2.75 -2.4 2.8 -2.4 2.85 -2.45 2.95 -2.45 3.0 -2.5 3.05 -2.5 3.1 -2.55 3.15 -2.55 3.2 -2.6 3.25 -2.6 3.25 -2.65 3.2 -2.7 3.1 -2.7 3.0 -2.75 3.0 -2.8 3.1 -2.85 3.3 -2.85 3.35 -2.9 4.55 -2.9 4.75 -2.95 4.7 -3.0 4.55 -3.0 4.55 -3.05 4.5 -3.05 4.5 -3.1 4.45 -3.1 4.4 -3.15 4.3 -3.15 4.25 -3.2 4.0 -3.2 3.9 -3.25 3.3 -3.25 3.25 -3.3 2.85 -3.3 Q2.8 -3.3 2.75 -3.35 L2.7 -3.3 2.55 -3.3 2.5 -3.25 2.25 -3.25 2.2 -3.2 2.05 -3.2 2.05 -3.15 Q1.95 -3.15 1.8 -3.15 L1.5 -3.1 1.35 -3.05 1.2 -3.05 1.05 -3.0 0.75 -3.0 0.7 -2.95 0.8 -2.95 Q1.2 -2.95 1.45 -3.0 L1.75 -3.0 1.85 -2.95 1.9 -2.95 1.9 -2.9 1.85 -2.9 1.8 -2.85 1.7 -2.85 1.7 -2.8 1.65 -2.8 1.7 -2.75 1.6 -2.75 1.6 -2.7 1.55 -2.65 0.45 -2.65 0.35 -2.7 0.35 -2.65 0.15 -2.65 0.15 -2.6 0.1 -2.6 0.1 -2.55 0.15 -2.55 0.15 -2.5 0.05 -2.5 0.05 -2.45 0.0 -2.45 -0.05 -2.4 -0.3 -2.4 -0.3 -2.45 -0.25 -2.45 -0.25 -2.5 -0.25 -2.6 -0.2 -2.6 -0.15 -2.65 -0.05 -2.65 -0.05 -2.7 0.05 -2.7 0.05 -2.75 1.0 -2.75 1.05 -2.7 1.25 -2.7 1.3 -2.75 1.4 -2.75 1.4 -2.85 1.45 -2.9 0.15 -2.9 -0.2 -2.95 -1.0 -2.95 -1.15 -3.0 -1.3 -3.0 -1.3 -3.1 -1.2 -3.1 -1.2 -3.15 -1.15 -3.2 -1.1 -3.2 -1.0 -3.25 -0.85 -3.25 -0.65 -3.3 -0.6 -3.35 -0.35 -3.35 -0.3 -3.4 -0.25 -3.4 -0.25 -3.45 -0.3 -3.45 -0.35 -3.5 -0.55 -3.5 -0.55 -3.55 -0.4 -3.55 -0.5 -3.6 -0.6 -3.6 -0.65 -3.65 -0.7 -3.65 -0.75 -3.7 -0.85 -3.7 -1.1 -3.65 -1.3 -3.65 -1.35 -3.6 -1.95 -3.6 -1.95 -3.5 -2.0 -3.45 -2.1 -3.45 Q-2.15 -3.4 -2.2 -3.4 L-2.4 -3.35 -3.0 -3.35 -3.05 -3.3 -2.95 -3.3 -2.95 -3.25 -2.9 -3.25 -2.8 -3.2 -2.55 -3.2 -2.45 -3.15 -2.0 -3.15 -1.95 -3.1 -1.9 -3.1 -1.9 -3.0 -3.95 -3.0 -4.05 -3.05 -4.1 -3.0 -4.3 -3.0 -4.55 -2.95 -6.15 -2.95 -6.15 -2.9 Q-6.15 -2.85 -6.2 -2.85 -6.15 -2.8 -6.15 -2.75 L-6.2 -2.65 -6.2 -2.55 -6.35 -2.55 -6.4 -2.5 -6.55 -2.5 -6.6 -2.55 -6.55 -2.55 -6.55 -2.8 -6.65 -2.8 -6.65 -2.9 -6.6 -2.95 -6.55 -2.95 -6.55 -3.0 -6.5 -3.0 -6.4 -3.05 -4.85 -3.05 -4.95 -3.1 -5.3 -3.1 -5.35 -3.15 -5.65 -3.15 -5.7 -3.2 -5.8 -3.2 -5.8 -3.25 -5.9 -3.25 -5.9 -3.3 -5.95 -3.35 -6.45 -3.35 -6.55 -3.3 -6.75 -3.3 -6.8 -3.25 -6.7 -3.25 -6.7 -3.15 -6.75 -3.15 -6.8 -3.1 -7.15 -3.1 -7.2 -3.05 -8.2 -3.05 -8.35 -3.0 -8.25 -3.0 -8.2 -2.95 -8.05 -2.95 -7.85 -2.9 -7.8 -2.9 -7.75 -2.85 -7.7 -2.85 -7.65 -2.8 -7.7 -2.8 -7.7 -2.75 Q-7.75 -2.75 -7.8 -2.75 L-7.95 -2.75 -7.95 -2.8 -8.1 -2.8 -8.15 -2.85 -8.25 -2.85 -8.3 -2.9 -8.6 -2.9 -8.75 -2.95 -8.9 -2.95 -8.9 -3.0 -8.85 -3.0 Q-8.75 -3.05 -8.55 -3.05 L-8.45 -3.05 -8.4 -3.1 -7.5 -3.1 -7.4 -3.15 -7.0 -3.15 -6.95 -3.2 -7.0 -3.2 -7.05 -3.25 -7.05 -3.3 -7.0 -3.3 -6.85 -3.35 -6.6 -3.4 -5.65 -3.4 -5.55 -3.35 -5.55 -3.3 -5.45 -3.2 -5.3 -3.2 -5.25 -3.15 -5.2 -3.15 Q-5.15 -3.15 -5.05 -3.1 L-4.75 -3.1 -4.6 -3.05 -4.5 -3.05 -4.45 -3.1 -2.9 -3.1 -2.6 -3.05 -2.4 -3.05 -2.5 -3.1 -2.65 -3.1 -2.7 -3.15 -3.05 -3.15 -3.15 -3.2 -3.25 -3.2 -3.25 -3.25 -3.45 -3.25 -3.5 -3.3 -3.5 -3.35 -3.55 -3.4 -3.45 -3.4 -3.45 -3.45 -2.5 -3.45 -2.35 -3.5 -2.3 -3.5 -2.2 -3.55 -2.25 -3.65 Q-2.25 -3.7 -2.05 -3.7 L-2.0 -3.7 -2.05 -3.75 -2.0 -3.75 -2.0 -3.8 -1.95 -3.8 -1.85 -3.9 -1.8 -3.9 -1.8 -3.95 -1.85 -3.95 -1.9 -4.0 -1.95 -4.0 -2.05 -4.05 -2.8 -4.05 -3.0 -4.1 -3.3 -4.1 -3.35 -4.15 -3.45 -4.15 -3.45 -4.25 -3.3 -4.3 -3.2 -4.3 -3.15 -4.35 -2.85 -4.35 -2.8 -4.4 -2.4 -4.4 -2.4 -4.45 -2.35 -4.45 -2.05 -4.55 -1.8 -4.55 Q-1.55 -4.6 -1.3 -4.6 L-1.1 -4.65 -0.85 -4.65 -0.75 -4.7 -0.3 -4.7 -0.25 -4.65 -0.05 -4.65 0.1 -4.6 0.2 -4.6 Q0.25 -4.55 0.4 -4.5 L0.5 -4.45 0.55 -4.45 0.65 -4.4 0.8 -4.35 0.9 -4.3 1.1 -4.3 1.25 -4.25 1.5 -4.2 1.9 -4.2 2.0 -4.15 2.3 -4.15 2.35 -4.1 2.65 -4.1 2.75 -4.15 3.0 -4.15 3.3 -4.2 3.45 -4.25 3.55 -4.25 3.6 -4.3 3.75 -4.3 3.75 -4.35 3.7 -4.35 3.7 -4.4 3.65 -4.4 3.6 -4.45 3.6 -4.5 3.5 -4.5 3.5 -4.65 3.55 -4.65 3.55 -4.7 3.6 -4.7 3.65 -4.75 3.9 -4.75 4.0 -4.8 4.65 -4.8 4.8 -4.85 5.0 -4.85 5.25 -4.8 5.4 -4.8 5.35 -4.85 5.4 -4.9 5.5 -4.9 5.5 -4.95 5.55 -4.95 5.55 -5.05 5.65 -5.05 5.65 -5.1 5.75 -5.1 5.75 -5.15 5.8 -5.15 5.8 -5.25 5.8 -5.35 5.75 -5.35 5.75 -5.4 5.7 -5.45 5.65 -5.45 5.65 -5.5 5.55 -5.5 Q5.45 -5.5 5.35 -5.55 L5.25 -5.55 5.25 -5.6 3.2 -5.6 3.1 -5.55 2.2 -5.55 2.1 -5.5 0.65 -5.5 0.5 -5.55 0.0 -5.55 -0.05 -5.6 -0.35 -5.6 -0.5 -5.65 -0.85 -5.65 -0.9 -5.7 -1.3 -5.7 -1.4 -5.65 -1.45 -5.65 -1.75 -5.6 -2.0 -5.6 -2.2 -5.55 Q-2.4 -5.5 -2.7 -5.5 L-2.8 -5.5 -3.15 -5.45 -4.05 -5.45 -4.25 -5.5 -4.45 -5.5 -4.45 -5.6 -4.4 -5.65 -4.4 -5.7 -4.5 -5.7 -4.5 -5.8 -4.55 -5.8 -4.65 -5.85 -4.7 -5.85 -4.8 -5.9 -4.8 -5.95 -4.8 -6.05 -4.7 -6.05 -4.65 -6.1 -5.45 -6.1 -5.6 -6.15 -5.7 -6.15 -5.75 -6.2 -5.8 -6.2 -5.85 -6.15 -5.8 -6.15 -5.8 -6.1 -5.85 -6.1 -5.85 -6.05 -5.95 -6.05 -6.0 -6.0 -6.3 -6.0 -6.35 -5.95 Q-6.4 -5.95 -6.5 -5.95 L-6.6 -5.95 -6.65 -5.9 -6.9 -5.9 -6.85 -5.85 -6.8 -5.85 -6.75 -5.8 -6.65 -5.8 -6.65 -5.75 -6.55 -5.75 -6.6 -5.7 Q-6.65 -5.7 -6.75 -5.7 L-6.85 -5.65 Q-6.9 -5.65 -6.95 -5.65 L-7.0 -5.65 -6.95 -5.7 -7.0 -5.75 -7.1 -5.75 -7.1 -5.8 -7.2 -5.8 -7.3 -5.85 -7.35 -5.85 -7.35 -5.9 -7.3 -5.9 -7.2 -5.95 -6.75 -5.95 -6.7 -6.0 -6.45 -6.0 -6.3 -6.05 -6.2 -6.05 -6.2 -6.1 -6.25 -6.05 -7.4 -6.05 -7.4 -6.1 -7.9 -6.1 -7.9 -6.05 -8.05 -6.05 -8.15 -6.0 -8.25 -6.0 -8.25 -5.95 -8.45 -5.95 -8.45 -5.9 -8.5 -5.9 -8.55 -5.85 -8.8 -5.85 -8.85 -5.8 -8.85 -5.85 -8.75 -5.85 -8.75 -5.9 -8.7 -5.95 -8.6 -5.95 -8.6 -6.0 -8.5 -6.0 -8.45 -6.05 -8.35 -6.05 -8.25 -6.1 -8.15 -6.1 -8.15 -6.15 -7.9 -6.15 -7.9 -6.2 -7.4 -6.15 -7.15 -6.15 -7.15 -6.1 -6.15 -6.1 -6.15 -6.2 -6.1 -6.2 -6.1 -6.25 -6.05 -6.25 -6.0 -6.3 -5.45 -6.3 -5.4 -6.25 -5.35 -6.25 -5.35 -6.2 -5.3 -6.2 -5.2 -6.15 -4.35 -6.15 -4.3 -6.2 -4.25 -6.2 -4.1 -6.25 -3.75 -6.25 -3.2 -6.2 -2.75 -6.2 -2.7 -6.15 -2.3 -6.15 Q-2.1 -6.2 -1.9 -6.2 L-1.65 -6.2 -1.5 -6.25 -1.25 -6.25 -1.1 -6.3 -0.95 -6.3 -0.9 -6.35 -0.8 -6.35 -0.75 -6.4 -0.65 -6.4 -0.65 -6.45 Q-0.6 -6.45 -0.5 -6.45 L-0.35 -6.5 Q-0.25 -6.5 -0.15 -6.5 L-0.1 -6.5 -0.1 -6.55 0.05 -6.55 0.1 -6.6 0.2 -6.6 0.25 -6.65 0.25 -6.7 0.35 -6.7 0.4 -6.75 0.45 -6.75 0.55 -6.8 1.3 -6.8 Q1.45 -6.8 1.55 -6.85 L1.7 -6.85 1.75 -6.9 1.65 -6.95 1.6 -7.0 1.4 -7.0 1.3 -7.05 0.9 -7.05 0.8 -7.1 0.45 -7.1 0.35 -7.15 0.3 -7.15 0.3 -7.3 0.2 -7.3 0.2 -7.35 -1.0 -7.35 Q-1.25 -7.35 -1.45 -7.35 L-2.35 -7.35 -2.35 -7.4 -2.8 -7.4 -2.85 -7.45 -2.95 -7.45 -3.05 -7.5 -3.35 -7.6 -3.5 -7.6 -3.55 -7.65 -3.8 -7.65 -3.9 -7.7 -4.0 -7.7 -4.0 -7.75 -3.95 -7.75 -4.0 -7.8 -4.3 -7.8 -4.35 -7.85 -4.9 -7.85 -5.05 -7.9 -5.25 -7.9 -5.3 -7.85 -5.55 -7.85 -6.05 -7.8 -8.3 -7.8 -8.65 -7.85 -9.1 -7.85 -9.2 -7.9 -9.65 -7.9 -10.05 -7.95 -10.3 -7.95 -10.4 -8.0 -10.55 -8.0 -10.55 -8.05 -10.65 -8.05 -10.65 -8.15 -10.7 -8.15 -10.75 -8.2 -10.9 -8.2 -10.9 -8.25 -11.0 -8.3 -11.05 -8.3 -11.05 -8.4 -10.95 -8.4 -10.9 -8.45 -10.8 -8.45 -10.75 -8.5 -10.65 -8.5 -10.6 -8.55 -10.5 -8.55 -10.4 -8.6 -10.2 -8.6 -10.2 -8.65 -10.35 -8.65 -10.5 -8.7 -11.25 -8.7 Q-11.35 -8.65 -11.4 -8.65 L-12.0 -8.65 -12.1 -8.6 -12.55 -8.6 Q-12.7 -8.6 -12.85 -8.6 L-13.2 -8.55 -14.4 -8.6 -15.5 -8.6 -15.55 -8.65 -15.8 -8.65 -16.0 -8.7 -16.2 -8.7 -16.25 -8.75 -17.15 -8.75 -17.25 -8.7 -17.35 -8.7 -17.4 -8.65 -17.55 -8.65 -17.6 -8.6 -17.9 -8.6 -18.2 -8.55 Q-18.35 -8.55 -18.45 -8.55 L-18.6 -8.5 -18.8 -8.5 -18.9 -8.45 -19.3 -8.45 -19.35 -8.4 -19.65 -8.4 -19.8 -8.35 -20.2 -8.35 -20.55 -8.3 -20.6 -8.3 -20.6 -8.25 -20.7 -8.25 -20.7 -8.15 -20.75 -8.1 -20.8 -8.1 -20.85 -8.05 -20.85 -8.0 -20.95 -8.0 -20.95 -7.95 -21.05 -7.95 -21.05 -7.9 -21.15 -7.9 -21.15 -7.85 -21.25 -7.85 -21.35 -7.8 -21.4 -7.8 -21.45 -7.75 Q-21.5 -7.75 -21.6 -7.7 -21.85 -7.65 -22.1 -7.65 L-22.2 -7.65 -22.35 -7.6 -22.7 -7.6 -22.75 -7.55 -22.85 -7.55 -22.9 -7.5 -23.0 -7.5 -23.1 -7.45 -23.2 -7.45 -23.25 -7.4 -23.4 -7.4 -23.4 -7.35 -23.35 -7.35 -23.35 -7.2 -23.3 -7.2 -23.25 -7.15 -23.2 -7.15 -23.15 -7.1 -23.1 -7.1 -23.0 -7.05 -22.8 -7.05 -22.7 -7.0 -22.5 -7.0 -22.3 -6.95 -22.25 -6.9 -22.15 -6.9 -22.1 -6.85 -22.0 -6.85 -21.95 -6.8 -21.85 -6.8 -21.85 -6.75 -21.7 -6.75 -21.6 -6.7 -21.5 -6.7 -21.35 -6.65 -21.25 -6.6 -21.15 -6.6 -21.15 -6.55 -21.1 -6.55 -21.05 -6.5 -21.1 -6.5 -21.15 -6.45 -20.75 -6.45 -20.6 -6.4 -19.85 -6.4 -19.75 -6.45 -19.45 -6.45 -19.35 -6.4 -18.7 -6.4 -18.6 -6.35 -18.5 -6.35 -18.5 -6.2 -18.35 -6.2 -18.1 -6.15 -17.85 -6.15 -17.85 -6.1 -17.9 -6.05 -18.0 -6.05 -18.0 -6.0 -18.05 -6.0 -18.1 -5.95 -18.05 -5.95 -17.9 -5.9 -17.6 -5.9 -17.55 -5.85 -17.4 -5.85 -17.35 -5.8 -17.3 -5.8 -17.3 -5.75 -17.15 -5.75 -17.1 -5.7 -16.9 -5.7 -16.85 -5.65 -16.85 -5.6 -16.9 -5.6 -16.9 -5.55 -17.0 -5.55 -17.0 -5.5 -17.1 -5.5 -17.2 -5.45 -17.3 -5.45 -17.35 -5.4 -17.5 -5.4 -17.55 -5.35 -17.7 -5.35 -17.7 -5.3 -17.8 -5.3 -17.8 -5.25 -17.9 -5.25 -17.95 -5.2 -18.1 -5.2 -18.0 -5.25 -17.9 -5.25 -17.9 -5.3 -17.85 -5.3 -17.8 -5.35 -17.75 -5.35 -17.65 -5.4 -17.55 -5.4 -17.55 -5.5 -17.45 -5.5 -17.45 -5.55 -17.35 -5.55 -17.35 -5.6 -17.3 -5.6 -17.3 -5.65 -17.35 -5.65 -17.4 -5.7 -17.65 -5.7 -17.65 -5.75 -17.7 -5.75 -17.75 -5.8 -17.85 -5.8 -18.05 -5.85 -18.15 -5.85 -18.25 -5.9 -18.3 -5.9 -18.35 -5.85 -18.4 -5.85 -18.45 -5.8 -18.55 -5.8 -18.6 -5.75 -18.7 -5.75 -18.7 -5.7 -18.95 -5.7 -18.95 -5.75 -18.9 -5.8 -18.85 -5.8 -18.85 -5.85 -18.8 -5.85 -18.75 -5.9 -18.65 -5.9 -18.65 -5.95 -18.55 -5.95 -18.55 -6.0 -18.45 -6.0 -18.4 -6.05 -18.4 -6.1 -18.65 -6.1 -18.8 -6.15 -18.95 -6.15 -18.95 -6.3 -19.1 -6.3 -19.45 -6.35 -21.5 -6.35 -21.55 -6.4 -21.7 -6.4 -21.7 -6.45 -21.6 -6.45 -21.6 -6.55 -21.65 -6.55 -21.8 -6.6 -22.05 -6.65 -22.1 -6.65 -22.15 -6.7 -22.3 -6.7 -22.35 -6.75 -22.4 -6.75 -22.4 -6.8 -22.6 -6.8 -22.6 -6.85 -22.7 -6.85 -22.7 -6.9 -22.9 -6.9 -23.05 -6.95 -23.3 -7.0 -23.5 -7.05 -23.6 -7.05 -23.65 -7.1 -23.7 -7.1 -23.7 -7.15 -23.8 -7.15 -23.8 -7.3 -23.85 -7.3 -23.85 -7.35 -23.95 -7.35 -23.95 -7.4 -23.75 -7.45 -23.5 -7.5 -23.4 -7.55 -23.35 -7.55 -23.3 -7.6 -23.15 -7.6 -23.1 -7.65 -22.9 -7.65 -22.85 -7.7 -22.35 -7.7 -22.3 -7.75 -22.0 -7.75 -21.95 -7.8 -21.85 -7.8 -21.85 -7.85 -21.75 -7.85 -21.65 -7.9 -21.6 -7.9 -21.6 -7.95 -21.5 -7.95 -21.45 -8.0 -21.35 -8.0 -21.35 -8.05 -21.3 -8.1 -21.25 -8.1 -21.25 -8.15 -21.15 -8.15 -21.15 -8.25 -21.1 -8.3 -21.05 -8.3 -21.05 -8.35 -20.95 -8.35 -20.95 -8.4 -20.35 -8.4 -20.2 -8.45 -19.7 -8.45 -19.6 -8.5 -19.4 -8.5 Q-19.3 -8.55 -19.15 -8.55 L-19.1 -8.55 -18.95 -8.6 -18.9 -8.65 -18.8 -8.65 -18.75 -8.7 -18.7 -8.7 -18.6 -8.75 -18.6 -8.8 -18.7 -8.8 -18.7 -8.85 -18.8 -8.85 -18.8 -8.9 -18.7 -8.95 -18.6 -8.95 -18.5 -9.0 -18.35 -9.0 -18.25 -9.05 -17.8 -9.05 -17.2 -9.1 -16.85 -9.1 -16.55 -9.15 -16.15 -9.15 -16.1 -9.2 -14.45 -9.2 -14.4 -9.15 -14.35 -9.15 -14.35 -9.0 -13.65 -9.0 -13.4 -9.05 -11.0 -9.05 -10.9 -9.0 -10.7 -9.0 -10.55 -9.05 -10.35 -9.05 -10.1 -9.1 -9.9 -9.1 -9.8 -9.05 -9.55 -9.05 -9.55 -8.95 -9.5 -8.95 -9.5 -8.9 -9.55 -8.9 -9.55 -8.85 -9.6 -8.85 Q-9.7 -8.85 -9.75 -8.85 L-10.1 -8.85 -10.1 -8.8 -10.3 -8.8 -10.3 -8.75 -9.9 -8.75 -9.85 -8.7 -9.8 -8.7 -9.8 -8.6 -9.85 -8.55 -10.0 -8.55 -10.1 -8.5 -10.2 -8.5 -10.25 -8.45 -10.3 -8.45 -10.4 -8.4 -10.5 -8.4 -10.55 -8.35 -10.5 -8.35 -10.5 -8.3 -10.4 -8.3 -10.35 -8.25 -10.25 -8.25 -10.2 -8.2 -10.1 -8.2 -10.1 -8.1 -10.05 -8.1 -10.0 -8.05 -9.75 -8.05 -9.25 -8.0 -8.9 -8.0 -8.8 -7.95 -8.15 -7.95 -8.0 -8.0 -7.6 -8.0 -7.55 -8.05 -7.5 -8.05 -7.45 -8.1 -7.4 -8.1 -7.35 -8.15 -7.15 -8.15 -7.05 -8.2 -6.75 -8.2 -6.65 -8.25 -6.2 -8.25 -5.8 -8.2 -4.95 -8.2 -4.95 -8.25 -4.8 -8.25 -4.55 -8.3 -4.35 -8.35 -4.25 -8.35 -4.15 -8.4 -4.1 -8.4 -4.1 -8.45 -4.05 -8.45 -4.2 -8.5 -4.85 -8.5 -4.85 -8.6 -4.75 -8.65 -4.6 -8.65 Q-4.5 -8.65 -4.5 -8.7 L-4.3 -8.7 -4.25 -8.75 -4.05 -8.75 -4.0 -8.8 -3.65 -8.8 -3.7 -8.75 -3.9 -8.75 -3.9 -8.7 -4.0 -8.7 -4.15 -8.65 -4.3 -8.65 -4.3 -8.6 -4.5 -8.6 -4.5 -8.55 -3.8 -8.55 -3.8 -8.45 -3.85 -8.45 -3.95 -8.35 -4.0 -8.35 -4.15 -8.3 -4.3 -8.3 -4.4 -8.25 -3.4 -8.25 -3.35 -8.3 -3.0 -8.3 -2.9 -8.35 -2.45 -8.35 -2.35 -8.3 -2.2 -8.3 -2.1 -8.25 -1.9 -8.25 -1.8 -8.2 -1.65 -8.2 -1.65 -8.1 -1.55 -8.1 -1.45 -8.05 -1.25 -8.05 -1.15 -8.0 -0.8 -8.0 -0.75 -7.95 -0.5 -7.95 Q-0.45 -7.9 -0.35 -7.9 L-0.15 -7.9 0.0 -7.85 1.4 -7.85 1.45 -7.9 2.1 -7.9 M3.3 -7.85 L3.25 -7.9 3.05 -7.9 3.0 -7.85 2.95 -7.85 2.9 -7.8 2.1 -7.8 1.95 -7.85 1.9 -7.85 1.9 -7.8 1.3 -7.8 1.25 -7.75 0.35 -7.75 0.05 -7.8 -0.3 -7.8 -0.35 -7.85 -0.65 -7.85 -0.75 -7.9 -0.95 -7.9 -1.1 -7.95 -1.5 -7.95 -1.55 -8.0 -1.75 -8.0 -1.8 -8.05 -2.0 -8.05 -2.0 -8.1 -2.05 -8.15 -2.25 -8.15 -2.3 -8.2 -2.5 -8.2 -2.5 -8.25 -2.95 -8.25 -3.0 -8.2 -4.65 -8.2 -5.1 -8.15 -6.75 -8.15 -6.8 -8.1 -7.0 -8.1 -7.0 -8.05 -7.05 -8.05 -7.1 -8.0 -7.2 -8.0 -7.25 -7.95 -7.5 -7.95 -7.55 -7.9 -6.3 -7.9 Q-5.95 -7.95 -5.65 -7.95 L-4.15 -7.95 -4.05 -7.9 -3.9 -7.9 -3.8 -7.85 -3.55 -7.85 -3.45 -7.8 -3.4 -7.8 -3.4 -7.75 -3.25 -7.75 -3.15 -7.7 -3.05 -7.7 -2.95 -7.65 -2.8 -7.65 -2.65 -7.6 -2.6 -7.55 -2.55 -7.55 -2.55 -7.5 -2.3 -7.5 -2.25 -7.45 -0.35 -7.45 -0.1 -7.5 0.25 -7.5 0.3 -7.45 0.55 -7.45 0.6 -7.4 0.7 -7.4 0.7 -7.35 0.8 -7.35 0.8 -7.2 0.95 -7.2 1.1 -7.15 1.5 -7.15 1.6 -7.1 1.65 -7.1 Q1.7 -7.1 1.75 -7.1 L1.95 -7.1 2.0 -7.05 2.1 -7.05 2.15 -7.0 2.2 -7.0 2.25 -6.95 2.25 -6.85 Q2.2 -6.8 2.1 -6.8 L1.95 -6.75 1.7 -6.75 1.55 -6.7 Q1.45 -6.7 1.35 -6.7 L0.95 -6.7 0.85 -6.65 0.8 -6.65 0.8 -6.6 0.75 -6.6 0.7 -6.55 0.55 -6.55 0.5 -6.5 0.3 -6.5 0.25 -6.45 0.3 -6.45 0.4 -6.5 1.65 -6.5 1.75 -6.45 1.9 -6.45 1.9 -6.4 1.95 -6.35 1.95 -6.3 2.0 -6.3 2.1 -6.25 2.15 -6.3 2.55 -6.3 2.7 -6.35 2.85 -6.35 2.85 -6.4 3.0 -6.4 3.0 -6.45 3.15 -6.45 3.15 -6.5 3.25 -6.5 3.25 -6.55 3.35 -6.55 3.35 -6.6 3.5 -6.6 3.55 -6.65 3.6 -6.65 3.65 -6.7 3.85 -6.7 3.95 -6.75 4.05 -6.75 4.1 -6.8 4.2 -6.8 4.2 -6.85 4.15 -6.85 4.15 -6.9 4.2 -6.95 4.25 -6.95 4.35 -7.0 4.5 -7.0 4.65 -7.05 5.5 -7.05 5.5 -7.15 5.4 -7.15 5.35 -7.2 5.3 -7.2 5.25 -7.25 5.2 -7.25 5.1 -7.3 4.9 -7.3 4.65 -7.35 4.65 -7.4 4.55 -7.4 4.5 -7.45 4.35 -7.45 4.3 -7.5 4.2 -7.5 4.15 -7.55 4.1 -7.55 4.0 -7.6 3.9 -7.6 3.85 -7.65 3.8 -7.65 3.75 -7.7 3.6 -7.7 3.5 -7.75 3.5 -7.8 3.55 -7.8 3.5 -7.85 3.3 -7.85 M-52.9 -5.95 L-52.85 -5.95 -52.8 -6.0 -52.6 -6.0 -52.5 -6.05 -50.45 -6.05 -50.4 -6.1 -50.3 -6.1 -50.15 -6.05 -49.9 -6.05 -49.8 -6.0 -49.65 -6.0 -49.65 -5.95 -49.6 -5.95 -49.6 -5.85 -49.45 -5.85 -49.35 -5.8 -48.6 -5.8 -48.55 -5.75 -48.4 -5.75 -48.35 -5.7 -47.65 -5.7 -47.55 -5.75 -47.45 -5.75 -47.35 -5.8 -47.15 -5.8 -47.15 -5.85 -47.05 -5.85 -46.9 -5.9 -46.7 -5.9 -46.7 -5.95 -46.4 -5.95 -46.4 -6.15 -46.5 -6.15 -46.5 -6.2 Q-46.55 -6.2 -46.6 -6.2 L-46.65 -6.25 -46.75 -6.25 -46.75 -6.3 -46.65 -6.3 -46.55 -6.35 -46.45 -6.35 Q-46.4 -6.35 -46.3 -6.35 L-45.6 -6.35 -45.45 -6.4 -44.65 -6.4 -44.6 -6.45 -44.75 -6.45 -44.75 -6.5 -44.7 -6.5 -44.7 -6.55 -44.75 -6.55 -44.8 -6.6 -44.9 -6.6 -44.9 -6.7 -44.85 -6.75 -44.8 -6.75 -44.75 -6.8 -43.4 -6.8 -43.4 -6.75 -43.85 -6.75 -44.5 -6.7 -44.6 -6.7 -44.6 -6.65 -44.5 -6.65 -44.5 -6.6 -44.4 -6.6 -44.4 -6.5 -44.3 -6.5 -44.3 -6.45 -44.2 -6.45 -44.2 -6.4 -44.25 -6.4 -44.35 -6.35 -44.6 -6.35 -45.05 -6.3 -46.15 -6.3 -46.15 -6.25 -46.1 -6.25 -46.1 -6.2 -46.0 -6.2 -46.0 -5.95 -45.8 -5.95 -45.65 -5.9 -45.55 -5.9 -45.5 -5.85 -44.95 -5.85 -44.35 -5.8 -43.6 -5.8 -43.45 -5.75 -43.1 -5.75 Q-42.9 -5.75 -42.7 -5.7 L-42.15 -5.7 -42.0 -5.65 -41.75 -5.65 -41.75 -5.6 -41.7 -5.6 -41.65 -5.55 -41.6 -5.55 -41.55 -5.5 -41.5 -5.5 -41.4 -5.55 -41.3 -5.55 -41.25 -5.6 -40.95 -5.6 -40.9 -5.55 -40.35 -5.55 -40.2 -5.5 -40.0 -5.5 -39.95 -5.45 -39.65 -5.45 -39.5 -5.5 -39.25 -5.5 -39.25 -5.55 -39.1 -5.55 -39.15 -5.6 -39.15 -5.65 -39.2 -5.7 -39.2 -5.8 -39.15 -5.85 -39.1 -5.85 -39.1 -5.9 -39.0 -5.9 -38.9 -5.95 -38.8 -5.95 -38.65 -6.0 -38.4 -6.0 -38.4 -6.05 -38.45 -6.05 -38.45 -6.1 -38.5 -6.1 -38.5 -6.15 -38.45 -6.2 -38.4 -6.15 -38.35 -6.15 -38.2 -6.1 -38.05 -6.1 -38.05 -6.05 -37.95 -6.05 -37.9 -6.0 -37.95 -6.0 -38.0 -5.95 -38.35 -5.95 -38.5 -5.9 -38.65 -5.9 -38.65 -5.85 -38.75 -5.85 -38.75 -5.8 -38.8 -5.8 -38.85 -5.75 -38.85 -5.65 -38.8 -5.6 -38.75 -5.6 -38.75 -5.55 -38.85 -5.55 -38.9 -5.5 -39.05 -5.5 -39.05 -5.45 -39.2 -5.45 -39.4 -5.4 -40.1 -5.4 -40.3 -5.45 -40.4 -5.5 -40.75 -5.5 -41.05 -5.55 -41.2 -5.5 -41.5 -5.5 -41.5 -5.45 -41.6 -5.45 -41.7 -5.4 -41.85 -5.4 -42.0 -5.35 -42.45 -5.35 -42.8 -5.3 -42.9 -5.3 -42.95 -5.25 -43.1 -5.25 -43.1 -5.2 -43.05 -5.2 -43.05 -5.1 -43.1 -5.1 -43.15 -5.05 -43.15 -5.0 -42.9 -5.0 -42.65 -4.95 -42.45 -4.95 -42.35 -4.9 -41.95 -4.9 -41.75 -4.85 -41.5 -4.85 -41.5 -4.7 -41.55 -4.7 -41.6 -4.65 -41.55 -4.6 -41.5 -4.6 -41.5 -4.45 -41.6 -4.45 -41.6 -4.4 -41.65 -4.4 -41.7 -4.35 -41.75 -4.35 -41.75 -4.3 -41.45 -4.3 -41.4 -4.35 -40.65 -4.35 -40.55 -4.3 -40.35 -4.3 -40.3 -4.25 -39.35 -4.25 -39.3 -4.2 -38.9 -4.2 -38.85 -4.15 -38.75 -4.15 -38.75 -4.05 -38.6 -4.05 -38.55 -4.0 -38.35 -4.0 -38.3 -3.95 -38.2 -3.9 Q-38.15 -3.9 -38.0 -3.9 L-37.65 -3.85 -37.6 -3.85 -37.6 -3.8 -37.5 -3.8 -37.4 -3.75 -37.0 -3.75 -36.8 -3.8 -36.5 -3.8 -36.5 -3.85 -36.3 -3.85 -36.15 -3.9 -35.85 -3.9 -35.75 -3.95 -35.5 -3.95 -35.5 -4.0 -35.7 -4.05 -35.95 -4.1 -36.0 -4.1 -36.0 -4.15 -35.95 -4.2 -36.05 -4.2 -36.1 -4.25 -36.05 -4.3 -35.7 -4.3 -35.6 -4.25 -34.55 -4.3 -34.1 -4.3 -34.0 -4.35 -33.45 -4.35 -33.4 -4.4 -33.0 -4.4 -32.9 -4.45 -32.45 -4.45 -32.35 -4.5 -31.45 -4.5 -31.35 -4.55 Q-31.3 -4.55 -31.25 -4.55 L-30.1 -4.55 -30.0 -4.5 -29.85 -4.5 -29.65 -4.45 -29.5 -4.45 -29.35 -4.4 -29.3 -4.4 -29.25 -4.35 -29.2 -4.35 -29.2 -4.3 -29.25 -4.25 -29.2 -4.2 -29.2 -4.1 -29.3 -4.1 -29.3 -4.05 -29.35 -4.0 -29.55 -4.0 -29.7 -3.95 -30.35 -3.95 -30.8 -3.9 -31.45 -3.9 -31.8 -3.85 -32.45 -3.85 -32.6 -3.8 -33.0 -3.8 -33.25 -3.75 -33.2 -3.7 -32.65 -3.7 -32.45 -3.65 -32.05 -3.65 -32.0 -3.6 -31.95 -3.6 -31.95 -3.55 -32.0 -3.55 -32.0 -3.5 -31.9 -3.5 -31.85 -3.45 -31.5 -3.45 -31.4 -3.4 -28.7 -3.4 -28.35 -3.45 Q-28.2 -3.45 -28.1 -3.45 L-27.85 -3.45 -27.8 -3.5 -27.15 -3.5 -27.1 -3.55 -25.8 -3.55 -24.9 -3.6 Q-24.5 -3.65 -24.2 -3.65 L-24.1 -3.65 -24.0 -3.7 -23.95 -3.7 -23.95 -3.75 -23.9 -3.8 -23.6 -3.8 -23.55 -3.85 -23.0 -3.85 -21.8 -3.9 -21.1 -3.9 -20.95 -3.95 -20.85 -3.95 -20.7 -4.0 -20.65 -4.0 -20.65 -4.05 -20.6 -4.05 -20.6 -4.1 -20.45 -4.1 -20.45 -4.15 -20.4 -4.15 -20.45 -4.2 -20.6 -4.2 -20.6 -4.3 -20.65 -4.35 -20.75 -4.35 -20.85 -4.3 -21.8 -4.3 -21.85 -4.35 -22.0 -4.35 -22.1 -4.4 -22.15 -4.4 -22.15 -4.6 -22.1 -4.65 -21.95 -4.65 -21.95 -4.7 -21.85 -4.75 -21.7 -4.75 -21.7 -4.8 -21.75 -4.85 -21.75 -4.9 -22.6 -4.9 -22.65 -4.95 -22.75 -4.95 -22.85 -5.0 -22.9 -5.0 -22.95 -5.05 -22.9 -5.05 -22.9 -5.1 -22.85 -5.1 -22.85 -5.15 -22.75 -5.15 -22.65 -5.2 -22.45 -5.2 -22.35 -5.25 -21.3 -5.25 -21.2 -5.3 -20.95 -5.3 -20.8 -5.35 -20.65 -5.35 -20.55 -5.4 -20.25 -5.4 -20.15 -5.45 -19.9 -5.45 -19.85 -5.5 -19.65 -5.5 -19.65 -5.55 -19.5 -5.55 -19.45 -5.6 -19.4 -5.6 -19.35 -5.65 -18.9 -5.65 -18.9 -5.6 -19.0 -5.6 -19.05 -5.55 -19.1 -5.55 -19.2 -5.5 -19.3 -5.5 -19.3 -5.45 -19.55 -5.45 -19.6 -5.4 -19.8 -5.4 -19.85 -5.35 -20.0 -5.35 -20.15 -5.3 -20.3 -5.3 -20.35 -5.25 -20.55 -5.25 -20.7 -5.2 -20.9 -5.2 -21.2 -5.25 -21.3 -5.2 -22.05 -5.2 -22.25 -5.15 -22.65 -5.15 -22.6 -5.1 -22.6 -5.05 -22.45 -5.05 -22.35 -5.0 -21.55 -5.0 -21.55 -4.95 -21.4 -4.95 -21.4 -4.9 -21.35 -4.9 -21.25 -4.8 -21.25 -4.75 -20.5 -4.75 -20.45 -4.7 -20.25 -4.7 -20.2 -4.65 -20.05 -4.65 -19.85 -4.6 -19.6 -4.6 -19.35 -4.55 -19.9 -4.55 -20.0 -4.6 -20.35 -4.6 -20.4 -4.65 -20.55 -4.65 -20.55 -4.7 -20.65 -4.7 -20.75 -4.75 -20.85 -4.7 -21.2 -4.7 -21.25 -4.65 -21.4 -4.65 -21.45 -4.6 -21.6 -4.6 -21.6 -4.55 -21.65 -4.55 -21.65 -4.45 -21.4 -4.45 -21.1 -4.4 -20.9 -4.4 -20.8 -4.45 -20.35 -4.45 -20.3 -4.4 -20.25 -4.4 -20.25 -4.35 -20.15 -4.35 -20.15 -4.3 -20.1 -4.3 -20.1 -4.25 -20.05 -4.25 -20.0 -4.2 -20.0 -4.1 -20.05 -4.1 -20.1 -4.05 -20.2 -4.05 -20.2 -4.0 -20.25 -4.0 -20.55 -3.9 -20.75 -3.85 -20.9 -3.85 -21.05 -3.8 -23.0 -3.8 -23.25 -3.75 -23.45 -3.75 -23.45 -3.7 -23.5 -3.65 -23.65 -3.65 -23.65 -3.6 -23.9 -3.6 -24.05 -3.55 -24.35 -3.55 -24.7 -3.5 -25.3 -3.5 -25.55 -3.45 -27.35 -3.45 -27.4 -3.4 -27.75 -3.4 -28.1 -3.35 -28.65 -3.35 -29.9 -3.3 -31.7 -3.3 -31.85 -3.35 -31.9 -3.35 -31.9 -3.3 -32.1 -3.3 -32.15 -3.25 -32.25 -3.25 -32.4 -3.2 -32.45 -3.15 -32.95 -3.15 -33.05 -3.2 -33.35 -3.2 -33.45 -3.15 -33.7 -3.15 -33.7 -3.2 -33.85 -3.2 -34.5 -3.25 Q-34.6 -3.25 -34.65 -3.25 L-34.8 -3.25 -34.9 -3.3 -34.9 -3.35 -35.05 -3.35 -35.1 -3.4 -35.2 -3.45 -35.2 -3.5 -35.65 -3.5 -35.65 -3.55 -35.6 -3.55 -35.6 -3.65 -35.5 -3.65 -35.5 -3.7 -35.6 -3.7 -35.6 -3.75 -35.75 -3.75 -35.75 -3.7 -36.3 -3.7 Q-36.4 -3.7 -36.5 -3.65 L-37.7 -3.65 -38.0 -3.75 -38.1 -3.75 -38.2 -3.8 -38.45 -3.8 -38.6 -3.85 Q-38.7 -3.85 -38.75 -3.85 L-38.85 -3.95 -39.15 -3.95 -39.2 -4.0 -39.35 -4.0 -39.35 -4.1 -39.4 -4.15 -39.75 -4.15 -40.3 -4.2 -40.75 -4.2 -40.8 -4.25 -41.15 -4.25 -41.2 -4.2 -41.35 -4.2 -41.5 -4.15 -42.1 -4.15 -42.1 -4.2 -42.2 -4.2 -42.25 -4.25 -42.25 -4.35 -42.2 -4.4 -42.15 -4.4 -42.1 -4.45 -42.05 -4.45 -42.0 -4.5 -42.0 -4.55 -42.05 -4.6 -42.15 -4.6 -42.15 -4.65 -42.1 -4.65 -42.1 -4.7 -42.05 -4.7 -42.05 -4.75 -42.0 -4.75 -42.15 -4.8 -42.25 -4.8 -42.4 -4.85 -42.85 -4.85 -42.9 -4.9 -43.5 -4.9 -43.6 -4.95 -43.7 -4.95 -43.8 -5.0 -43.85 -5.0 -43.85 -5.05 -43.75 -5.05 -43.75 -5.1 -43.65 -5.1 -43.65 -5.15 -43.6 -5.15 -43.6 -5.2 -43.6 -5.25 -43.55 -5.3 -43.35 -5.3 -43.35 -5.35 -43.25 -5.35 -43.2 -5.4 -42.6 -5.4 Q-42.4 -5.45 -42.15 -5.45 L-42.1 -5.45 -42.1 -5.5 -42.15 -5.5 -42.25 -5.55 -42.3 -5.55 -42.55 -5.6 -42.65 -5.6 -42.7 -5.65 -43.25 -5.65 -43.4 -5.7 -43.7 -5.7 -44.0 -5.75 -44.4 -5.75 Q-44.95 -5.75 -45.45 -5.8 L-45.75 -5.8 -45.8 -5.85 -45.9 -5.85 -46.0 -5.9 -46.15 -5.9 -46.25 -5.85 -46.35 -5.85 -46.45 -5.8 -46.8 -5.8 -46.9 -5.75 -47.05 -5.75 -47.15 -5.7 -47.3 -5.7 -47.4 -5.65 -48.7 -5.65 -48.8 -5.7 -48.9 -5.7 -48.95 -5.75 -49.95 -5.75 -50.0 -5.8 -50.15 -5.8 -50.15 -5.85 -50.1 -5.9 -50.15 -5.95 -51.75 -5.95 -51.9 -6.0 -52.0 -6.0 -52.15 -5.95 -52.4 -5.95 -52.6 -5.9 -52.7 -5.85 -52.85 -5.85 -52.85 -5.8 -53.1 -5.8 -53.25 -5.75 -53.75 -5.75 Q-53.8 -5.75 -53.85 -5.75 L-53.9 -5.75 -53.85 -5.8 -53.55 -5.8 -53.45 -5.85 -53.2 -5.85 -53.2 -5.9 -53.1 -5.9 -53.05 -5.95 -52.9 -5.95 M-9.75 -9.0 L-10.2 -9.0 -10.35 -8.95 -11.3 -8.95 -11.3 -9.0 -13.3 -9.0 -13.55 -8.95 -14.65 -8.95 -14.7 -9.0 -14.8 -9.0 -14.8 -9.05 -14.8 -9.1 -14.75 -9.1 -14.8 -9.15 -15.8 -9.15 -15.9 -9.1 -16.45 -9.1 -16.6 -9.05 -17.1 -9.05 -17.1 -9.0 -18.0 -9.0 -18.05 -8.95 -18.35 -8.95 -18.4 -8.9 -18.45 -8.9 -18.4 -8.85 -18.35 -8.85 -18.35 -8.75 -18.4 -8.7 -18.45 -8.7 -18.5 -8.65 -18.65 -8.65 -18.65 -8.6 -18.5 -8.6 -18.4 -8.65 -18.05 -8.65 -17.9 -8.7 -17.85 -8.7 -17.7 -8.75 -17.5 -8.8 -17.3 -8.8 -17.25 -8.85 -16.2 -8.85 -16.05 -8.8 -15.95 -8.8 -15.85 -8.75 -15.55 -8.75 -15.45 -8.7 -14.3 -8.7 -14.15 -8.65 -13.2 -8.65 -12.9 -8.7 -12.0 -8.7 -11.6 -8.75 -11.3 -8.75 -10.8 -8.8 -10.5 -8.8 -10.5 -8.85 -10.45 -8.85 -10.45 -8.9 -9.75 -8.9 -9.7 -8.95 -9.75 -8.95 -9.75 -9.0 M-39.25 -6.7 L-39.0 -6.65 -38.65 -6.65 -38.65 -6.55 -38.8 -6.55 -38.85 -6.5 -39.0 -6.5 -39.0 -6.45 -39.1 -6.45 -39.15 -6.4 -39.25 -6.4 -39.3 -6.35 -38.9 -6.35 -38.95 -6.3 -38.7 -6.3 -38.65 -6.25 -38.6 -6.25 -38.55 -6.2 -38.8 -6.2 -38.85 -6.25 -38.95 -6.25 -39.05 -6.3 -39.15 -6.3 -39.2 -6.25 -39.45 -6.25 -39.5 -6.3 -39.55 -6.3 -39.6 -6.35 -39.4 -6.45 -39.25 -6.5 -39.15 -6.5 -39.1 -6.55 -38.9 -6.55 -38.85 -6.6 -38.95 -6.65 -39.55 -6.65 -39.65 -6.6 -39.7 -6.65 -39.65 -6.65 -39.55 -6.7 -39.25 -6.7 M-33.0 -4.3 L-33.5 -4.3 -33.6 -4.25 -34.6 -4.25 -34.75 -4.2 -35.4 -4.25 -35.4 -4.2 Q-35.3 -4.2 -35.3 -4.15 L-35.35 -4.15 -35.3 -4.1 -35.2 -4.1 -35.05 -4.05 -34.95 -4.05 -34.95 -4.0 -35.0 -3.95 -35.1 -3.95 -35.1 -3.9 -35.3 -3.9 -35.35 -3.85 -35.65 -3.85 -35.85 -3.8 -36.0 -3.8 -36.05 -3.75 -36.1 -3.75 -35.75 -3.8 -35.4 -3.8 -35.35 -3.75 -35.3 -3.75 -35.25 -3.7 -35.25 -3.6 -35.35 -3.6 -35.35 -3.55 -35.05 -3.55 -35.0 -3.5 -34.95 -3.5 -34.85 -3.45 -34.7 -3.4 -34.55 -3.4 -34.55 -3.35 Q-34.35 -3.3 -34.0 -3.3 L-33.7 -3.25 -33.5 -3.25 -33.4 -3.3 -33.1 -3.3 -32.8 -3.25 -32.65 -3.25 -32.6 -3.3 -32.5 -3.3 -32.5 -3.35 -32.45 -3.35 -32.4 -3.4 -32.2 -3.4 -32.35 -3.45 -32.45 -3.45 -32.5 -3.5 -32.5 -3.55 -32.55 -3.55 -32.55 -3.6 -33.3 -3.6 -33.35 -3.65 -33.65 -3.65 -33.7 -3.7 -33.7 -3.75 -33.85 -3.75 -33.85 -3.8 -33.8 -3.8 -33.75 -3.85 -33.15 -3.85 -32.9 -3.9 -32.05 -3.9 -31.95 -3.95 -31.4 -3.95 Q-31.35 -3.95 -31.3 -3.95 L-31.2 -4.0 -30.35 -4.0 -29.9 -4.05 -29.85 -4.05 -29.75 -4.15 -29.7 -4.15 -29.7 -4.2 -29.8 -4.2 -29.8 -4.3 -29.75 -4.3 -29.75 -4.35 -29.85 -4.35 -29.9 -4.4 -30.1 -4.4 -30.2 -4.45 -31.15 -4.45 -31.25 -4.4 -32.3 -4.4 -32.5 -4.35 -32.85 -4.35 -33.0 -4.3 M-18.45 -5.15 L-18.25 -5.15 -18.3 -5.1 -18.3 -5.05 -18.35 -5.05 -18.4 -5.0 -18.45 -5.0 -18.5 -4.95 -18.6 -4.95 -18.7 -4.9 -18.8 -4.9 -18.8 -4.8 -18.7 -4.8 -18.7 -4.75 -18.65 -4.75 -18.65 -4.7 -18.6 -4.65 -18.6 -4.6 -18.5 -4.6 -18.5 -4.55 -18.6 -4.55 -18.65 -4.5 -18.95 -4.5 -19.05 -4.55 -19.15 -4.55 -19.15 -4.6 -19.05 -4.6 -18.95 -4.65 -18.8 -4.65 -18.8 -4.7 -18.85 -4.7 -18.9 -4.75 -18.95 -4.75 -19.05 -4.8 -19.05 -4.95 -18.85 -4.95 -18.8 -5.0 -18.75 -5.0 -18.7 -5.05 -18.6 -5.05 -18.6 -5.1 -18.55 -5.1 -18.45 -5.15" fill="#ffffff" fill-rule="evenodd" stroke="none"/>
  </g>
</svg>
