<?xml version="1.0" encoding="UTF-8" standalone="no"?>
<svg xmlns:ffdec="https://www.free-decompiler.com/flash" xmlns:xlink="http://www.w3.org/1999/xlink" ffdec:objectType="shape" height="10.35px" width="2.25px" xmlns="http://www.w3.org/2000/svg">
  <g transform="matrix(1.0, 0.0, 0.0, 1.0, 1.65, 8.9)">
    <path d="M0.25 -6.85 L0.15 -6.65 0.15 -6.6 0.05 -6.15 Q-0.25 -5.15 -0.35 -4.45 L-0.35 -4.4 -0.4 -4.4 -0.45 -4.05 -0.5 -3.3 Q-0.5 -2.55 -0.3 -1.5 -0.05 0.0 -0.05 0.3 L-0.1 0.45 -0.1 0.65 -0.15 0.7 -0.15 0.75 -0.2 0.85 -0.25 0.85 -0.25 0.9 -0.1 0.8 -0.05 0.6 -0.05 0.7 Q-0.15 1.5 -0.75 1.45 L-0.85 1.45 -0.9 1.4 -1.1 1.4 Q-1.4 1.35 -1.55 0.75 L-1.65 0.25 -1.6 -0.3 -1.45 -0.95 -1.5 -1.1 -1.6 -1.8 -1.45 -2.95 -1.15 -2.85 Q-0.9 -4.4 -0.85 -4.9 L-0.8 -5.0 Q-0.55 -6.15 -0.45 -6.9 -0.35 -7.65 -0.4 -7.85 L-0.4 -7.9 Q-0.25 -8.55 0.05 -8.7 L0.1 -8.85 0.15 -8.85 0.35 -8.8 Q0.65 -8.6 0.55 -7.8 0.5 -7.3 0.25 -6.85" fill="#debcfa" fill-rule="evenodd" stroke="none"/>
  </g>
</svg>
