<?xml version="1.0" encoding="UTF-8" standalone="no"?>
<svg xmlns:ffdec="https://www.free-decompiler.com/flash" xmlns:xlink="http://www.w3.org/1999/xlink" ffdec:objectType="shape" height="6.8px" width="4.6px" xmlns="http://www.w3.org/2000/svg">
  <g transform="matrix(1.0, 0.0, 0.0, 1.0, 2.5, 7.4)">
    <path d="M0.6 -7.15 L0.55 -7.15 0.35 -7.3 Q0.2 -7.35 -0.05 -7.4 L-0.1 -7.4 0.1 -7.4 Q0.35 -7.3 0.6 -7.15 M-0.4 -7.3 L-0.45 -7.2 -0.65 -7.15 -0.8 -7.05 -0.85 -7.05 Q-0.7 -7.15 -0.55 -7.2 L-0.4 -7.3 M-1.35 -6.65 L-1.35 -6.55 -1.5 -6.45 -1.5 -6.5 -1.35 -6.65 M-1.15 -1.3 Q-1.05 -1.25 -0.95 -1.2 L-0.75 -1.0 -0.5 -0.8 Q-0.3 -0.65 -0.2 -0.65 L0.25 -0.75 0.3 -0.75 Q0.05 -0.6 -0.2 -0.6 -0.65 -0.6 -1.0 -1.05 L-1.15 -1.3 M0.95 -1.45 L0.95 -1.5 Q0.95 -1.6 1.05 -1.7 L1.2 -1.8 0.95 -1.45 M1.55 -6.2 L1.5 -6.3 1.4 -6.4 1.25 -6.45 1.25 -6.55 Q1.2 -6.65 0.95 -6.75 L1.05 -6.8 1.2 -6.65 Q1.4 -6.5 1.55 -6.25 L1.55 -6.2 M1.6 -5.65 Q1.7 -5.35 1.7 -5.15 L1.7 -4.8 1.65 -4.25 1.6 -3.85 1.4 -3.4 Q1.2 -3.05 0.75 -2.55 L0.75 -2.55 0.4 -2.4 Q-0.1 -2.25 -0.2 -2.25 -0.9 -2.25 -1.35 -2.75 -1.6 -3.0 -1.75 -3.3 L-1.9 -3.65 -1.95 -4.2 Q-1.95 -4.85 -1.9 -5.3 -1.9 -5.5 -1.7 -5.9 L-1.5 -6.3 -1.35 -6.35 -1.05 -6.55 Q-0.6 -6.85 -0.1 -6.85 0.2 -6.85 0.65 -6.65 1.0 -6.5 1.2 -6.3 L1.5 -6.0 1.6 -5.65" fill="#f2e2c9" fill-rule="evenodd" stroke="none"/>
    <path d="M0.6 -7.15 L0.7 -7.05 0.8 -7.0 1.05 -6.8 0.95 -6.75 Q1.2 -6.65 1.25 -6.55 L1.25 -6.45 1.4 -6.4 1.5 -6.3 1.55 -6.2 1.6 -6.2 1.6 -6.15 1.7 -5.85 2.0 -5.05 Q2.1 -4.65 2.1 -4.25 L2.05 -4.1 2.05 -3.8 2.0 -3.3 Q1.95 -2.9 1.6 -2.35 L1.3 -1.9 1.2 -1.8 1.05 -1.7 Q0.95 -1.6 0.95 -1.5 L0.95 -1.45 0.75 -1.2 0.5 -1.0 0.3 -0.8 0.3 -0.75 0.25 -0.75 -0.2 -0.65 Q-0.3 -0.65 -0.5 -0.8 L-0.75 -1.0 -0.95 -1.2 Q-1.05 -1.25 -1.15 -1.3 L-1.2 -1.35 -1.35 -1.65 -1.85 -2.45 Q-2.1 -2.85 -2.25 -3.4 -2.35 -3.9 -2.35 -4.4 -2.35 -4.85 -2.25 -5.2 -2.15 -5.6 -1.9 -6.0 L-1.6 -6.45 -1.5 -6.5 -1.5 -6.45 -1.35 -6.55 -1.35 -6.65 -1.3 -6.7 -1.15 -6.8 -1.1 -6.8 -0.85 -7.05 -0.8 -7.05 -0.65 -7.15 -0.45 -7.2 -0.4 -7.3 -0.3 -7.35 -0.1 -7.4 -0.05 -7.4 Q0.2 -7.35 0.35 -7.3 L0.55 -7.15 0.6 -7.15 M1.6 -5.65 L1.5 -6.0 1.2 -6.3 Q1.0 -6.5 0.65 -6.65 0.2 -6.85 -0.1 -6.85 -0.6 -6.85 -1.05 -6.55 L-1.35 -6.35 -1.5 -6.3 -1.7 -5.9 Q-1.9 -5.5 -1.9 -5.3 -1.95 -4.85 -1.95 -4.2 L-1.9 -3.65 -1.75 -3.3 Q-1.6 -3.0 -1.35 -2.75 -0.9 -2.25 -0.2 -2.25 -0.1 -2.25 0.4 -2.4 L0.75 -2.55 0.75 -2.55 Q1.2 -3.05 1.4 -3.4 L1.6 -3.85 1.65 -4.25 1.7 -4.8 1.7 -5.15 Q1.7 -5.35 1.6 -5.65" fill="#ccbea9" fill-rule="evenodd" stroke="none"/>
    <path d="M-2.5 -5.35 Q-2.5 -5.45 -2.3 -5.7 -2.15 -5.95 -2.1 -5.95 -2.1 -5.85 -2.15 -5.75 L-2.25 -5.6 -2.3 -5.4 Q-2.4 -5.3 -2.45 -5.3 L-2.5 -5.35" fill="#bfbf98" fill-rule="evenodd" stroke="none"/>
  </g>
</svg>
