<?xml version="1.0" encoding="UTF-8" standalone="no"?>
<svg xmlns:ffdec="https://www.free-decompiler.com/flash" xmlns:xlink="http://www.w3.org/1999/xlink" ffdec:objectType="shape" height="22.15px" width="4.65px" xmlns="http://www.w3.org/2000/svg">
  <g transform="matrix(1.0, 0.0, 0.0, 1.0, 2.4, 20.3)">
    <path d="M-1.75 -7.75 Q-1.45 -7.65 -1.4 -6.95 -1.35 -6.5 -1.5 -6.05 L-1.55 -5.85 -1.55 -5.8 -1.6 -5.4 Q-1.7 -4.45 -1.65 -3.8 L-1.7 -3.8 -1.7 -3.45 -1.65 -2.8 Q-1.5 -2.15 -1.2 -1.25 -0.7 0.0 -0.7 0.25 L-0.7 0.7 -0.75 0.75 -0.75 0.8 Q-0.7 0.8 -0.65 0.7 L-0.65 0.5 -0.6 0.6 Q-0.55 1.3 -1.1 1.4 L-1.15 1.45 -1.4 1.45 Q-1.7 1.5 -1.9 1.05 -2.0 0.8 -2.05 0.6 -2.1 0.35 -2.1 0.1 L-2.1 -0.5 -2.15 -0.6 -2.35 -1.2 -2.4 -2.25 -2.1 -2.25 -2.15 -4.1 -2.15 -4.2 Q-2.1 -5.25 -2.15 -5.95 -2.15 -6.6 -2.2 -6.75 L-2.2 -6.8 Q-2.2 -7.45 -1.95 -7.65 L-1.95 -7.75 -1.9 -7.75 Q-1.85 -7.85 -1.75 -7.75" fill="#860086" fill-rule="evenodd" stroke="none"/>
    <path d="M-2.2 -0.3 Q-2.2 -1.25 -2.05 -1.15 -1.9 -1.0 -1.65 -0.2 -1.45 0.45 -1.35 1.0 -1.25 1.25 -1.25 1.45 -1.3 1.8 -1.6 1.85 -1.95 1.9 -2.1 1.1 -2.2 0.6 -2.2 -0.3" fill="#860086" fill-rule="evenodd" stroke="none"/>
    <path d="M0.55 -20.3 L0.65 -20.2 0.95 -19.65 1.05 -19.45 1.05 -19.4 1.1 -19.3 1.2 -19.15 1.45 -18.45 1.5 -18.25 Q1.6 -18.0 1.65 -17.7 1.8 -17.4 1.85 -17.0 1.95 -16.75 2.05 -16.3 L2.05 -16.25 Q2.25 -14.05 2.25 -13.35 L2.2 -12.25 2.2 -12.35 Q2.2 -13.5 2.15 -14.0 2.05 -14.85 1.75 -15.95 L1.5 -16.85 Q1.3 -17.45 1.1 -17.75 0.8 -18.35 0.4 -18.6 L0.1 -18.7 -0.1 -18.6 Q-0.25 -18.6 -0.35 -18.85 L-0.35 -19.15 Q-0.35 -19.45 -0.25 -19.65 L0.05 -19.95 Q0.2 -20.25 0.55 -20.3 M0.05 -8.25 Q0.05 -8.0 0.1 -7.35 L0.2 -6.15 0.1 -6.1 Q-0.1 -6.45 -0.15 -7.35 L-0.15 -8.65 -0.1 -9.85 -0.05 -11.45 Q0.0 -12.9 0.45 -13.5 0.95 -14.15 0.95 -12.35 L0.5 -10.8 Q0.05 -9.3 0.05 -8.25 M0.2 -4.45 L0.25 -4.45 0.35 -4.5 Q0.65 -3.05 0.85 -2.35 L0.85 -1.9 0.9 -2.15 1.05 -3.25 1.05 -2.8 1.1 -2.75 Q1.15 -1.6 1.5 -0.8 L1.8 -0.05 Q1.9 0.4 1.9 1.0 L1.9 1.15 Q1.8 1.4 1.5 1.4 L1.2 1.4 Q0.95 1.4 0.75 1.0 L0.65 0.55 Q0.65 0.35 0.65 0.1 L0.65 0.05 0.4 -1.85 Q0.2 -3.35 0.2 -4.3 L0.2 -4.45" fill="#350034" fill-opacity="0.8" fill-rule="evenodd" stroke="none"/>
  </g>
</svg>
