<?xml version="1.0" encoding="UTF-8" standalone="no"?>
<svg xmlns:ffdec="https://www.free-decompiler.com/flash" xmlns:xlink="http://www.w3.org/1999/xlink" ffdec:objectType="shape" height="21.15px" width="2.15px" xmlns="http://www.w3.org/2000/svg">
  <g transform="matrix(1.0, 0.0, 0.0, 1.0, 1.8, 19.75)">
    <path d="M0.1 -4.9 Q0.1 -4.05 0.35 -0.2 0.35 0.1 0.3 0.35 L0.2 0.85 Q-0.05 1.4 -0.35 1.4 L-0.7 1.4 Q-1.1 1.35 -1.2 1.05 L-1.25 0.9 Q-1.25 0.2 -1.05 -0.35 L-0.7 -1.3 Q-0.2 -2.6 -0.2 -4.65 L-0.2 -5.4 -0.25 -6.4 -0.3 -6.4 -0.35 -7.05 -0.35 -8.3 Q-0.45 -9.35 -0.65 -9.85 -0.7 -10.1 -1.1 -11.4 -1.6 -13.0 -1.65 -13.45 -1.65 -13.85 -1.7 -14.4 L-1.8 -15.0 -1.75 -15.1 -1.75 -15.5 -1.7 -16.7 -1.65 -18.35 Q-1.5 -19.9 -1.1 -19.75 -0.7 -19.65 -0.7 -18.65 -0.7 -17.9 -1.05 -16.65 -1.3 -15.8 -1.35 -15.15 L-1.3 -15.0 -1.3 -14.8 Q-1.25 -12.7 -1.0 -12.35 L-0.95 -12.3 -0.85 -11.75 -0.5 -9.95 -0.5 -9.85 Q-0.2 -8.35 -0.2 -7.9 L-0.2 -7.8 -0.05 -6.8 Q-0.05 -6.1 0.1 -5.0 L0.1 -4.9" fill="#c800c2" fill-opacity="0.8" fill-rule="evenodd" stroke="none"/>
  </g>
</svg>
