<?xml version="1.0" encoding="UTF-8" standalone="no"?>
<svg xmlns:ffdec="https://www.free-decompiler.com/flash" xmlns:xlink="http://www.w3.org/1999/xlink" ffdec:objectType="shape" height="199.15px" width="47.05px" xmlns="http://www.w3.org/2000/svg">
  <g transform="matrix(1.0, 0.0, 0.0, 1.0, -8.25, 7.0)">
    <path d="M8.8 0.0 Q8.95 -0.45 9.25 -0.8 9.75 -1.4 10.95 -1.9 L11.6 -2.15 Q11.55 -1.8 11.55 -1.45 11.55 -1.25 11.05 1.95 10.5 5.35 10.25 6.45 L10.4 6.45 Q11.1 4.95 12.3 1.85 L12.4 1.6 Q13.25 6.6 13.4 7.9 L13.5 8.75 13.55 10.45 Q13.6 10.85 13.15 12.35 12.7 13.9 12.7 14.3 12.7 15.15 13.2 17.7 13.7 20.2 13.7 21.75 L13.8 21.75 Q13.9 19.95 13.9 18.95 13.9 18.7 13.75 17.65 13.6 16.6 13.6 16.4 13.65 16.05 13.95 14.9 L14.15 14.2 Q14.25 12.65 14.85 8.5 L15.75 2.7 15.85 2.7 15.9 2.75 15.9 3.05 Q15.9 3.9 15.5 7.3 15.15 10.65 15.15 11.2 15.1 12.15 15.4 12.7 15.65 13.2 15.65 13.7 15.65 14.8 15.25 16.65 L15.05 17.75 Q15.45 20.4 15.45 21.6 15.45 27.45 14.9 32.7 15.05 33.45 15.05 34.3 L14.9 37.8 14.6 37.8 Q14.5 37.15 14.0 34.6 L12.55 31.55 Q12.15 30.65 11.85 29.9 L11.25 27.15 11.0 27.15 11.2 28.35 11.1 28.35 11.25 28.95 Q11.55 30.85 12.25 34.65 L13.05 39.35 Q13.55 40.75 13.7 41.85 L14.0 45.6 Q14.25 48.3 14.2 48.75 L14.2 49.05 Q14.2 49.0 14.2 49.05 L14.05 49.05 Q13.6 46.7 12.4 41.95 L11.6 38.55 11.75 41.3 11.85 44.5 11.95 45.45 11.8 47.4 Q11.8 49.95 12.1 50.9 12.7 52.95 13.1 55.55 L13.5 58.35 Q13.6 60.05 13.6 60.95 L13.65 67.35 Q13.6 68.0 13.55 68.65 L13.45 69.25 Q13.1 70.95 12.85 72.4 12.35 75.65 12.15 77.9 L11.7 75.7 Q11.25 73.6 11.2 72.7 L11.05 72.7 10.9 77.15 Q10.9 77.35 11.05 78.85 L11.2 80.55 Q11.2 82.35 11.8 84.85 L11.8 84.9 11.75 85.5 11.6 88.45 11.45 91.15 11.45 91.25 Q11.45 94.5 11.55 100.75 L11.55 104.75 Q11.55 105.8 11.6 107.3 L11.6 110.65 11.7 110.65 11.7 111.1 11.85 111.1 12.95 101.15 13.55 95.3 Q13.5 95.05 13.35 94.8 13.15 94.45 13.1 94.3 13.0 94.0 13.0 93.45 13.0 92.55 13.1 91.15 L13.35 88.85 13.4 88.45 Q13.7 85.65 13.75 82.85 L13.85 82.85 Q13.9 84.7 14.2 88.45 L14.25 89.25 14.4 91.15 14.6 93.5 Q14.6 93.95 14.45 94.25 L14.2 94.75 Q13.8 95.4 13.85 96.5 L13.75 96.55 14.3 100.9 14.15 101.6 Q13.75 103.7 13.7 105.0 13.7 105.2 13.95 107.25 14.15 109.45 14.2 111.3 L14.2 111.65 14.15 112.1 Q14.1 112.3 14.1 112.4 L14.25 112.35 14.45 111.3 Q14.8 109.35 15.05 107.15 L15.45 110.3 15.35 111.3 Q14.65 116.9 14.1 122.1 L13.95 123.75 13.95 123.65 Q13.35 120.7 12.9 116.95 L12.8 116.95 12.75 125.85 Q12.85 126.5 12.85 128.1 12.8 130.1 12.85 130.75 12.9 131.9 13.1 132.65 12.95 134.9 12.95 136.15 12.95 138.85 13.15 140.6 13.3 141.8 13.7 143.45 14.2 145.5 14.4 146.75 14.85 149.15 15.1 152.45 L15.1 156.35 Q14.7 156.1 14.2 155.6 L13.55 154.95 13.45 154.6 12.7 151.05 12.6 151.05 Q12.65 151.6 12.7 152.9 12.75 154.2 12.85 154.9 13.0 155.8 13.3 156.6 13.5 157.8 13.8 159.25 L14.85 163.6 Q15.9 168.15 16.05 171.05 L16.05 172.0 Q16.05 172.5 15.75 174.85 L15.4 177.3 14.55 174.55 Q14.0 172.7 13.55 171.05 L13.15 169.45 13.0 169.45 13.25 171.05 13.7 175.15 Q14.2 179.7 14.45 181.5 15.2 187.35 16.1 188.45 L16.15 188.65 Q14.7 188.35 13.7 188.0 13.15 187.85 12.7 187.65 L12.75 187.3 Q13.3 185.25 13.3 184.8 13.3 184.5 12.55 181.75 11.75 178.6 11.5 177.35 L11.4 177.35 Q11.4 178.05 11.6 180.65 L11.85 183.25 Q11.85 183.45 11.35 184.15 10.8 184.85 10.8 185.25 L10.95 186.7 Q10.05 186.0 9.7 185.15 9.5 184.8 9.4 184.4 9.5 183.15 9.55 181.2 L9.6 178.75 9.6 178.35 9.65 176.7 Q9.65 174.35 9.75 171.05 L9.85 167.6 Q10.0 160.15 10.05 156.15 L9.9 154.15 Q9.75 152.25 9.8 151.25 9.8 150.3 9.95 148.35 L10.1 146.3 Q10.15 144.2 9.75 140.05 9.6 138.15 9.5 136.7 9.6 137.0 9.7 137.2 L9.85 137.1 9.9 137.1 10.5 141.45 Q11.05 145.1 11.55 147.25 L11.65 147.15 10.85 141.2 Q10.55 138.8 10.25 137.05 L10.25 136.8 Q9.95 135.45 9.8 133.7 9.7 132.65 9.6 130.6 L9.55 130.6 Q9.6 127.05 9.55 125.0 L9.5 124.0 9.3 119.75 9.1 115.6 9.25 111.35 9.25 111.3 9.35 109.2 Q9.65 103.3 9.65 101.45 L9.65 98.65 Q9.6 97.0 9.35 95.75 L9.4 89.05 9.65 91.15 Q9.9 93.3 10.4 96.4 L10.45 96.25 10.5 96.15 10.6 95.35 10.65 94.6 Q10.7 93.05 10.55 91.15 L10.35 88.45 10.15 86.4 Q9.75 82.65 9.2 79.25 9.1 76.2 9.05 72.4 L9.0 62.85 8.95 54.05 9.05 53.05 Q9.35 49.8 9.35 47.4 9.35 47.2 9.2 46.55 9.0 45.9 9.0 45.7 L8.95 44.25 8.9 43.1 8.8 40.5 8.8 38.2 Q8.95 34.75 9.2 30.1 9.5 24.25 9.55 20.35 9.55 16.5 9.45 13.4 L9.35 11.45 9.35 11.2 9.2 8.85 Q9.0 4.7 8.9 0.0 L8.8 0.0 8.75 2.4 Q8.65 1.15 8.7 0.65 8.7 0.3 8.8 0.0 M11.95 9.65 Q11.95 9.35 11.8 9.05 L11.65 8.6 Q11.55 8.75 11.3 9.45 11.05 10.2 11.05 10.35 11.05 10.7 11.15 10.9 L11.35 11.3 11.65 10.6 Q11.95 9.9 11.95 9.65 M13.85 27.05 L13.8 27.0 13.7 27.0 13.6 27.6 Q13.5 28.1 13.5 28.35 13.5 28.65 13.5 28.7 L13.6 28.8 13.65 28.65 13.65 28.55 Q13.65 28.35 13.75 28.0 13.85 27.6 13.85 27.35 L13.85 27.05 M15.15 52.6 Q15.4 53.6 15.4 55.8 15.4 57.85 15.25 59.0 L15.15 59.0 15.1 55.8 15.0 52.6 15.15 52.6 M11.95 59.85 Q11.95 59.5 11.85 58.45 L11.55 56.7 11.45 56.7 Q11.25 57.4 11.25 58.05 11.25 59.0 11.65 63.95 L11.75 63.85 Q11.75 63.05 11.85 61.5 L11.95 59.85 M9.2 80.4 Q9.3 81.05 9.3 81.3 L9.25 82.85 9.2 80.4 M13.45 82.6 L13.65 78.9 13.75 77.65 13.75 79.35 13.45 82.6 M16.75 104.0 Q16.9 104.5 16.9 105.0 16.9 105.25 16.8 105.55 L16.65 105.95 16.5 105.95 Q16.25 105.85 16.05 105.35 15.85 104.8 15.85 104.25 15.85 103.6 16.05 103.35 16.2 103.15 16.4 103.35 L16.5 103.5 Q16.65 103.7 16.75 104.0 M47.2 116.1 Q47.4 117.8 47.35 120.25 47.35 122.55 47.85 123.2 48.0 123.35 48.2 123.55 48.4 123.7 48.4 124.0 48.4 124.35 48.2 124.75 L47.8 125.5 Q47.35 126.55 47.75 127.9 L47.5 127.9 Q47.35 126.5 46.9 125.35 46.45 124.35 46.45 123.8 46.45 123.25 46.65 120.15 L46.95 116.1 47.2 116.1 M44.65 137.65 Q44.45 138.65 44.1 139.05 43.95 138.95 43.85 138.7 43.75 138.5 43.75 138.35 43.7 137.2 43.75 136.2 43.9 134.25 44.55 133.6 44.65 134.15 44.7 135.0 44.75 135.75 44.75 136.15 44.75 136.9 44.65 137.65 M11.25 128.15 L11.1 128.15 11.1 128.75 11.05 129.45 Q11.05 129.9 11.1 130.35 11.25 131.2 11.6 131.5 L11.4 129.8 Q11.25 128.75 11.25 128.15 M11.75 122.15 L11.8 122.05 11.9 121.55 Q11.8 121.15 11.8 120.45 L11.75 119.3 Q11.65 117.95 10.95 117.3 10.7 117.55 10.6 118.3 10.55 118.75 10.55 119.6 L10.65 120.95 Q10.9 122.25 11.4 122.25 11.65 122.25 11.75 122.15 M11.7 163.7 Q11.9 164.3 12.05 164.55 L12.25 164.15 Q12.3 164.0 12.3 163.65 11.8 162.15 11.7 162.0 11.55 162.15 11.55 162.95 11.55 163.15 11.7 163.7 M17.0 179.35 Q17.4 179.65 17.4 180.15 17.4 180.25 17.1 181.25 16.85 182.2 16.85 182.55 16.85 182.85 16.9 183.1 L17.15 183.55 17.15 184.35 17.05 184.45 Q16.8 182.85 16.3 181.15 L15.85 179.75 Q15.85 179.55 16.05 179.1 16.2 178.65 16.2 178.45 L16.3 178.45 Q16.45 179.0 17.0 179.35" fill="#339999" fill-rule="evenodd" stroke="none"/>
    <path d="M9.4 184.4 L9.4 184.85 9.05 184.85 Q8.95 183.1 8.9 179.75 L8.9 176.4 Q8.9 175.5 9.05 171.05 L9.1 169.95 9.3 164.4 Q9.3 161.95 9.2 157.1 L9.1 152.4 9.5 146.3 9.45 144.4 Q9.4 142.7 9.35 141.7 9.2 140.0 9.0 139.05 8.9 138.45 8.9 137.25 L9.05 134.0 9.1 132.25 9.1 128.5 Q9.15 126.95 9.0 124.0 L8.85 121.15 Q8.5 116.05 8.5 113.75 8.5 112.8 8.6 111.35 L8.6 111.3 8.8 107.5 Q9.05 103.2 9.1 101.5 L9.0 99.25 8.8 95.95 8.85 86.3 Q8.6 78.05 8.5 73.25 L8.45 72.4 Q8.35 65.75 8.35 60.15 L8.4 58.65 8.35 58.65 Q8.3 57.95 8.3 56.75 L8.25 55.25 8.6 52.4 8.6 52.3 8.75 46.15 8.6 44.25 8.6 44.2 Q8.25 39.8 8.25 37.8 L8.45 33.65 Q8.6 29.35 8.65 27.15 8.65 25.05 8.8 20.75 L8.9 18.2 8.75 15.3 8.65 13.85 Q8.5 12.6 8.5 11.8 L8.55 11.5 8.5 10.55 8.65 6.4 8.75 2.4 8.8 0.0 8.9 0.0 Q9.0 4.7 9.2 8.85 L9.35 11.2 9.35 11.45 9.45 13.4 Q9.55 16.5 9.55 20.35 9.5 24.25 9.2 30.1 8.95 34.75 8.8 38.2 L8.8 40.5 8.9 43.1 8.95 44.25 9.0 45.7 Q9.0 45.9 9.2 46.55 9.35 47.2 9.35 47.4 9.35 49.8 9.05 53.05 L8.95 54.05 9.0 62.85 9.05 72.4 Q9.1 76.2 9.2 79.25 L9.2 80.4 9.25 82.85 9.4 86.1 9.4 89.05 9.35 95.75 Q9.6 97.0 9.65 98.65 L9.65 101.45 Q9.65 103.3 9.35 109.2 L9.25 111.3 9.25 111.35 9.1 115.6 9.3 119.75 9.5 124.0 9.55 125.0 Q9.6 127.05 9.55 130.6 L9.6 130.6 Q9.7 132.65 9.8 133.7 9.95 135.45 10.25 136.8 L10.25 137.05 Q10.55 138.8 10.85 141.2 L11.65 147.15 11.55 147.25 Q11.05 145.1 10.5 141.45 L9.9 137.1 9.85 137.1 9.7 137.2 Q9.6 137.0 9.5 136.7 9.6 138.15 9.75 140.05 10.15 144.2 10.1 146.3 L9.95 148.35 Q9.8 150.3 9.8 151.25 9.75 152.25 9.9 154.15 L10.05 156.15 Q10.0 160.15 9.85 167.6 L9.75 171.05 Q9.65 174.35 9.65 176.7 L9.6 178.35 9.6 178.75 9.55 181.2 Q9.5 183.15 9.4 184.4 M8.85 47.55 L8.9 49.55 8.9 48.85 8.85 47.55 M13.3 156.6 Q13.0 155.8 12.85 154.9 12.75 154.2 12.7 152.9 12.65 151.6 12.6 151.05 L12.7 151.05 13.45 154.6 13.55 154.95 Q14.0 156.95 14.6 158.35 L14.6 158.5 13.35 156.7 13.3 156.6 M16.55 162.1 L16.7 162.1 Q17.15 163.8 17.5 164.3 L17.45 164.4 Q17.25 164.3 16.9 163.55 16.5 162.8 16.5 162.5 16.5 162.2 16.55 162.15 L16.55 162.1" fill="#175757" fill-rule="evenodd" stroke="none"/>
    <path d="M11.6 -2.15 L11.8 -2.2 Q13.5 -2.75 16.6 -3.35 L16.8 -3.35 16.9 -3.4 17.05 -3.4 17.4 -3.5 17.7 -3.55 17.9 -3.55 19.5 -3.85 19.55 -3.85 19.6 -3.25 Q19.65 -2.3 20.2 1.4 20.75 4.95 20.75 6.3 L20.5 8.75 Q20.3 10.95 20.3 11.15 20.3 12.0 20.55 13.9 20.8 15.8 20.8 18.15 L20.65 20.05 Q20.55 21.7 20.55 21.95 L20.45 24.8 Q20.35 27.6 20.4 29.05 L20.35 29.15 Q20.2 26.2 19.9 23.5 L20.0 22.8 Q20.25 20.85 20.3 17.95 19.5 3.9 18.6 0.1 L18.5 0.1 Q18.65 2.7 18.8 6.0 18.95 9.65 18.95 12.15 L18.75 17.5 18.65 19.5 Q17.95 23.1 17.95 26.9 18.0 31.0 17.4 34.15 17.05 35.9 16.95 36.65 16.75 38.2 16.75 40.15 16.75 41.7 16.9 42.5 17.0 43.0 17.25 43.45 L17.4 43.75 Q18.45 37.95 18.45 37.15 L18.55 37.15 Q18.65 38.05 18.65 39.35 L18.45 40.8 Q18.25 42.05 18.25 42.7 18.2 43.3 18.3 44.55 L18.45 46.0 Q18.4 47.65 18.0 49.05 L17.65 50.3 Q17.55 52.75 17.2 55.0 17.0 56.55 16.55 58.8 16.6 61.15 16.7 63.4 16.85 66.85 16.85 72.4 L16.85 73.1 16.95 72.4 17.2 70.4 17.5 67.3 Q17.95 63.45 18.8 61.3 L18.5 63.15 18.5 64.45 18.35 66.75 Q18.2 68.8 18.2 69.0 18.15 70.3 17.8 72.4 L17.5 73.9 17.2 75.55 Q17.0 76.95 16.95 78.0 17.1 81.4 17.65 88.15 L17.7 88.45 18.5 98.2 18.5 99.5 18.75 99.5 Q19.55 100.55 19.7 105.3 19.75 106.9 19.75 109.25 L19.75 109.9 19.95 112.25 Q20.7 120.1 20.65 121.85 20.65 122.2 20.45 124.0 L20.3 125.15 Q19.9 128.5 19.85 131.25 19.85 133.4 19.75 134.85 19.75 135.95 20.2 139.7 L20.2 140.5 20.15 140.6 Q19.75 137.15 19.35 134.3 L19.05 131.85 19.05 132.15 Q19.3 127.8 19.3 126.75 19.3 125.55 18.85 124.05 L18.8 124.0 Q18.3 122.3 18.2 120.85 18.1 120.0 18.05 117.9 18.0 115.95 17.9 114.9 L17.8 114.9 17.8 116.05 Q17.85 116.45 17.7 119.95 L17.5 124.0 17.5 124.35 Q17.5 124.9 17.75 126.0 17.95 127.05 17.95 128.2 17.95 129.75 18.1 133.8 L17.5 139.1 Q17.1 142.65 17.1 143.6 17.05 147.45 17.35 150.7 17.5 152.45 18.0 156.05 18.3 158.4 18.45 160.25 18.95 156.85 18.95 153.95 18.95 152.3 19.4 148.6 19.75 145.05 19.75 143.5 L19.85 143.45 20.05 143.6 Q20.15 143.7 20.15 144.0 L19.9 146.1 Q19.7 148.25 19.7 148.8 L19.8 150.8 Q19.9 152.7 19.95 153.7 19.95 154.45 20.2 156.45 L20.45 158.5 Q20.45 159.2 19.95 160.3 19.45 161.35 19.45 162.25 19.45 162.5 19.65 162.95 19.85 163.4 19.85 163.6 19.85 163.9 19.0 166.7 L18.85 167.3 18.85 170.4 Q18.85 170.6 18.95 171.05 19.0 171.7 19.25 172.95 19.65 175.05 19.65 175.5 L19.65 177.0 Q19.85 175.15 20.2 171.65 L20.25 171.05 Q20.55 167.85 20.75 166.3 L20.8 166.3 21.05 166.25 Q21.2 166.6 21.2 167.3 L20.95 169.5 20.8 171.05 Q20.7 171.85 20.7 172.05 20.7 174.85 21.3 178.0 L21.85 180.9 Q22.2 182.8 22.45 184.55 L22.75 184.35 23.15 183.95 Q23.25 184.25 23.45 185.45 23.7 186.75 23.7 186.95 L23.55 188.15 Q23.4 189.2 23.4 189.75 L23.4 189.8 20.65 189.45 20.75 189.45 20.5 187.25 Q19.9 182.55 19.85 181.05 L19.7 181.05 Q19.65 182.7 19.2 187.45 L19.05 189.2 18.95 189.15 18.9 189.15 16.15 188.65 16.1 188.45 Q15.2 187.35 14.45 181.5 14.2 179.7 13.7 175.15 L13.25 171.05 13.0 169.45 13.15 169.45 13.55 171.05 Q14.0 172.7 14.55 174.55 L15.4 177.3 15.75 174.85 Q16.05 172.5 16.05 172.0 L16.05 171.05 Q15.9 168.15 14.85 163.6 L13.8 159.25 Q13.5 157.8 13.3 156.6 L13.35 156.7 14.6 158.5 14.6 158.35 Q14.0 156.95 13.55 154.95 L14.2 155.6 Q14.7 156.1 15.1 156.35 L15.1 152.45 Q14.85 149.15 14.4 146.75 14.2 145.5 13.7 143.45 13.3 141.8 13.15 140.6 12.95 138.85 12.95 136.15 12.95 134.9 13.1 132.65 12.9 131.9 12.85 130.75 12.8 130.1 12.85 128.1 12.85 126.5 12.75 125.85 L12.8 116.95 12.9 116.95 Q13.35 120.7 13.95 123.65 L13.95 123.75 14.1 122.1 Q14.65 116.9 15.35 111.3 L15.45 110.3 15.05 107.15 Q14.8 109.35 14.45 111.3 L14.25 112.35 14.1 112.4 Q14.1 112.3 14.15 112.1 L14.2 111.65 14.2 111.3 Q14.15 109.45 13.95 107.25 13.7 105.2 13.7 105.0 13.75 103.7 14.15 101.6 L14.3 100.9 13.75 96.55 13.85 96.5 Q13.8 95.4 14.2 94.75 L14.45 94.25 Q14.6 93.95 14.6 93.5 L14.4 91.15 14.25 89.25 14.2 88.45 Q13.9 84.7 13.85 82.85 L13.75 82.85 Q13.7 85.65 13.4 88.45 L13.35 88.85 13.1 91.15 Q13.0 92.55 13.0 93.45 13.0 94.0 13.1 94.3 13.15 94.45 13.35 94.8 13.5 95.05 13.55 95.3 L12.95 101.15 11.85 111.1 11.7 111.1 11.7 110.65 11.6 110.65 11.6 107.3 Q11.55 105.8 11.55 104.75 L11.55 100.75 Q11.45 94.5 11.45 91.25 L11.45 91.15 11.6 88.45 11.75 85.5 11.8 84.9 11.8 84.85 Q11.2 82.35 11.2 80.55 L11.05 78.85 Q10.9 77.35 10.9 77.15 L11.05 72.7 11.2 72.7 Q11.25 73.6 11.7 75.7 L12.15 77.9 Q12.35 75.65 12.85 72.4 13.1 70.95 13.45 69.25 L13.55 68.65 Q13.6 68.0 13.65 67.35 L13.6 60.95 Q13.6 60.05 13.5 58.35 L13.1 55.55 Q12.7 52.95 12.1 50.9 11.8 49.95 11.8 47.4 L11.95 45.45 11.85 44.5 11.75 41.3 11.6 38.55 12.4 41.95 Q13.6 46.7 14.05 49.05 L14.2 49.05 Q14.2 49.0 14.2 49.05 L14.2 48.75 Q14.25 48.3 14.0 45.6 L13.7 41.85 Q13.55 40.75 13.05 39.35 L12.25 34.65 Q11.55 30.85 11.25 28.95 L11.1 28.35 11.2 28.35 11.0 27.15 11.25 27.15 11.85 29.9 Q12.15 30.65 12.55 31.55 L14.0 34.6 Q14.5 37.15 14.6 37.8 L14.9 37.8 15.05 34.3 Q15.05 33.45 14.9 32.7 15.45 27.45 15.45 21.6 15.45 20.4 15.05 17.75 L15.25 16.65 Q15.65 14.8 15.65 13.7 15.65 13.2 15.4 12.7 15.1 12.15 15.15 11.2 15.15 10.65 15.5 7.3 15.9 3.9 15.9 3.05 L15.9 2.75 15.85 2.7 15.75 2.7 14.85 8.5 Q14.25 12.65 14.15 14.2 L13.95 14.9 Q13.65 16.05 13.6 16.4 13.6 16.6 13.75 17.65 13.9 18.7 13.9 18.95 13.9 19.95 13.8 21.75 L13.7 21.75 Q13.7 20.2 13.2 17.7 12.7 15.15 12.7 14.3 12.7 13.9 13.15 12.35 13.6 10.85 13.55 10.45 L13.5 8.75 13.4 7.9 Q13.25 6.6 12.4 1.6 L12.3 1.85 Q11.1 4.95 10.4 6.45 L10.25 6.45 Q10.5 5.35 11.05 1.95 11.55 -1.25 11.55 -1.45 11.55 -1.8 11.6 -2.15 M28.8 -5.15 L30.3 -5.35 30.9 -2.5 Q31.3 -0.35 31.5 3.2 31.75 7.7 31.9 9.05 L32.1 9.0 Q32.0 6.55 32.15 1.75 L32.3 -2.9 Q32.3 -3.5 32.1 -5.6 L33.7 -5.8 36.0 -6.1 36.05 -6.1 38.8 -6.45 38.8 -6.15 38.4 4.65 Q38.35 10.3 38.75 12.95 L38.85 13.45 39.05 15.0 Q39.15 16.4 39.15 18.6 39.15 19.8 38.8 24.15 L38.65 25.8 38.65 27.6 Q38.65 29.35 38.45 30.85 L38.1 33.55 Q37.55 37.4 37.5 43.15 37.5 45.3 37.55 47.45 38.2 55.75 38.4 59.6 L38.4 59.65 Q38.6 61.35 38.6 61.9 38.6 62.1 38.5 62.3 L38.5 62.5 Q38.5 62.65 38.6 63.6 L38.7 64.65 38.9 66.8 38.8 68.45 38.75 69.65 38.6 68.1 Q38.15 64.4 37.3 57.6 35.4 42.75 35.1 39.55 L35.0 39.55 Q34.9 41.55 34.75 45.1 L34.65 48.7 Q34.65 50.7 34.9 53.3 L34.65 59.4 34.45 66.2 Q34.45 66.45 35.25 70.3 L35.65 72.4 Q36.05 74.35 36.05 74.8 36.05 76.45 36.2 79.0 L36.5 83.35 Q36.65 85.1 36.75 88.45 L36.8 91.55 Q36.95 97.05 36.95 100.4 L36.8 105.05 36.75 107.9 36.8 108.55 36.85 108.6 Q37.8 101.45 38.2 91.55 L38.35 88.45 38.5 83.0 38.5 81.75 38.7 74.55 38.8 74.55 Q39.0 79.2 39.05 88.45 L39.05 89.25 39.0 100.15 38.9 111.85 Q38.9 112.9 38.5 116.25 L38.35 117.25 Q38.05 119.75 38.05 120.55 L38.1 123.0 Q38.15 124.7 38.1 125.75 38.0 127.0 37.75 127.75 L37.9 128.8 Q38.2 130.45 38.3 131.45 38.4 132.25 38.4 132.6 L38.4 132.7 Q38.35 133.55 38.15 135.4 37.95 137.35 37.9 138.35 L37.75 138.4 Q37.4 135.1 36.85 131.95 L36.95 130.95 Q36.95 128.8 36.45 125.4 36.05 122.35 35.55 120.65 35.55 119.95 35.65 119.2 L35.85 117.45 Q35.95 115.6 34.8 111.25 33.55 106.6 33.25 100.45 33.15 98.2 33.15 95.1 L33.25 89.7 33.25 88.45 Q33.3 82.6 32.85 79.15 L32.75 79.15 Q32.75 81.8 32.55 87.0 L32.5 88.45 32.4 91.95 Q32.35 98.5 33.05 104.85 33.2 106.05 33.55 108.8 33.75 110.5 33.75 111.0 33.7 115.95 33.85 118.9 L34.35 129.75 Q34.4 131.35 34.3 134.4 34.2 137.65 34.25 139.15 34.3 142.05 34.8 144.45 L34.75 145.35 Q33.65 139.55 33.55 137.45 33.45 136.0 33.45 133.65 L33.4 129.9 Q33.25 125.55 32.35 122.65 L32.2 122.65 32.2 123.5 Q32.35 124.45 32.65 129.55 32.9 134.4 32.9 135.45 L32.85 139.1 Q32.8 142.75 32.8 144.65 32.85 146.55 33.15 147.9 33.35 148.8 33.8 149.9 34.3 151.05 34.4 151.6 34.7 152.7 34.7 154.1 34.7 156.95 34.35 159.35 34.05 161.75 34.0 163.75 34.0 163.95 34.05 164.45 L34.1 165.1 34.25 165.05 Q34.4 163.5 35.25 157.85 L35.85 153.6 Q36.8 157.9 36.8 163.15 36.8 165.4 36.55 169.0 L36.2 174.9 Q36.1 176.6 36.1 179.35 L36.55 176.1 Q38.5 162.4 38.8 157.25 L38.9 157.25 Q39.05 157.85 39.15 158.45 39.25 159.15 39.25 159.5 39.25 159.85 38.45 167.9 37.6 177.05 37.6 182.55 L37.4 185.2 37.25 187.8 Q37.25 188.05 37.45 190.3 L37.5 191.2 34.85 190.95 33.2 190.8 Q33.35 189.3 33.45 187.25 33.55 184.4 33.6 181.05 33.6 180.85 33.75 179.95 33.85 179.1 33.85 178.85 33.9 173.75 34.2 171.25 33.55 172.65 33.35 175.25 33.25 176.75 33.05 180.0 32.7 183.45 32.1 185.45 31.85 186.25 31.75 186.75 31.65 187.6 31.6 189.1 31.6 189.95 31.65 190.65 L29.25 190.45 29.4 187.95 Q29.5 185.6 29.65 184.65 29.8 184.05 30.1 179.1 30.45 173.95 30.45 172.35 L30.45 171.05 Q30.4 167.75 30.15 164.9 29.6 159.0 29.45 156.35 L29.3 156.35 29.25 158.15 Q29.25 158.4 29.4 161.1 L29.55 164.0 Q29.55 165.8 29.15 170.55 L29.1 171.05 28.65 176.35 28.65 176.3 Q28.35 174.7 27.8 171.05 L27.75 170.65 Q27.15 166.9 27.15 166.65 27.15 165.9 27.45 161.6 L27.75 157.35 Q27.75 156.15 27.6 154.45 L27.35 150.9 27.15 148.0 26.7 144.3 Q25.55 134.2 25.55 132.4 25.6 129.0 25.5 127.5 L25.3 124.0 25.15 121.05 25.15 118.0 25.25 118.0 Q25.45 121.2 25.7 124.0 25.95 126.65 26.3 128.95 26.6 131.25 27.2 134.55 L27.25 133.75 Q28.3 140.5 28.9 143.0 L29.15 143.0 Q28.85 141.1 28.25 136.1 27.65 131.25 27.65 130.6 L28.2 128.15 Q28.6 125.95 28.7 124.0 L28.7 123.2 Q28.7 122.6 27.5 116.4 L26.45 111.25 Q26.45 108.65 26.55 106.65 L26.45 105.1 Q26.3 103.75 25.8 102.6 24.85 100.55 24.55 97.75 24.3 94.65 24.0 93.05 L24.05 82.85 24.25 80.55 24.35 78.85 24.3 72.4 24.15 61.15 24.2 58.1 Q24.3 55.05 24.3 53.55 L24.45 53.55 Q24.65 58.45 24.95 68.25 25.0 70.4 25.1 72.4 25.35 78.45 25.75 83.0 L25.7 92.65 Q26.1 95.35 26.7 98.1 L27.05 99.75 27.1 98.5 Q27.1 97.95 27.9 92.65 L27.95 92.35 Q28.8 97.15 28.75 100.05 L28.9 100.05 29.0 98.45 29.05 97.2 Q29.05 96.25 28.85 94.2 28.65 92.15 28.65 91.1 28.65 90.0 28.9 88.8 L28.95 88.45 Q29.15 87.45 29.15 86.85 29.15 86.3 28.9 84.95 L28.3 81.85 Q27.95 79.85 27.8 77.75 L27.85 77.45 Q27.9 77.05 27.95 76.4 L27.55 74.6 Q27.5 73.5 27.5 72.4 L27.5 70.85 Q27.6 69.85 27.7 68.6 L28.0 65.3 Q28.0 64.75 27.95 64.25 L27.8 64.25 27.25 67.2 27.15 67.2 Q27.05 68.25 26.75 68.95 L26.65 69.25 Q26.45 67.85 26.45 67.1 26.45 65.95 28.2 59.55 29.65 54.1 29.9 52.45 30.65 49.4 30.65 47.75 30.65 47.5 30.8 46.35 L30.9 45.75 30.95 45.7 Q31.3 42.95 31.3 42.5 L31.4 41.1 31.55 39.95 Q31.55 38.85 30.6 27.05 L30.8 27.9 Q31.3 30.25 32.25 34.65 33.0 38.25 33.25 39.85 L33.35 39.85 Q33.4 40.0 33.4 39.55 33.4 37.2 32.55 32.45 31.65 27.75 31.7 26.0 31.7 23.3 30.65 18.1 L30.6 17.9 30.65 17.1 Q30.65 16.9 30.35 15.3 30.25 14.1 30.25 13.65 30.25 11.2 29.8 6.45 29.2 1.4 29.05 -0.25 28.9 -1.6 28.8 -5.15 M40.3 -6.65 L40.9 -6.75 43.4 -6.75 43.05 -5.15 Q42.45 -2.75 42.55 0.9 42.75 7.2 42.15 11.8 41.3 18.4 41.15 22.75 41.05 24.95 41.15 29.3 L41.2 33.55 41.1 35.4 Q40.95 37.15 40.95 37.95 L40.8 38.0 Q40.8 37.5 40.85 36.6 L40.9 35.5 40.8 20.0 Q40.8 18.05 40.3 14.4 39.85 10.75 39.85 10.5 L39.95 7.75 Q40.0 5.05 40.05 3.7 40.15 2.35 40.05 -0.25 L40.0 -2.9 Q40.0 -3.3 40.1 -4.75 L40.3 -6.65 M44.35 -6.75 L46.65 -6.75 Q46.55 -6.1 46.35 -5.35 L45.85 -3.8 Q46.65 1.4 46.65 1.7 L46.6 7.35 Q46.55 10.4 46.5 13.7 46.5 14.8 45.9 16.75 45.2 18.95 45.1 19.85 L45.05 28.05 Q44.7 30.5 44.6 32.4 44.45 34.15 44.45 36.35 44.45 37.2 44.65 38.3 44.9 39.4 44.9 39.65 44.9 40.75 44.4 42.4 43.85 44.2 43.75 45.6 L43.65 48.5 Q43.6 50.25 43.5 51.4 43.15 53.95 43.0 57.2 42.9 59.15 42.75 63.0 L42.6 63.05 Q42.6 60.55 42.45 51.55 L42.25 42.25 Q42.25 41.2 42.85 38.7 43.4 36.25 43.35 34.85 43.35 33.55 43.55 31.25 L43.85 27.65 43.9 19.8 Q43.95 19.0 44.7 17.05 45.4 15.15 45.4 14.3 45.4 14.05 45.05 12.6 44.65 11.15 44.65 10.95 44.65 10.3 44.7 9.1 L44.8 7.7 Q44.8 3.8 44.25 0.3 L43.85 -2.0 Q43.7 -3.1 43.7 -3.75 43.7 -4.9 44.2 -6.3 L44.35 -6.75 M43.35 191.7 L39.75 191.4 Q39.65 189.85 39.55 188.1 L39.55 186.1 Q39.55 185.35 39.85 183.5 40.2 181.7 40.2 181.45 40.2 181.25 39.75 180.25 39.35 179.3 39.35 178.7 39.35 177.4 40.1 172.25 40.85 167.0 40.9 165.95 L41.1 158.2 41.2 153.2 Q40.8 143.9 40.85 142.3 40.85 138.8 41.4 132.7 L41.6 130.5 Q42.55 121.0 42.65 118.75 L42.8 118.75 42.9 122.8 42.2 130.9 42.1 132.7 Q41.5 140.6 41.5 145.55 L42.0 158.9 Q42.45 173.1 42.45 178.0 42.45 178.1 42.95 179.25 43.4 180.35 43.4 181.3 43.4 182.6 43.1 183.8 42.75 185.0 42.75 185.9 42.75 187.45 43.3 191.35 L43.35 191.7 M27.35 190.25 L26.15 190.1 26.05 190.1 25.55 190.05 25.55 189.8 Q25.8 187.0 25.8 186.2 L25.7 182.75 Q25.6 179.4 25.5 177.5 L25.5 175.85 25.65 175.85 Q25.85 178.05 26.9 186.05 L27.45 190.25 27.35 190.25 M12.7 187.65 Q11.65 187.2 10.95 186.7 L10.8 185.25 Q10.8 184.85 11.35 184.15 11.85 183.45 11.85 183.25 L11.6 180.65 Q11.4 178.05 11.4 177.35 L11.5 177.35 Q11.75 178.6 12.55 181.75 13.3 184.5 13.3 184.8 13.3 185.25 12.75 187.3 L12.7 187.65 M9.2 79.25 Q9.75 82.65 10.15 86.4 L10.35 88.45 10.55 91.15 Q10.7 93.05 10.65 94.6 L10.6 95.35 10.5 96.15 10.45 96.25 10.4 96.4 Q9.9 93.3 9.65 91.15 L9.4 89.05 9.4 86.1 9.25 82.85 9.3 81.3 Q9.3 81.05 9.2 80.4 L9.2 79.25 M35.65 -4.1 L35.55 -4.1 35.3 0.25 Q35.05 4.45 35.05 5.75 35.05 6.0 35.2 9.55 L35.4 13.3 Q35.4 13.55 35.25 14.25 35.05 14.95 35.05 15.15 35.05 15.85 35.5 20.35 35.75 23.5 35.95 25.2 L35.9 25.45 35.85 25.75 35.85 25.65 36.45 33.15 36.5 32.8 36.7 31.35 Q36.7 30.95 36.15 26.3 L36.2 26.3 36.2 25.2 Q35.95 22.1 36.25 19.75 L36.45 17.75 Q36.6 16.5 36.6 15.15 36.6 13.45 36.3 10.5 L35.75 5.55 Q35.6 3.7 35.65 0.75 L35.65 -4.1 M26.6 4.35 Q26.9 9.6 28.75 23.05 L28.65 24.15 28.5 25.95 Q28.5 26.7 28.75 28.05 L29.3 30.7 Q30.15 34.6 30.15 37.1 30.15 39.95 30.2 40.9 30.2 41.45 30.4 43.75 30.3 44.45 30.2 45.35 29.85 48.85 29.5 50.25 L29.35 50.9 29.1 51.15 Q29.4 48.8 29.4 47.9 L29.15 41.95 Q28.9 37.6 28.9 35.7 L28.65 34.55 27.85 31.3 Q27.5 30.0 27.4 28.65 L27.4 28.5 27.1 34.4 Q26.65 44.6 26.6 48.05 L26.5 48.1 Q26.35 43.7 26.0 39.5 25.8 37.05 25.85 33.4 25.85 29.35 26.35 25.3 26.85 21.25 26.85 18.8 26.85 18.55 26.9 18.35 L26.9 18.15 27.0 18.15 Q26.8 14.2 26.8 12.1 L26.7 9.55 26.45 5.75 26.5 4.35 26.6 4.35 M33.0 13.75 L32.85 13.75 Q33.0 15.55 32.7 16.95 L32.7 20.65 33.0 20.65 33.25 18.3 33.35 16.6 Q33.35 16.1 33.25 15.35 33.2 14.4 33.0 13.75 M11.95 9.65 Q11.95 9.9 11.65 10.6 L11.35 11.3 11.15 10.9 Q11.05 10.7 11.05 10.35 11.05 10.2 11.3 9.45 11.55 8.75 11.65 8.6 L11.8 9.05 Q11.95 9.35 11.95 9.65 M13.85 27.05 L13.85 27.35 Q13.85 27.6 13.75 28.0 13.65 28.35 13.65 28.55 L13.65 28.65 13.6 28.8 13.5 28.7 Q13.5 28.65 13.5 28.35 13.5 28.1 13.6 27.6 L13.7 27.0 13.8 27.0 13.85 27.05 M15.15 52.6 L15.0 52.6 15.1 55.8 15.15 59.0 15.25 59.0 Q15.4 57.85 15.4 55.8 15.4 53.6 15.15 52.6 M19.9 51.95 L19.75 53.1 Q19.6 54.05 19.6 54.5 L19.3 54.5 19.1 53.1 Q19.0 52.2 19.0 51.95 19.0 50.6 19.45 50.25 19.8 50.65 19.9 51.95 M32.5 56.45 Q32.5 56.25 32.35 55.05 32.2 53.8 32.15 53.2 L32.05 53.2 Q32.1 53.9 31.8 55.5 31.5 57.3 31.5 58.1 31.5 58.7 31.75 60.9 32.0 63.05 32.0 64.1 32.0 64.4 31.65 65.1 31.25 65.8 31.25 66.1 31.25 66.45 31.7 68.0 32.2 69.65 32.35 71.5 L32.55 71.5 Q32.35 70.6 32.25 69.35 32.15 68.2 32.15 67.25 32.15 67.15 32.5 66.8 32.85 66.4 32.85 66.1 32.85 65.85 32.5 65.15 32.15 64.45 32.15 64.1 L32.35 60.25 32.5 56.45 M40.7 46.75 Q40.65 47.7 40.25 52.45 L39.85 57.3 39.75 57.3 Q39.75 56.65 39.4 55.25 39.1 53.85 39.1 53.25 39.1 51.8 39.55 48.9 40.05 45.55 40.1 44.6 L40.1 42.7 40.25 42.7 Q40.4 44.25 40.6 45.15 40.7 45.55 40.7 46.75 M42.2 67.35 Q42.25 67.95 42.7 72.4 L43.05 75.95 Q43.55 80.85 43.75 83.5 44.1 85.85 44.35 88.45 L44.55 90.3 Q44.85 94.4 45.15 100.75 L45.0 100.8 43.5 92.4 43.1 90.2 Q42.45 93.95 42.45 94.3 42.45 94.65 42.95 97.85 43.4 101.0 43.4 103.7 43.4 105.8 43.05 107.25 42.7 108.75 42.7 110.05 42.7 110.3 42.85 111.7 L43.0 113.3 42.9 114.3 Q42.85 115.1 42.85 115.45 L42.75 115.55 42.55 113.05 Q42.45 111.4 42.45 111.15 42.45 109.15 42.2 108.3 42.05 107.75 41.7 107.35 41.3 106.95 41.15 106.45 40.9 105.65 40.9 103.7 40.95 101.0 41.6 94.1 L42.1 88.45 42.2 87.1 Q42.2 86.9 42.0 86.15 41.8 85.4 41.8 84.9 L41.75 82.9 Q41.75 82.25 42.0 79.25 L42.25 76.35 Q42.25 76.1 42.1 74.85 41.9 73.55 41.9 73.3 L41.95 72.4 42.0 70.9 Q42.1 68.5 42.1 67.35 L42.2 67.35 M29.55 75.35 L29.3 75.35 29.1 76.5 Q28.95 77.2 28.95 77.45 28.95 77.9 29.1 78.6 29.2 79.4 29.4 79.95 29.7 79.6 29.8 78.75 29.9 78.1 29.9 77.4 29.9 77.1 29.75 76.45 L29.55 75.35 M11.95 59.85 L11.85 61.5 Q11.75 63.05 11.75 63.85 L11.65 63.95 Q11.25 59.0 11.25 58.05 11.25 57.4 11.45 56.7 L11.55 56.7 11.85 58.45 Q11.95 59.5 11.95 59.85 M13.45 82.6 L13.75 79.35 13.75 77.65 13.65 78.9 13.45 82.6 M19.35 83.85 Q18.75 82.3 18.75 82.0 18.75 81.65 18.9 81.45 19.05 81.2 19.15 81.2 19.4 81.45 19.55 82.3 19.65 83.2 19.75 83.4 L19.6 83.65 Q19.5 83.8 19.35 83.85 M19.8 89.3 L19.95 89.3 Q20.3 90.2 20.4 91.75 20.55 93.6 20.7 94.25 L20.65 94.7 Q20.55 94.7 20.5 94.75 L20.35 94.9 Q20.05 94.55 19.7 92.85 19.45 91.45 19.45 91.1 19.45 90.5 19.8 89.3 M16.75 104.0 Q16.65 103.7 16.5 103.5 L16.4 103.35 Q16.2 103.15 16.05 103.35 15.85 103.6 15.85 104.25 15.85 104.8 16.05 105.35 16.25 105.85 16.5 105.95 L16.65 105.95 16.8 105.55 Q16.9 105.25 16.9 105.0 16.9 104.5 16.75 104.0 M28.55 105.15 L28.4 105.15 Q28.4 106.1 28.05 108.7 27.7 111.3 27.7 112.4 27.7 113.05 28.1 113.95 28.6 115.0 28.7 116.1 L28.85 116.05 Q28.85 115.75 28.9 115.15 L29.0 114.35 Q29.05 113.2 28.8 109.45 L28.55 105.15 M31.75 106.4 L31.65 106.4 31.65 107.25 31.6 108.0 Q31.6 108.85 31.8 110.4 L32.1 112.75 32.2 112.75 32.45 111.6 Q32.6 110.9 32.6 110.65 32.6 109.9 32.25 108.65 31.85 107.05 31.75 106.4 M24.55 140.5 Q24.65 141.9 25.45 146.35 26.2 150.55 26.2 150.8 26.2 151.35 26.15 151.5 26.1 151.8 25.7 152.2 24.55 149.25 24.4 148.5 24.35 148.0 24.35 147.25 L24.35 145.35 24.4 143.3 Q24.5 141.45 24.4 140.5 L24.55 140.5 M11.75 122.15 Q11.65 122.25 11.4 122.25 10.9 122.25 10.65 120.95 L10.55 119.6 Q10.55 118.75 10.6 118.3 10.7 117.55 10.95 117.3 11.65 117.95 11.75 119.3 L11.8 120.45 Q11.8 121.15 11.9 121.55 L11.8 122.05 11.75 122.15 M11.25 128.15 Q11.25 128.75 11.4 129.8 L11.6 131.5 Q11.25 131.2 11.1 130.35 11.05 129.9 11.05 129.45 L11.1 128.75 11.1 128.15 11.25 128.15 M15.55 130.2 L15.45 130.2 Q15.3 130.95 15.15 132.25 15.1 133.25 15.1 133.75 15.1 134.4 15.35 135.7 15.6 137.05 15.6 137.85 L15.75 137.8 Q15.75 137.05 15.85 135.4 L15.95 133.7 Q15.95 133.2 15.85 132.2 15.75 130.9 15.55 130.2 M16.55 162.1 L16.55 162.15 Q16.5 162.2 16.5 162.5 16.5 162.8 16.9 163.55 17.25 164.3 17.45 164.4 L17.5 164.3 Q17.15 163.8 16.7 162.1 L16.55 162.1 M11.7 163.7 Q11.55 163.15 11.55 162.95 11.55 162.15 11.7 162.0 11.8 162.15 12.3 163.65 12.3 164.0 12.25 164.15 L12.05 164.55 Q11.9 164.3 11.7 163.7 M38.35 143.05 Q38.65 144.15 38.9 145.65 39.1 147.3 39.1 148.65 L39.05 150.55 Q38.95 152.3 38.8 153.25 L38.65 153.3 Q38.35 151.3 37.95 147.8 37.55 144.0 37.55 143.5 37.55 142.0 37.8 142.0 38.0 141.95 38.35 143.05 M24.5 151.75 Q24.6 152.55 24.9 154.3 25.15 155.9 25.1 157.0 L24.95 160.05 24.85 160.15 Q24.75 158.6 24.6 155.95 L24.35 151.75 24.5 151.75 M31.7 149.9 L31.6 149.9 31.5 150.55 Q31.4 151.05 31.4 151.3 31.4 152.2 31.3 154.3 31.35 156.1 31.8 156.9 31.9 156.85 32.0 156.75 L32.1 156.65 32.1 152.1 31.85 151.0 Q31.75 150.35 31.7 149.9 M17.0 179.35 Q16.45 179.0 16.3 178.45 L16.2 178.45 Q16.2 178.65 16.05 179.1 15.85 179.55 15.85 179.75 L16.3 181.15 Q16.8 182.85 17.05 184.45 L17.15 184.35 17.15 183.55 16.9 183.1 Q16.85 182.85 16.85 182.55 16.85 182.2 17.1 181.25 17.4 180.25 17.4 180.15 17.4 179.65 17.0 179.35" fill="#25818b" fill-rule="evenodd" stroke="none"/>
    <path d="M30.3 -5.35 L30.55 -5.4 31.2 -5.45 32.1 -5.6 Q32.3 -3.5 32.3 -2.9 L32.15 1.75 Q32.0 6.55 32.1 9.0 L31.9 9.05 Q31.75 7.7 31.5 3.2 31.3 -0.35 30.9 -2.5 L30.3 -5.35" fill="#1e6982" fill-rule="evenodd" stroke="none"/>
    <path d="M19.55 -3.85 L20.25 -3.95 20.55 -4.0 22.95 -4.35 23.05 -4.35 26.95 -4.9 28.8 -5.15 Q28.9 -1.6 29.05 -0.25 29.2 1.4 29.8 6.45 30.25 11.2 30.25 13.65 30.25 14.1 30.35 15.3 30.65 16.9 30.65 17.1 L30.6 17.9 30.65 18.1 Q31.7 23.3 31.7 26.0 31.65 27.75 32.55 32.45 33.4 37.2 33.4 39.55 33.4 40.0 33.35 39.85 L33.25 39.85 Q33.0 38.25 32.25 34.65 31.3 30.25 30.8 27.9 L30.6 27.05 Q31.55 38.85 31.55 39.95 L31.4 41.1 31.3 42.5 Q31.3 42.95 30.95 45.7 L30.9 45.75 30.8 46.35 Q30.65 47.5 30.65 47.75 30.65 49.4 29.9 52.45 29.65 54.1 28.2 59.55 26.45 65.95 26.45 67.1 26.45 67.85 26.65 69.25 L26.75 68.95 Q27.05 68.25 27.15 67.2 L27.25 67.2 27.8 64.25 27.95 64.25 Q28.0 64.75 28.0 65.3 L27.7 68.6 Q27.6 69.85 27.5 70.85 L27.5 72.4 Q27.5 73.5 27.55 74.6 L27.95 76.4 Q27.9 77.05 27.85 77.45 L27.8 77.75 Q27.95 79.85 28.3 81.85 L28.9 84.95 Q29.15 86.3 29.15 86.85 29.15 87.45 28.95 88.45 L28.9 88.8 Q28.65 90.0 28.65 91.1 28.65 92.15 28.85 94.2 29.05 96.25 29.05 97.2 L29.0 98.45 28.9 100.05 28.75 100.05 Q28.8 97.15 27.95 92.35 L27.9 92.65 Q27.1 97.95 27.1 98.5 L27.05 99.75 26.7 98.1 Q26.1 95.35 25.7 92.65 L25.75 83.0 Q25.35 78.45 25.1 72.4 25.0 70.4 24.95 68.25 24.65 58.45 24.45 53.55 L24.3 53.55 Q24.3 55.05 24.2 58.1 L24.15 61.15 24.3 72.4 24.35 78.85 24.25 80.55 24.05 82.85 24.0 93.05 Q24.3 94.65 24.55 97.75 24.85 100.55 25.8 102.6 26.3 103.75 26.45 105.1 L26.55 106.65 Q26.45 108.65 26.45 111.25 L27.5 116.4 Q28.7 122.6 28.7 123.2 L28.7 124.0 Q28.6 125.95 28.2 128.15 L27.65 130.6 Q27.65 131.25 28.25 136.1 28.85 141.1 29.15 143.0 L28.9 143.0 Q28.3 140.5 27.25 133.75 L27.2 134.55 Q26.6 131.25 26.3 128.95 25.95 126.65 25.7 124.0 25.45 121.2 25.25 118.0 L25.15 118.0 25.15 121.05 25.3 124.0 25.5 127.5 Q25.6 129.0 25.55 132.4 25.55 134.2 26.7 144.3 L27.15 148.0 27.35 150.9 27.6 154.45 Q27.75 156.15 27.75 157.35 L27.45 161.6 Q27.15 165.9 27.15 166.65 27.15 166.9 27.75 170.65 L27.8 171.05 Q28.35 174.7 28.65 176.3 L28.65 176.35 29.1 171.05 29.15 170.55 Q29.55 165.8 29.55 164.0 L29.4 161.1 Q29.25 158.4 29.25 158.15 L29.3 156.35 29.45 156.35 Q29.6 159.0 30.15 164.9 30.4 167.75 30.45 171.05 L30.45 172.35 Q30.45 173.95 30.1 179.1 29.8 184.05 29.65 184.65 29.5 185.6 29.4 187.95 L29.25 190.45 27.35 190.25 27.45 190.25 26.9 186.05 Q25.85 178.05 25.65 175.85 L25.5 175.85 25.5 177.5 Q25.6 179.4 25.7 182.75 L25.8 186.2 Q25.8 187.0 25.55 189.8 L25.55 190.05 24.8 189.95 23.4 189.8 23.4 189.75 Q23.4 189.2 23.55 188.15 L23.7 186.95 Q23.7 186.75 23.45 185.45 23.25 184.25 23.15 183.95 L22.75 184.35 22.45 184.55 Q22.2 182.8 21.85 180.9 L21.3 178.0 Q20.7 174.85 20.7 172.05 20.7 171.85 20.8 171.05 L20.95 169.5 21.2 167.3 Q21.2 166.6 21.05 166.25 L20.8 166.3 20.75 166.3 Q20.55 167.85 20.25 171.05 L20.2 171.65 Q19.85 175.15 19.65 177.0 L19.65 175.5 Q19.65 175.05 19.25 172.95 19.0 171.7 18.95 171.05 18.85 170.6 18.85 170.4 L18.85 167.3 19.0 166.7 Q19.85 163.9 19.85 163.6 19.85 163.4 19.65 162.95 19.45 162.5 19.45 162.25 19.45 161.35 19.95 160.3 20.45 159.2 20.45 158.5 L20.2 156.45 Q19.95 154.45 19.95 153.7 19.9 152.7 19.8 150.8 L19.7 148.8 Q19.7 148.25 19.9 146.1 L20.15 144.0 Q20.15 143.7 20.05 143.6 L19.85 143.45 19.75 143.5 Q19.75 145.05 19.4 148.6 18.95 152.3 18.95 153.95 18.95 156.85 18.45 160.25 18.3 158.4 18.0 156.05 17.5 152.45 17.35 150.7 17.05 147.45 17.1 143.6 17.1 142.65 17.5 139.1 L18.1 133.8 Q17.95 129.75 17.95 128.2 17.95 127.05 17.75 126.0 17.5 124.9 17.5 124.35 L17.5 124.0 17.7 119.95 Q17.85 116.45 17.8 116.05 L17.8 114.9 17.9 114.9 Q18.0 115.95 18.05 117.9 18.1 120.0 18.2 120.85 18.3 122.3 18.8 124.0 L18.85 124.05 Q19.3 125.55 19.3 126.75 19.3 127.8 19.05 132.15 L19.05 131.85 19.35 134.3 Q19.75 137.15 20.15 140.6 L20.2 140.5 20.2 139.7 Q19.75 135.95 19.75 134.85 19.85 133.4 19.85 131.25 19.9 128.5 20.3 125.15 L20.45 124.0 Q20.65 122.2 20.65 121.85 20.7 120.1 19.95 112.25 L19.75 109.9 19.75 109.25 Q19.75 106.9 19.7 105.3 19.55 100.55 18.75 99.5 L18.5 99.5 18.5 98.2 17.7 88.45 17.65 88.15 Q17.1 81.4 16.95 78.0 17.0 76.95 17.2 75.55 L17.5 73.9 17.8 72.4 Q18.15 70.3 18.2 69.0 18.2 68.8 18.35 66.75 L18.5 64.45 18.5 63.15 18.8 61.3 Q17.95 63.45 17.5 67.3 L17.2 70.4 16.95 72.4 16.85 73.1 16.85 72.4 Q16.85 66.85 16.7 63.4 16.6 61.15 16.55 58.8 17.0 56.55 17.2 55.0 17.55 52.75 17.65 50.3 L18.0 49.05 Q18.4 47.65 18.45 46.0 L18.3 44.55 Q18.2 43.3 18.25 42.7 18.25 42.05 18.45 40.8 L18.65 39.35 Q18.65 38.05 18.55 37.15 L18.45 37.15 Q18.45 37.95 17.4 43.75 L17.25 43.45 Q17.0 43.0 16.9 42.5 16.75 41.7 16.75 40.15 16.75 38.2 16.95 36.65 17.05 35.9 17.4 34.15 18.0 31.0 17.95 26.9 17.95 23.1 18.65 19.5 L18.75 17.5 18.95 12.15 Q18.95 9.65 18.8 6.0 18.65 2.7 18.5 0.1 L18.6 0.1 Q19.5 3.9 20.3 17.95 20.25 20.85 20.0 22.8 L19.9 23.5 Q20.2 26.2 20.35 29.15 L20.4 29.05 Q20.35 27.6 20.45 24.8 L20.55 21.95 Q20.55 21.7 20.65 20.05 L20.8 18.15 Q20.8 15.8 20.55 13.9 20.3 12.0 20.3 11.15 20.3 10.95 20.5 8.75 L20.75 6.3 Q20.75 4.95 20.2 1.4 19.65 -2.3 19.6 -3.25 L19.55 -3.85 M20.65 189.45 L19.4 189.25 19.2 189.2 19.05 189.2 19.2 187.45 Q19.65 182.7 19.7 181.05 L19.85 181.05 Q19.9 182.55 20.5 187.25 L20.75 189.45 20.65 189.45 M26.6 4.35 L26.5 4.35 26.45 5.75 26.7 9.55 26.8 12.1 Q26.8 14.2 27.0 18.15 L26.9 18.15 26.9 18.35 Q26.85 18.55 26.85 18.8 26.85 21.25 26.35 25.3 25.85 29.35 25.85 33.4 25.8 37.05 26.0 39.5 26.35 43.7 26.5 48.1 L26.6 48.05 Q26.65 44.6 27.1 34.4 L27.4 28.5 27.4 28.65 Q27.5 30.0 27.85 31.3 L28.65 34.55 28.9 35.7 Q28.9 37.6 29.15 41.95 L29.4 47.9 Q29.4 48.8 29.1 51.15 L29.35 50.9 29.5 50.25 Q29.85 48.85 30.2 45.35 30.3 44.45 30.4 43.75 30.2 41.45 30.2 40.9 30.15 39.95 30.15 37.1 30.15 34.6 29.3 30.7 L28.75 28.05 Q28.5 26.7 28.5 25.95 L28.65 24.15 28.75 23.05 Q26.9 9.6 26.6 4.35 M19.9 51.95 Q19.8 50.65 19.45 50.25 19.0 50.6 19.0 51.95 19.0 52.2 19.1 53.1 L19.3 54.5 19.6 54.5 Q19.6 54.05 19.75 53.1 L19.9 51.95 M29.55 75.35 L29.75 76.45 Q29.9 77.1 29.9 77.4 29.9 78.1 29.8 78.75 29.7 79.6 29.4 79.95 29.2 79.4 29.1 78.6 28.95 77.9 28.95 77.45 28.95 77.2 29.1 76.5 L29.3 75.35 29.55 75.35 M19.8 89.3 Q19.45 90.5 19.45 91.1 19.45 91.45 19.7 92.85 20.05 94.55 20.35 94.9 L20.5 94.75 Q20.55 94.7 20.65 94.7 L20.7 94.25 Q20.55 93.6 20.4 91.75 20.3 90.2 19.95 89.3 L19.8 89.3 M19.35 83.85 Q19.5 83.8 19.6 83.65 L19.75 83.4 Q19.65 83.2 19.55 82.3 19.4 81.45 19.15 81.2 19.05 81.2 18.9 81.45 18.75 81.65 18.75 82.0 18.75 82.3 19.35 83.85 M28.55 105.15 L28.8 109.45 Q29.05 113.2 29.0 114.35 L28.9 115.15 Q28.85 115.75 28.85 116.05 L28.7 116.1 Q28.6 115.0 28.1 113.95 27.7 113.05 27.7 112.4 27.7 111.3 28.05 108.7 28.4 106.1 28.4 105.15 L28.55 105.15 M24.55 140.5 L24.4 140.5 Q24.5 141.45 24.4 143.3 L24.35 145.35 24.35 147.25 Q24.35 148.0 24.4 148.5 24.55 149.25 25.7 152.2 26.1 151.8 26.15 151.5 26.2 151.35 26.2 150.8 26.2 150.55 25.45 146.35 24.65 141.9 24.55 140.5 M15.55 130.2 Q15.75 130.9 15.85 132.2 15.95 133.2 15.95 133.7 L15.85 135.4 Q15.75 137.05 15.75 137.8 L15.6 137.85 Q15.6 137.05 15.35 135.7 15.1 134.4 15.1 133.75 15.1 133.25 15.15 132.25 15.3 130.95 15.45 130.2 L15.55 130.2 M24.5 151.75 L24.35 151.75 24.6 155.95 Q24.75 158.6 24.85 160.15 L24.95 160.05 25.1 157.0 Q25.15 155.9 24.9 154.3 24.6 152.55 24.5 151.75" fill="#20708a" fill-rule="evenodd" stroke="none"/>
    <path d="M38.8 -6.45 L38.95 -6.5 40.3 -6.65 40.1 -4.75 Q40.0 -3.3 40.0 -2.9 L40.05 -0.25 Q40.15 2.35 40.05 3.7 40.0 5.05 39.95 7.75 L39.85 10.5 Q39.85 10.75 40.3 14.4 40.8 18.05 40.8 20.0 L40.9 35.5 40.85 36.6 Q40.8 37.5 40.8 38.0 L40.95 37.95 Q40.95 37.15 41.1 35.4 L41.2 33.55 41.15 29.3 Q41.05 24.95 41.15 22.75 41.3 18.4 42.15 11.8 42.75 7.2 42.55 0.9 42.45 -2.75 43.05 -5.15 L43.4 -6.75 44.35 -6.75 44.2 -6.3 Q43.7 -4.9 43.7 -3.75 43.7 -3.1 43.85 -2.0 L44.25 0.3 Q44.8 3.8 44.8 7.7 L44.7 9.1 Q44.65 10.3 44.65 10.95 44.65 11.15 45.05 12.6 45.4 14.05 45.4 14.3 45.4 15.15 44.7 17.05 43.95 19.0 43.9 19.8 L43.85 27.65 43.55 31.25 Q43.35 33.55 43.35 34.85 43.4 36.25 42.85 38.7 42.25 41.2 42.25 42.25 L42.45 51.55 Q42.6 60.55 42.6 63.05 L42.75 63.0 Q42.9 59.15 43.0 57.2 43.15 53.95 43.5 51.4 43.6 50.25 43.65 48.5 L43.75 45.6 Q43.85 44.2 44.4 42.4 44.9 40.75 44.9 39.65 44.9 39.4 44.65 38.3 44.45 37.2 44.45 36.35 44.45 34.15 44.6 32.4 44.7 30.5 45.05 28.05 L45.1 19.85 Q45.2 18.95 45.9 16.75 46.5 14.8 46.5 13.7 46.55 10.4 46.6 7.35 L46.65 1.7 Q46.65 1.4 45.85 -3.8 L46.35 -5.35 Q46.55 -6.1 46.65 -6.75 L48.3 -6.8 48.75 -6.8 50.25 -7.0 51.95 -7.0 51.7 -5.75 51.1 -2.9 51.1 4.85 Q51.1 5.25 51.2 6.35 L51.3 7.6 50.85 10.6 Q50.45 13.5 50.4 15.45 L50.6 21.35 50.75 27.25 Q50.75 29.0 50.6 30.95 51.1 27.65 51.35 26.0 51.8 23.55 52.15 19.45 52.7 14.0 52.8 13.0 L52.95 13.0 Q52.75 14.65 52.45 19.85 52.2 24.25 51.8 26.95 51.6 28.4 51.55 30.45 L51.45 33.95 Q51.35 36.45 50.9 38.45 50.85 41.95 50.65 47.25 L50.6 49.45 Q50.9 52.55 50.9 53.0 50.85 53.55 51.2 54.9 51.55 56.3 51.55 57.15 51.55 58.9 51.2 60.55 50.9 62.15 50.9 62.6 50.9 63.6 51.25 67.6 51.5 70.7 51.75 72.4 51.9 73.35 52.05 73.85 L51.85 73.9 51.6 72.4 Q51.2 69.85 50.45 64.25 49.8 59.35 49.55 56.95 48.6 60.5 48.2 62.55 L48.25 64.7 48.25 66.2 48.65 72.4 48.85 75.75 Q49.35 84.2 49.55 88.45 L49.6 91.3 50.15 98.55 Q50.15 99.95 49.8 104.55 L49.45 109.4 49.3 109.45 Q49.25 107.9 49.25 104.95 L49.25 101.95 Q49.25 100.25 48.65 94.95 48.05 89.4 48.05 89.0 L48.05 88.8 48.0 88.45 47.4 83.8 46.95 80.05 Q46.7 83.95 46.7 86.55 L46.85 88.45 48.05 106.5 48.35 110.55 Q49.1 112.6 49.4 115.55 49.6 117.25 49.75 120.75 50.0 124.05 50.0 130.85 L49.95 132.7 49.55 139.35 Q49.1 147.0 48.8 148.65 48.75 148.65 48.6 148.75 L48.4 148.9 Q47.95 143.0 47.9 134.45 L47.9 133.25 Q47.75 133.1 47.65 132.95 L47.5 133.75 Q45.85 141.4 45.3 145.3 44.45 147.6 44.1 153.4 43.85 156.85 43.85 160.35 L43.9 161.6 44.05 163.1 44.25 163.05 44.85 157.7 Q44.8 156.65 44.8 156.15 44.8 155.3 45.65 150.05 L46.55 144.2 46.7 144.2 46.75 144.45 Q46.9 143.15 46.9 142.35 L47.0 142.35 Q47.1 144.4 47.15 148.15 L47.2 151.9 Q47.2 152.8 47.55 155.6 47.85 157.8 47.9 159.0 L48.95 163.0 Q49.3 164.5 49.55 170.85 49.7 175.65 49.7 177.9 L49.6 179.3 49.45 179.3 Q48.95 177.6 48.8 175.55 48.65 174.1 48.7 171.8 L48.7 168.05 Q48.7 165.95 48.4 164.35 48.2 163.2 47.75 162.25 L47.7 162.1 47.65 170.05 Q47.85 170.6 47.8 171.85 47.8 172.5 47.7 173.2 L47.4 174.5 Q47.0 176.35 46.95 178.85 L47.05 181.3 Q47.15 183.75 47.2 184.95 47.2 186.1 47.35 188.55 L47.4 189.0 Q47.8 190.15 47.8 192.0 L46.6 192.0 43.95 191.75 43.35 191.7 43.3 191.35 Q42.75 187.45 42.75 185.9 42.75 185.0 43.1 183.8 43.4 182.6 43.4 181.3 43.4 180.35 42.95 179.25 42.45 178.1 42.45 178.0 42.45 173.1 42.0 158.9 L41.5 145.55 Q41.5 140.6 42.1 132.7 L42.2 130.9 42.9 122.8 42.8 118.75 42.65 118.75 Q42.55 121.0 41.6 130.5 L41.4 132.7 Q40.85 138.8 40.85 142.3 40.8 143.9 41.2 153.2 L41.1 158.2 40.9 165.95 Q40.85 167.0 40.1 172.25 39.35 177.4 39.35 178.7 39.35 179.3 39.75 180.25 40.2 181.25 40.2 181.45 40.2 181.7 39.85 183.5 39.55 185.35 39.55 186.1 L39.55 188.1 Q39.65 189.85 39.75 191.4 L37.5 191.2 37.45 190.3 Q37.25 188.05 37.25 187.8 L37.4 185.2 37.6 182.55 Q37.6 177.05 38.45 167.9 39.25 159.85 39.25 159.5 39.25 159.15 39.15 158.45 39.05 157.85 38.9 157.25 L38.8 157.25 Q38.5 162.4 36.55 176.1 L36.1 179.35 Q36.1 176.6 36.2 174.9 L36.55 169.0 Q36.8 165.4 36.8 163.15 36.8 157.9 35.85 153.6 L35.25 157.85 Q34.4 163.5 34.25 165.05 L34.1 165.1 34.05 164.45 Q34.0 163.95 34.0 163.75 34.05 161.75 34.35 159.35 34.7 156.95 34.7 154.1 34.7 152.7 34.4 151.6 34.3 151.05 33.8 149.9 33.35 148.8 33.15 147.9 32.85 146.55 32.8 144.65 32.8 142.75 32.85 139.1 L32.9 135.45 Q32.9 134.4 32.65 129.55 32.35 124.45 32.2 123.5 L32.2 122.65 32.35 122.65 Q33.25 125.55 33.4 129.9 L33.45 133.65 Q33.45 136.0 33.55 137.45 33.65 139.55 34.75 145.35 L34.8 144.45 Q34.3 142.05 34.25 139.15 34.2 137.65 34.3 134.4 34.4 131.35 34.35 129.75 L33.85 118.9 Q33.7 115.95 33.75 111.0 33.75 110.5 33.55 108.8 33.2 106.05 33.05 104.85 32.35 98.5 32.4 91.95 L32.5 88.45 32.55 87.0 Q32.75 81.8 32.75 79.15 L32.85 79.15 Q33.3 82.6 33.25 88.45 L33.25 89.7 33.15 95.1 Q33.15 98.2 33.25 100.45 33.55 106.6 34.8 111.25 35.95 115.6 35.85 117.45 L35.65 119.2 Q35.55 119.95 35.55 120.65 36.05 122.35 36.45 125.4 36.95 128.8 36.95 130.95 L36.85 131.95 Q37.4 135.1 37.75 138.4 L37.9 138.35 Q37.95 137.35 38.15 135.4 38.35 133.55 38.4 132.7 L38.4 132.6 Q38.4 132.25 38.3 131.45 38.2 130.45 37.9 128.8 L37.75 127.75 Q38.0 127.0 38.1 125.75 38.15 124.7 38.1 123.0 L38.05 120.55 Q38.05 119.75 38.35 117.25 L38.5 116.25 Q38.9 112.9 38.9 111.85 L39.0 100.15 39.05 89.25 39.05 88.45 Q39.0 79.2 38.8 74.55 L38.7 74.55 38.5 81.75 38.5 83.0 38.35 88.45 38.2 91.55 Q37.8 101.45 36.85 108.6 L36.8 108.55 36.75 107.9 36.8 105.05 36.95 100.4 Q36.95 97.05 36.8 91.55 L36.75 88.45 Q36.65 85.1 36.5 83.35 L36.2 79.0 Q36.05 76.45 36.05 74.8 36.05 74.35 35.65 72.4 L35.25 70.3 Q34.45 66.45 34.45 66.2 L34.65 59.4 34.9 53.3 Q34.65 50.7 34.65 48.7 L34.75 45.1 Q34.9 41.55 35.0 39.55 L35.1 39.55 Q35.4 42.75 37.3 57.6 38.15 64.4 38.6 68.1 L38.75 69.65 38.8 68.45 38.9 66.8 38.7 64.65 38.6 63.6 Q38.5 62.65 38.5 62.5 L38.5 62.3 Q38.6 62.1 38.6 61.9 38.6 61.35 38.4 59.65 L38.4 59.6 Q38.2 55.75 37.55 47.45 37.5 45.3 37.5 43.15 37.55 37.4 38.1 33.55 L38.45 30.85 Q38.65 29.35 38.65 27.6 L38.65 25.8 38.8 24.15 Q39.15 19.8 39.15 18.6 39.15 16.4 39.05 15.0 L38.85 13.45 38.75 12.95 Q38.35 10.3 38.4 4.65 L38.8 -6.15 38.8 -6.45 M53.6 -7.0 L55.3 -7.0 55.3 8.7 Q55.05 10.65 54.95 11.95 54.85 15.4 54.7 22.45 54.7 22.6 54.6 22.7 54.35 22.25 54.4 21.85 54.5 21.45 54.5 21.3 54.55 17.15 54.05 5.4 53.7 -3.55 53.6 -7.0 M51.75 192.0 L49.7 192.0 49.75 190.35 Q49.9 184.05 49.95 182.3 L50.05 182.3 Q50.65 186.1 51.25 189.3 L51.75 192.0 M33.2 190.8 L32.75 190.8 31.65 190.65 Q31.6 189.95 31.6 189.1 31.65 187.6 31.75 186.75 31.85 186.25 32.1 185.45 32.7 183.45 33.05 180.0 33.25 176.75 33.35 175.25 33.55 172.65 34.2 171.25 33.9 173.75 33.85 178.85 33.85 179.1 33.75 179.95 33.6 180.85 33.6 181.05 33.55 184.4 33.45 187.25 33.35 189.3 33.2 190.8 M35.65 -4.1 L35.65 0.75 Q35.6 3.7 35.75 5.55 L36.3 10.5 Q36.6 13.45 36.6 15.15 36.6 16.5 36.45 17.75 L36.25 19.75 Q35.95 22.1 36.2 25.2 L36.2 26.3 36.15 26.3 Q36.7 30.95 36.7 31.35 L36.5 32.8 36.45 33.15 35.85 25.65 35.85 25.75 35.9 25.45 35.95 25.2 Q35.75 23.5 35.5 20.35 35.05 15.85 35.05 15.15 35.05 14.95 35.25 14.25 35.4 13.55 35.4 13.3 L35.2 9.55 Q35.05 6.0 35.05 5.75 35.05 4.45 35.3 0.25 L35.55 -4.1 35.65 -4.1 M53.35 29.8 Q53.35 30.05 53.6 31.35 53.85 32.5 53.85 32.75 L53.6 39.25 53.55 40.4 53.45 41.8 53.3 41.85 Q53.15 40.2 52.7 38.55 52.35 37.25 52.35 35.9 52.35 35.0 52.75 32.95 53.15 30.8 53.2 29.8 L53.35 29.8 M53.85 52.45 Q53.85 52.85 53.8 53.05 53.75 53.35 53.55 53.65 L53.4 53.65 Q53.5 52.0 53.6 51.15 L53.7 51.15 53.8 51.8 53.85 52.45 M33.0 13.75 Q33.2 14.4 33.25 15.35 33.35 16.1 33.35 16.6 L33.25 18.3 33.0 20.65 32.7 20.65 32.7 16.95 Q33.0 15.55 32.85 13.75 L33.0 13.75 M32.5 56.45 L32.35 60.25 32.15 64.1 Q32.15 64.45 32.5 65.15 32.85 65.85 32.85 66.1 32.85 66.4 32.5 66.8 32.15 67.15 32.15 67.25 32.15 68.2 32.25 69.35 32.35 70.6 32.55 71.5 L32.35 71.5 Q32.2 69.65 31.7 68.0 31.25 66.45 31.25 66.1 31.25 65.8 31.65 65.1 32.0 64.4 32.0 64.1 32.0 63.05 31.75 60.9 31.5 58.7 31.5 58.1 31.5 57.3 31.8 55.5 32.1 53.9 32.05 53.2 L32.15 53.2 Q32.2 53.8 32.35 55.05 32.5 56.25 32.5 56.45 M42.2 67.35 L42.1 67.35 Q42.1 68.5 42.0 70.9 L41.95 72.4 41.9 73.3 Q41.9 73.55 42.1 74.85 42.25 76.1 42.25 76.35 L42.0 79.25 Q41.75 82.25 41.75 82.9 L41.8 84.9 Q41.8 85.4 42.0 86.15 42.2 86.9 42.2 87.1 L42.1 88.45 41.6 94.1 Q40.95 101.0 40.9 103.7 40.9 105.65 41.15 106.45 41.3 106.95 41.7 107.35 42.05 107.75 42.2 108.3 42.45 109.15 42.45 111.15 42.45 111.4 42.55 113.05 L42.75 115.55 42.85 115.45 Q42.85 115.1 42.9 114.3 L43.0 113.3 42.85 111.7 Q42.7 110.3 42.7 110.05 42.7 108.75 43.05 107.25 43.4 105.8 43.4 103.7 43.4 101.0 42.95 97.85 42.45 94.65 42.45 94.3 42.45 93.95 43.1 90.2 L43.5 92.4 45.0 100.8 45.15 100.75 Q44.85 94.4 44.55 90.3 L44.35 88.45 Q44.1 85.85 43.75 83.5 43.55 80.85 43.05 75.95 L42.7 72.4 Q42.25 67.95 42.2 67.35 M40.7 46.75 Q40.7 45.55 40.6 45.15 40.4 44.25 40.25 42.7 L40.1 42.7 40.1 44.6 Q40.05 45.55 39.55 48.9 39.1 51.8 39.1 53.25 39.1 53.85 39.4 55.25 39.75 56.65 39.75 57.3 L39.85 57.3 40.25 52.45 Q40.65 47.7 40.7 46.75 M31.75 106.4 Q31.85 107.05 32.25 108.65 32.6 109.9 32.6 110.65 32.6 110.9 32.45 111.6 L32.2 112.75 32.1 112.75 31.8 110.4 Q31.6 108.85 31.6 108.0 L31.65 107.25 31.65 106.4 31.75 106.4 M52.8 77.5 L53.1 81.3 Q53.3 83.75 53.5 85.1 53.55 85.65 54.25 88.45 L54.4 88.9 54.75 90.3 Q54.55 91.0 54.5 91.55 54.45 92.55 54.15 94.75 53.8 96.95 53.75 97.85 L53.55 97.3 Q53.4 97.05 53.15 96.95 L53.15 97.05 Q52.85 95.3 52.8 94.75 52.6 93.3 52.6 92.0 52.6 91.85 52.85 90.85 L53.1 89.8 53.1 88.45 Q53.05 86.65 52.95 84.25 L52.65 78.75 52.65 77.5 52.8 77.5 M53.25 116.6 L53.35 121.25 53.4 122.1 Q52.8 124.6 52.7 126.4 L52.6 126.4 Q52.6 125.55 52.4 123.75 52.25 122.05 52.25 121.9 52.25 120.75 52.5 118.9 L53.0 115.05 53.15 113.95 Q53.25 115.05 53.25 116.6 M47.2 116.1 L46.95 116.1 46.65 120.15 Q46.45 123.25 46.45 123.8 46.45 124.35 46.9 125.35 47.35 126.5 47.5 127.9 L47.75 127.9 Q47.35 126.55 47.8 125.5 L48.2 124.75 Q48.4 124.35 48.4 124.0 48.4 123.7 48.2 123.55 48.0 123.35 47.85 123.2 47.35 122.55 47.35 120.25 47.4 117.8 47.2 116.1 M52.7 130.35 L52.85 132.7 52.9 133.3 Q53.0 134.9 53.0 135.35 52.95 137.6 52.55 140.8 52.3 142.5 51.7 146.25 L51.55 146.3 Q51.55 145.75 51.5 144.55 L51.45 143.2 Q51.45 141.3 51.95 136.55 L52.35 132.7 52.6 130.35 52.7 130.35 M44.65 137.65 Q44.75 136.9 44.75 136.15 44.75 135.75 44.7 135.0 44.65 134.15 44.55 133.6 43.9 134.25 43.75 136.2 43.7 137.2 43.75 138.35 43.75 138.5 43.85 138.7 43.95 138.95 44.1 139.05 44.45 138.65 44.65 137.65 M38.35 143.05 Q38.0 141.95 37.8 142.0 37.55 142.0 37.55 143.5 37.55 144.0 37.95 147.8 38.35 151.3 38.65 153.3 L38.8 153.25 Q38.95 152.3 39.05 150.55 L39.1 148.65 Q39.1 147.3 38.9 145.65 38.65 144.15 38.35 143.05 M31.7 149.9 Q31.75 150.35 31.85 151.0 L32.1 152.1 32.1 156.65 32.0 156.75 Q31.9 156.85 31.8 156.9 31.35 156.1 31.3 154.3 31.4 152.2 31.4 151.3 31.4 151.05 31.5 150.55 L31.6 149.9 31.7 149.9" fill="#288d99" fill-rule="evenodd" stroke="none"/>
    <path d="M55.3 69.35 L55.3 73.2 55.3 73.25 Q55.0 74.05 54.9 74.3 54.6 74.05 54.35 73.2 54.2 72.7 54.15 72.4 L54.15 72.2 Q54.15 71.8 54.35 71.25 54.6 70.7 54.6 70.25 54.6 69.45 54.35 67.5 54.15 65.6 54.15 64.65 54.15 63.55 54.3 62.55 L54.45 62.55 55.15 68.0 55.3 69.35 M55.3 81.35 L55.3 81.4 Q54.8 80.45 54.75 78.7 L54.8 77.2 Q54.8 76.35 54.7 75.8 L54.9 75.8 Q55.0 76.55 55.05 78.55 55.05 80.3 55.3 81.35 M55.3 163.4 L55.3 171.45 55.0 170.85 Q54.35 169.75 54.3 168.5 L54.3 166.55 Q54.3 163.75 54.15 159.25 53.95 154.85 53.75 152.45 L53.85 152.45 Q54.2 155.75 55.3 163.4 M55.3 179.85 L55.3 192.15 54.65 192.1 Q54.6 190.5 54.55 188.3 L54.5 180.65 Q54.45 176.05 54.3 173.65 L54.45 173.65 Q54.7 175.7 55.3 179.85 M50.3 75.4 L50.35 75.05 50.6 75.05 51.0 76.95 51.4 79.0 51.35 79.25 51.4 79.3 Q51.4 79.35 51.15 79.35 50.95 79.35 50.6 77.6 L50.25 75.85 Q50.25 75.6 50.3 75.4" fill="#38a9a9" fill-rule="evenodd" stroke="none"/>
    <path d="M51.95 -7.0 L53.6 -7.0 Q53.7 -3.55 54.05 5.4 54.55 17.15 54.5 21.3 54.5 21.45 54.4 21.85 54.35 22.25 54.6 22.7 54.7 22.6 54.7 22.45 54.85 15.4 54.95 11.95 55.05 10.65 55.3 8.7 L55.3 69.35 55.15 68.0 54.45 62.55 54.3 62.55 Q54.15 63.55 54.15 64.65 54.15 65.6 54.35 67.5 54.6 69.45 54.6 70.25 54.6 70.7 54.35 71.25 54.15 71.8 54.15 72.2 L54.15 72.4 Q54.2 72.7 54.35 73.2 54.6 74.05 54.9 74.3 55.0 74.05 55.3 73.25 L55.3 73.2 55.3 81.35 Q55.05 80.3 55.05 78.55 55.0 76.55 54.9 75.8 L54.7 75.8 Q54.8 76.35 54.8 77.2 L54.75 78.7 Q54.8 80.45 55.3 81.4 L55.3 163.4 Q54.2 155.75 53.85 152.45 L53.75 152.45 Q53.95 154.85 54.15 159.25 54.3 163.75 54.3 166.55 L54.3 168.5 Q54.35 169.75 55.0 170.85 L55.3 171.45 55.3 179.85 Q54.7 175.7 54.45 173.65 L54.3 173.65 Q54.45 176.05 54.5 180.65 L54.55 188.3 Q54.6 190.5 54.65 192.1 L53.9 192.05 51.75 192.0 51.25 189.3 Q50.65 186.1 50.05 182.3 L49.95 182.3 Q49.9 184.05 49.75 190.35 L49.7 192.0 47.8 192.0 Q47.8 190.15 47.4 189.0 L47.35 188.55 Q47.2 186.1 47.2 184.95 47.15 183.75 47.05 181.3 L46.95 178.85 Q47.0 176.35 47.4 174.5 L47.7 173.2 Q47.8 172.5 47.8 171.85 47.85 170.6 47.65 170.05 L47.7 162.1 47.75 162.25 Q48.2 163.2 48.4 164.35 48.7 165.95 48.7 168.05 L48.7 171.8 Q48.65 174.1 48.8 175.55 48.95 177.6 49.45 179.3 L49.6 179.3 49.7 177.9 Q49.7 175.65 49.55 170.85 49.3 164.5 48.95 163.0 L47.9 159.0 Q47.85 157.8 47.55 155.6 47.2 152.8 47.2 151.9 L47.15 148.15 Q47.1 144.4 47.0 142.35 L46.9 142.35 Q46.9 143.15 46.75 144.45 L46.7 144.2 46.55 144.2 45.65 150.05 Q44.8 155.3 44.8 156.15 44.8 156.65 44.85 157.7 L44.25 163.05 44.05 163.1 43.9 161.6 43.85 160.35 Q43.85 156.85 44.1 153.4 44.45 147.6 45.3 145.3 45.85 141.4 47.5 133.75 L47.65 132.95 Q47.75 133.1 47.9 133.25 L47.9 134.45 Q47.95 143.0 48.4 148.9 L48.6 148.75 Q48.75 148.65 48.8 148.65 49.1 147.0 49.55 139.35 L49.95 132.7 50.0 130.85 Q50.0 124.05 49.75 120.75 49.6 117.25 49.4 115.55 49.1 112.6 48.35 110.55 L48.05 106.5 46.85 88.45 46.7 86.55 Q46.7 83.95 46.95 80.05 L47.4 83.8 48.0 88.45 48.05 88.8 48.05 89.0 Q48.05 89.4 48.65 94.95 49.25 100.25 49.25 101.95 L49.25 104.95 Q49.25 107.9 49.3 109.45 L49.45 109.4 49.8 104.55 Q50.15 99.95 50.15 98.55 L49.6 91.3 49.55 88.45 Q49.35 84.2 48.85 75.75 L48.65 72.4 48.25 66.2 48.25 64.7 48.2 62.55 Q48.6 60.5 49.55 56.95 49.8 59.35 50.45 64.25 51.2 69.85 51.6 72.4 L51.85 73.9 52.05 73.85 Q51.9 73.35 51.75 72.4 51.5 70.7 51.25 67.6 50.9 63.6 50.9 62.6 50.9 62.15 51.2 60.55 51.55 58.9 51.55 57.15 51.55 56.3 51.2 54.9 50.85 53.55 50.9 53.0 50.9 52.55 50.6 49.45 L50.65 47.25 Q50.85 41.95 50.9 38.45 51.35 36.45 51.45 33.95 L51.55 30.45 Q51.6 28.4 51.8 26.95 52.2 24.25 52.45 19.85 52.75 14.65 52.95 13.0 L52.8 13.0 Q52.7 14.0 52.15 19.45 51.8 23.55 51.35 26.0 51.1 27.65 50.6 30.95 50.75 29.0 50.75 27.25 L50.6 21.35 50.4 15.45 Q50.45 13.5 50.85 10.6 L51.3 7.6 51.2 6.35 Q51.1 5.25 51.1 4.85 L51.1 -2.9 51.7 -5.75 51.95 -7.0 M53.85 52.45 L53.8 51.8 53.7 51.15 53.6 51.15 Q53.5 52.0 53.4 53.65 L53.55 53.65 Q53.75 53.35 53.8 53.05 53.85 52.85 53.85 52.45 M53.35 29.8 L53.2 29.8 Q53.15 30.8 52.75 32.95 52.35 35.0 52.35 35.9 52.35 37.25 52.7 38.55 53.15 40.2 53.3 41.85 L53.45 41.8 53.55 40.4 53.6 39.25 53.85 32.75 Q53.85 32.5 53.6 31.35 53.35 30.05 53.35 29.8 M52.8 77.5 L52.65 77.5 52.65 78.75 52.95 84.25 Q53.05 86.65 53.1 88.45 L53.1 89.8 52.85 90.85 Q52.6 91.85 52.6 92.0 52.6 93.3 52.8 94.75 52.85 95.3 53.15 97.05 L53.15 96.95 Q53.4 97.05 53.55 97.3 L53.75 97.85 Q53.8 96.95 54.15 94.75 54.45 92.55 54.5 91.55 54.55 91.0 54.75 90.3 L54.4 88.9 54.25 88.45 Q53.55 85.65 53.5 85.1 53.3 83.75 53.1 81.3 L52.8 77.5 M50.3 75.4 Q50.25 75.6 50.25 75.85 L50.6 77.6 Q50.95 79.35 51.15 79.35 51.4 79.35 51.4 79.3 L51.35 79.25 51.4 79.0 51.0 76.95 50.6 75.05 50.35 75.05 50.3 75.4 M53.25 116.6 Q53.25 115.05 53.15 113.95 L53.0 115.05 52.5 118.9 Q52.25 120.75 52.25 121.9 52.25 122.05 52.4 123.75 52.6 125.55 52.6 126.4 L52.7 126.4 Q52.8 124.6 53.4 122.1 L53.35 121.25 53.25 116.6 M52.7 130.35 L52.6 130.35 52.35 132.7 51.95 136.55 Q51.45 141.3 51.45 143.2 L51.5 144.55 Q51.55 145.75 51.55 146.3 L51.7 146.25 Q52.3 142.5 52.55 140.8 52.95 137.6 53.0 135.35 53.0 134.9 52.9 133.3 L52.85 132.7 52.7 130.35" fill="#2f989d" fill-rule="evenodd" stroke="none"/>
    <path d="M28.45 136.65 L37.3 136.65 38.75 136.75 41.35 136.75 55.3 137.5 55.3 172.0 55.05 171.95 52.1 171.9 48.5 171.5 48.3 174.35 Q47.9 179.65 47.5 180.8 L47.25 180.9 46.9 180.9 Q46.25 180.9 46.0 180.6 L45.8 180.3 Q45.8 180.0 46.1 180.05 L46.9 180.0 46.95 179.9 46.95 179.65 Q46.95 179.6 46.35 178.35 45.6 176.9 45.25 175.85 45.1 175.3 44.9 173.65 44.75 172.3 44.75 172.05 44.75 171.45 44.85 171.1 L44.9 171.05 Q39.0 170.3 36.65 169.9 33.8 169.35 27.4 167.8 L27.3 169.2 26.95 174.3 27.0 176.4 Q27.1 178.5 27.05 180.0 26.9 184.9 25.5 184.9 24.8 184.9 24.05 183.15 23.4 181.8 23.25 180.7 23.1 179.85 23.1 178.15 L23.15 176.45 Q23.15 174.65 23.35 172.9 23.65 170.65 23.8 168.45 L23.9 166.9 23.65 166.85 Q21.35 166.25 17.45 164.55 L16.9 164.35 16.3 163.65 Q14.95 162.35 14.4 162.35 L14.35 162.5 14.45 163.5 Q14.4 164.55 14.25 165.3 L14.25 169.2 Q14.15 169.55 14.25 170.45 L14.3 172.0 Q14.25 173.9 13.0 173.9 10.9 173.9 10.45 171.6 10.35 170.9 10.4 170.0 L10.45 169.15 Q10.45 167.0 10.5 166.4 10.55 164.8 10.85 163.6 10.8 162.05 10.9 160.95 L10.7 160.75 Q10.75 160.55 10.75 160.25 10.75 160.1 9.8 157.55 L9.25 156.15 9.25 155.95 9.45 148.75 9.35 147.5 9.25 146.3 Q9.25 145.95 9.3 145.85 9.45 145.5 9.9 145.5 L9.55 143.95 Q9.2 142.6 9.2 142.15 9.2 139.7 12.5 138.35 17.15 136.45 28.45 136.7 L28.45 136.65 M14.7 163.05 L15.05 163.45 14.7 163.3 14.7 163.05" fill="#061c1c" fill-opacity="0.27450982" fill-rule="evenodd" stroke="none"/>
  </g>
</svg>
