<?xml version="1.0" encoding="UTF-8" standalone="no"?>
<svg xmlns:ffdec="https://www.free-decompiler.com/flash" xmlns:xlink="http://www.w3.org/1999/xlink" ffdec:objectType="shape" height="21.2px" width="3.25px" xmlns="http://www.w3.org/2000/svg">
  <g transform="matrix(1.0, 0.0, 0.0, 1.0, 1.95, 20.6)">
    <path d="M0.65 -20.6 Q1.05 -20.75 1.2 -19.2 L1.25 -17.55 1.3 -16.35 1.3 -15.85 1.25 -15.25 Q1.2 -14.7 1.2 -14.3 1.15 -13.85 0.65 -12.25 0.25 -10.95 0.2 -10.65 0.0 -10.15 -0.1 -9.15 L-0.1 -7.9 -0.15 -7.2 -0.2 -7.25 Q-0.2 -6.85 -0.25 -6.25 L-0.25 -5.5 Q-0.25 -3.45 0.25 -2.15 L0.6 -1.2 Q0.8 -0.65 0.8 0.05 L0.75 0.2 Q0.65 0.55 0.25 0.6 L-0.1 0.6 Q-0.4 0.6 -0.65 0.05 L-0.75 -0.5 Q-0.8 -0.75 -0.8 -1.05 L-0.65 -2.85 -1.25 -5.25 -1.4 -6.0 -1.75 -6.9 Q-1.95 -7.5 -1.95 -8.0 -1.95 -9.5 -1.5 -9.25 -1.1 -9.0 -1.1 -7.5 L-1.1 -6.95 -1.05 -6.8 -0.6 -4.5 -0.55 -5.7 -0.55 -5.85 Q-0.4 -6.95 -0.4 -7.65 L-0.25 -8.65 -0.25 -8.75 Q-0.25 -9.2 0.05 -10.65 L0.05 -10.8 Q0.3 -11.95 0.4 -12.6 L0.5 -13.1 0.55 -13.2 Q0.8 -13.5 0.85 -15.65 L0.85 -15.85 0.9 -15.95 Q0.85 -16.65 0.6 -17.5 0.25 -18.75 0.25 -19.5 0.25 -20.5 0.65 -20.6" fill="#860086" fill-rule="evenodd" stroke="none"/>
  </g>
</svg>
