<?xml version="1.0" encoding="UTF-8" standalone="no"?>
<svg xmlns:ffdec="https://www.free-decompiler.com/flash" xmlns:xlink="http://www.w3.org/1999/xlink" ffdec:objectType="shape" height="11.9px" width="4.1px" xmlns="http://www.w3.org/2000/svg">
  <g transform="matrix(1.0, 0.0, 0.0, 1.0, 2.6, 10.45)">
    <path d="M1.3 -4.2 Q1.6 -4.0 1.45 -3.15 L1.3 -2.35 1.2 -2.0 1.25 -1.35 Q1.25 -0.85 1.3 -0.35 1.3 0.15 1.4 0.5 1.25 1.1 0.95 1.3 0.85 1.5 0.65 1.45 L0.6 1.45 0.55 1.4 0.45 1.4 Q0.05 1.35 0.0 0.7 0.0 0.45 0.0 0.2 0.15 0.0 0.35 -0.45 0.6 -1.15 0.65 -1.5 L0.7 -1.55 0.75 -2.55 0.85 -3.5 Q0.95 -4.35 1.3 -4.2" fill="#420040" fill-rule="evenodd" stroke="none"/>
    <path d="M-1.9 -7.8 Q-1.85 -8.25 -1.9 -9.0 -2.0 -9.95 -1.55 -10.35 -1.15 -10.75 -1.1 -9.55 -1.05 -8.95 -1.3 -7.85 L-1.35 -7.9 Q-1.85 -6.1 -1.75 -4.25 L-1.65 -3.8 -1.7 -3.8 -1.7 -3.45 -1.65 -2.8 Q-1.5 -2.15 -1.2 -1.25 L-0.85 -0.35 Q-0.65 -0.25 -0.65 0.2 L-0.65 0.3 -0.6 0.45 -0.6 0.6 Q-0.55 1.3 -1.1 1.4 L-1.15 1.45 -1.4 1.45 Q-1.7 1.5 -1.9 1.05 -2.0 0.8 -2.05 0.6 -2.1 0.35 -2.1 0.1 L-2.1 -0.25 Q-2.25 -0.6 -2.35 -1.05 -2.55 -1.85 -2.6 -2.7 -2.6 -2.95 -2.5 -3.25 L-2.35 -3.6 -2.1 -3.25 -2.15 -4.1 -2.15 -4.2 Q-2.1 -5.15 -2.1 -5.8 -2.0 -7.0 -2.0 -7.6 L-1.95 -7.65 -1.95 -7.75 -1.9 -7.75 -1.9 -7.8" fill="#860086" fill-rule="evenodd" stroke="none"/>
  </g>
</svg>
