<?xml version="1.0" encoding="UTF-8" standalone="no"?>
<svg xmlns:ffdec="https://www.free-decompiler.com/flash" xmlns:xlink="http://www.w3.org/1999/xlink" ffdec:objectType="shape" height="5.3px" width="12.65px" xmlns="http://www.w3.org/2000/svg">
  <g transform="matrix(1.0, 0.0, 0.0, 1.0, 7.15, 6.9)">
    <path d="M4.15 -4.95 L4.1 -4.6 Q4.1 -4.15 4.8 -3.85 5.5 -3.55 5.5 -3.15 5.5 -2.95 5.35 -2.7 5.2 -2.35 4.9 -2.3 L4.45 -2.3 4.15 -2.5 3.95 -2.7 Q3.55 -2.75 3.5 -2.8 3.0 -2.9 2.4 -2.5 1.8 -2.05 1.7 -2.05 L1.2 -2.1 Q1.1 -2.2 1.0 -2.4 0.9 -2.6 0.9 -2.7 0.9 -3.0 0.95 -3.15 1.05 -3.4 1.35 -3.55 L1.75 -3.5 1.85 -3.4 2.35 -3.4 Q2.45 -3.4 2.45 -3.5 L2.4 -3.55 2.35 -3.55 Q2.9 -3.8 3.0 -4.4 3.15 -5.1 3.5 -5.3 4.1 -5.25 4.15 -4.95 M3.1 -6.0 L3.2 -5.8 Q3.2 -5.6 3.05 -5.4 2.95 -5.15 2.75 -5.1 L2.0 -5.0 Q1.55 -5.0 1.35 -4.7 1.3 -4.35 1.2 -4.0 0.9 -3.4 0.3 -3.4 -0.15 -3.4 -0.4 -3.8 L-0.85 -4.45 -1.35 -4.55 -1.8 -4.4 Q-2.1 -4.3 -2.4 -4.3 -3.15 -4.3 -3.45 -4.75 -3.6 -5.0 -3.6 -5.35 -3.6 -5.85 -3.45 -6.1 -3.2 -6.4 -2.5 -6.6 L-2.35 -6.55 -2.4 -6.55 -2.45 -6.5 Q-2.45 -6.45 -2.7 -6.3 -2.95 -6.15 -2.95 -5.95 -2.95 -5.75 -2.75 -5.55 -2.5 -5.3 -2.2 -5.3 -1.7 -5.3 -1.45 -5.55 -1.05 -6.0 -0.8 -6.1 L0.0 -6.1 0.45 -6.15 Q0.6 -6.3 0.65 -6.55 L0.75 -6.9 0.9 -6.85 1.1 -6.6 1.3 -6.3 Q1.45 -6.1 1.95 -6.15 2.45 -6.2 2.65 -6.0 L2.85 -6.0 Q2.85 -6.15 2.9 -6.2 L3.1 -6.0 M-6.65 -3.65 Q-6.1 -4.0 -6.0 -4.6 -6.2 -5.55 -5.5 -5.8 L-5.0 -5.8 Q-4.75 -5.7 -4.75 -5.45 -4.75 -5.05 -5.05 -4.85 -5.4 -4.7 -5.4 -4.35 -5.4 -4.2 -5.2 -4.05 -5.0 -3.85 -4.9 -3.75 L-4.25 -3.75 -3.9 -3.85 -3.3 -3.95 Q-2.3 -3.95 -1.5 -3.5 -0.8 -3.2 -0.8 -3.0 -0.8 -2.3 -1.6 -1.9 -2.2 -1.6 -2.65 -1.6 L-3.05 -1.65 -3.4 -1.75 -3.65 -2.0 Q-3.75 -2.2 -3.9 -2.3 L-4.25 -2.35 Q-5.05 -2.35 -5.7 -2.0 -6.35 -1.7 -6.4 -1.7 L-6.65 -1.75 Q-7.0 -1.95 -7.1 -2.2 -7.15 -2.35 -7.15 -2.75 -7.15 -3.4 -6.65 -3.65" fill="#ffffff" fill-opacity="0.5019608" fill-rule="evenodd" stroke="none"/>
  </g>
</svg>
