<?xml version="1.0" encoding="UTF-8" standalone="no"?>
<svg xmlns:ffdec="https://www.free-decompiler.com/flash" xmlns:xlink="http://www.w3.org/1999/xlink" ffdec:objectType="shape" height="2.7px" width="14.9px" xmlns="http://www.w3.org/2000/svg">
  <g transform="matrix(1.0, 0.0, 0.0, 1.0, 7.3, 2.25)">
    <path d="M0.65 -0.45 L0.9 -0.45 Q0.95 -0.2 0.95 0.25 1.05 0.3 1.15 0.3 L1.4 0.3 Q1.5 0.25 1.55 0.0 1.6 -0.25 1.8 -0.3 L2.35 -0.35 2.55 -0.55 Q2.6 -0.7 2.8 -0.7 3.1 -0.7 3.3 -0.6 3.4 -0.55 3.45 -0.5 L4.0 -0.5 4.3 -0.85 Q4.5 -1.05 4.7 -1.1 L4.8 -1.1 5.1 -0.7 5.6 -0.65 6.0 -0.65 6.2 -0.7 6.3 -0.75 6.35 -0.8 6.4 -0.9 6.15 -1.0 6.15 -1.1 6.2 -1.2 Q6.2 -1.25 6.25 -1.3 L6.3 -1.35 Q6.9 -1.45 7.25 -1.4 L7.4 -1.45 7.45 -1.5 7.5 -1.6 7.45 -1.65 Q7.35 -1.7 7.3 -1.85 L7.25 -1.75 7.15 -1.7 6.55 -1.7 6.45 -1.65 6.45 -1.6 6.4 -1.55 Q6.35 -1.5 6.25 -1.5 5.95 -1.5 5.95 -1.55 L6.25 -1.55 6.15 -1.6 6.15 -1.65 6.25 -1.65 Q6.35 -1.65 6.5 -1.8 L6.65 -2.0 Q6.85 -1.95 6.95 -1.9 L7.1 -1.9 7.15 -2.0 Q7.05 -2.1 6.95 -2.15 6.95 -2.2 7.05 -2.25 L7.5 -2.25 Q7.6 -2.1 7.6 -1.8 7.6 -1.45 7.55 -1.4 7.45 -1.3 7.1 -1.25 L6.85 -1.25 6.4 -1.2 6.7 -1.0 6.75 -0.8 6.75 -0.7 6.6 -0.6 Q6.5 -0.55 6.35 -0.55 L6.15 -0.55 6.15 -0.6 5.0 -0.6 4.5 -0.55 4.2 -0.45 4.15 -0.45 4.15 -0.4 3.85 -0.35 3.5 -0.4 3.05 -0.4 Q2.75 -0.35 2.7 -0.3 L2.1 -0.2 2.0 -0.2 Q1.85 -0.15 1.75 0.0 L1.7 0.2 Q1.65 0.35 1.45 0.45 L0.95 0.45 0.9 0.4 0.8 0.4 0.55 0.35 0.35 0.35 0.15 0.25 -0.3 0.25 -0.6 0.3 Q-0.85 0.4 -1.05 0.4 L-1.35 0.4 -1.45 0.45 -1.65 0.4 -2.0 0.35 Q-2.1 0.3 -2.2 0.3 L-2.2 0.25 -2.25 0.25 -2.3 0.1 Q-2.3 0.05 -2.2 -0.05 L-1.75 -0.2 Q-2.15 -0.2 -2.35 0.0 -2.45 0.05 -2.7 -0.25 L-2.8 -0.2 -2.85 -0.15 -2.95 -0.1 -3.05 -0.1 -3.25 -0.05 -3.5 -0.05 Q-3.55 0.0 -3.55 -0.05 L-4.2 -0.2 -4.85 -0.3 -4.9 -0.3 Q-4.95 -0.3 -5.05 -0.35 L-5.15 -0.55 -5.25 -0.6 -5.3 -0.5 -6.05 -0.4 -6.6 -0.45 -7.0 -0.5 Q-7.1 -0.5 -7.2 -0.65 -7.25 -0.75 -7.3 -0.85 L-7.3 -0.95 -7.25 -0.95 -7.2 -1.1 Q-7.1 -1.2 -6.85 -1.25 L-6.9 -1.3 Q-7.0 -1.45 -7.0 -1.55 L-6.95 -1.65 -6.8 -1.85 -6.6 -1.8 -6.45 -1.65 -6.4 -1.55 -5.9 -1.55 Q-5.7 -1.7 -5.7 -1.8 -5.7 -1.95 -5.65 -2.0 L-5.35 -2.0 -5.25 -1.85 -5.25 -1.7 -5.15 -1.75 -4.85 -1.7 -4.9 -1.65 -5.3 -1.5 Q-5.45 -1.55 -5.5 -1.6 -5.55 -1.65 -5.6 -1.65 L-5.9 -1.5 -6.0 -1.5 -6.15 -1.4 Q-6.5 -1.45 -6.55 -1.5 L-6.6 -1.5 -6.6 -1.3 -6.75 -1.15 -7.1 -1.1 -7.2 -1.0 Q-7.15 -1.0 -7.1 -0.95 -7.05 -0.9 -7.1 -0.85 -7.05 -0.8 -7.0 -0.9 L-6.95 -1.05 -6.65 -1.05 Q-6.45 -0.9 -6.4 -0.85 L-6.45 -0.7 Q-6.5 -0.65 -6.65 -0.65 -6.65 -0.6 -6.5 -0.55 L-5.95 -0.55 -5.85 -0.6 -5.6 -0.7 -5.5 -0.7 -5.25 -0.9 -4.95 -1.15 -4.8 -1.15 Q-4.65 -1.0 -4.65 -0.9 L-4.65 -0.6 -4.75 -0.5 -4.65 -0.35 -4.4 -0.35 -4.2 -0.3 -3.6 -0.25 -3.45 -0.2 Q-3.4 -0.25 -3.4 -0.45 -3.4 -0.65 -3.25 -0.7 -2.95 -0.8 -2.85 -0.65 -2.7 -0.45 -2.6 -0.35 L-1.9 -0.35 -1.65 -0.3 -1.45 -0.65 -1.3 -0.65 -1.25 -0.6 -1.15 -0.55 Q-1.1 -0.55 -1.1 -0.45 -1.1 -0.35 -1.15 -0.35 -1.2 -0.3 -1.25 -0.3 L-1.35 -0.25 -1.35 -0.2 -1.2 -0.2 Q-1.4 -0.1 -1.6 -0.05 -1.7 0.0 -2.0 0.05 L-2.0 0.2 -1.55 0.3 Q-0.95 0.05 -0.65 0.05 -0.6 0.05 -0.5 0.1 L-0.3 0.15 -0.05 0.15 Q0.05 0.05 0.2 0.0 L0.4 -0.25 0.65 -0.45 M3.15 -0.5 L3.15 -0.5 M7.3 -1.9 L7.3 -1.9 M6.9 -1.85 L6.75 -1.85 Q6.7 -1.8 6.65 -1.8 L6.85 -1.75 7.1 -1.75 6.9 -1.85 M6.25 -1.1 L6.25 -1.1 M0.1 0.2 L0.3 0.25 0.2 0.15 Q0.15 0.15 0.1 0.2 M-6.25 -1.5 L-6.25 -1.5 M-6.6 -1.6 L-6.6 -1.6 M-5.55 -0.55 L-5.55 -0.6 -5.65 -0.55 -5.55 -0.55 M-4.8 -0.35 L-4.3 -0.25 Q-4.7 -0.4 -4.8 -0.35 M-4.1 -0.25 L-3.7 -0.15 -3.65 -0.15 -3.75 -0.2 -4.1 -0.25 M-1.4 -0.55 L-1.35 -0.4 -1.3 -0.55 -1.4 -0.55 M-0.65 0.2 L-0.9 0.25 -1.1 0.3 -0.8 0.25 -0.55 0.2 -0.65 0.2 M-2.15 0.25 L-2.1 0.25 -2.1 0.2 -2.15 0.25 M-2.15 0.05 L-2.25 0.05 -2.25 0.15 Q-2.2 0.1 -2.15 0.05" fill="#ffffff" fill-opacity="0.5019608" fill-rule="evenodd" stroke="none"/>
  </g>
</svg>
