<?xml version="1.0" encoding="UTF-8" standalone="no"?>
<svg xmlns:ffdec="https://www.free-decompiler.com/flash" xmlns:xlink="http://www.w3.org/1999/xlink" ffdec:objectType="shape" height="5.45px" width="21.85px" xmlns="http://www.w3.org/2000/svg">
  <g transform="matrix(1.0, 0.0, 0.0, 1.0, 11.55, 4.6)">
    <path d="M4.1 -4.35 Q4.1 -4.2 4.0 -3.95 3.8 -3.65 3.4 -3.65 L3.0 -3.65 3.0 -3.8 Q3.0 -4.15 3.55 -4.45 4.1 -4.8 4.1 -4.35 M0.0 -3.75 Q-0.2 -3.6 -0.7 -3.6 -1.05 -3.6 -1.3 -3.75 -1.5 -3.85 -1.5 -3.9 -1.5 -4.15 -1.15 -4.25 -0.7 -4.4 0.1 -4.25 L0.2 -4.2 Q0.15 -4.1 0.05 -4.2 L0.15 -4.0 Q0.15 -3.85 0.0 -3.75 M1.25 -2.0 Q1.45 -1.75 1.95 -1.65 2.0 -1.5 2.0 -1.3 2.0 -1.0 1.9 -0.85 1.8 -0.75 1.6 -0.65 L1.8 -0.6 2.2 -0.4 2.95 -0.45 3.15 -0.55 3.2 -0.6 3.2 -0.7 3.15 -0.9 Q3.05 -1.1 3.05 -1.15 3.05 -1.4 3.3 -1.4 3.8 -1.4 4.25 -1.25 4.75 -1.1 5.05 -1.05 L5.6 -1.05 6.2 -1.2 Q6.45 -1.75 6.9 -1.75 L7.9 -1.75 Q8.1 -1.85 8.4 -2.1 8.65 -2.35 8.65 -2.5 L8.55 -2.6 8.5 -2.75 7.95 -2.85 Q7.9 -2.85 7.9 -2.9 L7.9 -3.05 7.85 -3.1 7.9 -3.1 7.9 -3.15 8.0 -3.1 8.1 -3.2 8.25 -3.55 Q8.45 -3.75 8.85 -3.75 L9.2 -3.3 9.35 -3.1 9.4 -2.9 Q10.0 -2.8 10.2 -2.55 10.3 -2.4 10.3 -2.15 10.3 -2.05 10.05 -1.7 9.8 -1.3 9.8 -1.05 9.8 -0.9 9.85 -0.8 L9.95 -0.55 9.95 -0.4 Q9.5 -0.35 9.25 -0.5 L9.0 -0.6 8.6 -0.6 Q8.45 -0.5 8.3 -0.3 L8.1 -0.05 Q8.0 0.05 7.65 0.15 7.1 0.35 6.55 0.35 L5.2 0.3 Q3.55 0.3 3.15 0.25 L2.55 0.25 Q2.5 0.3 2.1 0.3 L1.75 0.3 1.65 0.2 Q1.55 0.15 1.45 0.05 L1.3 -0.2 0.85 -0.2 Q0.8 -0.15 0.8 -0.3 0.8 -0.4 0.95 -0.55 L0.55 -0.6 0.1 -0.65 0.0 -0.75 -0.1 -0.95 Q-0.1 -1.1 0.2 -1.25 0.55 -1.4 0.65 -1.65 L0.75 -2.05 Q0.8 -2.3 0.95 -2.3 L1.25 -2.0 M-9.05 -3.35 L-8.8 -3.1 -8.7 -2.85 -8.65 -2.65 Q-8.6 -2.5 -8.6 -2.4 L-8.6 -2.35 -8.55 -2.05 -8.35 -2.05 -8.1 -2.1 Q-7.7 -2.1 -7.4 -2.0 -7.15 -1.9 -7.15 -1.8 L-7.25 -1.5 -7.35 -1.25 Q-7.35 -1.15 -7.15 -1.0 L-6.85 -0.8 -5.95 -0.9 Q-5.85 -1.0 -5.65 -1.1 L-5.3 -1.3 Q-5.1 -1.4 -4.95 -1.4 L-4.75 -1.4 Q-4.55 -1.35 -4.5 -1.1 -4.45 -0.8 -4.3 -0.7 L-3.65 -0.6 Q-3.0 -0.6 -2.5 -1.1 L-1.65 -2.0 -1.3 -2.0 Q-1.25 -1.65 -1.0 -1.45 L-0.5 -1.2 -0.4 -1.1 -0.4 -0.95 Q-0.4 -0.9 -0.45 -0.7 -0.5 -0.5 -0.55 -0.5 L-1.0 -0.4 Q-1.15 -0.25 -1.1 -0.1 L-1.05 0.15 Q-1.05 0.25 -1.4 0.35 L-1.95 0.5 -3.95 0.5 -3.95 0.45 Q-4.2 0.45 -4.45 0.55 L-4.8 0.65 -5.45 0.75 -5.95 0.8 -6.3 0.8 -6.5 0.85 -6.7 0.85 -7.35 0.8 -7.65 0.75 Q-8.35 0.75 -8.65 0.6 -8.9 0.45 -9.35 0.5 L-9.7 0.45 -9.9 0.4 -10.4 0.35 Q-11.1 0.25 -11.4 -0.05 -11.55 -0.25 -11.55 -0.5 -11.55 -0.8 -11.4 -1.0 -11.25 -1.2 -10.65 -1.55 -10.25 -2.1 -10.25 -2.5 -10.1 -3.0 -9.85 -3.2 -9.55 -3.4 -9.05 -3.35 M-4.75 -3.6 Q-4.6 -3.6 -4.25 -3.45 -3.85 -3.25 -3.85 -3.15 -3.85 -3.0 -3.9 -2.95 -3.95 -2.85 -4.1 -2.8 -4.85 -2.85 -5.3 -3.2 -5.65 -3.45 -5.65 -3.75 -5.65 -4.0 -5.3 -3.9 -5.0 -3.85 -4.75 -3.6" fill="#ffffff" fill-opacity="0.5019608" fill-rule="evenodd" stroke="none"/>
  </g>
</svg>
