<?xml version="1.0" encoding="UTF-8" standalone="no"?>
<svg xmlns:ffdec="https://www.free-decompiler.com/flash" xmlns:xlink="http://www.w3.org/1999/xlink" ffdec:objectType="shape" height="4.2px" width="20.35px" xmlns="http://www.w3.org/2000/svg">
  <g transform="matrix(1.0, 0.0, 0.0, 1.0, 9.8, 2.55)">
    <path d="M8.3 -1.8 L8.45 -1.75 8.6 -1.65 8.75 -1.6 Q9.0 -1.6 9.15 -1.85 9.3 -2.0 9.3 -2.15 9.3 -2.35 9.55 -2.55 9.8 -2.55 9.95 -2.4 10.05 -2.35 10.05 -2.25 L10.05 -2.15 Q10.05 -2.05 9.9 -1.9 L9.65 -1.7 9.6 -1.45 Q9.55 -1.25 9.25 -1.25 L8.9 -1.25 8.75 -1.4 8.65 -1.45 Q8.45 -1.5 8.25 -1.5 L8.1 -1.5 8.0 -1.45 7.9 -1.5 Q7.85 -1.45 7.85 -1.5 7.85 -1.55 8.0 -1.7 L8.3 -1.8 M6.55 0.0 L6.7 0.1 6.7 0.2 6.65 0.35 6.55 0.5 Q6.6 0.55 7.0 0.7 7.3 0.8 7.3 1.0 7.3 1.15 7.1 1.25 L6.3 1.25 6.1 1.45 Q5.85 1.6 5.3 1.6 L5.05 1.55 4.65 1.5 4.6 1.45 Q4.7 1.35 5.05 1.35 L5.5 1.3 5.65 1.25 5.75 1.15 Q5.9 1.05 5.85 0.9 5.85 0.85 5.85 0.8 5.9 0.75 6.1 0.75 L6.35 0.8 6.4 0.85 Q6.4 0.9 6.5 0.95 L6.6 1.05 6.85 1.05 6.95 0.95 6.9 0.85 Q6.85 0.8 6.8 0.8 6.5 0.75 6.4 0.65 L6.35 0.55 6.25 0.5 6.2 0.4 6.3 0.15 6.35 0.05 Q6.4 0.0 6.45 0.0 L6.55 0.0 M10.0 -0.9 Q9.95 -0.85 9.65 -0.75 9.55 -0.7 9.4 -0.65 L8.9 -0.65 Q8.85 -0.7 8.85 -0.75 9.45 -0.75 9.65 -0.9 L9.95 -1.25 Q10.2 -1.35 10.4 -1.15 10.55 -1.0 10.55 -0.85 10.55 -0.8 10.45 -0.65 L10.35 -0.55 Q10.35 -0.5 10.4 -0.4 L10.45 -0.3 Q10.45 -0.1 10.2 0.0 L9.9 0.1 9.75 0.35 Q9.7 0.45 9.35 0.45 9.1 0.45 8.9 0.3 L8.7 0.15 8.75 0.05 9.1 0.1 9.4 0.05 9.6 -0.05 10.05 -0.25 10.1 -0.25 10.1 -0.3 10.0 -0.4 Q9.95 -0.5 9.95 -0.55 9.95 -0.6 10.05 -0.7 L10.2 -0.85 10.1 -0.9 10.0 -0.9 M2.15 1.65 L1.85 1.6 1.45 1.55 1.4 1.55 Q1.4 1.5 1.55 1.45 L1.9 1.5 Q1.95 1.45 2.1 1.6 L2.35 1.6 2.3 1.65 2.15 1.65 M-9.7 -0.3 L-9.5 -0.45 -9.35 -0.65 Q-9.25 -0.8 -9.0 -0.75 -8.95 -0.7 -8.95 -0.6 L-9.0 -0.45 -8.95 -0.3 -8.7 -0.2 Q-8.6 -0.15 -8.5 -0.15 L-8.25 -0.15 -7.95 -0.2 -7.65 -0.3 -7.6 -0.3 -7.6 -0.25 -7.7 -0.15 Q-7.8 -0.1 -7.95 -0.05 L-8.15 0.05 -8.45 0.1 -8.6 0.0 -8.85 -0.05 -8.85 -0.1 -9.05 -0.15 -9.25 -0.05 -9.4 0.1 -9.6 0.1 -9.8 -0.05 -9.8 -0.1 Q-9.8 -0.2 -9.7 -0.3 M-8.45 -2.1 L-8.4 -2.1 -8.35 -2.2 Q-8.2 -2.2 -8.05 -2.1 -7.9 -1.95 -7.85 -1.9 L-7.85 -1.75 -7.9 -1.65 Q-7.9 -1.6 -7.7 -1.45 L-7.0 -1.4 -6.5 -1.3 -6.5 -1.25 Q-6.55 -1.1 -6.85 -1.05 L-7.0 -1.0 -6.95 -1.05 -7.2 -1.0 -7.8 -1.0 Q-8.3 -1.0 -8.45 -1.1 -8.55 -1.2 -8.55 -1.3 L-8.5 -1.4 -8.4 -1.65 -8.45 -1.7 -8.5 -1.8 -8.55 -1.95 -8.5 -2.05 -8.45 -2.1 M-8.35 -1.6 L-8.4 -1.55 -8.4 -1.5 -8.35 -1.6 M-2.3 0.8 L-2.3 0.85 -2.85 0.85 Q-2.9 0.95 -3.4 1.0 L-3.55 1.1 -3.75 1.2 -3.85 1.35 -3.95 1.45 -4.05 1.45 -4.1 1.4 -4.2 1.4 -4.35 1.45 -4.75 1.45 -5.05 1.5 -5.5 1.45 -5.5 1.4 -5.55 1.25 -5.5 1.15 -5.35 1.0 -5.55 1.05 -5.75 1.05 -5.95 1.1 -6.1 1.05 -6.5 1.05 -6.65 1.0 -6.75 0.95 -6.95 0.9 -6.95 0.85 -6.75 0.8 -6.55 0.8 -6.2 0.9 -5.9 1.0 -5.7 0.95 -5.65 0.95 -5.55 0.9 -5.45 0.8 Q-5.35 0.7 -5.0 0.65 L-4.95 0.75 Q-4.95 0.85 -5.0 0.85 L-5.0 0.9 -5.25 1.15 -5.3 1.25 -5.35 1.3 -5.25 1.35 -5.1 1.35 -5.1 1.4 -4.75 1.35 -4.4 1.35 -4.15 1.3 -3.95 1.35 Q-3.7 1.05 -3.45 0.95 L-3.5 0.95 -3.5 0.9 Q-3.45 0.75 -3.05 0.75 L-2.35 0.8 -2.3 0.8 M-3.35 0.85 L-3.35 0.85 M-5.3 0.85 L-5.4 0.95 -5.35 0.95 -5.2 0.8 -5.3 0.85 M-5.7 1.0 L-5.65 0.95 -5.75 1.0 -5.7 1.0 M-6.65 0.9 L-6.65 0.9" fill="#ffffff" fill-opacity="0.5019608" fill-rule="evenodd" stroke="none"/>
  </g>
</svg>
