<?xml version="1.0" encoding="UTF-8" standalone="no"?>
<svg xmlns:ffdec="https://www.free-decompiler.com/flash" xmlns:xlink="http://www.w3.org/1999/xlink" ffdec:objectType="shape" height="4.65px" width="21.7px" xmlns="http://www.w3.org/2000/svg">
  <g transform="matrix(1.0, 0.0, 0.0, 1.0, 9.95, 2.7)">
    <path d="M10.6 -2.1 Q10.5 -2.0 10.4 -1.95 L10.1 -1.85 10.0 -1.8 10.0 -1.75 Q9.9 -1.55 9.75 -1.4 L9.7 -1.3 9.55 -1.25 9.3 -1.2 Q9.2 -1.2 8.95 -1.3 8.7 -1.35 8.7 -1.4 L8.7 -1.45 8.75 -1.5 8.8 -1.5 8.95 -1.4 9.2 -1.35 Q9.45 -1.35 9.6 -1.55 L9.7 -1.8 9.75 -2.05 Q9.8 -2.2 10.05 -2.3 L9.9 -2.4 9.75 -2.4 9.35 -2.3 9.3 -2.3 9.25 -2.35 Q9.25 -2.5 9.35 -2.55 L9.4 -2.6 Q9.5 -2.8 9.85 -2.6 L10.2 -2.6 Q10.45 -2.6 10.55 -2.55 L10.6 -2.4 10.6 -2.1 M9.65 -2.45 L9.65 -2.45 M9.7 -2.65 L9.7 -2.65 M9.8 -1.0 L9.9 -1.05 Q10.05 -1.15 10.1 -1.25 10.15 -1.45 10.35 -1.5 L10.45 -1.55 10.75 -1.6 10.9 -1.55 10.95 -1.45 10.95 -1.3 11.0 -1.15 10.95 -1.0 11.05 -0.95 Q11.1 -0.85 11.15 -0.85 L11.45 -0.85 Q11.75 -0.7 11.75 -0.45 L11.65 -0.3 Q11.6 -0.15 11.5 -0.2 L11.15 -0.25 11.0 -0.2 10.9 -0.05 Q10.85 0.05 10.75 0.1 L10.65 0.15 10.15 0.15 Q10.05 0.15 10.0 0.2 L9.95 0.25 9.75 0.25 9.75 0.2 Q9.75 0.1 10.0 0.0 L10.45 -0.1 Q10.6 -0.15 10.75 -0.25 L10.95 -0.35 10.95 -0.5 10.9 -0.6 10.6 -0.6 10.55 -0.65 10.55 -0.7 Q10.55 -0.75 10.65 -0.85 10.75 -0.9 10.75 -1.0 L10.75 -1.1 10.65 -1.15 Q10.4 -1.25 10.2 -1.1 9.95 -1.0 9.85 -0.95 9.8 -0.95 9.8 -1.0 M9.95 0.15 L9.95 0.15 M7.6 0.25 L7.55 0.2 7.45 0.25 7.55 0.25 7.65 0.3 7.6 0.25 M7.75 0.4 L7.65 0.55 Q7.6 0.65 7.6 0.7 L7.65 1.0 7.65 1.15 7.55 1.35 Q7.4 1.5 7.2 1.5 7.1 1.5 7.0 1.45 L6.95 1.4 6.8 1.3 6.4 1.1 6.35 1.1 6.3 1.15 6.3 1.2 6.25 1.2 6.05 1.3 6.0 1.35 6.0 1.3 6.2 1.1 6.25 0.95 Q6.25 0.9 6.3 0.85 6.55 0.9 6.6 0.9 L6.8 1.05 6.9 1.1 6.95 1.2 7.05 1.2 7.25 1.25 Q7.45 1.15 7.4 1.0 L7.45 0.75 7.35 0.55 7.05 0.55 Q6.9 0.5 6.9 0.45 L6.85 0.3 Q6.85 0.25 6.9 0.2 L7.0 0.2 7.2 0.3 7.45 0.2 Q7.6 0.15 7.7 0.25 L7.75 0.35 7.75 0.4 M-8.75 -1.6 Q-8.75 -1.75 -8.7 -1.85 L-8.6 -1.95 -8.55 -2.05 -8.25 -2.05 -8.2 -2.0 -8.2 -1.95 -8.25 -1.95 Q-8.2 -1.9 -8.2 -1.8 L-8.35 -1.55 Q-8.45 -1.4 -8.45 -1.3 L-8.35 -1.1 Q-8.25 -1.0 -8.15 -1.0 L-7.85 -1.05 -7.8 -1.0 -7.8 -0.95 -7.75 -0.9 -8.0 -0.9 -8.1 -0.85 -8.35 -0.8 Q-8.65 -0.8 -8.7 -1.0 L-8.65 -1.3 -8.75 -1.6 M-8.7 -1.6 L-8.7 -1.75 -8.6 -1.9 -8.65 -1.85 -8.75 -1.7 -8.7 -1.6 M-9.2 -0.9 L-9.15 -0.8 -9.1 -0.75 -9.2 -0.65 -9.25 -0.7 -9.3 -0.65 Q-9.4 -0.6 -9.4 -0.55 L-9.2 -0.25 -8.8 -0.05 -8.6 0.0 -8.55 0.05 -8.65 0.15 -8.85 0.2 -8.95 0.15 -9.0 0.1 -9.15 0.05 -9.2 0.0 -9.5 0.0 Q-9.95 0.0 -9.95 -0.4 -9.95 -0.5 -9.9 -0.6 L-9.75 -0.65 Q-9.65 -0.65 -9.65 -0.7 -9.65 -0.8 -9.6 -0.9 -9.55 -1.05 -9.4 -1.05 L-9.3 -1.0 -9.2 -0.9 M-7.4 -1.15 L-7.4 -1.15 M-7.25 -1.15 L-7.2 -1.1 -7.1 -1.1 -7.05 -1.15 -6.9 -1.15 -6.9 -1.1 Q-6.9 -0.9 -7.4 -0.9 L-7.55 -0.95 Q-7.6 -1.0 -7.6 -1.05 L-7.55 -1.15 Q-7.5 -1.25 -7.45 -1.25 L-7.35 -1.25 Q-7.35 -1.2 -7.35 -1.15 L-7.25 -1.15 M-8.3 -0.9 L-8.3 -0.9 M-5.45 1.15 Q-5.4 1.15 -5.4 1.2 L-5.5 1.35 Q-5.6 1.45 -5.6 1.55 L-5.5 1.65 -5.4 1.65 -5.35 1.7 -4.95 1.65 -4.7 1.6 -4.55 1.55 -4.4 1.6 -4.3 1.6 -4.45 1.7 -4.45 1.75 -4.75 1.75 -5.0 1.85 -5.25 1.9 -5.55 1.95 Q-5.85 1.95 -5.85 1.8 L-5.85 1.6 -5.8 1.4 -5.7 1.25 Q-5.6 1.1 -5.45 1.15 M-5.6 1.25 L-5.6 1.3 -5.55 1.25 -5.6 1.25 M-6.8 1.0 L-6.85 1.1 -6.95 1.1 -7.05 1.05 -7.05 0.85 -6.8 0.9 -6.75 0.95 -6.8 1.0" fill="#ffffff" fill-opacity="0.5019608" fill-rule="evenodd" stroke="none"/>
  </g>
</svg>
