<?xml version="1.0" encoding="UTF-8" standalone="no"?>
<svg xmlns:ffdec="https://www.free-decompiler.com/flash" xmlns:xlink="http://www.w3.org/1999/xlink" ffdec:objectType="shape" height="8.25px" width="28.45px" xmlns="http://www.w3.org/2000/svg">
  <g transform="matrix(1.0, 0.0, 0.0, 1.0, 14.95, 6.25)">
    <path d="M11.25 -5.3 L11.6 -5.3 11.75 -5.4 11.85 -5.3 Q11.85 -5.2 11.5 -5.0 L11.05 -5.1 10.85 -5.05 10.75 -5.0 10.65 -5.0 Q10.6 -5.05 10.6 -5.1 10.6 -5.2 10.8 -5.25 L11.05 -5.35 11.25 -5.3 M12.85 -5.8 Q13.5 -5.75 13.45 -5.3 L13.15 -5.25 Q13.05 -5.25 13.0 -5.35 L12.9 -5.55 12.3 -5.45 11.9 -5.45 Q12.2 -5.8 12.85 -5.8 M12.95 -0.9 L13.25 -1.1 13.35 -1.1 13.4 -0.95 Q13.5 -0.9 13.5 -0.75 13.5 -0.6 13.35 -0.45 L13.05 -0.1 13.05 -0.25 13.2 -0.65 13.25 -0.7 12.5 -0.65 12.35 -0.65 12.35 -0.7 12.45 -0.7 12.45 -0.75 12.95 -0.9 M13.4 -1.0 L13.3 -1.05 13.1 -1.0 13.15 -1.0 Q13.3 -1.05 13.4 -1.0 M11.15 0.45 L11.35 0.45 11.45 0.65 11.5 0.8 Q11.5 0.9 11.4 1.0 11.3 1.15 11.3 1.2 L11.25 1.35 11.15 1.4 10.9 1.45 10.65 1.4 10.6 1.3 10.85 1.1 Q11.15 0.9 11.15 0.8 L11.05 0.7 11.05 0.65 11.1 0.65 11.05 0.55 11.0 0.55 11.0 0.45 11.05 0.5 11.15 0.45 M11.1 1.1 L11.0 1.15 10.95 1.25 11.1 1.2 11.1 1.1 M6.6 0.75 L6.55 0.85 6.4 0.7 6.65 0.45 6.85 0.5 6.9 0.5 6.9 0.6 Q6.9 0.65 6.9 0.7 L6.8 0.7 Q6.7 0.7 6.6 0.75 M-12.55 -6.2 L-12.5 -6.15 Q-12.45 -6.15 -12.45 -6.05 L-12.5 -5.95 -12.6 -5.85 -12.55 -5.85 Q-12.3 -5.8 -12.2 -5.7 -12.1 -5.65 -12.1 -5.55 L-12.1 -5.4 -12.15 -5.35 -12.35 -5.5 Q-12.55 -5.55 -12.6 -5.6 -12.85 -5.55 -12.95 -5.45 L-13.05 -5.35 -13.3 -5.35 -13.3 -5.45 Q-13.3 -5.5 -13.2 -5.75 L-12.95 -6.15 -12.75 -6.25 -12.55 -6.2 M-12.6 -6.1 L-12.75 -6.1 -12.8 -6.05 -12.7 -6.0 -12.6 -6.05 -12.6 -6.1 M-13.05 -5.45 L-13.05 -5.55 -13.1 -5.55 -13.2 -5.45 -13.05 -5.45 M-13.4 -4.75 L-13.05 -4.8 Q-13.0 -4.8 -13.0 -4.65 -13.0 -4.6 -13.1 -4.5 -13.2 -4.4 -13.25 -4.4 L-13.4 -4.4 -13.4 -4.75 M-13.5 -3.65 L-14.15 -3.65 -14.35 -3.45 Q-14.45 -3.4 -14.45 -3.3 L-14.25 -3.1 -14.3 -3.05 -14.4 -3.05 Q-14.5 -3.05 -14.55 -3.1 -14.65 -3.2 -14.8 -3.2 L-14.9 -3.3 -14.95 -3.4 Q-14.95 -3.55 -14.85 -3.7 -14.7 -3.95 -14.45 -3.95 L-13.95 -3.85 Q-13.65 -3.75 -13.45 -3.75 L-13.5 -3.65 M-14.55 -3.8 L-14.6 -3.8 -14.75 -3.65 -14.55 -3.8 M-14.1 -2.7 Q-14.1 -2.65 -14.15 -2.65 L-14.15 -2.6 Q-14.2 -2.6 -14.2 -2.7 L-14.15 -2.8 -14.1 -2.8 -14.1 -2.7 M-14.2 -2.5 L-14.25 -2.45 Q-14.25 -2.4 -14.35 -2.4 L-14.45 -2.4 -14.45 -2.5 Q-14.45 -2.6 -14.3 -2.6 -14.25 -2.6 -14.2 -2.5 M-13.55 -0.4 L-13.5 -0.15 -13.65 0.4 Q-13.85 0.8 -14.45 0.75 L-14.6 0.8 -14.35 1.0 Q-14.25 1.15 -14.2 1.25 L-14.15 1.25 -14.1 1.2 -13.85 1.2 Q-13.75 1.3 -13.7 1.5 -13.7 1.65 -13.5 1.7 -13.3 1.85 -12.5 1.85 L-12.7 2.0 -13.5 1.9 Q-13.75 1.85 -13.85 1.85 -13.9 1.85 -14.0 1.65 -14.1 1.5 -14.35 1.45 L-14.35 1.4 -14.45 1.4 -14.45 1.35 Q-14.45 1.3 -14.5 1.25 L-14.65 1.2 -14.8 1.1 -14.9 0.85 -14.95 0.7 Q-14.95 0.45 -14.55 0.4 L-13.9 0.4 Q-13.75 0.2 -13.7 -0.1 L-13.65 -0.65 -13.6 -0.65 -13.55 -0.4 M-14.7 0.9 L-14.7 1.05 -14.65 1.0 Q-14.6 0.9 -14.65 0.9 L-14.7 0.9" fill="#ffffff" fill-opacity="0.5019608" fill-rule="evenodd" stroke="none"/>
  </g>
</svg>
