<?xml version="1.0" encoding="UTF-8" standalone="no"?>
<svg xmlns:ffdec="https://www.free-decompiler.com/flash" xmlns:xlink="http://www.w3.org/1999/xlink" ffdec:objectType="shape" height="5.3px" width="23.45px" xmlns="http://www.w3.org/2000/svg">
  <g transform="matrix(1.0, 0.0, 0.0, 1.0, 10.8, 3.35)">
    <path d="M10.85 -3.2 L10.85 -3.05 10.75 -2.95 10.65 -3.15 9.95 -3.15 Q9.9 -3.25 9.9 -3.35 L9.95 -3.35 10.0 -3.25 Q10.05 -3.25 10.15 -3.25 L10.35 -3.3 10.6 -3.35 10.8 -3.35 10.85 -3.3 10.85 -3.2 M11.35 -1.85 Q11.3 -1.85 11.3 -1.9 L11.25 -1.85 11.25 -1.9 11.2 -2.0 Q11.2 -2.05 11.25 -2.1 L11.3 -2.15 11.6 -2.1 11.65 -1.95 Q11.8 -1.9 11.8 -1.75 L11.8 -1.65 12.45 -1.5 12.65 -1.15 12.65 -1.05 12.6 -1.0 12.5 -1.0 Q12.4 -1.1 12.4 -1.15 L12.45 -1.2 Q12.45 -1.35 12.35 -1.4 L12.05 -1.45 11.9 -1.45 11.7 -1.5 11.7 -1.6 Q11.6 -1.7 11.6 -1.95 L11.45 -1.9 Q11.35 -1.9 11.4 -1.9 L11.35 -1.85 M11.7 -1.8 L11.75 -1.7 11.75 -1.75 11.7 -1.8 M8.15 0.4 L8.15 0.5 8.25 0.7 8.35 1.0 Q8.35 1.15 8.2 1.3 L8.0 1.2 8.05 1.15 8.05 0.9 8.0 0.7 7.95 0.55 Q7.9 0.55 7.95 0.4 L7.85 0.4 7.85 0.35 8.2 0.35 8.15 0.4 M8.05 0.75 L8.05 0.8 8.15 0.75 8.1 0.65 8.05 0.6 8.05 0.75 M-9.0 -1.9 L-8.85 -2.15 Q-8.7 -2.35 -8.55 -2.4 -8.45 -2.35 -8.45 -2.3 L-8.5 -2.3 Q-8.6 -2.3 -8.7 -2.15 -8.8 -1.95 -8.8 -1.8 -8.85 -1.75 -9.1 -1.75 -9.15 -1.7 -9.1 -1.6 L-9.05 -1.4 -9.05 -1.35 -9.1 -1.35 Q-9.25 -1.4 -9.3 -1.5 L-9.3 -1.65 Q-9.3 -1.75 -9.25 -1.95 L-9.0 -1.9 M-10.25 -1.05 Q-10.1 -1.05 -10.05 -1.1 L-9.95 -1.25 -9.8 -1.25 -9.95 -1.2 -10.2 -0.95 -10.3 -1.0 -10.35 -1.1 -10.45 -0.95 -10.55 -0.85 -10.5 -0.7 -10.45 -0.65 -10.75 -0.65 -10.8 -0.75 Q-10.8 -0.95 -10.45 -1.2 -10.35 -1.2 -10.3 -1.15 L-10.25 -1.05 M-6.2 1.6 L-6.3 1.5 -6.15 1.5 -6.05 1.6 -6.1 1.65 Q-6.2 1.75 -6.3 1.8 L-6.2 1.85 -6.15 1.85 Q-6.05 1.85 -6.05 1.9 -6.1 1.95 -6.2 1.95 L-6.35 1.95 Q-6.35 1.9 -6.4 1.9 L-6.45 1.85 -6.2 1.6" fill="#ffffff" fill-opacity="0.5019608" fill-rule="evenodd" stroke="none"/>
  </g>
</svg>
