<?xml version="1.0" encoding="UTF-8" standalone="no"?>
<svg xmlns:ffdec="https://www.free-decompiler.com/flash" xmlns:xlink="http://www.w3.org/1999/xlink" ffdec:objectType="shape" height="7.35px" width="3.85px" xmlns="http://www.w3.org/2000/svg">
  <g transform="matrix(1.0, 0.0, 0.0, 1.0, 3.75, 5.1)">
    <path d="M-3.25 -0.35 L-3.25 0.35 -3.2 0.65 -3.2 0.7 -3.1 1.2 -2.95 1.7 Q-3.0 2.05 -3.1 2.2 -3.15 2.25 -3.3 2.25 L-3.4 2.25 Q-3.6 2.25 -3.7 1.95 L-3.75 1.65 Q-3.65 1.55 -3.6 1.25 -3.55 0.85 -3.55 0.65 L-3.5 0.6 -3.55 0.05 -3.6 -0.45 Q-3.6 -1.0 -3.45 -0.9 -3.25 -0.85 -3.25 -0.35" fill="#860086" fill-rule="evenodd" stroke="none"/>
    <path d="M-0.05 -2.25 L-0.05 -2.2 0.1 1.15 0.1 1.55 0.0 1.9 Q-0.15 2.25 -0.35 2.25 L-0.65 2.25 Q-1.05 2.2 -1.05 1.65 L-1.05 1.6 -1.0 1.75 -0.9 1.8 -0.95 1.8 -0.95 1.7 -1.0 1.65 -1.0 1.4 Q-1.0 1.2 -0.65 0.15 -0.45 -0.6 -0.4 -1.1 L-0.4 -1.9 Q-0.4 -2.4 -0.55 -3.15 L-0.6 -3.5 -0.6 -3.55 -0.65 -3.7 Q-0.8 -4.05 -0.8 -4.4 -0.8 -4.95 -0.55 -5.05 L-0.4 -5.1 -0.35 -5.0 Q-0.15 -4.85 -0.1 -4.35 L-0.15 -4.3 -0.15 -3.65 Q-0.15 -3.1 -0.05 -2.25" fill="#860086" fill-rule="evenodd" stroke="none"/>
  </g>
</svg>
