<?xml version="1.0" encoding="UTF-8" standalone="no"?>
<svg xmlns:ffdec="https://www.free-decompiler.com/flash" xmlns:xlink="http://www.w3.org/1999/xlink" ffdec:objectType="shape" height="5.8px" width="24.4px" xmlns="http://www.w3.org/2000/svg">
  <g transform="matrix(1.0, 0.0, 0.0, 1.0, 11.15, 3.85)">
    <path d="M10.75 -3.85 L10.85 -3.8 10.95 -3.7 Q10.9 -3.65 10.8 -3.65 10.8 -3.7 10.8 -3.75 L10.6 -3.55 10.4 -3.55 10.55 -3.6 10.75 -3.85 M8.3 -0.05 L8.2 0.05 7.95 0.0 7.95 -0.05 8.15 -0.05 Q8.35 -0.35 8.55 -0.15 8.7 0.0 8.75 0.35 L8.7 0.4 8.6 0.25 Q8.65 0.25 8.65 0.2 L8.55 -0.1 8.4 -0.15 8.3 -0.05 M13.25 -1.8 Q13.25 -1.7 13.1 -1.6 13.0 -1.5 12.85 -1.5 L13.15 -1.75 12.85 -2.15 12.9 -2.15 13.25 -1.8 M12.05 -2.3 Q11.95 -2.3 11.9 -2.35 L11.8 -2.35 11.7 -2.4 12.45 -2.5 Q12.4 -2.5 12.25 -2.4 12.1 -2.35 12.05 -2.3 M12.2 -2.2 L12.15 -2.1 12.1 -2.1 Q12.15 -2.2 12.2 -2.2 M-9.6 -2.25 L-9.6 -2.4 -9.5 -2.55 -9.25 -2.55 -9.1 -2.35 Q-8.95 -2.4 -8.9 -2.5 L-8.85 -2.5 -9.0 -2.25 -9.15 -2.25 -9.25 -2.35 -9.35 -2.5 -9.45 -2.35 -9.5 -2.2 -9.55 -2.15 -9.6 -2.15 -9.6 -2.25 M-10.75 -1.4 L-10.9 -1.35 -11.1 -1.25 -11.15 -1.3 -11.15 -1.35 -11.0 -1.5 Q-10.8 -1.55 -10.7 -1.45 L-10.5 -1.35 -10.55 -1.35 Q-10.65 -1.35 -10.75 -1.4 M-6.55 1.9 L-6.45 1.9 -6.5 1.95 -6.55 1.9" fill="#ffffff" fill-opacity="0.5019608" fill-rule="evenodd" stroke="none"/>
  </g>
</svg>
