<?xml version="1.0" encoding="UTF-8" standalone="no"?>
<svg xmlns:ffdec="https://www.free-decompiler.com/flash" xmlns:xlink="http://www.w3.org/1999/xlink" ffdec:objectType="shape" height="7.6px" width="28.5px" xmlns="http://www.w3.org/2000/svg">
  <g transform="matrix(1.0, 0.0, 0.0, 1.0, 15.2, 6.85)">
    <path d="M13.25 -6.5 L13.3 -6.4 13.15 -6.35 13.15 -6.5 13.25 -6.5 M12.3 0.65 L12.25 0.75 Q12.2 0.75 12.15 0.7 12.15 0.65 12.2 0.65 L12.3 0.65 M-12.6 -6.8 L-12.6 -6.75 -12.8 -6.7 -12.8 -6.75 -12.75 -6.85 Q-12.6 -6.85 -12.6 -6.8 M-14.8 -4.4 Q-14.85 -4.35 -15.05 -4.35 L-15.1 -4.4 -15.05 -4.5 Q-15.0 -4.5 -14.85 -4.4 L-14.8 -4.4 M-15.2 0.05 Q-15.2 -0.05 -15.0 -0.05 L-15.0 0.0 -15.05 0.05 -15.15 0.1 -15.2 0.05" fill="#ffffff" fill-opacity="0.5019608" fill-rule="evenodd" stroke="none"/>
  </g>
</svg>
