<?xml version="1.0" encoding="UTF-8" standalone="no"?>
<svg xmlns:ffdec="https://www.free-decompiler.com/flash" xmlns:xlink="http://www.w3.org/1999/xlink" ffdec:objectType="shape" height="5.9px" width="13.6px" xmlns="http://www.w3.org/2000/svg">
  <g transform="matrix(1.0, 0.0, 0.0, 1.0, 7.45, -8.3)">
    <path d="M3.3 9.7 Q3.3 9.95 3.15 10.05 3.0 10.2 2.65 10.2 L2.0 10.3 Q1.75 10.4 1.6 10.7 1.6 11.2 1.55 11.45 1.4 12.0 0.7 12.0 0.4 12.0 -0.3 11.65 -1.0 11.35 -1.15 11.35 L-1.7 11.45 -2.35 11.45 -3.0 11.4 -3.1 11.35 -3.35 11.3 -3.4 11.25 -3.6 11.25 Q-3.85 11.0 -4.0 10.6 -4.1 10.25 -4.1 9.95 -4.1 9.35 -3.7 8.7 -3.25 8.1 -2.9 8.4 L-2.8 8.4 -2.75 8.45 -2.75 8.5 -3.05 8.85 Q-3.3 9.2 -3.3 9.4 -3.3 9.55 -3.2 9.7 L-2.95 9.95 -2.65 10.0 Q-2.25 10.0 -1.65 9.65 L-0.8 9.2 -0.3 9.15 0.85 9.1 Q1.4 9.1 1.65 8.9 L1.95 8.7 2.4 8.7 Q3.0 9.05 3.1 9.15 3.3 9.35 3.3 9.7 M4.25 10.35 Q4.4 10.45 4.55 10.75 4.65 11.05 4.8 11.15 L5.95 11.85 Q6.15 12.0 6.15 12.5 6.15 12.75 6.0 13.0 5.85 13.3 5.45 13.3 5.1 13.3 4.85 13.2 4.6 13.05 4.35 13.05 L3.85 13.1 3.8 13.45 Q3.75 13.65 3.45 13.75 L2.8 13.65 2.15 13.6 Q1.8 13.6 1.45 13.45 L1.1 13.3 1.0 13.2 1.0 13.15 0.9 13.15 0.85 13.1 0.8 13.1 0.8 13.05 Q0.75 13.0 0.75 12.95 0.75 12.9 0.8 12.85 0.8 12.25 1.3 12.1 L2.1 12.05 Q2.5 12.05 2.75 11.8 3.0 11.5 2.95 11.1 2.95 10.95 3.05 10.8 L3.05 10.65 Q3.15 10.55 3.25 10.45 L3.25 10.4 Q3.4 10.25 3.6 10.15 L3.7 10.15 3.75 10.2 Q4.0 10.25 4.25 10.35 M-5.9 9.2 L-5.35 9.15 Q-5.15 9.3 -5.1 9.4 L-5.1 9.55 Q-5.1 9.75 -5.3 10.15 -5.45 10.55 -5.45 10.7 -5.45 10.9 -5.35 11.1 -4.35 11.2 -4.15 11.3 -4.0 11.45 -3.65 11.55 L-3.65 11.6 -3.55 11.6 -3.5 11.55 Q-3.35 11.65 -3.3 11.75 L-3.2 12.0 Q-3.2 12.1 -3.15 12.2 -2.95 12.4 -2.45 12.4 -2.15 12.4 -1.85 12.25 -1.55 12.15 -1.4 12.15 L-0.8 12.2 -0.45 12.5 -0.15 12.75 Q-0.05 12.85 -0.05 12.95 -0.05 13.2 -0.5 13.4 -1.0 13.6 -1.6 13.65 L-2.35 13.75 Q-2.8 13.8 -2.95 13.9 L-3.2 14.05 -3.55 14.2 -3.85 14.2 -4.05 14.0 -4.25 13.85 Q-4.3 13.75 -4.4 13.65 -4.5 13.6 -4.6 13.55 L-5.6 13.5 -6.15 13.7 Q-6.75 13.85 -6.95 13.85 -7.35 13.85 -7.4 13.7 -7.45 13.65 -7.4 13.5 L-7.3 12.95 Q-7.25 12.6 -7.25 12.35 -7.3 11.95 -7.3 11.8 -7.25 11.45 -6.9 11.3 -6.55 11.1 -6.4 10.75 -6.3 10.5 -6.35 10.15 -6.5 9.3 -5.9 9.2" fill="#ffffff" fill-opacity="0.5019608" fill-rule="evenodd" stroke="none"/>
  </g>
</svg>
