<?xml version="1.0" encoding="UTF-8" standalone="no"?>
<svg xmlns:ffdec="https://www.free-decompiler.com/flash" xmlns:xlink="http://www.w3.org/1999/xlink" ffdec:objectType="shape" height="25.85px" width="3.25px" xmlns="http://www.w3.org/2000/svg">
  <g transform="matrix(1.0, 0.0, 0.0, 1.0, 2.05, 25.25)">
    <path d="M0.7 -22.25 Q0.8 -21.95 0.95 -21.35 L0.95 -21.3 Q1.2 -18.65 1.2 -17.75 1.2 -16.8 1.05 -15.75 L1.05 -15.85 1.0 -17.15 Q0.85 -18.6 0.7 -19.8 0.45 -21.1 0.2 -22.0 L0.0 -22.35 Q-0.2 -22.5 -0.45 -23.0 -0.75 -23.1 -0.9 -23.5 L-0.95 -23.6 -1.0 -23.6 Q-1.15 -23.85 -1.15 -24.25 L-1.1 -24.25 -1.15 -24.35 Q-1.15 -24.8 -1.1 -24.9 -1.05 -25.0 -0.95 -25.05 -0.75 -25.35 -0.3 -25.15 -0.1 -25.1 0.1 -24.5 0.25 -24.05 0.25 -23.8 0.4 -23.5 0.5 -23.15 0.65 -22.75 0.7 -22.25 M0.6 -1.2 Q0.8 -0.65 0.8 0.05 L0.75 0.2 Q0.65 0.55 0.25 0.6 L-0.1 0.6 Q-0.4 0.6 -0.65 0.05 L-0.75 -0.5 Q-0.8 -0.75 -0.8 -1.05 L-0.7 -2.1 -1.05 -4.2 Q-1.15 -5.3 -1.4 -7.25 -1.6 -8.85 -1.8 -10.1 -2.05 -12.4 -2.05 -13.3 -2.05 -14.15 -1.9 -14.55 -1.75 -14.85 -1.5 -14.7 -1.0 -14.35 -1.0 -12.7 -1.0 -12.25 -1.15 -11.55 L-1.2 -11.4 Q-1.35 -11.25 -1.4 -10.75 -1.45 -10.5 -1.45 -9.5 L-1.4 -8.45 -1.3 -7.85 -1.3 -7.75 -1.0 -6.4 -0.8 -5.65 -0.6 -4.65 -0.55 -5.0 -0.35 -6.8 -0.35 -6.95 -0.2 -6.45 -0.25 -6.25 -0.25 -5.5 Q-0.25 -3.45 0.25 -2.15 L0.6 -1.2" fill="#860086" fill-rule="evenodd" stroke="none"/>
  </g>
</svg>
