<?xml version="1.0" encoding="UTF-8" standalone="no"?>
<svg xmlns:ffdec="https://www.free-decompiler.com/flash" xmlns:xlink="http://www.w3.org/1999/xlink" ffdec:objectType="shape" height="4.2px" width="20.35px" xmlns="http://www.w3.org/2000/svg">
  <g transform="matrix(1.0, 0.0, 0.0, 1.0, 9.8, -12.45)">
    <path d="M7.85 13.5 Q7.85 13.45 8.0 13.3 L8.15 13.25 Q8.2 13.2 8.3 13.2 8.35 13.2 8.45 13.25 L8.6 13.35 8.75 13.4 Q9.0 13.4 9.15 13.15 9.3 13.0 9.3 12.85 9.3 12.65 9.55 12.45 9.8 12.45 9.95 12.6 10.05 12.65 10.05 12.75 L10.05 12.85 Q10.05 12.95 9.9 13.1 L9.65 13.3 9.6 13.55 Q9.55 13.75 9.25 13.75 L8.9 13.75 8.75 13.6 8.65 13.55 Q8.45 13.5 8.25 13.5 L8.1 13.5 8.0 13.55 7.9 13.5 Q7.85 13.55 7.85 13.5 M6.45 15.0 L6.55 15.0 6.7 15.1 6.7 15.2 6.65 15.35 6.55 15.5 Q6.6 15.55 7.0 15.7 7.3 15.8 7.3 16.0 7.3 16.15 7.1 16.25 L6.3 16.25 6.1 16.45 Q5.85 16.6 5.3 16.6 L5.05 16.55 4.65 16.5 4.6 16.45 Q4.7 16.35 5.05 16.35 L5.5 16.3 5.65 16.25 5.75 16.15 Q5.9 16.05 5.85 15.9 5.85 15.85 5.85 15.8 5.9 15.75 6.1 15.75 L6.35 15.8 6.4 15.85 Q6.4 15.9 6.5 15.95 L6.6 16.05 6.85 16.05 6.95 15.95 6.9 15.85 Q6.85 15.8 6.8 15.8 6.5 15.75 6.4 15.65 L6.35 15.55 6.25 15.5 6.2 15.4 6.3 15.15 6.35 15.05 Q6.4 15.0 6.45 15.0 M10.0 14.1 Q9.95 14.15 9.65 14.25 L9.4 14.35 8.9 14.35 8.85 14.25 Q9.45 14.25 9.65 14.1 L9.95 13.75 Q10.2 13.65 10.4 13.85 10.55 14.0 10.55 14.15 10.55 14.2 10.45 14.35 L10.35 14.45 10.4 14.6 10.45 14.7 Q10.45 14.9 10.2 15.0 L9.9 15.1 9.75 15.35 Q9.7 15.45 9.35 15.45 9.1 15.45 8.9 15.3 L8.7 15.15 8.75 15.05 9.1 15.1 9.4 15.05 9.6 14.95 10.05 14.75 10.1 14.75 10.1 14.7 10.0 14.6 Q9.95 14.5 9.95 14.45 9.95 14.4 10.05 14.3 L10.2 14.15 10.1 14.1 10.0 14.1 M2.35 16.6 L2.3 16.65 2.15 16.65 1.85 16.6 1.45 16.55 1.4 16.55 Q1.4 16.5 1.55 16.45 L1.9 16.5 Q1.95 16.45 2.1 16.6 L2.35 16.6 M-8.95 14.4 L-9.0 14.55 -8.95 14.7 Q-8.9 14.7 -8.7 14.8 L-8.5 14.85 -8.25 14.85 -7.95 14.8 -7.65 14.7 -7.6 14.7 -7.6 14.75 -7.7 14.85 -7.95 14.95 -8.15 15.05 -8.45 15.1 -8.6 15.0 -8.85 14.95 -8.85 14.9 -9.05 14.85 -9.25 14.95 -9.4 15.1 -9.6 15.1 -9.8 14.95 -9.8 14.9 Q-9.8 14.8 -9.7 14.7 L-9.5 14.55 -9.35 14.35 Q-9.25 14.2 -9.0 14.25 -8.95 14.3 -8.95 14.4 M-8.45 12.9 L-8.4 12.9 -8.35 12.8 Q-8.2 12.8 -8.05 12.9 -7.9 13.05 -7.85 13.1 L-7.85 13.25 -7.9 13.35 Q-7.9 13.4 -7.7 13.55 L-7.0 13.6 -6.5 13.7 -6.5 13.75 Q-6.55 13.9 -6.85 13.95 L-7.0 14.0 -6.95 13.95 -7.2 14.0 -7.8 14.0 Q-8.3 14.0 -8.45 13.9 -8.55 13.8 -8.55 13.7 L-8.5 13.6 -8.4 13.35 -8.45 13.3 -8.5 13.2 -8.55 13.05 -8.5 12.95 -8.45 12.9 M-8.35 13.4 L-8.4 13.45 -8.4 13.5 -8.35 13.4 M-2.3 15.8 L-2.3 15.85 -2.85 15.85 Q-2.9 15.95 -3.4 16.0 L-3.55 16.1 -3.75 16.2 -3.85 16.35 -3.95 16.45 -4.05 16.45 -4.1 16.4 -4.2 16.4 -4.35 16.45 -4.75 16.45 -5.05 16.5 -5.5 16.45 -5.5 16.4 -5.55 16.25 -5.5 16.15 -5.35 16.0 -5.55 16.05 -5.75 16.05 -5.95 16.1 -6.1 16.05 -6.5 16.05 -6.65 16.0 -6.75 15.95 -6.95 15.9 -6.95 15.85 -6.75 15.8 -6.55 15.8 -6.2 15.9 -5.9 16.0 -5.7 15.95 -5.65 15.95 -5.55 15.9 -5.45 15.8 Q-5.35 15.7 -5.0 15.65 L-4.95 15.75 Q-4.95 15.85 -5.0 15.85 L-5.0 15.9 -5.25 16.15 -5.3 16.25 -5.35 16.3 -5.25 16.35 -5.1 16.35 -5.1 16.4 -4.75 16.35 -4.4 16.35 -4.15 16.3 -3.95 16.35 Q-3.7 16.05 -3.45 15.95 L-3.5 15.95 -3.5 15.9 Q-3.45 15.75 -3.05 15.75 L-2.35 15.8 -2.3 15.8 M-3.35 15.85 L-3.35 15.85 M-5.3 15.85 L-5.4 15.95 -5.35 15.95 -5.2 15.8 -5.3 15.85 M-5.75 16.0 L-5.7 16.0 -5.65 15.95 -5.75 16.0 M-6.75 15.9 L-6.75 15.9" fill="#ffffff" fill-opacity="0.5019608" fill-rule="evenodd" stroke="none"/>
  </g>
</svg>
