<?xml version="1.0" encoding="UTF-8" standalone="no"?>
<svg xmlns:ffdec="https://www.free-decompiler.com/flash" xmlns:xlink="http://www.w3.org/1999/xlink" ffdec:objectType="shape" height="9.4px" width="3.9px" xmlns="http://www.w3.org/2000/svg">
  <g transform="matrix(1.0, 0.0, 0.0, 1.0, 3.8, 7.15)">
    <path d="M-2.9 1.8 Q-2.9 2.25 -3.25 2.25 L-3.45 2.25 Q-3.6 2.25 -3.75 2.0 L-3.8 1.7 -3.7 1.45 Q-3.65 1.25 -3.6 1.05 L-3.6 1.0 -3.55 0.8 -3.65 0.2 -3.65 -0.3 -3.6 -0.85 Q-3.6 -1.05 -3.7 -1.3 -3.7 -2.05 -3.45 -2.1 L-3.25 -2.05 Q-3.2 -2.15 -3.2 -1.85 L-3.2 -1.6 Q-3.2 -1.4 -3.25 -1.0 L-3.3 -0.4 Q-3.3 0.15 -3.2 0.7 L-3.1 1.2 -3.05 1.25 Q-2.9 1.4 -2.9 1.55 L-2.9 1.8" fill="#860086" fill-rule="evenodd" stroke="none"/>
    <path d="M-0.05 -2.2 L0.1 1.15 0.1 1.55 0.0 1.9 Q-0.15 2.25 -0.35 2.25 L-0.65 2.25 Q-1.05 2.2 -1.05 1.65 L-1.05 1.35 Q-1.05 1.0 -0.9 0.9 L-0.65 0.15 Q-0.45 -0.6 -0.4 -1.1 L-0.4 -1.9 Q-0.4 -2.05 -0.35 -2.25 -0.35 -3.75 -0.85 -5.1 L-0.9 -5.1 Q-1.15 -5.95 -1.15 -6.45 -1.15 -7.4 -0.8 -7.1 -0.45 -6.85 -0.45 -6.05 -0.45 -5.5 -0.4 -5.1 L-0.35 -5.0 -0.35 -4.95 -0.15 -3.55 Q-0.15 -3.05 -0.05 -2.25 L-0.05 -2.2" fill="#860086" fill-rule="evenodd" stroke="none"/>
  </g>
</svg>
