<?xml version="1.0" encoding="UTF-8" standalone="no"?>
<svg xmlns:ffdec="https://www.free-decompiler.com/flash" xmlns:xlink="http://www.w3.org/1999/xlink" ffdec:objectType="shape" height="8.65px" width="28.55px" xmlns="http://www.w3.org/2000/svg">
  <g transform="matrix(1.0, 0.0, 0.0, 1.0, 14.95, -8.45)">
    <path d="M13.3 9.15 L13.4 9.35 13.4 9.25 13.5 9.4 Q13.55 9.5 13.55 9.6 13.5 9.65 13.4 9.65 13.3 9.4 13.25 9.35 13.15 9.25 12.8 9.1 12.3 9.3 12.25 9.3 L12.45 9.1 Q12.65 8.95 12.75 8.95 L13.15 8.95 13.3 9.15 M12.9 14.0 L12.85 14.05 12.7 14.05 12.85 13.95 12.85 13.9 Q12.85 13.85 13.05 13.6 13.3 13.45 13.45 13.7 13.6 13.85 13.6 14.05 L13.45 14.3 13.35 14.05 Q13.35 13.9 13.25 13.85 13.05 13.9 12.95 13.95 L12.9 14.0 M10.95 9.7 Q10.95 9.75 10.8 9.85 L10.6 9.9 10.6 9.6 Q10.65 9.55 10.9 9.55 10.95 9.55 10.95 9.7 M11.2 16.05 L11.55 15.85 Q11.4 15.8 11.35 15.7 11.3 15.7 11.3 15.6 11.3 15.5 11.5 15.35 L11.7 15.4 Q11.8 15.4 11.8 15.45 L11.75 15.6 11.8 15.7 Q11.85 15.8 11.85 15.85 11.85 16.1 10.95 16.3 10.85 16.4 10.85 16.25 L11.2 16.05 M7.1 15.75 Q7.1 15.8 6.95 15.9 L6.6 15.9 6.55 15.85 Q6.75 15.65 7.05 15.65 L7.1 15.65 7.1 15.75 M-12.2 8.65 Q-12.05 8.75 -12.05 8.9 -12.05 8.95 -12.15 9.1 L-12.25 9.2 -12.25 9.4 -12.3 9.35 Q-12.55 9.35 -12.5 9.15 L-12.4 8.9 Q-12.4 8.8 -12.4 8.85 L-12.45 8.8 -12.6 8.9 -12.7 9.0 -12.85 9.0 -12.85 8.95 -12.9 8.7 -12.8 8.6 Q-12.8 8.5 -12.75 8.45 L-12.45 8.5 -12.4 8.5 -12.3 8.6 -12.2 8.65 M-12.75 8.55 L-12.75 8.55 M-13.25 9.05 L-13.2 9.1 Q-13.25 9.2 -13.35 9.2 L-13.35 9.1 -13.25 9.05 M-13.15 9.15 L-13.2 9.05 Q-13.15 8.95 -13.05 8.95 L-13.05 9.1 -13.15 9.15 M-13.25 10.1 Q-13.15 10.2 -13.15 10.3 -13.15 10.35 -13.2 10.4 L-13.5 10.4 -13.55 10.3 Q-13.55 10.2 -13.5 10.15 -13.45 10.1 -13.45 10.0 -13.3 9.95 -13.25 10.1 M-14.0 10.8 L-14.0 10.9 -13.9 11.0 Q-13.8 11.1 -13.6 11.1 -13.5 11.15 -13.5 11.3 L-13.6 11.35 Q-13.75 11.35 -14.0 11.1 L-14.35 11.1 -14.45 11.15 -14.5 11.2 -14.7 11.3 -14.75 11.35 Q-14.8 11.35 -14.8 11.25 -14.8 11.15 -14.65 10.95 -14.55 10.75 -14.4 10.7 L-14.1 10.75 -14.0 10.8 M-14.6 11.1 L-14.6 11.1 M-14.8 11.65 L-14.75 11.6 -14.55 11.6 -14.55 11.7 -14.7 11.7 Q-14.75 11.7 -14.8 11.65 M-14.65 15.25 L-14.45 15.25 -14.25 15.3 Q-14.0 15.3 -14.0 15.15 -13.95 14.95 -13.85 15.0 L-13.85 14.75 -13.8 14.5 -13.6 14.55 -13.75 15.05 Q-13.85 15.4 -14.05 15.6 L-14.6 15.5 -14.7 15.65 -14.8 15.75 -14.9 15.75 -14.9 15.7 -14.95 15.65 Q-14.95 15.55 -14.85 15.4 L-14.65 15.25 M-13.85 16.65 Q-13.6 16.7 -13.5 16.9 L-13.25 16.85 Q-13.2 16.85 -13.15 16.9 -13.15 16.95 -13.25 17.05 L-13.4 17.05 -13.5 17.1 -13.7 17.0 -14.0 16.95 -14.05 16.95 -14.05 16.85 Q-14.05 16.65 -13.85 16.65" fill="#ffffff" fill-opacity="0.5019608" fill-rule="evenodd" stroke="none"/>
  </g>
</svg>
