<?xml version="1.0" encoding="UTF-8" standalone="no"?>
<svg xmlns:ffdec="https://www.free-decompiler.com/flash" xmlns:xlink="http://www.w3.org/1999/xlink" ffdec:objectType="shape" height="5.65px" width="24.1px" xmlns="http://www.w3.org/2000/svg">
  <g transform="matrix(1.0, 0.0, 0.0, 1.0, 11.1, -11.35)">
    <path d="M12.15 13.1 L12.3 13.1 12.35 13.15 12.15 13.15 Q12.1 13.15 12.1 13.1 12.05 13.1 11.95 13.05 L11.85 12.95 11.65 12.9 11.55 12.95 11.4 12.9 11.35 12.9 11.65 12.8 12.0 12.8 12.1 12.9 12.1 12.95 Q12.2 13.0 12.15 13.1 M11.75 12.8 L11.75 12.85 11.85 12.85 11.75 12.8 M12.8 13.1 L12.85 13.1 Q12.95 13.15 12.95 13.2 L12.95 13.4 12.85 13.5 13.0 13.65 12.95 13.8 Q12.85 13.85 12.8 13.85 12.7 13.85 12.7 13.7 L12.75 13.35 Q12.65 13.25 12.6 13.25 12.65 13.2 12.7 13.15 12.75 13.1 12.8 13.1 M12.9 13.25 L12.9 13.25 M12.8 13.6 L12.8 13.6 M10.1 11.6 L10.1 11.55 10.2 11.6 Q10.55 11.6 10.65 11.5 L10.8 11.35 10.85 11.35 11.0 11.5 11.05 11.65 11.05 11.7 11.0 11.75 Q10.95 11.7 10.95 11.6 L10.85 11.6 10.8 11.55 10.4 11.65 10.05 11.65 10.0 11.55 Q10.05 11.55 10.05 11.6 L10.1 11.6 M7.8 15.2 L8.05 15.15 8.3 15.05 8.45 15.05 8.65 15.45 8.6 15.55 8.55 15.6 Q8.4 15.65 8.4 15.55 L8.4 15.4 8.35 15.3 Q8.25 15.2 8.15 15.2 L7.9 15.25 7.85 15.25 7.8 15.2 M-9.15 12.7 L-8.95 12.75 Q-8.8 12.75 -8.75 12.7 -8.7 12.6 -8.65 12.6 L-8.65 12.7 Q-8.65 12.65 -8.65 12.7 L-8.75 12.85 -8.85 12.9 -9.1 12.9 Q-9.2 12.85 -9.25 12.9 L-9.3 13.05 -9.35 13.35 -9.5 13.25 -9.55 13.2 -9.5 13.1 -9.4 12.95 -9.4 12.7 -9.15 12.7 M-9.2 12.7 L-9.2 12.75 -9.15 12.75 -9.2 12.7 M-10.35 13.6 Q-10.3 13.6 -10.3 13.65 L-10.35 13.75 Q-10.4 13.85 -10.5 13.85 L-10.7 13.8 -10.8 13.8 Q-10.85 13.8 -10.85 13.9 -10.85 14.0 -10.9 14.0 L-11.0 14.0 -11.1 13.9 -11.0 13.75 -10.9 13.65 -10.7 13.65 -10.55 13.7 -10.45 13.7 -10.35 13.6 M-10.2 13.65 L-10.3 13.65 Q-10.25 13.55 -10.2 13.55 L-10.2 13.65 M-6.3 16.9 Q-6.3 17.0 -6.35 17.0 L-6.45 16.95 -6.5 16.95 Q-6.5 16.9 -6.35 16.8 L-6.35 16.85 -6.3 16.9" fill="#ffffff" fill-opacity="0.5019608" fill-rule="evenodd" stroke="none"/>
  </g>
</svg>
