<?xml version="1.0" encoding="UTF-8" standalone="no"?>
<svg xmlns:ffdec="https://www.free-decompiler.com/flash" xmlns:xlink="http://www.w3.org/1999/xlink" ffdec:objectType="shape" height="3.75px" width="24.45px" xmlns="http://www.w3.org/2000/svg">
  <g transform="matrix(1.0, 0.0, 0.0, 1.0, 11.15, -11.05)">
    <path d="M13.1 13.1 L13.15 13.05 13.25 13.05 13.3 13.2 13.3 13.25 13.25 13.3 13.2 13.2 13.2 13.15 13.1 13.1 M11.95 12.5 Q12.0 12.45 12.05 12.45 12.15 12.4 12.2 12.45 L12.1 12.55 12.0 12.55 11.95 12.5 M10.75 11.15 L10.7 11.25 10.6 11.15 10.7 11.05 10.75 11.15 M8.4 14.7 L8.4 14.7 8.65 14.7 8.7 14.75 Q8.7 14.8 8.65 14.8 8.45 14.8 8.4 14.7 M-9.05 12.65 L-9.05 12.6 -9.1 12.55 -8.9 12.5 -8.95 12.6 -9.05 12.65 M-9.35 12.5 L-9.4 12.45 Q-9.45 12.45 -9.5 12.5 L-9.55 12.5 -9.55 12.45 -9.5 12.35 -9.4 12.35 -9.3 12.45 -9.3 12.5 -9.35 12.5 M-11.15 13.55 Q-11.15 13.45 -11.05 13.45 L-10.9 13.5 -11.1 13.6 -11.15 13.55" fill="#ffffff" fill-opacity="0.5019608" fill-rule="evenodd" stroke="none"/>
  </g>
</svg>
