<?xml version="1.0" encoding="UTF-8" standalone="no"?>
<svg xmlns:ffdec="https://www.free-decompiler.com/flash" xmlns:xlink="http://www.w3.org/1999/xlink" ffdec:objectType="shape" height="20.05px" width="21.85px" xmlns="http://www.w3.org/2000/svg">
  <g transform="matrix(1.0, 0.0, 0.0, 1.0, 10.8, 20.1)">
    <path d="M3.95 -18.45 L4.45 -18.2 5.2 -17.75 Q3.5 -18.5 1.7 -18.35 L1.7 -18.25 Q2.6 -18.1 3.4 -17.85 2.1 -18.15 1.3 -18.25 L-1.4 -18.25 -2.5 -18.1 -1.85 -18.3 -1.9 -18.4 -2.0 -18.45 Q-3.1 -18.4 -4.3 -18.0 -5.25 -17.6 -5.9 -17.15 L-6.05 -17.05 -6.0 -17.1 -5.3 -17.65 -5.3 -17.7 -5.25 -17.7 -5.2 -17.75 -4.2 -18.45 -3.7 -18.75 -3.45 -18.85 -1.95 -19.05 0.05 -19.05 Q2.2 -18.9 3.95 -18.45 M6.4 -16.55 Q7.05 -16.1 7.55 -15.6 7.95 -15.2 8.5 -14.45 9.05 -13.65 9.4 -12.75 L9.15 -13.25 8.9 -13.65 8.55 -14.15 8.4 -14.4 8.45 -14.45 Q7.9 -15.0 7.3 -15.45 L7.1 -15.6 Q6.8 -15.8 6.5 -15.95 L5.95 -16.25 5.85 -16.3 6.0 -16.3 6.05 -16.35 4.9 -16.75 3.9 -17.05 2.15 -17.45 2.1 -17.45 Q1.9 -17.55 1.7 -17.55 L0.2 -17.75 0.1 -17.8 -0.95 -17.7 -0.65 -17.7 -1.2 -17.65 Q-2.2 -17.55 -2.4 -17.45 L-2.75 -17.35 -3.05 -17.35 Q-4.05 -17.05 -5.1 -16.5 -5.9 -16.05 -6.7 -15.25 -7.55 -14.4 -7.9 -14.1 -8.65 -13.45 -9.35 -11.85 L-9.35 -11.9 -8.1 -14.55 -7.95 -14.75 -7.9 -14.85 -7.85 -14.9 -7.5 -15.35 -7.45 -15.45 Q-6.7 -16.0 -5.5 -16.6 L-4.6 -17.0 -3.65 -17.45 -1.9 -17.8 -0.55 -17.95 1.25 -17.9 Q2.5 -17.7 3.25 -17.5 L4.5 -17.15 5.65 -16.7 Q6.05 -16.55 6.4 -16.55 M-7.45 -5.8 Q-4.65 -4.05 -0.95 -4.05 -0.85 -4.05 -0.8 -4.15 L0.35 -4.1 Q1.45 -4.1 3.25 -4.5 5.5 -5.05 6.9 -5.9 L8.55 -6.75 9.2 -7.2 Q9.85 -7.55 10.05 -7.5 10.15 -7.45 10.15 -7.3 10.15 -7.1 9.9 -6.95 L9.4 -6.35 Q8.85 -5.7 7.95 -5.0 7.25 -4.4 5.9 -3.6 5.55 -3.35 4.55 -2.95 L3.4 -2.5 3.6 -2.5 2.6 -2.1 2.45 -2.05 2.65 -2.05 Q3.75 -2.1 4.55 -2.45 L4.6 -2.5 4.65 -2.5 Q5.65 -2.8 6.9 -3.55 L7.7 -4.1 8.2 -4.35 Q8.45 -4.45 8.65 -4.6 8.35 -4.2 8.0 -3.85 7.1 -2.95 5.4 -1.9 4.55 -1.35 2.9 -0.95 1.15 -0.55 -0.35 -0.55 L-2.8 -0.65 -4.0 -0.85 Q-4.0 -0.9 -4.15 -0.95 -5.1 -1.1 -6.0 -1.65 -6.75 -2.05 -7.2 -2.55 L-8.15 -3.55 Q-8.6 -4.1 -8.8 -4.5 L-9.15 -5.4 -7.9 -4.35 Q-6.45 -3.2 -4.65 -2.7 L-4.55 -2.65 -1.7 -2.2 -1.0 -2.2 -0.75 -2.25 Q-1.5 -2.4 -2.8 -2.65 -3.45 -2.9 -5.1 -3.55 -6.9 -4.25 -7.45 -4.8 -8.3 -5.35 -9.1 -6.25 L-9.8 -7.15 -10.0 -7.5 -10.05 -8.25 Q-9.9 -7.95 -9.5 -7.45 L-8.7 -6.7 -8.65 -6.65 -8.45 -6.4 Q-8.05 -6.05 -7.45 -5.8 M0.6 -1.75 L-0.5 -1.7 Q-1.05 -1.7 -2.25 -1.9 L-3.95 -2.2 Q-5.0 -2.5 -5.7 -2.75 L-7.05 -3.25 Q-6.7 -2.6 -5.25 -1.9 -3.25 -0.9 -0.85 -0.9 1.1 -0.9 3.0 -1.6 4.0 -1.95 4.7 -2.35 L4.85 -2.45 3.6 -2.1 Q2.9 -1.9 2.5 -1.85 L0.6 -1.75 M3.85 -3.4 Q4.65 -3.75 6.75 -5.15 L7.8 -5.75 8.9 -6.4 9.1 -6.55 8.75 -6.35 Q7.05 -5.45 6.7 -5.35 5.1 -4.65 3.9 -4.35 1.55 -3.65 -1.1 -3.65 -2.5 -3.65 -3.3 -3.8 -3.85 -3.95 -6.4 -4.7 -5.9 -4.4 -5.25 -4.1 -2.55 -2.9 0.4 -2.9 2.6 -2.9 3.85 -3.4" fill="#4d0000" fill-rule="evenodd" stroke="none"/>
    <path d="M3.4 -17.85 Q2.6 -18.1 1.7 -18.25 L1.7 -18.35 Q3.5 -18.5 5.2 -17.75 L4.45 -18.2 3.95 -18.45 Q3.7 -18.6 3.5 -18.7 3.0 -18.85 2.3 -19.15 L2.0 -19.25 Q1.0 -19.5 -0.7 -19.65 L-0.75 -19.65 -1.55 -19.45 -3.3 -18.9 -3.45 -18.85 -3.7 -18.75 -4.2 -18.45 -5.2 -17.75 -5.25 -17.7 -5.3 -17.7 -5.3 -17.65 -6.0 -17.1 -6.05 -17.05 -5.9 -17.15 Q-5.25 -17.6 -4.3 -18.0 -3.1 -18.4 -2.0 -18.45 L-1.9 -18.4 -1.85 -18.3 -2.5 -18.1 Q-4.45 -17.45 -5.6 -16.9 -6.15 -16.6 -6.85 -16.0 L-7.4 -15.55 -7.5 -15.35 -7.85 -14.9 -7.9 -14.85 -7.95 -14.75 -8.1 -14.55 -9.35 -11.9 -9.4 -11.8 -9.35 -11.85 Q-8.65 -13.45 -7.9 -14.1 -7.55 -14.4 -6.7 -15.25 -5.9 -16.05 -5.1 -16.5 -4.05 -17.05 -3.05 -17.35 L-2.75 -17.35 -2.4 -17.45 Q-2.2 -17.55 -1.2 -17.65 L-0.65 -17.7 -0.95 -17.7 0.1 -17.8 0.2 -17.75 1.7 -17.55 Q1.9 -17.55 2.1 -17.45 L2.15 -17.45 3.9 -17.05 4.9 -16.75 6.05 -16.35 6.0 -16.3 5.85 -16.3 5.95 -16.25 6.5 -15.95 Q6.8 -15.8 7.1 -15.6 L7.3 -15.45 Q7.9 -15.0 8.45 -14.45 L8.4 -14.4 8.55 -14.15 8.9 -13.65 9.15 -13.25 9.4 -12.75 Q9.05 -13.65 8.5 -14.45 7.95 -15.2 7.55 -15.6 7.05 -16.1 6.4 -16.55 5.15 -17.3 3.4 -17.85 M5.7 -18.1 Q6.65 -17.5 7.35 -16.85 8.2 -16.1 8.6 -15.5 L8.65 -15.4 9.05 -14.7 8.75 -15.35 8.7 -15.4 Q8.85 -15.4 9.0 -15.2 9.25 -14.9 9.6 -14.2 L9.9 -13.5 10.2 -12.75 Q10.7 -10.9 10.7 -9.9 10.7 -9.5 10.6 -9.1 L10.65 -8.45 10.65 -8.4 10.8 -8.45 Q11.0 -8.3 11.05 -7.9 11.05 -7.05 10.05 -5.9 L9.85 -5.7 9.65 -5.35 Q8.9 -4.05 8.2 -3.25 7.35 -2.3 5.7 -1.4 3.05 -0.05 0.0 -0.05 L-1.0 -0.1 -1.15 -0.15 Q-3.1 -0.35 -4.0 -0.55 L-4.5 -0.7 -4.75 -0.65 Q-5.5 -0.65 -6.6 -1.5 -7.1 -1.9 -7.55 -2.35 -8.45 -3.1 -9.2 -4.25 -9.3 -4.4 -9.8 -5.85 L-9.85 -6.0 -9.9 -6.05 Q-10.8 -6.95 -10.8 -7.75 -10.8 -7.95 -10.7 -8.25 -10.6 -8.75 -10.35 -9.1 -10.2 -9.3 -10.1 -9.3 L-10.1 -10.45 -10.05 -10.8 Q-10.0 -11.8 -9.6 -12.8 L-9.35 -13.5 Q-9.15 -14.3 -8.35 -15.2 L-7.9 -15.6 -7.7 -15.9 Q-6.4 -17.5 -5.1 -18.35 -4.2 -18.95 -3.1 -19.3 -1.4 -20.1 0.05 -20.05 L0.75 -20.1 Q1.8 -20.1 2.9 -19.65 3.5 -19.4 3.9 -19.15 5.0 -18.55 5.7 -18.1 M3.8 -16.6 Q1.2 -17.15 -0.3 -17.2 L-1.95 -17.1 -2.75 -17.0 -2.8 -16.95 -4.0 -16.55 Q-4.5 -16.3 -5.1 -15.95 -6.0 -15.45 -6.75 -14.7 L-7.85 -13.45 Q-8.45 -12.85 -8.8 -12.15 -9.1 -11.6 -9.3 -10.9 -9.45 -10.5 -9.6 -9.6 L-9.8 -8.65 -9.8 -8.45 -9.55 -8.05 -9.2 -7.7 -8.9 -7.35 Q-8.5 -7.0 -7.2 -6.1 -5.15 -4.65 -1.75 -4.45 L1.4 -4.75 Q2.1 -4.85 2.6 -5.0 L3.3 -5.25 Q4.05 -5.45 4.9 -5.75 L6.15 -6.25 Q7.4 -6.7 8.45 -7.3 L8.5 -7.3 Q8.5 -7.35 8.6 -7.4 L9.0 -7.65 9.15 -7.75 9.35 -7.9 Q9.65 -8.05 9.9 -8.45 L9.9 -8.8 Q9.85 -9.7 9.65 -10.65 9.35 -12.0 8.7 -13.2 7.5 -15.4 3.95 -16.55 L3.8 -16.6 M5.45 -17.8 Q6.4 -17.2 7.1 -16.6 L6.8 -16.85 5.75 -17.65 5.45 -17.8 M-8.7 -6.7 L-9.5 -7.45 Q-9.9 -7.95 -10.05 -8.25 L-10.0 -7.5 -9.8 -7.15 -9.1 -6.25 Q-8.3 -5.35 -7.45 -4.8 -6.9 -4.25 -5.1 -3.55 -3.45 -2.9 -2.8 -2.65 -1.5 -2.4 -0.75 -2.25 L-1.0 -2.2 -1.7 -2.2 -4.55 -2.65 -4.65 -2.7 Q-6.45 -3.2 -7.9 -4.35 L-9.15 -5.4 -8.8 -4.5 Q-8.6 -4.1 -8.15 -3.55 L-7.2 -2.55 Q-6.75 -2.05 -6.0 -1.65 -5.1 -1.1 -4.15 -0.95 -4.0 -0.9 -4.0 -0.85 L-2.8 -0.65 -0.35 -0.55 Q1.15 -0.55 2.9 -0.95 4.55 -1.35 5.4 -1.9 7.1 -2.95 8.0 -3.85 8.35 -4.2 8.65 -4.6 8.45 -4.45 8.2 -4.35 L7.7 -4.1 6.9 -3.55 Q5.65 -2.8 4.65 -2.5 L4.6 -2.5 4.55 -2.45 Q3.75 -2.1 2.65 -2.05 L2.45 -2.05 2.6 -2.1 3.6 -2.5 3.4 -2.5 4.55 -2.95 Q5.55 -3.35 5.9 -3.6 7.25 -4.4 7.95 -5.0 8.85 -5.7 9.4 -6.35 L9.9 -6.95 Q10.15 -7.1 10.15 -7.3 10.15 -7.45 10.05 -7.5 9.85 -7.55 9.2 -7.2 L8.55 -6.75 6.9 -5.9 Q5.5 -5.05 3.25 -4.5 1.45 -4.1 0.35 -4.1 L-0.8 -4.15 Q-0.85 -4.05 -0.95 -4.05 -4.65 -4.05 -7.45 -5.8 L-7.75 -5.95 Q-8.25 -6.3 -8.7 -6.7 M-6.05 -17.05 L-6.05 -17.05 M-0.55 -19.7 L-0.55 -19.7" fill="#1a1111" fill-rule="evenodd" stroke="none"/>
    <path d="M3.95 -18.45 Q2.2 -18.9 0.05 -19.05 L-1.95 -19.05 -3.45 -18.85 -3.3 -18.9 -1.55 -19.45 -0.75 -19.65 -0.7 -19.65 Q1.0 -19.5 2.0 -19.25 L2.3 -19.15 Q3.0 -18.85 3.5 -18.7 3.7 -18.6 3.95 -18.45 M-2.5 -18.1 L-1.4 -18.25 1.3 -18.25 Q2.1 -18.15 3.4 -17.85 5.15 -17.3 6.4 -16.55 6.05 -16.55 5.65 -16.7 L4.5 -17.15 3.25 -17.5 Q2.5 -17.7 1.25 -17.9 L-0.55 -17.95 -1.9 -17.8 -3.65 -17.45 -4.6 -17.0 -5.5 -16.6 Q-6.7 -16.0 -7.45 -15.45 L-7.5 -15.35 -7.4 -15.55 -6.85 -16.0 Q-6.15 -16.6 -5.6 -16.9 -4.45 -17.45 -2.5 -18.1 M-9.35 -11.85 L-9.4 -11.8 -9.35 -11.9 -9.35 -11.85 M-8.7 -6.7 Q-8.25 -6.3 -7.75 -5.95 L-7.45 -5.8 Q-8.05 -6.05 -8.45 -6.4 L-8.65 -6.65 -8.7 -6.7 M3.85 -3.4 Q2.6 -2.9 0.4 -2.9 -2.55 -2.9 -5.25 -4.1 -5.9 -4.4 -6.4 -4.7 -3.85 -3.95 -3.3 -3.8 -2.5 -3.65 -1.1 -3.65 1.55 -3.65 3.9 -4.35 5.1 -4.65 6.7 -5.35 7.05 -5.45 8.75 -6.35 L9.1 -6.55 8.9 -6.4 7.8 -5.75 6.75 -5.15 Q4.65 -3.75 3.85 -3.4 M0.6 -1.75 L2.5 -1.85 Q2.9 -1.9 3.6 -2.1 L4.85 -2.45 4.7 -2.35 Q4.0 -1.95 3.0 -1.6 1.1 -0.9 -0.85 -0.9 -3.25 -0.9 -5.25 -1.9 -6.7 -2.6 -7.05 -3.25 L-5.7 -2.75 Q-5.0 -2.5 -3.95 -2.2 L-2.25 -1.9 Q-1.05 -1.7 -0.5 -1.7 L0.6 -1.75 M-6.05 -17.05 L-6.05 -17.05" fill="#800000" fill-rule="evenodd" stroke="none"/>
  </g>
</svg>
