<?xml version="1.0" encoding="UTF-8" standalone="no"?>
<svg xmlns:ffdec="https://www.free-decompiler.com/flash" xmlns:xlink="http://www.w3.org/1999/xlink" ffdec:objectType="shape" height="17.6px" width="2.05px" xmlns="http://www.w3.org/2000/svg">
  <g transform="matrix(1.0, 0.0, 0.0, 1.0, 0.75, 17.1)">
    <path d="M0.65 -17.1 Q1.0 -17.2 1.2 -15.95 L1.2 -14.55 1.25 -13.6 1.25 -13.25 1.3 -13.2 1.2 -12.65 Q1.2 -12.2 1.2 -11.9 1.1 -11.5 0.65 -10.2 0.2 -9.1 0.2 -8.85 0.0 -8.45 -0.1 -7.6 L-0.1 -6.55 -0.15 -6.0 -0.2 -6.0 Q-0.2 -5.7 -0.2 -5.2 L-0.25 -4.55 Q-0.25 -2.85 0.25 -1.8 L0.6 -1.0 Q0.75 -0.55 0.75 0.05 L0.75 0.15 Q0.6 0.45 0.25 0.5 L-0.1 0.5 Q-0.4 0.5 -0.6 0.0 L-0.75 -0.4 Q-0.8 -0.65 -0.75 -0.85 -0.55 -4.05 -0.55 -4.75 L-0.55 -4.85 Q-0.4 -5.75 -0.4 -6.35 L-0.25 -7.2 -0.25 -7.25 Q-0.25 -7.65 0.05 -8.85 L0.05 -8.95 Q0.3 -9.95 0.4 -10.45 L0.5 -10.9 0.5 -10.95 Q0.8 -11.25 0.8 -13.0 L0.8 -13.15 0.85 -13.25 Q0.8 -13.8 0.55 -14.55 0.25 -15.55 0.25 -16.2 0.25 -17.0 0.65 -17.1" fill="#860086" fill-rule="evenodd" stroke="none"/>
  </g>
</svg>
