<?xml version="1.0" encoding="UTF-8" standalone="no"?>
<svg xmlns:ffdec="https://www.free-decompiler.com/flash" xmlns:xlink="http://www.w3.org/1999/xlink" ffdec:objectType="shape" height="23.25px" width="8.65px" xmlns="http://www.w3.org/2000/svg">
  <g transform="matrix(1.0, 0.0, 0.0, 1.0, 4.05, 21.35)">
    <path d="M-1.8 -17.4 Q-1.45 -17.55 -1.25 -16.2 L-1.15 -14.7 -1.05 -13.7 -1.0 -13.3 -1.0 -11.85 Q-1.05 -11.45 -1.4 -10.0 L-1.7 -8.55 Q-1.85 -8.1 -1.85 -7.15 L-1.8 -6.05 -1.8 -5.45 -1.85 -5.45 Q-1.85 -5.15 -1.85 -4.55 L-1.8 -3.9 Q-1.7 -2.1 -1.2 -1.0 L-0.85 -0.2 Q-0.7 0.25 -0.65 0.9 L-0.65 1.05 Q-0.75 1.35 -1.05 1.4 L-1.1 1.45 -1.35 1.45 Q-1.65 1.5 -1.85 1.05 -1.95 0.8 -2.0 0.6 -2.05 0.35 -2.05 0.1 L-2.05 -1.55 Q-2.25 -2.35 -2.65 -3.6 L-2.85 -4.25 -3.15 -5.0 Q-3.4 -5.5 -3.4 -5.95 -3.5 -7.3 -3.1 -7.1 -2.7 -6.9 -2.6 -5.6 L-2.6 -5.1 -2.55 -5.0 -2.05 -3.0 -2.1 -4.1 -2.1 -4.2 Q-2.05 -5.15 -2.05 -5.8 L-1.95 -6.7 -2.0 -6.8 Q-2.0 -7.2 -1.8 -8.5 L-1.85 -8.6 Q-1.65 -9.7 -1.6 -10.25 L-1.55 -10.75 -1.55 -10.8 Q-1.3 -11.1 -1.4 -13.0 L-1.4 -13.2 -1.35 -13.3 Q-1.45 -13.85 -1.7 -14.6 -2.05 -15.7 -2.1 -16.35 -2.15 -17.25 -1.8 -17.4" fill="#860086" fill-rule="evenodd" stroke="none"/>
    <path d="M-1.15 0.2 L-1.1 0.5 Q-1.0 0.7 -1.0 0.95 L-1.05 1.35 Q-1.15 1.8 -1.35 1.85 L-1.6 1.85 -1.65 1.9 Q-2.15 1.9 -2.25 1.3 L-2.25 1.15 -2.3 1.05 -2.3 0.95 Q-2.4 0.55 -2.25 0.35 L-2.15 -0.45 Q-2.05 -1.3 -2.1 -1.9 L-2.15 -2.5 -2.25 -2.8 -2.3 -3.2 Q-2.6 -4.9 -3.4 -6.3 L-3.45 -6.3 Q-3.9 -7.2 -4.0 -7.75 -4.15 -8.8 -3.75 -8.55 -3.3 -8.3 -3.15 -7.45 -3.05 -6.75 -2.9 -6.35 L-2.85 -6.35 -2.85 -6.25 -2.8 -6.25 -2.3 -4.7 Q-2.2 -4.1 -1.95 -3.25 L-1.9 -3.15 -1.75 -2.4 -1.75 -2.45 -1.65 -2.8 -1.45 -2.55 Q-1.3 -2.3 -1.25 -2.05 -1.15 -1.3 -1.1 -0.55 -1.1 -0.15 -1.15 0.2" fill="#860086" fill-rule="evenodd" stroke="none"/>
    <path d="M0.35 -20.8 L-0.05 -21.05 Q-0.15 -21.15 -0.4 -20.85 L-0.5 -20.85 -0.5 -20.65 -0.4 -20.35 -0.35 -20.3 -0.25 -20.35 -0.05 -20.5 Q0.2 -20.5 0.3 -20.15 L0.35 -19.85 Q0.35 -19.6 0.2 -19.35 0.05 -19.05 -0.25 -19.05 L-0.3 -19.05 Q-0.65 -19.25 -0.8 -19.45 -1.0 -19.75 -1.0 -20.35 -1.0 -20.65 -0.85 -21.0 L-0.6 -21.25 -0.55 -21.35 Q-0.2 -21.35 0.1 -21.15 L0.35 -20.8 M1.1 -19.8 L1.1 -19.8 M4.6 -17.15 Q4.3 -16.45 4.15 -16.45 3.6 -16.45 3.45 -16.9 3.35 -17.1 3.4 -17.25 3.4 -17.85 3.6 -17.85 3.8 -17.9 4.1 -17.15 4.2 -17.15 4.3 -17.45 4.35 -17.75 4.6 -17.8 L4.6 -17.15 M0.65 -0.4 L0.65 -0.55 0.75 -0.7 1.25 -0.7 Q1.4 -0.7 1.6 -0.3 L1.6 0.85 1.45 0.9 1.15 0.9 Q0.9 0.9 0.75 0.45 L0.65 0.05 Q0.6 -0.15 0.65 -0.4" fill="#350034" fill-opacity="0.8" fill-rule="evenodd" stroke="none"/>
  </g>
</svg>
