<?xml version="1.0" encoding="UTF-8" standalone="no"?>
<svg xmlns:ffdec="https://www.free-decompiler.com/flash" xmlns:xlink="http://www.w3.org/1999/xlink" ffdec:objectType="shape" height="5.85px" width="1.0px" xmlns="http://www.w3.org/2000/svg">
  <g transform="matrix(1.0, 0.0, 0.0, 1.0, 3.9, 3.6)">
    <path d="M-2.9 1.75 L-2.9 1.8 Q-2.9 2.25 -3.25 2.25 L-3.45 2.25 Q-3.6 2.25 -3.75 2.0 L-3.8 1.7 -3.85 1.35 -3.8 1.0 -3.8 0.9 -3.9 0.55 -3.9 -0.15 -3.75 -0.1 -3.7 -1.25 -3.7 -1.35 Q-3.6 -2.0 -3.6 -2.4 -3.6 -2.85 -3.65 -2.95 L-3.65 -3.0 Q-3.6 -3.35 -3.45 -3.5 L-3.45 -3.55 -3.3 -3.55 Q-3.1 -3.45 -3.1 -3.0 -3.1 -2.7 -3.2 -2.45 L-3.25 -2.35 -3.25 -2.3 -3.3 -2.05 Q-3.4 -1.45 -3.4 -1.05 L-3.45 -0.8 -3.4 -0.4 Q-3.4 0.0 -3.2 0.6 -2.95 1.4 -2.95 1.6 L-2.95 1.85 -3.0 1.9 -2.9 1.85 -2.9 1.75" fill="#860086" fill-rule="evenodd" stroke="none"/>
  </g>
</svg>
