<?xml version="1.0" encoding="UTF-8" standalone="no"?>
<svg xmlns:ffdec="https://www.free-decompiler.com/flash" xmlns:xlink="http://www.w3.org/1999/xlink" ffdec:objectType="shape" height="28.9px" width="7.3px" xmlns="http://www.w3.org/2000/svg">
  <g transform="matrix(1.0, 0.0, 0.0, 1.0, 3.1, 27.45)">
    <path d="M2.2 -21.0 Q2.3 -20.55 2.35 -19.7 L2.35 -18.7 Q2.4 -18.35 2.35 -17.9 L2.3 -16.9 2.25 -16.0 2.2 -15.75 2.2 -15.7 2.15 -15.05 2.1 -14.65 2.1 -14.55 2.0 -13.95 Q1.9 -13.45 1.85 -13.05 1.7 -12.6 1.05 -11.15 L0.7 -10.3 0.85 -10.7 0.85 -10.8 1.3 -12.05 1.55 -12.8 1.75 -14.1 Q1.85 -15.35 1.8 -17.5 L1.8 -18.55 Q1.75 -19.8 1.55 -20.45 L1.1 -21.35 Q1.0 -22.0 1.05 -22.4 1.15 -23.05 1.35 -23.2 1.5 -23.35 1.7 -23.0 2.05 -22.55 2.1 -21.9 2.2 -21.45 2.2 -21.0 M-1.2 -10.95 Q-0.75 -10.6 -0.95 -9.15 -1.0 -8.7 -1.25 -7.4 L-1.55 -5.9 Q-1.65 -5.25 -1.3 -3.25 L-1.2 -2.35 Q-0.85 -4.3 -0.8 -4.9 L-0.8 -5.0 Q-0.55 -5.95 -0.45 -6.6 L0.0 -8.05 -0.15 -6.95 -0.25 -6.3 -0.3 -6.35 Q-0.35 -5.95 -0.45 -5.35 L-0.55 -4.6 Q-0.75 -2.6 -0.4 -1.25 L-0.15 -0.25 Q-0.05 0.3 -0.15 1.0 L-0.15 1.2 Q-0.35 1.45 -0.7 1.45 L-0.8 1.45 -0.85 1.4 -1.05 1.4 Q-1.35 1.35 -1.5 0.75 L-1.6 0.25 -1.6 0.1 -1.55 -1.25 -1.55 -2.05 -1.75 -4.8 Q-1.95 -8.65 -1.85 -9.5 -1.65 -11.3 -1.2 -10.95" fill="#debcfa" fill-rule="evenodd" stroke="none"/>
    <path d="M4.0 -20.7 Q3.8 -20.2 3.55 -20.2 L3.35 -20.25 3.2 -20.35 Q3.2 -20.6 3.25 -21.15 L3.3 -21.85 Q3.0 -22.65 2.65 -22.65 L2.35 -22.55 2.0 -22.35 2.0 -22.3 Q1.95 -22.3 1.95 -22.6 1.95 -23.1 2.3 -23.2 L3.05 -23.15 Q4.2 -22.65 4.2 -21.4 4.2 -21.15 4.0 -20.7 M-0.55 -1.8 L-0.45 -1.95 0.05 -1.95 Q0.25 -1.8 0.35 -1.65 L0.45 -1.6 0.6 -1.2 Q0.75 -0.65 0.75 0.05 L0.75 0.2 Q0.6 0.55 0.25 0.6 L-0.1 0.6 Q-0.4 0.6 -0.6 0.05 L-0.75 -0.5 -0.75 -0.8 -0.6 -0.45 Q-0.55 -0.55 -0.5 -0.7 L-0.55 -1.05 -0.5 -1.15 -0.5 -1.55 -0.55 -1.8 M-3.0 -26.65 Q-2.95 -27.05 -2.6 -27.3 -2.2 -27.6 -1.6 -27.35 L-1.35 -27.3 -0.7 -26.65 -0.5 -26.3 -0.2 -25.35 -0.3 -25.45 Q-0.75 -26.05 -1.15 -26.25 L-1.35 -26.35 -1.5 -26.4 -1.65 -26.5 -2.0 -26.5 -2.0 -26.45 -2.15 -26.2 -2.15 -26.1 -2.1 -26.05 -2.1 -25.7 -2.0 -25.55 Q-1.8 -25.35 -1.8 -25.0 -1.8 -24.8 -1.95 -24.6 -2.1 -24.4 -2.35 -24.4 -2.75 -24.4 -2.95 -25.05 L-3.1 -25.5 -3.1 -26.0 Q-3.1 -26.4 -3.05 -26.55 L-3.0 -26.65" fill="#860086" fill-opacity="0.69803923" fill-rule="evenodd" stroke="none"/>
    <path d="M-0.55 -1.8 L-0.5 -1.55 -0.5 -1.15 -0.55 -1.05 -0.5 -0.7 Q-0.55 -0.55 -0.6 -0.45 L-0.75 -0.8 Q-0.8 -1.0 -0.8 -1.3 L-0.8 -1.8 Q-0.8 -2.55 -1.0 -2.9 L-0.95 -3.05 -0.9 -3.1 Q-0.8 -2.95 -0.65 -2.3 L-0.55 -1.8" fill="#860086" fill-rule="evenodd" stroke="none"/>
  </g>
</svg>
