<?xml version="1.0" encoding="UTF-8" standalone="no"?>
<svg xmlns:ffdec="https://www.free-decompiler.com/flash" xmlns:xlink="http://www.w3.org/1999/xlink" ffdec:objectType="shape" height="20.45px" width="4.3px" xmlns="http://www.w3.org/2000/svg">
  <g transform="matrix(1.0, 0.0, 0.0, 1.0, 5.3, 18.55)">
    <path d="M-4.85 -18.45 L-4.35 -18.45 Q-4.25 -18.4 -4.2 -18.35 -4.15 -18.25 -4.1 -17.9 L-4.1 -17.85 Q-4.05 -17.5 -4.1 -17.3 L-4.15 -17.3 -4.15 -17.25 Q-4.25 -16.85 -4.45 -16.8 -4.55 -16.3 -4.7 -16.2 L-4.8 -15.9 Q-4.9 -15.2 -4.85 -14.1 -4.85 -13.1 -4.75 -11.95 L-4.6 -10.95 -4.6 -10.85 Q-4.85 -11.7 -5.0 -12.4 -5.15 -13.1 -5.3 -15.3 L-5.3 -15.35 Q-5.3 -15.8 -5.25 -16.05 -5.25 -16.45 -5.2 -16.75 -5.2 -17.1 -5.1 -17.3 -5.15 -17.5 -5.1 -17.9 -5.0 -18.35 -4.85 -18.45 M-1.3 -0.3 L-1.1 0.5 Q-1.0 0.7 -1.0 0.95 L-1.05 1.35 Q-1.15 1.8 -1.35 1.85 L-1.6 1.85 -1.65 1.9 Q-1.95 1.9 -2.1 1.65 L-2.15 1.55 Q-2.25 1.0 -2.2 0.5 L-2.05 -0.25 Q-1.85 -1.35 -2.1 -2.95 L-2.25 -3.55 -2.3 -3.7 -2.25 -4.1 -2.25 -4.0 -1.8 -2.6 -1.75 -2.3 -1.7 -3.15 -1.65 -3.75 -1.65 -4.9 Q-1.6 -5.2 -1.65 -5.4 L-1.75 -6.25 -1.95 -7.2 Q-2.1 -7.6 -2.25 -7.7 L-2.3 -7.85 Q-2.5 -8.35 -2.55 -8.7 -2.8 -10.0 -2.45 -10.35 -2.3 -10.5 -2.15 -10.3 -1.95 -10.0 -1.8 -9.3 -1.7 -8.6 -1.55 -6.75 L-1.5 -4.5 Q-1.4 -2.95 -1.3 -2.05 L-1.3 -0.3" fill="#860086" fill-rule="evenodd" stroke="none"/>
  </g>
</svg>
