<?xml version="1.0" encoding="UTF-8" standalone="no"?>
<svg xmlns:ffdec="https://www.free-decompiler.com/flash" xmlns:xlink="http://www.w3.org/1999/xlink" ffdec:objectType="shape" height="23.3px" width="3.85px" xmlns="http://www.w3.org/2000/svg">
  <g transform="matrix(1.0, 0.0, 0.0, 1.0, 3.1, 22.8)">
    <path d="M0.05 -1.6 Q0.25 -1.5 0.35 -1.4 L0.45 -1.35 0.6 -1.0 Q0.75 -0.55 0.75 0.05 L0.75 0.15 Q0.6 0.45 0.25 0.5 L-0.1 0.5 Q-0.4 0.5 -0.6 0.0 L-0.75 -0.4 Q-0.8 -0.65 -0.75 -0.85 L-0.75 -1.2 -0.7 -1.2 -0.45 -1.6 0.05 -1.6 M-3.0 -22.1 Q-2.95 -22.45 -2.6 -22.7 -2.2 -22.95 -1.6 -22.7 L-1.35 -22.65 -1.25 -22.6 -0.7 -22.1 -0.5 -21.85 -0.2 -21.05 -0.3 -21.15 Q-0.75 -21.65 -1.15 -21.8 L-1.35 -21.85 -1.5 -21.95 -1.65 -22.0 -2.0 -22.0 -2.0 -21.95 -2.15 -21.75 -2.15 -21.65 -2.1 -21.65 -2.1 -21.35 -2.0 -21.2 Q-1.8 -21.05 -1.8 -20.75 -1.8 -20.6 -1.95 -20.45 -2.1 -20.25 -2.35 -20.25 -2.75 -20.25 -2.95 -20.8 L-3.1 -21.15 -3.1 -21.6 Q-3.1 -21.9 -3.05 -22.05 L-3.0 -22.1 M-1.85 -20.5 L-1.85 -20.5" fill="#860086" fill-opacity="0.69803923" fill-rule="evenodd" stroke="none"/>
  </g>
</svg>
