<?xml version="1.0" encoding="UTF-8" standalone="no"?>
<svg xmlns:ffdec="https://www.free-decompiler.com/flash" xmlns:xlink="http://www.w3.org/1999/xlink" ffdec:objectType="shape" height="22.9px" width="3.3px" xmlns="http://www.w3.org/2000/svg">
  <g transform="matrix(1.0, 0.0, 0.0, 1.0, 2.8, 22.95)">
    <path d="M0.45 -1.3 L0.5 -1.2 0.45 -0.8 0.45 -0.1 0.25 -0.05 -0.1 -0.05 Q-0.4 -0.05 -0.6 -0.5 L-0.75 -0.95 Q-0.8 -1.15 -0.75 -1.4 L-0.75 -1.55 -0.6 -1.7 0.05 -1.7 Q0.2 -1.75 0.45 -1.3 M-2.15 -22.45 L-2.15 -22.2 -2.05 -21.95 -2.0 -21.85 -1.85 -21.95 -1.6 -22.1 Q-1.3 -22.1 -1.2 -21.75 L-1.15 -21.4 Q-1.15 -21.15 -1.3 -20.9 -1.5 -20.6 -1.8 -20.6 L-1.9 -20.6 Q-2.3 -20.8 -2.5 -21.05 -2.8 -21.35 -2.8 -21.9 -2.8 -22.25 -2.55 -22.6 L-2.2 -22.95 Q-1.75 -22.95 -1.4 -22.75 -1.2 -22.6 -1.05 -22.4 L-1.55 -22.65 Q-1.75 -22.75 -2.05 -22.5 L-2.15 -22.45 M-0.2 -21.3 L-0.2 -21.3" fill="#860086" fill-opacity="0.6" fill-rule="evenodd" stroke="none"/>
  </g>
</svg>
