<?xml version="1.0" encoding="UTF-8" standalone="no"?>
<svg xmlns:ffdec="https://www.free-decompiler.com/flash" xmlns:xlink="http://www.w3.org/1999/xlink" ffdec:objectType="shape" height="27.6px" width="3.25px" xmlns="http://www.w3.org/2000/svg">
  <g transform="matrix(1.0, 0.0, 0.0, 1.0, 0.9, 26.8)">
    <path d="M1.15 -26.45 L0.65 -26.15 Q0.75 -26.35 1.0 -26.55 1.35 -26.8 1.75 -26.8 L1.85 -26.7 2.1 -26.4 Q2.35 -25.95 2.35 -25.55 2.35 -24.85 2.05 -24.5 1.9 -24.2 1.45 -23.95 L1.4 -23.95 Q1.05 -23.95 0.85 -24.3 0.7 -24.65 0.7 -24.95 L0.75 -25.35 Q0.85 -25.75 1.15 -25.75 L1.45 -25.6 1.55 -25.5 1.75 -25.9 1.75 -26.0 1.7 -26.2 1.6 -26.2 Q1.3 -26.55 1.15 -26.45 M0.3 -0.3 L0.15 0.25 Q-0.05 0.8 -0.35 0.8 L-0.7 0.8 -0.9 0.7 -0.9 -0.65 -0.85 -0.75 Q-0.65 -1.25 -0.45 -1.2 L0.2 -1.2 0.3 -1.05 0.3 -0.85 Q0.35 -0.55 0.3 -0.3 M-0.25 -24.85 L-0.25 -24.8 -0.3 -24.75 -0.25 -24.85" fill="#c800c2" fill-opacity="0.8" fill-rule="evenodd" stroke="none"/>
  </g>
</svg>
