<?xml version="1.0" encoding="UTF-8" standalone="no"?>
<svg xmlns:ffdec="https://www.free-decompiler.com/flash" xmlns:xlink="http://www.w3.org/1999/xlink" ffdec:objectType="shape" height="25.95px" width="9.1px" xmlns="http://www.w3.org/2000/svg">
  <g transform="matrix(1.0, 0.0, 0.0, 1.0, 8.2, 24.55)">
    <path d="M-3.55 -24.5 L-3.55 -24.55 -3.5 -24.55 -3.55 -24.5 M-4.25 -23.05 Q-4.1 -23.4 -3.9 -23.25 L-3.7 -23.05 Q-3.65 -22.95 -3.6 -22.75 L-3.65 -22.55 -3.65 -22.3 Q-3.75 -22.05 -3.95 -21.9 -4.25 -21.75 -4.55 -22.05 -4.75 -22.2 -4.8 -22.5 -4.9 -22.65 -4.8 -22.85 L-4.75 -23.0 -4.65 -23.15 -4.7 -22.8 -4.75 -22.7 -4.7 -22.55 -4.7 -22.45 -4.4 -22.45 -4.4 -22.6 -4.25 -23.05" fill="#860086" fill-opacity="0.44705883" fill-rule="evenodd" stroke="none"/>
    <path d="M-1.65 -0.3 L-1.1 -0.35 -1.05 -0.35 Q-0.9 -0.05 -0.9 0.25 L-0.9 0.8 -1.1 0.85 -1.2 0.85 -1.25 0.9 -1.4 0.9 -1.55 0.85 Q-1.55 0.7 -1.65 0.45 L-1.75 0.2 Q-1.8 0.05 -1.65 -0.2 L-1.65 -0.3" fill="#860086" fill-opacity="0.49803922" fill-rule="evenodd" stroke="none"/>
    <path d="M0.85 -21.65 L0.9 -21.35 0.9 -21.0 Q0.85 -20.65 0.65 -20.55 L0.35 -20.8 0.3 -20.85 Q0.3 -21.05 0.4 -21.3 0.55 -21.7 0.8 -21.75 L0.85 -21.65" fill="#666600" fill-opacity="0.29803923" fill-rule="evenodd" stroke="none"/>
    <path d="M-8.2 -17.9 L-8.2 -17.95 Q-7.95 -17.95 -7.75 -17.7 -7.6 -17.45 -7.55 -17.3 -7.55 -17.25 -7.6 -17.25 L-7.8 -16.95 Q-8.0 -17.0 -8.1 -17.3 L-8.2 -17.9 M-1.45 0.3 Q-1.3 0.5 -1.3 0.65 L-1.35 0.9 Q-1.4 1.15 -1.35 1.25 L-1.35 1.3 -1.45 1.35 -1.7 1.35 -1.75 1.4 -1.9 1.35 -2.05 0.9 Q-2.1 0.6 -2.0 0.35 L-1.5 0.25 -1.45 0.3" fill="#860086" fill-opacity="0.49803922" fill-rule="evenodd" stroke="none"/>
    <path d="M-3.55 -20.2 L-3.65 -20.45 Q-3.6 -20.4 -3.55 -20.35 L-3.45 -20.25 Q-3.35 -20.1 -3.4 -19.9 -3.4 -19.7 -3.55 -19.45 -3.75 -19.15 -4.05 -19.2 -4.25 -19.3 -4.35 -19.5 L-4.45 -19.7 -4.5 -19.85 Q-4.55 -20.05 -4.5 -20.2 L-4.35 -20.4 Q-4.2 -20.55 -4.0 -20.3 L-3.8 -19.95 -3.7 -19.8 -3.65 -19.8 -3.5 -19.85 -3.5 -19.95 Q-3.45 -20.0 -3.45 -20.1 L-3.5 -20.1 -3.55 -20.2 M-4.95 -21.4 L-5.0 -21.45 -4.95 -21.45 -4.95 -21.4" fill="#860086" fill-opacity="0.44705883" fill-rule="evenodd" stroke="none"/>
  </g>
</svg>
