<?xml version="1.0" encoding="UTF-8" standalone="no"?>
<svg xmlns:ffdec="https://www.free-decompiler.com/flash" xmlns:xlink="http://www.w3.org/1999/xlink" ffdec:objectType="shape" height="14.85px" width="8.95px" xmlns="http://www.w3.org/2000/svg">
  <g transform="matrix(1.0, 0.0, 0.0, 1.0, 4.2, 13.65)">
    <path d="M-1.85 -11.1 Q-1.5 -11.2 -1.3 -10.35 L-1.15 -9.4 -1.05 -8.75 -1.05 -8.5 -1.0 -8.45 -1.05 -8.1 -1.05 -7.6 Q-1.05 -7.3 -1.45 -6.4 L-1.75 -5.45 Q-1.9 -5.15 -1.9 -4.55 L-1.85 -3.9 -1.9 -3.5 -1.95 -3.5 Q-1.9 -3.3 -1.9 -2.9 L-1.85 -2.5 Q-1.75 -1.35 -1.25 -0.65 L-0.85 -0.15 Q-0.7 0.15 -0.65 0.55 L-0.65 0.65 Q-0.75 0.85 -1.1 0.9 L-1.25 0.9 -1.25 0.95 -1.4 0.95 Q-1.7 0.95 -1.9 0.65 -2.0 0.5 -2.05 0.35 -2.1 0.2 -2.1 0.05 L-2.1 -1.0 Q-2.35 -1.5 -2.75 -2.3 L-2.95 -2.7 -3.3 -3.2 Q-3.5 -3.5 -3.5 -3.8 -3.6 -4.65 -3.2 -4.55 -2.8 -4.4 -2.7 -3.6 L-2.7 -3.25 -2.65 -3.2 -2.1 -1.9 -2.15 -2.6 -2.15 -2.7 Q-2.1 -3.3 -2.1 -3.7 L-2.05 -4.3 -2.05 -4.35 Q-2.05 -4.6 -1.9 -5.45 L-1.9 -5.5 Q-1.7 -6.2 -1.65 -6.55 L-1.6 -6.85 -1.6 -6.9 Q-1.35 -7.1 -1.45 -8.3 L-1.45 -8.45 -1.4 -8.5 Q-1.5 -8.85 -1.75 -9.35 -2.1 -10.05 -2.15 -10.45 -2.2 -11.0 -1.85 -11.1" fill="#860086" fill-rule="evenodd" stroke="none"/>
    <path d="M-1.2 0.1 L-1.15 0.3 Q-1.05 0.45 -1.05 0.6 L-1.1 0.85 Q-1.2 1.15 -1.4 1.2 L-1.7 1.2 Q-2.2 1.2 -2.3 0.8 L-2.35 0.8 -2.35 0.65 -2.4 0.6 Q-2.45 0.35 -2.3 0.25 L-2.2 -0.3 Q-2.1 -0.85 -2.15 -1.25 L-2.25 -1.6 -2.35 -1.8 -2.35 -2.05 Q-2.65 -3.1 -3.55 -4.05 L-3.55 -4.0 Q-4.05 -4.6 -4.1 -4.95 -4.3 -5.6 -3.85 -5.45 -3.45 -5.3 -3.25 -4.75 -3.15 -4.35 -3.0 -4.05 L-2.95 -4.05 -2.95 -4.0 -2.9 -4.0 -2.4 -3.0 Q-2.3 -2.6 -2.0 -2.1 L-2.0 -2.0 -1.85 -1.55 -1.7 -1.8 -1.5 -1.6 Q-1.35 -1.45 -1.3 -1.3 -1.2 -0.85 -1.15 -0.35 -1.15 -0.1 -1.2 0.1" fill="#860086" fill-rule="evenodd" stroke="none"/>
    <path d="M0.35 -12.7 Q0.35 -12.5 0.2 -12.35 0.05 -12.15 -0.25 -12.15 L-0.3 -12.15 Q-0.65 -12.3 -0.8 -12.45 -1.05 -12.65 -1.05 -13.0 -1.05 -13.2 -0.85 -13.4 L-0.65 -13.55 -0.55 -13.65 Q-0.2 -13.65 0.1 -13.5 L0.4 -13.3 Q0.35 -13.3 -0.05 -13.45 -0.2 -13.5 -0.4 -13.35 L-0.5 -13.35 -0.5 -13.3 -0.55 -13.2 -0.45 -13.0 -0.4 -12.95 -0.3 -13.0 -0.05 -13.1 Q0.2 -13.1 0.3 -12.9 L0.35 -12.7 M1.15 -12.6 L1.1 -12.6 1.1 -12.65 1.15 -12.6 M4.75 -10.95 Q4.45 -10.55 4.3 -10.55 3.7 -10.55 3.55 -10.8 3.45 -10.95 3.5 -11.0 3.5 -11.4 3.7 -11.4 3.95 -11.45 4.25 -10.95 4.35 -10.95 4.45 -11.15 4.5 -11.35 4.75 -11.4 L4.75 -10.95 M0.65 -0.25 L0.65 -0.35 0.75 -0.45 1.3 -0.45 Q1.45 -0.45 1.65 -0.2 L1.7 -0.15 1.65 0.15 1.65 0.55 1.5 0.6 1.2 0.6 Q0.95 0.6 0.75 0.3 L0.65 0.05 Q0.65 -0.1 0.65 -0.25" fill="#350034" fill-opacity="0.8" fill-rule="evenodd" stroke="none"/>
  </g>
</svg>
