<?xml version="1.0" encoding="UTF-8" standalone="no"?>
<svg xmlns:ffdec="https://www.free-decompiler.com/flash" xmlns:xlink="http://www.w3.org/1999/xlink" ffdec:objectType="shape" height="21.35px" width="5.1px" xmlns="http://www.w3.org/2000/svg">
  <g transform="matrix(1.0, 0.0, 0.0, 1.0, 6.2, 19.45)">
    <path d="M-3.0 -2.6 L-3.0 -2.75 -2.65 -1.7 -2.55 -1.45 -2.6 -1.9 Q-2.55 -2.6 -2.55 -4.1 L-2.4 -4.05 Q-2.4 -4.0 -2.4 -4.05 L-2.35 -3.85 Q-2.2 -2.95 -2.15 -1.45 L-2.05 0.45 -2.0 0.5 Q-1.95 0.7 -1.95 0.95 L-2.0 1.35 Q-2.05 1.8 -2.3 1.85 L-2.55 1.85 -2.6 1.9 Q-2.9 1.9 -3.05 1.65 L-3.05 1.55 Q-3.15 1.0 -3.1 0.5 L-2.95 -0.25 Q-2.8 -1.1 -2.95 -2.25 L-2.95 -2.3 -3.0 -2.6 M-2.8 -6.9 L-2.9 -7.8 Q-3.05 -8.8 -3.75 -10.15 L-4.5 -11.65 Q-4.8 -13.4 -4.25 -12.85 -3.7 -12.3 -3.35 -10.95 L-3.05 -9.35 -2.8 -8.2 -2.55 -6.9 Q-2.45 -6.05 -2.6 -5.65 L-2.65 -5.7 -2.8 -6.9 M-4.95 -19.2 L-4.9 -19.2 Q-4.75 -19.15 -4.6 -18.95 -4.45 -18.75 -4.4 -18.5 L-4.4 -18.2 Q-4.4 -17.95 -4.6 -17.9 L-4.8 -17.95 -5.1 -17.85 Q-5.4 -17.5 -5.6 -16.9 -5.75 -16.6 -5.8 -15.95 -5.85 -15.3 -5.85 -15.05 -6.0 -13.9 -5.95 -13.1 -5.9 -12.6 -5.7 -11.45 L-5.7 -11.35 -5.95 -12.4 Q-6.05 -13.1 -6.2 -15.3 L-6.2 -15.35 Q-6.2 -15.8 -6.15 -16.05 -6.2 -16.45 -6.1 -16.75 -6.1 -17.1 -6.05 -17.3 L-6.05 -17.5 -5.95 -18.25 -5.85 -18.4 -5.85 -18.55 -5.8 -18.8 -5.6 -19.35 -5.5 -19.45 Q-5.15 -19.5 -4.95 -19.2" fill="#860086" fill-rule="evenodd" stroke="none"/>
    <path d="M-1.1 -11.7 Q-1.15 -11.5 -1.25 -11.45 L-1.45 -11.6 -1.45 -11.65 Q-1.45 -11.75 -1.4 -11.95 -1.3 -12.15 -1.15 -12.2 L-1.1 -12.1 -1.1 -11.7" fill="#860086" fill-opacity="0.29803923" fill-rule="evenodd" stroke="none"/>
    <path d="M-4.35 -13.1 L-4.25 -13.35 Q-4.15 -13.55 -4.0 -13.45 L-3.9 -13.35 Q-3.85 -13.25 -3.85 -13.1 L-3.9 -13.0 -3.9 -12.85 Q-3.95 -12.7 -4.1 -12.6 -4.3 -12.5 -4.45 -12.7 -4.6 -12.85 -4.6 -13.05 -4.65 -13.15 -4.6 -13.25 L-4.5 -13.45 -4.55 -13.25 -4.6 -13.15 -4.55 -13.05 -4.55 -13.0 -4.4 -12.95 -4.35 -13.1" fill="#860086" fill-opacity="0.44705883" fill-rule="evenodd" stroke="none"/>
    <path d="M-3.45 1.2 L-3.4 1.15 -3.05 1.15 Q-3.0 1.35 -3.0 1.55 L-3.0 1.9 -3.4 1.9 Q-3.4 1.8 -3.45 1.65 L-3.55 1.45 Q-3.55 1.35 -3.45 1.2" fill="#860086" fill-opacity="0.49803922" fill-rule="evenodd" stroke="none"/>
  </g>
</svg>
