<?xml version="1.0" encoding="UTF-8" standalone="no"?>
<svg xmlns:ffdec="https://www.free-decompiler.com/flash" xmlns:xlink="http://www.w3.org/1999/xlink" ffdec:objectType="shape" height="24.85px" width="2.6px" xmlns="http://www.w3.org/2000/svg">
  <g transform="matrix(1.0, 0.0, 0.0, 1.0, 2.15, 24.9)">
    <path d="M-1.25 -24.85 L-1.25 -24.85 M-1.75 -23.0 L-1.75 -23.1 Q-1.6 -23.5 -1.4 -23.5 L-1.25 -23.5 -1.15 -23.25 Q-1.05 -23.05 -1.05 -22.9 -1.05 -22.75 -1.15 -22.55 -1.3 -22.25 -1.6 -22.25 L-1.7 -22.3 -1.85 -22.4 -1.8 -22.4 -1.75 -22.45 -1.75 -23.0" fill="#860086" fill-opacity="0.29803923" fill-rule="evenodd" stroke="none"/>
    <path d="M0.25 -0.05 L-0.1 -0.05 Q-0.25 -0.05 -0.35 -0.15 L-0.4 -0.6 Q-0.4 -0.95 -0.05 -0.95 0.4 -0.95 0.4 -0.45 L0.45 -0.1 0.25 -0.05" fill="#860086" fill-opacity="0.4" fill-rule="evenodd" stroke="none"/>
  </g>
</svg>
