<?xml version="1.0" encoding="UTF-8" standalone="no"?>
<svg xmlns:ffdec="https://www.free-decompiler.com/flash" xmlns:xlink="http://www.w3.org/1999/xlink" ffdec:objectType="shape" height="26.9px" width="3.25px" xmlns="http://www.w3.org/2000/svg">
  <g transform="matrix(1.0, 0.0, 0.0, 1.0, 1.65, 25.5)">
    <path d="M0.05 -3.0 Q0.15 -2.35 0.25 -1.95 L0.35 -0.2 Q0.35 0.1 0.3 0.35 L0.2 0.85 Q-0.05 1.4 -0.35 1.4 L-0.7 1.4 Q-1.1 1.35 -1.2 1.05 L-1.25 0.9 Q-1.25 0.2 -1.05 -0.35 L-0.7 -1.3 Q-0.3 -2.3 -0.2 -3.75 L-0.2 -4.2 -0.15 -4.4 0.05 -3.0 M1.45 -24.7 Q1.6 -24.45 1.6 -24.1 L1.55 -23.75 Q1.45 -23.4 1.25 -23.4 1.15 -23.4 1.0 -23.55 0.85 -23.55 0.6 -23.4 0.15 -23.05 -0.25 -22.35 -0.5 -22.0 -0.7 -21.25 L-1.0 -20.1 Q-1.4 -18.75 -1.5 -17.75 -1.6 -17.1 -1.6 -15.65 L-1.6 -15.55 -1.65 -16.9 Q-1.65 -17.8 -1.4 -20.45 L-1.4 -20.55 Q-1.25 -21.1 -1.15 -21.45 -1.1 -21.9 -0.95 -22.3 -0.85 -22.65 -0.7 -22.95 L-0.65 -23.2 -0.35 -24.1 -0.2 -24.25 -0.2 -24.45 -0.05 -24.7 0.35 -25.4 0.5 -25.5 Q0.9 -25.5 1.1 -25.1 L1.1 -25.05 Q1.3 -24.95 1.45 -24.7" fill="#c800c2" fill-opacity="0.8" fill-rule="evenodd" stroke="none"/>
  </g>
</svg>
