<?xml version="1.0" encoding="UTF-8" standalone="no"?>
<svg xmlns:ffdec="https://www.free-decompiler.com/flash" xmlns:xlink="http://www.w3.org/1999/xlink" ffdec:objectType="shape" height="30.3px" width="2.45px" xmlns="http://www.w3.org/2000/svg">
  <g transform="matrix(1.0, 0.0, 0.0, 1.0, 2.9, 29.5)">
    <path d="M-2.2 -29.1 L-2.2 -29.1 M-2.85 -29.5 L-2.9 -29.45 -2.9 -29.5 -2.85 -29.5 M-2.3 -28.05 L-2.45 -28.05 -2.35 -28.1 -2.3 -28.1 -2.3 -28.05" fill="#860086" fill-opacity="0.14901961" fill-rule="evenodd" stroke="none"/>
    <path d="M-2.0 -27.1 L-2.0 -27.1 M-2.45 -28.05 L-2.3 -28.05 -2.25 -27.95 -2.25 -27.8 Q-2.25 -27.65 -2.3 -27.4 L-2.45 -27.15 -2.65 -27.45 -2.65 -27.5 Q-2.65 -27.85 -2.5 -28.05 L-2.45 -28.05 M-0.45 0.4 L-0.55 0.8 -0.9 0.8 -0.95 0.75 -1.1 0.75 -1.05 0.65 Q-1.0 0.05 -0.9 -0.1 -0.45 0.1 -0.45 0.4" fill="#debcfa" fill-rule="evenodd" stroke="none"/>
  </g>
</svg>
