<?xml version="1.0" encoding="UTF-8" standalone="no"?>
<svg xmlns:ffdec="https://www.free-decompiler.com/flash" xmlns:xlink="http://www.w3.org/1999/xlink" ffdec:objectType="shape" height="28.8px" width="8.7px" xmlns="http://www.w3.org/2000/svg">
  <g transform="matrix(1.0, 0.0, 0.0, 1.0, 0.5, 28.0)">
    <path d="M0.95 -28.0 L0.95 -28.0 M2.5 -26.55 L2.4 -26.2 2.3 -26.1 2.3 -26.05 2.35 -25.9 2.35 -25.8 2.55 -25.7 2.6 -25.7 2.7 -25.9 2.95 -26.35 3.05 -26.45 3.45 -26.4 3.55 -26.2 Q3.6 -26.05 3.6 -25.8 L3.5 -25.6 3.4 -25.3 Q3.3 -25.05 3.05 -25.0 2.7 -24.85 2.4 -25.3 2.2 -25.55 2.2 -25.85 2.2 -26.1 2.3 -26.25 L2.4 -26.45 2.5 -26.55 M0.4 -26.55 L0.0 -26.55 0.4 -26.6 0.4 -26.55 M8.05 -22.5 Q7.95 -22.15 7.7 -22.1 L7.45 -22.45 Q7.4 -22.45 7.4 -22.5 7.45 -22.7 7.6 -23.0 7.85 -23.35 8.15 -23.35 L8.2 -23.25 8.15 -22.9 8.05 -22.5 M-0.5 -26.55 L-0.5 -26.55 M0.45 -0.6 L1.1 -0.5 1.1 -0.45 Q1.2 -0.15 1.15 0.25 L1.0 0.8 0.55 0.8 0.5 0.75 0.45 0.75 0.3 0.7 Q0.3 0.55 0.25 0.25 0.2 -0.1 0.2 -0.15 0.25 -0.3 0.4 -0.55 L0.45 -0.6" fill="#420040" fill-rule="evenodd" stroke="none"/>
  </g>
</svg>
