<?xml version="1.0" encoding="UTF-8" standalone="no"?>
<svg xmlns:ffdec="https://www.free-decompiler.com/flash" xmlns:xlink="http://www.w3.org/1999/xlink" ffdec:objectType="shape" height="24.15px" width="3.4px" xmlns="http://www.w3.org/2000/svg">
  <g transform="matrix(1.0, 0.0, 0.0, 1.0, 5.7, 22.75)">
    <path d="M-5.2 -22.75 L-5.2 -22.75 M-5.3 -21.55 Q-5.15 -21.4 -5.1 -21.15 L-5.1 -21.1 -5.2 -20.85 -5.35 -21.0 Q-5.45 -21.2 -5.45 -21.3 L-5.45 -21.55 -5.4 -21.6 -5.3 -21.55 M-5.55 -20.7 L-5.55 -20.65 -5.6 -20.75 -5.55 -20.7" fill="#860086" fill-opacity="0.14901961" fill-rule="evenodd" stroke="none"/>
    <path d="M-2.75 1.4 L-2.85 1.05 Q-2.85 0.8 -2.5 0.65 -2.45 0.8 -2.35 1.25 L-2.3 1.3 -2.4 1.35 -2.6 1.35 -2.7 1.4 -2.75 1.4" fill="#860086" fill-opacity="0.2" fill-rule="evenodd" stroke="none"/>
  </g>
</svg>
