<?xml version="1.0" encoding="UTF-8" standalone="no"?>
<svg xmlns:ffdec="https://www.free-decompiler.com/flash" xmlns:xlink="http://www.w3.org/1999/xlink" ffdec:objectType="shape" height="30.3px" width="1.15px" xmlns="http://www.w3.org/2000/svg">
  <g transform="matrix(1.0, 0.0, 0.0, 1.0, 0.15, 29.5)">
    <path d="M1.0 0.4 L0.9 0.8 0.55 0.8 0.5 0.75 0.35 0.75 0.4 0.65 Q0.45 0.05 0.55 -0.1 1.0 0.1 1.0 0.4 M0.65 -27.1 L0.65 -27.1 M0.4 -28.1 L0.4 -27.95 0.45 -27.8 Q0.45 -27.65 0.35 -27.4 L0.2 -27.15 0.0 -27.45 0.0 -27.5 Q0.05 -27.85 0.2 -28.05 L0.35 -28.1 0.4 -28.1 M0.55 -29.1 L0.55 -29.1 M-0.1 -29.5 L-0.15 -29.45 -0.15 -29.5 -0.1 -29.5" fill="#420040" fill-rule="evenodd" stroke="none"/>
  </g>
</svg>
