<?xml version="1.0" encoding="UTF-8" standalone="no"?>
<svg xmlns:ffdec="https://www.free-decompiler.com/flash" xmlns:xlink="http://www.w3.org/1999/xlink" ffdec:objectType="shape" height="33.65px" width="37.15px" xmlns="http://www.w3.org/2000/svg">
  <g transform="matrix(1.0, 0.0, 0.0, 1.0, 19.0, 27.95)">
    <path d="M3.35 -25.75 L3.4 -25.8 Q3.75 -26.95 4.2 -27.95 3.8 -26.6 3.35 -25.3 L3.3 -25.15 3.3 -25.4 2.15 -22.2 2.1 -22.25 2.05 -22.25 3.35 -25.75 M3.55 -21.35 L3.5 -21.35 3.05 -20.6 2.9 -20.5 3.25 -21.05 3.0 -20.75 2.95 -20.7 Q3.45 -21.5 4.0 -22.35 4.0 -22.4 4.05 -22.35 L3.75 -21.8 3.8 -21.85 Q3.75 -21.6 3.55 -21.35 M4.9 -23.25 Q4.25 -22.25 3.8 -21.1 L3.75 -21.05 3.7 -21.05 Q4.1 -22.2 4.85 -23.25 L4.9 -23.25 M2.9 -21.3 Q2.55 -20.45 2.1 -19.65 L1.9 -19.45 2.85 -21.3 2.9 -21.3 M4.45 -21.05 Q4.15 -20.65 4.0 -20.1 L3.95 -20.3 4.3 -21.05 4.35 -21.1 4.45 -21.05 M3.8 -20.9 L3.7 -20.6 3.65 -20.7 Q3.65 -20.8 3.8 -20.9 M4.05 -19.8 L3.75 -19.05 3.75 -19.0 3.65 -18.95 3.8 -19.4 4.0 -19.75 4.05 -19.8 M5.65 -19.1 Q6.55 -20.15 7.6 -21.1 L7.7 -21.15 5.9 -19.3 6.8 -20.15 3.85 -16.8 1.75 -14.5 1.55 -14.4 Q2.85 -16.0 4.25 -17.55 L5.75 -19.15 5.65 -19.1 M1.45 -20.6 L-0.15 -16.75 -0.2 -16.8 1.25 -20.4 Q1.3 -20.55 1.45 -20.6 M1.1 -19.55 Q0.9 -18.75 0.55 -18.0 L0.45 -17.95 1.05 -19.5 1.1 -19.55 M2.25 -17.9 Q1.95 -17.35 1.55 -16.85 L1.5 -16.85 2.2 -17.9 2.25 -17.9 M1.5 -17.85 L1.3 -17.4 1.35 -17.45 1.2 -17.15 1.35 -17.35 1.45 -17.35 Q1.3 -17.1 1.1 -16.9 L0.95 -16.45 0.85 -16.3 Q0.9 -16.6 1.0 -16.85 L0.75 -16.5 1.45 -17.85 1.55 -17.95 Q1.6 -18.05 1.6 -18.1 L1.65 -18.15 1.65 -18.0 Q1.65 -17.9 1.5 -17.85 M2.0 -17.1 Q2.1 -17.3 2.25 -17.35 2.1 -16.85 1.85 -16.4 L1.8 -16.35 Q1.8 -16.65 2.0 -17.1 M2.1 -16.75 Q1.9 -16.15 1.55 -15.55 L1.6 -15.8 2.05 -16.75 2.1 -16.75 M0.6 -16.4 L0.0 -15.35 -0.1 -15.35 Q0.15 -15.85 0.5 -16.35 L0.6 -16.4 M1.95 -14.5 L2.3 -14.75 2.4 -14.75 Q2.25 -14.55 2.0 -14.45 L1.95 -14.5 M2.0 -15.15 Q2.65 -15.85 3.15 -16.65 L3.2 -16.65 Q2.8 -15.85 2.05 -15.2 L2.0 -15.15 M2.3 -14.3 L3.3 -15.05 3.4 -15.05 2.35 -14.25 2.3 -14.3 M3.45 -14.75 Q3.0 -14.35 2.45 -14.1 L2.45 -14.2 3.35 -14.75 3.45 -14.75 M5.45 -14.25 L5.8 -14.3 3.8 -13.7 3.5 -13.7 Q4.45 -14.05 5.45 -14.25 M7.55 -12.2 Q6.2 -12.1 4.85 -12.2 L4.8 -12.2 5.0 -12.3 7.55 -12.25 7.55 -12.2 M8.4 -10.2 L8.35 -10.15 5.45 -10.35 5.45 -10.45 8.4 -10.2 M8.65 -10.85 L8.65 -10.75 4.95 -10.95 5.15 -11.05 8.65 -10.85 M6.55 -11.55 L5.7 -11.6 5.65 -11.65 6.55 -11.55 M6.75 -9.95 L5.1 -10.0 5.3 -10.1 6.7 -9.95 6.75 -9.95 M7.05 -9.4 L5.65 -9.65 5.45 -9.75 Q6.2 -9.65 7.0 -9.4 L7.05 -9.4 M6.65 -7.25 L6.95 -7.25 8.25 -6.85 Q7.45 -7.0 6.65 -7.25 M8.15 -7.45 L11.6 -6.45 11.6 -6.4 Q9.8 -6.75 8.15 -7.45 M5.35 -12.45 L5.45 -12.5 5.5 -12.55 6.8 -12.45 5.35 -12.45 M5.7 -12.9 L5.7 -13.1 7.25 -13.25 Q6.55 -13.0 5.7 -12.9 M8.2 -8.0 L8.05 -8.15 15.9 -6.3 18.15 -5.65 Q15.85 -6.2 13.6 -6.6 11.4 -7.05 10.1 -7.45 L8.2 -8.0 M7.65 -7.25 L7.7 -7.25 Q8.85 -6.85 10.05 -6.5 8.75 -6.75 7.55 -7.25 L7.65 -7.25 M5.6 -12.65 L7.1 -12.85 Q6.5 -12.65 5.7 -12.55 L5.5 -12.55 5.6 -12.65 M1.7 -11.75 Q1.4 -11.6 1.05 -11.55 L0.9 -11.6 1.7 -11.75 M1.75 -11.45 L2.95 -11.7 2.0 -11.4 1.75 -11.45 M2.35 -2.7 L2.35 -2.9 3.15 -1.3 3.15 -1.25 3.1 -1.15 3.05 -1.15 3.1 -1.3 Q2.65 -2.0 2.35 -2.7 M2.2 -1.9 L2.2 -2.05 3.55 0.7 3.55 0.75 Q2.8 -0.5 2.2 -1.9 M0.9 -1.6 L1.1 -1.4 2.1 0.7 Q2.55 1.85 3.15 2.95 3.5 3.65 3.8 4.35 2.65 2.4 1.75 0.35 L0.9 -1.6 M1.8 -1.05 L1.85 -1.1 4.1 2.95 Q3.8 2.8 3.55 2.35 L3.0 1.3 Q2.3 0.15 1.8 -1.05 M0.15 -4.6 L0.2 -4.55 0.15 -4.45 Q0.0 -4.75 -0.2 -5.0 L-0.75 -6.6 -0.6 -6.55 Q-0.25 -5.55 0.15 -4.6 M0.35 -5.7 L0.35 -5.65 Q0.05 -5.65 -0.05 -6.05 -0.15 -6.4 -0.3 -6.7 L-0.2 -6.9 Q0.0 -6.3 0.35 -5.7 M0.5 -6.3 L-0.2 -7.75 -0.2 -7.85 Q0.2 -7.1 0.5 -6.3 M2.3 -3.9 L2.25 -4.15 Q2.8 -3.15 3.25 -2.1 L3.25 -2.05 2.3 -3.9 M5.0 -6.1 L5.05 -6.15 7.15 -4.75 7.05 -4.75 Q6.0 -5.35 5.0 -6.1 M4.15 -6.25 L4.25 -6.25 4.9 -5.7 4.9 -5.65 Q4.5 -5.9 4.15 -6.25 M3.0 -13.75 L2.75 -13.8 5.55 -14.6 3.0 -13.75 M2.5 -8.35 L2.5 -8.3 Q2.3 -8.35 2.0 -8.6 L1.9 -8.7 1.85 -8.9 2.5 -8.35 M1.6 -9.3 L1.6 -9.35 2.55 -8.85 Q2.05 -9.0 1.6 -9.3 M2.05 -9.4 L2.15 -9.4 Q2.3 -9.35 2.45 -9.25 L2.5 -9.2 2.5 -9.15 2.45 -9.1 2.05 -9.4 M5.6 -2.15 L6.4 -1.0 Q6.0 -1.3 5.65 -1.85 L5.4 -2.25 5.6 -2.15 M4.45 -3.1 L4.55 -3.05 4.95 -2.5 4.95 -2.45 Q4.65 -2.75 4.45 -3.1 M2.95 -2.05 Q3.35 -1.1 3.95 -0.2 L3.95 -0.1 3.9 -0.1 Q3.25 -1.0 2.9 -2.0 L2.95 -2.05 M6.85 -2.25 L6.85 -2.3 Q7.3 -1.85 7.65 -1.35 L7.7 -1.3 6.85 -2.25 M7.65 -0.25 L7.9 0.15 8.8 1.25 8.8 1.35 9.3 2.05 9.35 2.1 Q8.8 1.55 8.25 0.8 L7.75 0.05 7.25 -0.5 7.35 -0.45 7.55 -0.25 7.5 -0.35 7.65 -0.25 M13.1 -16.05 Q10.95 -15.45 8.9 -14.8 6.85 -14.15 4.85 -13.55 6.7 -14.3 8.7 -14.9 10.9 -15.6 13.1 -16.05 M2.25 0.65 Q3.35 2.6 4.25 4.7 4.5 5.2 4.6 5.7 3.75 3.65 2.7 1.7 2.4 1.15 2.25 0.65 M1.1 0.0 L1.05 0.05 Q0.15 -1.55 -0.55 -3.25 L-0.5 -3.25 -0.35 -3.0 Q0.3 -1.5 1.1 -0.05 L1.1 0.0 M-5.2 -22.9 L-5.15 -22.95 -4.35 -19.15 -4.4 -19.15 -4.45 -19.25 -4.4 -19.1 -4.45 -18.9 -4.65 -19.9 Q-4.85 -20.5 -4.9 -21.15 L-5.15 -22.25 Q-5.3 -22.85 -5.25 -23.25 L-5.2 -22.9 M-1.35 -21.7 Q-1.3 -23.05 -1.15 -24.45 L-1.05 -24.45 Q-1.2 -23.1 -1.25 -21.7 L-1.35 -21.7 M-1.0 -21.7 Q-0.9 -20.15 -0.9 -18.6 L-0.95 -18.6 Q-1.05 -20.1 -1.05 -21.7 -1.05 -21.75 -1.0 -21.7 M-1.6 -22.7 Q-1.55 -20.55 -1.65 -18.45 L-1.7 -18.3 Q-1.8 -19.15 -1.7 -20.05 -1.65 -20.75 -1.7 -21.45 -1.7 -22.15 -1.6 -22.7 M-7.4 -18.0 Q-6.55 -16.85 -5.8 -15.6 L-5.8 -15.45 -5.85 -15.45 -6.0 -15.7 Q-6.8 -16.85 -7.4 -18.0 M-10.0 -21.2 Q-8.75 -19.3 -7.45 -17.5 L-6.85 -16.65 -6.95 -16.7 -7.05 -16.85 -7.65 -17.45 Q-8.95 -19.25 -10.0 -21.2 M-11.1 -15.6 L-10.45 -15.3 -10.5 -15.25 -11.15 -15.55 -11.1 -15.6 M-11.0 -14.85 L-11.05 -14.8 Q-11.65 -15.0 -12.2 -15.35 L-12.15 -15.35 -11.0 -14.85 M-2.35 -18.7 L-2.1 -16.55 -2.1 -19.05 -2.05 -19.05 -2.05 -16.7 Q-2.1 -16.55 -2.1 -16.35 L-2.15 -16.05 -2.2 -16.45 Q-2.4 -17.35 -2.4 -18.35 L-2.4 -18.4 -2.35 -18.7 M-0.75 -18.5 L-0.85 -18.55 -0.9 -19.3 -0.85 -19.3 -0.75 -18.5 M-3.25 -20.0 Q-3.1 -18.65 -2.75 -17.3 -2.8 -17.55 -2.9 -17.7 L-3.2 -18.75 Q-3.35 -19.35 -3.35 -19.9 -3.35 -20.0 -3.25 -20.0 M-3.8 -20.65 L-3.3 -18.85 -3.4 -18.9 Q-3.65 -19.75 -3.8 -20.65 M-4.85 -19.5 Q-4.45 -17.75 -4.05 -16.0 L-4.05 -15.75 Q-4.6 -17.55 -4.9 -19.5 L-4.85 -19.5 M-4.45 -20.65 Q-5.0 -22.8 -5.7 -24.95 -5.95 -25.65 -6.0 -26.3 -5.25 -24.15 -4.7 -21.95 L-4.5 -21.05 Q-4.15 -20.2 -3.9 -19.3 L-4.0 -19.35 -4.45 -20.7 -4.45 -20.65 M-0.9 -14.6 Q-1.0 -13.7 -1.4 -12.9 L-1.45 -12.8 -1.45 -12.65 -1.6 -12.65 -1.55 -12.75 -1.55 -13.4 -1.5 -13.45 -1.45 -12.95 Q-1.05 -13.7 -0.95 -14.55 L-0.9 -14.6 M-12.25 -14.6 Q-11.7 -14.25 -11.1 -14.05 L-11.05 -14.0 Q-11.7 -14.2 -12.25 -14.6 M-13.85 -14.0 Q-11.9 -13.45 -9.95 -12.75 L-10.0 -12.65 Q-10.9 -12.9 -11.75 -13.2 L-13.9 -14.0 -13.85 -14.0 M-13.3 -9.5 L-10.85 -9.65 -10.85 -9.55 Q-12.05 -9.4 -13.3 -9.5 M-13.85 -11.7 Q-14.2 -11.7 -14.1 -11.8 L-11.25 -11.5 Q-11.1 -11.35 -10.9 -11.35 L-10.85 -11.35 Q-10.85 -11.25 -10.75 -11.2 L-10.9 -11.2 Q-11.1 -11.25 -11.25 -11.35 L-13.85 -11.7 M-12.85 -12.55 L-10.25 -11.75 -10.35 -11.65 -12.85 -12.55 M-13.0 -11.8 Q-13.2 -11.8 -13.1 -11.9 L-10.75 -11.55 -10.8 -11.5 -13.0 -11.8 M-11.65 -11.2 L-12.15 -11.35 -11.4 -11.2 -10.75 -11.2 -10.7 -11.15 -10.7 -11.1 -11.7 -11.2 -11.65 -11.2 M-12.85 -10.25 L-17.0 -10.15 Q-17.55 -10.15 -17.95 -10.35 -16.35 -10.25 -14.65 -10.35 L-12.85 -10.35 -12.85 -10.25 M-18.55 -1.3 Q-18.8 -1.2 -19.0 -1.25 -17.1 -2.1 -15.25 -3.2 -13.6 -4.25 -11.85 -5.1 -12.0 -4.9 -12.2 -4.7 L-11.35 -5.15 -11.15 -5.15 -11.1 -5.2 -11.05 -5.15 Q-11.9 -4.65 -12.8 -4.3 L-12.95 -4.2 -12.9 -4.3 -14.55 -3.35 Q-16.5 -2.2 -18.55 -1.3 M-12.4 -6.25 Q-11.2 -6.8 -10.1 -7.45 L-10.2 -7.25 Q-11.25 -6.7 -12.4 -6.25 M-13.0 -5.75 Q-12.3 -6.1 -11.6 -6.55 L-11.5 -6.55 Q-12.15 -6.05 -12.95 -5.75 L-13.0 -5.75 M-12.05 -5.4 L-12.05 -5.3 -12.05 -5.25 -12.75 -4.8 -12.8 -4.75 -12.95 -4.8 -13.65 -4.4 Q-15.1 -3.6 -16.5 -2.65 -14.9 -4.0 -13.0 -4.95 L-12.05 -5.4 M-11.9 -6.6 L-11.95 -6.55 -12.15 -6.65 -9.55 -8.1 -9.6 -8.0 Q-10.75 -7.35 -11.9 -6.6 M-11.7 -5.95 Q-12.85 -5.1 -14.15 -4.5 L-14.2 -4.45 Q-13.0 -5.15 -11.8 -5.95 L-11.7 -5.95 M-11.8 -2.15 L-11.9 -1.95 -12.05 -1.7 -12.85 -0.65 -12.9 -0.6 Q-12.45 -1.45 -11.75 -2.25 L-11.8 -2.15 M-11.8 -4.45 L-11.95 -4.4 -10.8 -5.05 -10.6 -5.1 -11.8 -4.45 M-13.45 -5.35 L-13.1 -5.4 -11.45 -6.35 -11.45 -6.2 Q-12.15 -5.7 -13.0 -5.35 L-13.05 -5.3 Q-13.35 -5.15 -13.45 -5.35 M-12.25 -0.9 L-12.25 -0.85 -12.5 -0.45 Q-12.55 -0.55 -12.45 -0.7 L-12.4 -0.8 Q-12.5 -0.8 -12.6 -0.6 L-12.7 -0.55 -12.65 -0.7 -12.65 -0.8 Q-12.4 -1.15 -12.1 -1.5 L-12.1 -1.4 -12.05 -1.3 Q-12.2 -1.15 -12.25 -0.9 M-12.35 -0.05 L-13.25 1.1 Q-12.75 0.65 -12.3 0.1 L-12.2 0.15 Q-12.65 0.7 -13.25 1.15 L-13.3 1.15 -13.35 1.25 -13.45 1.3 Q-12.95 0.5 -12.35 -0.2 -12.4 -0.1 -12.35 -0.05 M-12.25 -0.6 L-12.9 0.15 -12.95 0.15 -12.2 -0.8 -12.2 -0.75 Q-12.25 -0.65 -12.25 -0.6 M-1.15 -12.9 Q-1.15 -13.15 -0.9 -13.45 -0.95 -13.2 -1.05 -12.95 L-1.15 -12.9 M-1.65 -13.3 Q-1.75 -13.0 -1.7 -12.65 L-1.85 -12.5 -1.9 -13.25 Q-1.85 -13.15 -1.85 -13.05 L-1.85 -13.0 Q-1.75 -13.05 -1.7 -13.25 L-1.65 -13.3 M-2.35 -13.9 L-1.95 -12.4 -2.0 -12.25 Q-2.3 -13.05 -2.35 -13.9 M-3.7 -11.25 Q-5.1 -11.25 -6.35 -11.7 L-6.35 -11.75 Q-5.05 -11.4 -3.75 -11.25 L-3.7 -11.25 M-4.2 -11.0 L-4.0 -10.85 Q-4.4 -10.8 -4.8 -10.95 L-4.2 -11.0 M-4.35 -10.55 L-6.0 -10.35 -6.15 -10.35 -4.75 -10.6 -4.35 -10.55 M-1.65 -7.95 L-1.6 -7.95 Q-1.5 -7.25 -1.3 -6.55 -1.6 -7.2 -1.65 -7.95 M-4.55 -7.2 L-4.4 -7.25 Q-4.6 -6.95 -4.85 -6.7 L-4.85 -6.65 Q-4.75 -7.3 -4.3 -7.75 L-4.3 -7.6 -4.25 -7.6 -4.55 -7.2 M-5.05 -8.6 L-5.0 -8.55 -6.25 -7.95 -6.45 -8.05 -5.05 -8.6 M-4.9 -8.4 L-4.8 -8.35 -5.65 -7.7 -5.7 -7.7 Q-5.4 -8.05 -4.9 -8.4 M-4.5 -8.2 L-4.45 -8.25 Q-4.85 -8.1 -5.25 -7.85 L-4.5 -8.4 -4.3 -8.35 -4.25 -8.35 -4.65 -7.9 -4.15 -8.4 -4.05 -8.4 -4.1 -8.3 -5.85 -6.25 -5.9 -6.25 Q-5.45 -7.05 -4.85 -7.7 L-4.95 -7.7 -4.5 -8.2 M-7.15 -13.75 L-7.1 -13.65 -7.85 -14.15 -7.15 -13.75 M-6.4 -5.35 L-6.25 -5.45 Q-6.4 -5.05 -6.75 -4.75 L-6.8 -4.75 Q-6.55 -5.05 -6.4 -5.35 M-11.1 -7.85 L-9.35 -8.4 -9.3 -8.3 -9.3 -8.25 Q-10.1 -7.9 -11.1 -7.85 M-11.4 -8.2 L-11.4 -8.25 -10.2 -8.55 -10.15 -8.5 -10.15 -8.45 -11.4 -8.2 M-8.65 -13.1 L-8.65 -13.0 -9.7 -13.4 Q-9.15 -13.3 -8.65 -13.1 M-7.6 -5.7 Q-8.1 -5.25 -8.7 -4.9 L-8.75 -4.9 Q-8.8 -5.0 -8.65 -5.1 L-8.6 -5.15 Q-8.15 -5.35 -7.75 -5.6 L-7.6 -5.7 M-11.0 -0.35 L-10.95 -0.35 Q-11.1 -0.05 -11.5 0.1 -11.25 -0.1 -11.05 -0.35 L-11.0 -0.35 M-10.85 -0.3 L-10.55 -0.65 -10.4 -0.65 Q-10.6 -0.4 -10.85 -0.3 M-9.1 -5.25 Q-9.25 -5.1 -9.45 -5.05 L-9.55 -5.0 -9.7 -5.05 Q-9.45 -5.1 -9.2 -5.25 L-9.1 -5.25 M-11.15 -4.65 L-10.2 -5.25 -10.15 -5.25 -9.75 -5.4 Q-10.4 -4.95 -11.1 -4.65 L-11.15 -4.65 M-9.4 -5.4 L-9.4 -5.35 -10.25 -4.8 -10.35 -4.8 Q-9.95 -5.15 -9.45 -5.45 L-9.4 -5.4 M-6.1 -4.2 L-6.15 -4.15 Q-6.15 -4.45 -5.85 -4.9 L-5.45 -5.35 -5.45 -5.25 -6.1 -4.2 M-6.45 -4.4 L-6.5 -4.35 -6.6 -4.3 Q-6.35 -5.05 -5.8 -5.65 L-5.75 -5.6 Q-6.1 -5.0 -6.45 -4.4 M-7.85 -5.25 L-7.3 -5.55 -7.05 -5.6 Q-7.4 -5.35 -7.85 -5.25 M-11.35 -0.2 Q-11.85 0.35 -12.4 0.75 L-12.4 0.7 Q-12.35 0.6 -12.25 0.6 L-11.5 -0.2 -11.35 -0.2 M-1.35 -4.0 L-1.25 -4.0 -0.6 -2.15 Q-1.05 -3.0 -1.35 -4.0 M-6.1 -2.6 Q-6.15 -2.75 -6.0 -3.1 L-5.4 -4.25 -5.35 -4.1 -6.1 -2.6 M-5.2 -5.8 Q-4.8 -6.45 -4.3 -7.05 L-4.35 -6.95 Q-4.35 -6.85 -4.3 -6.8 -4.65 -6.25 -5.15 -5.8 L-5.2 -5.8 M-3.9 -2.8 L-3.6 -3.2 Q-4.0 -2.25 -4.5 -1.4 L-4.5 -1.35 Q-4.35 -2.1 -3.9 -2.8 M-3.05 -3.7 L-2.9 -3.8 Q-3.25 -3.0 -3.6 -2.2 L-3.65 -2.1 Q-3.7 -2.3 -3.55 -2.65 L-3.05 -3.7 M-5.7 -2.35 L-5.7 -2.35 M-5.15 -1.75 Q-5.85 0.0 -6.35 1.85 L-6.4 1.9 Q-6.4 1.45 -6.25 0.85 -5.8 -0.5 -5.15 -1.75 M-5.3 -0.2 L-5.35 -0.15 Q-5.0 -1.2 -4.5 -2.25 L-4.3 -2.45 -5.3 -0.2 M-5.5 -3.25 Q-5.55 -3.05 -5.5 -2.8 -5.85 -1.25 -6.4 0.3 L-6.95 1.9 Q-7.5 3.4 -8.15 4.85 -7.55 2.75 -6.75 0.6 L-6.15 -1.05 Q-5.95 -2.2 -5.5 -3.25 M-1.95 -2.0 L-2.05 -2.05 Q-1.95 -2.7 -1.95 -3.3 L-1.8 -3.3 Q-1.8 -2.75 -1.95 -2.2 L-1.95 -2.15 Q-1.85 -2.05 -1.95 -2.0 M-12.1 0.2 Q-12.55 0.85 -13.15 1.45 L-13.2 1.5 -13.3 1.55 -12.2 0.25 -12.1 0.2" fill="#fefefe" fill-rule="evenodd" stroke="none"/>
  </g>
</svg>
