<?xml version="1.0" encoding="UTF-8" standalone="no"?>
<svg xmlns:ffdec="https://www.free-decompiler.com/flash" xmlns:xlink="http://www.w3.org/1999/xlink" ffdec:objectType="shape" height="37.45px" width="41.15px" xmlns="http://www.w3.org/2000/svg">
  <g transform="matrix(1.0, 0.0, 0.0, 1.0, 20.9, 29.85)">
    <path d="M11.85 -15.8 Q13.25 -16.25 14.65 -16.55 L9.8 -14.9 11.85 -15.8 M8.6 -22.3 L6.65 -20.25 7.6 -21.15 5.05 -18.25 4.1 -17.55 6.45 -20.05 6.4 -20.05 Q7.35 -21.2 8.55 -22.25 L8.6 -22.3 M3.7 -27.05 L3.5 -26.5 3.35 -26.3 3.75 -27.45 3.85 -27.5 Q4.25 -28.75 4.75 -29.85 4.3 -28.4 3.8 -26.9 L3.7 -26.75 3.7 -27.05 M1.65 -21.7 L0.7 -19.35 0.6 -19.4 1.4 -21.45 Q1.5 -21.65 1.65 -21.7 M2.7 -21.45 L3.2 -22.45 3.3 -22.45 2.9 -21.55 2.7 -21.45 M4.55 -23.05 Q4.95 -23.85 5.45 -24.6 L5.5 -24.65 Q5.05 -23.85 4.65 -23.05 L4.55 -23.05 M4.55 -23.65 L4.25 -23.0 4.3 -23.05 4.05 -22.85 3.85 -22.65 4.5 -23.65 4.55 -23.65 M4.7 -21.7 L4.65 -21.75 4.85 -22.2 5.0 -22.2 4.7 -21.7 M1.45 -17.95 L1.25 -17.85 1.6 -18.55 1.8 -18.75 1.85 -18.9 1.9 -18.9 1.9 -18.8 Q1.9 -18.65 1.7 -18.6 L1.5 -18.15 1.55 -18.2 1.45 -17.95 1.55 -18.05 1.65 -18.1 1.55 -17.9 1.45 -17.95 M0.95 -19.7 L1.25 -20.45 1.3 -20.5 1.05 -19.8 0.95 -19.7 M2.55 -18.7 L2.0 -17.85 1.95 -17.9 2.5 -18.65 2.55 -18.7 M2.55 -18.1 L2.3 -17.45 2.2 -17.65 2.3 -17.8 Q2.4 -18.0 2.55 -18.1 M2.35 -17.25 L2.35 -17.35 2.4 -17.4 2.35 -17.25 M0.45 -16.7 L0.6 -16.95 0.7 -17.0 0.55 -16.7 0.45 -16.7 M7.2 -11.55 L7.2 -11.6 7.35 -11.6 7.35 -11.55 7.2 -11.55 M7.2 -12.6 L7.2 -12.6 M7.5 -13.3 L7.55 -13.4 8.1 -13.5 7.5 -13.3 M7.95 -13.05 L7.45 -12.9 7.5 -13.0 7.95 -13.05 M9.65 -10.8 L9.7 -10.75 8.5 -10.75 8.55 -10.9 9.65 -10.8 M3.7 -15.5 L3.8 -15.5 3.4 -15.15 3.3 -15.2 3.7 -15.5 M4.95 -14.55 L4.9 -14.6 6.25 -15.0 4.95 -14.55 M5.7 -14.4 L5.55 -14.5 6.15 -14.65 6.5 -14.65 5.7 -14.4 M8.45 -12.35 L7.2 -12.25 7.2 -12.4 8.45 -12.35 M8.05 -10.1 L8.15 -10.2 9.4 -10.1 9.35 -10.05 8.05 -10.1 M7.5 -9.8 L7.1 -9.8 7.05 -9.85 7.5 -9.8 M7.9 -9.2 L7.3 -9.3 7.15 -9.4 7.85 -9.25 7.9 -9.2 M3.35 -11.75 L2.65 -11.55 2.6 -11.6 2.55 -11.6 3.2 -11.75 3.35 -11.75 M7.15 -4.5 L7.2 -4.55 7.9 -4.1 8.0 -4.05 7.95 -4.0 7.1 -4.5 7.15 -4.5 M10.45 -6.2 L11.2 -6.0 11.25 -5.95 10.35 -6.2 10.45 -6.2 M3.65 -1.0 L3.35 -1.6 3.4 -1.7 3.65 -1.1 3.65 -1.0 M0.05 -4.3 L0.25 -3.85 0.3 -3.8 0.25 -3.7 0.0 -4.1 0.05 -4.3 M0.45 -5.0 Q0.25 -5.0 0.15 -5.15 L0.25 -5.4 0.4 -5.05 0.45 -5.0 M0.6 -5.75 L0.4 -6.1 0.45 -6.25 0.6 -5.75 M2.55 -8.7 L2.55 -8.75 2.9 -8.6 Q2.75 -8.65 2.55 -8.7 M2.85 -8.0 L2.7 -8.05 2.65 -8.2 2.85 -8.0 M1.65 -11.7 L1.45 -11.75 1.95 -11.85 1.65 -11.7 M6.85 -0.35 L7.2 0.15 6.75 -0.25 6.85 -0.35 M11.65 -6.25 L12.95 -5.9 13.0 -5.85 11.45 -6.25 11.65 -6.25 M8.6 -0.2 L8.6 -0.15 8.35 -0.45 8.4 -0.5 8.6 -0.2 M15.75 -6.1 Q16.4 -6.1 17.45 -5.85 18.5 -5.65 19.0 -5.45 L20.25 -5.05 17.8 -5.6 16.25 -5.95 14.85 -6.1 15.75 -6.1 M9.9 2.75 L9.85 2.8 10.5 3.6 Q10.0 3.15 9.55 2.55 L9.7 2.45 9.85 2.65 9.85 2.7 9.9 2.75 M4.45 1.1 L4.45 1.15 4.4 1.2 Q4.05 0.7 3.8 0.2 L3.85 0.05 4.45 1.05 4.45 1.1 M4.25 5.2 L4.8 6.5 Q5.05 7.05 5.15 7.6 4.7 6.4 4.15 5.25 4.2 5.25 4.25 5.2 M2.8 3.35 L2.85 3.15 4.25 6.1 Q3.5 4.75 2.8 3.35 M0.6 0.15 L0.7 0.1 1.25 1.2 1.3 1.25 1.25 1.35 0.6 0.15 M3.55 3.0 L3.7 2.9 4.65 4.55 Q4.3 4.4 4.0 3.9 L3.55 3.0 M3.55 1.35 L3.55 1.15 4.0 2.05 4.0 2.1 3.55 1.35 M-1.15 -26.0 L-1.25 -24.95 -1.35 -24.9 -1.2 -25.95 Q-1.2 -26.0 -1.15 -26.0 M-4.2 -21.75 L-3.85 -20.45 -3.85 -20.5 Q-3.9 -20.65 -4.0 -20.7 L-4.2 -21.75 M-5.35 -22.5 L-5.45 -22.4 Q-5.55 -23.0 -5.7 -23.55 -5.85 -24.15 -5.8 -24.65 L-5.7 -24.3 -5.35 -22.5 M-5.55 -24.5 Q-5.65 -24.4 -5.6 -24.2 L-5.6 -24.15 -6.3 -26.5 Q-6.55 -27.35 -6.65 -28.0 -6.0 -26.3 -5.55 -24.5 M-1.7 -21.8 L-1.8 -21.85 -1.8 -22.65 Q-1.85 -23.45 -1.75 -24.05 L-1.7 -21.8 M-1.0 -21.7 L-1.1 -21.6 -1.15 -22.9 -1.05 -22.95 -1.0 -21.7 M-11.1 -22.35 L-11.05 -22.35 -9.7 -20.3 -9.85 -20.2 Q-10.5 -21.25 -11.1 -22.35 M-8.2 -18.8 L-7.45 -17.7 -7.55 -17.65 -8.2 -18.8 M-2.5 -18.65 L-2.65 -18.55 -2.65 -19.2 -2.6 -19.2 -2.6 -19.55 -2.5 -18.65 M-2.25 -19.95 L-2.25 -20.0 -2.2 -18.8 -2.3 -18.75 -2.25 -19.95 M-3.5 -20.05 L-3.55 -20.0 Q-3.55 -20.15 -3.65 -20.25 L-3.65 -20.9 Q-3.65 -21.0 -3.6 -21.0 L-3.45 -20.0 -3.5 -20.05 M-5.1 -20.8 L-5.1 -20.8 M-5.4 -20.45 Q-5.45 -20.5 -5.35 -20.5 L-5.1 -19.2 -5.2 -19.2 -5.4 -20.45 M-0.95 -15.0 Q-1.0 -14.5 -1.15 -14.05 L-1.2 -14.0 Q-1.05 -14.45 -1.0 -14.95 -1.0 -15.0 -0.95 -15.0 M-2.55 -14.25 L-2.4 -13.55 -2.5 -13.55 -2.55 -14.2 -2.55 -14.25 M-15.4 -14.35 L-13.9 -13.9 -13.95 -13.75 -15.45 -14.3 -15.4 -14.35 M-12.55 -6.65 L-12.6 -6.6 -12.8 -6.35 -13.3 -6.05 -13.5 -6.15 -12.55 -6.65 M-18.1 -1.85 L-18.1 -1.85 Q-16.65 -3.05 -15.0 -3.95 -15.2 -3.8 -15.3 -3.55 -16.75 -2.75 -18.1 -1.85 M-17.9 -1.85 L-17.85 -1.85 -16.1 -2.8 -16.5 -2.3 -19.95 -0.55 -20.9 0.05 -20.85 -0.05 -20.6 -0.25 -20.7 -0.2 -20.15 -0.6 -17.9 -1.85 M-19.95 -10.25 L-18.1 -10.2 -18.15 -10.05 -18.85 -10.05 Q-19.5 -10.05 -19.95 -10.25 M-12.3 -7.45 L-12.3 -7.5 -11.55 -7.7 -11.55 -7.55 -12.3 -7.45 M-11.95 -8.0 L-12.65 -7.9 -11.95 -8.1 -11.95 -8.0 M-14.75 -9.3 L-14.75 -9.35 -13.65 -9.35 -13.65 -9.25 -14.75 -9.3 M-14.0 -11.8 L-14.45 -11.85 Q-14.7 -11.9 -14.55 -11.95 L-13.8 -11.9 -14.0 -11.8 M-14.3 -12.7 L-14.25 -12.7 -13.4 -12.45 -13.4 -12.4 -14.3 -12.7 M-14.05 -11.75 L-14.2 -11.65 -15.4 -11.75 Q-15.75 -11.75 -15.65 -11.9 L-14.05 -11.75 M-13.3 -14.8 L-13.65 -15.0 -13.6 -15.0 -13.25 -14.8 -13.3 -14.8 M-13.65 -5.45 L-14.35 -5.15 -14.45 -5.15 Q-14.0 -5.35 -13.6 -5.6 L-13.65 -5.45 M-13.45 -5.85 L-13.5 -5.8 -13.75 -5.7 -13.45 -5.85 M-10.85 -4.45 L-11.4 -4.1 -11.5 -4.05 -11.15 -4.3 -10.85 -4.45 M-10.45 -4.45 L-10.25 -4.45 -10.6 -4.3 -10.8 -4.35 -10.45 -4.45 M-7.05 -4.1 L-6.95 -4.0 -7.2 -3.6 -7.3 -3.5 -7.05 -4.1 M-7.35 -4.2 L-7.55 -4.0 -7.4 -4.2 -7.35 -4.2 M-6.5 -5.7 L-6.55 -5.7 Q-6.15 -6.35 -5.65 -6.9 L-5.6 -6.75 -6.5 -5.7 M-6.7 -3.75 L-6.6 -3.65 -6.8 -3.35 Q-6.8 -3.55 -6.7 -3.75 M-6.1 -7.5 L-6.05 -7.45 -6.3 -7.3 -6.1 -7.5 M-6.65 -7.7 L-6.95 -7.6 -7.15 -7.7 -6.9 -7.75 -6.65 -7.7 M-6.1 -10.3 L-6.65 -10.25 -6.8 -10.25 -6.15 -10.4 -6.1 -10.3 M-10.4 -13.6 L-10.45 -13.55 -10.8 -13.65 -10.75 -13.65 -10.4 -13.6 M-6.15 -11.6 L-6.15 -11.5 -7.05 -11.8 -7.0 -11.8 -6.15 -11.6 M-5.3 -10.55 L-5.3 -10.55 M-15.7 -3.75 L-15.8 -3.7 -14.5 -4.45 -14.5 -4.4 -14.75 -4.3 -14.95 -4.1 -15.7 -3.75 M-11.8 -4.15 L-12.3 -3.9 -12.4 -3.9 -12.1 -4.1 -11.8 -4.15 M-14.0 -5.05 L-14.3 -4.75 -14.45 -4.7 -14.5 -4.65 Q-14.8 -4.45 -14.95 -4.7 L-14.55 -4.75 -14.0 -5.05 M-13.15 -3.7 L-13.0 -3.75 Q-12.75 -3.9 -12.45 -4.0 L-13.25 -3.65 -13.15 -3.7 M-9.4 -4.35 L-9.65 -4.2 -9.7 -4.2 Q-9.7 -4.3 -9.6 -4.4 L-9.4 -4.35 M-1.0 -1.8 L-0.85 -1.8 -0.65 -1.15 -0.65 -1.1 -1.0 -1.8 M-4.0 -1.5 L-3.8 -1.55 -4.0 -1.15 -4.0 -1.1 Q-4.05 -1.25 -4.0 -1.5 M-4.7 -0.75 L-4.95 -0.25 -4.85 -0.7 -4.7 -0.75 M-5.3 -5.85 L-5.35 -5.5 -5.7 -5.2 -5.75 -5.2 -5.3 -5.85 M-5.35 -6.2 L-5.35 -6.15 -5.25 -6.65 -5.15 -6.65 -5.2 -6.3 -5.35 -6.2 M-1.4 -6.05 L-1.4 -6.0 -1.55 -6.4 -1.5 -6.4 -1.4 -6.05 M-6.7 -1.6 Q-6.8 -1.8 -6.6 -2.2 L-6.6 -1.85 -6.7 -1.6 M-2.15 -1.35 L-2.1 -1.35 -2.15 -1.1 Q-2.0 -1.0 -2.15 -0.95 L-2.2 -1.05 -2.15 -1.35 M-14.4 2.2 L-14.45 2.3 -14.7 2.55 -14.75 2.55 -14.8 2.65 -14.95 2.7 -14.3 1.75 -14.3 1.95 -14.7 2.5 -14.4 2.2 M-14.35 2.5 L-14.3 2.55 -14.7 2.95 -14.75 2.95 -14.35 2.5 M-14.1 1.05 L-14.1 1.2 -14.35 1.45 -14.1 1.05 M-14.0 0.55 L-14.0 0.6 -14.1 0.7 -14.1 0.6 -14.05 0.5 -14.0 0.35 -14.0 0.55 M-14.0 0.1 L-14.0 0.2 -14.25 0.55 -14.3 0.6 -13.95 0.0 -13.95 0.05 -14.0 0.1 M-12.5 1.15 L-12.35 1.1 Q-12.5 1.3 -12.75 1.35 L-12.5 1.15 M-6.9 2.2 Q-6.8 2.15 -6.7 2.0 L-6.65 1.9 -7.05 3.35 -7.05 3.4 Q-7.1 2.9 -6.9 2.25 L-6.9 2.2 M-7.55 3.05 L-7.7 3.4 Q-8.3 5.05 -9.05 6.7 -8.5 4.8 -7.85 2.9 -7.75 3.05 -7.55 3.05 M-5.7 0.5 L-5.55 0.4 -5.85 1.05 -5.9 1.1 -5.7 0.5 M-13.45 1.8 L-13.2 1.5 -12.9 1.35 -13.5 1.9 -13.45 1.8" fill="#fefefe" fill-rule="evenodd" stroke="none"/>
  </g>
</svg>
