<?xml version="1.0" encoding="UTF-8" standalone="no"?>
<svg xmlns:ffdec="https://www.free-decompiler.com/flash" xmlns:xlink="http://www.w3.org/1999/xlink" ffdec:objectType="shape" height="38.15px" width="42.05px" xmlns="http://www.w3.org/2000/svg">
  <g transform="matrix(1.0, 0.0, 0.0, 1.0, 21.45, 30.2)">
    <path d="M4.8 -30.2 L4.25 -28.4 4.05 -28.2 Q4.4 -29.25 4.8 -30.2 M14.95 -16.6 L12.55 -15.7 12.7 -15.8 12.75 -15.9 Q13.85 -16.3 14.95 -16.6 M8.8 -22.5 L6.75 -20.4 7.75 -21.35 6.75 -20.2 6.4 -20.05 6.55 -20.2 6.5 -20.2 Q7.5 -21.4 8.7 -22.45 L8.8 -22.5 M5.6 -24.9 L5.25 -24.3 5.1 -24.2 5.55 -24.85 5.6 -24.9 M1.65 -21.85 L1.3 -20.9 1.1 -20.8 1.45 -21.65 Q1.5 -21.85 1.65 -21.85 M4.45 -23.5 L4.35 -23.45 4.3 -23.45 4.55 -23.85 4.65 -23.85 4.45 -23.5 M3.1 -22.15 L3.0 -22.1 3.3 -22.65 3.35 -22.65 3.1 -22.15 M9.3 -10.85 L9.35 -10.85 9.85 -10.8 9.9 -10.75 9.25 -10.75 9.3 -10.85 M6.65 -14.7 L6.1 -14.55 5.95 -14.65 6.65 -14.7 M7.65 -14.7 L7.65 -14.7 M3.75 -15.45 L3.65 -15.5 3.8 -15.55 3.9 -15.6 3.75 -15.45 M5.65 -14.8 L5.6 -14.85 6.4 -15.05 5.65 -14.8 M1.9 -19.05 L1.95 -19.1 1.95 -18.95 Q1.95 -18.8 1.75 -18.75 L1.7 -18.6 1.6 -18.6 1.65 -18.75 1.85 -18.9 Q1.9 -18.95 1.9 -19.05 M2.55 -18.8 L2.6 -18.85 2.35 -18.35 2.25 -18.4 2.55 -18.8 M8.6 -12.35 L8.65 -12.35 7.95 -12.3 7.75 -12.4 8.6 -12.35 M10.7 3.9 L10.05 3.25 10.2 3.25 10.7 3.9 M19.05 -5.4 Q19.7 -5.3 20.6 -4.75 19.75 -5.1 18.8 -5.3 L17.7 -5.5 17.75 -5.5 18.05 -5.55 19.05 -5.4 M11.65 -6.15 L11.65 -6.15 M13.25 -5.75 L12.6 -5.9 12.7 -5.95 13.2 -5.8 13.25 -5.75 M11.45 -5.9 L11.5 -5.85 11.25 -5.9 11.25 -5.95 11.45 -5.9 M7.7 -4.1 L7.75 -4.15 8.15 -3.9 8.1 -3.9 7.7 -4.1 M0.45 -4.9 Q0.3 -4.9 0.15 -5.05 L0.25 -5.3 0.45 -4.9 M0.25 -3.6 L0.0 -3.95 0.05 -4.2 0.25 -3.75 0.3 -3.7 0.25 -3.6 M3.05 -11.7 L3.4 -11.75 3.1 -11.65 3.05 -11.7 M2.9 -8.55 L2.9 -8.55 M8.85 -10.05 L8.85 -10.1 9.6 -10.1 9.55 -10.05 8.85 -10.05 M8.25 -13.5 L7.85 -13.4 7.85 -13.5 8.25 -13.5 M4.45 1.4 L4.25 1.05 4.4 1.05 4.55 1.25 4.55 1.35 4.45 1.4 M4.85 6.65 L4.9 6.8 Q5.15 7.4 5.3 7.95 L4.6 6.4 4.85 6.65 M3.7 5.25 L3.65 4.9 Q4.05 5.65 4.35 6.4 L3.7 5.25 M4.45 4.3 L4.75 4.85 Q4.35 4.65 4.1 4.15 L4.0 3.95 4.45 4.3 M1.1 1.3 L1.2 1.3 1.3 1.45 1.35 1.5 1.25 1.55 1.1 1.3 M3.75 1.75 L3.75 1.65 4.1 2.3 4.1 2.35 3.75 1.75 M-1.15 -26.25 L-1.2 -25.8 -1.3 -25.75 -1.2 -26.25 Q-1.2 -26.3 -1.15 -26.25 M-4.15 -21.35 L-4.25 -21.95 -4.1 -21.3 -4.15 -21.35 M-1.85 -23.05 Q-1.85 -23.75 -1.75 -24.3 L-1.75 -23.0 -1.85 -23.05 M-5.65 -24.35 L-5.7 -24.55 -5.7 -24.5 -5.65 -24.35 M-1.05 -23.15 L-1.05 -22.65 -1.15 -22.65 -1.15 -23.15 Q-1.15 -23.2 -1.05 -23.15 M-5.85 -24.5 L-5.8 -24.55 -5.7 -24.05 -5.85 -24.15 -5.85 -24.1 Q-5.95 -24.55 -5.9 -24.9 L-5.85 -24.5 M-10.55 -21.45 L-10.7 -21.45 -11.3 -22.55 -11.25 -22.55 -10.55 -21.45 M-6.15 -26.5 L-6.1 -26.25 -6.15 -25.95 -6.4 -26.8 Q-6.65 -27.65 -6.75 -28.35 L-6.15 -26.5 M-8.05 -18.4 L-8.35 -18.95 -7.95 -18.4 -8.05 -18.4 M-2.7 -19.35 L-2.65 -19.35 -2.65 -19.7 -2.55 -19.2 -2.7 -19.15 -2.7 -19.35 M-2.25 -20.15 L-2.25 -19.6 -2.3 -19.45 -2.3 -20.1 -2.25 -20.15 M-3.65 -21.2 L-3.6 -20.85 -3.7 -20.9 -3.7 -21.1 Q-3.75 -21.2 -3.65 -21.2 M-12.0 -4.05 L-12.55 -3.75 -12.6 -3.75 -12.3 -3.95 -12.0 -4.05 M-11.6 -4.0 L-11.7 -3.95 -11.35 -4.2 -11.25 -4.25 -11.05 -4.3 -11.6 -4.0 M-18.8 -1.1 L-18.95 -1.0 -20.5 -0.2 -21.45 0.4 -21.45 0.3 -21.2 0.1 -21.25 0.15 -20.7 -0.2 -20.6 -0.3 -19.35 -1.0 -18.9 -1.25 -18.8 -1.1 M-19.65 -10.05 Q-20.0 -10.1 -20.3 -10.25 L-19.6 -10.2 -19.65 -10.05 M-15.05 -9.25 L-15.05 -9.3 -13.9 -9.35 -13.9 -9.25 -15.05 -9.25 M-14.55 -12.75 L-14.55 -12.75 M-15.95 -11.9 L-15.15 -11.85 -15.25 -11.7 -15.7 -11.75 Q-16.0 -11.8 -15.95 -11.9 M-15.15 -14.15 L-15.7 -14.35 -15.7 -14.4 -15.1 -14.25 -15.15 -14.15 M-5.4 -20.4 L-5.5 -20.4 -5.5 -20.65 -5.45 -20.65 -5.4 -20.4 M-14.4 -5.15 L-14.6 -5.05 -14.7 -5.05 -14.35 -5.2 -14.4 -5.15 M-10.4 -4.35 L-10.75 -4.15 -11.0 -4.25 -10.65 -4.3 -10.4 -4.35 M-6.6 -5.6 L-6.65 -5.6 -6.2 -6.25 -6.15 -6.15 -6.6 -5.6 M-17.2 -2.6 Q-17.35 -2.5 -17.35 -2.35 L-18.65 -1.5 -17.2 -2.6 M-15.2 -4.6 L-14.8 -4.65 -14.8 -4.5 -14.9 -4.45 Q-15.1 -4.4 -15.2 -4.6 M-16.0 -3.6 L-16.05 -3.6 -15.75 -3.75 -15.8 -3.7 -16.0 -3.6 M-13.25 -3.6 Q-13.0 -3.8 -12.7 -3.85 L-13.35 -3.55 -13.5 -3.5 -13.25 -3.6 M-9.75 -4.3 L-9.55 -4.25 -9.85 -4.1 Q-9.9 -4.2 -9.75 -4.3 M-14.7 2.95 L-14.95 3.2 -15.05 3.25 -14.75 2.9 -14.7 2.95 M-14.8 2.6 L-14.8 2.65 -14.95 2.8 -15.0 2.8 -15.1 2.9 -15.2 2.95 -14.85 2.4 -14.8 2.55 -15.0 2.75 -14.8 2.6 M-8.2 4.7 Q-8.65 5.85 -9.2 7.0 L-8.65 5.25 -8.2 4.7 M-7.05 3.2 L-7.2 3.65 -7.2 3.3 -7.05 3.2" fill="#fefefe" fill-rule="evenodd" stroke="none"/>
  </g>
</svg>
