<?xml version="1.0" encoding="UTF-8" standalone="no"?>
<svg xmlns:ffdec="https://www.free-decompiler.com/flash" xmlns:xlink="http://www.w3.org/1999/xlink" ffdec:objectType="shape" height="20.8px" width="4.45px" xmlns="http://www.w3.org/2000/svg">
  <g transform="matrix(1.0, 0.0, 0.0, 1.0, 2.0, 19.35)">
    <path d="M2.3 -16.25 L2.2 -15.05 2.15 -14.65 2.2 -14.55 2.05 -13.95 Q1.95 -13.45 1.9 -13.05 1.8 -12.6 1.1 -11.15 0.55 -9.9 0.45 -9.65 0.2 -9.2 0.0 -8.15 L-0.15 -6.95 -0.3 -6.3 -0.35 -6.35 Q-0.35 -5.95 -0.45 -5.35 L-0.55 -4.6 Q-0.8 -2.6 -0.4 -1.25 L-0.15 -0.25 Q-0.05 0.3 -0.15 1.0 L-0.2 1.2 Q-0.35 1.45 -0.75 1.45 L-0.85 1.45 -0.9 1.4 -1.1 1.4 Q-1.4 1.35 -1.55 0.75 L-1.65 0.25 -1.6 -0.3 -1.25 -2.1 Q-1.35 -3.1 -1.55 -4.5 L-1.65 -5.3 -1.9 -6.2 Q-2.05 -6.85 -2.0 -7.35 -1.8 -8.85 -1.4 -8.5 -1.0 -8.15 -1.15 -6.75 L-1.2 -6.2 -1.2 -6.0 Q-1.1 -4.65 -1.0 -3.65 L-0.85 -4.9 -0.8 -5.0 Q-0.55 -6.05 -0.45 -6.75 L-0.2 -7.7 -0.2 -7.8 Q-0.15 -8.25 0.3 -9.65 L0.35 -9.8 Q0.75 -10.9 0.9 -11.5 L1.05 -12.0 1.1 -12.05 Q1.4 -12.35 1.7 -14.45 L1.7 -14.65 1.75 -14.75 Q1.8 -15.4 1.65 -16.3 1.45 -17.6 1.55 -18.35 1.65 -19.3 2.05 -19.35 2.45 -19.45 2.45 -17.9 L2.3 -16.25" fill="#debcfa" fill-rule="evenodd" stroke="none"/>
  </g>
</svg>
