<?xml version="1.0" encoding="UTF-8" standalone="no"?>
<svg xmlns:ffdec="https://www.free-decompiler.com/flash" xmlns:xlink="http://www.w3.org/1999/xlink" ffdec:objectType="shape" height="20.05px" width="22.0px" xmlns="http://www.w3.org/2000/svg">
  <g transform="matrix(1.0, 0.0, 0.0, 1.0, 10.9, 20.1)">
    <path d="M-7.9 -15.25 Q-7.6 -15.7 -7.15 -16.15 -6.75 -16.45 -5.65 -17.3 -5.0 -17.85 -3.7 -18.45 -2.15 -19.15 -1.65 -19.4 L-1.55 -19.45 -0.75 -19.65 -0.7 -19.65 Q1.0 -19.5 2.0 -19.25 L2.3 -19.15 Q3.0 -18.85 3.45 -18.7 L3.6 -18.7 Q5.55 -17.6 6.25 -17.1 7.55 -16.15 8.2 -15.15 8.25 -14.95 8.25 -14.85 8.2 -14.65 7.75 -14.35 L7.2 -14.35 Q7.0 -14.35 6.2 -14.8 L5.35 -15.35 Q4.1 -15.85 3.4 -16.0 L1.25 -16.15 Q-0.5 -16.15 -3.4 -14.8 L-5.35 -13.85 Q-6.25 -13.4 -6.6 -13.4 -7.95 -13.4 -7.95 -14.75 L-7.9 -15.25 M4.1 -14.8 L4.7 -14.5 Q5.35 -14.25 5.4 -14.1 L3.45 -14.75 3.4 -14.75 3.4 -14.65 Q5.1 -14.15 6.35 -13.35 6.9 -13.0 7.45 -12.5 L7.3 -12.5 Q7.2 -12.5 6.85 -12.65 L6.15 -13.0 5.05 -13.45 4.9 -13.5 4.65 -13.6 4.15 -13.75 4.0 -13.8 Q3.45 -14.05 2.5 -14.1 L-0.05 -14.05 Q-0.8 -13.9 -1.6 -13.7 L-1.7 -13.65 -2.85 -13.6 Q-1.45 -14.2 -0.9 -14.4 L-0.55 -14.5 -0.2 -14.6 0.9 -14.65 Q1.1 -14.65 1.3 -14.75 L1.35 -14.8 Q1.3 -14.85 1.15 -14.9 L1.0 -14.95 2.4 -15.1 Q3.35 -15.1 4.1 -14.8 M-9.8 -10.2 L-9.85 -10.2 -9.8 -10.2 M-9.9 -8.25 L-9.85 -8.35 -9.65 -8.25 -9.55 -8.15 Q-9.1 -8.0 -8.65 -7.75 L-8.6 -7.65 Q-7.9 -7.45 -6.95 -7.25 -4.15 -6.65 -2.55 -6.65 L-1.65 -6.65 -0.75 -6.7 0.8 -6.75 4.0 -7.05 6.1 -7.4 8.05 -7.85 9.55 -8.15 Q9.0 -7.65 8.6 -7.35 7.9 -6.85 7.0 -6.6 L5.6 -6.25 Q4.5 -6.0 3.6 -5.85 L-0.5 -5.45 -1.45 -5.4 -1.3 -5.45 -2.75 -5.5 Q-4.0 -5.55 -4.5 -5.7 L-5.3 -5.8 -6.05 -5.95 Q-6.75 -6.1 -7.4 -6.4 L-8.35 -6.9 Q-8.85 -7.1 -9.2 -7.45 L-9.75 -8.1 -9.9 -8.25 M5.9 -5.1 L5.8 -5.05 5.8 -5.1 5.85 -5.05 5.9 -5.1 M3.4 -4.3 L3.05 -4.2 Q3.05 -4.15 3.15 -4.15 L3.25 -4.1 Q6.5 -4.5 8.3 -5.4 L7.85 -4.95 Q7.4 -4.55 6.9 -4.3 L6.95 -4.25 6.3 -3.9 5.45 -3.45 Q5.2 -3.35 4.35 -3.05 3.55 -2.8 3.35 -2.65 L3.6 -2.6 3.8 -2.55 Q4.25 -2.55 5.15 -2.75 L5.1 -2.75 4.55 -2.4 3.6 -1.8 Q2.9 -1.5 1.8 -1.4 L-2.15 -1.4 -2.7 -1.35 Q-3.35 -1.5 -3.95 -1.75 -5.5 -2.35 -6.45 -3.25 L-6.6 -3.4 -5.45 -2.95 Q-3.55 -2.3 -2.85 -2.3 L-2.7 -2.3 -2.7 -2.35 Q-2.7 -2.4 -2.8 -2.45 L-3.5 -2.7 Q-3.6 -2.75 -3.65 -2.85 L-3.75 -2.95 Q-3.95 -3.05 -5.25 -3.45 -5.8 -3.6 -6.45 -4.05 L-7.3 -4.6 Q-7.7 -4.8 -8.1 -5.25 L-8.4 -5.55 Q-7.8 -5.15 -6.95 -4.85 -4.8 -4.05 -2.2 -4.05 L-1.6 -4.05 -0.85 -4.1 -0.4 -4.15 1.45 -4.0 2.65 -4.2 3.4 -4.3" fill="#800000" fill-rule="evenodd" stroke="none"/>
    <path d="M3.9 -19.15 Q5.0 -18.55 5.7 -18.1 6.65 -17.5 7.35 -16.85 8.1 -16.15 8.5 -15.6 8.6 -15.6 8.75 -15.4 9.1 -15.25 9.6 -14.2 L9.6 -14.15 9.65 -14.05 9.75 -13.9 9.75 -13.85 9.7 -13.9 9.95 -13.35 Q10.15 -12.8 10.4 -11.7 L10.65 -10.75 10.65 -10.7 10.7 -10.55 10.8 -10.1 10.8 -9.25 11.0 -8.55 Q11.1 -8.35 11.1 -8.15 11.1 -8.0 11.05 -7.8 L11.0 -7.6 10.65 -7.35 10.35 -7.05 Q10.25 -6.55 9.7 -5.5 L9.6 -5.3 9.7 -5.35 9.65 -5.35 Q8.9 -4.05 8.2 -3.25 7.35 -2.3 5.7 -1.4 3.05 -0.05 0.0 -0.05 L-1.0 -0.1 -1.15 -0.15 Q-3.1 -0.35 -4.0 -0.55 L-4.5 -0.7 -4.75 -0.65 Q-5.5 -0.65 -6.6 -1.5 -7.1 -1.9 -7.55 -2.35 -8.45 -3.1 -9.2 -4.25 -9.3 -4.35 -9.7 -5.6 L-9.6 -5.5 Q-9.9 -6.25 -9.9 -6.75 L-10.05 -6.9 Q-10.9 -7.9 -10.9 -8.3 -10.9 -8.55 -10.8 -8.7 L-10.8 -8.75 Q-10.8 -8.8 -10.6 -9.1 -10.4 -9.45 -10.3 -9.7 L-10.2 -10.05 Q-10.1 -11.05 -9.6 -12.5 -9.0 -14.15 -8.3 -15.2 -7.95 -15.7 -7.45 -16.2 -6.25 -17.55 -5.1 -18.35 -4.2 -18.95 -3.1 -19.3 -1.4 -20.1 0.05 -20.05 L0.75 -20.1 Q1.8 -20.1 2.9 -19.65 3.5 -19.4 3.9 -19.15 M8.2 -15.15 Q7.55 -16.15 6.25 -17.1 5.55 -17.6 3.6 -18.7 L3.45 -18.7 Q3.0 -18.85 2.3 -19.15 L2.0 -19.25 Q1.0 -19.5 -0.7 -19.65 L-0.75 -19.65 -1.55 -19.45 -1.65 -19.4 Q-2.15 -19.15 -3.7 -18.45 -5.0 -17.85 -5.65 -17.3 -6.75 -16.45 -7.15 -16.15 -7.6 -15.7 -7.9 -15.25 L-8.2 -14.75 -8.25 -14.75 -8.95 -13.3 Q-9.4 -12.45 -9.55 -11.8 L-9.85 -10.35 -9.85 -10.2 -9.8 -10.2 -9.5 -10.6 Q-8.75 -11.5 -8.45 -11.6 -8.45 -11.5 -8.65 -11.3 L-8.65 -11.25 -9.0 -10.95 -9.15 -10.6 -9.25 -10.4 -8.3 -11.15 -7.95 -11.4 Q-6.65 -12.35 -5.9 -12.6 -5.35 -12.8 -4.55 -13.25 -3.75 -13.7 -3.25 -13.9 -2.7 -14.1 -1.9 -14.5 -1.15 -14.8 0.2 -15.0 L0.7 -15.05 1.0 -14.95 1.15 -14.9 Q1.3 -14.85 1.35 -14.8 L1.3 -14.75 Q1.1 -14.65 0.9 -14.65 L-0.2 -14.6 -0.55 -14.5 -0.65 -14.5 -0.8 -14.45 -0.85 -14.45 -1.4 -14.3 -2.1 -14.0 Q-2.6 -13.8 -2.8 -13.75 -3.4 -13.55 -4.2 -13.1 -5.1 -12.6 -5.5 -12.4 L-5.55 -12.4 Q-6.7 -11.85 -7.95 -10.85 L-8.0 -10.85 -8.1 -10.75 -9.5 -9.5 -9.65 -9.4 -9.7 -9.15 -9.7 -9.0 -9.5 -9.2 Q-8.8 -9.75 -8.35 -10.05 -8.05 -10.2 -7.25 -10.7 -6.7 -11.05 -6.1 -11.35 -5.2 -11.95 -3.9 -12.5 -1.4 -13.5 1.3 -13.5 3.05 -13.5 4.5 -13.1 L5.05 -12.9 6.7 -12.15 7.9 -11.35 Q8.85 -10.7 9.45 -9.75 L9.9 -8.95 9.8 -9.8 9.7 -9.9 9.7 -9.95 9.65 -10.05 9.15 -10.7 9.0 -10.85 8.1 -11.9 7.6 -12.4 7.45 -12.5 Q6.9 -13.0 6.35 -13.35 5.1 -14.15 3.4 -14.65 L3.4 -14.75 3.45 -14.75 5.4 -14.1 Q5.35 -14.25 4.7 -14.5 L4.1 -14.8 3.9 -15.0 3.9 -15.05 4.2 -14.95 4.3 -14.95 7.0 -13.35 8.2 -12.3 Q9.0 -11.55 9.55 -10.85 L8.75 -12.35 Q9.05 -12.4 9.2 -12.2 L9.4 -11.8 9.85 -11.1 9.65 -11.9 9.65 -11.85 9.5 -12.5 Q9.35 -12.95 9.0 -13.65 L8.4 -14.75 8.35 -14.9 8.2 -15.15 M5.95 -12.1 Q3.85 -13.05 1.4 -13.05 -0.6 -13.05 -2.55 -12.45 -3.9 -12.0 -6.0 -10.95 L-7.1 -10.35 -8.15 -9.65 -9.2 -8.85 -9.45 -8.65 -9.3 -8.5 -8.8 -8.2 -8.05 -7.95 Q-7.0 -7.65 -5.8 -7.45 L-4.45 -7.2 Q-3.0 -7.0 -1.5 -7.0 L-0.8 -7.05 0.75 -7.05 4.1 -7.35 6.0 -7.65 7.85 -8.1 Q9.35 -8.45 9.9 -8.5 L9.15 -9.6 Q8.6 -10.45 7.7 -11.05 7.0 -11.6 5.95 -12.1 M9.55 -8.15 L8.05 -7.85 6.1 -7.4 4.0 -7.05 0.8 -6.75 -0.75 -6.7 -1.65 -6.65 -2.55 -6.65 Q-4.15 -6.65 -6.95 -7.25 -7.9 -7.45 -8.6 -7.65 L-8.65 -7.75 Q-9.1 -8.0 -9.55 -8.15 L-9.65 -8.25 -9.85 -8.35 -9.9 -8.25 Q-10.0 -8.0 -10.0 -7.9 -10.0 -7.75 -9.9 -7.55 L-9.6 -7.2 Q-9.1 -6.65 -8.05 -5.9 L-7.9 -5.75 -7.7 -5.7 Q-5.85 -4.8 -3.9 -4.55 L-0.2 -4.35 -0.15 -4.3 -0.1 -4.2 -0.2 -4.2 -0.4 -4.15 -0.85 -4.1 -1.6 -4.05 -2.2 -4.05 Q-4.8 -4.05 -6.95 -4.85 -7.8 -5.15 -8.4 -5.55 L-8.45 -5.6 -8.4 -5.5 Q-8.2 -5.2 -7.6 -4.7 -6.9 -4.15 -6.65 -3.85 -7.6 -3.95 -8.7 -5.3 L-9.2 -6.0 -9.05 -5.55 Q-9.0 -5.3 -8.95 -4.95 L-8.95 -4.9 -8.9 -4.85 -8.8 -4.5 Q-8.6 -4.1 -8.15 -3.55 L-7.2 -2.55 Q-6.75 -2.05 -6.0 -1.65 -5.1 -1.1 -4.15 -0.95 -4.0 -0.9 -4.0 -0.85 L-2.8 -0.65 -0.35 -0.55 Q1.15 -0.55 2.9 -0.95 4.1 -1.25 4.9 -1.6 5.2 -1.75 5.4 -1.9 7.1 -2.95 8.0 -3.85 8.3 -4.15 8.6 -4.55 L8.7 -4.65 8.95 -5.05 9.35 -5.9 9.5 -6.2 9.1 -5.6 Q8.05 -4.25 7.2 -4.25 L6.95 -4.25 6.9 -4.3 Q7.4 -4.55 7.85 -4.95 L8.45 -5.5 8.35 -5.45 8.3 -5.4 Q6.5 -4.5 3.25 -4.1 L3.15 -4.15 Q3.05 -4.15 3.05 -4.2 L3.4 -4.3 3.75 -4.45 5.25 -4.9 5.35 -4.95 5.8 -5.05 5.9 -5.1 7.85 -5.85 Q8.25 -6.05 8.8 -6.35 L9.55 -6.85 9.95 -7.15 10.2 -7.4 10.2 -7.6 Q10.2 -8.0 9.8 -8.15 L9.7 -8.15 9.75 -8.2 9.55 -8.15 M-0.55 -19.7 L-0.55 -19.7 M-3.2 -18.95 L-3.3 -18.9 -3.45 -18.85 -3.7 -18.75 -4.1 -18.5 -3.2 -18.95" fill="#1a1111" fill-rule="evenodd" stroke="none"/>
    <path d="M8.2 -15.15 L8.35 -14.9 8.4 -14.75 9.0 -13.65 Q9.35 -12.95 9.5 -12.5 L9.65 -11.85 9.65 -11.9 9.85 -11.1 9.4 -11.8 9.2 -12.2 Q9.05 -12.4 8.75 -12.35 L9.55 -10.85 Q9.0 -11.55 8.2 -12.3 L7.0 -13.35 4.3 -14.95 4.2 -14.95 3.9 -15.05 3.9 -15.0 4.1 -14.8 Q3.35 -15.1 2.4 -15.1 L1.0 -14.95 0.7 -15.05 0.2 -15.0 Q-1.15 -14.8 -1.9 -14.5 -2.7 -14.1 -3.25 -13.9 -3.75 -13.7 -4.55 -13.25 -5.35 -12.8 -5.9 -12.6 -6.65 -12.35 -7.95 -11.4 L-8.3 -11.15 -9.25 -10.4 -9.15 -10.6 -9.0 -10.95 -8.65 -11.25 -8.65 -11.3 Q-8.45 -11.5 -8.45 -11.6 -8.75 -11.5 -9.5 -10.6 L-9.8 -10.2 -9.85 -10.2 -9.85 -10.35 -9.55 -11.8 Q-9.4 -12.45 -8.95 -13.3 L-8.25 -14.75 -8.2 -14.75 -7.9 -15.25 -7.95 -14.75 Q-7.95 -13.4 -6.6 -13.4 -6.25 -13.4 -5.35 -13.85 L-3.4 -14.8 Q-0.5 -16.15 1.25 -16.15 L3.4 -16.0 Q4.1 -15.85 5.35 -15.35 L6.2 -14.8 Q7.0 -14.35 7.2 -14.35 L7.75 -14.35 Q8.2 -14.65 8.25 -14.85 8.25 -14.95 8.2 -15.15 M7.45 -12.5 L7.6 -12.4 8.1 -11.9 9.0 -10.85 9.15 -10.7 9.65 -10.05 9.7 -9.95 9.7 -9.9 9.8 -9.8 9.9 -8.95 9.45 -9.75 Q8.85 -10.7 7.9 -11.35 L6.7 -12.15 5.05 -12.9 4.5 -13.1 Q3.05 -13.5 1.3 -13.5 -1.4 -13.5 -3.9 -12.5 -5.2 -11.95 -6.1 -11.35 -6.7 -11.05 -7.25 -10.7 -8.05 -10.2 -8.35 -10.05 -8.8 -9.75 -9.5 -9.2 L-9.7 -9.0 -9.7 -9.15 -9.65 -9.4 -9.5 -9.5 -8.1 -10.75 -8.0 -10.85 -7.95 -10.85 Q-6.7 -11.85 -5.55 -12.4 L-5.5 -12.4 Q-5.1 -12.6 -4.2 -13.1 -3.4 -13.55 -2.8 -13.75 -2.6 -13.8 -2.1 -14.0 L-1.4 -14.3 -0.85 -14.45 -0.8 -14.45 -0.65 -14.5 -0.55 -14.5 -0.9 -14.4 Q-1.45 -14.2 -2.85 -13.6 L-1.7 -13.65 -1.6 -13.7 Q-0.8 -13.9 -0.05 -14.05 L2.5 -14.1 Q3.45 -14.05 4.0 -13.8 L4.15 -13.75 4.65 -13.6 4.9 -13.5 5.05 -13.45 6.15 -13.0 6.85 -12.65 Q7.2 -12.5 7.3 -12.5 L7.45 -12.5 M-9.9 -8.25 L-9.75 -8.1 -9.2 -7.45 Q-8.85 -7.1 -8.35 -6.9 L-7.4 -6.4 Q-6.75 -6.1 -6.05 -5.95 L-5.3 -5.8 -4.5 -5.7 Q-4.0 -5.55 -2.75 -5.5 L-1.3 -5.45 -1.45 -5.4 -0.5 -5.45 3.6 -5.85 Q4.5 -6.0 5.6 -6.25 L7.0 -6.6 Q7.9 -6.85 8.6 -7.35 9.0 -7.65 9.55 -8.15 L9.75 -8.2 9.7 -8.15 9.8 -8.15 Q10.2 -8.0 10.2 -7.6 L10.2 -7.4 9.95 -7.15 9.55 -6.85 8.8 -6.35 Q8.25 -6.05 7.85 -5.85 L5.9 -5.1 5.85 -5.05 5.8 -5.1 5.8 -5.05 5.35 -4.95 5.25 -4.9 3.75 -4.45 3.4 -4.3 2.65 -4.2 1.45 -4.0 -0.4 -4.15 -0.2 -4.2 -0.1 -4.2 -0.15 -4.3 -0.2 -4.35 -3.9 -4.55 Q-5.85 -4.8 -7.7 -5.7 L-7.9 -5.75 -8.05 -5.9 Q-9.1 -6.65 -9.6 -7.2 L-9.9 -7.55 Q-10.0 -7.75 -10.0 -7.9 -10.0 -8.0 -9.9 -8.25 M8.3 -5.4 L8.35 -5.45 8.45 -5.5 7.85 -4.95 8.3 -5.4 M6.95 -4.25 L7.2 -4.25 Q8.05 -4.25 9.1 -5.6 L9.5 -6.2 9.35 -5.9 8.95 -5.05 8.7 -4.65 8.6 -4.55 Q8.3 -4.15 8.0 -3.85 7.1 -2.95 5.4 -1.9 5.2 -1.75 4.9 -1.6 4.1 -1.25 2.9 -0.95 1.15 -0.55 -0.35 -0.55 L-2.8 -0.65 -4.0 -0.85 Q-4.0 -0.9 -4.15 -0.95 -5.1 -1.1 -6.0 -1.65 -6.75 -2.05 -7.2 -2.55 L-8.15 -3.55 Q-8.6 -4.1 -8.8 -4.5 L-8.9 -4.85 -8.95 -4.9 -8.95 -4.95 Q-9.0 -5.3 -9.05 -5.55 L-9.2 -6.0 -8.7 -5.3 Q-7.6 -3.95 -6.65 -3.85 -6.9 -4.15 -7.6 -4.7 -8.2 -5.2 -8.4 -5.5 L-8.45 -5.6 -8.4 -5.55 -8.1 -5.25 Q-7.7 -4.8 -7.3 -4.6 L-6.45 -4.05 Q-5.8 -3.6 -5.25 -3.45 -3.95 -3.05 -3.75 -2.95 L-3.65 -2.85 Q-3.6 -2.75 -3.5 -2.7 L-2.8 -2.45 Q-2.7 -2.4 -2.7 -2.35 L-2.7 -2.3 -2.85 -2.3 Q-3.55 -2.3 -5.45 -2.95 L-6.6 -3.4 -6.45 -3.25 Q-5.5 -2.35 -3.95 -1.75 -3.35 -1.5 -2.7 -1.35 L-2.15 -1.4 1.8 -1.4 Q2.9 -1.5 3.6 -1.8 L4.55 -2.4 5.1 -2.75 5.15 -2.75 Q4.25 -2.55 3.8 -2.55 L3.6 -2.6 3.35 -2.65 Q3.55 -2.8 4.35 -3.05 5.2 -3.35 5.45 -3.45 L6.3 -3.9 6.95 -4.25" fill="#4d0000" fill-rule="evenodd" stroke="none"/>
  </g>
</svg>
