<?xml version="1.0" encoding="UTF-8" standalone="no"?>
<svg xmlns:ffdec="https://www.free-decompiler.com/flash" xmlns:xlink="http://www.w3.org/1999/xlink" ffdec:objectType="shape" height="15.35px" width="20.2px" xmlns="http://www.w3.org/2000/svg">
  <g transform="matrix(1.0, 0.0, 0.0, 1.0, 10.05, 17.9)">
    <path d="M-7.25 -4.3 Q-7.7 -4.95 -8.0 -5.95 L-8.05 -5.95 -7.95 -6.0 -7.9 -6.1 -8.25 -6.75 -8.15 -6.5 -8.15 -6.65 -8.0 -6.3 Q-7.7 -5.85 -7.45 -5.55 -7.3 -5.3 -6.6 -4.8 -5.8 -4.2 -5.55 -4.2 L-5.45 -4.25 Q-5.6 -4.5 -6.5 -5.3 -7.35 -6.15 -7.55 -6.95 -8.1 -9.5 -8.1 -9.65 L-8.1 -9.95 -8.05 -10.25 -8.05 -10.6 Q-8.05 -10.7 -7.95 -10.75 L-7.9 -10.85 -7.85 -11.5 -7.75 -12.1 -7.6 -12.9 Q-7.15 -13.5 -6.75 -13.85 -5.7 -14.7 -4.4 -15.4 -2.0 -16.6 0.55 -16.6 2.3 -16.6 4.35 -15.75 5.35 -15.3 6.1 -14.85 6.8 -14.4 7.6 -13.65 L7.65 -12.65 Q7.7 -12.0 7.65 -11.4 7.5 -10.25 7.1 -9.0 6.7 -7.5 6.1 -6.55 5.3 -5.2 3.95 -4.15 4.65 -4.25 5.15 -4.7 5.45 -4.95 5.9 -5.45 L5.9 -5.4 5.8 -5.25 Q5.75 -5.2 5.75 -5.05 5.75 -5.0 5.8 -4.95 L5.95 -4.8 Q7.25 -5.75 7.9 -7.95 L7.8 -7.55 Q7.2 -5.65 6.2 -4.1 L5.8 -3.95 Q4.25 -3.3 3.7 -3.1 2.0 -2.55 0.5 -2.55 0.1 -2.55 -0.3 -2.75 -0.65 -3.0 -1.0 -3.0 L-2.05 -2.85 -3.8 -2.75 -4.85 -2.8 Q-5.3 -2.95 -5.9 -3.4 L-6.2 -3.5 Q-6.4 -3.6 -6.55 -3.65 L-6.6 -3.7 -6.65 -3.75 -6.85 -3.9 -7.25 -4.3 M7.2 -4.75 L7.5 -5.15 Q7.8 -5.5 7.85 -5.5 7.95 -5.5 7.95 -5.45 L8.0 -5.4 7.25 -4.8 7.2 -4.75 M9.3 -6.6 L9.65 -7.65 9.85 -8.75 Q10.05 -9.8 10.05 -10.25 10.05 -11.1 9.85 -11.5 L9.55 -12.1 Q9.35 -12.45 9.25 -12.7 9.05 -13.45 8.75 -14.0 L8.5 -14.35 Q8.35 -14.5 8.35 -14.6 L8.35 -14.85 8.9 -14.15 Q9.05 -13.95 9.1 -13.6 9.2 -13.2 9.25 -13.05 L9.8 -12.0 Q10.05 -11.4 10.15 -10.9 L10.15 -9.85 Q10.15 -8.35 10.0 -7.85 9.8 -7.25 9.3 -6.6 M8.05 -15.25 Q7.9 -15.1 7.9 -14.95 7.9 -14.8 8.0 -14.4 7.85 -14.65 7.75 -14.6 L7.3 -15.15 Q6.95 -15.65 6.5 -15.8 5.25 -16.55 4.15 -17.0 2.05 -17.85 -0.3 -17.85 -3.0 -17.85 -5.15 -16.4 -5.8 -16.0 -6.7 -15.15 -6.7 -15.8 -7.15 -15.25 -7.5 -14.9 -7.8 -14.3 -8.0 -14.2 -8.2 -13.9 -8.5 -13.4 -8.8 -12.8 L-9.1 -11.9 -9.35 -11.05 Q-9.4 -11.15 -9.35 -11.4 -9.35 -11.6 -9.5 -11.7 L-9.45 -11.95 -8.6 -13.75 Q-8.1 -14.6 -7.4 -15.15 -7.2 -15.4 -6.6 -15.85 -5.7 -16.5 -5.15 -16.65 -4.9 -16.7 -3.55 -17.25 -2.5 -17.7 -1.15 -17.9 L0.55 -17.9 Q4.55 -17.55 6.7 -16.3 7.4 -15.85 8.05 -15.25 M-10.0 -8.65 Q-9.95 -7.7 -9.6 -6.9 L-9.45 -6.55 Q-9.7 -6.85 -9.85 -7.35 -10.05 -7.85 -10.05 -8.3 L-10.0 -8.65 M-8.95 -6.6 Q-9.1 -6.8 -9.1 -6.9 -9.05 -6.9 -8.95 -6.6" fill="#f2e2c9" fill-rule="evenodd" stroke="none"/>
    <path d="M6.2 -4.1 Q7.2 -5.65 7.8 -7.55 L7.9 -7.95 Q7.25 -5.75 5.95 -4.8 L5.8 -4.95 Q5.75 -5.0 5.75 -5.05 5.75 -5.2 5.8 -5.25 L5.9 -5.4 5.9 -5.45 Q5.45 -4.95 5.15 -4.7 4.65 -4.25 3.95 -4.15 5.3 -5.2 6.1 -6.55 6.7 -7.5 7.1 -9.0 7.5 -10.25 7.65 -11.4 7.7 -12.0 7.65 -12.65 L7.6 -13.65 Q6.8 -14.4 6.1 -14.85 5.35 -15.3 4.35 -15.75 2.3 -16.6 0.55 -16.6 -2.0 -16.6 -4.4 -15.4 -5.7 -14.7 -6.75 -13.85 -7.15 -13.5 -7.6 -12.9 L-7.75 -12.1 -7.85 -11.5 -7.9 -10.85 -7.95 -10.75 Q-8.05 -10.7 -8.05 -10.6 L-8.05 -10.25 -8.1 -9.95 -8.1 -9.65 Q-8.1 -9.5 -7.55 -6.95 -7.35 -6.15 -6.5 -5.3 -5.6 -4.5 -5.45 -4.25 L-5.55 -4.2 Q-5.8 -4.2 -6.6 -4.8 -7.3 -5.3 -7.45 -5.55 -7.7 -5.85 -8.0 -6.3 L-8.15 -6.65 -8.15 -6.5 -8.25 -6.75 -7.9 -6.1 -7.95 -6.0 -8.05 -5.95 -8.0 -5.95 Q-7.7 -4.95 -7.25 -4.3 -7.05 -4.1 -6.85 -3.9 L-6.65 -3.75 -6.6 -3.7 -6.65 -3.6 Q-6.65 -3.55 -6.8 -3.55 -6.95 -3.55 -8.2 -4.6 -8.35 -4.8 -8.55 -5.2 L-8.8 -5.7 Q-9.15 -6.05 -9.45 -6.55 L-9.6 -6.9 Q-9.95 -7.7 -10.0 -8.65 L-10.05 -9.05 Q-10.05 -9.9 -9.95 -10.65 -9.85 -11.75 -9.65 -11.75 L-9.5 -11.7 Q-9.35 -11.6 -9.35 -11.4 -9.4 -11.15 -9.35 -11.05 L-9.1 -11.9 -8.8 -12.8 Q-8.5 -13.4 -8.2 -13.9 -8.0 -14.2 -7.8 -14.3 -7.5 -14.9 -7.15 -15.25 -6.7 -15.8 -6.7 -15.15 -5.8 -16.0 -5.15 -16.4 -3.0 -17.85 -0.3 -17.85 2.05 -17.85 4.15 -17.0 5.25 -16.55 6.5 -15.8 6.95 -15.65 7.3 -15.15 L7.75 -14.6 Q7.85 -14.65 8.0 -14.4 7.9 -14.8 7.9 -14.95 7.9 -15.1 8.05 -15.25 L8.1 -15.3 Q8.35 -15.2 8.35 -14.95 L8.35 -14.85 8.35 -14.6 Q8.35 -14.5 8.5 -14.35 L8.75 -14.0 Q9.05 -13.45 9.25 -12.7 9.35 -12.45 9.55 -12.1 L9.85 -11.5 Q10.05 -11.1 10.05 -10.25 10.05 -9.8 9.85 -8.75 L9.65 -7.65 9.3 -6.6 9.2 -6.3 Q9.15 -6.2 8.9 -6.05 8.6 -5.9 8.55 -5.85 L8.4 -5.6 Q8.25 -5.35 8.1 -5.35 L8.0 -5.4 7.95 -5.45 Q7.95 -5.5 7.85 -5.5 7.8 -5.5 7.5 -5.15 L7.2 -4.75 6.7 -4.25 Q6.3 -3.9 6.2 -3.9 L6.05 -3.9 6.2 -4.1 M-8.95 -6.6 Q-9.05 -6.9 -9.1 -6.9 -9.1 -6.8 -8.95 -6.6" fill="#ccbea9" fill-rule="evenodd" stroke="none"/>
  </g>
</svg>
