<?xml version="1.0" encoding="UTF-8" standalone="no"?>
<svg xmlns:ffdec="https://www.free-decompiler.com/flash" xmlns:xlink="http://www.w3.org/1999/xlink" ffdec:objectType="shape" height="16.05px" width="10.45px" xmlns="http://www.w3.org/2000/svg">
  <g transform="matrix(1.0, 0.0, 0.0, 1.0, 5.4, 14.85)">
    <path d="M-2.15 -12.55 Q-2.0 -12.3 -1.9 -12.05 -1.8 -11.9 -1.65 -11.55 -1.25 -10.0 -1.2 -9.5 -1.15 -9.0 -1.25 -8.4 L-1.25 -8.45 Q-1.25 -8.6 -1.4 -9.15 -1.55 -9.95 -1.8 -10.65 -2.05 -11.4 -2.35 -11.85 L-2.55 -12.05 Q-2.7 -12.1 -3.0 -12.4 -3.25 -12.45 -3.4 -12.65 L-3.45 -12.7 -3.5 -12.7 Q-3.6 -12.85 -3.65 -13.05 L-3.65 -13.1 Q-3.7 -13.35 -3.65 -13.45 L-3.55 -13.55 Q-3.4 -13.7 -2.95 -13.6 -2.75 -13.6 -2.55 -13.3 -2.4 -13.05 -2.4 -12.9 -2.25 -12.75 -2.15 -12.55 M-3.0 -5.9 L-3.0 -5.8 Q-3.15 -5.7 -3.2 -5.4 L-3.15 -4.7 -3.05 -4.1 -2.9 -3.75 -2.9 -3.7 -2.6 -2.95 -2.35 -2.55 -2.1 -2.0 -2.1 -2.2 Q-2.05 -2.65 -2.0 -3.25 L-2.0 -3.3 -1.9 -3.0 -1.9 -2.9 -1.85 -2.5 Q-1.75 -1.35 -1.25 -0.65 L-0.85 -0.15 Q-0.7 0.15 -0.65 0.55 L-0.65 0.65 Q-0.75 0.85 -1.1 0.9 L-1.25 0.9 -1.25 0.95 -1.4 0.95 Q-1.7 0.95 -1.9 0.65 -2.0 0.5 -2.05 0.35 -2.1 0.2 -2.1 0.05 L-2.1 -0.55 -2.55 -1.7 Q-2.65 -2.35 -3.0 -3.45 -3.25 -4.3 -3.5 -5.0 -3.85 -6.3 -3.9 -6.8 -3.95 -7.3 -3.8 -7.5 -3.7 -7.7 -3.5 -7.65 -3.0 -7.45 -2.9 -6.55 -2.9 -6.25 -3.0 -5.9" fill="#860086" fill-rule="evenodd" stroke="none"/>
    <path d="M-1.35 -2.25 L-1.35 -1.85 -1.5 -0.6 -1.15 0.3 Q-1.05 0.45 -1.05 0.6 L-1.1 0.85 Q-1.2 1.15 -1.4 1.2 L-1.7 1.2 Q-2.05 1.2 -2.2 1.05 L-2.2 1.0 Q-2.3 0.6 -2.25 0.35 L-2.1 -0.15 Q-1.9 -0.85 -2.2 -1.9 L-2.3 -2.25 -2.5 -2.75 -2.65 -3.1 -2.85 -3.7 Q-3.05 -4.2 -3.3 -4.45 L-3.9 -5.2 Q-4.55 -6.0 -4.7 -6.2 L-4.85 -6.7 -5.0 -7.0 -5.0 -7.05 -5.2 -7.85 -5.4 -8.7 Q-5.5 -9.45 -5.15 -9.45 -4.8 -9.4 -4.65 -8.9 -4.55 -8.55 -4.65 -7.85 -4.7 -7.4 -4.65 -7.05 L-4.6 -7.0 -4.6 -6.9 Q-4.25 -5.85 -3.95 -5.7 L-3.95 -5.65 -3.75 -5.4 -3.2 -4.5 Q-2.75 -3.75 -2.65 -3.5 L-2.4 -3.0 Q-2.3 -2.6 -2.0 -2.1 L-2.0 -2.0 -1.8 -1.4 -1.75 -2.6 -1.75 -2.7 -1.85 -2.95 Q-2.05 -3.7 -1.75 -3.85 -1.4 -4.05 -1.2 -3.3 -1.1 -3.0 -1.2 -2.7 L-1.35 -2.25" fill="#860086" fill-rule="evenodd" stroke="none"/>
    <path d="M4.8 -12.65 L5.0 -12.65 5.0 -12.5 5.05 -12.35 4.95 -12.3 4.75 -12.45 4.7 -12.5 Q4.7 -12.6 4.75 -12.65 L4.8 -12.65 M0.2 -14.85 L0.25 -14.85 0.2 -14.8 0.2 -14.85 M1.65 0.35 L1.65 0.55 1.5 0.6 1.2 0.6 1.0 0.5 0.95 0.25 Q0.95 0.0 1.25 0.0 1.65 0.0 1.65 0.35 M0.4 -13.6 Q0.4 -13.5 0.3 -13.4 0.2 -13.2 -0.05 -13.2 L-0.25 -13.3 -0.2 -13.3 -0.2 -13.6 -0.15 -13.65 -0.2 -13.7 -0.15 -13.75 Q-0.05 -14.0 0.15 -14.0 L0.25 -13.95 0.35 -13.85 0.4 -13.6" fill="#350034" fill-opacity="0.8" fill-rule="evenodd" stroke="none"/>
  </g>
</svg>
