<?xml version="1.0" encoding="UTF-8" standalone="no"?>
<svg xmlns:ffdec="https://www.free-decompiler.com/flash" xmlns:xlink="http://www.w3.org/1999/xlink" ffdec:objectType="shape" height="13.1px" width="3.6px" xmlns="http://www.w3.org/2000/svg">
  <g transform="matrix(1.0, 0.0, 0.0, 1.0, 0.15, 11.65)">
    <path d="M3.05 -11.6 Q3.6 -11.9 3.4 -10.6 3.3 -9.9 2.75 -8.75 L2.7 -8.8 Q1.7 -7.0 1.35 -4.95 L1.35 -4.4 1.25 -4.05 1.15 -3.3 Q1.1 -2.55 1.25 -1.5 L1.4 -0.4 Q1.6 -0.25 1.5 0.25 L1.5 0.4 1.45 0.55 1.45 0.7 Q1.3 1.5 0.7 1.45 L0.6 1.45 0.55 1.4 0.35 1.4 Q0.05 1.35 -0.1 0.75 L-0.15 0.25 Q-0.15 -0.05 -0.05 -0.3 L0.0 -0.7 -0.05 -1.65 Q-0.05 -2.55 0.1 -3.5 0.15 -3.75 0.35 -4.1 L0.55 -4.4 0.75 -3.95 0.9 -4.9 0.9 -5.0 Q1.2 -6.05 1.35 -6.75 1.75 -8.05 1.95 -8.7 L2.0 -8.7 2.0 -8.85 2.05 -8.85 Q2.25 -9.4 2.35 -10.25 2.5 -11.3 3.05 -11.6" fill="#420040" fill-rule="evenodd" stroke="none"/>
  </g>
</svg>
