<?xml version="1.0" encoding="UTF-8" standalone="no"?>
<svg xmlns:ffdec="https://www.free-decompiler.com/flash" xmlns:xlink="http://www.w3.org/1999/xlink" ffdec:objectType="shape" height="24.15px" width="4.75px" xmlns="http://www.w3.org/2000/svg">
  <g transform="matrix(1.0, 0.0, 0.0, 1.0, 5.4, 22.7)">
    <path d="M-2.3 -19.4 Q-2.15 -19.15 -2.05 -18.6 L-2.0 -18.55 -1.9 -17.85 -1.8 -17.8 Q-1.7 -17.8 -1.65 -17.75 -1.55 -17.65 -1.5 -17.5 L-1.5 -17.1 Q-1.5 -17.05 -1.55 -16.9 -1.65 -16.3 -1.95 -15.75 L-2.6 -14.65 Q-3.2 -12.8 -3.25 -10.3 L-3.35 -10.25 -3.45 -10.35 -3.5 -10.75 Q-3.65 -13.95 -2.65 -16.6 -2.3 -17.45 -2.0 -17.7 L-1.95 -17.9 -1.95 -17.85 Q-2.2 -18.6 -2.5 -19.25 -3.1 -20.65 -3.6 -20.8 -3.9 -21.2 -4.25 -21.2 -4.5 -21.2 -4.55 -20.9 L-4.65 -20.95 Q-4.85 -20.65 -4.9 -20.65 -5.05 -20.65 -5.15 -20.75 -5.35 -20.85 -5.4 -21.35 L-5.4 -21.55 Q-5.45 -22.5 -4.6 -22.65 L-4.3 -22.65 -4.25 -22.7 Q-3.6 -22.35 -3.15 -21.55 L-2.8 -21.0 -2.8 -20.95 -2.75 -20.7 Q-2.6 -20.45 -2.5 -20.15 -2.35 -19.8 -2.3 -19.4 M-2.1 -0.1 L-2.3 -1.1 Q-2.55 -2.35 -2.6 -2.95 L-2.6 -3.15 Q-2.55 -3.35 -2.4 -3.55 L-2.15 -2.25 -2.1 -1.9 -2.05 -2.0 -1.95 -2.35 Q-1.8 -2.1 -1.75 -2.0 L-1.45 -1.4 -1.4 -1.4 -1.25 -1.0 -0.85 -0.2 Q-0.7 0.25 -0.65 0.9 L-0.65 1.05 Q-0.75 1.35 -1.1 1.4 L-1.15 1.45 -1.4 1.45 Q-1.7 1.5 -1.9 1.05 -2.0 0.8 -2.05 0.6 -2.1 0.35 -2.1 0.1 L-2.1 -0.1" fill="#860086" fill-rule="evenodd" stroke="none"/>
  </g>
</svg>
