<?xml version="1.0" encoding="UTF-8" standalone="no"?>
<svg xmlns:ffdec="https://www.free-decompiler.com/flash" xmlns:xlink="http://www.w3.org/1999/xlink" ffdec:objectType="shape" height="16.4px" width="4.5px" xmlns="http://www.w3.org/2000/svg">
  <g transform="matrix(1.0, 0.0, 0.0, 1.0, 0.15, 14.95)">
    <path d="M3.65 -14.2 Q4.15 -15.3 4.3 -14.75 4.45 -14.35 4.3 -13.55 4.2 -12.85 3.7 -11.5 2.85 -9.9 2.4 -8.8 1.75 -7.4 1.5 -6.3 L1.45 -6.35 1.3 -5.35 1.15 -4.6 Q0.85 -2.6 1.15 -1.25 L1.35 -0.25 Q1.4 0.3 1.3 1.0 L1.3 1.2 Q1.1 1.45 0.7 1.45 L0.6 1.45 0.55 1.4 0.35 1.4 Q0.05 1.35 -0.1 0.75 L-0.15 0.25 Q-0.15 -0.05 -0.05 -0.3 L0.05 -0.85 0.05 -3.0 Q-0.05 -4.9 0.05 -5.6 0.2 -6.55 0.4 -6.3 0.55 -6.1 0.65 -5.15 L0.75 -4.15 0.9 -4.9 0.9 -5.0 Q1.2 -6.05 1.35 -6.75 L1.65 -7.7 1.65 -7.8 Q1.75 -8.25 2.25 -9.65 L2.3 -9.8 Q2.75 -10.9 2.95 -11.5 L3.15 -12.0 Q3.2 -12.35 3.35 -13.1 3.45 -13.75 3.65 -14.2" fill="#420040" fill-rule="evenodd" stroke="none"/>
  </g>
</svg>
