<?xml version="1.0" encoding="UTF-8" standalone="no"?>
<svg xmlns:ffdec="https://www.free-decompiler.com/flash" xmlns:xlink="http://www.w3.org/1999/xlink" ffdec:objectType="shape" height="27.4px" width="4.1px" xmlns="http://www.w3.org/2000/svg">
  <g transform="matrix(1.0, 0.0, 0.0, 1.0, 1.65, 25.95)">
    <path d="M0.45 -25.9 Q1.1 -25.35 1.45 -24.3 L1.7 -23.6 1.7 -23.25 Q1.85 -22.95 1.85 -22.6 2.0 -22.15 2.0 -21.7 2.1 -21.35 2.1 -20.75 L2.1 -19.9 2.25 -19.8 Q2.3 -19.8 2.4 -19.65 2.45 -19.55 2.45 -19.4 L2.4 -19.2 2.4 -18.95 2.3 -18.75 Q2.1 -18.15 1.65 -17.6 L0.75 -16.55 Q-0.3 -14.7 -0.85 -12.05 L-0.95 -11.95 -1.05 -12.15 -1.0 -12.55 Q-0.6 -16.15 1.05 -18.7 1.6 -19.6 2.0 -19.75 L2.05 -19.95 Q1.95 -20.8 1.75 -21.6 1.3 -23.3 0.8 -23.6 0.55 -24.15 0.2 -24.25 -0.1 -24.3 -0.2 -24.0 L-0.3 -24.1 Q-0.6 -23.85 -0.65 -23.85 -0.8 -23.9 -0.9 -24.05 -1.1 -24.2 -1.05 -24.75 L-1.05 -24.9 -1.0 -24.95 Q-0.9 -26.0 0.05 -25.95 L0.4 -25.85 0.45 -25.9 M-1.5 -4.0 Q-1.4 -4.2 -1.2 -4.4 -1.2 -4.0 -1.2 -2.85 L-1.2 -2.5 -1.15 -2.55 -0.95 -2.95 -0.55 -1.75 -0.4 -1.25 -0.15 -0.25 Q-0.05 0.3 -0.15 1.0 L-0.2 1.2 Q-0.35 1.45 -0.75 1.45 L-0.85 1.45 -0.9 1.4 -1.1 1.4 Q-1.4 1.35 -1.55 0.75 L-1.65 0.25 -1.6 -0.3 -1.55 -0.55 -1.6 -1.65 Q-1.6 -3.1 -1.55 -3.8 L-1.5 -4.0" fill="#debcfa" fill-rule="evenodd" stroke="none"/>
  </g>
</svg>
