<?xml version="1.0" encoding="UTF-8" standalone="no"?>
<svg xmlns:ffdec="https://www.free-decompiler.com/flash" xmlns:xlink="http://www.w3.org/1999/xlink" ffdec:objectType="shape" height="17.0px" width="4.7px" xmlns="http://www.w3.org/2000/svg">
  <g transform="matrix(1.0, 0.0, 0.0, 1.0, 6.4, 14.75)">
    <path d="M-6.35 -13.6 Q-6.45 -14.8 -6.1 -14.75 -5.75 -14.7 -5.65 -13.95 -5.5 -13.35 -5.6 -12.3 -5.65 -11.6 -5.65 -11.05 L-5.55 -11.0 -5.55 -10.8 Q-5.2 -9.15 -4.9 -8.95 L-4.9 -8.9 -4.75 -8.5 Q-4.55 -8.0 -4.15 -7.1 L-4.15 -7.0 Q-3.7 -5.9 -3.65 -5.5 L-3.6 -5.45 -3.35 -4.7 Q-3.25 -4.1 -2.95 -3.25 L-2.95 -3.15 -2.75 -2.2 -2.7 -4.05 -2.7 -4.2 -2.8 -4.65 Q-3.0 -5.8 -2.7 -6.05 -2.35 -6.3 -2.15 -5.15 -2.05 -4.7 -2.15 -4.2 L-2.3 -3.5 -2.35 -2.9 -2.45 -0.95 -2.1 0.5 Q-2.0 0.7 -2.0 0.95 L-2.05 1.35 Q-2.15 1.8 -2.4 1.85 L-2.6 1.85 -2.7 1.9 Q-3.0 1.9 -3.15 1.65 L-3.2 1.55 Q-3.3 1.0 -3.25 0.5 L-3.1 -0.25 Q-2.85 -1.35 -3.15 -2.95 L-3.3 -3.55 -3.45 -4.35 -3.45 -4.3 -3.65 -4.85 -3.8 -5.8 Q-4.05 -6.6 -4.3 -7.0 L-4.9 -8.15 Q-5.5 -9.35 -5.65 -9.7 L-5.8 -10.45 -5.95 -10.95 -5.95 -11.0 -6.0 -11.35 -6.15 -12.3 -6.35 -13.6" fill="#860086" fill-rule="evenodd" stroke="none"/>
    <path d="M-1.75 -9.55 L-1.8 -9.4 -2.05 -9.4 Q-2.1 -9.4 -2.2 -9.45 -2.3 -9.55 -2.4 -9.7 L-2.45 -9.7 -2.5 -9.75 Q-2.95 -9.65 -3.3 -9.3 L-3.45 -9.15 -3.65 -8.7 -3.65 -8.6 -3.75 -8.35 -3.75 -8.55 -3.8 -8.6 Q-3.75 -8.9 -3.15 -9.8 L-3.05 -10.0 Q-2.8 -10.25 -2.6 -10.3 L-2.1 -10.4 -2.0 -10.35 Q-1.7 -10.3 -1.7 -9.85 -1.7 -9.7 -1.75 -9.55" fill="#860086" fill-opacity="0.69803923" fill-rule="evenodd" stroke="none"/>
    <path d="M-4.6 -13.3 L-4.4 -13.3 Q-3.7 -12.75 -3.35 -11.75 L-3.55 -12.0 Q-3.85 -12.3 -4.05 -12.4 L-4.2 -12.45 -4.35 -12.55 Q-4.55 -12.55 -4.55 -12.35 L-4.65 -12.4 -4.65 -12.15 -4.6 -11.9 Q-4.6 -11.6 -4.85 -11.6 -5.15 -11.6 -5.25 -11.95 L-5.25 -12.75 -5.15 -12.85 -5.1 -13.0 -5.05 -12.95 -5.05 -13.05 -4.85 -13.25 -4.6 -13.3 M-3.7 0.35 L-3.5 0.35 -3.35 0.55 -3.3 0.6 -3.25 0.75 -3.05 1.25 Q-2.95 1.6 -2.95 2.0 L-2.95 2.05 Q-3.05 2.25 -3.25 2.25 L-3.45 2.25 Q-3.6 2.25 -3.75 2.0 L-3.8 1.7 -3.85 1.35 -3.8 0.9 -3.7 1.35 Q-3.6 1.3 -3.55 1.25 L-3.65 0.5 -3.7 0.35" fill="#860086" fill-opacity="0.8" fill-rule="evenodd" stroke="none"/>
    <path d="M-3.7 0.35 L-3.65 0.5 -3.55 1.25 Q-3.6 1.3 -3.7 1.35 L-3.8 0.9 -3.85 0.7 Q-3.95 0.25 -3.95 -0.05 -3.95 -0.2 -3.95 -0.15 L-3.9 -0.15 Q-3.75 0.05 -3.7 0.35" fill="#860086" fill-rule="evenodd" stroke="none"/>
  </g>
</svg>
