<?xml version="1.0" encoding="UTF-8" standalone="no"?>
<svg xmlns:ffdec="https://www.free-decompiler.com/flash" xmlns:xlink="http://www.w3.org/1999/xlink" ffdec:objectType="shape" height="14.3px" width="7.2px" xmlns="http://www.w3.org/2000/svg">
  <g transform="matrix(1.0, 0.0, 0.0, 1.0, 8.25, 13.1)">
    <path d="M-1.4 -0.05 L-1.4 -0.3 Q-1.4 -0.65 -1.3 -0.75 L-1.2 -0.65 Q-1.3 -0.45 -1.2 -0.05 L-1.15 0.05 -1.1 0.2 Q-1.05 0.35 -1.1 0.45 L-1.15 0.6 -1.3 0.5 -1.3 0.35 -1.35 0.25 -1.4 0.05 -1.4 -0.05" fill="#860086" fill-rule="evenodd" stroke="none"/>
    <path d="M-1.4 -0.05 L-1.4 0.05 -1.35 0.25 -1.3 0.35 -1.3 0.5 -1.15 0.6 -1.1 0.45 -1.05 0.6 -1.1 0.85 Q-1.2 1.15 -1.4 1.2 L-1.7 1.2 Q-2.05 1.2 -2.2 1.05 L-2.2 1.0 Q-2.3 0.6 -2.25 0.35 L-2.2 0.1 -2.15 0.1 Q-2.05 0.0 -1.9 -0.05 L-1.5 -0.1 -1.4 -0.05 M-3.0 -12.75 L-2.95 -12.7 Q-2.9 -12.65 -2.85 -12.45 L-2.8 -12.25 -2.8 -11.95 Q-2.9 -11.6 -3.25 -11.55 -3.45 -11.55 -3.6 -11.65 -3.75 -11.7 -3.75 -11.85 -3.8 -12.0 -3.7 -12.1 -3.65 -12.15 -3.6 -12.2 L-3.65 -12.25 -3.65 -12.45 -3.8 -12.55 -3.85 -12.6 -4.05 -12.6 -4.1 -12.55 -4.2 -12.55 -4.3 -12.45 -4.5 -12.4 Q-4.8 -12.3 -5.1 -11.95 L-5.15 -11.85 -5.15 -11.9 -5.05 -12.4 -4.55 -12.9 -4.45 -12.95 -4.3 -13.0 Q-3.8 -13.2 -3.45 -13.05 -3.1 -12.95 -3.0 -12.75 M-3.7 -11.65 L-3.7 -11.65 M-7.25 -9.1 L-7.35 -9.05 -7.5 -9.0 Q-7.75 -9.0 -8.0 -9.2 -8.2 -9.4 -8.2 -9.55 -8.4 -10.2 -7.55 -10.5 -7.2 -10.65 -6.95 -10.6 -6.6 -10.55 -6.55 -10.3 L-6.5 -10.2 -6.55 -10.2 -6.85 -10.25 -7.1 -10.3 Q-7.4 -10.3 -7.55 -9.85 L-7.4 -9.5 Q-7.3 -9.25 -7.25 -9.1" fill="#860086" fill-opacity="0.69803923" fill-rule="evenodd" stroke="none"/>
  </g>
</svg>
