<?xml version="1.0" encoding="UTF-8" standalone="no"?>
<svg xmlns:ffdec="https://www.free-decompiler.com/flash" xmlns:xlink="http://www.w3.org/1999/xlink" ffdec:objectType="shape" height="24.7px" width="5.0px" xmlns="http://www.w3.org/2000/svg">
  <g transform="matrix(1.0, 0.0, 0.0, 1.0, 0.15, 23.25)">
    <path d="M4.75 -21.0 Q4.85 -20.55 4.85 -19.7 L4.8 -18.7 Q4.8 -18.35 4.8 -17.9 L4.65 -16.9 4.55 -16.0 4.5 -15.75 4.5 -15.7 4.4 -15.05 4.35 -14.65 4.35 -14.55 4.2 -13.95 4.0 -13.05 Q3.85 -12.6 3.15 -11.15 L2.7 -10.3 2.85 -10.7 2.9 -10.8 3.7 -12.8 Q3.75 -13.0 3.95 -14.1 4.15 -15.35 4.15 -17.5 L4.15 -18.05 4.2 -18.55 Q4.25 -19.8 4.05 -20.45 L3.6 -21.35 Q3.55 -22.0 3.65 -22.4 3.75 -23.05 3.95 -23.2 4.15 -23.35 4.35 -23.0 4.65 -22.55 4.7 -21.9 4.8 -21.45 4.75 -21.0 M1.9 -8.05 L1.7 -6.95 1.5 -6.3 1.45 -6.35 1.3 -5.35 1.15 -4.6 Q0.85 -2.6 1.15 -1.25 L1.35 -0.25 Q1.4 0.3 1.3 1.0 L1.3 1.2 Q1.1 1.45 0.7 1.45 L0.6 1.45 0.55 1.4 0.35 1.4 Q0.05 1.35 -0.1 0.75 L-0.15 0.25 -0.15 0.1 -0.05 -1.25 Q0.0 -1.7 0.0 -2.05 L-0.05 -4.8 Q-0.1 -8.65 0.0 -9.5 0.3 -11.3 0.75 -10.95 1.2 -10.6 0.95 -9.15 0.9 -8.7 0.55 -7.4 L0.15 -5.9 Q0.05 -5.25 0.3 -3.25 L0.4 -2.35 Q0.8 -4.3 0.9 -4.9 L0.9 -5.0 Q1.2 -5.95 1.3 -6.6 L1.9 -8.05" fill="#420040" fill-rule="evenodd" stroke="none"/>
  </g>
</svg>
