<?xml version="1.0" encoding="UTF-8" standalone="no"?>
<svg xmlns:ffdec="https://www.free-decompiler.com/flash" xmlns:xlink="http://www.w3.org/1999/xlink" ffdec:objectType="shape" height="20.35px" width="9.3px" xmlns="http://www.w3.org/2000/svg">
  <g transform="matrix(1.0, 0.0, 0.0, 1.0, 3.5, 19.4)">
    <path d="M0.5 -16.85 L0.75 -16.8 0.85 -16.7 1.35 -16.3 1.55 -16.05 1.75 -15.45 1.75 -15.4 1.65 -15.55 Q1.2 -15.95 0.85 -16.1 L0.65 -16.2 0.35 -16.3 0.3 -16.35 0.0 -16.35 -0.2 -16.2 -0.15 -16.1 -0.2 -15.95 -0.2 -15.9 -0.1 -15.75 Q0.05 -15.6 0.05 -15.4 0.0 -15.25 -0.15 -15.15 -0.35 -15.05 -0.55 -15.05 -1.0 -15.1 -1.15 -15.55 L-1.2 -15.85 -1.25 -15.95 -1.2 -16.15 Q-1.15 -16.4 -1.05 -16.5 L-1.0 -16.55 Q-0.95 -16.8 -0.55 -16.95 L-0.35 -17.0 0.3 -16.9 0.5 -16.85 M4.1 -13.85 Q4.4 -13.9 4.85 -13.7 5.95 -13.3 5.8 -12.5 5.75 -12.35 5.55 -12.1 5.3 -11.8 5.0 -11.8 4.85 -11.8 4.8 -11.85 L4.7 -11.95 4.85 -12.45 4.95 -12.9 Q4.7 -13.4 4.35 -13.45 L4.05 -13.4 3.7 -13.3 3.65 -13.3 Q3.6 -13.3 3.65 -13.5 3.7 -13.8 4.1 -13.85 M-0.05 -15.15 L-0.05 -15.15 M-2.85 -17.0 L-3.5 -17.0 Q-3.2 -17.05 -2.85 -17.0 M-1.6 -0.55 L-1.55 -0.65 Q-1.45 -1.15 -1.6 -1.4 L-1.5 -1.5 Q-1.4 -1.4 -1.3 -1.0 L-1.25 -0.65 -1.2 -0.75 -0.65 -0.7 -0.35 -0.45 -0.25 -0.4 -0.15 -0.15 Q-0.05 0.2 -0.15 0.65 L-0.2 0.75 Q-0.35 0.95 -0.75 0.95 L-0.8 0.9 -1.1 0.9 Q-1.4 0.85 -1.55 0.5 L-1.65 0.15 -1.6 -0.05 -1.65 -0.05 -1.6 -0.35 -1.6 -0.55" fill="#debcfa" fill-rule="evenodd" stroke="none"/>
    <path d="M-1.4 -18.5 L-1.4 -18.4 -1.35 -18.3 Q-1.35 -18.2 -1.45 -18.05 L-1.6 -17.9 -1.8 -18.1 Q-1.8 -18.35 -1.65 -18.45 L-1.5 -18.5 -1.4 -18.5 M-1.3 -19.15 L-1.3 -19.15 M-2.0 -19.4 L-2.05 -19.35 -2.05 -19.4 -2.0 -19.4 M-1.1 -17.85 L-1.1 -17.85" fill="#860086" fill-opacity="0.14901961" fill-rule="evenodd" stroke="none"/>
    <path d="M0.4 -0.35 L0.35 -0.05 -0.2 -0.05 -0.2 -0.1 Q-0.2 -0.5 -0.1 -0.6 0.35 -0.55 0.4 -0.35" fill="#860086" fill-opacity="0.2" fill-rule="evenodd" stroke="none"/>
  </g>
</svg>
