<?xml version="1.0" encoding="UTF-8" standalone="no"?>
<svg xmlns:ffdec="https://www.free-decompiler.com/flash" xmlns:xlink="http://www.w3.org/1999/xlink" ffdec:objectType="shape" height="19.6px" width="2.9px" xmlns="http://www.w3.org/2000/svg">
  <g transform="matrix(1.0, 0.0, 0.0, 1.0, 1.0, 17.35)">
    <path d="M1.65 -17.0 L1.65 -16.95 1.7 -16.95 1.9 -16.65 1.9 -16.15 Q1.95 -15.9 1.9 -15.65 1.8 -15.2 1.4 -15.2 1.1 -15.2 1.1 -15.6 1.1 -15.7 1.2 -15.9 L1.15 -16.2 1.05 -16.2 Q1.0 -16.4 0.8 -16.4 L0.55 -16.3 0.4 -16.25 Q0.15 -16.1 -0.25 -15.7 L-0.45 -15.4 Q-0.05 -16.65 0.85 -17.35 L1.1 -17.35 1.35 -17.3 1.65 -17.0 M0.05 -0.1 L0.1 1.15 0.1 1.55 0.0 1.9 Q-0.15 2.25 -0.35 2.25 L-0.65 2.25 Q-0.9 2.25 -1.0 2.0 L-1.0 1.9 Q-1.0 1.4 -0.85 1.0 L-0.6 0.35 -0.55 0.15 -0.5 0.1 -0.3 -0.15 0.0 -0.15 0.05 -0.1" fill="#860086" fill-opacity="0.8" fill-rule="evenodd" stroke="none"/>
  </g>
</svg>
