<?xml version="1.0" encoding="UTF-8" standalone="no"?>
<svg xmlns:ffdec="https://www.free-decompiler.com/flash" xmlns:xlink="http://www.w3.org/1999/xlink" ffdec:objectType="shape" height="17.65px" width="9.45px" xmlns="http://www.w3.org/2000/svg">
  <g transform="matrix(1.0, 0.0, 0.0, 1.0, 3.45, 17.15)">
    <path d="M0.55 -16.8 Q0.4 -16.9 0.05 -16.7 L-0.05 -16.7 -0.15 -16.6 -0.15 -16.55 0.0 -16.25 0.45 -16.4 Q0.75 -16.35 0.8 -16.1 L0.85 -15.8 Q0.8 -15.65 0.6 -15.45 0.35 -15.25 0.0 -15.25 L-0.05 -15.25 Q-0.5 -15.5 -0.65 -15.65 -0.9 -15.95 -0.8 -16.4 -0.75 -16.6 -0.5 -16.9 L-0.3 -17.0 0.65 -16.9 0.7 -16.85 Q0.9 -16.75 1.0 -16.6 0.95 -16.6 0.55 -16.8 M6.0 -13.65 L5.9 -13.15 Q5.4 -12.65 5.25 -12.7 4.5 -12.75 4.35 -13.1 4.3 -13.3 4.35 -13.4 4.45 -13.85 4.7 -13.85 5.0 -13.85 5.25 -13.2 5.4 -13.2 5.55 -13.45 5.7 -13.65 6.0 -13.65 M1.8 -15.65 L1.8 -15.65 M-3.35 -17.05 L-3.25 -17.15 Q-2.8 -17.1 -2.5 -17.0 L-3.45 -17.0 -3.35 -17.05 M-1.35 -0.85 L-0.65 -0.75 Q-0.45 -0.75 -0.3 -0.4 L-0.25 -0.35 -0.35 0.0 -0.4 0.5 -1.05 0.5 Q-1.35 0.45 -1.5 0.1 -1.55 -0.1 -1.55 -0.25 -1.6 -0.4 -1.5 -0.6 L-1.45 -0.7 -1.35 -0.85" fill="#debcfa" fill-rule="evenodd" stroke="none"/>
  </g>
</svg>
