<?xml version="1.0" encoding="UTF-8" standalone="no"?>
<svg xmlns:ffdec="https://www.free-decompiler.com/flash" xmlns:xlink="http://www.w3.org/1999/xlink" ffdec:objectType="shape" height="63.8px" width="264.45px" xmlns="http://www.w3.org/2000/svg">
  <g transform="matrix(1.0, 0.0, 0.0, 1.0, -53.05, -8.95)">
    <path d="M309.75 8.95 L311.75 15.85 Q313.95 23.65 314.15 26.7 L315.35 35.85 315.75 41.35 315.9 42.2 315.65 42.9 316.05 50.05 316.65 57.15 316.65 66.9 317.0 69.75 317.5 70.95 304.8 70.95 303.3 71.6 301.5 72.0 300.0 72.45 297.65 72.6 297.65 72.75 289.8 72.75 281.6 71.1 277.55 71.15 276.45 71.55 270.75 71.45 269.5 71.05 269.25 70.95 246.05 70.95 245.0 71.15 237.15 71.75 224.4 71.85 217.05 71.1 216.65 70.95 165.75 70.95 162.4 71.7 151.55 72.75 145.8 71.9 140.55 70.95 105.2 70.95 102.65 71.4 98.55 71.75 94.75 71.35 91.9 70.95 91.85 70.95 87.9 71.65 81.0 72.3 76.55 72.05 75.45 71.55 73.35 70.95 53.05 70.95 Q54.35 68.6 53.85 62.25 L53.85 53.95 Q54.2 52.1 54.35 49.0 L54.5 44.15 54.6 41.9 54.6 41.55 54.95 36.3 Q56.15 29.4 56.45 25.85 56.6 24.55 57.8 20.05 L58.95 15.45 58.95 15.05 60.5 8.95 309.75 8.95" fill="#ff0000" fill-rule="evenodd" stroke="none"/>
  </g>
</svg>
