<?xml version="1.0" encoding="UTF-8" standalone="no"?>
<svg xmlns:ffdec="https://www.free-decompiler.com/flash" xmlns:xlink="http://www.w3.org/1999/xlink" ffdec:objectType="shape" height="64.55px" width="318.7px" xmlns="http://www.w3.org/2000/svg">
  <g transform="matrix(1.0, 0.0, 0.0, 1.0, -25.9, -8.95)">
    <path d="M338.4 15.8 L340.65 24.5 342.0 32.45 342.5 36.45 342.55 38.1 342.45 38.6 Q342.45 39.2 342.8 40.55 L342.9 42.65 343.1 44.0 343.05 44.8 Q343.05 46.0 343.2 46.8 L343.3 48.9 343.4 50.2 343.35 51.3 343.6 55.65 343.85 60.0 343.6 66.1 Q343.75 69.5 344.6 70.95 L322.6 70.95 320.9 71.4 318.7 71.6 311.45 71.15 311.25 70.95 304.0 70.95 301.45 72.1 Q298.25 73.5 294.5 73.5 292.25 73.5 287.6 72.25 283.25 71.05 280.7 70.95 L279.7 70.95 275.65 71.4 273.65 72.0 269.7 72.0 266.6 71.35 265.7 70.95 244.45 70.95 243.35 71.1 Q241.25 71.25 240.65 71.85 L239.15 71.85 236.0 71.55 232.85 71.25 229.55 71.6 227.55 72.05 227.55 72.15 223.8 72.15 216.7 70.95 162.0 70.95 160.15 71.55 Q157.55 72.55 156.45 72.65 L152.15 72.75 145.3 72.05 Q142.0 71.25 139.5 71.1 L139.3 71.0 139.3 70.95 102.15 70.95 Q101.75 71.35 100.95 71.5 L97.7 71.6 96.9 71.55 95.25 71.25 94.35 70.95 86.65 70.95 84.5 71.45 82.4 72.05 Q77.2 72.05 76.05 70.95 L25.9 70.95 25.9 70.45 Q27.0 68.65 27.05 63.75 L26.9 58.3 27.65 51.45 28.15 37.7 28.45 36.35 28.7 31.8 Q28.75 29.45 30.05 24.15 33.65 11.15 33.8 8.95 L336.65 8.95 338.4 15.8" fill="#ff0000" fill-rule="evenodd" stroke="none"/>
  </g>
</svg>
