<?xml version="1.0" encoding="UTF-8" standalone="no"?>
<svg xmlns:ffdec="https://www.free-decompiler.com/flash" xmlns:xlink="http://www.w3.org/1999/xlink" ffdec:objectType="shape" height="64.1px" width="328.65px" xmlns="http://www.w3.org/2000/svg">
  <g transform="matrix(1.0, 0.0, 0.0, 1.0, -21.0, -8.95)">
    <path d="M344.55 19.65 L345.9 24.6 346.7 32.25 348.0 46.4 348.0 52.35 Q348.35 55.2 348.35 64.1 348.55 69.4 349.65 70.95 L320.55 70.95 320.5 71.0 Q320.1 71.3 318.9 71.4 L314.7 71.4 312.35 70.95 305.25 70.95 301.0 72.1 Q297.75 73.05 293.6 73.05 L287.0 72.0 Q282.15 71.0 278.2 70.95 L277.65 70.95 275.25 71.35 272.25 71.9 269.4 71.9 266.1 71.1 265.5 70.95 244.4 70.95 238.3 71.6 234.2 71.15 233.6 70.95 233.5 70.95 231.55 71.25 226.9 71.8 226.35 71.9 225.85 71.9 224.3 72.1 224.1 72.15 224.0 72.15 220.15 71.9 219.7 71.9 218.5 71.65 217.85 71.5 214.6 70.95 163.65 70.95 Q160.25 72.95 153.5 72.95 L146.25 72.2 139.05 70.95 101.4 70.95 98.1 71.55 89.65 71.0 86.6 71.45 82.2 71.9 76.65 71.5 75.5 70.95 21.0 70.95 21.0 70.55 21.45 69.4 21.75 67.55 21.85 66.75 22.05 62.05 22.2 54.6 22.3 50.55 22.8 40.05 24.4 26.55 25.8 20.1 28.8 8.95 341.6 8.95 344.55 19.65 M286.6 71.0 L286.55 70.95 286.5 70.95 286.6 71.0" fill="#ff0000" fill-rule="evenodd" stroke="none"/>
  </g>
</svg>
