<?xml version="1.0" encoding="UTF-8" standalone="no"?>
<svg xmlns:ffdec="https://www.free-decompiler.com/flash" xmlns:xlink="http://www.w3.org/1999/xlink" ffdec:objectType="shape" height="48.7px" width="50.8px" xmlns="http://www.w3.org/2000/svg">
  <g transform="matrix(1.0, 0.0, 0.0, 1.0, -4.65, -3.75)">
    <path d="M13.5 4.95 L13.5 3.75 38.2 3.75 Q46.65 3.75 51.15 7.1 54.4 9.8 55.25 14.75 L55.45 18.25 55.45 38.05 55.25 41.6 Q53.2 52.45 38.2 52.45 L13.5 52.45 13.5 51.35 13.5 4.95" fill="url(#gradient0)" fill-rule="evenodd" stroke="none"/>
    <path d="M13.5 4.95 L13.5 51.35 Q6.3 48.9 4.9 41.6 4.65 39.85 4.65 38.05 L4.65 18.25 Q4.8 7.85 13.5 4.95" fill="url(#gradient1)" fill-rule="evenodd" stroke="none"/>
  </g>
  <defs>
    <linearGradient gradientTransform="matrix(0.0, 0.0312, -0.0297, 0.0, 141.1, 29.25)" gradientUnits="userSpaceOnUse" id="gradient0" spreadMethod="pad" x1="-819.2" x2="819.2">
      <stop offset="0.0" stop-color="#202020"/>
      <stop offset="1.0" stop-color="#757575"/>
    </linearGradient>
    <linearGradient gradientTransform="matrix(0.0, 0.0312, -0.0297, 0.0, 302.95, 29.25)" gradientUnits="userSpaceOnUse" id="gradient1" spreadMethod="pad" x1="-819.2" x2="819.2">
      <stop offset="0.0" stop-color="#202020"/>
      <stop offset="1.0" stop-color="#757575"/>
    </linearGradient>
  </defs>
</svg>
