<?xml version="1.0" encoding="UTF-8" standalone="no"?>
<svg xmlns:ffdec="https://www.free-decompiler.com/flash" xmlns:xlink="http://www.w3.org/1999/xlink" ffdec:objectType="shape" height="18.0px" width="56.15px" xmlns="http://www.w3.org/2000/svg">
  <g transform="matrix(1.0, 0.0, 0.0, 1.0, -772.25, -89.35)">
    <path d="M772.25 105.35 L824.05 105.35 Q826.4 105.25 826.4 102.35 L826.4 94.35 Q826.4 91.45 824.05 91.35 L777.25 91.35 777.25 89.35 824.05 89.35 Q828.4 89.25 828.4 94.35 L828.4 102.35 Q828.4 107.45 824.05 107.35 L772.25 107.35 772.25 105.35" fill="#131313" fill-opacity="0.8" fill-rule="evenodd" stroke="none"/>
    <path d="M777.25 91.35 L824.05 91.35 Q826.4 91.45 826.4 94.35 L826.4 102.35 Q826.4 105.25 824.05 105.35 L772.25 105.35 772.25 94.85 777.25 94.85 777.25 91.35" fill="#33343d" fill-rule="evenodd" stroke="none"/>
  </g>
</svg>
