<?xml version="1.0" encoding="UTF-8" standalone="no"?>
<svg xmlns:ffdec="https://www.free-decompiler.com/flash" xmlns:xlink="http://www.w3.org/1999/xlink" ffdec:objectType="shape" height="74.6px" width="74.5px" xmlns="http://www.w3.org/2000/svg">
  <g transform="matrix(1.0, 0.0, 0.0, 1.0, -759.0, -118.5)">
    <path d="M822.55 129.55 L825.5 132.9 Q833.5 142.65 833.5 155.85 833.5 169.05 825.5 178.95 L822.65 182.15 822.55 182.25 Q811.65 193.1 796.2 193.1 788.95 193.1 782.65 190.75 775.55 188.0 769.75 182.25 L769.65 182.15 Q759.0 171.3 759.0 155.85 759.0 140.35 769.75 129.55 774.6 124.65 780.35 122.0 L782.65 121.05 Q788.95 118.5 796.2 118.5 804.9 118.5 812.15 122.0 817.8 124.75 822.55 129.55" fill="#ff0000" fill-rule="evenodd" stroke="none"/>
  </g>
</svg>
