<?xml version="1.0" encoding="UTF-8" standalone="no"?>
<svg xmlns:ffdec="https://www.free-decompiler.com/flash" xmlns:xlink="http://www.w3.org/1999/xlink" ffdec:objectType="shape" height="78.35px" width="96.85px" xmlns="http://www.w3.org/2000/svg">
  <g transform="matrix(1.0, 0.0, 0.0, 1.0, 18.9, 18.35)">
    <path d="M5.25 -17.25 Q5.15 -16.35 4.3 -16.25 3.7 -16.15 3.6 -16.75 L3.5 -17.2 Q3.5 -17.75 4.0 -18.05 L4.65 -18.35 Q5.35 -18.1 5.25 -17.25 M53.95 -9.7 Q54.0 -8.85 53.25 -8.65 52.4 -8.35 51.95 -9.0 L51.9 -9.5 52.25 -10.2 52.9 -10.65 Q53.9 -10.7 53.95 -9.7 M77.6 18.55 Q76.9 19.25 76.65 18.9 L76.4 18.9 Q75.6 18.9 75.75 18.15 L75.95 17.7 76.45 17.3 76.8 17.2 77.2 17.2 77.4 17.4 Q78.4 17.6 77.6 18.55 M58.95 59.8 L58.7 59.35 58.6 58.6 Q58.6 57.8 59.45 57.75 L59.45 57.7 Q60.45 57.65 60.6 58.6 60.75 59.35 60.15 59.8 59.55 60.2 58.95 59.8 M-17.0 20.95 Q-16.8 21.35 -17.05 21.65 L-17.25 21.85 -18.2 22.15 Q-18.9 22.25 -18.9 21.65 L-18.9 21.2 -18.7 20.35 Q-18.5 19.85 -17.9 19.85 L-17.9 19.8 -17.45 20.25 -17.0 20.95 M-16.9 48.55 L-16.4 48.05 -15.95 47.85 Q-15.1 48.15 -15.3 49.0 -15.5 49.7 -16.2 49.6 -16.8 49.5 -17.0 49.0 L-16.9 48.55" fill="#ffffff" fill-rule="evenodd" stroke="none"/>
  </g>
</svg>
