<?xml version="1.0" encoding="UTF-8" standalone="no"?>
<svg xmlns:ffdec="https://www.free-decompiler.com/flash" xmlns:xlink="http://www.w3.org/1999/xlink" ffdec:objectType="shape" height="74.05px" width="90.4px" xmlns="http://www.w3.org/2000/svg">
  <g transform="matrix(1.0, 0.0, 0.0, 1.0, 15.9, 16.0)">
    <path d="M8.4 -13.9 Q8.25 -12.1 6.55 -11.65 5.5 -11.45 4.7 -12.2 4.35 -12.6 4.4 -13.15 4.4 -14.1 5.0 -14.85 5.65 -15.8 6.55 -16.0 8.55 -15.8 8.4 -13.9 M51.75 -7.65 L51.95 -6.2 Q51.95 -5.55 51.6 -5.0 50.25 -4.2 49.5 -5.7 48.95 -6.8 49.7 -7.8 L50.65 -8.35 Q51.45 -8.45 51.75 -7.65 M72.15 17.6 L73.1 17.6 73.7 17.75 74.4 19.0 Q74.75 20.25 74.05 21.3 73.25 22.45 71.9 22.0 L71.05 21.05 Q70.35 20.2 70.7 19.05 71.05 17.85 72.15 17.6 M57.15 54.55 L57.45 54.55 57.95 54.75 58.3 54.95 Q58.7 55.6 58.6 56.4 58.5 57.75 57.15 58.0 56.25 58.2 55.6 57.65 55.25 57.25 55.35 56.65 55.45 55.85 56.0 55.25 56.5 54.65 57.15 54.55 M-15.6 20.75 Q-15.3 19.7 -14.3 19.55 -12.6 19.6 -12.5 21.2 -12.35 22.6 -13.4 23.65 -14.15 24.4 -15.2 23.95 -15.9 23.55 -15.9 22.7 L-15.6 20.75 M-11.2 45.25 Q-10.9 45.4 -10.7 45.65 L-10.6 46.15 -10.55 46.6 -10.8 47.85 Q-10.95 48.45 -11.45 48.75 L-12.9 48.7 Q-14.05 48.05 -13.95 46.8 L-13.65 45.3 -13.4 45.05 -13.25 44.9 -13.1 44.85 -12.7 44.8 -12.65 44.75 -11.85 44.95 -11.2 45.25" fill="#ffffff" fill-rule="evenodd" stroke="none"/>
  </g>
</svg>
