<?xml version="1.0" encoding="UTF-8" standalone="no"?>
<svg xmlns:ffdec="https://www.free-decompiler.com/flash" xmlns:xlink="http://www.w3.org/1999/xlink" ffdec:objectType="shape" height="91.9px" width="81.8px" xmlns="http://www.w3.org/2000/svg">
  <g transform="matrix(1.0, 0.0, 0.0, 1.0, 14.3, 20.7)">
    <path d="M11.1 -19.5 L11.1 -19.05 11.15 -19.0 10.8 -18.25 10.45 -17.7 9.95 -17.25 9.4 -17.25 8.9 -17.3 7.75 -17.8 Q7.2 -18.0 7.0 -18.55 6.85 -19.3 7.3 -19.95 8.15 -20.95 9.4 -20.65 10.15 -20.55 10.8 -20.05 L11.0 -19.85 11.1 -19.65 11.1 -19.5 M34.3 -14.65 Q32.9 -14.8 32.05 -16.0 31.4 -16.9 32.05 -17.85 32.6 -18.45 33.4 -18.25 L35.3 -17.65 Q36.3 -17.2 36.25 -16.15 35.9 -14.5 34.3 -14.65 M65.1 12.1 Q63.35 11.65 63.2 9.85 63.15 8.85 64.05 8.15 L65.05 8.05 Q66.0 8.2 66.65 8.95 67.45 9.75 67.5 10.65 66.95 12.55 65.1 12.1 M21.55 67.5 Q22.75 68.05 22.75 69.2 L22.55 70.15 22.35 70.7 20.95 71.2 Q19.65 71.3 18.8 70.4 17.75 69.45 18.5 68.15 18.95 67.75 19.55 67.5 20.5 67.0 21.55 67.5 M51.2 53.65 L49.8 53.6 48.65 53.05 Q48.15 51.55 49.7 51.1 50.9 50.75 51.8 51.65 52.2 52.1 52.1 52.65 52.05 53.5 51.2 53.65 M-14.3 47.3 Q-14.3 46.35 -13.7 45.8 L-12.65 45.75 Q-11.9 45.95 -11.4 46.6 -10.9 47.25 -10.9 47.85 L-11.0 48.2 -11.25 48.6 -11.5 48.9 -13.0 49.0 Q-14.3 48.65 -14.3 47.3" fill="#ffffff" fill-rule="evenodd" stroke="none"/>
    <path d="M44.95 12.3 Q46.2 11.7 47.3 11.45 L49.5 11.6 50.55 11.9 Q51.55 16.55 46.75 19.2 39.65 23.15 41.2 16.75 41.95 13.7 44.95 12.3 M49.05 27.7 L49.05 27.95 49.05 28.25 49.05 28.5 49.05 28.8 49.0 29.35 48.75 30.2 46.85 31.65 Q42.6 34.2 38.2 31.55 37.75 31.3 37.65 30.8 L37.7 30.25 Q38.05 29.2 38.7 28.35 40.5 26.05 43.55 25.75 L45.75 25.85 47.55 26.3 Q48.5 26.6 49.0 27.4 L49.05 27.7 M26.65 6.6 Q29.95 6.6 30.3 9.9 30.6 12.8 28.95 15.25 L27.05 17.75 26.75 17.9 26.25 17.95 24.5 17.85 Q23.2 16.6 23.0 14.75 22.6 12.0 23.6 9.65 24.55 7.35 26.65 6.6 M14.7 10.0 L15.3 11.0 Q17.85 11.6 18.75 14.1 19.3 15.7 19.15 17.5 18.9 20.05 16.5 21.0 13.7 19.75 11.95 17.05 10.25 14.4 9.85 11.25 9.55 8.75 11.65 8.1 12.7 8.0 13.45 8.7 L14.7 10.0 M18.0 26.5 L18.7 26.65 19.05 26.95 19.25 27.2 19.65 28.05 19.8 28.9 19.8 29.15 Q17.85 32.5 14.55 34.4 12.05 35.85 12.15 33.15 12.3 29.15 15.85 26.9 16.4 26.5 16.9 26.45 L18.0 26.5 M-5.05 28.65 L-4.45 28.45 Q-1.85 29.05 -2.95 31.65 -3.8 33.55 -5.75 34.55 -6.5 35.0 -7.2 34.85 -10.7 36.2 -13.3 33.65 L-13.35 33.45 -13.2 31.75 Q-12.8 30.0 -11.0 29.15 L-9.0 28.3 Q-6.25 27.75 -5.05 28.65" fill="#ffffff" fill-rule="evenodd" stroke="none"/>
    <path d="M30.2 25.5 Q27.1 32.2 21.95 27.85 20.3 26.35 20.65 23.8 21.45 19.1 26.15 18.15 33.3 18.75 30.2 25.5" fill="#ffffff" fill-rule="evenodd" stroke="none"/>
  </g>
</svg>
