<?xml version="1.0" encoding="UTF-8" standalone="no"?>
<svg xmlns:ffdec="https://www.free-decompiler.com/flash" xmlns:xlink="http://www.w3.org/1999/xlink" ffdec:objectType="shape" height="76.3px" width="93.7px" xmlns="http://www.w3.org/2000/svg">
  <g transform="matrix(1.0, 0.0, 0.0, 1.0, 17.4, 17.15)">
    <path d="M4.65 -17.15 L5.3 -17.1 5.75 -16.95 6.15 -16.5 6.25 -16.25 6.35 -16.0 6.35 -15.5 6.15 -14.8 6.0 -14.55 5.85 -14.45 5.3 -14.25 Q4.4 -14.05 3.8 -14.65 L3.7 -15.15 3.65 -16.1 Q3.6 -16.75 4.25 -17.0 L4.65 -17.15 M52.35 -9.65 L52.65 -9.4 52.9 -9.15 53.05 -8.7 52.9 -7.75 52.25 -7.0 51.95 -6.9 51.6 -6.9 Q51.35 -6.95 51.2 -7.15 L50.85 -7.55 50.8 -7.75 50.8 -8.0 50.8 -8.25 50.8 -8.5 50.8 -8.75 50.8 -9.0 51.0 -9.25 51.3 -9.5 51.45 -9.6 51.95 -9.8 52.35 -9.65 M75.55 18.05 L75.85 18.25 76.05 18.45 Q76.35 18.8 76.3 19.2 76.25 19.9 75.85 20.45 75.5 21.05 74.75 20.9 73.9 20.85 73.9 20.05 L74.0 18.55 Q74.1 17.85 74.75 17.85 L75.1 17.85 75.55 18.05 M58.85 56.35 L59.25 56.5 59.5 56.75 59.65 57.25 59.7 57.7 59.45 58.45 59.2 58.65 Q58.6 59.35 57.75 59.05 56.9 58.75 56.8 57.95 L56.9 57.5 57.05 57.05 57.75 56.4 58.15 56.25 58.45 56.3 58.85 56.35 M-17.15 20.2 Q-16.95 19.8 -16.6 19.8 -15.7 19.7 -15.45 20.45 -15.2 21.2 -15.45 21.95 -15.65 22.45 -16.25 22.45 -17.1 22.35 -17.35 21.55 -17.55 20.8 -17.15 20.2 M-15.5 48.9 L-15.75 48.65 -15.95 48.4 -15.95 47.95 -15.95 47.45 Q-15.95 46.8 -15.35 46.6 L-14.95 46.45 -14.6 46.5 -14.25 46.55 -13.85 46.7 -13.55 46.95 -13.4 47.65 -13.65 48.65 Q-13.95 49.2 -14.6 49.3 L-15.2 49.1 -15.5 48.9" fill="#ffffff" fill-rule="evenodd" stroke="none"/>
    <path d="M15.0 -2.8 Q16.3 -1.6 16.85 0.15 L16.95 1.2 16.4 3.45 15.95 4.3 Q15.25 4.6 14.5 4.3 12.35 3.35 11.45 1.1 10.75 -0.9 10.7 -2.9 L10.8 -3.45 Q11.25 -4.05 11.9 -4.0 13.7 -3.85 15.0 -2.8 M53.6 18.45 L53.35 19.4 53.15 19.95 51.3 20.85 48.2 21.0 Q46.45 20.65 45.3 19.45 44.8 16.5 47.8 16.0 50.2 15.45 52.35 16.55 53.6 17.2 53.6 18.45 M45.3 40.45 L44.85 41.3 44.3 41.8 43.6 42.1 Q41.8 41.7 40.5 40.55 38.65 38.9 38.05 36.65 37.7 35.5 38.6 34.75 40.15 34.25 41.55 35.3 43.05 36.5 44.2 38.1 45.0 39.3 45.3 40.45 M28.9 0.8 Q26.25 -3.6 30.65 -3.95 34.65 -4.2 34.05 0.05 32.25 6.4 28.9 0.8 M8.25 36.4 Q6.9 42.65 1.5 41.2 0.2 40.85 0.35 39.35 0.75 33.3 6.55 34.65 8.05 34.95 8.25 36.4 M24.4 48.55 L24.85 50.75 Q24.1 52.7 23.35 53.55 22.2 56.0 19.35 53.45 16.5 50.95 18.65 49.1 18.1 46.35 21.2 46.15 23.65 46.0 24.4 48.55" fill="#ffffff" fill-rule="evenodd" stroke="none"/>
  </g>
</svg>
