<?xml version="1.0" encoding="UTF-8" standalone="no"?>
<svg xmlns:ffdec="https://www.free-decompiler.com/flash" xmlns:xlink="http://www.w3.org/1999/xlink" ffdec:objectType="shape" height="365.45px" width="230.75px" xmlns="http://www.w3.org/2000/svg">
  <g transform="matrix(1.0, 0.0, 0.0, 1.0, 122.0, 347.75)">
    <path d="M25.95 -330.85 Q20.85 -321.0 19.3 -317.0 34.25 -310.4 39.1 -303.65 42.7 -298.65 42.7 -289.4 42.7 -283.15 40.3 -279.55 34.95 -271.5 31.65 -264.05 L31.0 -263.05 Q31.8 -263.6 33.8 -266.1 35.7 -268.5 37.6 -269.6 43.8 -273.35 57.65 -269.55 57.35 -272.25 52.7 -277.2 48.25 -282.0 48.25 -285.5 48.25 -290.7 56.1 -297.2 65.05 -304.65 75.85 -304.65 92.05 -304.65 99.95 -283.8 102.45 -277.25 103.8 -269.35 L104.65 -262.6 Q104.65 -252.65 100.4 -244.95 97.65 -239.95 91.1 -233.15 84.0 -225.85 81.75 -222.35 77.5 -215.7 77.5 -207.65 77.5 -200.3 79.95 -196.9 81.85 -194.3 86.05 -193.2 L93.9 -191.35 Q98.6 -189.8 101.55 -186.2 107.5 -178.8 108.45 -173.25 108.85 -171.15 108.75 -168.1 L108.55 -162.3 Q108.55 -153.25 102.3 -143.3 98.35 -136.95 88.65 -126.1 78.3 -114.55 74.95 -109.55 68.7 -100.4 68.7 -92.75 68.7 -88.1 70.65 -70.1 L72.6 -51.8 Q72.6 -41.15 67.25 -33.25 60.3 -22.95 44.0 -16.4 39.95 -14.75 34.85 -8.9 L25.45 2.6 Q12.35 17.7 -2.6 17.7 -10.8 17.7 -16.55 16.15 L-24.85 13.65 Q-36.8 0.5 -39.8 -1.95 -41.3 -3.3 -50.0 -9.75 -57.65 -15.45 -59.3 -17.35 -63.85 -22.7 -68.1 -34.05 -71.85 -44.1 -77.15 -48.55 -104.9 -71.85 -112.15 -81.05 -122.0 -93.55 -122.0 -110.0 -122.0 -125.35 -115.8 -134.45 -105.7 -149.35 -78.45 -153.4 L-76.45 -155.45 Q-74.9 -157.0 -74.9 -157.3 -74.9 -162.15 -76.95 -171.55 -79.1 -181.55 -81.05 -183.6 -105.35 -185.9 -112.1 -198.7 -114.45 -203.2 -114.85 -209.6 -115.1 -213.2 -114.85 -219.35 L-114.7 -225.75 Q-114.15 -232.45 -112.3 -237.9 -106.45 -254.95 -89.5 -254.95 -75.4 -254.95 -72.55 -253.85 -71.55 -253.45 -71.2 -252.6 L-70.35 -251.05 Q-65.1 -254.65 -65.4 -258.7 L-66.1 -262.5 Q-66.75 -265.1 -66.75 -266.95 L-66.85 -268.75 Q-66.8 -270.85 -66.1 -272.45 -63.8 -277.55 -55.7 -275.75 -49.75 -273.75 -47.85 -268.3 L-46.25 -263.8 Q-45.0 -261.25 -42.7 -259.5 -34.1 -260.85 -31.6 -262.0 -29.05 -263.2 -29.05 -266.0 -29.05 -271.7 -34.9 -278.45 L-38.9 -283.15 Q-40.75 -285.6 -40.75 -287.45 -40.75 -298.45 -17.7 -294.25 -19.25 -304.05 -18.6 -310.0 -17.55 -319.05 -11.7 -326.1 L-5.25 -332.85 Q-0.3 -337.95 2.75 -341.7 8.0 -348.05 18.1 -347.75 22.4 -347.65 25.15 -346.0 28.1 -344.25 28.1 -341.4 28.1 -334.95 25.95 -330.85 M25.55 -248.35 L26.8 -247.0 29.1 -248.35 27.1 -248.3 25.55 -248.35 M68.2 -182.6 Q64.65 -185.6 62.95 -187.5 L63.15 -186.55 Q63.8 -184.65 66.45 -182.0 L68.45 -182.4 68.2 -182.6 M-9.35 -282.45 L-9.9 -282.35 -9.35 -282.1 -9.35 -282.45" fill="#ff0000" fill-opacity="0.11764706" fill-rule="evenodd" stroke="none"/>
    <path d="M6.0 -306.3 Q6.0 -301.4 9.4 -299.3 11.05 -298.25 16.85 -296.85 22.05 -295.55 24.25 -293.55 27.65 -290.5 27.65 -284.0 27.65 -279.65 26.0 -274.95 24.15 -269.8 21.0 -266.55 L20.4 -266.65 Q19.75 -266.85 19.4 -267.35 19.5 -268.75 20.55 -272.65 21.5 -276.35 21.5 -277.7 21.5 -283.4 19.1 -285.05 16.75 -286.7 9.1 -286.9 L7.2 -286.9 7.05 -286.9 2.2 -286.9 Q1.7 -287.4 -0.75 -287.8 -3.45 -290.35 -4.1 -293.7 L-4.1 -293.85 Q-5.1 -296.6 -4.85 -299.6 -4.85 -307.65 -0.7 -315.05 2.65 -321.15 8.35 -325.85 L11.55 -329.3 10.9 -327.85 12.2 -328.75 13.6 -328.5 Q14.0 -328.3 14.0 -326.65 14.0 -325.8 10.0 -318.85 6.0 -311.9 6.0 -306.3 M73.4 -278.9 L72.75 -280.1 72.7 -280.2 72.65 -280.3 71.6 -281.75 Q69.05 -284.85 65.7 -285.9 79.55 -291.1 86.45 -284.65 92.5 -278.95 92.5 -265.35 92.5 -257.35 89.4 -251.25 84.25 -241.05 71.65 -239.0 67.75 -238.35 65.95 -234.5 64.45 -231.35 64.7 -226.9 L64.7 -223.85 64.95 -218.9 64.85 -216.55 64.7 -216.15 Q64.4 -215.35 63.65 -214.85 L63.35 -213.8 62.05 -213.5 62.1 -214.0 Q62.8 -215.5 63.2 -217.35 63.65 -219.8 63.65 -224.7 63.65 -226.6 61.8 -230.95 59.65 -235.95 57.45 -237.55 45.95 -240.6 41.75 -231.1 L41.6 -230.7 Q37.5 -233.95 36.65 -235.75 36.2 -236.75 36.2 -241.2 36.2 -244.85 38.2 -248.05 39.9 -250.8 42.6 -251.9 L50.0 -251.05 Q54.45 -250.7 56.65 -248.65 58.7 -246.75 62.6 -246.75 66.7 -246.75 69.8 -251.25 71.9 -252.8 73.6 -255.5 76.75 -260.5 76.75 -265.1 L75.7 -270.2 75.7 -270.6 Q75.7 -274.25 73.4 -278.9 M12.4 -258.8 L11.9 -261.95 Q17.85 -259.7 18.35 -257.85 18.05 -254.0 18.2 -249.35 18.2 -238.85 20.45 -230.85 21.7 -226.2 27.15 -222.55 34.65 -218.3 39.2 -215.35 44.25 -212.1 45.85 -206.5 46.9 -199.9 47.5 -196.85 L48.0 -196.35 Q48.9 -197.0 51.5 -200.8 54.15 -204.7 55.35 -205.65 L57.45 -205.55 57.55 -205.5 58.8 -206.15 59.35 -206.35 Q59.85 -206.2 59.85 -204.6 59.85 -203.9 57.3 -197.8 54.7 -191.7 54.7 -188.05 54.7 -183.5 56.45 -179.15 57.75 -175.9 59.7 -174.45 61.25 -173.7 63.25 -173.25 L70.9 -174.35 78.6 -175.45 Q91.2 -175.45 91.2 -162.45 91.2 -155.0 86.65 -146.3 82.35 -138.15 76.05 -133.1 73.7 -131.0 70.85 -129.0 60.8 -121.95 56.9 -114.85 L55.6 -111.95 Q54.95 -107.75 54.4 -101.75 53.9 -96.0 53.9 -93.8 53.9 -86.9 55.55 -71.4 57.2 -55.9 57.2 -48.3 57.2 -46.95 55.15 -40.1 53.1 -33.3 52.6 -32.8 50.85 -31.0 49.9 -28.5 49.0 -26.15 48.25 -25.5 46.9 -24.3 42.2 -23.7 40.0 -22.45 37.05 -22.15 35.45 -21.95 29.9 -22.15 20.7 -22.4 17.15 -17.15 15.8 -15.2 14.75 -12.2 13.65 -9.3 12.6 -7.85 L9.15 -3.2 Q7.15 -0.65 5.2 0.75 0.0 4.55 -11.25 4.55 -20.65 4.55 -29.1 -6.4 -33.55 -12.15 -38.55 -21.0 L-38.25 -21.65 -38.55 -21.5 -43.95 -21.5 Q-51.4 -26.2 -53.65 -32.55 -54.65 -35.35 -55.25 -43.8 -55.75 -50.7 -58.55 -54.6 -62.55 -60.2 -73.2 -64.15 -75.65 -65.05 -77.9 -66.25 -82.55 -67.85 -84.75 -69.0 -86.95 -70.1 -90.55 -74.2 -93.7 -77.75 -95.9 -81.2 -99.55 -86.75 -101.95 -94.35 -104.3 -101.75 -104.3 -107.35 -104.3 -116.7 -99.6 -124.15 -96.35 -130.45 -89.25 -136.75 -88.2 -137.7 -84.0 -138.35 L-77.3 -139.35 -75.4 -140.0 -64.7 -143.6 Q-60.65 -146.15 -58.5 -149.85 L-55.9 -157.05 -53.7 -163.8 -55.2 -168.7 -57.85 -177.05 -57.8 -178.2 -57.85 -178.35 -57.75 -178.4 Q-57.2 -182.3 -53.15 -178.55 -50.05 -175.7 -45.9 -169.55 -43.6 -165.35 -43.1 -161.85 -42.9 -160.3 -42.9 -154.2 L-43.75 -141.5 -44.25 -135.05 -39.45 -146.15 Q-32.25 -165.05 -32.25 -179.0 -32.25 -190.8 -38.4 -201.3 -42.0 -207.35 -42.65 -208.85 -44.6 -213.15 -44.6 -217.6 -44.6 -230.2 -41.0 -238.95 -35.3 -252.75 -22.55 -247.5 L-19.65 -248.05 Q-16.05 -252.95 -15.4 -255.1 -15.05 -256.15 -15.05 -260.0 -15.05 -261.2 -16.6 -265.85 -18.2 -270.5 -18.2 -271.15 L-18.15 -273.05 -17.95 -274.05 Q-9.75 -277.75 -2.2 -263.05 0.5 -257.8 2.4 -251.55 4.05 -246.05 4.05 -243.7 4.05 -238.05 3.6 -236.7 L3.4 -236.05 3.0 -234.5 Q2.15 -231.75 -1.4 -225.85 -3.35 -226.2 -5.05 -227.35 L-8.65 -230.05 -13.1 -229.8 Q-18.75 -226.55 -20.0 -223.25 -20.45 -222.1 -20.45 -217.45 -20.45 -212.0 -19.9 -210.85 -18.4 -207.8 -11.25 -204.6 -0.7 -211.4 4.95 -220.3 6.55 -224.4 7.8 -229.5 11.55 -244.45 11.55 -258.8 L12.4 -258.8 M9.6 -230.4 Q10.5 -233.3 11.1 -236.75 9.75 -231.35 7.55 -225.55 L6.7 -223.3 Q8.45 -226.7 9.6 -230.4 M51.3 -241.85 L49.1 -241.35 54.15 -241.35 51.3 -241.85 M80.5 -170.75 L80.4 -170.8 80.2 -170.8 80.5 -170.75 M-90.0 -236.65 L-84.75 -237.0 Q-79.25 -237.0 -76.05 -235.55 -72.85 -234.15 -66.8 -234.15 -65.05 -234.15 -63.4 -234.9 L-58.8 -234.9 -58.15 -235.2 -55.65 -238.1 -55.35 -239.05 -54.25 -240.25 Q-52.85 -242.15 -52.85 -246.2 L-52.95 -248.0 -52.85 -248.05 Q-51.55 -244.25 -51.55 -239.25 -51.55 -235.1 -55.25 -231.75 -59.2 -228.2 -64.8 -228.2 -65.8 -228.2 -69.25 -228.95 L-71.9 -228.65 Q-81.2 -227.7 -85.15 -224.95 L-86.4 -224.0 -86.5 -223.85 -90.25 -217.8 Q-91.2 -214.75 -91.2 -210.75 -91.2 -208.95 -89.9 -205.75 -88.1 -203.6 -85.3 -201.7 L-83.1 -201.9 -79.35 -205.55 -79.2 -205.65 -76.6 -208.95 Q-73.15 -212.55 -67.85 -213.8 L-60.6 -213.8 Q-54.8 -209.7 -53.3 -205.5 -52.6 -203.5 -52.6 -197.9 -52.6 -196.15 -52.9 -194.35 -53.0 -192.2 -53.3 -191.55 L-53.9 -190.55 Q-55.55 -185.55 -58.45 -184.25 L-58.25 -184.75 Q-56.0 -189.85 -56.0 -193.3 -56.0 -198.45 -60.05 -201.2 -63.9 -203.8 -69.0 -202.95 -74.4 -202.1 -77.95 -197.75 L-78.5 -197.0 -81.2 -195.3 -83.5 -195.4 -83.7 -195.0 -86.1 -195.0 -86.45 -194.8 Q-86.7 -194.9 -86.8 -195.55 L-86.85 -195.55 -88.1 -196.05 -88.3 -196.05 -89.1 -196.75 -89.5 -197.1 -91.0 -198.5 -93.55 -201.15 Q-95.65 -203.5 -96.3 -205.1 -96.65 -206.0 -96.75 -209.05 -97.8 -213.35 -97.9 -218.0 -97.9 -231.4 -90.0 -236.65" fill="#f28420" fill-rule="evenodd" stroke="none"/>
    <path d="M14.15 -212.65 Q12.5 -207.05 9.95 -200.25 9.25 -193.85 8.5 -184.05 L7.85 -172.85 Q7.8 -167.4 8.9 -162.2 10.5 -154.7 13.95 -152.65 L14.3 -151.85 17.3 -151.85 Q24.8 -152.4 24.8 -168.35 24.8 -174.7 23.85 -179.15 L22.2 -181.55 22.8 -181.8 22.05 -181.75 21.8 -181.3 Q21.5 -181.15 21.5 -182.8 21.5 -183.55 22.55 -184.7 23.7 -186.0 24.5 -185.55 29.4 -185.55 33.3 -184.25 34.05 -183.7 36.25 -179.25 38.45 -174.95 38.45 -174.3 38.45 -167.2 37.7 -161.45 L37.45 -159.65 38.1 -160.45 Q45.15 -168.65 48.8 -168.35 L49.1 -168.75 Q49.35 -168.8 49.35 -167.2 49.35 -166.25 47.45 -163.1 L47.15 -162.45 46.9 -162.2 45.4 -159.95 Q40.9 -153.25 39.5 -149.1 L37.1 -141.0 36.5 -138.55 36.45 -137.65 Q36.45 -133.25 37.4 -123.65 37.95 -118.0 38.7 -114.0 L41.05 -109.95 44.6 -97.35 Q44.25 -96.8 43.3 -96.5 L43.55 -87.65 Q43.55 -83.55 40.85 -77.95 38.2 -72.5 35.95 -71.4 L29.9 -71.65 Q26.15 -74.4 25.6 -79.7 25.0 -85.2 22.3 -87.5 L18.35 -87.25 Q14.6 -83.4 14.1 -82.35 13.75 -81.65 13.75 -78.2 13.75 -75.35 15.85 -71.6 17.95 -67.85 17.95 -65.1 17.95 -60.8 15.05 -57.3 L7.05 -49.05 2.2 -49.35 Q1.15 -50.05 -0.45 -52.55 L-3.25 -57.05 Q-9.9 -56.8 -13.95 -54.3 L-20.45 -49.05 Q-29.2 -50.9 -31.3 -55.75 -32.0 -57.35 -32.0 -63.9 L-31.75 -68.55 Q-31.0 -71.05 -27.65 -73.2 L-24.15 -72.95 -20.05 -69.65 -15.35 -70.6 Q-11.4 -74.45 -10.55 -77.25 -10.2 -78.45 -10.2 -83.7 -10.2 -88.25 -10.6 -89.85 -11.65 -94.3 -15.6 -96.05 L-24.65 -95.8 Q-29.1 -93.6 -30.3 -90.4 L-31.1 -84.8 Q-31.6 -81.5 -34.35 -79.6 -38.1 -76.95 -47.25 -75.3 -50.65 -76.3 -51.55 -81.55 L-51.8 -88.45 Q-51.8 -95.65 -51.4 -97.1 -50.75 -101.25 -47.35 -106.0 -45.65 -108.35 -38.45 -116.35 -32.65 -122.8 -30.5 -127.0 -27.45 -133.05 -29.25 -138.7 -28.65 -141.3 -28.15 -145.05 L-28.45 -149.85 Q-28.45 -158.8 -26.05 -168.15 -22.95 -180.05 -17.45 -184.25 L-15.65 -184.3 Q-15.05 -184.2 -15.05 -182.55 -15.05 -181.2 -16.1 -179.65 L-16.75 -178.45 -16.65 -174.65 -16.9 -168.9 -16.9 -168.55 -16.4 -165.0 -14.85 -159.75 Q-13.35 -174.7 -4.65 -191.6 4.8 -210.05 14.15 -212.65 M34.45 -155.8 L35.05 -159.35 35.6 -163.6 34.4 -159.5 31.7 -150.95 Q32.45 -153.0 34.45 -155.8 M31.2 -148.7 L31.45 -150.3 30.95 -148.8 30.95 -148.3 31.2 -148.6 31.2 -148.7" fill="#ffcc00" fill-rule="evenodd" stroke="none"/>
    <path d="M17.05 -323.8 Q13.8 -316.95 13.8 -312.0 13.8 -308.05 17.0 -305.25 18.6 -303.85 24.05 -300.9 28.95 -298.2 31.05 -295.85 34.25 -292.3 34.25 -287.1 31.95 -277.95 29.5 -271.85 L29.7 -269.9 Q29.7 -269.15 26.8 -263.25 23.85 -257.35 23.85 -253.8 23.85 -249.6 26.8 -247.0 29.75 -248.35 36.8 -254.6 41.95 -259.15 47.9 -259.15 52.2 -259.15 56.35 -256.55 59.9 -254.35 61.9 -251.35 66.45 -254.95 67.45 -259.05 67.75 -260.25 67.75 -266.3 67.75 -273.1 61.75 -275.75 58.4 -277.2 57.6 -277.9 55.7 -279.45 55.7 -282.4 55.7 -287.35 62.2 -291.7 68.4 -295.9 74.55 -295.9 88.85 -295.9 96.3 -283.2 101.2 -274.85 101.2 -267.6 101.2 -265.5 97.9 -255.1 94.55 -244.55 93.1 -242.45 92.25 -241.3 84.6 -236.95 L74.9 -231.7 Q67.45 -228.0 67.8 -225.6 67.85 -225.1 68.8 -223.25 69.7 -221.55 69.7 -220.0 L69.7 -219.85 70.65 -221.0 72.55 -218.8 Q73.25 -217.7 73.25 -215.6 73.25 -214.0 71.65 -211.15 L68.05 -205.25 Q62.85 -196.5 62.85 -189.3 62.85 -187.35 63.15 -186.55 63.8 -184.65 66.45 -182.0 101.2 -189.15 101.2 -163.8 101.2 -153.0 94.55 -143.75 90.95 -138.75 79.95 -128.5 69.55 -118.9 65.3 -112.15 58.65 -101.7 58.65 -88.85 58.65 -83.7 60.6 -66.75 62.55 -49.8 62.55 -47.45 L62.5 -38.45 Q62.05 -33.5 59.7 -30.05 53.6 -21.1 30.05 -16.05 26.3 -15.3 23.35 -10.45 20.1 -4.05 18.05 -0.55 14.45 5.75 9.8 8.95 3.6 13.15 -5.85 13.15 -14.5 13.15 -25.2 5.7 -30.6 1.95 -34.6 -2.1 -37.2 -4.85 -38.4 -10.9 -39.55 -16.6 -42.05 -18.65 -56.25 -19.5 -60.85 -27.8 -63.6 -32.85 -62.55 -40.1 -61.55 -46.8 -64.45 -51.2 -68.35 -57.15 -81.05 -63.5 -96.4 -71.1 -104.85 -85.75 -111.95 -98.0 -111.95 -110.15 -111.95 -120.2 -108.45 -126.45 -103.4 -135.55 -89.5 -142.0 -81.0 -145.3 -77.35 -147.15 -71.2 -150.35 -68.4 -155.65 -64.85 -162.25 -64.25 -164.6 -63.85 -166.05 -63.85 -170.75 -63.85 -172.35 -65.15 -176.85 -66.45 -181.3 -66.45 -182.95 -66.45 -186.5 -65.2 -187.9 -64.15 -189.0 -61.95 -189.45 -62.65 -192.85 -64.8 -195.0 -68.75 -193.55 -75.75 -189.9 -80.8 -187.2 -83.0 -187.2 -96.0 -187.2 -101.2 -203.75 -103.8 -212.05 -103.8 -220.8 -103.8 -228.05 -101.2 -234.0 -96.9 -243.9 -86.9 -243.9 -81.95 -243.9 -78.55 -242.7 -76.05 -241.8 -74.9 -240.5 -67.95 -240.95 -64.05 -244.45 -60.9 -247.25 -60.9 -250.55 -60.9 -252.15 -62.2 -253.85 -63.5 -255.55 -63.5 -257.2 -63.5 -262.25 -60.45 -262.45 -57.7 -262.6 -53.75 -259.0 -49.8 -255.45 -47.05 -250.4 L-46.2 -248.75 Q-38.25 -259.45 -22.1 -256.9 -20.65 -258.45 -20.2 -259.6 -19.65 -260.9 -19.65 -263.25 -19.65 -268.9 -25.5 -274.65 L-29.5 -278.55 Q-31.35 -280.5 -31.35 -281.9 -31.35 -284.7 -28.75 -285.5 L-25.35 -285.8 Q-13.0 -285.8 -4.0 -278.6 -1.1 -276.25 2.15 -272.55 L6.5 -267.6 Q6.5 -271.75 1.95 -279.6 L0.45 -282.25 Q-3.05 -283.15 -4.85 -284.85 -6.25 -286.1 -8.65 -289.6 -11.2 -293.35 -11.2 -294.6 -11.2 -296.0 -11.85 -299.35 L-12.5 -304.35 Q-12.5 -309.75 -7.35 -317.95 -2.65 -325.5 3.9 -331.6 10.65 -337.95 15.2 -338.7 20.3 -339.55 20.3 -332.45 20.3 -330.6 17.05 -323.8 M45.65 -230.05 Q41.4 -225.9 41.4 -221.3 41.4 -220.6 44.1 -217.4 47.0 -213.85 48.55 -213.85 54.5 -213.85 55.8 -220.65 56.45 -224.15 56.05 -228.8 L55.4 -231.7 Q50.45 -234.7 45.65 -230.05 M-74.9 -218.4 L-75.85 -217.4 -65.55 -218.15 -55.7 -219.35 Q-53.35 -217.4 -51.55 -215.7 -52.8 -220.6 -52.8 -226.0 -59.9 -221.6 -72.3 -220.35 -73.25 -219.35 -74.9 -218.4 M-1.3 -217.75 Q-1.6 -218.25 -5.9 -220.4 -10.1 -222.5 -11.05 -224.25 L-13.45 -221.35 Q-15.6 -218.75 -15.6 -217.4 L-13.55 -214.55 Q-11.45 -212.0 -10.55 -211.55 L-6.5 -211.9 -3.45 -214.8 Q-1.7 -216.55 -1.3 -217.75 M-38.6 -176.45 Q-39.0 -183.6 -40.75 -189.65 -42.15 -194.45 -45.3 -200.85 -45.5 -198.3 -48.85 -187.55 -42.8 -184.35 -38.6 -176.45" fill="#ffcc33" fill-opacity="0.3529412" fill-rule="evenodd" stroke="none"/>
  </g>
</svg>
