<?xml version="1.0" encoding="UTF-8" standalone="no"?>
<svg xmlns:ffdec="https://www.free-decompiler.com/flash" xmlns:xlink="http://www.w3.org/1999/xlink" ffdec:objectType="shape" height="289.25px" width="172.55px" xmlns="http://www.w3.org/2000/svg">
  <g transform="matrix(1.0, 0.0, 0.0, 1.0, 94.4, 277.4)">
    <path d="M1.75 -188.6 L4.55 -189.35 4.1 -181.6 3.85 -173.1 Q3.0 -168.25 3.0 -167.05 3.0 -163.05 4.7 -155.45 5.25 -152.9 5.9 -150.95 8.15 -142.65 12.7 -142.65 19.9 -142.65 22.55 -159.1 L23.35 -165.6 Q25.75 -161.8 27.0 -156.65 28.45 -150.65 28.45 -141.45 L27.7 -139.05 28.3 -133.95 28.5 -131.85 28.55 -131.85 29.3 -134.35 Q29.55 -137.65 31.3 -140.7 33.15 -144.0 36.45 -146.7 L36.8 -146.3 36.85 -144.5 35.4 -133.35 35.4 -133.1 Q36.7 -124.85 38.85 -117.5 41.6 -108.05 41.6 -99.6 41.6 -87.2 40.95 -84.5 39.6 -79.05 34.45 -73.4 L34.85 -72.65 34.65 -72.5 31.3 -69.7 31.35 -70.3 30.8 -69.8 26.6 -69.8 Q25.4 -70.1 23.7 -73.45 22.1 -76.65 19.4 -77.0 L14.9 -76.7 11.1 -71.8 8.15 -67.45 8.1 -65.75 Q8.1 -59.7 4.65 -52.6 -0.05 -42.9 -8.1 -42.9 -18.65 -42.9 -24.65 -50.15 -29.0 -55.4 -29.0 -60.1 -29.0 -62.6 -26.9 -64.45 L-22.3 -67.4 Q-15.6 -71.45 -15.6 -77.7 -15.6 -80.55 -18.5 -85.05 -21.6 -89.9 -24.25 -89.9 L-28.7 -89.35 Q-31.95 -87.75 -35.1 -82.0 -37.95 -76.75 -42.1 -75.6 L-42.25 -75.6 -42.35 -74.65 -42.35 -74.3 -44.75 -74.0 -47.95 -73.8 -47.6 -74.7 -48.3 -74.65 Q-51.75 -74.65 -52.9 -81.2 -53.5 -84.55 -53.4 -88.2 -53.4 -97.6 -47.85 -105.35 -45.1 -109.15 -35.85 -117.8 -27.6 -125.5 -24.35 -131.35 L-23.3 -133.35 -23.35 -138.85 -22.8 -146.85 -22.05 -158.0 Q-19.3 -158.7 -15.7 -152.6 L-11.45 -145.4 -11.25 -145.4 Q-9.7 -145.4 -9.3 -145.8 L-8.9 -146.2 Q-9.75 -153.85 -7.75 -163.65 -6.05 -171.9 -2.75 -180.2 -1.15 -184.1 1.65 -188.45 L1.75 -188.6" fill="#ffcc00" fill-rule="evenodd" stroke="none"/>
    <path d="M49.9 -259.05 L47.25 -259.15 Q43.15 -259.15 41.75 -261.75 41.1 -262.9 41.1 -264.7 41.1 -265.8 43.0 -268.2 45.1 -270.9 48.0 -273.1 56.0 -279.15 63.5 -276.7 67.85 -275.25 73.2 -268.35 78.15 -262.0 78.15 -259.5 78.15 -248.4 76.55 -242.85 74.4 -235.5 66.75 -224.55 64.25 -220.85 62.25 -204.85 L61.9 -202.3 62.2 -200.65 Q62.2 -196.4 60.35 -194.4 L59.7 -193.8 Q58.5 -191.4 57.0 -191.4 L55.1 -191.6 Q53.2 -190.75 52.35 -189.8 50.5 -187.8 50.5 -183.45 50.5 -179.7 53.95 -173.9 L61.55 -162.2 Q72.6 -144.75 72.6 -128.85 72.6 -122.4 71.2 -117.55 70.35 -114.75 68.05 -110.0 63.5 -100.65 63.5 -90.0 63.5 -88.35 64.8 -80.0 66.1 -71.6 66.1 -70.0 66.1 -59.45 62.35 -47.7 58.35 -35.15 51.15 -25.15 48.25 -21.15 43.15 -18.9 40.2 -17.6 33.5 -15.95 29.25 -14.95 26.55 -13.95 23.05 -9.45 19.95 -4.65 L14.0 4.7 Q11.3 8.6 8.55 10.1 5.35 11.85 -0.15 11.85 -11.3 11.85 -24.65 1.2 -30.75 -3.15 -37.2 -10.1 -40.3 -13.45 -49.4 -24.4 -55.55 -31.85 -58.3 -33.6 L-58.0 -35.2 -61.25 -36.55 -61.55 -37.2 Q-63.55 -41.4 -72.05 -49.85 -81.2 -59.0 -84.0 -63.5 -90.2 -73.55 -90.85 -77.0 -91.4 -79.85 -90.8 -88.85 -90.8 -105.9 -79.6 -124.35 L-71.9 -136.0 Q-68.4 -141.15 -68.4 -142.8 -68.4 -146.05 -72.45 -149.85 -74.9 -152.1 -81.4 -157.0 -94.4 -167.55 -94.4 -179.4 -94.4 -186.65 -91.2 -193.1 -86.9 -201.8 -77.8 -205.7 -72.25 -205.05 -69.1 -200.3 -67.5 -197.9 -64.95 -190.55 -62.75 -184.1 -60.35 -181.65 -56.75 -177.9 -50.2 -178.75 L-48.0 -188.55 Q-46.6 -194.8 -45.2 -198.95 -41.2 -211.2 -33.3 -218.7 -28.7 -223.05 -25.55 -228.05 -22.15 -233.45 -21.45 -238.05 -21.3 -239.1 -21.55 -242.75 -21.75 -246.35 -21.5 -248.3 -20.5 -254.95 -13.0 -254.95 -5.45 -254.95 -2.95 -244.55 -2.15 -241.25 -2.0 -237.35 L-1.95 -234.0 Q-1.95 -231.6 -2.75 -226.2 -3.55 -220.95 -4.55 -216.45 L-4.55 -215.8 Q2.85 -224.4 5.35 -237.3 7.2 -247.0 6.5 -260.8 12.8 -268.8 17.15 -261.2 20.4 -255.55 20.6 -248.45 20.6 -244.0 19.8 -235.35 L19.0 -225.7 Q19.0 -219.85 19.9 -216.6 20.75 -213.65 22.95 -210.75 30.45 -202.85 37.5 -192.7 37.2 -198.8 41.45 -206.15 45.05 -212.35 50.3 -214.85 L50.2 -215.45 50.45 -215.95 Q50.55 -216.45 48.55 -216.45 47.3 -216.45 43.85 -215.1 40.2 -213.7 36.2 -213.5 29.65 -217.25 28.3 -220.05 27.75 -221.3 27.75 -226.85 27.75 -236.05 31.65 -240.85 36.5 -246.8 53.45 -255.9 50.9 -258.65 49.9 -259.05 M40.45 -230.4 Q40.0 -229.75 39.7 -228.45 L39.45 -226.5 39.8 -226.2 Q40.45 -227.3 40.6 -228.95 40.75 -230.4 40.45 -230.75 L40.45 -230.4" fill="#ffcc33" fill-opacity="0.3529412" fill-rule="evenodd" stroke="none"/>
  </g>
</svg>
