<?xml version="1.0" encoding="UTF-8" standalone="no"?>
<svg xmlns:ffdec="https://www.free-decompiler.com/flash" xmlns:xlink="http://www.w3.org/1999/xlink" ffdec:objectType="shape" height="389.9px" width="252.65px" xmlns="http://www.w3.org/2000/svg">
  <g transform="matrix(1.0, 0.0, 0.0, 1.0, 133.05, 363.25)">
    <path d="M21.6 -347.75 Q17.35 -339.75 17.35 -338.65 17.35 -336.6 17.55 -336.7 L17.7 -337.15 Q38.55 -340.0 44.25 -331.1 46.1 -328.25 46.2 -324.3 L45.95 -320.1 Q45.95 -313.85 44.05 -307.9 41.25 -299.15 35.55 -299.15 32.3 -299.15 31.15 -299.95 30.3 -300.5 30.15 -301.95 29.65 -305.9 26.15 -307.6 L12.7 -303.25 Q8.05 -301.75 5.2 -301.75 -9.95 -301.75 -14.4 -310.85 -16.25 -314.6 -16.25 -324.0 -16.25 -329.55 -12.05 -337.9 -9.05 -343.9 -4.2 -350.8 -2.6 -353.2 1.95 -357.2 6.6 -361.3 8.6 -362.05 14.25 -364.05 19.75 -362.65 25.8 -361.15 25.8 -356.5 25.8 -355.75 21.6 -347.75 M63.5 -279.0 L57.9 -283.7 Q55.7 -285.7 55.7 -287.45 55.7 -290.2 58.9 -296.15 62.6 -303.1 67.85 -308.2 82.8 -322.85 99.6 -312.8 113.1 -306.45 117.25 -294.7 119.6 -288.2 119.6 -274.1 119.6 -266.65 116.8 -259.55 112.2 -247.65 101.85 -247.65 98.4 -247.65 95.65 -250.6 94.25 -252.15 92.75 -254.6 91.95 -253.8 90.8 -251.6 L88.7 -248.05 Q85.5 -243.75 79.1 -243.75 72.1 -243.75 69.75 -249.1 L69.05 -251.2 Q67.0 -248.3 63.5 -248.3 L45.3 -252.35 42.05 -252.0 35.6 -246.4 29.8 -241.35 29.85 -241.3 31.65 -239.85 Q59.3 -243.4 68.4 -232.35 71.2 -228.9 71.85 -224.4 L71.95 -220.5 Q71.95 -213.65 69.5 -209.3 63.25 -198.15 62.55 -196.6 66.05 -196.8 69.35 -198.7 71.35 -199.85 75.55 -202.7 84.8 -208.3 99.9 -208.3 109.5 -208.3 114.35 -202.8 118.75 -197.75 118.75 -188.65 118.75 -179.95 115.0 -166.7 109.5 -147.2 99.9 -147.2 95.9 -147.2 91.35 -152.9 86.8 -158.6 85.45 -158.6 77.4 -158.6 71.95 -143.65 70.2 -138.9 68.95 -133.3 68.05 -129.15 68.05 -128.35 L73.25 -100.05 Q78.45 -71.05 78.45 -66.1 78.45 -56.55 74.0 -41.5 68.8 -23.85 61.9 -17.35 56.35 -12.1 38.55 -4.2 21.15 3.55 19.95 4.85 16.8 11.45 12.55 16.6 4.25 26.65 -7.8 26.65 -18.05 26.65 -28.4 16.6 -33.7 11.4 -38.5 4.55 L-47.4 -5.5 -58.3 -17.7 Q-59.6 -19.1 -71.25 -26.95 -82.45 -34.45 -85.3 -38.15 L-89.75 -44.25 Q-91.7 -47.15 -92.45 -49.85 L-93.4 -55.05 -93.75 -60.6 Q-93.75 -64.8 -92.5 -68.9 L-89.65 -76.25 Q-87.25 -82.4 -86.25 -89.4 -86.35 -92.85 -86.65 -93.75 -87.4 -96.15 -91.8 -101.2 -94.15 -100.05 -98.3 -96.8 -102.9 -94.05 -110.3 -94.05 -124.95 -94.05 -130.45 -117.3 -133.2 -128.9 -133.05 -140.85 -133.05 -159.15 -125.35 -172.45 -111.8 -195.75 -79.1 -188.8 -78.45 -190.2 -78.45 -192.9 L-78.2 -197.3 Q-77.0 -202.7 -67.4 -205.7 -63.05 -207.1 -61.6 -209.75 -60.75 -211.25 -60.65 -214.4 L-60.35 -216.7 -61.65 -217.45 -67.4 -217.75 -79.4 -216.45 -91.45 -215.15 Q-109.25 -215.15 -115.25 -224.25 -118.45 -229.1 -118.45 -238.85 -118.45 -250.2 -114.9 -259.1 -107.85 -276.7 -89.5 -276.7 -74.45 -276.7 -68.3 -267.8 -66.9 -265.85 -64.9 -261.2 -63.45 -257.8 -62.2 -257.2 L-58.95 -257.85 Q-58.5 -258.55 -56.2 -264.0 -54.15 -268.85 -51.75 -271.8 -44.1 -281.2 -27.45 -279.65 L-33.55 -286.6 Q-36.2 -289.75 -36.2 -292.3 -36.2 -295.15 -31.8 -297.3 -27.35 -299.45 -20.8 -299.65 -4.05 -300.2 8.6 -288.75 10.15 -287.15 15.9 -278.25 22.5 -277.25 28.9 -267.55 L29.05 -267.3 29.25 -267.85 Q30.8 -271.75 34.9 -275.1 41.15 -280.15 47.8 -278.7 50.9 -278.05 59.95 -273.15 65.15 -271.4 68.35 -266.0 L68.9 -265.05 Q69.6 -266.4 75.2 -273.45 L77.15 -274.45 Q72.15 -272.0 67.9 -274.75 65.7 -276.25 63.5 -279.0 M12.35 -267.2 L12.6 -267.5 12.0 -268.25 12.3 -267.25 12.35 -267.2 M103.15 -286.45 L102.05 -284.5 Q103.1 -283.6 104.45 -280.6 L105.1 -280.3 Q104.2 -285.6 103.15 -286.8 L103.15 -286.45 M-75.75 -176.05 L-74.2 -175.3 -74.25 -175.8 -74.2 -176.5 -75.75 -176.05" fill="#ff0000" fill-opacity="0.11764706" fill-rule="evenodd" stroke="none"/>
    <path d="M101.95 -297.4 Q103.55 -295.7 105.2 -291.45 106.6 -287.6 106.8 -285.3 108.9 -280.35 108.9 -277.05 L108.7 -275.65 108.9 -273.9 Q108.9 -269.65 107.65 -269.0 104.95 -267.7 102.75 -263.9 102.6 -264.3 102.6 -264.8 101.35 -263.55 100.1 -263.0 L102.9 -267.6 103.0 -269.15 Q103.0 -281.8 96.6 -285.3 92.8 -287.4 80.15 -287.4 L75.5 -286.35 Q72.2 -285.3 70.85 -285.3 L67.45 -285.45 66.0 -285.6 Q63.35 -287.1 63.1 -287.8 L69.55 -290.5 68.25 -290.7 68.3 -291.0 68.75 -291.5 Q72.55 -292.2 75.75 -293.95 L80.75 -297.25 Q86.7 -301.25 94.75 -300.8 96.1 -300.35 97.45 -299.35 100.5 -299.0 101.95 -297.4 M11.85 -349.05 Q8.8 -345.7 5.6 -338.55 0.9 -328.0 0.9 -321.95 0.9 -319.4 2.25 -316.95 3.0 -315.6 4.0 -314.75 L5.45 -315.2 Q10.25 -317.65 14.45 -319.4 22.65 -325.2 28.7 -325.2 L29.75 -325.15 29.75 -325.2 29.95 -325.15 34.35 -324.95 36.5 -321.6 36.65 -321.35 Q37.4 -320.2 37.4 -318.8 L37.25 -315.45 37.1 -314.05 36.75 -313.85 36.45 -312.55 Q35.8 -309.8 34.05 -307.6 34.55 -309.4 34.65 -310.95 33.4 -311.9 32.6 -314.85 31.6 -318.4 30.15 -319.7 L24.8 -319.55 Q19.8 -315.8 18.35 -315.15 16.15 -314.15 12.25 -313.35 L10.45 -312.35 8.1 -310.5 7.8 -310.6 6.55 -309.75 1.4 -309.75 Q0.9 -310.25 -1.4 -310.8 -3.2 -311.5 -5.15 -316.5 -6.15 -317.5 -6.35 -318.9 L-6.35 -319.95 Q-7.05 -322.15 -7.05 -323.5 -7.05 -330.5 -0.8 -339.1 L-0.05 -340.1 Q6.95 -351.7 14.8 -352.4 L15.35 -351.75 13.8 -350.85 14.8 -350.4 11.85 -349.05 M47.3 -267.55 L53.9 -267.05 61.0 -256.3 Q60.9 -255.6 60.4 -255.35 L57.85 -255.0 Q57.65 -255.0 54.25 -257.55 L50.25 -260.4 44.1 -260.4 Q42.35 -259.95 40.1 -257.9 L36.85 -255.25 35.9 -255.9 Q35.7 -256.3 35.7 -258.15 35.7 -260.3 39.55 -264.0 42.9 -267.3 44.1 -267.6 L47.3 -267.55 M0.2 -249.4 L-0.75 -249.6 -2.2 -251.05 Q-11.8 -255.2 -24.65 -245.25 -29.4 -241.6 -33.35 -236.85 -36.85 -232.65 -37.8 -230.05 L-38.0 -230.05 -38.05 -226.8 -38.95 -226.1 Q-40.3 -227.45 -41.0 -232.4 L-41.5 -236.7 Q-42.35 -241.1 -42.35 -246.75 -42.35 -251.25 -39.95 -257.55 -36.8 -265.95 -31.85 -266.3 L-29.25 -266.0 -28.6 -265.35 Q-27.75 -265.0 -26.65 -263.6 -24.9 -261.35 -22.3 -260.4 L-15.6 -260.4 -15.3 -260.55 -14.05 -261.8 -12.15 -264.2 -11.7 -264.8 -11.6 -265.1 Q-11.25 -266.05 -11.25 -270.5 L-11.35 -274.45 -12.35 -276.65 Q-15.05 -282.0 -19.25 -284.25 L-19.2 -284.3 -19.65 -284.35 Q-21.1 -284.55 -21.25 -285.05 L-19.85 -286.1 -18.5 -286.9 -17.55 -286.85 Q-16.1 -288.05 -14.15 -286.55 -0.8 -284.6 4.2 -270.4 7.0 -262.45 7.05 -248.0 L7.35 -245.4 7.2 -243.75 7.05 -244.1 Q6.85 -243.8 6.4 -243.6 6.0 -242.05 6.0 -241.1 5.65 -241.1 4.05 -239.75 3.05 -241.05 0.85 -247.7 L0.2 -249.4 M14.8 -262.5 Q19.0 -265.4 20.95 -262.3 22.3 -260.2 22.3 -256.55 L22.25 -254.2 21.75 -252.65 21.85 -252.35 19.95 -252.1 Q15.95 -252.1 14.8 -262.5 M38.2 -226.65 L41.45 -227.45 49.35 -227.15 Q52.1 -226.2 53.95 -222.5 55.35 -219.6 55.35 -217.45 55.35 -210.65 54.6 -207.95 L53.55 -205.2 53.4 -203.15 Q52.7 -199.15 50.25 -196.05 50.35 -191.5 52.35 -186.85 55.8 -178.85 63.35 -178.85 68.5 -178.85 76.6 -185.55 84.65 -192.25 88.85 -192.25 L100.9 -191.45 Q106.95 -186.4 107.95 -184.4 108.4 -183.5 108.4 -179.15 108.4 -175.2 106.2 -169.55 104.2 -164.45 100.9 -159.05 L100.7 -159.05 100.1 -157.2 99.2 -156.95 Q99.2 -157.6 99.55 -158.75 L99.85 -161.3 Q99.85 -165.6 99.35 -166.95 98.8 -168.3 95.25 -173.25 L93.4 -173.55 Q91.5 -173.95 91.2 -174.3 71.0 -176.9 58.55 -152.5 54.2 -143.85 51.55 -133.35 49.45 -124.8 49.45 -119.95 49.45 -118.6 50.5 -112.8 L50.9 -110.7 Q52.15 -108.15 54.1 -104.7 58.7 -96.45 59.85 -91.7 61.0 -86.95 61.6 -77.95 L61.95 -67.85 61.8 -53.55 Q61.3 -47.1 58.8 -38.45 53.65 -21.1 43.95 -17.05 40.3 -15.55 34.9 -15.45 L25.3 -15.6 19.7 -15.4 Q17.2 -8.45 13.05 -2.45 4.55 9.95 -6.65 9.95 -22.7 9.95 -28.85 2.25 -30.95 -0.4 -32.35 -4.65 L-34.35 -11.0 Q-35.9 -15.0 -40.35 -17.75 -46.4 -21.45 -47.25 -22.3 -51.9 -27.25 -52.7 -28.65 -53.65 -30.3 -53.65 -33.85 L-53.55 -35.45 -55.5 -35.15 Q-66.8 -35.15 -72.65 -44.65 -76.65 -51.05 -76.65 -57.05 -76.65 -63.4 -71.95 -74.95 -67.3 -86.55 -67.3 -95.55 -67.3 -105.75 -69.4 -113.4 -73.5 -128.2 -84.25 -128.2 -94.6 -128.2 -97.85 -119.5 -99.0 -116.4 -99.0 -112.75 -99.05 -109.8 -98.4 -108.15 -98.6 -107.2 -99.35 -106.45 L-100.5 -105.35 Q-101.55 -105.45 -104.55 -110.05 L-106.75 -113.8 -107.8 -114.7 Q-110.55 -117.15 -111.3 -119.4 -113.1 -125.5 -113.1 -128.75 -113.1 -140.7 -108.9 -151.85 -101.8 -170.6 -85.8 -170.6 -82.35 -170.6 -75.45 -167.65 -68.6 -164.7 -63.75 -164.7 L-60.4 -165.0 -57.2 -165.75 Q-54.95 -168.5 -54.2 -171.85 L-54.2 -174.15 Q-54.2 -176.6 -54.35 -178.45 -54.9 -180.75 -56.1 -183.65 -57.25 -186.3 -58.35 -188.2 L-59.95 -190.5 -60.6 -191.2 -60.35 -192.0 -59.55 -191.7 -59.55 -191.75 -59.45 -191.65 -58.4 -191.05 Q-54.1 -191.0 -49.15 -181.4 -47.5 -179.5 -46.25 -177.35 -43.15 -171.9 -43.15 -166.15 L-43.15 -165.55 -42.9 -162.6 Q-42.9 -155.55 -45.6 -142.3 -48.3 -129.05 -48.3 -126.0 -48.3 -120.75 -46.45 -119.1 L-42.35 -116.35 Q-34.1 -121.6 -28.65 -136.05 -23.85 -148.75 -23.85 -158.9 -23.85 -170.05 -30.65 -186.15 -34.45 -195.05 -35.35 -197.8 -37.5 -204.0 -37.5 -208.8 -37.5 -215.85 -34.85 -218.85 L-34.85 -219.2 -34.65 -220.5 -32.8 -220.4 -32.65 -220.5 -32.25 -220.7 -31.9 -220.05 Q-30.0 -219.05 -28.5 -215.8 L-26.45 -210.8 Q-25.1 -207.7 -23.85 -205.9 L-20.4 -201.25 -17.05 -196.5 Q-12.45 -191.05 -3.25 -188.05 7.4 -192.05 10.7 -198.8 L11.0 -201.15 Q11.35 -204.25 11.55 -214.3 L11.6 -216.45 Q11.55 -218.0 11.65 -218.9 L11.75 -219.1 Q11.9 -221.7 12.2 -223.8 L12.15 -224.05 Q10.75 -231.3 10.75 -233.35 10.75 -235.95 11.0 -236.5 14.9 -236.85 16.1 -235.1 L17.25 -231.0 Q18.55 -225.45 27.65 -224.8 L29.6 -225.35 34.75 -226.9 38.2 -226.65 M12.35 -220.95 Q11.9 -216.35 11.9 -211.4 11.9 -208.9 12.35 -207.3 L12.95 -205.7 13.05 -210.1 12.35 -220.95 M83.65 -262.0 Q82.15 -265.15 82.15 -266.95 82.15 -268.55 82.7 -269.15 L83.45 -269.55 Q86.75 -268.0 89.35 -261.55 89.35 -260.5 88.85 -259.4 L88.85 -259.2 Q88.85 -257.3 87.7 -255.55 86.45 -253.8 84.25 -252.65 L82.5 -253.3 Q81.9 -253.75 81.9 -255.5 81.9 -258.9 83.95 -261.4 L83.65 -262.0 M-86.35 -261.15 L-80.7 -260.9 Q-79.45 -259.65 -77.85 -257.0 L-76.35 -253.7 Q-74.4 -250.05 -71.6 -247.65 L-70.9 -246.8 -68.2 -244.6 -66.45 -244.1 -64.75 -244.2 Q-61.95 -243.45 -58.65 -243.45 -52.8 -243.45 -49.6 -249.1 -47.25 -253.25 -47.25 -257.6 L-48.25 -263.75 Q-46.65 -263.4 -45.8 -262.3 -44.8 -261.1 -44.55 -258.1 L-44.35 -257.2 Q-44.2 -256.1 -44.2 -254.35 -44.2 -251.1 -47.25 -247.0 -50.75 -242.35 -56.05 -241.5 -59.85 -239.0 -65.45 -239.0 -69.95 -239.0 -75.5 -245.45 L-77.9 -247.0 -82.6 -250.9 Q-84.65 -252.65 -85.8 -252.65 -91.15 -252.65 -94.6 -246.2 -97.1 -241.55 -97.1 -238.6 -97.1 -236.9 -94.7 -231.5 -92.45 -226.5 -91.15 -225.1 L-89.55 -224.7 -88.45 -224.45 Q-86.3 -224.65 -83.35 -225.8 L-81.75 -226.8 -79.1 -228.75 -78.85 -228.7 -78.7 -228.8 -71.9 -233.1 -68.85 -233.1 -67.85 -233.6 Q-60.2 -235.05 -56.3 -229.55 L-55.2 -227.75 Q-52.85 -225.5 -52.85 -223.35 L-52.85 -222.6 -52.1 -221.0 Q-52.5 -220.2 -53.15 -219.55 -53.45 -219.65 -53.75 -219.85 L-54.2 -218.75 -54.95 -218.75 Q-54.55 -219.6 -54.5 -220.45 L-55.25 -221.5 -56.75 -224.75 -58.05 -226.85 Q-60.2 -228.8 -63.45 -230.65 L-64.05 -230.85 Q-68.1 -230.15 -76.55 -225.5 -80.1 -223.55 -83.85 -222.75 -85.25 -222.05 -86.35 -222.05 L-87.1 -222.05 -89.25 -220.5 Q-93.8 -221.95 -96.85 -223.55 -99.25 -224.85 -100.75 -226.2 -102.05 -227.35 -102.7 -228.6 -103.65 -230.3 -103.7 -232.8 L-103.55 -237.15 Q-103.55 -251.6 -91.45 -259.85 L-90.1 -259.9 Q-88.35 -260.8 -86.35 -261.15 M-95.25 -252.1 L-94.85 -252.4 -94.85 -253.05 -94.85 -253.1 -95.55 -252.35 -95.25 -252.1 M-89.55 -222.15 Q-93.1 -222.4 -95.65 -223.15 -93.5 -222.05 -90.65 -222.05 L-89.55 -222.15 M-4.5 -254.95 L-5.35 -255.5 -9.7 -254.6 -4.5 -254.95" fill="#f28420" fill-rule="evenodd" stroke="none"/>
    <path d="M18.6 -224.7 Q18.6 -223.7 17.0 -221.7 L13.3 -217.1 Q7.55 -209.6 6.0 -201.6 5.05 -196.65 4.5 -188.3 4.05 -182.05 4.05 -178.75 4.05 -173.4 4.4 -169.15 5.15 -165.0 6.05 -161.2 L7.55 -155.6 Q10.3 -149.3 16.35 -139.4 17.4 -138.75 18.5 -138.45 20.9 -139.8 22.8 -142.0 25.0 -147.15 27.95 -152.35 L28.2 -153.15 28.2 -153.4 28.3 -153.4 28.35 -153.65 Q27.95 -154.75 27.8 -155.9 27.65 -156.9 27.65 -159.3 27.65 -164.35 29.8 -168.2 L30.45 -169.2 30.8 -170.3 Q32.8 -175.95 32.8 -181.35 32.8 -185.75 32.05 -187.2 31.05 -189.0 26.6 -192.0 L21.25 -191.75 Q21.05 -191.25 18.55 -189.5 16.0 -187.75 14.55 -187.15 L14.15 -186.75 Q13.75 -186.65 13.75 -188.3 13.75 -189.4 14.95 -190.9 L14.8 -190.95 Q15.75 -192.3 18.65 -195.25 L22.05 -198.7 Q26.15 -205.25 29.75 -206.15 L36.2 -205.9 Q41.05 -203.9 42.35 -198.15 42.75 -196.25 42.75 -190.05 42.75 -183.6 41.1 -180.1 40.25 -178.2 37.3 -174.95 31.8 -168.95 29.9 -157.0 L30.25 -158.0 30.15 -158.0 Q31.15 -163.0 35.55 -168.5 40.4 -174.5 46.2 -176.75 52.8 -176.3 55.05 -175.0 L58.5 -172.7 Q58.5 -171.3 57.45 -170.6 44.3 -166.85 34.5 -152.55 32.2 -149.2 30.55 -146.1 L27.75 -136.8 26.1 -131.45 Q26.1 -123.8 30.35 -117.4 38.75 -115.3 42.35 -105.35 44.6 -99.2 44.6 -91.45 44.6 -84.8 44.2 -83.05 42.9 -77.55 37.4 -73.75 L30.95 -73.75 Q28.3 -77.2 27.35 -81.55 L26.45 -88.15 Q26.0 -91.45 24.65 -92.75 22.85 -94.5 18.35 -94.5 14.05 -94.5 10.85 -89.65 8.4 -86.0 8.4 -84.5 8.4 -83.1 10.85 -79.65 L14.55 -74.55 Q21.2 -73.35 24.05 -69.75 25.85 -67.5 25.85 -64.8 25.85 -62.1 23.6 -58.95 21.35 -55.7 18.35 -54.45 L9.7 -54.7 5.6 -58.5 Q3.4 -60.5 2.45 -61.95 L1.25 -62.35 Q-0.05 -62.85 -0.25 -63.1 L-5.1 -63.0 -12.25 -57.1 Q-16.35 -53.85 -21.0 -51.3 L-27.4 -51.3 Q-33.4 -56.9 -34.25 -58.35 -35.15 -59.75 -35.15 -63.75 -35.15 -65.45 -32.6 -70.6 -29.6 -76.7 -26.6 -78.35 -22.65 -78.25 -19.55 -76.2 L-15.35 -72.7 -11.25 -72.7 Q-5.5 -75.85 -3.95 -80.4 -3.25 -82.4 -3.25 -87.8 -3.25 -91.5 -5.55 -96.8 -8.0 -102.55 -10.5 -103.0 L-18.5 -102.75 Q-22.85 -99.95 -25.7 -95.9 L-29.85 -88.75 Q-34.75 -80.0 -45.15 -76.5 L-48.0 -77.0 Q-51.5 -79.8 -52.3 -84.0 -52.6 -85.4 -52.6 -90.55 -52.6 -107.85 -35.05 -114.35 -25.55 -121.6 -21.3 -127.55 -16.4 -134.55 -16.4 -143.05 -16.4 -149.7 -21.65 -152.15 L-26.35 -153.9 Q-29.25 -154.95 -30.8 -156.3 -33.95 -159.0 -36.15 -162.5 -38.55 -166.3 -38.55 -169.05 -38.55 -174.3 -37.65 -180.55 -36.6 -187.85 -34.9 -191.75 -32.6 -196.95 -29.45 -202.5 -25.45 -209.65 -23.35 -211.05 L-24.05 -210.0 Q-23.1 -211.35 -22.05 -211.8 L-21.65 -212.0 Q-21.25 -211.85 -21.25 -210.25 L-23.8 -198.8 -26.35 -186.75 Q-26.35 -181.55 -20.95 -174.9 L-15.55 -169.0 -13.5 -171.9 Q-9.35 -177.4 -6.65 -183.2 L-6.65 -190.15 -8.65 -191.75 Q-10.45 -191.2 -11.45 -189.65 -12.35 -188.25 -14.0 -188.05 L-14.6 -189.05 -14.7 -191.35 Q-14.7 -193.7 -12.15 -200.0 -9.15 -207.35 -5.0 -213.6 6.75 -231.45 19.4 -228.5 22.05 -228.2 22.8 -227.45 20.55 -226.55 18.6 -225.35 L18.6 -224.7 M20.15 -135.25 L19.65 -134.9 19.9 -134.55 20.15 -135.25" fill="#ffcc00" fill-rule="evenodd" stroke="none"/>
    <path d="M13.85 -356.45 Q18.35 -356.25 18.35 -352.6 18.35 -351.3 14.45 -344.6 10.55 -337.9 10.55 -334.25 10.55 -332.8 12.05 -331.3 13.9 -329.45 16.7 -329.7 L23.75 -331.25 31.0 -332.3 Q37.85 -332.3 40.8 -327.85 41.75 -326.4 42.15 -324.7 L42.4 -323.05 Q42.4 -317.65 40.8 -313.25 38.55 -307.05 33.6 -304.65 31.6 -306.65 30.6 -309.65 29.55 -312.6 28.4 -313.75 21.55 -313.65 17.0 -311.7 12.05 -309.05 7.8 -307.6 L-1.3 -307.6 Q-8.5 -313.05 -9.85 -316.55 -10.4 -317.95 -10.4 -324.8 -10.4 -334.9 -5.9 -342.8 -2.15 -349.4 4.0 -353.25 9.35 -356.65 13.85 -356.45 M67.95 -280.45 Q63.95 -280.6 62.55 -282.3 60.9 -284.2 60.9 -289.55 60.9 -293.1 72.95 -302.05 85.15 -311.15 90.8 -311.15 105.35 -311.15 111.65 -295.15 113.6 -290.15 114.55 -284.1 L115.05 -278.85 Q115.05 -273.4 112.3 -266.65 108.6 -257.55 102.5 -257.55 99.45 -257.55 98.7 -259.25 98.3 -260.2 98.4 -263.85 98.7 -272.95 93.1 -279.3 85.7 -280.6 77.85 -280.6 L67.95 -280.45 M53.7 -253.2 Q52.35 -255.9 50.85 -256.9 47.0 -256.75 44.45 -254.5 42.3 -252.6 36.2 -253.3 32.65 -254.7 31.7 -257.35 31.35 -258.4 31.35 -261.3 31.35 -268.5 36.35 -271.3 40.75 -273.75 47.45 -272.25 53.75 -270.9 58.5 -266.95 63.5 -262.75 63.5 -258.05 63.5 -255.5 62.25 -253.7 60.85 -251.7 58.3 -251.7 54.4 -251.7 53.7 -253.2 M77.15 -268.9 Q77.15 -273.15 79.55 -274.95 81.75 -276.6 84.8 -275.55 87.95 -274.5 90.05 -271.2 92.45 -267.5 92.45 -262.4 92.45 -259.15 90.5 -254.7 87.45 -247.8 81.7 -247.8 77.95 -247.8 76.85 -250.85 76.5 -251.85 76.5 -254.3 76.5 -256.1 77.7 -258.25 79.15 -260.9 79.45 -262.1 79.7 -262.95 78.5 -264.95 77.15 -267.2 77.15 -268.9 M19.0 -269.2 Q22.5 -268.4 25.0 -265.15 27.75 -261.6 27.75 -256.75 27.75 -253.0 26.1 -250.4 24.05 -247.15 19.95 -247.15 16.75 -247.15 14.6 -249.0 L13.85 -246.35 Q17.6 -245.7 18.75 -241.8 L19.55 -238.05 Q20.05 -236.05 20.95 -235.3 24.95 -233.95 30.65 -233.9 L40.65 -234.35 Q52.95 -234.85 58.95 -229.75 63.15 -226.2 63.65 -223.8 L63.5 -218.55 Q63.5 -215.2 60.1 -207.4 56.7 -199.55 56.7 -195.65 56.7 -191.9 57.7 -189.85 59.2 -186.85 62.85 -186.85 64.75 -186.85 68.95 -188.8 L77.9 -193.0 Q91.65 -199.2 103.15 -199.2 110.4 -199.2 113.1 -191.25 113.95 -188.75 114.25 -185.7 L114.4 -182.95 Q114.4 -178.45 111.3 -170.35 108.95 -164.15 106.35 -160.4 L106.4 -159.4 Q106.4 -157.35 106.1 -156.95 L105.75 -156.95 105.2 -156.3 Q104.5 -155.65 102.5 -155.65 L99.95 -156.0 99.9 -156.0 98.2 -156.05 Q97.65 -156.15 97.65 -158.1 L97.65 -158.2 Q97.2 -159.15 96.5 -161.05 94.2 -167.3 84.65 -169.65 71.6 -163.0 64.5 -146.2 58.95 -133.15 58.95 -120.7 58.95 -112.25 60.8 -106.15 61.75 -102.9 64.8 -96.65 67.65 -90.85 68.8 -86.2 70.65 -79.0 70.65 -68.7 70.65 -56.25 67.4 -41.95 63.05 -22.75 55.4 -19.0 45.45 -14.3 32.3 -9.9 30.65 -9.35 27.55 -9.1 L22.7 -8.6 Q17.3 -7.6 16.4 -2.1 15.4 3.55 9.5 9.75 0.9 18.85 -12.35 18.85 -21.2 18.85 -28.95 10.2 -32.85 5.85 -35.25 0.95 -37.05 -4.3 -42.3 -9.65 L-51.15 -18.35 Q-51.85 -19.2 -54.05 -23.4 -56.05 -27.3 -57.0 -28.1 -58.45 -29.15 -66.7 -32.1 -74.5 -34.9 -74.9 -35.55 -77.95 -40.9 -81.75 -46.0 -84.0 -49.45 -84.0 -54.1 -84.0 -63.95 -79.75 -83.55 -75.55 -103.2 -75.55 -109.5 -75.55 -113.2 -77.5 -117.5 -79.65 -122.2 -82.05 -122.2 -86.35 -122.2 -88.85 -118.75 -90.5 -116.5 -92.1 -111.2 -93.8 -105.4 -94.75 -103.7 -96.65 -100.25 -99.9 -100.25 -111.9 -100.25 -117.8 -114.85 -121.55 -124.15 -121.55 -132.75 -121.55 -145.5 -115.9 -158.6 -106.8 -179.7 -87.55 -179.7 -84.8 -179.7 -79.9 -177.85 -74.8 -175.95 -70.65 -173.2 L-61.9 -174.85 -59.65 -179.1 Q-58.65 -181.45 -58.65 -183.6 -58.65 -186.7 -63.2 -190.55 -67.75 -194.35 -67.75 -196.3 L-67.65 -198.25 Q-67.3 -198.55 -67.1 -199.2 L-64.45 -199.7 -59.6 -200.2 Q-57.35 -198.9 -52.45 -193.85 L-46.95 -188.15 Q-45.1 -192.2 -45.2 -199.15 -45.25 -203.1 -45.65 -210.9 -45.65 -213.2 -43.7 -215.65 -42.2 -217.55 -41.85 -220.65 -45.85 -223.75 -47.95 -234.1 -48.85 -238.65 -49.25 -243.35 -53.25 -239.85 -58.3 -239.85 L-66.4 -240.9 -74.55 -241.95 Q-76.35 -241.95 -78.6 -244.2 -80.9 -246.5 -82.7 -246.5 -90.15 -246.5 -90.15 -239.85 -90.15 -238.05 -89.2 -235.9 -88.1 -233.35 -86.6 -233.35 -79.65 -233.35 -74.75 -235.7 -69.8 -238.05 -65.45 -238.05 -53.75 -238.05 -50.1 -230.55 -48.9 -228.15 -48.65 -225.1 L-48.55 -221.95 -49.2 -218.05 -50.15 -217.25 Q-51.15 -216.45 -53.1 -216.45 -55.3 -216.45 -57.55 -220.15 -59.75 -223.9 -61.55 -223.9 -65.0 -223.9 -74.2 -220.0 -83.4 -216.1 -87.55 -216.1 -104.5 -216.1 -110.65 -225.2 -113.8 -229.85 -113.55 -234.95 -113.55 -242.85 -110.65 -250.3 -106.85 -260.15 -99.25 -264.05 -89.35 -269.1 -82.9 -267.85 -78.05 -266.9 -74.0 -261.8 -69.85 -255.6 -67.65 -252.95 -63.75 -248.45 -58.95 -248.45 -53.45 -248.45 -51.8 -255.0 L-50.85 -260.5 Q-50.3 -263.65 -49.55 -265.0 L-49.95 -265.3 -47.9 -265.65 Q-47.35 -265.65 -46.85 -265.2 -40.8 -274.5 -21.6 -269.55 L-18.85 -269.9 Q-19.95 -275.0 -24.6 -278.85 -28.75 -282.35 -28.75 -285.5 -28.75 -289.8 -23.95 -291.4 L-13.05 -291.7 Q-6.6 -290.6 -1.15 -287.7 4.75 -284.5 6.65 -280.6 9.25 -277.8 12.3 -267.25 L12.35 -267.2 12.95 -267.85 Q15.4 -270.05 19.0 -269.2 M103.15 -286.45 L102.05 -284.5 Q103.1 -283.6 104.45 -280.6 L105.1 -280.3 Q104.2 -285.6 103.15 -286.8 L103.15 -286.45 M-3.2 -239.35 L-6.15 -244.55 Q-7.15 -245.2 -10.4 -245.2 -20.4 -245.2 -26.6 -239.6 L-26.4 -237.45 -27.45 -228.8 -27.1 -221.4 Q-26.1 -217.2 -21.6 -214.5 L-15.75 -214.8 -8.9 -225.45 Q-4.4 -232.7 -3.9 -236.1 L-3.2 -239.35 M-42.05 -137.65 Q-40.8 -135.85 -39.15 -134.2 L-35.9 -134.55 -33.65 -137.45 Q-32.65 -139.2 -32.65 -141.35 -32.65 -143.75 -34.65 -147.25 -36.2 -150.0 -38.15 -152.1 -39.7 -150.75 -41.6 -146.2 -43.35 -142.0 -43.35 -140.55 -43.35 -139.6 -42.05 -137.65" fill="#ffcc33" fill-opacity="0.3529412" fill-rule="evenodd" stroke="none"/>
  </g>
</svg>
