<?xml version="1.0" encoding="UTF-8" standalone="no"?>
<svg xmlns:ffdec="https://www.free-decompiler.com/flash" xmlns:xlink="http://www.w3.org/1999/xlink" ffdec:objectType="shape" height="327.45px" width="245.3px" xmlns="http://www.w3.org/2000/svg">
  <g transform="matrix(1.0, 0.0, 0.0, 1.0, 125.9, 309.25)">
    <path d="M11.5 -300.3 Q11.5 -296.95 8.45 -293.95 5.1 -290.7 0.65 -290.7 -7.75 -290.7 -10.95 -295.65 -12.55 -298.1 -12.5 -300.45 -12.5 -304.1 -8.75 -306.6 -5.3 -308.95 -0.5 -309.2 4.45 -309.5 7.75 -307.4 11.5 -305.0 11.5 -300.3 M76.75 -275.8 Q78.8 -273.1 80.4 -269.9 L81.7 -266.95 Q82.3 -263.0 82.65 -256.7 L83.0 -248.45 Q83.0 -237.85 72.45 -209.65 L66.4 -194.65 Q65.2 -192.75 64.25 -190.25 63.75 -189.05 63.5 -187.35 L61.9 -183.3 Q61.9 -181.5 63.0 -178.9 L63.0 -178.25 Q63.0 -169.4 70.5 -156.8 74.35 -150.35 75.65 -147.35 78.0 -142.0 78.0 -137.0 78.0 -132.6 77.35 -128.2 L72.3 -113.6 Q65.45 -94.7 65.45 -93.75 L69.55 -81.85 70.75 -74.35 Q72.75 -63.1 72.75 -57.85 72.75 -49.6 69.25 -41.35 66.2 -35.2 63.85 -29.95 58.45 -24.25 49.55 -15.75 46.1 -12.45 32.45 -7.35 20.05 -2.75 18.35 0.65 13.0 11.3 7.05 15.3 2.65 18.2 -3.9 18.2 L-11.3 17.45 -18.35 16.25 -27.2 5.85 -28.5 2.75 Q-31.8 -6.65 -43.4 -14.6 -46.55 -16.75 -53.0 -20.9 -58.55 -24.65 -61.75 -28.0 -65.3 -31.75 -77.4 -42.95 -88.05 -53.45 -89.75 -58.75 -92.3 -66.5 -93.85 -74.45 -95.5 -83.0 -95.5 -89.5 -95.5 -98.3 -86.75 -114.3 L-80.75 -125.0 -78.9 -128.55 Q-76.85 -131.35 -76.85 -133.9 -76.85 -134.5 -79.8 -137.25 L-80.5 -138.25 -80.6 -138.05 -82.5 -139.75 Q-88.7 -145.25 -90.15 -148.5 -92.1 -152.55 -92.1 -161.65 -92.1 -170.6 -90.45 -175.85 -87.05 -186.85 -77.15 -186.85 -70.75 -186.85 -66.8 -180.0 -64.7 -176.4 -63.65 -175.35 -61.6 -173.2 -58.5 -173.2 L-54.75 -173.7 -53.45 -174.2 Q-53.25 -177.6 -53.8 -184.4 L-54.4 -192.7 Q-54.4 -196.9 -54.05 -200.0 -62.25 -200.9 -65.55 -206.05 -67.4 -209.0 -67.4 -213.35 -67.4 -219.3 -65.05 -221.6 -60.25 -226.35 -45.65 -222.3 L-40.75 -222.6 Q-37.5 -227.85 -34.15 -230.6 -27.55 -236.1 -18.2 -236.1 -11.25 -236.1 -8.1 -233.55 -5.2 -231.15 -5.2 -226.35 -5.2 -224.95 -6.5 -219.9 -7.8 -214.85 -7.8 -212.2 L-7.2 -211.7 -6.15 -210.9 Q-3.9 -211.35 -0.4 -214.9 2.7 -218.05 8.25 -218.05 12.35 -218.05 16.5 -216.05 L21.25 -213.85 22.0 -214.4 22.25 -216.9 19.65 -227.1 Q17.05 -237.2 17.05 -238.35 17.05 -244.95 22.45 -251.2 30.2 -260.25 33.3 -266.95 35.25 -271.2 39.25 -274.35 L41.1 -275.65 Q42.2 -278.6 47.25 -280.95 54.05 -284.2 63.5 -284.2 70.45 -284.2 76.75 -275.8 M31.0 -275.4 Q31.0 -272.7 27.5 -267.6 23.0 -261.1 17.35 -261.1 10.65 -261.1 8.65 -265.15 7.65 -267.2 7.95 -269.55 7.95 -273.25 11.55 -276.9 14.9 -280.35 19.5 -282.0 24.25 -283.7 27.4 -282.3 31.0 -280.7 31.0 -275.4 M48.9 -227.15 L48.8 -224.25 48.25 -222.3 48.2 -222.2 Q51.05 -221.35 53.3 -219.5 51.3 -225.6 48.8 -229.35 L48.9 -227.15 M115.95 -229.95 Q119.4 -226.55 119.4 -222.45 119.4 -219.15 116.55 -215.4 112.95 -210.7 107.7 -211.55 L104.65 -212.2 Q101.6 -214.5 99.45 -218.55 97.3 -222.55 97.3 -225.85 97.3 -231.1 100.75 -233.25 103.8 -235.15 108.35 -234.1 112.75 -233.05 115.95 -229.95 M-98.3 -202.25 L-98.3 -201.95 Q-98.3 -198.6 -104.95 -194.0 -110.15 -188.2 -112.9 -186.85 L-115.2 -186.95 -119.75 -187.5 Q-123.2 -189.45 -124.75 -192.0 -125.9 -193.9 -125.9 -195.8 -125.9 -201.5 -121.35 -205.55 -117.35 -209.1 -111.25 -210.45 -105.5 -211.75 -101.2 -210.4 -96.65 -209.0 -96.65 -205.4 -96.65 -204.6 -98.3 -202.25 M-23.4 -286.0 Q-23.4 -282.4 -24.7 -280.65 -26.85 -277.7 -32.95 -277.7 L-39.15 -278.35 Q-42.7 -280.85 -42.7 -284.2 -42.7 -290.55 -39.7 -293.9 -37.05 -296.85 -33.05 -296.65 -29.2 -296.5 -26.4 -293.65 -23.4 -290.6 -23.4 -286.0 M-29.65 -255.45 Q-23.8 -256.45 -20.0 -254.65 -15.6 -252.6 -15.6 -247.3 -15.6 -243.95 -19.05 -240.55 -23.5 -236.1 -31.0 -236.1 -38.3 -236.1 -41.75 -240.65 -43.45 -242.9 -43.7 -245.2 -43.7 -248.6 -39.3 -251.6 -35.2 -254.45 -29.65 -255.45" fill="#ff0000" fill-opacity="0.11764706" fill-rule="evenodd" stroke="none"/>
  </g>
</svg>
