<?xml version="1.0" encoding="UTF-8" standalone="no"?>
<svg xmlns:ffdec="https://www.free-decompiler.com/flash" xmlns:xlink="http://www.w3.org/1999/xlink" ffdec:objectType="shape" height="305.35px" width="227.15px" xmlns="http://www.w3.org/2000/svg">
  <g transform="matrix(1.0, 0.0, 0.0, 1.0, 115.85, 301.05)">
    <path d="M3.5 -298.95 Q2.75 -297.85 0.9 -297.4 L-3.0 -297.4 -3.7 -297.75 -4.85 -298.7 Q-4.85 -299.35 -4.3 -300.1 -3.75 -300.85 -3.0 -301.05 L2.45 -300.4 Q3.25 -299.75 3.5 -298.95 M48.3 -256.95 Q44.4 -256.95 42.4 -256.0 L42.45 -256.15 Q44.05 -258.95 46.1 -260.35 51.9 -264.45 65.2 -260.9 66.85 -256.05 69.05 -251.85 69.8 -250.4 69.8 -245.95 69.8 -239.4 68.3 -234.9 67.7 -233.2 64.95 -227.8 60.1 -218.3 60.1 -201.6 L59.9 -194.85 59.85 -195.0 Q58.6 -199.1 58.65 -204.25 58.7 -207.95 59.55 -213.5 60.25 -217.85 58.75 -222.75 57.8 -225.9 54.7 -232.15 44.15 -239.0 36.2 -237.45 33.1 -236.8 31.2 -235.0 29.5 -233.3 29.5 -231.35 L29.55 -230.5 29.35 -230.95 29.25 -233.2 Q29.25 -236.5 33.75 -242.95 L40.0 -251.6 40.05 -251.65 40.0 -250.65 Q40.0 -248.3 40.3 -247.5 41.35 -244.75 45.15 -244.75 48.9 -244.75 51.05 -247.25 52.85 -249.3 52.85 -252.0 52.85 -254.45 48.3 -256.95 M9.45 -208.15 L9.55 -207.55 9.7 -206.5 9.8 -206.3 9.4 -205.85 Q8.4 -204.4 8.4 -200.15 8.4 -195.5 9.95 -192.0 11.1 -189.35 13.05 -187.5 13.8 -186.3 14.65 -185.4 L15.6 -184.8 16.95 -185.0 18.35 -184.5 Q27.95 -182.0 35.5 -193.9 38.05 -197.95 39.85 -202.85 41.3 -206.8 41.3 -208.15 41.3 -212.15 37.15 -215.85 L38.05 -216.3 Q40.9 -217.3 47.75 -216.95 50.45 -213.65 51.55 -211.2 52.6 -208.9 52.6 -206.55 50.7 -197.5 48.7 -192.4 47.5 -183.85 47.5 -181.35 47.5 -174.1 51.1 -163.8 L51.55 -163.8 Q59.35 -147.4 60.15 -144.65 61.4 -140.55 61.4 -129.4 61.4 -118.15 57.65 -109.1 L55.05 -103.5 Q53.9 -101.0 53.9 -99.75 53.9 -94.55 56.6 -81.95 59.3 -69.35 59.3 -64.55 59.3 -54.3 56.15 -44.1 52.45 -32.0 45.15 -23.35 43.6 -21.55 40.35 -20.5 L33.55 -18.85 Q23.05 -16.6 16.65 -11.55 12.9 -6.85 8.2 -3.1 -0.95 4.3 -11.25 4.3 -20.75 4.3 -30.4 -5.3 -35.25 -10.15 -38.3 -15.35 -39.35 -18.1 -42.35 -20.7 -43.4 -21.65 -48.05 -24.95 -55.5 -30.25 -55.75 -35.7 -56.1 -41.8 -59.05 -46.55 -62.65 -52.2 -70.45 -56.7 -80.7 -62.6 -82.25 -66.85 -82.85 -68.6 -82.7 -71.5 L-82.4 -77.7 -82.35 -79.05 Q-83.4 -81.05 -84.05 -84.05 -85.0 -88.5 -85.05 -93.15 -85.05 -98.05 -82.7 -103.4 L-79.25 -108.4 Q-76.0 -112.9 -66.25 -124.55 -60.35 -131.65 -60.35 -133.85 L-60.65 -135.4 Q-59.55 -138.6 -59.55 -139.5 -59.55 -142.35 -62.6 -144.3 -63.7 -145.0 -69.3 -147.4 -73.95 -149.4 -76.05 -151.45 -79.1 -154.45 -79.1 -159.05 -79.1 -163.05 -78.9 -163.8 -78.6 -165.0 -77.7 -165.9 L-77.7 -166.15 Q-71.3 -158.55 -62.2 -158.55 -60.35 -158.55 -53.2 -161.4 L-51.0 -162.25 Q-49.65 -161.55 -47.8 -159.55 -45.25 -156.85 -44.85 -155.75 -44.55 -155.05 -44.0 -152.05 -41.85 -146.55 -41.85 -142.25 L-42.1 -139.5 -42.1 -139.2 -42.1 -138.95 Q-42.1 -137.7 -42.45 -135.9 -43.05 -132.25 -44.7 -127.05 L-44.85 -126.6 -43.15 -128.45 Q-30.8 -142.4 -30.8 -155.5 -30.8 -160.8 -32.1 -164.75 -32.8 -166.8 -35.0 -171.05 -39.2 -179.1 -39.2 -189.75 -39.2 -199.7 -33.0 -208.5 -26.7 -217.45 -14.3 -224.7 L-12.5 -224.65 -12.45 -224.65 Q-14.85 -223.5 -16.55 -220.5 -19.65 -215.15 -19.65 -207.1 -19.65 -202.5 -18.45 -198.75 -18.25 -193.95 -15.9 -190.45 -12.3 -185.05 -4.55 -185.05 -3.2 -185.05 -1.9 -185.85 L-1.05 -185.85 Q0.95 -187.2 4.9 -195.55 8.9 -203.9 8.9 -206.85 L8.8 -207.9 9.45 -208.15 M110.75 -222.85 Q110.9 -223.1 111.05 -223.05 L111.3 -221.25 Q111.3 -219.0 111.1 -218.65 110.75 -218.0 108.9 -218.0 L106.8 -218.2 104.6 -218.25 104.2 -218.85 Q103.8 -219.45 103.8 -221.0 103.8 -222.45 105.6 -223.1 L110.75 -222.85 M53.8 -190.95 L54.2 -189.6 55.1 -187.45 53.7 -186.65 53.8 -186.75 53.9 -188.85 53.8 -190.95 M-101.9 -201.45 Q-102.0 -201.15 -100.25 -200.25 L-103.2 -199.45 -109.45 -197.4 -111.1 -195.7 Q-112.6 -194.1 -114.15 -193.55 L-115.45 -193.5 Q-115.85 -193.55 -115.85 -195.15 -115.85 -197.45 -114.25 -199.2 L-109.2 -204.05 Q-108.0 -205.3 -105.25 -205.0 L-99.2 -203.55 -101.9 -201.45 M-30.05 -284.55 Q-31.15 -283.8 -32.95 -283.1 L-36.75 -281.75 -37.55 -282.0 Q-37.8 -282.05 -37.8 -283.6 -37.8 -285.05 -36.1 -286.05 -34.15 -287.25 -31.35 -286.9 -30.55 -286.1 -30.05 -284.55 M-55.5 -205.4 L-57.5 -205.6 Q-58.25 -205.9 -58.25 -207.6 -58.25 -209.35 -55.8 -210.95 -53.5 -212.45 -50.45 -212.9 -42.65 -214.1 -42.65 -208.0 -42.65 -206.4 -43.55 -205.3 L-43.9 -204.95 -43.95 -204.55 Q-44.1 -204.0 -44.95 -203.85 L-45.25 -203.55 -45.55 -203.8 -45.8 -203.8 Q-47.15 -203.8 -49.1 -204.65 -51.3 -205.65 -52.85 -205.9 L-53.55 -206.45 -55.5 -205.4" fill="#f28420" fill-rule="evenodd" stroke="none"/>
  </g>
</svg>
