<?xml version="1.0" encoding="UTF-8" standalone="no"?>
<svg xmlns:ffdec="https://www.free-decompiler.com/flash" xmlns:xlink="http://www.w3.org/1999/xlink" ffdec:objectType="shape" height="315.65px" width="229.35px" xmlns="http://www.w3.org/2000/svg">
  <g transform="matrix(1.0, 0.0, 0.0, 1.0, 115.6, 304.6)">
    <path d="M23.85 -127.15 L24.8 -124.2 25.7 -121.45 25.8 -121.05 26.7 -118.3 27.9 -120.3 Q29.25 -122.45 29.7 -124.45 30.75 -126.85 31.8 -130.35 L33.2 -135.3 33.85 -135.45 Q34.95 -129.85 37.45 -123.55 L41.85 -112.45 Q45.15 -103.15 45.15 -89.9 45.15 -82.1 43.55 -77.05 41.05 -69.0 34.9 -69.0 33.15 -69.0 32.4 -69.5 L31.6 -70.45 27.95 -70.6 24.8 -74.05 Q23.05 -75.7 21.0 -75.7 17.8 -75.7 15.85 -72.5 14.8 -70.85 12.5 -64.35 7.25 -49.8 -2.1 -42.1 L-11.25 -41.85 Q-22.45 -41.85 -26.25 -50.55 -27.95 -54.4 -27.95 -60.6 -27.95 -66.55 -24.3 -71.95 -20.7 -77.4 -20.7 -79.1 -20.7 -80.95 -22.0 -83.7 -23.65 -87.15 -25.7 -87.15 -27.45 -87.15 -33.1 -82.75 -38.85 -78.25 -44.2 -78.05 -50.35 -80.05 -51.65 -83.3 -52.1 -84.4 -52.1 -89.9 -52.1 -100.25 -44.8 -108.9 -38.85 -116.0 -23.35 -126.65 L-23.75 -125.2 -23.15 -126.15 Q-21.65 -128.5 -19.25 -132.75 -17.15 -136.3 -15.35 -137.9 -14.15 -136.55 -13.55 -133.5 -13.1 -131.45 -13.1 -130.2 -13.1 -128.0 -13.6 -125.15 -14.15 -121.9 -15.05 -119.7 -7.85 -124.85 -5.25 -135.15 L-3.35 -143.05 Q-2.1 -147.3 0.0 -149.85 0.8 -148.45 1.95 -143.45 L4.1 -133.9 Q7.25 -121.5 11.65 -121.5 16.65 -121.5 17.6 -125.5 17.9 -126.75 17.85 -128.15 L22.85 -137.95 Q24.1 -136.45 24.05 -133.35 23.5 -128.5 23.85 -127.15 M-33.5 -115.5 Q-30.85 -117.3 -28.5 -119.55 L-31.25 -117.3 -33.5 -115.5" fill="#ffcc00" fill-rule="evenodd" stroke="none"/>
    <path d="M3.4 -299.15 Q3.4 -297.2 2.8 -296.2 1.8 -294.45 -1.3 -293.6 L-5.85 -295.25 -6.0 -296.0 -6.15 -299.15 Q-6.15 -301.75 -4.65 -303.25 -3.3 -304.6 -1.35 -304.6 0.55 -304.6 1.9 -303.25 3.4 -301.75 3.4 -299.15 M70.4 -265.25 Q72.0 -262.65 72.25 -260.4 74.9 -257.35 74.9 -253.8 74.9 -245.7 72.95 -240.65 69.45 -231.8 67.4 -222.3 66.05 -209.45 65.05 -203.4 63.35 -192.7 58.3 -192.7 L57.75 -192.75 56.7 -190.05 Q53.45 -182.3 53.45 -177.9 53.45 -175.4 56.15 -170.65 L62.05 -160.85 Q70.65 -146.25 70.65 -134.55 70.65 -131.05 65.45 -113.4 L60.25 -96.2 63.7 -82.0 Q67.1 -67.05 67.1 -60.6 L67.35 -50.55 Q67.4 -44.6 66.55 -40.45 64.15 -29.0 52.8 -20.6 44.75 -14.6 35.15 -11.95 25.1 -9.15 20.3 -5.85 19.2 -5.15 17.45 -2.2 L14.0 3.5 Q8.95 11.05 2.6 11.05 -1.35 11.05 -3.7 9.9 -20.25 9.7 -24.2 8.05 -27.65 6.6 -32.95 0.0 L-38.1 -6.05 Q-42.2 -11.05 -44.65 -12.5 -53.0 -17.35 -56.95 -24.85 -58.25 -27.4 -61.55 -37.85 -63.4 -43.7 -72.9 -52.05 -83.65 -61.55 -85.3 -64.15 -87.0 -66.85 -89.35 -77.45 -91.45 -87.05 -91.45 -89.5 -91.45 -103.85 -78.45 -117.4 L-69.5 -126.15 Q-65.45 -130.3 -65.45 -132.75 -65.45 -136.2 -68.6 -139.3 L-75.5 -144.7 Q-85.6 -152.25 -85.6 -162.0 -85.6 -167.65 -84.6 -170.35 -82.9 -175.15 -77.8 -175.15 -73.8 -175.15 -71.9 -171.55 L-70.6 -168.7 Q-69.9 -167.2 -69.05 -166.7 -67.05 -165.55 -60.9 -166.15 L-51.15 -167.05 Q-44.15 -167.05 -42.0 -164.25 -40.6 -160.7 -39.15 -159.25 L-38.8 -158.85 Q-38.5 -158.8 -38.5 -160.85 -38.5 -165.15 -41.1 -175.95 -43.7 -186.75 -43.7 -191.55 -43.7 -195.5 -42.1 -201.45 -40.15 -208.6 -36.9 -214.45 -27.95 -230.5 -13.65 -229.45 -12.5 -228.45 -11.85 -227.5 L-12.7 -226.65 -11.9 -225.9 Q-11.05 -224.7 -11.05 -222.6 -11.05 -220.95 -12.35 -214.3 -13.65 -207.65 -13.65 -206.05 -13.65 -204.45 -11.1 -198.0 L-7.45 -189.45 Q-2.75 -191.55 -0.8 -195.35 0.3 -197.45 1.05 -202.1 1.7 -206.15 2.9 -207.65 4.75 -209.95 9.55 -209.95 16.35 -209.95 16.4 -201.25 16.45 -198.55 15.75 -195.2 L15.1 -192.2 Q15.1 -190.15 19.85 -189.15 L25.0 -188.5 Q28.2 -188.5 31.35 -197.55 33.95 -204.9 33.95 -207.0 33.95 -208.6 32.65 -211.85 31.35 -215.1 31.35 -216.75 31.35 -219.55 32.45 -221.25 34.2 -223.9 38.8 -224.55 48.35 -223.0 53.6 -218.65 L53.55 -218.95 Q53.05 -222.1 52.25 -224.1 49.95 -229.95 42.05 -234.0 L31.0 -234.15 Q27.8 -235.2 26.85 -236.9 26.45 -237.65 26.45 -239.35 26.45 -241.2 31.5 -249.75 34.85 -255.4 37.85 -258.95 L37.85 -259.35 Q37.85 -262.9 42.25 -267.75 46.55 -272.4 52.0 -275.1 57.9 -278.05 61.7 -276.6 65.2 -275.25 65.9 -270.3 L66.3 -270.0 Q68.65 -268.1 70.4 -265.25 M108.25 -226.75 Q110.45 -226.75 112.0 -225.5 113.75 -224.1 113.75 -221.8 113.75 -219.2 110.95 -217.45 108.9 -216.1 107.7 -216.1 104.55 -216.1 103.35 -218.75 102.7 -220.1 102.7 -221.65 102.7 -224.1 104.45 -225.5 105.95 -226.8 108.25 -226.75 M-111.75 -206.8 Q-106.85 -210.3 -98.3 -204.1 -103.5 -200.75 -105.05 -195.55 -105.6 -193.6 -106.3 -193.0 -107.4 -192.05 -110.3 -192.05 -114.2 -192.05 -115.2 -195.1 -115.75 -196.65 -115.5 -198.55 -115.5 -204.15 -111.75 -206.8 M-32.45 -280.8 Q-34.3 -279.25 -36.2 -279.0 L-41.4 -279.95 -41.7 -280.6 Q-42.05 -281.0 -42.05 -282.9 -42.05 -284.65 -40.2 -286.05 -38.55 -287.35 -36.2 -287.75 -30.35 -288.85 -30.35 -284.35 -30.35 -282.55 -32.45 -280.8 M-42.4 -212.7 Q-41.4 -211.0 -41.4 -208.3 -41.4 -206.65 -42.4 -204.95 -44.1 -202.1 -47.9 -201.5 -56.45 -201.15 -59.65 -203.85 -61.55 -205.45 -61.55 -208.3 -61.55 -212.25 -59.65 -213.8 -56.85 -216.2 -47.9 -216.75 -43.9 -215.25 -42.4 -212.7" fill="#ffcc33" fill-opacity="0.3529412" fill-rule="evenodd" stroke="none"/>
  </g>
</svg>
