<?xml version="1.0" encoding="UTF-8" standalone="no"?>
<svg xmlns:ffdec="https://www.free-decompiler.com/flash" xmlns:xlink="http://www.w3.org/1999/xlink" ffdec:objectType="shape" height="67.05px" width="236.75px" xmlns="http://www.w3.org/2000/svg">
  <g transform="matrix(1.0, 0.0, 0.0, 1.0, 74.25, 6.55)">
    <path d="M161.45 -6.0 L161.65 -3.85 Q162.5 -2.4 162.5 3.25 162.5 4.8 160.75 13.05 158.6 22.95 156.05 31.75 149.45 54.2 143.5 57.45 L141.0 59.5 139.2 58.7 138.85 58.2 Q131.35 55.95 121.15 53.65 100.5 49.0 86.0 49.0 L85.05 48.25 85.0 48.75 84.4 49.2 83.0 50.0 82.25 49.45 Q79.9 39.95 70.35 32.45 58.3 23.05 42.5 22.2 L32.15 22.8 Q22.0 24.55 14.65 31.35 11.25 34.5 8.8 38.45 L8.2 37.7 6.65 39.55 5.45 44.75 Q4.05 49.0 0.0 49.0 L-1.95 48.7 Q-2.5 48.4 -3.25 48.25 L-37.4 54.9 Q-39.45 56.3 -44.6 58.0 -52.05 60.5 -53.5 60.5 -55.95 60.5 -58.0 55.5 L-58.45 54.3 Q-64.6 48.35 -69.25 31.15 -70.75 25.55 -71.85 19.95 -73.4 12.25 -74.25 4.5 -74.25 -1.25 -73.9 -2.8 L-72.95 -5.1 -72.1 -6.15 -68.75 -6.55 -68.75 -6.1 152.75 -6.1 153.75 -5.95 155.35 -6.55 161.0 -6.0 161.45 -6.0" fill="#ff0000" fill-opacity="0.0" fill-rule="evenodd" stroke="none"/>
  </g>
</svg>
