<?xml version="1.0" encoding="UTF-8" standalone="no"?>
<svg xmlns:ffdec="https://www.free-decompiler.com/flash" xmlns:xlink="http://www.w3.org/1999/xlink" ffdec:objectType="shape" height="25.0px" width="114.65px" xmlns="http://www.w3.org/2000/svg">
  <g transform="matrix(1.0, 0.0, 0.0, 1.0, -860.35, -510.4)">
    <path d="M962.05 510.4 Q967.4 510.4 971.2 514.2 974.45 517.45 974.9 521.85 L975.0 521.85 975.0 524.9 975.0 525.1 974.75 525.1 Q974.05 528.75 971.2 531.6 967.4 535.4 962.05 535.4 L873.25 535.4 Q870.85 535.4 868.8 534.7 866.25 533.7 864.15 531.6 861.25 528.75 860.6 525.1 L860.35 525.1 860.35 524.9 860.35 521.85 860.4 521.85 Q860.85 517.45 864.15 514.2 866.25 512.1 868.8 511.15 870.85 510.4 873.25 510.4 L962.05 510.4" fill="#242424" fill-opacity="0.8" fill-rule="evenodd" stroke="none"/>
  </g>
</svg>
