<?xml version="1.0" encoding="UTF-8" standalone="no"?>
<svg xmlns:ffdec="https://www.free-decompiler.com/flash" xmlns:xlink="http://www.w3.org/1999/xlink" ffdec:objectType="shape" height="29.55px" width="164.6px" xmlns="http://www.w3.org/2000/svg">
  <g transform="matrix(1.0, 0.0, 0.0, 1.0, 3.5, -4.0)">
    <path d="M151.8 6.75 L151.7 6.7 151.55 6.6 151.15 6.55 151.05 6.55 150.15 6.25 150.0 6.2 145.85 6.0 129.3 6.0 129.3 5.95 74.75 5.95 42.15 5.95 29.15 5.95 26.15 5.95 26.15 6.0 23.2 6.0 7.85 6.0 Q7.0 5.95 6.75 6.3 L6.75 6.45 6.35 6.4 5.45 6.5 5.05 6.6 4.8 6.7 Q3.7 6.9 3.4 7.4 L3.2 7.5 2.9 7.65 2.6 7.75 2.5 7.85 Q1.0 8.65 0.95 9.6 L0.6 9.85 0.3 10.25 0.55 10.4 Q0.1 10.85 0.1 11.5 L0.1 11.7 -0.15 13.0 -0.4 14.4 -0.45 15.55 -0.45 18.15 -0.3 21.65 Q-0.05 23.65 0.5 25.3 L0.8 25.5 3.0 26.5 6.3 27.25 6.55 27.45 7.15 27.55 151.4 27.55 152.5 27.05 Q154.25 26.2 155.4 25.35 L156.5 23.55 157.0 22.95 157.65 16.7 Q157.65 11.8 154.9 8.6 L153.65 7.5 151.8 6.75 M151.4 4.2 L152.5 4.3 Q152.95 3.75 154.0 4.6 L154.4 4.7 Q159.25 5.95 159.25 8.7 L159.1 9.25 Q160.7 11.45 160.7 13.5 160.7 14.05 160.2 14.05 L160.15 14.05 Q159.9 13.9 159.55 12.95 L159.85 15.35 159.9 16.15 160.15 18.8 Q161.1 18.25 161.1 20.25 160.0 26.4 159.1 27.5 L158.6 28.1 158.4 28.25 158.3 28.4 158.4 28.55 158.45 28.6 157.95 29.35 157.45 29.7 157.5 29.95 157.5 30.3 Q157.5 30.8 157.15 30.9 L156.9 30.55 156.85 30.45 156.75 30.1 156.2 30.65 154.8 31.9 154.25 32.25 Q152.15 33.55 150.85 33.55 L150.0 32.95 149.5 32.6 149.8 32.35 150.2 32.0 139.25 33.0 136.05 33.0 135.45 32.9 135.1 32.75 130.75 32.3 129.3 32.3 129.1 32.3 127.15 32.25 119.4 32.25 119.4 32.8 119.0 32.85 118.45 32.9 117.35 33.0 114.9 33.0 113.9 32.95 113.55 32.95 74.75 32.95 74.75 32.85 55.2 32.85 42.15 32.85 42.15 32.8 29.15 32.8 20.2 32.5 17.6 32.3 15.75 32.4 14.5 32.2 14.5 32.4 Q14.45 32.7 13.95 32.7 L12.45 32.55 12.5 32.75 12.45 33.0 12.1 33.2 11.4 33.0 11.05 32.7 10.85 32.4 10.2 32.4 10.1 32.4 9.35 32.9 Q3.6 32.9 -0.4 29.0 L-1.9 27.4 Q-3.5 25.4 -3.5 23.8 L-3.25 22.4 -3.4 21.15 Q-3.4 20.45 -2.75 20.15 L-2.4 20.1 -2.35 20.1 -2.4 20.05 -2.6 18.45 -2.45 16.55 -2.65 12.95 -2.55 11.6 Q-3.3 11.4 -3.3 10.6 -3.3 8.6 -1.15 7.1 L-0.75 6.8 Q1.4 3.9 5.65 4.15 L6.15 4.2 6.35 4.4 8.15 4.3 9.05 4.45 9.25 4.45 9.45 4.35 42.15 4.4 42.15 4.45 129.3 4.45 129.3 4.5 149.9 4.5 Q150.35 4.15 151.4 4.2 M129.3 30.35 L127.35 30.35 126.95 30.3 122.45 30.25 119.4 30.4 119.4 30.45 115.9 30.5 Q114.2 30.65 113.9 31.05 L115.9 31.5 122.15 31.5 122.25 31.45 126.95 31.5 126.95 31.55 128.55 31.5 129.5 31.6 129.7 31.5 145.35 31.5 146.2 31.4 147.5 31.6 Q151.0 31.6 154.2 29.8 156.2 28.65 156.85 27.7 L157.0 27.65 157.6 25.65 157.35 24.85 Q156.6 25.15 156.1 26.3 L155.95 26.7 154.95 27.55 Q153.8 28.65 152.5 28.8 L149.1 29.8 148.2 30.1 145.0 30.4 129.3 30.4 129.3 30.35 M12.65 29.6 L12.75 29.55 12.6 29.55 12.65 29.6 M-1.95 20.2 L-1.95 20.0 -2.0 20.25 -1.95 20.3 -1.95 20.2" fill="#30313a" fill-rule="evenodd" stroke="none"/>
    <path d="M151.8 6.75 L151.8 6.8 152.4 7.05 Q154.6 8.05 155.0 8.9 155.2 9.25 154.55 9.25 154.25 9.25 152.85 8.55 151.35 7.85 150.3 7.75 L150.2 7.6 42.15 7.6 42.15 7.55 29.1 7.55 Q28.8 6.7 26.15 6.85 L26.15 6.75 24.15 6.75 Q22.1 6.85 21.3 7.5 L21.2 7.5 16.05 7.5 15.5 7.0 10.25 6.75 Q5.7 6.85 4.65 7.8 3.95 7.85 2.7 8.4 1.2 9.1 1.2 9.75 L1.25 9.9 1.0 10.0 1.0 9.9 0.95 10.05 Q0.8 10.1 0.65 10.25 L0.55 10.4 0.3 10.25 0.6 9.85 0.95 9.6 Q1.0 8.65 2.5 7.85 L2.9 7.65 3.2 7.5 3.4 7.4 Q3.7 6.9 4.8 6.7 L5.05 6.6 5.45 6.5 6.35 6.4 6.75 6.45 6.75 6.3 Q7.0 5.95 7.85 6.0 L23.2 6.0 26.15 6.0 26.15 5.95 29.15 5.95 42.15 5.95 74.75 5.95 129.3 5.95 129.3 6.0 145.85 6.0 150.0 6.2 150.15 6.25 151.05 6.55 151.15 6.55 151.55 6.6 151.7 6.7 151.8 6.75" fill="#636476" fill-rule="evenodd" stroke="none"/>
    <path d="M29.1 7.55 L42.15 7.55 42.15 7.6 150.2 7.6 150.3 7.75 Q151.35 7.85 152.85 8.55 154.25 9.25 154.55 9.25 155.2 9.25 155.0 8.9 154.6 8.05 152.4 7.05 L151.8 6.8 151.8 6.75 153.65 7.5 154.9 8.6 Q157.65 11.8 157.65 16.7 L157.0 22.95 156.5 23.55 155.4 25.35 Q154.25 26.2 152.5 27.05 L151.4 27.55 7.15 27.55 6.55 27.45 6.3 27.25 3.0 26.5 0.8 25.5 0.5 25.3 Q-0.05 23.65 -0.3 21.65 L-0.45 18.15 -0.45 15.55 -0.4 14.4 -0.15 13.0 0.1 11.7 0.15 12.05 0.35 12.25 0.6 12.25 1.15 11.3 2.3 10.5 12.25 8.55 15.8 8.55 16.15 8.45 16.3 7.95 16.05 7.5 21.2 7.5 Q20.8 7.65 20.75 7.8 L20.7 7.8 20.75 7.85 21.25 8.3 21.6 8.5 26.15 8.5 26.15 8.45 27.55 8.55 Q29.15 8.55 29.15 7.85 L29.15 7.8 29.1 7.55 M2.9 7.65 L2.5 7.85 2.6 7.75 2.9 7.65 M0.95 10.05 L1.0 9.9 1.0 10.0 0.95 10.05 M160.15 14.05 L160.15 14.35 159.85 15.35 159.55 12.95 Q159.9 13.9 160.15 14.05 M158.6 28.1 L158.4 28.55 158.3 28.4 158.4 28.25 158.6 28.1 M157.95 29.35 L157.5 29.95 157.45 29.7 157.95 29.35 M156.9 30.55 L154.8 31.9 156.2 30.65 156.75 30.1 156.85 30.45 156.9 30.55 M150.0 32.95 L148.65 33.0 139.25 33.0 150.2 32.0 149.8 32.35 149.5 32.6 150.0 32.95 M136.05 33.0 L117.35 33.0 118.45 32.9 119.0 32.85 119.4 32.8 119.4 32.25 127.15 32.25 129.1 32.3 129.3 32.3 130.75 32.3 135.1 32.75 135.45 32.9 136.05 33.0 M114.9 33.0 L12.45 33.0 12.5 32.75 12.45 32.55 13.95 32.7 Q14.45 32.7 14.5 32.4 L14.5 32.2 15.75 32.4 17.6 32.3 20.2 32.5 29.15 32.8 42.15 32.8 42.15 32.85 55.2 32.85 74.75 32.85 74.75 32.95 113.55 32.95 113.9 32.95 114.9 33.0 M11.4 33.0 L8.3 33.0 Q-0.1 33.0 -1.9 27.4 L-0.4 29.0 Q3.6 32.9 9.35 32.9 L10.1 32.4 10.2 32.4 10.85 32.4 11.05 32.7 11.4 33.0 M-2.4 20.1 L-2.4 20.05 -2.35 20.1 -2.4 20.1 M5.65 4.15 L8.3 4.0 148.65 4.0 151.4 4.2 Q150.35 4.15 149.9 4.5 L129.3 4.5 129.3 4.45 42.15 4.45 42.15 4.4 9.45 4.35 9.25 4.45 9.05 4.45 8.15 4.3 6.35 4.4 6.15 4.2 5.65 4.15 M129.3 30.35 L129.3 30.4 145.0 30.4 148.2 30.1 149.1 29.8 152.5 28.8 Q153.8 28.65 154.95 27.55 L155.95 26.7 156.1 26.3 Q156.6 25.15 157.35 24.85 L157.6 25.65 157.0 27.65 156.85 27.7 Q156.2 28.65 154.2 29.8 151.0 31.6 147.5 31.6 L146.2 31.4 145.35 31.5 129.7 31.5 129.5 31.6 128.55 31.5 126.95 31.55 126.95 31.5 122.25 31.45 122.15 31.5 115.9 31.5 113.9 31.05 Q114.2 30.65 115.9 30.5 L119.4 30.45 119.4 30.4 122.45 30.25 126.95 30.3 127.35 30.35 129.3 30.35 M-1.95 20.2 L-1.95 20.3 -2.0 20.25 -1.95 20.0 -1.95 20.2 M12.65 29.6 L12.6 29.55 12.75 29.55 12.65 29.6" fill="#40414d" fill-rule="evenodd" stroke="none"/>
    <path d="M0.55 10.4 L0.65 10.25 Q0.8 10.1 0.95 10.05 L1.0 10.0 1.25 9.9 1.2 9.75 Q1.2 9.1 2.7 8.4 3.95 7.85 4.65 7.8 5.7 6.85 10.25 6.75 L15.5 7.0 16.05 7.5 16.3 7.95 16.15 8.45 15.8 8.55 12.25 8.55 2.3 10.5 1.15 11.3 0.6 12.25 0.35 12.25 0.15 12.05 0.1 11.7 0.1 11.5 Q0.1 10.85 0.55 10.4 M21.2 7.5 L21.3 7.5 Q22.1 6.85 24.15 6.75 L26.15 6.75 26.15 6.85 Q28.8 6.7 29.1 7.55 L29.15 7.8 29.15 7.85 Q29.15 8.55 27.55 8.55 L26.15 8.45 26.15 8.5 21.6 8.5 21.25 8.3 20.75 7.85 20.7 7.8 20.75 7.8 Q20.8 7.65 21.2 7.5" fill="#9697a7" fill-rule="evenodd" stroke="none"/>
  </g>
</svg>
