<?xml version="1.0" encoding="UTF-8" standalone="no"?>
<svg xmlns:ffdec="https://www.free-decompiler.com/flash" xmlns:xlink="http://www.w3.org/1999/xlink" ffdec:objectType="shape" height="153.55px" width="188.6px" xmlns="http://www.w3.org/2000/svg">
  <g transform="matrix(1.0, 0.0, 0.0, 1.0, 73.9, 160.15)">
    <path d="M67.1 -144.55 L67.65 -144.05 67.9 -143.05 Q68.05 -142.05 67.65 -141.15 67.25 -140.15 66.3 -139.7 L65.65 -139.45 65.0 -139.55 Q64.5 -139.65 64.15 -139.95 L63.45 -140.8 63.35 -141.25 63.35 -141.75 63.35 -142.25 63.35 -142.75 63.35 -143.25 63.35 -143.75 63.85 -144.2 64.35 -144.7 64.7 -144.95 65.65 -145.3 65.65 -145.35 66.45 -145.0 67.1 -144.55 M78.8 -12.4 L79.6 -12.25 80.4 -11.9 80.9 -11.45 81.15 -10.45 81.3 -9.5 Q81.35 -8.65 80.75 -8.05 L80.25 -7.55 Q79.1 -6.2 77.4 -6.8 75.7 -7.4 75.5 -9.0 L75.6 -9.95 Q75.65 -10.5 75.95 -10.9 76.5 -11.75 77.35 -12.2 L78.15 -12.45 78.8 -12.4 M112.25 -89.7 L113.2 -89.35 113.85 -88.9 114.25 -88.45 Q114.8 -87.8 114.7 -86.95 114.6 -85.6 113.85 -84.45 113.1 -83.25 111.6 -83.5 109.85 -83.65 109.85 -85.3 109.8 -86.8 110.05 -88.25 110.25 -89.75 111.6 -89.75 L112.25 -89.7 M-31.4 -156.05 L-31.5 -158.0 Q-31.55 -159.35 -30.3 -159.9 L-29.5 -160.15 -28.2 -160.05 -27.3 -159.7 -26.4 -158.85 -26.2 -158.35 -26.05 -157.85 -26.0 -156.85 Q-26.05 -156.1 -26.45 -155.4 L-26.75 -154.9 -27.1 -154.65 -28.2 -154.25 Q-30.0 -153.9 -31.15 -155.05 L-31.4 -156.05 M-69.95 -84.5 Q-69.45 -83.0 -69.95 -81.5 -70.35 -80.45 -71.55 -80.4 -73.25 -80.7 -73.75 -82.25 -74.2 -83.8 -73.4 -85.0 -72.9 -85.75 -72.2 -85.8 -70.45 -86.05 -69.95 -84.5 M-70.9 -29.2 L-70.9 -30.15 Q-70.95 -31.45 -69.7 -31.9 L-68.9 -32.15 -68.25 -32.1 -67.45 -31.95 -66.65 -31.6 -66.1 -31.15 Q-65.8 -30.45 -65.8 -29.7 -65.85 -28.65 -66.35 -27.75 -66.9 -26.6 -68.25 -26.4 L-69.35 -26.8 -70.05 -27.25 -70.5 -27.75 -70.9 -28.2 -70.9 -29.2" fill="#ffffff" fill-rule="evenodd" stroke="none"/>
  </g>
</svg>
