<?xml version="1.0" encoding="UTF-8" standalone="no"?>
<svg xmlns:ffdec="https://www.free-decompiler.com/flash" xmlns:xlink="http://www.w3.org/1999/xlink" ffdec:objectType="shape" height="29.55px" width="61.05px" xmlns="http://www.w3.org/2000/svg">
  <g transform="matrix(1.0, 0.0, 0.0, 1.0, 25.4, 82.35)">
    <path d="M18.9 -76.45 Q23.65 -79.8 28.9 -81.2 42.35 -76.2 29.05 -66.0 29.65 -63.9 29.15 -60.95 28.8 -58.75 26.25 -58.1 13.55 -54.7 11.95 -62.1 L9.5 -59.7 Q2.85 -53.75 -0.65 -61.9 -3.35 -68.1 3.15 -71.55 4.75 -72.4 6.35 -72.9 7.55 -79.25 13.8 -82.35 18.2 -79.6 18.45 -76.1 L18.9 -76.45 M-13.6 -55.0 Q-23.9 -49.2 -25.3 -58.75 -26.15 -64.9 -20.0 -67.45 -16.55 -68.9 -13.1 -69.4 1.45 -63.5 -13.6 -55.0" fill="#ffffff" fill-rule="evenodd" stroke="none"/>
  </g>
</svg>
