<?xml version="1.0" encoding="UTF-8" standalone="no"?>
<svg xmlns:ffdec="https://www.free-decompiler.com/flash" xmlns:xlink="http://www.w3.org/1999/xlink" ffdec:objectType="shape" height="55.8px" width="63.4px" xmlns="http://www.w3.org/2000/svg">
  <g transform="matrix(1.0, 0.0, 0.0, 1.0, 17.4, 107.45)">
    <path d="M26.75 -105.7 L27.55 -105.3 28.85 -104.3 29.25 -103.85 Q30.1 -94.45 21.35 -90.8 13.7 -87.65 15.9 -95.45 17.95 -102.85 24.95 -106.15 L26.75 -105.7 M38.75 -89.1 Q52.2 -86.35 40.7 -76.75 30.95 -68.6 30.4 -79.3 29.95 -87.65 38.75 -89.1 M26.75 -56.3 Q20.85 -49.25 18.15 -57.3 15.85 -64.0 22.35 -66.75 34.15 -65.25 26.75 -56.3 M7.0 -92.75 Q0.05 -84.2 -3.85 -92.9 -5.45 -96.45 -4.4 -100.25 -2.9 -105.65 2.0 -107.45 15.75 -103.45 7.0 -92.75 M-11.0 -59.4 Q-10.95 -61.9 -9.05 -64.05 -6.8 -66.6 -3.9 -67.4 8.0 -64.2 -2.0 -55.05 -11.25 -46.55 -11.0 -59.4 M-7.5 -73.05 Q-15.9 -63.1 -17.3 -74.65 -18.2 -81.9 -11.8 -85.15 1.9 -84.2 -7.5 -73.05" fill="#ffffff" fill-rule="evenodd" stroke="none"/>
  </g>
</svg>
