<?xml version="1.0" encoding="UTF-8" standalone="no"?>
<svg xmlns:ffdec="https://www.free-decompiler.com/flash" xmlns:xlink="http://www.w3.org/1999/xlink" ffdec:objectType="shape" height="30.65px" width="330.7px" xmlns="http://www.w3.org/2000/svg">
  <g transform="matrix(1.0, 0.0, 0.0, 1.0, 163.1, -36.6)">
    <path d="M-145.5 65.5 L-145.05 65.85 -145.1 65.95 -145.2 66.0 -145.2 66.05 -145.3 66.3 -145.4 66.35 -145.5 66.45 -145.9 66.45 Q-146.5 66.45 -147.5 65.9 L-149.8 64.75 -149.9 64.7 -150.15 64.6 -152.65 63.9 -154.5 63.2 -154.65 63.1 -155.1 63.25 -155.25 63.25 -155.25 62.75 -155.15 62.7 -155.2 62.65 -154.9 62.45 -153.95 61.65 Q-153.35 61.25 -152.6 61.25 L-152.45 61.25 -151.1 61.05 Q-149.7 61.05 -147.4 63.4 L-145.7 65.35 -145.5 65.5" fill="#f8dd45" fill-rule="evenodd" stroke="none"/>
    <path d="M-145.5 65.5 L-145.7 65.35 -147.4 63.4 Q-149.7 61.05 -151.1 61.05 L-152.45 61.25 -152.6 61.25 Q-153.35 61.25 -153.95 61.65 L-154.9 62.45 -155.2 62.65 -155.15 62.7 -155.25 62.75 -155.25 63.25 -157.9 63.1 -161.1 63.25 -162.1 63.05 -161.35 62.1 Q-160.8 60.9 -159.9 60.3 -158.95 59.7 -157.65 59.45 L-157.5 59.35 Q-155.75 58.45 -154.5 58.45 -152.6 58.45 -150.45 59.85 L-149.0 60.65 -149.1 60.85 Q-147.2 62.4 -147.2 63.15 L-147.1 63.4 -147.1 63.55 Q-145.7 64.5 -145.5 65.5 M-155.1 63.25 L-154.65 63.1 -154.5 63.2 -154.6 63.25 -155.1 63.25" fill="#c5a807" fill-rule="evenodd" stroke="none"/>
    <path d="M-163.1 63.15 L-163.1 62.9 -162.9 62.45 -161.6 61.2 -159.8 59.7 Q-156.7 57.45 -154.5 57.45 -152.35 57.45 -149.45 59.45 -147.1 61.05 -146.7 62.25 L-146.35 62.75 -146.3 62.85 -145.7 63.7 -144.1 66.3 Q-144.1 67.5 -146.2 67.15 -148.1 66.85 -148.8 66.05 -149.0 65.75 -151.7 64.8 -154.3 63.85 -154.6 63.5 L-154.5 63.45 -154.75 63.4 -154.4 63.2 -154.4 63.1 -154.3 63.05 -152.1 63.75 Q-151.1 64.15 -149.45 64.9 L-146.1 66.35 -145.3 66.25 -146.05 64.9 -146.05 64.7 -147.05 63.35 -147.1 63.25 -147.1 63.2 -147.1 63.15 -147.15 63.1 -148.55 61.5 -149.3 60.85 -149.4 60.7 -149.45 60.7 -150.8 59.9 Q-153.1 58.55 -154.1 58.55 L-154.5 58.55 -154.8 58.55 Q-155.5 58.55 -156.1 58.85 -156.95 59.1 -157.6 59.6 L-157.9 59.9 -158.5 60.15 -159.4 60.75 -160.0 61.15 -161.9 62.8 -162.05 62.85 -162.2 63.05 -162.3 63.0 -162.35 63.05 -162.6 63.25 -162.7 63.2 -163.0 63.35 -163.1 63.3 -163.1 63.15 M-155.5 58.45 L-155.2 58.45 -152.45 58.65 -154.5 58.35 -155.5 58.45" fill="#000000" fill-rule="evenodd" stroke="none"/>
    <path d="M149.95 65.5 Q150.2 64.5 151.6 63.55 L151.6 63.4 151.7 63.15 Q151.7 62.4 153.6 60.85 L153.5 60.65 Q154.15 60.1 154.9 59.85 157.1 58.45 158.95 58.45 160.25 58.45 161.95 59.35 L162.1 59.45 Q163.45 59.7 164.35 60.3 165.3 60.9 165.85 62.1 L166.6 63.05 165.55 63.25 162.35 63.1 159.7 63.25 159.7 62.75 159.65 62.7 159.7 62.65 159.4 62.45 158.45 61.65 157.1 61.25 156.9 61.25 155.55 61.05 Q154.15 61.05 151.9 63.4 L150.2 65.35 149.95 65.5 M159.65 63.25 L159.1 63.25 159.0 63.2 159.1 63.1 159.65 63.25" fill="#c5a807" fill-rule="evenodd" stroke="none"/>
    <path d="M159.7 63.25 L159.65 63.25 159.1 63.1 159.0 63.2 157.1 63.9 154.65 64.6 154.4 64.7 154.3 64.75 152.0 65.9 Q150.95 66.45 150.35 66.45 L150.0 66.45 149.9 66.35 149.8 66.3 149.7 66.05 149.7 66.0 149.6 65.95 149.5 65.85 149.95 65.5 150.2 65.35 151.9 63.4 Q154.15 61.05 155.55 61.05 L156.9 61.25 157.1 61.25 158.45 61.65 159.4 62.45 159.7 62.65 159.65 62.7 159.7 62.75 159.7 63.25" fill="#f8dd45" fill-rule="evenodd" stroke="none"/>
    <path d="M159.7 58.45 L159.95 58.45 158.95 58.35 156.9 58.65 159.7 58.45 M159.3 58.55 L159.0 58.55 158.55 58.55 Q157.6 58.55 155.3 59.9 L153.9 60.7 153.75 60.85 153.05 61.5 151.65 63.1 151.6 63.15 151.6 63.2 151.55 63.25 151.5 63.35 150.5 64.7 150.5 64.9 149.8 66.25 150.55 66.35 153.9 64.9 Q155.55 64.15 156.55 63.75 L158.8 63.05 158.9 63.1 158.9 63.2 159.25 63.4 159.0 63.45 159.1 63.5 Q158.8 63.85 156.15 64.8 153.5 65.75 153.3 66.05 152.6 66.85 150.7 67.15 148.6 67.5 148.6 66.3 148.6 65.9 150.15 63.7 L150.75 62.85 150.85 62.75 151.15 62.25 Q151.6 61.05 153.9 59.45 156.85 57.45 158.95 57.45 161.2 57.45 164.3 59.7 L166.1 61.2 167.35 62.45 167.6 62.9 167.6 63.15 167.55 63.3 167.5 63.35 167.15 63.2 167.1 63.25 166.85 63.05 166.75 63.0 166.7 63.05 166.5 62.85 166.4 62.8 164.5 61.15 163.9 60.75 162.95 60.15 162.35 59.9 162.1 59.6 Q161.45 59.1 160.6 58.85 159.95 58.55 159.3 58.55" fill="#000000" fill-rule="evenodd" stroke="none"/>
    <path d="M159.7 40.85 L162.35 41.0 165.55 40.85 166.6 41.05 165.85 41.95 Q165.3 43.15 164.35 43.75 L162.1 44.65 161.95 44.7 Q160.25 45.65 158.95 45.65 157.1 45.65 154.9 44.25 L153.5 43.45 153.6 43.25 Q151.7 41.7 151.7 40.9 L151.6 40.7 151.6 40.5 Q150.2 39.55 149.95 38.6 L150.2 38.7 151.9 40.7 Q154.15 43.05 155.55 43.05 L156.9 42.85 157.1 42.85 Q157.85 42.85 158.45 42.45 L159.4 41.65 159.7 41.45 159.65 41.4 159.7 41.3 159.7 40.85 M159.0 40.9 L159.1 40.85 159.65 40.85 159.1 40.95 159.0 40.9" fill="#c5a807" fill-rule="evenodd" stroke="none"/>
    <path d="M159.7 40.85 L159.7 41.3 159.65 41.4 159.7 41.45 159.4 41.65 158.45 42.45 Q157.85 42.85 157.1 42.85 L156.9 42.85 155.55 43.05 Q154.15 43.05 151.9 40.7 L150.2 38.7 149.95 38.6 149.5 38.25 149.6 38.1 149.7 38.1 149.7 38.05 149.8 37.75 149.9 37.7 150.0 37.65 150.35 37.65 Q150.95 37.65 152.0 38.15 L154.3 39.3 154.4 39.35 154.65 39.5 157.1 40.15 Q158.35 40.5 159.0 40.9 L159.1 40.95 159.65 40.85 159.7 40.85" fill="#f8dd45" fill-rule="evenodd" stroke="none"/>
    <path d="M166.5 41.25 L166.7 41.05 166.75 41.1 166.85 41.05 167.1 40.85 167.15 40.9 167.5 40.7 167.55 40.75 167.6 40.9 167.6 41.2 167.35 41.65 166.1 42.9 164.3 44.35 Q161.2 46.65 158.95 46.65 156.85 46.65 153.9 44.65 151.6 43.05 151.15 41.85 L150.85 41.3 150.75 41.25 150.15 40.35 Q148.6 38.2 148.6 37.8 148.6 36.55 150.7 36.9 152.6 37.25 153.3 38.05 L156.15 39.3 Q158.8 40.25 159.1 40.55 L159.0 40.65 159.25 40.7 Q159.1 40.7 158.9 40.9 L158.9 40.95 158.8 41.05 156.55 40.3 153.9 39.2 150.55 37.7 149.8 37.85 150.5 39.2 150.5 39.35 151.5 40.7 151.55 40.85 151.6 40.9 151.65 40.95 153.05 42.6 153.75 43.25 153.9 43.35 153.9 43.4 155.3 44.2 Q157.6 45.5 158.55 45.5 L159.0 45.5 159.3 45.5 160.6 45.25 162.1 44.5 162.35 44.2 162.95 43.9 163.9 43.3 164.5 42.9 166.4 41.3 166.5 41.25 M158.95 45.7 L159.95 45.65 159.7 45.65 156.9 45.45 158.95 45.7" fill="#000000" fill-rule="evenodd" stroke="none"/>
    <path d="M-153.5 40.7 L-151.65 39.95 -149.15 39.3 -148.9 39.15 -148.8 39.1 -146.5 37.95 Q-145.5 37.45 -144.9 37.45 L-144.5 37.45 -144.4 37.5 -144.3 37.55 -144.2 37.85 -144.2 37.9 -144.1 37.9 -144.05 38.05 -144.5 38.4 -144.7 38.5 -146.4 40.5 Q-148.7 42.85 -150.1 42.85 L-151.45 42.65 -151.6 42.65 Q-152.35 42.65 -152.95 42.25 L-153.9 41.45 -154.2 41.25 -154.15 41.2 -154.25 41.1 -154.25 40.65 -154.05 40.65 -153.65 40.75 -153.5 40.7" fill="#f8dd45" fill-rule="evenodd" stroke="none"/>
    <path d="M-144.5 38.4 Q-144.7 39.35 -146.1 40.3 L-146.1 40.5 -146.2 40.7 Q-146.2 41.5 -148.1 43.05 L-148.0 43.25 -149.45 44.05 Q-151.6 45.45 -153.5 45.45 -154.75 45.45 -156.5 44.5 L-156.65 44.45 Q-157.95 44.15 -158.9 43.55 -159.8 42.95 -160.35 41.75 L-161.1 40.85 -160.1 40.65 -156.9 40.8 -154.25 40.65 -154.25 41.1 -154.15 41.2 -154.2 41.25 -153.9 41.45 -152.95 42.25 Q-152.35 42.65 -151.6 42.65 L-151.45 42.65 -150.1 42.85 Q-148.7 42.85 -146.4 40.5 L-144.7 38.5 -144.5 38.4 M-154.05 40.65 L-153.6 40.65 -153.5 40.7 -153.65 40.75 -154.05 40.65" fill="#c5a807" fill-rule="evenodd" stroke="none"/>
    <path d="M-150.7 39.1 L-147.8 37.85 Q-147.1 37.05 -145.2 36.7 -143.1 36.35 -143.1 37.6 L-144.7 40.15 -145.3 41.05 -145.35 41.1 -145.7 41.65 Q-146.1 42.85 -148.45 44.45 -151.35 46.45 -153.5 46.45 -155.7 46.45 -158.8 44.15 L-160.6 42.7 -161.9 41.45 -162.1 41.0 -162.1 40.7 -162.1 40.55 -162.0 40.5 -161.7 40.7 -161.6 40.65 -161.35 40.85 -161.3 40.9 -161.2 40.85 -161.05 41.05 -160.9 41.1 -159.0 42.7 -158.4 43.1 -157.5 43.7 -156.9 44.0 -156.6 44.3 -155.1 45.05 -153.8 45.3 -153.5 45.3 -153.1 45.3 Q-152.1 45.3 -149.8 44.0 L-148.45 43.2 -148.4 43.15 -148.3 43.05 -147.55 42.4 -146.15 40.75 -146.1 40.7 -146.1 40.65 -146.05 40.5 -145.05 39.15 -145.05 39.0 -144.3 37.65 -145.1 37.5 -148.45 39.0 -151.1 40.1 -153.3 40.85 -153.4 40.75 -153.4 40.7 -153.75 40.5 -153.5 40.45 -153.6 40.35 Q-153.3 40.05 -150.7 39.1 M-154.5 45.45 L-153.5 45.5 -151.45 45.25 -154.2 45.45 -154.5 45.45" fill="#000000" fill-rule="evenodd" stroke="none"/>
  </g>
</svg>
