<?xml version="1.0" encoding="UTF-8" standalone="no"?>
<svg xmlns:ffdec="https://www.free-decompiler.com/flash" xmlns:xlink="http://www.w3.org/1999/xlink" ffdec:objectType="shape" height="43.8px" width="330.7px" xmlns="http://www.w3.org/2000/svg">
  <g transform="matrix(1.0, 0.0, 0.0, 1.0, 163.1, -30.05)">
    <path d="M-155.4 62.9 L-155.95 63.2 -157.9 63.1 -161.1 63.25 -162.1 63.05 -161.35 62.1 Q-160.8 60.9 -159.9 60.3 -158.95 59.7 -157.65 59.45 L-157.5 59.35 Q-155.75 58.45 -154.5 58.45 -152.6 58.45 -150.45 59.85 L-149.0 60.65 -149.0 60.7 -147.0 62.1 Q-145.45 63.3 -144.65 64.25 -144.1 64.45 -143.2 65.1 -141.85 66.1 -141.85 66.7 L-141.85 66.9 Q-140.7 67.5 -138.35 69.15 L-136.7 70.3 -135.1 69.9 -134.3 69.7 -132.2 69.3 -129.55 69.4 -129.3 69.7 -129.0 69.85 -129.1 70.1 -129.3 70.1 -129.4 70.1 -130.8 70.05 Q-132.1 70.05 -132.8 70.5 L-134.5 70.95 -138.55 70.35 -140.05 69.7 -140.65 69.35 -143.85 66.3 -146.7 64.05 -147.45 63.4 Q-149.0 62.05 -150.8 61.7 L-151.0 61.65 -151.3 61.65 -151.9 61.65 Q-153.8 61.65 -154.75 62.25 L-154.9 62.35 -155.5 62.35 -155.65 62.55 -155.4 62.9 M-140.7 71.6 L-141.1 71.45 -141.35 71.3 -140.75 71.55 -140.7 71.6 M-152.8 62.65 L-152.7 62.65 -152.65 62.7 -152.8 62.65" fill="#c5a807" fill-rule="evenodd" stroke="none"/>
    <path d="M-155.4 62.9 L-155.65 62.55 -155.5 62.35 -154.9 62.35 -154.75 62.25 Q-153.8 61.65 -151.9 61.65 L-151.3 61.65 -151.0 61.65 -150.8 61.7 Q-149.0 62.05 -147.45 63.4 L-146.7 64.05 -143.85 66.3 -140.65 69.35 -140.05 69.7 -138.55 70.35 -134.5 70.95 -132.8 70.5 Q-132.1 70.05 -130.8 70.05 L-129.4 70.1 -129.3 70.1 -129.2 70.6 Q-129.2 71.3 -130.5 72.0 L-130.3 71.25 -130.4 71.05 -131.65 71.4 -134.2 71.7 -135.55 71.85 -135.6 71.85 Q-137.4 71.75 -138.95 71.0 -141.8 70.0 -143.7 68.05 L-146.2 65.55 Q-147.8 64.25 -150.0 63.65 L-150.3 63.75 -150.4 64.1 -148.7 65.55 Q-150.65 64.35 -153.65 63.7 L-153.65 63.6 Q-153.65 63.15 -154.0 62.95 L-155.4 62.95 -155.4 62.9 M-141.35 71.3 L-141.5 71.2 Q-142.25 70.8 -142.8 70.25 L-145.45 68.3 -147.8 66.2 -147.5 66.4 -143.8 68.95 -140.75 71.55 -141.35 71.3 M-152.8 62.65 L-152.65 62.7 -152.7 62.65 -152.8 62.65" fill="#f8dd45" fill-rule="evenodd" stroke="none"/>
    <path d="M-130.5 72.0 Q-131.15 73.5 -133.35 73.3 L-136.8 72.7 -137.05 72.5 Q-138.95 72.7 -140.5 71.75 L-140.7 71.6 -140.75 71.55 -143.8 68.95 -147.5 66.4 -147.8 66.2 Q-148.3 65.8 -148.7 65.55 L-150.4 64.1 -150.3 63.75 -150.0 63.65 Q-147.8 64.25 -146.2 65.55 L-143.7 68.05 Q-141.8 70.0 -138.95 71.0 -137.4 71.75 -135.6 71.85 L-135.55 71.85 -134.2 71.7 -131.65 71.4 -130.4 71.05 -130.3 71.25 -130.5 72.0" fill="#fdf3bf" fill-rule="evenodd" stroke="none"/>
    <path d="M-141.2 66.1 L-140.85 66.65 -139.5 68.0 -139.35 68.1 -139.3 68.05 -137.05 69.45 -135.6 69.45 -134.35 69.4 -133.2 69.05 -133.1 69.1 -131.9 68.65 -131.9 68.75 -133.0 69.5 -134.3 70.0 -134.5 70.2 -136.0 70.25 Q-137.35 70.25 -138.5 69.7 -139.45 69.3 -139.6 68.85 L-141.25 67.45 -141.3 67.35 -143.2 65.5 -146.45 62.6 -148.4 61.0 -148.35 60.95 Q-148.85 60.8 -149.35 60.45 -150.5 59.6 -150.8 59.45 -152.45 58.65 -153.9 58.85 L-155.7 58.7 -156.1 58.85 Q-156.95 59.1 -157.6 59.6 L-157.9 59.9 -158.5 60.15 -159.4 60.75 -160.0 61.15 -161.9 62.8 -162.05 62.85 -162.2 63.05 -162.3 63.0 -162.35 63.05 -162.6 63.25 -162.7 63.2 -163.0 63.35 -163.1 63.3 -163.1 62.9 -162.9 62.45 -161.6 61.2 -159.8 59.7 Q-156.7 57.45 -154.5 57.45 -153.35 57.45 -152.05 57.95 L-151.7 58.05 -151.6 58.05 Q-150.95 58.05 -150.25 58.45 L-149.6 58.85 Q-148.5 59.3 -146.9 60.9 -144.9 61.85 -141.2 66.1 M-139.45 73.0 L-139.55 72.9 -140.15 72.7 -140.8 72.5 -142.1 71.75 Q-143.7 70.7 -144.1 69.9 L-145.4 69.0 -148.25 66.5 -148.8 66.05 Q-149.0 65.75 -151.7 64.8 -154.3 63.85 -154.6 63.5 L-154.5 63.45 -154.75 63.4 -154.4 63.2 -154.4 63.1 -154.3 63.05 -152.1 63.75 Q-151.1 64.15 -149.45 64.9 L-148.15 65.45 -146.45 66.8 -145.8 67.2 -146.1 67.15 -145.0 68.1 -142.7 69.75 -142.65 69.9 -142.15 70.55 Q-141.05 71.15 -140.5 71.5 L-139.8 72.0 -139.75 72.0 -139.4 71.95 -139.15 72.1 -139.0 72.1 -136.1 72.7 -136.0 72.7 -134.95 72.8 -134.25 72.75 -134.05 72.8 -133.65 72.75 -133.05 72.65 -132.05 72.65 -130.9 71.85 Q-129.2 70.45 -129.2 69.65 -129.2 69.1 -129.4 69.05 -129.4 68.9 -128.9 68.9 L-128.5 68.95 -128.45 69.05 -128.4 69.6 Q-128.4 72.15 -131.95 73.3 -132.5 73.6 -133.15 73.75 L-133.9 73.85 Q-134.0 73.7 -134.2 73.7 L-134.3 73.65 -134.85 73.65 -135.3 73.7 -138.0 73.4 -139.25 73.1 -139.45 73.0" fill="#000000" fill-rule="evenodd" stroke="none"/>
    <path d="M133.8 70.1 L133.6 70.1 133.5 69.85 Q133.5 69.75 133.8 69.7 L134.05 69.4 136.7 69.3 138.8 69.7 139.6 69.9 141.15 70.3 142.85 69.15 Q145.2 67.5 146.3 66.9 L146.3 66.7 Q146.3 66.1 147.7 65.1 L149.1 64.25 151.5 62.1 Q152.55 61.25 153.5 60.7 L153.5 60.65 Q154.15 60.1 154.9 59.85 157.1 58.45 158.95 58.45 160.25 58.45 161.95 59.35 L162.1 59.45 Q163.45 59.7 164.35 60.3 165.3 60.9 165.85 62.1 L166.6 63.05 165.55 63.25 162.35 63.1 160.45 63.2 159.9 62.9 160.1 62.55 160.0 62.35 159.4 62.35 159.25 62.25 Q158.3 61.65 156.35 61.65 L155.8 61.65 155.5 61.65 155.3 61.7 Q153.5 62.05 151.9 63.4 L151.2 64.05 148.3 66.3 145.1 69.35 144.5 69.7 143.05 70.35 Q141.7 70.95 138.95 70.95 138.0 70.95 137.3 70.5 136.55 70.05 135.3 70.05 L133.9 70.1 133.8 70.1 M145.75 71.35 L145.55 71.45 145.4 71.5 145.75 71.35 M157.2 62.65 L157.3 62.65 157.1 62.7 157.2 62.65" fill="#c5a807" fill-rule="evenodd" stroke="none"/>
    <path d="M159.9 62.9 L159.9 62.95 158.5 62.95 Q158.1 63.15 158.1 63.6 L158.1 63.7 Q155.1 64.35 153.2 65.55 L149.9 68.3 147.3 70.25 146.0 71.2 145.75 71.35 145.4 71.5 145.35 71.55 145.25 71.55 148.3 68.95 151.95 66.4 154.9 64.1 154.75 63.75 154.5 63.65 Q152.3 64.25 150.7 65.55 L148.15 68.05 Q146.3 70.0 143.45 71.0 141.9 71.75 140.1 71.85 L140.05 71.85 138.7 71.7 136.1 71.4 134.9 71.05 134.8 71.25 135.0 72.0 Q133.7 71.3 133.7 70.6 L133.8 70.1 133.9 70.1 135.3 70.05 Q136.55 70.05 137.3 70.5 138.0 70.95 138.95 70.95 141.7 70.95 143.05 70.35 L144.5 69.7 145.1 69.35 148.3 66.3 151.2 64.05 151.9 63.4 Q153.5 62.05 155.3 61.7 L155.5 61.65 155.8 61.65 156.35 61.65 Q158.3 61.65 159.25 62.25 L159.4 62.35 160.0 62.35 160.1 62.55 159.9 62.9 M157.2 62.65 L157.1 62.7 157.3 62.65 157.2 62.65" fill="#f8dd45" fill-rule="evenodd" stroke="none"/>
    <path d="M145.25 71.55 L145.15 71.6 145.0 71.75 Q143.45 72.7 141.5 72.5 L141.3 72.7 137.85 73.3 Q135.65 73.5 135.0 72.0 L134.8 71.25 134.9 71.05 136.1 71.4 138.7 71.7 140.05 71.85 140.1 71.85 Q141.9 71.75 143.45 71.0 146.3 70.0 148.15 68.05 L150.7 65.55 Q152.3 64.25 154.5 63.65 L154.75 63.75 154.9 64.1 151.95 66.4 148.3 68.95 145.25 71.55" fill="#fdf3bf" fill-rule="evenodd" stroke="none"/>
    <path d="M166.1 61.2 L167.35 62.45 167.6 62.9 167.6 63.15 167.55 63.3 167.5 63.35 167.15 63.2 167.1 63.25 166.85 63.05 166.75 63.0 166.7 63.05 166.5 62.85 166.4 62.8 164.5 61.15 163.9 60.75 162.95 60.15 162.35 59.9 162.1 59.6 Q161.45 59.1 160.6 58.85 L160.15 58.7 158.4 58.85 Q156.9 58.65 155.3 59.45 L153.85 60.45 152.85 60.95 152.9 61.0 Q151.5 61.9 150.9 62.6 L147.7 65.5 145.8 67.35 145.7 67.45 144.1 68.85 143.0 69.7 Q141.85 70.25 140.5 70.25 L139.0 70.2 138.75 70.0 137.5 69.5 136.4 68.75 136.4 68.65 137.6 69.1 137.7 69.05 138.85 69.4 140.1 69.45 141.5 69.45 143.8 68.05 143.85 68.1 143.95 68.0 145.3 66.65 145.7 66.1 Q149.35 61.85 151.4 60.9 152.95 59.3 154.1 58.85 L154.7 58.45 Q155.45 58.05 156.1 58.05 L156.2 58.05 156.5 57.95 Q157.85 57.45 158.95 57.45 161.2 57.45 164.3 59.7 L166.1 61.2 M150.3 67.2 L150.9 66.8 152.65 65.45 153.9 64.9 Q155.55 64.15 156.55 63.75 L158.8 63.05 158.9 63.1 158.9 63.2 159.25 63.4 159.0 63.45 159.1 63.5 Q158.8 63.85 156.15 64.8 153.5 65.75 153.3 66.05 L152.7 66.5 149.9 69.0 148.6 69.9 Q148.2 70.7 146.55 71.75 L145.3 72.5 144.65 72.7 144.05 72.9 143.9 73.0 143.7 73.1 142.5 73.4 139.75 73.7 139.3 73.65 138.75 73.65 138.7 73.7 Q138.5 73.7 138.35 73.85 L137.65 73.75 136.45 73.3 Q132.9 72.15 132.9 69.6 L132.9 69.05 133.0 68.95 133.35 68.9 Q133.9 68.9 133.9 69.05 133.7 69.1 133.7 69.65 133.7 70.45 135.4 71.85 L136.5 72.65 137.5 72.65 138.1 72.75 138.5 72.8 138.7 72.75 139.45 72.8 140.5 72.7 140.6 72.7 143.5 72.1 143.65 72.1 143.9 71.95 144.25 72.0 144.3 72.0 144.95 71.5 Q145.5 71.15 146.65 70.55 L147.1 69.9 147.15 69.75 149.5 68.1 150.55 67.15 150.3 67.2" fill="#000000" fill-rule="evenodd" stroke="none"/>
    <path d="M159.9 41.2 L160.45 40.9 162.35 41.0 165.55 40.85 166.6 41.05 165.85 41.95 Q165.3 43.15 164.35 43.75 L162.1 44.65 161.95 44.7 Q160.25 45.65 158.95 45.65 157.1 45.65 154.9 44.25 L153.5 43.45 153.5 43.4 151.5 41.95 149.1 39.85 147.7 38.95 Q146.3 37.95 146.3 37.35 L146.3 37.2 142.85 34.9 141.15 33.75 139.6 34.15 138.8 34.35 Q138.1 34.75 136.7 34.75 L134.05 34.7 133.8 34.4 133.5 34.25 133.6 33.95 133.8 33.95 133.9 34.0 135.3 34.05 137.3 33.6 Q138.0 33.1 138.95 33.1 141.7 33.1 143.05 33.7 L144.5 34.35 145.1 34.7 148.3 37.8 151.2 40.05 151.9 40.7 Q153.5 42.05 155.3 42.35 L155.5 42.45 155.8 42.45 156.35 42.45 Q158.3 42.45 159.25 41.85 L159.4 41.7 160.0 41.7 160.1 41.5 159.9 41.2 M157.2 41.45 L157.1 41.4 157.3 41.45 157.2 41.45" fill="#c5a807" fill-rule="evenodd" stroke="none"/>
    <path d="M135.0 32.1 Q135.65 30.6 137.85 30.75 L141.3 31.4 141.5 31.55 Q143.45 31.4 145.0 32.3 L145.15 32.5 145.25 32.5 145.3 32.55 148.3 35.1 151.95 37.7 154.9 39.95 154.75 40.3 154.5 40.45 Q152.3 39.85 150.7 38.5 L148.15 36.05 Q146.3 34.1 143.45 33.1 141.9 32.3 140.1 32.25 L138.7 32.35 136.1 32.7 134.9 33.05 134.8 32.85 135.0 32.1" fill="#fdf3bf" fill-rule="evenodd" stroke="none"/>
    <path d="M159.9 41.2 L160.1 41.5 160.0 41.7 159.4 41.7 159.25 41.85 Q158.3 42.45 156.35 42.45 L155.8 42.45 155.5 42.45 155.3 42.35 Q153.5 42.05 151.9 40.7 L151.2 40.05 148.3 37.8 145.1 34.7 144.5 34.35 143.05 33.7 Q141.7 33.1 138.95 33.1 138.0 33.1 137.3 33.6 L135.3 34.05 133.9 34.0 133.8 33.95 133.7 33.5 Q133.7 32.75 135.0 32.1 L134.8 32.85 134.9 33.05 136.1 32.7 138.7 32.35 140.1 32.25 Q141.9 32.3 143.45 33.1 146.3 34.1 148.15 36.05 L150.7 38.5 Q152.3 39.85 154.5 40.45 L154.75 40.3 154.9 39.95 151.95 37.7 148.3 35.1 145.3 32.55 145.25 32.5 145.45 32.65 145.5 32.65 145.55 32.65 146.0 32.9 147.3 33.85 149.9 35.8 Q152.0 37.8 153.2 38.5 155.1 39.7 158.1 40.4 L158.1 40.5 Q158.1 40.9 158.5 41.1 L159.9 41.1 159.9 41.2 M157.2 41.45 L157.3 41.45 157.1 41.4 157.2 41.45" fill="#f8dd45" fill-rule="evenodd" stroke="none"/>
    <path d="M167.1 40.85 L167.15 40.9 167.5 40.7 167.55 40.75 167.6 40.9 167.6 41.2 167.35 41.65 166.1 42.9 164.3 44.35 Q161.2 46.65 158.95 46.65 157.85 46.65 156.5 46.1 L156.2 46.05 156.1 46.05 Q155.45 46.05 154.7 45.65 L154.1 45.25 Q152.95 44.8 151.4 43.2 149.35 42.25 145.7 37.95 L145.3 37.45 143.95 36.1 143.85 36.0 143.8 36.05 141.5 34.65 140.1 34.65 138.85 34.7 137.7 35.05 137.6 35.0 136.4 35.45 136.4 35.3 137.5 34.55 Q138.2 34.15 138.75 34.1 L139.0 33.9 140.5 33.85 Q141.85 33.85 143.0 34.35 143.9 34.75 144.1 35.25 L145.7 36.65 145.8 36.7 147.7 38.55 150.9 41.5 152.9 43.1 152.85 43.1 153.85 43.65 155.3 44.65 Q156.9 45.45 158.4 45.25 L160.15 45.4 160.6 45.25 162.1 44.5 162.35 44.2 162.95 43.9 163.9 43.3 164.5 42.9 166.4 41.3 166.5 41.25 166.7 41.05 166.75 41.1 166.85 41.05 167.1 40.85 M139.3 30.45 L139.75 30.4 142.5 30.7 143.7 31.0 143.9 31.1 144.05 31.15 144.65 31.4 145.3 31.6 146.55 32.3 Q148.2 33.4 148.6 34.15 L149.9 35.1 152.7 37.6 153.3 38.05 156.15 39.3 Q158.8 40.25 159.1 40.55 L159.0 40.65 159.25 40.7 Q159.1 40.7 158.9 40.9 L158.9 40.95 158.8 41.05 156.55 40.3 153.9 39.2 152.65 38.65 150.9 37.3 150.3 36.9 150.55 36.9 149.5 36.0 147.15 34.3 147.1 34.2 146.65 33.5 144.95 32.55 144.3 32.1 144.25 32.1 143.9 32.1 143.65 32.0 143.5 32.0 Q142.95 31.7 140.6 31.35 L140.5 31.35 138.5 31.3 138.1 31.3 137.5 31.45 136.5 31.45 135.4 32.25 Q133.7 33.65 133.7 34.45 133.7 34.95 133.9 35.05 L133.35 35.15 133.0 35.1 132.9 35.05 132.9 34.5 Q132.9 31.9 136.45 30.75 L137.65 30.3 138.35 30.25 138.7 30.4 138.75 30.45 139.3 30.45" fill="#000000" fill-rule="evenodd" stroke="none"/>
    <path d="M-154.4 41.0 L-154.4 40.9 -153.0 40.9 Q-152.65 40.7 -152.65 40.3 L-152.65 40.2 Q-149.65 39.5 -147.7 38.3 -146.5 37.6 -144.45 35.6 L-141.8 33.65 -140.5 32.7 -139.8 32.35 -139.75 32.3 -139.75 32.35 -142.8 34.9 Q-143.1 35.2 -146.5 37.5 L-149.4 39.75 -149.3 40.1 -149.0 40.25 Q-146.8 39.65 -145.2 38.3 L-142.7 35.85 Q-140.8 33.9 -137.95 32.9 -136.4 32.1 -134.6 32.05 L-133.2 32.15 Q-131.3 32.15 -130.65 32.5 L-129.4 32.85 -129.3 32.65 -129.5 31.9 Q-128.2 32.55 -128.2 33.3 L-128.3 33.75 -128.4 33.8 -129.8 33.85 -131.8 33.4 Q-132.5 32.9 -133.5 32.9 L-137.55 33.5 -139.05 34.15 -139.65 34.5 -142.85 37.6 -145.7 39.85 -146.45 40.5 Q-148.0 41.85 -149.8 42.15 L-150.0 42.25 -150.3 42.25 -150.9 42.25 Q-152.8 42.25 -153.75 41.65 L-153.9 41.5 -154.5 41.5 -154.65 41.3 -154.4 41.0 M-151.7 41.25 L-151.6 41.2 -151.8 41.25 -151.7 41.25" fill="#f8dd45" fill-rule="evenodd" stroke="none"/>
    <path d="M-154.4 41.0 L-154.65 41.3 -154.5 41.5 -153.9 41.5 -153.75 41.65 Q-152.8 42.25 -150.9 42.25 L-150.3 42.25 -150.0 42.25 -149.8 42.15 Q-148.0 41.85 -146.45 40.5 L-145.7 39.85 -142.85 37.6 -139.65 34.5 -139.05 34.15 -137.55 33.5 -133.5 32.9 Q-132.5 32.9 -131.8 33.4 L-129.8 33.85 -128.4 33.8 -128.3 33.75 -128.1 33.75 -128.0 34.05 -128.3 34.2 -128.55 34.5 -131.2 34.55 Q-132.65 34.55 -133.3 34.15 L-134.1 33.95 -135.7 33.55 -137.35 34.7 -140.85 37.0 -140.85 37.15 Q-140.85 37.75 -142.2 38.75 L-143.65 39.65 -146.0 41.75 -148.0 43.2 -148.0 43.25 -149.45 44.05 Q-151.6 45.45 -153.5 45.45 -154.75 45.45 -156.5 44.5 L-156.65 44.45 Q-157.95 44.15 -158.9 43.55 -159.8 42.95 -160.35 41.75 L-161.1 40.85 -160.1 40.65 -156.9 40.8 -154.95 40.7 -154.4 41.0 M-139.8 32.35 L-140.5 32.7 -140.1 32.45 -139.8 32.35 M-151.7 41.25 L-151.8 41.25 -151.6 41.2 -151.7 41.25" fill="#c5a807" fill-rule="evenodd" stroke="none"/>
    <path d="M-129.5 31.9 L-129.3 32.65 -129.4 32.85 -130.65 32.5 Q-131.3 32.15 -133.2 32.15 L-134.6 32.05 Q-136.4 32.1 -137.95 32.9 -140.8 33.9 -142.7 35.85 L-145.2 38.3 Q-146.8 39.65 -149.0 40.25 L-149.3 40.1 -149.4 39.75 -146.5 37.5 Q-143.1 35.2 -142.8 34.9 L-139.75 32.35 -139.75 32.3 -139.7 32.3 -139.5 32.1 Q-137.95 31.2 -136.05 31.35 L-135.8 31.2 -132.35 30.55 Q-130.15 30.4 -129.5 31.9" fill="#fdf3bf" fill-rule="evenodd" stroke="none"/>
    <path d="M-144.0 35.8 L-145.1 36.7 -144.8 36.7 -145.45 37.1 Q-146.3 37.7 -147.15 38.45 L-148.45 39.0 -151.1 40.1 -153.3 40.85 -153.4 40.75 -153.4 40.7 -153.75 40.5 -153.5 40.45 -153.6 40.35 Q-153.3 40.05 -150.7 39.1 L-147.8 37.85 -147.25 37.4 Q-146.55 36.5 -144.4 34.9 -143.7 34.35 -143.1 33.95 -142.7 33.2 -141.1 32.1 L-139.8 31.4 -139.15 31.2 -138.55 30.95 -138.45 30.9 -138.25 30.8 -137.0 30.5 -134.3 30.2 -133.85 30.25 -133.3 30.25 -133.2 30.2 -132.9 30.05 -132.15 30.1 -130.95 30.55 Q-127.4 31.7 -127.4 34.3 L-127.45 34.85 -127.5 34.9 -127.9 34.95 -128.4 34.85 Q-128.2 34.75 -128.2 34.25 -128.2 33.45 -129.9 32.05 L-131.05 31.25 -132.05 31.25 -132.65 31.1 -133.05 31.1 -135.1 31.15 -138.0 31.8 -138.15 31.8 -138.4 31.9 -138.75 31.9 -138.8 31.9 -139.5 32.35 -141.15 33.3 -141.65 34.0 -141.7 34.1 -144.0 35.8 M-161.05 41.05 L-160.9 41.1 -159.0 42.7 -158.4 43.1 -157.5 43.7 -156.9 44.0 -156.6 44.3 -155.1 45.05 -154.7 45.2 -152.9 45.05 Q-151.45 45.25 -149.8 44.45 L-148.35 43.45 -147.35 42.9 -147.4 42.9 Q-146.05 42.0 -145.45 41.3 L-142.2 38.35 -140.3 36.5 -140.25 36.45 -138.6 35.05 Q-138.45 34.55 -137.5 34.15 -136.35 33.65 -135.0 33.65 L-133.5 33.7 -133.3 33.9 Q-132.7 33.95 -132.0 34.35 -131.15 34.8 -130.9 35.1 L-130.9 35.25 -132.1 34.8 -132.2 34.85 -133.35 34.5 -134.6 34.45 -136.05 34.45 -138.3 35.85 -138.35 35.8 -138.5 35.9 -139.85 37.25 -140.2 37.75 Q-143.9 42.05 -145.9 43.0 -147.5 44.6 -148.6 45.05 L-149.25 45.45 -150.6 45.85 -150.7 45.85 -151.05 45.9 Q-152.35 46.45 -153.5 46.45 -155.7 46.45 -158.8 44.15 L-160.6 42.7 -161.9 41.45 -162.1 41.0 -162.1 40.7 -162.1 40.55 -162.0 40.5 -161.7 40.7 -161.6 40.65 -161.35 40.85 -161.3 40.9 -161.2 40.85 -161.05 41.05" fill="#000000" fill-rule="evenodd" stroke="none"/>
  </g>
</svg>
