<?xml version="1.0" encoding="UTF-8" standalone="no"?>
<svg xmlns:ffdec="https://www.free-decompiler.com/flash" xmlns:xlink="http://www.w3.org/1999/xlink" ffdec:objectType="shape" height="47.5px" width="48.0px" xmlns="http://www.w3.org/2000/svg">
  <g transform="matrix(1.0, 0.0, 0.0, 1.0, 0.0, -0.5)">
    <path d="M23.3 36.85 L23.25 37.05 21.45 40.2 Q19.85 43.15 19.85 44.25 L20.5 45.1 21.4 43.75 21.85 43.85 27.65 34.5 29.4 31.6 29.1 32.55 29.35 33.2 29.1 33.9 29.15 34.35 29.35 34.5 29.85 34.6 37.05 22.65 36.9 23.1 36.55 24.35 36.35 24.65 36.35 24.95 36.1 26.3 35.6 27.4 35.65 27.75 35.85 28.0 36.35 28.1 36.65 27.85 36.75 27.85 37.25 27.05 37.55 26.7 37.8 26.25 38.65 24.5 Q39.8 23.2 41.2 20.15 L42.75 16.4 42.8 16.65 42.35 18.3 42.4 18.6 42.35 18.9 42.55 19.45 43.0 19.6 43.15 19.4 43.5 19.6 43.9 19.4 44.65 15.55 Q46.1 11.65 47.75 5.1 L47.8 5.25 48.0 6.6 48.0 6.65 Q44.05 22.1 42.85 22.1 L42.25 21.85 42.0 21.5 38.7 26.7 Q36.15 30.35 35.85 30.35 L35.15 30.25 Q35.05 29.2 35.35 28.15 L35.25 28.0 32.5 32.9 Q30.45 36.6 29.5 36.6 28.75 36.6 28.55 35.8 L28.5 34.75 Q28.0 35.4 24.75 41.6 22.7 45.5 19.6 46.75 L18.95 48.0 16.85 48.0 19.2 43.35 20.45 40.7 21.45 39.35 23.1 37.05 23.3 36.85 M44.2 0.7 L39.0 2.2 34.15 3.75 34.05 3.75 33.05 4.2 Q32.9 4.3 32.85 4.35 L32.6 4.9 32.65 5.35 32.85 5.5 33.5 5.6 33.55 5.6 30.0 7.25 Q26.75 8.65 25.3 9.65 L24.4 9.7 24.15 9.75 Q23.35 9.95 23.35 10.4 L23.35 10.7 23.35 10.8 23.4 11.5 24.5 11.6 24.6 11.6 24.75 11.6 26.3 11.2 21.85 13.2 Q15.35 16.25 15.35 17.05 15.35 17.7 16.0 17.85 L17.0 17.5 18.45 17.15 20.8 16.75 20.75 16.85 20.5 16.9 12.5 19.75 Q5.85 22.05 5.85 22.65 L5.9 23.0 6.1 23.25 6.6 23.35 15.4 21.5 15.15 21.65 14.85 21.75 11.85 22.85 11.0 23.2 4.8 25.45 Q1.85 26.6 0.0 27.5 L0.0 26.6 1.2 26.05 7.5 23.4 6.75 23.6 4.5 23.6 Q3.85 22.95 3.85 22.4 3.85 21.0 7.05 20.25 12.55 18.9 14.25 18.15 12.75 17.75 12.35 17.15 L17.0 14.3 21.5 11.9 20.1 11.1 Q20.95 9.25 24.9 7.75 L31.5 5.4 30.6 4.65 Q30.6 3.35 36.6 1.9 L43.65 0.5 43.7 0.55 44.2 0.7 M0.0 29.95 L2.4 29.1 4.6 28.35 4.6 28.4 4.6 28.45 Q2.35 29.7 1.65 30.4 L1.05 30.7 0.0 31.25 0.0 29.95" fill="#91f4e8" fill-opacity="0.49803922" fill-rule="evenodd" stroke="none"/>
    <path d="M19.05 20.5 L23.65 16.9 Q28.85 11.45 33.25 8.85 36.1 7.15 38.6 5.8 L38.6 6.0 Q38.6 6.35 33.8 10.0 L24.5 16.6 19.05 20.5 M44.4 3.05 L44.8 2.85 44.35 5.85 Q43.55 6.0 43.0 6.65 L43.6 5.05 43.6 5.0 43.8 4.15 44.2 3.6 44.4 3.05 M37.35 15.75 L36.5 17.6 33.85 20.75 33.25 21.4 34.8 19.05 37.35 15.75 M31.45 23.6 L31.35 23.75 28.95 27.7 Q27.2 30.35 26.65 30.35 L26.35 30.1 26.1 29.85 26.7 28.8 Q30.1 23.1 31.0 23.1 L31.45 23.6 M23.65 35.0 L24.1 34.35 24.1 34.5 23.95 35.0 23.65 35.0" fill="#bff9f1" fill-rule="evenodd" stroke="none"/>
    <path d="M45.1 1.15 L45.35 1.35 45.8 1.7 46.35 2.3 46.35 2.5 Q46.35 4.85 44.8 9.65 43.0 15.05 41.5 14.5 L40.0 17.85 Q39.05 19.8 38.0 20.85 37.35 20.7 37.35 20.05 L37.8 18.65 38.35 17.35 38.25 17.25 Q33.95 24.25 31.5 29.35 30.8 29.15 30.8 28.5 L31.1 27.35 31.0 27.25 23.85 38.6 23.35 38.5 23.15 38.3 23.1 37.8 23.25 37.05 23.3 36.85 23.35 36.75 21.8 37.85 19.85 40.95 Q16.8 45.65 15.15 45.85 L14.65 46.85 14.5 47.15 14.2 48.0 11.65 48.0 Q11.95 47.1 13.15 45.35 L10.8 45.0 6.75 45.6 5.9 45.5 5.85 44.8 Q5.85 43.6 10.85 43.6 L13.85 44.05 13.95 44.1 16.25 41.05 16.7 40.45 20.0 36.2 Q22.0 33.7 23.8 32.3 25.55 29.85 26.0 29.85 L26.1 29.85 26.35 30.1 26.65 30.35 Q27.2 30.35 28.95 27.7 L31.35 23.75 31.45 23.6 33.25 21.4 33.85 20.75 36.5 17.6 37.35 15.75 38.0 13.95 Q39.0 11.65 40.5 11.0 41.4 10.65 42.15 8.3 42.5 7.25 43.0 6.65 43.55 6.0 44.35 5.85 L44.8 2.85 44.4 3.05 Q44.1 3.15 43.75 3.3 41.35 4.3 38.6 5.8 36.1 7.15 33.25 8.85 28.85 11.45 23.65 16.9 L19.05 20.5 17.25 21.85 16.75 22.25 17.0 22.2 17.05 22.4 14.4 24.9 12.85 26.3 11.8 27.4 11.7 27.5 9.05 30.45 8.4 31.0 5.95 32.9 4.7 33.95 5.1 36.75 5.6 40.55 5.35 41.2 5.1 41.8 5.0 42.5 4.35 42.6 3.65 42.5 3.75 41.55 3.6 41.3 3.5 41.35 Q2.55 40.75 2.7 39.65 L2.85 39.25 Q2.35 37.45 2.2 34.9 L1.9 35.1 0.15 36.5 0.0 36.5 0.0 33.3 0.8 32.95 Q1.85 32.15 1.85 31.2 1.85 31.0 3.25 30.5 L3.5 30.45 3.5 30.4 Q4.4 29.75 5.45 29.45 L9.15 26.65 8.5 26.85 6.5 26.85 Q5.85 26.7 5.85 26.0 7.35 25.05 11.5 23.5 15.2 22.1 15.9 21.4 L16.1 21.3 15.35 21.35 Q14.35 21.35 14.35 20.45 L16.6 19.45 23.0 15.85 23.35 15.5 Q22.05 15.45 21.7 15.05 L21.6 14.55 Q21.6 14.4 24.7 13.05 28.25 11.5 29.6 10.35 L29.85 10.0 Q28.7 9.7 28.6 9.35 29.15 8.8 32.9 7.35 35.2 6.45 35.85 5.6 L35.35 5.5 35.15 5.25 35.1 4.9 Q35.1 4.45 35.9 4.25 L36.65 4.15 Q37.35 3.65 39.0 3.1 L44.85 1.5 45.1 1.15 M23.65 35.0 L23.95 35.0 24.1 34.5 24.1 34.35 23.65 35.0" fill="#ffffff" fill-rule="evenodd" stroke="none"/>
    <path d="M45.1 1.15 L44.85 1.5 39.0 3.1 Q37.35 3.65 36.65 4.15 L35.9 4.25 Q35.1 4.45 35.1 4.9 L35.15 5.25 35.35 5.5 35.85 5.6 Q35.2 6.45 32.9 7.35 29.15 8.8 28.6 9.35 28.7 9.7 29.85 10.0 L29.6 10.35 Q28.25 11.5 24.7 13.05 21.6 14.4 21.6 14.55 L21.7 15.05 Q22.05 15.45 23.35 15.5 L23.0 15.85 16.6 19.45 14.35 20.45 Q14.35 21.35 15.35 21.35 L16.1 21.3 15.9 21.4 Q15.2 22.1 11.5 23.5 7.35 25.05 5.85 26.0 5.85 26.7 6.5 26.85 L8.5 26.85 9.15 26.65 5.45 29.45 Q4.4 29.75 3.5 30.4 L3.5 30.45 3.25 30.5 Q1.85 31.0 1.85 31.2 1.85 32.15 0.8 32.95 L0.0 33.3 0.0 31.25 1.05 30.7 1.65 30.4 Q2.35 29.7 4.6 28.45 L5.2 28.1 4.6 28.35 2.4 29.1 0.0 29.95 0.0 27.5 Q1.85 26.6 4.8 25.45 L11.0 23.2 11.85 22.85 14.85 21.75 15.15 21.65 15.4 21.5 6.6 23.35 6.1 23.25 5.9 23.0 5.85 22.65 Q5.85 22.05 12.5 19.75 L20.5 16.9 20.75 16.85 21.0 16.75 20.8 16.75 18.45 17.15 17.0 17.5 16.0 17.85 Q15.35 17.7 15.35 17.05 15.35 16.25 21.85 13.2 L26.3 11.2 24.75 11.6 24.6 11.6 24.5 11.6 23.4 11.5 23.35 10.8 23.35 10.7 23.35 10.4 Q23.35 9.95 24.15 9.75 L24.4 9.7 25.3 9.65 Q26.75 8.65 30.0 7.25 L33.55 5.6 33.5 5.6 32.85 5.5 32.65 5.35 32.6 4.9 32.85 4.35 Q32.9 4.3 33.05 4.2 L34.05 3.75 34.15 3.75 39.0 2.2 44.2 0.7 45.1 1.15 M0.0 36.5 L0.15 36.5 1.9 35.1 2.2 34.9 Q2.35 37.45 2.85 39.25 L2.7 39.65 Q2.55 40.75 3.5 41.35 L3.6 41.3 3.75 41.55 3.65 42.5 4.35 42.6 5.0 42.5 5.1 41.8 5.35 41.2 5.6 40.55 5.1 36.75 4.7 33.95 5.95 32.9 5.95 33.0 5.75 33.55 6.3 34.4 Q6.85 35.2 6.85 35.85 9.9 37.05 8.65 40.0 L9.05 39.45 Q9.35 39.1 9.75 39.1 L10.25 39.3 10.35 39.6 11.25 38.85 12.5 40.4 Q13.2 41.25 13.4 42.1 L13.7 41.1 Q14.0 40.5 14.75 40.35 L16.25 41.05 13.95 44.1 13.85 44.05 10.85 43.6 Q5.85 43.6 5.85 44.8 L5.9 45.5 6.75 45.6 10.8 45.0 13.15 45.35 Q11.95 47.1 11.65 48.0 L7.9 48.0 7.6 48.0 5.45 47.8 5.35 47.75 4.8 47.65 3.35 47.1 3.5 46.75 3.4 46.65 3.25 46.95 3.2 47.0 2.8 46.8 2.45 46.55 1.7 45.85 1.4 45.5 0.65 44.15 Q0.2 43.05 0.05 41.7 L0.0 40.6 0.0 40.5 0.0 36.5 M9.05 30.45 L11.7 27.5 11.8 27.4 12.1 27.65 Q12.1 28.75 9.05 30.45 M12.85 26.3 L14.4 24.9 17.05 22.4 17.0 22.2 16.75 22.25 17.25 21.85 17.6 22.25 16.0 23.5 16.1 23.9 Q16.1 24.7 14.0 25.75 L12.85 26.3 M14.2 48.0 L14.5 47.15 14.65 46.85 15.15 45.85 Q16.8 45.65 19.85 40.95 L21.8 37.85 23.35 36.75 23.3 36.85 23.1 37.05 21.45 39.35 20.45 40.7 19.2 43.35 16.85 48.0 14.2 48.0 M23.25 37.05 L23.1 37.8 23.15 38.3 23.35 38.5 23.85 38.6 31.0 27.25 31.1 27.35 30.8 28.5 Q30.8 29.15 31.5 29.35 33.95 24.25 38.25 17.25 L38.35 17.35 37.8 18.65 37.35 20.05 Q37.35 20.7 38.0 20.85 39.05 19.8 40.0 17.85 L41.5 14.5 Q43.0 15.05 44.8 9.65 46.35 4.85 46.35 2.5 L46.35 2.3 46.85 2.85 46.85 2.9 47.0 3.1 47.45 4.1 47.7 4.9 47.75 5.1 Q46.1 11.65 44.65 15.55 L43.9 19.4 43.5 19.6 43.15 19.4 43.0 19.6 42.55 19.45 42.35 18.9 42.4 18.6 42.35 18.3 42.8 16.65 42.75 16.4 41.2 20.15 Q39.8 23.2 38.65 24.5 L37.8 26.25 37.55 26.7 37.25 27.05 36.75 27.85 36.65 27.85 36.35 28.1 35.85 28.0 35.65 27.75 35.6 27.4 36.1 26.3 36.35 24.95 36.35 24.65 36.55 24.35 36.9 23.1 37.05 22.65 29.85 34.6 29.35 34.5 29.15 34.35 29.1 33.9 29.35 33.2 29.1 32.55 29.4 31.6 27.65 34.5 21.85 43.85 21.4 43.75 20.5 45.1 19.85 44.25 Q19.85 43.15 21.45 40.2 L23.25 37.05" fill="#bff9f1" fill-opacity="0.7490196" fill-rule="evenodd" stroke="none"/>
    <path d="M30.0 23.35 Q30.0 22.8 31.0 21.8 L32.35 20.5 32.45 20.5 32.5 20.7 32.35 21.1 32.15 21.45 31.2 22.5 30.05 23.5 30.0 23.35" fill="#cccccc" fill-rule="evenodd" stroke="none"/>
    <path d="M0.0 37.25 Q1.35 36.05 3.35 34.95 L4.9 34.05 Q8.6 31.35 12.7 27.6 L14.5 26.0 16.95 23.7 18.75 21.85 Q19.7 20.9 20.6 20.1 L21.4 19.3 Q23.1 17.6 24.55 16.5 25.7 15.0 29.25 12.45 32.9 9.75 34.95 8.6 L36.45 7.65 40.25 5.6 40.85 5.35 41.5 5.0 43.55 4.1 43.6 4.3 42.7 6.15 42.45 6.5 Q42.2 7.75 40.3 10.75 L39.25 12.75 37.0 15.95 34.35 19.75 33.65 20.7 Q32.85 22.1 31.85 23.1 30.75 24.65 26.35 27.6 L23.2 29.7 22.35 30.3 16.3 34.05 11.7 36.5 4.7 40.05 2.65 41.3 0.2 42.5 0.15 42.5 0.05 41.75 0.1 41.75 Q0.9 41.2 3.05 40.15 L4.65 37.95 7.35 34.2 4.55 35.6 Q3.55 36.05 1.9 37.0 L1.15 37.95 0.0 39.25 0.0 37.75 0.05 37.75 0.0 37.7 0.0 37.25 M27.1 15.95 L24.85 17.8 Q24.55 18.45 22.6 19.9 L21.0 21.05 20.75 21.5 Q18.4 26.25 14.7 31.25 L10.2 35.95 8.95 37.3 13.85 34.8 18.9 31.9 21.75 27.15 Q24.75 22.05 26.95 17.3 L27.75 15.4 27.1 15.95 M30.8 12.8 Q28.4 19.45 23.8 27.3 L22.7 29.2 25.1 27.35 26.55 24.7 Q31.7 15.5 32.55 11.8 L31.05 12.55 30.8 12.8 M3.8 35.5 L7.2 33.8 7.85 33.5 8.1 33.1 6.65 33.85 Q4.85 34.75 3.8 35.45 L3.8 35.5" fill="#999999" fill-rule="evenodd" stroke="none"/>
    <path d="M0.4 43.45 L4.2 41.05 Q7.3 39.25 13.05 36.6 L13.25 36.5 14.65 35.85 20.65 32.45 22.0 31.45 23.65 30.3 24.1 29.9 23.9 30.1 24.3 29.9 24.4 29.85 25.6 29.05 26.0 28.8 26.05 28.95 25.6 29.35 25.6 29.4 25.35 29.6 25.35 29.65 22.3 33.05 20.0 35.4 18.1 37.65 Q15.65 40.45 14.65 42.05 13.85 43.35 12.75 45.75 L11.75 47.05 11.35 47.65 11.1 48.0 7.9 48.0 Q5.1 48.0 3.3 47.05 L2.45 46.55 1.7 45.85 1.4 45.5 0.65 44.15 0.4 43.45" fill="#666666" fill-rule="evenodd" stroke="none"/>
    <path d="M0.0 39.25 L1.15 37.95 1.9 37.0 Q3.55 36.05 4.55 35.6 L7.35 34.2 4.65 37.95 3.05 40.15 Q0.9 41.2 0.1 41.75 L0.0 41.0 0.0 40.7 0.0 40.6 0.0 40.5 0.0 39.25 M3.8 35.5 L3.8 35.45 Q4.85 34.75 6.65 33.85 L8.1 33.1 7.85 33.5 7.2 33.8 3.8 35.5 M30.8 12.8 L31.05 12.55 32.55 11.8 Q31.7 15.5 26.55 24.7 L25.1 27.35 22.7 29.2 23.8 27.3 Q28.4 19.45 30.8 12.8 M27.1 15.95 L27.75 15.4 26.95 17.3 Q24.75 22.05 21.75 27.15 L18.9 31.9 13.85 34.8 8.95 37.3 10.2 35.95 14.7 31.25 Q18.4 26.25 20.75 21.5 L21.0 21.05 22.6 19.9 Q24.55 18.45 24.85 17.8 L27.1 15.95" fill="#cccccc" fill-rule="evenodd" stroke="none"/>
    <path d="M0.2 42.5 L2.65 41.3 4.7 40.05 11.7 36.5 16.3 34.05 22.35 30.3 23.2 29.7 26.35 27.6 Q30.75 24.65 31.85 23.1 32.85 22.1 33.65 20.7 L34.35 19.75 37.0 15.95 39.25 12.75 40.3 10.75 Q42.2 7.75 42.45 6.5 L42.7 6.15 43.6 4.3 43.55 4.1 41.5 5.0 40.85 5.35 40.25 5.6 36.45 7.65 34.95 8.6 Q32.9 9.75 29.25 12.45 25.7 15.0 24.55 16.5 23.1 17.6 21.4 19.3 L20.6 20.1 Q19.7 20.9 18.75 21.85 L16.95 23.7 14.5 26.0 12.7 27.6 Q8.6 31.35 4.9 34.05 L3.35 34.95 Q1.35 36.05 0.0 37.25 L0.0 35.95 0.35 35.75 3.0 34.0 3.15 33.95 Q6.45 32.0 10.55 28.25 L14.6 24.35 17.1 22.15 22.65 16.8 27.7 12.45 32.85 8.55 33.75 8.05 Q37.7 5.7 42.6 3.75 43.65 3.3 44.7 2.95 L43.9 5.0 Q42.0 9.9 39.75 13.85 L39.1 14.65 33.55 22.25 32.6 23.45 31.15 24.95 22.0 34.3 16.95 40.1 16.0 41.45 15.5 42.2 11.9 48.0 11.1 48.0 11.35 47.65 11.75 47.05 12.75 45.75 Q13.85 43.35 14.65 42.05 15.65 40.45 18.1 37.65 L20.0 35.4 22.3 33.05 25.35 29.65 25.35 29.6 25.6 29.4 25.6 29.35 26.05 28.95 26.0 28.8 25.6 29.05 24.4 29.85 24.3 29.9 23.9 30.1 24.1 29.9 23.65 30.3 22.0 31.45 20.65 32.45 14.65 35.85 13.25 36.5 13.05 36.6 Q7.3 39.25 4.2 41.05 L0.4 43.45 0.3 43.1 0.2 42.5 M0.0 37.7 L0.05 37.75 0.0 37.75 0.0 37.7" fill="#000000" fill-rule="evenodd" stroke="none"/>
  </g>
</svg>
