<?xml version="1.0" encoding="UTF-8" standalone="no"?>
<svg xmlns:ffdec="https://www.free-decompiler.com/flash" xmlns:xlink="http://www.w3.org/1999/xlink" ffdec:objectType="shape" height="48.0px" width="48.0px" xmlns="http://www.w3.org/2000/svg">
  <g transform="matrix(1.0, 0.0, 0.0, 1.0, 0.0, 0.0)">
    <path d="M40.65 24.65 L40.25 25.65 40.2 25.75 42.6 26.05 42.65 26.15 42.7 26.35 42.65 26.6 42.6 26.7 Q43.2 27.05 44.1 27.2 L47.15 28.05 47.35 28.35 47.3 28.4 46.05 29.2 45.3 29.5 45.3 29.55 Q46.25 30.05 47.25 30.35 L48.0 30.65 48.0 31.85 47.65 31.9 48.0 32.05 48.0 32.9 47.75 32.8 47.7 32.8 47.4 32.8 47.05 32.65 46.85 32.6 Q46.35 32.5 46.65 32.3 L46.7 32.3 Q46.4 32.1 46.5 31.7 L46.5 31.6 46.55 31.55 46.8 31.35 46.75 31.35 46.55 31.25 44.95 30.5 Q44.45 30.25 44.25 29.8 L44.25 29.7 44.25 29.65 Q43.8 29.65 43.5 29.35 L43.45 29.2 43.55 29.2 43.75 29.2 44.05 29.25 44.35 29.35 45.05 28.75 45.85 28.4 45.35 28.2 41.7 27.6 41.65 27.5 41.7 27.3 41.75 27.0 41.75 26.85 41.75 26.8 40.25 26.45 40.3 26.5 Q39.95 26.8 39.55 26.5 L39.45 26.35 Q39.3 26.35 39.5 26.2 39.35 25.8 39.6 25.4 L39.95 24.35 39.95 24.25 37.3 24.4 Q36.2 24.6 35.6 24.1 L35.6 24.05 Q36.9 23.3 38.75 23.45 L40.5 23.5 40.75 23.6 40.8 23.7 40.65 24.65 M40.85 33.35 L40.7 33.7 39.9 34.3 39.55 34.75 38.35 35.7 Q32.2 38.1 25.5 38.7 20.65 39.15 16.5 37.8 14.65 37.75 12.55 36.8 10.05 35.7 8.95 33.5 L9.1 33.45 9.45 33.65 Q9.1 33.2 9.35 32.6 10.9 28.85 14.6 29.75 11.1 30.35 10.45 33.35 10.35 34.05 11.0 34.4 21.5 40.25 33.3 36.55 36.85 35.4 39.3 32.9 40.1 32.05 39.45 31.1 38.55 29.85 37.1 29.25 L37.15 29.1 37.35 28.8 37.45 28.7 37.6 28.65 Q40.9 29.9 40.75 32.1 41.05 32.2 41.05 32.65 L40.85 33.35 M46.8 38.55 L46.75 38.4 47.35 37.9 Q47.9 37.7 47.7 37.35 L47.65 37.2 Q47.7 36.9 48.0 36.9 L48.0 39.7 46.8 38.55 M47.4 42.3 L47.7 42.7 47.8 42.8 47.65 43.35 47.55 43.65 46.9 43.0 46.1 42.0 Q45.3 41.3 46.0 40.8 L47.95 41.55 47.85 42.4 47.4 42.25 47.4 42.3 M43.35 43.6 L46.05 44.75 46.9 45.15 46.75 45.35 46.2 45.95 44.6 45.05 44.2 44.95 44.25 45.05 45.0 46.05 45.05 46.1 45.1 46.2 45.15 46.3 45.4 46.65 44.5 47.2 44.4 46.95 43.35 45.1 Q42.95 44.55 43.0 44.1 L42.95 44.0 Q42.85 43.85 43.1 43.85 L43.35 43.6 M42.1 47.7 L40.3 46.2 40.55 47.15 40.9 48.0 40.1 48.0 40.05 48.0 39.9 47.6 39.5 46.3 Q39.15 45.55 39.6 45.15 40.9 45.5 41.95 46.45 L42.5 46.95 44.05 47.05 44.5 47.2 42.25 47.85 42.1 47.7 M8.1 23.9 L8.95 24.15 9.0 24.1 10.35 24.2 11.2 24.35 11.8 24.4 12.85 24.75 12.45 24.9 13.05 25.4 13.1 25.45 13.1 25.5 11.7 25.6 10.8 25.55 10.85 25.65 10.8 25.85 10.75 25.9 10.7 26.0 10.6 26.1 2.95 26.75 3.2 26.95 4.15 27.8 4.85 28.3 Q5.35 28.5 5.45 29.0 L5.4 29.05 Q4.85 29.55 4.05 29.5 3.15 29.5 3.5 29.95 L3.55 30.2 Q3.3 30.85 2.5 31.0 2.0 31.05 1.6 31.35 L1.25 31.55 1.35 31.6 1.85 31.75 Q2.35 31.85 2.35 32.35 L2.05 32.4 2.1 32.5 2.0 32.6 2.15 32.85 1.45 32.9 1.25 33.0 0.0 33.55 0.0 32.65 0.45 32.5 0.15 32.2 0.0 32.15 0.0 30.65 0.15 30.6 2.2 30.05 2.35 30.0 2.6 30.05 2.6 30.0 2.5 29.8 2.5 29.7 2.5 29.5 2.55 29.25 2.6 29.15 3.1 29.0 4.1 28.75 3.7 28.55 2.8 27.7 1.65 27.1 Q0.5 26.6 0.85 26.0 L2.25 26.05 8.9 25.15 Q8.1 24.75 8.0 24.05 L8.1 23.9 M0.0 36.25 L0.05 36.3 0.0 36.7 0.0 36.25 M0.0 38.7 L0.3 38.7 0.6 39.0 0.0 39.55 0.0 38.7 M2.2 42.2 L0.15 42.25 0.05 41.3 1.0 41.25 Q2.45 41.15 3.7 41.75 3.75 42.35 3.2 42.75 2.0 43.65 0.85 44.65 L0.65 44.15 0.5 43.8 2.2 42.25 2.2 42.2 M10.1 44.9 L10.35 44.9 10.5 45.0 10.55 45.05 10.35 45.8 10.15 46.75 10.1 47.1 11.95 45.95 Q12.55 45.55 13.2 45.6 13.55 46.8 12.8 48.0 L11.9 48.0 12.35 46.85 Q11.6 47.2 10.8 47.95 L10.75 48.0 9.2 48.0 9.25 47.2 9.3 46.2 Q8.15 46.9 6.75 47.3 L5.25 47.75 3.8 47.3 7.3 45.95 9.3 45.4 10.1 44.9 M15.25 48.0 L16.6 46.0 16.85 45.65 17.1 45.6 17.65 45.75 16.8 48.0 15.25 48.0 M24.6 48.0 L22.25 48.0 Q22.9 47.6 23.65 47.35 L23.65 47.25 23.8 47.3 24.1 47.2 24.25 47.6 24.6 48.0 M26.55 48.0 Q26.7 47.25 27.2 46.7 L27.35 46.6 28.05 48.0 26.55 48.0 M31.25 47.2 L31.5 47.2 31.65 47.25 32.1 48.0 30.9 48.0 30.9 47.8 Q30.85 47.25 31.25 47.2 M36.85 46.75 L38.3 47.9 38.45 48.0 36.8 48.0 36.75 47.95 Q36.45 47.2 36.85 46.75" fill="#fafaad" fill-opacity="0.49803922" fill-rule="evenodd" stroke="none"/>
    <path d="M46.1 28.6 L45.75 29.0 43.85 29.6 Q44.6 29.85 45.25 30.25 L47.1 31.25 47.15 31.3 47.15 31.4 47.05 31.75 46.6 32.25 Q47.05 32.6 47.6 32.65 L48.0 32.75 48.0 34.8 47.3 34.45 47.15 34.25 47.15 34.15 Q47.15 34.0 47.3 33.9 47.55 33.65 47.9 33.6 L47.35 33.45 45.85 32.65 45.8 32.55 45.75 32.45 45.8 32.2 46.0 31.8 46.05 31.7 44.3 30.65 43.0 30.1 42.95 30.1 Q42.3 30.0 42.25 29.35 L42.3 29.3 Q42.55 29.1 42.85 29.05 L43.6 28.9 40.15 28.25 40.15 28.15 40.35 27.8 40.85 27.45 41.0 27.35 38.4 27.1 38.25 27.0 Q38.2 26.8 38.4 26.65 38.9 26.3 39.0 25.7 L39.2 25.05 36.15 25.7 Q35.45 25.9 35.05 25.45 L35.65 24.85 35.5 24.75 35.45 24.6 35.45 24.5 35.55 24.3 37.0 24.1 38.6 24.05 39.25 24.2 40.1 24.15 Q40.45 24.7 40.1 25.55 L39.65 26.45 42.1 26.7 42.15 26.8 42.15 27.15 42.05 27.5 43.75 27.65 Q44.9 27.8 45.95 28.3 L46.1 28.45 46.1 28.55 46.1 28.6 M41.35 30.85 Q42.9 33.1 41.05 35.2 L40.85 35.4 40.9 35.5 40.95 35.6 40.95 35.75 Q33.5 39.65 24.65 39.9 18.3 40.05 12.9 37.4 10.65 36.6 8.45 35.45 7.95 35.2 8.1 34.7 L8.5 34.65 8.75 34.75 8.45 34.25 8.4 34.2 8.4 34.1 Q7.6 32.45 9.6 30.45 11.3 28.7 13.3 29.35 9.75 30.5 9.4 33.75 9.35 34.25 9.85 34.55 11.9 35.9 14.05 36.9 27.45 41.35 39.6 34.3 40.55 33.75 40.7 32.7 40.85 31.4 40.3 30.6 L39.5 29.8 Q38.8 29.35 37.75 29.15 36.3 28.85 37.1 28.15 L37.55 28.25 37.6 27.95 39.2 28.75 40.65 30.0 41.35 30.85 M48.0 35.95 L48.0 38.05 47.45 38.4 47.75 38.75 48.0 39.1 48.0 40.5 47.95 41.85 47.05 41.45 Q46.2 41.0 45.7 41.2 L47.7 43.25 47.65 43.35 47.45 44.0 46.6 43.35 Q45.5 42.5 44.9 41.4 L44.45 41.15 Q44.3 40.85 44.6 40.8 L44.5 40.5 44.5 40.3 47.0 40.5 47.5 40.45 46.5 39.25 Q46.1 38.8 46.25 38.35 L46.2 37.95 46.25 37.85 Q46.5 37.6 46.95 37.6 47.4 37.6 47.25 37.4 L47.15 37.3 46.5 36.8 Q46.3 36.55 46.45 36.25 L48.0 35.95 M42.65 42.75 L42.95 43.0 Q45.05 43.25 47.2 44.6 L46.75 45.35 46.55 45.55 Q44.85 44.55 42.9 43.95 L43.05 44.4 43.05 44.45 43.6 45.4 44.7 47.1 43.1 47.7 41.35 46.5 Q40.35 45.55 39.45 45.15 L39.9 46.9 40.2 48.0 40.1 48.0 39.3 48.0 39.05 47.35 38.6 45.15 Q38.55 44.7 38.65 44.2 40.4 44.3 41.9 45.7 L43.75 47.05 42.6 45.25 42.45 44.95 41.95 43.6 41.9 43.35 Q41.75 43.15 41.85 42.8 L42.1 42.6 42.65 42.75 M12.7 25.6 L12.25 25.65 11.6 25.65 11.35 25.7 11.35 25.8 11.35 25.9 11.35 26.0 11.35 26.1 11.3 26.45 11.2 26.65 11.2 26.7 3.85 26.95 4.3 27.25 Q4.75 27.8 5.35 28.1 6.2 28.5 6.6 29.25 L6.6 29.45 5.95 29.65 5.8 29.7 4.35 30.05 4.05 30.1 4.05 30.2 4.05 30.25 4.1 30.45 4.0 30.75 3.9 30.8 3.25 31.1 Q2.7 31.3 2.2 31.65 L1.85 31.85 1.95 31.9 2.0 31.95 2.45 32.3 2.55 32.45 Q2.65 32.8 2.35 33.0 L0.6 34.1 0.0 34.3 0.0 33.3 0.05 33.3 0.95 32.9 1.75 32.6 1.7 32.55 1.6 32.45 0.95 32.1 0.8 31.95 0.8 31.85 Q1.0 31.45 1.45 31.2 L2.8 30.55 3.15 30.45 3.1 30.35 3.1 30.25 3.05 30.05 3.05 29.85 3.1 29.8 3.35 29.6 4.4 29.0 4.5 28.95 5.15 29.0 3.45 27.55 3.15 27.25 3.1 27.2 Q2.55 27.0 2.45 26.5 2.55 26.25 2.85 26.25 L10.8 25.85 10.75 25.75 10.7 25.65 10.65 25.55 10.6 25.45 10.6 25.35 10.75 25.2 10.85 25.15 11.6 25.15 12.25 25.2 Q12.65 25.2 12.8 25.5 L12.7 25.6 M0.25 35.75 L1.25 35.75 Q1.6 35.75 1.7 36.0 L1.7 36.15 0.55 37.2 0.0 37.4 0.0 35.75 0.25 35.75 M8.9 34.8 L8.75 34.75 8.85 34.85 8.9 34.85 8.9 34.8 M1.85 38.2 L2.1 38.25 2.3 38.4 2.35 38.5 1.2 39.3 0.5 39.75 0.45 39.75 0.0 40.15 0.0 39.05 0.1 38.95 0.0 38.95 0.0 38.1 1.15 38.35 1.5 38.25 1.8 38.25 1.85 38.2 M0.0 40.55 L5.3 40.45 2.8 43.5 1.7 44.6 1.15 45.1 0.75 44.4 3.3 41.7 3.15 41.65 1.5 41.8 0.05 41.75 0.0 40.6 0.0 40.55 M3.9 47.35 L3.3 47.05 2.9 46.85 2.9 46.8 8.3 44.6 11.3 44.25 11.5 44.8 11.45 45.25 11.25 45.85 11.25 45.95 Q11.75 45.85 12.35 45.2 13.1 44.35 14.05 44.65 14.25 45.4 14.0 46.15 L13.45 47.75 13.35 48.0 12.45 48.0 12.5 47.8 12.7 47.2 13.2 45.8 Q12.75 45.8 12.15 46.35 L10.75 47.45 10.5 47.55 Q9.85 47.35 9.8 46.75 L9.9 45.9 10.35 45.15 4.4 47.15 3.9 47.35 M18.55 44.5 Q18.5 46.25 17.5 47.9 L17.45 48.0 16.4 48.0 16.75 47.3 17.3 46.2 15.5 48.0 14.5 48.0 15.35 46.95 16.3 45.75 Q17.1 44.9 18.1 44.4 L18.55 44.5 M25.3 48.0 L24.25 48.0 24.15 47.6 24.05 47.35 Q23.3 47.6 22.6 48.0 L21.15 48.0 22.4 47.1 Q24.65 45.65 25.3 48.0 M27.7 45.35 L27.8 45.4 28.2 47.35 28.3 48.0 27.4 48.0 27.3 46.9 26.95 48.0 26.0 48.0 26.05 47.8 26.55 46.3 26.75 45.85 26.9 45.55 27.15 45.3 27.2 45.25 27.35 45.25 27.7 45.35 M30.25 47.75 L30.35 47.45 30.35 46.9 30.55 46.25 Q32.05 46.25 33.1 48.0 L31.7 48.0 31.3 47.25 31.1 48.0 30.15 48.0 30.25 47.75 M35.85 45.75 L35.95 45.5 36.1 45.45 36.3 45.8 Q37.35 46.0 38.15 47.05 L39.15 48.0 37.85 48.0 36.9 47.1 36.7 46.95 37.05 48.0 36.15 48.0 35.8 47.0 Q35.55 46.35 35.8 45.75 L35.85 45.75" fill="#f6f670" fill-rule="evenodd" stroke="none"/>
    <path d="M42.9 30.0 L46.15 31.25 45.9 32.4 Q46.15 32.7 47.55 33.25 L47.8 33.55 Q48.05 33.95 47.45 34.4 L48.0 34.7 48.0 36.3 47.95 36.35 46.6 36.5 48.0 37.6 48.0 37.65 46.75 38.05 46.55 37.95 Q46.4 37.95 46.55 38.1 L46.4 38.1 46.45 38.25 46.6 38.65 48.0 40.3 48.0 40.5 48.0 41.2 45.8 40.3 45.1 40.3 44.5 41.0 47.6 43.65 47.3 44.35 46.85 45.15 44.7 44.0 42.6 42.8 Q42.3 42.8 42.1 42.95 41.9 43.05 41.85 43.3 L42.1 43.9 44.15 47.35 44.05 47.4 Q43.5 47.35 41.6 46.0 L39.5 44.5 38.8 44.55 39.0 45.15 Q38.85 44.95 38.85 45.3 L39.05 46.0 39.5 48.0 38.95 48.0 Q37.35 46.35 36.6 46.0 36.25 45.7 36.15 45.85 36.0 45.45 36.05 45.7 35.8 45.65 35.9 46.4 L35.8 46.4 35.75 46.7 36.35 48.0 32.5 48.0 30.85 46.2 30.6 48.0 28.2 48.0 27.35 45.55 Q27.05 45.8 26.65 47.65 L26.6 48.0 24.8 48.0 24.65 47.6 Q24.4 46.6 23.75 46.75 22.75 46.65 21.25 48.0 L16.85 48.0 Q17.95 45.55 18.4 44.85 L17.9 44.7 14.55 48.0 12.95 48.0 13.75 45.95 13.8 45.5 13.5 45.35 13.4 44.65 Q12.4 45.9 10.85 46.75 L10.65 46.55 11.0 45.6 11.2 44.6 10.95 44.6 Q10.95 44.3 10.6 44.3 L10.65 44.2 2.95 46.9 2.45 46.55 1.7 45.85 1.4 45.5 1.05 44.95 3.8 42.05 4.4 41.35 4.5 40.8 Q4.65 40.5 4.95 40.65 L4.75 40.5 1.85 41.0 0.0 41.05 0.0 40.6 0.0 40.5 0.0 39.9 2.1 38.5 0.0 38.4 0.0 36.95 Q0.8 36.45 1.8 36.05 L0.0 35.95 0.0 33.9 2.2 32.95 2.45 32.7 1.35 31.7 Q2.35 30.85 3.9 30.6 L3.75 30.25 4.2 29.65 5.1 29.65 Q5.15 29.4 5.25 29.6 L6.3 29.25 3.25 27.15 3.45 26.65 7.95 26.55 11.2 26.35 11.3 25.95 Q11.45 25.5 11.7 25.6 L13.7 25.5 12.95 24.8 Q12.55 24.35 12.6 23.65 L15.0 24.15 18.55 24.65 18.65 24.65 19.05 24.75 Q19.3 24.65 19.7 24.5 20.1 24.15 20.35 24.2 20.9 24.25 21.15 24.8 L21.55 24.2 22.85 23.2 23.1 23.55 23.6 24.15 23.75 24.4 23.9 24.4 24.4 24.1 24.5 24.15 24.95 24.1 Q25.4 24.6 25.9 24.55 L26.25 24.7 27.0 24.75 27.8 24.2 28.95 23.2 Q29.65 23.8 29.7 24.5 L30.8 24.1 Q31.6 23.85 31.8 24.95 33.5 24.75 33.9 25.4 L37.5 24.8 38.95 24.95 38.4 25.6 Q37.85 26.05 37.75 26.6 L37.8 26.9 Q41.25 26.75 41.45 26.9 L40.85 28.05 44.4 28.25 45.05 28.55 43.8 29.4 42.8 29.85 42.9 30.0 M41.4 31.15 Q40.8 29.95 39.7 29.6 37.95 28.2 36.45 27.75 L35.95 27.55 35.5 27.5 35.1 27.5 32.5 26.75 32.1 26.65 28.9 26.35 28.6 26.3 27.6 26.3 27.6 26.35 23.2 26.35 22.35 26.5 22.3 26.5 Q17.5 27.0 14.3 28.35 L13.5 28.6 13.2 28.6 Q12.4 28.75 12.0 29.0 L10.7 30.05 Q8.95 31.2 8.4 32.7 7.6 34.9 11.2 36.55 12.75 37.35 17.55 38.65 L19.05 38.75 19.5 38.9 19.6 39.0 21.75 39.5 25.15 39.45 25.5 39.6 30.5 38.95 30.35 38.95 30.45 38.85 31.35 38.7 31.8 38.55 31.95 38.55 39.0 36.4 39.4 36.4 39.4 36.3 Q39.8 35.95 40.0 35.95 L40.05 36.1 Q40.2 35.85 40.55 35.85 42.05 33.85 41.8 33.05 L41.7 32.9 41.75 31.85 41.4 31.15" fill="#ffffff" fill-rule="evenodd" stroke="none"/>
    <path d="M46.75 5.5 L46.8 5.6 46.75 5.75 46.55 6.15 46.25 6.25 46.0 6.0 46.0 5.55 Q46.05 5.35 46.25 5.35 L46.5 5.35 46.75 5.5 M41.0 4.9 Q41.6 5.25 41.5 6.0 41.4 6.7 40.75 7.0 L40.6 7.0 Q40.15 6.7 40.25 6.0 40.35 5.45 40.75 5.0 L41.0 4.9 M42.6 5.35 L42.6 5.4 42.65 5.4 42.4 8.2 42.05 10.4 42.05 10.5 42.05 10.7 42.05 10.6 41.95 10.95 41.6 17.8 Q41.5 20.1 40.55 21.95 L40.6 22.3 40.7 22.4 40.75 22.5 Q40.55 23.3 40.0 23.9 39.45 24.5 38.9 24.25 L38.15 25.05 Q37.5 25.8 36.7 25.95 L36.8 25.4 37.1 18.95 Q37.1 18.3 37.4 17.6 38.1 15.9 38.4 14.2 38.65 12.85 38.1 11.75 37.95 11.85 37.75 11.9 L37.1 12.0 36.7 13.4 Q36.4 14.4 36.5 15.5 L36.55 16.8 36.6 16.85 36.6 16.9 36.75 17.0 36.8 17.05 36.85 17.15 36.7 17.75 36.2 18.7 36.25 18.95 36.2 19.45 35.85 19.1 35.35 19.2 35.6 18.7 Q34.8 17.45 34.75 15.5 L34.75 14.85 Q34.2 12.45 34.05 9.65 L34.05 9.3 33.4 6.85 31.95 2.75 31.5 4.4 31.3 5.55 31.2 5.65 31.15 5.5 31.1 5.6 31.05 5.7 Q30.75 5.6 30.75 5.2 L30.8 4.6 30.3 2.65 29.85 0.0 30.45 0.0 31.15 1.55 31.6 0.0 31.75 0.0 Q32.2 0.9 32.1 1.9 L32.35 1.05 32.45 0.0 32.9 0.0 33.05 0.9 32.65 2.2 32.65 2.25 Q34.3 5.3 34.7 8.8 L35.2 14.3 35.9 17.5 35.9 16.3 Q35.8 14.55 36.1 12.95 36.2 12.15 36.65 11.5 36.2 10.65 36.4 9.65 L36.45 9.5 36.45 9.2 36.5 9.15 36.5 6.95 Q36.45 6.4 37.0 6.2 38.0 6.2 38.55 7.1 39.05 7.95 38.5 8.85 L38.35 9.05 Q38.8 9.55 38.85 10.2 38.9 11.05 38.35 11.55 40.5 14.25 38.3 17.4 L38.0 18.0 Q38.5 19.25 38.25 20.6 L37.65 23.85 37.5 24.5 Q41.2 22.0 41.05 17.25 40.95 14.15 41.2 11.15 41.7 5.55 43.1 0.6 46.7 5.35 45.15 11.7 45.0 12.4 45.1 13.15 46.05 18.95 43.1 24.0 43.4 27.5 41.3 30.6 40.1 32.45 38.4 33.75 L37.5 34.45 Q36.7 34.85 36.0 35.35 L35.8 35.5 36.05 35.25 35.55 35.45 35.3 35.55 Q39.5 32.85 41.55 28.4 42.45 26.5 42.75 24.45 L42.8 24.35 Q42.95 21.95 44.05 19.1 L44.45 17.95 44.5 13.15 44.45 8.55 44.5 6.6 44.6 6.5 44.7 6.35 44.8 6.3 Q44.65 4.25 43.6 2.45 42.95 3.75 42.6 5.35 M41.4 22.5 Q41.5 23.95 40.75 25.45 40.1 26.8 38.95 27.7 L38.8 27.7 40.25 25.1 41.2 22.65 41.4 22.5 M36.2 3.0 L36.15 3.0 36.1 3.8 36.35 4.5 36.45 4.7 36.8 4.3 37.0 3.8 36.8 3.4 36.7 3.05 36.2 3.0 M35.65 4.75 Q35.0 3.25 36.1 2.35 38.5 3.05 36.6 4.95 36.0 5.5 35.65 4.75 M37.1 9.15 L36.8 9.45 Q36.8 10.3 37.35 11.0 L37.45 11.15 Q38.4 10.9 38.05 9.95 L37.55 9.0 Q38.15 8.4 38.0 7.7 37.8 7.0 37.15 6.9 L36.85 8.6 Q37.4 8.75 37.1 9.15 M16.4 0.0 L15.7 5.95 15.0 11.75 Q14.9 12.85 14.4 13.75 L14.6 14.0 14.55 14.45 Q14.15 14.7 13.9 14.3 13.55 13.75 12.9 13.55 L12.75 13.45 Q11.65 14.05 11.6 15.25 11.5 16.7 12.55 17.55 L12.65 17.65 Q12.65 17.35 13.05 17.45 L13.25 17.65 13.25 17.7 13.3 17.05 Q13.3 16.85 13.45 16.7 L13.55 16.85 Q13.55 16.6 13.8 16.6 14.1 17.4 13.9 18.25 L13.6 20.35 13.45 20.9 13.25 21.35 Q12.1 20.9 11.55 19.4 L10.8 17.25 11.1 21.25 Q11.15 23.45 11.8 25.45 11.9 25.85 11.6 26.25 10.8 26.25 10.25 25.25 L10.15 25.05 10.1 25.25 10.1 24.95 10.0 24.7 Q9.65 24.65 9.75 24.15 L9.8 23.5 9.85 23.45 9.95 23.5 Q9.5 18.9 8.4 14.4 L6.35 5.45 5.55 2.65 6.05 9.7 6.35 11.6 6.45 12.85 6.25 13.7 6.6 19.35 6.65 19.8 7.75 21.9 9.15 24.8 10.7 27.55 12.7 31.55 12.7 31.8 Q10.5 30.95 9.45 28.25 8.6 26.15 8.25 24.0 L7.15 22.35 6.9 21.8 7.05 25.5 Q7.1 28.4 8.75 30.95 L8.8 31.3 Q6.15 28.9 6.25 25.25 L6.45 20.6 6.3 19.9 Q5.6 18.2 5.7 15.85 L5.8 13.0 5.8 12.95 5.8 12.5 Q5.75 9.15 5.3 5.9 4.85 2.85 4.85 0.35 L4.95 0.35 Q7.95 5.7 8.6 12.25 8.8 14.65 9.5 16.95 10.55 20.55 10.25 24.1 L10.4 24.4 Q10.55 24.85 10.95 25.1 10.5 21.85 10.2 18.45 9.95 15.05 9.05 11.75 8.85 11.15 9.35 10.95 10.5 13.0 11.0 15.5 L11.25 16.55 11.3 16.65 Q11.1 15.9 11.35 14.95 11.65 13.7 11.35 12.75 10.9 11.35 11.55 10.2 L11.25 9.25 11.3 7.85 Q11.45 7.45 11.75 7.35 12.75 7.45 13.15 8.4 13.5 9.3 13.15 10.25 L13.25 10.45 13.15 10.5 13.55 11.25 Q14.0 11.75 13.85 12.5 L13.9 12.4 Q13.95 12.3 14.05 12.35 L14.2 10.15 14.55 7.2 Q14.8 3.5 15.7 0.0 L16.4 0.0 M13.15 0.85 Q12.8 0.9 13.2 0.65 L13.3 0.6 Q13.5 0.85 13.15 0.85 M11.05 3.6 Q10.5 4.1 10.7 4.9 10.8 5.45 11.15 5.85 L11.65 5.25 12.1 4.7 12.1 4.65 Q11.9 4.0 11.25 3.6 L11.05 3.6 M12.25 5.9 L12.25 5.95 11.9 6.4 11.7 6.6 11.05 6.55 Q9.05 4.65 11.0 2.95 12.65 3.75 12.5 5.05 L12.25 5.9 M12.35 10.0 L12.75 10.05 12.6 9.35 Q12.55 8.45 11.95 8.05 L11.85 10.3 11.85 10.25 12.2 10.05 12.35 10.0 M12.45 10.55 L12.3 10.65 12.15 10.8 11.8 10.9 11.8 11.35 Q11.95 12.65 13.2 12.95 13.35 11.75 12.95 10.65 L12.6 10.6 12.45 10.55 M7.85 3.85 L7.55 3.3 7.55 2.9 Q7.55 2.5 8.0 2.4 8.55 2.5 8.6 3.1 L8.45 4.05 8.4 4.15 Q8.0 4.25 7.85 3.85 M4.8 18.05 Q5.2 19.2 5.1 20.45 L5.05 20.6 Q3.9 20.15 3.8 18.5 L3.7 16.05 Q3.7 15.9 3.85 15.95 L4.8 18.05 M14.1 13.05 L13.85 13.25 14.0 13.4 14.15 13.55 14.1 13.05 M12.15 18.15 L12.95 19.8 13.15 18.75 13.2 18.45 12.05 17.85 12.15 18.15 M11.15 29.9 L11.2 29.95 11.25 30.15 11.15 29.9 M10.3 28.2 L9.65 26.75 9.55 26.65 Q9.65 27.45 10.1 28.15 L10.85 29.45 11.0 29.6 10.3 28.2" fill="#f7f7f7" fill-opacity="0.6" fill-rule="evenodd" stroke="none"/>
    <path d="M43.6 1.9 Q45.3 4.2 44.75 7.45 44.45 9.35 44.45 11.2 L44.95 14.0 44.9 16.25 Q44.95 17.0 44.6 17.75 L44.4 18.2 44.35 18.25 Q44.35 19.5 43.7 20.95 43.2 22.1 43.0 23.4 42.8 27.95 39.55 31.8 36.55 35.3 32.3 36.75 27.5 38.95 21.55 38.35 18.55 38.05 15.85 36.7 L14.4 35.8 12.95 35.05 Q10.15 33.15 8.65 30.35 7.1 29.0 6.7 26.8 6.35 24.85 6.7 22.9 L6.5 21.6 Q6.5 20.9 6.75 20.35 5.8 17.4 6.2 13.85 6.35 12.3 6.15 10.8 5.4 6.05 5.0 1.6 L5.1 1.55 Q6.6 4.0 7.1 7.3 8.0 13.4 9.55 19.3 10.05 21.25 9.9 23.3 L9.9 24.5 Q10.55 24.7 10.9 25.45 L11.8 26.45 11.1 22.8 Q10.85 21.45 10.9 20.05 L10.55 18.05 10.45 17.2 10.1 15.4 9.8 13.95 Q9.7 13.4 10.15 13.3 L11.05 16.7 11.85 19.0 12.5 19.9 13.3 21.25 13.65 20.1 13.95 16.75 13.15 17.5 12.45 17.45 Q10.05 15.6 12.35 13.55 L13.0 13.25 14.25 14.6 Q14.75 11.8 14.9 8.8 15.1 4.2 16.4 0.0 L17.25 0.0 16.75 4.0 Q15.75 9.0 15.25 14.05 L15.25 14.0 Q15.6 14.6 15.45 15.5 L15.1 16.95 15.0 17.0 14.95 16.85 14.1 21.0 13.8 22.6 Q12.95 22.4 12.4 21.4 L11.85 20.4 11.85 20.5 11.65 20.75 11.95 24.0 12.8 28.15 12.8 28.45 12.7 28.5 12.4 28.45 12.2 28.35 11.4 27.15 10.55 25.95 Q11.45 29.05 13.6 31.5 15.4 33.6 17.8 34.75 L17.35 34.65 17.55 34.75 Q12.7 34.45 9.8 30.0 8.6 28.25 8.1 26.15 8.5 29.7 11.1 32.45 L13.1 34.15 13.1 34.1 16.15 35.75 16.8 35.95 16.6 36.0 16.7 36.05 Q18.3 36.95 20.05 37.3 26.2 38.6 31.6 36.05 33.2 35.3 34.75 34.9 38.4 32.65 40.8 28.65 41.95 26.7 42.45 24.65 L42.4 24.65 Q41.8 26.65 40.35 28.25 36.65 32.35 32.0 35.05 L29.9 35.8 29.45 35.9 28.3 36.0 27.5 36.1 23.4 36.6 19.35 36.15 19.1 35.9 19.1 35.85 19.35 35.65 19.45 35.6 19.6 35.6 23.6 35.8 27.0 35.75 Q33.6 34.3 37.4 28.6 38.6 26.8 39.45 24.8 L39.1 25.1 38.9 25.15 39.2 24.7 Q38.15 25.3 37.2 26.25 36.7 26.75 36.05 26.6 35.9 24.6 36.45 22.7 36.95 20.8 36.95 18.85 L36.9 18.5 36.25 19.9 35.9 20.35 35.8 20.6 35.65 20.5 35.05 20.45 35.25 20.15 Q34.05 19.0 33.95 16.8 33.75 12.8 33.05 8.75 L32.3 4.2 31.9 6.15 31.4 8.25 31.2 8.5 Q30.35 6.5 29.95 3.9 L29.35 0.0 29.85 0.0 30.4 2.0 31.0 5.35 31.05 5.6 31.4 4.05 Q31.5 3.1 31.95 2.25 L32.1 2.2 Q33.85 6.25 34.3 11.1 34.7 15.3 35.7 19.4 L36.15 18.45 Q36.4 17.85 36.8 17.4 35.75 16.35 36.2 14.45 L36.65 12.45 Q36.85 11.45 37.85 11.4 39.05 12.55 38.55 14.45 L37.4 17.4 Q37.9 19.2 37.45 21.2 L36.55 25.5 36.55 25.8 38.85 23.8 Q39.3 23.35 39.9 23.4 L40.35 22.4 40.9 20.2 40.95 20.05 41.6 13.1 42.95 3.1 Q43.05 2.25 43.6 1.9 M43.85 4.05 Q42.9 8.25 42.3 12.6 41.95 15.15 41.75 17.75 L41.7 19.6 41.85 19.5 41.95 20.9 42.5 20.2 Q42.65 19.55 42.95 19.0 L43.15 18.9 43.2 18.95 43.45 18.45 Q44.65 15.7 44.0 12.65 43.25 9.4 43.9 6.05 44.1 4.95 43.85 4.05 M41.65 22.5 L41.55 22.65 41.45 22.85 41.3 23.2 Q40.65 25.45 39.0 27.3 L38.15 28.9 40.75 25.25 Q41.55 24.0 41.65 22.5 M36.5 2.6 Q37.15 2.75 37.2 3.45 L36.95 4.55 36.9 4.65 36.5 4.65 36.15 4.6 35.95 3.95 36.0 3.1 36.1 2.85 36.2 2.75 36.3 2.7 36.35 2.65 36.5 2.65 36.5 2.6 M32.65 0.0 L32.75 0.45 Q32.95 1.2 32.45 1.85 L32.35 1.95 Q31.65 1.65 31.7 0.75 L31.75 0.0 32.65 0.0 M37.3 7.65 Q37.2 8.0 37.45 8.0 37.7 8.05 37.4 7.65 L37.3 7.65 M36.8 6.85 L36.9 6.8 37.05 6.7 37.25 6.6 Q38.0 6.7 38.1 7.5 38.2 8.15 37.8 8.75 L37.85 8.75 38.0 8.75 38.3 9.35 38.3 10.45 38.05 11.0 38.0 11.1 Q37.55 11.3 37.05 11.1 36.7 10.8 36.65 10.35 36.6 9.65 36.95 9.1 L37.15 8.85 36.8 8.25 Q36.7 7.65 36.75 7.05 L36.8 6.85 M37.3 9.75 L37.5 10.2 37.55 10.3 Q37.8 10.4 37.85 9.95 L37.6 9.35 37.4 9.35 37.3 9.75 M37.35 15.2 L37.4 15.7 37.45 15.25 37.45 14.75 37.4 14.75 37.35 15.2 M11.0 3.35 Q11.9 3.3 12.05 4.15 12.25 4.9 12.05 5.65 L11.95 5.85 Q10.8 6.1 10.5 4.95 10.25 4.1 10.8 3.45 L11.0 3.35 M11.55 5.3 L11.6 4.7 11.45 4.1 Q11.35 3.9 11.15 4.0 11.0 4.35 11.1 4.7 L11.4 5.25 11.55 5.3 M12.2 8.6 L12.1 8.6 12.0 9.1 12.15 9.55 12.25 9.7 12.3 9.15 12.2 8.6 M12.1 7.6 L12.8 8.85 Q13.0 9.65 12.65 10.3 13.2 10.95 13.3 11.95 13.4 13.15 12.35 13.4 L12.15 13.35 Q11.65 12.65 11.6 11.7 11.55 10.9 12.1 10.4 11.45 10.2 11.35 9.25 11.25 8.3 11.95 7.7 L12.1 7.6 M12.35 11.8 L12.4 12.55 12.45 12.65 Q12.8 12.45 12.7 11.9 L12.45 11.05 12.35 11.8 M6.95 10.85 Q7.3 14.0 7.15 17.3 7.0 20.6 8.75 23.45 L8.95 23.7 Q9.65 20.35 8.4 17.1 7.25 14.15 7.0 10.95 L6.95 10.85 M13.9 15.6 Q13.8 14.65 13.05 14.05 12.0 14.35 11.9 15.35 11.8 16.45 12.7 16.95 L12.85 17.05 Q13.95 16.8 13.9 15.6 M11.4 25.85 Q11.15 25.95 11.3 25.75 11.4 25.6 11.55 25.6 L11.4 25.85 M11.15 29.4 Q10.1 27.6 9.9 25.7 8.6 24.35 7.8 22.85 8.85 26.0 10.6 29.15 11.3 30.45 12.3 31.4 L12.15 30.85 11.15 29.4 M39.45 26.1 L40.05 25.0 39.7 25.25 39.45 26.1 M33.05 33.65 Q33.8 33.4 34.45 32.75 L35.35 31.95 34.7 32.4 33.05 33.65" fill="#f7f7f7" fill-opacity="0.8" fill-rule="evenodd" stroke="none"/>
    <path d="M26.75 0.0 L27.25 2.65 28.5 7.55 30.05 12.25 Q31.35 15.45 32.2 21.95 L32.35 23.15 32.8 22.25 Q33.4 24.7 33.45 26.6 33.6 29.65 31.9 31.0 L33.35 29.5 34.6 28.15 Q35.15 28.9 33.5 30.75 31.85 32.7 29.7 33.65 27.65 34.6 26.0 34.5 L20.1 34.3 19.95 34.25 Q18.35 33.85 17.35 33.25 14.45 31.45 14.15 28.6 13.95 27.0 14.35 24.3 L14.5 24.35 15.4 26.1 16.05 27.05 16.1 27.05 16.35 27.2 Q15.55 24.4 16.1 19.15 16.5 14.55 17.8 9.5 18.25 11.05 18.1 14.55 17.75 17.8 18.2 19.45 L19.55 11.55 19.95 9.0 Q19.65 8.8 19.25 8.05 L18.8 7.1 18.8 3.1 19.05 0.0 19.8 0.0 20.45 5.15 21.0 1.15 21.15 0.25 21.15 0.0 23.15 0.0 22.65 2.35 Q22.65 2.9 23.6 4.3 L23.7 4.55 Q23.35 6.55 23.15 9.45 23.05 12.0 23.3 13.1 22.35 15.2 21.7 18.5 L21.9 16.6 Q22.25 14.0 21.5 12.7 L19.55 20.8 Q18.95 22.9 18.9 24.7 L18.2 21.55 Q17.45 23.05 17.65 26.85 17.8 30.4 18.15 30.65 L19.25 31.05 19.55 31.55 20.1 31.85 20.2 32.0 Q18.65 31.6 17.65 31.0 16.95 30.55 16.95 29.6 17.0 28.8 16.15 28.55 15.8 29.05 16.75 30.6 17.6 32.05 18.15 32.45 19.5 33.25 21.7 33.7 L25.8 33.55 26.2 33.05 26.2 33.0 27.85 32.7 29.5 31.6 Q31.05 30.35 30.55 29.55 L30.15 29.5 Q29.85 29.65 29.55 30.3 L28.7 31.1 28.45 31.2 28.4 31.15 28.5 28.9 28.7 28.9 29.6 28.85 Q30.85 28.3 31.1 27.55 31.4 26.75 30.6 26.2 L29.2 27.05 29.05 26.95 29.05 26.15 28.85 25.35 29.05 24.6 29.3 24.8 30.0 25.15 30.85 24.9 Q31.5 24.65 30.65 24.25 L29.2 24.1 29.1 24.1 29.3 22.8 Q29.55 19.65 28.25 18.8 L27.85 16.2 Q27.35 13.45 26.15 12.15 L26.05 13.05 25.3 10.6 25.45 10.65 Q25.75 10.35 25.55 9.75 L25.05 8.95 Q24.7 9.55 25.05 9.75 L25.25 10.2 25.25 10.5 25.05 10.05 24.75 10.05 24.5 10.5 24.55 9.85 24.55 9.15 24.55 7.15 24.8 8.0 25.0 8.1 25.3 8.05 25.25 5.65 25.65 4.55 Q25.65 3.05 25.05 0.0 L26.75 0.0 M22.35 7.45 Q21.7 8.4 21.6 9.95 L21.65 12.45 21.7 12.6 22.5 9.9 Q22.95 8.2 22.35 7.45 M22.2 14.8 L22.05 15.45 22.2 15.5 22.2 14.8 M24.65 18.65 Q24.95 19.75 25.4 20.05 26.05 20.45 26.85 20.05 L27.05 19.95 27.1 20.15 Q26.9 20.15 26.8 20.25 L26.5 20.6 26.1 20.95 26.05 20.95 Q26.1 20.7 25.6 20.35 24.9 19.75 24.15 20.0 L24.1 19.6 24.15 19.25 24.6 19.3 24.65 18.65 M24.15 22.9 L23.95 23.0 24.05 22.9 24.15 22.9 M24.2 24.4 L23.7 24.45 23.85 24.05 24.2 24.4 M26.6 23.35 L27.9 23.3 28.25 24.55 27.9 24.45 27.2 23.95 27.15 23.9 26.65 23.45 26.6 23.35 M19.55 28.95 L19.6 28.95 20.1 29.55 20.5 29.6 20.4 29.8 19.7 29.85 19.55 28.95 M27.35 28.15 L27.4 28.1 Q27.25 28.35 27.65 28.6 L28.4 28.9 27.55 29.35 27.05 28.6 26.85 28.5 27.05 28.2 27.35 28.15 M24.75 26.1 L22.9 25.65 23.05 25.6 23.3 25.45 23.5 25.55 24.7 25.9 24.75 26.1 M23.85 27.75 L22.35 27.95 22.3 28.1 21.15 28.05 21.5 27.65 21.8 27.85 22.0 27.8 22.45 27.7 23.05 27.3 23.85 27.75 M24.2 29.25 L24.2 29.45 23.5 29.35 23.3 29.35 23.6 29.15 24.2 29.25" fill="#c5edfe" fill-rule="evenodd" stroke="none"/>
    <path d="M26.75 0.0 L29.6 0.0 30.35 3.8 30.65 5.7 30.75 5.95 31.05 7.35 31.45 8.15 32.15 3.65 32.5 3.65 34.2 16.35 34.45 18.3 34.7 18.9 35.5 20.3 36.9 18.45 Q37.4 19.15 36.7 21.95 L35.9 25.25 36.1 26.1 36.25 26.65 39.35 24.25 39.6 24.3 39.6 24.35 Q39.85 25.5 37.65 28.8 35.55 31.9 33.55 33.15 32.55 34.0 31.4 34.45 27.95 36.0 24.55 36.15 L20.0 35.65 22.0 36.25 27.35 36.0 32.4 35.15 34.55 33.7 Q35.5 32.35 37.7 30.15 40.5 27.3 41.0 27.1 L41.4 27.0 41.1 26.8 Q41.65 25.95 41.8 24.05 42.0 22.3 42.65 21.45 L42.85 21.5 42.6 24.3 Q42.5 26.0 41.45 27.0 38.0 33.5 35.55 34.6 L35.3 34.65 35.15 34.75 Q34.45 35.0 33.9 35.45 L33.1 35.85 32.2 36.05 31.3 36.3 30.7 36.7 30.15 37.1 Q28.5 37.85 25.4 37.75 L22.25 37.55 Q20.9 38.1 18.25 37.0 L18.2 37.0 16.7 36.5 Q16.15 36.15 16.15 35.85 L15.0 35.2 14.15 34.8 12.5 33.95 Q9.55 32.05 8.05 27.5 6.65 23.45 7.35 21.95 L8.8 26.6 Q10.25 30.5 12.7 32.05 L14.85 33.65 17.85 34.9 18.05 34.95 16.25 34.05 14.6 33.15 Q13.35 32.4 11.65 29.15 10.1 26.1 10.25 25.3 L13.0 28.3 Q11.8 25.15 11.4 19.75 L13.8 22.6 14.1 19.9 15.15 15.6 Q15.4 11.05 16.0 6.3 16.35 2.65 16.9 0.0 L18.3 0.0 18.6 0.0 19.05 0.0 18.8 3.1 18.8 7.1 19.25 8.05 Q19.65 8.8 19.95 9.0 L19.55 11.55 18.2 19.45 Q17.75 17.8 18.1 14.55 18.25 11.05 17.8 9.5 16.5 14.55 16.1 19.15 15.55 24.4 16.35 27.2 L16.1 27.05 16.05 27.05 15.4 26.1 14.5 24.35 14.35 24.3 Q13.95 27.0 14.15 28.6 14.45 31.45 17.35 33.25 18.35 33.85 19.95 34.25 L20.1 34.3 26.0 34.5 Q27.65 34.6 29.7 33.65 31.85 32.7 33.5 30.75 35.15 28.9 34.6 28.15 L33.35 29.5 31.9 31.0 Q33.6 29.65 33.45 26.6 33.4 24.7 32.8 22.25 L32.35 23.15 32.2 21.95 Q31.35 15.45 30.05 12.25 L28.5 7.55 27.25 2.65 26.75 0.0 M43.65 3.45 Q44.2 4.15 43.95 7.6 43.5 11.4 44.25 13.25 45.1 15.2 43.55 18.2 41.15 22.55 41.1 23.0 L40.9 23.0 42.05 13.25 Q42.8 7.55 43.65 3.45 M19.8 0.0 L21.15 0.0 21.15 0.25 21.0 1.15 20.45 5.15 19.8 0.0 M36.7 3.05 L37.0 3.8 36.95 4.4 36.45 4.55 Q35.95 4.2 36.1 3.7 36.1 3.15 36.7 3.05 M32.15 0.0 Q32.4 0.45 32.3 1.75 L32.15 1.75 31.95 0.8 Q31.75 0.3 31.95 0.0 L32.15 0.0 M37.9 10.6 L37.55 10.7 37.4 10.7 37.1 10.6 Q36.7 10.35 36.9 9.75 36.95 9.2 37.45 8.8 L38.05 9.7 Q38.3 10.4 37.9 10.6 M37.8 8.55 L37.45 8.6 37.3 8.55 Q36.55 7.55 37.45 7.25 L37.9 8.05 37.8 8.55 M22.2 14.8 L22.2 15.5 22.05 15.45 22.2 14.8 M11.95 16.7 Q11.7 16.5 11.65 15.4 11.65 14.3 12.15 14.15 13.5 13.55 13.9 14.7 14.3 15.75 13.6 17.35 L11.95 16.7 M5.2 2.75 L5.45 2.8 6.55 8.05 7.55 13.25 Q8.2 16.0 9.15 18.6 9.6 19.75 9.45 21.3 L9.05 23.55 9.45 24.8 9.25 24.8 8.95 23.9 8.75 23.9 Q8.55 23.1 7.6 21.25 6.8 19.55 6.65 18.65 6.55 17.0 6.75 13.4 6.75 11.55 6.0 8.0 5.2 4.4 5.2 2.75 M12.05 11.9 Q12.0 11.15 12.45 10.65 13.05 10.95 12.85 11.8 L12.6 13.2 12.2 13.25 12.05 11.9 M12.2 8.1 L12.55 8.95 Q12.8 9.7 12.45 9.9 L12.05 9.95 11.95 9.9 11.7 8.95 11.85 8.1 12.2 8.1 M11.65 4.6 Q11.85 5.3 11.65 5.5 L11.1 5.4 Q10.9 4.3 11.15 3.75 L11.3 3.75 11.65 4.6 M36.95 16.95 L36.7 16.9 36.65 16.65 Q37.05 16.05 36.85 13.75 36.7 11.95 37.95 11.65 38.3 12.7 38.0 14.9 L37.45 16.85 36.95 16.95" fill="#58cbfc" fill-rule="evenodd" stroke="none"/>
    <path d="M23.15 0.0 L25.05 0.0 Q25.65 3.05 25.65 4.55 L25.25 5.65 25.3 8.05 25.0 8.1 24.8 8.0 24.55 7.15 24.55 9.15 24.55 9.85 24.5 10.5 24.75 10.05 25.05 10.05 25.25 10.5 25.25 10.2 25.05 9.75 Q24.7 9.55 25.05 8.95 L25.55 9.75 Q25.75 10.35 25.45 10.65 L25.3 10.6 26.05 13.05 26.15 12.15 Q27.35 13.45 27.85 16.2 L28.25 18.8 Q29.55 19.65 29.3 22.8 L29.1 24.1 29.2 24.1 30.65 24.25 Q31.5 24.65 30.85 24.9 L30.0 25.15 29.3 24.8 29.05 24.6 28.85 25.35 29.05 26.15 29.05 26.95 29.2 27.05 30.6 26.2 Q31.4 26.75 31.1 27.55 30.85 28.3 29.6 28.85 L28.7 28.9 28.5 28.9 28.4 31.15 28.45 31.2 28.7 31.1 29.55 30.3 Q29.85 29.65 30.15 29.5 L30.55 29.55 Q31.05 30.35 29.5 31.6 L27.85 32.7 26.2 33.0 26.2 33.05 25.8 33.55 21.7 33.7 Q19.5 33.25 18.15 32.45 17.6 32.05 16.75 30.6 15.8 29.05 16.15 28.55 17.0 28.8 16.95 29.6 16.95 30.55 17.65 31.0 18.65 31.6 20.2 32.0 L20.1 31.85 19.55 31.55 19.25 31.05 18.15 30.65 Q17.8 30.4 17.65 26.85 17.45 23.05 18.2 21.55 L18.9 24.7 Q18.95 22.9 19.55 20.8 L21.5 12.7 Q22.25 14.0 21.9 16.6 L21.7 18.5 Q22.35 15.2 23.3 13.1 23.05 12.0 23.15 9.45 23.35 6.55 23.7 4.55 L23.6 4.3 Q22.65 2.9 22.65 2.35 L23.15 0.0 M22.35 7.45 Q22.95 8.2 22.5 9.9 L21.7 12.6 21.65 12.45 21.6 9.95 Q21.7 8.4 22.35 7.45 M26.6 23.35 L26.65 23.45 27.15 23.9 27.2 23.95 27.9 24.45 28.25 24.55 27.9 23.3 26.6 23.35 M24.2 24.4 L23.85 24.05 23.7 24.45 24.2 24.4 M24.15 22.9 L24.05 22.9 23.95 23.0 24.15 22.9 M24.65 18.65 L24.6 19.3 24.15 19.25 24.1 19.6 24.15 20.0 Q24.9 19.75 25.6 20.35 26.1 20.7 26.05 20.95 L26.1 20.95 26.5 20.6 26.8 20.25 Q26.9 20.15 27.1 20.15 L27.05 19.95 26.85 20.05 Q26.05 20.45 25.4 20.05 24.95 19.75 24.65 18.65 M24.2 29.25 L23.6 29.15 23.3 29.35 23.5 29.35 24.2 29.45 24.2 29.25 M23.85 27.75 L23.05 27.3 22.45 27.7 22.0 27.8 21.8 27.85 21.5 27.65 21.15 28.05 22.3 28.1 22.35 27.95 23.85 27.75 M24.75 26.1 L24.7 25.9 23.5 25.55 23.3 25.45 23.05 25.6 22.9 25.65 24.75 26.1 M27.35 28.15 L27.05 28.2 26.85 28.5 27.05 28.6 27.55 29.35 28.4 28.9 27.65 28.6 Q27.25 28.35 27.4 28.1 L27.35 28.15 M19.55 28.95 L19.7 29.85 20.4 29.8 20.5 29.6 20.1 29.55 19.6 28.95 19.55 28.95" fill="#ffffff" fill-rule="evenodd" stroke="none"/>
  </g>
</svg>
