<?xml version="1.0" encoding="UTF-8" standalone="no"?>
<svg xmlns:ffdec="https://www.free-decompiler.com/flash" xmlns:xlink="http://www.w3.org/1999/xlink" ffdec:objectType="shape" height="35.8px" width="36.0px" xmlns="http://www.w3.org/2000/svg">
  <g transform="matrix(1.0, 0.0, 0.0, 1.0, -4.0, -5.2)">
    <path d="M38.75 8.0 L35.75 8.15 29.75 7.5 29.4 7.95 Q29.0 8.3 29.0 9.75 29.0 10.15 31.2 12.15 L34.5 15.0 Q34.65 15.2 34.45 15.4 L32.5 15.75 Q29.2 15.75 27.8 12.7 27.0 11.0 27.0 9.35 27.0 5.95 30.7 5.3 34.4 4.7 38.75 7.25 L38.75 8.0 M29.25 20.5 Q28.65 22.9 27.05 25.35 L27.0 26.0 27.5 29.8 28.0 33.5 Q28.0 35.0 29.15 35.65 L30.5 36.25 30.8 36.4 29.25 36.5 Q25.65 36.5 25.75 33.55 25.75 32.5 27.0 29.0 L26.75 28.25 Q25.75 28.4 24.15 29.3 L21.5 30.75 21.25 30.95 Q21.0 30.8 21.0 29.25 21.0 27.65 22.5 26.05 L27.25 21.5 27.35 21.75 29.25 20.5 M39.0 19.0 Q37.5 18.5 37.25 17.75 38.4 15.8 40.0 17.0 40.0 18.35 39.0 19.0 M11.0 8.75 Q11.0 10.55 8.7 14.0 6.2 17.75 4.0 18.0 5.45 15.0 7.35 11.8 9.75 7.6 10.5 7.25 L10.75 7.05 Q11.0 7.2 11.0 8.75 M9.15 22.3 Q8.25 22.3 8.25 20.75 8.25 20.35 9.25 19.15 10.4 17.75 11.5 17.25 L11.75 16.85 Q12.0 16.8 12.0 18.35 12.0 19.95 11.4 20.75 L10.0 22.0 9.15 22.3 M17.25 12.5 Q17.75 13.25 17.75 14.75 17.25 15.5 15.5 15.5 15.25 14.75 15.25 12.5 L15.9 12.4 17.25 12.5 M13.25 23.75 Q13.85 23.1 16.15 21.3 L17.25 20.3 18.85 20.45 Q19.75 20.75 19.75 22.35 19.75 23.4 15.9 28.75 11.95 34.25 10.5 34.75 9.55 33.8 9.0 32.5 L8.25 30.25 8.5 28.75 Q9.05 29.4 9.4 30.65 9.95 31.7 11.75 32.25 13.5 31.85 16.0 25.25 16.0 23.8 14.7 23.85 L13.25 23.75 M39.0 29.35 Q39.0 30.3 36.55 34.55 L39.0 37.0 38.25 38.5 35.4 36.4 Q33.4 39.6 32.0 41.0 30.5 40.5 30.25 39.75 L33.1 34.7 29.25 31.75 Q29.25 31.0 29.5 30.5 30.95 30.5 34.2 32.75 36.3 29.25 38.5 28.25 L38.75 27.85 Q39.0 27.8 39.0 29.35" fill="#ff0000" fill-rule="evenodd" stroke="none"/>
  </g>
</svg>
