<?xml version="1.0" encoding="UTF-8" standalone="no"?>
<svg xmlns:ffdec="https://www.free-decompiler.com/flash" xmlns:xlink="http://www.w3.org/1999/xlink" ffdec:objectType="shape" height="48.05px" width="44.9px" xmlns="http://www.w3.org/2000/svg">
  <g transform="matrix(1.0, 0.0, 0.0, 1.0, 0.0, 0.05)">
    <path d="M32.65 11.0 L33.55 12.75 34.1 14.6 34.1 14.85 34.2 15.4 33.9 16.95 33.5 18.05 33.5 18.1 Q35.9 20.9 35.9 25.85 35.9 27.15 35.4 28.7 L34.3 31.65 34.2 31.6 34.1 31.5 34.85 28.7 35.3 25.85 Q35.3 21.85 33.2 18.65 L33.0 19.1 Q31.5 21.85 29.65 21.65 L29.05 22.65 28.95 23.2 29.0 24.0 28.7 24.95 28.35 25.6 28.6 26.3 28.85 27.05 28.5 28.05 Q28.15 28.7 28.2 29.3 L28.4 31.45 28.4 32.1 28.9 32.25 Q30.1 32.65 30.45 33.15 L31.05 34.25 31.5 35.3 31.5 35.4 31.8 35.6 32.6 36.65 33.1 37.85 33.35 38.35 34.85 39.75 Q35.75 40.55 35.75 41.4 L35.65 42.25 Q35.4 42.65 34.5 42.65 L31.25 42.6 31.25 42.45 31.2 42.1 31.05 41.7 30.9 41.3 30.0 39.9 29.25 39.3 28.6 38.95 27.95 38.4 27.3 37.65 Q26.8 36.9 26.8 36.55 L26.85 36.35 26.35 36.1 24.5 35.85 24.2 36.2 23.65 37.0 23.95 37.55 24.4 38.95 24.6 39.0 Q25.35 39.3 25.35 39.95 25.35 40.4 24.75 40.95 L23.8 41.8 23.5 42.7 Q23.35 43.25 22.65 43.45 L19.65 43.1 19.2 42.75 19.15 42.75 19.15 42.6 19.15 42.5 19.15 42.4 Q19.15 42.0 19.55 41.45 L20.75 40.55 20.3 40.15 18.85 39.1 18.1 38.2 17.8 37.65 17.75 37.65 17.65 37.25 17.7 37.15 Q15.8 36.1 14.3 34.35 L13.8 33.7 13.55 33.8 13.1 34.0 12.3 34.0 11.6 33.55 11.35 33.65 11.85 34.15 Q12.35 34.85 12.35 35.3 12.35 36.35 11.6 36.35 10.45 36.35 9.75 34.9 L9.5 34.35 8.85 34.35 8.15 33.8 7.8 32.9 7.4 32.15 7.3 31.45 7.4 31.1 4.35 26.05 2.4 23.0 Q0.5 19.85 0.5 19.2 0.5 18.35 1.3 18.5 L1.7 18.7 Q3.15 19.6 4.3 21.6 L6.05 24.75 8.35 28.45 9.3 29.85 10.2 29.9 10.8 30.05 Q10.8 29.15 11.7 29.1 L11.65 28.35 11.7 25.9 11.8 25.9 Q11.8 27.6 12.2 29.1 L12.8 29.25 13.95 29.65 14.1 29.55 14.9 29.15 15.15 28.75 15.3 28.25 Q15.35 27.95 16.0 27.2 L16.8 26.15 17.75 23.9 Q18.15 23.1 18.7 22.65 L18.3 21.85 17.35 20.8 16.75 20.2 16.45 19.6 16.0 18.35 Q16.0 18.0 16.15 17.7 L16.15 17.65 Q16.15 17.0 16.6 16.35 L17.85 15.2 Q19.35 14.15 20.7 14.65 L21.65 15.25 22.25 15.4 Q23.3 15.75 23.4 16.65 24.3 17.65 24.3 19.4 L24.2 19.5 24.15 19.5 24.3 20.55 24.75 20.65 25.05 20.1 25.3 19.6 25.3 19.4 25.2 18.75 Q24.4 17.25 24.4 16.05 24.4 14.6 24.55 13.85 L24.6 13.5 24.45 13.0 24.4 12.7 23.85 12.7 21.85 12.8 21.1 13.25 21.0 13.35 Q20.85 13.4 20.85 13.15 20.85 12.8 22.75 12.45 L24.35 12.25 24.3 11.7 24.35 11.3 24.3 11.15 Q24.3 10.5 24.65 10.3 24.85 10.15 26.55 9.5 L26.75 9.5 27.25 9.5 27.9 9.1 30.2 9.3 Q31.55 9.75 32.3 10.6 L32.65 11.0 M19.25 24.3 L18.75 24.85 19.05 24.55 19.25 24.3 M14.45 33.6 Q15.85 35.2 18.0 36.4 L18.35 35.9 19.9 33.55 20.0 33.5 20.45 32.3 19.9 31.6 19.55 31.3 18.85 32.15 17.85 33.0 Q17.0 33.9 16.15 33.9 L15.35 33.75 14.8 33.6 14.45 33.6" fill="#000026" fill-rule="evenodd" stroke="none"/>
    <path d="M0.0 25.85 L0.0 21.3 1.85 24.65 Q2.85 27.05 4.65 29.6 L5.4 30.7 5.5 30.85 5.5 31.2 Q5.5 31.6 5.85 32.45 L6.4 33.7 Q6.7 34.4 7.65 35.35 L8.85 36.25 Q9.75 37.6 11.1 37.6 12.2 37.6 12.9 37.15 L13.35 35.85 13.55 35.15 13.55 35.0 13.6 35.05 Q14.5 32.6 17.15 28.75 18.8 26.35 20.6 24.25 22.35 22.15 23.55 21.2 L28.15 17.4 32.8 13.8 Q35.45 11.85 36.4 9.75 37.1 8.25 37.1 5.9 L36.65 4.15 36.6 4.1 Q35.45 2.95 32.95 2.7 30.15 2.4 27.95 3.4 L27.5 3.45 Q26.85 3.5 26.2 4.05 24.6 5.25 24.6 6.75 L24.6 7.0 24.45 7.35 24.3 7.65 23.85 7.9 24.15 9.1 Q24.15 10.35 22.35 13.5 L19.85 17.5 18.4 19.55 17.05 21.6 16.85 21.95 16.65 22.6 16.55 23.05 16.25 23.5 16.15 23.7 Q15.7 24.95 15.05 25.55 L15.0 25.45 14.5 26.2 14.05 26.95 12.5 27.35 11.5 27.3 Q11.35 27.3 11.1 27.45 L11.0 27.45 10.9 27.45 Q9.4 27.45 8.15 26.55 L7.8 25.85 6.4 23.4 5.5 21.6 4.5 19.25 3.4 17.1 2.8 16.0 1.95 14.95 Q1.5 14.55 0.7 14.45 L0.0 14.15 0.0 11.5 Q1.55 11.9 3.5 14.25 4.8 15.85 5.95 17.9 L6.8 19.65 7.6 21.4 Q8.6 23.5 10.0 24.65 L10.25 24.6 10.5 24.65 11.5 24.8 11.7 24.6 12.1 24.65 12.45 24.35 12.9 24.25 13.35 23.5 13.4 23.5 13.5 23.35 Q13.9 22.9 13.95 22.3 L14.25 21.8 14.25 21.75 13.55 20.75 Q12.7 19.4 12.4 18.35 L12.0 16.6 11.95 16.2 Q11.65 15.25 11.65 14.55 L11.65 14.45 11.65 14.4 11.7 13.75 12.05 12.75 12.1 11.95 Q12.45 10.95 13.15 10.0 14.7 7.8 17.2 6.65 19.25 5.65 21.9 5.65 L23.3 3.95 23.5 3.7 Q23.7 3.15 24.15 2.85 L25.0 1.85 Q25.95 0.95 27.2 0.8 L28.75 0.3 30.45 0.0 31.15 0.0 32.1 0.25 32.4 0.25 Q35.2 0.6 36.85 1.6 L38.1 2.55 39.4 3.6 40.2 4.35 40.6 5.1 41.2 6.45 41.5 7.4 41.6 8.05 41.6 8.25 41.8 9.15 41.95 11.5 41.95 14.15 40.95 17.3 40.85 17.45 38.9 19.75 Q37.0 21.35 36.65 21.9 35.7 23.15 35.65 25.05 L35.3 26.7 Q35.0 28.1 35.0 29.05 35.0 29.75 35.45 30.65 L35.7 31.05 36.0 31.3 36.75 32.3 37.5 34.05 38.15 35.65 38.95 37.3 Q39.5 38.2 40.85 39.2 L42.45 40.7 Q43.85 43.0 43.85 43.9 43.85 45.1 42.6 46.15 L40.65 47.4 37.1 47.75 35.55 47.5 35.1 47.35 34.7 47.25 34.45 47.2 32.8 46.95 32.0 46.45 31.4 46.05 31.2 45.9 31.1 45.8 Q30.55 45.35 29.9 45.25 L29.5 45.15 Q28.5 44.95 27.65 45.4 27.2 45.6 26.9 45.95 L26.8 46.05 26.5 46.3 26.2 46.5 24.05 47.3 22.8 47.65 20.75 47.45 18.85 46.9 17.95 46.6 17.5 46.3 Q16.45 45.55 16.25 44.6 L16.7 43.55 17.15 42.35 17.15 42.05 17.35 41.2 17.25 40.8 17.1 40.85 16.6 40.2 16.3 39.75 15.6 39.3 15.15 39.0 13.4 38.9 11.1 39.35 9.3 39.1 9.15 39.1 Q8.35 39.1 7.85 38.0 L7.85 37.9 7.8 37.9 7.8 37.85 7.1 36.6 Q5.9 36.4 4.75 34.4 3.6 32.45 3.6 31.3 L3.6 31.0 0.95 27.35 0.65 27.0 0.6 26.9 0.0 25.85 M39.0 7.95 L39.05 8.75 Q39.05 12.4 36.35 15.95 33.55 19.65 27.6 23.65 21.2 27.9 18.05 30.85 15.55 33.25 14.5 35.25 L14.55 35.25 15.75 35.25 Q17.2 35.25 19.1 34.45 L18.85 35.0 18.05 36.0 Q17.7 36.45 17.7 37.45 17.7 38.7 18.9 40.05 L19.6 40.8 20.65 39.45 Q22.6 37.45 26.45 34.85 29.6 32.75 31.35 30.55 L32.65 28.5 32.75 28.0 33.05 26.6 32.95 24.3 32.95 24.2 Q33.35 21.95 33.65 21.3 L34.25 20.25 36.65 18.65 Q39.4 16.15 39.4 12.6 L39.15 8.55 39.0 7.95 M20.45 10.9 L22.2 9.35 22.8 8.35 21.6 8.5 19.0 8.85 18.35 9.05 17.45 9.5 16.75 9.85 Q15.1 11.0 14.6 11.95 14.1 12.8 14.1 14.5 14.1 15.7 14.5 16.85 L15.7 19.5 15.9 19.95 16.5 18.95 16.9 17.0 Q17.15 15.65 17.5 15.0 L18.65 13.0 20.45 10.9 M15.2 14.75 L15.35 14.75 15.5 14.65 15.55 15.3 15.45 15.65 15.7 15.9 15.9 16.1 15.85 16.9 15.75 17.65 15.5 17.75 15.3 16.85 15.2 15.95 15.1 15.1 15.2 14.25 15.0 14.25 14.75 14.5 14.45 14.45 14.4 14.2 15.3 12.5 16.7 11.25 15.95 12.4 15.1 13.5 15.9 12.8 Q16.35 12.85 16.4 13.0 L15.7 13.9 Q15.25 14.35 15.2 14.75 M18.65 23.45 Q17.6 25.2 17.6 25.9 17.6 26.75 16.6 28.45 15.65 30.1 15.2 30.15 L15.15 30.2 15.1 29.9 15.2 29.15 15.45 28.5 15.75 27.7 16.2 27.1 Q16.55 26.7 16.6 25.95 16.65 25.05 16.85 24.5 L18.3 22.0 Q19.4 20.3 20.25 19.55 L18.85 21.45 Q17.9 22.7 17.85 23.35 L17.85 23.5 18.15 23.4 18.65 23.45 M18.45 33.35 L18.5 33.95 18.85 34.4 18.75 34.55 18.25 34.65 17.2 34.1 Q16.85 34.0 16.2 34.35 L16.15 34.4 16.1 34.05 Q16.1 33.45 18.25 31.45 20.4 29.5 21.2 29.25 L19.45 30.85 17.95 32.2 18.7 33.1 Q18.45 33.1 18.45 33.35 M20.1 41.65 L20.0 41.8 19.95 41.85 19.7 42.3 19.5 42.8 19.45 43.2 19.2 44.1 19.25 44.95 20.15 45.75 21.05 45.7 23.5 46.1 Q24.9 46.1 26.65 44.15 L27.55 43.0 28.15 41.9 28.2 41.9 28.3 41.7 28.35 41.7 28.95 41.05 Q30.05 40.0 32.25 39.3 32.8 39.1 33.85 38.8 L35.25 38.2 Q36.55 37.4 36.6 35.75 L35.65 34.6 Q34.15 33.2 33.1 31.6 33.0 32.85 32.15 34.3 30.9 36.45 28.7 37.35 L23.05 39.5 Q21.4 40.25 20.45 41.0 L20.1 41.6 20.1 41.65 M37.45 37.6 L35.85 39.3 Q34.2 40.6 32.75 40.85 L31.1 41.35 31.6 41.65 31.9 42.2 33.1 43.75 Q34.65 45.35 37.4 45.35 39.0 45.35 39.75 44.3 40.25 43.6 40.25 42.85 40.25 41.75 39.6 41.1 38.5 39.9 37.95 38.75 L37.45 37.6" fill="#ffffff" fill-rule="evenodd" stroke="none"/>
    <path d="M0.0 21.3 L0.0 14.15 0.7 14.45 Q1.5 14.55 1.95 14.95 L2.8 16.0 3.4 17.1 4.5 19.25 5.5 21.6 6.4 23.4 7.8 25.85 8.15 26.55 Q9.4 27.45 10.9 27.45 L10.75 27.55 10.8 27.55 11.0 27.45 11.1 27.45 Q11.35 27.3 11.5 27.3 L12.5 27.35 14.05 26.95 14.5 26.2 15.0 25.45 15.05 25.55 Q15.7 24.95 16.15 23.7 L16.25 23.5 16.55 23.05 16.65 22.6 16.85 21.95 17.05 21.6 18.4 19.55 19.85 17.5 22.35 13.5 Q24.15 10.35 24.15 9.1 L23.85 7.9 24.3 7.65 24.45 7.35 24.6 7.0 24.6 6.75 Q24.6 5.25 26.2 4.05 26.85 3.5 27.5 3.45 L27.95 3.4 Q30.15 2.4 32.95 2.7 35.45 2.95 36.6 4.1 L36.65 4.15 37.1 5.9 Q37.1 8.25 36.4 9.75 35.45 11.85 32.8 13.8 L28.15 17.4 23.55 21.2 Q22.35 22.15 20.6 24.25 18.8 26.35 17.15 28.75 14.5 32.6 13.6 35.05 L13.55 35.0 13.55 35.15 13.35 35.85 12.9 37.15 Q12.2 37.6 11.1 37.6 9.75 37.6 8.85 36.25 L7.65 35.35 Q6.7 34.4 6.4 33.7 L5.85 32.45 Q5.5 31.6 5.5 31.2 L5.5 30.85 5.4 30.7 4.65 29.6 Q2.85 27.05 1.85 24.65 L0.0 21.3 M39.0 7.95 L39.15 8.55 39.4 12.6 Q39.4 16.15 36.65 18.65 L34.25 20.25 33.65 21.3 Q33.35 21.95 32.95 24.2 L32.95 24.3 33.05 26.6 32.75 28.0 32.65 28.5 31.35 30.55 Q29.6 32.75 26.45 34.85 22.6 37.45 20.65 39.45 L19.6 40.8 18.9 40.05 Q17.7 38.7 17.7 37.45 17.7 36.45 18.05 36.0 L18.85 35.0 19.1 34.45 Q17.2 35.25 15.75 35.25 L14.55 35.25 14.5 35.25 Q15.55 33.25 18.05 30.85 21.2 27.9 27.6 23.65 33.55 19.65 36.35 15.95 39.05 12.4 39.05 8.75 L39.0 7.95 M20.45 10.9 L18.65 13.0 17.5 15.0 Q17.15 15.65 16.9 17.0 L16.5 18.95 15.9 19.95 15.7 19.5 14.5 16.85 Q14.1 15.7 14.1 14.5 14.1 12.8 14.6 11.95 15.1 11.0 16.75 9.85 L17.45 9.5 18.35 9.05 19.0 8.85 21.6 8.5 22.8 8.35 22.2 9.35 20.45 10.9 M24.95 9.65 L24.9 9.55 24.85 9.65 24.95 9.65 M26.25 11.1 L26.25 10.7 26.05 10.85 26.25 11.1 M0.7 15.9 L1.1 16.25 1.15 16.25 0.8 15.9 0.7 15.9 M37.45 37.6 L37.95 38.75 Q38.5 39.9 39.6 41.1 40.25 41.75 40.25 42.85 40.25 43.6 39.75 44.3 39.0 45.35 37.4 45.35 34.65 45.35 33.1 43.75 L31.9 42.2 31.6 41.65 31.1 41.35 32.75 40.85 Q34.2 40.6 35.85 39.3 L37.45 37.6 M20.1 41.65 L20.1 41.6 20.45 41.0 Q21.4 40.25 23.05 39.5 L28.7 37.35 Q30.9 36.45 32.15 34.3 33.0 32.85 33.1 31.6 34.15 33.2 35.65 34.6 L36.6 35.75 Q36.55 37.4 35.25 38.2 L33.85 38.8 Q32.8 39.1 32.25 39.3 30.05 40.0 28.95 41.05 L28.35 41.7 28.3 41.7 28.2 41.9 28.15 41.9 27.55 43.0 26.65 44.15 Q24.9 46.1 23.5 46.1 L21.05 45.7 20.15 45.75 19.25 44.95 19.2 44.1 19.45 43.2 19.5 42.8 19.7 42.3 19.95 41.85 20.0 41.8 20.1 41.65 M18.45 33.35 Q18.45 33.1 18.7 33.1 L17.95 32.2 19.45 30.85 21.2 29.25 Q20.4 29.5 18.25 31.45 16.1 33.45 16.1 34.05 L16.15 34.4 16.2 34.35 Q16.85 34.0 17.2 34.1 L18.25 34.65 18.75 34.55 18.85 34.4 18.5 33.95 18.45 33.35 M18.65 23.45 L18.15 23.4 17.85 23.5 17.85 23.35 Q17.9 22.7 18.85 21.45 L20.25 19.55 Q19.4 20.3 18.3 22.0 L16.85 24.5 Q16.65 25.05 16.6 25.95 16.55 26.7 16.2 27.1 L15.75 27.7 15.45 28.5 15.2 29.15 15.1 29.9 15.15 30.2 15.2 30.15 Q15.65 30.1 16.6 28.45 17.6 26.75 17.6 25.9 17.6 25.2 18.65 23.45 M15.2 14.75 Q15.25 14.35 15.7 13.9 L16.4 13.0 Q16.35 12.85 15.9 12.8 L15.1 13.5 15.95 12.4 16.7 11.25 15.3 12.5 14.4 14.2 14.45 14.45 14.75 14.5 15.0 14.25 15.2 14.25 15.1 15.1 15.2 15.95 15.3 16.85 15.5 17.75 15.75 17.65 15.85 16.9 15.9 16.1 15.7 15.9 15.45 15.65 15.55 15.3 15.5 14.65 15.35 14.75 15.2 14.75 M34.4 41.45 L34.45 41.45 34.45 41.4 34.4 41.45" fill="#ffffff" fill-opacity="0.5019608" fill-rule="evenodd" stroke="none"/>
    <path d="M31.15 0.0 L36.65 0.0 Q38.2 0.55 39.5 1.75 40.65 2.85 41.35 4.25 L41.75 5.3 42.45 6.7 43.25 11.55 43.2 11.95 43.15 12.25 43.1 12.3 43.1 12.5 Q43.1 14.45 42.6 16.2 41.95 18.3 40.7 19.7 L38.8 21.35 Q37.55 22.4 37.2 23.15 L36.8 24.4 36.7 24.8 36.7 24.95 36.15 26.6 36.1 27.35 Q36.1 30.3 39.0 34.75 L41.5 38.4 43.75 40.05 Q44.9 41.25 44.9 42.9 L44.85 43.15 44.9 43.75 44.75 44.85 44.55 45.15 Q44.35 46.1 43.4 46.95 L41.95 47.9 40.1 48.0 33.4 48.0 32.7 47.7 32.35 47.55 32.05 47.4 29.95 46.05 28.85 46.05 Q27.9 46.85 26.75 47.5 L25.8 48.0 18.15 48.0 16.65 47.15 15.65 46.0 15.4 45.2 Q15.4 44.45 15.85 43.3 L16.15 42.65 16.0 42.25 15.85 41.3 15.6 41.1 14.9 40.25 12.75 40.45 11.4 40.6 Q9.05 40.6 8.0 39.6 L7.85 39.5 7.15 39.05 Q6.25 38.4 6.0 37.55 L4.9 36.05 4.1 34.6 Q3.35 33.35 3.1 32.35 L3.0 32.15 1.4 29.4 0.75 28.1 0.25 27.5 0.0 27.1 0.0 25.85 0.6 26.9 0.65 27.0 0.95 27.35 3.6 31.0 3.6 31.3 Q3.6 32.45 4.75 34.4 5.9 36.4 7.1 36.6 L7.8 37.85 7.8 37.9 7.85 37.9 7.85 38.0 Q8.35 39.1 9.15 39.1 L9.3 39.1 11.1 39.35 13.4 38.9 15.15 39.0 15.6 39.3 16.3 39.75 16.6 40.2 17.1 40.85 17.25 40.8 17.35 41.2 17.15 42.05 17.15 42.35 16.7 43.55 16.25 44.6 Q16.45 45.55 17.5 46.3 L17.95 46.6 18.85 46.9 20.75 47.45 22.8 47.65 24.05 47.3 26.2 46.5 26.5 46.3 26.8 46.05 26.9 45.95 Q27.2 45.6 27.65 45.4 28.5 44.95 29.5 45.15 L29.9 45.25 Q30.55 45.35 31.1 45.8 L31.2 45.9 31.4 46.05 32.0 46.45 32.8 46.95 34.45 47.2 34.7 47.25 35.1 47.35 35.55 47.5 37.1 47.75 40.65 47.4 42.6 46.15 Q43.85 45.1 43.85 43.9 43.85 43.0 42.45 40.7 L40.85 39.2 Q39.5 38.2 38.95 37.3 L38.15 35.65 37.5 34.05 36.75 32.3 36.0 31.3 35.7 31.05 35.45 30.65 Q35.0 29.75 35.0 29.05 35.0 28.1 35.3 26.7 L35.65 25.05 Q35.7 23.15 36.65 21.9 37.0 21.35 38.9 19.75 L40.85 17.45 40.95 17.3 41.95 14.15 41.95 11.5 41.8 9.15 41.6 8.25 41.6 8.05 41.5 7.4 41.2 6.45 40.6 5.1 40.2 4.35 39.4 3.6 38.1 2.55 36.85 1.6 Q35.2 0.6 32.4 0.25 L32.1 0.25 31.15 0.0 M0.0 11.5 L0.0 10.45 Q2.2 11.1 3.6 12.65 L5.1 14.9 6.4 16.9 8.5 21.1 9.35 22.8 9.4 22.8 Q10.2 23.45 11.3 23.65 L12.45 22.75 12.85 22.05 12.25 20.85 11.4 18.65 10.95 17.7 10.6 16.8 10.45 14.95 Q10.45 13.9 10.7 12.85 L10.7 12.8 10.75 12.3 10.8 12.0 10.95 11.8 Q11.45 9.55 13.05 7.7 15.85 4.45 21.25 4.2 L22.55 2.85 Q24.7 0.6 25.7 0.15 L26.05 0.0 30.45 0.0 28.75 0.3 27.2 0.8 Q25.95 0.95 25.0 1.85 L24.15 2.85 Q23.7 3.15 23.5 3.7 L23.3 3.95 21.9 5.65 Q19.25 5.65 17.2 6.65 14.7 7.8 13.15 10.0 12.45 10.95 12.1 11.95 L12.05 12.75 11.7 13.75 11.65 14.4 11.65 14.45 11.65 14.55 Q11.65 15.25 11.95 16.2 L12.0 16.6 12.4 18.35 Q12.7 19.4 13.55 20.75 L14.25 21.75 14.25 21.8 13.95 22.3 Q13.9 22.9 13.5 23.35 L13.4 23.5 13.35 23.5 12.9 24.25 12.45 24.35 12.1 24.65 11.7 24.6 11.5 24.8 10.5 24.65 10.25 24.6 10.0 24.65 Q8.6 23.5 7.6 21.4 L6.8 19.65 5.95 17.9 Q4.8 15.85 3.5 14.25 1.55 11.9 0.0 11.5" fill="#9bebeb" fill-opacity="0.49803922" fill-rule="evenodd" stroke="none"/>
  </g>
</svg>
