<?xml version="1.0" encoding="UTF-8" standalone="no"?>
<svg xmlns:ffdec="https://www.free-decompiler.com/flash" xmlns:xlink="http://www.w3.org/1999/xlink" ffdec:objectType="shape" height="46.6px" width="43.65px" xmlns="http://www.w3.org/2000/svg">
  <g transform="matrix(1.0, 0.0, 0.0, 1.0, -3.8, -1.35)">
    <path d="M26.35 9.95 L26.6 10.35 27.2 11.7 27.2 11.95 28.7 12.95 30.2 13.2 31.7 13.9 Q32.8 14.8 33.5 16.25 33.95 17.2 34.0 18.05 L33.75 19.45 33.75 19.5 33.35 20.15 33.3 20.2 33.45 21.1 Q33.9 21.35 34.35 21.75 35.3 22.45 35.55 24.05 35.75 25.0 35.55 25.9 L35.5 26.15 34.6 27.7 34.6 27.75 33.5 28.55 32.85 28.95 32.3 29.25 30.6 32.15 30.55 32.2 31.45 32.65 Q32.4 33.25 33.05 34.35 L33.95 36.45 34.2 37.75 34.15 38.6 34.6 38.65 34.45 38.75 34.35 38.8 34.5 39.05 34.45 39.05 34.75 39.25 39.25 47.0 39.9 47.8 39.85 47.85 39.0 47.95 38.8 47.65 38.8 47.6 33.95 39.6 32.95 40.2 32.8 40.35 32.35 40.55 30.85 41.6 30.1 42.2 30.55 42.7 30.55 42.75 30.85 43.15 33.95 47.45 34.05 47.6 33.1 47.65 31.95 46.1 32.15 46.15 29.75 43.15 29.6 43.0 29.6 42.9 29.45 42.7 29.4 42.65 29.3 42.5 29.05 42.7 29.3 42.25 29.3 42.05 28.05 41.8 26.95 41.1 25.35 39.45 Q24.65 38.4 24.45 37.25 L24.4 36.5 Q22.3 37.2 19.8 37.15 L19.4 37.1 19.1 37.5 Q17.8 39.1 15.45 38.8 13.8 38.6 13.0 37.95 11.85 37.0 11.4 34.95 L11.4 34.85 10.0 33.85 Q9.15 33.15 8.2 31.2 L7.35 28.9 6.35 28.4 5.0 27.35 Q2.75 25.45 4.8 22.0 5.6 20.7 6.6 19.95 L6.75 19.85 Q7.2 18.05 8.25 16.65 9.25 15.1 10.4 13.95 10.35 13.5 10.6 12.7 11.0 11.35 12.1 10.1 14.85 7.3 17.5 9.0 L17.9 9.25 18.0 9.3 18.1 9.35 19.15 9.9 19.3 10.1 19.35 10.15 19.4 10.2 19.45 10.15 19.5 10.1 19.85 9.6 20.05 9.4 20.15 9.3 20.25 9.25 20.55 8.95 Q21.75 8.05 22.95 8.0 24.25 7.9 25.5 8.9 L26.35 9.95 M23.3 9.5 Q21.95 9.2 21.3 9.95 L21.1 10.2 21.25 10.2 20.8 10.6 Q20.35 11.15 21.1 11.75 L22.65 12.2 22.85 12.2 Q24.3 12.4 24.95 11.55 L25.1 11.25 25.1 11.15 25.1 11.0 25.4 11.1 25.05 10.45 24.6 10.0 Q23.9 9.6 23.3 9.5 M25.95 27.85 Q26.7 27.85 27.35 28.2 L27.8 28.5 Q28.55 29.15 28.9 30.35 L29.0 31.25 29.2 31.0 30.85 28.4 Q29.95 26.95 30.7 23.6 31.1 21.95 31.65 21.1 L31.7 21.05 Q31.0 16.95 28.15 14.6 L25.65 13.0 23.55 13.2 22.75 13.2 22.5 13.2 21.55 13.1 Q20.4 12.9 19.35 12.05 L19.15 11.85 16.8 12.25 14.6 13.15 14.45 13.3 14.25 13.4 14.8 13.65 16.25 15.5 Q17.05 17.3 15.75 18.9 L14.35 20.1 Q13.15 20.9 11.75 20.8 10.25 20.7 9.6 20.15 L9.1 19.7 Q7.7 24.25 8.55 27.7 8.85 29.0 9.45 30.05 L9.15 29.0 Q9.0 27.45 10.15 26.3 11.3 25.1 13.0 25.05 14.1 25.0 15.2 25.5 15.85 25.8 16.5 26.35 17.4 27.05 17.8 27.95 18.6 29.7 17.25 31.35 L15.8 32.65 Q14.6 33.35 13.25 33.2 12.1 33.0 11.2 32.35 L10.7 31.9 11.9 33.0 Q12.5 33.55 14.15 34.2 16.4 35.15 18.6 35.4 L20.05 35.55 20.3 35.55 22.1 35.4 22.8 35.3 23.0 35.25 23.2 35.2 22.7 35.2 21.75 34.7 21.55 34.5 Q20.35 33.4 20.55 31.95 20.7 30.55 22.05 29.35 23.4 28.25 24.95 27.85 L25.95 27.85 M22.85 16.7 Q24.25 16.65 25.5 17.65 28.8 20.35 26.15 23.6 L25.85 24.0 25.75 24.0 25.65 24.1 25.6 24.15 24.6 24.8 23.8 25.1 23.25 25.1 23.25 25.15 22.6 25.1 Q21.35 24.85 20.55 24.25 18.9 22.85 18.8 21.15 18.65 19.55 19.8 18.25 20.85 17.0 22.45 16.75 L22.85 16.7 M23.05 18.2 L22.7 18.2 Q21.7 18.3 21.0 19.1 20.25 19.8 20.3 20.75 20.3 21.5 20.7 21.95 20.8 22.65 21.45 23.2 L21.9 23.45 22.15 23.55 22.55 23.65 22.75 23.7 Q24.05 23.8 25.05 22.6 26.05 21.4 25.8 20.25 L25.35 19.45 24.8 18.95 23.55 18.25 23.05 18.2 M30.8 14.5 L29.9 13.95 Q31.25 15.25 32.1 16.8 31.75 15.3 30.8 14.5 M32.5 22.45 Q31.85 23.05 31.65 24.7 31.55 25.05 31.6 25.35 L31.55 26.35 31.6 26.4 31.65 26.15 Q31.65 26.5 31.85 26.65 L32.0 27.05 32.25 27.25 32.5 27.25 32.6 27.25 33.0 27.15 32.95 27.3 33.75 26.5 Q34.6 25.5 33.95 23.95 L33.55 23.1 33.55 23.55 33.35 23.25 33.2 23.0 33.05 22.9 32.8 22.6 32.5 22.45 M15.1 9.85 L14.05 10.0 13.3 10.75 Q12.6 11.6 12.5 12.3 13.8 11.45 15.35 10.95 L17.15 10.45 16.25 10.05 15.1 9.85 M13.85 14.8 L12.95 14.7 12.65 14.75 Q11.95 14.65 11.25 15.3 10.6 15.95 10.5 16.95 10.15 17.85 10.15 18.3 10.15 18.75 10.55 19.1 L11.1 19.35 11.95 19.35 Q13.0 19.15 13.75 18.3 15.1 16.65 15.1 15.95 15.05 15.6 14.4 15.1 14.2 14.85 13.85 14.8 M12.0 31.25 L12.0 31.3 Q12.6 31.8 13.5 31.95 14.85 32.15 15.8 31.0 17.0 29.5 16.25 28.15 L15.25 27.0 Q14.55 26.45 13.75 26.25 L13.0 26.25 Q11.9 26.35 11.15 27.1 10.35 27.9 10.5 28.95 10.65 30.15 12.0 31.25 M15.8 36.7 Q14.05 36.25 12.55 35.5 12.85 36.35 13.25 36.7 14.05 37.3 15.05 37.4 L17.2 37.1 17.35 37.0 15.8 36.7 M6.9 27.5 L7.0 27.6 6.8 26.65 Q6.3 24.3 6.4 22.35 4.9 24.65 5.85 26.4 6.2 27.05 6.9 27.5 M29.5 33.35 L29.2 33.7 28.6 34.25 28.15 34.6 28.0 34.75 Q26.75 35.65 25.35 36.2 L25.35 36.35 Q25.45 37.9 26.2 38.95 L27.7 40.45 28.65 41.1 29.4 41.1 30.85 40.15 31.85 39.45 31.95 39.4 33.0 38.7 33.3 38.0 33.1 36.85 32.35 34.9 Q31.65 33.85 30.2 33.15 L29.9 32.95 29.5 33.35 M22.6 33.5 L22.7 33.6 Q23.3 34.1 24.55 33.95 26.0 33.8 26.85 32.7 27.7 31.75 27.25 30.7 L26.75 29.75 Q26.2 29.35 25.15 29.5 L25.1 29.5 24.85 29.6 Q23.95 29.75 23.1 30.35 20.8 31.85 22.6 33.5" fill="#111111" fill-rule="evenodd" stroke="none"/>
    <path d="M16.8 12.25 L19.15 11.85 19.35 12.05 Q20.4 12.9 21.55 13.1 L22.5 13.2 22.75 13.2 23.55 13.2 25.65 13.0 28.15 14.6 Q31.0 16.95 31.7 21.05 L31.65 21.1 Q31.1 21.95 30.7 23.6 29.95 26.95 30.85 28.4 L29.2 31.0 29.0 31.25 28.9 30.35 Q28.55 29.15 27.8 28.5 L27.35 28.2 Q26.7 27.85 25.95 27.85 L26.0 24.95 25.25 25.15 Q24.35 25.35 23.25 25.15 L23.25 25.1 23.8 25.1 24.6 24.8 25.6 24.15 25.65 24.1 25.75 24.0 25.85 24.0 26.15 23.6 Q28.8 20.35 25.5 17.65 24.25 16.65 22.85 16.7 L22.3 15.9 Q20.0 12.9 17.9 12.4 L16.8 12.25 M21.55 34.5 L21.75 34.7 22.7 35.2 23.2 35.2 23.0 35.25 22.8 35.3 22.1 35.4 20.3 35.55 20.05 35.55 21.55 34.5 M15.8 32.65 L17.25 31.35 Q18.6 29.7 17.8 27.95 17.4 27.05 16.5 26.35 15.85 25.8 15.2 25.5 18.85 26.0 19.35 28.15 19.9 30.4 18.4 31.65 17.65 32.3 16.6 32.55 L15.8 32.65 M14.35 20.1 L15.75 18.9 Q17.05 17.3 16.25 15.5 L14.8 13.65 14.25 13.4 14.45 13.3 14.6 13.15 15.25 13.35 Q17.1 13.9 17.6 15.8 18.1 17.85 16.15 19.25 15.2 20.0 14.0 20.35 L14.35 20.1" fill="#333333" fill-rule="evenodd" stroke="none"/>
    <path d="M22.85 12.2 L22.65 12.2 21.1 11.75 Q20.35 11.15 20.8 10.6 L21.25 10.2 21.1 10.2 21.3 9.95 Q21.95 9.2 23.3 9.5 L23.4 9.85 23.15 11.35 22.85 12.2 M21.9 23.45 L21.45 23.2 Q20.8 22.65 20.7 21.95 20.3 21.5 20.3 20.75 20.25 19.8 21.0 19.1 21.7 18.3 22.7 18.2 L23.05 18.2 23.35 19.05 23.3 20.65 22.95 22.35 Q22.75 23.05 22.15 23.35 L21.9 23.45 M30.8 14.5 Q31.75 15.3 32.1 16.8 31.25 15.25 29.9 13.95 L30.8 14.5 M15.35 10.95 Q13.8 11.45 12.5 12.3 12.6 11.6 13.3 10.75 L14.05 10.0 15.1 9.85 15.3 10.15 15.35 10.95 M13.85 14.8 L13.9 15.0 Q14.1 15.9 13.05 17.3 L11.7 18.85 11.1 19.35 10.55 19.1 Q10.15 18.75 10.15 18.3 10.15 17.85 10.5 16.95 10.6 15.95 11.25 15.3 11.95 14.65 12.65 14.75 L12.95 14.7 13.85 14.8 M13.75 26.25 Q14.4 27.0 14.65 28.05 15.05 29.7 14.3 30.5 13.9 30.95 12.95 31.15 L12.0 31.25 Q10.65 30.15 10.5 28.95 10.35 27.9 11.15 27.1 11.9 26.35 13.0 26.25 L13.75 26.25 M15.05 37.4 Q14.05 37.3 13.25 36.7 12.85 36.35 12.55 35.5 14.05 36.25 15.8 36.7 L15.05 37.4 M6.9 27.5 Q6.2 27.05 5.85 26.4 4.9 24.65 6.4 22.35 6.3 24.3 6.8 26.65 L7.0 27.6 6.9 27.5 M24.85 29.6 Q25.0 31.25 24.2 32.25 L22.6 33.5 Q20.8 31.85 23.1 30.35 23.95 29.75 24.85 29.6" fill="#999999" fill-rule="evenodd" stroke="none"/>
    <path d="M23.3 9.5 Q23.9 9.6 24.6 10.0 L25.05 10.45 25.4 11.1 25.1 11.0 25.1 11.15 25.1 11.25 24.95 11.55 Q24.3 12.4 22.85 12.2 L23.15 11.35 23.4 9.85 23.3 9.5 M16.8 12.25 L17.9 12.4 Q20.0 12.9 22.3 15.9 L22.85 16.7 22.45 16.75 Q20.85 17.0 19.8 18.25 18.65 19.55 18.8 21.15 18.9 22.85 20.55 24.25 21.35 24.85 22.6 25.1 L23.25 25.15 Q24.35 25.35 25.25 25.15 L26.0 24.95 25.95 27.85 24.95 27.85 Q23.4 28.25 22.05 29.35 20.7 30.55 20.55 31.95 20.35 33.4 21.55 34.5 L20.05 35.55 18.6 35.4 Q16.4 35.15 14.15 34.2 12.5 33.55 11.9 33.0 L10.7 31.9 11.2 32.35 Q12.1 33.0 13.25 33.2 14.6 33.35 15.8 32.65 L16.6 32.55 Q17.65 32.3 18.4 31.65 19.9 30.4 19.35 28.15 18.85 26.0 15.2 25.5 14.1 25.0 13.0 25.05 11.3 25.1 10.15 26.3 9.0 27.45 9.15 29.0 L9.45 30.05 Q8.85 29.0 8.55 27.7 7.7 24.25 9.1 19.7 L9.6 20.15 Q10.25 20.7 11.75 20.8 13.15 20.9 14.35 20.1 L14.0 20.35 Q15.2 20.0 16.15 19.25 18.1 17.85 17.6 15.8 17.1 13.9 15.25 13.35 L14.6 13.15 16.8 12.25 M23.05 18.2 L23.55 18.25 24.8 18.95 25.35 19.45 25.8 20.25 Q26.05 21.4 25.05 22.6 24.05 23.8 22.75 23.7 L22.55 23.65 22.15 23.55 21.9 23.45 22.15 23.35 Q22.75 23.05 22.95 22.35 L23.3 20.65 23.35 19.05 23.05 18.2 M32.5 22.45 L32.8 22.6 33.05 22.9 33.2 23.0 33.35 23.25 33.55 23.55 33.55 23.1 33.95 23.95 Q34.6 25.5 33.75 26.5 L32.95 27.3 33.0 27.15 32.6 27.25 32.5 27.25 32.25 27.25 32.0 27.05 31.85 26.65 Q31.65 26.5 31.65 26.15 L31.6 26.4 31.55 26.35 31.6 25.35 Q31.55 25.05 31.65 24.7 31.85 23.05 32.5 22.45 M15.1 9.85 L16.25 10.05 17.15 10.45 15.35 10.95 15.3 10.15 15.1 9.85 M11.1 19.35 L11.7 18.85 13.05 17.3 Q14.1 15.9 13.9 15.0 L13.85 14.8 Q14.2 14.85 14.4 15.1 15.05 15.6 15.1 15.95 15.1 16.65 13.75 18.3 13.0 19.15 11.95 19.35 L11.1 19.35 M13.75 26.25 Q14.55 26.45 15.25 27.0 L16.25 28.15 Q17.0 29.5 15.8 31.0 14.85 32.15 13.5 31.95 12.6 31.8 12.0 31.3 L12.0 31.25 12.95 31.15 Q13.9 30.95 14.3 30.5 15.05 29.7 14.65 28.05 14.4 27.0 13.75 26.25 M15.8 36.7 L17.35 37.0 17.2 37.1 15.05 37.4 15.8 36.7 M24.85 29.6 L25.1 29.5 25.15 29.5 Q26.2 29.35 26.75 29.75 L27.25 30.7 Q27.7 31.75 26.85 32.7 26.0 33.8 24.55 33.95 23.3 34.1 22.7 33.6 L22.6 33.5 24.2 32.25 Q25.0 31.25 24.85 29.6" fill="#666666" fill-rule="evenodd" stroke="none"/>
    <path d="M29.5 33.35 L30.65 34.75 Q31.25 35.55 31.65 36.7 L29.95 34.5 29.2 33.7 29.5 33.35 M28.6 34.25 L29.45 35.15 30.65 36.7 30.85 37.05 31.75 38.8 31.95 39.4 31.85 39.45 31.05 37.9 29.6 35.9 28.15 34.6 28.6 34.25 M30.85 40.15 L29.4 41.1 28.65 41.1 27.7 40.45 26.2 38.95 Q25.45 37.9 25.35 36.35 L25.35 36.2 Q26.75 35.65 28.0 34.75 L29.4 36.55 31.15 39.6 28.9 36.75 28.85 36.8 30.05 38.8 30.85 40.15" fill="#7b6223" fill-rule="evenodd" stroke="none"/>
    <path d="M29.2 33.7 L29.95 34.5 31.65 36.7 Q31.25 35.55 30.65 34.75 L29.5 33.35 29.9 32.95 30.2 33.15 Q31.65 33.85 32.35 34.9 L33.1 36.85 33.3 38.0 33.0 38.7 31.95 39.4 31.75 38.8 30.85 37.05 30.65 36.7 29.45 35.15 28.6 34.25 29.2 33.7 M30.85 40.15 L30.05 38.8 28.85 36.8 28.9 36.75 31.15 39.6 29.4 36.55 28.0 34.75 28.15 34.6 29.6 35.9 31.05 37.9 31.85 39.45 30.85 40.15" fill="#3b311a" fill-rule="evenodd" stroke="none"/>
    <path d="M39.0 47.95 L38.7 47.95 36.55 47.75 34.05 47.6 33.95 47.45 30.85 43.15 30.55 42.75 30.55 42.7 30.1 42.2 30.85 41.6 32.35 40.55 32.8 40.35 32.95 40.2 33.95 39.6 38.8 47.6 38.8 47.65 39.0 47.95" fill="#333300" fill-rule="evenodd" stroke="none"/>
    <path d="M26.35 9.95 Q29.9 8.5 33.75 7.6 L34.65 7.35 36.4 7.1 36.65 7.1 36.9 7.0 40.2 6.35 41.35 6.2 41.5 6.25 41.55 6.35 41.65 6.45 38.6 7.45 37.85 7.75 34.75 8.5 Q31.6 9.5 28.55 10.85 L27.85 11.2 27.2 11.7 26.6 10.35 26.35 9.95 M34.0 18.05 Q34.8 17.55 35.9 17.2 L40.55 15.7 43.1 14.95 43.2 15.0 43.3 15.15 43.3 15.2 43.25 15.2 41.35 15.9 Q39.45 16.6 37.8 17.45 L35.75 18.1 34.45 18.6 34.5 18.65 34.55 18.6 36.15 18.35 38.05 17.9 38.15 17.95 38.3 18.1 38.3 18.15 35.05 19.4 33.35 20.15 33.75 19.5 33.75 19.45 34.0 18.05 M35.55 25.9 L39.8 24.2 Q43.9 22.75 47.45 22.2 L47.4 22.45 47.4 22.5 44.8 23.25 Q43.05 23.7 38.65 25.45 L39.15 25.55 Q37.4 26.2 36.3 26.75 L34.6 27.75 34.6 27.7 35.2 26.95 35.5 26.15 35.55 25.9 M17.5 9.0 L17.5 8.95 17.55 8.85 17.5 8.8 18.0 8.55 18.25 8.5 18.35 8.5 18.6 8.5 Q20.15 7.4 23.35 6.15 27.5 4.55 30.95 4.1 L30.25 4.4 35.35 2.85 37.3 2.3 38.15 2.1 38.25 2.1 38.45 2.1 44.2 1.35 43.9 1.6 44.4 1.6 43.1 2.0 41.75 2.25 38.6 2.7 Q36.95 3.1 29.35 5.75 L22.95 8.0 Q21.75 8.05 20.55 8.95 L20.25 9.25 20.15 9.25 20.15 9.3 20.05 9.4 20.0 9.4 19.85 9.6 19.5 10.1 19.35 10.15 19.3 10.1 19.15 9.9 18.1 9.35 18.0 9.3 17.9 9.25 17.5 9.0 M28.75 10.3 L28.7 10.3 28.7 10.35 28.75 10.3" fill="#ccccff" fill-rule="evenodd" stroke="none"/>
  </g>
</svg>
