<?xml version="1.0" encoding="UTF-8" standalone="no"?>
<svg xmlns:ffdec="https://www.free-decompiler.com/flash" xmlns:xlink="http://www.w3.org/1999/xlink" ffdec:objectType="shape" height="156.4px" width="558.15px" xmlns="http://www.w3.org/2000/svg">
  <g transform="matrix(1.0, 0.0, 0.0, 1.0, -261.85, -532.2)">
    <path d="M818.0 568.25 Q822.0 574.3 818.0 584.85 L818.0 584.95 Q816.6 588.35 814.4 592.3 L814.4 592.1 814.3 592.3 814.2 592.45 Q808.55 600.5 802.85 605.65 L802.85 607.85 802.9 607.85 802.95 634.05 802.95 634.4 802.2 636.75 801.85 636.9 795.1 643.65 Q792.45 645.85 791.1 647.0 L782.4 655.2 781.6 656.2 780.1 657.95 779.7 658.4 779.05 658.65 777.5 658.65 746.4 658.6 730.75 658.15 704.15 657.85 702.0 658.15 697.75 658.05 696.55 658.2 652.8 658.2 638.55 658.55 638.35 658.55 638.35 658.6 554.2 658.55 539.35 658.5 538.45 658.8 528.4 658.9 517.2 658.6 444.4 658.55 439.0 658.55 438.95 658.55 Q438.6 658.9 437.85 658.9 437.15 658.9 436.65 658.5 L436.25 658.5 435.8 657.8 Q434.95 656.45 433.85 656.4 L432.75 657.0 431.2 657.8 431.1 657.85 429.85 659.2 429.45 658.75 429.4 658.6 428.65 658.8 418.6 658.9 403.0 658.2 384.95 658.2 384.05 658.2 371.7 657.9 371.4 657.9 363.45 658.15 361.85 658.0 347.95 658.15 332.3 658.6 301.2 658.65 299.65 658.65 299.0 658.4 298.6 657.95 297.1 656.2 296.3 655.2 287.6 647.0 283.6 643.65 276.85 636.9 276.5 636.75 275.75 634.4 275.75 634.05 275.8 607.85 275.9 607.85 275.9 603.1 Q271.7 598.75 267.6 592.85 L267.5 592.65 267.4 592.5 Q265.05 588.45 263.8 585.05 L263.8 584.95 263.75 584.85 263.75 584.75 Q259.9 574.65 263.8 568.7 L264.0 568.5 Q268.6 561.25 277.7 562.1 L277.7 561.0 277.7 560.9 Q277.7 559.95 278.15 559.25 278.6 558.4 279.45 558.05 295.8 549.7 312.3 550.15 L312.5 550.15 Q327.55 550.6 342.7 558.5 343.5 558.85 344.0 559.7 L344.05 559.7 Q344.45 560.4 344.45 561.35 L344.45 561.45 344.45 561.7 Q354.1 560.6 358.95 568.05 L359.15 568.25 Q360.75 570.7 361.1 573.9 L389.9 574.0 395.85 573.85 397.45 574.0 411.0 573.65 411.2 573.65 411.2 573.6 495.35 573.65 510.2 573.7 511.1 573.4 521.15 573.3 534.35 573.75 539.0 573.65 539.2 573.65 539.2 573.6 623.35 573.65 628.75 573.65 628.8 573.65 Q629.15 573.3 629.9 573.3 630.6 573.3 631.1 573.7 L631.5 573.7 631.95 574.4 Q632.8 575.75 633.9 575.8 L635.0 575.2 636.55 574.4 636.65 574.35 637.9 573.0 638.3 573.45 638.35 573.6 639.1 573.4 649.15 573.3 664.75 574.0 681.2 574.0 682.85 573.85 690.8 574.05 694.65 574.2 701.55 574.15 704.3 574.05 705.25 574.1 720.8 573.95 Q721.15 571.0 722.65 568.7 L722.85 568.5 Q727.45 561.25 736.55 562.1 L736.55 561.0 736.55 560.9 Q736.55 559.95 737.0 559.25 737.45 558.4 738.3 558.05 754.65 549.7 771.15 550.15 L771.35 550.15 Q786.4 550.6 801.55 558.5 802.35 558.85 802.85 559.7 L802.9 559.7 Q803.3 560.4 803.3 561.35 L803.3 561.45 803.3 561.7 Q812.95 560.6 817.8 568.05 L818.0 568.25 M737.2 573.3 Q735.45 572.95 734.3 573.75 L737.25 573.65 737.2 573.3 M807.4 574.4 Q805.85 572.2 802.65 573.2 802.0 579.05 800.8 584.55 L800.8 584.65 798.75 592.1 799.65 593.0 804.4 586.95 804.3 587.05 806.2 583.55 806.3 583.4 Q808.9 577.7 807.4 574.45 L807.4 574.4 M274.5 574.75 Q272.8 577.8 275.4 583.4 L275.4 583.45 275.5 583.55 277.5 587.4 277.4 587.35 280.6 591.45 281.75 590.3 280.25 584.65 280.25 584.55 Q278.9 579.05 278.35 573.3 275.75 572.75 274.5 574.75 M551.5 556.4 L551.55 556.45 550.55 556.45 551.5 556.4 M562.55 532.2 L562.65 532.25 561.6 532.25 562.55 532.2 M343.75 573.7 L348.05 573.85 348.1 573.85 Q346.55 572.35 343.8 573.2 L343.75 573.7 M442.55 688.6 L442.6 688.55 442.6 688.6 442.55 688.6" fill="#ff0000" fill-rule="evenodd" stroke="none"/>
  </g>
</svg>
