<?xml version="1.0" encoding="UTF-8" standalone="no"?>
<svg xmlns:ffdec="https://www.free-decompiler.com/flash" xmlns:xlink="http://www.w3.org/1999/xlink" ffdec:objectType="shape" height="48.0px" width="48.0px" xmlns="http://www.w3.org/2000/svg">
  <g transform="matrix(1.0, 0.0, 0.0, 1.0, 0.0, 0.0)">
    <path d="M48.0 18.4 L48.0 29.4 46.35 30.1 44.05 31.1 Q39.0 33.25 33.7 33.8 32.55 34.6 32.05 36.1 L32.05 36.15 31.05 38.35 31.05 38.4 30.3 39.0 Q27.25 45.45 20.35 48.0 L12.65 48.0 Q16.25 43.4 22.65 42.3 24.6 42.0 25.95 40.4 L25.9 40.4 Q28.55 37.1 28.95 32.9 L28.4 33.95 27.5 34.95 Q27.6 37.7 25.1 38.9 L25.05 38.9 Q22.7 40.0 20.3 39.75 L19.45 40.6 18.45 41.4 Q17.75 42.5 16.25 43.15 L16.25 43.1 14.55 43.7 11.65 44.85 9.95 45.05 Q9.1 46.7 7.6 48.0 5.0 47.95 3.3 47.05 L2.45 46.55 2.35 46.45 Q4.55 45.1 6.4 43.2 7.25 42.3 8.35 41.75 L8.3 41.8 Q8.4 41.7 8.55 41.65 L6.95 41.45 Q5.8 41.2 4.9 40.65 3.4 41.4 0.95 40.35 L0.0 40.05 0.0 35.85 1.5 36.0 1.45 35.95 1.85 36.1 2.25 35.15 3.0 33.65 2.45 32.5 2.45 32.45 Q1.7 30.35 0.0 29.5 L0.0 25.55 0.7 25.6 3.45 26.05 4.2 26.3 4.3 26.4 4.5 26.65 4.6 27.15 4.65 27.35 4.7 27.5 4.75 28.0 4.75 28.05 4.7 28.15 4.75 28.0 4.65 27.85 4.6 28.3 4.7 28.3 4.85 28.25 Q6.45 27.75 7.9 26.75 L7.85 26.75 Q10.6 24.8 13.65 23.7 L15.65 23.1 15.55 22.55 Q15.45 22.0 14.95 21.7 L14.9 21.7 Q13.1 20.6 11.15 20.0 L8.45 19.9 7.3 19.6 6.9 19.65 Q5.75 20.6 4.05 21.15 L0.0 21.8 0.0 18.25 3.0 18.05 4.65 17.0 Q5.75 16.15 7.05 15.6 L6.95 15.0 6.85 14.4 6.6 14.05 5.4 13.1 Q2.85 11.9 0.0 12.75 L0.0 8.8 0.75 9.4 Q1.1 9.15 1.5 9.05 L1.45 9.05 3.6 8.85 3.7 8.9 Q4.6 9.25 5.4 9.9 L5.45 9.95 5.6 10.05 Q8.75 11.8 11.3 14.05 14.3 13.75 17.2 12.85 L17.25 12.85 17.6 12.75 16.1 11.7 Q15.25 11.1 14.25 11.05 L14.2 11.05 10.6 10.4 8.65 10.05 Q7.1 10.05 5.65 9.0 4.9 8.45 4.65 7.65 L3.4 6.3 3.35 6.3 Q2.0 4.6 1.15 2.9 2.1 1.35 3.95 0.65 4.1 0.55 4.35 0.5 L4.65 0.4 4.85 0.7 6.2 2.45 6.25 2.5 6.6 3.15 6.9 3.45 Q7.45 4.05 7.35 4.9 L7.4 4.95 7.4 5.0 7.8 5.6 10.55 6.4 11.25 6.55 13.2 6.65 10.4 2.75 Q9.6 1.7 8.45 1.1 L8.35 1.0 Q7.75 0.45 7.05 0.05 L7.8 0.0 7.9 0.0 18.3 0.0 18.6 0.0 19.15 0.0 19.35 0.25 Q21.1 2.5 21.25 5.2 L21.85 6.25 Q22.2 6.95 23.05 7.0 L26.4 7.55 26.5 7.4 26.6 7.1 26.6 7.05 26.6 6.75 25.5 5.75 Q24.1 4.15 23.65 1.9 L23.25 1.25 22.85 1.35 22.8 1.35 Q21.7 1.45 21.15 0.9 20.8 0.55 20.7 0.0 L26.75 0.0 Q27.35 1.0 27.65 2.35 L28.3 4.2 28.85 4.65 29.7 5.45 30.8 6.65 30.9 6.75 32.3 8.45 33.25 10.45 Q35.95 12.25 39.45 13.1 L39.4 13.05 42.95 14.05 43.0 14.05 Q44.3 14.5 45.45 15.3 46.2 15.8 46.15 16.75 46.9 17.75 48.0 18.4 M43.1 19.55 Q42.6 19.5 42.4 19.9 L42.35 19.9 41.9 20.5 45.35 20.35 45.4 20.35 45.6 20.3 45.25 20.1 43.65 19.6 43.7 19.6 43.1 19.55 M45.05 26.8 L45.1 26.9 45.25 27.0 45.3 26.55 44.85 27.0 45.1 27.0 45.05 26.95 45.0 26.85 45.05 26.9 45.05 26.8 M45.1 27.0 L45.1 27.05 45.25 27.25 45.25 27.0 45.15 27.0 45.15 27.05 45.1 27.0 M22.2 10.85 L22.1 11.3 21.9 11.7 21.85 11.75 21.85 11.85 21.75 12.1 Q23.25 12.75 25.05 13.0 L26.2 13.3 26.3 12.9 Q25.15 11.35 23.7 10.25 21.15 9.65 19.2 8.05 L19.05 7.8 Q18.7 6.55 17.95 5.5 L16.85 4.4 16.7 4.3 16.5 4.05 16.45 4.0 16.05 3.75 15.85 3.6 14.6 2.25 14.35 2.05 14.55 2.3 15.75 4.3 Q17.05 7.25 19.95 8.8 21.25 9.5 22.1 10.55 L22.2 10.85 M29.55 7.25 L29.6 7.3 29.7 7.15 29.55 7.25 M28.05 10.05 L28.3 10.8 Q28.95 11.45 29.3 12.35 L29.45 13.25 30.55 14.9 Q31.55 15.2 32.0 16.25 L32.3 17.1 32.8 18.0 32.8 17.95 Q33.1 18.45 33.7 18.65 L37.55 19.4 37.85 19.45 39.45 18.45 41.15 17.2 Q37.85 15.35 34.05 14.65 30.5 13.95 29.1 10.45 L28.65 9.7 28.05 10.05 M26.75 18.35 L24.1 17.6 Q19.6 16.2 15.15 16.8 17.0 17.4 18.7 18.4 L19.7 19.0 Q23.6 21.3 27.35 18.7 L27.3 18.65 27.15 18.55 26.75 18.35 M20.5 23.0 Q20.15 22.75 19.8 22.6 20.95 24.0 23.0 24.65 L23.05 24.65 24.6 24.95 27.75 24.75 Q26.9 23.75 25.85 23.35 L25.25 23.35 23.5 23.3 22.3 23.6 Q21.1 23.75 20.75 23.2 L20.5 23.0 M29.7 21.15 L29.0 21.35 Q29.5 22.3 30.4 22.85 L31.6 23.0 Q33.45 23.05 35.15 23.8 L36.4 23.6 34.45 22.55 31.3 20.8 29.65 21.15 29.7 21.15 M37.55 23.3 L37.45 24.15 38.1 23.8 38.1 23.75 37.55 23.3 M7.15 18.25 L7.9 18.55 7.6 17.8 7.15 18.25 M19.95 27.8 L21.1 27.65 Q18.85 26.25 16.3 25.95 13.05 26.95 10.05 28.75 7.0 30.6 6.1 34.1 L6.1 34.15 Q6.2 34.75 5.9 35.65 L5.3 37.45 5.3 37.4 5.25 37.55 Q7.2 38.55 9.45 37.5 L10.25 37.3 Q11.65 35.45 13.45 34.0 L13.85 33.2 Q14.0 32.35 14.5 31.8 L14.45 31.3 Q14.2 30.6 14.2 29.75 L14.25 29.55 14.4 29.4 Q14.9 28.9 15.65 28.75 17.75 28.1 19.95 27.8 M16.5 34.4 L16.35 35.35 17.3 35.25 Q17.95 34.7 18.1 33.8 L18.1 33.75 Q18.3 32.75 18.8 32.1 L17.85 32.55 Q16.7 33.15 16.5 34.4 M15.25 38.9 L13.85 38.6 11.95 40.4 13.4 40.15 Q14.2 40.05 14.85 39.4 L15.3 38.95 15.2 38.9 15.25 38.9 M36.75 28.3 L36.4 28.55 Q36.1 29.0 36.05 29.55 L38.15 29.95 38.2 29.95 38.4 29.95 40.35 29.55 Q42.8 28.6 44.85 27.0 40.55 26.75 36.75 28.35 L36.75 28.3 M25.35 29.0 L24.0 29.85 22.1 30.6 26.75 29.75 27.65 29.35 28.75 28.6 25.35 29.0 M21.05 36.5 L22.7 36.15 Q23.95 35.7 23.9 34.35 L23.85 34.3 23.75 34.2 23.65 34.1 23.6 34.15 23.35 34.2 Q22.25 34.25 21.8 35.05 L21.05 36.5" fill="#ffff99" fill-opacity="0.49803922" fill-rule="evenodd" stroke="none"/>
    <path d="M45.15 15.7 Q45.75 16.1 45.6 16.85 46.6 18.2 48.0 18.95 L48.0 28.85 46.15 29.65 43.85 30.65 Q38.8 32.75 33.55 33.35 32.15 34.2 31.55 35.95 L30.6 38.1 29.95 38.6 Q26.85 45.35 19.4 47.8 L18.9 48.0 13.25 48.0 Q16.75 43.8 22.7 42.8 24.85 42.45 26.3 40.7 29.15 37.15 29.45 32.55 29.45 32.1 29.95 32.0 31.75 31.5 32.15 29.95 L32.3 29.5 31.7 29.85 31.5 29.95 30.4 30.85 Q28.65 31.9 27.9 33.75 L26.95 34.6 Q27.25 37.3 24.85 38.45 22.45 39.55 20.05 39.2 L19.1 40.2 18.0 41.1 Q17.45 42.1 16.05 42.65 L14.35 43.25 11.5 44.35 9.65 44.55 Q8.7 46.5 6.85 48.0 4.75 47.8 3.3 47.05 L2.8 46.75 Q4.95 45.45 6.75 43.55 7.55 42.7 8.55 42.2 10.75 40.95 13.45 40.65 14.45 40.55 15.2 39.75 L16.25 38.7 16.0 38.65 15.45 38.45 Q14.6 38.05 13.6 38.1 L11.5 40.1 Q9.7 41.6 7.05 40.95 5.8 40.65 4.9 40.05 L1.15 39.9 0.0 39.5 0.0 36.35 1.35 36.45 2.2 36.85 2.7 35.35 3.6 33.55 Q3.2 33.1 2.9 32.3 2.1 29.95 0.15 29.0 L0.0 28.95 0.0 26.05 0.65 26.1 3.35 26.55 3.95 26.75 4.0 26.85 4.1 27.15 4.15 27.35 4.15 27.45 4.25 27.7 4.25 27.9 4.25 28.0 4.2 28.05 4.6 28.8 Q6.5 28.3 8.15 27.15 10.85 25.25 13.8 24.15 L16.0 23.55 16.15 23.55 16.05 22.45 Q15.9 21.65 15.15 21.25 13.25 20.1 11.15 19.45 L8.55 19.4 7.3 19.1 6.7 19.2 Q5.6 20.15 3.9 20.65 L0.0 21.3 0.0 18.75 3.2 18.5 4.95 17.4 Q6.25 16.4 7.75 15.9 L7.45 14.95 7.3 14.1 7.0 13.75 Q6.45 13.05 5.6 12.65 2.95 11.4 0.0 12.2 L0.0 9.5 0.85 9.95 1.65 9.5 3.5 9.35 5.1 10.3 5.3 10.5 Q8.5 12.25 11.15 14.55 14.3 14.3 17.35 13.3 L18.7 13.0 16.35 11.25 Q15.4 10.6 14.25 10.55 L10.65 9.9 8.7 9.55 Q7.3 9.6 5.95 8.6 5.3 8.1 5.15 7.4 L3.75 5.95 Q2.3 4.2 1.5 2.4 2.4 1.25 3.95 0.65 L4.15 0.55 4.4 0.95 5.85 2.8 6.05 3.35 6.5 3.75 Q6.95 4.25 6.85 5.0 L6.95 5.2 7.5 6.0 10.45 6.9 11.15 7.05 14.2 7.25 10.8 2.45 Q9.9 1.3 8.7 0.65 L7.95 0.0 11.8 0.0 12.85 0.75 13.3 1.55 14.15 2.6 15.3 4.5 Q16.65 7.6 19.7 9.25 20.9 9.9 21.7 10.85 L21.65 11.05 21.45 11.45 21.35 11.7 21.2 12.1 21.25 12.25 21.35 12.45 Q22.95 13.25 24.95 13.5 25.95 13.65 26.65 14.05 L26.65 13.75 26.85 12.8 Q25.6 11.05 23.9 9.75 21.4 9.25 19.55 7.65 19.15 6.35 18.35 5.2 L17.1 4.0 16.8 3.65 16.25 3.3 14.9 1.85 13.35 0.2 13.25 0.0 18.3 0.0 18.5 0.0 18.95 0.55 Q20.6 2.7 20.75 5.3 L21.4 6.5 Q21.9 7.4 23.0 7.5 L26.45 8.05 26.9 7.7 27.1 7.0 27.1 6.5 25.85 5.4 Q24.55 3.9 24.15 1.8 24.0 1.05 23.3 0.7 L22.75 0.85 Q21.45 0.95 21.2 0.0 L26.15 0.0 Q26.85 1.0 27.15 2.45 L27.9 4.55 28.5 5.0 29.4 5.85 Q30.0 6.3 30.4 6.9 L30.4 6.95 30.35 6.95 31.85 8.7 Q32.5 9.65 32.8 10.8 35.65 12.7 39.3 13.55 L42.8 14.5 Q44.05 14.95 45.15 15.7 M43.75 19.1 L43.1 19.05 Q42.35 19.0 41.95 19.6 L41.1 20.6 40.95 20.8 Q43.35 21.45 45.5 20.8 L46.65 20.55 45.45 19.65 43.75 19.1 M45.35 26.5 Q40.7 26.15 36.55 27.85 L36.0 28.2 Q35.55 28.9 35.5 29.85 36.8 30.45 38.15 30.45 L38.2 30.45 38.4 30.45 40.5 30.0 Q43.4 28.95 45.65 26.95 L45.55 26.8 45.5 26.7 45.35 26.5 M28.7 9.1 L28.65 9.1 27.65 9.75 27.5 9.95 27.85 11.1 Q28.5 11.65 28.8 12.5 L28.95 13.4 30.15 15.25 30.2 15.3 Q31.1 15.5 31.55 16.45 L31.8 17.25 32.35 18.2 Q32.75 18.9 33.55 19.1 L37.55 19.9 38.0 19.95 39.7 18.85 41.95 17.1 Q38.4 14.95 34.15 14.15 30.85 13.5 29.55 10.25 L28.7 9.1 M29.8 6.85 L29.7 6.85 29.9 7.0 29.8 6.85 M27.25 18.05 L27.0 17.95 24.25 17.1 12.85 16.75 Q15.85 17.35 18.45 18.8 L19.45 19.4 Q23.95 22.1 28.2 18.65 L28.1 18.55 27.55 18.2 27.25 18.05 M21.1 22.8 L20.8 22.6 Q19.75 21.85 18.6 21.6 19.8 24.15 22.85 25.1 L24.55 25.45 Q27.0 25.65 28.55 24.95 27.45 23.4 25.95 22.85 L25.25 22.85 23.4 22.75 22.25 23.1 Q21.35 23.2 21.1 22.8 M28.35 21.15 Q28.95 22.55 30.15 23.3 L31.55 23.5 Q33.4 23.55 35.1 24.3 L37.05 23.95 37.05 23.8 37.15 23.45 34.65 22.1 31.4 20.25 29.55 20.65 28.35 21.15 M37.6 23.8 L37.7 23.75 37.6 23.7 37.6 23.8 M20.0 28.3 L22.3 28.0 21.6 27.4 Q19.15 25.75 16.25 25.45 12.9 26.45 9.8 28.3 6.55 30.3 5.6 34.0 L5.6 34.1 Q5.7 34.65 5.4 35.45 L4.8 37.3 4.6 37.75 Q6.9 39.25 9.65 37.95 L10.45 37.8 Q11.9 35.9 13.75 34.35 L14.35 33.25 Q14.5 32.5 14.95 32.05 L14.9 31.15 14.7 29.75 Q15.15 29.35 15.75 29.2 17.85 28.6 20.0 28.3 M15.7 35.6 L15.75 35.65 15.95 35.9 17.5 35.7 Q18.4 35.05 18.6 33.85 19.0 31.75 20.9 31.35 L26.8 30.25 27.95 29.75 30.2 28.15 25.0 28.55 23.8 29.35 Q20.65 30.6 17.6 32.1 16.25 32.8 16.0 34.35 L15.7 35.6 M23.3 33.7 Q21.95 33.75 21.35 34.8 L20.3 36.95 20.25 37.1 22.85 36.6 Q24.55 36.0 24.4 34.2 L24.2 33.95 24.1 33.85 24.0 33.75 23.3 33.7" fill="#ffff99" fill-opacity="0.7490196" fill-rule="evenodd" stroke="none"/>
    <path d="M40.55 15.55 Q39.8 15.0 35.6 14.05 31.85 13.2 31.8 12.6 31.7 11.65 30.7 10.55 L28.85 8.45 28.2 8.85 28.0 9.0 26.9 9.9 Q26.9 10.65 28.4 13.7 L29.05 14.9 29.2 15.05 30.4 16.05 30.4 16.1 30.6 16.2 Q30.95 16.45 30.95 17.45 L30.95 17.7 Q31.0 18.3 31.4 18.85 32.45 20.05 35.7 20.6 L36.8 20.7 38.8 20.1 Q40.45 19.6 41.2 18.95 42.1 18.2 43.75 17.8 L40.55 15.55 M44.95 16.7 L45.2 17.6 Q45.95 17.7 46.0 18.3 L46.7 18.8 48.0 19.55 48.0 27.85 46.8 27.95 44.25 29.35 Q41.65 30.8 40.85 31.05 L32.8 33.0 Q31.35 34.15 30.75 35.5 L30.55 35.6 28.75 39.15 Q26.75 42.6 25.85 43.2 24.0 44.5 21.9 45.45 L18.45 47.05 17.65 48.0 14.25 48.0 15.95 46.05 Q16.25 45.6 17.7 45.4 19.35 45.2 20.1 44.8 20.85 44.45 22.1 44.2 23.15 44.0 24.15 43.25 27.05 41.1 28.3 38.95 29.25 37.1 29.25 34.65 29.25 33.55 30.05 32.8 L30.35 32.55 Q30.9 32.15 31.6 31.9 L32.85 31.25 Q33.3 30.75 33.3 29.3 L33.4 28.45 32.85 28.45 Q32.05 28.45 29.65 30.5 L28.1 31.8 28.1 32.0 Q28.1 32.6 27.2 33.25 26.25 33.8 26.2 34.55 26.1 36.0 25.65 36.95 25.25 37.75 24.05 38.05 L19.95 38.6 Q19.3 38.65 18.4 39.65 L18.05 40.05 17.3 40.95 Q16.05 42.4 14.8 42.4 L10.4 43.95 9.55 43.7 6.85 46.75 5.55 47.8 3.55 47.2 7.55 44.4 8.55 43.0 Q9.35 42.0 10.8 42.0 13.75 42.0 15.1 41.0 L15.7 40.2 16.45 39.5 17.4 37.9 15.5 37.65 14.85 37.3 Q13.65 37.3 12.95 37.8 L12.4 38.3 12.2 38.65 Q11.65 40.05 7.65 40.05 L5.7 39.75 4.8 39.45 Q4.6 39.45 4.45 39.65 L4.1 39.85 2.65 39.4 1.2 39.15 0.0 38.95 0.0 37.15 0.65 37.2 2.45 37.6 Q3.0 37.6 3.7 35.6 L4.25 33.55 3.4 31.6 3.45 31.55 2.5 29.7 Q1.65 28.35 0.0 27.9 L0.0 27.2 0.95 27.35 1.5 27.25 1.95 27.1 Q3.05 27.1 3.75 28.4 L4.45 30.05 8.75 27.5 12.8 24.85 16.05 24.4 16.75 24.4 16.75 24.35 17.05 23.5 17.15 23.1 16.8 21.75 14.95 20.3 14.1 19.55 13.15 19.35 7.2 18.3 5.2 19.5 Q3.0 20.6 0.0 20.6 L0.0 19.45 1.15 19.5 Q3.85 19.5 5.35 18.2 6.9 16.95 7.85 16.95 L10.6 17.45 13.8 17.95 16.6 18.35 16.75 18.3 Q17.45 18.25 17.95 19.3 19.05 19.9 19.95 20.45 21.8 21.4 22.45 21.4 25.1 21.4 26.7 20.25 28.35 19.05 29.95 19.05 L30.95 19.2 Q24.9 15.6 21.45 15.55 L20.45 15.7 19.15 15.25 14.25 15.85 12.2 16.25 10.4 16.55 Q9.55 16.55 9.05 15.4 L8.25 13.7 Q7.2 12.7 3.4 11.05 L1.25 11.45 0.0 11.7 0.0 10.45 0.85 10.75 2.0 10.4 Q2.7 10.0 2.9 10.0 3.75 10.0 11.2 15.15 L19.85 13.75 19.55 13.35 Q18.1 10.95 16.8 10.45 L9.65 9.1 Q6.35 8.4 5.75 6.85 L5.5 6.6 4.4 5.3 Q3.55 4.95 2.8 3.5 L2.0 1.9 Q2.5 1.4 3.15 1.05 L4.5 2.6 6.1 4.2 6.0 4.8 6.3 5.85 Q6.45 6.45 8.2 7.25 L9.1 7.7 12.8 7.9 14.95 7.75 15.15 7.4 Q15.15 6.5 13.55 5.1 11.65 3.45 11.15 2.3 10.55 1.0 9.4 0.0 L10.95 0.0 13.1 2.15 Q14.0 2.75 14.15 3.8 L14.65 5.35 16.6 7.9 18.55 9.1 Q21.1 10.65 21.1 11.0 L20.75 11.5 20.4 12.05 Q20.4 13.15 21.55 13.45 L26.85 14.8 27.75 15.15 27.4 14.4 27.1 13.85 27.35 13.3 27.5 12.75 Q27.5 12.15 26.95 11.5 L26.95 11.55 26.9 11.7 Q26.3 11.4 25.45 10.1 24.35 8.95 22.25 8.6 20.8 8.35 20.1 7.3 L19.3 5.35 16.15 2.15 14.25 0.0 17.45 0.0 17.45 0.05 Q19.35 2.85 19.9 4.25 20.1 5.7 20.4 6.35 20.95 7.6 22.65 8.05 L25.1 8.25 Q26.1 8.35 26.4 8.75 26.6 8.6 26.95 8.4 L27.6 7.9 27.65 7.45 27.7 7.25 Q27.7 6.55 28.0 6.4 L26.65 5.5 Q25.2 4.45 25.2 3.3 25.35 2.65 24.75 1.65 L23.6 0.05 23.25 0.15 22.7 0.3 21.85 0.0 25.15 0.0 Q25.8 1.05 26.3 2.9 26.6 4.35 28.0 5.45 L29.05 6.75 29.3 7.0 Q30.8 8.4 32.45 11.35 32.8 12.1 34.25 12.45 L37.75 13.3 43.6 15.8 Q44.6 15.8 44.95 16.7 M40.7 20.25 L40.05 21.15 41.45 21.55 44.0 21.8 44.95 21.95 Q45.75 21.35 47.5 20.9 L46.75 20.0 45.3 18.95 43.2 18.6 Q41.9 18.6 40.7 20.25 M47.5 25.7 L45.25 25.65 43.8 25.7 42.75 25.65 41.55 26.05 39.6 26.1 38.75 26.05 Q37.6 26.25 36.8 26.55 35.6 27.3 35.05 28.4 34.7 29.25 34.6 30.15 L35.1 30.7 35.45 30.6 36.05 30.85 36.55 31.05 Q40.35 31.05 43.4 29.35 45.35 28.2 46.55 26.65 L47.85 25.7 47.5 25.7 M21.95 22.55 L19.65 21.15 17.85 20.15 17.3 20.25 17.3 20.55 17.35 20.75 17.65 21.4 17.9 22.0 18.6 23.4 Q18.9 24.0 19.9 24.45 L21.35 25.1 22.45 25.6 24.25 26.5 26.55 26.15 28.6 25.7 30.25 25.35 28.85 24.25 28.15 23.5 27.3 22.6 26.3 22.25 25.95 22.3 24.75 22.0 21.95 22.55 M27.0 20.95 Q27.75 21.0 28.0 21.55 L28.4 22.65 29.3 23.65 Q29.9 24.15 33.45 24.65 L35.35 25.05 35.9 24.95 36.9 24.7 37.15 24.75 39.1 23.3 Q35.7 22.25 31.8 19.75 L31.4 19.55 31.4 19.6 27.4 20.5 27.0 20.95 M17.0 24.95 Q13.55 25.05 8.85 28.35 L6.65 29.9 5.95 30.75 Q5.05 31.8 5.05 32.15 L4.9 34.7 4.15 37.35 3.85 38.2 5.1 38.7 Q5.75 39.35 6.85 39.35 L8.45 39.0 Q9.05 38.65 10.5 38.6 L10.75 38.4 10.8 38.15 Q10.8 37.8 12.6 36.5 L14.65 34.8 15.25 33.05 15.6 31.35 15.45 30.95 15.25 30.55 Q15.25 30.05 17.75 29.55 L22.65 28.6 Q23.05 28.5 23.3 28.05 L22.05 26.7 20.85 25.75 19.55 25.3 19.05 25.1 17.8 25.0 17.45 25.1 17.0 24.95 M13.65 36.9 Q14.75 36.5 16.05 36.35 L18.25 36.3 18.8 35.2 Q19.0 33.25 19.9 32.55 20.4 32.15 21.45 31.9 L21.5 31.8 21.6 31.85 26.3 31.4 26.7 31.3 30.65 28.3 32.75 27.0 32.0 27.05 26.65 27.5 24.85 28.05 24.85 28.25 22.05 29.35 18.55 30.75 Q16.75 30.6 14.85 34.65 L13.65 36.9 M19.4 37.1 L19.4 37.15 19.15 37.85 18.9 38.2 20.85 37.7 Q25.2 36.9 25.05 35.1 L25.05 32.95 23.25 33.05 21.1 33.4 20.45 34.05 20.3 34.3 20.1 35.1 19.4 37.1" fill="#ffffff" fill-rule="evenodd" stroke="none"/>
  </g>
</svg>
