<?xml version="1.0" encoding="UTF-8" standalone="no"?>
<svg xmlns:ffdec="https://www.free-decompiler.com/flash" xmlns:xlink="http://www.w3.org/1999/xlink" ffdec:objectType="shape" height="48.0px" width="40.8px" xmlns="http://www.w3.org/2000/svg">
  <g transform="matrix(1.0, 0.0, 0.0, 1.0, -3.2, 0.0)">
    <path d="M24.35 0.0 L25.45 0.0 25.25 0.55 24.35 0.0" fill="#ebffff" fill-opacity="0.6" fill-rule="evenodd" stroke="none"/>
    <path d="M25.45 0.0 L27.45 0.0 27.95 0.5 28.75 1.5 30.75 3.45 33.45 6.1 37.1 8.5 37.05 8.45 Q39.2 9.6 41.4 10.45 L42.15 10.6 42.45 10.75 43.3 11.3 43.35 11.35 Q44.0 11.8 44.0 13.3 L44.0 13.6 44.0 14.3 43.75 16.65 43.5 19.05 43.45 19.05 42.4 22.9 Q39.8 31.6 34.9 39.3 L34.9 39.25 33.55 41.2 33.2 41.75 32.9 42.1 32.65 42.35 31.75 43.3 31.45 43.6 31.15 43.95 29.25 45.7 26.85 47.5 26.0 48.0 21.9 48.0 Q20.95 47.65 20.05 46.75 L19.0 45.85 18.95 45.85 Q14.75 41.5 11.65 36.6 L11.7 36.6 Q9.6 33.45 8.15 30.0 L6.45 25.8 Q5.65 23.8 5.15 21.85 L5.2 22.05 4.85 21.1 4.85 21.15 4.7 20.7 4.65 20.45 3.4 13.8 Q3.1 13.05 3.25 12.25 3.35 11.65 3.8 11.25 L3.95 11.1 4.25 10.8 Q4.8 10.25 5.55 10.05 L6.1 10.0 7.05 9.65 7.05 9.6 10.75 8.05 10.8 8.05 11.3 7.8 13.9 6.25 13.85 6.3 15.45 5.15 19.35 1.3 19.4 1.25 20.55 0.0 24.35 0.0 25.25 0.55 25.45 0.0 M32.0 11.65 L29.15 9.5 29.15 9.45 24.1 4.6 Q21.15 7.8 17.65 10.3 L17.7 10.3 Q13.85 13.05 9.5 15.0 10.65 19.75 12.2 24.45 14.95 32.6 20.45 39.25 L20.45 39.3 Q21.85 40.95 23.6 42.3 L26.0 40.55 Q31.0 35.7 34.25 29.25 L34.2 29.3 Q35.95 25.55 37.15 21.6 L37.15 21.65 37.65 19.6 37.8 18.75 38.3 15.1 36.1 14.1 33.8 13.05 33.75 13.0 33.55 12.9 33.4 12.8 32.7 12.4 32.4 12.15 32.0 11.65" fill="#ebffff" fill-opacity="0.44705883" fill-rule="evenodd" stroke="none"/>
    <path d="M41.85 11.55 L42.2 11.75 42.55 12.0 42.8 12.45 Q43.0 12.7 43.0 13.3 L42.95 13.6 43.0 14.25 42.75 16.45 42.5 18.85 41.4 22.6 41.4 22.65 Q38.85 31.2 34.05 38.75 L32.7 40.65 32.3 41.25 32.05 41.5 31.95 41.65 31.0 42.55 30.6 43.05 30.45 43.25 28.55 45.0 26.35 46.65 25.15 47.4 24.6 47.55 22.95 47.35 23.05 47.35 22.45 47.15 Q21.6 46.85 20.85 46.15 L19.7 45.15 Q15.55 40.85 12.5 36.05 10.5 33.0 9.1 29.6 L7.4 25.45 Q6.6 23.5 6.1 21.6 L6.15 21.7 5.75 20.75 5.8 20.8 5.65 20.35 5.6 20.25 4.4 13.5 Q4.1 13.05 4.25 12.45 4.3 12.15 4.5 11.95 L4.65 11.8 4.95 11.5 Q5.3 11.15 5.75 11.05 L6.2 11.05 6.3 11.05 Q6.75 10.75 7.35 10.55 L7.4 10.55 11.25 8.95 11.2 8.95 11.75 8.65 14.45 7.1 16.1 5.9 16.05 5.95 Q18.25 4.15 20.15 1.9 L21.95 0.0 26.0 0.0 27.2 1.2 28.05 2.25 28.1 2.3 30.05 4.15 32.95 6.95 36.6 9.35 41.2 11.45 41.25 11.45 41.85 11.55 M32.85 11.05 L29.8 8.7 Q26.8 6.1 24.1 3.15 20.95 6.75 17.1 9.5 L17.1 9.45 Q13.0 12.4 8.35 14.45 9.55 19.6 11.25 24.75 14.05 33.1 19.65 39.9 L19.7 39.95 Q21.4 41.9 23.5 43.5 L26.65 41.35 26.6 41.4 Q31.75 36.4 35.15 29.7 L35.15 29.75 Q36.9 25.9 38.15 21.85 L38.1 21.9 38.65 19.8 38.8 18.95 39.4 14.45 36.45 13.15 34.25 12.15 34.0 12.05 33.9 12.0 33.25 11.55 33.1 11.4 32.85 11.05" fill="#ebffff" fill-opacity="0.6" fill-rule="evenodd" stroke="none"/>
    <path d="M42.2 12.35 L42.35 12.6 42.4 12.85 42.5 13.3 42.45 13.55 42.45 13.6 42.5 14.25 42.25 16.55 42.0 18.75 40.95 22.5 40.95 22.45 Q38.4 30.95 33.65 38.5 L33.65 38.45 32.25 40.4 31.95 40.85 31.95 40.9 31.7 41.15 31.6 41.3 30.65 42.2 30.2 42.75 30.1 42.85 28.2 44.65 26.1 46.2 24.85 46.95 24.6 47.05 23.1 46.85 22.75 46.75 Q21.9 46.45 21.15 45.7 20.55 45.35 20.05 44.8 15.95 40.55 12.95 35.8 10.95 32.75 9.55 29.4 L7.85 25.25 Q7.05 23.35 6.6 21.45 L6.6 21.5 6.25 20.6 6.1 20.2 6.1 20.15 4.85 13.3 Q4.6 12.95 4.7 12.55 L4.85 12.3 5.0 12.15 5.3 11.85 Q5.55 11.6 5.9 11.55 L6.1 11.5 6.4 11.55 6.45 11.55 Q6.95 11.25 7.55 11.05 L11.45 9.4 12.0 9.1 14.75 7.5 16.4 6.3 Q18.65 4.5 20.55 2.25 L22.45 0.2 22.45 0.0 25.35 0.0 25.35 0.1 26.85 1.5 27.65 2.6 27.6 2.5 29.65 4.5 32.6 7.3 32.6 7.35 Q34.4 8.65 36.35 9.8 L36.35 9.75 Q38.75 11.05 41.15 11.95 L41.25 11.95 41.65 12.05 41.95 12.2 42.2 12.35 M42.45 13.6 L42.4 13.65 42.4 13.75 42.45 13.6 M34.5 11.7 L34.25 11.6 34.2 11.55 33.55 11.15 33.45 11.05 33.25 10.7 30.15 8.35 Q26.95 5.55 24.1 2.4 20.85 6.2 16.8 9.05 12.65 12.05 7.9 14.05 L7.9 14.1 7.8 14.15 Q9.0 19.55 10.8 24.9 13.6 33.35 19.3 40.25 21.15 42.4 23.5 44.1 L26.95 41.7 26.95 41.75 Q32.2 36.7 35.6 29.95 37.4 26.1 38.6 22.0 L38.6 22.05 39.1 19.9 39.3 19.05 39.9 14.1 Q38.25 13.5 36.7 12.7 35.55 12.3 34.5 11.75 L34.5 11.7" fill="#ebffff" fill-opacity="0.69803923" fill-rule="evenodd" stroke="none"/>
    <path d="M41.95 13.2 L42.0 13.3 41.95 13.35 41.9 13.65 42.0 14.2 41.75 16.45 41.5 18.65 40.45 22.3 Q37.95 30.75 33.2 38.2 L31.75 40.2 31.55 40.55 31.3 40.8 31.25 40.95 30.3 41.85 29.8 42.5 27.85 44.25 25.85 45.75 24.6 46.55 23.2 46.35 22.95 46.25 21.4 45.3 20.4 44.45 Q16.35 40.25 13.35 35.5 11.4 32.5 10.0 29.2 L8.3 25.05 7.05 21.35 6.7 20.4 6.6 20.05 5.35 13.2 5.3 13.1 5.2 12.65 5.35 12.5 5.65 12.2 Q5.8 12.05 6.0 12.0 L6.5 12.05 6.55 12.05 6.7 11.95 7.7 11.5 11.7 9.85 12.2 9.55 15.0 7.9 16.7 6.7 Q19.0 4.85 20.9 2.55 L23.25 0.2 22.95 0.1 23.0 0.1 23.3 0.1 23.4 0.0 24.75 0.0 24.95 0.4 26.45 1.85 27.25 2.85 29.3 4.85 32.3 7.7 Q34.1 9.05 36.1 10.2 38.6 11.55 41.1 12.5 L41.25 12.45 41.5 12.5 41.75 12.65 41.85 12.7 41.95 13.2 M34.0 10.6 Q32.15 9.4 30.45 7.95 27.2 5.1 24.25 1.85 L23.95 1.75 Q20.65 5.7 16.5 8.65 12.4 11.6 7.7 13.6 L7.15 13.65 Q8.4 19.4 10.3 25.05 13.15 33.6 18.9 40.55 20.9 42.9 23.45 44.7 L27.3 42.1 Q32.6 37.0 36.05 30.15 37.85 26.25 39.1 22.15 L39.6 20.0 39.8 19.15 40.4 14.1 40.3 13.7 36.9 12.25 34.75 11.3 34.45 11.15 33.8 10.7 33.75 10.6 34.0 10.6" fill="#ebffff" fill-opacity="0.8" fill-rule="evenodd" stroke="none"/>
    <path d="M23.95 1.3 L24.0 1.25 24.05 1.3 25.5 2.3 Q27.4 4.8 29.95 7.1 35.25 11.9 40.85 13.6 L40.3 17.55 Q39.75 21.05 38.75 23.75 34.75 34.9 27.5 42.45 L26.5 43.5 24.25 45.25 22.1 44.1 Q16.85 39.2 14.35 35.2 13.4 33.7 12.15 30.85 L10.15 26.55 Q8.65 21.7 7.15 14.85 L6.95 13.35 Q11.95 12.0 17.85 7.1 21.8 3.8 23.65 1.45 L23.9 1.3 23.9 1.25 23.95 1.3 M23.25 9.05 L23.2 6.3 Q23.3 4.7 24.05 3.75 L23.95 3.6 Q22.8 5.25 19.1 8.45 14.25 12.6 11.05 13.35 L10.25 13.9 10.1 14.1 9.4 14.25 9.4 14.3 11.0 14.95 Q14.0 16.25 16.3 16.5 L16.35 16.5 16.55 16.5 16.8 16.5 20.0 16.45 21.5 15.5 21.6 15.55 22.3 12.9 23.25 9.6 23.25 9.05 M24.1 7.8 L24.1 7.85 24.95 11.3 25.0 11.55 25.55 13.75 25.75 14.75 25.95 15.7 26.5 16.05 Q27.65 16.6 28.75 16.6 L31.1 16.55 28.25 17.0 28.15 17.0 27.75 17.1 27.3 17.15 25.85 17.45 25.1 22.0 25.15 22.0 25.2 22.2 24.85 23.3 24.75 23.6 25.65 24.65 26.05 25.2 26.3 25.25 Q27.3 26.0 28.45 26.35 L28.7 26.55 Q29.4 27.1 30.3 27.4 L30.6 27.5 30.7 27.55 33.25 27.85 Q34.85 27.85 35.45 25.9 L36.0 25.65 37.35 21.9 37.75 20.05 38.8 15.25 38.75 14.95 38.7 14.75 35.65 15.7 37.0 15.1 38.45 14.2 37.8 14.1 37.65 13.9 36.85 13.35 Q35.6 13.05 34.05 12.25 31.75 10.95 28.8 8.45 L25.75 5.65 24.5 4.35 Q24.5 5.75 24.1 7.8 M23.85 10.6 L23.65 10.0 23.5 10.75 22.7 13.75 Q22.15 14.0 22.15 15.05 L22.6 18.45 Q23.15 22.15 23.8 22.15 L24.7 21.85 Q25.1 21.55 25.1 21.0 L25.0 18.15 25.25 16.1 24.95 14.65 24.85 14.4 23.85 10.6 M17.45 26.95 L18.05 26.6 19.5 25.35 20.15 24.55 20.55 23.85 Q21.2 22.5 21.55 20.05 L21.8 19.25 21.75 18.25 22.1 18.3 21.75 16.9 21.7 16.95 21.4 17.15 20.85 17.2 20.4 17.2 19.25 17.2 16.5 17.0 15.1 16.8 14.95 16.75 12.9 16.3 12.45 16.15 11.95 16.0 9.15 15.0 9.1 15.25 10.15 20.05 10.2 20.2 10.55 21.9 11.85 25.5 12.8 28.05 14.7 28.0 17.45 26.95 M23.25 34.2 L23.8 29.0 23.75 26.95 24.0 25.35 Q24.0 22.9 23.05 22.75 L22.25 21.85 20.0 25.5 18.1 27.8 16.9 28.65 Q18.0 29.1 18.0 29.6 L18.5 30.05 20.9 31.9 21.0 32.0 21.1 32.05 21.15 32.15 22.5 33.5 23.05 34.2 23.1 34.2 23.25 34.5 23.25 34.2 M20.55 32.6 Q17.8 28.75 14.2 28.75 L13.35 29.4 13.35 29.45 14.3 31.25 14.85 32.1 15.95 34.05 Q18.2 37.75 21.0 40.4 L23.2 42.3 Q22.85 41.2 22.9 39.5 L22.9 39.4 23.1 37.45 Q21.75 34.3 20.55 32.6 M34.55 29.45 L35.25 27.75 Q33.95 28.15 33.0 28.95 L32.9 32.45 33.05 32.1 34.55 29.45 M31.45 34.9 L31.7 34.45 32.1 31.85 Q32.1 29.55 30.7 28.55 L30.45 28.4 26.0 25.7 24.4 26.1 24.25 27.85 24.5 31.35 Q23.5 33.75 23.5 37.05 L23.5 38.3 Q23.65 38.9 24.05 39.2 L24.45 40.8 24.85 42.2 25.55 41.65 Q28.8 38.9 31.45 34.9" fill="#00b7dd" fill-rule="evenodd" stroke="none"/>
    <path d="M16.3 16.5 Q14.0 16.25 11.0 14.95 L9.4 14.3 9.4 14.25 10.1 14.1 10.25 13.9 11.05 13.35 Q14.25 12.6 19.1 8.45 22.8 5.25 23.95 3.6 L24.05 3.75 Q23.3 4.7 23.2 6.3 L23.25 9.05 23.2 8.65 Q22.15 9.25 20.35 11.25 18.25 13.5 16.2 16.45 L16.3 16.5 M25.7 9.55 L24.7 8.25 24.15 7.75 24.1 7.8 Q24.5 5.75 24.5 4.35 L25.75 5.65 25.55 7.4 25.6 8.45 25.7 9.55 M25.75 14.75 L26.5 16.05 25.95 15.7 25.75 14.75 M30.7 27.55 L31.25 26.55 31.9 24.4 Q32.8 25.85 33.4 25.85 34.65 25.85 36.2 24.15 L36.3 23.95 Q37.4 21.75 37.4 19.75 37.4 16.7 32.75 17.7 L31.95 17.9 32.5 16.85 Q32.5 16.25 30.4 14.35 L30.45 14.35 30.65 14.35 Q33.55 14.35 34.05 12.25 35.6 13.05 36.85 13.35 L37.65 13.9 37.8 14.1 38.45 14.2 37.0 15.1 35.65 15.7 38.7 14.75 38.75 14.95 38.8 15.25 37.75 20.05 37.35 21.9 36.0 25.65 35.45 25.9 Q34.85 27.85 33.25 27.85 L30.7 27.55 M17.45 26.95 L14.7 28.0 12.8 28.05 11.85 25.5 14.1 25.65 16.9 25.2 16.95 25.15 17.25 26.5 17.45 26.95 M10.2 20.2 L10.15 20.05 9.1 15.25 9.15 15.0 11.95 16.0 12.45 16.15 12.9 16.3 14.95 16.75 15.1 16.8 Q10.45 17.2 10.2 19.5 L10.2 20.2 M18.1 27.8 L18.15 28.5 18.5 30.05 18.0 29.6 Q18.0 29.1 16.9 28.65 L18.1 27.8 M23.1 34.2 L23.25 34.2 23.25 34.5 23.1 34.2 M14.3 31.25 L13.35 29.45 13.35 29.4 14.2 28.75 Q17.8 28.75 20.55 32.6 L20.45 32.5 20.45 32.65 Q19.8 31.75 18.95 31.2 17.7 30.45 16.05 30.45 15.45 30.45 14.5 31.1 L14.3 31.25 M22.9 39.5 Q22.85 41.2 23.2 42.3 L21.0 40.4 21.05 40.4 Q21.9 39.65 22.05 39.05 L22.1 38.5 22.9 39.5 M34.55 29.45 L33.05 32.1 32.9 32.45 33.0 28.95 Q33.95 28.15 35.25 27.75 L34.55 29.45 M30.45 28.4 L30.7 28.55 Q32.1 29.55 32.1 31.85 L31.7 34.45 31.45 34.9 31.4 33.55 Q31.35 30.1 30.45 28.95 L30.2 28.7 30.45 28.4 M25.55 41.65 L24.85 42.2 24.45 40.8 25.0 39.4 25.4 41.05 25.55 41.65" fill="#ebffff" fill-rule="evenodd" stroke="none"/>
    <path d="M23.25 9.05 L23.25 9.6 22.3 12.9 21.6 15.55 21.5 15.5 20.0 16.45 16.8 16.5 16.55 16.5 16.35 16.5 16.3 16.5 16.2 16.45 Q18.25 13.5 20.35 11.25 22.15 9.25 23.2 8.65 L23.25 9.05 M24.1 7.8 L24.15 7.75 24.7 8.25 25.7 9.55 25.75 9.95 Q26.35 13.0 28.5 13.95 L28.6 14.0 28.8 14.1 28.9 14.15 29.05 14.2 29.2 14.25 29.35 14.25 29.45 14.3 29.65 14.3 29.9 14.35 29.95 14.35 30.1 14.35 30.3 14.35 30.4 14.35 Q32.5 16.25 32.5 16.85 L31.95 17.9 31.6 18.0 31.5 18.0 Q30.7 18.2 30.05 18.5 L29.9 18.9 29.9 19.0 29.9 19.05 29.9 19.85 Q29.9 20.5 31.15 23.0 L31.35 23.4 31.55 23.75 31.55 23.8 31.8 24.2 31.9 24.4 31.25 26.55 30.7 27.55 30.6 27.5 30.3 27.4 Q29.4 27.1 28.7 26.55 L28.45 26.35 Q27.3 26.0 26.3 25.25 L26.05 25.2 25.65 24.65 24.75 23.6 24.85 23.3 25.2 22.2 25.15 22.0 25.1 22.0 25.85 17.45 27.3 17.15 27.75 17.1 28.15 17.0 28.25 17.0 31.1 16.55 28.75 16.6 Q27.65 16.6 26.5 16.05 L25.75 14.75 25.55 13.75 25.0 11.55 24.95 11.3 24.1 7.85 24.1 7.8 M23.5 10.75 L23.85 10.6 24.85 14.4 24.95 14.65 Q22.85 15.1 22.85 17.75 22.85 19.85 23.65 21.75 L23.8 22.15 Q23.15 22.15 22.6 18.45 L22.15 15.05 Q22.15 14.0 22.7 13.75 L23.5 10.75 M19.25 17.2 L20.4 17.2 20.85 17.2 21.4 17.15 21.7 16.95 21.75 16.9 22.1 18.3 21.75 18.25 21.8 19.25 21.55 20.05 Q21.2 22.5 20.55 23.85 L20.15 24.55 19.5 25.35 18.05 26.6 17.45 26.95 17.25 26.5 16.95 25.15 Q18.4 24.55 19.3 23.25 20.25 21.8 20.25 20.4 20.25 18.05 19.25 17.2 M18.1 27.8 L20.0 25.5 22.25 21.85 23.05 22.75 Q24.0 22.9 24.0 25.35 L23.75 26.95 23.8 29.0 23.25 34.2 23.1 34.2 23.05 34.2 22.5 33.5 21.15 32.15 21.1 32.05 21.0 32.0 20.9 31.9 18.5 30.05 18.15 28.5 18.1 27.8 M26.35 20.9 Q25.6 21.9 25.6 23.1 L25.8 23.75 Q26.15 24.5 27.4 25.55 L27.6 25.7 Q29.25 27.0 30.9 27.2 L30.2 27.05 31.25 25.65 31.25 25.5 30.8 24.55 30.5 24.15 30.45 24.05 30.35 23.95 30.1 23.6 30.05 23.55 30.0 23.5 28.65 22.15 27.7 21.25 26.35 20.9 M19.85 29.85 Q21.7 29.85 23.05 28.55 22.95 25.8 22.35 24.35 L20.4 26.7 Q19.4 28.05 19.15 29.05 L19.85 29.85 M20.45 32.65 L20.45 32.5 20.55 32.6 Q21.75 34.3 23.1 37.45 L22.9 39.4 22.9 39.5 22.1 38.5 22.1 38.4 22.1 38.0 22.1 37.8 Q22.1 36.0 21.2 33.95 L20.45 32.65 M30.45 28.4 L30.2 28.7 29.85 28.45 29.3 28.35 Q25.85 28.35 24.9 32.95 24.45 35.25 24.65 37.6 L24.8 38.65 25.0 39.4 24.45 40.8 24.05 39.2 Q23.65 38.9 23.5 38.3 L23.5 37.05 Q23.5 33.75 24.5 31.35 L24.25 27.85 24.4 26.1 26.0 25.7 30.45 28.4" fill="#84eaff" fill-rule="evenodd" stroke="none"/>
    <path d="M23.85 10.6 L23.5 10.75 23.65 10.0 23.85 10.6" fill="#00d0ff" fill-rule="evenodd" stroke="none"/>
    <path d="M31.8 24.2 L31.55 23.8 31.55 23.75 31.35 23.4 31.15 23.0 Q29.9 20.5 29.9 19.85 L29.9 19.05 29.9 19.0 29.9 18.9 30.05 18.5 Q30.7 18.2 31.5 18.0 L31.6 18.0 31.95 17.9 32.75 17.7 Q32.7 20.45 32.25 22.6 L31.8 24.2 M30.4 14.35 L30.3 14.35 30.1 14.35 29.95 14.35 29.9 14.35 29.65 14.3 29.45 14.3 29.35 14.25 29.2 14.25 29.05 14.2 28.9 14.15 28.8 14.1 28.6 14.0 28.5 13.95 Q26.35 13.0 25.75 9.95 L25.7 9.55 25.6 8.45 27.6 11.4 30.45 14.35 30.4 14.35 M23.8 22.15 L23.65 21.75 Q22.85 19.85 22.85 17.75 22.85 15.1 24.95 14.65 L25.25 16.1 25.0 18.15 25.1 21.0 Q25.1 21.55 24.7 21.85 L23.8 22.15 M16.5 17.0 L19.25 17.2 Q20.25 18.05 20.25 20.4 20.25 21.8 19.3 23.25 18.4 24.55 16.95 25.15 L16.9 25.2 16.6 23.95 15.6 17.8 15.65 16.9 16.5 17.0 M26.35 20.9 L27.7 21.25 28.65 22.15 30.0 23.5 30.05 23.55 30.1 23.6 30.35 23.95 30.45 24.05 30.5 24.15 30.8 24.55 31.25 25.5 31.25 25.65 30.2 27.05 30.9 27.2 Q29.25 27.0 27.6 25.7 L27.4 25.55 Q26.15 24.5 25.8 23.75 L25.6 23.1 Q25.6 21.9 26.35 20.9 M19.85 29.85 L19.15 29.05 Q19.4 28.05 20.4 26.7 L22.35 24.35 Q22.95 25.8 23.05 28.55 21.7 29.85 19.85 29.85 M18.95 31.2 Q19.8 31.75 20.45 32.65 L21.2 33.95 Q22.1 36.0 22.1 37.8 L22.1 38.0 Q20.5 36.7 19.05 31.75 L18.95 31.2 M30.2 28.7 L30.45 28.95 28.0 33.45 Q26.0 37.05 24.8 38.65 L24.65 37.6 Q24.45 35.25 24.9 32.95 25.85 28.35 29.3 28.35 L29.85 28.45 30.2 28.7" fill="#00c2ec" fill-rule="evenodd" stroke="none"/>
    <path d="M31.9 24.4 L31.8 24.2 32.25 22.6 Q32.7 20.45 32.75 17.7 37.4 16.7 37.4 19.75 37.4 21.75 36.3 23.95 L36.2 24.15 Q34.65 25.85 33.4 25.85 32.8 25.85 31.9 24.4 M25.6 8.45 L25.55 7.4 25.75 5.65 28.8 8.45 Q31.75 10.95 34.05 12.25 33.55 14.35 30.65 14.35 L30.45 14.35 27.6 11.4 25.6 8.45 M11.85 25.5 L10.55 21.9 10.2 20.2 10.2 19.5 Q10.45 17.2 15.1 16.8 L16.5 17.0 15.65 16.9 15.6 17.8 16.6 23.95 16.9 25.2 14.1 25.65 11.85 25.5 M14.3 31.25 L14.5 31.1 Q15.45 30.45 16.05 30.45 17.7 30.45 18.95 31.2 L19.05 31.75 Q20.5 36.7 22.1 38.0 L22.1 38.4 22.1 38.5 22.05 39.05 Q21.9 39.65 21.05 40.4 L21.0 40.4 Q18.2 37.75 15.95 34.05 L14.85 32.1 14.3 31.25 M30.45 28.95 Q31.35 30.1 31.4 33.55 L31.45 34.9 Q28.8 38.9 25.55 41.65 L25.4 41.05 25.0 39.4 24.8 38.65 Q26.0 37.05 28.0 33.45 L30.45 28.95" fill="#40ecff" fill-rule="evenodd" stroke="none"/>
  </g>
</svg>
