<?xml version="1.0" encoding="UTF-8" standalone="no"?>
<svg xmlns:ffdec="https://www.free-decompiler.com/flash" xmlns:xlink="http://www.w3.org/1999/xlink" ffdec:objectType="shape" height="40.8px" width="43.55px" xmlns="http://www.w3.org/2000/svg">
  <g transform="matrix(1.0, 0.0, 0.0, 1.0, -2.3, -5.9)">
    <path d="M41.1 8.25 Q42.6 8.85 42.85 10.4 L42.9 10.45 43.0 10.45 43.3 10.6 43.35 10.65 43.7 10.9 43.75 10.95 43.9 11.1 44.0 11.2 44.5 12.15 44.55 12.2 Q44.9 13.1 44.55 13.8 L44.6 14.3 Q45.25 15.35 45.5 16.6 L45.5 16.65 45.6 16.85 Q46.6 20.95 43.7 24.15 41.8 26.15 39.3 26.9 L39.2 27.0 38.85 27.1 38.65 27.1 36.7 27.1 36.55 27.1 36.45 27.05 35.65 26.95 35.35 26.95 35.15 27.0 Q30.15 28.1 28.6 32.85 28.15 34.3 28.1 35.85 L28.15 36.2 28.15 36.15 Q28.55 37.65 28.3 39.0 27.95 41.2 25.7 42.8 L23.55 44.2 Q20.5 45.8 17.2 46.4 L17.15 46.4 16.95 46.5 16.4 46.6 16.35 46.6 14.45 46.7 13.0 46.4 11.75 45.45 11.55 45.25 11.5 45.2 11.2 44.8 11.15 44.75 10.85 44.15 10.85 44.1 Q9.95 41.55 7.7 40.35 L7.5 40.1 7.5 39.75 7.7 39.5 8.05 39.4 9.05 39.55 9.25 39.65 10.05 40.0 10.25 40.1 10.55 40.3 14.9 40.45 14.95 40.45 Q16.75 39.7 17.55 38.05 18.2 36.7 18.1 35.45 16.6 33.75 14.6 32.75 L12.15 31.7 12.1 31.8 Q11.85 33.05 12.8 34.15 L13.6 35.1 13.7 35.35 13.65 35.65 13.6 35.75 13.3 36.0 9.8 36.65 6.95 36.3 4.45 34.8 4.4 34.75 Q3.25 33.65 2.85 32.1 2.4 30.55 2.3 29.0 L2.3 28.95 Q2.25 26.35 3.25 23.8 L3.25 23.75 3.7 22.85 3.9 22.6 5.55 21.7 5.6 21.7 5.95 21.55 6.1 21.45 6.2 21.4 6.25 21.4 7.2 21.1 7.5 21.1 7.7 21.2 7.85 21.45 7.85 21.55 7.9 21.65 7.95 21.9 7.95 22.2 7.8 22.55 7.8 22.6 7.7 23.05 7.8 23.65 Q8.45 24.75 10.05 25.1 13.25 25.8 16.0 23.95 L17.4 22.6 17.45 22.6 Q18.65 21.1 18.9 19.5 L19.0 18.65 19.0 18.6 Q19.35 16.95 19.95 15.45 L19.95 15.4 Q20.9 13.3 22.65 11.65 L22.7 11.65 23.7 10.75 23.75 10.75 23.85 10.6 Q27.4 7.4 32.1 6.3 L33.15 6.05 33.2 6.0 36.6 6.1 36.65 6.15 Q38.25 6.55 40.05 7.35 L40.15 7.4 40.9 8.15 41.1 8.25 M40.7 9.0 L40.6 9.15 40.55 9.2 40.3 9.35 40.2 9.35 40.15 9.35 40.05 9.35 40.0 9.3 39.85 9.2 39.7 8.85 39.7 8.7 39.85 8.4 40.0 8.3 40.05 8.35 40.6 8.8 39.9 8.55 39.9 9.1 40.6 8.8 40.7 9.0 40.75 8.8 40.75 8.65 40.6 8.45 40.55 8.4 40.4 8.3 40.2 8.25 40.0 8.3 39.8 8.15 39.55 8.05 39.05 8.0 37.8 7.95 37.75 8.05 37.6 8.3 37.3 8.35 35.5 8.45 Q33.9 8.7 32.4 9.45 L32.3 9.5 31.95 9.45 31.7 9.2 31.7 8.85 31.95 8.55 Q33.4 7.8 34.95 7.55 L33.1 7.7 Q31.05 8.1 29.15 8.9 L29.2 8.9 Q26.45 10.4 24.1 12.5 20.85 15.45 20.9 19.85 L20.7 25.3 20.4 26.9 19.65 28.5 19.3 28.95 Q21.3 27.25 22.2 24.85 L22.5 23.95 22.75 22.6 22.8 22.55 Q23.75 18.95 26.0 16.05 L27.75 14.1 27.65 14.15 27.3 14.1 27.2 14.05 27.05 13.85 27.0 13.55 27.4 13.25 27.55 13.55 27.4 13.2 27.6 13.15 27.9 13.15 28.05 13.25 28.15 13.4 28.2 13.7 30.0 12.4 30.05 12.35 30.15 12.3 30.2 12.3 30.95 12.15 30.35 12.45 28.95 13.3 28.2 13.8 28.05 14.0 Q26.4 15.4 25.3 17.4 24.0 19.75 23.35 22.35 L23.25 22.9 22.95 24.1 22.9 24.5 22.85 24.6 22.7 25.0 Q21.55 27.3 19.85 28.95 L19.8 29.0 19.75 29.1 19.05 29.55 18.9 29.6 18.6 29.65 18.85 29.35 18.75 29.1 18.65 29.0 18.65 28.9 18.15 29.5 18.0 29.2 Q18.0 28.95 18.15 28.85 19.45 27.35 19.7 25.2 L19.9 22.4 19.65 22.15 19.4 22.0 19.2 22.05 18.9 22.05 Q18.7 22.1 18.65 22.25 17.7 23.9 16.05 24.85 14.55 25.7 12.8 26.0 10.6 26.35 8.8 25.25 L8.6 25.15 8.4 25.2 8.0 25.35 7.75 25.5 Q8.25 26.85 9.35 27.9 10.7 29.25 12.4 30.0 L12.65 30.2 12.7 30.45 12.7 30.5 14.75 31.05 14.65 31.15 Q14.35 31.35 14.5 31.75 L14.7 32.05 15.45 32.5 15.65 32.55 17.45 33.7 17.55 33.75 18.4 34.55 18.5 34.65 19.35 35.9 19.2 35.9 18.95 36.05 18.8 36.35 18.7 37.15 18.7 37.1 Q18.0 40.2 14.95 41.25 12.95 41.9 11.25 41.2 L11.2 41.2 10.95 41.2 Q10.75 41.2 10.7 41.35 L10.55 41.65 10.65 41.95 Q11.3 43.0 11.55 44.45 L11.6 44.7 11.7 44.9 11.9 45.2 12.05 45.35 13.3 46.15 13.6 46.2 13.9 46.2 16.4 45.8 16.3 45.8 16.85 45.75 17.15 45.65 18.7 43.85 18.7 44.0 18.8 44.3 Q19.2 44.9 20.05 44.75 L20.15 44.7 24.1 43.0 Q27.4 41.45 27.55 38.15 27.65 36.65 27.15 35.3 L27.35 35.3 27.6 35.1 27.65 35.0 27.7 34.8 27.7 34.2 27.7 34.1 27.7 33.95 Q28.25 30.5 30.9 28.35 31.65 27.75 32.55 27.25 L32.75 27.05 32.8 26.95 33.05 26.6 33.1 26.3 33.1 26.2 33.0 25.9 32.8 25.65 32.05 25.55 32.0 25.55 30.0 25.4 29.65 25.3 29.5 25.15 30.85 25.15 31.25 25.0 31.1 24.95 30.95 24.8 30.9 24.6 30.85 24.45 30.0 24.75 29.45 24.9 29.5 24.9 29.45 24.9 29.55 24.65 Q29.65 24.45 29.85 24.45 L29.95 24.4 30.85 24.4 31.0 24.4 31.3 24.45 31.4 24.45 31.5 24.45 31.6 24.45 32.0 24.55 32.2 24.55 35.65 25.05 35.7 25.1 36.3 25.25 38.2 25.45 38.6 25.45 38.8 25.35 Q43.45 23.45 44.05 18.7 L44.05 17.45 44.05 17.4 44.1 17.45 44.1 17.4 44.35 16.5 44.4 16.2 43.65 16.45 43.65 16.5 Q43.05 18.85 41.3 20.75 L40.45 21.6 40.35 21.0 40.35 20.9 40.15 20.9 40.35 20.8 40.35 20.75 40.35 20.8 41.0 20.35 42.35 18.8 43.4 16.0 43.6 15.7 43.8 15.6 43.8 13.15 43.75 13.0 43.5 12.45 43.45 12.4 43.1 11.9 42.85 11.7 42.75 11.65 42.7 11.65 42.45 11.55 41.1 11.5 40.9 11.55 40.85 10.9 40.75 10.7 40.4 10.3 40.45 10.25 40.75 10.0 40.9 9.8 40.9 9.5 40.7 9.0 M40.6 8.8 L40.7 8.75 40.7 8.85 40.6 8.8 M41.1 11.5 L41.2 11.5 41.05 11.55 41.1 11.5 M40.9 11.55 L40.85 11.95 40.7 12.15 Q39.35 13.45 38.45 15.25 L38.45 15.2 37.15 18.35 37.2 18.35 Q36.6 19.85 35.6 21.0 L33.3 23.1 32.7 23.55 32.65 23.6 31.95 24.0 31.4 24.25 31.3 24.3 31.15 24.05 32.7 23.25 34.25 22.15 34.25 22.1 36.4 19.7 Q37.25 18.55 37.5 17.05 L37.55 17.05 Q37.9 15.5 38.75 14.15 39.6 12.7 40.8 11.65 L40.9 11.55 M42.45 11.55 L42.55 11.6 42.65 11.65 42.75 11.65 43.0 11.85 42.85 11.9 42.85 12.05 42.85 12.1 42.65 12.05 42.2 12.25 42.2 12.15 42.25 12.0 42.3 11.9 42.0 11.75 42.05 11.7 Q42.15 11.55 42.35 11.55 L42.45 11.55 M41.85 12.05 L42.15 12.5 42.35 12.45 42.3 12.45 43.2 12.15 43.2 12.25 43.1 12.6 43.05 12.65 42.8 12.75 42.5 12.75 42.45 12.6 42.35 12.6 42.3 12.6 42.15 12.5 42.0 12.45 41.85 12.1 41.85 12.05 M42.85 13.4 L42.8 13.3 42.8 13.25 42.85 13.4 M41.45 12.4 L41.3 12.5 41.2 12.5 41.1 12.5 41.45 12.4 M43.9 16.55 L44.1 16.95 43.9 16.8 43.9 16.55 M32.7 11.45 L31.75 11.8 31.85 11.6 32.0 11.45 32.25 11.3 33.25 10.8 33.3 10.8 34.45 10.4 34.5 10.4 37.9 9.8 38.9 9.8 39.15 9.85 39.4 9.9 Q39.9 9.8 40.35 10.25 L40.4 10.3 40.05 10.35 38.45 10.2 36.7 10.25 Q35.2 10.45 33.65 11.15 L33.6 11.2 32.7 11.45 M32.75 11.85 L32.8 11.9 32.9 12.0 32.75 11.85 M32.5 12.3 L32.4 12.3 32.35 12.3 32.7 12.15 32.55 12.3 32.5 12.3 M39.3 9.05 L39.2 8.95 39.45 9.05 39.3 9.05 M40.15 9.35 L40.0 9.4 39.9 9.7 39.8 9.5 39.7 9.35 40.15 9.35 M38.9 10.8 L38.8 10.8 38.7 10.75 38.9 10.8 M39.9 11.2 L39.85 11.1 40.0 11.35 39.9 11.2 M40.0 11.45 L39.9 11.7 39.9 11.55 40.0 11.45 M21.9 24.35 L21.9 24.3 21.95 24.2 21.9 24.35 M34.0 14.35 L32.95 13.1 32.3 12.75 32.15 12.65 31.85 12.3 Q33.7 12.95 34.5 14.4 35.05 15.35 35.05 16.75 L34.65 16.35 34.55 16.4 34.2 16.75 34.05 14.65 34.0 14.35 M6.3 22.95 Q4.05 24.4 4.1 27.4 L4.15 28.7 4.8 33.0 Q5.7 33.85 6.45 34.2 L6.5 34.2 7.8 34.65 7.9 34.7 8.85 34.95 8.8 34.9 10.7 34.85 10.7 34.9 11.4 34.7 Q10.35 33.2 10.65 31.3 L10.65 31.25 10.8 30.95 11.25 30.55 Q9.8 29.75 8.65 28.6 6.5 26.5 6.3 23.55 L6.3 23.1 6.3 22.95 M19.2 22.05 L19.35 22.1 19.0 22.1 19.1 22.05 19.2 22.05 M19.05 23.05 L18.9 23.0 19.05 22.95 18.95 22.85 19.15 22.9 19.5 22.75 19.4 22.95 19.55 22.95 19.45 23.0 19.3 23.05 19.25 23.05 19.3 23.2 19.25 23.15 19.15 23.25 19.15 23.05 19.05 23.05 M15.95 30.05 L16.0 30.05 15.9 30.1 15.95 30.05 M15.3 30.9 L15.4 30.9 15.7 30.9 15.85 30.95 16.0 31.0 16.1 31.05 16.2 31.1 16.25 31.15 16.05 31.05 14.95 31.05 14.65 31.4 14.65 31.35 14.75 31.1 14.8 31.05 14.75 31.05 14.85 31.0 Q14.9 30.9 15.0 30.9 L15.3 30.9 M20.1 29.35 L21.1 28.6 21.1 28.55 21.3 28.4 19.55 30.05 19.45 30.2 19.45 30.25 19.45 30.2 19.4 30.4 18.9 29.75 19.2 29.75 20.1 29.35 M18.7 30.7 L19.85 30.3 Q21.7 29.5 22.8 27.85 L22.9 27.75 23.35 27.3 Q23.85 26.95 24.3 27.05 L23.75 27.5 23.6 27.55 23.25 27.9 23.15 28.0 23.1 28.05 21.8 29.25 20.55 30.25 20.5 30.25 19.5 30.7 19.3 30.75 18.9 30.75 18.7 30.7 M11.75 30.3 Q11.45 30.35 11.25 30.55 L11.8 30.8 12.0 30.9 11.75 30.5 11.7 30.55 11.7 30.45 11.75 30.5 11.85 30.3 11.65 30.35 11.75 30.3 M18.0 32.85 L17.75 33.1 18.05 32.85 18.15 33.0 18.2 33.3 18.1 33.55 18.05 33.6 17.75 33.75 17.55 33.75 17.3 33.5 17.3 33.55 17.2 33.4 17.1 33.05 17.15 32.9 17.3 32.75 Q17.4 32.6 17.6 32.6 L17.65 32.6 18.0 32.85 M15.95 31.65 L15.7 31.55 15.85 31.55 15.95 31.65 M15.6 31.4 L15.65 31.35 15.65 31.45 15.55 31.75 15.4 31.85 15.3 31.9 15.25 31.9 15.05 31.85 15.35 31.6 15.4 31.4 15.2 31.2 15.6 31.4 M15.65 31.9 L15.6 31.9 15.55 31.9 15.6 31.9 15.5 31.8 15.65 31.9 15.7 31.95 15.65 31.9 M15.8 32.55 L15.7 32.55 15.65 32.55 15.55 32.5 15.8 32.55 M19.3 34.1 L19.25 34.0 19.3 34.05 19.3 34.1 M19.6 36.5 L19.35 35.9 19.5 35.95 19.75 36.15 Q20.85 38.05 20.25 40.35 19.75 42.3 18.7 43.85 L18.7 43.8 18.75 43.7 Q18.85 43.25 19.1 42.95 L19.15 42.8 Q19.95 41.45 20.15 39.8 L20.15 39.75 20.0 37.75 19.75 36.9 19.7 37.25 19.7 37.3 19.45 38.3 19.2 37.3 18.9 36.65 19.6 36.5 M18.4 34.55 L18.35 34.45 18.45 34.6 18.4 34.55 M8.5 26.25 L8.35 26.3 8.45 26.2 8.3 26.1 8.5 26.1 8.5 25.7 8.85 26.35 8.95 26.45 8.5 26.25 M20.05 43.1 L20.05 43.25 20.0 43.35 20.05 43.05 20.05 43.1 M11.15 41.8 L11.2 41.7 11.5 41.4 11.8 41.9 12.05 42.5 11.45 42.3 10.85 42.1 11.15 41.8 M12.75 44.65 L12.6 44.5 12.6 44.55 12.6 44.5 12.55 44.35 12.6 44.4 12.6 44.5 12.7 44.55 12.75 44.65 M13.7 45.2 L13.85 45.3 13.55 45.2 13.7 45.2 M19.75 43.75 L19.7 43.85 19.7 44.0 19.6 43.7 19.75 43.75 M16.5 44.9 L16.6 44.8 16.75 44.75 16.5 44.9 M31.65 26.15 L31.8 26.15 31.75 26.15 31.65 26.15 M32.15 26.25 L32.2 26.5 32.1 26.35 31.85 26.6 31.9 26.5 31.95 26.45 32.1 26.35 32.0 26.3 32.2 26.05 32.15 26.25 M25.95 27.15 L25.85 27.25 26.0 27.0 25.95 27.15 M27.8 25.15 L28.45 25.15 26.75 25.65 26.8 25.65 25.35 26.35 26.05 25.75 26.05 25.7 Q26.75 25.15 27.8 25.15 M23.2 26.65 L23.35 26.6 23.4 26.6 23.1 26.75 23.2 26.65 M24.85 27.35 L24.9 27.55 24.95 27.8 24.95 27.9 24.9 28.75 Q24.8 31.0 25.95 32.95 L25.95 33.0 26.25 33.6 26.7 34.3 26.65 34.05 26.65 33.9 26.7 33.7 26.85 33.0 27.2 33.65 27.3 33.85 27.35 33.9 27.35 34.0 27.65 34.6 27.2 34.7 27.15 34.7 26.95 34.75 27.0 34.9 27.15 35.3 27.0 35.25 26.75 35.05 26.45 34.45 26.45 34.35 26.4 34.2 25.65 32.95 Q24.1 30.55 24.6 28.0 L24.65 27.95 24.85 27.35 M22.55 27.2 L22.65 27.15 22.7 27.1 22.55 27.2 M24.0 28.1 L23.95 28.1 23.95 28.0 23.9 27.75 24.1 28.05 24.0 28.1 M27.7 33.95 L27.65 34.05 27.65 33.85 27.7 33.95" fill="#ff6633" fill-opacity="0.7490196" fill-rule="evenodd" stroke="none"/>
    <path d="M40.55 8.55 L40.9 8.7 Q42.3 9.25 42.35 10.8 L42.75 10.9 43.05 11.05 43.4 11.3 43.55 11.45 44.05 12.35 Q44.35 13.1 44.05 13.65 L44.1 14.4 Q44.8 15.55 45.0 16.9 L45.1 16.95 Q46.05 20.8 43.3 23.8 41.4 25.85 38.8 26.5 L38.85 26.6 38.6 26.6 36.7 26.6 36.55 26.55 35.65 26.45 35.2 26.45 35.1 26.5 35.05 26.5 Q29.75 27.65 28.1 32.7 27.65 34.25 27.6 35.9 L27.65 36.25 Q28.05 37.65 27.8 38.9 27.45 40.95 25.4 42.4 L23.3 43.75 Q20.3 45.35 17.0 45.9 L16.9 45.9 16.85 46.0 16.3 46.1 14.4 46.2 13.2 45.95 12.1 45.1 11.9 44.9 11.6 44.5 11.3 43.9 Q10.35 41.2 7.95 39.9 L8.95 40.05 9.95 40.5 10.25 40.7 15.1 40.9 Q17.1 40.1 18.0 38.25 18.75 36.7 18.55 35.25 17.0 33.4 14.8 32.3 L12.3 31.2 12.25 31.25 11.7 31.4 Q11.2 33.05 12.4 34.45 L13.2 35.4 13.15 35.5 9.75 36.15 7.1 35.8 Q5.8 35.35 4.75 34.4 3.7 33.4 3.3 31.95 2.9 30.45 2.8 28.95 2.75 26.45 3.7 23.95 L4.15 23.05 5.8 22.15 6.25 21.95 6.3 21.9 6.4 21.85 7.35 21.55 7.4 21.75 7.45 21.85 7.35 21.9 7.45 21.9 7.45 22.2 7.3 22.35 7.15 23.0 7.3 23.8 Q8.05 25.2 9.95 25.6 13.35 26.35 16.25 24.35 L17.8 22.9 Q19.15 21.3 19.4 19.55 L19.5 18.7 20.4 15.6 Q21.3 13.6 23.0 12.0 L24.15 11.0 24.15 10.95 Q27.65 7.85 32.2 6.75 L33.25 6.5 36.5 6.6 Q38.1 7.0 39.85 7.8 L40.55 8.55 M42.4 12.05 L42.35 12.1 42.35 12.05 41.2 12.0 41.1 12.0 Q40.0 13.0 39.15 14.4 38.35 15.7 38.0 17.15 37.7 18.75 36.8 20.0 L34.55 22.5 32.9 23.7 31.35 24.5 31.55 24.3 29.95 24.9 32.1 25.05 35.55 25.55 36.15 25.7 38.25 25.95 38.65 25.95 39.0 25.8 Q43.9 23.8 44.55 18.75 L44.55 17.3 44.4 16.75 44.4 16.55 43.9 16.1 Q43.6 17.6 42.75 19.05 41.85 20.55 40.35 21.35 L40.2 21.25 40.1 21.2 Q43.8 17.95 43.3 13.2 L43.05 12.65 42.7 12.15 42.7 12.25 42.4 12.05 M33.45 10.7 Q35.05 9.95 36.65 9.75 L38.5 9.7 40.1 9.85 40.4 9.6 Q40.3 9.1 39.75 8.75 L39.5 8.55 39.0 8.5 32.15 9.0 Q34.65 7.75 37.3 7.85 L36.65 7.2 36.2 7.1 33.0 7.2 Q30.9 7.6 28.95 8.45 26.15 10.0 23.75 12.1 20.35 15.25 20.4 19.85 L20.2 25.25 Q19.95 27.55 18.5 29.15 L18.75 29.1 19.45 28.65 19.5 28.6 Q21.3 26.85 22.4 24.4 23.0 20.5 24.85 17.15 26.0 15.1 27.7 13.6 L27.5 13.65 27.65 13.55 Q28.15 13.15 28.7 12.85 L30.1 12.0 Q31.3 11.35 32.55 10.95 L33.45 10.7 M33.45 11.25 L32.4 11.8 32.35 11.8 32.2 11.95 32.5 12.3 33.3 12.7 34.4 14.05 Q34.75 15.4 34.7 16.75 L34.55 16.75 Q34.5 13.7 31.6 12.75 30.95 12.55 30.35 12.75 L30.25 12.8 Q28.0 14.25 26.4 16.35 24.2 19.15 23.25 22.65 22.65 26.95 19.25 29.65 L18.95 30.05 18.9 30.25 19.3 30.25 20.3 29.8 21.45 28.9 22.8 27.6 22.9 27.55 23.35 27.1 23.4 27.1 Q24.85 25.85 26.6 25.15 L29.35 24.4 Q30.9 24.05 32.4 23.15 L33.0 22.7 35.2 20.65 Q36.15 19.6 36.7 18.15 L38.0 15.0 Q38.95 13.15 40.35 11.8 L40.35 11.0 40.0 10.6 39.45 10.4 38.9 10.3 37.9 10.3 34.6 10.85 33.45 11.25 M40.2 8.75 L40.2 8.85 40.25 8.8 40.2 8.75 M6.5 22.25 Q3.55 23.8 3.6 27.4 L3.65 28.75 4.3 33.2 6.25 34.65 Q7.15 35.1 7.75 35.15 L8.7 35.4 10.8 35.35 12.3 35.0 Q10.8 33.45 11.15 31.35 L11.15 31.25 Q11.5 30.85 11.95 30.75 L12.15 30.6 12.2 30.55 12.2 30.45 Q10.4 29.65 9.0 28.25 7.0 26.3 6.8 23.5 L6.8 23.0 6.7 22.45 6.5 22.25 M19.65 22.85 L19.3 22.5 19.2 22.55 19.05 22.5 Q18.05 24.25 16.3 25.25 14.7 26.2 12.85 26.5 10.5 26.85 8.55 25.65 L8.15 25.8 8.05 25.95 8.45 26.65 9.7 28.1 Q12.1 30.15 14.95 30.55 L16.0 30.55 16.45 30.4 Q19.7 27.95 19.65 23.45 L19.65 22.85 M15.15 31.4 Q14.9 31.45 14.95 31.6 L15.7 32.05 15.8 32.05 17.7 33.25 17.6 33.1 18.8 34.2 18.85 34.3 Q20.0 35.65 20.45 37.6 L20.65 39.8 Q20.45 41.6 19.55 43.05 L19.55 43.1 Q19.3 43.4 19.2 43.8 L19.2 44.0 Q19.45 44.35 19.95 44.25 L23.9 42.55 Q26.9 41.15 27.05 38.1 27.15 36.55 26.55 35.1 L25.8 33.8 25.5 33.2 Q24.25 31.05 24.4 28.55 L24.45 28.0 24.45 27.9 24.4 27.65 23.65 27.7 23.2 28.1 Q22.05 29.9 20.0 30.75 L18.25 31.35 16.45 31.55 15.9 31.5 15.85 31.45 15.7 31.4 15.35 31.4 15.15 31.35 15.15 31.4 M11.05 41.65 Q11.85 42.9 12.1 44.6 L12.3 44.9 13.55 45.7 16.25 45.3 16.8 45.25 Q19.0 43.3 19.75 40.2 20.3 38.15 19.3 36.4 L19.2 37.2 Q18.45 40.6 15.1 41.7 12.95 42.45 11.05 41.65 M32.3 26.8 L32.35 26.7 32.6 26.3 32.6 26.2 31.8 25.65 27.8 25.65 Q26.95 25.65 26.35 26.1 L25.5 26.85 25.1 28.1 Q24.65 30.45 26.05 32.65 L26.85 34.05 26.9 34.2 27.2 34.8 27.2 34.2 27.15 33.95 Q27.75 30.25 30.55 27.95 31.35 27.3 32.3 26.8" fill="#ff0000" fill-rule="evenodd" stroke="none"/>
    <path d="M32.3 26.8 Q31.35 27.3 30.55 27.95 27.75 30.25 27.15 33.95 L27.2 34.2 27.2 34.8 26.9 34.2 26.85 34.05 26.05 32.65 Q24.65 30.45 25.1 28.1 L25.5 26.85 26.35 26.1 Q26.95 25.65 27.8 25.65 L31.8 25.65 32.6 26.2 32.6 26.3 32.35 26.7 32.3 26.8 M11.05 41.65 Q12.95 42.45 15.1 41.7 18.45 40.6 19.2 37.2 L19.3 36.4 Q20.3 38.15 19.75 40.2 19.0 43.3 16.8 45.25 L16.25 45.3 13.55 45.7 12.3 44.9 12.1 44.6 Q11.85 42.9 11.05 41.65 M15.15 31.4 L15.15 31.35 15.35 31.4 15.7 31.4 15.85 31.45 15.9 31.5 16.45 31.55 18.25 31.35 20.0 30.75 Q22.05 29.9 23.2 28.1 L23.65 27.7 24.4 27.65 24.45 27.9 24.45 28.0 24.4 28.55 Q24.25 31.05 25.5 33.2 L25.8 33.8 26.55 35.1 Q27.15 36.55 27.05 38.1 26.9 41.15 23.9 42.55 L19.95 44.25 Q19.45 44.35 19.2 44.0 L19.2 43.8 Q19.3 43.4 19.55 43.1 L19.55 43.05 Q20.45 41.6 20.65 39.8 L20.45 37.6 Q20.0 35.65 18.85 34.3 L18.8 34.2 17.6 33.1 17.7 33.25 15.8 32.05 15.7 32.05 14.95 31.6 Q14.9 31.45 15.15 31.4 M19.65 22.85 L19.65 23.45 Q19.7 27.95 16.45 30.4 L16.0 30.55 14.95 30.55 Q12.1 30.15 9.7 28.1 L8.45 26.65 8.05 25.95 8.15 25.8 8.55 25.65 Q10.5 26.85 12.85 26.5 14.7 26.2 16.3 25.25 18.05 24.25 19.05 22.5 L19.2 22.55 19.3 22.5 19.65 22.85 M6.5 22.25 L6.7 22.45 6.8 23.0 6.8 23.5 Q7.0 26.3 9.0 28.25 10.4 29.65 12.2 30.45 L12.2 30.55 12.15 30.6 11.95 30.75 Q11.5 30.85 11.15 31.25 L11.15 31.35 Q10.8 33.45 12.3 35.0 L10.8 35.35 8.7 35.4 7.75 35.15 Q7.15 35.1 6.25 34.65 L4.3 33.2 3.65 28.75 3.6 27.4 Q3.55 23.8 6.5 22.25 M40.2 8.75 L40.25 8.8 40.2 8.85 40.2 8.75 M33.45 11.25 L34.6 10.85 37.9 10.3 38.9 10.3 39.45 10.4 40.0 10.6 40.35 11.0 40.35 11.8 Q38.95 13.15 38.0 15.0 L36.7 18.15 Q36.15 19.6 35.2 20.65 L33.0 22.7 32.4 23.15 Q30.9 24.05 29.35 24.4 L26.6 25.15 Q24.85 25.85 23.4 27.1 L23.35 27.1 22.9 27.55 22.8 27.6 21.45 28.9 20.3 29.8 19.3 30.25 18.9 30.25 18.95 30.05 19.25 29.65 Q22.65 26.95 23.25 22.65 24.2 19.15 26.4 16.35 28.0 14.25 30.25 12.8 L30.35 12.75 Q30.95 12.55 31.6 12.75 34.5 13.7 34.55 16.75 L34.7 16.75 Q34.75 15.4 34.4 14.05 L33.3 12.7 32.5 12.3 32.2 11.95 32.35 11.8 32.4 11.8 33.45 11.25 M33.45 10.7 L32.55 10.95 Q31.3 11.35 30.1 12.0 L28.7 12.85 Q28.15 13.15 27.65 13.55 L27.5 13.65 27.7 13.6 Q26.0 15.1 24.85 17.15 23.0 20.5 22.4 24.4 21.3 26.85 19.5 28.6 L19.45 28.65 18.75 29.1 18.5 29.15 Q19.95 27.55 20.2 25.25 L20.4 19.85 Q20.35 15.25 23.75 12.1 26.15 10.0 28.95 8.45 30.9 7.6 33.0 7.2 L36.2 7.1 36.65 7.2 37.3 7.85 Q34.65 7.75 32.15 9.0 L39.0 8.5 39.5 8.55 39.75 8.75 Q40.3 9.1 40.4 9.6 L40.1 9.85 38.5 9.7 36.65 9.75 Q35.05 9.95 33.45 10.7 M42.4 12.05 L42.7 12.25 42.7 12.15 43.05 12.65 43.3 13.2 Q43.8 17.95 40.1 21.2 L40.2 21.25 40.35 21.35 Q41.85 20.55 42.75 19.05 43.6 17.6 43.9 16.1 L44.4 16.55 44.4 16.75 44.55 17.3 44.55 18.75 Q43.9 23.8 39.0 25.8 L38.65 25.95 38.25 25.95 36.15 25.7 35.55 25.55 32.1 25.05 29.95 24.9 31.55 24.3 31.35 24.5 32.9 23.7 34.55 22.5 36.8 20.0 Q37.7 18.75 38.0 17.15 38.35 15.7 39.15 14.4 40.0 13.0 41.1 12.0 L41.2 12.0 42.35 12.05 42.35 12.1 42.4 12.05" fill="url(#gradient0)" fill-rule="evenodd" stroke="none"/>
  </g>
  <defs>
    <radialGradient cx="0" cy="0" gradientTransform="matrix(-0.0581, -0.0604, 0.0434, -0.0418, 38.15, 14.55)" gradientUnits="userSpaceOnUse" id="gradient0" r="819.2" spreadMethod="pad">
      <stop offset="0.0" stop-color="#ffff00"/>
      <stop offset="1.0" stop-color="#ff6600"/>
    </radialGradient>
  </defs>
</svg>
