<?xml version="1.0" encoding="UTF-8" standalone="no"?>
<svg xmlns:ffdec="https://www.free-decompiler.com/flash" xmlns:xlink="http://www.w3.org/1999/xlink" ffdec:objectType="shape" height="46.35px" width="48.0px" xmlns="http://www.w3.org/2000/svg">
  <g transform="matrix(1.0, 0.0, 0.0, 1.0, 0.0, -1.65)">
    <path d="M25.0 34.35 L24.05 33.45 24.0 33.4 23.95 33.25 24.0 32.85 24.05 32.9 24.15 32.9 25.0 34.35" fill="#35b6ff" fill-rule="evenodd" stroke="none"/>
    <path d="M24.9 41.2 L24.0 42.15 24.35 41.25 24.6 40.95 24.9 41.2" fill="#2a94d0" fill-rule="evenodd" stroke="none"/>
    <path d="M24.05 42.55 L24.2 42.6 24.05 42.6 24.05 42.55 M35.55 32.3 L35.65 32.25 35.4 32.5 35.5 32.35 35.55 32.3 M24.15 32.9 L24.05 32.9 24.05 32.8 24.15 32.9" fill="#9933cc" fill-rule="evenodd" stroke="none"/>
    <path d="M23.95 42.35 L24.0 42.55 24.05 42.55 24.05 42.6 23.9 42.6 23.95 42.35 M24.0 33.4 L23.95 33.35 23.95 33.25 24.0 33.4" fill="#23719c" fill-rule="evenodd" stroke="none"/>
    <path d="M9.5 26.95 L9.4 26.4 9.75 26.5 9.85 26.7 9.5 26.95 M23.95 33.35 L23.8 33.25 24.05 32.75 24.05 32.8 24.05 32.9 24.0 32.85 23.95 33.25 23.95 33.35" fill="#1b5170" fill-rule="evenodd" stroke="none"/>
    <path d="M33.15 18.85 L32.9 18.45 32.9 18.25 32.3 16.95 32.3 16.9 32.8 17.7 33.3 18.65 33.15 18.85 M35.15 22.85 L35.1 22.85 35.1 22.8 35.15 22.75 35.15 22.85" fill="#b0b6ca" fill-rule="evenodd" stroke="none"/>
    <path d="M35.1 22.85 L35.0 22.85 35.1 22.8 35.1 22.85" fill="#929ab6" fill-rule="evenodd" stroke="none"/>
    <path d="M27.05 35.4 L27.15 35.45 27.1 35.45 27.05 35.4" fill="#d6d9e2" fill-rule="evenodd" stroke="none"/>
    <path d="M48.0 11.3 L46.45 11.25 45.55 11.25 43.75 11.35 43.65 11.0 Q43.8 10.65 44.35 10.4 L46.35 9.15 47.6 8.4 47.95 8.05 47.55 8.0 46.2 8.15 44.45 8.75 44.35 8.6 46.8 6.65 46.85 6.45 Q44.7 6.35 43.95 7.2 L43.65 6.95 46.35 4.75 46.8 4.25 46.3 4.15 Q45.65 4.05 42.7 5.95 L42.4 6.15 43.05 5.15 43.25 4.9 43.25 4.75 43.45 4.5 Q42.8 4.55 42.6 4.75 L42.45 4.9 41.9 5.2 Q41.3 5.45 41.05 5.75 L41.0 5.7 40.85 5.3 40.3 5.4 39.35 6.15 38.25 6.45 Q37.55 6.15 39.5 4.2 L39.0 4.05 38.6 4.4 35.9 6.65 35.4 7.0 34.55 7.55 34.45 7.6 34.25 7.45 33.85 7.2 33.7 7.15 33.7 6.9 33.9 6.95 34.15 7.05 37.3 4.75 41.5 1.65 41.85 1.75 Q41.55 1.85 39.95 5.2 40.3 5.15 40.95 4.6 L41.15 4.55 41.95 3.8 42.6 3.85 42.6 4.1 Q44.2 3.2 45.45 2.9 L44.75 4.3 45.15 4.25 47.15 3.4 47.7 5.0 46.8 5.75 47.8 5.4 48.0 6.95 47.45 7.35 48.0 7.25 48.0 7.9 48.0 9.1 45.85 10.4 45.75 10.55 Q45.95 10.4 46.2 10.4 L46.5 10.65 47.35 10.65 48.0 10.55 48.0 11.3 M23.0 32.6 L23.25 31.9 23.8 30.5 Q24.9 32.65 25.75 32.25 26.0 31.85 26.05 30.35 26.0 28.7 26.85 28.15 27.45 28.4 28.75 29.35 L29.15 29.15 Q28.9 28.9 29.3 27.55 29.35 26.25 29.95 25.8 L30.3 25.65 31.55 25.5 33.55 25.35 34.0 25.3 35.25 25.2 36.65 25.15 37.3 25.1 37.5 24.75 37.25 24.2 36.95 24.1 35.65 23.8 35.15 23.7 34.2 23.6 33.15 23.45 Q33.1 23.2 33.35 23.1 L34.15 22.4 35.25 21.0 35.7 21.0 37.15 21.0 37.75 21.0 38.2 20.95 38.75 20.85 38.95 20.55 38.8 20.25 Q38.65 20.05 38.1 19.85 L37.15 19.55 36.65 19.4 36.9 19.05 36.95 18.95 37.75 18.45 38.05 18.45 39.0 18.3 40.45 18.05 40.8 17.65 40.2 17.05 39.65 16.7 39.45 16.65 48.0 12.45 48.0 13.85 41.9 16.8 41.95 16.9 Q41.7 17.0 41.8 17.35 L41.55 17.5 42.15 17.9 42.9 18.15 42.8 18.35 40.95 18.95 39.55 19.1 39.75 19.45 39.7 19.45 39.5 19.85 39.75 20.1 40.95 20.55 42.7 21.15 43.25 21.25 42.6 21.65 40.95 21.7 38.95 21.9 38.25 21.95 38.05 22.0 37.2 22.1 35.8 22.25 35.45 22.35 35.15 22.75 35.1 22.8 35.0 22.85 35.1 22.85 35.15 22.85 35.8 23.0 37.1 23.3 37.9 23.5 38.3 23.7 38.85 23.85 40.2 24.25 40.9 24.4 Q44.9 25.35 45.45 25.85 L46.05 26.4 46.05 26.6 45.9 26.5 Q45.6 26.4 40.75 26.45 L38.5 26.45 38.05 26.45 37.75 26.45 37.2 26.45 36.2 26.45 34.7 26.55 33.65 26.7 Q32.05 26.95 31.15 27.55 L30.8 27.75 Q30.2 28.15 30.3 28.9 L30.45 29.55 Q30.5 30.35 30.2 31.0 L29.7 31.0 28.65 30.55 28.45 30.4 Q27.5 29.6 27.05 29.7 L27.4 32.45 27.45 32.7 27.45 34.3 27.2 35.4 27.15 35.45 27.05 35.4 25.5 34.0 24.05 32.7 24.05 32.75 23.8 33.25 23.6 33.05 23.6 33.1 23.5 33.1 23.0 32.6 M36.4 35.1 L37.05 34.1 37.1 34.55 36.95 34.85 39.45 37.85 42.8 41.85 42.7 42.1 39.2 40.45 39.85 41.45 39.95 41.65 40.75 42.45 40.75 43.05 40.4 43.05 Q41.45 44.6 41.85 45.8 L40.4 45.25 40.5 45.65 41.65 47.9 40.25 47.95 39.65 47.95 39.05 47.4 39.4 47.95 36.95 47.95 36.65 46.9 35.95 45.2 36.1 45.1 38.2 47.45 38.35 47.45 Q38.35 45.3 37.4 44.65 L37.65 44.3 40.0 46.85 40.55 47.2 40.6 46.8 Q40.7 46.1 38.6 43.3 L38.4 43.0 39.45 43.6 39.7 43.75 39.8 43.75 40.1 43.95 Q40.05 43.3 39.8 43.15 L39.65 42.95 39.35 42.45 38.65 41.65 38.7 41.6 Q39.2 41.6 39.15 41.4 L39.0 40.85 38.2 39.95 37.9 38.9 Q38.1 38.2 40.15 39.95 L40.25 39.5 39.85 39.1 37.45 36.55 37.1 36.15 36.4 35.1 M36.1 47.95 L35.25 47.95 34.4 46.7 34.2 46.65 34.45 47.05 34.2 47.4 34.25 47.95 33.6 47.95 33.55 47.4 33.5 46.45 Q33.6 45.4 33.3 44.7 L33.6 44.6 34.3 45.25 35.65 47.15 36.1 47.95 M31.9 47.95 L30.45 47.95 27.7 43.1 27.65 43.2 27.45 43.1 27.25 43.1 27.05 42.9 26.7 43.4 26.7 43.6 26.45 44.2 26.2 44.2 26.1 43.95 25.45 41.9 25.3 40.9 25.2 40.9 25.0 41.15 24.95 41.2 24.9 41.2 24.6 40.95 24.35 41.25 24.0 42.15 23.95 42.35 23.9 42.6 23.45 44.25 23.4 44.75 22.95 44.2 22.75 42.1 22.6 41.15 22.25 39.2 22.0 40.25 21.95 40.4 21.75 41.35 21.1 43.6 Q20.1 47.05 19.55 47.65 L19.45 47.7 19.6 45.3 Q19.25 46.9 18.9 47.25 L18.45 47.95 18.35 48.0 18.2 47.95 18.3 47.7 18.05 41.2 17.95 39.9 17.8 38.3 17.15 40.0 17.0 40.35 16.95 40.35 16.95 40.3 16.45 38.4 16.3 37.95 Q16.15 37.75 16.1 37.95 L16.05 37.5 15.4 37.95 15.05 38.5 14.15 40.25 Q12.7 42.75 12.3 42.95 L12.75 39.45 12.7 38.95 12.5 38.95 11.95 39.2 10.4 41.45 Q7.75 45.2 6.2 47.95 L5.7 47.85 7.55 43.6 Q8.5 41.15 9.45 39.55 L8.5 39.6 7.9 40.1 5.55 43.15 5.45 43.25 5.7 42.2 6.5 39.75 Q6.65 39.4 6.45 39.45 L6.4 39.4 6.35 39.45 6.25 39.35 6.15 39.55 4.75 40.2 5.7 38.6 4.3 39.45 2.6 40.9 2.15 41.35 2.1 40.55 2.15 40.45 4.05 37.95 Q3.3 38.15 3.4 37.7 L3.45 37.35 4.7 35.65 Q4.4 35.7 3.95 35.2 L6.4 32.15 6.5 31.95 5.4 32.5 3.85 32.9 4.35 32.25 7.5 29.55 6.5 29.3 7.6 28.4 9.5 26.95 9.85 26.7 9.75 26.5 9.4 26.4 8.75 26.45 8.05 26.45 8.75 25.75 7.05 25.45 3.1 24.7 0.0 24.15 0.0 22.6 6.75 22.2 6.9 22.1 6.85 22.0 6.95 21.95 Q7.3 21.75 7.1 21.55 L6.95 21.55 6.9 21.55 6.35 21.15 Q5.6 20.7 3.05 19.95 L2.65 19.65 4.6 19.1 5.0 18.95 Q5.2 18.8 5.0 18.75 L5.55 18.75 5.0 18.0 2.6 16.9 0.0 15.45 0.0 15.3 3.3 15.55 3.8 15.4 3.8 15.2 3.5 14.6 1.15 13.25 0.0 12.55 0.0 10.9 2.95 12.15 2.9 11.25 2.4 10.6 0.0 9.05 0.0 8.6 0.15 8.65 2.6 9.3 2.95 9.25 3.05 9.15 3.0 9.1 3.0 8.95 2.8 8.95 Q1.85 7.55 2.05 7.55 L3.75 8.35 2.8 7.0 Q3.0 6.9 1.2 5.45 L0.8 5.0 1.65 4.9 1.7 5.0 4.3 6.7 Q4.0 6.0 4.45 6.0 L4.85 6.1 6.55 7.15 Q6.5 6.9 7.1 6.45 L10.15 8.65 10.2 8.7 9.55 8.6 8.0 7.5 Q7.65 7.55 7.65 7.85 L7.8 8.35 Q7.65 8.2 7.1 7.95 L5.85 6.95 5.4 6.8 Q4.8 6.8 5.7 8.1 4.3 6.85 3.1 6.5 2.55 6.35 3.4 7.1 L4.85 8.5 5.25 9.15 Q4.35 8.65 4.05 8.7 3.3 8.5 4.2 9.65 L4.5 9.85 4.2 10.2 3.55 9.95 Q3.1 9.6 2.55 9.55 L2.3 9.6 2.4 10.05 3.35 10.6 4.05 11.1 Q4.9 11.85 4.6 13.0 4.35 12.8 2.75 12.45 L1.3 11.85 0.75 12.1 0.95 12.25 Q1.3 12.7 3.55 13.9 5.85 14.75 6.2 15.3 6.55 15.6 6.15 15.9 L5.85 16.15 4.45 16.0 4.2 16.4 Q4.0 16.4 4.15 16.55 L5.7 17.6 Q6.4 17.95 6.95 18.25 L7.9 18.95 6.95 19.15 6.65 19.2 Q5.7 19.5 5.95 19.9 L6.95 20.4 8.9 21.5 9.95 22.1 8.95 22.55 9.3 22.9 9.2 23.0 9.0 23.1 7.0 23.15 6.95 23.15 5.0 22.9 4.5 23.2 4.6 23.7 7.0 24.2 9.2 24.75 9.85 24.95 10.1 25.05 10.95 25.3 11.35 25.4 12.95 25.95 11.85 26.75 11.55 27.0 Q11.05 27.55 11.25 28.0 L12.15 28.15 12.5 28.15 13.3 28.1 14.4 28.2 Q15.1 28.35 15.55 28.85 L15.25 29.35 14.45 30.85 14.65 31.2 Q14.85 30.95 16.0 31.2 L16.25 31.25 16.9 31.3 17.35 31.4 Q17.8 31.55 18.05 31.8 L18.4 33.0 18.5 33.65 18.65 35.0 18.7 35.4 18.75 35.75 18.85 36.35 18.85 36.4 19.0 37.5 19.2 39.1 19.55 39.25 19.75 39.25 20.1 39.0 20.2 38.65 20.25 38.2 20.45 37.1 20.45 36.9 20.6 35.3 20.6 34.85 20.75 34.85 20.8 34.9 20.9 35.0 21.0 35.1 21.9 35.8 22.6 36.45 22.8 36.65 23.15 36.85 23.45 40.35 23.8 40.5 23.95 40.45 24.15 40.25 Q24.55 39.9 24.8 38.1 L25.25 38.4 25.9 39.15 26.1 40.2 26.25 41.25 26.35 41.8 26.85 42.1 27.35 41.5 27.7 40.9 27.75 40.6 31.9 47.95 M10.55 8.5 L10.45 8.6 10.4 8.65 10.3 8.6 9.8 7.7 9.3 6.2 10.0 6.65 11.4 8.05 11.2 8.15 11.05 7.95 10.6 7.75 10.4 7.95 10.6 8.25 10.55 8.5 M4.95 10.85 L4.7 10.5 4.95 10.4 5.0 10.7 4.95 10.85 M9.4 28.1 L9.6 27.85 9.7 27.75 10.55 26.8 10.6 26.7 10.75 26.35 10.65 26.3 10.4 26.5 9.55 27.2 7.95 28.65 7.75 29.05 7.9 29.15 8.05 29.2 8.55 29.1 8.0 29.45 7.45 29.9 5.75 31.3 5.5 31.75 5.75 31.95 7.6 30.8 6.35 32.7 5.05 34.3 5.3 34.65 5.9 34.5 5.45 35.2 4.5 36.4 4.25 36.85 Q4.25 37.5 5.55 36.6 4.2 37.95 3.75 39.15 3.55 39.65 4.45 38.85 L5.85 37.5 6.55 37.1 Q6.0 38.0 6.0 38.3 L7.0 38.25 7.2 37.95 7.5 38.25 7.2 38.95 Q6.95 39.35 6.85 39.85 6.7 40.0 6.85 40.15 L7.3 40.05 7.9 39.15 8.45 38.35 Q9.25 37.65 10.4 38.0 10.15 38.25 9.65 39.85 L9.0 41.25 9.25 41.8 9.4 41.6 11.15 39.1 Q12.2 36.9 12.8 36.6 12.95 36.4 13.1 36.45 L13.35 36.65 13.55 36.9 13.5 36.95 Q13.25 37.7 13.35 38.35 L13.7 38.7 13.9 38.7 14.5 37.95 15.0 37.2 15.75 35.95 16.45 35.15 16.7 36.4 Q16.9 37.35 17.35 37.1 L17.6 36.7 17.5 36.0 17.35 35.5 16.75 33.75 16.4 33.2 16.1 32.8 Q15.8 32.45 15.5 32.4 L14.95 32.35 14.65 32.45 14.15 32.5 13.6 32.5 12.8 32.4 Q12.75 31.8 13.0 31.3 L13.3 30.6 13.4 30.5 13.65 30.1 13.95 29.2 13.2 29.3 12.75 29.35 11.85 29.5 11.25 29.6 10.65 29.75 9.05 29.85 8.25 29.6 8.45 29.35 9.4 28.1 M8.25 37.5 L8.3 37.5 7.9 37.75 7.75 37.5 8.05 37.45 8.25 37.5 M21.5 36.9 L21.25 36.65 21.2 37.15 20.95 38.7 21.0 38.7 21.45 37.15 21.5 36.9" fill="#b9efff" fill-rule="evenodd" stroke="none"/>
    <path d="M34.45 7.6 L34.55 7.55 35.4 7.0 35.9 6.65 38.6 4.4 39.0 4.05 39.5 4.2 Q37.55 6.15 38.25 6.45 L39.35 6.15 40.3 5.4 40.85 5.3 41.0 5.7 41.05 5.75 Q41.3 5.45 41.9 5.2 L42.45 4.9 42.6 4.75 Q42.8 4.55 43.45 4.5 L43.25 4.75 43.25 4.9 43.05 5.15 42.4 6.15 42.7 5.95 Q45.65 4.05 46.3 4.15 L46.8 4.25 46.35 4.75 43.65 6.95 43.95 7.2 Q44.7 6.35 46.85 6.45 L46.8 6.65 44.35 8.6 44.45 8.75 46.2 8.15 47.55 8.0 47.95 8.05 47.6 8.4 46.35 9.15 44.35 10.4 Q43.8 10.65 43.65 11.0 L43.75 11.35 45.55 11.25 46.45 11.25 48.0 11.3 48.0 12.45 39.45 16.65 39.65 16.7 40.2 17.05 40.8 17.65 40.45 18.05 39.0 18.3 38.05 18.45 37.75 18.45 36.95 18.95 36.9 19.05 36.65 19.4 37.15 19.55 38.1 19.85 Q38.65 20.05 38.8 20.25 L38.95 20.55 38.75 20.85 38.2 20.95 37.75 21.0 37.15 21.0 35.7 21.0 35.25 21.0 34.15 22.4 33.35 23.1 Q33.1 23.2 33.15 23.45 L34.2 23.6 35.15 23.7 35.65 23.8 36.95 24.1 37.25 24.2 37.5 24.75 37.3 25.1 36.65 25.15 35.25 25.2 34.0 25.3 33.55 25.35 31.55 25.5 30.3 25.65 29.95 25.8 Q29.35 26.25 29.3 27.55 28.9 28.9 29.15 29.15 L28.75 29.35 Q27.45 28.4 26.85 28.15 26.0 28.7 26.05 30.35 26.0 31.85 25.75 32.25 24.9 32.65 23.8 30.5 L23.25 31.9 23.0 32.6 22.7 32.35 22.05 31.8 22.6 30.75 23.8 28.75 23.95 28.5 24.2 29.25 24.45 30.25 24.9 30.1 Q25.15 29.95 25.2 28.85 25.15 27.7 25.75 27.35 26.35 26.75 27.0 27.55 L27.9 28.0 Q28.15 27.8 28.2 26.6 28.15 25.3 29.15 24.65 29.5 24.35 29.65 24.5 L30.05 24.55 30.1 24.5 30.55 24.5 30.6 24.6 31.75 24.3 32.55 23.95 32.8 23.65 32.55 23.15 31.9 22.95 33.25 21.35 33.9 20.8 34.25 20.6 35.55 20.45 35.9 20.4 35.95 19.75 35.05 19.55 34.85 19.5 36.25 18.0 37.15 17.85 37.75 17.7 38.2 17.35 37.5 16.8 38.0 16.35 38.85 15.7 40.85 14.55 41.55 14.2 43.65 13.35 43.95 13.1 43.55 12.85 41.35 12.65 Q40.65 12.25 43.6 9.9 L43.5 9.45 Q43.25 9.25 43.0 9.45 42.75 9.45 42.25 9.85 L42.2 9.85 Q42.7 8.95 43.55 8.15 L43.75 7.95 42.35 8.2 Q42.25 7.95 43.4 6.8 43.4 6.55 43.1 6.6 42.55 6.45 41.2 7.5 L41.1 7.4 Q40.9 7.25 40.8 7.4 L41.3 6.8 41.15 6.7 Q40.65 6.45 39.65 7.2 L39.4 7.25 39.4 7.1 39.5 6.55 38.6 6.75 37.9 7.5 36.25 7.8 36.55 7.25 37.15 6.65 36.8 6.55 Q35.95 6.95 34.9 7.7 L34.75 7.75 34.45 7.6 M36.4 35.1 L37.1 36.15 37.45 36.55 39.85 39.1 40.25 39.5 40.15 39.95 Q38.1 38.2 37.9 38.9 L38.2 39.95 39.0 40.85 39.15 41.4 Q39.2 41.6 38.7 41.6 L38.65 41.65 39.35 42.45 39.65 42.95 39.8 43.15 Q40.05 43.3 40.1 43.95 L39.8 43.75 39.7 43.75 39.45 43.6 38.4 43.0 38.6 43.3 Q40.7 46.1 40.6 46.8 L40.55 47.2 40.0 46.85 37.65 44.3 37.4 44.65 Q38.35 45.3 38.35 47.45 L38.2 47.45 36.1 45.1 35.95 45.2 36.65 46.9 36.95 47.95 36.1 47.95 35.65 47.15 34.3 45.25 33.6 44.6 33.3 44.7 Q33.6 45.4 33.5 46.45 L33.55 47.4 33.6 47.95 31.9 47.95 27.75 40.6 27.7 40.9 27.35 41.5 26.85 42.1 26.35 41.8 26.25 41.25 26.1 40.2 25.9 39.15 25.25 38.4 24.8 38.1 Q24.55 39.9 24.15 40.25 L23.95 40.45 23.8 40.5 23.45 40.35 23.15 36.85 22.8 36.65 22.6 36.45 21.9 35.8 21.0 35.1 20.9 35.0 20.8 34.9 20.75 34.85 20.6 34.85 20.6 35.3 20.45 36.9 20.45 37.1 20.25 38.2 20.2 38.65 20.1 39.0 19.75 39.25 19.55 39.25 19.2 39.1 19.0 37.5 18.85 36.4 18.85 36.35 18.75 35.75 18.7 35.4 18.65 35.0 18.5 33.65 18.4 33.0 18.05 31.8 Q17.8 31.55 17.35 31.4 L16.9 31.3 16.25 31.25 16.0 31.2 Q14.85 30.95 14.65 31.2 L14.45 30.85 15.25 29.35 15.55 28.85 Q15.1 28.35 14.4 28.2 L13.3 28.1 12.5 28.15 12.15 28.15 11.25 28.0 Q11.05 27.55 11.55 27.0 L11.85 26.75 12.95 25.95 11.35 25.4 10.95 25.3 10.1 25.05 9.85 24.95 9.2 24.75 7.0 24.2 4.6 23.7 4.5 23.2 5.0 22.9 6.95 23.15 7.0 23.15 9.0 23.1 9.2 23.0 9.3 22.9 8.95 22.55 9.95 22.1 8.9 21.5 6.95 20.4 5.95 19.9 Q5.7 19.5 6.65 19.2 L6.95 19.15 7.9 18.95 6.95 18.25 Q6.4 17.95 5.7 17.6 L4.15 16.55 Q4.0 16.4 4.2 16.4 L4.45 16.0 5.85 16.15 6.15 15.9 Q6.55 15.6 6.2 15.3 5.85 14.75 3.55 13.9 1.3 12.7 0.95 12.25 L0.75 12.1 1.3 11.85 2.75 12.45 Q4.35 12.8 4.6 13.0 4.9 11.85 4.05 11.1 L3.35 10.6 2.4 10.05 2.3 9.6 2.55 9.55 Q3.1 9.6 3.55 9.95 L4.2 10.2 4.5 9.85 4.2 9.65 Q3.3 8.5 4.05 8.7 4.35 8.65 5.25 9.15 L4.85 8.5 3.4 7.1 Q2.55 6.35 3.1 6.5 4.3 6.85 5.7 8.1 4.8 6.8 5.4 6.8 L5.85 6.95 7.1 7.95 Q7.65 8.2 7.8 8.35 L7.65 7.85 Q7.65 7.55 8.0 7.5 L9.55 8.6 10.2 8.7 10.6 8.85 10.55 8.5 10.6 8.25 10.4 7.95 10.6 7.75 11.05 7.95 11.2 8.15 11.1 8.15 11.75 8.9 12.05 9.3 11.7 9.55 11.6 9.6 11.5 9.5 11.0 9.5 10.9 9.6 10.1 9.25 10.0 9.2 9.95 9.4 9.55 9.3 8.8 9.2 6.75 8.6 6.45 8.6 Q6.85 9.0 6.9 9.9 L6.0 9.65 6.4 10.3 7.15 11.1 7.25 11.2 7.05 11.1 6.45 11.15 Q5.8 10.65 5.25 10.6 L5.0 10.7 4.95 10.4 4.7 10.5 4.95 10.85 5.05 10.95 5.95 11.75 6.75 13.05 Q6.4 13.1 6.8 13.75 L6.0 13.5 Q5.8 13.5 5.9 13.65 L5.7 13.75 4.95 13.65 Q4.75 13.2 4.5 13.35 L3.9 13.5 4.25 14.05 Q4.7 14.4 6.0 14.75 L7.0 15.1 Q8.05 15.55 8.8 16.45 L9.2 17.1 8.95 17.1 8.25 17.0 Q7.75 16.85 7.5 17.0 L7.2 17.1 7.2 17.4 8.9 18.25 9.95 18.9 10.55 19.35 9.9 19.5 8.85 19.55 8.6 19.5 8.2 19.7 8.65 20.3 8.9 20.5 9.9 20.95 10.25 21.15 10.55 21.2 12.1 22.0 12.75 22.65 12.9 22.85 12.65 23.0 10.85 23.15 10.8 23.15 10.65 23.35 10.8 23.8 10.9 23.9 12.5 24.75 12.6 24.85 14.35 25.6 14.9 25.95 14.55 26.2 14.25 26.25 13.25 26.55 13.25 26.6 13.45 27.05 13.6 27.15 14.7 27.25 15.0 27.25 Q15.9 27.2 16.25 27.7 16.85 28.3 16.1 28.9 L16.0 29.1 15.7 29.85 15.7 29.9 15.8 29.95 16.55 30.1 17.15 30.1 17.45 30.1 18.0 30.15 Q18.6 30.3 19.0 30.9 L19.35 31.45 Q19.25 31.55 19.3 31.8 L19.35 31.85 19.3 32.4 19.65 33.4 19.65 33.45 20.0 34.25 20.4 34.5 20.8 34.2 21.0 33.5 22.65 34.85 23.05 35.15 23.2 35.35 23.4 35.75 23.75 37.35 23.85 37.35 24.4 37.4 24.6 36.35 24.65 36.3 26.15 37.65 26.4 38.45 26.55 39.1 26.95 39.5 27.0 39.5 27.45 38.8 27.95 39.2 28.35 39.65 29.55 41.4 30.3 42.75 31.25 44.7 31.55 45.0 31.85 44.55 31.85 42.4 Q32.2 41.65 34.75 44.45 L35.15 44.35 Q35.4 44.05 35.1 43.75 L34.7 43.05 34.75 43.0 36.45 44.3 36.65 44.45 Q36.85 44.05 36.35 43.15 36.55 42.95 37.8 44.05 L37.95 43.8 Q38.2 43.2 37.0 41.9 L37.05 41.8 37.05 41.5 37.65 42.0 37.75 41.8 Q38.0 41.3 37.15 40.35 L37.1 40.1 37.2 40.1 37.75 40.15 37.55 39.25 36.85 38.6 36.35 37.0 Q36.9 37.45 36.95 37.35 L37.6 37.8 37.6 37.45 36.2 35.4 36.4 35.1 M17.6 28.8 L17.75 28.95 17.5 29.0 17.6 28.8 M10.6 26.7 L9.45 27.4 9.05 28.05 9.4 28.1 8.45 29.35 8.1 29.65 7.95 29.75 7.65 30.1 8.3 30.2 8.35 30.15 8.35 30.2 Q7.8 31.55 7.25 32.1 L6.95 32.9 6.85 33.65 6.1 35.55 6.1 35.9 Q6.5 35.55 7.35 35.5 L7.15 36.4 7.8 36.1 8.55 35.35 8.65 35.25 8.55 35.5 8.6 36.1 8.0 37.2 8.05 37.45 7.75 37.5 7.9 37.75 8.3 37.5 8.25 37.5 8.35 37.45 Q8.85 36.75 9.25 36.6 L10.55 35.95 11.2 35.9 Q10.95 36.35 11.0 36.7 L11.05 36.75 11.15 36.95 10.95 37.75 Q10.65 37.85 10.7 38.15 L10.85 38.75 11.3 38.45 12.25 36.7 12.6 35.85 Q13.1 34.9 13.9 34.15 L14.0 34.05 14.75 33.75 14.6 34.65 14.55 34.75 Q14.4 35.1 14.55 35.35 L14.65 35.65 14.9 35.65 15.1 35.35 15.75 34.3 15.9 34.05 16.35 33.3 16.4 33.2 16.75 33.75 17.35 35.5 17.5 36.0 17.6 36.7 17.35 37.1 Q16.9 37.35 16.7 36.4 L16.45 35.15 15.75 35.95 15.0 37.2 14.5 37.95 13.9 38.7 13.7 38.7 13.35 38.35 Q13.25 37.7 13.5 36.95 L13.55 36.9 13.35 36.65 13.1 36.45 Q12.95 36.4 12.8 36.6 12.2 36.9 11.15 39.1 L9.4 41.6 9.25 41.8 9.0 41.25 9.65 39.85 Q10.15 38.25 10.4 38.0 9.25 37.65 8.45 38.35 L7.9 39.15 7.3 40.05 6.85 40.15 Q6.7 40.0 6.85 39.85 6.95 39.35 7.2 38.95 L7.5 38.25 7.2 37.95 7.0 38.25 6.0 38.3 Q6.0 38.0 6.55 37.1 L5.85 37.5 4.45 38.85 Q3.55 39.65 3.75 39.15 4.2 37.95 5.55 36.6 4.25 37.5 4.25 36.85 L4.5 36.4 5.45 35.2 5.9 34.5 5.3 34.65 5.05 34.3 6.35 32.7 7.6 30.8 5.75 31.95 5.5 31.75 5.75 31.3 7.45 29.9 8.0 29.45 8.55 29.1 8.05 29.2 7.9 29.15 7.75 29.05 7.95 28.65 9.55 27.2 10.4 26.5 10.65 26.3 10.75 26.35 10.6 26.7 M27.1 26.1 Q26.9 25.9 26.9 26.0 L27.1 25.85 27.1 26.1 M21.5 36.9 L21.45 37.15 21.0 38.7 20.95 38.7 21.2 37.15 21.25 36.65 21.5 36.9" fill="#dbf7ff" fill-rule="evenodd" stroke="none"/>
    <path d="M34.75 7.75 L34.9 7.7 Q35.95 6.95 36.8 6.55 L37.15 6.65 36.55 7.25 36.25 7.8 37.9 7.5 38.6 6.75 39.5 6.55 39.4 7.1 39.4 7.25 39.65 7.2 Q40.65 6.45 41.15 6.7 L41.3 6.8 40.8 7.4 Q40.9 7.25 41.1 7.4 L41.2 7.5 Q42.55 6.45 43.1 6.6 43.4 6.55 43.4 6.8 42.25 7.95 42.35 8.2 L43.75 7.95 43.55 8.15 Q42.7 8.95 42.2 9.85 L42.25 9.85 Q42.75 9.45 43.0 9.45 43.25 9.25 43.5 9.45 L43.6 9.9 Q40.65 12.25 41.35 12.65 L43.55 12.85 43.95 13.1 43.65 13.35 41.55 14.2 40.85 14.55 38.85 15.7 38.0 16.35 37.5 16.8 38.2 17.35 37.75 17.7 37.15 17.85 36.25 18.0 34.85 19.5 35.05 19.55 35.95 19.75 35.9 20.4 35.55 20.45 34.25 20.6 33.9 20.8 33.25 21.35 31.9 22.95 32.55 23.15 32.8 23.65 32.55 23.95 31.75 24.3 30.6 24.6 30.55 24.5 30.1 24.5 30.05 24.55 29.65 24.5 Q29.5 24.35 29.15 24.65 28.15 25.3 28.2 26.6 28.15 27.8 27.9 28.0 L27.0 27.55 Q26.35 26.75 25.75 27.35 25.15 27.7 25.2 28.85 25.15 29.95 24.9 30.1 L24.45 30.25 24.2 29.25 23.95 28.5 23.8 28.75 22.6 30.75 22.05 31.8 22.7 32.35 23.0 32.6 23.5 33.1 23.6 33.1 23.6 33.05 23.8 33.25 23.95 33.35 24.0 33.4 24.05 33.45 25.0 34.35 25.4 34.7 28.0 36.75 28.35 37.05 29.2 37.7 29.9 38.2 31.5 39.35 31.8 39.5 Q35.1 41.65 35.7 40.15 36.1 38.9 35.4 36.95 L35.3 36.7 36.0 35.65 36.2 35.4 37.6 37.45 37.6 37.8 36.95 37.35 Q36.9 37.45 36.35 37.0 L36.85 38.6 37.55 39.25 37.75 40.15 37.2 40.1 37.1 40.1 37.15 40.35 Q38.0 41.3 37.75 41.8 L37.65 42.0 37.05 41.5 37.05 41.8 37.0 41.9 Q38.2 43.2 37.95 43.8 L37.8 44.05 Q36.55 42.95 36.35 43.15 36.85 44.05 36.65 44.45 L36.45 44.3 34.75 43.0 34.7 43.05 35.1 43.75 Q35.4 44.05 35.15 44.35 L34.75 44.45 Q32.2 41.65 31.85 42.4 L31.85 44.55 31.55 45.0 31.25 44.7 30.3 42.75 29.55 41.4 28.35 39.65 27.95 39.2 27.45 38.8 27.0 39.5 26.95 39.5 26.55 39.1 26.4 38.45 26.15 37.65 24.65 36.3 24.6 36.35 24.4 37.4 23.85 37.35 23.75 37.35 23.4 35.75 23.2 35.35 23.05 35.15 22.65 34.85 21.0 33.5 20.8 34.2 20.4 34.5 20.0 34.25 19.65 33.45 19.65 33.4 19.3 32.4 19.35 31.85 19.3 31.8 Q19.25 31.55 19.35 31.45 L19.0 30.9 Q18.6 30.3 18.0 30.15 L17.45 30.1 17.15 30.1 16.55 30.1 15.8 29.95 15.7 29.9 15.7 29.85 16.0 29.1 16.1 28.9 Q16.85 28.3 16.25 27.7 15.9 27.2 15.0 27.25 L14.7 27.25 13.6 27.15 13.45 27.05 13.25 26.6 13.25 26.55 14.25 26.25 14.55 26.2 14.9 25.95 14.35 25.6 12.6 24.85 12.5 24.75 10.9 23.9 10.8 23.8 10.65 23.35 10.8 23.15 10.85 23.15 12.65 23.0 12.9 22.85 12.75 22.65 12.1 22.0 10.55 21.2 10.25 21.15 9.9 20.95 8.9 20.5 8.65 20.3 8.2 19.7 8.6 19.5 8.85 19.55 9.9 19.5 10.55 19.35 9.95 18.9 8.9 18.25 7.2 17.4 7.2 17.1 7.5 17.0 Q7.75 16.85 8.25 17.0 L8.95 17.1 9.2 17.1 8.8 16.45 Q8.05 15.55 7.0 15.1 L6.0 14.75 Q4.7 14.4 4.25 14.05 L3.9 13.5 4.5 13.35 Q4.75 13.2 4.95 13.65 L5.7 13.75 5.9 13.65 Q5.8 13.5 6.0 13.5 L6.8 13.75 Q6.4 13.1 6.75 13.05 L5.95 11.75 5.05 10.95 4.95 10.85 5.0 10.7 5.25 10.6 Q5.8 10.65 6.45 11.15 L7.05 11.1 7.25 11.2 7.15 11.1 6.4 10.3 6.0 9.65 6.9 9.9 Q6.85 9.0 6.45 8.6 L6.75 8.6 8.8 9.2 9.55 9.3 9.95 9.4 9.85 10.1 9.95 10.35 9.5 11.0 9.45 11.0 9.3 11.1 9.25 11.15 Q8.75 11.5 8.8 13.3 L9.15 13.7 9.2 13.8 9.25 13.9 9.55 14.5 9.45 14.6 9.75 15.0 10.15 15.6 11.65 17.95 12.05 18.65 12.7 19.75 13.75 21.45 14.15 22.05 14.25 22.15 14.45 22.6 15.1 23.5 15.0 23.5 15.6 24.25 18.6 28.15 18.75 28.25 18.95 28.35 19.75 29.25 19.95 29.1 20.05 29.0 20.55 28.8 Q21.15 28.2 21.5 28.15 L21.5 28.25 23.8 26.75 26.35 24.95 26.65 24.65 29.75 22.15 30.45 21.5 31.5 20.4 31.55 20.35 31.5 20.3 32.0 19.9 33.15 18.85 33.3 18.65 33.9 18.0 34.65 17.15 35.25 16.5 37.7 13.65 38.35 12.8 38.7 12.35 Q40.65 9.5 39.55 8.8 L39.35 8.7 37.4 8.5 37.15 8.55 36.8 8.5 35.9 8.4 35.6 8.3 34.75 7.75 M17.6 28.8 L17.5 29.0 17.75 28.95 17.6 28.8 M10.6 26.7 L10.55 26.8 9.7 27.75 9.6 27.85 9.4 28.1 9.05 28.05 9.45 27.4 10.6 26.7 M8.45 29.35 L8.25 29.6 9.05 29.85 8.55 30.65 8.25 31.7 8.25 32.4 8.7 32.95 8.7 33.1 Q8.75 33.8 10.9 33.85 L11.4 33.5 11.5 33.4 12.2 33.2 12.2 33.25 12.65 33.0 12.8 32.9 13.6 32.5 14.15 32.5 14.65 32.45 14.95 32.35 15.5 32.4 Q15.8 32.45 16.1 32.8 L16.4 33.2 16.35 33.3 15.9 34.05 15.75 34.3 15.1 35.35 14.9 35.65 14.65 35.65 14.55 35.35 Q14.4 35.1 14.55 34.75 L14.6 34.65 14.75 33.75 14.0 34.05 13.9 34.15 Q13.1 34.9 12.6 35.85 L12.25 36.7 11.3 38.45 10.85 38.75 10.7 38.15 Q10.65 37.85 10.95 37.75 L11.15 36.95 11.05 36.75 11.0 36.7 Q10.95 36.35 11.2 35.9 L10.55 35.95 9.25 36.6 Q8.85 36.75 8.35 37.45 L8.25 37.5 8.05 37.45 8.0 37.2 8.6 36.1 8.55 35.5 8.65 35.25 8.55 35.35 7.8 36.1 7.15 36.4 7.35 35.5 Q6.5 35.55 6.1 35.9 L6.1 35.55 6.85 33.65 6.95 32.9 7.25 32.1 Q7.8 31.55 8.35 30.2 L8.35 30.15 8.3 30.2 7.65 30.1 7.95 29.75 8.1 29.65 8.45 29.35 M27.1 26.1 L27.1 25.85 26.9 26.0 Q26.9 25.9 27.1 26.1" fill="#f0fcff" fill-rule="evenodd" stroke="none"/>
  </g>
</svg>
