<?xml version="1.0" encoding="UTF-8" standalone="no"?>
<svg xmlns:ffdec="https://www.free-decompiler.com/flash" xmlns:xlink="http://www.w3.org/1999/xlink" ffdec:objectType="shape" height="48.0px" width="48.0px" xmlns="http://www.w3.org/2000/svg">
  <g transform="matrix(1.0, 0.0, 0.0, 1.0, -0.05, -0.05)">
    <path d="M47.1 3.35 L47.3 3.75 45.6 5.7 39.2 13.4 39.0 13.95 39.0 14.05 38.85 14.6 38.8 15.1 38.45 15.3 Q37.2 19.4 35.95 22.45 38.05 21.7 40.25 21.2 L42.55 20.75 42.65 20.7 45.05 20.0 48.05 19.2 48.05 20.8 47.35 21.0 Q41.05 22.8 37.35 23.45 L37.15 23.35 Q33.25 24.5 32.25 25.0 L31.6 25.0 Q30.45 25.0 30.25 24.65 L32.85 23.55 Q33.7 21.2 35.4 17.85 L36.05 16.6 31.55 18.95 30.85 19.3 30.8 19.45 30.45 19.55 30.4 19.55 Q24.6 22.4 20.1 24.2 L19.7 25.0 20.75 25.2 19.55 26.2 19.45 26.25 Q19.2 26.3 19.05 26.5 18.15 28.35 17.8 29.35 L17.5 29.4 17.4 29.2 17.1 29.45 15.1 29.15 15.15 29.1 15.25 28.45 11.4 30.05 10.4 31.75 9.2 33.7 Q11.75 32.45 18.65 30.05 28.25 26.7 30.85 26.35 L31.65 27.9 30.75 30.0 28.1 30.95 32.65 29.95 32.8 30.1 32.85 30.5 27.95 32.55 35.3 30.4 35.4 30.75 Q33.25 32.1 27.1 34.25 L27.95 32.2 27.45 31.15 22.85 32.6 20.9 35.2 16.4 41.1 16.15 41.35 19.4 41.0 22.15 40.75 26.3 41.25 30.25 41.7 29.9 41.4 Q29.9 41.0 31.4 39.4 L30.6 39.3 29.8 38.65 Q30.2 37.9 30.65 37.9 L31.15 38.05 32.7 38.05 36.95 33.95 37.1 33.8 37.2 33.75 40.7 31.2 41.25 30.6 Q41.3 29.25 41.85 28.85 L42.2 29.6 43.05 28.65 43.05 28.0 43.55 28.15 44.05 27.6 48.05 23.7 48.05 27.15 44.5 30.35 44.45 30.9 44.75 30.85 48.05 30.55 48.05 31.8 47.95 31.85 47.95 31.95 48.05 31.95 48.05 32.15 44.25 32.4 44.45 33.15 44.65 33.95 44.65 34.05 48.05 33.4 48.05 36.2 43.15 36.35 41.25 36.2 41.15 33.95 41.2 33.15 40.65 33.55 36.1 37.85 42.5 37.25 42.85 37.05 42.85 37.75 42.7 37.9 40.5 40.45 38.15 42.9 38.5 43.0 44.85 44.8 46.85 45.25 46.15 46.15 45.95 46.35 44.95 46.05 45.25 46.15 45.95 46.35 45.4 46.8 44.4 47.35 43.4 47.7 43.35 47.75 Q34.9 45.65 33.25 43.8 L33.15 43.8 32.8 43.8 33.2 43.85 Q32.85 43.9 32.85 44.1 L33.3 44.6 32.45 44.75 Q32.45 45.35 38.9 47.4 L40.95 48.05 39.5 47.65 38.2 47.8 33.9 48.05 31.7 48.05 30.05 46.45 30.4 45.95 32.4 45.85 32.4 45.8 32.55 45.5 29.15 45.3 27.55 46.5 26.15 47.9 26.0 48.05 21.85 48.05 22.35 47.7 25.35 45.65 26.25 44.95 21.7 44.15 17.05 43.25 15.55 43.3 13.65 43.0 13.45 42.45 Q16.75 36.75 19.4 33.65 L13.35 35.45 6.15 36.6 6.05 36.65 6.05 36.5 Q6.05 35.95 8.3 31.75 L8.75 31.0 6.5 31.75 5.45 32.25 5.05 32.2 4.9 32.05 4.9 31.6 5.2 29.7 Q5.4 26.0 6.9 19.65 L7.3 18.0 3.45 21.8 0.95 24.85 0.05 26.0 0.05 23.75 Q3.45 19.0 5.75 16.35 L5.8 16.35 6.5 15.45 Q9.45 11.85 11.3 10.1 L12.8 9.95 12.9 12.0 10.05 15.15 9.95 15.3 8.75 20.85 6.75 29.45 9.85 28.05 11.0 27.65 Q11.2 27.45 11.35 27.45 L11.4 27.45 13.4 26.8 16.2 25.75 Q17.15 23.45 19.1 20.15 L19.35 19.8 19.3 19.75 19.25 19.4 19.95 18.8 Q21.85 15.5 23.35 13.7 L21.55 14.7 Q17.85 16.7 15.5 17.65 L13.55 21.05 11.45 24.75 10.85 24.0 Q10.85 22.4 14.8 14.0 L14.85 14.0 15.1 13.7 15.3 13.75 16.6 11.4 19.8 6.1 19.85 6.1 21.15 3.6 22.7 0.05 24.5 0.05 22.85 3.45 20.95 7.35 22.25 7.05 24.05 6.9 24.2 6.85 24.95 4.1 25.5 0.9 25.7 0.05 28.2 0.05 27.65 1.7 26.95 3.65 27.3 3.45 27.55 2.5 Q28.85 -1.65 28.85 1.25 L28.6 2.7 Q30.4 1.7 34.0 0.05 L37.4 0.05 35.8 0.8 28.55 4.05 27.85 8.75 27.95 8.75 27.8 8.85 27.6 9.0 Q25.45 10.35 18.7 11.8 L16.95 15.05 18.75 14.1 Q23.4 11.8 26.35 11.05 L25.85 12.1 25.75 12.15 25.75 12.2 25.7 12.4 25.15 13.8 24.65 14.9 25.9 14.5 26.8 14.3 27.35 11.9 28.35 8.0 28.55 6.25 Q29.0 4.5 30.4 5.45 30.9 5.95 34.3 6.85 L35.3 7.15 36.85 5.4 40.95 1.35 41.9 0.15 43.85 0.55 42.55 2.25 Q40.1 5.35 37.45 7.9 L38.3 8.4 37.6 8.9 36.5 8.8 36.45 8.85 38.25 9.45 38.35 9.75 Q38.2 10.35 37.15 10.35 L35.3 9.85 34.05 10.85 35.65 11.55 Q36.8 12.1 37.55 12.6 39.3 9.6 46.25 2.15 L46.6 2.5 47.1 3.35 M42.45 32.35 L42.4 34.5 43.35 34.35 43.0 33.55 42.85 32.4 42.45 32.35 M33.3 9.0 L32.45 8.6 32.3 9.45 32.4 9.45 32.5 9.8 32.5 10.35 33.4 10.6 33.2 10.45 Q33.2 10.0 33.7 9.2 L33.3 9.0 M31.8 8.3 L30.25 7.5 29.5 9.15 Q29.3 10.35 29.25 11.75 L29.1 11.9 28.35 13.85 28.2 14.2 28.65 14.3 28.25 14.85 29.5 14.85 30.15 12.25 30.65 10.35 30.65 10.1 30.75 10.1 31.25 9.15 31.8 8.3 M26.85 4.1 L26.35 6.35 26.35 6.4 26.5 6.35 27.05 4.25 26.85 4.1 M23.35 8.55 L22.3 8.75 22.1 8.65 20.25 8.7 19.95 9.35 19.5 10.25 21.55 9.65 Q24.85 8.75 26.65 8.65 L26.4 8.55 Q26.25 8.45 26.25 8.1 L26.3 7.7 24.95 8.2 24.5 8.85 24.15 8.45 23.7 8.6 23.35 8.55 M26.8 8.65 L26.85 8.65 26.8 8.55 26.8 8.65 M28.25 16.25 L27.95 16.35 29.35 16.1 29.35 16.05 29.4 15.75 28.25 16.25 M23.55 17.35 L25.75 16.85 23.65 16.95 23.45 17.4 23.55 17.35 M21.3 21.65 Q23.85 20.15 26.7 18.6 L28.4 17.75 25.1 18.4 22.5 19.3 22.4 19.45 21.3 21.65 M31.7 16.15 L36.45 14.15 34.05 12.85 32.35 11.85 32.0 14.05 31.7 16.15 M13.15 2.8 L17.2 0.05 21.15 0.05 14.9 4.6 Q7.6 9.8 5.25 10.75 L2.75 12.15 Q2.45 12.4 2.45 11.9 L3.35 10.85 1.65 12.05 1.15 13.4 0.65 12.85 0.15 13.25 0.1 13.2 0.6 11.95 1.25 7.95 2.15 3.05 2.35 1.65 2.55 1.5 2.65 1.5 2.6 1.45 3.0 1.2 3.35 1.0 Q3.85 0.65 4.5 0.55 L4.0 2.75 2.35 9.8 2.25 10.35 Q3.6 9.4 6.4 7.75 8.75 5.9 13.15 2.8 M12.55 6.9 L12.15 7.3 12.15 7.55 8.45 9.85 3.65 12.35 12.55 6.9 M3.4 12.85 L5.1 12.05 Q4.7 14.8 4.35 15.45 3.45 14.85 3.4 12.85 M32.2 25.7 L32.45 25.75 34.6 25.25 32.8 28.0 Q32.05 27.5 32.05 26.95 L32.2 25.7 M0.05 14.5 L0.15 13.95 0.65 14.1 1.85 13.4 1.45 16.35 0.05 16.95 0.05 14.5 M37.5 40.95 L39.4 39.45 34.85 39.45 34.3 39.45 32.3 41.1 31.95 41.1 31.85 41.0 31.0 41.7 31.35 41.7 31.9 41.45 32.1 41.7 34.05 41.65 33.75 42.2 33.8 42.25 35.7 42.4 37.5 40.95" fill="#46f1ff" fill-rule="evenodd" stroke="none"/>
    <path d="M46.25 2.15 L46.6 2.5 46.7 2.7 45.05 4.4 Q43.5 5.95 40.15 10.25 37.85 13.25 36.95 13.25 36.55 13.25 31.55 10.65 L30.7 13.2 Q30.3 14.45 30.3 15.7 30.3 16.4 23.4 17.9 L21.95 18.6 21.0 19.0 20.5 19.9 17.7 24.8 17.6 25.05 18.0 24.95 25.4 20.9 Q29.3 18.85 31.7 17.9 34.55 16.5 36.65 15.7 L36.7 15.85 36.75 16.35 Q36.75 16.95 34.4 21.6 L33.05 24.2 36.25 23.25 40.5 22.35 42.75 21.7 43.35 21.5 48.05 20.2 48.05 25.7 46.0 27.35 43.8 29.0 43.6 30.45 43.7 32.0 43.75 32.3 43.8 32.3 48.05 31.35 48.05 31.8 47.95 31.85 47.95 31.95 48.05 31.95 48.05 33.05 47.95 33.1 47.95 33.15 48.05 33.15 48.05 35.05 46.85 35.1 42.2 34.85 42.1 34.35 Q42.0 32.95 42.15 31.5 L42.3 30.4 42.25 30.25 32.95 38.85 39.1 38.8 39.75 39.05 40.0 39.45 35.4 43.8 35.65 44.0 36.75 44.2 38.45 44.55 40.35 45.0 42.85 45.7 45.7 46.6 45.4 46.8 44.4 47.35 43.4 47.7 43.35 47.75 40.55 48.05 33.9 48.05 31.7 48.05 23.25 48.05 23.9 47.7 23.8 47.7 Q27.35 45.05 29.4 43.75 L28.8 43.55 20.45 42.85 Q15.7 42.55 15.7 41.7 15.7 41.6 19.05 37.05 L22.95 31.5 10.6 33.85 9.4 34.25 8.9 34.15 8.8 34.05 Q9.1 32.95 10.2 31.15 L11.1 29.75 10.95 29.75 10.85 29.2 6.35 30.5 Q5.9 30.25 5.9 29.7 L6.2 28.6 6.75 25.85 6.75 25.8 Q7.9 19.15 9.2 15.1 L9.2 14.95 Q6.3 17.3 3.15 20.8 L1.85 22.35 0.05 24.75 0.05 17.8 0.05 17.55 0.05 11.55 0.1 10.8 0.1 10.75 0.15 10.6 0.05 10.6 0.05 7.85 0.1 7.2 0.1 7.0 0.1 6.95 0.15 6.75 0.1 6.75 0.1 6.7 0.15 6.35 0.25 5.6 0.35 5.25 0.45 4.8 0.55 4.4 0.7 4.0 1.0 3.35 1.2 3.0 1.75 2.25 1.9 2.1 1.95 2.05 2.35 1.65 2.55 1.5 2.65 1.5 2.6 1.45 3.0 1.2 3.35 1.0 1.95 5.45 1.8 6.1 Q1.45 7.6 1.05 10.25 L0.85 11.1 0.85 12.15 7.25 8.15 10.3 6.1 13.35 4.1 19.3 0.05 23.15 0.05 20.65 4.55 19.85 5.95 19.95 5.95 18.6 8.7 20.85 8.25 Q24.75 7.65 25.05 7.25 L26.35 2.3 26.8 0.05 34.2 0.05 27.8 3.25 27.75 3.35 Q27.15 5.9 27.15 8.4 L24.6 8.95 22.35 9.65 19.35 10.3 17.45 11.05 14.15 17.65 16.65 16.3 23.05 13.15 23.45 13.3 23.55 13.75 22.4 16.35 23.8 16.35 24.55 16.3 26.2 15.85 26.45 15.8 Q26.95 15.55 27.2 15.15 27.65 14.6 27.8 13.5 L28.65 9.85 Q29.3 6.9 29.95 6.9 L35.25 8.7 Q36.2 8.7 43.25 0.4 L43.85 0.55 44.2 0.7 45.55 1.45 45.9 1.75 46.25 2.15" fill="#000951" fill-rule="evenodd" stroke="none"/>
  </g>
</svg>
