<?xml version="1.0" encoding="UTF-8" standalone="no"?>
<svg xmlns:ffdec="https://www.free-decompiler.com/flash" xmlns:xlink="http://www.w3.org/1999/xlink" ffdec:objectType="shape" height="46.4px" width="43.1px" xmlns="http://www.w3.org/2000/svg">
  <g transform="matrix(1.0, 0.0, 0.0, 1.0, 0.0, 0.0)">
    <path d="M10.55 33.85 L10.5 33.8 10.5 33.7 10.55 33.7 10.55 33.75 10.55 33.85 M27.65 15.1 L27.4 15.25 27.3 15.0 27.65 15.1" fill="#ffdc45" fill-rule="evenodd" stroke="none"/>
    <path d="M40.75 20.85 L40.95 21.1 Q41.6 21.8 41.6 23.3 41.55 24.0 41.9 24.7 L42.5 25.75 42.75 26.55 43.1 28.9 42.9 30.45 42.75 30.55 Q42.0 31.15 41.65 33.4 L41.6 34.0 41.55 34.6 Q41.35 34.95 41.35 35.65 L40.65 37.35 39.85 39.0 38.55 40.65 37.8 41.25 36.7 41.8 36.0 42.25 35.55 42.55 Q34.75 43.25 34.0 44.65 L33.55 45.4 33.15 45.6 30.45 46.1 Q30.0 46.15 29.9 46.4 L28.25 46.05 24.75 45.25 Q24.15 44.6 24.55 43.15 L24.65 42.8 25.1 42.5 Q26.1 41.85 27.25 41.6 L27.35 41.6 27.95 41.5 29.95 41.2 Q32.1 39.3 33.0 35.25 33.75 31.65 33.05 30.8 L32.0 31.35 Q31.05 31.55 30.15 30.7 L29.5 30.1 28.3 29.3 27.0 28.55 26.7 28.15 Q26.15 27.95 24.75 28.15 L23.7 28.2 23.3 28.7 Q22.15 29.7 21.15 28.5 20.6 27.9 20.85 27.1 20.4 26.55 20.35 25.7 L20.3 24.85 20.4 24.5 20.25 23.7 20.3 23.45 Q20.15 20.05 17.75 17.3 L17.6 16.85 Q16.65 16.15 15.2 15.8 L14.05 15.6 14.1 14.75 Q14.15 13.7 13.3 12.75 L12.3 11.9 Q11.35 11.45 10.45 12.1 L9.5 9.45 7.25 5.5 Q6.6 4.45 5.45 1.5 L4.95 0.35 5.15 0.3 5.45 0.2 7.3 0.0 7.5 0.0 7.9 0.0 10.8 0.0 13.2 4.0 14.65 5.0 16.85 5.65 Q18.85 5.8 19.15 6.4 L19.45 7.15 19.7 7.25 20.75 7.85 20.9 10.3 Q21.8 12.05 22.25 12.55 22.95 13.4 23.65 13.7 L24.5 13.95 25.35 13.85 25.6 13.6 25.85 13.35 Q26.45 12.55 26.15 11.35 25.85 9.85 24.65 8.45 L23.25 5.75 22.15 3.5 21.7 3.15 21.75 2.75 22.95 3.2 Q23.3 3.45 24.2 3.9 L24.65 3.3 24.65 3.15 Q24.9 2.0 26.55 3.55 27.75 4.7 28.2 5.85 L28.1 6.35 28.45 7.0 28.45 7.2 28.45 7.45 28.35 8.3 29.05 9.45 30.9 12.35 31.55 12.85 31.6 12.8 31.6 12.85 31.55 12.85 31.75 13.5 32.25 15.3 33.4 16.45 33.55 16.7 34.45 17.4 34.7 17.7 Q34.85 18.2 34.25 18.45 L32.65 18.35 31.1 16.65 Q30.15 15.7 29.0 15.3 L27.65 15.1 27.3 15.0 27.4 15.25 27.75 17.0 29.4 18.6 29.5 18.7 29.55 18.65 Q30.5 17.8 31.2 18.05 L31.75 18.5 Q32.35 19.2 32.3 20.4 L32.2 20.85 32.25 20.95 Q34.0 21.65 34.85 22.55 L34.9 22.65 35.65 22.4 36.5 22.15 37.1 21.8 37.1 21.75 37.7 20.95 38.4 20.4 39.15 20.3 39.9 20.4 Q40.4 20.55 40.75 20.85 M6.65 24.1 L5.6 23.35 Q4.2 22.25 4.2 21.8 4.2 20.65 5.55 20.95 L6.35 21.15 6.55 21.25 Q6.5 21.0 6.6 20.9 L6.9 20.7 7.3 20.75 Q8.2 20.75 8.2 20.0 L7.85 19.0 Q8.0 18.2 7.65 17.7 7.35 17.2 7.15 16.25 L7.1 15.95 Q6.8 14.8 6.8 14.0 L6.7 13.75 6.6 13.75 6.7 13.55 Q6.0 13.35 5.65 13.0 5.3 12.65 5.2 11.85 5.0 10.85 5.6 10.35 L7.05 10.5 7.85 11.15 Q8.95 12.35 8.7 13.0 L8.9 13.05 9.7 13.5 9.8 14.2 10.05 15.3 10.15 15.45 10.85 16.4 11.15 16.55 11.6 16.75 12.1 16.95 12.25 16.95 12.9 16.95 13.8 17.5 14.4 17.7 14.7 18.1 14.5 18.6 14.4 18.9 15.15 19.15 16.1 19.5 16.75 19.8 17.9 20.5 Q18.4 21.05 18.35 22.0 L18.0 22.35 17.15 22.95 16.9 22.75 16.5 22.8 15.7 22.1 Q14.55 21.65 13.35 22.65 L12.95 23.3 12.9 23.5 Q12.8 24.2 12.85 25.4 12.8 27.7 12.5 28.0 L11.4 28.5 Q12.9 26.85 12.0 25.85 L11.05 25.05 Q10.6 25.25 9.9 24.6 L9.35 24.15 9.1 24.1 8.1 24.35 8.1 24.3 7.65 24.45 6.65 24.1 M25.6 0.2 Q25.95 0.4 25.95 0.9 L25.7 1.45 25.0 1.75 24.25 1.3 24.25 1.1 23.6 0.45 23.3 0.0 25.55 0.0 25.6 0.2 M22.8 17.4 Q21.65 16.45 20.85 17.15 20.05 17.85 20.75 19.3 L21.6 20.8 22.1 22.55 Q22.5 24.1 22.8 24.45 23.15 24.85 24.8 25.35 L25.8 25.75 27.15 25.85 Q27.95 25.3 28.15 24.25 L28.15 23.0 27.75 22.05 27.05 21.3 26.05 20.15 24.3 18.95 22.8 17.4 M30.1 22.35 Q29.6 22.8 29.65 23.5 L29.95 24.3 Q31.0 25.5 31.9 24.85 32.85 24.2 31.65 22.75 L31.2 22.25 30.1 22.35 M38.9 24.25 Q38.5 24.05 37.9 24.6 37.05 25.3 37.1 26.45 L37.4 27.8 37.3 29.5 Q37.2 30.75 37.4 31.0 37.8 31.45 38.65 31.15 39.6 30.85 40.15 30.0 41.9 27.7 39.35 24.75 L38.9 24.25 M14.05 6.45 Q13.7 6.75 14.0 7.75 13.8 8.25 14.2 8.75 L14.8 9.2 Q15.9 10.3 17.6 10.15 18.35 10.05 18.45 9.7 18.75 9.2 18.25 8.6 17.25 7.45 16.55 7.2 L15.4 6.45 Q14.6 5.95 14.05 6.45 M10.6 5.45 Q11.3 4.9 10.65 4.1 L10.15 3.75 9.05 3.85 Q8.5 4.4 9.1 5.0 9.95 5.95 10.6 5.45 M4.2 6.0 L4.1 6.0 Q3.15 6.0 2.9 4.9 L2.5 4.05 Q2.5 3.4 2.9 3.5 L3.1 3.6 Q3.5 3.5 3.9 3.85 L4.05 3.85 4.65 4.5 4.9 5.15 4.7 5.65 4.2 6.0 M3.05 9.4 Q3.55 8.9 4.0 9.15 L4.3 9.5 Q4.95 10.15 4.2 10.7 3.5 11.15 2.85 10.4 2.4 9.85 3.05 9.4 M2.8 12.35 L4.4 13.8 Q6.15 15.8 4.75 17.25 4.25 17.75 3.4 17.7 2.65 17.65 2.05 16.95 L0.8 15.15 Q0.35 14.2 0.05 12.65 L0.45 12.15 2.8 12.35 M3.2 20.25 Q3.2 21.0 2.05 21.0 0.85 21.0 0.45 19.4 0.45 18.2 1.85 18.8 3.2 19.4 3.2 20.25 M9.9 20.25 Q9.85 20.65 10.1 20.95 10.75 21.65 11.75 21.3 12.8 20.95 12.15 20.25 L11.45 19.65 Q10.7 19.1 10.2 19.5 9.9 19.8 9.9 20.25 M17.0 26.2 L17.8 27.65 18.15 28.6 18.55 28.75 19.05 28.95 Q19.5 29.45 19.2 29.8 L18.15 30.25 Q16.35 30.5 15.35 29.35 L14.35 27.75 Q13.75 26.15 14.75 25.3 L16.35 25.4 17.0 26.2 M14.15 33.2 L15.8 32.8 Q17.15 32.2 18.0 32.45 L18.5 32.9 18.95 33.35 Q20.0 34.45 19.4 35.35 18.9 36.2 17.35 36.65 L15.7 36.85 15.3 36.9 15.2 36.65 14.15 36.0 13.0 35.15 Q12.3 34.4 12.65 33.1 L12.65 33.05 13.05 33.05 14.15 33.2 M29.0 34.8 L29.4 35.05 29.6 35.55 29.0 34.8 M30.1 32.4 Q30.55 32.9 30.4 33.3 L29.55 33.65 Q28.05 33.8 26.95 32.6 L26.7 32.1 Q26.7 31.75 27.15 31.4 27.75 30.85 29.05 31.6 L30.1 32.4 M36.75 39.75 L37.05 39.85 37.1 39.55 36.75 39.75" fill="#ffffff" fill-rule="evenodd" stroke="none"/>
    <path d="M20.7 43.9 L19.4 44.05 Q18.5 42.95 17.65 42.8 L15.8 42.35 Q14.3 42.0 14.1 41.75 13.8 41.35 13.8 40.7 13.8 40.25 14.1 39.65 L14.7 39.6 15.8 39.2 15.65 38.95 15.55 38.75 16.1 38.35 16.15 38.3 16.8 37.65 18.1 37.5 Q18.85 37.55 19.3 37.2 L20.6 36.25 Q21.1 35.85 21.0 35.25 L20.65 34.15 Q19.95 32.6 21.2 31.5 L23.75 31.6 25.45 32.8 27.75 34.15 29.0 34.8 29.6 35.55 29.65 35.7 29.65 36.5 29.45 37.85 27.45 37.9 24.35 38.45 Q22.75 39.8 21.85 40.15 20.85 40.45 20.6 40.65 L20.55 40.7 Q20.4 40.7 20.4 40.8 L20.4 40.9 20.4 41.1 20.45 42.8 20.45 43.4 20.7 43.9 M0.0 9.3 L0.0 8.25 0.15 8.5 1.1 9.85 1.5 10.55 1.2 10.5 0.65 9.9 0.0 9.3 M0.25 5.45 L0.25 5.35 0.35 4.85 0.55 4.25 0.65 3.9 0.9 3.35 1.55 2.4 1.75 2.1 1.8 2.1 2.9 3.5 Q2.5 3.4 2.5 4.05 L2.9 4.9 Q3.15 6.0 4.1 6.0 L4.2 6.0 4.9 7.6 4.85 7.85 4.75 7.9 4.45 7.85 4.35 7.85 4.25 7.9 3.9 7.8 3.5 7.55 3.45 7.5 3.4 7.45 2.45 6.75 0.35 5.35 0.25 5.45 M14.4 0.0 L18.65 0.0 18.7 1.05 Q18.6 3.15 16.4 1.8 L14.4 0.0 M31.7 9.9 L31.45 9.05 Q31.45 7.85 32.35 7.95 32.6 7.55 33.25 7.6 34.25 7.7 34.25 8.8 L34.25 9.15 34.5 10.45 Q34.5 11.45 33.65 11.5 L33.7 11.1 Q33.7 10.15 32.6 9.8 L31.7 9.9 M32.9 13.0 L33.3 13.65 34.4 15.2 36.5 16.55 35.85 17.05 35.65 18.2 34.8 17.7 34.7 17.7 34.45 17.4 33.55 16.7 33.4 16.45 32.25 15.3 31.75 13.5 31.55 12.85 31.6 12.85 32.9 13.0 M28.7 3.75 Q28.7 2.85 29.6 2.9 30.45 3.0 30.45 3.85 L30.25 4.35 Q30.0 4.7 29.65 4.7 29.15 4.7 28.85 4.2 L28.7 3.75 M22.45 6.05 L22.85 6.5 Q25.55 9.55 25.1 11.9 25.0 12.75 24.35 12.8 23.65 12.8 22.7 11.8 22.45 11.5 21.9 9.0 21.25 6.35 21.5 6.1 L22.45 6.05 M14.05 15.6 L15.2 15.8 Q16.65 16.15 17.6 16.85 L17.75 17.3 Q20.15 20.05 20.3 23.45 L20.25 23.7 20.4 24.5 20.3 24.85 19.6 25.55 Q17.9 26.45 16.25 24.55 L15.95 23.75 Q15.85 23.25 16.25 22.95 16.4 22.8 16.5 22.8 L16.9 22.75 17.15 22.95 18.0 22.35 18.35 22.0 Q18.4 21.05 17.9 20.5 L16.75 19.8 17.3 19.4 Q18.45 18.35 17.65 17.4 L16.7 17.0 16.5 16.95 16.35 16.9 16.35 17.0 15.1 17.1 15.0 18.2 15.15 19.15 14.4 18.9 14.5 18.6 14.7 18.1 14.4 17.7 13.8 17.5 12.9 16.95 Q12.25 16.5 12.0 16.5 L11.6 16.75 11.15 16.55 Q12.4 15.5 14.05 15.6 M27.95 41.5 L27.35 41.6 27.25 41.6 25.95 41.5 Q25.4 40.85 26.25 40.1 27.35 39.15 28.45 39.4 29.2 39.55 29.5 39.9 29.85 40.35 29.2 40.95 28.8 41.3 27.95 41.5 M34.6 20.5 Q34.65 20.05 35.1 19.7 35.65 19.2 36.15 19.4 L36.65 19.75 Q37.5 20.65 36.45 21.25 35.5 21.85 34.85 21.1 L34.6 20.5 M17.1 4.3 Q17.05 3.95 17.45 3.65 17.95 3.2 18.55 3.45 L19.1 3.85 Q19.6 4.5 18.8 5.05 17.9 5.5 17.3 4.8 L17.1 4.3 M4.2 23.9 L5.0 23.9 Q6.25 24.15 6.25 25.3 6.25 26.2 5.3 26.2 4.3 26.2 3.8 24.95 4.2 24.75 4.2 24.2 L4.2 23.9 M8.1 24.35 L9.1 24.1 9.35 24.15 9.9 24.6 Q10.6 25.25 11.05 25.05 L12.0 25.85 Q12.9 26.85 11.4 28.5 L10.95 28.5 10.2 28.45 9.7 28.15 8.3 27.0 Q7.5 26.05 7.5 24.8 L7.7 24.5 8.1 24.35 M18.85 39.3 L18.35 39.05 Q17.85 38.85 17.25 39.35 16.8 39.75 16.9 40.85 L16.9 41.1 Q17.05 42.0 17.3 42.3 L17.4 42.35 17.8 42.65 18.1 42.4 Q20.3 41.05 18.85 39.3" fill="#00a5ff" fill-rule="evenodd" stroke="none"/>
    <path d="M36.5 16.55 L36.75 16.7 36.8 16.75 37.95 16.9 38.95 17.55 Q39.55 18.2 39.45 18.95 L39.55 19.2 40.25 20.25 40.75 20.8 40.75 20.85 Q40.4 20.55 39.9 20.4 L39.15 20.3 38.4 20.4 37.7 20.95 37.1 21.75 37.1 21.8 36.5 22.15 35.65 22.4 34.9 22.65 34.85 22.55 Q34.0 21.65 32.25 20.95 L32.2 20.85 32.3 20.4 Q32.35 19.2 31.75 18.5 L31.2 18.05 Q30.5 17.8 29.55 18.65 L29.5 18.7 29.4 18.6 27.75 17.0 27.4 15.25 27.65 15.1 29.0 15.3 Q30.15 15.7 31.1 16.65 L32.65 18.35 34.25 18.45 Q34.85 18.2 34.7 17.7 L34.8 17.7 35.65 18.2 35.85 17.05 36.5 16.55 M28.25 46.05 L25.95 46.0 23.4 45.75 Q21.8 45.35 21.4 44.8 L20.7 43.9 20.45 43.4 20.45 42.8 20.4 41.1 20.4 40.9 20.4 40.8 Q20.4 40.7 20.55 40.7 L20.6 40.65 Q20.85 40.45 21.85 40.15 22.75 39.8 24.35 38.45 L27.45 37.9 29.45 37.85 29.65 36.5 29.65 35.7 29.6 35.55 29.4 35.05 29.0 34.8 27.75 34.15 25.45 32.8 23.75 31.6 21.2 31.5 Q19.95 32.6 20.65 34.15 L21.0 35.25 Q21.1 35.85 20.6 36.25 L19.3 37.2 Q18.85 37.55 18.1 37.5 L16.8 37.65 16.15 38.3 16.1 38.35 15.55 38.75 15.65 38.95 15.65 39.0 15.5 38.75 14.45 38.85 Q13.65 38.75 13.25 38.25 L12.75 37.3 11.7 36.5 Q10.8 35.5 10.6 34.7 L10.55 33.85 10.55 33.75 10.55 33.7 10.5 33.7 10.45 33.7 Q9.75 33.7 9.25 32.85 L8.85 32.0 Q8.85 30.95 9.85 31.15 L9.5 30.65 8.15 29.1 Q7.1 27.0 6.8 25.7 L6.65 24.95 6.65 24.1 7.65 24.45 8.1 24.3 8.1 24.35 7.7 24.5 7.5 24.8 Q7.5 26.05 8.3 27.0 L9.7 28.15 10.2 28.45 10.95 28.5 11.4 28.5 12.5 28.0 Q12.8 27.7 12.85 25.4 12.8 24.2 12.9 23.5 L12.95 23.3 13.35 22.65 Q14.55 21.65 15.7 22.1 L16.5 22.8 Q16.4 22.8 16.25 22.95 15.85 23.25 15.95 23.75 L16.25 24.55 Q17.9 26.45 19.6 25.55 L20.3 24.85 20.35 25.7 Q20.4 26.55 20.85 27.1 20.6 27.9 21.15 28.5 22.15 29.7 23.3 28.7 L23.7 28.2 24.75 28.15 Q26.15 27.95 26.7 28.15 L27.0 28.55 28.3 29.3 29.5 30.1 30.15 30.7 Q31.05 31.55 32.0 31.35 L33.05 30.8 Q33.75 31.65 33.0 35.25 32.1 39.3 29.95 41.2 L27.95 41.5 Q28.8 41.3 29.2 40.95 29.85 40.35 29.5 39.9 29.2 39.55 28.45 39.4 27.35 39.15 26.25 40.1 25.4 40.85 25.95 41.5 L27.25 41.6 Q26.1 41.85 25.1 42.5 L24.65 42.8 24.55 43.15 Q24.15 44.6 24.75 45.25 L28.25 46.05 M5.55 20.95 Q5.05 20.05 3.9 19.1 L1.4 16.9 Q0.3 15.45 0.0 14.6 L0.0 9.3 0.65 9.9 1.2 10.5 1.5 10.55 1.1 9.85 0.15 8.5 0.0 8.25 0.0 7.9 0.0 7.7 0.0 7.5 0.0 6.95 0.1 6.3 0.2 5.6 0.25 5.45 0.35 5.35 2.45 6.75 3.4 7.45 3.45 7.5 3.5 7.55 3.9 7.8 4.25 7.9 4.35 7.85 4.45 7.85 4.75 7.9 4.85 7.85 4.9 7.6 4.2 6.0 4.7 5.65 4.9 5.15 4.65 4.5 4.05 3.85 3.9 3.85 Q3.5 3.5 3.1 3.6 L2.9 3.5 1.8 2.1 2.15 1.7 2.45 1.45 2.6 1.35 3.0 1.1 3.55 0.8 4.3 0.5 4.95 0.35 5.45 1.5 Q6.6 4.45 7.25 5.5 L9.5 9.45 10.45 12.1 Q11.35 11.45 12.3 11.9 L13.3 12.75 Q14.15 13.7 14.1 14.75 L14.05 15.6 Q12.4 15.5 11.15 16.55 L10.85 16.4 10.15 15.45 10.05 15.3 9.8 14.2 9.7 13.5 8.9 13.05 8.7 13.0 Q8.95 12.35 7.85 11.15 L7.05 10.5 5.6 10.35 Q5.0 10.85 5.2 11.85 5.3 12.65 5.65 13.0 6.0 13.35 6.7 13.55 L6.6 13.75 6.7 13.75 6.8 14.0 Q6.8 14.8 7.1 15.95 L7.15 16.25 Q7.35 17.2 7.65 17.7 8.0 18.2 7.85 19.0 L8.2 20.0 Q8.2 20.75 7.3 20.75 L6.9 20.7 6.6 20.9 Q6.5 21.0 6.55 21.25 L6.35 21.15 5.55 20.95 M10.8 0.0 L14.4 0.0 16.4 1.8 Q18.6 3.15 18.7 1.05 L18.65 0.0 20.2 0.0 21.35 0.9 Q21.6 0.65 22.2 0.6 23.2 0.55 23.2 1.45 L23.0 2.05 24.05 2.75 24.25 2.9 24.65 3.15 24.65 3.3 24.2 3.9 Q23.3 3.45 22.95 3.2 L21.75 2.75 21.7 3.15 22.15 3.5 23.25 5.75 24.65 8.45 Q25.85 9.85 26.15 11.35 26.45 12.55 25.85 13.35 L25.6 13.6 25.35 13.85 24.5 13.95 23.65 13.7 Q22.95 13.4 22.25 12.55 21.8 12.05 20.9 10.3 L20.75 7.85 19.7 7.25 19.45 7.15 19.15 6.4 Q18.85 5.8 16.85 5.65 L14.65 5.0 13.2 4.0 10.8 0.0 M28.2 5.85 Q28.45 5.2 29.45 5.5 30.75 5.95 30.75 7.2 30.75 8.0 29.85 8.0 29.2 8.0 28.6 7.2 L28.45 7.0 28.1 6.35 28.2 5.85 M28.45 7.45 L28.75 7.7 28.9 7.85 29.6 8.8 31.45 10.7 31.45 10.65 Q31.45 10.1 31.7 9.9 L32.6 9.8 Q33.7 10.15 33.7 11.1 L33.65 11.5 Q33.45 12.0 32.75 12.0 L32.4 12.0 32.4 12.25 32.5 12.35 32.9 13.0 31.6 12.85 31.6 12.8 31.55 12.85 30.9 12.35 29.05 9.45 28.35 8.3 28.45 7.45 M22.45 6.05 L21.5 6.1 Q21.25 6.35 21.9 9.0 22.45 11.5 22.7 11.8 23.65 12.8 24.35 12.8 25.0 12.75 25.1 11.9 25.55 9.55 22.85 6.5 L22.45 6.05 M22.8 17.4 L24.3 18.95 26.05 20.15 27.05 21.3 27.75 22.05 28.15 23.0 28.15 24.25 Q27.95 25.3 27.15 25.85 L25.8 25.75 24.8 25.35 Q23.15 24.85 22.8 24.45 22.5 24.1 22.1 22.55 L21.6 20.8 20.75 19.3 Q20.05 17.85 20.85 17.15 21.65 16.45 22.8 17.4 M30.1 22.35 L31.2 22.25 31.65 22.75 Q32.85 24.2 31.9 24.85 31.0 25.5 29.95 24.3 L29.65 23.5 Q29.6 22.8 30.1 22.35 M34.6 20.5 L34.85 21.1 Q35.5 21.85 36.45 21.25 37.5 20.65 36.65 19.75 L36.15 19.4 Q35.65 19.2 35.1 19.7 34.65 20.05 34.6 20.5 M38.9 24.25 L39.35 24.75 Q41.9 27.7 40.15 30.0 39.6 30.85 38.65 31.15 37.8 31.45 37.4 31.0 37.2 30.75 37.3 29.5 L37.4 27.8 37.1 26.45 Q37.05 25.3 37.9 24.6 38.5 24.05 38.9 24.25 M17.1 4.3 L17.3 4.8 Q17.9 5.5 18.8 5.05 19.6 4.5 19.1 3.85 L18.55 3.45 Q17.95 3.2 17.45 3.65 17.05 3.95 17.1 4.3 M10.6 5.45 Q9.95 5.95 9.1 5.0 8.5 4.4 9.05 3.85 L10.15 3.75 10.65 4.1 Q11.3 4.9 10.6 5.45 M14.05 6.45 Q14.6 5.95 15.4 6.45 L16.55 7.2 Q17.25 7.45 18.25 8.6 18.75 9.2 18.45 9.7 18.35 10.05 17.6 10.15 15.9 10.3 14.8 9.2 L14.2 8.75 Q13.8 8.25 14.0 7.75 13.7 6.75 14.05 6.45 M11.6 16.75 L12.0 16.5 Q12.25 16.5 12.9 16.95 L12.25 16.95 12.1 16.95 11.6 16.75 M15.15 19.15 L15.0 18.2 15.1 17.1 16.35 17.0 16.35 16.9 16.5 16.95 16.7 17.0 17.65 17.4 Q18.45 18.35 17.3 19.4 L16.75 19.8 16.1 19.5 15.15 19.15 M2.8 12.35 L0.45 12.15 0.05 12.65 Q0.35 14.2 0.8 15.15 L2.05 16.95 Q2.65 17.65 3.4 17.7 4.25 17.75 4.75 17.25 6.15 15.8 4.4 13.8 L2.8 12.35 M3.05 9.4 Q2.4 9.85 2.85 10.4 3.5 11.15 4.2 10.7 4.95 10.15 4.3 9.5 L4.0 9.15 Q3.55 8.9 3.05 9.4 M4.2 23.9 L4.2 24.2 Q4.2 24.75 3.8 24.95 L3.3 25.0 Q1.95 25.0 1.2 23.1 1.2 21.65 2.7 22.45 3.95 23.1 4.2 23.9 M9.9 20.25 Q9.9 19.8 10.2 19.5 10.7 19.1 11.45 19.65 L12.15 20.25 Q12.8 20.95 11.75 21.3 10.75 21.65 10.1 20.95 9.85 20.65 9.9 20.25 M14.15 33.2 L13.05 33.05 12.65 33.05 12.65 33.1 Q12.3 34.4 13.0 35.15 L14.15 36.0 15.2 36.65 15.3 36.9 15.7 36.85 17.35 36.65 Q18.9 36.2 19.4 35.35 20.0 34.45 18.95 33.35 L18.5 32.9 18.0 32.45 Q17.15 32.2 15.8 32.8 L14.15 33.2 M17.0 26.2 L16.35 25.4 14.75 25.3 Q13.75 26.15 14.35 27.75 L15.35 29.35 Q16.35 30.5 18.15 30.25 L19.2 29.8 Q19.5 29.45 19.05 28.95 L18.55 28.75 18.15 28.6 17.8 27.65 17.0 26.2 M18.85 39.3 Q20.3 41.05 18.1 42.4 L17.8 42.65 17.4 42.35 17.3 42.3 Q17.05 42.0 16.9 41.1 L16.9 40.85 Q16.8 39.75 17.25 39.35 17.85 38.85 18.35 39.05 L18.85 39.3 M30.1 32.4 L29.05 31.6 Q27.75 30.85 27.15 31.4 26.7 31.75 26.7 32.1 L26.95 32.6 Q28.05 33.8 29.55 33.65 L30.4 33.3 Q30.55 32.9 30.1 32.4 M36.75 39.75 L37.1 39.55 37.05 39.85 36.75 39.75" fill="#aee2ff" fill-rule="evenodd" stroke="none"/>
  </g>
</svg>
