<?xml version="1.0" encoding="UTF-8" standalone="no"?>
<svg xmlns:ffdec="https://www.free-decompiler.com/flash" xmlns:xlink="http://www.w3.org/1999/xlink" ffdec:objectType="shape" height="143.35px" width="143.35px" xmlns="http://www.w3.org/2000/svg">
  <g transform="matrix(1.0, 0.0, 0.0, 1.0, 70.75, 72.7)">
    <path d="M2.45 -60.6 L1.2 -60.65 1.5 -60.85 2.45 -60.6 M-10.25 -59.65 Q-14.8 -58.85 -19.0 -57.35 -14.75 -59.05 -10.7 -59.75 L-10.25 -59.65 M-36.45 -47.4 L-39.5 -44.7 -38.9 -45.6 -36.45 -47.4 M-40.95 -43.3 L-41.15 -43.15 -41.95 -42.3 -41.45 -42.95 -40.95 -43.3 M-58.45 3.25 L-58.35 4.45 -58.1 5.05 -58.25 5.65 Q-56.2 26.15 -41.15 41.25 -23.65 58.75 1.05 58.75 24.0 58.75 40.75 43.7 38.75 45.7 36.8 48.25 L36.85 48.75 Q37.05 49.15 37.8 49.15 39.1 49.15 42.35 46.3 45.65 43.45 45.65 42.25 45.65 39.35 42.35 42.25 L43.3 41.25 Q60.8 23.75 60.8 -0.9 60.8 -20.45 49.9 -35.5 50.95 -35.5 50.35 -35.65 50.0 -39.05 46.45 -42.95 43.75 -47.3 40.0 -51.35 35.15 -56.55 31.1 -57.8 L31.05 -57.85 Q29.8 -59.35 26.5 -60.55 23.55 -61.95 19.55 -63.1 10.75 -65.65 4.05 -64.9 -3.75 -65.25 -15.05 -62.05 -22.3 -60.05 -28.25 -57.3 -32.35 -55.4 -33.4 -54.35 -35.95 -53.45 -40.65 -49.15 L-42.35 -47.55 Q-46.5 -43.7 -48.2 -41.25 -52.6 -36.4 -55.8 -28.9 -60.8 -17.2 -60.8 -5.95 -60.8 -1.25 -59.4 3.6 -58.75 3.55 -58.5 3.3 L-58.45 3.25 M35.9 -49.55 L34.1 -50.8 35.0 -50.45 35.9 -49.55 M21.7 -57.15 L16.4 -58.75 17.15 -58.7 19.3 -58.05 20.35 -57.7 21.7 -57.15 M0.4 62.05 L-2.8 61.85 -3.65 61.85 -9.05 61.55 -10.0 61.6 Q-16.85 61.6 -28.4 56.15 L-29.6 55.8 Q-31.95 54.9 -32.45 54.3 L-34.55 53.0 Q-38.85 50.7 -41.8 48.6 -45.4 46.05 -52.0 39.0 L-55.5 35.1 -56.15 34.4 -58.3 32.05 -58.75 31.9 Q-57.85 34.9 -53.25 40.45 -48.3 46.45 -41.8 51.9 -25.15 65.95 -11.2 66.25 -6.35 67.35 -2.1 67.35 13.4 67.35 27.25 62.7 L27.55 62.6 28.65 61.8 Q32.95 60.2 41.85 53.9 51.3 47.25 53.15 43.15 L55.35 40.25 55.6 39.95 56.6 38.55 59.55 34.85 61.9 29.95 61.9 29.9 Q68.25 18.15 68.25 12.2 L68.25 11.8 Q69.95 5.55 69.95 1.1 69.95 -7.8 68.2 -15.0 L67.8 -16.6 67.85 -7.05 Q67.85 -0.3 66.6 4.7 65.7 8.4 64.0 11.85 62.3 17.45 58.3 26.15 53.45 36.55 42.95 46.7 L39.3 50.1 Q37.95 50.9 36.75 51.75 L34.75 52.75 29.35 55.5 Q29.25 53.15 24.35 54.7 L18.6 57.0 8.4 58.75 Q-0.35 60.25 -0.35 61.15 L-0.15 61.75 0.4 62.05 M70.6 -1.0 Q70.6 27.85 50.2 48.25 29.8 68.65 0.9 68.65 -27.95 68.65 -48.35 48.25 -68.75 27.85 -68.75 -1.05 -68.75 -29.9 -48.35 -50.3 -27.95 -70.7 0.9 -70.7 29.8 -70.7 50.2 -50.3 70.6 -29.9 70.6 -1.0 M-36.2 -54.75 Q-28.25 -60.45 -28.25 -60.75 -28.25 -64.2 -36.85 -58.75 -45.5 -53.35 -45.5 -50.55 L-45.5 -49.85 Q-45.3 -49.15 -44.25 -49.15 L-36.2 -54.75 M54.9 31.4 Q56.75 28.25 56.75 26.25 56.75 22.5 53.45 28.35 51.75 31.3 50.1 35.0 L50.2 35.5 50.3 35.6 Q52.75 34.95 54.9 31.4 M-47.4 -45.85 Q-47.4 -49.4 -50.55 -47.15 -53.65 -44.95 -57.45 -38.8 -67.5 -22.55 -67.5 -4.75 -67.6 -2.7 -67.25 -1.75 -66.75 -5.9 -65.35 -11.8 -63.95 -17.6 -62.55 -20.5 L-61.1 -24.7 Q-59.7 -27.95 -58.1 -29.5 -55.9 -33.5 -52.7 -38.1 L-47.4 -45.85" fill="#f8dd45" fill-rule="evenodd" stroke="none"/>
    <path d="M2.45 -60.6 L1.5 -60.85 1.2 -60.65 1.05 -60.65 -10.25 -59.65 -10.7 -59.75 Q-14.75 -59.05 -19.0 -57.35 -28.4 -54.05 -36.45 -47.4 L-38.9 -45.6 -39.5 -44.7 -40.95 -43.3 -41.45 -42.95 -41.95 -42.3 Q-58.6 -25.05 -58.6 -0.95 L-58.45 3.25 -58.5 3.3 Q-58.75 3.55 -59.4 3.6 -60.8 -1.25 -60.8 -5.95 -60.8 -17.2 -55.8 -28.9 -52.6 -36.4 -48.2 -41.25 -46.5 -43.7 -42.35 -47.55 L-40.65 -49.15 Q-35.95 -53.45 -33.4 -54.35 -32.35 -55.4 -28.25 -57.3 -22.3 -60.05 -15.05 -62.05 -3.75 -65.25 4.05 -64.9 10.75 -65.65 19.55 -63.1 23.55 -61.95 26.5 -60.55 29.8 -59.35 31.05 -57.85 L31.1 -57.8 Q35.15 -56.55 40.0 -51.35 43.75 -47.3 46.45 -42.95 50.0 -39.05 50.35 -35.65 50.95 -35.5 49.9 -35.5 46.95 -39.5 43.3 -43.15 39.75 -46.7 35.9 -49.55 L35.0 -50.45 34.1 -50.8 Q28.25 -54.8 21.7 -57.15 L20.35 -57.7 19.3 -58.05 17.15 -58.7 16.4 -58.75 Q9.75 -60.5 2.45 -60.6 M29.35 55.5 L34.75 52.75 36.75 51.75 Q37.95 50.9 39.3 50.1 L42.95 46.7 Q53.45 36.55 58.3 26.15 62.3 17.45 64.0 11.85 65.7 8.4 66.6 4.7 67.85 -0.3 67.85 -7.05 L67.8 -16.6 68.2 -15.0 Q69.95 -7.8 69.95 1.1 69.95 5.55 68.25 11.8 L68.25 12.2 Q68.25 18.15 61.9 29.9 L61.9 29.95 59.55 34.85 56.6 38.55 55.6 39.95 55.35 40.25 53.15 43.15 Q51.3 47.25 41.85 53.9 32.95 60.2 28.65 61.8 L27.55 62.6 27.25 62.7 Q13.4 67.35 -2.1 67.35 -6.35 67.35 -11.2 66.25 -25.15 65.95 -41.8 51.9 -48.3 46.45 -53.25 40.45 -57.85 34.9 -58.75 31.9 L-58.3 32.05 -56.15 34.4 -55.5 35.1 -52.0 39.0 Q-45.4 46.05 -41.8 48.6 -38.85 50.7 -34.55 53.0 L-32.45 54.3 Q-31.95 54.9 -29.6 55.8 L-28.4 56.15 Q-16.85 61.6 -10.0 61.6 L-9.05 61.55 -3.65 61.85 -2.8 61.85 0.4 62.05 3.15 62.35 Q8.05 62.35 18.7 59.6 29.35 56.85 29.35 55.55 L29.35 55.5" fill="#c5a807" fill-rule="evenodd" stroke="none"/>
    <path d="M40.75 43.7 L42.35 42.25 Q45.65 39.35 45.65 42.25 45.65 43.45 42.35 46.3 39.1 49.15 37.8 49.15 37.05 49.15 36.85 48.75 L36.8 48.25 Q38.75 45.7 40.75 43.7 M29.35 55.5 L29.35 55.55 Q29.35 56.85 18.7 59.6 8.05 62.35 3.15 62.35 L0.4 62.05 -0.15 61.75 -0.35 61.15 Q-0.35 60.25 8.4 58.75 L18.6 57.0 24.35 54.7 Q29.25 53.15 29.35 55.5 M54.9 31.4 Q52.75 34.95 50.3 35.6 L50.2 35.5 50.1 35.0 Q51.75 31.3 53.45 28.35 56.75 22.5 56.75 26.25 56.75 28.25 54.9 31.4 M-36.2 -54.75 L-44.25 -49.15 Q-45.3 -49.15 -45.5 -49.85 L-45.5 -50.55 Q-45.5 -53.35 -36.85 -58.75 -28.25 -64.2 -28.25 -60.75 -28.25 -60.45 -36.2 -54.75 M-47.4 -45.85 L-52.7 -38.1 Q-55.9 -33.5 -58.1 -29.5 -59.7 -27.95 -61.1 -24.7 L-62.55 -20.5 Q-63.95 -17.6 -65.35 -11.8 -66.75 -5.9 -67.25 -1.75 -67.6 -2.7 -67.5 -4.75 -67.5 -22.55 -57.45 -38.8 -53.65 -44.95 -50.55 -47.15 -47.4 -49.4 -47.4 -45.85" fill="#fdf3bf" fill-rule="evenodd" stroke="none"/>
    <path d="M13.85 -57.3 L8.35 -57.85 7.65 -57.9 3.25 -58.6 Q8.75 -58.45 13.85 -57.3 M-14.0 -56.8 L-14.75 -56.15 -15.65 -56.35 -14.0 -56.8 M-36.3 -44.95 L-39.5 -41.5 -40.05 -41.45 -39.75 -41.75 -36.3 -44.95 M-46.6 -33.6 L-46.7 -33.4 -46.9 -33.15 -46.6 -33.6 M-54.4 -17.3 L-54.45 -16.65 -54.65 -16.35 -54.4 -17.3 M-56.6 -0.35 L-56.35 -0.1 -56.55 0.65 -56.6 -0.35 M-56.2 5.95 Q-54.6 3.4 -53.15 -0.8 L-50.6 -8.5 Q-49.4 -11.65 -46.45 -16.3 L-41.55 -23.95 Q-36.85 -31.9 -27.35 -39.35 -23.35 -42.5 -12.1 -46.95 L-7.55 -48.8 -4.9 -49.25 4.15 -50.15 Q20.0 -50.15 34.0 -42.45 41.0 -38.6 45.3 -34.75 46.05 -34.75 46.3 -35.0 47.6 -33.85 49.25 -32.95 58.8 -18.9 58.8 -0.9 58.8 22.95 41.9 39.85 25.0 56.75 1.05 56.75 -22.85 56.75 -39.75 39.85 -54.1 25.45 -56.2 5.95 M44.3 -39.25 L43.7 -39.35 43.65 -39.35 43.55 -39.45 43.65 -39.55 43.85 -39.75 44.3 -39.25 M-49.05 -17.75 L-49.3 -17.8 -48.6 -18.65 -49.05 -17.75" fill="#40414d" fill-rule="evenodd" stroke="none"/>
    <path d="M3.25 -58.6 L7.65 -57.9 8.35 -57.85 13.85 -57.3 Q29.7 -53.95 41.9 -41.75 L43.85 -39.75 43.65 -39.55 43.55 -39.45 43.65 -39.35 43.7 -39.35 44.3 -39.25 49.25 -32.95 Q47.6 -33.85 46.3 -35.0 46.05 -34.75 45.3 -34.75 41.0 -38.6 34.0 -42.45 20.0 -50.15 4.15 -50.15 L-4.9 -49.25 -7.55 -48.8 -12.1 -46.95 Q-23.35 -42.5 -27.35 -39.35 -36.85 -31.9 -41.55 -23.95 L-46.45 -16.3 Q-49.4 -11.65 -50.6 -8.5 L-53.15 -0.8 Q-54.6 3.4 -56.2 5.95 L-56.25 5.45 Q-56.3 5.1 -56.5 4.9 L-56.35 4.25 -56.55 0.65 -56.35 -0.1 -56.6 -0.35 -56.6 -0.95 Q-56.6 -9.05 -54.65 -16.35 L-54.45 -16.65 -54.4 -17.3 Q-52.0 -25.75 -46.9 -33.15 L-46.7 -33.4 -46.6 -33.6 Q-43.75 -37.7 -40.05 -41.45 L-39.5 -41.5 -36.3 -44.95 Q-26.95 -53.05 -15.65 -56.35 L-14.75 -56.15 -14.0 -56.8 Q-6.85 -58.65 1.05 -58.65 L3.25 -58.6 M-49.05 -17.75 L-48.6 -18.65 -49.3 -17.8 -49.05 -17.75" fill="#33343d" fill-rule="evenodd" stroke="none"/>
    <path d="M1.2 -60.65 L2.45 -60.6 Q9.75 -60.5 16.4 -58.75 L21.7 -57.15 Q28.25 -54.8 34.1 -50.8 L35.9 -49.55 Q39.75 -46.7 43.3 -43.15 46.95 -39.5 49.9 -35.5 60.8 -20.45 60.8 -0.9 60.8 23.75 43.3 41.25 L42.35 42.25 40.75 43.7 Q24.0 58.75 1.05 58.75 -23.65 58.75 -41.15 41.25 -56.2 26.15 -58.25 5.65 L-58.1 5.05 -58.35 4.45 -58.45 3.25 -58.6 -0.95 Q-58.6 -25.05 -41.95 -42.3 L-41.15 -43.15 -40.95 -43.3 -39.5 -44.7 -36.45 -47.4 Q-28.4 -54.05 -19.0 -57.35 -14.8 -58.85 -10.25 -59.65 L1.05 -60.65 1.2 -60.65 M13.85 -57.3 Q8.75 -58.45 3.25 -58.6 L1.05 -58.65 Q-6.85 -58.65 -14.0 -56.8 L-15.65 -56.35 Q-26.95 -53.05 -36.3 -44.95 L-39.75 -41.75 -40.05 -41.45 Q-43.75 -37.7 -46.6 -33.6 L-46.9 -33.15 Q-52.0 -25.75 -54.4 -17.3 L-54.65 -16.35 Q-56.6 -9.05 -56.6 -0.95 L-56.6 -0.35 -56.55 0.65 -56.35 4.25 -56.5 4.9 Q-56.3 5.1 -56.25 5.45 L-56.2 5.95 Q-54.1 25.45 -39.75 39.85 -22.85 56.75 1.05 56.75 25.0 56.75 41.9 39.85 58.8 22.95 58.8 -0.9 58.8 -18.9 49.25 -32.95 L44.3 -39.25 43.85 -39.75 41.9 -41.75 Q29.7 -53.95 13.85 -57.3 M70.6 -1.0 Q70.6 -29.9 50.2 -50.3 29.8 -70.7 0.9 -70.7 -27.95 -70.7 -48.35 -50.3 -68.75 -29.9 -68.75 -1.05 -68.75 27.85 -48.35 48.25 -27.95 68.65 0.9 68.65 29.8 68.65 50.2 48.25 70.6 27.85 70.6 -1.0 M51.6 -51.7 Q72.6 -30.7 72.6 -1.0 72.6 28.65 51.6 49.65 30.6 70.65 0.9 70.65 -28.75 70.65 -49.75 49.65 -70.75 28.65 -70.75 -1.05 -70.75 -30.7 -49.75 -51.7 -28.75 -72.7 0.9 -72.7 30.6 -72.7 51.6 -51.7" fill="#000000" fill-rule="evenodd" stroke="none"/>
  </g>
</svg>
