<?xml version="1.0" encoding="UTF-8" standalone="no"?>
<svg xmlns:ffdec="https://www.free-decompiler.com/flash" xmlns:xlink="http://www.w3.org/1999/xlink" ffdec:objectType="shape" height="71.35px" width="286.1px" xmlns="http://www.w3.org/2000/svg">
  <g transform="matrix(1.0, 0.0, 0.0, 1.0, -25.5, -25.7)">
    <path d="M32.2 73.2 Q31.2 70.05 31.05 66.6 L31.05 66.45 31.05 66.3 31.05 66.15 31.05 66.1 31.0 65.25 Q31.0 54.55 38.5 47.0 L38.65 46.85 38.7 46.8 38.7 46.75 38.75 46.7 38.8 46.65 38.9 46.55 39.0 46.5 Q46.55 39.0 57.25 39.0 L279.85 39.0 Q290.7 39.0 298.45 46.75 L298.45 46.8 Q306.1 54.4 306.1 65.25 L306.1 66.1 306.1 66.25 306.1 66.3 Q305.95 69.85 305.0 73.05 304.35 75.2 303.35 77.2 L302.55 78.1 Q300.55 80.35 298.9 81.25 L298.85 81.3 Q304.1 75.05 304.6 66.8 L304.8 66.1 304.6 66.1 304.6 65.25 Q304.6 55.05 297.35 47.85 L297.35 47.8 Q290.05 40.5 279.85 40.5 L57.25 40.5 Q47.2 40.5 40.05 47.55 L40.05 47.5 40.0 47.6 39.6 48.0 39.5 48.05 38.55 49.1 38.55 49.15 Q32.5 56.0 32.5 65.25 L32.55 66.15 32.55 66.25 Q32.8 73.8 37.15 79.7 34.5 78.8 32.2 73.2 M246.2 36.2 L243.8 36.0 241.55 35.75 240.4 35.5 236.2 34.35 235.35 34.05 Q234.8 33.75 234.05 33.5 L232.75 33.15 231.75 32.6 230.0 30.85 229.5 30.35 232.0 30.35 232.2 30.35 232.7 30.85 233.15 31.45 Q235.05 32.25 237.5 33.4 L237.8 33.5 238.85 33.8 246.1 35.1 249.9 35.5 250.55 35.6 250.8 36.0 250.3 35.95 250.4 36.05 250.3 36.25 Q250.0 35.95 247.0 36.25 L246.2 36.2 M107.75 30.35 L107.5 30.55 107.1 30.85 104.0 33.2 103.1 33.5 100.75 34.4 Q99.15 35.0 98.2 35.5 L98.0 35.65 93.5 36.35 91.5 36.8 91.45 36.8 90.15 36.5 90.1 36.5 89.65 36.35 88.85 36.25 89.55 36.15 89.6 36.0 90.55 35.9 89.05 35.6 89.8 35.5 96.15 34.2 98.35 33.5 102.25 31.75 Q103.05 31.7 104.05 30.95 L104.2 30.85 104.55 30.55 104.8 30.35 107.75 30.35 M297.1 65.35 L297.1 65.6 Q297.0 73.1 291.6 78.3 286.1 83.5 279.7 82.55 L57.25 82.55 Q49.55 82.3 44.7 77.15 40.1 72.3 40.0 65.6 L40.2 65.6 Q40.25 62.8 41.6 60.45 43.4 57.2 46.75 57.2 47.45 57.2 49.15 56.25 50.65 55.4 52.6 55.65 L52.8 56.3 Q48.75 58.55 45.8 62.3 L43.2 65.6 294.55 65.6 293.8 64.6 Q291.2 61.35 283.8 61.95 L283.5 61.15 Q291.3 54.0 297.1 65.35 M96.9 37.35 L97.2 37.55 97.05 37.55 96.9 37.35" fill="#f1f5f8" fill-rule="evenodd" stroke="none"/>
    <path d="M249.9 35.5 L246.1 35.1 238.85 33.8 237.8 33.5 237.5 33.4 Q235.05 32.25 233.15 31.45 L232.7 30.85 232.2 30.35 232.0 30.35 231.9 30.25 Q227.55 28.25 222.6 27.85 215.55 27.7 208.05 27.7 L128.75 27.7 Q121.25 27.7 114.2 27.85 109.2 28.25 104.9 30.25 L104.8 30.35 104.55 30.55 104.2 30.85 104.05 30.95 Q103.05 31.7 102.25 31.75 L98.35 33.5 96.15 34.2 89.8 35.5 57.25 35.5 Q50.2 35.5 44.4 38.35 40.6 40.2 37.3 43.25 L37.25 43.3 36.6 43.95 36.55 44.0 36.25 44.25 36.0 44.55 35.95 44.6 Q29.9 50.7 28.2 58.7 L28.2 58.65 28.05 59.5 27.5 65.25 27.55 66.0 27.55 66.1 27.55 66.25 Q27.85 77.95 36.3 86.35 L36.3 86.4 Q37.7 87.8 39.25 89.0 47.0 95.05 57.25 95.05 L279.85 95.05 Q291.35 95.05 299.75 87.5 L300.8 86.5 301.05 86.25 302.0 85.2 Q309.2 77.15 309.6 66.3 L309.6 66.1 309.6 65.25 Q309.6 62.35 309.15 59.7 307.55 50.9 300.9 44.3 292.15 35.5 279.85 35.5 L249.9 35.5 M251.0 33.5 L279.85 33.5 Q293.0 33.5 302.35 42.85 311.6 52.1 311.6 65.25 311.6 78.4 302.35 87.8 292.95 97.05 279.85 97.05 L57.25 97.05 Q47.2 97.1 39.4 91.65 37.0 89.95 34.85 87.8 25.5 78.45 25.5 65.25 25.5 52.5 34.2 43.5 L34.25 43.5 34.35 43.35 34.65 43.05 34.8 42.9 34.9 42.85 35.0 42.7 Q37.5 40.2 40.3 38.35 47.75 33.5 57.25 33.5 L87.7 33.5 87.1 33.3 89.5 33.5 Q95.2 33.3 98.45 31.6 L99.6 30.85 100.35 30.35 100.45 30.35 Q106.65 26.45 114.2 25.85 121.5 25.7 128.75 25.7 L208.05 25.7 222.6 25.85 Q230.15 26.45 236.35 30.35 L236.45 30.35 238.1 31.35 Q241.55 32.65 251.0 33.5" fill="#434f76" fill-rule="evenodd" stroke="none"/>
    <path d="M303.35 77.2 Q304.35 75.2 305.0 73.05 305.95 69.85 306.1 66.3 L306.1 66.25 306.1 66.1 306.1 65.25 Q306.1 54.4 298.45 46.8 L298.45 46.75 Q290.7 39.0 279.85 39.0 L57.25 39.0 Q46.55 39.0 39.0 46.5 L38.9 46.55 38.8 46.65 38.75 46.7 38.7 46.75 38.7 46.8 38.65 46.85 38.5 47.0 Q31.0 54.55 31.0 65.25 L31.05 66.1 31.05 66.15 31.05 66.3 31.05 66.45 31.05 66.6 Q31.2 70.05 32.2 73.2 32.85 75.35 33.9 77.35 31.95 74.5 30.25 70.45 L29.15 67.6 29.05 66.25 29.05 66.1 29.05 66.0 29.05 65.85 29.0 65.25 Q29.0 53.8 37.05 45.6 L37.15 45.5 37.3 45.4 37.4 45.3 37.5 45.15 37.6 45.1 39.35 43.5 Q43.5 39.95 48.4 38.35 52.55 37.0 57.25 37.0 L90.7 37.0 91.45 36.8 91.5 36.8 93.5 36.35 98.0 35.65 98.2 35.5 Q99.15 35.0 100.75 34.4 L103.1 33.5 104.0 33.2 107.1 30.85 107.5 30.55 107.75 30.35 108.9 30.35 Q111.45 29.6 114.2 29.35 121.25 29.2 128.75 29.2 L208.05 29.2 Q215.55 29.2 222.6 29.35 225.35 29.55 227.95 30.35 L229.5 30.35 230.0 30.85 231.75 32.6 232.75 33.15 234.05 33.5 Q234.8 33.75 235.35 34.05 L236.2 34.35 240.4 35.5 241.55 35.75 243.8 36.0 246.2 36.2 246.3 36.25 250.05 36.75 251.9 37.0 279.85 37.0 Q291.5 37.0 299.85 45.35 308.1 53.6 308.1 65.25 L308.1 66.1 308.1 66.3 308.1 66.4 308.1 66.75 308.1 66.85 306.2 72.05 Q303.95 77.65 301.5 80.25 L303.35 77.2 M237.1 37.0 L238.2 37.0 237.3 36.75 237.1 37.0 M145.2 37.0 L145.05 36.85 140.75 37.0 145.2 37.0 M96.9 37.35 L97.05 37.55 97.2 37.55 96.9 37.35 M104.5 37.0 L105.15 37.0 104.85 36.95 104.5 37.0" fill="#d2dce3" fill-rule="evenodd" stroke="none"/>
    <path d="M308.1 66.1 L308.1 65.25 Q308.1 53.6 299.85 45.35 291.5 37.0 279.85 37.0 L251.9 37.0 250.05 36.75 246.3 36.25 246.2 36.2 247.0 36.25 Q250.0 35.95 250.3 36.25 L250.4 36.05 250.3 35.95 250.8 36.0 250.55 35.6 249.9 35.5 279.85 35.5 Q292.15 35.5 300.9 44.3 307.55 50.9 309.15 59.7 L308.7 62.0 308.25 66.1 308.1 66.1 M229.5 30.35 L227.95 30.35 Q225.35 29.55 222.6 29.35 215.55 29.2 208.05 29.2 L128.75 29.2 Q121.25 29.2 114.2 29.35 111.45 29.6 108.9 30.35 L107.75 30.35 104.8 30.35 104.9 30.25 Q109.2 28.25 114.2 27.85 121.25 27.7 128.75 27.7 L208.05 27.7 Q215.55 27.7 222.6 27.85 227.55 28.25 231.9 30.25 L232.0 30.35 229.5 30.35 M91.45 36.8 L90.7 37.0 57.25 37.0 Q52.55 37.0 48.4 38.35 43.5 39.95 39.35 43.5 L37.6 45.1 37.5 45.15 37.4 45.3 37.3 45.4 37.15 45.5 37.05 45.6 Q29.0 53.8 29.0 65.25 L29.05 65.85 Q28.4 63.3 28.25 59.95 L28.2 58.7 Q29.9 50.7 35.95 44.6 L36.0 44.55 36.25 44.25 36.55 44.0 36.6 43.95 37.25 43.3 37.3 43.25 Q40.6 40.2 44.4 38.35 50.2 35.5 57.25 35.5 L89.8 35.5 89.05 35.6 90.55 35.9 89.6 36.0 89.55 36.15 88.85 36.25 89.65 36.35 90.1 36.5 90.15 36.5 91.45 36.8 M145.2 37.0 L140.75 37.0 145.05 36.85 145.2 37.0 M237.1 37.0 L237.3 36.75 238.2 37.0 237.1 37.0 M104.5 37.0 L104.85 36.95 105.15 37.0 104.5 37.0" fill="#e6eaef" fill-rule="evenodd" stroke="none"/>
    <path d="M32.2 73.2 Q34.5 78.8 37.15 79.7 L38.55 81.4 38.55 81.45 39.8 82.8 39.85 82.8 Q47.05 90.05 57.25 90.05 L279.85 90.05 Q290.05 90.05 297.3 82.9 L297.45 82.75 298.7 81.45 298.85 81.3 298.9 81.25 Q300.55 80.35 302.55 78.1 L303.35 77.2 301.5 80.25 298.55 83.8 298.45 83.9 298.35 84.0 Q290.65 91.55 279.85 91.55 L57.25 91.55 Q46.4 91.55 38.8 83.95 L38.75 83.9 Q35.7 80.85 33.9 77.35 32.85 75.35 32.2 73.2 M304.6 66.1 L304.8 66.1 304.6 66.8 304.6 66.3 304.6 66.25 304.6 66.1 M308.1 66.85 L308.1 66.75 308.1 66.4 308.1 66.3 308.1 66.1 308.25 66.1 308.7 62.0 309.15 59.7 Q309.6 62.35 309.6 65.25 L309.6 66.1 309.6 66.3 Q309.2 77.15 302.0 85.2 L301.05 86.25 300.8 86.5 299.75 87.5 Q291.35 95.05 279.85 95.05 L57.25 95.05 Q47.0 95.05 39.25 89.0 37.7 87.8 36.3 86.4 L36.3 86.35 Q27.85 77.95 27.55 66.25 L27.55 66.1 27.55 66.0 27.5 65.25 28.05 59.5 28.2 58.65 28.2 58.7 28.25 59.95 Q28.4 63.3 29.05 65.85 L29.05 66.0 29.05 66.1 29.05 66.25 29.15 67.6 Q29.85 77.85 37.35 85.3 L39.35 87.15 39.4 87.2 Q47.0 93.55 57.25 93.55 L279.85 93.55 Q291.45 93.55 299.7 85.45 L299.9 85.2 Q307.5 77.45 308.1 66.85" fill="#8391d1" fill-rule="evenodd" stroke="none"/>
    <path d="M301.5 80.25 Q303.95 77.65 306.2 72.05 L308.1 66.85 Q307.5 77.45 299.9 85.2 L299.7 85.45 Q291.45 93.55 279.85 93.55 L57.25 93.55 Q47.0 93.55 39.4 87.2 L39.35 87.15 37.35 85.3 Q29.85 77.85 29.15 67.6 L30.25 70.45 Q31.95 74.5 33.9 77.35 35.7 80.85 38.75 83.9 L38.8 83.95 Q46.4 91.55 57.25 91.55 L279.85 91.55 Q290.65 91.55 298.35 84.0 L298.45 83.9 298.55 83.8 301.5 80.25 M40.0 65.6 L40.0 65.25 Q40.0 54.4 47.75 50.35 50.15 49.0 57.1 48.0 L57.25 48.0 279.85 48.0 279.95 48.0 Q286.05 48.55 290.8 52.15 297.1 57.0 297.1 65.3 L297.1 65.35 Q291.3 54.0 283.5 61.15 L283.8 61.95 Q291.2 61.35 293.8 64.6 L294.55 65.6 43.2 65.6 45.8 62.3 Q48.75 58.55 52.8 56.3 L52.6 55.65 Q50.65 55.4 49.15 56.25 47.45 57.2 46.75 57.2 43.4 57.2 41.6 60.45 40.25 62.8 40.2 65.6 L40.0 65.6" fill="#6778c7" fill-rule="evenodd" stroke="none"/>
    <path d="M295.95 49.3 L295.7 48.95 Q289.05 42.5 279.85 42.5 L57.25 42.5 Q48.15 42.5 41.65 48.75 L41.25 49.2 41.2 49.25 41.15 49.3 41.1 49.35 41.0 49.45 40.95 49.45 40.9 49.5 40.75 49.7 40.55 49.85 38.65 52.2 Q34.5 57.9 34.5 65.25 L34.55 66.15 34.55 66.25 Q34.8 73.05 38.65 78.4 L40.95 81.15 41.3 81.4 Q47.9 88.05 57.25 88.05 L279.85 88.05 Q288.95 88.05 295.55 81.85 L295.85 81.5 296.05 81.3 296.35 81.05 Q302.3 74.85 302.6 66.25 L302.6 65.25 Q302.6 55.9 295.95 49.3 M37.15 79.7 Q32.8 73.8 32.55 66.25 L32.55 66.15 32.5 65.25 Q32.5 56.0 38.55 49.15 L38.55 49.1 39.5 48.05 39.6 48.0 40.0 47.6 40.05 47.5 40.05 47.55 Q47.2 40.5 57.25 40.5 L279.85 40.5 Q290.05 40.5 297.35 47.8 L297.35 47.85 Q304.6 55.05 304.6 65.25 L304.6 66.1 304.6 66.25 304.6 66.3 304.6 66.8 Q304.1 75.05 298.85 81.3 L298.7 81.45 297.45 82.75 297.3 82.9 Q290.05 90.05 279.85 90.05 L57.25 90.05 Q47.05 90.05 39.85 82.8 L39.8 82.8 38.55 81.45 38.55 81.4 37.15 79.7 M297.1 65.35 L297.1 65.3 Q297.1 57.0 290.8 52.15 286.05 48.55 279.95 48.0 L279.85 48.0 57.25 48.0 57.1 48.0 Q50.15 49.0 47.75 50.35 40.0 54.4 40.0 65.25 L40.0 65.6 Q40.1 72.3 44.7 77.15 49.55 82.3 57.25 82.55 L279.7 82.55 Q286.1 83.5 291.6 78.3 297.0 73.1 297.1 65.6 L297.1 65.35 M279.85 84.55 L57.2 84.55 Q48.75 83.8 43.45 78.5 L43.45 78.55 Q38.0 73.2 38.0 65.25 38.0 55.85 45.8 49.9 52.55 44.75 57.4 46.0 L279.9 46.0 Q287.25 46.25 292.65 50.95 299.1 56.5 299.1 65.75 299.1 75.75 291.05 80.65 288.45 82.2 280.15 84.55 L279.85 84.55" fill="#b4c4cf" fill-rule="evenodd" stroke="none"/>
    <path d="M295.95 49.3 Q302.6 55.9 302.6 65.25 L302.6 66.25 Q302.3 74.85 296.35 81.05 L296.05 81.3 295.85 81.5 295.55 81.85 Q288.95 88.05 279.85 88.05 L57.25 88.05 Q47.9 88.05 41.3 81.4 L40.95 81.15 38.65 78.4 Q34.8 73.05 34.55 66.25 L34.55 66.15 34.5 65.25 Q34.5 57.9 38.65 52.2 L40.55 49.85 40.75 49.7 40.9 49.5 40.95 49.45 41.0 49.45 41.1 49.35 41.15 49.3 41.2 49.25 41.25 49.2 41.65 48.75 Q48.15 42.5 57.25 42.5 L279.85 42.5 Q289.05 42.5 295.7 48.95 L295.95 49.3 M279.85 84.55 L280.15 84.55 Q288.45 82.2 291.05 80.65 299.1 75.75 299.1 65.75 299.1 56.5 292.65 50.95 287.25 46.25 279.9 46.0 L57.4 46.0 Q52.55 44.75 45.8 49.9 38.0 55.85 38.0 65.25 38.0 73.2 43.45 78.55 L43.45 78.5 Q48.75 83.8 57.2 84.55 L279.85 84.55" fill="#99afbf" fill-rule="evenodd" stroke="none"/>
    <path d="M302.65 88.15 L302.7 88.1 302.7 88.15 302.65 88.15" fill="#f1f5f8" fill-rule="evenodd" stroke="none"/>
    <path d="M279.85 80.55 L57.25 80.55 56.85 80.5 Q41.8 77.2 42.0 65.25 42.0 56.25 49.55 52.25 53.2 50.2 57.15 50.0 L57.25 50.0 279.85 50.0 280.0 50.0 Q285.0 50.4 287.9 52.0 295.1 55.65 295.1 65.25 295.05 74.2 287.6 78.25 L287.65 78.25 Q285.35 79.55 282.55 80.15 L282.45 80.2 279.85 80.55" fill="#383e5f" fill-rule="evenodd" stroke="none"/>
  </g>
</svg>
