<?xml version="1.0" encoding="UTF-8" standalone="no"?>
<svg xmlns:ffdec="https://www.free-decompiler.com/flash" xmlns:xlink="http://www.w3.org/1999/xlink" ffdec:objectType="shape" height="123.8px" width="91.75px" xmlns="http://www.w3.org/2000/svg">
  <g transform="matrix(1.0, 0.0, 0.0, 1.0, -163.9, -120.3)">
    <path d="M185.95 243.2 L185.85 243.65 183.8 243.65 183.1 243.4 182.55 243.2 183.0 242.95 183.35 242.65 185.5 242.5 186.05 242.65 185.95 243.2 M173.6 239.8 Q173.6 240.4 173.4 240.4 L172.7 240.45 170.85 239.9 Q169.6 239.55 169.05 238.75 L169.55 238.45 169.85 238.3 172.45 238.8 Q173.6 239.1 173.6 239.8 M205.8 243.3 L205.4 243.7 205.25 244.1 197.7 244.1 196.95 243.85 196.3 243.5 197.8 243.1 200.65 242.7 Q204.65 242.4 205.8 243.3 M238.75 199.35 L239.2 198.9 239.65 199.0 Q239.85 199.1 239.85 199.65 L239.7 200.35 239.2 200.5 238.85 200.4 238.8 200.35 238.6 199.75 238.75 199.35 M254.05 231.1 L255.15 231.45 Q255.65 231.7 255.65 232.05 L255.55 232.7 255.4 232.8 254.45 232.7 254.05 232.6 253.9 232.35 253.85 231.75 253.9 231.2 254.05 231.1 M214.1 150.85 L214.35 150.3 214.9 149.85 215.45 150.05 215.7 150.85 215.55 151.55 214.9 151.75 214.35 151.55 214.1 150.85 M237.8 165.85 L239.7 165.95 239.85 166.95 239.8 167.6 238.85 168.4 238.05 167.4 237.6 166.65 237.7 166.0 237.8 165.85 M223.65 149.95 L222.75 151.1 222.25 150.9 221.95 150.7 221.9 150.65 221.9 149.9 221.95 149.25 222.05 149.1 Q222.9 148.9 223.3 149.1 223.65 149.3 223.65 149.95 M228.1 154.2 L227.85 153.9 227.65 153.35 227.95 152.95 228.45 152.65 229.1 152.75 229.25 152.9 229.3 153.45 229.05 154.2 228.45 154.4 228.1 154.2 M164.85 150.7 L165.45 150.85 Q165.75 151.0 165.75 151.5 L165.75 152.1 165.2 152.45 164.85 152.55 164.3 152.25 163.9 151.75 164.3 151.25 164.85 150.7 M199.75 164.65 L199.75 164.6 199.8 165.25 199.65 165.8 199.2 165.85 198.8 165.65 198.55 165.3 198.75 164.75 199.3 164.65 199.75 164.65 M185.75 169.1 L184.85 169.9 184.2 169.7 183.7 169.55 183.6 169.5 183.55 168.8 183.65 168.15 183.8 167.9 185.4 167.9 Q185.95 168.05 185.95 168.85 L185.75 169.1 M170.35 146.9 L171.0 147.35 171.3 148.15 171.2 148.75 171.1 148.95 169.85 149.2 Q169.35 149.15 169.0 148.65 L168.6 147.85 Q169.4 146.65 170.35 146.9 M188.25 122.35 L187.75 122.6 186.4 122.1 185.6 121.6 Q186.25 120.15 187.4 120.3 187.85 120.4 188.15 120.75 L188.45 121.6 188.25 122.35" fill="#ffb74c" fill-rule="evenodd" stroke="none"/>
  </g>
</svg>
