<?xml version="1.0" encoding="UTF-8" standalone="no"?>
<svg xmlns:ffdec="https://www.free-decompiler.com/flash" xmlns:xlink="http://www.w3.org/1999/xlink" ffdec:objectType="shape" height="55.75px" width="260.0px" xmlns="http://www.w3.org/2000/svg">
  <g transform="matrix(1.0, 0.0, 0.0, 1.0, 172.25, -20.7)">
    <path d="M84.45 33.5 L84.75 37.2 84.75 47.25 84.7 47.25 Q83.7 58.7 71.25 58.7 L-12.5 58.7 -12.5 58.55 -15.4 58.55 -15.4 58.35 -19.4 58.35 -19.4 58.3 -27.8 58.3 -42.6 73.1 -57.4 58.3 -64.05 58.3 -64.05 58.7 -155.75 58.7 Q-168.2 58.7 -169.15 47.25 L-169.25 47.25 -169.25 37.2 Q-169.25 23.7 -155.75 23.7 L71.25 23.7 Q82.75 23.7 84.45 33.5" fill="#333333" fill-rule="evenodd" stroke="none"/>
    <path d="M84.45 33.5 Q82.75 23.7 71.25 23.7 L-155.75 23.7 Q-169.25 23.7 -169.25 37.2 L-169.25 47.25 -169.15 47.25 Q-168.2 58.7 -155.75 58.7 L-64.05 58.7 -64.05 58.3 -57.4 58.3 -42.6 73.1 -27.8 58.3 -19.4 58.3 -19.4 58.35 -15.4 58.35 -15.4 58.55 -12.5 58.55 -12.5 58.7 71.25 58.7 Q83.7 58.7 84.7 47.25 L84.75 47.25 84.75 37.2 84.45 33.5 M87.55 33.5 L87.75 37.2 87.75 47.25 87.7 47.25 Q86.7 61.7 71.25 61.7 L-27.25 61.7 -41.6 76.05 Q-42.05 76.45 -42.6 76.45 -43.15 76.45 -43.55 76.05 L-57.9 61.7 -155.75 61.7 Q-171.2 61.7 -172.15 47.25 L-172.25 47.25 -172.25 37.2 Q-172.25 20.7 -155.75 20.7 L71.25 20.7 Q85.8 20.7 87.55 33.5" fill="#00b4e1" fill-rule="evenodd" stroke="none"/>
  </g>
</svg>
