<?xml version="1.0" encoding="UTF-8" standalone="no"?>
<svg xmlns:ffdec="https://www.free-decompiler.com/flash" xmlns:xlink="http://www.w3.org/1999/xlink" ffdec:objectType="shape" height="43.5px" width="87.25px" xmlns="http://www.w3.org/2000/svg">
  <g transform="matrix(1.0, 0.0, 0.0, 1.0, 18.25, -4.45)">
    <path d="M68.45 15.4 Q69.0 16.55 69.0 18.0 L69.0 34.55 Q69.0 36.3 68.15 37.45 L67.85 37.75 Q66.4 39.2 64.65 39.2 L21.95 39.2 21.95 43.3 21.65 45.3 21.65 45.9 Q20.8 47.35 18.75 47.95 L18.45 47.95 15.85 47.65 Q15.55 47.65 15.3 47.35 L-16.1 30.5 -16.4 29.9 -17.55 28.45 -18.1 27.6 Q-18.4 25.85 -18.1 25.0 L-17.85 24.4 Q-16.95 23.55 -16.65 22.65 L-16.1 21.8 15.3 4.95 15.3 5.25 Q17.3 4.05 19.05 4.65 20.5 4.95 21.4 6.4 L21.65 6.95 21.95 9.3 21.95 13.35 64.65 13.35 Q66.4 13.35 67.85 14.5 68.15 14.5 68.45 15.4" fill="#ff0000" fill-rule="evenodd" stroke="none"/>
  </g>
</svg>
