<?xml version="1.0" encoding="UTF-8" standalone="no"?>
<svg xmlns:ffdec="https://www.free-decompiler.com/flash" xmlns:xlink="http://www.w3.org/1999/xlink" ffdec:objectType="shape" height="31.0px" width="92.35px" xmlns="http://www.w3.org/2000/svg">
  <g transform="matrix(1.0, 0.0, 0.0, 1.0, -13.0, -106.8)">
    <path d="M13.0 109.2 L13.0 106.8 94.7 106.8 94.7 107.0 Q98.55 107.6 101.4 110.05 105.35 113.45 105.35 118.25 L105.35 126.35 Q105.35 131.15 101.4 134.5 L101.4 134.45 Q98.55 137.0 94.7 137.6 L94.7 137.8 13.0 137.8 13.0 135.4 92.45 135.4 94.7 135.15 Q97.6 134.55 99.85 132.65 102.95 130.05 102.95 126.35 L102.95 118.25 Q102.95 114.55 99.85 111.85 L99.85 111.9 Q97.6 110.0 94.7 109.45 L92.45 109.2 13.0 109.2" fill="url(#gradient0)" fill-rule="evenodd" stroke="none"/>
    <path d="M13.0 135.4 L13.0 109.2 92.45 109.2 94.7 109.45 Q97.6 110.0 99.85 111.9 L99.85 111.85 Q102.95 114.55 102.95 118.25 L102.95 126.35 Q102.95 130.05 99.85 132.65 97.6 134.55 94.7 135.15 L92.45 135.4 13.0 135.4" fill="url(#gradient1)" fill-rule="evenodd" stroke="none"/>
  </g>
  <defs>
    <linearGradient gradientTransform="matrix(0.0, -0.0187, 0.0189, 0.0, 59.15, 122.3)" gradientUnits="userSpaceOnUse" id="gradient0" spreadMethod="pad" x1="-819.2" x2="819.2">
      <stop offset="0.0" stop-color="#0156a9"/>
      <stop offset="1.0" stop-color="#ffffff"/>
    </linearGradient>
    <linearGradient gradientTransform="matrix(0.0, 0.017, -0.016, 0.0, 57.95, 122.3)" gradientUnits="userSpaceOnUse" id="gradient1" spreadMethod="pad" x1="-819.2" x2="819.2">
      <stop offset="0.0" stop-color="#05488b"/>
      <stop offset="1.0" stop-color="#57c0fa"/>
    </linearGradient>
  </defs>
</svg>
