<?xml version="1.0" encoding="UTF-8" standalone="no"?>
<svg xmlns:ffdec="https://www.free-decompiler.com/flash" xmlns:xlink="http://www.w3.org/1999/xlink" ffdec:objectType="shape" height="25.05px" width="105.55px" xmlns="http://www.w3.org/2000/svg">
  <g transform="matrix(1.0, 0.0, 0.0, 1.0, 1.7, -106.5)">
    <path d="M99.5 110.55 L99.5 110.6 Q97.7 109.05 95.35 108.6 L93.6 108.4 8.9 108.4 Q5.25 108.4 2.7 110.6 L2.7 110.55 Q0.25 112.75 0.25 115.75 L0.25 122.3 Q0.25 125.3 2.7 127.4 5.25 129.6 8.9 129.6 L93.6 129.6 95.35 129.4 Q97.7 128.95 99.5 127.4 101.95 125.3 101.95 122.3 L101.95 115.75 Q101.95 112.75 99.5 110.55 M95.35 106.5 L95.35 106.65 Q98.45 107.15 100.7 109.1 103.85 111.85 103.85 115.75 L103.85 122.3 Q103.85 126.2 100.7 128.9 L100.7 128.85 Q98.45 130.9 95.35 131.4 L95.35 131.55 8.9 131.55 Q4.55 131.55 1.45 128.85 L1.45 128.9 Q-1.7 126.2 -1.7 122.3 L-1.7 115.75 Q-1.7 111.85 1.45 109.1 4.55 106.5 8.9 106.5 L95.35 106.5" fill="url(#gradient0)" fill-rule="evenodd" stroke="none"/>
    <path d="M99.5 110.55 Q101.95 112.75 101.95 115.75 L101.95 122.3 Q101.95 125.3 99.5 127.4 97.7 128.95 95.35 129.4 L93.6 129.6 8.9 129.6 Q5.25 129.6 2.7 127.4 0.25 125.3 0.25 122.3 L0.25 115.75 Q0.25 112.75 2.7 110.55 L2.7 110.6 Q5.25 108.4 8.9 108.4 L93.6 108.4 95.35 108.6 Q97.7 109.05 99.5 110.6 L99.5 110.55" fill="url(#gradient1)" fill-rule="evenodd" stroke="none"/>
  </g>
  <defs>
    <linearGradient gradientTransform="matrix(0.0, -0.0165, 0.0151, 0.0, 51.1, 119.0)" gradientUnits="userSpaceOnUse" id="gradient0" spreadMethod="pad" x1="-819.2" x2="819.2">
      <stop offset="0.0" stop-color="#0156a9"/>
      <stop offset="1.0" stop-color="#ffffff"/>
    </linearGradient>
    <linearGradient gradientTransform="matrix(0.0, 0.0152, -0.0127, 0.0, 51.1, 119.0)" gradientUnits="userSpaceOnUse" id="gradient1" spreadMethod="pad" x1="-819.2" x2="819.2">
      <stop offset="0.0" stop-color="#05488b"/>
      <stop offset="1.0" stop-color="#57c0fa"/>
    </linearGradient>
  </defs>
</svg>
