<?xml version="1.0" encoding="UTF-8" standalone="no"?>
<svg xmlns:ffdec="https://www.free-decompiler.com/flash" xmlns:xlink="http://www.w3.org/1999/xlink" ffdec:objectType="shape" height="25.05px" width="105.55px" xmlns="http://www.w3.org/2000/svg">
  <g transform="matrix(1.0, 0.0, 0.0, 1.0, 0.25, -107.55)">
    <path d="M100.95 111.6 L100.95 111.65 Q99.15 110.1 96.8 109.65 L95.05 109.45 10.35 109.45 Q6.7 109.45 4.15 111.65 L4.15 111.6 Q1.7 113.8 1.7 116.8 L1.7 123.35 Q1.7 126.35 4.15 128.45 6.7 130.65 10.35 130.65 L95.05 130.65 96.8 130.45 Q99.15 130.0 100.95 128.45 103.4 126.35 103.4 123.35 L103.4 116.8 Q103.4 113.8 100.95 111.6 M96.8 107.55 L96.8 107.7 Q99.9 108.2 102.15 110.15 105.3 112.9 105.3 116.8 L105.3 123.35 Q105.3 127.25 102.15 129.95 L102.15 129.9 Q99.9 131.95 96.8 132.45 L96.8 132.6 10.35 132.6 Q6.0 132.6 2.9 129.9 L2.9 129.95 Q-0.25 127.25 -0.25 123.35 L-0.25 116.8 Q-0.25 112.9 2.9 110.15 6.0 107.55 10.35 107.55 L96.8 107.55" fill="url(#gradient0)" fill-rule="evenodd" stroke="none"/>
    <path d="M100.95 111.6 Q103.4 113.8 103.4 116.8 L103.4 123.35 Q103.4 126.35 100.95 128.45 99.15 130.0 96.8 130.45 L95.05 130.65 10.35 130.65 Q6.7 130.65 4.15 128.45 1.7 126.35 1.7 123.35 L1.7 116.8 Q1.7 113.8 4.15 111.6 L4.15 111.65 Q6.7 109.45 10.35 109.45 L95.05 109.45 96.8 109.65 Q99.15 110.1 100.95 111.65 L100.95 111.6" fill="url(#gradient1)" fill-rule="evenodd" stroke="none"/>
  </g>
  <defs>
    <linearGradient gradientTransform="matrix(0.0, -0.0165, 0.0151, 0.0, 52.55, 120.05)" gradientUnits="userSpaceOnUse" id="gradient0" spreadMethod="pad" x1="-819.2" x2="819.2">
      <stop offset="0.0" stop-color="#0156a9"/>
      <stop offset="1.0" stop-color="#ffffff"/>
    </linearGradient>
    <linearGradient gradientTransform="matrix(0.0, 0.0152, -0.0127, 0.0, 52.55, 120.05)" gradientUnits="userSpaceOnUse" id="gradient1" spreadMethod="pad" x1="-819.2" x2="819.2">
      <stop offset="0.0" stop-color="#05488b"/>
      <stop offset="1.0" stop-color="#57c0fa"/>
    </linearGradient>
  </defs>
</svg>
