<?xml version="1.0" encoding="UTF-8" standalone="no"?>
<svg xmlns:ffdec="https://www.free-decompiler.com/flash" xmlns:xlink="http://www.w3.org/1999/xlink" ffdec:objectType="shape" height="24.35px" width="288.45px" xmlns="http://www.w3.org/2000/svg">
  <g transform="matrix(1.0, 0.0, 0.0, 1.0, -0.5, 0.0)">
    <path d="M285.3 3.6 Q288.95 7.2 288.95 12.15 288.95 17.25 285.3 20.85 282.2 23.85 278.1 24.35 L278.1 24.05 274.5 24.35 11.55 24.35 10.75 24.35 10.75 24.25 Q6.95 23.65 4.05 20.85 0.5 17.25 0.5 12.15 0.5 7.2 4.05 3.6 6.95 0.7 10.75 0.2 L10.75 0.0 11.55 0.0 274.5 0.0 278.1 0.4 278.1 0.1 Q282.2 0.5 285.3 3.6" fill="#353931" fill-rule="evenodd" stroke="none"/>
  </g>
</svg>
