<?xml version="1.0" encoding="UTF-8" standalone="no"?>
<svg xmlns:ffdec="https://www.free-decompiler.com/flash" xmlns:xlink="http://www.w3.org/1999/xlink" ffdec:objectType="shape" height="621.25px" width="1526.25px" xmlns="http://www.w3.org/2000/svg">
  <g transform="matrix(1.0, 0.0, 0.0, 1.0, -296.85, -1226.85)">
    <path d="M1575.05 1322.65 Q1604.65 1334.2 1627.8 1341.55 1652.45 1349.35 1660.6 1349.35 1668.1 1349.35 1676.45 1345.7 L1688.1 1340.6 Q1693.95 1339.05 1740.55 1340.4 1788.0 1341.75 1790.6 1344.35 1798.55 1331.4 1810.6 1323.1 1818.5 1328.05 1820.6 1331.4 1823.1 1335.35 1823.1 1344.35 1823.1 1353.1 1822.0 1357.5 1821.25 1360.6 1818.1 1366.85 L1818.1 1561.85 1807.6 1631.65 Q1798.3 1686.45 1786.7 1727.25 1752.25 1848.1 1698.1 1848.1 1669.25 1848.1 1636.3 1831.25 1611.3 1818.45 1578.3 1792.4 1541.9 1762.4 1525.15 1749.25 1496.3 1726.6 1478.1 1719.35 1461.65 1712.85 1375.55 1702.15 1316.25 1694.8 1193.45 1682.1 L1010.35 1662.85 Q922.6 1653.0 905.0 1648.1 893.35 1644.85 833.9 1614.2 767.25 1579.85 703.65 1542.8 624.55 1496.7 578.5 1462.5 522.5 1420.9 522.5 1401.85 522.5 1383.35 531.65 1371.7 540.3 1360.75 559.2 1353.3 575.0 1347.05 605.3 1340.7 623.75 1336.8 670.0 1328.1 L816.25 1326.85 Q823.45 1325.75 852.8 1318.9 884.3 1311.55 895.0 1308.1 L1098.1 1305.6 1199.5 1291.55 Q1292.05 1278.65 1298.1 1275.6 1331.15 1259.2 1356.05 1251.65 1381.75 1243.9 1402.7 1244.3 1423.55 1244.7 1442.7 1253.2 1460.9 1261.3 1480.6 1278.1 1505.8 1295.5 1575.05 1322.65 M1321.85 1295.6 Q1362.25 1295.6 1380.75 1294.05 1389.7 1293.3 1403.1 1290.6 1361.5 1289.8 1341.85 1291.7 1332.25 1292.65 1321.85 1295.6 M312.75 1232.4 L315.2 1227.9 Q316.1 1226.1 316.8 1227.45 317.6 1229.0 319.35 1236.7 319.35 1246.4 320.6 1252.65 321.25 1255.65 320.15 1261.15 318.95 1267.05 319.2 1269.5 320.2 1278.9 340.0 1283.25 L342.15 1283.8 Q343.1 1284.25 343.1 1286.25 343.1 1287.6 342.5 1289.7 341.85 1291.8 341.85 1293.55 341.85 1295.2 338.4 1298.8 333.8 1303.65 327.8 1302.65 330.25 1310.1 333.6 1317.95 L338.5 1329.25 Q343.1 1340.6 343.1 1353.25 343.1 1356.8 342.8 1357.95 341.9 1361.55 338.4 1362.65 341.05 1365.0 342.3 1366.85 343.1 1368.1 343.1 1368.75 343.1 1370.9 342.25 1371.95 341.6 1372.75 340.0 1373.25 L331.25 1373.25 318.75 1370.8 Q315.6 1370.05 315.6 1366.85 315.6 1364.75 317.1 1363.75 317.45 1363.45 322.5 1361.05 L322.5 1359.5 318.95 1359.2 314.65 1358.9 314.35 1357.0 314.35 1302.65 Q313.1 1294.9 310.45 1290.85 308.1 1288.35 308.1 1288.1 308.1 1287.4 310.6 1277.15 313.1 1266.9 313.1 1263.75 L313.1 1254.2 Q312.85 1248.25 311.25 1248.25 308.25 1248.25 307.95 1245.75 L308.1 1242.95 Q305.4 1241.75 301.45 1241.15 298.65 1240.7 297.15 1239.2 296.85 1238.25 296.85 1235.45 L301.8 1235.05 307.65 1235.15 Q310.65 1235.15 312.75 1232.4 M324.65 1290.15 L331.25 1290.15 327.95 1290.0 324.65 1290.15 M336.85 1352.65 Q336.85 1341.75 326.85 1325.45 328.65 1338.5 329.0 1340.15 330.55 1347.7 334.65 1356.7 L336.55 1356.4 336.8 1355.35 336.85 1352.65" fill="#666666" fill-rule="evenodd" stroke="none"/>
  </g>
</svg>
