<?xml version="1.0" encoding="UTF-8" standalone="no"?>
<svg xmlns:ffdec="https://www.free-decompiler.com/flash" xmlns:xlink="http://www.w3.org/1999/xlink" ffdec:objectType="shape" height="93.65px" width="853.15px" xmlns="http://www.w3.org/2000/svg">
  <g transform="matrix(1.0, 0.0, 0.0, 1.0, -103.65, -1.2)">
    <path d="M902.5 41.5 L901.95 41.4 901.75 41.1 Q901.55 40.85 901.55 39.85 901.55 38.4 904.4 38.25 907.4 38.1 909.65 40.1 906.2 41.6 904.2 41.6 L902.5 41.5 M956.6 77.15 L956.6 77.65 956.8 77.85 955.8 78.05 Q953.85 78.05 952.05 77.25 950.35 76.45 949.95 75.55 951.0 74.25 952.85 75.1 L956.6 77.15 M875.2 5.75 Q876.25 6.15 876.5 7.05 L875.7 7.9 874.55 8.35 873.25 7.55 Q874.4 5.75 875.2 5.75 M851.95 34.25 L853.75 36.05 851.95 37.85 850.6 36.55 850.25 36.05 Q850.25 35.95 851.1 35.75 851.95 35.4 851.95 34.25 M828.3 77.15 Q831.5 70.6 836.3 71.9 839.2 72.65 846.35 77.15 L846.5 77.5 838.35 78.0 830.45 78.45 Q829.4 78.45 828.9 78.0 L828.3 77.15 M855.2 87.0 L853.9 86.2 Q854.6 84.7 856.95 83.65 859.15 82.65 860.6 82.95 L858.3 85.1 Q856.25 86.65 855.2 87.0 M789.5 9.0 Q789.0 10.3 787.2 10.3 L785.65 10.15 785.25 9.95 784.6 9.0 785.6 7.75 789.0 8.0 789.5 9.0 M775.75 36.7 Q774.5 37.95 772.75 38.15 L770.45 37.5 Q770.85 35.9 771.4 35.6 L774.85 35.4 Q774.85 35.8 775.75 36.7 M763.25 22.5 Q763.25 24.85 761.8 24.95 L757.4 24.6 Q754.5 24.6 745.45 27.6 L736.65 30.6 Q733.1 30.6 733.1 29.95 735.9 29.35 741.7 26.85 L751.65 22.5 Q763.25 17.75 763.25 22.5 M785.25 72.6 L785.85 73.1 785.9 72.85 785.9 73.85 Q785.9 74.7 784.6 75.55 783.4 76.35 782.4 76.35 L781.0 76.2 780.8 76.05 780.3 75.75 Q780.15 75.6 780.15 74.55 780.15 73.4 782.1 72.95 L785.25 72.6 M680.4 4.35 L680.85 5.25 Q679.95 6.0 677.9 6.3 675.75 6.65 674.75 7.35 L673.65 7.8 Q672.5 8.05 672.5 7.05 L674.2 6.2 679.3 3.45 680.4 4.35 M682.0 39.4 Q681.6 40.05 680.35 40.7 L678.65 41.5 676.95 39.7 Q676.95 38.65 678.7 38.3 L681.5 38.4 682.0 39.4 M670.4 44.75 L670.6 45.15 Q659.25 44.05 646.3 46.85 635.4 49.85 634.45 49.85 632.55 49.85 632.05 48.8 L631.85 47.6 Q631.85 44.65 645.55 44.25 649.05 44.15 670.35 44.5 L670.4 44.75 M657.55 71.3 L657.85 72.3 Q657.65 72.85 656.9 73.1 L654.75 73.45 652.0 73.45 651.75 72.85 651.3 72.15 Q652.45 71.35 654.1 71.05 L657.55 71.3 M662.15 74.55 Q663.75 73.45 666.75 74.3 669.35 75.0 670.6 76.2 L668.95 77.1 Q668.0 77.65 667.05 77.65 666.6 77.65 664.5 76.3 662.45 74.95 662.15 74.55 M709.65 84.35 Q699.95 79.75 695.7 78.3 698.45 78.1 709.3 80.3 721.8 82.8 721.8 85.2 721.8 88.2 719.2 88.2 717.65 88.2 709.65 84.35 M612.9 47.0 L620.3 47.45 Q620.3 47.9 620.95 48.9 L621.0 49.55 Q621.0 49.85 620.0 49.85 L618.15 49.4 Q616.65 48.75 615.1 48.4 612.45 47.0 610.8 47.0 L605.6 47.7 600.35 48.4 Q595.65 48.4 593.35 47.6 L590.0 45.75 Q585.0 42.95 568.75 42.65 L568.1 41.65 576.6 42.55 585.65 43.2 606.75 41.65 Q609.5 41.65 610.2 43.45 610.55 44.35 610.35 45.3 610.35 46.15 612.9 47.0 M570.35 9.65 L569.6 10.55 Q568.85 11.1 567.75 11.1 567.55 11.1 566.5 10.3 L565.15 9.3 Q565.5 7.9 566.25 7.6 567.4 7.15 569.85 8.65 L570.35 9.65 M567.75 76.2 L566.35 76.05 566.15 75.85 565.5 74.9 565.8 73.6 568.1 73.95 Q570.1 74.4 570.7 74.9 L569.4 75.8 567.75 76.2 M541.15 33.5 Q544.7 32.25 548.4 33.6 L548.75 34.1 Q547.3 34.9 544.75 35.0 L541.65 34.9 536.4 35.45 532.95 35.95 Q536.15 35.3 541.15 33.5 M470.75 6.9 L471.25 6.9 474.5 10.4 Q476.9 12.9 476.9 14.1 476.9 15.15 476.25 16.05 475.35 17.35 473.65 17.35 471.5 17.35 470.75 15.8 470.4 15.1 470.4 14.1 L470.6 11.75 470.75 6.9 M470.65 36.9 L469.1 37.35 Q467.0 37.35 466.75 36.55 466.95 35.65 467.7 35.1 468.85 34.3 470.6 35.1 L471.05 36.05 470.65 36.9 M457.6 76.7 Q455.4 76.9 455.2 76.15 L454.65 74.75 Q457.05 74.05 461.7 74.9 460.75 75.05 460.0 75.65 459.1 76.3 457.6 76.7 M381.9 5.9 L382.25 6.8 Q381.9 7.4 378.95 8.0 L377.75 7.6 Q377.3 7.3 377.3 6.25 377.3 5.35 378.4 4.95 L381.6 5.1 381.9 5.9 M380.55 39.85 L379.05 39.75 378.1 39.4 Q377.8 40.3 377.8 38.65 377.8 37.65 377.9 37.6 L377.95 37.7 380.3 37.45 382.9 37.75 383.3 38.75 Q382.3 39.85 380.55 39.85 M361.85 35.55 L361.65 35.25 Q361.4 35.0 361.4 34.0 361.4 32.8 364.35 32.1 367.6 31.35 370.7 32.65 367.2 35.75 363.75 35.75 L362.2 35.65 361.85 35.55 M287.75 9.1 L284.5 9.1 284.7 8.8 284.85 8.65 286.2 8.75 Q287.6 8.9 287.75 9.1 M260.4 41.15 L258.75 41.1 Q258.3 41.05 257.85 40.7 258.9 39.6 260.85 39.05 L264.55 39.2 263.45 40.8 260.4 41.15 M255.0 55.3 Q255.0 54.0 277.5 47.85 297.25 42.4 304.25 41.0 294.95 45.55 282.85 50.65 264.75 58.25 259.65 58.25 256.35 58.25 255.35 56.8 L255.0 55.3 M259.95 76.2 L263.7 76.1 264.35 77.1 Q263.55 78.3 261.55 79.15 259.55 80.0 257.7 80.0 L256.35 79.85 256.15 79.7 255.5 78.7 Q256.9 76.85 259.95 76.2 M300.45 77.75 L300.1 79.05 298.35 79.35 Q296.45 79.35 295.4 78.05 296.4 77.25 297.15 77.0 L300.1 76.75 300.15 77.05 300.45 77.75 M169.15 35.55 Q168.55 36.45 167.65 36.65 L164.9 37.25 Q163.65 37.15 162.85 36.7 L162.05 35.8 164.9 34.45 168.5 34.25 169.15 35.55 M190.1 36.6 L190.3 36.8 190.45 37.85 Q190.45 39.45 190.25 39.05 L189.85 39.3 188.5 39.55 186.55 39.4 186.3 39.1 Q186.05 38.8 186.05 37.85 186.05 36.9 187.15 36.6 188.2 36.25 190.1 36.6" fill="#d5dfbb" fill-rule="evenodd" stroke="none"/>
    <path d="M901.4 60.3 L901.7 60.55 902.5 62.0 903.15 62.7 915.35 71.4 922.8 77.35 Q935.7 87.45 943.3 92.65 L942.25 92.8 941.45 92.95 926.0 81.75 Q915.7 74.5 908.25 69.85 L899.0 63.15 900.0 63.2 895.55 60.85 896.0 60.35 898.4 60.6 901.4 60.3 M848.65 60.6 L844.45 60.35 828.5 47.75 Q814.7 36.2 806.75 30.6 799.15 25.3 792.5 23.0 L787.75 19.45 791.2 19.25 801.6 26.55 810.45 33.0 848.65 60.6 M814.95 1.3 L816.3 1.2 830.75 11.2 836.1 14.85 843.1 19.65 840.2 20.05 827.75 11.2 813.35 1.25 814.95 1.3 M838.9 94.45 L838.25 94.85 820.25 81.75 Q809.95 74.5 802.5 69.85 L793.25 63.15 794.25 63.2 789.8 60.85 790.25 60.35 792.65 60.6 795.65 60.3 795.95 60.55 Q796.4 61.0 796.75 62.0 L797.4 62.7 809.6 71.4 817.05 77.35 Q831.4 88.55 839.15 93.75 L838.9 94.45 M737.05 91.75 L736.95 91.9 722.95 81.75 Q712.65 74.5 705.2 69.85 L695.95 63.15 696.95 63.2 692.5 60.85 692.95 60.35 695.35 60.6 698.35 60.3 698.65 60.55 699.45 62.0 700.1 62.7 712.3 71.4 719.75 77.35 Q730.8 86.0 737.95 91.0 L737.05 91.75 M730.35 14.85 L737.35 19.65 734.45 20.05 722.0 11.2 709.6 2.6 711.8 2.65 712.6 2.6 725.0 11.2 730.35 14.85 M640.05 19.65 L637.15 20.05 624.7 11.2 610.3 1.25 611.9 1.3 613.25 1.2 627.7 11.2 633.05 14.85 640.05 19.65 M589.05 19.95 L589.15 19.95 598.55 26.55 607.4 33.0 Q627.55 47.7 645.6 60.6 L641.4 60.35 625.45 47.75 Q611.65 36.2 603.7 30.6 596.1 25.3 589.45 23.0 L584.7 19.45 585.4 19.45 589.05 19.95 M587.9 61.45 L590.9 60.85 Q591.7 60.85 592.3 60.5 L592.8 60.5 592.9 60.55 593.7 62.0 594.35 62.7 606.55 71.4 614.0 77.35 Q623.95 85.1 630.7 89.95 L628.9 90.15 617.2 81.75 Q606.9 74.5 599.45 69.85 L590.2 63.15 591.2 63.2 587.9 61.45 M527.3 14.85 L534.3 19.65 531.4 20.05 518.95 11.2 504.55 1.25 506.15 1.3 507.5 1.2 521.95 11.2 527.3 14.85 M496.8 61.45 L497.85 60.85 498.4 62.0 499.05 62.7 511.25 71.4 518.7 77.35 Q529.1 85.45 536.05 90.45 L534.05 90.5 Q527.95 86.05 521.9 81.75 511.6 74.5 504.15 69.85 L494.9 63.15 495.9 63.2 492.65 61.45 496.8 61.45 M416.15 77.35 Q427.95 86.6 435.3 91.75 L433.05 91.7 419.35 81.75 Q409.05 74.5 401.6 69.85 L392.35 63.15 393.35 63.2 Q388.95 60.85 388.9 60.85 L389.35 60.35 391.75 60.6 394.75 60.3 395.05 60.55 395.85 62.0 396.5 62.7 408.7 71.4 416.15 77.35 M427.6 47.75 Q413.8 36.2 405.85 30.6 398.25 25.3 391.6 23.0 L386.85 19.45 390.3 19.25 400.7 26.55 409.55 33.0 Q429.7 47.7 447.75 60.6 L443.55 60.35 427.6 47.75 M439.0 19.65 L436.1 20.05 423.65 11.2 409.25 1.25 410.85 1.3 412.2 1.2 426.65 11.2 432.0 14.85 439.0 19.65 M329.45 14.85 L336.45 19.65 333.55 20.05 321.1 11.2 306.7 1.25 308.3 1.3 309.65 1.2 324.1 11.2 329.45 14.85 M340.05 94.85 Q331.05 88.1 322.05 81.75 311.75 74.5 304.3 69.85 L295.05 63.15 296.05 63.2 291.6 60.85 292.05 60.35 294.45 60.6 297.45 60.3 297.75 60.55 Q298.2 61.0 298.55 62.0 L299.2 62.7 311.4 71.4 318.85 77.35 Q333.2 88.55 340.95 93.75 L340.7 94.45 Q340.5 94.75 340.05 94.85 M232.15 14.85 L239.15 19.65 236.25 20.05 223.8 11.2 Q217.05 6.45 211.05 2.4 L214.25 2.5 226.8 11.2 232.15 14.85 M224.55 47.75 Q210.75 36.2 202.8 30.6 195.2 25.3 188.55 23.0 L183.8 19.45 187.25 19.25 197.65 26.55 206.5 33.0 244.7 60.6 240.5 60.35 224.55 47.75 M133.4 19.65 L130.5 20.05 118.05 11.2 103.65 1.25 105.25 1.3 106.6 1.2 121.05 11.2 126.4 14.85 133.4 19.65 M188.7 60.6 L191.7 60.3 192.0 60.55 Q192.45 61.0 192.8 62.0 L193.45 62.7 205.65 71.4 213.1 77.35 Q225.5 87.05 233.0 92.25 L231.15 92.5 216.3 81.75 Q206.0 74.5 198.55 69.85 L189.3 63.15 190.3 63.2 185.85 60.85 186.3 60.35 188.7 60.6" fill="#89a34e" fill-rule="evenodd" stroke="none"/>
  </g>
</svg>
