<?xml version="1.0" encoding="UTF-8" standalone="no"?>
<svg xmlns:ffdec="https://www.free-decompiler.com/flash" xmlns:xlink="http://www.w3.org/1999/xlink" ffdec:objectType="shape" height="367.7px" width="1891.65px" xmlns="http://www.w3.org/2000/svg">
  <g transform="matrix(1.0, 0.0, 0.0, 1.0, 586.4, 220.2)">
    <path d="M-473.7 -179.1 L-475.4 -176.9 Q-476.35 -175.4 -476.35 -174.25 -476.35 -166.4 -473.35 -152.9 -470.1 -138.15 -464.95 -124.6 -451.35 -89.25 -434.6 -86.55 L-435.1 -87.4 Q-434.45 -87.6 -434.35 -87.7 -433.75 -88.15 -433.75 -89.55 -433.75 -90.75 -437.9 -97.65 -444.1 -107.9 -447.5 -114.4 -462.05 -142.2 -465.4 -169.45 L-468.9 -168.9 Q-471.25 -174.95 -473.7 -179.1 M166.6 -141.55 L1305.25 -141.55 1305.25 132.05 166.6 132.05 166.6 147.5 -586.4 147.5 -586.4 -220.2 166.6 -220.2 166.6 -141.55" fill="#c2d19e" fill-rule="evenodd" stroke="none"/>
  </g>
</svg>
