<?xml version="1.0" encoding="UTF-8" standalone="no"?>
<svg xmlns:ffdec="https://www.free-decompiler.com/flash" xmlns:xlink="http://www.w3.org/1999/xlink" ffdec:objectType="shape" height="538.5px" width="1981.05px" xmlns="http://www.w3.org/2000/svg">
  <g transform="matrix(1.0, 0.0, 0.0, 1.0, 753.5, 352.15)">
    <path d="M796.7 -294.6 L798.1 -296.2 797.9 -295.35 800.05 -298.45 800.15 -298.6 800.2 -298.6 800.25 -298.3 800.4 -297.9 799.6 -295.35 801.35 -296.95 801.65 -296.7 803.45 -296.4 Q808.45 -296.4 817.2 -308.4 841.7 -307.0 865.65 -302.75 L903.75 -295.15 Q922.95 -291.35 934.35 -291.35 937.45 -291.35 943.25 -293.5 L956.8 -298.25 Q980.05 -305.15 1016.55 -305.15 1043.0 -305.15 1054.55 -299.65 1060.6 -296.75 1062.05 -292.3 L1062.05 -289.05 Q1059.4 -288.9 1058.25 -286.35 1057.5 -284.8 1057.5 -283.3 L1057.5 -282.95 Q1056.05 -282.95 1051.8 -285.7 1047.55 -288.5 1045.25 -288.5 1042.8 -288.5 1038.5 -286.15 1034.7 -283.8 1034.6 -283.8 L1026.2 -284.85 1016.0 -285.9 Q1011.15 -285.9 1009.45 -284.35 1008.6 -282.8 1008.0 -282.8 1007.0 -282.8 1004.3 -283.7 1001.6 -284.6 997.6 -284.6 989.65 -284.6 988.4 -282.25 987.95 -281.55 988.2 -280.4 L988.5 -278.9 985.05 -278.9 968.55 -280.95 952.1 -282.1 Q947.65 -282.1 946.45 -281.15 946.1 -280.2 945.7 -280.2 942.75 -280.2 934.2 -284.35 925.65 -288.5 920.5 -288.5 919.7 -288.5 918.5 -287.75 917.35 -287.05 916.55 -287.05 908.0 -290.35 900.2 -292.15 884.75 -295.65 884.75 -287.95 L884.75 -287.6 881.5 -288.0 857.8 -291.95 835.35 -295.9 812.2 -295.9 802.2 -294.2 798.15 -294.55 796.7 -294.6 M1062.05 -256.8 L1062.05 -227.5 1062.5 -226.15 1062.7 -223.1 Q1062.7 -215.05 963.45 -208.85 L895.1 -205.4 878.25 -204.75 794.6 -187.5 Q695.75 -166.7 638.4 -155.9 431.25 -117.0 177.95 -92.75 L81.25 -93.1 78.3 -93.75 -2.6 -94.4 -63.6 -100.65 Q-64.75 -100.15 -65.8 -99.9 L-76.45 -101.95 -98.95 -104.25 -99.4 -104.3 -133.9 -103.65 -145.2 -103.15 -156.35 -103.65 -261.8 -104.3 -275.4 -105.25 -288.95 -106.25 -344.35 -107.2 -352.0 -107.55 -365.0 -106.9 -416.35 -106.25 -437.4 -104.75 -469.55 -103.25 Q-515.9 -100.7 -541.6 -95.35 L-634.25 -94.7 -637.15 -94.05 -679.6 -94.05 Q-691.0 -94.15 -703.15 -98.05 -716.55 -102.4 -727.2 -110.3 -753.5 -129.95 -753.5 -163.15 -753.5 -179.6 -751.9 -188.7 -750.65 -195.85 -748.45 -199.85 -749.6 -200.6 -749.6 -202.3 -749.6 -202.9 -748.35 -204.4 -746.75 -206.35 -744.1 -208.15 -689.2 -206.4 -677.15 -203.45 L-606.15 -202.8 -603.2 -202.15 -569.1 -202.15 -566.15 -202.8 -460.55 -202.8 -443.75 -202.0 -438.45 -201.5 -423.25 -201.55 -423.3 -201.05 Q-423.3 -197.25 -396.7 -192.8 L-364.75 -188.3 Q-358.7 -187.45 -349.35 -183.95 -338.45 -182.95 -335.0 -181.6 L-330.4 -179.45 Q-326.8 -177.95 -320.85 -176.45 -324.8 -177.35 -331.65 -179.45 -337.15 -180.9 -342.15 -181.05 L-333.5 -177.25 -331.25 -176.2 -331.25 -176.25 Q-328.1 -171.95 -324.05 -169.7 -318.45 -166.6 -307.85 -165.0 L-307.7 -164.85 -309.8 -165.15 Q-304.05 -161.7 -293.85 -156.95 L-302.15 -158.5 Q-315.95 -161.0 -325.6 -162.0 -347.65 -164.35 -353.75 -159.9 L-368.3 -161.85 Q-388.35 -164.5 -398.05 -166.25 L-381.8 -162.35 -370.25 -159.25 Q-365.0 -157.75 -362.85 -155.75 L-360.05 -152.55 Q-356.15 -149.1 -333.15 -148.0 L-332.2 -147.95 -331.9 -147.85 Q-323.35 -144.2 -318.45 -142.35 -309.6 -139.0 -301.5 -138.65 L-295.9 -138.35 Q-308.7 -146.4 -322.8 -151.25 -322.65 -151.6 -320.6 -151.75 -307.15 -150.4 -290.05 -139.8 L-286.85 -137.7 -281.25 -137.2 -269.85 -132.6 Q-259.25 -128.25 -252.55 -124.85 -256.9 -130.0 -263.0 -134.7 L-260.15 -134.15 Q-265.45 -137.2 -265.45 -139.3 -265.45 -140.35 -264.95 -140.55 L-263.8 -140.8 -255.55 -135.25 Q-253.25 -133.6 -251.9 -132.2 -245.9 -130.75 -242.25 -130.25 L-234.95 -129.5 Q-244.6 -134.6 -249.95 -136.0 L-249.1 -136.95 Q-243.6 -138.75 -233.15 -133.0 L-227.1 -129.2 -223.3 -129.15 Q-234.35 -136.05 -242.85 -140.4 -234.8 -140.65 -217.1 -131.0 -210.65 -127.5 -206.5 -124.45 L-204.5 -123.7 -202.8 -123.85 -202.3 -124.05 -202.1 -124.35 Q-201.9 -124.55 -201.9 -125.5 -201.9 -126.05 -206.95 -130.95 -212.25 -136.15 -212.9 -137.45 L-199.3 -137.85 Q-208.2 -141.5 -215.8 -142.25 -206.4 -146.3 -189.95 -138.15 L-187.2 -138.25 Q-190.1 -139.45 -190.45 -139.95 -185.1 -143.8 -174.15 -138.75 L-167.8 -138.95 -177.15 -141.6 Q-174.65 -142.2 -167.6 -140.9 L-160.15 -139.25 -151.3 -139.55 -147.6 -139.7 Q-159.0 -144.35 -168.1 -145.5 L-165.85 -145.9 Q-151.5 -142.5 -139.25 -138.15 L-139.05 -138.05 -131.0 -137.2 Q-130.15 -137.2 -128.6 -137.8 L-126.2 -138.45 Q-123.35 -138.45 -115.25 -133.4 L-107.5 -128.35 Q-106.65 -128.35 -104.9 -129.05 -103.1 -129.8 -102.3 -129.8 -93.6 -129.8 -81.15 -126.9 L-65.55 -122.9 Q-72.0 -125.55 -79.5 -127.5 -86.65 -129.3 -90.75 -129.55 -99.4 -130.2 -106.95 -133.05 -111.5 -134.75 -120.6 -139.15 -126.4 -141.75 -147.25 -148.55 -170.15 -156.0 -181.9 -160.75 L-173.05 -159.1 -162.25 -157.6 -156.5 -158.15 -151.85 -159.4 Q-146.4 -160.75 -135.9 -161.1 -134.1 -157.15 -122.45 -155.7 -104.65 -154.35 -96.55 -152.55 L-80.25 -150.2 Q-66.4 -148.2 -63.05 -147.1 L-53.05 -142.6 Q-43.9 -138.45 -43.3 -138.45 L-24.15 -139.9 -12.1 -139.45 Q-24.15 -146.0 -34.6 -148.75 -34.45 -149.15 -32.4 -149.4 -27.0 -149.95 -17.65 -146.5 -9.7 -143.5 -1.2 -138.55 L6.7 -137.8 5.4 -137.95 -0.35 -141.35 Q1.55 -140.8 7.5 -137.75 L10.4 -137.6 26.2 -134.25 Q16.9 -140.1 6.15 -143.85 L8.45 -143.1 Q10.55 -142.4 11.45 -142.4 22.85 -142.4 36.7 -131.95 L36.45 -132.0 Q36.8 -129.9 37.8 -129.0 38.95 -127.95 42.6 -127.85 L51.35 -127.45 Q57.9 -126.75 64.65 -124.2 58.75 -127.25 47.75 -131.8 46.2 -132.45 44.8 -133.05 L45.4 -133.25 Q36.3 -138.25 25.5 -142.55 36.7 -143.1 53.1 -133.2 59.4 -132.3 68.4 -129.1 80.9 -124.7 84.35 -124.7 L89.4 -124.75 115.5 -126.35 120.35 -126.95 134.4 -128.6 120.35 -129.3 115.2 -129.6 Q102.9 -130.25 89.4 -130.2 L87.4 -130.2 Q85.0 -133.05 75.9 -137.4 L62.0 -143.65 Q81.65 -139.1 88.25 -139.1 L89.4 -139.35 90.3 -139.75 Q91.65 -140.45 93.05 -140.4 L89.4 -142.55 Q83.5 -145.75 74.75 -148.9 61.0 -153.85 51.85 -153.85 L39.8 -152.8 34.45 -151.75 25.1 -153.55 Q16.15 -155.35 10.25 -155.35 6.5 -155.35 5.25 -153.45 4.6 -152.45 4.4 -151.1 3.75 -150.9 -0.85 -152.3 L-6.5 -153.7 -23.3 -153.7 -27.4 -152.8 Q-31.7 -151.9 -35.5 -151.9 -39.8 -151.9 -74.85 -158.65 -112.0 -165.8 -124.55 -166.8 L-128.1 -167.25 Q-134.5 -169.65 -147.15 -169.65 -150.4 -169.65 -155.05 -168.5 -159.65 -167.35 -162.5 -167.35 -165.65 -167.35 -198.25 -173.55 L-215.0 -175.55 Q-223.65 -179.25 -234.9 -183.4 -246.95 -187.85 -259.7 -192.05 L-243.2 -189.25 -170.1 -177.05 Q-87.9 -164.45 -11.4 -164.45 17.2 -169.0 33.45 -173.05 L128.85 -173.7 Q159.6 -181.25 191.3 -192.5 L190.9 -192.35 Q190.55 -191.9 190.55 -191.5 190.55 -188.55 194.6 -188.55 198.8 -188.55 214.4 -192.5 L210.1 -188.4 Q210.1 -187.5 210.45 -186.6 L197.85 -187.9 Q195.1 -187.8 193.55 -186.0 192.4 -184.65 192.4 -183.1 192.4 -182.15 193.1 -180.95 L194.45 -178.75 Q192.05 -177.7 187.9 -176.4 L183.3 -175.15 178.75 -175.6 173.8 -176.15 160.3 -176.7 155.35 -176.95 Q149.6 -176.95 147.8 -174.5 146.95 -173.3 147.2 -171.9 147.2 -170.1 148.35 -168.7 149.65 -167.0 152.1 -166.6 L154.15 -166.3 Q149.5 -164.2 148.1 -163.05 147.35 -162.4 146.95 -161.6 136.0 -163.35 126.35 -163.35 L120.35 -163.35 114.25 -163.25 89.4 -160.65 87.9 -160.55 Q76.7 -159.6 73.3 -158.05 71.35 -157.15 71.35 -155.15 71.35 -152.0 73.3 -151.6 L80.95 -151.9 89.4 -152.25 Q100.75 -152.35 113.65 -150.25 L112.8 -150.4 111.15 -152.15 111.4 -153.4 Q115.25 -152.2 119.7 -149.2 L120.35 -149.05 123.6 -148.4 Q131.25 -146.75 138.3 -146.15 L133.0 -149.4 Q133.15 -149.7 134.65 -149.8 138.6 -148.75 143.8 -145.8 L145.05 -145.8 164.65 -144.2 Q150.3 -150.65 138.75 -153.2 143.65 -154.9 157.75 -150.35 169.05 -146.7 182.3 -140.35 L197.85 -135.9 Q216.55 -130.2 218.8 -130.2 219.65 -130.2 220.1 -130.85 220.6 -131.5 221.4 -131.5 224.9 -131.5 234.1 -128.7 L244.0 -125.5 Q238.0 -127.95 214.2 -134.2 196.4 -138.9 193.2 -142.8 192.35 -143.85 187.6 -145.75 182.8 -147.75 181.45 -149.15 L179.2 -152.2 176.4 -156.0 176.25 -156.15 190.75 -156.15 198.7 -155.1 210.1 -154.35 218.6 -154.8 220.5 -156.15 Q222.8 -157.75 225.05 -158.9 L224.9 -158.9 Q219.7 -160.35 216.45 -161.5 L211.1 -163.55 Q211.25 -163.85 212.65 -164.0 L221.75 -163.95 Q228.65 -163.7 228.65 -161.35 L228.6 -160.55 Q235.2 -163.25 241.25 -162.5 L241.25 -161.65 Q240.6 -161.45 231.4 -156.15 L239.85 -155.9 Q252.75 -159.3 276.35 -159.3 261.95 -157.7 250.1 -154.3 L266.35 -153.55 271.7 -153.4 274.45 -153.15 281.5 -151.9 284.1 -150.95 284.85 -150.55 284.9 -150.55 Q286.45 -149.8 287.45 -148.75 L282.65 -149.05 274.6 -148.05 Q267.85 -147.35 260.25 -148.4 L260.1 -148.1 Q265.25 -147.15 275.7 -143.0 285.05 -139.1 285.2 -139.1 286.95 -139.1 288.0 -139.95 289.05 -140.85 295.25 -140.85 298.95 -140.85 302.2 -139.4 305.5 -137.95 310.05 -137.95 L311.5 -138.1 313.15 -138.45 314.2 -139.1 Q311.95 -142.5 304.5 -145.05 L306.25 -145.65 309.8 -147.25 Q304.45 -149.2 303.15 -150.6 306.65 -154.85 317.4 -151.1 321.7 -153.3 326.0 -154.75 L318.35 -157.55 304.7 -154.85 302.3 -155.15 303.75 -155.45 310.8 -156.95 318.4 -158.15 317.2 -158.0 309.05 -161.0 309.25 -161.4 Q319.05 -163.65 332.7 -160.1 L340.2 -160.45 337.85 -159.9 338.5 -159.9 334.65 -159.6 340.35 -157.8 340.4 -157.75 344.25 -157.95 344.45 -157.95 345.05 -157.95 345.3 -157.95 345.55 -157.95 345.8 -157.95 350.85 -157.8 351.65 -157.75 351.3 -157.95 Q346.75 -159.85 339.75 -161.6 L328.4 -164.2 Q355.3 -161.0 365.45 -156.35 L374.3 -154.85 Q390.2 -151.75 398.2 -151.75 L402.05 -151.3 408.05 -150.45 409.15 -150.6 409.8 -150.75 416.75 -149.3 Q410.4 -153.85 399.5 -156.35 L377.1 -160.6 Q372.9 -161.45 351.5 -168.15 332.15 -174.2 329.05 -174.2 327.45 -174.2 326.05 -173.3 L324.85 -172.4 Q318.65 -172.4 308.4 -176.85 L311.6 -177.55 Q314.95 -178.55 320.95 -178.55 L331.95 -177.65 336.45 -176.8 Q337.6 -176.8 339.65 -177.65 341.65 -178.55 345.25 -178.55 L359.35 -177.15 371.25 -175.8 373.05 -175.95 375.45 -176.45 Q371.95 -179.05 351.5 -182.9 L346.8 -183.75 Q343.6 -185.75 336.7 -188.05 324.7 -192.1 315.65 -192.85 313.8 -195.4 303.35 -198.5 L295.05 -200.7 Q299.45 -202.3 304.4 -203.5 L304.15 -203.45 306.15 -203.65 312.4 -202.8 Q315.7 -201.95 317.75 -201.95 318.45 -201.95 319.8 -202.8 L321.2 -203.65 Q322.0 -203.65 323.65 -202.9 325.3 -202.15 326.15 -202.15 330.95 -202.15 330.95 -202.8 324.7 -203.3 321.05 -206.45 L342.4 -207.55 359.9 -203.85 366.7 -202.55 366.3 -202.75 Q360.5 -205.6 356.75 -206.35 356.75 -207.4 356.9 -207.35 L357.1 -207.1 Q363.3 -210.7 377.15 -202.4 L379.75 -200.7 390.3 -200.2 393.35 -199.8 Q384.4 -206.3 371.9 -210.8 L372.2 -211.25 Q390.25 -209.3 402.25 -199.0 L403.9 -197.5 413.8 -195.15 Q416.0 -194.6 419.25 -193.25 L416.7 -195.65 Q409.15 -202.6 409.15 -203.2 409.15 -204.2 409.6 -204.3 L410.65 -204.5 Q415.25 -202.15 423.05 -195.75 428.05 -191.6 430.3 -188.8 L433.65 -188.4 434.35 -188.4 Q430.0 -193.35 425.45 -195.8 L425.8 -196.75 Q431.95 -196.9 438.05 -191.15 L439.8 -189.35 440.9 -189.75 Q444.65 -191.15 445.05 -191.15 L448.35 -190.9 Q441.0 -195.35 430.8 -199.6 430.9 -200.2 432.35 -200.4 441.5 -199.3 455.2 -189.05 459.4 -185.9 462.3 -183.2 465.75 -182.0 469.8 -182.0 470.65 -182.0 473.95 -183.8 L477.2 -185.65 483.95 -183.5 Q491.15 -181.25 493.95 -180.85 L499.8 -179.45 506.3 -178.25 508.5 -178.35 Q509.6 -178.5 510.6 -179.05 L510.7 -179.65 Q511.5 -179.25 512.45 -178.8 516.5 -176.95 519.15 -176.6 L520.45 -176.45 Q519.0 -177.2 515.8 -179.7 L516.4 -179.7 Q520.55 -179.7 526.85 -177.9 532.6 -176.3 533.95 -175.15 533.7 -176.5 527.9 -179.65 L517.05 -185.0 Q511.4 -187.6 495.4 -187.6 L494.35 -187.6 485.75 -192.2 Q473.45 -198.3 460.9 -199.8 456.25 -201.85 453.55 -203.5 450.8 -205.2 445.0 -207.25 440.9 -208.7 437.55 -209.6 436.5 -209.9 433.65 -213.6 431.05 -217.0 427.55 -217.25 417.7 -217.9 410.2 -224.1 L404.6 -228.4 415.75 -228.45 432.45 -228.45 436.05 -228.8 436.55 -228.85 442.1 -226.95 Q452.85 -223.3 464.8 -220.4 470.4 -219.05 477.85 -212.5 485.35 -205.9 486.7 -205.6 491.3 -204.5 500.95 -200.35 L507.75 -197.35 507.05 -197.7 504.85 -199.45 Q497.95 -205.0 493.2 -209.35 L493.45 -210.25 Q496.85 -209.9 506.85 -203.5 L514.1 -198.25 Q523.25 -198.0 536.25 -193.75 539.1 -192.0 542.15 -188.55 544.4 -185.95 550.25 -185.95 559.6 -183.35 563.25 -180.25 L563.65 -180.7 Q553.7 -190.35 548.65 -194.1 540.45 -200.05 528.15 -204.95 526.1 -205.75 524.35 -206.65 L508.35 -208.7 508.5 -209.2 Q515.0 -209.6 519.95 -209.5 L520.2 -209.3 519.55 -209.9 Q517.65 -211.6 514.5 -215.3 L513.8 -216.0 514.05 -215.7 Q502.75 -217.15 498.5 -218.4 L498.5 -219.1 Q499.25 -221.15 504.9 -221.45 L516.9 -220.6 522.05 -219.55 533.1 -219.65 529.3 -221.35 Q516.05 -226.8 505.55 -227.4 514.05 -229.05 531.3 -224.15 538.7 -222.05 543.1 -219.8 L542.45 -219.7 547.1 -220.25 545.75 -220.1 Q540.75 -222.65 540.75 -223.6 540.75 -225.7 545.4 -225.1 549.65 -224.55 555.65 -222.1 L557.25 -221.4 558.15 -221.45 558.65 -221.45 551.4 -224.8 Q555.95 -226.7 568.4 -221.45 L570.05 -220.7 578.35 -219.25 587.75 -217.15 Q578.0 -221.55 569.45 -223.6 580.1 -225.5 594.35 -218.55 L599.15 -215.95 600.25 -216.25 Q615.65 -216.25 630.65 -209.4 634.65 -207.55 639.65 -204.7 643.35 -202.55 643.85 -202.55 L646.9 -203.35 Q649.15 -204.15 649.95 -204.15 658.7 -204.15 671.7 -202.45 L686.1 -200.25 Q678.05 -203.55 652.2 -209.4 L619.75 -216.45 Q617.9 -216.85 613.45 -218.3 L606.65 -220.15 Q601.05 -221.3 599.7 -223.6 L598.7 -225.85 596.8 -228.45 596.55 -228.65 601.9 -230.25 618.6 -235.3 619.25 -235.35 Q606.1 -238.6 604.85 -238.6 L603.85 -238.5 603.95 -238.75 Q611.4 -243.85 628.8 -240.85 638.15 -239.25 644.05 -237.1 L639.05 -242.0 639.25 -242.65 639.7 -243.15 Q647.25 -240.5 655.65 -231.7 L657.75 -230.65 666.45 -228.85 669.6 -228.2 Q661.25 -233.8 657.9 -236.75 L658.55 -237.7 Q665.7 -237.4 675.5 -230.15 L679.85 -226.6 687.9 -225.85 Q684.95 -227.8 684.95 -228.35 684.95 -229.4 685.2 -229.35 L685.45 -229.1 Q687.7 -229.0 694.95 -225.5 L700.65 -225.45 704.35 -226.05 Q697.25 -228.3 694.3 -229.35 L694.7 -230.3 Q697.2 -230.7 710.0 -227.5 L710.2 -227.55 Q716.9 -228.95 725.35 -229.4 L726.4 -229.75 Q718.35 -232.4 716.95 -232.6 L694.5 -233.8 Q710.55 -236.6 718.0 -235.55 721.15 -235.1 725.9 -233.7 L733.4 -231.4 738.15 -232.15 Q749.05 -233.55 759.25 -232.5 770.6 -231.35 777.7 -227.4 L769.9 -229.15 Q764.3 -230.3 759.65 -230.3 L744.25 -229.5 747.75 -229.4 Q751.95 -228.1 756.05 -227.7 765.75 -226.65 772.3 -223.0 778.1 -219.75 783.2 -219.75 787.95 -219.75 792.2 -218.1 L799.75 -215.15 Q800.9 -214.9 800.9 -215.95 795.9 -219.45 790.05 -223.15 L783.5 -227.1 783.85 -227.7 802.5 -227.8 791.9 -232.5 792.05 -233.0 Q803.5 -230.7 811.8 -227.85 L823.95 -226.4 Q815.2 -230.5 804.8 -233.15 L805.2 -233.85 805.45 -234.45 Q818.4 -235.35 834.35 -225.5 L838.7 -225.45 849.05 -225.0 Q838.55 -229.5 827.65 -232.7 827.95 -233.15 829.6 -233.5 836.65 -233.5 847.85 -229.6 855.0 -227.1 862.2 -223.65 L865.3 -223.2 853.55 -229.35 853.95 -230.3 Q865.85 -230.35 884.4 -220.0 L885.75 -220.1 886.65 -220.35 885.35 -221.2 885.8 -221.05 Q889.4 -219.8 891.35 -219.7 L891.9 -219.95 892.65 -220.55 Q888.95 -222.25 884.5 -225.0 L877.2 -229.45 Q867.9 -234.5 853.4 -236.9 L847.4 -236.9 846.9 -237.0 Q841.4 -238.05 833.25 -238.6 L832.85 -238.7 820.45 -240.95 Q815.5 -242.0 811.35 -243.55 799.6 -243.85 793.25 -245.2 787.45 -246.45 783.3 -249.55 L774.9 -255.35 Q767.95 -258.85 755.15 -261.35 L755.25 -262.35 775.85 -259.05 795.35 -255.65 Q805.7 -253.5 813.55 -250.35 L817.4 -250.2 Q824.65 -249.75 829.45 -248.5 835.15 -247.05 840.9 -247.05 L842.4 -247.3 Q842.65 -247.4 843.15 -247.85 L843.25 -247.75 843.4 -248.85 825.75 -259.15 822.95 -260.05 794.65 -268.35 Q804.8 -267.85 812.85 -266.55 L807.0 -269.8 Q794.9 -273.65 786.15 -273.2 796.55 -278.15 817.45 -270.35 L834.0 -268.35 836.85 -267.95 Q822.45 -274.4 808.0 -278.35 814.65 -278.55 827.3 -274.25 836.2 -271.25 845.4 -266.9 L863.3 -265.05 Q857.75 -268.3 852.1 -270.7 854.85 -271.9 861.9 -268.9 L863.8 -268.0 Q867.55 -267.9 873.6 -264.55 L873.9 -264.55 881.6 -264.3 873.95 -269.65 874.35 -270.6 Q880.65 -270.5 890.65 -261.35 L890.7 -261.35 Q898.85 -257.55 902.5 -257.55 905.25 -257.55 906.5 -259.55 L906.15 -259.1 895.0 -266.25 Q904.55 -265.5 916.15 -257.0 919.6 -255.5 924.15 -254.2 932.85 -251.75 936.75 -251.75 937.35 -251.75 941.0 -250.35 944.7 -249.0 945.45 -249.0 943.2 -250.3 941.85 -252.35 L940.75 -254.4 Q949.1 -252.7 952.75 -250.55 964.25 -243.85 982.15 -240.85 L997.4 -238.35 1003.55 -237.1 1003.05 -237.3 1005.65 -236.25 1006.0 -236.55 1013.95 -234.3 1015.65 -234.45 Q1005.75 -239.35 996.3 -242.15 992.85 -243.65 989.1 -244.75 L982.2 -246.35 982.25 -246.15 Q982.25 -245.2 982.0 -245.15 L981.15 -245.1 966.35 -250.75 Q954.35 -255.3 952.6 -257.4 955.75 -257.7 964.5 -255.0 L962.65 -257.3 959.65 -261.05 Q951.0 -263.55 946.25 -265.6 L946.75 -266.55 956.25 -265.35 953.5 -268.75 954.15 -269.2 939.35 -271.25 939.7 -272.15 962.25 -271.4 978.8 -269.8 Q973.0 -272.25 966.6 -274.45 L966.85 -274.95 Q978.8 -273.95 991.3 -268.15 L1003.7 -266.55 Q1005.1 -266.55 1006.7 -267.5 L1008.2 -268.5 Q1009.5 -268.5 1017.25 -266.1 L1020.75 -265.0 1010.95 -271.9 1011.25 -272.8 Q1018.9 -270.75 1026.75 -265.05 L1030.45 -262.1 1034.7 -260.7 1041.8 -258.45 Q1035.9 -264.95 1027.95 -270.6 1039.0 -266.55 1046.75 -258.75 L1048.05 -259.55 1049.85 -261.05 Q1051.9 -261.05 1060.75 -257.35 L1062.05 -256.8 M-387.0 -202.0 L-385.6 -202.3 -378.35 -202.3 -364.5 -197.3 -375.3 -199.65 -387.0 -202.0 M228.1 -206.55 Q238.1 -210.55 249.1 -215.2 L300.3 -236.55 Q315.1 -242.45 328.35 -247.0 342.15 -254.0 354.4 -258.95 L370.55 -255.75 387.7 -252.0 390.3 -251.1 388.05 -251.1 Q371.45 -249.8 348.05 -245.7 316.15 -240.15 316.15 -235.3 316.15 -234.1 316.65 -233.1 315.65 -231.7 315.65 -230.15 301.5 -223.8 280.6 -219.0 269.15 -216.4 251.85 -213.2 L228.1 -206.55 M699.75 -307.1 L720.55 -307.1 733.55 -299.7 Q725.45 -300.9 717.5 -302.9 L703.35 -306.4 699.75 -307.1 M751.7 -307.2 L796.95 -309.1 796.75 -307.05 Q796.75 -303.65 795.25 -301.85 L800.35 -306.05 800.25 -305.75 796.1 -299.7 797.5 -299.55 794.8 -294.7 Q785.25 -294.95 783.15 -292.1 L782.3 -292.3 Q775.8 -293.5 770.35 -292.1 768.1 -291.5 766.75 -290.65 L762.2 -296.25 752.55 -307.25 751.7 -307.2 M860.25 -248.6 Q865.7 -247.25 868.3 -246.85 L876.7 -246.25 879.55 -246.65 Q877.55 -250.7 869.5 -250.15 L860.25 -248.6 M889.25 -247.95 Q899.3 -247.7 908.15 -243.75 916.75 -239.9 923.45 -239.9 L926.75 -239.65 Q927.5 -239.4 930.2 -237.55 L930.65 -237.1 Q931.15 -236.85 931.15 -237.9 927.0 -240.85 923.8 -242.8 L931.45 -241.6 Q934.4 -241.0 939.2 -239.4 940.7 -239.0 948.1 -235.0 951.8 -232.95 955.35 -231.05 956.0 -231.05 957.0 -231.95 L958.05 -232.85 961.1 -232.2 964.7 -231.2 Q947.15 -238.75 943.2 -240.0 932.55 -243.4 921.6 -244.05 918.0 -246.05 915.95 -246.4 L906.65 -248.25 Q901.75 -248.95 889.4 -248.6 L889.25 -247.95 M845.35 -246.1 Q847.8 -244.85 851.9 -243.75 856.75 -242.5 860.55 -242.5 861.6 -242.5 863.9 -243.15 L866.95 -244.15 Q865.1 -247.05 856.55 -246.95 L847.0 -246.55 Q845.5 -246.4 845.35 -246.1 M891.8 -234.3 L893.15 -234.15 Q894.25 -234.15 894.95 -234.55 895.55 -234.85 895.65 -235.3 895.55 -236.55 894.3 -237.2 L891.35 -237.4 891.0 -235.95 891.35 -234.45 891.8 -234.3 M947.35 -231.3 Q947.35 -232.9 942.25 -234.9 937.0 -236.95 935.85 -234.15 938.05 -231.25 946.25 -229.9 L947.1 -230.15 Q947.35 -230.25 947.35 -231.3 M672.3 -245.4 Q674.2 -244.0 675.2 -242.2 L674.3 -241.9 Q673.7 -241.55 672.95 -241.35 671.2 -242.3 667.05 -243.65 664.9 -244.35 664.9 -245.7 664.9 -246.65 665.05 -246.7 L665.25 -246.9 Q669.05 -247.9 672.3 -245.4 M656.2 -258.1 L652.1 -259.6 Q650.35 -260.3 650.35 -261.6 650.35 -264.55 654.85 -263.7 659.4 -262.85 659.4 -260.3 659.4 -259.35 659.2 -259.15 L659.05 -258.75 656.2 -258.1 M703.25 -255.6 L707.55 -253.95 Q710.2 -253.15 713.9 -253.15 715.65 -253.15 717.5 -254.05 719.35 -254.95 720.4 -254.95 725.05 -254.95 736.35 -246.25 L748.0 -236.4 742.25 -238.85 736.3 -240.9 Q735.5 -240.9 733.95 -240.15 732.45 -239.4 731.6 -239.4 729.2 -239.4 723.85 -243.85 718.5 -248.35 713.15 -248.35 L711.25 -247.7 Q710.15 -247.05 709.35 -247.05 708.4 -247.05 699.5 -251.7 690.3 -256.5 686.1 -257.05 697.5 -257.8 703.25 -255.6 M668.05 -216.25 Q669.95 -216.25 670.65 -216.9 671.15 -217.4 671.15 -218.4 671.15 -221.25 662.3 -222.45 L652.8 -223.15 Q653.65 -222.55 659.9 -219.55 666.75 -216.25 668.05 -216.25 M706.35 -200.65 Q707.1 -199.75 709.65 -199.05 711.2 -199.45 711.6 -200.35 L711.7 -201.55 Q711.7 -203.6 709.15 -204.1 705.65 -204.45 703.65 -205.15 L706.35 -200.65 M719.5 -221.15 Q719.5 -223.45 715.2 -224.4 710.75 -225.35 707.55 -223.15 708.2 -222.2 711.2 -220.35 714.45 -218.4 715.85 -218.4 717.85 -218.4 718.85 -219.7 719.5 -220.55 719.5 -221.15 M735.8 -218.05 Q737.4 -216.1 739.0 -216.1 742.25 -216.1 742.25 -218.55 742.25 -220.15 739.8 -221.25 736.95 -222.6 733.8 -220.35 L735.8 -218.05 M791.95 -231.45 L790.85 -231.2 788.5 -231.6 785.5 -232.5 Q787.1 -233.75 789.2 -233.2 790.3 -232.9 791.2 -232.25 L791.9 -231.7 791.95 -231.45 M752.0 -196.35 Q749.8 -197.75 746.8 -197.75 L744.0 -197.55 742.25 -197.1 Q744.85 -196.05 754.2 -193.25 L754.5 -193.5 Q753.75 -195.2 752.0 -196.35 M735.1 -195.45 Q733.25 -196.9 727.5 -196.65 L720.95 -195.8 724.4 -195.65 Q725.9 -195.7 732.9 -194.0 734.4 -194.15 735.1 -195.45 M671.8 -189.65 Q668.45 -190.35 665.65 -188.05 667.5 -186.7 673.85 -185.15 674.8 -185.15 675.7 -185.8 L677.1 -186.75 Q674.5 -189.1 671.8 -189.65 M648.9 -194.55 Q649.4 -194.3 649.4 -195.3 649.4 -195.55 623.2 -204.3 614.65 -207.2 607.05 -205.65 599.5 -203.25 595.85 -202.85 597.95 -202.35 599.75 -200.9 L602.55 -198.5 Q605.95 -195.9 612.4 -198.05 615.8 -199.2 620.7 -197.25 626.1 -195.1 628.4 -195.45 L635.2 -196.15 640.95 -196.6 644.05 -196.05 648.4 -195.0 648.9 -194.55 M653.35 -190.35 L653.1 -189.35 Q654.7 -186.3 657.45 -186.3 658.45 -186.3 659.0 -186.75 L659.7 -187.6 Q659.3 -189.4 657.5 -190.25 L653.35 -190.35 M319.95 181.9 L-268.3 182.0 Q-270.2 181.4 -271.95 180.15 L-321.25 181.35 -356.05 181.8 -708.0 182.0 -725.25 181.4 -727.35 181.8 -739.05 182.65 Q-742.15 182.65 -745.2 177.25 -747.65 172.9 -747.65 171.4 L-747.6 161.95 Q-749.3 155.05 -749.3 141.05 -748.95 123.65 -748.95 115.05 L-749.55 111.3 Q-751.55 108.85 -751.55 108.2 -751.55 101.95 -739.05 101.75 -729.05 101.6 -705.65 105.6 L-657.5 114.2 Q-625.3 119.75 -600.75 122.2 L-526.75 123.05 Q-517.6 120.6 -497.9 122.2 L-274.8 121.7 -250.05 116.45 Q-224.95 110.75 -207.85 107.4 -144.85 95.05 -101.25 95.05 -86.45 95.05 -60.6 97.55 -37.6 99.75 -30.7 101.2 L47.3 101.2 50.2 100.55 89.85 99.9 Q128.8 92.4 159.6 94.95 L159.9 95.0 177.95 94.05 218.25 96.85 261.15 100.1 307.25 103.35 368.2 106.25 Q393.7 106.25 418.9 103.1 L444.7 99.45 478.2 98.95 Q504.2 94.4 580.8 83.65 647.8 73.5 662.3 66.3 676.9 59.0 688.1 54.9 702.0 49.8 719.85 46.05 755.35 38.55 842.85 30.2 868.75 25.9 915.85 13.35 L996.55 -8.85 Q1041.4 -21.05 1061.95 -24.45 L1065.0 -24.95 Q1080.2 -33.65 1086.15 -25.05 1088.85 -23.9 1088.85 -21.6 L1088.2 -20.75 Q1089.85 -15.9 1090.0 -8.1 1090.05 -3.15 1089.7 3.65 L1089.75 3.35 1091.9 3.8 Q1103.1 6.25 1111.75 9.7 1120.8 13.25 1120.8 15.5 1120.8 16.6 1119.9 18.15 1118.8 20.05 1117.2 20.4 1117.85 21.35 1122.55 23.1 1127.1 24.75 1128.55 27.4 L1126.35 28.75 1124.3 29.6 Q1123.4 29.6 1106.05 25.2 1094.5 22.25 1089.0 21.3 L1088.55 29.25 Q1069.8 24.05 1048.1 24.05 L1043.1 23.4 1043.55 23.5 Q1049.1 26.0 1051.65 28.35 L1051.3 29.6 Q1050.85 30.45 1049.5 30.45 1047.45 30.45 1040.0 28.7 L1070.55 39.65 1034.9 42.7 Q1016.0 47.65 1000.65 52.45 L1001.55 52.15 1000.75 51.5 996.5 48.45 Q990.6 45.2 979.85 46.3 977.0 48.15 975.3 49.85 975.9 50.8 975.95 52.1 L975.9 51.4 982.5 53.15 Q997.45 57.35 1017.85 64.65 L1001.65 64.05 991.35 65.65 Q986.8 65.65 977.4 60.35 L970.4 63.05 969.25 63.55 Q980.5 68.7 994.6 68.9 994.6 69.55 989.1 70.4 L981.15 71.15 Q971.55 71.15 963.1 66.8 960.45 68.4 957.35 70.5 L949.85 75.7 938.15 76.7 931.0 77.35 940.5 81.4 938.25 81.4 Q932.95 80.1 921.4 78.15 L908.9 79.0 Q919.5 83.75 927.5 87.9 L921.8 87.9 Q896.2 82.5 880.3 78.05 L878.45 77.85 Q897.85 87.0 907.05 90.5 L903.8 91.15 Q883.85 86.0 862.5 77.0 L852.4 76.0 843.6 74.15 Q831.15 72.05 803.85 75.05 826.35 75.3 840.95 78.8 849.8 80.95 861.6 86.35 L870.15 90.0 Q879.05 92.0 886.5 94.4 902.75 99.6 905.75 104.65 900.3 102.65 877.1 97.7 864.45 95.0 855.85 93.6 L839.15 95.15 853.4 97.6 Q871.4 100.95 875.35 103.0 L874.7 104.0 854.7 99.6 Q840.65 96.75 828.05 96.4 L808.3 98.6 Q814.3 100.7 825.95 105.3 L820.55 104.55 Q815.55 103.35 814.1 103.35 811.2 103.35 797.7 101.1 L790.0 100.0 790.8 99.95 781.0 100.75 752.9 100.75 Q770.2 103.35 770.2 109.5 770.2 111.55 769.2 111.05 L768.25 110.15 Q767.0 108.15 759.35 106.4 753.05 104.95 750.05 104.95 719.4 104.95 702.45 108.15 693.3 110.3 687.35 113.4 678.05 118.3 652.0 120.55 615.15 123.75 606.55 125.25 L616.2 127.05 Q625.2 128.85 636.8 128.85 L660.4 128.1 634.0 136.7 Q590.0 150.45 565.15 152.4 531.9 155.05 494.35 160.0 L425.8 169.6 Q374.8 176.6 319.95 181.9 M1020.75 -265.0 L1020.95 -264.95 1020.8 -265.0 1020.75 -265.0 M79.8 -211.7 L80.0 -211.55 80.2 -211.3 Q78.55 -211.15 78.25 -211.3 L79.8 -211.7 M215.05 -171.7 Q208.35 -170.5 203.3 -170.5 L199.85 -170.75 197.2 -171.25 199.15 -174.25 Q199.85 -175.25 199.85 -175.9 L199.75 -177.3 199.8 -177.6 212.0 -175.4 221.1 -173.2 221.3 -173.05 215.05 -171.7 M523.05 -239.2 Q521.4 -239.2 513.9 -241.55 506.4 -243.95 498.75 -243.95 497.85 -243.95 496.2 -242.95 494.6 -242.0 491.75 -242.0 488.15 -242.0 483.5 -243.85 479.6 -245.4 478.7 -246.4 483.75 -255.1 497.85 -251.1 L509.05 -247.2 Q515.3 -244.95 518.25 -244.95 529.2 -244.95 536.0 -242.6 547.1 -238.85 549.55 -238.35 L541.4 -239.85 532.05 -240.9 526.9 -240.05 523.05 -239.2 M551.55 -247.95 L551.7 -248.5 Q556.35 -250.3 560.55 -249.15 564.3 -248.15 564.3 -246.15 564.3 -245.15 563.85 -244.9 L562.7 -244.6 556.75 -246.2 Q552.35 -247.5 551.55 -247.95 M585.3 -262.55 L583.0 -264.3 Q584.45 -265.1 584.45 -265.75 L590.45 -265.35 Q592.0 -264.9 592.0 -263.45 592.0 -262.5 591.75 -262.3 L591.55 -262.0 588.55 -261.7 Q586.5 -261.7 585.3 -262.55 M620.9 -262.65 L616.55 -263.45 626.4 -266.2 Q633.55 -267.35 636.2 -263.65 L634.2 -262.4 Q632.7 -261.7 628.85 -261.7 624.35 -261.7 620.9 -262.65 M644.05 -237.1 L644.55 -236.9 644.1 -237.1 644.05 -237.1 M403.9 -199.85 Q407.35 -199.55 409.35 -198.7 L409.25 -198.55 408.7 -198.25 404.15 -199.7 403.9 -199.85 M426.25 -247.95 Q432.6 -250.35 438.1 -249.75 443.25 -249.2 443.25 -246.8 L443.1 -245.8 442.95 -245.75 433.2 -246.6 426.25 -247.95 M476.25 -222.1 Q478.5 -220.35 481.1 -216.2 483.75 -212.05 484.3 -209.35 482.8 -209.85 478.7 -214.45 474.6 -219.15 474.6 -220.55 474.6 -221.55 475.1 -221.8 L476.25 -222.1 M482.65 -185.65 L480.7 -186.15 Q479.3 -186.6 478.7 -187.1 L482.65 -185.65 M529.05 122.65 Q537.65 126.95 538.9 127.4 L544.0 127.85 546.95 127.4 548.4 126.25 548.7 124.8 Q547.55 122.05 541.95 121.2 535.9 120.35 529.05 122.65 M579.45 127.2 Q579.45 125.1 576.3 124.8 573.1 124.45 569.05 126.25 L572.5 129.5 Q573.75 130.8 575.55 130.8 L578.05 130.5 Q578.3 130.3 578.15 130.15 578.6 129.65 579.15 129.5 579.45 129.25 579.45 127.2 M356.8 168.25 Q357.8 168.25 357.8 166.2 357.8 161.05 347.25 153.8 337.5 147.1 322.05 140.8 306.5 134.45 291.8 131.2 275.8 127.7 266.15 129.15 279.15 135.2 306.7 147.25 341.75 162.55 355.85 167.85 356.35 168.25 356.8 168.25 M203.95 123.65 Q192.5 123.05 186.2 124.15 187.3 124.3 219.0 134.95 248.75 144.95 257.9 144.95 L262.1 144.8 263.9 144.6 Q265.5 143.65 266.15 142.8 258.35 131.95 227.95 126.4 215.9 124.2 203.95 123.65 M167.95 118.55 Q165.8 117.4 159.25 120.9 160.1 122.5 160.9 123.1 162.1 123.95 164.3 123.95 L167.65 123.5 169.5 122.35 Q168.9 119.1 167.95 118.55 M275.25 172.05 Q276.55 169.9 276.55 167.7 276.55 156.0 159.5 143.8 L63.1 134.95 -14.3 128.2 -34.7 128.05 Q-50.55 125.8 -69.2 122.1 -82.8 120.2 -94.9 123.95 -91.5 126.4 -80.5 130.45 L-79.85 130.4 Q-97.75 132.8 -111.6 135.6 -124.75 138.3 -145.45 144.0 -167.75 150.15 -183.75 153.65 -211.05 159.6 -249.6 165.25 -247.25 166.45 -247.3 167.75 -247.35 169.15 -246.95 169.35 L-219.2 170.45 Q-176.45 170.45 -126.6 157.2 L-94.25 148.1 Q-79.2 143.95 -72.8 143.95 L-66.85 144.3 -61.9 144.95 -35.25 144.95 Q-3.0 154.35 6.35 154.35 L11.3 154.0 16.75 153.4 Q16.75 152.75 18.7 152.4 17.25 150.5 13.35 148.0 47.3 151.85 79.9 156.5 L146.0 166.4 Q179.1 171.3 202.45 173.35 232.55 175.95 267.45 175.95 272.9 175.95 275.25 172.05 M997.2 13.95 Q991.65 11.3 988.95 12.5 L988.05 13.5 Q987.05 14.15 987.0 14.45 995.1 18.15 1000.45 20.15 L1003.45 19.5 Q1004.6 19.25 1005.0 18.85 1001.55 16.0 997.2 13.95 M930.45 64.05 Q933.25 65.65 934.65 65.65 936.8 65.65 938.25 64.9 L940.2 63.35 940.5 61.4 Q938.05 58.95 935.65 57.7 930.8 55.2 927.85 58.5 L927.5 58.25 Q927.2 58.4 927.2 60.45 927.2 62.15 930.45 64.05 M871.9 47.0 Q869.7 47.5 869.5 47.9 L881.7 50.7 894.05 53.1 Q891.35 50.95 884.5 48.7 877.15 46.25 874.05 46.95 L874.05 46.6 871.9 47.0 M815.05 52.0 L813.45 52.15 808.1 52.4 802.55 53.1 808.5 53.8 814.75 54.75 815.7 55.65 Q816.7 56.15 816.7 54.1 816.7 52.1 815.05 52.0 M864.2 51.15 L865.75 50.5 Q863.35 45.85 855.75 45.15 848.3 44.45 841.2 47.9 845.65 48.3 849.6 49.5 854.2 50.9 861.2 51.8 L864.2 51.15 M766.8 73.0 Q768.95 75.05 774.75 75.05 776.9 75.05 777.65 74.45 L778.35 73.1 Q776.3 69.65 771.45 68.35 766.45 67.05 763.85 69.85 765.3 70.6 766.8 73.0 M738.0 67.6 Q733.7 68.4 726.75 70.5 L716.1 73.75 747.8 75.05 749.85 74.5 Q750.55 74.05 750.55 71.95 750.55 65.3 738.0 67.6 M679.7 100.6 Q672.6 98.75 667.2 102.05 L675.05 103.85 680.65 104.95 687.8 104.65 Q685.0 102.0 679.7 100.6 M-320.15 -175.65 L-310.7 -175.2 Q-303.3 -174.5 -303.3 -171.6 -303.3 -170.6 -303.55 -170.15 L-303.8 -169.65 -304.5 -169.45 -306.4 -169.3 Q-310.55 -169.3 -314.6 -172.15 -319.2 -175.45 -320.15 -175.65 M-279.85 -163.55 L-280.25 -162.95 -281.55 -162.7 Q-283.65 -162.7 -286.75 -164.7 -288.95 -166.15 -289.8 -167.1 -288.0 -167.65 -284.2 -166.55 -280.75 -165.5 -279.65 -164.5 L-279.85 -163.55 M-233.7 -145.5 Q-235.65 -146.7 -240.05 -148.1 L-244.65 -149.3 Q-246.3 -149.3 -247.0 -148.3 -247.75 -147.35 -249.6 -147.35 -255.25 -147.35 -262.75 -151.4 L-270.0 -155.5 -272.05 -155.25 -273.15 -155.15 Q-268.65 -159.55 -263.55 -159.55 -259.4 -159.6 -253.75 -156.65 L-243.35 -150.6 Q-236.8 -146.8 -231.9 -145.5 L-233.7 -145.5 M-41.1 -141.05 Q-60.75 -149.75 -80.0 -153.45 L-90.9 -155.15 Q-94.75 -155.65 -94.75 -155.9 -94.75 -162.65 -69.2 -153.15 -53.15 -147.15 -41.1 -141.05 M-107.1 129.8 Q-110.8 120.8 -125.5 123.1 -130.7 123.9 -136.15 126.0 -140.75 127.75 -142.5 129.15 -136.7 132.05 -131.15 132.6 L-120.6 132.75 -114.2 132.2 -108.05 131.45 Q-108.05 130.8 -107.1 129.8" fill="#3f8172" fill-rule="evenodd" stroke="none"/>
    <path d="M796.7 -294.6 L798.15 -294.55 802.2 -294.2 812.2 -295.9 835.35 -295.9 857.8 -291.95 881.5 -288.0 884.75 -287.6 884.75 -287.95 Q884.75 -295.65 900.2 -292.15 908.0 -290.35 916.55 -287.05 917.35 -287.05 918.5 -287.75 919.7 -288.5 920.5 -288.5 925.65 -288.5 934.2 -284.35 942.75 -280.2 945.7 -280.2 946.1 -280.2 946.45 -281.15 947.65 -282.1 952.1 -282.1 L968.55 -280.95 985.05 -278.9 988.5 -278.9 988.2 -280.4 Q987.95 -281.55 988.4 -282.25 989.65 -284.6 997.6 -284.6 1001.6 -284.6 1004.3 -283.7 1007.0 -282.8 1008.0 -282.8 1008.6 -282.8 1009.45 -284.35 1011.15 -285.9 1016.0 -285.9 L1026.2 -284.85 1034.6 -283.8 Q1034.7 -283.8 1038.5 -286.15 1042.8 -288.5 1045.25 -288.5 1047.55 -288.5 1051.8 -285.7 1056.05 -282.95 1057.5 -282.95 L1057.5 -283.3 Q1057.5 -284.8 1058.25 -286.35 1059.4 -288.9 1062.05 -289.05 L1062.4 -289.05 Q1066.95 -289.05 1068.0 -284.95 1068.25 -280.4 1068.45 -279.5 1069.25 -276.1 1073.6 -274.15 1077.55 -272.35 1077.55 -270.15 1077.55 -266.1 1072.2 -264.75 1072.55 -262.5 1074.45 -260.95 1076.25 -259.5 1076.25 -258.5 1076.25 -257.3 1075.6 -256.05 1074.25 -253.65 1070.75 -253.65 1069.65 -253.65 1062.05 -256.8 L1060.75 -257.35 Q1051.9 -261.05 1049.85 -261.05 L1048.05 -259.55 1046.75 -258.75 Q1039.0 -266.55 1027.95 -270.6 1035.9 -264.95 1041.8 -258.45 L1034.7 -260.7 1030.45 -262.1 1026.75 -265.05 Q1018.9 -270.75 1011.25 -272.8 L1010.95 -271.9 1020.75 -265.0 1017.25 -266.1 Q1009.5 -268.5 1008.2 -268.5 L1006.7 -267.5 Q1005.1 -266.55 1003.7 -266.55 L991.3 -268.15 Q978.8 -273.95 966.85 -274.95 L966.6 -274.45 Q973.0 -272.25 978.8 -269.8 L962.25 -271.4 939.7 -272.15 939.35 -271.25 954.15 -269.2 953.5 -268.75 956.25 -265.35 946.75 -266.55 946.25 -265.6 Q951.0 -263.55 959.65 -261.05 L962.65 -257.3 964.5 -255.0 Q955.75 -257.7 952.6 -257.4 954.35 -255.3 966.35 -250.75 L981.15 -245.1 982.0 -245.15 Q982.25 -245.2 982.25 -246.15 L982.2 -246.35 989.1 -244.75 Q992.85 -243.65 996.3 -242.15 1005.75 -239.35 1015.65 -234.45 L1013.95 -234.3 1006.0 -236.55 1005.65 -236.25 1003.05 -237.3 1003.55 -237.1 997.4 -238.35 982.15 -240.85 Q964.25 -243.85 952.75 -250.55 949.1 -252.7 940.75 -254.4 L941.85 -252.35 Q943.2 -250.3 945.45 -249.0 944.7 -249.0 941.0 -250.35 937.35 -251.75 936.75 -251.75 932.85 -251.75 924.15 -254.2 919.6 -255.5 916.15 -257.0 904.55 -265.5 895.0 -266.25 L906.15 -259.1 906.5 -259.55 Q905.25 -257.55 902.5 -257.55 898.85 -257.55 890.7 -261.35 L890.65 -261.35 Q880.65 -270.5 874.35 -270.6 L873.95 -269.65 881.6 -264.3 873.9 -264.55 873.6 -264.55 Q867.55 -267.9 863.8 -268.0 L861.9 -268.9 Q854.85 -271.9 852.1 -270.7 857.75 -268.3 863.3 -265.05 L845.4 -266.9 Q836.2 -271.25 827.3 -274.25 814.65 -278.55 808.0 -278.35 822.45 -274.4 836.85 -267.95 L834.0 -268.35 817.45 -270.35 Q796.55 -278.15 786.15 -273.2 794.9 -273.65 807.0 -269.8 L812.85 -266.55 Q804.8 -267.85 794.65 -268.35 L822.95 -260.05 825.75 -259.15 843.4 -248.85 843.25 -247.75 843.15 -247.85 Q842.65 -247.4 842.4 -247.3 L840.9 -247.05 Q835.15 -247.05 829.45 -248.5 824.65 -249.75 817.4 -250.2 L813.55 -250.35 Q805.7 -253.5 795.35 -255.65 L775.85 -259.05 755.25 -262.35 755.15 -261.35 Q767.95 -258.85 774.9 -255.35 L783.3 -249.55 Q787.45 -246.45 793.25 -245.2 799.6 -243.85 811.35 -243.55 815.5 -242.0 820.45 -240.95 L832.85 -238.7 833.25 -238.6 Q841.4 -238.05 846.9 -237.0 L847.4 -236.9 853.4 -236.9 Q867.9 -234.5 877.2 -229.45 L884.5 -225.0 Q888.95 -222.25 892.65 -220.55 L891.9 -219.95 891.35 -219.7 Q889.4 -219.8 885.8 -221.05 L885.35 -221.2 886.65 -220.35 885.75 -220.1 884.4 -220.0 Q865.85 -230.35 853.95 -230.3 L853.55 -229.35 865.3 -223.2 862.2 -223.65 Q855.0 -227.1 847.85 -229.6 836.65 -233.5 829.6 -233.5 827.95 -233.15 827.65 -232.7 838.55 -229.5 849.05 -225.0 L838.7 -225.45 834.35 -225.5 Q818.4 -235.35 805.45 -234.45 L805.2 -233.85 804.8 -233.15 Q815.2 -230.5 823.95 -226.4 L811.8 -227.85 Q803.5 -230.7 792.05 -233.0 L791.9 -232.5 802.5 -227.8 783.85 -227.7 783.5 -227.1 790.05 -223.15 Q795.9 -219.45 800.9 -215.95 800.9 -214.9 799.75 -215.15 L792.2 -218.1 Q787.95 -219.75 783.2 -219.75 778.1 -219.75 772.3 -223.0 765.75 -226.65 756.05 -227.7 751.95 -228.1 747.75 -229.4 L744.25 -229.5 759.65 -230.3 Q764.3 -230.3 769.9 -229.15 L777.7 -227.4 Q770.6 -231.35 759.25 -232.5 749.05 -233.55 738.15 -232.15 L733.4 -231.4 725.9 -233.7 Q721.15 -235.1 718.0 -235.55 710.55 -236.6 694.5 -233.8 L716.95 -232.6 Q718.35 -232.4 726.4 -229.75 L725.35 -229.4 Q716.9 -228.95 710.2 -227.55 L710.0 -227.5 Q697.2 -230.7 694.7 -230.3 L694.3 -229.35 Q697.25 -228.3 704.35 -226.05 L700.65 -225.45 694.95 -225.5 Q687.7 -229.0 685.45 -229.1 L685.2 -229.35 Q684.95 -229.4 684.95 -228.35 684.95 -227.8 687.9 -225.85 L679.85 -226.6 675.5 -230.15 Q665.7 -237.4 658.55 -237.7 L657.9 -236.75 Q661.25 -233.8 669.6 -228.2 L666.45 -228.85 657.75 -230.65 655.65 -231.7 Q647.25 -240.5 639.7 -243.15 L639.25 -242.65 639.05 -242.0 644.05 -237.1 Q638.15 -239.25 628.8 -240.85 611.4 -243.85 603.95 -238.75 L603.85 -238.5 604.85 -238.6 Q606.1 -238.6 619.25 -235.35 L618.6 -235.3 601.9 -230.25 596.55 -228.65 596.8 -228.45 598.7 -225.85 599.7 -223.6 Q601.05 -221.3 606.65 -220.15 L613.45 -218.3 Q617.9 -216.85 619.75 -216.45 L652.2 -209.4 Q678.05 -203.55 686.1 -200.25 L671.7 -202.45 Q658.7 -204.15 649.95 -204.15 649.15 -204.15 646.9 -203.35 L643.85 -202.55 Q643.35 -202.55 639.65 -204.7 634.65 -207.55 630.65 -209.4 615.65 -216.25 600.25 -216.25 L599.15 -215.95 594.35 -218.55 Q580.1 -225.5 569.45 -223.6 578.0 -221.55 587.75 -217.15 L578.35 -219.25 570.05 -220.7 568.4 -221.45 Q555.95 -226.7 551.4 -224.8 L558.65 -221.45 558.15 -221.45 557.25 -221.4 555.65 -222.1 Q549.65 -224.55 545.4 -225.1 540.75 -225.7 540.75 -223.6 540.75 -222.65 545.75 -220.1 L547.1 -220.25 542.45 -219.7 543.1 -219.8 Q538.7 -222.05 531.3 -224.15 514.05 -229.05 505.55 -227.4 516.05 -226.8 529.3 -221.35 L533.1 -219.65 522.05 -219.55 516.9 -220.6 504.9 -221.45 Q499.25 -221.15 498.5 -219.1 L498.5 -218.4 Q502.75 -217.15 514.05 -215.7 L513.8 -216.0 514.5 -215.3 Q517.65 -211.6 519.55 -209.9 L520.2 -209.3 519.95 -209.5 Q515.0 -209.6 508.5 -209.2 L508.35 -208.7 524.35 -206.65 Q526.1 -205.75 528.15 -204.95 540.45 -200.05 548.65 -194.1 553.7 -190.35 563.65 -180.7 L563.25 -180.25 Q559.6 -183.35 550.25 -185.95 544.4 -185.95 542.15 -188.55 539.1 -192.0 536.25 -193.75 523.25 -198.0 514.1 -198.25 L506.85 -203.5 Q496.85 -209.9 493.45 -210.25 L493.2 -209.35 Q497.95 -205.0 504.85 -199.45 L507.05 -197.7 507.75 -197.35 500.95 -200.35 Q491.3 -204.5 486.7 -205.6 485.35 -205.9 477.85 -212.5 470.4 -219.05 464.8 -220.4 452.85 -223.3 442.1 -226.95 L436.55 -228.85 436.05 -228.8 432.45 -228.45 415.75 -228.45 404.6 -228.4 410.2 -224.1 Q417.7 -217.9 427.55 -217.25 431.05 -217.0 433.65 -213.6 436.5 -209.9 437.55 -209.6 440.9 -208.7 445.0 -207.25 450.8 -205.2 453.55 -203.5 456.25 -201.85 460.9 -199.8 473.45 -198.3 485.75 -192.2 L494.35 -187.6 495.4 -187.6 Q511.4 -187.6 517.05 -185.0 L527.9 -179.65 Q533.7 -176.5 533.95 -175.15 532.6 -176.3 526.85 -177.9 520.55 -179.7 516.4 -179.7 L515.8 -179.7 Q519.0 -177.2 520.45 -176.45 L519.15 -176.6 Q516.5 -176.95 512.45 -178.8 511.5 -179.25 510.7 -179.65 L510.6 -179.05 Q509.6 -178.5 508.5 -178.35 L506.3 -178.25 499.8 -179.45 493.95 -180.85 Q491.15 -181.25 483.95 -183.5 L477.2 -185.65 473.95 -183.8 Q470.65 -182.0 469.8 -182.0 465.75 -182.0 462.3 -183.2 459.4 -185.9 455.2 -189.05 441.5 -199.3 432.35 -200.4 430.9 -200.2 430.8 -199.6 441.0 -195.35 448.35 -190.9 L445.05 -191.15 Q444.65 -191.15 440.9 -189.75 L439.8 -189.35 438.05 -191.15 Q431.95 -196.9 425.8 -196.75 L425.45 -195.8 Q430.0 -193.35 434.35 -188.4 L433.65 -188.4 430.3 -188.8 Q428.05 -191.6 423.05 -195.75 415.25 -202.15 410.65 -204.5 L409.6 -204.3 Q409.15 -204.2 409.15 -203.2 409.15 -202.6 416.7 -195.65 L419.25 -193.25 Q416.0 -194.6 413.8 -195.15 L403.9 -197.5 402.25 -199.0 Q390.25 -209.3 372.2 -211.25 L371.9 -210.8 Q384.4 -206.3 393.35 -199.8 L390.3 -200.2 379.75 -200.7 377.15 -202.4 Q363.3 -210.7 357.1 -207.1 L356.9 -207.35 Q356.75 -207.4 356.75 -206.35 360.5 -205.6 366.3 -202.75 L366.7 -202.55 359.9 -203.85 342.4 -207.55 321.05 -206.45 Q324.7 -203.3 330.95 -202.8 330.95 -202.15 326.15 -202.15 325.3 -202.15 323.65 -202.9 322.0 -203.65 321.2 -203.65 L319.8 -202.8 Q318.45 -201.95 317.75 -201.95 315.7 -201.95 312.4 -202.8 L306.15 -203.65 304.15 -203.45 304.4 -203.5 Q299.45 -202.3 295.05 -200.7 L303.35 -198.5 Q313.8 -195.4 315.65 -192.85 324.7 -192.1 336.7 -188.05 343.6 -185.75 346.8 -183.75 L351.5 -182.9 Q371.95 -179.05 375.45 -176.45 L373.05 -175.95 371.25 -175.8 359.35 -177.15 345.25 -178.55 Q341.65 -178.55 339.65 -177.65 337.6 -176.8 336.45 -176.8 L331.95 -177.65 320.95 -178.55 Q314.95 -178.55 311.6 -177.55 L308.4 -176.85 Q318.65 -172.4 324.85 -172.4 L326.05 -173.3 Q327.45 -174.2 329.05 -174.2 332.15 -174.2 351.5 -168.15 372.9 -161.45 377.1 -160.6 L399.5 -156.35 Q410.4 -153.85 416.75 -149.3 L409.8 -150.75 409.15 -150.6 408.05 -150.45 402.05 -151.3 398.2 -151.75 Q390.2 -151.75 374.3 -154.85 L365.45 -156.35 Q355.3 -161.0 328.4 -164.2 L339.75 -161.6 Q346.75 -159.85 351.3 -157.95 L351.65 -157.75 350.85 -157.8 345.8 -157.95 345.55 -157.95 345.3 -157.95 345.05 -157.95 344.45 -157.95 344.25 -157.95 340.4 -157.75 340.35 -157.8 334.65 -159.6 338.5 -159.9 337.85 -159.9 340.2 -160.45 332.7 -160.1 Q319.05 -163.65 309.25 -161.4 L309.05 -161.0 317.2 -158.0 318.4 -158.15 310.8 -156.95 303.75 -155.45 302.3 -155.15 304.7 -154.85 318.35 -157.55 326.0 -154.75 Q321.7 -153.3 317.4 -151.1 306.65 -154.85 303.15 -150.6 304.45 -149.2 309.8 -147.25 L306.25 -145.65 304.5 -145.05 Q311.95 -142.5 314.2 -139.1 L313.15 -138.45 311.5 -138.1 310.05 -137.95 Q305.5 -137.95 302.2 -139.4 298.95 -140.85 295.25 -140.85 289.05 -140.85 288.0 -139.95 286.95 -139.1 285.2 -139.1 285.05 -139.1 275.7 -143.0 265.25 -147.15 260.1 -148.1 L260.25 -148.4 Q267.85 -147.35 274.6 -148.05 L282.65 -149.05 287.45 -148.75 Q286.45 -149.8 284.9 -150.55 L284.85 -150.55 284.1 -150.95 281.5 -151.9 274.45 -153.15 271.7 -153.4 266.35 -153.55 250.1 -154.3 Q261.95 -157.7 276.35 -159.3 252.75 -159.3 239.85 -155.9 L231.4 -156.15 Q240.6 -161.45 241.25 -161.65 L241.25 -162.5 Q235.2 -163.25 228.6 -160.55 L228.65 -161.35 Q228.65 -163.7 221.75 -163.95 L212.65 -164.0 Q211.25 -163.85 211.1 -163.55 L216.45 -161.5 Q219.7 -160.35 224.9 -158.9 L225.05 -158.9 Q222.8 -157.75 220.5 -156.15 L218.6 -154.8 210.1 -154.35 198.7 -155.1 190.75 -156.15 176.25 -156.15 176.4 -156.0 179.2 -152.2 181.45 -149.15 Q182.8 -147.75 187.6 -145.75 192.35 -143.85 193.2 -142.8 196.4 -138.9 214.2 -134.2 238.0 -127.95 244.0 -125.5 L234.1 -128.7 Q224.9 -131.5 221.4 -131.5 220.6 -131.5 220.1 -130.85 219.65 -130.2 218.8 -130.2 216.55 -130.2 197.85 -135.9 L182.3 -140.35 Q169.05 -146.7 157.75 -150.35 143.65 -154.9 138.75 -153.2 150.3 -150.65 164.65 -144.2 L145.05 -145.8 143.8 -145.8 Q138.6 -148.75 134.65 -149.8 133.15 -149.7 133.0 -149.4 L138.3 -146.15 Q131.25 -146.75 123.6 -148.4 L120.35 -149.05 119.7 -149.2 Q115.25 -152.2 111.4 -153.4 L111.15 -152.15 112.8 -150.4 113.65 -150.25 Q100.75 -152.35 89.4 -152.25 L80.95 -151.9 73.3 -151.6 Q71.35 -152.0 71.35 -155.15 71.35 -157.15 73.3 -158.05 76.7 -159.6 87.9 -160.55 L89.4 -160.65 114.25 -163.25 120.35 -163.35 126.35 -163.35 Q136.0 -163.35 146.95 -161.6 147.35 -162.4 148.1 -163.05 149.5 -164.2 154.15 -166.3 L152.1 -166.6 Q149.65 -167.0 148.35 -168.7 147.2 -170.1 147.2 -171.9 146.95 -173.3 147.8 -174.5 149.6 -176.95 155.35 -176.95 L160.3 -176.7 173.8 -176.15 178.75 -175.6 183.3 -175.15 187.9 -176.4 Q192.05 -177.7 194.45 -178.75 L193.1 -180.95 Q192.4 -182.15 192.4 -183.1 192.4 -184.65 193.55 -186.0 195.1 -187.8 197.85 -187.9 L210.45 -186.6 Q210.1 -187.5 210.1 -188.4 L214.4 -192.5 Q198.8 -188.55 194.6 -188.55 190.55 -188.55 190.55 -191.5 190.55 -191.9 190.9 -192.35 L191.3 -192.5 193.4 -193.25 Q208.75 -198.75 228.1 -206.55 L251.85 -213.2 Q269.15 -216.4 280.6 -219.0 301.5 -223.8 315.65 -230.15 315.65 -231.7 316.65 -233.1 316.15 -234.1 316.15 -235.3 316.15 -240.15 348.05 -245.7 371.45 -249.8 388.05 -251.1 L390.3 -251.1 387.7 -252.0 370.55 -255.75 354.4 -258.95 Q363.45 -262.6 371.65 -265.15 381.75 -268.25 390.65 -269.75 454.45 -280.3 504.25 -293.4 L530.35 -300.35 540.45 -303.1 541.9 -303.5 Q563.65 -309.15 584.0 -313.3 L618.75 -312.95 Q621.4 -311.8 645.25 -309.5 L669.95 -307.1 699.75 -307.1 703.35 -306.4 717.5 -302.9 Q725.45 -300.9 733.55 -299.7 L720.55 -307.1 750.55 -307.1 751.55 -307.2 751.7 -307.2 752.55 -307.25 762.2 -296.25 766.75 -290.65 Q768.1 -291.5 770.35 -292.1 775.8 -293.5 782.3 -292.3 L783.15 -292.1 Q785.25 -294.95 794.8 -294.7 L793.55 -292.4 794.0 -291.95 796.7 -294.6 M-423.25 -201.55 L-388.55 -201.65 -387.0 -202.0 -375.3 -199.65 -364.5 -197.3 -378.35 -202.3 -325.0 -202.3 -259.7 -192.05 Q-246.95 -187.85 -234.9 -183.4 -223.65 -179.25 -215.0 -175.55 L-198.25 -173.55 Q-165.65 -167.35 -162.5 -167.35 -159.65 -167.35 -155.05 -168.5 -150.4 -169.65 -147.15 -169.65 -134.5 -169.65 -128.1 -167.25 L-124.55 -166.8 Q-112.0 -165.8 -74.85 -158.65 -39.8 -151.9 -35.5 -151.9 -31.7 -151.9 -27.4 -152.8 L-23.3 -153.7 -6.5 -153.7 -0.85 -152.3 Q3.75 -150.9 4.4 -151.1 4.6 -152.45 5.25 -153.45 6.5 -155.35 10.25 -155.35 16.15 -155.35 25.1 -153.55 L34.45 -151.75 39.8 -152.8 51.85 -153.85 Q61.0 -153.85 74.75 -148.9 83.5 -145.75 89.4 -142.55 L93.05 -140.4 Q91.65 -140.45 90.3 -139.75 L89.4 -139.35 88.25 -139.1 Q81.65 -139.1 62.0 -143.65 L75.9 -137.4 Q85.0 -133.05 87.4 -130.2 L89.4 -130.2 Q102.9 -130.25 115.2 -129.6 L120.35 -129.3 134.4 -128.6 120.35 -126.95 115.5 -126.35 89.4 -124.75 84.35 -124.7 Q80.9 -124.7 68.4 -129.1 59.4 -132.3 53.1 -133.2 36.7 -143.1 25.5 -142.55 36.3 -138.25 45.4 -133.25 L44.8 -133.05 Q46.2 -132.45 47.75 -131.8 58.75 -127.25 64.65 -124.2 57.9 -126.75 51.35 -127.45 L42.6 -127.85 Q38.95 -127.95 37.8 -129.0 36.8 -129.9 36.45 -132.0 L36.7 -131.95 Q22.85 -142.4 11.45 -142.4 10.55 -142.4 8.45 -143.1 L6.15 -143.85 Q16.9 -140.1 26.2 -134.25 L10.4 -137.6 7.5 -137.75 Q1.55 -140.8 -0.35 -141.35 L5.4 -137.95 6.7 -137.8 -1.2 -138.55 Q-9.7 -143.5 -17.65 -146.5 -27.0 -149.95 -32.4 -149.4 -34.45 -149.15 -34.6 -148.75 -24.15 -146.0 -12.1 -139.45 L-24.15 -139.9 -43.3 -138.45 Q-43.9 -138.45 -53.05 -142.6 L-63.05 -147.1 Q-66.4 -148.2 -80.25 -150.2 L-96.55 -152.55 Q-104.65 -154.35 -122.45 -155.7 -134.1 -157.15 -135.9 -161.1 -146.4 -160.75 -151.85 -159.4 L-156.5 -158.15 -162.25 -157.6 -173.05 -159.1 -181.9 -160.75 Q-170.15 -156.0 -147.25 -148.55 -126.4 -141.75 -120.6 -139.15 -111.5 -134.75 -106.95 -133.05 -99.4 -130.2 -90.75 -129.55 -86.65 -129.3 -79.5 -127.5 -72.0 -125.55 -65.55 -122.9 L-81.15 -126.9 Q-93.6 -129.8 -102.3 -129.8 -103.1 -129.8 -104.9 -129.05 -106.65 -128.35 -107.5 -128.35 L-115.25 -133.4 Q-123.35 -138.45 -126.2 -138.45 L-128.6 -137.8 Q-130.15 -137.2 -131.0 -137.2 L-139.05 -138.05 -139.25 -138.15 Q-151.5 -142.5 -165.85 -145.9 L-168.1 -145.5 Q-159.0 -144.35 -147.6 -139.7 L-151.3 -139.55 -160.15 -139.25 -167.6 -140.9 Q-174.65 -142.2 -177.15 -141.6 L-167.8 -138.95 -174.15 -138.75 Q-185.1 -143.8 -190.45 -139.95 -190.1 -139.45 -187.2 -138.25 L-189.95 -138.15 Q-206.4 -146.3 -215.8 -142.25 -208.2 -141.5 -199.3 -137.85 L-212.9 -137.45 Q-212.25 -136.15 -206.95 -130.95 -201.9 -126.05 -201.9 -125.5 -201.9 -124.55 -202.1 -124.35 L-202.3 -124.05 -202.8 -123.85 -204.5 -123.7 -206.5 -124.45 Q-210.65 -127.5 -217.1 -131.0 -234.8 -140.65 -242.85 -140.4 -234.35 -136.05 -223.3 -129.15 L-227.1 -129.2 -233.15 -133.0 Q-243.6 -138.75 -249.1 -136.95 L-249.95 -136.0 Q-244.6 -134.6 -234.95 -129.5 L-242.25 -130.25 Q-245.9 -130.75 -251.9 -132.2 -253.25 -133.6 -255.55 -135.25 L-263.8 -140.8 -264.95 -140.55 Q-265.45 -140.35 -265.45 -139.3 -265.45 -137.2 -260.15 -134.15 L-263.0 -134.7 Q-256.9 -130.0 -252.55 -124.85 -259.25 -128.25 -269.85 -132.6 L-281.25 -137.2 -286.85 -137.7 -290.05 -139.8 Q-307.15 -150.4 -320.6 -151.75 -322.65 -151.6 -322.8 -151.25 -308.7 -146.4 -295.9 -138.35 L-301.5 -138.65 Q-309.6 -139.0 -318.45 -142.35 -323.35 -144.2 -331.9 -147.85 L-332.2 -147.95 -333.15 -148.0 Q-356.15 -149.1 -360.05 -152.55 L-362.85 -155.75 Q-365.0 -157.75 -370.25 -159.25 L-381.8 -162.35 -398.05 -166.25 Q-388.35 -164.5 -368.3 -161.85 L-353.75 -159.9 Q-347.65 -164.35 -325.6 -162.0 -315.95 -161.0 -302.15 -158.5 L-293.85 -156.95 Q-304.05 -161.7 -309.8 -165.15 L-307.7 -164.85 -307.85 -165.0 Q-318.45 -166.6 -324.05 -169.7 -328.1 -171.95 -331.25 -176.25 L-331.25 -176.2 -333.5 -177.25 -342.15 -181.05 Q-337.15 -180.9 -331.65 -179.45 -324.8 -177.35 -320.85 -176.45 -326.8 -177.95 -330.4 -179.45 L-335.0 -181.6 Q-338.45 -182.95 -349.35 -183.95 -358.7 -187.45 -364.75 -188.3 L-396.7 -192.8 Q-423.3 -197.25 -423.3 -201.05 L-423.25 -201.55 M947.35 -231.3 Q947.35 -230.25 947.1 -230.15 L946.25 -229.9 Q938.05 -231.25 935.85 -234.15 937.0 -236.95 942.25 -234.9 947.35 -232.9 947.35 -231.3 M891.8 -234.3 L891.35 -234.45 891.0 -235.95 891.35 -237.4 894.3 -237.2 Q895.55 -236.55 895.65 -235.3 895.55 -234.85 894.95 -234.55 894.25 -234.15 893.15 -234.15 L891.8 -234.3 M845.35 -246.1 Q845.5 -246.4 847.0 -246.55 L856.55 -246.95 Q865.1 -247.05 866.95 -244.15 L863.9 -243.15 Q861.6 -242.5 860.55 -242.5 856.75 -242.5 851.9 -243.75 847.8 -244.85 845.35 -246.1 M889.25 -247.95 L889.4 -248.6 Q901.75 -248.95 906.65 -248.25 L915.95 -246.4 Q918.0 -246.05 921.6 -244.05 932.55 -243.4 943.2 -240.0 947.15 -238.75 964.7 -231.2 L961.1 -232.2 958.05 -232.85 957.0 -231.95 Q956.0 -231.05 955.35 -231.05 951.8 -232.95 948.1 -235.0 940.7 -239.0 939.2 -239.4 934.4 -241.0 931.45 -241.6 L923.8 -242.8 Q927.0 -240.85 931.15 -237.9 931.15 -236.85 930.65 -237.1 L930.2 -237.55 Q927.5 -239.4 926.75 -239.65 L923.45 -239.9 Q916.75 -239.9 908.15 -243.75 899.3 -247.7 889.25 -247.95 M860.25 -248.6 L869.5 -250.15 Q877.55 -250.7 879.55 -246.65 L876.7 -246.25 868.3 -246.85 Q865.7 -247.25 860.25 -248.6 M703.25 -255.6 Q697.5 -257.8 686.1 -257.05 690.3 -256.5 699.5 -251.7 708.4 -247.05 709.35 -247.05 710.15 -247.05 711.25 -247.7 L713.15 -248.35 Q718.5 -248.35 723.85 -243.85 729.2 -239.4 731.6 -239.4 732.45 -239.4 733.95 -240.15 735.5 -240.9 736.3 -240.9 L742.25 -238.85 748.0 -236.4 736.35 -246.25 Q725.05 -254.95 720.4 -254.95 719.35 -254.95 717.5 -254.05 715.65 -253.15 713.9 -253.15 710.2 -253.15 707.55 -253.95 L703.25 -255.6 M656.2 -258.1 L659.05 -258.75 659.2 -259.15 Q659.4 -259.35 659.4 -260.3 659.4 -262.85 654.85 -263.7 650.35 -264.55 650.35 -261.6 650.35 -260.3 652.1 -259.6 L656.2 -258.1 M672.3 -245.4 Q669.05 -247.9 665.25 -246.9 L665.05 -246.7 Q664.9 -246.65 664.9 -245.7 664.9 -244.35 667.05 -243.65 671.2 -242.3 672.95 -241.35 673.7 -241.55 674.3 -241.9 L675.2 -242.2 Q674.2 -244.0 672.3 -245.4 M735.8 -218.05 L733.8 -220.35 Q736.95 -222.6 739.8 -221.25 742.25 -220.15 742.25 -218.55 742.25 -216.1 739.0 -216.1 737.4 -216.1 735.8 -218.05 M719.5 -221.15 Q719.5 -220.55 718.85 -219.7 717.85 -218.4 715.85 -218.4 714.45 -218.4 711.2 -220.35 708.2 -222.2 707.55 -223.15 710.75 -225.35 715.2 -224.4 719.5 -223.45 719.5 -221.15 M706.35 -200.65 L703.65 -205.15 Q705.65 -204.45 709.15 -204.1 711.7 -203.6 711.7 -201.55 L711.6 -200.35 Q711.2 -199.45 709.65 -199.05 707.1 -199.75 706.35 -200.65 M668.05 -216.25 Q666.75 -216.25 659.9 -219.55 653.65 -222.55 652.8 -223.15 L662.3 -222.45 Q671.15 -221.25 671.15 -218.4 671.15 -217.4 670.65 -216.9 669.95 -216.25 668.05 -216.25 M791.95 -231.45 L791.9 -231.7 791.2 -232.25 Q790.3 -232.9 789.2 -233.2 787.1 -233.75 785.5 -232.5 L788.5 -231.6 790.85 -231.2 791.95 -231.45 M653.35 -190.35 L657.5 -190.25 Q659.3 -189.4 659.7 -187.6 L659.0 -186.75 Q658.45 -186.3 657.45 -186.3 654.7 -186.3 653.1 -189.35 L653.35 -190.35 M648.9 -194.55 L648.4 -195.0 644.05 -196.05 640.95 -196.6 635.2 -196.15 628.4 -195.45 Q626.1 -195.1 620.7 -197.25 615.8 -199.2 612.4 -198.05 605.95 -195.9 602.55 -198.5 L599.75 -200.9 Q597.95 -202.35 595.85 -202.85 599.5 -203.25 607.05 -205.65 614.65 -207.2 623.2 -204.3 649.4 -195.55 649.4 -195.3 649.4 -194.3 648.9 -194.55 M671.8 -189.65 Q674.5 -189.1 677.1 -186.75 L675.7 -185.8 Q674.8 -185.15 673.85 -185.15 667.5 -186.7 665.65 -188.05 668.45 -190.35 671.8 -189.65 M735.1 -195.45 Q734.4 -194.15 732.9 -194.0 725.9 -195.7 724.4 -195.65 L720.95 -195.8 727.5 -196.65 Q733.25 -196.9 735.1 -195.45 M752.0 -196.35 Q753.75 -195.2 754.5 -193.5 L754.2 -193.25 Q744.85 -196.05 742.25 -197.1 L744.0 -197.55 746.8 -197.75 Q749.8 -197.75 752.0 -196.35 M1219.05 -344.1 Q1225.8 -344.1 1227.1 -315.5 1227.5 -306.55 1227.3 -295.65 L1227.05 -286.25 Q1228.0 -269.5 1227.1 -252.9 1225.25 -219.8 1215.9 -219.8 1212.9 -219.8 1211.55 -225.15 1210.85 -227.9 1210.75 -230.85 1210.75 -232.4 1211.65 -238.1 L1213.1 -247.5 1213.1 -259.05 Q1210.55 -259.05 1205.4 -257.6 L1200.5 -256.2 Q1198.5 -256.2 1192.75 -261.65 1187.75 -266.35 1182.4 -272.7 1178.25 -276.85 1176.45 -278.95 1173.3 -282.6 1171.5 -288.45 1162.85 -290.3 1158.25 -295.4 1155.1 -298.8 1153.0 -305.25 1150.65 -312.45 1149.6 -314.05 1147.05 -317.85 1141.7 -317.85 1136.8 -317.85 1135.8 -324.15 1135.3 -327.3 1135.8 -330.75 L1135.8 -337.7 Q1136.8 -343.05 1142.25 -343.05 1143.55 -343.05 1145.05 -341.95 1146.55 -340.85 1147.9 -340.85 1150.9 -340.85 1159.25 -342.35 L1171.1 -343.85 Q1173.1 -343.85 1175.0 -345.45 1176.15 -346.35 1178.35 -348.75 1183.0 -353.2 1189.65 -351.85 1197.45 -351.85 1204.1 -349.9 1213.3 -347.25 1213.4 -342.0 L1215.55 -343.2 Q1217.4 -344.1 1219.05 -344.1 M319.95 181.9 Q374.8 176.6 425.8 169.6 L494.35 160.0 Q531.9 155.05 565.15 152.4 590.0 150.45 634.0 136.7 L660.4 128.1 636.8 128.85 Q625.2 128.85 616.2 127.05 L606.55 125.25 Q615.15 123.75 652.0 120.55 678.05 118.3 687.35 113.4 693.3 110.3 702.45 108.15 719.4 104.95 750.05 104.95 753.05 104.95 759.35 106.4 767.0 108.15 768.25 110.15 L769.2 111.05 Q770.2 111.55 770.2 109.5 770.2 103.35 752.9 100.75 L781.0 100.75 790.8 99.95 790.0 100.0 797.7 101.1 Q811.2 103.35 814.1 103.35 815.55 103.35 820.55 104.55 L825.95 105.3 Q814.3 100.7 808.3 98.6 L828.05 96.4 Q840.65 96.75 854.7 99.6 L874.7 104.0 875.35 103.0 Q871.4 100.95 853.4 97.6 L839.15 95.15 855.85 93.6 Q864.45 95.0 877.1 97.7 900.3 102.65 905.75 104.65 902.75 99.6 886.5 94.4 879.05 92.0 870.15 90.0 L861.6 86.35 Q849.8 80.95 840.95 78.8 826.35 75.3 803.85 75.05 831.15 72.05 843.6 74.15 L852.4 76.0 862.5 77.0 Q883.85 86.0 903.8 91.15 L907.05 90.5 Q897.85 87.0 878.45 77.85 L880.3 78.05 Q896.2 82.5 921.8 87.9 L927.5 87.9 Q919.5 83.75 908.9 79.0 L921.4 78.15 Q932.95 80.1 938.25 81.4 L940.5 81.4 931.0 77.35 938.15 76.7 949.85 75.7 957.35 70.5 Q960.45 68.4 963.1 66.8 971.55 71.15 981.15 71.15 L989.1 70.4 Q994.6 69.55 994.6 68.9 980.5 68.7 969.25 63.55 L970.4 63.05 977.4 60.35 Q986.8 65.65 991.35 65.65 L1001.65 64.05 1017.85 64.65 Q997.45 57.35 982.5 53.15 L975.9 51.4 975.95 52.1 Q975.9 50.8 975.3 49.85 977.0 48.15 979.85 46.3 990.6 45.2 996.5 48.45 L1000.75 51.5 1001.55 52.15 1000.65 52.45 Q1016.0 47.65 1034.9 42.7 L1070.55 39.65 1040.0 28.7 Q1047.45 30.45 1049.5 30.45 1050.85 30.45 1051.3 29.6 L1051.65 28.35 Q1049.1 26.0 1043.55 23.5 L1043.1 23.4 1048.1 24.05 Q1069.8 24.05 1088.55 29.25 L1088.15 36.55 1088.1 37.45 1087.15 52.25 Q1108.1 39.05 1114.3 60.9 1116.5 68.75 1116.9 81.6 1117.15 88.65 1116.9 99.65 1116.9 107.35 1114.3 113.8 1111.6 120.4 1105.0 128.75 L1104.6 146.25 1104.15 159.15 Q1104.15 161.4 1106.45 163.4 1107.7 164.4 1111.6 166.65 1119.0 170.95 1119.0 175.3 1119.0 178.35 1118.5 179.45 1117.55 181.65 1114.0 183.0 1105.25 186.35 1075.25 186.35 1057.35 186.35 1053.4 182.65 L1052.7 181.8 476.1 181.9 319.95 181.9 M323.55 -128.25 L319.4 -128.75 325.25 -129.7 337.25 -129.1 337.55 -128.6 337.6 -127.6 Q337.6 -126.65 337.4 -126.45 L337.25 -126.15 330.7 -125.65 Q328.4 -125.65 326.2 -126.55 324.35 -127.3 323.55 -128.25 M273.75 -119.75 L273.1 -119.25 Q272.05 -118.9 268.7 -121.35 L264.8 -124.55 Q268.35 -124.45 270.85 -123.1 273.25 -121.8 273.75 -119.75 M252.7 -125.35 Q250.15 -125.35 246.9 -127.25 243.9 -128.95 242.7 -130.7 245.55 -131.65 250.75 -130.55 256.0 -129.45 256.0 -127.8 L255.75 -126.35 255.55 -125.85 254.2 -125.45 252.7 -125.35 M44.3 -125.3 L46.05 -125.35 53.3 -124.55 Q60.35 -123.35 60.35 -121.35 L60.1 -119.95 59.9 -119.4 56.95 -118.95 Q55.85 -119.05 50.25 -121.7 L43.55 -124.85 Q43.75 -125.2 44.3 -125.3 M10.9 -123.3 Q14.65 -122.2 15.5 -121.1 L15.35 -120.3 14.9 -119.7 Q14.65 -119.4 13.65 -119.4 11.45 -119.4 6.35 -123.05 L6.8 -124.15 10.9 -123.3 M142.2 -132.45 L142.0 -132.65 141.2 -132.45 139.2 -132.25 Q135.7 -132.25 125.3 -135.85 130.95 -138.0 136.95 -136.75 142.45 -135.55 142.45 -133.45 142.45 -132.45 142.2 -132.45 M151.95 -131.1 L157.55 -131.6 161.25 -130.9 164.95 -130.2 167.45 -130.65 178.5 -129.25 184.65 -128.15 Q189.8 -126.7 190.75 -123.9 190.3 -123.5 189.45 -123.05 L183.15 -125.15 Q178.6 -126.3 173.65 -126.3 L171.65 -125.1 Q169.95 -123.9 168.85 -123.9 165.85 -123.9 164.8 -126.2 163.65 -128.85 162.15 -129.25 158.35 -130.35 152.65 -130.35 L143.95 -130.05 151.95 -131.1 M82.95 -113.85 Q85.35 -112.75 86.1 -111.6 84.75 -111.6 82.25 -113.05 L79.6 -114.85 Q80.8 -114.85 82.95 -113.85 M215.05 -171.7 L221.3 -173.05 221.1 -173.2 212.0 -175.4 199.8 -177.6 199.75 -177.3 199.85 -175.9 Q199.85 -175.25 199.15 -174.25 L197.2 -171.25 199.85 -170.75 203.3 -170.5 Q208.35 -170.5 215.05 -171.7 M551.55 -247.95 Q552.35 -247.5 556.75 -246.2 L562.7 -244.6 563.85 -244.9 Q564.3 -245.15 564.3 -246.15 564.3 -248.15 560.55 -249.15 556.35 -250.3 551.7 -248.5 L551.55 -247.95 M523.05 -239.2 L526.9 -240.05 532.05 -240.9 541.4 -239.85 549.55 -238.35 Q547.1 -238.85 536.0 -242.6 529.2 -244.95 518.25 -244.95 515.3 -244.95 509.05 -247.2 L497.85 -251.1 Q483.75 -255.1 478.7 -246.4 479.6 -245.4 483.5 -243.85 488.15 -242.0 491.75 -242.0 494.6 -242.0 496.2 -242.95 497.85 -243.95 498.75 -243.95 506.4 -243.95 513.9 -241.55 521.4 -239.2 523.05 -239.2 M555.85 -211.3 L553.5 -210.85 551.05 -210.25 539.3 -209.95 524.9 -209.35 537.85 -211.9 Q551.1 -213.8 555.85 -211.3 M558.65 -203.9 L566.65 -202.35 566.2 -203.0 Q567.0 -203.9 567.0 -204.5 L573.1 -204.75 Q574.25 -204.4 574.25 -202.95 574.25 -201.95 574.05 -201.75 L573.9 -201.5 571.05 -201.05 570.8 -201.05 Q574.05 -199.7 574.05 -197.9 L573.7 -197.45 572.35 -196.1 Q569.4 -197.05 564.9 -199.55 560.0 -202.2 558.65 -203.9 M620.9 -262.65 Q624.35 -261.7 628.85 -261.7 632.7 -261.7 634.2 -262.4 L636.2 -263.65 Q633.55 -267.35 626.4 -266.2 L616.55 -263.45 620.9 -262.65 M585.3 -262.55 Q586.5 -261.7 588.55 -261.7 L591.55 -262.0 591.75 -262.3 Q592.0 -262.5 592.0 -263.45 592.0 -264.9 590.45 -265.35 L584.45 -265.75 Q584.45 -265.1 583.0 -264.3 L585.3 -262.55 M581.05 -211.3 L582.35 -212.1 Q586.95 -211.85 592.1 -209.75 L597.2 -207.4 595.6 -207.25 588.4 -209.3 581.05 -211.3 M403.9 -199.85 L404.15 -199.7 408.7 -198.25 409.25 -198.55 409.35 -198.7 Q407.35 -199.55 403.9 -199.85 M644.05 -237.1 L644.1 -237.1 644.55 -236.9 644.05 -237.1 M426.25 -247.95 L433.2 -246.6 442.95 -245.75 443.1 -245.8 443.25 -246.8 Q443.25 -249.2 438.1 -249.75 432.6 -250.35 426.25 -247.95 M460.5 -215.8 L464.4 -216.45 Q465.6 -216.45 467.85 -215.3 470.45 -214.05 470.45 -212.85 470.55 -212.1 470.15 -211.45 469.4 -210.15 466.9 -210.15 464.45 -210.15 462.7 -212.6 L460.5 -215.8 M440.5 -221.3 L440.35 -221.05 437.9 -220.8 Q434.95 -220.8 428.55 -223.7 L422.6 -226.75 Q425.3 -229.4 432.95 -227.65 440.65 -225.9 440.65 -222.3 L440.5 -221.3 M476.25 -222.1 L475.1 -221.8 Q474.6 -221.55 474.6 -220.55 474.6 -219.15 478.7 -214.45 482.8 -209.85 484.3 -209.35 483.75 -212.05 481.1 -216.2 478.5 -220.35 476.25 -222.1 M482.65 -185.65 L478.7 -187.1 Q479.3 -186.6 480.7 -186.15 L482.65 -185.65 M533.55 -165.95 Q532.3 -164.45 530.45 -164.45 528.8 -164.45 527.4 -165.85 L524.0 -168.9 Q517.05 -173.35 497.3 -173.35 L484.35 -173.2 Q501.05 -178.35 518.05 -175.65 532.85 -173.25 542.4 -166.15 L538.45 -166.95 536.05 -167.45 Q534.75 -167.45 533.55 -165.95 M589.75 -189.35 Q588.5 -188.7 587.45 -188.7 584.9 -188.7 583.1 -190.8 581.9 -192.15 581.2 -194.15 L586.65 -193.2 Q590.0 -192.25 591.45 -190.35 L589.75 -189.35 M610.7 -181.35 Q610.7 -180.25 610.25 -179.95 L609.1 -179.55 Q607.4 -179.55 605.7 -181.45 603.9 -183.55 602.55 -183.95 L608.25 -183.5 Q610.7 -183.35 610.7 -181.35 M404.1 -169.05 L402.5 -168.9 Q401.0 -168.9 398.8 -170.85 396.45 -172.95 395.45 -173.2 395.75 -173.85 398.35 -173.85 400.5 -173.85 402.55 -172.95 404.8 -172.0 404.8 -170.7 404.8 -169.75 404.6 -169.5 L404.45 -169.2 404.1 -169.05 M377.8 -173.1 Q378.7 -172.4 378.7 -171.5 L378.55 -170.3 378.4 -170.05 377.85 -169.85 376.1 -169.7 Q375.3 -169.7 374.4 -170.55 373.5 -171.4 373.5 -172.25 373.5 -173.2 373.65 -173.25 L373.85 -173.35 Q376.45 -174.15 377.8 -173.1 M397.7 -188.8 L397.85 -188.6 396.8 -188.4 390.55 -188.05 Q391.55 -187.9 392.45 -187.2 L394.15 -185.45 Q393.25 -185.0 393.25 -184.6 L391.3 -184.0 388.75 -185.1 Q387.7 -185.6 387.7 -186.95 387.7 -187.65 387.85 -187.85 L388.1 -187.85 388.35 -187.75 388.85 -187.9 388.9 -187.95 379.05 -187.25 Q371.8 -187.25 360.9 -190.0 L349.05 -193.2 Q349.2 -193.5 350.35 -193.5 L373.7 -192.55 Q394.5 -191.2 397.7 -188.8 M428.6 -166.2 L428.85 -166.45 Q432.4 -166.6 437.25 -163.85 L436.55 -163.2 436.1 -162.95 432.45 -162.55 Q431.75 -162.55 430.35 -163.15 428.4 -163.95 428.4 -165.1 428.4 -166.05 428.6 -166.2 M423.45 -162.9 Q422.4 -162.3 420.85 -162.3 419.25 -162.3 417.85 -164.65 420.9 -167.1 425.8 -164.5 L423.45 -162.9 M414.0 -182.8 L410.3 -184.8 Q413.65 -186.9 416.2 -186.1 418.35 -185.4 418.35 -183.6 L418.2 -182.45 418.05 -182.05 416.1 -181.8 Q415.85 -181.8 414.0 -182.8 M430.35 -185.15 L440.75 -183.4 Q450.8 -181.3 453.0 -178.55 447.0 -178.6 441.35 -180.8 438.05 -182.1 430.35 -185.15 M473.7 -161.0 Q464.4 -164.0 463.1 -164.2 472.65 -166.85 482.3 -165.85 492.4 -164.75 492.4 -160.35 492.4 -159.5 491.6 -158.9 490.6 -158.1 488.5 -158.1 483.55 -158.1 473.7 -161.0 M469.65 -177.45 Q471.15 -179.6 473.6 -178.6 475.9 -177.65 475.9 -175.95 L475.75 -174.75 Q475.25 -173.75 473.4 -173.75 471.5 -173.75 470.55 -175.2 L469.65 -177.45 M167.95 118.55 Q168.9 119.1 169.5 122.35 L167.65 123.5 164.3 123.95 Q162.1 123.95 160.9 123.1 160.1 122.5 159.25 120.9 165.8 117.4 167.95 118.55 M203.95 123.65 Q215.9 124.2 227.95 126.4 258.35 131.95 266.15 142.8 265.5 143.65 263.9 144.6 L262.1 144.8 257.9 144.95 Q248.75 144.95 219.0 134.95 187.3 124.3 186.2 124.15 192.5 123.05 203.95 123.65 M356.8 168.25 Q356.35 168.25 355.85 167.85 341.75 162.55 306.7 147.25 279.15 135.2 266.15 129.15 275.8 127.7 291.8 131.2 306.5 134.45 322.05 140.8 337.5 147.1 347.25 153.8 357.8 161.05 357.8 166.2 357.8 168.25 356.8 168.25 M579.45 127.2 Q579.45 129.25 579.15 129.5 578.6 129.65 578.15 130.15 578.3 130.3 578.05 130.5 L575.55 130.8 Q573.75 130.8 572.5 129.5 L569.05 126.25 Q573.1 124.45 576.3 124.8 579.45 125.1 579.45 127.2 M529.05 122.65 Q535.9 120.35 541.95 121.2 547.55 122.05 548.7 124.8 L548.4 126.25 546.95 127.4 544.0 127.85 538.9 127.4 Q537.65 126.95 529.05 122.65 M275.25 172.05 Q272.9 175.95 267.45 175.95 232.55 175.95 202.45 173.35 179.1 171.3 146.0 166.4 L79.9 156.5 Q47.3 151.85 13.35 148.0 17.25 150.5 18.7 152.4 16.75 152.75 16.75 153.4 L11.3 154.0 6.35 154.35 Q-3.0 154.35 -35.25 144.95 L-61.9 144.95 -66.85 144.3 -72.8 143.95 Q-79.2 143.95 -94.25 148.1 L-126.6 157.2 Q-176.45 170.45 -219.2 170.45 L-246.95 169.35 Q-247.35 169.15 -247.3 167.75 -247.25 166.45 -249.6 165.25 -211.05 159.6 -183.75 153.65 -167.75 150.15 -145.45 144.0 -124.75 138.3 -111.6 135.6 -97.75 132.8 -79.85 130.4 L-80.5 130.45 Q-91.5 126.4 -94.9 123.95 -82.8 120.2 -69.2 122.1 -50.55 125.8 -34.7 128.05 L-14.3 128.2 63.1 134.95 159.5 143.8 Q276.55 156.0 276.55 167.7 276.55 169.9 275.25 172.05 M997.2 13.95 Q1001.55 16.0 1005.0 18.85 1004.6 19.25 1003.45 19.5 L1000.45 20.15 Q995.1 18.15 987.0 14.45 987.05 14.15 988.05 13.5 L988.95 12.5 Q991.65 11.3 997.2 13.95 M1088.2 170.2 Q1087.85 167.9 1086.85 165.7 L1085.75 170.25 1088.2 170.2 M679.7 100.6 Q685.0 102.0 687.8 104.65 L680.65 104.95 675.05 103.85 667.2 102.05 Q672.6 98.75 679.7 100.6 M738.0 67.6 Q750.55 65.3 750.55 71.95 750.55 74.05 749.85 74.5 L747.8 75.05 716.1 73.75 726.75 70.5 Q733.7 68.4 738.0 67.6 M766.8 73.0 Q765.3 70.6 763.85 69.85 766.45 67.05 771.45 68.35 776.3 69.65 778.35 73.1 L777.65 74.45 Q776.9 75.05 774.75 75.05 768.95 75.05 766.8 73.0 M864.2 51.15 L861.2 51.8 Q854.2 50.9 849.6 49.5 845.65 48.3 841.2 47.9 848.3 44.45 855.75 45.15 863.35 45.85 865.75 50.5 L864.2 51.15 M815.05 52.0 Q816.7 52.1 816.7 54.1 816.7 56.15 815.7 55.65 L814.75 54.75 808.5 53.8 802.55 53.1 808.1 52.4 813.45 52.15 815.05 52.0 M871.9 47.0 L874.05 46.6 874.05 46.95 Q877.15 46.25 884.5 48.7 891.35 50.95 894.05 53.1 L881.7 50.7 869.5 47.9 Q869.7 47.5 871.9 47.0 M930.45 64.05 Q927.2 62.15 927.2 60.45 927.2 58.4 927.5 58.25 L927.85 58.5 Q930.8 55.2 935.65 57.7 938.05 58.95 940.5 61.4 L940.2 63.35 938.25 64.9 Q936.8 65.65 934.65 65.65 933.25 65.65 930.45 64.05 M-423.9 -157.1 Q-415.75 -155.05 -413.55 -152.75 -416.65 -152.1 -424.45 -155.2 -430.15 -157.45 -432.25 -158.75 L-423.9 -157.1 M-353.95 -147.25 Q-350.15 -146.45 -348.75 -144.05 L-350.05 -143.05 Q-350.95 -142.35 -351.5 -142.35 -355.45 -142.35 -357.75 -143.85 L-360.85 -146.15 Q-358.0 -148.1 -353.95 -147.25 M-324.5 -138.2 Q-328.25 -140.15 -329.05 -141.5 L-321.35 -140.15 Q-317.45 -139.15 -313.45 -136.65 L-313.95 -136.05 -315.4 -135.85 Q-319.8 -135.85 -324.5 -138.2 M-646.2 -143.8 Q-630.2 -140.0 -630.2 -136.65 -630.2 -135.65 -630.4 -135.45 L-630.85 -135.2 -630.95 -135.0 -632.3 -134.85 -645.9 -139.8 Q-660.55 -145.05 -666.5 -146.15 -661.75 -147.45 -646.2 -143.8 M-623.75 -150.7 L-623.0 -151.05 -622.45 -151.2 -615.3 -150.25 Q-612.45 -149.35 -612.45 -147.35 -612.45 -144.95 -614.6 -144.95 L-618.6 -147.5 -623.75 -150.7 M-609.85 -152.75 Q-615.1 -153.65 -620.1 -158.25 -615.25 -159.8 -609.45 -156.95 -599.3 -151.9 -596.2 -151.0 L-609.85 -152.75 M-549.8 -134.85 L-560.4 -135.9 Q-570.2 -137.45 -570.2 -140.6 L-570.0 -141.9 -569.8 -142.35 Q-564.25 -141.0 -559.4 -138.9 -551.75 -135.55 -549.8 -134.85 M-500.9 -196.45 Q-494.55 -194.8 -487.25 -192.15 L-479.2 -192.85 -453.45 -193.05 -453.45 -192.85 Q-435.15 -192.75 -423.35 -192.3 -401.25 -191.35 -392.6 -186.1 -385.55 -181.8 -380.9 -179.75 L-370.25 -175.5 -370.5 -174.9 -371.55 -174.65 -380.9 -176.05 -393.0 -178.15 -417.5 -180.2 -454.25 -183.2 -455.45 -183.2 -450.1 -181.15 -436.95 -175.5 -437.3 -175.15 -456.2 -178.8 -456.55 -178.85 Q-449.7 -175.9 -438.35 -171.55 L-434.7 -171.3 Q-431.7 -170.75 -414.85 -164.5 L-415.6 -164.05 -416.15 -164.0 -419.15 -164.45 Q-394.35 -155.45 -385.95 -151.1 -386.15 -150.5 -387.2 -149.95 -387.7 -149.65 -388.2 -149.5 -395.95 -153.05 -412.1 -158.3 -432.45 -164.9 -440.4 -164.9 L-449.85 -163.35 -459.25 -161.85 Q-460.3 -161.85 -474.35 -166.15 L-487.35 -169.95 -487.1 -169.65 -488.45 -168.5 Q-489.15 -168.0 -490.2 -168.0 L-494.15 -168.4 -496.85 -167.2 -498.25 -166.7 -497.4 -166.45 -497.6 -165.95 -499.4 -166.3 Q-502.8 -165.2 -506.1 -164.6 L-502.15 -162.25 Q-499.05 -160.3 -485.1 -158.05 L-469.4 -155.65 -456.5 -151.9 -443.65 -148.4 Q-433.2 -146.65 -421.35 -142.45 -416.95 -140.9 -399.6 -133.9 L-419.55 -139.25 Q-438.8 -144.2 -442.5 -144.2 L-445.05 -143.55 Q-446.8 -142.9 -447.6 -142.9 L-452.25 -143.95 -458.9 -145.35 -478.4 -145.35 -483.6 -144.45 -483.05 -144.25 -467.25 -136.5 Q-478.85 -140.2 -484.15 -140.2 -485.25 -140.2 -487.85 -139.0 -490.45 -137.8 -492.4 -137.8 L-497.6 -139.25 -503.65 -140.85 -516.05 -141.85 Q-521.5 -142.1 -523.15 -144.1 -524.5 -145.7 -532.9 -148.0 -541.7 -150.45 -543.8 -152.3 L-535.05 -149.6 Q-527.4 -147.45 -523.0 -147.45 L-520.2 -148.05 -515.3 -148.9 -506.3 -149.95 -502.9 -150.5 -503.25 -151.1 Q-504.25 -151.65 -512.2 -155.4 -519.55 -158.85 -523.0 -160.95 -526.5 -163.1 -530.15 -164.85 L-541.5 -166.6 Q-533.45 -161.5 -531.7 -157.75 L-535.65 -160.45 Q-539.2 -162.95 -540.8 -162.95 -542.95 -162.95 -565.75 -170.8 L-576.65 -174.45 Q-564.75 -168.0 -564.75 -165.75 -564.75 -164.7 -564.95 -164.8 L-565.1 -165.1 Q-572.7 -167.5 -584.7 -174.8 L-592.25 -179.35 -598.5 -181.0 -604.85 -182.15 Q-601.2 -179.55 -591.5 -171.9 L-579.2 -162.45 Q-582.55 -164.65 -585.9 -166.15 L-593.85 -169.25 Q-593.85 -168.55 -594.15 -168.35 L-595.25 -168.1 Q-599.4 -170.85 -617.6 -178.4 L-618.8 -178.1 -649.25 -184.4 -652.7 -185.0 Q-644.1 -181.9 -635.25 -177.7 -620.1 -170.6 -614.25 -165.15 L-614.6 -164.9 Q-638.8 -175.05 -681.3 -183.0 L-705.3 -187.7 Q-714.7 -189.95 -714.7 -192.15 -714.7 -198.55 -691.2 -194.7 L-685.8 -193.75 Q-685.2 -197.35 -680.35 -196.95 -672.5 -195.45 -667.8 -195.45 L-646.85 -195.4 Q-646.8 -201.55 -621.25 -195.8 L-617.05 -194.8 -617.0 -194.8 -611.4 -194.65 Q-589.85 -194.25 -566.15 -188.25 -563.95 -190.25 -557.55 -190.25 L-541.0 -190.1 -534.3 -190.05 Q-529.1 -203.65 -500.9 -196.45 M-233.7 -145.5 L-231.9 -145.5 Q-236.8 -146.8 -243.35 -150.6 L-253.75 -156.65 Q-259.4 -159.6 -263.55 -159.55 -268.65 -159.55 -273.15 -155.15 L-272.05 -155.25 -270.0 -155.5 -262.75 -151.4 Q-255.25 -147.35 -249.6 -147.35 -247.75 -147.35 -247.0 -148.3 -246.3 -149.3 -244.65 -149.3 L-240.05 -148.1 Q-235.65 -146.7 -233.7 -145.5 M-279.85 -163.55 L-279.65 -164.5 Q-280.75 -165.5 -284.2 -166.55 -288.0 -167.65 -289.8 -167.1 -288.95 -166.15 -286.75 -164.7 -283.65 -162.7 -281.55 -162.7 L-280.25 -162.95 -279.85 -163.55 M-320.15 -175.65 Q-319.2 -175.45 -314.6 -172.15 -310.55 -169.3 -306.4 -169.3 L-304.5 -169.45 -303.8 -169.65 -303.55 -170.15 Q-303.3 -170.6 -303.3 -171.6 -303.3 -174.5 -310.7 -175.2 L-320.15 -175.65 M-11.25 -126.4 Q-11.7 -125.35 -13.0 -125.35 -14.05 -125.35 -18.5 -127.35 L-24.3 -130.05 -15.2 -130.3 Q-11.05 -129.3 -11.05 -127.6 L-11.25 -126.4 M-64.9 -133.4 Q-64.9 -132.35 -65.5 -132.5 L-66.05 -132.8 Q-70.45 -132.95 -77.65 -135.15 -85.25 -137.5 -88.8 -137.8 L-87.1 -138.25 -75.4 -136.35 Q-64.9 -134.45 -64.9 -133.4 M-45.6 -132.0 L-45.4 -132.25 -37.95 -133.4 Q-33.0 -134.1 -29.6 -131.6 L-23.9 -127.75 Q-20.0 -125.15 -19.2 -124.2 -21.5 -124.7 -25.0 -126.1 -27.6 -127.15 -29.8 -127.15 L-37.35 -127.65 Q-42.3 -130.65 -45.6 -132.0 M-289.9 -132.5 Q-294.4 -134.7 -297.05 -135.85 L-286.45 -135.55 Q-279.85 -134.1 -279.85 -131.05 -279.85 -130.6 -280.3 -130.1 L-281.85 -128.75 -289.9 -132.5 M-41.1 -141.05 Q-53.15 -147.15 -69.2 -153.15 -94.75 -162.65 -94.75 -155.9 -94.75 -155.65 -90.9 -155.15 L-80.0 -153.45 Q-60.75 -149.75 -41.1 -141.05 M-694.05 -142.35 L-693.6 -143.0 Q-693.25 -143.4 -693.25 -143.7 L-685.65 -143.15 Q-681.3 -142.0 -681.3 -140.05 -681.3 -138.95 -681.6 -138.7 L-682.9 -138.25 Q-685.4 -138.15 -689.7 -140.0 -693.2 -141.55 -694.05 -142.35 M-715.8 -178.4 Q-722.55 -178.4 -728.05 -180.25 -730.9 -181.15 -733.55 -182.3 -730.25 -183.35 -722.85 -182.5 -715.35 -181.6 -712.3 -179.7 -713.0 -179.7 -714.0 -179.05 -715.0 -178.4 -715.8 -178.4 M-660.15 -158.25 L-661.6 -157.65 -663.55 -157.3 Q-665.15 -157.3 -677.95 -160.45 L-694.2 -164.25 -675.3 -163.65 Q-665.45 -162.7 -660.15 -158.25 M-680.7 -175.3 Q-680.7 -174.45 -680.85 -174.1 -681.4 -173.1 -683.25 -173.1 -686.6 -173.1 -687.85 -174.15 -688.85 -175.05 -692.15 -179.4 -680.7 -179.4 -680.7 -175.3 M-104.1 -140.6 Q-104.6 -139.55 -106.5 -139.55 -109.6 -139.55 -111.7 -141.15 L-113.9 -143.05 Q-113.1 -144.1 -113.1 -144.5 -109.5 -145.15 -106.7 -144.35 -103.9 -143.55 -103.9 -141.85 -103.9 -140.95 -104.1 -140.6 M-107.1 129.8 Q-108.05 130.8 -108.05 131.45 L-114.2 132.2 -120.6 132.75 -131.15 132.6 Q-136.7 132.05 -142.5 129.15 -140.75 127.75 -136.15 126.0 -130.7 123.9 -125.5 123.1 -110.8 120.8 -107.1 129.8" fill="#2c726f" fill-rule="evenodd" stroke="none"/>
  </g>
</svg>
