<?xml version="1.0" encoding="UTF-8" standalone="no"?>
<svg xmlns:ffdec="https://www.free-decompiler.com/flash" xmlns:xlink="http://www.w3.org/1999/xlink" ffdec:objectType="shape" height="80.0px" width="1190.25px" xmlns="http://www.w3.org/2000/svg">
  <g transform="matrix(1.0, 0.0, 0.0, 1.0, -328.0, 192.4)">
    <path d="M1518.25 -148.5 L1518.25 -112.4 328.0 -112.4 328.0 -148.5 1518.25 -148.5 M597.65 -136.0 Q598.65 -135.0 602.2 -134.7 L606.6 -136.3 Q606.45 -136.95 604.15 -137.95 L599.45 -138.15 597.65 -137.95 597.65 -136.0 M367.65 -136.45 L370.65 -136.3 375.2 -137.7 Q380.15 -139.3 382.2 -140.2 377.15 -141.6 373.5 -141.95 366.1 -142.75 366.1 -139.25 366.1 -137.3 366.6 -136.95 L367.05 -136.65 367.65 -136.45 M410.55 -135.15 Q411.15 -134.7 413.2 -134.7 414.9 -134.7 417.2 -136.15 L421.0 -138.9 Q419.0 -140.25 415.4 -140.25 411.45 -140.2 409.3 -138.25 L409.65 -136.3 410.55 -135.15 M1230.1 -141.5 Q1232.15 -141.5 1234.65 -142.6 1235.95 -143.2 1237.25 -143.95 1235.45 -146.6 1231.05 -146.85 L1226.35 -146.55 1226.15 -146.7 Q1225.9 -146.5 1225.9 -144.45 1225.9 -142.5 1226.2 -142.4 L1227.0 -142.0 1227.35 -141.75 1230.1 -141.5 M1037.7 -138.9 L1038.3 -138.55 1041.3 -138.25 Q1043.05 -138.25 1046.8 -139.45 L1054.1 -141.5 Q1041.75 -145.5 1037.7 -144.6 L1037.15 -143.7 1037.05 -141.85 Q1037.05 -139.9 1037.4 -139.45 L1037.7 -138.9 M1123.85 -143.3 Q1125.9 -143.3 1126.3 -143.9 L1126.75 -145.25 1126.1 -147.2 1120.9 -146.75 Q1117.85 -146.0 1117.35 -145.25 L1120.45 -144.05 Q1122.0 -143.3 1123.85 -143.3 M920.05 -137.95 L922.5 -135.15 Q924.35 -133.4 926.4 -133.4 928.85 -133.4 931.45 -135.55 934.3 -137.85 934.85 -137.95 L959.6 -139.7 992.85 -141.05 993.5 -141.5 987.2 -142.1 978.7 -142.35 928.35 -144.35 923.3 -144.05 920.05 -140.4 895.35 -139.4 888.05 -138.9 Q886.45 -138.9 885.4 -140.45 884.35 -142.0 882.7 -142.0 880.4 -142.0 879.25 -141.35 L876.4 -139.8 Q873.5 -138.6 867.3 -137.65 871.7 -137.35 874.2 -135.85 L878.0 -132.75 Q880.0 -131.1 882.7 -131.1 887.05 -131.1 888.0 -133.3 889.45 -136.55 892.25 -137.95 L920.05 -137.95" fill="#dbe7b6" fill-rule="evenodd" stroke="none"/>
    <path d="M791.05 -174.35 Q788.95 -174.35 788.25 -174.8 L787.15 -175.95 Q789.1 -177.95 792.6 -177.85 796.7 -177.75 798.2 -178.55 801.1 -178.25 801.45 -177.6 799.45 -177.15 795.75 -175.6 792.8 -174.35 791.05 -174.35 M891.6 -190.45 L874.45 -186.7 Q867.05 -185.25 862.55 -185.25 860.6 -185.25 856.95 -186.15 L850.35 -187.85 Q856.1 -190.75 874.0 -191.75 L893.9 -192.4 Q893.55 -191.4 891.6 -190.45 M920.05 -137.95 L892.25 -137.95 Q889.45 -136.55 888.0 -133.3 887.05 -131.1 882.7 -131.1 880.0 -131.1 878.0 -132.75 L874.2 -135.85 Q871.7 -137.35 867.3 -137.65 873.5 -138.6 876.4 -139.8 L879.25 -141.35 Q880.4 -142.0 882.7 -142.0 884.35 -142.0 885.4 -140.45 886.45 -138.9 888.05 -138.9 L895.35 -139.4 920.05 -140.4 923.3 -144.05 928.35 -144.35 978.7 -142.35 987.2 -142.1 993.5 -141.5 992.85 -141.05 959.6 -139.7 934.85 -137.95 Q934.3 -137.85 931.45 -135.55 928.85 -133.4 926.4 -133.4 924.35 -133.4 922.5 -135.15 L920.05 -137.95 M1123.85 -143.3 Q1122.0 -143.3 1120.45 -144.05 L1117.35 -145.25 Q1117.85 -146.0 1120.9 -146.75 L1126.1 -147.2 1126.75 -145.25 1126.3 -143.9 Q1125.9 -143.3 1123.85 -143.3 M1037.7 -138.9 L1037.4 -139.45 Q1037.05 -139.9 1037.05 -141.85 L1037.15 -143.7 1037.7 -144.6 Q1041.75 -145.5 1054.1 -141.5 L1046.8 -139.45 Q1043.05 -138.25 1041.3 -138.25 L1038.3 -138.55 1037.7 -138.9 M1230.1 -141.5 L1227.35 -141.75 1227.0 -142.0 1226.2 -142.4 Q1225.9 -142.5 1225.9 -144.45 1225.9 -146.5 1226.15 -146.7 L1226.35 -146.55 1231.05 -146.85 Q1235.45 -146.6 1237.25 -143.95 1235.95 -143.2 1234.65 -142.6 1232.15 -141.5 1230.1 -141.5 M410.55 -135.15 L409.65 -136.3 409.3 -138.25 Q411.45 -140.2 415.4 -140.25 419.0 -140.25 421.0 -138.9 L417.2 -136.15 Q414.9 -134.7 413.2 -134.7 411.15 -134.7 410.55 -135.15 M367.65 -136.45 L367.05 -136.65 366.6 -136.95 Q366.1 -137.3 366.1 -139.25 366.1 -142.75 373.5 -141.95 377.15 -141.6 382.2 -140.2 380.15 -139.3 375.2 -137.7 L370.65 -136.3 367.65 -136.45 M597.65 -136.0 L597.65 -137.95 599.45 -138.15 604.15 -137.95 Q606.45 -136.95 606.6 -136.3 L602.2 -134.7 Q598.65 -135.0 597.65 -136.0" fill="#f4f8e9" fill-rule="evenodd" stroke="none"/>
  </g>
</svg>
