<?xml version="1.0" encoding="UTF-8" standalone="no"?>
<svg xmlns:ffdec="https://www.free-decompiler.com/flash" xmlns:xlink="http://www.w3.org/1999/xlink" ffdec:objectType="shape" height="132.45px" width="170.15px" xmlns="http://www.w3.org/2000/svg">
  <g transform="matrix(1.0, 0.0, 0.0, 1.0, -1068.95, 368.95)">
    <path d="M1182.9 -362.95 Q1183.3 -355.2 1182.95 -339.65 L1182.55 -323.3 Q1182.55 -321.65 1183.85 -316.05 1185.15 -310.4 1185.15 -308.8 1185.15 -306.6 1182.85 -303.95 1181.5 -302.4 1179.85 -301.55 1194.25 -295.55 1194.25 -291.6 1194.25 -285.9 1183.85 -285.9 1182.25 -285.9 1179.25 -287.45 1176.25 -289.0 1174.6 -289.0 1167.1 -289.0 1153.7 -286.8 1155.75 -284.05 1160.1 -280.85 L1162.55 -278.75 1181.25 -278.1 Q1199.0 -278.1 1216.55 -266.75 1223.75 -262.15 1228.2 -257.15 1232.6 -252.15 1232.6 -248.85 1232.6 -244.3 1228.7 -242.7 1225.55 -241.4 1217.5 -241.4 L1213.1 -238.95 Q1208.65 -236.5 1207.1 -236.5 L1202.95 -236.8 1201.25 -237.15 1200.75 -237.7 Q1200.25 -238.3 1200.25 -240.25 1200.25 -241.75 1202.4 -242.85 L1207.1 -245.45 Q1204.3 -247.75 1198.35 -253.4 1194.25 -257.3 1191.3 -258.95 1183.65 -263.3 1163.2 -263.3 1156.45 -263.3 1152.55 -264.4 1150.75 -264.9 1146.85 -266.8 L1144.75 -267.7 1142.95 -265.8 Q1138.6 -261.55 1135.45 -261.55 L1131.05 -262.3 1130.55 -262.4 1132.5 -259.75 Q1131.75 -257.2 1129.6 -256.5 L1123.75 -256.5 1123.35 -257.05 Q1122.9 -257.65 1122.9 -259.6 1122.9 -261.3 1124.45 -263.5 L1125.75 -264.9 1125.7 -265.75 Q1125.7 -266.95 1127.6 -268.55 L1128.5 -269.25 Q1121.5 -269.0 1113.5 -269.0 1092.6 -269.0 1079.3 -273.85 1068.95 -277.6 1068.95 -280.85 1068.95 -283.5 1089.0 -289.65 1108.1 -295.5 1112.85 -295.5 1120.1 -295.5 1135.6 -292.5 L1149.9 -289.5 Q1152.4 -289.5 1159.35 -295.75 L1152.9 -297.0 Q1137.8 -300.05 1130.9 -300.05 1126.1 -300.05 1123.55 -302.25 1121.5 -304.1 1120.0 -308.5 1129.95 -311.15 1134.3 -317.45 1134.8 -325.4 1136.75 -340.25 1135.75 -347.8 1135.75 -349.95 1135.75 -363.5 1136.95 -367.45 1138.0 -370.85 1139.65 -366.45 L1140.65 -363.3 Q1141.35 -366.0 1141.95 -366.85 1143.15 -363.15 1144.2 -358.0 L1145.05 -352.65 1145.5 -352.0 Q1147.95 -348.15 1150.2 -348.15 1152.05 -348.15 1153.85 -349.55 L1154.3 -349.85 Q1154.6 -353.05 1155.6 -355.6 1157.0 -359.0 1159.0 -359.85 1160.95 -360.75 1162.35 -358.6 1163.85 -356.2 1163.85 -351.05 L1163.7 -349.25 Q1165.55 -341.55 1166.55 -332.55 1167.4 -324.6 1167.65 -314.75 1168.6 -313.85 1169.9 -313.85 1175.65 -313.85 1177.05 -318.1 1177.35 -319.05 1177.35 -323.45 L1175.9 -340.65 Q1174.45 -356.25 1174.45 -357.9 1174.45 -359.35 1177.35 -361.0 1180.15 -362.7 1182.9 -362.95 M1209.05 -291.6 Q1214.3 -296.75 1225.05 -295.8 L1238.45 -293.2 Q1238.45 -292.35 1239.1 -290.3 L1238.45 -287.55 1237.2 -287.05 Q1236.15 -286.55 1234.25 -286.55 1232.65 -286.55 1232.05 -287.75 1231.5 -289.0 1229.85 -289.0 1228.25 -289.0 1223.05 -287.6 1217.85 -286.25 1216.2 -286.25 1212.4 -286.25 1211.2 -288.0 1210.3 -290.35 1209.05 -291.6 M1154.75 -289.5 L1154.65 -289.3 1157.65 -289.8 1154.75 -289.5" fill="#40a68e" fill-opacity="0.35686275" fill-rule="evenodd" stroke="none"/>
  </g>
</svg>
