<?xml version="1.0" encoding="UTF-8" standalone="no"?>
<svg xmlns:ffdec="https://www.free-decompiler.com/flash" xmlns:xlink="http://www.w3.org/1999/xlink" ffdec:objectType="shape" height="292.75px" width="2747.4px" xmlns="http://www.w3.org/2000/svg">
  <g transform="matrix(1.0, 0.0, 0.0, 1.0, 1701.1, 98.75)">
    <path d="M1028.45 68.8 Q1030.9 94.2 1030.9 98.3 1030.9 116.5 1027.6 124.8 1023.05 136.35 1008.85 143.7 993.45 151.65 961.3 157.7 929.45 163.65 871.65 169.45 L828.4 169.8 Q823.85 170.75 688.8 169.15 665.95 169.15 623.25 175.3 L582.2 181.65 506.55 187.6 375.2 194.0 286.15 194.0 274.6 193.05 81.25 192.7 68.55 191.75 16.7 191.4 -182.0 182.65 -262.6 182.65 -273.3 183.6 -317.85 183.95 -339.95 185.1 -361.05 186.2 -421.65 185.9 Q-430.6 180.15 -433.7 169.55 -447.45 168.6 -451.9 167.5 L-608.55 167.2 -617.3 166.2 -661.5 165.9 -681.45 164.8 -701.5 163.8 -1172.1 163.3 -1191.35 162.25 -1211.1 161.2 -1245.7 160.7 -1252.35 159.9 -1288.3 159.55 -1298.5 158.95 -1309.55 158.6 -1320.55 158.95 -1330.7 159.55 -1388.2 159.9 -1493.85 165.2 -1593.8 172.4 -1633.75 172.4 Q-1686.05 168.8 -1696.45 161.7 -1700.85 158.65 -1701.1 153.35 -1700.55 146.45 -1700.55 142.15 -1700.55 115.55 -1691.7 88.5 -1683.65 63.9 -1666.4 33.45 L-1651.25 7.75 Q-1642.05 -8.05 -1636.7 -20.6 -1635.0 -24.65 -1626.2 -34.15 -1616.45 -44.35 -1613.75 -47.6 -1612.35 -49.3 -1612.45 -53.9 L-1612.8 -62.4 Q-1612.7 -73.1 -1602.9 -73.1 -1574.1 -67.9 -1567.95 -65.95 L-1521.0 -65.95 -1507.5 -67.55 -1488.0 -69.55 -1266.2 -69.85 Q-1230.25 -71.3 -1187.35 -74.8 L-1112.8 -79.95 -1048.9 -80.25 -1044.55 -81.25 -1008.95 -81.4 Q-995.8 -86.3 -974.2 -86.0 L-952.9 -84.95 -896.5 -85.3 Q-883.4 -89.6 -860.65 -89.25 L-843.7 -88.75 Q-834.65 -88.45 -830.35 -88.85 L-785.85 -89.2 -762.65 -90.05 -737.55 -91.15 -623.35 -91.45 -618.95 -92.45 -560.3 -92.75 -555.75 -93.75 -509.25 -93.75 Q-429.45 -104.3 -406.6 -92.65 -398.75 -88.65 -397.05 -81.65 -384.05 -79.85 -369.75 -74.95 -362.9 -72.65 -356.0 -69.65 L-350.5 -67.25 Q-339.45 -67.25 -320.3 -71.45 -298.85 -76.15 -286.8 -77.0 L-221.3 -81.05 -170.1 -84.5 -15.4 -84.5 -10.2 -83.35 118.6 -83.2 123.65 -82.2 158.6 -81.9 163.3 -80.9 232.05 -80.6 283.35 -76.95 350.0 -73.1 393.9 -73.1 398.45 -74.1 491.85 -74.4 Q504.1 -78.4 519.55 -78.25 L530.15 -77.9 Q535.5 -77.65 537.7 -78.0 L600.6 -78.3 643.3 -81.5 685.9 -84.5 725.85 -84.5 728.5 -83.9 730.4 -83.35 834.25 -83.2 844.0 -82.05 852.95 -80.9 892.25 -80.6 903.9 -79.45 914.55 -78.3 968.3 -78.0 Q990.25 -73.0 1011.2 -69.75 L1034.6 -66.15 Q1042.2 -64.6 1044.35 -61.6 1046.3 -58.85 1046.3 -50.5 1046.3 -29.3 1036.0 6.9 1033.45 15.8 1028.9 30.1 L1026.75 37.15 1020.1 37.6 Q1014.45 38.65 1014.45 42.05 1014.45 43.95 1014.95 44.85 L1015.45 45.95 1019.3 46.7 1023.1 46.95 1026.25 46.65 1027.85 62.8 Q1024.95 63.7 1023.25 66.3 1023.5 67.05 1026.3 68.1 L1028.45 68.8 M1025.15 21.2 Q1023.65 22.1 1020.85 23.9 1014.95 27.6 1010.9 27.6 L991.0 27.5 Q985.55 27.55 983.95 28.6 983.3 29.0 980.2 33.15 976.6 38.0 970.25 43.35 L970.6 45.3 Q972.45 47.25 976.75 47.25 982.15 47.25 984.5 45.35 985.85 44.25 987.35 41.75 1003.95 40.75 1013.4 32.45 L1020.05 25.7 Q1022.8 22.85 1025.15 21.2 M1028.4 -16.7 L1030.9 -16.4 Q1032.75 -16.4 1033.6 -17.2 L1035.45 -20.6 Q1030.15 -22.35 1028.95 -21.95 1028.6 -21.8 1027.0 -19.0 L1028.3 -17.05 1028.4 -16.7" fill="#ccb868" fill-rule="evenodd" stroke="none"/>
    <path d="M1026.75 37.15 L1033.15 37.2 1033.65 37.55 Q1034.15 37.85 1034.15 39.8 1034.15 42.55 1030.95 44.7 1028.85 46.1 1026.25 46.65 L1023.1 46.95 1019.3 46.7 1015.45 45.95 1014.95 44.85 Q1014.45 43.95 1014.45 42.05 1014.45 38.65 1020.1 37.6 L1026.75 37.15 M1028.4 -16.7 L1028.3 -17.05 1027.0 -19.0 Q1028.6 -21.8 1028.95 -21.95 1030.15 -22.35 1035.45 -20.6 L1033.6 -17.2 Q1032.75 -16.4 1030.9 -16.4 L1028.4 -16.7 M1025.15 21.2 Q1022.8 22.85 1020.05 25.7 L1013.4 32.45 Q1003.95 40.75 987.35 41.75 985.85 44.25 984.5 45.35 982.15 47.25 976.75 47.25 972.45 47.25 970.6 45.3 L970.25 43.35 Q976.6 38.0 980.2 33.15 983.3 29.0 983.95 28.6 985.55 27.55 991.0 27.5 L1010.9 27.6 Q1014.95 27.6 1020.85 23.9 1023.65 22.1 1025.15 21.2" fill="#c7a554" fill-rule="evenodd" stroke="none"/>
    <path d="M1027.85 62.8 L1031.7 62.3 Q1036.5 62.35 1040.0 65.0 L1037.3 68.2 Q1035.7 69.2 1031.55 69.2 L1028.45 68.8 1026.3 68.1 Q1023.5 67.05 1023.25 66.3 1024.95 63.7 1027.85 62.8" fill="#cacf6b" fill-rule="evenodd" stroke="none"/>
  </g>
</svg>
