<?xml version="1.0" encoding="UTF-8" standalone="no"?>
<svg xmlns:ffdec="https://www.free-decompiler.com/flash" xmlns:xlink="http://www.w3.org/1999/xlink" ffdec:objectType="shape" height="116.7px" width="385.1px" xmlns="http://www.w3.org/2000/svg">
  <g transform="matrix(1.0, 0.0, 0.0, 1.0, 474.8, 72.55)">
    <path d="M-427.25 -55.25 L-425.75 -54.95 -424.1 -53.7 Q-421.0 -56.9 -412.7 -50.75 L-415.05 -52.95 Q-405.15 -45.8 -388.15 -30.15 -369.15 -12.25 -360.25 -4.3 L-362.3 -5.9 -349.6 5.5 Q-333.75 19.65 -323.1 30.1 L-322.95 30.5 Q-322.9 30.85 -323.45 30.85 L-324.05 30.65 -324.1 30.65 -324.2 30.75 -327.9 30.8 -330.4 30.85 Q-330.2 31.1 -330.15 31.7 -330.1 32.65 -330.7 32.65 -336.35 32.65 -384.65 -14.3 L-415.45 -44.15 -417.45 -46.1 -420.1 -48.4 -421.55 -49.85 Q-427.5 -55.15 -426.3 -52.85 -427.35 -54.75 -427.25 -55.25 M-435.05 -62.3 Q-435.05 -53.6 -422.1 -38.7 -406.35 -22.1 -400.7 -14.95 L-398.0 -11.65 -388.85 -3.1 Q-379.05 6.4 -370.4 16.1 -354.5 30.2 -348.8 30.2 -338.1 30.2 -333.1 35.3 -331.5 36.95 -330.4 39.25 L-329.1 42.0 Q-329.45 42.45 -331.95 42.45 L-332.6 42.4 Q-332.45 42.65 -332.45 43.3 -332.45 44.25 -332.8 44.15 L-334.4 43.75 -342.5 43.3 -350.1 42.8 Q-351.2 42.8 -356.8 37.75 -362.35 32.65 -364.55 32.65 L-368.0 33.1 -374.6 33.95 -375.5 33.55 -375.65 33.3 -409.1 0.4 Q-441.05 -30.85 -458.05 -46.25 L-458.3 -46.45 Q-465.0 -51.2 -470.9 -52.65 -471.15 -54.1 -471.0 -56.45 L-470.8 -59.7 Q-470.8 -60.9 -472.15 -63.05 -473.6 -65.35 -474.8 -65.55 L-472.05 -66.2 -473.65 -69.95 Q-473.65 -72.8 -453.6 -72.55 -433.55 -72.25 -433.55 -70.35 -433.55 -69.5 -434.3 -66.3 L-435.05 -62.3 M-352.05 -54.6 L-350.45 -53.65 Q-350.05 -54.4 -349.2 -54.6 L-347.05 -54.65 Q-343.85 -54.1 -337.8 -50.6 L-341.1 -52.85 Q-328.05 -45.55 -304.1 -29.55 -277.3 -11.25 -264.9 -3.15 L-267.65 -4.8 -249.95 6.85 Q-227.85 21.35 -212.65 32.0 L-212.3 32.4 Q-212.1 32.8 -212.65 32.8 L-213.35 32.6 -213.4 32.6 Q-213.65 32.55 -213.4 32.7 L-217.1 32.75 -219.6 32.8 -218.95 33.65 Q-218.5 34.6 -219.1 34.6 -224.75 34.6 -293.65 -13.35 L-337.6 -43.9 -340.45 -45.85 -344.15 -48.2 -346.2 -49.7 Q-354.35 -55.0 -352.35 -52.8 L-353.65 -54.25 -353.3 -54.25 -352.05 -54.6 M-364.2 -52.85 Q-352.6 -45.55 -331.9 -29.55 L-297.95 -3.15 -300.4 -4.8 -285.0 6.85 Q-265.85 21.35 -252.75 32.0 L-252.5 32.4 Q-252.35 32.8 -252.9 32.8 L-253.6 32.6 -253.65 32.6 Q-253.85 32.55 -253.65 32.7 L-257.35 32.75 -259.85 32.8 Q-259.6 33.05 -259.4 33.65 -259.15 34.6 -259.75 34.6 -265.4 34.6 -324.7 -13.35 L-362.5 -43.9 -364.95 -45.85 -368.2 -48.2 -369.95 -49.7 Q-377.05 -55.0 -375.45 -52.8 L-376.45 -54.25 -374.25 -54.25 -373.4 -53.65 -372.8 -54.25 -368.3 -54.25 Q-365.5 -53.3 -361.35 -50.6 L-364.2 -52.85 M-389.0 -50.6 L-391.6 -52.85 Q-380.9 -45.55 -362.15 -29.55 -341.2 -11.25 -331.4 -3.15 L-333.65 -4.8 -319.7 6.85 Q-302.3 21.35 -290.5 32.0 L-290.4 32.25 -294.55 32.15 -297.45 32.8 -297.7 32.8 -297.65 32.85 -300.45 33.6 Q-311.2 27.65 -356.9 -13.35 L-391.0 -43.9 -393.2 -45.85 -396.15 -48.2 -397.75 -49.7 Q-404.25 -55.1 -402.8 -52.75 -404.05 -54.65 -404.0 -55.25 L-403.05 -55.25 -400.7 -53.65 Q-397.95 -56.9 -389.0 -50.6 M-293.65 -52.3 Q-292.3 -52.3 -290.45 -53.15 -287.05 -52.4 -280.55 -49.15 L-284.6 -51.5 Q-269.25 -44.05 -240.3 -27.65 L-192.9 -0.7 -195.35 -1.95 -174.85 9.5 Q-148.2 24.35 -129.75 35.2 L-129.25 35.65 Q-128.95 36.05 -129.5 36.05 L-130.25 35.85 -130.3 35.85 Q-130.55 35.8 -130.25 35.95 L-134.0 36.0 -136.5 36.05 -135.8 36.6 -139.6 36.45 Q-155.35 29.55 -224.9 -11.1 L-278.35 -42.3 -281.85 -44.35 Q-283.7 -45.25 -286.25 -46.7 L-288.8 -48.3 Q-298.4 -53.55 -296.05 -51.5 L-297.5 -52.75 -294.35 -52.35 -294.25 -52.3 -294.25 -52.35 -293.65 -52.3 M-310.85 -44.7 L-314.85 -47.0 -317.1 -48.5 Q-325.95 -53.7 -323.65 -51.55 -329.0 -56.35 -321.85 -52.4 -320.6 -55.6 -308.8 -49.35 L-312.4 -51.6 Q-298.4 -44.4 -272.4 -28.6 -243.25 -10.6 -229.8 -2.6 L-232.75 -4.25 -213.55 7.25 Q-190.75 20.85 -174.65 31.05 L-174.55 31.05 -172.3 31.25 -166.9 31.65 Q-161.0 31.65 -151.75 36.35 -148.85 37.8 -142.4 41.8 -142.45 42.1 -141.15 43.0 -140.65 43.75 -145.05 43.75 L-147.6 43.55 -153.8 43.3 Q-158.55 41.65 -165.5 37.95 L-174.5 32.8 -177.6 30.85 -175.55 32.8 -177.4 32.8 -179.9 32.85 -179.7 33.0 -183.35 33.1 Q-198.15 26.2 -259.85 -12.65 L-307.75 -42.75 -310.85 -44.7 M-91.3 42.45 Q-91.3 42.65 -89.8 43.25 -89.1 43.75 -93.5 43.75 L-96.1 43.6 -102.35 43.45 Q-107.5 42.35 -115.3 39.95 L-125.45 36.6 -129.0 35.35 -125.9 35.45 -123.6 35.6 -118.1 35.85 Q-112.2 35.85 -101.9 38.9 -98.65 39.85 -91.3 42.45 M-195.65 31.65 Q-189.75 31.65 -183.1 36.35 -181.0 37.8 -176.75 41.8 -176.95 42.1 -176.15 43.0 -176.1 43.75 -180.5 43.75 L-182.9 43.55 -189.0 43.3 Q-192.8 41.65 -197.75 37.95 -201.9 34.8 -205.95 30.85 L-200.85 31.25 -195.65 31.65 M-280.95 37.95 Q-285.1 34.8 -289.15 30.85 L-284.05 31.25 -278.85 31.65 Q-272.95 31.65 -266.3 36.35 -264.2 37.8 -259.95 41.8 -260.15 42.1 -259.35 43.0 -259.3 43.75 -263.7 43.75 L-266.1 43.55 -272.2 43.3 Q-276.0 41.65 -280.95 37.95 M-316.45 31.25 L-311.4 31.65 Q-305.5 31.65 -300.5 36.35 -298.9 37.8 -296.05 41.8 -296.35 42.1 -295.85 43.0 -296.05 43.75 -300.45 43.75 L-302.8 43.55 -308.8 43.3 Q-312.05 41.65 -315.7 37.95 -318.75 34.8 -321.4 30.85 L-316.45 31.25" fill="#10361f" fill-opacity="0.22352941" fill-rule="evenodd" stroke="none"/>
  </g>
</svg>
