<?xml version="1.0" encoding="UTF-8" standalone="no"?>
<svg xmlns:ffdec="https://www.free-decompiler.com/flash" xmlns:xlink="http://www.w3.org/1999/xlink" ffdec:objectType="shape" height="277.1px" width="320.0px" xmlns="http://www.w3.org/2000/svg">
  <g transform="matrix(1.0, 0.0, 0.0, 1.0, -115.65, 658.45)">
    <path d="M344.65 -620.6 L344.35 -621.0 343.1 -620.85 Q342.65 -620.5 342.65 -620.15 L342.65 -619.75 342.75 -619.7 342.85 -619.6 343.25 -619.55 Q343.75 -619.55 344.65 -620.6 M370.2 -625.15 L377.3 -626.55 387.8 -628.45 Q383.65 -626.65 368.85 -619.45 362.1 -616.2 357.65 -611.9 L355.05 -609.05 354.95 -608.9 354.05 -607.7 353.95 -607.55 353.1 -606.2 352.6 -605.25 352.85 -606.15 352.9 -606.35 353.35 -607.95 353.55 -608.6 354.15 -610.55 356.1 -616.95 357.05 -620.05 358.1 -623.55 359.8 -623.65 366.95 -624.65 368.85 -624.95 367.8 -624.5 Q365.95 -623.6 365.95 -623.2 L366.05 -622.6 366.1 -622.5 366.6 -622.45 Q367.1 -622.45 368.65 -623.4 370.2 -624.45 370.2 -624.95 L370.2 -625.15 M353.25 -576.05 Q356.25 -574.2 360.35 -574.2 L365.8 -574.75 367.45 -575.2 Q369.6 -575.9 371.35 -577.05 L371.5 -577.15 372.9 -578.2 374.0 -579.1 374.35 -579.4 Q375.8 -580.45 377.0 -580.6 L375.85 -576.3 375.6 -575.5 375.1 -574.4 373.85 -572.5 Q373.0 -571.5 371.85 -570.75 L370.7 -570.15 369.25 -569.55 362.35 -567.15 360.45 -566.5 358.9 -567.8 355.05 -571.7 354.85 -571.65 Q355.45 -568.65 358.3 -565.75 L355.25 -564.8 355.2 -564.8 353.9 -564.7 350.05 -564.5 339.9 -563.95 339.9 -564.15 340.35 -564.2 Q340.5 -566.1 341.9 -574.35 L343.25 -582.8 Q343.5 -588.25 346.85 -600.6 L347.25 -602.15 347.5 -603.0 348.35 -606.05 349.25 -609.25 350.0 -611.95 350.55 -613.8 351.0 -615.45 351.45 -616.85 351.35 -617.75 351.25 -617.95 349.9 -618.25 349.35 -618.15 348.5 -618.0 338.6 -617.0 336.75 -617.1 336.75 -617.4 337.95 -620.3 338.55 -621.65 344.3 -622.35 355.05 -623.3 354.05 -619.15 353.35 -615.75 351.9 -609.35 351.3 -607.35 350.5 -604.45 349.3 -600.0 348.85 -598.25 348.75 -597.85 346.75 -589.6 Q346.75 -584.25 347.65 -581.7 349.2 -577.3 353.25 -576.05 M360.8 -619.65 L360.2 -619.15 Q360.65 -618.9 360.9 -619.0 L361.15 -619.15 361.6 -619.95 361.55 -619.95 360.8 -619.65 M318.05 -455.4 L307.95 -455.4 306.45 -479.65 306.2 -483.5 306.25 -482.85 306.6 -480.85 306.45 -480.6 306.85 -479.9 306.75 -480.0 307.95 -473.2 308.9 -472.85 310.15 -473.25 310.4 -474.65 307.95 -502.0 Q307.95 -512.85 305.2 -525.4 L304.95 -531.2 304.85 -533.0 311.8 -533.55 311.85 -533.05 Q312.25 -525.25 313.0 -517.8 L313.35 -514.9 Q315.25 -498.35 316.35 -481.8 L317.2 -466.6 Q317.4 -462.25 318.05 -455.4 M202.2 -455.4 L197.9 -455.4 200.2 -471.2 201.65 -481.75 203.1 -493.55 Q204.85 -506.95 206.6 -516.3 L206.9 -517.8 208.35 -525.15 211.55 -525.55 206.55 -492.4 Q203.3 -471.25 202.3 -462.7 L201.35 -462.7 Q201.35 -462.45 200.55 -462.45 L200.55 -461.7 201.15 -461.35 202.1 -461.2 201.85 -457.6 Q201.85 -456.5 202.2 -455.4 M350.3 -595.9 L350.8 -597.3 350.95 -597.65 351.0 -597.8 353.05 -602.25 354.6 -604.9 356.15 -607.1 Q358.95 -610.75 362.95 -613.8 366.9 -616.8 371.95 -619.25 379.45 -622.85 397.5 -630.9 L397.9 -631.1 405.5 -633.5 Q411.85 -635.6 416.95 -638.9 L418.45 -639.9 420.4 -641.4 423.6 -644.25 Q421.65 -640.7 418.45 -637.35 L413.75 -633.25 Q408.35 -629.1 396.3 -623.0 L388.6 -624.2 387.3 -624.3 387.15 -624.1 387.8 -623.9 393.05 -622.3 394.15 -621.95 387.35 -618.65 Q373.6 -612.25 365.95 -607.55 362.9 -605.7 360.85 -604.05 L359.0 -602.55 357.45 -601.2 355.85 -599.6 Q354.15 -597.85 352.8 -595.95 L351.5 -593.95 351.35 -593.7 Q349.35 -590.3 348.6 -586.6 L348.55 -587.75 Q348.6 -588.95 350.25 -595.7 L350.3 -595.9 M367.6 -612.4 L367.35 -612.55 367.35 -612.4 Q365.65 -612.65 365.55 -611.45 365.65 -611.15 366.6 -611.15 367.65 -611.15 367.65 -611.95 L367.6 -612.4 M345.7 -569.8 L346.1 -569.75 346.85 -569.8 346.95 -569.95 347.0 -570.4 346.9 -570.8 345.8 -570.95 Q345.45 -570.8 345.45 -570.45 L345.5 -570.0 345.7 -569.8 M324.25 -574.35 L326.4 -574.5 334.6 -574.5 338.75 -575.2 340.9 -575.9 340.2 -571.85 Q339.6 -571.35 339.15 -570.5 L338.1 -566.0 337.95 -565.05 337.55 -564.0 337.55 -563.85 337.35 -563.85 326.35 -563.6 325.85 -563.55 323.95 -563.4 319.45 -562.95 318.45 -562.85 316.15 -562.65 314.5 -562.5 310.15 -562.1 300.8 -561.3 299.85 -561.2 271.2 -558.55 269.05 -558.35 268.1 -558.25 266.35 -558.1 260.0 -557.5 252.15 -556.7 251.55 -556.7 250.05 -556.65 243.9 -555.35 243.5 -555.3 242.35 -555.25 241.45 -555.2 238.55 -555.0 230.05 -554.4 228.85 -554.3 227.65 -554.2 219.0 -553.55 217.4 -553.45 212.9 -553.1 210.75 -552.95 209.65 -552.85 207.6 -552.65 195.8 -551.7 195.7 -551.7 174.9 -549.9 168.25 -549.25 167.8 -549.35 161.8 -548.7 159.95 -548.55 158.05 -548.4 158.45 -549.4 158.5 -549.5 Q160.75 -551.7 164.1 -555.9 L167.55 -560.3 171.95 -560.4 176.4 -560.8 184.75 -560.9 186.4 -561.05 195.8 -562.15 196.15 -562.2 204.65 -563.15 208.05 -563.55 211.15 -563.9 213.0 -564.1 214.85 -564.35 218.9 -564.8 220.35 -564.95 228.85 -565.95 240.85 -567.3 245.75 -567.4 293.45 -572.15 300.35 -572.25 307.75 -573.1 310.85 -573.5 312.4 -573.65 313.55 -573.75 314.35 -573.8 315.7 -573.9 320.8 -574.1 321.75 -574.2 323.0 -574.3 324.25 -574.35 M164.35 -600.3 L171.55 -600.95 168.15 -591.95 Q165.45 -584.15 163.9 -580.9 L162.7 -577.6 162.7 -577.7 162.75 -578.0 Q162.95 -582.55 158.55 -585.85 155.55 -588.1 148.15 -591.0 141.6 -593.55 138.3 -595.05 L136.2 -596.1 Q131.0 -598.8 128.4 -602.25 132.9 -599.9 138.3 -599.9 L138.35 -599.9 140.85 -599.9 140.95 -599.8 147.55 -599.45 162.55 -600.15 159.7 -597.05 164.35 -600.3 M159.0 -565.65 L161.6 -570.7 Q163.35 -574.55 166.6 -583.9 L171.35 -596.0 173.25 -601.1 188.35 -602.7 188.15 -601.85 Q187.65 -600.0 185.5 -598.85 184.7 -598.45 183.75 -598.15 181.05 -597.3 176.9 -597.1 L173.85 -589.85 173.75 -590.0 173.55 -589.6 173.35 -588.95 173.35 -588.7 166.75 -572.45 166.1 -570.8 165.45 -570.45 Q165.5 -570.3 165.8 -570.2 L162.65 -562.35 162.55 -562.15 162.4 -561.8 162.15 -561.25 162.05 -561.15 162.0 -561.05 162.0 -560.75 161.35 -559.25 161.15 -558.7 161.2 -558.7 157.2 -548.85 157.25 -548.3 154.05 -548.15 153.8 -548.15 Q144.2 -548.15 138.3 -551.95 L137.55 -552.45 Q132.6 -555.9 132.8 -559.7 132.85 -560.95 133.05 -561.35 133.5 -561.25 136.95 -558.6 137.65 -558.15 138.3 -557.8 141.6 -556.05 144.45 -556.05 152.3 -556.05 156.75 -562.0 L159.0 -565.65 M120.8 -600.25 L121.4 -599.75 Q121.9 -599.4 122.1 -599.4 L122.75 -599.6 121.85 -600.35 120.8 -600.75 120.8 -600.25 M133.7 -588.5 Q126.95 -591.45 123.5 -594.3 116.95 -599.75 117.3 -607.65 L117.6 -611.8 Q120.9 -607.85 124.15 -605.1 L125.4 -604.05 Q126.25 -599.8 130.75 -596.9 133.75 -595.0 143.05 -591.7 151.7 -588.7 155.3 -585.9 160.9 -581.65 160.9 -574.65 L160.5 -572.05 160.1 -569.6 160.05 -569.5 160.2 -571.15 Q160.35 -573.35 158.15 -575.75 156.6 -578.4 152.8 -580.55 150.75 -581.7 143.15 -584.7 L148.15 -585.4 149.75 -585.15 149.75 -585.35 137.75 -587.95 133.7 -588.5 M151.5 -594.85 L151.25 -595.5 Q150.45 -595.8 149.65 -594.95 149.85 -594.6 150.7 -594.6 L151.5 -594.85 M157.35 -594.5 L156.25 -594.35 156.45 -593.75 157.65 -593.75 158.25 -593.95 Q157.95 -594.3 157.35 -594.5 M130.3 -594.15 L129.25 -594.6 129.1 -594.4 129.1 -594.05 129.3 -593.5 Q129.65 -593.0 130.2 -593.0 L130.75 -593.15 130.9 -593.65 130.3 -594.15 M151.65 -553.1 L151.7 -552.7 152.05 -552.65 Q152.65 -553.0 152.95 -553.8 153.2 -554.5 153.75 -554.6 L153.7 -554.7 Q153.15 -554.7 152.45 -554.15 151.65 -553.55 151.65 -553.1 M146.0 -551.8 L146.55 -551.8 145.65 -552.05 145.45 -552.0 Q145.5 -551.85 146.0 -551.8 M163.8 -586.55 Q163.2 -586.6 163.0 -586.3 L163.3 -586.1 163.5 -586.05 163.8 -586.55 M164.8 -592.95 Q164.35 -593.15 164.1 -592.45 L164.8 -591.75 Q165.3 -591.75 165.5 -592.0 L164.8 -592.95" fill="#dfdc53" fill-rule="evenodd" stroke="none"/>
    <path d="M344.65 -620.6 Q343.75 -619.55 343.25 -619.55 L342.85 -619.6 342.75 -619.7 342.65 -619.75 342.65 -620.15 Q342.65 -620.5 343.1 -620.85 L344.35 -621.0 344.65 -620.6 M370.2 -625.15 L370.2 -624.95 Q370.2 -624.45 368.65 -623.4 367.1 -622.45 366.6 -622.45 L366.1 -622.5 366.05 -622.6 365.95 -623.2 Q365.95 -623.6 367.8 -624.5 L368.85 -624.95 368.9 -625.0 369.55 -625.05 370.2 -625.15 M355.05 -623.3 L356.85 -623.45 356.45 -621.9 355.35 -618.05 355.1 -617.0 354.0 -612.0 353.3 -609.0 353.05 -608.2 352.75 -607.15 352.6 -606.65 351.7 -603.45 351.15 -602.15 Q351.05 -599.65 350.5 -598.4 L350.35 -598.1 349.9 -596.2 349.9 -596.15 Q347.95 -588.25 347.9 -587.45 347.85 -585.95 348.15 -583.9 L348.2 -583.6 348.2 -583.05 Q348.1 -581.0 350.65 -578.2 L350.85 -578.0 351.15 -577.65 353.25 -576.05 Q349.2 -577.3 347.65 -581.7 346.75 -584.25 346.75 -589.6 L348.75 -597.85 348.85 -598.25 349.3 -600.0 350.5 -604.45 351.3 -607.35 351.9 -609.35 353.35 -615.75 354.05 -619.15 355.05 -623.3 M360.45 -566.5 L359.9 -566.3 358.3 -565.75 Q355.45 -568.65 354.85 -571.65 L355.05 -571.7 358.9 -567.8 360.45 -566.5 M323.25 -455.4 L318.05 -455.4 Q317.4 -462.25 317.2 -466.6 L316.35 -481.8 Q315.25 -498.35 313.35 -514.9 L313.0 -517.8 Q312.25 -525.25 311.85 -533.05 L314.6 -533.0 316.45 -533.1 316.5 -532.7 316.5 -532.2 317.65 -517.8 318.45 -509.45 318.7 -507.25 321.35 -477.55 321.75 -472.7 322.5 -463.55 322.55 -463.4 322.55 -463.3 322.55 -463.25 322.55 -463.05 322.6 -462.7 322.6 -462.65 322.6 -462.55 322.6 -462.3 322.6 -462.15 322.65 -461.15 323.25 -455.4 M204.0 -455.4 L202.2 -455.4 Q201.85 -456.5 201.85 -457.6 L202.1 -461.2 201.15 -461.35 200.55 -461.7 200.55 -462.45 Q201.35 -462.45 201.35 -462.7 L202.3 -462.7 Q203.3 -471.25 206.55 -492.4 L211.55 -525.55 211.6 -525.55 212.65 -525.7 214.5 -525.95 213.4 -517.8 212.6 -511.95 Q210.8 -499.05 205.45 -465.15 L204.0 -455.4 M197.9 -455.4 L194.55 -455.4 195.55 -462.1 195.8 -464.0 198.6 -481.75 204.35 -517.75 204.35 -517.8 205.45 -524.75 Q207.0 -525.0 208.45 -526.0 L208.6 -526.45 208.3 -525.15 208.35 -525.15 206.9 -517.8 206.6 -516.3 Q204.85 -506.95 203.1 -493.55 L201.65 -481.75 200.2 -471.2 197.9 -455.4 M326.15 -619.7 L335.6 -621.25 335.05 -619.7 Q334.3 -617.45 334.15 -616.15 L334.6 -616.2 334.85 -616.0 319.7 -613.95 319.45 -613.9 291.15 -610.1 Q268.75 -608.55 250.5 -605.9 L228.85 -602.8 214.95 -600.9 208.15 -600.8 202.35 -600.5 197.8 -600.35 195.8 -600.15 193.05 -599.65 188.75 -598.9 Q189.3 -600.75 190.15 -602.55 L190.3 -602.95 195.8 -603.55 197.95 -603.8 208.35 -605.15 228.85 -607.85 248.2 -610.75 262.75 -612.45 263.7 -612.5 319.45 -618.95 325.75 -619.7 326.15 -619.7 M397.9 -631.1 L397.5 -630.9 Q379.45 -622.85 371.95 -619.25 366.9 -616.8 362.95 -613.8 358.95 -610.75 356.15 -607.1 L354.6 -604.9 353.05 -602.25 351.0 -597.8 350.95 -597.65 350.8 -597.3 350.3 -595.9 350.55 -596.85 350.8 -597.9 350.8 -598.0 351.5 -601.0 352.2 -602.3 352.45 -602.8 353.85 -605.55 355.3 -608.35 355.35 -608.45 Q356.35 -610.15 359.15 -612.4 L361.05 -613.9 Q364.5 -616.4 369.05 -618.9 377.7 -623.65 388.95 -627.95 L394.5 -630.1 395.15 -630.3 397.9 -631.1 M394.15 -621.95 L393.05 -622.3 387.8 -623.9 387.15 -624.1 387.3 -624.3 388.6 -624.2 396.3 -623.0 394.15 -621.95 M367.6 -612.4 L367.65 -611.95 Q367.65 -611.15 366.6 -611.15 365.65 -611.15 365.55 -611.45 365.65 -612.65 367.35 -612.4 L367.35 -612.55 367.6 -612.4 M345.7 -569.8 L345.5 -570.0 345.45 -570.45 Q345.45 -570.8 345.8 -570.95 L346.9 -570.8 347.0 -570.4 346.95 -569.95 346.85 -569.8 346.1 -569.75 345.7 -569.8 M162.55 -600.15 L164.1 -600.3 164.35 -600.3 159.7 -597.05 162.55 -600.15 M159.0 -565.65 L159.1 -566.0 160.55 -569.0 162.35 -574.55 162.7 -575.6 162.75 -575.65 162.75 -575.8 Q163.55 -578.45 164.3 -579.95 L169.05 -591.85 172.25 -601.0 173.25 -601.1 171.35 -596.0 166.6 -583.9 Q163.35 -574.55 161.6 -570.7 L159.0 -565.65 M120.8 -600.25 L120.8 -600.75 121.85 -600.35 122.75 -599.6 122.1 -599.4 Q121.9 -599.4 121.4 -599.75 L120.8 -600.25 M133.7 -588.5 L137.75 -587.95 149.75 -585.35 149.75 -585.15 148.15 -585.4 143.15 -584.7 143.1 -584.7 142.05 -585.1 138.55 -586.5 138.3 -586.55 138.1 -586.65 133.7 -588.5 M160.1 -569.6 L160.5 -572.05 160.9 -574.65 Q160.9 -581.65 155.3 -585.9 151.7 -588.7 143.05 -591.7 133.75 -595.0 130.75 -596.9 126.25 -599.8 125.4 -604.05 L125.4 -604.1 126.2 -603.5 127.05 -603.0 Q128.45 -599.75 133.3 -596.85 134.95 -595.9 138.3 -594.35 141.35 -593.0 145.85 -591.2 154.4 -587.7 157.7 -585.35 161.75 -582.4 162.15 -578.95 L162.0 -579.0 162.1 -577.2 Q162.0 -576.4 162.15 -575.85 L162.0 -575.35 160.15 -569.65 160.1 -569.6 M130.3 -594.15 L130.9 -593.65 130.75 -593.15 130.2 -593.0 Q129.65 -593.0 129.3 -593.5 L129.1 -594.05 129.1 -594.4 129.25 -594.6 130.3 -594.15 M157.35 -594.5 Q157.95 -594.3 158.25 -593.95 L157.65 -593.75 156.45 -593.75 156.25 -594.35 157.35 -594.5 M151.5 -594.85 L150.7 -594.6 Q149.85 -594.6 149.65 -594.95 150.45 -595.8 151.25 -595.5 L151.5 -594.85 M151.65 -553.1 Q151.65 -553.55 152.45 -554.15 153.15 -554.7 153.7 -554.7 L153.75 -554.6 Q153.2 -554.5 152.95 -553.8 152.65 -553.0 152.05 -552.65 L151.7 -552.7 151.65 -553.1 M304.5 -533.0 L304.55 -533.0 304.85 -533.0 304.95 -531.2 305.2 -525.4 Q307.95 -512.85 307.95 -502.0 L310.4 -474.65 310.15 -473.25 308.9 -472.85 307.95 -473.2 306.75 -480.0 306.85 -479.9 306.45 -480.6 306.6 -480.85 306.25 -482.85 306.2 -483.5 304.25 -513.2 304.2 -514.1 304.0 -517.8 303.75 -521.9 304.15 -522.65 303.9 -523.4 303.65 -523.4 303.05 -532.9 303.3 -532.9 304.5 -533.0 M315.85 -541.3 L315.95 -539.65 315.75 -539.95 315.9 -540.15 315.85 -541.3 M164.8 -592.95 L165.5 -592.0 Q165.3 -591.75 164.8 -591.75 L164.1 -592.45 Q164.35 -593.15 164.8 -592.95" fill="#eeeca2" fill-rule="evenodd" stroke="none"/>
    <path d="M368.85 -624.95 L366.95 -624.65 359.8 -623.65 358.1 -623.55 357.05 -620.05 356.1 -616.95 354.15 -610.55 353.55 -608.6 353.35 -607.95 352.9 -606.35 352.85 -606.15 352.6 -605.25 353.1 -606.2 353.95 -607.55 354.05 -607.7 354.95 -608.9 355.05 -609.05 357.65 -611.9 Q362.1 -616.2 368.85 -619.45 383.65 -626.65 387.8 -628.45 L377.3 -626.55 370.2 -625.15 369.55 -625.05 368.9 -625.0 368.85 -624.95 M353.25 -576.05 L351.15 -577.65 350.85 -578.0 350.65 -578.2 Q348.1 -581.0 348.2 -583.05 L348.2 -583.6 348.15 -583.9 Q347.85 -585.95 347.9 -587.45 347.95 -588.25 349.9 -596.15 L349.9 -596.2 350.35 -598.1 350.5 -598.4 Q351.05 -599.65 351.15 -602.15 L351.7 -603.45 352.6 -606.65 352.75 -607.15 353.05 -608.2 353.3 -609.0 354.0 -612.0 355.1 -617.0 355.35 -618.05 356.45 -621.9 356.85 -623.45 355.05 -623.3 344.3 -622.35 338.55 -621.65 337.95 -620.3 336.75 -617.4 336.75 -617.1 338.6 -617.0 348.5 -618.0 349.35 -618.15 349.9 -618.25 351.25 -617.95 351.35 -617.75 351.45 -616.85 351.0 -615.45 350.55 -613.8 350.0 -611.95 349.25 -609.25 348.35 -606.05 347.5 -603.0 347.25 -602.15 346.85 -600.6 Q343.5 -588.25 343.25 -582.8 L341.9 -574.35 Q340.5 -566.1 340.35 -564.2 L339.9 -564.15 339.9 -563.95 350.05 -564.5 353.9 -564.7 355.2 -564.8 355.25 -564.8 358.3 -565.75 359.9 -566.3 360.45 -566.5 362.35 -567.15 369.25 -569.55 370.7 -570.15 371.85 -570.75 Q373.0 -571.5 373.85 -572.5 L375.1 -574.4 375.6 -575.5 375.85 -576.3 377.0 -580.6 Q375.8 -580.45 374.35 -579.4 L374.0 -579.1 372.9 -578.2 371.5 -577.15 371.35 -577.05 Q369.6 -575.9 367.45 -575.2 L365.8 -574.75 360.35 -574.2 Q356.25 -574.2 353.25 -576.05 M204.6 -533.35 L198.95 -532.75 198.75 -533.15 195.8 -533.45 Q185.95 -534.7 180.8 -539.8 178.5 -542.05 177.1 -545.1 L176.5 -546.5 175.95 -547.35 164.25 -546.05 161.7 -545.65 159.0 -545.55 155.6 -545.7 155.55 -545.7 155.4 -545.75 153.4 -545.6 152.85 -545.6 Q143.8 -545.6 138.3 -549.05 136.35 -550.35 134.8 -552.0 131.25 -556.05 131.4 -559.65 L131.45 -561.85 Q131.85 -563.35 133.7 -563.35 134.4 -563.35 137.75 -560.7 L138.3 -560.25 Q141.4 -558.05 144.75 -558.05 151.9 -558.05 155.75 -563.65 158.2 -567.35 158.4 -570.8 158.4 -571.65 155.9 -575.3 L155.85 -575.4 Q153.1 -577.65 147.75 -579.85 L138.35 -583.55 138.3 -583.55 Q132.7 -585.8 129.6 -587.8 119.45 -594.2 117.4 -597.15 115.35 -600.1 115.7 -607.75 115.95 -613.5 117.6 -614.75 121.2 -609.85 123.55 -607.9 129.85 -602.7 138.3 -601.95 L139.45 -601.9 141.4 -602.0 143.6 -601.95 144.6 -602.0 147.95 -602.3 155.55 -602.4 Q160.05 -602.05 164.2 -602.5 L169.25 -603.45 179.45 -603.85 179.9 -603.9 188.8 -605.2 189.0 -605.45 191.65 -605.45 193.3 -605.75 195.8 -605.95 198.1 -606.25 214.7 -607.95 228.85 -609.65 237.2 -610.6 249.65 -613.2 251.75 -613.35 319.45 -621.2 325.9 -621.95 326.0 -622.0 335.25 -623.25 Q337.45 -623.25 339.05 -623.8 L339.05 -623.75 349.3 -625.05 380.25 -629.1 Q390.9 -630.8 397.0 -632.75 401.05 -634.05 407.3 -637.05 414.65 -640.55 415.4 -641.0 L418.45 -643.0 Q420.4 -644.55 421.6 -646.4 L424.15 -651.2 425.4 -653.7 426.05 -654.65 Q426.5 -656.85 427.35 -657.6 L427.35 -657.75 427.5 -657.7 427.65 -657.8 Q427.65 -658.65 427.75 -658.4 L428.95 -657.9 Q430.15 -658.45 430.35 -654.75 L430.4 -654.45 430.7 -652.8 431.15 -650.4 Q431.15 -637.75 430.95 -633.9 430.4 -624.3 428.25 -617.25 426.6 -612.0 424.15 -606.9 L421.5 -601.8 Q420.1 -600.6 418.45 -598.2 L418.0 -597.55 417.2 -596.3 416.5 -595.6 Q412.9 -590.1 411.9 -588.95 408.2 -584.65 408.2 -576.6 408.2 -574.15 410.8 -571.0 413.7 -567.5 418.45 -566.5 L422.6 -566.1 424.15 -566.15 428.25 -566.8 Q428.6 -567.1 429.3 -567.4 L431.65 -569.0 433.4 -571.3 Q434.45 -572.3 435.45 -571.55 L435.6 -571.25 435.65 -570.3 Q435.65 -565.95 431.35 -562.1 429.5 -560.35 424.15 -557.0 422.75 -556.05 421.05 -555.05 420.1 -554.45 418.45 -553.75 415.5 -552.65 410.3 -551.3 L406.15 -551.3 406.15 -551.2 387.5 -549.05 386.8 -553.75 387.1 -553.3 385.4 -561.5 377.0 -574.45 375.75 -572.1 374.75 -570.85 372.75 -569.0 372.3 -568.65 371.85 -568.3 370.6 -567.5 Q368.85 -566.4 366.7 -565.6 L365.5 -565.2 366.1 -565.0 357.8 -563.65 357.15 -563.55 349.95 -562.65 337.35 -561.55 329.1 -561.35 326.1 -561.3 326.05 -561.3 324.15 -561.1 322.35 -560.95 319.45 -560.65 319.25 -560.6 316.0 -560.3 314.65 -560.2 310.5 -559.8 303.5 -559.15 301.05 -558.95 299.45 -558.8 295.85 -558.45 294.7 -558.35 272.6 -556.3 270.8 -556.1 271.45 -554.1 272.85 -549.3 273.0 -547.75 273.75 -541.2 274.95 -533.7 275.15 -531.55 275.2 -530.75 275.35 -529.5 Q276.15 -522.25 276.15 -517.8 L276.15 -517.4 276.05 -516.95 276.7 -514.55 276.7 -514.5 276.9 -511.9 277.1 -510.0 Q278.05 -506.9 279.55 -504.15 L281.25 -501.95 Q282.25 -500.7 282.2 -500.25 L281.6 -499.1 281.45 -498.95 281.45 -498.9 Q280.45 -497.65 279.5 -497.6 L277.7 -498.0 Q275.7 -498.45 270.95 -497.9 L261.75 -497.1 256.25 -496.6 255.25 -496.55 253.35 -496.4 252.5 -496.35 247.1 -496.0 237.85 -495.45 Q233.1 -495.35 231.05 -494.6 229.8 -493.9 229.25 -493.9 L228.85 -493.9 Q228.1 -494.05 227.45 -495.0 226.7 -495.85 226.7 -496.2 L227.35 -497.5 227.7 -498.0 228.85 -499.55 229.45 -500.45 Q231.15 -503.45 232.25 -506.75 L232.45 -508.65 232.85 -511.25 232.85 -511.3 233.55 -513.8 233.5 -514.3 233.7 -517.8 Q234.0 -521.5 234.8 -526.55 L235.1 -528.55 235.15 -528.75 235.2 -529.05 235.2 -529.1 235.3 -529.75 235.4 -530.8 235.5 -531.1 236.55 -536.5 236.65 -537.2 236.65 -537.35 236.65 -537.4 236.85 -538.5 237.7 -543.65 237.75 -543.75 237.85 -544.55 237.85 -544.9 238.15 -546.75 239.75 -551.75 240.25 -553.15 237.9 -552.95 237.4 -552.9 228.1 -551.95 225.85 -551.75 223.55 -551.5 219.0 -551.05 218.8 -551.0 217.15 -550.8 215.85 -550.65 214.5 -550.55 212.7 -550.45 211.8 -550.4 209.25 -550.15 207.15 -549.95 204.6 -533.35 M376.9 -455.4 L376.1 -455.4 Q373.35 -460.0 368.75 -463.75 366.3 -465.0 363.2 -465.65 L357.85 -466.0 Q351.55 -463.05 350.5 -455.9 L350.45 -455.4 349.9 -455.4 350.35 -458.0 350.75 -460.05 Q351.45 -461.45 353.45 -464.15 354.1 -464.95 355.2 -465.35 354.4 -465.1 353.9 -464.65 L353.75 -464.65 354.1 -465.3 357.2 -466.45 357.8 -466.45 360.4 -466.85 359.1 -466.45 362.45 -466.55 362.4 -466.65 363.95 -466.3 363.95 -466.2 367.5 -464.7 365.9 -465.8 368.75 -464.15 369.45 -463.8 372.8 -461.25 373.4 -460.35 373.2 -460.6 371.9 -461.65 373.75 -459.75 376.9 -455.4 M370.75 -455.4 L370.05 -455.4 368.45 -456.8 368.1 -457.0 367.6 -457.6 365.35 -458.6 365.35 -457.0 365.45 -455.4 364.7 -455.4 364.7 -458.05 364.9 -458.9 364.15 -458.9 363.0 -459.05 363.75 -456.7 363.95 -455.4 363.05 -455.4 Q362.55 -457.7 361.85 -459.1 359.8 -458.75 358.0 -457.1 L358.0 -457.05 356.85 -455.4 355.65 -455.4 356.25 -457.1 356.4 -457.5 357.3 -457.95 Q358.0 -459.1 358.8 -459.65 359.95 -460.5 361.55 -460.5 L361.45 -460.7 361.8 -460.7 Q362.0 -460.8 362.15 -460.5 363.4 -460.6 365.25 -459.8 L365.3 -459.7 365.5 -459.75 365.55 -459.7 365.5 -459.6 366.55 -459.2 366.5 -459.35 368.25 -458.1 368.45 -458.15 369.3 -457.25 Q369.35 -457.2 369.5 -457.1 L369.5 -457.0 370.75 -455.4 M275.55 -455.4 L272.9 -455.4 272.3 -456.3 Q270.25 -458.25 267.85 -459.9 264.7 -462.05 261.75 -463.4 259.8 -464.15 257.55 -464.55 L253.5 -464.65 252.25 -461.75 251.95 -459.15 251.4 -456.45 251.45 -455.4 250.15 -455.4 250.15 -457.4 250.15 -457.75 251.0 -460.85 251.55 -464.75 251.5 -465.4 251.4 -465.55 249.9 -465.3 249.25 -465.45 Q247.8 -465.35 247.8 -463.65 L248.2 -461.1 248.55 -459.3 248.45 -455.4 247.5 -455.4 247.6 -456.05 247.2 -458.6 247.05 -461.1 245.85 -463.75 242.05 -462.7 Q239.9 -461.8 238.05 -460.7 235.3 -458.9 232.45 -456.25 L231.55 -455.4 228.75 -455.4 228.85 -455.5 229.7 -456.5 229.85 -456.75 Q231.55 -458.95 235.2 -461.25 L237.75 -462.8 238.15 -463.05 239.4 -463.65 239.9 -463.85 240.6 -464.15 246.6 -466.35 246.85 -466.45 247.95 -466.55 248.45 -466.9 249.75 -466.85 251.05 -467.25 251.6 -467.05 252.7 -467.2 Q261.0 -466.6 265.05 -464.65 269.0 -463.15 270.8 -461.05 L270.95 -460.85 273.25 -458.75 275.55 -455.4 M326.15 -619.7 L325.75 -619.7 319.45 -618.95 263.7 -612.5 262.75 -612.45 248.2 -610.75 228.85 -607.85 208.35 -605.15 197.95 -603.8 195.8 -603.55 190.3 -602.95 190.15 -602.55 Q189.3 -600.75 188.75 -598.9 L193.05 -599.65 195.8 -600.15 197.8 -600.35 202.35 -600.5 208.15 -600.8 214.95 -600.9 228.85 -602.8 250.5 -605.9 Q268.75 -608.55 291.15 -610.1 L319.45 -613.9 319.7 -613.95 334.85 -616.0 334.6 -616.2 334.15 -616.15 Q334.3 -617.45 335.05 -619.7 L335.6 -621.25 326.15 -619.7 M342.65 -616.65 L337.95 -615.85 319.45 -613.05 315.9 -612.55 312.2 -612.0 310.2 -611.75 304.55 -610.95 Q285.65 -608.45 275.85 -608.15 L270.85 -608.0 228.85 -602.0 214.7 -600.0 202.0 -599.6 197.8 -599.2 195.8 -598.95 192.25 -598.5 188.5 -598.0 188.35 -597.5 Q184.45 -597.85 181.1 -596.1 L178.8 -594.2 176.2 -590.85 Q175.5 -589.9 174.55 -589.5 L174.5 -589.45 175.95 -589.7 182.15 -589.7 188.7 -591.0 195.8 -591.75 197.45 -591.9 198.45 -591.95 210.05 -594.1 218.85 -594.25 222.45 -594.85 224.25 -595.1 228.85 -595.75 Q248.8 -598.55 285.65 -602.35 L296.35 -603.45 297.85 -603.6 311.1 -605.1 312.2 -605.25 319.45 -606.15 343.4 -609.75 347.75 -610.6 347.9 -610.4 347.9 -610.55 347.9 -610.6 348.15 -611.5 348.15 -611.7 Q348.25 -613.3 349.1 -615.5 L348.5 -615.45 348.35 -616.1 Q348.2 -616.35 348.2 -616.5 L343.95 -616.65 342.65 -616.65 M337.15 -616.3 L339.4 -616.6 338.4 -616.55 337.25 -616.45 337.1 -616.4 337.15 -616.3 M337.1 -596.8 L319.45 -594.5 317.55 -594.3 313.45 -593.8 312.65 -593.7 298.35 -592.35 297.05 -592.25 291.8 -591.95 286.15 -591.8 258.8 -587.85 240.15 -585.05 228.85 -583.9 222.85 -583.35 220.25 -583.1 213.2 -582.45 211.8 -582.35 211.75 -582.35 197.0 -580.8 195.8 -580.65 188.9 -579.75 180.55 -579.65 176.3 -579.15 174.4 -578.95 170.6 -574.85 167.7 -572.05 167.45 -571.3 168.9 -571.55 169.3 -571.6 171.15 -571.8 171.55 -571.85 173.95 -572.1 180.05 -572.2 188.5 -572.6 194.75 -572.95 199.6 -573.1 210.45 -574.15 212.15 -574.3 219.7 -575.0 221.75 -575.2 228.85 -575.9 234.8 -576.5 273.4 -580.45 Q284.3 -582.05 295.25 -584.45 L297.65 -584.85 298.85 -585.0 313.15 -586.65 314.1 -586.7 319.45 -587.2 332.1 -588.2 333.4 -588.3 338.55 -588.3 341.25 -589.1 Q342.1 -589.35 343.4 -588.7 L344.0 -591.55 345.3 -597.95 342.75 -597.6 337.1 -596.8 M343.9 -598.95 L344.65 -599.05 345.4 -598.7 345.4 -598.6 345.95 -601.3 346.3 -602.9 347.15 -606.9 347.65 -609.3 344.25 -608.75 319.45 -605.4 312.3 -604.5 311.2 -604.4 297.85 -602.9 296.4 -602.7 292.05 -602.25 228.85 -594.75 224.15 -594.15 222.2 -593.9 218.85 -593.45 210.0 -593.4 197.45 -591.35 195.8 -591.1 195.75 -591.1 182.1 -588.95 178.8 -588.95 171.1 -580.4 170.85 -579.75 176.55 -580.2 180.95 -580.55 189.2 -580.7 195.8 -581.35 197.0 -581.5 211.8 -582.85 212.4 -582.9 213.25 -582.95 220.3 -583.65 222.95 -583.9 228.85 -584.5 240.6 -586.05 259.05 -589.0 286.55 -592.7 291.95 -592.85 297.0 -593.2 298.3 -593.3 312.5 -594.75 313.35 -594.85 319.0 -595.55 319.45 -595.6 337.4 -597.95 337.85 -598.0 343.6 -598.85 343.9 -598.95 M397.9 -631.1 L395.15 -630.3 394.5 -630.1 388.95 -627.95 Q377.7 -623.65 369.05 -618.9 364.5 -616.4 361.05 -613.9 L359.15 -612.4 Q356.35 -610.15 355.35 -608.45 L355.3 -608.35 353.85 -605.55 352.45 -602.8 352.2 -602.3 351.5 -601.0 350.8 -598.0 350.8 -597.9 350.55 -596.85 350.3 -595.9 350.25 -595.7 Q348.6 -588.95 348.55 -587.75 L348.6 -586.6 Q349.35 -590.3 351.35 -593.7 L351.5 -593.95 352.8 -595.95 Q354.15 -597.85 355.85 -599.6 L357.45 -601.2 359.0 -602.55 360.85 -604.05 Q362.9 -605.7 365.95 -607.55 373.6 -612.25 387.35 -618.65 L394.15 -621.95 396.3 -623.0 Q408.35 -629.1 413.75 -633.25 L418.45 -637.35 Q421.65 -640.7 423.6 -644.25 L420.4 -641.4 418.45 -639.9 416.95 -638.9 Q411.85 -635.6 405.5 -633.5 L397.9 -631.1 M372.3 -579.15 L373.5 -579.9 372.55 -581.45 359.7 -601.4 358.4 -600.35 356.65 -598.75 354.9 -596.9 353.5 -595.15 352.15 -593.1 351.2 -591.2 350.3 -588.65 Q349.9 -586.95 349.85 -585.25 349.75 -582.7 350.75 -580.85 352.95 -576.95 360.35 -576.3 L363.0 -576.2 363.55 -576.2 364.8 -576.25 366.6 -576.55 369.1 -577.4 Q369.95 -577.75 370.75 -578.2 L371.7 -578.75 372.3 -579.15 M338.55 -587.3 L333.35 -587.35 331.45 -587.2 319.45 -586.45 314.1 -586.0 313.15 -585.95 298.9 -584.5 297.7 -584.35 293.6 -583.75 Q282.25 -581.25 272.85 -579.7 L239.35 -576.3 228.85 -575.25 221.65 -574.5 219.65 -574.3 212.0 -573.55 210.25 -573.35 199.4 -572.2 194.4 -572.1 180.05 -571.6 173.75 -571.45 171.2 -570.8 168.1 -567.05 163.5 -561.6 163.2 -560.85 163.15 -560.75 164.85 -560.95 172.0 -561.05 174.45 -561.2 176.75 -561.55 184.95 -561.65 190.6 -562.3 195.8 -562.85 196.2 -562.9 200.35 -563.35 208.05 -564.2 211.2 -564.55 212.95 -564.75 218.95 -565.35 220.45 -565.5 228.85 -566.4 242.9 -567.85 293.85 -573.0 300.6 -573.15 310.95 -574.15 312.15 -574.3 313.5 -574.5 314.3 -574.6 315.9 -574.8 321.0 -574.9 322.45 -575.1 323.2 -575.15 325.05 -575.25 326.45 -575.35 334.6 -575.55 337.7 -576.6 341.15 -577.35 343.25 -588.05 342.25 -587.7 338.55 -587.3 M324.25 -574.35 L323.0 -574.3 321.75 -574.2 320.8 -574.1 315.7 -573.9 314.35 -573.8 313.55 -573.75 312.4 -573.65 310.85 -573.5 307.75 -573.1 300.35 -572.25 293.45 -572.15 245.75 -567.4 240.85 -567.3 228.85 -565.95 220.35 -564.95 218.9 -564.8 214.85 -564.35 213.0 -564.1 211.15 -563.9 208.05 -563.55 204.65 -563.15 196.15 -562.2 195.8 -562.15 186.4 -561.05 184.75 -560.9 176.4 -560.8 171.95 -560.4 167.55 -560.3 164.1 -555.9 Q160.75 -551.7 158.5 -549.5 L158.45 -549.4 158.05 -548.4 159.95 -548.55 161.8 -548.7 167.8 -549.35 168.25 -549.25 174.9 -549.9 195.7 -551.7 195.8 -551.7 207.6 -552.65 209.65 -552.85 210.75 -552.95 212.9 -553.1 217.4 -553.45 219.0 -553.55 227.65 -554.2 228.85 -554.3 230.05 -554.4 238.55 -555.0 241.45 -555.2 242.35 -555.25 243.5 -555.3 243.9 -555.35 250.05 -556.65 251.55 -556.7 252.15 -556.7 260.0 -557.5 266.35 -558.1 268.1 -558.25 269.05 -558.35 271.2 -558.55 299.85 -561.2 300.8 -561.3 310.15 -562.1 314.5 -562.5 316.15 -562.65 318.45 -562.85 319.45 -562.95 323.95 -563.4 325.85 -563.55 326.35 -563.6 337.35 -563.85 337.55 -563.85 337.55 -564.0 337.95 -565.05 338.1 -566.0 339.15 -570.5 Q339.6 -571.35 340.2 -571.85 L340.9 -575.9 338.75 -575.2 334.6 -574.5 326.4 -574.5 324.25 -574.35 M372.25 -529.0 L372.35 -528.85 Q372.25 -528.55 372.45 -528.2 L373.8 -522.65 373.9 -522.35 374.75 -518.15 374.8 -517.8 375.75 -512.95 376.25 -509.9 376.75 -506.35 376.8 -505.9 376.85 -505.35 377.65 -502.85 377.65 -502.8 378.2 -500.15 378.5 -498.25 Q379.65 -494.85 381.4 -491.55 L383.0 -489.0 383.4 -488.3 384.0 -486.95 383.6 -485.9 Q382.95 -484.85 382.2 -485.05 L380.65 -485.95 Q378.9 -487.0 375.0 -487.75 374.9 -487.65 367.35 -489.5 L362.8 -490.55 362.15 -490.65 360.5 -491.2 359.65 -491.3 359.6 -491.4 355.0 -492.6 347.0 -494.85 Q342.75 -496.1 341.1 -495.9 L339.55 -495.55 Q338.7 -495.75 337.85 -497.3 L337.75 -497.35 337.6 -497.55 Q336.95 -498.5 337.0 -498.85 336.95 -499.4 337.75 -500.4 L339.0 -502.55 340.3 -506.35 340.75 -508.1 340.75 -509.95 340.7 -512.55 340.7 -512.6 341.05 -515.0 341.0 -515.5 340.8 -517.8 Q340.5 -521.9 340.7 -527.55 L340.65 -531.65 341.0 -536.95 341.1 -539.0 341.25 -545.4 341.25 -546.85 342.05 -551.3 342.45 -553.2 345.05 -556.8 Q345.75 -557.5 346.8 -557.75 L345.55 -557.25 345.4 -557.25 345.8 -557.8 348.65 -558.55 349.3 -558.5 351.7 -558.7 350.55 -558.35 353.7 -558.2 353.7 -558.3 355.15 -557.8 355.15 -557.75 358.45 -556.0 357.0 -557.2 359.65 -555.4 360.35 -554.95 363.45 -552.3 364.05 -551.35 363.8 -551.65 362.6 -552.7 364.4 -550.75 367.8 -545.6 368.45 -543.4 370.25 -538.35 370.65 -536.45 370.65 -536.15 370.85 -535.35 370.95 -535.2 371.15 -534.15 372.0 -530.05 372.25 -529.0 M342.0 -547.1 L341.9 -546.05 Q341.7 -545.1 341.65 -543.75 L341.35 -536.9 341.6 -530.9 Q341.5 -527.6 341.7 -522.15 L341.45 -517.8 341.25 -513.8 340.75 -506.35 340.7 -505.3 340.65 -505.0 340.5 -504.3 340.25 -503.25 339.25 -501.3 337.95 -498.7 338.45 -497.65 338.7 -497.35 339.0 -496.9 342.05 -496.45 344.65 -496.15 377.1 -488.0 382.45 -486.05 382.85 -486.5 383.15 -487.25 381.35 -490.6 380.05 -493.0 379.5 -494.25 379.25 -495.05 379.15 -495.35 376.9 -504.4 376.4 -506.35 375.85 -508.45 374.8 -512.65 374.7 -513.05 373.9 -517.8 373.2 -521.95 Q372.15 -528.45 370.7 -534.15 L370.55 -535.25 370.2 -536.35 369.55 -538.95 368.75 -541.4 Q366.3 -548.95 359.65 -555.0 357.35 -556.4 354.4 -557.3 351.55 -558.2 349.35 -558.1 343.25 -555.95 342.15 -549.35 L342.0 -547.1 M352.7 -552.65 L352.65 -552.85 353.0 -552.8 353.3 -552.6 Q354.5 -552.6 356.25 -551.65 L356.35 -551.55 356.45 -551.55 356.55 -551.5 356.45 -551.4 357.5 -550.9 357.45 -551.05 359.1 -549.8 359.3 -549.8 360.1 -548.85 360.3 -548.7 360.3 -548.6 Q363.4 -544.65 365.85 -539.05 L366.1 -538.35 366.3 -537.85 366.7 -536.85 367.35 -534.5 368.2 -531.2 368.25 -530.7 368.55 -529.8 368.7 -528.85 369.0 -527.7 369.0 -527.35 369.95 -522.55 370.85 -517.8 371.75 -513.85 371.7 -513.65 372.0 -512.85 372.2 -511.7 372.35 -511.15 372.3 -511.05 373.0 -507.65 373.25 -506.35 375.15 -496.0 375.35 -495.75 375.6 -494.55 375.65 -493.0 371.75 -493.9 361.15 -496.45 361.05 -496.7 360.35 -496.95 360.1 -496.95 360.2 -496.7 349.25 -499.65 345.15 -500.85 Q344.85 -501.6 344.8 -502.5 344.75 -503.25 344.85 -503.65 L345.05 -503.85 345.0 -506.35 344.9 -515.15 344.95 -517.8 345.0 -518.4 344.85 -518.65 344.85 -519.15 344.85 -520.3 344.95 -521.0 344.95 -521.15 345.0 -527.65 345.0 -528.15 345.05 -529.55 345.05 -534.25 345.05 -534.55 345.05 -535.6 345.1 -536.45 345.1 -536.55 345.1 -537.3 345.1 -537.85 Q345.2 -540.9 345.55 -543.1 L345.85 -545.3 345.85 -545.35 345.95 -545.5 347.6 -549.95 347.8 -550.35 348.7 -550.6 Q349.35 -551.65 350.1 -552.1 351.2 -552.8 352.7 -552.65 M349.35 -549.75 Q347.6 -548.2 346.75 -543.8 346.25 -541.65 346.0 -538.55 348.5 -537.7 350.6 -536.1 353.4 -534.05 355.4 -530.4 L356.2 -528.85 355.35 -538.4 355.2 -538.95 355.0 -541.95 Q354.3 -548.45 353.05 -551.25 351.1 -551.15 349.35 -549.8 L349.35 -549.75 M355.25 -550.85 L354.1 -551.1 354.75 -548.85 355.25 -544.25 355.3 -543.95 355.3 -543.7 360.0 -498.05 359.95 -498.05 360.05 -498.0 361.0 -497.8 361.0 -497.85 360.95 -497.9 356.25 -544.05 355.75 -547.2 355.7 -550.05 355.9 -550.75 355.25 -550.85 M359.4 -549.25 L359.1 -549.4 359.35 -549.2 359.4 -549.25 M359.2 -548.45 L358.95 -548.75 358.45 -549.35 356.35 -550.55 Q356.25 -549.95 356.3 -549.05 L356.65 -543.8 Q357.15 -539.05 357.6 -536.6 L358.6 -528.15 Q358.6 -528.45 358.75 -528.6 L359.15 -529.3 Q361.35 -533.75 367.15 -532.35 L366.5 -534.55 365.3 -538.35 Q362.55 -545.9 359.2 -548.45 M345.45 -537.1 Q345.2 -537.25 345.35 -536.9 L345.4 -536.6 345.4 -536.2 Q352.3 -534.05 354.45 -529.95 L355.65 -526.55 Q356.25 -524.15 356.95 -523.15 357.2 -522.55 357.15 -523.4 356.85 -526.3 355.25 -529.85 352.95 -535.0 349.6 -536.2 L349.15 -536.35 Q345.8 -537.45 345.45 -537.1 M345.7 -533.35 L345.7 -528.05 345.7 -524.0 345.8 -522.8 346.6 -523.5 346.85 -523.55 349.55 -523.75 Q351.25 -524.15 353.8 -520.6 L356.05 -517.8 356.35 -517.3 357.4 -514.85 356.95 -519.45 356.85 -520.05 355.6 -525.3 Q353.35 -533.3 348.35 -534.65 347.2 -535.05 346.4 -534.05 L345.7 -533.35 M346.0 -522.5 Q345.05 -521.75 345.3 -520.35 346.6 -520.45 347.35 -521.0 L348.15 -521.75 Q349.45 -521.65 351.7 -520.95 352.95 -520.65 354.45 -517.8 L355.5 -515.7 357.55 -510.4 358.0 -510.65 358.0 -511.1 Q357.8 -512.65 357.0 -514.85 L355.6 -517.8 354.5 -519.55 Q351.8 -523.25 348.7 -522.55 L348.95 -523.1 Q347.0 -523.6 346.0 -522.5 M359.0 -522.55 L359.6 -525.4 Q359.8 -527.5 360.2 -528.35 361.4 -531.45 368.2 -529.65 L368.15 -530.4 367.95 -530.7 Q367.5 -531.15 364.5 -531.9 360.7 -533.05 359.35 -528.75 358.45 -525.9 358.8 -522.9 358.85 -522.05 359.0 -522.55 M341.15 -523.9 L341.15 -519.5 341.25 -522.35 341.15 -523.9 M362.25 -517.8 L362.8 -518.15 Q364.7 -520.35 366.45 -519.1 367.6 -518.8 368.8 -517.8 L370.25 -517.8 369.6 -521.35 368.45 -526.85 367.75 -528.0 Q366.6 -529.45 365.55 -529.75 360.4 -531.2 359.85 -524.15 L359.65 -519.35 359.75 -518.7 360.15 -514.35 360.2 -514.15 360.2 -514.3 360.9 -516.15 Q361.35 -517.15 362.25 -517.8 M362.25 -517.45 Q361.1 -516.3 360.6 -513.9 360.15 -512.15 360.4 -510.4 L360.45 -510.0 360.5 -509.95 361.05 -509.55 Q361.35 -512.05 362.1 -513.85 363.15 -517.9 364.9 -517.35 L368.35 -516.25 369.45 -514.9 371.55 -513.1 Q371.5 -514.5 370.35 -515.85 369.25 -517.15 367.8 -517.8 L367.3 -518.0 367.35 -517.8 367.6 -517.35 366.9 -517.8 Q364.35 -519.3 362.6 -517.8 L362.25 -517.45 M357.25 -509.45 L357.2 -509.65 357.1 -509.8 357.1 -509.85 356.9 -510.4 Q355.4 -515.3 353.6 -517.8 352.15 -519.85 350.45 -520.3 347.4 -521.3 346.6 -519.75 L346.05 -518.7 345.65 -517.85 345.65 -517.8 345.6 -506.35 345.55 -503.8 345.6 -502.1 346.8 -501.25 349.1 -500.8 358.5 -498.55 358.6 -498.45 359.35 -498.25 359.0 -498.45 358.4 -505.15 358.15 -506.35 357.25 -509.45 M361.3 -506.35 L361.15 -504.4 361.95 -497.8 361.6 -497.75 362.45 -497.45 371.6 -495.1 Q374.45 -493.8 375.0 -494.5 L372.6 -506.35 371.65 -510.85 371.15 -511.85 370.25 -513.3 Q369.2 -515.3 366.3 -515.95 362.7 -517.0 361.65 -509.1 L361.3 -506.35 M375.3 -512.7 L374.9 -514.6 375.15 -513.1 375.25 -512.7 375.8 -510.05 375.3 -512.7 M368.5 -457.55 L368.6 -457.6 368.25 -457.7 368.5 -457.55 M164.35 -600.3 L164.1 -600.3 162.55 -600.15 147.55 -599.45 140.95 -599.8 140.85 -599.9 138.35 -599.9 138.3 -599.9 Q132.9 -599.9 128.4 -602.25 131.0 -598.8 136.2 -596.1 L138.3 -595.05 Q141.6 -593.55 148.15 -591.0 155.55 -588.1 158.55 -585.85 162.95 -582.55 162.75 -578.0 L162.7 -577.7 162.7 -577.6 163.9 -580.9 Q165.45 -584.15 168.15 -591.95 L171.55 -600.95 164.35 -600.3 M173.25 -601.1 L172.25 -601.0 169.05 -591.85 164.3 -579.95 Q163.55 -578.45 162.75 -575.8 L162.75 -575.65 162.7 -575.6 162.35 -574.55 160.55 -569.0 159.1 -566.0 159.0 -565.65 156.75 -562.0 Q152.3 -556.05 144.45 -556.05 141.6 -556.05 138.3 -557.8 137.65 -558.15 136.95 -558.6 133.5 -561.25 133.05 -561.35 132.85 -560.95 132.8 -559.7 132.6 -555.9 137.55 -552.45 L138.3 -551.95 Q144.2 -548.15 153.8 -548.15 L154.05 -548.15 157.25 -548.3 157.2 -548.85 161.2 -558.7 161.15 -558.7 161.35 -559.25 162.0 -560.75 162.0 -561.05 162.05 -561.15 162.15 -561.25 162.4 -561.8 162.55 -562.15 162.65 -562.35 165.8 -570.2 Q165.5 -570.3 165.45 -570.45 L166.1 -570.8 166.75 -572.45 173.35 -588.7 173.35 -588.95 173.55 -589.6 173.75 -590.0 173.85 -589.85 176.9 -597.1 Q181.05 -597.3 183.75 -598.15 184.7 -598.45 185.5 -598.85 187.65 -600.0 188.15 -601.85 L188.35 -602.7 173.25 -601.1 M125.4 -604.05 L124.15 -605.1 Q120.9 -607.85 117.6 -611.8 L117.3 -607.65 Q116.95 -599.75 123.5 -594.3 126.95 -591.45 133.7 -588.5 L138.1 -586.65 138.3 -586.55 138.55 -586.5 142.05 -585.1 143.1 -584.7 143.15 -584.7 Q150.75 -581.7 152.8 -580.55 156.6 -578.4 158.15 -575.75 160.35 -573.35 160.2 -571.15 L160.05 -569.5 160.1 -569.6 160.15 -569.65 162.0 -575.35 162.15 -575.85 Q162.0 -576.4 162.1 -577.2 L162.0 -579.0 162.15 -578.95 Q161.75 -582.4 157.7 -585.35 154.4 -587.7 145.85 -591.2 141.35 -593.0 138.3 -594.35 134.95 -595.9 133.3 -596.85 128.45 -599.75 127.05 -603.0 L126.2 -603.5 125.4 -604.1 125.4 -604.05 M251.55 -554.25 L249.35 -554.0 Q246.4 -551.55 244.4 -545.7 243.45 -543.3 242.7 -539.85 249.75 -540.0 253.0 -535.05 L253.5 -534.15 253.75 -533.75 253.85 -534.6 254.1 -542.25 254.45 -549.6 254.4 -554.55 252.35 -554.3 251.55 -554.25 M242.8 -544.05 L242.85 -544.2 242.85 -544.3 242.85 -544.45 243.1 -545.4 243.3 -545.85 243.6 -546.6 Q245.55 -550.8 248.2 -553.9 L242.2 -553.35 241.1 -553.25 Q240.2 -551.6 239.65 -549.75 L239.05 -547.3 238.4 -544.75 238.15 -543.55 Q236.9 -537.6 236.35 -530.75 L236.35 -530.25 236.15 -528.65 235.35 -521.4 234.7 -517.8 233.65 -512.7 231.85 -503.9 231.75 -503.6 231.55 -502.85 231.05 -501.7 229.65 -499.4 228.85 -498.05 227.75 -496.3 228.25 -495.5 Q228.65 -495.0 228.85 -495.0 L235.3 -496.05 273.55 -498.9 276.6 -498.75 280.0 -498.7 280.45 -499.1 280.6 -499.35 281.1 -500.2 279.35 -503.0 278.05 -505.1 Q277.6 -506.05 277.65 -506.25 L277.45 -506.95 277.3 -507.25 275.95 -515.8 275.6 -517.8 274.55 -524.25 274.15 -530.65 274.0 -532.55 273.95 -533.0 Q273.75 -540.1 272.75 -546.1 L272.2 -548.65 272.0 -549.75 271.5 -552.1 271.4 -552.35 271.35 -552.6 271.3 -552.85 269.6 -556.0 267.55 -555.8 264.1 -555.5 263.15 -555.5 263.05 -555.5 263.6 -554.85 264.65 -554.35 264.85 -553.9 267.3 -549.0 267.45 -548.8 267.45 -548.7 268.05 -546.3 269.1 -540.9 269.2 -540.4 269.3 -539.45 269.45 -538.55 269.55 -537.45 269.55 -537.1 270.0 -532.35 270.0 -532.25 270.2 -530.4 270.85 -523.85 270.9 -523.7 271.05 -522.95 271.2 -521.8 271.25 -521.3 271.05 -521.1 271.45 -517.8 272.45 -506.5 272.6 -506.3 272.8 -505.15 272.6 -503.6 267.8 -503.05 255.05 -502.1 255.05 -502.4 254.8 -502.4 253.95 -502.2 253.95 -502.05 241.3 -501.1 236.5 -500.95 Q236.35 -501.65 236.35 -502.55 L236.55 -503.65 236.75 -503.85 238.15 -515.35 238.55 -517.8 238.7 -518.75 238.55 -518.9 238.7 -519.35 238.8 -520.6 239.05 -521.35 239.1 -521.5 240.15 -529.15 240.3 -530.2 241.0 -535.0 240.95 -535.35 241.2 -536.45 241.3 -537.4 241.5 -538.35 241.5 -538.8 Q242.1 -541.75 242.8 -544.05 M262.8 -554.2 L261.05 -555.35 257.6 -555.05 Q256.85 -552.3 256.75 -547.25 L256.75 -544.25 256.65 -543.65 256.65 -533.9 257.45 -535.4 Q260.95 -540.9 268.0 -541.7 L266.6 -547.35 Q265.05 -552.0 262.8 -554.15 L262.8 -554.2 M255.7 -530.1 L256.1 -549.2 256.15 -549.45 256.15 -549.8 Q256.05 -552.35 256.35 -554.45 L256.4 -554.75 255.2 -554.6 255.3 -552.95 255.0 -549.65 254.6 -530.45 254.0 -503.35 253.9 -503.3 254.0 -503.3 254.0 -503.2 255.1 -503.35 255.2 -503.4 255.1 -503.4 255.7 -530.1 M268.75 -540.2 Q268.3 -540.5 264.5 -540.2 260.05 -539.9 257.7 -534.8 256.5 -532.2 256.15 -529.9 L256.05 -528.5 Q256.05 -527.6 256.3 -528.25 L257.1 -530.05 257.45 -531.4 Q258.0 -533.7 258.65 -534.7 260.8 -538.5 268.9 -539.25 L268.95 -539.9 268.75 -540.2 M269.7 -526.8 L269.4 -530.35 269.35 -531.0 268.8 -536.35 268.0 -537.25 Q266.85 -538.35 265.55 -538.25 259.45 -537.8 257.6 -530.2 L257.55 -530.05 256.7 -525.05 256.6 -524.45 256.55 -519.85 257.65 -522.15 Q258.75 -523.8 260.4 -525.0 263.0 -527.95 265.1 -527.35 266.75 -527.55 268.45 -526.6 L268.65 -526.55 269.65 -525.7 269.8 -525.7 269.7 -526.8 M266.3 -526.0 Q262.5 -527.2 259.6 -524.1 258.0 -522.4 257.05 -519.8 L256.45 -517.8 256.25 -516.15 256.25 -515.7 256.3 -515.7 Q256.45 -515.5 256.85 -515.4 L257.7 -517.8 258.8 -520.3 Q260.9 -524.85 262.9 -525.0 L267.0 -525.05 268.05 -524.1 Q269.0 -523.45 270.55 -523.05 270.65 -524.35 269.45 -525.45 268.1 -526.6 265.95 -526.6 L266.3 -526.0 M271.8 -506.65 L270.5 -517.8 270.25 -520.7 269.8 -521.6 269.05 -522.75 Q267.95 -524.3 264.45 -524.1 260.7 -523.8 258.4 -517.8 L257.6 -515.25 257.45 -514.7 257.45 -514.6 257.4 -514.55 256.4 -510.2 256.25 -504.15 256.25 -503.6 255.85 -503.45 256.8 -503.5 256.9 -503.5 267.85 -504.25 270.6 -504.2 Q271.6 -504.45 271.95 -504.9 271.8 -505.7 271.8 -506.65 M275.05 -525.9 L275.1 -524.35 275.5 -521.5 275.05 -525.9 M252.75 -534.45 Q250.55 -539.2 246.15 -538.8 L241.85 -538.25 241.7 -537.9 241.7 -537.25 Q249.8 -537.65 251.8 -534.2 L252.85 -531.1 253.15 -529.7 253.8 -528.1 Q254.1 -527.45 254.1 -528.35 L254.05 -529.7 Q253.8 -532.0 252.75 -534.45 M253.3 -519.8 L253.4 -524.2 253.3 -524.8 252.6 -529.7 252.6 -529.85 Q251.1 -537.15 245.0 -536.7 243.7 -536.6 242.45 -535.4 L241.7 -534.35 240.95 -529.25 240.9 -528.9 240.2 -523.55 240.35 -523.55 241.6 -524.65 Q243.3 -525.8 245.0 -525.9 247.1 -526.75 249.6 -524.15 251.2 -523.25 252.2 -521.8 L253.25 -519.75 253.3 -519.6 253.3 -519.8 M243.75 -524.3 L244.1 -524.95 Q241.9 -524.6 240.55 -523.3 239.25 -522.0 239.3 -520.75 240.9 -521.4 241.85 -522.1 L243.05 -523.3 247.15 -523.85 Q249.15 -524.0 251.0 -519.75 L251.8 -517.8 252.7 -515.1 Q253.2 -515.25 253.3 -515.45 L253.35 -515.5 253.45 -515.95 253.25 -517.8 252.75 -519.45 Q251.85 -521.95 250.35 -523.45 247.6 -526.1 243.75 -524.3 M252.85 -503.75 L253.05 -509.95 251.95 -514.8 251.0 -517.8 Q249.05 -522.9 245.5 -522.65 242.05 -522.4 240.85 -520.7 L240.05 -519.35 239.5 -518.45 239.4 -517.8 237.15 -502.35 Q237.8 -501.45 241.3 -502.3 L252.25 -503.15 253.25 -503.25 252.85 -503.35 252.85 -503.75 M235.0 -522.95 L234.3 -518.45 234.85 -521.45 235.0 -522.95" fill="#73801c" fill-rule="evenodd" stroke="none"/>
    <path d="M360.8 -619.65 L361.55 -619.95 361.6 -619.95 361.15 -619.15 360.9 -619.0 Q360.65 -618.9 360.2 -619.15 L360.8 -619.65 M146.0 -551.8 Q145.5 -551.85 145.45 -552.0 L145.65 -552.05 146.55 -551.8 146.0 -551.8 M163.8 -586.55 L163.5 -586.05 163.3 -586.1 163.0 -586.3 Q163.2 -586.6 163.8 -586.55" fill="#128951" fill-rule="evenodd" stroke="none"/>
    <path d="M342.65 -616.65 L343.95 -616.65 348.2 -616.5 Q348.2 -616.35 348.35 -616.1 L348.5 -615.45 349.1 -615.5 Q348.25 -613.3 348.15 -611.7 L348.15 -611.5 347.9 -610.6 347.9 -610.55 347.9 -610.4 347.75 -610.6 343.4 -609.75 319.45 -606.15 312.2 -605.25 311.1 -605.1 297.85 -603.6 296.35 -603.45 285.65 -602.35 Q248.8 -598.55 228.85 -595.75 L224.25 -595.1 222.45 -594.85 218.85 -594.25 210.05 -594.1 198.45 -591.95 197.45 -591.9 195.8 -591.75 188.7 -591.0 182.15 -589.7 175.95 -589.7 174.5 -589.45 174.55 -589.5 Q175.5 -589.9 176.2 -590.85 L178.8 -594.2 181.1 -596.1 Q184.45 -597.85 188.35 -597.5 L188.5 -598.0 192.25 -598.5 195.8 -598.95 197.8 -599.2 202.0 -599.6 214.7 -600.0 228.85 -602.0 270.85 -608.0 275.85 -608.15 Q285.65 -608.45 304.55 -610.95 L310.2 -611.75 312.2 -612.0 315.9 -612.55 319.45 -613.05 337.95 -615.85 342.65 -616.65" fill="#ecea93" fill-rule="evenodd" stroke="none"/>
    <path d="M343.9 -598.95 L343.6 -598.85 337.85 -598.0 337.4 -597.95 319.45 -595.6 319.0 -595.55 313.35 -594.85 312.5 -594.75 298.3 -593.3 297.0 -593.2 291.95 -592.85 286.55 -592.7 259.05 -589.0 240.6 -586.05 228.85 -584.5 222.95 -583.9 220.3 -583.65 213.25 -582.95 212.4 -582.9 211.8 -582.85 197.0 -581.5 195.8 -581.35 189.2 -580.7 180.95 -580.55 176.55 -580.2 170.85 -579.75 171.1 -580.4 178.8 -588.95 182.1 -588.95 195.75 -591.1 195.8 -591.1 197.45 -591.35 210.0 -593.4 218.85 -593.45 222.2 -593.9 224.15 -594.15 228.85 -594.75 292.05 -602.25 296.4 -602.7 297.85 -602.9 311.2 -604.4 312.3 -604.5 319.45 -605.4 344.25 -608.75 347.65 -609.3 347.15 -606.9 346.3 -602.9 345.95 -601.3 345.4 -598.6 345.4 -598.7 344.65 -599.05 343.9 -598.95" fill="#e9e783" fill-rule="evenodd" stroke="none"/>
    <path d="M337.1 -596.8 L342.75 -597.6 345.3 -597.95 344.0 -591.55 343.4 -588.7 Q342.1 -589.35 341.25 -589.1 L338.55 -588.3 333.4 -588.3 332.1 -588.2 319.45 -587.2 314.1 -586.7 313.15 -586.65 298.85 -585.0 297.65 -584.85 295.25 -584.45 Q284.3 -582.05 273.4 -580.45 L234.8 -576.5 228.85 -575.9 221.75 -575.2 219.7 -575.0 212.15 -574.3 210.45 -574.15 199.6 -573.1 194.75 -572.95 188.5 -572.6 180.05 -572.2 173.95 -572.1 171.55 -571.85 171.15 -571.8 169.3 -571.6 168.9 -571.55 167.45 -571.3 167.7 -572.05 170.6 -574.85 174.4 -578.95 176.3 -579.15 180.55 -579.65 188.9 -579.75 195.8 -580.65 197.0 -580.8 211.75 -582.35 211.8 -582.35 213.2 -582.45 220.25 -583.1 222.85 -583.35 228.85 -583.9 240.15 -585.05 258.8 -587.85 286.15 -591.8 291.8 -591.95 297.05 -592.25 298.35 -592.35 312.65 -593.7 313.45 -593.8 317.55 -594.3 319.45 -594.5 337.1 -596.8" fill="#e6e275" fill-rule="evenodd" stroke="none"/>
    <path d="M209.25 -550.15 L211.8 -550.4 212.7 -550.45 Q212.25 -545.1 211.35 -540.0 L210.4 -535.55 210.4 -535.45 210.05 -534.1 210.1 -533.9 210.05 -533.65 209.7 -532.05 208.6 -526.45 208.45 -526.0 Q207.0 -525.0 205.45 -524.75 L205.5 -525.05 205.6 -525.6 209.25 -550.15 M215.85 -550.65 L217.15 -550.8 215.4 -533.7 214.5 -525.95 212.65 -525.7 211.6 -525.55 Q211.9 -527.95 213.3 -533.1 215.1 -539.45 215.1 -541.75 215.1 -544.15 215.85 -550.65 M301.05 -558.95 L303.5 -559.15 303.55 -558.55 304.55 -545.85 305.0 -537.35 304.5 -533.0 303.3 -532.9 303.05 -532.9 302.55 -540.6 302.5 -542.0 302.1 -548.75 Q302.1 -551.05 301.5 -555.7 L301.05 -558.95 M310.5 -559.8 L314.65 -560.2 Q315.0 -556.85 315.7 -554.6 L315.7 -542.5 315.85 -541.3 315.9 -540.15 315.75 -539.95 315.95 -539.65 316.0 -539.1 316.25 -535.95 316.5 -533.1 316.45 -533.1 314.6 -533.0 311.85 -533.05 311.8 -533.55 311.5 -540.45 311.4 -540.4 Q310.7 -539.9 309.95 -539.9 308.4 -539.9 307.55 -540.7 L308.3 -541.2 309.45 -542.0 311.4 -542.05 311.4 -543.0 Q311.25 -548.6 311.25 -554.3 L310.65 -558.8 310.5 -559.8 M316.0 -560.3 L319.25 -560.6 319.45 -560.1 Q320.5 -556.95 320.2 -556.0 L319.55 -554.3 319.45 -554.0 Q319.1 -552.6 319.1 -550.4 L319.35 -543.6 319.45 -542.2 319.45 -541.85 Q320.05 -533.3 321.4 -517.8 L322.45 -506.35 322.85 -501.8 324.75 -481.8 Q326.55 -462.8 327.2 -458.35 L327.2 -455.4 323.45 -455.4 322.55 -467.45 321.25 -481.8 318.55 -517.8 318.4 -519.95 316.9 -541.8 316.75 -543.5 315.95 -557.5 316.0 -560.3 M322.35 -560.95 L324.15 -561.1 324.45 -557.45 324.75 -557.5 325.65 -543.8 325.75 -541.95 327.65 -517.8 328.1 -512.1 Q328.4 -508.65 331.25 -486.0 L331.6 -483.35 Q331.35 -479.15 330.2 -476.9 L328.6 -477.55 Q328.3 -490.45 325.25 -518.9 322.4 -545.8 322.4 -559.8 L322.35 -560.95 M371.85 -568.3 L372.3 -568.65 372.75 -569.0 Q378.35 -562.55 380.15 -552.35 L381.7 -540.95 Q382.65 -534.15 384.3 -529.8 L387.3 -506.3 Q389.7 -487.35 389.7 -484.8 L389.55 -484.0 387.65 -499.8 384.65 -517.8 384.2 -520.55 Q381.25 -538.4 379.85 -547.4 L378.65 -556.35 378.7 -557.4 Q377.55 -558.55 376.45 -560.2 373.65 -564.8 372.5 -566.05 L373.05 -566.35 371.85 -568.3 M374.75 -570.85 L375.75 -572.1 376.9 -570.85 377.0 -571.15 377.8 -569.75 Q379.65 -567.4 380.0 -565.75 L383.2 -559.4 384.0 -558.15 384.2 -557.1 384.25 -556.6 385.0 -551.25 385.35 -548.65 390.15 -517.8 392.0 -506.35 395.9 -481.8 398.95 -462.15 399.9 -455.4 396.2 -455.4 394.8 -465.5 Q387.85 -514.35 387.85 -517.5 L387.85 -517.8 Q387.8 -525.05 385.3 -538.8 L383.25 -548.35 Q382.2 -552.6 381.05 -555.35 L381.9 -554.9 381.15 -557.95 381.7 -558.4 381.85 -559.2 Q378.95 -563.3 374.75 -570.85 M279.15 -455.4 L275.55 -455.4 273.25 -458.75 270.95 -460.85 270.8 -461.05 Q269.0 -463.15 265.05 -464.65 261.0 -466.6 252.7 -467.2 L251.6 -467.05 251.05 -467.25 249.75 -466.85 248.45 -466.9 247.95 -466.55 246.85 -466.45 246.6 -466.35 240.6 -464.15 239.9 -463.85 239.4 -463.65 238.15 -463.05 237.75 -462.8 235.2 -461.25 Q231.55 -458.95 229.85 -456.75 L229.7 -456.5 228.85 -455.5 228.75 -455.4 225.45 -455.4 226.05 -456.65 Q227.35 -459.05 228.85 -460.9 L230.35 -462.6 Q232.45 -464.75 235.15 -466.25 241.3 -469.75 250.75 -470.25 L256.95 -470.1 263.1 -470.0 Q273.65 -468.05 279.15 -455.4 M358.4 -600.35 L361.75 -596.3 Q364.9 -591.75 371.35 -580.75 L372.3 -579.15 371.7 -578.75 370.75 -578.2 365.5 -587.25 Q361.4 -593.8 356.65 -598.75 L358.4 -600.35 M353.5 -595.15 L354.9 -596.9 Q361.5 -589.95 369.1 -577.4 L366.6 -576.55 363.4 -581.35 355.0 -593.65 353.5 -595.15 M238.0 -531.35 L237.8 -530.15 237.75 -529.85 237.6 -528.85 236.45 -517.8 236.15 -514.05 Q234.7 -504.95 230.15 -498.4 L240.5 -498.55 245.05 -498.45 262.85 -499.9 Q264.3 -500.95 270.2 -501.5 276.5 -502.05 278.25 -502.8 276.15 -507.75 274.5 -517.8 L273.95 -521.55 272.85 -530.55 272.7 -531.7 272.65 -532.2 272.9 -532.2 Q273.55 -532.2 274.0 -532.55 L274.15 -530.65 274.55 -524.25 275.6 -517.8 275.95 -515.8 277.3 -507.25 277.45 -506.95 277.65 -506.25 Q277.6 -506.05 278.05 -505.1 L279.35 -503.0 281.1 -500.2 280.6 -499.35 280.45 -499.1 280.05 -499.05 276.6 -498.75 273.55 -498.9 235.3 -496.05 228.85 -495.0 Q228.65 -495.0 228.25 -495.5 L227.75 -496.3 228.85 -498.05 229.65 -499.4 231.05 -501.7 231.55 -502.85 231.75 -503.6 231.85 -503.9 233.65 -512.7 234.7 -517.8 235.35 -521.4 236.15 -528.65 236.35 -530.25 236.35 -530.75 238.0 -531.35" fill="#cee38c" fill-rule="evenodd" stroke="none"/>
    <path d="M204.6 -533.35 L207.15 -549.95 209.25 -550.15 205.6 -525.6 205.5 -525.05 205.45 -524.75 204.35 -517.8 204.35 -517.75 198.6 -481.75 195.8 -464.0 195.55 -462.1 194.55 -455.4 192.65 -455.4 195.8 -476.05 196.7 -481.75 202.2 -517.8 204.6 -533.35 M217.15 -550.8 L218.8 -551.0 218.7 -550.1 218.65 -549.8 216.5 -533.7 216.4 -533.05 215.3 -526.05 214.05 -517.8 213.5 -513.65 210.4 -490.05 208.05 -473.45 206.7 -465.65 206.4 -463.75 205.1 -455.4 204.0 -455.4 205.45 -465.15 Q210.8 -499.05 212.6 -511.95 L213.4 -517.8 214.5 -525.95 215.4 -533.7 217.15 -550.8 M299.45 -558.8 L301.05 -558.95 301.5 -555.7 Q302.1 -551.05 302.1 -548.75 L302.5 -542.0 302.55 -540.6 303.05 -532.9 303.65 -523.4 303.75 -521.9 304.0 -517.8 304.2 -514.1 304.25 -513.2 306.2 -483.5 306.45 -479.65 307.95 -455.4 306.45 -455.4 Q305.85 -465.6 305.55 -474.7 L305.4 -488.75 Q305.4 -491.6 302.9 -517.8 L302.5 -522.2 302.5 -522.85 302.45 -523.15 301.5 -532.75 300.8 -540.4 300.65 -541.8 Q299.45 -555.95 299.45 -558.8 M314.65 -560.2 L316.0 -560.3 315.95 -557.5 316.75 -543.5 316.9 -541.8 318.4 -519.95 318.55 -517.8 321.25 -481.8 322.55 -467.45 323.45 -455.4 323.25 -455.4 322.65 -461.15 322.6 -462.15 322.6 -462.3 322.6 -462.55 322.6 -462.65 322.6 -462.7 322.55 -463.05 322.55 -463.25 322.55 -463.3 322.55 -463.4 322.5 -463.55 321.75 -472.7 321.35 -477.55 318.7 -507.25 317.8 -517.8 316.5 -532.7 316.45 -533.1 316.5 -533.1 316.25 -535.95 316.0 -539.1 315.95 -539.65 315.85 -541.3 315.7 -542.5 315.7 -554.6 Q315.0 -556.85 314.65 -560.2 M324.15 -561.1 L326.05 -561.3 326.1 -561.3 Q327.0 -553.05 327.0 -546.6 L327.05 -543.85 327.1 -542.7 327.1 -542.0 327.15 -540.95 Q327.5 -532.15 328.9 -517.8 329.65 -509.95 330.75 -500.4 L334.55 -468.2 334.65 -467.0 335.2 -461.65 335.35 -460.35 335.85 -455.4 334.5 -455.4 333.9 -462.95 333.6 -466.85 333.45 -468.25 331.6 -483.35 331.25 -486.0 Q328.4 -508.65 328.1 -512.1 L327.65 -517.8 325.75 -541.95 325.65 -543.8 324.75 -557.5 324.45 -557.45 324.15 -561.1 M370.6 -567.5 L371.85 -568.3 373.05 -566.35 372.5 -566.05 Q373.65 -564.8 376.45 -560.2 377.55 -558.55 378.7 -557.4 L378.65 -556.35 379.85 -547.4 Q381.25 -538.4 384.2 -520.55 L384.65 -517.8 387.65 -499.8 389.55 -484.0 389.9 -481.1 393.25 -455.4 392.4 -455.4 390.85 -468.15 389.05 -482.35 387.8 -493.7 Q386.1 -508.15 384.1 -517.8 L383.8 -519.4 383.8 -519.45 383.1 -522.8 378.85 -546.25 378.7 -547.05 377.0 -557.3 373.55 -562.85 373.05 -563.7 370.6 -567.5 M375.75 -572.1 L377.0 -574.45 385.4 -561.5 387.1 -553.3 386.8 -553.75 387.5 -549.05 392.3 -517.8 394.05 -506.35 397.8 -481.8 401.85 -455.4 399.9 -455.4 398.95 -462.15 395.9 -481.8 392.0 -506.35 390.15 -517.8 385.35 -548.65 385.0 -551.25 384.25 -556.6 384.2 -557.1 384.0 -558.15 383.2 -559.4 380.0 -565.75 Q379.65 -567.4 377.8 -569.75 L377.0 -571.15 376.9 -570.85 375.75 -572.1 M372.3 -579.15 L371.35 -580.75 Q364.9 -591.75 361.75 -596.3 L358.4 -600.35 359.7 -601.4 372.55 -581.45 373.5 -579.9 372.3 -579.15 M366.6 -576.55 L364.8 -576.25 361.75 -580.8 356.9 -588.1 Q354.7 -589.9 352.15 -593.1 L353.5 -595.15 355.0 -593.65 363.4 -581.35 366.6 -576.55" fill="#788e44" fill-rule="evenodd" stroke="none"/>
    <path d="M212.7 -550.45 L214.5 -550.55 215.85 -550.65 Q215.1 -544.15 215.1 -541.75 215.1 -539.45 213.3 -533.1 211.9 -527.95 211.6 -525.55 L211.55 -525.55 208.35 -525.15 208.3 -525.15 208.6 -526.45 209.7 -532.05 210.05 -533.65 210.1 -533.9 210.4 -535.45 210.4 -535.55 211.35 -540.0 Q212.25 -545.1 212.7 -550.45 M303.5 -559.15 L310.5 -559.8 310.65 -558.8 311.25 -554.3 Q311.25 -548.6 311.4 -543.0 L311.4 -542.05 309.45 -542.0 308.3 -541.2 307.55 -540.7 Q308.4 -539.9 309.95 -539.9 310.7 -539.9 311.4 -540.4 L311.5 -540.45 311.8 -533.55 304.85 -533.0 304.55 -533.0 304.5 -533.0 305.0 -537.35 304.55 -545.85 303.55 -558.55 303.5 -559.15 M319.25 -560.6 L319.45 -560.65 322.35 -560.95 322.4 -559.8 Q322.4 -545.8 325.25 -518.9 328.3 -490.45 328.6 -477.55 L330.2 -476.9 Q331.35 -479.15 331.6 -483.35 L333.45 -468.25 332.6 -468.2 331.75 -468.1 Q331.75 -467.6 332.05 -467.2 L332.25 -466.8 333.6 -466.85 333.9 -462.95 334.5 -455.4 327.2 -455.4 327.2 -458.35 Q326.55 -462.8 324.75 -481.8 L322.85 -501.8 322.45 -506.35 321.4 -517.8 Q320.05 -533.3 319.45 -541.85 L319.45 -542.2 319.35 -543.6 319.1 -550.4 Q319.1 -552.6 319.45 -554.0 L319.55 -554.3 320.2 -556.0 Q320.5 -556.95 319.45 -560.1 L319.25 -560.6 M372.75 -569.0 L374.75 -570.85 Q378.95 -563.3 381.85 -559.2 L381.7 -558.4 381.15 -557.95 381.9 -554.9 381.05 -555.35 Q382.2 -552.6 383.25 -548.35 L385.3 -538.8 Q387.8 -525.05 387.85 -517.8 L387.85 -517.5 Q387.85 -514.35 394.8 -465.5 L396.2 -455.4 393.25 -455.4 389.9 -481.1 389.55 -484.0 389.7 -484.8 Q389.7 -487.35 387.3 -506.3 L384.3 -529.8 Q382.65 -534.15 381.7 -540.95 L380.15 -552.35 Q378.35 -562.55 372.75 -569.0 M376.1 -455.4 L374.05 -455.4 Q370.35 -461.15 365.55 -463.45 360.95 -465.6 360.95 -462.9 L360.95 -462.85 Q355.65 -462.25 353.2 -455.4 L350.45 -455.4 350.5 -455.9 Q351.55 -463.05 357.85 -466.0 L363.2 -465.65 Q366.3 -465.0 368.75 -463.75 373.35 -460.0 376.1 -455.4 M250.15 -455.4 L248.45 -455.4 248.55 -459.3 248.2 -461.1 247.8 -463.65 Q247.8 -465.35 249.25 -465.45 L249.9 -465.3 251.4 -465.55 251.5 -465.4 251.55 -464.75 251.0 -460.85 250.15 -457.75 250.15 -457.4 250.15 -455.4 M356.65 -598.75 Q361.4 -593.8 365.5 -587.25 L370.75 -578.2 Q369.95 -577.75 369.1 -577.4 361.5 -589.95 354.9 -596.9 L356.65 -598.75 M342.0 -547.1 L342.15 -549.35 Q343.25 -555.95 349.35 -558.1 351.55 -558.2 354.4 -557.3 357.35 -556.4 359.65 -555.0 366.3 -548.95 368.75 -541.4 L369.55 -538.95 370.2 -536.35 370.55 -535.25 370.7 -534.15 Q372.15 -528.45 373.2 -521.95 L373.9 -517.8 374.7 -513.05 374.8 -512.65 375.85 -508.45 376.4 -506.35 376.9 -504.4 379.15 -495.35 379.25 -495.05 379.5 -494.25 380.05 -493.0 381.35 -490.6 383.15 -487.25 382.85 -486.5 382.45 -486.05 377.1 -488.0 344.65 -496.15 342.05 -496.45 339.0 -496.9 338.7 -497.35 338.45 -497.65 337.95 -498.7 339.25 -501.3 340.25 -503.25 340.5 -504.3 340.65 -505.0 340.7 -505.3 340.75 -506.35 341.25 -513.8 341.45 -517.8 341.7 -522.15 Q341.5 -527.6 341.6 -530.9 L341.35 -536.9 341.65 -543.75 Q341.7 -545.1 341.9 -546.05 L342.0 -547.1 M343.55 -517.8 L343.55 -516.0 Q343.5 -510.5 342.55 -506.35 342.0 -503.95 341.1 -502.0 L341.15 -501.45 Q350.15 -495.85 354.6 -495.7 363.3 -495.3 369.8 -493.0 375.95 -490.8 376.9 -490.8 L377.7 -491.05 Q378.35 -491.45 378.35 -492.4 L375.6 -504.7 375.25 -506.35 374.35 -510.0 373.6 -513.1 372.55 -517.8 368.5 -535.8 Q357.8 -561.95 347.25 -552.45 345.55 -550.9 344.3 -542.2 343.4 -535.8 343.25 -530.65 L343.55 -517.8 M242.2 -553.35 Q241.45 -551.9 241.1 -549.85 L240.8 -548.2 239.55 -544.8 240.15 -544.9 239.6 -541.75 239.35 -541.3 239.45 -540.85 238.95 -537.9 238.0 -531.35 236.35 -530.75 Q236.9 -537.6 238.15 -543.55 L238.4 -544.75 239.05 -547.3 239.65 -549.75 Q240.2 -551.6 241.1 -553.25 L242.2 -553.35 M237.8 -530.15 L238.55 -530.0 Q239.9 -530.0 240.85 -535.2 L241.55 -540.8 242.8 -544.05 Q242.1 -541.75 241.5 -538.8 L241.5 -538.35 241.3 -537.4 241.2 -536.45 240.95 -535.35 241.0 -535.0 240.3 -530.2 240.15 -529.15 239.1 -521.5 239.05 -521.35 238.8 -520.6 238.7 -519.35 238.55 -518.9 238.7 -518.75 238.55 -517.8 238.15 -515.35 236.75 -503.85 236.55 -503.65 236.35 -502.55 Q236.35 -501.65 236.5 -500.95 L241.3 -501.1 253.95 -502.05 253.95 -502.2 254.8 -502.4 255.05 -502.4 255.05 -502.1 267.8 -503.05 272.6 -503.6 272.8 -505.15 272.6 -506.3 272.45 -506.5 271.45 -517.8 271.05 -521.1 271.25 -521.3 271.2 -521.8 271.05 -522.95 270.9 -523.7 270.85 -523.85 270.2 -530.4 270.0 -532.25 270.05 -532.15 Q270.6 -531.45 271.45 -531.45 L272.7 -531.7 272.85 -530.55 273.95 -521.55 274.5 -517.8 Q276.15 -507.75 278.25 -502.8 276.5 -502.05 270.2 -501.5 264.3 -500.95 262.85 -499.9 L245.05 -498.45 240.5 -498.55 230.15 -498.4 Q234.7 -504.95 236.15 -514.05 L236.45 -517.8 237.6 -528.85 237.75 -529.85 237.8 -530.15 M267.55 -555.8 L269.6 -556.0 271.3 -552.85 271.35 -552.6 271.4 -552.35 271.5 -552.1 272.0 -549.75 272.2 -548.65 272.75 -546.1 Q273.75 -540.1 273.95 -533.0 L274.0 -532.55 Q273.55 -532.2 272.9 -532.2 L272.65 -532.2 272.6 -532.7 271.1 -542.85 271.0 -543.15 270.55 -545.8 269.5 -548.6 269.4 -548.95 269.8 -549.0 Q268.8 -553.05 267.55 -555.8 M255.7 -530.1 L255.1 -503.4 255.2 -503.4 255.1 -503.35 254.0 -503.2 254.0 -503.3 253.9 -503.3 254.0 -503.35 254.6 -530.45 255.25 -530.3 255.7 -530.1 M266.3 -526.0 L265.95 -526.6 Q268.1 -526.6 269.45 -525.45 270.65 -524.35 270.55 -523.05 269.0 -523.45 268.05 -524.1 L267.0 -525.05 262.9 -525.0 Q260.9 -524.85 258.8 -520.3 L257.7 -517.8 256.85 -515.4 Q256.45 -515.5 256.3 -515.7 L256.25 -515.7 256.25 -516.15 256.45 -517.8 257.05 -519.8 Q258.0 -522.4 259.6 -524.1 262.5 -527.2 266.3 -526.0 M243.75 -524.3 Q247.6 -526.1 250.35 -523.45 251.85 -521.95 252.75 -519.45 L253.25 -517.8 253.45 -515.95 253.35 -515.5 253.3 -515.45 Q253.2 -515.25 252.7 -515.1 L251.8 -517.8 251.0 -519.75 Q249.15 -524.0 247.15 -523.85 L243.05 -523.3 241.85 -522.1 Q240.9 -521.4 239.3 -520.75 239.25 -522.0 240.55 -523.3 241.9 -524.6 244.1 -524.95 L243.75 -524.3" fill="#a4ca2f" fill-rule="evenodd" stroke="none"/>
    <path d="M218.8 -551.0 L219.0 -551.05 223.55 -551.5 221.7 -544.75 222.9 -546.65 225.65 -551.4 225.85 -551.75 228.1 -551.95 223.0 -545.9 221.65 -544.45 221.4 -542.95 Q221.15 -534.0 220.55 -529.5 L220.0 -526.65 219.6 -526.6 217.6 -526.35 215.3 -526.05 216.4 -533.05 216.5 -533.7 218.65 -549.8 218.7 -550.1 218.8 -551.0 M237.4 -552.9 L237.9 -552.95 240.25 -553.15 239.75 -551.75 238.15 -546.75 237.85 -544.9 237.85 -544.55 237.75 -543.75 237.7 -543.65 237.35 -542.8 Q236.75 -540.95 236.7 -538.35 L236.65 -537.4 236.65 -537.35 236.65 -537.2 236.55 -536.5 235.5 -531.1 235.4 -530.8 235.3 -529.75 235.2 -529.1 235.2 -529.05 235.15 -528.75 234.65 -528.5 233.2 -528.25 232.75 -528.25 232.6 -528.25 232.6 -528.45 232.6 -528.5 232.65 -529.25 232.8 -532.5 232.8 -533.05 Q232.95 -538.55 234.3 -543.95 L234.4 -544.4 Q235.1 -547.25 236.15 -550.0 L236.15 -550.05 237.4 -552.9 M227.35 -497.5 L226.7 -496.2 Q226.7 -495.85 227.45 -495.0 228.1 -494.05 228.85 -493.9 L229.25 -493.9 Q229.8 -493.9 231.05 -494.6 233.1 -495.35 237.85 -495.45 L247.1 -496.0 252.5 -496.35 253.35 -496.4 255.25 -496.55 256.25 -496.6 261.75 -497.1 270.95 -497.9 Q275.7 -498.45 277.7 -498.0 L279.5 -497.6 Q280.45 -497.65 281.45 -498.9 L281.45 -498.95 281.6 -499.1 281.65 -497.75 Q281.6 -496.7 281.25 -495.95 L280.5 -495.6 280.3 -495.6 279.1 -495.35 279.05 -495.35 270.6 -495.8 269.25 -496.0 238.55 -493.85 238.05 -493.8 231.25 -491.6 Q229.85 -491.75 228.85 -492.25 228.0 -492.65 227.45 -493.25 L226.5 -495.35 Q226.55 -497.45 227.35 -497.5 M275.15 -531.55 L274.95 -533.7 273.75 -541.2 273.0 -547.75 272.85 -549.3 271.45 -554.1 270.8 -556.1 272.6 -556.3 273.45 -554.65 273.95 -553.15 275.35 -548.2 275.35 -548.1 276.05 -543.4 276.35 -536.6 276.65 -535.1 277.2 -532.1 277.25 -531.75 275.75 -531.55 275.15 -531.55 M294.7 -558.35 L295.85 -558.45 299.45 -558.8 Q299.45 -555.95 300.65 -541.8 L300.8 -540.4 301.5 -532.75 301.25 -532.7 301.0 -532.7 300.6 -532.65 299.6 -532.6 Q298.3 -536.85 296.8 -545.15 L295.0 -545.35 294.7 -546.75 Q295.4 -547.25 296.2 -547.4 L296.85 -547.5 296.4 -547.45 294.7 -558.35 M326.1 -561.3 L329.1 -561.35 329.95 -561.35 329.75 -542.65 330.2 -542.5 330.1 -542.2 329.75 -541.45 329.75 -540.0 Q329.7 -521.45 331.0 -515.9 333.3 -506.45 333.95 -489.8 334.5 -475.35 335.45 -467.8 L335.2 -468.0 335.65 -467.45 335.5 -467.3 335.95 -464.25 335.65 -461.8 335.2 -461.65 334.65 -467.0 334.55 -468.2 330.75 -500.4 Q329.65 -509.95 328.9 -517.8 327.5 -532.15 327.15 -540.95 L327.1 -542.0 327.1 -542.7 327.05 -543.85 327.0 -546.6 Q327.0 -553.05 326.1 -561.3 M366.7 -565.6 Q368.85 -566.4 370.6 -567.5 L373.05 -563.7 373.55 -562.85 377.0 -557.3 378.7 -547.05 378.85 -546.25 383.1 -522.8 383.8 -519.45 383.8 -519.4 384.1 -517.8 Q386.1 -508.15 387.8 -493.7 L389.05 -482.35 388.2 -481.85 Q387.2 -483.4 386.45 -485.2 L386.1 -484.05 Q384.95 -482.05 381.85 -482.6 L381.25 -482.7 380.7 -482.95 375.05 -486.15 374.6 -486.25 348.6 -492.6 347.45 -492.55 340.15 -493.2 340.1 -493.2 338.95 -493.7 338.75 -493.75 338.2 -494.2 337.05 -495.55 336.85 -495.75 Q336.05 -497.4 335.95 -498.95 L335.9 -499.1 335.95 -499.25 335.95 -499.45 Q335.85 -500.5 336.45 -502.2 L337.55 -505.6 337.85 -506.35 Q339.5 -511.15 339.5 -515.65 L339.35 -517.8 338.9 -524.8 Q338.65 -530.35 339.1 -533.4 L339.3 -534.9 Q338.9 -538.95 338.9 -541.6 L339.25 -546.15 339.3 -546.2 Q339.5 -548.65 340.05 -550.85 L340.3 -552.25 Q340.35 -552.65 340.55 -552.9 341.05 -554.35 341.8 -555.5 L342.4 -556.35 Q344.05 -560.2 347.6 -560.9 L348.75 -561.15 349.55 -561.2 351.15 -561.1 354.5 -560.35 Q362.6 -557.8 368.05 -548.4 L371.6 -541.1 371.6 -541.05 373.5 -535.35 373.6 -534.9 373.85 -533.9 Q375.0 -529.7 375.55 -525.45 L375.85 -525.35 376.05 -524.5 375.75 -523.95 376.55 -517.8 377.25 -514.05 377.5 -514.2 Q377.7 -514.85 377.7 -513.65 L377.6 -512.4 379.1 -506.35 Q380.4 -501.8 382.1 -497.4 383.6 -493.4 385.0 -490.5 L384.6 -494.15 383.85 -505.9 Q383.1 -510.15 381.35 -517.6 L381.15 -517.4 378.4 -514.9 380.0 -517.8 380.95 -519.4 378.55 -530.4 Q378.3 -531.75 377.9 -543.05 377.65 -550.45 374.5 -555.1 L366.7 -565.6 M378.95 -455.4 L376.9 -455.4 373.75 -459.75 371.9 -461.65 373.2 -460.6 373.4 -460.35 372.8 -461.25 369.45 -463.8 368.75 -464.15 365.9 -465.8 367.5 -464.7 363.95 -466.2 363.95 -466.3 362.4 -466.65 362.45 -466.55 359.1 -466.45 360.4 -466.85 357.8 -466.45 357.2 -466.45 354.1 -465.3 353.75 -464.65 353.9 -464.65 Q354.4 -465.1 355.2 -465.35 354.1 -464.95 353.45 -464.15 351.45 -461.45 350.75 -460.05 L350.35 -458.0 349.9 -455.4 347.85 -455.4 348.25 -457.3 348.55 -458.8 348.75 -459.5 Q349.25 -461.15 350.05 -462.45 L350.6 -463.4 Q352.3 -467.65 356.05 -468.8 L357.25 -469.2 358.05 -469.3 359.7 -469.4 363.25 -468.95 Q371.8 -467.05 377.7 -457.55 L378.95 -455.4 M364.8 -576.25 L363.55 -576.2 363.0 -576.2 360.35 -576.3 359.55 -576.4 Q357.5 -578.8 354.95 -582.15 352.35 -585.55 350.3 -588.65 L351.2 -591.2 352.15 -593.1 Q354.7 -589.9 356.9 -588.1 L361.75 -580.8 364.8 -576.25 M333.45 -468.25 L333.6 -466.85 332.25 -466.8 332.05 -467.2 Q331.75 -467.6 331.75 -468.1 L332.6 -468.2 333.45 -468.25 M370.95 -535.2 L370.85 -535.35 370.65 -536.15 370.65 -536.45 370.25 -538.35 368.45 -543.4 367.8 -545.6 364.4 -550.75 362.6 -552.7 363.8 -551.65 364.05 -551.35 363.45 -552.3 360.35 -554.95 359.65 -555.4 357.0 -557.2 358.45 -556.0 355.15 -557.75 355.15 -557.8 353.7 -558.3 353.7 -558.2 350.55 -558.35 351.7 -558.7 349.3 -558.5 348.65 -558.55 345.8 -557.8 345.4 -557.25 345.55 -557.25 346.8 -557.75 Q345.75 -557.5 345.05 -556.8 L342.45 -553.2 342.05 -551.3 341.25 -546.85 341.25 -545.4 341.1 -539.0 341.0 -536.95 340.65 -531.65 340.7 -527.55 Q340.5 -521.9 340.8 -517.8 L341.0 -515.5 341.05 -515.0 340.7 -512.6 340.7 -512.55 340.75 -509.95 340.75 -508.1 340.3 -506.35 339.0 -502.55 337.75 -500.4 Q336.95 -499.4 337.0 -498.85 336.95 -498.5 337.6 -497.55 L337.75 -497.35 337.85 -497.3 Q338.7 -495.75 339.55 -495.55 L341.1 -495.9 Q342.75 -496.1 347.0 -494.85 L355.0 -492.6 359.6 -491.4 359.65 -491.3 360.5 -491.2 362.15 -490.65 362.8 -490.55 367.35 -489.5 Q374.9 -487.65 375.0 -487.75 378.9 -487.0 380.65 -485.95 L382.2 -485.05 Q382.95 -484.85 383.6 -485.9 L384.0 -486.95 383.4 -488.3 383.0 -489.0 381.4 -491.55 Q379.65 -494.85 378.5 -498.25 L378.2 -500.15 377.65 -502.8 377.65 -502.85 376.85 -505.35 376.8 -505.9 376.75 -506.35 376.25 -509.9 375.75 -512.95 374.8 -517.8 374.75 -518.15 373.9 -522.35 373.8 -522.65 372.45 -528.2 Q372.25 -528.55 372.35 -528.85 L372.25 -529.0 372.2 -529.9 371.25 -534.15 371.2 -534.3 370.95 -535.2 M375.25 -512.7 L375.3 -512.7 375.8 -510.05 375.25 -512.7 M341.7 -460.6 L341.85 -460.35 340.05 -460.25 339.95 -460.3 Q339.85 -460.35 339.85 -461.1 339.85 -461.8 340.1 -461.75 L340.35 -461.7 341.1 -461.2 341.7 -460.6 M287.6 -550.2 Q289.1 -550.8 290.0 -549.4 L289.3 -548.2 Q288.95 -547.9 287.9 -547.9 287.1 -547.9 286.4 -548.2 L286.35 -548.1 Q286.2 -548.1 286.2 -548.85 286.2 -549.6 287.6 -550.2 M296.45 -424.7 Q298.35 -427.35 298.6 -421.0 298.65 -419.1 299.45 -414.95 L300.2 -408.9 Q300.3 -405.85 302.05 -396.85 303.7 -388.25 303.7 -384.8 L303.25 -382.85 302.8 -381.35 Q300.3 -384.1 297.3 -399.45 294.6 -413.3 294.6 -418.65 294.6 -422.15 296.45 -424.7" fill="#d2ddaa" fill-rule="evenodd" stroke="none"/>
    <path d="M223.55 -551.5 L225.85 -551.75 225.65 -551.4 222.9 -546.65 221.7 -544.75 223.55 -551.5 M228.1 -551.95 L237.4 -552.9 236.15 -550.05 236.15 -550.0 Q235.1 -547.25 234.4 -544.4 L234.3 -543.95 Q232.95 -538.55 232.8 -533.05 L232.8 -532.5 232.65 -529.25 232.6 -528.5 232.6 -528.45 232.55 -528.2 228.85 -527.75 220.05 -526.65 220.0 -526.65 220.55 -529.5 Q221.15 -534.0 221.4 -542.95 L221.65 -544.45 223.0 -545.9 228.1 -551.95 M272.6 -556.3 L294.7 -558.35 296.4 -547.45 296.85 -547.5 296.2 -547.4 Q295.4 -547.25 294.7 -546.75 L295.0 -545.35 296.8 -545.15 Q298.3 -536.85 299.6 -532.6 L299.25 -532.55 298.95 -532.5 298.9 -532.5 297.55 -532.45 277.3 -530.9 277.25 -531.75 277.2 -532.1 276.65 -535.1 276.35 -536.6 276.05 -543.4 275.35 -548.1 275.35 -548.2 273.95 -553.15 273.45 -554.65 272.6 -556.3 M329.1 -561.35 L337.35 -561.55 349.95 -562.65 357.15 -563.55 357.8 -563.65 366.1 -565.0 365.5 -565.2 366.7 -565.6 374.5 -555.1 Q377.65 -550.45 377.9 -543.05 378.3 -531.75 378.55 -530.4 L380.95 -519.4 380.0 -517.8 378.4 -514.9 381.15 -517.4 381.35 -517.6 Q383.1 -510.15 383.85 -505.9 L384.6 -494.15 385.0 -490.5 Q383.6 -493.4 382.1 -497.4 380.4 -501.8 379.1 -506.35 L377.6 -512.4 377.7 -513.65 Q377.7 -514.85 377.5 -514.2 L377.25 -514.05 376.55 -517.8 375.75 -523.95 376.05 -524.5 375.85 -525.35 375.55 -525.45 Q375.0 -529.7 373.85 -533.9 L373.6 -534.9 373.5 -535.35 371.6 -541.05 371.6 -541.1 368.05 -548.4 Q362.6 -557.8 354.5 -560.35 L351.15 -561.1 349.55 -561.2 348.75 -561.15 347.6 -560.9 Q344.05 -560.2 342.4 -556.35 L341.8 -555.5 Q341.05 -554.35 340.55 -552.9 340.35 -552.65 340.3 -552.25 L340.05 -550.85 Q339.5 -548.65 339.3 -546.2 L339.25 -546.15 338.9 -541.6 Q338.9 -538.95 339.3 -534.9 L339.1 -533.4 Q338.65 -530.35 338.9 -524.8 L339.35 -517.8 339.5 -515.65 Q339.5 -511.15 337.85 -506.35 L337.55 -505.6 336.45 -502.2 Q335.85 -500.5 335.95 -499.45 L335.95 -499.25 335.9 -499.1 335.95 -498.95 Q336.05 -497.4 336.85 -495.75 L337.05 -495.55 338.2 -494.2 338.75 -493.75 338.95 -493.7 340.1 -493.2 340.15 -493.2 347.45 -492.55 348.6 -492.6 374.6 -486.25 375.05 -486.15 380.7 -482.95 381.25 -482.7 381.85 -482.6 Q384.95 -482.05 386.1 -484.05 L386.45 -485.2 Q387.2 -483.4 388.2 -481.85 L389.05 -482.35 390.85 -468.15 392.4 -455.4 378.95 -455.4 377.7 -457.55 Q371.8 -467.05 363.25 -468.95 L359.7 -469.4 358.05 -469.3 357.25 -469.2 356.05 -468.8 Q352.3 -467.65 350.6 -463.4 L350.05 -462.45 Q349.25 -461.15 348.75 -459.5 L348.55 -458.8 348.25 -457.3 347.85 -455.4 335.85 -455.4 335.35 -460.35 335.2 -461.65 335.65 -461.8 335.95 -464.25 335.5 -467.3 335.65 -467.45 335.2 -468.0 335.45 -467.8 Q334.5 -475.35 333.95 -489.8 333.3 -506.45 331.0 -515.9 329.7 -521.45 329.75 -540.0 L329.75 -541.45 330.1 -542.2 330.2 -542.5 329.75 -542.65 329.95 -561.35 329.1 -561.35 M360.35 -576.3 Q352.95 -576.95 350.75 -580.85 349.75 -582.7 349.85 -585.25 349.9 -586.95 350.3 -588.65 352.35 -585.55 354.95 -582.15 357.5 -578.8 359.55 -576.4 L360.35 -576.3 M372.25 -529.0 L372.0 -530.05 371.15 -534.15 370.95 -535.2 371.2 -534.3 371.25 -534.15 372.2 -529.9 372.25 -529.0 M359.4 -549.25 L359.35 -549.2 359.1 -549.4 359.4 -549.25 M347.1 -529.3 L347.15 -529.0 348.2 -527.55 347.25 -527.8 347.15 -527.95 347.15 -528.75 347.1 -529.3 M341.15 -523.9 L341.25 -522.35 341.15 -519.5 341.15 -523.9 M375.3 -512.7 L375.25 -512.7 375.15 -513.1 374.9 -514.6 375.3 -512.7 M368.5 -457.55 L368.25 -457.7 368.6 -457.6 368.5 -457.55 M341.7 -460.6 L341.1 -461.2 340.35 -461.7 340.1 -461.75 Q339.85 -461.8 339.85 -461.1 339.85 -460.35 339.95 -460.3 L340.05 -460.25 341.85 -460.35 341.7 -460.6 M287.6 -550.2 Q286.2 -549.6 286.2 -548.85 286.2 -548.1 286.35 -548.1 L286.4 -548.2 Q287.1 -547.9 287.9 -547.9 288.95 -547.9 289.3 -548.2 L290.0 -549.4 Q289.1 -550.8 287.6 -550.2 M280.3 -495.6 Q280.05 -494.8 279.3 -494.4 277.4 -493.2 271.75 -492.25 L271.05 -492.45 252.05 -491.05 251.25 -490.75 241.65 -489.9 Q233.7 -489.9 230.65 -491.05 230.25 -491.15 229.95 -491.35 L230.65 -491.4 231.25 -491.6 238.05 -493.8 238.55 -493.85 269.25 -496.0 270.6 -495.8 279.05 -495.35 279.1 -495.35 280.3 -495.6" fill="#bbcb7a" fill-rule="evenodd" stroke="none"/>
    <path d="M338.55 -587.3 L342.25 -587.7 343.25 -588.05 341.15 -577.35 337.7 -576.6 334.6 -575.55 326.45 -575.35 325.05 -575.25 323.2 -575.15 322.45 -575.1 321.0 -574.9 315.9 -574.8 314.3 -574.6 313.5 -574.5 312.15 -574.3 310.95 -574.15 300.6 -573.15 293.85 -573.0 242.9 -567.85 228.85 -566.4 220.45 -565.5 218.95 -565.35 212.95 -564.75 211.2 -564.55 208.05 -564.2 200.35 -563.35 196.2 -562.9 195.8 -562.85 190.6 -562.3 184.95 -561.65 176.75 -561.55 174.45 -561.2 172.0 -561.05 164.85 -560.95 163.15 -560.75 163.2 -560.85 163.5 -561.6 168.1 -567.05 171.2 -570.8 173.75 -571.45 180.05 -571.6 194.4 -572.1 199.4 -572.2 210.25 -573.35 212.0 -573.55 219.65 -574.3 221.65 -574.5 228.85 -575.25 239.35 -576.3 272.85 -579.7 Q282.25 -581.25 293.6 -583.75 L297.7 -584.35 298.9 -584.5 313.15 -585.95 314.1 -586.0 319.45 -586.45 331.45 -587.2 333.35 -587.35 338.55 -587.3" fill="#e2df65" fill-rule="evenodd" stroke="none"/>
    <path d="M374.05 -455.4 L370.75 -455.4 369.5 -457.0 369.5 -457.1 Q369.35 -457.2 369.3 -457.25 L368.45 -458.15 368.25 -458.1 366.5 -459.35 366.55 -459.2 365.5 -459.6 365.55 -459.7 365.5 -459.75 365.3 -459.7 365.25 -459.8 Q363.4 -460.6 362.15 -460.5 362.0 -460.8 361.8 -460.7 L361.45 -460.7 361.55 -460.5 Q359.95 -460.5 358.8 -459.65 358.0 -459.1 357.3 -457.95 L356.4 -457.5 356.25 -457.1 355.65 -455.4 353.2 -455.4 Q355.65 -462.25 360.95 -462.85 L360.95 -462.9 Q360.95 -465.6 365.55 -463.45 370.35 -461.15 374.05 -455.4 M364.7 -455.4 L363.95 -455.4 363.75 -456.7 363.0 -459.05 364.15 -458.9 364.9 -458.9 364.7 -458.05 364.7 -455.4 M352.7 -552.65 Q351.2 -552.8 350.1 -552.1 349.35 -551.65 348.7 -550.6 L347.8 -550.35 347.6 -549.95 345.95 -545.5 345.85 -545.35 345.85 -545.3 345.55 -543.1 Q345.2 -540.9 345.1 -537.85 L345.1 -537.3 345.1 -536.55 345.1 -536.45 345.05 -535.6 345.05 -534.55 345.05 -534.25 345.05 -529.55 345.0 -528.15 345.0 -527.65 344.95 -521.15 344.95 -521.0 344.85 -520.3 344.85 -519.15 344.85 -518.65 345.0 -518.4 344.95 -517.8 344.9 -515.15 345.0 -506.35 345.05 -503.85 344.85 -503.65 Q344.75 -503.25 344.8 -502.5 344.85 -501.6 345.15 -500.85 L349.25 -499.65 360.2 -496.7 360.1 -496.95 360.35 -496.95 361.05 -496.7 361.15 -496.45 371.75 -493.9 375.65 -493.0 375.6 -494.55 375.35 -495.75 375.15 -496.0 373.25 -506.35 373.0 -507.65 372.3 -511.05 372.35 -511.15 372.2 -511.7 372.0 -512.85 371.7 -513.65 371.75 -513.85 370.85 -517.8 369.95 -522.55 369.0 -527.35 369.0 -527.7 368.7 -528.85 368.55 -529.8 368.25 -530.7 368.2 -531.2 367.35 -534.5 366.7 -536.85 366.3 -537.85 366.1 -538.35 365.85 -539.05 Q363.4 -544.65 360.3 -548.6 L360.3 -548.7 360.1 -548.85 359.3 -549.8 359.1 -549.8 357.45 -551.05 357.5 -550.9 356.45 -551.4 356.55 -551.5 356.45 -551.55 356.35 -551.55 356.25 -551.65 Q354.5 -552.6 353.3 -552.6 L353.0 -552.8 352.65 -552.85 352.7 -552.65 M355.25 -550.85 L355.9 -550.75 355.7 -550.05 355.75 -547.2 356.25 -544.05 360.95 -497.9 361.0 -497.85 361.0 -497.8 360.05 -498.0 359.95 -498.05 360.0 -498.05 355.3 -543.7 355.3 -543.95 355.25 -544.25 354.75 -548.85 354.1 -551.1 355.25 -550.85 M345.45 -537.1 Q345.8 -537.45 349.15 -536.35 L349.6 -536.2 Q352.95 -535.0 355.25 -529.85 356.85 -526.3 357.15 -523.4 357.2 -522.55 356.95 -523.15 356.25 -524.15 355.65 -526.55 L354.45 -529.95 Q352.3 -534.05 345.4 -536.2 L345.4 -536.6 345.35 -536.9 Q345.2 -537.25 345.45 -537.1 M346.0 -522.5 Q347.0 -523.6 348.95 -523.1 L348.7 -522.55 Q351.8 -523.25 354.5 -519.55 L355.6 -517.8 357.0 -514.85 Q357.8 -512.65 358.0 -511.1 L358.0 -510.65 357.55 -510.4 355.5 -515.7 354.45 -517.8 Q352.95 -520.65 351.7 -520.95 349.45 -521.65 348.15 -521.75 L347.35 -521.0 Q346.6 -520.45 345.3 -520.35 345.05 -521.75 346.0 -522.5 M359.0 -522.55 Q358.85 -522.05 358.8 -522.9 358.45 -525.9 359.35 -528.75 360.7 -533.05 364.5 -531.9 367.5 -531.15 367.95 -530.7 L368.15 -530.4 368.2 -529.65 Q361.4 -531.45 360.2 -528.35 359.8 -527.5 359.6 -525.4 L359.0 -522.55 M343.55 -517.8 L343.25 -530.65 Q343.4 -535.8 344.3 -542.2 345.55 -550.9 347.25 -552.45 357.8 -561.95 368.5 -535.8 L372.55 -517.8 373.6 -513.1 374.35 -510.0 375.25 -506.35 375.6 -504.7 378.35 -492.4 Q378.35 -491.45 377.7 -491.05 L376.9 -490.8 Q375.95 -490.8 369.8 -493.0 363.3 -495.3 354.6 -495.7 350.15 -495.85 341.15 -501.45 L341.1 -502.0 Q342.0 -503.95 342.55 -506.35 343.5 -510.5 343.55 -516.0 L343.55 -517.8 M362.25 -517.45 L362.6 -517.8 Q364.35 -519.3 366.9 -517.8 L367.6 -517.35 367.35 -517.8 367.3 -518.0 367.8 -517.8 Q369.25 -517.15 370.35 -515.85 371.5 -514.5 371.55 -513.1 L369.45 -514.9 368.35 -516.25 364.9 -517.35 Q363.15 -517.9 362.1 -513.85 361.35 -512.05 361.05 -509.55 L360.5 -509.95 360.45 -510.0 360.4 -510.4 Q360.15 -512.15 360.6 -513.9 361.1 -516.3 362.25 -517.45 M242.2 -553.35 L248.2 -553.9 Q245.55 -550.8 243.6 -546.6 L243.3 -545.85 243.1 -545.4 242.85 -544.45 242.85 -544.3 242.85 -544.2 242.8 -544.05 241.55 -540.8 240.85 -535.2 Q239.9 -530.0 238.55 -530.0 L237.8 -530.15 238.0 -531.35 238.95 -537.9 239.45 -540.85 239.6 -541.75 240.15 -544.9 239.55 -544.8 240.8 -548.2 241.1 -549.85 Q241.45 -551.9 242.2 -553.35 M270.0 -532.25 L270.0 -532.35 269.55 -537.1 269.55 -537.45 269.45 -538.55 269.3 -539.45 269.2 -540.4 269.1 -540.9 268.05 -546.3 267.45 -548.7 267.45 -548.8 267.3 -549.0 264.85 -553.9 264.65 -554.35 263.6 -554.85 263.05 -555.5 263.15 -555.5 264.1 -555.5 267.55 -555.8 Q268.8 -553.05 269.8 -549.0 L269.4 -548.95 269.5 -548.6 270.55 -545.8 271.0 -543.15 271.1 -542.85 272.6 -532.7 272.65 -532.2 272.7 -531.7 271.45 -531.45 Q270.6 -531.45 270.05 -532.15 L270.0 -532.25 M254.6 -530.45 L255.0 -549.65 255.3 -552.95 255.2 -554.6 256.4 -554.75 256.35 -554.45 Q256.05 -552.35 256.15 -549.8 L256.15 -549.45 256.1 -549.2 255.7 -530.1 255.25 -530.3 254.6 -530.45 M268.75 -540.2 L268.95 -539.9 268.9 -539.25 Q260.8 -538.5 258.65 -534.7 258.0 -533.7 257.45 -531.4 L257.1 -530.05 256.3 -528.25 Q256.05 -527.6 256.05 -528.5 L256.15 -529.9 Q256.5 -532.2 257.7 -534.8 260.05 -539.9 264.5 -540.2 268.3 -540.5 268.75 -540.2 M252.75 -534.45 Q253.8 -532.0 254.05 -529.7 L254.1 -528.35 Q254.1 -527.45 253.8 -528.1 L253.15 -529.7 252.85 -531.1 251.8 -534.2 Q249.8 -537.65 241.7 -537.25 L241.7 -537.9 241.85 -538.25 246.15 -538.8 Q250.55 -539.2 252.75 -534.45" fill="#789423" fill-rule="evenodd" stroke="none"/>
    <path d="M370.05 -455.4 L368.55 -455.4 367.25 -456.5 367.05 -455.4 365.45 -455.4 365.35 -457.0 365.35 -458.6 367.6 -457.6 368.1 -457.0 368.45 -456.8 370.05 -455.4 M363.05 -455.4 L362.0 -455.4 Q360.95 -456.75 359.6 -455.4 L356.85 -455.4 358.0 -457.05 358.0 -457.1 Q359.8 -458.75 361.85 -459.1 362.55 -457.7 363.05 -455.4 M268.8 -455.4 L253.45 -455.4 253.5 -455.55 253.9 -456.75 254.85 -459.35 Q262.7 -466.15 268.8 -455.4 M243.05 -455.4 L234.4 -455.4 234.95 -455.85 Q239.15 -459.3 241.7 -457.2 L243.05 -455.4 M349.35 -549.75 L349.35 -549.8 Q351.1 -551.15 353.05 -551.25 354.3 -548.45 355.0 -541.95 L355.2 -538.95 355.35 -538.4 356.2 -528.85 355.4 -530.4 Q353.4 -534.05 350.6 -536.1 348.5 -537.7 346.0 -538.55 346.25 -541.65 346.75 -543.8 347.6 -548.2 349.35 -549.75 M359.2 -548.45 Q362.55 -545.9 365.3 -538.35 L366.5 -534.55 367.15 -532.35 Q361.35 -533.75 359.15 -529.3 L358.75 -528.6 Q358.6 -528.45 358.6 -528.15 L357.6 -536.6 Q357.15 -539.05 356.65 -543.8 L356.3 -549.05 Q356.25 -549.95 356.35 -550.55 L358.45 -549.35 358.95 -548.75 359.2 -548.45 M358.05 -548.35 L357.75 -545.55 357.55 -543.4 357.6 -543.15 358.0 -540.7 358.1 -540.25 358.6 -538.2 359.4 -535.3 Q359.6 -534.3 359.95 -533.9 L361.45 -535.0 362.2 -535.55 Q363.7 -536.35 365.05 -535.9 L364.55 -538.45 Q364.1 -540.0 363.05 -541.95 360.8 -546.1 358.05 -548.35 M348.1 -543.3 Q347.6 -542.15 347.7 -541.4 347.85 -539.5 350.45 -537.45 L353.0 -535.9 355.05 -534.55 355.25 -535.65 355.15 -538.75 355.05 -539.8 354.85 -541.7 Q353.5 -550.65 350.7 -547.9 349.55 -546.85 348.55 -544.4 L348.2 -543.5 348.1 -543.3 M345.7 -533.35 L346.4 -534.05 Q347.2 -535.05 348.35 -534.65 353.35 -533.3 355.6 -525.3 L356.85 -520.05 356.95 -519.45 357.4 -514.85 356.35 -517.3 356.05 -517.8 353.8 -520.6 Q351.25 -524.15 349.55 -523.75 L346.85 -523.55 346.6 -523.5 345.8 -522.8 345.7 -524.0 345.7 -528.05 345.7 -533.35 M348.2 -527.55 Q351.25 -526.7 352.9 -525.35 L353.1 -525.15 353.6 -524.7 Q354.8 -522.65 355.8 -521.85 L355.7 -522.5 Q353.15 -531.8 349.8 -533.55 348.35 -534.45 347.6 -533.05 L347.3 -532.4 347.1 -529.45 347.1 -529.3 347.15 -528.75 347.15 -527.95 347.25 -527.8 348.2 -527.55 M361.95 -527.1 L361.6 -526.6 Q360.4 -524.85 360.75 -522.2 L360.9 -521.15 Q360.9 -520.95 361.05 -520.9 L363.05 -521.25 363.25 -521.25 Q364.35 -521.3 368.95 -520.05 L368.85 -521.1 368.8 -522.4 Q368.4 -525.8 367.05 -527.35 365.7 -528.9 364.05 -528.55 362.75 -528.35 361.95 -527.1 M362.25 -517.8 Q361.35 -517.15 360.9 -516.15 L360.2 -514.3 360.2 -514.15 360.15 -514.35 359.75 -518.7 359.65 -519.35 359.85 -524.15 Q360.4 -531.2 365.55 -529.75 366.6 -529.45 367.75 -528.0 L368.45 -526.85 369.6 -521.35 370.25 -517.8 368.8 -517.8 Q367.6 -518.8 366.45 -519.1 364.7 -520.35 362.8 -518.15 L362.25 -517.8 M356.9 -510.4 Q356.45 -511.75 355.45 -513.15 353.5 -516.2 350.3 -517.8 L349.2 -518.3 348.95 -517.8 Q348.0 -515.75 347.8 -514.45 347.6 -513.05 347.9 -510.35 347.8 -510.25 348.45 -506.85 L348.6 -506.35 Q349.55 -503.25 351.45 -502.75 355.95 -501.65 357.05 -504.05 357.45 -504.8 357.45 -506.35 L357.35 -508.6 357.25 -509.45 358.15 -506.35 358.4 -505.15 359.0 -498.45 359.35 -498.25 358.6 -498.45 358.5 -498.55 349.1 -500.8 346.8 -501.25 345.6 -502.1 345.55 -503.8 345.6 -506.35 345.65 -517.8 345.65 -517.85 346.05 -518.7 346.6 -519.75 Q347.4 -521.3 350.45 -520.3 352.15 -519.85 353.6 -517.8 355.4 -515.3 356.9 -510.4 M364.9 -513.35 Q364.3 -512.8 363.9 -511.75 362.9 -509.65 363.05 -506.35 L363.15 -504.7 363.4 -502.6 364.55 -500.15 365.85 -499.75 369.85 -498.7 373.8 -498.15 Q373.1 -502.9 372.05 -506.35 L370.6 -510.0 Q368.75 -513.7 366.9 -513.9 365.75 -514.15 364.9 -513.35 M361.3 -506.35 L361.65 -509.1 Q362.7 -517.0 366.3 -515.95 369.2 -515.3 370.25 -513.3 L371.15 -511.85 371.65 -510.85 372.6 -506.35 375.0 -494.5 Q374.45 -493.8 371.6 -495.1 L362.45 -497.45 361.6 -497.75 361.95 -497.8 361.15 -504.4 361.3 -506.35 M253.85 -534.6 L253.75 -533.75 253.5 -534.15 253.85 -534.6 M269.7 -526.8 L269.8 -525.7 269.65 -525.7 268.65 -526.55 269.7 -526.8 M258.4 -529.5 L258.5 -529.5 260.75 -529.5 260.2 -529.15 Q258.9 -527.25 257.8 -526.65 L257.8 -527.3 258.4 -529.5 M271.8 -506.65 Q271.8 -505.7 271.95 -504.9 271.6 -504.45 270.6 -504.2 L271.8 -506.65 M256.9 -503.5 L256.8 -503.5 255.85 -503.45 256.25 -503.6 256.25 -504.15 256.9 -503.5 M241.9 -528.15 L251.75 -528.85 251.75 -528.0 251.7 -526.9 251.55 -526.6 Q249.75 -527.3 248.75 -527.45 247.4 -527.65 241.9 -527.35 L241.9 -528.15 M253.25 -519.75 L253.3 -519.8 253.3 -519.6 253.25 -519.75 M244.25 -505.75 L243.05 -505.7 238.15 -505.85 Q238.7 -513.35 240.8 -517.3 L241.05 -517.8 Q242.85 -520.75 245.05 -520.65 L246.4 -520.4 245.8 -518.25 245.7 -517.8 Q244.25 -511.4 244.25 -506.45 L244.25 -505.75 M252.25 -503.15 L252.85 -503.75 252.85 -503.35 253.25 -503.25 252.25 -503.15" fill="#1bcb85" fill-rule="evenodd" stroke="none"/>
    <path d="M368.55 -455.4 L367.05 -455.4 367.25 -456.5 368.55 -455.4 M362.0 -455.4 L359.6 -455.4 Q360.95 -456.75 362.0 -455.4 M358.05 -548.35 Q360.8 -546.1 363.05 -541.95 364.1 -540.0 364.55 -538.45 L365.05 -535.9 Q363.7 -536.35 362.2 -535.55 L361.45 -535.0 359.95 -533.9 Q359.6 -534.3 359.4 -535.3 L358.6 -538.2 358.1 -540.25 358.0 -540.7 357.6 -543.15 357.55 -543.4 357.75 -545.55 358.05 -548.35 M348.1 -543.3 L348.2 -543.5 348.55 -544.4 Q349.55 -546.85 350.7 -547.9 353.5 -550.65 354.85 -541.7 L355.05 -539.8 Q353.5 -541.15 351.15 -542.25 L348.1 -543.3 M361.95 -527.1 Q362.75 -528.35 364.05 -528.55 365.7 -528.9 367.05 -527.35 368.4 -525.8 368.8 -522.4 L368.85 -521.1 368.95 -520.05 Q364.35 -521.3 363.25 -521.25 L363.05 -521.25 363.15 -522.55 Q363.25 -524.5 361.95 -527.1 M364.9 -513.35 Q365.75 -514.15 366.9 -513.9 368.75 -513.7 370.6 -510.0 L372.05 -506.35 Q373.1 -502.9 373.8 -498.15 L369.85 -498.7 365.85 -499.75 366.7 -499.55 366.3 -503.15 365.9 -506.35 365.6 -510.9 364.9 -513.35 M251.55 -554.25 L252.35 -554.3 253.05 -551.6 253.5 -549.3 253.45 -549.05 253.15 -546.6 253.1 -546.15 252.7 -544.1 Q251.95 -540.45 251.6 -540.0 249.75 -541.25 248.6 -542.05 246.55 -543.3 244.95 -543.1 244.85 -544.2 245.3 -545.65 245.7 -547.05 246.75 -548.9 248.8 -552.4 251.55 -554.25 M256.95 -546.85 Q257.6 -555.9 261.4 -552.5 262.9 -551.1 264.3 -548.35 L264.85 -547.4 Q265.7 -545.8 265.65 -545.1 265.6 -543.05 262.75 -541.6 L257.4 -539.55 Q256.8 -541.6 256.85 -544.0 L256.95 -546.85 M258.4 -529.5 L258.6 -530.05 258.65 -530.25 263.05 -537.05 263.1 -537.05 263.15 -537.1 263.2 -537.15 263.6 -537.3 263.65 -537.3 263.7 -537.35 263.9 -537.4 Q265.55 -537.95 266.6 -536.4 267.65 -534.9 267.6 -531.9 L267.6 -531.2 267.45 -531.05 Q264.0 -530.95 261.95 -530.15 L260.75 -529.5 258.5 -529.5 258.4 -529.5 M257.4 -514.55 L257.45 -514.6 257.45 -514.7 Q257.85 -516.25 259.1 -517.8 261.5 -520.95 266.05 -521.8 267.55 -519.3 268.05 -517.8 L268.1 -517.65 Q268.5 -516.15 268.45 -513.55 L268.1 -510.1 Q267.3 -506.75 264.9 -506.6 259.65 -506.2 258.05 -508.8 257.25 -510.05 257.25 -513.5 L257.4 -514.55 M241.9 -528.15 L241.85 -528.45 241.8 -529.35 241.8 -529.85 Q241.85 -533.2 243.45 -534.55 244.85 -535.85 246.95 -535.25 248.95 -534.6 250.35 -532.7 251.35 -531.35 251.65 -529.65 L251.75 -528.85 241.9 -528.15 M244.25 -505.75 L244.25 -506.45 Q244.25 -511.4 245.7 -517.8 L245.8 -518.25 246.4 -520.4 Q247.85 -519.85 249.0 -517.85 L249.0 -517.8 Q250.75 -514.85 250.65 -510.55 L250.55 -508.55 249.45 -506.15 244.25 -505.75" fill="#16a56b" fill-rule="evenodd" stroke="none"/>
    <path d="M355.05 -539.8 L355.15 -538.75 355.25 -535.65 355.05 -534.55 353.0 -535.9 350.45 -537.45 Q347.85 -539.5 347.7 -541.4 347.6 -542.15 348.1 -543.3 L351.15 -542.25 Q353.5 -541.15 355.05 -539.8 M347.1 -529.3 L347.1 -529.45 347.3 -532.4 347.6 -533.05 Q348.35 -534.45 349.8 -533.55 353.15 -531.8 355.7 -522.5 L355.8 -521.85 Q354.8 -522.65 353.6 -524.7 L353.1 -525.15 352.9 -525.35 Q351.25 -526.7 348.2 -527.55 L347.15 -529.0 347.1 -529.3 M363.05 -521.25 L361.05 -520.9 Q360.9 -520.95 360.9 -521.15 L360.75 -522.2 Q360.4 -524.85 361.6 -526.6 L361.95 -527.1 Q363.25 -524.5 363.15 -522.55 L363.05 -521.25 M356.9 -510.4 L357.1 -509.85 357.1 -509.8 357.2 -509.65 357.25 -509.45 357.35 -508.6 357.45 -506.35 Q357.45 -504.8 357.05 -504.05 355.95 -501.65 351.45 -502.75 349.55 -503.25 348.6 -506.35 L348.45 -506.85 Q347.8 -510.25 347.9 -510.35 347.6 -513.05 347.8 -514.45 348.0 -515.75 348.95 -517.8 L349.2 -518.3 350.3 -517.8 Q353.5 -516.2 355.45 -513.15 356.45 -511.75 356.9 -510.4 M365.85 -499.75 L364.55 -500.15 363.4 -502.6 363.15 -504.7 363.05 -506.35 Q362.9 -509.65 363.9 -511.75 364.3 -512.8 364.9 -513.35 L365.6 -510.9 365.9 -506.35 366.3 -503.15 366.7 -499.55 365.85 -499.75" fill="#118255" fill-rule="evenodd" stroke="none"/>
    <path d="M272.9 -455.4 L268.8 -455.4 Q262.7 -466.15 254.85 -459.35 L253.9 -456.75 253.5 -455.55 253.45 -455.4 251.45 -455.4 251.4 -456.45 251.95 -459.15 252.25 -461.75 253.5 -464.65 257.55 -464.55 Q259.8 -464.15 261.75 -463.4 264.7 -462.05 267.85 -459.9 270.25 -458.25 272.3 -456.3 L272.9 -455.4 M247.5 -455.4 L243.05 -455.4 241.7 -457.2 Q239.15 -459.3 234.95 -455.85 L234.4 -455.4 231.55 -455.4 232.45 -456.25 Q235.3 -458.9 238.05 -460.7 239.9 -461.8 242.05 -462.7 L245.85 -463.75 247.05 -461.1 247.2 -458.6 247.6 -456.05 247.5 -455.4 M253.5 -534.15 L253.0 -535.05 Q249.75 -540.0 242.7 -539.85 243.45 -543.3 244.4 -545.7 246.4 -551.55 249.35 -554.0 L251.55 -554.25 Q248.8 -552.4 246.75 -548.9 245.7 -547.05 245.3 -545.65 244.85 -544.2 244.95 -543.1 246.55 -543.3 248.6 -542.05 249.75 -541.25 251.6 -540.0 251.95 -540.45 252.7 -544.1 L253.1 -546.15 253.15 -546.6 253.45 -549.05 253.5 -549.3 253.05 -551.6 252.35 -554.3 254.4 -554.55 254.45 -549.6 254.1 -542.25 253.85 -534.6 253.5 -534.15 M262.8 -554.2 L262.8 -554.15 Q265.05 -552.0 266.6 -547.35 L268.0 -541.7 Q260.95 -540.9 257.45 -535.4 L256.65 -533.9 256.65 -543.65 256.75 -544.25 256.75 -547.25 Q256.85 -552.3 257.6 -555.05 L261.05 -555.35 262.8 -554.2 M256.95 -546.85 L256.85 -544.0 Q256.8 -541.6 257.4 -539.55 L262.75 -541.6 Q265.6 -543.05 265.65 -545.1 265.7 -545.8 264.85 -547.4 L264.3 -548.35 Q262.9 -551.1 261.4 -552.5 257.6 -555.9 256.95 -546.85 M268.65 -526.55 L268.45 -526.6 Q266.75 -527.55 265.1 -527.35 263.0 -527.95 260.4 -525.0 258.75 -523.8 257.65 -522.15 L256.55 -519.85 256.6 -524.45 256.7 -525.05 257.55 -530.05 257.6 -530.2 Q259.45 -537.8 265.55 -538.25 266.85 -538.35 268.0 -537.25 L268.8 -536.35 269.35 -531.0 269.4 -530.35 269.7 -526.8 268.65 -526.55 M260.75 -529.5 L261.95 -530.15 Q264.0 -530.95 267.45 -531.05 L267.6 -531.2 267.6 -531.9 Q267.65 -534.9 266.6 -536.4 265.55 -537.95 263.9 -537.4 L263.7 -537.35 263.65 -537.3 263.6 -537.3 263.2 -537.15 263.15 -537.1 263.1 -537.05 263.05 -537.05 258.65 -530.25 258.6 -530.05 258.4 -529.5 257.8 -527.3 257.8 -526.65 Q258.9 -527.25 260.2 -529.15 L260.75 -529.5 M257.45 -514.7 L257.6 -515.25 258.4 -517.8 Q260.7 -523.8 264.45 -524.1 267.95 -524.3 269.05 -522.75 L269.8 -521.6 270.25 -520.7 270.5 -517.8 271.8 -506.65 270.6 -504.2 267.85 -504.25 256.9 -503.5 256.25 -504.15 256.4 -510.2 257.4 -514.55 257.25 -513.5 Q257.25 -510.05 258.05 -508.8 259.65 -506.2 264.9 -506.6 267.3 -506.75 268.1 -510.1 L268.45 -513.55 Q268.5 -516.15 268.1 -517.65 L268.05 -517.8 Q267.55 -519.3 266.05 -521.8 261.5 -520.95 259.1 -517.8 257.85 -516.25 257.45 -514.7 M251.75 -528.85 L251.65 -529.65 Q251.35 -531.35 250.35 -532.7 248.95 -534.6 246.95 -535.25 244.85 -535.85 243.45 -534.55 241.85 -533.2 241.8 -529.85 L241.8 -529.35 241.85 -528.45 241.9 -528.15 241.9 -527.35 Q247.4 -527.65 248.75 -527.45 249.75 -527.3 251.55 -526.6 L251.7 -526.9 251.75 -528.0 251.75 -528.85 M253.25 -519.75 L252.2 -521.8 Q251.2 -523.25 249.6 -524.15 247.1 -526.75 245.0 -525.9 243.3 -525.8 241.6 -524.65 L240.35 -523.55 240.2 -523.55 240.9 -528.9 240.95 -529.25 241.7 -534.35 242.45 -535.4 Q243.7 -536.6 245.0 -536.7 251.1 -537.15 252.6 -529.85 L252.6 -529.7 253.3 -524.8 253.4 -524.2 253.3 -519.8 253.25 -519.75 M246.4 -520.4 L245.05 -520.65 Q242.85 -520.75 241.05 -517.8 L240.8 -517.3 Q238.7 -513.35 238.15 -505.85 L243.05 -505.7 244.25 -505.75 249.45 -506.15 250.55 -508.55 250.65 -510.55 Q250.75 -514.85 249.0 -517.8 L249.0 -517.85 Q247.85 -519.85 246.4 -520.4 M252.25 -503.15 L241.3 -502.3 Q237.8 -501.45 237.15 -502.35 L239.4 -517.8 239.5 -518.45 240.05 -519.35 240.85 -520.7 Q242.05 -522.4 245.5 -522.65 249.05 -522.9 251.0 -517.8 L251.95 -514.8 253.05 -509.95 252.85 -503.75 252.25 -503.15" fill="#77eabc" fill-rule="evenodd" stroke="none"/>
    <path d="M235.15 -528.75 L235.1 -528.55 234.8 -526.55 Q234.0 -521.5 233.7 -517.8 L233.5 -514.3 233.55 -513.8 232.85 -511.3 232.85 -511.25 232.45 -508.65 232.25 -506.75 Q231.15 -503.45 229.45 -500.45 L228.85 -499.55 227.7 -498.0 227.35 -497.5 Q226.55 -497.45 226.5 -495.35 L227.45 -493.25 Q228.0 -492.65 228.85 -492.25 229.85 -491.75 231.25 -491.6 L230.65 -491.4 229.95 -491.35 228.85 -491.35 Q225.8 -491.55 224.45 -493.5 223.35 -495.0 223.4 -497.35 225.7 -500.55 227.95 -506.5 L228.85 -508.95 229.9 -512.45 Q229.4 -512.6 228.85 -512.85 L227.8 -513.4 225.0 -515.25 Q225.75 -515.3 228.85 -516.4 L229.7 -516.75 231.0 -516.9 231.15 -517.8 Q232.2 -522.85 232.55 -528.2 L232.6 -528.45 232.6 -528.25 232.75 -528.25 233.2 -528.25 234.65 -528.5 235.15 -528.75 M281.6 -499.1 L282.2 -500.25 Q282.25 -500.7 281.25 -501.95 L279.55 -504.15 Q278.05 -506.9 277.1 -510.0 L276.9 -511.9 276.7 -514.5 276.7 -514.55 276.05 -516.95 276.15 -517.4 276.15 -517.8 Q276.15 -522.25 275.35 -529.5 L275.2 -530.75 275.15 -531.55 275.75 -531.55 277.25 -531.75 277.3 -530.9 277.65 -526.35 277.85 -517.8 277.85 -517.3 Q278.15 -512.4 280.9 -507.05 L282.6 -503.4 Q283.5 -501.2 283.45 -500.2 283.4 -498.6 282.6 -497.3 L282.45 -497.15 281.25 -495.95 Q281.6 -496.7 281.65 -497.75 L281.6 -499.1 M298.9 -532.5 L298.95 -532.5 299.25 -532.55 299.6 -532.6 300.6 -532.65 301.0 -532.7 301.25 -532.7 301.5 -532.75 302.45 -523.15 302.5 -522.85 302.5 -522.2 302.9 -517.8 Q305.4 -491.6 305.4 -488.75 L305.55 -474.7 Q302.45 -472.85 297.95 -472.85 L286.35 -473.5 Q283.7 -474.15 283.15 -475.85 L263.8 -471.55 256.95 -470.1 250.75 -470.25 Q241.3 -469.75 235.15 -466.25 L223.85 -465.3 217.9 -465.95 218.1 -465.6 Q219.05 -460.5 214.65 -460.5 209.7 -460.5 206.7 -465.65 L208.05 -473.45 210.4 -490.05 213.5 -513.65 214.05 -517.8 215.3 -526.05 217.6 -526.35 219.6 -526.6 220.0 -526.65 220.05 -526.65 219.1 -520.85 Q217.45 -514.05 216.55 -509.85 215.0 -502.9 214.1 -495.8 L214.5 -496.05 215.65 -494.7 Q215.2 -493.85 214.5 -493.5 L213.9 -494.25 Q212.85 -485.0 212.85 -475.45 212.85 -472.75 224.4 -472.75 238.4 -472.75 258.9 -476.9 279.4 -481.05 289.25 -481.05 L290.55 -480.85 Q299.7 -481.4 302.15 -482.5 301.05 -494.15 300.7 -517.6 300.7 -520.55 300.1 -524.4 L298.9 -531.35 298.7 -532.5 298.9 -532.5 M303.65 -523.4 L303.9 -523.4 304.15 -522.65 303.75 -521.9 303.65 -523.4 M294.7 -496.2 L296.85 -496.1 297.2 -495.35 296.6 -494.7 Q296.15 -494.3 295.6 -494.25 L294.85 -494.45 Q294.6 -494.6 294.6 -495.4 294.6 -496.6 294.7 -496.2 M210.4 -535.45 L210.1 -533.9 210.05 -534.1 210.4 -535.45" fill="#f4f8e9" fill-rule="evenodd" stroke="none"/>
    <path d="M237.7 -543.65 L236.85 -538.5 236.65 -537.4 236.7 -538.35 Q236.75 -540.95 237.35 -542.8 L237.7 -543.65 M306.45 -455.4 L279.15 -455.4 Q273.65 -468.05 263.1 -470.0 L256.95 -470.1 263.8 -471.55 283.15 -475.85 Q283.7 -474.15 286.35 -473.5 L297.95 -472.85 Q302.45 -472.85 305.55 -474.7 305.85 -465.6 306.45 -455.4 M225.45 -455.4 L205.1 -455.4 206.4 -463.75 206.7 -465.65 Q209.7 -460.5 214.65 -460.5 219.05 -460.5 218.1 -465.6 L217.9 -465.95 223.85 -465.3 235.15 -466.25 Q232.45 -464.75 230.35 -462.6 L228.85 -460.9 Q227.35 -459.05 226.05 -456.65 L225.45 -455.4 M316.5 -532.7 L317.8 -517.8 318.7 -507.25 318.45 -509.45 317.65 -517.8 316.5 -532.2 316.5 -532.7 M277.3 -530.9 L297.55 -532.45 298.9 -532.5 298.7 -532.5 298.9 -531.35 300.1 -524.4 Q300.7 -520.55 300.7 -517.6 301.05 -494.15 302.15 -482.5 299.7 -481.4 290.55 -480.85 L289.25 -481.05 Q279.4 -481.05 258.9 -476.9 238.4 -472.75 224.4 -472.75 212.85 -472.75 212.85 -475.45 212.85 -485.0 213.9 -494.25 L214.5 -493.5 Q215.2 -493.85 215.65 -494.7 L214.5 -496.05 214.1 -495.8 Q215.0 -502.9 216.55 -509.85 217.45 -514.05 219.1 -520.85 L220.05 -526.65 228.85 -527.75 232.55 -528.2 Q232.2 -522.85 231.15 -517.8 L231.0 -516.9 229.7 -516.75 228.85 -516.4 Q225.75 -515.3 225.0 -515.25 L227.8 -513.4 228.85 -512.85 Q229.4 -512.6 229.9 -512.45 L228.85 -508.95 227.95 -506.5 Q225.7 -500.55 223.4 -497.35 223.35 -495.0 224.45 -493.5 225.8 -491.55 228.85 -491.35 L229.95 -491.35 Q230.25 -491.15 230.65 -491.05 233.7 -489.9 241.65 -489.9 L251.25 -490.75 252.05 -491.05 271.05 -492.45 271.75 -492.25 Q277.4 -493.2 279.3 -494.4 280.05 -494.8 280.3 -495.6 L280.5 -495.6 281.25 -495.95 282.45 -497.15 282.6 -497.3 Q283.4 -498.6 283.45 -500.2 283.5 -501.2 282.6 -503.4 L280.9 -507.05 Q278.15 -512.4 277.85 -517.3 L277.85 -517.8 277.65 -526.35 277.3 -530.9 M275.05 -525.9 L275.5 -521.5 275.1 -524.35 275.05 -525.9 M294.7 -496.2 Q294.6 -496.6 294.6 -495.4 294.6 -494.6 294.85 -494.45 L295.6 -494.25 Q296.15 -494.3 296.6 -494.7 L297.2 -495.35 296.85 -496.1 294.7 -496.2 M235.0 -522.95 L234.85 -521.45 234.3 -518.45 235.0 -522.95" fill="#dbe7b6" fill-rule="evenodd" stroke="none"/>
    <path d="M280.45 -499.1 L280.0 -498.7 276.6 -498.75 280.05 -499.05 280.45 -499.1" fill="#0e693e" fill-rule="evenodd" stroke="none"/>
    <path d="M239.6 -541.75 L239.45 -540.85 239.35 -541.3 239.6 -541.75" fill="#1c9558" fill-rule="evenodd" stroke="none"/>
  </g>
</svg>
