<?xml version="1.0" encoding="UTF-8" standalone="no"?>
<svg xmlns:ffdec="https://www.free-decompiler.com/flash" xmlns:xlink="http://www.w3.org/1999/xlink" ffdec:objectType="shape" height="200.85px" width="206.3px" xmlns="http://www.w3.org/2000/svg">
  <g transform="matrix(1.0, 0.0, 0.0, 1.0, 1748.35, 237.15)">
    <path d="M-1658.7 -236.0 L-1653.65 -236.25 -1607.95 -236.25 -1606.95 -236.0 -1578.75 -236.0 -1577.05 -236.15 -1568.6 -236.5 -1545.5 -236.55 Q-1544.65 -235.3 -1542.05 -234.4 L-1542.6 -232.5 -1568.6 -232.6 -1578.25 -232.1 -1607.3 -232.1 -1608.4 -232.45 -1649.85 -232.75 -1659.5 -232.25 -1680.1 -232.25 Q-1705.25 -233.1 -1739.8 -233.1 -1720.05 -239.45 -1680.0 -235.85 L-1659.85 -235.85 -1658.7 -236.0" fill="#a2a756" fill-rule="evenodd" stroke="none"/>
    <path d="M-1736.35 -39.0 Q-1715.75 -42.9 -1672.15 -46.75 L-1748.35 -36.3 -1736.35 -39.0 M-1655.8 -48.1 L-1652.35 -48.4 -1653.2 -48.1 -1655.8 -48.1" fill="#89a34e" fill-rule="evenodd" stroke="none"/>
  </g>
</svg>
