<?xml version="1.0" encoding="UTF-8" standalone="no"?>
<svg xmlns:ffdec="https://www.free-decompiler.com/flash" xmlns:xlink="http://www.w3.org/1999/xlink" ffdec:objectType="shape" height="974.55px" width="2753.4px" xmlns="http://www.w3.org/2000/svg">
  <g transform="matrix(1.0, 0.0, 0.0, 1.0, 648.05, -130.0)">
    <path d="M1445.55 751.7 L1507.6 776.55 Q1535.35 788.25 1582.1 801.8 L1659.7 824.0 Q1679.15 830.0 1702.55 839.15 1726.4 848.45 1736.7 851.7 1756.25 857.8 1780.9 861.7 1809.8 866.3 1854.05 869.35 L1891.25 869.7 Q1899.3 870.45 1980.95 881.3 2053.5 890.95 2066.6 890.95 2068.25 890.95 2071.7 889.35 2075.2 887.7 2076.8 887.7 L2086.25 888.85 2095.65 890.0 Q2103.5 890.0 2105.0 897.75 2105.75 901.75 2104.95 906.4 2104.95 912.55 2098.65 951.3 2091.75 993.5 2087.55 1006.2 2083.85 1017.6 2077.35 1030.45 2072.2 1040.7 2063.35 1055.4 2059.15 1062.45 2056.75 1065.1 2051.2 1071.05 2041.5 1075.1 L2033.95 1077.8 Q2012.45 1090.3 1978.5 1085.6 1965.75 1086.15 1951.05 1086.15 1943.75 1086.15 1939.05 1083.85 L1889.65 1083.85 Q1652.85 1052.55 1519.8 1008.25 1481.65 995.55 1451.15 981.65 L1451.15 1060.9 1451.25 1094.25 Q1449.8 1095.35 1448.2 1097.2 1445.45 1100.15 1442.8 1104.15 L1442.8 1103.8 1436.2 1104.55 1435.25 1103.05 Q1432.95 1103.95 1430.25 1104.0 1425.2 1103.95 1418.85 1100.85 L952.25 1101.9 Q945.2 1092.35 943.05 1089.05 919.15 1053.15 859.85 996.4 L810.4 949.9 Q781.0 922.35 764.5 905.45 719.75 859.75 646.4 813.3 572.3 766.45 484.95 728.9 400.7 692.75 318.0 671.3 L306.85 668.45 306.85 663.65 Q214.3 643.55 134.55 643.8 L-392.35 643.8 -411.5 646.4 -648.05 646.4 -648.05 579.15 Q-645.9 568.75 -644.25 551.05 -642.85 536.2 -642.85 529.75 L-645.45 450.95 -648.05 372.1 -646.75 331.6 Q-645.45 291.05 -645.45 271.35 -645.45 247.15 -643.15 216.75 -640.9 186.4 -640.9 168.0 L-641.35 142.35 -641.5 130.0 -275.65 131.2 Q-249.2 136.3 -199.65 138.6 -176.55 139.65 -121.5 140.8 -81.8 141.65 -75.15 143.0 -22.45 153.85 15.1 157.35 L56.85 160.65 95.95 163.65 95.95 164.75 103.45 165.4 Q157.9 170.55 205.35 177.6 L214.6 179.95 243.75 187.4 Q260.25 191.4 300.3 202.85 345.6 215.85 373.95 223.15 L399.0 229.3 Q461.9 250.55 549.8 287.1 666.6 335.65 754.8 380.9 829.3 419.25 984.85 498.45 1115.95 566.05 1180.4 603.85 1184.1 606.0 1189.0 609.15 1202.05 614.45 1209.35 617.8 1225.95 625.45 1237.25 633.3 1259.25 648.65 1295.5 663.95 L1326.85 677.05 Q1345.85 685.25 1361.25 693.2 1380.0 702.85 1417.7 730.55 1436.65 744.5 1445.55 751.7" fill="#40a68e" fill-rule="evenodd" stroke="none"/>
  </g>
</svg>
