<?xml version="1.0" encoding="UTF-8" standalone="no"?>
<svg xmlns:ffdec="https://www.free-decompiler.com/flash" xmlns:xlink="http://www.w3.org/1999/xlink" ffdec:objectType="shape" height="383.9px" width="215.75px" xmlns="http://www.w3.org/2000/svg">
  <g transform="matrix(1.0, 0.0, 0.0, 1.0, -210.55, -15.2)">
    <path d="M257.15 371.7 L242.25 371.7 Q240.9 371.85 240.05 372.3 L235.2 372.35 232.0 373.0 212.25 372.95 212.25 372.05 Q212.25 370.0 210.55 367.45 L210.55 344.1 Q214.6 324.6 215.25 300.5 215.5 290.5 214.9 257.0 214.65 241.05 219.35 213.5 224.75 182.05 225.45 170.0 226.55 151.35 231.0 126.5 L239.55 82.85 243.85 62.1 Q247.35 49.65 254.65 39.1 257.25 35.4 263.8 30.0 271.6 23.65 279.6 19.75 299.15 10.35 310.05 20.4 308.65 18.2 307.35 17.4 L307.35 16.15 Q318.1 19.3 324.7 54.2 L325.85 66.6 327.35 81.35 327.75 81.35 Q328.85 86.65 329.75 92.85 330.0 103.15 330.85 115.85 L331.35 120.85 Q335.2 159.25 335.75 168.45 L335.85 169.2 336.05 172.95 336.05 228.4 336.9 259.75 Q337.35 279.4 337.85 291.55 L337.85 334.15 Q337.6 337.6 338.05 343.2 L338.5 348.9 Q336.55 350.8 334.05 354.8 331.3 359.2 328.85 364.5 L327.05 366.95 323.9 370.8 323.45 371.3 323.3 371.5 313.75 371.05 293.2 371.7 257.15 371.7 M331.85 354.35 L332.65 352.5 334.65 348.05 334.55 344.65 Q334.55 343.7 334.7 343.5 L335.15 343.25 335.1 342.85 334.35 335.0 334.35 292.5 Q333.8 285.55 333.7 272.05 L333.7 258.25 Q333.7 238.95 332.65 229.25 L332.65 222.55 332.05 216.85 332.25 214.65 332.65 197.2 332.65 194.45 330.75 155.25 330.65 154.0 330.5 142.0 330.45 141.05 329.7 133.35 329.05 128.35 328.1 120.95 327.25 108.25 Q326.75 98.5 325.5 85.95 L323.0 63.75 Q322.4 58.35 320.8 52.3 L319.6 48.1 319.6 48.0 318.15 40.65 317.95 39.95 315.5 32.55 Q313.7 27.4 312.05 24.0 308.6 24.3 305.2 21.55 L301.75 18.15 Q268.5 18.15 253.5 46.4 L251.55 50.3 251.2 51.05 250.7 52.3 Q248.85 56.5 247.5 60.9 243.55 73.4 243.1 87.4 241.7 99.4 236.3 125.15 231.2 149.5 229.9 162.85 227.5 188.05 221.35 238.4 216.4 283.3 216.4 313.75 L215.9 339.6 215.75 345.2 215.75 346.25 215.45 355.15 215.15 365.15 215.05 369.3 215.05 369.6 250.0 369.7 295.65 369.75 Q314.7 370.6 322.15 370.5 L323.6 370.5 324.1 370.45 323.7 369.85 323.6 369.5 Q323.6 367.7 324.35 363.1 L325.1 357.0 325.1 356.85 325.1 356.75 325.1 356.65 325.1 356.55 325.15 356.4 325.15 356.3 325.15 356.25 325.6 354.2 Q325.7 353.5 325.95 352.7 L325.95 351.7 326.05 309.8 326.25 272.0 Q326.25 256.4 325.25 236.6 324.25 216.8 324.25 207.6 L324.45 203.45 325.1 203.45 325.4 207.25 326.0 215.45 Q326.75 227.25 327.0 237.6 L327.1 247.35 327.1 265.05 327.1 313.1 327.4 329.75 327.95 346.65 327.95 348.5 328.6 357.85 328.35 361.9 328.4 361.75 328.65 361.2 331.0 356.25 331.85 354.35 M317.65 79.0 Q319.25 86.0 320.25 91.65 322.45 103.9 322.75 114.2 L322.75 114.25 322.75 119.7 Q322.55 128.75 324.2 147.0 L324.4 149.0 Q325.95 166.7 325.95 175.1 325.95 177.2 325.1 181.55 L324.45 181.55 323.8 170.55 323.75 170.2 321.5 138.2 321.4 136.8 321.3 135.9 321.25 134.85 321.15 133.85 321.15 133.35 321.0 131.4 319.3 99.05 319.25 97.25 319.25 97.15 319.15 89.65 317.95 84.3 317.95 84.25 313.3 65.2 313.3 64.25 313.95 64.25 317.65 79.0 M324.65 186.6 Q325.05 185.7 325.95 185.4 325.3 189.3 325.3 198.35 L325.25 198.45 324.9 198.75 Q324.45 196.45 324.45 191.85 L324.3 188.0 324.35 187.85 324.5 187.05 324.65 186.65 324.65 186.6" fill="#557546" fill-rule="evenodd" stroke="none"/>
    <path d="M331.85 354.35 Q330.5 331.35 330.5 325.85 330.5 321.05 330.75 318.5 L330.75 272.0 Q330.35 267.9 329.9 259.55 L329.05 247.55 329.05 212.05 328.2 209.5 328.2 174.65 Q327.15 163.25 326.9 141.8 326.75 125.45 326.4 115.65 328.05 130.7 328.8 135.15 L328.8 179.0 Q331.25 185.45 332.65 194.45 L332.65 197.2 332.25 214.65 332.05 216.85 332.65 222.55 332.65 229.25 Q333.7 238.95 333.7 258.25 L333.7 272.05 Q333.8 285.55 334.35 292.5 L334.35 335.0 335.1 342.85 335.15 343.25 334.7 343.5 Q334.55 343.7 334.55 344.65 L334.65 348.05 332.65 352.5 331.85 354.35 M317.95 39.95 Q317.65 41.55 317.65 42.5 317.65 43.55 319.25 51.5 L320.85 59.9 Q320.85 63.8 323.0 84.3 318.35 61.1 307.7 45.65 L307.55 48.0 307.7 49.05 307.7 49.1 307.55 48.9 Q298.4 36.6 287.9 38.0 L279.7 41.0 Q275.1 43.75 270.25 48.85 L269.95 49.15 271.35 49.8 259.65 55.3 247.5 60.9 Q248.85 56.5 250.7 52.3 L251.2 51.05 251.55 50.3 253.5 46.4 Q268.5 18.15 301.75 18.15 L305.2 21.55 Q308.6 24.3 312.05 24.0 313.7 27.4 315.5 32.55 L317.95 39.95" fill="#7cb661" fill-rule="evenodd" stroke="none"/>
    <path d="M332.65 194.45 Q331.25 185.45 328.8 179.0 L328.8 135.15 Q328.05 130.7 326.4 115.65 326.75 125.45 326.9 141.8 327.15 163.25 328.2 174.65 L328.2 209.5 329.05 212.05 329.05 247.55 329.9 259.55 Q330.35 267.9 330.75 272.0 L330.75 318.5 Q330.5 321.05 330.5 325.85 330.5 331.35 331.85 354.35 L331.0 356.25 328.65 361.2 328.4 361.75 328.35 361.9 328.6 357.85 327.95 348.5 327.95 346.65 327.4 329.75 327.95 314.0 328.2 298.55 327.1 265.05 327.1 247.35 327.0 237.6 327.1 237.3 Q327.95 235.1 327.95 234.05 327.95 231.1 326.7 221.2 L326.0 215.45 325.4 207.25 325.25 198.45 325.3 198.35 Q325.3 189.3 325.95 185.4 325.05 185.7 324.65 186.6 L324.55 185.65 Q323.95 177.45 323.8 170.55 L324.45 181.55 325.1 181.55 Q325.95 177.2 325.95 175.1 325.95 166.7 324.4 149.0 L324.65 135.25 Q324.65 125.75 322.75 114.25 L322.75 114.2 Q322.45 103.9 320.25 91.65 319.25 86.0 317.65 79.0 317.0 70.9 315.45 66.15 311.55 54.8 308.4 50.0 L307.7 49.05 307.55 48.0 307.7 45.65 Q318.35 61.1 323.0 84.3 320.85 63.8 320.85 59.9 L319.25 51.5 Q317.65 43.55 317.65 42.5 317.65 41.55 317.95 39.95 L318.15 40.65 319.6 48.0 319.6 48.1 320.8 52.3 Q322.4 58.35 323.0 63.75 L325.5 85.95 Q326.75 98.5 327.25 108.25 L328.1 120.95 329.05 128.35 329.7 133.35 330.45 141.05 330.5 142.0 330.65 154.0 330.75 155.25 332.65 194.45 M325.95 351.7 L325.95 352.7 Q325.7 353.5 325.6 354.2 L325.8 353.3 325.95 351.7 M323.7 369.85 L324.1 370.45 323.6 370.5 323.7 369.85 M250.0 369.7 L215.05 369.6 215.05 369.3 215.15 365.15 235.55 364.1 250.1 364.1 Q249.75 365.15 249.75 366.35 L249.8 368.25 250.0 369.7 M307.55 48.9 Q302.65 43.2 295.65 46.2 293.45 47.15 291.7 48.75 L286.85 48.45 280.95 49.45 275.05 50.45 271.35 49.8 269.95 49.15 270.25 48.85 Q275.1 43.75 279.7 41.0 L287.9 38.0 Q298.4 36.6 307.55 48.9 M317.95 84.3 L319.15 89.65 319.25 97.15 Q318.45 92.65 317.95 84.3" fill="#97c581" fill-rule="evenodd" stroke="none"/>
    <path d="M307.7 49.05 L308.4 50.0 Q311.55 54.8 315.45 66.15 317.0 70.9 317.65 79.0 L313.95 64.25 313.3 64.25 313.3 65.2 317.95 84.25 317.95 84.3 Q318.45 92.65 319.25 97.15 L319.25 97.25 319.3 99.05 321.0 131.4 321.15 133.35 321.15 133.85 321.25 134.85 321.3 135.9 321.4 136.8 321.5 138.2 323.75 170.2 323.8 170.55 Q323.95 177.45 324.55 185.65 L324.65 186.6 324.65 186.65 324.5 187.05 324.35 187.85 324.3 188.0 324.45 191.85 Q324.45 196.45 324.9 198.75 L325.25 198.45 325.4 207.25 325.1 203.45 324.45 203.45 324.25 207.6 Q324.25 216.8 325.25 236.6 326.25 256.4 326.25 272.0 L326.05 309.8 325.95 351.7 325.8 353.3 325.6 354.2 325.15 356.25 325.15 356.3 325.15 356.4 325.1 356.55 325.1 356.65 325.1 356.75 325.1 356.85 325.1 357.0 324.35 363.1 Q323.6 367.7 323.6 369.5 L323.7 369.85 323.6 370.5 322.15 370.5 Q314.7 370.6 295.65 369.75 L250.0 369.7 249.8 368.25 249.75 366.35 Q249.75 365.15 250.1 364.1 L282.8 364.1 291.3 365.3 299.2 366.0 Q317.2 366.0 320.25 357.45 L320.8 354.95 320.9 356.05 320.45 350.35 319.8 347.1 Q319.8 345.5 320.25 344.65 320.35 335.05 321.4 324.8 322.55 313.25 322.55 295.65 L322.0 277.95 Q311.9 268.4 293.95 247.55 L294.2 246.9 321.65 267.7 320.85 249.9 320.85 214.4 320.0 212.5 320.0 174.45 319.55 139.85 319.35 117.7 Q319.35 103.85 315.9 85.35 L308.75 84.2 Q303.6 83.05 297.05 83.5 304.8 76.7 313.65 74.3 L313.45 73.5 310.55 62.0 309.55 62.1 300.45 62.9 Q302.75 60.95 306.1 59.85 307.85 59.3 309.65 59.05 303.6 50.15 291.7 48.75 293.45 47.15 295.65 46.2 302.65 43.2 307.55 48.9 L307.7 49.1 307.7 49.05 M215.45 355.15 L215.75 346.25 215.75 345.2 215.9 339.6 Q224.1 335.45 235.75 330.45 246.4 325.85 268.4 316.65 286.7 308.75 295.05 303.85 271.55 321.45 252.2 334.25 229.45 349.25 215.45 355.15 M293.35 71.5 Q292.15 72.6 288.85 73.2 L288.2 73.45 Q287.5 73.45 287.5 72.1 287.5 71.05 288.75 70.25 290.3 69.25 292.5 69.8 292.5 70.2 293.35 71.5 M300.65 141.95 Q303.35 141.75 305.35 143.3 305.05 144.2 303.15 145.4 301.3 146.5 300.45 146.5 L298.8 146.3 298.75 146.05 298.1 145.7 Q297.9 145.5 297.9 144.15 297.9 142.15 300.65 141.95 M286.3 168.9 L284.7 168.6 284.3 167.85 Q286.4 165.0 288.45 164.5 L292.5 164.75 290.7 167.1 Q288.85 168.9 286.3 168.9 M307.4 205.3 L306.0 206.1 301.5 206.1 301.3 206.0 Q301.1 205.9 301.1 204.6 L301.2 203.15 301.3 203.25 Q306.25 203.25 308.2 204.1 308.2 204.65 307.4 205.3 M309.5 215.55 L309.5 213.55 Q313.0 213.55 315.75 215.55 L315.75 216.85 314.85 217.15 312.9 217.45 Q311.55 217.45 310.6 216.75 L309.5 215.55 M254.7 270.3 Q254.05 269.5 253.95 268.6 L254.0 268.05 Q254.0 260.15 277.7 269.95 274.85 271.65 263.5 272.95 256.75 272.95 254.7 270.3 M286.65 344.95 Q286.15 345.85 284.5 346.25 283.45 345.8 283.05 345.1 284.25 343.6 285.8 343.6 L286.15 344.0 286.65 344.95 M307.2 353.9 Q306.4 354.45 305.15 354.45 L303.25 354.25 303.0 354.0 302.55 353.7 Q302.35 353.6 302.35 352.3 302.35 351.15 303.75 350.3 305.35 349.35 307.35 350.05 L308.4 351.35 308.0 353.35 307.2 353.9" fill="#85b674" fill-rule="evenodd" stroke="none"/>
    <path d="M322.75 114.25 Q324.65 125.75 324.65 135.25 L324.4 149.0 324.2 147.0 Q322.55 128.75 322.75 119.7 L322.75 114.25 M326.0 215.45 L326.7 221.2 Q327.95 231.1 327.95 234.05 327.95 235.1 327.1 237.3 L327.0 237.6 Q326.75 227.25 326.0 215.45 M327.1 265.05 L328.2 298.55 327.95 314.0 327.4 329.75 327.1 313.1 327.1 265.05" fill="#84b06f" fill-rule="evenodd" stroke="none"/>
    <path d="M257.15 371.7 L293.2 371.7 313.75 371.05 323.3 371.5 323.45 371.3 323.9 370.8 327.4 370.95 Q337.85 371.35 347.95 371.35 L354.8 372.25 359.9 373.3 335.4 374.85 307.45 377.0 292.2 376.5 293.25 376.6 Q292.25 377.25 290.65 377.75 286.55 379.1 277.1 379.9 L273.55 379.4 273.3 378.9 273.1 378.05 266.15 379.1 257.8 379.1 256.25 377.9 Q255.65 377.35 255.65 376.8 255.65 375.55 259.15 375.15 L260.6 375.05 Q259.2 374.65 258.35 374.05 257.2 373.25 257.15 371.7 M327.05 366.95 L328.85 364.5 Q331.3 359.2 334.05 354.8 L334.2 354.6 Q337.2 353.55 340.4 354.9 L336.65 358.95 332.7 363.4 Q334.5 364.5 334.5 366.1 334.5 367.1 333.7 367.8 332.8 368.6 331.25 368.6 328.1 368.6 327.05 366.95 M333.7 386.8 L332.2 386.65 331.55 386.5 331.3 385.95 Q331.05 385.5 331.05 384.55 331.05 382.55 348.55 379.7 L368.95 376.8 389.15 373.3 401.05 372.85 Q364.9 379.65 344.35 384.3 L333.7 386.8 M403.15 373.55 Q395.2 376.6 377.15 380.8 362.15 384.3 350.05 385.75 L350.0 385.75 350.2 385.7 Q376.6 378.15 403.15 373.55" fill="#d5dfbb" fill-rule="evenodd" stroke="none"/>
    <path d="M401.05 372.85 L416.95 369.9 Q426.15 369.75 426.3 370.05 L403.15 373.55 Q376.6 378.15 350.2 385.7 L350.0 385.75 350.05 385.75 322.8 393.35 Q307.4 397.2 292.25 399.1 308.95 392.8 333.7 386.8 L344.35 384.3 Q364.9 379.65 401.05 372.85" fill="#89a34e" fill-rule="evenodd" stroke="none"/>
    <path d="M215.15 365.15 L215.45 355.15 Q229.45 349.25 252.2 334.25 271.55 321.45 295.05 303.85 286.7 308.75 268.4 316.65 246.4 325.85 235.75 330.45 224.1 335.45 215.9 339.6 L216.4 313.75 Q216.4 283.3 221.35 238.4 227.5 188.05 229.9 162.85 231.2 149.5 236.3 125.15 241.7 99.4 243.1 87.4 243.55 73.4 247.5 60.9 L259.65 55.3 271.35 49.8 275.05 50.45 280.95 49.45 286.85 48.45 291.7 48.75 Q303.6 50.15 309.65 59.05 307.85 59.3 306.1 59.85 302.75 60.95 300.45 62.9 L309.55 62.1 310.55 62.0 313.45 73.5 313.65 74.3 Q304.8 76.7 297.05 83.5 303.6 83.05 308.75 84.2 L315.9 85.35 Q319.35 103.85 319.35 117.7 L319.55 139.85 320.0 174.45 320.0 212.5 320.85 214.4 320.85 249.9 321.65 267.7 294.2 246.9 293.95 247.55 Q311.9 268.4 322.0 277.95 L322.55 295.65 Q322.55 313.25 321.4 324.8 320.35 335.05 320.25 344.65 319.8 345.5 319.8 347.1 L320.45 350.35 320.9 356.05 320.8 354.95 320.25 357.45 Q317.2 366.0 299.2 366.0 L291.3 365.3 282.8 364.1 250.1 364.1 235.55 364.1 215.15 365.15 M293.35 71.5 Q292.5 70.2 292.5 69.8 290.3 69.25 288.75 70.25 287.5 71.05 287.5 72.1 287.5 73.45 288.2 73.45 L288.85 73.2 Q292.15 72.6 293.35 71.5 M254.7 270.3 Q256.75 272.95 263.5 272.95 274.85 271.65 277.7 269.95 254.0 260.15 254.0 268.05 L253.95 268.6 Q254.05 269.5 254.7 270.3 M309.5 215.55 L310.6 216.75 Q311.55 217.45 312.9 217.45 L314.85 217.15 315.75 216.85 315.75 215.55 Q313.0 213.55 309.5 213.55 L309.5 215.55 M307.4 205.3 Q308.2 204.65 308.2 204.1 306.25 203.25 301.3 203.25 L301.2 203.15 301.1 204.6 Q301.1 205.9 301.3 206.0 L301.5 206.1 306.0 206.1 307.4 205.3 M286.3 168.9 Q288.85 168.9 290.7 167.1 L292.5 164.75 288.45 164.5 Q286.4 165.0 284.3 167.85 L284.7 168.6 286.3 168.9 M300.65 141.95 Q297.9 142.15 297.9 144.15 297.9 145.5 298.1 145.7 L298.75 146.05 298.8 146.3 300.45 146.5 Q301.3 146.5 303.15 145.4 305.05 144.2 305.35 143.3 303.35 141.75 300.65 141.95 M307.2 353.9 L308.0 353.35 308.4 351.35 307.35 350.05 Q305.35 349.35 303.75 350.3 302.35 351.15 302.35 352.3 302.35 353.6 302.55 353.7 L303.0 354.0 303.25 354.25 305.15 354.45 Q306.4 354.45 307.2 353.9 M286.65 344.95 L286.15 344.0 285.8 343.6 Q284.25 343.6 283.05 345.1 283.45 345.8 284.5 346.25 286.15 345.85 286.65 344.95" fill="#6aa457" fill-rule="evenodd" stroke="none"/>
  </g>
</svg>
