<?xml version="1.0" encoding="UTF-8" standalone="no"?>
<svg xmlns:ffdec="https://www.free-decompiler.com/flash" xmlns:xlink="http://www.w3.org/1999/xlink" ffdec:objectType="shape" height="68.1px" width="51.35px" xmlns="http://www.w3.org/2000/svg">
  <g transform="matrix(1.0, 0.0, 0.0, 1.0, 25.7, 217.0)">
    <path d="M20.4 -209.4 Q20.95 -210.0 22.7 -210.0 25.2 -210.0 25.65 -196.95 L25.55 -183.55 Q25.55 -180.85 24.4 -166.3 L23.1 -149.9 21.9 -149.5 Q20.95 -149.05 20.4 -148.9 17.3 -151.9 17.35 -158.2 17.35 -162.35 18.8 -167.6 L18.8 -176.35 Q14.95 -176.15 11.7 -174.85 8.85 -173.4 7.9 -173.2 L-1.15 -173.2 Q-5.4 -177.8 -5.6 -189.15 -5.7 -195.5 -5.0 -208.25 L-4.95 -209.95 Q-4.7 -210.15 -4.6 -210.55 2.15 -209.0 1.95 -197.95 0.6 -184.65 1.55 -179.5 L8.15 -179.5 Q15.65 -181.55 18.55 -185.0 20.85 -187.8 20.65 -192.25 20.55 -194.85 19.45 -200.45 18.75 -205.5 19.95 -208.85 L20.4 -209.4 M-24.2 -216.2 Q-22.55 -223.65 -13.05 -160.1 -13.05 -153.5 -13.35 -150.05 L-14.35 -149.6 Q-15.3 -149.05 -15.95 -148.9 -17.25 -152.0 -18.4 -156.15 -22.65 -158.6 -24.55 -177.25 -25.65 -187.85 -25.7 -197.5 -25.7 -213.85 -25.35 -215.7 -25.0 -217.65 -24.2 -216.2" fill="#ffffff" fill-rule="evenodd" stroke="none"/>
  </g>
</svg>
