<?xml version="1.0" encoding="UTF-8" standalone="no"?>
<svg xmlns:ffdec="https://www.free-decompiler.com/flash" xmlns:xlink="http://www.w3.org/1999/xlink" ffdec:objectType="shape" height="1.55px" width="1.75px" xmlns="http://www.w3.org/2000/svg">
  <g transform="matrix(1.0, 0.0, 0.0, 1.0, 0.85, 0.75)">
    <path d="M0.45 -0.35 Q0.2 -0.6 -0.15 -0.5 L-0.25 -0.5 Q-0.45 -0.35 -0.55 -0.1 L-0.6 0.0 Q-0.5 0.2 -0.35 0.35 L-0.25 0.45 Q0.0 0.45 0.15 0.2 L0.2 0.1 0.05 0.0 -0.05 -0.05 -0.1 0.05 0.0 0.15 0.0 0.3 -0.3 0.3 Q-0.4 0.2 -0.4 0.1 -0.4 -0.1 -0.35 -0.2 -0.05 -0.55 0.2 -0.3 0.5 -0.05 0.45 0.15 0.45 0.35 0.3 0.5 0.1 0.75 -0.25 0.8 -0.65 0.65 -0.8 0.3 -0.9 0.05 -0.8 -0.2 -0.65 -0.55 -0.3 -0.7 0.05 -0.85 0.35 -0.65 0.8 -0.45 0.9 0.1 0.95 0.4 0.6 0.65 0.75 0.2 0.55 -0.15 L0.45 -0.35" fill="#000000" fill-rule="evenodd" stroke="none"/>
  </g>
</svg>
