<?xml version="1.0" encoding="UTF-8" standalone="no"?>
<svg xmlns:ffdec="https://www.free-decompiler.com/flash" xmlns:xlink="http://www.w3.org/1999/xlink" ffdec:objectType="shape" height="425.75px" width="1494.45px" xmlns="http://www.w3.org/2000/svg">
  <g transform="matrix(1.0, 0.0, 0.0, 1.0, -95.8, -574.35)">
    <path d="M1533.0 901.9 Q1560.65 899.05 1570.85 896.7 1576.85 895.3 1582.4 895.3 1586.85 895.3 1590.25 896.6 1589.9 897.85 1589.7 899.3 1588.75 905.25 1588.15 916.35 1587.7 924.65 1587.7 928.6 1587.7 930.95 1588.05 932.85 1579.05 942.35 1566.8 952.2 1551.15 964.75 1536.75 972.3 1520.2 981.05 1509.15 981.05 1500.2 981.05 1495.25 977.25 1474.65 1000.1 1447.9 1000.1 1435.8 1000.1 1430.05 992.65 1428.85 991.1 1426.85 987.35 1425.45 984.8 1424.5 984.55 1409.2 984.4 1376.7 988.95 L1338.95 994.85 1272.45 994.85 Q1268.8 994.25 1251.95 987.9 1235.75 981.75 1234.6 981.75 1234.05 981.75 1226.95 986.55 1219.85 991.35 1216.65 991.35 1206.45 991.35 1201.85 983.3 1200.7 981.25 1200.05 979.3 L1199.15 979.3 Q1182.1 979.3 1170.05 973.05 1164.15 970.0 1161.2 966.8 1159.0 968.65 1155.15 970.55 1150.35 972.95 1144.95 974.2 1144.85 976.45 1143.45 978.45 1141.1 981.75 1136.0 981.75 1128.7 981.75 1119.9 974.75 1112.2 968.65 1112.2 966.45 L1112.25 965.5 1071.4 965.75 Q1062.5 967.65 1046.1 969.95 L1023.75 972.3 Q1009.65 972.3 1004.4 964.0 1001.85 959.85 1001.85 954.15 1001.85 944.7 1019.15 925.9 1028.25 916.1 1041.25 903.4 1054.2 887.95 1073.5 885.85 1094.8 883.5 1112.3 899.9 L1149.05 900.15 Q1151.7 900.15 1155.7 899.0 L1162.65 897.05 1232.85 896.85 Q1253.35 892.15 1267.05 890.0 1297.8 885.05 1326.7 885.05 1359.5 885.05 1388.5 891.65 L1473.25 891.8 Q1509.5 887.65 1519.25 902.0 L1519.85 903.0 1533.0 901.9 M233.4 584.25 L336.4 583.8 Q343.2 580.5 367.05 578.15 L390.9 576.4 Q424.15 570.45 437.6 581.95 444.9 588.25 444.9 597.4 444.9 607.55 438.3 620.85 431.25 634.95 419.35 647.1 405.95 660.7 389.45 668.45 370.65 677.25 350.0 677.25 333.75 677.25 327.8 668.65 325.85 665.8 324.95 661.9 L324.15 657.1 Q316.3 661.05 306.7 670.15 297.05 677.25 280.85 677.25 264.1 677.25 248.35 671.05 236.6 666.45 232.05 661.9 L209.25 662.6 192.7 663.25 178.85 663.1 Q177.8 666.65 175.4 669.4 170.0 675.5 158.8 675.5 145.6 675.5 140.45 667.25 138.3 663.8 137.9 659.85 95.8 653.2 95.8 633.7 95.8 620.55 99.15 606.3 105.05 581.0 118.55 577.7 L197.05 577.7 233.4 584.25" fill="#999674" fill-rule="evenodd" stroke="none"/>
  </g>
</svg>
