<?xml version="1.0" encoding="UTF-8" standalone="no"?>
<svg xmlns:ffdec="https://www.free-decompiler.com/flash" xmlns:xlink="http://www.w3.org/1999/xlink" ffdec:objectType="shape" height="818.25px" width="2873.25px" xmlns="http://www.w3.org/2000/svg">
  <g transform="matrix(1.0, 0.0, 0.0, 1.0, 139.8, 1178.25)">
    <path d="M2583.7 -777.85 L2597.25 -790.8 Q2628.55 -820.55 2628.55 -828.25 2628.55 -830.35 2628.05 -831.7 2633.35 -830.35 2639.25 -828.25 2658.8 -819.55 2680.05 -814.3 2691.8 -811.45 2709.55 -808.1 2722.55 -805.2 2727.45 -800.9 2733.45 -795.6 2733.45 -784.1 2733.45 -774.3 2726.9 -767.6 2718.45 -758.95 2702.8 -761.6 2709.05 -758.45 2711.45 -750.7 2712.9 -745.95 2712.9 -738.8 2712.9 -726.35 2706.65 -718.55 2702.6 -713.5 2691.1 -706.3 2677.65 -697.85 2671.15 -691.9 2659.4 -681.05 2651.6 -665.15 L2651.6 -566.15 Q2645.5 -544.25 2606.15 -540.45 2592.9 -539.2 2572.45 -539.7 2550.95 -540.55 2542.5 -540.55 2523.35 -540.55 2511.4 -543.7 2505.05 -529.85 2492.7 -527.05 L2115.55 -527.05 Q2103.5 -526.15 2097.2 -535.8 2094.85 -539.35 2093.75 -543.05 L1925.85 -543.05 1925.85 -537.35 1912.25 -539.75 Q1909.75 -539.75 1902.25 -537.25 1894.75 -534.75 1892.25 -534.75 L1874.75 -536.75 1857.25 -538.75 Q1855.4 -538.75 1854.05 -537.8 L1851.7 -535.75 Q1848.4 -532.75 1842.25 -532.75 1825.25 -532.75 1804.75 -537.2 L1798.25 -536.75 Q1781.8 -536.75 1776.3 -537.2 1765.75 -538.1 1737.25 -542.75 L1735.25 -542.25 Q1739.2 -536.4 1747.8 -534.1 L1753.8 -532.3 Q1756.8 -531.05 1758.25 -528.75 1758.05 -528.25 1757.9 -525.6 1757.85 -523.9 1756.35 -523.05 1752.25 -520.75 1730.25 -520.75 L1624.15 -530.85 1586.75 -534.6 1540.4 -533.0 Q1539.15 -531.55 1537.25 -530.75 L1515.25 -530.05 1519.65 -528.6 Q1521.45 -527.8 1524.2 -526.05 L1529.2 -523.3 Q1537.1 -519.8 1556.25 -516.75 1554.85 -514.3 1551.65 -511.6 1548.2 -508.75 1546.25 -508.75 L1531.65 -512.8 Q1516.45 -516.95 1511.25 -517.25 L1459.5 -519.85 1420.5 -522.25 1349.5 -522.75 Q1346.65 -524.1 1343.75 -525.05 1338.4 -526.8 1329.0 -527.75 L1328.85 -528.95 1300.5 -528.75 Q1259.4 -528.75 1185.05 -533.05 1097.45 -538.15 1092.5 -543.75 L1012.35 -548.55 994.9 -547.85 968.5 -546.75 Q928.55 -546.75 908.8 -553.7 L907.85 -554.05 Q900.4 -554.7 899.0 -555.25 L898.5 -558.25 898.5 -558.3 897.65 -558.75 Q892.9 -561.4 890.5 -561.75 893.35 -563.95 893.95 -569.15 894.75 -575.9 895.55 -577.6 897.55 -581.9 904.9 -583.6 890.1 -586.15 880.6 -590.25 865.4 -596.85 863.7 -607.7 L859.95 -608.95 Q835.3 -617.25 809.5 -630.75 784.65 -643.75 768.6 -656.3 751.75 -669.45 751.75 -676.75 L720.75 -676.75 721.45 -675.45 Q721.75 -674.6 721.75 -671.5 721.75 -663.1 718.1 -659.35 715.35 -656.6 707.8 -654.55 695.95 -651.3 692.0 -649.75 681.3 -645.5 671.75 -637.75 L597.75 -637.75 Q555.65 -639.95 540.45 -637.6 L528.65 -635.45 Q520.9 -634.15 509.75 -633.75 L457.25 -633.25 Q424.75 -632.7 408.45 -633.5 L395.3 -634.55 384.25 -633.1 341.75 -625.75 88.0 -625.75 Q66.45 -623.85 57.05 -632.1 L57.85 -632.1 Q65.75 -632.1 108.95 -673.45 L128.75 -692.55 142.7 -706.1 158.1 -720.55 Q165.15 -722.1 171.25 -724.25 176.9 -726.25 181.4 -728.55 L191.95 -727.35 209.0 -724.85 242.0 -724.85 Q246.45 -726.5 262.4 -740.3 279.0 -754.6 279.0 -758.0 L278.95 -759.8 282.0 -762.1 281.55 -763.2 281.25 -764.1 277.35 -764.0 Q275.3 -765.85 270.9 -763.35 266.25 -760.7 259.25 -753.35 255.75 -749.65 252.65 -744.95 249.8 -740.6 248.6 -739.45 246.35 -737.35 242.2 -736.5 L228.5 -735.6 Q227.5 -735.6 223.05 -737.7 217.95 -740.1 209.5 -741.1 L191.15 -743.1 167.5 -744.35 Q150.95 -744.35 150.3 -741.4 150.1 -740.65 151.2 -738.45 152.25 -736.35 151.75 -735.1 149.25 -728.95 142.05 -726.9 L137.6 -725.6 Q135.75 -724.75 135.75 -723.1 135.75 -714.6 117.65 -700.05 L108.0 -692.55 103.85 -689.25 Q96.7 -683.6 94.75 -680.6 88.5 -671.2 69.65 -653.45 54.85 -639.5 53.0 -637.05 50.0 -642.45 50.0 -651.5 50.0 -660.3 52.85 -665.55 55.25 -670.0 61.4 -674.6 65.2 -677.45 75.65 -684.6 L85.75 -692.55 Q90.75 -696.8 95.5 -701.5 101.85 -707.75 105.75 -715.2 108.0 -719.4 111.4 -727.2 114.85 -733.85 120.3 -738.7 127.3 -744.95 140.25 -751.0 155.9 -758.25 190.8 -773.9 222.7 -788.35 242.45 -798.45 299.7 -827.7 311.25 -848.5 285.05 -845.8 274.95 -856.55 269.75 -862.05 269.75 -869.5 269.75 -871.8 270.4 -874.25 271.7 -879.4 275.2 -883.2 286.2 -895.2 314.75 -890.5 L314.05 -893.85 Q313.75 -895.65 313.75 -898.75 313.75 -899.65 319.85 -908.3 326.7 -918.05 334.65 -927.7 340.65 -935.05 345.95 -940.75 360.8 -956.75 369.75 -959.5 L459.75 -959.5 480.75 -956.0 535.75 -955.5 564.25 -954.0 697.75 -953.5 Q704.2 -952.35 710.75 -949.4 L722.4 -943.4 722.95 -943.1 723.1 -943.1 723.3 -942.9 Q738.9 -934.75 755.25 -932.0 773.2 -928.85 778.05 -918.3 779.95 -914.1 779.75 -910.05 797.05 -908.25 811.4 -905.55 L827.55 -905.45 Q835.55 -911.7 850.5 -913.0 L849.8 -916.75 Q849.5 -918.85 849.5 -922.0 849.5 -930.0 855.15 -935.15 863.1 -942.35 880.35 -943.2 882.1 -937.75 887.3 -933.65 L887.4 -933.55 Q884.65 -931.9 882.75 -929.9 880.5 -927.5 880.5 -926.0 880.5 -922.75 881.9 -921.75 L885.5 -920.5 895.4 -922.65 Q892.95 -919.6 888.05 -914.45 L888.5 -914.5 892.9 -914.0 893.5 -913.55 888.7 -910.3 885.5 -910.5 Q881.75 -910.5 875.8 -908.15 868.15 -904.85 862.9 -903.0 841.75 -895.5 811.75 -895.5 777.25 -895.5 748.25 -903.35 740.2 -905.55 729.15 -909.4 719.45 -912.8 716.25 -913.5 L724.8 -918.95 Q726.75 -920.6 726.75 -924.75 L726.75 -927.25 727.85 -926.75 728.1 -928.0 Q728.1 -929.75 724.7 -933.15 L722.65 -935.0 Q724.85 -936.8 724.85 -938.0 724.85 -939.0 724.25 -939.9 723.3 -941.3 721.1 -941.85 L708.1 -942.85 679.35 -943.1 Q677.35 -949.45 662.4 -948.1 651.55 -947.2 644.85 -944.6 L598.1 -944.35 Q595.5 -943.95 581.95 -943.95 568.4 -943.95 567.1 -944.35 L516.1 -944.35 Q501.95 -943.65 472.9 -943.45 L423.75 -943.1 405.75 -942.7 Q400.4 -947.55 389.9 -944.95 385.5 -943.9 377.7 -940.85 L376.55 -940.7 Q377.25 -942.1 377.25 -943.75 377.25 -948.3 368.25 -943.45 362.35 -940.35 354.15 -934.1 L349.05 -932.6 345.95 -931.45 Q342.5 -930.0 342.5 -929.0 342.5 -927.45 342.75 -927.5 L343.0 -927.85 Q343.75 -927.45 345.5 -927.2 335.95 -919.35 328.5 -911.85 319.5 -902.75 319.5 -900.0 319.5 -898.25 320.5 -897.35 322.45 -895.6 328.5 -895.6 L329.85 -895.65 Q329.5 -894.95 329.5 -894.6 329.5 -894.1 333.0 -889.85 336.7 -885.35 338.0 -885.35 339.2 -885.35 342.55 -894.15 344.75 -900.0 345.45 -902.75 L345.95 -903.1 Q351.35 -906.9 357.75 -912.65 363.5 -917.75 368.0 -922.7 372.2 -924.2 377.05 -927.6 L380.3 -929.95 490.8 -925.05 562.75 -921.5 Q563.2 -913.65 571.55 -906.8 581.65 -898.5 597.75 -898.5 618.55 -898.5 647.2 -904.7 L667.9 -909.25 Q678.7 -911.5 685.25 -912.0 684.8 -897.2 708.7 -887.45 740.4 -874.5 808.5 -874.5 833.25 -874.5 855.4 -882.5 L855.5 -882.5 Q861.9 -882.5 868.1 -883.75 L861.45 -879.05 852.75 -873.2 852.9 -873.15 851.85 -871.95 Q852.4 -871.65 853.0 -871.3 L869.65 -882.3 873.95 -885.25 Q884.75 -888.65 895.05 -896.0 903.0 -901.65 907.75 -908.0 912.5 -914.35 912.5 -919.25 912.5 -922.5 911.9 -923.95 L910.9 -925.4 923.8 -924.5 924.7 -923.15 Q934.4 -910.25 964.0 -909.0 974.7 -889.8 1014.0 -876.65 1029.8 -871.35 1046.9 -868.3 1062.8 -865.5 1074.5 -865.5 L1114.25 -866.85 Q1139.15 -870.0 1149.5 -881.5 1160.35 -893.45 1171.6 -902.75 1196.0 -887.3 1244.45 -881.8 1269.2 -879.0 1305.05 -878.1 1328.1 -877.5 1374.5 -877.5 1385.5 -877.5 1390.85 -879.7 1394.65 -881.25 1396.5 -884.5 1401.15 -884.85 1409.05 -883.35 1419.5 -881.4 1423.35 -881.05 1443.05 -879.25 1465.75 -890.5 L1515.8 -890.9 Q1527.0 -885.5 1550.25 -885.5 L1582.35 -886.8 1643.4 -881.4 1650.2 -880.75 1653.35 -880.35 1654.25 -880.4 Q1730.8 -873.5 1752.25 -873.5 1774.45 -873.5 1782.3 -880.45 1787.25 -884.85 1787.25 -894.0 1787.25 -898.8 1782.75 -904.7 L1780.65 -907.6 Q1807.0 -906.7 1820.5 -903.55 1828.2 -901.75 1833.15 -899.0 1836.1 -897.35 1840.3 -893.75 1844.4 -890.2 1847.45 -888.5 1852.5 -885.75 1860.3 -883.95 1879.75 -879.5 1925.25 -879.5 L1925.85 -879.5 1925.85 -780.05 1911.85 -795.85 Q1887.05 -826.9 1880.6 -833.9 1862.1 -854.1 1862.1 -842.5 1862.1 -839.95 1863.4 -836.5 L1859.4 -835.95 Q1855.15 -835.1 1847.3 -831.4 1838.8 -827.4 1832.7 -825.75 1822.5 -823.0 1809.25 -823.0 1779.95 -823.0 1755.05 -826.75 1735.25 -830.5 1731.25 -830.5 1727.85 -830.5 1726.9 -828.35 1726.25 -827.0 1726.25 -822.5 1726.25 -818.3 1727.5 -816.2 1729.15 -813.3 1734.05 -811.35 1723.55 -808.95 1722.25 -804.0 L1722.75 -801.0 Q1739.0 -792.15 1742.6 -790.5 1748.2 -787.95 1753.15 -786.45 L1749.1 -785.6 Q1747.1 -785.3 1741.15 -783.35 1747.95 -781.75 1756.0 -779.35 L1761.65 -777.6 1767.1 -779.35 1766.65 -777.5 Q1766.55 -776.7 1766.75 -776.0 L1783.75 -770.5 1785.25 -771.0 Q1776.85 -775.1 1773.35 -777.85 1770.25 -780.25 1770.25 -782.25 L1770.3 -784.8 1771.75 -785.0 1775.25 -785.5 1775.95 -787.3 1776.1 -787.9 1780.0 -787.75 1779.95 -787.0 1780.25 -786.0 1780.75 -783.0 Q1782.95 -780.8 1790.4 -779.7 1797.95 -778.55 1800.75 -776.0 1795.7 -771.8 1798.2 -768.5 1800.25 -765.8 1808.15 -762.95 L1824.25 -757.95 Q1834.8 -754.75 1840.25 -752.0 1840.25 -751.0 1835.75 -749.5 L1813.25 -748.5 Q1809.55 -748.0 1808.55 -746.45 1808.05 -745.65 1808.05 -743.2 1808.05 -740.95 1806.9 -739.85 1805.2 -738.15 1800.25 -737.5 1759.95 -740.2 1752.05 -737.95 L1746.15 -735.5 Q1741.85 -733.85 1733.25 -733.0 L1734.25 -733.5 Q1736.05 -735.3 1737.2 -737.35 1738.25 -739.3 1738.25 -740.5 1728.35 -752.4 1667.0 -753.75 1649.7 -754.15 1624.2 -753.65 1603.35 -753.25 1601.75 -753.5 L1609.25 -754.5 Q1612.8 -755.85 1613.5 -757.8 L1614.55 -760.7 Q1617.15 -763.5 1642.0 -763.5 1647.65 -763.5 1665.35 -760.5 1680.25 -759.0 1680.25 -765.75 1680.25 -768.85 1679.75 -768.75 L1679.25 -768.0 Q1677.5 -769.75 1670.15 -771.6 1658.85 -774.5 1642.25 -774.5 1611.05 -774.5 1586.0 -765.9 1565.25 -758.8 1558.25 -750.0 L1558.75 -747.0 Q1566.5 -742.7 1584.25 -742.0 1583.95 -741.35 1582.05 -740.35 L1580.25 -739.5 Q1576.65 -739.2 1574.55 -737.05 L1572.25 -734.0 Q1572.25 -732.75 1573.65 -731.05 1575.15 -729.2 1577.25 -728.5 L1600.4 -727.5 1627.25 -726.5 1647.45 -727.2 1653.05 -727.95 Q1654.9 -728.1 1673.25 -722.5 L1737.25 -722.5 Q1741.75 -724.0 1779.45 -724.85 L1851.25 -726.5 Q1857.15 -728.6 1857.55 -731.7 L1857.6 -735.0 Q1857.6 -737.4 1858.25 -739.5 1875.6 -739.65 1883.1 -745.55 1888.25 -749.6 1888.25 -755.75 1888.25 -758.9 1882.7 -761.25 1876.15 -764.0 1866.25 -763.0 1863.95 -781.1 1835.6 -784.6 L1816.35 -785.5 1807.75 -786.0 Q1807.75 -791.4 1804.9 -796.85 L1808.25 -797.5 Q1807.95 -797.5 1806.35 -799.15 L1803.2 -799.65 1803.15 -799.75 Q1800.65 -803.5 1797.3 -806.55 1839.2 -807.2 1859.3 -814.55 1867.65 -817.6 1871.9 -821.65 1874.8 -817.55 1878.55 -812.9 1887.3 -802.05 1901.1 -786.6 L1907.85 -776.2 Q1914.7 -765.65 1920.5 -758.05 L1925.85 -751.4 1925.85 -715.0 Q1912.3 -715.0 1895.25 -715.5 1895.55 -713.5 1894.8 -710.2 L1763.7 -711.0 1758.65 -712.1 1688.3 -713.25 1656.5 -715.0 1624.5 -716.6 1513.1 -716.6 Q1501.95 -715.7 1498.7 -711.0 1472.55 -715.85 1453.0 -740.2 1445.25 -749.85 1438.85 -762.4 L1432.65 -775.4 Q1425.7 -784.2 1414.35 -796.2 1402.35 -808.85 1392.05 -818.0 L1392.75 -817.9 Q1400.5 -816.5 1403.5 -816.5 1425.3 -816.5 1437.45 -815.5 1449.55 -814.5 1491.25 -814.5 1494.65 -814.5 1513.05 -817.0 1535.05 -819.5 1556.25 -819.5 L1570.25 -818.8 1578.6 -818.2 Q1584.2 -818.25 1599.45 -822.0 L1604.05 -821.3 Q1611.45 -820.4 1625.4 -820.7 L1648.7 -821.05 Q1661.8 -820.75 1670.25 -818.5 L1675.25 -819.5 1675.95 -821.3 Q1676.25 -822.05 1676.25 -825.0 L1675.95 -826.35 Q1686.95 -827.2 1694.15 -828.6 1701.8 -830.15 1705.2 -832.4 L1708.25 -835.5 Q1701.65 -844.9 1642.1 -840.35 L1640.95 -840.55 Q1624.8 -843.05 1611.8 -840.25 1605.65 -838.95 1600.65 -836.45 L1585.4 -834.9 Q1556.15 -831.85 1545.75 -831.5 L1486.75 -831.0 1479.25 -832.5 1413.0 -833.5 1390.65 -836.75 1373.5 -838.5 1329.0 -839.5 1284.5 -840.5 Q1262.65 -840.5 1255.4 -837.55 1252.8 -836.45 1250.85 -834.5 1248.85 -832.2 1247.45 -831.0 1242.25 -826.6 1227.55 -824.45 1207.1 -821.5 1162.75 -821.5 1133.8 -821.5 1109.95 -828.0 1102.65 -830.0 1096.4 -832.45 L1091.5 -834.5 Q1088.3 -834.5 1087.3 -833.05 L1086.5 -830.5 Q1087.2 -828.35 1088.3 -826.5 L1087.0 -826.0 1086.5 -823.0 Q1090.1 -817.75 1110.1 -810.3 1121.05 -806.2 1145.5 -798.75 L1199.5 -798.75 Q1202.8 -799.4 1205.8 -802.25 1211.2 -801.0 1214.35 -801.2 L1218.65 -801.9 1223.5 -802.5 Q1227.95 -802.5 1254.7 -814.0 1281.45 -825.5 1283.25 -825.5 1328.25 -825.5 1359.35 -822.55 1367.65 -812.2 1399.65 -775.0 1446.05 -721.1 1473.45 -691.85 L1482.2 -691.55 1495.1 -691.3 Q1519.45 -691.3 1531.4 -695.35 L1533.5 -696.1 1624.5 -695.25 1654.1 -693.95 1680.15 -693.55 1720.05 -692.0 1758.65 -691.3 Q1760.4 -690.6 1859.15 -689.75 L1957.5 -689.05 1989.9 -687.35 2021.05 -686.5 2052.35 -685.25 2082.35 -684.8 2134.3 -687.95 2161.95 -689.6 Q2191.75 -686.2 2231.95 -683.4 2245.3 -682.0 2251.6 -679.9 2258.9 -677.4 2260.4 -673.0 2261.0 -671.1 2260.75 -666.3 2260.5 -661.5 2261.2 -659.25 2263.6 -651.35 2281.2 -651.35 2286.85 -651.35 2293.5 -653.25 L2301.75 -652.5 Q2316.0 -652.5 2334.6 -662.4 2338.9 -664.7 2347.85 -670.05 2354.75 -674.2 2357.4 -675.25 2361.1 -676.8 2385.15 -679.95 2403.55 -683.45 2412.15 -689.55 L2417.05 -689.6 2446.95 -688.6 2482.8 -688.55 Q2485.25 -686.25 2490.15 -686.25 2510.15 -686.25 2537.25 -719.05 2545.95 -729.6 2554.2 -742.15 2560.3 -751.4 2561.3 -753.75 2562.75 -756.8 2568.95 -763.4 2583.0 -760.65 2583.95 -771.75 2584.15 -774.25 2583.7 -777.85 M2619.1 -833.55 Q2613.8 -831.6 2605.45 -825.8 2595.1 -818.6 2581.2 -806.25 2582.1 -815.85 2585.9 -822.1 2595.05 -837.1 2619.1 -833.55 M2536.2 -762.55 Q2519.15 -744.85 2503.7 -727.1 2494.2 -716.2 2488.65 -709.05 L2470.8 -708.05 Q2433.7 -706.3 2422.1 -709.3 L2347.3 -709.3 Q2336.35 -705.6 2327.9 -699.8 2323.35 -696.6 2315.2 -689.25 2307.8 -682.55 2302.65 -679.35 2294.6 -674.45 2283.75 -671.9 2280.15 -674.65 2279.05 -680.65 2277.5 -689.45 2276.7 -691.3 2275.7 -693.75 2276.95 -698.25 2277.0 -702.0 2269.95 -704.0 2251.0 -709.3 2151.8 -709.3 2130.25 -708.6 2105.65 -708.05 2056.75 -706.9 2024.4 -707.6 L1965.35 -708.75 1963.95 -709.1 2059.85 -709.3 Q2064.6 -709.9 2071.45 -711.9 L2086.0 -715.75 2143.95 -716.3 2174.2 -719.55 Q2192.9 -721.2 2204.85 -720.1 2212.9 -719.4 2219.05 -717.35 2226.05 -720.35 2235.9 -720.25 L2481.45 -720.25 Q2482.15 -724.4 2484.0 -727.45 2486.9 -732.15 2494.8 -738.5 2501.2 -743.6 2518.3 -755.4 2524.65 -759.75 2536.2 -762.55 M2656.1 -768.9 L2656.1 -766.1 2684.5 -766.1 2669.55 -767.95 2656.1 -768.9 M1774.05 -796.35 Q1772.3 -798.95 1769.9 -800.25 1773.65 -799.15 1777.85 -798.7 L1787.15 -798.1 1792.15 -797.3 1790.75 -795.9 Q1786.8 -791.75 1777.35 -791.35 L1776.25 -791.25 Q1776.1 -793.35 1774.05 -796.35 M684.25 -929.5 L688.3 -930.0 690.8 -928.5 691.75 -928.5 Q702.5 -934.4 715.7 -931.25 L709.45 -929.0 Q700.45 -925.5 695.5 -925.5 L690.9 -926.0 684.75 -926.5 684.25 -929.5 M616.7 -915.25 L618.8 -915.35 617.1 -914.9 616.7 -915.25 M585.55 -912.65 L584.25 -913.5 586.05 -913.55 585.55 -912.65 M349.9 -861.05 Q347.65 -863.6 345.95 -864.75 340.75 -868.3 340.75 -858.6 340.75 -857.45 342.4 -855.2 344.0 -852.95 344.0 -851.85 344.0 -848.2 335.9 -839.2 327.75 -830.2 327.75 -825.25 327.75 -823.3 328.0 -822.9 329.2 -820.85 334.25 -820.85 338.35 -820.85 345.95 -829.3 L349.55 -833.6 Q359.0 -845.4 359.0 -847.85 L356.15 -852.6 Q352.8 -857.75 349.9 -861.05 M648.7 -918.55 Q650.15 -919.05 650.85 -919.6 L651.95 -920.75 664.35 -921.2 662.45 -920.35 660.25 -919.5 648.7 -918.55 M851.5 -863.95 L856.4 -865.15 Q855.85 -866.2 854.95 -866.85 853.4 -865.35 851.5 -863.95 M712.05 -865.55 L710.95 -866.95 Q703.6 -870.6 694.15 -875.75 695.05 -873.05 699.4 -870.15 704.4 -866.8 712.05 -865.55 M829.7 -855.7 L814.5 -854.5 811.25 -854.5 811.25 -854.45 Q812.0 -850.85 821.1 -850.85 825.85 -850.85 829.7 -855.7 M1187.65 -1009.65 Q1190.0 -1005.5 1195.5 -1002.0 1178.55 -999.95 1173.2 -987.4 1171.05 -982.4 1171.5 -977.0 1171.95 -971.9 1174.5 -968.5 L1162.4 -965.8 1148.65 -970.05 Q1151.5 -979.55 1151.5 -983.25 1151.5 -986.0 1142.15 -993.45 1132.3 -1001.25 1118.6 -1009.0 L1111.6 -1012.8 1135.0 -1010.0 1187.65 -1009.65 M1018.8 -851.45 Q1025.95 -845.5 1032.1 -839.65 L1033.35 -838.45 Q1032.95 -844.7 1036.0 -849.5 L1018.8 -851.45 M1247.9 -613.4 Q1236.55 -618.1 1231.6 -617.75 1225.1 -617.3 1225.1 -608.9 1225.1 -601.65 1252.4 -591.8 1263.15 -587.95 1273.85 -585.35 1284.45 -582.75 1289.25 -582.75 1301.15 -582.75 1311.15 -589.45 1320.15 -595.5 1320.15 -601.0 1320.15 -603.95 1319.65 -605.25 1318.2 -608.9 1313.4 -608.9 1311.95 -608.9 1309.9 -607.45 L1305.65 -604.25 Q1298.95 -599.6 1290.05 -599.6 1281.85 -599.6 1269.0 -604.5 L1247.9 -613.4 M1161.45 -619.95 L1142.5 -620.65 Q1134.6 -620.35 1131.2 -617.7 1127.5 -614.75 1127.5 -607.75 1127.25 -606.3 1127.4 -604.7 1127.6 -601.55 1129.25 -599.05 1134.5 -591.15 1152.55 -591.15 1155.65 -591.15 1158.0 -589.85 L1162.3 -586.95 Q1169.2 -582.75 1184.3 -582.75 1200.35 -582.75 1203.4 -588.0 1204.35 -589.65 1204.05 -592.0 L1203.75 -594.55 Q1200.95 -597.85 1199.2 -598.65 L1195.35 -598.95 Q1186.35 -597.75 1177.0 -599.6 L1184.3 -601.0 Q1193.45 -601.0 1196.85 -605.45 1198.65 -607.75 1198.65 -611.15 1198.65 -614.4 1198.1 -615.4 1196.05 -619.0 1188.25 -619.0 L1161.45 -619.95 M1072.05 -698.45 L1071.85 -698.3 1075.5 -698.0 1072.05 -698.45 M996.2 -709.5 L935.0 -723.5 932.55 -723.25 Q931.35 -719.6 928.5 -716.55 L926.15 -714.4 Q933.85 -711.6 945.55 -707.7 969.8 -699.6 981.2 -695.1 997.6 -688.6 1007.65 -682.1 1008.75 -687.15 1013.45 -690.8 1022.5 -697.85 1043.35 -698.95 L996.2 -709.5 M1216.65 -575.4 Q1224.15 -570.05 1237.2 -570.05 1249.95 -570.05 1253.35 -571.7 1255.75 -572.85 1255.75 -577.1 1255.75 -579.05 1253.35 -580.6 L1247.3 -583.85 Q1228.05 -584.2 1222.15 -581.95 1219.65 -580.95 1218.4 -579.2 L1216.65 -575.4 M1105.3 -578.8 L1110.65 -578.2 1120.2 -577.65 Q1127.55 -577.65 1130.35 -579.4 1132.1 -580.5 1134.8 -585.0 1125.4 -591.25 1114.15 -590.15 1109.55 -589.7 1106.6 -588.05 1103.6 -586.35 1103.6 -584.15 1103.6 -580.75 1104.45 -579.75 1105.3 -579.35 1105.3 -578.8 M1179.3 -561.95 L1172.5 -561.75 1172.5 -561.2 1175.0 -561.25 1179.3 -561.95 M372.1 -756.3 Q369.4 -758.5 365.0 -758.1 362.95 -757.9 361.35 -756.85 L372.1 -756.3 M1712.5 -773.65 L1724.25 -770.5 Q1720.2 -772.45 1716.5 -774.8 L1712.5 -773.65 M1415.75 -640.5 L1418.85 -642.8 1407.5 -644.25 Q1409.25 -643.8 1414.05 -641.4 L1415.75 -640.5 M1444.65 -551.9 L1413.5 -553.75 1410.5 -553.25 1421.55 -552.25 1442.9 -551.4 1444.65 -551.9 M1368.55 -583.0 L1368.0 -582.15 Q1363.2 -583.75 1352.6 -582.9 1340.4 -582.0 1340.4 -577.4 1340.4 -574.05 1341.4 -573.0 L1342.4 -571.75 1346.2 -571.2 1354.2 -570.65 Q1358.45 -570.65 1363.75 -573.8 1369.1 -576.95 1369.1 -579.65 1369.1 -583.15 1368.55 -583.0" fill="#a5a289" fill-rule="evenodd" stroke="none"/>
    <path d="M2628.05 -831.7 Q2628.55 -830.35 2628.55 -828.25 2628.55 -820.55 2597.25 -790.8 L2583.7 -777.85 2574.4 -769.05 2568.95 -763.4 Q2562.75 -756.8 2561.3 -753.75 2560.3 -751.4 2554.2 -742.15 2545.95 -729.6 2537.25 -719.05 2510.15 -686.25 2490.15 -686.25 2485.25 -686.25 2482.8 -688.55 L2446.95 -688.6 2417.05 -689.6 2412.15 -689.55 Q2403.55 -683.45 2385.15 -679.95 2361.1 -676.8 2357.4 -675.25 2354.75 -674.2 2347.85 -670.05 2338.9 -664.7 2334.6 -662.4 2316.0 -652.5 2301.75 -652.5 L2293.5 -653.25 Q2286.85 -651.35 2281.2 -651.35 2263.6 -651.35 2261.2 -659.25 2260.5 -661.5 2260.75 -666.3 2261.0 -671.1 2260.4 -673.0 2258.9 -677.4 2251.6 -679.9 2245.3 -682.0 2231.95 -683.4 2191.75 -686.2 2161.95 -689.6 L2134.3 -687.95 2082.35 -684.8 2052.35 -685.25 2021.05 -686.5 1989.9 -687.35 1957.5 -689.05 1859.15 -689.75 Q1760.4 -690.6 1758.65 -691.3 L1720.05 -692.0 1680.15 -693.55 1654.1 -693.95 1624.5 -695.25 1533.5 -696.1 1531.4 -695.35 Q1519.45 -691.3 1495.1 -691.3 L1482.2 -691.55 1473.45 -691.85 Q1446.05 -721.1 1399.65 -775.0 1367.65 -812.2 1359.35 -822.55 1328.25 -825.5 1283.25 -825.5 1281.45 -825.5 1254.7 -814.0 1227.95 -802.5 1223.5 -802.5 L1218.65 -801.9 1214.35 -801.2 Q1211.2 -801.0 1205.8 -802.25 1202.8 -799.4 1199.5 -798.75 L1145.5 -798.75 Q1121.05 -806.2 1110.1 -810.3 1090.1 -817.75 1086.5 -823.0 L1087.0 -826.0 1088.3 -826.5 Q1087.2 -828.35 1086.5 -830.5 L1087.3 -833.05 Q1088.3 -834.5 1091.5 -834.5 L1096.4 -832.45 Q1102.65 -830.0 1109.95 -828.0 1133.8 -821.5 1162.75 -821.5 1207.1 -821.5 1227.55 -824.45 1242.25 -826.6 1247.45 -831.0 1248.85 -832.2 1250.85 -834.5 1252.8 -836.45 1255.4 -837.55 1262.65 -840.5 1284.5 -840.5 L1329.0 -839.5 1373.5 -838.5 1390.65 -836.75 1413.0 -833.5 1479.25 -832.5 1486.75 -831.0 1545.75 -831.5 Q1556.15 -831.85 1585.4 -834.9 L1600.65 -836.45 Q1605.65 -838.95 1611.8 -840.25 1624.8 -843.05 1640.95 -840.55 L1642.1 -840.35 Q1701.65 -844.9 1708.25 -835.5 L1705.2 -832.4 Q1701.8 -830.15 1694.15 -828.6 1686.95 -827.2 1675.95 -826.35 L1676.25 -825.0 Q1676.25 -822.05 1675.95 -821.3 L1675.25 -819.5 1670.25 -818.5 Q1661.8 -820.75 1648.7 -821.05 L1625.4 -820.7 Q1611.45 -820.4 1604.05 -821.3 L1599.45 -822.0 Q1584.2 -818.25 1578.6 -818.2 L1570.25 -818.8 1556.25 -819.5 Q1535.05 -819.5 1513.05 -817.0 1494.65 -814.5 1491.25 -814.5 1449.55 -814.5 1437.45 -815.5 1425.3 -816.5 1403.5 -816.5 1400.5 -816.5 1392.75 -817.9 L1392.05 -818.0 Q1402.35 -808.85 1414.35 -796.2 1425.7 -784.2 1432.65 -775.4 L1438.85 -762.4 Q1445.25 -749.85 1453.0 -740.2 1472.55 -715.85 1498.7 -711.0 1501.95 -715.7 1513.1 -716.6 L1624.5 -716.6 1656.5 -715.0 1688.3 -713.25 1758.65 -712.1 1763.7 -711.0 1894.8 -710.2 1960.85 -709.85 1963.95 -709.1 1965.35 -708.75 2024.4 -707.6 Q2056.75 -706.9 2105.65 -708.05 2130.25 -708.6 2151.8 -709.3 2251.0 -709.3 2269.95 -704.0 2277.0 -702.0 2276.95 -698.25 2275.7 -693.75 2276.7 -691.3 2277.5 -689.45 2279.05 -680.65 2280.15 -674.65 2283.75 -671.9 2294.6 -674.45 2302.65 -679.35 2307.8 -682.55 2315.2 -689.25 2323.35 -696.6 2327.9 -699.8 2336.35 -705.6 2347.3 -709.3 L2422.1 -709.3 Q2433.7 -706.3 2470.8 -708.05 L2488.65 -709.05 Q2494.2 -716.2 2503.7 -727.1 2519.15 -744.85 2536.2 -762.55 L2554.6 -781.2 Q2569.2 -795.65 2581.2 -806.25 2595.1 -818.6 2605.45 -825.8 2613.8 -831.6 2619.1 -833.55 2626.3 -836.15 2628.05 -831.7 M57.05 -632.1 Q53.95 -632.35 53.0 -634.35 52.5 -635.45 52.75 -636.6 L53.0 -637.05 Q54.85 -639.5 69.65 -653.45 88.5 -671.2 94.75 -680.6 96.7 -683.6 103.85 -689.25 L108.0 -692.55 117.65 -700.05 Q135.75 -714.6 135.75 -723.1 135.75 -724.75 137.6 -725.6 L142.05 -726.9 Q149.25 -728.95 151.75 -735.1 152.25 -736.35 151.2 -738.45 150.1 -740.65 150.3 -741.4 150.95 -744.35 167.5 -744.35 L191.15 -743.1 209.5 -741.1 Q217.95 -740.1 223.05 -737.7 227.5 -735.6 228.5 -735.6 L242.2 -736.5 Q246.35 -737.35 248.6 -739.45 249.8 -740.6 252.65 -744.95 255.75 -749.65 259.25 -753.35 266.25 -760.7 270.9 -763.35 275.3 -765.85 277.35 -764.0 L281.25 -764.1 281.55 -763.2 282.0 -762.1 278.95 -759.8 279.0 -758.0 Q279.0 -754.6 262.4 -740.3 246.45 -726.5 242.0 -724.85 L209.0 -724.85 191.95 -727.35 181.4 -728.55 Q176.9 -726.25 171.25 -724.25 165.15 -722.1 158.1 -720.55 L142.7 -706.1 128.75 -692.55 108.95 -673.45 Q65.75 -632.1 57.85 -632.1 L57.05 -632.1 M887.4 -933.55 L889.65 -934.85 Q901.2 -940.8 917.5 -938.5 920.7 -937.25 922.5 -934.5 920.65 -931.55 918.75 -929.95 915.6 -927.3 910.5 -926.0 L910.9 -925.4 911.9 -923.95 Q912.5 -922.5 912.5 -919.25 912.5 -914.35 907.75 -908.0 903.0 -901.65 895.05 -896.0 884.75 -888.65 873.95 -885.25 L869.65 -882.3 853.0 -871.3 Q852.4 -871.65 851.85 -871.95 L852.9 -873.15 852.75 -873.2 861.45 -879.05 868.1 -883.75 Q861.9 -882.5 855.5 -882.5 L855.4 -882.5 Q833.25 -874.5 808.5 -874.5 740.4 -874.5 708.7 -887.45 684.8 -897.2 685.25 -912.0 678.7 -911.5 667.9 -909.25 L647.2 -904.7 Q618.55 -898.5 597.75 -898.5 581.65 -898.5 571.55 -906.8 563.2 -913.65 562.75 -921.5 L490.8 -925.05 380.3 -929.95 377.05 -927.6 Q372.2 -924.2 368.0 -922.7 363.5 -917.75 357.75 -912.65 351.35 -906.9 345.95 -903.1 L345.45 -902.75 Q344.75 -900.0 342.55 -894.15 339.2 -885.35 338.0 -885.35 336.7 -885.35 333.0 -889.85 329.5 -894.1 329.5 -894.6 329.5 -894.95 329.85 -895.65 L328.5 -895.6 Q322.45 -895.6 320.5 -897.35 319.5 -898.25 319.5 -900.0 319.5 -902.75 328.5 -911.85 335.95 -919.35 345.5 -927.2 343.75 -927.45 343.0 -927.85 L342.75 -927.5 Q342.5 -927.45 342.5 -929.0 342.5 -930.0 345.95 -931.45 L349.05 -932.6 354.15 -934.1 Q362.35 -940.35 368.25 -943.45 377.25 -948.3 377.25 -943.75 377.25 -942.1 376.55 -940.7 L377.7 -940.85 Q385.5 -943.9 389.9 -944.95 400.4 -947.55 405.75 -942.7 L423.75 -943.1 472.9 -943.45 Q501.95 -943.65 516.1 -944.35 L567.1 -944.35 Q568.4 -943.95 581.95 -943.95 595.5 -943.95 598.1 -944.35 L644.85 -944.6 Q651.55 -947.2 662.4 -948.1 677.35 -949.45 679.35 -943.1 L708.1 -942.85 721.1 -941.85 Q723.3 -941.3 724.25 -939.9 724.85 -939.0 724.85 -938.0 724.85 -936.8 722.65 -935.0 L724.7 -933.15 Q728.1 -929.75 728.1 -928.0 L727.85 -926.75 726.75 -927.25 726.75 -924.75 Q726.75 -920.6 724.8 -918.95 L716.25 -913.5 Q719.45 -912.8 729.15 -909.4 740.2 -905.55 748.25 -903.35 777.25 -895.5 811.75 -895.5 841.75 -895.5 862.9 -903.0 868.15 -904.85 875.8 -908.15 881.75 -910.5 885.5 -910.5 L888.7 -910.3 893.5 -913.55 892.9 -914.0 888.5 -914.5 888.05 -914.45 Q892.95 -919.6 895.4 -922.65 L885.5 -920.5 881.9 -921.75 Q880.5 -922.75 880.5 -926.0 880.5 -927.5 882.75 -929.9 884.65 -931.9 887.4 -933.55 M1925.85 -780.05 L1925.85 -751.4 1920.5 -758.05 Q1914.7 -765.65 1907.85 -776.2 L1901.1 -786.6 Q1887.3 -802.05 1878.55 -812.9 1874.8 -817.55 1871.9 -821.65 1867.65 -817.6 1859.3 -814.55 1839.2 -807.2 1797.3 -806.55 1800.65 -803.5 1803.15 -799.75 L1803.2 -799.65 1806.35 -799.15 Q1807.95 -797.5 1808.25 -797.5 L1804.9 -796.85 Q1807.75 -791.4 1807.75 -786.0 L1816.35 -785.5 1835.6 -784.6 Q1863.95 -781.1 1866.25 -763.0 1876.15 -764.0 1882.7 -761.25 1888.25 -758.9 1888.25 -755.75 1888.25 -749.6 1883.1 -745.55 1875.6 -739.65 1858.25 -739.5 1857.6 -737.4 1857.6 -735.0 L1857.55 -731.7 Q1857.15 -728.6 1851.25 -726.5 L1779.45 -724.85 Q1741.75 -724.0 1737.25 -722.5 L1673.25 -722.5 Q1654.9 -728.1 1653.05 -727.95 L1647.45 -727.2 1627.25 -726.5 1600.4 -727.5 1577.25 -728.5 Q1575.15 -729.2 1573.65 -731.05 1572.25 -732.75 1572.25 -734.0 L1574.55 -737.05 Q1576.65 -739.2 1580.25 -739.5 L1582.05 -740.35 Q1583.95 -741.35 1584.25 -742.0 1566.5 -742.7 1558.75 -747.0 L1558.25 -750.0 Q1565.25 -758.8 1586.0 -765.9 1611.05 -774.5 1642.25 -774.5 1658.85 -774.5 1670.15 -771.6 1677.5 -769.75 1679.25 -768.0 L1679.75 -768.75 Q1680.25 -768.85 1680.25 -765.75 1680.25 -759.0 1665.35 -760.5 1647.65 -763.5 1642.0 -763.5 1617.15 -763.5 1614.55 -760.7 L1613.5 -757.8 Q1612.8 -755.85 1609.25 -754.5 L1601.75 -753.5 Q1603.35 -753.25 1624.2 -753.65 1649.7 -754.15 1667.0 -753.75 1728.35 -752.4 1738.25 -740.5 1738.25 -739.3 1737.2 -737.35 1736.05 -735.3 1734.25 -733.5 L1733.25 -733.0 Q1741.85 -733.85 1746.15 -735.5 L1752.05 -737.95 Q1759.95 -740.2 1800.25 -737.5 1805.2 -738.15 1806.9 -739.85 1808.05 -740.95 1808.05 -743.2 1808.05 -745.65 1808.55 -746.45 1809.55 -748.0 1813.25 -748.5 L1835.75 -749.5 Q1840.25 -751.0 1840.25 -752.0 1834.8 -754.75 1824.25 -757.95 L1808.15 -762.95 Q1800.25 -765.8 1798.2 -768.5 1795.7 -771.8 1800.75 -776.0 1797.95 -778.55 1790.4 -779.7 1782.95 -780.8 1780.75 -783.0 L1780.25 -786.0 1779.95 -787.0 1780.0 -787.75 1776.1 -787.9 1775.95 -787.3 1775.25 -785.5 1771.75 -785.0 1770.3 -784.8 1770.25 -782.25 Q1770.25 -780.25 1773.35 -777.85 1776.85 -775.1 1785.25 -771.0 L1783.75 -770.5 1766.75 -776.0 Q1766.55 -776.7 1766.65 -777.5 L1767.1 -779.35 1761.65 -777.6 1756.0 -779.35 Q1747.95 -781.75 1741.15 -783.35 1747.1 -785.3 1749.1 -785.6 L1753.15 -786.45 Q1748.2 -787.95 1742.6 -790.5 1739.0 -792.15 1722.75 -801.0 L1722.25 -804.0 Q1723.55 -808.95 1734.05 -811.35 1729.15 -813.3 1727.5 -816.2 1726.25 -818.3 1726.25 -822.5 1726.25 -827.0 1726.9 -828.35 1727.85 -830.5 1731.25 -830.5 1735.25 -830.5 1755.05 -826.75 1779.95 -823.0 1809.25 -823.0 1822.5 -823.0 1832.7 -825.75 1838.8 -827.4 1847.3 -831.4 1855.15 -835.1 1859.4 -835.95 L1863.4 -836.5 Q1862.1 -839.95 1862.1 -842.5 1862.1 -854.1 1880.6 -833.9 1887.05 -826.9 1911.85 -795.85 L1925.85 -780.05 M1774.05 -796.35 Q1776.1 -793.35 1776.25 -791.25 L1777.35 -791.35 Q1786.8 -791.75 1790.75 -795.9 L1792.15 -797.3 1787.15 -798.1 1777.85 -798.7 Q1773.65 -799.15 1769.9 -800.25 1772.3 -798.95 1774.05 -796.35 M349.9 -861.05 Q352.8 -857.75 356.15 -852.6 L359.0 -847.85 Q359.0 -845.4 349.55 -833.6 L345.95 -829.3 Q338.35 -820.85 334.25 -820.85 329.2 -820.85 328.0 -822.9 327.75 -823.3 327.75 -825.25 327.75 -830.2 335.9 -839.2 344.0 -848.2 344.0 -851.85 344.0 -852.95 342.4 -855.2 340.75 -857.45 340.75 -858.6 340.75 -868.3 345.95 -864.75 347.65 -863.6 349.9 -861.05 M585.55 -912.65 L586.05 -913.55 584.25 -913.5 585.55 -912.65 M616.7 -915.25 L617.1 -914.9 618.8 -915.35 616.7 -915.25 M684.25 -929.5 L684.75 -926.5 690.9 -926.0 695.5 -925.5 Q700.45 -925.5 709.45 -929.0 L715.7 -931.25 Q702.5 -934.4 691.75 -928.5 L690.8 -928.5 688.3 -930.0 684.25 -929.5 M648.7 -918.55 L660.25 -919.5 662.45 -920.35 664.35 -921.2 651.95 -920.75 650.85 -919.6 Q650.15 -919.05 648.7 -918.55 M712.05 -865.55 Q704.4 -866.8 699.4 -870.15 695.05 -873.05 694.15 -875.75 703.6 -870.6 710.95 -866.95 L712.05 -865.55 M851.5 -863.95 Q853.4 -865.35 854.95 -866.85 855.85 -866.2 856.4 -865.15 L851.5 -863.95 M829.7 -855.7 Q825.85 -850.85 821.1 -850.85 812.0 -850.85 811.25 -854.45 L811.25 -854.5 814.5 -854.5 829.7 -855.7 M1161.45 -619.95 L1188.25 -619.0 Q1196.05 -619.0 1198.1 -615.4 1198.65 -614.4 1198.65 -611.15 1198.65 -607.75 1196.85 -605.45 1193.45 -601.0 1184.3 -601.0 L1177.0 -599.6 Q1186.35 -597.75 1195.35 -598.95 L1199.2 -598.65 Q1200.95 -597.85 1203.75 -594.55 L1204.05 -592.0 Q1204.35 -589.65 1203.4 -588.0 1200.35 -582.75 1184.3 -582.75 1169.2 -582.75 1162.3 -586.95 L1158.0 -589.85 Q1155.65 -591.15 1152.55 -591.15 1134.5 -591.15 1129.25 -599.05 1127.6 -601.55 1127.4 -604.7 1127.25 -606.3 1127.5 -607.75 1127.5 -614.75 1131.2 -617.7 1134.6 -620.35 1142.5 -620.65 L1161.45 -619.95 M1247.9 -613.4 L1269.0 -604.5 Q1281.85 -599.6 1290.05 -599.6 1298.95 -599.6 1305.65 -604.25 L1309.9 -607.45 Q1311.95 -608.9 1313.4 -608.9 1318.2 -608.9 1319.65 -605.25 1320.15 -603.95 1320.15 -601.0 1320.15 -595.5 1311.15 -589.45 1301.15 -582.75 1289.25 -582.75 1284.45 -582.75 1273.85 -585.35 1263.15 -587.95 1252.4 -591.8 1225.1 -601.65 1225.1 -608.9 1225.1 -617.3 1231.6 -617.75 1236.55 -618.1 1247.9 -613.4 M1105.3 -578.8 Q1105.3 -579.35 1104.45 -579.75 1103.6 -580.75 1103.6 -584.15 1103.6 -586.35 1106.6 -588.05 1109.55 -589.7 1114.15 -590.15 1125.4 -591.25 1134.8 -585.0 1132.1 -580.5 1130.35 -579.4 1127.55 -577.65 1120.2 -577.65 L1110.65 -578.2 1105.3 -578.8 M1216.65 -575.4 L1218.4 -579.2 Q1219.65 -580.95 1222.15 -581.95 1228.05 -584.2 1247.3 -583.85 L1253.35 -580.6 Q1255.75 -579.05 1255.75 -577.1 1255.75 -572.85 1253.35 -571.7 1249.95 -570.05 1237.2 -570.05 1224.15 -570.05 1216.65 -575.4 M372.1 -756.3 L361.35 -756.85 Q362.95 -757.9 365.0 -758.1 369.4 -758.5 372.1 -756.3 M1712.5 -773.65 L1716.5 -774.8 Q1720.2 -772.45 1724.25 -770.5 L1712.5 -773.65 M1415.75 -640.5 L1414.05 -641.4 Q1409.25 -643.8 1407.5 -644.25 L1418.85 -642.8 1415.75 -640.5 M1368.55 -583.0 Q1369.1 -583.15 1369.1 -579.65 1369.1 -576.95 1363.75 -573.8 1358.45 -570.65 1354.2 -570.65 L1346.2 -571.2 1342.4 -571.75 1341.4 -573.0 Q1340.4 -574.05 1340.4 -577.4 1340.4 -582.0 1352.6 -582.9 1363.2 -583.75 1368.0 -582.15 L1368.55 -583.0" fill="#989578" fill-rule="evenodd" stroke="none"/>
    <path d="M2639.95 -360.0 L1919.9 -360.0 1919.9 -368.0 -139.8 -368.0 -139.8 -602.0 808.2 -602.0 808.2 -492.0 1925.85 -492.0 1925.85 -480.0 2639.95 -480.0 2639.95 -360.0 M1406.9 -1178.15 L1399.5 -1178.2 1399.55 -1178.25 1406.9 -1178.25 1406.9 -1178.15" fill="#5c5b47" fill-rule="evenodd" stroke="none"/>
  </g>
</svg>
