<?xml version="1.0" encoding="UTF-8" standalone="no"?>
<svg xmlns:ffdec="https://www.free-decompiler.com/flash" xmlns:xlink="http://www.w3.org/1999/xlink" ffdec:objectType="shape" height="73.15px" width="186.45px" xmlns="http://www.w3.org/2000/svg">
  <g transform="matrix(1.0, 0.0, 0.0, 1.0, -2325.65, 658.15)">
    <path d="M2496.05 -646.3 Q2496.05 -644.7 2493.15 -641.05 L2492.9 -640.7 Q2499.15 -639.7 2503.95 -637.75 2512.1 -634.35 2512.1 -629.4 2512.1 -621.0 2499.9 -606.55 2493.15 -598.5 2479.5 -585.55 L2412.55 -585.0 Q2408.65 -585.95 2399.65 -589.1 2389.5 -592.55 2383.2 -594.3 2359.9 -600.85 2332.4 -601.55 2327.5 -603.55 2326.2 -606.65 2325.65 -607.85 2325.65 -610.85 2325.65 -614.35 2328.0 -616.7 2330.3 -619.0 2333.5 -619.0 2354.05 -619.0 2375.55 -611.4 L2389.45 -606.15 Q2395.95 -603.8 2399.05 -603.8 2403.75 -603.8 2405.15 -605.2 2406.0 -606.0 2407.05 -608.1 2410.65 -612.1 2433.65 -611.15 2440.4 -617.9 2445.9 -621.85 L2441.8 -622.65 2439.8 -623.5 2439.55 -624.5 Q2439.25 -626.15 2439.25 -629.7 2439.25 -634.15 2445.8 -639.2 2454.2 -645.7 2467.1 -645.15 2466.85 -646.0 2466.6 -645.8 L2466.55 -649.4 Q2466.55 -653.7 2471.15 -656.15 2475.4 -658.4 2481.3 -658.1 2487.35 -657.75 2491.45 -654.9 2496.05 -651.65 2496.05 -646.3" fill="#5c5b47" fill-rule="evenodd" stroke="none"/>
  </g>
</svg>
