<?xml version="1.0" encoding="UTF-8" standalone="no"?>
<svg xmlns:ffdec="https://www.free-decompiler.com/flash" xmlns:xlink="http://www.w3.org/1999/xlink" ffdec:objectType="shape" height="547.75px" width="1641.05px" xmlns="http://www.w3.org/2000/svg">
  <g transform="matrix(1.0, 0.0, 0.0, 1.0, -22.7, -169.4)">
    <path d="M85.9 603.75 L85.9 599.9 Q81.5 601.15 75.0 601.15 45.0 601.15 36.45 597.0 33.05 595.35 32.15 592.65 31.75 591.4 31.75 587.5 31.75 584.1 33.9 581.1 36.5 577.45 41.95 575.25 L41.95 512.3 42.55 510.0 Q32.65 499.85 30.95 483.6 30.4 478.2 30.5 469.45 L30.6 455.4 Q30.25 444.3 30.4 422.75 L30.6 401.35 Q30.6 385.5 31.75 344.85 32.9 304.2 32.9 292.95 L32.9 274.7 Q33.0 273.55 34.2 271.95 22.7 262.75 22.7 253.1 22.7 247.1 25.65 243.15 28.6 239.15 28.6 231.55 L26.75 223.55 Q24.85 215.75 24.85 213.6 24.85 203.4 29.6 195.75 34.0 188.7 41.15 185.75 48.25 182.8 55.35 185.05 L55.4 185.05 Q61.35 164.85 87.4 170.75 97.85 173.1 111.05 179.65 117.6 182.95 122.6 185.7 122.95 185.7 125.95 183.55 128.75 181.5 131.8 182.1 L161.25 182.1 Q171.15 186.95 175.9 194.8 178.7 199.45 182.55 209.85 189.85 211.7 195.8 213.65 L219.65 218.2 Q232.65 220.9 235.7 229.35 L236.4 231.8 244.6 233.4 Q253.75 227.35 278.85 229.25 279.2 228.35 282.25 226.2 286.0 223.55 288.65 224.1 L380.9 223.5 380.0 221.25 Q379.75 220.1 379.75 218.05 379.75 214.45 381.4 212.0 384.1 207.95 390.85 207.1 L425.2 206.55 Q423.8 200.6 430.6 193.5 436.45 187.4 446.6 182.1 L497.65 182.1 Q508.65 184.1 530.4 185.9 L563.9 189.05 Q581.05 191.25 588.3 194.85 597.15 199.3 593.8 206.7 L604.55 208.45 630.45 210.15 717.15 210.45 726.1 210.15 734.1 209.4 Q737.75 209.4 746.9 210.75 729.8 203.55 729.8 199.95 729.8 196.25 731.75 193.55 734.55 189.6 741.0 188.85 L770.5 188.85 Q774.75 189.15 834.0 199.15 L894.7 209.0 Q896.3 209.0 898.65 208.15 901.3 207.2 902.3 207.1 L1019.45 206.55 1022.75 205.95 1068.35 205.95 Q1078.45 209.2 1082.2 214.6 1084.85 218.45 1083.85 222.65 1106.75 222.2 1110.8 224.65 1111.65 225.2 1112.25 226.75 1112.75 227.95 1114.6 228.4 L1121.95 228.1 Q1121.6 225.55 1124.25 222.45 1127.65 218.35 1134.15 217.35 L1244.05 216.85 1244.45 216.25 Q1247.35 212.55 1254.75 210.45 L1336.55 210.45 1341.3 211.3 1379.7 211.6 Q1387.75 215.55 1394.0 221.95 1399.95 228.0 1400.95 232.7 1421.45 233.5 1432.5 235.7 1438.4 236.9 1444.25 238.6 L1482.05 238.9 1491.4 240.9 1565.0 241.2 Q1579.5 248.2 1592.2 252.7 1595.5 254.4 1596.6 256.75 1597.6 259.0 1597.6 264.35 1597.6 270.9 1594.75 275.55 L1594.45 276.05 1662.7 277.35 1662.7 654.2 1663.75 693.8 1579.4 705.25 682.8 700.55 698.3 690.65 106.7 656.75 105.35 643.75 Q103.85 631.15 103.35 629.9 110.4 630.85 114.25 625.8 117.0 622.25 117.0 618.4 117.0 612.3 109.75 607.05 102.7 601.95 94.65 601.7 89.45 601.55 85.9 603.75 M1228.45 239.95 L1210.05 240.05 1210.05 240.9 1223.4 241.0 1228.45 239.95" fill="#655945" fill-rule="evenodd" stroke="none"/>
    <path d="M106.7 656.75 L106.8 658.8 Q106.8 669.75 97.55 679.25 88.8 688.25 79.45 688.7 66.45 689.45 59.8 694.05 55.1 697.35 52.6 703.75 49.25 712.25 48.7 713.0 45.85 717.15 39.1 717.15 32.0 717.15 28.9 711.75 27.15 708.7 27.15 705.8 27.15 690.45 28.65 684.25 30.15 678.0 34.65 674.8 36.45 673.55 47.35 668.5 58.65 663.3 69.0 656.35 69.0 652.85 67.4 649.9 65.8 646.9 65.8 645.25 65.8 639.55 67.2 637.45 70.2 633.05 80.6 631.9 76.75 615.95 81.65 608.05 83.35 605.3 85.9 603.75 89.45 601.55 94.65 601.7 102.7 601.95 109.75 607.05 117.0 612.3 117.0 618.4 117.0 622.25 114.25 625.8 110.4 630.85 103.35 629.9 103.85 631.15 105.35 643.75 L106.7 656.75" fill="#999674" fill-rule="evenodd" stroke="none"/>
    <path d="M1017.2 205.1 Q1014.7 208.95 1010.25 209.85 L923.15 210.45 919.6 213.15 915.95 215.6 850.1 215.6 Q848.25 215.6 845.1 212.3 842.85 209.95 841.5 207.85 824.2 210.05 818.0 204.0 815.05 201.15 815.05 196.5 815.05 192.8 817.0 190.1 819.8 186.15 826.25 185.4 L872.85 185.4 Q876.65 186.05 879.3 187.45 L1008.1 187.7 Q1019.15 189.95 1019.15 198.5 1019.15 202.0 1017.2 205.1" fill="#4a5b39" fill-rule="evenodd" stroke="none"/>
  </g>
</svg>
