<?xml version="1.0" encoding="UTF-8" standalone="no"?>
<svg xmlns:ffdec="https://www.free-decompiler.com/flash" xmlns:xlink="http://www.w3.org/1999/xlink" ffdec:objectType="shape" height="755.2px" width="1866.45px" xmlns="http://www.w3.org/2000/svg">
  <g transform="matrix(1.0, 0.0, 0.0, 1.0, -59.4, -304.8)">
    <path d="M754.4 754.15 Q750.1 748.75 750.1 743.1 750.1 740.95 750.75 739.15 L541.5 738.1 Q526.35 731.9 509.1 725.7 459.15 707.75 413.75 697.85 363.65 686.9 335.75 689.75 L104.25 689.75 Q81.35 679.6 59.4 667.3 L59.4 631.9 67.15 630.4 80.45 630.85 96.15 631.1 105.7 631.35 114.7 631.4 Q115.2 631.25 139.55 631.0 L146.9 630.95 146.9 304.8 459.6 304.8 459.6 334.8 545.6 334.8 545.6 366.8 613.6 366.8 613.6 414.8 761.6 414.8 761.6 458.8 885.6 458.8 885.6 498.8 935.6 498.8 935.6 552.8 1029.6 552.8 1029.6 576.8 1057.6 576.8 1057.6 588.8 1107.6 588.8 1107.6 634.8 1143.6 634.8 1143.6 648.8 1479.3 648.8 1479.25 647.75 Q1479.25 637.15 1483.75 633.2 1487.3 630.0 1498.55 628.15 1519.3 624.75 1525.85 623.2 1546.35 618.3 1567.75 608.75 1577.45 604.45 1589.45 597.2 L1608.9 585.4 Q1631.95 572.15 1655.25 569.75 L1711.75 569.25 Q1738.45 566.45 1779.65 559.3 1819.55 552.4 1861.25 548.25 1908.25 537.6 1921.4 559.5 1925.5 566.4 1925.8 576.0 1925.95 580.9 1925.25 585.0 1925.25 610.1 1923.55 622.4 1921.15 639.45 1916.0 648.8 L1921.4 648.8 1921.4 996.5 1918.9 997.7 1917.4 998.35 Q1911.5 1000.85 1905.6 1002.45 1888.6 1007.0 1858.75 1007.0 L1845.2 1005.35 1831.25 1003.5 1789.45 1001.15 1771.25 999.5 1515.25 999.5 1507.75 1001.0 1455.25 1001.5 1441.75 1003.0 1381.25 1003.5 1356.45 1005.25 1331.5 1007.0 1131.0 1007.0 1113.6 1002.1 Q1104.2 999.45 1098.2 999.05 1081.95 998.05 1066.5 1012.5 L1043.0 1013.0 1019.0 1010.5 1007.75 1009.45 1004.25 1005.85 Q986.3 988.6 957.5 982.25 935.15 977.3 916.4 980.6 L910.2 844.2 Q912.95 845.1 916.25 845.1 921.45 845.1 924.25 840.9 926.25 837.85 926.25 834.85 926.25 829.2 922.05 825.1 918.2 821.35 912.75 820.4 L907.8 820.25 Q906.05 818.8 903.8 818.3 901.85 812.35 891.5 807.55 L881.0 802.9 Q875.15 800.15 872.6 797.6 L867.25 794.3 Q866.15 790.8 863.75 787.8 859.85 783.0 854.1 781.15 848.45 779.4 844.5 781.55 840.1 783.95 840.1 790.1 840.1 792.55 843.9 795.7 L845.45 797.15 Q843.75 799.15 841.95 802.05 841.2 803.0 840.6 804.25 L836.6 810.35 Q820.85 829.85 816.6 835.6 799.1 859.1 799.1 866.25 799.1 869.1 799.7 871.25 798.85 872.5 798.85 873.0 798.85 874.9 799.65 876.35 801.3 879.35 805.6 879.35 806.9 879.35 809.25 878.1 814.45 877.95 822.15 868.55 826.65 864.65 832.35 859.35 842.5 849.9 847.75 844.3 L851.55 841.9 Q859.8 836.85 864.1 833.05 L861.45 836.8 Q853.7 847.25 844.1 854.85 833.75 863.05 829.2 869.45 827.35 872.05 825.6 876.65 824.8 878.75 822.1 879.1 L807.6 879.35 Q805.85 879.35 801.85 881.25 797.85 883.1 796.1 883.1 789.3 883.1 786.55 878.4 785.1 875.85 785.1 872.75 785.1 870.2 793.4 860.1 L811.6 838.9 Q838.1 808.15 838.1 800.0 838.1 798.75 837.15 798.1 L835.1 796.9 Q832.55 794.95 832.2 788.45 L833.65 786.35 Q835.1 783.6 835.1 780.35 835.1 777.65 830.65 774.75 L818.35 766.6 Q816.75 765.4 815.95 762.65 814.9 759.1 814.3 758.05 810.95 752.55 795.85 751.85 791.85 743.9 784.3 741.95 777.95 740.3 770.15 743.05 763.35 745.45 758.15 750.05 755.65 752.25 754.4 754.15 M802.9 779.7 Q787.55 775.3 775.15 769.1 L769.45 766.1 Q773.7 764.35 775.85 764.35 777.6 764.35 779.5 766.2 L783.05 770.0 Q788.45 774.95 797.6 772.35 798.8 775.4 802.9 779.7 M1851.95 1048.6 L1858.25 1048.0 1864.25 1048.55 1851.95 1048.6 M659.1 692.25 Q659.1 687.7 655.2 684.85 648.8 680.25 645.35 675.35 L642.45 671.0 Q640.45 668.2 638.2 666.4 631.75 661.15 619.1 660.1 L594.35 659.6 Q589.65 652.4 581.85 648.1 574.85 644.2 567.25 643.65 559.9 643.05 555.15 645.8 552.7 647.2 551.45 649.25 L551.25 649.35 Q548.1 651.95 548.1 657.1 548.1 659.7 549.6 662.4 552.2 667.1 558.1 667.1 562.15 667.1 564.75 664.75 L567.35 666.6 Q571.15 669.55 573.85 672.35 L577.1 675.95 Q579.7 678.55 588.1 680.1 L614.35 680.35 Q620.6 683.4 623.2 685.0 627.25 687.5 628.85 689.85 630.75 692.25 636.15 696.4 643.6 702.1 648.1 702.1 653.55 702.1 656.6 698.6 659.1 695.8 659.1 692.25 M905.45 739.95 L902.15 739.9 905.55 742.3 905.45 739.95 M1030.45 915.15 Q1032.85 917.55 1040.5 920.85 1049.1 924.6 1052.4 924.65 L1065.25 922.6 1068.65 925.8 Q1071.45 928.1 1074.25 928.1 1081.55 928.1 1083.55 921.65 1084.25 919.45 1084.25 913.35 1084.25 903.95 1081.55 900.5 1079.25 897.55 1074.3 898.15 1072.35 898.35 1063.7 900.75 1056.1 902.85 1051.0 902.85 1049.85 902.85 1046.4 901.0 1043.0 899.1 1039.25 899.1 1034.1 899.1 1031.05 902.1 1028.25 904.85 1028.25 908.85 1028.25 912.9 1030.45 915.15 M1066.9 1054.3 L1132.2 1057.6 1025.45 1060.0 1025.5 1057.25 1025.4 1052.45 1066.9 1054.3 M918.5 1020.0 L918.2 1020.3 918.2 1020.0 918.5 1020.0" fill="#655945" fill-rule="evenodd" stroke="none"/>
    <path d="M910.2 844.2 Q905.55 842.7 902.5 838.6 L902.15 838.1 901.25 838.1 Q895.3 838.1 892.65 833.4 891.55 831.4 891.25 829.55 L883.35 829.35 867.35 829.6 864.1 833.05 Q859.8 836.85 851.55 841.9 L847.75 844.3 Q853.35 838.25 853.35 836.6 853.35 827.85 844.85 831.05 842.85 831.8 840.5 833.15 L843.25 827.95 Q848.25 826.1 854.6 815.6 857.3 811.15 859.45 806.4 861.35 802.25 861.35 801.35 861.35 784.75 849.9 798.45 L847.95 798.4 Q844.4 798.8 841.95 802.05 843.75 799.15 845.45 797.15 L843.9 795.7 Q840.1 792.55 840.1 790.1 840.1 783.95 844.5 781.55 848.45 779.4 854.1 781.15 859.85 783.0 863.75 787.8 866.15 790.8 867.25 794.3 L872.6 797.6 Q875.15 800.15 881.0 802.9 L891.5 807.55 Q901.85 812.35 903.8 818.3 906.05 818.8 907.8 820.25 L912.75 820.4 Q918.2 821.35 922.05 825.1 926.25 829.2 926.25 834.85 926.25 837.85 924.25 840.9 921.45 845.1 916.25 845.1 912.95 845.1 910.2 844.2 M832.2 788.45 Q829.6 791.1 825.1 791.1 814.65 791.1 805.3 782.1 L802.9 779.7 Q798.8 775.4 797.6 772.35 788.45 774.95 783.05 770.0 L779.5 766.2 Q777.6 764.35 775.85 764.35 773.7 764.35 769.45 766.1 L769.05 766.25 Q764.55 768.1 763.1 768.1 757.25 768.1 754.65 763.4 753.1 760.6 753.1 757.75 753.1 756.1 754.4 754.15 755.65 752.25 758.15 750.05 763.35 745.45 770.15 743.05 777.95 740.3 784.3 741.95 791.85 743.9 795.85 751.85 810.95 752.55 814.3 758.05 814.9 759.1 815.95 762.65 816.75 765.4 818.35 766.6 L830.65 774.75 Q835.1 777.65 835.1 780.35 835.1 783.6 833.65 786.35 L832.2 788.45 M659.1 692.25 Q659.1 695.8 656.6 698.6 653.55 702.1 648.1 702.1 643.6 702.1 636.15 696.4 630.75 692.25 628.85 689.85 627.25 687.5 623.2 685.0 620.6 683.4 614.35 680.35 L588.1 680.1 Q579.7 678.55 577.1 675.95 L573.85 672.35 Q571.15 669.55 567.35 666.6 L564.75 664.75 Q562.15 667.1 558.1 667.1 552.2 667.1 549.6 662.4 548.1 659.7 548.1 657.1 548.1 651.95 551.25 649.35 L551.45 649.25 Q552.7 647.2 555.15 645.8 559.9 643.05 567.25 643.65 574.85 644.2 581.85 648.1 589.65 652.4 594.35 659.6 L619.1 660.1 Q631.75 661.15 638.2 666.4 640.45 668.2 642.45 671.0 L645.35 675.35 Q648.8 680.25 655.2 684.85 659.1 687.7 659.1 692.25 M1030.45 915.15 Q1028.25 912.9 1028.25 908.85 1028.25 904.85 1031.05 902.1 1034.1 899.1 1039.25 899.1 1043.0 899.1 1046.4 901.0 1049.85 902.85 1051.0 902.85 1056.1 902.85 1063.7 900.75 1072.35 898.35 1074.3 898.15 1079.25 897.55 1081.55 900.5 1084.25 903.95 1084.25 913.35 1084.25 919.45 1083.55 921.65 1081.55 928.1 1074.25 928.1 1071.45 928.1 1068.65 925.8 L1065.25 922.6 1052.4 924.65 Q1049.1 924.6 1040.5 920.85 1032.85 917.55 1030.45 915.15 M840.6 804.25 L839.85 805.85 Q838.2 810.05 835.55 814.7 L830.6 823.1 Q824.25 831.6 819.05 838.95 808.85 853.3 808.85 858.0 808.85 859.15 809.15 860.15 L807.35 862.05 Q801.5 868.45 799.7 871.25 799.1 869.1 799.1 866.25 799.1 859.1 816.6 835.6 820.85 829.85 836.6 810.35 L840.6 804.25 M809.25 878.1 Q813.75 875.65 822.15 868.55 814.45 877.95 809.25 878.1" fill="#5e492f" fill-rule="evenodd" stroke="none"/>
    <path d="M841.95 802.05 Q844.4 798.8 847.95 798.4 L849.9 798.45 Q861.35 784.75 861.35 801.35 861.35 802.25 859.45 806.4 857.3 811.15 854.6 815.6 848.25 826.1 843.25 827.95 L840.5 833.15 Q842.85 831.8 844.85 831.05 853.35 827.85 853.35 836.6 853.35 838.25 847.75 844.3 842.5 849.9 832.35 859.35 826.65 864.65 822.15 868.55 813.75 875.65 809.25 878.1 806.9 879.35 805.6 879.35 801.3 879.35 799.65 876.35 798.85 874.9 798.85 873.0 798.85 872.5 799.7 871.25 801.5 868.45 807.35 862.05 L809.15 860.15 Q808.85 859.15 808.85 858.0 808.85 853.3 819.05 838.95 824.25 831.6 830.6 823.1 L835.55 814.7 Q838.2 810.05 839.85 805.85 L840.6 804.25 Q841.2 803.0 841.95 802.05" fill="#413321" fill-rule="evenodd" stroke="none"/>
    <path d="M109.2 740.25 L109.1 740.25 Q108.55 740.25 107.85 739.55 108.65 740.2 109.2 740.25" fill="#866533" fill-rule="evenodd" stroke="none"/>
  </g>
</svg>
