<?xml version="1.0" encoding="UTF-8" standalone="no"?>
<svg xmlns:ffdec="https://www.free-decompiler.com/flash" xmlns:xlink="http://www.w3.org/1999/xlink" ffdec:objectType="shape" height="835.85px" width="523.35px" xmlns="http://www.w3.org/2000/svg">
  <g transform="matrix(1.0, 0.0, 0.0, 1.0, 244.1, 137.25)">
    <path d="M-38.3 -1.15 L-38.75 -1.25 -39.0 -2.75 -37.95 -3.35 Q-39.65 -5.55 -43.75 -13.1 L-51.5 -27.5 Q-49.55 -28.2 -46.3 -27.4 L-43.0 -26.5 Q-40.6 -26.5 -35.85 -23.05 L-35.75 -24.25 -37.1 -32.7 Q-38.5 -41.05 -38.5 -45.25 -38.5 -47.4 -43.6 -54.95 -48.75 -62.5 -48.75 -66.25 L-48.8 -66.5 -47.0 -66.75 Q-45.15 -66.75 -43.65 -65.5 L-41.05 -62.75 Q-37.45 -58.75 -31.85 -58.75 -30.6 -58.75 -28.45 -60.0 -26.35 -61.25 -25.1 -61.25 -23.75 -61.25 -21.25 -59.85 -18.75 -58.5 -17.75 -58.5 -16.4 -58.5 -16.5 -59.2 -16.65 -60.15 -16.0 -60.5 -13.75 -58.55 -9.5 -53.25 L-4.5 -47.25 -12.5 -59.25 -12.3 -60.35 -11.0 -61.5 -8.85 -60.1 Q-7.75 -59.25 -7.5 -59.25 L-7.25 -60.35 -8.75 -63.8 Q-9.5 -65.55 -9.5 -67.1 L-9.45 -69.15 -9.3 -69.95 -15.5 -71.0 Q-20.35 -75.85 -22.05 -78.15 -25.25 -82.55 -24.25 -85.5 L-34.5 -86.0 -35.75 -86.85 Q-36.25 -87.4 -36.25 -89.0 -36.25 -90.6 -35.7 -91.2 L-34.0 -92.5 Q-38.75 -92.35 -40.4 -93.7 -41.25 -94.45 -41.25 -96.0 -41.25 -97.6 -40.45 -98.35 -39.2 -99.5 -36.05 -99.5 L-52.5 -100.0 Q-55.15 -101.45 -55.35 -103.3 -55.5 -104.85 -54.0 -106.5 L-67.0 -106.75 Q-69.45 -107.4 -70.05 -108.75 -70.25 -109.15 -70.25 -110.6 -70.25 -114.65 -69.75 -116.7 -69.25 -118.75 -69.25 -121.85 -69.25 -127.5 -63.75 -130.0 -56.05 -133.5 -34.75 -133.5 L-21.75 -134.2 -8.0 -135.25 22.25 -135.5 26.0 -136.25 67.75 -136.5 88.0 -137.25 Q91.1 -135.7 101.85 -132.7 107.25 -131.15 107.25 -127.1 107.25 -124.3 102.8 -123.0 98.65 -121.75 90.25 -121.75 L87.25 -121.5 Q90.4 -121.4 92.05 -120.05 93.25 -119.0 93.25 -117.75 93.25 -117.1 91.65 -113.4 90.0 -109.5 89.25 -108.75 L74.25 -108.25 Q74.35 -107.5 74.0 -106.7 73.25 -105.2 71.0 -104.75 L56.25 -104.5 69.55 -102.25 Q76.25 -100.75 76.25 -98.1 76.25 -96.55 75.55 -95.75 L74.25 -94.75 67.9 -95.05 65.5 -95.5 66.25 -92.85 Q65.8 -91.8 65.15 -91.0 63.9 -89.45 61.25 -89.25 62.65 -87.8 62.45 -86.65 62.15 -84.5 55.25 -83.25 L55.95 -82.8 Q56.25 -82.5 56.25 -81.0 56.25 -79.6 46.15 -73.55 36.0 -67.5 36.0 -65.0 L33.4 -60.95 30.0 -56.5 21.45 -56.25 17.0 -56.0 Q11.75 -56.0 11.25 -57.1 11.1 -57.45 12.25 -59.5 L5.5 -60.25 4.15 -61.3 6.4 -57.95 Q12.55 -45.4 16.5 -40.75 L16.5 -34.75 16.7 -34.1 Q16.55 -33.5 15.0 -33.5 13.45 -33.5 12.5 -34.15 11.4 -34.8 10.25 -36.75 L9.5 -36.75 11.6 -34.2 13.5 -31.5 13.25 -29.25 Q12.65 -29.0 11.35 -29.7 9.8 -30.5 8.5 -30.5 7.25 -30.5 7.75 -29.5 8.25 -28.5 7.0 -28.5 5.75 -28.5 4.9 -29.5 4.0 -30.5 2.75 -30.5 1.5 -30.5 1.4 -29.0 1.25 -27.5 0.0 -27.5 -1.75 -27.5 -3.9 -29.45 -6.1 -31.45 -7.25 -31.5 L-8.25 -31.0 -7.25 -27.15 -6.25 -22.75 -6.95 -21.8 -7.25 -21.25 -13.25 -25.25 -13.95 -24.8 Q-14.5 -24.5 -14.5 -23.0 -14.5 -22.3 -12.85 -19.25 L-11.25 -15.85 Q-11.25 -14.25 -11.65 -13.9 L-13.0 -13.5 -17.5 -18.05 -23.25 -23.5 Q-24.2 -20.75 -24.5 -20.2 -24.9 -19.5 -28.0 -19.5 L-28.7 -16.85 Q-26.7 -14.8 -25.5 -13.0 L-26.25 -11.0 -26.25 -10.75 Q-28.85 -11.05 -29.5 -12.55 L-29.7 -13.0 Q-30.95 -8.05 -31.2 -5.85 L-25.0 -6.0 -26.05 -4.85 -8.75 -4.75 -8.2 -4.35 -8.1 -4.35 -3.75 -3.95 -1.2 -3.7 11.6 -2.6 11.5 -3.85 Q11.5 -5.45 12.45 -6.0 L14.0 -6.5 Q20.8 -6.4 26.55 -9.4 L33.5 -13.0 34.8 -11.3 Q35.5 -10.35 35.5 -8.85 35.5 -7.65 34.25 -7.1 L31.5 -6.2 Q27.5 -4.7 27.5 0.5 L27.35 0.9 25.35 1.25 Q20.1 -1.5 18.9 -2.3 L12.0 -2.75 11.95 -2.6 13.25 -2.5 Q15.3 -0.15 16.0 1.25 L15.5 2.0 6.05 0.5 Q5.65 0.8 4.95 0.9 L2.1 1.0 -8.25 0.4 -33.4 -0.95 -34.75 -1.0 -34.8 -1.05 -35.05 -1.3 -36.65 -1.1 -37.5 -1.0 -38.3 -1.15 M-0.5 -68.75 L-5.95 -69.3 Q-3.1 -68.25 -0.5 -66.15 -0.95 -67.3 -0.75 -68.5 L-0.5 -68.75 M-5.0 -63.5 Q-4.65 -61.5 -3.15 -58.95 L-0.25 -54.75 -2.4 -59.2 Q-4.3 -63.05 -5.0 -63.75 L-5.0 -63.5 M-35.55 -4.55 L-34.75 -4.9 -35.6 -5.8 -35.55 -4.55 M-12.65 593.45 L-5.05 595.4 Q-0.25 596.4 3.0 595.6 L10.5 595.95 26.5 597.1 26.0 597.35 -17.5 597.6 -14.55 598.25 Q-12.65 598.75 -12.5 599.1 L-12.5 599.35 -20.5 598.6 Q-20.5 594.35 -18.3 593.3 L-12.65 593.45 M68.65 634.4 Q69.65 632.8 70.0 632.6 L67.8 631.9 Q66.15 631.3 66.0 630.85 L66.25 629.35 70.35 629.35 78.05 630.15 94.0 631.85 95.7 633.95 Q96.4 635.2 95.75 636.85 L95.8 636.9 95.5 637.1 96.5 637.35 96.55 637.3 Q98.75 638.5 102.0 639.3 103.6 639.65 104.8 640.25 L104.55 640.45 102.0 640.85 102.2 642.65 Q100.5 644.45 100.5 645.5 100.5 646.1 102.3 648.35 L104.75 649.1 104.65 649.55 104.0 650.35 103.9 650.3 105.3 651.9 107.1 653.95 112.95 654.5 116.3 654.85 116.0 655.6 108.5 655.4 107.1 655.35 101.15 655.0 92.0 654.35 Q89.15 654.35 83.5 655.6 L82.45 655.9 Q81.3 656.3 81.0 656.6 86.65 657.15 97.8 659.3 L98.95 659.55 99.0 659.85 102.5 660.35 106.75 661.55 112.9 663.2 111.7 663.8 Q108.15 663.45 106.9 664.25 L100.55 663.8 99.65 663.75 Q93.35 663.45 85.8 663.4 L80.0 663.35 79.25 662.85 80.75 661.7 82.0 660.85 94.75 660.35 89.9 659.35 81.5 658.35 Q80.5 657.85 78.5 657.35 L78.0 655.85 Q83.6 652.15 104.5 653.75 L96.25 650.4 90.65 648.1 Q87.35 648.25 82.8 649.65 L77.5 651.35 76.5 651.1 Q81.2 647.45 87.15 646.7 L83.0 645.1 82.75 644.0 Q82.9 643.3 84.0 642.35 L85.25 641.35 76.95 640.8 67.75 639.85 66.95 639.6 Q66.75 639.5 66.75 638.0 L66.8 637.85 66.15 637.8 54.5 637.1 Q54.5 636.8 54.75 636.65 L55.0 636.35 66.95 637.35 Q67.25 636.5 68.25 634.95 L68.65 634.4 M82.55 681.5 L82.5 681.35 88.95 680.65 100.2 679.7 104.55 680.7 104.75 681.3 105.0 681.1 107.75 681.6 107.35 681.65 105.0 681.9 99.45 681.65 Q92.6 681.35 83.0 681.35 L82.55 681.5 M65.1 674.0 L64.5 673.6 52.4 674.0 48.5 674.35 43.75 674.2 43.05 674.15 Q39.5 673.85 39.5 673.35 L43.7 673.0 47.55 672.1 50.95 671.2 54.55 670.15 Q61.65 668.5 66.0 673.5 L66.1 673.65 65.1 674.0 M-45.2 665.5 Q-44.2 665.9 -43.7 666.15 -42.65 666.65 -42.5 667.1 -43.25 668.25 -44.0 668.6 L-59.65 669.3 -61.0 669.35 -62.2 670.15 Q-63.35 670.75 -63.75 671.1 -63.4 671.65 -61.65 672.4 L-57.55 674.0 Q-51.45 676.1 -49.75 677.35 L-49.65 677.55 -42.5 678.1 -49.8 678.65 -60.5 679.35 -61.5 679.6 -54.05 680.75 -43.75 682.1 -43.35 682.55 Q-43.0 682.9 -43.0 684.35 -43.0 685.25 -46.25 686.35 -49.9 687.6 -54.0 687.6 L-57.2 687.25 Q-58.5 686.9 -58.5 686.35 L-46.75 684.35 -61.35 682.5 -78.0 679.85 -67.95 678.7 -51.5 677.35 -51.5 677.1 -56.05 676.9 -58.15 676.0 -62.9 673.6 Q-65.0 672.35 -65.75 671.35 L-66.0 670.25 -65.85 670.15 -64.5 670.1 -65.15 669.6 -62.95 667.8 Q-62.0 667.45 -58.35 667.05 L-51.75 666.35 -57.35 665.15 -61.55 664.35 Q-68.25 663.15 -69.75 661.85 L-69.0 661.1 Q-54.35 661.55 -44.05 661.3 -37.8 661.2 -37.5 661.35 L-37.5 662.1 Q-42.85 663.5 -46.1 663.45 L-56.6 663.15 -57.3 663.1 -63.5 662.85 -57.25 663.75 -55.3 664.05 -45.5 665.35 -45.2 665.5 M-68.1 634.2 L-68.25 632.85 Q-60.5 632.4 -57.05 630.95 L-53.2 628.4 Q-49.25 625.65 -28.75 627.6 L-28.25 627.85 Q-27.75 628.1 -27.75 629.6 L-27.75 629.7 -29.35 631.8 -31.15 634.15 -21.5 636.1 -21.5 636.35 -31.75 636.15 -32.0 637.1 -40.75 637.85 -39.85 638.15 Q-39.5 638.25 -39.5 639.75 L-39.5 639.95 -39.0 639.85 -34.7 639.55 Q-32.1 639.5 -31.6 640.15 -31.35 640.45 -31.5 640.9 L-32.0 641.6 -26.95 642.8 -26.2 643.0 Q-19.35 644.9 -14.5 647.85 L-14.5 648.35 -22.15 646.15 Q-31.05 643.85 -44.75 643.6 L-45.3 643.15 -48.25 643.35 -48.35 643.25 -48.4 643.4 -51.85 643.6 -51.75 645.1 Q-51.75 646.7 -52.1 647.25 L-53.0 648.1 -55.25 648.15 Q-60.1 645.2 -66.7 642.9 -65.25 642.7 -65.25 641.1 -65.25 637.55 -67.6 636.65 L-67.85 635.7 -52.0 635.85 -52.2 636.4 Q-52.3 636.8 -52.0 637.1 -51.35 636.8 -50.85 636.3 L-50.5 635.85 -51.75 634.35 -68.1 634.2 M-45.35 655.75 L-56.9 655.55 Q-62.85 655.45 -63.0 655.6 L-65.5 655.1 Q-65.1 654.5 -63.1 653.45 L-64.1 653.4 Q-58.9 652.75 -55.85 651.45 L-51.75 651.85 -51.5 652.75 -51.45 652.85 -46.5 652.85 -37.0 652.85 -35.85 653.2 Q-35.15 653.45 -34.8 653.75 L-34.5 654.1 -34.5 654.6 -35.2 654.8 -39.0 655.85 -45.35 655.75 M-69.1 653.8 Q-70.0 654.0 -70.5 654.35 L-71.5 654.1 -70.15 653.85 -69.1 653.8 M-73.3 654.1 L-71.8 655.8 -73.45 655.05 -73.8 654.95 -73.75 654.7 -73.75 654.6 -73.75 654.1 -73.75 653.95 -73.45 653.95 -73.3 654.1 M-72.1 644.7 L-71.7 643.7 Q-62.9 646.3 -57.25 648.9 L-59.4 649.6 -69.75 650.0 -69.75 649.5 Q-69.75 648.0 -70.0 647.9 -70.5 648.0 -71.0 647.6 L-73.1 647.6 -72.5 645.9 -70.5 645.6 -70.0 644.85 -72.1 644.7 M21.0 660.9 L16.0 660.35 0.25 659.6 Q-4.85 659.6 -7.1 658.4 -8.25 657.75 -9.5 655.85 L-8.5 655.6 -5.6 657.3 Q-4.1 658.1 -2.5 658.1 -1.25 658.1 2.25 657.1 L7.0 656.1 Q15.05 656.1 20.05 657.55 26.15 659.35 28.75 659.6 L29.55 659.95 29.85 660.05 Q31.05 660.65 31.5 661.1 L21.0 660.9 M99.7 660.95 L96.0 660.85 99.0 661.6 100.15 661.5 102.25 661.35 99.7 660.95 M105.15 677.15 L105.0 677.5 104.9 677.75 102.35 677.3 105.15 677.15 M110.5 672.1 L109.0 672.35 108.8 672.5 105.2 671.5 109.0 671.35 110.5 672.1 M41.85 614.3 Q41.95 614.6 40.5 614.6 L29.2 613.75 17.5 612.1 Q17.5 611.8 17.75 611.65 L18.0 611.35 23.2 612.05 41.5 613.1 41.85 614.3 M44.25 629.15 L40.5 629.85 17.35 629.1 Q5.9 628.25 4.5 626.85 L4.5 626.6 25.9 627.25 46.5 628.1 44.25 629.15 M31.5 605.1 Q30.3 605.85 27.0 606.5 L22.5 607.35 22.0 608.05 Q21.5 608.4 21.5 606.85 21.5 605.35 23.3 605.35 L27.0 605.35 29.25 604.85 26.1 603.9 20.5 603.1 Q20.5 602.8 20.75 602.65 L21.0 602.35 Q27.6 602.65 31.0 604.35 L31.5 605.1" fill="#646a82" fill-rule="evenodd" stroke="none"/>
    <path d="M98.0 70.05 Q102.35 68.2 105.25 62.35 106.2 60.45 108.9 59.55 111.3 58.75 112.25 55.75 113.2 52.2 114.2 50.45 116.1 47.25 119.0 47.25 123.15 47.25 123.75 51.75 124.05 54.15 124.35 54.85 125.05 56.25 127.0 56.25 131.9 56.25 142.7 45.65 153.55 35.0 157.5 35.0 L177.5 16.75 Q195.65 1.2 197.15 5.15 210.25 -8.75 222.5 -17.25 229.5 -22.1 241.85 -36.4 251.8 -47.9 254.0 -47.25 257.55 -46.15 259.5 -34.45 261.0 -25.55 261.0 -16.0 261.0 -14.7 260.05 -10.35 L258.75 -3.25 258.85 -2.6 Q258.8 -2.0 257.25 -2.0 253.95 -2.0 253.45 -3.95 252.95 -5.9 249.25 -5.75 249.0 -1.6 242.3 3.6 236.25 8.25 233.75 8.25 228.7 14.3 222.25 20.25 209.35 32.2 201.25 32.0 L198.25 33.5 199.05 35.55 199.25 38.35 199.2 40.9 198.75 43.25 197.8 43.65 195.35 44.0 Q191.65 44.0 191.4 42.45 191.8 40.45 191.5 39.5 190.75 40.25 189.55 43.0 L187.15 48.05 Q183.4 54.5 177.0 54.5 174.4 54.5 173.25 51.9 167.2 60.35 161.2 67.85 153.45 77.5 150.0 80.1 L152.75 85.0 Q152.75 85.6 149.25 88.35 L141.05 94.7 Q128.45 104.75 125.0 111.85 123.9 114.1 122.55 119.2 L120.25 128.05 Q117.2 138.6 113.25 138.6 110.3 138.6 107.75 135.0 L107.7 135.35 Q107.4 135.65 107.25 136.1 L106.9 136.6 Q106.5 137.1 105.0 137.1 102.5 137.1 97.5 122.0 93.0 108.35 93.0 106.6 L84.0 55.0 Q84.0 49.75 85.75 49.2 L86.55 49.2 86.5 50.6 Q89.95 70.5 93.95 90.6 102.05 130.85 105.0 130.85 106.55 130.85 107.25 129.9 108.0 128.85 108.0 126.5 108.0 122.7 104.15 101.6 L100.0 79.6 98.0 70.05 M-225.6 -46.1 Q-224.7 -49.0 -223.6 -51.2 -221.1 -56.15 -219.3 -54.4 -217.35 -52.5 -217.35 -43.25 -217.35 -39.55 -201.05 -29.3 -183.75 -19.05 -181.75 -17.5 -170.1 -7.1 -163.8 -2.35 -152.6 6.0 -143.0 6.0 -138.85 6.0 -133.6 14.7 -127.65 24.55 -125.0 26.0 L-124.6 26.2 Q-124.25 26.05 -124.25 24.5 -124.25 23.55 -126.6 18.3 -129.0 13.05 -129.0 8.75 -129.0 0.0 -123.0 0.0 -116.65 0.0 -111.1 8.65 -106.0 18.45 -104.0 20.75 -101.25 23.8 -100.4 31.65 -99.5 39.65 -97.75 41.75 -96.85 42.8 -92.05 42.7 -87.1 42.6 -84.75 45.0 L-80.4 49.45 Q-77.55 52.65 -76.75 55.0 -74.3 62.0 -69.8 66.2 L-68.5 67.5 -68.0 65.35 Q-64.45 53.3 -62.6 48.2 -60.4 42.15 -59.65 46.6 -59.25 48.9 -59.25 54.0 -59.25 60.85 -62.35 81.85 -64.15 94.0 -65.65 100.55 -66.95 106.2 -68.0 107.6 -69.85 106.1 -71.05 102.55 L-71.55 100.65 -73.5 108.25 -72.5 116.3 Q-71.5 123.1 -71.5 124.35 L-71.45 131.9 Q-72.15 138.35 -75.75 138.35 -78.9 138.35 -87.8 121.4 -98.35 101.4 -100.25 99.1 -104.5 94.05 -110.75 88.3 -116.45 83.05 -118.5 80.35 -121.3 76.7 -124.65 70.9 L-130.25 60.85 Q-130.65 61.35 -131.25 63.25 -132.2 64.85 -134.75 64.85 -142.7 64.85 -153.05 50.45 L-159.75 40.5 Q-162.85 36.0 -164.0 36.0 -166.45 36.0 -179.45 25.4 L-195.5 12.25 Q-202.15 7.55 -206.55 3.25 L-211.45 -1.85 Q-213.25 -3.65 -215.65 -4.2 L-224.85 -4.75 Q-229.05 -4.75 -229.9 -9.9 -230.25 -12.1 -229.95 -14.5 L-229.85 -15.35 Q-225.6 -42.95 -225.6 -44.5 L-225.6 -46.1" fill="#828a8c" fill-rule="evenodd" stroke="none"/>
    <path d="M274.65 1.5 L274.75 11.25 273.9 17.45 Q273.0 22.35 273.0 23.6 273.0 29.2 270.8 37.6 268.3 47.35 265.0 50.0 262.05 49.75 261.25 48.25 261.0 47.8 261.0 46.35 L263.75 34.5 Q266.5 22.4 266.5 20.1 266.5 15.9 264.35 0.9 L262.0 -15.5 259.9 -32.2 Q258.0 -47.2 258.0 -50.0 258.0 -52.1 258.3 -52.85 259.15 -55.25 262.5 -56.5 262.5 -57.55 260.5 -63.2 258.5 -68.85 258.5 -70.0 258.5 -71.5 258.65 -71.85 L259.0 -72.75 Q261.6 -70.05 263.8 -65.7 L263.75 -64.1 Q263.75 -62.1 268.95 -31.2 L274.65 1.5 M-231.25 -48.7 Q-229.6 -54.95 -227.75 -53.3 -225.85 -51.6 -225.6 -46.1 L-225.6 -44.5 Q-225.6 -42.95 -229.85 -15.35 L-229.95 -14.5 -230.45 -11.35 Q-235.35 20.15 -235.35 23.5 -232.0 40.5 -230.85 43.0 L-231.5 44.4 Q-232.25 45.25 -233.85 45.25 -237.7 45.25 -239.4 31.85 -240.25 25.1 -240.35 18.1 L-240.05 10.0 Q-238.25 0.15 -235.55 -17.25 -232.55 -36.75 -231.25 -48.7 M-51.25 572.35 Q-44.85 567.9 -40.8 567.65 L-30.5 568.6 -30.0 568.25 Q-29.5 568.2 -29.5 569.75 -29.5 571.35 -30.25 571.55 L-33.25 571.85 Q-30.15 572.35 -28.4 573.0 L-26.0 574.1 -25.75 575.25 Q-30.15 579.8 -35.55 579.95 L-42.5 579.35 -43.5 579.1 Q-42.45 578.15 -40.65 577.4 L-36.0 575.6 -35.75 575.1 -43.55 574.2 -50.75 573.1 -51.25 572.35 M-38.5 588.1 Q-37.2 585.95 -35.75 585.55 -33.4 584.9 -27.75 586.6 -27.95 587.25 -29.1 587.75 -30.35 588.35 -32.1 588.35 L-38.5 588.1 M-33.0 596.35 L-35.6 596.0 Q-35.85 595.95 -37.5 595.1 L-35.05 594.3 Q-33.25 593.95 -30.75 594.35 L-30.5 595.1 -31.0 596.0 Q-31.4 596.35 -33.0 596.35 M-81.0 638.6 Q-80.25 636.95 -80.25 635.6 L-80.25 635.5 -78.5 635.6 -69.0 635.7 -69.0 636.0 -69.05 636.35 -68.2 636.45 -67.6 636.65 Q-65.25 637.55 -65.25 641.1 -65.25 642.7 -66.7 642.9 L-68.85 642.2 -81.0 638.6 M-79.6 634.3 Q-78.35 633.15 -74.6 632.8 -70.65 632.4 -69.45 634.2 L-78.0 634.1 -79.6 634.3 M-71.8 655.8 Q-70.0 656.7 -70.0 657.6 -70.0 659.0 -70.55 660.15 -70.95 661.0 -71.65 661.7 L-73.2 663.25 -73.55 663.2 -73.0 662.85 -74.4 662.75 -74.75 662.7 -71.75 659.35 Q-73.05 658.75 -74.5 657.2 L-75.5 658.55 -75.55 658.6 -77.5 657.85 -80.4 657.7 -80.9 657.1 -75.0 656.85 -73.75 654.7 -73.8 654.95 -73.45 655.05 -71.8 655.8 M-38.5 625.6 Q-45.6 623.35 -47.5 622.35 -47.0 619.15 -45.9 618.05 -43.95 616.05 -36.75 618.35 L-36.5 619.1 Q-36.9 619.8 -40.65 620.55 -44.6 621.3 -45.0 621.6 L-45.5 621.75 -46.0 622.1 -42.5 622.8 Q-38.95 623.75 -38.25 624.85 L-38.5 625.6 M-79.35 641.45 L-76.05 642.45 -71.7 643.7 -72.1 644.7 Q-75.15 644.6 -81.25 644.8 L-81.4 644.6 -82.75 642.6 Q-79.8 641.95 -79.4 641.55 L-79.35 641.45 M-74.8 654.0 L-73.75 653.95 -73.75 654.1 -73.75 654.6 Q-74.05 654.3 -74.8 654.0 M-72.5 645.9 L-73.1 647.6 -73.75 647.6 Q-73.75 646.35 -73.95 646.15 L-72.5 645.9 M-75.05 646.3 L-74.35 646.2 -74.5 646.35 -75.05 646.3 M-76.4 664.4 L-75.9 664.25 -74.45 664.4 -76.4 666.3 -77.5 666.1 -76.4 664.4 M-79.1 663.8 L-80.25 664.25 -83.0 663.7 -82.95 663.3 -79.1 663.8 M-81.85 660.6 L-81.75 660.45 -77.75 660.6 -81.85 660.6 M59.5 586.6 L62.75 586.6 75.5 586.85 Q76.85 587.85 77.25 589.1 L77.5 589.5 Q77.4 589.85 75.85 589.85 L68.65 589.4 60.5 588.6 60.0 587.5 59.5 586.6 M90.0 557.1 L82.25 556.85 80.5 556.1 Q80.9 555.5 82.8 555.15 L90.0 554.6 91.2 554.95 Q92.55 555.4 93.0 555.85 L92.45 556.5 Q91.55 557.1 90.0 557.1 M108.5 655.4 L116.0 655.6 120.9 655.9 114.8 656.55 110.2 657.05 108.5 655.4 M112.95 654.5 L107.1 653.95 105.3 651.9 103.9 650.3 104.0 650.35 104.65 649.55 104.75 649.1 102.3 648.35 Q100.5 646.1 100.5 645.5 100.5 644.45 102.2 642.65 L102.25 642.85 115.0 644.25 115.0 644.6 Q115.0 647.0 117.7 647.95 L120.4 648.7 120.15 649.15 119.6 649.25 Q115.65 650.2 112.75 653.35 L112.95 654.5 M104.55 640.45 L104.8 640.25 Q107.3 638.2 110.25 636.7 111.1 636.25 111.95 635.95 L119.3 636.55 119.8 637.95 104.55 640.45 M115.3 642.4 L109.25 642.35 112.0 641.85 116.05 640.85 Q115.55 641.5 115.3 642.4 M116.65 653.3 L117.2 653.35 117.15 653.35 116.95 653.5 116.5 653.35 116.65 653.3 M116.25 665.7 L116.2 665.45 118.4 665.15 Q117.5 665.35 116.7 665.7 L116.25 665.7 M117.55 668.15 L116.65 669.15 116.2 669.9 113.45 669.5 112.5 668.6 115.6 668.15 117.55 668.15 M113.5 679.05 L114.8 676.0 117.55 676.15 118.0 676.9 118.1 677.05 118.0 677.1 118.5 677.85 118.7 678.05 118.0 678.6 Q114.9 678.4 113.55 679.1 L113.5 679.05 M78.15 605.4 Q76.85 607.25 73.25 607.6 L74.55 608.35 75.5 609.1 75.5 609.35 70.25 610.1 68.45 609.8 65.0 609.35 64.75 607.75 Q65.3 606.8 67.0 606.35 63.75 605.85 63.0 605.1 63.1 604.45 64.0 603.95 65.7 602.9 71.0 602.35 68.95 601.15 65.4 599.65 62.55 598.45 61.5 597.6 L69.0 598.45 Q75.6 599.55 79.25 601.35 L79.5 602.5 Q79.0 603.25 78.15 605.4 M77.5 623.35 L86.5 624.1 77.5 624.6 Q74.5 624.1 74.5 623.35 L77.5 623.35" fill="#747c7e" fill-rule="evenodd" stroke="none"/>
    <path d="M263.8 -65.7 L263.8 -66.1 264.0 -66.75 Q268.45 -61.35 273.95 -31.05 279.25 -2.2 279.25 12.1 L279.2 14.1 279.0 14.75 277.25 15.0 274.65 1.5 268.95 -31.2 Q263.75 -62.1 263.75 -64.1 L263.8 -65.7 M-240.05 10.0 Q-241.45 17.4 -242.35 20.5 L-242.35 20.75 Q-243.55 19.95 -243.8 19.5 -244.1 18.9 -244.1 17.1 -244.1 12.1 -241.15 -5.95 L-237.85 -26.75 Q-237.15 -33.25 -237.05 -48.5 -236.4 -62.15 -232.6 -69.25 -230.35 -66.35 -230.35 -62.1 -230.35 -57.35 -231.25 -48.7 -232.55 -36.75 -235.55 -17.25 -238.25 0.15 -240.05 10.0 M162.5 644.75 L163.0 644.25 Q164.7 642.75 165.5 642.6 165.9 643.0 166.4 643.05 166.75 643.3 166.75 644.85 166.75 645.55 164.75 647.5 162.35 649.85 159.0 651.9 L154.75 654.2 153.45 651.95 152.45 650.25 Q154.95 649.55 157.75 648.15 161.35 646.3 162.5 644.75 M-118.65 650.4 Q-128.4 647.8 -129.25 645.1 -129.25 644.35 -128.75 643.6 -126.25 645.0 -118.05 647.2 L-117.95 647.4 -117.55 647.85 -118.65 650.4" fill="#333333" fill-rule="evenodd" stroke="none"/>
    <path d="M-33.4 -0.95 Q-31.0 0.9 -31.0 1.25 L-17.6 2.25 -10.75 3.25 -6.55 3.55 -1.75 4.25 Q15.5 4.75 21.1 6.2 L24.45 7.3 28.25 8.25 29.0 9.0 29.3 9.65 Q29.3 10.25 27.75 10.25 L10.75 7.75 3.95 7.45 -3.25 6.75 Q-11.75 6.25 -12.25 5.75 L-21.75 4.75 Q-32.55 4.1 -36.75 5.75 -36.75 6.2 -38.85 8.25 -41.0 10.3 -41.0 11.25 -41.0 12.8 -41.6 13.0 L-43.0 13.25 -43.05 13.25 -43.5 17.8 -44.0 24.75 Q-44.35 24.75 -45.0 26.0 L-45.5 25.75 Q-47.25 42.85 -47.25 58.0 L-47.75 58.35 Q-48.3 58.8 -49.0 59.1 -50.0 58.5 -50.4 56.4 L-51.5 56.25 Q-52.0 51.75 -52.0 48.35 -52.0 42.85 -50.45 29.7 L-49.05 19.8 Q-50.35 16.35 -51.5 11.1 -51.5 8.4 -50.15 6.95 -49.5 6.25 -48.7 6.0 L-49.5 4.95 Q-51.25 2.3 -51.25 1.1 -51.25 -0.45 -51.0 -0.35 L-50.75 0.0 -41.0 -0.75 -41.0 -1.25 -38.3 -1.15 -37.5 -1.0 -36.65 -1.1 -34.8 -1.05 -34.75 -1.0 -33.4 -0.95 M76.15 101.65 L79.65 102.05 Q81.35 102.4 81.15 103.15 81.4 103.2 81.5 103.35 L81.5 104.1 81.3 104.35 87.5 104.35 88.5 107.1 88.6 107.5 Q88.4 107.85 86.85 107.85 L80.6 106.75 76.25 105.75 75.75 105.6 65.35 104.45 Q58.95 103.8 58.5 103.35 58.5 102.9 59.25 102.15 L60.0 101.35 Q70.95 101.3 76.15 101.65 M-42.5 105.15 L-51.0 104.85 -53.0 103.6 Q-53.0 102.95 -52.45 102.15 -51.85 101.2 -51.0 100.85 L-43.5 100.95 -33.8 101.3 -25.0 102.1 -23.35 102.4 Q-21.65 102.8 -21.5 103.1 -23.15 103.35 -26.6 104.55 L-31.0 105.6 -38.2 105.3 -42.5 105.15 M-63.5 175.35 Q-60.95 174.5 -58.55 176.35 -54.55 179.5 -52.5 180.35 L-52.5 181.1 -53.25 182.35 Q-60.4 182.05 -62.3 179.45 -62.95 178.65 -63.15 177.3 L-63.5 175.35 M136.9 669.05 L135.65 670.15 135.05 670.05 131.45 669.5 136.15 669.1 136.9 669.05 M-118.5 645.8 Q-121.8 645.2 -125.4 643.95 L-131.0 641.85 -131.25 639.85 Q-126.3 639.85 -121.1 640.9 -116.6 641.85 -115.75 642.6 L-115.75 644.7 -116.65 646.05 -118.5 645.8 M-68.75 664.0 Q-65.7 664.7 -64.75 665.35 L-64.5 666.1 -69.0 665.25 -74.45 664.4 -75.9 664.25 -73.55 663.2 -73.2 663.25 -68.75 664.0 M-79.1 663.8 L-82.95 663.3 -87.85 662.75 -77.0 663.1 -79.1 663.8 M-92.35 635.55 L-93.0 636.35 -95.3 635.75 Q-97.25 635.15 -98.5 634.35 -95.05 634.35 -92.25 635.1 L-92.35 635.55 M-90.0 644.85 L-89.8 645.15 Q-94.45 644.95 -98.55 645.05 L-99.6 645.1 -100.5 644.75 Q-103.1 643.75 -104.5 642.35 -100.7 642.35 -90.0 644.85 M-84.25 660.35 L-85.1 660.4 -94.5 660.45 -94.5 659.65 -84.25 660.35 M-108.65 645.6 L-104.35 645.35 -108.0 646.0 -108.6 645.7 -108.65 645.6 M-96.4 670.0 L-96.4 669.3 Q-95.7 668.75 -82.75 669.6 L-82.5 671.1 -85.2 671.0 -87.9 671.1 -96.4 670.0 M79.0 21.0 L72.65 16.45 Q70.0 14.45 70.0 12.6 70.0 10.1 70.25 10.75 72.95 10.75 76.55 13.5 80.0 16.15 80.0 17.6 80.0 20.1 79.75 20.25 79.55 20.25 79.3 20.55 79.0 20.8 79.0 21.0 M78.5 186.1 Q79.3 182.75 85.2 179.4 91.35 175.85 97.25 175.85 L97.4 176.25 97.5 178.5 Q97.5 181.85 94.0 184.1 89.85 186.85 82.0 186.85 L79.7 186.55 78.5 186.1 M133.5 626.35 L131.0 625.8 128.5 625.1 Q128.5 624.8 128.75 624.65 L129.0 624.35 131.5 624.9 133.25 625.6 133.5 626.35 M127.8 643.15 L138.25 643.35 140.0 644.85 Q139.5 645.6 137.0 646.1 L137.45 646.25 140.0 646.6 141.3 646.95 140.55 648.4 Q138.8 647.6 137.0 647.6 L131.95 648.35 131.85 648.4 121.0 647.85 120.75 646.75 123.7 644.8 134.5 645.35 134.5 644.85 Q132.3 643.75 127.8 643.15 M129.8 638.25 L133.0 638.35 133.65 639.15 Q134.35 639.7 134.5 640.1 L134.5 640.6 Q132.6 640.4 131.05 639.85 129.2 639.2 128.5 638.35 L129.8 638.25 M132.0 632.35 L133.65 632.55 Q135.35 632.8 135.5 633.1 135.0 633.35 131.5 633.1 131.5 632.8 131.75 632.65 L132.0 632.35 M116.3 654.85 L112.95 654.5 112.75 653.35 Q115.65 650.2 119.6 649.25 L120.15 649.15 121.5 648.9 Q125.1 648.35 130.25 648.7 L126.25 649.1 126.25 649.95 121.0 649.85 Q119.35 650.9 118.25 652.1 L117.65 652.15 117.25 652.1 117.25 652.2 114.5 652.35 Q114.5 653.1 116.65 653.3 L116.5 653.35 116.95 653.5 Q116.35 653.75 116.25 654.1 L116.6 654.3 116.3 654.85 M117.25 661.05 L118.3 661.05 117.55 661.2 117.25 661.05" fill="#504f3d" fill-rule="evenodd" stroke="none"/>
    <path d="M-43.5 100.95 Q-45.4 88.9 -45.95 71.7 -46.25 62.25 -46.25 41.6 -46.25 31.65 -44.8 31.4 -43.55 31.2 -41.55 37.75 -37.0 52.7 -36.5 64.6 -36.15 65.75 -34.75 75.9 -33.75 82.95 -30.75 85.6 -29.0 87.15 -24.65 88.4 L-18.8 89.95 -18.95 87.9 -18.75 86.35 Q-18.75 73.95 -0.6 75.55 5.9 76.1 11.85 78.3 17.5 80.35 17.5 81.85 L13.15 88.5 15.75 88.85 Q16.7 88.85 19.3 86.85 L22.0 84.85 Q23.25 84.85 23.9 86.0 24.5 87.1 25.75 87.1 L33.75 86.6 37.35 85.85 41.75 85.1 Q42.35 85.1 43.6 83.5 44.85 81.85 46.0 81.85 46.75 81.85 48.15 82.95 49.5 84.1 50.0 85.1 53.75 81.35 55.4 79.05 55.85 78.6 59.5 78.6 61.65 78.6 63.0 76.35 64.0 74.7 64.0 73.35 L63.0 62.85 62.0 52.35 Q62.0 39.4 64.25 42.1 66.15 44.45 69.15 57.25 71.9 69.15 74.0 83.05 75.8 94.7 76.15 101.65 70.95 101.3 60.0 101.35 L59.25 102.15 Q58.5 102.9 58.5 103.35 58.95 103.8 65.35 104.45 L75.75 105.6 76.25 105.75 Q76.2 110.8 75.8 113.1 74.55 119.85 70.35 119.85 66.9 119.85 66.05 117.3 65.8 116.5 65.75 113.8 L64.25 114.1 Q63.0 114.1 62.0 112.85 61.0 111.6 59.75 111.6 L56.05 113.25 Q52.5 114.85 52.0 114.85 49.2 114.85 47.95 111.7 L44.85 111.1 44.75 111.85 38.6 112.35 37.25 112.85 Q30.95 112.85 27.55 109.85 L23.0 110.1 17.9 108.55 17.5 110.6 19.15 110.55 22.5 110.35 Q31.3 110.35 33.75 115.3 35.0 117.75 34.5 120.5 34.5 123.0 30.25 129.1 25.15 136.35 20.25 136.35 13.65 136.35 11.0 131.6 9.75 133.45 9.4 134.95 L3.5 135.6 Q2.95 135.6 -0.85 137.6 -4.7 139.6 -5.5 139.6 -11.8 139.6 -15.75 132.25 L-15.75 132.5 -16.75 147.1 Q-18.1 161.1 -20.0 161.1 -23.1 161.1 -27.45 149.1 -31.45 138.15 -32.25 130.6 -32.65 126.3 -37.55 116.75 -41.0 109.95 -42.5 105.15 L-38.2 105.3 -31.0 105.6 -26.6 104.55 Q-23.15 103.35 -21.5 103.1 -21.65 102.8 -23.35 102.4 L-25.0 102.1 -33.8 101.3 -43.5 100.95 M-13.6 120.55 L-13.95 121.85 -13.5 122.35 -12.75 120.85 -13.6 120.55 M2.35 417.25 Q-6.2 414.45 -18.25 412.45 -22.0 411.8 -23.2 411.1 L-23.7 410.75 -29.0 410.35 Q-31.05 408.3 -34.3 407.4 -37.55 406.55 -38.5 405.6 L-38.5 403.6 -29.1 404.9 -24.55 405.65 -24.5 405.35 -15.25 405.1 Q-9.0 404.85 -2.25 404.85 -0.85 404.85 -0.5 403.75 -0.1 402.35 1.25 401.85 L1.4 401.5 1.5 399.85 Q1.5 398.6 -0.1 398.85 -1.75 399.1 -1.75 397.85 -1.75 397.45 -0.35 395.2 1.0 393.0 1.25 392.85 0.7 391.95 -1.7 390.1 -3.75 388.55 -3.75 387.75 -3.75 386.2 -3.5 386.0 L-3.25 386.1 5.25 385.85 Q0.2 384.9 -1.4 384.0 -2.75 383.25 -2.75 381.85 -2.75 381.45 -1.25 379.55 0.1 377.8 0.45 374.65 L-0.5 374.6 Q-4.9 371.75 -5.7 370.2 -6.0 369.6 -6.0 366.5 -6.0 365.2 -5.3 362.2 -13.2 362.85 -15.0 364.6 L-37.0 364.35 Q-37.75 363.6 -37.75 362.85 -51.25 362.85 -51.25 363.1 -53.95 362.15 -54.75 360.1 -54.0 359.35 -53.0 359.1 L-26.5 358.6 -17.1 357.65 -3.95 357.0 -3.7 356.1 Q-15.5 353.95 -30.65 350.0 -49.25 345.2 -57.75 341.6 L-57.75 338.6 Q-53.55 339.35 -51.15 340.3 L-48.05 341.55 -28.6 342.6 Q-27.45 342.6 -23.65 341.1 -19.85 339.6 -18.5 339.6 -14.35 339.6 -6.15 341.3 L-7.1 339.7 Q-10.75 333.65 -10.75 332.85 L-10.6 330.3 Q-10.05 328.15 -8.0 327.1 L-5.5 326.85 Q-8.1 326.5 -9.85 325.8 -11.35 325.25 -11.75 324.6 -11.45 324.0 -11.65 323.35 L-11.65 322.65 Q-11.3 322.15 -5.5 321.85 L-8.25 321.6 Q-8.75 319.6 -8.75 317.6 L-8.6 317.35 -7.05 317.1 -5.75 315.6 -3.75 314.85 Q-9.4 313.45 -10.5 312.35 L-7.95 310.0 Q-6.5 308.8 -6.5 307.75 -6.5 306.85 -5.2 304.8 -3.95 302.8 -3.0 302.1 L-3.25 301.6 -9.75 301.1 -10.1 301.5 Q-10.5 301.55 -10.5 300.0 L-10.25 298.25 -10.0 298.35 -1.85 298.05 -2.25 297.45 -6.0 297.1 -6.45 296.45 -6.5 294.5 -6.55 292.4 Q-6.3 291.5 -4.4 291.0 L-3.9 290.9 -4.0 286.35 Q-4.0 284.6 -2.5 277.7 L-1.0 270.25 Q-1.0 268.75 -1.55 267.15 L-2.25 265.0 -3.2 266.2 Q-3.95 266.85 -5.5 266.85 L-9.4 263.8 -13.0 260.5 Q-13.0 259.25 -10.55 257.7 L-23.4 258.55 -42.25 259.75 -42.5 259.7 Q-42.75 259.55 -42.75 258.0 L-42.25 257.25 -40.0 255.25 -19.3 253.4 -0.2 251.3 -0.35 250.75 -17.6 249.05 Q-29.55 247.1 -45.25 245.5 L-45.5 245.7 Q-45.75 245.55 -45.75 244.0 -45.75 240.9 -24.55 243.1 -13.55 244.25 -2.0 246.25 L-2.55 244.85 -6.0 236.5 -6.0 229.75 -5.75 229.4 Q-5.5 229.0 -4.0 229.0 -3.0 229.0 -2.4 230.0 L-1.0 231.75 Q-2.05 228.25 -7.05 219.7 -11.0 212.85 -11.0 208.5 -11.0 206.25 -9.4 203.9 -7.55 201.15 -5.0 201.25 L-4.75 201.0 Q-7.35 200.35 -8.25 199.0 -14.75 198.25 -15.5 197.5 -5.45 191.0 3.25 189.5 11.65 188.05 28.25 189.75 L28.5 191.25 27.75 192.5 20.25 193.0 22.0 193.45 Q23.9 194.05 24.5 194.5 22.8 199.0 17.0 200.0 18.75 201.95 21.7 204.15 23.75 206.0 23.75 208.25 23.75 209.95 22.85 210.9 20.95 213.0 15.75 211.25 17.0 218.05 22.3 233.75 24.15 240.1 24.7 245.2 L29.55 244.7 42.45 242.85 52.55 242.4 Q57.2 242.9 60.5 245.75 55.2 247.25 43.4 248.5 32.25 249.7 26.0 251.75 L24.75 251.9 24.75 252.15 49.4 254.5 Q60.0 255.7 74.5 258.5 L74.75 260.0 Q74.6 260.9 73.25 261.15 L66.75 262.25 Q66.6 262.25 66.55 263.05 66.45 263.75 65.0 263.75 58.1 263.75 51.15 261.9 L44.1 260.05 44.15 260.5 44.0 262.35 Q44.0 263.8 42.0 265.3 40.25 266.55 41.0 268.85 L40.0 270.85 Q37.75 271.0 34.35 269.1 29.85 266.65 28.5 266.25 22.7 281.25 20.05 285.7 L17.25 289.9 20.5 289.85 20.9 289.65 Q21.25 289.8 21.25 291.35 21.25 292.9 20.4 293.35 L19.0 293.85 Q19.75 295.0 19.0 296.1 L21.8 297.25 Q23.85 297.95 24.25 298.35 L24.5 299.1 Q24.1 299.7 23.05 300.05 L19.0 300.85 Q21.7 300.8 23.3 302.3 L24.5 303.85 23.75 305.35 18.25 305.65 Q25.45 310.15 30.5 314.85 L30.4 316.55 Q29.7 317.95 25.75 317.85 26.95 319.9 26.8 321.0 L26.25 322.1 27.65 323.25 29.75 325.1 Q29.5 325.5 29.65 326.15 29.5 326.6 28.0 326.6 26.5 326.6 24.45 325.65 L22.95 324.9 22.7 325.05 27.3 327.75 Q32.75 331.2 32.75 333.0 32.75 334.1 31.85 335.1 30.55 336.5 30.0 337.6 L29.0 337.85 Q34.75 338.75 38.25 342.45 41.4 345.85 44.0 345.85 57.15 345.85 66.0 343.6 74.85 341.35 81.35 341.35 83.35 341.35 86.25 339.95 89.25 338.5 91.5 338.35 L92.5 338.65 92.75 340.25 Q92.75 342.7 79.3 348.0 64.4 353.45 61.5 354.85 62.6 356.2 75.05 359.0 86.75 361.6 86.75 363.75 86.75 366.25 86.5 364.85 L86.25 365.15 86.0 365.6 78.75 365.6 Q78.0 366.35 53.0 366.1 L46.0 365.85 37.75 366.1 37.55 366.55 36.75 367.6 Q37.4 368.05 39.05 368.7 40.55 369.4 41.0 370.85 L37.4 373.85 Q35.25 375.65 34.0 377.6 L25.7 377.85 Q26.5 378.75 26.5 379.6 26.5 380.6 21.5 384.6 23.5 385.65 24.3 386.45 26.45 388.5 25.75 391.1 L30.65 394.25 Q31.75 395.05 31.75 396.0 31.75 397.4 31.25 399.4 30.75 401.4 30.75 402.6 30.75 403.85 29.65 404.25 28.5 404.6 28.5 405.85 L28.55 406.45 48.3 405.75 61.0 405.1 68.2 405.7 Q73.6 406.35 73.75 406.85 L71.25 408.65 Q68.55 409.9 63.25 410.1 61.4 411.95 57.75 414.1 54.05 416.3 53.0 417.35 L45.3 417.8 37.0 418.6 29.75 418.85 29.75 419.0 57.25 421.25 79.5 423.1 79.75 423.85 Q76.9 425.55 73.95 426.7 69.6 428.35 66.5 428.1 L66.75 429.25 66.5 431.1 66.2 431.15 Q65.9 431.3 65.75 431.6 L62.0 431.55 58.25 431.35 56.75 431.35 Q56.75 431.6 55.25 431.85 60.3 432.45 60.75 433.85 L56.0 437.6 Q36.2 435.9 31.55 434.7 L29.5 433.95 29.75 437.85 28.5 440.4 27.5 441.95 Q37.4 445.0 45.5 448.85 45.25 449.55 44.45 449.95 43.3 450.5 40.25 450.85 41.0 451.95 43.9 454.45 46.85 457.0 47.75 458.35 L47.75 459.85 46.7 460.25 44.0 460.6 37.45 460.2 Q42.0 461.85 44.25 464.15 45.65 465.6 49.75 473.85 49.5 474.55 48.95 474.85 L46.5 475.1 46.0 475.6 Q52.0 477.5 52.0 480.1 52.0 481.65 51.35 481.9 L49.75 482.35 Q52.3 483.75 53.4 484.6 55.0 485.85 55.0 486.85 55.0 487.55 54.0 489.2 52.95 490.95 52.75 492.35 L47.5 492.85 45.85 492.8 46.35 493.4 Q47.2 494.1 51.5 495.85 L52.05 496.1 Q52.3 496.35 50.75 496.35 44.6 496.35 40.65 494.85 36.1 493.1 33.5 492.85 L31.75 493.1 Q34.6 495.3 37.15 499.1 39.75 503.0 39.75 505.1 39.75 506.3 39.05 507.4 38.2 508.6 37.0 508.6 31.2 508.6 28.95 507.1 25.95 504.35 21.75 501.85 L21.75 507.1 23.15 508.15 Q24.0 508.95 24.0 510.5 24.0 513.3 19.25 514.35 L20.4 515.2 Q21.0 515.8 21.0 517.35 21.0 518.4 19.95 519.5 L18.0 521.6 5.0 522.1 6.9 523.45 Q8.35 524.65 9.95 525.35 15.2 527.8 26.25 527.85 L26.65 528.3 Q27.0 528.75 27.0 530.25 27.0 531.15 26.4 532.0 25.55 533.2 24.0 533.1 25.8 533.7 25.95 534.6 L26.25 536.1 Q27.6 537.9 42.0 539.1 L43.35 539.2 Q43.75 539.25 43.75 540.75 43.75 542.25 43.55 542.35 L43.0 542.6 Q33.4 542.7 25.75 542.3 L26.0 541.85 Q25.65 541.5 23.85 540.75 22.25 540.1 22.25 539.85 L21.3 539.8 Q20.95 539.5 20.05 539.15 L18.25 538.35 6.55 537.55 -0.7 536.75 -1.4 536.0 6.4 537.3 14.0 538.1 19.05 537.75 Q22.25 537.35 22.75 536.85 17.85 535.95 15.8 535.0 L15.75 534.95 21.5 535.1 Q21.3 534.7 14.95 534.15 L14.25 534.1 14.0 534.0 12.1 533.95 0.0 533.35 -0.25 533.65 -0.5 534.1 4.05 534.35 -1.75 534.75 Q-1.65 533.25 -0.4 531.1 1.25 528.2 3.5 527.85 -2.95 527.6 -6.8 522.05 -9.75 517.7 -9.75 513.25 -9.75 510.65 -5.85 509.05 -2.0 507.5 -2.0 504.25 -2.0 500.3 0.65 494.45 3.25 488.6 3.25 482.35 3.25 477.75 -10.75 467.35 -6.85 463.0 3.3 464.65 L3.65 464.15 5.25 462.85 Q1.55 462.55 -0.45 460.35 -1.75 458.95 -1.75 458.0 -1.75 456.3 -0.75 454.4 0.1 452.75 1.0 452.1 L-1.3 451.3 Q-3.85 450.5 -4.75 449.6 L-4.75 447.6 -0.3 447.8 5.25 448.6 -0.7 445.65 Q-4.2 443.85 -7.75 441.6 L-7.75 439.35 0.95 438.85 -1.45 436.15 Q-3.35 433.35 -2.5 431.1 L-2.75 429.85 -24.0 430.6 -26.75 430.35 -27.25 429.7 Q-27.75 429.2 -27.75 427.75 L-26.45 426.4 -24.0 424.35 -25.35 423.45 -26.75 422.35 Q-22.1 417.85 -12.05 417.1 -6.65 416.7 -0.5 417.4 -0.4 417.85 0.75 418.3 L2.0 418.85 23.5 418.85 28.35 418.2 30.5 418.1 28.5 417.8 28.5 417.35 Q28.35 416.95 27.4 416.4 L26.5 415.6 16.75 414.1 Q12.85 413.35 11.0 412.1 L31.5 411.1 Q26.85 409.55 14.95 408.75 L0.0 408.1 -0.35 408.55 Q-0.75 408.9 -0.75 409.35 L7.15 410.1 10.0 410.85 Q9.25 411.05 8.8 411.8 8.3 412.55 8.5 413.1 L17.5 414.65 Q22.95 415.6 25.5 416.85 L23.0 416.85 10.7 417.0 2.35 417.25 M4.9 539.2 L3.9 538.9 5.7 539.1 7.15 539.25 4.9 539.2 M-37.75 390.35 Q-36.65 384.9 -36.15 383.9 -34.2 380.15 -29.0 379.85 -29.45 379.55 -29.7 378.55 L-30.0 377.1 Q-19.75 373.85 -6.5 391.5 -13.1 397.6 -17.0 397.6 -21.2 397.6 -29.4 394.25 -35.2 391.9 -37.75 390.35 M-15.75 387.35 L-17.0 385.9 Q-17.9 385.15 -18.25 385.35 L-15.75 387.35 M-27.75 629.7 L-26.65 629.6 Q-15.5 628.65 -11.0 631.1 L-0.5 631.35 7.75 630.35 16.0 629.35 23.15 630.1 Q30.0 630.75 37.0 630.35 46.9 629.7 48.9 630.55 50.1 631.05 50.25 632.35 62.3 633.15 68.65 634.4 L68.25 634.95 Q67.25 636.5 66.95 637.35 L55.0 636.35 54.75 636.65 Q54.5 636.8 54.5 637.1 L66.15 637.8 66.8 637.85 66.75 638.0 Q66.75 639.5 66.95 639.6 L67.75 639.85 76.95 640.8 85.25 641.35 84.0 642.35 Q82.9 643.3 82.75 644.0 L83.0 645.1 87.15 646.7 Q81.2 647.45 76.5 651.1 L77.5 651.35 82.8 649.65 Q87.35 648.25 90.65 648.1 L96.25 650.4 104.5 653.75 Q83.6 652.15 78.0 655.85 L78.5 657.35 Q80.5 657.85 81.5 658.35 L89.9 659.35 94.75 660.35 82.0 660.85 80.75 661.7 Q75.8 660.35 69.25 660.15 L69.25 660.1 Q67.2 659.95 59.9 659.9 L53.0 659.85 51.5 660.1 51.25 660.0 Q51.0 660.2 51.0 661.75 51.0 663.25 51.2 663.35 L51.75 663.6 59.25 665.45 68.0 667.1 61.5 667.1 56.5 666.6 56.5 667.1 Q60.25 668.35 62.5 668.35 L71.5 668.1 Q68.8 666.25 66.2 665.25 L70.35 666.2 Q77.0 667.7 77.0 671.0 77.0 672.2 76.35 672.95 L68.0 672.85 66.35 673.55 66.0 673.5 Q61.65 668.5 54.55 670.15 L50.95 671.2 43.5 669.6 41.25 669.85 43.05 671.55 43.7 673.0 39.5 673.35 Q39.5 673.85 43.05 674.15 L43.75 674.2 Q43.7 675.65 42.95 676.35 42.5 676.75 41.25 677.35 L32.0 677.35 23.25 676.2 Q23.75 675.7 23.75 674.6 23.75 673.15 23.25 672.8 L22.75 672.35 11.8 670.85 Q8.1 670.15 6.0 669.1 L7.75 668.35 24.7 666.75 Q25.55 666.7 26.25 665.85 L25.65 664.8 25.25 664.1 Q10.25 663.45 5.2 664.0 -2.05 664.8 -3.75 668.6 -1.75 669.95 2.5 671.35 7.45 672.95 8.75 673.6 L7.15 674.05 3.05 673.5 -6.6 672.0 -8.35 671.55 -10.0 671.35 Q-23.25 668.75 -25.5 665.85 L-45.2 665.5 -45.5 665.35 -55.3 664.05 -55.35 664.0 Q-56.1 663.45 -56.6 663.15 L-46.1 663.45 Q-42.85 663.5 -37.5 662.1 L-37.5 661.35 Q-37.8 661.2 -44.05 661.3 -54.35 661.55 -69.0 661.1 L-69.75 661.85 Q-68.25 663.15 -61.55 664.35 L-57.35 665.15 -58.35 667.05 Q-62.0 667.45 -62.95 667.8 L-65.15 669.6 Q-66.6 668.65 -69.65 667.8 L-69.3 666.2 -69.0 665.25 -64.5 666.1 -64.75 665.35 Q-65.7 664.7 -68.75 664.0 L-70.55 660.15 Q-70.0 659.0 -70.0 657.6 -70.0 656.7 -71.8 655.8 L-73.3 654.1 -73.4 653.95 -70.15 653.85 -71.5 654.1 -70.5 654.35 Q-70.0 654.0 -69.1 653.8 L-66.6 653.65 -64.1 653.4 -63.1 653.45 Q-65.1 654.5 -65.5 655.1 L-63.0 655.6 Q-62.85 655.45 -56.9 655.55 L-45.35 655.75 Q-46.15 656.2 -46.5 657.1 -46.0 657.6 -42.4 657.9 L-37.0 658.1 -26.65 657.35 -18.0 656.6 -17.85 655.15 -17.75 654.6 Q-19.6 654.35 -20.7 653.75 L-22.6 652.6 Q-26.05 651.15 -38.75 650.85 L-13.0 650.35 Q-9.9 649.8 -9.25 647.85 -13.55 645.15 -19.0 644.85 -4.25 644.9 2.85 644.45 L10.75 644.85 Q12.4 646.55 14.9 647.5 L18.0 648.35 43.0 648.1 44.65 647.1 Q45.5 646.35 45.5 644.75 45.5 643.2 44.7 642.8 L43.0 642.35 32.5 642.1 59.0 641.85 59.5 641.55 Q60.0 641.15 60.0 639.6 60.0 637.8 49.65 637.0 40.2 636.25 26.9 636.65 L20.65 636.9 Q16.7 635.85 14.3 635.55 4.9 634.45 -17.25 635.85 -17.25 636.65 -25.1 637.2 L-33.0 637.6 Q-34.35 637.95 -35.0 638.6 L-34.7 639.55 -39.0 639.85 -39.5 639.95 -39.5 639.75 Q-39.5 638.25 -39.85 638.15 L-40.75 637.85 -32.0 637.1 -31.75 636.15 -21.5 636.35 -21.5 636.1 -31.15 634.15 -29.35 631.8 -27.75 629.7 M-59.65 669.3 L-59.75 669.4 -61.65 672.4 Q-63.4 671.65 -63.75 671.1 -63.35 670.75 -62.2 670.15 L-61.0 669.35 -59.65 669.3 M-26.95 642.8 L-32.0 641.6 -31.5 640.9 -24.2 641.65 -17.0 642.85 -26.95 642.8 M-48.4 643.4 L-48.5 645.0 Q-48.5 646.55 -48.25 646.5 L-48.0 646.1 -46.0 646.6 Q-25.0 646.85 -24.0 647.1 -44.35 647.35 -48.5 651.35 L-47.2 652.3 Q-46.5 652.75 -46.5 652.85 L-51.45 652.85 -51.5 652.75 -51.75 651.85 -55.85 651.45 Q-54.05 650.65 -53.0 649.6 L-55.25 648.15 -53.0 648.1 -52.1 647.25 Q-51.75 646.7 -51.75 645.1 L-51.85 643.6 -48.4 643.4 M-34.8 653.75 L-25.25 654.35 -35.2 654.8 -34.5 654.6 -34.5 654.1 -34.8 653.75 M-57.25 648.9 L-56.25 649.35 -59.0 649.6 -59.4 649.6 -57.25 648.9 M-57.3 663.1 L-57.25 663.75 -63.5 662.85 -57.3 663.1 M-65.85 670.15 L-66.0 670.25 -65.75 671.35 Q-65.0 672.35 -62.9 673.6 -69.05 673.55 -69.7 669.95 L-65.85 670.15 M29.55 659.95 L28.75 659.6 Q26.15 659.35 20.05 657.55 15.05 656.1 7.0 656.1 L2.25 657.1 Q-1.25 658.1 -2.5 658.1 -4.1 658.1 -5.6 657.3 L-8.5 655.6 -9.5 655.85 Q-8.25 657.75 -7.1 658.4 -4.85 659.6 0.25 659.6 L16.0 660.35 21.0 660.9 22.55 661.05 32.25 661.85 Q38.75 661.85 39.5 661.1 39.35 660.65 38.15 660.2 L37.0 659.85 29.55 659.95 M85.25 279.85 L83.8 277.65 Q83.2 276.65 81.75 276.35 L83.05 278.35 Q83.75 279.2 85.25 279.85 M89.25 282.0 L84.05 285.25 Q78.8 289.45 78.75 295.1 78.75 300.85 69.5 308.1 L68.5 305.85 Q68.8 304.95 70.5 302.5 71.9 300.35 72.0 299.1 L71.75 298.6 68.65 300.85 Q67.05 301.85 66.5 301.85 L64.3 301.6 64.0 301.35 Q63.15 296.4 68.65 288.0 75.45 277.6 76.5 273.85 L83.4 275.7 Q89.25 277.9 89.25 282.0 M17.8 258.5 L17.5 258.25 17.25 257.5 Q15.4 256.85 11.9 256.65 9.75 256.5 4.5 256.5 4.5 257.05 9.45 257.9 L16.25 258.75 17.8 258.5 M10.5 311.85 L11.6 312.05 11.25 311.8 10.5 311.85 M10.0 424.35 L9.75 424.65 Q9.5 424.8 9.5 425.1 L26.5 425.35 26.25 424.6 10.0 424.35 M2.05 350.6 Q2.35 351.1 4.5 352.1 L21.35 351.5 45.5 351.6 Q45.5 350.45 44.0 349.85 32.15 349.4 20.55 349.3 L2.0 349.85 2.05 350.6 M12.0 354.6 L12.0 354.85 -1.5 355.35 Q-1.5 356.1 11.25 357.1 L46.75 357.1 Q47.75 356.6 48.0 355.85 L46.8 354.95 46.0 354.6 12.0 354.6 M34.05 459.1 Q31.3 458.05 30.25 457.85 L29.75 458.1 34.05 459.1 M29.8 495.95 Q24.5 490.9 20.25 489.1 22.75 491.7 26.85 496.95 30.85 501.7 35.5 504.6 35.55 501.45 29.8 495.95 M85.8 663.4 Q93.35 663.45 99.65 663.75 L99.05 664.35 Q98.1 665.1 97.0 665.1 91.3 665.1 85.8 663.4 M97.8 659.3 Q86.65 657.15 81.0 656.6 81.3 656.3 82.45 655.9 L83.5 655.6 Q89.15 654.35 92.0 654.35 L101.15 655.0 107.1 655.35 108.5 656.85 108.45 657.25 107.6 657.35 100.0 657.6 99.1 658.25 98.85 658.6 97.0 658.6 97.8 659.3 M100.15 661.5 L99.0 661.6 96.0 660.85 99.7 660.95 100.15 661.5 M98.5 664.35 L98.5 664.1 95.95 663.9 98.5 664.35 M63.85 653.35 Q65.4 653.35 65.65 653.0 L65.75 652.6 65.75 650.35 Q64.2 649.25 56.15 648.15 L46.5 647.35 Q47.6 648.25 63.85 653.35 M44.5 658.1 Q46.65 658.85 50.1 659.05 L52.25 659.15 45.0 657.35 44.75 657.65 Q44.5 657.8 44.5 658.1" fill="#7d744f" fill-rule="evenodd" stroke="none"/>
    <path d="M86.55 49.2 Q86.7 45.85 87.55 44.05 88.5 42.0 90.0 42.6 93.5 44.0 95.25 55.75 95.7 59.6 97.35 67.15 L98.0 70.05 100.0 79.6 104.15 101.6 Q108.0 122.7 108.0 126.5 108.0 128.85 107.25 129.9 106.55 130.85 105.0 130.85 102.05 130.85 93.95 90.6 89.95 70.5 86.5 50.6 L86.55 49.2 M-59.65 46.6 L-59.5 46.5 Q-54.75 43.4 -53.05 50.9 -52.25 54.5 -52.25 60.25 -52.25 63.45 -56.45 82.25 L-58.2 90.05 Q-57.5 91.75 -57.5 94.5 -57.5 102.55 -58.7 109.1 -59.6 114.1 -62.5 124.1 L-63.5 124.1 -64.2 122.25 -64.5 119.6 Q-64.5 110.9 -63.85 104.05 -64.65 103.35 -65.1 102.3 L-65.65 100.55 Q-64.15 94.0 -62.35 81.85 -59.25 60.85 -59.25 54.0 -59.25 48.9 -59.65 46.6" fill="#8c9395" fill-rule="evenodd" stroke="none"/>
    <path d="M25.75 542.3 L25.5 542.6 21.9 543.05 Q18.35 543.65 18.5 544.1 18.5 544.6 17.0 544.85 L7.95 544.0 -8.75 542.6 -9.0 541.35 Q-20.5 540.65 -21.0 539.85 L-1.7 539.1 4.9 539.2 7.15 539.25 5.7 539.1 3.9 538.9 -1.5 538.35 -2.5 536.85 -1.75 536.6 -0.7 536.75 6.55 537.55 18.25 538.35 20.05 539.15 Q20.95 539.5 21.3 539.8 L22.25 539.85 Q22.25 540.1 23.85 540.75 25.65 541.5 26.0 541.85 L25.75 542.3 M-1.4 536.0 L-3.25 535.6 -3.5 534.85 -1.75 534.75 4.05 534.35 -0.5 534.1 -0.25 533.65 0.0 533.35 12.1 533.95 14.0 534.0 14.25 534.1 14.95 534.15 Q21.3 534.7 21.5 535.1 L15.75 534.95 15.8 535.0 Q17.85 535.95 22.75 536.85 22.25 537.35 19.05 537.75 L14.0 538.1 6.4 537.3 -1.4 536.0 M-0.5 417.4 L-0.5 417.35 2.35 417.25 10.7 417.0 23.0 416.85 25.5 416.85 Q22.95 415.6 17.5 414.65 L8.5 413.1 Q8.3 412.55 8.8 411.8 9.25 411.05 10.0 410.85 L7.15 410.1 -0.75 409.35 Q-0.75 408.9 -0.35 408.55 L0.0 408.1 14.95 408.75 Q26.85 409.55 31.5 411.1 L11.0 412.1 Q12.85 413.35 16.75 414.1 L26.5 415.6 27.4 416.4 Q28.35 416.95 28.5 417.35 L28.5 417.8 30.5 418.1 28.35 418.2 23.5 418.85 2.0 418.85 0.75 418.3 Q-0.4 417.85 -0.5 417.4 M95.8 636.9 Q101.4 633.15 113.55 633.75 123.9 634.25 127.25 636.1 L127.75 636.85 Q126.35 638.35 121.75 639.6 L120.55 639.9 116.05 640.85 112.0 641.85 109.25 642.35 115.3 642.4 123.65 642.7 127.8 643.15 Q132.3 643.75 134.5 644.85 L134.5 645.35 123.7 644.8 121.45 644.65 115.0 644.25 102.25 642.85 102.2 642.65 102.0 640.85 104.55 640.45 119.8 637.95 124.0 637.1 119.3 636.55 111.95 635.95 111.5 635.9 Q99.45 635.15 96.55 637.3 L96.5 637.35 95.5 637.1 95.8 636.9 M137.9 661.45 Q139.05 661.8 139.5 662.1 L139.5 662.35 139.5 662.6 Q139.85 663.1 137.35 663.1 L132.85 662.1 Q129.2 661.1 125.75 661.1 L118.3 661.05 117.25 661.05 105.15 660.65 102.5 660.35 99.0 659.85 98.95 659.55 98.75 658.75 98.85 658.6 99.1 658.25 100.0 657.6 107.6 657.35 121.9 655.9 130.0 653.85 124.05 653.25 118.5 653.35 117.2 653.35 116.65 653.3 Q114.5 653.1 114.5 652.35 L117.25 652.2 117.65 652.15 118.25 652.1 124.25 651.3 Q130.05 651.0 133.0 653.85 131.95 655.1 130.2 655.8 L128.25 656.4 127.85 656.5 124.5 657.35 123.75 657.6 120.5 657.85 Q120.75 658.6 122.25 660.1 L130.75 660.6 137.25 661.25 137.9 661.45 M147.9 676.7 L147.75 677.1 142.0 677.0 121.9 676.4 119.65 676.3 117.55 676.15 114.8 676.0 109.5 675.35 105.5 675.35 105.3 675.35 93.0 675.35 98.85 676.6 102.35 677.3 104.9 677.75 110.05 678.65 113.4 679.35 113.85 679.45 Q122.85 681.4 132.9 684.4 L134.5 684.85 134.3 685.3 133.75 686.35 111.4 685.65 101.75 684.95 99.5 684.6 86.75 684.6 Q91.55 685.15 94.85 686.05 L104.45 687.95 105.5 688.1 105.5 688.35 101.35 688.8 99.5 688.85 Q96.95 688.85 93.3 687.45 89.55 686.0 81.25 685.85 L81.0 685.6 Q80.75 685.45 80.75 684.0 80.75 682.4 81.6 681.85 L82.55 681.5 83.0 681.35 Q92.6 681.35 99.45 681.65 L105.0 681.9 109.75 682.05 111.0 682.1 104.55 680.7 100.2 679.7 87.15 676.6 81.0 675.1 Q80.5 674.35 80.5 673.6 L81.9 673.0 Q89.55 669.5 91.65 668.75 L92.75 668.4 92.75 665.85 105.9 665.75 116.25 665.7 116.7 665.7 129.0 665.6 124.7 664.15 124.6 664.15 124.5 664.1 Q124.5 663.8 124.75 663.65 L125.0 663.35 Q130.85 664.8 134.25 665.35 L134.5 665.8 134.75 666.5 134.5 667.85 117.55 668.15 115.6 668.15 105.1 668.35 103.25 668.35 105.25 668.55 113.45 669.5 116.2 669.9 127.25 671.45 Q146.95 674.4 148.25 675.6 L147.9 676.7 M23.25 676.2 L22.6 676.6 23.05 676.65 Q29.9 677.35 31.25 678.35 L31.5 679.1 22.7 678.05 23.6 678.4 Q26.65 679.65 28.0 680.85 27.0 682.8 23.0 684.1 L15.5 683.1 15.55 682.8 Q15.7 682.5 16.0 682.35 L18.75 681.85 Q16.95 680.95 11.15 680.6 6.05 680.25 2.0 677.35 L2.4 676.8 -21.0 676.6 Q-25.0 675.6 -34.5 674.35 L-25.0 674.1 -22.0 674.85 4.1 675.05 Q5.1 674.45 7.0 674.1 L7.15 674.05 8.75 673.6 Q7.45 672.95 2.5 671.35 -1.75 669.95 -3.75 668.6 -2.05 664.8 5.2 664.0 10.25 663.45 25.25 664.1 L25.65 664.8 26.25 665.85 Q25.55 666.7 24.7 666.75 L7.75 668.35 6.0 669.1 Q8.1 670.15 11.8 670.85 L22.75 672.35 23.25 672.8 Q23.75 673.15 23.75 674.6 23.75 675.7 23.25 676.2 M-6.6 672.0 L-6.5 672.1 -6.5 672.35 -14.0 673.4 -20.0 674.1 Q-33.15 674.1 -36.55 672.7 L-38.35 671.75 -41.5 671.35 Q-39.1 671.1 -27.8 671.25 L-10.0 671.35 -8.35 671.55 -6.6 672.0 M-90.2 681.0 L-94.75 681.35 Q-69.15 681.7 -68.0 682.85 L-68.5 683.6 -75.0 684.1 -103.0 683.85 -104.1 683.55 -104.85 683.4 Q-106.1 682.1 -108.25 680.95 L-108.25 680.6 Q-107.95 680.15 -107.75 680.2 L-105.75 680.35 -101.5 680.1 -96.05 679.5 -87.85 678.4 -73.25 676.35 -91.75 673.1 -104.5 672.35 -104.7 671.15 -104.75 670.6 -104.75 670.35 -94.2 670.75 -77.9 672.95 -63.75 674.85 -63.75 677.1 -63.75 677.85 -78.5 679.7 -90.2 681.0 M-100.0 666.5 Q-99.95 665.2 -99.0 664.85 L-96.7 664.8 -83.15 665.35 -80.25 664.25 -79.1 663.8 -77.0 663.1 -87.85 662.75 -89.2 662.7 -101.6 661.9 -106.75 661.0 -96.0 661.35 -94.3 661.1 -94.5 660.85 -94.5 660.5 -94.0 660.6 -81.85 660.6 -77.75 660.6 -81.75 660.45 -84.25 660.35 -94.5 659.65 -94.5 659.35 Q-96.25 657.6 -98.0 657.95 L-100.55 659.1 -107.75 658.35 -101.2 659.45 Q-105.7 661.5 -111.0 656.35 L-109.0 656.1 -109.6 655.5 Q-106.25 655.55 -101.3 656.7 -90.65 659.2 -87.5 659.35 L-87.5 659.1 Q-87.65 658.8 -89.1 658.3 L-90.5 657.85 Q-101.2 654.0 -105.05 653.25 L-108.1 652.9 Q-104.5 651.95 -102.7 652.25 -99.5 653.5 -96.0 654.35 L-89.0 654.35 -91.3 654.1 -74.8 654.0 Q-74.05 654.3 -73.75 654.6 L-73.75 654.7 -75.0 656.85 -80.9 657.1 -86.75 657.35 -80.4 657.7 -77.5 657.85 -75.55 658.6 -75.45 658.65 Q-74.2 659.15 -73.75 659.6 L-74.6 659.8 Q-75.25 659.9 -75.25 661.35 -75.25 662.45 -74.75 662.7 L-74.4 662.75 -73.0 662.85 -73.55 663.2 -75.9 664.25 -76.4 664.4 -78.05 665.0 -79.45 665.4 -80.4 665.7 -78.25 666.0 -77.5 666.1 -76.4 666.3 -74.45 666.65 -69.65 667.8 Q-66.6 668.65 -65.15 669.6 L-64.5 670.1 -65.85 670.15 -69.7 669.95 -87.0 668.2 -100.0 666.6 -100.0 666.5 M-80.25 635.5 Q-86.5 635.0 -86.5 634.35 L-79.6 634.3 -78.0 634.1 -69.45 634.2 -68.1 634.2 -51.75 634.35 -50.5 635.85 -50.85 636.3 Q-51.35 636.8 -52.0 637.1 -52.3 636.8 -52.2 636.4 L-52.0 635.85 -67.85 635.7 -69.0 635.7 -78.5 635.6 -80.25 635.5 M-34.7 639.55 L-35.0 638.6 Q-34.35 637.95 -33.0 637.6 L-25.1 637.2 Q-17.25 636.65 -17.25 635.85 4.9 634.45 14.3 635.55 16.7 635.85 20.65 636.9 L26.9 636.65 Q40.2 636.25 49.65 637.0 60.0 637.8 60.0 639.6 60.0 641.15 59.5 641.55 L59.0 641.85 32.5 642.1 43.0 642.35 44.7 642.8 Q45.5 643.2 45.5 644.75 45.5 646.35 44.65 647.1 L43.0 648.1 18.0 648.35 14.9 647.5 Q12.4 646.55 10.75 644.85 L2.85 644.45 Q-4.25 644.9 -19.0 644.85 -13.55 645.15 -9.25 647.85 -9.9 649.8 -13.0 650.35 L-38.75 650.85 Q-26.05 651.15 -22.6 652.6 L-20.7 653.75 Q-19.6 654.35 -17.75 654.6 L-17.85 655.15 -18.0 656.6 -26.65 657.35 -37.0 658.1 -42.4 657.9 Q-46.0 657.6 -46.5 657.1 -46.15 656.2 -45.35 655.75 L-39.0 655.85 -35.2 654.8 -25.25 654.35 -34.8 653.75 Q-35.15 653.45 -35.85 653.2 L-37.0 652.85 -46.5 652.85 Q-46.5 652.75 -47.2 652.3 L-48.5 651.35 Q-44.35 647.35 -24.0 647.1 -25.0 646.85 -46.0 646.6 L-48.0 646.1 -48.25 646.5 Q-48.5 646.55 -48.5 645.0 L-48.4 643.4 -48.35 643.25 -48.25 643.35 -45.3 643.15 -44.75 643.6 Q-31.05 643.85 -22.15 646.15 L-14.5 648.35 -14.5 647.85 Q-19.35 644.9 -26.2 643.0 L-26.95 642.8 -17.0 642.85 -24.2 641.65 -31.5 640.9 Q-31.35 640.45 -31.6 640.15 -32.1 639.5 -34.7 639.55 M-77.75 618.6 L-77.75 619.35 -83.5 619.1 -83.25 618.65 -83.0 618.35 -79.9 618.65 -77.75 618.6 M-77.25 623.65 L-77.0 623.35 -64.4 623.7 Q-54.6 624.2 -48.5 626.1 L-61.6 625.5 -77.5 624.1 -77.25 623.65 M-81.25 644.8 Q-75.15 644.6 -72.1 644.7 L-70.0 644.85 -70.5 645.6 -72.5 645.9 -73.95 646.15 -74.35 646.2 -75.05 646.3 -81.55 647.4 -83.0 647.6 -73.75 647.6 -73.1 647.6 -71.0 647.6 Q-70.5 648.0 -70.0 647.9 -69.75 648.0 -69.75 649.5 L-69.75 650.0 -81.6 650.7 -94.85 651.6 -98.1 650.45 -103.0 648.35 -103.75 649.6 -99.75 652.2 -98.5 652.8 -100.0 652.45 -108.0 650.95 Q-107.5 649.8 -107.5 649.1 -107.5 648.5 -107.8 647.6 L-101.7 647.6 -102.6 647.4 Q-106.8 646.4 -107.0 645.85 L-89.8 645.15 -86.05 645.0 -81.25 644.8 M29.55 659.95 L37.0 659.85 38.15 660.2 Q39.35 660.65 39.5 661.1 38.75 661.85 32.25 661.85 L22.55 661.05 21.0 660.9 31.5 661.1 Q31.05 660.65 29.85 660.05 L29.55 659.95 M-24.5 684.1 Q-21.35 682.55 -17.1 681.4 -10.55 679.6 -8.0 681.1 L-7.75 681.85 -10.85 681.95 Q-15.0 682.3 -22.0 684.6 L-24.5 684.1 M17.8 258.5 L16.25 258.75 9.45 257.9 Q4.5 257.05 4.5 256.5 9.75 256.5 11.9 256.65 15.4 256.85 17.25 257.5 L17.5 258.25 17.8 258.5 M12.0 354.6 L46.0 354.6 46.8 354.95 48.0 355.85 Q47.75 356.6 46.75 357.1 L11.25 357.1 Q-1.5 356.1 -1.5 355.35 L12.0 354.85 12.0 354.6 M2.05 350.6 L2.0 349.85 20.55 349.3 Q32.15 349.4 44.0 349.85 45.5 350.45 45.5 351.6 L21.35 351.5 4.5 352.1 Q2.35 351.1 2.05 350.6 M10.0 424.35 L26.25 424.6 26.5 425.35 9.5 425.1 Q9.5 424.8 9.75 424.65 L10.0 424.35 M13.5 542.35 L17.25 542.6 15.0 542.2 13.5 542.35 M110.15 616.55 L113.5 617.1 Q113.0 617.35 106.5 617.1 106.5 616.8 106.75 616.65 L107.0 616.35 110.15 616.55 M83.0 621.35 L121.5 624.1 114.25 624.35 101.4 623.6 82.5 622.1 Q82.5 621.8 82.75 621.65 L83.0 621.35 M98.5 664.35 L95.95 663.9 98.5 664.1 98.5 664.35 M93.15 692.35 L97.1 692.25 98.0 692.1 113.15 693.95 114.95 694.15 Q128.55 695.85 129.75 697.1 L130.0 697.85 Q129.75 698.6 127.25 698.6 123.35 698.6 108.25 695.85 L99.85 694.35 88.5 692.35 93.15 692.35 M108.8 672.5 L112.75 673.35 114.75 673.1 Q113.55 672.55 111.45 671.95 L105.25 670.55 100.6 669.75 101.4 670.15 105.2 671.5 108.8 672.5 M63.85 653.35 Q47.6 648.25 46.5 647.35 L56.15 648.15 Q64.2 649.25 65.75 650.35 L65.75 652.6 65.65 653.0 Q65.4 653.35 63.85 653.35 M69.25 660.15 L69.65 661.0 70.25 662.1 68.95 663.15 Q68.0 663.7 66.0 663.85 L63.25 664.35 Q64.7 664.65 66.2 665.25 68.8 666.25 71.5 668.1 L62.5 668.35 Q60.25 668.35 56.5 667.1 L56.5 666.6 61.5 667.1 68.0 667.1 59.25 665.45 51.75 663.6 51.2 663.35 Q51.0 663.25 51.0 661.75 51.0 660.2 51.25 660.0 L51.5 660.1 53.0 659.85 59.9 659.9 Q67.2 659.95 69.25 660.1 L69.25 660.15 M44.5 658.1 Q44.5 657.8 44.75 657.65 L45.0 657.35 52.25 659.15 50.1 659.05 Q46.65 658.85 44.5 658.1 M80.15 696.4 Q81.35 696.8 81.5 697.1 L81.5 697.35 75.75 697.6 57.6 695.3 44.9 694.15 45.0 694.1 79.0 696.1 80.15 696.4" fill="#696750" fill-rule="evenodd" stroke="none"/>
    <path d="M145.35 643.1 Q145.0 641.95 145.0 641.1 145.0 639.55 145.5 639.65 146.0 640.0 146.0 639.85 L146.45 640.3 146.5 639.6 147.25 639.6 147.4 641.5 148.35 642.9 148.7 643.55 149.95 646.45 152.45 650.25 153.45 651.95 154.75 654.2 Q156.65 657.4 157.5 658.1 L152.3 658.55 145.75 658.1 Q145.45 658.1 144.9 658.45 L143.9 659.05 142.8 659.95 Q142.1 660.6 141.75 661.35 L137.95 661.25 137.25 661.25 130.75 660.6 122.25 660.1 Q120.75 658.6 120.5 657.85 L123.75 657.6 125.65 657.7 132.25 658.1 137.5 657.85 Q138.95 651.95 140.55 648.4 L141.3 646.95 Q143.25 643.4 145.45 643.3 L145.35 643.1 M-104.85 683.4 Q-103.65 684.55 -103.25 685.85 L-103.4 686.4 -103.5 686.6 -103.9 686.35 Q-106.0 685.25 -114.55 682.15 -123.65 678.85 -126.25 676.6 L-126.5 675.5 Q-122.1 670.75 -112.9 669.65 L-109.5 669.35 -113.2 668.5 Q-115.45 667.85 -116.95 667.0 -121.25 664.55 -123.0 663.85 -120.85 660.9 -113.4 664.25 -110.55 665.5 -108.6 666.8 -105.7 668.65 -104.75 670.6 L-104.9 671.1 -105.25 672.1 Q-113.6 672.2 -117.65 673.05 -120.35 673.6 -122.25 674.85 L-123.0 675.1 Q-115.0 677.95 -111.15 679.55 L-108.25 680.95 Q-106.1 682.1 -104.85 683.4 M-96.45 686.8 Q-94.25 685.95 -91.6 685.4 L-87.5 685.1 Q-89.55 686.1 -89.85 686.25 L-91.65 686.9 -94.5 687.6 -97.75 687.35 -96.45 686.8 M-111.5 660.75 L-115.0 660.55 Q-125.15 660.0 -129.0 660.6 L-129.35 660.4 Q-129.75 660.05 -129.75 658.5 L-129.7 656.85 -129.25 656.1 -121.25 655.6 -118.65 650.4 -117.55 647.85 -116.65 646.05 -115.75 644.7 -115.75 642.6 -114.9 640.95 Q-113.55 638.8 -112.75 638.35 -111.65 639.65 -111.1 641.0 L-110.65 642.4 Q-109.7 643.45 -108.75 645.4 L-108.65 645.6 -108.6 645.7 -107.8 647.6 Q-107.5 648.5 -107.5 649.1 -107.5 649.8 -108.0 650.95 L-109.0 652.85 -109.0 652.9 -108.1 652.9 -105.05 653.25 Q-101.2 654.0 -90.5 657.85 L-89.1 658.3 Q-87.65 658.8 -87.5 659.1 L-87.5 659.35 Q-90.65 659.2 -101.3 656.7 -106.25 655.55 -109.6 655.5 L-110.7 655.5 -111.25 656.1 -111.0 656.35 Q-105.7 661.5 -101.2 659.45 L-101.2 659.4 -100.55 659.1 -98.0 657.95 Q-96.25 657.6 -94.5 659.35 L-94.5 659.65 -94.5 660.45 -94.5 660.5 -94.5 660.85 -94.3 661.1 -96.0 661.35 -106.75 661.0 -111.5 660.75 M-87.65 638.1 L-91.75 635.6 -91.0 635.1 Q-86.4 635.2 -86.2 636.0 -86.05 636.95 -87.75 636.6 L-81.0 638.6 -68.85 642.2 -66.7 642.9 Q-60.1 645.2 -55.25 648.15 L-53.0 649.6 Q-54.05 650.65 -55.85 651.45 -58.9 652.75 -64.1 653.4 L-66.6 653.65 -69.1 653.8 -70.15 653.85 -73.4 653.95 -73.45 653.95 -73.75 653.95 -74.8 654.0 -91.3 654.1 -91.5 654.1 Q-95.25 654.1 -98.5 652.8 L-99.75 652.2 -103.75 649.6 -103.0 648.35 -98.1 650.45 -94.85 651.6 -81.6 650.7 -69.75 650.0 -59.4 649.6 -59.0 649.6 -56.25 649.35 -57.25 648.9 Q-62.9 646.3 -71.7 643.7 L-76.05 642.45 -79.35 641.45 Q-84.1 639.95 -87.65 638.1" fill="#747e5a" fill-rule="evenodd" stroke="none"/>
    <path d="M121.75 639.6 L123.95 639.9 133.95 641.85 145.35 643.1 145.45 643.3 Q143.25 643.4 141.3 646.95 L140.0 646.6 137.45 646.25 137.0 646.1 Q139.5 645.6 140.0 644.85 L138.25 643.35 127.8 643.15 123.65 642.7 115.3 642.4 Q115.55 641.5 116.05 640.85 L120.55 639.9 121.75 639.6 M148.35 642.9 L154.25 641.5 160.0 639.85 Q161.5 639.85 161.85 640.2 L162.75 641.1 162.9 641.3 163.0 643.35 Q163.0 644.0 162.5 644.75 161.35 646.3 157.75 648.15 154.95 649.55 152.45 650.25 L149.95 646.45 148.7 643.55 148.35 642.9 M144.9 658.45 L144.0 659.85 142.8 659.95 143.9 659.05 144.9 658.45 M137.95 661.25 L137.9 661.45 137.25 661.25 137.95 661.25 M139.5 662.35 Q146.8 663.25 161.0 666.1 L161.25 666.85 160.75 668.1 Q159.1 667.9 149.05 668.25 L144.7 668.25 136.9 669.05 136.15 669.1 131.45 669.5 135.05 670.05 135.65 670.15 139.9 670.7 139.95 670.7 154.25 672.0 167.5 672.85 168.25 673.6 168.25 675.85 147.9 676.7 148.25 675.6 Q146.95 674.4 127.25 671.45 L116.2 669.9 116.65 669.15 117.55 668.15 134.5 667.85 134.75 666.5 134.5 665.8 134.25 665.35 Q130.85 664.8 125.0 663.35 L124.75 663.65 Q124.5 663.8 124.5 664.1 L124.6 664.15 120.6 663.85 120.9 664.6 124.7 664.15 129.0 665.6 116.7 665.7 Q117.5 665.35 118.4 665.15 L116.2 665.45 116.25 665.7 105.9 665.75 Q106.2 664.85 106.55 664.5 L106.9 664.25 Q108.15 663.45 111.7 663.8 L112.9 663.2 106.75 661.55 102.5 660.35 105.15 660.65 117.25 661.05 117.55 661.2 118.3 661.05 125.75 661.1 Q129.2 661.1 132.85 662.1 L137.35 663.1 Q139.85 663.1 139.5 662.6 L139.5 662.35 M142.0 677.0 L128.35 677.95 127.75 678.1 126.5 678.6 131.55 680.0 147.0 681.6 147.55 682.05 148.1 682.8 160.0 683.85 Q159.85 684.35 154.25 684.75 L146.85 685.1 132.9 684.4 Q122.85 681.4 113.85 679.45 L113.7 679.25 113.5 679.1 113.55 679.1 Q114.9 678.4 118.0 678.6 L118.7 678.05 118.5 677.85 118.0 677.1 118.1 677.05 Q118.4 676.8 119.65 676.3 L121.9 676.4 142.0 677.0 M134.3 685.3 Q140.8 686.1 146.0 687.25 L153.0 687.1 155.15 687.9 Q156.3 688.55 156.5 689.1 L154.0 689.5 155.0 689.85 Q154.85 690.35 151.15 690.75 L145.6 691.1 132.75 690.85 128.75 691.1 110.8 690.55 Q104.2 690.25 101.5 690.35 L101.3 689.45 100.5 689.35 101.3 689.35 101.25 689.25 101.35 688.8 105.5 688.35 105.5 688.1 104.45 687.95 108.25 687.85 107.15 687.1 104.65 686.9 Q102.1 686.6 101.75 686.1 L101.75 684.95 111.4 685.65 133.75 686.35 134.3 685.3 M87.15 676.6 L61.5 676.6 59.5 676.1 Q62.8 674.5 63.95 674.3 L65.1 674.0 66.1 673.65 66.35 673.55 68.0 672.85 76.35 672.95 81.9 673.0 80.5 673.6 Q80.5 674.35 81.0 675.1 L87.15 676.6 M-78.0 679.85 L-89.5 681.35 -90.2 681.0 -78.5 679.7 -63.75 677.85 -63.75 677.1 -56.05 676.9 -51.5 677.1 -51.5 677.35 -67.95 678.7 -73.55 679.3 -78.0 679.85 M-103.4 686.4 L-96.45 686.8 -97.75 687.35 -94.5 687.6 -91.65 686.9 -87.25 686.85 -86.2 686.7 Q-85.05 686.65 -84.75 687.1 L-88.85 688.15 -93.5 688.6 Q-104.1 688.6 -106.7 687.65 L-109.5 685.85 -109.5 685.6 -104.45 686.3 -103.9 686.35 -103.5 686.6 -103.4 686.4 M-112.9 669.65 L-113.75 669.35 Q-113.75 669.0 -113.2 668.5 L-109.5 669.35 -112.9 669.65 M-108.6 666.8 L-100.0 666.5 -100.0 666.6 -87.0 668.2 -104.5 669.35 -96.4 670.0 -87.9 671.1 -85.75 671.4 Q-80.9 672.2 -77.9 672.95 L-94.2 670.75 -104.75 670.35 -104.75 670.6 -104.7 671.15 -104.9 671.1 -104.75 670.6 Q-105.7 668.65 -108.6 666.8 M-96.7 664.8 L-100.5 664.25 -110.75 662.1 -111.1 662.3 Q-111.5 662.15 -111.5 660.75 L-106.75 661.0 -101.6 661.9 -89.2 662.7 -83.0 663.7 -80.25 664.25 -83.15 665.35 -96.7 664.8 M-118.05 647.2 Q-118.45 646.65 -118.5 645.8 L-116.65 646.05 -117.55 647.85 -117.95 647.4 -118.05 647.2 M-111.1 641.0 Q-109.1 639.55 -105.4 638.6 -98.3 636.75 -87.65 638.1 -84.1 639.95 -79.35 641.45 L-79.4 641.55 Q-79.8 641.95 -82.75 642.6 L-81.4 644.6 -81.25 644.8 -86.05 645.0 -89.8 645.15 -107.0 645.85 Q-106.8 646.4 -102.6 647.4 L-101.7 647.6 -107.8 647.6 -108.6 645.7 -108.0 646.0 -104.35 645.35 -108.65 645.6 -108.75 645.4 Q-109.7 643.45 -110.65 642.4 L-111.1 641.0 M-98.5 652.8 Q-95.25 654.1 -91.5 654.1 L-91.3 654.1 -89.0 654.35 -96.0 654.35 Q-99.5 653.5 -102.7 652.25 -104.5 651.95 -108.1 652.9 L-109.0 652.9 -109.0 652.85 -108.0 650.95 -100.0 652.45 -98.5 652.8 M-73.75 647.6 L-83.0 647.6 -81.55 647.4 -75.05 646.3 -74.5 646.35 -74.35 646.2 -73.95 646.15 Q-73.75 646.35 -73.75 647.6 M-78.25 666.0 L-80.4 665.7 -79.45 665.4 -78.05 665.0 -78.25 666.0 M-96.05 679.5 L-101.5 680.1 -101.9 680.05 -111.5 678.1 -111.25 677.65 -111.0 677.35 -96.05 679.5 M-90.0 644.85 Q-100.7 642.35 -104.5 642.35 -103.1 643.75 -100.5 644.75 L-99.6 645.1 -98.55 645.05 Q-94.45 644.95 -89.8 645.15 L-90.0 644.85 M-100.55 659.1 L-101.2 659.4 -101.2 659.45 -107.75 658.35 -100.55 659.1 M-111.0 656.35 L-111.25 656.1 -110.7 655.5 -109.6 655.5 -109.0 656.1 -111.0 656.35 M116.0 655.6 L116.3 654.85 116.6 654.3 116.25 654.1 Q116.35 653.75 116.95 653.5 L117.15 653.35 117.2 653.35 118.5 653.35 124.05 653.25 130.0 653.85 121.9 655.9 107.6 657.35 108.45 657.25 110.2 657.05 114.8 656.55 120.9 655.9 116.0 655.6 M121.5 648.9 L120.4 648.7 117.7 647.95 Q115.0 647.0 115.0 644.6 L115.0 644.25 121.45 644.65 123.7 644.8 120.75 646.75 121.0 647.85 131.85 648.4 131.95 648.35 137.0 647.6 Q138.8 647.6 140.55 648.4 138.95 651.95 137.5 657.85 L132.25 658.1 125.65 657.7 123.75 657.6 124.5 657.35 127.85 656.5 130.1 657.2 131.55 657.65 131.7 657.7 132.0 657.6 135.25 657.35 131.5 656.75 128.25 656.4 130.2 655.8 Q131.95 655.1 133.0 653.85 130.05 651.0 124.25 651.3 L118.25 652.1 Q119.35 650.9 121.0 649.85 L126.25 649.95 126.25 649.1 130.25 648.7 Q125.1 648.35 121.5 648.9 M117.65 652.15 L117.25 652.2 117.25 652.1 117.65 652.15 M115.6 668.15 L112.5 668.6 113.45 669.5 105.25 668.55 105.1 668.35 115.6 668.15 M98.85 676.6 L93.0 675.35 105.3 675.35 105.5 675.4 105.5 675.35 109.5 675.35 114.8 676.0 113.5 679.05 113.4 679.35 110.05 678.65 104.9 677.75 105.0 677.5 105.15 677.15 105.35 676.55 105.0 676.6 98.85 676.6 M107.75 681.6 L105.0 681.1 104.75 681.3 104.55 680.7 111.0 682.1 109.75 682.05 107.75 681.6 M97.1 692.25 L93.5 691.35 96.0 691.1 100.0 690.85 124.0 692.85 124.0 694.35 123.9 694.4 Q123.75 694.55 123.75 694.85 L116.5 694.1 113.15 693.95 98.0 692.1 97.1 692.25 M99.85 694.35 L97.5 694.6 85.25 693.1 Q74.95 691.55 73.5 690.85 L73.5 690.6 87.85 691.6 93.15 692.35 88.5 692.35 99.85 694.35 M111.45 671.95 Q113.55 672.55 114.75 673.1 L112.75 673.35 108.8 672.5 109.0 672.35 110.5 672.1 111.45 671.95 M143.5 665.85 L136.5 665.15 141.55 666.35 Q141.65 665.7 141.95 665.75 L143.5 665.85" fill="#818181" fill-rule="evenodd" stroke="none"/>
  </g>
</svg>
