<?xml version="1.0" encoding="UTF-8" standalone="no"?>
<svg xmlns:ffdec="https://www.free-decompiler.com/flash" xmlns:xlink="http://www.w3.org/1999/xlink" ffdec:objectType="shape" height="886.9px" width="2280.75px" xmlns="http://www.w3.org/2000/svg">
  <g transform="matrix(1.0, 0.0, 0.0, 1.0, -240.25, 1442.35)">
    <path d="M1585.8 -1090.0 L1585.8 -1340.0 1915.8 -1340.0 1915.8 -1090.0 1585.8 -1090.0 M386.5 -1257.75 Q389.1 -1255.95 394.25 -1250.7 L400.75 -1243.5 Q405.75 -1237.15 410.8 -1229.45 416.0 -1221.45 418.75 -1215.75 425.2 -1202.5 429.85 -1187.6 433.65 -1175.45 437.0 -1159.5 442.6 -1133.05 443.3 -1102.5 443.5 -1092.2 443.3 -1075.5 L443.0 -1047.35 Q443.45 -1036.4 443.05 -1026.0 L442.75 -1020.15 Q438.15 -1022.15 433.0 -1023.35 L433.0 -1083.0 Q431.95 -1091.65 431.15 -1104.8 L429.75 -1127.1 Q427.85 -1154.35 423.0 -1172.25 418.6 -1188.35 416.85 -1193.7 412.65 -1206.6 407.25 -1216.5 395.35 -1238.1 378.95 -1250.65 370.8 -1256.9 365.0 -1259.25 365.0 -1264.35 371.0 -1264.4 377.55 -1264.45 386.5 -1257.75 M452.75 -1252.45 L455.75 -1245.5 Q458.2 -1239.65 460.1 -1231.6 461.5 -1225.85 463.0 -1217.0 463.95 -1210.75 465.9 -1190.65 468.0 -1168.15 468.0 -1160.35 L467.95 -1158.6 469.0 -1150.25 469.0 -1041.5 Q468.05 -1034.65 472.5 -1027.25 477.15 -1019.5 486.5 -1013.2 498.75 -1004.95 515.1 -1001.25 518.0 -998.7 518.0 -997.6 518.0 -995.55 516.25 -993.55 514.25 -991.25 511.5 -991.25 504.35 -991.25 492.25 -996.0 L489.8 -992.3 Q488.35 -990.25 485.0 -990.25 480.7 -990.25 478.8 -993.75 L477.6 -996.15 Q476.95 -997.25 476.0 -997.25 474.75 -997.25 474.0 -996.25 473.25 -995.25 472.0 -995.25 L471.8 -995.25 471.9 -999.55 471.75 -1002.0 Q471.7 -1012.6 467.4 -1014.4 L465.45 -1014.75 Q461.1 -1018.25 454.0 -1019.15 L454.0 -1020.55 Q454.0 -1031.7 455.0 -1043.0 455.0 -1047.6 452.0 -1057.25 L452.0 -1101.5 Q453.0 -1107.5 453.0 -1119.85 453.0 -1163.4 438.0 -1214.05 434.2 -1226.95 427.7 -1245.35 423.0 -1258.65 423.0 -1260.5 423.0 -1267.35 427.1 -1264.5 430.25 -1262.35 434.75 -1255.4 L434.5 -1256.0 Q431.0 -1264.7 431.0 -1266.0 431.0 -1271.6 433.15 -1273.3 L433.0 -1269.85 435.25 -1265.1 Q436.55 -1266.25 439.3 -1265.6 444.25 -1264.4 447.75 -1259.75 450.35 -1257.45 452.75 -1252.45 M621.25 -1091.2 Q627.15 -1104.1 634.9 -1103.2 637.8 -1102.85 640.1 -1100.7 642.1 -1098.8 642.1 -1097.25 642.1 -1095.15 629.9 -1077.7 618.85 -1062.0 614.1 -1059.65 L611.0 -1063.7 607.5 -1067.15 Q608.5 -1070.2 611.95 -1075.15 618.25 -1084.3 620.6 -1089.75 L621.25 -1091.2" fill="#91999b" fill-rule="evenodd" stroke="none"/>
    <path d="M2181.75 -1440.9 Q2184.35 -1442.3 2188.1 -1442.35 2191.9 -1442.35 2194.45 -1440.9 2197.35 -1439.25 2197.35 -1436.45 2197.35 -1434.1 2195.85 -1431.1 L2194.35 -1427.8 Q2194.35 -1426.95 2196.85 -1417.75 2199.35 -1408.6 2199.35 -1406.05 2199.35 -1403.0 2197.35 -1380.8 2195.35 -1358.6 2195.35 -1351.7 2195.35 -1348.85 2202.85 -1343.85 2210.35 -1338.8 2210.35 -1337.95 2210.35 -1333.05 2207.75 -1331.0 2206.65 -1330.1 2202.15 -1328.6 2198.25 -1327.35 2196.6 -1325.1 2194.15 -1321.75 2194.35 -1314.7 2194.5 -1310.25 2193.45 -1301.0 L2192.35 -1291.05 Q2194.35 -1272.7 2194.35 -1269.3 2194.35 -1255.1 2192.75 -1242.85 2191.1 -1230.55 2191.1 -1220.95 2191.1 -1217.5 2194.25 -1213.9 2197.35 -1210.25 2197.35 -1205.95 2197.35 -1203.3 2195.7 -1190.9 2194.05 -1178.7 2194.1 -1177.45 2194.3 -1172.95 2193.25 -1163.45 2192.1 -1153.25 2192.1 -1150.05 2192.1 -1148.8 2193.1 -1148.0 2194.1 -1147.2 2194.1 -1145.95 2194.1 -1144.6 2192.25 -1140.1 2190.35 -1135.6 2190.35 -1131.3 2190.35 -1130.75 2193.6 -1125.5 2196.85 -1120.25 2196.85 -1116.7 L2193.15 -1105.5 Q2189.35 -1094.45 2188.85 -1094.45 2184.6 -1094.45 2183.95 -1096.55 2183.3 -1098.7 2178.0 -1098.7 2175.75 -1098.7 2174.75 -1100.2 2174.2 -1101.7 2173.85 -1101.7 L2171.05 -1101.45 2170.45 -1100.95 2156.1 -1100.2 Q2154.85 -1100.2 2152.35 -1099.05 2149.85 -1097.95 2148.6 -1097.95 2135.65 -1097.95 2132.15 -1099.9 2130.9 -1100.6 2130.8 -1101.6 L2130.85 -1102.95 2147.75 -1114.8 Q2166.05 -1128.2 2172.85 -1136.7 2178.3 -1143.4 2178.95 -1153.65 L2179.15 -1162.55 Q2179.25 -1168.15 2179.85 -1171.95 L2182.15 -1207.05 Q2183.35 -1227.25 2183.35 -1241.7 L2181.1 -1265.8 Q2178.85 -1289.8 2178.85 -1294.55 2178.85 -1296.1 2180.85 -1305.15 2182.85 -1314.2 2182.85 -1315.2 2183.0 -1325.75 2186.55 -1331.0 L2189.0 -1333.8 Q2190.1 -1334.85 2190.1 -1335.45 2190.1 -1336.45 2187.5 -1341.85 2184.85 -1347.25 2184.85 -1347.8 L2186.85 -1376.0 2188.85 -1403.7 Q2188.85 -1412.7 2183.85 -1422.3 2181.05 -1427.7 2180.4 -1429.25 2178.85 -1433.1 2178.85 -1436.7 2178.85 -1439.3 2181.75 -1440.9 M1011.55 -1432.45 Q1013.85 -1429.4 1015.8 -1423.7 1017.75 -1418.05 1017.75 -1414.55 L1017.75 -1413.9 Q1020.25 -1408.5 1020.25 -1407.3 1020.25 -1405.6 1017.15 -1392.3 L1014.35 -1380.3 1015.15 -1377.1 Q1018.5 -1364.35 1018.5 -1358.3 L1017.65 -1348.9 Q1016.75 -1340.8 1016.75 -1339.55 1016.75 -1337.35 1012.4 -1334.95 L1011.9 -1334.65 Q1014.5 -1331.1 1014.5 -1327.2 L1014.25 -1320.35 Q1018.3 -1313.6 1019.0 -1309.95 1019.8 -1305.6 1020.2 -1297.5 L1020.5 -1288.2 Q1020.5 -1284.2 1018.0 -1271.2 1015.5 -1258.15 1015.5 -1256.3 1015.5 -1247.7 1017.0 -1229.7 1018.5 -1211.7 1018.5 -1202.7 L1017.5 -1182.6 1016.5 -1162.55 Q1016.5 -1158.9 1019.8 -1149.25 1023.65 -1138.15 1028.95 -1128.55 1043.95 -1101.5 1059.75 -1105.95 L1060.0 -1106.3 Q1060.25 -1106.35 1060.25 -1104.8 1060.25 -1103.25 1046.6 -1101.55 1030.1 -1099.45 1023.75 -1096.7 L1015.0 -1096.95 Q1005.5 -1104.45 1005.5 -1112.7 1005.5 -1113.8 1007.5 -1116.05 1009.5 -1118.3 1009.5 -1119.05 1009.5 -1120.3 1008.5 -1122.8 1007.5 -1125.3 1007.5 -1126.55 1007.5 -1127.8 1008.65 -1129.0 1009.75 -1130.2 1009.75 -1131.45 L1006.15 -1166.05 Q1002.5 -1201.4 1002.5 -1206.05 1002.5 -1213.5 1004.5 -1217.55 1006.5 -1221.6 1006.5 -1231.2 1006.5 -1238.75 1005.0 -1243.7 1003.5 -1248.65 1003.5 -1253.7 L1006.0 -1270.25 Q1008.5 -1288.65 1008.5 -1298.7 1008.5 -1314.1 1000.0 -1321.3 L994.15 -1325.3 Q991.5 -1327.05 991.5 -1328.7 991.5 -1329.95 999.5 -1337.6 1007.5 -1345.2 1007.5 -1348.2 1007.5 -1352.5 1003.9 -1367.9 L1000.25 -1383.45 Q1000.25 -1389.0 1002.75 -1401.8 1005.25 -1414.6 1005.25 -1420.2 1005.3 -1430.95 1007.25 -1433.7 1008.9 -1436.0 1011.55 -1432.45 M726.9 -1266.85 Q729.15 -1267.95 732.75 -1264.35 736.1 -1263.7 736.9 -1259.35 L739.3 -1255.45 Q742.1 -1250.4 742.1 -1248.35 742.1 -1244.6 739.85 -1236.35 738.65 -1232.0 738.1 -1228.85 L738.1 -1216.05 Q739.35 -1205.8 743.85 -1197.0 747.4 -1190.0 748.15 -1188.0 750.1 -1182.75 750.1 -1176.75 750.1 -1166.7 743.35 -1144.9 736.6 -1123.15 736.6 -1112.25 736.6 -1104.4 738.85 -1075.2 L741.1 -1045.0 743.1 -1045.25 Q746.95 -1044.2 747.85 -1042.1 L748.1 -1039.1 Q748.1 -1038.1 746.25 -1030.65 744.35 -1023.0 743.35 -1020.25 746.8 -1019.0 749.3 -1014.3 751.1 -1010.9 751.1 -1009.6 751.1 -1006.95 747.25 -1003.1 743.45 -999.3 737.4 -995.75 722.85 -987.25 709.6 -987.25 707.2 -987.25 705.45 -988.1 699.5 -985.25 695.1 -985.25 692.35 -985.25 691.1 -986.85 L685.2 -984.35 Q674.95 -980.25 670.6 -980.25 666.85 -980.25 665.6 -982.6 665.1 -983.55 665.1 -985.25 665.1 -987.85 674.8 -992.4 L696.1 -1002.2 Q727.1 -1018.05 727.1 -1038.25 727.1 -1045.0 725.6 -1070.4 724.1 -1095.75 724.1 -1098.25 724.1 -1123.45 729.1 -1141.85 L732.55 -1153.55 Q734.1 -1159.3 734.1 -1163.85 734.1 -1171.25 732.1 -1179.55 728.45 -1194.55 728.1 -1196.5 L728.1 -1213.75 Q727.85 -1221.1 726.1 -1234.25 724.1 -1249.25 724.1 -1256.75 724.1 -1265.5 726.9 -1266.85" fill="#737a7c" fill-rule="evenodd" stroke="none"/>
    <path d="M2077.85 -1052.55 L2097.6 -1050.55 2080.6 -1050.8 2078.35 -1052.3 2077.85 -1052.55 M2256.2 -996.35 L2256.2 -1032.8 Q2259.65 -1031.5 2262.35 -1029.9 2271.5 -1024.45 2271.5 -1014.95 2271.5 -1007.8 2267.05 -1002.8 2263.1 -998.45 2256.2 -996.35 M251.45 -946.75 Q253.2 -947.2 254.15 -947.6 L254.6 -948.2 254.7 -948.25 Q254.55 -949.2 254.9 -950.0 255.25 -950.8 255.8 -950.9 L264.3 -951.35 Q268.1 -951.05 274.0 -952.8 L278.8 -953.7 278.9 -953.7 Q286.8 -955.4 308.45 -957.2 L355.0 -960.55 381.25 -960.65 395.3 -960.5 410.05 -960.15 Q426.7 -960.15 445.05 -954.9 467.75 -948.4 467.75 -938.65 L467.75 -938.6 467.8 -938.55 Q468.9 -937.55 478.4 -933.05 487.3 -928.9 487.3 -928.35 487.3 -927.55 486.9 -927.2 L486.05 -926.65 481.55 -926.65 Q478.2 -927.5 467.95 -931.4 L466.2 -932.05 Q466.0 -931.1 464.5 -930.15 L454.3 -930.35 449.05 -930.15 452.85 -929.15 Q455.3 -928.4 455.3 -926.8 455.3 -924.4 450.2 -924.1 445.35 -923.85 422.5 -924.9 L404.25 -924.8 Q402.9 -922.8 398.2 -923.2 L393.6 -924.05 387.55 -923.9 Q394.8 -923.6 394.8 -920.85 394.8 -919.65 393.8 -919.3 L391.0 -919.05 366.05 -921.9 366.05 -921.65 Q366.05 -920.85 365.0 -920.3 363.95 -919.8 362.5 -919.8 L332.8 -923.55 330.05 -923.7 330.05 -923.15 Q330.05 -922.35 329.7 -921.9 L329.05 -921.3 324.3 -921.3 315.95 -922.85 306.75 -924.15 Q306.1 -923.0 304.75 -922.1 302.05 -920.3 297.25 -921.3 297.25 -919.85 296.05 -918.65 L291.3 -918.65 265.95 -922.75 Q250.0 -925.15 246.75 -927.55 L241.5 -928.2 Q240.25 -928.7 240.25 -930.15 240.25 -930.75 241.3 -930.95 242.8 -931.2 244.25 -933.3 244.6 -933.8 244.55 -935.35 244.85 -936.65 246.75 -936.8 246.75 -937.55 245.75 -938.95 L244.75 -940.35 Q244.75 -941.4 247.55 -944.0 248.7 -945.05 249.85 -945.65 249.95 -946.35 251.45 -946.75 M326.1 -939.7 L326.45 -939.7 326.15 -939.75 325.85 -939.75 326.1 -939.7 M884.3 -556.45 L884.15 -555.45 883.25 -555.45 884.3 -556.45 M2470.4 -714.5 Q2478.85 -719.1 2491.0 -716.6 2503.25 -714.05 2511.65 -705.85 2521.0 -696.7 2521.0 -684.25 2521.0 -673.7 2515.55 -663.35 2508.35 -649.75 2496.0 -649.75 2479.65 -649.75 2476.4 -662.7 2474.35 -670.8 2477.0 -678.25 2469.05 -679.6 2464.6 -686.3 2461.0 -691.7 2461.0 -697.75 2461.0 -709.45 2470.4 -714.5 M2181.25 -702.75 Q2181.25 -695.25 2176.8 -689.25 2171.2 -681.75 2161.25 -681.75 2157.85 -681.75 2133.8 -693.8 2108.45 -706.5 2102.75 -707.75 2087.5 -711.15 2080.55 -718.35 2075.25 -723.95 2075.25 -731.25 2075.25 -747.55 2091.8 -749.75 2106.0 -751.65 2128.25 -743.15 2148.75 -735.35 2164.7 -723.5 2181.25 -711.15 2181.25 -702.75" fill="#a5a289" fill-rule="evenodd" stroke="none"/>
    <path d="M415.75 -597.75 Q415.75 -591.1 412.15 -586.35 407.1 -579.75 395.75 -577.75 L317.75 -577.75 Q307.25 -576.8 301.65 -585.5 297.75 -591.6 297.75 -597.75 297.75 -603.95 301.65 -610.1 307.25 -618.9 317.75 -617.75 L395.75 -617.75 Q407.1 -615.9 412.15 -609.25 415.75 -604.45 415.75 -597.75" fill="#5c5b47" fill-rule="evenodd" stroke="none"/>
  </g>
</svg>
