<?xml version="1.0" encoding="UTF-8" standalone="no"?>
<svg xmlns:ffdec="https://www.free-decompiler.com/flash" xmlns:xlink="http://www.w3.org/1999/xlink" ffdec:objectType="shape" height="744.8px" width="2585.15px" xmlns="http://www.w3.org/2000/svg">
  <g transform="matrix(1.0, 0.0, 0.0, 1.0, -217.75, 1109.3)">
    <path d="M1883.6 -1057.8 L1883.6 -1102.6 2404.2 -1102.6 2404.2 -937.9 2447.5 -938.5 Q2451.1 -941.15 2468.65 -943.4 L2489.0 -945.5 2536.8 -945.5 2537.15 -945.85 Q2547.85 -955.6 2575.0 -953.5 L2637.0 -953.5 2682.0 -951.95 Q2685.0 -953.75 2687.9 -954.95 L2687.9 -936.1 Q2640.85 -938.55 2593.0 -944.5 L2539.0 -944.0 2509.15 -939.1 2493.15 -936.3 Q2488.1 -934.95 2486.7 -932.55 2485.5 -930.6 2485.5 -925.0 2485.65 -918.6 2487.15 -912.9 2481.75 -911.2 2473.55 -908.0 2453.0 -900.05 2440.05 -896.55 2417.65 -890.5 2397.0 -890.5 2394.5 -890.5 2385.0 -892.5 2375.5 -894.5 2373.0 -894.5 2367.6 -894.5 2364.0 -890.55 2363.0 -889.45 2362.35 -888.35 2351.9 -889.85 2346.7 -892.95 L2339.35 -898.2 Q2332.8 -902.85 2331.05 -902.85 2329.3 -902.85 2328.65 -902.2 L2328.15 -901.6 2328.0 -897.85 Q2326.8 -898.55 2323.2 -902.8 L2319.15 -907.45 2320.0 -913.2 2320.25 -931.5 2320.7 -935.25 2321.1 -939.95 Q2321.1 -940.25 2317.15 -941.8 2311.5 -944.1 2307.3 -946.3 2299.0 -950.6 2292.4 -956.2 L2288.4 -961.05 Q2281.9 -968.75 2277.7 -972.1 L2264.7 -985.35 Q2250.95 -999.05 2250.95 -1000.9 2250.95 -1003.35 2244.85 -1011.7 2237.6 -1021.55 2229.15 -1027.95 2224.4 -1031.55 2219.8 -1033.6 L2219.05 -1036.0 Q2217.15 -1040.15 2211.7 -1040.15 2207.5 -1040.15 2202.1 -1037.15 2192.15 -1031.6 2189.75 -1030.5 2177.6 -1025.1 2159.15 -1022.75 L2156.55 -1024.15 2140.05 -1026.55 2149.95 -1021.8 2126.45 -1020.9 Q2094.15 -1020.9 2075.3 -1025.0 2061.35 -1028.0 2052.0 -1034.15 2043.3 -1041.0 2038.25 -1043.75 2029.75 -1048.4 2015.65 -1049.2 L1995.25 -1049.05 1995.05 -1049.25 1994.05 -1050.35 Q1986.9 -1054.0 1985.0 -1057.15 1979.55 -1059.5 1970.75 -1060.5 1956.55 -1065.35 1949.3 -1065.95 1943.8 -1066.4 1939.4 -1064.25 L1930.3 -1059.95 Q1923.0 -1057.5 1911.25 -1057.5 L1883.6 -1057.8 M2361.65 -862.25 Q2363.35 -861.15 2364.4 -860.05 2368.15 -856.1 2383.2 -854.1 2390.05 -853.25 2392.5 -852.5 2396.1 -851.35 2396.45 -849.35 L2397.9 -850.25 2399.4 -851.5 Q2407.7 -851.55 2412.35 -852.95 2415.15 -853.75 2416.95 -855.15 L2428.65 -854.6 2453.0 -853.5 Q2454.85 -853.5 2456.3 -854.5 L2457.6 -855.85 2464.75 -856.5 Q2467.25 -857.15 2467.25 -860.25 2467.25 -861.95 2466.7 -862.65 2465.9 -863.6 2463.55 -864.15 L2443.45 -865.4 2439.7 -866.05 Q2441.95 -867.05 2444.05 -868.45 2450.0 -872.5 2450.0 -875.25 L2449.85 -876.25 Q2463.85 -880.3 2476.15 -886.5 2487.8 -892.35 2495.75 -899.1 2496.0 -898.2 2496.55 -898.05 2497.4 -897.85 2501.0 -898.0 L2503.1 -900.0 2503.65 -900.5 Q2507.2 -903.65 2511.1 -906.1 2513.5 -907.6 2513.5 -910.25 2513.5 -914.2 2512.1 -916.55 L2557.5 -917.0 2594.15 -915.75 Q2628.5 -915.25 2630.0 -916.0 L2687.9 -916.4 2687.9 -784.0 2685.15 -784.45 2675.5 -785.0 2676.0 -784.5 Q2676.8 -783.3 2680.0 -782.8 2683.35 -782.35 2687.9 -782.9 L2687.9 -752.3 Q2686.5 -751.05 2685.25 -749.05 2682.55 -744.85 2682.0 -741.0 L2660.8 -744.0 2657.9 -746.85 2643.55 -760.85 2643.1 -760.0 Q2644.3 -756.35 2645.1 -750.05 2631.15 -758.9 2615.8 -774.65 L2614.35 -776.2 Q2617.5 -777.8 2617.5 -780.95 L2605.3 -794.2 2577.75 -822.8 Q2536.7 -864.2 2530.0 -864.2 2527.9 -864.2 2526.55 -862.5 2525.5 -861.25 2525.4 -860.05 2518.0 -866.25 2513.85 -864.65 2510.7 -863.45 2510.7 -859.6 2510.7 -858.4 2511.85 -857.1 L2513.5 -855.45 Q2506.6 -857.35 2496.9 -857.95 L2479.95 -857.45 Q2472.3 -856.2 2472.25 -853.15 2472.25 -854.6 2471.9 -852.85 2471.75 -852.05 2472.75 -851.25 2476.05 -848.5 2489.0 -848.5 L2502.85 -847.65 Q2502.4 -847.35 2502.2 -846.85 L2501.5 -845.5 Q2516.15 -845.7 2527.65 -842.5 2534.7 -834.4 2555.3 -813.7 2578.85 -790.05 2591.6 -775.6 2588.65 -771.8 2582.4 -767.45 2569.7 -758.55 2554.25 -758.55 L2539.9 -762.85 Q2525.75 -767.15 2523.1 -767.15 2520.5 -767.15 2519.2 -766.3 2517.45 -765.2 2517.45 -762.45 2517.45 -759.95 2519.65 -757.65 2522.7 -754.45 2528.85 -753.5 L2526.55 -752.8 2517.2 -752.8 Q2510.9 -753.4 2498.2 -758.05 2485.95 -762.55 2485.0 -762.55 2482.0 -762.55 2480.8 -760.9 2479.95 -759.7 2479.95 -757.4 2479.95 -752.7 2484.65 -748.0 2487.35 -745.35 2491.15 -743.5 L2491.2 -743.25 Q2485.5 -743.95 2485.4 -740.25 2485.6 -744.2 2499.35 -729.05 2509.95 -717.4 2515.55 -712.25 2514.0 -711.05 2514.0 -709.1 2514.0 -708.45 2515.95 -705.3 2518.35 -701.4 2521.35 -698.0 L2523.75 -695.45 2523.0 -695.3 Q2514.7 -693.65 2513.75 -688.1 2493.55 -688.7 2490.8 -686.0 L2490.05 -684.1 Q2489.8 -683.2 2487.55 -683.2 2482.9 -683.2 2481.8 -684.8 2480.65 -686.4 2477.1 -686.4 2474.25 -686.4 2473.05 -685.0 2472.05 -683.75 2472.05 -681.2 L2472.05 -681.05 2468.7 -680.9 Q2464.55 -680.25 2464.55 -677.05 2464.55 -674.65 2479.1 -672.15 2475.4 -670.4 2469.3 -669.0 2457.4 -666.25 2439.55 -666.25 2439.1 -666.25 2435.35 -668.45 2431.55 -670.7 2429.95 -670.7 2427.9 -670.7 2418.7 -668.2 2405.6 -664.65 2380.5 -661.1 2382.95 -668.8 2372.75 -672.65 2367.7 -674.55 2349.3 -677.6 2338.85 -679.4 2338.15 -681.9 2337.95 -682.65 2337.9 -684.35 2337.55 -686.05 2335.65 -687.55 2333.9 -688.95 2326.6 -688.65 L2317.95 -688.1 Q2316.55 -688.25 2313.65 -689.85 2311.05 -691.25 2306.6 -691.25 2292.25 -691.25 2285.6 -687.25 2280.7 -684.3 2280.7 -679.9 2280.7 -675.85 2287.05 -672.5 2297.9 -666.85 2323.7 -666.85 2325.95 -666.85 2327.6 -668.25 2327.8 -668.45 2329.0 -665.1 2326.2 -660.1 2330.45 -656.3 2337.75 -649.75 2364.5 -649.75 2365.95 -649.75 2368.1 -651.0 2370.3 -652.3 2371.7 -652.3 L2375.65 -651.6 2385.1 -650.9 2406.75 -652.7 2413.95 -653.75 Q2421.55 -656.2 2424.75 -656.2 2432.7 -656.2 2437.05 -653.55 2441.4 -650.9 2446.45 -650.9 2447.9 -650.9 2447.85 -652.15 2447.75 -653.45 2449.2 -653.45 L2462.25 -653.2 Q2466.65 -656.1 2470.6 -656.4 L2476.4 -655.65 Q2479.4 -654.95 2480.95 -655.6 2483.25 -656.55 2485.55 -660.8 L2487.8 -666.4 Q2489.15 -669.2 2490.7 -670.4 L2501.4 -669.1 2504.45 -670.15 Q2509.7 -671.65 2516.25 -672.05 2527.6 -672.7 2531.5 -669.8 2535.85 -669.55 2541.6 -669.55 2550.15 -669.55 2556.75 -671.8 L2556.7 -672.75 Q2556.7 -675.35 2561.7 -682.2 2566.65 -689.05 2566.65 -690.7 2566.65 -692.65 2565.25 -696.15 L2564.7 -696.65 Q2553.6 -706.25 2553.55 -704.05 2553.55 -708.15 2557.7 -708.35 2555.85 -711.0 2555.85 -713.7 2555.85 -718.25 2558.0 -718.95 2558.75 -720.55 2561.25 -722.1 2564.5 -724.15 2569.25 -725.2 L2569.95 -725.35 Q2575.5 -728.55 2583.5 -730.9 2590.0 -732.8 2595.95 -733.5 L2596.35 -733.55 2600.95 -733.9 Q2609.5 -734.15 2612.35 -731.4 2615.9 -725.55 2621.2 -724.3 2624.5 -723.5 2631.25 -724.45 L2641.65 -724.9 Q2647.4 -724.0 2651.6 -718.85 L2658.3 -709.6 Q2662.95 -702.9 2662.95 -702.2 L2662.95 -701.25 2665.15 -699.3 Q2669.2 -695.75 2670.55 -692.7 2672.3 -688.9 2672.3 -681.65 2672.3 -673.85 2670.6 -669.85 2669.05 -666.3 2668.9 -661.9 2667.55 -658.95 2667.55 -656.35 2667.55 -653.2 2668.8 -651.15 2671.7 -646.55 2680.2 -646.55 2681.55 -646.55 2684.45 -650.3 L2687.9 -654.55 2687.9 -643.1 2676.85 -643.15 2676.85 -641.75 Q2676.85 -641.0 2674.85 -638.55 2672.6 -635.75 2669.65 -633.15 2661.2 -625.85 2653.6 -625.85 2646.95 -625.85 2645.75 -629.7 L2644.85 -632.85 Q2644.05 -634.6 2642.1 -635.35 2633.6 -638.75 2630.55 -640.95 L2629.6 -641.75 2569.0 -641.75 2564.05 -641.7 Q2562.4 -634.2 2554.7 -629.55 2543.45 -622.65 2517.0 -620.0 2504.45 -618.7 2498.8 -615.75 2494.8 -613.6 2492.1 -608.85 2488.4 -602.4 2486.1 -599.95 2482.1 -595.75 2475.15 -592.0 L2472.8 -590.8 1915.8 -590.8 1915.8 -592.0 1883.6 -592.0 1883.6 -626.65 Q1876.4 -625.6 1874.55 -624.55 1873.1 -623.75 1870.8 -623.55 1867.05 -623.25 1853.25 -623.25 L1786.05 -625.8 1733.25 -628.75 1627.6 -629.55 1627.6 -592.0 1545.8 -592.0 1545.8 -590.8 879.4 -590.8 Q865.35 -597.3 863.7 -607.7 L859.95 -608.95 Q835.3 -617.25 809.5 -630.75 788.05 -641.95 773.2 -652.85 L773.1 -652.65 Q770.35 -644.85 758.7 -644.85 745.85 -644.85 732.85 -646.95 716.6 -649.6 708.3 -654.7 L707.8 -654.55 Q695.95 -651.3 692.0 -649.75 681.3 -645.5 671.75 -637.75 L597.75 -637.75 Q555.65 -639.95 540.45 -637.6 L528.65 -635.45 Q520.9 -634.15 509.75 -633.75 L457.25 -633.25 Q424.75 -632.7 408.45 -633.5 L395.3 -634.55 384.25 -633.1 341.75 -625.75 292.2 -625.75 292.2 -670.5 Q280.95 -673.65 271.2 -689.8 267.2 -696.4 264.2 -704.05 261.75 -710.15 261.75 -711.5 261.75 -717.45 262.75 -721.75 257.5 -729.8 251.25 -742.25 249.55 -745.9 243.25 -751.05 231.0 -760.95 224.75 -766.75 220.2 -770.8 218.65 -778.95 217.75 -783.45 217.75 -790.75 217.75 -800.85 223.9 -814.45 227.45 -822.25 237.15 -838.8 246.4 -854.55 249.7 -862.35 255.0 -874.8 253.75 -883.5 252.2 -893.75 256.65 -907.05 L260.8 -918.35 Q263.45 -925.45 264.75 -930.0 L265.2 -931.5 274.35 -931.7 Q275.2 -929.05 277.25 -927.2 283.95 -921.3 301.75 -924.5 L367.25 -924.5 Q431.05 -928.85 447.55 -931.75 L454.15 -931.75 452.75 -932.9 451.4 -934.35 Q448.05 -938.35 448.05 -944.4 448.05 -952.15 457.2 -956.75 469.1 -962.7 496.65 -963.7 L508.0 -963.95 Q544.0 -963.95 572.75 -959.8 L589.55 -957.75 608.05 -958.65 662.5 -958.65 Q695.6 -960.35 710.05 -956.0 L720.9 -952.75 Q727.85 -951.15 738.4 -951.15 740.6 -951.15 744.1 -952.3 L751.55 -954.9 Q763.3 -958.65 777.95 -958.65 789.9 -958.65 804.5 -958.05 L820.5 -957.5 832.25 -956.8 832.2 -1018.6 896.2 -1018.6 896.2 -1086.6 1008.05 -1086.6 1007.75 -1082.1 Q1007.75 -1079.4 1009.75 -1074.75 L1011.5 -1079.35 Q1013.25 -1072.55 1014.25 -1072.0 L1015.75 -1072.5 Q1016.25 -1073.35 1017.4 -1079.45 1018.5 -1085.3 1018.5 -1086.5 1018.5 -1088.35 1019.5 -1093.7 L1020.5 -1099.6 Q1020.5 -1101.7 1019.7 -1102.6 L1627.6 -1102.6 1627.6 -1049.55 Q1627.1 -1048.45 1627.1 -1047.1 1627.1 -1045.65 1627.35 -1045.15 L1627.6 -1044.5 1627.6 -1035.95 Q1632.6 -1040.6 1643.35 -1044.0 1648.15 -1045.5 1654.15 -1046.8 1648.55 -1044.2 1642.6 -1040.2 L1641.9 -1039.7 1652.6 -1037.55 1662.75 -1035.25 Q1664.0 -1035.25 1666.55 -1037.7 1669.1 -1040.15 1671.8 -1040.15 1674.5 -1040.15 1686.0 -1036.15 L1679.25 -1033.8 Q1676.45 -1032.9 1675.5 -1031.75 1674.4 -1030.4 1674.4 -1027.35 1674.4 -1025.25 1677.05 -1019.5 1678.9 -1015.35 1680.4 -1012.85 1681.95 -1010.2 1682.6 -1007.05 1683.2 -1004.1 1683.75 -1003.3 1685.75 -1000.45 1700.85 -998.45 L1700.55 -998.2 Q1695.75 -992.7 1688.65 -990.05 1684.4 -988.45 1676.6 -987.2 1669.6 -986.1 1667.35 -984.95 1663.6 -983.05 1663.6 -978.5 1663.6 -977.6 1663.85 -976.75 1662.9 -977.1 1662.25 -977.55 L1659.1 -981.15 Q1654.15 -986.4 1629.65 -986.4 1602.0 -986.4 1595.15 -981.45 1592.75 -979.7 1592.1 -976.7 1591.75 -973.3 1591.15 -971.75 L1578.05 -972.0 1578.35 -972.3 Q1579.15 -979.8 1565.05 -984.15 1549.35 -987.7 1546.45 -989.85 L1539.25 -995.55 Q1535.0 -998.75 1531.15 -1000.45 1524.1 -1003.6 1514.05 -1003.75 1514.4 -1005.05 1514.4 -1006.5 L1516.4 -1012.7 Q1518.4 -1018.75 1518.4 -1019.3 1518.4 -1021.2 1517.85 -1022.45 L1516.4 -1024.75 Q1521.15 -1025.8 1523.4 -1029.05 1524.9 -1031.25 1524.9 -1033.4 1524.9 -1036.3 1522.75 -1038.55 1519.8 -1041.7 1513.5 -1042.15 1514.0 -1049.5 1502.95 -1051.5 L1472.85 -1053.5 Q1449.95 -1057.5 1433.95 -1054.4 L1433.45 -1054.55 Q1429.1 -1055.75 1415.25 -1055.75 1405.3 -1055.75 1396.7 -1054.1 1388.05 -1052.5 1378.85 -1052.5 1342.5 -1052.5 1331.7 -1053.4 L1310.25 -1056.25 1234.0 -1056.5 1231.2 -1057.35 1228.25 -1058.25 1182.25 -1058.25 Q1178.0 -1057.45 1173.9 -1050.3 1170.5 -1044.45 1170.5 -1042.5 1170.5 -1041.25 1172.05 -1039.7 L1175.75 -1036.25 Q1171.2 -1033.25 1169.9 -1031.0 L1169.85 -1030.85 1165.0 -1027.75 Q1151.4 -1018.6 1146.75 -1017.5 L1120.2 -1013.8 Q1094.35 -1010.5 1081.0 -1009.5 1072.65 -1014.3 1062.8 -1017.05 1057.4 -1018.55 1045.55 -1020.7 1034.6 -1022.65 1028.55 -1024.55 1022.85 -1026.35 1017.7 -1028.95 1015.35 -1031.95 1012.65 -1033.65 1015.65 -1035.65 1016.75 -1036.9 1018.0 -1038.35 1018.0 -1040.25 1018.0 -1057.95 1003.9 -1045.95 999.4 -1042.2 994.15 -1035.95 989.75 -1030.65 989.75 -1030.25 989.75 -1027.6 990.75 -1025.85 L990.15 -1024.7 Q988.7 -1022.6 985.35 -1021.0 980.8 -1018.85 975.7 -1016.95 L969.45 -1014.6 Q966.25 -1013.2 965.45 -1010.45 L965.5 -1010.45 Q963.1 -1007.95 963.1 -1004.2 963.1 -1000.1 947.0 -986.35 930.0 -972.45 928.05 -970.3 L922.5 -963.2 922.2 -963.5 921.2 -964.5 Q914.8 -959.45 910.3 -952.5 L914.25 -953.65 910.7 -951.1 Q897.3 -943.0 858.0 -943.0 L849.9 -943.2 845.0 -942.95 Q841.9 -942.2 841.9 -936.2 841.9 -930.3 849.3 -927.0 L850.15 -926.65 Q850.5 -922.05 855.2 -919.45 863.5 -914.8 885.5 -914.8 L896.45 -915.5 906.6 -916.55 Q910.45 -917.5 912.45 -918.85 L913.95 -920.0 Q919.6 -920.0 940.4 -943.6 955.05 -960.15 959.25 -967.55 L961.25 -966.7 Q964.75 -965.1 967.15 -965.1 972.05 -965.1 977.1 -967.85 L981.7 -970.25 Q984.75 -966.55 988.15 -962.8 L990.9 -959.85 Q988.1 -957.55 988.1 -953.6 988.1 -951.95 990.05 -950.0 993.45 -946.65 995.9 -943.0 987.4 -940.6 985.0 -937.85 983.65 -936.35 983.65 -932.75 983.65 -929.4 984.55 -927.65 986.65 -923.45 993.3 -923.45 998.7 -923.45 1008.0 -926.65 1017.25 -929.9 1019.45 -929.9 L1027.15 -926.7 Q1034.85 -923.35 1037.85 -922.85 1040.65 -922.4 1048.85 -918.15 1056.45 -914.25 1059.7 -914.25 1061.6 -914.25 1064.1 -915.05 L1068.05 -916.55 1068.85 -914.6 Q1069.45 -912.95 1070.35 -911.85 1073.2 -908.35 1080.7 -908.35 1082.6 -908.35 1086.45 -909.45 1089.6 -910.35 1091.6 -911.2 1092.75 -906.35 1100.8 -902.15 1108.35 -898.15 1114.9 -898.15 1122.1 -898.15 1125.95 -900.5 1127.6 -901.5 1131.45 -905.75 1134.7 -909.35 1138.8 -910.95 1144.8 -913.35 1155.6 -913.35 1156.5 -913.35 1161.0 -911.4 1165.55 -909.5 1170.55 -909.5 1210.95 -909.5 1211.2 -927.0 1228.05 -925.55 1235.5 -929.4 L1239.7 -932.25 Q1241.65 -933.65 1243.55 -933.65 L1252.1 -931.35 1260.65 -929.05 Q1272.35 -929.05 1276.3 -933.7 1278.05 -935.75 1278.05 -939.1 L1278.0 -939.8 Q1285.6 -933.9 1288.85 -933.9 1296.6 -933.9 1300.45 -941.25 1303.05 -946.15 1303.05 -951.15 1303.05 -953.5 1299.3 -957.05 L1294.75 -961.55 1300.55 -963.4 Q1310.35 -966.85 1314.7 -966.85 1316.95 -966.85 1324.2 -959.45 1333.95 -952.05 1348.65 -952.05 1356.55 -952.05 1362.85 -954.95 L1366.1 -952.6 1380.55 -943.0 Q1383.95 -940.25 1384.8 -936.4 1385.15 -932.15 1385.45 -930.35 1386.0 -927.2 1388.65 -925.9 1392.05 -924.15 1400.4 -924.15 L1402.5 -927.1 1401.3 -923.4 Q1399.25 -916.3 1399.25 -913.35 1384.15 -913.95 1374.5 -908.0 L1368.05 -903.45 Q1364.7 -901.05 1362.15 -900.45 1362.25 -902.25 1361.8 -905.5 1361.3 -908.95 1361.3 -910.2 1361.3 -910.6 1364.95 -913.9 1368.6 -917.25 1368.6 -920.0 1368.6 -921.75 1367.7 -923.5 1366.2 -926.45 1362.75 -926.45 1358.55 -926.45 1356.0 -923.85 L1349.35 -917.4 Q1332.85 -916.75 1326.2 -910.5 1322.05 -906.55 1322.05 -900.55 1322.05 -892.55 1325.9 -886.6 1333.05 -875.55 1351.35 -877.0 L1359.0 -877.0 1388.3 -879.3 Q1400.35 -880.5 1402.4 -881.9 1403.95 -882.9 1404.5 -884.3 L1405.05 -886.3 Q1405.9 -888.2 1412.9 -888.2 L1418.25 -886.55 Q1422.9 -884.95 1425.1 -885.05 L1454.45 -884.45 1457.85 -882.25 Q1460.6 -881.0 1464.95 -881.0 1468.7 -881.0 1476.55 -886.2 1480.5 -888.8 1483.75 -891.5 1486.7 -894.75 1497.55 -896.7 1508.75 -898.7 1512.35 -902.0 1515.65 -905.0 1518.35 -918.35 1520.4 -928.7 1520.4 -932.35 1520.4 -936.2 1516.9 -940.85 1512.25 -947.1 1504.45 -948.3 1489.55 -950.65 1485.45 -953.35 1480.7 -958.0 1473.4 -962.8 1473.9 -963.3 1476.4 -967.75 1478.75 -972.0 1481.85 -974.75 1491.9 -983.65 1515.55 -983.65 1521.15 -983.65 1529.6 -978.5 L1538.55 -972.3 Q1525.6 -971.65 1521.5 -967.65 1519.55 -965.7 1519.55 -961.65 1519.55 -954.3 1526.05 -952.6 L1541.1 -952.3 Q1542.2 -952.3 1549.9 -955.15 1557.55 -958.05 1559.4 -958.05 1563.55 -958.05 1565.1 -957.15 L1567.3 -955.15 Q1571.0 -952.3 1589.4 -952.3 1605.7 -952.3 1610.75 -958.15 1613.25 -961.05 1614.25 -966.4 L1618.1 -965.0 1627.35 -962.2 Q1627.25 -960.35 1627.6 -958.65 1628.65 -953.6 1633.75 -952.55 1633.4 -951.3 1633.4 -947.85 1633.4 -942.15 1637.15 -937.5 1644.2 -928.75 1662.0 -928.75 1666.3 -928.75 1674.3 -930.75 1682.35 -932.75 1694.95 -932.75 L1717.1 -932.5 Q1719.35 -932.75 1719.95 -934.05 1720.4 -935.0 1720.4 -938.4 1720.4 -943.75 1714.15 -947.2 1706.25 -951.6 1690.2 -951.05 1689.9 -955.5 1685.1 -958.1 L1687.45 -959.25 Q1691.75 -961.6 1692.9 -964.8 1693.35 -966.0 1693.35 -969.0 1693.45 -971.2 1692.55 -973.15 L1695.1 -974.35 1704.6 -979.35 Q1717.95 -986.4 1726.15 -986.4 1740.75 -986.4 1761.15 -983.45 L1761.05 -981.8 Q1761.05 -980.35 1763.3 -977.4 1766.05 -973.85 1770.45 -970.9 1783.0 -962.5 1802.05 -963.7 L1801.45 -961.15 1791.0 -958.3 Q1780.2 -955.45 1780.2 -952.05 1780.2 -950.3 1780.9 -950.05 L1781.6 -949.9 Q1791.5 -949.55 1800.2 -953.8 1800.05 -950.65 1801.1 -948.35 1805.3 -938.95 1830.8 -938.95 1839.3 -938.95 1856.6 -945.6 1873.9 -952.3 1877.35 -952.3 1881.15 -952.3 1886.25 -949.95 1891.3 -947.6 1900.8 -947.6 1910.0 -947.6 1921.4 -954.1 1932.1 -960.2 1932.1 -963.95 1932.1 -965.65 1931.35 -967.4 1933.75 -968.95 1935.85 -972.3 1939.0 -977.25 1939.0 -979.9 1939.0 -982.5 1935.5 -988.2 1932.75 -992.65 1929.8 -996.15 L1951.15 -1011.7 Q1953.4 -1014.0 1954.05 -1016.6 1954.55 -1018.6 1954.55 -1023.5 L1954.5 -1025.1 1955.3 -1025.6 Q1960.6 -1028.8 1965.35 -1032.25 L1981.55 -1032.25 Q2004.3 -1030.15 2021.0 -1025.95 L2027.0 -1024.35 Q2029.75 -1017.3 2042.65 -1011.8 2049.25 -1009.0 2057.45 -1007.05 2058.25 -1005.4 2060.45 -1003.75 2062.2 -1002.35 2068.25 -999.0 2074.4 -995.55 2077.4 -992.35 2076.95 -991.3 2076.65 -990.05 2075.85 -986.8 2075.85 -979.05 2075.85 -977.95 2074.8 -975.0 2073.7 -972.05 2073.7 -971.15 2073.7 -964.85 2078.15 -960.65 2086.1 -953.2 2106.65 -953.2 L2112.4 -953.05 Q2118.25 -953.5 2120.3 -956.65 L2119.6 -957.9 2119.15 -958.95 Q2108.5 -958.85 2106.05 -960.6 2105.2 -962.45 2103.2 -962.65 L2113.8 -966.95 Q2119.15 -969.65 2119.15 -972.9 2119.15 -974.55 2118.85 -974.8 L2118.55 -975.2 2115.1 -975.6 Q2111.85 -975.6 2107.55 -972.5 2103.25 -969.45 2098.45 -969.45 2096.55 -969.45 2095.2 -970.1 2094.15 -970.55 2093.85 -971.15 2095.85 -972.25 2110.05 -976.35 2121.3 -979.6 2121.3 -982.1 2121.3 -984.95 2121.15 -983.35 L2119.65 -984.35 2116.85 -984.8 2113.75 -984.45 2111.1 -983.95 2111.1 -984.1 Q2111.1 -985.65 2110.8 -986.4 L2120.6 -987.25 2121.15 -988.1 2121.3 -990.0 Q2121.3 -994.3 2117.7 -996.6 2123.35 -997.45 2123.9 -997.95 2124.35 -998.35 2124.75 -1000.05 L2122.6 -1002.45 2121.75 -1003.25 Q2168.55 -1004.95 2195.75 -1014.25 2199.9 -1015.65 2203.4 -1017.2 2219.95 -1014.05 2241.35 -992.85 2254.75 -979.6 2271.65 -958.35 L2273.9 -956.2 Q2276.35 -952.7 2279.0 -949.45 2285.95 -940.95 2292.15 -937.0 L2295.55 -927.85 Q2303.0 -907.6 2305.45 -903.15 2306.35 -901.5 2312.4 -895.85 L2318.85 -890.1 Q2321.95 -886.65 2325.7 -883.35 2334.75 -875.45 2344.75 -871.0 L2345.15 -871.15 Q2346.75 -869.55 2349.6 -867.45 2356.6 -862.2 2360.65 -862.2 L2361.65 -862.25 M1729.5 -1059.5 Q1732.6 -1060.95 1740.2 -1060.75 L1760.4 -1059.5 1793.25 -1056.7 Q1800.75 -1055.55 1802.0 -1051.9 1802.9 -1049.4 1803.45 -1048.65 1804.4 -1047.3 1806.3 -1046.1 1788.95 -1050.25 1766.95 -1053.1 1743.85 -1056.15 1726.6 -1056.25 1727.3 -1058.4 1729.3 -1059.4 L1729.5 -1059.5 M2608.45 -755.8 L2602.7 -755.55 2601.55 -756.8 Q2600.4 -757.95 2600.4 -759.7 2600.4 -760.4 2602.05 -762.9 2604.3 -759.85 2608.45 -755.8 M2668.2 -631.15 Q2671.6 -634.05 2676.6 -634.7 2681.55 -635.3 2685.0 -633.4 2686.95 -632.35 2687.9 -630.75 L2687.9 -623.8 Q2686.85 -621.7 2684.65 -618.9 2679.85 -612.85 2675.1 -612.85 2669.55 -612.85 2666.4 -617.9 L2664.35 -623.1 Q2664.35 -627.9 2668.2 -631.15 M1493.35 -919.6 Q1497.55 -922.45 1497.55 -930.75 L1497.55 -931.05 1500.45 -930.75 1498.6 -925.2 Q1497.0 -920.15 1497.0 -917.8 L1497.2 -915.1 1497.55 -913.95 1489.65 -913.65 1489.65 -914.25 1489.4 -915.5 Q1489.1 -916.1 1489.1 -917.7 1489.1 -917.95 1490.4 -918.35 1492.2 -918.8 1493.35 -919.6 M1302.65 -880.6 Q1302.65 -883.95 1296.65 -885.55 1292.95 -886.55 1283.55 -887.4 1273.8 -888.25 1270.4 -889.1 1264.4 -890.55 1264.4 -893.65 1264.4 -898.75 1261.65 -901.35 1259.2 -903.65 1255.55 -903.25 1252.0 -902.9 1249.45 -900.15 1246.7 -897.2 1246.7 -892.8 1246.7 -891.75 1247.9 -889.15 1249.6 -885.35 1252.75 -882.15 1262.5 -872.25 1281.65 -872.25 1294.2 -872.25 1298.75 -874.25 1302.65 -876.0 1302.65 -880.6 M1363.7 -976.45 Q1359.05 -974.95 1357.75 -968.35 1353.5 -966.25 1345.6 -966.25 1343.8 -966.25 1342.3 -966.8 L1341.15 -967.4 Q1345.35 -970.45 1345.35 -974.6 1345.75 -975.7 1345.6 -976.75 L1359.4 -980.0 1364.85 -981.2 1363.7 -976.45 M1442.25 -938.1 Q1448.15 -932.95 1453.3 -931.9 L1449.25 -931.9 Q1441.85 -933.55 1438.35 -930.45 1435.75 -928.15 1435.75 -923.85 1435.75 -922.0 1435.9 -921.6 L1436.35 -920.85 Q1431.9 -920.05 1427.8 -917.15 1424.1 -914.5 1422.95 -914.5 1421.05 -914.5 1419.25 -915.3 1416.9 -916.35 1416.9 -918.1 1416.9 -921.1 1424.2 -931.4 1432.05 -942.5 1432.6 -944.15 1436.3 -943.35 1442.25 -938.1 M1401.25 -953.05 Q1409.7 -950.05 1414.1 -948.9 1411.3 -945.4 1408.8 -941.1 L1408.45 -940.45 Q1407.2 -945.55 1401.25 -953.05 M1432.9 -962.9 L1432.15 -962.65 1432.3 -963.1 1432.9 -962.9 M1453.3 -972.0 Q1452.45 -969.3 1452.45 -966.55 L1450.3 -965.85 Q1449.15 -965.4 1447.55 -965.4 L1447.3 -965.4 1450.3 -967.45 Q1452.4 -969.25 1452.9 -971.9 L1453.3 -972.0 M1333.65 -1036.55 Q1333.5 -1034.9 1333.5 -1033.0 1333.5 -1028.0 1337.8 -1026.05 1341.3 -1024.5 1350.0 -1024.2 L1368.95 -1023.7 1377.45 -1023.15 Q1379.3 -1024.2 1381.4 -1024.2 L1387.55 -1023.05 1392.75 -1021.9 Q1393.1 -1022.4 1392.95 -1026.3 L1392.65 -1031.4 Q1392.65 -1033.25 1393.1 -1034.3 1394.05 -1036.6 1397.1 -1038.15 1398.9 -1039.05 1405.85 -1037.5 1411.9 -1037.1 1411.9 -1043.6 L1411.35 -1046.2 Q1410.9 -1048.35 1411.5 -1049.8 1413.2 -1054.4 1424.55 -1054.4 L1431.25 -1053.8 Q1425.85 -1052.5 1422.55 -1050.45 1419.2 -1048.45 1419.2 -1046.6 1419.2 -1045.15 1420.35 -1043.6 1421.5 -1042.0 1421.5 -1040.6 L1417.05 -1031.25 1412.6 -1021.9 Q1412.6 -1018.9 1413.8 -1017.25 L1415.1 -1015.85 Q1414.5 -1012.75 1414.2 -1009.2 1406.25 -1009.6 1397.3 -1007.9 1388.9 -1006.3 1374.8 -1001.6 1357.9 -996.0 1351.9 -994.45 L1348.8 -993.65 1348.8 -995.0 Q1348.8 -996.55 1345.1 -998.1 L1343.85 -993.8 1346.35 -993.1 Q1336.4 -991.0 1327.95 -991.0 1324.9 -991.0 1323.15 -990.3 1321.25 -989.25 1319.5 -988.7 1312.6 -986.4 1290.3 -986.4 1290.3 -987.4 1291.05 -992.1 1291.7 -996.45 1291.55 -999.0 1291.05 -1007.25 1281.95 -1007.25 L1272.9 -998.15 Q1263.85 -988.95 1263.85 -988.4 L1262.7 -975.75 Q1262.7 -971.5 1273.1 -961.9 1283.45 -952.35 1289.15 -951.05 L1285.4 -950.3 1278.5 -950.0 Q1278.05 -950.0 1276.05 -951.85 1274.9 -952.95 1273.5 -953.4 1269.2 -959.8 1262.1 -959.8 1257.85 -959.8 1245.05 -954.4 1232.0 -948.65 1229.45 -947.85 L1222.55 -947.25 1211.9 -947.0 Q1197.3 -946.2 1193.7 -941.25 1191.45 -938.25 1190.65 -936.25 1189.55 -933.5 1190.25 -931.05 L1178.75 -928.85 Q1171.5 -927.3 1170.55 -927.3 1170.2 -927.3 1166.55 -929.45 1162.9 -931.6 1156.45 -931.6 1132.85 -931.6 1124.05 -924.05 1122.75 -922.95 1119.5 -918.9 1117.65 -916.55 1115.5 -916.55 1112.1 -916.55 1109.4 -919.95 L1104.2 -927.45 Q1095.85 -938.4 1078.25 -938.4 1076.3 -940.35 1074.5 -943.2 L1071.9 -947.1 Q1069.35 -949.95 1062.9 -950.45 L1073.5 -957.55 Q1087.0 -966.8 1087.0 -968.35 1087.0 -969.65 1086.0 -971.05 1084.45 -973.25 1081.25 -973.25 1078.4 -973.25 1067.65 -967.0 1056.9 -960.75 1056.25 -960.75 1053.75 -960.75 1037.8 -963.6 L1038.15 -961.9 Q1034.45 -964.2 1027.65 -965.7 L1029.4 -968.5 Q1030.25 -970.3 1030.25 -972.15 L1031.1 -976.85 1034.5 -970.6 1035.05 -969.6 1037.25 -970.3 Q1053.25 -975.3 1053.25 -978.25 1053.25 -982.95 1045.35 -983.25 L1041.65 -983.15 1040.25 -980.95 Q1037.2 -977.05 1031.5 -978.9 1032.25 -982.95 1032.25 -984.5 1032.25 -991.35 1027.4 -997.3 L1030.95 -995.55 1031.35 -996.25 1046.5 -995.65 Q1062.6 -994.6 1074.5 -992.25 L1088.0 -992.25 1088.0 -992.75 Q1096.1 -992.15 1112.9 -995.05 1130.15 -997.95 1147.05 -1002.95 1166.05 -1008.55 1177.25 -1014.75 1188.3 -1020.8 1189.95 -1026.55 L1193.3 -1028.55 Q1208.85 -1037.95 1211.5 -1038.75 L1238.5 -1039.0 1244.5 -1038.25 1300.75 -1038.0 1333.65 -1036.55 M1818.4 -993.6 Q1819.25 -994.1 1822.15 -1001.25 1825.05 -1008.4 1825.05 -1009.8 1825.05 -1012.05 1824.3 -1013.55 1823.25 -1015.7 1820.45 -1017.45 1824.55 -1019.65 1829.3 -1021.45 L1835.65 -1023.8 Q1838.5 -1025.0 1839.75 -1027.0 1842.6 -1026.85 1849.05 -1025.5 L1861.55 -1023.05 1861.75 -1024.6 Q1861.95 -1026.0 1862.75 -1027.05 1865.45 -1030.4 1875.65 -1031.65 L1875.1 -1035.6 Q1874.5 -1038.3 1874.5 -1039.7 1874.5 -1042.3 1875.75 -1043.55 1877.75 -1045.6 1883.25 -1045.6 1884.05 -1045.6 1887.85 -1043.6 1891.7 -1041.6 1896.35 -1041.6 1897.6 -1041.6 1903.05 -1043.75 1908.5 -1045.9 1912.55 -1045.9 L1913.7 -1048.55 Q1915.4 -1051.2 1918.45 -1051.2 L1924.05 -1050.15 1930.95 -1048.65 Q1931.3 -1054.0 1931.4 -1054.2 1932.65 -1058.1 1937.75 -1058.1 L1950.2 -1059.0 Q1958.85 -1058.85 1969.65 -1053.5 1975.2 -1050.8 1979.55 -1048.9 L1945.8 -1048.65 Q1939.25 -1047.2 1937.55 -1042.25 1937.0 -1040.65 1937.0 -1035.4 L1937.15 -1034.0 1934.5 -1031.7 Q1930.4 -1027.85 1930.4 -1026.05 1930.4 -1023.65 1931.35 -1022.35 1932.75 -1020.4 1936.05 -1019.6 L1924.8 -1012.1 Q1910.25 -1002.85 1910.25 -1000.75 1910.25 -999.45 1918.4 -989.7 1926.5 -979.95 1926.5 -979.05 1926.5 -977.25 1923.8 -973.95 1921.05 -970.65 1921.05 -969.7 L1921.05 -969.0 1914.8 -966.4 Q1905.35 -962.25 1900.8 -962.25 1897.05 -962.25 1891.3 -964.95 1885.6 -967.7 1878.05 -967.7 1870.3 -967.7 1850.4 -961.6 1831.3 -955.25 1829.2 -954.9 L1821.0 -954.9 1818.15 -958.05 Q1817.4 -959.05 1817.4 -959.2 1817.4 -961.1 1818.75 -964.5 1819.9 -967.4 1819.45 -968.95 L1818.6 -970.5 1821.85 -969.7 1822.45 -970.0 Q1818.95 -971.35 1816.35 -972.55 1811.5 -975.95 1799.45 -979.9 L1799.1 -979.9 1800.3 -981.7 Q1801.75 -984.3 1801.75 -986.25 1801.75 -987.9 1802.0 -988.95 1802.45 -990.7 1803.75 -992.7 L1818.4 -993.6 M1823.75 -992.05 L1821.45 -987.1 1837.45 -981.85 Q1836.25 -989.55 1836.25 -991.5 1836.25 -1005.5 1832.35 -1004.15 1829.2 -1003.0 1823.75 -992.05 M1762.8 -930.6 Q1764.25 -928.75 1768.95 -928.75 1772.05 -928.75 1775.0 -930.8 1778.15 -932.95 1778.15 -935.65 1778.15 -942.6 1770.2 -939.75 1767.1 -938.65 1764.7 -936.6 1762.2 -934.45 1762.2 -932.75 1762.2 -931.35 1762.8 -930.6 M1626.6 -1024.15 L1633.55 -1023.9 Q1632.1 -1025.6 1631.5 -1027.2 1631.0 -1028.6 1630.95 -1030.45 L1630.85 -1030.35 Q1627.45 -1026.65 1626.6 -1024.15 M1710.05 -887.35 L1709.15 -887.35 1716.7 -882.5 1710.05 -887.35 M2144.7 -917.35 Q2144.05 -916.8 2143.85 -916.8 2143.6 -913.95 2144.3 -912.4 2145.55 -909.5 2152.65 -909.5 2163.2 -909.5 2173.15 -912.15 2183.1 -914.8 2186.4 -914.8 L2187.0 -917.4 2186.5 -918.55 2186.4 -919.1 2172.65 -922.55 2163.7 -922.85 Q2163.45 -920.65 2163.6 -919.5 2163.85 -918.0 2164.85 -916.8 2163.9 -916.25 2159.3 -915.9 L2152.65 -915.65 Q2151.2 -915.65 2149.85 -916.8 2148.45 -917.95 2147.05 -917.95 2145.35 -917.95 2144.7 -917.35 M2149.9 -941.55 L2155.8 -942.15 Q2157.8 -942.95 2157.8 -945.55 2136.4 -956.2 2131.65 -945.85 2134.1 -944.1 2142.05 -942.65 L2149.9 -941.55 M2218.45 -943.0 Q2222.75 -943.0 2224.55 -944.7 2225.95 -946.1 2225.95 -949.0 2225.95 -950.5 2225.65 -951.1 2224.8 -952.9 2221.9 -952.9 2220.8 -952.9 2219.6 -951.65 2218.55 -950.5 2217.75 -948.75 L2215.15 -949.45 Q2214.45 -954.25 2210.5 -953.05 2206.55 -951.8 2206.55 -948.75 2206.55 -947.0 2209.1 -945.25 2212.5 -943.0 2218.45 -943.0 M2206.35 -970.7 Q2205.3 -972.45 2204.1 -973.3 2199.35 -968.3 2187.4 -964.25 2182.85 -962.7 2168.3 -958.95 L2167.15 -960.35 Q2170.4 -968.45 2161.05 -971.45 2155.3 -973.3 2147.45 -972.9 2147.3 -972.75 2147.3 -969.85 2147.3 -966.95 2149.7 -965.95 2151.6 -965.1 2161.1 -963.4 2160.6 -959.85 2160.65 -958.25 2160.85 -955.45 2164.85 -953.2 L2176.5 -952.9 Q2177.55 -955.45 2182.65 -957.35 2185.4 -958.3 2193.15 -960.15 2200.15 -961.8 2203.0 -963.1 2207.4 -965.05 2207.4 -967.85 2207.4 -968.95 2206.35 -970.7 M2051.8 -952.55 L2053.75 -952.05 Q2063.1 -954.05 2065.4 -957.2 L2064.25 -958.95 Q2060.9 -959.2 2056.4 -958.1 2051.15 -956.8 2051.15 -954.75 2051.15 -952.9 2051.8 -952.55 M2025.15 -957.5 Q2028.65 -952.3 2035.6 -952.3 2037.6 -952.3 2040.6 -953.45 2043.35 -954.5 2043.8 -955.2 2043.8 -958.9 2043.3 -959.95 2042.05 -962.8 2037.2 -962.8 2035.8 -962.8 2035.65 -961.35 2035.5 -959.95 2034.05 -959.95 2030.65 -959.95 2028.75 -963.35 2026.7 -967.1 2025.4 -967.4 2023.8 -966.95 2023.45 -966.5 2022.85 -965.8 2022.85 -963.8 2022.85 -960.9 2025.15 -957.5 M2068.2 -952.65 Q2065.95 -951.2 2065.95 -949.75 2065.95 -947.95 2066.1 -947.15 L2066.25 -946.7 2073.0 -946.45 Q2076.9 -946.45 2080.55 -948.3 2083.45 -949.8 2084.2 -951.05 2081.15 -956.25 2073.4 -954.7 2070.35 -954.1 2068.2 -952.65 M2072.8 -961.55 Q2073.45 -963.0 2073.45 -964.85 2073.45 -967.85 2070.3 -969.65 2066.75 -971.7 2061.65 -970.3 L2061.25 -969.2 2061.2 -967.25 Q2061.2 -964.85 2061.9 -963.95 2063.4 -962.05 2068.25 -963.7 L2068.75 -961.2 Q2069.15 -959.95 2070.25 -959.2 2070.55 -959.5 2071.7 -959.8 L2072.8 -961.55 M1873.6 -928.75 Q1882.65 -934.1 1882.65 -938.95 1882.65 -946.0 1863.05 -937.65 1856.65 -934.9 1849.6 -931.15 L1843.45 -927.6 Q1843.45 -925.75 1844.05 -925.0 1845.7 -922.85 1851.5 -922.85 1863.55 -922.85 1873.6 -928.75 M2339.5 -907.5 L2331.6 -903.75 2336.05 -901.45 Q2338.55 -903.8 2339.5 -907.5 M2417.75 -868.25 L2417.75 -867.85 Q2399.15 -868.9 2395.75 -866.75 2391.55 -864.1 2386.3 -862.35 L2387.05 -863.05 Q2390.8 -866.4 2391.4 -868.5 L2418.85 -870.1 Q2417.75 -869.1 2417.75 -868.25 M954.35 -902.45 Q954.35 -897.75 958.1 -893.55 965.1 -885.6 982.5 -885.6 988.9 -885.6 995.05 -890.35 1000.5 -894.55 1000.5 -897.25 1000.5 -898.85 998.95 -901.95 996.75 -906.3 993.3 -906.3 992.3 -906.3 990.75 -904.95 989.15 -903.6 987.95 -901.7 L976.3 -901.0 972.0 -900.7 Q967.4 -906.0 963.05 -908.9 954.35 -914.65 954.35 -902.45 M915.05 -933.0 L923.65 -939.9 921.8 -937.85 Q919.05 -935.1 915.05 -933.0 M860.95 -882.2 L858.9 -882.45 856.25 -882.05 857.6 -882.0 860.95 -882.2 M977.9 -649.75 Q977.9 -652.35 976.75 -653.2 974.15 -655.2 964.85 -655.2 902.0 -655.75 892.1 -656.9 L894.1 -657.05 Q898.95 -660.0 901.15 -662.1 903.45 -664.2 903.45 -665.85 903.45 -670.0 899.15 -672.8 893.3 -676.6 880.15 -677.35 880.15 -680.35 879.85 -681.2 888.95 -681.7 892.25 -684.9 894.1 -686.7 894.1 -689.7 894.1 -691.7 892.4 -695.15 890.2 -699.7 886.4 -703.2 875.3 -713.4 855.7 -710.55 849.45 -709.25 848.0 -705.25 847.55 -700.95 846.65 -699.75 844.05 -696.85 837.95 -693.6 832.6 -690.7 832.15 -689.55 820.35 -689.55 812.35 -687.95 804.3 -686.4 797.8 -686.4 L790.65 -687.4 779.8 -687.8 Q778.4 -687.75 775.85 -685.45 773.3 -683.2 772.65 -683.2 771.2 -683.2 768.45 -684.5 765.7 -685.8 764.3 -685.8 759.55 -685.8 757.1 -682.9 755.1 -680.55 755.1 -677.05 754.9 -676.1 755.0 -675.0 755.2 -672.75 756.85 -671.0 761.95 -665.4 779.25 -665.4 L791.7 -666.55 804.1 -667.7 Q813.5 -667.7 823.4 -661.1 830.05 -656.7 835.0 -650.9 839.55 -645.5 869.65 -643.45 885.25 -642.4 905.15 -642.4 951.2 -642.4 968.25 -645.3 977.9 -646.95 977.9 -649.75 M1208.1 -675.25 Q1198.15 -672.9 1198.15 -670.3 L1198.9 -668.85 Q1200.2 -667.0 1203.0 -665.1 L1220.15 -665.1 1247.65 -667.7 1250.45 -667.7 Q1267.9 -667.7 1271.9 -668.95 1273.05 -669.3 1273.5 -669.95 L1274.6 -670.7 Q1272.05 -673.65 1262.85 -675.7 L1253.6 -677.2 1253.45 -677.25 Q1243.9 -679.0 1230.35 -678.25 1217.7 -677.6 1208.1 -675.25 M1216.45 -722.05 Q1229.0 -726.85 1229.0 -731.75 1229.0 -734.25 1226.55 -737.65 1222.75 -743.0 1215.5 -743.0 L1193.0 -744.75 1170.5 -746.5 Q1141.15 -746.5 1131.05 -743.6 1120.65 -740.6 1120.5 -731.75 1116.6 -729.7 1113.75 -725.9 1110.15 -721.1 1110.15 -715.7 1110.15 -712.95 1110.75 -710.8 L1101.75 -711.85 Q1088.8 -712.75 1080.15 -709.95 1070.35 -706.8 1070.35 -699.9 1070.35 -698.0 1070.75 -697.1 L1072.05 -695.15 Q1066.0 -692.9 1064.05 -690.15 1062.7 -688.3 1062.7 -684.5 1062.7 -682.5 1066.4 -679.0 1070.05 -675.55 1070.05 -674.75 1070.05 -673.5 1068.95 -670.1 1067.85 -666.85 1067.2 -665.95 1053.35 -668.85 1044.85 -661.95 1041.9 -659.55 1040.1 -656.35 1038.7 -653.8 1038.7 -652.3 L1038.85 -650.95 Q1039.1 -649.35 1039.9 -648.0 1042.45 -643.7 1049.05 -643.7 1050.35 -643.7 1053.7 -646.15 1057.05 -648.6 1061.0 -648.6 1064.1 -648.6 1071.65 -645.25 L1087.9 -637.95 Q1112.75 -627.3 1132.6 -627.3 1139.9 -627.3 1142.8 -631.6 1144.5 -634.05 1144.5 -637.5 L1144.25 -640.5 1143.35 -642.55 Q1151.2 -644.65 1154.05 -647.05 1156.75 -649.35 1156.75 -653.6 1156.75 -657.35 1133.7 -668.35 L1136.8 -669.0 Q1142.8 -670.55 1142.8 -673.75 1142.8 -675.4 1142.4 -676.0 L1141.95 -676.75 Q1123.85 -680.3 1113.1 -681.7 L1100.3 -682.5 1098.65 -682.95 Q1121.75 -686.85 1126.7 -688.75 1130.35 -690.2 1131.8 -692.3 1133.15 -694.25 1133.15 -697.75 L1133.05 -698.8 Q1140.9 -697.85 1151.3 -698.45 1166.25 -699.3 1168.4 -698.9 L1181.1 -695.8 Q1192.95 -693.15 1200.15 -693.15 1211.3 -693.15 1218.75 -695.3 1226.15 -697.45 1234.65 -697.45 1239.7 -697.45 1242.35 -696.5 L1246.35 -694.35 Q1251.8 -691.25 1267.3 -691.25 1271.25 -691.25 1275.0 -694.45 1276.95 -696.1 1278.9 -698.6 1280.15 -699.95 1280.85 -700.15 L1283.25 -700.0 Q1289.65 -699.15 1300.2 -700.35 1311.15 -701.55 1316.05 -706.35 1319.45 -709.7 1319.45 -714.0 L1319.05 -717.3 Q1317.85 -720.45 1313.85 -720.45 1311.15 -720.45 1309.35 -718.85 L1306.3 -715.6 Q1301.75 -711.15 1290.3 -712.55 L1290.3 -713.4 Q1290.7 -717.3 1288.8 -720.25 1285.4 -725.35 1275.75 -725.35 1259.0 -725.35 1253.45 -721.05 1249.15 -717.75 1250.75 -710.55 1248.9 -711.35 1242.85 -712.4 L1234.8 -713.4 Q1224.0 -713.4 1219.1 -711.5 1214.2 -709.65 1200.15 -709.65 1194.7 -709.65 1181.2 -713.45 1167.7 -717.3 1155.75 -717.3 L1143.45 -716.65 Q1132.6 -716.15 1129.15 -716.85 L1131.1 -720.6 1159.7 -717.8 1180.5 -716.5 Q1201.85 -716.5 1216.45 -722.05 M1051.75 -949.35 L1044.3 -948.3 Q1042.5 -948.3 1042.45 -948.65 L1042.75 -949.0 1042.7 -950.75 1051.75 -949.35 M409.65 -716.8 L398.65 -719.0 Q404.1 -717.1 409.65 -716.8 M2528.75 -715.25 Q2528.25 -714.55 2528.25 -714.0 2523.3 -714.4 2520.05 -713.9 L2519.6 -714.85 2518.05 -717.85 Q2522.15 -717.0 2524.1 -718.6 L2529.7 -716.55 2528.75 -715.25 M2453.4 -641.95 L2452.6 -643.0 2450.3 -640.95 2453.4 -641.95 M2314.9 -679.0 Q2316.05 -677.4 2319.1 -676.75 2311.6 -676.85 2306.3 -677.95 2303.35 -678.55 2299.85 -679.9 2312.1 -683.55 2313.65 -681.45 L2314.9 -679.0 M2269.55 -729.5 Q2272.25 -732.25 2272.25 -736.7 2272.25 -740.1 2267.25 -746.0 2262.35 -751.75 2256.25 -755.75 2249.45 -760.2 2245.2 -759.65 2240.2 -758.95 2240.2 -751.2 2240.2 -748.55 2243.15 -745.4 2245.0 -743.45 2250.4 -738.4 L2249.7 -737.1 Q2249.25 -736.35 2249.25 -735.85 2239.4 -737.4 2227.55 -729.45 2215.15 -721.1 2211.7 -709.1 2203.5 -710.45 2197.75 -712.6 L2189.25 -716.0 Q2178.75 -719.6 2149.2 -719.6 2129.75 -719.6 2122.8 -716.25 2117.8 -713.85 2118.45 -708.6 L2119.1 -705.2 2114.3 -702.7 Q2112.2 -701.6 2111.0 -700.65 2111.65 -702.9 2111.65 -704.65 2111.65 -707.75 2109.25 -711.4 2105.35 -717.3 2097.45 -717.3 2090.0 -717.3 2083.35 -711.3 L2078.6 -707.2 Q2075.9 -705.35 2073.15 -705.35 L2061.45 -706.65 2049.7 -707.95 Q2040.0 -707.95 2037.95 -704.35 2037.3 -703.2 2037.35 -701.5 L2037.5 -699.45 Q2032.4 -700.2 2009.9 -697.55 1988.6 -695.0 1986.15 -694.0 1983.3 -692.8 1981.4 -690.05 L1978.55 -684.95 Q1974.7 -678.75 1964.75 -678.75 1963.0 -678.75 1962.8 -679.3 1962.9 -680.0 1962.6 -680.35 L1962.6 -685.95 1962.3 -691.55 1957.7 -692.4 Q1951.55 -690.65 1951.55 -677.2 L1951.95 -675.1 Q1952.6 -672.85 1953.75 -671.0 1957.45 -665.1 1965.05 -665.1 1966.35 -665.1 1972.8 -666.9 L1979.25 -668.7 Q1980.55 -668.7 1981.7 -666.45 1984.65 -664.25 1994.65 -664.25 1997.65 -664.25 1999.9 -665.6 L2004.15 -668.5 Q2010.8 -672.75 2025.15 -672.75 L2054.9 -667.4 Q2076.25 -667.4 2083.35 -671.6 2087.5 -674.05 2087.5 -679.75 L2087.35 -682.4 2086.95 -683.5 2089.8 -683.5 2091.85 -680.6 Q2094.05 -677.95 2095.85 -677.6 L2106.9 -677.35 Q2132.45 -677.35 2136.55 -688.2 2137.85 -691.7 2137.0 -696.7 L2136.7 -698.3 2139.45 -699.8 Q2143.55 -701.75 2146.6 -701.75 2167.05 -701.75 2170.6 -699.9 2172.5 -698.9 2174.0 -698.65 L2186.15 -698.05 2188.25 -698.1 2190.05 -697.4 Q2198.7 -693.95 2211.7 -692.0 L2221.8 -692.0 Q2227.25 -694.3 2229.6 -698.15 2231.4 -701.05 2231.1 -703.8 2232.4 -703.4 2239.3 -699.35 2247.3 -695.45 2255.4 -695.45 2264.35 -695.45 2267.75 -700.6 2269.65 -703.5 2269.65 -707.95 2269.65 -711.9 2268.55 -713.8 2266.45 -717.45 2259.15 -721.05 L2269.55 -729.5 M2108.8 -694.6 L2108.8 -695.15 2108.85 -694.6 2108.8 -694.6 M2118.25 -616.25 L2127.05 -616.3 2137.75 -616.75 2140.25 -617.25 2123.75 -617.75 2118.25 -616.25 M1790.4 -668.7 Q1793.25 -669.8 1793.25 -673.0 1793.25 -674.45 1789.1 -677.7 1784.9 -681.0 1780.05 -683.2 1766.8 -689.25 1766.8 -679.65 L1766.9 -677.6 Q1767.25 -675.4 1768.4 -673.6 1771.95 -667.85 1782.05 -667.85 1788.15 -667.85 1790.4 -668.7 M1801.7 -710.0 Q1795.55 -712.2 1785.5 -711.1 1776.75 -710.1 1769.25 -707.25 1761.9 -704.45 1761.9 -702.2 1761.8 -701.65 1761.95 -701.0 1762.25 -699.6 1763.6 -698.5 1767.75 -695.1 1780.45 -695.75 1787.0 -696.05 1790.35 -692.55 1792.25 -690.6 1793.1 -690.1 1795.0 -688.95 1798.0 -688.95 1804.15 -688.95 1807.1 -693.55 1809.05 -696.65 1809.05 -700.35 1809.05 -707.35 1801.7 -710.0 M2056.05 -683.5 L2054.3 -683.2 2044.75 -685.1 2036.2 -686.4 2037.05 -686.95 Q2039.05 -688.2 2040.0 -690.05 L2040.95 -692.4 Q2041.75 -691.2 2047.95 -688.4 2054.35 -685.5 2056.05 -683.5 M1968.1 -707.0 Q1967.25 -705.75 1967.25 -704.25 1967.25 -697.1 1979.0 -697.35 L1986.5 -697.1 Q1994.4 -697.1 2001.25 -699.9 2008.5 -702.85 2008.5 -706.75 2008.5 -710.25 2005.75 -712.0 2002.25 -714.25 1996.25 -711.1 1987.6 -706.55 1984.4 -707.95 L1980.65 -709.4 Q1977.6 -710.05 1972.5 -709.35 1969.45 -708.95 1968.1 -707.0 M1423.8 -683.35 Q1423.8 -690.5 1418.25 -688.2 1414.45 -686.6 1408.75 -681.05 1400.8 -673.45 1390.3 -672.55 L1384.85 -671.85 Q1382.85 -671.1 1382.85 -668.25 1382.85 -665.75 1385.4 -663.95 1389.0 -661.35 1396.8 -661.35 1404.2 -661.35 1414.45 -671.0 1423.8 -679.8 1423.8 -683.35 M1347.95 -704.7 Q1342.6 -702.9 1337.35 -700.25 1332.55 -697.75 1332.55 -697.15 1332.55 -694.2 1334.9 -692.85 1337.65 -691.25 1344.45 -691.25 1351.65 -691.25 1357.6 -694.9 1363.3 -698.35 1363.3 -702.2 1363.3 -709.85 1347.95 -704.7 M1531.8 -665.95 Q1521.55 -665.95 1509.4 -670.8 1501.95 -673.8 1490.2 -680.35 1479.85 -686.15 1476.85 -687.0 1471.85 -688.4 1471.85 -683.2 1471.85 -681.5 1475.3 -676.9 1479.45 -671.4 1485.5 -666.55 1503.0 -652.6 1525.45 -652.6 1535.2 -652.6 1546.6 -657.95 1557.65 -663.15 1557.65 -667.0 1557.65 -668.4 1556.8 -670.15 1555.4 -673.0 1552.5 -673.0 1548.2 -673.0 1541.2 -669.45 1534.2 -665.95 1531.8 -665.95 M1676.35 -658.75 L1671.5 -655.45 Q1666.95 -652.8 1658.0 -650.0 1659.35 -651.35 1662.45 -653.5 1664.15 -654.7 1664.15 -655.9 1664.15 -660.85 1651.4 -663.1 L1623.4 -665.95 Q1604.1 -667.6 1595.4 -670.2 1582.65 -674.05 1582.65 -681.65 1582.65 -689.95 1579.3 -693.9 1576.25 -697.5 1571.9 -696.35 1567.5 -695.25 1564.45 -690.2 1561.1 -684.6 1561.1 -676.6 1561.1 -669.85 1562.0 -668.25 1563.1 -666.25 1570.45 -657.35 1567.85 -654.5 1567.85 -651.0 1567.85 -646.05 1576.05 -640.45 1585.95 -633.65 1600.05 -633.65 1608.0 -633.65 1617.85 -638.6 1627.7 -643.55 1634.15 -643.55 1635.95 -643.55 1638.3 -641.85 L1643.2 -638.15 Q1650.95 -632.75 1662.15 -632.75 1670.1 -632.75 1678.6 -638.7 L1685.05 -642.95 Q1688.75 -644.95 1692.35 -645.25 1718.4 -647.55 1725.1 -649.0 1734.3 -650.95 1734.3 -655.6 1734.3 -657.7 1733.4 -659.65 1731.75 -663.4 1727.55 -663.4 L1715.65 -662.1 1703.7 -660.8 Q1688.9 -660.8 1683.45 -660.35 1678.5 -660.0 1676.35 -658.75 M1623.3 -721.75 L1623.15 -721.6 Q1644.75 -716.45 1644.75 -711.4 1644.75 -709.0 1642.65 -707.25 1640.35 -705.35 1636.85 -705.35 1628.95 -705.35 1619.3 -707.05 L1620.0 -705.1 1641.5 -701.3 Q1665.15 -696.5 1669.05 -690.9 1674.85 -691.5 1678.75 -694.3 1682.75 -697.15 1682.75 -700.25 1682.75 -702.7 1681.6 -704.8 1680.15 -707.4 1677.25 -708.75 L1673.15 -706.55 Q1669.75 -704.75 1666.75 -704.75 1657.0 -704.75 1647.65 -706.75 L1647.0 -706.9 Q1647.7 -709.25 1647.75 -711.75 1647.75 -718.05 1643.2 -721.75 1639.15 -725.05 1633.25 -725.05 1627.35 -725.05 1623.3 -721.75 M1935.55 -671.45 Q1930.85 -684.25 1926.5 -684.1 1923.15 -683.9 1921.4 -682.0 1920.55 -681.0 1919.15 -677.9 1917.95 -675.1 1916.5 -673.95 1914.25 -672.15 1910.0 -672.15 L1898.1 -673.0 Q1894.6 -672.75 1894.6 -666.7 L1894.8 -664.8 Q1895.25 -662.75 1896.65 -661.05 1900.95 -655.75 1912.55 -655.75 1921.95 -655.75 1929.25 -661.65 1935.55 -666.8 1935.55 -671.45" fill="#a5a289" fill-rule="evenodd" stroke="none"/>
    <path d="M2362.35 -888.35 L2370.35 -887.5 2387.1 -886.75 2387.65 -883.3 Q2387.65 -878.0 2385.5 -877.65 L2384.0 -877.55 Q2383.35 -877.4 2383.35 -876.3 2383.35 -874.65 2381.25 -872.85 2378.1 -870.15 2372.55 -872.25 2375.9 -869.4 2376.3 -867.95 L2374.95 -866.35 Q2373.8 -865.35 2372.0 -865.35 L2363.2 -865.9 2363.95 -864.9 Q2363.85 -863.35 2363.3 -862.85 2362.85 -862.4 2361.65 -862.25 L2360.65 -862.2 Q2356.6 -862.2 2349.6 -867.45 2346.75 -869.55 2345.15 -871.15 L2344.75 -871.0 Q2334.75 -875.45 2325.7 -883.35 2321.95 -886.65 2318.85 -890.1 L2312.4 -895.85 Q2306.35 -901.5 2305.45 -903.15 2303.0 -907.6 2295.55 -927.85 L2292.15 -937.0 Q2285.95 -940.95 2279.0 -949.45 2276.35 -952.7 2273.9 -956.2 L2271.65 -958.35 Q2254.75 -979.6 2241.35 -992.85 2219.95 -1014.05 2203.4 -1017.2 2199.9 -1015.65 2195.75 -1014.25 2168.55 -1004.95 2121.75 -1003.25 L2122.6 -1002.45 2124.75 -1000.05 Q2124.35 -998.35 2123.9 -997.95 2123.35 -997.45 2117.7 -996.6 2121.3 -994.3 2121.3 -990.0 L2121.15 -988.1 2120.6 -987.25 2110.8 -986.4 Q2111.1 -985.65 2111.1 -984.1 L2111.1 -983.95 2113.75 -984.45 2116.85 -984.8 2119.65 -984.35 2121.15 -983.35 Q2121.3 -984.95 2121.3 -982.1 2121.3 -979.6 2110.05 -976.35 2095.85 -972.25 2093.85 -971.15 2094.15 -970.55 2095.2 -970.1 2096.55 -969.45 2098.45 -969.45 2103.25 -969.45 2107.55 -972.5 2111.85 -975.6 2115.1 -975.6 L2118.55 -975.2 2118.85 -974.8 Q2119.15 -974.55 2119.15 -972.9 2119.15 -969.65 2113.8 -966.95 L2103.2 -962.65 Q2105.2 -962.45 2106.05 -960.6 2108.5 -958.85 2119.15 -958.95 L2119.6 -957.9 2120.3 -956.65 Q2118.25 -953.5 2112.4 -953.05 L2106.65 -953.2 Q2086.1 -953.2 2078.15 -960.65 2073.7 -964.85 2073.7 -971.15 2073.7 -972.05 2074.8 -975.0 2075.85 -977.95 2075.85 -979.05 2075.85 -986.8 2076.65 -990.05 2076.95 -991.3 2077.4 -992.35 2074.4 -995.55 2068.25 -999.0 2062.2 -1002.35 2060.45 -1003.75 2058.25 -1005.4 2057.45 -1007.05 2049.25 -1009.0 2042.65 -1011.8 2029.75 -1017.3 2027.0 -1024.35 L2021.0 -1025.95 Q2004.3 -1030.15 1981.55 -1032.25 L1965.35 -1032.25 Q1960.6 -1028.8 1955.3 -1025.6 L1954.5 -1025.1 1954.55 -1023.5 Q1954.55 -1018.6 1954.05 -1016.6 1953.4 -1014.0 1951.15 -1011.7 L1929.8 -996.15 Q1932.75 -992.65 1935.5 -988.2 1939.0 -982.5 1939.0 -979.9 1939.0 -977.25 1935.85 -972.3 1933.75 -968.95 1931.35 -967.4 1932.1 -965.65 1932.1 -963.95 1932.1 -960.2 1921.4 -954.1 1910.0 -947.6 1900.8 -947.6 1891.3 -947.6 1886.25 -949.95 1881.15 -952.3 1877.35 -952.3 1873.9 -952.3 1856.6 -945.6 1839.3 -938.95 1830.8 -938.95 1805.3 -938.95 1801.1 -948.35 1800.05 -950.65 1800.2 -953.8 1791.5 -949.55 1781.6 -949.9 L1780.9 -950.05 Q1780.2 -950.3 1780.2 -952.05 1780.2 -955.45 1791.0 -958.3 L1801.45 -961.15 1802.05 -963.7 Q1783.0 -962.5 1770.45 -970.9 1766.05 -973.85 1763.3 -977.4 1761.05 -980.35 1761.05 -981.8 L1761.15 -983.45 Q1740.75 -986.4 1726.15 -986.4 1717.95 -986.4 1704.6 -979.35 L1695.1 -974.35 1692.55 -973.15 Q1693.45 -971.2 1693.35 -969.0 1693.35 -966.0 1692.9 -964.8 1691.75 -961.6 1687.45 -959.25 L1685.1 -958.1 Q1689.9 -955.5 1690.2 -951.05 1706.25 -951.6 1714.15 -947.2 1720.4 -943.75 1720.4 -938.4 1720.4 -935.0 1719.95 -934.05 1719.35 -932.75 1717.1 -932.5 L1694.95 -932.75 Q1682.35 -932.75 1674.3 -930.75 1666.3 -928.75 1662.0 -928.75 1644.2 -928.75 1637.15 -937.5 1633.4 -942.15 1633.4 -947.85 1633.4 -951.3 1633.75 -952.55 1628.65 -953.6 1627.6 -958.65 1627.25 -960.35 1627.35 -962.2 L1618.1 -965.0 1614.25 -966.4 Q1613.25 -961.05 1610.75 -958.15 1605.7 -952.3 1589.4 -952.3 1571.0 -952.3 1567.3 -955.15 L1565.1 -957.15 Q1563.55 -958.05 1559.4 -958.05 1557.55 -958.05 1549.9 -955.15 1542.2 -952.3 1541.1 -952.3 L1526.05 -952.6 Q1519.55 -954.3 1519.55 -961.65 1519.55 -965.7 1521.5 -967.65 1525.6 -971.65 1538.55 -972.3 L1529.6 -978.5 Q1521.15 -983.65 1515.55 -983.65 1491.9 -983.65 1481.85 -974.75 1478.75 -972.0 1476.4 -967.75 1473.9 -963.3 1473.4 -962.8 1480.7 -958.0 1485.45 -953.35 1489.55 -950.65 1504.45 -948.3 1512.25 -947.1 1516.9 -940.85 1520.4 -936.2 1520.4 -932.35 1520.4 -928.7 1518.35 -918.35 1515.65 -905.0 1512.35 -902.0 1508.75 -898.7 1497.55 -896.7 1486.7 -894.75 1483.75 -891.5 1480.5 -888.8 1476.55 -886.2 1468.7 -881.0 1464.95 -881.0 1460.6 -881.0 1457.85 -882.25 L1454.45 -884.45 1425.1 -885.05 Q1422.9 -884.95 1418.25 -886.55 L1412.9 -888.2 Q1405.9 -888.2 1405.05 -886.3 L1404.5 -884.3 Q1403.95 -882.9 1402.4 -881.9 1400.35 -880.5 1388.3 -879.3 L1359.0 -877.0 1351.35 -877.0 Q1333.05 -875.55 1325.9 -886.6 1322.05 -892.55 1322.05 -900.55 1322.05 -906.55 1326.2 -910.5 1332.85 -916.75 1349.35 -917.4 L1356.0 -923.85 Q1358.55 -926.45 1362.75 -926.45 1366.2 -926.45 1367.7 -923.5 1368.6 -921.75 1368.6 -920.0 1368.6 -917.25 1364.95 -913.9 1361.3 -910.6 1361.3 -910.2 1361.3 -908.95 1361.8 -905.5 1362.25 -902.25 1362.15 -900.45 1364.7 -901.05 1368.05 -903.45 L1374.5 -908.0 Q1384.15 -913.95 1399.25 -913.35 1399.25 -916.3 1401.3 -923.4 L1402.5 -927.1 1400.4 -924.15 Q1392.05 -924.15 1388.65 -925.9 1386.0 -927.2 1385.45 -930.35 1385.15 -932.15 1384.8 -936.4 1383.95 -940.25 1380.55 -943.0 L1366.1 -952.6 1362.85 -954.95 Q1356.55 -952.05 1348.65 -952.05 1333.95 -952.05 1324.2 -959.45 1316.95 -966.85 1314.7 -966.85 1310.35 -966.85 1300.55 -963.4 L1294.75 -961.55 1299.3 -957.05 Q1303.05 -953.5 1303.05 -951.15 1303.05 -946.15 1300.45 -941.25 1296.6 -933.9 1288.85 -933.9 1285.6 -933.9 1278.0 -939.8 L1278.05 -939.1 Q1278.05 -935.75 1276.3 -933.7 1272.35 -929.05 1260.65 -929.05 L1252.1 -931.35 1243.55 -933.65 Q1241.65 -933.65 1239.7 -932.25 L1235.5 -929.4 Q1228.05 -925.55 1211.2 -927.0 1210.95 -909.5 1170.55 -909.5 1165.55 -909.5 1161.0 -911.4 1156.5 -913.35 1155.6 -913.35 1144.8 -913.35 1138.8 -910.95 1134.7 -909.35 1131.45 -905.75 1127.6 -901.5 1125.95 -900.5 1122.1 -898.15 1114.9 -898.15 1108.35 -898.15 1100.8 -902.15 1092.75 -906.35 1091.6 -911.2 1089.6 -910.35 1086.45 -909.45 1082.6 -908.35 1080.7 -908.35 1073.2 -908.35 1070.35 -911.85 1069.45 -912.95 1068.85 -914.6 L1068.05 -916.55 1064.1 -915.05 Q1061.6 -914.25 1059.7 -914.25 1056.45 -914.25 1048.85 -918.15 1040.65 -922.4 1037.85 -922.85 1034.85 -923.35 1027.15 -926.7 L1019.45 -929.9 Q1017.25 -929.9 1008.0 -926.65 998.7 -923.45 993.3 -923.45 986.65 -923.45 984.55 -927.65 983.65 -929.4 983.65 -932.75 983.65 -936.35 985.0 -937.85 987.4 -940.6 995.9 -943.0 993.45 -946.65 990.05 -950.0 988.1 -951.95 988.1 -953.6 988.1 -957.55 990.9 -959.85 L988.15 -962.8 Q984.75 -966.55 981.7 -970.25 L977.1 -967.85 Q972.05 -965.1 967.15 -965.1 964.75 -965.1 961.25 -966.7 L959.25 -967.55 Q955.05 -960.15 940.4 -943.6 919.6 -920.0 913.95 -920.0 L912.45 -918.85 Q910.45 -917.5 906.6 -916.55 L896.45 -915.5 885.5 -914.8 Q863.5 -914.8 855.2 -919.45 850.5 -922.05 850.15 -926.65 L849.3 -927.0 Q841.9 -930.3 841.9 -936.2 841.9 -942.2 845.0 -942.95 L849.9 -943.2 858.0 -943.0 Q897.3 -943.0 910.7 -951.1 L914.25 -953.65 910.3 -952.5 Q914.8 -959.45 921.2 -964.5 L922.2 -963.5 922.5 -963.2 928.05 -970.3 Q930.0 -972.45 947.0 -986.35 963.1 -1000.1 963.1 -1004.2 963.1 -1007.95 965.5 -1010.45 L965.45 -1010.45 Q966.25 -1013.2 969.45 -1014.6 L975.7 -1016.95 Q980.8 -1018.85 985.35 -1021.0 988.7 -1022.6 990.15 -1024.7 L990.75 -1025.85 Q989.75 -1027.6 989.75 -1030.25 989.75 -1030.65 994.15 -1035.95 999.4 -1042.2 1003.9 -1045.95 1018.0 -1057.95 1018.0 -1040.25 1018.0 -1038.35 1016.75 -1036.9 1015.65 -1035.65 1012.65 -1033.65 1015.35 -1031.95 1017.7 -1028.95 1022.85 -1026.35 1028.55 -1024.55 1034.6 -1022.65 1045.55 -1020.7 1057.4 -1018.55 1062.8 -1017.05 1072.65 -1014.3 1081.0 -1009.5 1094.35 -1010.5 1120.2 -1013.8 L1146.75 -1017.5 Q1151.4 -1018.6 1165.0 -1027.75 L1169.85 -1030.85 1169.9 -1031.0 Q1171.2 -1033.25 1175.75 -1036.25 L1172.05 -1039.7 Q1170.5 -1041.25 1170.5 -1042.5 1170.5 -1044.45 1173.9 -1050.3 1178.0 -1057.45 1182.25 -1058.25 L1228.25 -1058.25 1231.2 -1057.35 1234.0 -1056.5 1310.25 -1056.25 1331.7 -1053.4 Q1342.5 -1052.5 1378.85 -1052.5 1388.05 -1052.5 1396.7 -1054.1 1405.3 -1055.75 1415.25 -1055.75 1429.1 -1055.75 1433.45 -1054.55 L1433.95 -1054.4 Q1449.95 -1057.5 1472.85 -1053.5 L1502.95 -1051.5 Q1514.0 -1049.5 1513.5 -1042.15 1519.8 -1041.7 1522.75 -1038.55 1524.9 -1036.3 1524.9 -1033.4 1524.9 -1031.25 1523.4 -1029.05 1521.15 -1025.8 1516.4 -1024.75 L1517.85 -1022.45 Q1518.4 -1021.2 1518.4 -1019.3 1518.4 -1018.75 1516.4 -1012.7 L1514.4 -1006.5 Q1514.4 -1005.05 1514.05 -1003.75 1524.1 -1003.6 1531.15 -1000.45 1535.0 -998.75 1539.25 -995.55 L1546.45 -989.85 Q1549.35 -987.7 1565.05 -984.15 1579.15 -979.8 1578.35 -972.3 L1578.05 -972.0 1591.15 -971.75 Q1591.75 -973.3 1592.1 -976.7 1592.75 -979.7 1595.15 -981.45 1602.0 -986.4 1629.65 -986.4 1654.15 -986.4 1659.1 -981.15 L1662.25 -977.55 Q1662.9 -977.1 1663.85 -976.75 1663.6 -977.6 1663.6 -978.5 1663.6 -983.05 1667.35 -984.95 1669.6 -986.1 1676.6 -987.2 1684.4 -988.45 1688.65 -990.05 1695.75 -992.7 1700.55 -998.2 L1700.85 -998.45 Q1685.75 -1000.45 1683.75 -1003.3 1683.2 -1004.1 1682.6 -1007.05 1681.95 -1010.2 1680.4 -1012.85 1678.9 -1015.35 1677.05 -1019.5 1674.4 -1025.25 1674.4 -1027.35 1674.4 -1030.4 1675.5 -1031.75 1676.45 -1032.9 1679.25 -1033.8 L1686.0 -1036.15 Q1674.5 -1040.15 1671.8 -1040.15 1669.1 -1040.15 1666.55 -1037.7 1664.0 -1035.25 1662.75 -1035.25 L1652.6 -1037.55 1641.9 -1039.7 1642.6 -1040.2 Q1648.55 -1044.2 1654.15 -1046.8 1648.15 -1045.5 1643.35 -1044.0 L1642.15 -1044.05 1627.6 -1044.5 1627.35 -1045.15 Q1627.1 -1045.65 1627.1 -1047.1 1627.1 -1048.45 1627.6 -1049.55 1628.8 -1052.2 1632.9 -1053.4 1638.15 -1054.95 1650.1 -1054.55 L1665.45 -1053.7 Q1674.5 -1058.65 1697.25 -1059.5 L1729.5 -1059.5 1729.3 -1059.4 Q1727.3 -1058.4 1726.6 -1056.25 1743.85 -1056.15 1766.95 -1053.1 1788.95 -1050.25 1806.3 -1046.1 1804.4 -1047.3 1803.45 -1048.65 1802.9 -1049.4 1802.0 -1051.9 1800.75 -1055.55 1793.25 -1056.7 L1760.4 -1059.5 1823.25 -1059.5 1828.25 -1058.5 1883.6 -1057.8 1911.25 -1057.5 Q1923.0 -1057.5 1930.3 -1059.95 L1939.4 -1064.25 Q1943.8 -1066.4 1949.3 -1065.95 1956.55 -1065.35 1970.75 -1060.5 1979.55 -1059.5 1985.0 -1057.15 1986.9 -1054.0 1994.05 -1050.35 L1995.05 -1049.25 1995.25 -1049.05 2015.65 -1049.2 Q2029.75 -1048.4 2038.25 -1043.75 2043.3 -1041.0 2052.0 -1034.15 2061.35 -1028.0 2075.3 -1025.0 2094.15 -1020.9 2126.45 -1020.9 L2149.95 -1021.8 2140.05 -1026.55 2156.55 -1024.15 2159.15 -1022.75 Q2177.6 -1025.1 2189.75 -1030.5 2192.15 -1031.6 2202.1 -1037.15 2207.5 -1040.15 2211.7 -1040.15 2217.15 -1040.15 2219.05 -1036.0 L2219.8 -1033.6 Q2224.4 -1031.55 2229.15 -1027.95 2237.6 -1021.55 2244.85 -1011.7 2250.95 -1003.35 2250.95 -1000.9 2250.95 -999.05 2264.7 -985.35 L2277.7 -972.1 Q2281.9 -968.75 2288.4 -961.05 L2292.4 -956.2 Q2299.0 -950.6 2307.3 -946.3 2311.5 -944.1 2317.15 -941.8 2321.1 -940.25 2321.1 -939.95 L2320.7 -935.25 2320.25 -931.5 2320.0 -913.2 2319.15 -907.45 2323.2 -902.8 Q2326.8 -898.55 2328.0 -897.85 L2328.15 -901.6 2328.65 -902.2 Q2329.3 -902.85 2331.05 -902.85 2332.8 -902.85 2339.35 -898.2 L2346.7 -892.95 Q2351.9 -889.85 2362.35 -888.35 M2660.8 -744.0 L2688.65 -715.55 Q2733.1 -668.65 2733.1 -657.5 2733.1 -656.25 2731.95 -654.05 2730.6 -651.45 2729.2 -651.45 2725.85 -651.45 2723.35 -653.6 L2720.0 -656.9 Q2719.4 -655.25 2714.85 -652.0 2710.4 -648.85 2708.95 -648.85 2705.95 -648.85 2703.9 -651.55 2702.15 -654.7 2701.35 -655.5 L2698.7 -653.15 Q2696.8 -651.45 2694.15 -651.45 2690.95 -651.45 2689.5 -652.95 L2688.25 -654.9 2687.9 -654.55 2684.45 -650.3 Q2681.55 -646.55 2680.2 -646.55 2671.7 -646.55 2668.8 -651.15 2667.55 -653.2 2667.55 -656.35 2667.55 -658.95 2668.9 -661.9 2669.05 -666.3 2670.6 -669.85 2672.3 -673.85 2672.3 -681.65 2672.3 -688.9 2670.55 -692.7 2669.2 -695.75 2665.15 -699.3 L2662.95 -701.25 2662.95 -702.2 Q2662.95 -702.9 2658.3 -709.6 L2651.6 -718.85 Q2647.4 -724.0 2641.65 -724.9 L2631.25 -724.45 Q2624.5 -723.5 2621.2 -724.3 2615.9 -725.55 2612.35 -731.4 2609.5 -734.15 2600.95 -733.9 L2596.35 -733.55 2595.95 -733.6 2595.95 -733.5 Q2590.0 -732.8 2583.5 -730.9 2575.5 -728.55 2569.95 -725.35 L2569.25 -725.2 Q2564.5 -724.15 2561.25 -722.1 2558.75 -720.55 2558.0 -718.95 2555.85 -718.25 2555.85 -713.7 2555.85 -711.0 2557.7 -708.35 2553.55 -708.15 2553.55 -704.05 2553.6 -706.25 2564.7 -696.65 L2565.25 -696.15 Q2566.65 -692.65 2566.65 -690.7 2566.65 -689.05 2561.7 -682.2 2556.7 -675.35 2556.7 -672.75 L2556.75 -671.8 Q2550.15 -669.55 2541.6 -669.55 2535.85 -669.55 2531.5 -669.8 2527.6 -672.7 2516.25 -672.05 2509.7 -671.65 2504.45 -670.15 L2501.4 -669.1 2490.7 -670.4 Q2489.15 -669.2 2487.8 -666.4 L2485.55 -660.8 Q2483.25 -656.55 2480.95 -655.6 2479.4 -654.95 2476.4 -655.65 L2470.6 -656.4 Q2466.65 -656.1 2462.25 -653.2 L2449.2 -653.45 Q2447.75 -653.45 2447.85 -652.15 2447.9 -650.9 2446.45 -650.9 2441.4 -650.9 2437.05 -653.55 2432.7 -656.2 2424.75 -656.2 2421.55 -656.2 2413.95 -653.75 L2406.75 -652.7 2385.1 -650.9 2375.65 -651.6 2371.7 -652.3 Q2370.3 -652.3 2368.1 -651.0 2365.95 -649.75 2364.5 -649.75 2337.75 -649.75 2330.45 -656.3 2326.2 -660.1 2329.0 -665.1 2327.8 -668.45 2327.6 -668.25 2325.95 -666.85 2323.7 -666.85 2297.9 -666.85 2287.05 -672.5 2280.7 -675.85 2280.7 -679.9 2280.7 -684.3 2285.6 -687.25 2292.25 -691.25 2306.6 -691.25 2311.05 -691.25 2313.65 -689.85 2316.55 -688.25 2317.95 -688.1 L2326.6 -688.65 Q2333.9 -688.95 2335.65 -687.55 2337.55 -686.05 2337.9 -684.35 2337.95 -682.65 2338.15 -681.9 2338.85 -679.4 2349.3 -677.6 2367.7 -674.55 2372.75 -672.65 2382.95 -668.8 2380.5 -661.1 2405.6 -664.65 2418.7 -668.2 2427.9 -670.7 2429.95 -670.7 2431.55 -670.7 2435.35 -668.45 2439.1 -666.25 2439.55 -666.25 2457.4 -666.25 2469.3 -669.0 2475.4 -670.4 2479.1 -672.15 2464.55 -674.65 2464.55 -677.05 2464.55 -680.25 2468.7 -680.9 L2472.05 -681.05 2472.05 -681.2 Q2472.05 -683.75 2473.05 -685.0 2474.25 -686.4 2477.1 -686.4 2480.65 -686.4 2481.8 -684.8 2482.9 -683.2 2487.55 -683.2 2489.8 -683.2 2490.05 -684.1 L2490.8 -686.0 Q2493.55 -688.7 2513.75 -688.1 2514.7 -693.65 2523.0 -695.3 L2523.75 -695.45 2521.35 -698.0 Q2518.35 -701.4 2515.95 -705.3 2514.0 -708.45 2514.0 -709.1 2514.0 -711.05 2515.55 -712.25 2509.95 -717.4 2499.35 -729.05 2485.6 -744.2 2485.4 -740.25 2485.5 -743.95 2491.2 -743.25 L2491.7 -743.2 2492.0 -743.15 2491.15 -743.5 Q2487.35 -745.35 2484.65 -748.0 2479.95 -752.7 2479.95 -757.4 2479.95 -759.7 2480.8 -760.9 2482.0 -762.55 2485.0 -762.55 2485.95 -762.55 2498.2 -758.05 2510.9 -753.4 2517.2 -752.8 L2526.55 -752.8 2528.85 -753.5 Q2522.7 -754.45 2519.65 -757.65 2517.45 -759.95 2517.45 -762.45 2517.45 -765.2 2519.2 -766.3 2520.5 -767.15 2523.1 -767.15 2525.75 -767.15 2539.9 -762.85 L2554.25 -758.55 Q2569.7 -758.55 2582.4 -767.45 2588.65 -771.8 2591.6 -775.6 2578.85 -790.05 2555.3 -813.7 2534.7 -834.4 2527.65 -842.5 2516.15 -845.7 2501.5 -845.5 L2502.2 -846.85 Q2502.4 -847.35 2502.85 -847.65 L2503.1 -847.8 Q2504.85 -848.7 2514.9 -849.25 2514.9 -849.6 2515.55 -850.65 L2516.6 -852.4 2513.5 -855.45 2511.85 -857.1 Q2510.7 -858.4 2510.7 -859.6 2510.7 -863.45 2513.85 -864.65 2518.0 -866.25 2525.4 -860.05 2525.5 -861.25 2526.55 -862.5 2527.9 -864.2 2530.0 -864.2 2536.7 -864.2 2577.75 -822.8 L2605.3 -794.2 2617.5 -780.95 Q2617.5 -777.8 2614.35 -776.2 L2615.8 -774.65 Q2631.15 -758.9 2645.1 -750.05 2644.3 -756.35 2643.1 -760.0 L2643.55 -760.85 2657.9 -746.85 2660.8 -744.0 M447.55 -931.75 L449.6 -932.15 452.75 -932.9 454.15 -931.75 447.55 -931.75 M1008.05 -1086.6 L1008.4 -1092.9 1009.0 -1105.75 Q1009.0 -1108.85 1010.2 -1109.25 1011.3 -1109.65 1012.9 -1107.9 1015.05 -1105.55 1016.0 -1102.75 1017.55 -1103.55 1018.7 -1103.2 1019.3 -1103.05 1019.7 -1102.6 1020.5 -1101.7 1020.5 -1099.6 L1019.5 -1093.7 Q1018.5 -1088.35 1018.5 -1086.5 1018.5 -1085.3 1017.4 -1079.45 1016.25 -1073.35 1015.75 -1072.5 L1014.25 -1072.0 Q1013.25 -1072.55 1011.5 -1079.35 L1009.75 -1074.75 Q1007.75 -1079.4 1007.75 -1082.1 L1008.05 -1086.6 M2608.45 -755.8 Q2604.3 -759.85 2602.05 -762.9 2600.4 -760.4 2600.4 -759.7 2600.4 -757.95 2601.55 -756.8 L2602.7 -755.55 2608.45 -755.8 M1333.65 -1036.55 L1300.75 -1038.0 1244.5 -1038.25 1238.5 -1039.0 1211.5 -1038.75 Q1208.85 -1037.95 1193.3 -1028.55 L1189.95 -1026.55 Q1188.3 -1020.8 1177.25 -1014.75 1166.05 -1008.55 1147.05 -1002.95 1130.15 -997.95 1112.9 -995.05 1096.1 -992.15 1088.0 -992.75 L1088.0 -992.25 1074.5 -992.25 Q1062.6 -994.6 1046.5 -995.65 L1031.35 -996.25 1030.95 -995.55 1027.4 -997.3 Q1032.25 -991.35 1032.25 -984.5 1032.25 -982.95 1031.5 -978.9 1037.2 -977.05 1040.25 -980.95 L1041.65 -983.15 1045.35 -983.25 Q1053.25 -982.95 1053.25 -978.25 1053.25 -975.3 1037.25 -970.3 L1035.05 -969.6 1034.5 -970.6 1031.1 -976.85 1030.25 -972.15 Q1030.25 -970.3 1029.4 -968.5 L1027.65 -965.7 Q1034.45 -964.2 1038.15 -961.9 L1037.8 -963.6 Q1053.75 -960.75 1056.25 -960.75 1056.9 -960.75 1067.65 -967.0 1078.4 -973.25 1081.25 -973.25 1084.45 -973.25 1086.0 -971.05 1087.0 -969.65 1087.0 -968.35 1087.0 -966.8 1073.5 -957.55 L1062.9 -950.45 Q1069.35 -949.95 1071.9 -947.1 L1074.5 -943.2 Q1076.3 -940.35 1078.25 -938.4 1095.85 -938.4 1104.2 -927.45 L1109.4 -919.95 Q1112.1 -916.55 1115.5 -916.55 1117.65 -916.55 1119.5 -918.9 1122.75 -922.95 1124.05 -924.05 1132.85 -931.6 1156.45 -931.6 1162.9 -931.6 1166.55 -929.45 1170.2 -927.3 1170.55 -927.3 1171.5 -927.3 1178.75 -928.85 L1190.25 -931.05 Q1189.55 -933.5 1190.65 -936.25 1191.45 -938.25 1193.7 -941.25 1197.3 -946.2 1211.9 -947.0 L1222.55 -947.25 1229.45 -947.85 Q1232.0 -948.65 1245.05 -954.4 1257.85 -959.8 1262.1 -959.8 1269.2 -959.8 1273.5 -953.4 1274.9 -952.95 1276.05 -951.85 1278.05 -950.0 1278.5 -950.0 L1285.4 -950.3 1289.15 -951.05 Q1283.45 -952.35 1273.1 -961.9 1262.7 -971.5 1262.7 -975.75 L1263.85 -988.4 Q1263.85 -988.95 1272.9 -998.15 L1281.95 -1007.25 Q1291.05 -1007.25 1291.55 -999.0 1291.7 -996.45 1291.05 -992.1 1290.3 -987.4 1290.3 -986.4 1312.6 -986.4 1319.5 -988.7 1321.25 -989.25 1323.15 -990.3 1324.9 -991.0 1327.95 -991.0 1336.4 -991.0 1346.35 -993.1 L1343.85 -993.8 1345.1 -998.1 Q1348.8 -996.55 1348.8 -995.0 L1348.8 -993.65 1351.9 -994.45 Q1357.9 -996.0 1374.8 -1001.6 1388.9 -1006.3 1397.3 -1007.9 1406.25 -1009.6 1414.2 -1009.2 1414.5 -1012.75 1415.1 -1015.85 L1413.8 -1017.25 Q1412.6 -1018.9 1412.6 -1021.9 L1417.05 -1031.25 1421.5 -1040.6 Q1421.5 -1042.0 1420.35 -1043.6 1419.2 -1045.15 1419.2 -1046.6 1419.2 -1048.45 1422.55 -1050.45 1425.85 -1052.5 1431.25 -1053.8 L1424.55 -1054.4 Q1413.2 -1054.4 1411.5 -1049.8 1410.9 -1048.35 1411.35 -1046.2 L1411.9 -1043.6 Q1411.9 -1037.1 1405.85 -1037.5 1398.9 -1039.05 1397.1 -1038.15 1394.05 -1036.6 1393.1 -1034.3 1392.65 -1033.25 1392.65 -1031.4 L1392.95 -1026.3 Q1393.1 -1022.4 1392.75 -1021.9 L1387.55 -1023.05 1381.4 -1024.2 Q1379.3 -1024.2 1377.45 -1023.15 L1368.95 -1023.7 1350.0 -1024.2 Q1341.3 -1024.5 1337.8 -1026.05 1333.5 -1028.0 1333.5 -1033.0 1333.5 -1034.9 1333.65 -1036.55 M1453.3 -972.0 L1452.9 -971.9 Q1452.4 -969.25 1450.3 -967.45 L1447.3 -965.4 1447.55 -965.4 Q1449.15 -965.4 1450.3 -965.85 L1452.45 -966.55 Q1452.45 -969.3 1453.3 -972.0 M1432.9 -962.9 L1432.3 -963.1 1432.15 -962.65 1432.9 -962.9 M1401.25 -953.05 Q1407.2 -945.55 1408.45 -940.45 L1408.8 -941.1 Q1411.3 -945.4 1414.1 -948.9 1409.7 -950.05 1401.25 -953.05 M1442.25 -938.1 Q1436.3 -943.35 1432.6 -944.15 1432.05 -942.5 1424.2 -931.4 1416.9 -921.1 1416.9 -918.1 1416.9 -916.35 1419.25 -915.3 1421.05 -914.5 1422.95 -914.5 1424.1 -914.5 1427.8 -917.15 1431.9 -920.05 1436.35 -920.85 L1435.9 -921.6 Q1435.75 -922.0 1435.75 -923.85 1435.75 -928.15 1438.35 -930.45 1441.85 -933.55 1449.25 -931.9 L1453.3 -931.9 Q1448.15 -932.95 1442.25 -938.1 M1363.7 -976.45 L1364.85 -981.2 1359.4 -980.0 1345.6 -976.75 Q1345.75 -975.7 1345.35 -974.6 1345.35 -970.45 1341.15 -967.4 L1342.3 -966.8 Q1343.8 -966.25 1345.6 -966.25 1353.5 -966.25 1357.75 -968.35 1359.05 -974.95 1363.7 -976.45 M1302.65 -880.6 Q1302.65 -876.0 1298.75 -874.25 1294.2 -872.25 1281.65 -872.25 1262.5 -872.25 1252.75 -882.15 1249.6 -885.35 1247.9 -889.15 1246.7 -891.75 1246.7 -892.8 1246.7 -897.2 1249.45 -900.15 1252.0 -902.9 1255.55 -903.25 1259.2 -903.65 1261.65 -901.35 1264.4 -898.75 1264.4 -893.65 1264.4 -890.55 1270.4 -889.1 1273.8 -888.25 1283.55 -887.4 1292.95 -886.55 1296.65 -885.55 1302.65 -883.95 1302.65 -880.6 M1493.35 -919.6 Q1492.2 -918.8 1490.4 -918.35 1489.1 -917.95 1489.1 -917.7 1489.1 -916.1 1489.4 -915.5 L1489.65 -914.25 1489.65 -913.65 1497.55 -913.95 1497.2 -915.1 1497.0 -917.8 Q1497.0 -920.15 1498.6 -925.2 L1500.45 -930.75 1497.55 -931.05 1497.55 -930.75 Q1497.55 -922.45 1493.35 -919.6 M1818.4 -993.6 L1803.75 -992.7 Q1802.45 -990.7 1802.0 -988.95 1801.75 -987.9 1801.75 -986.25 1801.75 -984.3 1800.3 -981.7 L1799.1 -979.9 1799.45 -979.9 Q1811.5 -975.95 1816.35 -972.55 1818.95 -971.35 1822.45 -970.0 L1821.85 -969.7 1818.6 -970.5 1819.45 -968.95 Q1819.9 -967.4 1818.75 -964.5 1817.4 -961.1 1817.4 -959.2 1817.4 -959.05 1818.15 -958.05 L1821.0 -954.9 1829.2 -954.9 Q1831.3 -955.25 1850.4 -961.6 1870.3 -967.7 1878.05 -967.7 1885.6 -967.7 1891.3 -964.95 1897.05 -962.25 1900.8 -962.25 1905.35 -962.25 1914.8 -966.4 L1921.05 -969.0 1921.05 -969.7 Q1921.05 -970.65 1923.8 -973.95 1926.5 -977.25 1926.5 -979.05 1926.5 -979.95 1918.4 -989.7 1910.25 -999.45 1910.25 -1000.75 1910.25 -1002.85 1924.8 -1012.1 L1936.05 -1019.6 Q1932.75 -1020.4 1931.35 -1022.35 1930.4 -1023.65 1930.4 -1026.05 1930.4 -1027.85 1934.5 -1031.7 L1937.15 -1034.0 1937.0 -1035.4 Q1937.0 -1040.65 1937.55 -1042.25 1939.25 -1047.2 1945.8 -1048.65 L1979.55 -1048.9 Q1975.2 -1050.8 1969.65 -1053.5 1958.85 -1058.85 1950.2 -1059.0 L1937.75 -1058.1 Q1932.65 -1058.1 1931.4 -1054.2 1931.3 -1054.0 1930.95 -1048.65 L1924.05 -1050.15 1918.45 -1051.2 Q1915.4 -1051.2 1913.7 -1048.55 L1912.55 -1045.9 Q1908.5 -1045.9 1903.05 -1043.75 1897.6 -1041.6 1896.35 -1041.6 1891.7 -1041.6 1887.85 -1043.6 1884.05 -1045.6 1883.25 -1045.6 1877.75 -1045.6 1875.75 -1043.55 1874.5 -1042.3 1874.5 -1039.7 1874.5 -1038.3 1875.1 -1035.6 L1875.65 -1031.65 Q1865.45 -1030.4 1862.75 -1027.05 1861.95 -1026.0 1861.75 -1024.6 L1861.55 -1023.05 1849.05 -1025.5 Q1842.6 -1026.85 1839.75 -1027.0 1838.5 -1025.0 1835.65 -1023.8 L1829.3 -1021.45 Q1824.55 -1019.65 1820.45 -1017.45 1823.25 -1015.7 1824.3 -1013.55 1825.05 -1012.05 1825.05 -1009.8 1825.05 -1008.4 1822.15 -1001.25 1819.25 -994.1 1818.4 -993.6 M1823.75 -992.05 Q1829.2 -1003.0 1832.35 -1004.15 1836.25 -1005.5 1836.25 -991.5 1836.25 -989.55 1837.45 -981.85 L1821.45 -987.1 1823.75 -992.05 M1626.6 -1024.15 Q1627.45 -1026.65 1630.85 -1030.35 L1630.95 -1030.45 Q1631.0 -1028.6 1631.5 -1027.2 1632.1 -1025.6 1633.55 -1023.9 L1626.6 -1024.15 M1762.8 -930.6 Q1762.2 -931.35 1762.2 -932.75 1762.2 -934.45 1764.7 -936.6 1767.1 -938.65 1770.2 -939.75 1778.15 -942.6 1778.15 -935.65 1778.15 -932.95 1775.0 -930.8 1772.05 -928.75 1768.95 -928.75 1764.25 -928.75 1762.8 -930.6 M1710.05 -887.35 L1716.7 -882.5 1709.15 -887.35 1710.05 -887.35 M1873.6 -928.75 Q1863.55 -922.85 1851.5 -922.85 1845.7 -922.85 1844.05 -925.0 1843.45 -925.75 1843.45 -927.6 L1849.6 -931.15 Q1856.65 -934.9 1863.05 -937.65 1882.65 -946.0 1882.65 -938.95 1882.65 -934.1 1873.6 -928.75 M2072.8 -961.55 L2071.7 -959.8 Q2070.55 -959.5 2070.25 -959.2 2069.15 -959.95 2068.75 -961.2 L2068.25 -963.7 Q2063.4 -962.05 2061.9 -963.95 2061.2 -964.85 2061.2 -967.25 L2061.25 -969.2 2061.65 -970.3 Q2066.75 -971.7 2070.3 -969.65 2073.45 -967.85 2073.45 -964.85 2073.45 -963.0 2072.8 -961.55 M2068.2 -952.65 Q2070.35 -954.1 2073.4 -954.7 2081.15 -956.25 2084.2 -951.05 2083.45 -949.8 2080.55 -948.3 2076.9 -946.45 2073.0 -946.45 L2066.25 -946.7 2066.1 -947.15 Q2065.95 -947.95 2065.95 -949.75 2065.95 -951.2 2068.2 -952.65 M2025.15 -957.5 Q2022.85 -960.9 2022.85 -963.8 2022.85 -965.8 2023.45 -966.5 2023.8 -966.95 2025.4 -967.4 2026.7 -967.1 2028.75 -963.35 2030.65 -959.95 2034.05 -959.95 2035.5 -959.95 2035.65 -961.35 2035.8 -962.8 2037.2 -962.8 2042.05 -962.8 2043.3 -959.95 2043.8 -958.9 2043.8 -955.2 2043.35 -954.5 2040.6 -953.45 2037.6 -952.3 2035.6 -952.3 2028.65 -952.3 2025.15 -957.5 M2051.8 -952.55 Q2051.15 -952.9 2051.15 -954.75 2051.15 -956.8 2056.4 -958.1 2060.9 -959.2 2064.25 -958.95 L2065.4 -957.2 Q2063.1 -954.05 2053.75 -952.05 L2051.8 -952.55 M2206.35 -970.7 Q2207.4 -968.95 2207.4 -967.85 2207.4 -965.05 2203.0 -963.1 2200.15 -961.8 2193.15 -960.15 2185.4 -958.3 2182.65 -957.35 2177.55 -955.45 2176.5 -952.9 L2164.85 -953.2 Q2160.85 -955.45 2160.65 -958.25 2160.6 -959.85 2161.1 -963.4 2151.6 -965.1 2149.7 -965.95 2147.3 -966.95 2147.3 -969.85 2147.3 -972.75 2147.45 -972.9 2155.3 -973.3 2161.05 -971.45 2170.4 -968.45 2167.15 -960.35 L2168.3 -958.95 Q2182.85 -962.7 2187.4 -964.25 2199.35 -968.3 2204.1 -973.3 2205.3 -972.45 2206.35 -970.7 M2218.45 -943.0 Q2212.5 -943.0 2209.1 -945.25 2206.55 -947.0 2206.55 -948.75 2206.55 -951.8 2210.5 -953.05 2214.45 -954.25 2215.15 -949.45 L2217.75 -948.75 Q2218.55 -950.5 2219.6 -951.65 2220.8 -952.9 2221.9 -952.9 2224.8 -952.9 2225.65 -951.1 2225.95 -950.5 2225.95 -949.0 2225.95 -946.1 2224.55 -944.7 2222.75 -943.0 2218.45 -943.0 M2149.9 -941.55 L2142.05 -942.65 Q2134.1 -944.1 2131.65 -945.85 2136.4 -956.2 2157.8 -945.55 2157.8 -942.95 2155.8 -942.15 L2149.9 -941.55 M2144.7 -917.35 Q2145.35 -917.95 2147.05 -917.95 2148.45 -917.95 2149.85 -916.8 2151.2 -915.65 2152.65 -915.65 L2159.3 -915.9 Q2163.9 -916.25 2164.85 -916.8 2163.85 -918.0 2163.6 -919.5 2163.45 -920.65 2163.7 -922.85 L2172.65 -922.55 2186.4 -919.1 2186.5 -918.55 2187.0 -917.4 2186.4 -914.8 Q2183.1 -914.8 2173.15 -912.15 2163.2 -909.5 2152.65 -909.5 2145.55 -909.5 2144.3 -912.4 2143.6 -913.95 2143.85 -916.8 2144.05 -916.8 2144.7 -917.35 M2339.5 -907.5 Q2338.55 -903.8 2336.05 -901.45 L2331.6 -903.75 2339.5 -907.5 M915.05 -933.0 Q919.05 -935.1 921.8 -937.85 L923.65 -939.9 915.05 -933.0 M954.35 -902.45 Q954.35 -914.65 963.05 -908.9 967.4 -906.0 972.0 -900.7 L976.3 -901.0 987.95 -901.7 Q989.15 -903.6 990.75 -904.95 992.3 -906.3 993.3 -906.3 996.75 -906.3 998.95 -901.95 1000.5 -898.85 1000.5 -897.25 1000.5 -894.55 995.05 -890.35 988.9 -885.6 982.5 -885.6 965.1 -885.6 958.1 -893.55 954.35 -897.75 954.35 -902.45 M860.95 -882.2 L857.6 -882.0 856.25 -882.05 858.9 -882.45 860.95 -882.2 M1051.75 -949.35 L1042.7 -950.75 1042.75 -949.0 1042.45 -948.65 Q1042.5 -948.3 1044.3 -948.3 L1051.75 -949.35 M1216.45 -722.05 Q1201.85 -716.5 1180.5 -716.5 L1159.7 -717.8 1131.1 -720.6 1129.15 -716.85 Q1132.6 -716.15 1143.45 -716.65 L1155.75 -717.3 Q1167.7 -717.3 1181.2 -713.45 1194.7 -709.65 1200.15 -709.65 1214.2 -709.65 1219.1 -711.5 1224.0 -713.4 1234.8 -713.4 L1242.85 -712.4 Q1248.9 -711.35 1250.75 -710.55 1249.15 -717.75 1253.45 -721.05 1259.0 -725.35 1275.75 -725.35 1285.4 -725.35 1288.8 -720.25 1290.7 -717.3 1290.3 -713.4 L1290.3 -712.55 Q1301.75 -711.15 1306.3 -715.6 L1309.35 -718.85 Q1311.15 -720.45 1313.85 -720.45 1317.85 -720.45 1319.05 -717.3 L1319.45 -714.0 Q1319.45 -709.7 1316.05 -706.35 1311.15 -701.55 1300.2 -700.35 1289.65 -699.15 1283.25 -700.0 L1280.85 -700.15 Q1280.15 -699.95 1278.9 -698.6 1276.95 -696.1 1275.0 -694.45 1271.25 -691.25 1267.3 -691.25 1251.8 -691.25 1246.35 -694.35 L1242.35 -696.5 Q1239.7 -697.45 1234.65 -697.45 1226.15 -697.45 1218.75 -695.3 1211.3 -693.15 1200.15 -693.15 1192.95 -693.15 1181.1 -695.8 L1168.4 -698.9 Q1166.25 -699.3 1151.3 -698.45 1140.9 -697.85 1133.05 -698.8 L1133.15 -697.75 Q1133.15 -694.25 1131.8 -692.3 1130.35 -690.2 1126.7 -688.75 1121.75 -686.85 1098.65 -682.95 L1100.3 -682.5 1113.1 -681.7 Q1123.85 -680.3 1141.95 -676.75 L1142.4 -676.0 Q1142.8 -675.4 1142.8 -673.75 1142.8 -670.55 1136.8 -669.0 L1133.7 -668.35 Q1156.75 -657.35 1156.75 -653.6 1156.75 -649.35 1154.05 -647.05 1151.2 -644.65 1143.35 -642.55 L1144.25 -640.5 1144.5 -637.5 Q1144.5 -634.05 1142.8 -631.6 1139.9 -627.3 1132.6 -627.3 1112.75 -627.3 1087.9 -637.95 L1071.65 -645.25 Q1064.1 -648.6 1061.0 -648.6 1057.05 -648.6 1053.7 -646.15 1050.35 -643.7 1049.05 -643.7 1042.45 -643.7 1039.9 -648.0 1039.1 -649.35 1038.85 -650.95 L1038.7 -652.3 Q1038.7 -653.8 1040.1 -656.35 1041.9 -659.55 1044.85 -661.95 1053.35 -668.85 1067.2 -665.95 1067.85 -666.85 1068.95 -670.1 1070.05 -673.5 1070.05 -674.75 1070.05 -675.55 1066.4 -679.0 1062.7 -682.5 1062.7 -684.5 1062.7 -688.3 1064.05 -690.15 1066.0 -692.9 1072.05 -695.15 L1070.75 -697.1 Q1070.35 -698.0 1070.35 -699.9 1070.35 -706.8 1080.15 -709.95 1088.8 -712.75 1101.75 -711.85 L1110.75 -710.8 Q1110.15 -712.95 1110.15 -715.7 1110.15 -721.1 1113.75 -725.9 1116.6 -729.7 1120.5 -731.75 1120.65 -740.6 1131.05 -743.6 1141.15 -746.5 1170.5 -746.5 L1193.0 -744.75 1215.5 -743.0 Q1222.75 -743.0 1226.55 -737.65 1229.0 -734.25 1229.0 -731.75 1229.0 -726.85 1216.45 -722.05 M1208.1 -675.25 Q1217.7 -677.6 1230.35 -678.25 1243.9 -679.0 1253.45 -677.25 L1253.6 -677.2 1262.85 -675.7 Q1272.05 -673.65 1274.6 -670.7 L1273.5 -669.95 Q1273.05 -669.3 1271.9 -668.95 1267.9 -667.7 1250.45 -667.7 L1247.65 -667.7 1220.15 -665.1 1203.0 -665.1 Q1200.2 -667.0 1198.9 -668.85 L1198.15 -670.3 Q1198.15 -672.9 1208.1 -675.25 M977.9 -649.75 Q977.9 -646.95 968.25 -645.3 951.2 -642.4 905.15 -642.4 885.25 -642.4 869.65 -643.45 839.55 -645.5 835.0 -650.9 830.05 -656.7 823.4 -661.1 813.5 -667.7 804.1 -667.7 L791.7 -666.55 779.25 -665.4 Q761.95 -665.4 756.85 -671.0 755.2 -672.75 755.0 -675.0 754.9 -676.1 755.1 -677.05 755.1 -680.55 757.1 -682.9 759.55 -685.8 764.3 -685.8 765.7 -685.8 768.45 -684.5 771.2 -683.2 772.65 -683.2 773.3 -683.2 775.85 -685.45 778.4 -687.75 779.8 -687.8 L790.65 -687.4 797.8 -686.4 Q804.3 -686.4 812.35 -687.95 820.35 -689.55 832.15 -689.55 832.6 -690.7 837.95 -693.6 844.05 -696.85 846.65 -699.75 847.55 -700.95 848.0 -705.25 849.45 -709.25 855.7 -710.55 875.3 -713.4 886.4 -703.2 890.2 -699.7 892.4 -695.15 894.1 -691.7 894.1 -689.7 894.1 -686.7 892.25 -684.9 888.95 -681.7 879.85 -681.2 880.15 -680.35 880.15 -677.35 893.3 -676.6 899.15 -672.8 903.45 -670.0 903.45 -665.85 903.45 -664.2 901.15 -662.1 898.95 -660.0 894.1 -657.05 L892.1 -656.9 Q902.0 -655.75 964.85 -655.2 974.15 -655.2 976.75 -653.2 977.9 -652.35 977.9 -649.75 M409.65 -716.8 Q404.1 -717.1 398.65 -719.0 L409.65 -716.8 M2514.9 -732.9 L2518.2 -730.6 Q2518.7 -732.2 2518.6 -733.25 L2514.9 -732.9 M2528.75 -715.25 L2529.7 -716.55 2524.1 -718.6 Q2522.15 -717.0 2518.05 -717.85 L2519.6 -714.85 2520.05 -713.9 Q2523.3 -714.4 2528.25 -714.0 2528.25 -714.55 2528.75 -715.25 M2503.05 -740.35 L2499.6 -740.85 2501.65 -740.0 2503.05 -740.35 M2269.55 -729.5 L2259.15 -721.05 Q2266.45 -717.45 2268.55 -713.8 2269.65 -711.9 2269.65 -707.95 2269.65 -703.5 2267.75 -700.6 2264.35 -695.45 2255.4 -695.45 2247.3 -695.45 2239.3 -699.35 2232.4 -703.4 2231.1 -703.8 2231.4 -701.05 2229.6 -698.15 2227.25 -694.3 2221.8 -692.0 L2211.7 -692.0 Q2198.7 -693.95 2190.05 -697.4 L2188.25 -698.1 2186.15 -698.05 2174.0 -698.65 Q2172.5 -698.9 2170.6 -699.9 2167.05 -701.75 2146.6 -701.75 2143.55 -701.75 2139.45 -699.8 L2136.7 -698.3 2137.0 -696.7 Q2137.85 -691.7 2136.55 -688.2 2132.45 -677.35 2106.9 -677.35 L2095.85 -677.6 Q2094.05 -677.95 2091.85 -680.6 L2089.8 -683.5 2086.95 -683.5 2087.35 -682.4 2087.5 -679.75 Q2087.5 -674.05 2083.35 -671.6 2076.25 -667.4 2054.9 -667.4 L2025.15 -672.75 Q2010.8 -672.75 2004.15 -668.5 L1999.9 -665.6 Q1997.65 -664.25 1994.65 -664.25 1984.65 -664.25 1981.7 -666.45 1980.55 -668.7 1979.25 -668.7 L1972.8 -666.9 Q1966.35 -665.1 1965.05 -665.1 1957.45 -665.1 1953.75 -671.0 1952.6 -672.85 1951.95 -675.1 L1951.55 -677.2 Q1951.55 -690.65 1957.7 -692.4 L1962.3 -691.55 1962.6 -685.95 1962.6 -680.35 Q1962.9 -680.0 1962.8 -679.3 1963.0 -678.75 1964.75 -678.75 1974.7 -678.75 1978.55 -684.95 L1981.4 -690.05 Q1983.3 -692.8 1986.15 -694.0 1988.6 -695.0 2009.9 -697.55 2032.4 -700.2 2037.5 -699.45 L2037.35 -701.5 Q2037.3 -703.2 2037.95 -704.35 2040.0 -707.95 2049.7 -707.95 L2061.45 -706.65 2073.15 -705.35 Q2075.9 -705.35 2078.6 -707.2 L2083.35 -711.3 Q2090.0 -717.3 2097.45 -717.3 2105.35 -717.3 2109.25 -711.4 2111.65 -707.75 2111.65 -704.65 2111.65 -702.9 2111.0 -700.65 2112.2 -701.6 2114.3 -702.7 L2119.1 -705.2 2118.45 -708.6 Q2117.8 -713.85 2122.8 -716.25 2129.75 -719.6 2149.2 -719.6 2178.75 -719.6 2189.25 -716.0 L2197.75 -712.6 Q2203.5 -710.45 2211.7 -709.1 2215.15 -721.1 2227.55 -729.45 2239.4 -737.4 2249.25 -735.85 2249.25 -736.35 2249.7 -737.1 L2250.4 -738.4 Q2245.0 -743.45 2243.15 -745.4 2240.2 -748.55 2240.2 -751.2 2240.2 -758.95 2245.2 -759.65 2249.45 -760.2 2256.25 -755.75 2262.35 -751.75 2267.25 -746.0 2272.25 -740.1 2272.25 -736.7 2272.25 -732.25 2269.55 -729.5 M2314.9 -679.0 L2313.65 -681.45 Q2312.1 -683.55 2299.85 -679.9 2303.35 -678.55 2306.3 -677.95 2311.6 -676.85 2319.1 -676.75 2316.05 -677.4 2314.9 -679.0 M2108.8 -694.6 L2108.85 -694.6 2108.8 -695.15 2108.8 -694.6 M1968.1 -707.0 Q1969.45 -708.95 1972.5 -709.35 1977.6 -710.05 1980.65 -709.4 L1984.4 -707.95 Q1987.6 -706.55 1996.25 -711.1 2002.25 -714.25 2005.75 -712.0 2008.5 -710.25 2008.5 -706.75 2008.5 -702.85 2001.25 -699.9 1994.4 -697.1 1986.5 -697.1 L1979.0 -697.35 Q1967.25 -697.1 1967.25 -704.25 1967.25 -705.75 1968.1 -707.0 M2056.05 -683.5 Q2054.35 -685.5 2047.95 -688.4 2041.75 -691.2 2040.95 -692.4 L2040.0 -690.05 Q2039.05 -688.2 2037.05 -686.95 L2036.2 -686.4 2044.75 -685.1 2054.3 -683.2 2056.05 -683.5 M1801.7 -710.0 Q1809.05 -707.35 1809.05 -700.35 1809.05 -696.65 1807.1 -693.55 1804.15 -688.95 1798.0 -688.95 1795.0 -688.95 1793.1 -690.1 1792.25 -690.6 1790.35 -692.55 1787.0 -696.05 1780.45 -695.75 1767.75 -695.1 1763.6 -698.5 1762.25 -699.6 1761.95 -701.0 1761.8 -701.65 1761.9 -702.2 1761.9 -704.45 1769.25 -707.25 1776.75 -710.1 1785.5 -711.1 1795.55 -712.2 1801.7 -710.0 M1790.4 -668.7 Q1788.15 -667.85 1782.05 -667.85 1771.95 -667.85 1768.4 -673.6 1767.25 -675.4 1766.9 -677.6 L1766.8 -679.65 Q1766.8 -689.25 1780.05 -683.2 1784.9 -681.0 1789.1 -677.7 1793.25 -674.45 1793.25 -673.0 1793.25 -669.8 1790.4 -668.7 M1935.55 -671.45 Q1935.55 -666.8 1929.25 -661.65 1921.95 -655.75 1912.55 -655.75 1900.95 -655.75 1896.65 -661.05 1895.25 -662.75 1894.8 -664.8 L1894.6 -666.7 Q1894.6 -672.75 1898.1 -673.0 L1910.0 -672.15 Q1914.25 -672.15 1916.5 -673.95 1917.95 -675.1 1919.15 -677.9 1920.55 -681.0 1921.4 -682.0 1923.15 -683.9 1926.5 -684.1 1930.85 -684.25 1935.55 -671.45 M1623.3 -721.75 Q1627.35 -725.05 1633.25 -725.05 1639.15 -725.05 1643.2 -721.75 1647.75 -718.05 1647.75 -711.75 1647.7 -709.25 1647.0 -706.9 L1647.65 -706.75 Q1657.0 -704.75 1666.75 -704.75 1669.75 -704.75 1673.15 -706.55 L1677.25 -708.75 Q1680.15 -707.4 1681.6 -704.8 1682.75 -702.7 1682.75 -700.25 1682.75 -697.15 1678.75 -694.3 1674.85 -691.5 1669.05 -690.9 1665.15 -696.5 1641.5 -701.3 L1620.0 -705.1 1619.3 -707.05 Q1628.95 -705.35 1636.85 -705.35 1640.35 -705.35 1642.65 -707.25 1644.75 -709.0 1644.75 -711.4 1644.75 -716.45 1623.15 -721.6 L1623.3 -721.75 M1676.35 -658.75 Q1678.5 -660.0 1683.45 -660.35 1688.9 -660.8 1703.7 -660.8 L1715.65 -662.1 1727.55 -663.4 Q1731.75 -663.4 1733.4 -659.65 1734.3 -657.7 1734.3 -655.6 1734.3 -650.95 1725.1 -649.0 1718.4 -647.55 1692.35 -645.25 1688.75 -644.95 1685.05 -642.95 L1678.6 -638.7 Q1670.1 -632.75 1662.15 -632.75 1650.95 -632.75 1643.2 -638.15 L1638.3 -641.85 Q1635.95 -643.55 1634.15 -643.55 1627.7 -643.55 1617.85 -638.6 1608.0 -633.65 1600.05 -633.65 1585.95 -633.65 1576.05 -640.45 1567.85 -646.05 1567.85 -651.0 1567.85 -654.5 1570.45 -657.35 1563.1 -666.25 1562.0 -668.25 1561.1 -669.85 1561.1 -676.6 1561.1 -684.6 1564.45 -690.2 1567.5 -695.25 1571.9 -696.35 1576.25 -697.5 1579.3 -693.9 1582.65 -689.95 1582.65 -681.65 1582.65 -674.05 1595.4 -670.2 1604.1 -667.6 1623.4 -665.95 L1651.4 -663.1 Q1664.15 -660.85 1664.15 -655.9 1664.15 -654.7 1662.45 -653.5 1659.35 -651.35 1658.0 -650.0 1666.95 -652.8 1671.5 -655.45 L1676.35 -658.75 M1531.8 -665.95 Q1534.2 -665.95 1541.2 -669.45 1548.2 -673.0 1552.5 -673.0 1555.4 -673.0 1556.8 -670.15 1557.65 -668.4 1557.65 -667.0 1557.65 -663.15 1546.6 -657.95 1535.2 -652.6 1525.45 -652.6 1503.0 -652.6 1485.5 -666.55 1479.45 -671.4 1475.3 -676.9 1471.85 -681.5 1471.85 -683.2 1471.85 -688.4 1476.85 -687.0 1479.85 -686.15 1490.2 -680.35 1501.95 -673.8 1509.4 -670.8 1521.55 -665.95 1531.8 -665.95 M1347.95 -704.7 Q1363.3 -709.85 1363.3 -702.2 1363.3 -698.35 1357.6 -694.9 1351.65 -691.25 1344.45 -691.25 1337.65 -691.25 1334.9 -692.85 1332.55 -694.2 1332.55 -697.15 1332.55 -697.75 1337.35 -700.25 1342.6 -702.9 1347.95 -704.7 M1423.8 -683.35 Q1423.8 -679.8 1414.45 -671.0 1404.2 -661.35 1396.8 -661.35 1389.0 -661.35 1385.4 -663.95 1382.85 -665.75 1382.85 -668.25 1382.85 -671.1 1384.85 -671.85 L1390.3 -672.55 Q1400.8 -673.45 1408.75 -681.05 1414.45 -686.6 1418.25 -688.2 1423.8 -690.5 1423.8 -683.35" fill="#989578" fill-rule="evenodd" stroke="none"/>
    <path d="M2475.15 -592.0 L2677.75 -592.0 2677.75 -602.15 Q2684.75 -607.1 2687.3 -605.75 2689.0 -604.8 2689.95 -599.05 2691.1 -591.9 2692.85 -588.75 2696.05 -583.1 2703.35 -581.6 L2760.75 -580.5 Q2762.85 -579.75 2764.55 -577.8 2779.35 -593.8 2788.8 -585.45 2792.3 -582.3 2794.45 -576.25 L2795.3 -573.55 Q2799.5 -572.2 2801.45 -569.1 2802.9 -566.8 2802.9 -563.9 2802.9 -560.75 2799.55 -558.15 2797.7 -556.75 2795.1 -555.8 2793.35 -546.9 2788.75 -541.05 2783.9 -534.9 2772.1 -529.4 2758.8 -523.2 2754.4 -519.25 2745.7 -511.4 2743.85 -496.95 L2739.2 -460.15 Q2737.1 -440.8 2737.1 -425.5 2737.1 -422.7 2739.35 -409.75 2741.6 -396.85 2741.6 -394.0 L2741.35 -385.7 Q2740.75 -380.05 2738.35 -376.0 2731.45 -364.5 2709.55 -364.5 2694.9 -364.5 2687.9 -385.0 L2687.9 -366.8 1883.65 -366.8 1883.65 -372.0 1627.65 -372.0 1627.65 -366.8 292.25 -366.8 292.2 -602.0 808.2 -602.0 808.2 -590.8 879.4 -590.8 1545.8 -590.8 1545.8 -592.0 1627.6 -592.0 1883.6 -592.0 1915.8 -592.0 1915.8 -590.8 2472.8 -590.8 2475.15 -592.0" fill="#5c5b47" fill-rule="evenodd" stroke="none"/>
  </g>
</svg>
