<?xml version="1.0" encoding="UTF-8" standalone="no"?>
<svg xmlns:ffdec="https://www.free-decompiler.com/flash" xmlns:xlink="http://www.w3.org/1999/xlink" ffdec:objectType="shape" height="458.0px" width="245.3px" xmlns="http://www.w3.org/2000/svg">
  <g transform="matrix(1.0, 0.0, 0.0, 1.0, -129.35, -402.6)">
    <path d="M298.7 402.6 Q300.6 405.25 301.4 410.8 302.2 416.1 303.2 417.15 303.2 427.4 302.0 433.1 L302.25 433.5 302.95 434.65 Q306.25 432.75 313.6 426.5 315.0 423.95 318.65 420.15 321.85 416.8 324.7 414.5 324.4 418.0 321.4 421.65 319.5 424.05 317.1 425.75 L317.1 426.05 Q317.1 426.95 305.45 437.1 L305.2 437.8 301.1 438.15 299.85 440.0 298.8 441.05 Q296.85 444.0 293.95 446.2 286.1 457.05 264.1 478.55 L262.75 478.75 262.5 479.0 Q261.6 479.9 255.9 480.9 L254.45 483.55 253.6 485.6 250.75 491.75 249.65 492.0 249.65 492.15 249.65 492.4 231.55 509.1 224.55 515.5 223.2 515.45 222.65 515.95 220.55 517.55 219.7 517.6 219.55 517.7 Q217.05 519.2 215.4 519.3 L215.15 519.3 212.25 519.3 211.85 519.95 210.45 519.85 210.25 523.15 210.2 523.15 206.85 531.95 205.6 533.4 201.0 537.25 186.05 551.35 184.25 551.15 185.9 549.55 184.25 549.35 186.85 547.05 186.05 546.65 197.6 536.0 202.9 530.7 203.65 529.8 Q205.5 527.35 206.0 524.25 206.4 521.9 206.4 515.5 L205.9 509.75 204.6 502.05 205.5 502.05 Q206.1 504.8 208.55 511.0 209.75 513.85 210.2 516.4 L213.05 516.3 215.75 515.55 216.85 515.3 Q218.15 514.4 219.55 514.15 225.25 508.4 231.45 503.4 235.05 500.6 240.35 496.75 L242.35 495.2 Q247.3 491.45 249.25 488.7 L249.55 488.25 249.65 487.85 250.3 484.85 251.15 480.9 249.65 480.35 249.65 479.8 250.45 478.95 250.7 478.95 252.1 471.8 252.1 471.4 Q252.1 465.8 251.6 460.85 251.0 454.2 249.65 451.2 L250.3 451.2 251.45 456.45 250.55 450.35 251.2 450.35 252.85 459.85 Q253.95 467.1 254.15 470.65 L254.35 473.1 254.3 473.85 255.7 477.65 259.3 477.05 Q264.4 474.9 267.85 470.45 L269.35 468.25 282.6 453.6 287.5 449.5 287.95 448.85 288.25 448.35 287.95 448.3 289.15 445.6 289.05 444.95 289.5 444.95 Q292.1 439.65 296.4 433.25 299.85 428.05 299.85 422.1 L299.15 414.1 297.8 402.85 298.7 402.6 M179.4 577.75 L179.4 578.55 179.8 583.9 180.7 590.4 181.15 590.4 181.15 590.45 181.1 591.2 179.1 592.75 178.2 586.45 177.8 581.1 Q177.8 577.95 178.35 575.4 L178.95 575.4 179.4 577.75 M232.9 593.2 L234.1 593.3 Q233.4 594.4 232.75 596.0 L232.9 593.2 M131.45 632.05 L138.3 626.6 Q145.95 620.35 147.3 619.65 145.3 621.9 139.55 626.75 L131.95 633.25 131.25 633.8 129.35 633.6 131.45 632.05 M135.85 632.2 L136.2 632.3 141.85 626.5 144.55 624.0 146.45 622.95 146.65 624.0 Q143.85 625.45 140.25 629.05 L134.6 634.85 133.8 634.65 135.85 632.2" fill="#696750" fill-rule="evenodd" stroke="none"/>
    <path d="M181.15 590.4 L180.7 590.4 179.8 583.9 179.4 578.55 179.4 577.75 Q179.45 575.05 179.95 572.85 L180.55 572.85 181.9 580.6 182.75 587.9 Q182.75 589.05 182.25 589.65 L181.45 590.4 181.15 590.4 M179.1 592.75 L181.1 591.2 182.2 590.35 Q195.6 580.15 200.4 575.6 L201.65 574.35 200.9 575.6 Q195.0 584.55 183.55 594.55 L180.55 597.15 180.55 597.0 Q177.95 597.75 175.5 599.95 L170.9 604.55 170.95 604.6 165.1 608.55 166.55 614.55 166.15 616.25 165.65 616.25 164.45 612.85 Q163.75 610.9 163.75 609.8 L163.75 609.45 156.35 613.8 Q156.2 613.55 156.0 613.6 L156.0 612.4 Q156.0 609.9 174.75 595.95 L179.1 592.75 M178.4 820.45 L178.45 819.7 179.0 819.7 180.15 825.15 Q181.25 830.2 181.25 831.3 L181.25 833.3 Q187.5 827.5 192.6 824.25 L185.15 831.35 181.1 836.2 Q178.9 837.6 175.4 840.7 169.2 846.2 169.2 847.05 L169.4 848.3 167.7 849.65 167.7 850.2 Q167.7 853.45 167.3 857.65 166.1 856.25 165.5 853.75 L165.1 851.35 165.05 851.4 Q160.8 856.2 158.05 860.3 L157.65 860.6 Q157.3 860.7 157.3 859.55 157.3 858.55 163.75 851.4 L163.15 851.4 162.95 850.55 Q165.7 847.75 172.3 842.1 176.6 837.55 180.45 833.95 L179.2 830.0 Q178.05 826.2 178.05 824.05 L178.25 821.75 178.4 820.45" fill="#747c7e" fill-rule="evenodd" stroke="none"/>
    <path d="M234.35 593.45 L234.5 590.65 235.7 590.75 Q235.0 591.85 234.35 593.45 M363.2 579.7 Q363.85 570.8 364.55 567.25 L365.9 566.7 Q367.25 566.7 367.25 569.5 367.25 572.35 365.95 580.5 L364.75 587.6 364.05 591.7 364.75 591.3 Q365.35 589.05 366.1 586.75 369.55 576.1 374.65 570.1 L374.65 606.75 365.9 618.35 365.0 618.4 365.0 619.25 364.75 619.15 363.45 618.4 362.5 618.3 Q361.9 618.15 361.65 617.15 359.45 615.5 358.8 613.7 358.3 612.3 358.3 606.25 358.3 598.4 359.0 596.7 359.8 594.7 362.05 593.0 L363.2 579.7" fill="#828a8c" fill-rule="evenodd" stroke="none"/>
    <path d="M180.55 597.15 L180.7 598.05 179.35 599.3 176.65 601.35 175.45 602.25 174.3 603.1 171.25 604.95 170.95 604.6 170.9 604.55 175.5 599.95 Q177.95 597.75 180.55 597.0 L180.55 597.15 M144.55 624.0 L141.85 626.5 136.2 632.3 135.85 632.2 135.4 632.1 Q138.05 628.75 141.7 625.25 145.9 621.2 148.05 620.4 L148.25 621.45 Q146.55 622.35 144.55 624.0 M168.35 790.75 Q168.1 790.8 168.1 789.4 168.1 787.55 171.2 785.05 174.5 782.3 175.05 779.85 L175.95 779.85 Q177.0 780.25 177.4 780.75 177.95 781.45 177.95 783.0 177.95 783.9 173.6 787.1 169.45 790.15 168.55 790.4 L168.35 790.75 M150.85 810.55 Q150.3 814.15 144.65 818.95 L135.2 826.45 133.45 826.1 133.15 825.7 132.95 824.2 Q132.95 823.15 140.3 816.65 144.45 812.95 147.05 811.3 L147.4 811.05 Q148.65 809.75 150.65 808.35 155.25 805.05 158.25 805.4 154.4 807.8 152.0 809.4 L150.65 810.3 150.85 810.55" fill="#8c9395" fill-rule="evenodd" stroke="none"/>
  </g>
</svg>
