<?xml version="1.0" encoding="UTF-8" standalone="no"?>
<svg xmlns:ffdec="https://www.free-decompiler.com/flash" xmlns:xlink="http://www.w3.org/1999/xlink" ffdec:objectType="shape" height="1229.5px" width="4194.05px" xmlns="http://www.w3.org/2000/svg">
  <g transform="matrix(1.0, 0.0, 0.0, 1.0, 2574.05, 340.0)">
    <path d="M1049.6 627.75 Q1050.0 626.9 1049.65 625.6 L1049.3 627.75 1049.6 627.75 M204.65 698.25 L203.9 698.95 202.05 700.9 201.5 701.55 203.35 699.6 204.65 698.25 M1620.0 871.35 L-468.4 871.35 -2556.7 871.35 -2556.7 -340.0 -468.4 -340.0 1620.0 -340.0 1620.0 871.35" fill="#330033" fill-rule="evenodd" stroke="none"/>
    <path d="M-2441.35 -105.9 Q-2432.15 -93.25 -2410.4 -93.25 -2384.1 -93.25 -2375.5 -105.95 -2372.65 -110.15 -2371.9 -115.65 L-2371.7 -122.25 Q-2371.7 -134.25 -2383.4 -142.15 L-2386.05 -143.8 -2382.05 -149.7 Q-2365.25 -174.15 -2357.7 -174.15 -2355.8 -174.15 -2354.3 -171.75 -2353.3 -170.1 -2351.6 -165.4 -2347.05 -152.9 -2342.35 -146.2 -2322.6 -118.25 -2266.9 -118.25 L-2261.35 -117.7 -2259.9 -117.15 -2259.35 -117.55 Q-2258.8 -117.3 -2258.8 -113.95 -2258.8 -113.35 -2269.15 -109.2 -2282.8 -103.75 -2292.0 -98.65 -2325.2 -80.25 -2325.2 -55.6 -2323.75 -40.9 -2320.55 -26.85 L-2337.55 -27.5 Q-2364.15 -26.9 -2381.75 -17.1 -2401.8 -5.9 -2401.8 13.7 -2401.8 21.5 -2394.85 28.2 -2383.1 39.5 -2355.85 39.5 -2348.45 39.5 -2335.45 37.05 -2320.8 34.25 -2307.95 29.8 L-2299.3 26.6 Q-2284.45 48.1 -2263.65 48.1 -2195.85 48.1 -2162.3 21.1 -2162.1 23.8 -2161.15 27.55 -2159.45 34.75 -2155.95 40.65 -2145.55 58.3 -2123.35 58.3 -2098.05 58.3 -2079.0 41.7 -2071.55 35.2 -2067.05 27.7 -2062.9 20.75 -2062.9 15.85 -2062.9 5.55 -2078.45 -1.3 -2092.85 -7.7 -2112.6 -8.05 -2129.25 -8.35 -2141.3 -4.15 -2132.75 -20.05 -2131.0 -40.2 -2130.4 -47.05 -2130.6 -54.75 L-2130.9 -63.65 Q-2130.9 -77.5 -2133.1 -86.1 -2134.8 -92.65 -2139.45 -101.1 L-2149.5 -119.95 Q-2156.5 -134.4 -2162.9 -153.7 L-2161.6 -155.65 Q-2160.85 -156.4 -2157.5 -156.4 -2147.5 -156.4 -2124.15 -145.25 -2114.1 -140.5 -2077.1 -120.75 -2047.75 -105.15 -2030.3 -97.5 -2041.1 -93.6 -2049.65 -87.05 -2067.75 -73.25 -2067.75 -53.2 -2067.75 -43.15 -2059.7 -37.9 -2048.9 -30.9 -2022.6 -30.9 -1988.3 -30.9 -1967.6 -48.15 -1959.95 -54.55 -1955.6 -62.2 -1951.9 -68.6 -1951.9 -73.1 -1951.9 -81.55 -1956.35 -87.75 -1913.05 -95.9 -1894.7 -129.5 -1883.4 -150.2 -1883.4 -179.5 L-1883.35 -185.35 -1882.85 -190.8 Q-1867.05 -188.7 -1829.9 -165.1 L-1800.0 -145.65 Q-1782.9 -134.5 -1773.75 -129.5 -1742.4 -109.65 -1705.6 -95.45 -1660.55 -79.35 -1628.6 -65.8 -1561.1 -36.95 -1489.75 -18.2 -1468.1 -12.5 -1434.0 -4.75 -1398.0 3.5 -1384.6 6.95 -1327.5 21.7 -1267.1 39.5 -1206.9 57.3 -1130.05 77.1 -1113.6 81.35 -1072.2 96.05 -1027.9 111.8 -985.3 128.8 -871.55 174.25 -871.55 187.55 L-915.4 201.0 Q-968.3 218.15 -1011.8 236.55 -1073.25 262.6 -1108.25 288.2 -1152.1 320.25 -1152.1 349.9 -1152.1 359.45 -1139.8 376.9 -1126.45 395.8 -1106.0 412.9 -1082.2 432.85 -1055.5 444.05 -1024.25 457.25 -993.0 456.6 -993.0 457.15 -992.2 457.1 -991.4 457.65 -991.4 460.9 -997.85 467.05 -997.85 468.15 -997.85 480.5 -983.55 510.1 L-987.2 511.15 Q-1006.6 517.05 -1020.4 528.85 -1035.45 541.7 -1035.45 555.2 -1037.0 559.1 -1034.95 562.5 -1030.95 569.2 -1012.9 569.2 -984.1 569.2 -960.1 553.8 -949.9 571.55 -939.0 588.65 -927.65 606.55 -924.5 610.05 L-922.85 613.25 Q-924.3 617.55 -930.4 617.55 -937.95 617.55 -941.2 616.2 -942.4 615.7 -945.2 613.25 -950.1 608.95 -969.9 608.95 -1050.5 608.95 -1086.3 648.0 -1089.7 651.7 -1092.6 655.7 -1094.95 635.1 -1111.5 622.65 -1128.45 609.95 -1154.0 609.4 -1171.0 609.05 -1184.8 614.1 -1187.15 605.05 -1197.0 596.75 -1208.95 586.7 -1225.35 582.8 -1242.4 578.75 -1253.7 584.1 -1266.6 590.2 -1266.6 606.8 -1266.6 608.85 -1263.05 613.65 -1258.75 619.5 -1252.15 624.55 -1235.85 637.05 -1213.9 638.8 -1215.8 643.95 -1215.8 649.8 -1215.8 654.4 -1211.0 661.5 -1205.55 669.5 -1196.5 676.4 -1172.5 694.7 -1138.15 694.7 -1118.65 694.7 -1107.1 688.15 -1108.55 694.95 -1108.55 701.15 -1108.55 705.25 -1102.5 731.05 L-1096.5 756.5 Q-1096.5 764.7 -1102.95 765.4 -1148.45 762.8 -1189.05 768.95 -1224.55 774.35 -1252.9 785.85 -1278.0 796.0 -1292.65 808.8 -1306.35 820.75 -1306.35 830.7 -1306.35 838.6 -1303.05 844.55 -1300.25 849.55 -1293.55 855.7 L-1278.5 868.75 Q-1267.6 878.3 -1258.55 888.2 L-1259.85 889.5 -2047.5 889.5 Q-2036.85 879.65 -2029.95 868.6 -2022.6 856.9 -2022.6 849.5 -2022.6 827.1 -2044.7 823.05 -2064.4 819.4 -2093.25 830.95 -2121.8 842.35 -2141.85 861.45 -2156.8 875.65 -2161.6 889.5 L-2574.05 889.5 -2574.05 738.3 Q-2551.15 730.35 -2532.95 713.05 -2520.55 701.2 -2513.05 687.35 -2506.6 675.35 -2506.6 667.8 -2506.6 648.55 -2529.0 644.8 -2547.8 641.7 -2574.05 650.1 L-2574.05 391.85 -2558.2 392.9 Q-2516.05 392.9 -2488.5 370.9 -2476.95 361.65 -2470.5 350.15 -2464.4 339.25 -2464.4 328.95 -2464.4 307.6 -2485.0 305.25 -2502.8 303.2 -2530.25 315.35 -2555.2 326.35 -2574.05 342.55 L-2574.05 172.45 Q-2512.4 170.1 -2483.75 101.25 -2481.05 94.8 -2478.7 87.9 -2460.65 78.75 -2449.45 56.75 -2443.1 44.3 -2439.8 29.25 -2437.55 18.85 -2437.55 13.15 -2437.55 4.6 -2456.5 -27.15 -2474.9 -58.1 -2481.1 -62.05 L-2486.0 -65.3 -2490.35 -72.25 Q-2495.05 -79.55 -2495.05 -80.6 -2495.05 -90.0 -2453.0 -104.1 L-2442.3 -107.3 -2441.35 -105.9 M-1874.5 -58.3 Q-1874.5 -56.55 -1872.6 -53.55 -1870.45 -50.1 -1866.95 -47.1 -1857.4 -38.95 -1843.85 -38.95 -1808.55 -38.95 -1795.8 -55.2 -1788.25 -64.8 -1788.25 -83.3 -1788.25 -94.65 -1801.75 -96.35 -1813.55 -97.9 -1831.35 -91.85 -1848.55 -86.05 -1861.0 -76.8 -1874.5 -66.85 -1874.5 -58.3 M-2076.9 -106.1 Q-2086.5 -108.35 -2091.9 -108.7 -2108.3 -109.85 -2108.3 -96.2 -2108.3 -93.5 -2104.6 -89.05 -2099.2 -82.5 -2090.05 -82.5 -2081.95 -82.5 -2070.95 -90.1 -2060.75 -97.15 -2060.75 -100.5 -2060.75 -103.85 -2061.55 -103.7 L-2062.35 -102.9 -2076.9 -106.1 M-2375.1 -92.45 Q-2381.2 -92.55 -2384.6 -91.65 -2393.75 -89.35 -2393.75 -77.1 -2393.95 -73.75 -2391.7 -70.7 -2387.25 -64.75 -2374.9 -64.75 -2366.25 -64.75 -2355.95 -71.3 -2345.65 -77.85 -2345.65 -83.3 -2345.65 -89.25 -2346.7 -91.6 -2347.65 -93.75 -2349.95 -93.85 L-2355.7 -93.05 -2364.15 -92.15 -2375.1 -92.45 M321.65 -23.9 Q332.85 -31.8 348.9 -47.2 L372.45 -70.65 Q388.55 -86.75 411.25 -103.65 433.9 -120.5 454.7 -131.9 477.05 -144.15 490.1 -146.05 504.7 -148.2 504.7 -136.75 504.7 -130.4 491.85 -122.9 487.1 -120.1 477.65 -115.45 L460.05 -106.75 Q436.15 -94.65 419.55 -82.5 396.2 -65.5 380.55 -44.3 369.25 -29.0 350.9 -16.75 L355.75 -17.8 Q414.9 -30.35 456.5 -37.5 587.1 -59.85 809.45 -76.05 L893.05 -76.05 Q910.05 -74.25 991.4 -71.75 1011.35 -82.75 1034.85 -76.55 1053.85 -71.55 1077.75 -54.4 1088.7 -46.5 1118.2 -21.7 1141.9 -1.7 1154.25 5.1 1176.0 23.9 1188.2 36.55 1201.4 50.25 1208.4 61.8 1215.35 73.2 1218.15 85.8 1220.65 97.15 1220.65 113.65 1220.65 134.75 1221.45 178.15 1221.25 216.2 1216.35 243.2 1212.95 261.35 1206.15 279.85 1204.05 285.6 1194.0 309.7 1186.85 326.8 1183.8 338.45 1179.5 354.85 1179.5 371.95 1179.5 394.45 1185.9 419.95 1193.0 448.45 1206.75 474.55 1240.3 538.45 1302.05 569.75 L1316.6 569.75 Q1320.35 565.75 1323.2 563.9 1326.55 561.65 1329.75 561.65 1340.55 561.65 1343.75 575.2 1345.35 582.05 1344.8 589.35 1344.8 593.5 1335.2 645.15 1323.65 707.6 1311.3 762.2 1292.05 847.4 1276.45 889.5 L-300.6 889.5 Q-299.25 884.7 -298.2 879.65 -295.85 868.25 -295.85 857.85 -295.85 793.3 -333.25 758.35 -349.65 743.05 -371.65 735.5 -392.45 728.3 -415.6 728.9 -438.25 729.5 -459.55 737.4 -464.9 739.4 -469.9 741.75 L-469.8 741.6 Q-464.65 735.6 -464.65 731.0 -464.65 714.85 -485.4 707.7 -503.95 701.3 -531.0 704.2 -544.25 705.65 -555.55 708.9 -561.55 708.25 -566.1 709.15 -574.55 710.75 -576.45 717.3 L-576.65 717.4 Q-597.4 728.8 -597.4 744.15 -597.4 752.75 -590.95 757.85 -578.8 767.55 -545.0 767.55 -518.2 767.55 -497.7 759.6 L-497.95 759.8 Q-515.5 774.9 -525.05 794.9 -535.35 816.4 -535.35 841.45 -535.35 850.45 -532.25 864.8 -529.45 877.85 -524.85 889.5 L-974.15 889.5 -974.2 888.2 -973.95 885.9 -978.75 878.85 Q-983.35 871.7 -991.65 856.15 -999.75 841.05 -1004.35 833.95 -1011.9 822.35 -1019.9 815.35 L-1019.35 808.9 Q-1014.2 807.95 -1001.05 809.15 L-985.2 810.55 Q-957.8 810.55 -914.5 800.3 -871.4 790.15 -830.45 774.05 -811.95 766.8 -796.6 759.35 -799.25 762.8 -799.25 767.55 -799.25 772.5 -794.4 780.25 -788.95 789.0 -780.0 796.5 -756.4 816.45 -723.7 816.45 -702.6 816.45 -690.7 810.55 -677.25 803.9 -677.25 790.35 -677.25 778.9 -696.3 768.1 -713.65 758.3 -738.25 753.35 -763.2 748.3 -780.2 751.35 L-781.6 751.65 Q-769.65 745.1 -760.15 738.4 -730.7 717.75 -730.7 700.05 -730.7 684.05 -768.45 645.55 -787.35 626.3 -806.25 609.75 L-775.95 592.75 Q-742.45 573.85 -729.1 563.3 -716.85 553.6 -704.55 537.55 -694.4 524.25 -689.05 513.55 -682.85 501.1 -674.75 466.85 L-674.45 465.6 -681.3 460.15 Q-685.85 456.4 -685.85 455.25 -685.85 453.35 -673.05 445.8 L-669.85 444.0 Q-666.5 426.15 -666.5 416.25 -666.5 412.65 -669.95 399.85 L-673.45 387.25 -673.4 383.8 Q-673.2 384.05 -672.95 383.2 L-671.4 381.3 Q-670.45 380.55 -667.0 380.55 -656.0 384.45 -642.45 388.75 -615.3 397.35 -599.55 399.35 L-598.25 399.35 Q-571.5 380.3 -551.7 361.2 -530.0 340.25 -502.9 317.9 -469.3 290.2 -436.15 267.9 L-370.15 223.6 Q-328.95 196.85 -291.0 176.0 -189.15 120.0 -64.2 81.4 13.95 57.3 84.3 39.6 L149.8 23.5 230.05 3.45 244.35 0.75 270.0 -4.65 Q307.05 -13.5 321.65 -23.9 M-442.6 551.2 Q-442.6 528.55 -461.75 515.35 -479.2 503.3 -503.85 504.1 -529.0 504.9 -546.0 518.75 -565.15 534.35 -565.15 560.6 -565.15 564.85 -564.85 566.05 -563.75 570.35 -559.25 573.6 -545.95 583.15 -504.15 583.15 -466.45 583.15 -451.8 571.4 -442.6 564.0 -442.6 551.2 M323.6 595.15 Q285.95 602.7 259.3 624.8 230.05 649.05 230.05 679.1 230.05 690.55 240.3 698.5 259.55 713.5 310.4 713.5 314.1 713.5 321.2 712.05 321.25 715.85 321.55 717.5 322.6 723.55 326.6 728.05 338.35 741.2 374.6 741.2 420.2 741.2 445.95 720.55 L448.65 718.3 Q463.65 722.1 482.65 722.1 536.35 722.1 558.0 693.1 571.05 675.55 571.05 649.55 571.05 614.7 543.45 591.15 531.2 580.7 515.2 574.35 499.55 568.15 482.8 566.8 465.75 565.45 450.35 569.3 445.4 570.55 440.8 572.3 437.55 563.4 431.7 555.1 419.7 538.15 403.0 531.6 385.8 524.85 374.25 533.5 361.2 543.25 361.2 569.75 361.2 573.95 363.8 580.45 366.85 588.1 372.2 594.55 351.05 589.65 323.6 595.15 M62.5 730.55 Q36.05 732.35 18.95 745.95 -0.8 761.7 -0.8 788.75 L-0.65 793.9 Q0.1 798.7 3.25 802.55 12.9 814.3 42.7 814.3 79.15 814.3 104.3 795.55 114.45 787.9 120.3 778.8 125.75 770.3 125.75 763.25 125.75 747.35 106.0 737.85 87.25 728.85 62.5 730.55 M69.05 768.05 L70.65 766.45 Q78.05 760.95 80.6 761.6 L75.65 764.75 Q71.5 767.2 69.05 768.05 M66.5 529.3 Q55.25 530.55 47.95 537.05 39.5 544.5 39.5 556.55 L39.15 559.2 Q39.0 562.0 40.05 564.25 43.4 571.35 57.75 571.35 78.4 571.35 87.65 560.05 93.5 552.9 93.5 543.95 93.5 536.2 85.05 532.0 77.15 528.1 66.5 529.3 M231.65 591.6 Q212.4 585.3 184.35 589.4 156.5 593.5 137.05 605.25 115.55 618.25 115.55 634.75 115.55 643.05 120.95 648.5 131.55 659.2 160.4 659.2 195.1 659.2 224.1 645.75 237.55 639.55 245.15 632.0 253.15 624.05 253.15 616.2 253.15 598.65 231.65 591.6 M322.1 386.25 L315.35 386.55 315.5 386.25 Q321.65 375.8 321.65 367.9 321.65 347.1 298.3 338.25 276.7 330.05 246.95 335.65 216.1 341.45 195.6 358.95 172.25 378.95 172.25 407.15 172.25 415.75 180.25 422.2 192.95 432.4 222.5 432.4 255.65 432.4 280.8 418.55 L280.75 422.85 Q281.1 429.2 283.05 434.6 289.35 451.75 309.3 451.75 338.65 451.75 352.65 441.6 363.35 433.85 363.35 422.2 363.35 405.05 350.45 395.2 339.0 386.4 322.1 386.25 M542.75 323.35 Q545.55 318.65 545.55 316.3 545.55 306.35 536.85 302.9 528.95 299.75 517.75 303.05 506.35 306.4 498.6 314.4 489.9 323.35 489.9 334.55 489.9 337.8 492.05 340.65 496.15 346.15 506.3 346.15 521.8 346.15 534.8 333.35 539.6 328.6 542.75 323.35 M782.1 569.05 Q762.6 559.2 736.1 560.85 708.35 562.55 690.05 576.15 669.15 591.75 669.15 617.85 L669.4 624.15 Q670.3 631.3 673.55 637.25 683.95 656.0 714.05 656.0 L721.5 655.85 715.25 657.3 Q695.75 662.5 682.1 673.45 668.2 684.6 667.1 696.9 L665.95 697.1 Q649.85 700.0 639.15 708.25 626.95 717.6 626.95 730.45 626.95 738.8 630.45 743.4 637.35 752.5 657.35 752.5 677.95 752.5 693.45 732.6 700.1 724.05 703.75 715.0 726.85 713.6 745.75 699.0 753.85 692.7 758.85 685.65 763.5 679.05 763.5 674.8 763.5 660.3 748.4 655.9 742.95 654.3 736.5 654.25 762.05 650.05 780.5 635.65 791.35 627.2 797.35 616.75 803.0 606.95 803.0 597.95 803.0 579.65 782.1 569.05 M672.0 560.1 Q681.45 552.35 687.4 543.65 692.8 535.75 692.8 531.05 692.8 514.15 675.1 509.35 659.4 505.0 636.25 511.3 613.45 517.5 597.35 530.1 579.65 543.9 579.65 558.7 579.65 565.85 584.05 570.8 592.65 580.5 615.7 580.5 647.05 580.5 672.0 560.1 M657.4 466.45 Q661.1 457.3 661.1 450.4 661.1 442.8 653.3 433.8 645.8 425.15 632.65 416.9 603.95 398.85 570.15 393.8 531.35 388.0 507.6 404.1 479.15 423.4 479.15 470.85 479.15 485.85 492.2 497.45 513.0 516.0 560.85 516.0 615.8 516.0 642.95 488.35 652.5 478.55 657.4 466.45 M807.55 350.45 Q789.2 345.55 760.8 355.1 734.2 364.05 714.05 380.05 692.8 396.95 692.8 411.15 L692.7 418.1 Q693.4 423.8 697.95 428.1 711.55 441.0 758.1 441.0 793.2 441.0 813.8 414.95 821.15 405.7 825.4 394.6 828.8 385.7 828.8 380.25 828.8 356.1 807.55 350.45 M-630.2 404.15 L-656.25 399.35 Q-658.85 410.7 -660.5 425.8 L-661.7 439.3 -640.55 426.85 Q-624.95 417.5 -611.05 408.2 -618.8 406.4 -630.2 404.15 M-2377.05 804.35 Q-2377.05 795.55 -2385.0 792.5 -2392.05 789.8 -2402.45 792.35 -2412.65 794.85 -2419.9 800.85 -2427.85 807.35 -2427.85 814.85 -2427.85 819.45 -2426.0 821.35 -2421.9 825.6 -2408.25 825.6 -2391.65 825.6 -2382.95 816.5 -2377.05 810.25 -2377.05 804.35 M-2229.3 604.15 L-2229.25 604.15 Q-2227.45 604.15 -2226.0 605.5 L-2229.3 604.15 M-2144.85 548.55 L-2141.65 547.6 -2141.65 548.3 -2144.85 548.55 M-2284.1 549.05 Q-2285.05 552.35 -2283.6 555.15 -2280.85 560.6 -2269.05 560.6 -2261.65 560.6 -2254.55 555.3 -2247.55 550.05 -2247.55 544.75 -2247.55 540.25 -2253.25 536.75 -2258.75 533.4 -2265.8 533.1 -2273.5 532.7 -2278.4 536.3 -2284.1 540.5 -2284.1 549.05 M-2409.85 549.4 Q-2425.45 563.3 -2425.45 581.3 -2425.6 585.8 -2421.75 589.8 -2414.2 597.7 -2394.25 597.7 L-2382.75 597.2 Q-2383.5 599.45 -2383.5 601.7 -2383.05 608.65 -2378.8 615.05 -2370.45 627.8 -2351.55 627.8 -2343.4 627.8 -2336.35 626.0 L-2337.65 628.45 Q-2340.8 635.35 -2340.8 646.05 -2340.8 649.95 -2336.95 660.15 -2331.7 674.0 -2323.1 685.65 -2297.0 721.05 -2251.85 721.05 -2215.85 721.05 -2200.05 713.35 -2195.15 710.95 -2188.4 705.75 -2180.85 699.95 -2176.3 697.4 L-2172.3 710.55 Q-2168.95 721.5 -2164.4 729.0 -2150.15 752.5 -2119.05 752.5 -2063.85 752.5 -2041.45 691.5 -2034.25 671.75 -2031.25 647.5 -2029.6 634.0 -2029.6 623.2 -2029.6 602.7 -2049.55 582.6 -2062.55 569.5 -2079.65 561.1 L-2074.8 556.8 Q-2067.3 549.7 -2062.6 541.9 -2058.05 534.35 -2058.05 529.4 -2058.05 519.55 -2071.1 514.05 -2083.5 508.85 -2099.85 510.45 -2117.3 512.15 -2128.6 521.05 -2135.1 526.2 -2138.35 533.0 -2172.25 532.4 -2193.4 548.75 -2206.1 558.6 -2212.55 573.5 -2214.45 577.85 -2215.65 582.1 -2221.25 587.55 -2226.55 593.9 L-2259.45 596.7 -2282.9 595.85 Q-2294.25 596.4 -2303.75 598.55 L-2301.35 593.1 -2298.85 585.85 Q-2319.0 576.3 -2336.2 575.1 -2331.15 569.05 -2328.25 561.95 -2325.75 555.85 -2325.75 552.25 -2325.75 537.5 -2341.35 532.15 -2355.6 527.25 -2375.6 532.1 -2396.1 537.05 -2409.85 549.4 M-2463.95 32.0 Q-2465.65 36.9 -2467.9 41.4 -2465.55 25.3 -2465.05 11.2 -2461.75 20.5 -2461.75 24.15 -2461.75 25.7 -2463.95 32.0 M-2316.55 87.45 Q-2324.15 90.85 -2324.15 95.65 -2324.15 100.35 -2320.9 103.7 -2314.6 110.15 -2298.05 110.15 -2287.45 110.15 -2280.9 104.75 -2275.5 100.25 -2275.5 95.1 -2275.5 89.05 -2283.1 86.05 -2289.8 83.4 -2299.8 83.9 -2309.55 84.35 -2316.55 87.45 M-2197.3 285.65 Q-2200.8 283.95 -2214.25 280.1 -2231.65 275.15 -2248.1 272.2 -2297.75 263.3 -2314.45 277.05 -2352.05 308.05 -2366.2 327.9 -2382.45 350.75 -2382.45 377.55 -2382.45 393.1 -2372.45 405.45 -2384.6 406.45 -2399.65 411.35 -2424.9 419.5 -2443.45 433.35 -2463.35 448.2 -2463.35 461.15 -2464.55 466.45 -2461.25 471.25 -2454.65 480.75 -2431.9 480.75 -2420.95 480.75 -2405.0 476.75 -2388.25 472.6 -2373.35 465.8 -2356.6 458.15 -2347.0 449.25 -2336.0 439.15 -2335.95 428.75 -2308.85 437.75 -2266.9 437.75 -2209.2 437.75 -2180.2 396.2 -2169.75 381.2 -2164.35 362.5 -2160.2 348.0 -2160.2 336.45 -2160.2 320.15 -2166.25 310.85 -2173.9 299.05 -2197.3 285.65 M-2222.7 142.85 Q-2218.25 136.7 -2218.25 131.95 -2218.25 120.1 -2233.45 116.35 -2247.2 113.0 -2266.9 117.3 -2286.75 121.6 -2300.35 131.1 -2307.9 136.4 -2311.7 142.15 -2321.3 141.05 -2332.2 141.6 -2359.05 142.9 -2377.1 153.35 -2397.5 165.15 -2397.5 184.35 -2397.5 196.0 -2391.6 203.55 -2380.5 217.95 -2350.45 217.95 -2318.0 217.95 -2291.05 201.1 -2279.95 194.2 -2273.35 186.3 -2266.9 178.65 -2266.9 172.8 -2266.9 170.15 -2267.45 167.7 -2249.75 164.25 -2236.3 155.35 -2227.65 149.65 -2222.7 142.85 M-2185.45 86.8 Q-2180.15 94.3 -2169.35 94.3 -2156.4 94.3 -2148.25 85.8 -2141.65 78.9 -2141.65 72.0 -2141.65 60.3 -2149.0 56.9 -2155.25 53.95 -2165.15 57.45 -2174.15 60.55 -2181.35 66.95 -2188.7 73.45 -2188.7 78.7 -2188.7 82.25 -2185.45 86.8 M-2003.85 196.65 Q-2001.9 188.0 -2001.9 182.2 -2001.9 157.55 -2021.65 145.75 -2039.15 135.25 -2065.05 138.1 -2090.45 140.9 -2108.45 154.65 -2128.2 169.75 -2128.2 190.8 L-2127.3 200.85 Q-2125.6 212.45 -2121.2 222.15 -2107.2 252.85 -2072.05 252.85 -2031.3 252.85 -2012.9 220.55 -2006.75 209.8 -2003.85 196.65 M-1390.6 712.15 Q-1399.85 713.95 -1406.25 719.5 -1413.35 725.65 -1413.35 733.65 -1413.9 736.9 -1412.25 740.1 -1409.05 746.55 -1398.3 746.55 -1388.6 746.55 -1377.55 736.9 -1373.5 733.4 -1370.55 729.65 -1367.9 726.25 -1367.9 725.05 -1367.9 716.8 -1375.0 713.35 -1381.35 710.3 -1390.6 712.15 M-1398.3 627.3 Q-1406.0 624.9 -1416.7 626.9 -1427.7 629.0 -1435.1 634.7 -1443.45 641.1 -1443.45 649.8 -1444.2 653.9 -1442.4 657.5 -1438.9 664.6 -1426.25 664.6 -1414.5 664.6 -1401.55 652.85 -1396.5 648.3 -1393.15 643.5 -1389.95 638.95 -1389.95 636.65 -1389.95 629.95 -1398.3 627.3 M-1535.9 779.1 L-1536.25 781.85 Q-1536.45 784.75 -1535.4 787.05 -1532.2 794.4 -1518.4 794.4 -1505.0 794.4 -1498.0 782.1 -1493.15 773.55 -1493.15 765.1 -1493.15 758.6 -1499.85 756.2 -1506.0 754.0 -1514.5 756.2 -1523.35 758.45 -1529.2 764.15 -1535.9 770.6 -1535.9 779.1 M-1445.1 487.75 Q-1439.15 479.8 -1439.15 472.45 -1439.15 465.3 -1446.75 462.25 -1453.8 459.4 -1463.45 461.35 -1473.55 463.35 -1480.2 469.55 -1487.8 476.6 -1487.8 486.7 -1487.8 490.35 -1485.65 493.2 -1481.1 499.05 -1468.95 499.05 -1453.5 499.05 -1445.1 487.75 M-1305.85 420.55 Q-1309.65 420.0 -1313.35 414.4 L-1320.3 403.55 Q-1325.2 397.25 -1331.65 395.4 -1340.0 392.95 -1352.35 397.2 -1372.25 403.9 -1380.6 413.2 -1387.25 420.65 -1387.25 431.05 -1387.85 435.85 -1384.6 439.95 -1378.2 448.0 -1358.8 448.0 -1345.8 448.0 -1326.15 435.6 -1314.95 428.55 -1305.85 420.55 M-1937.15 539.7 Q-1931.75 533.35 -1931.75 526.75 -1931.75 516.7 -1940.7 510.3 -1948.85 504.5 -1960.35 504.25 -1972.1 503.95 -1980.05 509.7 -1989.0 516.25 -1989.0 528.05 L-1989.4 532.0 Q-1989.45 535.85 -1987.45 538.85 -1981.3 548.25 -1957.3 548.25 -1944.4 548.25 -1937.15 539.7 M-1742.0 523.75 L-1742.8 524.8 Q-1746.3 522.05 -1752.6 520.25 -1765.3 516.65 -1783.65 518.0 -1801.95 519.35 -1814.7 524.8 -1828.8 530.9 -1828.8 539.35 -1828.8 542.7 -1828.45 543.75 -1827.65 546.45 -1824.55 548.25 -1816.1 553.05 -1788.25 553.05 -1769.1 553.05 -1754.15 547.2 -1757.05 556.5 -1758.0 567.3 -1758.65 574.55 -1759.2 588.85 -1759.9 601.65 -1761.9 610.05 L-1786.3 606.05 Q-1803.25 603.3 -1812.85 602.4 -1851.7 610.0 -1871.65 618.4 -1906.5 633.1 -1906.5 658.15 -1906.5 664.9 -1905.4 668.5 -1903.45 674.8 -1897.4 679.2 -1881.25 690.95 -1833.1 690.95 -1802.1 690.95 -1791.3 683.45 -1789.75 682.35 -1785.85 678.25 -1783.6 675.9 -1780.7 675.9 -1777.35 675.9 -1776.8 676.45 L-1776.95 676.95 -1775.9 680.2 Q-1780.2 685.3 -1792.0 696.35 -1801.7 706.55 -1801.7 714.3 -1801.7 716.85 -1792.3 724.05 -1781.7 732.2 -1766.8 739.65 L-1760.75 742.6 Q-1777.95 737.7 -1800.05 740.25 -1827.4 743.45 -1845.3 756.5 -1865.9 771.5 -1865.9 794.65 -1865.9 801.75 -1859.0 808.35 -1847.2 819.65 -1820.2 819.65 -1780.35 819.65 -1755.55 801.9 -1745.15 794.5 -1739.5 785.2 -1734.2 776.45 -1734.2 768.05 -1734.2 756.15 -1746.1 748.75 -1714.8 760.55 -1683.15 760.55 -1639.25 760.55 -1624.3 735.8 -1619.55 727.9 -1618.25 718.15 -1617.85 715.25 -1617.85 708.65 -1617.85 699.4 -1618.9 694.55 -1620.2 688.85 -1623.8 684.25 -1627.25 679.8 -1635.0 673.8 -1639.95 669.9 -1654.95 659.2 -1654.95 657.9 -1653.9 656.4 -1652.7 654.75 -1651.2 654.4 -1639.35 654.05 -1619.05 654.45 L-1597.45 654.9 -1592.6 654.85 -1591.25 654.4 Q-1527.05 639.15 -1503.15 617.35 -1492.55 607.7 -1488.2 595.6 -1484.55 585.6 -1484.55 571.6 -1484.55 568.15 -1487.05 566.2 -1488.35 565.2 -1494.75 562.2 L-1522.9 560.75 -1534.55 560.05 -1549.65 561.6 Q-1560.6 563.1 -1566.0 564.35 L-1566.0 563.3 Q-1561.8 556.25 -1559.9 546.35 -1558.45 538.9 -1558.45 531.05 -1558.45 523.95 -1566.45 518.2 -1546.6 511.6 -1531.6 495.8 -1522.55 486.25 -1517.0 475.0 -1512.5 465.9 -1512.5 461.15 -1512.5 447.55 -1529.8 446.4 -1545.25 445.35 -1567.85 454.05 -1590.25 462.65 -1605.95 475.45 -1623.25 489.6 -1623.25 502.0 L-1623.3 502.25 -1639.85 501.1 Q-1674.0 499.6 -1701.65 505.15 -1732.15 511.2 -1742.0 523.75 M-1703.05 383.4 Q-1714.4 385.2 -1722.25 392.15 -1731.0 399.9 -1731.0 410.65 -1731.0 416.75 -1728.35 420.4 -1721.95 429.15 -1702.5 429.15 -1688.35 429.15 -1680.55 417.2 -1675.1 408.85 -1675.1 401.75 -1675.1 391.0 -1683.85 386.05 -1691.7 381.6 -1703.05 383.4 M-1889.05 282.7 L-1892.5 286.0 Q-1894.5 288.15 -1897.9 289.4 -1904.0 274.15 -1928.6 267.3 -1952.35 260.7 -1979.9 265.35 -2009.55 270.3 -2028.1 286.3 -2049.45 304.65 -2049.45 332.95 -2049.55 337.4 -2048.95 341.8 -2058.65 340.9 -2070.8 343.6 -2089.5 347.65 -2102.5 357.5 -2116.9 368.4 -2116.9 381.35 -2116.3 388.65 -2112.65 395.5 -2105.5 409.0 -2090.3 409.0 -2065.55 409.0 -2043.65 389.75 -2036.85 383.8 -2032.05 377.4 -2018.35 390.2 -1994.9 390.2 L-1987.3 389.55 -1982.55 389.65 Q-1986.3 397.7 -1985.2 409.95 -1983.85 424.75 -1975.3 437.15 -1951.85 471.1 -1886.6 471.1 -1853.5 471.1 -1826.95 455.8 -1805.0 443.15 -1788.75 420.9 -1776.0 403.45 -1768.45 382.8 -1762.45 366.5 -1762.45 357.95 -1762.75 352.45 -1764.65 344.95 -1768.4 330.2 -1776.5 318.0 -1802.15 279.2 -1861.05 279.2 -1883.65 279.2 -1889.05 282.7 M-1905.6 39.1 Q-1913.55 33.1 -1924.9 32.65 -1936.4 32.2 -1944.2 37.75 -1953.0 44.05 -1953.0 55.6 -1954.15 60.85 -1950.85 66.9 -1944.15 79.25 -1922.1 79.25 -1905.85 79.25 -1899.95 69.7 -1896.8 64.55 -1896.8 55.9 -1896.8 45.65 -1905.6 39.1 M-1719.15 172.0 Q-1719.15 160.7 -1727.3 149.65 -1734.95 139.25 -1748.75 130.3 -1776.95 112.0 -1813.9 107.6 -1853.55 102.9 -1879.05 118.0 -1908.65 135.55 -1908.65 175.45 -1908.65 182.1 -1905.95 189.85 -1901.9 201.2 -1893.1 210.2 -1867.65 236.2 -1809.45 236.2 -1763.25 236.2 -1737.2 207.5 -1728.25 197.65 -1723.1 185.85 -1719.15 176.85 -1719.15 172.0 M-1692.3 39.2 Q-1692.3 30.15 -1697.5 27.25 -1702.1 24.7 -1708.95 27.5 -1715.6 30.2 -1720.4 36.15 -1725.6 42.6 -1725.6 49.45 -1726.25 52.35 -1725.05 54.7 -1722.7 59.35 -1713.25 59.35 -1705.95 59.35 -1698.75 51.3 -1692.3 44.1 -1692.3 39.2 M-1303.4 245.35 Q-1297.75 235.85 -1297.75 228.95 -1297.75 213.8 -1317.05 201.3 -1335.75 189.2 -1359.55 187.55 -1385.6 185.7 -1402.1 198.3 -1421.4 213.05 -1421.4 244.25 -1421.4 249.05 -1418.9 255.1 -1415.9 262.5 -1410.2 268.45 -1394.8 284.6 -1366.3 284.6 -1341.3 284.6 -1318.5 263.65 -1309.1 255.0 -1303.4 245.35 M-1552.75 183.5 Q-1569.7 167.7 -1593.1 163.1 -1617.3 158.3 -1633.4 168.8 -1651.7 180.75 -1651.7 208.8 L-1651.9 221.05 Q-1651.8 227.75 -1650.2 232.3 -1646.05 244.25 -1627.55 253.4 -1664.0 265.85 -1677.3 286.25 -1686.4 300.1 -1686.4 323.3 -1683.1 338.3 -1672.5 352.75 -1651.3 381.6 -1614.65 381.6 -1597.4 381.6 -1576.85 371.55 -1562.1 364.3 -1556.85 359.05 L-1551.25 351.8 -1546.1 344.5 Q-1543.8 341.85 -1541.4 341.1 L-1536.35 340.75 Q-1526.9 341.25 -1518.95 338.6 -1477.05 324.55 -1477.05 280.55 -1477.1 260.35 -1484.3 244.3 -1498.45 212.7 -1534.25 221.95 -1534.35 200.6 -1552.75 183.5 M-1275.2 784.75 Q-1275.2 767.65 -1294.2 761.1 -1311.2 755.25 -1335.9 759.85 -1360.55 764.4 -1377.65 776.45 -1396.65 789.85 -1396.65 806.5 -1396.65 815.4 -1389.5 820.3 -1377.0 828.8 -1342.65 828.8 -1319.65 828.8 -1296.1 810.6 -1286.95 803.5 -1280.95 795.95 -1275.2 788.7 -1275.2 784.75 M-1123.55 494.1 Q-1122.0 489.2 -1122.0 486.95 -1122.0 466.3 -1139.25 452.75 -1154.8 440.6 -1177.2 438.8 -1199.65 437.0 -1215.2 446.65 -1232.45 457.45 -1232.45 478.1 -1232.45 481.8 -1228.35 488.0 -1223.3 495.75 -1214.7 502.25 -1190.4 520.55 -1149.95 520.55 -1137.05 520.55 -1128.4 505.45 -1125.45 500.25 -1123.55 494.1 M-1159.3 280.5 Q-1174.5 275.8 -1196.45 282.55 -1218.35 289.35 -1233.55 303.35 -1250.45 318.95 -1250.45 336.45 -1250.45 343.45 -1246.0 347.85 -1237.9 355.8 -1216.35 355.8 -1188.7 355.8 -1163.5 332.75 -1154.35 324.4 -1148.05 315.2 -1142.45 307.1 -1142.45 303.65 -1142.45 285.8 -1159.3 280.5 M-213.15 731.8 Q-213.1 735.3 -211.25 738.15 -205.45 747.1 -184.05 747.1 -157.45 747.1 -143.8 730.45 -139.05 724.6 -136.5 717.4 L-135.9 715.55 -132.75 715.65 Q-99.1 715.65 -78.55 698.95 -70.95 692.8 -66.55 685.4 -62.85 679.15 -62.85 674.8 -62.85 660.35 -78.2 653.65 -91.95 647.65 -111.9 649.95 -131.8 652.25 -145.6 661.35 -160.95 671.45 -160.95 685.55 L-161.25 690.6 -161.25 690.9 Q-167.05 691.25 -173.7 692.95 -189.65 697.0 -200.6 706.15 -212.85 716.4 -212.85 728.55 L-213.15 731.8 M-567.95 577.9 Q-586.15 578.7 -598.15 586.8 -611.9 596.05 -611.9 611.9 -613.6 616.85 -610.35 621.25 -603.9 629.95 -579.15 629.95 -554.7 629.95 -538.6 620.35 -524.05 611.7 -524.05 600.9 -524.05 589.8 -537.8 583.25 -550.55 577.1 -567.95 577.9" fill="#840084" fill-opacity="0.11764706" fill-rule="evenodd" stroke="none"/>
  </g>
</svg>
