<?xml version="1.0" encoding="UTF-8" standalone="no"?>
<svg xmlns:ffdec="https://www.free-decompiler.com/flash" xmlns:xlink="http://www.w3.org/1999/xlink" ffdec:objectType="shape" height="464.25px" width="1685.75px" xmlns="http://www.w3.org/2000/svg">
  <g transform="matrix(1.0, 0.0, 0.0, 1.0, -553.1, 1121.25)">
    <path d="M1756.85 -1117.75 Q1758.15 -1113.9 1762.4 -1114.0 1767.15 -1114.15 1769.1 -1111.0 1770.05 -1109.45 1770.05 -1105.9 L1769.85 -1100.85 1769.6 -1090.75 Q1769.0 -1090.35 1767.25 -1090.4 1765.45 -1090.45 1764.35 -1091.0 L1763.15 -1087.6 1762.1 -1084.25 1762.65 -1084.4 1764.85 -1084.75 Q1769.0 -1084.75 1769.85 -1080.15 L1769.85 -1075.25 Q1769.85 -1070.1 1769.35 -1069.45 1768.75 -1068.7 1760.85 -1064.0 1760.85 -1057.75 1758.85 -1046.8 1756.85 -1035.85 1756.85 -1029.6 1756.85 -1028.55 1760.85 -1021.75 1765.2 -1014.3 1766.35 -1009.0 L1766.85 -1009.0 1766.85 -1018.0 Q1767.0 -1018.0 1767.45 -1018.35 1767.9 -1018.75 1769.35 -1018.75 1771.95 -1018.75 1774.65 -1008.5 L1776.85 -998.0 1776.6 -993.35 1776.25 -992.95 Q1775.85 -992.6 1774.35 -992.6 1772.8 -992.6 1771.85 -993.65 L1770.85 -995.1 1770.85 -986.85 1769.9 -986.4 1768.35 -985.6 Q1766.5 -987.45 1766.2 -988.25 1765.95 -988.75 1765.85 -989.85 L1765.6 -991.1 Q1763.5 -987.0 1760.6 -964.1 1759.45 -955.2 1758.8 -948.45 L1759.85 -948.6 Q1762.35 -948.6 1762.85 -941.35 L1762.85 -933.85 1762.6 -919.6 1761.75 -919.2 Q1760.9 -918.75 1760.35 -918.6 L1759.55 -919.25 Q1760.3 -916.25 1761.35 -913.35 1762.75 -909.55 1763.6 -905.55 1764.85 -906.15 1766.85 -906.35 1766.35 -908.6 1765.85 -913.45 1765.35 -918.35 1764.85 -920.6 L1764.85 -930.35 1765.25 -930.95 Q1765.8 -931.6 1767.35 -931.6 1769.5 -931.6 1770.9 -917.6 L1771.85 -903.35 Q1771.75 -897.4 1770.9 -892.1 1769.2 -881.6 1765.35 -881.6 1763.45 -881.6 1761.7 -883.65 L1760.85 -883.6 1758.55 -883.85 Q1758.35 -883.95 1758.1 -884.1 1757.7 -889.55 1755.45 -895.85 1752.65 -903.75 1751.85 -907.6 L1751.85 -909.7 Q1750.1 -914.4 1749.4 -920.65 1748.9 -925.35 1748.85 -932.9 1746.1 -940.6 1745.8 -953.15 1743.25 -956.3 1742.75 -961.8 1740.55 -962.65 1740.6 -965.0 L1741.6 -969.6 1738.05 -972.8 Q1737.85 -972.95 1737.85 -973.5 1737.85 -978.1 1740.85 -1006.25 1740.85 -1007.5 1739.85 -1009.05 1738.85 -1010.6 1738.85 -1011.85 1738.85 -1018.6 1741.35 -1026.05 L1743.35 -1031.25 1742.85 -1034.35 1742.55 -1041.55 Q1742.55 -1047.45 1743.85 -1050.25 1744.65 -1051.85 1746.55 -1057.8 L1747.95 -1061.3 1747.85 -1061.5 Q1748.15 -1065.2 1750.15 -1074.3 1752.1 -1083.15 1752.35 -1087.0 1752.55 -1090.25 1753.0 -1092.75 L1751.55 -1093.0 1751.1 -1093.25 1750.4 -1102.15 Q1749.85 -1107.75 1749.85 -1109.0 1749.85 -1117.15 1750.35 -1119.0 1751.7 -1124.05 1756.85 -1117.75 M1750.05 -978.15 Q1752.5 -970.95 1753.1 -964.85 L1754.6 -964.85 1755.1 -982.85 1750.45 -1001.55 Q1749.85 -991.0 1749.85 -983.5 L1750.05 -978.15" fill="#91999b" fill-rule="evenodd" stroke="none"/>
    <path d="M1036.1 -873.35 Q1032.6 -873.35 1030.2 -874.55 1029.4 -874.95 1028.0 -876.1 1028.85 -878.15 1037.05 -883.95 1042.35 -887.75 1045.05 -890.1 L1058.25 -890.1 1054.25 -885.35 1051.9 -882.8 Q1054.55 -879.85 1063.0 -876.1 1072.5 -871.9 1072.5 -869.25 1072.5 -867.05 1066.5 -865.1 1061.8 -863.6 1060.25 -863.6 1053.9 -863.6 1046.8 -870.85 L1043.0 -875.5 Q1039.25 -873.35 1036.1 -873.35 M655.35 -702.15 Q636.65 -694.85 630.1 -694.85 626.85 -694.85 625.3 -695.75 L625.1 -695.35 Q623.95 -696.05 621.75 -699.0 L620.05 -701.5 619.65 -701.85 Q619.1 -702.45 619.1 -704.1 L619.75 -704.9 619.85 -705.1 620.45 -705.35 Q625.3 -708.2 647.65 -715.15 675.55 -723.85 680.1 -723.85 684.35 -723.85 685.45 -720.85 685.85 -719.35 686.2 -718.8 686.7 -717.85 687.85 -717.85 694.4 -717.85 702.8 -722.15 710.75 -726.25 712.1 -726.1 L712.6 -725.25 Q713.1 -724.55 713.1 -723.1 713.1 -716.6 704.35 -714.15 697.2 -712.1 680.6 -712.1 L673.65 -711.1 Q671.95 -708.65 655.35 -702.15 M605.6 -707.05 Q614.85 -709.95 614.85 -704.0 614.85 -702.2 611.6 -699.15 607.6 -695.35 602.5 -695.35 599.2 -695.35 597.65 -696.5 586.2 -694.2 557.1 -694.85 554.2 -695.5 553.4 -696.85 553.1 -697.4 553.1 -699.1 553.1 -701.6 553.45 -702.1 554.1 -703.0 557.1 -703.15 561.45 -703.35 589.1 -702.85 593.1 -702.85 599.8 -704.3 602.35 -706.0 605.6 -707.05" fill="#989578" fill-rule="evenodd" stroke="none"/>
    <path d="M832.5 -667.2 L792.4 -665.4 785.2 -665.0 Q761.6 -677.95 738.3 -686.2 728.8 -689.55 720.4 -691.75 723.45 -695.7 727.3 -697.1 732.25 -698.85 740.3 -696.8 745.1 -695.55 756.0 -691.85 766.4 -688.75 774.5 -688.75 787.3 -688.75 798.05 -692.25 L805.15 -694.65 Q808.75 -695.75 811.5 -695.75 826.55 -695.75 831.5 -672.7 L832.5 -667.2 M2238.85 -712.1 L2238.5 -710.55 Q2236.9 -702.35 2236.55 -692.0 2234.25 -690.35 2232.55 -688.05 2228.5 -682.55 2228.5 -676.0 2228.5 -672.6 2229.8 -668.6 2231.6 -662.95 2235.0 -661.0 2220.05 -662.3 2211.35 -657.0 L2210.5 -658.0 Q2204.25 -665.25 2195.15 -667.1 2188.85 -668.35 2178.15 -667.1 L2161.3 -665.55 Q2153.0 -665.65 2147.55 -669.25 L2158.55 -677.1 Q2171.2 -686.25 2180.05 -691.65 2208.45 -709.05 2233.0 -711.25 L2238.85 -712.1" fill="#a5a289" fill-rule="evenodd" stroke="none"/>
  </g>
</svg>
