<?xml version="1.0" encoding="UTF-8" standalone="no"?>
<svg xmlns:ffdec="https://www.free-decompiler.com/flash" xmlns:xlink="http://www.w3.org/1999/xlink" ffdec:objectType="shape" height="400.25px" width="488.2px" xmlns="http://www.w3.org/2000/svg">
  <g transform="matrix(1.0, 0.0, 0.0, 1.0, 227.45, -58.5)">
    <path d="M254.5 71.25 L254.25 77.05 253.75 84.1 253.75 125.25 Q253.25 127.15 252.75 130.9 252.25 134.65 251.75 136.5 L251.75 184.6 253.0 194.45 Q257.0 225.0 257.0 228.85 257.0 241.7 252.95 300.95 257.85 306.45 259.3 313.1 260.0 316.4 260.0 330.35 L259.95 332.45 Q260.75 337.2 260.75 343.1 260.75 345.1 257.05 360.7 L253.35 376.3 Q254.2 382.65 255.3 394.75 256.75 410.8 256.75 414.25 L256.65 424.75 Q258.75 448.7 258.75 456.25 L258.6 458.0 258.25 458.25 258.55 458.5 257.0 458.75 Q256.5 458.75 255.75 454.0 L255.5 455.75 Q251.8 428.3 250.4 414.2 248.25 392.2 248.25 373.35 248.25 369.75 249.45 365.75 L252.15 357.95 Q254.35 351.3 255.3 343.5 255.4 334.0 255.85 327.8 255.2 320.2 251.65 310.25 L249.0 303.75 248.5 303.05 248.3 301.95 247.25 298.75 Q247.25 297.2 247.45 296.95 L248.25 296.5 248.45 296.7 250.65 267.7 Q253.0 237.75 253.0 229.1 L249.0 197.25 248.55 193.4 247.5 193.25 247.2 181.75 Q245.0 161.55 245.0 151.85 L246.05 134.65 247.5 108.25 247.55 108.25 Q247.25 106.75 247.25 105.75 247.25 96.35 248.9 80.85 L249.8 73.4 250.25 61.75 Q251.25 61.8 252.05 62.2 252.5 60.85 253.0 60.25 254.35 61.35 254.65 63.4 L254.75 66.35 254.65 70.0 254.5 71.0 254.5 71.25 M-221.2 69.5 L-221.2 69.25 -221.35 68.25 -221.45 64.6 -221.35 61.65 Q-221.05 59.6 -219.7 58.5 -219.2 59.1 -218.75 60.45 -217.95 60.05 -216.95 60.0 L-216.5 71.65 -215.6 79.1 Q-213.95 94.6 -213.95 104.0 -213.95 105.0 -214.25 106.5 L-214.2 106.5 -212.75 132.9 -211.7 150.1 Q-211.7 159.8 -213.9 180.0 L-214.2 191.5 -215.25 191.65 -215.7 195.5 -219.7 227.35 Q-219.7 236.0 -217.35 265.95 L-215.15 294.95 -214.95 294.75 -214.15 295.2 Q-213.95 295.45 -213.95 297.0 -213.95 297.45 -215.0 300.2 L-215.2 301.3 -215.7 302.0 -218.35 308.5 Q-221.9 318.45 -222.55 326.05 -222.1 332.25 -222.0 341.75 -221.05 349.55 -218.85 356.2 L-216.15 364.0 Q-214.95 368.0 -214.95 371.6 -214.95 390.45 -217.1 412.45 -218.5 426.55 -222.2 454.0 L-222.45 452.25 Q-223.2 457.0 -223.7 457.0 L-225.25 456.75 -224.95 456.5 -225.3 456.25 -225.45 454.5 Q-225.45 446.95 -223.35 423.0 L-223.45 412.5 Q-223.45 409.05 -222.0 393.0 -220.9 380.9 -220.05 374.55 L-223.75 358.95 Q-227.45 343.35 -227.45 341.35 -227.45 335.45 -226.65 330.7 L-226.7 328.6 Q-226.7 314.65 -226.0 311.35 -224.55 304.7 -219.65 299.2 -223.7 239.95 -223.7 227.1 -223.7 223.25 -219.7 192.7 L-218.45 182.85 -218.45 134.75 Q-218.95 132.9 -219.45 129.15 -219.95 125.4 -220.45 123.5 L-220.45 82.35 -220.95 75.3 -221.2 69.5" fill="#333333" fill-rule="evenodd" stroke="none"/>
  </g>
</svg>
