<?xml version="1.0" encoding="UTF-8" standalone="no"?>
<svg xmlns:ffdec="https://www.free-decompiler.com/flash" xmlns:xlink="http://www.w3.org/1999/xlink" ffdec:objectType="shape" height="321.1px" width="1685.75px" xmlns="http://www.w3.org/2000/svg">
  <g transform="matrix(1.0, 0.0, 0.0, 1.0, -553.1, 978.1)">
    <path d="M948.5 -912.65 Q947.5 -913.3 947.5 -915.6 947.5 -917.05 954.7 -926.5 962.65 -936.9 972.0 -947.1 998.5 -976.1 1010.75 -976.1 1014.2 -976.1 1014.85 -974.2 1015.45 -972.35 1015.75 -972.35 L1028.3 -975.15 Q1039.7 -977.95 1045.25 -978.1 1049.85 -976.9 1056.45 -976.2 L1056.25 -973.25 Q1056.4 -971.2 1057.2 -968.25 1058.5 -963.8 1060.8 -959.9 L1051.8 -958.45 Q1047.55 -957.45 1038.65 -953.95 1028.85 -950.1 1017.75 -947.1 1011.35 -945.4 992.85 -933.55 L980.4 -925.25 974.75 -918.85 974.5 -918.6 Q976.25 -917.9 981.2 -917.45 L990.65 -916.6 Q1003.05 -915.15 1005.75 -910.1 1004.9 -907.6 1002.25 -907.6 L974.5 -911.6 957.75 -911.35 Q950.45 -911.35 948.5 -912.65 M1064.0 -899.6 Q1064.0 -898.4 1061.2 -894.25 1058.25 -889.75 1054.25 -885.35 L1051.9 -882.8 Q1054.55 -879.85 1063.0 -876.1 1072.5 -871.9 1072.5 -869.25 1072.5 -867.05 1066.5 -865.1 1061.8 -863.6 1060.25 -863.6 1053.9 -863.6 1046.8 -870.85 L1043.0 -875.5 Q1039.25 -873.35 1036.1 -873.35 1032.6 -873.35 1030.2 -874.55 1029.4 -874.95 1028.0 -876.1 1028.85 -878.15 1037.05 -883.95 1045.8 -890.2 1047.5 -892.6 1052.8 -900.2 1057.25 -903.7 1064.0 -909.0 1064.0 -899.6 M1001.5 -896.85 Q1003.7 -899.8 1008.25 -903.4 1013.05 -907.25 1017.6 -909.5 1029.5 -915.35 1029.5 -905.85 1029.5 -901.35 1025.25 -898.35 1019.55 -894.35 1007.25 -894.35 1003.6 -894.35 1001.5 -896.85 M687.85 -717.85 Q694.4 -717.85 702.8 -722.15 710.75 -726.25 712.1 -726.1 L712.6 -725.25 Q713.1 -724.55 713.1 -723.1 713.1 -716.6 704.35 -714.15 697.2 -712.1 680.6 -712.1 L673.65 -711.1 Q671.95 -708.65 655.35 -702.15 636.65 -694.85 630.1 -694.85 626.85 -694.85 625.3 -695.75 L625.1 -695.35 Q623.95 -696.05 621.75 -699.0 L620.05 -701.5 619.65 -701.85 Q619.1 -702.45 619.1 -704.1 L619.75 -704.9 619.85 -705.1 620.45 -705.35 Q625.3 -708.2 647.65 -715.15 675.55 -723.85 680.1 -723.85 684.35 -723.85 685.45 -720.85 685.85 -719.35 686.2 -718.8 686.7 -717.85 687.85 -717.85 M597.65 -696.5 Q586.2 -694.2 557.1 -694.85 554.2 -695.5 553.4 -696.85 553.1 -697.4 553.1 -699.1 553.1 -701.6 553.45 -702.1 554.1 -703.0 557.1 -703.15 561.45 -703.35 589.1 -702.85 593.1 -702.85 599.8 -704.3 602.35 -706.0 605.6 -707.05 614.85 -709.95 614.85 -704.0 614.85 -702.2 611.6 -699.15 607.6 -695.35 602.5 -695.35 599.2 -695.35 597.65 -696.5" fill="#989578" fill-rule="evenodd" stroke="none"/>
    <path d="M832.5 -667.2 L792.4 -665.4 785.2 -665.0 Q761.6 -677.95 738.3 -686.2 728.8 -689.55 720.4 -691.75 723.45 -695.7 727.3 -697.1 732.25 -698.85 740.3 -696.8 745.1 -695.55 756.0 -691.85 766.4 -688.75 774.5 -688.75 787.3 -688.75 798.05 -692.25 L805.15 -694.65 Q808.75 -695.75 811.5 -695.75 826.55 -695.75 831.5 -672.7 L832.5 -667.2 M2238.85 -712.1 L2238.5 -710.55 Q2236.9 -702.35 2236.55 -692.0 2234.25 -690.35 2232.55 -688.05 2228.5 -682.55 2228.5 -676.0 2228.5 -672.6 2229.8 -668.6 2231.6 -662.95 2235.0 -661.0 2220.05 -662.3 2211.35 -657.0 L2210.5 -658.0 Q2204.25 -665.25 2195.15 -667.1 2188.85 -668.35 2178.15 -667.1 L2161.3 -665.55 Q2153.0 -665.65 2147.55 -669.25 L2158.55 -677.1 Q2171.2 -686.25 2180.05 -691.65 2208.45 -709.05 2233.0 -711.25 L2238.85 -712.1" fill="#a5a289" fill-rule="evenodd" stroke="none"/>
  </g>
</svg>
