<?xml version="1.0" encoding="UTF-8" standalone="no"?>
<svg xmlns:ffdec="https://www.free-decompiler.com/flash" xmlns:xlink="http://www.w3.org/1999/xlink" ffdec:objectType="shape" height="291.9px" width="2783.75px" xmlns="http://www.w3.org/2000/svg">
  <g transform="matrix(1.0, 0.0, 0.0, 1.0, -49.6, 856.6)">
    <path d="M2832.8 -651.0 Q2833.35 -648.85 2833.35 -643.55 2833.35 -634.8 2830.55 -627.65 2826.2 -616.6 2816.55 -616.6 2814.8 -616.6 2814.15 -618.25 2813.8 -619.1 2813.8 -620.1 L2814.4 -623.2 2814.95 -626.3 Q2814.95 -626.95 2814.4 -628.05 2813.8 -629.15 2813.8 -629.85 2813.8 -635.7 2816.65 -645.0 2820.45 -657.25 2825.9 -657.25 2831.25 -657.25 2832.8 -651.0" fill="#696750" fill-rule="evenodd" stroke="none"/>
    <path d="M1337.4 -848.0 L1337.2 -847.4 Q1334.05 -847.75 1329.2 -847.4 L1323.6 -847.0 1320.45 -847.3 1318.8 -847.6 1318.6 -848.5 1322.1 -852.75 Q1324.6 -855.4 1326.4 -856.6 L1334.4 -856.6 1336.35 -856.05 1337.4 -855.2 1337.4 -848.0" fill="#7d744f" fill-rule="evenodd" stroke="none"/>
    <path d="M55.6 -655.65 L54.75 -662.55 Q53.65 -670.7 53.65 -674.5 53.65 -682.75 54.65 -687.5 L55.35 -690.25 55.05 -690.6 Q54.2 -691.55 54.2 -691.9 54.2 -692.75 59.15 -698.55 60.7 -703.6 68.2 -708.75 L69.85 -710.5 Q73.25 -713.95 80.65 -717.4 88.65 -721.1 97.1 -722.7 L97.25 -722.5 97.4 -721.65 97.35 -721.6 97.4 -720.9 97.4 -720.65 97.4 -720.25 97.3 -719.65 96.85 -717.25 96.25 -713.6 Q96.25 -713.3 97.1 -711.5 L97.95 -708.95 97.9 -707.75 97.8 -707.6 97.65 -707.3 97.4 -707.15 99.4 -707.05 100.35 -706.75 Q100.75 -706.45 100.75 -705.55 L99.85 -705.25 Q103.35 -703.6 108.75 -698.8 108.75 -698.05 108.2 -697.75 107.6 -697.4 105.9 -697.4 104.05 -697.4 101.7 -699.0 L99.55 -700.7 Q96.5 -703.4 96.3 -704.4 L96.25 -704.45 96.2 -704.45 88.5 -702.8 Q75.3 -700.05 65.5 -696.45 L61.6 -691.55 Q57.6 -686.95 57.6 -682.65 L58.75 -655.8 58.5 -647.3 Q58.2 -641.35 58.2 -638.3 58.2 -633.8 55.35 -622.85 52.5 -611.9 52.5 -602.1 52.5 -594.6 53.35 -591.05 54.2 -587.55 54.2 -582.9 54.2 -582.05 53.8 -581.25 L53.1 -580.1 52.25 -579.8 51.7 -581.1 Q50.2 -585.05 49.8 -590.7 49.6 -593.15 49.6 -602.0 49.6 -607.0 50.65 -613.2 51.25 -616.85 52.2 -620.95 L53.0 -624.5 Q53.95 -629.25 54.4 -633.55 L54.75 -640.8 55.3 -645.8 55.85 -650.85 55.6 -655.65 M65.45 -700.5 Q70.1 -702.4 79.7 -704.9 90.95 -707.8 95.1 -707.55 94.1 -708.3 93.7 -710.25 93.35 -711.9 93.4 -713.65 L93.45 -716.5 Q90.8 -715.05 86.3 -713.3 L72.9 -708.5 Q68.85 -706.65 65.7 -701.8 L65.2 -701.0 65.3 -700.75 65.0 -700.3 65.45 -700.5" fill="#504f3d" fill-rule="evenodd" stroke="none"/>
    <path d="M101.7 -699.0 L102.1 -698.4 Q104.4 -695.0 106.05 -690.65 107.35 -687.2 107.35 -686.15 107.35 -683.8 106.3 -682.05 104.95 -679.75 102.2 -679.5 L102.4 -678.3 Q102.8 -675.2 102.7 -670.45 L102.6 -664.45 Q102.7 -661.2 103.25 -656.4 L96.55 -656.95 Q87.45 -657.4 82.55 -656.75 L76.95 -656.95 Q62.05 -656.7 62.05 -651.5 62.05 -650.35 63.35 -649.75 64.65 -649.2 67.55 -649.0 66.25 -648.3 65.85 -647.65 65.45 -647.15 65.45 -646.35 65.45 -645.6 65.6 -645.25 L65.8 -645.0 61.35 -644.55 Q59.15 -644.15 59.15 -642.45 59.15 -642.0 60.25 -641.25 L61.3 -640.45 59.7 -638.1 Q58.05 -635.95 58.05 -635.35 58.05 -633.25 60.7 -632.65 L69.75 -631.25 69.65 -631.15 61.3 -631.05 Q59.8 -630.75 59.35 -629.95 L59.15 -629.1 Q59.15 -627.1 60.3 -626.1 63.2 -623.4 72.65 -623.4 L80.2 -623.8 96.0 -624.5 104.25 -624.5 Q109.1 -620.5 114.05 -614.8 119.25 -608.9 119.25 -607.95 119.25 -605.85 118.55 -604.7 117.55 -603.05 114.6 -601.7 116.6 -596.5 120.95 -594.6 122.85 -593.75 123.4 -593.15 124.4 -592.05 124.4 -589.65 124.4 -587.55 122.85 -586.0 120.45 -583.6 115.25 -583.75 L115.05 -582.75 114.85 -581.4 Q114.85 -581.1 116.8 -577.25 118.7 -573.4 118.7 -572.05 L118.55 -568.1 Q118.05 -567.0 115.15 -566.85 101.5 -567.35 81.3 -567.35 69.2 -567.35 65.05 -566.0 60.9 -564.7 58.15 -564.7 54.5 -564.7 53.0 -567.55 52.2 -569.05 51.7 -571.2 L51.7 -581.1 52.25 -579.8 53.1 -580.1 53.8 -581.25 Q54.2 -582.05 54.2 -582.9 54.2 -587.55 53.35 -591.05 52.5 -594.6 52.5 -602.1 52.5 -611.9 55.35 -622.85 58.2 -633.8 58.2 -638.3 58.2 -641.35 58.5 -647.3 L58.75 -655.8 57.6 -682.65 Q57.6 -686.95 61.6 -691.55 L65.5 -696.45 Q75.3 -700.05 88.5 -702.8 L96.2 -704.45 96.3 -704.4 Q96.5 -703.4 99.55 -700.7 L101.7 -699.0 M104.3 -646.1 L104.35 -645.35 101.1 -645.8 74.0 -645.8 77.95 -646.9 81.95 -648.2 97.1 -646.1 104.3 -646.1 M50.65 -613.2 Q50.9 -616.7 51.85 -620.7 52.35 -622.9 53.0 -624.5 L52.2 -620.95 Q51.25 -616.85 50.65 -613.2 M54.4 -633.55 L54.8 -642.05 55.6 -655.65 55.85 -650.85 55.3 -645.8 54.75 -640.8 54.4 -633.55 M65.3 -700.75 L65.2 -701.0 65.7 -701.8 Q68.85 -706.65 72.9 -708.5 L86.3 -713.3 Q90.8 -715.05 93.45 -716.5 L93.4 -713.65 Q93.35 -711.9 93.7 -710.25 94.1 -708.3 95.1 -707.55 90.95 -707.8 79.7 -704.9 70.1 -702.4 65.45 -700.5 L65.3 -700.75 M73.8 -645.55 L72.7 -645.45 73.8 -645.75 73.8 -645.55 M100.65 -634.6 L100.05 -634.4 98.7 -634.6 100.65 -634.6" fill="#828a8c" fill-rule="evenodd" stroke="none"/>
    <path d="M103.25 -656.4 L110.1 -655.35 Q113.65 -654.65 115.15 -653.9 L115.65 -653.9 Q129.9 -652.95 129.9 -650.4 129.9 -647.65 123.4 -648.75 L122.6 -647.65 122.55 -647.2 Q122.55 -646.35 121.95 -645.7 121.35 -645.0 120.45 -645.0 L117.05 -645.45 113.0 -646.1 104.3 -646.1 97.1 -646.1 81.95 -648.2 77.95 -646.9 74.0 -645.8 101.1 -645.8 104.35 -645.35 120.3 -643.5 Q125.4 -643.0 125.4 -641.35 125.4 -639.6 122.75 -639.15 L112.3 -639.7 111.1 -639.65 Q112.9 -638.7 119.25 -637.75 122.25 -637.3 123.25 -636.25 127.65 -635.15 127.65 -631.85 127.65 -631.0 127.1 -630.35 126.5 -629.65 125.5 -629.65 125.15 -629.65 122.6 -631.0 L122.35 -631.1 Q123.1 -630.55 123.1 -629.8 123.1 -629.1 121.4 -627.9 L119.65 -626.75 Q119.65 -625.25 117.55 -624.5 L104.25 -624.5 96.0 -624.5 80.2 -623.8 72.65 -623.4 Q63.2 -623.4 60.3 -626.1 59.15 -627.1 59.15 -629.1 L59.35 -629.95 Q59.8 -630.75 61.3 -631.05 L69.65 -631.15 69.75 -631.25 60.7 -632.65 Q58.05 -633.25 58.05 -635.35 58.05 -635.95 59.7 -638.1 L61.3 -640.45 60.25 -641.25 Q59.15 -642.0 59.15 -642.45 59.15 -644.15 61.35 -644.55 L65.8 -645.0 65.6 -645.25 Q65.45 -645.6 65.45 -646.35 65.45 -647.15 65.85 -647.65 66.25 -648.3 67.55 -649.0 64.65 -649.2 63.35 -649.75 62.05 -650.35 62.05 -651.5 62.05 -656.7 76.95 -656.95 L82.55 -656.75 Q87.45 -657.4 96.55 -656.95 L103.25 -656.4 M73.8 -645.55 L73.8 -645.75 72.7 -645.45 73.8 -645.55 M100.65 -634.6 L98.7 -634.6 100.05 -634.4 100.65 -634.6" fill="#747c7e" fill-rule="evenodd" stroke="none"/>
  </g>
</svg>
