<?xml version="1.0" encoding="UTF-8" standalone="no"?>
<svg xmlns:ffdec="https://www.free-decompiler.com/flash" xmlns:xlink="http://www.w3.org/1999/xlink" ffdec:objectType="shape" height="710.8px" width="1748.15px" xmlns="http://www.w3.org/2000/svg">
  <g transform="matrix(1.0, 0.0, 0.0, 1.0, -500.0, -73.7)">
    <path d="M2201.5 779.65 L2201.3 778.1 Q2201.3 777.1 2201.45 776.8 2201.85 776.0 2203.4 775.7 2219.35 775.7 2220.35 775.95 L2235.4 775.95 Q2240.45 768.75 2248.15 782.4 2248.15 784.5 2245.4 784.5 2242.6 784.5 2240.2 782.75 2237.45 780.7 2236.4 780.5 L2219.35 780.5 2218.35 780.2 2204.4 780.2 Q2202.15 781.0 2201.5 779.65" fill="#504f3d" fill-rule="evenodd" stroke="none"/>
    <path d="M665.75 74.85 Q720.25 85.45 746.9 137.15 757.3 157.4 762.35 182.2 766.25 201.4 766.25 218.75 L761.85 282.05 Q757.4 347.6 757.4 360.7 757.4 368.7 759.15 390.35 760.95 412.0 760.95 416.0 L760.9 421.7 Q760.05 424.55 755.4 426.4 744.2 430.9 696.15 434.45 L638.05 435.35 619.55 437.0 599.4 438.0 589.85 437.0 Q583.8 436.05 581.65 435.35 L532.85 434.45 Q516.55 411.5 508.1 384.45 500.0 358.55 500.0 332.3 500.0 322.3 501.0 316.8 501.6 313.5 503.6 308.35 508.3 296.05 510.65 273.65 511.75 262.3 510.45 240.05 508.9 219.2 508.9 216.95 508.9 191.55 510.35 178.15 512.95 154.45 521.15 136.7 542.25 90.95 604.5 74.85 L609.2 73.7 658.9 73.7 665.75 74.85 M701.55 106.3 Q686.15 96.85 670.2 91.1 619.05 72.4 579.0 96.35 559.65 106.5 549.05 116.85 537.75 127.85 533.75 141.7 531.45 149.6 523.65 167.75 517.25 184.55 517.75 195.0 L519.0 225.8 519.55 247.0 Q519.55 256.45 514.2 293.35 508.9 330.3 508.9 332.3 508.9 355.75 515.85 376.65 518.75 385.45 524.35 398.5 L535.95 425.1 582.55 425.55 Q584.4 426.3 589.6 427.25 L598.3 428.25 617.75 427.25 635.8 425.55 697.05 424.65 Q713.7 423.8 719.75 422.0 725.35 420.25 748.5 419.35 L751.45 418.2 Q752.05 417.65 752.05 414.7 752.05 405.35 750.3 388.0 748.5 370.7 748.5 362.0 L749.4 333.4 Q750.3 304.5 750.3 290.05 757.4 258.05 757.4 218.1 757.4 211.9 755.25 197.2 752.45 178.25 748.05 162.15 734.95 114.6 713.9 114.6 709.2 111.0 701.55 106.3" fill="#828a8c" fill-rule="evenodd" stroke="none"/>
  </g>
</svg>
