<?xml version="1.0" encoding="UTF-8" standalone="no"?>
<svg xmlns:ffdec="https://www.free-decompiler.com/flash" xmlns:xlink="http://www.w3.org/1999/xlink" ffdec:objectType="shape" height="429.2px" width="2131.5px" xmlns="http://www.w3.org/2000/svg">
  <g transform="matrix(1.0, 0.0, 0.0, 1.0, -285.5, 1282.2)">
    <path d="M1778.0 -1250.7 L1765.75 -1250.75 1698.75 -1256.25 1714.25 -1257.75 1845.25 -1257.75 1876.25 -1255.25 1876.0 -1252.35 Q1875.55 -1250.55 1874.25 -1250.25 L1815.7 -1250.5 Q1822.3 -1247.2 1829.6 -1241.95 L1834.1 -1241.05 Q1848.15 -1237.95 1851.25 -1235.75 1855.5 -1232.75 1859.25 -1211.75 1859.25 -1204.95 1854.05 -1200.4 L1852.4 -1199.05 Q1854.5 -1188.65 1854.5 -1185.0 1854.5 -1183.6 1852.9 -1177.8 L1857.85 -1174.05 Q1861.15 -1171.0 1862.3 -1167.65 1863.25 -1164.9 1863.25 -1160.0 1863.25 -1151.7 1858.7 -1146.8 1856.8 -1144.75 1854.2 -1143.4 1856.5 -1139.7 1856.5 -1136.25 1856.5 -1133.85 1853.95 -1130.6 L1851.1 -1127.3 1851.2 -1127.2 Q1865.8 -1117.7 1870.4 -1114.4 1879.7 -1107.7 1884.05 -1102.2 1889.25 -1095.7 1889.25 -1089.0 1889.25 -1081.1 1883.8 -1075.65 1877.7 -1069.55 1866.5 -1070.7 L1867.3 -1068.65 Q1868.5 -1065.0 1868.5 -1062.0 L1868.5 -1061.2 1870.85 -1059.4 Q1877.25 -1053.7 1877.25 -1046.75 1877.25 -1042.9 1875.95 -1039.35 1873.95 -1033.7 1869.25 -1031.75 1879.85 -1024.25 1883.7 -1019.0 1887.25 -1014.1 1887.25 -1007.75 1887.25 -1005.25 1885.0 -1001.75 1882.75 -998.25 1882.75 -995.75 1882.75 -994.55 1886.25 -991.7 L1894.0 -985.6 Q1905.25 -976.5 1905.25 -970.25 1905.25 -965.75 1901.9 -960.4 1897.4 -953.25 1889.75 -952.25 1900.75 -942.1 1900.75 -934.25 1900.75 -927.1 1898.5 -923.0 1897.15 -920.55 1888.75 -910.25 1881.5 -901.6 1865.2 -895.6 1853.45 -891.25 1849.75 -891.25 1847.25 -891.25 1841.65 -893.75 1836.0 -896.25 1833.5 -896.25 L1828.75 -891.75 Q1824.25 -887.25 1820.25 -887.25 L1817.25 -887.45 1815.25 -887.25 Q1812.0 -887.25 1808.8 -888.7 1807.65 -889.2 1804.25 -891.25 L1799.25 -884.75 Q1796.2 -881.25 1791.25 -881.25 1784.1 -881.25 1769.6 -893.75 1763.8 -896.05 1755.8 -901.8 1743.25 -910.8 1743.25 -913.75 1743.25 -916.25 1745.25 -917.5 1747.25 -918.75 1747.25 -921.25 1747.25 -922.8 1744.5 -928.85 1741.75 -934.9 1741.75 -935.5 1741.75 -940.65 1743.65 -943.0 1746.55 -946.5 1756.25 -949.75 L1755.45 -955.1 1750.9 -963.75 Q1741.25 -982.2 1741.25 -984.0 1741.25 -990.05 1745.4 -994.85 1751.85 -1002.4 1765.25 -998.25 1766.2 -1004.9 1763.15 -1010.2 1761.1 -1013.75 1755.8 -1018.6 1749.75 -1024.1 1747.9 -1026.55 1744.25 -1031.5 1744.25 -1037.25 1744.25 -1038.85 1755.25 -1062.85 L1760.6 -1076.45 Q1757.25 -1081.95 1757.25 -1088.25 1757.25 -1090.25 1765.45 -1103.6 L1762.25 -1109.05 Q1758.25 -1115.05 1758.25 -1119.75 1758.25 -1125.05 1759.75 -1128.55 1761.3 -1132.2 1767.25 -1140.75 1760.7 -1144.25 1758.9 -1152.85 1758.25 -1155.95 1758.25 -1164.0 1758.25 -1174.65 1768.8 -1183.95 1762.75 -1189.7 1760.85 -1191.85 1757.25 -1195.95 1757.25 -1202.25 1757.25 -1205.45 1769.95 -1224.6 L1773.7 -1230.15 Q1772.25 -1234.55 1772.25 -1237.25 1772.25 -1243.85 1776.5 -1249.05 L1778.0 -1250.7 M1548.6 -1018.75 L1548.6 -1018.0 1547.85 -1018.0 1548.6 -1018.75 M1940.75 -1150.6 Q1943.0 -1154.2 1943.0 -1159.25 1943.0 -1161.55 1940.25 -1166.1 1937.5 -1170.65 1937.5 -1172.0 1937.5 -1178.45 1940.45 -1181.9 1944.65 -1186.85 1956.5 -1189.75 1955.05 -1195.25 1955.45 -1198.8 1956.25 -1205.75 1963.0 -1210.25 1960.7 -1214.2 1952.95 -1223.95 1949.5 -1228.3 1949.5 -1235.0 1949.5 -1241.75 1954.05 -1247.75 1959.75 -1255.25 1969.5 -1255.25 1973.85 -1255.25 1978.8 -1252.5 1983.7 -1249.75 1983.75 -1249.75 1984.25 -1249.75 1986.35 -1251.5 1989.0 -1253.65 1991.2 -1254.8 1999.2 -1258.9 2009.5 -1254.75 L2024.35 -1248.9 Q2036.25 -1244.95 2040.5 -1247.75 L2092.5 -1248.25 2169.0 -1238.25 Q2171.0 -1238.25 2177.5 -1242.25 2184.0 -1246.25 2190.5 -1246.25 2207.75 -1246.25 2215.15 -1243.25 2219.8 -1241.35 2220.4 -1241.2 2223.75 -1240.25 2229.25 -1240.25 2241.15 -1240.25 2257.7 -1246.0 L2269.15 -1249.95 Q2274.95 -1251.75 2278.5 -1251.75 2304.8 -1251.75 2314.0 -1218.9 2316.9 -1208.6 2317.75 -1196.15 L2318.0 -1185.5 Q2318.0 -1167.3 2308.75 -1146.3 L2302.4 -1132.75 Q2299.5 -1126.5 2299.5 -1124.0 2299.5 -1122.8 2301.55 -1120.35 L2306.0 -1115.3 Q2312.5 -1107.7 2312.5 -1102.25 2312.5 -1096.05 2309.2 -1092.2 2302.8 -1084.75 2286.0 -1087.75 2286.0 -1079.0 2285.0 -1061.1 L2284.0 -1042.0 Q2284.0 -1037.95 2286.8 -1033.45 2288.4 -1030.9 2293.0 -1025.6 2297.45 -1020.45 2299.2 -1017.5 2302.0 -1012.75 2302.0 -1008.25 2302.0 -1004.0 2298.6 -998.4 2294.2 -991.25 2287.5 -990.25 L2291.9 -983.5 Q2294.0 -979.65 2294.0 -976.75 2294.0 -970.6 2290.55 -952.55 2287.3 -935.7 2288.0 -921.25 2289.7 -883.1 2257.55 -878.85 2247.5 -877.55 2235.15 -879.75 L2224.5 -882.25 2206.4 -880.6 2174.0 -878.25 2174.0 -877.25 2151.0 -877.25 Q2125.7 -883.6 2103.7 -886.5 2090.55 -888.25 2084.75 -888.25 2077.5 -884.85 2066.05 -881.15 2043.15 -873.7 2020.0 -872.0 L2020.0 -871.0 Q1996.5 -874.4 1992.65 -871.75 1991.7 -871.05 1990.85 -868.6 1990.05 -866.25 1988.0 -865.0 L1974.5 -865.0 Q1968.0 -865.25 1957.25 -872.55 1947.5 -879.1 1937.05 -889.4 1926.85 -899.45 1920.25 -908.75 1913.25 -918.65 1913.25 -923.75 1913.25 -928.95 1913.95 -930.5 1915.6 -933.9 1922.75 -938.75 L1920.25 -942.85 Q1919.25 -945.15 1919.25 -948.5 1919.25 -953.25 1922.25 -956.75 1926.1 -961.25 1933.5 -961.25 1940.8 -961.25 1945.45 -957.75 L1948.35 -955.35 Q1949.75 -954.25 1951.0 -954.25 L1951.95 -956.1 Q1953.35 -958.25 1955.4 -959.75 1961.9 -964.5 1972.5 -960.75 1973.35 -962.0 1973.45 -964.3 L1973.55 -968.6 Q1973.85 -974.4 1978.5 -977.75 1973.4 -983.5 1960.95 -995.3 1945.95 -1009.5 1940.45 -1015.15 1916.25 -1039.95 1916.25 -1054.25 1916.25 -1061.05 1920.35 -1065.8 1926.4 -1072.75 1940.0 -1072.25 1937.6 -1076.6 1936.55 -1079.2 1935.0 -1083.15 1935.0 -1086.5 1935.0 -1087.2 1939.25 -1100.2 L1943.5 -1113.5 Q1943.5 -1117.75 1944.9 -1120.25 L1951.0 -1129.25 Q1942.05 -1136.85 1939.2 -1140.6 1936.75 -1143.8 1937.65 -1146.05 1938.2 -1147.4 1940.75 -1150.6 M2417.0 -973.45 L2406.3 -973.45 2398.0 -980.5 Q2408.5 -976.8 2417.0 -973.45 M360.5 -1224.75 Q363.35 -1224.75 367.75 -1227.4 L376.3 -1233.25 Q388.35 -1241.75 396.0 -1241.75 398.4 -1241.75 422.2 -1237.25 L446.0 -1232.75 Q447.55 -1232.75 449.05 -1234.4 L452.2 -1238.0 Q457.55 -1243.25 468.0 -1243.25 476.4 -1243.25 493.2 -1237.25 L510.0 -1231.25 556.0 -1235.75 Q561.2 -1235.75 569.2 -1232.25 577.2 -1228.75 580.5 -1228.75 582.15 -1228.75 598.0 -1236.25 613.9 -1243.75 620.0 -1243.75 653.1 -1243.75 663.1 -1228.3 666.4 -1223.2 667.0 -1216.55 L667.0 -1208.75 Q667.0 -1207.5 675.6 -1194.75 687.35 -1177.35 694.5 -1165.05 722.0 -1117.95 722.0 -1085.0 L722.95 -1072.25 Q723.3 -1063.25 720.5 -1057.3 712.3 -1039.75 674.0 -1039.75 L672.3 -1036.85 Q670.3 -1033.6 666.5 -1032.25 L677.7 -1020.15 Q682.0 -1015.5 682.0 -1010.5 682.0 -1004.9 679.7 -1001.05 678.05 -998.4 674.0 -995.05 668.6 -990.55 666.8 -988.65 662.6 -984.2 660.0 -978.25 658.5 -974.75 658.4 -970.2 L658.55 -962.8 Q658.35 -954.05 650.5 -948.25 656.45 -944.6 658.65 -939.25 660.0 -935.9 660.0 -931.0 660.0 -919.35 637.5 -894.35 629.25 -885.15 621.2 -877.9 613.6 -871.0 612.0 -871.0 608.95 -871.0 590.3 -875.6 L571.75 -880.25 Q565.8 -880.25 560.85 -876.0 558.15 -873.65 552.9 -866.6 547.95 -859.95 544.45 -857.25 538.95 -853.0 532.0 -853.0 526.75 -853.0 513.2 -855.35 498.4 -857.85 483.1 -861.7 442.2 -871.85 429.5 -882.75 423.1 -883.3 412.0 -885.35 402.05 -887.25 399.75 -887.25 L361.5 -881.75 Q350.25 -881.75 342.4 -885.65 337.5 -888.1 330.4 -894.6 322.7 -901.65 317.75 -904.55 309.1 -909.6 297.0 -911.25 313.05 -912.5 320.0 -910.75 326.9 -916.85 326.9 -929.2 326.9 -932.75 326.2 -939.85 325.5 -947.0 325.5 -950.25 325.5 -963.0 318.75 -971.6 314.8 -976.7 314.1 -977.9 312.0 -981.6 312.0 -986.25 312.0 -989.45 316.3 -993.35 322.7 -999.25 326.0 -1004.25 321.4 -1008.85 319.9 -1015.25 318.95 -1019.4 319.05 -1027.2 319.2 -1036.05 318.7 -1039.7 317.7 -1046.8 314.0 -1052.25 310.2 -1057.75 303.5 -1078.2 297.5 -1096.5 297.5 -1098.0 297.5 -1101.65 298.7 -1104.55 299.8 -1107.25 302.5 -1110.75 289.2 -1123.4 288.3 -1124.55 285.5 -1128.0 285.5 -1134.0 285.5 -1140.25 288.95 -1144.45 290.45 -1146.35 296.5 -1150.95 301.75 -1155.0 304.05 -1158.95 307.5 -1164.75 307.5 -1173.75 307.5 -1179.9 305.1 -1183.65 303.6 -1185.95 299.75 -1188.75 295.85 -1191.6 294.4 -1193.65 292.0 -1197.15 292.0 -1203.0 292.0 -1204.25 294.7 -1208.85 297.7 -1213.85 301.6 -1218.75 312.35 -1232.25 320.0 -1232.25 L340.25 -1228.5 360.5 -1224.75 M1028.35 -1280.7 Q1029.45 -1280.4 1029.2 -1279.55 1028.65 -1277.55 1038.7 -1276.25 1052.0 -1274.5 1086.15 -1272.8 L1085.5 -1252.25 1079.3 -1251.8 1073.25 -1251.0 Q1071.6 -1254.9 1067.3 -1257.4 1062.45 -1260.25 1055.75 -1260.25 L1042.25 -1262.25 Q1035.95 -1262.25 1031.3 -1254.85 L1028.4 -1249.8 Q1027.1 -1247.5 1026.25 -1247.5 1016.8 -1247.5 1012.5 -1245.0 1010.25 -1246.0 1006.6 -1244.15 1004.55 -1253.25 995.25 -1253.25 981.0 -1253.25 974.2 -1236.5 L974.2 -1282.2 999.95 -1282.0 1012.2 -1281.8 1019.95 -1281.55 1028.35 -1280.7 M822.7 -1111.55 Q822.95 -1105.6 823.6 -1101.0 823.75 -1096.85 825.35 -1090.15 832.15 -1091.0 835.85 -1081.0 836.7 -1077.95 837.15 -1070.3 837.5 -1063.1 838.85 -1059.25 L838.85 -995.5 Q839.85 -988.75 839.85 -975.6 L839.65 -965.2 Q839.35 -955.8 838.85 -950.5 L838.85 -906.25 Q839.05 -904.5 837.05 -901.85 835.1 -899.3 832.3 -898.6 L834.5 -893.6 Q838.85 -883.05 838.85 -873.6 838.85 -858.35 825.1 -858.35 L817.9 -858.85 812.6 -859.35 806.65 -859.85 802.1 -860.35 Q796.05 -860.35 793.3 -864.65 791.2 -868.0 790.6 -875.05 L790.0 -887.6 Q789.45 -894.9 787.35 -898.6 L787.35 -956.5 Q786.3 -961.15 785.35 -968.1 784.5 -974.35 784.1 -979.75 783.9 -983.0 780.75 -985.9 777.55 -988.8 777.35 -991.0 L777.25 -996.9 777.35 -1001.85 Q777.35 -1015.9 778.85 -1024.55 780.35 -1033.15 780.35 -1037.85 L779.35 -1047.8 778.35 -1057.65 Q773.3 -1061.55 770.55 -1068.8 767.65 -1076.6 768.0 -1085.25 768.0 -1105.4 773.4 -1116.1 778.35 -1125.9 785.25 -1123.75 790.35 -1122.2 794.2 -1114.75 L794.25 -1114.8 Q798.2 -1116.5 807.5 -1116.5 L817.95 -1116.8 Q821.2 -1116.85 821.95 -1115.95 822.55 -1115.2 822.7 -1111.55 M694.1 -1081.85 Q693.4 -1085.65 693.5 -1086.75 L687.95 -1082.65 Q681.45 -1078.1 672.5 -1072.75 L672.0 -1071.25 Q674.7 -1069.9 679.65 -1067.65 L687.5 -1064.25 Q695.25 -1066.55 695.0 -1075.2 694.95 -1077.55 694.1 -1081.85 M1160.6 -901.3 Q1160.6 -911.95 1171.1 -903.65 1176.35 -899.5 1181.6 -892.95 1181.6 -890.7 1180.35 -889.5 1178.65 -887.9 1174.55 -887.9 1166.8 -887.9 1162.95 -894.35 1160.6 -898.3 1160.6 -901.3" fill="#91999b" fill-rule="evenodd" stroke="none"/>
  </g>
</svg>
