<?xml version="1.0" encoding="UTF-8" standalone="no"?>
<svg xmlns:ffdec="https://www.free-decompiler.com/flash" xmlns:xlink="http://www.w3.org/1999/xlink" ffdec:objectType="shape" height="6.2px" width="6.4px" xmlns="http://www.w3.org/2000/svg">
  <g transform="matrix(1.0, 0.0, 0.0, 1.0, 3.8, 6.8)">
    <path d="M2.25 -5.65 L2.45 -5.4 Q2.65 -4.5 2.6 -3.85 2.5 -2.95 1.8 -2.05 1.15 -1.1 0.55 -1.1 0.45 -1.1 0.4 -1.1 L0.55 -1.3 0.05 -1.1 Q-1.7 -0.9 -2.0 -0.6 L-2.05 -0.6 -2.05 -1.15 Q-2.1 -1.55 -2.25 -1.8 L-2.65 -2.35 -2.8 -2.7 -2.8 -2.55 -2.75 -2.35 -2.8 -2.3 -2.8 -2.25 -2.85 -2.25 Q-3.1 -2.25 -3.2 -2.7 L-3.3 -3.0 -3.3 -3.25 Q-3.3 -3.55 -3.25 -3.85 L-3.25 -3.95 Q-3.5 -3.65 -3.55 -3.2 L-3.6 -3.2 Q-3.75 -3.2 -3.8 -3.55 L-3.8 -3.95 Q-3.8 -4.45 -3.45 -4.95 -3.2 -5.25 -2.95 -5.45 -3.1 -5.5 -3.2 -5.7 L-3.3 -5.95 -3.3 -6.35 Q-3.15 -6.2 -2.9 -6.15 L-2.6 -6.1 Q-2.3 -6.1 -1.75 -6.3 L-1.35 -6.55 Q-0.55 -6.8 0.65 -6.8 L0.85 -6.75 1.4 -6.55 Q1.85 -6.25 2.25 -5.65 M-1.85 -1.05 L-1.85 -0.9 -1.8 -0.9 -1.5 -1.05 -1.2 -1.05 -0.7 -1.1 Q-0.2 -1.05 0.15 -1.25 L0.2 -1.3 Q0.85 -1.35 1.35 -2.0 L1.2 -1.75 1.1 -1.6 0.9 -1.5 0.75 -1.3 Q0.85 -1.35 1.0 -1.4 L1.2 -1.6 Q1.7 -1.95 2.0 -2.5 2.35 -3.1 2.45 -3.85 2.5 -4.4 2.3 -5.2 L2.2 -5.4 2.15 -5.45 1.85 -5.85 1.75 -6.0 Q1.2 -6.6 0.3 -6.6 -0.15 -6.6 -0.5 -6.5 L-0.85 -6.4 -1.15 -6.4 -1.4 -6.25 Q-1.95 -6.0 -2.4 -5.95 L-2.5 -5.95 -2.75 -5.9 -2.85 -5.9 -3.15 -6.05 Q-3.15 -5.75 -2.9 -5.7 L-2.7 -5.6 -2.6 -5.65 -2.55 -5.65 -2.4 -5.7 -2.45 -5.65 -2.35 -5.65 -2.6 -5.45 -2.85 -5.3 -3.05 -5.1 -3.05 -5.15 -3.3 -4.9 -3.6 -4.4 Q-3.65 -4.2 -3.7 -3.95 L-3.65 -3.8 -3.65 -3.65 -3.45 -4.0 -3.05 -4.35 Q-2.85 -4.55 -2.8 -4.7 L-2.6 -4.85 Q-2.85 -4.55 -3.0 -4.2 -3.15 -3.9 -3.2 -3.55 -3.2 -3.45 -3.1 -3.05 L-2.95 -2.55 -2.95 -3.15 -2.8 -3.45 -2.75 -3.5 -2.8 -3.1 -2.65 -2.75 Q-2.55 -2.5 -2.25 -2.15 -1.9 -1.55 -1.85 -1.05" fill="#121212" fill-rule="evenodd" stroke="none"/>
    <path d="M2.15 -5.45 L1.6 -5.45 Q0.45 -5.35 -0.45 -4.5 -1.2 -3.7 -1.2 -3.1 L-1.15 -2.75 Q-1.1 -2.55 -1.1 -2.45 -1.15 -2.05 -1.3 -1.65 L-1.3 -1.65 Q-1.35 -1.9 -1.55 -2.5 L-1.65 -2.45 -1.65 -2.3 Q-1.65 -1.75 -1.85 -1.05 -1.9 -1.55 -2.25 -2.15 -2.55 -2.5 -2.65 -2.75 L-2.8 -3.1 -2.75 -3.5 -2.8 -3.45 -2.95 -3.15 -2.95 -2.55 -3.1 -3.05 Q-3.2 -3.45 -3.2 -3.55 -3.15 -3.9 -3.0 -4.2 -2.85 -4.55 -2.6 -4.85 L-2.8 -4.7 Q-2.85 -4.55 -3.05 -4.35 L-3.45 -4.0 -3.65 -3.65 -3.65 -3.8 -3.7 -3.95 Q-3.65 -4.2 -3.6 -4.4 L-3.3 -4.9 -3.05 -5.15 -3.05 -5.1 -2.85 -5.3 -2.6 -5.45 -2.35 -5.65 -2.45 -5.65 -2.4 -5.7 -2.55 -5.65 -2.6 -5.65 -2.7 -5.6 -2.9 -5.7 Q-3.15 -5.75 -3.15 -6.05 L-2.85 -5.9 -2.75 -5.9 -2.5 -5.95 -2.4 -5.95 Q-1.95 -6.0 -1.4 -6.25 L-1.15 -6.4 -0.85 -6.4 -0.5 -6.5 Q-0.15 -6.6 0.3 -6.6 1.2 -6.6 1.75 -6.0 L1.85 -5.85 2.15 -5.45" fill="#304040" fill-rule="evenodd" stroke="none"/>
    <path d="M2.15 -5.45 L2.2 -5.4 2.3 -5.2 Q2.5 -4.4 2.45 -3.85 2.35 -3.1 2.0 -2.5 1.7 -1.95 1.2 -1.6 L1.0 -1.4 Q0.85 -1.35 0.75 -1.3 L0.9 -1.5 1.1 -1.6 1.2 -1.75 1.35 -2.0 Q0.85 -1.35 0.2 -1.3 L0.15 -1.25 Q-0.2 -1.05 -0.7 -1.1 L-1.2 -1.05 -1.5 -1.05 -1.8 -0.9 -1.85 -0.9 -1.85 -1.05 Q-1.65 -1.75 -1.65 -2.3 L-1.65 -2.45 -1.55 -2.5 Q-1.35 -1.9 -1.3 -1.65 L-1.3 -1.65 Q-1.15 -2.05 -1.1 -2.45 -1.1 -2.55 -1.15 -2.75 L-1.2 -3.1 Q-1.2 -3.7 -0.45 -4.5 0.45 -5.35 1.6 -5.45 L2.15 -5.45" fill="#999a81" fill-rule="evenodd" stroke="none"/>
  </g>
</svg>
