<?xml version="1.0" encoding="UTF-8" standalone="no"?>
<svg xmlns:ffdec="https://www.free-decompiler.com/flash" xmlns:xlink="http://www.w3.org/1999/xlink" ffdec:objectType="shape" height="6.0px" width="9.45px" xmlns="http://www.w3.org/2000/svg">
  <g transform="matrix(1.0, 0.0, 0.0, 1.0, 5.3, 6.85)">
    <path d="M2.45 -2.35 L2.45 -2.4 2.7 -2.55 Q3.05 -2.75 3.2 -2.75 L3.3 -2.65 3.35 -2.5 Q3.35 -2.0 3.25 -1.75 3.1 -1.3 2.65 -1.15 2.6 -1.25 2.5 -1.6 2.4 -1.95 2.4 -2.05 L2.45 -2.35" fill="#333333" fill-rule="evenodd" stroke="none"/>
    <path d="M-0.3 -4.5 Q-0.4 -4.2 -0.8 -3.8 L-0.85 -3.75 -0.55 -3.85 1.3 -4.05 1.7 -4.05 1.7 -4.1 2.9 -4.05 Q3.05 -4.05 3.25 -3.9 L3.2 -4.0 3.05 -4.25 3.0 -4.35 2.95 -4.4 2.5 -4.55 Q1.95 -4.85 1.7 -4.85 L1.65 -4.9 1.05 -4.9 0.05 -4.75 Q-0.15 -4.7 -0.2 -4.5 L-0.25 -4.5 -0.2 -4.65 -0.3 -4.5 M3.3 -4.35 Q3.6 -3.9 3.7 -3.7 L3.7 -3.75 3.8 -3.95 3.75 -4.2 Q3.65 -4.5 3.25 -5.0 2.7 -5.65 2.25 -5.8 L2.2 -5.75 2.05 -5.75 2.7 -5.1 3.3 -4.35 M4.0 -3.65 Q3.85 -3.4 3.7 -3.3 L3.7 -3.35 3.65 -3.3 3.6 -3.3 3.15 -3.65 Q2.65 -4.0 2.2 -4.0 L1.3 -3.95 Q1.15 -3.8 0.8 -3.8 L0.0 -3.8 0.1 -3.75 0.95 -3.35 Q2.0 -2.85 2.2 -2.65 L2.25 -2.7 2.6 -2.75 3.0 -2.9 3.35 -2.9 Q3.45 -2.85 3.5 -2.7 L3.65 -2.95 3.65 -3.25 Q3.8 -3.3 3.85 -3.15 3.9 -3.1 3.9 -2.9 L3.9 -2.8 3.7 -2.55 Q3.55 -2.35 3.5 -2.35 L3.4 -1.65 Q3.35 -1.5 3.05 -1.15 2.8 -0.85 2.65 -0.85 2.35 -0.85 2.25 -1.5 L2.2 -2.4 2.15 -2.4 Q2.0 -2.5 1.95 -2.55 L1.2 -3.0 Q0.3 -3.5 -0.2 -3.65 L-0.25 -3.65 Q-0.4 -3.65 -0.45 -3.75 L-0.7 -3.7 Q-0.85 -3.65 -1.0 -3.55 -1.1 -3.5 -1.2 -3.45 -1.6 -3.15 -2.0 -3.05 L-2.65 -2.7 -2.75 -2.6 Q-2.9 -2.5 -3.0 -2.5 L-3.05 -2.5 Q-3.05 -2.3 -3.35 -1.9 -3.6 -1.5 -3.75 -1.4 L-3.95 -1.8 Q-4.2 -2.05 -4.45 -2.0 -4.5 -1.8 -4.55 -1.7 -4.8 -1.8 -4.9 -1.9 -5.0 -1.95 -5.0 -2.05 -5.0 -2.5 -4.75 -2.75 -4.6 -2.95 -4.1 -3.25 L-4.35 -3.15 Q-4.45 -3.1 -4.55 -3.05 -4.9 -2.9 -5.0 -2.9 -5.15 -2.9 -5.2 -3.55 L-5.1 -3.85 Q-5.1 -3.95 -5.15 -4.1 -5.25 -4.2 -5.25 -4.4 -5.25 -4.65 -5.1 -4.65 -4.95 -4.7 -4.55 -4.5 L-4.0 -4.55 Q-3.85 -4.6 -3.65 -4.25 L-3.45 -3.95 -2.8 -3.3 -2.75 -3.3 Q-2.0 -3.5 -1.35 -4.25 -0.75 -4.95 -0.75 -5.55 L-0.8 -5.8 -0.85 -5.85 Q-0.95 -5.95 -0.95 -6.05 L-0.95 -6.1 Q-0.8 -6.15 -0.7 -6.05 L-0.5 -6.0 -0.45 -5.95 -0.4 -5.95 -0.4 -5.9 -0.35 -5.9 -0.3 -5.85 Q0.15 -5.6 0.55 -5.6 0.95 -5.6 1.55 -5.8 1.9 -5.9 2.05 -6.0 L2.1 -6.05 Q2.3 -6.15 3.05 -5.3 4.15 -4.15 4.15 -3.95 L4.0 -3.65 M1.7 -5.3 Q1.45 -5.3 1.35 -5.45 L0.8 -5.45 0.8 -5.5 2.25 -5.35 2.1 -5.5 1.8 -5.75 1.55 -5.65 Q1.05 -5.5 0.7 -5.5 L0.15 -5.5 Q-0.1 -5.5 -0.3 -5.6 L-0.3 -5.45 -0.25 -5.1 -0.2 -4.85 0.0 -4.8 Q0.85 -4.8 1.1 -4.95 2.15 -4.9 2.55 -4.7 L2.9 -4.55 2.85 -4.75 2.5 -5.15 Q2.4 -5.15 2.35 -5.25 2.25 -5.3 2.1 -5.35 L1.7 -5.3 M2.45 -2.35 L2.4 -2.05 Q2.4 -1.95 2.5 -1.6 2.6 -1.25 2.65 -1.15 3.1 -1.3 3.25 -1.75 3.35 -2.0 3.35 -2.5 L3.3 -2.65 3.2 -2.75 Q3.05 -2.75 2.7 -2.55 L2.45 -2.4 2.45 -2.35 M-0.5 -4.3 Q-0.3 -4.6 -0.3 -4.85 L-0.5 -5.7 -0.6 -5.7 Q-0.8 -4.95 -0.8 -4.85 -0.8 -4.8 -0.9 -4.65 L-1.5 -3.95 Q-2.0 -3.5 -2.25 -3.3 L-2.3 -3.25 Q-2.45 -3.15 -2.55 -3.15 L-2.6 -3.15 -2.65 -3.2 Q-2.65 -3.1 -2.75 -3.0 L-2.75 -2.95 -2.7 -2.95 -2.65 -2.85 -2.6 -2.85 Q-1.9 -3.2 -1.55 -3.35 -1.1 -3.6 -0.95 -3.8 L-0.9 -3.85 -0.5 -4.3 M-3.8 -5.9 L-3.75 -5.75 -3.65 -5.55 -3.65 -5.5 Q-3.65 -5.35 -3.9 -5.2 -4.15 -5.05 -4.4 -5.05 -4.95 -5.05 -5.15 -5.5 -5.3 -5.7 -5.3 -5.95 L-5.3 -6.0 Q-5.25 -6.2 -5.15 -6.4 -4.75 -6.8 -4.45 -6.85 L-4.4 -6.55 -4.35 -6.35 -4.4 -6.3 -4.35 -6.3 -4.35 -6.2 -4.45 -6.15 Q-4.7 -6.1 -4.7 -5.9 L-4.65 -5.8 Q-4.6 -5.65 -4.4 -5.65 L-4.3 -5.7 Q-4.2 -5.7 -4.1 -5.9 L-4.1 -5.95 Q-3.9 -5.95 -3.8 -5.9 M-3.8 -5.7 L-3.85 -5.8 Q-3.9 -5.9 -4.0 -5.9 L-4.05 -5.8 -4.15 -5.7 Q-4.25 -5.55 -4.4 -5.55 L-4.6 -5.55 -4.7 -5.65 Q-4.8 -5.75 -4.8 -5.95 L-4.8 -6.05 Q-4.8 -6.15 -4.7 -6.2 -4.6 -6.25 -4.55 -6.3 L-4.5 -6.35 -4.45 -6.35 -4.45 -6.5 -4.55 -6.6 -4.6 -6.6 Q-4.65 -6.6 -4.8 -6.5 L-4.85 -6.45 Q-5.1 -6.3 -5.1 -5.95 -5.1 -5.75 -5.05 -5.55 L-5.0 -5.5 Q-4.9 -5.3 -4.7 -5.25 L-4.5 -5.2 Q-4.2 -5.2 -3.95 -5.4 -3.75 -5.55 -3.75 -5.65 L-3.8 -5.7 M-5.05 -4.2 L-4.9 -3.8 -3.95 -3.8 -3.95 -3.85 -3.75 -3.8 -3.6 -3.95 -3.7 -4.1 Q-3.8 -4.25 -3.9 -4.25 L-3.95 -4.25 Q-4.6 -4.35 -4.75 -4.4 L-5.05 -4.5 -5.05 -4.45 -5.1 -4.4 -5.05 -4.2 M-4.1 -3.65 L-4.2 -3.7 -4.9 -3.7 -4.95 -3.75 -5.0 -3.65 -5.05 -3.5 -5.05 -3.3 -5.0 -3.25 Q-4.95 -3.1 -4.9 -3.1 -4.75 -3.1 -4.45 -3.2 L-4.3 -3.25 -3.8 -3.5 -3.85 -3.6 -3.85 -3.65 -4.1 -3.65 M-3.6 -3.6 L-3.6 -3.5 -3.65 -3.5 -3.45 -3.1 Q-3.2 -2.7 -3.1 -2.7 L-3.0 -2.75 -2.9 -3.05 -2.9 -3.1 -2.95 -3.25 Q-3.05 -3.25 -3.2 -3.45 L-3.5 -3.7 -3.6 -3.6 M-3.3 -2.7 L-3.6 -3.1 -3.85 -3.0 Q-4.2 -2.85 -4.35 -2.4 L-4.4 -2.1 -4.25 -2.2 -4.2 -2.2 Q-4.15 -2.2 -4.1 -2.15 L-4.05 -2.15 -3.95 -2.0 -3.8 -1.85 -3.75 -1.7 Q-3.55 -1.8 -3.35 -2.2 L-3.15 -2.55 -3.3 -2.65 -3.3 -2.7 M-4.15 -2.85 Q-3.95 -3.05 -3.65 -3.2 L-3.75 -3.4 -3.8 -3.35 -4.05 -3.15 -4.6 -2.75 Q-4.85 -2.5 -4.85 -2.2 -4.85 -2.1 -4.75 -2.0 L-4.65 -1.85 Q-4.5 -2.3 -4.35 -2.55 L-4.15 -2.85" fill="#111111" fill-rule="evenodd" stroke="none"/>
    <path d="M-4.7 -5.65 L-4.75 -5.7 -4.8 -5.6 Q-4.8 -5.55 -4.75 -5.5 -4.65 -5.4 -4.4 -5.4 -4.1 -5.4 -3.9 -5.6 L-3.8 -5.7 -3.75 -5.65 Q-3.75 -5.55 -3.95 -5.4 -4.2 -5.2 -4.5 -5.2 L-4.7 -5.25 Q-4.9 -5.3 -5.0 -5.5 L-5.05 -5.55 Q-5.1 -5.75 -5.1 -5.95 -5.1 -6.3 -4.85 -6.45 L-4.8 -6.5 Q-4.65 -6.6 -4.6 -6.6 L-4.55 -6.6 -4.45 -6.5 -4.45 -6.35 -4.5 -6.35 -4.55 -6.3 Q-4.6 -6.25 -4.7 -6.2 -4.8 -6.15 -4.8 -6.05 L-4.8 -5.95 Q-4.8 -5.75 -4.7 -5.65 M-4.75 -6.3 Q-4.75 -6.35 -4.75 -6.4 -4.85 -6.4 -4.9 -6.35 -4.95 -6.3 -4.95 -6.2 -4.95 -6.15 -4.9 -6.1 L-4.8 -6.2 -4.75 -6.3" fill="#666666" fill-rule="evenodd" stroke="none"/>
    <path d="M-4.7 -5.65 L-4.6 -5.55 -4.4 -5.55 Q-4.25 -5.55 -4.15 -5.7 L-4.05 -5.8 -4.0 -5.9 Q-3.9 -5.9 -3.85 -5.8 L-3.8 -5.7 -3.9 -5.6 Q-4.1 -5.4 -4.4 -5.4 -4.65 -5.4 -4.75 -5.5 -4.8 -5.55 -4.8 -5.6 L-4.75 -5.7 -4.7 -5.65 M-4.75 -6.3 L-4.8 -6.2 -4.9 -6.1 Q-4.95 -6.15 -4.95 -6.2 -4.95 -6.3 -4.9 -6.35 -4.85 -6.4 -4.75 -6.4 -4.75 -6.35 -4.75 -6.3" fill="#cccccc" fill-rule="evenodd" stroke="none"/>
    <path d="M2.95 -4.4 L2.25 -4.5 1.05 -4.65 Q0.85 -4.65 0.8 -4.6 1.1 -4.45 1.55 -4.35 L1.8 -4.3 -0.3 -4.5 -0.2 -4.65 -0.25 -4.5 -0.2 -4.5 Q-0.15 -4.7 0.05 -4.75 L1.05 -4.9 1.65 -4.9 1.7 -4.85 Q1.95 -4.85 2.5 -4.55 L2.95 -4.4 M3.75 -4.2 L3.3 -4.35 2.7 -5.1 2.05 -5.75 2.2 -5.75 2.25 -5.8 Q2.7 -5.65 3.25 -5.0 3.65 -4.5 3.75 -4.2 M1.7 -5.3 L2.1 -5.35 Q2.25 -5.3 2.35 -5.25 2.4 -5.15 2.5 -5.15 L2.85 -4.75 2.9 -4.55 2.55 -4.7 Q2.15 -4.9 1.1 -4.95 0.85 -4.8 0.0 -4.8 L-0.2 -4.85 -0.25 -5.1 -0.3 -5.45 -0.3 -5.6 Q-0.1 -5.5 0.15 -5.5 L0.7 -5.5 Q1.05 -5.5 1.55 -5.65 L1.8 -5.75 2.1 -5.5 2.25 -5.35 0.8 -5.5 0.8 -5.45 1.35 -5.45 Q1.45 -5.3 1.7 -5.3 M-0.9 -4.65 Q-0.8 -4.8 -0.8 -4.85 -0.8 -4.95 -0.6 -5.7 L-0.5 -5.7 -0.3 -4.85 Q-0.3 -4.6 -0.5 -4.3 L-0.45 -4.4 -0.9 -4.65 M-2.75 -2.95 L-2.75 -3.0 Q-2.65 -3.1 -2.65 -3.2 L-2.6 -3.15 -2.7 -3.0 -2.75 -2.95 M-3.95 -4.25 L-4.35 -4.2 -5.05 -4.2 -5.1 -4.4 -5.05 -4.45 -5.05 -4.5 -4.75 -4.4 Q-4.6 -4.35 -3.95 -4.25 M-5.0 -3.25 L-5.05 -3.3 -5.05 -3.5 -5.0 -3.65 -4.95 -3.75 -4.9 -3.7 -4.2 -3.7 -4.1 -3.65 Q-4.7 -3.45 -5.0 -3.25 M-4.05 -2.15 L-4.0 -2.1 -3.75 -2.5 -3.7 -2.6 -3.55 -2.2 -3.7 -2.05 -3.8 -1.85 -3.95 -2.0 -4.05 -2.15 M-3.3 -2.65 L-3.3 -2.7 -3.3 -2.65 M-4.05 -3.15 L-4.15 -2.85 -4.35 -2.55 Q-4.5 -2.3 -4.65 -1.85 L-4.75 -2.0 Q-4.85 -2.1 -4.85 -2.2 -4.85 -2.5 -4.6 -2.75 L-4.05 -3.15" fill="#800000" fill-rule="evenodd" stroke="none"/>
    <path d="M2.95 -4.4 L3.0 -4.35 3.05 -4.25 3.2 -4.0 3.25 -3.9 Q3.05 -4.05 2.9 -4.05 L1.7 -4.1 1.7 -4.05 1.3 -4.05 -0.55 -3.85 -0.85 -3.75 -0.8 -3.8 Q-0.4 -4.2 -0.3 -4.5 L1.8 -4.3 1.55 -4.35 Q1.1 -4.45 0.8 -4.6 0.85 -4.65 1.05 -4.65 L2.25 -4.5 2.95 -4.4 M3.75 -4.2 L3.8 -3.95 3.7 -3.75 3.7 -3.7 Q3.6 -3.9 3.3 -4.35 L3.75 -4.2 M-0.9 -4.65 L-0.45 -4.4 -0.5 -4.3 -0.9 -3.85 -0.95 -3.8 Q-1.1 -3.6 -1.55 -3.35 -1.9 -3.2 -2.6 -2.85 L-2.65 -2.85 -2.7 -2.95 -2.75 -2.95 -2.7 -3.0 -2.6 -3.15 -2.55 -3.15 Q-2.45 -3.15 -2.3 -3.25 L-2.25 -3.3 Q-2.0 -3.5 -1.5 -3.95 L-0.9 -4.65 M-5.05 -4.2 L-4.35 -4.2 -3.95 -4.25 -3.9 -4.25 Q-3.8 -4.25 -3.7 -4.1 L-3.6 -3.95 -3.75 -3.8 -3.95 -3.85 -3.95 -3.8 -4.9 -3.8 -5.05 -4.2 M-5.0 -3.25 Q-4.7 -3.45 -4.1 -3.65 L-3.85 -3.65 -3.85 -3.6 -3.8 -3.5 -4.3 -3.25 -4.45 -3.2 Q-4.75 -3.1 -4.9 -3.1 -4.95 -3.1 -5.0 -3.25 M-4.05 -2.15 L-4.1 -2.15 Q-4.15 -2.2 -4.2 -2.2 L-4.25 -2.2 -4.4 -2.1 -4.35 -2.4 Q-4.2 -2.85 -3.85 -3.0 L-3.6 -3.1 -3.3 -2.7 -3.3 -2.65 -3.15 -2.55 -3.35 -2.2 Q-3.55 -1.8 -3.75 -1.7 L-3.8 -1.85 -3.7 -2.05 -3.55 -2.2 -3.7 -2.6 -3.75 -2.5 -4.0 -2.1 -4.05 -2.15 M-3.6 -3.6 L-3.5 -3.7 -3.2 -3.45 Q-3.05 -3.25 -2.95 -3.25 L-2.9 -3.1 -2.9 -3.05 -3.0 -2.75 -3.1 -2.7 Q-3.2 -2.7 -3.45 -3.1 L-3.65 -3.5 -3.6 -3.5 -3.6 -3.6 M-4.05 -3.15 L-3.8 -3.35 -3.75 -3.4 -3.65 -3.2 Q-3.95 -3.05 -4.15 -2.85 L-4.05 -3.15" fill="#600000" fill-rule="evenodd" stroke="none"/>
  </g>
</svg>
